,note,step,duration,channel,velocity
0,71.0,120,120,0.0,0.0
1,66.0,120,120,0.0,0.0
2,69.0,120,120,0.0,0.0
3,67.0,120,120,0.0,0.0
4,69.0,120,120,0.0,0.0
5,71.0,120,120,0.0,0.0
6,66.0,120,120,0.0,0.0
7,67.0,120,120,0.0,0.0
8,63.0,120,120,0.0,0.0
9,64.0,120,120,0.0,0.0
10,59.0,120,120,0.0,0.0
11,60.0,120,120,0.0,0.0
12,62.0,120,120,0.0,0.0
13,64.0,120,120,0.0,0.0
14,59.0,120,120,0.0,0.0
15,60.0,120,120,0.0,0.0
16,56.0,120,120,0.0,0.0
17,57.0,120,120,0.0,0.0
18,52.0,120,120,0.0,0.0
19,54.0,120,120,0.0,0.0
20,55.0,120,120,0.0,0.0
21,57.0,120,120,0.0,0.0
22,52.0,120,120,0.0,0.0
23,54.0,120,120,0.0,0.0
24,49.0,120,120,0.0,0.0
25,51.0,120,120,0.0,0.0
26,52.0,120,120,0.0,0.0
27,51.0,120,120,0.0,0.0
28,45.0,120,120,0.0,0.0
29,47.0,120,120,0.0,0.0
30,42.0,120,120,0.0,0.0
31,43.0,120,120,0.0,0.0
32,45.0,120,120,0.0,0.0
33,47.0,120,120,0.0,0.0
34,42.0,120,120,0.0,0.0
35,43.0,120,120,0.0,0.0
36,47.0,120,120,0.0,0.0
37,52.0,120,120,0.0,0.0
38,51.0,120,120,0.0,0.0
39,52.0,120,120,0.0,0.0
40,43.0,120,120,0.0,0.0
41,42.0,120,120,0.0,0.0
42,40.0,120,120,0.0,0.0
43,39.0,120,120,0.0,0.0
44,42.0,120,120,0.0,0.0
45,47.0,120,120,0.0,0.0
46,45.0,120,120,0.0,0.0
47,43.0,120,120,0.0,0.0
48,59.0,120,120,0.0,0.0
49,54.0,120,120,0.0,0.0
50,57.0,120,120,0.0,0.0
51,55.0,120,120,0.0,0.0
52,57.0,120,120,0.0,0.0
53,59.0,120,120,0.0,0.0
54,54.0,120,120,0.0,0.0
55,55.0,120,120,0.0,0.0
56,51.0,120,120,0.0,0.0
57,52.0,120,120,0.0,0.0
58,45.0,40,120,0.0,0.0
59,47.0,40,40,0.0,0.0
60,45.0,40,40,0.0,0.0
61,47.0,40,40,0.0,0.0
62,45.0,40,40,0.0,0.0
63,47.0,40,40,0.0,0.0
64,45.0,40,40,0.0,0.0
65,47.0,40,40,0.0,0.0
66,45.0,40,40,0.0,0.0
67,47.0,120,40,0.0,0.0
68,47.0,240,120,0.0,0.0
69,40.0,360,240,0.0,0.0
70,60.0,60,60,0.0,0.0
71,59.0,60,60,0.0,0.0
72,57.0,60,60,0.0,0.0
73,55.0,60,60,0.0,0.0
74,54.0,60,60,0.0,0.0
75,52.0,20,60,0.0,0.0
76,54.0,40,40,0.0,0.0
77,51.0,60,40,0.0,0.0
78,40.0,0,480,0.0,0.0
79,43.0,0,480,0.0,0.0
80,47.0,240,480,0.0,0.0
81,52.0,60,60,0.0,0.0
82,51.0,360,60,0.0,0.0
83,52.0,0,360,0.0,0.0
84,67.0,40,120,0.0,0.0
85,66.0,40,40,0.0,0.0
86,67.0,40,40,0.0,0.0
87,66.0,60,40,0.0,0.0
88,67.0,60,60,0.0,0.0
89,69.0,360,60,0.0,0.0
90,63.0,120,360,0.0,0.0
91,63.0,0,120,0.0,0.0
92,54.0,0,120,0.0,0.0
93,57.0,360,120,0.0,0.0
94,54.0,120,360,0.0,0.0
95,63.0,0,360,0.0,0.0
96,57.0,0,360,0.0,0.0
97,63.0,0,120,0.0,0.0
98,54.0,480,120,0.0,0.0
99,57.0,0,120,0.0,0.0
100,40.0,0,480,0.0,0.0
101,47.0,0,480,0.0,0.0
102,52.0,0,480,0.0,0.0
103,55.0,240,480,0.0,0.0
104,59.0,0,480,0.0,0.0
105,64.0,0,480,0.0,0.0
106,66.0,120,120,0.0,0.0
107,64.0,120,120,0.0,0.0
108,62.0,120,120,0.0,0.0
109,61.0,120,120,0.0,0.0
110,62.0,120,120,0.0,0.0
111,64.0,120,120,0.0,0.0
112,62.0,120,120,0.0,0.0
113,61.0,120,120,0.0,0.0
114,59.0,120,120,0.0,0.0
115,58.0,120,120,0.0,0.0
116,59.0,360,120,0.0,0.0
117,58.0,120,360,0.0,0.0
118,40.0,0,120,0.0,0.0
119,49.0,0,120,0.0,0.0
120,54.0,360,120,0.0,0.0
121,58.0,0,120,0.0,0.0
122,40.0,0,360,0.0,0.0
123,58.0,0,360,0.0,0.0
124,49.0,0,360,0.0,0.0
125,54.0,120,360,0.0,0.0
126,40.0,0,120,0.0,0.0
127,49.0,0,120,0.0,0.0
128,54.0,480,120,0.0,0.0
129,58.0,0,120,0.0,0.0
130,47.0,0,480,0.0,0.0
131,50.0,0,480,0.0,0.0
132,54.0,240,480,0.0,0.0
133,59.0,0,480,0.0,0.0
134,38.0,0,480,0.0,0.0
135,66.0,120,120,0.0,0.0
136,61.0,120,120,0.0,0.0
137,64.0,120,120,0.0,0.0
138,62.0,120,120,0.0,0.0
139,64.0,120,120,0.0,0.0
140,66.0,120,120,0.0,0.0
141,61.0,120,120,0.0,0.0
142,62.0,120,120,0.0,0.0
143,58.0,120,120,0.0,0.0
144,59.0,60,120,0.0,0.0
145,61.0,60,60,0.0,0.0
146,62.0,360,60,0.0,0.0
147,56.0,120,360,0.0,0.0
148,40.0,0,120,0.0,0.0
149,47.0,0,120,0.0,0.0
150,52.0,360,120,0.0,0.0
151,56.0,0,120,0.0,0.0
152,40.0,0,360,0.0,0.0
153,47.0,0,360,0.0,0.0
154,50.0,120,360,0.0,0.0
155,56.0,0,360,0.0,0.0
156,47.0,0,120,0.0,0.0
157,50.0,480,120,0.0,0.0
158,56.0,0,120,0.0,0.0
159,40.0,0,120,0.0,0.0
160,52.0,60,480,0.0,0.0
161,36.0,0,480,0.0,0.0
162,57.0,0,480,0.0,0.0
163,48.0,0,480,0.0,0.0
164,69.0,60,60,0.0,0.0
165,67.0,60,60,0.0,0.0
166,65.0,60,60,0.0,0.0
167,64.0,60,60,0.0,0.0
168,62.0,60,60,0.0,0.0
169,60.0,60,60,0.0,0.0
170,59.0,60,60,0.0,0.0
171,57.0,360,60,0.0,0.0
172,62.0,120,360,0.0,0.0
173,44.0,360,120,0.0,0.0
174,52.0,0,120,0.0,0.0
175,59.0,0,120,0.0,0.0
176,62.0,0,120,0.0,0.0
177,62.0,0,360,0.0,0.0
178,59.0,0,360,0.0,0.0
179,52.0,120,360,0.0,0.0
180,44.0,0,360,0.0,0.0
181,44.0,0,120,0.0,0.0
182,52.0,0,120,0.0,0.0
183,59.0,40,120,0.0,0.0
184,62.0,0,120,0.0,0.0
185,61.0,40,40,0.0,0.0
186,45.0,0,480,0.0,0.0
187,52.0,0,480,0.0,0.0
188,57.0,0,480,0.0,0.0
189,62.0,40,40,0.0,0.0
190,61.0,40,40,0.0,0.0
191,62.0,80,40,0.0,0.0
192,61.0,40,40,0.0,0.0
193,62.0,200,40,0.0,0.0
194,61.0,60,180,0.0,0.0
195,52.0,60,60,0.0,0.0
196,54.0,60,60,0.0,0.0
197,56.0,60,60,0.0,0.0
198,57.0,60,60,0.0,0.0
199,59.0,60,60,0.0,0.0
200,60.0,60,60,0.0,0.0
201,62.0,20,60,0.0,0.0
202,64.0,40,40,0.0,0.0
203,59.0,360,40,0.0,0.0
204,60.0,0,360,0.0,0.0
205,45.0,120,360,0.0,0.0
206,52.0,0,360,0.0,0.0
207,57.0,0,360,0.0,0.0
208,45.0,0,120,0.0,0.0
209,52.0,0,120,0.0,0.0
210,57.0,360,120,0.0,0.0
211,60.0,0,120,0.0,0.0
212,45.0,120,360,0.0,0.0
213,57.0,0,360,0.0,0.0
214,60.0,0,360,0.0,0.0
215,65.0,0,360,0.0,0.0
216,55.0,480,120,0.0,0.0
217,60.0,0,120,0.0,0.0
218,64.0,0,120,0.0,0.0
219,45.0,0,120,0.0,0.0
220,59.0,240,480,0.0,0.0
221,63.0,0,480,0.0,0.0
222,54.0,0,480,0.0,0.0
223,45.0,0,480,0.0,0.0
224,64.0,40,360,0.0,0.0
225,43.0,0,240,0.0,0.0
226,52.0,120,240,0.0,0.0
227,59.0,0,240,0.0,0.0
228,62.0,40,40,0.0,0.0
229,60.0,40,40,0.0,0.0
230,59.0,240,40,0.0,0.0
231,43.0,0,240,0.0,0.0
232,52.0,120,240,0.0,0.0
233,57.0,0,240,0.0,0.0
234,61.0,60,360,0.0,0.0
235,69.0,60,60,0.0,0.0
236,61.0,360,60,0.0,0.0
237,63.0,120,360,0.0,0.0
238,42.0,360,240,0.0,0.0
239,54.0,0,240,0.0,0.0
240,57.0,0,240,0.0,0.0
241,63.0,0,120,0.0,0.0
242,43.0,40,480,0.0,0.0
243,52.0,0,480,0.0,0.0
244,59.0,0,480,0.0,0.0
245,64.0,40,360,0.0,0.0
246,64.0,40,40,0.0,0.0
247,62.0,40,40,0.0,0.0
248,60.0,0,40,0.0,0.0
249,59.0,40,40,0.0,0.0
250,60.0,40,40,0.0,0.0
251,59.0,40,40,0.0,0.0
252,60.0,200,40,0.0,0.0
253,59.0,120,180,0.0,0.0
254,59.0,360,120,0.0,0.0
255,39.0,0,480,0.0,0.0
256,59.0,60,360,0.0,0.0
257,54.0,0,480,0.0,0.0
258,47.0,0,480,0.0,0.0
259,57.0,40,480,0.0,0.0
260,66.0,60,60,0.0,0.0
261,59.0,0,60,0.0,0.0
262,59.0,40,40,0.0,0.0
263,60.0,40,40,0.0,0.0
264,59.0,40,40,0.0,0.0
265,60.0,200,40,0.0,0.0
266,59.0,120,180,0.0,0.0
267,54.0,0,240,0.0,0.0
268,39.0,360,240,0.0,0.0
269,47.0,0,240,0.0,0.0
270,59.0,0,120,0.0,0.0
271,59.0,60,360,0.0,0.0
272,47.0,0,480,0.0,0.0
273,52.0,0,480,0.0,0.0
274,55.0,0,480,0.0,0.0
275,40.0,40,480,0.0,0.0
276,67.0,60,60,0.0,0.0
277,59.0,0,60,0.0,0.0
278,59.0,40,40,0.0,0.0
279,60.0,40,40,0.0,0.0
280,59.0,40,40,0.0,0.0
281,60.0,200,40,0.0,0.0
282,59.0,120,180,0.0,0.0
283,40.0,360,240,0.0,0.0
284,52.0,0,240,0.0,0.0
285,55.0,0,240,0.0,0.0
286,59.0,0,120,0.0,0.0
287,40.0,160,480,0.0,0.0
288,49.0,0,480,0.0,0.0
289,54.0,0,480,0.0,0.0
290,58.0,120,360,0.0,0.0
291,58.0,0,120,0.0,0.0
292,38.0,0,240,0.0,0.0
293,54.0,20,240,0.0,0.0
294,59.0,0,240,0.0,0.0
295,71.0,40,40,0.0,0.0
296,69.0,40,40,0.0,0.0
297,67.0,60,40,0.0,0.0
298,66.0,40,40,0.0,0.0
299,64.0,40,40,0.0,0.0
300,62.0,40,40,0.0,0.0
301,61.0,40,40,0.0,0.0
302,59.0,360,40,0.0,0.0
303,64.0,60,360,0.0,0.0
304,56.0,0,60,0.0,0.0
305,50.0,360,120,0.0,0.0
306,57.0,60,60,0.0,0.0
307,59.0,0,60,0.0,0.0
308,48.0,360,480,0.0,0.0
309,52.0,120,360,0.0,0.0
310,57.0,0,360,0.0,0.0
311,54.0,0,120,0.0,0.0
312,57.0,0,120,0.0,0.0
313,47.0,0,960,0.0,0.0
314,52.0,120,360,0.0,0.0
315,55.0,0,360,0.0,0.0
316,59.0,120,720,0.0,0.0
317,54.0,240,120,0.0,0.0
318,52.0,120,360,0.0,0.0
319,55.0,0,360,0.0,0.0
320,52.0,360,120,0.0,0.0
321,58.0,0,120,0.0,0.0
322,61.0,0,120,0.0,0.0
323,63.0,0,360,0.0,0.0
324,47.0,480,960,0.0,0.0
325,54.0,120,360,0.0,0.0
326,59.0,0,360,0.0,0.0
327,54.0,360,120,0.0,0.0
328,59.0,0,120,0.0,0.0
329,63.0,0,120,0.0,0.0
330,64.0,0,360,0.0,0.0
331,55.0,60,360,0.0,0.0
332,59.0,0,360,0.0,0.0
333,52.0,0,120,0.0,0.0
334,59.0,0,120,0.0,0.0
335,66.0,60,60,0.0,0.0
336,67.0,0,60,0.0,0.0
337,66.0,0,480,0.0,0.0
338,59.0,240,480,0.0,0.0
339,51.0,0,480,0.0,0.0
340,47.0,0,480,0.0,0.0
341,66.0,240,240,0.0,0.0
342,71.0,240,240,0.0,0.0
343,71.0,240,240,0.0,0.0
344,59.0,0,240,0.0,0.0
345,69.0,240,240,0.0,0.0
346,64.0,120,240,0.0,0.0
347,67.0,0,240,0.0,0.0
348,64.0,120,240,0.0,0.0
349,67.0,120,120,0.0,0.0
350,66.0,0,120,0.0,0.0
351,62.0,240,240,0.0,0.0
352,67.0,120,120,0.0,0.0
353,64.0,0,120,0.0,0.0
354,60.0,0,240,0.0,0.0
355,69.0,120,240,0.0,0.0
356,69.0,120,240,0.0,0.0
357,60.0,120,120,0.0,0.0
358,59.0,0,120,0.0,0.0
359,60.0,120,120,0.0,0.0
360,67.0,0,240,0.0,0.0
361,57.0,240,120,0.0,0.0
362,62.0,120,240,0.0,0.0
363,66.0,0,240,0.0,0.0
364,62.0,0,240,0.0,0.0
365,66.0,120,120,0.0,0.0
366,64.0,120,120,0.0,0.0
367,66.0,120,120,0.0,0.0
368,60.0,240,240,0.0,0.0
369,62.0,0,120,0.0,0.0
370,59.0,120,240,0.0,0.0
371,67.0,0,240,0.0,0.0
372,59.0,120,120,0.0,0.0
373,67.0,120,240,0.0,0.0
374,57.0,0,120,0.0,0.0
375,66.0,240,240,0.0,0.0
376,59.0,120,120,0.0,0.0
377,55.0,0,120,0.0,0.0
378,60.0,120,240,0.0,0.0
379,64.0,0,240,0.0,0.0
380,60.0,120,120,0.0,0.0
381,69.0,0,720,0.0,0.0
382,59.0,120,120,0.0,0.0
383,60.0,120,120,0.0,0.0
384,57.0,240,120,0.0,0.0
385,59.0,120,240,0.0,0.0
386,64.0,0,240,0.0,0.0
387,67.0,120,120,0.0,0.0
388,66.0,240,120,0.0,0.0
389,64.0,0,480,0.0,0.0
390,52.0,0,240,0.0,0.0
391,67.0,240,240,0.0,0.0
392,66.0,240,720,0.0,0.0
393,59.0,120,240,0.0,0.0
394,63.0,120,120,0.0,0.0
395,59.0,240,240,0.0,0.0
396,61.0,0,120,0.0,0.0
397,63.0,0,240,0.0,0.0
398,57.0,0,240,0.0,0.0
399,55.0,120,240,0.0,0.0
400,64.0,0,240,0.0,0.0
401,55.0,120,120,0.0,0.0
402,64.0,120,240,0.0,0.0
403,54.0,0,120,0.0,0.0
404,62.0,240,240,0.0,0.0
405,55.0,120,120,0.0,0.0
406,52.0,0,120,0.0,0.0
407,57.0,120,240,0.0,0.0
408,61.0,0,240,0.0,0.0
409,57.0,120,240,0.0,0.0
410,61.0,120,120,0.0,0.0
411,59.0,0,120,0.0,0.0
412,55.0,0,240,0.0,0.0
413,61.0,120,120,0.0,0.0
414,57.0,240,120,0.0,0.0
415,54.0,0,240,0.0,0.0
416,62.0,120,240,0.0,0.0
417,62.0,120,240,0.0,0.0
418,54.0,120,120,0.0,0.0
419,52.0,0,120,0.0,0.0
420,54.0,120,120,0.0,0.0
421,60.0,240,240,0.0,0.0
422,50.0,0,120,0.0,0.0
423,59.0,0,240,0.0,0.0
424,55.0,120,240,0.0,0.0
425,55.0,120,120,0.0,0.0
426,64.0,120,720,0.0,0.0
427,54.0,120,120,0.0,0.0
428,55.0,120,120,0.0,0.0
429,52.0,240,120,0.0,0.0
430,54.0,0,240,0.0,0.0
431,59.0,240,240,0.0,0.0
432,62.0,120,120,0.0,0.0
433,61.0,0,120,0.0,0.0
434,59.0,0,480,0.0,0.0
435,62.0,240,240,0.0,0.0
436,47.0,0,240,0.0,0.0
437,61.0,0,720,0.0,0.0
438,54.0,120,240,0.0,0.0
439,58.0,120,120,0.0,0.0
440,54.0,0,240,0.0,0.0
441,56.0,240,120,0.0,0.0
442,42.0,0,240,0.0,0.0
443,52.0,240,240,0.0,0.0
444,58.0,0,240,0.0,0.0
445,47.0,120,240,0.0,0.0
446,51.0,0,240,0.0,0.0
447,59.0,120,480,0.0,0.0
448,47.0,0,240,0.0,0.0
449,51.0,120,120,0.0,0.0
450,49.0,0,120,0.0,0.0
451,45.0,240,240,0.0,0.0
452,51.0,120,120,0.0,0.0
453,47.0,0,120,0.0,0.0
454,43.0,120,240,0.0,0.0
455,52.0,0,240,0.0,0.0
456,52.0,120,240,0.0,0.0
457,43.0,120,120,0.0,0.0
458,42.0,0,120,0.0,0.0
459,43.0,120,120,0.0,0.0
460,50.0,240,240,0.0,0.0
461,40.0,0,120,0.0,0.0
462,45.0,0,240,0.0,0.0
463,49.0,120,240,0.0,0.0
464,45.0,120,240,0.0,0.0
465,49.0,120,120,0.0,0.0
466,47.0,0,120,0.0,0.0
467,43.0,0,240,0.0,0.0
468,49.0,120,120,0.0,0.0
469,45.0,240,120,0.0,0.0
470,50.0,0,240,0.0,0.0
471,42.0,120,240,0.0,0.0
472,42.0,120,120,0.0,0.0
473,50.0,120,240,0.0,0.0
474,40.0,0,120,0.0,0.0
475,42.0,120,120,0.0,0.0
476,48.0,0,240,0.0,0.0
477,38.0,240,120,0.0,0.0
478,43.0,120,240,0.0,0.0
479,47.0,0,240,0.0,0.0
480,43.0,120,120,0.0,0.0
481,52.0,120,240,0.0,0.0
482,42.0,0,120,0.0,0.0
483,43.0,120,120,0.0,0.0
484,50.0,240,240,0.0,0.0
485,40.0,0,120,0.0,0.0
486,45.0,120,240,0.0,0.0
487,49.0,0,240,0.0,0.0
488,45.0,120,120,0.0,0.0
489,54.0,120,240,0.0,0.0
490,43.0,0,120,0.0,0.0
491,52.0,240,240,0.0,0.0
492,45.0,120,120,0.0,0.0
493,42.0,0,120,0.0,0.0
494,47.0,120,240,0.0,0.0
495,51.0,0,240,0.0,0.0
496,47.0,120,120,0.0,0.0
497,55.0,120,240,0.0,0.0
498,45.0,0,120,0.0,0.0
499,47.0,120,120,0.0,0.0
500,54.0,240,240,0.0,0.0
501,43.0,0,120,0.0,0.0
502,48.0,120,240,0.0,0.0
503,52.0,0,240,0.0,0.0
504,48.0,120,120,0.0,0.0
505,57.0,120,720,0.0,0.0
506,47.0,120,120,0.0,0.0
507,48.0,120,120,0.0,0.0
508,45.0,240,120,0.0,0.0
509,47.0,0,240,0.0,0.0
510,52.0,240,240,0.0,0.0
511,55.0,120,120,0.0,0.0
512,54.0,0,120,0.0,0.0
513,52.0,240,480,0.0,0.0
514,55.0,240,240,0.0,0.0
515,64.0,0,240,0.0,0.0
516,54.0,0,720,0.0,0.0
517,71.0,0,240,0.0,0.0
518,51.0,0,480,0.0,0.0
519,71.0,240,240,0.0,0.0
520,59.0,240,240,0.0,0.0
521,69.0,0,240,0.0,0.0
522,52.0,120,240,0.0,0.0
523,67.0,0,240,0.0,0.0
524,64.0,0,240,0.0,0.0
525,64.0,120,240,0.0,0.0
526,67.0,120,120,0.0,0.0
527,66.0,0,120,0.0,0.0
528,67.0,120,120,0.0,0.0
529,62.0,240,240,0.0,0.0
530,64.0,0,120,0.0,0.0
531,60.0,0,240,0.0,0.0
532,69.0,120,240,0.0,0.0
533,60.0,120,120,0.0,0.0
534,64.0,120,240,0.0,0.0
535,59.0,0,120,0.0,0.0
536,69.0,240,240,0.0,0.0
537,60.0,120,120,0.0,0.0
538,57.0,0,120,0.0,0.0
539,56.0,120,240,0.0,0.0
540,71.0,0,240,0.0,0.0
541,56.0,120,120,0.0,0.0
542,64.0,0,240,0.0,0.0
543,54.0,120,120,0.0,0.0
544,71.0,0,240,0.0,0.0
545,56.0,120,120,0.0,0.0
546,52.0,120,120,0.0,0.0
547,72.0,120,240,0.0,0.0
548,57.0,120,120,0.0,0.0
549,56.0,0,120,0.0,0.0
550,57.0,120,120,0.0,0.0
551,64.0,120,240,0.0,0.0
552,59.0,0,120,0.0,0.0
553,60.0,120,120,0.0,0.0
554,69.0,240,240,0.0,0.0
555,57.0,0,120,0.0,0.0
556,62.0,120,240,0.0,0.0
557,66.0,0,240,0.0,0.0
558,50.0,120,240,0.0,0.0
559,66.0,120,120,0.0,0.0
560,64.0,0,120,0.0,0.0
561,48.0,240,240,0.0,0.0
562,66.0,120,120,0.0,0.0
563,62.0,0,120,0.0,0.0
564,47.0,120,240,0.0,0.0
565,67.0,0,240,0.0,0.0
566,47.0,120,120,0.0,0.0
567,62.0,0,240,0.0,0.0
568,67.0,0,240,0.0,0.0
569,45.0,120,120,0.0,0.0
570,47.0,120,120,0.0,0.0
571,62.0,240,240,0.0,0.0
572,66.0,0,240,0.0,0.0
573,43.0,0,120,0.0,0.0
574,60.0,0,240,0.0,0.0
575,64.0,0,240,0.0,0.0
576,48.0,0,240,0.0,0.0
577,55.0,120,240,0.0,0.0
578,69.0,0,240,0.0,0.0
579,64.0,120,240,0.0,0.0
580,48.0,120,120,0.0,0.0
581,47.0,0,120,0.0,0.0
582,48.0,120,120,0.0,0.0
583,64.0,240,240,0.0,0.0
584,67.0,0,240,0.0,0.0
585,45.0,0,120,0.0,0.0
586,66.0,120,240,0.0,0.0
587,50.0,0,240,0.0,0.0
588,57.0,0,240,0.0,0.0
589,62.0,0,240,0.0,0.0
590,59.0,120,120,0.0,0.0
591,67.0,0,120,0.0,0.0
592,57.0,120,120,0.0,0.0
593,66.0,0,120,0.0,0.0
594,67.0,0,120,0.0,0.0
595,59.0,120,120,0.0,0.0
596,64.0,0,120,0.0,0.0
597,55.0,240,120,0.0,0.0
598,50.0,120,480,0.0,0.0
599,57.0,0,240,0.0,0.0
600,62.0,120,240,0.0,0.0
601,66.0,0,240,0.0,0.0
602,55.0,120,120,0.0,0.0
603,71.0,0,120,0.0,0.0
604,54.0,0,120,0.0,0.0
605,69.0,0,120,0.0,0.0
606,55.0,120,120,0.0,0.0
607,71.0,0,120,0.0,0.0
608,52.0,240,120,0.0,0.0
609,67.0,0,120,0.0,0.0
610,62.0,120,240,0.0,0.0
611,69.0,0,240,0.0,0.0
612,50.0,0,240,0.0,0.0
613,54.0,0,240,0.0,0.0
614,55.0,0,240,0.0,0.0
615,47.0,120,120,0.0,0.0
616,62.0,120,240,0.0,0.0
617,45.0,0,120,0.0,0.0
618,47.0,120,120,0.0,0.0
619,55.0,240,240,0.0,0.0
620,62.0,0,240,0.0,0.0
621,43.0,0,120,0.0,0.0
622,48.0,120,240,0.0,0.0
623,55.0,0,240,0.0,0.0
624,62.0,0,240,0.0,0.0
625,64.0,0,240,0.0,0.0
626,48.0,120,120,0.0,0.0
627,64.0,0,240,0.0,0.0
628,60.0,0,240,0.0,0.0
629,57.0,120,240,0.0,0.0
630,47.0,0,120,0.0,0.0
631,48.0,120,120,0.0,0.0
632,60.0,240,240,0.0,0.0
633,64.0,0,240,0.0,0.0
634,45.0,0,120,0.0,0.0
635,50.0,0,240,0.0,0.0
636,60.0,0,240,0.0,0.0
637,62.0,240,240,0.0,0.0
638,66.0,0,240,0.0,0.0
639,59.0,240,240,0.0,0.0
640,52.0,0,240,0.0,0.0
641,67.0,0,240,0.0,0.0
642,54.0,120,240,0.0,0.0
643,62.0,0,240,0.0,0.0
644,69.0,0,240,0.0,0.0
645,55.0,240,240,0.0,0.0
646,62.0,0,240,0.0,0.0
647,71.0,120,120,0.0,0.0
648,67.0,0,120,0.0,0.0
649,50.0,0,240,0.0,0.0
650,57.0,0,240,0.0,0.0
651,62.0,120,240,0.0,0.0
652,66.0,120,360,0.0,0.0
653,60.0,0,240,0.0,0.0
654,50.0,0,240,0.0,0.0
655,38.0,0,240,0.0,0.0
656,67.0,240,120,0.0,0.0
657,67.0,120,240,0.0,0.0
658,43.0,0,240,0.0,0.0
659,59.0,0,240,0.0,0.0
660,62.0,0,240,0.0,0.0
661,55.0,120,120,0.0,0.0
662,64.0,120,240,0.0,0.0
663,54.0,0,120,0.0,0.0
664,55.0,120,120,0.0,0.0
665,62.0,240,240,0.0,0.0
666,52.0,0,120,0.0,0.0
667,57.0,120,240,0.0,0.0
668,61.0,0,240,0.0,0.0
669,61.0,120,120,0.0,0.0
670,57.0,120,240,0.0,0.0
671,59.0,0,120,0.0,0.0
672,55.0,240,240,0.0,0.0
673,61.0,120,120,0.0,0.0
674,57.0,0,120,0.0,0.0
675,62.0,120,240,0.0,0.0
676,54.0,0,240,0.0,0.0
677,62.0,0,240,0.0,0.0
678,54.0,120,120,0.0,0.0
679,52.0,120,120,0.0,0.0
680,60.0,240,240,0.0,0.0
681,54.0,120,120,0.0,0.0
682,50.0,0,120,0.0,0.0
683,55.0,120,240,0.0,0.0
684,59.0,0,240,0.0,0.0
685,55.0,120,240,0.0,0.0
686,59.0,120,120,0.0,0.0
687,57.0,0,120,0.0,0.0
688,54.0,240,240,0.0,0.0
689,59.0,120,120,0.0,0.0
690,55.0,0,120,0.0,0.0
691,60.0,120,240,0.0,0.0
692,52.0,0,240,0.0,0.0
693,60.0,120,120,0.0,0.0
694,59.0,120,120,0.0,0.0
695,60.0,120,120,0.0,0.0
696,57.0,0,120,0.0,0.0
697,59.0,120,240,0.0,0.0
698,55.0,120,120,0.0,0.0
699,64.0,0,720,0.0,0.0
700,54.0,120,120,0.0,0.0
701,40.0,240,240,0.0,0.0
702,55.0,120,120,0.0,0.0
703,52.0,0,120,0.0,0.0
704,47.0,120,240,0.0,0.0
705,54.0,240,720,0.0,0.0
706,63.0,120,120,0.0,0.0
707,47.0,120,240,0.0,0.0
708,61.0,0,120,0.0,0.0
709,45.0,0,240,0.0,0.0
710,63.0,120,120,0.0,0.0
711,59.0,0,120,0.0,0.0
712,44.0,0,240,0.0,0.0
713,64.0,120,240,0.0,0.0
714,52.0,0,720,0.0,0.0
715,44.0,120,120,0.0,0.0
716,59.0,120,240,0.0,0.0
717,42.0,0,120,0.0,0.0
718,44.0,120,120,0.0,0.0
719,64.0,0,240,0.0,0.0
720,40.0,240,120,0.0,0.0
721,60.0,120,240,0.0,0.0
722,45.0,0,240,0.0,0.0
723,52.0,240,720,0.0,0.0
724,45.0,120,120,0.0,0.0
725,57.0,0,240,0.0,0.0
726,44.0,120,120,0.0,0.0
727,60.0,0,240,0.0,0.0
728,45.0,120,120,0.0,0.0
729,42.0,0,120,0.0,0.0
730,44.0,0,240,0.0,0.0
731,52.0,120,960,0.0,0.0
732,59.0,120,240,0.0,0.0
733,44.0,120,120,0.0,0.0
734,64.0,120,240,0.0,0.0
735,42.0,0,120,0.0,0.0
736,44.0,120,120,0.0,0.0
737,59.0,240,240,0.0,0.0
738,40.0,0,120,0.0,0.0
739,45.0,0,960,0.0,0.0
740,60.0,0,240,0.0,0.0
741,57.0,0,240,0.0,0.0
742,60.0,0,240,0.0,0.0
743,65.0,120,120,0.0,0.0
744,67.0,120,120,0.0,0.0
745,64.0,120,120,0.0,0.0
746,55.0,240,240,0.0,0.0
747,65.0,0,120,0.0,0.0
748,54.0,0,240,0.0,0.0
749,63.0,0,240,0.0,0.0
750,59.0,120,240,0.0,0.0
751,71.0,120,120,0.0,0.0
752,63.0,120,120,0.0,0.0
753,71.0,120,120,0.0,0.0
754,63.0,240,120,0.0,0.0
755,43.0,120,960,0.0,0.0
756,64.0,120,240,0.0,0.0
757,59.0,0,240,0.0,0.0
758,64.0,120,120,0.0,0.0
759,55.0,120,240,0.0,0.0
760,66.0,0,120,0.0,0.0
761,54.0,0,240,0.0,0.0
762,62.0,120,120,0.0,0.0
763,64.0,240,120,0.0,0.0
764,52.0,0,240,0.0,0.0
765,57.0,0,240,0.0,0.0
766,61.0,0,240,0.0,0.0
767,69.0,120,120,0.0,0.0
768,61.0,120,120,0.0,0.0
769,69.0,120,120,0.0,0.0
770,61.0,240,120,0.0,0.0
771,62.0,120,240,0.0,0.0
772,42.0,0,480,0.0,0.0
773,62.0,120,120,0.0,0.0
774,57.0,0,240,0.0,0.0
775,54.0,120,240,0.0,0.0
776,64.0,0,120,0.0,0.0
777,60.0,120,120,0.0,0.0
778,52.0,240,240,0.0,0.0
779,62.0,0,120,0.0,0.0
780,55.0,0,240,0.0,0.0
781,43.0,120,480,0.0,0.0
782,50.0,120,240,0.0,0.0
783,59.0,0,240,0.0,0.0
784,52.0,0,720,0.0,0.0
785,67.0,120,120,0.0,0.0
786,59.0,0,120,0.0,0.0
787,67.0,120,120,0.0,0.0
788,43.0,240,240,0.0,0.0
789,59.0,0,120,0.0,0.0
790,45.0,120,480,0.0,0.0
791,57.0,120,240,0.0,0.0
792,60.0,0,240,0.0,0.0
793,54.0,0,720,0.0,0.0
794,69.0,120,120,0.0,0.0
795,61.0,0,120,0.0,0.0
796,45.0,240,240,0.0,0.0
797,69.0,120,120,0.0,0.0
798,61.0,0,120,0.0,0.0
799,47.0,0,240,0.0,0.0
800,59.0,120,240,0.0,0.0
801,62.0,0,240,0.0,0.0
802,71.0,120,120,0.0,0.0
803,63.0,120,120,0.0,0.0
804,45.0,240,240,0.0,0.0
805,54.0,0,240,0.0,0.0
806,59.0,0,240,0.0,0.0
807,71.0,120,120,0.0,0.0
808,63.0,0,120,0.0,0.0
809,43.0,0,240,0.0,0.0
810,55.0,0,240,0.0,0.0
811,59.0,240,240,0.0,0.0
812,64.0,0,240,0.0,0.0
813,42.0,0,240,0.0,0.0
814,57.0,0,240,0.0,0.0
815,63.0,0,240,0.0,0.0
816,66.0,240,240,0.0,0.0
817,40.0,0,240,0.0,0.0
818,59.0,120,240,0.0,0.0
819,64.0,0,240,0.0,0.0
820,67.0,120,360,0.0,0.0
821,60.0,0,240,0.0,0.0
822,45.0,240,240,0.0,0.0
823,69.0,0,120,0.0,0.0
824,47.0,0,480,0.0,0.0
825,66.0,120,360,0.0,0.0
826,59.0,120,240,0.0,0.0
827,51.0,0,240,0.0,0.0
828,57.0,0,240,0.0,0.0
829,64.0,720,120,0.0,0.0
830,64.0,0,720,0.0,0.0
831,59.0,1920,720,0.0,0.0
832,52.0,0,720,0.0,0.0
833,47.0,0,720,0.0,0.0
834,40.0,0,720,0.0,0.0
835,59.0,240,120,0.0,0.0
836,59.0,0,480,0.0,0.0
837,40.0,0,120,0.0,0.0
838,43.0,0,120,0.0,0.0
839,47.0,0,120,0.0,0.0
840,52.0,0,240,0.0,0.0
841,64.0,0,120,0.0,0.0
842,62.0,0,120,0.0,0.0
843,60.0,0,120,0.0,0.0
844,59.0,0,120,0.0,0.0
845,57.0,0,120,0.0,0.0
846,55.0,0,120,0.0,0.0
847,54.0,0,120,0.0,0.0
848,52.0,0,480,0.0,0.0
849,55.0,0,120,0.0,0.0
850,59.0,0,120,0.0,0.0
851,64.0,0,120,0.0,0.0
852,63.0,0,480,0.0,0.0
853,47.0,0,120,0.0,0.0
854,51.0,0,120,0.0,0.0
855,54.0,0,120,0.0,0.0
856,59.0,0,240,0.0,0.0
857,64.0,0,120,0.0,0.0
858,63.0,0,120,0.0,0.0
859,49.0,0,240,0.0,0.0
860,64.0,0,120,0.0,0.0
861,51.0,0,240,0.0,0.0
862,66.0,0,120,0.0,0.0
863,59.0,0,120,0.0,0.0
864,52.0,0,240,0.0,0.0
865,64.0,0,120,0.0,0.0
866,67.0,0,120,0.0,0.0
867,45.0,0,240,0.0,0.0
868,66.0,0,120,0.0,0.0
869,61.0,0,120,0.0,0.0
870,47.0,0,240,0.0,0.0
871,63.0,0,120,0.0,0.0
872,57.0,0,120,0.0,0.0
873,40.0,0,720,0.0,0.0
874,55.0,0,120,0.0,0.0
875,59.0,0,120,0.0,0.0
876,64.0,0,360,0.0,0.0
877,47.0,0,120,0.0,0.0
878,52.0,0,720,0.0,0.0
879,59.0,0,120,0.0,0.0
880,40.0,0,240,0.0,0.0
881,60.0,0,120,0.0,0.0
882,62.0,0,120,0.0,0.0
883,45.0,0,240,0.0,0.0
884,60.0,0,120,0.0,0.0
885,59.0,0,120,0.0,0.0
886,47.0,0,240,0.0,0.0
887,57.0,0,120,0.0,0.0
888,55.0,0,120,0.0,0.0
889,50.0,0,240,0.0,0.0
890,54.0,0,120,0.0,0.0
891,57.0,0,120,0.0,0.0
892,38.0,0,240,0.0,0.0
893,50.0,0,240,0.0,0.0
894,62.0,0,120,0.0,0.0
895,57.0,0,120,0.0,0.0
896,43.0,0,480,0.0,0.0
897,59.0,0,480,0.0,0.0
898,54.0,0,120,0.0,0.0
899,55.0,0,240,0.0,0.0
900,50.0,0,120,0.0,0.0
901,52.0,0,120,0.0,0.0
902,47.0,0,120,0.0,0.0
903,62.0,0,120,0.0,0.0
904,60.0,0,120,0.0,0.0
905,48.0,0,120,0.0,0.0
906,50.0,0,120,0.0,0.0
907,59.0,0,120,0.0,0.0
908,64.0,0,240,0.0,0.0
909,48.0,0,480,0.0,0.0
910,59.0,0,120,0.0,0.0
911,60.0,0,120,0.0,0.0
912,62.0,0,120,0.0,0.0
913,60.0,0,120,0.0,0.0
914,59.0,0,120,0.0,0.0
915,57.0,0,120,0.0,0.0
916,55.0,0,120,0.0,0.0
917,54.0,0,120,0.0,0.0
918,52.0,0,120,0.0,0.0
919,50.0,0,120,0.0,0.0
920,48.0,0,120,0.0,0.0
921,47.0,0,480,0.0,0.0
922,50.0,0,120,0.0,0.0
923,55.0,0,120,0.0,0.0
924,59.0,0,120,0.0,0.0
925,48.0,0,240,0.0,0.0
926,57.0,0,120,0.0,0.0
927,59.0,0,120,0.0,0.0
928,49.0,0,240,0.0,0.0
929,52.0,0,120,0.0,0.0
930,55.0,0,120,0.0,0.0
931,50.0,0,240,0.0,0.0
932,54.0,0,120,0.0,0.0
933,59.0,0,120,0.0,0.0
934,51.0,0,240,0.0,0.0
935,54.0,0,120,0.0,0.0
936,57.0,0,120,0.0,0.0
937,55.0,0,120,0.0,0.0
938,52.0,0,240,0.0,0.0
939,57.0,0,120,0.0,0.0
940,55.0,0,120,0.0,0.0
941,54.0,0,120,0.0,0.0
942,52.0,0,120,0.0,0.0
943,50.0,0,120,0.0,0.0
944,49.0,0,120,0.0,0.0
945,47.0,0,120,0.0,0.0
946,46.0,0,480,0.0,0.0
947,61.0,0,240,0.0,0.0
948,54.0,0,240,0.0,0.0
949,61.0,0,120,0.0,0.0
950,47.0,0,240,0.0,0.0
951,62.0,0,240,0.0,0.0
952,59.0,0,120,0.0,0.0
953,64.0,0,240,0.0,0.0
954,49.0,0,240,0.0,0.0
955,59.0,0,120,0.0,0.0
956,50.0,0,240,0.0,0.0
957,66.0,0,120,0.0,0.0
958,59.0,0,120,0.0,0.0
959,47.0,0,240,0.0,0.0
960,71.0,0,120,0.0,0.0
961,69.0,0,120,0.0,0.0
962,52.0,0,240,0.0,0.0
963,67.0,0,120,0.0,0.0
964,66.0,0,120,0.0,0.0
965,64.0,0,120,0.0,0.0
966,54.0,0,240,0.0,0.0
967,62.0,0,120,0.0,0.0
968,55.0,0,240,0.0,0.0
969,61.0,0,120,0.0,0.0
970,59.0,0,120,0.0,0.0
971,58.0,0,120,0.0,0.0
972,52.0,0,240,0.0,0.0
973,59.0,0,120,0.0,0.0
974,54.0,0,240,0.0,0.0
975,59.0,0,360,0.0,0.0
976,42.0,0,240,0.0,0.0
977,58.0,0,120,0.0,0.0
978,59.0,0,480,0.0,0.0
979,47.0,0,120,0.0,0.0
980,49.0,0,120,0.0,0.0
981,51.0,0,120,0.0,0.0
982,52.0,0,120,0.0,0.0
983,54.0,0,120,0.0,0.0
984,56.0,0,120,0.0,0.0
985,58.0,0,120,0.0,0.0
986,52.0,0,120,0.0,0.0
987,55.0,0,120,0.0,0.0
988,51.0,0,120,0.0,0.0
989,54.0,0,120,0.0,0.0
990,52.0,0,120,0.0,0.0
991,49.0,0,120,0.0,0.0
992,54.0,0,360,0.0,0.0
993,47.0,0,360,0.0,0.0
994,51.0,0,360,0.0,0.0
995,59.0,0,120,0.0,0.0
996,59.0,240,480,0.0,0.0
997,40.0,120,120,0.0,0.0
998,43.0,120,120,0.0,0.0
999,47.0,0,120,0.0,0.0
1000,52.0,120,240,0.0,0.0
1001,64.0,0,120,0.0,0.0
1002,62.0,120,120,0.0,0.0
1003,60.0,120,120,0.0,0.0
1004,59.0,120,120,0.0,0.0
1005,57.0,120,120,0.0,0.0
1006,55.0,120,120,0.0,0.0
1007,54.0,240,120,0.0,0.0
1008,52.0,0,480,0.0,0.0
1009,55.0,120,120,0.0,0.0
1010,59.0,120,120,0.0,0.0
1011,64.0,240,120,0.0,0.0
1012,63.0,240,480,0.0,0.0
1013,47.0,120,120,0.0,0.0
1014,51.0,120,120,0.0,0.0
1015,54.0,0,120,0.0,0.0
1016,59.0,0,240,0.0,0.0
1017,64.0,120,120,0.0,0.0
1018,63.0,120,120,0.0,0.0
1019,49.0,120,240,0.0,0.0
1020,64.0,0,120,0.0,0.0
1021,51.0,120,240,0.0,0.0
1022,66.0,120,120,0.0,0.0
1023,59.0,0,120,0.0,0.0
1024,52.0,0,240,0.0,0.0
1025,64.0,120,120,0.0,0.0
1026,67.0,120,120,0.0,0.0
1027,45.0,120,240,0.0,0.0
1028,66.0,120,120,0.0,0.0
1029,61.0,0,120,0.0,0.0
1030,47.0,120,240,0.0,0.0
1031,63.0,120,120,0.0,0.0
1032,57.0,0,120,0.0,0.0
1033,55.0,120,120,0.0,0.0
1034,40.0,0,720,0.0,0.0
1035,59.0,240,120,0.0,0.0
1036,64.0,120,360,0.0,0.0
1037,47.0,120,120,0.0,0.0
1038,52.0,120,720,0.0,0.0
1039,59.0,120,120,0.0,0.0
1040,40.0,120,240,0.0,0.0
1041,60.0,120,120,0.0,0.0
1042,62.0,0,120,0.0,0.0
1043,60.0,120,120,0.0,0.0
1044,45.0,0,240,0.0,0.0
1045,59.0,0,120,0.0,0.0
1046,47.0,120,240,0.0,0.0
1047,57.0,120,120,0.0,0.0
1048,55.0,0,120,0.0,0.0
1049,50.0,120,240,0.0,0.0
1050,54.0,120,120,0.0,0.0
1051,57.0,0,120,0.0,0.0
1052,38.0,240,240,0.0,0.0
1053,62.0,120,120,0.0,0.0
1054,57.0,0,120,0.0,0.0
1055,43.0,0,480,0.0,0.0
1056,59.0,0,480,0.0,0.0
1057,54.0,240,120,0.0,0.0
1058,55.0,120,240,0.0,0.0
1059,50.0,0,120,0.0,0.0
1060,52.0,120,120,0.0,0.0
1061,47.0,120,120,0.0,0.0
1062,62.0,0,120,0.0,0.0
1063,48.0,120,120,0.0,0.0
1064,60.0,0,120,0.0,0.0
1065,50.0,240,120,0.0,0.0
1066,59.0,0,120,0.0,0.0
1067,48.0,0,480,0.0,0.0
1068,64.0,120,240,0.0,0.0
1069,59.0,0,120,0.0,0.0
1070,60.0,120,120,0.0,0.0
1071,62.0,120,120,0.0,0.0
1072,60.0,120,120,0.0,0.0
1073,59.0,120,120,0.0,0.0
1074,57.0,120,120,0.0,0.0
1075,55.0,120,120,0.0,0.0
1076,54.0,120,120,0.0,0.0
1077,52.0,120,120,0.0,0.0
1078,50.0,120,120,0.0,0.0
1079,48.0,240,120,0.0,0.0
1080,47.0,120,480,0.0,0.0
1081,50.0,120,120,0.0,0.0
1082,55.0,120,120,0.0,0.0
1083,59.0,0,120,0.0,0.0
1084,48.0,0,240,0.0,0.0
1085,57.0,120,120,0.0,0.0
1086,59.0,120,120,0.0,0.0
1087,49.0,0,240,0.0,0.0
1088,52.0,120,120,0.0,0.0
1089,55.0,120,120,0.0,0.0
1090,50.0,0,240,0.0,0.0
1091,54.0,120,120,0.0,0.0
1092,59.0,120,120,0.0,0.0
1093,54.0,120,120,0.0,0.0
1094,51.0,0,240,0.0,0.0
1095,57.0,120,120,0.0,0.0
1096,52.0,120,240,0.0,0.0
1097,55.0,120,120,0.0,0.0
1098,57.0,0,120,0.0,0.0
1099,55.0,120,120,0.0,0.0
1100,54.0,120,120,0.0,0.0
1101,52.0,120,120,0.0,0.0
1102,50.0,120,120,0.0,0.0
1103,49.0,120,120,0.0,0.0
1104,47.0,360,120,0.0,0.0
1105,46.0,0,480,0.0,0.0
1106,61.0,120,240,0.0,0.0
1107,54.0,240,240,0.0,0.0
1108,61.0,0,120,0.0,0.0
1109,47.0,0,240,0.0,0.0
1110,62.0,0,240,0.0,0.0
1111,59.0,240,120,0.0,0.0
1112,49.0,0,240,0.0,0.0
1113,64.0,0,240,0.0,0.0
1114,59.0,120,120,0.0,0.0
1115,66.0,120,120,0.0,0.0
1116,50.0,120,240,0.0,0.0
1117,59.0,0,120,0.0,0.0
1118,71.0,120,120,0.0,0.0
1119,47.0,120,240,0.0,0.0
1120,69.0,0,120,0.0,0.0
1121,52.0,0,240,0.0,0.0
1122,67.0,120,120,0.0,0.0
1123,66.0,120,120,0.0,0.0
1124,54.0,0,240,0.0,0.0
1125,64.0,120,120,0.0,0.0
1126,62.0,120,120,0.0,0.0
1127,61.0,120,120,0.0,0.0
1128,55.0,0,240,0.0,0.0
1129,59.0,120,120,0.0,0.0
1130,58.0,120,120,0.0,0.0
1131,52.0,0,240,0.0,0.0
1132,59.0,240,120,0.0,0.0
1133,54.0,120,240,0.0,0.0
1134,59.0,120,360,0.0,0.0
1135,42.0,0,240,0.0,0.0
1136,58.0,240,120,0.0,0.0
1137,59.0,120,480,0.0,0.0
1138,47.0,120,120,0.0,0.0
1139,49.0,120,120,0.0,0.0
1140,51.0,0,120,0.0,0.0
1141,52.0,120,120,0.0,0.0
1142,54.0,120,120,0.0,0.0
1143,56.0,120,120,0.0,0.0
1144,58.0,240,120,0.0,0.0
1145,59.0,240,960,0.0,0.0
1146,52.0,120,120,0.0,0.0
1147,55.0,0,120,0.0,0.0
1148,54.0,0,120,0.0,0.0
1149,51.0,120,120,0.0,0.0
1150,49.0,360,120,0.0,0.0
1151,52.0,0,120,0.0,0.0
1152,47.0,0,360,0.0,0.0
1153,51.0,120,360,0.0,0.0
1154,54.0,0,360,0.0,0.0
1155,63.0,0,120,0.0,0.0
1156,63.0,0,480,0.0,0.0
1157,47.0,120,120,0.0,0.0
1158,51.0,120,120,0.0,0.0
1159,54.0,240,120,0.0,0.0
1160,59.0,120,240,0.0,0.0
1161,71.0,0,120,0.0,0.0
1162,69.0,120,120,0.0,0.0
1163,67.0,120,120,0.0,0.0
1164,66.0,120,120,0.0,0.0
1165,64.0,120,120,0.0,0.0
1166,63.0,120,120,0.0,0.0
1167,61.0,240,120,0.0,0.0
1168,59.0,120,240,0.0,0.0
1169,57.0,0,120,0.0,0.0
1170,55.0,120,120,0.0,0.0
1171,63.0,0,240,0.0,0.0
1172,54.0,120,120,0.0,0.0
1173,64.0,0,120,0.0,0.0
1174,55.0,120,120,0.0,0.0
1175,52.0,120,120,0.0,0.0
1176,67.0,0,120,0.0,0.0
1177,55.0,120,120,0.0,0.0
1178,71.0,120,360,0.0,0.0
1179,59.0,120,120,0.0,0.0
1180,64.0,120,240,0.0,0.0
1181,69.0,0,120,0.0,0.0
1182,67.0,120,120,0.0,0.0
1183,66.0,120,120,0.0,0.0
1184,64.0,120,120,0.0,0.0
1185,62.0,120,120,0.0,0.0
1186,61.0,120,120,0.0,0.0
1187,59.0,240,120,0.0,0.0
1188,57.0,120,240,0.0,0.0
1189,55.0,0,120,0.0,0.0
1190,54.0,120,120,0.0,0.0
1191,61.0,120,240,0.0,0.0
1192,52.0,0,120,0.0,0.0
1193,54.0,120,120,0.0,0.0
1194,62.0,240,240,0.0,0.0
1195,50.0,0,120,0.0,0.0
1196,54.0,120,240,0.0,0.0
1197,57.0,0,120,0.0,0.0
1198,62.0,120,120,0.0,0.0
1199,64.0,120,120,0.0,0.0
1200,62.0,120,120,0.0,0.0
1201,60.0,120,120,0.0,0.0
1202,59.0,120,120,0.0,0.0
1203,57.0,120,120,0.0,0.0
1204,55.0,120,120,0.0,0.0
1205,54.0,240,120,0.0,0.0
1206,52.0,120,240,0.0,0.0
1207,50.0,0,120,0.0,0.0
1208,49.0,120,120,0.0,0.0
1209,47.0,120,120,0.0,0.0
1210,64.0,0,120,0.0,0.0
1211,46.0,0,240,0.0,0.0
1212,66.0,120,120,0.0,0.0
1213,67.0,120,120,0.0,0.0
1214,66.0,120,120,0.0,0.0
1215,42.0,0,240,0.0,0.0
1216,64.0,120,120,0.0,0.0
1217,62.0,120,120,0.0,0.0
1218,47.0,0,240,0.0,0.0
1219,61.0,120,120,0.0,0.0
1220,49.0,0,240,0.0,0.0
1221,59.0,120,120,0.0,0.0
1222,58.0,120,120,0.0,0.0
1223,59.0,120,120,0.0,0.0
1224,50.0,120,240,0.0,0.0
1225,58.0,0,120,0.0,0.0
1226,47.0,240,240,0.0,0.0
1227,59.0,120,120,0.0,0.0
1228,61.0,0,120,0.0,0.0
1229,54.0,120,240,0.0,0.0
1230,61.0,120,360,0.0,0.0
1231,58.0,0,480,0.0,0.0
1232,42.0,0,240,0.0,0.0
1233,59.0,240,120,0.0,0.0
1234,59.0,0,480,0.0,0.0
1235,47.0,0,480,0.0,0.0
1236,55.0,120,120,0.0,0.0
1237,54.0,120,120,0.0,0.0
1238,52.0,120,120,0.0,0.0
1239,51.0,120,120,0.0,0.0
1240,48.0,120,120,0.0,0.0
1241,47.0,120,120,0.0,0.0
1242,45.0,240,120,0.0,0.0
1243,44.0,120,360,0.0,0.0
1244,59.0,120,120,0.0,0.0
1245,64.0,0,240,0.0,0.0
1246,47.0,240,120,0.0,0.0
1247,52.0,120,240,0.0,0.0
1248,56.0,0,120,0.0,0.0
1249,59.0,120,120,0.0,0.0
1250,40.0,240,240,0.0,0.0
1251,52.0,0,120,0.0,0.0
1252,60.0,120,240,0.0,0.0
1253,45.0,0,120,0.0,0.0
1254,48.0,120,120,0.0,0.0
1255,52.0,240,120,0.0,0.0
1256,60.0,0,240,0.0,0.0
1257,57.0,0,240,0.0,0.0
1258,47.0,120,120,0.0,0.0
1259,45.0,120,120,0.0,0.0
1260,43.0,240,120,0.0,0.0
1261,42.0,120,360,0.0,0.0
1262,57.0,120,120,0.0,0.0
1263,62.0,240,240,0.0,0.0
1264,45.0,0,120,0.0,0.0
1265,50.0,120,240,0.0,0.0
1266,54.0,0,120,0.0,0.0
1267,38.0,0,240,0.0,0.0
1268,57.0,120,120,0.0,0.0
1269,50.0,240,120,0.0,0.0
1270,59.0,120,240,0.0,0.0
1271,43.0,0,120,0.0,0.0
1272,47.0,120,120,0.0,0.0
1273,50.0,240,120,0.0,0.0
1274,59.0,0,240,0.0,0.0
1275,55.0,0,120,0.0,0.0
1276,54.0,120,120,0.0,0.0
1277,52.0,240,120,0.0,0.0
1278,51.0,120,360,0.0,0.0
1279,54.0,120,120,0.0,0.0
1280,59.0,0,240,0.0,0.0
1281,42.0,240,120,0.0,0.0
1282,47.0,0,240,0.0,0.0
1283,51.0,120,120,0.0,0.0
1284,54.0,120,120,0.0,0.0
1285,39.0,240,240,0.0,0.0
1286,47.0,0,120,0.0,0.0
1287,55.0,0,480,0.0,0.0
1288,40.0,120,120,0.0,0.0
1289,43.0,120,120,0.0,0.0
1290,47.0,240,120,0.0,0.0
1291,52.0,0,480,0.0,0.0
1292,55.0,120,120,0.0,0.0
1293,59.0,120,120,0.0,0.0
1294,64.0,240,120,0.0,0.0
1295,60.0,240,480,0.0,0.0
1296,45.0,120,120,0.0,0.0
1297,48.0,120,120,0.0,0.0
1298,52.0,0,120,0.0,0.0
1299,57.0,240,480,0.0,0.0
1300,61.0,120,120,0.0,0.0
1301,66.0,120,120,0.0,0.0
1302,69.0,0,120,0.0,0.0
1303,63.0,0,480,0.0,0.0
1304,47.0,120,120,0.0,0.0
1305,51.0,120,120,0.0,0.0
1306,54.0,120,120,0.0,0.0
1307,59.0,120,120,0.0,0.0
1308,61.0,120,120,0.0,0.0
1309,63.0,120,120,0.0,0.0
1310,54.0,120,240,0.0,0.0
1311,45.0,0,240,0.0,0.0
1312,59.0,0,120,0.0,0.0
1313,64.0,120,120,0.0,0.0
1314,52.0,0,240,0.0,0.0
1315,43.0,0,240,0.0,0.0
1316,55.0,120,120,0.0,0.0
1317,54.0,120,120,0.0,0.0
1318,45.0,0,120,0.0,0.0
1319,48.0,0,120,0.0,0.0
1320,52.0,360,120,0.0,0.0
1321,47.0,240,480,0.0,0.0
1322,51.0,120,360,0.0,0.0
1323,52.0,0,120,0.0,0.0
1324,52.0,120,240,0.0,0.0
1325,40.0,120,360,0.0,0.0
1326,54.0,120,120,0.0,0.0
1327,56.0,0,120,0.0,0.0
1328,57.0,120,120,0.0,0.0
1329,59.0,120,120,0.0,0.0
1330,60.0,120,120,0.0,0.0
1331,62.0,240,120,0.0,0.0
1332,64.0,240,960,0.0,0.0
1333,57.0,0,120,0.0,0.0
1334,48.0,120,120,0.0,0.0
1335,47.0,120,120,0.0,0.0
1336,56.0,0,120,0.0,0.0
1337,45.0,360,120,0.0,0.0
1338,54.0,0,120,0.0,0.0
1339,40.0,0,360,0.0,0.0
1340,44.0,120,360,0.0,0.0
1341,47.0,0,360,0.0,0.0
1342,52.0,0,360,0.0,0.0
1343,63.0,0,120,0.0,0.0
1344,63.0,240,480,0.0,0.0
1345,47.0,120,120,0.0,0.0
1346,51.0,120,120,0.0,0.0
1347,54.0,0,120,0.0,0.0
1348,59.0,120,240,0.0,0.0
1349,71.0,0,120,0.0,0.0
1350,69.0,120,120,0.0,0.0
1351,67.0,120,120,0.0,0.0
1352,66.0,120,120,0.0,0.0
1353,64.0,120,120,0.0,0.0
1354,63.0,120,120,0.0,0.0
1355,61.0,240,120,0.0,0.0
1356,59.0,120,240,0.0,0.0
1357,57.0,0,120,0.0,0.0
1358,55.0,120,120,0.0,0.0
1359,63.0,120,240,0.0,0.0
1360,54.0,0,120,0.0,0.0
1361,55.0,0,120,0.0,0.0
1362,64.0,120,120,0.0,0.0
1363,52.0,120,120,0.0,0.0
1364,67.0,0,120,0.0,0.0
1365,55.0,120,120,0.0,0.0
1366,71.0,120,360,0.0,0.0
1367,59.0,120,120,0.0,0.0
1368,64.0,120,240,0.0,0.0
1369,69.0,0,120,0.0,0.0
1370,67.0,120,120,0.0,0.0
1371,66.0,120,120,0.0,0.0
1372,64.0,120,120,0.0,0.0
1373,62.0,120,120,0.0,0.0
1374,61.0,120,120,0.0,0.0
1375,59.0,240,120,0.0,0.0
1376,57.0,0,240,0.0,0.0
1377,55.0,120,120,0.0,0.0
1378,54.0,120,120,0.0,0.0
1379,61.0,0,240,0.0,0.0
1380,52.0,120,120,0.0,0.0
1381,54.0,120,120,0.0,0.0
1382,62.0,0,240,0.0,0.0
1383,50.0,240,120,0.0,0.0
1384,54.0,120,240,0.0,0.0
1385,57.0,0,120,0.0,0.0
1386,62.0,120,120,0.0,0.0
1387,64.0,120,120,0.0,0.0
1388,62.0,120,120,0.0,0.0
1389,60.0,120,120,0.0,0.0
1390,59.0,120,120,0.0,0.0
1391,57.0,120,120,0.0,0.0
1392,55.0,120,120,0.0,0.0
1393,54.0,240,120,0.0,0.0
1394,52.0,120,240,0.0,0.0
1395,50.0,0,120,0.0,0.0
1396,49.0,120,120,0.0,0.0
1397,64.0,120,120,0.0,0.0
1398,47.0,0,120,0.0,0.0
1399,66.0,120,120,0.0,0.0
1400,46.0,120,240,0.0,0.0
1401,67.0,0,120,0.0,0.0
1402,42.0,120,240,0.0,0.0
1403,66.0,120,120,0.0,0.0
1404,64.0,0,120,0.0,0.0
1405,47.0,120,240,0.0,0.0
1406,62.0,120,120,0.0,0.0
1407,61.0,0,120,0.0,0.0
1408,49.0,120,240,0.0,0.0
1409,59.0,120,120,0.0,0.0
1410,58.0,0,120,0.0,0.0
1411,50.0,120,240,0.0,0.0
1412,59.0,120,120,0.0,0.0
1413,58.0,0,120,0.0,0.0
1414,47.0,0,240,0.0,0.0
1415,59.0,120,120,0.0,0.0
1416,61.0,240,120,0.0,0.0
1417,61.0,120,360,0.0,0.0
1418,58.0,0,480,0.0,0.0
1419,54.0,120,240,0.0,0.0
1420,42.0,240,240,0.0,0.0
1421,59.0,0,120,0.0,0.0
1422,59.0,0,480,0.0,0.0
1423,47.0,120,480,0.0,0.0
1424,55.0,120,120,0.0,0.0
1425,54.0,120,120,0.0,0.0
1426,52.0,0,120,0.0,0.0
1427,51.0,120,120,0.0,0.0
1428,48.0,120,120,0.0,0.0
1429,47.0,120,120,0.0,0.0
1430,45.0,240,120,0.0,0.0
1431,44.0,120,360,0.0,0.0
1432,59.0,120,120,0.0,0.0
1433,64.0,240,240,0.0,0.0
1434,47.0,0,120,0.0,0.0
1435,52.0,0,240,0.0,0.0
1436,56.0,120,120,0.0,0.0
1437,59.0,120,120,0.0,0.0
1438,40.0,240,240,0.0,0.0
1439,52.0,0,120,0.0,0.0
1440,60.0,120,240,0.0,0.0
1441,45.0,0,120,0.0,0.0
1442,48.0,120,120,0.0,0.0
1443,52.0,240,120,0.0,0.0
1444,57.0,0,240,0.0,0.0
1445,60.0,0,240,0.0,0.0
1446,47.0,120,120,0.0,0.0
1447,45.0,120,120,0.0,0.0
1448,43.0,240,120,0.0,0.0
1449,42.0,120,360,0.0,0.0
1450,57.0,120,120,0.0,0.0
1451,62.0,240,240,0.0,0.0
1452,45.0,0,120,0.0,0.0
1453,50.0,120,240,0.0,0.0
1454,54.0,0,120,0.0,0.0
1455,38.0,0,240,0.0,0.0
1456,57.0,120,120,0.0,0.0
1457,50.0,240,120,0.0,0.0
1458,59.0,120,240,0.0,0.0
1459,43.0,0,120,0.0,0.0
1460,47.0,120,120,0.0,0.0
1461,50.0,240,120,0.0,0.0
1462,59.0,0,240,0.0,0.0
1463,55.0,0,120,0.0,0.0
1464,54.0,120,120,0.0,0.0
1465,52.0,240,120,0.0,0.0
1466,51.0,120,360,0.0,0.0
1467,54.0,120,120,0.0,0.0
1468,59.0,240,240,0.0,0.0
1469,42.0,0,120,0.0,0.0
1470,47.0,0,240,0.0,0.0
1471,51.0,120,120,0.0,0.0
1472,39.0,240,240,0.0,0.0
1473,54.0,120,120,0.0,0.0
1474,47.0,0,120,0.0,0.0
1475,55.0,240,480,0.0,0.0
1476,40.0,120,120,0.0,0.0
1477,43.0,120,120,0.0,0.0
1478,47.0,0,120,0.0,0.0
1479,52.0,240,480,0.0,0.0
1480,55.0,120,120,0.0,0.0
1481,59.0,120,120,0.0,0.0
1482,64.0,0,120,0.0,0.0
1483,60.0,240,480,0.0,0.0
1484,45.0,120,120,0.0,0.0
1485,48.0,120,120,0.0,0.0
1486,52.0,0,120,0.0,0.0
1487,57.0,0,480,0.0,0.0
1488,61.0,120,120,0.0,0.0
1489,66.0,120,120,0.0,0.0
1490,69.0,240,120,0.0,0.0
1491,63.0,120,480,0.0,0.0
1492,47.0,120,120,0.0,0.0
1493,51.0,120,120,0.0,0.0
1494,54.0,0,120,0.0,0.0
1495,59.0,120,120,0.0,0.0
1496,61.0,120,120,0.0,0.0
1497,45.0,120,240,0.0,0.0
1498,54.0,0,240,0.0,0.0
1499,63.0,120,120,0.0,0.0
1500,59.0,0,120,0.0,0.0
1501,52.0,0,240,0.0,0.0
1502,64.0,120,120,0.0,0.0
1503,43.0,120,240,0.0,0.0
1504,55.0,0,120,0.0,0.0
1505,45.0,120,120,0.0,0.0
1506,54.0,0,120,0.0,0.0
1507,52.0,0,120,0.0,0.0
1508,48.0,360,120,0.0,0.0
1509,51.0,120,360,0.0,0.0
1510,47.0,0,480,0.0,0.0
1511,52.0,240,120,0.0,0.0
1512,52.0,120,240,0.0,0.0
1513,40.0,0,360,0.0,0.0
1514,54.0,120,120,0.0,0.0
1515,56.0,120,120,0.0,0.0
1516,57.0,120,120,0.0,0.0
1517,59.0,120,120,0.0,0.0
1518,60.0,120,120,0.0,0.0
1519,62.0,240,120,0.0,0.0
1520,64.0,2880,960,0.0,0.0
1521,48.0,120,120,0.0,0.0
1522,57.0,0,120,0.0,0.0
1523,47.0,120,120,0.0,0.0
1524,56.0,0,120,0.0,0.0
1525,45.0,0,120,0.0,0.0
1526,54.0,360,120,0.0,0.0
1527,40.0,0,360,0.0,0.0
1528,47.0,120,360,0.0,0.0
1529,52.0,0,360,0.0,0.0
1530,44.0,0,360,0.0,0.0
1531,52.0,720,240,0.0,0.0
1532,52.0,0,720,0.0,0.0
1533,40.0,240,240,0.0,0.0
1534,52.0,240,240,0.0,0.0
1535,54.0,0,240,0.0,0.0
1536,51.0,120,240,0.0,0.0
1537,54.0,60,360,0.0,0.0
1538,52.0,60,60,0.0,0.0
1539,54.0,240,60,0.0,0.0
1540,55.0,120,360,0.0,0.0
1541,52.0,120,240,0.0,0.0
1542,57.0,480,120,0.0,0.0
1543,48.0,240,480,0.0,0.0
1544,57.0,120,720,0.0,0.0
1545,50.0,0,480,0.0,0.0
1546,54.0,0,480,0.0,0.0
1547,55.0,120,120,0.0,0.0
1548,57.0,720,120,0.0,0.0
1549,59.0,0,720,0.0,0.0
1550,55.0,480,960,0.0,0.0
1551,43.0,240,240,0.0,0.0
1552,59.0,0,240,0.0,0.0
1553,54.0,0,240,0.0,0.0
1554,55.0,0,480,0.0,0.0
1555,52.0,480,480,0.0,0.0
1556,60.0,0,480,0.0,0.0
1557,50.0,480,480,0.0,0.0
1558,54.0,0,480,0.0,0.0
1559,59.0,0,480,0.0,0.0
1560,55.0,240,480,0.0,0.0
1561,64.0,240,720,0.0,0.0
1562,48.0,480,960,0.0,0.0
1563,57.0,0,480,0.0,0.0
1564,66.0,0,240,0.0,0.0
1565,59.0,240,480,0.0,0.0
1566,63.0,0,1440,0.0,0.0
1567,47.0,240,240,0.0,0.0
1568,59.0,480,240,0.0,0.0
1569,57.0,480,480,0.0,0.0
1570,64.0,240,960,0.0,0.0
1571,55.0,480,480,0.0,0.0
1572,66.0,120,720,0.0,0.0
1573,54.0,0,960,0.0,0.0
1574,63.0,0,480,0.0,0.0
1575,64.0,120,120,0.0,0.0
1576,66.0,480,120,0.0,0.0
1577,67.0,0,720,0.0,0.0
1578,64.0,240,480,0.0,0.0
1579,52.0,0,480,0.0,0.0
1580,40.0,240,240,0.0,0.0
1581,66.0,240,240,0.0,0.0
1582,54.0,0,240,0.0,0.0
1583,64.0,0,480,0.0,0.0
1584,55.0,240,240,0.0,0.0
1585,57.0,240,240,0.0,0.0
1586,62.0,240,240,0.0,0.0
1587,59.0,0,480,0.0,0.0
1588,64.0,480,240,0.0,0.0
1589,60.0,240,720,0.0,0.0
1590,57.0,0,480,0.0,0.0
1591,54.0,240,480,0.0,0.0
1592,55.0,0,480,0.0,0.0
1593,59.0,480,240,0.0,0.0
1594,60.0,0,720,0.0,0.0
1595,64.0,0,720,0.0,0.0
1596,48.0,240,480,0.0,0.0
1597,48.0,240,240,0.0,0.0
1598,50.0,240,240,0.0,0.0
1599,62.0,0,240,0.0,0.0
1600,52.0,0,960,0.0,0.0
1601,60.0,240,240,0.0,0.0
1602,59.0,240,240,0.0,0.0
1603,60.0,240,240,0.0,0.0
1604,55.0,480,480,0.0,0.0
1605,62.0,0,240,0.0,0.0
1606,54.0,0,480,0.0,0.0
1607,50.0,240,480,0.0,0.0
1608,59.0,240,720,0.0,0.0
1609,48.0,480,480,0.0,0.0
1610,52.0,0,480,0.0,0.0
1611,57.0,0,240,0.0,0.0
1612,50.0,0,480,0.0,0.0
1613,62.0,240,720,0.0,0.0
1614,47.0,240,480,0.0,0.0
1615,48.0,240,480,0.0,0.0
1616,52.0,0,480,0.0,0.0
1617,60.0,0,240,0.0,0.0
1618,50.0,0,480,0.0,0.0
1619,54.0,0,480,0.0,0.0
1620,59.0,240,240,0.0,0.0
1621,57.0,240,240,0.0,0.0
1622,52.0,0,240,0.0,0.0
1623,55.0,120,240,0.0,0.0
1624,57.0,120,120,0.0,0.0
1625,48.0,480,240,0.0,0.0
1626,59.0,0,120,0.0,0.0
1627,54.0,240,720,0.0,0.0
1628,50.0,240,480,0.0,0.0
1629,50.0,0,480,0.0,0.0
1630,55.0,720,240,0.0,0.0
1631,55.0,120,720,0.0,0.0
1632,43.0,120,480,0.0,0.0
1633,57.0,120,120,0.0,0.0
1634,59.0,0,120,0.0,0.0
1635,42.0,480,480,0.0,0.0
1636,60.0,120,120,0.0,0.0
1637,62.0,120,120,0.0,0.0
1638,64.0,120,120,0.0,0.0
1639,66.0,0,120,0.0,0.0
1640,40.0,480,480,0.0,0.0
1641,67.0,0,480,0.0,0.0
1642,52.0,240,480,0.0,0.0
1643,55.0,0,480,0.0,0.0
1644,61.0,120,720,0.0,0.0
1645,54.0,0,480,0.0,0.0
1646,50.0,0,480,0.0,0.0
1647,62.0,120,120,0.0,0.0
1648,64.0,480,120,0.0,0.0
1649,58.0,240,720,0.0,0.0
1650,49.0,0,480,0.0,0.0
1651,52.0,240,480,0.0,0.0
1652,47.0,480,480,0.0,0.0
1653,50.0,0,480,0.0,0.0
1654,59.0,0,240,0.0,0.0
1655,54.0,0,480,0.0,0.0
1656,46.0,480,480,0.0,0.0
1657,49.0,0,480,0.0,0.0
1658,55.0,0,480,0.0,0.0
1659,47.0,0,480,0.0,0.0
1660,50.0,480,480,0.0,0.0
1661,49.0,240,480,0.0,0.0
1662,52.0,240,720,0.0,0.0
1663,47.0,480,480,0.0,0.0
1664,52.0,0,240,0.0,0.0
1665,49.0,240,960,0.0,0.0
1666,46.0,240,480,0.0,0.0
1667,52.0,240,720,0.0,0.0
1668,42.0,0,480,0.0,0.0
1669,54.0,0,240,0.0,0.0
1670,50.0,240,240,0.0,0.0
1671,47.0,240,480,0.0,0.0
1672,59.0,0,240,0.0,0.0
1673,40.0,0,480,0.0,0.0
1674,49.0,240,960,0.0,0.0
1675,67.0,240,240,0.0,0.0
1676,59.0,40,240,0.0,0.0
1677,42.0,0,960,0.0,0.0
1678,58.0,40,40,0.0,0.0
1679,59.0,40,40,0.0,0.0
1680,58.0,40,40,0.0,0.0
1681,59.0,40,40,0.0,0.0
1682,58.0,40,40,0.0,0.0
1683,59.0,240,40,0.0,0.0
1684,58.0,240,480,0.0,0.0
1685,52.0,0,480,0.0,0.0
1686,59.0,720,240,0.0,0.0
1687,59.0,240,960,0.0,0.0
1688,51.0,240,720,0.0,0.0
1689,47.0,0,480,0.0,0.0
1690,54.0,0,240,0.0,0.0
1691,49.0,960,480,0.0,0.0
1692,52.0,0,480,0.0,0.0
1693,56.0,240,240,0.0,0.0
1694,58.0,0,240,0.0,0.0
1695,51.0,0,960,0.0,0.0
1696,47.0,0,960,0.0,0.0
1697,59.0,480,960,0.0,0.0
1698,52.0,720,240,0.0,0.0
1699,52.0,240,720,0.0,0.0
1700,40.0,0,240,0.0,0.0
1701,52.0,240,240,0.0,0.0
1702,54.0,0,240,0.0,0.0
1703,54.0,60,360,0.0,0.0
1704,51.0,120,240,0.0,0.0
1705,52.0,60,60,0.0,0.0
1706,54.0,240,60,0.0,0.0
1707,55.0,120,360,0.0,0.0
1708,52.0,120,240,0.0,0.0
1709,57.0,480,120,0.0,0.0
1710,57.0,120,720,0.0,0.0
1711,48.0,240,480,0.0,0.0
1712,50.0,0,480,0.0,0.0
1713,54.0,0,480,0.0,0.0
1714,55.0,120,120,0.0,0.0
1715,57.0,720,120,0.0,0.0
1716,59.0,0,720,0.0,0.0
1717,55.0,0,960,0.0,0.0
1718,43.0,240,240,0.0,0.0
1719,59.0,480,240,0.0,0.0
1720,54.0,0,240,0.0,0.0
1721,52.0,0,480,0.0,0.0
1722,55.0,0,480,0.0,0.0
1723,60.0,480,480,0.0,0.0
1724,59.0,480,480,0.0,0.0
1725,54.0,0,480,0.0,0.0
1726,50.0,0,480,0.0,0.0
1727,64.0,240,720,0.0,0.0
1728,55.0,240,480,0.0,0.0
1729,48.0,480,960,0.0,0.0
1730,57.0,0,480,0.0,0.0
1731,66.0,0,240,0.0,0.0
1732,59.0,240,480,0.0,0.0
1733,63.0,0,1440,0.0,0.0
1734,47.0,240,240,0.0,0.0
1735,59.0,480,240,0.0,0.0
1736,57.0,480,480,0.0,0.0
1737,64.0,240,960,0.0,0.0
1738,55.0,480,480,0.0,0.0
1739,66.0,120,720,0.0,0.0
1740,54.0,0,960,0.0,0.0
1741,63.0,0,480,0.0,0.0
1742,64.0,120,120,0.0,0.0
1743,66.0,480,120,0.0,0.0
1744,67.0,0,720,0.0,0.0
1745,64.0,240,480,0.0,0.0
1746,52.0,0,480,0.0,0.0
1747,40.0,240,240,0.0,0.0
1748,66.0,240,240,0.0,0.0
1749,54.0,0,240,0.0,0.0
1750,64.0,0,480,0.0,0.0
1751,55.0,240,240,0.0,0.0
1752,57.0,240,240,0.0,0.0
1753,62.0,240,240,0.0,0.0
1754,59.0,0,480,0.0,0.0
1755,64.0,480,240,0.0,0.0
1756,57.0,0,480,0.0,0.0
1757,54.0,240,480,0.0,0.0
1758,60.0,240,720,0.0,0.0
1759,55.0,0,480,0.0,0.0
1760,59.0,480,240,0.0,0.0
1761,64.0,0,720,0.0,0.0
1762,60.0,0,720,0.0,0.0
1763,48.0,240,480,0.0,0.0
1764,48.0,240,240,0.0,0.0
1765,62.0,0,240,0.0,0.0
1766,50.0,240,240,0.0,0.0
1767,60.0,240,240,0.0,0.0
1768,52.0,0,960,0.0,0.0
1769,59.0,240,240,0.0,0.0
1770,55.0,0,480,0.0,0.0
1771,60.0,240,240,0.0,0.0
1772,62.0,480,240,0.0,0.0
1773,50.0,240,480,0.0,0.0
1774,54.0,0,480,0.0,0.0
1775,59.0,240,720,0.0,0.0
1776,48.0,480,480,0.0,0.0
1777,52.0,0,480,0.0,0.0
1778,57.0,0,240,0.0,0.0
1779,47.0,0,480,0.0,0.0
1780,50.0,240,480,0.0,0.0
1781,62.0,240,720,0.0,0.0
1782,48.0,240,480,0.0,0.0
1783,52.0,0,480,0.0,0.0
1784,60.0,0,240,0.0,0.0
1785,59.0,240,240,0.0,0.0
1786,54.0,0,480,0.0,0.0
1787,50.0,0,480,0.0,0.0
1788,57.0,240,240,0.0,0.0
1789,55.0,0,240,0.0,0.0
1790,52.0,120,240,0.0,0.0
1791,57.0,120,120,0.0,0.0
1792,48.0,0,240,0.0,0.0
1793,59.0,480,120,0.0,0.0
1794,50.0,240,480,0.0,0.0
1795,54.0,240,720,0.0,0.0
1796,50.0,720,480,0.0,0.0
1797,55.0,0,240,0.0,0.0
1798,55.0,120,720,0.0,0.0
1799,43.0,120,480,0.0,0.0
1800,57.0,120,120,0.0,0.0
1801,59.0,0,120,0.0,0.0
1802,42.0,480,480,0.0,0.0
1803,60.0,120,120,0.0,0.0
1804,62.0,120,120,0.0,0.0
1805,64.0,120,120,0.0,0.0
1806,66.0,0,120,0.0,0.0
1807,67.0,480,480,0.0,0.0
1808,40.0,0,480,0.0,0.0
1809,52.0,0,480,0.0,0.0
1810,61.0,120,720,0.0,0.0
1811,55.0,240,480,0.0,0.0
1812,54.0,0,480,0.0,0.0
1813,50.0,480,480,0.0,0.0
1814,62.0,120,120,0.0,0.0
1815,64.0,0,120,0.0,0.0
1816,52.0,240,480,0.0,0.0
1817,58.0,240,720,0.0,0.0
1818,49.0,0,480,0.0,0.0
1819,50.0,480,480,0.0,0.0
1820,47.0,0,480,0.0,0.0
1821,59.0,0,240,0.0,0.0
1822,46.0,0,480,0.0,0.0
1823,49.0,480,480,0.0,0.0
1824,54.0,0,480,0.0,0.0
1825,50.0,0,480,0.0,0.0
1826,55.0,480,480,0.0,0.0
1827,47.0,0,480,0.0,0.0
1828,49.0,240,480,0.0,0.0
1829,52.0,240,720,0.0,0.0
1830,47.0,0,480,0.0,0.0
1831,52.0,480,240,0.0,0.0
1832,52.0,240,720,0.0,0.0
1833,49.0,0,960,0.0,0.0
1834,46.0,240,480,0.0,0.0
1835,42.0,0,480,0.0,0.0
1836,54.0,240,240,0.0,0.0
1837,47.0,240,480,0.0,0.0
1838,50.0,240,240,0.0,0.0
1839,59.0,0,240,0.0,0.0
1840,40.0,40,480,0.0,0.0
1841,49.0,240,960,0.0,0.0
1842,67.0,240,240,0.0,0.0
1843,59.0,0,240,0.0,0.0
1844,42.0,720,960,0.0,0.0
1845,58.0,40,40,0.0,0.0
1846,59.0,40,40,0.0,0.0
1847,58.0,40,40,0.0,0.0
1848,59.0,40,40,0.0,0.0
1849,58.0,40,40,0.0,0.0
1850,59.0,240,40,0.0,0.0
1851,58.0,240,480,0.0,0.0
1852,52.0,0,480,0.0,0.0
1853,59.0,0,240,0.0,0.0
1854,51.0,240,720,0.0,0.0
1855,59.0,0,960,0.0,0.0
1856,47.0,0,480,0.0,0.0
1857,54.0,240,240,0.0,0.0
1858,56.0,240,240,0.0,0.0
1859,52.0,0,480,0.0,0.0
1860,49.0,960,480,0.0,0.0
1861,58.0,0,240,0.0,0.0
1862,47.0,0,960,0.0,0.0
1863,51.0,480,960,0.0,0.0
1864,59.0,0,960,0.0,0.0
1865,71.0,720,240,0.0,0.0
1866,55.0,0,720,0.0,0.0
1867,62.0,240,720,0.0,0.0
1868,67.0,0,720,0.0,0.0
1869,71.0,0,720,0.0,0.0
1870,43.0,0,480,0.0,0.0
1871,57.0,0,240,0.0,0.0
1872,69.0,240,240,0.0,0.0
1873,67.0,0,240,0.0,0.0
1874,59.0,240,240,0.0,0.0
1875,69.0,720,240,0.0,0.0
1876,60.0,0,240,0.0,0.0
1877,66.0,240,720,0.0,0.0
1878,62.0,480,960,0.0,0.0
1879,60.0,0,480,0.0,0.0
1880,66.0,0,240,0.0,0.0
1881,59.0,0,480,0.0,0.0
1882,67.0,480,480,0.0,0.0
1883,62.0,0,480,0.0,0.0
1884,60.0,0,480,0.0,0.0
1885,64.0,240,480,0.0,0.0
1886,69.0,240,240,0.0,0.0
1887,59.0,0,480,0.0,0.0
1888,67.0,240,240,0.0,0.0
1889,57.0,0,480,0.0,0.0
1890,60.0,480,480,0.0,0.0
1891,66.0,240,240,0.0,0.0
1892,64.0,0,240,0.0,0.0
1893,59.0,240,480,0.0,0.0
1894,47.0,240,240,0.0,0.0
1895,59.0,480,240,0.0,0.0
1896,57.0,0,480,0.0,0.0
1897,63.0,0,240,0.0,0.0
1898,59.0,240,960,0.0,0.0
1899,56.0,240,480,0.0,0.0
1900,64.0,240,720,0.0,0.0
1901,52.0,0,480,0.0,0.0
1902,62.0,0,240,0.0,0.0
1903,57.0,0,960,0.0,0.0
1904,60.0,240,240,0.0,0.0
1905,62.0,480,240,0.0,0.0
1906,59.0,240,720,0.0,0.0
1907,50.0,240,480,0.0,0.0
1908,56.0,480,480,0.0,0.0
1909,52.0,0,480,0.0,0.0
1910,59.0,0,240,0.0,0.0
1911,57.0,0,480,0.0,0.0
1912,45.0,480,480,0.0,0.0
1913,60.0,0,480,0.0,0.0
1914,53.0,240,480,0.0,0.0
1915,57.0,0,480,0.0,0.0
1916,62.0,240,240,0.0,0.0
1917,52.0,240,480,0.0,0.0
1918,55.0,0,480,0.0,0.0
1919,60.0,0,240,0.0,0.0
1920,50.0,480,480,0.0,0.0
1921,53.0,0,480,0.0,0.0
1922,59.0,240,240,0.0,0.0
1923,57.0,0,240,0.0,0.0
1924,52.0,480,480,0.0,0.0
1925,56.0,0,480,0.0,0.0
1926,50.0,0,480,0.0,0.0
1927,56.0,480,240,0.0,0.0
1928,57.0,240,720,0.0,0.0
1929,48.0,0,480,0.0,0.0
1930,52.0,240,480,0.0,0.0
1931,50.0,480,480,0.0,0.0
1932,47.0,0,480,0.0,0.0
1933,57.0,0,240,0.0,0.0
1934,53.0,240,480,0.0,0.0
1935,45.0,0,480,0.0,0.0
1936,62.0,240,720,0.0,0.0
1937,52.0,0,480,0.0,0.0
1938,44.0,240,480,0.0,0.0
1939,64.0,0,240,0.0,0.0
1940,45.0,240,240,0.0,0.0
1941,52.0,0,240,0.0,0.0
1942,57.0,480,960,0.0,0.0
1943,60.0,0,240,0.0,0.0
1944,62.0,0,240,0.0,0.0
1945,50.0,480,240,0.0,0.0
1946,52.0,0,480,0.0,0.0
1947,59.0,0,480,0.0,0.0
1948,40.0,0,480,0.0,0.0
1949,56.0,720,480,0.0,0.0
1950,57.0,0,240,0.0,0.0
1951,57.0,240,720,0.0,0.0
1952,45.0,0,960,0.0,0.0
1953,52.0,0,480,0.0,0.0
1954,59.0,480,240,0.0,0.0
1955,60.0,240,720,0.0,0.0
1956,57.0,240,480,0.0,0.0
1957,55.0,480,480,0.0,0.0
1958,61.0,0,240,0.0,0.0
1959,62.0,240,720,0.0,0.0
1960,59.0,0,480,0.0,0.0
1961,54.0,240,480,0.0,0.0
1962,55.0,0,480,0.0,0.0
1963,52.0,0,480,0.0,0.0
1964,64.0,480,240,0.0,0.0
1965,66.0,240,720,0.0,0.0
1966,62.0,0,1440,0.0,0.0
1967,57.0,0,960,0.0,0.0
1968,50.0,240,480,0.0,0.0
1969,48.0,0,480,0.0,0.0
1970,66.0,480,240,0.0,0.0
1971,67.0,240,720,0.0,0.0
1972,55.0,0,960,0.0,0.0
1973,47.0,240,480,0.0,0.0
1974,48.0,0,480,0.0,0.0
1975,64.0,0,480,0.0,0.0
1976,69.0,480,240,0.0,0.0
1977,45.0,360,480,0.0,0.0
1978,60.0,0,480,0.0,0.0
1979,69.0,0,480,0.0,0.0
1980,50.0,0,480,0.0,0.0
1981,54.0,240,480,0.0,0.0
1982,62.0,0,480,0.0,0.0
1983,67.0,120,120,0.0,0.0
1984,69.0,0,120,0.0,0.0
1985,55.0,240,240,0.0,0.0
1986,62.0,240,720,0.0,0.0
1987,71.0,0,960,0.0,0.0
1988,55.0,240,240,0.0,0.0
1989,57.0,0,240,0.0,0.0
1990,55.0,0,240,0.0,0.0
1991,63.0,240,240,0.0,0.0
1992,64.0,60,360,0.0,0.0
1993,54.0,120,240,0.0,0.0
1994,52.0,0,240,0.0,0.0
1995,63.0,60,60,0.0,0.0
1996,64.0,960,60,0.0,0.0
1997,66.0,0,1440,0.0,0.0
1998,51.0,0,1440,0.0,0.0
1999,54.0,480,480,0.0,0.0
2000,59.0,120,480,0.0,0.0
2001,71.0,0,240,0.0,0.0
2002,52.0,120,480,0.0,0.0
2003,59.0,0,480,0.0,0.0
2004,67.0,120,120,0.0,0.0
2005,69.0,240,120,0.0,0.0
2006,71.0,0,240,0.0,0.0
2007,71.0,120,120,0.0,0.0
2008,69.0,240,120,0.0,0.0
2009,50.0,120,240,0.0,0.0
2010,59.0,0,240,0.0,0.0
2011,67.0,0,240,0.0,0.0
2012,69.0,120,120,0.0,0.0
2013,64.0,0,240,0.0,0.0
2014,48.0,0,240,0.0,0.0
2015,71.0,240,120,0.0,0.0
2016,72.0,120,240,0.0,0.0
2017,63.0,120,120,0.0,0.0
2018,47.0,120,480,0.0,0.0
2019,54.0,0,480,0.0,0.0
2020,64.0,240,120,0.0,0.0
2021,66.0,0,240,0.0,0.0
2022,66.0,120,120,0.0,0.0
2023,64.0,240,120,0.0,0.0
2024,63.0,120,240,0.0,0.0
2025,54.0,0,240,0.0,0.0
2026,45.0,0,240,0.0,0.0
2027,64.0,120,120,0.0,0.0
2028,43.0,480,480,0.0,0.0
2029,55.0,0,480,0.0,0.0
2030,66.0,240,120,0.0,0.0
2031,67.0,0,240,0.0,0.0
2032,60.0,240,720,0.0,0.0
2033,52.0,240,480,0.0,0.0
2034,45.0,0,960,0.0,0.0
2035,55.0,0,480,0.0,0.0
2036,61.0,480,240,0.0,0.0
2037,62.0,240,720,0.0,0.0
2038,47.0,480,960,0.0,0.0
2039,54.0,240,480,0.0,0.0
2040,59.0,0,960,0.0,0.0
2041,63.0,0,240,0.0,0.0
2042,64.0,240,720,0.0,0.0
2043,48.0,240,480,0.0,0.0
2044,57.0,240,960,0.0,0.0
2045,49.0,0,480,0.0,0.0
2046,64.0,480,240,0.0,0.0
2047,50.0,0,480,0.0,0.0
2048,66.0,240,720,0.0,0.0
2049,51.0,0,480,0.0,0.0
2050,54.0,0,480,0.0,0.0
2051,59.0,240,240,0.0,0.0
2052,67.0,120,240,0.0,0.0
2053,52.0,240,1440,0.0,0.0
2054,69.0,60,60,0.0,0.0
2055,67.0,60,60,0.0,0.0
2056,66.0,120,60,0.0,0.0
2057,64.0,120,120,0.0,0.0
2058,45.0,40,480,0.0,0.0
2059,63.0,120,120,0.0,0.0
2060,64.0,120,120,0.0,0.0
2061,66.0,0,120,0.0,0.0
2062,66.0,40,40,0.0,0.0
2063,47.0,720,960,0.0,0.0
2064,67.0,40,40,0.0,0.0
2065,66.0,40,40,0.0,0.0
2066,67.0,40,40,0.0,0.0
2067,66.0,40,40,0.0,0.0
2068,67.0,240,40,0.0,0.0
2069,66.0,240,480,0.0,0.0
2070,51.0,0,480,0.0,0.0
2071,64.0,0,240,0.0,0.0
2072,52.0,360,960,0.0,0.0
2073,64.0,60,720,0.0,0.0
2074,40.0,0,1920,0.0,0.0
2075,66.0,60,60,0.0,0.0
2076,68.0,120,60,0.0,0.0
2077,69.0,0,120,0.0,0.0
2078,54.0,960,480,0.0,0.0
2079,63.0,120,360,0.0,0.0
2080,57.0,0,480,0.0,0.0
2081,63.0,0,120,0.0,0.0
2082,59.0,0,960,0.0,0.0
2083,56.0,0,960,0.0,0.0
2084,52.0,0,960,0.0,0.0
2085,64.0,480,960,0.0,0.0
2086,71.0,720,240,0.0,0.0
2087,71.0,0,720,0.0,0.0
2088,67.0,0,720,0.0,0.0
2089,62.0,0,720,0.0,0.0
2090,55.0,240,720,0.0,0.0
2091,43.0,240,480,0.0,0.0
2092,57.0,0,240,0.0,0.0
2093,69.0,0,240,0.0,0.0
2094,59.0,240,240,0.0,0.0
2095,67.0,0,240,0.0,0.0
2096,69.0,0,240,0.0,0.0
2097,60.0,720,240,0.0,0.0
2098,62.0,480,960,0.0,0.0
2099,66.0,240,720,0.0,0.0
2100,60.0,0,480,0.0,0.0
2101,66.0,0,240,0.0,0.0
2102,67.0,0,480,0.0,0.0
2103,62.0,480,480,0.0,0.0
2104,59.0,0,480,0.0,0.0
2105,64.0,240,480,0.0,0.0
2106,60.0,0,480,0.0,0.0
2107,69.0,240,240,0.0,0.0
2108,59.0,240,480,0.0,0.0
2109,67.0,0,240,0.0,0.0
2110,57.0,0,480,0.0,0.0
2111,60.0,0,480,0.0,0.0
2112,66.0,240,240,0.0,0.0
2113,64.0,480,240,0.0,0.0
2114,59.0,240,480,0.0,0.0
2115,47.0,240,240,0.0,0.0
2116,59.0,480,240,0.0,0.0
2117,57.0,0,480,0.0,0.0
2118,63.0,0,240,0.0,0.0
2119,64.0,240,720,0.0,0.0
2120,59.0,0,960,0.0,0.0
2121,56.0,240,480,0.0,0.0
2122,52.0,0,480,0.0,0.0
2123,62.0,240,240,0.0,0.0
2124,60.0,240,240,0.0,0.0
2125,57.0,0,960,0.0,0.0
2126,62.0,480,240,0.0,0.0
2127,59.0,240,720,0.0,0.0
2128,50.0,240,480,0.0,0.0
2129,56.0,0,480,0.0,0.0
2130,52.0,480,480,0.0,0.0
2131,59.0,0,240,0.0,0.0
2132,45.0,0,480,0.0,0.0
2133,57.0,480,480,0.0,0.0
2134,60.0,0,480,0.0,0.0
2135,57.0,0,480,0.0,0.0
2136,53.0,240,480,0.0,0.0
2137,52.0,240,480,0.0,0.0
2138,55.0,0,480,0.0,0.0
2139,62.0,240,240,0.0,0.0
2140,60.0,0,240,0.0,0.0
2141,50.0,0,480,0.0,0.0
2142,53.0,480,480,0.0,0.0
2143,59.0,240,240,0.0,0.0
2144,57.0,0,240,0.0,0.0
2145,52.0,480,480,0.0,0.0
2146,56.0,0,480,0.0,0.0
2147,50.0,480,480,0.0,0.0
2148,56.0,0,240,0.0,0.0
2149,57.0,240,720,0.0,0.0
2150,48.0,240,480,0.0,0.0
2151,52.0,0,480,0.0,0.0
2152,50.0,0,480,0.0,0.0
2153,47.0,480,480,0.0,0.0
2154,57.0,0,240,0.0,0.0
2155,45.0,240,480,0.0,0.0
2156,53.0,0,480,0.0,0.0
2157,62.0,240,720,0.0,0.0
2158,52.0,0,480,0.0,0.0
2159,44.0,240,480,0.0,0.0
2160,64.0,0,240,0.0,0.0
2161,45.0,240,240,0.0,0.0
2162,52.0,0,240,0.0,0.0
2163,57.0,0,960,0.0,0.0
2164,60.0,0,240,0.0,0.0
2165,50.0,0,240,0.0,0.0
2166,62.0,480,240,0.0,0.0
2167,59.0,480,480,0.0,0.0
2168,52.0,0,480,0.0,0.0
2169,56.0,720,480,0.0,0.0
2170,40.0,0,480,0.0,0.0
2171,57.0,0,240,0.0,0.0
2172,45.0,480,960,0.0,0.0
2173,57.0,240,720,0.0,0.0
2174,52.0,0,480,0.0,0.0
2175,59.0,0,240,0.0,0.0
2176,60.0,240,720,0.0,0.0
2177,57.0,240,480,0.0,0.0
2178,55.0,0,480,0.0,0.0
2179,61.0,480,240,0.0,0.0
2180,62.0,240,720,0.0,0.0
2181,54.0,0,480,0.0,0.0
2182,59.0,240,480,0.0,0.0
2183,52.0,0,480,0.0,0.0
2184,55.0,0,480,0.0,0.0
2185,64.0,480,240,0.0,0.0
2186,66.0,240,720,0.0,0.0
2187,62.0,0,1440,0.0,0.0
2188,57.0,480,960,0.0,0.0
2189,50.0,240,480,0.0,0.0
2190,48.0,0,480,0.0,0.0
2191,66.0,0,240,0.0,0.0
2192,55.0,0,960,0.0,0.0
2193,67.0,240,720,0.0,0.0
2194,47.0,240,480,0.0,0.0
2195,64.0,0,480,0.0,0.0
2196,48.0,0,480,0.0,0.0
2197,69.0,480,240,0.0,0.0
2198,69.0,360,480,0.0,0.0
2199,60.0,0,480,0.0,0.0
2200,45.0,0,480,0.0,0.0
2201,62.0,0,480,0.0,0.0
2202,54.0,0,480,0.0,0.0
2203,50.0,0,480,0.0,0.0
2204,67.0,120,120,0.0,0.0
2205,69.0,240,120,0.0,0.0
2206,55.0,240,240,0.0,0.0
2207,62.0,240,720,0.0,0.0
2208,71.0,240,960,0.0,0.0
2209,55.0,240,240,0.0,0.0
2210,57.0,0,240,0.0,0.0
2211,63.0,0,240,0.0,0.0
2212,55.0,0,240,0.0,0.0
2213,54.0,120,240,0.0,0.0
2214,64.0,60,360,0.0,0.0
2215,52.0,960,240,0.0,0.0
2216,63.0,60,60,0.0,0.0
2217,64.0,0,60,0.0,0.0
2218,51.0,0,1440,0.0,0.0
2219,66.0,120,1440,0.0,0.0
2220,54.0,480,480,0.0,0.0
2221,59.0,0,480,0.0,0.0
2222,71.0,0,240,0.0,0.0
2223,59.0,0,480,0.0,0.0
2224,52.0,120,480,0.0,0.0
2225,67.0,120,120,0.0,0.0
2226,69.0,240,120,0.0,0.0
2227,71.0,0,240,0.0,0.0
2228,71.0,120,120,0.0,0.0
2229,69.0,240,120,0.0,0.0
2230,59.0,0,240,0.0,0.0
2231,50.0,120,240,0.0,0.0
2232,67.0,0,240,0.0,0.0
2233,48.0,0,240,0.0,0.0
2234,64.0,240,240,0.0,0.0
2235,69.0,120,120,0.0,0.0
2236,71.0,0,120,0.0,0.0
2237,72.0,120,240,0.0,0.0
2238,63.0,120,120,0.0,0.0
2239,47.0,0,480,0.0,0.0
2240,54.0,0,480,0.0,0.0
2241,64.0,240,120,0.0,0.0
2242,66.0,120,240,0.0,0.0
2243,66.0,120,120,0.0,0.0
2244,64.0,240,120,0.0,0.0
2245,63.0,120,240,0.0,0.0
2246,54.0,0,240,0.0,0.0
2247,45.0,0,240,0.0,0.0
2248,64.0,120,120,0.0,0.0
2249,55.0,0,480,0.0,0.0
2250,43.0,480,480,0.0,0.0
2251,66.0,240,120,0.0,0.0
2252,67.0,0,240,0.0,0.0
2253,60.0,240,720,0.0,0.0
2254,45.0,0,960,0.0,0.0
2255,52.0,240,480,0.0,0.0
2256,55.0,0,480,0.0,0.0
2257,61.0,480,240,0.0,0.0
2258,54.0,240,480,0.0,0.0
2259,62.0,240,720,0.0,0.0
2260,47.0,0,960,0.0,0.0
2261,59.0,0,960,0.0,0.0
2262,63.0,480,240,0.0,0.0
2263,64.0,240,720,0.0,0.0
2264,48.0,240,480,0.0,0.0
2265,57.0,0,960,0.0,0.0
2266,49.0,0,480,0.0,0.0
2267,64.0,480,240,0.0,0.0
2268,50.0,240,480,0.0,0.0
2269,66.0,240,720,0.0,0.0
2270,51.0,240,480,0.0,0.0
2271,54.0,0,480,0.0,0.0
2272,59.0,0,240,0.0,0.0
2273,52.0,240,1440,0.0,0.0
2274,67.0,120,240,0.0,0.0
2275,69.0,60,60,0.0,0.0
2276,67.0,60,60,0.0,0.0
2277,66.0,120,60,0.0,0.0
2278,45.0,40,480,0.0,0.0
2279,64.0,120,120,0.0,0.0
2280,63.0,120,120,0.0,0.0
2281,64.0,120,120,0.0,0.0
2282,66.0,0,120,0.0,0.0
2283,47.0,720,960,0.0,0.0
2284,66.0,40,40,0.0,0.0
2285,67.0,40,40,0.0,0.0
2286,66.0,40,40,0.0,0.0
2287,67.0,40,40,0.0,0.0
2288,66.0,40,40,0.0,0.0
2289,67.0,240,40,0.0,0.0
2290,66.0,240,480,0.0,0.0
2291,51.0,0,480,0.0,0.0
2292,64.0,0,240,0.0,0.0
2293,52.0,0,960,0.0,0.0
2294,64.0,60,720,0.0,0.0
2295,40.0,0,1920,0.0,0.0
2296,66.0,60,60,0.0,0.0
2297,68.0,120,60,0.0,0.0
2298,69.0,360,120,0.0,0.0
2299,54.0,0,480,0.0,0.0
2300,57.0,960,480,0.0,0.0
2301,63.0,120,360,0.0,0.0
2302,63.0,0,120,0.0,0.0
2303,64.0,0,960,0.0,0.0
2304,59.0,0,960,0.0,0.0
2305,56.0,1440,960,0.0,0.0
2306,52.0,0,960,0.0,0.0
2307,59.0,0,1440,0.0,0.0
2308,55.0,480,960,0.0,0.0
2309,40.0,720,2880,0.0,0.0
2310,60.0,240,240,0.0,0.0
2311,59.0,240,240,0.0,0.0
2312,57.0,40,240,0.0,0.0
2313,55.0,40,40,0.0,0.0
2314,57.0,40,40,0.0,0.0
2315,55.0,40,40,0.0,0.0
2316,57.0,40,40,0.0,0.0
2317,55.0,40,40,0.0,0.0
2318,57.0,240,40,0.0,0.0
2319,55.0,240,240,0.0,0.0
2320,54.0,240,240,0.0,0.0
2321,52.0,0,240,0.0,0.0
2322,60.0,240,720,0.0,0.0
2323,55.0,0,960,0.0,0.0
2324,52.0,0,960,0.0,0.0
2325,59.0,1440,240,0.0,0.0
2326,54.0,480,1440,0.0,0.0
2327,52.0,960,480,0.0,0.0
2328,51.0,0,2880,0.0,0.0
2329,57.0,0,480,0.0,0.0
2330,59.0,480,480,0.0,0.0
2331,60.0,480,480,0.0,0.0
2332,59.0,480,480,0.0,0.0
2333,57.0,40,480,0.0,0.0
2334,52.0,960,1920,0.0,0.0
2335,55.0,40,40,0.0,0.0
2336,57.0,40,40,0.0,0.0
2337,55.0,40,40,0.0,0.0
2338,57.0,40,40,0.0,0.0
2339,55.0,40,40,0.0,0.0
2340,57.0,1440,40,0.0,0.0
2341,55.0,240,1440,0.0,0.0
2342,47.0,0,960,0.0,0.0
2343,54.0,0,480,0.0,0.0
2344,43.0,0,960,0.0,0.0
2345,47.0,60,960,0.0,0.0
2346,52.0,0,960,0.0,0.0
2347,67.0,60,60,0.0,0.0
2348,59.0,0,960,0.0,0.0
2349,52.0,1440,960,0.0,0.0
2350,66.0,360,60,0.0,0.0
2351,67.0,120,360,0.0,0.0
2352,69.0,120,120,0.0,0.0
2353,67.0,120,120,0.0,0.0
2354,66.0,120,120,0.0,0.0
2355,64.0,0,120,0.0,0.0
2356,54.0,0,1920,0.0,0.0
2357,57.0,0,1920,0.0,0.0
2358,62.0,480,1440,0.0,0.0
2359,60.0,1440,480,0.0,0.0
2360,59.0,480,1440,0.0,0.0
2361,55.0,0,1920,0.0,0.0
2362,43.0,0,960,0.0,0.0
2363,59.0,720,480,0.0,0.0
2364,61.0,240,720,0.0,0.0
2365,57.0,0,960,0.0,0.0
2366,54.0,480,960,0.0,0.0
2367,63.0,0,240,0.0,0.0
2368,52.0,240,480,0.0,0.0
2369,55.0,0,480,0.0,0.0
2370,64.0,240,720,0.0,0.0
2371,50.0,480,480,0.0,0.0
2372,54.0,0,480,0.0,0.0
2373,55.0,0,240,0.0,0.0
2374,57.0,0,1440,0.0,0.0
2375,52.0,240,480,0.0,0.0
2376,48.0,120,1440,0.0,0.0
2377,54.0,240,240,0.0,0.0
2378,55.0,480,240,0.0,0.0
2379,54.0,0,480,0.0,0.0
2380,52.0,0,480,0.0,0.0
2381,59.0,120,120,0.0,0.0
2382,48.0,0,480,0.0,0.0
2383,57.0,120,120,0.0,0.0
2384,55.0,120,120,0.0,0.0
2385,57.0,960,120,0.0,0.0
2386,59.0,480,1440,0.0,0.0
2387,51.0,480,960,0.0,0.0
2388,47.0,0,1920,0.0,0.0
2389,60.0,960,480,0.0,0.0
2390,52.0,0,480,0.0,0.0
2391,59.0,0,960,0.0,0.0
2392,51.0,960,960,0.0,0.0
2393,59.0,0,1440,0.0,0.0
2394,55.0,480,960,0.0,0.0
2395,40.0,0,2880,0.0,0.0
2396,60.0,240,240,0.0,0.0
2397,59.0,240,240,0.0,0.0
2398,57.0,40,240,0.0,0.0
2399,55.0,40,40,0.0,0.0
2400,57.0,40,40,0.0,0.0
2401,55.0,40,40,0.0,0.0
2402,57.0,40,40,0.0,0.0
2403,55.0,40,40,0.0,0.0
2404,57.0,240,40,0.0,0.0
2405,55.0,240,240,0.0,0.0
2406,54.0,240,240,0.0,0.0
2407,52.0,0,240,0.0,0.0
2408,55.0,0,960,0.0,0.0
2409,52.0,1440,960,0.0,0.0
2410,60.0,240,720,0.0,0.0
2411,59.0,0,240,0.0,0.0
2412,54.0,480,1440,0.0,0.0
2413,52.0,960,480,0.0,0.0
2414,51.0,0,2880,0.0,0.0
2415,57.0,0,480,0.0,0.0
2416,59.0,480,480,0.0,0.0
2417,60.0,480,480,0.0,0.0
2418,59.0,480,480,0.0,0.0
2419,57.0,40,480,0.0,0.0
2420,55.0,40,40,0.0,0.0
2421,52.0,0,1920,0.0,0.0
2422,57.0,40,40,0.0,0.0
2423,55.0,40,40,0.0,0.0
2424,57.0,40,40,0.0,0.0
2425,55.0,40,40,0.0,0.0
2426,57.0,1440,40,0.0,0.0
2427,55.0,240,1440,0.0,0.0
2428,47.0,0,960,0.0,0.0
2429,54.0,960,480,0.0,0.0
2430,52.0,0,960,0.0,0.0
2431,43.0,60,960,0.0,0.0
2432,47.0,0,960,0.0,0.0
2433,52.0,1440,960,0.0,0.0
2434,59.0,0,960,0.0,0.0
2435,67.0,60,60,0.0,0.0
2436,66.0,360,60,0.0,0.0
2437,67.0,120,360,0.0,0.0
2438,69.0,120,120,0.0,0.0
2439,67.0,120,120,0.0,0.0
2440,66.0,120,120,0.0,0.0
2441,64.0,0,120,0.0,0.0
2442,54.0,1440,1920,0.0,0.0
2443,57.0,0,1920,0.0,0.0
2444,62.0,480,1440,0.0,0.0
2445,60.0,0,480,0.0,0.0
2446,59.0,480,1440,0.0,0.0
2447,55.0,0,1920,0.0,0.0
2448,43.0,0,960,0.0,0.0
2449,59.0,720,480,0.0,0.0
2450,57.0,0,960,0.0,0.0
2451,61.0,240,720,0.0,0.0
2452,54.0,0,960,0.0,0.0
2453,63.0,480,240,0.0,0.0
2454,64.0,240,720,0.0,0.0
2455,55.0,240,480,0.0,0.0
2456,52.0,0,480,0.0,0.0
2457,54.0,0,480,0.0,0.0
2458,50.0,0,480,0.0,0.0
2459,55.0,480,240,0.0,0.0
2460,52.0,240,480,0.0,0.0
2461,48.0,120,1440,0.0,0.0
2462,57.0,0,1440,0.0,0.0
2463,54.0,240,240,0.0,0.0
2464,55.0,480,240,0.0,0.0
2465,54.0,0,480,0.0,0.0
2466,48.0,960,480,0.0,0.0
2467,52.0,0,480,0.0,0.0
2468,59.0,120,120,0.0,0.0
2469,57.0,120,120,0.0,0.0
2470,55.0,120,120,0.0,0.0
2471,57.0,0,120,0.0,0.0
2472,59.0,480,1440,0.0,0.0
2473,51.0,480,960,0.0,0.0
2474,47.0,0,1920,0.0,0.0
2475,60.0,960,480,0.0,0.0
2476,52.0,0,480,0.0,0.0
2477,59.0,960,960,0.0,0.0
2478,51.0,0,960,0.0,0.0
2479,47.0,0,960,0.0,0.0
2480,62.0,480,960,0.0,0.0
2481,66.0,0,1440,0.0,0.0
2482,61.0,0,960,0.0,0.0
2483,46.0,0,960,0.0,0.0
2484,67.0,240,240,0.0,0.0
2485,66.0,240,240,0.0,0.0
2486,64.0,480,240,0.0,0.0
2487,47.0,0,960,0.0,0.0
2488,54.0,0,960,0.0,0.0
2489,62.0,240,480,0.0,0.0
2490,61.0,240,240,0.0,0.0
2491,59.0,0,240,0.0,0.0
2492,62.0,0,960,0.0,0.0
2493,47.0,0,960,0.0,0.0
2494,67.0,240,480,0.0,0.0
2495,55.0,0,960,0.0,0.0
2496,66.0,240,240,0.0,0.0
2497,64.0,1440,240,0.0,0.0
2498,64.0,0,1440,0.0,0.0
2499,60.0,120,1440,0.0,0.0
2500,55.0,0,1440,0.0,0.0
2501,48.0,0,1440,0.0,0.0
2502,64.0,120,120,0.0,0.0
2503,66.0,120,120,0.0,0.0
2504,67.0,60,120,0.0,0.0
2505,69.0,60,60,0.0,0.0
2506,71.0,960,60,0.0,0.0
2507,45.0,960,960,0.0,0.0
2508,57.0,0,960,0.0,0.0
2509,60.0,0,960,0.0,0.0
2510,66.0,0,960,0.0,0.0
2511,72.0,0,960,0.0,0.0
2512,71.0,480,1440,0.0,0.0
2513,47.0,480,960,0.0,0.0
2514,50.0,0,960,0.0,0.0
2515,55.0,480,2880,0.0,0.0
2516,67.0,0,1440,0.0,0.0
2517,48.0,960,960,0.0,0.0
2518,52.0,0,960,0.0,0.0
2519,69.0,0,480,0.0,0.0
2520,50.0,0,1920,0.0,0.0
2521,62.0,0,1440,0.0,0.0
2522,69.0,480,1440,0.0,0.0
2523,54.0,0,1920,0.0,0.0
2524,71.0,960,480,0.0,0.0
2525,69.0,720,960,0.0,0.0
2526,70.0,120,720,0.0,0.0
2527,66.0,0,720,0.0,0.0
2528,61.0,0,720,0.0,0.0
2529,52.0,0,960,0.0,0.0
2530,68.0,120,120,0.0,0.0
2531,70.0,1440,120,0.0,0.0
2532,71.0,0,1440,0.0,0.0
2533,66.0,60,1440,0.0,0.0
2534,59.0,0,1440,0.0,0.0
2535,50.0,0,1920,0.0,0.0
2536,69.0,60,60,0.0,0.0
2537,67.0,60,60,0.0,0.0
2538,66.0,60,60,0.0,0.0
2539,64.0,120,60,0.0,0.0
2540,62.0,60,120,0.0,0.0
2541,61.0,60,60,0.0,0.0
2542,59.0,960,60,0.0,0.0
2543,49.0,0,960,0.0,0.0
2544,52.0,480,960,0.0,0.0
2545,59.0,0,960,0.0,0.0
2546,64.0,120,1440,0.0,0.0
2547,66.0,0,120,0.0,0.0
2548,64.0,120,120,0.0,0.0
2549,63.0,120,120,0.0,0.0
2550,64.0,60,120,0.0,0.0
2551,66.0,60,60,0.0,0.0
2552,67.0,960,60,0.0,0.0
2553,58.0,480,960,0.0,0.0
2554,52.0,0,960,0.0,0.0
2555,49.0,0,960,0.0,0.0
2556,54.0,0,480,0.0,0.0
2557,50.0,240,480,0.0,0.0
2558,59.0,240,720,0.0,0.0
2559,52.0,0,480,0.0,0.0
2560,55.0,0,480,0.0,0.0
2561,61.0,960,240,0.0,0.0
2562,61.0,480,1440,0.0,0.0
2563,59.0,480,960,0.0,0.0
2564,54.0,0,1920,0.0,0.0
2565,58.0,0,960,0.0,0.0
2566,42.0,960,960,0.0,0.0
2567,59.0,0,480,0.0,0.0
2568,59.0,0,1920,0.0,0.0
2569,47.0,480,480,0.0,0.0
2570,51.0,480,480,0.0,0.0
2571,54.0,960,480,0.0,0.0
2572,59.0,960,960,0.0,0.0
2573,62.0,0,960,0.0,0.0
2574,47.0,0,960,0.0,0.0
2575,54.0,0,960,0.0,0.0
2576,59.0,40,960,0.0,0.0
2577,50.0,0,1920,0.0,0.0
2578,56.0,40,40,0.0,0.0
2579,47.0,1440,1920,0.0,0.0
2580,57.0,40,40,0.0,0.0
2581,56.0,40,40,0.0,0.0
2582,57.0,40,40,0.0,0.0
2583,56.0,40,40,0.0,0.0
2584,57.0,1440,40,0.0,0.0
2585,56.0,0,240,0.0,0.0
2586,52.0,0,1440,0.0,0.0
2587,48.0,120,1440,0.0,0.0
2588,57.0,0,1440,0.0,0.0
2589,71.0,120,120,0.0,0.0
2590,69.0,120,120,0.0,0.0
2591,67.0,60,120,0.0,0.0
2592,66.0,60,60,0.0,0.0
2593,64.0,960,60,0.0,0.0
2594,63.0,960,960,0.0,0.0
2595,54.0,0,960,0.0,0.0
2596,48.0,960,1920,0.0,0.0
2597,64.0,0,960,0.0,0.0
2598,55.0,0,960,0.0,0.0
2599,58.0,480,1440,0.0,0.0
2600,54.0,480,960,0.0,0.0
2601,49.0,0,1920,0.0,0.0
2602,52.0,1440,960,0.0,0.0
2603,58.0,0,480,0.0,0.0
2604,59.0,0,1440,0.0,0.0
2605,54.0,0,1440,0.0,0.0
2606,50.0,120,1440,0.0,0.0
2607,72.0,120,120,0.0,0.0
2608,71.0,120,120,0.0,0.0
2609,69.0,120,120,0.0,0.0
2610,67.0,960,120,0.0,0.0
2611,66.0,0,960,0.0,0.0
2612,51.0,480,960,0.0,0.0
2613,59.0,0,960,0.0,0.0
2614,52.0,0,1440,0.0,0.0
2615,59.0,480,480,0.0,0.0
2616,67.0,120,1440,0.0,0.0
2617,57.0,480,480,0.0,0.0
2618,55.0,0,960,0.0,0.0
2619,71.0,120,120,0.0,0.0
2620,69.0,120,120,0.0,0.0
2621,67.0,60,120,0.0,0.0
2622,69.0,60,60,0.0,0.0
2623,71.0,960,60,0.0,0.0
2624,54.0,0,960,0.0,0.0
2625,63.0,960,960,0.0,0.0
2626,57.0,0,960,0.0,0.0
2627,64.0,480,1440,0.0,0.0
2628,59.0,480,1920,0.0,0.0
2629,55.0,480,960,0.0,0.0
2630,52.0,0,960,0.0,0.0
2631,48.0,0,1920,0.0,0.0
2632,67.0,0,480,0.0,0.0
2633,66.0,240,480,0.0,0.0
2634,57.0,0,1440,0.0,0.0
2635,67.0,240,240,0.0,0.0
2636,69.0,480,240,0.0,0.0
2637,63.0,240,480,0.0,0.0
2638,54.0,0,480,0.0,0.0
2639,47.0,0,1920,0.0,0.0
2640,52.0,0,240,0.0,0.0
2641,55.0,0,240,0.0,0.0
2642,64.0,120,240,0.0,0.0
2643,66.0,120,120,0.0,0.0
2644,57.0,0,240,0.0,0.0
2645,67.0,40,120,0.0,0.0
2646,59.0,720,960,0.0,0.0
2647,66.0,40,40,0.0,0.0
2648,67.0,40,40,0.0,0.0
2649,66.0,40,40,0.0,0.0
2650,67.0,40,40,0.0,0.0
2651,66.0,40,40,0.0,0.0
2652,67.0,720,40,0.0,0.0
2653,66.0,240,1440,0.0,0.0
2654,57.0,960,960,0.0,0.0
2655,51.0,0,960,0.0,0.0
2656,64.0,0,480,0.0,0.0
2657,52.0,0,2880,0.0,0.0
2658,40.0,960,2880,0.0,0.0
2659,57.0,480,960,0.0,0.0
2660,64.0,480,1440,0.0,0.0
2661,56.0,0,1920,0.0,0.0
2662,66.0,960,480,0.0,0.0
2663,64.0,0,960,0.0,0.0
2664,62.0,480,960,0.0,0.0
2665,47.0,0,960,0.0,0.0
2666,66.0,0,1440,0.0,0.0
2667,61.0,0,960,0.0,0.0
2668,46.0,480,960,0.0,0.0
2669,67.0,240,240,0.0,0.0
2670,66.0,240,240,0.0,0.0
2671,64.0,0,240,0.0,0.0
2672,54.0,0,960,0.0,0.0
2673,47.0,480,960,0.0,0.0
2674,62.0,240,480,0.0,0.0
2675,61.0,240,240,0.0,0.0
2676,59.0,0,240,0.0,0.0
2677,67.0,240,480,0.0,0.0
2678,62.0,0,960,0.0,0.0
2679,55.0,0,960,0.0,0.0
2680,47.0,0,960,0.0,0.0
2681,66.0,240,240,0.0,0.0
2682,64.0,1440,240,0.0,0.0
2683,64.0,120,1440,0.0,0.0
2684,60.0,0,1440,0.0,0.0
2685,55.0,0,1440,0.0,0.0
2686,48.0,0,1440,0.0,0.0
2687,64.0,120,120,0.0,0.0
2688,66.0,120,120,0.0,0.0
2689,67.0,60,120,0.0,0.0
2690,69.0,60,60,0.0,0.0
2691,71.0,960,60,0.0,0.0
2692,72.0,0,960,0.0,0.0
2693,60.0,0,960,0.0,0.0
2694,57.0,0,960,0.0,0.0
2695,45.0,0,960,0.0,0.0
2696,66.0,960,960,0.0,0.0
2697,50.0,0,960,0.0,0.0
2698,47.0,480,960,0.0,0.0
2699,55.0,480,2880,0.0,0.0
2700,67.0,0,1440,0.0,0.0
2701,71.0,480,1440,0.0,0.0
2702,48.0,960,960,0.0,0.0
2703,52.0,0,960,0.0,0.0
2704,69.0,0,480,0.0,0.0
2705,50.0,0,1920,0.0,0.0
2706,62.0,0,1440,0.0,0.0
2707,69.0,480,1440,0.0,0.0
2708,54.0,0,1920,0.0,0.0
2709,71.0,960,480,0.0,0.0
2710,69.0,720,960,0.0,0.0
2711,61.0,120,720,0.0,0.0
2712,70.0,0,720,0.0,0.0
2713,66.0,0,720,0.0,0.0
2714,52.0,0,960,0.0,0.0
2715,68.0,120,120,0.0,0.0
2716,70.0,1440,120,0.0,0.0
2717,71.0,0,1440,0.0,0.0
2718,66.0,60,1440,0.0,0.0
2719,59.0,0,1440,0.0,0.0
2720,50.0,960,1920,0.0,0.0
2721,69.0,60,60,0.0,0.0
2722,67.0,60,60,0.0,0.0
2723,66.0,60,60,0.0,0.0
2724,64.0,120,60,0.0,0.0
2725,62.0,60,120,0.0,0.0
2726,61.0,60,60,0.0,0.0
2727,59.0,0,60,0.0,0.0
2728,59.0,0,960,0.0,0.0
2729,49.0,0,960,0.0,0.0
2730,52.0,480,960,0.0,0.0
2731,64.0,120,1440,0.0,0.0
2732,66.0,0,120,0.0,0.0
2733,64.0,120,120,0.0,0.0
2734,63.0,120,120,0.0,0.0
2735,64.0,60,120,0.0,0.0
2736,66.0,60,60,0.0,0.0
2737,67.0,960,60,0.0,0.0
2738,52.0,0,960,0.0,0.0
2739,49.0,480,960,0.0,0.0
2740,58.0,0,960,0.0,0.0
2741,50.0,240,480,0.0,0.0
2742,54.0,0,480,0.0,0.0
2743,59.0,240,720,0.0,0.0
2744,52.0,960,480,0.0,0.0
2745,55.0,0,480,0.0,0.0
2746,61.0,0,240,0.0,0.0
2747,59.0,480,960,0.0,0.0
2748,54.0,0,1920,0.0,0.0
2749,61.0,480,1440,0.0,0.0
2750,58.0,0,960,0.0,0.0
2751,42.0,960,960,0.0,0.0
2752,59.0,0,480,0.0,0.0
2753,59.0,0,1920,0.0,0.0
2754,47.0,480,480,0.0,0.0
2755,51.0,480,480,0.0,0.0
2756,54.0,960,480,0.0,0.0
2757,59.0,960,960,0.0,0.0
2758,59.0,0,960,0.0,0.0
2759,62.0,40,960,0.0,0.0
2760,54.0,0,960,0.0,0.0
2761,47.0,0,960,0.0,0.0
2762,50.0,0,1920,0.0,0.0
2763,47.0,1440,1920,0.0,0.0
2764,56.0,40,40,0.0,0.0
2765,57.0,40,40,0.0,0.0
2766,56.0,40,40,0.0,0.0
2767,57.0,40,40,0.0,0.0
2768,56.0,40,40,0.0,0.0
2769,57.0,1440,40,0.0,0.0
2770,56.0,0,240,0.0,0.0
2771,48.0,0,1440,0.0,0.0
2772,52.0,0,1440,0.0,0.0
2773,57.0,120,1440,0.0,0.0
2774,71.0,120,120,0.0,0.0
2775,69.0,120,120,0.0,0.0
2776,67.0,60,120,0.0,0.0
2777,66.0,60,60,0.0,0.0
2778,64.0,960,60,0.0,0.0
2779,54.0,0,960,0.0,0.0
2780,48.0,0,1920,0.0,0.0
2781,63.0,960,960,0.0,0.0
2782,64.0,960,960,0.0,0.0
2783,55.0,0,960,0.0,0.0
2784,58.0,480,1440,0.0,0.0
2785,54.0,480,960,0.0,0.0
2786,49.0,1440,1920,0.0,0.0
2787,52.0,0,960,0.0,0.0
2788,58.0,0,480,0.0,0.0
2789,59.0,120,1440,0.0,0.0
2790,54.0,0,1440,0.0,0.0
2791,50.0,0,1440,0.0,0.0
2792,72.0,120,120,0.0,0.0
2793,71.0,120,120,0.0,0.0
2794,69.0,120,120,0.0,0.0
2795,67.0,960,120,0.0,0.0
2796,51.0,0,960,0.0,0.0
2797,66.0,480,960,0.0,0.0
2798,59.0,0,960,0.0,0.0
2799,67.0,0,1440,0.0,0.0
2800,59.0,480,480,0.0,0.0
2801,52.0,120,1440,0.0,0.0
2802,57.0,480,480,0.0,0.0
2803,55.0,0,960,0.0,0.0
2804,71.0,120,120,0.0,0.0
2805,69.0,120,120,0.0,0.0
2806,67.0,60,120,0.0,0.0
2807,69.0,60,60,0.0,0.0
2808,71.0,960,60,0.0,0.0
2809,54.0,960,960,0.0,0.0
2810,57.0,0,960,0.0,0.0
2811,63.0,0,960,0.0,0.0
2812,64.0,480,1440,0.0,0.0
2813,55.0,480,960,0.0,0.0
2814,59.0,480,1920,0.0,0.0
2815,52.0,0,960,0.0,0.0
2816,48.0,480,1920,0.0,0.0
2817,67.0,0,480,0.0,0.0
2818,57.0,0,1440,0.0,0.0
2819,66.0,240,480,0.0,0.0
2820,67.0,240,240,0.0,0.0
2821,69.0,0,240,0.0,0.0
2822,47.0,0,1920,0.0,0.0
2823,54.0,0,480,0.0,0.0
2824,63.0,240,480,0.0,0.0
2825,64.0,120,240,0.0,0.0
2826,55.0,0,240,0.0,0.0
2827,52.0,0,240,0.0,0.0
2828,57.0,40,240,0.0,0.0
2829,66.0,120,120,0.0,0.0
2830,67.0,0,120,0.0,0.0
2831,66.0,40,40,0.0,0.0
2832,59.0,720,960,0.0,0.0
2833,67.0,40,40,0.0,0.0
2834,66.0,40,40,0.0,0.0
2835,67.0,40,40,0.0,0.0
2836,66.0,40,40,0.0,0.0
2837,67.0,720,40,0.0,0.0
2838,66.0,240,1440,0.0,0.0
2839,57.0,0,960,0.0,0.0
2840,51.0,0,960,0.0,0.0
2841,64.0,960,480,0.0,0.0
2842,57.0,480,960,0.0,0.0
2843,40.0,1680,2880,0.0,0.0
2844,52.0,0,2880,0.0,0.0
2845,64.0,480,1440,0.0,0.0
2846,56.0,0,1920,0.0,0.0
2847,66.0,960,480,0.0,0.0
2848,64.0,0,960,0.0,0.0
2849,64.0,240,240,0.0,0.0
2850,43.0,0,240,0.0,0.0
2851,66.0,0,240,0.0,0.0
2852,42.0,480,240,0.0,0.0
2853,40.0,240,480,0.0,0.0
2854,67.0,0,480,0.0,0.0
2855,66.0,240,240,0.0,0.0
2856,45.0,0,480,0.0,0.0
2857,64.0,480,240,0.0,0.0
2858,47.0,240,480,0.0,0.0
2859,63.0,0,480,0.0,0.0
2860,45.0,0,480,0.0,0.0
2861,64.0,240,240,0.0,0.0
2862,66.0,480,240,0.0,0.0
2863,59.0,240,480,0.0,0.0
2864,43.0,0,480,0.0,0.0
2865,61.0,240,240,0.0,0.0
2866,42.0,0,480,0.0,0.0
2867,63.0,480,240,0.0,0.0
2868,40.0,240,480,0.0,0.0
2869,64.0,0,480,0.0,0.0
2870,42.0,480,480,0.0,0.0
2871,62.0,240,240,0.0,0.0
2872,60.0,0,240,0.0,0.0
2873,43.0,0,480,0.0,0.0
2874,59.0,240,480,0.0,0.0
2875,57.0,240,240,0.0,0.0
2876,45.0,0,480,0.0,0.0
2877,55.0,480,240,0.0,0.0
2878,54.0,0,480,0.0,0.0
2879,47.0,240,480,0.0,0.0
2880,45.0,0,480,0.0,0.0
2881,55.0,240,240,0.0,0.0
2882,57.0,240,240,0.0,0.0
2883,43.0,240,480,0.0,0.0
2884,59.0,240,240,0.0,0.0
2885,57.0,0,240,0.0,0.0
2886,55.0,240,240,0.0,0.0
2887,47.0,0,480,0.0,0.0
2888,54.0,240,240,0.0,0.0
2889,52.0,240,480,0.0,0.0
2890,40.0,240,240,0.0,0.0
2891,42.0,0,240,0.0,0.0
2892,64.0,240,240,0.0,0.0
2893,43.0,0,240,0.0,0.0
2894,66.0,480,240,0.0,0.0
2895,42.0,0,240,0.0,0.0
2896,40.0,0,480,0.0,0.0
2897,67.0,240,480,0.0,0.0
2898,45.0,0,480,0.0,0.0
2899,66.0,240,240,0.0,0.0
2900,64.0,480,240,0.0,0.0
2901,63.0,240,480,0.0,0.0
2902,47.0,0,480,0.0,0.0
2903,45.0,480,480,0.0,0.0
2904,64.0,240,240,0.0,0.0
2905,66.0,0,240,0.0,0.0
2906,59.0,240,480,0.0,0.0
2907,43.0,0,480,0.0,0.0
2908,61.0,240,240,0.0,0.0
2909,42.0,480,480,0.0,0.0
2910,63.0,0,240,0.0,0.0
2911,40.0,240,480,0.0,0.0
2912,64.0,0,480,0.0,0.0
2913,62.0,240,240,0.0,0.0
2914,42.0,0,480,0.0,0.0
2915,60.0,480,240,0.0,0.0
2916,59.0,240,480,0.0,0.0
2917,43.0,0,480,0.0,0.0
2918,48.0,0,480,0.0,0.0
2919,57.0,240,240,0.0,0.0
2920,55.0,40,240,0.0,0.0
2921,54.0,40,40,0.0,0.0
2922,50.0,240,480,0.0,0.0
2923,55.0,40,40,0.0,0.0
2924,54.0,40,40,0.0,0.0
2925,55.0,40,40,0.0,0.0
2926,54.0,40,40,0.0,0.0
2927,55.0,240,40,0.0,0.0
2928,54.0,240,480,0.0,0.0
2929,50.0,1440,480,0.0,0.0
2930,55.0,0,240,0.0,0.0
2931,55.0,0,1440,0.0,0.0
2932,50.0,0,1440,0.0,0.0
2933,47.0,240,1440,0.0,0.0
2934,43.0,0,1440,0.0,0.0
2935,64.0,0,240,0.0,0.0
2936,43.0,240,240,0.0,0.0
2937,42.0,480,240,0.0,0.0
2938,66.0,0,240,0.0,0.0
2939,40.0,0,480,0.0,0.0
2940,67.0,240,480,0.0,0.0
2941,45.0,480,480,0.0,0.0
2942,66.0,240,240,0.0,0.0
2943,64.0,0,240,0.0,0.0
2944,63.0,240,480,0.0,0.0
2945,47.0,0,480,0.0,0.0
2946,64.0,240,240,0.0,0.0
2947,45.0,480,480,0.0,0.0
2948,66.0,0,240,0.0,0.0
2949,43.0,240,480,0.0,0.0
2950,59.0,0,480,0.0,0.0
2951,42.0,480,480,0.0,0.0
2952,61.0,240,240,0.0,0.0
2953,63.0,0,240,0.0,0.0
2954,40.0,0,480,0.0,0.0
2955,64.0,240,480,0.0,0.0
2956,62.0,240,240,0.0,0.0
2957,42.0,0,480,0.0,0.0
2958,60.0,480,240,0.0,0.0
2959,43.0,0,480,0.0,0.0
2960,59.0,240,480,0.0,0.0
2961,57.0,240,240,0.0,0.0
2962,45.0,480,480,0.0,0.0
2963,55.0,0,240,0.0,0.0
2964,54.0,0,480,0.0,0.0
2965,47.0,240,480,0.0,0.0
2966,45.0,0,480,0.0,0.0
2967,55.0,240,240,0.0,0.0
2968,57.0,240,240,0.0,0.0
2969,59.0,240,240,0.0,0.0
2970,43.0,0,480,0.0,0.0
2971,57.0,240,240,0.0,0.0
2972,55.0,240,240,0.0,0.0
2973,47.0,240,480,0.0,0.0
2974,54.0,0,240,0.0,0.0
2975,40.0,240,240,0.0,0.0
2976,52.0,240,480,0.0,0.0
2977,42.0,0,240,0.0,0.0
2978,43.0,240,240,0.0,0.0
2979,64.0,0,240,0.0,0.0
2980,42.0,0,240,0.0,0.0
2981,66.0,480,240,0.0,0.0
2982,40.0,240,480,0.0,0.0
2983,67.0,0,480,0.0,0.0
2984,45.0,480,480,0.0,0.0
2985,66.0,240,240,0.0,0.0
2986,64.0,0,240,0.0,0.0
2987,47.0,0,480,0.0,0.0
2988,63.0,240,480,0.0,0.0
2989,64.0,240,240,0.0,0.0
2990,45.0,0,480,0.0,0.0
2991,66.0,480,240,0.0,0.0
2992,59.0,0,480,0.0,0.0
2993,43.0,240,480,0.0,0.0
2994,61.0,240,240,0.0,0.0
2995,42.0,480,480,0.0,0.0
2996,63.0,0,240,0.0,0.0
2997,64.0,0,480,0.0,0.0
2998,40.0,240,480,0.0,0.0
2999,42.0,0,480,0.0,0.0
3000,62.0,240,240,0.0,0.0
3001,60.0,480,240,0.0,0.0
3002,59.0,240,480,0.0,0.0
3003,43.0,0,480,0.0,0.0
3004,57.0,240,240,0.0,0.0
3005,48.0,40,480,0.0,0.0
3006,55.0,0,240,0.0,0.0
3007,54.0,40,40,0.0,0.0
3008,50.0,240,480,0.0,0.0
3009,55.0,40,40,0.0,0.0
3010,54.0,40,40,0.0,0.0
3011,55.0,40,40,0.0,0.0
3012,54.0,40,40,0.0,0.0
3013,55.0,240,40,0.0,0.0
3014,54.0,240,480,0.0,0.0
3015,50.0,0,480,0.0,0.0
3016,55.0,1440,240,0.0,0.0
3017,47.0,240,1440,0.0,0.0
3018,50.0,0,1440,0.0,0.0
3019,43.0,0,1440,0.0,0.0
3020,55.0,0,1440,0.0,0.0
3021,59.0,240,240,0.0,0.0
3022,43.0,480,480,0.0,0.0
3023,55.0,0,240,0.0,0.0
3024,42.0,240,480,0.0,0.0
3025,62.0,0,480,0.0,0.0
3026,50.0,480,480,0.0,0.0
3027,57.0,240,240,0.0,0.0
3028,60.0,0,240,0.0,0.0
3029,43.0,0,480,0.0,0.0
3030,59.0,240,480,0.0,0.0
3031,67.0,240,240,0.0,0.0
3032,47.0,0,480,0.0,0.0
3033,62.0,480,240,0.0,0.0
3034,48.0,0,480,0.0,0.0
3035,64.0,240,480,0.0,0.0
3036,44.0,0,480,0.0,0.0
3037,59.0,240,240,0.0,0.0
3038,62.0,480,240,0.0,0.0
3039,45.0,240,480,0.0,0.0
3040,60.0,0,480,0.0,0.0
3041,50.0,0,480,0.0,0.0
3042,59.0,240,240,0.0,0.0
3043,57.0,480,240,0.0,0.0
3044,56.0,240,480,0.0,0.0
3045,52.0,0,480,0.0,0.0
3046,57.0,240,240,0.0,0.0
3047,45.0,480,480,0.0,0.0
3048,59.0,0,240,0.0,0.0
3049,52.0,0,480,0.0,0.0
3050,60.0,240,480,0.0,0.0
3051,59.0,240,240,0.0,0.0
3052,40.0,240,480,0.0,0.0
3053,57.0,0,240,0.0,0.0
3054,57.0,240,1440,0.0,0.0
3055,45.0,240,240,0.0,0.0
3056,47.0,240,240,0.0,0.0
3057,45.0,240,240,0.0,0.0
3058,43.0,480,240,0.0,0.0
3059,42.0,0,480,0.0,0.0
3060,50.0,0,480,0.0,0.0
3061,62.0,240,240,0.0,0.0
3062,57.0,480,240,0.0,0.0
3063,59.0,240,480,0.0,0.0
3064,43.0,0,480,0.0,0.0
3065,67.0,240,240,0.0,0.0
3066,47.0,480,480,0.0,0.0
3067,62.0,0,240,0.0,0.0
3068,48.0,240,480,0.0,0.0
3069,64.0,0,480,0.0,0.0
3070,44.0,480,480,0.0,0.0
3071,59.0,240,240,0.0,0.0
3072,62.0,0,240,0.0,0.0
3073,60.0,240,480,0.0,0.0
3074,45.0,0,480,0.0,0.0
3075,69.0,240,240,0.0,0.0
3076,49.0,0,480,0.0,0.0
3077,64.0,480,240,0.0,0.0
3078,50.0,0,480,0.0,0.0
3079,66.0,240,480,0.0,0.0
3080,61.0,240,240,0.0,0.0
3081,46.0,0,480,0.0,0.0
3082,64.0,480,240,0.0,0.0
3083,62.0,0,480,0.0,0.0
3084,47.0,240,480,0.0,0.0
3085,61.0,240,240,0.0,0.0
3086,52.0,0,480,0.0,0.0
3087,59.0,40,240,0.0,0.0
3088,58.0,40,40,0.0,0.0
3089,54.0,240,480,0.0,0.0
3090,59.0,40,40,0.0,0.0
3091,58.0,40,40,0.0,0.0
3092,59.0,40,40,0.0,0.0
3093,58.0,40,40,0.0,0.0
3094,59.0,240,40,0.0,0.0
3095,58.0,240,480,0.0,0.0
3096,42.0,240,480,0.0,0.0
3097,59.0,0,240,0.0,0.0
3098,47.0,240,240,0.0,0.0
3099,59.0,240,1440,0.0,0.0
3100,46.0,240,240,0.0,0.0
3101,47.0,240,240,0.0,0.0
3102,49.0,480,240,0.0,0.0
3103,51.0,0,480,0.0,0.0
3104,71.0,240,240,0.0,0.0
3105,47.0,480,480,0.0,0.0
3106,66.0,0,240,0.0,0.0
3107,52.0,0,480,0.0,0.0
3108,68.0,240,480,0.0,0.0
3109,66.0,240,240,0.0,0.0
3110,50.0,0,480,0.0,0.0
3111,64.0,480,240,0.0,0.0
3112,49.0,0,480,0.0,0.0
3113,69.0,240,480,0.0,0.0
3114,64.0,240,240,0.0,0.0
3115,45.0,480,480,0.0,0.0
3116,67.0,0,240,0.0,0.0
3117,66.0,0,480,0.0,0.0
3118,50.0,240,480,0.0,0.0
3119,48.0,0,480,0.0,0.0
3120,64.0,240,240,0.0,0.0
3121,62.0,480,240,0.0,0.0
3122,67.0,240,480,0.0,0.0
3123,47.0,0,480,0.0,0.0
3124,62.0,240,240,0.0,0.0
3125,43.0,480,480,0.0,0.0
3126,65.0,0,240,0.0,0.0
3127,48.0,240,480,0.0,0.0
3128,64.0,0,480,0.0,0.0
3129,69.0,240,240,0.0,0.0
3130,47.0,480,480,0.0,0.0
3131,64.0,0,240,0.0,0.0
3132,45.0,0,480,0.0,0.0
3133,66.0,240,480,0.0,0.0
3134,61.0,240,240,0.0,0.0
3135,42.0,480,480,0.0,0.0
3136,64.0,0,240,0.0,0.0
3137,47.0,240,720,0.0,0.0
3138,63.0,240,480,0.0,0.0
3139,59.0,0,960,0.0,0.0
3140,48.0,240,240,0.0,0.0
3141,47.0,240,240,0.0,0.0
3142,45.0,240,240,0.0,0.0
3143,64.0,240,240,0.0,0.0
3144,44.0,0,480,0.0,0.0
3145,59.0,240,240,0.0,0.0
3146,45.0,240,240,0.0,0.0
3147,60.0,240,480,0.0,0.0
3148,52.0,0,240,0.0,0.0
3149,54.0,240,480,0.0,0.0
3150,62.0,240,240,0.0,0.0
3151,57.0,0,240,0.0,0.0
3152,43.0,240,240,0.0,0.0
3153,59.0,0,480,0.0,0.0
3154,51.0,240,240,0.0,0.0
3155,60.0,240,240,0.0,0.0
3156,52.0,0,480,0.0,0.0
3157,55.0,240,240,0.0,0.0
3158,42.0,240,240,0.0,0.0
3159,57.0,0,480,0.0,0.0
3160,49.0,240,240,0.0,0.0
3161,59.0,240,240,0.0,0.0
3162,51.0,0,480,0.0,0.0
3163,54.0,480,240,0.0,0.0
3164,40.0,240,480,0.0,0.0
3165,55.0,0,480,0.0,0.0
3166,45.0,480,480,0.0,0.0
3167,54.0,240,240,0.0,0.0
3168,52.0,0,240,0.0,0.0
3169,47.0,240,480,0.0,0.0
3170,51.0,0,480,0.0,0.0
3171,45.0,480,480,0.0,0.0
3172,52.0,240,240,0.0,0.0
3173,54.0,0,240,0.0,0.0
3174,55.0,240,480,0.0,0.0
3175,47.0,0,960,0.0,0.0
3176,54.0,240,240,0.0,0.0
3177,52.0,1440,240,0.0,0.0
3178,40.0,240,1440,0.0,0.0
3179,52.0,0,1440,0.0,0.0
3180,43.0,0,480,0.0,0.0
3181,59.0,240,240,0.0,0.0
3182,55.0,480,240,0.0,0.0
3183,62.0,240,480,0.0,0.0
3184,42.0,0,480,0.0,0.0
3185,50.0,480,480,0.0,0.0
3186,57.0,240,240,0.0,0.0
3187,60.0,0,240,0.0,0.0
3188,43.0,240,480,0.0,0.0
3189,59.0,0,480,0.0,0.0
3190,47.0,480,480,0.0,0.0
3191,67.0,240,240,0.0,0.0
3192,62.0,0,240,0.0,0.0
3193,64.0,240,480,0.0,0.0
3194,48.0,0,480,0.0,0.0
3195,59.0,240,240,0.0,0.0
3196,44.0,0,480,0.0,0.0
3197,62.0,480,240,0.0,0.0
3198,45.0,0,480,0.0,0.0
3199,60.0,240,480,0.0,0.0
3200,59.0,240,240,0.0,0.0
3201,50.0,0,480,0.0,0.0
3202,57.0,480,240,0.0,0.0
3203,52.0,240,480,0.0,0.0
3204,56.0,0,480,0.0,0.0
3205,45.0,480,480,0.0,0.0
3206,57.0,240,240,0.0,0.0
3207,59.0,0,240,0.0,0.0
3208,52.0,240,480,0.0,0.0
3209,60.0,0,480,0.0,0.0
3210,40.0,0,480,0.0,0.0
3211,59.0,240,240,0.0,0.0
3212,57.0,240,240,0.0,0.0
3213,57.0,240,1440,0.0,0.0
3214,45.0,240,240,0.0,0.0
3215,47.0,240,240,0.0,0.0
3216,45.0,240,240,0.0,0.0
3217,43.0,480,240,0.0,0.0
3218,42.0,0,480,0.0,0.0
3219,50.0,480,480,0.0,0.0
3220,62.0,240,240,0.0,0.0
3221,57.0,0,240,0.0,0.0
3222,59.0,240,480,0.0,0.0
3223,43.0,0,480,0.0,0.0
3224,67.0,240,240,0.0,0.0
3225,47.0,0,480,0.0,0.0
3226,62.0,480,240,0.0,0.0
3227,48.0,0,480,0.0,0.0
3228,64.0,240,480,0.0,0.0
3229,59.0,240,240,0.0,0.0
3230,44.0,0,480,0.0,0.0
3231,62.0,480,240,0.0,0.0
3232,60.0,0,480,0.0,0.0
3233,45.0,240,480,0.0,0.0
3234,69.0,240,240,0.0,0.0
3235,49.0,0,480,0.0,0.0
3236,64.0,480,240,0.0,0.0
3237,66.0,240,480,0.0,0.0
3238,50.0,0,480,0.0,0.0
3239,46.0,0,480,0.0,0.0
3240,61.0,240,240,0.0,0.0
3241,64.0,480,240,0.0,0.0
3242,62.0,240,480,0.0,0.0
3243,47.0,0,480,0.0,0.0
3244,52.0,40,480,0.0,0.0
3245,61.0,240,240,0.0,0.0
3246,59.0,0,240,0.0,0.0
3247,58.0,40,40,0.0,0.0
3248,54.0,240,480,0.0,0.0
3249,59.0,40,40,0.0,0.0
3250,58.0,40,40,0.0,0.0
3251,59.0,40,40,0.0,0.0
3252,58.0,40,40,0.0,0.0
3253,59.0,240,40,0.0,0.0
3254,58.0,240,480,0.0,0.0
3255,42.0,0,480,0.0,0.0
3256,59.0,240,240,0.0,0.0
3257,59.0,240,1440,0.0,0.0
3258,47.0,240,240,0.0,0.0
3259,46.0,240,240,0.0,0.0
3260,47.0,240,240,0.0,0.0
3261,49.0,480,240,0.0,0.0
3262,51.0,0,480,0.0,0.0
3263,47.0,0,480,0.0,0.0
3264,71.0,240,240,0.0,0.0
3265,66.0,480,240,0.0,0.0
3266,68.0,240,480,0.0,0.0
3267,52.0,0,480,0.0,0.0
3268,66.0,240,240,0.0,0.0
3269,50.0,0,480,0.0,0.0
3270,64.0,480,240,0.0,0.0
3271,69.0,240,480,0.0,0.0
3272,49.0,0,480,0.0,0.0
3273,64.0,240,240,0.0,0.0
3274,45.0,0,480,0.0,0.0
3275,67.0,480,240,0.0,0.0
3276,66.0,240,480,0.0,0.0
3277,50.0,0,480,0.0,0.0
3278,48.0,480,480,0.0,0.0
3279,64.0,240,240,0.0,0.0
3280,62.0,0,240,0.0,0.0
3281,47.0,240,480,0.0,0.0
3282,67.0,0,480,0.0,0.0
3283,43.0,480,480,0.0,0.0
3284,62.0,240,240,0.0,0.0
3285,65.0,0,240,0.0,0.0
3286,48.0,240,480,0.0,0.0
3287,64.0,0,480,0.0,0.0
3288,47.0,0,480,0.0,0.0
3289,69.0,240,240,0.0,0.0
3290,64.0,480,240,0.0,0.0
3291,66.0,240,480,0.0,0.0
3292,45.0,0,480,0.0,0.0
3293,61.0,240,240,0.0,0.0
3294,42.0,480,480,0.0,0.0
3295,64.0,0,240,0.0,0.0
3296,63.0,240,480,0.0,0.0
3297,47.0,240,720,0.0,0.0
3298,59.0,240,960,0.0,0.0
3299,48.0,240,240,0.0,0.0
3300,47.0,240,240,0.0,0.0
3301,45.0,0,240,0.0,0.0
3302,64.0,240,240,0.0,0.0
3303,44.0,0,480,0.0,0.0
3304,59.0,240,240,0.0,0.0
3305,60.0,0,480,0.0,0.0
3306,45.0,240,240,0.0,0.0
3307,52.0,240,240,0.0,0.0
3308,62.0,240,240,0.0,0.0
3309,54.0,240,480,0.0,0.0
3310,57.0,0,240,0.0,0.0
3311,59.0,0,480,0.0,0.0
3312,43.0,240,240,0.0,0.0
3313,51.0,240,240,0.0,0.0
3314,60.0,240,240,0.0,0.0
3315,52.0,0,480,0.0,0.0
3316,55.0,240,240,0.0,0.0
3317,42.0,240,240,0.0,0.0
3318,57.0,240,480,0.0,0.0
3319,49.0,0,240,0.0,0.0
3320,51.0,480,480,0.0,0.0
3321,59.0,240,240,0.0,0.0
3322,54.0,0,240,0.0,0.0
3323,40.0,0,480,0.0,0.0
3324,55.0,240,480,0.0,0.0
3325,54.0,240,240,0.0,0.0
3326,45.0,0,480,0.0,0.0
3327,52.0,480,240,0.0,0.0
3328,51.0,240,480,0.0,0.0
3329,47.0,0,480,0.0,0.0
3330,52.0,240,240,0.0,0.0
3331,45.0,0,480,0.0,0.0
3332,54.0,480,240,0.0,0.0
3333,47.0,0,960,0.0,0.0
3334,55.0,240,480,0.0,0.0
3335,54.0,240,240,0.0,0.0
3336,52.0,1440,240,0.0,0.0
3337,52.0,720,1440,0.0,0.0
3338,40.0,0,1440,0.0,0.0
3339,52.0,120,120,0.0,0.0
3340,50.0,120,120,0.0,0.0
3341,48.0,120,120,0.0,0.0
3342,47.0,120,120,0.0,0.0
3343,45.0,480,120,0.0,0.0
3344,43.0,240,480,0.0,0.0
3345,52.0,0,240,0.0,0.0
3346,54.0,120,240,0.0,0.0
3347,40.0,0,240,0.0,0.0
3348,55.0,0,120,0.0,0.0
3349,59.0,120,120,0.0,0.0
3350,42.0,120,240,0.0,0.0
3351,55.0,120,120,0.0,0.0
3352,52.0,0,120,0.0,0.0
3353,43.0,120,240,0.0,0.0
3354,64.0,120,120,0.0,0.0
3355,59.0,0,120,0.0,0.0
3356,45.0,120,240,0.0,0.0
3357,60.0,120,120,0.0,0.0
3358,59.0,0,120,0.0,0.0
3359,47.0,0,240,0.0,0.0
3360,57.0,120,120,0.0,0.0
3361,55.0,120,120,0.0,0.0
3362,54.0,120,120,0.0,0.0
3363,48.0,0,240,0.0,0.0
3364,52.0,120,120,0.0,0.0
3365,51.0,120,120,0.0,0.0
3366,47.0,0,240,0.0,0.0
3367,66.0,120,120,0.0,0.0
3368,63.0,120,120,0.0,0.0
3369,49.0,0,240,0.0,0.0
3370,59.0,120,120,0.0,0.0
3371,71.0,120,120,0.0,0.0
3372,51.0,0,240,0.0,0.0
3373,66.0,120,120,0.0,0.0
3374,52.0,0,240,0.0,0.0
3375,67.0,120,120,0.0,0.0
3376,66.0,120,120,0.0,0.0
3377,54.0,120,240,0.0,0.0
3378,64.0,120,120,0.0,0.0
3379,62.0,0,120,0.0,0.0
3380,55.0,120,240,0.0,0.0
3381,60.0,120,120,0.0,0.0
3382,59.0,0,120,0.0,0.0
3383,57.0,120,120,0.0,0.0
3384,60.0,0,120,0.0,0.0
3385,59.0,0,120,0.0,0.0
3386,62.0,120,120,0.0,0.0
3387,60.0,120,120,0.0,0.0
3388,57.0,0,120,0.0,0.0
3389,55.0,120,120,0.0,0.0
3390,59.0,0,120,0.0,0.0
3391,54.0,120,120,0.0,0.0
3392,57.0,0,120,0.0,0.0
3393,55.0,120,120,0.0,0.0
3394,52.0,0,120,0.0,0.0
3395,57.0,0,120,0.0,0.0
3396,54.0,120,120,0.0,0.0
3397,55.0,0,120,0.0,0.0
3398,59.0,120,120,0.0,0.0
3399,57.0,0,120,0.0,0.0
3400,60.0,120,120,0.0,0.0
3401,55.0,0,120,0.0,0.0
3402,59.0,120,120,0.0,0.0
3403,54.0,120,120,0.0,0.0
3404,57.0,0,120,0.0,0.0
3405,55.0,120,120,0.0,0.0
3406,52.0,0,120,0.0,0.0
3407,54.0,120,480,0.0,0.0
3408,51.0,120,120,0.0,0.0
3409,48.0,120,120,0.0,0.0
3410,47.0,120,120,0.0,0.0
3411,45.0,0,120,0.0,0.0
3412,54.0,120,240,0.0,0.0
3413,43.0,120,120,0.0,0.0
3414,42.0,0,120,0.0,0.0
3415,40.0,120,120,0.0,0.0
3416,55.0,0,480,0.0,0.0
3417,52.0,120,480,0.0,0.0
3418,47.0,120,120,0.0,0.0
3419,43.0,120,120,0.0,0.0
3420,40.0,0,120,0.0,0.0
3421,52.0,120,120,0.0,0.0
3422,56.0,0,240,0.0,0.0
3423,47.0,120,120,0.0,0.0
3424,57.0,120,480,0.0,0.0
3425,48.0,120,120,0.0,0.0
3426,52.0,120,120,0.0,0.0
3427,48.0,120,120,0.0,0.0
3428,46.0,0,120,0.0,0.0
3429,58.0,0,240,0.0,0.0
3430,54.0,120,120,0.0,0.0
3431,49.0,120,120,0.0,0.0
3432,59.0,120,120,0.0,0.0
3433,50.0,0,240,0.0,0.0
3434,60.0,120,120,0.0,0.0
3435,59.0,120,120,0.0,0.0
3436,49.0,120,240,0.0,0.0
3437,57.0,0,120,0.0,0.0
3438,51.0,120,240,0.0,0.0
3439,55.0,120,120,0.0,0.0
3440,54.0,0,120,0.0,0.0
3441,55.0,120,120,0.0,0.0
3442,52.0,0,240,0.0,0.0
3443,57.0,120,120,0.0,0.0
3444,64.0,0,240,0.0,0.0
3445,55.0,120,120,0.0,0.0
3446,54.0,120,120,0.0,0.0
3447,66.0,0,240,0.0,0.0
3448,52.0,120,120,0.0,0.0
3449,51.0,120,120,0.0,0.0
3450,52.0,120,240,0.0,0.0
3451,67.0,120,120,0.0,0.0
3452,69.0,0,120,0.0,0.0
3453,67.0,120,120,0.0,0.0
3454,54.0,120,240,0.0,0.0
3455,66.0,0,120,0.0,0.0
3456,55.0,0,240,0.0,0.0
3457,64.0,120,120,0.0,0.0
3458,62.0,120,120,0.0,0.0
3459,57.0,120,120,0.0,0.0
3460,61.0,120,240,0.0,0.0
3461,59.0,0,120,0.0,0.0
3462,57.0,120,120,0.0,0.0
3463,62.0,120,240,0.0,0.0
3464,55.0,0,120,0.0,0.0
3465,54.0,120,120,0.0,0.0
3466,64.0,0,240,0.0,0.0
3467,52.0,120,120,0.0,0.0
3468,66.0,120,120,0.0,0.0
3469,50.0,120,240,0.0,0.0
3470,67.0,0,120,0.0,0.0
3471,66.0,120,120,0.0,0.0
3472,52.0,120,240,0.0,0.0
3473,64.0,0,120,0.0,0.0
3474,54.0,0,240,0.0,0.0
3475,62.0,120,120,0.0,0.0
3476,60.0,120,120,0.0,0.0
3477,59.0,120,120,0.0,0.0
3478,55.0,0,360,0.0,0.0
3479,62.0,120,120,0.0,0.0
3480,59.0,120,120,0.0,0.0
3481,55.0,120,120,0.0,0.0
3482,59.0,240,240,0.0,0.0
3483,67.0,120,120,0.0,0.0
3484,62.0,0,120,0.0,0.0
3485,60.0,120,480,0.0,0.0
3486,64.0,0,480,0.0,0.0
3487,55.0,120,120,0.0,0.0
3488,52.0,120,120,0.0,0.0
3489,48.0,0,120,0.0,0.0
3490,60.0,120,120,0.0,0.0
3491,55.0,240,120,0.0,0.0
3492,45.0,0,480,0.0,0.0
3493,64.0,120,120,0.0,0.0
3494,61.0,120,120,0.0,0.0
3495,57.0,120,120,0.0,0.0
3496,49.0,240,240,0.0,0.0
3497,69.0,120,120,0.0,0.0
3498,64.0,0,120,0.0,0.0
3499,66.0,0,480,0.0,0.0
3500,62.0,0,480,0.0,0.0
3501,57.0,120,120,0.0,0.0
3502,54.0,120,120,0.0,0.0
3503,50.0,120,120,0.0,0.0
3504,62.0,120,120,0.0,0.0
3505,57.0,120,120,0.0,0.0
3506,51.0,120,120,0.0,0.0
3507,47.0,0,240,0.0,0.0
3508,62.0,120,120,0.0,0.0
3509,59.0,120,120,0.0,0.0
3510,45.0,120,240,0.0,0.0
3511,55.0,0,120,0.0,0.0
3512,67.0,120,120,0.0,0.0
3513,47.0,0,240,0.0,0.0
3514,62.0,0,120,0.0,0.0
3515,64.0,120,120,0.0,0.0
3516,48.0,0,240,0.0,0.0
3517,62.0,120,120,0.0,0.0
3518,50.0,120,240,0.0,0.0
3519,60.0,120,120,0.0,0.0
3520,59.0,0,120,0.0,0.0
3521,52.0,0,240,0.0,0.0
3522,57.0,120,120,0.0,0.0
3523,55.0,120,120,0.0,0.0
3524,54.0,0,240,0.0,0.0
3525,50.0,120,120,0.0,0.0
3526,52.0,120,120,0.0,0.0
3527,50.0,120,120,0.0,0.0
3528,55.0,120,240,0.0,0.0
3529,48.0,0,120,0.0,0.0
3530,47.0,120,120,0.0,0.0
3531,57.0,0,240,0.0,0.0
3532,45.0,120,120,0.0,0.0
3533,55.0,120,120,0.0,0.0
3534,43.0,120,240,0.0,0.0
3535,59.0,0,240,0.0,0.0
3536,57.0,0,120,0.0,0.0
3537,60.0,120,240,0.0,0.0
3538,55.0,120,120,0.0,0.0
3539,53.0,0,120,0.0,0.0
3540,52.0,120,120,0.0,0.0
3541,62.0,120,240,0.0,0.0
3542,50.0,0,120,0.0,0.0
3543,64.0,120,120,0.0,0.0
3544,48.0,120,240,0.0,0.0
3545,60.0,0,120,0.0,0.0
3546,67.0,0,120,0.0,0.0
3547,50.0,120,240,0.0,0.0
3548,72.0,120,120,0.0,0.0
3549,71.0,0,120,0.0,0.0
3550,69.0,120,120,0.0,0.0
3551,52.0,0,240,0.0,0.0
3552,67.0,120,120,0.0,0.0
3553,66.0,120,120,0.0,0.0
3554,50.0,120,240,0.0,0.0
3555,67.0,0,120,0.0,0.0
3556,40.0,120,240,0.0,0.0
3557,66.0,120,120,0.0,0.0
3558,64.0,0,120,0.0,0.0
3559,42.0,120,240,0.0,0.0
3560,62.0,120,120,0.0,0.0
3561,60.0,0,120,0.0,0.0
3562,43.0,120,120,0.0,0.0
3563,59.0,0,480,0.0,0.0
3564,47.0,120,120,0.0,0.0
3565,43.0,120,120,0.0,0.0
3566,40.0,120,120,0.0,0.0
3567,52.0,120,120,0.0,0.0
3568,59.0,120,240,0.0,0.0
3569,55.0,0,240,0.0,0.0
3570,47.0,0,120,0.0,0.0
3571,48.0,120,120,0.0,0.0
3572,57.0,120,480,0.0,0.0
3573,52.0,120,120,0.0,0.0
3574,48.0,120,120,0.0,0.0
3575,45.0,0,120,0.0,0.0
3576,50.0,120,120,0.0,0.0
3577,57.0,0,240,0.0,0.0
3578,54.0,120,240,0.0,0.0
3579,50.0,0,120,0.0,0.0
3580,43.0,120,480,0.0,0.0
3581,55.0,120,120,0.0,0.0
3582,59.0,120,120,0.0,0.0
3583,57.0,120,120,0.0,0.0
3584,55.0,0,120,0.0,0.0
3585,43.0,0,240,0.0,0.0
3586,54.0,120,120,0.0,0.0
3587,52.0,120,120,0.0,0.0
3588,45.0,120,240,0.0,0.0
3589,60.0,120,120,0.0,0.0
3590,59.0,0,120,0.0,0.0
3591,57.0,120,120,0.0,0.0
3592,47.0,120,240,0.0,0.0
3593,55.0,0,120,0.0,0.0
3594,54.0,120,120,0.0,0.0
3595,48.0,0,240,0.0,0.0
3596,52.0,120,120,0.0,0.0
3597,51.0,120,120,0.0,0.0
3598,47.0,0,240,0.0,0.0
3599,66.0,0,120,0.0,0.0
3600,49.0,0,240,0.0,0.0
3601,64.0,120,120,0.0,0.0
3602,63.0,120,120,0.0,0.0
3603,51.0,0,240,0.0,0.0
3604,61.0,120,120,0.0,0.0
3605,59.0,120,120,0.0,0.0
3606,67.0,120,120,0.0,0.0
3607,52.0,0,240,0.0,0.0
3608,66.0,120,120,0.0,0.0
3609,54.0,120,240,0.0,0.0
3610,64.0,120,120,0.0,0.0
3611,62.0,0,120,0.0,0.0
3612,55.0,120,240,0.0,0.0
3613,60.0,120,120,0.0,0.0
3614,59.0,0,120,0.0,0.0
3615,54.0,120,360,0.0,0.0
3616,58.0,120,120,0.0,0.0
3617,61.0,120,120,0.0,0.0
3618,58.0,0,120,0.0,0.0
3619,54.0,120,120,0.0,0.0
3620,58.0,0,240,0.0,0.0
3621,66.0,120,120,0.0,0.0
3622,61.0,120,120,0.0,0.0
3623,59.0,120,120,0.0,0.0
3624,62.0,120,480,0.0,0.0
3625,54.0,120,120,0.0,0.0
3626,50.0,120,120,0.0,0.0
3627,47.0,0,120,0.0,0.0
3628,63.0,120,240,0.0,0.0
3629,59.0,120,120,0.0,0.0
3630,54.0,0,120,0.0,0.0
3631,55.0,120,120,0.0,0.0
3632,59.0,0,120,0.0,0.0
3633,64.0,0,120,0.0,0.0
3634,54.0,120,120,0.0,0.0
3635,63.0,0,120,0.0,0.0
3636,64.0,120,120,0.0,0.0
3637,59.0,0,120,0.0,0.0
3638,55.0,0,120,0.0,0.0
3639,63.0,0,120,0.0,0.0
3640,54.0,120,120,0.0,0.0
3641,64.0,0,120,0.0,0.0
3642,55.0,120,120,0.0,0.0
3643,59.0,0,120,0.0,0.0
3644,54.0,0,120,0.0,0.0
3645,66.0,240,120,0.0,0.0
3646,59.0,120,480,0.0,0.0
3647,52.0,240,240,0.0,0.0
3648,67.0,0,240,0.0,0.0
3649,54.0,0,240,0.0,0.0
3650,61.0,120,360,0.0,0.0
3651,42.0,0,240,0.0,0.0
3652,58.0,120,240,0.0,0.0
3653,59.0,0,120,0.0,0.0
3654,47.0,120,240,0.0,0.0
3655,59.0,120,120,0.0,0.0
3656,54.0,0,120,0.0,0.0
3657,51.0,120,120,0.0,0.0
3658,47.0,120,240,0.0,0.0
3659,54.0,0,120,0.0,0.0
3660,47.0,120,240,0.0,0.0
3661,59.0,120,120,0.0,0.0
3662,54.0,0,120,0.0,0.0
3663,47.0,0,240,0.0,0.0
3664,55.0,120,120,0.0,0.0
3665,52.0,120,120,0.0,0.0
3666,55.0,120,120,0.0,0.0
3667,47.0,120,240,0.0,0.0
3668,59.0,0,120,0.0,0.0
3669,47.0,120,240,0.0,0.0
3670,64.0,120,120,0.0,0.0
3671,58.0,0,120,0.0,0.0
3672,51.0,120,120,0.0,0.0
3673,47.0,0,480,0.0,0.0
3674,59.0,0,480,0.0,0.0
3675,64.0,0,120,0.0,0.0
3676,55.0,120,120,0.0,0.0
3677,57.0,0,120,0.0,0.0
3678,66.0,120,120,0.0,0.0
3679,64.0,120,120,0.0,0.0
3680,55.0,0,120,0.0,0.0
3681,54.0,0,120,0.0,0.0
3682,63.0,120,120,0.0,0.0
3683,52.0,720,120,0.0,0.0
3684,61.0,0,120,0.0,0.0
3685,47.0,0,720,0.0,0.0
3686,54.0,240,720,0.0,0.0
3687,63.0,0,720,0.0,0.0
3688,59.0,0,720,0.0,0.0
3689,52.0,120,120,0.0,0.0
3690,50.0,120,120,0.0,0.0
3691,48.0,120,120,0.0,0.0
3692,47.0,120,120,0.0,0.0
3693,45.0,480,120,0.0,0.0
3694,43.0,240,480,0.0,0.0
3695,52.0,0,240,0.0,0.0
3696,54.0,120,240,0.0,0.0
3697,55.0,0,120,0.0,0.0
3698,40.0,120,240,0.0,0.0
3699,59.0,0,120,0.0,0.0
3700,55.0,120,120,0.0,0.0
3701,42.0,120,240,0.0,0.0
3702,52.0,0,120,0.0,0.0
3703,43.0,120,240,0.0,0.0
3704,64.0,120,120,0.0,0.0
3705,59.0,0,120,0.0,0.0
3706,45.0,120,240,0.0,0.0
3707,60.0,120,120,0.0,0.0
3708,59.0,0,120,0.0,0.0
3709,57.0,120,120,0.0,0.0
3710,47.0,120,240,0.0,0.0
3711,55.0,0,120,0.0,0.0
3712,48.0,0,240,0.0,0.0
3713,54.0,120,120,0.0,0.0
3714,52.0,120,120,0.0,0.0
3715,51.0,120,120,0.0,0.0
3716,47.0,120,240,0.0,0.0
3717,66.0,0,120,0.0,0.0
3718,63.0,120,120,0.0,0.0
3719,49.0,120,240,0.0,0.0
3720,59.0,0,120,0.0,0.0
3721,71.0,120,120,0.0,0.0
3722,51.0,0,240,0.0,0.0
3723,66.0,120,120,0.0,0.0
3724,67.0,120,120,0.0,0.0
3725,52.0,120,240,0.0,0.0
3726,66.0,0,120,0.0,0.0
3727,54.0,0,240,0.0,0.0
3728,64.0,120,120,0.0,0.0
3729,62.0,120,120,0.0,0.0
3730,55.0,120,240,0.0,0.0
3731,60.0,120,120,0.0,0.0
3732,59.0,0,120,0.0,0.0
3733,60.0,0,120,0.0,0.0
3734,57.0,120,120,0.0,0.0
3735,59.0,0,120,0.0,0.0
3736,62.0,120,120,0.0,0.0
3737,57.0,0,120,0.0,0.0
3738,60.0,120,120,0.0,0.0
3739,55.0,120,120,0.0,0.0
3740,59.0,0,120,0.0,0.0
3741,57.0,120,120,0.0,0.0
3742,54.0,0,120,0.0,0.0
3743,55.0,0,120,0.0,0.0
3744,52.0,120,120,0.0,0.0
3745,54.0,120,120,0.0,0.0
3746,57.0,0,120,0.0,0.0
3747,55.0,120,120,0.0,0.0
3748,59.0,0,120,0.0,0.0
3749,60.0,0,120,0.0,0.0
3750,57.0,120,120,0.0,0.0
3751,59.0,0,120,0.0,0.0
3752,55.0,120,120,0.0,0.0
3753,54.0,0,120,0.0,0.0
3754,57.0,120,120,0.0,0.0
3755,55.0,120,120,0.0,0.0
3756,52.0,0,120,0.0,0.0
3757,54.0,120,480,0.0,0.0
3758,51.0,120,120,0.0,0.0
3759,48.0,120,120,0.0,0.0
3760,47.0,120,120,0.0,0.0
3761,45.0,0,120,0.0,0.0
3762,43.0,120,120,0.0,0.0
3763,54.0,120,240,0.0,0.0
3764,42.0,0,120,0.0,0.0
3765,55.0,0,480,0.0,0.0
3766,40.0,120,120,0.0,0.0
3767,52.0,0,480,0.0,0.0
3768,47.0,120,120,0.0,0.0
3769,43.0,120,120,0.0,0.0
3770,40.0,120,120,0.0,0.0
3771,56.0,120,240,0.0,0.0
3772,52.0,120,120,0.0,0.0
3773,47.0,0,120,0.0,0.0
3774,57.0,120,480,0.0,0.0
3775,48.0,120,120,0.0,0.0
3776,52.0,120,120,0.0,0.0
3777,48.0,120,120,0.0,0.0
3778,46.0,0,120,0.0,0.0
3779,54.0,120,120,0.0,0.0
3780,58.0,0,240,0.0,0.0
3781,49.0,120,120,0.0,0.0
3782,50.0,120,240,0.0,0.0
3783,59.0,120,120,0.0,0.0
3784,60.0,0,120,0.0,0.0
3785,49.0,0,240,0.0,0.0
3786,59.0,120,120,0.0,0.0
3787,57.0,120,120,0.0,0.0
3788,55.0,120,120,0.0,0.0
3789,51.0,0,240,0.0,0.0
3790,54.0,120,120,0.0,0.0
3791,52.0,0,240,0.0,0.0
3792,55.0,120,120,0.0,0.0
3793,57.0,120,120,0.0,0.0
3794,64.0,0,240,0.0,0.0
3795,55.0,120,120,0.0,0.0
3796,54.0,120,120,0.0,0.0
3797,52.0,120,120,0.0,0.0
3798,66.0,120,240,0.0,0.0
3799,51.0,0,120,0.0,0.0
3800,67.0,120,120,0.0,0.0
3801,52.0,120,240,0.0,0.0
3802,69.0,0,120,0.0,0.0
3803,54.0,0,240,0.0,0.0
3804,67.0,120,120,0.0,0.0
3805,66.0,120,120,0.0,0.0
3806,55.0,120,240,0.0,0.0
3807,64.0,120,120,0.0,0.0
3808,62.0,0,120,0.0,0.0
3809,57.0,120,120,0.0,0.0
3810,61.0,120,240,0.0,0.0
3811,59.0,0,120,0.0,0.0
3812,57.0,120,120,0.0,0.0
3813,62.0,0,240,0.0,0.0
3814,55.0,120,120,0.0,0.0
3815,64.0,120,240,0.0,0.0
3816,54.0,120,120,0.0,0.0
3817,52.0,0,120,0.0,0.0
3818,66.0,120,120,0.0,0.0
3819,50.0,0,240,0.0,0.0
3820,67.0,120,120,0.0,0.0
3821,52.0,120,240,0.0,0.0
3822,66.0,120,120,0.0,0.0
3823,64.0,0,120,0.0,0.0
3824,54.0,0,240,0.0,0.0
3825,62.0,120,120,0.0,0.0
3826,60.0,120,120,0.0,0.0
3827,59.0,120,120,0.0,0.0
3828,55.0,0,360,0.0,0.0
3829,62.0,120,120,0.0,0.0
3830,59.0,120,120,0.0,0.0
3831,55.0,120,120,0.0,0.0
3832,59.0,0,240,0.0,0.0
3833,67.0,120,120,0.0,0.0
3834,62.0,240,120,0.0,0.0
3835,64.0,0,480,0.0,0.0
3836,60.0,0,480,0.0,0.0
3837,55.0,120,120,0.0,0.0
3838,52.0,120,120,0.0,0.0
3839,48.0,120,120,0.0,0.0
3840,60.0,120,120,0.0,0.0
3841,55.0,240,120,0.0,0.0
3842,45.0,120,480,0.0,0.0
3843,64.0,120,120,0.0,0.0
3844,61.0,120,120,0.0,0.0
3845,57.0,0,120,0.0,0.0
3846,49.0,240,240,0.0,0.0
3847,69.0,120,120,0.0,0.0
3848,64.0,0,120,0.0,0.0
3849,62.0,0,480,0.0,0.0
3850,66.0,120,480,0.0,0.0
3851,57.0,120,120,0.0,0.0
3852,54.0,120,120,0.0,0.0
3853,50.0,0,120,0.0,0.0
3854,62.0,120,120,0.0,0.0
3855,57.0,120,120,0.0,0.0
3856,47.0,120,240,0.0,0.0
3857,51.0,120,120,0.0,0.0
3858,62.0,0,120,0.0,0.0
3859,45.0,120,240,0.0,0.0
3860,59.0,120,120,0.0,0.0
3861,55.0,0,120,0.0,0.0
3862,47.0,0,240,0.0,0.0
3863,67.0,120,120,0.0,0.0
3864,62.0,120,120,0.0,0.0
3865,64.0,120,120,0.0,0.0
3866,48.0,0,240,0.0,0.0
3867,62.0,120,120,0.0,0.0
3868,50.0,0,240,0.0,0.0
3869,60.0,120,120,0.0,0.0
3870,59.0,120,120,0.0,0.0
3871,52.0,0,240,0.0,0.0
3872,57.0,120,120,0.0,0.0
3873,55.0,120,120,0.0,0.0
3874,54.0,0,240,0.0,0.0
3875,50.0,120,120,0.0,0.0
3876,52.0,120,120,0.0,0.0
3877,50.0,120,120,0.0,0.0
3878,55.0,120,240,0.0,0.0
3879,48.0,0,120,0.0,0.0
3880,57.0,120,240,0.0,0.0
3881,47.0,120,120,0.0,0.0
3882,45.0,0,120,0.0,0.0
3883,43.0,120,240,0.0,0.0
3884,55.0,120,120,0.0,0.0
3885,59.0,0,240,0.0,0.0
3886,57.0,0,120,0.0,0.0
3887,60.0,120,240,0.0,0.0
3888,55.0,120,120,0.0,0.0
3889,53.0,0,120,0.0,0.0
3890,52.0,120,120,0.0,0.0
3891,62.0,120,240,0.0,0.0
3892,50.0,0,120,0.0,0.0
3893,48.0,0,240,0.0,0.0
3894,64.0,120,120,0.0,0.0
3895,60.0,0,120,0.0,0.0
3896,67.0,120,120,0.0,0.0
3897,72.0,120,120,0.0,0.0
3898,50.0,0,240,0.0,0.0
3899,71.0,120,120,0.0,0.0
3900,52.0,120,240,0.0,0.0
3901,69.0,120,120,0.0,0.0
3902,67.0,0,120,0.0,0.0
3903,50.0,120,240,0.0,0.0
3904,66.0,120,120,0.0,0.0
3905,67.0,0,120,0.0,0.0
3906,40.0,120,240,0.0,0.0
3907,66.0,120,120,0.0,0.0
3908,64.0,0,120,0.0,0.0
3909,42.0,0,240,0.0,0.0
3910,62.0,120,120,0.0,0.0
3911,60.0,120,120,0.0,0.0
3912,59.0,120,480,0.0,0.0
3913,43.0,120,120,0.0,0.0
3914,47.0,120,120,0.0,0.0
3915,43.0,120,120,0.0,0.0
3916,40.0,0,120,0.0,0.0
3917,52.0,120,120,0.0,0.0
3918,55.0,120,240,0.0,0.0
3919,59.0,0,240,0.0,0.0
3920,47.0,0,120,0.0,0.0
3921,48.0,120,120,0.0,0.0
3922,57.0,0,480,0.0,0.0
3923,52.0,120,120,0.0,0.0
3924,48.0,120,120,0.0,0.0
3925,45.0,120,120,0.0,0.0
3926,54.0,0,240,0.0,0.0
3927,50.0,120,120,0.0,0.0
3928,57.0,120,240,0.0,0.0
3929,50.0,0,120,0.0,0.0
3930,43.0,120,480,0.0,0.0
3931,55.0,120,120,0.0,0.0
3932,59.0,120,120,0.0,0.0
3933,57.0,120,120,0.0,0.0
3934,55.0,0,120,0.0,0.0
3935,54.0,120,120,0.0,0.0
3936,43.0,120,240,0.0,0.0
3937,52.0,0,120,0.0,0.0
3938,45.0,120,240,0.0,0.0
3939,60.0,120,120,0.0,0.0
3940,59.0,0,120,0.0,0.0
3941,47.0,0,240,0.0,0.0
3942,57.0,120,120,0.0,0.0
3943,55.0,120,120,0.0,0.0
3944,48.0,0,240,0.0,0.0
3945,54.0,120,120,0.0,0.0
3946,52.0,120,120,0.0,0.0
3947,51.0,120,120,0.0,0.0
3948,47.0,0,240,0.0,0.0
3949,66.0,0,120,0.0,0.0
3950,49.0,0,240,0.0,0.0
3951,64.0,120,120,0.0,0.0
3952,63.0,120,120,0.0,0.0
3953,51.0,120,240,0.0,0.0
3954,61.0,120,120,0.0,0.0
3955,59.0,0,120,0.0,0.0
3956,67.0,120,120,0.0,0.0
3957,52.0,120,240,0.0,0.0
3958,66.0,0,120,0.0,0.0
3959,54.0,120,240,0.0,0.0
3960,64.0,120,120,0.0,0.0
3961,62.0,0,120,0.0,0.0
3962,55.0,0,240,0.0,0.0
3963,60.0,120,120,0.0,0.0
3964,59.0,120,120,0.0,0.0
3965,58.0,120,120,0.0,0.0
3966,54.0,120,360,0.0,0.0
3967,61.0,120,120,0.0,0.0
3968,58.0,0,120,0.0,0.0
3969,54.0,120,120,0.0,0.0
3970,58.0,120,240,0.0,0.0
3971,66.0,120,120,0.0,0.0
3972,61.0,0,120,0.0,0.0
3973,62.0,0,480,0.0,0.0
3974,59.0,120,120,0.0,0.0
3975,54.0,120,120,0.0,0.0
3976,50.0,120,120,0.0,0.0
3977,47.0,120,120,0.0,0.0
3978,63.0,120,240,0.0,0.0
3979,59.0,120,120,0.0,0.0
3980,54.0,0,120,0.0,0.0
3981,64.0,0,120,0.0,0.0
3982,59.0,0,120,0.0,0.0
3983,55.0,120,120,0.0,0.0
3984,54.0,0,120,0.0,0.0
3985,63.0,120,120,0.0,0.0
3986,59.0,120,120,0.0,0.0
3987,55.0,0,120,0.0,0.0
3988,64.0,0,120,0.0,0.0
3989,54.0,120,120,0.0,0.0
3990,63.0,0,120,0.0,0.0
3991,55.0,0,120,0.0,0.0
3992,59.0,120,120,0.0,0.0
3993,64.0,0,120,0.0,0.0
3994,54.0,240,120,0.0,0.0
3995,66.0,0,120,0.0,0.0
3996,67.0,240,240,0.0,0.0
3997,59.0,120,480,0.0,0.0
3998,52.0,0,240,0.0,0.0
3999,54.0,0,240,0.0,0.0
4000,61.0,120,360,0.0,0.0
4001,42.0,0,240,0.0,0.0
4002,58.0,120,240,0.0,0.0
4003,59.0,0,120,0.0,0.0
4004,47.0,120,240,0.0,0.0
4005,59.0,120,120,0.0,0.0
4006,54.0,0,120,0.0,0.0
4007,47.0,0,240,0.0,0.0
4008,51.0,120,120,0.0,0.0
4009,54.0,120,120,0.0,0.0
4010,59.0,120,120,0.0,0.0
4011,47.0,120,240,0.0,0.0
4012,54.0,0,120,0.0,0.0
4013,55.0,120,120,0.0,0.0
4014,47.0,0,240,0.0,0.0
4015,52.0,120,120,0.0,0.0
4016,47.0,120,240,0.0,0.0
4017,55.0,120,120,0.0,0.0
4018,59.0,0,120,0.0,0.0
4019,47.0,0,240,0.0,0.0
4020,64.0,120,120,0.0,0.0
4021,58.0,120,120,0.0,0.0
4022,51.0,120,120,0.0,0.0
4023,59.0,0,480,0.0,0.0
4024,47.0,0,480,0.0,0.0
4025,55.0,120,120,0.0,0.0
4026,64.0,0,120,0.0,0.0
4027,57.0,0,120,0.0,0.0
4028,66.0,120,120,0.0,0.0
4029,64.0,0,120,0.0,0.0
4030,55.0,120,120,0.0,0.0
4031,54.0,0,120,0.0,0.0
4032,63.0,120,120,0.0,0.0
4033,52.0,720,120,0.0,0.0
4034,61.0,0,120,0.0,0.0
4035,54.0,0,720,0.0,0.0
4036,47.0,0,720,0.0,0.0
4037,59.0,240,720,0.0,0.0
4038,63.0,0,720,0.0,0.0
4039,47.0,120,120,0.0,0.0
4040,49.0,120,120,0.0,0.0
4041,51.0,120,120,0.0,0.0
4042,52.0,120,120,0.0,0.0
4043,54.0,120,120,0.0,0.0
4044,51.0,120,120,0.0,0.0
4045,55.0,0,480,0.0,0.0
4046,40.0,120,120,0.0,0.0
4047,42.0,120,120,0.0,0.0
4048,43.0,120,120,0.0,0.0
4049,45.0,120,120,0.0,0.0
4050,54.0,120,240,0.0,0.0
4051,47.0,0,120,0.0,0.0
4052,48.0,120,480,0.0,0.0
4053,51.0,120,120,0.0,0.0
4054,52.0,0,480,0.0,0.0
4055,64.0,120,120,0.0,0.0
4056,66.0,120,120,0.0,0.0
4057,67.0,0,120,0.0,0.0
4058,69.0,120,120,0.0,0.0
4059,47.0,120,240,0.0,0.0
4060,71.0,0,120,0.0,0.0
4061,45.0,120,120,0.0,0.0
4062,72.0,120,240,0.0,0.0
4063,54.0,0,120,0.0,0.0
4064,55.0,120,120,0.0,0.0
4065,71.0,120,240,0.0,0.0
4066,57.0,0,120,0.0,0.0
4067,59.0,120,120,0.0,0.0
4068,67.0,120,240,0.0,0.0
4069,60.0,0,120,0.0,0.0
4070,69.0,120,720,0.0,0.0
4071,62.0,120,120,0.0,0.0
4072,67.0,120,120,0.0,0.0
4073,66.0,120,120,0.0,0.0
4074,64.0,120,120,0.0,0.0
4075,62.0,120,120,0.0,0.0
4076,60.0,0,120,0.0,0.0
4077,51.0,120,120,0.0,0.0
4078,59.0,0,480,0.0,0.0
4079,62.0,120,120,0.0,0.0
4080,64.0,120,120,0.0,0.0
4081,66.0,120,120,0.0,0.0
4082,67.0,120,120,0.0,0.0
4083,57.0,120,240,0.0,0.0
4084,69.0,0,120,0.0,0.0
4085,71.0,120,120,0.0,0.0
4086,55.0,0,480,0.0,0.0
4087,59.0,120,120,0.0,0.0
4088,60.0,120,120,0.0,0.0
4089,62.0,120,120,0.0,0.0
4090,54.0,0,240,0.0,0.0
4091,64.0,120,120,0.0,0.0
4092,66.0,120,120,0.0,0.0
4093,67.0,120,480,0.0,0.0
4094,52.0,120,120,0.0,0.0
4095,55.0,120,120,0.0,0.0
4096,59.0,120,120,0.0,0.0
4097,64.0,0,120,0.0,0.0
4098,57.0,120,120,0.0,0.0
4099,67.0,0,240,0.0,0.0
4100,60.0,120,120,0.0,0.0
4101,50.0,120,120,0.0,0.0
4102,66.0,0,480,0.0,0.0
4103,54.0,120,120,0.0,0.0
4104,57.0,120,120,0.0,0.0
4105,62.0,120,120,0.0,0.0
4106,66.0,120,240,0.0,0.0
4107,55.0,120,120,0.0,0.0
4108,59.0,0,120,0.0,0.0
4109,48.0,120,120,0.0,0.0
4110,64.0,0,480,0.0,0.0
4111,52.0,120,120,0.0,0.0
4112,55.0,120,120,0.0,0.0
4113,60.0,120,120,0.0,0.0
4114,54.0,120,120,0.0,0.0
4115,64.0,0,240,0.0,0.0
4116,57.0,120,120,0.0,0.0
4117,47.0,120,120,0.0,0.0
4118,63.0,120,480,0.0,0.0
4119,51.0,120,120,0.0,0.0
4120,54.0,120,120,0.0,0.0
4121,59.0,0,120,0.0,0.0
4122,52.0,120,120,0.0,0.0
4123,62.0,0,240,0.0,0.0
4124,56.0,120,120,0.0,0.0
4125,45.0,120,120,0.0,0.0
4126,61.0,0,480,0.0,0.0
4127,49.0,120,120,0.0,0.0
4128,52.0,120,120,0.0,0.0
4129,57.0,120,120,0.0,0.0
4130,60.0,120,240,0.0,0.0
4131,50.0,120,120,0.0,0.0
4132,54.0,0,120,0.0,0.0
4133,59.0,120,120,0.0,0.0
4134,43.0,120,240,0.0,0.0
4135,55.0,0,120,0.0,0.0
4136,57.0,120,120,0.0,0.0
4137,59.0,120,120,0.0,0.0
4138,43.0,0,120,0.0,0.0
4139,60.0,120,120,0.0,0.0
4140,45.0,0,120,0.0,0.0
4141,47.0,0,120,0.0,0.0
4142,62.0,120,120,0.0,0.0
4143,48.0,120,120,0.0,0.0
4144,64.0,0,120,0.0,0.0
4145,47.0,120,120,0.0,0.0
4146,62.0,0,120,0.0,0.0
4147,48.0,120,120,0.0,0.0
4148,64.0,0,120,0.0,0.0
4149,50.0,120,120,0.0,0.0
4150,66.0,0,120,0.0,0.0
4151,52.0,120,120,0.0,0.0
4152,67.0,0,120,0.0,0.0
4153,54.0,120,120,0.0,0.0
4154,69.0,0,120,0.0,0.0
4155,55.0,0,120,0.0,0.0
4156,71.0,120,120,0.0,0.0
4157,57.0,0,120,0.0,0.0
4158,54.0,120,120,0.0,0.0
4159,59.0,0,120,0.0,0.0
4160,55.0,0,120,0.0,0.0
4161,57.0,120,120,0.0,0.0
4162,60.0,0,120,0.0,0.0
4163,59.0,120,120,0.0,0.0
4164,62.0,0,120,0.0,0.0
4165,43.0,120,120,0.0,0.0
4166,48.0,0,120,0.0,0.0
4167,55.0,120,120,0.0,0.0
4168,64.0,0,240,0.0,0.0
4169,40.0,120,120,0.0,0.0
4170,45.0,120,120,0.0,0.0
4171,57.0,120,360,0.0,0.0
4172,48.0,120,120,0.0,0.0
4173,50.0,120,240,0.0,0.0
4174,54.0,0,240,0.0,0.0
4175,55.0,0,120,0.0,0.0
4176,43.0,120,480,0.0,0.0
4177,55.0,120,120,0.0,0.0
4178,59.0,120,120,0.0,0.0
4179,62.0,120,120,0.0,0.0
4180,67.0,0,120,0.0,0.0
4181,47.0,120,240,0.0,0.0
4182,55.0,120,120,0.0,0.0
4183,66.0,0,120,0.0,0.0
4184,64.0,0,480,0.0,0.0
4185,48.0,120,120,0.0,0.0
4186,60.0,0,360,0.0,0.0
4187,52.0,120,120,0.0,0.0
4188,55.0,120,120,0.0,0.0
4189,60.0,120,120,0.0,0.0
4190,48.0,120,120,0.0,0.0
4191,55.0,120,120,0.0,0.0
4192,49.0,120,480,0.0,0.0
4193,57.0,120,120,0.0,0.0
4194,61.0,120,120,0.0,0.0
4195,64.0,120,120,0.0,0.0
4196,69.0,0,120,0.0,0.0
4197,57.0,120,120,0.0,0.0
4198,49.0,0,240,0.0,0.0
4199,67.0,120,120,0.0,0.0
4200,50.0,120,120,0.0,0.0
4201,66.0,120,480,0.0,0.0
4202,54.0,120,120,0.0,0.0
4203,57.0,120,120,0.0,0.0
4204,62.0,0,120,0.0,0.0
4205,50.0,120,120,0.0,0.0
4206,57.0,120,120,0.0,0.0
4207,59.0,120,120,0.0,0.0
4208,51.0,0,480,0.0,0.0
4209,63.0,120,120,0.0,0.0
4210,66.0,120,120,0.0,0.0
4211,71.0,120,120,0.0,0.0
4212,59.0,120,120,0.0,0.0
4213,69.0,120,120,0.0,0.0
4214,52.0,120,120,0.0,0.0
4215,67.0,120,360,0.0,0.0
4216,55.0,120,120,0.0,0.0
4217,59.0,0,120,0.0,0.0
4218,64.0,120,120,0.0,0.0
4219,72.0,0,120,0.0,0.0
4220,50.0,120,120,0.0,0.0
4221,66.0,0,120,0.0,0.0
4222,62.0,120,120,0.0,0.0
4223,71.0,0,120,0.0,0.0
4224,48.0,120,120,0.0,0.0
4225,64.0,0,360,0.0,0.0
4226,52.0,120,120,0.0,0.0
4227,57.0,120,120,0.0,0.0
4228,60.0,0,120,0.0,0.0
4229,69.0,120,120,0.0,0.0
4230,47.0,120,120,0.0,0.0
4231,62.0,0,120,0.0,0.0
4232,59.0,120,120,0.0,0.0
4233,67.0,0,120,0.0,0.0
4234,45.0,120,120,0.0,0.0
4235,60.0,0,360,0.0,0.0
4236,48.0,120,120,0.0,0.0
4237,53.0,120,120,0.0,0.0
4238,57.0,120,120,0.0,0.0
4239,65.0,0,120,0.0,0.0
4240,43.0,120,120,0.0,0.0
4241,59.0,0,120,0.0,0.0
4242,64.0,120,120,0.0,0.0
4243,55.0,0,120,0.0,0.0
4244,54.0,120,480,0.0,0.0
4245,63.0,120,120,0.0,0.0
4246,72.0,120,120,0.0,0.0
4247,69.0,120,120,0.0,0.0
4248,66.0,0,120,0.0,0.0
4249,71.0,120,120,0.0,0.0
4250,51.0,0,240,0.0,0.0
4251,66.0,120,120,0.0,0.0
4252,67.0,120,120,0.0,0.0
4253,52.0,0,480,0.0,0.0
4254,71.0,120,120,0.0,0.0
4255,67.0,120,120,0.0,0.0
4256,64.0,120,120,0.0,0.0
4257,69.0,120,120,0.0,0.0
4258,49.0,120,240,0.0,0.0
4259,64.0,0,120,0.0,0.0
4260,50.0,120,240,0.0,0.0
4261,66.0,120,120,0.0,0.0
4262,69.0,0,120,0.0,0.0
4263,57.0,120,240,0.0,0.0
4264,66.0,120,120,0.0,0.0
4265,62.0,0,120,0.0,0.0
4266,47.0,120,240,0.0,0.0
4267,67.0,120,120,0.0,0.0
4268,62.0,0,120,0.0,0.0
4269,64.0,120,120,0.0,0.0
4270,48.0,0,240,0.0,0.0
4271,67.0,120,120,0.0,0.0
4272,55.0,0,240,0.0,0.0
4273,64.0,120,120,0.0,0.0
4274,60.0,120,120,0.0,0.0
4275,45.0,120,240,0.0,0.0
4276,65.0,120,120,0.0,0.0
4277,69.0,0,120,0.0,0.0
4278,47.0,120,240,0.0,0.0
4279,63.0,120,120,0.0,0.0
4280,66.0,0,120,0.0,0.0
4281,63.0,120,120,0.0,0.0
4282,54.0,0,240,0.0,0.0
4283,59.0,120,120,0.0,0.0
4284,64.0,120,120,0.0,0.0
4285,43.0,0,240,0.0,0.0
4286,67.0,120,120,0.0,0.0
4287,45.0,0,480,0.0,0.0
4288,60.0,120,120,0.0,0.0
4289,72.0,120,120,0.0,0.0
4290,69.0,120,120,0.0,0.0
4291,65.0,120,120,0.0,0.0
4292,72.0,120,120,0.0,0.0
4293,57.0,120,240,0.0,0.0
4294,64.0,0,120,0.0,0.0
4295,59.0,120,120,0.0,0.0
4296,63.0,120,480,0.0,0.0
4297,47.0,120,120,0.0,0.0
4298,49.0,120,120,0.0,0.0
4299,51.0,0,120,0.0,0.0
4300,52.0,120,120,0.0,0.0
4301,54.0,120,120,0.0,0.0
4302,51.0,120,120,0.0,0.0
4303,55.0,0,480,0.0,0.0
4304,59.0,120,120,0.0,0.0
4305,61.0,120,120,0.0,0.0
4306,63.0,120,120,0.0,0.0
4307,54.0,120,240,0.0,0.0
4308,64.0,120,120,0.0,0.0
4309,66.0,0,120,0.0,0.0
4310,52.0,0,480,0.0,0.0
4311,67.0,120,120,0.0,0.0
4312,55.0,120,120,0.0,0.0
4313,57.0,120,120,0.0,0.0
4314,59.0,120,120,0.0,0.0
4315,50.0,120,240,0.0,0.0
4316,60.0,120,120,0.0,0.0
4317,62.0,0,120,0.0,0.0
4318,48.0,120,480,0.0,0.0
4319,64.0,120,120,0.0,0.0
4320,52.0,120,120,0.0,0.0
4321,54.0,120,120,0.0,0.0
4322,55.0,0,120,0.0,0.0
4323,57.0,120,120,0.0,0.0
4324,47.0,120,240,0.0,0.0
4325,59.0,0,120,0.0,0.0
4326,60.0,120,120,0.0,0.0
4327,45.0,0,240,0.0,0.0
4328,62.0,120,120,0.0,0.0
4329,64.0,120,120,0.0,0.0
4330,48.0,120,240,0.0,0.0
4331,62.0,0,120,0.0,0.0
4332,43.0,120,240,0.0,0.0
4333,52.0,0,240,0.0,0.0
4334,60.0,120,120,0.0,0.0
4335,59.0,0,120,0.0,0.0
4336,45.0,0,240,0.0,0.0
4337,57.0,120,120,0.0,0.0
4338,55.0,120,120,0.0,0.0
4339,47.0,0,240,0.0,0.0
4340,54.0,120,120,0.0,0.0
4341,52.0,120,120,0.0,0.0
4342,47.0,120,240,0.0,0.0
4343,54.0,120,120,0.0,0.0
4344,51.0,0,120,0.0,0.0
4345,40.0,0,240,0.0,0.0
4346,52.0,120,120,0.0,0.0
4347,59.0,120,120,0.0,0.0
4348,56.0,120,120,0.0,0.0
4349,40.0,120,240,0.0,0.0
4350,59.0,0,120,0.0,0.0
4351,40.0,120,240,0.0,0.0
4352,64.0,120,120,0.0,0.0
4353,59.0,0,120,0.0,0.0
4354,40.0,120,240,0.0,0.0
4355,60.0,120,120,0.0,0.0
4356,57.0,0,120,0.0,0.0
4357,40.0,0,240,0.0,0.0
4358,60.0,120,120,0.0,0.0
4359,64.0,120,120,0.0,0.0
4360,69.0,120,120,0.0,0.0
4361,40.0,0,240,0.0,0.0
4362,63.0,120,120,0.0,0.0
4363,40.0,120,480,0.0,0.0
4364,64.0,0,480,0.0,0.0
4365,51.0,120,120,0.0,0.0
4366,69.0,120,120,0.0,0.0
4367,60.0,0,120,0.0,0.0
4368,68.0,0,120,0.0,0.0
4369,59.0,120,120,0.0,0.0
4370,57.0,0,120,0.0,0.0
4371,66.0,0,120,0.0,0.0
4372,55.0,120,120,0.0,0.0
4373,64.0,0,120,0.0,0.0
4374,63.0,720,120,0.0,0.0
4375,54.0,0,120,0.0,0.0
4376,59.0,0,720,0.0,0.0
4377,40.0,0,720,0.0,0.0
4378,64.0,0,720,0.0,0.0
4379,56.0,240,720,0.0,0.0
4380,47.0,120,120,0.0,0.0
4381,49.0,120,120,0.0,0.0
4382,51.0,120,120,0.0,0.0
4383,52.0,120,120,0.0,0.0
4384,54.0,120,120,0.0,0.0
4385,51.0,120,120,0.0,0.0
4386,55.0,0,480,0.0,0.0
4387,40.0,120,120,0.0,0.0
4388,42.0,120,120,0.0,0.0
4389,43.0,120,120,0.0,0.0
4390,54.0,120,240,0.0,0.0
4391,45.0,120,120,0.0,0.0
4392,47.0,0,120,0.0,0.0
4393,48.0,0,480,0.0,0.0
4394,51.0,120,120,0.0,0.0
4395,52.0,120,480,0.0,0.0
4396,64.0,120,120,0.0,0.0
4397,66.0,120,120,0.0,0.0
4398,67.0,0,120,0.0,0.0
4399,69.0,120,120,0.0,0.0
4400,47.0,0,240,0.0,0.0
4401,71.0,120,120,0.0,0.0
4402,45.0,120,120,0.0,0.0
4403,72.0,120,240,0.0,0.0
4404,54.0,0,120,0.0,0.0
4405,71.0,120,240,0.0,0.0
4406,55.0,120,120,0.0,0.0
4407,57.0,0,120,0.0,0.0
4408,59.0,120,120,0.0,0.0
4409,67.0,0,240,0.0,0.0
4410,60.0,120,120,0.0,0.0
4411,69.0,120,720,0.0,0.0
4412,62.0,120,120,0.0,0.0
4413,67.0,120,120,0.0,0.0
4414,66.0,120,120,0.0,0.0
4415,64.0,120,120,0.0,0.0
4416,62.0,120,120,0.0,0.0
4417,60.0,0,120,0.0,0.0
4418,59.0,0,480,0.0,0.0
4419,51.0,120,120,0.0,0.0
4420,62.0,120,120,0.0,0.0
4421,64.0,120,120,0.0,0.0
4422,66.0,120,120,0.0,0.0
4423,57.0,120,240,0.0,0.0
4424,67.0,120,120,0.0,0.0
4425,69.0,0,120,0.0,0.0
4426,55.0,0,480,0.0,0.0
4427,71.0,120,120,0.0,0.0
4428,59.0,120,120,0.0,0.0
4429,60.0,120,120,0.0,0.0
4430,62.0,120,120,0.0,0.0
4431,64.0,120,120,0.0,0.0
4432,54.0,120,240,0.0,0.0
4433,66.0,0,120,0.0,0.0
4434,67.0,0,480,0.0,0.0
4435,52.0,120,120,0.0,0.0
4436,55.0,120,120,0.0,0.0
4437,59.0,120,120,0.0,0.0
4438,64.0,120,120,0.0,0.0
4439,67.0,0,240,0.0,0.0
4440,57.0,120,120,0.0,0.0
4441,60.0,120,120,0.0,0.0
4442,50.0,120,120,0.0,0.0
4443,66.0,120,480,0.0,0.0
4444,54.0,120,120,0.0,0.0
4445,57.0,120,120,0.0,0.0
4446,62.0,0,120,0.0,0.0
4447,55.0,120,120,0.0,0.0
4448,66.0,120,240,0.0,0.0
4449,59.0,0,120,0.0,0.0
4450,48.0,120,120,0.0,0.0
4451,64.0,0,480,0.0,0.0
4452,52.0,120,120,0.0,0.0
4453,55.0,120,120,0.0,0.0
4454,60.0,120,120,0.0,0.0
4455,64.0,0,240,0.0,0.0
4456,54.0,120,120,0.0,0.0
4457,57.0,120,120,0.0,0.0
4458,63.0,120,480,0.0,0.0
4459,47.0,120,120,0.0,0.0
4460,51.0,120,120,0.0,0.0
4461,54.0,120,120,0.0,0.0
4462,59.0,0,120,0.0,0.0
4463,52.0,120,120,0.0,0.0
4464,62.0,120,240,0.0,0.0
4465,56.0,0,120,0.0,0.0
4466,45.0,120,120,0.0,0.0
4467,61.0,0,480,0.0,0.0
4468,49.0,120,120,0.0,0.0
4469,52.0,120,120,0.0,0.0
4470,57.0,120,120,0.0,0.0
4471,60.0,0,240,0.0,0.0
4472,50.0,120,120,0.0,0.0
4473,54.0,120,120,0.0,0.0
4474,43.0,120,240,0.0,0.0
4475,59.0,120,120,0.0,0.0
4476,55.0,0,120,0.0,0.0
4477,57.0,120,120,0.0,0.0
4478,43.0,0,120,0.0,0.0
4479,59.0,120,120,0.0,0.0
4480,60.0,120,120,0.0,0.0
4481,45.0,0,120,0.0,0.0
4482,62.0,0,120,0.0,0.0
4483,47.0,120,120,0.0,0.0
4484,48.0,120,120,0.0,0.0
4485,64.0,0,120,0.0,0.0
4486,62.0,120,120,0.0,0.0
4487,47.0,0,120,0.0,0.0
4488,48.0,120,120,0.0,0.0
4489,64.0,0,120,0.0,0.0
4490,50.0,0,120,0.0,0.0
4491,66.0,120,120,0.0,0.0
4492,52.0,120,120,0.0,0.0
4493,67.0,0,120,0.0,0.0
4494,69.0,0,120,0.0,0.0
4495,54.0,120,120,0.0,0.0
4496,55.0,0,120,0.0,0.0
4497,71.0,0,120,0.0,0.0
4498,57.0,120,120,0.0,0.0
4499,54.0,0,120,0.0,0.0
4500,59.0,120,120,0.0,0.0
4501,55.0,0,120,0.0,0.0
4502,57.0,120,120,0.0,0.0
4503,60.0,0,120,0.0,0.0
4504,59.0,120,120,0.0,0.0
4505,62.0,0,120,0.0,0.0
4506,43.0,120,120,0.0,0.0
4507,55.0,0,120,0.0,0.0
4508,48.0,120,120,0.0,0.0
4509,64.0,0,240,0.0,0.0
4510,40.0,120,120,0.0,0.0
4511,57.0,120,360,0.0,0.0
4512,45.0,120,120,0.0,0.0
4513,48.0,120,120,0.0,0.0
4514,50.0,120,240,0.0,0.0
4515,54.0,0,240,0.0,0.0
4516,55.0,0,120,0.0,0.0
4517,43.0,120,480,0.0,0.0
4518,55.0,120,120,0.0,0.0
4519,59.0,120,120,0.0,0.0
4520,62.0,120,120,0.0,0.0
4521,67.0,0,120,0.0,0.0
4522,47.0,120,240,0.0,0.0
4523,55.0,120,120,0.0,0.0
4524,66.0,0,120,0.0,0.0
4525,48.0,120,120,0.0,0.0
4526,60.0,0,360,0.0,0.0
4527,64.0,120,480,0.0,0.0
4528,52.0,120,120,0.0,0.0
4529,55.0,120,120,0.0,0.0
4530,60.0,0,120,0.0,0.0
4531,48.0,120,120,0.0,0.0
4532,55.0,120,120,0.0,0.0
4533,49.0,120,480,0.0,0.0
4534,57.0,120,120,0.0,0.0
4535,61.0,120,120,0.0,0.0
4536,64.0,120,120,0.0,0.0
4537,69.0,0,120,0.0,0.0
4538,49.0,120,240,0.0,0.0
4539,57.0,120,120,0.0,0.0
4540,67.0,0,120,0.0,0.0
4541,66.0,120,480,0.0,0.0
4542,50.0,120,120,0.0,0.0
4543,54.0,120,120,0.0,0.0
4544,57.0,120,120,0.0,0.0
4545,62.0,0,120,0.0,0.0
4546,50.0,120,120,0.0,0.0
4547,57.0,120,120,0.0,0.0
4548,51.0,120,480,0.0,0.0
4549,59.0,120,120,0.0,0.0
4550,63.0,120,120,0.0,0.0
4551,66.0,120,120,0.0,0.0
4552,71.0,0,120,0.0,0.0
4553,59.0,120,120,0.0,0.0
4554,69.0,120,120,0.0,0.0
4555,52.0,120,120,0.0,0.0
4556,67.0,120,360,0.0,0.0
4557,55.0,120,120,0.0,0.0
4558,59.0,0,120,0.0,0.0
4559,64.0,0,120,0.0,0.0
4560,72.0,120,120,0.0,0.0
4561,66.0,0,120,0.0,0.0
4562,50.0,120,120,0.0,0.0
4563,62.0,120,120,0.0,0.0
4564,71.0,0,120,0.0,0.0
4565,48.0,120,120,0.0,0.0
4566,64.0,120,360,0.0,0.0
4567,52.0,120,120,0.0,0.0
4568,57.0,0,120,0.0,0.0
4569,69.0,120,120,0.0,0.0
4570,60.0,0,120,0.0,0.0
4571,62.0,0,120,0.0,0.0
4572,47.0,120,120,0.0,0.0
4573,59.0,120,120,0.0,0.0
4574,67.0,0,120,0.0,0.0
4575,45.0,120,120,0.0,0.0
4576,60.0,120,360,0.0,0.0
4577,48.0,120,120,0.0,0.0
4578,53.0,0,120,0.0,0.0
4579,57.0,0,120,0.0,0.0
4580,65.0,120,120,0.0,0.0
4581,59.0,120,120,0.0,0.0
4582,43.0,0,120,0.0,0.0
4583,64.0,0,120,0.0,0.0
4584,55.0,120,120,0.0,0.0
4585,63.0,120,120,0.0,0.0
4586,54.0,0,480,0.0,0.0
4587,72.0,120,120,0.0,0.0
4588,69.0,120,120,0.0,0.0
4589,66.0,120,120,0.0,0.0
4590,71.0,120,120,0.0,0.0
4591,51.0,0,240,0.0,0.0
4592,66.0,120,120,0.0,0.0
4593,52.0,0,480,0.0,0.0
4594,67.0,120,120,0.0,0.0
4595,71.0,120,120,0.0,0.0
4596,67.0,120,120,0.0,0.0
4597,64.0,120,120,0.0,0.0
4598,49.0,120,240,0.0,0.0
4599,69.0,120,120,0.0,0.0
4600,64.0,0,120,0.0,0.0
4601,50.0,0,240,0.0,0.0
4602,66.0,120,120,0.0,0.0
4603,69.0,120,120,0.0,0.0
4604,66.0,120,120,0.0,0.0
4605,57.0,120,240,0.0,0.0
4606,62.0,0,120,0.0,0.0
4607,67.0,120,120,0.0,0.0
4608,47.0,120,240,0.0,0.0
4609,62.0,0,120,0.0,0.0
4610,48.0,120,240,0.0,0.0
4611,64.0,120,120,0.0,0.0
4612,67.0,0,120,0.0,0.0
4613,64.0,120,120,0.0,0.0
4614,55.0,120,240,0.0,0.0
4615,60.0,0,120,0.0,0.0
4616,45.0,120,240,0.0,0.0
4617,65.0,120,120,0.0,0.0
4618,69.0,0,120,0.0,0.0
4619,63.0,120,120,0.0,0.0
4620,47.0,120,240,0.0,0.0
4621,66.0,0,120,0.0,0.0
4622,54.0,0,240,0.0,0.0
4623,63.0,120,120,0.0,0.0
4624,59.0,120,120,0.0,0.0
4625,64.0,120,120,0.0,0.0
4626,43.0,0,240,0.0,0.0
4627,67.0,120,120,0.0,0.0
4628,45.0,0,480,0.0,0.0
4629,60.0,120,120,0.0,0.0
4630,72.0,120,120,0.0,0.0
4631,69.0,120,120,0.0,0.0
4632,65.0,120,120,0.0,0.0
4633,57.0,0,240,0.0,0.0
4634,72.0,120,120,0.0,0.0
4635,64.0,120,120,0.0,0.0
4636,63.0,120,480,0.0,0.0
4637,59.0,120,120,0.0,0.0
4638,47.0,120,120,0.0,0.0
4639,49.0,120,120,0.0,0.0
4640,51.0,0,120,0.0,0.0
4641,52.0,120,120,0.0,0.0
4642,54.0,120,120,0.0,0.0
4643,51.0,120,120,0.0,0.0
4644,55.0,0,480,0.0,0.0
4645,59.0,120,120,0.0,0.0
4646,61.0,120,120,0.0,0.0
4647,63.0,120,120,0.0,0.0
4648,64.0,120,120,0.0,0.0
4649,54.0,120,240,0.0,0.0
4650,66.0,0,120,0.0,0.0
4651,52.0,120,480,0.0,0.0
4652,67.0,120,120,0.0,0.0
4653,55.0,120,120,0.0,0.0
4654,57.0,120,120,0.0,0.0
4655,59.0,0,120,0.0,0.0
4656,50.0,0,240,0.0,0.0
4657,60.0,120,120,0.0,0.0
4658,62.0,120,120,0.0,0.0
4659,64.0,120,120,0.0,0.0
4660,48.0,120,480,0.0,0.0
4661,52.0,120,120,0.0,0.0
4662,54.0,120,120,0.0,0.0
4663,55.0,0,120,0.0,0.0
4664,47.0,120,240,0.0,0.0
4665,57.0,120,120,0.0,0.0
4666,59.0,0,120,0.0,0.0
4667,45.0,120,240,0.0,0.0
4668,60.0,120,120,0.0,0.0
4669,62.0,0,120,0.0,0.0
4670,48.0,120,240,0.0,0.0
4671,64.0,120,120,0.0,0.0
4672,62.0,0,120,0.0,0.0
4673,43.0,120,240,0.0,0.0
4674,60.0,120,120,0.0,0.0
4675,52.0,0,240,0.0,0.0
4676,59.0,0,120,0.0,0.0
4677,57.0,120,120,0.0,0.0
4678,45.0,0,240,0.0,0.0
4679,55.0,120,120,0.0,0.0
4680,47.0,120,240,0.0,0.0
4681,54.0,120,120,0.0,0.0
4682,52.0,0,120,0.0,0.0
4683,47.0,120,240,0.0,0.0
4684,54.0,120,120,0.0,0.0
4685,51.0,0,120,0.0,0.0
4686,40.0,0,240,0.0,0.0
4687,52.0,120,120,0.0,0.0
4688,59.0,120,120,0.0,0.0
4689,40.0,120,240,0.0,0.0
4690,56.0,120,120,0.0,0.0
4691,59.0,0,120,0.0,0.0
4692,40.0,120,240,0.0,0.0
4693,64.0,120,120,0.0,0.0
4694,59.0,0,120,0.0,0.0
4695,40.0,120,240,0.0,0.0
4696,60.0,120,120,0.0,0.0
4697,57.0,0,120,0.0,0.0
4698,40.0,120,240,0.0,0.0
4699,60.0,120,120,0.0,0.0
4700,64.0,0,120,0.0,0.0
4701,40.0,120,240,0.0,0.0
4702,69.0,120,120,0.0,0.0
4703,63.0,0,120,0.0,0.0
4704,40.0,0,480,0.0,0.0
4705,51.0,120,120,0.0,0.0
4706,64.0,0,480,0.0,0.0
4707,69.0,120,120,0.0,0.0
4708,60.0,0,120,0.0,0.0
4709,59.0,120,120,0.0,0.0
4710,68.0,0,120,0.0,0.0
4711,57.0,120,120,0.0,0.0
4712,66.0,0,120,0.0,0.0
4713,55.0,120,120,0.0,0.0
4714,64.0,0,120,0.0,0.0
4715,63.0,720,120,0.0,0.0
4716,54.0,0,120,0.0,0.0
4717,59.0,0,720,0.0,0.0
4718,56.0,0,720,0.0,0.0
4719,40.0,0,720,0.0,0.0
4720,64.0,0,720,0.0,0.0
