,note,step,duration,channel,velocity
0,71.0,0,116,0.0,100.0
1,66.0,120,116,0.0,100.0
2,69.0,120,116,0.0,100.0
3,67.0,120,116,0.0,100.0
4,69.0,120,116,0.0,100.0
5,71.0,120,116,0.0,100.0
6,66.0,120,116,0.0,100.0
7,67.0,120,116,0.0,100.0
8,63.0,120,116,0.0,100.0
9,64.0,120,116,0.0,100.0
10,59.0,120,116,0.0,100.0
11,60.0,120,116,0.0,100.0
12,62.0,120,116,0.0,100.0
13,64.0,120,116,0.0,100.0
14,59.0,120,116,0.0,100.0
15,60.0,120,116,0.0,100.0
16,56.0,120,116,0.0,100.0
17,57.0,120,116,0.0,100.0
18,52.0,120,116,0.0,100.0
19,54.0,120,116,0.0,100.0
20,55.0,120,116,0.0,100.0
21,57.0,120,116,0.0,100.0
22,52.0,120,116,0.0,100.0
23,54.0,120,116,0.0,100.0
24,49.0,120,116,0.0,100.0
25,51.0,120,116,0.0,100.0
26,52.0,120,116,0.0,100.0
27,51.0,120,116,0.0,100.0
28,45.0,120,116,0.0,100.0
29,47.0,120,116,0.0,100.0
30,42.0,120,116,0.0,100.0
31,43.0,120,116,0.0,100.0
32,45.0,120,116,0.0,100.0
33,47.0,120,116,0.0,100.0
34,42.0,120,116,0.0,100.0
35,43.0,120,116,0.0,100.0
36,47.0,120,116,0.0,100.0
37,52.0,120,116,0.0,100.0
38,51.0,120,116,0.0,100.0
39,52.0,120,116,0.0,100.0
40,43.0,120,116,0.0,100.0
41,42.0,120,116,0.0,100.0
42,40.0,120,116,0.0,100.0
43,39.0,120,116,0.0,100.0
44,42.0,120,116,0.0,100.0
45,47.0,120,116,0.0,100.0
46,45.0,120,116,0.0,100.0
47,43.0,120,116,0.0,100.0
48,59.0,120,116,0.0,100.0
49,54.0,120,116,0.0,100.0
50,57.0,120,116,0.0,100.0
51,55.0,120,116,0.0,100.0
52,57.0,120,116,0.0,100.0
53,59.0,120,116,0.0,100.0
54,54.0,120,116,0.0,100.0
55,55.0,120,116,0.0,100.0
56,51.0,120,116,0.0,100.0
57,52.0,120,116,0.0,100.0
58,45.0,120,116,0.0,100.0
59,47.0,120,36,0.0,100.0
60,45.0,40,36,0.0,100.0
61,47.0,40,36,0.0,100.0
62,45.0,40,36,0.0,100.0
63,47.0,40,36,0.0,100.0
64,45.0,40,36,0.0,100.0
65,47.0,40,36,0.0,100.0
66,45.0,40,36,0.0,100.0
67,47.0,40,36,0.0,100.0
68,47.0,40,116,0.0,100.0
69,40.0,120,236,0.0,100.0
70,60.0,540,56,0.0,100.0
71,59.0,60,56,0.0,100.0
72,57.0,60,56,0.0,100.0
73,55.0,60,56,0.0,100.0
74,54.0,60,56,0.0,100.0
75,52.0,60,56,0.0,100.0
76,54.0,40,36,0.0,100.0
77,51.0,40,36,0.0,100.0
78,52.0,0,56,0.0,100.0
79,51.0,60,56,0.0,100.0
80,52.0,60,356,0.0,100.0
81,40.0,40,476,0.0,100.0
82,43.0,0,476,0.0,100.0
83,47.0,0,476,0.0,100.0
84,67.0,480,116,0.0,100.0
85,66.0,120,36,0.0,100.0
86,67.0,40,36,0.0,100.0
87,66.0,40,36,0.0,100.0
88,67.0,40,56,0.0,100.0
89,69.0,60,56,0.0,100.0
90,63.0,60,356,0.0,100.0
91,54.0,0,116,0.0,100.0
92,63.0,360,116,0.0,100.0
93,57.0,0,116,0.0,100.0
94,63.0,0,356,0.0,100.0
95,57.0,0,356,0.0,100.0
96,54.0,120,356,0.0,100.0
97,57.0,0,116,0.0,100.0
98,63.0,360,116,0.0,100.0
99,54.0,0,116,0.0,100.0
100,59.0,0,476,0.0,100.0
101,64.0,0,476,0.0,100.0
102,47.0,0,476,0.0,100.0
103,52.0,0,476,0.0,100.0
104,40.0,120,476,0.0,100.0
105,55.0,0,476,0.0,100.0
106,66.0,600,116,0.0,100.0
107,64.0,120,116,0.0,100.0
108,62.0,120,116,0.0,100.0
109,61.0,120,116,0.0,100.0
110,62.0,120,116,0.0,100.0
111,64.0,120,116,0.0,100.0
112,62.0,120,116,0.0,100.0
113,61.0,120,116,0.0,100.0
114,59.0,120,116,0.0,100.0
115,58.0,120,116,0.0,100.0
116,59.0,120,116,0.0,100.0
117,58.0,120,356,0.0,100.0
118,58.0,0,116,0.0,100.0
119,40.0,360,116,0.0,100.0
120,49.0,0,116,0.0,100.0
121,54.0,0,116,0.0,100.0
122,58.0,0,356,0.0,100.0
123,40.0,120,356,0.0,100.0
124,49.0,0,356,0.0,100.0
125,54.0,0,356,0.0,100.0
126,58.0,0,116,0.0,100.0
127,40.0,360,116,0.0,100.0
128,49.0,0,116,0.0,100.0
129,54.0,0,116,0.0,100.0
130,59.0,0,476,0.0,100.0
131,50.0,0,476,0.0,100.0
132,38.0,0,476,0.0,100.0
133,47.0,120,476,0.0,100.0
134,54.0,0,476,0.0,100.0
135,66.0,600,116,0.0,100.0
136,61.0,120,116,0.0,100.0
137,64.0,120,116,0.0,100.0
138,62.0,120,116,0.0,100.0
139,64.0,120,116,0.0,100.0
140,66.0,120,116,0.0,100.0
141,61.0,120,116,0.0,100.0
142,62.0,120,116,0.0,100.0
143,58.0,120,116,0.0,100.0
144,59.0,120,116,0.0,100.0
145,61.0,120,56,0.0,100.0
146,62.0,60,56,0.0,100.0
147,56.0,60,356,0.0,100.0
148,47.0,0,116,0.0,100.0
149,56.0,0,116,0.0,100.0
150,40.0,360,116,0.0,100.0
151,52.0,0,116,0.0,100.0
152,56.0,0,356,0.0,100.0
153,40.0,120,356,0.0,100.0
154,47.0,0,356,0.0,100.0
155,50.0,0,356,0.0,100.0
156,56.0,0,116,0.0,100.0
157,40.0,0,116,0.0,100.0
158,47.0,360,116,0.0,100.0
159,50.0,0,116,0.0,100.0
160,57.0,0,476,0.0,100.0
161,36.0,0,476,0.0,100.0
162,48.0,0,476,0.0,100.0
163,52.0,120,476,0.0,100.0
164,69.0,480,56,0.0,100.0
165,67.0,60,56,0.0,100.0
166,65.0,60,56,0.0,100.0
167,64.0,60,56,0.0,100.0
168,62.0,60,56,0.0,100.0
169,60.0,60,56,0.0,100.0
170,59.0,60,56,0.0,100.0
171,57.0,60,56,0.0,100.0
172,62.0,60,356,0.0,100.0
173,52.0,0,116,0.0,100.0
174,62.0,0,116,0.0,100.0
175,59.0,0,116,0.0,100.0
176,44.0,360,116,0.0,100.0
177,59.0,0,356,0.0,100.0
178,62.0,120,356,0.0,100.0
179,44.0,0,356,0.0,100.0
180,52.0,0,356,0.0,100.0
181,62.0,0,116,0.0,100.0
182,44.0,360,116,0.0,100.0
183,52.0,0,116,0.0,100.0
184,59.0,0,116,0.0,100.0
185,61.0,120,36,0.0,100.0
186,62.0,40,36,0.0,100.0
187,61.0,40,36,0.0,100.0
188,62.0,40,36,0.0,100.0
189,61.0,80,36,0.0,100.0
190,62.0,40,36,0.0,100.0
191,45.0,0,476,0.0,100.0
192,52.0,0,476,0.0,100.0
193,57.0,0,476,0.0,100.0
194,61.0,60,176,0.0,100.0
195,52.0,180,56,0.0,100.0
196,54.0,60,56,0.0,100.0
197,56.0,60,56,0.0,100.0
198,57.0,60,56,0.0,100.0
199,59.0,60,56,0.0,100.0
200,60.0,60,56,0.0,100.0
201,62.0,60,56,0.0,100.0
202,64.0,40,36,0.0,100.0
203,59.0,40,36,0.0,100.0
204,57.0,0,356,0.0,100.0
205,52.0,0,356,0.0,100.0
206,60.0,40,356,0.0,100.0
207,45.0,0,356,0.0,100.0
208,60.0,0,116,0.0,100.0
209,45.0,360,116,0.0,100.0
210,52.0,0,116,0.0,100.0
211,57.0,0,116,0.0,100.0
212,60.0,0,356,0.0,100.0
213,65.0,0,356,0.0,100.0
214,57.0,0,356,0.0,100.0
215,45.0,120,356,0.0,100.0
216,64.0,0,116,0.0,100.0
217,45.0,0,116,0.0,100.0
218,60.0,0,116,0.0,100.0
219,55.0,360,116,0.0,100.0
220,63.0,0,476,0.0,100.0
221,45.0,0,476,0.0,100.0
222,54.0,0,476,0.0,100.0
223,59.0,120,476,0.0,100.0
224,43.0,0,236,0.0,100.0
225,59.0,0,236,0.0,100.0
226,52.0,0,236,0.0,100.0
227,64.0,480,356,0.0,100.0
228,62.0,360,36,0.0,100.0
229,60.0,40,36,0.0,100.0
230,59.0,40,36,0.0,100.0
231,43.0,40,236,0.0,100.0
232,57.0,0,236,0.0,100.0
233,52.0,0,236,0.0,100.0
234,61.0,0,356,0.0,100.0
235,69.0,360,56,0.0,100.0
236,61.0,60,56,0.0,100.0
237,63.0,60,356,0.0,100.0
238,57.0,0,236,0.0,100.0
239,63.0,120,116,0.0,100.0
240,54.0,0,236,0.0,100.0
241,42.0,240,236,0.0,100.0
242,64.0,0,356,0.0,100.0
243,64.0,360,36,0.0,100.0
244,62.0,40,36,0.0,100.0
245,60.0,40,36,0.0,100.0
246,59.0,0,476,0.0,100.0
247,52.0,0,476,0.0,100.0
248,43.0,120,476,0.0,100.0
249,59.0,40,36,0.0,100.0
250,60.0,40,36,0.0,100.0
251,59.0,40,36,0.0,100.0
252,60.0,40,36,0.0,100.0
253,59.0,60,176,0.0,100.0
254,59.0,180,116,0.0,100.0
255,59.0,0,356,0.0,100.0
256,66.0,360,56,0.0,100.0
257,47.0,0,476,0.0,100.0
258,59.0,60,56,0.0,100.0
259,54.0,0,476,0.0,100.0
260,39.0,120,476,0.0,100.0
261,57.0,0,476,0.0,100.0
262,59.0,60,36,0.0,100.0
263,60.0,40,36,0.0,100.0
264,59.0,40,36,0.0,100.0
265,60.0,40,36,0.0,100.0
266,59.0,60,176,0.0,100.0
267,59.0,120,116,0.0,100.0
268,54.0,60,236,0.0,100.0
269,47.0,0,236,0.0,100.0
270,39.0,0,236,0.0,100.0
271,59.0,120,356,0.0,100.0
272,67.0,360,56,0.0,100.0
273,47.0,0,476,0.0,100.0
274,59.0,60,56,0.0,100.0
275,52.0,0,476,0.0,100.0
276,55.0,0,476,0.0,100.0
277,40.0,0,476,0.0,100.0
278,59.0,60,36,0.0,100.0
279,60.0,40,36,0.0,100.0
280,59.0,40,36,0.0,100.0
281,60.0,40,36,0.0,100.0
282,59.0,60,176,0.0,100.0
283,59.0,120,116,0.0,100.0
284,55.0,0,236,0.0,100.0
285,52.0,0,236,0.0,100.0
286,40.0,60,236,0.0,100.0
287,58.0,0,356,0.0,100.0
288,58.0,360,116,0.0,100.0
289,54.0,0,476,0.0,100.0
290,49.0,0,476,0.0,100.0
291,40.0,120,476,0.0,100.0
292,71.0,120,36,0.0,100.0
293,69.0,40,36,0.0,100.0
294,59.0,0,236,0.0,100.0
295,38.0,120,236,0.0,100.0
296,54.0,0,236,0.0,100.0
297,67.0,60,36,0.0,100.0
298,66.0,60,36,0.0,100.0
299,64.0,40,36,0.0,100.0
300,62.0,40,36,0.0,100.0
301,61.0,40,36,0.0,100.0
302,59.0,40,36,0.0,100.0
303,56.0,300,56,0.0,100.0
304,64.0,40,356,0.0,100.0
305,57.0,0,56,0.0,100.0
306,59.0,60,56,0.0,100.0
307,50.0,60,116,0.0,100.0
308,57.0,0,356,0.0,100.0
309,52.0,0,356,0.0,100.0
310,57.0,0,116,0.0,100.0
311,54.0,360,116,0.0,100.0
312,48.0,60,476,0.0,100.0
313,55.0,0,356,0.0,100.0
314,52.0,0,356,0.0,100.0
315,54.0,360,116,0.0,100.0
316,59.0,0,716,0.0,100.0
317,55.0,0,356,0.0,100.0
318,52.0,120,356,0.0,100.0
319,61.0,0,116,0.0,100.0
320,47.0,120,956,0.0,100.0
321,58.0,0,116,0.0,100.0
322,52.0,360,116,0.0,100.0
323,63.0,120,356,0.0,100.0
324,59.0,0,356,0.0,100.0
325,54.0,0,356,0.0,100.0
326,63.0,0,116,0.0,100.0
327,59.0,0,116,0.0,100.0
328,54.0,360,116,0.0,100.0
329,59.0,0,356,0.0,100.0
330,64.0,120,356,0.0,100.0
331,55.0,0,356,0.0,100.0
332,66.0,0,56,0.0,100.0
333,67.0,60,56,0.0,100.0
334,59.0,0,116,0.0,100.0
335,52.0,360,116,0.0,100.0
336,47.0,0,956,0.0,100.0
337,47.0,0,476,0.0,100.0
338,66.0,60,476,0.0,100.0
339,51.0,0,476,0.0,100.0
340,59.0,0,476,0.0,100.0
341,66.0,480,236,0.0,100.0
342,71.0,240,236,0.0,100.0
343,71.0,240,236,0.0,100.0
344,59.0,240,236,0.0,100.0
345,69.0,0,236,0.0,100.0
346,67.0,0,236,0.0,100.0
347,64.0,240,236,0.0,100.0
348,67.0,0,116,0.0,100.0
349,66.0,120,116,0.0,100.0
350,64.0,240,236,0.0,100.0
351,67.0,0,116,0.0,100.0
352,64.0,120,116,0.0,100.0
353,62.0,120,236,0.0,100.0
354,60.0,120,236,0.0,100.0
355,69.0,0,236,0.0,100.0
356,60.0,0,116,0.0,100.0
357,59.0,120,116,0.0,100.0
358,69.0,240,236,0.0,100.0
359,60.0,120,116,0.0,100.0
360,67.0,0,236,0.0,100.0
361,57.0,120,116,0.0,100.0
362,66.0,0,236,0.0,100.0
363,62.0,120,236,0.0,100.0
364,66.0,0,116,0.0,100.0
365,62.0,240,236,0.0,100.0
366,64.0,120,116,0.0,100.0
367,66.0,120,116,0.0,100.0
368,62.0,120,116,0.0,100.0
369,60.0,0,236,0.0,100.0
370,67.0,0,236,0.0,100.0
371,59.0,120,236,0.0,100.0
372,59.0,240,116,0.0,100.0
373,57.0,120,116,0.0,100.0
374,67.0,0,236,0.0,100.0
375,59.0,0,116,0.0,100.0
376,55.0,120,116,0.0,100.0
377,66.0,120,236,0.0,100.0
378,64.0,0,236,0.0,100.0
379,60.0,120,236,0.0,100.0
380,60.0,240,116,0.0,100.0
381,59.0,120,116,0.0,100.0
382,60.0,120,116,0.0,100.0
383,57.0,120,116,0.0,100.0
384,69.0,0,716,0.0,100.0
385,59.0,120,236,0.0,100.0
386,67.0,0,116,0.0,100.0
387,64.0,240,236,0.0,100.0
388,66.0,120,116,0.0,100.0
389,52.0,0,236,0.0,100.0
390,67.0,0,236,0.0,100.0
391,64.0,120,476,0.0,100.0
392,59.0,0,236,0.0,100.0
393,63.0,240,116,0.0,100.0
394,61.0,120,116,0.0,100.0
395,59.0,0,236,0.0,100.0
396,57.0,0,236,0.0,100.0
397,63.0,120,236,0.0,100.0
398,66.0,240,716,0.0,100.0
399,64.0,0,236,0.0,100.0
400,55.0,240,236,0.0,100.0
401,55.0,240,116,0.0,100.0
402,54.0,120,116,0.0,100.0
403,64.0,0,236,0.0,100.0
404,55.0,0,116,0.0,100.0
405,52.0,120,116,0.0,100.0
406,62.0,120,236,0.0,100.0
407,61.0,0,236,0.0,100.0
408,57.0,120,236,0.0,100.0
409,61.0,0,116,0.0,100.0
410,59.0,120,116,0.0,100.0
411,57.0,240,236,0.0,100.0
412,61.0,0,116,0.0,100.0
413,55.0,120,236,0.0,100.0
414,57.0,120,116,0.0,100.0
415,54.0,120,236,0.0,100.0
416,62.0,0,236,0.0,100.0
417,54.0,0,116,0.0,100.0
418,52.0,120,116,0.0,100.0
419,62.0,240,236,0.0,100.0
420,54.0,120,116,0.0,100.0
421,50.0,120,116,0.0,100.0
422,60.0,0,236,0.0,100.0
423,59.0,120,236,0.0,100.0
424,55.0,0,236,0.0,100.0
425,55.0,240,116,0.0,100.0
426,54.0,120,116,0.0,100.0
427,55.0,120,116,0.0,100.0
428,52.0,120,116,0.0,100.0
429,54.0,120,236,0.0,100.0
430,64.0,0,716,0.0,100.0
431,62.0,0,116,0.0,100.0
432,61.0,120,116,0.0,100.0
433,59.0,240,236,0.0,100.0
434,47.0,0,236,0.0,100.0
435,62.0,0,236,0.0,100.0
436,59.0,120,476,0.0,100.0
437,54.0,0,236,0.0,100.0
438,58.0,240,116,0.0,100.0
439,54.0,0,236,0.0,100.0
440,56.0,120,116,0.0,100.0
441,58.0,0,236,0.0,100.0
442,61.0,240,716,0.0,100.0
443,42.0,120,236,0.0,100.0
444,52.0,0,236,0.0,100.0
445,51.0,0,236,0.0,100.0
446,47.0,240,236,0.0,100.0
447,51.0,0,116,0.0,100.0
448,49.0,120,116,0.0,100.0
449,47.0,240,236,0.0,100.0
450,59.0,0,476,0.0,100.0
451,51.0,0,116,0.0,100.0
452,47.0,120,116,0.0,100.0
453,45.0,120,236,0.0,100.0
454,52.0,0,236,0.0,100.0
455,43.0,120,236,0.0,100.0
456,43.0,0,116,0.0,100.0
457,42.0,120,116,0.0,100.0
458,52.0,240,236,0.0,100.0
459,43.0,120,116,0.0,100.0
460,40.0,120,116,0.0,100.0
461,50.0,0,236,0.0,100.0
462,45.0,120,236,0.0,100.0
463,49.0,0,236,0.0,100.0
464,49.0,0,116,0.0,100.0
465,47.0,120,116,0.0,100.0
466,45.0,240,236,0.0,100.0
467,49.0,0,116,0.0,100.0
468,43.0,120,236,0.0,100.0
469,45.0,120,116,0.0,100.0
470,50.0,120,236,0.0,100.0
471,42.0,0,236,0.0,100.0
472,42.0,240,116,0.0,100.0
473,40.0,120,116,0.0,100.0
474,50.0,0,236,0.0,100.0
475,42.0,120,116,0.0,100.0
476,48.0,0,236,0.0,100.0
477,38.0,120,116,0.0,100.0
478,47.0,0,236,0.0,100.0
479,43.0,120,236,0.0,100.0
480,43.0,240,116,0.0,100.0
481,42.0,120,116,0.0,100.0
482,52.0,0,236,0.0,100.0
483,43.0,120,116,0.0,100.0
484,40.0,120,116,0.0,100.0
485,50.0,0,236,0.0,100.0
486,49.0,0,236,0.0,100.0
487,45.0,120,236,0.0,100.0
488,45.0,240,116,0.0,100.0
489,43.0,120,116,0.0,100.0
490,54.0,0,236,0.0,100.0
491,45.0,0,116,0.0,100.0
492,42.0,120,116,0.0,100.0
493,52.0,120,236,0.0,100.0
494,51.0,0,236,0.0,100.0
495,47.0,120,236,0.0,100.0
496,47.0,240,116,0.0,100.0
497,45.0,120,116,0.0,100.0
498,55.0,0,236,0.0,100.0
499,47.0,120,116,0.0,100.0
500,43.0,120,116,0.0,100.0
501,54.0,0,236,0.0,100.0
502,52.0,0,236,0.0,100.0
503,48.0,120,236,0.0,100.0
504,48.0,240,116,0.0,100.0
505,47.0,120,116,0.0,100.0
506,48.0,120,116,0.0,100.0
507,45.0,120,116,0.0,100.0
508,47.0,120,236,0.0,100.0
509,57.0,0,716,0.0,100.0
510,55.0,0,116,0.0,100.0
511,54.0,120,116,0.0,100.0
512,52.0,240,236,0.0,100.0
513,64.0,0,236,0.0,100.0
514,55.0,0,236,0.0,100.0
515,71.0,0,236,0.0,100.0
516,52.0,120,476,0.0,100.0
517,71.0,0,236,0.0,100.0
518,69.0,0,236,0.0,100.0
519,54.0,240,716,0.0,100.0
520,51.0,240,476,0.0,100.0
521,59.0,240,236,0.0,100.0
522,67.0,0,236,0.0,100.0
523,64.0,0,236,0.0,100.0
524,52.0,240,236,0.0,100.0
525,67.0,0,116,0.0,100.0
526,66.0,120,116,0.0,100.0
527,64.0,240,236,0.0,100.0
528,67.0,120,116,0.0,100.0
529,64.0,120,116,0.0,100.0
530,62.0,0,236,0.0,100.0
531,60.0,120,236,0.0,100.0
532,69.0,0,236,0.0,100.0
533,60.0,240,116,0.0,100.0
534,59.0,120,116,0.0,100.0
535,64.0,0,236,0.0,100.0
536,60.0,0,116,0.0,100.0
537,57.0,120,116,0.0,100.0
538,69.0,120,236,0.0,100.0
539,71.0,0,236,0.0,100.0
540,56.0,120,236,0.0,100.0
541,56.0,240,116,0.0,100.0
542,64.0,0,236,0.0,100.0
543,54.0,120,116,0.0,100.0
544,56.0,0,116,0.0,100.0
545,71.0,120,236,0.0,100.0
546,52.0,120,116,0.0,100.0
547,57.0,0,116,0.0,100.0
548,56.0,120,116,0.0,100.0
549,72.0,120,236,0.0,100.0
550,57.0,120,116,0.0,100.0
551,59.0,120,116,0.0,100.0
552,64.0,0,236,0.0,100.0
553,60.0,120,116,0.0,100.0
554,57.0,120,116,0.0,100.0
555,69.0,0,236,0.0,100.0
556,66.0,0,236,0.0,100.0
557,62.0,120,236,0.0,100.0
558,66.0,0,116,0.0,100.0
559,64.0,120,116,0.0,100.0
560,50.0,240,236,0.0,100.0
561,66.0,0,116,0.0,100.0
562,62.0,120,116,0.0,100.0
563,48.0,120,236,0.0,100.0
564,67.0,0,236,0.0,100.0
565,47.0,120,236,0.0,100.0
566,47.0,240,116,0.0,100.0
567,67.0,0,236,0.0,100.0
568,62.0,0,236,0.0,100.0
569,45.0,120,116,0.0,100.0
570,47.0,120,116,0.0,100.0
571,43.0,120,116,0.0,100.0
572,66.0,0,236,0.0,100.0
573,62.0,0,236,0.0,100.0
574,48.0,0,236,0.0,100.0
575,64.0,0,236,0.0,100.0
576,60.0,120,236,0.0,100.0
577,55.0,0,236,0.0,100.0
578,48.0,0,116,0.0,100.0
579,69.0,240,236,0.0,100.0
580,47.0,120,116,0.0,100.0
581,64.0,0,236,0.0,100.0
582,48.0,120,116,0.0,100.0
583,45.0,120,116,0.0,100.0
584,67.0,0,236,0.0,100.0
585,64.0,0,236,0.0,100.0
586,62.0,0,236,0.0,100.0
587,57.0,0,236,0.0,100.0
588,50.0,0,236,0.0,100.0
589,66.0,120,236,0.0,100.0
590,67.0,0,116,0.0,100.0
591,59.0,240,116,0.0,100.0
592,66.0,0,116,0.0,100.0
593,57.0,120,116,0.0,100.0
594,67.0,120,116,0.0,100.0
595,59.0,0,116,0.0,100.0
596,64.0,120,116,0.0,100.0
597,55.0,0,116,0.0,100.0
598,57.0,0,236,0.0,100.0
599,66.0,0,236,0.0,100.0
600,62.0,0,236,0.0,100.0
601,71.0,0,116,0.0,100.0
602,55.0,240,116,0.0,100.0
603,69.0,0,116,0.0,100.0
604,54.0,120,116,0.0,100.0
605,50.0,120,476,0.0,100.0
606,71.0,0,116,0.0,100.0
607,55.0,120,116,0.0,100.0
608,67.0,0,116,0.0,100.0
609,52.0,120,116,0.0,100.0
610,69.0,0,236,0.0,100.0
611,50.0,0,236,0.0,100.0
612,54.0,0,236,0.0,100.0
613,62.0,120,236,0.0,100.0
614,47.0,0,116,0.0,100.0
615,55.0,240,236,0.0,100.0
616,45.0,120,116,0.0,100.0
617,62.0,0,236,0.0,100.0
618,47.0,120,116,0.0,100.0
619,62.0,0,236,0.0,100.0
620,43.0,120,116,0.0,100.0
621,55.0,0,236,0.0,100.0
622,64.0,0,236,0.0,100.0
623,62.0,0,236,0.0,100.0
624,55.0,0,236,0.0,100.0
625,48.0,120,236,0.0,100.0
626,48.0,240,116,0.0,100.0
627,47.0,120,116,0.0,100.0
628,64.0,0,236,0.0,100.0
629,60.0,0,236,0.0,100.0
630,57.0,0,236,0.0,100.0
631,48.0,120,116,0.0,100.0
632,45.0,120,116,0.0,100.0
633,64.0,0,236,0.0,100.0
634,60.0,0,236,0.0,100.0
635,66.0,0,236,0.0,100.0
636,50.0,120,236,0.0,100.0
637,60.0,0,236,0.0,100.0
638,62.0,0,236,0.0,100.0
639,52.0,0,236,0.0,100.0
640,67.0,0,236,0.0,100.0
641,59.0,240,236,0.0,100.0
642,69.0,0,236,0.0,100.0
643,62.0,0,236,0.0,100.0
644,54.0,240,236,0.0,100.0
645,71.0,0,116,0.0,100.0
646,67.0,120,116,0.0,100.0
647,62.0,0,236,0.0,100.0
648,55.0,240,236,0.0,100.0
649,57.0,0,236,0.0,100.0
650,50.0,120,236,0.0,100.0
651,62.0,0,236,0.0,100.0
652,66.0,0,356,0.0,100.0
653,50.0,0,236,0.0,100.0
654,38.0,0,236,0.0,100.0
655,60.0,240,236,0.0,100.0
656,67.0,120,116,0.0,100.0
657,43.0,0,236,0.0,100.0
658,59.0,0,236,0.0,100.0
659,62.0,0,236,0.0,100.0
660,67.0,120,236,0.0,100.0
661,55.0,240,116,0.0,100.0
662,54.0,120,116,0.0,100.0
663,64.0,0,236,0.0,100.0
664,55.0,120,116,0.0,100.0
665,52.0,120,116,0.0,100.0
666,62.0,0,236,0.0,100.0
667,61.0,0,236,0.0,100.0
668,57.0,120,236,0.0,100.0
669,61.0,240,116,0.0,100.0
670,59.0,120,116,0.0,100.0
671,57.0,0,236,0.0,100.0
672,61.0,0,116,0.0,100.0
673,57.0,120,116,0.0,100.0
674,55.0,120,236,0.0,100.0
675,54.0,0,236,0.0,100.0
676,62.0,120,236,0.0,100.0
677,54.0,0,116,0.0,100.0
678,62.0,240,236,0.0,100.0
679,52.0,120,116,0.0,100.0
680,54.0,0,116,0.0,100.0
681,50.0,120,116,0.0,100.0
682,60.0,120,236,0.0,100.0
683,59.0,0,236,0.0,100.0
684,55.0,120,236,0.0,100.0
685,59.0,0,116,0.0,100.0
686,57.0,120,116,0.0,100.0
687,55.0,240,236,0.0,100.0
688,59.0,0,116,0.0,100.0
689,55.0,120,116,0.0,100.0
690,54.0,120,236,0.0,100.0
691,52.0,0,236,0.0,100.0
692,60.0,120,236,0.0,100.0
693,60.0,0,116,0.0,100.0
694,59.0,120,116,0.0,100.0
695,60.0,120,116,0.0,100.0
696,57.0,120,116,0.0,100.0
697,59.0,120,236,0.0,100.0
698,55.0,240,116,0.0,100.0
699,54.0,120,116,0.0,100.0
700,55.0,0,116,0.0,100.0
701,52.0,120,116,0.0,100.0
702,40.0,120,236,0.0,100.0
703,64.0,0,716,0.0,100.0
704,47.0,120,236,0.0,100.0
705,63.0,240,116,0.0,100.0
706,61.0,120,116,0.0,100.0
707,47.0,0,236,0.0,100.0
708,63.0,0,116,0.0,100.0
709,45.0,120,236,0.0,100.0
710,59.0,120,116,0.0,100.0
711,54.0,0,716,0.0,100.0
712,44.0,120,236,0.0,100.0
713,64.0,0,236,0.0,100.0
714,44.0,240,116,0.0,100.0
715,42.0,120,116,0.0,100.0
716,59.0,0,236,0.0,100.0
717,44.0,120,116,0.0,100.0
718,64.0,0,236,0.0,100.0
719,52.0,0,716,0.0,100.0
720,40.0,120,116,0.0,100.0
721,45.0,0,236,0.0,100.0
722,60.0,120,236,0.0,100.0
723,45.0,240,116,0.0,100.0
724,57.0,0,236,0.0,100.0
725,44.0,120,116,0.0,100.0
726,45.0,0,116,0.0,100.0
727,42.0,120,116,0.0,100.0
728,60.0,120,236,0.0,100.0
729,52.0,0,716,0.0,100.0
730,44.0,120,236,0.0,100.0
731,59.0,0,236,0.0,100.0
732,44.0,240,116,0.0,100.0
733,42.0,120,116,0.0,100.0
734,64.0,0,236,0.0,100.0
735,44.0,120,116,0.0,100.0
736,40.0,120,116,0.0,100.0
737,59.0,0,236,0.0,100.0
738,60.0,0,236,0.0,100.0
739,52.0,0,956,0.0,100.0
740,65.0,0,116,0.0,100.0
741,57.0,240,236,0.0,100.0
742,60.0,0,236,0.0,100.0
743,67.0,120,116,0.0,100.0
744,64.0,120,116,0.0,100.0
745,65.0,120,116,0.0,100.0
746,55.0,0,236,0.0,100.0
747,54.0,120,236,0.0,100.0
748,63.0,0,236,0.0,100.0
749,45.0,120,956,0.0,100.0
750,59.0,0,236,0.0,100.0
751,71.0,240,116,0.0,100.0
752,63.0,120,116,0.0,100.0
753,71.0,120,116,0.0,100.0
754,63.0,120,116,0.0,100.0
755,64.0,0,236,0.0,100.0
756,64.0,0,116,0.0,100.0
757,66.0,120,116,0.0,100.0
758,59.0,240,236,0.0,100.0
759,55.0,0,236,0.0,100.0
760,62.0,0,116,0.0,100.0
761,54.0,120,236,0.0,100.0
762,64.0,120,116,0.0,100.0
763,57.0,0,236,0.0,100.0
764,61.0,0,236,0.0,100.0
765,52.0,120,236,0.0,100.0
766,43.0,120,956,0.0,100.0
767,69.0,240,116,0.0,100.0
768,61.0,120,116,0.0,100.0
769,69.0,120,116,0.0,100.0
770,61.0,120,116,0.0,100.0
771,62.0,120,236,0.0,100.0
772,62.0,240,116,0.0,100.0
773,57.0,0,236,0.0,100.0
774,42.0,0,476,0.0,100.0
775,64.0,120,116,0.0,100.0
776,54.0,0,236,0.0,100.0
777,60.0,120,116,0.0,100.0
778,62.0,120,116,0.0,100.0
779,52.0,0,236,0.0,100.0
780,59.0,0,236,0.0,100.0
781,55.0,120,236,0.0,100.0
782,50.0,0,236,0.0,100.0
783,67.0,0,116,0.0,100.0
784,59.0,120,116,0.0,100.0
785,43.0,0,476,0.0,100.0
786,67.0,120,116,0.0,100.0
787,59.0,120,116,0.0,100.0
788,43.0,0,236,0.0,100.0
789,52.0,240,716,0.0,100.0
790,60.0,0,236,0.0,100.0
791,57.0,0,236,0.0,100.0
792,69.0,0,116,0.0,100.0
793,61.0,120,116,0.0,100.0
794,45.0,120,476,0.0,100.0
795,69.0,0,116,0.0,100.0
796,61.0,120,116,0.0,100.0
797,45.0,120,236,0.0,100.0
798,54.0,240,716,0.0,100.0
799,62.0,0,236,0.0,100.0
800,47.0,120,236,0.0,100.0
801,59.0,0,236,0.0,100.0
802,71.0,240,116,0.0,100.0
803,63.0,120,116,0.0,100.0
804,71.0,0,116,0.0,100.0
805,63.0,120,116,0.0,100.0
806,59.0,0,236,0.0,100.0
807,54.0,0,236,0.0,100.0
808,45.0,120,236,0.0,100.0
809,64.0,0,236,0.0,100.0
810,43.0,120,236,0.0,100.0
811,55.0,0,236,0.0,100.0
812,59.0,0,236,0.0,100.0
813,63.0,0,236,0.0,100.0
814,42.0,240,236,0.0,100.0
815,57.0,0,236,0.0,100.0
816,66.0,0,236,0.0,100.0
817,64.0,0,236,0.0,100.0
818,40.0,240,236,0.0,100.0
819,59.0,0,236,0.0,100.0
820,67.0,0,356,0.0,100.0
821,60.0,240,236,0.0,100.0
822,69.0,120,116,0.0,100.0
823,45.0,0,236,0.0,100.0
824,59.0,0,236,0.0,100.0
825,66.0,0,356,0.0,100.0
826,47.0,120,476,0.0,100.0
827,51.0,240,236,0.0,100.0
828,57.0,0,236,0.0,100.0
829,64.0,120,116,0.0,100.0
830,64.0,120,716,0.0,100.0
831,52.0,0,716,0.0,100.0
832,40.0,0,716,0.0,100.0
833,47.0,0,716,0.0,100.0
834,59.0,0,716,0.0,100.0
835,59.0,2520,116,0.0,100.0
836,40.0,0,116,0.0,100.0
837,43.0,0,116,0.0,100.0
838,59.0,0,476,0.0,100.0
839,47.0,0,116,0.0,100.0
840,64.0,0,116,0.0,100.0
841,52.0,0,236,0.0,100.0
842,62.0,0,116,0.0,100.0
843,60.0,0,116,0.0,100.0
844,59.0,0,116,0.0,100.0
845,57.0,0,116,0.0,100.0
846,55.0,0,116,0.0,100.0
847,54.0,0,116,0.0,100.0
848,55.0,0,116,0.0,100.0
849,59.0,0,116,0.0,100.0
850,52.0,0,476,0.0,100.0
851,64.0,0,116,0.0,100.0
852,47.0,0,116,0.0,100.0
853,51.0,0,116,0.0,100.0
854,54.0,0,116,0.0,100.0
855,63.0,0,476,0.0,100.0
856,64.0,0,116,0.0,100.0
857,59.0,0,236,0.0,100.0
858,63.0,0,116,0.0,100.0
859,49.0,0,236,0.0,100.0
860,64.0,0,116,0.0,100.0
861,66.0,0,116,0.0,100.0
862,59.0,0,116,0.0,100.0
863,51.0,0,236,0.0,100.0
864,64.0,0,116,0.0,100.0
865,67.0,0,116,0.0,100.0
866,52.0,0,236,0.0,100.0
867,66.0,0,116,0.0,100.0
868,61.0,0,116,0.0,100.0
869,45.0,0,236,0.0,100.0
870,63.0,0,116,0.0,100.0
871,57.0,0,116,0.0,100.0
872,47.0,0,236,0.0,100.0
873,55.0,0,116,0.0,100.0
874,59.0,0,116,0.0,100.0
875,47.0,0,116,0.0,100.0
876,64.0,0,356,0.0,100.0
877,59.0,0,116,0.0,100.0
878,40.0,0,716,0.0,100.0
879,60.0,0,116,0.0,100.0
880,62.0,0,116,0.0,100.0
881,40.0,0,236,0.0,100.0
882,60.0,0,116,0.0,100.0
883,59.0,0,116,0.0,100.0
884,52.0,0,716,0.0,100.0
885,45.0,0,236,0.0,100.0
886,57.0,0,116,0.0,100.0
887,55.0,0,116,0.0,100.0
888,47.0,0,236,0.0,100.0
889,54.0,0,116,0.0,100.0
890,57.0,0,116,0.0,100.0
891,50.0,0,236,0.0,100.0
892,62.0,0,116,0.0,100.0
893,57.0,0,116,0.0,100.0
894,38.0,120,236,0.0,100.0
895,50.0,0,236,0.0,100.0
896,54.0,0,116,0.0,100.0
897,50.0,0,116,0.0,100.0
898,55.0,0,236,0.0,100.0
899,59.0,0,476,0.0,100.0
900,43.0,0,476,0.0,100.0
901,52.0,0,116,0.0,100.0
902,62.0,0,116,0.0,100.0
903,47.0,0,116,0.0,100.0
904,60.0,0,116,0.0,100.0
905,48.0,0,116,0.0,100.0
906,59.0,0,116,0.0,100.0
907,50.0,0,116,0.0,100.0
908,64.0,0,236,0.0,100.0
909,59.0,0,116,0.0,100.0
910,60.0,0,116,0.0,100.0
911,48.0,0,476,0.0,100.0
912,62.0,0,116,0.0,100.0
913,60.0,0,116,0.0,100.0
914,59.0,0,116,0.0,100.0
915,57.0,0,116,0.0,100.0
916,55.0,0,116,0.0,100.0
917,54.0,0,116,0.0,100.0
918,52.0,0,116,0.0,100.0
919,50.0,0,116,0.0,100.0
920,48.0,0,116,0.0,100.0
921,50.0,0,116,0.0,100.0
922,55.0,0,116,0.0,100.0
923,59.0,0,116,0.0,100.0
924,47.0,0,476,0.0,100.0
925,57.0,0,116,0.0,100.0
926,59.0,0,116,0.0,100.0
927,48.0,0,236,0.0,100.0
928,52.0,0,116,0.0,100.0
929,55.0,0,116,0.0,100.0
930,49.0,0,236,0.0,100.0
931,54.0,0,116,0.0,100.0
932,59.0,0,116,0.0,100.0
933,50.0,0,236,0.0,100.0
934,54.0,0,116,0.0,100.0
935,57.0,0,116,0.0,100.0
936,51.0,0,236,0.0,100.0
937,55.0,0,116,0.0,100.0
938,57.0,0,116,0.0,100.0
939,52.0,0,236,0.0,100.0
940,55.0,0,116,0.0,100.0
941,54.0,0,116,0.0,100.0
942,52.0,0,116,0.0,100.0
943,50.0,0,116,0.0,100.0
944,49.0,0,116,0.0,100.0
945,47.0,0,116,0.0,100.0
946,61.0,0,236,0.0,100.0
947,61.0,0,116,0.0,100.0
948,54.0,0,236,0.0,100.0
949,46.0,0,476,0.0,100.0
950,59.0,0,116,0.0,100.0
951,47.0,0,236,0.0,100.0
952,62.0,0,236,0.0,100.0
953,59.0,0,116,0.0,100.0
954,49.0,0,236,0.0,100.0
955,64.0,0,236,0.0,100.0
956,66.0,0,116,0.0,100.0
957,59.0,0,116,0.0,100.0
958,50.0,0,236,0.0,100.0
959,71.0,0,116,0.0,100.0
960,69.0,0,116,0.0,100.0
961,47.0,0,236,0.0,100.0
962,67.0,0,116,0.0,100.0
963,66.0,0,116,0.0,100.0
964,52.0,0,236,0.0,100.0
965,64.0,0,116,0.0,100.0
966,54.0,0,236,0.0,100.0
967,62.0,0,116,0.0,100.0
968,61.0,0,116,0.0,100.0
969,59.0,0,116,0.0,100.0
970,55.0,0,236,0.0,100.0
971,58.0,0,116,0.0,100.0
972,59.0,0,116,0.0,100.0
973,52.0,0,236,0.0,100.0
974,54.0,0,236,0.0,100.0
975,59.0,0,356,0.0,100.0
976,58.0,0,116,0.0,100.0
977,42.0,0,236,0.0,100.0
978,47.0,0,116,0.0,100.0
979,49.0,0,116,0.0,100.0
980,59.0,0,476,0.0,100.0
981,51.0,0,116,0.0,100.0
982,52.0,0,116,0.0,100.0
983,54.0,0,116,0.0,100.0
984,56.0,0,116,0.0,100.0
985,58.0,0,116,0.0,100.0
986,55.0,0,116,0.0,100.0
987,52.0,0,116,0.0,100.0
988,54.0,0,116,0.0,100.0
989,51.0,0,116,0.0,100.0
990,52.0,0,116,0.0,100.0
991,49.0,0,116,0.0,100.0
992,54.0,0,356,0.0,100.0
993,47.0,0,356,0.0,100.0
994,51.0,0,356,0.0,100.0
995,59.0,360,116,0.0,100.0
996,40.0,120,116,0.0,100.0
997,43.0,120,116,0.0,100.0
998,47.0,120,116,0.0,100.0
999,59.0,120,476,0.0,100.0
1000,64.0,120,116,0.0,100.0
1001,52.0,120,236,0.0,100.0
1002,62.0,120,116,0.0,100.0
1003,60.0,120,116,0.0,100.0
1004,59.0,120,116,0.0,100.0
1005,57.0,120,116,0.0,100.0
1006,55.0,120,116,0.0,100.0
1007,54.0,120,116,0.0,100.0
1008,55.0,120,116,0.0,100.0
1009,59.0,120,116,0.0,100.0
1010,52.0,120,476,0.0,100.0
1011,64.0,120,116,0.0,100.0
1012,47.0,120,116,0.0,100.0
1013,51.0,120,116,0.0,100.0
1014,54.0,120,116,0.0,100.0
1015,63.0,120,476,0.0,100.0
1016,59.0,120,236,0.0,100.0
1017,64.0,120,116,0.0,100.0
1018,63.0,120,116,0.0,100.0
1019,64.0,120,116,0.0,100.0
1020,49.0,0,236,0.0,100.0
1021,66.0,0,116,0.0,100.0
1022,59.0,120,116,0.0,100.0
1023,51.0,120,236,0.0,100.0
1024,64.0,0,116,0.0,100.0
1025,52.0,120,236,0.0,100.0
1026,67.0,120,116,0.0,100.0
1027,66.0,0,116,0.0,100.0
1028,61.0,120,116,0.0,100.0
1029,45.0,120,236,0.0,100.0
1030,63.0,0,116,0.0,100.0
1031,57.0,120,116,0.0,100.0
1032,47.0,120,236,0.0,100.0
1033,55.0,120,116,0.0,100.0
1034,59.0,120,116,0.0,100.0
1035,47.0,120,116,0.0,100.0
1036,64.0,120,356,0.0,100.0
1037,40.0,0,716,0.0,100.0
1038,59.0,120,116,0.0,100.0
1039,60.0,0,116,0.0,100.0
1040,62.0,120,116,0.0,100.0
1041,40.0,120,236,0.0,100.0
1042,60.0,120,116,0.0,100.0
1043,59.0,120,116,0.0,100.0
1044,45.0,0,236,0.0,100.0
1045,52.0,120,716,0.0,100.0
1046,57.0,0,116,0.0,100.0
1047,55.0,120,116,0.0,100.0
1048,47.0,120,236,0.0,100.0
1049,54.0,0,116,0.0,100.0
1050,57.0,120,116,0.0,100.0
1051,50.0,120,236,0.0,100.0
1052,62.0,0,116,0.0,100.0
1053,57.0,120,116,0.0,100.0
1054,38.0,120,236,0.0,100.0
1055,54.0,120,116,0.0,100.0
1056,59.0,0,476,0.0,100.0
1057,50.0,120,116,0.0,100.0
1058,43.0,120,476,0.0,100.0
1059,55.0,120,236,0.0,100.0
1060,52.0,120,116,0.0,100.0
1061,62.0,0,116,0.0,100.0
1062,47.0,120,116,0.0,100.0
1063,60.0,0,116,0.0,100.0
1064,48.0,120,116,0.0,100.0
1065,59.0,0,116,0.0,100.0
1066,50.0,120,116,0.0,100.0
1067,59.0,120,116,0.0,100.0
1068,64.0,0,236,0.0,100.0
1069,60.0,120,116,0.0,100.0
1070,48.0,120,476,0.0,100.0
1071,62.0,120,116,0.0,100.0
1072,60.0,120,116,0.0,100.0
1073,59.0,120,116,0.0,100.0
1074,57.0,120,116,0.0,100.0
1075,55.0,120,116,0.0,100.0
1076,54.0,120,116,0.0,100.0
1077,52.0,120,116,0.0,100.0
1078,50.0,120,116,0.0,100.0
1079,48.0,120,116,0.0,100.0
1080,50.0,120,116,0.0,100.0
1081,55.0,120,116,0.0,100.0
1082,59.0,120,116,0.0,100.0
1083,47.0,120,476,0.0,100.0
1084,57.0,0,116,0.0,100.0
1085,48.0,120,236,0.0,100.0
1086,59.0,120,116,0.0,100.0
1087,52.0,0,116,0.0,100.0
1088,49.0,120,236,0.0,100.0
1089,55.0,120,116,0.0,100.0
1090,54.0,0,116,0.0,100.0
1091,50.0,120,236,0.0,100.0
1092,59.0,120,116,0.0,100.0
1093,54.0,120,116,0.0,100.0
1094,51.0,0,236,0.0,100.0
1095,57.0,120,116,0.0,100.0
1096,55.0,0,116,0.0,100.0
1097,57.0,120,116,0.0,100.0
1098,52.0,120,236,0.0,100.0
1099,55.0,120,116,0.0,100.0
1100,54.0,120,116,0.0,100.0
1101,52.0,120,116,0.0,100.0
1102,50.0,120,116,0.0,100.0
1103,49.0,120,116,0.0,100.0
1104,47.0,120,116,0.0,100.0
1105,61.0,120,236,0.0,100.0
1106,46.0,120,476,0.0,100.0
1107,61.0,120,116,0.0,100.0
1108,54.0,120,236,0.0,100.0
1109,47.0,120,236,0.0,100.0
1110,62.0,0,236,0.0,100.0
1111,59.0,120,116,0.0,100.0
1112,49.0,120,236,0.0,100.0
1113,64.0,0,236,0.0,100.0
1114,59.0,120,116,0.0,100.0
1115,66.0,120,116,0.0,100.0
1116,59.0,120,116,0.0,100.0
1117,50.0,0,236,0.0,100.0
1118,71.0,120,116,0.0,100.0
1119,69.0,120,116,0.0,100.0
1120,47.0,0,236,0.0,100.0
1121,67.0,0,116,0.0,100.0
1122,52.0,120,236,0.0,100.0
1123,66.0,120,116,0.0,100.0
1124,64.0,0,116,0.0,100.0
1125,54.0,120,236,0.0,100.0
1126,62.0,120,116,0.0,100.0
1127,61.0,120,116,0.0,100.0
1128,55.0,0,236,0.0,100.0
1129,59.0,120,116,0.0,100.0
1130,58.0,120,116,0.0,100.0
1131,52.0,0,236,0.0,100.0
1132,59.0,120,116,0.0,100.0
1133,54.0,120,236,0.0,100.0
1134,59.0,0,356,0.0,100.0
1135,42.0,240,236,0.0,100.0
1136,58.0,120,116,0.0,100.0
1137,47.0,120,116,0.0,100.0
1138,49.0,120,116,0.0,100.0
1139,51.0,120,116,0.0,100.0
1140,59.0,120,476,0.0,100.0
1141,52.0,120,116,0.0,100.0
1142,54.0,120,116,0.0,100.0
1143,56.0,120,116,0.0,100.0
1144,58.0,120,116,0.0,100.0
1145,55.0,0,116,0.0,100.0
1146,52.0,120,116,0.0,100.0
1147,54.0,120,116,0.0,100.0
1148,51.0,0,116,0.0,100.0
1149,52.0,0,116,0.0,100.0
1150,49.0,120,116,0.0,100.0
1151,47.0,120,356,0.0,100.0
1152,54.0,0,356,0.0,100.0
1153,51.0,0,356,0.0,100.0
1154,63.0,360,116,0.0,100.0
1155,59.0,120,956,0.0,100.0
1156,47.0,120,116,0.0,100.0
1157,51.0,120,116,0.0,100.0
1158,63.0,120,476,0.0,100.0
1159,54.0,120,116,0.0,100.0
1160,71.0,120,116,0.0,100.0
1161,59.0,120,236,0.0,100.0
1162,69.0,120,116,0.0,100.0
1163,67.0,120,116,0.0,100.0
1164,66.0,120,116,0.0,100.0
1165,64.0,120,116,0.0,100.0
1166,63.0,120,116,0.0,100.0
1167,61.0,120,116,0.0,100.0
1168,57.0,120,116,0.0,100.0
1169,59.0,120,236,0.0,100.0
1170,55.0,120,116,0.0,100.0
1171,63.0,0,236,0.0,100.0
1172,54.0,120,116,0.0,100.0
1173,64.0,120,116,0.0,100.0
1174,55.0,0,116,0.0,100.0
1175,67.0,0,116,0.0,100.0
1176,52.0,120,116,0.0,100.0
1177,55.0,120,116,0.0,100.0
1178,59.0,120,116,0.0,100.0
1179,71.0,0,356,0.0,100.0
1180,69.0,120,116,0.0,100.0
1181,64.0,120,236,0.0,100.0
1182,67.0,120,116,0.0,100.0
1183,66.0,120,116,0.0,100.0
1184,64.0,120,116,0.0,100.0
1185,62.0,120,116,0.0,100.0
1186,61.0,120,116,0.0,100.0
1187,59.0,120,116,0.0,100.0
1188,55.0,120,116,0.0,100.0
1189,57.0,120,236,0.0,100.0
1190,54.0,120,116,0.0,100.0
1191,52.0,120,116,0.0,100.0
1192,61.0,0,236,0.0,100.0
1193,54.0,120,116,0.0,100.0
1194,50.0,120,116,0.0,100.0
1195,62.0,0,236,0.0,100.0
1196,57.0,120,116,0.0,100.0
1197,54.0,120,236,0.0,100.0
1198,62.0,120,116,0.0,100.0
1199,64.0,120,116,0.0,100.0
1200,62.0,120,116,0.0,100.0
1201,60.0,120,116,0.0,100.0
1202,59.0,120,116,0.0,100.0
1203,57.0,120,116,0.0,100.0
1204,55.0,120,116,0.0,100.0
1205,54.0,120,116,0.0,100.0
1206,50.0,120,116,0.0,100.0
1207,52.0,120,236,0.0,100.0
1208,49.0,120,116,0.0,100.0
1209,64.0,0,116,0.0,100.0
1210,47.0,120,116,0.0,100.0
1211,66.0,0,116,0.0,100.0
1212,46.0,120,236,0.0,100.0
1213,67.0,120,116,0.0,100.0
1214,66.0,120,116,0.0,100.0
1215,42.0,0,236,0.0,100.0
1216,64.0,120,116,0.0,100.0
1217,62.0,120,116,0.0,100.0
1218,47.0,0,236,0.0,100.0
1219,61.0,120,116,0.0,100.0
1220,59.0,0,116,0.0,100.0
1221,49.0,120,236,0.0,100.0
1222,58.0,120,116,0.0,100.0
1223,59.0,120,116,0.0,100.0
1224,58.0,120,116,0.0,100.0
1225,50.0,0,236,0.0,100.0
1226,59.0,0,116,0.0,100.0
1227,61.0,120,116,0.0,100.0
1228,47.0,120,236,0.0,100.0
1229,54.0,120,236,0.0,100.0
1230,61.0,0,356,0.0,100.0
1231,58.0,0,476,0.0,100.0
1232,42.0,240,236,0.0,100.0
1233,59.0,120,116,0.0,100.0
1234,55.0,120,116,0.0,100.0
1235,54.0,120,116,0.0,100.0
1236,47.0,0,476,0.0,100.0
1237,59.0,120,476,0.0,100.0
1238,52.0,120,116,0.0,100.0
1239,51.0,120,116,0.0,100.0
1240,48.0,120,116,0.0,100.0
1241,47.0,120,116,0.0,100.0
1242,45.0,120,116,0.0,100.0
1243,59.0,120,116,0.0,100.0
1244,44.0,120,356,0.0,100.0
1245,64.0,120,236,0.0,100.0
1246,47.0,120,116,0.0,100.0
1247,56.0,120,116,0.0,100.0
1248,52.0,120,236,0.0,100.0
1249,59.0,120,116,0.0,100.0
1250,52.0,120,116,0.0,100.0
1251,40.0,0,236,0.0,100.0
1252,45.0,120,116,0.0,100.0
1253,60.0,120,236,0.0,100.0
1254,48.0,120,116,0.0,100.0
1255,52.0,120,116,0.0,100.0
1256,57.0,0,236,0.0,100.0
1257,60.0,120,236,0.0,100.0
1258,47.0,120,116,0.0,100.0
1259,45.0,120,116,0.0,100.0
1260,43.0,120,116,0.0,100.0
1261,57.0,120,116,0.0,100.0
1262,42.0,120,356,0.0,100.0
1263,45.0,120,116,0.0,100.0
1264,62.0,120,236,0.0,100.0
1265,54.0,120,116,0.0,100.0
1266,50.0,120,236,0.0,100.0
1267,57.0,0,116,0.0,100.0
1268,38.0,120,236,0.0,100.0
1269,50.0,120,116,0.0,100.0
1270,43.0,120,116,0.0,100.0
1271,59.0,120,236,0.0,100.0
1272,47.0,120,116,0.0,100.0
1273,50.0,120,116,0.0,100.0
1274,59.0,0,236,0.0,100.0
1275,55.0,120,116,0.0,100.0
1276,54.0,120,116,0.0,100.0
1277,52.0,120,116,0.0,100.0
1278,54.0,120,116,0.0,100.0
1279,51.0,120,356,0.0,100.0
1280,59.0,120,236,0.0,100.0
1281,42.0,120,116,0.0,100.0
1282,47.0,120,236,0.0,100.0
1283,51.0,120,116,0.0,100.0
1284,54.0,120,116,0.0,100.0
1285,47.0,120,116,0.0,100.0
1286,39.0,0,236,0.0,100.0
1287,40.0,120,116,0.0,100.0
1288,43.0,120,116,0.0,100.0
1289,55.0,120,476,0.0,100.0
1290,47.0,120,116,0.0,100.0
1291,55.0,120,116,0.0,100.0
1292,59.0,120,116,0.0,100.0
1293,52.0,120,476,0.0,100.0
1294,64.0,120,116,0.0,100.0
1295,45.0,120,116,0.0,100.0
1296,48.0,120,116,0.0,100.0
1297,52.0,120,116,0.0,100.0
1298,60.0,120,476,0.0,100.0
1299,61.0,120,116,0.0,100.0
1300,66.0,120,116,0.0,100.0
1301,69.0,120,116,0.0,100.0
1302,57.0,120,476,0.0,100.0
1303,47.0,120,116,0.0,100.0
1304,51.0,120,116,0.0,100.0
1305,63.0,120,476,0.0,100.0
1306,54.0,120,116,0.0,100.0
1307,59.0,120,116,0.0,100.0
1308,61.0,120,116,0.0,100.0
1309,63.0,120,116,0.0,100.0
1310,59.0,120,116,0.0,100.0
1311,45.0,0,236,0.0,100.0
1312,54.0,0,236,0.0,100.0
1313,64.0,120,116,0.0,100.0
1314,43.0,0,236,0.0,100.0
1315,52.0,0,236,0.0,100.0
1316,55.0,120,116,0.0,100.0
1317,45.0,0,116,0.0,100.0
1318,54.0,120,116,0.0,100.0
1319,48.0,120,116,0.0,100.0
1320,52.0,0,116,0.0,100.0
1321,51.0,0,356,0.0,100.0
1322,52.0,360,116,0.0,100.0
1323,47.0,120,476,0.0,100.0
1324,52.0,120,236,0.0,100.0
1325,54.0,120,116,0.0,100.0
1326,56.0,120,116,0.0,100.0
1327,40.0,120,356,0.0,100.0
1328,57.0,120,116,0.0,100.0
1329,59.0,120,116,0.0,100.0
1330,60.0,120,116,0.0,100.0
1331,62.0,120,116,0.0,100.0
1332,57.0,120,116,0.0,100.0
1333,48.0,0,116,0.0,100.0
1334,56.0,0,116,0.0,100.0
1335,47.0,120,116,0.0,100.0
1336,54.0,0,116,0.0,100.0
1337,45.0,120,116,0.0,100.0
1338,47.0,0,356,0.0,100.0
1339,52.0,0,356,0.0,100.0
1340,40.0,120,356,0.0,100.0
1341,44.0,0,356,0.0,100.0
1342,63.0,360,116,0.0,100.0
1343,64.0,120,956,0.0,100.0
1344,47.0,120,116,0.0,100.0
1345,51.0,120,116,0.0,100.0
1346,54.0,120,116,0.0,100.0
1347,63.0,120,476,0.0,100.0
1348,71.0,120,116,0.0,100.0
1349,59.0,120,236,0.0,100.0
1350,69.0,120,116,0.0,100.0
1351,67.0,120,116,0.0,100.0
1352,66.0,120,116,0.0,100.0
1353,64.0,120,116,0.0,100.0
1354,63.0,120,116,0.0,100.0
1355,61.0,120,116,0.0,100.0
1356,57.0,120,116,0.0,100.0
1357,59.0,120,236,0.0,100.0
1358,55.0,120,116,0.0,100.0
1359,54.0,120,116,0.0,100.0
1360,63.0,0,236,0.0,100.0
1361,55.0,120,116,0.0,100.0
1362,64.0,0,116,0.0,100.0
1363,67.0,0,116,0.0,100.0
1364,52.0,120,116,0.0,100.0
1365,55.0,120,116,0.0,100.0
1366,59.0,120,116,0.0,100.0
1367,71.0,0,356,0.0,100.0
1368,69.0,120,116,0.0,100.0
1369,64.0,120,236,0.0,100.0
1370,67.0,120,116,0.0,100.0
1371,66.0,120,116,0.0,100.0
1372,64.0,120,116,0.0,100.0
1373,62.0,120,116,0.0,100.0
1374,61.0,120,116,0.0,100.0
1375,59.0,120,116,0.0,100.0
1376,57.0,120,236,0.0,100.0
1377,55.0,120,116,0.0,100.0
1378,54.0,120,116,0.0,100.0
1379,61.0,0,236,0.0,100.0
1380,52.0,120,116,0.0,100.0
1381,54.0,120,116,0.0,100.0
1382,62.0,0,236,0.0,100.0
1383,50.0,120,116,0.0,100.0
1384,57.0,120,116,0.0,100.0
1385,54.0,120,236,0.0,100.0
1386,62.0,120,116,0.0,100.0
1387,64.0,120,116,0.0,100.0
1388,62.0,120,116,0.0,100.0
1389,60.0,120,116,0.0,100.0
1390,59.0,120,116,0.0,100.0
1391,57.0,120,116,0.0,100.0
1392,55.0,120,116,0.0,100.0
1393,54.0,120,116,0.0,100.0
1394,50.0,120,116,0.0,100.0
1395,52.0,120,236,0.0,100.0
1396,49.0,120,116,0.0,100.0
1397,47.0,0,116,0.0,100.0
1398,64.0,120,116,0.0,100.0
1399,66.0,120,116,0.0,100.0
1400,67.0,120,116,0.0,100.0
1401,46.0,0,236,0.0,100.0
1402,66.0,0,116,0.0,100.0
1403,64.0,120,116,0.0,100.0
1404,42.0,120,236,0.0,100.0
1405,62.0,0,116,0.0,100.0
1406,61.0,120,116,0.0,100.0
1407,47.0,120,236,0.0,100.0
1408,59.0,0,116,0.0,100.0
1409,58.0,120,116,0.0,100.0
1410,49.0,120,236,0.0,100.0
1411,59.0,0,116,0.0,100.0
1412,58.0,120,116,0.0,100.0
1413,50.0,120,236,0.0,100.0
1414,59.0,0,116,0.0,100.0
1415,47.0,120,236,0.0,100.0
1416,61.0,120,116,0.0,100.0
1417,54.0,0,236,0.0,100.0
1418,61.0,120,356,0.0,100.0
1419,58.0,0,476,0.0,100.0
1420,59.0,120,116,0.0,100.0
1421,42.0,240,236,0.0,100.0
1422,55.0,120,116,0.0,100.0
1423,54.0,120,116,0.0,100.0
1424,52.0,120,116,0.0,100.0
1425,59.0,120,476,0.0,100.0
1426,47.0,0,476,0.0,100.0
1427,51.0,120,116,0.0,100.0
1428,48.0,120,116,0.0,100.0
1429,47.0,120,116,0.0,100.0
1430,45.0,120,116,0.0,100.0
1431,59.0,120,116,0.0,100.0
1432,44.0,120,356,0.0,100.0
1433,47.0,120,116,0.0,100.0
1434,64.0,120,236,0.0,100.0
1435,52.0,120,236,0.0,100.0
1436,56.0,120,116,0.0,100.0
1437,59.0,120,116,0.0,100.0
1438,52.0,120,116,0.0,100.0
1439,40.0,0,236,0.0,100.0
1440,45.0,120,116,0.0,100.0
1441,60.0,120,236,0.0,100.0
1442,48.0,120,116,0.0,100.0
1443,52.0,120,116,0.0,100.0
1444,57.0,120,236,0.0,100.0
1445,60.0,0,236,0.0,100.0
1446,47.0,120,116,0.0,100.0
1447,45.0,120,116,0.0,100.0
1448,43.0,120,116,0.0,100.0
1449,57.0,120,116,0.0,100.0
1450,42.0,120,356,0.0,100.0
1451,45.0,120,116,0.0,100.0
1452,62.0,120,236,0.0,100.0
1453,54.0,120,116,0.0,100.0
1454,50.0,120,236,0.0,100.0
1455,57.0,0,116,0.0,100.0
1456,38.0,120,236,0.0,100.0
1457,50.0,120,116,0.0,100.0
1458,43.0,120,116,0.0,100.0
1459,59.0,120,236,0.0,100.0
1460,47.0,120,116,0.0,100.0
1461,50.0,120,116,0.0,100.0
1462,55.0,120,116,0.0,100.0
1463,59.0,120,236,0.0,100.0
1464,54.0,120,116,0.0,100.0
1465,52.0,120,116,0.0,100.0
1466,54.0,120,116,0.0,100.0
1467,51.0,120,356,0.0,100.0
1468,42.0,120,116,0.0,100.0
1469,59.0,120,236,0.0,100.0
1470,47.0,120,236,0.0,100.0
1471,51.0,120,116,0.0,100.0
1472,54.0,0,116,0.0,100.0
1473,47.0,120,116,0.0,100.0
1474,39.0,120,236,0.0,100.0
1475,40.0,120,116,0.0,100.0
1476,43.0,120,116,0.0,100.0
1477,47.0,120,116,0.0,100.0
1478,55.0,120,476,0.0,100.0
1479,55.0,120,116,0.0,100.0
1480,59.0,120,116,0.0,100.0
1481,64.0,120,116,0.0,100.0
1482,52.0,120,476,0.0,100.0
1483,45.0,120,116,0.0,100.0
1484,48.0,120,116,0.0,100.0
1485,52.0,120,116,0.0,100.0
1486,60.0,120,476,0.0,100.0
1487,61.0,120,116,0.0,100.0
1488,66.0,120,116,0.0,100.0
1489,57.0,120,476,0.0,100.0
1490,69.0,120,116,0.0,100.0
1491,47.0,120,116,0.0,100.0
1492,51.0,120,116,0.0,100.0
1493,54.0,120,116,0.0,100.0
1494,63.0,120,476,0.0,100.0
1495,59.0,120,116,0.0,100.0
1496,61.0,120,116,0.0,100.0
1497,63.0,0,116,0.0,100.0
1498,59.0,120,116,0.0,100.0
1499,54.0,0,236,0.0,100.0
1500,45.0,120,236,0.0,100.0
1501,64.0,0,116,0.0,100.0
1502,55.0,120,116,0.0,100.0
1503,52.0,120,236,0.0,100.0
1504,43.0,0,236,0.0,100.0
1505,54.0,0,116,0.0,100.0
1506,45.0,120,116,0.0,100.0
1507,52.0,120,116,0.0,100.0
1508,48.0,0,116,0.0,100.0
1509,51.0,120,356,0.0,100.0
1510,47.0,0,476,0.0,100.0
1511,52.0,360,116,0.0,100.0
1512,52.0,120,236,0.0,100.0
1513,54.0,120,116,0.0,100.0
1514,40.0,120,356,0.0,100.0
1515,56.0,120,116,0.0,100.0
1516,57.0,120,116,0.0,100.0
1517,59.0,120,116,0.0,100.0
1518,60.0,120,116,0.0,100.0
1519,62.0,120,116,0.0,100.0
1520,57.0,0,116,0.0,100.0
1521,48.0,120,116,0.0,100.0
1522,56.0,0,116,0.0,100.0
1523,47.0,120,116,0.0,100.0
1524,45.0,120,116,0.0,100.0
1525,54.0,0,116,0.0,100.0
1526,40.0,120,356,0.0,100.0
1527,52.0,0,356,0.0,100.0
1528,44.0,0,356,0.0,100.0
1529,47.0,0,356,0.0,100.0
1530,64.0,120,956,0.0,100.0
1531,52.0,3120,236,0.0,100.0
1532,52.0,240,716,0.0,100.0
1533,40.0,480,236,0.0,100.0
1534,54.0,0,236,0.0,100.0
1535,52.0,240,236,0.0,100.0
1536,51.0,240,236,0.0,100.0
1537,54.0,0,356,0.0,100.0
1538,52.0,360,56,0.0,100.0
1539,54.0,60,56,0.0,100.0
1540,52.0,0,236,0.0,100.0
1541,55.0,60,356,0.0,100.0
1542,57.0,360,116,0.0,100.0
1543,48.0,120,476,0.0,100.0
1544,57.0,0,716,0.0,100.0
1545,55.0,240,116,0.0,100.0
1546,54.0,0,476,0.0,100.0
1547,50.0,480,476,0.0,100.0
1548,57.0,120,116,0.0,100.0
1549,59.0,120,716,0.0,100.0
1550,43.0,480,236,0.0,100.0
1551,59.0,240,236,0.0,100.0
1552,54.0,0,236,0.0,100.0
1553,55.0,0,956,0.0,100.0
1554,60.0,0,476,0.0,100.0
1555,55.0,240,476,0.0,100.0
1556,52.0,0,476,0.0,100.0
1557,59.0,0,476,0.0,100.0
1558,54.0,0,476,0.0,100.0
1559,50.0,480,476,0.0,100.0
1560,55.0,480,476,0.0,100.0
1561,64.0,0,716,0.0,100.0
1562,66.0,240,236,0.0,100.0
1563,57.0,480,476,0.0,100.0
1564,48.0,0,956,0.0,100.0
1565,59.0,240,476,0.0,100.0
1566,47.0,480,236,0.0,100.0
1567,59.0,240,236,0.0,100.0
1568,63.0,0,1436,0.0,100.0
1569,57.0,240,476,0.0,100.0
1570,55.0,0,476,0.0,100.0
1571,64.0,480,956,0.0,100.0
1572,66.0,480,716,0.0,100.0
1573,64.0,240,116,0.0,100.0
1574,54.0,0,956,0.0,100.0
1575,63.0,480,476,0.0,100.0
1576,66.0,120,116,0.0,100.0
1577,52.0,0,476,0.0,100.0
1578,64.0,0,476,0.0,100.0
1579,67.0,120,716,0.0,100.0
1580,40.0,480,236,0.0,100.0
1581,54.0,0,236,0.0,100.0
1582,66.0,240,236,0.0,100.0
1583,55.0,0,236,0.0,100.0
1584,64.0,240,476,0.0,100.0
1585,57.0,240,236,0.0,100.0
1586,62.0,240,236,0.0,100.0
1587,59.0,0,476,0.0,100.0
1588,64.0,240,236,0.0,100.0
1589,57.0,0,476,0.0,100.0
1590,54.0,0,476,0.0,100.0
1591,60.0,240,716,0.0,100.0
1592,55.0,480,476,0.0,100.0
1593,59.0,240,236,0.0,100.0
1594,48.0,0,476,0.0,100.0
1595,64.0,0,716,0.0,100.0
1596,60.0,240,716,0.0,100.0
1597,48.0,480,236,0.0,100.0
1598,62.0,0,236,0.0,100.0
1599,50.0,240,236,0.0,100.0
1600,60.0,0,236,0.0,100.0
1601,59.0,240,236,0.0,100.0
1602,60.0,240,236,0.0,100.0
1603,52.0,240,956,0.0,100.0
1604,62.0,240,236,0.0,100.0
1605,55.0,0,476,0.0,100.0
1606,54.0,240,476,0.0,100.0
1607,50.0,0,476,0.0,100.0
1608,59.0,0,716,0.0,100.0
1609,57.0,240,236,0.0,100.0
1610,52.0,0,476,0.0,100.0
1611,48.0,480,476,0.0,100.0
1612,50.0,240,476,0.0,100.0
1613,47.0,0,476,0.0,100.0
1614,62.0,0,716,0.0,100.0
1615,60.0,240,236,0.0,100.0
1616,52.0,0,476,0.0,100.0
1617,48.0,480,476,0.0,100.0
1618,59.0,0,236,0.0,100.0
1619,54.0,0,476,0.0,100.0
1620,50.0,240,476,0.0,100.0
1621,57.0,240,236,0.0,100.0
1622,52.0,240,236,0.0,100.0
1623,55.0,0,236,0.0,100.0
1624,57.0,240,116,0.0,100.0
1625,59.0,120,116,0.0,100.0
1626,48.0,0,236,0.0,100.0
1627,50.0,0,476,0.0,100.0
1628,54.0,120,716,0.0,100.0
1629,50.0,480,476,0.0,100.0
1630,55.0,240,236,0.0,100.0
1631,55.0,240,716,0.0,100.0
1632,57.0,240,116,0.0,100.0
1633,59.0,120,116,0.0,100.0
1634,43.0,480,476,0.0,100.0
1635,60.0,0,116,0.0,100.0
1636,62.0,120,116,0.0,100.0
1637,64.0,120,116,0.0,100.0
1638,66.0,120,116,0.0,100.0
1639,42.0,120,476,0.0,100.0
1640,67.0,0,476,0.0,100.0
1641,40.0,120,476,0.0,100.0
1642,55.0,0,476,0.0,100.0
1643,52.0,480,476,0.0,100.0
1644,61.0,0,716,0.0,100.0
1645,62.0,240,116,0.0,100.0
1646,50.0,0,476,0.0,100.0
1647,54.0,480,476,0.0,100.0
1648,64.0,120,116,0.0,100.0
1649,49.0,0,476,0.0,100.0
1650,52.0,0,476,0.0,100.0
1651,58.0,120,716,0.0,100.0
1652,59.0,240,236,0.0,100.0
1653,50.0,0,476,0.0,100.0
1654,47.0,480,476,0.0,100.0
1655,54.0,240,476,0.0,100.0
1656,49.0,0,476,0.0,100.0
1657,46.0,0,476,0.0,100.0
1658,55.0,480,476,0.0,100.0
1659,47.0,0,476,0.0,100.0
1660,50.0,0,476,0.0,100.0
1661,49.0,480,476,0.0,100.0
1662,52.0,0,716,0.0,100.0
1663,52.0,240,236,0.0,100.0
1664,47.0,480,476,0.0,100.0
1665,46.0,0,476,0.0,100.0
1666,52.0,0,716,0.0,100.0
1667,54.0,240,236,0.0,100.0
1668,42.0,480,476,0.0,100.0
1669,49.0,240,956,0.0,100.0
1670,50.0,240,236,0.0,100.0
1671,59.0,240,236,0.0,100.0
1672,47.0,0,476,0.0,100.0
1673,67.0,0,236,0.0,100.0
1674,40.0,240,476,0.0,100.0
1675,59.0,240,236,0.0,100.0
1676,58.0,0,36,0.0,100.0
1677,59.0,40,36,0.0,100.0
1678,58.0,40,36,0.0,100.0
1679,59.0,40,36,0.0,100.0
1680,58.0,40,36,0.0,100.0
1681,59.0,40,36,0.0,100.0
1682,49.0,0,956,0.0,100.0
1683,58.0,40,476,0.0,100.0
1684,42.0,240,956,0.0,100.0
1685,52.0,240,476,0.0,100.0
1686,59.0,240,236,0.0,100.0
1687,51.0,0,716,0.0,100.0
1688,54.0,240,236,0.0,100.0
1689,47.0,480,476,0.0,100.0
1690,59.0,240,956,0.0,100.0
1691,56.0,0,236,0.0,100.0
1692,58.0,240,236,0.0,100.0
1693,52.0,0,476,0.0,100.0
1694,49.0,240,476,0.0,100.0
1695,47.0,0,956,0.0,100.0
1696,51.0,240,956,0.0,100.0
1697,59.0,0,956,0.0,100.0
1698,52.0,1200,236,0.0,100.0
1699,40.0,480,236,0.0,100.0
1700,52.0,240,716,0.0,100.0
1701,54.0,0,236,0.0,100.0
1702,52.0,240,236,0.0,100.0
1703,51.0,0,236,0.0,100.0
1704,54.0,240,356,0.0,100.0
1705,52.0,360,56,0.0,100.0
1706,54.0,60,56,0.0,100.0
1707,52.0,0,236,0.0,100.0
1708,55.0,60,356,0.0,100.0
1709,57.0,360,116,0.0,100.0
1710,48.0,0,476,0.0,100.0
1711,57.0,120,716,0.0,100.0
1712,55.0,240,116,0.0,100.0
1713,54.0,0,476,0.0,100.0
1714,50.0,480,476,0.0,100.0
1715,57.0,120,116,0.0,100.0
1716,59.0,120,716,0.0,100.0
1717,43.0,480,236,0.0,100.0
1718,55.0,0,956,0.0,100.0
1719,54.0,0,236,0.0,100.0
1720,59.0,240,236,0.0,100.0
1721,52.0,240,476,0.0,100.0
1722,55.0,0,476,0.0,100.0
1723,60.0,0,476,0.0,100.0
1724,50.0,0,476,0.0,100.0
1725,54.0,0,476,0.0,100.0
1726,59.0,480,476,0.0,100.0
1727,55.0,0,476,0.0,100.0
1728,64.0,480,716,0.0,100.0
1729,66.0,240,236,0.0,100.0
1730,57.0,480,476,0.0,100.0
1731,48.0,0,956,0.0,100.0
1732,59.0,240,476,0.0,100.0
1733,47.0,480,236,0.0,100.0
1734,59.0,240,236,0.0,100.0
1735,63.0,0,1436,0.0,100.0
1736,57.0,240,476,0.0,100.0
1737,55.0,0,476,0.0,100.0
1738,64.0,480,956,0.0,100.0
1739,66.0,480,716,0.0,100.0
1740,64.0,240,116,0.0,100.0
1741,54.0,0,956,0.0,100.0
1742,63.0,480,476,0.0,100.0
1743,66.0,120,116,0.0,100.0
1744,52.0,0,476,0.0,100.0
1745,64.0,0,476,0.0,100.0
1746,67.0,120,716,0.0,100.0
1747,40.0,480,236,0.0,100.0
1748,54.0,0,236,0.0,100.0
1749,66.0,240,236,0.0,100.0
1750,55.0,0,236,0.0,100.0
1751,64.0,240,476,0.0,100.0
1752,57.0,240,236,0.0,100.0
1753,62.0,240,236,0.0,100.0
1754,59.0,0,476,0.0,100.0
1755,64.0,240,236,0.0,100.0
1756,57.0,240,476,0.0,100.0
1757,54.0,0,476,0.0,100.0
1758,60.0,0,716,0.0,100.0
1759,55.0,480,476,0.0,100.0
1760,59.0,240,236,0.0,100.0
1761,48.0,0,476,0.0,100.0
1762,60.0,0,716,0.0,100.0
1763,64.0,240,716,0.0,100.0
1764,48.0,480,236,0.0,100.0
1765,62.0,240,236,0.0,100.0
1766,50.0,0,236,0.0,100.0
1767,60.0,240,236,0.0,100.0
1768,59.0,240,236,0.0,100.0
1769,60.0,0,236,0.0,100.0
1770,52.0,0,956,0.0,100.0
1771,55.0,240,476,0.0,100.0
1772,62.0,240,236,0.0,100.0
1773,54.0,0,476,0.0,100.0
1774,50.0,240,476,0.0,100.0
1775,59.0,0,716,0.0,100.0
1776,57.0,240,236,0.0,100.0
1777,52.0,0,476,0.0,100.0
1778,48.0,480,476,0.0,100.0
1779,47.0,240,476,0.0,100.0
1780,50.0,0,476,0.0,100.0
1781,62.0,0,716,0.0,100.0
1782,52.0,0,476,0.0,100.0
1783,60.0,240,236,0.0,100.0
1784,48.0,480,476,0.0,100.0
1785,59.0,240,236,0.0,100.0
1786,50.0,0,476,0.0,100.0
1787,54.0,0,476,0.0,100.0
1788,57.0,240,236,0.0,100.0
1789,55.0,240,236,0.0,100.0
1790,52.0,0,236,0.0,100.0
1791,57.0,240,116,0.0,100.0
1792,48.0,0,236,0.0,100.0
1793,59.0,120,116,0.0,100.0
1794,50.0,120,476,0.0,100.0
1795,54.0,0,716,0.0,100.0
1796,55.0,240,236,0.0,100.0
1797,50.0,480,476,0.0,100.0
1798,55.0,240,716,0.0,100.0
1799,57.0,240,116,0.0,100.0
1800,59.0,120,116,0.0,100.0
1801,43.0,480,476,0.0,100.0
1802,60.0,0,116,0.0,100.0
1803,62.0,120,116,0.0,100.0
1804,64.0,120,116,0.0,100.0
1805,66.0,120,116,0.0,100.0
1806,42.0,120,476,0.0,100.0
1807,40.0,0,476,0.0,100.0
1808,67.0,120,476,0.0,100.0
1809,52.0,480,476,0.0,100.0
1810,55.0,0,476,0.0,100.0
1811,61.0,0,716,0.0,100.0
1812,62.0,240,116,0.0,100.0
1813,64.0,120,116,0.0,100.0
1814,54.0,480,476,0.0,100.0
1815,50.0,0,476,0.0,100.0
1816,49.0,0,476,0.0,100.0
1817,52.0,120,476,0.0,100.0
1818,58.0,0,716,0.0,100.0
1819,59.0,240,236,0.0,100.0
1820,47.0,0,476,0.0,100.0
1821,50.0,480,476,0.0,100.0
1822,46.0,240,476,0.0,100.0
1823,54.0,0,476,0.0,100.0
1824,49.0,0,476,0.0,100.0
1825,50.0,480,476,0.0,100.0
1826,47.0,0,476,0.0,100.0
1827,55.0,0,476,0.0,100.0
1828,49.0,480,476,0.0,100.0
1829,52.0,0,716,0.0,100.0
1830,47.0,480,476,0.0,100.0
1831,52.0,240,236,0.0,100.0
1832,46.0,0,476,0.0,100.0
1833,52.0,240,716,0.0,100.0
1834,42.0,480,476,0.0,100.0
1835,49.0,0,956,0.0,100.0
1836,54.0,240,236,0.0,100.0
1837,50.0,0,236,0.0,100.0
1838,59.0,240,236,0.0,100.0
1839,47.0,240,476,0.0,100.0
1840,67.0,0,236,0.0,100.0
1841,59.0,240,236,0.0,100.0
1842,40.0,240,476,0.0,100.0
1843,58.0,0,36,0.0,100.0
1844,59.0,40,36,0.0,100.0
1845,58.0,40,36,0.0,100.0
1846,59.0,40,36,0.0,100.0
1847,58.0,40,36,0.0,100.0
1848,59.0,40,36,0.0,100.0
1849,49.0,0,956,0.0,100.0
1850,58.0,40,476,0.0,100.0
1851,52.0,240,476,0.0,100.0
1852,59.0,240,236,0.0,100.0
1853,42.0,240,956,0.0,100.0
1854,51.0,240,716,0.0,100.0
1855,47.0,480,476,0.0,100.0
1856,59.0,0,956,0.0,100.0
1857,54.0,240,236,0.0,100.0
1858,56.0,240,236,0.0,100.0
1859,58.0,240,236,0.0,100.0
1860,52.0,0,476,0.0,100.0
1861,49.0,0,476,0.0,100.0
1862,47.0,240,956,0.0,100.0
1863,59.0,0,956,0.0,100.0
1864,51.0,0,956,0.0,100.0
1865,71.0,1200,236,0.0,100.0
1866,71.0,0,716,0.0,100.0
1867,67.0,0,716,0.0,100.0
1868,55.0,240,716,0.0,100.0
1869,62.0,0,716,0.0,100.0
1870,43.0,480,476,0.0,100.0
1871,57.0,240,236,0.0,100.0
1872,69.0,0,236,0.0,100.0
1873,67.0,240,236,0.0,100.0
1874,59.0,0,236,0.0,100.0
1875,60.0,0,236,0.0,100.0
1876,69.0,240,236,0.0,100.0
1877,66.0,240,716,0.0,100.0
1878,66.0,240,236,0.0,100.0
1879,60.0,480,476,0.0,100.0
1880,62.0,0,956,0.0,100.0
1881,59.0,240,476,0.0,100.0
1882,62.0,0,476,0.0,100.0
1883,67.0,0,476,0.0,100.0
1884,60.0,480,476,0.0,100.0
1885,64.0,0,476,0.0,100.0
1886,69.0,480,236,0.0,100.0
1887,59.0,0,476,0.0,100.0
1888,67.0,240,236,0.0,100.0
1889,66.0,0,236,0.0,100.0
1890,64.0,240,236,0.0,100.0
1891,57.0,240,476,0.0,100.0
1892,60.0,0,476,0.0,100.0
1893,59.0,0,476,0.0,100.0
1894,47.0,480,236,0.0,100.0
1895,59.0,240,236,0.0,100.0
1896,63.0,240,236,0.0,100.0
1897,57.0,240,476,0.0,100.0
1898,56.0,0,476,0.0,100.0
1899,64.0,0,716,0.0,100.0
1900,52.0,480,476,0.0,100.0
1901,62.0,240,236,0.0,100.0
1902,59.0,240,956,0.0,100.0
1903,60.0,0,236,0.0,100.0
1904,62.0,240,236,0.0,100.0
1905,57.0,240,956,0.0,100.0
1906,50.0,0,476,0.0,100.0
1907,59.0,240,716,0.0,100.0
1908,52.0,0,476,0.0,100.0
1909,59.0,240,236,0.0,100.0
1910,56.0,480,476,0.0,100.0
1911,57.0,240,476,0.0,100.0
1912,60.0,0,476,0.0,100.0
1913,45.0,0,476,0.0,100.0
1914,57.0,0,476,0.0,100.0
1915,53.0,480,476,0.0,100.0
1916,62.0,480,236,0.0,100.0
1917,60.0,240,236,0.0,100.0
1918,55.0,0,476,0.0,100.0
1919,52.0,0,476,0.0,100.0
1920,59.0,0,236,0.0,100.0
1921,57.0,240,236,0.0,100.0
1922,53.0,0,476,0.0,100.0
1923,50.0,240,476,0.0,100.0
1924,56.0,0,476,0.0,100.0
1925,52.0,240,476,0.0,100.0
1926,50.0,480,476,0.0,100.0
1927,56.0,240,236,0.0,100.0
1928,48.0,0,476,0.0,100.0
1929,52.0,0,476,0.0,100.0
1930,57.0,240,716,0.0,100.0
1931,57.0,240,236,0.0,100.0
1932,47.0,0,476,0.0,100.0
1933,50.0,480,476,0.0,100.0
1934,45.0,0,476,0.0,100.0
1935,53.0,240,476,0.0,100.0
1936,62.0,0,716,0.0,100.0
1937,64.0,240,236,0.0,100.0
1938,52.0,480,476,0.0,100.0
1939,44.0,0,476,0.0,100.0
1940,52.0,0,236,0.0,100.0
1941,60.0,0,236,0.0,100.0
1942,45.0,240,236,0.0,100.0
1943,62.0,240,236,0.0,100.0
1944,50.0,0,236,0.0,100.0
1945,59.0,0,476,0.0,100.0
1946,52.0,240,476,0.0,100.0
1947,57.0,0,956,0.0,100.0
1948,57.0,240,236,0.0,100.0
1949,40.0,480,476,0.0,100.0
1950,56.0,0,476,0.0,100.0
1951,57.0,240,716,0.0,100.0
1952,45.0,0,956,0.0,100.0
1953,52.0,480,476,0.0,100.0
1954,59.0,240,236,0.0,100.0
1955,57.0,0,476,0.0,100.0
1956,60.0,240,716,0.0,100.0
1957,61.0,240,236,0.0,100.0
1958,55.0,480,476,0.0,100.0
1959,59.0,0,476,0.0,100.0
1960,54.0,0,476,0.0,100.0
1961,62.0,240,716,0.0,100.0
1962,52.0,0,476,0.0,100.0
1963,55.0,480,476,0.0,100.0
1964,64.0,240,236,0.0,100.0
1965,50.0,0,476,0.0,100.0
1966,66.0,240,716,0.0,100.0
1967,57.0,0,956,0.0,100.0
1968,48.0,480,476,0.0,100.0
1969,66.0,240,236,0.0,100.0
1970,62.0,0,1436,0.0,100.0
1971,47.0,0,476,0.0,100.0
1972,67.0,240,716,0.0,100.0
1973,55.0,0,956,0.0,100.0
1974,48.0,480,476,0.0,100.0
1975,64.0,0,476,0.0,100.0
1976,69.0,240,236,0.0,100.0
1977,69.0,0,476,0.0,100.0
1978,60.0,0,476,0.0,100.0
1979,45.0,240,476,0.0,100.0
1980,67.0,240,116,0.0,100.0
1981,62.0,0,476,0.0,100.0
1982,50.0,480,476,0.0,100.0
1983,69.0,120,116,0.0,100.0
1984,54.0,0,476,0.0,100.0
1985,55.0,120,236,0.0,100.0
1986,55.0,240,236,0.0,100.0
1987,57.0,240,236,0.0,100.0
1988,62.0,0,716,0.0,100.0
1989,71.0,0,956,0.0,100.0
1990,55.0,240,236,0.0,100.0
1991,63.0,0,236,0.0,100.0
1992,54.0,0,236,0.0,100.0
1993,64.0,240,356,0.0,100.0
1994,63.0,120,56,0.0,100.0
1995,52.0,240,236,0.0,100.0
1996,64.0,60,56,0.0,100.0
1997,54.0,480,476,0.0,100.0
1998,71.0,240,236,0.0,100.0
1999,51.0,0,1436,0.0,100.0
2000,66.0,60,1436,0.0,100.0
2001,59.0,480,476,0.0,100.0
2002,67.0,0,116,0.0,100.0
2003,69.0,120,116,0.0,100.0
2004,71.0,120,236,0.0,100.0
2005,59.0,0,476,0.0,100.0
2006,52.0,240,476,0.0,100.0
2007,71.0,240,116,0.0,100.0
2008,69.0,120,116,0.0,100.0
2009,67.0,0,236,0.0,100.0
2010,59.0,0,236,0.0,100.0
2011,50.0,120,236,0.0,100.0
2012,69.0,240,116,0.0,100.0
2013,48.0,0,236,0.0,100.0
2014,64.0,0,236,0.0,100.0
2015,71.0,120,116,0.0,100.0
2016,72.0,120,236,0.0,100.0
2017,63.0,240,116,0.0,100.0
2018,64.0,120,116,0.0,100.0
2019,66.0,120,236,0.0,100.0
2020,54.0,0,476,0.0,100.0
2021,47.0,0,476,0.0,100.0
2022,66.0,240,116,0.0,100.0
2023,64.0,120,116,0.0,100.0
2024,45.0,0,236,0.0,100.0
2025,54.0,0,236,0.0,100.0
2026,63.0,120,236,0.0,100.0
2027,64.0,240,116,0.0,100.0
2028,66.0,120,116,0.0,100.0
2029,67.0,120,236,0.0,100.0
2030,55.0,0,476,0.0,100.0
2031,43.0,0,476,0.0,100.0
2032,52.0,0,476,0.0,100.0
2033,60.0,240,716,0.0,100.0
2034,45.0,0,956,0.0,100.0
2035,55.0,480,476,0.0,100.0
2036,61.0,240,236,0.0,100.0
2037,54.0,0,476,0.0,100.0
2038,62.0,240,716,0.0,100.0
2039,63.0,240,236,0.0,100.0
2040,47.0,0,956,0.0,100.0
2041,59.0,480,956,0.0,100.0
2042,48.0,0,476,0.0,100.0
2043,64.0,240,716,0.0,100.0
2044,49.0,0,476,0.0,100.0
2045,64.0,240,236,0.0,100.0
2046,50.0,240,476,0.0,100.0
2047,57.0,480,956,0.0,100.0
2048,66.0,0,716,0.0,100.0
2049,51.0,480,476,0.0,100.0
2050,54.0,0,476,0.0,100.0
2051,59.0,240,236,0.0,100.0
2052,67.0,240,236,0.0,100.0
2053,69.0,300,56,0.0,100.0
2054,67.0,60,56,0.0,100.0
2055,66.0,60,56,0.0,100.0
2056,64.0,60,116,0.0,100.0
2057,63.0,120,116,0.0,100.0
2058,64.0,120,116,0.0,100.0
2059,66.0,120,116,0.0,100.0
2060,45.0,0,476,0.0,100.0
2061,66.0,120,36,0.0,100.0
2062,67.0,40,36,0.0,100.0
2063,66.0,40,36,0.0,100.0
2064,67.0,40,36,0.0,100.0
2065,66.0,40,36,0.0,100.0
2066,67.0,40,36,0.0,100.0
2067,52.0,0,1436,0.0,100.0
2068,66.0,40,476,0.0,100.0
2069,64.0,240,236,0.0,100.0
2070,51.0,240,476,0.0,100.0
2071,47.0,0,956,0.0,100.0
2072,64.0,0,716,0.0,100.0
2073,66.0,240,56,0.0,100.0
2074,68.0,60,56,0.0,100.0
2075,69.0,60,116,0.0,100.0
2076,52.0,240,956,0.0,100.0
2077,63.0,0,356,0.0,100.0
2078,57.0,0,476,0.0,100.0
2079,63.0,360,116,0.0,100.0
2080,54.0,120,476,0.0,100.0
2081,56.0,0,956,0.0,100.0
2082,59.0,120,956,0.0,100.0
2083,52.0,0,956,0.0,100.0
2084,40.0,480,1916,0.0,100.0
2085,64.0,0,956,0.0,100.0
2086,71.0,1200,236,0.0,100.0
2087,62.0,0,716,0.0,100.0
2088,71.0,240,716,0.0,100.0
2089,67.0,0,716,0.0,100.0
2090,55.0,0,716,0.0,100.0
2091,69.0,0,236,0.0,100.0
2092,57.0,240,236,0.0,100.0
2093,43.0,480,476,0.0,100.0
2094,67.0,0,236,0.0,100.0
2095,59.0,240,236,0.0,100.0
2096,69.0,240,236,0.0,100.0
2097,60.0,0,236,0.0,100.0
2098,66.0,0,716,0.0,100.0
2099,66.0,240,236,0.0,100.0
2100,60.0,480,476,0.0,100.0
2101,62.0,240,956,0.0,100.0
2102,67.0,240,476,0.0,100.0
2103,59.0,0,476,0.0,100.0
2104,62.0,0,476,0.0,100.0
2105,60.0,0,476,0.0,100.0
2106,64.0,480,476,0.0,100.0
2107,69.0,480,236,0.0,100.0
2108,67.0,240,236,0.0,100.0
2109,59.0,0,476,0.0,100.0
2110,66.0,0,236,0.0,100.0
2111,57.0,240,476,0.0,100.0
2112,60.0,0,476,0.0,100.0
2113,64.0,240,236,0.0,100.0
2114,59.0,0,476,0.0,100.0
2115,47.0,480,236,0.0,100.0
2116,59.0,240,236,0.0,100.0
2117,63.0,240,236,0.0,100.0
2118,57.0,240,476,0.0,100.0
2119,56.0,0,476,0.0,100.0
2120,64.0,240,716,0.0,100.0
2121,59.0,0,956,0.0,100.0
2122,52.0,480,476,0.0,100.0
2123,62.0,240,236,0.0,100.0
2124,60.0,240,236,0.0,100.0
2125,62.0,240,236,0.0,100.0
2126,57.0,0,956,0.0,100.0
2127,50.0,0,476,0.0,100.0
2128,59.0,240,716,0.0,100.0
2129,59.0,240,236,0.0,100.0
2130,56.0,480,476,0.0,100.0
2131,52.0,0,476,0.0,100.0
2132,45.0,240,476,0.0,100.0
2133,60.0,0,476,0.0,100.0
2134,57.0,0,476,0.0,100.0
2135,57.0,480,476,0.0,100.0
2136,53.0,0,476,0.0,100.0
2137,62.0,0,236,0.0,100.0
2138,60.0,240,236,0.0,100.0
2139,55.0,0,476,0.0,100.0
2140,52.0,480,476,0.0,100.0
2141,59.0,0,236,0.0,100.0
2142,57.0,240,236,0.0,100.0
2143,50.0,240,476,0.0,100.0
2144,53.0,0,476,0.0,100.0
2145,56.0,0,476,0.0,100.0
2146,52.0,240,476,0.0,100.0
2147,56.0,240,236,0.0,100.0
2148,50.0,480,476,0.0,100.0
2149,52.0,0,476,0.0,100.0
2150,48.0,0,476,0.0,100.0
2151,57.0,240,716,0.0,100.0
2152,57.0,240,236,0.0,100.0
2153,50.0,480,476,0.0,100.0
2154,47.0,0,476,0.0,100.0
2155,53.0,0,476,0.0,100.0
2156,45.0,240,476,0.0,100.0
2157,62.0,0,716,0.0,100.0
2158,64.0,240,236,0.0,100.0
2159,52.0,480,476,0.0,100.0
2160,44.0,0,476,0.0,100.0
2161,60.0,0,236,0.0,100.0
2162,52.0,0,236,0.0,100.0
2163,45.0,240,236,0.0,100.0
2164,50.0,240,236,0.0,100.0
2165,62.0,0,236,0.0,100.0
2166,57.0,0,956,0.0,100.0
2167,52.0,0,476,0.0,100.0
2168,59.0,240,476,0.0,100.0
2169,40.0,0,476,0.0,100.0
2170,57.0,240,236,0.0,100.0
2171,56.0,480,476,0.0,100.0
2172,57.0,0,716,0.0,100.0
2173,59.0,240,236,0.0,100.0
2174,52.0,480,476,0.0,100.0
2175,45.0,240,956,0.0,100.0
2176,57.0,0,476,0.0,100.0
2177,60.0,240,716,0.0,100.0
2178,55.0,480,476,0.0,100.0
2179,61.0,240,236,0.0,100.0
2180,54.0,0,476,0.0,100.0
2181,59.0,0,476,0.0,100.0
2182,62.0,240,716,0.0,100.0
2183,55.0,0,476,0.0,100.0
2184,52.0,480,476,0.0,100.0
2185,64.0,240,236,0.0,100.0
2186,50.0,0,476,0.0,100.0
2187,66.0,240,716,0.0,100.0
2188,66.0,240,236,0.0,100.0
2189,48.0,480,476,0.0,100.0
2190,57.0,0,956,0.0,100.0
2191,62.0,0,1436,0.0,100.0
2192,47.0,0,476,0.0,100.0
2193,67.0,0,716,0.0,100.0
2194,55.0,240,956,0.0,100.0
2195,48.0,0,476,0.0,100.0
2196,64.0,480,476,0.0,100.0
2197,69.0,240,236,0.0,100.0
2198,45.0,0,476,0.0,100.0
2199,60.0,0,476,0.0,100.0
2200,69.0,240,476,0.0,100.0
2201,67.0,240,116,0.0,100.0
2202,54.0,0,476,0.0,100.0
2203,62.0,480,476,0.0,100.0
2204,50.0,0,476,0.0,100.0
2205,69.0,120,116,0.0,100.0
2206,55.0,120,236,0.0,100.0
2207,55.0,240,236,0.0,100.0
2208,57.0,240,236,0.0,100.0
2209,62.0,0,716,0.0,100.0
2210,63.0,240,236,0.0,100.0
2211,55.0,0,236,0.0,100.0
2212,71.0,0,956,0.0,100.0
2213,54.0,240,236,0.0,100.0
2214,64.0,0,356,0.0,100.0
2215,63.0,120,56,0.0,100.0
2216,64.0,60,56,0.0,100.0
2217,52.0,240,236,0.0,100.0
2218,54.0,480,476,0.0,100.0
2219,71.0,240,236,0.0,100.0
2220,51.0,60,1436,0.0,100.0
2221,59.0,480,476,0.0,100.0
2222,66.0,0,1436,0.0,100.0
2223,67.0,0,116,0.0,100.0
2224,69.0,120,116,0.0,100.0
2225,59.0,240,476,0.0,100.0
2226,71.0,120,236,0.0,100.0
2227,52.0,0,476,0.0,100.0
2228,71.0,240,116,0.0,100.0
2229,69.0,120,116,0.0,100.0
2230,67.0,0,236,0.0,100.0
2231,59.0,120,236,0.0,100.0
2232,50.0,0,236,0.0,100.0
2233,69.0,0,116,0.0,100.0
2234,48.0,240,236,0.0,100.0
2235,71.0,120,116,0.0,100.0
2236,64.0,0,236,0.0,100.0
2237,72.0,120,236,0.0,100.0
2238,63.0,240,116,0.0,100.0
2239,64.0,120,116,0.0,100.0
2240,47.0,0,476,0.0,100.0
2241,54.0,0,476,0.0,100.0
2242,66.0,120,236,0.0,100.0
2243,66.0,240,116,0.0,100.0
2244,64.0,120,116,0.0,100.0
2245,45.0,0,236,0.0,100.0
2246,54.0,0,236,0.0,100.0
2247,63.0,120,236,0.0,100.0
2248,64.0,240,116,0.0,100.0
2249,66.0,120,116,0.0,100.0
2250,67.0,120,236,0.0,100.0
2251,55.0,0,476,0.0,100.0
2252,43.0,0,476,0.0,100.0
2253,52.0,0,476,0.0,100.0
2254,60.0,240,716,0.0,100.0
2255,45.0,0,956,0.0,100.0
2256,55.0,480,476,0.0,100.0
2257,61.0,240,236,0.0,100.0
2258,54.0,240,476,0.0,100.0
2259,62.0,0,716,0.0,100.0
2260,47.0,0,956,0.0,100.0
2261,63.0,240,236,0.0,100.0
2262,59.0,480,956,0.0,100.0
2263,48.0,0,476,0.0,100.0
2264,64.0,240,716,0.0,100.0
2265,49.0,0,476,0.0,100.0
2266,64.0,240,236,0.0,100.0
2267,57.0,480,956,0.0,100.0
2268,50.0,240,476,0.0,100.0
2269,66.0,0,716,0.0,100.0
2270,59.0,240,236,0.0,100.0
2271,54.0,0,476,0.0,100.0
2272,51.0,480,476,0.0,100.0
2273,67.0,0,236,0.0,100.0
2274,69.0,300,56,0.0,100.0
2275,67.0,60,56,0.0,100.0
2276,66.0,60,56,0.0,100.0
2277,64.0,0,116,0.0,100.0
2278,63.0,120,116,0.0,100.0
2279,64.0,120,116,0.0,100.0
2280,66.0,120,116,0.0,100.0
2281,45.0,60,476,0.0,100.0
2282,66.0,0,36,0.0,100.0
2283,67.0,40,36,0.0,100.0
2284,66.0,40,36,0.0,100.0
2285,67.0,40,36,0.0,100.0
2286,66.0,40,36,0.0,100.0
2287,67.0,40,36,0.0,100.0
2288,52.0,240,1436,0.0,100.0
2289,66.0,40,476,0.0,100.0
2290,64.0,240,236,0.0,100.0
2291,51.0,240,476,0.0,100.0
2292,47.0,120,956,0.0,100.0
2293,64.0,0,716,0.0,100.0
2294,66.0,240,56,0.0,100.0
2295,68.0,60,56,0.0,100.0
2296,52.0,240,956,0.0,100.0
2297,69.0,60,116,0.0,100.0
2298,63.0,0,356,0.0,100.0
2299,54.0,120,476,0.0,100.0
2300,63.0,360,116,0.0,100.0
2301,57.0,0,476,0.0,100.0
2302,40.0,480,1916,0.0,100.0
2303,52.0,0,956,0.0,100.0
2304,59.0,0,956,0.0,100.0
2305,64.0,120,956,0.0,100.0
2306,56.0,0,956,0.0,100.0
2307,55.0,0,956,0.0,100.0
2308,59.0,1440,1436,0.0,100.0
2309,60.0,1200,236,0.0,100.0
2310,59.0,240,236,0.0,100.0
2311,57.0,240,236,0.0,100.0
2312,55.0,240,36,0.0,100.0
2313,57.0,40,36,0.0,100.0
2314,55.0,40,36,0.0,100.0
2315,57.0,40,36,0.0,100.0
2316,55.0,40,36,0.0,100.0
2317,57.0,40,36,0.0,100.0
2318,55.0,40,236,0.0,100.0
2319,54.0,240,236,0.0,100.0
2320,52.0,240,236,0.0,100.0
2321,40.0,0,2876,0.0,100.0
2322,60.0,240,716,0.0,100.0
2323,52.0,0,956,0.0,100.0
2324,55.0,0,956,0.0,100.0
2325,59.0,720,236,0.0,100.0
2326,54.0,0,1436,0.0,100.0
2327,52.0,1440,476,0.0,100.0
2328,57.0,480,476,0.0,100.0
2329,59.0,480,476,0.0,100.0
2330,60.0,480,476,0.0,100.0
2331,59.0,480,476,0.0,100.0
2332,51.0,480,2876,0.0,100.0
2333,57.0,480,476,0.0,100.0
2334,55.0,0,36,0.0,100.0
2335,57.0,40,36,0.0,100.0
2336,55.0,40,36,0.0,100.0
2337,57.0,40,36,0.0,100.0
2338,55.0,40,36,0.0,100.0
2339,57.0,40,36,0.0,100.0
2340,55.0,40,1436,0.0,100.0
2341,47.0,720,956,0.0,100.0
2342,54.0,480,476,0.0,100.0
2343,52.0,480,1916,0.0,100.0
2344,52.0,0,956,0.0,100.0
2345,43.0,480,956,0.0,100.0
2346,47.0,0,956,0.0,100.0
2347,67.0,960,56,0.0,100.0
2348,66.0,60,56,0.0,100.0
2349,67.0,60,356,0.0,100.0
2350,69.0,360,116,0.0,100.0
2351,67.0,120,116,0.0,100.0
2352,66.0,120,116,0.0,100.0
2353,64.0,120,116,0.0,100.0
2354,59.0,0,956,0.0,100.0
2355,52.0,0,956,0.0,100.0
2356,62.0,0,1436,0.0,100.0
2357,54.0,120,1916,0.0,100.0
2358,57.0,0,1916,0.0,100.0
2359,60.0,1440,476,0.0,100.0
2360,59.0,480,1436,0.0,100.0
2361,55.0,0,1916,0.0,100.0
2362,43.0,960,956,0.0,100.0
2363,59.0,480,476,0.0,100.0
2364,61.0,480,716,0.0,100.0
2365,63.0,720,236,0.0,100.0
2366,57.0,0,956,0.0,100.0
2367,54.0,0,956,0.0,100.0
2368,55.0,0,476,0.0,100.0
2369,52.0,240,476,0.0,100.0
2370,64.0,0,716,0.0,100.0
2371,55.0,240,236,0.0,100.0
2372,54.0,0,476,0.0,100.0
2373,50.0,480,476,0.0,100.0
2374,52.0,0,476,0.0,100.0
2375,54.0,480,236,0.0,100.0
2376,55.0,240,236,0.0,100.0
2377,57.0,240,1436,0.0,100.0
2378,54.0,240,476,0.0,100.0
2379,48.0,0,1436,0.0,100.0
2380,59.0,0,116,0.0,100.0
2381,57.0,120,116,0.0,100.0
2382,55.0,120,116,0.0,100.0
2383,48.0,0,476,0.0,100.0
2384,52.0,480,476,0.0,100.0
2385,57.0,120,116,0.0,100.0
2386,51.0,0,956,0.0,100.0
2387,59.0,120,1436,0.0,100.0
2388,52.0,0,476,0.0,100.0
2389,60.0,480,476,0.0,100.0
2390,47.0,960,1916,0.0,100.0
2391,59.0,480,956,0.0,100.0
2392,51.0,0,956,0.0,100.0
2393,55.0,0,956,0.0,100.0
2394,59.0,960,1436,0.0,100.0
2395,60.0,1200,236,0.0,100.0
2396,59.0,240,236,0.0,100.0
2397,57.0,240,236,0.0,100.0
2398,55.0,240,36,0.0,100.0
2399,57.0,40,36,0.0,100.0
2400,55.0,40,36,0.0,100.0
2401,57.0,40,36,0.0,100.0
2402,55.0,40,36,0.0,100.0
2403,57.0,40,36,0.0,100.0
2404,55.0,40,236,0.0,100.0
2405,54.0,240,236,0.0,100.0
2406,40.0,0,2876,0.0,100.0
2407,52.0,240,236,0.0,100.0
2408,60.0,0,716,0.0,100.0
2409,59.0,720,236,0.0,100.0
2410,55.0,240,956,0.0,100.0
2411,52.0,0,956,0.0,100.0
2412,54.0,0,1436,0.0,100.0
2413,52.0,1440,476,0.0,100.0
2414,57.0,480,476,0.0,100.0
2415,59.0,480,476,0.0,100.0
2416,60.0,480,476,0.0,100.0
2417,59.0,480,476,0.0,100.0
2418,51.0,480,2876,0.0,100.0
2419,57.0,480,476,0.0,100.0
2420,55.0,480,36,0.0,100.0
2421,57.0,40,36,0.0,100.0
2422,55.0,40,36,0.0,100.0
2423,57.0,40,36,0.0,100.0
2424,55.0,40,36,0.0,100.0
2425,57.0,40,36,0.0,100.0
2426,55.0,40,1436,0.0,100.0
2427,52.0,0,1916,0.0,100.0
2428,47.0,720,956,0.0,100.0
2429,54.0,480,476,0.0,100.0
2430,52.0,480,956,0.0,100.0
2431,47.0,0,956,0.0,100.0
2432,43.0,0,956,0.0,100.0
2433,67.0,0,56,0.0,100.0
2434,66.0,60,56,0.0,100.0
2435,67.0,60,356,0.0,100.0
2436,69.0,360,116,0.0,100.0
2437,67.0,120,116,0.0,100.0
2438,66.0,120,116,0.0,100.0
2439,64.0,120,116,0.0,100.0
2440,59.0,0,956,0.0,100.0
2441,52.0,960,956,0.0,100.0
2442,62.0,0,1436,0.0,100.0
2443,57.0,0,1916,0.0,100.0
2444,60.0,1440,476,0.0,100.0
2445,54.0,120,1916,0.0,100.0
2446,59.0,480,1436,0.0,100.0
2447,55.0,0,1916,0.0,100.0
2448,43.0,960,956,0.0,100.0
2449,59.0,480,476,0.0,100.0
2450,61.0,0,716,0.0,100.0
2451,54.0,0,956,0.0,100.0
2452,57.0,480,956,0.0,100.0
2453,63.0,720,236,0.0,100.0
2454,52.0,0,476,0.0,100.0
2455,55.0,0,476,0.0,100.0
2456,64.0,240,716,0.0,100.0
2457,50.0,0,476,0.0,100.0
2458,54.0,480,476,0.0,100.0
2459,55.0,240,236,0.0,100.0
2460,52.0,240,476,0.0,100.0
2461,54.0,480,236,0.0,100.0
2462,55.0,240,236,0.0,100.0
2463,54.0,240,476,0.0,100.0
2464,57.0,0,1436,0.0,100.0
2465,48.0,0,1436,0.0,100.0
2466,59.0,0,116,0.0,100.0
2467,57.0,120,116,0.0,100.0
2468,55.0,120,116,0.0,100.0
2469,57.0,120,116,0.0,100.0
2470,52.0,0,476,0.0,100.0
2471,48.0,480,476,0.0,100.0
2472,51.0,0,956,0.0,100.0
2473,59.0,120,1436,0.0,100.0
2474,52.0,0,476,0.0,100.0
2475,60.0,480,476,0.0,100.0
2476,51.0,0,956,0.0,100.0
2477,47.0,960,1916,0.0,100.0
2478,59.0,480,956,0.0,100.0
2479,47.0,960,956,0.0,100.0
2480,62.0,0,956,0.0,100.0
2481,66.0,0,1436,0.0,100.0
2482,67.0,240,236,0.0,100.0
2483,66.0,240,236,0.0,100.0
2484,61.0,960,956,0.0,100.0
2485,46.0,0,956,0.0,100.0
2486,64.0,240,236,0.0,100.0
2487,62.0,0,476,0.0,100.0
2488,61.0,480,236,0.0,100.0
2489,59.0,240,236,0.0,100.0
2490,54.0,0,956,0.0,100.0
2491,47.0,240,956,0.0,100.0
2492,67.0,0,476,0.0,100.0
2493,66.0,480,236,0.0,100.0
2494,62.0,240,956,0.0,100.0
2495,55.0,0,956,0.0,100.0
2496,47.0,0,956,0.0,100.0
2497,64.0,240,236,0.0,100.0
2498,55.0,0,1436,0.0,100.0
2499,48.0,0,1436,0.0,100.0
2500,64.0,240,1436,0.0,100.0
2501,60.0,0,1436,0.0,100.0
2502,64.0,1440,116,0.0,100.0
2503,66.0,120,116,0.0,100.0
2504,67.0,120,116,0.0,100.0
2505,69.0,120,56,0.0,100.0
2506,71.0,60,56,0.0,100.0
2507,72.0,0,956,0.0,100.0
2508,66.0,0,956,0.0,100.0
2509,57.0,0,956,0.0,100.0
2510,60.0,0,956,0.0,100.0
2511,45.0,60,956,0.0,100.0
2512,50.0,0,956,0.0,100.0
2513,47.0,0,956,0.0,100.0
2514,67.0,0,1436,0.0,100.0
2515,71.0,960,1436,0.0,100.0
2516,69.0,480,476,0.0,100.0
2517,52.0,0,956,0.0,100.0
2518,48.0,960,956,0.0,100.0
2519,55.0,0,2876,0.0,100.0
2520,62.0,0,1436,0.0,100.0
2521,69.0,0,1436,0.0,100.0
2522,50.0,480,1916,0.0,100.0
2523,71.0,480,476,0.0,100.0
2524,54.0,960,1916,0.0,100.0
2525,69.0,480,956,0.0,100.0
2526,61.0,0,716,0.0,100.0
2527,66.0,0,716,0.0,100.0
2528,70.0,960,716,0.0,100.0
2529,68.0,720,116,0.0,100.0
2530,52.0,0,956,0.0,100.0
2531,70.0,120,116,0.0,100.0
2532,59.0,0,1436,0.0,100.0
2533,71.0,120,1436,0.0,100.0
2534,66.0,0,1436,0.0,100.0
2535,69.0,1440,56,0.0,100.0
2536,67.0,60,56,0.0,100.0
2537,66.0,60,56,0.0,100.0
2538,64.0,60,56,0.0,100.0
2539,62.0,60,116,0.0,100.0
2540,61.0,120,56,0.0,100.0
2541,50.0,0,1916,0.0,100.0
2542,59.0,60,56,0.0,100.0
2543,59.0,0,956,0.0,100.0
2544,49.0,60,956,0.0,100.0
2545,52.0,0,956,0.0,100.0
2546,66.0,1320,116,0.0,100.0
2547,64.0,0,1436,0.0,100.0
2548,64.0,120,116,0.0,100.0
2549,63.0,120,116,0.0,100.0
2550,64.0,120,116,0.0,100.0
2551,66.0,120,56,0.0,100.0
2552,67.0,60,56,0.0,100.0
2553,49.0,0,956,0.0,100.0
2554,52.0,0,956,0.0,100.0
2555,58.0,60,956,0.0,100.0
2556,54.0,960,476,0.0,100.0
2557,50.0,0,476,0.0,100.0
2558,59.0,0,716,0.0,100.0
2559,52.0,480,476,0.0,100.0
2560,55.0,0,476,0.0,100.0
2561,61.0,240,236,0.0,100.0
2562,59.0,0,956,0.0,100.0
2563,61.0,240,1436,0.0,100.0
2564,59.0,480,476,0.0,100.0
2565,58.0,960,956,0.0,100.0
2566,54.0,0,1916,0.0,100.0
2567,42.0,0,956,0.0,100.0
2568,47.0,480,476,0.0,100.0
2569,51.0,480,476,0.0,100.0
2570,59.0,480,1916,0.0,100.0
2571,54.0,480,476,0.0,100.0
2572,59.0,480,956,0.0,100.0
2573,62.0,960,956,0.0,100.0
2574,47.0,0,956,0.0,100.0
2575,54.0,0,956,0.0,100.0
2576,59.0,0,956,0.0,100.0
2577,56.0,0,36,0.0,100.0
2578,57.0,40,36,0.0,100.0
2579,56.0,40,36,0.0,100.0
2580,57.0,40,36,0.0,100.0
2581,56.0,40,36,0.0,100.0
2582,57.0,40,36,0.0,100.0
2583,56.0,1200,236,0.0,100.0
2584,50.0,960,1916,0.0,100.0
2585,47.0,0,1916,0.0,100.0
2586,57.0,0,1436,0.0,100.0
2587,52.0,480,1436,0.0,100.0
2588,48.0,0,1436,0.0,100.0
2589,71.0,1440,116,0.0,100.0
2590,69.0,120,116,0.0,100.0
2591,67.0,120,116,0.0,100.0
2592,66.0,120,56,0.0,100.0
2593,64.0,60,56,0.0,100.0
2594,54.0,0,956,0.0,100.0
2595,63.0,60,956,0.0,100.0
2596,55.0,0,956,0.0,100.0
2597,64.0,960,956,0.0,100.0
2598,48.0,0,1916,0.0,100.0
2599,54.0,0,956,0.0,100.0
2600,58.0,960,1436,0.0,100.0
2601,58.0,480,476,0.0,100.0
2602,49.0,0,1916,0.0,100.0
2603,52.0,960,956,0.0,100.0
2604,54.0,0,1436,0.0,100.0
2605,59.0,480,1436,0.0,100.0
2606,50.0,0,1436,0.0,100.0
2607,72.0,1440,116,0.0,100.0
2608,71.0,120,116,0.0,100.0
2609,69.0,120,116,0.0,100.0
2610,67.0,120,116,0.0,100.0
2611,66.0,120,956,0.0,100.0
2612,59.0,0,956,0.0,100.0
2613,51.0,0,956,0.0,100.0
2614,59.0,0,476,0.0,100.0
2615,57.0,480,476,0.0,100.0
2616,52.0,960,1436,0.0,100.0
2617,67.0,0,1436,0.0,100.0
2618,71.0,480,116,0.0,100.0
2619,69.0,120,116,0.0,100.0
2620,67.0,120,116,0.0,100.0
2621,69.0,120,56,0.0,100.0
2622,55.0,480,956,0.0,100.0
2623,71.0,60,56,0.0,100.0
2624,54.0,60,956,0.0,100.0
2625,57.0,0,956,0.0,100.0
2626,63.0,0,956,0.0,100.0
2627,55.0,0,956,0.0,100.0
2628,64.0,960,1436,0.0,100.0
2629,52.0,960,956,0.0,100.0
2630,67.0,480,476,0.0,100.0
2631,59.0,0,1916,0.0,100.0
2632,66.0,480,476,0.0,100.0
2633,67.0,480,236,0.0,100.0
2634,48.0,0,1916,0.0,100.0
2635,69.0,240,236,0.0,100.0
2636,54.0,0,476,0.0,100.0
2637,57.0,0,1436,0.0,100.0
2638,63.0,240,476,0.0,100.0
2639,52.0,480,236,0.0,100.0
2640,55.0,0,236,0.0,100.0
2641,64.0,0,236,0.0,100.0
2642,66.0,240,116,0.0,100.0
2643,57.0,0,236,0.0,100.0
2644,67.0,120,116,0.0,100.0
2645,66.0,0,36,0.0,100.0
2646,67.0,40,36,0.0,100.0
2647,66.0,40,36,0.0,100.0
2648,67.0,40,36,0.0,100.0
2649,66.0,40,36,0.0,100.0
2650,67.0,40,36,0.0,100.0
2651,47.0,0,1916,0.0,100.0
2652,59.0,120,956,0.0,100.0
2653,66.0,40,1436,0.0,100.0
2654,64.0,480,476,0.0,100.0
2655,51.0,0,956,0.0,100.0
2656,57.0,720,956,0.0,100.0
2657,57.0,0,956,0.0,100.0
2658,64.0,0,1436,0.0,100.0
2659,66.0,480,476,0.0,100.0
2660,64.0,480,956,0.0,100.0
2661,52.0,480,2876,0.0,100.0
2662,56.0,960,1916,0.0,100.0
2663,40.0,0,2876,0.0,100.0
2664,47.0,0,956,0.0,100.0
2665,62.0,960,956,0.0,100.0
2666,66.0,0,1436,0.0,100.0
2667,67.0,240,236,0.0,100.0
2668,66.0,240,236,0.0,100.0
2669,64.0,240,236,0.0,100.0
2670,61.0,960,956,0.0,100.0
2671,46.0,0,956,0.0,100.0
2672,62.0,0,476,0.0,100.0
2673,61.0,480,236,0.0,100.0
2674,59.0,240,236,0.0,100.0
2675,54.0,240,956,0.0,100.0
2676,47.0,0,956,0.0,100.0
2677,67.0,240,476,0.0,100.0
2678,66.0,480,236,0.0,100.0
2679,55.0,0,956,0.0,100.0
2680,62.0,0,956,0.0,100.0
2681,47.0,0,956,0.0,100.0
2682,64.0,240,236,0.0,100.0
2683,60.0,0,1436,0.0,100.0
2684,55.0,0,1436,0.0,100.0
2685,48.0,0,1436,0.0,100.0
2686,64.0,240,1436,0.0,100.0
2687,64.0,1440,116,0.0,100.0
2688,66.0,120,116,0.0,100.0
2689,67.0,120,116,0.0,100.0
2690,69.0,120,56,0.0,100.0
2691,71.0,60,56,0.0,100.0
2692,57.0,0,956,0.0,100.0
2693,45.0,0,956,0.0,100.0
2694,60.0,0,956,0.0,100.0
2695,72.0,60,956,0.0,100.0
2696,66.0,0,956,0.0,100.0
2697,50.0,960,956,0.0,100.0
2698,47.0,0,956,0.0,100.0
2699,67.0,0,1436,0.0,100.0
2700,71.0,0,1436,0.0,100.0
2701,69.0,480,476,0.0,100.0
2702,52.0,0,956,0.0,100.0
2703,48.0,960,956,0.0,100.0
2704,55.0,0,2876,0.0,100.0
2705,62.0,0,1436,0.0,100.0
2706,69.0,0,1436,0.0,100.0
2707,50.0,480,1916,0.0,100.0
2708,71.0,480,476,0.0,100.0
2709,54.0,960,1916,0.0,100.0
2710,69.0,480,956,0.0,100.0
2711,70.0,0,716,0.0,100.0
2712,66.0,0,716,0.0,100.0
2713,61.0,960,716,0.0,100.0
2714,68.0,720,116,0.0,100.0
2715,52.0,0,956,0.0,100.0
2716,70.0,120,116,0.0,100.0
2717,59.0,0,1436,0.0,100.0
2718,71.0,120,1436,0.0,100.0
2719,66.0,0,1436,0.0,100.0
2720,69.0,1440,56,0.0,100.0
2721,67.0,60,56,0.0,100.0
2722,66.0,60,56,0.0,100.0
2723,64.0,60,56,0.0,100.0
2724,62.0,60,116,0.0,100.0
2725,61.0,120,56,0.0,100.0
2726,59.0,60,56,0.0,100.0
2727,50.0,0,1916,0.0,100.0
2728,59.0,60,956,0.0,100.0
2729,49.0,0,956,0.0,100.0
2730,52.0,0,956,0.0,100.0
2731,66.0,1320,116,0.0,100.0
2732,64.0,0,1436,0.0,100.0
2733,64.0,120,116,0.0,100.0
2734,63.0,120,116,0.0,100.0
2735,64.0,120,116,0.0,100.0
2736,66.0,120,56,0.0,100.0
2737,67.0,60,56,0.0,100.0
2738,58.0,0,956,0.0,100.0
2739,52.0,60,956,0.0,100.0
2740,49.0,0,956,0.0,100.0
2741,54.0,0,476,0.0,100.0
2742,50.0,960,476,0.0,100.0
2743,59.0,0,716,0.0,100.0
2744,61.0,240,236,0.0,100.0
2745,55.0,0,476,0.0,100.0
2746,52.0,480,476,0.0,100.0
2747,59.0,240,956,0.0,100.0
2748,61.0,0,1436,0.0,100.0
2749,58.0,960,956,0.0,100.0
2750,59.0,480,476,0.0,100.0
2751,54.0,0,1916,0.0,100.0
2752,42.0,0,956,0.0,100.0
2753,47.0,480,476,0.0,100.0
2754,51.0,480,476,0.0,100.0
2755,59.0,480,1916,0.0,100.0
2756,54.0,480,476,0.0,100.0
2757,59.0,480,956,0.0,100.0
2758,59.0,960,956,0.0,100.0
2759,54.0,0,956,0.0,100.0
2760,47.0,0,956,0.0,100.0
2761,62.0,0,956,0.0,100.0
2762,56.0,0,36,0.0,100.0
2763,57.0,40,36,0.0,100.0
2764,56.0,40,36,0.0,100.0
2765,57.0,40,36,0.0,100.0
2766,56.0,40,36,0.0,100.0
2767,57.0,40,36,0.0,100.0
2768,56.0,1200,236,0.0,100.0
2769,50.0,960,1916,0.0,100.0
2770,47.0,0,1916,0.0,100.0
2771,48.0,480,1436,0.0,100.0
2772,52.0,0,1436,0.0,100.0
2773,57.0,0,1436,0.0,100.0
2774,71.0,1440,116,0.0,100.0
2775,69.0,120,116,0.0,100.0
2776,67.0,120,116,0.0,100.0
2777,66.0,120,56,0.0,100.0
2778,64.0,60,56,0.0,100.0
2779,54.0,60,956,0.0,100.0
2780,63.0,0,956,0.0,100.0
2781,48.0,0,1916,0.0,100.0
2782,55.0,0,956,0.0,100.0
2783,64.0,960,956,0.0,100.0
2784,54.0,0,956,0.0,100.0
2785,58.0,960,1436,0.0,100.0
2786,58.0,480,476,0.0,100.0
2787,52.0,960,956,0.0,100.0
2788,49.0,0,1916,0.0,100.0
2789,50.0,0,1436,0.0,100.0
2790,54.0,0,1436,0.0,100.0
2791,59.0,480,1436,0.0,100.0
2792,72.0,1440,116,0.0,100.0
2793,71.0,120,116,0.0,100.0
2794,69.0,120,116,0.0,100.0
2795,67.0,120,116,0.0,100.0
2796,51.0,120,956,0.0,100.0
2797,59.0,0,956,0.0,100.0
2798,66.0,0,956,0.0,100.0
2799,59.0,0,476,0.0,100.0
2800,57.0,480,476,0.0,100.0
2801,67.0,960,1436,0.0,100.0
2802,52.0,0,1436,0.0,100.0
2803,71.0,480,116,0.0,100.0
2804,69.0,120,116,0.0,100.0
2805,67.0,120,116,0.0,100.0
2806,69.0,120,56,0.0,100.0
2807,55.0,480,956,0.0,100.0
2808,71.0,60,56,0.0,100.0
2809,63.0,0,956,0.0,100.0
2810,57.0,0,956,0.0,100.0
2811,54.0,60,956,0.0,100.0
2812,55.0,0,956,0.0,100.0
2813,64.0,960,1436,0.0,100.0
2814,67.0,480,476,0.0,100.0
2815,52.0,960,956,0.0,100.0
2816,59.0,0,1916,0.0,100.0
2817,66.0,0,476,0.0,100.0
2818,67.0,480,236,0.0,100.0
2819,69.0,240,236,0.0,100.0
2820,48.0,0,1916,0.0,100.0
2821,57.0,480,1436,0.0,100.0
2822,54.0,0,476,0.0,100.0
2823,63.0,0,476,0.0,100.0
2824,52.0,0,236,0.0,100.0
2825,55.0,0,236,0.0,100.0
2826,64.0,480,236,0.0,100.0
2827,66.0,0,116,0.0,100.0
2828,67.0,120,116,0.0,100.0
2829,57.0,240,236,0.0,100.0
2830,66.0,120,36,0.0,100.0
2831,67.0,40,36,0.0,100.0
2832,66.0,40,36,0.0,100.0
2833,67.0,40,36,0.0,100.0
2834,66.0,40,36,0.0,100.0
2835,67.0,40,36,0.0,100.0
2836,47.0,240,1916,0.0,100.0
2837,59.0,0,956,0.0,100.0
2838,66.0,40,1436,0.0,100.0
2839,57.0,720,956,0.0,100.0
2840,51.0,0,956,0.0,100.0
2841,64.0,480,476,0.0,100.0
2842,57.0,480,956,0.0,100.0
2843,64.0,0,1436,0.0,100.0
2844,66.0,480,476,0.0,100.0
2845,64.0,480,956,0.0,100.0
2846,56.0,960,1916,0.0,100.0
2847,52.0,0,2876,0.0,100.0
2848,40.0,0,2876,0.0,100.0
2849,43.0,0,236,0.0,100.0
2850,64.0,2400,236,0.0,100.0
2851,66.0,240,236,0.0,100.0
2852,42.0,0,236,0.0,100.0
2853,67.0,0,476,0.0,100.0
2854,40.0,240,476,0.0,100.0
2855,66.0,480,236,0.0,100.0
2856,45.0,0,476,0.0,100.0
2857,64.0,240,236,0.0,100.0
2858,63.0,0,476,0.0,100.0
2859,47.0,240,476,0.0,100.0
2860,64.0,0,236,0.0,100.0
2861,45.0,480,476,0.0,100.0
2862,66.0,240,236,0.0,100.0
2863,43.0,0,476,0.0,100.0
2864,59.0,240,476,0.0,100.0
2865,61.0,480,236,0.0,100.0
2866,42.0,0,476,0.0,100.0
2867,63.0,240,236,0.0,100.0
2868,64.0,0,476,0.0,100.0
2869,40.0,240,476,0.0,100.0
2870,62.0,0,236,0.0,100.0
2871,60.0,240,236,0.0,100.0
2872,42.0,480,476,0.0,100.0
2873,43.0,240,476,0.0,100.0
2874,59.0,0,476,0.0,100.0
2875,57.0,480,236,0.0,100.0
2876,45.0,0,476,0.0,100.0
2877,55.0,240,236,0.0,100.0
2878,54.0,240,476,0.0,100.0
2879,47.0,0,476,0.0,100.0
2880,55.0,0,236,0.0,100.0
2881,45.0,480,476,0.0,100.0
2882,57.0,240,236,0.0,100.0
2883,59.0,0,236,0.0,100.0
2884,57.0,240,236,0.0,100.0
2885,43.0,240,476,0.0,100.0
2886,55.0,240,236,0.0,100.0
2887,47.0,0,476,0.0,100.0
2888,54.0,240,236,0.0,100.0
2889,40.0,0,236,0.0,100.0
2890,42.0,240,236,0.0,100.0
2891,52.0,240,476,0.0,100.0
2892,43.0,0,236,0.0,100.0
2893,64.0,240,236,0.0,100.0
2894,42.0,0,236,0.0,100.0
2895,66.0,240,236,0.0,100.0
2896,40.0,240,476,0.0,100.0
2897,67.0,0,476,0.0,100.0
2898,66.0,0,236,0.0,100.0
2899,45.0,480,476,0.0,100.0
2900,64.0,240,236,0.0,100.0
2901,47.0,0,476,0.0,100.0
2902,63.0,240,476,0.0,100.0
2903,64.0,0,236,0.0,100.0
2904,66.0,240,236,0.0,100.0
2905,45.0,480,476,0.0,100.0
2906,43.0,0,476,0.0,100.0
2907,59.0,240,476,0.0,100.0
2908,61.0,480,236,0.0,100.0
2909,63.0,240,236,0.0,100.0
2910,42.0,0,476,0.0,100.0
2911,64.0,0,476,0.0,100.0
2912,40.0,240,476,0.0,100.0
2913,62.0,480,236,0.0,100.0
2914,42.0,0,476,0.0,100.0
2915,60.0,240,236,0.0,100.0
2916,43.0,0,476,0.0,100.0
2917,59.0,240,476,0.0,100.0
2918,57.0,0,236,0.0,100.0
2919,48.0,480,476,0.0,100.0
2920,55.0,240,236,0.0,100.0
2921,54.0,240,36,0.0,100.0
2922,55.0,40,36,0.0,100.0
2923,54.0,40,36,0.0,100.0
2924,55.0,40,36,0.0,100.0
2925,54.0,40,36,0.0,100.0
2926,55.0,40,36,0.0,100.0
2927,50.0,0,476,0.0,100.0
2928,54.0,40,476,0.0,100.0
2929,55.0,240,236,0.0,100.0
2930,50.0,240,476,0.0,100.0
2931,50.0,0,1436,0.0,100.0
2932,43.0,0,1436,0.0,100.0
2933,55.0,240,1436,0.0,100.0
2934,47.0,0,1436,0.0,100.0
2935,64.0,1440,236,0.0,100.0
2936,43.0,0,236,0.0,100.0
2937,66.0,0,236,0.0,100.0
2938,42.0,240,236,0.0,100.0
2939,40.0,240,476,0.0,100.0
2940,67.0,0,476,0.0,100.0
2941,66.0,0,236,0.0,100.0
2942,64.0,240,236,0.0,100.0
2943,45.0,480,476,0.0,100.0
2944,47.0,0,476,0.0,100.0
2945,63.0,240,476,0.0,100.0
2946,64.0,480,236,0.0,100.0
2947,66.0,240,236,0.0,100.0
2948,45.0,0,476,0.0,100.0
2949,59.0,0,476,0.0,100.0
2950,43.0,240,476,0.0,100.0
2951,61.0,0,236,0.0,100.0
2952,63.0,240,236,0.0,100.0
2953,42.0,480,476,0.0,100.0
2954,40.0,240,476,0.0,100.0
2955,64.0,0,476,0.0,100.0
2956,62.0,480,236,0.0,100.0
2957,42.0,0,476,0.0,100.0
2958,60.0,240,236,0.0,100.0
2959,43.0,240,476,0.0,100.0
2960,59.0,0,476,0.0,100.0
2961,57.0,480,236,0.0,100.0
2962,55.0,240,236,0.0,100.0
2963,45.0,0,476,0.0,100.0
2964,54.0,240,476,0.0,100.0
2965,47.0,0,476,0.0,100.0
2966,55.0,0,236,0.0,100.0
2967,45.0,480,476,0.0,100.0
2968,57.0,240,236,0.0,100.0
2969,59.0,240,236,0.0,100.0
2970,43.0,0,476,0.0,100.0
2971,57.0,240,236,0.0,100.0
2972,55.0,240,236,0.0,100.0
2973,54.0,240,236,0.0,100.0
2974,47.0,0,476,0.0,100.0
2975,40.0,240,236,0.0,100.0
2976,42.0,240,236,0.0,100.0
2977,52.0,0,476,0.0,100.0
2978,64.0,0,236,0.0,100.0
2979,43.0,240,236,0.0,100.0
2980,42.0,240,236,0.0,100.0
2981,66.0,0,236,0.0,100.0
2982,67.0,0,476,0.0,100.0
2983,40.0,240,476,0.0,100.0
2984,66.0,0,236,0.0,100.0
2985,64.0,240,236,0.0,100.0
2986,45.0,480,476,0.0,100.0
2987,47.0,240,476,0.0,100.0
2988,63.0,0,476,0.0,100.0
2989,64.0,480,236,0.0,100.0
2990,45.0,0,476,0.0,100.0
2991,66.0,240,236,0.0,100.0
2992,59.0,240,476,0.0,100.0
2993,43.0,0,476,0.0,100.0
2994,61.0,480,236,0.0,100.0
2995,63.0,240,236,0.0,100.0
2996,42.0,0,476,0.0,100.0
2997,64.0,240,476,0.0,100.0
2998,40.0,0,476,0.0,100.0
2999,62.0,0,236,0.0,100.0
3000,42.0,480,476,0.0,100.0
3001,60.0,240,236,0.0,100.0
3002,43.0,0,476,0.0,100.0
3003,59.0,240,476,0.0,100.0
3004,57.0,480,236,0.0,100.0
3005,55.0,240,236,0.0,100.0
3006,48.0,0,476,0.0,100.0
3007,54.0,240,36,0.0,100.0
3008,55.0,40,36,0.0,100.0
3009,54.0,40,36,0.0,100.0
3010,55.0,40,36,0.0,100.0
3011,54.0,40,36,0.0,100.0
3012,55.0,40,36,0.0,100.0
3013,50.0,0,476,0.0,100.0
3014,54.0,40,476,0.0,100.0
3015,50.0,240,476,0.0,100.0
3016,55.0,240,236,0.0,100.0
3017,50.0,0,1436,0.0,100.0
3018,43.0,0,1436,0.0,100.0
3019,55.0,0,1436,0.0,100.0
3020,47.0,240,1436,0.0,100.0
3021,59.0,1440,236,0.0,100.0
3022,55.0,240,236,0.0,100.0
3023,43.0,0,476,0.0,100.0
3024,62.0,0,476,0.0,100.0
3025,42.0,240,476,0.0,100.0
3026,57.0,0,236,0.0,100.0
3027,60.0,240,236,0.0,100.0
3028,50.0,480,476,0.0,100.0
3029,43.0,240,476,0.0,100.0
3030,59.0,0,476,0.0,100.0
3031,67.0,480,236,0.0,100.0
3032,47.0,0,476,0.0,100.0
3033,62.0,240,236,0.0,100.0
3034,48.0,240,476,0.0,100.0
3035,64.0,0,476,0.0,100.0
3036,59.0,0,236,0.0,100.0
3037,44.0,480,476,0.0,100.0
3038,62.0,240,236,0.0,100.0
3039,60.0,0,476,0.0,100.0
3040,45.0,240,476,0.0,100.0
3041,59.0,0,236,0.0,100.0
3042,50.0,480,476,0.0,100.0
3043,57.0,240,236,0.0,100.0
3044,52.0,0,476,0.0,100.0
3045,56.0,240,476,0.0,100.0
3046,57.0,480,236,0.0,100.0
3047,59.0,240,236,0.0,100.0
3048,45.0,0,476,0.0,100.0
3049,52.0,240,476,0.0,100.0
3050,60.0,0,476,0.0,100.0
3051,59.0,480,236,0.0,100.0
3052,57.0,240,236,0.0,100.0
3053,40.0,0,476,0.0,100.0
3054,45.0,0,236,0.0,100.0
3055,47.0,240,236,0.0,100.0
3056,45.0,240,236,0.0,100.0
3057,43.0,240,236,0.0,100.0
3058,42.0,240,476,0.0,100.0
3059,57.0,240,1436,0.0,100.0
3060,62.0,0,236,0.0,100.0
3061,50.0,480,476,0.0,100.0
3062,57.0,240,236,0.0,100.0
3063,43.0,0,476,0.0,100.0
3064,59.0,240,476,0.0,100.0
3065,67.0,480,236,0.0,100.0
3066,62.0,240,236,0.0,100.0
3067,47.0,0,476,0.0,100.0
3068,64.0,0,476,0.0,100.0
3069,48.0,240,476,0.0,100.0
3070,59.0,0,236,0.0,100.0
3071,62.0,240,236,0.0,100.0
3072,44.0,480,476,0.0,100.0
3073,45.0,0,476,0.0,100.0
3074,60.0,240,476,0.0,100.0
3075,69.0,480,236,0.0,100.0
3076,49.0,0,476,0.0,100.0
3077,64.0,240,236,0.0,100.0
3078,50.0,240,476,0.0,100.0
3079,66.0,0,476,0.0,100.0
3080,61.0,480,236,0.0,100.0
3081,46.0,0,476,0.0,100.0
3082,64.0,240,236,0.0,100.0
3083,62.0,240,476,0.0,100.0
3084,47.0,0,476,0.0,100.0
3085,61.0,480,236,0.0,100.0
3086,52.0,0,476,0.0,100.0
3087,59.0,240,236,0.0,100.0
3088,58.0,240,36,0.0,100.0
3089,59.0,40,36,0.0,100.0
3090,58.0,40,36,0.0,100.0
3091,59.0,40,36,0.0,100.0
3092,58.0,40,36,0.0,100.0
3093,59.0,40,36,0.0,100.0
3094,54.0,0,476,0.0,100.0
3095,58.0,40,476,0.0,100.0
3096,59.0,240,236,0.0,100.0
3097,42.0,240,476,0.0,100.0
3098,47.0,240,236,0.0,100.0
3099,46.0,240,236,0.0,100.0
3100,47.0,240,236,0.0,100.0
3101,49.0,240,236,0.0,100.0
3102,51.0,240,476,0.0,100.0
3103,59.0,0,1436,0.0,100.0
3104,71.0,480,236,0.0,100.0
3105,66.0,240,236,0.0,100.0
3106,47.0,0,476,0.0,100.0
3107,52.0,240,476,0.0,100.0
3108,68.0,0,476,0.0,100.0
3109,66.0,480,236,0.0,100.0
3110,50.0,0,476,0.0,100.0
3111,64.0,240,236,0.0,100.0
3112,49.0,240,476,0.0,100.0
3113,69.0,0,476,0.0,100.0
3114,64.0,480,236,0.0,100.0
3115,67.0,240,236,0.0,100.0
3116,45.0,0,476,0.0,100.0
3117,66.0,240,476,0.0,100.0
3118,50.0,0,476,0.0,100.0
3119,64.0,0,236,0.0,100.0
3120,48.0,480,476,0.0,100.0
3121,62.0,240,236,0.0,100.0
3122,47.0,0,476,0.0,100.0
3123,67.0,240,476,0.0,100.0
3124,62.0,480,236,0.0,100.0
3125,65.0,240,236,0.0,100.0
3126,43.0,0,476,0.0,100.0
3127,64.0,0,476,0.0,100.0
3128,48.0,240,476,0.0,100.0
3129,69.0,480,236,0.0,100.0
3130,64.0,240,236,0.0,100.0
3131,47.0,0,476,0.0,100.0
3132,45.0,240,476,0.0,100.0
3133,66.0,0,476,0.0,100.0
3134,61.0,480,236,0.0,100.0
3135,64.0,240,236,0.0,100.0
3136,42.0,0,476,0.0,100.0
3137,63.0,0,476,0.0,100.0
3138,47.0,240,716,0.0,100.0
3139,48.0,240,236,0.0,100.0
3140,47.0,240,236,0.0,100.0
3141,59.0,480,956,0.0,100.0
3142,45.0,240,236,0.0,100.0
3143,64.0,240,236,0.0,100.0
3144,44.0,0,476,0.0,100.0
3145,59.0,240,236,0.0,100.0
3146,45.0,240,236,0.0,100.0
3147,52.0,240,236,0.0,100.0
3148,60.0,0,476,0.0,100.0
3149,62.0,0,236,0.0,100.0
3150,57.0,240,236,0.0,100.0
3151,54.0,240,476,0.0,100.0
3152,43.0,240,236,0.0,100.0
3153,59.0,0,476,0.0,100.0
3154,51.0,240,236,0.0,100.0
3155,60.0,240,236,0.0,100.0
3156,52.0,0,476,0.0,100.0
3157,55.0,240,236,0.0,100.0
3158,42.0,240,236,0.0,100.0
3159,57.0,0,476,0.0,100.0
3160,49.0,240,236,0.0,100.0
3161,59.0,240,236,0.0,100.0
3162,51.0,0,476,0.0,100.0
3163,54.0,240,236,0.0,100.0
3164,55.0,0,476,0.0,100.0
3165,40.0,240,476,0.0,100.0
3166,54.0,0,236,0.0,100.0
3167,52.0,240,236,0.0,100.0
3168,45.0,480,476,0.0,100.0
3169,51.0,0,476,0.0,100.0
3170,47.0,240,476,0.0,100.0
3171,52.0,0,236,0.0,100.0
3172,54.0,240,236,0.0,100.0
3173,45.0,480,476,0.0,100.0
3174,55.0,240,476,0.0,100.0
3175,54.0,480,236,0.0,100.0
3176,47.0,0,956,0.0,100.0
3177,52.0,240,236,0.0,100.0
3178,52.0,0,1436,0.0,100.0
3179,40.0,240,1436,0.0,100.0
3180,59.0,0,236,0.0,100.0
3181,43.0,1440,476,0.0,100.0
3182,55.0,240,236,0.0,100.0
3183,42.0,0,476,0.0,100.0
3184,62.0,240,476,0.0,100.0
3185,57.0,0,236,0.0,100.0
3186,60.0,240,236,0.0,100.0
3187,50.0,480,476,0.0,100.0
3188,59.0,0,476,0.0,100.0
3189,43.0,240,476,0.0,100.0
3190,67.0,0,236,0.0,100.0
3191,62.0,240,236,0.0,100.0
3192,47.0,480,476,0.0,100.0
3193,48.0,0,476,0.0,100.0
3194,64.0,240,476,0.0,100.0
3195,59.0,480,236,0.0,100.0
3196,44.0,0,476,0.0,100.0
3197,62.0,240,236,0.0,100.0
3198,45.0,240,476,0.0,100.0
3199,60.0,0,476,0.0,100.0
3200,59.0,480,236,0.0,100.0
3201,50.0,0,476,0.0,100.0
3202,57.0,240,236,0.0,100.0
3203,56.0,0,476,0.0,100.0
3204,52.0,240,476,0.0,100.0
3205,57.0,0,236,0.0,100.0
3206,59.0,240,236,0.0,100.0
3207,45.0,480,476,0.0,100.0
3208,60.0,0,476,0.0,100.0
3209,52.0,240,476,0.0,100.0
3210,59.0,0,236,0.0,100.0
3211,40.0,480,476,0.0,100.0
3212,57.0,240,236,0.0,100.0
3213,45.0,0,236,0.0,100.0
3214,47.0,240,236,0.0,100.0
3215,45.0,240,236,0.0,100.0
3216,43.0,240,236,0.0,100.0
3217,42.0,240,476,0.0,100.0
3218,57.0,240,1436,0.0,100.0
3219,62.0,0,236,0.0,100.0
3220,57.0,240,236,0.0,100.0
3221,50.0,480,476,0.0,100.0
3222,43.0,0,476,0.0,100.0
3223,59.0,240,476,0.0,100.0
3224,67.0,480,236,0.0,100.0
3225,47.0,0,476,0.0,100.0
3226,62.0,240,236,0.0,100.0
3227,48.0,240,476,0.0,100.0
3228,64.0,0,476,0.0,100.0
3229,59.0,480,236,0.0,100.0
3230,44.0,0,476,0.0,100.0
3231,62.0,240,236,0.0,100.0
3232,60.0,240,476,0.0,100.0
3233,45.0,0,476,0.0,100.0
3234,69.0,480,236,0.0,100.0
3235,49.0,0,476,0.0,100.0
3236,64.0,240,236,0.0,100.0
3237,50.0,0,476,0.0,100.0
3238,66.0,240,476,0.0,100.0
3239,61.0,0,236,0.0,100.0
3240,46.0,480,476,0.0,100.0
3241,64.0,240,236,0.0,100.0
3242,47.0,0,476,0.0,100.0
3243,62.0,240,476,0.0,100.0
3244,61.0,0,236,0.0,100.0
3245,59.0,240,236,0.0,100.0
3246,52.0,480,476,0.0,100.0
3247,58.0,240,36,0.0,100.0
3248,59.0,40,36,0.0,100.0
3249,58.0,40,36,0.0,100.0
3250,59.0,40,36,0.0,100.0
3251,58.0,40,36,0.0,100.0
3252,59.0,40,36,0.0,100.0
3253,54.0,0,476,0.0,100.0
3254,58.0,40,476,0.0,100.0
3255,42.0,240,476,0.0,100.0
3256,59.0,240,236,0.0,100.0
3257,47.0,0,236,0.0,100.0
3258,46.0,240,236,0.0,100.0
3259,47.0,240,236,0.0,100.0
3260,49.0,240,236,0.0,100.0
3261,51.0,240,476,0.0,100.0
3262,59.0,240,1436,0.0,100.0
3263,71.0,0,236,0.0,100.0
3264,47.0,480,476,0.0,100.0
3265,66.0,240,236,0.0,100.0
3266,52.0,0,476,0.0,100.0
3267,68.0,240,476,0.0,100.0
3268,66.0,480,236,0.0,100.0
3269,50.0,0,476,0.0,100.0
3270,64.0,240,236,0.0,100.0
3271,49.0,0,476,0.0,100.0
3272,69.0,240,476,0.0,100.0
3273,64.0,480,236,0.0,100.0
3274,45.0,0,476,0.0,100.0
3275,67.0,240,236,0.0,100.0
3276,50.0,0,476,0.0,100.0
3277,66.0,240,476,0.0,100.0
3278,64.0,0,236,0.0,100.0
3279,62.0,240,236,0.0,100.0
3280,48.0,480,476,0.0,100.0
3281,67.0,0,476,0.0,100.0
3282,47.0,240,476,0.0,100.0
3283,62.0,0,236,0.0,100.0
3284,65.0,240,236,0.0,100.0
3285,43.0,480,476,0.0,100.0
3286,64.0,0,476,0.0,100.0
3287,48.0,240,476,0.0,100.0
3288,69.0,0,236,0.0,100.0
3289,47.0,480,476,0.0,100.0
3290,64.0,240,236,0.0,100.0
3291,45.0,0,476,0.0,100.0
3292,66.0,240,476,0.0,100.0
3293,61.0,480,236,0.0,100.0
3294,64.0,240,236,0.0,100.0
3295,42.0,0,476,0.0,100.0
3296,63.0,240,476,0.0,100.0
3297,47.0,0,716,0.0,100.0
3298,48.0,240,236,0.0,100.0
3299,47.0,240,236,0.0,100.0
3300,45.0,240,236,0.0,100.0
3301,59.0,480,956,0.0,100.0
3302,64.0,240,236,0.0,100.0
3303,44.0,0,476,0.0,100.0
3304,59.0,240,236,0.0,100.0
3305,45.0,0,236,0.0,100.0
3306,60.0,240,476,0.0,100.0
3307,52.0,240,236,0.0,100.0
3308,62.0,240,236,0.0,100.0
3309,57.0,240,236,0.0,100.0
3310,54.0,0,476,0.0,100.0
3311,43.0,0,236,0.0,100.0
3312,59.0,240,476,0.0,100.0
3313,51.0,240,236,0.0,100.0
3314,60.0,240,236,0.0,100.0
3315,52.0,0,476,0.0,100.0
3316,55.0,240,236,0.0,100.0
3317,42.0,240,236,0.0,100.0
3318,49.0,240,236,0.0,100.0
3319,57.0,0,476,0.0,100.0
3320,59.0,0,236,0.0,100.0
3321,54.0,240,236,0.0,100.0
3322,51.0,240,476,0.0,100.0
3323,40.0,240,476,0.0,100.0
3324,55.0,0,476,0.0,100.0
3325,54.0,480,236,0.0,100.0
3326,45.0,0,476,0.0,100.0
3327,52.0,240,236,0.0,100.0
3328,47.0,0,476,0.0,100.0
3329,51.0,240,476,0.0,100.0
3330,52.0,480,236,0.0,100.0
3331,45.0,0,476,0.0,100.0
3332,54.0,240,236,0.0,100.0
3333,55.0,0,476,0.0,100.0
3334,54.0,480,236,0.0,100.0
3335,47.0,240,956,0.0,100.0
3336,52.0,240,236,0.0,100.0
3337,40.0,0,1436,0.0,100.0
3338,52.0,240,1436,0.0,100.0
3339,52.0,2040,116,0.0,100.0
3340,50.0,120,116,0.0,100.0
3341,48.0,120,116,0.0,100.0
3342,47.0,120,116,0.0,100.0
3343,45.0,120,116,0.0,100.0
3344,52.0,240,236,0.0,100.0
3345,43.0,120,476,0.0,100.0
3346,54.0,240,236,0.0,100.0
3347,55.0,0,116,0.0,100.0
3348,40.0,240,236,0.0,100.0
3349,59.0,120,116,0.0,100.0
3350,55.0,0,116,0.0,100.0
3351,52.0,120,116,0.0,100.0
3352,42.0,120,236,0.0,100.0
3353,64.0,0,116,0.0,100.0
3354,59.0,120,116,0.0,100.0
3355,43.0,120,236,0.0,100.0
3356,60.0,0,116,0.0,100.0
3357,59.0,120,116,0.0,100.0
3358,45.0,120,236,0.0,100.0
3359,57.0,0,116,0.0,100.0
3360,47.0,120,236,0.0,100.0
3361,55.0,120,116,0.0,100.0
3362,54.0,120,116,0.0,100.0
3363,48.0,0,236,0.0,100.0
3364,52.0,120,116,0.0,100.0
3365,51.0,120,116,0.0,100.0
3366,47.0,0,236,0.0,100.0
3367,66.0,120,116,0.0,100.0
3368,63.0,120,116,0.0,100.0
3369,49.0,0,236,0.0,100.0
3370,59.0,120,116,0.0,100.0
3371,71.0,120,116,0.0,100.0
3372,51.0,0,236,0.0,100.0
3373,66.0,120,116,0.0,100.0
3374,67.0,0,116,0.0,100.0
3375,52.0,120,236,0.0,100.0
3376,66.0,120,116,0.0,100.0
3377,64.0,0,116,0.0,100.0
3378,62.0,120,116,0.0,100.0
3379,54.0,120,236,0.0,100.0
3380,60.0,0,116,0.0,100.0
3381,59.0,120,116,0.0,100.0
3382,55.0,120,236,0.0,100.0
3383,60.0,0,116,0.0,100.0
3384,57.0,120,116,0.0,100.0
3385,59.0,120,116,0.0,100.0
3386,62.0,0,116,0.0,100.0
3387,57.0,0,116,0.0,100.0
3388,60.0,120,116,0.0,100.0
3389,59.0,0,116,0.0,100.0
3390,55.0,120,116,0.0,100.0
3391,57.0,0,116,0.0,100.0
3392,54.0,120,116,0.0,100.0
3393,52.0,0,116,0.0,100.0
3394,55.0,120,116,0.0,100.0
3395,57.0,120,116,0.0,100.0
3396,54.0,0,116,0.0,100.0
3397,55.0,120,116,0.0,100.0
3398,59.0,0,116,0.0,100.0
3399,57.0,120,116,0.0,100.0
3400,60.0,0,116,0.0,100.0
3401,55.0,120,116,0.0,100.0
3402,59.0,0,116,0.0,100.0
3403,57.0,0,116,0.0,100.0
3404,54.0,120,116,0.0,100.0
3405,52.0,0,116,0.0,100.0
3406,55.0,120,116,0.0,100.0
3407,51.0,0,116,0.0,100.0
3408,48.0,120,116,0.0,100.0
3409,47.0,120,116,0.0,100.0
3410,45.0,120,116,0.0,100.0
3411,54.0,120,476,0.0,100.0
3412,43.0,0,116,0.0,100.0
3413,42.0,120,116,0.0,100.0
3414,54.0,120,236,0.0,100.0
3415,40.0,120,116,0.0,100.0
3416,47.0,120,116,0.0,100.0
3417,43.0,120,116,0.0,100.0
3418,55.0,0,476,0.0,100.0
3419,40.0,120,116,0.0,100.0
3420,52.0,0,476,0.0,100.0
3421,52.0,120,116,0.0,100.0
3422,56.0,0,236,0.0,100.0
3423,47.0,120,116,0.0,100.0
3424,48.0,0,116,0.0,100.0
3425,52.0,120,116,0.0,100.0
3426,48.0,120,116,0.0,100.0
3427,46.0,120,116,0.0,100.0
3428,57.0,120,476,0.0,100.0
3429,54.0,0,116,0.0,100.0
3430,58.0,120,236,0.0,100.0
3431,49.0,120,116,0.0,100.0
3432,59.0,120,116,0.0,100.0
3433,50.0,0,236,0.0,100.0
3434,60.0,120,116,0.0,100.0
3435,59.0,120,116,0.0,100.0
3436,57.0,120,116,0.0,100.0
3437,49.0,0,236,0.0,100.0
3438,55.0,0,116,0.0,100.0
3439,54.0,120,116,0.0,100.0
3440,51.0,120,236,0.0,100.0
3441,55.0,120,116,0.0,100.0
3442,52.0,0,236,0.0,100.0
3443,57.0,120,116,0.0,100.0
3444,55.0,0,116,0.0,100.0
3445,64.0,120,236,0.0,100.0
3446,54.0,120,116,0.0,100.0
3447,52.0,0,116,0.0,100.0
3448,66.0,120,236,0.0,100.0
3449,51.0,120,116,0.0,100.0
3450,67.0,0,116,0.0,100.0
3451,69.0,120,116,0.0,100.0
3452,52.0,120,236,0.0,100.0
3453,67.0,120,116,0.0,100.0
3454,66.0,120,116,0.0,100.0
3455,54.0,0,236,0.0,100.0
3456,64.0,0,116,0.0,100.0
3457,55.0,120,236,0.0,100.0
3458,62.0,120,116,0.0,100.0
3459,57.0,120,116,0.0,100.0
3460,59.0,120,116,0.0,100.0
3461,61.0,0,236,0.0,100.0
3462,57.0,120,116,0.0,100.0
3463,55.0,120,116,0.0,100.0
3464,62.0,0,236,0.0,100.0
3465,54.0,120,116,0.0,100.0
3466,64.0,0,236,0.0,100.0
3467,52.0,120,116,0.0,100.0
3468,66.0,120,116,0.0,100.0
3469,67.0,120,116,0.0,100.0
3470,50.0,0,236,0.0,100.0
3471,66.0,120,116,0.0,100.0
3472,64.0,120,116,0.0,100.0
3473,52.0,0,236,0.0,100.0
3474,62.0,0,116,0.0,100.0
3475,54.0,120,236,0.0,100.0
3476,60.0,120,116,0.0,100.0
3477,59.0,120,116,0.0,100.0
3478,62.0,120,116,0.0,100.0
3479,55.0,0,356,0.0,100.0
3480,59.0,120,116,0.0,100.0
3481,55.0,120,116,0.0,100.0
3482,67.0,0,116,0.0,100.0
3483,62.0,120,116,0.0,100.0
3484,59.0,120,236,0.0,100.0
3485,55.0,120,116,0.0,100.0
3486,52.0,120,116,0.0,100.0
3487,48.0,120,116,0.0,100.0
3488,64.0,0,476,0.0,100.0
3489,60.0,120,476,0.0,101.0
3490,60.0,120,116,0.0,100.0
3491,55.0,120,116,0.0,100.0
3492,64.0,120,116,0.0,100.0
3493,61.0,120,116,0.0,100.0
3494,45.0,120,476,0.0,101.0
3495,57.0,120,116,0.0,100.0
3496,69.0,0,116,0.0,100.0
3497,64.0,120,116,0.0,100.0
3498,49.0,120,236,0.0,101.0
3499,57.0,120,116,0.0,101.0
3500,54.0,120,116,0.0,101.0
3501,66.0,120,476,0.0,101.0
3502,62.0,0,476,0.0,101.0
3503,50.0,120,116,0.0,101.0
3504,62.0,120,116,0.0,101.0
3505,57.0,120,116,0.0,101.0
3506,51.0,120,116,0.0,101.0
3507,47.0,0,236,0.0,101.0
3508,62.0,120,116,0.0,101.0
3509,59.0,120,116,0.0,101.0
3510,55.0,0,116,0.0,101.0
3511,45.0,0,236,0.0,101.0
3512,67.0,120,116,0.0,101.0
3513,62.0,120,116,0.0,101.0
3514,47.0,0,236,0.0,101.0
3515,64.0,120,116,0.0,101.0
3516,48.0,0,236,0.0,101.0
3517,62.0,120,116,0.0,101.0
3518,60.0,0,116,0.0,101.0
3519,59.0,120,116,0.0,101.0
3520,50.0,120,236,0.0,101.0
3521,57.0,0,116,0.0,101.0
3522,52.0,120,236,0.0,101.0
3523,55.0,120,116,0.0,101.0
3524,50.0,0,116,0.0,101.0
3525,54.0,120,236,0.0,101.0
3526,52.0,120,116,0.0,101.0
3527,50.0,120,116,0.0,101.0
3528,48.0,120,116,0.0,101.0
3529,55.0,0,236,0.0,101.0
3530,47.0,120,116,0.0,101.0
3531,57.0,0,236,0.0,101.0
3532,45.0,120,116,0.0,101.0
3533,55.0,120,116,0.0,101.0
3534,57.0,120,116,0.0,101.0
3535,59.0,0,236,0.0,101.0
3536,43.0,0,236,0.0,101.0
3537,55.0,0,116,0.0,101.0
3538,53.0,120,116,0.0,101.0
3539,60.0,120,236,0.0,101.0
3540,52.0,120,116,0.0,101.0
3541,50.0,120,116,0.0,101.0
3542,62.0,0,236,0.0,101.0
3543,60.0,0,116,0.0,101.0
3544,64.0,120,116,0.0,101.0
3545,67.0,120,116,0.0,101.0
3546,48.0,0,236,0.0,101.0
3547,72.0,0,116,0.0,101.0
3548,71.0,120,116,0.0,101.0
3549,50.0,120,236,0.0,101.0
3550,69.0,120,116,0.0,101.0
3551,52.0,0,236,0.0,101.0
3552,67.0,120,116,0.0,101.0
3553,66.0,120,116,0.0,101.0
3554,67.0,120,116,0.0,101.0
3555,50.0,0,236,0.0,101.0
3556,66.0,0,116,0.0,101.0
3557,64.0,120,116,0.0,101.0
3558,40.0,120,236,0.0,101.0
3559,62.0,0,116,0.0,101.0
3560,60.0,120,116,0.0,101.0
3561,42.0,120,236,0.0,101.0
3562,43.0,120,116,0.0,101.0
3563,47.0,120,116,0.0,101.0
3564,43.0,120,116,0.0,101.0
3565,59.0,0,476,0.0,101.0
3566,40.0,120,116,0.0,101.0
3567,52.0,120,116,0.0,101.0
3568,55.0,0,236,0.0,101.0
3569,47.0,120,116,0.0,101.0
3570,59.0,0,236,0.0,101.0
3571,48.0,120,116,0.0,101.0
3572,52.0,120,116,0.0,101.0
3573,48.0,120,116,0.0,101.0
3574,45.0,120,116,0.0,101.0
3575,57.0,0,476,0.0,101.0
3576,50.0,120,116,0.0,101.0
3577,50.0,120,116,0.0,101.0
3578,57.0,0,236,0.0,101.0
3579,54.0,0,236,0.0,101.0
3580,55.0,0,116,0.0,101.0
3581,59.0,120,116,0.0,101.0
3582,57.0,120,116,0.0,101.0
3583,55.0,120,116,0.0,101.0
3584,43.0,120,476,0.0,101.0
3585,54.0,0,116,0.0,101.0
3586,43.0,120,236,0.0,101.0
3587,52.0,120,116,0.0,101.0
3588,60.0,0,116,0.0,101.0
3589,59.0,120,116,0.0,101.0
3590,45.0,120,236,0.0,101.0
3591,57.0,120,116,0.0,101.0
3592,55.0,120,116,0.0,101.0
3593,47.0,0,236,0.0,101.0
3594,54.0,120,116,0.0,101.0
3595,48.0,0,236,0.0,101.0
3596,52.0,120,116,0.0,101.0
3597,51.0,0,116,0.0,101.0
3598,66.0,120,116,0.0,101.0
3599,47.0,0,236,0.0,101.0
3600,64.0,0,116,0.0,101.0
3601,49.0,120,236,0.0,101.0
3602,63.0,120,116,0.0,101.0
3603,61.0,0,116,0.0,101.0
3604,51.0,120,236,0.0,101.0
3605,59.0,120,116,0.0,101.0
3606,67.0,120,116,0.0,101.0
3607,52.0,0,236,0.0,101.0
3608,66.0,120,116,0.0,101.0
3609,64.0,0,116,0.0,101.0
3610,62.0,120,116,0.0,101.0
3611,54.0,120,236,0.0,101.0
3612,60.0,0,116,0.0,101.0
3613,59.0,120,116,0.0,101.0
3614,55.0,120,236,0.0,101.0
3615,58.0,0,116,0.0,101.0
3616,61.0,120,116,0.0,101.0
3617,58.0,120,116,0.0,101.0
3618,54.0,120,356,0.0,101.0
3619,54.0,120,116,0.0,101.0
3620,66.0,0,116,0.0,101.0
3621,58.0,120,236,0.0,101.0
3622,61.0,120,116,0.0,101.0
3623,59.0,120,116,0.0,101.0
3624,54.0,120,116,0.0,101.0
3625,50.0,120,116,0.0,101.0
3626,47.0,120,116,0.0,101.0
3627,62.0,0,476,0.0,101.0
3628,59.0,0,116,0.0,101.0
3629,54.0,120,116,0.0,101.0
3630,63.0,120,236,0.0,101.0
3631,64.0,0,116,0.0,101.0
3632,59.0,0,116,0.0,101.0
3633,55.0,120,116,0.0,101.0
3634,63.0,0,116,0.0,101.0
3635,54.0,120,116,0.0,101.0
3636,55.0,0,116,0.0,101.0
3637,59.0,0,116,0.0,101.0
3638,64.0,120,116,0.0,101.0
3639,63.0,120,116,0.0,101.0
3640,54.0,0,116,0.0,101.0
3641,64.0,120,116,0.0,101.0
3642,59.0,0,116,0.0,101.0
3643,55.0,0,116,0.0,101.0
3644,54.0,120,116,0.0,101.0
3645,66.0,0,116,0.0,101.0
3646,67.0,0,236,0.0,101.0
3647,52.0,0,236,0.0,101.0
3648,54.0,240,236,0.0,101.0
3649,59.0,120,476,0.0,101.0
3650,61.0,0,356,0.0,101.0
3651,42.0,240,236,0.0,101.0
3652,59.0,120,116,0.0,101.0
3653,58.0,0,236,0.0,101.0
3654,59.0,0,116,0.0,101.0
3655,54.0,120,116,0.0,101.0
3656,47.0,120,236,0.0,101.0
3657,51.0,120,116,0.0,101.0
3658,54.0,120,116,0.0,101.0
3659,47.0,0,236,0.0,101.0
3660,59.0,0,116,0.0,101.0
3661,54.0,120,116,0.0,101.0
3662,47.0,120,236,0.0,101.0
3663,55.0,0,116,0.0,101.0
3664,47.0,120,236,0.0,101.0
3665,52.0,120,116,0.0,101.0
3666,55.0,120,116,0.0,101.0
3667,59.0,120,116,0.0,101.0
3668,47.0,0,236,0.0,101.0
3669,64.0,0,116,0.0,101.0
3670,58.0,120,116,0.0,101.0
3671,47.0,120,236,0.0,101.0
3672,51.0,120,116,0.0,100.0
3673,64.0,120,116,0.0,100.0
3674,55.0,0,116,0.0,100.0
3675,57.0,120,116,0.0,100.0
3676,66.0,0,116,0.0,100.0
3677,47.0,0,476,0.0,100.0
3678,55.0,0,116,0.0,100.0
3679,59.0,0,476,0.0,100.0
3680,64.0,120,116,0.0,100.0
3681,54.0,120,116,0.0,100.0
3682,63.0,0,116,0.0,100.0
3683,61.0,0,116,0.0,100.0
3684,52.0,120,116,0.0,100.0
3685,59.0,0,716,0.0,100.0
3686,47.0,120,716,0.0,100.0
3687,63.0,0,716,0.0,100.0
3688,54.0,0,716,0.0,100.0
3689,52.0,840,116,0.0,100.0
3690,50.0,120,116,0.0,100.0
3691,48.0,120,116,0.0,100.0
3692,47.0,120,116,0.0,100.0
3693,45.0,120,116,0.0,100.0
3694,52.0,240,236,0.0,100.0
3695,43.0,120,476,0.0,100.0
3696,54.0,240,236,0.0,100.0
3697,55.0,0,116,0.0,100.0
3698,59.0,120,116,0.0,100.0
3699,40.0,0,236,0.0,100.0
3700,55.0,120,116,0.0,100.0
3701,52.0,120,116,0.0,100.0
3702,42.0,0,236,0.0,100.0
3703,64.0,0,116,0.0,100.0
3704,59.0,120,116,0.0,100.0
3705,43.0,120,236,0.0,100.0
3706,60.0,0,116,0.0,100.0
3707,59.0,120,116,0.0,100.0
3708,45.0,120,236,0.0,100.0
3709,57.0,120,116,0.0,100.0
3710,55.0,120,116,0.0,100.0
3711,47.0,0,236,0.0,100.0
3712,54.0,0,116,0.0,100.0
3713,48.0,120,236,0.0,100.0
3714,52.0,120,116,0.0,100.0
3715,51.0,120,116,0.0,100.0
3716,66.0,120,116,0.0,100.0
3717,47.0,0,236,0.0,100.0
3718,63.0,120,116,0.0,100.0
3719,59.0,120,116,0.0,100.0
3720,49.0,0,236,0.0,100.0
3721,71.0,120,116,0.0,100.0
3722,51.0,0,236,0.0,100.0
3723,66.0,120,116,0.0,100.0
3724,67.0,120,116,0.0,100.0
3725,66.0,120,116,0.0,100.0
3726,52.0,0,236,0.0,100.0
3727,64.0,0,116,0.0,100.0
3728,54.0,120,236,0.0,100.0
3729,62.0,120,116,0.0,100.0
3730,60.0,0,116,0.0,100.0
3731,59.0,120,116,0.0,100.0
3732,55.0,120,236,0.0,100.0
3733,60.0,120,116,0.0,100.0
3734,57.0,0,116,0.0,100.0
3735,59.0,120,116,0.0,100.0
3736,62.0,0,116,0.0,100.0
3737,57.0,120,116,0.0,100.0
3738,60.0,0,116,0.0,100.0
3739,59.0,0,116,0.0,100.0
3740,55.0,120,116,0.0,100.0
3741,54.0,0,116,0.0,100.0
3742,57.0,120,116,0.0,100.0
3743,55.0,120,116,0.0,100.0
3744,52.0,0,116,0.0,100.0
3745,57.0,0,116,0.0,100.0
3746,54.0,120,116,0.0,100.0
3747,59.0,0,116,0.0,100.0
3748,55.0,120,116,0.0,100.0
3749,60.0,120,116,0.0,100.0
3750,57.0,0,116,0.0,100.0
3751,59.0,120,116,0.0,100.0
3752,55.0,0,116,0.0,100.0
3753,54.0,120,116,0.0,100.0
3754,57.0,0,116,0.0,100.0
3755,52.0,0,116,0.0,100.0
3756,55.0,120,116,0.0,100.0
3757,51.0,0,116,0.0,100.0
3758,48.0,120,116,0.0,100.0
3759,47.0,120,116,0.0,100.0
3760,45.0,120,116,0.0,100.0
3761,54.0,120,476,0.0,100.0
3762,43.0,120,116,0.0,100.0
3763,42.0,120,116,0.0,100.0
3764,54.0,0,236,0.0,100.0
3765,40.0,0,116,0.0,100.0
3766,47.0,120,116,0.0,100.0
3767,43.0,120,116,0.0,100.0
3768,55.0,120,476,0.0,100.0
3769,52.0,0,476,0.0,100.0
3770,40.0,120,116,0.0,100.0
3771,52.0,0,116,0.0,100.0
3772,47.0,120,116,0.0,100.0
3773,56.0,120,236,0.0,100.0
3774,48.0,0,116,0.0,100.0
3775,52.0,120,116,0.0,100.0
3776,48.0,120,116,0.0,100.0
3777,46.0,120,116,0.0,100.0
3778,57.0,120,476,0.0,100.0
3779,54.0,120,116,0.0,100.0
3780,58.0,0,236,0.0,100.0
3781,49.0,120,116,0.0,100.0
3782,59.0,0,116,0.0,100.0
3783,60.0,120,116,0.0,100.0
3784,50.0,120,236,0.0,100.0
3785,59.0,0,116,0.0,100.0
3786,49.0,120,236,0.0,100.0
3787,57.0,120,116,0.0,100.0
3788,55.0,120,116,0.0,100.0
3789,51.0,0,236,0.0,100.0
3790,54.0,120,116,0.0,100.0
3791,55.0,0,116,0.0,100.0
3792,52.0,120,236,0.0,100.0
3793,57.0,120,116,0.0,100.0
3794,55.0,0,116,0.0,100.0
3795,64.0,120,236,0.0,100.0
3796,54.0,120,116,0.0,100.0
3797,52.0,120,116,0.0,100.0
3798,51.0,120,116,0.0,100.0
3799,66.0,0,236,0.0,100.0
3800,67.0,120,116,0.0,100.0
3801,69.0,120,116,0.0,100.0
3802,52.0,0,236,0.0,100.0
3803,67.0,0,116,0.0,100.0
3804,54.0,120,236,0.0,100.0
3805,66.0,120,116,0.0,100.0
3806,64.0,0,116,0.0,100.0
3807,62.0,120,116,0.0,100.0
3808,55.0,120,236,0.0,100.0
3809,57.0,120,116,0.0,100.0
3810,59.0,120,116,0.0,100.0
3811,61.0,0,236,0.0,100.0
3812,57.0,120,116,0.0,100.0
3813,62.0,0,236,0.0,100.0
3814,55.0,120,116,0.0,100.0
3815,54.0,0,116,0.0,100.0
3816,52.0,120,116,0.0,100.0
3817,64.0,120,236,0.0,100.0
3818,66.0,120,116,0.0,100.0
3819,50.0,0,236,0.0,100.0
3820,67.0,120,116,0.0,100.0
3821,66.0,0,116,0.0,100.0
3822,64.0,120,116,0.0,100.0
3823,52.0,120,236,0.0,100.0
3824,62.0,0,116,0.0,100.0
3825,54.0,120,236,0.0,100.0
3826,60.0,120,116,0.0,100.0
3827,59.0,120,116,0.0,100.0
3828,62.0,120,116,0.0,100.0
3829,55.0,0,356,0.0,100.0
3830,59.0,120,116,0.0,100.0
3831,55.0,120,116,0.0,100.0
3832,67.0,0,116,0.0,100.0
3833,59.0,120,236,0.0,100.0
3834,62.0,120,116,0.0,100.0
3835,55.0,120,116,0.0,100.0
3836,52.0,120,116,0.0,100.0
3837,60.0,0,476,0.0,101.0
3838,64.0,120,476,0.0,100.0
3839,48.0,120,116,0.0,100.0
3840,60.0,120,116,0.0,100.0
3841,55.0,120,116,0.0,100.0
3842,64.0,120,116,0.0,100.0
3843,61.0,120,116,0.0,100.0
3844,57.0,120,116,0.0,100.0
3845,45.0,120,476,0.0,101.0
3846,69.0,0,116,0.0,100.0
3847,64.0,120,116,0.0,100.0
3848,49.0,120,236,0.0,101.0
3849,57.0,120,116,0.0,101.0
3850,54.0,120,116,0.0,101.0
3851,62.0,120,476,0.0,101.0
3852,50.0,120,116,0.0,101.0
3853,66.0,0,476,0.0,101.0
3854,62.0,120,116,0.0,101.0
3855,57.0,120,116,0.0,101.0
3856,51.0,0,116,0.0,101.0
3857,62.0,120,116,0.0,101.0
3858,47.0,120,236,0.0,101.0
3859,59.0,0,116,0.0,101.0
3860,55.0,0,116,0.0,101.0
3861,45.0,120,236,0.0,101.0
3862,67.0,0,116,0.0,101.0
3863,47.0,0,236,0.0,101.0
3864,62.0,120,116,0.0,101.0
3865,64.0,120,116,0.0,101.0
3866,48.0,0,236,0.0,101.0
3867,62.0,120,116,0.0,101.0
3868,60.0,0,116,0.0,101.0
3869,50.0,120,236,0.0,101.0
3870,59.0,120,116,0.0,101.0
3871,57.0,0,116,0.0,101.0
3872,52.0,120,236,0.0,101.0
3873,55.0,120,116,0.0,101.0
3874,50.0,0,116,0.0,101.0
3875,54.0,120,236,0.0,101.0
3876,52.0,120,116,0.0,101.0
3877,50.0,120,116,0.0,101.0
3878,48.0,120,116,0.0,101.0
3879,55.0,0,236,0.0,101.0
3880,47.0,0,116,0.0,101.0
3881,45.0,120,116,0.0,101.0
3882,57.0,120,236,0.0,101.0
3883,55.0,0,116,0.0,101.0
3884,59.0,0,236,0.0,101.0
3885,57.0,120,116,0.0,101.0
3886,43.0,120,236,0.0,101.0
3887,55.0,0,116,0.0,101.0
3888,53.0,120,116,0.0,101.0
3889,60.0,120,236,0.0,101.0
3890,52.0,120,116,0.0,101.0
3891,50.0,120,116,0.0,101.0
3892,62.0,0,236,0.0,101.0
3893,60.0,0,116,0.0,101.0
3894,64.0,0,116,0.0,101.0
3895,48.0,120,236,0.0,101.0
3896,67.0,120,116,0.0,101.0
3897,72.0,120,116,0.0,101.0
3898,50.0,0,236,0.0,101.0
3899,71.0,120,116,0.0,101.0
3900,69.0,0,116,0.0,101.0
3901,67.0,120,116,0.0,101.0
3902,52.0,120,236,0.0,101.0
3903,66.0,0,116,0.0,101.0
3904,67.0,120,116,0.0,101.0
3905,50.0,120,236,0.0,101.0
3906,66.0,0,116,0.0,101.0
3907,64.0,120,116,0.0,101.0
3908,40.0,120,236,0.0,101.0
3909,62.0,0,116,0.0,101.0
3910,42.0,120,236,0.0,101.0
3911,60.0,120,116,0.0,101.0
3912,43.0,0,116,0.0,101.0
3913,47.0,120,116,0.0,101.0
3914,43.0,120,116,0.0,101.0
3915,40.0,120,116,0.0,101.0
3916,59.0,120,476,0.0,101.0
3917,52.0,120,116,0.0,101.0
3918,47.0,120,116,0.0,101.0
3919,59.0,0,236,0.0,101.0
3920,55.0,0,236,0.0,101.0
3921,48.0,120,116,0.0,101.0
3922,52.0,120,116,0.0,101.0
3923,48.0,120,116,0.0,101.0
3924,57.0,0,476,0.0,101.0
3925,45.0,120,116,0.0,101.0
3926,50.0,0,116,0.0,101.0
3927,54.0,120,236,0.0,101.0
3928,50.0,120,116,0.0,101.0
3929,57.0,0,236,0.0,101.0
3930,55.0,0,116,0.0,101.0
3931,59.0,120,116,0.0,101.0
3932,57.0,120,116,0.0,101.0
3933,55.0,120,116,0.0,101.0
3934,43.0,120,476,0.0,101.0
3935,54.0,120,116,0.0,101.0
3936,52.0,120,116,0.0,101.0
3937,43.0,0,236,0.0,101.0
3938,60.0,0,116,0.0,101.0
3939,59.0,120,116,0.0,101.0
3940,45.0,120,236,0.0,101.0
3941,57.0,0,116,0.0,101.0
3942,47.0,120,236,0.0,101.0
3943,55.0,120,116,0.0,101.0
3944,54.0,0,116,0.0,101.0
3945,48.0,120,236,0.0,101.0
3946,52.0,120,116,0.0,101.0
3947,51.0,120,116,0.0,101.0
3948,66.0,120,116,0.0,101.0
3949,47.0,0,236,0.0,101.0
3950,64.0,0,116,0.0,101.0
3951,49.0,120,236,0.0,101.0
3952,63.0,120,116,0.0,101.0
3953,61.0,0,116,0.0,101.0
3954,59.0,120,116,0.0,101.0
3955,51.0,120,236,0.0,101.0
3956,67.0,120,116,0.0,101.0
3957,66.0,120,116,0.0,101.0
3958,52.0,0,236,0.0,101.0
3959,64.0,0,116,0.0,101.0
3960,62.0,120,116,0.0,101.0
3961,54.0,120,236,0.0,101.0
3962,60.0,0,116,0.0,101.0
3963,55.0,120,236,0.0,101.0
3964,59.0,120,116,0.0,101.0
3965,58.0,120,116,0.0,101.0
3966,61.0,120,116,0.0,101.0
3967,58.0,120,116,0.0,101.0
3968,54.0,0,356,0.0,101.0
3969,54.0,120,116,0.0,101.0
3970,66.0,0,116,0.0,101.0
3971,61.0,120,116,0.0,101.0
3972,58.0,120,236,0.0,101.0
3973,59.0,0,116,0.0,101.0
3974,54.0,120,116,0.0,101.0
3975,50.0,120,116,0.0,101.0
3976,62.0,120,476,0.0,101.0
3977,47.0,120,116,0.0,101.0
3978,59.0,0,116,0.0,101.0
3979,54.0,120,116,0.0,101.0
3980,63.0,120,236,0.0,101.0
3981,59.0,0,116,0.0,101.0
3982,64.0,120,116,0.0,101.0
3983,55.0,0,116,0.0,101.0
3984,54.0,120,116,0.0,101.0
3985,63.0,0,116,0.0,101.0
3986,64.0,0,116,0.0,101.0
3987,55.0,0,116,0.0,101.0
3988,59.0,120,116,0.0,101.0
3989,63.0,0,116,0.0,101.0
3990,54.0,120,116,0.0,101.0
3991,55.0,120,116,0.0,101.0
3992,64.0,0,116,0.0,101.0
3993,59.0,0,116,0.0,101.0
3994,66.0,0,116,0.0,101.0
3995,54.0,120,116,0.0,101.0
3996,52.0,0,236,0.0,101.0
3997,67.0,120,236,0.0,101.0
3998,54.0,240,236,0.0,101.0
3999,59.0,0,476,0.0,101.0
4000,61.0,0,356,0.0,101.0
4001,42.0,240,236,0.0,101.0
4002,59.0,120,116,0.0,101.0
4003,58.0,0,236,0.0,101.0
4004,59.0,0,116,0.0,101.0
4005,54.0,120,116,0.0,101.0
4006,47.0,120,236,0.0,101.0
4007,51.0,0,116,0.0,101.0
4008,47.0,120,236,0.0,101.0
4009,54.0,120,116,0.0,101.0
4010,59.0,120,116,0.0,101.0
4011,54.0,120,116,0.0,101.0
4012,47.0,0,236,0.0,101.0
4013,55.0,120,116,0.0,101.0
4014,47.0,0,236,0.0,101.0
4015,52.0,120,116,0.0,101.0
4016,55.0,0,116,0.0,101.0
4017,59.0,120,116,0.0,101.0
4018,47.0,120,236,0.0,101.0
4019,64.0,0,116,0.0,101.0
4020,47.0,120,236,0.0,101.0
4021,58.0,120,116,0.0,101.0
4022,51.0,120,116,0.0,100.0
4023,64.0,0,116,0.0,100.0
4024,55.0,120,116,0.0,100.0
4025,57.0,120,116,0.0,100.0
4026,66.0,0,116,0.0,100.0
4027,64.0,120,116,0.0,100.0
4028,47.0,0,476,0.0,100.0
4029,59.0,0,476,0.0,100.0
4030,55.0,0,116,0.0,100.0
4031,54.0,120,116,0.0,100.0
4032,63.0,0,116,0.0,100.0
4033,61.0,0,116,0.0,100.0
4034,52.0,120,116,0.0,100.0
4035,47.0,0,716,0.0,100.0
4036,63.0,0,716,0.0,100.0
4037,54.0,120,716,0.0,100.0
4038,59.0,0,716,0.0,100.0
4039,47.0,840,116,0.0,101.0
4040,49.0,120,116,0.0,101.0
4041,51.0,120,116,0.0,101.0
4042,52.0,120,116,0.0,101.0
4043,54.0,120,116,0.0,101.0
4044,51.0,120,116,0.0,99.0
4045,40.0,120,116,0.0,99.0
4046,42.0,120,116,0.0,99.0
4047,55.0,0,476,0.0,99.0
4048,43.0,120,116,0.0,99.0
4049,45.0,120,116,0.0,99.0
4050,47.0,120,116,0.0,99.0
4051,54.0,0,236,0.0,99.0
4052,51.0,0,116,0.0,100.0
4053,64.0,120,116,0.0,100.0
4054,66.0,120,116,0.0,100.0
4055,67.0,120,116,0.0,100.0
4056,52.0,0,476,0.0,99.0
4057,48.0,120,476,0.0,100.0
4058,69.0,120,116,0.0,100.0
4059,71.0,120,116,0.0,100.0
4060,47.0,0,236,0.0,100.0
4061,45.0,120,116,0.0,100.0
4062,54.0,120,116,0.0,100.0
4063,72.0,0,236,0.0,100.0
4064,55.0,120,116,0.0,100.0
4065,57.0,120,116,0.0,100.0
4066,71.0,0,236,0.0,100.0
4067,59.0,120,116,0.0,100.0
4068,60.0,120,116,0.0,100.0
4069,67.0,0,236,0.0,100.0
4070,62.0,0,116,0.0,100.0
4071,67.0,120,116,0.0,100.0
4072,66.0,120,116,0.0,100.0
4073,64.0,120,116,0.0,100.0
4074,62.0,120,116,0.0,100.0
4075,60.0,120,116,0.0,100.0
4076,69.0,120,716,0.0,100.0
4077,51.0,120,116,0.0,101.0
4078,62.0,120,116,0.0,101.0
4079,64.0,120,116,0.0,101.0
4080,59.0,0,476,0.0,100.0
4081,66.0,120,116,0.0,101.0
4082,67.0,120,116,0.0,101.0
4083,69.0,120,116,0.0,101.0
4084,57.0,0,236,0.0,101.0
4085,71.0,120,116,0.0,101.0
4086,59.0,120,116,0.0,101.0
4087,60.0,120,116,0.0,101.0
4088,55.0,0,476,0.0,101.0
4089,62.0,120,116,0.0,101.0
4090,64.0,0,116,0.0,101.0
4091,54.0,120,236,0.0,101.0
4092,66.0,120,116,0.0,101.0
4093,52.0,0,116,0.0,101.0
4094,55.0,120,116,0.0,101.0
4095,59.0,120,116,0.0,101.0
4096,64.0,120,116,0.0,101.0
4097,67.0,120,476,0.0,101.0
4098,57.0,120,116,0.0,101.0
4099,67.0,0,236,0.0,101.0
4100,60.0,120,116,0.0,101.0
4101,50.0,120,116,0.0,101.0
4102,54.0,120,116,0.0,101.0
4103,57.0,120,116,0.0,101.0
4104,66.0,0,476,0.0,101.0
4105,62.0,120,116,0.0,101.0
4106,55.0,0,116,0.0,101.0
4107,59.0,120,116,0.0,101.0
4108,66.0,120,236,0.0,101.0
4109,48.0,120,116,0.0,101.0
4110,52.0,120,116,0.0,101.0
4111,55.0,120,116,0.0,101.0
4112,64.0,0,476,0.0,101.0
4113,60.0,120,116,0.0,101.0
4114,54.0,120,116,0.0,101.0
4115,64.0,0,236,0.0,101.0
4116,57.0,120,116,0.0,101.0
4117,47.0,120,116,0.0,101.0
4118,51.0,120,116,0.0,101.0
4119,54.0,120,116,0.0,101.0
4120,59.0,120,116,0.0,101.0
4121,63.0,0,476,0.0,101.0
4122,52.0,120,116,0.0,101.0
4123,62.0,0,236,0.0,101.0
4124,56.0,120,116,0.0,101.0
4125,45.0,120,116,0.0,101.0
4126,49.0,120,116,0.0,101.0
4127,52.0,120,116,0.0,101.0
4128,61.0,0,476,0.0,101.0
4129,57.0,120,116,0.0,101.0
4130,50.0,0,116,0.0,101.0
4131,54.0,120,116,0.0,101.0
4132,60.0,120,236,0.0,101.0
4133,59.0,120,116,0.0,101.0
4134,55.0,120,116,0.0,101.0
4135,43.0,0,236,0.0,101.0
4136,57.0,120,116,0.0,101.0
4137,43.0,0,116,0.0,101.0
4138,59.0,120,116,0.0,101.0
4139,45.0,0,116,0.0,101.0
4140,60.0,120,116,0.0,101.0
4141,47.0,120,116,0.0,101.0
4142,62.0,0,116,0.0,101.0
4143,64.0,0,116,0.0,101.0
4144,48.0,120,116,0.0,101.0
4145,62.0,0,116,0.0,101.0
4146,47.0,120,116,0.0,101.0
4147,64.0,0,116,0.0,101.0
4148,48.0,120,116,0.0,101.0
4149,66.0,0,116,0.0,101.0
4150,50.0,120,116,0.0,101.0
4151,67.0,0,116,0.0,101.0
4152,52.0,120,116,0.0,101.0
4153,69.0,0,116,0.0,101.0
4154,54.0,120,116,0.0,101.0
4155,55.0,0,116,0.0,101.0
4156,71.0,0,116,0.0,101.0
4157,57.0,120,116,0.0,101.0
4158,54.0,0,116,0.0,101.0
4159,59.0,120,116,0.0,101.0
4160,55.0,0,116,0.0,101.0
4161,60.0,0,116,0.0,101.0
4162,57.0,120,116,0.0,101.0
4163,62.0,0,116,0.0,101.0
4164,59.0,120,116,0.0,101.0
4165,43.0,120,116,0.0,101.0
4166,48.0,120,116,0.0,101.0
4167,55.0,0,116,0.0,101.0
4168,64.0,0,236,0.0,101.0
4169,40.0,120,116,0.0,101.0
4170,45.0,120,116,0.0,101.0
4171,48.0,120,116,0.0,101.0
4172,57.0,0,356,0.0,101.0
4173,55.0,120,116,0.0,101.0
4174,54.0,0,236,0.0,101.0
4175,50.0,120,236,0.0,101.0
4176,55.0,0,116,0.0,101.0
4177,59.0,120,116,0.0,101.0
4178,62.0,120,116,0.0,101.0
4179,67.0,120,116,0.0,101.0
4180,43.0,120,476,0.0,101.0
4181,55.0,0,116,0.0,101.0
4182,66.0,120,116,0.0,101.0
4183,47.0,120,236,0.0,101.0
4184,48.0,0,116,0.0,101.0
4185,52.0,120,116,0.0,101.0
4186,60.0,0,356,0.0,101.0
4187,55.0,120,116,0.0,101.0
4188,64.0,120,476,0.0,101.0
4189,60.0,120,116,0.0,101.0
4190,48.0,120,116,0.0,101.0
4191,55.0,120,116,0.0,101.0
4192,57.0,0,116,0.0,101.0
4193,61.0,120,116,0.0,101.0
4194,64.0,120,116,0.0,101.0
4195,69.0,120,116,0.0,101.0
4196,49.0,120,476,0.0,101.0
4197,57.0,120,116,0.0,101.0
4198,49.0,0,236,0.0,101.0
4199,67.0,120,116,0.0,101.0
4200,50.0,120,116,0.0,101.0
4201,54.0,120,116,0.0,101.0
4202,57.0,120,116,0.0,101.0
4203,62.0,120,116,0.0,101.0
4204,66.0,0,476,0.0,101.0
4205,50.0,120,116,0.0,101.0
4206,57.0,120,116,0.0,101.0
4207,59.0,120,116,0.0,101.0
4208,63.0,120,116,0.0,101.0
4209,66.0,120,116,0.0,101.0
4210,51.0,0,476,0.0,101.0
4211,71.0,120,116,0.0,101.0
4212,59.0,120,116,0.0,101.0
4213,69.0,120,116,0.0,101.0
4214,52.0,120,116,0.0,101.0
4215,55.0,120,116,0.0,101.0
4216,59.0,120,116,0.0,101.0
4217,67.0,0,356,0.0,101.0
4218,72.0,0,116,0.0,101.0
4219,64.0,120,116,0.0,101.0
4220,66.0,0,116,0.0,101.0
4221,50.0,120,116,0.0,101.0
4222,71.0,0,116,0.0,101.0
4223,62.0,120,116,0.0,101.0
4224,48.0,120,116,0.0,101.0
4225,52.0,120,116,0.0,101.0
4226,64.0,0,356,0.0,101.0
4227,57.0,120,116,0.0,101.0
4228,60.0,120,116,0.0,101.0
4229,69.0,0,116,0.0,101.0
4230,62.0,0,116,0.0,101.0
4231,47.0,120,116,0.0,101.0
4232,67.0,0,116,0.0,101.0
4233,59.0,120,116,0.0,101.0
4234,45.0,120,116,0.0,101.0
4235,48.0,120,116,0.0,101.0
4236,60.0,0,356,0.0,101.0
4237,53.0,120,116,0.0,101.0
4238,65.0,0,116,0.0,101.0
4239,57.0,120,116,0.0,101.0
4240,59.0,0,116,0.0,101.0
4241,43.0,120,116,0.0,101.0
4242,55.0,0,116,0.0,101.0
4243,64.0,120,116,0.0,101.0
4244,63.0,0,116,0.0,101.0
4245,72.0,120,116,0.0,101.0
4246,69.0,120,116,0.0,101.0
4247,66.0,120,116,0.0,101.0
4248,54.0,120,476,0.0,101.0
4249,71.0,120,116,0.0,101.0
4250,51.0,0,236,0.0,101.0
4251,66.0,120,116,0.0,101.0
4252,67.0,120,116,0.0,101.0
4253,71.0,120,116,0.0,101.0
4254,67.0,120,116,0.0,101.0
4255,52.0,0,476,0.0,101.0
4256,64.0,120,116,0.0,101.0
4257,69.0,120,116,0.0,101.0
4258,64.0,120,116,0.0,101.0
4259,49.0,0,236,0.0,101.0
4260,66.0,0,116,0.0,101.0
4261,69.0,120,116,0.0,101.0
4262,50.0,120,236,0.0,101.0
4263,66.0,0,116,0.0,101.0
4264,62.0,120,116,0.0,101.0
4265,57.0,120,236,0.0,101.0
4266,67.0,0,116,0.0,101.0
4267,62.0,120,116,0.0,101.0
4268,47.0,120,236,0.0,101.0
4269,64.0,120,116,0.0,101.0
4270,48.0,0,236,0.0,101.0
4271,67.0,120,116,0.0,101.0
4272,64.0,0,116,0.0,101.0
4273,55.0,120,236,0.0,101.0
4274,60.0,120,116,0.0,101.0
4275,65.0,0,116,0.0,101.0
4276,69.0,120,116,0.0,101.0
4277,45.0,120,236,0.0,101.0
4278,63.0,0,116,0.0,101.0
4279,66.0,120,116,0.0,101.0
4280,47.0,120,236,0.0,101.0
4281,63.0,120,116,0.0,101.0
4282,54.0,0,236,0.0,101.0
4283,59.0,120,116,0.0,101.0
4284,64.0,120,116,0.0,101.0
4285,43.0,0,236,0.0,101.0
4286,67.0,120,116,0.0,101.0
4287,60.0,0,116,0.0,101.0
4288,72.0,120,116,0.0,101.0
4289,69.0,120,116,0.0,101.0
4290,45.0,120,476,0.0,101.0
4291,65.0,120,116,0.0,101.0
4292,72.0,120,116,0.0,101.0
4293,64.0,120,116,0.0,101.0
4294,57.0,0,236,0.0,101.0
4295,59.0,120,116,0.0,101.0
4296,47.0,120,116,0.0,101.0
4297,49.0,120,116,0.0,101.0
4298,51.0,120,116,0.0,101.0
4299,63.0,0,476,0.0,101.0
4300,52.0,120,116,0.0,101.0
4301,54.0,120,116,0.0,101.0
4302,51.0,120,116,0.0,100.0
4303,59.0,120,116,0.0,100.0
4304,61.0,120,116,0.0,100.0
4305,55.0,0,476,0.0,100.0
4306,63.0,120,116,0.0,100.0
4307,64.0,0,116,0.0,100.0
4308,66.0,120,116,0.0,100.0
4309,54.0,120,236,0.0,100.0
4310,67.0,0,116,0.0,100.0
4311,55.0,120,116,0.0,100.0
4312,57.0,120,116,0.0,100.0
4313,52.0,120,476,0.0,100.0
4314,59.0,120,116,0.0,100.0
4315,60.0,0,116,0.0,100.0
4316,62.0,120,116,0.0,100.0
4317,50.0,120,236,0.0,100.0
4318,64.0,0,116,0.0,100.0
4319,52.0,120,116,0.0,100.0
4320,54.0,120,116,0.0,100.0
4321,55.0,120,116,0.0,100.0
4322,48.0,120,476,0.0,100.0
4323,57.0,120,116,0.0,100.0
4324,59.0,120,116,0.0,100.0
4325,47.0,0,236,0.0,100.0
4326,60.0,120,116,0.0,100.0
4327,45.0,0,236,0.0,100.0
4328,62.0,120,116,0.0,100.0
4329,64.0,120,116,0.0,100.0
4330,62.0,120,116,0.0,100.0
4331,48.0,0,236,0.0,100.0
4332,60.0,0,116,0.0,100.0
4333,59.0,120,116,0.0,100.0
4334,52.0,0,236,0.0,100.0
4335,43.0,120,236,0.0,100.0
4336,57.0,0,116,0.0,100.0
4337,45.0,120,236,0.0,100.0
4338,55.0,120,116,0.0,100.0
4339,54.0,0,116,0.0,100.0
4340,47.0,120,236,0.0,100.0
4341,52.0,120,116,0.0,100.0
4342,54.0,0,116,0.0,100.0
4343,51.0,120,116,0.0,100.0
4344,47.0,120,236,0.0,100.0
4345,52.0,0,116,0.0,100.0
4346,40.0,120,236,0.0,100.0
4347,59.0,120,116,0.0,100.0
4348,56.0,120,116,0.0,100.0
4349,59.0,120,116,0.0,100.0
4350,40.0,0,236,0.0,100.0
4351,64.0,0,116,0.0,100.0
4352,59.0,120,116,0.0,100.0
4353,40.0,120,236,0.0,100.0
4354,60.0,0,116,0.0,100.0
4355,57.0,120,116,0.0,100.0
4356,40.0,120,236,0.0,100.0
4357,60.0,0,116,0.0,100.0
4358,40.0,120,236,0.0,100.0
4359,64.0,120,116,0.0,100.0
4360,69.0,120,116,0.0,100.0
4361,40.0,0,236,0.0,100.0
4362,63.0,120,116,0.0,100.0
4363,51.0,0,116,0.0,101.0
4364,60.0,0,116,0.0,101.0
4365,69.0,120,116,0.0,101.0
4366,68.0,120,116,0.0,101.0
4367,59.0,0,116,0.0,101.0
4368,64.0,0,476,0.0,101.0
4369,57.0,120,116,0.0,101.0
4370,66.0,0,116,0.0,101.0
4371,40.0,120,476,0.0,101.0
4372,64.0,0,116,0.0,101.0
4373,55.0,120,116,0.0,101.0
4374,54.0,0,116,0.0,101.0
4375,63.0,120,116,0.0,101.0
4376,59.0,120,716,0.0,101.0
4377,64.0,0,716,0.0,101.0
4378,40.0,0,716,0.0,101.0
4379,56.0,0,716,0.0,101.0
4380,47.0,840,116,0.0,101.0
4381,49.0,120,116,0.0,101.0
4382,51.0,120,116,0.0,101.0
4383,52.0,120,116,0.0,101.0
4384,54.0,120,116,0.0,101.0
4385,51.0,120,116,0.0,99.0
4386,40.0,120,116,0.0,99.0
4387,42.0,120,116,0.0,99.0
4388,55.0,0,476,0.0,99.0
4389,43.0,120,116,0.0,99.0
4390,45.0,0,116,0.0,99.0
4391,47.0,120,116,0.0,99.0
4392,54.0,120,236,0.0,99.0
4393,51.0,0,116,0.0,100.0
4394,64.0,120,116,0.0,100.0
4395,66.0,120,116,0.0,100.0
4396,67.0,120,116,0.0,100.0
4397,48.0,120,476,0.0,100.0
4398,52.0,0,476,0.0,99.0
4399,69.0,120,116,0.0,100.0
4400,47.0,0,236,0.0,100.0
4401,71.0,120,116,0.0,100.0
4402,45.0,120,116,0.0,100.0
4403,54.0,120,116,0.0,100.0
4404,72.0,0,236,0.0,100.0
4405,55.0,0,116,0.0,100.0
4406,57.0,120,116,0.0,100.0
4407,71.0,120,236,0.0,100.0
4408,59.0,120,116,0.0,100.0
4409,67.0,0,236,0.0,100.0
4410,60.0,120,116,0.0,100.0
4411,62.0,0,116,0.0,100.0
4412,67.0,120,116,0.0,100.0
4413,66.0,120,116,0.0,100.0
4414,64.0,120,116,0.0,100.0
4415,62.0,120,116,0.0,100.0
4416,60.0,120,116,0.0,100.0
4417,69.0,120,716,0.0,100.0
4418,51.0,0,116,0.0,101.0
4419,62.0,120,116,0.0,101.0
4420,64.0,120,116,0.0,101.0
4421,59.0,120,476,0.0,100.0
4422,66.0,120,116,0.0,101.0
4423,67.0,0,116,0.0,101.0
4424,69.0,120,116,0.0,101.0
4425,57.0,120,236,0.0,101.0
4426,71.0,0,116,0.0,101.0
4427,59.0,120,116,0.0,101.0
4428,60.0,120,116,0.0,101.0
4429,55.0,120,476,0.0,101.0
4430,62.0,120,116,0.0,101.0
4431,64.0,120,116,0.0,101.0
4432,66.0,120,116,0.0,101.0
4433,54.0,0,236,0.0,101.0
4434,52.0,0,116,0.0,101.0
4435,55.0,120,116,0.0,101.0
4436,59.0,120,116,0.0,101.0
4437,67.0,120,476,0.0,101.0
4438,64.0,120,116,0.0,101.0
4439,57.0,0,116,0.0,101.0
4440,67.0,120,236,0.0,101.0
4441,60.0,120,116,0.0,101.0
4442,50.0,120,116,0.0,101.0
4443,54.0,120,116,0.0,101.0
4444,57.0,120,116,0.0,101.0
4445,62.0,120,116,0.0,101.0
4446,66.0,0,476,0.0,101.0
4447,55.0,120,116,0.0,101.0
4448,59.0,120,116,0.0,101.0
4449,66.0,0,236,0.0,101.0
4450,48.0,120,116,0.0,101.0
4451,52.0,120,116,0.0,101.0
4452,55.0,120,116,0.0,101.0
4453,64.0,0,476,0.0,101.0
4454,60.0,120,116,0.0,101.0
4455,54.0,0,116,0.0,101.0
4456,64.0,120,236,0.0,101.0
4457,57.0,120,116,0.0,101.0
4458,47.0,0,116,0.0,101.0
4459,51.0,120,116,0.0,101.0
4460,54.0,120,116,0.0,101.0
4461,59.0,120,116,0.0,101.0
4462,63.0,120,476,0.0,101.0
4463,52.0,120,116,0.0,101.0
4464,56.0,120,116,0.0,101.0
4465,62.0,0,236,0.0,101.0
4466,45.0,120,116,0.0,101.0
4467,49.0,120,116,0.0,101.0
4468,52.0,120,116,0.0,101.0
4469,61.0,0,476,0.0,101.0
4470,57.0,120,116,0.0,101.0
4471,50.0,0,116,0.0,101.0
4472,60.0,120,236,0.0,101.0
4473,54.0,120,116,0.0,101.0
4474,59.0,0,116,0.0,101.0
4475,55.0,120,116,0.0,101.0
4476,43.0,120,236,0.0,101.0
4477,57.0,120,116,0.0,101.0
4478,43.0,120,116,0.0,101.0
4479,59.0,0,116,0.0,101.0
4480,45.0,0,116,0.0,101.0
4481,60.0,120,116,0.0,101.0
4482,62.0,120,116,0.0,101.0
4483,47.0,0,116,0.0,101.0
4484,64.0,0,116,0.0,101.0
4485,48.0,120,116,0.0,101.0
4486,47.0,0,116,0.0,101.0
4487,62.0,120,116,0.0,101.0
4488,64.0,0,116,0.0,101.0
4489,48.0,120,116,0.0,101.0
4490,50.0,120,116,0.0,101.0
4491,66.0,0,116,0.0,101.0
4492,67.0,0,116,0.0,101.0
4493,52.0,120,116,0.0,101.0
4494,69.0,120,116,0.0,101.0
4495,54.0,0,116,0.0,101.0
4496,71.0,0,116,0.0,101.0
4497,55.0,0,116,0.0,101.0
4498,54.0,0,116,0.0,101.0
4499,57.0,120,116,0.0,101.0
4500,55.0,0,116,0.0,101.0
4501,59.0,120,116,0.0,101.0
4502,60.0,0,116,0.0,101.0
4503,57.0,120,116,0.0,101.0
4504,62.0,0,116,0.0,101.0
4505,59.0,120,116,0.0,101.0
4506,43.0,120,116,0.0,101.0
4507,55.0,120,116,0.0,101.0
4508,48.0,0,116,0.0,101.0
4509,64.0,0,236,0.0,101.0
4510,40.0,120,116,0.0,101.0
4511,45.0,0,116,0.0,101.0
4512,48.0,120,116,0.0,101.0
4513,57.0,120,356,0.0,101.0
4514,54.0,0,236,0.0,101.0
4515,55.0,120,116,0.0,101.0
4516,50.0,120,236,0.0,101.0
4517,55.0,0,116,0.0,101.0
4518,59.0,120,116,0.0,101.0
4519,62.0,120,116,0.0,101.0
4520,67.0,120,116,0.0,101.0
4521,43.0,120,476,0.0,101.0
4522,55.0,0,116,0.0,101.0
4523,66.0,120,116,0.0,101.0
4524,47.0,120,236,0.0,101.0
4525,48.0,120,116,0.0,101.0
4526,52.0,120,116,0.0,101.0
4527,60.0,0,356,0.0,101.0
4528,55.0,120,116,0.0,101.0
4529,60.0,120,116,0.0,101.0
4530,64.0,0,476,0.0,101.0
4531,48.0,120,116,0.0,101.0
4532,55.0,120,116,0.0,101.0
4533,57.0,0,116,0.0,101.0
4534,61.0,120,116,0.0,101.0
4535,64.0,120,116,0.0,101.0
4536,69.0,120,116,0.0,101.0
4537,49.0,120,476,0.0,101.0
4538,57.0,0,116,0.0,101.0
4539,67.0,120,116,0.0,101.0
4540,49.0,120,236,0.0,101.0
4541,50.0,0,116,0.0,101.0
4542,54.0,120,116,0.0,101.0
4543,57.0,120,116,0.0,101.0
4544,62.0,120,116,0.0,101.0
4545,66.0,120,476,0.0,101.0
4546,50.0,120,116,0.0,101.0
4547,57.0,120,116,0.0,101.0
4548,59.0,0,116,0.0,101.0
4549,63.0,120,116,0.0,101.0
4550,66.0,120,116,0.0,101.0
4551,71.0,120,116,0.0,101.0
4552,51.0,120,476,0.0,101.0
4553,59.0,120,116,0.0,101.0
4554,69.0,120,116,0.0,101.0
4555,52.0,120,116,0.0,101.0
4556,55.0,120,116,0.0,101.0
4557,59.0,120,116,0.0,101.0
4558,67.0,0,356,0.0,101.0
4559,64.0,120,116,0.0,101.0
4560,72.0,0,116,0.0,101.0
4561,66.0,120,116,0.0,101.0
4562,50.0,0,116,0.0,101.0
4563,71.0,0,116,0.0,101.0
4564,62.0,120,116,0.0,101.0
4565,48.0,120,116,0.0,101.0
4566,52.0,120,116,0.0,101.0
4567,57.0,120,116,0.0,101.0
4568,64.0,0,356,0.0,101.0
4569,60.0,0,116,0.0,101.0
4570,69.0,120,116,0.0,101.0
4571,62.0,120,116,0.0,101.0
4572,47.0,0,116,0.0,101.0
4573,67.0,0,116,0.0,101.0
4574,59.0,120,116,0.0,101.0
4575,45.0,120,116,0.0,101.0
4576,48.0,120,116,0.0,101.0
4577,53.0,120,116,0.0,101.0
4578,60.0,0,356,0.0,101.0
4579,57.0,120,116,0.0,101.0
4580,65.0,0,116,0.0,101.0
4581,43.0,0,116,0.0,101.0
4582,59.0,120,116,0.0,101.0
4583,64.0,120,116,0.0,101.0
4584,55.0,0,116,0.0,101.0
4585,63.0,120,116,0.0,101.0
4586,72.0,120,116,0.0,101.0
4587,69.0,120,116,0.0,101.0
4588,54.0,0,476,0.0,101.0
4589,66.0,120,116,0.0,101.0
4590,71.0,120,116,0.0,101.0
4591,51.0,0,236,0.0,101.0
4592,66.0,120,116,0.0,101.0
4593,67.0,0,116,0.0,101.0
4594,71.0,120,116,0.0,101.0
4595,67.0,120,116,0.0,101.0
4596,52.0,120,476,0.0,101.0
4597,64.0,120,116,0.0,101.0
4598,69.0,0,116,0.0,101.0
4599,64.0,120,116,0.0,101.0
4600,49.0,120,236,0.0,101.0
4601,66.0,0,116,0.0,101.0
4602,50.0,120,236,0.0,101.0
4603,69.0,120,116,0.0,101.0
4604,66.0,120,116,0.0,101.0
4605,62.0,120,116,0.0,101.0
4606,57.0,0,236,0.0,101.0
4607,67.0,120,116,0.0,101.0
4608,62.0,120,116,0.0,101.0
4609,47.0,0,236,0.0,101.0
4610,64.0,0,116,0.0,101.0
4611,67.0,120,116,0.0,101.0
4612,48.0,120,236,0.0,101.0
4613,64.0,120,116,0.0,101.0
4614,60.0,120,116,0.0,101.0
4615,55.0,0,236,0.0,101.0
4616,65.0,0,116,0.0,101.0
4617,69.0,120,116,0.0,101.0
4618,45.0,120,236,0.0,101.0
4619,63.0,120,116,0.0,101.0
4620,66.0,120,116,0.0,101.0
4621,47.0,0,236,0.0,101.0
4622,63.0,0,116,0.0,101.0
4623,54.0,120,236,0.0,101.0
4624,59.0,120,116,0.0,101.0
4625,64.0,120,116,0.0,101.0
4626,43.0,0,236,0.0,101.0
4627,67.0,120,116,0.0,101.0
4628,60.0,0,116,0.0,101.0
4629,72.0,120,116,0.0,101.0
4630,69.0,120,116,0.0,101.0
4631,45.0,120,476,0.0,101.0
4632,65.0,120,116,0.0,101.0
4633,72.0,0,116,0.0,101.0
4634,57.0,120,236,0.0,101.0
4635,64.0,120,116,0.0,101.0
4636,59.0,0,116,0.0,101.0
4637,47.0,120,116,0.0,101.0
4638,49.0,120,116,0.0,101.0
4639,51.0,120,116,0.0,101.0
4640,63.0,120,476,0.0,101.0
4641,52.0,120,116,0.0,101.0
4642,54.0,120,116,0.0,101.0
4643,51.0,120,116,0.0,100.0
4644,59.0,120,116,0.0,100.0
4645,61.0,120,116,0.0,100.0
4646,55.0,0,476,0.0,100.0
4647,63.0,120,116,0.0,100.0
4648,64.0,120,116,0.0,100.0
4649,66.0,120,116,0.0,100.0
4650,54.0,0,236,0.0,100.0
4651,67.0,0,116,0.0,100.0
4652,55.0,120,116,0.0,100.0
4653,57.0,120,116,0.0,100.0
4654,59.0,120,116,0.0,100.0
4655,52.0,120,476,0.0,100.0
4656,60.0,0,116,0.0,100.0
4657,50.0,120,236,0.0,100.0
4658,62.0,120,116,0.0,100.0
4659,64.0,120,116,0.0,100.0
4660,52.0,120,116,0.0,100.0
4661,54.0,120,116,0.0,100.0
4662,55.0,120,116,0.0,100.0
4663,48.0,0,476,0.0,100.0
4664,57.0,0,116,0.0,100.0
4665,59.0,120,116,0.0,100.0
4666,47.0,120,236,0.0,100.0
4667,60.0,0,116,0.0,100.0
4668,62.0,120,116,0.0,100.0
4669,45.0,120,236,0.0,100.0
4670,64.0,0,116,0.0,100.0
4671,62.0,120,116,0.0,100.0
4672,48.0,120,236,0.0,100.0
4673,60.0,0,116,0.0,100.0
4674,52.0,0,236,0.0,100.0
4675,59.0,120,116,0.0,100.0
4676,43.0,120,236,0.0,100.0
4677,57.0,120,116,0.0,100.0
4678,45.0,0,236,0.0,100.0
4679,55.0,120,116,0.0,100.0
4680,54.0,0,116,0.0,100.0
4681,52.0,120,116,0.0,100.0
4682,47.0,120,236,0.0,100.0
4683,54.0,0,116,0.0,100.0
4684,51.0,120,116,0.0,100.0
4685,47.0,120,236,0.0,100.0
4686,52.0,0,116,0.0,100.0
4687,40.0,120,236,0.0,100.0
4688,59.0,120,116,0.0,100.0
4689,56.0,0,116,0.0,100.0
4690,59.0,120,116,0.0,100.0
4691,40.0,120,236,0.0,100.0
4692,64.0,0,116,0.0,100.0
4693,59.0,120,116,0.0,100.0
4694,40.0,120,236,0.0,100.0
4695,60.0,0,116,0.0,100.0
4696,57.0,120,116,0.0,100.0
4697,40.0,120,236,0.0,100.0
4698,60.0,0,116,0.0,100.0
4699,64.0,120,116,0.0,100.0
4700,40.0,120,236,0.0,100.0
4701,69.0,0,116,0.0,100.0
4702,63.0,120,116,0.0,100.0
4703,40.0,120,236,0.0,100.0
4704,51.0,0,116,0.0,101.0
4705,60.0,0,116,0.0,101.0
4706,69.0,120,116,0.0,101.0
4707,68.0,0,116,0.0,101.0
4708,59.0,120,116,0.0,101.0
4709,64.0,0,476,0.0,101.0
4710,66.0,0,116,0.0,101.0
4711,40.0,120,476,0.0,101.0
4712,57.0,120,116,0.0,101.0
4713,64.0,0,116,0.0,101.0
4714,55.0,120,116,0.0,101.0
4715,54.0,0,116,0.0,101.0
4716,63.0,120,116,0.0,101.0
4717,64.0,0,716,0.0,101.0
4718,56.0,0,716,0.0,101.0
4719,59.0,120,716,0.0,101.0
4720,40.0,0,716,0.0,101.0
