,note,step,duration,channel,velocity
0,80.0,120,120,0.0,0.0
1,79.0,120,120,0.0,0.0
2,77.0,120,120,0.0,0.0
3,60.0,0,480,1.0,0.0
4,75.0,120,120,0.0,0.0
5,79.0,120,120,0.0,0.0
6,75.0,120,120,0.0,0.0
7,72.0,120,120,0.0,0.0
8,71.0,120,120,0.0,0.0
9,72.0,120,120,0.0,0.0
10,75.0,120,120,0.0,0.0
11,58.0,0,480,1.0,0.0
12,79.0,120,120,0.0,0.0
13,75.0,120,120,0.0,0.0
14,72.0,120,120,0.0,0.0
15,71.0,120,120,0.0,0.0
16,72.0,120,120,0.0,0.0
17,56.0,120,480,1.0,0.0
18,75.0,120,120,0.0,0.0
19,79.0,120,120,0.0,0.0
20,75.0,120,120,0.0,0.0
21,72.0,0,120,0.0,0.0
22,71.0,120,120,0.0,0.0
23,72.0,120,120,0.0,0.0
24,51.0,120,120,1.0,0.0
25,84.0,0,360,0.0,0.0
26,60.0,120,120,1.0,0.0
27,67.0,120,120,1.0,0.0
28,72.0,120,120,0.0,0.0
29,75.0,120,120,0.0,0.0
30,79.0,120,120,0.0,0.0
31,80.0,120,120,0.0,0.0
32,53.0,120,480,1.0,0.0
33,79.0,120,120,0.0,0.0
34,77.0,120,120,0.0,0.0
35,75.0,0,120,0.0,0.0
36,74.0,120,120,0.0,0.0
37,72.0,120,120,0.0,0.0
38,71.0,120,120,0.0,0.0
39,55.0,0,480,1.0,0.0
40,80.0,120,120,0.0,0.0
41,79.0,120,120,0.0,0.0
42,77.0,120,120,0.0,0.0
43,75.0,120,120,0.0,0.0
44,74.0,120,120,0.0,0.0
45,75.0,120,120,0.0,0.0
46,48.0,0,480,1.0,0.0
47,74.0,120,120,0.0,0.0
48,72.0,120,120,0.0,0.0
49,71.0,120,120,0.0,0.0
50,72.0,120,120,0.0,0.0
51,67.0,120,120,0.0,0.0
52,63.0,120,120,0.0,0.0
53,67.0,120,120,0.0,0.0
54,65.0,120,120,0.0,0.0
55,63.0,120,120,0.0,0.0
56,62.0,120,120,0.0,0.0
57,60.0,120,120,0.0,0.0
58,55.0,120,120,0.0,0.0
59,62.0,120,120,0.0,0.0
60,65.0,120,120,0.0,0.0
61,71.0,120,120,0.0,0.0
62,78.0,120,120,0.0,0.0
63,79.0,120,120,0.0,0.0
64,57.0,120,120,0.0,0.0
65,60.0,120,120,0.0,0.0
66,63.0,120,120,0.0,0.0
67,72.0,120,120,0.0,0.0
68,78.0,120,120,0.0,0.0
69,79.0,120,120,0.0,0.0
70,59.0,120,120,0.0,0.0
71,60.0,120,120,0.0,0.0
72,62.0,120,120,0.0,0.0
73,67.0,120,120,0.0,0.0
74,74.0,120,120,0.0,0.0
75,77.0,120,120,0.0,0.0
76,75.0,120,120,0.0,0.0
77,60.0,0,480,1.0,0.0
78,74.0,120,120,0.0,0.0
79,72.0,120,120,0.0,0.0
80,71.0,120,120,0.0,0.0
81,72.0,120,120,0.0,0.0
82,75.0,120,120,0.0,0.0
83,65.0,120,120,0.0,0.0
84,56.0,0,480,1.0,0.0
85,75.0,120,120,0.0,0.0
86,74.0,120,120,0.0,0.0
87,72.0,120,120,0.0,0.0
88,74.0,120,120,0.0,0.0
89,77.0,120,120,0.0,0.0
90,53.0,0,480,1.0,0.0
91,80.0,120,120,0.0,0.0
92,79.0,120,120,0.0,0.0
93,77.0,120,120,0.0,0.0
94,75.0,120,120,0.0,0.0
95,74.0,120,120,0.0,0.0
96,72.0,120,120,0.0,0.0
97,71.0,120,120,0.0,0.0
98,55.0,120,120,0.0,0.0
99,59.0,120,120,0.0,0.0
100,62.0,120,120,0.0,0.0
101,67.0,120,120,0.0,0.0
102,71.0,120,120,0.0,0.0
103,74.0,120,120,0.0,0.0
104,77.0,120,120,0.0,0.0
105,79.0,120,120,0.0,0.0
106,83.0,120,120,0.0,0.0
107,86.0,120,120,0.0,0.0
108,89.0,120,120,0.0,0.0
109,48.0,0,480,1.0,0.0
110,87.0,120,120,0.0,0.0
111,86.0,120,120,0.0,0.0
112,84.0,120,120,0.0,0.0
113,83.0,120,120,0.0,0.0
114,84.0,120,120,0.0,0.0
115,87.0,120,120,0.0,0.0
116,79.0,120,120,0.0,0.0
117,51.0,120,480,1.0,0.0
118,80.0,120,120,0.0,0.0
119,82.0,120,120,0.0,0.0
120,85.0,0,120,0.0,0.0
121,84.0,120,120,0.0,0.0
122,82.0,120,120,0.0,0.0
123,53.0,120,480,1.0,0.0
124,80.0,120,120,0.0,0.0
125,79.0,120,120,0.0,0.0
126,77.0,120,120,0.0,0.0
127,76.0,0,120,0.0,0.0
128,77.0,120,120,0.0,0.0
129,80.0,120,120,0.0,0.0
130,72.0,120,120,0.0,0.0
131,56.0,120,480,1.0,0.0
132,74.0,120,120,0.0,0.0
133,75.0,120,120,0.0,0.0
134,79.0,0,120,0.0,0.0
135,77.0,120,120,0.0,0.0
136,75.0,120,120,0.0,0.0
137,74.0,120,120,0.0,0.0
138,46.0,0,480,1.0,0.0
139,72.0,120,120,0.0,0.0
140,70.0,120,120,0.0,0.0
141,69.0,120,120,0.0,0.0
142,70.0,120,120,0.0,0.0
143,74.0,120,120,0.0,0.0
144,65.0,120,120,0.0,0.0
145,50.0,120,480,1.0,0.0
146,67.0,120,120,0.0,0.0
147,68.0,120,120,0.0,0.0
148,72.0,0,120,0.0,0.0
149,70.0,120,120,0.0,0.0
150,68.0,120,120,0.0,0.0
151,51.0,0,480,1.0,0.0
152,67.0,120,120,0.0,0.0
153,65.0,120,120,0.0,0.0
154,63.0,120,120,0.0,0.0
155,62.0,120,120,0.0,0.0
156,63.0,120,120,0.0,0.0
157,67.0,120,120,0.0,0.0
158,55.0,0,480,1.0,0.0
159,59.0,120,120,0.0,0.0
160,60.0,120,120,0.0,0.0
161,62.0,120,120,0.0,0.0
162,65.0,120,120,0.0,0.0
163,63.0,120,120,0.0,0.0
164,62.0,120,120,0.0,0.0
165,57.0,120,120,0.0,0.0
166,59.0,120,120,0.0,0.0
167,60.0,120,120,0.0,0.0
168,62.0,120,120,0.0,0.0
169,63.0,120,120,0.0,0.0
170,66.0,120,120,0.0,0.0
171,55.0,120,120,0.0,0.0
172,59.0,120,120,0.0,0.0
173,60.0,120,120,0.0,0.0
174,63.0,120,120,0.0,0.0
175,66.0,120,120,0.0,0.0
176,67.0,120,120,0.0,0.0
177,54.0,120,120,0.0,0.0
178,59.0,120,120,0.0,0.0
179,60.0,120,120,0.0,0.0
180,63.0,120,120,0.0,0.0
181,69.0,120,120,0.0,0.0
182,70.0,120,120,0.0,0.0
183,50.0,0,360,1.0,0.0
184,72.0,120,120,0.0,0.0
185,69.0,120,120,0.0,0.0
186,66.0,120,120,0.0,0.0
187,63.0,120,120,1.0,0.0
188,62.0,120,120,1.0,0.0
189,60.0,240,120,1.0,0.0
190,58.0,0,480,1.0,0.0
191,74.0,120,120,0.0,0.0
192,72.0,120,120,0.0,0.0
193,70.0,120,120,0.0,0.0
194,69.0,120,120,0.0,0.0
195,67.0,240,120,0.0,0.0
196,62.0,0,480,1.0,0.0
197,72.0,120,120,0.0,0.0
198,70.0,120,120,0.0,0.0
199,69.0,120,120,0.0,0.0
200,67.0,120,120,0.0,0.0
201,66.0,120,120,0.0,0.0
202,67.0,120,120,0.0,0.0
203,55.0,120,480,1.0,0.0
204,63.0,120,120,0.0,0.0
205,59.0,120,120,0.0,0.0
206,55.0,0,120,0.0,0.0
207,50.0,120,120,0.0,0.0
208,47.0,360,120,0.0,0.0
209,43.0,120,360,1.0,0.0
210,80.0,120,120,0.0,0.0
211,79.0,120,120,0.0,0.0
212,77.0,120,120,0.0,0.0
213,75.0,120,120,0.0,0.0
214,60.0,0,480,1.0,0.0
215,79.0,120,120,0.0,0.0
216,75.0,120,120,0.0,0.0
217,72.0,120,120,0.0,0.0
218,71.0,120,120,0.0,0.0
219,72.0,120,120,0.0,0.0
220,58.0,0,480,1.0,0.0
221,75.0,120,120,0.0,0.0
222,79.0,120,120,0.0,0.0
223,75.0,120,120,0.0,0.0
224,72.0,120,120,0.0,0.0
225,71.0,120,120,0.0,0.0
226,72.0,120,120,0.0,0.0
227,75.0,120,120,0.0,0.0
228,56.0,0,480,1.0,0.0
229,79.0,120,120,0.0,0.0
230,75.0,120,120,0.0,0.0
231,72.0,120,120,0.0,0.0
232,71.0,120,120,0.0,0.0
233,72.0,120,120,0.0,0.0
234,84.0,120,360,0.0,0.0
235,51.0,120,120,1.0,0.0
236,60.0,120,120,1.0,0.0
237,67.0,0,120,1.0,0.0
238,72.0,120,120,0.0,0.0
239,75.0,120,120,0.0,0.0
240,79.0,120,120,0.0,0.0
241,53.0,120,480,1.0,0.0
242,80.0,120,120,0.0,0.0
243,79.0,120,120,0.0,0.0
244,77.0,120,120,0.0,0.0
245,75.0,0,120,0.0,0.0
246,74.0,120,120,0.0,0.0
247,72.0,120,120,0.0,0.0
248,71.0,120,120,0.0,0.0
249,55.0,0,480,1.0,0.0
250,80.0,120,120,0.0,0.0
251,79.0,120,120,0.0,0.0
252,77.0,120,120,0.0,0.0
253,75.0,120,120,0.0,0.0
254,74.0,120,120,0.0,0.0
255,75.0,120,120,0.0,0.0
256,48.0,0,480,1.0,0.0
257,74.0,120,120,0.0,0.0
258,72.0,120,120,0.0,0.0
259,71.0,120,120,0.0,0.0
260,72.0,120,120,0.0,0.0
261,67.0,120,120,0.0,0.0
262,63.0,120,120,0.0,0.0
263,67.0,120,120,0.0,0.0
264,65.0,120,120,0.0,0.0
265,63.0,120,120,0.0,0.0
266,62.0,120,120,0.0,0.0
267,60.0,120,120,0.0,0.0
268,55.0,120,120,0.0,0.0
269,62.0,120,120,0.0,0.0
270,65.0,120,120,0.0,0.0
271,71.0,120,120,0.0,0.0
272,78.0,120,120,0.0,0.0
273,79.0,120,120,0.0,0.0
274,57.0,120,120,0.0,0.0
275,60.0,120,120,0.0,0.0
276,63.0,120,120,0.0,0.0
277,72.0,120,120,0.0,0.0
278,78.0,120,120,0.0,0.0
279,79.0,120,120,0.0,0.0
280,59.0,120,120,0.0,0.0
281,60.0,120,120,0.0,0.0
282,62.0,120,120,0.0,0.0
283,67.0,120,120,0.0,0.0
284,74.0,120,120,0.0,0.0
285,77.0,120,120,0.0,0.0
286,60.0,120,480,1.0,0.0
287,75.0,120,120,0.0,0.0
288,74.0,120,120,0.0,0.0
289,72.0,120,120,0.0,0.0
290,71.0,0,120,0.0,0.0
291,72.0,120,120,0.0,0.0
292,75.0,120,120,0.0,0.0
293,56.0,0,480,1.0,0.0
294,65.0,120,120,0.0,0.0
295,75.0,120,120,0.0,0.0
296,74.0,120,120,0.0,0.0
297,72.0,120,120,0.0,0.0
298,74.0,120,120,0.0,0.0
299,77.0,120,120,0.0,0.0
300,53.0,120,480,1.0,0.0
301,80.0,120,120,0.0,0.0
302,79.0,120,120,0.0,0.0
303,77.0,120,120,0.0,0.0
304,75.0,0,120,0.0,0.0
305,74.0,120,120,0.0,0.0
306,72.0,120,120,0.0,0.0
307,71.0,120,120,0.0,0.0
308,55.0,120,120,0.0,0.0
309,59.0,120,120,0.0,0.0
310,62.0,120,120,0.0,0.0
311,67.0,120,120,0.0,0.0
312,71.0,120,120,0.0,0.0
313,74.0,120,120,0.0,0.0
314,77.0,120,120,0.0,0.0
315,79.0,120,120,0.0,0.0
316,83.0,120,120,0.0,0.0
317,86.0,120,120,0.0,0.0
318,89.0,120,120,0.0,0.0
319,48.0,0,480,1.0,0.0
320,87.0,120,120,0.0,0.0
321,86.0,120,120,0.0,0.0
322,84.0,120,120,0.0,0.0
323,83.0,120,120,0.0,0.0
324,84.0,120,120,0.0,0.0
325,87.0,120,120,0.0,0.0
326,79.0,120,120,0.0,0.0
327,51.0,0,480,1.0,0.0
328,80.0,120,120,0.0,0.0
329,82.0,120,120,0.0,0.0
330,85.0,120,120,0.0,0.0
331,84.0,120,120,0.0,0.0
332,82.0,120,120,0.0,0.0
333,53.0,120,480,1.0,0.0
334,80.0,120,120,0.0,0.0
335,79.0,120,120,0.0,0.0
336,77.0,120,120,0.0,0.0
337,76.0,0,120,0.0,0.0
338,77.0,120,120,0.0,0.0
339,80.0,120,120,0.0,0.0
340,72.0,120,120,0.0,0.0
341,56.0,120,480,1.0,0.0
342,74.0,120,120,0.0,0.0
343,75.0,120,120,0.0,0.0
344,79.0,0,120,0.0,0.0
345,77.0,120,120,0.0,0.0
346,75.0,120,120,0.0,0.0
347,74.0,120,120,0.0,0.0
348,46.0,0,480,1.0,0.0
349,72.0,120,120,0.0,0.0
350,70.0,120,120,0.0,0.0
351,69.0,120,120,0.0,0.0
352,70.0,120,120,0.0,0.0
353,74.0,120,120,0.0,0.0
354,50.0,0,480,1.0,0.0
355,65.0,120,120,0.0,0.0
356,67.0,120,120,0.0,0.0
357,68.0,120,120,0.0,0.0
358,72.0,120,120,0.0,0.0
359,70.0,120,120,0.0,0.0
360,68.0,120,120,0.0,0.0
361,67.0,120,120,0.0,0.0
362,51.0,0,480,1.0,0.0
363,65.0,120,120,0.0,0.0
364,63.0,120,120,0.0,0.0
365,62.0,120,120,0.0,0.0
366,63.0,120,120,0.0,0.0
367,67.0,120,120,0.0,0.0
368,59.0,120,120,0.0,0.0
369,55.0,120,480,1.0,0.0
370,60.0,120,120,0.0,0.0
371,62.0,120,120,0.0,0.0
372,65.0,0,120,0.0,0.0
373,63.0,120,120,0.0,0.0
374,62.0,120,120,0.0,0.0
375,57.0,120,120,0.0,0.0
376,59.0,120,120,0.0,0.0
377,60.0,120,120,0.0,0.0
378,62.0,120,120,0.0,0.0
379,63.0,120,120,0.0,0.0
380,66.0,120,120,0.0,0.0
381,55.0,120,120,0.0,0.0
382,59.0,120,120,0.0,0.0
383,60.0,120,120,0.0,0.0
384,63.0,120,120,0.0,0.0
385,66.0,120,120,0.0,0.0
386,67.0,120,120,0.0,0.0
387,54.0,120,120,0.0,0.0
388,59.0,120,120,0.0,0.0
389,60.0,120,120,0.0,0.0
390,63.0,120,120,0.0,0.0
391,69.0,120,120,0.0,0.0
392,70.0,120,120,0.0,0.0
393,72.0,120,120,0.0,0.0
394,50.0,0,360,1.0,0.0
395,69.0,120,120,0.0,0.0
396,66.0,120,120,0.0,0.0
397,63.0,120,120,1.0,0.0
398,62.0,120,120,1.0,0.0
399,60.0,240,120,1.0,0.0
400,58.0,0,480,1.0,0.0
401,74.0,120,120,0.0,0.0
402,72.0,120,120,0.0,0.0
403,70.0,120,120,0.0,0.0
404,69.0,120,120,0.0,0.0
405,67.0,240,120,0.0,0.0
406,62.0,0,480,1.0,0.0
407,72.0,120,120,0.0,0.0
408,70.0,120,120,0.0,0.0
409,69.0,120,120,0.0,0.0
410,67.0,120,120,0.0,0.0
411,66.0,120,120,0.0,0.0
412,55.0,120,480,1.0,0.0
413,67.0,120,120,0.0,0.0
414,63.0,120,120,0.0,0.0
415,59.0,120,120,0.0,0.0
416,55.0,0,120,0.0,0.0
417,50.0,120,120,0.0,0.0
418,47.0,360,120,0.0,0.0
419,43.0,120,360,1.0,0.0
420,87.0,120,120,0.0,0.0
421,86.0,120,120,0.0,0.0
422,84.0,120,120,0.0,0.0
423,83.0,120,120,0.0,0.0
424,43.0,0,480,1.0,0.0
425,86.0,120,120,0.0,0.0
426,83.0,120,120,0.0,0.0
427,79.0,120,120,0.0,0.0
428,78.0,120,120,0.0,0.0
429,79.0,120,120,0.0,0.0
430,47.0,0,480,1.0,0.0
431,80.0,120,120,0.0,0.0
432,86.0,120,120,0.0,0.0
433,80.0,120,120,0.0,0.0
434,77.0,120,120,0.0,0.0
435,75.0,120,120,0.0,0.0
436,74.0,120,120,0.0,0.0
437,76.0,120,120,0.0,0.0
438,46.0,0,480,1.0,0.0
439,79.0,120,120,0.0,0.0
440,76.0,120,120,0.0,0.0
441,72.0,120,120,0.0,0.0
442,71.0,120,120,0.0,0.0
443,72.0,120,120,0.0,0.0
444,40.0,0,480,1.0,0.0
445,73.0,120,120,0.0,0.0
446,79.0,120,120,0.0,0.0
447,73.0,120,120,0.0,0.0
448,70.0,120,120,0.0,0.0
449,68.0,120,120,0.0,0.0
450,67.0,120,120,0.0,0.0
451,68.0,120,120,0.0,0.0
452,41.0,0,480,1.0,0.0
453,72.0,120,120,0.0,0.0
454,70.0,120,120,0.0,0.0
455,68.0,120,120,0.0,0.0
456,44.0,0,240,1.0,0.0
457,67.0,120,120,0.0,0.0
458,65.0,120,120,0.0,0.0
459,43.0,0,480,1.0,0.0
460,64.0,120,120,0.0,0.0
461,85.0,120,120,0.0,0.0
462,84.0,120,120,0.0,0.0
463,82.0,120,120,0.0,0.0
464,48.0,120,240,1.0,0.0
465,80.0,120,120,0.0,0.0
466,79.0,0,120,0.0,0.0
467,41.0,120,480,1.0,0.0
468,80.0,120,120,0.0,0.0
469,79.0,120,120,0.0,0.0
470,77.0,120,120,0.0,0.0
471,76.0,0,120,0.0,0.0
472,77.0,120,120,0.0,0.0
473,72.0,120,120,0.0,0.0
474,68.0,120,120,0.0,0.0
475,72.0,120,120,0.0,0.0
476,44.0,120,240,1.0,0.0
477,65.0,120,120,0.0,0.0
478,68.0,0,120,0.0,0.0
479,72.0,120,120,0.0,0.0
480,41.0,120,240,1.0,0.0
481,75.0,0,120,0.0,0.0
482,74.0,120,120,0.0,0.0
483,46.0,120,240,1.0,0.0
484,67.0,0,120,0.0,0.0
485,68.0,120,120,0.0,0.0
486,65.0,240,120,0.0,0.0
487,58.0,120,240,1.0,0.0
488,75.0,0,120,0.0,0.0
489,77.0,120,120,0.0,0.0
490,50.0,120,240,1.0,0.0
491,67.0,0,120,0.0,0.0
492,68.0,120,120,0.0,0.0
493,65.0,240,120,0.0,0.0
494,58.0,120,240,1.0,0.0
495,77.0,0,120,0.0,0.0
496,51.0,0,240,1.0,0.0
497,79.0,120,120,0.0,0.0
498,72.0,120,120,0.0,0.0
499,73.0,120,120,0.0,0.0
500,70.0,240,120,0.0,0.0
501,63.0,120,240,1.0,0.0
502,80.0,0,120,0.0,0.0
503,55.0,120,240,1.0,0.0
504,82.0,120,120,0.0,0.0
505,72.0,0,120,0.0,0.0
506,73.0,120,120,0.0,0.0
507,70.0,240,120,0.0,0.0
508,63.0,120,240,1.0,0.0
509,73.0,0,120,0.0,0.0
510,56.0,0,480,1.0,0.0
511,72.0,120,120,0.0,0.0
512,75.0,120,120,0.0,0.0
513,77.0,120,120,0.0,0.0
514,79.0,120,120,0.0,0.0
515,53.0,120,240,1.0,0.0
516,80.0,120,120,0.0,0.0
517,74.0,0,120,0.0,0.0
518,80.0,120,120,0.0,0.0
519,51.0,120,480,1.0,0.0
520,79.0,120,120,0.0,0.0
521,77.0,120,120,0.0,0.0
522,75.0,0,120,0.0,0.0
523,82.0,120,120,0.0,0.0
524,48.0,0,240,1.0,0.0
525,81.0,240,120,0.0,0.0
526,82.0,120,480,0.0,0.0
527,46.0,120,120,1.0,0.0
528,50.0,120,120,1.0,0.0
529,53.0,0,120,1.0,0.0
530,56.0,120,120,1.0,0.0
531,58.0,120,120,1.0,0.0
532,62.0,120,120,0.0,0.0
533,65.0,120,120,0.0,0.0
534,68.0,120,120,0.0,0.0
535,70.0,120,120,0.0,0.0
536,74.0,120,120,0.0,0.0
537,56.0,240,120,1.0,0.0
538,55.0,0,240,1.0,0.0
539,75.0,120,120,0.0,0.0
540,70.0,120,120,0.0,0.0
541,69.0,120,120,0.0,0.0
542,70.0,120,120,0.0,0.0
543,75.0,120,120,0.0,0.0
544,77.0,120,120,0.0,0.0
545,50.0,0,240,1.0,0.0
546,70.0,120,120,0.0,0.0
547,79.0,120,120,0.0,0.0
548,70.0,120,120,0.0,0.0
549,80.0,120,120,0.0,0.0
550,70.0,240,120,0.0,0.0
551,51.0,0,240,1.0,0.0
552,79.0,120,120,0.0,0.0
553,75.0,120,120,0.0,0.0
554,74.0,120,120,0.0,0.0
555,75.0,120,120,0.0,0.0
556,79.0,120,120,0.0,0.0
557,80.0,120,120,0.0,0.0
558,53.0,120,240,1.0,0.0
559,75.0,0,120,0.0,0.0
560,82.0,120,120,0.0,0.0
561,75.0,120,120,0.0,0.0
562,84.0,120,120,0.0,0.0
563,75.0,120,120,0.0,0.0
564,55.0,0,240,1.0,0.0
565,82.0,120,120,0.0,0.0
566,75.0,120,120,0.0,0.0
567,77.0,120,120,0.0,0.0
568,73.0,120,120,0.0,0.0
569,72.0,120,120,0.0,0.0
570,51.0,0,240,1.0,0.0
571,70.0,120,120,0.0,0.0
572,44.0,0,240,1.0,0.0
573,72.0,120,120,0.0,0.0
574,67.0,120,120,0.0,0.0
575,68.0,120,120,0.0,0.0
576,63.0,240,120,0.0,0.0
577,56.0,120,240,1.0,0.0
578,84.0,0,120,0.0,0.0
579,47.0,120,240,1.0,0.0
580,85.0,120,120,0.0,0.0
581,79.0,0,120,0.0,0.0
582,80.0,120,120,0.0,0.0
583,77.0,120,120,0.0,0.0
584,55.0,0,240,1.0,0.0
585,75.0,120,120,0.0,0.0
586,74.0,120,120,0.0,0.0
587,48.0,0,240,1.0,0.0
588,75.0,120,120,0.0,0.0
589,71.0,120,120,0.0,0.0
590,72.0,120,120,0.0,0.0
591,67.0,240,120,0.0,0.0
592,60.0,120,240,1.0,0.0
593,82.0,0,120,0.0,0.0
594,81.0,120,120,0.0,0.0
595,53.0,0,480,1.0,0.0
596,82.0,120,120,0.0,0.0
597,84.0,120,120,0.0,0.0
598,81.0,120,120,0.0,0.0
599,78.0,120,120,0.0,0.0
600,77.0,120,120,0.0,0.0
601,57.0,0,480,1.0,0.0
602,75.0,120,120,0.0,0.0
603,77.0,120,120,0.0,0.0
604,78.0,120,120,0.0,0.0
605,75.0,120,120,0.0,0.0
606,74.0,120,120,0.0,0.0
607,72.0,120,120,0.0,0.0
608,58.0,120,480,1.0,0.0
609,74.0,120,120,0.0,0.0
610,75.0,120,120,0.0,0.0
611,77.0,120,120,0.0,0.0
612,74.0,0,120,0.0,0.0
613,71.0,120,120,0.0,0.0
614,70.0,120,120,0.0,0.0
615,68.0,120,120,0.0,0.0
616,50.0,120,480,1.0,0.0
617,70.0,120,120,0.0,0.0
618,71.0,120,120,0.0,0.0
619,68.0,0,120,0.0,0.0
620,67.0,120,120,0.0,0.0
621,65.0,120,120,0.0,0.0
622,51.0,0,480,1.0,0.0
623,67.0,120,120,0.0,0.0
624,70.0,120,120,0.0,0.0
625,72.0,120,120,0.0,0.0
626,74.0,120,120,0.0,0.0
627,55.0,0,240,1.0,0.0
628,75.0,120,120,0.0,0.0
629,77.0,120,120,0.0,0.0
630,58.0,120,480,1.0,0.0
631,79.0,120,120,0.0,0.0
632,82.0,120,120,0.0,0.0
633,79.0,120,120,0.0,0.0
634,75.0,0,120,0.0,0.0
635,77.0,120,120,0.0,0.0
636,46.0,0,240,1.0,0.0
637,74.0,120,120,0.0,0.0
638,39.0,120,480,1.0,0.0
639,75.0,120,120,0.0,0.0
640,70.0,120,120,0.0,0.0
641,67.0,120,120,0.0,0.0
642,63.0,0,120,0.0,0.0
643,58.0,120,120,0.0,0.0
644,55.0,480,120,0.0,0.0
645,51.0,0,480,1.0,0.0
646,87.0,120,120,0.0,0.0
647,86.0,120,120,0.0,0.0
648,84.0,120,120,0.0,0.0
649,50.0,0,240,1.0,0.0
650,83.0,120,120,0.0,0.0
651,80.0,120,120,0.0,0.0
652,51.0,0,240,1.0,0.0
653,79.0,120,120,0.0,0.0
654,77.0,120,120,0.0,0.0
655,53.0,120,240,1.0,0.0
656,79.0,120,120,0.0,0.0
657,83.0,0,120,0.0,0.0
658,84.0,120,120,0.0,0.0
659,51.0,120,240,1.0,0.0
660,72.0,0,120,0.0,0.0
661,52.0,0,240,1.0,0.0
662,82.0,120,120,0.0,0.0
663,80.0,120,120,0.0,0.0
664,53.0,0,240,1.0,0.0
665,79.0,120,120,0.0,0.0
666,77.0,120,120,0.0,0.0
667,55.0,0,240,1.0,0.0
668,76.0,120,120,0.0,0.0
669,73.0,120,120,0.0,0.0
670,56.0,0,240,1.0,0.0
671,72.0,120,120,0.0,0.0
672,70.0,120,120,0.0,0.0
673,58.0,0,240,1.0,0.0
674,72.0,120,120,0.0,0.0
675,76.0,120,120,0.0,0.0
676,56.0,120,240,1.0,0.0
677,77.0,120,120,0.0,0.0
678,65.0,0,120,0.0,0.0
679,75.0,120,120,0.0,0.0
680,53.0,120,240,1.0,0.0
681,74.0,0,120,0.0,0.0
682,72.0,120,120,0.0,0.0
683,55.0,120,240,1.0,0.0
684,71.0,0,120,0.0,0.0
685,57.0,120,240,1.0,0.0
686,74.0,120,120,0.0,0.0
687,72.0,0,120,0.0,0.0
688,75.0,120,120,0.0,0.0
689,59.0,0,240,1.0,0.0
690,74.0,120,120,0.0,0.0
691,60.0,120,240,1.0,0.0
692,77.0,120,120,0.0,0.0
693,75.0,0,120,0.0,0.0
694,56.0,120,240,1.0,0.0
695,79.0,120,120,0.0,0.0
696,77.0,0,120,0.0,0.0
697,80.0,120,120,0.0,0.0
698,51.0,120,240,1.0,0.0
699,79.0,0,120,0.0,0.0
700,53.0,120,240,1.0,0.0
701,77.0,120,120,0.0,0.0
702,75.0,0,120,0.0,0.0
703,55.0,120,960,1.0,0.0
704,74.0,120,120,0.0,0.0
705,72.0,120,120,0.0,0.0
706,71.0,120,120,0.0,0.0
707,69.0,120,120,0.0,0.0
708,67.0,120,120,0.0,0.0
709,66.0,60,120,0.0,0.0
710,67.0,60,60,0.0,0.0
711,66.0,120,60,0.0,0.0
712,67.0,120,240,0.0,0.0
713,59.0,0,240,1.0,0.0
714,80.0,120,120,0.0,0.0
715,55.0,0,240,1.0,0.0
716,79.0,120,120,0.0,0.0
717,77.0,120,120,0.0,0.0
718,75.0,120,120,0.0,0.0
719,60.0,120,480,1.0,0.0
720,79.0,120,120,0.0,0.0
721,75.0,120,120,0.0,0.0
722,72.0,0,120,0.0,0.0
723,71.0,120,120,0.0,0.0
724,72.0,120,120,0.0,0.0
725,58.0,0,480,1.0,0.0
726,75.0,120,120,0.0,0.0
727,79.0,120,120,0.0,0.0
728,75.0,120,120,0.0,0.0
729,72.0,120,120,0.0,0.0
730,71.0,120,120,0.0,0.0
731,72.0,120,120,0.0,0.0
732,56.0,0,480,1.0,0.0
733,75.0,120,120,0.0,0.0
734,79.0,120,120,0.0,0.0
735,75.0,120,120,0.0,0.0
736,72.0,120,120,0.0,0.0
737,71.0,120,120,0.0,0.0
738,72.0,120,120,0.0,0.0
739,84.0,0,360,0.0,0.0
740,51.0,120,120,1.0,0.0
741,60.0,120,120,1.0,0.0
742,67.0,120,120,1.0,0.0
743,72.0,120,120,0.0,0.0
744,75.0,120,120,0.0,0.0
745,79.0,120,120,0.0,0.0
746,80.0,120,120,0.0,0.0
747,53.0,0,480,1.0,0.0
748,79.0,120,120,0.0,0.0
749,77.0,120,120,0.0,0.0
750,75.0,120,120,0.0,0.0
751,74.0,120,120,0.0,0.0
752,72.0,120,120,0.0,0.0
753,55.0,120,480,1.0,0.0
754,71.0,120,120,0.0,0.0
755,80.0,120,120,0.0,0.0
756,79.0,120,120,0.0,0.0
757,77.0,0,120,0.0,0.0
758,75.0,120,120,0.0,0.0
759,74.0,120,120,0.0,0.0
760,75.0,120,120,0.0,0.0
761,48.0,0,480,1.0,0.0
762,74.0,120,120,0.0,0.0
763,72.0,120,120,0.0,0.0
764,71.0,120,120,0.0,0.0
765,72.0,120,120,0.0,0.0
766,67.0,120,120,0.0,0.0
767,70.0,120,120,0.0,0.0
768,73.0,120,120,0.0,0.0
769,76.0,120,120,0.0,0.0
770,79.0,120,120,0.0,0.0
771,80.0,120,120,0.0,0.0
772,82.0,120,120,0.0,0.0
773,80.0,120,120,0.0,0.0
774,41.0,0,480,1.0,0.0
775,79.0,120,120,0.0,0.0
776,77.0,120,120,0.0,0.0
777,76.0,120,120,0.0,0.0
778,77.0,120,120,0.0,0.0
779,80.0,120,120,0.0,0.0
780,72.0,120,120,0.0,0.0
781,44.0,120,480,1.0,0.0
782,74.0,120,120,0.0,0.0
783,75.0,120,120,0.0,0.0
784,78.0,0,120,0.0,0.0
785,77.0,120,120,0.0,0.0
786,75.0,120,120,0.0,0.0
787,46.0,0,480,1.0,0.0
788,74.0,120,120,0.0,0.0
789,72.0,120,120,0.0,0.0
790,70.0,120,120,0.0,0.0
791,69.0,120,120,0.0,0.0
792,70.0,120,120,0.0,0.0
793,74.0,120,120,0.0,0.0
794,50.0,120,480,1.0,0.0
795,65.0,120,120,0.0,0.0
796,67.0,120,120,0.0,0.0
797,68.0,120,120,0.0,0.0
798,72.0,0,120,0.0,0.0
799,70.0,120,120,0.0,0.0
800,68.0,120,120,0.0,0.0
801,67.0,120,120,0.0,0.0
802,39.0,0,480,1.0,0.0
803,65.0,120,120,0.0,0.0
804,63.0,120,120,0.0,0.0
805,62.0,120,120,0.0,0.0
806,63.0,120,120,0.0,0.0
807,67.0,120,120,0.0,0.0
808,58.0,120,120,0.0,0.0
809,43.0,120,480,1.0,0.0
810,60.0,120,120,0.0,0.0
811,61.0,120,120,0.0,0.0
812,65.0,0,120,0.0,0.0
813,63.0,120,120,0.0,0.0
814,61.0,120,120,0.0,0.0
815,60.0,120,120,0.0,0.0
816,44.0,0,480,1.0,0.0
817,58.0,120,120,0.0,0.0
818,56.0,120,120,0.0,0.0
819,55.0,120,120,0.0,0.0
820,56.0,120,120,0.0,0.0
821,60.0,120,120,0.0,0.0
822,51.0,120,120,0.0,0.0
823,48.0,120,480,1.0,0.0
824,53.0,120,120,0.0,0.0
825,55.0,120,120,0.0,0.0
826,58.0,0,120,0.0,0.0
827,56.0,120,120,0.0,0.0
828,55.0,120,120,0.0,0.0
829,50.0,120,120,0.0,0.0
830,52.0,120,120,0.0,0.0
831,53.0,120,120,0.0,0.0
832,55.0,120,120,0.0,0.0
833,56.0,120,120,0.0,0.0
834,59.0,120,120,0.0,0.0
835,48.0,120,120,0.0,0.0
836,52.0,120,120,0.0,0.0
837,53.0,120,120,0.0,0.0
838,56.0,120,120,0.0,0.0
839,59.0,120,120,0.0,0.0
840,60.0,120,120,0.0,0.0
841,47.0,120,120,0.0,0.0
842,52.0,120,120,0.0,0.0
843,53.0,120,120,0.0,0.0
844,56.0,120,120,0.0,0.0
845,62.0,120,120,0.0,0.0
846,63.0,120,120,0.0,0.0
847,65.0,120,120,0.0,0.0
848,43.0,0,360,1.0,0.0
849,62.0,120,120,0.0,0.0
850,59.0,120,120,0.0,0.0
851,56.0,120,120,1.0,0.0
852,55.0,120,120,1.0,0.0
853,53.0,240,120,1.0,0.0
854,51.0,0,480,1.0,0.0
855,67.0,120,120,0.0,0.0
856,69.0,120,120,0.0,0.0
857,71.0,120,120,0.0,0.0
858,72.0,120,120,0.0,0.0
859,48.0,0,240,1.0,0.0
860,74.0,120,120,0.0,0.0
861,55.0,0,480,1.0,0.0
862,75.0,120,120,0.0,0.0
863,79.0,120,120,0.0,0.0
864,75.0,120,120,0.0,0.0
865,72.0,120,120,0.0,0.0
866,43.0,0,240,1.0,0.0
867,74.0,120,120,0.0,0.0
868,71.0,120,120,0.0,0.0
869,36.0,360,720,1.0,0.0
870,72.0,120,120,0.0,0.0
871,67.0,120,120,0.0,0.0
872,63.0,120,120,0.0,0.0
873,60.0,120,120,0.0,0.0
874,55.0,120,120,0.0,0.0
875,51.0,0,120,0.0,0.0
876,48.0,120,360,0.0,0.0
877,87.0,120,120,0.0,0.0
878,86.0,120,120,0.0,0.0
879,84.0,120,120,0.0,0.0
880,83.0,120,120,0.0,0.0
881,43.0,120,480,1.0,0.0
882,86.0,120,120,0.0,0.0
883,83.0,120,120,0.0,0.0
884,79.0,0,120,0.0,0.0
885,78.0,120,120,0.0,0.0
886,79.0,120,120,0.0,0.0
887,47.0,0,480,1.0,0.0
888,80.0,120,120,0.0,0.0
889,86.0,120,120,0.0,0.0
890,80.0,120,120,0.0,0.0
891,77.0,120,120,0.0,0.0
892,75.0,120,120,0.0,0.0
893,74.0,120,120,0.0,0.0
894,76.0,120,120,0.0,0.0
895,46.0,120,480,1.0,0.0
896,79.0,120,120,0.0,0.0
897,76.0,120,120,0.0,0.0
898,72.0,0,120,0.0,0.0
899,71.0,120,120,0.0,0.0
900,72.0,120,120,0.0,0.0
901,40.0,120,480,1.0,0.0
902,73.0,120,120,0.0,0.0
903,79.0,120,120,0.0,0.0
904,73.0,120,120,0.0,0.0
905,70.0,0,120,0.0,0.0
906,68.0,120,120,0.0,0.0
907,67.0,120,120,0.0,0.0
908,41.0,120,480,1.0,0.0
909,68.0,120,120,0.0,0.0
910,72.0,120,120,0.0,0.0
911,70.0,120,120,0.0,0.0
912,68.0,0,120,0.0,0.0
913,67.0,120,120,0.0,0.0
914,44.0,120,240,1.0,0.0
915,65.0,0,120,0.0,0.0
916,43.0,0,480,1.0,0.0
917,64.0,120,120,0.0,0.0
918,85.0,120,120,0.0,0.0
919,84.0,120,120,0.0,0.0
920,82.0,120,120,0.0,0.0
921,48.0,0,240,1.0,0.0
922,80.0,120,120,0.0,0.0
923,79.0,120,120,0.0,0.0
924,80.0,120,120,0.0,0.0
925,41.0,0,480,1.0,0.0
926,79.0,120,120,0.0,0.0
927,77.0,120,120,0.0,0.0
928,76.0,120,120,0.0,0.0
929,77.0,120,120,0.0,0.0
930,72.0,120,120,0.0,0.0
931,68.0,120,120,0.0,0.0
932,72.0,120,120,0.0,0.0
933,65.0,120,120,0.0,0.0
934,44.0,0,240,1.0,0.0
935,68.0,120,120,0.0,0.0
936,41.0,0,240,1.0,0.0
937,72.0,120,120,0.0,0.0
938,75.0,120,120,0.0,0.0
939,46.0,0,240,1.0,0.0
940,74.0,120,120,0.0,0.0
941,67.0,120,120,0.0,0.0
942,68.0,120,120,0.0,0.0
943,65.0,240,120,0.0,0.0
944,58.0,0,240,1.0,0.0
945,75.0,120,120,0.0,0.0
946,50.0,120,240,1.0,0.0
947,77.0,120,120,0.0,0.0
948,67.0,0,120,0.0,0.0
949,68.0,120,120,0.0,0.0
950,65.0,240,120,0.0,0.0
951,58.0,120,240,1.0,0.0
952,77.0,0,120,0.0,0.0
953,51.0,120,240,1.0,0.0
954,79.0,120,120,0.0,0.0
955,72.0,0,120,0.0,0.0
956,73.0,120,120,0.0,0.0
957,70.0,240,120,0.0,0.0
958,63.0,120,240,1.0,0.0
959,80.0,0,120,0.0,0.0
960,82.0,120,120,0.0,0.0
961,55.0,0,240,1.0,0.0
962,72.0,120,120,0.0,0.0
963,73.0,120,120,0.0,0.0
964,70.0,240,120,0.0,0.0
965,63.0,0,240,1.0,0.0
966,73.0,120,120,0.0,0.0
967,56.0,120,480,1.0,0.0
968,72.0,120,120,0.0,0.0
969,75.0,120,120,0.0,0.0
970,77.0,120,120,0.0,0.0
971,79.0,0,120,0.0,0.0
972,80.0,120,120,0.0,0.0
973,53.0,0,240,1.0,0.0
974,74.0,120,120,0.0,0.0
975,51.0,120,480,1.0,0.0
976,80.0,120,120,0.0,0.0
977,79.0,120,120,0.0,0.0
978,77.0,120,120,0.0,0.0
979,75.0,0,120,0.0,0.0
980,82.0,120,120,0.0,0.0
981,48.0,240,240,1.0,0.0
982,81.0,0,120,0.0,0.0
983,82.0,0,480,0.0,0.0
984,46.0,120,120,1.0,0.0
985,50.0,120,120,1.0,0.0
986,53.0,120,120,1.0,0.0
987,56.0,120,120,1.0,0.0
988,58.0,120,120,1.0,0.0
989,62.0,120,120,0.0,0.0
990,65.0,120,120,0.0,0.0
991,68.0,120,120,0.0,0.0
992,70.0,120,120,0.0,0.0
993,74.0,120,120,0.0,0.0
994,56.0,240,120,1.0,0.0
995,55.0,120,240,1.0,0.0
996,75.0,0,120,0.0,0.0
997,70.0,120,120,0.0,0.0
998,69.0,120,120,0.0,0.0
999,70.0,120,120,0.0,0.0
1000,75.0,120,120,0.0,0.0
1001,77.0,120,120,0.0,0.0
1002,50.0,0,240,1.0,0.0
1003,70.0,120,120,0.0,0.0
1004,79.0,120,120,0.0,0.0
1005,70.0,120,120,0.0,0.0
1006,80.0,120,120,0.0,0.0
1007,70.0,240,120,0.0,0.0
1008,51.0,0,240,1.0,0.0
1009,79.0,120,120,0.0,0.0
1010,75.0,120,120,0.0,0.0
1011,74.0,120,120,0.0,0.0
1012,75.0,120,120,0.0,0.0
1013,79.0,120,120,0.0,0.0
1014,80.0,120,120,0.0,0.0
1015,53.0,120,240,1.0,0.0
1016,75.0,0,120,0.0,0.0
1017,82.0,120,120,0.0,0.0
1018,75.0,120,120,0.0,0.0
1019,84.0,120,120,0.0,0.0
1020,75.0,120,120,0.0,0.0
1021,82.0,120,120,0.0,0.0
1022,55.0,0,240,1.0,0.0
1023,75.0,120,120,0.0,0.0
1024,77.0,120,120,0.0,0.0
1025,73.0,120,120,0.0,0.0
1026,72.0,120,120,0.0,0.0
1027,51.0,0,240,1.0,0.0
1028,70.0,120,120,0.0,0.0
1029,44.0,0,240,1.0,0.0
1030,72.0,120,120,0.0,0.0
1031,67.0,120,120,0.0,0.0
1032,68.0,120,120,0.0,0.0
1033,63.0,240,120,0.0,0.0
1034,56.0,120,240,1.0,0.0
1035,84.0,0,120,0.0,0.0
1036,85.0,120,120,0.0,0.0
1037,47.0,0,240,1.0,0.0
1038,79.0,120,120,0.0,0.0
1039,80.0,120,120,0.0,0.0
1040,77.0,120,120,0.0,0.0
1041,75.0,120,120,0.0,0.0
1042,55.0,0,240,1.0,0.0
1043,74.0,120,120,0.0,0.0
1044,48.0,120,240,1.0,0.0
1045,75.0,120,120,0.0,0.0
1046,71.0,0,120,0.0,0.0
1047,72.0,120,120,0.0,0.0
1048,67.0,240,120,0.0,0.0
1049,60.0,120,240,1.0,0.0
1050,82.0,0,120,0.0,0.0
1051,53.0,120,480,1.0,0.0
1052,81.0,120,120,0.0,0.0
1053,82.0,120,120,0.0,0.0
1054,84.0,120,120,0.0,0.0
1055,81.0,0,120,0.0,0.0
1056,78.0,120,120,0.0,0.0
1057,77.0,120,120,0.0,0.0
1058,75.0,120,120,0.0,0.0
1059,57.0,0,480,1.0,0.0
1060,77.0,120,120,0.0,0.0
1061,78.0,120,120,0.0,0.0
1062,75.0,120,120,0.0,0.0
1063,74.0,120,120,0.0,0.0
1064,72.0,120,120,0.0,0.0
1065,58.0,120,480,1.0,0.0
1066,74.0,120,120,0.0,0.0
1067,75.0,120,120,0.0,0.0
1068,77.0,120,120,0.0,0.0
1069,74.0,0,120,0.0,0.0
1070,71.0,120,120,0.0,0.0
1071,70.0,120,120,0.0,0.0
1072,68.0,120,120,0.0,0.0
1073,50.0,120,480,1.0,0.0
1074,70.0,120,120,0.0,0.0
1075,71.0,120,120,0.0,0.0
1076,68.0,0,120,0.0,0.0
1077,67.0,120,120,0.0,0.0
1078,65.0,120,120,0.0,0.0
1079,67.0,120,120,0.0,0.0
1080,51.0,120,480,1.0,0.0
1081,70.0,120,120,0.0,0.0
1082,72.0,120,120,0.0,0.0
1083,74.0,0,120,0.0,0.0
1084,75.0,120,120,0.0,0.0
1085,55.0,0,240,1.0,0.0
1086,77.0,120,120,0.0,0.0
1087,58.0,0,480,1.0,0.0
1088,79.0,120,120,0.0,0.0
1089,82.0,120,120,0.0,0.0
1090,79.0,120,120,0.0,0.0
1091,75.0,120,120,0.0,0.0
1092,46.0,120,240,1.0,0.0
1093,77.0,120,120,0.0,0.0
1094,74.0,0,120,0.0,0.0
1095,75.0,120,120,0.0,0.0
1096,39.0,120,480,1.0,0.0
1097,70.0,120,120,0.0,0.0
1098,67.0,120,120,0.0,0.0
1099,63.0,0,120,0.0,0.0
1100,58.0,120,120,0.0,0.0
1101,55.0,480,120,0.0,0.0
1102,51.0,120,480,1.0,0.0
1103,87.0,0,120,0.0,0.0
1104,86.0,120,120,0.0,0.0
1105,84.0,120,120,0.0,0.0
1106,83.0,120,120,0.0,0.0
1107,50.0,120,240,1.0,0.0
1108,80.0,0,120,0.0,0.0
1109,79.0,120,120,0.0,0.0
1110,51.0,120,240,1.0,0.0
1111,77.0,0,120,0.0,0.0
1112,79.0,120,120,0.0,0.0
1113,53.0,120,240,1.0,0.0
1114,83.0,0,120,0.0,0.0
1115,84.0,120,120,0.0,0.0
1116,51.0,0,240,1.0,0.0
1117,72.0,120,120,0.0,0.0
1118,52.0,120,240,1.0,0.0
1119,82.0,120,120,0.0,0.0
1120,80.0,0,120,0.0,0.0
1121,79.0,120,120,0.0,0.0
1122,53.0,0,240,1.0,0.0
1123,77.0,120,120,0.0,0.0
1124,76.0,120,120,0.0,0.0
1125,55.0,0,240,1.0,0.0
1126,73.0,120,120,0.0,0.0
1127,56.0,120,240,1.0,0.0
1128,72.0,120,120,0.0,0.0
1129,70.0,0,120,0.0,0.0
1130,58.0,0,240,1.0,0.0
1131,72.0,120,120,0.0,0.0
1132,76.0,120,120,0.0,0.0
1133,77.0,120,120,0.0,0.0
1134,56.0,0,240,1.0,0.0
1135,65.0,120,120,0.0,0.0
1136,75.0,120,120,0.0,0.0
1137,53.0,120,240,1.0,0.0
1138,74.0,0,120,0.0,0.0
1139,55.0,120,240,1.0,0.0
1140,72.0,120,120,0.0,0.0
1141,71.0,0,120,0.0,0.0
1142,74.0,120,120,0.0,0.0
1143,57.0,120,240,1.0,0.0
1144,72.0,0,120,0.0,0.0
1145,75.0,120,120,0.0,0.0
1146,59.0,0,240,1.0,0.0
1147,74.0,120,120,0.0,0.0
1148,60.0,120,240,1.0,0.0
1149,77.0,120,120,0.0,0.0
1150,75.0,0,120,0.0,0.0
1151,56.0,120,240,1.0,0.0
1152,79.0,120,120,0.0,0.0
1153,77.0,0,120,0.0,0.0
1154,80.0,120,120,0.0,0.0
1155,51.0,0,240,1.0,0.0
1156,79.0,120,120,0.0,0.0
1157,53.0,0,240,1.0,0.0
1158,77.0,120,120,0.0,0.0
1159,75.0,120,120,0.0,0.0
1160,74.0,120,120,0.0,0.0
1161,55.0,120,960,1.0,0.0
1162,72.0,120,120,0.0,0.0
1163,71.0,120,120,0.0,0.0
1164,69.0,120,120,0.0,0.0
1165,67.0,120,120,0.0,0.0
1166,66.0,60,120,0.0,0.0
1167,67.0,60,60,0.0,0.0
1168,66.0,120,60,0.0,0.0
1169,67.0,120,240,0.0,0.0
1170,59.0,0,240,1.0,0.0
1171,80.0,120,120,0.0,0.0
1172,55.0,0,240,1.0,0.0
1173,79.0,120,120,0.0,0.0
1174,77.0,120,120,0.0,0.0
1175,75.0,120,120,0.0,0.0
1176,60.0,0,480,1.0,0.0
1177,79.0,120,120,0.0,0.0
1178,75.0,120,120,0.0,0.0
1179,72.0,120,120,0.0,0.0
1180,71.0,120,120,0.0,0.0
1181,72.0,120,120,0.0,0.0
1182,75.0,120,120,0.0,0.0
1183,58.0,0,480,1.0,0.0
1184,79.0,120,120,0.0,0.0
1185,75.0,120,120,0.0,0.0
1186,72.0,120,120,0.0,0.0
1187,71.0,120,120,0.0,0.0
1188,72.0,120,120,0.0,0.0
1189,56.0,120,480,1.0,0.0
1190,75.0,120,120,0.0,0.0
1191,79.0,120,120,0.0,0.0
1192,75.0,120,120,0.0,0.0
1193,72.0,0,120,0.0,0.0
1194,71.0,120,120,0.0,0.0
1195,72.0,120,120,0.0,0.0
1196,84.0,0,360,0.0,0.0
1197,51.0,120,120,1.0,0.0
1198,60.0,120,120,1.0,0.0
1199,67.0,120,120,1.0,0.0
1200,72.0,120,120,0.0,0.0
1201,75.0,120,120,0.0,0.0
1202,79.0,120,120,0.0,0.0
1203,53.0,120,480,1.0,0.0
1204,80.0,120,120,0.0,0.0
1205,79.0,120,120,0.0,0.0
1206,77.0,120,120,0.0,0.0
1207,75.0,0,120,0.0,0.0
1208,74.0,120,120,0.0,0.0
1209,72.0,120,120,0.0,0.0
1210,55.0,0,480,1.0,0.0
1211,71.0,120,120,0.0,0.0
1212,80.0,120,120,0.0,0.0
1213,79.0,120,120,0.0,0.0
1214,77.0,120,120,0.0,0.0
1215,75.0,120,120,0.0,0.0
1216,74.0,120,120,0.0,0.0
1217,75.0,120,120,0.0,0.0
1218,48.0,0,480,1.0,0.0
1219,74.0,120,120,0.0,0.0
1220,72.0,120,120,0.0,0.0
1221,71.0,120,120,0.0,0.0
1222,72.0,120,120,0.0,0.0
1223,67.0,120,120,0.0,0.0
1224,70.0,120,120,0.0,0.0
1225,73.0,120,120,0.0,0.0
1226,76.0,120,120,0.0,0.0
1227,79.0,120,120,0.0,0.0
1228,80.0,120,120,0.0,0.0
1229,82.0,120,120,0.0,0.0
1230,41.0,120,480,1.0,0.0
1231,80.0,120,120,0.0,0.0
1232,79.0,120,120,0.0,0.0
1233,77.0,120,120,0.0,0.0
1234,76.0,0,120,0.0,0.0
1235,77.0,120,120,0.0,0.0
1236,80.0,120,120,0.0,0.0
1237,44.0,120,480,1.0,0.0
1238,72.0,120,120,0.0,0.0
1239,74.0,120,120,0.0,0.0
1240,75.0,120,120,0.0,0.0
1241,78.0,0,120,0.0,0.0
1242,77.0,120,120,0.0,0.0
1243,75.0,120,120,0.0,0.0
1244,46.0,0,480,1.0,0.0
1245,74.0,120,120,0.0,0.0
1246,72.0,120,120,0.0,0.0
1247,70.0,120,120,0.0,0.0
1248,69.0,120,120,0.0,0.0
1249,70.0,120,120,0.0,0.0
1250,74.0,120,120,0.0,0.0
1251,65.0,120,120,0.0,0.0
1252,50.0,0,480,1.0,0.0
1253,67.0,120,120,0.0,0.0
1254,68.0,120,120,0.0,0.0
1255,72.0,120,120,0.0,0.0
1256,70.0,120,120,0.0,0.0
1257,68.0,120,120,0.0,0.0
1258,67.0,120,120,0.0,0.0
1259,39.0,120,480,1.0,0.0
1260,65.0,120,120,0.0,0.0
1261,63.0,120,120,0.0,0.0
1262,62.0,0,120,0.0,0.0
1263,63.0,120,120,0.0,0.0
1264,67.0,120,120,0.0,0.0
1265,58.0,120,120,0.0,0.0
1266,43.0,0,480,1.0,0.0
1267,60.0,120,120,0.0,0.0
1268,61.0,120,120,0.0,0.0
1269,65.0,120,120,0.0,0.0
1270,63.0,120,120,0.0,0.0
1271,61.0,120,120,0.0,0.0
1272,44.0,0,480,1.0,0.0
1273,60.0,120,120,0.0,0.0
1274,58.0,120,120,0.0,0.0
1275,56.0,120,120,0.0,0.0
1276,55.0,120,120,0.0,0.0
1277,56.0,120,120,0.0,0.0
1278,60.0,120,120,0.0,0.0
1279,48.0,120,480,1.0,0.0
1280,51.0,120,120,0.0,0.0
1281,53.0,120,120,0.0,0.0
1282,55.0,120,120,0.0,0.0
1283,58.0,0,120,0.0,0.0
1284,56.0,120,120,0.0,0.0
1285,55.0,120,120,0.0,0.0
1286,50.0,120,120,0.0,0.0
1287,52.0,120,120,0.0,0.0
1288,53.0,120,120,0.0,0.0
1289,55.0,120,120,0.0,0.0
1290,56.0,120,120,0.0,0.0
1291,59.0,120,120,0.0,0.0
1292,48.0,120,120,0.0,0.0
1293,52.0,120,120,0.0,0.0
1294,53.0,120,120,0.0,0.0
1295,56.0,120,120,0.0,0.0
1296,59.0,120,120,0.0,0.0
1297,60.0,120,120,0.0,0.0
1298,47.0,120,120,0.0,0.0
1299,52.0,120,120,0.0,0.0
1300,53.0,120,120,0.0,0.0
1301,56.0,120,120,0.0,0.0
1302,62.0,120,120,0.0,0.0
1303,63.0,120,120,0.0,0.0
1304,65.0,120,120,0.0,0.0
1305,43.0,0,360,1.0,0.0
1306,62.0,120,120,0.0,0.0
1307,59.0,120,120,0.0,0.0
1308,56.0,120,120,1.0,0.0
1309,55.0,120,120,1.0,0.0
1310,53.0,240,120,1.0,0.0
1311,51.0,0,480,1.0,0.0
1312,67.0,120,120,0.0,0.0
1313,69.0,120,120,0.0,0.0
1314,71.0,120,120,0.0,0.0
1315,48.0,0,240,1.0,0.0
1316,72.0,120,120,0.0,0.0
1317,74.0,120,120,0.0,0.0
1318,55.0,0,480,1.0,0.0
1319,75.0,120,120,0.0,0.0
1320,79.0,120,120,0.0,0.0
1321,75.0,120,120,0.0,0.0
1322,72.0,120,120,0.0,0.0
1323,43.0,0,240,1.0,0.0
1324,74.0,120,120,0.0,0.0
1325,71.0,120,120,0.0,0.0
1326,36.0,360,720,1.0,0.0
1327,72.0,120,120,0.0,0.0
1328,67.0,120,120,0.0,0.0
1329,63.0,120,120,0.0,0.0
1330,60.0,120,120,0.0,0.0
1331,55.0,120,120,0.0,0.0
1332,51.0,0,120,0.0,0.0
1333,48.0,0,360,0.0,0.0
