,note,step,duration,channel,velocity
0,66.0,18,60,0.0,64.0
1,66.0,480,60,4.0,64.0
2,71.0,23,510,0.0,64.0
3,71.0,23,510,4.0,64.0
4,62.0,5,90,2.0,64.0
5,59.0,81,90,3.0,64.0
6,66.0,0,60,1.0,64.0
7,64.0,100,90,2.0,64.0
8,61.0,4,60,3.0,64.0
9,66.0,23,90,2.0,64.0
10,62.0,94,120,3.0,64.0
11,71.0,27,480,1.0,64.0
12,73.0,15,90,0.0,64.0
13,73.0,87,90,4.0,64.0
14,74.0,1,90,0.0,64.0
15,74.0,4,60,4.0,64.0
16,61.0,79,90,3.0,64.0
17,64.0,16,90,2.0,64.0
18,76.0,3,90,0.0,64.0
19,76.0,96,90,4.0,64.0
20,62.0,6,90,2.0,64.0
21,78.0,11,90,0.0,64.0
22,78.0,12,60,4.0,64.0
23,59.0,219,90,3.0,64.0
24,64.0,0,90,2.0,64.0
25,70.0,2,60,0.0,64.0
26,70.0,17,60,4.0,64.0
27,61.0,10,90,3.0,64.0
28,79.0,221,90,1.0,64.0
29,62.0,0,90,3.0,64.0
30,78.0,2,90,1.0,64.0
31,71.0,19,60,0.0,64.0
32,66.0,218,600,2.0,64.0
33,71.0,232,90,4.0,64.0
34,61.0,237,90,3.0,64.0
35,70.0,0,90,1.0,64.0
36,76.0,6,90,0.0,64.0
37,76.0,5,90,4.0,64.0
38,71.0,7,90,1.0,64.0
39,59.0,10,90,3.0,64.0
40,74.0,8,90,0.0,64.0
41,74.0,2,90,4.0,64.0
42,61.0,9,90,3.0,64.0
43,79.0,14,90,0.0,64.0
44,64.0,2,90,1.0,64.0
45,70.0,233,90,2.0,64.0
46,79.0,0,90,4.0,64.0
47,78.0,5,90,0.0,64.0
48,62.0,2,90,3.0,64.0
49,71.0,2,90,2.0,64.0
50,78.0,8,90,4.0,64.0
51,62.0,190,90,1.0,64.0
52,82.0,17,90,0.0,64.0
53,76.0,5,120,1.0,64.0
54,82.0,12,60,4.0,64.0
55,61.0,6,90,3.0,64.0
56,73.0,237,90,2.0,64.0
57,83.0,14,180,0.0,64.0
58,59.0,14,120,3.0,64.0
59,74.0,65,120,1.0,64.0
60,66.0,3,90,2.0,64.0
61,83.0,120,180,4.0,64.0
62,81.0,7,90,0.0,64.0
63,61.0,6,90,3.0,64.0
64,81.0,11,90,4.0,64.0
65,64.0,1,90,2.0,64.0
66,76.0,64,90,1.0,64.0
67,79.0,4,60,0.0,64.0
68,79.0,153,60,4.0,64.0
69,78.0,0,120,0.0,64.0
70,78.0,10,90,4.0,64.0
71,78.0,0,90,1.0,64.0
72,62.0,15,90,2.0,64.0
73,62.0,39,120,3.0,64.0
74,79.0,146,60,0.0,64.0
75,79.0,7,60,4.0,64.0
76,76.0,8,90,0.0,64.0
77,76.0,5,90,4.0,64.0
78,70.0,4,90,1.0,64.0
79,61.0,62,90,3.0,64.0
80,64.0,4,90,2.0,64.0
81,78.0,158,60,0.0,64.0
82,78.0,7,60,4.0,64.0
83,74.0,9,90,0.0,64.0
84,74.0,2,90,4.0,64.0
85,59.0,56,120,3.0,64.0
86,71.0,6,120,1.0,64.0
87,66.0,2,90,2.0,64.0
88,76.0,7,60,0.0,64.0
89,76.0,160,60,4.0,64.0
90,73.0,6,120,0.0,64.0
91,70.0,14,120,1.0,64.0
92,73.0,1,90,4.0,64.0
93,61.0,52,120,3.0,64.0
94,64.0,0,60,2.0,64.0
95,74.0,8,60,0.0,64.0
96,74.0,161,60,4.0,64.0
97,71.0,2,120,1.0,64.0
98,71.0,9,120,0.0,64.0
99,62.0,50,120,3.0,64.0
100,71.0,6,90,4.0,64.0
101,66.0,29,510,2.0,64.0
102,73.0,15,60,0.0,64.0
103,73.0,150,60,4.0,64.0
104,69.0,4,90,0.0,64.0
105,69.0,6,120,4.0,64.0
106,73.0,15,90,1.0,64.0
107,61.0,48,120,3.0,64.0
108,71.0,15,60,0.0,64.0
109,71.0,119,60,4.0,64.0
110,67.0,10,90,0.0,64.0
111,59.0,54,90,3.0,64.0
112,67.0,3,90,4.0,64.0
113,74.0,4,60,1.0,64.0
114,67.0,146,60,2.0,64.0
115,64.0,27,90,2.0,64.0
116,61.0,62,120,3.0,64.0
117,76.0,15,90,0.0,64.0
118,76.0,4,90,4.0,64.0
119,69.0,6,300,1.0,64.0
120,66.0,165,60,2.0,64.0
121,62.0,2,120,2.0,64.0
122,62.0,0,120,3.0,64.0
123,66.0,11,90,0.0,64.0
124,66.0,92,90,4.0,64.0
125,67.0,106,90,1.0,64.0
126,66.0,7,60,1.0,64.0
127,64.0,79,90,2.0,64.0
128,61.0,4,90,3.0,64.0
129,69.0,18,60,0.0,64.0
130,69.0,3,60,4.0,64.0
131,64.0,152,60,1.0,64.0
132,66.0,11,90,2.0,64.0
133,59.0,7,120,3.0,64.0
134,74.0,12,90,0.0,64.0
135,62.0,196,120,1.0,64.0
136,74.0,16,90,4.0,64.0
137,71.0,2,90,2.0,64.0
138,79.0,2,90,0.0,64.0
139,55.0,4,90,3.0,64.0
140,74.0,11,90,1.0,64.0
141,79.0,188,90,4.0,64.0
142,79.0,25,60,0.0,64.0
143,57.0,8,90,3.0,64.0
144,69.0,4,90,2.0,64.0
145,74.0,2,90,1.0,64.0
146,79.0,13,60,4.0,64.0
147,78.0,23,60,0.0,64.0
148,78.0,36,60,4.0,64.0
149,79.0,31,60,0.0,64.0
150,79.0,35,60,4.0,64.0
151,78.0,29,90,0.0,64.0
152,78.0,53,90,4.0,64.0
153,67.0,0,90,2.0,64.0
154,76.0,10,90,0.0,64.0
155,45.0,67,120,3.0,64.0
156,76.0,4,90,4.0,64.0
157,73.0,23,90,1.0,64.0
158,74.0,4,60,0.0,64.0
159,74.0,144,60,4.0,64.0
160,66.0,13,510,2.0,64.0
161,50.0,232,90,3.0,64.0
162,74.0,8,480,0.0,64.0
163,69.0,229,510,1.0,64.0
164,74.0,2,480,4.0,64.0
165,45.0,186,60,3.0,64.0
166,38.0,42,240,3.0,64.0
167,66.0,466,90,4.0,64.0
168,66.0,6,90,0.0,64.0
169,71.0,63,510,4.0,64.0
170,71.0,2,510,0.0,64.0
171,66.0,31,60,1.0,64.0
172,62.0,84,90,2.0,64.0
173,59.0,10,90,3.0,64.0
174,64.0,79,90,2.0,64.0
175,61.0,8,90,3.0,64.0
176,62.0,0,120,3.0,64.0
177,66.0,92,120,2.0,64.0
178,71.0,50,480,1.0,64.0
179,73.0,19,90,0.0,64.0
180,73.0,79,90,4.0,64.0
181,74.0,8,90,4.0,64.0
182,64.0,78,90,2.0,64.0
183,74.0,19,60,0.0,64.0
184,61.0,8,90,3.0,64.0
185,76.0,2,60,4.0,64.0
186,76.0,85,60,0.0,64.0
187,62.0,7,90,2.0,64.0
188,78.0,4,90,0.0,64.0
189,78.0,14,90,4.0,64.0
190,59.0,217,90,3.0,64.0
191,61.0,6,90,3.0,64.0
192,64.0,2,90,2.0,64.0
193,70.0,13,90,0.0,64.0
194,79.0,0,90,1.0,64.0
195,70.0,238,90,4.0,64.0
196,62.0,4,120,3.0,64.0
197,78.0,227,90,1.0,64.0
198,71.0,9,90,0.0,64.0
199,71.0,4,90,4.0,64.0
200,66.0,31,540,2.0,64.0
201,70.0,197,120,1.0,64.0
202,61.0,1,90,3.0,64.0
203,76.0,9,90,0.0,64.0
204,76.0,11,90,4.0,64.0
205,59.0,219,90,3.0,64.0
206,71.0,2,90,1.0,64.0
207,74.0,4,90,0.0,64.0
208,74.0,6,90,4.0,64.0
209,61.0,0,90,3.0,64.0
210,70.0,17,120,2.0,64.0
211,79.0,3,90,0.0,64.0
212,64.0,209,120,1.0,64.0
213,79.0,24,60,4.0,64.0
214,62.0,2,90,3.0,64.0
215,78.0,8,90,0.0,64.0
216,71.0,2,90,2.0,64.0
217,62.0,7,90,1.0,64.0
218,78.0,208,90,4.0,64.0
219,61.0,5,90,3.0,64.0
220,82.0,5,90,0.0,64.0
221,82.0,15,90,4.0,64.0
222,76.0,239,90,1.0,64.0
223,73.0,1,90,2.0,64.0
224,83.0,130,210,0.0,64.0
225,83.0,6,180,4.0,64.0
226,59.0,1,90,3.0,64.0
227,74.0,12,90,1.0,64.0
228,66.0,71,120,2.0,64.0
229,81.0,2,90,0.0,64.0
230,81.0,8,90,4.0,64.0
231,64.0,35,120,2.0,64.0
232,76.0,4,90,1.0,64.0
233,61.0,15,90,3.0,64.0
234,79.0,13,60,4.0,64.0
235,79.0,159,60,0.0,64.0
236,78.0,8,120,4.0,64.0
237,78.0,0,90,0.0,64.0
238,78.0,21,90,1.0,64.0
239,62.0,42,120,3.0,64.0
240,62.0,2,60,2.0,64.0
241,79.0,7,60,4.0,64.0
242,79.0,143,60,0.0,64.0
243,76.0,9,90,0.0,64.0
244,76.0,7,90,4.0,64.0
245,70.0,9,120,1.0,64.0
246,64.0,17,90,2.0,64.0
247,61.0,33,90,3.0,64.0
248,78.0,6,60,0.0,64.0
249,78.0,161,60,4.0,64.0
250,74.0,6,90,0.0,64.0
251,74.0,2,90,4.0,64.0
252,71.0,23,90,1.0,64.0
253,66.0,11,90,2.0,64.0
254,59.0,43,90,3.0,64.0
255,76.0,3,60,0.0,64.0
256,76.0,150,60,4.0,64.0
257,70.0,2,120,1.0,64.0
258,73.0,0,90,0.0,64.0
259,64.0,12,90,2.0,64.0
260,73.0,17,90,4.0,64.0
261,61.0,48,90,3.0,64.0
262,74.0,163,60,0.0,64.0
263,74.0,6,60,4.0,64.0
264,71.0,25,90,1.0,64.0
265,71.0,2,90,0.0,64.0
266,71.0,2,90,4.0,64.0
267,66.0,21,540,2.0,64.0
268,62.0,48,90,3.0,64.0
269,73.0,0,60,0.0,64.0
270,73.0,165,60,4.0,64.0
271,69.0,4,120,0.0,64.0
272,69.0,41,120,4.0,64.0
273,73.0,7,90,1.0,64.0
274,61.0,10,90,3.0,64.0
275,71.0,15,60,0.0,64.0
276,71.0,142,60,4.0,64.0
277,67.0,13,90,0.0,64.0
278,74.0,2,90,1.0,64.0
279,59.0,6,90,3.0,64.0
280,67.0,88,90,4.0,64.0
281,67.0,123,60,2.0,64.0
282,61.0,87,90,3.0,64.0
283,64.0,17,90,2.0,64.0
284,76.0,0,90,0.0,64.0
285,76.0,2,90,4.0,64.0
286,69.0,13,330,1.0,64.0
287,66.0,146,60,2.0,64.0
288,62.0,19,120,3.0,64.0
289,62.0,75,120,2.0,64.0
290,66.0,0,90,4.0,64.0
291,66.0,4,90,0.0,64.0
292,67.0,111,90,1.0,64.0
293,66.0,14,60,1.0,64.0
294,64.0,75,90,2.0,64.0
295,69.0,4,60,0.0,64.0
296,61.0,14,90,3.0,64.0
297,69.0,9,60,4.0,64.0
298,64.0,142,90,1.0,64.0
299,66.0,15,90,2.0,64.0
300,59.0,6,120,3.0,64.0
301,74.0,0,90,0.0,64.0
302,74.0,13,90,4.0,64.0
303,62.0,198,90,1.0,64.0
304,71.0,2,90,2.0,64.0
305,79.0,13,90,0.0,64.0
306,55.0,173,90,3.0,64.0
307,79.0,0,90,4.0,64.0
308,74.0,8,60,1.0,64.0
309,79.0,21,60,0.0,64.0
310,79.0,36,60,4.0,64.0
311,69.0,2,120,2.0,64.0
312,57.0,1,90,3.0,64.0
313,74.0,45,90,1.0,64.0
314,78.0,13,60,0.0,64.0
315,78.0,7,60,4.0,64.0
316,79.0,13,60,0.0,64.0
317,79.0,50,60,4.0,64.0
318,78.0,13,90,0.0,64.0
319,78.0,57,90,4.0,64.0
320,76.0,13,90,0.0,64.0
321,67.0,1,90,2.0,64.0
322,76.0,22,90,4.0,64.0
323,45.0,61,120,3.0,64.0
324,73.0,23,90,1.0,64.0
325,74.0,136,60,0.0,64.0
326,74.0,0,60,4.0,64.0
327,50.0,250,60,3.0,64.0
328,66.0,241,510,2.0,64.0
329,74.0,13,480,0.0,64.0
330,74.0,0,480,4.0,64.0
331,69.0,16,480,1.0,64.0
332,45.0,173,90,3.0,64.0
333,38.0,40,240,3.0,64.0
334,69.0,21,90,4.0,64.0
335,69.0,467,90,0.0,64.0
336,74.0,44,510,4.0,64.0
337,74.0,10,510,0.0,64.0
338,50.0,1,90,3.0,64.0
339,69.0,16,90,1.0,64.0
340,66.0,86,90,2.0,64.0
341,52.0,12,90,3.0,64.0
342,67.0,84,90,2.0,64.0
343,54.0,73,120,3.0,64.0
344,69.0,17,120,2.0,64.0
345,74.0,84,480,1.0,64.0
346,76.0,8,90,4.0,64.0
347,76.0,102,90,0.0,64.0
348,78.0,9,90,4.0,64.0
349,67.0,6,90,2.0,64.0
350,78.0,19,90,0.0,64.0
351,52.0,77,90,3.0,64.0
352,79.0,4,60,4.0,64.0
353,79.0,64,60,0.0,64.0
354,66.0,7,120,2.0,64.0
355,81.0,48,120,4.0,64.0
356,81.0,0,120,0.0,64.0
357,50.0,22,90,3.0,64.0
358,71.0,13,60,1.0,64.0
359,79.0,88,90,4.0,64.0
360,79.0,21,60,0.0,64.0
361,69.0,10,90,1.0,64.0
362,78.0,22,90,0.0,64.0
363,67.0,9,120,2.0,64.0
364,78.0,5,90,4.0,64.0
365,52.0,77,90,3.0,64.0
366,67.0,6,90,1.0,64.0
367,76.0,152,90,0.0,64.0
368,76.0,0,60,4.0,64.0
369,66.0,9,120,1.0,64.0
370,69.0,2,120,2.0,64.0
371,74.0,2,90,0.0,64.0
372,54.0,2,90,3.0,64.0
373,74.0,60,90,4.0,64.0
374,67.0,34,90,1.0,64.0
375,67.0,115,90,2.0,64.0
376,69.0,214,390,1.0,64.0
377,66.0,3,120,2.0,64.0
378,52.0,18,90,3.0,64.0
379,72.0,4,90,0.0,64.0
380,72.0,106,90,4.0,64.0
381,64.0,138,120,2.0,64.0
382,66.0,16,90,2.0,64.0
383,51.0,6,120,3.0,64.0
384,71.0,1,90,4.0,64.0
385,71.0,9,90,0.0,64.0
386,52.0,3,120,3.0,64.0
387,71.0,0,90,2.0,64.0
388,67.0,237,120,1.0,64.0
389,76.0,8,90,4.0,64.0
390,76.0,2,90,0.0,64.0
391,54.0,0,90,3.0,64.0
392,75.0,4,90,0.0,64.0
393,66.0,188,120,1.0,64.0
394,69.0,1,90,2.0,64.0
395,75.0,16,90,4.0,64.0
396,81.0,15,90,4.0,64.0
397,78.0,7,90,1.0,64.0
398,71.0,2,360,2.0,64.0
399,81.0,14,90,0.0,64.0
400,51.0,187,90,3.0,64.0
401,81.0,7,90,0.0,64.0
402,81.0,33,60,4.0,64.0
403,76.0,17,90,1.0,64.0
404,52.0,40,120,3.0,64.0
405,79.0,6,90,0.0,64.0
406,79.0,2,60,4.0,64.0
407,81.0,4,60,0.0,64.0
408,81.0,71,60,4.0,64.0
409,79.0,56,90,0.0,64.0
410,79.0,11,90,4.0,64.0
411,75.0,6,90,1.0,64.0
412,78.0,8,90,0.0,64.0
413,78.0,16,90,4.0,64.0
414,69.0,22,90,2.0,64.0
415,54.0,27,120,3.0,64.0
416,79.0,8,40,4.0,64.0
417,79.0,154,60,0.0,64.0
418,76.0,30,90,4.0,64.0
419,76.0,27,540,1.0,64.0
420,76.0,2,120,0.0,64.0
421,71.0,9,90,2.0,64.0
422,55.0,48,90,3.0,64.0
423,71.0,20,60,4.0,64.0
424,71.0,23,90,0.0,64.0
425,69.0,90,90,2.0,64.0
426,76.0,11,90,4.0,64.0
427,67.0,11,90,2.0,64.0
428,76.0,20,60,0.0,64.0
429,54.0,71,90,3.0,64.0
430,78.0,4,90,4.0,64.0
431,69.0,114,90,2.0,64.0
432,78.0,13,60,0.0,64.0
433,79.0,9,90,0.0,64.0
434,79.0,6,120,4.0,64.0
435,52.0,6,90,3.0,64.0
436,71.0,63,90,2.0,64.0
437,81.0,10,90,0.0,64.0
438,81.0,128,90,4.0,64.0
439,78.0,0,90,4.0,64.0
440,54.0,6,90,3.0,64.0
441,78.0,12,90,0.0,64.0
442,62.0,66,90,2.0,64.0
443,70.0,5,90,1.0,64.0
444,79.0,3,60,4.0,64.0
445,79.0,150,60,0.0,64.0
446,59.0,4,90,2.0,64.0
447,76.0,14,90,0.0,64.0
448,76.0,13,90,4.0,64.0
449,55.0,44,90,3.0,64.0
450,71.0,32,540,1.0,64.0
451,78.0,167,60,4.0,64.0
452,78.0,8,60,0.0,64.0
453,74.0,10,120,0.0,64.0
454,66.0,9,90,2.0,64.0
455,74.0,6,120,4.0,64.0
456,54.0,54,120,3.0,64.0
457,76.0,7,60,0.0,64.0
458,76.0,133,60,4.0,64.0
459,67.0,10,120,2.0,64.0
460,73.0,86,120,4.0,64.0
461,52.0,4,90,3.0,64.0
462,73.0,2,90,0.0,64.0
463,73.0,113,90,1.0,64.0
464,74.0,3,90,1.0,64.0
465,54.0,12,90,3.0,64.0
466,66.0,81,120,2.0,64.0
467,82.0,8,60,0.0,64.0
468,82.0,12,90,4.0,64.0
469,76.0,132,90,1.0,64.0
470,59.0,3,120,2.0,64.0
471,74.0,83,120,1.0,64.0
472,55.0,2,120,3.0,64.0
473,83.0,35,60,0.0,64.0
474,83.0,0,60,4.0,64.0
475,73.0,115,90,1.0,64.0
476,71.0,13,120,1.0,64.0
477,66.0,12,90,2.0,64.0
478,54.0,58,90,3.0,64.0
479,74.0,9,390,0.0,64.0
480,74.0,12,390,4.0,64.0
481,69.0,184,60,1.0,64.0
482,67.0,4,120,1.0,64.0
483,52.0,38,120,3.0,64.0
484,71.0,8,90,2.0,64.0
485,66.0,142,60,1.0,64.0
486,64.0,6,90,1.0,64.0
487,73.0,9,90,0.0,64.0
488,54.0,71,120,3.0,64.0
489,73.0,8,60,4.0,64.0
490,70.0,14,90,2.0,64.0
491,62.0,2,90,1.0,64.0
492,74.0,5,60,4.0,64.0
493,74.0,142,90,0.0,64.0
494,61.0,22,90,1.0,64.0
495,55.0,15,120,3.0,64.0
496,76.0,60,120,0.0,64.0
497,76.0,2,120,4.0,64.0
498,71.0,7,90,2.0,64.0
499,59.0,2,90,1.0,64.0
500,74.0,115,90,0.0,64.0
501,74.0,2,90,4.0,64.0
502,67.0,8,90,1.0,64.0
503,73.0,11,90,4.0,64.0
504,73.0,0,90,0.0,64.0
505,52.0,71,120,3.0,64.0
506,64.0,23,90,2.0,64.0
507,71.0,2,90,0.0,64.0
508,71.0,148,90,4.0,64.0
509,61.0,25,120,2.0,64.0
510,70.0,4,90,4.0,64.0
511,70.0,4,90,0.0,64.0
512,66.0,40,540,1.0,64.0
513,54.0,78,120,3.0,64.0
514,71.0,88,120,0.0,64.0
515,71.0,10,90,4.0,64.0
516,73.0,43,60,0.0,64.0
517,73.0,0,60,4.0,64.0
518,58.0,0,120,2.0,64.0
519,52.0,59,120,3.0,64.0
520,70.0,124,60,0.0,64.0
521,70.0,3,60,4.0,64.0
522,66.0,16,120,0.0,64.0
523,50.0,0,120,3.0,64.0
524,59.0,9,120,2.0,64.0
525,66.0,69,120,4.0,64.0
526,68.0,18,90,0.0,64.0
527,68.0,94,90,4.0,64.0
528,70.0,8,90,0.0,64.0
529,49.0,12,90,3.0,64.0
530,70.0,3,60,4.0,64.0
531,64.0,27,90,1.0,64.0
532,61.0,36,90,2.0,64.0
533,66.0,27,60,0.0,64.0
534,66.0,157,60,4.0,64.0
535,71.0,46,540,0.0,64.0
536,62.0,43,90,1.0,64.0
537,71.0,11,510,4.0,64.0
538,47.0,0,120,3.0,64.0
539,54.0,176,120,2.0,64.0
540,59.0,10,90,3.0,64.0
541,66.0,4,90,1.0,64.0
542,62.0,88,90,2.0,64.0
543,61.0,11,60,3.0,64.0
544,64.0,84,90,2.0,64.0
545,62.0,96,120,3.0,64.0
546,66.0,32,510,2.0,64.0
547,71.0,5,510,1.0,64.0
548,66.0,11,90,4.0,64.0
549,66.0,96,90,0.0,64.0
550,64.0,17,90,4.0,64.0
551,64.0,6,90,0.0,64.0
552,61.0,85,90,3.0,64.0
553,66.0,11,90,4.0,64.0
554,66.0,92,90,0.0,64.0
555,59.0,121,90,3.0,64.0
556,74.0,17,510,4.0,64.0
557,74.0,38,510,0.0,64.0
558,66.0,11,90,1.0,64.0
559,62.0,94,90,2.0,64.0
560,64.0,15,90,1.0,64.0
561,61.0,106,90,3.0,64.0
562,61.0,10,90,2.0,64.0
563,66.0,8,90,1.0,64.0
564,59.0,75,90,2.0,64.0
565,62.0,37,120,3.0,64.0
566,71.0,57,540,1.0,64.0
567,66.0,75,120,2.0,64.0
568,71.0,23,90,4.0,64.0
569,71.0,73,90,0.0,64.0
570,70.0,11,60,4.0,64.0
571,70.0,50,60,0.0,64.0
572,61.0,0,120,3.0,64.0
573,64.0,52,120,2.0,64.0
574,71.0,29,90,4.0,64.0
575,71.0,96,90,0.0,64.0
576,62.0,6,120,2.0,64.0
577,77.0,29,510,4.0,64.0
578,59.0,98,120,3.0,64.0
579,77.0,34,540,0.0,64.0
580,61.0,27,120,2.0,64.0
581,69.0,65,120,1.0,64.0
582,59.0,15,90,2.0,64.0
583,68.0,31,90,1.0,64.0
584,61.0,67,90,3.0,64.0
585,57.0,20,90,2.0,64.0
586,69.0,82,90,1.0,64.0
587,62.0,123,120,3.0,64.0
588,71.0,48,540,1.0,64.0
589,56.0,0,90,2.0,64.0
590,71.0,65,120,4.0,64.0
591,71.0,16,90,0.0,64.0
592,70.0,52,60,0.0,64.0
593,61.0,75,120,3.0,64.0
594,70.0,2,60,4.0,64.0
595,65.0,92,360,2.0,64.0
596,71.0,9,90,4.0,64.0
597,71.0,108,90,0.0,64.0
598,59.0,11,120,3.0,64.0
599,80.0,3,510,4.0,64.0
600,80.0,87,480,0.0,64.0
601,69.0,2,120,1.0,64.0
602,66.0,123,90,2.0,64.0
603,68.0,10,120,1.0,64.0
604,61.0,88,120,3.0,64.0
605,65.0,2,90,2.0,64.0
606,69.0,26,120,1.0,64.0
607,66.0,42,90,2.0,64.0
608,65.0,6,120,2.0,64.0
609,62.0,3,120,3.0,64.0
610,71.0,75,120,1.0,64.0
611,82.0,0,90,0.0,64.0
612,82.0,111,90,4.0,64.0
613,83.0,35,90,4.0,64.0
614,83.0,2,90,0.0,64.0
615,59.0,58,120,3.0,64.0
616,74.0,2,120,1.0,64.0
617,66.0,7,90,2.0,64.0
618,80.0,8,60,4.0,64.0
619,80.0,140,60,0.0,64.0
620,61.0,60,120,3.0,64.0
621,82.0,4,90,4.0,64.0
622,82.0,8,90,0.0,64.0
623,73.0,11,90,1.0,64.0
624,64.0,15,120,2.0,64.0
625,78.0,11,90,4.0,64.0
626,78.0,148,60,0.0,64.0
627,71.0,3,330,1.0,64.0
628,62.0,2,120,3.0,64.0
629,83.0,69,120,4.0,64.0
630,66.0,15,90,2.0,64.0
631,83.0,4,120,0.0,64.0
632,81.0,0,90,4.0,64.0
633,81.0,110,60,0.0,64.0
634,64.0,54,120,3.0,64.0
635,79.0,6,60,4.0,64.0
636,67.0,59,510,2.0,64.0
637,79.0,48,60,0.0,64.0
638,78.0,56,90,4.0,64.0
639,78.0,6,60,0.0,64.0
640,74.0,93,90,1.0,64.0
641,76.0,4,270,4.0,64.0
642,62.0,91,120,3.0,64.0
643,73.0,10,90,1.0,64.0
644,76.0,21,240,0.0,64.0
645,71.0,61,90,1.0,64.0
646,70.0,36,90,1.0,64.0
647,61.0,72,120,3.0,64.0
648,66.0,67,120,2.0,64.0
649,74.0,10,90,4.0,64.0
650,74.0,19,90,0.0,64.0
651,64.0,34,90,2.0,64.0
652,73.0,17,60,0.0,64.0
653,79.0,29,360,1.0,64.0
654,73.0,5,90,4.0,64.0
655,62.0,44,120,3.0,64.0
656,66.0,142,90,2.0,64.0
657,71.0,13,60,0.0,64.0
658,71.0,6,60,4.0,64.0
659,70.0,4,90,2.0,64.0
660,73.0,10,90,0.0,64.0
661,64.0,9,90,3.0,64.0
662,73.0,50,120,4.0,64.0
663,74.0,17,90,0.0,64.0
664,71.0,23,90,2.0,64.0
665,74.0,81,120,4.0,64.0
666,76.0,38,90,0.0,64.0
667,78.0,14,330,1.0,64.0
668,73.0,33,150,2.0,64.0
669,76.0,2,60,4.0,64.0
670,49.0,31,90,3.0,64.0
671,70.0,138,90,0.0,64.0
672,70.0,13,60,4.0,64.0
673,66.0,9,120,2.0,64.0
674,50.0,10,120,3.0,64.0
675,71.0,9,120,0.0,64.0
676,71.0,214,120,4.0,64.0
677,67.0,4,120,2.0,64.0
678,52.0,8,120,3.0,64.0
679,71.0,3,90,1.0,64.0
680,79.0,8,90,0.0,64.0
681,79.0,59,120,4.0,64.0
682,78.0,163,60,4.0,64.0
683,78.0,0,60,0.0,64.0
684,54.0,0,120,3.0,64.0
685,66.0,12,120,2.0,64.0
686,71.0,2,120,1.0,64.0
687,76.0,13,120,0.0,64.0
688,76.0,44,120,4.0,64.0
689,74.0,166,60,0.0,64.0
690,74.0,0,60,4.0,64.0
691,64.0,3,120,2.0,64.0
692,70.0,50,120,1.0,64.0
693,42.0,4,120,3.0,64.0
694,73.0,6,120,4.0,64.0
695,73.0,4,120,0.0,64.0
696,71.0,15,60,4.0,64.0
697,71.0,159,60,0.0,64.0
698,47.0,233,120,3.0,64.0
699,66.0,8,540,1.0,64.0
700,71.0,4,540,4.0,64.0
701,62.0,17,510,2.0,64.0
702,71.0,215,540,0.0,64.0
703,54.0,180,90,3.0,64.0
704,59.0,58,270,3.0,64.0
705,69.0,17,90,4.0,64.0
706,69.0,457,90,0.0,64.0
707,74.0,15,540,0.0,64.0
708,74.0,29,540,4.0,64.0
709,69.0,33,90,1.0,64.0
710,50.0,3,120,3.0,64.0
711,66.0,83,90,2.0,64.0
712,67.0,96,90,2.0,64.0
713,52.0,2,90,3.0,64.0
714,69.0,19,120,2.0,64.0
715,54.0,75,120,3.0,64.0
716,74.0,29,540,1.0,64.0
717,76.0,14,60,0.0,64.0
718,76.0,96,90,4.0,64.0
719,78.0,9,60,0.0,64.0
720,52.0,6,90,3.0,64.0
721,67.0,79,90,2.0,64.0
722,78.0,15,90,4.0,64.0
723,79.0,8,90,0.0,64.0
724,79.0,132,60,4.0,64.0
725,81.0,11,120,0.0,64.0
726,66.0,4,120,2.0,64.0
727,50.0,2,120,3.0,64.0
728,81.0,60,120,4.0,64.0
729,79.0,17,90,0.0,64.0
730,79.0,21,90,4.0,64.0
731,71.0,77,90,1.0,64.0
732,78.0,25,90,0.0,64.0
733,52.0,2,90,3.0,64.0
734,67.0,0,90,2.0,64.0
735,78.0,82,90,4.0,64.0
736,69.0,2,90,1.0,64.0
737,76.0,18,90,0.0,64.0
738,76.0,21,90,4.0,64.0
739,67.0,107,90,1.0,64.0
740,66.0,11,120,1.0,64.0
741,74.0,12,90,0.0,64.0
742,54.0,10,120,3.0,64.0
743,74.0,13,120,4.0,64.0
744,69.0,41,120,2.0,64.0
745,67.0,51,90,1.0,64.0
746,67.0,104,90,2.0,64.0
747,69.0,165,420,1.0,64.0
748,72.0,8,90,0.0,64.0
749,72.0,6,90,4.0,64.0
750,66.0,7,90,2.0,64.0
751,52.0,98,90,3.0,64.0
752,64.0,136,90,2.0,64.0
753,66.0,19,120,2.0,64.0
754,51.0,41,120,3.0,64.0
755,71.0,10,90,0.0,64.0
756,71.0,2,90,4.0,64.0
757,67.0,14,120,1.0,64.0
758,71.0,222,120,2.0,64.0
759,76.0,9,90,0.0,64.0
760,52.0,0,90,3.0,64.0
761,76.0,2,90,4.0,64.0
762,66.0,2,90,1.0,64.0
763,69.0,2,90,2.0,64.0
764,75.0,14,90,4.0,64.0
765,54.0,204,120,3.0,64.0
766,75.0,11,90,0.0,64.0
767,81.0,3,90,0.0,64.0
768,78.0,7,90,1.0,64.0
769,81.0,24,90,4.0,64.0
770,51.0,163,90,3.0,64.0
771,71.0,13,390,2.0,64.0
772,78.0,20,60,1.0,64.0
773,81.0,13,60,0.0,64.0
774,81.0,31,60,4.0,64.0
775,52.0,6,120,3.0,64.0
776,76.0,23,60,1.0,64.0
777,79.0,5,90,0.0,64.0
778,79.0,17,90,4.0,64.0
779,78.0,12,60,1.0,64.0
780,81.0,2,60,0.0,64.0
781,81.0,43,60,4.0,64.0
782,76.0,23,90,1.0,64.0
783,79.0,7,90,0.0,64.0
784,79.0,45,90,4.0,64.0
785,75.0,11,90,1.0,64.0
786,78.0,8,90,0.0,64.0
787,78.0,19,90,4.0,64.0
788,69.0,29,90,2.0,64.0
789,54.0,29,120,3.0,64.0
790,79.0,0,60,4.0,64.0
791,79.0,161,60,0.0,64.0
792,76.0,25,570,1.0,64.0
793,76.0,8,120,0.0,64.0
794,76.0,42,90,4.0,64.0
795,71.0,6,120,2.0,64.0
796,55.0,46,120,3.0,64.0
797,71.0,8,90,0.0,64.0
798,71.0,9,60,4.0,64.0
799,69.0,96,90,2.0,64.0
800,67.0,7,60,2.0,64.0
801,76.0,8,60,0.0,64.0
802,76.0,50,60,4.0,64.0
803,54.0,56,120,3.0,64.0
804,69.0,126,90,2.0,64.0
805,78.0,8,60,0.0,64.0
806,78.0,0,60,4.0,64.0
807,71.0,0,120,2.0,64.0
808,52.0,16,120,3.0,64.0
809,79.0,0,120,0.0,64.0
810,79.0,63,120,4.0,64.0
811,81.0,10,60,0.0,64.0
812,81.0,124,60,4.0,64.0
813,70.0,2,90,1.0,64.0
814,62.0,23,120,2.0,64.0
815,78.0,18,90,0.0,64.0
816,78.0,0,90,4.0,64.0
817,54.0,42,120,3.0,64.0
818,79.0,8,60,0.0,64.0
819,79.0,157,60,4.0,64.0
820,71.0,21,570,1.0,64.0
821,59.0,5,90,2.0,64.0
822,76.0,23,90,0.0,64.0
823,76.0,8,90,4.0,64.0
824,55.0,43,120,3.0,64.0
825,78.0,7,60,0.0,64.0
826,78.0,160,60,4.0,64.0
827,66.0,11,120,2.0,64.0
828,74.0,59,120,0.0,64.0
829,74.0,8,120,4.0,64.0
830,54.0,2,90,3.0,64.0
831,76.0,146,60,0.0,64.0
832,76.0,2,60,4.0,64.0
833,67.0,16,120,2.0,64.0
834,52.0,0,120,3.0,64.0
835,73.0,4,90,4.0,64.0
836,73.0,75,120,0.0,64.0
837,73.0,124,90,1.0,64.0
838,74.0,14,90,1.0,64.0
839,66.0,12,120,2.0,64.0
840,54.0,67,120,3.0,64.0
841,82.0,2,90,4.0,64.0
842,82.0,11,90,0.0,64.0
843,76.0,144,90,1.0,64.0
844,74.0,6,120,1.0,64.0
845,55.0,73,120,3.0,64.0
846,59.0,0,120,2.0,64.0
847,83.0,0,60,0.0,64.0
848,83.0,27,60,4.0,64.0
849,73.0,130,90,1.0,64.0
850,71.0,25,120,1.0,64.0
851,66.0,6,90,2.0,64.0
852,54.0,52,120,3.0,64.0
853,74.0,0,360,0.0,64.0
854,74.0,58,360,4.0,64.0
855,69.0,170,60,1.0,64.0
856,67.0,8,120,1.0,64.0
857,52.0,9,120,3.0,64.0
858,71.0,14,90,2.0,64.0
859,66.0,127,90,1.0,64.0
860,64.0,2,90,1.0,64.0
861,73.0,1,60,0.0,64.0
862,54.0,53,120,3.0,64.0
863,73.0,18,60,4.0,64.0
864,70.0,32,90,2.0,64.0
865,62.0,1,90,1.0,64.0
866,74.0,0,60,0.0,64.0
867,74.0,146,60,4.0,64.0
868,61.0,26,90,1.0,64.0
869,55.0,6,120,3.0,64.0
870,76.0,67,120,0.0,64.0
871,76.0,7,120,4.0,64.0
872,71.0,7,90,2.0,64.0
873,59.0,2,90,1.0,64.0
874,74.0,117,90,0.0,64.0
875,74.0,2,60,4.0,64.0
876,52.0,23,120,3.0,64.0
877,73.0,6,90,0.0,64.0
878,67.0,11,90,1.0,64.0
879,73.0,22,90,4.0,64.0
880,64.0,38,90,2.0,64.0
881,71.0,4,90,0.0,64.0
882,71.0,157,60,4.0,64.0
883,70.0,12,120,0.0,64.0
884,54.0,84,120,3.0,64.0
885,66.0,33,540,1.0,64.0
886,70.0,2,120,4.0,64.0
887,61.0,2,120,2.0,64.0
888,71.0,17,90,0.0,64.0
889,71.0,77,120,4.0,64.0
890,73.0,4,60,0.0,64.0
891,52.0,2,120,3.0,64.0
892,73.0,52,60,4.0,64.0
893,58.0,57,120,2.0,64.0
894,70.0,130,60,0.0,64.0
895,70.0,16,60,4.0,64.0
896,66.0,6,120,0.0,64.0
897,66.0,5,120,4.0,64.0
898,59.0,8,120,2.0,64.0
899,50.0,77,120,3.0,64.0
900,68.0,4,90,4.0,64.0
901,68.0,88,90,0.0,64.0
902,70.0,15,90,0.0,64.0
903,64.0,31,90,1.0,64.0
904,70.0,10,60,4.0,64.0
905,49.0,40,120,3.0,64.0
906,61.0,0,90,2.0,64.0
907,66.0,27,60,0.0,64.0
908,66.0,142,60,4.0,64.0
909,62.0,46,90,1.0,64.0
910,71.0,75,510,0.0,64.0
911,47.0,179,150,3.0,64.0
912,54.0,21,120,2.0,64.0
913,71.0,2,510,4.0,64.0
914,59.0,15,90,3.0,64.0
915,66.0,2,90,1.0,64.0
916,62.0,77,90,2.0,64.0
917,61.0,23,90,3.0,64.0
918,64.0,77,90,2.0,64.0
919,62.0,71,120,3.0,64.0
920,71.0,51,510,1.0,64.0
921,66.0,32,480,2.0,64.0
922,66.0,77,120,0.0,64.0
923,66.0,17,90,4.0,64.0
924,64.0,27,90,4.0,64.0
925,64.0,34,90,0.0,64.0
926,61.0,44,90,3.0,64.0
927,66.0,12,60,4.0,64.0
928,66.0,94,60,0.0,64.0
929,74.0,52,540,4.0,64.0
930,59.0,95,120,3.0,64.0
931,74.0,46,480,0.0,64.0
932,62.0,20,90,2.0,64.0
933,66.0,75,120,1.0,64.0
934,61.0,5,90,2.0,64.0
935,64.0,41,90,1.0,64.0
936,61.0,80,90,3.0,64.0
937,59.0,57,90,2.0,64.0
938,66.0,10,90,1.0,64.0
939,66.0,6,120,2.0,64.0
940,71.0,36,540,1.0,64.0
941,62.0,106,120,3.0,64.0
942,71.0,64,120,0.0,64.0
943,71.0,5,90,4.0,64.0
944,70.0,22,60,0.0,64.0
945,61.0,11,120,3.0,64.0
946,70.0,30,90,4.0,64.0
947,64.0,55,120,2.0,64.0
948,71.0,3,60,0.0,64.0
949,71.0,125,60,4.0,64.0
950,59.0,8,120,3.0,64.0
951,77.0,36,510,0.0,64.0
952,77.0,36,540,4.0,64.0
953,62.0,111,90,2.0,64.0
954,69.0,3,120,1.0,64.0
955,61.0,87,120,2.0,64.0
956,59.0,59,150,2.0,64.0
957,68.0,44,90,1.0,64.0
958,61.0,13,120,3.0,64.0
959,57.0,8,90,2.0,64.0
960,69.0,75,90,1.0,64.0
961,71.0,59,510,1.0,64.0
962,62.0,127,120,3.0,64.0
963,56.0,19,90,2.0,64.0
964,71.0,8,120,0.0,64.0
965,71.0,59,120,4.0,64.0
966,70.0,4,90,0.0,64.0
967,70.0,56,90,4.0,64.0
968,65.0,30,330,2.0,64.0
969,61.0,65,120,3.0,64.0
970,71.0,81,90,0.0,64.0
971,71.0,0,60,4.0,64.0
972,59.0,72,120,3.0,64.0
973,80.0,46,540,4.0,64.0
974,80.0,14,510,0.0,64.0
975,69.0,14,90,1.0,64.0
976,66.0,93,90,2.0,64.0
977,68.0,6,90,1.0,64.0
978,65.0,67,60,2.0,64.0
979,61.0,48,120,3.0,64.0
980,69.0,92,90,1.0,64.0
981,66.0,10,90,2.0,64.0
982,65.0,13,120,2.0,64.0
983,71.0,6,120,1.0,64.0
984,62.0,77,120,3.0,64.0
985,82.0,30,90,4.0,64.0
986,82.0,87,90,0.0,64.0
987,83.0,17,90,4.0,64.0
988,59.0,56,120,3.0,64.0
989,74.0,16,90,1.0,64.0
990,66.0,5,90,2.0,64.0
991,83.0,8,90,0.0,64.0
992,80.0,13,60,4.0,64.0
993,80.0,142,60,0.0,64.0
994,82.0,5,90,4.0,64.0
995,64.0,6,90,2.0,64.0
996,73.0,8,90,1.0,64.0
997,82.0,33,90,0.0,64.0
998,61.0,61,120,3.0,64.0
999,78.0,152,90,4.0,64.0
1000,78.0,2,90,0.0,64.0
1001,66.0,13,120,2.0,64.0
1002,83.0,61,120,4.0,64.0
1003,62.0,2,120,3.0,64.0
1004,71.0,7,300,1.0,64.0
1005,83.0,6,90,0.0,64.0
1006,81.0,2,60,0.0,64.0
1007,81.0,112,60,4.0,64.0
1008,67.0,59,510,2.0,64.0
1009,79.0,6,60,0.0,64.0
1010,79.0,43,60,4.0,64.0
1011,64.0,65,120,3.0,64.0
1012,78.0,5,60,0.0,64.0
1013,78.0,36,60,4.0,64.0
1014,74.0,97,90,1.0,64.0
1015,76.0,22,240,0.0,64.0
1016,73.0,33,90,1.0,64.0
1017,76.0,4,270,4.0,64.0
1018,62.0,80,120,3.0,64.0
1019,71.0,57,90,1.0,64.0
1020,61.0,57,150,3.0,64.0
1021,70.0,60,90,1.0,64.0
1022,66.0,8,90,2.0,64.0
1023,74.0,4,90,0.0,64.0
1024,74.0,98,90,4.0,64.0
1025,64.0,23,90,2.0,64.0
1026,79.0,0,360,1.0,64.0
1027,73.0,0,90,4.0,64.0
1028,62.0,55,120,3.0,64.0
1029,73.0,4,90,0.0,64.0
1030,71.0,20,60,4.0,64.0
1031,66.0,152,90,2.0,64.0
1032,71.0,3,60,0.0,64.0
1033,73.0,2,120,4.0,64.0
1034,70.0,12,90,2.0,64.0
1035,73.0,4,120,0.0,64.0
1036,64.0,80,120,3.0,64.0
1037,74.0,14,90,4.0,64.0
1038,74.0,0,90,0.0,64.0
1039,71.0,92,90,2.0,64.0
1040,76.0,7,90,4.0,64.0
1041,76.0,41,90,0.0,64.0
1042,78.0,25,300,1.0,64.0
1043,73.0,59,120,2.0,64.0
1044,49.0,2,90,3.0,64.0
1045,70.0,131,60,0.0,64.0
1046,70.0,0,60,4.0,64.0
1047,66.0,9,90,2.0,64.0
1048,71.0,13,120,4.0,64.0
1049,71.0,6,120,0.0,64.0
1050,50.0,204,120,3.0,64.0
1051,67.0,4,90,2.0,64.0
1052,52.0,4,120,3.0,64.0
1053,71.0,25,90,1.0,64.0
1054,79.0,49,120,0.0,64.0
1055,79.0,2,90,4.0,64.0
1056,78.0,10,60,0.0,64.0
1057,78.0,155,60,4.0,64.0
1058,66.0,7,90,2.0,64.0
1059,54.0,2,120,3.0,64.0
1060,76.0,46,120,0.0,64.0
1061,76.0,10,120,4.0,64.0
1062,71.0,7,90,1.0,64.0
1063,74.0,136,60,0.0,64.0
1064,74.0,2,60,4.0,64.0
1065,70.0,21,60,1.0,64.0
1066,64.0,8,90,2.0,64.0
1067,73.0,6,90,0.0,64.0
1068,73.0,3,90,4.0,64.0
1069,42.0,66,90,3.0,64.0
1070,71.0,158,90,0.0,64.0
1071,71.0,5,60,4.0,64.0
1072,47.0,255,90,3.0,64.0
1073,71.0,0,510,0.0,64.0
1074,66.0,208,540,1.0,64.0
1075,62.0,13,510,2.0,64.0
1076,71.0,16,510,4.0,64.0
1077,54.0,159,90,3.0,64.0
1078,59.0,67,240,3.0,64.0
1079,71.0,65,90,4.0,64.0
1080,66.0,23,330,0.0,64.0
1081,66.0,14,120,1.0,64.0
1082,62.0,11,120,2.0,64.0
1083,70.0,61,90,4.0,64.0
1084,64.0,88,120,1.0,64.0
1085,61.0,20,90,2.0,64.0
1086,71.0,10,120,4.0,64.0
1087,62.0,70,120,2.0,64.0
1088,66.0,3,120,1.0,64.0
1089,73.0,115,120,4.0,64.0
1090,74.0,18,90,4.0,64.0
1091,59.0,57,90,3.0,64.0
1092,71.0,67,300,0.0,64.0
1093,78.0,128,60,4.0,64.0
1094,76.0,33,90,4.0,64.0
1095,55.0,6,90,3.0,64.0
1096,74.0,129,60,4.0,64.0
1097,73.0,36,90,4.0,64.0
1098,79.0,50,330,0.0,64.0
1099,52.0,81,90,3.0,64.0
1100,71.0,149,90,4.0,64.0
1101,70.0,93,120,4.0,64.0
1102,54.0,72,480,3.0,64.0
1103,71.0,98,120,4.0,64.0
1104,70.0,9,90,4.0,64.0
1105,66.0,0,90,2.0,64.0
1106,73.0,54,90,0.0,64.0
1107,73.0,23,120,1.0,64.0
1108,71.0,67,60,4.0,64.0
1109,74.0,13,120,1.0,64.0
1110,73.0,5,90,4.0,64.0
1111,76.0,12,90,1.0,64.0
1112,70.0,75,90,0.0,64.0
1113,64.0,0,90,2.0,64.0
1114,66.0,171,60,4.0,64.0
1115,62.0,16,120,2.0,64.0
1116,71.0,9,90,4.0,64.0
1117,66.0,52,300,0.0,64.0
1118,66.0,54,120,1.0,64.0
1119,61.0,21,120,2.0,64.0
1120,70.0,26,90,4.0,64.0
1121,64.0,79,120,1.0,64.0
1122,62.0,0,120,2.0,64.0
1123,66.0,4,120,1.0,64.0
1124,71.0,90,120,4.0,64.0
1125,73.0,106,90,4.0,64.0
1126,71.0,6,300,0.0,64.0
1127,74.0,54,120,4.0,64.0
1128,59.0,24,90,3.0,64.0
1129,78.0,144,60,4.0,64.0
1130,76.0,17,90,4.0,64.0
1131,55.0,85,60,3.0,64.0
1132,74.0,123,90,4.0,64.0
1133,73.0,30,90,4.0,64.0
1134,52.0,98,90,3.0,64.0
1135,79.0,0,90,0.0,64.0
1136,71.0,425,90,4.0,64.0
1137,78.0,10,480,4.0,64.0
1138,70.0,92,480,0.0,64.0
1139,54.0,150,660,3.0,64.0
1140,66.0,7,90,2.0,64.0
1141,70.0,100,120,1.0,64.0
1142,68.0,4,120,2.0,64.0
1143,71.0,9,120,1.0,64.0
1144,70.0,1,120,2.0,64.0
1145,73.0,82,90,1.0,64.0
1146,66.0,12,360,0.0,64.0
1147,71.0,17,90,4.0,64.0
1148,62.0,10,120,2.0,64.0
1149,66.0,48,120,1.0,64.0
1150,70.0,34,60,4.0,64.0
1151,61.0,23,90,2.0,64.0
1152,64.0,111,120,1.0,64.0
1153,71.0,4,120,4.0,64.0
1154,62.0,0,120,2.0,64.0
1155,66.0,109,120,1.0,64.0
1156,73.0,114,120,4.0,64.0
1157,74.0,41,120,4.0,64.0
1158,71.0,5,330,0.0,64.0
1159,59.0,7,90,3.0,64.0
1160,78.0,161,60,4.0,64.0
1161,76.0,29,90,4.0,64.0
1162,55.0,64,90,3.0,64.0
1163,74.0,128,60,4.0,64.0
1164,73.0,54,60,4.0,64.0
1165,79.0,46,300,0.0,64.0
1166,52.0,67,90,3.0,64.0
1167,71.0,137,90,4.0,64.0
1168,70.0,65,120,4.0,64.0
1169,54.0,64,480,3.0,64.0
1170,71.0,129,90,4.0,64.0
1171,73.0,13,90,0.0,64.0
1172,70.0,69,90,4.0,64.0
1173,66.0,14,150,2.0,64.0
1174,73.0,21,120,1.0,64.0
1175,71.0,54,90,4.0,64.0
1176,74.0,13,120,1.0,64.0
1177,73.0,1,90,4.0,64.0
1178,70.0,12,90,0.0,64.0
1179,64.0,11,90,2.0,64.0
1180,76.0,81,90,1.0,64.0
1181,66.0,163,90,4.0,64.0
1182,66.0,46,300,0.0,64.0
1183,71.0,10,90,4.0,64.0
1184,66.0,8,120,1.0,64.0
1185,62.0,69,120,2.0,64.0
1186,61.0,0,120,2.0,64.0
1187,70.0,32,90,4.0,64.0
1188,64.0,79,120,1.0,64.0
1189,66.0,11,120,1.0,64.0
1190,62.0,8,120,2.0,64.0
1191,71.0,85,120,4.0,64.0
1192,73.0,111,90,4.0,64.0
1193,74.0,47,120,4.0,64.0
1194,71.0,8,300,0.0,64.0
1195,59.0,13,90,3.0,64.0
1196,78.0,149,60,4.0,64.0
1197,76.0,8,90,4.0,64.0
1198,55.0,88,60,3.0,64.0
1199,74.0,131,60,4.0,64.0
1200,73.0,17,60,4.0,64.0
1201,79.0,21,90,0.0,64.0
1202,52.0,88,90,3.0,64.0
1203,71.0,415,90,4.0,64.0
1204,70.0,65,540,0.0,64.0
1205,78.0,17,450,4.0,64.0
1206,54.0,253,600,3.0,64.0
1207,66.0,8,120,2.0,64.0
1208,70.0,90,120,1.0,64.0
1209,68.0,10,120,2.0,64.0
1210,71.0,48,120,1.0,64.0
1211,70.0,2,120,2.0,64.0
1212,73.0,2,120,1.0,64.0
1213,66.0,98,120,2.0,64.0
1214,70.0,9,330,0.0,64.0
1215,78.0,3,90,1.0,64.0
1216,73.0,3,90,4.0,64.0
1217,68.0,23,150,2.0,64.0
1218,76.0,98,150,1.0,64.0
1219,71.0,10,90,4.0,64.0
1220,70.0,6,180,2.0,64.0
1221,78.0,88,150,1.0,64.0
1222,73.0,25,90,4.0,64.0
1223,74.0,87,120,4.0,64.0
1224,76.0,110,90,4.0,64.0
1225,61.0,11,90,3.0,64.0
1226,79.0,20,300,0.0,64.0
1227,79.0,107,90,4.0,64.0
1228,78.0,96,120,4.0,64.0
1229,58.0,17,60,3.0,64.0
1230,76.0,98,90,4.0,64.0
1231,74.0,79,120,4.0,64.0
1232,54.0,38,60,3.0,64.0
1233,78.0,44,300,0.0,64.0
1234,73.0,144,60,4.0,64.0
1235,74.0,96,120,4.0,64.0
1236,59.0,39,480,3.0,64.0
1237,73.0,88,120,4.0,64.0
1238,74.0,21,90,0.0,64.0
1239,71.0,25,90,4.0,64.0
1240,78.0,4,120,1.0,64.0
1241,62.0,88,120,2.0,64.0
1242,76.0,17,120,1.0,64.0
1243,64.0,27,120,2.0,64.0
1244,73.0,6,90,4.0,64.0
1245,74.0,6,60,1.0,64.0
1246,74.0,90,120,4.0,64.0
1247,71.0,29,90,0.0,64.0
1248,66.0,13,60,2.0,64.0
1249,76.0,119,90,4.0,64.0
1250,78.0,10,90,4.0,64.0
1251,71.0,0,90,1.0,64.0
1252,71.0,90,90,2.0,64.0
1253,74.0,77,270,0.0,64.0
1254,74.0,109,60,4.0,64.0
1255,76.0,19,120,4.0,64.0
1256,67.0,106,150,2.0,64.0
1257,83.0,32,240,1.0,64.0
1258,78.0,48,180,4.0,64.0
1259,79.0,169,120,4.0,64.0
1260,64.0,12,90,3.0,64.0
1261,83.0,117,330,0.0,64.0
1262,83.0,50,150,4.0,64.0
1263,81.0,19,90,4.0,64.0
1264,61.0,14,90,3.0,64.0
1265,79.0,92,120,4.0,64.0
1266,78.0,84,90,4.0,64.0
1267,81.0,51,330,0.0,64.0
1268,57.0,19,90,3.0,64.0
1269,76.0,141,60,4.0,64.0
1270,78.0,91,150,4.0,64.0
1271,62.0,61,480,3.0,64.0
1272,76.0,94,120,4.0,64.0
1273,78.0,7,90,0.0,64.0
1274,74.0,31,90,4.0,64.0
1275,66.0,65,120,2.0,64.0
1276,74.0,2,120,1.0,64.0
1277,67.0,21,120,2.0,64.0
1278,73.0,6,120,1.0,64.0
1279,76.0,35,60,4.0,64.0
1280,69.0,6,90,2.0,64.0
1281,78.0,121,90,4.0,64.0
1282,74.0,2,90,1.0,64.0
1283,74.0,2,60,0.0,64.0
1284,79.0,119,90,4.0,64.0
1285,81.0,9,90,4.0,64.0
1286,60.0,83,90,2.0,64.0
1287,78.0,6,330,0.0,64.0
1288,69.0,17,360,1.0,64.0
1289,78.0,140,90,4.0,64.0
1290,75.0,54,90,4.0,64.0
1291,59.0,56,150,2.0,64.0
1292,76.0,109,120,4.0,64.0
1293,78.0,16,120,4.0,64.0
1294,81.0,17,300,0.0,64.0
1295,47.0,105,90,3.0,64.0
1296,84.0,110,120,4.0,64.0
1297,83.0,2,120,4.0,64.0
1298,49.0,121,90,3.0,64.0
1299,81.0,105,120,4.0,64.0
1300,79.0,4,90,4.0,64.0
1301,71.0,19,90,0.0,64.0
1302,51.0,83,90,3.0,64.0
1303,78.0,146,90,4.0,64.0
1304,79.0,105,120,4.0,64.0
1305,76.0,27,90,0.0,64.0
1306,52.0,23,450,3.0,64.0
1307,78.0,106,120,4.0,64.0
1308,76.0,34,90,4.0,64.0
1309,79.0,35,300,0.0,64.0
1310,76.0,49,120,1.0,64.0
1311,73.0,42,150,2.0,64.0
1312,74.0,34,150,1.0,64.0
1313,79.0,13,90,4.0,64.0
1314,71.0,8,90,2.0,64.0
1315,78.0,8,90,4.0,64.0
1316,73.0,9,90,1.0,64.0
1317,70.0,98,90,2.0,64.0
1318,76.0,115,90,4.0,64.0
1319,74.0,30,90,4.0,64.0
1320,78.0,14,60,1.0,64.0
1321,70.0,60,120,0.0,64.0
1322,66.0,4,90,2.0,64.0
1323,73.0,155,90,4.0,64.0
1324,71.0,25,210,2.0,64.0
1325,74.0,73,150,4.0,64.0
1326,74.0,49,270,1.0,64.0
1327,71.0,48,90,0.0,64.0
1328,76.0,39,120,4.0,64.0
1329,78.0,96,90,4.0,64.0
1330,50.0,1,60,3.0,64.0
1331,83.0,59,270,0.0,64.0
1332,71.0,94,60,4.0,64.0
1333,74.0,94,120,4.0,64.0
1334,52.0,10,90,3.0,64.0
1335,73.0,94,90,4.0,64.0
1336,74.0,43,60,0.0,64.0
1337,71.0,67,120,4.0,64.0
1338,54.0,9,90,3.0,64.0
1339,73.0,2,60,0.0,64.0
1340,74.0,19,90,0.0,64.0
1341,70.0,39,90,4.0,64.0
1342,73.0,353,60,0.0,64.0
1343,71.0,11,510,4.0,64.0
1344,71.0,8,510,0.0,64.0
1345,47.0,38,480,3.0,64.0
1346,59.0,8,120,2.0,64.0
1347,62.0,83,120,1.0,64.0
1348,61.0,30,120,2.0,64.0
1349,64.0,27,120,1.0,64.0
1350,62.0,27,120,2.0,64.0
1351,66.0,244,120,1.0,64.0
1352,70.0,23,330,0.0,64.0
1353,73.0,23,90,4.0,64.0
1354,78.0,8,120,1.0,64.0
1355,66.0,52,120,2.0,64.0
1356,76.0,71,150,1.0,64.0
1357,68.0,20,120,2.0,64.0
1358,71.0,49,60,4.0,64.0
1359,70.0,27,150,2.0,64.0
1360,78.0,92,150,1.0,64.0
1361,73.0,15,90,4.0,64.0
1362,74.0,81,120,4.0,64.0
1363,76.0,106,120,4.0,64.0
1364,61.0,17,90,3.0,64.0
1365,79.0,96,330,0.0,64.0
1366,79.0,117,90,4.0,64.0
1367,78.0,17,90,4.0,64.0
1368,58.0,6,90,3.0,64.0
1369,76.0,119,120,4.0,64.0
1370,74.0,0,90,4.0,64.0
1371,54.0,105,90,3.0,64.0
1372,78.0,58,330,0.0,64.0
1373,73.0,144,90,4.0,64.0
1374,74.0,90,150,4.0,64.0
1375,59.0,29,510,3.0,64.0
1376,73.0,83,120,4.0,64.0
1377,78.0,4,120,1.0,64.0
1378,74.0,34,90,0.0,64.0
1379,71.0,4,120,4.0,64.0
1380,62.0,98,120,2.0,64.0
1381,76.0,20,120,1.0,64.0
1382,64.0,0,120,2.0,64.0
1383,73.0,36,120,4.0,64.0
1384,66.0,15,90,2.0,64.0
1385,74.0,25,90,1.0,64.0
1386,71.0,9,90,0.0,64.0
1387,74.0,121,90,4.0,64.0
1388,76.0,83,120,4.0,64.0
1389,71.0,13,90,2.0,64.0
1390,78.0,86,90,4.0,64.0
1391,71.0,8,90,1.0,64.0
1392,74.0,92,270,0.0,64.0
1393,74.0,108,60,4.0,64.0
1394,67.0,92,150,2.0,64.0
1395,76.0,8,150,4.0,64.0
1396,83.0,58,240,1.0,64.0
1397,78.0,23,120,4.0,64.0
1398,79.0,119,120,4.0,64.0
1399,83.0,4,330,0.0,64.0
1400,64.0,27,60,3.0,64.0
1401,83.0,90,120,4.0,64.0
1402,81.0,6,90,4.0,64.0
1403,61.0,118,90,3.0,64.0
1404,79.0,98,90,4.0,64.0
1405,78.0,95,90,4.0,64.0
1406,81.0,47,330,0.0,64.0
1407,57.0,8,60,3.0,64.0
1408,76.0,158,60,4.0,64.0
1409,78.0,71,150,4.0,64.0
1410,62.0,54,480,3.0,64.0
1411,76.0,122,90,4.0,64.0
1412,74.0,23,120,4.0,64.0
1413,78.0,16,90,0.0,64.0
1414,66.0,8,120,2.0,64.0
1415,74.0,59,120,1.0,64.0
1416,76.0,37,90,4.0,64.0
1417,67.0,7,120,2.0,64.0
1418,73.0,25,120,1.0,64.0
1419,78.0,96,120,4.0,64.0
1420,69.0,6,90,2.0,64.0
1421,74.0,0,60,0.0,64.0
1422,74.0,11,90,1.0,64.0
1423,79.0,131,90,4.0,64.0
1424,78.0,52,300,0.0,64.0
1425,81.0,9,90,4.0,64.0
1426,60.0,79,90,2.0,64.0
1427,69.0,52,390,1.0,64.0
1428,78.0,115,90,4.0,64.0
1429,75.0,65,120,4.0,64.0
1430,59.0,4,150,2.0,64.0
1431,76.0,98,120,4.0,64.0
1432,78.0,6,120,4.0,64.0
1433,47.0,136,90,3.0,64.0
1434,81.0,6,330,0.0,64.0
1435,84.0,102,120,4.0,64.0
1436,83.0,119,90,4.0,64.0
1437,49.0,0,90,3.0,64.0
1438,81.0,98,120,4.0,64.0
1439,79.0,13,90,4.0,64.0
1440,51.0,113,90,3.0,64.0
1441,71.0,0,60,0.0,64.0
1442,78.0,133,90,4.0,64.0
1443,52.0,35,510,3.0,64.0
1444,79.0,104,120,4.0,64.0
1445,76.0,40,90,0.0,64.0
1446,78.0,109,120,4.0,64.0
1447,76.0,31,90,4.0,64.0
1448,79.0,27,300,0.0,64.0
1449,76.0,52,120,1.0,64.0
1450,73.0,38,180,2.0,64.0
1451,74.0,21,150,1.0,64.0
1452,71.0,13,120,2.0,64.0
1453,79.0,14,90,4.0,64.0
1454,78.0,6,120,4.0,64.0
1455,73.0,103,120,1.0,64.0
1456,70.0,19,90,2.0,64.0
1457,76.0,96,90,4.0,64.0
1458,78.0,14,60,1.0,64.0
1459,66.0,30,90,2.0,64.0
1460,74.0,14,120,4.0,64.0
1461,70.0,86,120,0.0,64.0
1462,73.0,121,90,4.0,64.0
1463,71.0,75,180,2.0,64.0
1464,71.0,50,90,0.0,64.0
1465,74.0,35,270,1.0,64.0
1466,74.0,35,120,4.0,64.0
1467,76.0,38,120,4.0,64.0
1468,50.0,11,90,3.0,64.0
1469,83.0,38,300,0.0,64.0
1470,78.0,127,90,4.0,64.0
1471,71.0,60,120,4.0,64.0
1472,52.0,50,90,3.0,64.0
1473,74.0,78,120,4.0,64.0
1474,73.0,79,60,4.0,64.0
1475,74.0,18,60,0.0,64.0
1476,54.0,53,60,3.0,64.0
1477,71.0,45,120,4.0,64.0
1478,73.0,5,90,0.0,64.0
1479,74.0,27,90,0.0,64.0
1480,70.0,21,90,4.0,64.0
1481,73.0,373,60,0.0,64.0
1482,47.0,64,540,3.0,64.0
1483,71.0,46,480,0.0,64.0
1484,71.0,4,450,4.0,64.0
1485,62.0,100,120,1.0,64.0
1486,59.0,5,90,2.0,64.0
1487,64.0,0,120,1.0,64.0
1488,61.0,19,120,2.0,64.0
1489,66.0,183,150,1.0,64.0
1490,62.0,13,120,2.0,64.0
1491,66.0,18,60,0.0,64.0
1492,66.0,480,60,4.0,64.0
1493,71.0,23,510,0.0,64.0
1494,71.0,23,510,4.0,64.0
1495,62.0,0,90,2.0,64.0
1496,59.0,81,90,3.0,64.0
1497,66.0,5,60,1.0,64.0
1498,64.0,100,90,2.0,64.0
1499,61.0,4,60,3.0,64.0
1500,66.0,23,90,2.0,64.0
1501,62.0,94,120,3.0,64.0
1502,71.0,27,480,1.0,64.0
1503,73.0,15,90,0.0,64.0
1504,73.0,87,90,4.0,64.0
1505,74.0,1,90,0.0,64.0
1506,64.0,16,90,2.0,64.0
1507,61.0,79,90,3.0,64.0
1508,74.0,4,60,4.0,64.0
1509,76.0,3,90,0.0,64.0
1510,76.0,96,90,4.0,64.0
1511,62.0,6,90,2.0,64.0
1512,78.0,11,90,0.0,64.0
1513,78.0,12,60,4.0,64.0
1514,59.0,219,90,3.0,64.0
1515,64.0,0,90,2.0,64.0
1516,70.0,2,60,0.0,64.0
1517,70.0,17,60,4.0,64.0
1518,61.0,10,90,3.0,64.0
1519,79.0,221,90,1.0,64.0
1520,62.0,2,90,3.0,64.0
1521,78.0,0,90,1.0,64.0
1522,71.0,19,60,0.0,64.0
1523,66.0,218,600,2.0,64.0
1524,71.0,232,90,4.0,64.0
1525,61.0,237,90,3.0,64.0
1526,70.0,5,90,1.0,64.0
1527,76.0,6,90,0.0,64.0
1528,76.0,0,90,4.0,64.0
1529,59.0,10,90,3.0,64.0
1530,71.0,7,90,1.0,64.0
1531,74.0,8,90,0.0,64.0
1532,74.0,2,90,4.0,64.0
1533,61.0,0,90,3.0,64.0
1534,79.0,14,90,0.0,64.0
1535,64.0,2,90,1.0,64.0
1536,70.0,233,90,2.0,64.0
1537,79.0,9,90,4.0,64.0
1538,78.0,5,90,0.0,64.0
1539,62.0,2,90,3.0,64.0
1540,71.0,2,90,2.0,64.0
1541,62.0,190,90,1.0,64.0
1542,78.0,8,90,4.0,64.0
1543,82.0,17,90,0.0,64.0
1544,76.0,5,120,1.0,64.0
1545,82.0,12,60,4.0,64.0
1546,61.0,6,90,3.0,64.0
1547,73.0,237,90,2.0,64.0
1548,83.0,14,180,0.0,64.0
1549,59.0,14,120,3.0,64.0
1550,74.0,65,120,1.0,64.0
1551,66.0,3,90,2.0,64.0
1552,83.0,120,180,4.0,64.0
1553,81.0,7,90,0.0,64.0
1554,61.0,6,90,3.0,64.0
1555,81.0,11,90,4.0,64.0
1556,64.0,1,90,2.0,64.0
1557,76.0,64,90,1.0,64.0
1558,79.0,4,60,0.0,64.0
1559,79.0,153,60,4.0,64.0
1560,78.0,0,120,0.0,64.0
1561,78.0,0,90,4.0,64.0
1562,78.0,10,90,1.0,64.0
1563,62.0,15,90,2.0,64.0
1564,62.0,39,120,3.0,64.0
1565,79.0,146,60,0.0,64.0
1566,79.0,7,60,4.0,64.0
1567,76.0,8,90,0.0,64.0
1568,76.0,5,90,4.0,64.0
1569,70.0,4,90,1.0,64.0
1570,61.0,62,90,3.0,64.0
1571,64.0,4,90,2.0,64.0
1572,78.0,158,60,0.0,64.0
1573,78.0,7,60,4.0,64.0
1574,74.0,9,90,0.0,64.0
1575,59.0,56,120,3.0,64.0
1576,74.0,2,90,4.0,64.0
1577,71.0,6,120,1.0,64.0
1578,66.0,2,90,2.0,64.0
1579,76.0,7,60,0.0,64.0
1580,76.0,160,60,4.0,64.0
1581,73.0,6,120,0.0,64.0
1582,70.0,14,120,1.0,64.0
1583,73.0,1,90,4.0,64.0
1584,61.0,52,120,3.0,64.0
1585,64.0,0,60,2.0,64.0
1586,74.0,8,60,0.0,64.0
1587,74.0,161,60,4.0,64.0
1588,71.0,2,120,1.0,64.0
1589,71.0,9,120,0.0,64.0
1590,62.0,50,120,3.0,64.0
1591,71.0,6,90,4.0,64.0
1592,66.0,29,510,2.0,64.0
1593,73.0,15,60,0.0,64.0
1594,73.0,150,60,4.0,64.0
1595,69.0,4,90,0.0,64.0
1596,69.0,6,120,4.0,64.0
1597,73.0,15,90,1.0,64.0
1598,61.0,48,120,3.0,64.0
1599,71.0,15,60,0.0,64.0
1600,71.0,119,60,4.0,64.0
1601,67.0,10,90,0.0,64.0
1602,59.0,54,90,3.0,64.0
1603,67.0,3,90,4.0,64.0
1604,74.0,4,60,1.0,64.0
1605,67.0,146,60,2.0,64.0
1606,64.0,27,90,2.0,64.0
1607,61.0,62,120,3.0,64.0
1608,76.0,15,90,0.0,64.0
1609,76.0,4,90,4.0,64.0
1610,69.0,6,300,1.0,64.0
1611,66.0,165,60,2.0,64.0
1612,62.0,2,120,2.0,64.0
1613,62.0,92,120,3.0,64.0
1614,66.0,11,90,0.0,64.0
1615,66.0,0,90,4.0,64.0
1616,67.0,106,90,1.0,64.0
1617,66.0,7,60,1.0,64.0
1618,64.0,79,90,2.0,64.0
1619,61.0,4,90,3.0,64.0
1620,69.0,18,60,0.0,64.0
1621,69.0,3,60,4.0,64.0
1622,64.0,152,60,1.0,64.0
1623,66.0,11,90,2.0,64.0
1624,59.0,7,120,3.0,64.0
1625,74.0,12,90,0.0,64.0
1626,62.0,196,120,1.0,64.0
1627,74.0,16,90,4.0,64.0
1628,71.0,2,90,2.0,64.0
1629,55.0,4,90,3.0,64.0
1630,79.0,2,90,0.0,64.0
1631,74.0,11,90,1.0,64.0
1632,79.0,188,90,4.0,64.0
1633,79.0,25,60,0.0,64.0
1634,57.0,8,90,3.0,64.0
1635,69.0,4,90,2.0,64.0
1636,74.0,2,90,1.0,64.0
1637,79.0,13,60,4.0,64.0
1638,78.0,23,60,0.0,64.0
1639,78.0,36,60,4.0,64.0
1640,79.0,31,60,0.0,64.0
1641,79.0,35,60,4.0,64.0
1642,78.0,29,90,0.0,64.0
1643,78.0,53,90,4.0,64.0
1644,67.0,0,90,2.0,64.0
1645,76.0,10,90,0.0,64.0
1646,45.0,67,120,3.0,64.0
1647,76.0,4,90,4.0,64.0
1648,73.0,23,90,1.0,64.0
1649,74.0,4,60,0.0,64.0
1650,74.0,144,60,4.0,64.0
1651,66.0,13,510,2.0,64.0
1652,50.0,232,90,3.0,64.0
1653,74.0,8,480,0.0,64.0
1654,69.0,229,510,1.0,64.0
1655,74.0,2,480,4.0,64.0
1656,45.0,186,60,3.0,64.0
1657,38.0,42,240,3.0,64.0
1658,66.0,466,90,4.0,64.0
1659,66.0,6,90,0.0,64.0
1660,71.0,63,510,4.0,64.0
1661,71.0,2,510,0.0,64.0
1662,66.0,31,60,1.0,64.0
1663,62.0,84,90,2.0,64.0
1664,59.0,10,90,3.0,64.0
1665,64.0,79,90,2.0,64.0
1666,61.0,8,90,3.0,64.0
1667,62.0,92,120,3.0,64.0
1668,66.0,0,120,2.0,64.0
1669,71.0,50,480,1.0,64.0
1670,73.0,19,90,0.0,64.0
1671,73.0,79,90,4.0,64.0
1672,74.0,8,90,4.0,64.0
1673,64.0,78,90,2.0,64.0
1674,74.0,19,60,0.0,64.0
1675,61.0,8,90,3.0,64.0
1676,76.0,2,60,4.0,64.0
1677,76.0,85,60,0.0,64.0
1678,62.0,7,90,2.0,64.0
1679,78.0,4,90,0.0,64.0
1680,78.0,14,90,4.0,64.0
1681,59.0,217,90,3.0,64.0
1682,61.0,0,90,3.0,64.0
1683,64.0,2,90,2.0,64.0
1684,70.0,13,90,0.0,64.0
1685,79.0,6,90,1.0,64.0
1686,70.0,238,90,4.0,64.0
1687,62.0,4,120,3.0,64.0
1688,78.0,227,90,1.0,64.0
1689,71.0,9,90,0.0,64.0
1690,71.0,4,90,4.0,64.0
1691,66.0,31,540,2.0,64.0
1692,70.0,197,120,1.0,64.0
1693,61.0,1,90,3.0,64.0
1694,76.0,11,90,4.0,64.0
1695,76.0,9,90,0.0,64.0
1696,59.0,219,90,3.0,64.0
1697,71.0,2,90,1.0,64.0
1698,74.0,4,90,0.0,64.0
1699,74.0,6,90,4.0,64.0
1700,61.0,24,90,3.0,64.0
1701,70.0,17,120,2.0,64.0
1702,79.0,3,90,0.0,64.0
1703,64.0,209,120,1.0,64.0
1704,79.0,0,60,4.0,64.0
1705,62.0,2,90,3.0,64.0
1706,78.0,8,90,0.0,64.0
1707,71.0,2,90,2.0,64.0
1708,62.0,7,90,1.0,64.0
1709,78.0,208,90,4.0,64.0
1710,82.0,5,90,0.0,64.0
1711,61.0,5,90,3.0,64.0
1712,82.0,15,90,4.0,64.0
1713,76.0,239,90,1.0,64.0
1714,73.0,1,90,2.0,64.0
1715,83.0,130,210,0.0,64.0
1716,83.0,6,180,4.0,64.0
1717,59.0,1,90,3.0,64.0
1718,74.0,12,90,1.0,64.0
1719,66.0,71,120,2.0,64.0
1720,81.0,2,90,0.0,64.0
1721,81.0,8,90,4.0,64.0
1722,64.0,35,120,2.0,64.0
1723,76.0,4,90,1.0,64.0
1724,61.0,15,90,3.0,64.0
1725,79.0,13,60,4.0,64.0
1726,79.0,159,60,0.0,64.0
1727,78.0,8,120,4.0,64.0
1728,78.0,0,90,0.0,64.0
1729,78.0,21,90,1.0,64.0
1730,62.0,42,120,3.0,64.0
1731,62.0,2,60,2.0,64.0
1732,79.0,7,60,4.0,64.0
1733,79.0,143,60,0.0,64.0
1734,76.0,9,90,0.0,64.0
1735,76.0,7,90,4.0,64.0
1736,70.0,9,120,1.0,64.0
1737,64.0,17,90,2.0,64.0
1738,61.0,33,90,3.0,64.0
1739,78.0,6,60,0.0,64.0
1740,78.0,161,60,4.0,64.0
1741,74.0,6,90,0.0,64.0
1742,74.0,2,90,4.0,64.0
1743,71.0,23,90,1.0,64.0
1744,66.0,11,90,2.0,64.0
1745,59.0,43,90,3.0,64.0
1746,76.0,3,60,0.0,64.0
1747,76.0,150,60,4.0,64.0
1748,70.0,2,120,1.0,64.0
1749,73.0,0,90,0.0,64.0
1750,73.0,17,90,4.0,64.0
1751,64.0,12,90,2.0,64.0
1752,61.0,48,90,3.0,64.0
1753,74.0,163,60,0.0,64.0
1754,74.0,6,60,4.0,64.0
1755,71.0,25,90,1.0,64.0
1756,71.0,2,90,0.0,64.0
1757,71.0,2,90,4.0,64.0
1758,66.0,21,540,2.0,64.0
1759,62.0,48,90,3.0,64.0
1760,73.0,0,60,0.0,64.0
1761,73.0,165,60,4.0,64.0
1762,69.0,4,120,0.0,64.0
1763,69.0,41,120,4.0,64.0
1764,73.0,7,90,1.0,64.0
1765,61.0,10,90,3.0,64.0
1766,71.0,15,60,0.0,64.0
1767,71.0,142,60,4.0,64.0
1768,67.0,13,90,0.0,64.0
1769,74.0,2,90,1.0,64.0
1770,59.0,6,90,3.0,64.0
1771,67.0,88,90,4.0,64.0
1772,67.0,123,60,2.0,64.0
1773,64.0,17,90,2.0,64.0
1774,61.0,87,90,3.0,64.0
1775,76.0,0,90,0.0,64.0
1776,76.0,2,90,4.0,64.0
1777,69.0,13,330,1.0,64.0
1778,66.0,146,60,2.0,64.0
1779,62.0,0,120,3.0,64.0
1780,62.0,75,120,2.0,64.0
1781,66.0,19,90,4.0,64.0
1782,66.0,4,90,0.0,64.0
1783,67.0,111,90,1.0,64.0
1784,66.0,14,60,1.0,64.0
1785,64.0,75,90,2.0,64.0
1786,69.0,4,60,0.0,64.0
1787,61.0,14,90,3.0,64.0
1788,69.0,9,60,4.0,64.0
1789,64.0,142,90,1.0,64.0
1790,66.0,15,90,2.0,64.0
1791,59.0,6,120,3.0,64.0
1792,74.0,0,90,0.0,64.0
1793,74.0,13,90,4.0,64.0
1794,62.0,198,90,1.0,64.0
1795,71.0,2,90,2.0,64.0
1796,79.0,13,90,0.0,64.0
1797,55.0,173,90,3.0,64.0
1798,79.0,0,90,4.0,64.0
1799,74.0,8,60,1.0,64.0
1800,79.0,21,60,0.0,64.0
1801,79.0,36,60,4.0,64.0
1802,69.0,2,120,2.0,64.0
1803,57.0,1,90,3.0,64.0
1804,74.0,45,90,1.0,64.0
1805,78.0,13,60,0.0,64.0
1806,78.0,7,60,4.0,64.0
1807,79.0,13,60,0.0,64.0
1808,79.0,50,60,4.0,64.0
1809,78.0,13,90,0.0,64.0
1810,78.0,57,90,4.0,64.0
1811,76.0,13,90,0.0,64.0
1812,67.0,1,90,2.0,64.0
1813,76.0,22,90,4.0,64.0
1814,45.0,61,120,3.0,64.0
1815,73.0,23,90,1.0,64.0
1816,74.0,136,60,0.0,64.0
1817,74.0,0,60,4.0,64.0
1818,50.0,250,60,3.0,64.0
1819,74.0,13,480,0.0,64.0
1820,66.0,241,510,2.0,64.0
1821,74.0,0,480,4.0,64.0
1822,69.0,16,480,1.0,64.0
1823,45.0,173,90,3.0,64.0
1824,38.0,40,240,3.0,64.0
1825,69.0,21,90,4.0,64.0
1826,69.0,467,90,0.0,64.0
1827,74.0,44,510,4.0,64.0
1828,74.0,10,510,0.0,64.0
1829,50.0,1,90,3.0,64.0
1830,69.0,16,90,1.0,64.0
1831,66.0,86,90,2.0,64.0
1832,52.0,12,90,3.0,64.0
1833,67.0,84,90,2.0,64.0
1834,54.0,73,120,3.0,64.0
1835,69.0,17,120,2.0,64.0
1836,74.0,84,480,1.0,64.0
1837,76.0,8,90,4.0,64.0
1838,76.0,102,90,0.0,64.0
1839,78.0,9,90,4.0,64.0
1840,67.0,6,90,2.0,64.0
1841,78.0,19,90,0.0,64.0
1842,52.0,77,90,3.0,64.0
1843,79.0,4,60,4.0,64.0
1844,79.0,64,60,0.0,64.0
1845,66.0,7,120,2.0,64.0
1846,81.0,0,120,4.0,64.0
1847,81.0,48,120,0.0,64.0
1848,50.0,22,90,3.0,64.0
1849,71.0,13,60,1.0,64.0
1850,79.0,21,60,0.0,64.0
1851,79.0,88,90,4.0,64.0
1852,69.0,10,90,1.0,64.0
1853,78.0,22,90,0.0,64.0
1854,67.0,9,120,2.0,64.0
1855,78.0,5,90,4.0,64.0
1856,52.0,77,90,3.0,64.0
1857,67.0,6,90,1.0,64.0
1858,76.0,0,90,0.0,64.0
1859,76.0,152,60,4.0,64.0
1860,66.0,9,120,1.0,64.0
1861,69.0,2,120,2.0,64.0
1862,74.0,2,90,0.0,64.0
1863,54.0,2,90,3.0,64.0
1864,74.0,60,90,4.0,64.0
1865,67.0,34,90,1.0,64.0
1866,67.0,115,90,2.0,64.0
1867,69.0,214,390,1.0,64.0
1868,66.0,3,120,2.0,64.0
1869,52.0,18,90,3.0,64.0
1870,72.0,4,90,0.0,64.0
1871,72.0,106,90,4.0,64.0
1872,64.0,138,120,2.0,64.0
1873,66.0,16,90,2.0,64.0
1874,51.0,6,120,3.0,64.0
1875,71.0,1,90,4.0,64.0
1876,71.0,9,90,0.0,64.0
1877,52.0,3,120,3.0,64.0
1878,71.0,0,90,2.0,64.0
1879,67.0,237,120,1.0,64.0
1880,76.0,8,90,4.0,64.0
1881,76.0,2,90,0.0,64.0
1882,54.0,4,90,3.0,64.0
1883,75.0,0,90,0.0,64.0
1884,69.0,1,90,2.0,64.0
1885,66.0,188,120,1.0,64.0
1886,75.0,16,90,4.0,64.0
1887,81.0,15,90,4.0,64.0
1888,78.0,7,90,1.0,64.0
1889,71.0,2,360,2.0,64.0
1890,81.0,14,90,0.0,64.0
1891,51.0,187,90,3.0,64.0
1892,81.0,7,90,0.0,64.0
1893,81.0,33,60,4.0,64.0
1894,76.0,17,90,1.0,64.0
1895,52.0,40,120,3.0,64.0
1896,79.0,6,90,0.0,64.0
1897,79.0,2,60,4.0,64.0
1898,81.0,4,60,0.0,64.0
1899,81.0,71,60,4.0,64.0
1900,79.0,56,90,0.0,64.0
1901,79.0,11,90,4.0,64.0
1902,78.0,16,90,4.0,64.0
1903,75.0,6,90,1.0,64.0
1904,78.0,8,90,0.0,64.0
1905,69.0,22,90,2.0,64.0
1906,54.0,27,120,3.0,64.0
1907,79.0,8,40,4.0,64.0
1908,79.0,154,60,0.0,64.0
1909,76.0,30,90,4.0,64.0
1910,76.0,27,540,1.0,64.0
1911,76.0,2,120,0.0,64.0
1912,71.0,9,90,2.0,64.0
1913,55.0,48,90,3.0,64.0
1914,71.0,20,60,4.0,64.0
1915,71.0,23,90,0.0,64.0
1916,69.0,90,90,2.0,64.0
1917,76.0,11,90,4.0,64.0
1918,67.0,11,90,2.0,64.0
1919,76.0,20,60,0.0,64.0
1920,54.0,71,90,3.0,64.0
1921,78.0,4,90,4.0,64.0
1922,69.0,114,90,2.0,64.0
1923,78.0,13,60,0.0,64.0
1924,79.0,9,90,0.0,64.0
1925,79.0,6,120,4.0,64.0
1926,52.0,6,90,3.0,64.0
1927,71.0,63,90,2.0,64.0
1928,81.0,10,90,0.0,64.0
1929,81.0,128,90,4.0,64.0
1930,78.0,12,90,4.0,64.0
1931,54.0,6,90,3.0,64.0
1932,78.0,0,90,0.0,64.0
1933,62.0,66,90,2.0,64.0
1934,70.0,5,90,1.0,64.0
1935,79.0,3,60,4.0,64.0
1936,79.0,150,60,0.0,64.0
1937,59.0,4,90,2.0,64.0
1938,76.0,14,90,0.0,64.0
1939,76.0,13,90,4.0,64.0
1940,55.0,44,90,3.0,64.0
1941,71.0,32,540,1.0,64.0
1942,78.0,167,60,4.0,64.0
1943,78.0,8,60,0.0,64.0
1944,74.0,10,120,0.0,64.0
1945,66.0,9,90,2.0,64.0
1946,74.0,6,120,4.0,64.0
1947,54.0,54,120,3.0,64.0
1948,76.0,7,60,0.0,64.0
1949,76.0,133,60,4.0,64.0
1950,67.0,10,120,2.0,64.0
1951,52.0,4,90,3.0,64.0
1952,73.0,86,120,4.0,64.0
1953,73.0,2,90,0.0,64.0
1954,73.0,113,90,1.0,64.0
1955,74.0,3,90,1.0,64.0
1956,66.0,81,120,2.0,64.0
1957,54.0,12,90,3.0,64.0
1958,82.0,8,60,0.0,64.0
1959,82.0,12,90,4.0,64.0
1960,76.0,132,90,1.0,64.0
1961,59.0,3,120,2.0,64.0
1962,74.0,83,120,1.0,64.0
1963,55.0,2,120,3.0,64.0
1964,83.0,0,60,0.0,64.0
1965,83.0,35,60,4.0,64.0
1966,73.0,115,90,1.0,64.0
1967,71.0,13,120,1.0,64.0
1968,66.0,12,90,2.0,64.0
1969,54.0,58,90,3.0,64.0
1970,74.0,9,390,0.0,64.0
1971,74.0,12,390,4.0,64.0
1972,69.0,184,60,1.0,64.0
1973,67.0,4,120,1.0,64.0
1974,52.0,38,120,3.0,64.0
1975,71.0,8,90,2.0,64.0
1976,66.0,142,60,1.0,64.0
1977,64.0,6,90,1.0,64.0
1978,73.0,9,90,0.0,64.0
1979,54.0,71,120,3.0,64.0
1980,73.0,8,60,4.0,64.0
1981,70.0,14,90,2.0,64.0
1982,62.0,2,90,1.0,64.0
1983,74.0,5,60,4.0,64.0
1984,74.0,142,90,0.0,64.0
1985,61.0,22,90,1.0,64.0
1986,76.0,2,120,4.0,64.0
1987,76.0,60,120,0.0,64.0
1988,55.0,15,120,3.0,64.0
1989,71.0,7,90,2.0,64.0
1990,59.0,2,90,1.0,64.0
1991,74.0,115,90,0.0,64.0
1992,74.0,2,90,4.0,64.0
1993,67.0,8,90,1.0,64.0
1994,73.0,11,90,4.0,64.0
1995,73.0,0,90,0.0,64.0
1996,52.0,71,120,3.0,64.0
1997,64.0,23,90,2.0,64.0
1998,71.0,2,90,0.0,64.0
1999,71.0,148,90,4.0,64.0
2000,61.0,25,120,2.0,64.0
2001,70.0,4,90,4.0,64.0
2002,66.0,40,540,1.0,64.0
2003,70.0,4,90,0.0,64.0
2004,54.0,78,120,3.0,64.0
2005,71.0,88,120,0.0,64.0
2006,71.0,10,90,4.0,64.0
2007,73.0,43,60,0.0,64.0
2008,73.0,0,60,4.0,64.0
2009,58.0,59,120,2.0,64.0
2010,52.0,0,120,3.0,64.0
2011,70.0,124,60,0.0,64.0
2012,70.0,3,60,4.0,64.0
2013,66.0,16,120,0.0,64.0
2014,50.0,9,120,3.0,64.0
2015,59.0,0,120,2.0,64.0
2016,66.0,69,120,4.0,64.0
2017,68.0,18,90,0.0,64.0
2018,68.0,94,90,4.0,64.0
2019,70.0,8,90,0.0,64.0
2020,49.0,12,90,3.0,64.0
2021,70.0,3,60,4.0,64.0
2022,64.0,27,90,1.0,64.0
2023,61.0,36,90,2.0,64.0
2024,66.0,27,60,0.0,64.0
2025,66.0,157,60,4.0,64.0
2026,71.0,46,540,0.0,64.0
2027,62.0,43,90,1.0,64.0
2028,71.0,11,510,4.0,64.0
2029,54.0,0,120,2.0,64.0
2030,47.0,176,120,3.0,64.0
2031,59.0,10,90,3.0,64.0
2032,66.0,4,90,1.0,64.0
2033,62.0,88,90,2.0,64.0
2034,61.0,11,60,3.0,64.0
2035,64.0,84,90,2.0,64.0
2036,62.0,96,120,3.0,64.0
2037,66.0,32,510,2.0,64.0
2038,71.0,5,510,1.0,64.0
2039,66.0,11,90,4.0,64.0
2040,66.0,96,90,0.0,64.0
2041,64.0,17,90,4.0,64.0
2042,64.0,6,90,0.0,64.0
2043,61.0,85,90,3.0,64.0
2044,66.0,11,90,4.0,64.0
2045,66.0,92,90,0.0,64.0
2046,59.0,121,90,3.0,64.0
2047,74.0,17,510,4.0,64.0
2048,74.0,38,510,0.0,64.0
2049,66.0,11,90,1.0,64.0
2050,62.0,94,90,2.0,64.0
2051,64.0,15,90,1.0,64.0
2052,61.0,106,90,3.0,64.0
2053,61.0,10,90,2.0,64.0
2054,66.0,8,90,1.0,64.0
2055,59.0,75,90,2.0,64.0
2056,62.0,37,120,3.0,64.0
2057,71.0,57,540,1.0,64.0
2058,66.0,75,120,2.0,64.0
2059,71.0,23,90,4.0,64.0
2060,71.0,73,90,0.0,64.0
2061,70.0,11,60,4.0,64.0
2062,70.0,50,60,0.0,64.0
2063,64.0,0,120,2.0,64.0
2064,61.0,52,120,3.0,64.0
2065,71.0,29,90,4.0,64.0
2066,71.0,96,90,0.0,64.0
2067,62.0,6,120,2.0,64.0
2068,77.0,29,510,4.0,64.0
2069,59.0,98,120,3.0,64.0
2070,77.0,34,540,0.0,64.0
2071,61.0,27,120,2.0,64.0
2072,69.0,65,120,1.0,64.0
2073,59.0,15,90,2.0,64.0
2074,68.0,31,90,1.0,64.0
2075,61.0,67,90,3.0,64.0
2076,57.0,20,90,2.0,64.0
2077,69.0,82,90,1.0,64.0
2078,62.0,0,120,3.0,64.0
2079,71.0,48,540,1.0,64.0
2080,56.0,123,90,2.0,64.0
2081,71.0,65,120,4.0,64.0
2082,71.0,16,90,0.0,64.0
2083,61.0,75,120,3.0,64.0
2084,70.0,52,60,0.0,64.0
2085,70.0,2,60,4.0,64.0
2086,65.0,92,360,2.0,64.0
2087,71.0,9,90,4.0,64.0
2088,71.0,108,90,0.0,64.0
2089,59.0,11,120,3.0,64.0
2090,80.0,3,510,4.0,64.0
2091,80.0,87,480,0.0,64.0
2092,69.0,2,120,1.0,64.0
2093,66.0,123,90,2.0,64.0
2094,68.0,10,120,1.0,64.0
2095,61.0,88,120,3.0,64.0
2096,65.0,2,90,2.0,64.0
2097,69.0,26,120,1.0,64.0
2098,66.0,42,90,2.0,64.0
2099,65.0,6,120,2.0,64.0
2100,62.0,3,120,3.0,64.0
2101,71.0,75,120,1.0,64.0
2102,82.0,0,90,0.0,64.0
2103,82.0,111,90,4.0,64.0
2104,83.0,35,90,4.0,64.0
2105,83.0,2,90,0.0,64.0
2106,59.0,58,120,3.0,64.0
2107,74.0,2,120,1.0,64.0
2108,66.0,7,90,2.0,64.0
2109,80.0,8,60,4.0,64.0
2110,80.0,140,60,0.0,64.0
2111,82.0,4,90,4.0,64.0
2112,61.0,60,120,3.0,64.0
2113,64.0,15,120,2.0,64.0
2114,82.0,8,90,0.0,64.0
2115,73.0,11,90,1.0,64.0
2116,78.0,11,90,4.0,64.0
2117,78.0,148,60,0.0,64.0
2118,71.0,3,330,1.0,64.0
2119,62.0,2,120,3.0,64.0
2120,83.0,69,120,4.0,64.0
2121,66.0,15,90,2.0,64.0
2122,83.0,4,120,0.0,64.0
2123,81.0,0,90,4.0,64.0
2124,81.0,110,60,0.0,64.0
2125,64.0,54,120,3.0,64.0
2126,79.0,6,60,4.0,64.0
2127,67.0,59,510,2.0,64.0
2128,79.0,48,60,0.0,64.0
2129,78.0,56,90,4.0,64.0
2130,78.0,6,60,0.0,64.0
2131,74.0,93,90,1.0,64.0
2132,76.0,4,270,4.0,64.0
2133,62.0,91,120,3.0,64.0
2134,73.0,10,90,1.0,64.0
2135,76.0,21,240,0.0,64.0
2136,71.0,61,90,1.0,64.0
2137,70.0,36,90,1.0,64.0
2138,61.0,72,120,3.0,64.0
2139,66.0,67,120,2.0,64.0
2140,74.0,10,90,4.0,64.0
2141,74.0,19,90,0.0,64.0
2142,64.0,34,90,2.0,64.0
2143,73.0,17,60,0.0,64.0
2144,79.0,29,360,1.0,64.0
2145,73.0,5,90,4.0,64.0
2146,62.0,44,120,3.0,64.0
2147,66.0,142,90,2.0,64.0
2148,71.0,13,60,0.0,64.0
2149,71.0,6,60,4.0,64.0
2150,70.0,4,90,2.0,64.0
2151,73.0,10,90,0.0,64.0
2152,64.0,9,90,3.0,64.0
2153,73.0,50,120,4.0,64.0
2154,71.0,23,90,2.0,64.0
2155,74.0,17,90,0.0,64.0
2156,74.0,81,120,4.0,64.0
2157,76.0,38,90,0.0,64.0
2158,78.0,14,330,1.0,64.0
2159,73.0,33,150,2.0,64.0
2160,76.0,2,60,4.0,64.0
2161,49.0,31,90,3.0,64.0
2162,70.0,138,90,0.0,64.0
2163,70.0,13,60,4.0,64.0
2164,66.0,9,120,2.0,64.0
2165,50.0,10,120,3.0,64.0
2166,71.0,9,120,0.0,64.0
2167,71.0,214,120,4.0,64.0
2168,67.0,4,120,2.0,64.0
2169,52.0,8,120,3.0,64.0
2170,71.0,3,90,1.0,64.0
2171,79.0,59,120,4.0,64.0
2172,79.0,8,90,0.0,64.0
2173,78.0,0,60,4.0,64.0
2174,78.0,163,60,0.0,64.0
2175,54.0,13,120,3.0,64.0
2176,66.0,12,120,2.0,64.0
2177,71.0,2,120,1.0,64.0
2178,76.0,0,120,0.0,64.0
2179,76.0,44,120,4.0,64.0
2180,74.0,0,60,0.0,64.0
2181,74.0,166,60,4.0,64.0
2182,64.0,3,120,2.0,64.0
2183,42.0,4,120,3.0,64.0
2184,70.0,50,120,1.0,64.0
2185,73.0,6,120,4.0,64.0
2186,73.0,4,120,0.0,64.0
2187,71.0,15,60,4.0,64.0
2188,71.0,159,60,0.0,64.0
2189,47.0,233,120,3.0,64.0
2190,71.0,4,540,4.0,64.0
2191,66.0,8,540,1.0,64.0
2192,62.0,17,510,2.0,64.0
2193,71.0,215,540,0.0,64.0
2194,54.0,180,90,3.0,64.0
2195,59.0,58,270,3.0,64.0
2196,69.0,17,90,4.0,64.0
2197,69.0,457,90,0.0,64.0
2198,74.0,15,540,0.0,64.0
2199,74.0,29,540,4.0,64.0
2200,69.0,33,90,1.0,64.0
2201,50.0,3,120,3.0,64.0
2202,66.0,83,90,2.0,64.0
2203,67.0,96,90,2.0,64.0
2204,52.0,2,90,3.0,64.0
2205,69.0,19,120,2.0,64.0
2206,54.0,75,120,3.0,64.0
2207,74.0,29,540,1.0,64.0
2208,76.0,14,60,0.0,64.0
2209,76.0,96,90,4.0,64.0
2210,78.0,9,60,0.0,64.0
2211,52.0,6,90,3.0,64.0
2212,78.0,15,90,4.0,64.0
2213,67.0,79,90,2.0,64.0
2214,79.0,8,90,0.0,64.0
2215,79.0,132,60,4.0,64.0
2216,81.0,11,120,0.0,64.0
2217,66.0,4,120,2.0,64.0
2218,50.0,2,120,3.0,64.0
2219,81.0,60,120,4.0,64.0
2220,79.0,17,90,0.0,64.0
2221,79.0,21,90,4.0,64.0
2222,71.0,77,90,1.0,64.0
2223,78.0,25,90,0.0,64.0
2224,52.0,2,90,3.0,64.0
2225,67.0,0,90,2.0,64.0
2226,78.0,82,90,4.0,64.0
2227,69.0,2,90,1.0,64.0
2228,76.0,18,90,0.0,64.0
2229,76.0,21,90,4.0,64.0
2230,67.0,107,90,1.0,64.0
2231,66.0,11,120,1.0,64.0
2232,74.0,12,90,0.0,64.0
2233,54.0,10,120,3.0,64.0
2234,74.0,13,120,4.0,64.0
2235,69.0,41,120,2.0,64.0
2236,67.0,51,90,1.0,64.0
2237,67.0,104,90,2.0,64.0
2238,69.0,165,420,1.0,64.0
2239,72.0,8,90,0.0,64.0
2240,72.0,6,90,4.0,64.0
2241,66.0,7,90,2.0,64.0
2242,52.0,98,90,3.0,64.0
2243,64.0,136,90,2.0,64.0
2244,66.0,19,120,2.0,64.0
2245,51.0,41,120,3.0,64.0
2246,71.0,10,90,0.0,64.0
2247,71.0,2,90,4.0,64.0
2248,67.0,14,120,1.0,64.0
2249,71.0,0,120,2.0,64.0
2250,76.0,9,90,0.0,64.0
2251,52.0,222,90,3.0,64.0
2252,76.0,2,90,4.0,64.0
2253,66.0,2,90,1.0,64.0
2254,69.0,2,90,2.0,64.0
2255,75.0,14,90,4.0,64.0
2256,54.0,204,120,3.0,64.0
2257,75.0,11,90,0.0,64.0
2258,81.0,3,90,0.0,64.0
2259,78.0,7,90,1.0,64.0
2260,81.0,24,90,4.0,64.0
2261,51.0,163,90,3.0,64.0
2262,71.0,13,390,2.0,64.0
2263,78.0,20,60,1.0,64.0
2264,81.0,13,60,0.0,64.0
2265,81.0,31,60,4.0,64.0
2266,52.0,6,120,3.0,64.0
2267,76.0,23,60,1.0,64.0
2268,79.0,5,90,0.0,64.0
2269,79.0,17,90,4.0,64.0
2270,78.0,12,60,1.0,64.0
2271,81.0,2,60,0.0,64.0
2272,81.0,43,60,4.0,64.0
2273,76.0,23,90,1.0,64.0
2274,79.0,7,90,0.0,64.0
2275,79.0,45,90,4.0,64.0
2276,75.0,11,90,1.0,64.0
2277,78.0,8,90,0.0,64.0
2278,78.0,19,90,4.0,64.0
2279,69.0,29,90,2.0,64.0
2280,54.0,29,120,3.0,64.0
2281,79.0,161,60,4.0,64.0
2282,79.0,0,60,0.0,64.0
2283,76.0,25,570,1.0,64.0
2284,76.0,8,120,0.0,64.0
2285,76.0,42,90,4.0,64.0
2286,71.0,6,120,2.0,64.0
2287,55.0,46,120,3.0,64.0
2288,71.0,8,90,0.0,64.0
2289,71.0,9,60,4.0,64.0
2290,69.0,96,90,2.0,64.0
2291,67.0,7,60,2.0,64.0
2292,76.0,8,60,0.0,64.0
2293,76.0,50,60,4.0,64.0
2294,54.0,56,120,3.0,64.0
2295,69.0,126,90,2.0,64.0
2296,78.0,8,60,0.0,64.0
2297,78.0,0,60,4.0,64.0
2298,52.0,16,120,3.0,64.0
2299,71.0,0,120,2.0,64.0
2300,79.0,63,120,0.0,64.0
2301,79.0,0,120,4.0,64.0
2302,81.0,10,60,0.0,64.0
2303,81.0,124,60,4.0,64.0
2304,62.0,23,120,2.0,64.0
2305,70.0,2,90,1.0,64.0
2306,78.0,18,90,0.0,64.0
2307,78.0,0,90,4.0,64.0
2308,54.0,42,120,3.0,64.0
2309,79.0,8,60,0.0,64.0
2310,79.0,157,60,4.0,64.0
2311,71.0,21,570,1.0,64.0
2312,59.0,5,90,2.0,64.0
2313,76.0,23,90,0.0,64.0
2314,76.0,8,90,4.0,64.0
2315,55.0,43,120,3.0,64.0
2316,78.0,7,60,0.0,64.0
2317,78.0,160,60,4.0,64.0
2318,66.0,11,120,2.0,64.0
2319,74.0,59,120,0.0,64.0
2320,74.0,8,120,4.0,64.0
2321,54.0,2,90,3.0,64.0
2322,76.0,146,60,0.0,64.0
2323,76.0,2,60,4.0,64.0
2324,67.0,16,120,2.0,64.0
2325,73.0,4,90,4.0,64.0
2326,52.0,75,120,3.0,64.0
2327,73.0,0,120,0.0,64.0
2328,73.0,124,90,1.0,64.0
2329,74.0,14,90,1.0,64.0
2330,66.0,12,120,2.0,64.0
2331,54.0,67,120,3.0,64.0
2332,82.0,2,90,4.0,64.0
2333,82.0,11,90,0.0,64.0
2334,76.0,144,90,1.0,64.0
2335,74.0,0,120,1.0,64.0
2336,55.0,73,120,3.0,64.0
2337,59.0,6,120,2.0,64.0
2338,83.0,0,60,0.0,64.0
2339,83.0,27,60,4.0,64.0
2340,73.0,130,90,1.0,64.0
2341,71.0,25,120,1.0,64.0
2342,66.0,6,90,2.0,64.0
2343,54.0,52,120,3.0,64.0
2344,74.0,0,360,0.0,64.0
2345,74.0,58,360,4.0,64.0
2346,69.0,170,60,1.0,64.0
2347,67.0,8,120,1.0,64.0
2348,52.0,9,120,3.0,64.0
2349,71.0,14,90,2.0,64.0
2350,66.0,127,90,1.0,64.0
2351,64.0,2,90,1.0,64.0
2352,73.0,1,60,0.0,64.0
2353,54.0,53,120,3.0,64.0
2354,73.0,18,60,4.0,64.0
2355,70.0,32,90,2.0,64.0
2356,62.0,0,90,1.0,64.0
2357,74.0,1,60,0.0,64.0
2358,74.0,146,60,4.0,64.0
2359,61.0,26,90,1.0,64.0
2360,55.0,6,120,3.0,64.0
2361,76.0,67,120,0.0,64.0
2362,76.0,7,120,4.0,64.0
2363,71.0,7,90,2.0,64.0
2364,59.0,2,90,1.0,64.0
2365,74.0,117,90,0.0,64.0
2366,74.0,2,60,4.0,64.0
2367,52.0,23,120,3.0,64.0
2368,73.0,6,90,0.0,64.0
2369,67.0,11,90,1.0,64.0
2370,73.0,22,90,4.0,64.0
2371,64.0,38,90,2.0,64.0
2372,71.0,4,90,0.0,64.0
2373,71.0,157,60,4.0,64.0
2374,70.0,12,120,0.0,64.0
2375,54.0,84,120,3.0,64.0
2376,66.0,33,540,1.0,64.0
2377,70.0,2,120,4.0,64.0
2378,61.0,2,120,2.0,64.0
2379,71.0,17,90,0.0,64.0
2380,71.0,77,120,4.0,64.0
2381,73.0,4,60,0.0,64.0
2382,52.0,2,120,3.0,64.0
2383,73.0,52,60,4.0,64.0
2384,58.0,57,120,2.0,64.0
2385,70.0,130,60,0.0,64.0
2386,70.0,16,60,4.0,64.0
2387,66.0,5,120,4.0,64.0
2388,66.0,6,120,0.0,64.0
2389,59.0,8,120,2.0,64.0
2390,50.0,77,120,3.0,64.0
2391,68.0,4,90,4.0,64.0
2392,68.0,88,90,0.0,64.0
2393,64.0,31,90,1.0,64.0
2394,70.0,15,90,0.0,64.0
2395,70.0,10,60,4.0,64.0
2396,49.0,40,120,3.0,64.0
2397,61.0,0,90,2.0,64.0
2398,66.0,27,60,0.0,64.0
2399,66.0,142,60,4.0,64.0
2400,62.0,46,90,1.0,64.0
2401,71.0,75,510,0.0,64.0
2402,47.0,179,150,3.0,64.0
2403,54.0,21,120,2.0,64.0
2404,71.0,2,510,4.0,64.0
2405,59.0,15,90,3.0,64.0
2406,66.0,2,90,1.0,64.0
2407,62.0,77,90,2.0,64.0
2408,61.0,23,90,3.0,64.0
2409,64.0,77,90,2.0,64.0
2410,62.0,71,120,3.0,64.0
2411,71.0,51,510,1.0,64.0
2412,66.0,32,480,2.0,64.0
2413,66.0,77,120,0.0,64.0
2414,66.0,17,90,4.0,64.0
2415,64.0,27,90,4.0,64.0
2416,64.0,34,90,0.0,64.0
2417,61.0,44,90,3.0,64.0
2418,66.0,12,60,4.0,64.0
2419,66.0,94,60,0.0,64.0
2420,74.0,52,540,4.0,64.0
2421,59.0,95,120,3.0,64.0
2422,74.0,46,480,0.0,64.0
2423,62.0,20,90,2.0,64.0
2424,66.0,75,120,1.0,64.0
2425,61.0,5,90,2.0,64.0
2426,64.0,41,90,1.0,64.0
2427,61.0,80,90,3.0,64.0
2428,59.0,57,90,2.0,64.0
2429,66.0,10,90,1.0,64.0
2430,66.0,6,120,2.0,64.0
2431,71.0,36,540,1.0,64.0
2432,62.0,106,120,3.0,64.0
2433,71.0,64,120,0.0,64.0
2434,71.0,5,90,4.0,64.0
2435,70.0,22,60,0.0,64.0
2436,61.0,11,120,3.0,64.0
2437,70.0,30,90,4.0,64.0
2438,64.0,55,120,2.0,64.0
2439,71.0,3,60,0.0,64.0
2440,71.0,125,60,4.0,64.0
2441,59.0,8,120,3.0,64.0
2442,77.0,36,510,0.0,64.0
2443,77.0,36,540,4.0,64.0
2444,62.0,111,90,2.0,64.0
2445,69.0,3,120,1.0,64.0
2446,61.0,87,120,2.0,64.0
2447,68.0,44,90,1.0,64.0
2448,59.0,59,150,2.0,64.0
2449,61.0,13,120,3.0,64.0
2450,57.0,8,90,2.0,64.0
2451,69.0,75,90,1.0,64.0
2452,62.0,127,120,3.0,64.0
2453,71.0,59,510,1.0,64.0
2454,56.0,19,90,2.0,64.0
2455,71.0,8,120,0.0,64.0
2456,71.0,59,120,4.0,64.0
2457,70.0,4,90,0.0,64.0
2458,70.0,56,90,4.0,64.0
2459,65.0,30,330,2.0,64.0
2460,61.0,65,120,3.0,64.0
2461,71.0,0,90,0.0,64.0
2462,71.0,81,60,4.0,64.0
2463,80.0,46,540,4.0,64.0
2464,59.0,72,120,3.0,64.0
2465,80.0,14,510,0.0,64.0
2466,69.0,14,90,1.0,64.0
2467,66.0,93,90,2.0,64.0
2468,68.0,6,90,1.0,64.0
2469,65.0,67,60,2.0,64.0
2470,61.0,48,120,3.0,64.0
2471,69.0,92,90,1.0,64.0
2472,66.0,10,90,2.0,64.0
2473,65.0,13,120,2.0,64.0
2474,71.0,6,120,1.0,64.0
2475,62.0,77,120,3.0,64.0
2476,82.0,30,90,4.0,64.0
2477,82.0,87,90,0.0,64.0
2478,83.0,17,90,4.0,64.0
2479,59.0,56,120,3.0,64.0
2480,74.0,16,90,1.0,64.0
2481,66.0,5,90,2.0,64.0
2482,83.0,8,90,0.0,64.0
2483,80.0,13,60,4.0,64.0
2484,80.0,142,60,0.0,64.0
2485,82.0,5,90,4.0,64.0
2486,64.0,6,90,2.0,64.0
2487,73.0,8,90,1.0,64.0
2488,61.0,61,120,3.0,64.0
2489,82.0,33,90,0.0,64.0
2490,78.0,152,90,4.0,64.0
2491,78.0,2,90,0.0,64.0
2492,66.0,13,120,2.0,64.0
2493,83.0,61,120,4.0,64.0
2494,62.0,2,120,3.0,64.0
2495,71.0,7,300,1.0,64.0
2496,83.0,6,90,0.0,64.0
2497,81.0,112,60,4.0,64.0
2498,81.0,2,60,0.0,64.0
2499,67.0,59,510,2.0,64.0
2500,79.0,43,60,4.0,64.0
2501,79.0,6,60,0.0,64.0
2502,64.0,65,120,3.0,64.0
2503,78.0,5,60,0.0,64.0
2504,78.0,36,60,4.0,64.0
2505,74.0,97,90,1.0,64.0
2506,76.0,22,240,0.0,64.0
2507,73.0,33,90,1.0,64.0
2508,76.0,4,270,4.0,64.0
2509,62.0,80,120,3.0,64.0
2510,71.0,57,90,1.0,64.0
2511,61.0,57,150,3.0,64.0
2512,70.0,60,90,1.0,64.0
2513,66.0,8,90,2.0,64.0
2514,74.0,98,90,4.0,64.0
2515,74.0,4,90,0.0,64.0
2516,64.0,23,90,2.0,64.0
2517,79.0,4,360,1.0,64.0
2518,73.0,0,90,4.0,64.0
2519,62.0,55,120,3.0,64.0
2520,73.0,4,90,0.0,64.0
2521,71.0,20,60,4.0,64.0
2522,66.0,152,90,2.0,64.0
2523,71.0,3,60,0.0,64.0
2524,73.0,2,120,4.0,64.0
2525,70.0,12,90,2.0,64.0
2526,73.0,0,120,0.0,64.0
2527,64.0,80,120,3.0,64.0
2528,74.0,14,90,4.0,64.0
2529,74.0,0,90,0.0,64.0
2530,71.0,92,90,2.0,64.0
2531,76.0,7,90,4.0,64.0
2532,76.0,41,90,0.0,64.0
2533,78.0,25,300,1.0,64.0
2534,73.0,59,120,2.0,64.0
2535,49.0,2,90,3.0,64.0
2536,70.0,0,60,0.0,64.0
2537,70.0,131,60,4.0,64.0
2538,66.0,9,90,2.0,64.0
2539,71.0,6,120,0.0,64.0
2540,71.0,13,120,4.0,64.0
2541,50.0,204,120,3.0,64.0
2542,67.0,4,90,2.0,64.0
2543,52.0,4,120,3.0,64.0
2544,71.0,25,90,1.0,64.0
2545,79.0,49,120,0.0,64.0
2546,79.0,2,90,4.0,64.0
2547,78.0,10,60,0.0,64.0
2548,78.0,155,60,4.0,64.0
2549,66.0,7,90,2.0,64.0
2550,54.0,2,120,3.0,64.0
2551,76.0,46,120,0.0,64.0
2552,76.0,10,120,4.0,64.0
2553,71.0,7,90,1.0,64.0
2554,74.0,136,60,0.0,64.0
2555,74.0,2,60,4.0,64.0
2556,70.0,21,60,1.0,64.0
2557,64.0,8,90,2.0,64.0
2558,73.0,6,90,0.0,64.0
2559,73.0,3,90,4.0,64.0
2560,42.0,66,90,3.0,64.0
2561,71.0,158,90,0.0,64.0
2562,71.0,5,60,4.0,64.0
2563,47.0,255,90,3.0,64.0
2564,66.0,208,540,1.0,64.0
2565,71.0,0,510,0.0,64.0
2566,71.0,16,510,4.0,64.0
2567,62.0,13,510,2.0,64.0
2568,54.0,159,90,3.0,64.0
2569,59.0,0,240,3.0,64.0
