,note,step,duration,channel,velocity
0,78.0,0,189,1.0,76.0
1,78.0,0,189,0.0,76.0
2,76.0,0,39,1.0,76.0
3,76.0,200,39,0.0,76.0
4,74.0,0,349,1.0,76.0
5,74.0,40,349,0.0,76.0
6,76.0,360,109,1.0,76.0
7,76.0,0,109,0.0,76.0
8,59.0,0,224,4.0,76.0
9,78.0,0,229,0.0,76.0
10,78.0,0,229,1.0,76.0
11,59.0,0,239,5.0,76.0
12,71.0,0,239,5.0,76.0
13,74.0,120,239,5.0,76.0
14,78.0,0,239,5.0,76.0
15,71.0,0,349,2.0,76.0
16,62.0,0,349,3.0,76.0
17,69.0,120,71,2.0,76.0
18,61.0,0,109,3.0,76.0
19,71.0,0,229,0.0,76.0
20,71.0,0,229,1.0,76.0
21,71.0,0,239,5.0,76.0
22,78.0,240,239,5.0,76.0
23,74.0,0,239,5.0,76.0
24,67.0,0,239,5.0,76.0
25,69.0,80,39,2.0,76.0
26,55.0,0,344,4.0,76.0
27,55.0,0,359,5.0,76.0
28,67.0,0,119,5.0,76.0
29,71.0,0,119,5.0,76.0
30,76.0,0,119,5.0,76.0
31,57.0,0,104,4.0,76.0
32,76.0,0,229,1.0,76.0
33,67.0,0,229,2.0,76.0
34,76.0,40,229,0.0,76.0
35,69.0,0,119,5.0,76.0
36,73.0,0,119,5.0,76.0
37,57.0,0,119,5.0,76.0
38,76.0,120,119,5.0,76.0
39,66.0,0,109,2.0,76.0
40,59.0,0,224,4.0,76.0
41,69.0,120,109,2.0,76.0
42,74.0,0,239,5.0,76.0
43,71.0,0,239,5.0,76.0
44,78.0,0,239,5.0,76.0
45,59.0,120,239,5.0,76.0
46,67.0,0,109,2.0,76.0
47,66.0,120,71,2.0,76.0
48,52.0,0,224,4.0,76.0
49,74.0,0,469,0.0,76.0
50,59.0,0,709,3.0,76.0
51,74.0,0,469,1.0,76.0
52,67.0,0,239,5.0,76.0
53,64.0,0,239,5.0,76.0
54,66.0,80,39,2.0,76.0
55,52.0,120,239,5.0,76.0
56,74.0,0,239,5.0,76.0
57,71.0,0,239,5.0,76.0
58,61.0,0,109,3.0,76.0
59,73.0,0,119,1.0,76.0
60,73.0,0,119,0.0,76.0
61,57.0,0,224,4.0,76.0
62,62.0,120,109,3.0,76.0
63,71.0,0,109,1.0,76.0
64,71.0,0,119,0.0,76.0
65,76.0,0,239,5.0,76.0
66,73.0,0,239,5.0,76.0
67,57.0,0,239,5.0,76.0
68,69.0,40,239,5.0,76.0
69,64.0,0,349,2.0,76.0
70,70.0,120,119,1.0,76.0
71,70.0,0,119,0.0,76.0
72,71.0,120,109,0.0,76.0
73,71.0,0,109,1.0,76.0
74,62.0,0,109,2.0,76.0
75,67.0,0,239,5.0,76.0
76,71.0,0,239,5.0,76.0
77,76.0,0,239,5.0,76.0
78,70.0,0,14,0.0,76.0
79,71.0,15,14,0.0,76.0
80,70.0,15,14,0.0,76.0
81,71.0,15,14,0.0,76.0
82,70.0,15,14,0.0,76.0
83,71.0,15,14,0.0,76.0
84,67.0,15,14,0.0,76.0
85,70.0,0,119,1.0,76.0
86,70.0,15,14,0.0,76.0
87,71.0,15,71,0.0,76.0
88,55.0,0,464,4.0,76.0
89,71.0,0,109,1.0,76.0
90,61.0,0,229,2.0,76.0
91,64.0,0,469,3.0,76.0
92,67.0,0,239,5.0,76.0
93,73.0,120,239,5.0,76.0
94,70.0,0,239,5.0,76.0
95,55.0,0,479,5.0,76.0
96,76.0,0,239,5.0,76.0
97,71.0,80,39,0.0,76.0
98,54.0,0,104,4.0,76.0
99,73.0,0,119,5.0,76.0
100,70.0,0,119,5.0,76.0
101,66.0,0,119,5.0,76.0
102,54.0,0,119,5.0,76.0
103,52.0,120,104,4.0,76.0
104,58.0,0,229,3.0,76.0
105,66.0,0,229,2.0,76.0
106,64.0,0,119,5.0,76.0
107,52.0,0,119,5.0,76.0
108,73.0,0,119,5.0,76.0
109,70.0,0,119,5.0,76.0
110,50.0,0,104,4.0,76.0
111,73.0,0,349,0.0,76.0
112,73.0,40,349,1.0,76.0
113,70.0,0,119,5.0,76.0
114,50.0,0,119,5.0,76.0
115,73.0,0,119,5.0,76.0
116,62.0,0,119,5.0,76.0
117,52.0,0,104,4.0,76.0
118,66.0,0,109,0.0,76.0
119,66.0,0,109,1.0,76.0
120,66.0,120,229,3.0,76.0
121,70.0,0,229,2.0,76.0
122,52.0,120,119,5.0,76.0
123,73.0,0,119,5.0,76.0
124,70.0,0,119,5.0,76.0
125,64.0,0,119,5.0,76.0
126,50.0,0,104,4.0,76.0
127,71.0,0,109,2.0,76.0
128,71.0,0,119,5.0,76.0
129,62.0,0,119,5.0,76.0
130,66.0,0,119,5.0,76.0
131,50.0,120,119,5.0,76.0
132,52.0,0,104,4.0,76.0
133,73.0,0,109,2.0,76.0
134,59.0,0,229,3.0,76.0
135,52.0,0,119,5.0,76.0
136,67.0,0,119,5.0,76.0
137,71.0,120,119,5.0,76.0
138,64.0,0,119,5.0,76.0
139,78.0,0,349,0.0,76.0
140,78.0,0,349,1.0,76.0
141,74.0,0,229,2.0,76.0
142,79.0,0,109,1.0,76.0
143,79.0,120,109,0.0,76.0
144,58.0,0,229,3.0,76.0
145,71.0,0,239,5.0,76.0
146,66.0,120,239,5.0,76.0
147,74.0,0,239,5.0,76.0
148,54.0,0,344,4.0,76.0
149,54.0,0,359,5.0,76.0
150,66.0,0,119,5.0,76.0
151,73.0,0,119,5.0,76.0
152,70.0,0,119,5.0,76.0
153,76.0,0,119,5.0,76.0
154,47.0,0,104,4.0,76.0
155,76.0,0,229,1.0,76.0
156,76.0,0,229,0.0,76.0
157,70.0,0,229,2.0,76.0
158,62.0,0,119,5.0,76.0
159,59.0,120,119,5.0,76.0
160,66.0,0,119,5.0,76.0
161,47.0,0,119,5.0,76.0
162,75.0,0,14,0.0,76.0
163,76.0,15,14,0.0,76.0
164,75.0,15,14,0.0,76.0
165,76.0,15,14,0.0,76.0
166,75.0,15,14,0.0,76.0
167,76.0,15,14,0.0,76.0
168,73.0,15,14,0.0,76.0
169,66.0,120,349,3.0,76.0
170,75.0,0,119,1.0,76.0
171,71.0,0,119,2.0,76.0
172,75.0,15,14,0.0,76.0
173,76.0,0,71,0.0,76.0
174,67.0,0,109,3.0,76.0
175,73.0,0,109,2.0,76.0
176,76.0,15,109,1.0,76.0
177,75.0,0,239,5.0,76.0
178,76.0,80,39,0.0,76.0
179,78.0,0,239,5.0,76.0
180,71.0,120,239,5.0,76.0
181,59.0,0,344,4.0,76.0
182,78.0,0,119,5.0,76.0
183,71.0,0,119,5.0,76.0
184,59.0,0,359,5.0,76.0
185,75.0,0,119,5.0,76.0
186,75.0,0,119,2.0,76.0
187,60.0,120,104,4.0,76.0
188,76.0,0,109,2.0,76.0
189,69.0,0,229,3.0,76.0
190,73.0,0,119,5.0,76.0
191,60.0,0,119,5.0,76.0
192,78.0,40,239,0.0,76.0
193,78.0,0,119,5.0,76.0
194,78.0,0,239,1.0,76.0
195,75.0,0,119,5.0,76.0
196,78.0,120,109,2.0,76.0
197,57.0,0,224,4.0,76.0
198,63.0,0,229,3.0,76.0
199,71.0,120,109,2.0,76.0
200,57.0,0,239,5.0,76.0
201,71.0,0,239,5.0,76.0
202,75.0,0,239,5.0,76.0
203,69.0,0,239,5.0,76.0
204,78.0,0,239,5.0,76.0
205,55.0,0,104,4.0,76.0
206,67.0,0,119,5.0,76.0
207,55.0,0,119,5.0,76.0
208,76.0,0,119,5.0,76.0
209,71.0,0,119,5.0,76.0
210,57.0,0,104,4.0,76.0
211,83.0,0,109,1.0,76.0
212,67.0,0,229,3.0,76.0
213,83.0,0,109,0.0,76.0
214,73.0,0,119,5.0,76.0
215,57.0,120,119,5.0,76.0
216,69.0,0,119,5.0,76.0
217,76.0,0,119,5.0,76.0
218,81.0,120,119,0.0,76.0
219,81.0,0,119,1.0,76.0
220,79.0,0,109,0.0,76.0
221,76.0,120,469,2.0,76.0
222,79.0,120,109,1.0,76.0
223,66.0,0,229,3.0,76.0
224,59.0,0,239,4.0,76.0
225,78.0,0,239,5.0,76.0
226,76.0,0,239,5.0,76.0
227,59.0,0,239,5.0,76.0
228,81.0,0,239,5.0,76.0
229,71.0,0,239,5.0,76.0
230,81.0,0,119,1.0,76.0
231,81.0,0,119,0.0,76.0
232,75.0,0,229,2.0,76.0
233,78.0,120,109,0.0,76.0
234,71.0,0,229,3.0,76.0
235,78.0,0,109,1.0,76.0
236,75.0,0,239,5.0,76.0
237,81.0,0,239,5.0,76.0
238,78.0,120,239,5.0,76.0
239,79.0,0,109,0.0,76.0
240,79.0,120,119,1.0,76.0
241,76.0,0,71,0.0,76.0
242,64.0,120,104,4.0,76.0
243,76.0,0,109,1.0,76.0
244,76.0,0,229,2.0,76.0
245,64.0,0,229,3.0,76.0
246,81.0,80,39,0.0,76.0
247,76.0,0,119,5.0,76.0
248,64.0,0,119,5.0,76.0
249,79.0,0,119,5.0,76.0
250,83.0,0,119,5.0,76.0
251,80.0,0,14,1.0,76.0
252,80.0,40,14,0.0,76.0
253,81.0,15,14,1.0,76.0
254,81.0,0,14,0.0,76.0
255,80.0,0,14,0.0,76.0
256,80.0,15,14,1.0,76.0
257,81.0,0,14,0.0,76.0
258,81.0,15,14,1.0,76.0
259,80.0,15,14,0.0,76.0
260,80.0,0,14,1.0,76.0
261,81.0,15,14,0.0,76.0
262,81.0,0,14,1.0,76.0
263,80.0,0,14,1.0,76.0
264,62.0,0,104,4.0,76.0
265,80.0,15,14,0.0,76.0
266,81.0,0,14,1.0,76.0
267,62.0,0,119,5.0,76.0
268,80.0,0,119,5.0,76.0
269,83.0,0,119,5.0,76.0
270,76.0,0,119,5.0,76.0
271,74.0,0,119,5.0,76.0
272,81.0,15,14,0.0,76.0
273,80.0,0,14,1.0,76.0
274,80.0,0,14,0.0,76.0
275,81.0,0,14,1.0,76.0
276,81.0,15,14,0.0,76.0
277,80.0,15,14,1.0,76.0
278,80.0,0,14,0.0,76.0
279,81.0,15,14,1.0,76.0
280,81.0,0,14,0.0,76.0
281,80.0,15,14,1.0,76.0
282,80.0,0,14,0.0,76.0
283,81.0,0,14,0.0,76.0
284,81.0,15,14,1.0,76.0
285,80.0,0,14,1.0,76.0
286,80.0,15,14,0.0,76.0
287,61.0,0,104,4.0,76.0
288,81.0,15,14,0.0,76.0
289,80.0,0,119,5.0,76.0
290,73.0,0,119,5.0,76.0
291,81.0,0,14,1.0,76.0
292,61.0,15,119,5.0,76.0
293,76.0,0,119,5.0,76.0
294,80.0,0,14,0.0,76.0
295,80.0,15,14,1.0,76.0
296,81.0,15,14,1.0,76.0
297,81.0,0,14,0.0,76.0
298,80.0,15,14,1.0,76.0
299,80.0,0,14,0.0,76.0
300,81.0,15,14,1.0,76.0
301,81.0,0,14,0.0,76.0
302,80.0,15,14,1.0,76.0
303,80.0,0,14,0.0,76.0
304,81.0,0,14,0.0,76.0
305,81.0,15,14,1.0,76.0
306,80.0,0,14,0.0,76.0
307,62.0,0,104,4.0,76.0
308,80.0,15,14,1.0,76.0
309,81.0,15,14,1.0,76.0
310,81.0,0,14,0.0,76.0
311,76.0,0,119,5.0,76.0
312,80.0,0,119,5.0,76.0
313,62.0,0,119,5.0,76.0
314,74.0,0,119,5.0,76.0
315,78.0,15,51,1.0,76.0
316,78.0,0,51,0.0,76.0
317,59.0,0,104,4.0,76.0
318,64.0,0,469,3.0,76.0
319,71.0,0,469,2.0,76.0
320,80.0,60,51,1.0,76.0
321,80.0,0,51,0.0,76.0
322,74.0,0,119,5.0,76.0
323,71.0,0,119,5.0,76.0
324,78.0,0,119,5.0,76.0
325,59.0,0,119,5.0,76.0
326,61.0,0,104,4.0,76.0
327,81.0,0,109,0.0,76.0
328,81.0,0,109,1.0,76.0
329,73.0,60,119,5.0,76.0
330,76.0,0,119,5.0,76.0
331,81.0,0,119,5.0,76.0
332,61.0,0,119,5.0,76.0
333,57.0,0,104,4.0,76.0
334,85.0,120,109,0.0,76.0
335,85.0,0,109,1.0,76.0
336,76.0,0,229,2.0,76.0
337,64.0,0,229,3.0,76.0
338,57.0,0,119,5.0,76.0
339,69.0,0,119,5.0,76.0
340,73.0,0,119,5.0,76.0
341,76.0,0,119,5.0,76.0
342,64.0,0,14,3.0,76.0
343,61.0,0,14,4.0,76.0
344,61.0,0,14,5.0,76.0
345,62.0,0,14,4.0,76.0
346,66.0,15,14,3.0,76.0
347,62.0,0,14,5.0,76.0
348,64.0,15,14,3.0,76.0
349,61.0,0,14,4.0,76.0
350,61.0,0,14,5.0,76.0
351,62.0,0,14,4.0,76.0
352,66.0,15,14,3.0,76.0
353,62.0,0,14,5.0,76.0
354,61.0,0,14,5.0,76.0
355,64.0,0,14,3.0,76.0
356,61.0,15,14,4.0,76.0
357,62.0,15,14,4.0,76.0
358,66.0,0,14,3.0,76.0
359,62.0,0,14,5.0,76.0
360,61.0,0,14,4.0,76.0
361,64.0,0,14,3.0,76.0
362,61.0,15,14,5.0,76.0
363,83.0,0,119,1.0,76.0
364,62.0,15,14,4.0,76.0
365,66.0,0,14,3.0,76.0
366,83.0,0,119,0.0,76.0
367,62.0,0,14,5.0,76.0
368,64.0,0,14,3.0,76.0
369,61.0,15,14,4.0,76.0
370,61.0,0,14,5.0,76.0
371,62.0,15,14,5.0,76.0
372,62.0,0,14,4.0,76.0
373,66.0,0,14,3.0,76.0
374,64.0,0,14,3.0,76.0
375,61.0,15,14,5.0,76.0
376,61.0,0,14,4.0,76.0
377,62.0,15,14,5.0,76.0
378,62.0,0,14,4.0,76.0
379,66.0,0,14,3.0,76.0
380,64.0,15,14,3.0,76.0
381,61.0,0,14,5.0,76.0
382,61.0,0,14,4.0,76.0
383,66.0,0,14,3.0,76.0
384,62.0,15,14,5.0,76.0
385,62.0,0,14,4.0,76.0
386,61.0,15,14,4.0,76.0
387,64.0,0,14,3.0,76.0
388,61.0,0,14,5.0,76.0
389,82.0,0,109,0.0,76.0
390,82.0,0,109,1.0,76.0
391,62.0,0,14,4.0,76.0
392,62.0,15,14,5.0,76.0
393,66.0,0,14,3.0,76.0
394,64.0,0,14,3.0,76.0
395,61.0,15,14,4.0,76.0
396,61.0,0,14,5.0,76.0
397,62.0,0,14,5.0,76.0
398,66.0,15,14,3.0,76.0
399,62.0,0,14,4.0,76.0
400,64.0,0,14,3.0,76.0
401,61.0,0,14,5.0,76.0
402,61.0,15,14,4.0,76.0
403,62.0,0,14,4.0,76.0
404,62.0,0,14,5.0,76.0
405,66.0,15,14,3.0,76.0
406,61.0,15,14,4.0,76.0
407,61.0,0,14,5.0,76.0
408,64.0,0,14,3.0,76.0
409,62.0,0,14,5.0,76.0
410,62.0,0,14,4.0,76.0
411,66.0,15,14,3.0,76.0
412,64.0,15,14,3.0,76.0
413,61.0,0,14,4.0,76.0
414,61.0,0,14,5.0,76.0
415,62.0,15,14,4.0,76.0
416,76.0,120,359,5.0,76.0
417,66.0,0,14,3.0,76.0
418,73.0,0,359,5.0,76.0
419,62.0,0,14,5.0,76.0
420,82.0,0,359,5.0,76.0
421,80.0,0,119,1.0,76.0
422,80.0,0,119,0.0,76.0
423,59.0,0,51,4.0,76.0
424,62.0,0,51,3.0,76.0
425,78.0,0,59,5.0,76.0
426,71.0,0,59,5.0,76.0
427,74.0,0,59,5.0,76.0
428,59.0,15,59,5.0,76.0
429,82.0,0,109,1.0,76.0
430,82.0,0,109,0.0,76.0
431,73.0,0,469,2.0,76.0
432,64.0,0,51,3.0,76.0
433,61.0,0,51,4.0,76.0
434,79.0,0,59,5.0,76.0
435,61.0,0,59,5.0,76.0
436,76.0,0,59,5.0,76.0
437,73.0,60,59,5.0,76.0
438,62.0,60,119,5.0,76.0
439,74.0,0,119,5.0,76.0
440,83.0,0,119,5.0,76.0
441,62.0,0,119,4.0,76.0
442,83.0,0,119,1.0,76.0
443,83.0,0,119,0.0,76.0
444,78.0,0,119,5.0,76.0
445,66.0,0,104,4.0,76.0
446,81.0,0,109,0.0,76.0
447,66.0,0,229,3.0,76.0
448,81.0,120,109,1.0,76.0
449,66.0,0,119,5.0,76.0
450,85.0,0,119,5.0,76.0
451,81.0,0,119,5.0,76.0
452,78.0,0,119,5.0,76.0
453,64.0,0,104,4.0,76.0
454,79.0,0,119,5.0,76.0
455,83.0,120,119,5.0,76.0
456,64.0,0,119,5.0,76.0
457,79.0,0,119,1.0,76.0
458,79.0,0,119,0.0,76.0
459,76.0,0,119,5.0,76.0
460,62.0,0,104,4.0,76.0
461,59.0,0,229,3.0,76.0
462,78.0,0,109,0.0,76.0
463,78.0,120,109,1.0,76.0
464,81.0,0,119,5.0,76.0
465,74.0,0,119,5.0,76.0
466,62.0,0,119,5.0,76.0
467,78.0,0,119,5.0,76.0
468,61.0,0,104,4.0,76.0
469,64.0,0,109,3.0,76.0
470,83.0,0,119,5.0,76.0
471,76.0,120,119,1.0,76.0
472,76.0,0,119,0.0,76.0
473,73.0,0,119,5.0,76.0
474,76.0,0,119,5.0,76.0
475,79.0,0,119,5.0,76.0
476,61.0,0,119,5.0,76.0
477,62.0,120,104,4.0,76.0
478,74.0,0,109,0.0,76.0
479,66.0,0,109,3.0,76.0
480,74.0,0,109,1.0,76.0
481,78.0,0,119,5.0,76.0
482,74.0,0,119,5.0,76.0
483,81.0,0,119,5.0,76.0
484,62.0,0,119,5.0,76.0
485,73.0,0,14,0.0,76.0
486,74.0,15,14,0.0,76.0
487,73.0,15,14,0.0,76.0
488,74.0,15,14,0.0,76.0
489,73.0,15,14,0.0,76.0
490,74.0,15,14,0.0,76.0
491,64.0,0,104,4.0,76.0
492,71.0,15,14,0.0,76.0
493,64.0,0,119,5.0,76.0
494,79.0,0,119,5.0,76.0
495,73.0,0,119,1.0,76.0
496,73.0,15,14,0.0,76.0
497,83.0,0,119,5.0,76.0
498,85.0,0,119,5.0,76.0
499,76.0,0,119,5.0,76.0
500,74.0,0,71,0.0,76.0
501,62.0,0,104,4.0,76.0
502,71.0,0,949,2.0,76.0
503,74.0,0,109,1.0,76.0
504,74.0,80,39,0.0,76.0
505,78.0,0,119,5.0,76.0
506,81.0,15,119,5.0,76.0
507,74.0,0,119,5.0,76.0
508,62.0,0,119,5.0,76.0
509,61.0,40,104,4.0,76.0
510,70.0,0,109,2.0,76.0
511,76.0,0,119,5.0,76.0
512,73.0,0,119,5.0,76.0
513,82.0,0,119,5.0,76.0
514,61.0,0,119,5.0,76.0
515,59.0,0,104,4.0,76.0
516,67.0,120,469,3.0,76.0
517,71.0,0,109,2.0,76.0
518,71.0,0,119,5.0,76.0
519,59.0,0,119,5.0,76.0
520,74.0,120,119,5.0,76.0
521,78.0,0,119,5.0,76.0
522,58.0,0,104,4.0,76.0
523,66.0,0,109,3.0,76.0
524,73.0,0,119,5.0,76.0
525,70.0,0,119,5.0,76.0
526,58.0,0,119,5.0,76.0
527,76.0,0,119,5.0,76.0
528,78.0,120,119,5.0,76.0
529,56.0,0,104,4.0,76.0
530,68.0,0,109,3.0,76.0
531,56.0,0,119,5.0,76.0
532,74.0,0,119,5.0,76.0
533,68.0,0,119,5.0,76.0
534,71.0,120,119,5.0,76.0
535,54.0,0,104,4.0,76.0
536,54.0,0,119,5.0,76.0
537,66.0,0,119,5.0,76.0
538,76.0,0,119,5.0,76.0
539,70.0,0,119,5.0,76.0
540,73.0,0,119,5.0,76.0
541,56.0,0,104,4.0,76.0
542,76.0,0,709,0.0,76.0
543,70.0,120,229,3.0,76.0
544,76.0,0,709,1.0,76.0
545,73.0,0,469,2.0,76.0
546,71.0,0,119,5.0,76.0
547,74.0,0,119,5.0,76.0
548,56.0,120,119,5.0,76.0
549,68.0,0,119,5.0,76.0
550,75.0,0,109,0.0,76.0
551,66.0,0,109,3.0,76.0
552,75.0,0,119,1.0,76.0
553,76.0,0,109,1.0,76.0
554,64.0,0,109,3.0,76.0
555,76.0,120,109,0.0,76.0
556,78.0,0,109,0.0,76.0
557,63.0,120,109,3.0,76.0
558,78.0,0,119,1.0,76.0
559,75.0,120,109,0.0,76.0
560,61.0,0,109,3.0,76.0
561,75.0,0,109,1.0,76.0
562,75.0,0,479,5.0,76.0
563,69.0,0,479,5.0,76.0
564,78.0,0,479,5.0,76.0
565,71.0,120,479,5.0,76.0
566,71.0,0,589,2.0,76.0
567,57.0,0,704,4.0,76.0
568,73.0,120,109,2.0,76.0
569,63.0,0,229,3.0,76.0
570,71.0,120,239,5.0,76.0
571,69.0,0,239,5.0,76.0
572,57.0,0,719,5.0,76.0
573,75.0,0,239,5.0,76.0
574,56.0,120,104,4.0,76.0
575,68.0,0,119,5.0,76.0
576,71.0,0,119,5.0,76.0
577,56.0,0,119,5.0,76.0
578,77.0,0,119,5.0,76.0
579,71.0,0,119,2.0,76.0
580,57.0,0,104,4.0,76.0
581,69.0,120,109,2.0,76.0
582,65.0,0,229,3.0,76.0
583,69.0,0,119,5.0,76.0
584,77.0,0,119,5.0,76.0
585,57.0,0,119,5.0,76.0
586,73.0,0,119,5.0,76.0
587,59.0,0,104,4.0,76.0
588,71.0,0,119,5.0,76.0
589,68.0,0,119,2.0,76.0
590,74.0,120,119,5.0,76.0
591,80.0,0,119,5.0,76.0
592,59.0,0,119,5.0,76.0
593,56.0,0,104,4.0,76.0
594,74.0,0,229,3.0,76.0
595,66.0,0,109,2.0,76.0
596,56.0,0,119,5.0,76.0
597,68.0,0,119,5.0,76.0
598,71.0,120,119,5.0,76.0
599,74.0,0,119,5.0,76.0
600,83.0,0,829,0.0,76.0
601,83.0,0,829,1.0,76.0
602,73.0,0,229,3.0,76.0
603,74.0,120,119,0.0,76.0
604,74.0,0,119,1.0,76.0
605,65.0,120,344,4.0,76.0
606,68.0,0,349,2.0,76.0
607,73.0,0,109,0.0,76.0
608,73.0,0,109,1.0,76.0
609,79.0,0,359,5.0,76.0
610,83.0,0,359,5.0,76.0
611,65.0,0,359,5.0,76.0
612,77.0,0,359,5.0,76.0
613,85.0,0,359,5.0,76.0
614,83.0,0,71,0.0,76.0
615,56.0,0,104,4.0,76.0
616,83.0,0,109,1.0,76.0
617,77.0,0,109,2.0,76.0
618,56.0,0,119,5.0,76.0
619,83.0,80,39,0.0,76.0
620,71.0,0,119,5.0,76.0
621,77.0,120,119,5.0,76.0
622,68.0,0,119,5.0,76.0
623,54.0,0,104,4.0,76.0
624,61.0,120,349,3.0,76.0
625,69.0,40,119,5.0,76.0
626,66.0,0,119,5.0,76.0
627,54.0,0,119,5.0,76.0
628,73.0,0,119,5.0,76.0
629,64.0,0,104,4.0,76.0
630,73.0,0,109,3.0,76.0
631,83.0,0,119,5.0,76.0
632,64.0,120,119,5.0,76.0
633,76.0,0,119,5.0,76.0
634,79.0,0,119,5.0,76.0
635,62.0,0,104,4.0,76.0
636,81.0,0,349,1.0,76.0
637,78.0,0,349,2.0,76.0
638,81.0,0,349,0.0,76.0
639,66.0,0,109,3.0,76.0
640,62.0,0,119,5.0,76.0
641,78.0,0,119,5.0,76.0
642,74.0,120,119,5.0,76.0
643,81.0,0,119,5.0,76.0
644,80.0,0,71,0.0,76.0
645,59.0,0,104,4.0,76.0
646,71.0,0,109,3.0,76.0
647,80.0,0,109,1.0,76.0
648,74.0,120,109,2.0,76.0
649,78.0,80,39,0.0,76.0
650,59.0,0,119,5.0,76.0
651,71.0,0,119,5.0,76.0
652,80.0,0,119,5.0,76.0
653,74.0,0,119,5.0,76.0
654,77.0,0,14,0.0,76.0
655,68.0,0,14,3.0,76.0
656,77.0,40,14,1.0,76.0
657,78.0,15,14,0.0,76.0
658,69.0,0,14,3.0,76.0
659,78.0,0,14,1.0,76.0
660,68.0,0,14,3.0,76.0
661,77.0,0,14,0.0,76.0
662,77.0,15,14,1.0,76.0
663,78.0,15,14,1.0,76.0
664,78.0,0,14,0.0,76.0
665,69.0,0,14,3.0,76.0
666,77.0,15,14,1.0,76.0
667,77.0,0,14,0.0,76.0
668,68.0,0,14,3.0,76.0
669,69.0,15,14,3.0,76.0
670,78.0,0,14,0.0,76.0
671,78.0,0,14,1.0,76.0
672,68.0,15,14,3.0,76.0
673,77.0,0,14,0.0,76.0
674,77.0,0,14,1.0,76.0
675,78.0,0,14,0.0,76.0
676,69.0,15,14,3.0,76.0
677,78.0,0,14,1.0,76.0
678,77.0,15,14,0.0,76.0
679,77.0,0,14,1.0,76.0
680,68.0,0,14,3.0,76.0
681,78.0,0,14,0.0,76.0
682,69.0,0,14,3.0,76.0
683,78.0,15,14,1.0,76.0
684,68.0,0,14,3.0,76.0
685,77.0,0,14,0.0,76.0
686,77.0,15,14,1.0,76.0
687,69.0,0,14,3.0,76.0
688,78.0,15,14,1.0,76.0
689,78.0,0,14,0.0,76.0
690,77.0,0,14,1.0,76.0
691,68.0,15,14,3.0,76.0
692,77.0,0,14,0.0,76.0
693,78.0,15,14,0.0,76.0
694,69.0,0,14,3.0,76.0
695,78.0,0,14,1.0,76.0
696,77.0,0,14,1.0,76.0
697,61.0,0,224,4.0,76.0
698,68.0,0,14,3.0,76.0
699,77.0,15,14,0.0,76.0
700,73.0,0,229,2.0,76.0
701,78.0,0,14,0.0,76.0
702,78.0,15,14,1.0,76.0
703,61.0,0,239,5.0,76.0
704,77.0,0,239,5.0,76.0
705,80.0,0,239,5.0,76.0
706,73.0,0,239,5.0,76.0
707,69.0,0,14,3.0,76.0
708,77.0,15,14,0.0,76.0
709,68.0,0,14,3.0,76.0
710,77.0,0,14,1.0,76.0
711,69.0,0,14,3.0,76.0
712,78.0,15,14,1.0,76.0
713,78.0,0,14,0.0,76.0
714,77.0,0,14,0.0,76.0
715,68.0,15,14,3.0,76.0
716,77.0,0,14,1.0,76.0
717,78.0,0,14,0.0,76.0
718,69.0,15,14,3.0,76.0
719,78.0,0,14,1.0,76.0
720,77.0,0,14,0.0,76.0
721,68.0,15,14,3.0,76.0
722,77.0,0,14,1.0,76.0
723,78.0,0,14,0.0,76.0
724,78.0,15,14,1.0,76.0
725,69.0,0,14,3.0,76.0
726,74.0,15,14,1.0,76.0
727,66.0,0,14,3.0,76.0
728,74.0,0,14,0.0,76.0
729,68.0,0,14,3.0,76.0
730,77.0,15,14,1.0,76.0
731,77.0,0,14,0.0,76.0
732,49.0,0,224,4.0,76.0
733,73.0,0,229,2.0,76.0
734,70.0,0,109,3.0,76.0
735,78.0,0,109,1.0,76.0
736,78.0,15,109,0.0,76.0
737,61.0,0,239,5.0,76.0
738,68.0,0,239,5.0,76.0
739,49.0,0,239,5.0,76.0
740,65.0,0,239,5.0,76.0
741,42.0,0,464,4.0,76.0
742,78.0,0,469,0.0,76.0
743,73.0,0,469,2.0,76.0
744,78.0,0,469,1.0,76.0
745,70.0,0,469,3.0,76.0
746,54.0,0,479,5.0,76.0
747,42.0,0,479,5.0,76.0
748,57.0,0,479,5.0,76.0
749,61.0,120,479,5.0,76.0
750,78.0,480,189,1.0,76.0
751,78.0,0,189,0.0,76.0
752,76.0,0,39,0.0,76.0
753,76.0,200,39,1.0,76.0
754,74.0,40,349,0.0,76.0
755,74.0,0,349,1.0,76.0
756,76.0,360,109,1.0,76.0
757,76.0,0,109,0.0,76.0
758,59.0,0,224,4.0,76.0
759,78.0,0,229,1.0,76.0
760,78.0,0,229,0.0,76.0
761,59.0,0,239,5.0,76.0
762,74.0,0,239,5.0,76.0
763,71.0,0,239,5.0,76.0
764,78.0,0,239,5.0,76.0
765,71.0,120,349,2.0,76.0
766,62.0,0,349,3.0,76.0
767,69.0,0,71,2.0,76.0
768,71.0,0,229,1.0,76.0
769,61.0,120,109,3.0,76.0
770,71.0,0,229,0.0,76.0
771,74.0,0,239,5.0,76.0
772,69.0,80,39,2.0,76.0
773,78.0,240,239,5.0,76.0
774,71.0,0,239,5.0,76.0
775,67.0,0,239,5.0,76.0
776,55.0,0,344,4.0,76.0
777,71.0,0,119,5.0,76.0
778,55.0,0,359,5.0,76.0
779,76.0,0,119,5.0,76.0
780,67.0,0,119,5.0,76.0
781,57.0,120,104,4.0,76.0
782,76.0,0,229,1.0,76.0
783,76.0,0,229,0.0,76.0
784,67.0,0,229,2.0,76.0
785,57.0,0,119,5.0,76.0
786,73.0,0,119,5.0,76.0
787,69.0,0,119,5.0,76.0
788,76.0,0,119,5.0,76.0
789,66.0,0,109,2.0,76.0
790,59.0,0,224,4.0,76.0
791,69.0,120,109,2.0,76.0
792,59.0,120,239,5.0,76.0
793,74.0,0,239,5.0,76.0
794,78.0,0,239,5.0,76.0
795,71.0,0,239,5.0,76.0
796,67.0,0,109,2.0,76.0
797,66.0,120,71,2.0,76.0
798,52.0,0,224,4.0,76.0
799,59.0,40,709,3.0,76.0
800,74.0,0,469,1.0,76.0
801,74.0,0,469,0.0,76.0
802,74.0,120,239,5.0,76.0
803,64.0,0,239,5.0,76.0
804,67.0,0,239,5.0,76.0
805,52.0,0,239,5.0,76.0
806,66.0,80,39,2.0,76.0
807,71.0,0,239,5.0,76.0
808,61.0,0,109,3.0,76.0
809,73.0,0,119,0.0,76.0
810,73.0,0,119,1.0,76.0
811,57.0,40,224,4.0,76.0
812,62.0,0,109,3.0,76.0
813,71.0,120,109,1.0,76.0
814,76.0,0,239,5.0,76.0
815,73.0,0,239,5.0,76.0
816,57.0,0,239,5.0,76.0
817,69.0,0,239,5.0,76.0
818,71.0,0,119,0.0,76.0
819,64.0,0,349,2.0,76.0
820,70.0,0,119,1.0,76.0
821,70.0,0,119,0.0,76.0
822,71.0,0,109,0.0,76.0
823,62.0,0,109,2.0,76.0
824,71.0,120,109,1.0,76.0
825,67.0,0,239,5.0,76.0
826,71.0,0,239,5.0,76.0
827,76.0,0,239,5.0,76.0
828,70.0,0,14,0.0,76.0
829,71.0,15,14,0.0,76.0
830,70.0,15,14,0.0,76.0
831,71.0,15,14,0.0,76.0
832,70.0,15,14,0.0,76.0
833,71.0,15,14,0.0,76.0
834,67.0,15,14,0.0,76.0
835,70.0,15,14,0.0,76.0
836,70.0,0,119,1.0,76.0
837,71.0,0,71,0.0,76.0
838,55.0,0,464,4.0,76.0
839,61.0,0,229,2.0,76.0
840,64.0,120,469,3.0,76.0
841,71.0,15,109,1.0,76.0
842,70.0,120,239,5.0,76.0
843,55.0,0,479,5.0,76.0
844,71.0,80,39,0.0,76.0
845,76.0,0,239,5.0,76.0
846,73.0,0,239,5.0,76.0
847,67.0,0,239,5.0,76.0
848,54.0,40,104,4.0,76.0
849,73.0,0,119,5.0,76.0
850,70.0,0,119,5.0,76.0
851,66.0,0,119,5.0,76.0
852,54.0,0,119,5.0,76.0
853,52.0,0,104,4.0,76.0
854,58.0,0,229,3.0,76.0
855,66.0,0,229,2.0,76.0
856,52.0,120,119,5.0,76.0
857,73.0,0,119,5.0,76.0
858,64.0,0,119,5.0,76.0
859,70.0,0,119,5.0,76.0
860,50.0,0,104,4.0,76.0
861,73.0,0,349,1.0,76.0
862,73.0,0,349,0.0,76.0
863,73.0,120,119,5.0,76.0
864,62.0,0,119,5.0,76.0
865,70.0,0,119,5.0,76.0
866,50.0,0,119,5.0,76.0
867,52.0,0,104,4.0,76.0
868,66.0,0,229,3.0,76.0
869,66.0,0,109,1.0,76.0
870,66.0,120,109,0.0,76.0
871,70.0,0,229,2.0,76.0
872,64.0,0,119,5.0,76.0
873,73.0,0,119,5.0,76.0
874,70.0,0,119,5.0,76.0
875,52.0,0,119,5.0,76.0
876,50.0,0,104,4.0,76.0
877,71.0,0,109,2.0,76.0
878,50.0,0,119,5.0,76.0
879,62.0,120,119,5.0,76.0
880,66.0,0,119,5.0,76.0
881,71.0,0,119,5.0,76.0
882,52.0,120,104,4.0,76.0
883,59.0,0,229,3.0,76.0
884,73.0,0,109,2.0,76.0
885,67.0,0,119,5.0,76.0
886,71.0,0,119,5.0,76.0
887,52.0,0,119,5.0,76.0
888,64.0,0,119,5.0,76.0
889,78.0,0,349,1.0,76.0
890,78.0,0,349,0.0,76.0
891,79.0,0,109,1.0,76.0
892,79.0,120,109,0.0,76.0
893,58.0,120,229,3.0,76.0
894,74.0,0,229,2.0,76.0
895,74.0,0,239,5.0,76.0
896,71.0,0,239,5.0,76.0
897,66.0,0,239,5.0,76.0
898,54.0,0,344,4.0,76.0
899,70.0,0,119,5.0,76.0
900,73.0,120,119,5.0,76.0
901,66.0,0,119,5.0,76.0
902,76.0,0,119,5.0,76.0
903,54.0,0,359,5.0,76.0
904,47.0,0,104,4.0,76.0
905,76.0,0,229,1.0,76.0
906,70.0,0,229,2.0,76.0
907,76.0,0,229,0.0,76.0
908,59.0,0,119,5.0,76.0
909,62.0,120,119,5.0,76.0
910,66.0,0,119,5.0,76.0
911,47.0,0,119,5.0,76.0
912,75.0,0,14,0.0,76.0
913,76.0,15,14,0.0,76.0
914,75.0,15,14,0.0,76.0
915,76.0,15,14,0.0,76.0
916,75.0,15,14,0.0,76.0
917,76.0,15,14,0.0,76.0
918,73.0,15,14,0.0,76.0
919,66.0,0,349,3.0,76.0
920,75.0,15,14,0.0,76.0
921,71.0,0,119,2.0,76.0
922,75.0,0,119,1.0,76.0
923,76.0,15,71,0.0,76.0
924,76.0,0,109,1.0,76.0
925,67.0,0,109,3.0,76.0
926,73.0,0,109,2.0,76.0
927,75.0,0,239,5.0,76.0
928,78.0,0,239,5.0,76.0
929,76.0,80,39,0.0,76.0
930,71.0,0,239,5.0,76.0
931,59.0,120,344,4.0,76.0
932,75.0,0,119,2.0,76.0
933,59.0,0,359,5.0,76.0
934,71.0,0,119,5.0,76.0
935,75.0,0,119,5.0,76.0
936,78.0,40,119,5.0,76.0
937,60.0,0,104,4.0,76.0
938,76.0,0,109,2.0,76.0
939,69.0,0,229,3.0,76.0
940,75.0,120,119,5.0,76.0
941,78.0,0,119,5.0,76.0
942,78.0,0,239,1.0,76.0
943,78.0,0,239,0.0,76.0
944,73.0,0,119,5.0,76.0
945,60.0,0,119,5.0,76.0
946,78.0,120,109,2.0,76.0
947,57.0,0,224,4.0,76.0
948,63.0,0,229,3.0,76.0
949,71.0,120,109,2.0,76.0
950,69.0,0,239,5.0,76.0
951,78.0,0,239,5.0,76.0
952,57.0,0,239,5.0,76.0
953,75.0,0,239,5.0,76.0
954,71.0,0,239,5.0,76.0
955,55.0,0,104,4.0,76.0
956,76.0,120,119,5.0,76.0
957,67.0,0,119,5.0,76.0
958,55.0,0,119,5.0,76.0
959,71.0,0,119,5.0,76.0
960,57.0,120,104,4.0,76.0
961,83.0,0,109,0.0,76.0
962,83.0,0,109,1.0,76.0
963,67.0,0,229,3.0,76.0
964,69.0,0,119,5.0,76.0
965,76.0,0,119,5.0,76.0
966,57.0,0,119,5.0,76.0
967,73.0,0,119,5.0,76.0
968,81.0,0,119,0.0,76.0
969,81.0,0,119,1.0,76.0
970,79.0,0,109,1.0,76.0
971,76.0,0,469,2.0,76.0
972,79.0,120,109,0.0,76.0
973,66.0,0,229,3.0,76.0
974,59.0,0,239,5.0,76.0
975,78.0,0,239,5.0,76.0
976,76.0,0,239,5.0,76.0
977,81.0,120,239,5.0,76.0
978,71.0,0,239,5.0,76.0
979,59.0,0,239,4.0,76.0
980,81.0,0,119,0.0,76.0
981,81.0,0,119,1.0,76.0
982,75.0,120,229,2.0,76.0
983,78.0,0,109,0.0,76.0
984,71.0,0,229,3.0,76.0
985,78.0,120,109,1.0,76.0
986,78.0,0,239,5.0,76.0
987,75.0,0,239,5.0,76.0
988,81.0,0,239,5.0,76.0
989,79.0,0,109,0.0,76.0
990,79.0,0,119,1.0,76.0
991,76.0,0,71,0.0,76.0
992,64.0,0,104,4.0,76.0
993,76.0,120,229,2.0,76.0
994,64.0,0,229,3.0,76.0
995,76.0,120,109,1.0,76.0
996,64.0,0,119,5.0,76.0
997,79.0,0,119,5.0,76.0
998,81.0,80,39,0.0,76.0
999,76.0,0,119,5.0,76.0
1000,83.0,0,119,5.0,76.0
1001,80.0,0,14,0.0,76.0
1002,80.0,0,14,1.0,76.0
1003,81.0,0,14,1.0,76.0
1004,81.0,15,14,0.0,76.0
1005,80.0,15,14,0.0,76.0
1006,80.0,0,14,1.0,76.0
1007,81.0,15,14,0.0,76.0
1008,81.0,0,14,1.0,76.0
1009,80.0,15,14,0.0,76.0
1010,80.0,0,14,1.0,76.0
1011,81.0,15,14,1.0,76.0
1012,81.0,0,14,0.0,76.0
1013,80.0,15,14,1.0,76.0
1014,62.0,0,104,4.0,76.0
1015,80.0,0,14,0.0,76.0
1016,81.0,15,14,1.0,76.0
1017,81.0,0,14,0.0,76.0
1018,74.0,0,119,5.0,76.0
1019,80.0,0,119,5.0,76.0
1020,76.0,40,119,5.0,76.0
1021,83.0,0,119,5.0,76.0
1022,62.0,0,119,5.0,76.0
1023,80.0,0,14,1.0,76.0
1024,80.0,0,14,0.0,76.0
1025,81.0,15,14,1.0,76.0
1026,81.0,0,14,0.0,76.0
1027,80.0,0,14,1.0,76.0
1028,80.0,15,14,0.0,76.0
1029,81.0,15,14,1.0,76.0
1030,81.0,0,14,0.0,76.0
1031,80.0,0,14,1.0,76.0
1032,80.0,15,14,0.0,76.0
1033,81.0,15,14,0.0,76.0
1034,81.0,0,14,1.0,76.0
1035,80.0,15,14,0.0,76.0
1036,61.0,0,104,4.0,76.0
1037,80.0,0,14,1.0,76.0
1038,61.0,0,119,5.0,76.0
1039,80.0,0,119,5.0,76.0
1040,76.0,15,119,5.0,76.0
1041,81.0,15,14,1.0,76.0
1042,81.0,0,14,0.0,76.0
1043,73.0,0,119,5.0,76.0
1044,80.0,0,14,0.0,76.0
1045,80.0,15,14,1.0,76.0
1046,81.0,15,14,1.0,76.0
1047,81.0,0,14,0.0,76.0
1048,80.0,15,14,1.0,76.0
1049,80.0,0,14,0.0,76.0
1050,81.0,15,14,1.0,76.0
1051,81.0,0,14,0.0,76.0
1052,80.0,0,14,0.0,76.0
1053,80.0,15,14,1.0,76.0
1054,81.0,15,14,1.0,76.0
1055,81.0,0,14,0.0,76.0
1056,80.0,15,14,1.0,76.0
1057,62.0,0,104,4.0,76.0
1058,80.0,0,14,0.0,76.0
1059,81.0,15,14,1.0,76.0
1060,62.0,0,119,5.0,76.0
1061,80.0,0,119,5.0,76.0
1062,74.0,0,119,5.0,76.0
1063,81.0,0,14,0.0,76.0
1064,76.0,0,119,5.0,76.0
1065,78.0,0,51,0.0,76.0
1066,78.0,0,51,1.0,76.0
1067,59.0,0,104,4.0,76.0
1068,71.0,0,469,2.0,76.0
1069,64.0,0,469,3.0,76.0
1070,80.0,0,51,1.0,76.0
1071,80.0,60,51,0.0,76.0
1072,74.0,0,119,5.0,76.0
1073,78.0,0,119,5.0,76.0
1074,71.0,15,119,5.0,76.0
1075,59.0,0,119,5.0,76.0
1076,61.0,0,104,4.0,76.0
1077,81.0,0,109,1.0,76.0
1078,81.0,0,109,0.0,76.0
1079,73.0,0,119,5.0,76.0
1080,61.0,60,119,5.0,76.0
1081,81.0,0,119,5.0,76.0
1082,76.0,0,119,5.0,76.0
1083,57.0,120,104,4.0,76.0
1084,76.0,0,229,2.0,76.0
1085,85.0,0,109,0.0,76.0
1086,64.0,0,229,3.0,76.0
1087,85.0,0,109,1.0,76.0
1088,57.0,0,119,5.0,76.0
1089,69.0,0,119,5.0,76.0
1090,73.0,0,119,5.0,76.0
1091,76.0,0,119,5.0,76.0
1092,61.0,0,14,4.0,76.0
1093,61.0,0,14,5.0,76.0
1094,64.0,0,14,3.0,76.0
1095,62.0,0,14,5.0,76.0
1096,66.0,15,14,3.0,76.0
1097,62.0,0,14,4.0,76.0
1098,64.0,15,14,3.0,76.0
1099,61.0,0,14,5.0,76.0
1100,61.0,0,14,4.0,76.0
1101,62.0,0,14,5.0,76.0
1102,62.0,15,14,4.0,76.0
1103,66.0,0,14,3.0,76.0
1104,61.0,15,14,4.0,76.0
1105,61.0,0,14,5.0,76.0
1106,64.0,0,14,3.0,76.0
1107,62.0,0,14,5.0,76.0
1108,66.0,0,14,3.0,76.0
1109,62.0,15,14,4.0,76.0
1110,61.0,15,14,4.0,76.0
1111,64.0,0,14,3.0,76.0
1112,61.0,0,14,5.0,76.0
1113,62.0,15,14,4.0,76.0
1114,66.0,0,14,3.0,76.0
1115,83.0,0,119,0.0,76.0
1116,62.0,0,14,5.0,76.0
1117,83.0,120,119,1.0,76.0
1118,61.0,0,14,5.0,76.0
1119,61.0,0,14,4.0,76.0
1120,64.0,15,14,3.0,76.0
1121,62.0,15,14,5.0,76.0
1122,66.0,0,14,3.0,76.0
1123,62.0,0,14,4.0,76.0
1124,61.0,15,14,5.0,76.0
1125,61.0,0,14,4.0,76.0
1126,64.0,0,14,3.0,76.0
1127,62.0,15,14,5.0,76.0
1128,62.0,0,14,4.0,76.0
1129,66.0,0,14,3.0,76.0
1130,61.0,0,14,4.0,76.0
1131,61.0,0,14,5.0,76.0
1132,64.0,15,14,3.0,76.0
1133,62.0,0,14,4.0,76.0
1134,66.0,0,14,3.0,76.0
1135,62.0,15,14,5.0,76.0
1136,64.0,15,14,3.0,76.0
1137,61.0,0,14,5.0,76.0
1138,61.0,0,14,4.0,76.0
1139,82.0,0,109,0.0,76.0
1140,82.0,0,109,1.0,76.0
1141,62.0,15,14,5.0,76.0
1142,66.0,0,14,3.0,76.0
1143,62.0,0,14,4.0,76.0
1144,64.0,0,14,3.0,76.0
1145,61.0,0,14,5.0,76.0
1146,61.0,15,14,4.0,76.0
1147,62.0,15,14,5.0,76.0
1148,62.0,0,14,4.0,76.0
1149,66.0,0,14,3.0,76.0
1150,61.0,15,14,4.0,76.0
1151,61.0,0,14,5.0,76.0
1152,64.0,0,14,3.0,76.0
1153,62.0,15,14,4.0,76.0
1154,66.0,0,14,3.0,76.0
1155,62.0,0,14,5.0,76.0
1156,64.0,0,14,3.0,76.0
1157,61.0,0,14,5.0,76.0
1158,61.0,15,14,4.0,76.0
1159,66.0,0,14,3.0,76.0
1160,62.0,15,14,4.0,76.0
1161,62.0,0,14,5.0,76.0
1162,61.0,0,14,4.0,76.0
1163,61.0,0,14,5.0,76.0
1164,64.0,15,14,3.0,76.0
1165,80.0,0,119,0.0,76.0
1166,80.0,0,119,1.0,76.0
1167,66.0,15,14,3.0,76.0
1168,62.0,0,14,4.0,76.0
1169,82.0,0,359,5.0,76.0
1170,73.0,0,359,5.0,76.0
1171,76.0,0,359,5.0,76.0
1172,62.0,0,14,5.0,76.0
1173,62.0,0,51,3.0,76.0
1174,59.0,0,51,4.0,76.0
1175,74.0,0,59,5.0,76.0
1176,71.0,0,59,5.0,76.0
1177,78.0,0,59,5.0,76.0
1178,59.0,0,59,5.0,76.0
1179,82.0,15,109,0.0,76.0
1180,73.0,0,469,2.0,76.0
1181,82.0,0,109,1.0,76.0
1182,64.0,0,51,3.0,76.0
1183,61.0,0,51,4.0,76.0
1184,76.0,0,59,5.0,76.0
1185,73.0,60,59,5.0,76.0
1186,61.0,0,59,5.0,76.0
1187,79.0,0,59,5.0,76.0
1188,78.0,0,119,5.0,76.0
1189,74.0,0,119,5.0,76.0
1190,83.0,0,119,5.0,76.0
1191,62.0,60,119,5.0,76.0
1192,62.0,0,119,4.0,76.0
1193,83.0,0,119,1.0,76.0
1194,83.0,0,119,0.0,76.0
1195,66.0,0,104,4.0,76.0
1196,81.0,120,109,0.0,76.0
1197,66.0,0,229,3.0,76.0
1198,81.0,0,109,1.0,76.0
1199,66.0,0,119,5.0,76.0
1200,81.0,0,119,5.0,76.0
1201,78.0,0,119,5.0,76.0
1202,85.0,0,119,5.0,76.0
1203,64.0,0,104,4.0,76.0
1204,79.0,0,119,1.0,76.0
1205,76.0,0,119,5.0,76.0
1206,79.0,0,119,5.0,76.0
1207,64.0,0,119,5.0,76.0
1208,83.0,0,119,5.0,76.0
1209,79.0,120,119,0.0,76.0
1210,62.0,0,104,4.0,76.0
1211,78.0,0,109,1.0,76.0
1212,59.0,0,229,3.0,76.0
1213,78.0,0,109,0.0,76.0
1214,78.0,0,119,5.0,76.0
1215,62.0,120,119,5.0,76.0
1216,74.0,0,119,5.0,76.0
1217,81.0,0,119,5.0,76.0
1218,61.0,0,104,4.0,76.0
1219,64.0,0,109,3.0,76.0
1220,83.0,0,119,5.0,76.0
1221,79.0,0,119,5.0,76.0
1222,76.0,0,119,5.0,76.0
1223,61.0,0,119,5.0,76.0
1224,76.0,120,119,1.0,76.0
1225,76.0,0,119,0.0,76.0
1226,73.0,0,119,5.0,76.0
1227,62.0,0,104,4.0,76.0
1228,74.0,0,109,0.0,76.0
1229,74.0,0,109,1.0,76.0
1230,66.0,120,109,3.0,76.0
1231,81.0,0,119,5.0,76.0
1232,74.0,0,119,5.0,76.0
1233,62.0,0,119,5.0,76.0
1234,78.0,0,119,5.0,76.0
1235,73.0,0,14,0.0,76.0
1236,74.0,15,14,0.0,76.0
1237,73.0,15,14,0.0,76.0
1238,74.0,15,14,0.0,76.0
1239,73.0,15,14,0.0,76.0
1240,74.0,15,14,0.0,76.0
1241,71.0,15,14,0.0,76.0
1242,64.0,0,104,4.0,76.0
1243,79.0,120,119,5.0,76.0
1244,83.0,0,119,5.0,76.0
1245,85.0,0,119,5.0,76.0
1246,76.0,0,119,5.0,76.0
1247,64.0,0,119,5.0,76.0
1248,73.0,15,14,0.0,76.0
1249,73.0,0,119,1.0,76.0
1250,74.0,0,71,0.0,76.0
1251,62.0,15,104,4.0,76.0
1252,71.0,0,949,2.0,76.0
1253,74.0,0,109,1.0,76.0
1254,81.0,0,119,5.0,76.0
1255,74.0,0,119,5.0,76.0
1256,62.0,0,119,5.0,76.0
1257,78.0,0,119,5.0,76.0
1258,74.0,80,39,0.0,76.0
1259,61.0,0,104,4.0,76.0
1260,70.0,0,109,2.0,76.0
1261,61.0,0,119,5.0,76.0
1262,82.0,0,119,5.0,76.0
1263,73.0,0,119,5.0,76.0
1264,76.0,0,119,5.0,76.0
1265,59.0,0,104,4.0,76.0
1266,67.0,0,469,3.0,76.0
1267,71.0,0,109,2.0,76.0
1268,59.0,0,119,5.0,76.0
1269,71.0,0,119,5.0,76.0
1270,78.0,120,119,5.0,76.0
1271,74.0,0,119,5.0,76.0
1272,58.0,0,104,4.0,76.0
1273,66.0,0,109,3.0,76.0
1274,70.0,0,119,5.0,76.0
1275,78.0,0,119,5.0,76.0
1276,73.0,0,119,5.0,76.0
1277,76.0,0,119,5.0,76.0
1278,58.0,0,119,5.0,76.0
1279,56.0,0,104,4.0,76.0
1280,68.0,120,109,3.0,76.0
1281,71.0,0,119,5.0,76.0
1282,74.0,0,119,5.0,76.0
1283,56.0,0,119,5.0,76.0
1284,68.0,0,119,5.0,76.0
1285,54.0,120,104,4.0,76.0
1286,73.0,0,119,5.0,76.0
1287,70.0,0,119,5.0,76.0
1288,54.0,0,119,5.0,76.0
1289,76.0,0,119,5.0,76.0
1290,66.0,0,119,5.0,76.0
1291,56.0,0,104,4.0,76.0
1292,76.0,40,709,1.0,76.0
1293,73.0,120,469,2.0,76.0
1294,76.0,0,709,0.0,76.0
1295,70.0,0,229,3.0,76.0
1296,56.0,0,119,5.0,76.0
1297,74.0,120,119,5.0,76.0
1298,68.0,0,119,5.0,76.0
1299,71.0,0,119,5.0,76.0
1300,66.0,0,109,3.0,76.0
1301,75.0,0,109,0.0,76.0
1302,75.0,0,119,1.0,76.0
1303,76.0,0,109,0.0,76.0
1304,76.0,0,109,1.0,76.0
1305,64.0,120,109,3.0,76.0
1306,63.0,0,109,3.0,76.0
1307,78.0,120,109,0.0,76.0
1308,78.0,0,119,1.0,76.0
1309,61.0,0,109,3.0,76.0
1310,75.0,120,109,0.0,76.0
1311,75.0,0,109,1.0,76.0
1312,69.0,0,479,5.0,76.0
1313,78.0,0,479,5.0,76.0
1314,71.0,0,479,5.0,76.0
1315,75.0,0,479,5.0,76.0
1316,71.0,0,589,2.0,76.0
1317,57.0,0,704,4.0,76.0
1318,73.0,120,109,2.0,76.0
1319,63.0,0,229,3.0,76.0
1320,69.0,120,239,5.0,76.0
1321,75.0,0,239,5.0,76.0
1322,71.0,0,239,5.0,76.0
1323,57.0,120,719,5.0,76.0
1324,56.0,0,104,4.0,76.0
1325,77.0,0,119,5.0,76.0
1326,71.0,0,119,5.0,76.0
1327,68.0,0,119,5.0,76.0
1328,56.0,0,119,5.0,76.0
1329,71.0,0,119,2.0,76.0
1330,57.0,0,104,4.0,76.0
1331,65.0,120,229,3.0,76.0
1332,69.0,0,109,2.0,76.0
1333,77.0,120,119,5.0,76.0
1334,69.0,0,119,5.0,76.0
1335,73.0,0,119,5.0,76.0
1336,57.0,0,119,5.0,76.0
1337,59.0,120,104,4.0,76.0
1338,59.0,0,119,5.0,76.0
1339,68.0,0,119,2.0,76.0
1340,71.0,0,119,5.0,76.0
1341,74.0,0,119,5.0,76.0
1342,80.0,0,119,5.0,76.0
1343,56.0,0,104,4.0,76.0
1344,74.0,0,229,3.0,76.0
1345,66.0,0,109,2.0,76.0
1346,56.0,0,119,5.0,76.0
1347,71.0,120,119,5.0,76.0
1348,74.0,0,119,5.0,76.0
1349,68.0,0,119,5.0,76.0
1350,83.0,0,829,1.0,76.0
1351,83.0,0,829,0.0,76.0
1352,73.0,0,229,3.0,76.0
1353,74.0,0,119,0.0,76.0
1354,74.0,120,119,1.0,76.0
1355,65.0,0,344,4.0,76.0
1356,73.0,0,109,1.0,76.0
1357,68.0,0,349,2.0,76.0
1358,73.0,0,109,0.0,76.0
1359,79.0,0,359,5.0,76.0
1360,65.0,0,359,5.0,76.0
1361,85.0,0,359,5.0,76.0
1362,83.0,120,359,5.0,76.0
1363,77.0,0,359,5.0,76.0
1364,83.0,0,71,0.0,76.0
1365,56.0,120,104,4.0,76.0
1366,77.0,0,109,2.0,76.0
1367,83.0,0,109,1.0,76.0
1368,56.0,0,119,5.0,76.0
1369,71.0,0,119,5.0,76.0
1370,77.0,0,119,5.0,76.0
1371,68.0,0,119,5.0,76.0
1372,83.0,80,39,0.0,76.0
1373,54.0,0,104,4.0,76.0
1374,61.0,120,349,3.0,76.0
1375,73.0,0,119,5.0,76.0
1376,54.0,0,119,5.0,76.0
1377,66.0,0,119,5.0,76.0
1378,69.0,0,119,5.0,76.0
1379,64.0,120,104,4.0,76.0
1380,73.0,0,109,3.0,76.0
1381,64.0,0,119,5.0,76.0
1382,79.0,0,119,5.0,76.0
1383,83.0,0,119,5.0,76.0
1384,76.0,0,119,5.0,76.0
1385,62.0,0,104,4.0,76.0
1386,81.0,40,349,0.0,76.0
1387,66.0,120,109,3.0,76.0
1388,78.0,0,349,2.0,76.0
1389,81.0,0,349,1.0,76.0
1390,81.0,0,119,5.0,76.0
1391,74.0,0,119,5.0,76.0
1392,78.0,0,119,5.0,76.0
1393,62.0,0,119,5.0,76.0
1394,80.0,120,71,0.0,76.0
1395,59.0,0,104,4.0,76.0
1396,71.0,0,109,3.0,76.0
1397,80.0,0,109,1.0,76.0
1398,74.0,0,109,2.0,76.0
1399,59.0,0,119,5.0,76.0
1400,74.0,0,119,5.0,76.0
1401,78.0,80,39,0.0,76.0
1402,71.0,0,119,5.0,76.0
1403,80.0,0,119,5.0,76.0
1404,77.0,0,14,1.0,76.0
1405,68.0,0,14,3.0,76.0
1406,77.0,0,14,0.0,76.0
1407,69.0,0,14,3.0,76.0
1408,78.0,0,14,0.0,76.0
1409,78.0,15,14,1.0,76.0
1410,68.0,15,14,3.0,76.0
1411,77.0,0,14,1.0,76.0
1412,77.0,0,14,0.0,76.0
1413,78.0,0,14,1.0,76.0
1414,78.0,0,14,0.0,76.0
1415,69.0,15,14,3.0,76.0
1416,77.0,0,14,0.0,76.0
1417,77.0,15,14,1.0,76.0
1418,68.0,0,14,3.0,76.0
1419,78.0,15,14,1.0,76.0
1420,78.0,0,14,0.0,76.0
1421,69.0,0,14,3.0,76.0
1422,77.0,15,14,0.0,76.0
1423,77.0,0,14,1.0,76.0
1424,68.0,0,14,3.0,76.0
1425,69.0,15,14,3.0,76.0
1426,78.0,0,14,0.0,76.0
1427,78.0,0,14,1.0,76.0
1428,77.0,15,14,1.0,76.0
1429,68.0,0,14,3.0,76.0
1430,77.0,0,14,0.0,76.0
1431,69.0,15,14,3.0,76.0
1432,78.0,0,14,1.0,76.0
1433,78.0,0,14,0.0,76.0
1434,68.0,0,14,3.0,76.0
1435,77.0,15,14,1.0,76.0
1436,77.0,0,14,0.0,76.0
1437,69.0,0,14,3.0,76.0
1438,78.0,15,14,1.0,76.0
1439,78.0,0,14,0.0,76.0
1440,68.0,0,14,3.0,76.0
1441,77.0,0,14,0.0,76.0
1442,77.0,15,14,1.0,76.0
1443,69.0,15,14,3.0,76.0
1444,78.0,0,14,0.0,76.0
1445,78.0,0,14,1.0,76.0
1446,68.0,15,14,3.0,76.0
1447,61.0,0,224,4.0,76.0
1448,77.0,0,14,0.0,76.0
1449,77.0,0,14,1.0,76.0
1450,73.0,0,229,2.0,76.0
1451,78.0,0,14,0.0,76.0
1452,69.0,0,14,3.0,76.0
1453,78.0,15,14,1.0,76.0
1454,77.0,0,239,5.0,76.0
1455,80.0,0,239,5.0,76.0
1456,61.0,0,239,5.0,76.0
1457,73.0,40,239,5.0,76.0
1458,77.0,15,14,1.0,76.0
1459,68.0,0,14,3.0,76.0
1460,77.0,0,14,0.0,76.0
1461,78.0,15,14,1.0,76.0
1462,69.0,0,14,3.0,76.0
1463,78.0,0,14,0.0,76.0
1464,77.0,0,14,0.0,76.0
1465,68.0,0,14,3.0,76.0
1466,77.0,15,14,1.0,76.0
1467,78.0,0,14,1.0,76.0
1468,78.0,15,14,0.0,76.0
1469,69.0,0,14,3.0,76.0
1470,77.0,15,14,1.0,76.0
1471,77.0,0,14,0.0,76.0
1472,68.0,0,14,3.0,76.0
1473,69.0,0,14,3.0,76.0
1474,78.0,0,14,0.0,76.0
1475,78.0,15,14,1.0,76.0
1476,74.0,0,14,1.0,76.0
1477,74.0,15,14,0.0,76.0
1478,66.0,0,14,3.0,76.0
1479,77.0,15,14,0.0,76.0
1480,68.0,0,14,3.0,76.0
1481,77.0,0,14,1.0,76.0
1482,49.0,0,224,4.0,76.0
1483,73.0,0,229,2.0,76.0
1484,78.0,0,109,1.0,76.0
1485,70.0,0,109,3.0,76.0
1486,78.0,15,109,0.0,76.0
1487,68.0,0,239,5.0,76.0
1488,61.0,0,239,5.0,76.0
1489,65.0,0,239,5.0,76.0
1490,49.0,0,239,5.0,76.0
1491,42.0,0,464,4.0,76.0
1492,78.0,0,469,1.0,76.0
1493,73.0,0,469,2.0,76.0
1494,70.0,0,469,3.0,76.0
1495,78.0,120,469,0.0,76.0
1496,54.0,0,479,5.0,76.0
1497,57.0,0,479,5.0,76.0
1498,42.0,0,479,5.0,76.0
1499,61.0,0,479,5.0,76.0
1500,73.0,480,191,1.0,76.0
1501,73.0,0,191,0.0,76.0
1502,71.0,200,39,1.0,76.0
1503,71.0,0,39,0.0,76.0
1504,70.0,40,14,1.0,76.0
1505,70.0,0,14,0.0,76.0
1506,71.0,15,14,1.0,76.0
1507,71.0,0,14,0.0,76.0
1508,70.0,0,14,0.0,76.0
1509,70.0,15,14,1.0,76.0
1510,71.0,15,14,0.0,76.0
1511,71.0,0,14,1.0,76.0
1512,70.0,15,14,0.0,76.0
1513,70.0,0,14,1.0,76.0
1514,71.0,0,14,1.0,76.0
1515,71.0,15,14,0.0,76.0
1516,70.0,0,14,0.0,76.0
1517,70.0,15,14,1.0,76.0
1518,71.0,0,14,1.0,76.0
1519,71.0,15,14,0.0,76.0
1520,70.0,15,14,0.0,76.0
1521,70.0,0,14,1.0,76.0
1522,71.0,0,14,0.0,76.0
1523,71.0,15,14,1.0,76.0
1524,70.0,15,14,0.0,76.0
1525,70.0,0,14,1.0,76.0
1526,71.0,0,14,1.0,76.0
1527,71.0,15,14,0.0,76.0
1528,70.0,15,14,1.0,76.0
1529,70.0,0,14,0.0,76.0
1530,71.0,0,14,0.0,76.0
1531,71.0,15,14,1.0,76.0
1532,70.0,15,14,0.0,76.0
1533,70.0,0,14,1.0,76.0
1534,71.0,0,14,1.0,76.0
1535,71.0,15,14,0.0,76.0
1536,70.0,15,14,1.0,76.0
1537,70.0,0,14,0.0,76.0
1538,71.0,15,14,1.0,76.0
1539,71.0,0,14,0.0,76.0
1540,70.0,0,14,0.0,76.0
1541,70.0,15,14,1.0,76.0
1542,71.0,15,14,1.0,76.0
1543,71.0,0,14,0.0,76.0
1544,70.0,15,14,1.0,76.0
1545,70.0,0,14,0.0,76.0
1546,71.0,15,14,1.0,76.0
1547,71.0,0,14,0.0,76.0
1548,67.0,15,14,0.0,76.0
1549,67.0,0,14,1.0,76.0
1550,70.0,0,14,1.0,76.0
1551,70.0,15,14,0.0,76.0
1552,71.0,15,109,1.0,76.0
1553,71.0,0,109,0.0,76.0
1554,73.0,120,229,0.0,76.0
1555,73.0,0,229,1.0,76.0
1556,54.0,0,229,4.0,76.0
1557,70.0,0,239,5.0,76.0
1558,66.0,0,239,5.0,76.0
1559,54.0,0,239,5.0,76.0
1560,73.0,0,239,5.0,76.0
1561,70.0,0,349,2.0,76.0
1562,66.0,0,349,3.0,76.0
1563,66.0,0,229,1.0,76.0
1564,76.0,120,109,2.0,76.0
1565,67.0,0,109,3.0,76.0
1566,66.0,0,229,0.0,76.0
1567,73.0,0,239,5.0,76.0
1568,66.0,240,239,5.0,76.0
1569,69.0,0,239,5.0,76.0
1570,62.0,0,239,5.0,76.0
1571,66.0,0,109,3.0,76.0
1572,50.0,0,349,4.0,76.0
1573,74.0,120,119,2.0,76.0
1574,50.0,0,359,5.0,76.0
1575,71.0,0,119,5.0,76.0
1576,62.0,0,119,5.0,76.0
1577,66.0,0,119,5.0,76.0
1578,64.0,0,109,3.0,76.0
1579,73.0,120,109,2.0,76.0
1580,52.0,0,109,4.0,76.0
1581,64.0,0,119,5.0,76.0
1582,52.0,0,119,5.0,76.0
1583,67.0,0,119,5.0,76.0
1584,71.0,0,119,5.0,76.0
1585,78.0,0,349,0.0,76.0
1586,78.0,0,349,1.0,76.0
1587,62.0,0,109,3.0,76.0
1588,73.0,0,119,5.0,76.0
1589,78.0,0,119,5.0,76.0
1590,71.0,120,119,2.0,76.0
1591,70.0,0,119,5.0,76.0
1592,66.0,0,119,5.0,76.0
1593,76.0,0,109,1.0,76.0
1594,70.0,0,109,2.0,76.0
1595,61.0,0,109,3.0,76.0
1596,76.0,0,109,0.0,76.0
1597,54.0,0,229,4.0,76.0
1598,66.0,0,119,5.0,76.0
1599,70.0,0,119,5.0,76.0
1600,76.0,0,119,5.0,76.0
1601,54.0,0,239,5.0,76.0
1602,73.0,120,119,5.0,76.0
1603,74.0,0,119,1.0,76.0
1604,74.0,0,119,0.0,76.0
1605,47.0,0,229,4.0,76.0
1606,73.0,120,109,1.0,76.0
1607,73.0,0,109,0.0,76.0
1608,59.0,0,229,3.0,76.0
1609,47.0,0,239,5.0,76.0
1610,59.0,0,239,5.0,76.0
1611,62.0,0,239,5.0,76.0
1612,66.0,120,239,5.0,76.0
1613,76.0,0,119,0.0,76.0
1614,76.0,120,119,1.0,76.0
1615,74.0,0,109,0.0,76.0
1616,54.0,0,229,3.0,76.0
1617,74.0,120,109,1.0,76.0
1618,59.0,0,349,4.0,76.0
1619,73.0,0,119,0.0,76.0
1620,73.0,0,119,1.0,76.0
1621,74.0,0,359,5.0,76.0
1622,59.0,0,359,5.0,76.0
1623,71.0,0,359,5.0,76.0
1624,78.0,0,359,5.0,76.0
1625,71.0,0,109,0.0,76.0
1626,66.0,120,229,3.0,76.0
1627,71.0,0,109,1.0,76.0
1628,57.0,0,109,4.0,76.0
1629,69.0,0,119,5.0,76.0
1630,78.0,120,119,5.0,76.0
1631,57.0,0,119,5.0,76.0
1632,74.0,0,119,5.0,76.0
1633,71.0,0,829,2.0,76.0
1634,56.0,0,109,4.0,76.0
1635,76.0,0,119,5.0,76.0
1636,71.0,0,119,5.0,76.0
1637,68.0,120,119,5.0,76.0
1638,56.0,0,119,5.0,76.0
1639,54.0,0,109,4.0,76.0
1640,69.0,120,109,2.0,76.0
1641,66.0,0,119,5.0,76.0
1642,54.0,0,119,5.0,76.0
1643,69.0,0,119,5.0,76.0
1644,73.0,0,119,5.0,76.0
1645,57.0,120,109,4.0,76.0
1646,69.0,0,119,5.0,76.0
1647,76.0,0,119,5.0,76.0
1648,73.0,0,119,5.0,76.0
1649,57.0,0,119,5.0,76.0
1650,56.0,120,109,4.0,76.0
1651,76.0,0,469,1.0,76.0
1652,76.0,0,469,0.0,76.0
1653,71.0,0,229,2.0,76.0
1654,56.0,0,119,5.0,76.0
1655,74.0,0,119,5.0,76.0
1656,71.0,0,119,5.0,76.0
1657,68.0,0,119,5.0,76.0
1658,54.0,0,109,4.0,76.0
1659,66.0,0,119,5.0,76.0
1660,54.0,0,119,5.0,76.0
1661,67.0,0,119,5.0,76.0
1662,71.0,0,119,5.0,76.0
1663,74.0,0,119,5.0,76.0
1664,52.0,120,109,4.0,76.0
1665,68.0,0,229,2.0,76.0
1666,64.0,0,119,5.0,76.0
1667,52.0,0,119,5.0,76.0
1668,71.0,0,119,5.0,76.0
1669,67.0,0,119,5.0,76.0
1670,64.0,0,829,3.0,76.0
1671,66.0,120,109,3.0,76.0
1672,74.0,0,469,0.0,76.0
1673,74.0,120,469,1.0,76.0
1674,69.0,0,239,5.0,76.0
1675,76.0,0,239,5.0,76.0
1676,74.0,0,239,5.0,76.0
1677,64.0,0,109,3.0,76.0
1678,73.0,120,109,1.0,76.0
1679,73.0,0,119,0.0,76.0
1680,74.0,120,109,0.0,76.0
1681,62.0,0,109,3.0,76.0
1682,57.0,120,469,4.0,76.0
1683,74.0,0,109,1.0,76.0
1684,57.0,0,479,5.0,76.0
1685,76.0,0,239,5.0,76.0
1686,73.0,0,239,5.0,76.0
1687,69.0,0,239,5.0,76.0
1688,76.0,0,109,1.0,76.0
1689,61.0,0,109,3.0,76.0
1690,76.0,0,119,0.0,76.0
1691,73.0,120,109,0.0,76.0
1692,73.0,0,109,1.0,76.0
1693,59.0,0,109,3.0,76.0
1694,69.0,120,239,5.0,76.0
1695,67.0,0,239,5.0,76.0
1696,76.0,0,239,5.0,76.0
1697,73.0,0,239,5.0,76.0
1698,69.0,0,829,2.0,76.0
1699,61.0,120,229,3.0,76.0
1700,69.0,0,229,0.0,76.0
1701,69.0,0,229,1.0,76.0
1702,67.0,120,109,2.0,76.0
1703,55.0,0,469,4.0,76.0
1704,76.0,0,239,5.0,76.0
1705,55.0,0,479,5.0,76.0
1706,69.0,0,239,5.0,76.0
1707,73.0,0,239,5.0,76.0
1708,67.0,0,239,5.0,76.0
1709,54.0,0,109,4.0,76.0
1710,69.0,0,109,2.0,76.0
1711,66.0,0,119,5.0,76.0
1712,54.0,0,119,5.0,76.0
1713,69.0,0,119,5.0,76.0
1714,74.0,0,119,5.0,76.0
1715,71.0,0,109,2.0,76.0
1716,55.0,0,109,4.0,76.0
1717,55.0,0,119,5.0,76.0
1718,71.0,0,119,5.0,76.0
1719,74.0,120,119,5.0,76.0
1720,67.0,0,119,5.0,76.0
1721,81.0,120,239,1.0,76.0
1722,81.0,0,239,0.0,76.0
1723,57.0,0,109,4.0,76.0
1724,62.0,0,349,3.0,76.0
1725,78.0,120,119,5.0,76.0
1726,72.0,0,119,5.0,76.0
1727,74.0,0,119,5.0,76.0
1728,57.0,0,119,5.0,76.0
1729,69.0,0,119,5.0,76.0
1730,57.0,0,109,3.0,76.0
1731,54.0,0,109,4.0,76.0
1732,72.0,120,119,5.0,76.0
1733,66.0,0,119,5.0,76.0
1734,54.0,0,119,5.0,76.0
1735,69.0,0,119,5.0,76.0
1736,72.0,0,349,2.0,76.0
1737,50.0,120,229,4.0,76.0
1738,69.0,0,109,2.0,76.0
1739,79.0,0,109,0.0,76.0
1740,79.0,120,109,1.0,76.0
1741,69.0,0,239,5.0,76.0
1742,62.0,0,239,5.0,76.0
1743,50.0,0,239,5.0,76.0
1744,72.0,0,239,5.0,76.0
1745,66.0,0,239,5.0,76.0
1746,78.0,0,109,1.0,76.0
1747,78.0,0,109,0.0,76.0
1748,74.0,120,119,2.0,76.0
1749,79.0,0,59,1.0,76.0
1750,79.0,0,59,0.0,76.0
1751,69.0,0,469,3.0,76.0
1752,72.0,120,109,2.0,76.0
1753,81.0,60,51,0.0,76.0
1754,81.0,0,51,1.0,76.0
1755,62.0,0,239,5.0,76.0
1756,74.0,0,239,5.0,76.0
1757,78.0,0,239,5.0,76.0
1758,62.0,0,239,4.0,76.0
1759,81.0,0,239,5.0,76.0
1760,74.0,0,109,1.0,76.0
1761,74.0,60,109,0.0,76.0
1762,71.0,0,119,2.0,76.0
1763,72.0,0,109,0.0,76.0
1764,72.0,0,109,1.0,76.0
1765,66.0,0,229,3.0,76.0
1766,69.0,120,109,2.0,76.0
1767,71.0,0,14,0.0,76.0
1768,73.0,15,14,0.0,76.0
1769,71.0,15,14,0.0,76.0
1770,73.0,15,14,0.0,76.0
1771,71.0,15,14,0.0,76.0
1772,73.0,15,14,0.0,76.0
1773,69.0,15,14,0.0,76.0
1774,71.0,120,119,1.0,76.0
1775,71.0,15,14,0.0,76.0
1776,69.0,15,109,1.0,76.0
1777,67.0,0,229,2.0,76.0
1778,60.0,0,109,4.0,76.0
1779,69.0,0,109,0.0,76.0
1780,79.0,0,119,5.0,76.0
1781,60.0,0,119,5.0,76.0
1782,74.0,0,119,5.0,76.0
1783,72.0,0,119,5.0,76.0
1784,59.0,0,109,4.0,76.0
1785,79.0,0,119,5.0,76.0
1786,74.0,120,119,5.0,76.0
1787,71.0,0,119,5.0,76.0
1788,59.0,0,119,5.0,76.0
1789,60.0,0,51,4.0,76.0
1790,72.0,120,59,5.0,76.0
1791,60.0,0,59,5.0,76.0
1792,79.0,0,59,5.0,76.0
1793,74.0,0,59,5.0,76.0
1794,67.0,0,229,1.0,76.0
1795,62.0,0,229,2.0,76.0
1796,67.0,0,229,0.0,76.0
1797,62.0,60,51,4.0,76.0
1798,78.0,0,59,5.0,76.0
1799,62.0,0,59,5.0,76.0
1800,81.0,0,59,5.0,76.0
1801,74.0,0,59,5.0,76.0
1802,55.0,0,109,4.0,76.0
1803,62.0,0,589,3.0,76.0
1804,74.0,60,119,5.0,76.0
1805,71.0,0,119,5.0,76.0
1806,67.0,0,119,5.0,76.0
1807,55.0,0,119,5.0,76.0
1808,67.0,0,229,2.0,76.0
1809,59.0,0,109,3.0,76.0
1810,54.0,0,109,4.0,76.0
1811,69.0,0,119,5.0,76.0
1812,66.0,120,119,5.0,76.0
1813,72.0,0,119,5.0,76.0
1814,54.0,0,119,5.0,76.0
1815,52.0,0,109,4.0,76.0
1816,61.0,0,109,3.0,76.0
1817,52.0,0,119,5.0,76.0
1818,73.0,0,119,5.0,76.0
1819,64.0,0,119,5.0,76.0
1820,71.0,0,119,5.0,76.0
1821,67.0,120,119,5.0,76.0
1822,79.0,0,119,2.0,76.0
1823,83.0,0,469,0.0,76.0
1824,78.0,0,109,2.0,76.0
1825,50.0,0,109,4.0,76.0
1826,62.0,120,109,3.0,76.0
1827,83.0,0,469,1.0,76.0
1828,66.0,0,119,5.0,76.0
1829,69.0,0,119,5.0,76.0
1830,62.0,0,119,5.0,76.0
1831,50.0,0,119,5.0,76.0
1832,64.0,0,109,3.0,76.0
1833,82.0,0,119,0.0,76.0
1834,82.0,0,119,1.0,76.0
1835,76.0,0,119,2.0,76.0
1836,83.0,0,109,1.0,76.0
1837,83.0,0,109,0.0,76.0
1838,49.0,0,229,4.0,76.0
1839,74.0,120,109,2.0,76.0
1840,66.0,0,109,3.0,76.0
1841,70.0,0,239,5.0,76.0
1842,64.0,0,239,5.0,76.0
1843,49.0,120,239,5.0,76.0
1844,61.0,0,239,5.0,76.0
1845,76.0,0,119,2.0,76.0
1846,85.0,0,119,0.0,76.0
1847,85.0,120,119,1.0,76.0
1848,67.0,0,229,3.0,76.0
1849,82.0,0,109,0.0,76.0
1850,82.0,120,109,1.0,76.0
1851,73.0,0,109,2.0,76.0
1852,79.0,0,239,5.0,76.0
1853,76.0,0,239,5.0,76.0
1854,85.0,0,239,5.0,76.0
1855,70.0,120,119,2.0,76.0
1856,73.0,120,109,2.0,76.0
1857,64.0,0,469,4.0,76.0
1858,61.0,0,229,3.0,76.0
1859,78.0,0,229,1.0,76.0
1860,78.0,0,229,0.0,76.0
1861,64.0,0,479,5.0,76.0
1862,82.0,0,239,5.0,76.0
1863,78.0,0,239,5.0,76.0
1864,85.0,0,239,5.0,76.0
1865,76.0,0,239,5.0,76.0
1866,63.0,0,109,4.0,76.0
1867,83.0,120,119,5.0,76.0
1868,71.0,0,119,2.0,76.0
1869,78.0,0,119,5.0,76.0
1870,75.0,0,119,5.0,76.0
1871,63.0,0,119,5.0,76.0
1872,73.0,0,109,2.0,76.0
1873,83.0,0,229,0.0,76.0
1874,83.0,0,229,1.0,76.0
1875,64.0,0,109,4.0,76.0
1876,79.0,0,119,5.0,76.0
1877,83.0,120,119,5.0,76.0
1878,76.0,0,119,5.0,76.0
1879,64.0,0,119,5.0,76.0
1880,66.0,120,109,4.0,76.0
1881,78.0,0,119,5.0,76.0
1882,66.0,0,119,5.0,76.0
1883,87.0,0,119,5.0,76.0
1884,81.0,0,119,5.0,76.0
1885,63.0,120,109,4.0,76.0
1886,78.0,0,119,5.0,76.0
1887,81.0,0,119,5.0,76.0
1888,63.0,0,119,5.0,76.0
1889,75.0,0,119,5.0,76.0
1890,81.0,0,349,1.0,76.0
1891,81.0,0,349,0.0,76.0
1892,75.0,0,349,2.0,76.0
1893,66.0,0,589,3.0,76.0
1894,79.0,120,51,0.0,76.0
1895,79.0,0,51,1.0,76.0
1896,76.0,0,59,2.0,76.0
1897,64.0,0,59,3.0,76.0
1898,59.0,0,229,4.0,76.0
1899,78.0,0,51,2.0,76.0
1900,63.0,0,51,3.0,76.0
1901,78.0,60,51,0.0,76.0
1902,78.0,0,51,1.0,76.0
1903,59.0,120,239,5.0,76.0
1904,81.0,0,239,5.0,76.0
1905,75.0,0,239,5.0,76.0
1906,78.0,0,239,5.0,76.0
1907,71.0,0,239,5.0,76.0
1908,79.0,0,119,0.0,76.0
1909,79.0,0,119,1.0,76.0
1910,83.0,0,109,1.0,76.0
1911,64.0,0,229,3.0,76.0
1912,64.0,60,229,4.0,76.0
1913,83.0,120,109,0.0,76.0
1914,79.0,0,239,5.0,76.0
1915,83.0,0,239,5.0,76.0
1916,64.0,0,239,5.0,76.0
1917,76.0,0,239,5.0,76.0
1918,78.0,120,119,0.0,76.0
1919,78.0,0,119,1.0,76.0
1920,83.0,0,109,1.0,76.0
1921,66.0,0,229,3.0,76.0
1922,83.0,120,109,0.0,76.0
1923,83.0,0,239,5.0,76.0
1924,78.0,0,239,5.0,76.0
1925,74.0,0,239,5.0,76.0
1926,62.0,0,349,4.0,76.0
1927,71.0,0,589,2.0,76.0
1928,79.0,0,119,5.0,76.0
1929,74.0,0,119,5.0,76.0
1930,83.0,0,119,5.0,76.0
1931,62.0,0,359,5.0,76.0
1932,76.0,0,119,5.0,76.0
1933,61.0,0,51,4.0,76.0
1934,76.0,0,59,5.0,76.0
1935,61.0,0,59,5.0,76.0
1936,73.0,0,59,5.0,76.0
1937,79.0,0,59,5.0,76.0
1938,76.0,120,109,2.0,76.0
1939,59.0,60,51,4.0,76.0
1940,74.0,0,59,5.0,76.0
1941,78.0,0,59,5.0,76.0
1942,71.0,0,59,5.0,76.0
1943,59.0,0,59,5.0,76.0
1944,61.0,0,109,4.0,76.0
1945,70.0,0,109,2.0,76.0
1946,76.0,0,119,5.0,76.0
1947,61.0,0,119,5.0,76.0
1948,82.0,0,119,5.0,76.0
1949,73.0,60,119,5.0,76.0
1950,64.0,0,109,4.0,76.0
1951,71.0,0,109,2.0,76.0
1952,83.0,0,119,5.0,76.0
1953,79.0,120,119,5.0,76.0
1954,76.0,0,119,5.0,76.0
1955,64.0,0,119,5.0,76.0
1956,76.0,120,589,0.0,76.0
1957,59.0,120,109,4.0,76.0
1958,67.0,0,589,3.0,76.0
1959,76.0,0,589,1.0,76.0
1960,76.0,0,119,5.0,76.0
1961,79.0,0,119,5.0,76.0
1962,71.0,0,119,5.0,76.0
1963,59.0,0,119,5.0,76.0
1964,64.0,0,109,4.0,76.0
1965,67.0,0,109,0.0,76.0
1966,64.0,0,109,3.0,76.0
1967,67.0,0,109,1.0,76.0
1968,76.0,0,119,5.0,76.0
1969,64.0,0,119,5.0,76.0
1970,79.0,0,119,5.0,76.0
1971,83.0,120,119,5.0,76.0
1972,73.0,0,349,2.0,76.0
1973,66.0,0,109,0.0,76.0
1974,66.0,120,119,1.0,76.0
1975,61.0,0,229,3.0,76.0
1976,76.0,120,109,0.0,76.0
1977,76.0,0,109,1.0,76.0
1978,67.0,0,119,2.0,76.0
1979,62.0,0,109,3.0,76.0
1980,74.0,0,119,0.0,76.0
1981,66.0,0,119,2.0,76.0
1982,74.0,120,119,1.0,76.0
1983,73.0,120,109,0.0,76.0
1984,73.0,0,109,1.0,76.0
1985,64.0,0,109,2.0,76.0
1986,64.0,0,109,3.0,76.0
1987,58.0,0,589,4.0,76.0
1988,73.0,0,599,5.0,76.0
1989,78.0,0,119,1.0,76.0
1990,78.0,0,119,0.0,76.0
1991,70.0,0,599,5.0,76.0
1992,78.0,0,599,5.0,76.0
1993,76.0,0,599,5.0,76.0
1994,58.0,0,599,5.0,76.0
1995,76.0,120,109,1.0,76.0
1996,49.0,0,109,4.0,76.0
1997,58.0,120,229,3.0,76.0
1998,76.0,0,109,0.0,76.0
1999,73.0,0,229,2.0,76.0
2000,70.0,0,119,5.0,76.0
2001,64.0,0,119,5.0,76.0
2002,49.0,0,119,5.0,76.0
2003,61.0,0,119,5.0,76.0
2004,59.0,0,109,3.0,76.0
2005,47.0,0,109,4.0,76.0
2006,74.0,0,109,1.0,76.0
2007,47.0,0,119,5.0,76.0
2008,62.0,0,119,5.0,76.0
2009,66.0,0,119,5.0,76.0
2010,74.0,120,119,0.0,76.0
2011,59.0,0,119,5.0,76.0
2012,73.0,0,109,0.0,76.0
2013,66.0,0,229,2.0,76.0
2014,57.0,0,109,4.0,76.0
2015,61.0,0,109,3.0,76.0
2016,73.0,0,119,1.0,76.0
2017,78.0,0,119,5.0,76.0
2018,57.0,0,119,5.0,76.0
2019,69.0,0,119,5.0,76.0
2020,73.0,120,119,5.0,76.0
2021,55.0,0,109,4.0,76.0
2022,62.0,0,109,3.0,76.0
2023,71.0,0,109,1.0,76.0
2024,71.0,120,119,0.0,76.0
2025,74.0,0,119,5.0,76.0
2026,55.0,0,119,5.0,76.0
2027,71.0,0,119,5.0,76.0
2028,67.0,0,119,5.0,76.0
2029,59.0,0,119,2.0,76.0
2030,70.0,0,109,1.0,76.0
2031,61.0,120,109,2.0,76.0
2032,64.0,0,109,3.0,76.0
2033,70.0,0,109,0.0,76.0
2034,54.0,0,109,4.0,76.0
2035,54.0,0,119,5.0,76.0
2036,76.0,0,119,5.0,76.0
2037,66.0,0,119,5.0,76.0
2038,70.0,0,119,5.0,76.0
2039,73.0,0,119,5.0,76.0
2040,59.0,0,109,4.0,76.0
2041,62.0,0,119,2.0,76.0
2042,74.0,0,119,5.0,76.0
2043,71.0,0,119,5.0,76.0
2044,78.0,0,119,5.0,76.0
2045,59.0,120,119,5.0,76.0
2046,57.0,0,109,4.0,76.0
2047,66.0,0,109,2.0,76.0
2048,76.0,0,119,5.0,76.0
2049,73.0,0,119,5.0,76.0
2050,71.0,0,239,0.0,76.0
2051,71.0,0,239,1.0,76.0
2052,57.0,0,119,5.0,76.0
2053,69.0,120,119,5.0,76.0
2054,55.0,120,109,4.0,76.0
2055,62.0,0,349,3.0,76.0
2056,64.0,0,109,2.0,76.0
2057,74.0,0,119,5.0,76.0
2058,71.0,0,119,5.0,76.0
2059,67.0,0,119,5.0,76.0
2060,55.0,0,119,5.0,76.0
2061,52.0,0,109,4.0,76.0
2062,73.0,0,109,0.0,76.0
2063,67.0,0,109,2.0,76.0
2064,64.0,0,109,3.0,76.0
2065,73.0,120,109,1.0,76.0
2066,64.0,0,119,5.0,76.0
2067,73.0,0,119,5.0,76.0
2068,67.0,0,119,5.0,76.0
2069,71.0,0,119,5.0,76.0
2070,52.0,0,119,5.0,76.0
2071,73.0,0,14,1.0,76.0
2072,73.0,0,14,0.0,76.0
2073,74.0,0,14,1.0,76.0
2074,74.0,15,14,0.0,76.0
2075,73.0,0,14,0.0,76.0
2076,73.0,15,14,1.0,76.0
2077,74.0,15,14,0.0,76.0
2078,74.0,0,14,1.0,76.0
2079,73.0,15,14,0.0,76.0
2080,73.0,0,14,1.0,76.0
2081,74.0,15,14,0.0,76.0
2082,74.0,0,14,1.0,76.0
2083,73.0,0,14,1.0,76.0
2084,73.0,15,14,0.0,76.0
2085,74.0,15,14,0.0,76.0
2086,74.0,0,14,1.0,76.0
2087,73.0,15,14,1.0,76.0
2088,73.0,0,14,0.0,76.0
2089,74.0,0,14,0.0,76.0
2090,74.0,15,14,1.0,76.0
2091,73.0,0,14,1.0,76.0
2092,73.0,15,14,0.0,76.0
2093,74.0,0,14,1.0,76.0
2094,74.0,15,14,0.0,76.0
2095,73.0,15,14,1.0,76.0
2096,73.0,0,14,0.0,76.0
2097,74.0,15,14,1.0,76.0
2098,74.0,0,14,0.0,76.0
2099,73.0,0,14,1.0,76.0
2100,73.0,15,14,0.0,76.0
2101,66.0,120,229,2.0,76.0
2102,54.0,0,229,4.0,76.0
2103,58.0,0,229,3.0,76.0
2104,70.0,0,239,5.0,76.0
2105,73.0,0,239,5.0,76.0
2106,66.0,0,239,5.0,76.0
2107,74.0,15,14,0.0,76.0
2108,54.0,0,239,5.0,76.0
2109,74.0,0,14,1.0,76.0
2110,73.0,0,14,0.0,76.0
2111,73.0,0,14,1.0,76.0
2112,74.0,0,14,1.0,76.0
2113,74.0,15,14,0.0,76.0
2114,73.0,0,14,1.0,76.0
2115,73.0,15,14,0.0,76.0
2116,74.0,0,14,0.0,76.0
2117,74.0,15,14,1.0,76.0
2118,73.0,15,14,1.0,76.0
2119,73.0,0,14,0.0,76.0
2120,74.0,0,14,0.0,76.0
2121,74.0,15,14,1.0,76.0
2122,71.0,15,14,0.0,76.0
2123,71.0,0,14,1.0,76.0
2124,73.0,15,14,1.0,76.0
2125,73.0,0,14,0.0,76.0
2126,58.0,0,229,3.0,76.0
2127,71.0,15,109,1.0,76.0
2128,71.0,0,109,0.0,76.0
2129,42.0,0,229,4.0,76.0
2130,66.0,15,229,2.0,76.0
2131,42.0,0,239,5.0,76.0
2132,61.0,0,239,5.0,76.0
2133,58.0,0,239,5.0,76.0
2134,54.0,0,239,5.0,76.0
2135,66.0,0,469,2.0,76.0
2136,62.0,0,469,3.0,76.0
2137,47.0,0,469,4.0,76.0
2138,71.0,0,469,0.0,76.0
2139,71.0,0,469,1.0,76.0
2140,59.0,0,479,5.0,76.0
2141,62.0,120,479,5.0,76.0
2142,47.0,0,479,5.0,76.0
2143,66.0,0,479,5.0,76.0
2144,73.0,480,191,0.0,76.0
2145,73.0,0,191,1.0,76.0
2146,71.0,200,39,0.0,76.0
2147,71.0,0,39,1.0,76.0
2148,70.0,0,14,1.0,76.0
2149,70.0,40,14,0.0,76.0
2150,71.0,0,14,0.0,76.0
2151,71.0,15,14,1.0,76.0
2152,70.0,15,14,1.0,76.0
2153,70.0,0,14,0.0,76.0
2154,71.0,15,14,1.0,76.0
2155,71.0,0,14,0.0,76.0
2156,70.0,15,14,1.0,76.0
2157,70.0,0,14,0.0,76.0
2158,71.0,0,14,0.0,76.0
2159,71.0,15,14,1.0,76.0
2160,70.0,15,14,0.0,76.0
2161,70.0,0,14,1.0,76.0
2162,71.0,15,14,0.0,76.0
2163,71.0,0,14,1.0,76.0
2164,70.0,0,14,0.0,76.0
2165,70.0,15,14,1.0,76.0
2166,71.0,15,14,0.0,76.0
2167,71.0,0,14,1.0,76.0
2168,70.0,15,14,1.0,76.0
2169,70.0,0,14,0.0,76.0
2170,71.0,15,14,1.0,76.0
2171,71.0,0,14,0.0,76.0
2172,70.0,0,14,0.0,76.0
2173,70.0,15,14,1.0,76.0
2174,71.0,0,14,0.0,76.0
2175,71.0,15,14,1.0,76.0
2176,70.0,0,14,1.0,76.0
2177,70.0,15,14,0.0,76.0
2178,71.0,0,14,0.0,76.0
2179,71.0,15,14,1.0,76.0
2180,70.0,0,14,1.0,76.0
2181,70.0,15,14,0.0,76.0
2182,71.0,15,14,0.0,76.0
2183,71.0,0,14,1.0,76.0
2184,70.0,0,14,0.0,76.0
2185,70.0,15,14,1.0,76.0
2186,71.0,0,14,0.0,76.0
2187,71.0,15,14,1.0,76.0
2188,70.0,0,14,1.0,76.0
2189,70.0,15,14,0.0,76.0
2190,71.0,15,14,0.0,76.0
2191,71.0,0,14,1.0,76.0
2192,67.0,15,14,0.0,76.0
2193,67.0,0,14,1.0,76.0
2194,70.0,15,14,0.0,76.0
2195,70.0,0,14,1.0,76.0
2196,71.0,0,109,1.0,76.0
2197,71.0,15,109,0.0,76.0
2198,73.0,0,229,0.0,76.0
2199,54.0,0,229,4.0,76.0
2200,73.0,0,229,1.0,76.0
2201,70.0,0,239,5.0,76.0
2202,73.0,0,239,5.0,76.0
2203,66.0,0,239,5.0,76.0
2204,54.0,0,239,5.0,76.0
2205,66.0,0,349,3.0,76.0
2206,70.0,120,349,2.0,76.0
2207,66.0,0,229,0.0,76.0
2208,66.0,240,229,1.0,76.0
2209,67.0,120,109,3.0,76.0
2210,76.0,0,109,2.0,76.0
2211,62.0,0,239,5.0,76.0
2212,73.0,0,239,5.0,76.0
2213,66.0,0,239,5.0,76.0
2214,69.0,0,239,5.0,76.0
2215,50.0,0,349,4.0,76.0
2216,66.0,120,109,3.0,76.0
2217,50.0,0,359,5.0,76.0
2218,66.0,0,119,5.0,76.0
2219,71.0,0,119,5.0,76.0
2220,62.0,0,119,5.0,76.0
2221,74.0,0,119,2.0,76.0
2222,52.0,120,109,4.0,76.0
2223,73.0,0,109,2.0,76.0
2224,64.0,0,109,3.0,76.0
2225,67.0,0,119,5.0,76.0
2226,71.0,0,119,5.0,76.0
2227,52.0,0,119,5.0,76.0
2228,64.0,0,119,5.0,76.0
2229,78.0,0,349,0.0,76.0
2230,78.0,0,349,1.0,76.0
2231,62.0,0,109,3.0,76.0
2232,71.0,0,119,2.0,76.0
2233,70.0,0,119,5.0,76.0
2234,66.0,120,119,5.0,76.0
2235,78.0,0,119,5.0,76.0
2236,73.0,0,119,5.0,76.0
2237,76.0,0,109,1.0,76.0
2238,54.0,0,229,4.0,76.0
2239,70.0,0,109,2.0,76.0
2240,61.0,0,109,3.0,76.0
2241,76.0,0,109,0.0,76.0
2242,66.0,120,119,5.0,76.0
2243,70.0,0,119,5.0,76.0
2244,76.0,0,119,5.0,76.0
2245,54.0,0,239,5.0,76.0
2246,73.0,0,119,5.0,76.0
2247,74.0,120,119,0.0,76.0
2248,74.0,0,119,1.0,76.0
2249,73.0,0,109,1.0,76.0
2250,73.0,120,109,0.0,76.0
2251,47.0,0,229,4.0,76.0
2252,59.0,0,229,3.0,76.0
2253,47.0,0,239,5.0,76.0
2254,66.0,0,239,5.0,76.0
2255,59.0,0,239,5.0,76.0
2256,62.0,0,239,5.0,76.0
2257,76.0,0,119,1.0,76.0
2258,76.0,0,119,0.0,76.0
2259,74.0,120,109,1.0,76.0
2260,74.0,0,109,0.0,76.0
2261,54.0,0,229,3.0,76.0
2262,59.0,120,349,4.0,76.0
2263,73.0,120,119,0.0,76.0
2264,59.0,0,359,5.0,76.0
2265,78.0,0,359,5.0,76.0
2266,71.0,0,359,5.0,76.0
2267,74.0,0,359,5.0,76.0
2268,73.0,0,119,1.0,76.0
2269,66.0,0,229,3.0,76.0
2270,71.0,0,109,1.0,76.0
2271,71.0,0,109,0.0,76.0
2272,57.0,0,109,4.0,76.0
2273,78.0,120,119,5.0,76.0
2274,69.0,0,119,5.0,76.0
2275,57.0,0,119,5.0,76.0
2276,74.0,0,119,5.0,76.0
2277,56.0,0,109,4.0,76.0
2278,71.0,0,829,2.0,76.0
2279,71.0,120,119,5.0,76.0
2280,76.0,0,119,5.0,76.0
2281,56.0,0,119,5.0,76.0
2282,68.0,0,119,5.0,76.0
2283,54.0,0,109,4.0,76.0
2284,69.0,0,109,2.0,76.0
2285,73.0,0,119,5.0,76.0
2286,54.0,0,119,5.0,76.0
2287,66.0,0,119,5.0,76.0
2288,69.0,120,119,5.0,76.0
2289,57.0,120,109,4.0,76.0
2290,69.0,0,119,5.0,76.0
2291,57.0,0,119,5.0,76.0
2292,73.0,0,119,5.0,76.0
2293,76.0,0,119,5.0,76.0
2294,76.0,0,469,1.0,76.0
2295,56.0,0,109,4.0,76.0
2296,71.0,0,229,2.0,76.0
2297,76.0,0,469,0.0,76.0
2298,71.0,120,119,5.0,76.0
2299,74.0,0,119,5.0,76.0
2300,56.0,0,119,5.0,76.0
2301,68.0,0,119,5.0,76.0
2302,54.0,0,109,4.0,76.0
2303,66.0,0,119,5.0,76.0
2304,67.0,0,119,5.0,76.0
2305,74.0,0,119,5.0,76.0
2306,54.0,0,119,5.0,76.0
2307,71.0,0,119,5.0,76.0
2308,68.0,0,229,2.0,76.0
2309,52.0,0,109,4.0,76.0
2310,67.0,0,119,5.0,76.0
2311,64.0,0,119,5.0,76.0
2312,71.0,120,119,5.0,76.0
2313,52.0,0,119,5.0,76.0
2314,64.0,0,829,3.0,76.0
2315,66.0,120,109,3.0,76.0
2316,74.0,120,469,1.0,76.0
2317,74.0,0,469,0.0,76.0
2318,76.0,0,239,5.0,76.0
2319,69.0,0,239,5.0,76.0
2320,74.0,0,239,5.0,76.0
2321,64.0,0,109,3.0,76.0
2322,73.0,120,109,1.0,76.0
2323,73.0,0,119,0.0,76.0
2324,57.0,120,469,4.0,76.0
2325,62.0,120,109,3.0,76.0
2326,74.0,0,109,0.0,76.0
2327,74.0,0,109,1.0,76.0
2328,57.0,0,479,5.0,76.0
2329,76.0,0,239,5.0,76.0
2330,69.0,0,239,5.0,76.0
2331,73.0,0,239,5.0,76.0
2332,61.0,0,109,3.0,76.0
2333,76.0,120,109,1.0,76.0
2334,76.0,0,119,0.0,76.0
2335,59.0,0,109,3.0,76.0
2336,73.0,120,109,0.0,76.0
2337,73.0,0,109,1.0,76.0
2338,76.0,0,239,5.0,76.0
2339,67.0,0,239,5.0,76.0
2340,73.0,0,239,5.0,76.0
2341,69.0,0,239,5.0,76.0
2342,69.0,0,829,2.0,76.0
2343,61.0,0,229,3.0,76.0
2344,69.0,0,229,0.0,76.0
2345,69.0,0,229,1.0,76.0
2346,67.0,120,109,2.0,76.0
2347,55.0,0,469,4.0,76.0
2348,69.0,0,239,5.0,76.0
2349,76.0,0,239,5.0,76.0
2350,67.0,0,239,5.0,76.0
2351,73.0,120,239,5.0,76.0
2352,55.0,0,479,5.0,76.0
2353,54.0,0,109,4.0,76.0
2354,69.0,0,109,2.0,76.0
2355,74.0,0,119,5.0,76.0
2356,69.0,0,119,5.0,76.0
2357,66.0,0,119,5.0,76.0
2358,54.0,0,119,5.0,76.0
2359,55.0,0,109,4.0,76.0
2360,71.0,0,109,2.0,76.0
2361,81.0,120,239,1.0,76.0
2362,74.0,0,119,5.0,76.0
2363,67.0,0,119,5.0,76.0
2364,71.0,0,119,5.0,76.0
2365,55.0,120,119,5.0,76.0
2366,81.0,0,239,0.0,76.0
2367,57.0,120,109,4.0,76.0
2368,62.0,0,349,3.0,76.0
2369,78.0,0,119,5.0,76.0
2370,72.0,0,119,5.0,76.0
2371,57.0,0,119,5.0,76.0
2372,69.0,0,119,5.0,76.0
2373,74.0,0,119,5.0,76.0
2374,57.0,120,109,3.0,76.0
2375,54.0,0,109,4.0,76.0
2376,69.0,0,119,5.0,76.0
2377,72.0,0,119,5.0,76.0
2378,54.0,0,119,5.0,76.0
2379,66.0,0,119,5.0,76.0
2380,72.0,0,349,2.0,76.0
2381,69.0,0,109,2.0,76.0
2382,79.0,0,109,1.0,76.0
2383,50.0,120,229,4.0,76.0
2384,79.0,120,109,0.0,76.0
2385,50.0,0,239,5.0,76.0
2386,69.0,0,239,5.0,76.0
2387,72.0,0,239,5.0,76.0
2388,62.0,0,239,5.0,76.0
2389,66.0,0,239,5.0,76.0
2390,78.0,120,109,0.0,76.0
2391,78.0,0,109,1.0,76.0
2392,74.0,0,119,2.0,76.0
2393,79.0,120,59,0.0,76.0
2394,79.0,0,59,1.0,76.0
2395,72.0,0,109,2.0,76.0
2396,69.0,0,469,3.0,76.0
2397,81.0,0,51,1.0,76.0
2398,81.0,60,51,0.0,76.0
2399,62.0,0,239,5.0,76.0
2400,81.0,0,239,5.0,76.0
2401,78.0,0,239,5.0,76.0
2402,74.0,0,239,5.0,76.0
2403,62.0,0,239,4.0,76.0
2404,74.0,0,109,0.0,76.0
2405,74.0,0,109,1.0,76.0
2406,71.0,0,119,2.0,76.0
2407,66.0,60,229,3.0,76.0
2408,72.0,0,109,1.0,76.0
2409,72.0,120,109,0.0,76.0
2410,69.0,0,109,2.0,76.0
2411,71.0,0,14,0.0,76.0
2412,73.0,15,14,0.0,76.0
2413,71.0,15,14,0.0,76.0
2414,73.0,15,14,0.0,76.0
2415,71.0,15,14,0.0,76.0
2416,73.0,15,14,0.0,76.0
2417,69.0,15,14,0.0,76.0
2418,71.0,15,14,0.0,76.0
2419,71.0,0,119,1.0,76.0
2420,69.0,15,109,0.0,76.0
2421,60.0,0,109,4.0,76.0
2422,67.0,120,229,2.0,76.0
2423,69.0,0,109,1.0,76.0
2424,72.0,0,119,5.0,76.0
2425,74.0,0,119,5.0,76.0
2426,60.0,0,119,5.0,76.0
2427,79.0,0,119,5.0,76.0
2428,59.0,120,109,4.0,76.0
2429,79.0,0,119,5.0,76.0
2430,74.0,0,119,5.0,76.0
2431,59.0,0,119,5.0,76.0
2432,71.0,0,119,5.0,76.0
2433,60.0,0,51,4.0,76.0
2434,74.0,0,59,5.0,76.0
2435,60.0,0,59,5.0,76.0
2436,72.0,120,59,5.0,76.0
2437,79.0,0,59,5.0,76.0
2438,67.0,0,229,0.0,76.0
2439,62.0,0,229,2.0,76.0
2440,67.0,0,229,1.0,76.0
2441,62.0,0,51,4.0,76.0
2442,62.0,0,59,5.0,76.0
2443,74.0,0,59,5.0,76.0
2444,81.0,0,59,5.0,76.0
2445,78.0,60,59,5.0,76.0
2446,62.0,0,589,3.0,76.0
2447,55.0,0,109,4.0,76.0
2448,67.0,0,119,5.0,76.0
2449,55.0,0,119,5.0,76.0
2450,74.0,0,119,5.0,76.0
2451,71.0,0,119,5.0,76.0
2452,59.0,0,109,3.0,76.0
2453,54.0,0,109,4.0,76.0
2454,67.0,0,229,2.0,76.0
2455,66.0,0,119,5.0,76.0
2456,54.0,0,119,5.0,76.0
2457,72.0,0,119,5.0,76.0
2458,69.0,120,119,5.0,76.0
2459,61.0,0,109,3.0,76.0
2460,52.0,0,109,4.0,76.0
2461,52.0,120,119,5.0,76.0
2462,64.0,0,119,5.0,76.0
2463,71.0,0,119,5.0,76.0
2464,73.0,0,119,5.0,76.0
2465,67.0,0,119,5.0,76.0
2466,79.0,0,119,2.0,76.0
2467,50.0,0,109,4.0,76.0
2468,78.0,0,109,2.0,76.0
2469,62.0,120,109,3.0,76.0
2470,83.0,60,469,0.0,76.0
2471,83.0,0,469,1.0,76.0
2472,69.0,0,119,5.0,76.0
2473,50.0,0,119,5.0,76.0
2474,66.0,0,119,5.0,76.0
2475,62.0,0,119,5.0,76.0
2476,64.0,0,109,3.0,76.0
2477,82.0,0,119,1.0,76.0
2478,76.0,0,119,2.0,76.0
2479,82.0,0,119,0.0,76.0
2480,83.0,0,109,0.0,76.0
2481,66.0,0,109,3.0,76.0
2482,83.0,0,109,1.0,76.0
2483,74.0,120,109,2.0,76.0
2484,49.0,0,229,4.0,76.0
2485,64.0,0,239,5.0,76.0
2486,70.0,0,239,5.0,76.0
2487,61.0,120,239,5.0,76.0
2488,49.0,0,239,5.0,76.0
2489,85.0,0,119,1.0,76.0
2490,85.0,0,119,0.0,76.0
2491,76.0,0,119,2.0,76.0
2492,82.0,0,109,0.0,76.0
2493,67.0,0,229,3.0,76.0
2494,73.0,0,109,2.0,76.0
2495,82.0,120,109,1.0,76.0
2496,76.0,120,239,5.0,76.0
2497,79.0,0,239,5.0,76.0
2498,85.0,0,239,5.0,76.0
2499,70.0,120,119,2.0,76.0
2500,61.0,0,229,3.0,76.0
2501,78.0,0,229,1.0,76.0
2502,73.0,120,109,2.0,76.0
2503,64.0,0,469,4.0,76.0
2504,78.0,0,229,0.0,76.0
2505,76.0,0,239,5.0,76.0
2506,82.0,0,239,5.0,76.0
2507,85.0,0,239,5.0,76.0
2508,78.0,0,239,5.0,76.0
2509,64.0,0,479,5.0,76.0
2510,63.0,120,109,4.0,76.0
2511,71.0,0,119,2.0,76.0
2512,63.0,0,119,5.0,76.0
2513,75.0,0,119,5.0,76.0
2514,78.0,0,119,5.0,76.0
2515,83.0,0,119,5.0,76.0
2516,83.0,0,229,0.0,76.0
2517,73.0,0,109,2.0,76.0
2518,83.0,0,229,1.0,76.0
2519,64.0,0,109,4.0,76.0
2520,64.0,120,119,5.0,76.0
2521,83.0,0,119,5.0,76.0
2522,76.0,0,119,5.0,76.0
2523,79.0,0,119,5.0,76.0
2524,66.0,0,109,4.0,76.0
2525,66.0,0,119,5.0,76.0
2526,81.0,0,119,5.0,76.0
2527,87.0,0,119,5.0,76.0
2528,78.0,0,119,5.0,76.0
2529,63.0,0,109,4.0,76.0
2530,78.0,0,119,5.0,76.0
2531,81.0,0,119,5.0,76.0
2532,75.0,0,119,5.0,76.0
2533,63.0,120,119,5.0,76.0
2534,66.0,0,589,3.0,76.0
2535,81.0,0,349,0.0,76.0
2536,81.0,120,349,1.0,76.0
2537,75.0,0,349,2.0,76.0
2538,79.0,0,51,0.0,76.0
2539,79.0,120,51,1.0,76.0
2540,64.0,0,59,3.0,76.0
2541,76.0,0,59,2.0,76.0
2542,59.0,0,229,4.0,76.0
2543,78.0,0,51,2.0,76.0
2544,78.0,0,51,1.0,76.0
2545,63.0,0,51,3.0,76.0
2546,78.0,60,51,0.0,76.0
2547,59.0,0,239,5.0,76.0
2548,81.0,0,239,5.0,76.0
2549,71.0,120,239,5.0,76.0
2550,75.0,0,239,5.0,76.0
2551,78.0,0,239,5.0,76.0
2552,79.0,60,119,1.0,76.0
2553,79.0,0,119,0.0,76.0
2554,83.0,120,109,0.0,76.0
2555,83.0,0,109,1.0,76.0
2556,64.0,0,229,4.0,76.0
2557,64.0,0,229,3.0,76.0
2558,76.0,0,239,5.0,76.0
2559,83.0,0,239,5.0,76.0
2560,64.0,0,239,5.0,76.0
2561,79.0,0,239,5.0,76.0
2562,78.0,0,119,0.0,76.0
2563,78.0,120,119,1.0,76.0
2564,83.0,0,109,0.0,76.0
2565,83.0,120,109,1.0,76.0
2566,66.0,0,229,3.0,76.0
2567,74.0,0,239,5.0,76.0
2568,83.0,0,239,5.0,76.0
2569,78.0,0,239,5.0,76.0
2570,62.0,0,349,4.0,76.0
2571,71.0,0,589,2.0,76.0
2572,79.0,0,119,5.0,76.0
2573,62.0,0,359,5.0,76.0
2574,76.0,120,119,5.0,76.0
2575,74.0,0,119,5.0,76.0
2576,83.0,0,119,5.0,76.0
2577,61.0,0,51,4.0,76.0
2578,79.0,0,59,5.0,76.0
2579,76.0,0,59,5.0,76.0
2580,73.0,0,59,5.0,76.0
2581,61.0,0,59,5.0,76.0
2582,76.0,120,109,2.0,76.0
2583,59.0,0,51,4.0,76.0
2584,71.0,0,59,5.0,76.0
2585,74.0,0,59,5.0,76.0
2586,78.0,60,59,5.0,76.0
2587,59.0,0,59,5.0,76.0
2588,70.0,60,109,2.0,76.0
2589,61.0,0,109,4.0,76.0
2590,73.0,0,119,5.0,76.0
2591,76.0,0,119,5.0,76.0
2592,82.0,0,119,5.0,76.0
2593,61.0,0,119,5.0,76.0
2594,71.0,120,109,2.0,76.0
2595,64.0,0,109,4.0,76.0
2596,79.0,0,119,5.0,76.0
2597,76.0,0,119,5.0,76.0
2598,83.0,0,119,5.0,76.0
2599,64.0,0,119,5.0,76.0
2600,59.0,120,109,4.0,76.0
2601,76.0,0,589,0.0,76.0
2602,67.0,0,589,3.0,76.0
2603,76.0,0,589,1.0,76.0
2604,59.0,0,119,5.0,76.0
2605,76.0,0,119,5.0,76.0
2606,71.0,0,119,5.0,76.0
2607,79.0,0,119,5.0,76.0
2608,64.0,0,109,3.0,76.0
2609,67.0,0,109,0.0,76.0
2610,64.0,0,109,4.0,76.0
2611,67.0,120,109,1.0,76.0
2612,76.0,0,119,5.0,76.0
2613,64.0,0,119,5.0,76.0
2614,83.0,0,119,5.0,76.0
2615,79.0,0,119,5.0,76.0
2616,66.0,0,109,0.0,76.0
2617,73.0,0,349,2.0,76.0
2618,66.0,0,119,1.0,76.0
2619,76.0,120,109,0.0,76.0
2620,61.0,0,229,3.0,76.0
2621,76.0,0,109,1.0,76.0
2622,67.0,0,119,2.0,76.0
2623,62.0,120,109,3.0,76.0
2624,74.0,0,119,0.0,76.0
2625,66.0,0,119,2.0,76.0
2626,74.0,0,119,1.0,76.0
2627,64.0,0,109,2.0,76.0
2628,64.0,0,109,3.0,76.0
2629,73.0,0,109,0.0,76.0
2630,73.0,120,109,1.0,76.0
2631,58.0,0,589,4.0,76.0
2632,78.0,0,119,1.0,76.0
2633,73.0,0,599,5.0,76.0
2634,78.0,0,119,0.0,76.0
2635,58.0,0,599,5.0,76.0
2636,78.0,120,599,5.0,76.0
2637,70.0,0,599,5.0,76.0
2638,76.0,0,599,5.0,76.0
2639,73.0,0,229,2.0,76.0
2640,58.0,120,229,3.0,76.0
2641,76.0,0,109,1.0,76.0
2642,49.0,0,109,4.0,76.0
2643,76.0,0,109,0.0,76.0
2644,64.0,0,119,5.0,76.0
2645,61.0,120,119,5.0,76.0
2646,70.0,0,119,5.0,76.0
2647,49.0,0,119,5.0,76.0
2648,74.0,0,109,1.0,76.0
2649,59.0,0,109,3.0,76.0
2650,47.0,0,109,4.0,76.0
2651,74.0,0,119,0.0,76.0
2652,59.0,0,119,5.0,76.0
2653,62.0,0,119,5.0,76.0
2654,66.0,0,119,5.0,76.0
2655,47.0,0,119,5.0,76.0
2656,73.0,0,109,0.0,76.0
2657,57.0,0,109,4.0,76.0
2658,61.0,0,109,3.0,76.0
2659,66.0,120,229,2.0,76.0
2660,73.0,0,119,1.0,76.0
2661,73.0,0,119,5.0,76.0
2662,69.0,0,119,5.0,76.0
2663,78.0,0,119,5.0,76.0
2664,57.0,120,119,5.0,76.0
2665,55.0,0,109,4.0,76.0
2666,71.0,0,109,1.0,76.0
2667,62.0,120,109,3.0,76.0
2668,59.0,0,119,2.0,76.0
2669,55.0,0,119,5.0,76.0
2670,67.0,0,119,5.0,76.0
2671,71.0,0,119,0.0,76.0
2672,74.0,0,119,5.0,76.0
2673,71.0,0,119,5.0,76.0
2674,64.0,0,109,3.0,76.0
2675,54.0,0,109,4.0,76.0
2676,70.0,0,109,0.0,76.0
2677,61.0,0,109,2.0,76.0
2678,70.0,120,109,1.0,76.0
2679,54.0,0,119,5.0,76.0
2680,73.0,0,119,5.0,76.0
2681,66.0,0,119,5.0,76.0
2682,70.0,0,119,5.0,76.0
2683,76.0,0,119,5.0,76.0
2684,59.0,120,109,4.0,76.0
2685,62.0,0,119,2.0,76.0
2686,71.0,0,119,5.0,76.0
2687,78.0,0,119,5.0,76.0
2688,74.0,0,119,5.0,76.0
2689,59.0,0,119,5.0,76.0
2690,66.0,120,109,2.0,76.0
2691,57.0,0,109,4.0,76.0
2692,76.0,0,119,5.0,76.0
2693,71.0,0,239,0.0,76.0
2694,57.0,0,119,5.0,76.0
2695,73.0,0,119,5.0,76.0
2696,71.0,0,239,1.0,76.0
2697,69.0,0,119,5.0,76.0
2698,62.0,0,349,3.0,76.0
2699,55.0,120,109,4.0,76.0
2700,64.0,0,109,2.0,76.0
2701,74.0,0,119,5.0,76.0
2702,67.0,0,119,5.0,76.0
2703,55.0,0,119,5.0,76.0
2704,71.0,0,119,5.0,76.0
2705,67.0,0,109,2.0,76.0
2706,73.0,0,109,0.0,76.0
2707,73.0,0,109,1.0,76.0
2708,64.0,0,109,3.0,76.0
2709,52.0,0,109,4.0,76.0
2710,67.0,0,119,5.0,76.0
2711,64.0,0,119,5.0,76.0
2712,71.0,0,119,5.0,76.0
2713,73.0,0,119,5.0,76.0
2714,52.0,120,119,5.0,76.0
2715,73.0,0,14,0.0,76.0
2716,73.0,0,14,1.0,76.0
2717,74.0,0,14,0.0,76.0
2718,74.0,15,14,1.0,76.0
2719,73.0,15,14,1.0,76.0
2720,73.0,0,14,0.0,76.0
2721,74.0,15,14,1.0,76.0
2722,74.0,0,14,0.0,76.0
2723,73.0,15,14,1.0,76.0
2724,73.0,0,14,0.0,76.0
2725,74.0,0,14,0.0,76.0
2726,74.0,15,14,1.0,76.0
2727,73.0,15,14,0.0,76.0
2728,73.0,0,14,1.0,76.0
2729,74.0,0,14,0.0,76.0
2730,74.0,15,14,1.0,76.0
2731,73.0,0,14,0.0,76.0
2732,73.0,15,14,1.0,76.0
2733,74.0,0,14,1.0,76.0
2734,74.0,15,14,0.0,76.0
2735,73.0,0,14,1.0,76.0
2736,73.0,15,14,0.0,76.0
2737,74.0,15,14,1.0,76.0
2738,74.0,0,14,0.0,76.0
2739,73.0,15,14,1.0,76.0
2740,73.0,0,14,0.0,76.0
2741,74.0,0,14,0.0,76.0
2742,74.0,15,14,1.0,76.0
2743,73.0,0,14,1.0,76.0
2744,73.0,15,14,0.0,76.0
2745,58.0,120,229,3.0,76.0
2746,66.0,0,229,2.0,76.0
2747,54.0,0,229,4.0,76.0
2748,74.0,0,14,1.0,76.0
2749,74.0,15,14,0.0,76.0
2750,70.0,0,239,5.0,76.0
2751,66.0,0,239,5.0,76.0
2752,73.0,0,239,5.0,76.0
2753,54.0,0,239,5.0,76.0
2754,73.0,0,14,0.0,76.0
2755,73.0,0,14,1.0,76.0
2756,74.0,0,14,0.0,76.0
2757,74.0,15,14,1.0,76.0
2758,73.0,0,14,0.0,76.0
2759,73.0,15,14,1.0,76.0
2760,74.0,0,14,1.0,76.0
2761,74.0,15,14,0.0,76.0
2762,73.0,15,14,0.0,76.0
2763,73.0,0,14,1.0,76.0
2764,74.0,15,14,1.0,76.0
2765,74.0,0,14,0.0,76.0
2766,71.0,0,14,0.0,76.0
2767,71.0,15,14,1.0,76.0
2768,73.0,0,14,0.0,76.0
2769,73.0,15,14,1.0,76.0
2770,42.0,0,229,4.0,76.0
2771,71.0,15,109,1.0,76.0
2772,66.0,0,229,2.0,76.0
2773,71.0,0,109,0.0,76.0
2774,58.0,0,229,3.0,76.0
2775,54.0,0,239,5.0,76.0
2776,61.0,15,239,5.0,76.0
2777,58.0,0,239,5.0,76.0
2778,42.0,0,239,5.0,76.0
2779,62.0,0,469,3.0,76.0
2780,71.0,0,469,1.0,76.0
2781,47.0,0,469,4.0,76.0
2782,71.0,0,469,0.0,76.0
2783,66.0,0,469,2.0,76.0
2784,62.0,0,479,5.0,76.0
2785,59.0,0,479,5.0,76.0
2786,47.0,120,479,5.0,76.0
2787,66.0,0,479,5.0,76.0
