,note,step,duration,channel,velocity
0,78.0,21,40,0.0,0.0
1,73.0,0,60,1.0,0.0
2,69.0,0,60,2.0,0.0
3,42.0,0,60,3.0,0.0
4,30.0,0,60,4.0,0.0
5,42.0,6,60,6.0,0.0
6,73.0,45,20,0.0,0.0
7,66.0,27,40,0.0,0.0
8,81.0,0,20,0.0,0.0
9,74.0,0,20,1.0,0.0
10,66.0,0,20,2.0,0.0
11,54.0,0,20,3.0,0.0
12,42.0,0,20,4.0,0.0
13,54.0,27,20,6.0,0.0
14,80.0,0,40,0.0,0.0
15,74.0,18,20,1.0,0.0
16,68.0,3,40,2.0,0.0
17,53.0,0,60,3.0,0.0
18,41.0,0,60,4.0,0.0
19,53.0,6,60,6.0,0.0
20,73.0,18,20,1.0,0.0
21,73.0,45,20,0.0,0.0
22,64.0,27,40,0.0,0.0
23,80.0,0,20,0.0,0.0
24,73.0,0,20,1.0,0.0
25,68.0,0,20,2.0,0.0
26,52.0,0,20,3.0,0.0
27,40.0,0,20,4.0,0.0
28,52.0,27,20,6.0,0.0
29,78.0,3,40,0.0,0.0
30,73.0,0,20,1.0,0.0
31,69.0,18,20,2.0,0.0
32,51.0,0,60,3.0,0.0
33,39.0,0,60,4.0,0.0
34,51.0,6,60,6.0,0.0
35,71.0,0,20,1.0,0.0
36,66.0,18,20,2.0,0.0
37,71.0,45,20,0.0,0.0
38,62.0,27,40,0.0,0.0
39,78.0,0,20,0.0,0.0
40,71.0,0,20,1.0,0.0
41,71.0,0,20,2.0,0.0
42,50.0,0,20,3.0,0.0
43,38.0,0,20,4.0,0.0
44,50.0,34,20,6.0,0.0
45,77.0,0,40,0.0,0.0
46,71.0,11,30,1.0,0.0
47,68.0,0,40,2.0,0.0
48,49.0,0,40,3.0,0.0
49,37.0,0,40,4.0,0.0
50,49.0,4,40,6.0,0.0
51,73.0,23,15,1.0,0.0
52,78.0,0,20,0.0,0.0
53,69.0,0,20,1.0,0.0
54,66.0,0,20,2.0,0.0
55,50.0,0,20,3.0,0.0
56,38.0,0,20,4.0,0.0
57,50.0,15,20,6.0,0.0
58,78.0,0,40,0.0,0.0
59,69.0,21,15,1.0,0.0
60,62.0,0,40,2.0,0.0
61,47.0,0,40,3.0,0.0
62,35.0,0,40,4.0,0.0
63,47.0,4,40,6.0,0.0
64,68.0,9,20,1.0,0.0
65,69.0,23,15,1.0,0.0
66,77.0,0,20,0.0,0.0
67,71.0,0,20,1.0,0.0
68,61.0,0,20,2.0,0.0
69,49.0,0,20,3.0,0.0
70,37.0,0,20,4.0,0.0
71,49.0,15,20,6.0,0.0
72,78.0,0,40,0.0,0.0
73,69.0,0,40,1.0,0.0
74,61.0,4,40,2.0,0.0
75,42.0,0,60,3.0,0.0
76,30.0,0,60,4.0,0.0
77,73.0,12,15,5.0,0.0
78,42.0,6,60,6.0,0.0
79,69.0,12,15,5.0,0.0
80,68.0,6,15,5.0,0.0
81,66.0,8,15,5.0,0.0
82,73.0,7,20,0.0,0.0
83,73.0,9,15,5.0,0.0
84,66.0,27,40,0.0,0.0
85,73.0,4,15,5.0,0.0
86,71.0,34,15,5.0,0.0
87,73.0,20,60,5.0,0.0
88,81.0,0,20,0.0,0.0
89,78.0,0,20,1.0,0.0
90,73.0,0,20,2.0,0.0
91,42.0,5,20,6.0,0.0
92,80.0,0,40,0.0,0.0
93,77.0,0,40,1.0,0.0
94,73.0,4,40,2.0,0.0
95,49.0,6,60,6.0,0.0
96,68.0,12,15,5.0,0.0
97,66.0,8,15,5.0,0.0
98,65.0,8,15,5.0,0.0
99,73.0,7,20,0.0,0.0
100,73.0,9,15,5.0,0.0
101,65.0,27,40,0.0,0.0
102,74.0,4,15,5.0,0.0
103,73.0,4,15,5.0,0.0
104,71.0,30,15,5.0,0.0
105,73.0,21,60,5.0,0.0
106,83.0,0,20,0.0,0.0
107,77.0,0,20,1.0,0.0
108,73.0,0,20,2.0,0.0
109,49.0,6,20,6.0,0.0
110,81.0,0,40,0.0,0.0
111,78.0,0,40,1.0,0.0
112,73.0,6,40,2.0,0.0
113,54.0,6,60,6.0,0.0
114,71.0,12,15,5.0,0.0
115,69.0,6,15,5.0,0.0
116,68.0,12,15,5.0,0.0
117,73.0,1,20,0.0,0.0
118,69.0,3,15,5.0,0.0
119,66.0,14,15,5.0,0.0
120,66.0,4,40,0.0,0.0
121,69.0,12,15,5.0,0.0
122,73.0,12,15,5.0,0.0
123,78.0,6,15,5.0,0.0
124,80.0,23,15,5.0,0.0
125,73.0,0,20,0.0,0.0
126,73.0,0,20,1.0,0.0
127,66.0,0,20,2.0,0.0
128,81.0,17,30,5.0,0.0
129,54.0,10,20,6.0,0.0
130,74.0,0,40,0.0,0.0
131,71.0,0,40,1.0,0.0
132,66.0,6,40,2.0,0.0
133,47.0,6,60,6.0,0.0
134,80.0,12,15,5.0,0.0
135,81.0,6,15,5.0,0.0
136,83.0,12,15,5.0,0.0
137,66.0,3,20,0.0,0.0
138,81.0,3,15,5.0,0.0
139,80.0,12,15,5.0,0.0
140,68.0,6,40,0.0,0.0
141,78.0,12,15,5.0,0.0
142,76.0,12,15,5.0,0.0
143,74.0,6,15,5.0,0.0
144,73.0,12,15,5.0,0.0
145,71.0,0,20,0.0,0.0
146,68.0,0,20,1.0,0.0
147,64.0,0,20,2.0,0.0
148,74.0,9,15,5.0,0.0
149,52.0,1,20,6.0,0.0
150,83.0,14,15,5.0,0.0
151,73.0,0,40,0.0,0.0
152,69.0,0,40,1.0,0.0
153,64.0,6,40,2.0,0.0
154,74.0,21,15,5.0,0.0
155,45.0,6,60,6.0,0.0
156,73.0,9,20,5.0,0.0
157,71.0,12,15,5.0,0.0
158,65.0,3,20,0.0,0.0
159,69.0,3,15,5.0,0.0
160,68.0,10,15,5.0,0.0
161,66.0,6,40,0.0,0.0
162,69.0,14,15,5.0,0.0
163,73.0,12,15,5.0,0.0
164,78.0,6,15,5.0,0.0
165,81.0,12,15,5.0,0.0
166,69.0,0,20,0.0,0.0
167,57.0,0,20,1.0,0.0
168,66.0,0,20,2.0,0.0
169,74.0,9,15,5.0,0.0
170,54.0,1,20,6.0,0.0
171,73.0,14,15,5.0,0.0
172,71.0,3,40,0.0,0.0
173,62.0,0,20,1.0,0.0
174,66.0,9,20,2.0,0.0
175,73.0,12,15,5.0,0.0
176,56.0,6,60,6.0,0.0
177,71.0,9,20,5.0,0.0
178,59.0,0,20,1.0,0.0
179,65.0,3,20,2.0,0.0
180,69.0,12,15,5.0,0.0
181,63.0,1,20,0.0,0.0
182,68.0,3,15,5.0,0.0
183,66.0,14,15,5.0,0.0
184,65.0,4,40,0.0,0.0
185,68.0,12,15,5.0,0.0
186,71.0,12,15,5.0,0.0
187,77.0,6,15,5.0,0.0
188,80.0,12,15,5.0,0.0
189,68.0,0,20,0.0,0.0
190,68.0,0,20,1.0,0.0
191,61.0,0,20,2.0,0.0
192,73.0,11,15,5.0,0.0
193,53.0,1,20,6.0,0.0
194,71.0,8,15,5.0,0.0
195,69.0,0,40,0.0,0.0
196,66.0,0,40,1.0,0.0
197,61.0,0,40,2.0,0.0
198,69.0,6,15,5.0,0.0
199,54.0,6,60,6.0,0.0
200,66.0,6,15,5.0,0.0
201,65.0,6,15,5.0,0.0
202,66.0,6,15,5.0,0.0
203,68.0,6,15,5.0,0.0
204,69.0,6,15,5.0,0.0
205,71.0,6,15,5.0,0.0
206,73.0,6,15,5.0,0.0
207,66.0,1,20,0.0,0.0
208,74.0,6,15,5.0,0.0
209,73.0,3,15,5.0,0.0
210,71.0,14,15,5.0,0.0
211,73.0,6,120,0.0,0.0
212,69.0,12,15,5.0,0.0
213,73.0,12,15,5.0,0.0
214,77.0,12,15,5.0,0.0
215,78.0,10,15,5.0,0.0
216,68.0,0,20,1.0,0.0
217,65.0,0,20,2.0,0.0
218,80.0,11,15,5.0,0.0
219,49.0,1,20,6.0,0.0
220,71.0,12,15,5.0,0.0
221,66.0,0,40,1.0,0.0
222,61.0,0,40,2.0,0.0
223,69.0,12,15,5.0,0.0
224,42.0,4,40,6.0,0.0
225,66.0,12,15,5.0,0.0
226,65.0,2,15,5.0,0.0
227,66.0,23,15,5.0,0.0
228,66.0,0,20,0.0,0.0
229,69.0,0,20,1.0,0.0
230,61.0,0,20,2.0,0.0
231,73.0,16,40,5.0,0.0
232,40.0,21,20,6.0,0.0
233,78.0,0,40,0.0,0.0
234,69.0,0,40,1.0,0.0
235,62.0,0,40,2.0,0.0
236,38.0,4,40,6.0,0.0
237,71.0,8,15,5.0,0.0
238,69.0,12,15,5.0,0.0
239,71.0,0,20,0.0,0.0
240,71.0,0,20,1.0,0.0
241,62.0,0,20,2.0,0.0
242,68.0,11,15,5.0,0.0
243,50.0,1,20,6.0,0.0
244,66.0,26,15,5.0,0.0
245,73.0,0,40,0.0,0.0
246,65.0,0,40,1.0,0.0
247,56.0,21,40,2.0,0.0
248,49.0,0,60,3.0,0.0
249,37.0,0,60,4.0,0.0
250,66.0,18,20,5.0,0.0
251,49.0,6,60,6.0,0.0
252,65.0,42,40,5.0,0.0
253,68.0,3,20,0.0,0.0
254,73.0,27,40,0.0,0.0
255,77.0,0,20,0.0,0.0
256,73.0,0,20,1.0,0.0
257,68.0,0,20,2.0,0.0
258,49.0,0,20,3.0,0.0
259,37.0,0,20,4.0,0.0
260,49.0,45,20,6.0,0.0
261,78.0,0,40,0.0,0.0
262,73.0,0,40,1.0,0.0
263,66.0,21,40,2.0,0.0
264,50.0,0,60,3.0,0.0
265,38.0,0,60,4.0,0.0
266,50.0,6,60,6.0,0.0
267,73.0,45,20,0.0,0.0
268,63.0,27,40,0.0,0.0
269,81.0,0,20,0.0,0.0
270,71.0,0,20,1.0,0.0
271,66.0,0,20,2.0,0.0
272,51.0,0,20,3.0,0.0
273,39.0,0,20,4.0,0.0
274,51.0,45,20,6.0,0.0
275,80.0,0,40,0.0,0.0
276,71.0,0,40,1.0,0.0
277,64.0,21,40,2.0,0.0
278,52.0,0,60,3.0,0.0
279,40.0,0,60,4.0,0.0
280,52.0,6,60,6.0,0.0
281,74.0,45,20,0.0,0.0
282,65.0,27,40,0.0,0.0
283,83.0,0,20,0.0,0.0
284,80.0,0,20,1.0,0.0
285,61.0,0,20,2.0,0.0
286,53.0,0,20,3.0,0.0
287,41.0,0,20,4.0,0.0
288,53.0,34,20,6.0,0.0
289,83.0,0,30,0.0,0.0
290,80.0,11,30,1.0,0.0
291,61.0,0,40,2.0,0.0
292,54.0,0,40,3.0,0.0
293,42.0,0,40,4.0,0.0
294,54.0,4,40,6.0,0.0
295,80.0,0,15,0.0,0.0
296,77.0,23,15,1.0,0.0
297,81.0,0,20,0.0,0.0
298,78.0,0,20,1.0,0.0
299,66.0,0,20,2.0,0.0
300,50.0,0,20,3.0,0.0
301,38.0,0,20,4.0,0.0
302,50.0,34,20,6.0,0.0
303,86.0,11,30,0.0,0.0
304,78.0,0,40,1.0,0.0
305,68.0,0,40,2.0,0.0
306,47.0,0,40,3.0,0.0
307,35.0,0,40,4.0,0.0
308,47.0,4,40,6.0,0.0
309,85.0,23,15,0.0,0.0
310,83.0,0,20,0.0,0.0
311,77.0,0,20,1.0,0.0
312,68.0,0,20,2.0,0.0
313,49.0,0,20,3.0,0.0
314,37.0,0,20,4.0,0.0
315,49.0,15,20,6.0,0.0
316,81.0,0,40,0.0,0.0
317,78.0,0,40,1.0,0.0
318,66.0,6,40,2.0,0.0
319,42.0,0,60,3.0,0.0
320,30.0,0,60,4.0,0.0
321,73.0,12,15,5.0,0.0
322,42.0,6,60,6.0,0.0
323,69.0,12,15,5.0,0.0
324,68.0,6,15,5.0,0.0
325,66.0,12,15,5.0,0.0
326,73.0,1,20,0.0,0.0
327,65.0,3,15,5.0,0.0
328,66.0,26,15,5.0,0.0
329,66.0,27,40,0.0,0.0
330,66.0,18,20,5.0,0.0
331,74.0,20,60,5.0,0.0
332,81.0,0,20,0.0,0.0
333,69.0,0,20,1.0,0.0
334,66.0,0,20,2.0,0.0
335,54.0,7,20,6.0,0.0
336,80.0,0,40,0.0,0.0
337,71.0,0,40,1.0,0.0
338,68.0,6,40,2.0,0.0
339,53.0,6,60,6.0,0.0
340,81.0,12,15,5.0,0.0
341,80.0,6,15,5.0,0.0
342,78.0,12,15,5.0,0.0
343,73.0,1,20,0.0,0.0
344,80.0,3,15,5.0,0.0
345,76.0,26,15,5.0,0.0
346,64.0,27,40,0.0,0.0
347,74.0,18,20,5.0,0.0
348,73.0,20,60,5.0,0.0
349,80.0,0,20,0.0,0.0
350,73.0,0,20,1.0,0.0
351,68.0,0,20,2.0,0.0
352,52.0,7,20,6.0,0.0
353,78.0,0,40,0.0,0.0
354,66.0,0,40,1.0,0.0
355,69.0,6,40,2.0,0.0
356,51.0,6,60,6.0,0.0
357,79.0,12,15,5.0,0.0
358,78.0,6,15,5.0,0.0
359,77.0,12,15,5.0,0.0
360,71.0,1,20,0.0,0.0
361,78.0,3,15,5.0,0.0
362,74.0,26,15,5.0,0.0
363,62.0,27,40,0.0,0.0
364,73.0,18,20,5.0,0.0
365,71.0,20,60,5.0,0.0
366,78.0,0,20,0.0,0.0
367,66.0,0,20,1.0,0.0
368,71.0,0,20,2.0,0.0
369,50.0,7,20,6.0,0.0
370,77.0,0,40,0.0,0.0
371,68.0,0,40,1.0,0.0
372,73.0,0,40,2.0,0.0
373,49.0,6,40,6.0,0.0
374,73.0,12,15,5.0,0.0
375,71.0,6,15,5.0,0.0
376,69.0,12,15,5.0,0.0
377,78.0,0,20,0.0,0.0
378,74.0,0,20,1.0,0.0
379,69.0,0,20,2.0,0.0
380,68.0,9,15,5.0,0.0
381,50.0,1,20,6.0,0.0
382,66.0,14,15,5.0,0.0
383,78.0,0,40,0.0,0.0
384,74.0,0,40,1.0,0.0
385,68.0,0,40,2.0,0.0
386,68.0,12,15,5.0,0.0
387,47.0,6,40,6.0,0.0
388,69.0,12,15,5.0,0.0
389,71.0,6,15,5.0,0.0
390,74.0,12,15,5.0,0.0
391,77.0,0,20,0.0,0.0
392,68.0,0,20,1.0,0.0
393,73.0,0,20,2.0,0.0
394,73.0,9,15,5.0,0.0
395,49.0,1,20,6.0,0.0
396,71.0,12,15,5.0,0.0
397,78.0,0,40,0.0,0.0
398,69.0,0,40,1.0,0.0
399,73.0,6,40,2.0,0.0
400,69.0,14,15,5.0,0.0
401,42.0,6,60,6.0,0.0
402,65.0,12,15,5.0,0.0
403,66.0,6,15,5.0,0.0
404,69.0,12,15,5.0,0.0
405,66.0,1,20,0.0,0.0
406,74.0,3,15,5.0,0.0
407,73.0,12,15,5.0,0.0
408,59.0,2,40,0.0,0.0
409,74.0,7,15,5.0,0.0
410,81.0,6,15,5.0,0.0
411,78.0,13,15,5.0,0.0
412,76.0,4,15,5.0,0.0
413,75.0,2,15,5.0,0.0
414,76.0,4,15,5.0,0.0
415,75.0,4,15,5.0,0.0
416,69.0,0,20,0.0,0.0
417,66.0,0,20,1.0,0.0
418,69.0,0,20,2.0,0.0
419,76.0,7,15,5.0,0.0
420,54.0,2,20,6.0,0.0
421,75.0,6,15,5.0,0.0
422,73.0,4,15,5.0,0.0
423,75.0,11,15,5.0,0.0
424,71.0,0,40,0.0,0.0
425,64.0,0,40,1.0,0.0
426,68.0,6,40,2.0,0.0
427,76.0,14,15,5.0,0.0
428,56.0,6,60,6.0,0.0
429,66.0,12,15,5.0,0.0
430,68.0,6,15,5.0,0.0
431,71.0,12,15,5.0,0.0
432,68.0,1,20,0.0,0.0
433,76.0,3,15,5.0,0.0
434,75.0,12,15,5.0,0.0
435,61.0,2,40,0.0,0.0
436,76.0,7,15,5.0,0.0
437,83.0,6,15,5.0,0.0
438,80.0,13,15,5.0,0.0
439,78.0,4,15,5.0,0.0
440,77.0,2,15,5.0,0.0
441,78.0,4,15,5.0,0.0
442,77.0,4,15,5.0,0.0
443,71.0,0,20,0.0,0.0
444,68.0,0,20,1.0,0.0
445,62.0,0,20,2.0,0.0
446,78.0,7,15,5.0,0.0
447,44.0,2,20,6.0,0.0
448,77.0,6,15,5.0,0.0
449,75.0,4,15,5.0,0.0
450,77.0,11,15,5.0,0.0
451,73.0,0,40,0.0,0.0
452,66.0,0,40,1.0,0.0
453,61.0,0,40,2.0,0.0
454,78.0,14,15,5.0,0.0
455,45.0,6,40,6.0,0.0
456,73.0,12,15,5.0,0.0
457,78.0,6,15,5.0,0.0
458,80.0,12,15,5.0,0.0
459,78.0,0,20,0.0,0.0
460,73.0,0,20,1.0,0.0
461,57.0,0,20,2.0,0.0
462,81.0,9,15,5.0,0.0
463,42.0,1,20,6.0,0.0
464,80.0,14,15,5.0,0.0
465,66.0,0,40,0.0,0.0
466,71.0,0,40,1.0,0.0
467,62.0,0,40,2.0,0.0
468,83.0,12,15,5.0,0.0
469,50.0,6,40,6.0,0.0
470,81.0,12,15,5.0,0.0
471,80.0,6,15,5.0,0.0
472,78.0,12,15,5.0,0.0
473,74.0,0,20,0.0,0.0
474,68.0,0,20,1.0,0.0
475,62.0,0,20,2.0,0.0
476,77.0,9,15,5.0,0.0
477,47.0,1,20,6.0,0.0
478,78.0,26,15,5.0,0.0
479,68.0,0,40,0.0,0.0
480,73.0,0,40,1.0,0.0
481,61.0,0,40,2.0,0.0
482,78.0,18,20,5.0,0.0
483,49.0,27,40,6.0,0.0
484,77.0,17,60,5.0,0.0
485,71.0,0,20,0.0,0.0
486,77.0,0,20,1.0,0.0
487,61.0,0,20,2.0,0.0
488,56.0,28,20,6.0,0.0
489,61.0,0,40,0.0,0.0
490,80.0,0,40,1.0,0.0
491,65.0,0,40,2.0,0.0
492,61.0,4,40,6.0,0.0
493,73.0,5,15,5.0,0.0
494,80.0,0,20,0.0,0.0
495,73.0,0,20,1.0,0.0
496,68.0,0,20,2.0,0.0
497,75.0,3,15,5.0,0.0
498,53.0,1,20,6.0,0.0
499,73.0,5,15,5.0,0.0
500,72.0,10,15,5.0,0.0
501,73.0,14,15,5.0,0.0
502,81.0,0,40,0.0,0.0
503,73.0,0,40,1.0,0.0
504,66.0,6,40,2.0,0.0
505,81.0,12,15,5.0,0.0
506,54.0,6,60,6.0,0.0
507,80.0,12,15,5.0,0.0
508,78.0,6,15,5.0,0.0
509,77.0,12,15,5.0,0.0
510,73.0,3,20,0.0,0.0
511,78.0,3,15,5.0,0.0
512,81.0,12,15,5.0,0.0
513,66.0,6,40,0.0,0.0
514,75.0,12,15,5.0,0.0
515,76.0,12,15,5.0,0.0
516,78.0,6,15,5.0,0.0
517,72.0,12,15,5.0,0.0
518,81.0,0,20,0.0,0.0
519,73.0,0,20,1.0,0.0
520,66.0,0,20,2.0,0.0
521,73.0,9,15,5.0,0.0
522,42.0,1,20,6.0,0.0
523,75.0,14,15,5.0,0.0
524,72.0,0,40,0.0,0.0
525,75.0,0,40,1.0,0.0
526,63.0,6,40,2.0,0.0
527,69.0,12,15,5.0,0.0
528,54.0,6,60,6.0,0.0
529,68.0,12,15,5.0,0.0
530,69.0,6,15,5.0,0.0
531,66.0,10,15,5.0,0.0
532,63.0,1,20,0.0,0.0
533,68.0,5,15,5.0,0.0
534,73.0,14,15,5.0,0.0
535,56.0,6,40,0.0,0.0
536,72.0,12,15,5.0,0.0
537,76.0,12,15,5.0,0.0
538,75.0,6,15,5.0,0.0
539,78.0,12,15,5.0,0.0
540,80.0,0,20,0.0,0.0
541,68.0,0,20,1.0,0.0
542,63.0,0,20,2.0,0.0
543,76.0,9,15,5.0,0.0
544,48.0,1,20,6.0,0.0
545,75.0,12,15,5.0,0.0
546,73.0,0,90,0.0,0.0
547,68.0,0,40,1.0,0.0
548,64.0,0,40,2.0,0.0
549,80.0,14,15,5.0,0.0
550,52.0,6,40,6.0,0.0
551,73.0,12,15,5.0,0.0
552,72.0,6,15,5.0,0.0
553,73.0,12,15,5.0,0.0
554,69.0,0,20,1.0,0.0
555,66.0,0,20,2.0,0.0
556,78.0,9,15,5.0,0.0
557,45.0,1,20,6.0,0.0
558,75.0,14,15,5.0,0.0
559,69.0,0,40,1.0,0.0
560,66.0,0,40,2.0,0.0
561,76.0,12,15,5.0,0.0
562,42.0,4,40,6.0,0.0
563,73.0,12,15,5.0,0.0
564,76.0,6,15,5.0,0.0
565,78.0,2,15,0.0,0.0
566,75.0,12,15,5.0,0.0
567,75.0,0,20,0.0,0.0
568,68.0,0,20,1.0,0.0
569,66.0,0,20,2.0,0.0
570,56.0,0,20,3.0,0.0
571,44.0,0,20,4.0,0.0
572,73.0,9,15,5.0,0.0
573,44.0,1,20,6.0,0.0
574,72.0,26,15,5.0,0.0
575,73.0,0,120,0.0,0.0
576,68.0,0,120,1.0,0.0
577,64.0,0,120,2.0,0.0
578,49.0,0,40,3.0,0.0
579,37.0,0,40,4.0,0.0
580,72.0,18,20,5.0,0.0
581,49.0,27,40,6.0,0.0
582,73.0,20,60,5.0,0.0
583,44.0,0,20,3.0,0.0
584,32.0,0,20,4.0,0.0
585,44.0,7,20,6.0,0.0
586,37.0,0,40,3.0,0.0
587,25.0,0,40,4.0,0.0
588,37.0,6,40,6.0,0.0
589,68.0,12,15,5.0,0.0
590,69.0,6,15,5.0,0.0
591,71.0,12,15,5.0,0.0
592,73.0,10,15,5.0,0.0
593,74.0,23,15,5.0,0.0
594,69.0,0,40,0.0,0.0
595,69.0,0,40,1.0,0.0
596,69.0,3,40,2.0,0.0
597,76.0,23,60,5.0,0.0
598,69.0,21,20,6.0,0.0
599,64.0,24,20,6.0,0.0
600,76.0,0,20,0.0,0.0
601,61.0,4,20,6.0,0.0
602,85.0,0,40,0.0,0.0
603,57.0,6,40,6.0,0.0
604,80.0,12,15,5.0,0.0
605,81.0,6,15,5.0,0.0
606,78.0,12,15,5.0,0.0
607,69.0,0,20,0.0,0.0
608,69.0,0,20,1.0,0.0
609,69.0,0,20,2.0,0.0
610,76.0,9,15,5.0,0.0
611,69.0,1,20,6.0,0.0
612,75.0,23,15,5.0,0.0
613,68.0,0,40,0.0,0.0
614,68.0,0,40,1.0,0.0
615,68.0,3,40,2.0,0.0
616,75.0,18,20,5.0,0.0
617,68.0,3,20,6.0,0.0
618,76.0,20,60,5.0,0.0
619,64.0,24,20,6.0,0.0
620,76.0,0,20,0.0,0.0
621,59.0,7,20,6.0,0.0
622,83.0,0,40,0.0,0.0
623,56.0,6,40,6.0,0.0
624,81.0,12,15,5.0,0.0
625,83.0,6,15,5.0,0.0
626,80.0,12,15,5.0,0.0
627,68.0,0,20,0.0,0.0
628,68.0,0,20,1.0,0.0
629,68.0,0,20,2.0,0.0
630,78.0,9,15,5.0,0.0
631,68.0,1,20,6.0,0.0
632,76.0,23,15,5.0,0.0
633,66.0,0,40,0.0,0.0
634,66.0,0,40,1.0,0.0
635,66.0,3,40,2.0,0.0
636,76.0,18,20,5.0,0.0
637,66.0,3,20,6.0,0.0
638,75.0,20,60,5.0,0.0
639,63.0,24,20,6.0,0.0
640,75.0,0,20,0.0,0.0
641,59.0,7,20,6.0,0.0
642,81.0,0,40,0.0,0.0
643,54.0,6,40,6.0,0.0
644,76.0,12,15,5.0,0.0
645,78.0,6,15,5.0,0.0
646,73.0,12,15,5.0,0.0
647,66.0,0,20,0.0,0.0
648,66.0,0,20,1.0,0.0
649,66.0,0,20,2.0,0.0
650,71.0,9,15,5.0,0.0
651,63.0,3,20,6.0,0.0
652,69.0,12,15,5.0,0.0
653,64.0,0,40,0.0,0.0
654,64.0,0,40,1.0,0.0
655,64.0,3,40,2.0,0.0
656,68.0,9,15,5.0,0.0
657,64.0,1,20,6.0,0.0
658,69.0,12,15,5.0,0.0
659,71.0,8,15,5.0,0.0
660,59.0,1,20,6.0,0.0
661,66.0,12,15,5.0,0.0
662,71.0,0,20,0.0,0.0
663,64.0,11,15,5.0,0.0
664,56.0,3,20,6.0,0.0
665,63.0,12,15,5.0,0.0
666,80.0,3,40,0.0,0.0
667,64.0,9,15,5.0,0.0
668,52.0,3,20,6.0,0.0
669,66.0,12,15,5.0,0.0
670,68.0,6,15,5.0,0.0
671,50.0,3,20,6.0,0.0
672,70.0,12,15,5.0,0.0
673,64.0,0,20,0.0,0.0
674,70.0,0,20,1.0,0.0
675,64.0,0,20,2.0,0.0
676,71.0,9,15,5.0,0.0
677,49.0,1,20,6.0,0.0
678,73.0,8,15,5.0,0.0
679,66.0,0,40,0.0,0.0
680,71.0,0,40,1.0,0.0
681,62.0,6,40,2.0,0.0
682,73.0,6,15,5.0,0.0
683,47.0,6,60,6.0,0.0
684,74.0,12,15,5.0,0.0
685,70.0,12,15,5.0,0.0
686,71.0,6,15,5.0,0.0
687,65.0,12,15,5.0,0.0
688,74.0,1,20,0.0,0.0
689,66.0,3,15,5.0,0.0
690,71.0,14,15,5.0,0.0
691,83.0,6,40,0.0,0.0
692,74.0,12,15,5.0,0.0
693,76.0,12,15,5.0,0.0
694,74.0,6,15,5.0,0.0
695,73.0,12,15,5.0,0.0
696,66.0,0,20,0.0,0.0
697,71.0,0,20,1.0,0.0
698,62.0,0,20,2.0,0.0
699,74.0,9,15,5.0,0.0
700,45.0,1,20,6.0,0.0
701,78.0,8,15,5.0,0.0
702,64.0,0,40,0.0,0.0
703,71.0,0,40,1.0,0.0
704,64.0,6,40,2.0,0.0
705,76.0,6,15,5.0,0.0
706,44.0,6,60,6.0,0.0
707,74.0,12,15,5.0,0.0
708,69.0,12,15,5.0,0.0
709,71.0,6,15,5.0,0.0
710,66.0,12,15,5.0,0.0
711,74.0,1,20,0.0,0.0
712,68.0,3,15,5.0,0.0
713,71.0,14,15,5.0,0.0
714,83.0,6,40,0.0,0.0
715,74.0,12,15,5.0,0.0
716,76.0,12,15,5.0,0.0
717,74.0,6,15,5.0,0.0
718,73.0,12,15,5.0,0.0
719,74.0,0,20,0.0,0.0
720,71.0,0,20,1.0,0.0
721,64.0,0,20,2.0,0.0
722,74.0,9,15,5.0,0.0
723,40.0,1,20,6.0,0.0
724,83.0,14,15,5.0,0.0
725,64.0,0,40,0.0,0.0
726,69.0,0,40,1.0,0.0
727,64.0,6,40,2.0,0.0
728,73.0,12,15,5.0,0.0
729,45.0,6,60,6.0,0.0
730,74.0,12,15,5.0,0.0
731,73.0,6,15,5.0,0.0
732,71.0,12,15,5.0,0.0
733,73.0,1,20,0.0,0.0
734,73.0,3,15,5.0,0.0
735,69.0,14,15,5.0,0.0
736,81.0,0,120,0.0,0.0
737,64.0,12,15,5.0,0.0
738,68.0,12,15,5.0,0.0
739,69.0,12,15,5.0,0.0
740,71.0,12,15,5.0,0.0
741,66.0,0,20,1.0,0.0
742,62.0,0,20,2.0,0.0
743,73.0,9,15,5.0,0.0
744,47.0,1,20,6.0,0.0
745,74.0,14,15,5.0,0.0
746,64.0,0,40,1.0,0.0
747,61.0,6,40,2.0,0.0
748,76.0,12,15,5.0,0.0
749,49.0,6,60,6.0,0.0
750,78.0,12,15,5.0,0.0
751,76.0,6,15,5.0,0.0
752,74.0,12,15,5.0,0.0
753,67.0,3,20,0.0,0.0
754,76.0,3,15,5.0,0.0
755,73.0,12,15,5.0,0.0
756,66.0,6,40,0.0,0.0
757,69.0,12,15,5.0,0.0
758,71.0,12,15,5.0,0.0
759,73.0,6,15,5.0,0.0
760,75.0,12,15,5.0,0.0
761,69.0,0,20,0.0,0.0
762,71.0,0,20,1.0,0.0
763,59.0,0,20,2.0,0.0
764,76.0,9,15,5.0,0.0
765,51.0,1,20,6.0,0.0
766,78.0,14,15,5.0,0.0
767,59.0,0,40,0.0,0.0
768,71.0,0,40,1.0,0.0
769,64.0,6,40,2.0,0.0
770,79.0,12,15,5.0,0.0
771,52.0,6,60,6.0,0.0
772,75.0,12,15,5.0,0.0
773,76.0,6,15,5.0,0.0
774,70.0,12,15,5.0,0.0
775,67.0,3,20,0.0,0.0
776,71.0,3,15,5.0,0.0
777,76.0,12,15,5.0,0.0
778,76.0,6,40,0.0,0.0
779,79.0,12,15,5.0,0.0
780,81.0,12,15,5.0,0.0
781,79.0,6,15,5.0,0.0
782,78.0,12,15,5.0,0.0
783,59.0,0,20,0.0,0.0
784,71.0,0,20,1.0,0.0
785,67.0,0,20,2.0,0.0
786,79.0,9,15,5.0,0.0
787,50.0,1,20,6.0,0.0
788,83.0,8,15,5.0,0.0
789,57.0,0,40,0.0,0.0
790,76.0,0,40,1.0,0.0
791,69.0,6,40,2.0,0.0
792,81.0,6,15,5.0,0.0
793,49.0,6,60,6.0,0.0
794,79.0,12,15,5.0,0.0
795,74.0,12,15,5.0,0.0
796,76.0,6,15,5.0,0.0
797,71.0,12,15,5.0,0.0
798,69.0,3,20,0.0,0.0
799,73.0,3,15,5.0,0.0
800,76.0,12,15,5.0,0.0
801,76.0,6,40,0.0,0.0
802,79.0,12,15,5.0,0.0
803,81.0,12,15,5.0,0.0
804,79.0,6,15,5.0,0.0
805,78.0,12,15,5.0,0.0
806,61.0,0,20,0.0,0.0
807,76.0,0,20,1.0,0.0
808,69.0,0,20,2.0,0.0
809,79.0,9,15,5.0,0.0
810,45.0,1,20,6.0,0.0
811,69.0,14,15,5.0,0.0
812,62.0,0,40,0.0,0.0
813,74.0,0,40,1.0,0.0
814,69.0,6,40,2.0,0.0
815,78.0,12,15,5.0,0.0
816,50.0,6,60,6.0,0.0
817,79.0,12,15,5.0,0.0
818,78.0,6,15,5.0,0.0
819,76.0,12,15,5.0,0.0
820,71.0,3,20,0.0,0.0
821,78.0,3,15,5.0,0.0
822,74.0,12,15,5.0,0.0
823,78.0,6,40,0.0,0.0
824,71.0,12,15,5.0,0.0
825,70.0,12,15,5.0,0.0
826,71.0,6,15,5.0,0.0
827,67.0,12,15,5.0,0.0
828,71.0,0,20,0.0,0.0
829,74.0,0,20,1.0,0.0
830,71.0,0,20,2.0,0.0
831,66.0,9,15,5.0,0.0
832,55.0,1,20,6.0,0.0
833,67.0,14,15,5.0,0.0
834,61.0,0,40,0.0,0.0
835,76.0,0,40,1.0,0.0
836,71.0,6,40,2.0,0.0
837,76.0,12,15,5.0,0.0
838,49.0,6,60,6.0,0.0
839,78.0,12,15,5.0,0.0
840,76.0,6,15,5.0,0.0
841,74.0,12,15,5.0,0.0
842,70.0,3,20,0.0,0.0
843,76.0,3,15,5.0,0.0
844,73.0,12,15,5.0,0.0
845,76.0,6,40,0.0,0.0
846,70.0,12,15,5.0,0.0
847,68.0,12,15,5.0,0.0
848,70.0,6,15,5.0,0.0
849,66.0,12,15,5.0,0.0
850,70.0,0,20,0.0,0.0
851,73.0,0,20,1.0,0.0
852,70.0,0,20,2.0,0.0
853,65.0,9,15,5.0,0.0
854,54.0,1,20,6.0,0.0
855,66.0,12,15,5.0,0.0
856,71.0,0,40,0.0,0.0
857,74.0,0,40,1.0,0.0
858,66.0,4,40,2.0,0.0
859,74.0,12,15,5.0,0.0
860,47.0,6,60,6.0,0.0
861,76.0,12,15,5.0,0.0
862,74.0,8,15,5.0,0.0
863,73.0,12,15,5.0,0.0
864,66.0,1,20,0.0,0.0
865,74.0,5,15,5.0,0.0
866,71.0,26,15,5.0,0.0
867,59.0,27,40,0.0,0.0
868,69.0,18,20,5.0,0.0
869,67.0,18,60,5.0,0.0
870,74.0,0,20,0.0,0.0
871,62.0,0,20,1.0,0.0
872,59.0,0,20,2.0,0.0
873,59.0,7,20,6.0,0.0
874,73.0,0,40,0.0,0.0
875,64.0,0,40,1.0,0.0
876,61.0,4,40,2.0,0.0
877,58.0,6,60,6.0,0.0
878,74.0,12,15,5.0,0.0
879,73.0,8,15,5.0,0.0
880,71.0,12,15,5.0,0.0
881,66.0,1,20,0.0,0.0
882,73.0,5,15,5.0,0.0
883,69.0,26,15,5.0,0.0
884,57.0,27,40,0.0,0.0
885,67.0,18,20,5.0,0.0
886,66.0,18,60,5.0,0.0
887,73.0,0,20,0.0,0.0
888,66.0,0,20,1.0,0.0
889,61.0,0,20,2.0,0.0
890,57.0,7,20,6.0,0.0
891,71.0,0,40,0.0,0.0
892,59.0,0,40,1.0,0.0
893,62.0,4,40,2.0,0.0
894,56.0,6,60,6.0,0.0
895,72.0,12,15,5.0,0.0
896,71.0,8,15,5.0,0.0
897,70.0,12,15,5.0,0.0
898,64.0,1,20,0.0,0.0
899,71.0,5,15,5.0,0.0
900,67.0,26,15,5.0,0.0
901,55.0,27,40,0.0,0.0
902,66.0,18,20,5.0,0.0
903,64.0,20,60,5.0,0.0
904,71.0,0,20,0.0,0.0
905,59.0,0,20,1.0,0.0
906,64.0,0,20,2.0,0.0
907,55.0,7,20,6.0,0.0
908,70.0,0,40,0.0,0.0
909,61.0,0,40,1.0,0.0
910,66.0,0,40,2.0,0.0
911,54.0,6,40,6.0,0.0
912,71.0,12,15,5.0,0.0
913,70.0,6,15,5.0,0.0
914,71.0,12,15,5.0,0.0
915,71.0,0,20,0.0,0.0
916,59.0,0,20,1.0,0.0
917,64.0,0,20,2.0,0.0
918,76.0,9,15,5.0,0.0
919,55.0,1,20,6.0,0.0
920,73.0,14,15,5.0,0.0
921,79.0,5,30,0.0,0.0
922,64.0,0,40,1.0,0.0
923,59.0,0,40,2.0,0.0
924,74.0,12,15,5.0,0.0
925,52.0,4,40,6.0,0.0
926,71.0,7,15,5.0,0.0
927,74.0,6,15,5.0,0.0
928,78.0,2,15,0.0,0.0
929,73.0,12,15,5.0,0.0
930,76.0,0,20,0.0,0.0
931,61.0,0,20,1.0,0.0
932,66.0,0,20,2.0,0.0
933,71.0,9,15,5.0,0.0
934,54.0,1,20,6.0,0.0
935,70.0,6,15,5.0,0.0
936,74.0,0,40,0.0,0.0
937,59.0,0,40,1.0,0.0
938,66.0,21,40,2.0,0.0
939,47.0,0,60,3.0,0.0
940,35.0,0,60,4.0,0.0
941,71.0,4,15,5.0,0.0
942,47.0,1,60,6.0,0.0
943,70.0,34,15,5.0,0.0
944,71.0,5,60,5.0,0.0
945,66.0,45,20,0.0,0.0
946,59.0,27,40,0.0,0.0
947,74.0,0,20,0.0,0.0
948,71.0,0,20,1.0,0.0
949,66.0,0,20,2.0,0.0
950,47.0,0,20,3.0,0.0
951,35.0,0,20,4.0,0.0
952,47.0,45,20,6.0,0.0
953,75.0,0,40,0.0,0.0
954,71.0,0,40,1.0,0.0
955,66.0,21,40,2.0,0.0
956,45.0,0,60,3.0,0.0
957,33.0,0,60,4.0,0.0
958,45.0,6,60,6.0,0.0
959,71.0,7,20,0.0,0.0
960,59.0,27,40,0.0,0.0
961,71.0,4,15,5.0,0.0
962,69.0,34,15,5.0,0.0
963,71.0,22,60,5.0,0.0
964,75.0,0,20,0.0,0.0
965,71.0,0,20,1.0,0.0
966,66.0,0,20,2.0,0.0
967,45.0,0,20,3.0,0.0
968,33.0,0,20,4.0,0.0
969,45.0,5,20,6.0,0.0
970,76.0,0,40,0.0,0.0
971,71.0,0,40,1.0,0.0
972,68.0,6,40,2.0,0.0
973,44.0,0,60,3.0,0.0
974,32.0,0,60,4.0,0.0
975,44.0,6,60,6.0,0.0
976,68.0,12,15,5.0,0.0
977,64.0,6,15,5.0,0.0
978,63.0,12,15,5.0,0.0
979,68.0,1,20,0.0,0.0
980,64.0,3,15,5.0,0.0
981,59.0,12,15,5.0,0.0
982,59.0,4,40,0.0,0.0
983,64.0,12,15,5.0,0.0
984,66.0,12,15,5.0,0.0
985,68.0,8,15,5.0,0.0
986,69.0,23,15,5.0,0.0
987,76.0,0,20,0.0,0.0
988,71.0,0,20,1.0,0.0
989,59.0,0,20,2.0,0.0
990,44.0,0,20,3.0,0.0
991,32.0,0,20,4.0,0.0
992,71.0,10,30,5.0,0.0
993,44.0,5,20,6.0,0.0
994,77.0,0,40,0.0,0.0
995,68.0,0,40,1.0,0.0
996,61.0,6,40,2.0,0.0
997,49.0,0,60,3.0,0.0
998,37.0,0,60,4.0,0.0
999,49.0,6,60,6.0,0.0
1000,73.0,6,15,5.0,0.0
1001,71.0,6,15,5.0,0.0
1002,69.0,12,15,5.0,0.0
1003,71.0,6,15,5.0,0.0
1004,68.0,12,15,5.0,0.0
1005,68.0,3,20,0.0,0.0
1006,65.0,3,15,5.0,0.0
1007,66.0,12,15,5.0,0.0
1008,61.0,6,40,0.0,0.0
1009,68.0,12,15,5.0,0.0
1010,69.0,12,15,5.0,0.0
1011,71.0,6,15,5.0,0.0
1012,74.0,12,15,5.0,0.0
1013,77.0,0,20,0.0,0.0
1014,73.0,0,20,1.0,0.0
1015,68.0,0,20,2.0,0.0
1016,49.0,0,20,3.0,0.0
1017,37.0,0,20,4.0,0.0
1018,73.0,9,15,5.0,0.0
1019,49.0,1,20,6.0,0.0
1020,71.0,12,15,5.0,0.0
1021,78.0,0,40,0.0,0.0
1022,73.0,0,40,1.0,0.0
1023,66.0,0,40,2.0,0.0
1024,42.0,0,40,3.0,0.0
1025,30.0,6,40,4.0,0.0
1026,69.0,14,15,5.0,0.0
1027,42.0,6,60,6.0,0.0
1028,61.0,12,15,5.0,0.0
1029,63.0,6,15,5.0,0.0
1030,65.0,12,15,5.0,0.0
1031,73.0,1,20,0.0,0.0
1032,66.0,3,15,5.0,0.0
1033,68.0,8,15,5.0,0.0
1034,66.0,4,40,0.0,0.0
1035,69.0,6,15,5.0,0.0
1036,68.0,6,15,5.0,0.0
1037,66.0,6,15,5.0,0.0
1038,65.0,12,15,5.0,0.0
1039,66.0,6,15,5.0,0.0
1040,69.0,6,15,5.0,0.0
1041,81.0,0,20,0.0,0.0
1042,66.0,0,20,1.0,0.0
1043,66.0,0,20,2.0,0.0
1044,74.0,4,15,5.0,0.0
1045,66.0,11,20,6.0,0.0
1046,73.0,13,15,5.0,0.0
1047,74.0,13,20,5.0,0.0
1048,80.0,0,40,0.0,0.0
1049,65.0,0,40,1.0,0.0
1050,65.0,6,40,2.0,0.0
1051,65.0,3,20,6.0,0.0
1052,59.0,12,15,5.0,0.0
1053,61.0,6,15,5.0,0.0
1054,62.0,12,15,5.0,0.0
1055,73.0,1,20,0.0,0.0
1056,64.0,9,15,5.0,0.0
1057,66.0,8,15,5.0,0.0
1058,64.0,4,40,0.0,0.0
1059,68.0,6,15,5.0,0.0
1060,66.0,6,15,5.0,0.0
1061,64.0,6,15,5.0,0.0
1062,63.0,12,15,5.0,0.0
1063,64.0,6,15,5.0,0.0
1064,68.0,23,15,5.0,0.0
1065,80.0,0,20,0.0,0.0
1066,64.0,0,20,1.0,0.0
1067,64.0,0,20,2.0,0.0
1068,73.0,14,30,5.0,0.0
1069,64.0,10,20,6.0,0.0
1070,78.0,0,40,0.0,0.0
1071,63.0,0,40,1.0,0.0
1072,63.0,6,40,2.0,0.0
1073,63.0,3,20,6.0,0.0
1074,57.0,12,15,5.0,0.0
1075,59.0,6,15,5.0,0.0
1076,61.0,12,15,5.0,0.0
1077,71.0,1,20,0.0,0.0
1078,63.0,9,15,5.0,0.0
1079,64.0,8,15,5.0,0.0
1080,62.0,4,40,0.0,0.0
1081,66.0,6,15,5.0,0.0
1082,64.0,6,15,5.0,0.0
1083,62.0,6,15,5.0,0.0
1084,61.0,12,15,5.0,0.0
1085,62.0,6,15,5.0,0.0
1086,66.0,23,15,5.0,0.0
1087,78.0,0,20,0.0,0.0
1088,62.0,0,20,1.0,0.0
1089,62.0,0,20,2.0,0.0
1090,71.0,17,30,5.0,0.0
1091,62.0,10,20,6.0,0.0
1092,77.0,0,40,0.0,0.0
1093,61.0,0,40,1.0,0.0
1094,61.0,0,40,2.0,0.0
1095,61.0,0,40,3.0,0.0
1096,61.0,6,40,6.0,0.0
1097,74.0,12,15,5.0,0.0
1098,73.0,6,15,5.0,0.0
1099,71.0,12,15,5.0,0.0
1100,56.0,0,20,3.0,0.0
1101,77.0,9,15,5.0,0.0
1102,56.0,1,20,6.0,0.0
1103,78.0,14,15,5.0,0.0
1104,49.0,0,40,3.0,0.0
1105,80.0,12,15,5.0,0.0
1106,49.0,4,40,6.0,0.0
1107,77.0,12,15,5.0,0.0
1108,78.0,6,15,5.0,0.0
1109,75.0,23,15,5.0,0.0
1110,77.0,0,20,0.0,0.0
1111,73.0,0,20,1.0,0.0
1112,68.0,0,20,2.0,0.0
1113,59.0,0,20,3.0,0.0
1114,73.0,0,20,5.0,0.0
1115,59.0,45,20,6.0,0.0
1116,78.0,0,40,0.0,0.0
1117,73.0,0,40,1.0,0.0
1118,66.0,0,40,2.0,0.0
1119,58.0,0,40,3.0,0.0
1120,58.0,27,40,6.0,0.0
1121,73.0,7,20,0.0,0.0
1122,66.0,27,40,0.0,0.0
1123,76.0,4,15,5.0,0.0
1124,75.0,34,15,5.0,0.0
1125,76.0,22,60,5.0,0.0
1126,70.0,0,20,0.0,0.0
1127,73.0,0,20,1.0,0.0
1128,66.0,0,20,2.0,0.0
1129,54.0,5,20,6.0,0.0
1130,59.0,0,40,0.0,0.0
1131,71.0,0,40,1.0,0.0
1132,66.0,0,40,2.0,0.0
1133,59.0,0,40,3.0,0.0
1134,59.0,6,40,6.0,0.0
1135,72.0,12,15,5.0,0.0
1136,71.0,6,15,5.0,0.0
1137,69.0,12,15,5.0,0.0
1138,54.0,0,20,3.0,0.0
1139,75.0,9,15,5.0,0.0
1140,54.0,1,20,6.0,0.0
1141,76.0,8,15,5.0,0.0
1142,47.0,0,40,3.0,0.0
1143,78.0,5,15,5.0,0.0
1144,47.0,4,40,6.0,0.0
1145,76.0,11,15,5.0,0.0
1146,75.0,8,15,5.0,0.0
1147,76.0,5,15,5.0,0.0
1148,75.0,7,15,5.0,0.0
1149,73.0,23,15,5.0,0.0
1150,75.0,0,20,0.0,0.0
1151,71.0,0,20,1.0,0.0
1152,66.0,0,20,2.0,0.0
1153,57.0,0,20,3.0,0.0
1154,71.0,0,20,5.0,0.0
1155,57.0,45,20,6.0,0.0
1156,76.0,0,40,0.0,0.0
1157,71.0,0,40,1.0,0.0
1158,64.0,0,40,2.0,0.0
1159,56.0,0,40,3.0,0.0
1160,56.0,27,40,6.0,0.0
1161,71.0,7,20,0.0,0.0
1162,64.0,27,40,0.0,0.0
1163,74.0,4,15,5.0,0.0
1164,73.0,34,15,5.0,0.0
1165,74.0,20,60,5.0,0.0
1166,68.0,0,20,0.0,0.0
1167,71.0,0,20,1.0,0.0
1168,64.0,0,20,2.0,0.0
1169,52.0,5,20,6.0,0.0
1170,57.0,0,40,0.0,0.0
1171,69.0,0,40,1.0,0.0
1172,64.0,0,40,2.0,0.0
1173,57.0,0,40,3.0,0.0
1174,57.0,4,40,6.0,0.0
1175,70.0,12,15,5.0,0.0
1176,69.0,8,15,5.0,0.0
1177,67.0,12,15,5.0,0.0
1178,52.0,0,20,3.0,0.0
1179,73.0,11,15,5.0,0.0
1180,52.0,1,20,6.0,0.0
1181,74.0,8,15,5.0,0.0
1182,45.0,0,40,3.0,0.0
1183,76.0,6,15,5.0,0.0
1184,45.0,5,40,6.0,0.0
1185,78.0,6,15,5.0,0.0
1186,76.0,5,15,5.0,0.0
1187,73.0,7,15,5.0,0.0
1188,74.0,6,15,5.0,0.0
1189,76.0,6,15,5.0,0.0
1190,74.0,0,15,5.0,0.0
1191,71.0,7,15,5.0,0.0
1192,57.0,0,20,0.0,0.0
1193,73.0,0,20,1.0,0.0
1194,64.0,0,20,2.0,0.0
1195,55.0,0,20,3.0,0.0
1196,69.0,15,15,5.0,0.0
1197,55.0,24,20,6.0,0.0
1198,62.0,0,40,0.0,0.0
1199,74.0,0,40,1.0,0.0
1200,62.0,0,40,2.0,0.0
1201,54.0,3,40,3.0,0.0
1202,69.0,23,60,5.0,0.0
1203,54.0,21,20,6.0,0.0
1204,57.0,24,20,6.0,0.0
1205,69.0,0,20,0.0,0.0
1206,54.0,4,20,6.0,0.0
1207,78.0,0,40,0.0,0.0
1208,50.0,6,40,6.0,0.0
1209,73.0,12,15,5.0,0.0
1210,74.0,6,15,5.0,0.0
1211,71.0,12,15,5.0,0.0
1212,62.0,0,20,0.0,0.0
1213,78.0,0,20,1.0,0.0
1214,69.0,0,20,2.0,0.0
1215,50.0,0,20,3.0,0.0
1216,69.0,9,15,5.0,0.0
1217,38.0,1,20,6.0,0.0
1218,68.0,23,15,5.0,0.0
1219,61.0,0,40,0.0,0.0
1220,76.0,0,40,1.0,0.0
1221,69.0,3,40,2.0,0.0
1222,57.0,6,60,3.0,0.0
1223,68.0,18,20,5.0,0.0
1224,45.0,3,20,6.0,0.0
1225,69.0,20,60,5.0,0.0
1226,57.0,18,20,6.0,0.0
1227,69.0,0,20,0.0,0.0
1228,52.0,7,20,6.0,0.0
1229,76.0,0,40,0.0,0.0
1230,49.0,6,40,6.0,0.0
1231,74.0,12,15,5.0,0.0
1232,76.0,6,15,5.0,0.0
1233,73.0,12,15,5.0,0.0
1234,61.0,0,20,0.0,0.0
1235,81.0,0,20,1.0,0.0
1236,69.0,0,20,2.0,0.0
1237,54.0,0,20,3.0,0.0
1238,71.0,9,15,5.0,0.0
1239,54.0,1,20,6.0,0.0
1240,69.0,23,15,5.0,0.0
1241,59.0,0,40,0.0,0.0
1242,74.0,0,40,1.0,0.0
1243,71.0,0,40,2.0,0.0
1244,59.0,3,40,3.0,0.0
1245,69.0,18,20,5.0,0.0
1246,47.0,3,20,6.0,0.0
1247,68.0,20,60,5.0,0.0
1248,50.0,24,20,6.0,0.0
1249,68.0,0,20,0.0,0.0
1250,47.0,7,20,6.0,0.0
1251,74.0,0,40,0.0,0.0
1252,52.0,6,40,6.0,0.0
1253,69.0,12,15,5.0,0.0
1254,71.0,6,15,5.0,0.0
1255,66.0,12,15,5.0,0.0
1256,59.0,0,20,0.0,0.0
1257,80.0,0,20,1.0,0.0
1258,71.0,0,20,2.0,0.0
1259,52.0,0,20,3.0,0.0
1260,64.0,9,15,5.0,0.0
1261,40.0,1,20,6.0,0.0
1262,62.0,12,15,5.0,0.0
1263,57.0,0,40,0.0,0.0
1264,81.0,0,40,1.0,0.0
1265,73.0,0,40,2.0,0.0
1266,57.0,3,40,3.0,0.0
1267,61.0,11,15,5.0,0.0
1268,45.0,1,20,6.0,0.0
1269,62.0,7,15,5.0,0.0
1270,64.0,6,15,5.0,0.0
1271,49.0,1,20,6.0,0.0
1272,62.0,7,15,5.0,0.0
1273,61.0,7,15,5.0,0.0
1274,64.0,0,20,0.0,0.0
1275,62.0,6,15,5.0,0.0
1276,52.0,1,20,6.0,0.0
1277,61.0,10,15,5.0,0.0
1278,59.0,44,15,5.0,0.0
1279,73.0,3,40,0.0,0.0
1280,57.0,23,60,5.0,0.0
1281,45.0,24,20,6.0,0.0
1282,64.0,0,20,0.0,0.0
1283,72.0,0,20,1.0,0.0
1284,69.0,0,20,2.0,0.0
1285,55.0,0,20,3.0,0.0
1286,55.0,4,20,6.0,0.0
1287,63.0,0,40,0.0,0.0
1288,72.0,0,40,1.0,0.0
1289,69.0,0,40,2.0,0.0
1290,54.0,0,40,3.0,0.0
1291,54.0,6,40,6.0,0.0
1292,67.0,12,15,5.0,0.0
1293,66.0,6,15,5.0,0.0
1294,64.0,12,15,5.0,0.0
1295,69.0,3,20,0.0,0.0
1296,63.0,9,15,5.0,0.0
1297,66.0,12,15,5.0,0.0
1298,78.0,6,40,0.0,0.0
1299,69.0,12,15,5.0,0.0
1300,71.0,12,15,5.0,0.0
1301,69.0,6,15,5.0,0.0
1302,68.0,12,15,5.0,0.0
1303,69.0,0,20,0.0,0.0
1304,76.0,0,20,1.0,0.0
1305,72.0,0,20,2.0,0.0
1306,52.0,0,20,3.0,0.0
1307,69.0,9,15,5.0,0.0
1308,52.0,1,20,6.0,0.0
1309,72.0,8,15,5.0,0.0
1310,59.0,0,40,0.0,0.0
1311,78.0,0,40,1.0,0.0
1312,71.0,0,40,2.0,0.0
1313,51.0,0,40,3.0,0.0
1314,71.0,5,15,5.0,0.0
1315,51.0,6,40,6.0,0.0
1316,69.0,13,15,5.0,0.0
1317,64.0,12,15,5.0,0.0
1318,66.0,6,15,5.0,0.0
1319,69.0,12,15,5.0,0.0
1320,69.0,1,20,0.0,0.0
1321,72.0,9,15,5.0,0.0
1322,71.0,14,15,5.0,0.0
1323,78.0,6,40,0.0,0.0
1324,72.0,12,15,5.0,0.0
1325,69.0,12,15,5.0,0.0
1326,75.0,6,15,5.0,0.0
1327,76.0,10,15,5.0,0.0
1328,69.0,0,20,0.0,0.0
1329,75.0,0,20,1.0,0.0
1330,71.0,0,20,2.0,0.0
1331,47.0,0,20,3.0,0.0
1332,78.0,11,15,5.0,0.0
1333,47.0,1,20,6.0,0.0
1334,69.0,14,15,5.0,0.0
1335,59.0,0,40,0.0,0.0
1336,76.0,0,40,1.0,0.0
1337,71.0,0,40,2.0,0.0
1338,52.0,0,40,3.0,0.0
1339,67.0,12,15,5.0,0.0
1340,52.0,6,40,6.0,0.0
1341,69.0,12,15,5.0,0.0
1342,67.0,6,15,5.0,0.0
1343,66.0,12,15,5.0,0.0
1344,67.0,1,20,0.0,0.0
1345,67.0,9,15,5.0,0.0
1346,64.0,12,15,5.0,0.0
1347,76.0,0,120,0.0,0.0
1348,59.0,12,15,5.0,0.0
1349,63.0,12,15,5.0,0.0
1350,64.0,12,15,5.0,0.0
1351,66.0,12,15,5.0,0.0
1352,71.0,0,20,1.0,0.0
1353,66.0,0,20,2.0,0.0
1354,54.0,0,20,3.0,0.0
1355,67.0,11,15,5.0,0.0
1356,54.0,1,20,6.0,0.0
1357,69.0,14,15,5.0,0.0
1358,71.0,0,40,1.0,0.0
1359,64.0,0,40,2.0,0.0
1360,56.0,0,40,3.0,0.0
1361,71.0,12,15,5.0,0.0
1362,56.0,6,40,6.0,0.0
1363,73.0,12,15,5.0,0.0
1364,71.0,6,15,5.0,0.0
1365,70.0,12,15,5.0,0.0
1366,62.0,3,20,0.0,0.0
1367,71.0,9,15,5.0,0.0
1368,68.0,12,15,5.0,0.0
1369,61.0,6,40,0.0,0.0
1370,64.0,12,15,5.0,0.0
1371,66.0,12,15,5.0,0.0
1372,68.0,6,15,5.0,0.0
1373,70.0,12,15,5.0,0.0
1374,76.0,0,20,0.0,0.0
1375,66.0,0,20,1.0,0.0
1376,66.0,0,20,2.0,0.0
1377,58.0,0,20,3.0,0.0
1378,71.0,9,15,5.0,0.0
1379,58.0,1,20,6.0,0.0
1380,73.0,14,15,5.0,0.0
1381,66.0,0,40,0.0,0.0
1382,71.0,0,40,1.0,0.0
1383,66.0,0,40,2.0,0.0
1384,59.0,0,40,3.0,0.0
1385,74.0,12,15,5.0,0.0
1386,59.0,6,40,6.0,0.0
1387,70.0,12,15,5.0,0.0
1388,71.0,6,15,5.0,0.0
1389,65.0,12,15,5.0,0.0
1390,74.0,1,20,0.0,0.0
1391,66.0,9,15,5.0,0.0
1392,71.0,12,15,5.0,0.0
1393,83.0,4,40,0.0,0.0
1394,74.0,12,15,5.0,0.0
1395,76.0,12,15,5.0,0.0
1396,74.0,8,15,5.0,0.0
1397,73.0,12,15,5.0,0.0
1398,66.0,0,20,0.0,0.0
1399,71.0,0,20,1.0,0.0
1400,66.0,0,20,2.0,0.0
1401,57.0,0,20,3.0,0.0
1402,74.0,11,15,5.0,0.0
1403,57.0,1,20,6.0,0.0
1404,78.0,8,15,5.0,0.0
1405,64.0,0,40,0.0,0.0
1406,71.0,0,40,1.0,0.0
1407,64.0,0,40,2.0,0.0
1408,56.0,0,40,3.0,0.0
1409,76.0,6,15,5.0,0.0
1410,56.0,6,40,6.0,0.0
1411,74.0,12,15,5.0,0.0
1412,69.0,12,15,5.0,0.0
1413,71.0,6,15,5.0,0.0
1414,66.0,12,15,5.0,0.0
1415,76.0,3,20,0.0,0.0
1416,68.0,9,15,5.0,0.0
1417,71.0,12,15,5.0,0.0
1418,83.0,6,40,0.0,0.0
1419,74.0,12,15,5.0,0.0
1420,76.0,12,15,5.0,0.0
1421,74.0,6,15,5.0,0.0
1422,73.0,10,15,5.0,0.0
1423,68.0,0,20,0.0,0.0
1424,71.0,0,20,1.0,0.0
1425,64.0,0,20,2.0,0.0
1426,52.0,0,20,3.0,0.0
1427,74.0,11,15,5.0,0.0
1428,52.0,1,20,6.0,0.0
1429,83.0,14,15,5.0,0.0
1430,69.0,0,40,0.0,0.0
1431,69.0,0,40,1.0,0.0
1432,64.0,0,40,2.0,0.0
1433,57.0,0,40,3.0,0.0
1434,73.0,12,15,5.0,0.0
1435,45.0,6,40,6.0,0.0
1436,74.0,12,15,5.0,0.0
1437,73.0,6,15,5.0,0.0
1438,71.0,12,15,5.0,0.0
1439,76.0,3,20,0.0,0.0
1440,73.0,9,15,5.0,0.0
1441,69.0,12,15,5.0,0.0
1442,85.0,6,40,0.0,0.0
1443,66.0,12,15,5.0,0.0
1444,65.0,12,15,5.0,0.0
1445,66.0,6,15,5.0,0.0
1446,62.0,12,15,5.0,0.0
1447,78.0,0,20,0.0,0.0
1448,78.0,0,20,1.0,0.0
1449,66.0,0,20,2.0,0.0
1450,62.0,0,20,3.0,0.0
1451,61.0,9,15,5.0,0.0
1452,50.0,1,20,6.0,0.0
1453,62.0,14,15,5.0,0.0
1454,68.0,0,40,0.0,0.0
1455,78.0,0,20,1.0,0.0
1456,68.0,0,40,2.0,0.0
1457,56.0,0,40,3.0,0.0
1458,71.0,12,15,5.0,0.0
1459,44.0,3,40,6.0,0.0
1460,73.0,12,15,5.0,0.0
1461,77.0,3,20,1.0,0.0
1462,71.0,6,15,5.0,0.0
1463,69.0,12,15,5.0,0.0
1464,74.0,3,20,0.0,0.0
1465,71.0,9,15,5.0,0.0
1466,68.0,12,15,5.0,0.0
1467,83.0,6,40,0.0,0.0
1468,65.0,12,15,5.0,0.0
1469,63.0,12,15,5.0,0.0
1470,65.0,6,15,5.0,0.0
1471,61.0,12,15,5.0,0.0
1472,77.0,0,20,0.0,0.0
1473,73.0,0,20,1.0,0.0
1474,68.0,0,20,2.0,0.0
1475,61.0,0,20,3.0,0.0
1476,60.0,9,15,5.0,0.0
1477,49.0,1,20,6.0,0.0
1478,61.0,14,15,5.0,0.0
1479,78.0,0,40,0.0,0.0
1480,73.0,0,40,1.0,0.0
1481,66.0,0,40,2.0,0.0
1482,54.0,0,40,3.0,0.0
1483,69.0,12,15,5.0,0.0
1484,42.0,6,40,6.0,0.0
1485,71.0,12,15,5.0,0.0
1486,69.0,6,15,5.0,0.0
1487,68.0,12,15,5.0,0.0
1488,73.0,1,20,0.0,0.0
1489,69.0,9,15,5.0,0.0
1490,66.0,26,15,5.0,0.0
1491,66.0,27,40,0.0,0.0
1492,64.0,18,20,5.0,0.0
1493,62.0,20,60,5.0,0.0
1494,81.0,0,20,0.0,0.0
1495,69.0,0,20,1.0,0.0
1496,66.0,0,20,2.0,0.0
1497,54.0,0,20,3.0,0.0
1498,54.0,7,20,6.0,0.0
1499,80.0,0,40,0.0,0.0
1500,71.0,0,40,1.0,0.0
1501,68.0,6,40,2.0,0.0
1502,53.0,0,60,3.0,0.0
1503,53.0,6,60,6.0,0.0
1504,69.0,12,15,5.0,0.0
1505,68.0,6,15,5.0,0.0
1506,66.0,12,15,5.0,0.0
1507,73.0,1,20,0.0,0.0
1508,68.0,3,15,5.0,0.0
1509,64.0,26,15,5.0,0.0
1510,64.0,27,40,0.0,0.0
1511,62.0,18,20,5.0,0.0
1512,61.0,20,60,5.0,0.0
1513,80.0,0,20,0.0,0.0
1514,73.0,0,20,1.0,0.0
1515,68.0,0,20,2.0,0.0
1516,52.0,0,20,3.0,0.0
1517,52.0,7,20,6.0,0.0
1518,78.0,0,40,0.0,0.0
1519,66.0,0,40,1.0,0.0
1520,69.0,6,40,2.0,0.0
1521,51.0,0,60,3.0,0.0
1522,51.0,6,60,6.0,0.0
1523,67.0,12,15,5.0,0.0
1524,66.0,6,15,5.0,0.0
1525,65.0,12,15,5.0,0.0
1526,71.0,1,20,0.0,0.0
1527,66.0,3,15,5.0,0.0
1528,62.0,26,15,5.0,0.0
1529,62.0,27,40,0.0,0.0
1530,61.0,18,20,5.0,0.0
1531,59.0,20,60,5.0,0.0
1532,78.0,0,20,0.0,0.0
1533,71.0,0,20,1.0,0.0
1534,66.0,0,20,2.0,0.0
1535,50.0,0,20,3.0,0.0
1536,50.0,7,20,6.0,0.0
1537,77.0,0,40,0.0,0.0
1538,73.0,0,40,1.0,0.0
1539,68.0,0,40,2.0,0.0
1540,49.0,0,40,3.0,0.0
1541,49.0,6,40,6.0,0.0
1542,66.0,12,15,5.0,0.0
1543,65.0,6,15,5.0,0.0
1544,66.0,12,15,5.0,0.0
1545,78.0,0,20,0.0,0.0
1546,71.0,0,20,1.0,0.0
1547,66.0,0,20,2.0,0.0
1548,50.0,0,20,3.0,0.0
1549,71.0,9,15,5.0,0.0
1550,50.0,1,20,6.0,0.0
1551,68.0,14,15,5.0,0.0
1552,74.0,5,30,0.0,0.0
1553,66.0,0,40,1.0,0.0
1554,71.0,0,40,2.0,0.0
1555,47.0,0,40,3.0,0.0
1556,69.0,12,15,5.0,0.0
1557,47.0,4,40,6.0,0.0
1558,66.0,7,15,5.0,0.0
1559,69.0,6,15,5.0,0.0
1560,73.0,2,15,0.0,0.0
1561,68.0,12,15,5.0,0.0
1562,71.0,0,20,0.0,0.0
1563,73.0,0,20,1.0,0.0
1564,68.0,0,20,2.0,0.0
1565,49.0,0,20,3.0,0.0
1566,66.0,9,15,5.0,0.0
1567,49.0,1,20,6.0,0.0
1568,65.0,44,15,5.0,0.0
1569,69.0,0,40,0.0,0.0
1570,73.0,0,40,1.0,0.0
1571,69.0,21,40,2.0,0.0
1572,42.0,0,60,3.0,0.0
1573,30.0,0,60,4.0,0.0
1574,66.0,42,60,5.0,0.0
1575,42.0,6,60,6.0,0.0
1576,73.0,3,20,0.0,0.0
1577,66.0,27,40,0.0,0.0
1578,81.0,0,20,0.0,0.0
1579,74.0,0,20,1.0,0.0
1580,66.0,0,20,2.0,0.0
1581,54.0,0,20,3.0,0.0
1582,42.0,0,20,4.0,0.0
1583,54.0,27,20,6.0,0.0
1584,80.0,0,40,0.0,0.0
1585,74.0,18,20,1.0,0.0
1586,68.0,0,40,2.0,0.0
1587,53.0,0,40,3.0,0.0
1588,41.0,0,40,4.0,0.0
1589,53.0,3,40,6.0,0.0
1590,73.0,24,20,1.0,0.0
1591,73.0,45,20,0.0,0.0
1592,64.0,27,40,0.0,0.0
1593,80.0,0,20,0.0,0.0
1594,73.0,0,20,1.0,0.0
1595,68.0,0,20,2.0,0.0
1596,52.0,0,20,3.0,0.0
1597,40.0,0,20,4.0,0.0
1598,52.0,27,20,6.0,0.0
1599,78.0,0,40,0.0,0.0
1600,73.0,0,20,1.0,0.0
1601,69.0,18,20,2.0,0.0
1602,51.0,0,40,3.0,0.0
1603,39.0,0,40,4.0,0.0
1604,51.0,3,40,6.0,0.0
1605,71.0,0,20,1.0,0.0
1606,66.0,24,20,2.0,0.0
1607,71.0,45,20,0.0,0.0
1608,62.0,27,40,0.0,0.0
1609,78.0,0,20,0.0,0.0
1610,71.0,0,20,1.0,0.0
1611,71.0,0,20,2.0,0.0
1612,50.0,0,20,3.0,0.0
1613,38.0,0,20,4.0,0.0
1614,50.0,34,20,6.0,0.0
1615,77.0,0,40,0.0,0.0
1616,71.0,11,30,1.0,0.0
1617,68.0,0,40,2.0,0.0
1618,49.0,0,40,3.0,0.0
1619,37.0,0,40,4.0,0.0
1620,49.0,4,40,6.0,0.0
1621,73.0,23,15,1.0,0.0
1622,78.0,0,20,0.0,0.0
1623,69.0,0,20,1.0,0.0
1624,66.0,0,20,2.0,0.0
1625,50.0,0,20,3.0,0.0
1626,38.0,0,20,4.0,0.0
1627,50.0,34,20,6.0,0.0
1628,78.0,0,40,0.0,0.0
1629,68.0,11,30,1.0,0.0
1630,62.0,0,40,2.0,0.0
1631,47.0,0,40,3.0,0.0
1632,35.0,0,40,4.0,0.0
1633,47.0,4,40,6.0,0.0
1634,69.0,23,15,1.0,0.0
1635,77.0,0,20,0.0,0.0
1636,71.0,0,20,1.0,0.0
1637,61.0,0,20,2.0,0.0
1638,49.0,0,20,3.0,0.0
1639,37.0,0,20,4.0,0.0
1640,49.0,75,20,6.0,0.0
1641,78.0,0,60,0.0,0.0
1642,69.0,0,60,1.0,0.0
1643,61.0,0,60,2.0,0.0
1644,42.0,0,60,3.0,0.0
1645,30.0,0,60,4.0,0.0
1646,42.0,216,60,6.0,0.0
