tick,type,numerator,denominator,clocks_per_click,notated_32nd_notes_per_beat,time,meta,track,data,tempo,key,control,value,channel,program,note,velocity
0,time_signature,4,4,96,8,0,1,0,,,,,,,,,
0,control_change,,,,,0,0,5,,,,10,96,2,,,
0,control_change,,,,,0,0,5,,,,93,21,2,,,
0,key_signature,,,,,0,1,5,,,Dm,,,,,,
0,note_on,,,,,0,0,5,,,,,,2,,62,100
0,track_name,,,,,0,1,6,,,,,,,,,
0,control_change,,,,,0,0,6,,,,0,0,3,,,
0,program_change,,,,,0,0,6,,,,,,3,43,,
0,control_change,,,,,0,0,6,,,,7,79,3,,,
0,control_change,,,,,0,0,6,,,,10,32,3,,,
0,control_change,,,,,0,0,6,,,,93,14,3,,,
0,key_signature,,,,,0,1,6,,,Dm,,,,,,
0,note_on,,,,,0,0,6,,,,,,3,,50,100
0,track_name,,,,,0,1,7,,,,,,,,,
0,control_change,,,,,0,0,7,,,,0,0,3,,,
0,program_change,,,,,0,0,7,,,,,,3,43,,
0,control_change,,,,,0,0,7,,,,7,79,3,,,
0,control_change,,,,,0,0,7,,,,10,32,3,,,
0,control_change,,,,,0,0,7,,,,93,14,3,,,
0,key_signature,,,,,0,1,7,,,Dm,,,,,,
0,control_change,,,,,0,0,5,,,,7,72,2,,,
0,program_change,,,,,0,0,5,,,,,,2,42,,
0,control_change,,,,,0,0,5,,,,0,0,2,,,
0,track_name,,,,,0,1,5,,,,,,,,,
0,end_of_track,,,,,0,1,1,,,,,,,,,
0,track_name,,,,,0,1,2,,,,,,,,,
0,key_signature,,,,,0,1,2,,,C,,,,,,
0,end_of_track,,,,,0,1,2,,,,,,,,,
0,track_name,,,,,0,1,3,,,,,,,,,
0,control_change,,,,,0,0,3,,,,0,0,0,,,
0,control_change,,,,,0,0,3,,,,7,97,0,,,
0,control_change,,,,,0,0,3,,,,10,127,0,,,
0,control_change,,,,,0,0,3,,,,93,0,0,,,
0,note_on,,,,,0,0,7,,,,,,3,,38,100
0,program_change,,,,,0,0,3,,,,,,0,40,,
0,note_on,,,,,0,0,3,,,,,,0,,62,100
0,track_name,,,,,0,1,4,,,,,,,,,
0,control_change,,,,,0,0,4,,,,0,0,1,,,
0,program_change,,,,,0,0,4,,,,,,1,41,,
0,control_change,,,,,0,0,4,,,,7,85,1,,,
0,control_change,,,,,0,0,4,,,,10,0,1,,,
0,control_change,,,,,0,0,4,,,,93,15,1,,,
0,key_signature,,,,,0,1,4,,,Dm,,,,,,
0,note_on,,,,,0,0,4,,,,,,1,,62,100
0,key_signature,,,,,0,1,3,,,Dm,,,,,,
0,control_change,,,,,0,0,18,,,,7,100,6,,,
0,track_name,,,,,0,1,8,,,,,,,,,
0,control_change,,,,,0,0,8,,,,0,0,4,,,
0,track_name,,,,,0,1,13,,,,,,,,,
0,control_change,,,,,0,0,13,,,,7,92,6,,,
0,key_signature,,,,,0,1,13,,,Dm,,,,,,
0,end_of_track,,,,,0,1,13,,,,,,,,,
0,track_name,,,,,0,1,14,,,,,,,,,
0,control_change,,,,,0,0,14,,,,7,92,6,,,
0,key_signature,,,,,0,1,14,,,Dm,,,,,,
0,end_of_track,,,,,0,1,14,,,,,,,,,
0,track_name,,,,,0,1,15,,,,,,,,,
0,end_of_track,,,,,0,1,12,,,,,,,,,
0,control_change,,,,,0,0,15,,,,7,92,6,,,
0,end_of_track,,,,,0,1,15,,,,,,,,,
0,track_name,,,,,0,1,16,,,,,,,,,
0,control_change,,,,,0,0,16,,,,7,92,6,,,
0,key_signature,,,,,0,1,16,,,Dm,,,,,,
0,end_of_track,,,,,0,1,16,,,,,,,,,
0,track_name,,,,,0,1,17,,,,,,,,,
0,control_change,,,,,0,0,17,,,,7,100,6,,,
0,end_of_track,,,,,0,1,17,,,,,,,,,
0,track_name,,,,,0,1,18,,,,,,,,,
0,key_signature,,,,,0,1,15,,,Dm,,,,,,
0,key_signature,,,,,0,1,1,,,C,,,,,,
0,key_signature,,,,,0,1,12,,,Dm,,,,,,
0,track_name,,,,,0,1,12,,,,,,,,,
0,program_change,,,,,0,0,8,,,,,,4,6,,
0,control_change,,,,,0,0,8,,,,7,92,4,,,
0,control_change,,,,,0,0,8,,,,10,44,4,,,
0,key_signature,,,,,0,1,8,,,Dm,,,,,,
0,note_on,,,,,0,0,8,,,,,,4,,62,100
0,track_name,,,,,0,1,9,,,,,,,,,
0,control_change,,,,,0,0,9,,,,0,0,4,,,
0,program_change,,,,,0,0,9,,,,,,4,6,,
0,control_change,,,,,0,0,9,,,,7,92,4,,,
0,control_change,,,,,0,0,12,,,,7,92,6,,,
0,control_change,,,,,0,0,9,,,,10,44,4,,,
0,note_on,,,,,0,0,9,,,,,,4,,50,100
0,track_name,,,,,0,1,10,,,,,,,,,
0,control_change,,,,,0,0,10,,,,7,92,6,,,
0,key_signature,,,,,0,1,10,,,Dm,,,,,,
0,end_of_track,,,,,0,1,10,,,,,,,,,
0,track_name,,,,,0,1,11,,,,,,,,,
0,control_change,,,,,0,0,11,,,,7,92,6,,,
0,key_signature,,,,,0,1,11,,,Dm,,,,,,
0,end_of_track,,,,,0,1,11,,,,,,,,,
0,key_signature,,,,,0,1,9,,,Dm,,,,,,
0,track_name,,,,,0,1,1,,,,,,,,,
0,end_of_track,,,,,0,1,18,,,,,,,,,
0,set_tempo,,,,,0,1,0,,576923,,,,,,,
0,sequencer_specific,,,,,0,1,0,"(0, 0, 119, 14, 1)",,,,,,,,
0,sequencer_specific,,,,,0,1,0,"(0, 0, 65)",,,,,,,,
96,note_off,,,,,96,0,6,,,,,,3,,50,0
96,note_on,,,,,0,0,4,,,,,,1,,64,100
96,note_off,,,,,96,0,9,,,,,,4,,50,0
96,note_on,,,,,0,0,9,,,,,,4,,52,100
96,note_off,,,,,96,0,4,,,,,,1,,62,0
96,note_on,,,,,0,0,8,,,,,,4,,64,100
96,note_off,,,,,96,0,8,,,,,,4,,62,0
96,note_on,,,,,0,0,3,,,,,,0,,64,100
96,note_off,,,,,96,0,3,,,,,,0,,62,0
96,note_on,,,,,0,0,7,,,,,,3,,40,100
96,note_off,,,,,96,0,7,,,,,,3,,38,0
96,note_off,,,,,96,0,5,,,,,,2,,62,0
96,note_on,,,,,0,0,5,,,,,,2,,64,100
96,note_on,,,,,0,0,6,,,,,,3,,52,100
192,note_on,,,,,0,0,8,,,,,,4,,65,100
192,note_off,,,,,96,0,8,,,,,,4,,64,0
192,note_off,,,,,96,0,6,,,,,,3,,52,0
192,note_off,,,,,96,0,4,,,,,,1,,64,0
192,note_on,,,,,0,0,3,,,,,,0,,65,100
192,note_on,,,,,0,0,6,,,,,,3,,53,100
192,note_off,,,,,96,0,9,,,,,,4,,52,0
192,note_on,,,,,0,0,9,,,,,,4,,53,100
192,note_on,,,,,0,0,4,,,,,,1,,65,100
192,note_off,,,,,96,0,3,,,,,,0,,64,0
192,note_on,,,,,0,0,7,,,,,,3,,41,100
192,note_off,,,,,96,0,7,,,,,,3,,40,0
192,note_on,,,,,0,0,5,,,,,,2,,65,100
192,note_off,,,,,96,0,5,,,,,,2,,64,0
320,note_off,,,,,128,0,4,,,,,,1,,65,0
320,note_off,,,,,128,0,5,,,,,,2,,65,0
320,note_off,,,,,128,0,9,,,,,,4,,53,0
320,note_off,,,,,128,0,8,,,,,,4,,65,0
320,note_off,,,,,128,0,6,,,,,,3,,53,0
320,note_off,,,,,128,0,7,,,,,,3,,41,0
320,note_off,,,,,128,0,3,,,,,,0,,65,0
384,note_on,,,,,64,0,4,,,,,,1,,64,100
384,note_on,,,,,64,0,6,,,,,,3,,52,100
384,note_on,,,,,64,0,5,,,,,,2,,64,100
384,note_on,,,,,64,0,7,,,,,,3,,40,100
384,note_on,,,,,64,0,3,,,,,,0,,64,100
384,note_on,,,,,64,0,9,,,,,,4,,52,100
384,note_on,,,,,64,0,8,,,,,,4,,64,100
576,note_off,,,,,192,0,3,,,,,,0,,64,0
576,note_on,,,,,0,0,6,,,,,,3,,50,100
576,note_off,,,,,192,0,6,,,,,,3,,52,0
576,note_off,,,,,192,0,7,,,,,,3,,40,0
576,note_on,,,,,0,0,7,,,,,,3,,38,100
576,note_on,,,,,0,0,3,,,,,,0,,62,100
576,note_off,,,,,192,0,5,,,,,,2,,64,0
576,note_on,,,,,0,0,8,,,,,,4,,62,100
576,note_on,,,,,0,0,5,,,,,,2,,62,100
576,note_off,,,,,192,0,9,,,,,,4,,52,0
576,note_on,,,,,0,0,9,,,,,,4,,50,100
576,note_off,,,,,192,0,4,,,,,,1,,64,0
576,note_on,,,,,0,0,4,,,,,,1,,62,100
576,note_off,,,,,192,0,8,,,,,,4,,64,0
768,note_off,,,,,192,0,8,,,,,,4,,62,0
768,note_on,,,,,0,0,8,,,,,,4,,69,100
768,note_on,,,,,0,0,6,,,,,,3,,57,100
768,note_off,,,,,192,0,6,,,,,,3,,50,0
768,note_off,,,,,192,0,4,,,,,,1,,62,0
768,note_on,,,,,0,0,4,,,,,,1,,69,100
768,note_on,,,,,0,0,7,,,,,,3,,45,100
768,note_off,,,,,192,0,7,,,,,,3,,38,0
768,note_on,,,,,0,0,3,,,,,,0,,69,100
768,note_off,,,,,192,0,3,,,,,,0,,62,0
768,note_on,,,,,0,0,9,,,,,,4,,57,100
768,note_off,,,,,192,0,9,,,,,,4,,50,0
768,note_off,,,,,192,0,5,,,,,,2,,62,0
768,note_on,,,,,0,0,5,,,,,,2,,69,100
960,note_on,,,,,0,0,7,,,,,,3,,50,100
960,note_on,,,,,0,0,4,,,,,,1,,74,100
960,note_off,,,,,192,0,4,,,,,,1,,69,0
960,note_on,,,,,0,0,9,,,,,,4,,62,100
960,note_off,,,,,192,0,9,,,,,,4,,57,0
960,note_on,,,,,0,0,5,,,,,,2,,74,100
960,note_on,,,,,0,0,8,,,,,,4,,74,100
960,note_off,,,,,192,0,8,,,,,,4,,69,0
960,note_on,,,,,0,0,6,,,,,,3,,62,100
960,note_off,,,,,192,0,7,,,,,,3,,45,0
960,note_off,,,,,192,0,6,,,,,,3,,57,0
960,note_off,,,,,192,0,5,,,,,,2,,69,0
960,note_off,,,,,192,0,3,,,,,,0,,69,0
960,note_on,,,,,0,0,3,,,,,,0,,74,100
1344,note_on,,,,,0,0,7,,,,,,3,,45,100
1344,note_off,,,,,384,0,7,,,,,,3,,50,0
1344,note_on,,,,,0,0,6,,,,,,3,,57,100
1344,note_off,,,,,384,0,8,,,,,,4,,74,0
1344,note_on,,,,,0,0,8,,,,,,4,,69,100
1344,note_on,,,,,0,0,4,,,,,,1,,69,100
1344,note_off,,,,,384,0,4,,,,,,1,,74,0
1344,note_off,,,,,384,0,6,,,,,,3,,62,0
1344,note_on,,,,,0,0,9,,,,,,4,,57,100
1344,note_off,,,,,384,0,3,,,,,,0,,74,0
1344,note_off,,,,,384,0,9,,,,,,4,,62,0
1344,note_on,,,,,0,0,5,,,,,,2,,69,100
1344,note_off,,,,,384,0,5,,,,,,2,,74,0
1344,note_on,,,,,0,0,3,,,,,,0,,69,100
1536,note_on,,,,,0,0,4,,,,,,1,,70,100
1536,note_on,,,,,0,0,3,,,,,,0,,70,100
1536,note_off,,,,,192,0,9,,,,,,4,,57,0
1536,note_on,,,,,0,0,9,,,,,,4,,58,100
1536,note_off,,,,,192,0,3,,,,,,0,,69,0
1536,note_off,,,,,192,0,7,,,,,,3,,45,0
1536,note_on,,,,,0,0,6,,,,,,3,,58,100
1536,note_on,,,,,0,0,8,,,,,,4,,70,100
1536,note_off,,,,,192,0,8,,,,,,4,,69,0
1536,note_on,,,,,0,0,5,,,,,,2,,70,100
1536,note_off,,,,,192,0,5,,,,,,2,,69,0
1536,note_off,,,,,192,0,6,,,,,,3,,57,0
1536,note_off,,,,,192,0,4,,,,,,1,,69,0
1536,note_on,,,,,0,0,7,,,,,,3,,46,100
1724,note_off,,,,,188,0,7,,,,,,3,,46,0
1724,note_off,,,,,188,0,8,,,,,,4,,70,0
1724,note_off,,,,,188,0,6,,,,,,3,,58,0
1724,note_off,,,,,188,0,5,,,,,,2,,70,0
1724,note_off,,,,,188,0,9,,,,,,4,,58,0
1724,note_off,,,,,188,0,3,,,,,,0,,70,0
1724,note_off,,,,,188,0,4,,,,,,1,,70,0
1728,note_on,,,,,4,0,6,,,,,,3,,55,100
1728,note_on,,,,,4,0,3,,,,,,0,,67,100
1728,note_on,,,,,4,0,9,,,,,,4,,55,100
1728,note_on,,,,,4,0,5,,,,,,2,,67,100
1728,note_on,,,,,4,0,8,,,,,,4,,67,100
1728,note_on,,,,,4,0,4,,,,,,1,,67,100
1728,note_on,,,,,4,0,7,,,,,,3,,43,100
1820,note_off,,,,,92,0,9,,,,,,4,,55,0
1820,note_off,,,,,92,0,5,,,,,,2,,67,0
1820,note_off,,,,,92,0,8,,,,,,4,,67,0
1820,note_off,,,,,92,0,6,,,,,,3,,55,0
1820,note_off,,,,,92,0,7,,,,,,3,,43,0
1820,note_off,,,,,92,0,3,,,,,,0,,67,0
1820,note_off,,,,,92,0,4,,,,,,1,,67,0
1824,note_on,,,,,4,0,7,,,,,,3,,40,100
1824,note_on,,,,,4,0,8,,,,,,4,,64,100
1824,note_on,,,,,4,0,6,,,,,,3,,52,100
1824,note_on,,,,,4,0,5,,,,,,2,,64,100
1824,note_on,,,,,4,0,9,,,,,,4,,52,100
1824,note_on,,,,,4,0,3,,,,,,0,,64,100
1824,note_on,,,,,4,0,4,,,,,,1,,64,100
1916,note_off,,,,,92,0,8,,,,,,4,,64,0
1916,note_off,,,,,92,0,6,,,,,,3,,52,0
1916,note_off,,,,,92,0,5,,,,,,2,,64,0
1916,note_off,,,,,92,0,9,,,,,,4,,52,0
1916,note_off,,,,,92,0,3,,,,,,0,,64,0
1916,note_off,,,,,92,0,4,,,,,,1,,64,0
1916,note_off,,,,,92,0,7,,,,,,3,,40,0
1920,note_on,,,,,4,0,5,,,,,,2,,69,100
1920,note_on,,,,,4,0,7,,,,,,3,,45,100
1920,note_on,,,,,4,0,8,,,,,,4,,69,100
1920,note_on,,,,,4,0,4,,,,,,1,,69,100
1920,note_on,,,,,4,0,6,,,,,,3,,57,100
1920,note_on,,,,,4,0,3,,,,,,0,,69,100
1920,note_on,,,,,4,0,9,,,,,,4,,57,100
2108,note_off,,,,,188,0,4,,,,,,1,,69,0
2108,note_off,,,,,188,0,9,,,,,,4,,57,0
2108,note_off,,,,,188,0,3,,,,,,0,,69,0
2108,note_off,,,,,188,0,5,,,,,,2,,69,0
2108,note_off,,,,,188,0,8,,,,,,4,,69,0
2108,note_off,,,,,188,0,7,,,,,,3,,45,0
2108,note_off,,,,,188,0,6,,,,,,3,,57,0
2112,note_on,,,,,4,0,6,,,,,,3,,53,100
2112,note_on,,,,,4,0,5,,,,,,2,,65,100
2112,note_on,,,,,4,0,9,,,,,,4,,53,100
2112,note_on,,,,,4,0,3,,,,,,0,,65,100
2112,note_on,,,,,4,0,7,,,,,,3,,41,100
2112,note_on,,,,,4,0,8,,,,,,4,,65,100
2112,note_on,,,,,4,0,4,,,,,,1,,65,100
2204,note_off,,,,,92,0,7,,,,,,3,,41,0
2204,note_off,,,,,92,0,6,,,,,,3,,53,0
2204,note_off,,,,,92,0,3,,,,,,0,,65,0
2204,note_off,,,,,92,0,5,,,,,,2,,65,0
2204,note_off,,,,,92,0,8,,,,,,4,,65,0
2204,note_off,,,,,92,0,9,,,,,,4,,53,0
2204,note_off,,,,,92,0,4,,,,,,1,,65,0
2208,note_on,,,,,4,0,8,,,,,,4,,62,100
2208,note_on,,,,,4,0,4,,,,,,1,,62,100
2208,note_on,,,,,4,0,9,,,,,,4,,50,100
2208,note_on,,,,,4,0,6,,,,,,3,,50,100
2208,note_on,,,,,4,0,7,,,,,,3,,38,100
2208,note_on,,,,,4,0,5,,,,,,2,,62,100
2208,note_on,,,,,4,0,3,,,,,,0,,62,100
2300,note_off,,,,,92,0,5,,,,,,2,,62,0
2300,note_off,,,,,92,0,8,,,,,,4,,62,0
2300,note_off,,,,,92,0,9,,,,,,4,,50,0
2300,note_off,,,,,92,0,7,,,,,,3,,38,0
2300,note_off,,,,,92,0,6,,,,,,3,,50,0
2300,note_off,,,,,92,0,4,,,,,,1,,62,0
2300,note_off,,,,,92,0,3,,,,,,0,,62,0
2304,note_on,,,,,4,0,6,,,,,,3,,55,100
2304,note_on,,,,,4,0,8,,,,,,4,,67,100
2304,note_on,,,,,4,0,7,,,,,,3,,43,100
2304,note_on,,,,,4,0,4,,,,,,1,,67,100
2304,note_on,,,,,4,0,5,,,,,,2,,67,100
2304,note_on,,,,,4,0,3,,,,,,0,,67,100
2304,note_on,,,,,4,0,9,,,,,,4,,55,100
2492,note_off,,,,,188,0,8,,,,,,4,,67,0
2492,note_off,,,,,188,0,5,,,,,,2,,67,0
2492,note_off,,,,,188,0,3,,,,,,0,,67,0
2492,note_off,,,,,188,0,4,,,,,,1,,67,0
2492,note_off,,,,,188,0,6,,,,,,3,,55,0
2492,note_off,,,,,188,0,7,,,,,,3,,43,0
2492,note_off,,,,,188,0,9,,,,,,4,,55,0
2496,note_on,,,,,4,0,8,,,,,,4,,64,100
2496,note_on,,,,,4,0,6,,,,,,3,,52,100
2496,note_on,,,,,4,0,9,,,,,,4,,52,100
2496,note_on,,,,,4,0,3,,,,,,0,,64,100
2496,note_on,,,,,4,0,5,,,,,,2,,64,100
2496,note_on,,,,,4,0,7,,,,,,3,,40,100
2496,note_on,,,,,4,0,4,,,,,,1,,64,100
2588,note_off,,,,,92,0,9,,,,,,4,,52,0
2588,note_off,,,,,92,0,8,,,,,,4,,64,0
2588,note_off,,,,,92,0,6,,,,,,3,,52,0
2588,note_off,,,,,92,0,4,,,,,,1,,64,0
2588,note_off,,,,,92,0,5,,,,,,2,,64,0
2588,note_off,,,,,92,0,7,,,,,,3,,40,0
2588,note_off,,,,,92,0,3,,,,,,0,,64,0
2592,note_on,,,,,4,0,4,,,,,,1,,61,100
2592,note_on,,,,,4,0,5,,,,,,2,,61,100
2592,note_on,,,,,4,0,8,,,,,,4,,61,100
2592,note_on,,,,,4,0,9,,,,,,4,,49,100
2592,note_on,,,,,4,0,7,,,,,,3,,37,100
2592,note_on,,,,,4,0,3,,,,,,0,,61,100
2592,note_on,,,,,4,0,6,,,,,,3,,49,100
2684,note_off,,,,,92,0,8,,,,,,4,,61,0
2684,note_off,,,,,92,0,9,,,,,,4,,49,0
2684,note_off,,,,,92,0,3,,,,,,0,,61,0
2684,note_off,,,,,92,0,6,,,,,,3,,49,0
2684,note_off,,,,,92,0,7,,,,,,3,,37,0
2684,note_off,,,,,92,0,5,,,,,,2,,61,0
2684,note_off,,,,,92,0,4,,,,,,1,,61,0
2688,note_on,,,,,4,0,7,,,,,,3,,33,100
2688,note_on,,,,,4,0,3,,,,,,0,,57,100
2688,note_on,,,,,4,0,9,,,,,,4,,45,100
2688,note_on,,,,,4,0,4,,,,,,1,,57,100
2688,note_on,,,,,4,0,6,,,,,,3,,45,100
2688,note_on,,,,,4,0,8,,,,,,4,,57,100
2688,note_on,,,,,4,0,5,,,,,,2,,57,100
2816,note_off,,,,,128,0,7,,,,,,3,,33,0
2816,note_off,,,,,128,0,3,,,,,,0,,57,0
2816,note_off,,,,,128,0,5,,,,,,2,,57,0
2816,note_off,,,,,128,0,8,,,,,,4,,57,0
2816,note_off,,,,,128,0,6,,,,,,3,,45,0
2816,note_off,,,,,128,0,9,,,,,,4,,45,0
2816,note_off,,,,,128,0,4,,,,,,1,,57,0
2880,note_on,,,,,64,0,4,,,,,,1,,70,100
2880,note_on,,,,,64,0,5,,,,,,2,,70,100
2880,note_on,,,,,64,0,8,,,,,,4,,70,100
2880,note_on,,,,,64,0,3,,,,,,0,,70,100
2880,note_on,,,,,64,0,6,,,,,,3,,58,100
2880,note_on,,,,,64,0,9,,,,,,4,,58,100
2880,note_on,,,,,64,0,7,,,,,,3,,46,100
3260,note_off,,,,,380,0,4,,,,,,1,,70,0
3260,note_off,,,,,380,0,5,,,,,,2,,70,0
3260,note_off,,,,,380,0,9,,,,,,4,,58,0
3260,note_off,,,,,380,0,7,,,,,,3,,46,0
3260,note_off,,,,,380,0,8,,,,,,4,,70,0
3260,note_off,,,,,380,0,6,,,,,,3,,58,0
3260,note_off,,,,,380,0,3,,,,,,0,,70,0
3264,note_on,,,,,4,0,8,,,,,,4,,67,100
3264,note_on,,,,,4,0,7,,,,,,3,,43,100
3264,note_on,,,,,4,0,6,,,,,,3,,55,100
3264,note_on,,,,,4,0,9,,,,,,4,,55,100
3264,note_on,,,,,4,0,4,,,,,,1,,67,100
3264,note_on,,,,,4,0,3,,,,,,0,,67,100
3264,note_on,,,,,4,0,5,,,,,,2,,67,100
3356,note_off,,,,,92,0,7,,,,,,3,,43,0
3356,note_off,,,,,92,0,8,,,,,,4,,67,0
3356,note_off,,,,,92,0,5,,,,,,2,,67,0
3356,note_off,,,,,92,0,4,,,,,,1,,67,0
3356,note_off,,,,,92,0,9,,,,,,4,,55,0
3356,note_off,,,,,92,0,6,,,,,,3,,55,0
3356,note_off,,,,,92,0,3,,,,,,0,,67,0
3360,note_on,,,,,4,0,3,,,,,,0,,64,100
3360,note_on,,,,,4,0,7,,,,,,3,,40,100
3360,note_on,,,,,4,0,6,,,,,,3,,52,100
3360,note_on,,,,,4,0,5,,,,,,2,,64,100
3360,note_on,,,,,4,0,8,,,,,,4,,64,100
3360,note_on,,,,,4,0,4,,,,,,1,,64,100
3360,note_on,,,,,4,0,9,,,,,,4,,52,100
3452,note_off,,,,,92,0,5,,,,,,2,,64,0
3452,note_off,,,,,92,0,7,,,,,,3,,40,0
3452,note_off,,,,,92,0,6,,,,,,3,,52,0
3452,note_off,,,,,92,0,4,,,,,,1,,64,0
3452,note_off,,,,,92,0,8,,,,,,4,,64,0
3452,note_off,,,,,92,0,9,,,,,,4,,52,0
3452,note_off,,,,,92,0,3,,,,,,0,,64,0
3456,note_on,,,,,4,0,9,,,,,,4,,45,100
3456,note_on,,,,,4,0,7,,,,,,3,,33,100
3456,note_on,,,,,4,0,5,,,,,,2,,57,100
3456,note_on,,,,,4,0,4,,,,,,1,,57,100
3456,note_on,,,,,4,0,8,,,,,,4,,57,100
3456,note_on,,,,,4,0,3,,,,,,0,,57,100
3456,note_on,,,,,4,0,6,,,,,,3,,45,100
3584,note_off,,,,,128,0,5,,,,,,2,,57,0
3584,note_off,,,,,128,0,3,,,,,,0,,57,0
3584,note_off,,,,,128,0,8,,,,,,4,,57,0
3584,note_off,,,,,128,0,9,,,,,,4,,45,0
3584,note_off,,,,,128,0,7,,,,,,3,,33,0
3584,note_off,,,,,128,0,6,,,,,,3,,45,0
3584,note_off,,,,,128,0,4,,,,,,1,,57,0
3648,note_on,,,,,64,0,7,,,,,,3,,49,100
3648,note_on,,,,,64,0,4,,,,,,1,,73,100
3648,note_on,,,,,64,0,8,,,,,,4,,73,100
3648,note_on,,,,,64,0,6,,,,,,3,,61,100
3648,note_on,,,,,64,0,9,,,,,,4,,61,100
3648,note_on,,,,,64,0,3,,,,,,0,,73,100
3648,note_on,,,,,64,0,5,,,,,,2,,73,100
4028,note_off,,,,,380,0,5,,,,,,2,,73,0
4028,note_off,,,,,380,0,3,,,,,,0,,73,0
4028,note_off,,,,,380,0,7,,,,,,3,,49,0
4028,note_off,,,,,380,0,9,,,,,,4,,61,0
4028,note_off,,,,,380,0,8,,,,,,4,,73,0
4028,note_off,,,,,380,0,6,,,,,,3,,61,0
4028,note_off,,,,,380,0,4,,,,,,1,,73,0
4032,note_on,,,,,4,0,5,,,,,,2,,70,100
4032,note_on,,,,,4,0,9,,,,,,4,,58,100
4032,note_on,,,,,4,0,3,,,,,,0,,70,100
4032,note_on,,,,,4,0,8,,,,,,4,,70,100
4032,note_on,,,,,4,0,7,,,,,,3,,46,100
4032,note_on,,,,,4,0,6,,,,,,3,,58,100
4032,note_on,,,,,4,0,4,,,,,,1,,70,100
4124,note_off,,,,,92,0,9,,,,,,4,,58,0
4124,note_off,,,,,92,0,5,,,,,,2,,70,0
4124,note_off,,,,,92,0,3,,,,,,0,,70,0
4124,note_off,,,,,92,0,6,,,,,,3,,58,0
4124,note_off,,,,,92,0,7,,,,,,3,,46,0
4124,note_off,,,,,92,0,4,,,,,,1,,70,0
4124,note_off,,,,,92,0,8,,,,,,4,,70,0
4128,note_on,,,,,4,0,6,,,,,,3,,55,100
4128,note_on,,,,,4,0,5,,,,,,2,,67,100
4128,note_on,,,,,4,0,4,,,,,,1,,67,100
4128,note_on,,,,,4,0,3,,,,,,0,,67,100
4128,note_on,,,,,4,0,7,,,,,,3,,43,100
4128,note_on,,,,,4,0,8,,,,,,4,,67,100
4128,note_on,,,,,4,0,9,,,,,,4,,55,100
4220,note_off,,,,,92,0,5,,,,,,2,,67,0
4220,note_off,,,,,92,0,4,,,,,,1,,67,0
4220,note_off,,,,,92,0,3,,,,,,0,,67,0
4220,note_off,,,,,92,0,8,,,,,,4,,67,0
4220,note_off,,,,,92,0,6,,,,,,3,,55,0
4220,note_off,,,,,92,0,7,,,,,,3,,43,0
4220,note_off,,,,,92,0,9,,,,,,4,,55,0
4224,note_on,,,,,4,0,6,,,,,,3,,45,100
4224,note_on,,,,,4,0,4,,,,,,1,,57,100
4224,note_on,,,,,4,0,9,,,,,,4,,45,100
4224,note_on,,,,,4,0,8,,,,,,4,,57,100
4224,note_on,,,,,4,0,3,,,,,,0,,57,100
4224,note_on,,,,,4,0,5,,,,,,2,,57,100
4224,note_on,,,,,4,0,7,,,,,,3,,33,100
4352,note_off,,,,,128,0,9,,,,,,4,,45,0
4352,note_off,,,,,128,0,6,,,,,,3,,45,0
4352,note_off,,,,,128,0,5,,,,,,2,,57,0
4352,note_off,,,,,128,0,3,,,,,,0,,57,0
4352,note_off,,,,,128,0,7,,,,,,3,,33,0
4352,note_off,,,,,128,0,4,,,,,,1,,57,0
4352,note_off,,,,,128,0,8,,,,,,4,,57,0
4416,note_on,,,,,64,0,6,,,,,,3,,64,100
4416,note_on,,,,,64,0,8,,,,,,4,,76,100
4416,note_on,,,,,64,0,5,,,,,,2,,76,100
4416,note_on,,,,,64,0,9,,,,,,4,,64,100
4416,note_on,,,,,64,0,3,,,,,,0,,76,100
4416,note_on,,,,,64,0,7,,,,,,3,,52,100
4416,note_on,,,,,64,0,4,,,,,,1,,76,100
4796,note_off,,,,,380,0,4,,,,,,1,,76,0
4796,note_off,,,,,380,0,5,,,,,,2,,76,0
4796,note_off,,,,,380,0,6,,,,,,3,,64,0
4796,note_off,,,,,380,0,8,,,,,,4,,76,0
4796,note_off,,,,,380,0,9,,,,,,4,,64,0
4796,note_off,,,,,380,0,3,,,,,,0,,76,0
4796,note_off,,,,,380,0,7,,,,,,3,,52,0
4800,note_on,,,,,4,0,4,,,,,,1,,73,100
4800,note_on,,,,,4,0,6,,,,,,3,,61,100
4800,note_on,,,,,4,0,9,,,,,,4,,61,100
4800,note_on,,,,,4,0,5,,,,,,2,,73,100
4800,note_on,,,,,4,0,7,,,,,,3,,49,100
4800,note_on,,,,,4,0,3,,,,,,0,,73,100
4800,note_on,,,,,4,0,8,,,,,,4,,73,100
4892,note_off,,,,,92,0,3,,,,,,0,,73,0
4892,note_off,,,,,92,0,7,,,,,,3,,49,0
4892,note_off,,,,,92,0,9,,,,,,4,,61,0
4892,note_off,,,,,92,0,4,,,,,,1,,73,0
4892,note_off,,,,,92,0,6,,,,,,3,,61,0
4892,note_off,,,,,92,0,5,,,,,,2,,73,0
4892,note_off,,,,,92,0,8,,,,,,4,,73,0
4896,note_on,,,,,4,0,5,,,,,,2,,69,100
4896,note_on,,,,,4,0,9,,,,,,4,,57,100
4896,note_on,,,,,4,0,4,,,,,,1,,69,100
4896,note_on,,,,,4,0,7,,,,,,3,,45,100
4896,note_on,,,,,4,0,8,,,,,,4,,69,100
4896,note_on,,,,,4,0,6,,,,,,3,,57,100
4896,note_on,,,,,4,0,3,,,,,,0,,69,100
4988,note_off,,,,,92,0,9,,,,,,4,,57,0
4988,note_off,,,,,92,0,4,,,,,,1,,69,0
4988,note_off,,,,,92,0,7,,,,,,3,,45,0
4988,note_off,,,,,92,0,6,,,,,,3,,57,0
4988,note_off,,,,,92,0,3,,,,,,0,,69,0
4988,note_off,,,,,92,0,5,,,,,,2,,69,0
4988,note_off,,,,,92,0,8,,,,,,4,,69,0
4992,note_on,,,,,4,0,6,,,,,,3,,58,100
4992,note_on,,,,,4,0,8,,,,,,4,,70,100
4992,note_on,,,,,4,0,4,,,,,,1,,70,100
4992,note_on,,,,,4,0,7,,,,,,3,,46,100
4992,note_on,,,,,4,0,9,,,,,,4,,58,100
4992,note_on,,,,,4,0,5,,,,,,2,,70,100
4992,note_on,,,,,4,0,3,,,,,,0,,70,100
5084,note_off,,,,,92,0,7,,,,,,3,,46,0
5084,note_off,,,,,92,0,4,,,,,,1,,70,0
5084,note_off,,,,,92,0,6,,,,,,3,,58,0
5084,note_off,,,,,92,0,8,,,,,,4,,70,0
5084,note_off,,,,,92,0,3,,,,,,0,,70,0
5084,note_off,,,,,92,0,5,,,,,,2,,70,0
5084,note_off,,,,,92,0,9,,,,,,4,,58,0
5088,note_on,,,,,4,0,6,,,,,,3,,55,100
5088,note_on,,,,,4,0,8,,,,,,4,,67,100
5088,note_on,,,,,4,0,9,,,,,,4,,55,100
5088,note_on,,,,,4,0,5,,,,,,2,,67,100
5088,note_on,,,,,4,0,7,,,,,,3,,43,100
5088,note_on,,,,,4,0,4,,,,,,1,,67,100
5088,note_on,,,,,4,0,3,,,,,,0,,67,100
5180,note_off,,,,,92,0,9,,,,,,4,,55,0
5180,note_off,,,,,92,0,7,,,,,,3,,43,0
5180,note_off,,,,,92,0,8,,,,,,4,,67,0
5180,note_off,,,,,92,0,6,,,,,,3,,55,0
5180,note_off,,,,,92,0,5,,,,,,2,,67,0
5180,note_off,,,,,92,0,4,,,,,,1,,67,0
5180,note_off,,,,,92,0,3,,,,,,0,,67,0
5184,note_on,,,,,4,0,3,,,,,,0,,69,100
5184,note_on,,,,,4,0,7,,,,,,3,,45,100
5184,note_on,,,,,4,0,6,,,,,,3,,57,100
5184,note_on,,,,,4,0,4,,,,,,1,,69,100
5184,note_on,,,,,4,0,9,,,,,,4,,57,100
5184,note_on,,,,,4,0,8,,,,,,4,,69,100
5184,note_on,,,,,4,0,5,,,,,,2,,69,100
5276,note_off,,,,,92,0,4,,,,,,1,,69,0
5276,note_off,,,,,92,0,3,,,,,,0,,69,0
5276,note_off,,,,,92,0,9,,,,,,4,,57,0
5276,note_off,,,,,92,0,8,,,,,,4,,69,0
5276,note_off,,,,,92,0,5,,,,,,2,,69,0
5276,note_off,,,,,92,0,7,,,,,,3,,45,0
5276,note_off,,,,,92,0,6,,,,,,3,,57,0
5280,note_on,,,,,4,0,3,,,,,,0,,65,100
5280,note_on,,,,,4,0,9,,,,,,4,,53,100
5280,note_on,,,,,4,0,5,,,,,,2,,65,100
5280,note_on,,,,,4,0,8,,,,,,4,,65,100
5280,note_on,,,,,4,0,6,,,,,,3,,53,100
5280,note_on,,,,,4,0,7,,,,,,3,,41,100
5280,note_on,,,,,4,0,4,,,,,,1,,65,100
5372,note_off,,,,,92,0,6,,,,,,3,,53,0
5372,note_off,,,,,92,0,3,,,,,,0,,65,0
5372,note_off,,,,,92,0,4,,,,,,1,,65,0
5372,note_off,,,,,92,0,9,,,,,,4,,53,0
5372,note_off,,,,,92,0,7,,,,,,3,,41,0
5372,note_off,,,,,92,0,5,,,,,,2,,65,0
5372,note_off,,,,,92,0,8,,,,,,4,,65,0
5376,note_on,,,,,4,0,4,,,,,,1,,67,100
5376,note_on,,,,,4,0,8,,,,,,4,,67,100
5376,note_on,,,,,4,0,3,,,,,,0,,67,100
5376,note_on,,,,,4,0,6,,,,,,3,,55,100
5376,note_on,,,,,4,0,9,,,,,,4,,55,100
5376,note_on,,,,,4,0,5,,,,,,2,,67,100
5376,note_on,,,,,4,0,7,,,,,,3,,43,100
5468,note_off,,,,,92,0,8,,,,,,4,,67,0
5468,note_off,,,,,92,0,3,,,,,,0,,67,0
5468,note_off,,,,,92,0,6,,,,,,3,,55,0
5468,note_off,,,,,92,0,9,,,,,,4,,55,0
5468,note_off,,,,,92,0,5,,,,,,2,,67,0
5468,note_off,,,,,92,0,4,,,,,,1,,67,0
5468,note_off,,,,,92,0,7,,,,,,3,,43,0
5472,note_on,,,,,4,0,8,,,,,,4,,64,100
5472,note_on,,,,,4,0,6,,,,,,3,,52,100
5472,note_on,,,,,4,0,4,,,,,,1,,64,100
5472,note_on,,,,,4,0,9,,,,,,4,,52,100
5472,note_on,,,,,4,0,5,,,,,,2,,64,100
5472,note_on,,,,,4,0,7,,,,,,3,,40,100
5472,note_on,,,,,4,0,3,,,,,,0,,64,100
5564,note_off,,,,,92,0,4,,,,,,1,,64,0
5564,note_off,,,,,92,0,8,,,,,,4,,64,0
5564,note_off,,,,,92,0,6,,,,,,3,,52,0
5564,note_off,,,,,92,0,5,,,,,,2,,64,0
5564,note_off,,,,,92,0,3,,,,,,0,,64,0
5564,note_off,,,,,92,0,9,,,,,,4,,52,0
5564,note_off,,,,,92,0,7,,,,,,3,,40,0
5568,note_on,,,,,4,0,6,,,,,,3,,53,100
5568,note_on,,,,,4,0,7,,,,,,3,,41,100
5568,note_on,,,,,4,0,3,,,,,,0,,65,100
5568,note_on,,,,,4,0,5,,,,,,2,,65,100
5568,note_on,,,,,4,0,8,,,,,,4,,65,100
5568,note_on,,,,,4,0,4,,,,,,1,,65,100
5568,note_on,,,,,4,0,9,,,,,,4,,53,100
5660,note_off,,,,,92,0,5,,,,,,2,,65,0
5660,note_off,,,,,92,0,6,,,,,,3,,53,0
5660,note_off,,,,,92,0,3,,,,,,0,,65,0
5660,note_off,,,,,92,0,4,,,,,,1,,65,0
5660,note_off,,,,,92,0,9,,,,,,4,,53,0
5660,note_off,,,,,92,0,7,,,,,,3,,41,0
5660,note_off,,,,,92,0,8,,,,,,4,,65,0
5664,note_on,,,,,4,0,7,,,,,,3,,38,100
5664,note_on,,,,,4,0,5,,,,,,2,,62,100
5664,note_on,,,,,4,0,4,,,,,,1,,62,100
5664,note_on,,,,,4,0,8,,,,,,4,,62,100
5664,note_on,,,,,4,0,3,,,,,,0,,62,100
5664,note_on,,,,,4,0,9,,,,,,4,,50,100
5664,note_on,,,,,4,0,6,,,,,,3,,50,100
5756,note_off,,,,,92,0,3,,,,,,0,,62,0
5756,note_off,,,,,92,0,8,,,,,,4,,62,0
5756,note_off,,,,,92,0,6,,,,,,3,,50,0
5756,note_off,,,,,92,0,9,,,,,,4,,50,0
5756,note_off,,,,,92,0,7,,,,,,3,,38,0
5756,note_off,,,,,92,0,4,,,,,,1,,62,0
5756,note_off,,,,,92,0,5,,,,,,2,,62,0
5760,note_on,,,,,4,0,3,,,,,,0,,64,100
5760,note_on,,,,,4,0,4,,,,,,1,,64,100
5760,note_on,,,,,4,0,7,,,,,,3,,40,100
5760,note_on,,,,,4,0,9,,,,,,4,,52,100
5760,note_on,,,,,4,0,5,,,,,,2,,64,100
5760,note_on,,,,,4,0,8,,,,,,4,,64,100
5760,note_on,,,,,4,0,6,,,,,,3,,52,100
5852,note_off,,,,,92,0,4,,,,,,1,,64,0
5852,note_off,,,,,92,0,7,,,,,,3,,40,0
5852,note_off,,,,,92,0,5,,,,,,2,,64,0
5852,note_off,,,,,92,0,9,,,,,,4,,52,0
5852,note_off,,,,,92,0,3,,,,,,0,,64,0
5852,note_off,,,,,92,0,6,,,,,,3,,52,0
5852,note_off,,,,,92,0,8,,,,,,4,,64,0
5856,note_on,,,,,4,0,4,,,,,,1,,61,100
5856,note_on,,,,,4,0,9,,,,,,4,,49,100
5856,note_on,,,,,4,0,6,,,,,,3,,49,100
5856,note_on,,,,,4,0,3,,,,,,0,,61,100
5856,note_on,,,,,4,0,5,,,,,,2,,61,100
5856,note_on,,,,,4,0,8,,,,,,4,,61,100
5856,note_on,,,,,4,0,7,,,,,,3,,37,100
5948,note_off,,,,,92,0,3,,,,,,0,,61,0
5948,note_off,,,,,92,0,7,,,,,,3,,37,0
5948,note_off,,,,,92,0,8,,,,,,4,,61,0
5948,note_off,,,,,92,0,9,,,,,,4,,49,0
5948,note_off,,,,,92,0,6,,,,,,3,,49,0
5948,note_off,,,,,92,0,5,,,,,,2,,61,0
5948,note_off,,,,,92,0,4,,,,,,1,,61,0
5952,note_on,,,,,4,0,7,,,,,,3,,38,100
5952,note_on,,,,,4,0,3,,,,,,0,,62,100
5952,note_on,,,,,4,0,9,,,,,,4,,50,100
5952,note_on,,,,,4,0,4,,,,,,1,,62,100
5952,note_on,,,,,4,0,5,,,,,,2,,62,100
5952,note_on,,,,,4,0,8,,,,,,4,,62,100
5952,note_on,,,,,4,0,6,,,,,,3,,50,100
6044,note_off,,,,,92,0,4,,,,,,1,,62,0
6044,note_off,,,,,92,0,3,,,,,,0,,62,0
6044,note_off,,,,,92,0,8,,,,,,4,,62,0
6044,note_off,,,,,92,0,6,,,,,,3,,50,0
6044,note_off,,,,,92,0,9,,,,,,4,,50,0
6044,note_off,,,,,92,0,7,,,,,,3,,38,0
6044,note_off,,,,,92,0,5,,,,,,2,,62,0
6048,note_on,,,,,4,0,4,,,,,,1,,59,100
6048,note_on,,,,,4,0,8,,,,,,4,,59,100
6048,note_on,,,,,4,0,9,,,,,,4,,47,100
6048,note_on,,,,,4,0,5,,,,,,2,,59,100
6048,note_on,,,,,4,0,6,,,,,,3,,47,100
6048,note_on,,,,,4,0,3,,,,,,0,,59,100
6048,note_on,,,,,4,0,7,,,,,,3,,35,100
6140,note_off,,,,,92,0,5,,,,,,2,,59,0
6140,note_off,,,,,92,0,9,,,,,,4,,47,0
6140,note_off,,,,,92,0,6,,,,,,3,,47,0
6140,note_off,,,,,92,0,8,,,,,,4,,59,0
6140,note_off,,,,,92,0,3,,,,,,0,,59,0
6140,note_off,,,,,92,0,7,,,,,,3,,35,0
6140,note_off,,,,,92,0,4,,,,,,1,,59,0
6144,note_on,,,,,4,0,6,,,,,,3,,49,100
6144,note_on,,,,,4,0,8,,,,,,4,,61,100
6144,note_on,,,,,4,0,3,,,,,,0,,61,100
6144,note_on,,,,,4,0,7,,,,,,3,,37,100
6144,note_on,,,,,4,0,9,,,,,,4,,49,100
6144,note_on,,,,,4,0,5,,,,,,2,,61,100
6144,note_on,,,,,4,0,4,,,,,,1,,61,100
6236,note_off,,,,,92,0,4,,,,,,1,,61,0
6236,note_off,,,,,92,0,6,,,,,,3,,49,0
6236,note_off,,,,,92,0,8,,,,,,4,,61,0
6236,note_off,,,,,92,0,5,,,,,,2,,61,0
6236,note_off,,,,,92,0,9,,,,,,4,,49,0
6236,note_off,,,,,92,0,3,,,,,,0,,61,0
6236,note_off,,,,,92,0,7,,,,,,3,,37,0
6240,note_on,,,,,4,0,3,,,,,,0,,57,100
6240,note_on,,,,,4,0,9,,,,,,4,,45,100
6240,note_on,,,,,4,0,4,,,,,,1,,57,100
6240,note_on,,,,,4,0,6,,,,,,3,,45,100
6240,note_on,,,,,4,0,8,,,,,,4,,57,100
6240,note_on,,,,,4,0,5,,,,,,2,,57,100
6240,note_on,,,,,4,0,7,,,,,,3,,33,100
6332,note_off,,,,,92,0,5,,,,,,2,,57,0
6332,note_off,,,,,92,0,7,,,,,,3,,33,0
6332,note_off,,,,,92,0,4,,,,,,1,,57,0
6332,note_off,,,,,92,0,9,,,,,,4,,45,0
6332,note_off,,,,,92,0,3,,,,,,0,,57,0
6332,note_off,,,,,92,0,6,,,,,,3,,45,0
6332,note_off,,,,,92,0,8,,,,,,4,,57,0
6336,note_on,,,,,4,0,6,,,,,,3,,47,100
6336,note_on,,,,,4,0,4,,,,,,1,,59,100
6336,note_on,,,,,4,0,8,,,,,,4,,59,100
6336,note_on,,,,,4,0,5,,,,,,2,,59,100
6336,note_on,,,,,4,0,7,,,,,,3,,35,100
6336,note_on,,,,,4,0,3,,,,,,0,,59,100
6336,note_on,,,,,4,0,9,,,,,,4,,47,100
6428,note_off,,,,,92,0,7,,,,,,3,,35,0
6428,note_off,,,,,92,0,8,,,,,,4,,59,0
6428,note_off,,,,,92,0,6,,,,,,3,,47,0
6428,note_off,,,,,92,0,4,,,,,,1,,59,0
6428,note_off,,,,,92,0,5,,,,,,2,,59,0
6428,note_off,,,,,92,0,3,,,,,,0,,59,0
6428,note_off,,,,,92,0,9,,,,,,4,,47,0
6432,note_on,,,,,4,0,9,,,,,,4,,49,100
6432,note_on,,,,,4,0,4,,,,,,1,,61,100
6432,note_on,,,,,4,0,3,,,,,,0,,61,100
6432,note_on,,,,,4,0,8,,,,,,4,,61,100
6432,note_on,,,,,4,0,6,,,,,,3,,49,100
6432,note_on,,,,,4,0,5,,,,,,2,,61,100
6432,note_on,,,,,4,0,7,,,,,,3,,37,100
6524,note_off,,,,,92,0,6,,,,,,3,,49,0
6524,note_off,,,,,92,0,8,,,,,,4,,61,0
6524,note_off,,,,,92,0,3,,,,,,0,,61,0
6524,note_off,,,,,92,0,7,,,,,,3,,37,0
6524,note_off,,,,,92,0,5,,,,,,2,,61,0
6524,note_off,,,,,92,0,9,,,,,,4,,49,0
6524,note_off,,,,,92,0,4,,,,,,1,,61,0
6528,note_on,,,,,4,0,4,,,,,,1,,62,100
6528,note_on,,,,,4,0,8,,,,,,4,,62,100
6528,note_on,,,,,4,0,7,,,,,,3,,38,100
6528,note_on,,,,,4,0,9,,,,,,4,,50,100
6528,note_on,,,,,4,0,5,,,,,,2,,62,100
6528,note_on,,,,,4,0,6,,,,,,3,,50,100
6528,note_on,,,,,4,0,3,,,,,,0,,62,100
6620,note_off,,,,,92,0,4,,,,,,1,,62,0
6620,note_off,,,,,92,0,6,,,,,,3,,50,0
6620,note_off,,,,,92,0,5,,,,,,2,,62,0
6620,note_off,,,,,92,0,7,,,,,,3,,38,0
6620,note_off,,,,,92,0,8,,,,,,4,,62,0
6620,note_off,,,,,92,0,9,,,,,,4,,50,0
6620,note_off,,,,,92,0,3,,,,,,0,,62,0
6624,note_on,,,,,4,0,3,,,,,,0,,64,100
6624,note_on,,,,,4,0,6,,,,,,3,,52,100
6624,note_on,,,,,4,0,7,,,,,,3,,40,100
6624,note_on,,,,,4,0,4,,,,,,1,,64,100
6624,note_on,,,,,4,0,8,,,,,,4,,64,100
6624,note_on,,,,,4,0,9,,,,,,4,,52,100
6624,note_on,,,,,4,0,5,,,,,,2,,64,100
6716,note_off,,,,,92,0,3,,,,,,0,,64,0
6716,note_off,,,,,92,0,6,,,,,,3,,52,0
6716,note_off,,,,,92,0,8,,,,,,4,,64,0
6716,note_off,,,,,92,0,4,,,,,,1,,64,0
6716,note_off,,,,,92,0,9,,,,,,4,,52,0
6716,note_off,,,,,92,0,5,,,,,,2,,64,0
6716,note_off,,,,,92,0,7,,,,,,3,,40,0
6720,note_on,,,,,4,0,8,,,,,,4,,65,100
6720,note_on,,,,,4,0,9,,,,,,4,,53,100
6720,note_on,,,,,4,0,3,,,,,,0,,65,100
6720,note_on,,,,,4,0,7,,,,,,3,,41,100
6720,note_on,,,,,4,0,6,,,,,,3,,53,100
6720,note_on,,,,,4,0,5,,,,,,2,,65,100
6720,note_on,,,,,4,0,4,,,,,,1,,65,100
6812,note_off,,,,,92,0,5,,,,,,2,,65,0
6812,note_off,,,,,92,0,3,,,,,,0,,65,0
6812,note_off,,,,,92,0,8,,,,,,4,,65,0
6812,note_off,,,,,92,0,6,,,,,,3,,53,0
6812,note_off,,,,,92,0,9,,,,,,4,,53,0
6812,note_off,,,,,92,0,4,,,,,,1,,65,0
6812,note_off,,,,,92,0,7,,,,,,3,,41,0
6816,note_on,,,,,4,0,9,,,,,,4,,55,100
6816,note_on,,,,,4,0,8,,,,,,4,,67,100
6816,note_on,,,,,4,0,7,,,,,,3,,43,100
6816,note_on,,,,,4,0,4,,,,,,1,,67,100
6816,note_on,,,,,4,0,6,,,,,,3,,55,100
6816,note_on,,,,,4,0,5,,,,,,2,,67,100
6816,note_on,,,,,4,0,3,,,,,,0,,67,100
6908,note_off,,,,,92,0,4,,,,,,1,,67,0
6908,note_off,,,,,92,0,6,,,,,,3,,55,0
6908,note_off,,,,,92,0,5,,,,,,2,,67,0
6908,note_off,,,,,92,0,7,,,,,,3,,43,0
6908,note_off,,,,,92,0,8,,,,,,4,,67,0
6908,note_off,,,,,92,0,9,,,,,,4,,55,0
6908,note_off,,,,,92,0,3,,,,,,0,,67,0
6912,note_on,,,,,4,0,6,,,,,,3,,57,100
6912,note_on,,,,,4,0,9,,,,,,4,,57,100
6912,note_on,,,,,4,0,4,,,,,,1,,69,100
6912,note_on,,,,,4,0,8,,,,,,4,,69,100
6912,note_on,,,,,4,0,7,,,,,,3,,45,100
6912,note_on,,,,,4,0,3,,,,,,0,,69,100
6912,note_on,,,,,4,0,5,,,,,,2,,69,100
7004,note_off,,,,,92,0,5,,,,,,2,,69,0
7004,note_off,,,,,92,0,4,,,,,,1,,69,0
7004,note_off,,,,,92,0,6,,,,,,3,,57,0
7004,note_off,,,,,92,0,3,,,,,,0,,69,0
7004,note_off,,,,,92,0,8,,,,,,4,,69,0
7004,note_off,,,,,92,0,9,,,,,,4,,57,0
7004,note_off,,,,,92,0,7,,,,,,3,,45,0
7008,note_on,,,,,4,0,7,,,,,,3,,46,100
7008,note_on,,,,,4,0,3,,,,,,0,,70,100
7008,note_on,,,,,4,0,6,,,,,,3,,58,100
7008,note_on,,,,,4,0,4,,,,,,1,,70,100
7008,note_on,,,,,4,0,9,,,,,,4,,58,100
7008,note_on,,,,,4,0,8,,,,,,4,,70,100
7008,note_on,,,,,4,0,5,,,,,,2,,70,100
7100,note_off,,,,,92,0,3,,,,,,0,,70,0
7100,note_off,,,,,92,0,6,,,,,,3,,58,0
7100,note_off,,,,,92,0,8,,,,,,4,,70,0
7100,note_off,,,,,92,0,5,,,,,,2,,70,0
7100,note_off,,,,,92,0,7,,,,,,3,,46,0
7100,note_off,,,,,92,0,4,,,,,,1,,70,0
7100,note_off,,,,,92,0,9,,,,,,4,,58,0
7104,note_on,,,,,4,0,8,,,,,,4,,72,100
7104,note_on,,,,,4,0,9,,,,,,4,,60,100
7104,note_on,,,,,4,0,5,,,,,,2,,72,100
7104,note_on,,,,,4,0,6,,,,,,3,,60,100
7104,note_on,,,,,4,0,7,,,,,,3,,48,100
7104,note_on,,,,,4,0,3,,,,,,0,,72,100
7104,note_on,,,,,4,0,4,,,,,,1,,72,100
7232,note_off,,,,,128,0,5,,,,,,2,,72,0
7232,note_off,,,,,128,0,7,,,,,,3,,48,0
7232,note_off,,,,,128,0,3,,,,,,0,,72,0
7232,note_off,,,,,128,0,8,,,,,,4,,72,0
7232,note_off,,,,,128,0,4,,,,,,1,,72,0
7232,note_off,,,,,128,0,6,,,,,,3,,60,0
7232,note_off,,,,,128,0,9,,,,,,4,,60,0
7296,note_on,,,,,64,0,3,,,,,,0,,72,100
7296,note_on,,,,,64,0,5,,,,,,2,,72,100
7296,note_on,,,,,64,0,7,,,,,,3,,48,100
7296,note_on,,,,,64,0,4,,,,,,1,,72,100
7296,note_on,,,,,64,0,6,,,,,,3,,60,100
7296,note_on,,,,,64,0,9,,,,,,4,,60,100
7296,note_on,,,,,64,0,8,,,,,,4,,72,100
7388,note_off,,,,,92,0,5,,,,,,2,,72,0
7388,note_off,,,,,92,0,3,,,,,,0,,72,0
7388,note_off,,,,,92,0,8,,,,,,4,,72,0
7388,note_off,,,,,92,0,6,,,,,,3,,60,0
7388,note_off,,,,,92,0,9,,,,,,4,,60,0
7388,note_off,,,,,92,0,4,,,,,,1,,72,0
7388,note_off,,,,,92,0,7,,,,,,3,,48,0
7392,note_on,,,,,4,0,9,,,,,,4,,62,100
7392,note_on,,,,,4,0,3,,,,,,0,,74,100
7392,note_on,,,,,4,0,5,,,,,,2,,74,100
7392,note_on,,,,,4,0,6,,,,,,3,,62,100
7392,note_on,,,,,4,0,8,,,,,,4,,74,100
7392,note_on,,,,,4,0,7,,,,,,3,,50,100
7392,note_on,,,,,4,0,4,,,,,,1,,74,100
7484,note_off,,,,,92,0,5,,,,,,2,,74,0
7484,note_off,,,,,92,0,4,,,,,,1,,74,0
7484,note_off,,,,,92,0,3,,,,,,0,,74,0
7484,note_off,,,,,92,0,7,,,,,,3,,50,0
7484,note_off,,,,,92,0,6,,,,,,3,,62,0
7484,note_off,,,,,92,0,9,,,,,,4,,62,0
7484,note_off,,,,,92,0,8,,,,,,4,,74,0
7488,note_on,,,,,4,0,9,,,,,,4,,63,100
7488,note_on,,,,,4,0,7,,,,,,3,,51,100
7488,note_on,,,,,4,0,6,,,,,,3,,63,100
7488,note_on,,,,,4,0,3,,,,,,0,,75,100
7488,note_on,,,,,4,0,4,,,,,,1,,75,100
7488,note_on,,,,,4,0,5,,,,,,2,,75,100
7488,note_on,,,,,4,0,8,,,,,,4,,75,100
7616,note_off,,,,,128,0,3,,,,,,0,,75,0
7616,note_off,,,,,128,0,9,,,,,,4,,63,0
7616,note_off,,,,,128,0,4,,,,,,1,,75,0
7616,note_off,,,,,128,0,7,,,,,,3,,51,0
7616,note_off,,,,,128,0,6,,,,,,3,,63,0
7616,note_off,,,,,128,0,8,,,,,,4,,75,0
7616,note_off,,,,,128,0,5,,,,,,2,,75,0
7680,note_on,,,,,64,0,6,,,,,,3,,54,100
7680,note_on,,,,,64,0,5,,,,,,2,,66,100
7680,note_on,,,,,64,0,8,,,,,,4,,66,100
7680,note_on,,,,,64,0,3,,,,,,0,,66,100
7680,note_on,,,,,64,0,9,,,,,,4,,54,100
7680,note_on,,,,,64,0,4,,,,,,1,,66,100
7680,note_on,,,,,64,0,7,,,,,,3,,42,100
7788,note_off,,,,,108,0,3,,,,,,0,,66,0
7788,note_off,,,,,108,0,5,,,,,,2,,66,0
7788,note_off,,,,,108,0,8,,,,,,4,,66,0
7788,note_off,,,,,108,0,9,,,,,,4,,54,0
7788,note_off,,,,,108,0,7,,,,,,3,,42,0
7788,note_off,,,,,108,0,4,,,,,,1,,66,0
7788,note_off,,,,,108,0,6,,,,,,3,,54,0
7872,note_on,,,,,84,0,4,,,,,,1,,67,100
7872,note_on,,,,,84,0,7,,,,,,3,,43,100
7872,note_on,,,,,84,0,5,,,,,,2,,67,100
7872,note_on,,,,,84,0,8,,,,,,4,,67,100
7872,note_on,,,,,84,0,9,,,,,,4,,55,100
7872,note_on,,,,,84,0,6,,,,,,3,,55,100
7872,note_on,,,,,84,0,3,,,,,,0,,67,100
7980,note_off,,,,,108,0,3,,,,,,0,,67,0
7980,note_off,,,,,108,0,5,,,,,,2,,67,0
7980,note_off,,,,,108,0,4,,,,,,1,,67,0
7980,note_off,,,,,108,0,7,,,,,,3,,43,0
7980,note_off,,,,,108,0,9,,,,,,4,,55,0
7980,note_off,,,,,108,0,8,,,,,,4,,67,0
7980,note_off,,,,,108,0,6,,,,,,3,,55,0
8064,note_on,,,,,84,0,5,,,,,,2,,61,100
8064,note_on,,,,,84,0,8,,,,,,4,,61,100
8064,note_on,,,,,84,0,9,,,,,,4,,49,100
8064,note_on,,,,,84,0,3,,,,,,0,,61,100
8064,note_on,,,,,84,0,4,,,,,,1,,61,100
8064,note_on,,,,,84,0,6,,,,,,3,,49,100
8064,note_on,,,,,84,0,7,,,,,,3,,37,100
8172,note_off,,,,,108,0,9,,,,,,4,,49,0
8172,note_off,,,,,108,0,3,,,,,,0,,61,0
8172,note_off,,,,,108,0,8,,,,,,4,,61,0
8172,note_off,,,,,108,0,7,,,,,,3,,37,0
8172,note_off,,,,,108,0,5,,,,,,2,,61,0
8172,note_off,,,,,108,0,4,,,,,,1,,61,0
8172,note_off,,,,,108,0,6,,,,,,3,,49,0
8256,note_on,,,,,84,0,8,,,,,,4,,62,100
8256,note_on,,,,,84,0,9,,,,,,4,,50,100
8256,note_on,,,,,84,0,3,,,,,,0,,62,100
8256,note_on,,,,,84,0,6,,,,,,3,,50,100
8256,note_on,,,,,84,0,5,,,,,,2,,62,100
8256,note_on,,,,,84,0,7,,,,,,3,,38,100
8256,note_on,,,,,84,0,4,,,,,,1,,62,100
8364,note_off,,,,,108,0,7,,,,,,3,,38,0
8364,note_off,,,,,108,0,8,,,,,,4,,62,0
8364,note_off,,,,,108,0,6,,,,,,3,,50,0
8364,note_off,,,,,108,0,9,,,,,,4,,50,0
8364,note_off,,,,,108,0,4,,,,,,1,,62,0
8364,note_off,,,,,108,0,3,,,,,,0,,62,0
8364,note_off,,,,,108,0,5,,,,,,2,,62,0
8448,note_on,,,,,84,0,4,,,,,,1,,56,100
8448,note_on,,,,,84,0,9,,,,,,4,,44,100
8448,note_on,,,,,84,0,7,,,,,,3,,32,100
8448,note_on,,,,,84,0,5,,,,,,2,,56,100
8448,note_on,,,,,84,0,6,,,,,,3,,44,100
8448,note_on,,,,,84,0,8,,,,,,4,,56,100
8448,note_on,,,,,84,0,3,,,,,,0,,56,100
8636,note_off,,,,,188,0,3,,,,,,0,,56,0
8636,note_off,,,,,188,0,5,,,,,,2,,56,0
8636,note_off,,,,,188,0,7,,,,,,3,,32,0
8636,note_off,,,,,188,0,4,,,,,,1,,56,0
8636,note_off,,,,,188,0,8,,,,,,4,,56,0
8636,note_off,,,,,188,0,6,,,,,,3,,44,0
8636,note_off,,,,,188,0,9,,,,,,4,,44,0
8832,note_on,,,,,196,0,3,,,,,,0,,57,100
8832,note_on,,,,,196,0,9,,,,,,4,,45,100
8832,note_on,,,,,196,0,8,,,,,,4,,57,100
8832,note_on,,,,,196,0,7,,,,,,3,,33,100
8832,note_on,,,,,196,0,6,,,,,,3,,45,100
8832,note_on,,,,,196,0,5,,,,,,2,,57,100
8832,note_on,,,,,196,0,4,,,,,,1,,57,100
9020,note_off,,,,,188,0,9,,,,,,4,,45,0
9020,note_off,,,,,188,0,8,,,,,,4,,57,0
9020,note_off,,,,,188,0,5,,,,,,2,,57,0
9020,note_off,,,,,188,0,3,,,,,,0,,57,0
9020,note_off,,,,,188,0,6,,,,,,3,,45,0
9020,note_off,,,,,188,0,7,,,,,,3,,33,0
9020,note_off,,,,,188,0,4,,,,,,1,,57,0
9216,note_on,,,,,196,0,9,,,,,,4,,50,100
9216,note_on,,,,,196,0,5,,,,,,2,,62,85
9216,note_on,,,,,0,0,9,,,,,,4,,38,100
9216,note_on,,,,,196,0,3,,,,,,0,,62,85
9216,note_on,,,,,196,0,6,,,,,,3,,38,85
9216,note_on,,,,,196,0,7,,,,,,3,,26,85
9216,note_on,,,,,196,0,8,,,,,,4,,62,100
9216,note_on,,,,,196,0,4,,,,,,1,,62,85
9260,note_off,,,,,44,0,8,,,,,,4,,62,0
9264,note_on,,,,,4,0,8,,,,,,4,,64,100
9308,note_off,,,,,44,0,8,,,,,,4,,64,0
9312,note_on,,,,,4,0,8,,,,,,4,,65,100
9356,note_off,,,,,44,0,8,,,,,,4,,65,0
9360,note_on,,,,,4,0,8,,,,,,4,,67,100
9404,note_off,,,,,188,0,4,,,,,,1,,62,0
9404,note_off,,,,,44,0,8,,,,,,4,,67,0
9404,note_off,,,,,188,0,3,,,,,,0,,62,0
9404,note_off,,,,,188,0,5,,,,,,2,,62,0
9408,note_on,,,,,4,0,5,,,,,,2,,62,85
9408,note_on,,,,,4,0,8,,,,,,4,,69,100
9500,note_off,,,,,92,0,8,,,,,,4,,69,0
9504,note_on,,,,,4,0,8,,,,,,4,,64,100
9596,note_off,,,,,188,0,5,,,,,,2,,62,0
9596,note_off,,,,,380,0,9,,,,,,4,,50,0
9596,note_off,,,,,0,0,9,,,,,,4,,38,0
9596,note_off,,,,,380,0,6,,,,,,3,,38,0
9596,note_off,,,,,92,0,8,,,,,,4,,64,0
9596,note_off,,,,,380,0,7,,,,,,3,,26,0
9600,note_on,,,,,4,0,8,,,,,,4,,65,100
9600,note_on,,,,,4,0,5,,,,,,2,,62,85
9600,note_on,,,,,196,0,4,,,,,,1,,69,85
9600,note_on,,,,,196,0,3,,,,,,0,,74,85
9692,note_off,,,,,92,0,8,,,,,,4,,65,0
9696,note_on,,,,,4,0,8,,,,,,4,,62,100
9788,note_off,,,,,188,0,3,,,,,,0,,74,0
9788,note_off,,,,,92,0,8,,,,,,4,,62,0
9788,note_off,,,,,188,0,4,,,,,,1,,69,0
9788,note_off,,,,,188,0,5,,,,,,2,,62,0
9792,note_on,,,,,4,0,3,,,,,,0,,73,85
9792,note_on,,,,,4,0,8,,,,,,4,,64,100
9792,note_on,,,,,4,0,5,,,,,,2,,62,85
9792,note_on,,,,,4,0,4,,,,,,1,,67,85
9884,note_off,,,,,92,0,8,,,,,,4,,64,0
9888,note_on,,,,,4,0,8,,,,,,4,,61,100
9980,note_off,,,,,188,0,3,,,,,,0,,73,0
9980,note_off,,,,,188,0,4,,,,,,1,,67,0
9980,note_off,,,,,188,0,5,,,,,,2,,62,0
9980,note_off,,,,,92,0,8,,,,,,4,,61,0
9984,note_on,,,,,4,0,8,,,,,,4,,62,100
9984,note_on,,,,,388,0,9,,,,,,4,,50,100
9984,note_on,,,,,4,0,5,,,,,,2,,62,85
9984,note_on,,,,,0,0,9,,,,,,4,,38,100
10076,note_off,,,,,92,0,8,,,,,,4,,62,0
10080,note_on,,,,,4,0,8,,,,,,4,,57,100
10172,note_off,,,,,188,0,5,,,,,,2,,62,0
10172,note_off,,,,,92,0,8,,,,,,4,,57,0
10176,note_on,,,,,4,0,5,,,,,,2,,62,85
10176,note_on,,,,,4,0,8,,,,,,4,,58,100
10268,note_off,,,,,92,0,8,,,,,,4,,58,0
10272,note_on,,,,,4,0,8,,,,,,4,,55,100
10364,note_off,,,,,188,0,5,,,,,,2,,62,0
10364,note_off,,,,,0,0,9,,,,,,4,,38,0
10364,note_off,,,,,380,0,9,,,,,,4,,50,0
10364,note_off,,,,,92,0,8,,,,,,4,,55,0
10368,note_on,,,,,4,0,8,,,,,,4,,57,100
10368,note_on,,,,,388,0,4,,,,,,1,,74,85
10368,note_on,,,,,4,0,5,,,,,,2,,62,85
10368,note_on,,,,,388,0,3,,,,,,0,,77,85
10460,note_off,,,,,92,0,8,,,,,,4,,57,0
10464,note_on,,,,,4,0,8,,,,,,4,,62,100
10556,note_off,,,,,188,0,5,,,,,,2,,62,0
10556,note_off,,,,,188,0,3,,,,,,0,,77,0
10556,note_off,,,,,92,0,8,,,,,,4,,62,0
10556,note_off,,,,,188,0,4,,,,,,1,,74,0
10560,note_on,,,,,4,0,8,,,,,,4,,64,100
10560,note_on,,,,,4,0,5,,,,,,2,,62,85
10560,note_on,,,,,4,0,4,,,,,,1,,73,85
10560,note_on,,,,,4,0,3,,,,,,0,,76,85
10652,note_off,,,,,92,0,8,,,,,,4,,64,0
10656,note_on,,,,,4,0,8,,,,,,4,,61,100
10748,note_off,,,,,188,0,5,,,,,,2,,62,0
10748,note_off,,,,,188,0,3,,,,,,0,,76,0
10748,note_off,,,,,92,0,8,,,,,,4,,61,0
10748,note_off,,,,,188,0,4,,,,,,1,,73,0
10752,note_on,,,,,388,0,9,,,,,,4,,50,100
10752,note_on,,,,,0,0,9,,,,,,4,,38,100
10752,note_on,,,,,4,0,5,,,,,,2,,62,85
10752,note_on,,,,,4,0,8,,,,,,4,,62,100
10844,note_off,,,,,92,0,8,,,,,,4,,62,0
10848,note_on,,,,,4,0,8,,,,,,4,,65,100
10940,note_off,,,,,188,0,5,,,,,,2,,62,0
10940,note_off,,,,,92,0,8,,,,,,4,,65,0
10944,note_on,,,,,4,0,8,,,,,,4,,67,100
10944,note_on,,,,,4,0,5,,,,,,2,,62,85
11036,note_off,,,,,92,0,8,,,,,,4,,67,0
11040,note_on,,,,,4,0,8,,,,,,4,,64,100
11132,note_off,,,,,92,0,8,,,,,,4,,64,0
11132,note_off,,,,,188,0,5,,,,,,2,,62,0
11132,note_off,,,,,0,0,9,,,,,,4,,38,0
11132,note_off,,,,,380,0,9,,,,,,4,,50,0
11136,note_on,,,,,388,0,4,,,,,,1,,74,85
11136,note_on,,,,,4,0,8,,,,,,4,,65,100
11136,note_on,,,,,388,0,3,,,,,,0,,81,85
11136,note_on,,,,,4,0,5,,,,,,2,,62,85
11228,note_off,,,,,92,0,8,,,,,,4,,65,0
11232,note_on,,,,,4,0,8,,,,,,4,,69,100
11324,note_off,,,,,92,0,8,,,,,,4,,69,0
11324,note_off,,,,,188,0,5,,,,,,2,,62,0
11324,note_off,,,,,188,0,4,,,,,,1,,74,0
11324,note_off,,,,,188,0,3,,,,,,0,,81,0
11328,note_on,,,,,4,0,8,,,,,,4,,70,100
11328,note_on,,,,,4,0,3,,,,,,0,,79,85
11328,note_on,,,,,4,0,5,,,,,,2,,62,85
11328,note_on,,,,,4,0,4,,,,,,1,,73,85
11420,note_off,,,,,92,0,8,,,,,,4,,70,0
11424,note_on,,,,,4,0,8,,,,,,4,,67,100
11516,note_off,,,,,92,0,8,,,,,,4,,67,0
11516,note_off,,,,,188,0,3,,,,,,0,,79,0
11516,note_off,,,,,188,0,5,,,,,,2,,62,0
11516,note_off,,,,,188,0,4,,,,,,1,,73,0
11520,note_on,,,,,1924,0,7,,,,,,3,,26,85
11520,note_on,,,,,4,0,8,,,,,,4,,69,100
11520,note_on,,,,,4,0,5,,,,,,2,,62,85
11520,note_on,,,,,388,0,9,,,,,,4,,50,100
11520,note_on,,,,,1924,0,6,,,,,,3,,38,85
11564,note_off,,,,,44,0,8,,,,,,4,,69,0
11564,note_off,,,,,44,0,9,,,,,,4,,50,0
11568,note_on,,,,,4,0,9,,,,,,4,,52,100
11568,note_on,,,,,4,0,8,,,,,,4,,73,100
11612,note_off,,,,,44,0,9,,,,,,4,,52,0
11612,note_off,,,,,44,0,8,,,,,,4,,73,0
11616,note_on,,,,,4,0,8,,,,,,4,,74,100
11616,note_on,,,,,4,0,9,,,,,,4,,53,100
11660,note_off,,,,,44,0,9,,,,,,4,,53,0
11660,note_off,,,,,44,0,8,,,,,,4,,74,0
11664,note_on,,,,,4,0,8,,,,,,4,,76,100
11664,note_on,,,,,4,0,9,,,,,,4,,55,100
11708,note_off,,,,,188,0,5,,,,,,2,,62,0
11708,note_off,,,,,44,0,9,,,,,,4,,55,0
11708,note_off,,,,,44,0,8,,,,,,4,,76,0
11712,note_on,,,,,4,0,8,,,,,,4,,77,100
11712,note_on,,,,,4,0,5,,,,,,2,,62,85
11712,note_on,,,,,4,0,9,,,,,,4,,57,100
11804,note_off,,,,,92,0,8,,,,,,4,,77,0
11804,note_off,,,,,92,0,9,,,,,,4,,57,0
11808,note_on,,,,,4,0,9,,,,,,4,,52,100
11808,note_on,,,,,4,0,8,,,,,,4,,73,100
11900,note_off,,,,,92,0,8,,,,,,4,,73,0
11900,note_off,,,,,188,0,5,,,,,,2,,62,0
11900,note_off,,,,,380,0,7,,,,,,3,,26,0
11900,note_off,,,,,380,0,6,,,,,,3,,38,0
11900,note_off,,,,,92,0,9,,,,,,4,,52,0
11904,note_on,,,,,4,0,9,,,,,,4,,53,100
11904,note_on,,,,,388,0,4,,,,,,1,,74,85
11904,note_on,,,,,4,0,8,,,,,,4,,74,100
11904,note_on,,,,,4,0,5,,,,,,2,,62,85
11904,note_on,,,,,388,0,3,,,,,,0,,77,85
11996,note_off,,,,,92,0,8,,,,,,4,,74,0
11996,note_off,,,,,92,0,9,,,,,,4,,53,0
12000,note_on,,,,,4,0,8,,,,,,4,,69,100
12000,note_on,,,,,4,0,9,,,,,,4,,50,100
12092,note_off,,,,,188,0,3,,,,,,0,,77,0
12092,note_off,,,,,188,0,4,,,,,,1,,74,0
12092,note_off,,,,,188,0,5,,,,,,2,,62,0
12092,note_off,,,,,92,0,9,,,,,,4,,50,0
12092,note_off,,,,,92,0,8,,,,,,4,,69,0
12096,note_on,,,,,4,0,5,,,,,,2,,62,85
12096,note_on,,,,,4,0,4,,,,,,1,,73,85
12096,note_on,,,,,4,0,3,,,,,,0,,76,85
12096,note_on,,,,,4,0,9,,,,,,4,,55,100
12096,note_on,,,,,4,0,8,,,,,,4,,70,100
12188,note_off,,,,,92,0,8,,,,,,4,,70,0
12188,note_off,,,,,92,0,9,,,,,,4,,55,0
12192,note_on,,,,,4,0,8,,,,,,4,,67,100
12192,note_on,,,,,4,0,9,,,,,,4,,52,100
12284,note_off,,,,,188,0,4,,,,,,1,,73,0
12284,note_off,,,,,92,0,9,,,,,,4,,52,0
12284,note_off,,,,,188,0,3,,,,,,0,,76,0
12284,note_off,,,,,188,0,5,,,,,,2,,62,0
12284,note_off,,,,,92,0,8,,,,,,4,,67,0
12288,note_on,,,,,4,0,9,,,,,,4,,53,100
12288,note_on,,,,,4,0,5,,,,,,2,,62,85
12288,note_on,,,,,4,0,8,,,,,,4,,69,100
12380,note_off,,,,,92,0,9,,,,,,4,,53,0
12380,note_off,,,,,92,0,8,,,,,,4,,69,0
12384,note_on,,,,,4,0,9,,,,,,4,,50,100
12384,note_on,,,,,4,0,8,,,,,,4,,65,100
12476,note_off,,,,,92,0,8,,,,,,4,,65,0
12476,note_off,,,,,92,0,9,,,,,,4,,50,0
12476,note_off,,,,,188,0,5,,,,,,2,,62,0
12480,note_on,,,,,4,0,8,,,,,,4,,67,100
12480,note_on,,,,,4,0,9,,,,,,4,,52,100
12480,note_on,,,,,4,0,5,,,,,,2,,62,85
12572,note_off,,,,,92,0,8,,,,,,4,,67,0
12572,note_off,,,,,92,0,9,,,,,,4,,52,0
12576,note_on,,,,,4,0,9,,,,,,4,,49,100
12576,note_on,,,,,4,0,8,,,,,,4,,64,100
12668,note_off,,,,,92,0,9,,,,,,4,,49,0
12668,note_off,,,,,92,0,8,,,,,,4,,64,0
12668,note_off,,,,,188,0,5,,,,,,2,,62,0
12672,note_on,,,,,388,0,4,,,,,,1,,69,85
12672,note_on,,,,,4,0,8,,,,,,4,,65,100
12672,note_on,,,,,388,0,3,,,,,,0,,74,85
12672,note_on,,,,,4,0,9,,,,,,4,,50,100
12672,note_on,,,,,4,0,5,,,,,,2,,62,85
12764,note_off,,,,,92,0,8,,,,,,4,,65,0
12764,note_off,,,,,92,0,9,,,,,,4,,50,0
12768,note_on,,,,,4,0,8,,,,,,4,,69,100
12768,note_on,,,,,4,0,9,,,,,,4,,53,100
12860,note_off,,,,,188,0,4,,,,,,1,,69,0
12860,note_off,,,,,92,0,9,,,,,,4,,53,0
12860,note_off,,,,,188,0,3,,,,,,0,,74,0
12860,note_off,,,,,188,0,5,,,,,,2,,62,0
12860,note_off,,,,,92,0,8,,,,,,4,,69,0
12864,note_on,,,,,4,0,8,,,,,,4,,70,100
12864,note_on,,,,,4,0,4,,,,,,1,,67,85
12864,note_on,,,,,4,0,3,,,,,,0,,73,85
12864,note_on,,,,,4,0,9,,,,,,4,,55,100
12864,note_on,,,,,4,0,5,,,,,,2,,62,85
12956,note_off,,,,,92,0,9,,,,,,4,,55,0
12956,note_off,,,,,92,0,8,,,,,,4,,70,0
12960,note_on,,,,,4,0,8,,,,,,4,,67,100
12960,note_on,,,,,4,0,9,,,,,,4,,52,100
13052,note_off,,,,,92,0,9,,,,,,4,,52,0
13052,note_off,,,,,92,0,8,,,,,,4,,67,0
13052,note_off,,,,,188,0,5,,,,,,2,,62,0
13052,note_off,,,,,188,0,4,,,,,,1,,67,0
13052,note_off,,,,,188,0,3,,,,,,0,,73,0
13056,note_on,,,,,4,0,9,,,,,,4,,53,100
13056,note_on,,,,,4,0,8,,,,,,4,,69,100
13056,note_on,,,,,4,0,5,,,,,,2,,62,85
13148,note_off,,,,,92,0,8,,,,,,4,,69,0
13148,note_off,,,,,92,0,9,,,,,,4,,53,0
13152,note_on,,,,,4,0,9,,,,,,4,,65,100
13152,note_on,,,,,4,0,8,,,,,,4,,74,100
13244,note_off,,,,,92,0,9,,,,,,4,,65,0
13244,note_off,,,,,188,0,5,,,,,,2,,62,0
13244,note_off,,,,,92,0,8,,,,,,4,,74,0
13248,note_on,,,,,4,0,5,,,,,,2,,62,85
13248,note_on,,,,,4,0,9,,,,,,4,,67,100
13248,note_on,,,,,4,0,8,,,,,,4,,76,100
13340,note_off,,,,,92,0,8,,,,,,4,,76,0
13340,note_off,,,,,92,0,9,,,,,,4,,67,0
13344,note_on,,,,,4,0,9,,,,,,4,,64,100
13344,note_on,,,,,4,0,8,,,,,,4,,73,100
13436,note_off,,,,,188,0,5,,,,,,2,,62,0
13436,note_off,,,,,92,0,8,,,,,,4,,73,0
13436,note_off,,,,,92,0,9,,,,,,4,,64,0
13440,note_on,,,,,388,0,4,,,,,,1,,65,85
13440,note_on,,,,,4,0,8,,,,,,4,,74,100
13440,note_on,,,,,388,0,3,,,,,,0,,74,85
13440,note_on,,,,,4,0,5,,,,,,2,,62,85
13440,note_on,,,,,4,0,9,,,,,,4,,65,100
13532,note_off,,,,,92,0,9,,,,,,4,,65,0
13532,note_off,,,,,92,0,8,,,,,,4,,74,0
13536,note_on,,,,,4,0,8,,,,,,4,,77,100
13536,note_on,,,,,4,0,9,,,,,,4,,69,100
13628,note_off,,,,,188,0,4,,,,,,1,,65,0
13628,note_off,,,,,188,0,5,,,,,,2,,62,0
13628,note_off,,,,,188,0,3,,,,,,0,,74,0
13628,note_off,,,,,92,0,9,,,,,,4,,69,0
13628,note_off,,,,,92,0,8,,,,,,4,,77,0
13632,note_on,,,,,4,0,4,,,,,,1,,64,85
13632,note_on,,,,,4,0,9,,,,,,4,,70,100
13632,note_on,,,,,4,0,5,,,,,,2,,62,85
13632,note_on,,,,,4,0,3,,,,,,0,,73,85
13632,note_on,,,,,4,0,8,,,,,,4,,79,100
13724,note_off,,,,,92,0,9,,,,,,4,,70,0
13724,note_off,,,,,92,0,8,,,,,,4,,79,0
13728,note_on,,,,,4,0,9,,,,,,4,,67,100
13728,note_on,,,,,4,0,8,,,,,,4,,76,100
13820,note_off,,,,,188,0,4,,,,,,1,,64,0
13820,note_off,,,,,188,0,3,,,,,,0,,73,0
13820,note_off,,,,,188,0,5,,,,,,2,,62,0
13820,note_off,,,,,92,0,8,,,,,,4,,76,0
13820,note_off,,,,,92,0,9,,,,,,4,,67,0
13824,note_on,,,,,4,0,5,,,,,,2,,62,85
13824,note_on,,,,,4,0,9,,,,,,4,,69,100
13824,note_on,,,,,4,0,8,,,,,,4,,77,100
13824,note_on,,,,,1924,0,6,,,,,,3,,38,85
13824,note_on,,,,,1924,0,7,,,,,,3,,26,85
13868,note_off,,,,,44,0,8,,,,,,4,,77,0
13868,note_off,,,,,44,0,9,,,,,,4,,69,0
13872,note_on,,,,,4,0,8,,,,,,4,,81,100
13872,note_on,,,,,4,0,9,,,,,,4,,67,100
13916,note_off,,,,,44,0,8,,,,,,4,,81,0
13916,note_off,,,,,44,0,9,,,,,,4,,67,0
13920,note_on,,,,,4,0,8,,,,,,4,,83,100
13920,note_on,,,,,4,0,9,,,,,,4,,65,100
13964,note_off,,,,,44,0,8,,,,,,4,,83,0
13964,note_off,,,,,44,0,9,,,,,,4,,65,0
13968,note_on,,,,,4,0,8,,,,,,4,,85,100
13968,note_on,,,,,4,0,9,,,,,,4,,64,100
14012,note_off,,,,,44,0,9,,,,,,4,,64,0
14012,note_off,,,,,44,0,8,,,,,,4,,85,0
14012,note_off,,,,,188,0,5,,,,,,2,,62,0
14016,note_on,,,,,4,0,9,,,,,,4,,65,100
14016,note_on,,,,,4,0,8,,,,,,4,,86,100
14016,note_on,,,,,4,0,5,,,,,,2,,62,85
14108,note_off,,,,,92,0,9,,,,,,4,,65,0
14108,note_off,,,,,92,0,8,,,,,,4,,86,0
14112,note_on,,,,,4,0,9,,,,,,4,,62,100
14112,note_on,,,,,4,0,8,,,,,,4,,81,100
14204,note_off,,,,,92,0,8,,,,,,4,,81,0
14204,note_off,,,,,380,0,7,,,,,,3,,26,0
14204,note_off,,,,,380,0,6,,,,,,3,,38,0
14204,note_off,,,,,92,0,9,,,,,,4,,62,0
14204,note_off,,,,,188,0,5,,,,,,2,,62,0
14208,note_on,,,,,4,0,9,,,,,,4,,74,100
14208,note_on,,,,,388,0,3,,,,,,0,,67,85
14208,note_on,,,,,4,0,5,,,,,,2,,62,85
14208,note_on,,,,,388,0,4,,,,,,1,,62,85
14208,note_on,,,,,4,0,8,,,,,,4,,82,100
14300,note_off,,,,,92,0,8,,,,,,4,,82,0
14304,note_on,,,,,4,0,8,,,,,,4,,79,100
14396,note_off,,,,,188,0,4,,,,,,1,,62,0
14396,note_off,,,,,188,0,3,,,,,,0,,67,0
14396,note_off,,,,,188,0,5,,,,,,2,,62,0
14396,note_off,,,,,92,0,8,,,,,,4,,79,0
14396,note_off,,,,,188,0,9,,,,,,4,,74,0
14400,note_on,,,,,4,0,8,,,,,,4,,81,100
14400,note_on,,,,,4,0,5,,,,,,2,,62,85
14400,note_on,,,,,4,0,3,,,,,,0,,64,85
14400,note_on,,,,,4,0,4,,,,,,1,,61,85
14492,note_off,,,,,92,0,8,,,,,,4,,81,0
14496,note_on,,,,,4,0,8,,,,,,4,,76,100
14588,note_off,,,,,188,0,5,,,,,,2,,62,0
14588,note_off,,,,,92,0,8,,,,,,4,,76,0
14588,note_off,,,,,188,0,4,,,,,,1,,61,0
14588,note_off,,,,,188,0,3,,,,,,0,,64,0
14592,note_on,,,,,4,0,8,,,,,,4,,77,100
14592,note_on,,,,,4,0,5,,,,,,2,,62,85
14592,note_on,,,,,196,0,9,,,,,,4,,57,100
14636,note_off,,,,,44,0,9,,,,,,4,,57,0
14640,note_on,,,,,4,0,9,,,,,,4,,62,100
14684,note_off,,,,,44,0,9,,,,,,4,,62,0
14684,note_off,,,,,92,0,8,,,,,,4,,77,0
14688,note_on,,,,,4,0,9,,,,,,4,,64,100
14688,note_on,,,,,4,0,8,,,,,,4,,76,100
14732,note_off,,,,,44,0,9,,,,,,4,,64,0
14736,note_on,,,,,4,0,9,,,,,,4,,65,100
14780,note_off,,,,,44,0,9,,,,,,4,,65,0
14780,note_off,,,,,188,0,5,,,,,,2,,62,0
14780,note_off,,,,,92,0,8,,,,,,4,,76,0
14784,note_on,,,,,4,0,5,,,,,,2,,62,85
14784,note_on,,,,,4,0,8,,,,,,4,,77,100
14784,note_on,,,,,4,0,9,,,,,,4,,67,100
14876,note_off,,,,,92,0,9,,,,,,4,,67,0
14876,note_off,,,,,92,0,8,,,,,,4,,77,0
14880,note_on,,,,,4,0,8,,,,,,4,,73,100
14880,note_on,,,,,4,0,9,,,,,,4,,64,100
14972,note_off,,,,,92,0,8,,,,,,4,,73,0
14972,note_off,,,,,92,0,9,,,,,,4,,64,0
14972,note_off,,,,,188,0,5,,,,,,2,,62,0
14976,note_on,,,,,4,0,8,,,,,,4,,74,100
14976,note_on,,,,,4,0,9,,,,,,4,,65,100
14976,note_on,,,,,4,0,5,,,,,,2,,62,85
14976,note_on,,,,,388,0,3,,,,,,0,,65,85
14976,note_on,,,,,388,0,4,,,,,,1,,62,85
15068,note_off,,,,,92,0,8,,,,,,4,,74,0
15068,note_off,,,,,92,0,9,,,,,,4,,65,0
15072,note_on,,,,,4,0,8,,,,,,4,,77,100
15072,note_on,,,,,4,0,9,,,,,,4,,69,100
15164,note_off,,,,,188,0,4,,,,,,1,,62,0
15164,note_off,,,,,92,0,9,,,,,,4,,69,0
15164,note_off,,,,,92,0,8,,,,,,4,,77,0
15164,note_off,,,,,188,0,3,,,,,,0,,65,0
15164,note_off,,,,,188,0,5,,,,,,2,,62,0
15168,note_on,,,,,4,0,9,,,,,,4,,70,100
15168,note_on,,,,,4,0,8,,,,,,4,,79,100
15168,note_on,,,,,4,0,4,,,,,,1,,61,85
15168,note_on,,,,,4,0,5,,,,,,2,,62,85
15168,note_on,,,,,4,0,3,,,,,,0,,64,85
15260,note_off,,,,,92,0,8,,,,,,4,,79,0
15260,note_off,,,,,92,0,9,,,,,,4,,70,0
15264,note_on,,,,,4,0,8,,,,,,4,,76,100
15264,note_on,,,,,4,0,9,,,,,,4,,67,100
15356,note_off,,,,,188,0,4,,,,,,1,,61,0
15356,note_off,,,,,188,0,3,,,,,,0,,64,0
15356,note_off,,,,,92,0,8,,,,,,4,,76,0
15356,note_off,,,,,188,0,5,,,,,,2,,62,0
15356,note_off,,,,,92,0,9,,,,,,4,,67,0
15360,note_on,,,,,4,0,8,,,,,,4,,77,100
15360,note_on,,,,,4,0,9,,,,,,4,,69,100
15360,note_on,,,,,4,0,5,,,,,,2,,62,85
15452,note_off,,,,,92,0,9,,,,,,4,,69,0
15452,note_off,,,,,92,0,8,,,,,,4,,77,0
15456,note_on,,,,,4,0,9,,,,,,4,,65,100
15456,note_on,,,,,4,0,8,,,,,,4,,81,100
15548,note_off,,,,,92,0,9,,,,,,4,,65,0
15548,note_off,,,,,188,0,5,,,,,,2,,62,0
15548,note_off,,,,,92,0,8,,,,,,4,,81,0
15552,note_on,,,,,4,0,9,,,,,,4,,67,100
15552,note_on,,,,,4,0,5,,,,,,2,,62,85
15552,note_on,,,,,4,0,8,,,,,,4,,82,100
15644,note_off,,,,,92,0,9,,,,,,4,,67,0
15644,note_off,,,,,92,0,8,,,,,,4,,82,0
15648,note_on,,,,,4,0,8,,,,,,4,,79,100
15648,note_on,,,,,4,0,9,,,,,,4,,64,100
15740,note_off,,,,,92,0,9,,,,,,4,,64,0
15740,note_off,,,,,188,0,5,,,,,,2,,62,0
15740,note_off,,,,,92,0,8,,,,,,4,,79,0
15744,note_on,,,,,388,0,4,,,,,,1,,65,85
15744,note_on,,,,,4,0,9,,,,,,4,,65,100
15744,note_on,,,,,4,0,5,,,,,,2,,62,85
15744,note_on,,,,,388,0,3,,,,,,0,,62,85
15744,note_on,,,,,4,0,8,,,,,,4,,81,100
15836,note_off,,,,,92,0,8,,,,,,4,,81,0
15836,note_off,,,,,92,0,9,,,,,,4,,65,0
15840,note_on,,,,,4,0,9,,,,,,4,,62,100
15840,note_on,,,,,4,0,8,,,,,,4,,86,100
15932,note_off,,,,,188,0,3,,,,,,0,,62,0
15932,note_off,,,,,188,0,5,,,,,,2,,62,0
15932,note_off,,,,,188,0,4,,,,,,1,,65,0
15932,note_off,,,,,92,0,8,,,,,,4,,86,0
15932,note_off,,,,,92,0,9,,,,,,4,,62,0
15936,note_on,,,,,4,0,8,,,,,,4,,82,100
15936,note_on,,,,,4,0,4,,,,,,1,,64,85
15936,note_on,,,,,4,0,9,,,,,,4,,67,100
15936,note_on,,,,,4,0,5,,,,,,2,,62,85
15936,note_on,,,,,4,0,3,,,,,,0,,61,85
16028,note_off,,,,,92,0,9,,,,,,4,,67,0
16028,note_off,,,,,92,0,8,,,,,,4,,82,0
16032,note_on,,,,,4,0,8,,,,,,4,,79,100
16032,note_on,,,,,4,0,9,,,,,,4,,64,100
16124,note_off,,,,,188,0,3,,,,,,0,,61,0
16124,note_off,,,,,92,0,8,,,,,,4,,79,0
16124,note_off,,,,,92,0,9,,,,,,4,,64,0
16124,note_off,,,,,188,0,4,,,,,,1,,64,0
16124,note_off,,,,,188,0,5,,,,,,2,,62,0
16128,note_on,,,,,4,0,9,,,,,,4,,65,100
16128,note_on,,,,,4,0,4,,,,,,1,,65,85
16128,note_on,,,,,4,0,5,,,,,,2,,62,85
16128,note_on,,,,,4,0,3,,,,,,0,,62,85
16128,note_on,,,,,1924,0,6,,,,,,3,,38,85
16128,note_on,,,,,4,0,8,,,,,,4,,81,100
16128,note_on,,,,,1924,0,7,,,,,,3,,26,85
16220,note_off,,,,,92,0,8,,,,,,4,,81,0
16220,note_off,,,,,92,0,9,,,,,,4,,65,0
16224,note_on,,,,,4,0,8,,,,,,4,,86,100
16224,note_on,,,,,4,0,9,,,,,,4,,62,100
16316,note_off,,,,,92,0,9,,,,,,4,,62,0
16316,note_off,,,,,188,0,5,,,,,,2,,62,0
16316,note_off,,,,,92,0,8,,,,,,4,,86,0
16320,note_on,,,,,4,0,9,,,,,,4,,58,100
16320,note_on,,,,,4,0,8,,,,,,4,,79,100
16320,note_on,,,,,4,0,5,,,,,,2,,62,85
16412,note_off,,,,,92,0,8,,,,,,4,,79,0
16412,note_off,,,,,92,0,9,,,,,,4,,58,0
16416,note_on,,,,,4,0,8,,,,,,4,,76,100
16416,note_on,,,,,4,0,9,,,,,,4,,55,100
16508,note_off,,,,,92,0,8,,,,,,4,,76,0
16508,note_off,,,,,380,0,4,,,,,,1,,65,0
16508,note_off,,,,,92,0,9,,,,,,4,,55,0
16508,note_off,,,,,380,0,3,,,,,,0,,62,0
16508,note_off,,,,,380,0,6,,,,,,3,,38,0
16508,note_off,,,,,188,0,5,,,,,,2,,62,0
16508,note_off,,,,,380,0,7,,,,,,3,,26,0
16512,note_on,,,,,4,0,9,,,,,,4,,57,100
16512,note_on,,,,,4,0,5,,,,,,2,,62,85
16512,note_on,,,,,4,0,8,,,,,,4,,77,100
16604,note_off,,,,,92,0,9,,,,,,4,,57,0
16604,note_off,,,,,92,0,8,,,,,,4,,77,0
16608,note_on,,,,,4,0,8,,,,,,4,,86,100
16608,note_on,,,,,4,0,9,,,,,,4,,53,100
16700,note_off,,,,,92,0,8,,,,,,4,,86,0
16700,note_off,,,,,92,0,9,,,,,,4,,53,0
16700,note_off,,,,,188,0,5,,,,,,2,,62,0
16704,note_on,,,,,4,0,8,,,,,,4,,76,100
16704,note_on,,,,,4,0,9,,,,,,4,,55,100
16704,note_on,,,,,4,0,5,,,,,,2,,62,85
16796,note_off,,,,,92,0,8,,,,,,4,,76,0
16796,note_off,,,,,92,0,9,,,,,,4,,55,0
16800,note_on,,,,,4,0,9,,,,,,4,,52,100
16800,note_on,,,,,4,0,8,,,,,,4,,73,100
16892,note_off,,,,,92,0,9,,,,,,4,,52,0
16892,note_off,,,,,92,0,8,,,,,,4,,73,0
16892,note_off,,,,,188,0,5,,,,,,2,,62,0
16896,note_on,,,,,4,0,9,,,,,,4,,53,100
16896,note_on,,,,,4,0,8,,,,,,4,,74,100
16896,note_on,,,,,4,0,5,,,,,,2,,62,85
16988,note_off,,,,,92,0,9,,,,,,4,,53,0
16988,note_off,,,,,92,0,8,,,,,,4,,74,0
16992,note_on,,,,,4,0,9,,,,,,4,,38,100
16992,note_on,,,,,4,0,8,,,,,,4,,86,100
17084,note_off,,,,,92,0,8,,,,,,4,,86,0
17084,note_off,,,,,92,0,9,,,,,,4,,38,0
17088,note_on,,,,,4,0,8,,,,,,4,,81,100
17088,note_on,,,,,4,0,9,,,,,,4,,41,100
17180,note_off,,,,,92,0,9,,,,,,4,,41,0
17180,note_off,,,,,92,0,8,,,,,,4,,81,0
17184,note_on,,,,,4,0,9,,,,,,4,,45,100
17184,note_on,,,,,4,0,8,,,,,,4,,77,100
17276,note_off,,,,,380,0,5,,,,,,2,,62,0
17276,note_off,,,,,92,0,8,,,,,,4,,77,0
17276,note_off,,,,,92,0,9,,,,,,4,,45,0
17280,note_on,,,,,4,0,8,,,,,,4,,74,100
17280,note_on,,,,,4,0,9,,,,,,4,,50,100
17372,note_off,,,,,92,0,8,,,,,,4,,74,0
17372,note_off,,,,,92,0,9,,,,,,4,,50,0
17376,note_on,,,,,4,0,9,,,,,,4,,41,100
17376,note_on,,,,,4,0,8,,,,,,4,,81,100
17468,note_off,,,,,92,0,8,,,,,,4,,81,0
17468,note_off,,,,,92,0,9,,,,,,4,,41,0
17472,note_on,,,,,4,0,9,,,,,,4,,45,100
17472,note_on,,,,,4,0,8,,,,,,4,,77,100
17564,note_off,,,,,92,0,9,,,,,,4,,45,0
17564,note_off,,,,,92,0,8,,,,,,4,,77,0
17568,note_on,,,,,4,0,9,,,,,,4,,50,100
17568,note_on,,,,,4,0,8,,,,,,4,,74,100
17660,note_off,,,,,92,0,9,,,,,,4,,50,0
17660,note_off,,,,,92,0,8,,,,,,4,,74,0
17664,note_on,,,,,4,0,9,,,,,,4,,53,100
17664,note_on,,,,,4,0,8,,,,,,4,,69,100
17756,note_off,,,,,92,0,9,,,,,,4,,53,0
17756,note_off,,,,,92,0,8,,,,,,4,,69,0
17760,note_on,,,,,4,0,9,,,,,,4,,45,100
17760,note_on,,,,,4,0,8,,,,,,4,,77,100
17852,note_off,,,,,92,0,8,,,,,,4,,77,0
17852,note_off,,,,,92,0,9,,,,,,4,,45,0
17856,note_on,,,,,4,0,9,,,,,,4,,50,100
17856,note_on,,,,,4,0,8,,,,,,4,,74,100
17948,note_off,,,,,92,0,9,,,,,,4,,50,0
17948,note_off,,,,,92,0,8,,,,,,4,,74,0
17952,note_on,,,,,4,0,9,,,,,,4,,53,100
17952,note_on,,,,,4,0,8,,,,,,4,,69,100
18044,note_off,,,,,92,0,8,,,,,,4,,69,0
18044,note_off,,,,,92,0,9,,,,,,4,,53,0
18048,note_on,,,,,4,0,9,,,,,,4,,57,100
18048,note_on,,,,,4,0,8,,,,,,4,,65,100
18140,note_off,,,,,92,0,9,,,,,,4,,57,0
18140,note_off,,,,,92,0,8,,,,,,4,,65,0
18144,note_on,,,,,4,0,9,,,,,,4,,50,100
18144,note_on,,,,,4,0,8,,,,,,4,,74,100
18236,note_off,,,,,92,0,9,,,,,,4,,50,0
18236,note_off,,,,,92,0,8,,,,,,4,,74,0
18240,note_on,,,,,4,0,9,,,,,,4,,53,100
18240,note_on,,,,,4,0,8,,,,,,4,,69,100
18332,note_off,,,,,92,0,8,,,,,,4,,69,0
18332,note_off,,,,,92,0,9,,,,,,4,,53,0
18336,note_on,,,,,4,0,8,,,,,,4,,65,100
18336,note_on,,,,,4,0,9,,,,,,4,,57,100
18428,note_off,,,,,92,0,8,,,,,,4,,65,0
18428,note_off,,,,,92,0,9,,,,,,4,,57,0
18432,note_on,,,,,4,0,9,,,,,,4,,62,100
18432,note_on,,,,,1924,0,3,,,,,,0,,62,100
18432,note_on,,,,,1924,0,6,,,,,,3,,38,100
18432,note_on,,,,,1924,0,4,,,,,,1,,62,100
18432,note_on,,,,,1924,0,7,,,,,,3,,26,100
18432,note_on,,,,,4,0,8,,,,,,4,,62,100
18524,note_off,,,,,92,0,8,,,,,,4,,62,0
18528,note_off,,,,,96,0,4,,,,,,1,,62,0
18528,note_on,,,,,0,0,4,,,,,,1,,64,100
18528,note_on,,,,,4,0,8,,,,,,4,,64,100
18528,note_off,,,,,96,0,3,,,,,,0,,62,0
18528,note_on,,,,,0,0,3,,,,,,0,,64,100
18620,note_off,,,,,188,0,9,,,,,,4,,62,0
18620,note_off,,,,,92,0,8,,,,,,4,,64,0
18624,note_off,,,,,96,0,4,,,,,,1,,64,0
18624,note_on,,,,,0,0,3,,,,,,0,,65,100
18624,note_on,,,,,4,0,8,,,,,,4,,65,100
18624,note_off,,,,,96,0,3,,,,,,0,,64,0
18624,note_on,,,,,0,0,4,,,,,,1,,65,100
18752,note_off,,,,,128,0,3,,,,,,0,,65,0
18752,note_off,,,,,128,0,4,,,,,,1,,65,0
18812,note_off,,,,,188,0,8,,,,,,4,,65,0
18816,note_on,,,,,4,0,8,,,,,,4,,64,100
18816,note_on,,,,,64,0,3,,,,,,0,,64,100
18816,note_off,,,,,384,0,6,,,,,,3,,38,0
18816,note_off,,,,,384,0,7,,,,,,3,,26,0
18816,note_on,,,,,64,0,4,,,,,,1,,64,100
19004,note_off,,,,,188,0,8,,,,,,4,,64,0
19008,note_off,,,,,192,0,4,,,,,,1,,64,0
19008,note_on,,,,,0,0,3,,,,,,0,,62,100
19008,note_off,,,,,192,0,3,,,,,,0,,64,0
19008,note_on,,,,,0,0,4,,,,,,1,,62,100
19008,note_on,,,,,4,0,8,,,,,,4,,62,100
19196,note_off,,,,,188,0,8,,,,,,4,,62,0
19200,note_off,,,,,192,0,4,,,,,,1,,62,0
19200,note_off,,,,,192,0,3,,,,,,0,,62,0
19200,note_on,,,,,0,0,3,,,,,,0,,69,100
19200,note_on,,,,,384,0,6,,,,,,3,,50,100
19200,note_on,,,,,580,0,9,,,,,,4,,50,100
19200,note_on,,,,,0,0,4,,,,,,1,,69,100
19200,note_on,,,,,1924,0,5,,,,,,2,,65,100
19200,note_on,,,,,4,0,8,,,,,,4,,69,100
19200,note_on,,,,,384,0,7,,,,,,3,,38,100
19292,note_off,,,,,92,0,5,,,,,,2,,65,0
19292,note_off,,,,,92,0,9,,,,,,4,,50,0
19296,note_on,,,,,4,0,5,,,,,,2,,67,100
19296,note_off,,,,,96,0,7,,,,,,3,,38,0
19296,note_on,,,,,4,0,9,,,,,,4,,52,100
19296,note_on,,,,,0,0,7,,,,,,3,,40,100
19296,note_off,,,,,96,0,6,,,,,,3,,50,0
19296,note_on,,,,,0,0,6,,,,,,3,,52,100
19388,note_off,,,,,188,0,8,,,,,,4,,69,0
19388,note_off,,,,,92,0,9,,,,,,4,,52,0
19388,note_off,,,,,92,0,5,,,,,,2,,67,0
19392,note_on,,,,,4,0,9,,,,,,4,,53,100
19392,note_on,,,,,0,0,7,,,,,,3,,41,100
19392,note_on,,,,,4,0,5,,,,,,2,,69,100
19392,note_on,,,,,0,0,3,,,,,,0,,74,100
19392,note_off,,,,,192,0,3,,,,,,0,,69,0
19392,note_on,,,,,0,0,6,,,,,,3,,53,100
19392,note_off,,,,,96,0,6,,,,,,3,,52,0
19392,note_off,,,,,96,0,7,,,,,,3,,40,0
19392,note_off,,,,,192,0,4,,,,,,1,,69,0
19392,note_on,,,,,4,0,8,,,,,,4,,74,100
19392,note_on,,,,,0,0,4,,,,,,1,,74,100
19520,note_off,,,,,128,0,5,,,,,,2,,69,0
19520,note_off,,,,,128,0,6,,,,,,3,,53,0
19520,note_off,,,,,128,0,7,,,,,,3,,41,0
19580,note_off,,,,,188,0,9,,,,,,4,,53,0
19584,note_on,,,,,64,0,6,,,,,,3,,52,100
19584,note_on,,,,,64,0,7,,,,,,3,,40,100
19584,note_on,,,,,4,0,9,,,,,,4,,52,100
19584,note_on,,,,,64,0,5,,,,,,2,,67,100
19772,note_off,,,,,188,0,9,,,,,,4,,52,0
19772,note_off,,,,,188,0,5,,,,,,2,,67,0
19772,note_off,,,,,380,0,8,,,,,,4,,74,0
19776,note_on,,,,,4,0,8,,,,,,4,,69,100
19776,note_on,,,,,4,0,9,,,,,,4,,50,100
19776,note_off,,,,,384,0,4,,,,,,1,,74,0
19776,note_on,,,,,0,0,3,,,,,,0,,69,100
19776,note_off,,,,,192,0,6,,,,,,3,,52,0
19776,note_on,,,,,0,0,6,,,,,,3,,50,100
19776,note_on,,,,,0,0,4,,,,,,1,,69,100
19776,note_on,,,,,0,0,7,,,,,,3,,38,100
19776,note_off,,,,,192,0,7,,,,,,3,,40,0
19776,note_on,,,,,4,0,5,,,,,,2,,65,100
19776,note_off,,,,,384,0,3,,,,,,0,,74,0
19964,note_off,,,,,188,0,9,,,,,,4,,50,0
19964,note_off,,,,,188,0,8,,,,,,4,,69,0
19968,note_off,,,,,192,0,4,,,,,,1,,69,0
19968,note_on,,,,,0,0,4,,,,,,1,,70,100
19968,note_on,,,,,0,0,3,,,,,,0,,70,100
19968,note_on,,,,,4,0,8,,,,,,4,,70,100
19968,note_on,,,,,4,0,9,,,,,,4,,55,100
19968,note_on,,,,,0,0,7,,,,,,3,,43,100
19968,note_off,,,,,192,0,3,,,,,,0,,69,0
19968,note_on,,,,,0,0,6,,,,,,3,,55,100
19968,note_off,,,,,192,0,6,,,,,,3,,50,0
19968,note_off,,,,,192,0,7,,,,,,3,,38,0
20156,note_off,,,,,188,0,9,,,,,,4,,55,0
20156,note_off,,,,,188,0,8,,,,,,4,,70,0
20156,note_off,,,,,188,0,3,,,,,,0,,70,0
20156,note_off,,,,,188,0,4,,,,,,1,,70,0
20156,note_off,,,,,380,0,5,,,,,,2,,65,0
20160,note_on,,,,,4,0,3,,,,,,0,,67,100
20160,note_on,,,,,4,0,8,,,,,,4,,67,100
20160,note_off,,,,,192,0,6,,,,,,3,,55,0
20160,note_on,,,,,4,0,4,,,,,,1,,67,100
20160,note_on,,,,,4,0,5,,,,,,2,,64,100
20160,note_on,,,,,4,0,9,,,,,,4,,65,100
20160,note_off,,,,,192,0,7,,,,,,3,,43,0
20252,note_off,,,,,92,0,4,,,,,,1,,67,0
20252,note_off,,,,,92,0,3,,,,,,0,,67,0
20252,note_off,,,,,92,0,9,,,,,,4,,65,0
20252,note_off,,,,,92,0,8,,,,,,4,,67,0
20256,note_on,,,,,4,0,3,,,,,,0,,64,100
20256,note_on,,,,,4,0,4,,,,,,1,,64,100
20256,note_on,,,,,4,0,9,,,,,,4,,61,100
20256,note_on,,,,,4,0,8,,,,,,4,,64,100
20348,note_off,,,,,92,0,9,,,,,,4,,61,0
20348,note_off,,,,,92,0,8,,,,,,4,,64,0
20348,note_off,,,,,92,0,3,,,,,,0,,64,0
20348,note_off,,,,,92,0,4,,,,,,1,,64,0
20352,note_on,,,,,192,0,6,,,,,,3,,53,100
20352,note_on,,,,,192,0,7,,,,,,3,,41,100
20352,note_on,,,,,4,0,8,,,,,,4,,69,100
20352,note_on,,,,,4,0,3,,,,,,0,,69,100
20352,note_on,,,,,4,0,9,,,,,,4,,53,100
20352,note_on,,,,,4,0,4,,,,,,1,,69,100
20540,note_off,,,,,188,0,9,,,,,,4,,53,0
20540,note_off,,,,,188,0,3,,,,,,0,,69,0
20540,note_off,,,,,380,0,5,,,,,,2,,64,0
20540,note_off,,,,,188,0,8,,,,,,4,,69,0
20540,note_off,,,,,188,0,4,,,,,,1,,69,0
20544,note_on,,,,,4,0,9,,,,,,4,,62,100
20544,note_on,,,,,4,0,5,,,,,,2,,62,100
20544,note_off,,,,,192,0,6,,,,,,3,,53,0
20544,note_on,,,,,4,0,8,,,,,,4,,65,100
20544,note_on,,,,,4,0,3,,,,,,0,,65,100
20544,note_off,,,,,192,0,7,,,,,,3,,41,0
20544,note_on,,,,,4,0,4,,,,,,1,,65,100
20636,note_off,,,,,92,0,3,,,,,,0,,65,0
20636,note_off,,,,,92,0,8,,,,,,4,,65,0
20636,note_off,,,,,92,0,9,,,,,,4,,62,0
20636,note_off,,,,,92,0,4,,,,,,1,,65,0
20640,note_on,,,,,4,0,8,,,,,,4,,62,100
20640,note_on,,,,,4,0,3,,,,,,0,,62,100
20640,note_on,,,,,4,0,9,,,,,,4,,58,100
20640,note_on,,,,,4,0,4,,,,,,1,,62,100
20732,note_off,,,,,92,0,3,,,,,,0,,62,0
20732,note_off,,,,,92,0,9,,,,,,4,,58,0
20732,note_off,,,,,92,0,8,,,,,,4,,62,0
20732,note_off,,,,,92,0,4,,,,,,1,,62,0
20736,note_on,,,,,192,0,6,,,,,,3,,52,100
20736,note_on,,,,,4,0,9,,,,,,4,,52,100
20736,note_on,,,,,4,0,4,,,,,,1,,67,100
20736,note_on,,,,,192,0,7,,,,,,3,,40,100
20736,note_on,,,,,4,0,3,,,,,,0,,67,100
20736,note_on,,,,,4,0,8,,,,,,4,,67,100
20828,note_off,,,,,92,0,9,,,,,,4,,52,0
20832,note_on,,,,,4,0,9,,,,,,4,,53,100
20924,note_off,,,,,380,0,5,,,,,,2,,62,0
20924,note_off,,,,,92,0,9,,,,,,4,,53,0
20924,note_off,,,,,188,0,8,,,,,,4,,67,0
20924,note_off,,,,,188,0,4,,,,,,1,,67,0
20924,note_off,,,,,188,0,3,,,,,,0,,67,0
20928,note_on,,,,,4,0,8,,,,,,4,,64,100
20928,note_on,,,,,4,0,5,,,,,,2,,67,100
20928,note_off,,,,,192,0,6,,,,,,3,,52,0
20928,note_on,,,,,4,0,4,,,,,,1,,64,100
20928,note_on,,,,,4,0,9,,,,,,4,,55,100
20928,note_on,,,,,4,0,3,,,,,,0,,64,100
20928,note_off,,,,,192,0,7,,,,,,3,,40,0
21020,note_off,,,,,92,0,4,,,,,,1,,64,0
21020,note_off,,,,,92,0,3,,,,,,0,,64,0
21020,note_off,,,,,92,0,8,,,,,,4,,64,0
21020,note_off,,,,,92,0,9,,,,,,4,,55,0
21024,note_on,,,,,4,0,3,,,,,,0,,61,100
21024,note_on,,,,,4,0,8,,,,,,4,,61,100
21024,note_on,,,,,4,0,9,,,,,,4,,52,100
21024,note_on,,,,,4,0,4,,,,,,1,,61,100
21116,note_off,,,,,92,0,9,,,,,,4,,52,0
21116,note_off,,,,,92,0,3,,,,,,0,,61,0
21116,note_off,,,,,92,0,8,,,,,,4,,61,0
21116,note_off,,,,,92,0,4,,,,,,1,,61,0
21120,note_on,,,,,4,0,3,,,,,,0,,57,100
21120,note_on,,,,,192,0,7,,,,,,3,,38,100
21120,note_on,,,,,4,0,8,,,,,,4,,57,100
21120,note_on,,,,,192,0,6,,,,,,3,,50,100
21120,note_on,,,,,4,0,9,,,,,,4,,50,100
21120,note_on,,,,,4,0,4,,,,,,1,,57,100
21212,note_off,,,,,92,0,9,,,,,,4,,50,0
21216,note_on,,,,,4,0,9,,,,,,4,,52,100
21248,note_off,,,,,128,0,4,,,,,,1,,57,0
21248,note_off,,,,,128,0,3,,,,,,0,,57,0
21308,note_off,,,,,188,0,8,,,,,,4,,57,0
21308,note_off,,,,,92,0,9,,,,,,4,,52,0
21308,note_off,,,,,380,0,5,,,,,,2,,67,0
21312,note_on,,,,,64,0,3,,,,,,0,,70,100
21312,note_off,,,,,192,0,7,,,,,,3,,38,0
21312,note_off,,,,,192,0,6,,,,,,3,,50,0
21312,note_on,,,,,64,0,4,,,,,,1,,70,100
21312,note_on,,,,,4,0,5,,,,,,2,,64,100
21312,note_on,,,,,4,0,8,,,,,,4,,70,100
21312,note_on,,,,,4,0,9,,,,,,4,,55,100
21404,note_off,,,,,92,0,5,,,,,,2,,64,0
21404,note_off,,,,,92,0,9,,,,,,4,,55,0
21408,note_on,,,,,4,0,9,,,,,,4,,52,100
21408,note_on,,,,,4,0,5,,,,,,2,,61,100
21500,note_off,,,,,92,0,5,,,,,,2,,61,0
21500,note_off,,,,,92,0,9,,,,,,4,,52,0
21504,note_on,,,,,4,0,9,,,,,,4,,49,100
21504,note_on,,,,,192,0,6,,,,,,3,,49,100
21504,note_on,,,,,4,0,5,,,,,,2,,55,100
21504,note_on,,,,,192,0,7,,,,,,3,,37,100
21596,note_off,,,,,92,0,9,,,,,,4,,49,0
21600,note_on,,,,,4,0,9,,,,,,4,,50,100
21692,note_off,,,,,92,0,9,,,,,,4,,50,0
21692,note_off,,,,,380,0,3,,,,,,0,,70,0
21692,note_off,,,,,380,0,4,,,,,,1,,70,0
21692,note_off,,,,,380,0,8,,,,,,4,,70,0
21692,note_off,,,,,188,0,5,,,,,,2,,55,0
21696,note_on,,,,,4,0,5,,,,,,2,,70,100
21696,note_on,,,,,4,0,8,,,,,,4,,67,100
21696,note_on,,,,,4,0,3,,,,,,0,,67,100
21696,note_off,,,,,192,0,6,,,,,,3,,49,0
21696,note_off,,,,,192,0,7,,,,,,3,,37,0
21696,note_on,,,,,4,0,4,,,,,,1,,67,100
21696,note_on,,,,,4,0,9,,,,,,4,,52,100
21788,note_off,,,,,92,0,4,,,,,,1,,67,0
21788,note_off,,,,,92,0,3,,,,,,0,,67,0
21788,note_off,,,,,92,0,8,,,,,,4,,67,0
21788,note_off,,,,,92,0,9,,,,,,4,,52,0
21792,note_on,,,,,4,0,4,,,,,,1,,64,100
21792,note_on,,,,,4,0,9,,,,,,4,,49,100
21792,note_on,,,,,4,0,3,,,,,,0,,64,100
21792,note_on,,,,,4,0,8,,,,,,4,,64,100
21884,note_off,,,,,92,0,3,,,,,,0,,64,0
21884,note_off,,,,,92,0,8,,,,,,4,,64,0
21884,note_off,,,,,92,0,9,,,,,,4,,49,0
21884,note_off,,,,,92,0,4,,,,,,1,,64,0
21888,note_on,,,,,4,0,3,,,,,,0,,57,100
21888,note_on,,,,,4,0,4,,,,,,1,,57,100
21888,note_on,,,,,4,0,8,,,,,,4,,57,100
21888,note_on,,,,,192,0,6,,,,,,3,,50,100
21888,note_on,,,,,192,0,7,,,,,,3,,38,100
21888,note_on,,,,,4,0,9,,,,,,4,,50,100
21980,note_off,,,,,92,0,9,,,,,,4,,50,0
21984,note_on,,,,,4,0,9,,,,,,4,,53,100
22016,note_off,,,,,128,0,3,,,,,,0,,57,0
22016,note_off,,,,,128,0,4,,,,,,1,,57,0
22076,note_off,,,,,92,0,9,,,,,,4,,53,0
22076,note_off,,,,,380,0,5,,,,,,2,,70,0
22076,note_off,,,,,188,0,8,,,,,,4,,57,0
22080,note_off,,,,,192,0,7,,,,,,3,,38,0
22080,note_on,,,,,4,0,8,,,,,,4,,73,100
22080,note_off,,,,,192,0,6,,,,,,3,,50,0
22080,note_on,,,,,64,0,4,,,,,,1,,73,100
22080,note_on,,,,,64,0,3,,,,,,0,,73,100
22080,note_on,,,,,4,0,9,,,,,,4,,52,100
22080,note_on,,,,,4,0,5,,,,,,2,,67,100
22172,note_off,,,,,92,0,9,,,,,,4,,52,0
22172,note_off,,,,,92,0,5,,,,,,2,,67,0
22176,note_on,,,,,4,0,9,,,,,,4,,50,100
22176,note_on,,,,,4,0,5,,,,,,2,,64,100
22268,note_off,,,,,92,0,9,,,,,,4,,50,0
22268,note_off,,,,,92,0,5,,,,,,2,,64,0
22272,note_on,,,,,4,0,5,,,,,,2,,55,100
22272,note_on,,,,,192,0,6,,,,,,3,,52,100
22272,note_on,,,,,4,0,9,,,,,,4,,52,100
22272,note_on,,,,,192,0,7,,,,,,3,,40,100
22364,note_off,,,,,92,0,9,,,,,,4,,52,0
22368,note_on,,,,,4,0,9,,,,,,4,,53,100
22460,note_off,,,,,188,0,5,,,,,,2,,55,0
22460,note_off,,,,,380,0,3,,,,,,0,,73,0
22460,note_off,,,,,92,0,9,,,,,,4,,53,0
22460,note_off,,,,,380,0,4,,,,,,1,,73,0
22460,note_off,,,,,380,0,8,,,,,,4,,73,0
22464,note_on,,,,,4,0,3,,,,,,0,,70,100
22464,note_off,,,,,192,0,7,,,,,,3,,40,0
22464,note_on,,,,,4,0,9,,,,,,4,,55,100
22464,note_off,,,,,192,0,6,,,,,,3,,52,0
22464,note_on,,,,,4,0,4,,,,,,1,,70,100
22464,note_on,,,,,4,0,5,,,,,,2,,73,100
22464,note_on,,,,,4,0,8,,,,,,4,,70,100
22556,note_off,,,,,92,0,9,,,,,,4,,55,0
22556,note_off,,,,,92,0,3,,,,,,0,,70,0
22556,note_off,,,,,92,0,8,,,,,,4,,70,0
22556,note_off,,,,,92,0,4,,,,,,1,,70,0
22560,note_on,,,,,4,0,3,,,,,,0,,67,100
22560,note_on,,,,,4,0,4,,,,,,1,,67,100
22560,note_on,,,,,4,0,9,,,,,,4,,52,100
22560,note_on,,,,,4,0,8,,,,,,4,,67,100
22652,note_off,,,,,92,0,8,,,,,,4,,67,0
22652,note_off,,,,,92,0,4,,,,,,1,,67,0
22652,note_off,,,,,92,0,3,,,,,,0,,67,0
22652,note_off,,,,,92,0,9,,,,,,4,,52,0
22656,note_on,,,,,192,0,7,,,,,,3,,41,100
22656,note_on,,,,,4,0,9,,,,,,4,,53,100
22656,note_on,,,,,192,0,6,,,,,,3,,53,100
22656,note_on,,,,,4,0,3,,,,,,0,,57,100
22656,note_on,,,,,4,0,4,,,,,,1,,57,100
22656,note_on,,,,,4,0,8,,,,,,4,,57,100
22748,note_off,,,,,92,0,9,,,,,,4,,53,0
22752,note_on,,,,,4,0,9,,,,,,4,,57,100
22784,note_off,,,,,128,0,4,,,,,,1,,57,0
22784,note_off,,,,,128,0,3,,,,,,0,,57,0
22844,note_off,,,,,92,0,9,,,,,,4,,57,0
22844,note_off,,,,,380,0,5,,,,,,2,,73,0
22844,note_off,,,,,188,0,8,,,,,,4,,57,0
22848,note_on,,,,,64,0,3,,,,,,0,,76,100
22848,note_on,,,,,64,0,4,,,,,,1,,76,100
22848,note_off,,,,,192,0,6,,,,,,3,,53,0
22848,note_off,,,,,192,0,7,,,,,,3,,41,0
22848,note_on,,,,,4,0,8,,,,,,4,,76,100
22848,note_on,,,,,4,0,5,,,,,,2,,70,100
22848,note_on,,,,,4,0,9,,,,,,4,,55,100
22940,note_off,,,,,92,0,9,,,,,,4,,55,0
22940,note_off,,,,,92,0,5,,,,,,2,,70,0
22944,note_on,,,,,4,0,9,,,,,,4,,53,100
22944,note_on,,,,,4,0,5,,,,,,2,,67,100
23036,note_off,,,,,92,0,9,,,,,,4,,53,0
23036,note_off,,,,,92,0,5,,,,,,2,,67,0
23040,note_on,,,,,192,0,7,,,,,,3,,43,100
23040,note_on,,,,,192,0,6,,,,,,3,,55,100
23040,note_on,,,,,4,0,5,,,,,,2,,55,100
23040,note_on,,,,,4,0,9,,,,,,4,,55,100
23132,note_off,,,,,92,0,9,,,,,,4,,55,0
23136,note_on,,,,,4,0,9,,,,,,4,,43,100
23228,note_off,,,,,188,0,5,,,,,,2,,55,0
23228,note_off,,,,,380,0,4,,,,,,1,,76,0
23228,note_off,,,,,380,0,8,,,,,,4,,76,0
23228,note_off,,,,,92,0,9,,,,,,4,,43,0
23228,note_off,,,,,380,0,3,,,,,,0,,76,0
23232,note_off,,,,,192,0,7,,,,,,3,,43,0
23232,note_on,,,,,0,0,7,,,,,,3,,43,100
23232,note_on,,,,,4,0,9,,,,,,4,,55,100
23232,note_on,,,,,4,0,3,,,,,,0,,73,100
23232,note_on,,,,,4,0,8,,,,,,4,,73,100
23232,note_on,,,,,4,0,4,,,,,,1,,73,100
23232,note_on,,,,,0,0,6,,,,,,3,,55,100
23232,note_off,,,,,192,0,6,,,,,,3,,55,0
23232,note_on,,,,,4,0,5,,,,,,2,,76,100
23324,note_off,,,,,92,0,3,,,,,,0,,73,0
23324,note_off,,,,,92,0,4,,,,,,1,,73,0
23324,note_off,,,,,92,0,9,,,,,,4,,55,0
23324,note_off,,,,,92,0,8,,,,,,4,,73,0
23328,note_on,,,,,4,0,3,,,,,,0,,69,100
23328,note_on,,,,,4,0,8,,,,,,4,,69,100
23328,note_on,,,,,4,0,4,,,,,,1,,69,100
23328,note_on,,,,,4,0,9,,,,,,4,,53,100
23420,note_off,,,,,92,0,3,,,,,,0,,69,0
23420,note_off,,,,,92,0,4,,,,,,1,,69,0
23420,note_off,,,,,92,0,9,,,,,,4,,53,0
23420,note_off,,,,,92,0,8,,,,,,4,,69,0
23424,note_on,,,,,0,0,6,,,,,,3,,55,100
23424,note_on,,,,,4,0,9,,,,,,4,,55,100
23424,note_on,,,,,4,0,3,,,,,,0,,70,100
23424,note_on,,,,,4,0,8,,,,,,4,,70,100
23424,note_off,,,,,192,0,6,,,,,,3,,55,0
23424,note_on,,,,,4,0,4,,,,,,1,,70,100
23424,note_on,,,,,0,0,7,,,,,,3,,43,100
23424,note_off,,,,,192,0,7,,,,,,3,,43,0
23516,note_off,,,,,92,0,3,,,,,,0,,70,0
23516,note_off,,,,,92,0,8,,,,,,4,,70,0
23516,note_off,,,,,92,0,4,,,,,,1,,70,0
23520,note_on,,,,,4,0,3,,,,,,0,,67,100
23520,note_on,,,,,4,0,8,,,,,,4,,67,100
23520,note_on,,,,,4,0,4,,,,,,1,,67,100
23612,note_off,,,,,92,0,3,,,,,,0,,67,0
23612,note_off,,,,,188,0,9,,,,,,4,,55,0
23612,note_off,,,,,92,0,4,,,,,,1,,67,0
23612,note_off,,,,,380,0,5,,,,,,2,,76,0
23612,note_off,,,,,92,0,8,,,,,,4,,67,0
23616,note_on,,,,,4,0,4,,,,,,1,,69,100
23616,note_on,,,,,4,0,8,,,,,,4,,69,100
23616,note_on,,,,,4,0,5,,,,,,2,,73,100
23616,note_on,,,,,0,0,7,,,,,,3,,43,100
23616,note_off,,,,,192,0,7,,,,,,3,,43,0
23616,note_off,,,,,192,0,6,,,,,,3,,55,0
23616,note_on,,,,,0,0,6,,,,,,3,,55,100
23616,note_on,,,,,4,0,3,,,,,,0,,69,100
23708,note_off,,,,,92,0,3,,,,,,0,,69,0
23708,note_off,,,,,92,0,4,,,,,,1,,69,0
23708,note_off,,,,,92,0,8,,,,,,4,,69,0
23708,note_off,,,,,92,0,5,,,,,,2,,73,0
23712,note_on,,,,,4,0,3,,,,,,0,,65,100
23712,note_on,,,,,4,0,8,,,,,,4,,65,100
23712,note_on,,,,,4,0,5,,,,,,2,,69,100
23712,note_on,,,,,4,0,4,,,,,,1,,65,100
23804,note_off,,,,,92,0,4,,,,,,1,,65,0
23804,note_off,,,,,92,0,3,,,,,,0,,65,0
23804,note_off,,,,,92,0,8,,,,,,4,,65,0
23804,note_off,,,,,92,0,5,,,,,,2,,69,0
23808,note_on,,,,,4,0,4,,,,,,1,,67,100
23808,note_off,,,,,192,0,6,,,,,,3,,55,0
23808,note_on,,,,,4,0,5,,,,,,2,,70,100
23808,note_on,,,,,4,0,8,,,,,,4,,67,100
23808,note_off,,,,,192,0,7,,,,,,3,,43,0
23808,note_on,,,,,0,0,7,,,,,,3,,43,100
23808,note_on,,,,,4,0,3,,,,,,0,,67,100
23808,note_on,,,,,0,0,6,,,,,,3,,55,100
23900,note_off,,,,,92,0,5,,,,,,2,,70,0
23900,note_off,,,,,92,0,4,,,,,,1,,67,0
23900,note_off,,,,,92,0,8,,,,,,4,,67,0
23900,note_off,,,,,92,0,3,,,,,,0,,67,0
23904,note_on,,,,,4,0,3,,,,,,0,,64,100
23904,note_on,,,,,292,0,9,,,,,,4,,43,100
23904,note_on,,,,,4,0,4,,,,,,1,,64,100
23904,note_on,,,,,4,0,8,,,,,,4,,64,100
23904,note_on,,,,,4,0,5,,,,,,2,,67,100
23996,note_off,,,,,92,0,3,,,,,,0,,64,0
23996,note_off,,,,,92,0,9,,,,,,4,,43,0
23996,note_off,,,,,92,0,8,,,,,,4,,64,0
23996,note_off,,,,,92,0,5,,,,,,2,,67,0
23996,note_off,,,,,92,0,4,,,,,,1,,64,0
24000,note_on,,,,,4,0,8,,,,,,4,,65,100
24000,note_on,,,,,0,0,6,,,,,,3,,55,100
24000,note_on,,,,,4,0,9,,,,,,4,,55,100
24000,note_on,,,,,4,0,4,,,,,,1,,65,100
24000,note_off,,,,,192,0,6,,,,,,3,,55,0
24000,note_on,,,,,4,0,5,,,,,,2,,69,100
24000,note_off,,,,,192,0,7,,,,,,3,,43,0
24000,note_on,,,,,0,0,7,,,,,,3,,43,100
24000,note_on,,,,,4,0,3,,,,,,0,,65,100
24092,note_off,,,,,92,0,9,,,,,,4,,55,0
24092,note_off,,,,,92,0,4,,,,,,1,,65,0
24092,note_off,,,,,92,0,8,,,,,,4,,65,0
24092,note_off,,,,,92,0,3,,,,,,0,,65,0
24092,note_off,,,,,92,0,5,,,,,,2,,69,0
24096,note_on,,,,,4,0,9,,,,,,4,,53,100
24096,note_on,,,,,4,0,3,,,,,,0,,62,100
24096,note_on,,,,,4,0,5,,,,,,2,,65,100
24096,note_on,,,,,4,0,8,,,,,,4,,62,100
24096,note_on,,,,,4,0,4,,,,,,1,,62,100
24188,note_off,,,,,92,0,9,,,,,,4,,53,0
24188,note_off,,,,,92,0,8,,,,,,4,,62,0
24188,note_off,,,,,92,0,3,,,,,,0,,62,0
24188,note_off,,,,,92,0,4,,,,,,1,,62,0
24188,note_off,,,,,92,0,5,,,,,,2,,65,0
24192,note_on,,,,,4,0,5,,,,,,2,,67,100
24192,note_off,,,,,192,0,6,,,,,,3,,55,0
24192,note_on,,,,,4,0,8,,,,,,4,,64,100
24192,note_on,,,,,0,0,7,,,,,,3,,43,100
24192,note_on,,,,,0,0,6,,,,,,3,,55,100
24192,note_on,,,,,4,0,4,,,,,,1,,64,100
24192,note_off,,,,,192,0,7,,,,,,3,,43,0
24192,note_on,,,,,4,0,9,,,,,,4,,55,100
24192,note_on,,,,,4,0,3,,,,,,0,,64,100
24284,note_off,,,,,92,0,5,,,,,,2,,67,0
24284,note_off,,,,,92,0,4,,,,,,1,,64,0
24284,note_off,,,,,92,0,8,,,,,,4,,64,0
24284,note_off,,,,,92,0,3,,,,,,0,,64,0
24288,note_on,,,,,4,0,5,,,,,,2,,64,100
24288,note_on,,,,,4,0,8,,,,,,4,,61,100
24288,note_on,,,,,4,0,4,,,,,,1,,61,100
24288,note_on,,,,,4,0,3,,,,,,0,,61,100
24380,note_off,,,,,92,0,8,,,,,,4,,61,0
24380,note_off,,,,,92,0,5,,,,,,2,,64,0
24380,note_off,,,,,92,0,3,,,,,,0,,61,0
24380,note_off,,,,,92,0,4,,,,,,1,,61,0
24380,note_off,,,,,188,0,9,,,,,,4,,55,0
24384,note_off,,,,,192,0,6,,,,,,3,,55,0
24384,note_on,,,,,0,0,6,,,,,,3,,55,100
24384,note_on,,,,,4,0,4,,,,,,1,,62,100
24384,note_off,,,,,192,0,7,,,,,,3,,43,0
24384,note_on,,,,,4,0,5,,,,,,2,,65,100
24384,note_on,,,,,0,0,7,,,,,,3,,43,100
24384,note_on,,,,,4,0,8,,,,,,4,,62,100
24384,note_on,,,,,4,0,3,,,,,,0,,62,100
24476,note_off,,,,,92,0,8,,,,,,4,,62,0
24476,note_off,,,,,92,0,3,,,,,,0,,62,0
24476,note_off,,,,,92,0,4,,,,,,1,,62,0
24480,note_on,,,,,4,0,3,,,,,,0,,59,100
24480,note_on,,,,,4,0,8,,,,,,4,,59,100
24480,note_off,,,,,96,0,5,,,,,,2,,65,0
24480,note_on,,,,,0,0,5,,,,,,2,,62,100
24480,note_on,,,,,4,0,4,,,,,,1,,59,100
24572,note_off,,,,,92,0,4,,,,,,1,,59,0
24572,note_off,,,,,92,0,3,,,,,,0,,59,0
24572,note_off,,,,,92,0,8,,,,,,4,,59,0
24576,note_on,,,,,4,0,8,,,,,,4,,61,100
24576,note_on,,,,,196,0,9,,,,,,4,,52,100
24576,note_on,,,,,4,0,3,,,,,,0,,61,100
24576,note_on,,,,,0,0,9,,,,,,4,,43,100
24576,note_on,,,,,0,0,5,,,,,,2,,69,100
24576,note_off,,,,,192,0,6,,,,,,3,,55,0
24576,note_on,,,,,0,0,6,,,,,,3,,55,100
24576,note_off,,,,,192,0,7,,,,,,3,,43,0
24576,note_off,,,,,96,0,5,,,,,,2,,62,0
24576,note_on,,,,,4,0,4,,,,,,1,,61,100
24576,note_on,,,,,0,0,7,,,,,,3,,43,100
24668,note_off,,,,,92,0,4,,,,,,1,,61,0
24668,note_off,,,,,92,0,8,,,,,,4,,61,0
24668,note_off,,,,,92,0,3,,,,,,0,,61,0
24672,note_on,,,,,4,0,4,,,,,,1,,57,100
24672,note_on,,,,,4,0,3,,,,,,0,,57,100
24672,note_on,,,,,4,0,8,,,,,,4,,57,100
24764,note_off,,,,,92,0,4,,,,,,1,,57,0
24764,note_off,,,,,92,0,8,,,,,,4,,57,0
24764,note_off,,,,,92,0,3,,,,,,0,,57,0
24768,note_on,,,,,4,0,4,,,,,,1,,59,100
24768,note_on,,,,,4,0,3,,,,,,0,,59,100
24768,note_on,,,,,4,0,8,,,,,,4,,59,100
24768,note_off,,,,,192,0,9,,,,,,4,,52,0
24860,note_off,,,,,92,0,9,,,,,,4,,43,0
24860,note_off,,,,,92,0,3,,,,,,0,,59,0
24860,note_off,,,,,92,0,4,,,,,,1,,59,0
24860,note_off,,,,,92,0,8,,,,,,4,,59,0
24864,note_on,,,,,4,0,3,,,,,,0,,61,100
24864,note_on,,,,,4,0,8,,,,,,4,,61,100
24864,note_on,,,,,4,0,4,,,,,,1,,61,100
24864,note_on,,,,,4,0,9,,,,,,4,,45,100
24956,note_off,,,,,92,0,4,,,,,,1,,61,0
24956,note_off,,,,,92,0,3,,,,,,0,,61,0
24956,note_off,,,,,92,0,9,,,,,,4,,45,0
24956,note_off,,,,,380,0,7,,,,,,3,,43,0
24956,note_off,,,,,92,0,8,,,,,,4,,61,0
24956,note_off,,,,,380,0,6,,,,,,3,,55,0
24960,note_on,,,,,4,0,8,,,,,,4,,62,100
24960,note_on,,,,,4,0,3,,,,,,0,,62,100
24960,note_on,,,,,4,0,4,,,,,,1,,62,100
24960,note_on,,,,,4,0,9,,,,,,4,,47,100
25052,note_off,,,,,92,0,8,,,,,,4,,62,0
25052,note_off,,,,,92,0,4,,,,,,1,,62,0
25052,note_off,,,,,92,0,9,,,,,,4,,47,0
25052,note_off,,,,,92,0,3,,,,,,0,,62,0
25056,note_on,,,,,4,0,9,,,,,,4,,49,100
25056,note_on,,,,,4,0,3,,,,,,0,,64,100
25056,note_on,,,,,4,0,4,,,,,,1,,64,100
25056,note_on,,,,,4,0,8,,,,,,4,,64,100
25148,note_off,,,,,92,0,3,,,,,,0,,64,0
25148,note_off,,,,,92,0,8,,,,,,4,,64,0
25148,note_off,,,,,92,0,4,,,,,,1,,64,0
25148,note_off,,,,,92,0,9,,,,,,4,,49,0
25152,note_on,,,,,4,0,8,,,,,,4,,65,100
25152,note_on,,,,,4,0,4,,,,,,1,,65,100
25152,note_on,,,,,4,0,9,,,,,,4,,50,100
25152,note_on,,,,,4,0,3,,,,,,0,,65,100
25244,note_off,,,,,92,0,4,,,,,,1,,65,0
25244,note_off,,,,,92,0,9,,,,,,4,,50,0
25244,note_off,,,,,92,0,3,,,,,,0,,65,0
25244,note_off,,,,,92,0,8,,,,,,4,,65,0
25248,note_on,,,,,4,0,3,,,,,,0,,67,100
25248,note_on,,,,,4,0,4,,,,,,1,,67,100
25248,note_on,,,,,4,0,9,,,,,,4,,52,100
25248,note_on,,,,,4,0,8,,,,,,4,,67,100
25340,note_off,,,,,92,0,9,,,,,,4,,52,0
25340,note_off,,,,,92,0,3,,,,,,0,,67,0
25340,note_off,,,,,92,0,4,,,,,,1,,67,0
25340,note_off,,,,,92,0,8,,,,,,4,,67,0
25344,note_on,,,,,4,0,8,,,,,,4,,69,100
25344,note_on,,,,,388,0,6,,,,,,3,,54,100
25344,note_on,,,,,4,0,9,,,,,,4,,54,100
25344,note_on,,,,,4,0,3,,,,,,0,,69,100
25344,note_on,,,,,4,0,4,,,,,,1,,69,100
25344,note_on,,,,,388,0,7,,,,,,3,,42,100
25436,note_off,,,,,92,0,4,,,,,,1,,69,0
25436,note_off,,,,,92,0,8,,,,,,4,,69,0
25436,note_off,,,,,92,0,6,,,,,,3,,54,0
25436,note_off,,,,,92,0,3,,,,,,0,,69,0
25436,note_off,,,,,92,0,9,,,,,,4,,54,0
25436,note_off,,,,,92,0,7,,,,,,3,,42,0
25440,note_on,,,,,4,0,8,,,,,,4,,70,100
25440,note_on,,,,,4,0,6,,,,,,3,,55,100
25440,note_on,,,,,4,0,3,,,,,,0,,70,100
25440,note_on,,,,,4,0,9,,,,,,4,,55,100
25440,note_on,,,,,4,0,7,,,,,,3,,43,100
25440,note_on,,,,,4,0,4,,,,,,1,,70,100
25532,note_off,,,,,92,0,4,,,,,,1,,70,0
25532,note_off,,,,,92,0,6,,,,,,3,,55,0
25532,note_off,,,,,92,0,7,,,,,,3,,43,0
25532,note_off,,,,,92,0,9,,,,,,4,,55,0
25532,note_off,,,,,92,0,3,,,,,,0,,70,0
25532,note_off,,,,,92,0,8,,,,,,4,,70,0
25536,note_on,,,,,4,0,6,,,,,,3,,57,100
25536,note_on,,,,,4,0,4,,,,,,1,,72,100
25536,note_on,,,,,4,0,8,,,,,,4,,72,100
25536,note_on,,,,,4,0,9,,,,,,4,,57,100
25536,note_on,,,,,4,0,3,,,,,,0,,72,100
25536,note_on,,,,,4,0,7,,,,,,3,,45,100
25664,note_off,,,,,128,0,4,,,,,,1,,72,0
25664,note_off,,,,,128,0,8,,,,,,4,,72,0
25664,note_off,,,,,128,0,9,,,,,,4,,57,0
25664,note_off,,,,,128,0,6,,,,,,3,,57,0
25664,note_off,,,,,128,0,7,,,,,,3,,45,0
25664,note_off,,,,,128,0,3,,,,,,0,,72,0
25728,note_on,,,,,64,0,4,,,,,,1,,72,100
25728,note_on,,,,,64,0,6,,,,,,3,,57,100
25728,note_on,,,,,64,0,9,,,,,,4,,57,100
25728,note_on,,,,,64,0,7,,,,,,3,,45,100
25728,note_on,,,,,64,0,3,,,,,,0,,72,100
25728,note_on,,,,,64,0,8,,,,,,4,,72,100
25820,note_off,,,,,92,0,8,,,,,,4,,72,0
25820,note_off,,,,,92,0,4,,,,,,1,,72,0
25820,note_off,,,,,92,0,3,,,,,,0,,72,0
25820,note_off,,,,,92,0,9,,,,,,4,,57,0
25820,note_off,,,,,92,0,6,,,,,,3,,57,0
25820,note_off,,,,,92,0,7,,,,,,3,,45,0
25824,note_on,,,,,4,0,7,,,,,,3,,46,100
25824,note_on,,,,,4,0,6,,,,,,3,,58,100
25824,note_on,,,,,4,0,4,,,,,,1,,74,100
25824,note_on,,,,,4,0,9,,,,,,4,,58,100
25824,note_on,,,,,4,0,8,,,,,,4,,74,100
25824,note_on,,,,,4,0,3,,,,,,0,,74,100
25916,note_off,,,,,92,0,8,,,,,,4,,74,0
25916,note_off,,,,,92,0,7,,,,,,3,,46,0
25916,note_off,,,,,92,0,6,,,,,,3,,58,0
25916,note_off,,,,,92,0,9,,,,,,4,,58,0
25916,note_off,,,,,92,0,4,,,,,,1,,74,0
25916,note_off,,,,,92,0,3,,,,,,0,,74,0
25920,note_on,,,,,4,0,4,,,,,,1,,75,100
25920,note_on,,,,,4,0,3,,,,,,0,,75,100
25920,note_on,,,,,4,0,8,,,,,,4,,75,100
25920,note_on,,,,,4,0,6,,,,,,3,,60,100
25920,note_on,,,,,4,0,7,,,,,,3,,48,100
25920,note_on,,,,,4,0,9,,,,,,4,,60,100
26048,note_off,,,,,128,0,3,,,,,,0,,75,0
26048,note_off,,,,,128,0,7,,,,,,3,,48,0
26048,note_off,,,,,128,0,4,,,,,,1,,75,0
26048,note_off,,,,,128,0,9,,,,,,4,,60,0
26048,note_off,,,,,128,0,6,,,,,,3,,60,0
26048,note_off,,,,,128,0,8,,,,,,4,,75,0
26112,note_on,,,,,64,0,4,,,,,,1,,66,100
26112,note_on,,,,,64,0,6,,,,,,3,,60,100
26112,note_on,,,,,64,0,8,,,,,,4,,62,100
26112,note_on,,,,,64,0,3,,,,,,0,,66,100
26112,note_on,,,,,0,0,8,,,,,,4,,66,100
26112,note_on,,,,,64,0,9,,,,,,4,,60,100
26112,note_on,,,,,64,0,7,,,,,,3,,48,100
26300,note_off,,,,,188,0,8,,,,,,4,,66,0
26300,note_off,,,,,188,0,6,,,,,,3,,60,0
26300,note_off,,,,,188,0,9,,,,,,4,,60,0
26300,note_off,,,,,188,0,7,,,,,,3,,48,0
26300,note_off,,,,,188,0,4,,,,,,1,,66,0
26300,note_off,,,,,188,0,3,,,,,,0,,66,0
26300,note_off,,,,,1724,0,5,,,,,,2,,69,0
26304,note_on,,,,,4,0,8,,,,,,4,,67,100
26304,note_on,,,,,4,0,6,,,,,,3,,59,100
26304,note_on,,,,,4,0,4,,,,,,1,,67,100
26304,note_on,,,,,4,0,7,,,,,,3,,47,100
26304,note_on,,,,,4,0,5,,,,,,2,,62,100
26304,note_on,,,,,4,0,9,,,,,,4,,59,100
26304,note_on,,,,,4,0,3,,,,,,0,,67,100
26432,note_off,,,,,128,0,7,,,,,,3,,47,0
26432,note_off,,,,,128,0,6,,,,,,3,,59,0
26492,note_off,,,,,0,0,8,,,,,,4,,67,0
26492,note_off,,,,,188,0,8,,,,,,4,,62,0
26492,note_off,,,,,188,0,4,,,,,,1,,67,0
26492,note_off,,,,,188,0,3,,,,,,0,,67,0
26492,note_off,,,,,188,0,5,,,,,,2,,62,0
26492,note_off,,,,,188,0,9,,,,,,4,,59,0
26496,note_on,,,,,64,0,6,,,,,,3,,58,100
26496,note_on,,,,,64,0,7,,,,,,3,,46,100
26496,note_on,,,,,4,0,8,,,,,,4,,64,100
26496,note_on,,,,,0,0,8,,,,,,4,,73,100
26496,note_on,,,,,4,0,9,,,,,,4,,58,100
26624,note_off,,,,,128,0,9,,,,,,4,,58,0
26624,note_off,,,,,0,0,8,,,,,,4,,73,0
26624,note_off,,,,,128,0,8,,,,,,4,,64,0
26684,note_off,,,,,188,0,6,,,,,,3,,58,0
26684,note_off,,,,,188,0,7,,,,,,3,,46,0
26688,note_on,,,,,4,0,6,,,,,,3,,57,100
26688,note_on,,,,,64,0,9,,,,,,4,,57,100
26688,note_on,,,,,4,0,7,,,,,,3,,45,100
26688,note_on,,,,,0,0,8,,,,,,4,,74,100
26688,note_on,,,,,64,0,8,,,,,,4,,65,100
26816,note_off,,,,,128,0,9,,,,,,4,,57,0
26816,note_off,,,,,0,0,8,,,,,,4,,74,0
26816,note_off,,,,,128,0,7,,,,,,3,,45,0
26816,note_off,,,,,128,0,6,,,,,,3,,57,0
26816,note_off,,,,,128,0,8,,,,,,4,,65,0
26880,note_on,,,,,64,0,9,,,,,,4,,57,100
26880,note_on,,,,,388,0,3,,,,,,0,,64,100
26880,note_on,,,,,64,0,7,,,,,,3,,45,100
26880,note_on,,,,,388,0,4,,,,,,1,,64,100
26880,note_on,,,,,64,0,8,,,,,,4,,64,100
26880,note_on,,,,,0,0,8,,,,,,4,,61,100
26880,note_on,,,,,388,0,5,,,,,,2,,61,100
26880,note_on,,,,,64,0,6,,,,,,3,,57,100
27068,note_off,,,,,0,0,8,,,,,,4,,61,0
27068,note_off,,,,,188,0,7,,,,,,3,,45,0
27068,note_off,,,,,188,0,3,,,,,,0,,64,0
27068,note_off,,,,,188,0,8,,,,,,4,,64,0
27068,note_off,,,,,188,0,5,,,,,,2,,61,0
27068,note_off,,,,,188,0,6,,,,,,3,,57,0
27068,note_off,,,,,188,0,4,,,,,,1,,64,0
27068,note_off,,,,,188,0,9,,,,,,4,,57,0
27072,note_on,,,,,4,0,8,,,,,,4,,62,100
27072,note_on,,,,,0,0,8,,,,,,4,,65,100
27072,note_on,,,,,4,0,5,,,,,,2,,62,100
27072,note_on,,,,,4,0,4,,,,,,1,,65,100
27072,note_on,,,,,4,0,9,,,,,,4,,56,100
27072,note_on,,,,,4,0,3,,,,,,0,,65,100
27072,note_on,,,,,4,0,7,,,,,,3,,44,100
27072,note_on,,,,,4,0,6,,,,,,3,,56,100
27200,note_off,,,,,128,0,7,,,,,,3,,44,0
27200,note_off,,,,,128,0,6,,,,,,3,,56,0
27260,note_off,,,,,0,0,8,,,,,,4,,65,0
27260,note_off,,,,,188,0,8,,,,,,4,,62,0
27260,note_off,,,,,188,0,9,,,,,,4,,56,0
27260,note_off,,,,,188,0,5,,,,,,2,,62,0
27260,note_off,,,,,188,0,4,,,,,,1,,65,0
27260,note_off,,,,,188,0,3,,,,,,0,,65,0
27264,note_on,,,,,64,0,6,,,,,,3,,55,100
27264,note_on,,,,,4,0,8,,,,,,4,,64,100
27264,note_on,,,,,0,0,8,,,,,,4,,73,100
27264,note_on,,,,,64,0,7,,,,,,3,,43,100
27264,note_on,,,,,4,0,9,,,,,,4,,55,100
27392,note_off,,,,,128,0,8,,,,,,4,,64,0
27392,note_off,,,,,0,0,8,,,,,,4,,73,0
27392,note_off,,,,,128,0,9,,,,,,4,,55,0
27452,note_off,,,,,188,0,7,,,,,,3,,43,0
27452,note_off,,,,,188,0,6,,,,,,3,,55,0
27456,note_on,,,,,4,0,7,,,,,,3,,41,100
27456,note_on,,,,,0,0,8,,,,,,4,,74,100
27456,note_on,,,,,64,0,8,,,,,,4,,65,100
27456,note_on,,,,,64,0,9,,,,,,4,,53,100
27456,note_on,,,,,4,0,6,,,,,,3,,53,100
27584,note_off,,,,,0,0,8,,,,,,4,,74,0
27584,note_off,,,,,128,0,9,,,,,,4,,53,0
27584,note_off,,,,,128,0,6,,,,,,3,,53,0
27584,note_off,,,,,128,0,8,,,,,,4,,65,0
27584,note_off,,,,,128,0,7,,,,,,3,,41,0
27632,note_on,,,,,48,0,8,,,,,,4,,74,100
27648,note_on,,,,,0,0,9,,,,,,4,,44,100
27648,note_on,,,,,64,0,9,,,,,,4,,50,100
27648,note_on,,,,,64,0,7,,,,,,3,,32,100
27648,note_on,,,,,388,0,3,,,,,,0,,77,100
27648,note_on,,,,,388,0,5,,,,,,2,,71,100
27648,note_on,,,,,388,0,4,,,,,,1,,74,100
27648,note_on,,,,,64,0,6,,,,,,3,,44,100
27648,note_on,,,,,16,0,8,,,,,,4,,71,100
27656,note_on,,,,,8,0,8,,,,,,4,,76,100
27660,note_off,,,,,4,0,8,,,,,,4,,74,0
27672,note_on,,,,,12,0,8,,,,,,4,,77,100
27684,note_off,,,,,12,0,8,,,,,,4,,76,0
27836,note_off,,,,,188,0,7,,,,,,3,,32,0
27836,note_off,,,,,0,0,9,,,,,,4,,44,0
27836,note_off,,,,,188,0,9,,,,,,4,,50,0
27836,note_off,,,,,188,0,6,,,,,,3,,44,0
27840,note_on,,,,,4,0,7,,,,,,3,,33,100
27840,note_on,,,,,4,0,6,,,,,,3,,45,100
27840,note_on,,,,,4,0,9,,,,,,4,,45,100
27936,note_on,,,,,252,0,8,,,,,,4,,76,100
27956,note_off,,,,,20,0,8,,,,,,4,,77,0
28028,note_off,,,,,0,0,8,,,,,,4,,76,0
28028,note_off,,,,,72,0,8,,,,,,4,,71,0
28028,note_off,,,,,380,0,4,,,,,,1,,74,0
28028,note_off,,,,,188,0,9,,,,,,4,,45,0
28028,note_off,,,,,188,0,7,,,,,,3,,33,0
28028,note_off,,,,,380,0,5,,,,,,2,,71,0
28028,note_off,,,,,188,0,6,,,,,,3,,45,0
28028,note_off,,,,,380,0,3,,,,,,0,,77,0
28032,note_on,,,,,4,0,8,,,,,,4,,74,100
28032,note_on,,,,,4,0,9,,,,,,4,,45,100
28032,note_on,,,,,0,0,9,,,,,,4,,53,100
28032,note_on,,,,,4,0,6,,,,,,3,,45,100
28032,note_on,,,,,4,0,7,,,,,,3,,33,100
28124,note_off,,,,,92,0,8,,,,,,4,,74,0
28128,note_on,,,,,4,0,8,,,,,,4,,72,100
28220,note_off,,,,,188,0,7,,,,,,3,,33,0
28220,note_off,,,,,92,0,8,,,,,,4,,72,0
28220,note_off,,,,,0,0,9,,,,,,4,,53,0
28220,note_off,,,,,188,0,6,,,,,,3,,45,0
28220,note_off,,,,,188,0,9,,,,,,4,,45,0
28224,note_on,,,,,4,0,7,,,,,,3,,35,100
28224,note_on,,,,,4,0,6,,,,,,3,,47,100
28224,note_on,,,,,4,0,9,,,,,,4,,47,100
28224,note_on,,,,,4,0,8,,,,,,4,,71,100
28316,note_off,,,,,92,0,8,,,,,,4,,71,0
28320,note_on,,,,,4,0,8,,,,,,4,,69,100
28404,note_on,,,,,84,0,8,,,,,,4,,71,100
28412,note_off,,,,,8,0,8,,,,,,4,,69,0
28412,note_off,,,,,188,0,6,,,,,,3,,47,0
28412,note_off,,,,,188,0,9,,,,,,4,,47,0
28412,note_off,,,,,188,0,7,,,,,,3,,35,0
28416,note_on,,,,,4,0,9,,,,,,4,,56,100
28416,note_on,,,,,0,0,9,,,,,,4,,47,100
28416,note_on,,,,,388,0,4,,,,,,1,,65,100
28416,note_on,,,,,388,0,5,,,,,,2,,68,100
28416,note_on,,,,,388,0,3,,,,,,0,,74,100
28416,note_on,,,,,4,0,6,,,,,,3,,47,100
28416,note_on,,,,,4,0,7,,,,,,3,,35,100
28428,note_on,,,,,16,0,8,,,,,,4,,72,100
28432,note_off,,,,,4,0,8,,,,,,4,,71,0
28448,note_on,,,,,16,0,8,,,,,,4,,74,100
28456,note_off,,,,,8,0,8,,,,,,4,,72,0
28604,note_off,,,,,188,0,7,,,,,,3,,35,0
28604,note_off,,,,,0,0,9,,,,,,4,,47,0
28604,note_off,,,,,188,0,9,,,,,,4,,56,0
28604,note_off,,,,,188,0,6,,,,,,3,,47,0
28608,note_on,,,,,4,0,7,,,,,,3,,36,100
28608,note_on,,,,,4,0,6,,,,,,3,,48,100
28608,note_on,,,,,4,0,9,,,,,,4,,48,100
28704,note_on,,,,,248,0,8,,,,,,4,,72,100
28732,note_off,,,,,28,0,8,,,,,,4,,74,0
28796,note_off,,,,,188,0,9,,,,,,4,,48,0
28796,note_off,,,,,64,0,8,,,,,,4,,72,0
28796,note_off,,,,,188,0,6,,,,,,3,,48,0
28796,note_off,,,,,188,0,7,,,,,,3,,36,0
28796,note_off,,,,,380,0,5,,,,,,2,,68,0
28796,note_off,,,,,380,0,3,,,,,,0,,74,0
28796,note_off,,,,,380,0,4,,,,,,1,,65,0
28800,note_on,,,,,4,0,9,,,,,,4,,52,100
28800,note_on,,,,,0,0,9,,,,,,4,,48,100
28800,note_on,,,,,4,0,6,,,,,,3,,48,100
28800,note_on,,,,,4,0,8,,,,,,4,,71,100
28800,note_on,,,,,4,0,7,,,,,,3,,36,100
28892,note_off,,,,,92,0,8,,,,,,4,,71,0
28896,note_on,,,,,4,0,8,,,,,,4,,69,100
28988,note_off,,,,,188,0,7,,,,,,3,,36,0
28988,note_off,,,,,0,0,9,,,,,,4,,48,0
28988,note_off,,,,,188,0,9,,,,,,4,,52,0
28988,note_off,,,,,92,0,8,,,,,,4,,69,0
28988,note_off,,,,,188,0,6,,,,,,3,,48,0
28992,note_on,,,,,4,0,8,,,,,,4,,68,100
28992,note_on,,,,,4,0,6,,,,,,3,,50,100
28992,note_on,,,,,4,0,7,,,,,,3,,38,100
28992,note_on,,,,,4,0,9,,,,,,4,,50,100
29084,note_off,,,,,92,0,8,,,,,,4,,68,0
29088,note_on,,,,,4,0,8,,,,,,4,,66,100
29180,note_off,,,,,188,0,6,,,,,,3,,50,0
29180,note_off,,,,,92,0,8,,,,,,4,,66,0
29180,note_off,,,,,188,0,7,,,,,,3,,38,0
29180,note_off,,,,,188,0,9,,,,,,4,,50,0
29184,note_on,,,,,388,0,4,,,,,,1,,59,100
29184,note_on,,,,,4,0,7,,,,,,3,,38,100
29184,note_on,,,,,4,0,6,,,,,,3,,50,100
29184,note_on,,,,,388,0,5,,,,,,2,,56,100
29184,note_on,,,,,388,0,3,,,,,,0,,64,100
29184,note_on,,,,,4,0,9,,,,,,4,,56,100
29184,note_on,,,,,0,0,9,,,,,,4,,50,100
29184,note_on,,,,,0,0,9,,,,,,4,,59,100
29184,note_on,,,,,4,0,8,,,,,,4,,64,100
29276,note_off,,,,,92,0,5,,,,,,2,,56,0
29276,note_off,,,,,92,0,4,,,,,,1,,59,0
29280,note_on,,,,,4,0,5,,,,,,2,,76,100
29280,note_on,,,,,4,0,4,,,,,,1,,64,100
29372,note_off,,,,,92,0,5,,,,,,2,,76,0
29372,note_off,,,,,92,0,4,,,,,,1,,64,0
29372,note_off,,,,,188,0,8,,,,,,4,,64,0
29372,note_off,,,,,188,0,3,,,,,,0,,64,0
29376,note_on,,,,,4,0,5,,,,,,2,,74,100
29376,note_on,,,,,4,0,3,,,,,,0,,66,100
29376,note_on,,,,,4,0,4,,,,,,1,,66,100
29376,note_on,,,,,4,0,8,,,,,,4,,66,100
29468,note_off,,,,,92,0,8,,,,,,4,,66,0
29468,note_off,,,,,92,0,4,,,,,,1,,66,0
29468,note_off,,,,,92,0,5,,,,,,2,,74,0
29468,note_off,,,,,92,0,3,,,,,,0,,66,0
29472,note_on,,,,,4,0,3,,,,,,0,,68,100
29472,note_on,,,,,4,0,4,,,,,,1,,68,100
29472,note_on,,,,,4,0,5,,,,,,2,,72,100
29472,note_on,,,,,4,0,8,,,,,,4,,68,100
29564,note_off,,,,,92,0,4,,,,,,1,,68,0
29564,note_off,,,,,92,0,5,,,,,,2,,72,0
29564,note_off,,,,,380,0,6,,,,,,3,,50,0
29564,note_off,,,,,380,0,9,,,,,,4,,56,0
29564,note_off,,,,,0,0,9,,,,,,4,,59,0
29564,note_off,,,,,92,0,8,,,,,,4,,68,0
29564,note_off,,,,,380,0,7,,,,,,3,,38,0
29564,note_off,,,,,92,0,3,,,,,,0,,68,0
29564,note_off,,,,,0,0,9,,,,,,4,,50,0
29568,note_on,,,,,4,0,5,,,,,,2,,71,100
29568,note_on,,,,,4,0,3,,,,,,0,,69,100
29568,note_on,,,,,4,0,4,,,,,,1,,69,100
29568,note_on,,,,,4,0,8,,,,,,4,,69,100
29660,note_off,,,,,92,0,8,,,,,,4,,69,0
29660,note_off,,,,,92,0,3,,,,,,0,,69,0
29660,note_off,,,,,92,0,5,,,,,,2,,71,0
29660,note_off,,,,,92,0,4,,,,,,1,,69,0
29664,note_on,,,,,4,0,5,,,,,,2,,69,100
29664,note_on,,,,,4,0,8,,,,,,4,,71,100
29664,note_on,,,,,4,0,4,,,,,,1,,71,100
29664,note_on,,,,,4,0,3,,,,,,0,,71,100
29756,note_off,,,,,92,0,3,,,,,,0,,71,0
29756,note_off,,,,,92,0,5,,,,,,2,,69,0
29756,note_off,,,,,92,0,8,,,,,,4,,71,0
29756,note_off,,,,,92,0,4,,,,,,1,,71,0
29760,note_on,,,,,4,0,4,,,,,,1,,72,100
29760,note_on,,,,,4,0,8,,,,,,4,,72,100
29760,note_on,,,,,4,0,5,,,,,,2,,68,100
29760,note_on,,,,,4,0,3,,,,,,0,,72,100
29852,note_off,,,,,92,0,8,,,,,,4,,72,0
29852,note_off,,,,,92,0,5,,,,,,2,,68,0
29852,note_off,,,,,92,0,3,,,,,,0,,72,0
29852,note_off,,,,,92,0,4,,,,,,1,,72,0
29856,note_on,,,,,4,0,5,,,,,,2,,66,100
29856,note_on,,,,,4,0,8,,,,,,4,,74,100
29856,note_on,,,,,4,0,3,,,,,,0,,74,100
29856,note_on,,,,,4,0,4,,,,,,1,,74,100
29948,note_off,,,,,92,0,5,,,,,,2,,66,0
29948,note_off,,,,,92,0,3,,,,,,0,,74,0
29948,note_off,,,,,92,0,8,,,,,,4,,74,0
29948,note_off,,,,,92,0,4,,,,,,1,,74,0
29952,note_on,,,,,4,0,3,,,,,,0,,76,100
29952,note_on,,,,,388,0,6,,,,,,3,,49,100
29952,note_on,,,,,0,0,9,,,,,,4,,49,100
29952,note_on,,,,,0,0,9,,,,,,4,,52,100
29952,note_on,,,,,4,0,4,,,,,,1,,76,100
29952,note_on,,,,,388,0,7,,,,,,3,,37,100
29952,note_on,,,,,4,0,8,,,,,,4,,76,100
29952,note_on,,,,,388,0,9,,,,,,4,,57,100
29952,note_on,,,,,4,0,5,,,,,,2,,64,100
30044,note_off,,,,,92,0,6,,,,,,3,,49,0
30044,note_off,,,,,92,0,9,,,,,,4,,49,0
30044,note_off,,,,,92,0,8,,,,,,4,,76,0
30044,note_off,,,,,92,0,4,,,,,,1,,76,0
30044,note_off,,,,,92,0,3,,,,,,0,,76,0
30044,note_off,,,,,92,0,7,,,,,,3,,37,0
30048,note_on,,,,,4,0,9,,,,,,4,,50,100
30048,note_on,,,,,4,0,3,,,,,,0,,77,100
30048,note_on,,,,,4,0,6,,,,,,3,,50,100
30048,note_on,,,,,4,0,4,,,,,,1,,77,100
30048,note_on,,,,,4,0,7,,,,,,3,,38,100
30048,note_on,,,,,4,0,8,,,,,,4,,77,100
30140,note_off,,,,,92,0,6,,,,,,3,,50,0
30140,note_off,,,,,92,0,3,,,,,,0,,77,0
30140,note_off,,,,,92,0,9,,,,,,4,,57,0
30140,note_off,,,,,0,0,9,,,,,,4,,52,0
30140,note_off,,,,,0,0,9,,,,,,4,,50,0
30140,note_off,,,,,92,0,7,,,,,,3,,38,0
30140,note_off,,,,,92,0,4,,,,,,1,,77,0
30140,note_off,,,,,92,0,8,,,,,,4,,77,0
30144,note_on,,,,,4,0,4,,,,,,1,,79,100
30144,note_on,,,,,4,0,3,,,,,,0,,79,100
30144,note_on,,,,,4,0,6,,,,,,3,,52,100
30144,note_on,,,,,4,0,8,,,,,,4,,79,100
30144,note_on,,,,,4,0,9,,,,,,4,,52,100
30144,note_on,,,,,4,0,7,,,,,,3,,40,100
30272,note_off,,,,,128,0,8,,,,,,4,,79,0
30272,note_off,,,,,128,0,7,,,,,,3,,40,0
30272,note_off,,,,,128,0,6,,,,,,3,,52,0
30272,note_off,,,,,128,0,9,,,,,,4,,52,0
30272,note_off,,,,,128,0,3,,,,,,0,,79,0
30272,note_off,,,,,128,0,4,,,,,,1,,79,0
30336,note_on,,,,,64,0,8,,,,,,4,,79,100
30336,note_on,,,,,64,0,3,,,,,,0,,79,100
30336,note_on,,,,,64,0,9,,,,,,4,,52,100
30336,note_on,,,,,64,0,6,,,,,,3,,52,100
30336,note_on,,,,,64,0,7,,,,,,3,,40,100
30336,note_on,,,,,64,0,4,,,,,,1,,79,100
30428,note_off,,,,,92,0,7,,,,,,3,,40,0
30428,note_off,,,,,92,0,3,,,,,,0,,79,0
30428,note_off,,,,,92,0,9,,,,,,4,,52,0
30428,note_off,,,,,92,0,8,,,,,,4,,79,0
30428,note_off,,,,,92,0,6,,,,,,3,,52,0
30428,note_off,,,,,92,0,4,,,,,,1,,79,0
30432,note_on,,,,,4,0,9,,,,,,4,,53,100
30432,note_on,,,,,4,0,8,,,,,,4,,81,100
30432,note_on,,,,,4,0,6,,,,,,3,,53,100
30432,note_on,,,,,4,0,3,,,,,,0,,81,100
30432,note_on,,,,,4,0,7,,,,,,3,,41,100
30432,note_on,,,,,4,0,4,,,,,,1,,81,100
30524,note_off,,,,,92,0,9,,,,,,4,,53,0
30524,note_off,,,,,92,0,6,,,,,,3,,53,0
30524,note_off,,,,,92,0,3,,,,,,0,,81,0
30524,note_off,,,,,92,0,7,,,,,,3,,41,0
30524,note_off,,,,,92,0,4,,,,,,1,,81,0
30524,note_off,,,,,92,0,8,,,,,,4,,81,0
30528,note_on,,,,,4,0,4,,,,,,1,,82,100
30528,note_on,,,,,4,0,8,,,,,,4,,82,100
30528,note_on,,,,,4,0,3,,,,,,0,,82,100
30528,note_on,,,,,4,0,9,,,,,,4,,55,100
30528,note_on,,,,,4,0,7,,,,,,3,,43,100
30528,note_on,,,,,4,0,6,,,,,,3,,55,100
30656,note_off,,,,,128,0,9,,,,,,4,,55,0
30656,note_off,,,,,128,0,4,,,,,,1,,82,0
30656,note_off,,,,,128,0,8,,,,,,4,,82,0
30656,note_off,,,,,128,0,7,,,,,,3,,43,0
30656,note_off,,,,,128,0,6,,,,,,3,,55,0
30656,note_off,,,,,128,0,3,,,,,,0,,82,0
30720,note_on,,,,,64,0,9,,,,,,4,,55,100
30720,note_on,,,,,64,0,4,,,,,,1,,73,100
30720,note_on,,,,,64,0,6,,,,,,3,,55,100
30720,note_on,,,,,0,0,8,,,,,,4,,73,100
30720,note_on,,,,,64,0,8,,,,,,4,,64,100
30720,note_on,,,,,64,0,3,,,,,,0,,73,100
30720,note_on,,,,,64,0,7,,,,,,3,,43,100
30720,note_on,,,,,0,0,9,,,,,,4,,58,100
30828,note_off,,,,,108,0,3,,,,,,0,,73,0
30828,note_off,,,,,108,0,8,,,,,,4,,64,0
30828,note_off,,,,,0,0,8,,,,,,4,,73,0
30828,note_off,,,,,0,0,9,,,,,,4,,58,0
30828,note_off,,,,,108,0,4,,,,,,1,,73,0
30828,note_off,,,,,108,0,9,,,,,,4,,55,0
30908,note_off,,,,,188,0,7,,,,,,3,,43,0
30908,note_off,,,,,188,0,6,,,,,,3,,55,0
30908,note_off,,,,,956,0,5,,,,,,2,,64,0
30912,note_on,,,,,4,0,7,,,,,,3,,41,100
30912,note_on,,,,,0,0,9,,,,,,4,,57,100
30912,note_on,,,,,4,0,6,,,,,,3,,53,100
30912,note_on,,,,,84,0,9,,,,,,4,,53,100
30912,note_on,,,,,84,0,4,,,,,,1,,74,100
30912,note_on,,,,,84,0,3,,,,,,0,,74,100
30912,note_on,,,,,4,0,5,,,,,,2,,65,100
30912,note_on,,,,,84,0,8,,,,,,4,,65,100
30912,note_on,,,,,0,0,8,,,,,,4,,74,100
31020,note_off,,,,,108,0,4,,,,,,1,,74,0
31020,note_off,,,,,0,0,9,,,,,,4,,57,0
31020,note_off,,,,,108,0,6,,,,,,3,,53,0
31020,note_off,,,,,108,0,5,,,,,,2,,65,0
31020,note_off,,,,,108,0,3,,,,,,0,,74,0
31020,note_off,,,,,108,0,8,,,,,,4,,65,0
31020,note_off,,,,,0,0,8,,,,,,4,,74,0
31020,note_off,,,,,108,0,7,,,,,,3,,41,0
31020,note_off,,,,,108,0,9,,,,,,4,,53,0
31104,note_on,,,,,84,0,6,,,,,,3,,53,100
31104,note_on,,,,,84,0,9,,,,,,4,,53,100
31104,note_on,,,,,0,0,9,,,,,,4,,59,100
31104,note_on,,,,,84,0,7,,,,,,3,,41,100
31104,note_on,,,,,84,0,4,,,,,,1,,68,100
31104,note_on,,,,,84,0,5,,,,,,2,,59,100
31104,note_on,,,,,84,0,8,,,,,,4,,62,100
31104,note_on,,,,,84,0,3,,,,,,0,,68,100
31104,note_on,,,,,0,0,8,,,,,,4,,68,100
31212,note_off,,,,,108,0,4,,,,,,1,,68,0
31212,note_off,,,,,108,0,3,,,,,,0,,68,0
31212,note_off,,,,,108,0,9,,,,,,4,,53,0
31212,note_off,,,,,0,0,8,,,,,,4,,68,0
31212,note_off,,,,,108,0,5,,,,,,2,,59,0
31212,note_off,,,,,0,0,9,,,,,,4,,59,0
31212,note_off,,,,,108,0,8,,,,,,4,,62,0
31292,note_off,,,,,188,0,7,,,,,,3,,41,0
31292,note_off,,,,,188,0,6,,,,,,3,,53,0
31296,note_on,,,,,84,0,9,,,,,,4,,52,100
31296,note_on,,,,,84,0,3,,,,,,0,,69,100
31296,note_on,,,,,84,0,5,,,,,,2,,60,100
31296,note_on,,,,,0,0,9,,,,,,4,,60,100
31296,note_on,,,,,4,0,7,,,,,,3,,40,100
31296,note_on,,,,,84,0,4,,,,,,1,,69,100
31296,note_on,,,,,84,0,8,,,,,,4,,64,100
31296,note_on,,,,,0,0,8,,,,,,4,,69,100
31296,note_on,,,,,4,0,6,,,,,,3,,52,100
31404,note_off,,,,,108,0,5,,,,,,2,,60,0
31404,note_off,,,,,108,0,7,,,,,,3,,40,0
31404,note_off,,,,,108,0,8,,,,,,4,,64,0
31404,note_off,,,,,0,0,8,,,,,,4,,69,0
31404,note_off,,,,,108,0,9,,,,,,4,,52,0
31404,note_off,,,,,108,0,6,,,,,,3,,52,0
31404,note_off,,,,,108,0,3,,,,,,0,,69,0
31404,note_off,,,,,108,0,4,,,,,,1,,69,0
31404,note_off,,,,,0,0,9,,,,,,4,,60,0
31488,note_on,,,,,84,0,3,,,,,,0,,63,100
31488,note_on,,,,,84,0,5,,,,,,2,,51,100
31488,note_on,,,,,84,0,8,,,,,,4,,63,100
31488,note_on,,,,,84,0,4,,,,,,1,,63,100
31488,note_on,,,,,84,0,6,,,,,,3,,51,100
31488,note_on,,,,,84,0,7,,,,,,3,,39,100
31488,note_on,,,,,84,0,9,,,,,,4,,51,100
31676,note_off,,,,,188,0,5,,,,,,2,,51,0
31676,note_off,,,,,188,0,8,,,,,,4,,63,0
31676,note_off,,,,,188,0,9,,,,,,4,,51,0
31676,note_off,,,,,188,0,3,,,,,,0,,63,0
31680,note_off,,,,,192,0,7,,,,,,3,,39,0
31680,note_off,,,,,192,0,4,,,,,,1,,63,0
31680,note_off,,,,,192,0,6,,,,,,3,,51,0
31872,note_on,,,,,196,0,3,,,,,,0,,64,100
31872,note_on,,,,,196,0,5,,,,,,2,,52,100
31872,note_on,,,,,192,0,6,,,,,,3,,52,100
31872,note_on,,,,,196,0,9,,,,,,4,,52,100
31872,note_on,,,,,196,0,8,,,,,,4,,64,100
31872,note_on,,,,,192,0,7,,,,,,3,,40,100
31872,note_on,,,,,192,0,4,,,,,,1,,64,100
32060,note_off,,,,,188,0,5,,,,,,2,,52,0
32060,note_off,,,,,188,0,9,,,,,,4,,52,0
32060,note_off,,,,,188,0,3,,,,,,0,,64,0
32060,note_off,,,,,188,0,8,,,,,,4,,64,0
32064,note_off,,,,,192,0,7,,,,,,3,,40,0
32064,note_off,,,,,192,0,6,,,,,,3,,52,0
32064,note_off,,,,,192,0,4,,,,,,1,,64,0
32256,note_on,,,,,196,0,9,,,,,,4,,45,100
32256,note_on,,,,,192,0,7,,,,,,3,,33,100
32256,note_on,,,,,196,0,8,,,,,,4,,57,100
32256,note_on,,,,,196,0,3,,,,,,0,,57,100
32256,note_on,,,,,192,0,6,,,,,,3,,45,100
32256,note_on,,,,,196,0,5,,,,,,2,,57,100
32256,note_on,,,,,192,0,4,,,,,,1,,57,100
32300,note_off,,,,,44,0,8,,,,,,4,,57,0
32304,note_on,,,,,4,0,8,,,,,,4,,59,100
32348,note_off,,,,,44,0,8,,,,,,4,,59,0
32352,note_on,,,,,4,0,8,,,,,,4,,60,100
32396,note_off,,,,,44,0,8,,,,,,4,,60,0
32400,note_on,,,,,4,0,8,,,,,,4,,62,100
32444,note_off,,,,,188,0,5,,,,,,2,,57,0
32444,note_off,,,,,44,0,8,,,,,,4,,62,0
32444,note_off,,,,,188,0,3,,,,,,0,,57,0
32448,note_off,,,,,192,0,4,,,,,,1,,57,0
32448,note_on,,,,,4,0,8,,,,,,4,,64,100
32448,note_on,,,,,4,0,5,,,,,,2,,57,85
32540,note_off,,,,,92,0,8,,,,,,4,,64,0
32544,note_on,,,,,4,0,8,,,,,,4,,59,100
32636,note_off,,,,,92,0,8,,,,,,4,,59,0
32636,note_off,,,,,380,0,9,,,,,,4,,45,0
32636,note_off,,,,,188,0,5,,,,,,2,,57,0
32640,note_on,,,,,4,0,8,,,,,,4,,60,100
32640,note_on,,,,,4,0,5,,,,,,2,,57,85
32640,note_off,,,,,384,0,6,,,,,,3,,45,0
32640,note_off,,,,,384,0,7,,,,,,3,,33,0
32640,note_on,,,,,192,0,4,,,,,,1,,64,85
32640,note_on,,,,,196,0,3,,,,,,0,,69,85
32732,note_off,,,,,92,0,8,,,,,,4,,60,0
32736,note_on,,,,,4,0,8,,,,,,4,,57,100
32828,note_off,,,,,188,0,4,,,,,,1,,64,0
32828,note_off,,,,,92,0,8,,,,,,4,,57,0
32828,note_off,,,,,188,0,3,,,,,,0,,69,0
32828,note_off,,,,,188,0,5,,,,,,2,,57,0
32832,note_on,,,,,4,0,5,,,,,,2,,57,85
32832,note_on,,,,,4,0,4,,,,,,1,,62,85
32832,note_on,,,,,4,0,8,,,,,,4,,59,100
32832,note_on,,,,,4,0,3,,,,,,0,,68,85
32924,note_off,,,,,92,0,8,,,,,,4,,59,0
32928,note_on,,,,,4,0,8,,,,,,4,,56,100
33020,note_off,,,,,188,0,3,,,,,,0,,68,0
33020,note_off,,,,,188,0,4,,,,,,1,,62,0
33020,note_off,,,,,92,0,8,,,,,,4,,56,0
33020,note_off,,,,,188,0,5,,,,,,2,,57,0
33024,note_on,,,,,4,0,5,,,,,,2,,57,85
33024,note_on,,,,,4,0,8,,,,,,4,,57,100
33024,note_on,,,,,0,0,9,,,,,,4,,33,100
33024,note_on,,,,,388,0,9,,,,,,4,,45,100
33116,note_off,,,,,92,0,8,,,,,,4,,57,0
33120,note_on,,,,,4,0,8,,,,,,4,,52,100
33212,note_off,,,,,188,0,5,,,,,,2,,57,0
33212,note_off,,,,,92,0,8,,,,,,4,,52,0
33216,note_on,,,,,4,0,5,,,,,,2,,57,85
33216,note_on,,,,,4,0,8,,,,,,4,,53,100
33308,note_off,,,,,92,0,8,,,,,,4,,53,0
33312,note_on,,,,,4,0,8,,,,,,4,,50,100
33404,note_off,,,,,92,0,8,,,,,,4,,50,0
33404,note_off,,,,,0,0,9,,,,,,4,,33,0
33404,note_off,,,,,380,0,9,,,,,,4,,45,0
33404,note_off,,,,,188,0,5,,,,,,2,,57,0
33408,note_on,,,,,388,0,4,,,,,,1,,69,85
33408,note_on,,,,,4,0,8,,,,,,4,,52,100
33408,note_on,,,,,4,0,5,,,,,,2,,57,85
33408,note_on,,,,,388,0,3,,,,,,0,,72,85
33500,note_off,,,,,92,0,8,,,,,,4,,52,0
33504,note_on,,,,,4,0,8,,,,,,4,,57,100
33596,note_off,,,,,188,0,4,,,,,,1,,69,0
33596,note_off,,,,,92,0,8,,,,,,4,,57,0
33596,note_off,,,,,188,0,3,,,,,,0,,72,0
33596,note_off,,,,,188,0,5,,,,,,2,,57,0
33600,note_on,,,,,4,0,5,,,,,,2,,57,85
33600,note_on,,,,,4,0,8,,,,,,4,,59,100
33600,note_on,,,,,4,0,3,,,,,,0,,71,85
33600,note_on,,,,,4,0,4,,,,,,1,,68,85
33692,note_off,,,,,92,0,8,,,,,,4,,59,0
33696,note_on,,,,,4,0,8,,,,,,4,,56,100
33788,note_off,,,,,92,0,8,,,,,,4,,56,0
33788,note_off,,,,,188,0,4,,,,,,1,,68,0
33788,note_off,,,,,188,0,5,,,,,,2,,57,0
33788,note_off,,,,,188,0,3,,,,,,0,,71,0
33792,note_on,,,,,4,0,8,,,,,,4,,57,100
33792,note_on,,,,,388,0,9,,,,,,4,,45,100
33792,note_on,,,,,0,0,9,,,,,,4,,33,100
33792,note_on,,,,,4,0,5,,,,,,2,,57,85
33884,note_off,,,,,92,0,8,,,,,,4,,57,0
33888,note_on,,,,,4,0,8,,,,,,4,,60,100
33980,note_off,,,,,188,0,5,,,,,,2,,57,0
33980,note_off,,,,,92,0,8,,,,,,4,,60,0
33984,note_on,,,,,4,0,8,,,,,,4,,62,100
33984,note_on,,,,,4,0,5,,,,,,2,,57,85
34076,note_off,,,,,92,0,8,,,,,,4,,62,0
34080,note_on,,,,,4,0,8,,,,,,4,,59,100
34172,note_off,,,,,92,0,8,,,,,,4,,59,0
34172,note_off,,,,,188,0,5,,,,,,2,,57,0
34172,note_off,,,,,0,0,9,,,,,,4,,33,0
34172,note_off,,,,,380,0,9,,,,,,4,,45,0
34176,note_on,,,,,4,0,8,,,,,,4,,60,100
34176,note_on,,,,,4,0,5,,,,,,2,,57,85
34176,note_on,,,,,388,0,4,,,,,,1,,69,85
34176,note_on,,,,,388,0,3,,,,,,0,,76,85
34268,note_off,,,,,92,0,8,,,,,,4,,60,0
34272,note_on,,,,,4,0,8,,,,,,4,,64,100
34364,note_off,,,,,188,0,4,,,,,,1,,69,0
34364,note_off,,,,,92,0,8,,,,,,4,,64,0
34364,note_off,,,,,188,0,3,,,,,,0,,76,0
34364,note_off,,,,,188,0,5,,,,,,2,,57,0
34368,note_on,,,,,4,0,8,,,,,,4,,65,100
34368,note_on,,,,,4,0,5,,,,,,2,,57,85
34368,note_on,,,,,4,0,4,,,,,,1,,68,85
34368,note_on,,,,,4,0,3,,,,,,0,,74,85
34460,note_off,,,,,92,0,8,,,,,,4,,65,0
34464,note_on,,,,,4,0,8,,,,,,4,,62,100
34556,note_off,,,,,188,0,3,,,,,,0,,74,0
34556,note_off,,,,,188,0,5,,,,,,2,,57,0
34556,note_off,,,,,188,0,4,,,,,,1,,68,0
34556,note_off,,,,,92,0,8,,,,,,4,,62,0
34560,note_on,,,,,1920,0,6,,,,,,3,,45,85
34560,note_on,,,,,388,0,9,,,,,,4,,45,100
34560,note_on,,,,,4,0,5,,,,,,2,,57,85
34560,note_on,,,,,1920,0,7,,,,,,3,,33,85
34560,note_on,,,,,4,0,8,,,,,,4,,64,100
34604,note_off,,,,,44,0,8,,,,,,4,,64,0
34604,note_off,,,,,44,0,9,,,,,,4,,45,0
34608,note_on,,,,,4,0,8,,,,,,4,,68,100
34608,note_on,,,,,4,0,9,,,,,,4,,47,100
34652,note_off,,,,,44,0,9,,,,,,4,,47,0
34652,note_off,,,,,44,0,8,,,,,,4,,68,0
34656,note_on,,,,,4,0,8,,,,,,4,,69,100
34656,note_on,,,,,4,0,9,,,,,,4,,48,100
34700,note_off,,,,,44,0,8,,,,,,4,,69,0
34700,note_off,,,,,44,0,9,,,,,,4,,48,0
34704,note_on,,,,,4,0,8,,,,,,4,,71,100
34704,note_on,,,,,4,0,9,,,,,,4,,50,100
34748,note_off,,,,,44,0,8,,,,,,4,,71,0
34748,note_off,,,,,188,0,5,,,,,,2,,57,0
34748,note_off,,,,,44,0,9,,,,,,4,,50,0
34752,note_on,,,,,4,0,8,,,,,,4,,72,100
34752,note_on,,,,,4,0,5,,,,,,2,,57,85
34752,note_on,,,,,4,0,9,,,,,,4,,52,100
34844,note_off,,,,,92,0,8,,,,,,4,,72,0
34844,note_off,,,,,92,0,9,,,,,,4,,52,0
34848,note_on,,,,,4,0,9,,,,,,4,,47,100
34848,note_on,,,,,4,0,8,,,,,,4,,68,100
34940,note_off,,,,,92,0,9,,,,,,4,,47,0
34940,note_off,,,,,188,0,5,,,,,,2,,57,0
34940,note_off,,,,,92,0,8,,,,,,4,,68,0
34944,note_on,,,,,4,0,9,,,,,,4,,48,100
34944,note_on,,,,,388,0,4,,,,,,1,,69,85
34944,note_on,,,,,388,0,3,,,,,,0,,72,85
34944,note_off,,,,,384,0,6,,,,,,3,,45,0
34944,note_off,,,,,384,0,7,,,,,,3,,33,0
34944,note_on,,,,,4,0,5,,,,,,2,,57,85
34944,note_on,,,,,4,0,8,,,,,,4,,69,100
35036,note_off,,,,,92,0,9,,,,,,4,,48,0
35036,note_off,,,,,92,0,8,,,,,,4,,69,0
35040,note_on,,,,,4,0,8,,,,,,4,,64,100
35040,note_on,,,,,4,0,9,,,,,,4,,45,100
35132,note_off,,,,,188,0,3,,,,,,0,,72,0
35132,note_off,,,,,188,0,5,,,,,,2,,57,0
35132,note_off,,,,,92,0,8,,,,,,4,,64,0
35132,note_off,,,,,92,0,9,,,,,,4,,45,0
35132,note_off,,,,,188,0,4,,,,,,1,,69,0
35136,note_on,,,,,4,0,3,,,,,,0,,71,85
35136,note_on,,,,,4,0,4,,,,,,1,,68,85
35136,note_on,,,,,4,0,5,,,,,,2,,57,85
35136,note_on,,,,,4,0,9,,,,,,4,,50,100
35136,note_on,,,,,4,0,8,,,,,,4,,65,100
35228,note_off,,,,,92,0,8,,,,,,4,,65,0
35228,note_off,,,,,92,0,9,,,,,,4,,50,0
35232,note_on,,,,,4,0,8,,,,,,4,,62,100
35232,note_on,,,,,4,0,9,,,,,,4,,47,100
35324,note_off,,,,,188,0,3,,,,,,0,,71,0
35324,note_off,,,,,188,0,5,,,,,,2,,57,0
35324,note_off,,,,,92,0,9,,,,,,4,,47,0
35324,note_off,,,,,188,0,4,,,,,,1,,68,0
35324,note_off,,,,,92,0,8,,,,,,4,,62,0
35328,note_on,,,,,4,0,8,,,,,,4,,64,100
35328,note_on,,,,,4,0,5,,,,,,2,,57,85
35328,note_on,,,,,4,0,9,,,,,,4,,48,100
35420,note_off,,,,,92,0,8,,,,,,4,,64,0
35420,note_off,,,,,92,0,9,,,,,,4,,48,0
35424,note_on,,,,,4,0,8,,,,,,4,,60,100
35424,note_on,,,,,4,0,9,,,,,,4,,45,100
35516,note_off,,,,,92,0,9,,,,,,4,,45,0
35516,note_off,,,,,188,0,5,,,,,,2,,57,0
35516,note_off,,,,,92,0,8,,,,,,4,,60,0
35520,note_on,,,,,4,0,8,,,,,,4,,62,100
35520,note_on,,,,,4,0,5,,,,,,2,,57,85
35520,note_on,,,,,4,0,9,,,,,,4,,47,100
35612,note_off,,,,,92,0,9,,,,,,4,,47,0
35612,note_off,,,,,92,0,8,,,,,,4,,62,0
35616,note_on,,,,,4,0,9,,,,,,4,,44,100
35616,note_on,,,,,4,0,8,,,,,,4,,59,100
35708,note_off,,,,,92,0,8,,,,,,4,,59,0
35708,note_off,,,,,92,0,9,,,,,,4,,44,0
35708,note_off,,,,,188,0,5,,,,,,2,,57,0
35712,note_on,,,,,388,0,4,,,,,,1,,64,85
35712,note_on,,,,,4,0,9,,,,,,4,,45,100
35712,note_on,,,,,388,0,3,,,,,,0,,69,85
35712,note_on,,,,,4,0,8,,,,,,4,,60,100
35712,note_on,,,,,4,0,5,,,,,,2,,57,85
35804,note_off,,,,,92,0,8,,,,,,4,,60,0
35804,note_off,,,,,92,0,9,,,,,,4,,45,0
35808,note_on,,,,,4,0,8,,,,,,4,,64,100
35808,note_on,,,,,4,0,9,,,,,,4,,48,100
35900,note_off,,,,,188,0,5,,,,,,2,,57,0
35900,note_off,,,,,92,0,9,,,,,,4,,48,0
35900,note_off,,,,,188,0,4,,,,,,1,,64,0
35900,note_off,,,,,188,0,3,,,,,,0,,69,0
35900,note_off,,,,,92,0,8,,,,,,4,,64,0
35904,note_on,,,,,4,0,9,,,,,,4,,50,100
35904,note_on,,,,,4,0,5,,,,,,2,,57,85
35904,note_on,,,,,4,0,3,,,,,,0,,68,85
35904,note_on,,,,,4,0,8,,,,,,4,,65,100
35904,note_on,,,,,4,0,4,,,,,,1,,62,85
35996,note_off,,,,,92,0,8,,,,,,4,,65,0
35996,note_off,,,,,92,0,9,,,,,,4,,50,0
36000,note_on,,,,,4,0,9,,,,,,4,,47,100
36000,note_on,,,,,4,0,8,,,,,,4,,62,100
36092,note_off,,,,,188,0,5,,,,,,2,,57,0
36092,note_off,,,,,188,0,3,,,,,,0,,68,0
36092,note_off,,,,,92,0,9,,,,,,4,,47,0
36092,note_off,,,,,188,0,4,,,,,,1,,62,0
36092,note_off,,,,,92,0,8,,,,,,4,,62,0
36096,note_on,,,,,4,0,8,,,,,,4,,64,100
36096,note_on,,,,,4,0,5,,,,,,2,,57,85
36096,note_on,,,,,4,0,9,,,,,,4,,48,100
36188,note_off,,,,,92,0,9,,,,,,4,,48,0
36188,note_off,,,,,92,0,8,,,,,,4,,64,0
36192,note_on,,,,,4,0,9,,,,,,4,,60,100
36192,note_on,,,,,4,0,8,,,,,,4,,69,100
36284,note_off,,,,,188,0,5,,,,,,2,,57,0
36284,note_off,,,,,92,0,8,,,,,,4,,69,0
36284,note_off,,,,,92,0,9,,,,,,4,,60,0
36288,note_on,,,,,4,0,5,,,,,,2,,57,85
36288,note_on,,,,,4,0,8,,,,,,4,,71,100
36288,note_on,,,,,4,0,9,,,,,,4,,62,100
36380,note_off,,,,,92,0,9,,,,,,4,,62,0
36380,note_off,,,,,92,0,8,,,,,,4,,71,0
36384,note_on,,,,,4,0,9,,,,,,4,,59,100
36384,note_on,,,,,4,0,8,,,,,,4,,68,100
36476,note_off,,,,,92,0,8,,,,,,4,,68,0
36476,note_off,,,,,92,0,9,,,,,,4,,59,0
36476,note_off,,,,,188,0,5,,,,,,2,,57,0
36480,note_on,,,,,4,0,5,,,,,,2,,57,85
36480,note_on,,,,,388,0,4,,,,,,1,,60,85
36480,note_on,,,,,388,0,3,,,,,,0,,69,85
36480,note_on,,,,,4,0,8,,,,,,4,,69,100
36480,note_on,,,,,4,0,9,,,,,,4,,60,100
36572,note_off,,,,,92,0,9,,,,,,4,,60,0
36572,note_off,,,,,92,0,8,,,,,,4,,69,0
36576,note_on,,,,,4,0,8,,,,,,4,,72,100
36576,note_on,,,,,4,0,9,,,,,,4,,64,100
36668,note_off,,,,,188,0,3,,,,,,0,,69,0
36668,note_off,,,,,92,0,8,,,,,,4,,72,0
36668,note_off,,,,,188,0,5,,,,,,2,,57,0
36668,note_off,,,,,92,0,9,,,,,,4,,64,0
36668,note_off,,,,,188,0,4,,,,,,1,,60,0
36672,note_on,,,,,4,0,3,,,,,,0,,68,85
36672,note_on,,,,,4,0,9,,,,,,4,,65,100
36672,note_on,,,,,4,0,8,,,,,,4,,74,100
36672,note_on,,,,,4,0,4,,,,,,1,,59,85
36672,note_on,,,,,4,0,5,,,,,,2,,57,85
36764,note_off,,,,,92,0,8,,,,,,4,,74,0
36764,note_off,,,,,92,0,9,,,,,,4,,65,0
36768,note_on,,,,,4,0,9,,,,,,4,,62,100
36768,note_on,,,,,4,0,8,,,,,,4,,71,100
36860,note_off,,,,,188,0,5,,,,,,2,,57,0
36860,note_off,,,,,92,0,8,,,,,,4,,71,0
36860,note_off,,,,,188,0,4,,,,,,1,,59,0
36860,note_off,,,,,188,0,3,,,,,,0,,68,0
36860,note_off,,,,,92,0,9,,,,,,4,,62,0
36864,note_on,,,,,1920,0,6,,,,,,3,,45,85
36864,note_on,,,,,4,0,5,,,,,,2,,57,85
36864,note_on,,,,,1920,0,7,,,,,,3,,33,85
36864,note_on,,,,,4,0,9,,,,,,4,,64,100
36864,note_on,,,,,4,0,8,,,,,,4,,72,100
36956,note_off,,,,,92,0,9,,,,,,4,,64,0
36956,note_off,,,,,92,0,8,,,,,,4,,72,0
36960,note_on,,,,,4,0,8,,,,,,4,,68,100
36960,note_on,,,,,4,0,9,,,,,,4,,59,100
37052,note_off,,,,,92,0,8,,,,,,4,,68,0
37052,note_off,,,,,188,0,5,,,,,,2,,57,0
37052,note_off,,,,,92,0,9,,,,,,4,,59,0
37056,note_on,,,,,4,0,5,,,,,,2,,57,85
37056,note_on,,,,,4,0,8,,,,,,4,,69,100
37056,note_on,,,,,4,0,9,,,,,,4,,60,100
37148,note_off,,,,,92,0,9,,,,,,4,,60,0
37148,note_off,,,,,92,0,8,,,,,,4,,69,0
37152,note_on,,,,,4,0,9,,,,,,4,,56,100
37152,note_on,,,,,4,0,8,,,,,,4,,64,100
37244,note_off,,,,,92,0,9,,,,,,4,,56,0
37244,note_off,,,,,188,0,5,,,,,,2,,57,0
37244,note_off,,,,,92,0,8,,,,,,4,,64,0
37248,note_on,,,,,4,0,9,,,,,,4,,57,100
37248,note_on,,,,,388,0,3,,,,,,0,,62,85
37248,note_off,,,,,384,0,7,,,,,,3,,33,0
37248,note_off,,,,,384,0,6,,,,,,3,,45,0
37248,note_on,,,,,4,0,8,,,,,,4,,65,100
37248,note_on,,,,,4,0,5,,,,,,2,,57,85
37248,note_on,,,,,388,0,4,,,,,,1,,57,85
37340,note_off,,,,,92,0,8,,,,,,4,,65,0
37344,note_on,,,,,4,0,8,,,,,,4,,62,100
37436,note_off,,,,,188,0,9,,,,,,4,,57,0
37436,note_off,,,,,188,0,3,,,,,,0,,62,0
37436,note_off,,,,,188,0,5,,,,,,2,,57,0
37436,note_off,,,,,188,0,4,,,,,,1,,57,0
37436,note_off,,,,,92,0,8,,,,,,4,,62,0
37440,note_on,,,,,4,0,5,,,,,,2,,57,85
37440,note_on,,,,,4,0,4,,,,,,1,,56,85
37440,note_on,,,,,0,0,9,,,,,,4,,50,100
37440,note_on,,,,,4,0,3,,,,,,0,,59,85
37440,note_on,,,,,0,0,9,,,,,,4,,45,100
37440,note_on,,,,,4,0,8,,,,,,4,,64,100
37440,note_on,,,,,4,0,9,,,,,,4,,56,100
37532,note_off,,,,,92,0,8,,,,,,4,,64,0
37536,note_on,,,,,4,0,8,,,,,,4,,59,100
37628,note_off,,,,,188,0,3,,,,,,0,,59,0
37628,note_off,,,,,0,0,9,,,,,,4,,45,0
37628,note_off,,,,,0,0,9,,,,,,4,,50,0
37628,note_off,,,,,188,0,9,,,,,,4,,56,0
37628,note_off,,,,,188,0,4,,,,,,1,,56,0
37628,note_off,,,,,188,0,5,,,,,,2,,57,0
37628,note_off,,,,,92,0,8,,,,,,4,,59,0
37632,note_on,,,,,4,0,8,,,,,,4,,60,100
37632,note_on,,,,,4,0,5,,,,,,2,,57,85
37632,note_on,,,,,4,0,9,,,,,,4,,52,100
37632,note_on,,,,,0,0,9,,,,,,4,,48,100
37632,note_on,,,,,0,0,9,,,,,,4,,45,100
37724,note_off,,,,,92,0,8,,,,,,4,,60,0
37728,note_on,,,,,4,0,8,,,,,,4,,56,100
37820,note_off,,,,,92,0,8,,,,,,4,,56,0
37820,note_off,,,,,188,0,5,,,,,,2,,57,0
37820,note_off,,,,,188,0,9,,,,,,4,,52,0
37820,note_off,,,,,0,0,9,,,,,,4,,45,0
37820,note_off,,,,,0,0,9,,,,,,4,,48,0
37824,note_on,,,,,4,0,8,,,,,,4,,57,100
37824,note_on,,,,,4,0,5,,,,,,2,,57,85
37916,note_off,,,,,92,0,8,,,,,,4,,57,0
37920,note_on,,,,,4,0,8,,,,,,4,,52,100
38012,note_off,,,,,92,0,8,,,,,,4,,52,0
38012,note_off,,,,,188,0,5,,,,,,2,,57,0
38016,note_on,,,,,4,0,5,,,,,,2,,57,85
38016,note_on,,,,,388,0,4,,,,,,1,,62,85
38016,note_on,,,,,4,0,8,,,,,,4,,53,100
38016,note_on,,,,,388,0,3,,,,,,0,,59,85
38108,note_off,,,,,92,0,8,,,,,,4,,53,0
38112,note_on,,,,,4,0,8,,,,,,4,,50,100
38204,note_off,,,,,92,0,8,,,,,,4,,50,0
38204,note_off,,,,,188,0,4,,,,,,1,,62,0
38204,note_off,,,,,188,0,3,,,,,,0,,59,0
38204,note_off,,,,,188,0,5,,,,,,2,,57,0
38208,note_on,,,,,4,0,3,,,,,,0,,56,85
38208,note_on,,,,,4,0,5,,,,,,2,,57,85
38208,note_on,,,,,4,0,4,,,,,,1,,59,85
38208,note_on,,,,,4,0,8,,,,,,4,,52,100
38300,note_off,,,,,92,0,8,,,,,,4,,52,0
38304,note_on,,,,,4,0,8,,,,,,4,,47,100
38396,note_off,,,,,92,0,8,,,,,,4,,47,0
38396,note_off,,,,,188,0,5,,,,,,2,,57,0
38396,note_off,,,,,188,0,3,,,,,,0,,56,0
38396,note_off,,,,,188,0,4,,,,,,1,,59,0
38400,note_on,,,,,580,0,9,,,,,,4,,33,100
38400,note_on,,,,,4,0,5,,,,,,2,,57,85
38400,note_on,,,,,4,0,8,,,,,,4,,48,100
38400,note_on,,,,,4,0,4,,,,,,1,,64,85
38400,note_on,,,,,4,0,3,,,,,,0,,57,85
38492,note_off,,,,,92,0,8,,,,,,4,,48,0
38496,note_on,,,,,4,0,8,,,,,,4,,44,100
38588,note_off,,,,,92,0,8,,,,,,4,,44,0
38588,note_off,,,,,188,0,5,,,,,,2,,57,0
38592,note_on,,,,,4,0,8,,,,,,4,,45,100
38592,note_on,,,,,4,0,5,,,,,,2,,57,85
38684,note_off,,,,,92,0,8,,,,,,4,,45,0
38688,note_on,,,,,4,0,8,,,,,,4,,48,100
38780,note_off,,,,,92,0,8,,,,,,4,,48,0
38780,note_off,,,,,188,0,5,,,,,,2,,57,0
38780,note_off,,,,,380,0,3,,,,,,0,,57,0
38780,note_off,,,,,380,0,4,,,,,,1,,64,0
38784,note_on,,,,,4,0,5,,,,,,2,,57,85
38784,note_on,,,,,4,0,8,,,,,,4,,52,100
38784,note_off,,,,,384,0,9,,,,,,4,,33,0
38876,note_off,,,,,92,0,8,,,,,,4,,52,0
38880,note_on,,,,,4,0,8,,,,,,4,,47,100
38972,note_off,,,,,188,0,5,,,,,,2,,57,0
38972,note_off,,,,,92,0,8,,,,,,4,,47,0
38976,note_on,,,,,4,0,5,,,,,,2,,57,85
38976,note_on,,,,,4,0,8,,,,,,4,,48,100
39068,note_off,,,,,92,0,8,,,,,,4,,48,0
39072,note_on,,,,,4,0,8,,,,,,4,,52,100
39164,note_off,,,,,188,0,5,,,,,,2,,57,0
39164,note_off,,,,,92,0,8,,,,,,4,,52,0
39168,note_on,,,,,4,0,5,,,,,,2,,57,85
39168,note_on,,,,,1920,0,6,,,,,,3,,45,85
39168,note_on,,,,,1920,0,7,,,,,,3,,33,85
39168,note_on,,,,,4,0,8,,,,,,4,,57,100
39260,note_off,,,,,92,0,8,,,,,,4,,57,0
39264,note_on,,,,,480,0,9,,,,,,4,,47,100
39264,note_on,,,,,4,0,8,,,,,,4,,51,100
39356,note_off,,,,,188,0,5,,,,,,2,,57,0
39356,note_off,,,,,92,0,8,,,,,,4,,51,0
39360,note_on,,,,,4,0,5,,,,,,2,,57,85
39360,note_off,,,,,96,0,9,,,,,,4,,47,0
39360,note_on,,,,,0,0,9,,,,,,4,,48,100
39360,note_on,,,,,4,0,8,,,,,,4,,52,100
39452,note_off,,,,,92,0,8,,,,,,4,,52,0
39456,note_on,,,,,4,0,8,,,,,,4,,57,100
39456,note_on,,,,,0,0,9,,,,,,4,,52,100
39456,note_off,,,,,96,0,9,,,,,,4,,48,0
39548,note_off,,,,,92,0,8,,,,,,4,,57,0
39548,note_off,,,,,188,0,5,,,,,,2,,57,0
39552,note_on,,,,,0,0,9,,,,,,4,,57,100
39552,note_off,,,,,96,0,9,,,,,,4,,52,0
39552,note_off,,,,,384,0,6,,,,,,3,,45,0
39552,note_on,,,,,4,0,5,,,,,,2,,57,85
39552,note_off,,,,,384,0,7,,,,,,3,,33,0
39552,note_on,,,,,4,0,8,,,,,,4,,60,100
39644,note_off,,,,,92,0,8,,,,,,4,,60,0
39648,note_off,,,,,96,0,9,,,,,,4,,57,0
39648,note_on,,,,,0,0,9,,,,,,4,,47,100
39648,note_on,,,,,4,0,8,,,,,,4,,56,100
39740,note_off,,,,,188,0,5,,,,,,2,,57,0
39740,note_off,,,,,92,0,8,,,,,,4,,56,0
39744,note_on,,,,,4,0,8,,,,,,4,,57,100
39744,note_off,,,,,96,0,9,,,,,,4,,47,0
39744,note_on,,,,,0,0,9,,,,,,4,,48,100
39744,note_on,,,,,4,0,5,,,,,,2,,57,85
39836,note_off,,,,,92,0,8,,,,,,4,,57,0
39840,note_off,,,,,96,0,9,,,,,,4,,48,0
39840,note_on,,,,,0,0,9,,,,,,4,,52,100
39840,note_on,,,,,4,0,8,,,,,,4,,60,100
39932,note_off,,,,,92,0,8,,,,,,4,,60,0
39932,note_off,,,,,188,0,5,,,,,,2,,57,0
39936,note_on,,,,,4,0,8,,,,,,4,,64,100
39936,note_off,,,,,96,0,9,,,,,,4,,52,0
39936,note_on,,,,,0,0,9,,,,,,4,,57,100
39936,note_on,,,,,4,0,5,,,,,,2,,57,85
40028,note_off,,,,,92,0,8,,,,,,4,,64,0
40032,note_on,,,,,4,0,8,,,,,,4,,59,100
40124,note_off,,,,,92,0,8,,,,,,4,,59,0
40128,note_on,,,,,4,0,8,,,,,,4,,60,100
40128,note_off,,,,,192,0,9,,,,,,4,,57,0
40220,note_off,,,,,92,0,8,,,,,,4,,60,0
40224,note_on,,,,,4,0,8,,,,,,4,,64,100
40316,note_off,,,,,380,0,5,,,,,,2,,57,0
40316,note_off,,,,,92,0,8,,,,,,4,,64,0
40320,note_on,,,,,4,0,8,,,,,,4,,69,100
40416,note_on,,,,,288,0,9,,,,,,4,,57,100
40416,note_on,,,,,0,0,9,,,,,,4,,45,100
40508,note_off,,,,,188,0,8,,,,,,4,,69,0
40512,note_off,,,,,96,0,9,,,,,,4,,57,0
40512,note_off,,,,,0,0,9,,,,,,4,,45,0
40512,note_on,,,,,0,0,8,,,,,,4,,69,100
40512,note_on,,,,,4,0,8,,,,,,4,,72,100
40512,note_on,,,,,0,0,8,,,,,,4,,64,100
40608,note_on,,,,,0,0,9,,,,,,4,,45,100
40608,note_on,,,,,96,0,9,,,,,,4,,57,100
40700,note_off,,,,,0,0,8,,,,,,4,,64,0
40700,note_off,,,,,188,0,8,,,,,,4,,72,0
40700,note_off,,,,,0,0,8,,,,,,4,,69,0
40704,note_off,,,,,96,0,9,,,,,,4,,57,0
40704,note_off,,,,,0,0,9,,,,,,4,,45,0
40704,note_on,,,,,4,0,8,,,,,,4,,76,100
40704,note_on,,,,,0,0,8,,,,,,4,,72,100
40704,note_on,,,,,0,0,8,,,,,,4,,69,100
40800,note_on,,,,,96,0,9,,,,,,4,,57,100
40800,note_on,,,,,0,0,9,,,,,,4,,45,100
40892,note_off,,,,,188,0,8,,,,,,4,,76,0
40892,note_off,,,,,0,0,8,,,,,,4,,72,0
40892,note_off,,,,,0,0,8,,,,,,4,,69,0
40896,note_off,,,,,0,0,9,,,,,,4,,45,0
40896,note_on,,,,,4,0,8,,,,,,4,,64,100
40896,note_on,,,,,0,0,8,,,,,,4,,69,100
40896,note_off,,,,,96,0,9,,,,,,4,,57,0
40896,note_on,,,,,0,0,8,,,,,,4,,60,100
40992,note_on,,,,,96,0,9,,,,,,4,,57,100
40992,note_on,,,,,0,0,9,,,,,,4,,45,100
41084,note_off,,,,,0,0,8,,,,,,4,,69,0
41084,note_off,,,,,0,0,8,,,,,,4,,60,0
41084,note_off,,,,,188,0,8,,,,,,4,,64,0
41088,note_off,,,,,0,0,9,,,,,,4,,45,0
41088,note_on,,,,,0,0,8,,,,,,4,,64,100
41088,note_on,,,,,0,0,8,,,,,,4,,69,100
41088,note_on,,,,,4,0,8,,,,,,4,,72,100
41088,note_off,,,,,96,0,9,,,,,,4,,57,0
41184,note_on,,,,,96,0,9,,,,,,4,,57,100
41184,note_on,,,,,0,0,9,,,,,,4,,45,100
41276,note_off,,,,,0,0,8,,,,,,4,,64,0
41276,note_off,,,,,0,0,8,,,,,,4,,69,0
41276,note_off,,,,,188,0,8,,,,,,4,,72,0
41280,note_on,,,,,4,0,8,,,,,,4,,76,100
41280,note_off,,,,,0,0,9,,,,,,4,,45,0
41280,note_on,,,,,0,0,8,,,,,,4,,69,100
41280,note_on,,,,,0,0,8,,,,,,4,,72,100
41280,note_off,,,,,96,0,9,,,,,,4,,57,0
41376,note_on,,,,,96,0,9,,,,,,4,,57,100
41376,note_on,,,,,0,0,9,,,,,,4,,45,100
41468,note_off,,,,,0,0,8,,,,,,4,,69,0
41468,note_off,,,,,0,0,8,,,,,,4,,72,0
41468,note_off,,,,,188,0,8,,,,,,4,,76,0
41472,note_on,,,,,1920,0,7,,,,,,3,,45,85
41472,note_off,,,,,0,0,9,,,,,,4,,45,0
41472,note_on,,,,,0,0,8,,,,,,4,,76,100
41472,note_on,,,,,4,0,8,,,,,,4,,81,100
41472,note_off,,,,,96,0,9,,,,,,4,,57,0
41472,note_on,,,,,2692,0,3,,,,,,0,,69,85
41472,note_on,,,,,1920,0,6,,,,,,3,,57,85
41472,note_on,,,,,2692,0,4,,,,,,1,,64,85
41472,note_on,,,,,0,0,8,,,,,,4,,72,100
41564,note_off,,,,,92,0,8,,,,,,4,,81,0
41564,note_off,,,,,0,0,8,,,,,,4,,76,0
41564,note_off,,,,,0,0,8,,,,,,4,,72,0
41568,note_on,,,,,0,0,3,,,,,,0,,71,85
41568,note_off,,,,,96,0,3,,,,,,0,,69,0
41568,note_on,,,,,4,0,8,,,,,,4,,69,100
41660,note_off,,,,,92,0,8,,,,,,4,,69,0
41664,note_on,,,,,192,0,9,,,,,,4,,57,100
41664,note_on,,,,,0,0,7,,,,,,3,,45,85
41664,note_off,,,,,192,0,4,,,,,,1,,64,0
41664,note_on,,,,,0,0,6,,,,,,3,,57,85
41664,note_off,,,,,192,0,6,,,,,,3,,57,0
41664,note_off,,,,,192,0,7,,,,,,3,,45,0
41664,note_off,,,,,96,0,3,,,,,,0,,71,0
41664,note_on,,,,,0,0,3,,,,,,0,,72,85
41664,note_on,,,,,4,0,8,,,,,,4,,72,100
41756,note_off,,,,,92,0,8,,,,,,4,,72,0
41760,note_on,,,,,4,0,8,,,,,,4,,76,100
41772,note_off,,,,,108,0,3,,,,,,0,,72,0
41852,note_off,,,,,92,0,8,,,,,,4,,76,0
41852,note_off,,,,,188,0,9,,,,,,4,,57,0
41856,note_off,,,,,192,0,7,,,,,,3,,45,0
41856,note_on,,,,,0,0,7,,,,,,3,,45,85
41856,note_on,,,,,4,0,8,,,,,,4,,81,100
41856,note_on,,,,,0,0,6,,,,,,3,,57,85
41856,note_off,,,,,192,0,6,,,,,,3,,57,0
41856,note_on,,,,,192,0,4,,,,,,1,,76,85
41856,note_on,,,,,4,0,9,,,,,,4,,57,100
41856,note_on,,,,,1540,0,5,,,,,,2,,69,85
41856,note_on,,,,,84,0,3,,,,,,0,,71,85
41948,note_off,,,,,92,0,8,,,,,,4,,81,0
41952,note_on,,,,,4,0,8,,,,,,4,,69,100
42044,note_off,,,,,188,0,9,,,,,,4,,57,0
42044,note_off,,,,,92,0,8,,,,,,4,,69,0
42048,note_on,,,,,0,0,6,,,,,,3,,57,85
42048,note_off,,,,,192,0,6,,,,,,3,,57,0
42048,note_on,,,,,4,0,9,,,,,,4,,45,100
42048,note_off,,,,,192,0,7,,,,,,3,,45,0
42048,note_on,,,,,0,0,7,,,,,,3,,45,85
42048,note_on,,,,,0,0,3,,,,,,0,,69,85
42048,note_off,,,,,192,0,3,,,,,,0,,71,0
42048,note_on,,,,,4,0,8,,,,,,4,,72,100
42048,note_off,,,,,192,0,4,,,,,,1,,76,0
42140,note_off,,,,,92,0,8,,,,,,4,,72,0
42144,note_on,,,,,4,0,8,,,,,,4,,76,100
42236,note_off,,,,,92,0,8,,,,,,4,,76,0
42236,note_off,,,,,188,0,9,,,,,,4,,45,0
42240,note_on,,,,,0,0,6,,,,,,3,,55,85
42240,note_on,,,,,4,0,9,,,,,,4,,43,100
42240,note_on,,,,,0,0,3,,,,,,0,,76,85
42240,note_on,,,,,0,0,7,,,,,,3,,43,85
42240,note_off,,,,,192,0,7,,,,,,3,,45,0
42240,note_off,,,,,384,0,5,,,,,,2,,69,0
42240,note_on,,,,,4,0,8,,,,,,4,,81,100
42240,note_on,,,,,192,0,4,,,,,,1,,73,85
42240,note_off,,,,,192,0,3,,,,,,0,,69,0
42240,note_off,,,,,192,0,6,,,,,,3,,57,0
42332,note_off,,,,,92,0,8,,,,,,4,,81,0
42336,note_on,,,,,4,0,8,,,,,,4,,69,100
42428,note_off,,,,,188,0,9,,,,,,4,,43,0
42428,note_off,,,,,92,0,8,,,,,,4,,69,0
42432,note_on,,,,,0,0,6,,,,,,3,,55,85
42432,note_on,,,,,4,0,8,,,,,,4,,73,100
42432,note_on,,,,,4,0,9,,,,,,4,,55,100
42432,note_off,,,,,192,0,4,,,,,,1,,73,0
42432,note_on,,,,,0,0,3,,,,,,0,,81,85
42432,note_off,,,,,192,0,3,,,,,,0,,76,0
42432,note_off,,,,,192,0,6,,,,,,3,,55,0
42432,note_on,,,,,0,0,7,,,,,,3,,43,85
42432,note_off,,,,,192,0,7,,,,,,3,,43,0
42524,note_off,,,,,92,0,8,,,,,,4,,73,0
42528,note_on,,,,,4,0,8,,,,,,4,,76,100
42620,note_off,,,,,92,0,8,,,,,,4,,76,0
42620,note_off,,,,,188,0,9,,,,,,4,,55,0
42624,note_off,,,,,192,0,6,,,,,,3,,55,0
42624,note_off,,,,,192,0,7,,,,,,3,,43,0
42624,note_on,,,,,0,0,7,,,,,,3,,43,85
42624,note_on,,,,,4,0,9,,,,,,4,,55,100
42624,note_on,,,,,0,0,6,,,,,,3,,55,85
42624,note_on,,,,,192,0,4,,,,,,1,,69,85
42624,note_on,,,,,384,0,5,,,,,,2,,67,85
42624,note_on,,,,,4,0,8,,,,,,4,,81,100
42716,note_off,,,,,92,0,8,,,,,,4,,81,0
42720,note_on,,,,,4,0,8,,,,,,4,,69,100
42812,note_off,,,,,380,0,3,,,,,,0,,81,0
42812,note_off,,,,,92,0,8,,,,,,4,,69,0
42812,note_off,,,,,188,0,9,,,,,,4,,55,0
42816,note_off,,,,,192,0,4,,,,,,1,,69,0
42816,note_on,,,,,0,0,6,,,,,,3,,55,85
42816,note_off,,,,,192,0,6,,,,,,3,,55,0
42816,note_on,,,,,4,0,8,,,,,,4,,73,100
42816,note_on,,,,,4,0,9,,,,,,4,,43,100
42816,note_on,,,,,0,0,7,,,,,,3,,43,85
42816,note_on,,,,,4,0,3,,,,,,0,,73,85
42816,note_off,,,,,192,0,7,,,,,,3,,43,0
42908,note_off,,,,,92,0,8,,,,,,4,,73,0
42912,note_on,,,,,4,0,8,,,,,,4,,76,100
43004,note_off,,,,,188,0,9,,,,,,4,,43,0
43004,note_off,,,,,92,0,8,,,,,,4,,76,0
43008,note_on,,,,,4,0,8,,,,,,4,,81,100
43008,note_on,,,,,192,0,4,,,,,,1,,62,85
43008,note_off,,,,,192,0,7,,,,,,3,,43,0
43008,note_off,,,,,192,0,3,,,,,,0,,73,0
43008,note_on,,,,,4,0,9,,,,,,4,,41,100
43008,note_off,,,,,384,0,5,,,,,,2,,67,0
43008,note_off,,,,,192,0,6,,,,,,3,,55,0
43008,note_on,,,,,0,0,6,,,,,,3,,53,85
43008,note_on,,,,,0,0,7,,,,,,3,,41,85
43008,note_on,,,,,0,0,3,,,,,,0,,74,85
43100,note_off,,,,,92,0,8,,,,,,4,,81,0
43104,note_off,,,,,96,0,4,,,,,,1,,62,0
43104,note_on,,,,,0,0,4,,,,,,1,,64,85
43104,note_on,,,,,4,0,8,,,,,,4,,69,100
43196,note_off,,,,,92,0,8,,,,,,4,,69,0
43196,note_off,,,,,188,0,9,,,,,,4,,41,0
43200,note_off,,,,,96,0,4,,,,,,1,,64,0
43200,note_on,,,,,0,0,4,,,,,,1,,65,85
43200,note_on,,,,,4,0,9,,,,,,4,,53,100
43200,note_off,,,,,192,0,3,,,,,,0,,74,0
43200,note_on,,,,,4,0,8,,,,,,4,,74,100
43200,note_off,,,,,192,0,7,,,,,,3,,41,0
43200,note_on,,,,,0,0,7,,,,,,3,,41,85
43200,note_off,,,,,192,0,6,,,,,,3,,53,0
43200,note_on,,,,,0,0,6,,,,,,3,,53,85
43292,note_off,,,,,92,0,8,,,,,,4,,74,0
43296,note_on,,,,,4,0,8,,,,,,4,,77,100
43308,note_off,,,,,108,0,4,,,,,,1,,65,0
43388,note_off,,,,,188,0,9,,,,,,4,,53,0
43388,note_off,,,,,92,0,8,,,,,,4,,77,0
43392,note_off,,,,,192,0,6,,,,,,3,,53,0
43392,note_on,,,,,84,0,4,,,,,,1,,64,85
43392,note_on,,,,,192,0,3,,,,,,0,,77,85
43392,note_on,,,,,4,0,8,,,,,,4,,81,100
43392,note_on,,,,,0,0,7,,,,,,3,,41,85
43392,note_off,,,,,192,0,7,,,,,,3,,41,0
43392,note_on,,,,,4,0,9,,,,,,4,,53,100
43392,note_on,,,,,0,0,6,,,,,,3,,53,85
43392,note_on,,,,,384,0,5,,,,,,2,,65,85
43484,note_off,,,,,92,0,8,,,,,,4,,81,0
43488,note_on,,,,,4,0,8,,,,,,4,,69,100
43580,note_off,,,,,188,0,9,,,,,,4,,53,0
43580,note_off,,,,,92,0,8,,,,,,4,,69,0
43584,note_on,,,,,0,0,4,,,,,,1,,62,85
43584,note_off,,,,,192,0,4,,,,,,1,,64,0
43584,note_off,,,,,192,0,3,,,,,,0,,77,0
43584,note_on,,,,,0,0,7,,,,,,3,,41,85
43584,note_off,,,,,192,0,7,,,,,,3,,41,0
43584,note_on,,,,,4,0,9,,,,,,4,,41,100
43584,note_on,,,,,4,0,8,,,,,,4,,74,100
43584,note_on,,,,,0,0,6,,,,,,3,,53,85
43584,note_off,,,,,192,0,6,,,,,,3,,53,0
43676,note_off,,,,,92,0,8,,,,,,4,,74,0
43680,note_on,,,,,4,0,8,,,,,,4,,77,100
43772,note_off,,,,,92,0,8,,,,,,4,,77,0
43772,note_off,,,,,188,0,9,,,,,,4,,41,0
43776,note_off,,,,,384,0,5,,,,,,2,,65,0
43776,note_off,,,,,192,0,6,,,,,,3,,53,0
43776,note_on,,,,,192,0,3,,,,,,0,,74,85
43776,note_on,,,,,4,0,9,,,,,,4,,42,100
43776,note_on,,,,,0,0,4,,,,,,1,,69,85
43776,note_off,,,,,192,0,4,,,,,,1,,62,0
43776,note_on,,,,,0,0,7,,,,,,3,,42,85
43776,note_off,,,,,192,0,7,,,,,,3,,41,0
43776,note_on,,,,,0,0,6,,,,,,3,,54,85
43776,note_on,,,,,4,0,8,,,,,,4,,81,100
43868,note_off,,,,,92,0,8,,,,,,4,,81,0
43872,note_on,,,,,4,0,8,,,,,,4,,69,100
43964,note_off,,,,,92,0,8,,,,,,4,,69,0
43964,note_off,,,,,188,0,9,,,,,,4,,42,0
43968,note_on,,,,,4,0,9,,,,,,4,,54,100
43968,note_off,,,,,192,0,7,,,,,,3,,42,0
43968,note_on,,,,,0,0,4,,,,,,1,,74,85
43968,note_on,,,,,0,0,7,,,,,,3,,42,85
43968,note_off,,,,,192,0,4,,,,,,1,,69,0
43968,note_on,,,,,0,0,6,,,,,,3,,54,85
43968,note_off,,,,,192,0,3,,,,,,0,,74,0
43968,note_off,,,,,192,0,6,,,,,,3,,54,0
43968,note_on,,,,,4,0,8,,,,,,4,,72,100
44060,note_off,,,,,92,0,8,,,,,,4,,72,0
44064,note_on,,,,,4,0,8,,,,,,4,,78,100
44156,note_off,,,,,92,0,8,,,,,,4,,78,0
44156,note_off,,,,,188,0,9,,,,,,4,,54,0
44160,note_on,,,,,4,0,8,,,,,,4,,81,100
44160,note_on,,,,,0,0,7,,,,,,3,,42,85
44160,note_off,,,,,192,0,6,,,,,,3,,54,0
44160,note_on,,,,,0,0,6,,,,,,3,,54,85
44160,note_on,,,,,384,0,5,,,,,,2,,66,85
44160,note_on,,,,,192,0,3,,,,,,0,,69,85
44160,note_on,,,,,4,0,9,,,,,,4,,54,100
44160,note_off,,,,,192,0,7,,,,,,3,,42,0
44252,note_off,,,,,92,0,8,,,,,,4,,81,0
44256,note_on,,,,,4,0,8,,,,,,4,,78,100
44348,note_off,,,,,188,0,9,,,,,,4,,54,0
44348,note_off,,,,,380,0,4,,,,,,1,,74,0
44348,note_off,,,,,92,0,8,,,,,,4,,78,0
44352,note_on,,,,,0,0,7,,,,,,3,,42,85
44352,note_on,,,,,4,0,9,,,,,,4,,42,100
44352,note_on,,,,,0,0,6,,,,,,3,,54,85
44352,note_off,,,,,192,0,6,,,,,,3,,54,0
44352,note_on,,,,,4,0,8,,,,,,4,,72,100
44352,note_on,,,,,4,0,4,,,,,,1,,69,85
44352,note_off,,,,,192,0,3,,,,,,0,,69,0
44352,note_off,,,,,192,0,7,,,,,,3,,42,0
44444,note_off,,,,,92,0,8,,,,,,4,,72,0
44448,note_on,,,,,4,0,8,,,,,,4,,69,100
44540,note_off,,,,,188,0,9,,,,,,4,,42,0
44540,note_off,,,,,92,0,8,,,,,,4,,69,0
44544,note_on,,,,,0,0,4,,,,,,1,,62,85
44544,note_on,,,,,0,0,7,,,,,,3,,43,85
44544,note_on,,,,,4,0,8,,,,,,4,,70,100
44544,note_off,,,,,192,0,4,,,,,,1,,69,0
44544,note_off,,,,,384,0,5,,,,,,2,,66,0
44544,note_on,,,,,192,0,3,,,,,,0,,67,85
44544,note_on,,,,,0,0,6,,,,,,3,,55,85
44544,note_off,,,,,192,0,6,,,,,,3,,54,0
44544,note_off,,,,,192,0,7,,,,,,3,,42,0
44544,note_on,,,,,4,0,9,,,,,,4,,43,100
44636,note_off,,,,,92,0,8,,,,,,4,,70,0
44640,note_off,,,,,96,0,3,,,,,,0,,67,0
44640,note_on,,,,,0,0,3,,,,,,0,,69,85
44640,note_on,,,,,4,0,8,,,,,,4,,67,100
44732,note_off,,,,,188,0,9,,,,,,4,,43,0
44732,note_off,,,,,92,0,8,,,,,,4,,67,0
44736,note_on,,,,,0,0,7,,,,,,3,,43,85
44736,note_off,,,,,192,0,7,,,,,,3,,43,0
44736,note_off,,,,,192,0,4,,,,,,1,,62,0
44736,note_on,,,,,4,0,9,,,,,,4,,55,100
44736,note_off,,,,,96,0,3,,,,,,0,,69,0
44736,note_on,,,,,4,0,8,,,,,,4,,70,100
44736,note_on,,,,,0,0,6,,,,,,3,,55,85
44736,note_on,,,,,0,0,3,,,,,,0,,70,85
44736,note_off,,,,,192,0,6,,,,,,3,,55,0
44828,note_off,,,,,92,0,8,,,,,,4,,70,0
44832,note_on,,,,,4,0,8,,,,,,4,,74,100
44844,note_off,,,,,108,0,3,,,,,,0,,70,0
44924,note_off,,,,,188,0,9,,,,,,4,,55,0
44924,note_off,,,,,92,0,8,,,,,,4,,74,0
44928,note_off,,,,,192,0,7,,,,,,3,,43,0
44928,note_on,,,,,4,0,9,,,,,,4,,55,100
44928,note_on,,,,,0,0,6,,,,,,3,,55,85
44928,note_on,,,,,0,0,7,,,,,,3,,43,85
44928,note_on,,,,,192,0,4,,,,,,1,,74,85
44928,note_off,,,,,192,0,6,,,,,,3,,55,0
44928,note_on,,,,,384,0,5,,,,,,2,,67,85
44928,note_on,,,,,84,0,3,,,,,,0,,69,85
44928,note_on,,,,,4,0,8,,,,,,4,,79,100
45020,note_off,,,,,92,0,8,,,,,,4,,79,0
45024,note_on,,,,,4,0,8,,,,,,4,,67,100
45116,note_off,,,,,188,0,9,,,,,,4,,55,0
45116,note_off,,,,,92,0,8,,,,,,4,,67,0
45120,note_on,,,,,0,0,7,,,,,,3,,43,85
45120,note_off,,,,,192,0,4,,,,,,1,,74,0
45120,note_off,,,,,192,0,6,,,,,,3,,55,0
45120,note_on,,,,,0,0,6,,,,,,3,,55,85
45120,note_off,,,,,192,0,3,,,,,,0,,69,0
45120,note_off,,,,,192,0,7,,,,,,3,,43,0
45120,note_on,,,,,4,0,9,,,,,,4,,43,100
45120,note_on,,,,,0,0,3,,,,,,0,,67,85
45120,note_on,,,,,4,0,8,,,,,,4,,70,100
45212,note_off,,,,,92,0,8,,,,,,4,,70,0
45216,note_on,,,,,4,0,8,,,,,,4,,74,100
45308,note_off,,,,,92,0,8,,,,,,4,,74,0
45308,note_off,,,,,188,0,9,,,,,,4,,43,0
45312,note_off,,,,,384,0,5,,,,,,2,,67,0
45312,note_off,,,,,192,0,6,,,,,,3,,55,0
45312,note_on,,,,,192,0,4,,,,,,1,,71,85
45312,note_on,,,,,4,0,8,,,,,,4,,79,100
45312,note_on,,,,,0,0,6,,,,,,3,,53,85
45312,note_off,,,,,192,0,3,,,,,,0,,67,0
45312,note_off,,,,,192,0,7,,,,,,3,,43,0
45312,note_on,,,,,0,0,3,,,,,,0,,74,85
45312,note_on,,,,,0,0,7,,,,,,3,,41,85
45312,note_on,,,,,4,0,9,,,,,,4,,41,100
45404,note_off,,,,,92,0,8,,,,,,4,,79,0
45408,note_on,,,,,4,0,8,,,,,,4,,67,100
45500,note_off,,,,,92,0,8,,,,,,4,,67,0
45500,note_off,,,,,188,0,9,,,,,,4,,41,0
45504,note_on,,,,,4,0,8,,,,,,4,,71,100
45504,note_on,,,,,0,0,7,,,,,,3,,41,85
45504,note_off,,,,,192,0,7,,,,,,3,,41,0
45504,note_on,,,,,0,0,6,,,,,,3,,53,85
45504,note_off,,,,,192,0,4,,,,,,1,,71,0
45504,note_off,,,,,192,0,6,,,,,,3,,53,0
45504,note_off,,,,,192,0,3,,,,,,0,,74,0
45504,note_on,,,,,0,0,3,,,,,,0,,79,85
45504,note_on,,,,,4,0,9,,,,,,4,,53,100
45596,note_off,,,,,92,0,8,,,,,,4,,71,0
45600,note_on,,,,,4,0,8,,,,,,4,,74,100
45692,note_off,,,,,92,0,8,,,,,,4,,74,0
45692,note_off,,,,,188,0,9,,,,,,4,,53,0
45696,note_on,,,,,0,0,6,,,,,,3,,53,85
45696,note_on,,,,,0,0,7,,,,,,3,,41,85
45696,note_off,,,,,192,0,7,,,,,,3,,41,0
45696,note_on,,,,,384,0,5,,,,,,2,,65,85
45696,note_on,,,,,4,0,8,,,,,,4,,79,100
45696,note_on,,,,,192,0,4,,,,,,1,,67,85
45696,note_off,,,,,192,0,6,,,,,,3,,53,0
45696,note_on,,,,,4,0,9,,,,,,4,,53,100
45788,note_off,,,,,92,0,8,,,,,,4,,79,0
45792,note_on,,,,,4,0,8,,,,,,4,,67,100
45884,note_off,,,,,92,0,8,,,,,,4,,67,0
45884,note_off,,,,,188,0,9,,,,,,4,,53,0
45884,note_off,,,,,380,0,3,,,,,,0,,79,0
45888,note_on,,,,,4,0,8,,,,,,4,,71,100
45888,note_off,,,,,192,0,4,,,,,,1,,67,0
45888,note_on,,,,,0,0,6,,,,,,3,,53,85
45888,note_on,,,,,4,0,9,,,,,,4,,41,100
45888,note_off,,,,,192,0,7,,,,,,3,,41,0
45888,note_on,,,,,0,0,7,,,,,,3,,41,85
45888,note_off,,,,,192,0,6,,,,,,3,,53,0
45888,note_on,,,,,4,0,3,,,,,,0,,71,85
45980,note_off,,,,,92,0,8,,,,,,4,,71,0
45984,note_on,,,,,4,0,8,,,,,,4,,74,100
46076,note_off,,,,,188,0,9,,,,,,4,,41,0
46076,note_off,,,,,92,0,8,,,,,,4,,74,0
46080,note_on,,,,,0,0,3,,,,,,0,,72,85
46080,note_on,,,,,0,0,7,,,,,,3,,40,85
46080,note_off,,,,,192,0,7,,,,,,3,,41,0
46080,note_on,,,,,4,0,9,,,,,,4,,40,100
46080,note_on,,,,,0,0,6,,,,,,3,,52,85
46080,note_on,,,,,192,0,4,,,,,,1,,60,85
46080,note_off,,,,,192,0,3,,,,,,0,,71,0
46080,note_off,,,,,192,0,6,,,,,,3,,53,0
46080,note_off,,,,,384,0,5,,,,,,2,,65,0
46080,note_on,,,,,4,0,8,,,,,,4,,79,100
46172,note_off,,,,,92,0,8,,,,,,4,,79,0
46176,note_off,,,,,96,0,4,,,,,,1,,60,0
46176,note_on,,,,,0,0,4,,,,,,1,,62,85
46176,note_on,,,,,4,0,8,,,,,,4,,67,100
46268,note_off,,,,,188,0,9,,,,,,4,,40,0
46268,note_off,,,,,92,0,8,,,,,,4,,67,0
46272,note_off,,,,,96,0,4,,,,,,1,,62,0
46272,note_off,,,,,192,0,3,,,,,,0,,72,0
46272,note_on,,,,,4,0,9,,,,,,4,,52,100
46272,note_on,,,,,0,0,7,,,,,,3,,40,85
46272,note_on,,,,,0,0,4,,,,,,1,,64,85
46272,note_off,,,,,192,0,7,,,,,,3,,40,0
46272,note_on,,,,,4,0,8,,,,,,4,,72,100
46272,note_on,,,,,0,0,6,,,,,,3,,52,85
46272,note_off,,,,,192,0,6,,,,,,3,,52,0
46364,note_off,,,,,92,0,8,,,,,,4,,72,0
46368,note_on,,,,,4,0,8,,,,,,4,,76,100
46380,note_off,,,,,108,0,4,,,,,,1,,64,0
46460,note_off,,,,,92,0,8,,,,,,4,,76,0
46460,note_off,,,,,188,0,9,,,,,,4,,52,0
46464,note_on,,,,,4,0,9,,,,,,4,,52,100
46464,note_on,,,,,192,0,3,,,,,,0,,76,85
46464,note_on,,,,,384,0,5,,,,,,2,,64,85
46464,note_off,,,,,192,0,7,,,,,,3,,40,0
46464,note_on,,,,,0,0,7,,,,,,3,,40,85
46464,note_on,,,,,0,0,6,,,,,,3,,52,85
46464,note_off,,,,,192,0,6,,,,,,3,,52,0
46464,note_on,,,,,4,0,8,,,,,,4,,79,100
46464,note_on,,,,,84,0,4,,,,,,1,,62,85
46556,note_off,,,,,92,0,8,,,,,,4,,79,0
46560,note_on,,,,,4,0,8,,,,,,4,,67,100
46652,note_off,,,,,92,0,8,,,,,,4,,67,0
46652,note_off,,,,,188,0,9,,,,,,4,,52,0
46656,note_on,,,,,4,0,8,,,,,,4,,72,100
46656,note_on,,,,,4,0,9,,,,,,4,,40,100
46656,note_on,,,,,0,0,7,,,,,,3,,40,85
46656,note_on,,,,,0,0,4,,,,,,1,,60,85
46656,note_off,,,,,192,0,6,,,,,,3,,52,0
46656,note_off,,,,,192,0,3,,,,,,0,,76,0
46656,note_off,,,,,192,0,7,,,,,,3,,40,0
46656,note_on,,,,,0,0,6,,,,,,3,,52,85
46656,note_off,,,,,192,0,4,,,,,,1,,62,0
46748,note_off,,,,,92,0,8,,,,,,4,,72,0
46752,note_on,,,,,4,0,8,,,,,,4,,76,100
46844,note_off,,,,,92,0,8,,,,,,4,,76,0
46844,note_off,,,,,188,0,9,,,,,,4,,40,0
46848,note_on,,,,,4,0,9,,,,,,4,,40,100
46848,note_on,,,,,4,0,8,,,,,,4,,79,100
46848,note_off,,,,,192,0,4,,,,,,1,,60,0
46848,note_on,,,,,0,0,4,,,,,,1,,67,85
46848,note_off,,,,,192,0,7,,,,,,3,,40,0
46848,note_on,,,,,0,0,6,,,,,,3,,52,85
46848,note_on,,,,,0,0,7,,,,,,3,,40,85
46848,note_on,,,,,192,0,3,,,,,,0,,72,85
46848,note_off,,,,,384,0,5,,,,,,2,,64,0
46848,note_off,,,,,192,0,6,,,,,,3,,52,0
46940,note_off,,,,,92,0,8,,,,,,4,,79,0
46944,note_on,,,,,4,0,8,,,,,,4,,67,100
47036,note_off,,,,,188,0,9,,,,,,4,,40,0
47036,note_off,,,,,92,0,8,,,,,,4,,67,0
47040,note_on,,,,,0,0,6,,,,,,3,,52,85
47040,note_on,,,,,4,0,9,,,,,,4,,52,100
47040,note_off,,,,,192,0,6,,,,,,3,,52,0
47040,note_on,,,,,0,0,7,,,,,,3,,40,85
47040,note_on,,,,,0,0,4,,,,,,1,,72,85
47040,note_off,,,,,192,0,4,,,,,,1,,67,0
47040,note_on,,,,,4,0,8,,,,,,4,,70,100
47040,note_off,,,,,192,0,3,,,,,,0,,72,0
47040,note_off,,,,,192,0,7,,,,,,3,,40,0
47132,note_off,,,,,92,0,8,,,,,,4,,70,0
47136,note_on,,,,,4,0,8,,,,,,4,,76,100
47228,note_off,,,,,188,0,9,,,,,,4,,52,0
47228,note_off,,,,,92,0,8,,,,,,4,,76,0
47232,note_on,,,,,4,0,9,,,,,,4,,52,100
47232,note_on,,,,,0,0,6,,,,,,3,,52,85
47232,note_off,,,,,192,0,6,,,,,,3,,52,0
47232,note_on,,,,,4,0,8,,,,,,4,,79,100
47232,note_off,,,,,192,0,7,,,,,,3,,40,0
47232,note_on,,,,,0,0,7,,,,,,3,,40,85
47232,note_on,,,,,192,0,3,,,,,,0,,67,85
47232,note_on,,,,,384,0,5,,,,,,2,,64,85
47324,note_off,,,,,92,0,8,,,,,,4,,79,0
47328,note_on,,,,,4,0,8,,,,,,4,,76,100
47420,note_off,,,,,380,0,4,,,,,,1,,72,0
47420,note_off,,,,,92,0,8,,,,,,4,,76,0
47420,note_off,,,,,188,0,9,,,,,,4,,52,0
47424,note_off,,,,,192,0,6,,,,,,3,,52,0
47424,note_on,,,,,4,0,4,,,,,,1,,67,85
47424,note_off,,,,,192,0,7,,,,,,3,,40,0
47424,note_off,,,,,192,0,3,,,,,,0,,67,0
47424,note_on,,,,,4,0,9,,,,,,4,,40,100
47424,note_on,,,,,0,0,7,,,,,,3,,40,85
47424,note_on,,,,,4,0,8,,,,,,4,,70,100
47424,note_on,,,,,0,0,6,,,,,,3,,52,85
47516,note_off,,,,,92,0,8,,,,,,4,,70,0
47520,note_on,,,,,4,0,8,,,,,,4,,67,100
47612,note_off,,,,,92,0,8,,,,,,4,,67,0
47612,note_off,,,,,188,0,9,,,,,,4,,40,0
47616,note_on,,,,,0,0,7,,,,,,3,,41,85
47616,note_off,,,,,192,0,4,,,,,,1,,67,0
47616,note_on,,,,,0,0,4,,,,,,1,,60,85
47616,note_on,,,,,4,0,8,,,,,,4,,69,100
47616,note_off,,,,,192,0,7,,,,,,3,,40,0
47616,note_on,,,,,4,0,9,,,,,,4,,41,100
47616,note_on,,,,,192,0,3,,,,,,0,,65,85
47616,note_off,,,,,384,0,5,,,,,,2,,64,0
47616,note_off,,,,,192,0,6,,,,,,3,,52,0
47616,note_on,,,,,0,0,6,,,,,,3,,53,85
47708,note_off,,,,,92,0,8,,,,,,4,,69,0
47712,note_on,,,,,0,0,3,,,,,,0,,67,85
47712,note_on,,,,,4,0,8,,,,,,4,,65,100
47712,note_off,,,,,96,0,3,,,,,,0,,65,0
47804,note_off,,,,,92,0,8,,,,,,4,,65,0
47804,note_off,,,,,188,0,9,,,,,,4,,41,0
47808,note_on,,,,,0,0,6,,,,,,3,,53,85
47808,note_off,,,,,96,0,3,,,,,,0,,67,0
47808,note_on,,,,,0,0,3,,,,,,0,,69,85
47808,note_on,,,,,4,0,9,,,,,,4,,53,100
47808,note_off,,,,,192,0,6,,,,,,3,,53,0
47808,note_off,,,,,192,0,4,,,,,,1,,60,0
47808,note_on,,,,,4,0,8,,,,,,4,,69,100
47808,note_off,,,,,192,0,7,,,,,,3,,41,0
47808,note_on,,,,,0,0,7,,,,,,3,,41,85
47900,note_off,,,,,92,0,8,,,,,,4,,69,0
47904,note_on,,,,,4,0,8,,,,,,4,,72,100
47916,note_off,,,,,108,0,3,,,,,,0,,69,0
47996,note_off,,,,,92,0,8,,,,,,4,,72,0
47996,note_off,,,,,188,0,9,,,,,,4,,53,0
48000,note_off,,,,,192,0,6,,,,,,3,,53,0
48000,note_on,,,,,4,0,8,,,,,,4,,77,100
48000,note_on,,,,,4,0,9,,,,,,4,,53,100
48000,note_on,,,,,0,0,6,,,,,,3,,53,85
48000,note_on,,,,,384,0,5,,,,,,2,,65,85
48000,note_off,,,,,192,0,7,,,,,,3,,41,0
48000,note_on,,,,,84,0,3,,,,,,0,,67,85
48000,note_on,,,,,192,0,4,,,,,,1,,72,85
48000,note_on,,,,,0,0,7,,,,,,3,,41,85
48092,note_off,,,,,92,0,8,,,,,,4,,77,0
48096,note_on,,,,,4,0,8,,,,,,4,,65,100
48188,note_off,,,,,188,0,9,,,,,,4,,53,0
48188,note_off,,,,,92,0,8,,,,,,4,,65,0
48192,note_on,,,,,4,0,9,,,,,,4,,41,100
48192,note_off,,,,,192,0,4,,,,,,1,,72,0
48192,note_on,,,,,0,0,6,,,,,,3,,53,85
48192,note_off,,,,,192,0,6,,,,,,3,,53,0
48192,note_off,,,,,192,0,3,,,,,,0,,67,0
48192,note_on,,,,,4,0,8,,,,,,4,,69,100
48192,note_on,,,,,0,0,7,,,,,,3,,41,85
48192,note_on,,,,,0,0,3,,,,,,0,,65,85
48192,note_off,,,,,192,0,7,,,,,,3,,41,0
48284,note_off,,,,,92,0,8,,,,,,4,,69,0
48288,note_on,,,,,4,0,8,,,,,,4,,72,100
48380,note_off,,,,,92,0,8,,,,,,4,,72,0
48380,note_off,,,,,188,0,9,,,,,,4,,41,0
48384,note_off,,,,,192,0,3,,,,,,0,,65,0
48384,note_on,,,,,0,0,3,,,,,,0,,72,85
48384,note_off,,,,,384,0,5,,,,,,2,,65,0
48384,note_on,,,,,4,0,9,,,,,,4,,39,100
48384,note_on,,,,,0,0,6,,,,,,3,,51,85
48384,note_off,,,,,192,0,6,,,,,,3,,53,0
48384,note_on,,,,,0,0,7,,,,,,3,,39,85
48384,note_on,,,,,4,0,8,,,,,,4,,77,100
48384,note_on,,,,,192,0,4,,,,,,1,,69,85
48384,note_off,,,,,192,0,7,,,,,,3,,41,0
48476,note_off,,,,,92,0,8,,,,,,4,,77,0
48480,note_on,,,,,4,0,8,,,,,,4,,65,100
48572,note_off,,,,,188,0,9,,,,,,4,,39,0
48572,note_off,,,,,92,0,8,,,,,,4,,65,0
48576,note_on,,,,,4,0,9,,,,,,4,,51,100
48576,note_on,,,,,0,0,3,,,,,,0,,77,85
48576,note_off,,,,,192,0,3,,,,,,0,,72,0
48576,note_on,,,,,0,0,6,,,,,,3,,51,85
48576,note_on,,,,,4,0,8,,,,,,4,,69,100
48576,note_off,,,,,192,0,6,,,,,,3,,51,0
48576,note_on,,,,,0,0,7,,,,,,3,,39,85
48576,note_off,,,,,192,0,7,,,,,,3,,39,0
48576,note_off,,,,,192,0,4,,,,,,1,,69,0
48668,note_off,,,,,92,0,8,,,,,,4,,69,0
48672,note_on,,,,,4,0,8,,,,,,4,,72,100
48764,note_off,,,,,188,0,9,,,,,,4,,51,0
48764,note_off,,,,,92,0,8,,,,,,4,,72,0
48768,note_off,,,,,192,0,7,,,,,,3,,39,0
48768,note_on,,,,,4,0,8,,,,,,4,,77,100
48768,note_on,,,,,0,0,6,,,,,,3,,51,85
48768,note_on,,,,,384,0,5,,,,,,2,,63,85
48768,note_off,,,,,192,0,6,,,,,,3,,51,0
48768,note_on,,,,,4,0,9,,,,,,4,,51,100
48768,note_on,,,,,192,0,4,,,,,,1,,65,85
48768,note_on,,,,,0,0,7,,,,,,3,,39,85
48860,note_off,,,,,92,0,8,,,,,,4,,77,0
48864,note_on,,,,,4,0,8,,,,,,4,,65,100
48956,note_off,,,,,188,0,9,,,,,,4,,51,0
48956,note_off,,,,,380,0,3,,,,,,0,,77,0
48956,note_off,,,,,92,0,8,,,,,,4,,65,0
48960,note_on,,,,,0,0,7,,,,,,3,,39,85
48960,note_off,,,,,192,0,6,,,,,,3,,51,0
48960,note_on,,,,,0,0,6,,,,,,3,,51,85
48960,note_off,,,,,192,0,7,,,,,,3,,39,0
48960,note_off,,,,,192,0,4,,,,,,1,,65,0
48960,note_on,,,,,4,0,3,,,,,,0,,69,85
48960,note_on,,,,,4,0,8,,,,,,4,,69,100
48960,note_on,,,,,4,0,9,,,,,,4,,39,100
49052,note_off,,,,,92,0,8,,,,,,4,,69,0
49056,note_on,,,,,4,0,8,,,,,,4,,72,100
49148,note_off,,,,,188,0,9,,,,,,4,,39,0
49148,note_off,,,,,92,0,8,,,,,,4,,72,0
49152,note_on,,,,,4,0,8,,,,,,4,,77,100
49152,note_off,,,,,192,0,3,,,,,,0,,69,0
49152,note_on,,,,,4,0,9,,,,,,4,,38,100
49152,note_on,,,,,192,0,4,,,,,,1,,58,85
49152,note_off,,,,,192,0,6,,,,,,3,,51,0
49152,note_on,,,,,0,0,6,,,,,,3,,50,85
49152,note_on,,,,,0,0,7,,,,,,3,,38,85
49152,note_off,,,,,192,0,7,,,,,,3,,39,0
49152,note_off,,,,,384,0,5,,,,,,2,,63,0
49152,note_on,,,,,0,0,3,,,,,,0,,70,85
49244,note_off,,,,,92,0,8,,,,,,4,,77,0
49248,note_on,,,,,0,0,4,,,,,,1,,60,85
49248,note_off,,,,,96,0,4,,,,,,1,,58,0
49248,note_on,,,,,4,0,8,,,,,,4,,65,100
49340,note_off,,,,,188,0,9,,,,,,4,,38,0
49340,note_off,,,,,92,0,8,,,,,,4,,65,0
49344,note_off,,,,,192,0,6,,,,,,3,,50,0
49344,note_on,,,,,4,0,9,,,,,,4,,50,100
49344,note_on,,,,,4,0,8,,,,,,4,,70,100
49344,note_off,,,,,192,0,3,,,,,,0,,70,0
49344,note_off,,,,,192,0,7,,,,,,3,,38,0
49344,note_on,,,,,0,0,7,,,,,,3,,38,85
49344,note_on,,,,,0,0,4,,,,,,1,,62,85
49344,note_off,,,,,96,0,4,,,,,,1,,60,0
49344,note_on,,,,,0,0,6,,,,,,3,,50,85
49436,note_off,,,,,92,0,8,,,,,,4,,70,0
49440,note_on,,,,,4,0,8,,,,,,4,,74,100
49452,note_off,,,,,108,0,4,,,,,,1,,62,0
49532,note_off,,,,,92,0,8,,,,,,4,,74,0
49532,note_off,,,,,188,0,9,,,,,,4,,50,0
49536,note_on,,,,,0,0,7,,,,,,3,,38,85
49536,note_off,,,,,192,0,7,,,,,,3,,38,0
49536,note_on,,,,,384,0,5,,,,,,2,,62,85
49536,note_on,,,,,192,0,3,,,,,,0,,74,85
49536,note_off,,,,,192,0,6,,,,,,3,,50,0
49536,note_on,,,,,0,0,6,,,,,,3,,50,85
49536,note_on,,,,,4,0,8,,,,,,4,,77,100
49536,note_on,,,,,84,0,4,,,,,,1,,60,85
49536,note_on,,,,,4,0,9,,,,,,4,,50,100
49628,note_off,,,,,92,0,8,,,,,,4,,77,0
49632,note_on,,,,,4,0,8,,,,,,4,,65,100
49724,note_off,,,,,188,0,9,,,,,,4,,50,0
49724,note_off,,,,,92,0,8,,,,,,4,,65,0
49728,note_on,,,,,0,0,4,,,,,,1,,58,85
49728,note_off,,,,,192,0,4,,,,,,1,,60,0
49728,note_off,,,,,192,0,6,,,,,,3,,50,0
49728,note_on,,,,,0,0,7,,,,,,3,,38,85
49728,note_on,,,,,0,0,6,,,,,,3,,50,85
49728,note_off,,,,,192,0,3,,,,,,0,,74,0
49728,note_on,,,,,4,0,8,,,,,,4,,70,100
49728,note_on,,,,,4,0,9,,,,,,4,,38,100
49728,note_off,,,,,192,0,7,,,,,,3,,38,0
49820,note_off,,,,,92,0,8,,,,,,4,,70,0
49824,note_on,,,,,4,0,8,,,,,,4,,74,100
49916,note_off,,,,,92,0,8,,,,,,4,,74,0
49916,note_off,,,,,188,0,9,,,,,,4,,38,0
49920,note_off,,,,,192,0,7,,,,,,3,,38,0
49920,note_on,,,,,0,0,7,,,,,,3,,38,85
49920,note_off,,,,,384,0,5,,,,,,2,,62,0
49920,note_on,,,,,4,0,8,,,,,,4,,77,100
49920,note_on,,,,,4,0,9,,,,,,4,,38,100
49920,note_on,,,,,192,0,3,,,,,,0,,70,85
49920,note_off,,,,,192,0,4,,,,,,1,,58,0
49920,note_on,,,,,0,0,6,,,,,,3,,50,85
49920,note_off,,,,,192,0,6,,,,,,3,,50,0
49920,note_on,,,,,0,0,4,,,,,,1,,65,85
50012,note_off,,,,,92,0,8,,,,,,4,,77,0
50016,note_on,,,,,4,0,8,,,,,,4,,65,100
50108,note_off,,,,,92,0,8,,,,,,4,,65,0
50108,note_off,,,,,188,0,9,,,,,,4,,38,0
50112,note_on,,,,,4,0,8,,,,,,4,,70,100
50112,note_on,,,,,0,0,6,,,,,,3,,50,85
50112,note_off,,,,,192,0,6,,,,,,3,,50,0
50112,note_off,,,,,192,0,3,,,,,,0,,70,0
50112,note_on,,,,,0,0,7,,,,,,3,,38,85
50112,note_off,,,,,192,0,7,,,,,,3,,38,0
50112,note_on,,,,,4,0,9,,,,,,4,,50,100
50112,note_off,,,,,192,0,4,,,,,,1,,65,0
50112,note_on,,,,,0,0,4,,,,,,1,,70,85
50204,note_off,,,,,92,0,8,,,,,,4,,70,0
50208,note_on,,,,,4,0,8,,,,,,4,,74,100
50300,note_off,,,,,188,0,9,,,,,,4,,50,0
50300,note_off,,,,,92,0,8,,,,,,4,,74,0
50304,note_on,,,,,0,0,7,,,,,,3,,38,85
50304,note_off,,,,,192,0,7,,,,,,3,,38,0
50304,note_on,,,,,192,0,3,,,,,,0,,65,85
50304,note_on,,,,,384,0,5,,,,,,2,,62,85
50304,note_on,,,,,0,0,6,,,,,,3,,50,85
50304,note_on,,,,,4,0,8,,,,,,4,,77,100
50304,note_on,,,,,4,0,9,,,,,,4,,50,100
50304,note_off,,,,,192,0,6,,,,,,3,,50,0
50396,note_off,,,,,92,0,8,,,,,,4,,77,0
50400,note_on,,,,,4,0,8,,,,,,4,,74,100
50492,note_off,,,,,188,0,9,,,,,,4,,50,0
50492,note_off,,,,,380,0,4,,,,,,1,,70,0
50492,note_off,,,,,92,0,8,,,,,,4,,74,0
50496,note_on,,,,,4,0,9,,,,,,4,,38,100
50496,note_on,,,,,0,0,6,,,,,,3,,50,85
50496,note_on,,,,,4,0,8,,,,,,4,,70,100
50496,note_off,,,,,192,0,6,,,,,,3,,50,0
50496,note_off,,,,,192,0,3,,,,,,0,,65,0
50496,note_on,,,,,4,0,4,,,,,,1,,65,85
50496,note_off,,,,,192,0,7,,,,,,3,,38,0
50496,note_on,,,,,0,0,7,,,,,,3,,38,85
50588,note_off,,,,,92,0,8,,,,,,4,,70,0
50592,note_on,,,,,4,0,8,,,,,,4,,74,100
50684,note_off,,,,,188,0,9,,,,,,4,,38,0
50684,note_off,,,,,92,0,8,,,,,,4,,74,0
50688,note_off,,,,,384,0,5,,,,,,2,,62,0
50688,note_on,,,,,4,0,9,,,,,,4,,38,100
50688,note_on,,,,,0,0,7,,,,,,3,,38,85
50688,note_off,,,,,192,0,7,,,,,,3,,38,0
50688,note_off,,,,,192,0,4,,,,,,1,,65,0
50688,note_on,,,,,0,0,5,,,,,,2,,64,85
50688,note_on,,,,,192,0,3,,,,,,0,,64,85
50688,note_on,,,,,0,0,4,,,,,,1,,59,85
50688,note_off,,,,,192,0,6,,,,,,3,,50,0
50688,note_on,,,,,0,0,6,,,,,,3,,50,85
50688,note_on,,,,,4,0,8,,,,,,4,,68,100
50780,note_off,,,,,92,0,8,,,,,,4,,68,0
50780,note_off,,,,,92,0,9,,,,,,4,,38,0
50784,note_on,,,,,4,0,9,,,,,,4,,62,100
50784,note_on,,,,,4,0,8,,,,,,4,,64,100
50876,note_off,,,,,92,0,8,,,,,,4,,64,0
50876,note_off,,,,,92,0,9,,,,,,4,,62,0
50880,note_on,,,,,4,0,9,,,,,,4,,59,100
50880,note_off,,,,,192,0,3,,,,,,0,,64,0
50880,note_on,,,,,4,0,8,,,,,,4,,68,100
50880,note_on,,,,,0,0,3,,,,,,0,,64,85
50880,note_on,,,,,0,0,5,,,,,,2,,71,85
50880,note_off,,,,,192,0,5,,,,,,2,,64,0
50880,note_off,,,,,192,0,4,,,,,,1,,59,0
50972,note_off,,,,,92,0,9,,,,,,4,,59,0
50972,note_off,,,,,92,0,8,,,,,,4,,68,0
50976,note_on,,,,,4,0,9,,,,,,4,,56,100
50976,note_on,,,,,4,0,8,,,,,,4,,71,100
51068,note_off,,,,,92,0,9,,,,,,4,,56,0
51068,note_off,,,,,92,0,8,,,,,,4,,71,0
51072,note_on,,,,,4,0,9,,,,,,4,,52,100
51072,note_on,,,,,4,0,8,,,,,,4,,76,100
51072,note_off,,,,,384,0,7,,,,,,3,,38,0
51072,note_on,,,,,0,0,3,,,,,,0,,68,85
51072,note_off,,,,,192,0,3,,,,,,0,,64,0
51072,note_on,,,,,192,0,4,,,,,,1,,59,85
51072,note_off,,,,,384,0,6,,,,,,3,,50,0
51164,note_off,,,,,92,0,9,,,,,,4,,52,0
51164,note_off,,,,,92,0,8,,,,,,4,,76,0
51168,note_on,,,,,4,0,8,,,,,,4,,64,100
51168,note_on,,,,,4,0,9,,,,,,4,,59,100
51260,note_off,,,,,92,0,9,,,,,,4,,59,0
51260,note_off,,,,,92,0,8,,,,,,4,,64,0
51264,note_off,,,,,384,0,5,,,,,,2,,71,0
51264,note_off,,,,,192,0,4,,,,,,1,,59,0
51264,note_off,,,,,192,0,3,,,,,,0,,68,0
51264,note_on,,,,,0,0,3,,,,,,0,,68,85
51264,note_on,,,,,4,0,9,,,,,,4,,55,100
51264,note_on,,,,,4,0,8,,,,,,4,,68,100
51264,note_on,,,,,0,0,5,,,,,,2,,64,85
51356,note_off,,,,,92,0,8,,,,,,4,,68,0
51356,note_off,,,,,92,0,9,,,,,,4,,55,0
51360,note_on,,,,,4,0,9,,,,,,4,,52,100
51360,note_on,,,,,4,0,8,,,,,,4,,71,100
51452,note_off,,,,,92,0,8,,,,,,4,,71,0
51452,note_off,,,,,92,0,9,,,,,,4,,52,0
51456,note_on,,,,,384,0,7,,,,,,3,,36,85
51456,note_on,,,,,0,0,3,,,,,,0,,69,85
51456,note_off,,,,,192,0,3,,,,,,0,,68,0
51456,note_on,,,,,384,0,6,,,,,,3,,48,85
51456,note_on,,,,,4,0,9,,,,,,4,,48,100
51456,note_on,,,,,4,0,8,,,,,,4,,76,100
51456,note_on,,,,,192,0,4,,,,,,1,,60,85
51548,note_off,,,,,92,0,8,,,,,,4,,76,0
51552,note_on,,,,,4,0,8,,,,,,4,,64,100
51644,note_off,,,,,188,0,9,,,,,,4,,48,0
51644,note_off,,,,,92,0,8,,,,,,4,,64,0
51648,note_on,,,,,4,0,8,,,,,,4,,69,100
51648,note_off,,,,,192,0,4,,,,,,1,,60,0
51648,note_on,,,,,0,0,3,,,,,,0,,69,85
51648,note_off,,,,,192,0,3,,,,,,0,,69,0
51648,note_off,,,,,384,0,5,,,,,,2,,64,0
51648,note_on,,,,,4,0,9,,,,,,4,,60,100
51648,note_on,,,,,0,0,5,,,,,,2,,60,85
51740,note_off,,,,,92,0,8,,,,,,4,,69,0
51744,note_on,,,,,4,0,8,,,,,,4,,72,100
51836,note_off,,,,,92,0,8,,,,,,4,,72,0
51836,note_off,,,,,188,0,9,,,,,,4,,60,0
51840,note_on,,,,,192,0,4,,,,,,1,,64,85
51840,note_on,,,,,0,0,3,,,,,,0,,72,85
51840,note_off,,,,,192,0,3,,,,,,0,,69,0
51840,note_on,,,,,4,0,8,,,,,,4,,76,100
51840,note_off,,,,,384,0,7,,,,,,3,,36,0
51840,note_off,,,,,384,0,6,,,,,,3,,48,0
51932,note_off,,,,,92,0,8,,,,,,4,,76,0
51936,note_on,,,,,4,0,8,,,,,,4,,72,100
52028,note_off,,,,,92,0,8,,,,,,4,,72,0
52032,note_off,,,,,192,0,4,,,,,,1,,64,0
52032,note_on,,,,,0,0,3,,,,,,0,,72,85
52032,note_on,,,,,0,0,5,,,,,,2,,57,85
52032,note_on,,,,,4,0,8,,,,,,4,,69,100
52032,note_off,,,,,192,0,3,,,,,,0,,72,0
52032,note_off,,,,,384,0,5,,,,,,2,,60,0
52124,note_off,,,,,92,0,8,,,,,,4,,69,0
52128,note_on,,,,,4,0,8,,,,,,4,,72,100
52220,note_off,,,,,92,0,8,,,,,,4,,72,0
52224,note_on,,,,,384,0,6,,,,,,3,,48,85
52224,note_on,,,,,4,0,8,,,,,,4,,66,100
52224,note_on,,,,,384,0,7,,,,,,3,,36,85
52224,note_on,,,,,0,0,3,,,,,,0,,62,85
52224,note_on,,,,,192,0,4,,,,,,1,,66,85
52224,note_off,,,,,192,0,3,,,,,,0,,72,0
52316,note_off,,,,,92,0,8,,,,,,4,,66,0
52320,note_on,,,,,484,0,9,,,,,,4,,60,100
52320,note_on,,,,,4,0,8,,,,,,4,,62,100
52412,note_off,,,,,92,0,9,,,,,,4,,60,0
52412,note_off,,,,,92,0,8,,,,,,4,,62,0
52416,note_off,,,,,192,0,4,,,,,,1,,66,0
52416,note_on,,,,,4,0,9,,,,,,4,,57,100
52416,note_on,,,,,0,0,5,,,,,,2,,69,85
52416,note_off,,,,,384,0,5,,,,,,2,,57,0
52416,note_on,,,,,4,0,8,,,,,,4,,66,100
52416,note_on,,,,,0,0,3,,,,,,0,,62,85
52416,note_off,,,,,192,0,3,,,,,,0,,62,0
52508,note_off,,,,,92,0,8,,,,,,4,,66,0
52508,note_off,,,,,92,0,9,,,,,,4,,57,0
52512,note_on,,,,,4,0,8,,,,,,4,,69,100
52512,note_on,,,,,4,0,9,,,,,,4,,54,100
52604,note_off,,,,,92,0,9,,,,,,4,,54,0
52604,note_off,,,,,92,0,8,,,,,,4,,69,0
52608,note_on,,,,,4,0,9,,,,,,4,,50,100
52608,note_off,,,,,192,0,3,,,,,,0,,62,0
52608,note_on,,,,,0,0,3,,,,,,0,,66,85
52608,note_off,,,,,384,0,6,,,,,,3,,48,0
52608,note_on,,,,,192,0,4,,,,,,1,,57,85
52608,note_on,,,,,4,0,8,,,,,,4,,74,100
52608,note_off,,,,,384,0,7,,,,,,3,,36,0
52700,note_off,,,,,92,0,8,,,,,,4,,74,0
52700,note_off,,,,,92,0,9,,,,,,4,,50,0
52704,note_on,,,,,4,0,8,,,,,,4,,62,100
52704,note_on,,,,,4,0,9,,,,,,4,,57,100
52796,note_off,,,,,92,0,8,,,,,,4,,62,0
52796,note_off,,,,,92,0,9,,,,,,4,,57,0
52800,note_off,,,,,192,0,4,,,,,,1,,57,0
52800,note_off,,,,,384,0,5,,,,,,2,,69,0
52800,note_on,,,,,0,0,5,,,,,,2,,62,85
52800,note_on,,,,,4,0,9,,,,,,4,,54,100
52800,note_on,,,,,4,0,8,,,,,,4,,66,100
52800,note_off,,,,,192,0,3,,,,,,0,,66,0
52800,note_on,,,,,0,0,3,,,,,,0,,66,85
52892,note_off,,,,,92,0,8,,,,,,4,,66,0
52892,note_off,,,,,92,0,9,,,,,,4,,54,0
52896,note_on,,,,,4,0,9,,,,,,4,,50,100
52896,note_on,,,,,4,0,8,,,,,,4,,69,100
52988,note_off,,,,,92,0,8,,,,,,4,,69,0
52988,note_off,,,,,92,0,9,,,,,,4,,50,0
52992,note_on,,,,,4,0,8,,,,,,4,,74,100
52992,note_on,,,,,384,0,6,,,,,,3,,46,85
52992,note_on,,,,,384,0,7,,,,,,3,,34,85
52992,note_on,,,,,192,0,4,,,,,,1,,58,85
52992,note_on,,,,,0,0,3,,,,,,0,,67,85
52992,note_off,,,,,192,0,3,,,,,,0,,66,0
52992,note_on,,,,,4,0,9,,,,,,4,,46,100
53084,note_off,,,,,92,0,8,,,,,,4,,74,0
53088,note_on,,,,,4,0,8,,,,,,4,,62,100
53180,note_off,,,,,92,0,8,,,,,,4,,62,0
53180,note_off,,,,,188,0,9,,,,,,4,,46,0
53184,note_on,,,,,4,0,9,,,,,,4,,58,100
53184,note_off,,,,,384,0,5,,,,,,2,,62,0
53184,note_on,,,,,0,0,5,,,,,,2,,58,85
53184,note_on,,,,,4,0,8,,,,,,4,,67,100
53184,note_on,,,,,0,0,3,,,,,,0,,67,85
53184,note_off,,,,,192,0,4,,,,,,1,,58,0
53184,note_off,,,,,192,0,3,,,,,,0,,67,0
53276,note_off,,,,,92,0,8,,,,,,4,,67,0
53280,note_on,,,,,4,0,8,,,,,,4,,70,100
53372,note_off,,,,,188,0,9,,,,,,4,,58,0
53372,note_off,,,,,92,0,8,,,,,,4,,70,0
53376,note_off,,,,,384,0,7,,,,,,3,,34,0
53376,note_off,,,,,192,0,3,,,,,,0,,67,0
53376,note_on,,,,,0,0,3,,,,,,0,,70,85
53376,note_off,,,,,384,0,6,,,,,,3,,46,0
53376,note_on,,,,,192,0,4,,,,,,1,,62,85
53376,note_on,,,,,4,0,8,,,,,,4,,74,100
53468,note_off,,,,,92,0,8,,,,,,4,,74,0
53472,note_on,,,,,4,0,8,,,,,,4,,70,100
53564,note_off,,,,,92,0,8,,,,,,4,,70,0
53568,note_off,,,,,384,0,5,,,,,,2,,58,0
53568,note_on,,,,,0,0,5,,,,,,2,,55,85
53568,note_on,,,,,4,0,8,,,,,,4,,67,100
53568,note_off,,,,,192,0,4,,,,,,1,,62,0
53568,note_off,,,,,192,0,3,,,,,,0,,70,0
53568,note_on,,,,,0,0,3,,,,,,0,,70,85
53660,note_off,,,,,92,0,8,,,,,,4,,67,0
53664,note_on,,,,,4,0,8,,,,,,4,,70,100
53756,note_off,,,,,92,0,8,,,,,,4,,70,0
53760,note_on,,,,,384,0,6,,,,,,3,,46,85
53760,note_on,,,,,192,0,4,,,,,,1,,64,85
53760,note_off,,,,,192,0,3,,,,,,0,,70,0
53760,note_on,,,,,0,0,3,,,,,,0,,60,85
53760,note_on,,,,,4,0,8,,,,,,4,,64,100
53760,note_on,,,,,384,0,7,,,,,,3,,34,85
53852,note_off,,,,,92,0,8,,,,,,4,,64,0
53856,note_on,,,,,484,0,9,,,,,,4,,58,100
53856,note_on,,,,,4,0,8,,,,,,4,,60,100
53948,note_off,,,,,92,0,9,,,,,,4,,58,0
53948,note_off,,,,,92,0,8,,,,,,4,,60,0
53952,note_on,,,,,0,0,3,,,,,,0,,60,85
53952,note_on,,,,,4,0,9,,,,,,4,,55,100
53952,note_off,,,,,192,0,4,,,,,,1,,64,0
53952,note_off,,,,,384,0,5,,,,,,2,,55,0
53952,note_off,,,,,192,0,3,,,,,,0,,60,0
53952,note_on,,,,,0,0,5,,,,,,2,,67,85
53952,note_on,,,,,4,0,8,,,,,,4,,64,100
54044,note_off,,,,,92,0,8,,,,,,4,,64,0
54044,note_off,,,,,92,0,9,,,,,,4,,55,0
54048,note_on,,,,,4,0,8,,,,,,4,,67,100
54048,note_on,,,,,4,0,9,,,,,,4,,52,100
54140,note_off,,,,,92,0,9,,,,,,4,,52,0
54140,note_off,,,,,92,0,8,,,,,,4,,67,0
54144,note_on,,,,,192,0,4,,,,,,1,,55,85
54144,note_on,,,,,4,0,9,,,,,,4,,48,100
54144,note_off,,,,,384,0,6,,,,,,3,,46,0
54144,note_on,,,,,0,0,3,,,,,,0,,64,85
54144,note_on,,,,,4,0,8,,,,,,4,,72,100
54144,note_off,,,,,384,0,7,,,,,,3,,34,0
54144,note_off,,,,,192,0,3,,,,,,0,,60,0
54236,note_off,,,,,92,0,8,,,,,,4,,72,0
54236,note_off,,,,,92,0,9,,,,,,4,,48,0
54240,note_on,,,,,4,0,9,,,,,,4,,55,100
54240,note_on,,,,,4,0,8,,,,,,4,,60,100
54332,note_off,,,,,92,0,8,,,,,,4,,60,0
54332,note_off,,,,,92,0,9,,,,,,4,,55,0
54336,note_on,,,,,4,0,8,,,,,,4,,64,100
54336,note_on,,,,,0,0,3,,,,,,0,,64,85
54336,note_on,,,,,0,0,5,,,,,,2,,60,85
54336,note_off,,,,,384,0,5,,,,,,2,,67,0
54336,note_on,,,,,4,0,9,,,,,,4,,52,100
54336,note_off,,,,,192,0,4,,,,,,1,,55,0
54336,note_off,,,,,192,0,3,,,,,,0,,64,0
54428,note_off,,,,,92,0,8,,,,,,4,,64,0
54428,note_off,,,,,92,0,9,,,,,,4,,52,0
54432,note_on,,,,,4,0,8,,,,,,4,,67,100
54432,note_on,,,,,4,0,9,,,,,,4,,48,100
54524,note_off,,,,,92,0,8,,,,,,4,,67,0
54524,note_off,,,,,92,0,9,,,,,,4,,48,0
54528,note_off,,,,,192,0,3,,,,,,0,,64,0
54528,note_on,,,,,192,0,4,,,,,,1,,57,85
54528,note_on,,,,,384,0,6,,,,,,3,,45,85
54528,note_on,,,,,384,0,7,,,,,,3,,33,85
54528,note_on,,,,,4,0,9,,,,,,4,,45,100
54528,note_on,,,,,0,0,3,,,,,,0,,65,85
54528,note_on,,,,,4,0,8,,,,,,4,,72,100
54620,note_off,,,,,92,0,8,,,,,,4,,72,0
54624,note_on,,,,,4,0,8,,,,,,4,,60,100
54716,note_off,,,,,92,0,8,,,,,,4,,60,0
54716,note_off,,,,,188,0,9,,,,,,4,,45,0
54720,note_off,,,,,192,0,4,,,,,,1,,57,0
54720,note_on,,,,,4,0,8,,,,,,4,,65,100
54720,note_on,,,,,0,0,3,,,,,,0,,65,85
54720,note_off,,,,,192,0,3,,,,,,0,,65,0
54720,note_off,,,,,384,0,5,,,,,,2,,60,0
54720,note_on,,,,,0,0,5,,,,,,2,,57,85
54720,note_on,,,,,4,0,9,,,,,,4,,57,100
54812,note_off,,,,,92,0,8,,,,,,4,,65,0
54816,note_on,,,,,4,0,8,,,,,,4,,69,100
54908,note_off,,,,,92,0,8,,,,,,4,,69,0
54908,note_off,,,,,188,0,9,,,,,,4,,57,0
54912,note_on,,,,,0,0,6,,,,,,3,,57,85
54912,note_off,,,,,384,0,6,,,,,,3,,45,0
54912,note_off,,,,,192,0,3,,,,,,0,,65,0
54912,note_on,,,,,0,0,3,,,,,,0,,69,85
54912,note_on,,,,,0,0,7,,,,,,3,,45,85
54912,note_off,,,,,384,0,7,,,,,,3,,33,0
54912,note_on,,,,,192,0,4,,,,,,1,,60,85
54912,note_on,,,,,4,0,8,,,,,,4,,72,100
55004,note_off,,,,,92,0,8,,,,,,4,,72,0
55008,note_on,,,,,100,0,9,,,,,,4,,57,100
55008,note_on,,,,,4,0,8,,,,,,4,,69,100
55100,note_off,,,,,92,0,9,,,,,,4,,57,0
55100,note_off,,,,,92,0,8,,,,,,4,,69,0
55104,note_on,,,,,4,0,9,,,,,,4,,60,100
55104,note_on,,,,,0,0,5,,,,,,2,,53,85
55104,note_off,,,,,384,0,5,,,,,,2,,57,0
55104,note_on,,,,,4,0,8,,,,,,4,,65,100
55104,note_off,,,,,192,0,3,,,,,,0,,69,0
55104,note_on,,,,,0,0,3,,,,,,0,,69,85
55104,note_off,,,,,192,0,4,,,,,,1,,60,0
55196,note_off,,,,,92,0,8,,,,,,4,,65,0
55196,note_off,,,,,92,0,9,,,,,,4,,60,0
55200,note_on,,,,,4,0,8,,,,,,4,,69,100
55200,note_on,,,,,4,0,9,,,,,,4,,57,100
55292,note_off,,,,,92,0,9,,,,,,4,,57,0
55292,note_off,,,,,92,0,8,,,,,,4,,69,0
55296,note_off,,,,,192,0,3,,,,,,0,,69,0
55296,note_on,,,,,0,0,3,,,,,,0,,70,85
55296,note_on,,,,,192,0,4,,,,,,1,,62,85
55296,note_on,,,,,4,0,8,,,,,,4,,62,100
55296,note_on,,,,,4,0,9,,,,,,4,,45,100
55388,note_off,,,,,92,0,9,,,,,,4,,45,0
55388,note_off,,,,,92,0,8,,,,,,4,,62,0
55392,note_on,,,,,4,0,9,,,,,,4,,50,100
55392,note_on,,,,,4,0,8,,,,,,4,,58,100
55484,note_off,,,,,92,0,9,,,,,,4,,50,0
55484,note_off,,,,,92,0,8,,,,,,4,,58,0
55488,note_on,,,,,4,0,9,,,,,,4,,53,100
55488,note_on,,,,,4,0,8,,,,,,4,,62,100
55488,note_off,,,,,192,0,4,,,,,,1,,62,0
55488,note_off,,,,,384,0,5,,,,,,2,,53,0
55488,note_on,,,,,0,0,5,,,,,,2,,70,85
55580,note_off,,,,,92,0,8,,,,,,4,,62,0
55580,note_off,,,,,92,0,9,,,,,,4,,53,0
55584,note_on,,,,,4,0,9,,,,,,4,,57,100
55584,note_on,,,,,4,0,8,,,,,,4,,65,100
55676,note_off,,,,,92,0,9,,,,,,4,,57,0
55676,note_off,,,,,92,0,8,,,,,,4,,65,0
55680,note_on,,,,,192,0,4,,,,,,1,,64,85
55680,note_on,,,,,0,0,7,,,,,,3,,43,85
55680,note_off,,,,,768,0,7,,,,,,3,,45,0
55680,note_on,,,,,0,0,6,,,,,,3,,55,85
55680,note_on,,,,,4,0,8,,,,,,4,,70,100
55680,note_on,,,,,4,0,9,,,,,,4,,43,100
55680,note_off,,,,,768,0,6,,,,,,3,,57,0
55772,note_off,,,,,92,0,9,,,,,,4,,43,0
55772,note_off,,,,,92,0,8,,,,,,4,,70,0
55776,note_on,,,,,4,0,9,,,,,,4,,55,100
55776,note_on,,,,,4,0,8,,,,,,4,,67,100
55868,note_off,,,,,92,0,8,,,,,,4,,67,0
55868,note_off,,,,,92,0,9,,,,,,4,,55,0
55872,note_on,,,,,4,0,8,,,,,,4,,64,100
55872,note_on,,,,,0,0,5,,,,,,2,,67,85
55872,note_off,,,,,384,0,5,,,,,,2,,70,0
55872,note_off,,,,,192,0,4,,,,,,1,,64,0
55872,note_on,,,,,4,0,9,,,,,,4,,58,100
55964,note_off,,,,,92,0,8,,,,,,4,,64,0
55964,note_off,,,,,92,0,9,,,,,,4,,58,0
55968,note_on,,,,,4,0,8,,,,,,4,,67,100
55968,note_on,,,,,4,0,9,,,,,,4,,55,100
56060,note_off,,,,,92,0,9,,,,,,4,,55,0
56060,note_off,,,,,92,0,8,,,,,,4,,67,0
56064,note_on,,,,,0,0,5,,,,,,2,,64,85
56064,note_on,,,,,192,0,4,,,,,,1,,64,85
56064,note_on,,,,,4,0,9,,,,,,4,,43,100
56064,note_on,,,,,0,0,3,,,,,,0,,69,85
56064,note_off,,,,,768,0,3,,,,,,0,,70,0
56064,note_off,,,,,192,0,5,,,,,,2,,67,0
56064,note_on,,,,,4,0,8,,,,,,4,,60,100
56156,note_off,,,,,92,0,9,,,,,,4,,43,0
56156,note_off,,,,,92,0,8,,,,,,4,,60,0
56160,note_on,,,,,4,0,9,,,,,,4,,48,100
56160,note_on,,,,,4,0,8,,,,,,4,,57,100
56252,note_off,,,,,92,0,8,,,,,,4,,57,0
56252,note_off,,,,,92,0,9,,,,,,4,,48,0
56256,note_on,,,,,4,0,8,,,,,,4,,60,100
56256,note_on,,,,,4,0,9,,,,,,4,,52,100
56256,note_off,,,,,192,0,5,,,,,,2,,64,0
56256,note_off,,,,,192,0,4,,,,,,1,,64,0
56256,note_on,,,,,0,0,5,,,,,,2,,69,85
56348,note_off,,,,,92,0,9,,,,,,4,,52,0
56348,note_off,,,,,92,0,8,,,,,,4,,60,0
56352,note_on,,,,,4,0,9,,,,,,4,,55,100
56352,note_on,,,,,4,0,8,,,,,,4,,64,100
56444,note_off,,,,,92,0,8,,,,,,4,,64,0
56444,note_off,,,,,92,0,9,,,,,,4,,55,0
56448,note_on,,,,,0,0,7,,,,,,3,,41,85
56448,note_on,,,,,4,0,9,,,,,,4,,41,100
56448,note_on,,,,,192,0,4,,,,,,1,,62,85
56448,note_on,,,,,4,0,8,,,,,,4,,69,100
56448,note_on,,,,,0,0,6,,,,,,3,,53,85
56448,note_off,,,,,768,0,7,,,,,,3,,43,0
56448,note_off,,,,,768,0,6,,,,,,3,,55,0
56540,note_off,,,,,92,0,9,,,,,,4,,41,0
56540,note_off,,,,,92,0,8,,,,,,4,,69,0
56544,note_on,,,,,4,0,9,,,,,,4,,53,100
56544,note_on,,,,,4,0,8,,,,,,4,,65,100
56636,note_off,,,,,92,0,9,,,,,,4,,53,0
56636,note_off,,,,,92,0,8,,,,,,4,,65,0
56640,note_on,,,,,4,0,9,,,,,,4,,57,100
56640,note_off,,,,,384,0,5,,,,,,2,,69,0
56640,note_on,,,,,0,0,5,,,,,,2,,65,85
56640,note_off,,,,,192,0,4,,,,,,1,,62,0
56640,note_on,,,,,4,0,8,,,,,,4,,62,100
56732,note_off,,,,,92,0,9,,,,,,4,,57,0
56732,note_off,,,,,92,0,8,,,,,,4,,62,0
56736,note_on,,,,,4,0,8,,,,,,4,,65,100
56736,note_on,,,,,4,0,9,,,,,,4,,53,100
56828,note_off,,,,,92,0,8,,,,,,4,,65,0
56828,note_off,,,,,92,0,9,,,,,,4,,53,0
56832,note_off,,,,,192,0,5,,,,,,2,,65,0
56832,note_on,,,,,4,0,9,,,,,,4,,41,100
56832,note_on,,,,,0,0,5,,,,,,2,,62,85
56832,note_on,,,,,192,0,4,,,,,,1,,62,85
56832,note_on,,,,,4,0,8,,,,,,4,,58,100
56832,note_off,,,,,768,0,3,,,,,,0,,69,0
56832,note_on,,,,,0,0,3,,,,,,0,,67,85
56924,note_off,,,,,92,0,8,,,,,,4,,58,0
56924,note_off,,,,,92,0,9,,,,,,4,,41,0
56928,note_on,,,,,4,0,9,,,,,,4,,46,100
56928,note_on,,,,,4,0,8,,,,,,4,,55,100
57020,note_off,,,,,92,0,8,,,,,,4,,55,0
57020,note_off,,,,,92,0,9,,,,,,4,,46,0
57024,note_on,,,,,4,0,8,,,,,,4,,58,100
57024,note_on,,,,,0,0,5,,,,,,2,,67,85
57024,note_off,,,,,192,0,5,,,,,,2,,62,0
57024,note_on,,,,,4,0,9,,,,,,4,,50,100
57024,note_off,,,,,192,0,4,,,,,,1,,62,0
57116,note_off,,,,,92,0,9,,,,,,4,,50,0
57116,note_off,,,,,92,0,8,,,,,,4,,58,0
57120,note_on,,,,,4,0,9,,,,,,4,,53,100
57120,note_on,,,,,4,0,8,,,,,,4,,62,100
57212,note_off,,,,,92,0,9,,,,,,4,,53,0
57212,note_off,,,,,92,0,8,,,,,,4,,62,0
57216,note_on,,,,,4,0,9,,,,,,4,,40,100
57216,note_on,,,,,192,0,4,,,,,,1,,60,85
57216,note_on,,,,,4,0,8,,,,,,4,,67,100
57216,note_on,,,,,0,0,7,,,,,,3,,40,85
57216,note_off,,,,,768,0,7,,,,,,3,,41,0
57216,note_off,,,,,768,0,6,,,,,,3,,53,0
57216,note_on,,,,,0,0,6,,,,,,3,,52,85
57308,note_off,,,,,92,0,8,,,,,,4,,67,0
57308,note_off,,,,,92,0,9,,,,,,4,,40,0
57312,note_on,,,,,4,0,8,,,,,,4,,64,100
57312,note_on,,,,,4,0,9,,,,,,4,,52,100
57404,note_off,,,,,92,0,8,,,,,,4,,64,0
57404,note_off,,,,,380,0,5,,,,,,2,,67,0
57404,note_off,,,,,92,0,9,,,,,,4,,52,0
57408,note_off,,,,,192,0,4,,,,,,1,,60,0
57408,note_on,,,,,4,0,8,,,,,,4,,60,100
57408,note_on,,,,,4,0,9,,,,,,4,,55,100
57408,note_on,,,,,4,0,5,,,,,,2,,64,85
57500,note_off,,,,,92,0,9,,,,,,4,,55,0
57500,note_off,,,,,92,0,8,,,,,,4,,60,0
57504,note_on,,,,,4,0,9,,,,,,4,,52,100
57504,note_on,,,,,4,0,8,,,,,,4,,64,100
57596,note_off,,,,,92,0,9,,,,,,4,,52,0
57596,note_off,,,,,92,0,8,,,,,,4,,64,0
57600,note_off,,,,,384,0,7,,,,,,3,,40,0
57600,note_on,,,,,0,0,7,,,,,,3,,41,85
57600,note_off,,,,,384,0,6,,,,,,3,,52,0
57600,note_off,,,,,192,0,5,,,,,,2,,64,0
57600,note_on,,,,,4,0,8,,,,,,4,,57,100
57600,note_on,,,,,0,0,5,,,,,,2,,60,85
57600,note_on,,,,,0,0,3,,,,,,0,,65,85
57600,note_off,,,,,768,0,3,,,,,,0,,67,0
57600,note_on,,,,,0,0,6,,,,,,3,,53,85
57600,note_on,,,,,192,0,4,,,,,,1,,65,85
57600,note_on,,,,,4,0,9,,,,,,4,,41,100
57692,note_off,,,,,92,0,8,,,,,,4,,57,0
57692,note_off,,,,,92,0,9,,,,,,4,,41,0
57696,note_on,,,,,4,0,9,,,,,,4,,45,100
57696,note_on,,,,,4,0,8,,,,,,4,,65,100
57788,note_off,,,,,92,0,8,,,,,,4,,65,0
57788,note_off,,,,,92,0,9,,,,,,4,,45,0
57792,note_on,,,,,4,0,9,,,,,,4,,46,100
57792,note_on,,,,,4,0,8,,,,,,4,,67,100
57884,note_off,,,,,92,0,9,,,,,,4,,46,0
57884,note_off,,,,,92,0,8,,,,,,4,,67,0
57888,note_on,,,,,4,0,9,,,,,,4,,48,100
57888,note_on,,,,,4,0,8,,,,,,4,,69,100
57980,note_off,,,,,92,0,8,,,,,,4,,69,0
57980,note_off,,,,,92,0,9,,,,,,4,,48,0
57984,note_off,,,,,384,0,7,,,,,,3,,41,0
57984,note_on,,,,,4,0,8,,,,,,4,,70,100
57984,note_off,,,,,384,0,4,,,,,,1,,65,0
57984,note_off,,,,,384,0,5,,,,,,2,,60,0
57984,note_off,,,,,384,0,6,,,,,,3,,53,0
57984,note_off,,,,,384,0,3,,,,,,0,,65,0
57984,note_on,,,,,4,0,9,,,,,,4,,50,100
58076,note_off,,,,,92,0,9,,,,,,4,,50,0
58076,note_off,,,,,92,0,8,,,,,,4,,70,0
58080,note_on,,,,,4,0,9,,,,,,4,,52,100
58080,note_on,,,,,4,0,8,,,,,,4,,72,100
58172,note_off,,,,,92,0,9,,,,,,4,,52,0
58172,note_off,,,,,92,0,8,,,,,,4,,72,0
58176,note_on,,,,,4,0,9,,,,,,4,,53,100
58176,note_on,,,,,192,0,5,,,,,,2,,55,100
58176,note_on,,,,,192,0,3,,,,,,0,,67,100
58176,note_on,,,,,192,0,4,,,,,,1,,72,100
58176,note_on,,,,,4,0,8,,,,,,4,,74,100
58176,note_on,,,,,192,0,6,,,,,,3,,52,100
58176,note_on,,,,,192,0,7,,,,,,3,,40,100
58268,note_off,,,,,92,0,9,,,,,,4,,53,0
58268,note_off,,,,,92,0,8,,,,,,4,,74,0
58272,note_on,,,,,4,0,8,,,,,,4,,76,100
58272,note_on,,,,,4,0,9,,,,,,4,,52,100
58364,note_off,,,,,92,0,8,,,,,,4,,76,0
58364,note_off,,,,,92,0,9,,,,,,4,,52,0
58368,note_on,,,,,4,0,9,,,,,,4,,50,100
58368,note_on,,,,,0,0,6,,,,,,3,,50,100
58368,note_off,,,,,192,0,5,,,,,,2,,55,0
58368,note_on,,,,,0,0,5,,,,,,2,,62,100
58368,note_off,,,,,192,0,6,,,,,,3,,52,0
58368,note_on,,,,,0,0,3,,,,,,0,,69,100
58368,note_on,,,,,0,0,7,,,,,,3,,38,100
58368,note_off,,,,,192,0,3,,,,,,0,,67,0
58368,note_off,,,,,192,0,7,,,,,,3,,40,0
58368,note_off,,,,,192,0,4,,,,,,1,,72,0
58368,note_on,,,,,0,0,4,,,,,,1,,65,100
58368,note_on,,,,,4,0,8,,,,,,4,,77,100
58460,note_off,,,,,92,0,4,,,,,,1,,65,0
58460,note_off,,,,,92,0,3,,,,,,0,,69,0
58460,note_off,,,,,92,0,9,,,,,,4,,50,0
58460,note_off,,,,,92,0,8,,,,,,4,,77,0
58464,note_on,,,,,4,0,4,,,,,,1,,72,100
58464,note_on,,,,,4,0,9,,,,,,4,,52,100
58464,note_on,,,,,4,0,8,,,,,,4,,72,100
58464,note_on,,,,,4,0,3,,,,,,0,,72,100
58556,note_off,,,,,92,0,4,,,,,,1,,72,0
58556,note_off,,,,,92,0,9,,,,,,4,,52,0
58556,note_off,,,,,92,0,3,,,,,,0,,72,0
58556,note_off,,,,,92,0,8,,,,,,4,,72,0
58560,note_on,,,,,4,0,8,,,,,,4,,74,100
58560,note_on,,,,,4,0,9,,,,,,4,,53,100
58560,note_on,,,,,4,0,4,,,,,,1,,74,100
58560,note_on,,,,,4,0,3,,,,,,0,,74,100
58652,note_off,,,,,92,0,9,,,,,,4,,53,0
58652,note_off,,,,,92,0,8,,,,,,4,,74,0
58652,note_off,,,,,92,0,4,,,,,,1,,74,0
58652,note_off,,,,,92,0,3,,,,,,0,,74,0
58656,note_on,,,,,4,0,3,,,,,,0,,76,100
58656,note_on,,,,,4,0,8,,,,,,4,,76,100
58656,note_on,,,,,4,0,9,,,,,,4,,55,100
58656,note_on,,,,,4,0,4,,,,,,1,,76,100
58748,note_off,,,,,92,0,8,,,,,,4,,76,0
58748,note_off,,,,,92,0,4,,,,,,1,,76,0
58748,note_off,,,,,92,0,9,,,,,,4,,55,0
58748,note_off,,,,,92,0,3,,,,,,0,,76,0
58752,note_off,,,,,384,0,5,,,,,,2,,62,0
58752,note_on,,,,,4,0,4,,,,,,1,,77,100
58752,note_off,,,,,384,0,6,,,,,,3,,50,0
58752,note_on,,,,,4,0,9,,,,,,4,,57,100
58752,note_on,,,,,4,0,8,,,,,,4,,77,100
58752,note_on,,,,,4,0,3,,,,,,0,,77,100
58752,note_off,,,,,384,0,7,,,,,,3,,38,0
58844,note_off,,,,,92,0,4,,,,,,1,,77,0
58844,note_off,,,,,92,0,8,,,,,,4,,77,0
58844,note_off,,,,,92,0,3,,,,,,0,,77,0
58844,note_off,,,,,92,0,9,,,,,,4,,57,0
58848,note_on,,,,,4,0,4,,,,,,1,,79,100
58848,note_on,,,,,4,0,8,,,,,,4,,79,100
58848,note_on,,,,,4,0,9,,,,,,4,,58,100
58848,note_on,,,,,4,0,3,,,,,,0,,79,100
58848,note_on,,,,,96,0,5,,,,,,2,,64,100
58940,note_off,,,,,92,0,4,,,,,,1,,79,0
58940,note_off,,,,,92,0,9,,,,,,4,,58,0
58940,note_off,,,,,92,0,8,,,,,,4,,79,0
58940,note_off,,,,,92,0,3,,,,,,0,,79,0
58940,note_off,,,,,92,0,5,,,,,,2,,64,0
58944,note_on,,,,,192,0,7,,,,,,3,,36,100
58944,note_on,,,,,4,0,8,,,,,,4,,81,100
58944,note_on,,,,,4,0,9,,,,,,4,,60,100
58944,note_on,,,,,192,0,6,,,,,,3,,48,100
58944,note_on,,,,,4,0,3,,,,,,0,,81,100
58944,note_on,,,,,4,0,4,,,,,,1,,81,100
58944,note_on,,,,,4,0,5,,,,,,2,,65,100
59036,note_off,,,,,92,0,3,,,,,,0,,81,0
59036,note_off,,,,,92,0,5,,,,,,2,,65,0
59036,note_off,,,,,92,0,8,,,,,,4,,81,0
59036,note_off,,,,,92,0,9,,,,,,4,,60,0
59036,note_off,,,,,92,0,7,,,,,,3,,36,0
59036,note_off,,,,,92,0,6,,,,,,3,,48,0
59036,note_off,,,,,92,0,4,,,,,,1,,81,0
59040,note_on,,,,,4,0,6,,,,,,3,,46,100
59040,note_on,,,,,4,0,3,,,,,,0,,82,100
59040,note_on,,,,,4,0,7,,,,,,3,,34,100
59040,note_on,,,,,4,0,5,,,,,,2,,67,100
59040,note_on,,,,,4,0,9,,,,,,4,,58,100
59040,note_on,,,,,4,0,4,,,,,,1,,82,100
59040,note_on,,,,,4,0,8,,,,,,4,,82,100
59132,note_off,,,,,92,0,7,,,,,,3,,34,0
59132,note_off,,,,,92,0,6,,,,,,3,,46,0
59132,note_off,,,,,92,0,4,,,,,,1,,82,0
59132,note_off,,,,,92,0,5,,,,,,2,,67,0
59132,note_off,,,,,92,0,3,,,,,,0,,82,0
59132,note_off,,,,,92,0,9,,,,,,4,,58,0
59132,note_off,,,,,92,0,8,,,,,,4,,82,0
59136,note_on,,,,,4,0,5,,,,,,2,,69,100
59136,note_on,,,,,4,0,3,,,,,,0,,84,100
59136,note_on,,,,,4,0,6,,,,,,3,,45,100
59136,note_on,,,,,4,0,4,,,,,,1,,84,100
59136,note_on,,,,,4,0,7,,,,,,3,,33,100
59136,note_on,,,,,4,0,9,,,,,,4,,57,100
59136,note_on,,,,,4,0,8,,,,,,4,,84,100
59244,note_off,,,,,108,0,3,,,,,,0,,84,0
59244,note_off,,,,,108,0,7,,,,,,3,,33,0
59244,note_off,,,,,108,0,4,,,,,,1,,84,0
59244,note_off,,,,,108,0,6,,,,,,3,,45,0
59244,note_off,,,,,108,0,5,,,,,,2,,69,0
59324,note_off,,,,,188,0,8,,,,,,4,,84,0
59324,note_off,,,,,188,0,9,,,,,,4,,57,0
59328,note_on,,,,,4,0,8,,,,,,4,,77,100
59328,note_on,,,,,84,0,6,,,,,,3,,46,100
59328,note_on,,,,,84,0,5,,,,,,2,,74,100
59328,note_on,,,,,4,0,9,,,,,,4,,60,100
59328,note_on,,,,,84,0,7,,,,,,3,,34,100
59328,note_on,,,,,84,0,3,,,,,,0,,77,100
59328,note_on,,,,,84,0,4,,,,,,1,,77,100
59372,note_off,,,,,44,0,9,,,,,,4,,60,0
59376,note_on,,,,,4,0,9,,,,,,4,,58,100
59420,note_off,,,,,44,0,9,,,,,,4,,58,0
59424,note_on,,,,,4,0,9,,,,,,4,,57,100
59436,note_off,,,,,108,0,7,,,,,,3,,34,0
59436,note_off,,,,,108,0,3,,,,,,0,,77,0
59436,note_off,,,,,108,0,4,,,,,,1,,77,0
59436,note_off,,,,,108,0,6,,,,,,3,,46,0
59436,note_off,,,,,108,0,5,,,,,,2,,74,0
59468,note_off,,,,,44,0,9,,,,,,4,,57,0
59472,note_on,,,,,4,0,9,,,,,,4,,58,100
59516,note_off,,,,,44,0,9,,,,,,4,,58,0
59516,note_off,,,,,188,0,8,,,,,,4,,77,0
59520,note_on,,,,,84,0,6,,,,,,3,,48,100
59520,note_on,,,,,84,0,4,,,,,,1,,67,100
59520,note_on,,,,,84,0,5,,,,,,2,,72,100
59520,note_on,,,,,4,0,8,,,,,,4,,67,100
59520,note_on,,,,,84,0,7,,,,,,3,,36,100
59520,note_on,,,,,4,0,9,,,,,,4,,60,100
59520,note_on,,,,,84,0,3,,,,,,0,,67,100
59628,note_off,,,,,108,0,6,,,,,,3,,48,0
59628,note_off,,,,,108,0,4,,,,,,1,,67,0
59628,note_off,,,,,108,0,7,,,,,,3,,36,0
59628,note_off,,,,,108,0,5,,,,,,2,,72,0
59628,note_off,,,,,108,0,3,,,,,,0,,67,0
59708,note_off,,,,,188,0,8,,,,,,4,,67,0
59708,note_off,,,,,188,0,9,,,,,,4,,60,0
59712,note_on,,,,,84,0,7,,,,,,3,,24,100
59712,note_on,,,,,4,0,9,,,,,,4,,48,100
59712,note_on,,,,,84,0,6,,,,,,3,,36,100
59712,note_on,,,,,84,0,5,,,,,,2,,70,100
59712,note_on,,,,,4,0,8,,,,,,4,,76,100
59712,note_on,,,,,84,0,4,,,,,,1,,76,100
59712,note_on,,,,,84,0,3,,,,,,0,,76,100
59820,note_off,,,,,108,0,3,,,,,,0,,76,0
59820,note_off,,,,,108,0,5,,,,,,2,,70,0
59820,note_off,,,,,108,0,6,,,,,,3,,36,0
59820,note_off,,,,,108,0,7,,,,,,3,,24,0
59820,note_off,,,,,108,0,4,,,,,,1,,76,0
59900,note_off,,,,,188,0,9,,,,,,4,,48,0
59900,note_off,,,,,188,0,8,,,,,,4,,76,0
59904,note_on,,,,,84,0,6,,,,,,3,,41,85
59904,note_on,,,,,84,0,5,,,,,,2,,69,85
59904,note_on,,,,,84,0,4,,,,,,1,,72,85
59904,note_on,,,,,84,0,3,,,,,,0,,77,85
59904,note_on,,,,,0,0,9,,,,,,4,,41,100
59904,note_on,,,,,84,0,7,,,,,,3,,29,85
59904,note_on,,,,,4,0,9,,,,,,4,,53,100
59904,note_on,,,,,4,0,8,,,,,,4,,65,100
59996,note_off,,,,,92,0,8,,,,,,4,,65,0
60000,note_on,,,,,4,0,8,,,,,,4,,67,100
60092,note_off,,,,,188,0,6,,,,,,3,,41,0
60092,note_off,,,,,92,0,8,,,,,,4,,67,0
60092,note_off,,,,,188,0,7,,,,,,3,,29,0
60096,note_on,,,,,4,0,6,,,,,,3,,41,85
60096,note_on,,,,,4,0,7,,,,,,3,,29,85
60096,note_on,,,,,4,0,8,,,,,,4,,69,100
60284,note_off,,,,,188,0,8,,,,,,4,,69,0
60284,note_off,,,,,0,0,9,,,,,,4,,41,0
60284,note_off,,,,,188,0,6,,,,,,3,,41,0
60284,note_off,,,,,380,0,9,,,,,,4,,53,0
60284,note_off,,,,,188,0,7,,,,,,3,,29,0
60288,note_on,,,,,4,0,6,,,,,,3,,41,85
60288,note_on,,,,,4,0,7,,,,,,3,,29,85
60288,note_on,,,,,4,0,8,,,,,,4,,67,100
60476,note_off,,,,,188,0,6,,,,,,3,,41,0
60476,note_off,,,,,188,0,8,,,,,,4,,67,0
60476,note_off,,,,,188,0,7,,,,,,3,,29,0
60480,note_on,,,,,4,0,6,,,,,,3,,41,85
60480,note_on,,,,,4,0,7,,,,,,3,,29,85
60480,note_on,,,,,4,0,8,,,,,,4,,65,100
60668,note_off,,,,,188,0,6,,,,,,3,,41,0
60668,note_off,,,,,188,0,7,,,,,,3,,29,0
60668,note_off,,,,,188,0,8,,,,,,4,,65,0
60672,note_on,,,,,388,0,9,,,,,,4,,57,100
60672,note_on,,,,,4,0,8,,,,,,4,,72,100
60672,note_on,,,,,4,0,7,,,,,,3,,29,85
60672,note_on,,,,,4,0,6,,,,,,3,,41,85
60764,note_off,,,,,92,0,9,,,,,,4,,57,0
60768,note_on,,,,,4,0,9,,,,,,4,,58,100
60860,note_off,,,,,92,0,9,,,,,,4,,58,0
60860,note_off,,,,,188,0,8,,,,,,4,,72,0
60860,note_off,,,,,188,0,6,,,,,,3,,41,0
60860,note_off,,,,,188,0,7,,,,,,3,,29,0
60864,note_on,,,,,4,0,9,,,,,,4,,60,100
60864,note_on,,,,,4,0,8,,,,,,4,,81,100
60864,note_on,,,,,4,0,7,,,,,,3,,29,85
60864,note_on,,,,,4,0,6,,,,,,3,,41,85
60956,note_off,,,,,92,0,9,,,,,,4,,60,0
60960,note_on,,,,,4,0,9,,,,,,4,,58,100
61052,note_off,,,,,92,0,9,,,,,,4,,58,0
61052,note_off,,,,,188,0,7,,,,,,3,,29,0
61052,note_off,,,,,188,0,6,,,,,,3,,41,0
61056,note_on,,,,,4,0,6,,,,,,3,,41,85
61056,note_on,,,,,4,0,7,,,,,,3,,29,85
61056,note_on,,,,,4,0,9,,,,,,4,,62,100
61148,note_off,,,,,92,0,9,,,,,,4,,62,0
61152,note_on,,,,,4,0,9,,,,,,4,,60,100
61244,note_off,,,,,188,0,6,,,,,,3,,41,0
61244,note_off,,,,,188,0,7,,,,,,3,,29,0
61244,note_off,,,,,380,0,8,,,,,,4,,81,0
61244,note_off,,,,,92,0,9,,,,,,4,,60,0
61248,note_on,,,,,4,0,9,,,,,,4,,58,100
61248,note_on,,,,,4,0,7,,,,,,3,,29,85
61248,note_on,,,,,4,0,8,,,,,,4,,72,100
61248,note_on,,,,,4,0,6,,,,,,3,,41,85
61340,note_off,,,,,92,0,9,,,,,,4,,58,0
61344,note_on,,,,,4,0,9,,,,,,4,,57,100
61436,note_off,,,,,188,0,8,,,,,,4,,72,0
61436,note_off,,,,,188,0,6,,,,,,3,,41,0
61436,note_off,,,,,1532,0,4,,,,,,1,,72,0
61436,note_off,,,,,188,0,7,,,,,,3,,29,0
61436,note_off,,,,,1532,0,5,,,,,,2,,69,0
61436,note_off,,,,,1532,0,3,,,,,,0,,77,0
61436,note_off,,,,,92,0,9,,,,,,4,,57,0
61440,note_on,,,,,4,0,5,,,,,,2,,64,85
61440,note_on,,,,,4,0,6,,,,,,3,,41,85
61440,note_on,,,,,4,0,8,,,,,,4,,64,100
61440,note_on,,,,,4,0,9,,,,,,4,,55,100
61440,note_on,,,,,4,0,7,,,,,,3,,29,85
61440,note_on,,,,,4,0,4,,,,,,1,,70,85
61440,note_on,,,,,4,0,3,,,,,,0,,79,85
61532,note_off,,,,,92,0,8,,,,,,4,,64,0
61532,note_off,,,,,92,0,9,,,,,,4,,55,0
61536,note_on,,,,,4,0,8,,,,,,4,,65,100
61536,note_on,,,,,4,0,9,,,,,,4,,57,100
61628,note_off,,,,,92,0,8,,,,,,4,,65,0
61628,note_off,,,,,92,0,9,,,,,,4,,57,0
61628,note_off,,,,,188,0,6,,,,,,3,,41,0
61628,note_off,,,,,188,0,7,,,,,,3,,29,0
61632,note_on,,,,,4,0,9,,,,,,4,,58,100
61632,note_on,,,,,4,0,7,,,,,,3,,29,85
61632,note_on,,,,,4,0,8,,,,,,4,,67,100
61632,note_on,,,,,4,0,6,,,,,,3,,41,85
61724,note_off,,,,,92,0,9,,,,,,4,,58,0
61728,note_on,,,,,4,0,9,,,,,,4,,57,100
61820,note_off,,,,,188,0,7,,,,,,3,,29,0
61820,note_off,,,,,188,0,8,,,,,,4,,67,0
61820,note_off,,,,,92,0,9,,,,,,4,,57,0
61820,note_off,,,,,188,0,6,,,,,,3,,41,0
61824,note_on,,,,,4,0,8,,,,,,4,,65,100
61824,note_on,,,,,4,0,7,,,,,,3,,29,85
61824,note_on,,,,,4,0,6,,,,,,3,,41,85
61824,note_on,,,,,4,0,9,,,,,,4,,58,100
61916,note_off,,,,,92,0,9,,,,,,4,,58,0
61920,note_on,,,,,4,0,9,,,,,,4,,57,100
62012,note_off,,,,,92,0,9,,,,,,4,,57,0
62012,note_off,,,,,188,0,7,,,,,,3,,29,0
62012,note_off,,,,,188,0,6,,,,,,3,,41,0
62012,note_off,,,,,188,0,8,,,,,,4,,65,0
62016,note_on,,,,,4,0,9,,,,,,4,,55,100
62016,note_on,,,,,4,0,7,,,,,,3,,29,85
62016,note_on,,,,,4,0,8,,,,,,4,,64,100
62016,note_on,,,,,4,0,6,,,,,,3,,41,85
62108,note_off,,,,,92,0,9,,,,,,4,,55,0
62112,note_on,,,,,4,0,9,,,,,,4,,53,100
62204,note_off,,,,,188,0,6,,,,,,3,,41,0
62204,note_off,,,,,764,0,5,,,,,,2,,64,0
62204,note_off,,,,,188,0,7,,,,,,3,,29,0
62204,note_off,,,,,764,0,3,,,,,,0,,79,0
62204,note_off,,,,,188,0,8,,,,,,4,,64,0
62204,note_off,,,,,92,0,9,,,,,,4,,53,0
62208,note_on,,,,,4,0,9,,,,,,4,,52,100
62208,note_on,,,,,4,0,7,,,,,,3,,29,85
62208,note_on,,,,,4,0,3,,,,,,0,,76,85
62208,note_on,,,,,4,0,8,,,,,,4,,70,100
62208,note_on,,,,,4,0,5,,,,,,2,,67,85
62208,note_on,,,,,4,0,6,,,,,,3,,41,85
62300,note_off,,,,,92,0,9,,,,,,4,,52,0
62304,note_on,,,,,4,0,9,,,,,,4,,53,100
62396,note_off,,,,,188,0,7,,,,,,3,,29,0
62396,note_off,,,,,188,0,8,,,,,,4,,70,0
62396,note_off,,,,,188,0,6,,,,,,3,,41,0
62396,note_off,,,,,92,0,9,,,,,,4,,53,0
62400,note_on,,,,,4,0,9,,,,,,4,,52,100
62400,note_on,,,,,4,0,8,,,,,,4,,79,100
62400,note_on,,,,,4,0,6,,,,,,3,,41,85
62400,note_on,,,,,4,0,7,,,,,,3,,29,85
62492,note_off,,,,,92,0,9,,,,,,4,,52,0
62496,note_on,,,,,4,0,9,,,,,,4,,50,100
62588,note_off,,,,,92,0,9,,,,,,4,,50,0
62588,note_off,,,,,188,0,6,,,,,,3,,41,0
62588,note_off,,,,,188,0,7,,,,,,3,,29,0
62592,note_on,,,,,4,0,6,,,,,,3,,41,85
62592,note_on,,,,,4,0,9,,,,,,4,,48,100
62592,note_on,,,,,4,0,7,,,,,,3,,29,85
62684,note_off,,,,,92,0,9,,,,,,4,,48,0
62688,note_on,,,,,4,0,9,,,,,,4,,46,100
62780,note_off,,,,,188,0,7,,,,,,3,,29,0
62780,note_off,,,,,92,0,9,,,,,,4,,46,0
62780,note_off,,,,,188,0,6,,,,,,3,,41,0
62780,note_off,,,,,380,0,8,,,,,,4,,79,0
62784,note_on,,,,,4,0,8,,,,,,4,,70,100
62784,note_on,,,,,4,0,9,,,,,,4,,45,100
62784,note_on,,,,,4,0,6,,,,,,3,,41,85
62784,note_on,,,,,4,0,7,,,,,,3,,29,85
62876,note_off,,,,,92,0,9,,,,,,4,,45,0
62880,note_on,,,,,4,0,9,,,,,,4,,43,100
62972,note_off,,,,,188,0,7,,,,,,3,,29,0
62972,note_off,,,,,764,0,5,,,,,,2,,67,0
62972,note_off,,,,,764,0,3,,,,,,0,,76,0
62972,note_off,,,,,188,0,6,,,,,,3,,41,0
62972,note_off,,,,,188,0,8,,,,,,4,,70,0
62972,note_off,,,,,92,0,9,,,,,,4,,43,0
62972,note_off,,,,,1532,0,4,,,,,,1,,70,0
62976,note_on,,,,,4,0,5,,,,,,2,,69,100
62976,note_on,,,,,0,0,9,,,,,,4,,41,100
62976,note_on,,,,,0,0,9,,,,,,4,,48,100
62976,note_on,,,,,4,0,9,,,,,,4,,53,100
62976,note_on,,,,,4,0,4,,,,,,1,,72,100
62976,note_on,,,,,4,0,8,,,,,,4,,69,100
62976,note_on,,,,,4,0,6,,,,,,3,,41,100
62976,note_on,,,,,4,0,3,,,,,,0,,77,100
62976,note_on,,,,,4,0,7,,,,,,3,,29,100
63068,note_off,,,,,92,0,8,,,,,,4,,69,0
63072,note_on,,,,,4,0,8,,,,,,4,,70,100
63164,note_off,,,,,92,0,8,,,,,,4,,70,0
63164,note_off,,,,,188,0,3,,,,,,0,,77,0
63168,note_on,,,,,4,0,8,,,,,,4,,72,100
63168,note_on,,,,,4,0,3,,,,,,0,,65,100
63356,note_off,,,,,188,0,3,,,,,,0,,65,0
63356,note_off,,,,,380,0,9,,,,,,4,,53,0
63356,note_off,,,,,188,0,8,,,,,,4,,72,0
63356,note_off,,,,,380,0,5,,,,,,2,,69,0
63356,note_off,,,,,380,0,7,,,,,,3,,29,0
63356,note_off,,,,,380,0,6,,,,,,3,,41,0
63356,note_off,,,,,380,0,4,,,,,,1,,72,0
63356,note_off,,,,,0,0,9,,,,,,4,,48,0
63356,note_off,,,,,0,0,9,,,,,,4,,41,0
63360,note_on,,,,,4,0,8,,,,,,4,,72,100
63360,note_on,,,,,4,0,3,,,,,,0,,69,100
63452,note_off,,,,,92,0,8,,,,,,4,,72,0
63456,note_on,,,,,4,0,8,,,,,,4,,74,100
63548,note_off,,,,,92,0,8,,,,,,4,,74,0
63548,note_off,,,,,188,0,3,,,,,,0,,69,0
63552,note_on,,,,,4,0,8,,,,,,4,,75,100
63552,note_on,,,,,4,0,3,,,,,,0,,72,100
63740,note_off,,,,,188,0,8,,,,,,4,,75,0
63740,note_off,,,,,188,0,3,,,,,,0,,72,0
63744,note_on,,,,,4,0,8,,,,,,4,,66,100
63744,note_on,,,,,4,0,3,,,,,,0,,62,100
63932,note_off,,,,,188,0,3,,,,,,0,,62,0
63932,note_off,,,,,188,0,8,,,,,,4,,66,0
63936,note_on,,,,,0,0,9,,,,,,4,,50,100
63936,note_on,,,,,580,0,4,,,,,,1,,66,100
63936,note_on,,,,,580,0,9,,,,,,4,,60,100
63936,note_on,,,,,580,0,6,,,,,,3,,50,100
63936,note_on,,,,,4,0,8,,,,,,4,,81,100
63936,note_on,,,,,580,0,5,,,,,,2,,60,100
63936,note_on,,,,,4,0,3,,,,,,0,,81,100
63936,note_on,,,,,580,0,7,,,,,,3,,38,100
64028,note_off,,,,,92,0,8,,,,,,4,,81,0
64028,note_off,,,,,92,0,3,,,,,,0,,81,0
64032,note_on,,,,,4,0,8,,,,,,4,,79,100
64032,note_on,,,,,4,0,3,,,,,,0,,79,100
64124,note_off,,,,,188,0,6,,,,,,3,,50,0
64124,note_off,,,,,0,0,9,,,,,,4,,50,0
64124,note_off,,,,,188,0,9,,,,,,4,,60,0
64124,note_off,,,,,188,0,7,,,,,,3,,38,0
64124,note_off,,,,,92,0,3,,,,,,0,,79,0
64124,note_off,,,,,92,0,8,,,,,,4,,79,0
64124,note_off,,,,,188,0,5,,,,,,2,,60,0
64124,note_off,,,,,188,0,4,,,,,,1,,66,0
64128,note_on,,,,,4,0,6,,,,,,3,,52,100
64128,note_on,,,,,4,0,4,,,,,,1,,67,100
64128,note_on,,,,,4,0,5,,,,,,2,,58,100
64128,note_on,,,,,4,0,3,,,,,,0,,78,100
64128,note_on,,,,,0,0,9,,,,,,4,,52,100
64128,note_on,,,,,4,0,9,,,,,,4,,58,100
64128,note_on,,,,,4,0,8,,,,,,4,,78,100
64128,note_on,,,,,4,0,7,,,,,,3,,40,100
64220,note_off,,,,,92,0,8,,,,,,4,,78,0
64220,note_off,,,,,92,0,3,,,,,,0,,78,0
64224,note_on,,,,,4,0,3,,,,,,0,,76,100
64224,note_on,,,,,4,0,8,,,,,,4,,76,100
64316,note_off,,,,,92,0,3,,,,,,0,,76,0
64316,note_off,,,,,188,0,4,,,,,,1,,67,0
64316,note_off,,,,,188,0,6,,,,,,3,,52,0
64316,note_off,,,,,0,0,9,,,,,,4,,52,0
64316,note_off,,,,,188,0,9,,,,,,4,,58,0
64316,note_off,,,,,92,0,8,,,,,,4,,76,0
64316,note_off,,,,,188,0,5,,,,,,2,,58,0
64316,note_off,,,,,188,0,7,,,,,,3,,40,0
64320,note_on,,,,,4,0,4,,,,,,1,,69,100
64320,note_on,,,,,0,0,9,,,,,,4,,54,100
64320,note_on,,,,,4,0,9,,,,,,4,,57,100
64320,note_on,,,,,4,0,3,,,,,,0,,74,100
64320,note_on,,,,,4,0,8,,,,,,4,,74,100
64320,note_on,,,,,4,0,6,,,,,,3,,54,100
64320,note_on,,,,,4,0,5,,,,,,2,,57,100
64320,note_on,,,,,4,0,7,,,,,,3,,42,100
64412,note_off,,,,,92,0,8,,,,,,4,,74,0
64412,note_off,,,,,92,0,3,,,,,,0,,74,0
64416,note_on,,,,,4,0,8,,,,,,4,,72,100
64416,note_on,,,,,4,0,3,,,,,,0,,72,100
64508,note_off,,,,,188,0,4,,,,,,1,,69,0
64508,note_off,,,,,92,0,8,,,,,,4,,72,0
64508,note_off,,,,,92,0,3,,,,,,0,,72,0
64508,note_off,,,,,188,0,5,,,,,,2,,57,0
64508,note_off,,,,,188,0,6,,,,,,3,,54,0
64508,note_off,,,,,0,0,9,,,,,,4,,54,0
64508,note_off,,,,,188,0,9,,,,,,4,,57,0
64508,note_off,,,,,188,0,7,,,,,,3,,42,0
64512,note_on,,,,,4,0,7,,,,,,3,,43,100
64512,note_on,,,,,4,0,5,,,,,,2,,55,100
64512,note_on,,,,,4,0,6,,,,,,3,,55,100
64512,note_on,,,,,4,0,8,,,,,,4,,70,100
64512,note_on,,,,,4,0,3,,,,,,0,,70,100
64512,note_on,,,,,4,0,9,,,,,,4,,55,100
64512,note_on,,,,,0,0,9,,,,,,4,,50,100
64512,note_on,,,,,0,0,9,,,,,,4,,43,100
64512,note_on,,,,,4,0,4,,,,,,1,,62,100
64604,note_off,,,,,92,0,8,,,,,,4,,70,0
64608,note_on,,,,,4,0,8,,,,,,4,,72,100
64700,note_off,,,,,188,0,3,,,,,,0,,70,0
64700,note_off,,,,,92,0,8,,,,,,4,,72,0
64704,note_on,,,,,4,0,3,,,,,,0,,67,100
64704,note_on,,,,,4,0,8,,,,,,4,,74,100
64892,note_off,,,,,380,0,6,,,,,,3,,55,0
64892,note_off,,,,,380,0,7,,,,,,3,,43,0
64892,note_off,,,,,188,0,8,,,,,,4,,74,0
64892,note_off,,,,,0,0,9,,,,,,4,,50,0
64892,note_off,,,,,380,0,9,,,,,,4,,55,0
64892,note_off,,,,,380,0,5,,,,,,2,,55,0
64892,note_off,,,,,380,0,4,,,,,,1,,62,0
64892,note_off,,,,,188,0,3,,,,,,0,,67,0
64892,note_off,,,,,0,0,9,,,,,,4,,43,0
64896,note_on,,,,,4,0,8,,,,,,4,,74,100
64896,note_on,,,,,4,0,3,,,,,,0,,70,100
64988,note_off,,,,,92,0,8,,,,,,4,,74,0
64992,note_on,,,,,4,0,8,,,,,,4,,76,100
65084,note_off,,,,,188,0,3,,,,,,0,,70,0
65084,note_off,,,,,92,0,8,,,,,,4,,76,0
65088,note_on,,,,,4,0,3,,,,,,0,,74,100
65088,note_on,,,,,4,0,8,,,,,,4,,77,100
65276,note_off,,,,,188,0,8,,,,,,4,,77,0
65276,note_off,,,,,188,0,3,,,,,,0,,74,0
65280,note_on,,,,,4,0,8,,,,,,4,,68,100
65280,note_on,,,,,4,0,3,,,,,,0,,64,100
65468,note_off,,,,,188,0,8,,,,,,4,,68,0
65468,note_off,,,,,188,0,3,,,,,,0,,64,0
65472,note_on,,,,,0,0,9,,,,,,4,,52,100
65472,note_on,,,,,4,0,8,,,,,,4,,83,100
65472,note_on,,,,,580,0,6,,,,,,3,,52,100
65472,note_on,,,,,580,0,7,,,,,,3,,40,100
65472,note_on,,,,,580,0,9,,,,,,4,,62,100
65472,note_on,,,,,580,0,4,,,,,,1,,68,100
65472,note_on,,,,,4,0,3,,,,,,0,,83,100
65472,note_on,,,,,580,0,5,,,,,,2,,62,100
65564,note_off,,,,,92,0,3,,,,,,0,,83,0
65564,note_off,,,,,92,0,8,,,,,,4,,83,0
65568,note_on,,,,,4,0,8,,,,,,4,,81,100
65568,note_on,,,,,4,0,3,,,,,,0,,81,100
65660,note_off,,,,,188,0,4,,,,,,1,,68,0
65660,note_off,,,,,188,0,5,,,,,,2,,62,0
65660,note_off,,,,,188,0,7,,,,,,3,,40,0
65660,note_off,,,,,92,0,3,,,,,,0,,81,0
65660,note_off,,,,,92,0,8,,,,,,4,,81,0
65660,note_off,,,,,188,0,6,,,,,,3,,52,0
65660,note_off,,,,,0,0,9,,,,,,4,,52,0
65660,note_off,,,,,188,0,9,,,,,,4,,62,0
65664,note_on,,,,,4,0,9,,,,,,4,,60,100
65664,note_on,,,,,4,0,3,,,,,,0,,80,100
65664,note_on,,,,,4,0,7,,,,,,3,,42,100
65664,note_on,,,,,4,0,8,,,,,,4,,80,100
65664,note_on,,,,,4,0,6,,,,,,3,,54,100
65664,note_on,,,,,4,0,4,,,,,,1,,69,100
65664,note_on,,,,,4,0,5,,,,,,2,,60,100
65664,note_on,,,,,0,0,9,,,,,,4,,54,100
65756,note_off,,,,,92,0,3,,,,,,0,,80,0
65756,note_off,,,,,92,0,8,,,,,,4,,80,0
65760,note_on,,,,,4,0,8,,,,,,4,,78,100
65760,note_on,,,,,4,0,3,,,,,,0,,78,100
65852,note_off,,,,,188,0,5,,,,,,2,,60,0
65852,note_off,,,,,0,0,9,,,,,,4,,54,0
65852,note_off,,,,,188,0,9,,,,,,4,,60,0
65852,note_off,,,,,92,0,3,,,,,,0,,78,0
65852,note_off,,,,,188,0,7,,,,,,3,,42,0
65852,note_off,,,,,188,0,6,,,,,,3,,54,0
65852,note_off,,,,,92,0,8,,,,,,4,,78,0
65852,note_off,,,,,188,0,4,,,,,,1,,69,0
65856,note_on,,,,,4,0,9,,,,,,4,,56,100
65856,note_on,,,,,4,0,7,,,,,,3,,44,100
65856,note_on,,,,,0,0,9,,,,,,4,,59,100
65856,note_on,,,,,4,0,6,,,,,,3,,56,100
65856,note_on,,,,,4,0,5,,,,,,2,,59,100
65856,note_on,,,,,4,0,4,,,,,,1,,71,100
65856,note_on,,,,,4,0,3,,,,,,0,,76,100
65856,note_on,,,,,4,0,8,,,,,,4,,76,100
65948,note_off,,,,,92,0,3,,,,,,0,,76,0
65948,note_off,,,,,92,0,8,,,,,,4,,76,0
65952,note_on,,,,,4,0,3,,,,,,0,,74,100
65952,note_on,,,,,4,0,8,,,,,,4,,74,100
66044,note_off,,,,,0,0,9,,,,,,4,,59,0
66044,note_off,,,,,188,0,5,,,,,,2,,59,0
66044,note_off,,,,,92,0,3,,,,,,0,,74,0
66044,note_off,,,,,188,0,9,,,,,,4,,56,0
66044,note_off,,,,,188,0,4,,,,,,1,,71,0
66044,note_off,,,,,92,0,8,,,,,,4,,74,0
66044,note_off,,,,,188,0,6,,,,,,3,,56,0
66044,note_off,,,,,188,0,7,,,,,,3,,44,0
66048,note_on,,,,,4,0,4,,,,,,1,,64,100
66048,note_on,,,,,4,0,8,,,,,,4,,73,100
66048,note_on,,,,,4,0,3,,,,,,0,,73,100
66048,note_on,,,,,0,0,9,,,,,,4,,52,100
66048,note_on,,,,,0,0,9,,,,,,4,,45,100
66048,note_on,,,,,4,0,5,,,,,,2,,57,100
66048,note_on,,,,,4,0,6,,,,,,3,,57,100
66048,note_on,,,,,4,0,7,,,,,,3,,45,100
66048,note_on,,,,,4,0,9,,,,,,4,,57,100
66140,note_off,,,,,92,0,8,,,,,,4,,73,0
66144,note_on,,,,,4,0,8,,,,,,4,,74,100
66236,note_off,,,,,188,0,3,,,,,,0,,73,0
66236,note_off,,,,,92,0,8,,,,,,4,,74,0
66240,note_on,,,,,4,0,3,,,,,,0,,73,100
66240,note_on,,,,,4,0,8,,,,,,4,,76,100
66332,note_off,,,,,92,0,8,,,,,,4,,76,0
66336,note_on,,,,,4,0,8,,,,,,4,,77,100
66428,note_off,,,,,380,0,5,,,,,,2,,57,0
66428,note_off,,,,,380,0,7,,,,,,3,,45,0
66428,note_off,,,,,92,0,8,,,,,,4,,77,0
66428,note_off,,,,,188,0,3,,,,,,0,,73,0
66428,note_off,,,,,380,0,6,,,,,,3,,57,0
66428,note_off,,,,,0,0,9,,,,,,4,,45,0
66428,note_off,,,,,380,0,9,,,,,,4,,57,0
66428,note_off,,,,,0,0,9,,,,,,4,,52,0
66428,note_off,,,,,380,0,4,,,,,,1,,64,0
66432,note_on,,,,,4,0,3,,,,,,0,,76,100
66432,note_on,,,,,4,0,8,,,,,,4,,79,100
66524,note_off,,,,,92,0,8,,,,,,4,,79,0
66528,note_on,,,,,4,0,8,,,,,,4,,81,100
66620,note_off,,,,,188,0,3,,,,,,0,,76,0
66620,note_off,,,,,92,0,8,,,,,,4,,81,0
66624,note_on,,,,,4,0,8,,,,,,4,,82,100
66624,note_on,,,,,4,0,3,,,,,,0,,79,100
66716,note_off,,,,,92,0,8,,,,,,4,,82,0
66720,note_on,,,,,4,0,8,,,,,,4,,79,100
66812,note_off,,,,,92,0,8,,,,,,4,,79,0
66812,note_off,,,,,188,0,3,,,,,,0,,79,0
66816,note_on,,,,,4,0,8,,,,,,4,,73,100
66816,note_on,,,,,4,0,3,,,,,,0,,69,100
67004,note_off,,,,,188,0,8,,,,,,4,,73,0
67004,note_off,,,,,188,0,3,,,,,,0,,69,0
67008,note_on,,,,,4,0,8,,,,,,4,,76,100
67008,note_on,,,,,580,0,7,,,,,,3,,33,100
67008,note_on,,,,,580,0,4,,,,,,1,,73,100
67008,note_on,,,,,580,0,5,,,,,,2,,67,100
67008,note_on,,,,,0,0,9,,,,,,4,,57,100
67008,note_on,,,,,580,0,9,,,,,,4,,67,100
67008,note_on,,,,,580,0,6,,,,,,3,,45,100
67008,note_on,,,,,4,0,3,,,,,,0,,76,100
67100,note_off,,,,,92,0,8,,,,,,4,,76,0
67100,note_off,,,,,92,0,3,,,,,,0,,76,0
67104,note_on,,,,,4,0,8,,,,,,4,,74,100
67104,note_on,,,,,4,0,3,,,,,,0,,74,100
67196,note_off,,,,,92,0,8,,,,,,4,,74,0
67196,note_off,,,,,188,0,6,,,,,,3,,45,0
67196,note_off,,,,,188,0,7,,,,,,3,,33,0
67196,note_off,,,,,92,0,3,,,,,,0,,74,0
67196,note_off,,,,,188,0,5,,,,,,2,,67,0
67196,note_off,,,,,188,0,9,,,,,,4,,67,0
67196,note_off,,,,,188,0,4,,,,,,1,,73,0
67196,note_off,,,,,0,0,9,,,,,,4,,57,0
67200,note_on,,,,,4,0,8,,,,,,4,,72,100
67200,note_on,,,,,4,0,6,,,,,,3,,47,100
67200,note_on,,,,,4,0,3,,,,,,0,,73,100
67200,note_on,,,,,4,0,4,,,,,,1,,74,100
67200,note_on,,,,,4,0,5,,,,,,2,,65,100
67200,note_on,,,,,0,0,9,,,,,,4,,59,100
67200,note_on,,,,,4,0,7,,,,,,3,,35,100
67200,note_on,,,,,4,0,9,,,,,,4,,65,100
67292,note_off,,,,,92,0,8,,,,,,4,,72,0
67292,note_off,,,,,92,0,3,,,,,,0,,73,0
67296,note_on,,,,,4,0,3,,,,,,0,,71,100
67296,note_on,,,,,4,0,8,,,,,,4,,71,100
67388,note_off,,,,,92,0,8,,,,,,4,,71,0
67388,note_off,,,,,188,0,4,,,,,,1,,74,0
67388,note_off,,,,,188,0,5,,,,,,2,,65,0
67388,note_off,,,,,188,0,6,,,,,,3,,47,0
67388,note_off,,,,,188,0,7,,,,,,3,,35,0
67388,note_off,,,,,92,0,3,,,,,,0,,71,0
67388,note_off,,,,,188,0,9,,,,,,4,,65,0
67388,note_off,,,,,0,0,9,,,,,,4,,59,0
67392,note_on,,,,,4,0,7,,,,,,3,,37,100
67392,note_on,,,,,4,0,8,,,,,,4,,69,100
67392,note_on,,,,,4,0,4,,,,,,1,,76,100
67392,note_on,,,,,4,0,5,,,,,,2,,64,100
67392,note_on,,,,,4,0,3,,,,,,0,,69,100
67392,note_on,,,,,4,0,6,,,,,,3,,49,100
67392,note_on,,,,,4,0,9,,,,,,4,,64,100
67392,note_on,,,,,0,0,9,,,,,,4,,61,100
67484,note_off,,,,,92,0,3,,,,,,0,,69,0
67484,note_off,,,,,92,0,8,,,,,,4,,69,0
67488,note_on,,,,,4,0,3,,,,,,0,,67,100
67488,note_on,,,,,4,0,8,,,,,,4,,67,100
67580,note_off,,,,,92,0,8,,,,,,4,,67,0
67580,note_off,,,,,92,0,3,,,,,,0,,67,0
67580,note_off,,,,,188,0,4,,,,,,1,,76,0
67580,note_off,,,,,188,0,6,,,,,,3,,49,0
67580,note_off,,,,,188,0,7,,,,,,3,,37,0
67580,note_off,,,,,188,0,9,,,,,,4,,64,0
67580,note_off,,,,,0,0,9,,,,,,4,,61,0
67580,note_off,,,,,188,0,5,,,,,,2,,64,0
67584,note_on,,,,,4,0,6,,,,,,3,,50,100
67584,note_on,,,,,4,0,4,,,,,,1,,69,100
67584,note_on,,,,,4,0,7,,,,,,3,,38,100
67584,note_on,,,,,4,0,3,,,,,,0,,65,100
67584,note_on,,,,,4,0,9,,,,,,4,,62,100
67584,note_on,,,,,4,0,8,,,,,,4,,65,100
67584,note_on,,,,,4,0,5,,,,,,2,,62,100
67676,note_off,,,,,92,0,3,,,,,,0,,65,0
67676,note_off,,,,,92,0,8,,,,,,4,,65,0
67680,note_on,,,,,4,0,3,,,,,,0,,67,100
67680,note_on,,,,,4,0,8,,,,,,4,,67,100
67772,note_off,,,,,92,0,3,,,,,,0,,67,0
67772,note_off,,,,,92,0,8,,,,,,4,,67,0
67772,note_off,,,,,188,0,5,,,,,,2,,62,0
67772,note_off,,,,,188,0,9,,,,,,4,,62,0
67772,note_off,,,,,188,0,7,,,,,,3,,38,0
67772,note_off,,,,,188,0,6,,,,,,3,,50,0
67776,note_on,,,,,4,0,9,,,,,,4,,49,100
67776,note_on,,,,,4,0,6,,,,,,3,,49,100
67776,note_on,,,,,4,0,7,,,,,,3,,37,100
67776,note_on,,,,,4,0,8,,,,,,4,,69,100
67776,note_on,,,,,4,0,3,,,,,,0,,69,100
67776,note_on,,,,,4,0,5,,,,,,2,,64,100
67868,note_off,,,,,284,0,4,,,,,,1,,69,0
67868,note_off,,,,,92,0,8,,,,,,4,,69,0
67868,note_off,,,,,92,0,3,,,,,,0,,69,0
67872,note_on,,,,,4,0,4,,,,,,1,,70,100
67872,note_on,,,,,4,0,8,,,,,,4,,67,100
67872,note_on,,,,,4,0,3,,,,,,0,,67,100
67964,note_off,,,,,188,0,7,,,,,,3,,37,0
67964,note_off,,,,,188,0,5,,,,,,2,,64,0
67964,note_off,,,,,188,0,9,,,,,,4,,49,0
67964,note_off,,,,,92,0,4,,,,,,1,,70,0
67964,note_off,,,,,92,0,8,,,,,,4,,67,0
67964,note_off,,,,,188,0,6,,,,,,3,,49,0
67964,note_off,,,,,92,0,3,,,,,,0,,67,0
67968,note_on,,,,,4,0,8,,,,,,4,,65,100
67968,note_on,,,,,4,0,7,,,,,,3,,38,100
67968,note_on,,,,,4,0,5,,,,,,2,,65,100
67968,note_on,,,,,4,0,9,,,,,,4,,50,100
67968,note_on,,,,,4,0,3,,,,,,0,,65,100
67968,note_on,,,,,4,0,6,,,,,,3,,50,100
67968,note_on,,,,,4,0,4,,,,,,1,,69,100
68060,note_off,,,,,92,0,3,,,,,,0,,65,0
68060,note_off,,,,,92,0,8,,,,,,4,,65,0
68060,note_off,,,,,92,0,4,,,,,,1,,69,0
68064,note_on,,,,,4,0,3,,,,,,0,,64,100
68064,note_on,,,,,4,0,8,,,,,,4,,64,100
68064,note_on,,,,,4,0,4,,,,,,1,,67,100
68156,note_off,,,,,188,0,6,,,,,,3,,50,0
68156,note_off,,,,,92,0,4,,,,,,1,,67,0
68156,note_off,,,,,92,0,8,,,,,,4,,64,0
68156,note_off,,,,,188,0,5,,,,,,2,,65,0
68156,note_off,,,,,188,0,9,,,,,,4,,50,0
68156,note_off,,,,,92,0,3,,,,,,0,,64,0
68156,note_off,,,,,188,0,7,,,,,,3,,38,0
68160,note_on,,,,,4,0,6,,,,,,3,,52,100
68160,note_on,,,,,4,0,8,,,,,,4,,62,100
68160,note_on,,,,,4,0,9,,,,,,4,,52,100
68160,note_on,,,,,4,0,5,,,,,,2,,67,100
68160,note_on,,,,,4,0,4,,,,,,1,,65,100
68160,note_on,,,,,4,0,7,,,,,,3,,40,100
68160,note_on,,,,,4,0,3,,,,,,0,,62,100
68252,note_off,,,,,92,0,8,,,,,,4,,62,0
68252,note_off,,,,,92,0,3,,,,,,0,,62,0
68252,note_off,,,,,92,0,4,,,,,,1,,65,0
68256,note_on,,,,,4,0,8,,,,,,4,,61,100
68256,note_on,,,,,4,0,3,,,,,,0,,61,100
68256,note_on,,,,,4,0,4,,,,,,1,,64,100
68348,note_off,,,,,188,0,5,,,,,,2,,67,0
68348,note_off,,,,,188,0,7,,,,,,3,,40,0
68348,note_off,,,,,188,0,9,,,,,,4,,52,0
68348,note_off,,,,,92,0,8,,,,,,4,,61,0
68348,note_off,,,,,92,0,3,,,,,,0,,61,0
68348,note_off,,,,,188,0,6,,,,,,3,,52,0
68348,note_off,,,,,92,0,4,,,,,,1,,64,0
68352,note_on,,,,,4,0,3,,,,,,0,,62,100
68352,note_on,,,,,4,0,5,,,,,,2,,69,100
68352,note_on,,,,,4,0,9,,,,,,4,,53,100
68352,note_on,,,,,4,0,6,,,,,,3,,53,100
68352,note_on,,,,,4,0,8,,,,,,4,,62,100
68352,note_on,,,,,4,0,7,,,,,,3,,41,100
68352,note_on,,,,,4,0,4,,,,,,1,,62,100
68444,note_off,,,,,92,0,8,,,,,,4,,62,0
68448,note_on,,,,,4,0,8,,,,,,4,,65,100
68540,note_off,,,,,188,0,7,,,,,,3,,41,0
68540,note_off,,,,,188,0,9,,,,,,4,,53,0
68540,note_off,,,,,92,0,8,,,,,,4,,65,0
68540,note_off,,,,,188,0,5,,,,,,2,,69,0
68540,note_off,,,,,188,0,6,,,,,,3,,53,0
68544,note_on,,,,,4,0,5,,,,,,2,,67,100
68544,note_on,,,,,4,0,7,,,,,,3,,40,100
68544,note_on,,,,,4,0,8,,,,,,4,,69,100
68544,note_on,,,,,4,0,6,,,,,,3,,52,100
68544,note_on,,,,,4,0,9,,,,,,4,,52,100
68636,note_off,,,,,92,0,8,,,,,,4,,69,0
68640,note_on,,,,,4,0,8,,,,,,4,,73,100
68732,note_off,,,,,188,0,7,,,,,,3,,40,0
68732,note_off,,,,,188,0,5,,,,,,2,,67,0
68732,note_off,,,,,188,0,6,,,,,,3,,52,0
68732,note_off,,,,,92,0,8,,,,,,4,,73,0
68732,note_off,,,,,188,0,9,,,,,,4,,52,0
68732,note_off,,,,,380,0,3,,,,,,0,,62,0
68732,note_off,,,,,380,0,4,,,,,,1,,62,0
68736,note_on,,,,,4,0,5,,,,,,2,,69,100
68736,note_on,,,,,4,0,6,,,,,,3,,53,100
68736,note_on,,,,,4,0,9,,,,,,4,,53,100
68736,note_on,,,,,4,0,8,,,,,,4,,74,100
68736,note_on,,,,,4,0,7,,,,,,3,,41,100
68828,note_off,,,,,92,0,8,,,,,,4,,74,0
68832,note_on,,,,,4,0,8,,,,,,4,,69,100
68924,note_off,,,,,188,0,7,,,,,,3,,41,0
68924,note_off,,,,,92,0,8,,,,,,4,,69,0
68924,note_off,,,,,188,0,9,,,,,,4,,53,0
68924,note_off,,,,,188,0,5,,,,,,2,,69,0
68924,note_off,,,,,188,0,6,,,,,,3,,53,0
68928,note_on,,,,,4,0,6,,,,,,3,,50,100
68928,note_on,,,,,196,0,3,,,,,,0,,74,85
68928,note_on,,,,,4,0,9,,,,,,4,,50,100
68928,note_on,,,,,4,0,7,,,,,,3,,38,100
68928,note_on,,,,,4,0,8,,,,,,4,,65,100
68928,note_on,,,,,4,0,5,,,,,,2,,71,100
69020,note_off,,,,,92,0,8,,,,,,4,,65,0
69024,note_on,,,,,4,0,8,,,,,,4,,62,100
69116,note_off,,,,,188,0,9,,,,,,4,,50,0
69116,note_off,,,,,92,0,8,,,,,,4,,62,0
69116,note_off,,,,,188,0,5,,,,,,2,,71,0
69116,note_off,,,,,188,0,6,,,,,,3,,50,0
69116,note_off,,,,,188,0,7,,,,,,3,,38,0
69120,note_on,,,,,4,0,7,,,,,,3,,40,85
69120,note_on,,,,,4,0,9,,,,,,4,,56,100
69120,note_on,,,,,0,0,9,,,,,,4,,52,100
69120,note_on,,,,,4,0,5,,,,,,2,,59,85
69120,note_on,,,,,4,0,6,,,,,,3,,52,85
69216,note_on,,,,,100,0,8,,,,,,4,,65,100
69308,note_off,,,,,380,0,3,,,,,,0,,74,0
69308,note_off,,,,,92,0,8,,,,,,4,,65,0
69312,note_on,,,,,4,0,3,,,,,,0,,65,85
69312,note_on,,,,,580,0,4,,,,,,1,,74,85
69312,note_on,,,,,4,0,8,,,,,,4,,71,100
69404,note_off,,,,,92,0,3,,,,,,0,,65,0
69404,note_off,,,,,92,0,8,,,,,,4,,71,0
69408,note_on,,,,,4,0,3,,,,,,0,,62,85
69408,note_on,,,,,4,0,8,,,,,,4,,69,100
69500,note_off,,,,,0,0,9,,,,,,4,,52,0
69500,note_off,,,,,380,0,6,,,,,,3,,52,0
69500,note_off,,,,,380,0,7,,,,,,3,,40,0
69500,note_off,,,,,380,0,9,,,,,,4,,56,0
69500,note_off,,,,,92,0,8,,,,,,4,,69,0
69500,note_off,,,,,92,0,3,,,,,,0,,62,0
69500,note_off,,,,,380,0,5,,,,,,2,,59,0
69504,note_on,,,,,4,0,8,,,,,,4,,71,100
69504,note_on,,,,,4,0,3,,,,,,0,,56,85
69504,note_on,,,,,4,0,5,,,,,,2,,64,85
69596,note_off,,,,,92,0,8,,,,,,4,,71,0
69600,note_on,,,,,4,0,8,,,,,,4,,65,100
69692,note_off,,,,,92,0,8,,,,,,4,,65,0
69692,note_off,,,,,188,0,3,,,,,,0,,56,0
69692,note_off,,,,,380,0,4,,,,,,1,,74,0
69696,note_on,,,,,4,0,3,,,,,,0,,74,85
69696,note_on,,,,,4,0,8,,,,,,4,,64,100
69696,note_on,,,,,4,0,4,,,,,,1,,71,85
69788,note_off,,,,,92,0,8,,,,,,4,,64,0
69788,note_off,,,,,92,0,4,,,,,,1,,71,0
69792,note_on,,,,,4,0,8,,,,,,4,,62,100
69792,note_on,,,,,4,0,4,,,,,,1,,68,85
69884,note_off,,,,,92,0,8,,,,,,4,,62,0
69884,note_off,,,,,380,0,5,,,,,,2,,64,0
69884,note_off,,,,,92,0,4,,,,,,1,,68,0
69888,note_on,,,,,388,0,9,,,,,,4,,52,100
69888,note_on,,,,,388,0,7,,,,,,3,,40,85
69888,note_on,,,,,4,0,4,,,,,,1,,59,85
69888,note_on,,,,,0,0,9,,,,,,4,,56,100
69888,note_on,,,,,388,0,6,,,,,,3,,52,85
69984,note_on,,,,,100,0,8,,,,,,4,,65,100
70076,note_off,,,,,92,0,8,,,,,,4,,65,0
70076,note_off,,,,,380,0,3,,,,,,0,,74,0
70076,note_off,,,,,188,0,4,,,,,,1,,59,0
70080,note_on,,,,,4,0,4,,,,,,1,,74,85
70080,note_on,,,,,4,0,3,,,,,,0,,65,85
70080,note_on,,,,,4,0,8,,,,,,4,,71,100
70172,note_off,,,,,92,0,3,,,,,,0,,65,0
70172,note_off,,,,,92,0,8,,,,,,4,,71,0
70176,note_on,,,,,4,0,8,,,,,,4,,69,100
70176,note_on,,,,,4,0,3,,,,,,0,,62,85
70268,note_off,,,,,380,0,6,,,,,,3,,52,0
70268,note_off,,,,,92,0,8,,,,,,4,,69,0
70268,note_off,,,,,92,0,3,,,,,,0,,62,0
70268,note_off,,,,,380,0,9,,,,,,4,,52,0
70268,note_off,,,,,380,0,7,,,,,,3,,40,0
70268,note_off,,,,,0,0,9,,,,,,4,,56,0
70272,note_on,,,,,4,0,3,,,,,,0,,56,85
70272,note_on,,,,,388,0,5,,,,,,2,,64,85
70272,note_on,,,,,4,0,8,,,,,,4,,71,100
70364,note_off,,,,,92,0,8,,,,,,4,,71,0
70368,note_on,,,,,4,0,8,,,,,,4,,65,100
70460,note_off,,,,,380,0,4,,,,,,1,,74,0
70460,note_off,,,,,92,0,8,,,,,,4,,65,0
70460,note_off,,,,,188,0,3,,,,,,0,,56,0
70464,note_on,,,,,4,0,8,,,,,,4,,64,100
70464,note_on,,,,,4,0,4,,,,,,1,,71,85
70464,note_on,,,,,4,0,3,,,,,,0,,68,85
70556,note_off,,,,,92,0,4,,,,,,1,,71,0
70556,note_off,,,,,92,0,8,,,,,,4,,64,0
70560,note_on,,,,,4,0,8,,,,,,4,,62,100
70560,note_on,,,,,4,0,4,,,,,,1,,68,85
70652,note_off,,,,,92,0,4,,,,,,1,,68,0
70652,note_off,,,,,380,0,5,,,,,,2,,64,0
70652,note_off,,,,,92,0,8,,,,,,4,,62,0
70652,note_off,,,,,188,0,3,,,,,,0,,68,0
70656,note_on,,,,,4,0,3,,,,,,0,,69,85
70656,note_on,,,,,0,0,9,,,,,,4,,45,100
70656,note_on,,,,,0,0,9,,,,,,4,,57,100
70656,note_on,,,,,388,0,9,,,,,,4,,52,100
70656,note_on,,,,,4,0,8,,,,,,4,,60,100
70656,note_on,,,,,388,0,7,,,,,,3,,33,85
70656,note_on,,,,,4,0,4,,,,,,1,,64,85
70656,note_on,,,,,388,0,6,,,,,,3,,45,85
70748,note_off,,,,,92,0,8,,,,,,4,,60,0
70752,note_on,,,,,4,0,8,,,,,,4,,64,100
70844,note_off,,,,,188,0,4,,,,,,1,,64,0
70844,note_off,,,,,188,0,3,,,,,,0,,69,0
70844,note_off,,,,,92,0,8,,,,,,4,,64,0
70848,note_on,,,,,4,0,3,,,,,,0,,64,85
70848,note_on,,,,,4,0,8,,,,,,4,,69,100
70848,note_on,,,,,4,0,4,,,,,,1,,60,85
70940,note_off,,,,,92,0,8,,,,,,4,,69,0
70944,note_on,,,,,4,0,8,,,,,,4,,68,100
71036,note_off,,,,,188,0,4,,,,,,1,,60,0
71036,note_off,,,,,380,0,9,,,,,,4,,52,0
71036,note_off,,,,,380,0,6,,,,,,3,,45,0
71036,note_off,,,,,0,0,9,,,,,,4,,45,0
71036,note_off,,,,,380,0,7,,,,,,3,,33,0
71036,note_off,,,,,188,0,3,,,,,,0,,64,0
71036,note_off,,,,,92,0,8,,,,,,4,,68,0
71036,note_off,,,,,0,0,9,,,,,,4,,57,0
71040,note_on,,,,,4,0,3,,,,,,0,,60,85
71040,note_on,,,,,4,0,8,,,,,,4,,69,100
71040,note_on,,,,,4,0,4,,,,,,1,,57,85
71040,note_on,,,,,388,0,5,,,,,,2,,57,85
71132,note_off,,,,,92,0,8,,,,,,4,,69,0
71136,note_on,,,,,4,0,8,,,,,,4,,65,100
71228,note_off,,,,,92,0,8,,,,,,4,,65,0
71228,note_off,,,,,188,0,4,,,,,,1,,57,0
71228,note_off,,,,,188,0,3,,,,,,0,,60,0
71232,note_on,,,,,4,0,3,,,,,,0,,64,85
71232,note_on,,,,,4,0,4,,,,,,1,,60,85
71232,note_on,,,,,4,0,8,,,,,,4,,64,100
71324,note_off,,,,,92,0,8,,,,,,4,,64,0
71328,note_on,,,,,4,0,8,,,,,,4,,62,100
71420,note_off,,,,,92,0,8,,,,,,4,,62,0
71420,note_off,,,,,188,0,3,,,,,,0,,64,0
71420,note_off,,,,,188,0,4,,,,,,1,,60,0
71420,note_off,,,,,380,0,5,,,,,,2,,57,0
71424,note_on,,,,,4,0,3,,,,,,0,,69,85
71424,note_on,,,,,388,0,6,,,,,,3,,45,85
71424,note_on,,,,,0,0,9,,,,,,4,,57,100
71424,note_on,,,,,0,0,9,,,,,,4,,45,100
71424,note_on,,,,,388,0,9,,,,,,4,,52,100
71424,note_on,,,,,4,0,4,,,,,,1,,64,85
71424,note_on,,,,,388,0,7,,,,,,3,,33,85
71424,note_on,,,,,4,0,8,,,,,,4,,60,100
71516,note_off,,,,,92,0,8,,,,,,4,,60,0
71520,note_on,,,,,4,0,8,,,,,,4,,64,100
71612,note_off,,,,,188,0,4,,,,,,1,,64,0
71612,note_off,,,,,92,0,8,,,,,,4,,64,0
71612,note_off,,,,,188,0,3,,,,,,0,,69,0
71616,note_on,,,,,4,0,8,,,,,,4,,69,100
71616,note_on,,,,,4,0,3,,,,,,0,,64,85
71616,note_on,,,,,4,0,4,,,,,,1,,60,85
71708,note_off,,,,,92,0,8,,,,,,4,,69,0
71712,note_on,,,,,4,0,8,,,,,,4,,68,100
71804,note_off,,,,,0,0,9,,,,,,4,,45,0
71804,note_off,,,,,380,0,9,,,,,,4,,52,0
71804,note_off,,,,,380,0,7,,,,,,3,,33,0
71804,note_off,,,,,0,0,9,,,,,,4,,57,0
71804,note_off,,,,,380,0,6,,,,,,3,,45,0
71804,note_off,,,,,92,0,8,,,,,,4,,68,0
71804,note_off,,,,,188,0,3,,,,,,0,,64,0
71804,note_off,,,,,188,0,4,,,,,,1,,60,0
71808,note_on,,,,,4,0,8,,,,,,4,,69,100
71808,note_on,,,,,4,0,3,,,,,,0,,60,85
71808,note_on,,,,,4,0,4,,,,,,1,,57,85
71808,note_on,,,,,388,0,5,,,,,,2,,57,85
71900,note_off,,,,,92,0,8,,,,,,4,,69,0
71904,note_on,,,,,4,0,8,,,,,,4,,65,100
71996,note_off,,,,,92,0,8,,,,,,4,,65,0
71996,note_off,,,,,188,0,4,,,,,,1,,57,0
71996,note_off,,,,,188,0,3,,,,,,0,,60,0
72000,note_on,,,,,4,0,4,,,,,,1,,61,85
72000,note_on,,,,,4,0,3,,,,,,0,,79,85
72000,note_on,,,,,4,0,8,,,,,,4,,64,100
72092,note_off,,,,,92,0,8,,,,,,4,,64,0
72096,note_on,,,,,4,0,8,,,,,,4,,62,100
72188,note_off,,,,,92,0,8,,,,,,4,,62,0
72188,note_off,,,,,188,0,4,,,,,,1,,61,0
72188,note_off,,,,,380,0,5,,,,,,2,,57,0
72192,note_on,,,,,4,0,4,,,,,,1,,64,85
72192,note_on,,,,,388,0,6,,,,,,3,,57,85
72192,note_on,,,,,388,0,7,,,,,,3,,45,85
72192,note_on,,,,,388,0,9,,,,,,4,,57,100
72192,note_on,,,,,0,0,9,,,,,,4,,61,100
72288,note_on,,,,,100,0,8,,,,,,4,,70,100
72380,note_off,,,,,380,0,3,,,,,,0,,79,0
72380,note_off,,,,,188,0,4,,,,,,1,,64,0
72380,note_off,,,,,92,0,8,,,,,,4,,70,0
72384,note_on,,,,,4,0,8,,,,,,4,,76,100
72384,note_on,,,,,4,0,3,,,,,,0,,70,85
72384,note_on,,,,,4,0,4,,,,,,1,,79,85
72476,note_off,,,,,92,0,3,,,,,,0,,70,0
72476,note_off,,,,,92,0,8,,,,,,4,,76,0
72480,note_on,,,,,4,0,3,,,,,,0,,67,85
72480,note_on,,,,,4,0,8,,,,,,4,,74,100
72572,note_off,,,,,92,0,3,,,,,,0,,67,0
72572,note_off,,,,,0,0,9,,,,,,4,,61,0
72572,note_off,,,,,380,0,6,,,,,,3,,57,0
72572,note_off,,,,,92,0,8,,,,,,4,,74,0
72572,note_off,,,,,380,0,7,,,,,,3,,45,0
72572,note_off,,,,,380,0,9,,,,,,4,,57,0
72576,note_on,,,,,4,0,8,,,,,,4,,76,100
72576,note_on,,,,,4,0,3,,,,,,0,,61,85
72576,note_on,,,,,388,0,5,,,,,,2,,69,85
72668,note_off,,,,,92,0,8,,,,,,4,,76,0
72672,note_on,,,,,4,0,8,,,,,,4,,70,100
72764,note_off,,,,,188,0,3,,,,,,0,,61,0
72764,note_off,,,,,92,0,8,,,,,,4,,70,0
72764,note_off,,,,,380,0,4,,,,,,1,,79,0
72768,note_on,,,,,4,0,3,,,,,,0,,79,85
72768,note_on,,,,,4,0,8,,,,,,4,,69,100
72768,note_on,,,,,4,0,4,,,,,,1,,76,85
72860,note_off,,,,,92,0,8,,,,,,4,,69,0
72860,note_off,,,,,92,0,4,,,,,,1,,76,0
72864,note_on,,,,,4,0,4,,,,,,1,,73,85
72864,note_on,,,,,4,0,8,,,,,,4,,67,100
72956,note_off,,,,,92,0,4,,,,,,1,,73,0
72956,note_off,,,,,92,0,8,,,,,,4,,67,0
72956,note_off,,,,,380,0,5,,,,,,2,,69,0
72960,note_on,,,,,388,0,6,,,,,,3,,57,85
72960,note_on,,,,,4,0,4,,,,,,1,,64,85
72960,note_on,,,,,0,0,9,,,,,,4,,57,100
72960,note_on,,,,,388,0,9,,,,,,4,,61,100
72960,note_on,,,,,388,0,7,,,,,,3,,45,85
73056,note_on,,,,,100,0,8,,,,,,4,,70,100
73148,note_off,,,,,92,0,8,,,,,,4,,70,0
73148,note_off,,,,,188,0,4,,,,,,1,,64,0
73148,note_off,,,,,380,0,3,,,,,,0,,79,0
73152,note_on,,,,,4,0,3,,,,,,0,,70,85
73152,note_on,,,,,4,0,4,,,,,,1,,79,85
73152,note_on,,,,,4,0,8,,,,,,4,,76,100
73244,note_off,,,,,92,0,8,,,,,,4,,76,0
73244,note_off,,,,,92,0,3,,,,,,0,,70,0
73248,note_on,,,,,4,0,8,,,,,,4,,74,100
73248,note_on,,,,,4,0,3,,,,,,0,,67,85
73340,note_off,,,,,92,0,3,,,,,,0,,67,0
73340,note_off,,,,,380,0,7,,,,,,3,,45,0
73340,note_off,,,,,380,0,6,,,,,,3,,57,0
73340,note_off,,,,,0,0,9,,,,,,4,,57,0
73340,note_off,,,,,380,0,9,,,,,,4,,61,0
73340,note_off,,,,,92,0,8,,,,,,4,,74,0
73344,note_on,,,,,4,0,8,,,,,,4,,76,100
73344,note_on,,,,,388,0,5,,,,,,2,,69,85
73344,note_on,,,,,4,0,3,,,,,,0,,61,85
73436,note_off,,,,,92,0,8,,,,,,4,,76,0
73440,note_on,,,,,4,0,8,,,,,,4,,70,100
73532,note_off,,,,,92,0,8,,,,,,4,,70,0
73532,note_off,,,,,188,0,3,,,,,,0,,61,0
73532,note_off,,,,,380,0,4,,,,,,1,,79,0
73536,note_on,,,,,4,0,4,,,,,,1,,76,85
73536,note_on,,,,,4,0,3,,,,,,0,,73,85
73536,note_on,,,,,4,0,8,,,,,,4,,69,100
73628,note_off,,,,,92,0,8,,,,,,4,,69,0
73628,note_off,,,,,92,0,4,,,,,,1,,76,0
73632,note_on,,,,,4,0,8,,,,,,4,,67,100
73632,note_on,,,,,4,0,4,,,,,,1,,73,85
73724,note_off,,,,,188,0,3,,,,,,0,,73,0
73724,note_off,,,,,92,0,8,,,,,,4,,67,0
73724,note_off,,,,,92,0,4,,,,,,1,,73,0
73724,note_off,,,,,380,0,5,,,,,,2,,69,0
73728,note_on,,,,,388,0,6,,,,,,3,,50,85
73728,note_on,,,,,4,0,3,,,,,,0,,74,85
73728,note_on,,,,,388,0,7,,,,,,3,,38,85
73728,note_on,,,,,0,0,9,,,,,,4,,50,100
73728,note_on,,,,,388,0,9,,,,,,4,,57,100
73728,note_on,,,,,0,0,9,,,,,,4,,62,100
73728,note_on,,,,,4,0,4,,,,,,1,,69,85
73728,note_on,,,,,4,0,8,,,,,,4,,65,100
73820,note_off,,,,,92,0,8,,,,,,4,,65,0
73824,note_on,,,,,4,0,8,,,,,,4,,69,100
73916,note_off,,,,,188,0,3,,,,,,0,,74,0
73916,note_off,,,,,188,0,4,,,,,,1,,69,0
73916,note_off,,,,,92,0,8,,,,,,4,,69,0
73920,note_on,,,,,4,0,4,,,,,,1,,65,85
73920,note_on,,,,,4,0,3,,,,,,0,,69,85
73920,note_on,,,,,4,0,8,,,,,,4,,74,100
74012,note_off,,,,,92,0,8,,,,,,4,,74,0
74016,note_on,,,,,4,0,8,,,,,,4,,73,100
74108,note_off,,,,,380,0,9,,,,,,4,,57,0
74108,note_off,,,,,188,0,4,,,,,,1,,65,0
74108,note_off,,,,,188,0,3,,,,,,0,,69,0
74108,note_off,,,,,380,0,7,,,,,,3,,38,0
74108,note_off,,,,,0,0,9,,,,,,4,,62,0
74108,note_off,,,,,92,0,8,,,,,,4,,73,0
74108,note_off,,,,,380,0,6,,,,,,3,,50,0
74108,note_off,,,,,0,0,9,,,,,,4,,50,0
74112,note_on,,,,,4,0,3,,,,,,0,,65,85
74112,note_on,,,,,388,0,5,,,,,,2,,62,85
74112,note_on,,,,,4,0,4,,,,,,1,,62,85
74112,note_on,,,,,4,0,8,,,,,,4,,74,100
74204,note_off,,,,,92,0,8,,,,,,4,,74,0
74208,note_on,,,,,4,0,8,,,,,,4,,70,100
74300,note_off,,,,,188,0,3,,,,,,0,,65,0
74300,note_off,,,,,92,0,8,,,,,,4,,70,0
74300,note_off,,,,,188,0,4,,,,,,1,,62,0
74304,note_on,,,,,4,0,4,,,,,,1,,65,85
74304,note_on,,,,,4,0,3,,,,,,0,,69,85
74304,note_on,,,,,4,0,8,,,,,,4,,69,100
74396,note_off,,,,,92,0,8,,,,,,4,,69,0
74400,note_on,,,,,4,0,8,,,,,,4,,67,100
74492,note_off,,,,,188,0,4,,,,,,1,,65,0
74492,note_off,,,,,380,0,5,,,,,,2,,62,0
74492,note_off,,,,,188,0,3,,,,,,0,,69,0
74492,note_off,,,,,92,0,8,,,,,,4,,67,0
74496,note_on,,,,,4,0,3,,,,,,0,,74,85
74496,note_on,,,,,388,0,6,,,,,,3,,50,85
74496,note_on,,,,,388,0,9,,,,,,4,,57,100
74496,note_on,,,,,0,0,9,,,,,,4,,62,100
74496,note_on,,,,,0,0,9,,,,,,4,,50,100
74496,note_on,,,,,4,0,8,,,,,,4,,65,100
74496,note_on,,,,,4,0,4,,,,,,1,,69,85
74496,note_on,,,,,388,0,7,,,,,,3,,38,85
74588,note_off,,,,,92,0,8,,,,,,4,,65,0
74592,note_on,,,,,4,0,8,,,,,,4,,69,100
74684,note_off,,,,,188,0,4,,,,,,1,,69,0
74684,note_off,,,,,188,0,3,,,,,,0,,74,0
74684,note_off,,,,,92,0,8,,,,,,4,,69,0
74688,note_on,,,,,4,0,4,,,,,,1,,65,85
74688,note_on,,,,,4,0,3,,,,,,0,,69,85
74688,note_on,,,,,4,0,8,,,,,,4,,74,100
74780,note_off,,,,,92,0,8,,,,,,4,,74,0
74784,note_on,,,,,4,0,8,,,,,,4,,73,100
74876,note_off,,,,,380,0,6,,,,,,3,,50,0
74876,note_off,,,,,188,0,4,,,,,,1,,65,0
74876,note_off,,,,,0,0,9,,,,,,4,,50,0
74876,note_off,,,,,0,0,9,,,,,,4,,62,0
74876,note_off,,,,,380,0,9,,,,,,4,,57,0
74876,note_off,,,,,92,0,8,,,,,,4,,73,0
74876,note_off,,,,,188,0,3,,,,,,0,,69,0
74876,note_off,,,,,380,0,7,,,,,,3,,38,0
74880,note_on,,,,,388,0,5,,,,,,2,,62,85
74880,note_on,,,,,4,0,4,,,,,,1,,62,85
74880,note_on,,,,,4,0,3,,,,,,0,,65,85
74880,note_on,,,,,4,0,8,,,,,,4,,74,100
74972,note_off,,,,,92,0,8,,,,,,4,,74,0
74976,note_on,,,,,4,0,8,,,,,,4,,67,100
75068,note_off,,,,,92,0,8,,,,,,4,,67,0
75068,note_off,,,,,188,0,4,,,,,,1,,62,0
75068,note_off,,,,,188,0,3,,,,,,0,,65,0
75072,note_on,,,,,4,0,8,,,,,,4,,65,100
75072,note_on,,,,,4,0,4,,,,,,1,,65,85
75072,note_on,,,,,4,0,3,,,,,,0,,81,85
75164,note_off,,,,,92,0,8,,,,,,4,,65,0
75168,note_on,,,,,4,0,8,,,,,,4,,64,100
75260,note_off,,,,,188,0,4,,,,,,1,,65,0
75260,note_off,,,,,92,0,8,,,,,,4,,64,0
75260,note_off,,,,,380,0,5,,,,,,2,,62,0
75264,note_on,,,,,4,0,4,,,,,,1,,71,85
75264,note_on,,,,,0,0,9,,,,,,4,,63,100
75264,note_on,,,,,388,0,9,,,,,,4,,59,100
75264,note_on,,,,,388,0,6,,,,,,3,,59,85
75264,note_on,,,,,388,0,7,,,,,,3,,47,85
75360,note_on,,,,,100,0,8,,,,,,4,,72,100
75452,note_off,,,,,380,0,3,,,,,,0,,81,0
75452,note_off,,,,,92,0,8,,,,,,4,,72,0
75452,note_off,,,,,188,0,4,,,,,,1,,71,0
75456,note_on,,,,,4,0,3,,,,,,0,,72,85
75456,note_on,,,,,4,0,8,,,,,,4,,78,100
75456,note_on,,,,,4,0,4,,,,,,1,,81,85
75548,note_off,,,,,92,0,3,,,,,,0,,72,0
75548,note_off,,,,,92,0,8,,,,,,4,,78,0
75552,note_on,,,,,4,0,3,,,,,,0,,69,85
75552,note_on,,,,,4,0,8,,,,,,4,,76,100
75644,note_off,,,,,92,0,8,,,,,,4,,76,0
75644,note_off,,,,,380,0,9,,,,,,4,,59,0
75644,note_off,,,,,0,0,9,,,,,,4,,63,0
75644,note_off,,,,,92,0,3,,,,,,0,,69,0
75644,note_off,,,,,380,0,6,,,,,,3,,59,0
75644,note_off,,,,,380,0,7,,,,,,3,,47,0
75648,note_on,,,,,388,0,5,,,,,,2,,71,85
75648,note_on,,,,,4,0,3,,,,,,0,,63,85
75648,note_on,,,,,4,0,8,,,,,,4,,78,100
75740,note_off,,,,,92,0,8,,,,,,4,,78,0
75744,note_on,,,,,4,0,8,,,,,,4,,72,100
75836,note_off,,,,,380,0,4,,,,,,1,,81,0
75836,note_off,,,,,188,0,3,,,,,,0,,63,0
75836,note_off,,,,,92,0,8,,,,,,4,,72,0
75840,note_on,,,,,4,0,4,,,,,,1,,78,85
75840,note_on,,,,,4,0,3,,,,,,0,,81,85
75840,note_on,,,,,4,0,8,,,,,,4,,71,100
75932,note_off,,,,,92,0,4,,,,,,1,,78,0
75932,note_off,,,,,92,0,8,,,,,,4,,71,0
75936,note_on,,,,,4,0,4,,,,,,1,,75,85
75936,note_on,,,,,4,0,8,,,,,,4,,69,100
76028,note_off,,,,,92,0,8,,,,,,4,,69,0
76028,note_off,,,,,92,0,4,,,,,,1,,75,0
76028,note_off,,,,,380,0,5,,,,,,2,,71,0
76032,note_on,,,,,4,0,4,,,,,,1,,66,85
76032,note_on,,,,,388,0,9,,,,,,4,,63,100
76032,note_on,,,,,0,0,9,,,,,,4,,59,100
76032,note_on,,,,,388,0,7,,,,,,3,,47,85
76032,note_on,,,,,388,0,6,,,,,,3,,59,85
76128,note_on,,,,,100,0,8,,,,,,4,,72,100
76220,note_off,,,,,380,0,3,,,,,,0,,81,0
76220,note_off,,,,,188,0,4,,,,,,1,,66,0
76220,note_off,,,,,92,0,8,,,,,,4,,72,0
76224,note_on,,,,,4,0,8,,,,,,4,,78,100
76224,note_on,,,,,4,0,4,,,,,,1,,81,85
76224,note_on,,,,,4,0,3,,,,,,0,,72,85
76316,note_off,,,,,92,0,8,,,,,,4,,78,0
76316,note_off,,,,,92,0,3,,,,,,0,,72,0
76320,note_on,,,,,4,0,8,,,,,,4,,76,100
76320,note_on,,,,,4,0,3,,,,,,0,,69,85
76412,note_off,,,,,380,0,6,,,,,,3,,59,0
76412,note_off,,,,,380,0,9,,,,,,4,,63,0
76412,note_off,,,,,0,0,9,,,,,,4,,59,0
76412,note_off,,,,,380,0,7,,,,,,3,,47,0
76412,note_off,,,,,92,0,3,,,,,,0,,69,0
76412,note_off,,,,,92,0,8,,,,,,4,,76,0
76416,note_on,,,,,4,0,3,,,,,,0,,63,85
76416,note_on,,,,,4,0,8,,,,,,4,,78,100
76416,note_on,,,,,388,0,5,,,,,,2,,71,85
76508,note_off,,,,,92,0,8,,,,,,4,,78,0
76512,note_on,,,,,4,0,8,,,,,,4,,72,100
76604,note_off,,,,,188,0,3,,,,,,0,,63,0
76604,note_off,,,,,380,0,4,,,,,,1,,81,0
76604,note_off,,,,,92,0,8,,,,,,4,,72,0
76608,note_on,,,,,4,0,3,,,,,,0,,71,85
76608,note_on,,,,,4,0,4,,,,,,1,,78,85
76608,note_on,,,,,4,0,8,,,,,,4,,71,100
76700,note_off,,,,,92,0,4,,,,,,1,,78,0
76700,note_off,,,,,92,0,8,,,,,,4,,71,0
76704,note_on,,,,,4,0,8,,,,,,4,,69,100
76704,note_on,,,,,4,0,4,,,,,,1,,75,85
76796,note_off,,,,,380,0,5,,,,,,2,,71,0
76796,note_off,,,,,92,0,8,,,,,,4,,69,0
76796,note_off,,,,,92,0,4,,,,,,1,,75,0
76800,note_on,,,,,4,0,4,,,,,,1,,76,85
76800,note_on,,,,,388,0,6,,,,,,3,,52,85
76800,note_on,,,,,388,0,7,,,,,,3,,40,85
76800,note_on,,,,,388,0,9,,,,,,4,,64,100
76800,note_on,,,,,0,0,9,,,,,,4,,68,100
76896,note_on,,,,,100,0,8,,,,,,4,,77,100
76988,note_off,,,,,188,0,4,,,,,,1,,76,0
76988,note_off,,,,,380,0,3,,,,,,0,,71,0
76988,note_off,,,,,92,0,8,,,,,,4,,77,0
76992,note_on,,,,,4,0,8,,,,,,4,,83,100
76992,note_on,,,,,4,0,4,,,,,,1,,74,85
76992,note_on,,,,,4,0,3,,,,,,0,,65,85
77084,note_off,,,,,92,0,3,,,,,,0,,65,0
77084,note_off,,,,,92,0,8,,,,,,4,,83,0
77088,note_on,,,,,4,0,8,,,,,,4,,81,100
77088,note_on,,,,,4,0,3,,,,,,0,,62,85
77180,note_off,,,,,92,0,3,,,,,,0,,62,0
77180,note_off,,,,,380,0,9,,,,,,4,,64,0
77180,note_off,,,,,380,0,6,,,,,,3,,52,0
77180,note_off,,,,,0,0,9,,,,,,4,,68,0
77180,note_off,,,,,380,0,7,,,,,,3,,40,0
77180,note_off,,,,,92,0,8,,,,,,4,,81,0
77184,note_on,,,,,388,0,5,,,,,,2,,64,85
77184,note_on,,,,,4,0,3,,,,,,0,,56,85
77184,note_on,,,,,4,0,8,,,,,,4,,83,100
77276,note_off,,,,,92,0,8,,,,,,4,,83,0
77280,note_on,,,,,4,0,8,,,,,,4,,77,100
77372,note_off,,,,,92,0,8,,,,,,4,,77,0
77372,note_off,,,,,380,0,4,,,,,,1,,74,0
77372,note_off,,,,,188,0,3,,,,,,0,,56,0
77376,note_on,,,,,4,0,3,,,,,,0,,71,85
77376,note_on,,,,,4,0,8,,,,,,4,,76,100
77376,note_on,,,,,4,0,4,,,,,,1,,71,85
77468,note_off,,,,,92,0,8,,,,,,4,,76,0
77468,note_off,,,,,92,0,4,,,,,,1,,71,0
77472,note_on,,,,,4,0,4,,,,,,1,,68,85
77472,note_on,,,,,4,0,8,,,,,,4,,74,100
77564,note_off,,,,,92,0,8,,,,,,4,,74,0
77564,note_off,,,,,380,0,5,,,,,,2,,64,0
77564,note_off,,,,,92,0,4,,,,,,1,,68,0
77568,note_on,,,,,0,0,9,,,,,,4,,64,100
77568,note_on,,,,,388,0,9,,,,,,4,,68,100
77568,note_on,,,,,4,0,4,,,,,,1,,64,85
77568,note_on,,,,,388,0,6,,,,,,3,,52,85
77568,note_on,,,,,388,0,7,,,,,,3,,40,85
77664,note_on,,,,,100,0,8,,,,,,4,,77,100
77756,note_off,,,,,380,0,3,,,,,,0,,71,0
77756,note_off,,,,,92,0,8,,,,,,4,,77,0
77756,note_off,,,,,188,0,4,,,,,,1,,64,0
77760,note_on,,,,,4,0,8,,,,,,4,,83,100
77760,note_on,,,,,4,0,4,,,,,,1,,74,85
77760,note_on,,,,,4,0,3,,,,,,0,,65,85
77852,note_off,,,,,92,0,8,,,,,,4,,83,0
77852,note_off,,,,,92,0,3,,,,,,0,,65,0
77856,note_on,,,,,4,0,8,,,,,,4,,81,100
77856,note_on,,,,,4,0,3,,,,,,0,,62,85
77948,note_off,,,,,0,0,9,,,,,,4,,64,0
77948,note_off,,,,,92,0,8,,,,,,4,,81,0
77948,note_off,,,,,380,0,7,,,,,,3,,40,0
77948,note_off,,,,,380,0,6,,,,,,3,,52,0
77948,note_off,,,,,380,0,9,,,,,,4,,68,0
77948,note_off,,,,,92,0,3,,,,,,0,,62,0
77952,note_on,,,,,4,0,8,,,,,,4,,83,100
77952,note_on,,,,,4,0,3,,,,,,0,,56,85
77952,note_on,,,,,388,0,5,,,,,,2,,64,85
78044,note_off,,,,,92,0,8,,,,,,4,,83,0
78048,note_on,,,,,4,0,8,,,,,,4,,77,100
78140,note_off,,,,,188,0,3,,,,,,0,,56,0
78140,note_off,,,,,92,0,8,,,,,,4,,77,0
78140,note_off,,,,,380,0,4,,,,,,1,,74,0
78144,note_on,,,,,4,0,4,,,,,,1,,71,85
78144,note_on,,,,,4,0,3,,,,,,0,,76,85
78144,note_on,,,,,4,0,8,,,,,,4,,76,100
78236,note_off,,,,,92,0,8,,,,,,4,,76,0
78236,note_off,,,,,92,0,4,,,,,,1,,71,0
78240,note_on,,,,,4,0,4,,,,,,1,,68,85
78240,note_on,,,,,4,0,8,,,,,,4,,74,100
78332,note_off,,,,,92,0,8,,,,,,4,,74,0
78332,note_off,,,,,380,0,5,,,,,,2,,64,0
78332,note_off,,,,,188,0,3,,,,,,0,,76,0
78332,note_off,,,,,92,0,4,,,,,,1,,68,0
78336,note_on,,,,,0,0,9,,,,,,4,,57,100
78336,note_on,,,,,388,0,6,,,,,,3,,57,85
78336,note_on,,,,,4,0,8,,,,,,4,,72,100
78336,note_on,,,,,388,0,7,,,,,,3,,45,85
78336,note_on,,,,,4,0,4,,,,,,1,,69,85
78336,note_on,,,,,4,0,3,,,,,,0,,76,85
78336,note_on,,,,,388,0,9,,,,,,4,,69,100
78428,note_off,,,,,92,0,8,,,,,,4,,72,0
78432,note_on,,,,,4,0,8,,,,,,4,,76,100
78524,note_off,,,,,92,0,8,,,,,,4,,76,0
78524,note_off,,,,,188,0,3,,,,,,0,,76,0
78524,note_off,,,,,188,0,4,,,,,,1,,69,0
78528,note_on,,,,,4,0,4,,,,,,1,,64,85
78528,note_on,,,,,4,0,3,,,,,,0,,72,85
78528,note_on,,,,,4,0,8,,,,,,4,,81,100
78620,note_off,,,,,92,0,8,,,,,,4,,81,0
78624,note_on,,,,,4,0,8,,,,,,4,,80,100
78716,note_off,,,,,380,0,7,,,,,,3,,45,0
78716,note_off,,,,,380,0,6,,,,,,3,,57,0
78716,note_off,,,,,0,0,9,,,,,,4,,57,0
78716,note_off,,,,,380,0,9,,,,,,4,,69,0
78716,note_off,,,,,92,0,8,,,,,,4,,80,0
78716,note_off,,,,,188,0,4,,,,,,1,,64,0
78716,note_off,,,,,188,0,3,,,,,,0,,72,0
78720,note_on,,,,,4,0,4,,,,,,1,,60,85
78720,note_on,,,,,388,0,5,,,,,,2,,69,85
78720,note_on,,,,,4,0,8,,,,,,4,,81,100
78720,note_on,,,,,4,0,3,,,,,,0,,69,85
78812,note_off,,,,,92,0,8,,,,,,4,,81,0
78816,note_on,,,,,4,0,8,,,,,,4,,74,100
78908,note_off,,,,,92,0,8,,,,,,4,,74,0
78908,note_off,,,,,188,0,4,,,,,,1,,60,0
78908,note_off,,,,,188,0,3,,,,,,0,,69,0
78912,note_on,,,,,4,0,4,,,,,,1,,64,85
78912,note_on,,,,,4,0,3,,,,,,0,,72,85
78912,note_on,,,,,4,0,8,,,,,,4,,72,100
79004,note_off,,,,,92,0,8,,,,,,4,,72,0
79008,note_on,,,,,4,0,8,,,,,,4,,71,100
79100,note_off,,,,,188,0,3,,,,,,0,,72,0
79100,note_off,,,,,380,0,5,,,,,,2,,69,0
79100,note_off,,,,,92,0,8,,,,,,4,,71,0
79100,note_off,,,,,188,0,4,,,,,,1,,64,0
79104,note_on,,,,,388,0,7,,,,,,3,,43,85
79104,note_on,,,,,4,0,3,,,,,,0,,76,85
79104,note_on,,,,,4,0,8,,,,,,4,,69,100
79104,note_on,,,,,388,0,6,,,,,,3,,55,85
79104,note_on,,,,,4,0,4,,,,,,1,,69,85
79104,note_on,,,,,388,0,9,,,,,,4,,64,100
79104,note_on,,,,,0,0,9,,,,,,4,,55,100
79196,note_off,,,,,92,0,8,,,,,,4,,69,0
79200,note_on,,,,,4,0,8,,,,,,4,,72,100
79292,note_off,,,,,188,0,4,,,,,,1,,69,0
79292,note_off,,,,,188,0,3,,,,,,0,,76,0
79292,note_off,,,,,92,0,8,,,,,,4,,72,0
79296,note_on,,,,,4,0,8,,,,,,4,,81,100
79296,note_on,,,,,4,0,4,,,,,,1,,64,85
79296,note_on,,,,,4,0,3,,,,,,0,,72,85
79388,note_off,,,,,92,0,8,,,,,,4,,81,0
79392,note_on,,,,,4,0,8,,,,,,4,,80,100
79484,note_off,,,,,188,0,3,,,,,,0,,72,0
79484,note_off,,,,,92,0,8,,,,,,4,,80,0
79484,note_off,,,,,380,0,7,,,,,,3,,43,0
79484,note_off,,,,,188,0,4,,,,,,1,,64,0
79484,note_off,,,,,380,0,9,,,,,,4,,64,0
79484,note_off,,,,,380,0,6,,,,,,3,,55,0
79484,note_off,,,,,0,0,9,,,,,,4,,55,0
79488,note_on,,,,,4,0,8,,,,,,4,,81,100
79488,note_on,,,,,4,0,3,,,,,,0,,69,85
79488,note_on,,,,,388,0,5,,,,,,2,,67,85
79488,note_on,,,,,4,0,4,,,,,,1,,60,85
79580,note_off,,,,,92,0,8,,,,,,4,,81,0
79584,note_on,,,,,4,0,8,,,,,,4,,70,100
79676,note_off,,,,,188,0,4,,,,,,1,,60,0
79676,note_off,,,,,92,0,8,,,,,,4,,70,0
79676,note_off,,,,,188,0,3,,,,,,0,,69,0
79680,note_on,,,,,4,0,3,,,,,,0,,72,85
79680,note_on,,,,,4,0,4,,,,,,1,,64,85
79680,note_on,,,,,4,0,8,,,,,,4,,69,100
79772,note_off,,,,,92,0,8,,,,,,4,,69,0
79776,note_on,,,,,4,0,8,,,,,,4,,67,100
79868,note_off,,,,,188,0,3,,,,,,0,,72,0
79868,note_off,,,,,188,0,4,,,,,,1,,64,0
79868,note_off,,,,,380,0,5,,,,,,2,,67,0
79868,note_off,,,,,92,0,8,,,,,,4,,67,0
79872,note_on,,,,,388,0,9,,,,,,4,,65,100
79872,note_on,,,,,4,0,4,,,,,,1,,69,85
79872,note_on,,,,,388,0,6,,,,,,3,,53,85
79872,note_on,,,,,0,0,9,,,,,,4,,53,100
79872,note_on,,,,,4,0,3,,,,,,0,,77,85
79872,note_on,,,,,388,0,7,,,,,,3,,41,85
79968,note_on,,,,,100,0,8,,,,,,4,,72,100
80060,note_off,,,,,188,0,4,,,,,,1,,69,0
80060,note_off,,,,,188,0,3,,,,,,0,,77,0
80060,note_off,,,,,92,0,8,,,,,,4,,72,0
80064,note_on,,,,,4,0,4,,,,,,1,,65,85
80064,note_on,,,,,4,0,3,,,,,,0,,72,85
80064,note_on,,,,,4,0,8,,,,,,4,,81,100
80156,note_off,,,,,92,0,8,,,,,,4,,81,0
80160,note_on,,,,,4,0,8,,,,,,4,,80,100
80252,note_off,,,,,92,0,8,,,,,,4,,80,0
80252,note_off,,,,,380,0,6,,,,,,3,,53,0
80252,note_off,,,,,380,0,7,,,,,,3,,41,0
80252,note_off,,,,,188,0,3,,,,,,0,,72,0
80252,note_off,,,,,0,0,9,,,,,,4,,53,0
80252,note_off,,,,,380,0,9,,,,,,4,,65,0
80252,note_off,,,,,188,0,4,,,,,,1,,65,0
80256,note_on,,,,,4,0,8,,,,,,4,,81,100
80256,note_on,,,,,388,0,5,,,,,,2,,65,85
80256,note_on,,,,,4,0,4,,,,,,1,,60,85
80256,note_on,,,,,4,0,3,,,,,,0,,69,85
80348,note_off,,,,,92,0,8,,,,,,4,,81,0
80352,note_on,,,,,4,0,8,,,,,,4,,65,100
80444,note_off,,,,,92,0,8,,,,,,4,,65,0
80444,note_off,,,,,188,0,3,,,,,,0,,69,0
80444,note_off,,,,,188,0,4,,,,,,1,,60,0
80448,note_on,,,,,4,0,4,,,,,,1,,69,85
80448,note_on,,,,,4,0,3,,,,,,0,,72,85
80448,note_on,,,,,4,0,8,,,,,,4,,64,100
80540,note_off,,,,,92,0,8,,,,,,4,,64,0
80544,note_on,,,,,4,0,8,,,,,,4,,62,100
80636,note_off,,,,,92,0,8,,,,,,4,,62,0
80636,note_off,,,,,188,0,4,,,,,,1,,69,0
80636,note_off,,,,,188,0,3,,,,,,0,,72,0
80636,note_off,,,,,380,0,5,,,,,,2,,65,0
80640,note_on,,,,,388,0,9,,,,,,4,,60,100
80640,note_on,,,,,388,0,6,,,,,,3,,52,85
80640,note_on,,,,,0,0,9,,,,,,4,,52,100
80640,note_on,,,,,388,0,7,,,,,,3,,40,85
80640,note_on,,,,,4,0,4,,,,,,1,,69,85
80640,note_on,,,,,4,0,3,,,,,,0,,76,85
80736,note_on,,,,,100,0,8,,,,,,4,,76,100
80828,note_off,,,,,92,0,8,,,,,,4,,76,0
80828,note_off,,,,,188,0,4,,,,,,1,,69,0
80828,note_off,,,,,188,0,3,,,,,,0,,76,0
80832,note_on,,,,,4,0,8,,,,,,4,,81,100
80832,note_on,,,,,4,0,4,,,,,,1,,64,85
80832,note_on,,,,,4,0,3,,,,,,0,,72,85
80924,note_off,,,,,92,0,8,,,,,,4,,81,0
80928,note_on,,,,,4,0,8,,,,,,4,,80,100
81020,note_off,,,,,380,0,7,,,,,,3,,40,0
81020,note_off,,,,,188,0,4,,,,,,1,,64,0
81020,note_off,,,,,380,0,6,,,,,,3,,52,0
81020,note_off,,,,,0,0,9,,,,,,4,,52,0
81020,note_off,,,,,188,0,3,,,,,,0,,72,0
81020,note_off,,,,,380,0,9,,,,,,4,,60,0
81020,note_off,,,,,92,0,8,,,,,,4,,80,0
81024,note_on,,,,,4,0,4,,,,,,1,,60,85
81024,note_on,,,,,388,0,5,,,,,,2,,64,85
81024,note_on,,,,,4,0,8,,,,,,4,,81,100
81024,note_on,,,,,4,0,3,,,,,,0,,69,85
81116,note_off,,,,,92,0,8,,,,,,4,,81,0
81120,note_on,,,,,4,0,8,,,,,,4,,76,100
81212,note_off,,,,,92,0,8,,,,,,4,,76,0
81212,note_off,,,,,188,0,3,,,,,,0,,69,0
81212,note_off,,,,,188,0,4,,,,,,1,,60,0
81216,note_on,,,,,4,0,3,,,,,,0,,72,85
81216,note_on,,,,,4,0,4,,,,,,1,,64,85
81216,note_on,,,,,4,0,8,,,,,,4,,74,100
81308,note_off,,,,,92,0,8,,,,,,4,,74,0
81312,note_on,,,,,4,0,8,,,,,,4,,72,100
81404,note_off,,,,,188,0,3,,,,,,0,,72,0
81404,note_off,,,,,380,0,5,,,,,,2,,64,0
81404,note_off,,,,,92,0,8,,,,,,4,,72,0
81404,note_off,,,,,188,0,4,,,,,,1,,64,0
81408,note_on,,,,,388,0,9,,,,,,4,,62,100
81408,note_on,,,,,4,0,8,,,,,,4,,77,100
81408,note_on,,,,,388,0,7,,,,,,3,,38,85
81408,note_on,,,,,4,0,3,,,,,,0,,77,85
81408,note_on,,,,,388,0,6,,,,,,3,,50,85
81408,note_on,,,,,0,0,9,,,,,,4,,50,100
81408,note_on,,,,,4,0,4,,,,,,1,,69,85
81500,note_off,,,,,92,0,8,,,,,,4,,77,0
81504,note_on,,,,,4,0,8,,,,,,4,,74,100
81596,note_off,,,,,188,0,4,,,,,,1,,69,0
81596,note_off,,,,,92,0,8,,,,,,4,,74,0
81596,note_off,,,,,188,0,3,,,,,,0,,77,0
81600,note_on,,,,,4,0,4,,,,,,1,,67,85
81600,note_on,,,,,4,0,3,,,,,,0,,76,85
81600,note_on,,,,,4,0,8,,,,,,4,,72,100
81692,note_off,,,,,92,0,8,,,,,,4,,72,0
81696,note_on,,,,,4,0,8,,,,,,4,,71,100
81728,note_off,,,,,128,0,4,,,,,,1,,67,0
81728,note_off,,,,,128,0,3,,,,,,0,,76,0
81788,note_off,,,,,380,0,6,,,,,,3,,50,0
81788,note_off,,,,,380,0,9,,,,,,4,,62,0
81788,note_off,,,,,0,0,9,,,,,,4,,50,0
81788,note_off,,,,,92,0,8,,,,,,4,,71,0
81788,note_off,,,,,380,0,7,,,,,,3,,38,0
81792,note_on,,,,,64,0,3,,,,,,0,,74,85
81792,note_on,,,,,64,0,4,,,,,,1,,65,85
81792,note_on,,,,,4,0,8,,,,,,4,,74,100
81792,note_on,,,,,388,0,5,,,,,,2,,62,85
81884,note_off,,,,,92,0,8,,,,,,4,,74,0
81888,note_on,,,,,4,0,8,,,,,,4,,71,100
81980,note_off,,,,,92,0,8,,,,,,4,,71,0
81980,note_off,,,,,188,0,3,,,,,,0,,74,0
81980,note_off,,,,,188,0,4,,,,,,1,,65,0
81984,note_on,,,,,4,0,8,,,,,,4,,69,100
81984,note_on,,,,,4,0,4,,,,,,1,,64,85
81984,note_on,,,,,4,0,3,,,,,,0,,72,85
82076,note_off,,,,,92,0,8,,,,,,4,,69,0
82080,note_on,,,,,4,0,8,,,,,,4,,68,100
82112,note_off,,,,,128,0,4,,,,,,1,,64,0
82112,note_off,,,,,128,0,3,,,,,,0,,72,0
82172,note_off,,,,,380,0,5,,,,,,2,,62,0
82172,note_off,,,,,92,0,8,,,,,,4,,68,0
82176,note_on,,,,,64,0,3,,,,,,0,,71,85
82176,note_on,,,,,4,0,8,,,,,,4,,71,100
82176,note_on,,,,,388,0,6,,,,,,3,,44,85
82176,note_on,,,,,388,0,7,,,,,,3,,32,85
82176,note_on,,,,,64,0,4,,,,,,1,,62,85
82176,note_on,,,,,388,0,9,,,,,,4,,52,100
82176,note_on,,,,,0,0,9,,,,,,4,,44,100
82268,note_off,,,,,92,0,8,,,,,,4,,71,0
82272,note_on,,,,,4,0,8,,,,,,4,,68,100
82364,note_off,,,,,92,0,8,,,,,,4,,68,0
82364,note_off,,,,,188,0,3,,,,,,0,,71,0
82364,note_off,,,,,188,0,4,,,,,,1,,62,0
82368,note_on,,,,,4,0,4,,,,,,1,,60,85
82368,note_on,,,,,4,0,3,,,,,,0,,69,85
82368,note_on,,,,,4,0,8,,,,,,4,,66,100
82460,note_off,,,,,92,0,8,,,,,,4,,66,0
82464,note_on,,,,,4,0,8,,,,,,4,,64,100
82496,note_off,,,,,128,0,3,,,,,,0,,69,0
82496,note_off,,,,,128,0,4,,,,,,1,,60,0
82556,note_off,,,,,380,0,6,,,,,,3,,44,0
82556,note_off,,,,,92,0,8,,,,,,4,,64,0
82556,note_off,,,,,380,0,9,,,,,,4,,52,0
82556,note_off,,,,,0,0,9,,,,,,4,,44,0
82556,note_off,,,,,380,0,7,,,,,,3,,32,0
82560,note_on,,,,,388,0,5,,,,,,2,,56,85
82560,note_on,,,,,4,0,8,,,,,,4,,65,100
82560,note_on,,,,,64,0,3,,,,,,0,,68,85
82560,note_on,,,,,64,0,4,,,,,,1,,59,85
82652,note_off,,,,,92,0,8,,,,,,4,,65,0
82656,note_on,,,,,4,0,8,,,,,,4,,62,100
82748,note_off,,,,,188,0,4,,,,,,1,,59,0
82748,note_off,,,,,92,0,8,,,,,,4,,62,0
82748,note_off,,,,,188,0,3,,,,,,0,,68,0
82752,note_on,,,,,4,0,4,,,,,,1,,62,85
82752,note_on,,,,,4,0,8,,,,,,4,,60,100
82752,note_on,,,,,4,0,3,,,,,,0,,66,85
82844,note_off,,,,,92,0,8,,,,,,4,,60,0
82848,note_on,,,,,4,0,8,,,,,,4,,59,100
82880,note_off,,,,,128,0,3,,,,,,0,,66,0
82880,note_off,,,,,128,0,4,,,,,,1,,62,0
82940,note_off,,,,,92,0,8,,,,,,4,,59,0
82940,note_off,,,,,380,0,5,,,,,,2,,56,0
82944,note_on,,,,,0,0,9,,,,,,4,,45,100
82944,note_on,,,,,4,0,5,,,,,,2,,57,85
82944,note_on,,,,,388,0,6,,,,,,3,,45,85
82944,note_on,,,,,64,0,3,,,,,,0,,64,85
82944,note_on,,,,,64,0,4,,,,,,1,,60,85
82944,note_on,,,,,388,0,9,,,,,,4,,52,100
82944,note_on,,,,,4,0,8,,,,,,4,,60,100
82944,note_on,,,,,388,0,7,,,,,,3,,33,85
83036,note_off,,,,,92,0,8,,,,,,4,,60,0
83040,note_on,,,,,4,0,8,,,,,,4,,64,100
83132,note_off,,,,,188,0,4,,,,,,1,,60,0
83132,note_off,,,,,188,0,5,,,,,,2,,57,0
83132,note_off,,,,,92,0,8,,,,,,4,,64,0
83132,note_off,,,,,188,0,3,,,,,,0,,64,0
83136,note_on,,,,,4,0,8,,,,,,4,,69,100
83228,note_off,,,,,92,0,8,,,,,,4,,69,0
83232,note_on,,,,,4,0,8,,,,,,4,,68,100
83324,note_off,,,,,380,0,7,,,,,,3,,33,0
83324,note_off,,,,,380,0,6,,,,,,3,,45,0
83324,note_off,,,,,0,0,9,,,,,,4,,45,0
83324,note_off,,,,,380,0,9,,,,,,4,,52,0
83324,note_off,,,,,92,0,8,,,,,,4,,68,0
83328,note_on,,,,,4,0,8,,,,,,4,,69,100
83420,note_off,,,,,92,0,8,,,,,,4,,69,0
83424,note_on,,,,,4,0,8,,,,,,4,,64,100
83516,note_off,,,,,92,0,8,,,,,,4,,64,0
83520,note_on,,,,,196,0,6,,,,,,3,,45,85
83520,note_on,,,,,196,0,9,,,,,,4,,45,100
83520,note_on,,,,,196,0,7,,,,,,3,,33,85
83520,note_on,,,,,4,0,8,,,,,,4,,72,100
83612,note_off,,,,,92,0,9,,,,,,4,,45,0
83612,note_off,,,,,92,0,7,,,,,,3,,33,0
83612,note_off,,,,,92,0,6,,,,,,3,,45,0
83612,note_off,,,,,92,0,8,,,,,,4,,72,0
83616,note_on,,,,,4,0,8,,,,,,4,,69,100
83616,note_on,,,,,4,0,9,,,,,,4,,47,100
83616,note_on,,,,,4,0,7,,,,,,3,,35,85
83616,note_on,,,,,4,0,6,,,,,,3,,47,85
83708,note_off,,,,,92,0,8,,,,,,4,,69,0
83708,note_off,,,,,92,0,9,,,,,,4,,47,0
83708,note_off,,,,,92,0,7,,,,,,3,,35,0
83708,note_off,,,,,92,0,6,,,,,,3,,47,0
83712,note_on,,,,,4,0,9,,,,,,4,,48,100
83712,note_on,,,,,4,0,6,,,,,,3,,48,85
83712,note_on,,,,,4,0,8,,,,,,4,,76,100
83712,note_on,,,,,4,0,7,,,,,,3,,36,85
83900,note_off,,,,,188,0,9,,,,,,4,,48,0
83900,note_off,,,,,188,0,7,,,,,,3,,36,0
83900,note_off,,,,,188,0,6,,,,,,3,,48,0
83900,note_off,,,,,188,0,8,,,,,,4,,76,0
83904,note_on,,,,,4,0,8,,,,,,4,,69,100
83904,note_on,,,,,4,0,9,,,,,,4,,52,100
83904,note_on,,,,,4,0,7,,,,,,3,,38,85
83904,note_on,,,,,4,0,6,,,,,,3,,50,85
83948,note_off,,,,,44,0,9,,,,,,4,,52,0
83956,note_on,,,,,8,0,9,,,,,,4,,50,100
84000,note_on,,,,,0,0,9,,,,,,4,,48,100
84000,note_off,,,,,44,0,9,,,,,,4,,50,0
84044,note_off,,,,,44,0,9,,,,,,4,,48,0
84048,note_on,,,,,4,0,9,,,,,,4,,50,100
84092,note_off,,,,,44,0,9,,,,,,4,,50,0
84092,note_off,,,,,188,0,6,,,,,,3,,50,0
84092,note_off,,,,,188,0,8,,,,,,4,,69,0
84092,note_off,,,,,188,0,7,,,,,,3,,38,0
84096,note_on,,,,,4,0,7,,,,,,3,,40,85
84096,note_on,,,,,4,0,8,,,,,,4,,64,100
84096,note_on,,,,,4,0,9,,,,,,4,,52,100
84096,note_on,,,,,4,0,6,,,,,,3,,52,85
84284,note_off,,,,,188,0,8,,,,,,4,,64,0
84284,note_off,,,,,188,0,9,,,,,,4,,52,0
84284,note_off,,,,,188,0,6,,,,,,3,,52,0
84284,note_off,,,,,188,0,7,,,,,,3,,40,0
84288,note_on,,,,,4,0,9,,,,,,4,,40,100
84288,note_on,,,,,4,0,6,,,,,,3,,40,85
84288,note_on,,,,,4,0,8,,,,,,4,,68,100
84288,note_on,,,,,4,0,7,,,,,,3,,28,85
84476,note_off,,,,,188,0,9,,,,,,4,,40,0
84476,note_off,,,,,188,0,6,,,,,,3,,40,0
84476,note_off,,,,,188,0,8,,,,,,4,,68,0
84476,note_off,,,,,188,0,7,,,,,,3,,28,0
84480,note_on,,,,,4,0,7,,,,,,3,,33,100
84480,note_on,,,,,0,0,9,,,,,,4,,52,100
84480,note_on,,,,,0,0,9,,,,,,4,,48,100
84480,note_on,,,,,0,0,9,,,,,,4,,45,100
84480,note_on,,,,,4,0,9,,,,,,4,,57,100
84480,note_on,,,,,4,0,6,,,,,,3,,45,100
84480,note_on,,,,,1348,0,3,,,,,,0,,69,100
84480,note_on,,,,,4,0,8,,,,,,4,,69,100
84572,note_off,,,,,92,0,3,,,,,,0,,69,0
84572,note_off,,,,,92,0,8,,,,,,4,,69,0
84576,note_on,,,,,4,0,8,,,,,,4,,71,100
84576,note_on,,,,,4,0,3,,,,,,0,,71,100
84668,note_off,,,,,92,0,3,,,,,,0,,71,0
84668,note_off,,,,,92,0,8,,,,,,4,,71,0
84668,note_off,,,,,188,0,7,,,,,,3,,33,0
84668,note_off,,,,,188,0,6,,,,,,3,,45,0
84672,note_on,,,,,4,0,6,,,,,,3,,45,100
84672,note_on,,,,,4,0,8,,,,,,4,,72,100
84672,note_on,,,,,4,0,7,,,,,,3,,33,100
84672,note_on,,,,,4,0,3,,,,,,0,,72,100
84800,note_off,,,,,128,0,3,,,,,,0,,72,0
84860,note_off,,,,,380,0,9,,,,,,4,,57,0
84860,note_off,,,,,0,0,9,,,,,,4,,45,0
84860,note_off,,,,,0,0,9,,,,,,4,,48,0
84860,note_off,,,,,188,0,6,,,,,,3,,45,0
84860,note_off,,,,,188,0,8,,,,,,4,,72,0
84860,note_off,,,,,0,0,9,,,,,,4,,52,0
84860,note_off,,,,,188,0,7,,,,,,3,,33,0
84864,note_on,,,,,4,0,6,,,,,,3,,45,100
84864,note_on,,,,,64,0,3,,,,,,0,,71,100
84864,note_on,,,,,4,0,7,,,,,,3,,33,100
84864,note_on,,,,,4,0,8,,,,,,4,,71,100
85052,note_off,,,,,188,0,3,,,,,,0,,71,0
85052,note_off,,,,,188,0,7,,,,,,3,,33,0
85052,note_off,,,,,188,0,8,,,,,,4,,71,0
85052,note_off,,,,,188,0,6,,,,,,3,,45,0
85056,note_on,,,,,4,0,7,,,,,,3,,33,100
85056,note_on,,,,,4,0,3,,,,,,0,,69,100
85056,note_on,,,,,4,0,6,,,,,,3,,45,100
85056,note_on,,,,,4,0,8,,,,,,4,,69,100
85244,note_off,,,,,188,0,8,,,,,,4,,69,0
85244,note_off,,,,,188,0,6,,,,,,3,,45,0
85244,note_off,,,,,188,0,7,,,,,,3,,33,0
85244,note_off,,,,,188,0,3,,,,,,0,,69,0
85248,note_on,,,,,4,0,8,,,,,,4,,76,100
85248,note_on,,,,,2116,0,4,,,,,,1,,72,100
85248,note_on,,,,,388,0,9,,,,,,4,,57,100
85248,note_on,,,,,4,0,6,,,,,,3,,45,100
85248,note_on,,,,,2116,0,5,,,,,,2,,57,100
85248,note_on,,,,,4,0,3,,,,,,0,,76,100
85248,note_on,,,,,4,0,7,,,,,,3,,33,100
85340,note_off,,,,,92,0,9,,,,,,4,,57,0
85340,note_off,,,,,92,0,5,,,,,,2,,57,0
85340,note_off,,,,,92,0,4,,,,,,1,,72,0
85344,note_on,,,,,4,0,9,,,,,,4,,59,100
85344,note_on,,,,,4,0,5,,,,,,2,,59,100
85344,note_on,,,,,4,0,4,,,,,,1,,74,100
85436,note_off,,,,,188,0,3,,,,,,0,,76,0
85436,note_off,,,,,188,0,8,,,,,,4,,76,0
85436,note_off,,,,,92,0,9,,,,,,4,,59,0
85436,note_off,,,,,92,0,4,,,,,,1,,74,0
85436,note_off,,,,,188,0,6,,,,,,3,,45,0
85436,note_off,,,,,92,0,5,,,,,,2,,59,0
85436,note_off,,,,,188,0,7,,,,,,3,,33,0
85440,note_on,,,,,4,0,5,,,,,,2,,60,100
85440,note_on,,,,,4,0,8,,,,,,4,,81,100
85440,note_on,,,,,4,0,7,,,,,,3,,33,100
85440,note_on,,,,,4,0,3,,,,,,0,,81,100
85440,note_on,,,,,4,0,4,,,,,,1,,76,100
85440,note_on,,,,,4,0,9,,,,,,4,,60,100
85440,note_on,,,,,4,0,6,,,,,,3,,45,100
85568,note_off,,,,,128,0,5,,,,,,2,,60,0
85568,note_off,,,,,128,0,9,,,,,,4,,60,0
85568,note_off,,,,,128,0,4,,,,,,1,,76,0
85628,note_off,,,,,188,0,7,,,,,,3,,33,0
85628,note_off,,,,,188,0,6,,,,,,3,,45,0
85632,note_on,,,,,64,0,9,,,,,,4,,59,100
85632,note_on,,,,,4,0,7,,,,,,3,,33,100
85632,note_on,,,,,64,0,5,,,,,,2,,59,100
85632,note_on,,,,,4,0,6,,,,,,3,,45,100
85632,note_on,,,,,64,0,4,,,,,,1,,74,100
85820,note_off,,,,,188,0,7,,,,,,3,,33,0
85820,note_off,,,,,188,0,6,,,,,,3,,45,0
85820,note_off,,,,,380,0,3,,,,,,0,,81,0
85820,note_off,,,,,188,0,9,,,,,,4,,59,0
85820,note_off,,,,,380,0,8,,,,,,4,,81,0
85820,note_off,,,,,188,0,4,,,,,,1,,74,0
85820,note_off,,,,,188,0,5,,,,,,2,,59,0
85824,note_on,,,,,4,0,7,,,,,,3,,33,100
85824,note_on,,,,,4,0,8,,,,,,4,,76,100
85824,note_on,,,,,4,0,3,,,,,,0,,76,100
85824,note_on,,,,,4,0,6,,,,,,3,,45,100
85824,note_on,,,,,4,0,4,,,,,,1,,72,100
85824,note_on,,,,,4,0,5,,,,,,2,,57,100
85824,note_on,,,,,4,0,9,,,,,,4,,57,100
86012,note_off,,,,,188,0,8,,,,,,4,,76,0
86012,note_off,,,,,188,0,9,,,,,,4,,57,0
86012,note_off,,,,,188,0,6,,,,,,3,,45,0
86012,note_off,,,,,188,0,7,,,,,,3,,33,0
86012,note_off,,,,,188,0,5,,,,,,2,,57,0
86012,note_off,,,,,188,0,3,,,,,,0,,76,0
86016,note_on,,,,,4,0,9,,,,,,4,,62,100
86016,note_on,,,,,4,0,8,,,,,,4,,77,100
86016,note_on,,,,,4,0,7,,,,,,3,,33,100
86016,note_on,,,,,4,0,6,,,,,,3,,45,100
86016,note_on,,,,,4,0,3,,,,,,0,,77,100
86016,note_on,,,,,4,0,5,,,,,,2,,62,100
86204,note_off,,,,,188,0,8,,,,,,4,,77,0
86204,note_off,,,,,380,0,4,,,,,,1,,72,0
86204,note_off,,,,,188,0,5,,,,,,2,,62,0
86204,note_off,,,,,188,0,7,,,,,,3,,33,0
86204,note_off,,,,,188,0,9,,,,,,4,,62,0
86204,note_off,,,,,188,0,3,,,,,,0,,77,0
86204,note_off,,,,,188,0,6,,,,,,3,,45,0
86208,note_on,,,,,4,0,7,,,,,,3,,33,100
86208,note_on,,,,,4,0,4,,,,,,1,,71,100
86208,note_on,,,,,4,0,8,,,,,,4,,74,100
86208,note_on,,,,,4,0,3,,,,,,0,,74,100
86208,note_on,,,,,4,0,9,,,,,,4,,71,100
86208,note_on,,,,,4,0,6,,,,,,3,,45,100
86300,note_off,,,,,92,0,8,,,,,,4,,74,0
86300,note_off,,,,,92,0,3,,,,,,0,,74,0
86300,note_off,,,,,92,0,9,,,,,,4,,71,0
86304,note_on,,,,,4,0,9,,,,,,4,,68,100
86304,note_on,,,,,4,0,8,,,,,,4,,71,100
86304,note_on,,,,,4,0,3,,,,,,0,,71,100
86396,note_off,,,,,188,0,7,,,,,,3,,33,0
86396,note_off,,,,,92,0,8,,,,,,4,,71,0
86396,note_off,,,,,92,0,3,,,,,,0,,71,0
86396,note_off,,,,,92,0,9,,,,,,4,,68,0
86396,note_off,,,,,188,0,6,,,,,,3,,45,0
86400,note_on,,,,,4,0,7,,,,,,3,,33,100
86400,note_on,,,,,4,0,6,,,,,,3,,45,100
86400,note_on,,,,,196,0,5,,,,,,2,,60,100
86400,note_on,,,,,4,0,9,,,,,,4,,60,100
86400,note_on,,,,,4,0,8,,,,,,4,,76,100
86400,note_on,,,,,4,0,3,,,,,,0,,76,100
86588,note_off,,,,,188,0,5,,,,,,2,,60,0
86588,note_off,,,,,188,0,6,,,,,,3,,45,0
86588,note_off,,,,,380,0,4,,,,,,1,,71,0
86588,note_off,,,,,188,0,9,,,,,,4,,60,0
86588,note_off,,,,,188,0,7,,,,,,3,,33,0
86588,note_off,,,,,188,0,3,,,,,,0,,76,0
86588,note_off,,,,,188,0,8,,,,,,4,,76,0
86592,note_on,,,,,4,0,3,,,,,,0,,72,100
86592,note_on,,,,,4,0,6,,,,,,3,,45,100
86592,note_on,,,,,4,0,4,,,,,,1,,69,100
86592,note_on,,,,,4,0,7,,,,,,3,,33,100
86592,note_on,,,,,4,0,9,,,,,,4,,69,100
86592,note_on,,,,,4,0,8,,,,,,4,,72,100
86684,note_off,,,,,92,0,3,,,,,,0,,72,0
86684,note_off,,,,,92,0,8,,,,,,4,,72,0
86684,note_off,,,,,92,0,9,,,,,,4,,69,0
86688,note_on,,,,,4,0,3,,,,,,0,,69,100
86688,note_on,,,,,4,0,9,,,,,,4,,65,100
86688,note_on,,,,,4,0,8,,,,,,4,,69,100
86780,note_off,,,,,188,0,6,,,,,,3,,45,0
86780,note_off,,,,,92,0,3,,,,,,0,,69,0
86780,note_off,,,,,188,0,7,,,,,,3,,33,0
86780,note_off,,,,,92,0,8,,,,,,4,,69,0
86780,note_off,,,,,92,0,9,,,,,,4,,65,0
86784,note_on,,,,,4,0,3,,,,,,0,,74,100
86784,note_on,,,,,196,0,5,,,,,,2,,59,100
86784,note_on,,,,,4,0,7,,,,,,3,,33,100
86784,note_on,,,,,4,0,9,,,,,,4,,59,100
86784,note_on,,,,,4,0,8,,,,,,4,,74,100
86784,note_on,,,,,4,0,6,,,,,,3,,45,100
86876,note_off,,,,,92,0,9,,,,,,4,,59,0
86880,note_on,,,,,4,0,9,,,,,,4,,60,100
86972,note_off,,,,,380,0,4,,,,,,1,,69,0
86972,note_off,,,,,92,0,9,,,,,,4,,60,0
86972,note_off,,,,,188,0,7,,,,,,3,,33,0
86972,note_off,,,,,188,0,5,,,,,,2,,59,0
86972,note_off,,,,,188,0,3,,,,,,0,,74,0
86972,note_off,,,,,188,0,8,,,,,,4,,74,0
86972,note_off,,,,,188,0,6,,,,,,3,,45,0
86976,note_on,,,,,4,0,6,,,,,,3,,45,100
86976,note_on,,,,,4,0,4,,,,,,1,,74,100
86976,note_on,,,,,4,0,3,,,,,,0,,71,100
86976,note_on,,,,,4,0,7,,,,,,3,,33,100
86976,note_on,,,,,4,0,8,,,,,,4,,71,100
86976,note_on,,,,,4,0,9,,,,,,4,,62,100
87068,note_off,,,,,92,0,3,,,,,,0,,71,0
87068,note_off,,,,,92,0,9,,,,,,4,,62,0
87068,note_off,,,,,92,0,8,,,,,,4,,71,0
87072,note_on,,,,,4,0,3,,,,,,0,,68,100
87072,note_on,,,,,4,0,8,,,,,,4,,68,100
87072,note_on,,,,,4,0,9,,,,,,4,,59,100
87164,note_off,,,,,188,0,7,,,,,,3,,33,0
87164,note_off,,,,,92,0,3,,,,,,0,,68,0
87164,note_off,,,,,188,0,6,,,,,,3,,45,0
87164,note_off,,,,,92,0,9,,,,,,4,,59,0
87164,note_off,,,,,92,0,8,,,,,,4,,68,0
87168,note_on,,,,,4,0,7,,,,,,3,,33,100
87168,note_on,,,,,4,0,6,,,,,,3,,45,100
87168,note_on,,,,,4,0,9,,,,,,4,,57,100
87168,note_on,,,,,4,0,3,,,,,,0,,64,100
87168,note_on,,,,,196,0,5,,,,,,2,,57,100
87168,note_on,,,,,4,0,8,,,,,,4,,64,100
87260,note_off,,,,,92,0,9,,,,,,4,,57,0
87264,note_on,,,,,4,0,9,,,,,,4,,59,100
87356,note_off,,,,,188,0,3,,,,,,0,,64,0
87356,note_off,,,,,188,0,5,,,,,,2,,57,0
87356,note_off,,,,,92,0,9,,,,,,4,,59,0
87356,note_off,,,,,188,0,6,,,,,,3,,45,0
87356,note_off,,,,,188,0,7,,,,,,3,,33,0
87356,note_off,,,,,380,0,4,,,,,,1,,74,0
87356,note_off,,,,,188,0,8,,,,,,4,,64,0
87360,note_on,,,,,4,0,8,,,,,,4,,77,100
87360,note_on,,,,,4,0,4,,,,,,1,,71,100
87360,note_on,,,,,4,0,6,,,,,,3,,45,100
87360,note_on,,,,,4,0,9,,,,,,4,,62,100
87360,note_on,,,,,4,0,7,,,,,,3,,33,100
87360,note_on,,,,,4,0,3,,,,,,0,,77,100
87452,note_off,,,,,92,0,9,,,,,,4,,62,0
87452,note_off,,,,,92,0,4,,,,,,1,,71,0
87456,note_on,,,,,4,0,9,,,,,,4,,59,100
87456,note_on,,,,,4,0,4,,,,,,1,,68,100
87548,note_off,,,,,92,0,4,,,,,,1,,68,0
87548,note_off,,,,,188,0,6,,,,,,3,,45,0
87548,note_off,,,,,92,0,9,,,,,,4,,59,0
87548,note_off,,,,,188,0,7,,,,,,3,,33,0
87552,note_on,,,,,4,0,4,,,,,,1,,62,100
87552,note_on,,,,,4,0,7,,,,,,3,,33,100
87552,note_on,,,,,4,0,9,,,,,,4,,56,100
87552,note_on,,,,,196,0,5,,,,,,2,,56,100
87552,note_on,,,,,4,0,6,,,,,,3,,45,100
87644,note_off,,,,,92,0,9,,,,,,4,,56,0
87648,note_on,,,,,4,0,9,,,,,,4,,57,100
87740,note_off,,,,,92,0,9,,,,,,4,,57,0
87740,note_off,,,,,188,0,5,,,,,,2,,56,0
87740,note_off,,,,,188,0,7,,,,,,3,,33,0
87740,note_off,,,,,188,0,4,,,,,,1,,62,0
87740,note_off,,,,,380,0,3,,,,,,0,,77,0
87740,note_off,,,,,188,0,6,,,,,,3,,45,0
87740,note_off,,,,,380,0,8,,,,,,4,,77,0
87744,note_on,,,,,4,0,3,,,,,,0,,74,100
87744,note_on,,,,,4,0,4,,,,,,1,,77,100
87744,note_on,,,,,4,0,6,,,,,,3,,45,100
87744,note_on,,,,,4,0,9,,,,,,4,,59,100
87744,note_on,,,,,4,0,7,,,,,,3,,33,100
87744,note_on,,,,,4,0,8,,,,,,4,,74,100
87836,note_off,,,,,92,0,3,,,,,,0,,74,0
87836,note_off,,,,,92,0,9,,,,,,4,,59,0
87836,note_off,,,,,92,0,8,,,,,,4,,74,0
87840,note_on,,,,,4,0,3,,,,,,0,,71,100
87840,note_on,,,,,4,0,9,,,,,,4,,56,100
87840,note_on,,,,,4,0,8,,,,,,4,,71,100
87932,note_off,,,,,92,0,9,,,,,,4,,56,0
87932,note_off,,,,,92,0,8,,,,,,4,,71,0
87932,note_off,,,,,92,0,3,,,,,,0,,71,0
87932,note_off,,,,,188,0,6,,,,,,3,,45,0
87932,note_off,,,,,188,0,7,,,,,,3,,33,0
87936,note_on,,,,,4,0,6,,,,,,3,,45,100
87936,note_on,,,,,4,0,9,,,,,,4,,57,100
87936,note_on,,,,,196,0,5,,,,,,2,,57,100
87936,note_on,,,,,4,0,3,,,,,,0,,64,100
87936,note_on,,,,,4,0,7,,,,,,3,,33,100
87936,note_on,,,,,4,0,8,,,,,,4,,64,100
88028,note_off,,,,,92,0,9,,,,,,4,,57,0
88032,note_on,,,,,4,0,9,,,,,,4,,60,100
88124,note_off,,,,,188,0,3,,,,,,0,,64,0
88124,note_off,,,,,188,0,5,,,,,,2,,57,0
88124,note_off,,,,,188,0,7,,,,,,3,,33,0
88124,note_off,,,,,92,0,9,,,,,,4,,60,0
88124,note_off,,,,,188,0,6,,,,,,3,,45,0
88124,note_off,,,,,188,0,8,,,,,,4,,64,0
88124,note_off,,,,,380,0,4,,,,,,1,,77,0
88128,note_on,,,,,4,0,7,,,,,,3,,33,100
88128,note_on,,,,,4,0,6,,,,,,3,,45,100
88128,note_on,,,,,4,0,4,,,,,,1,,74,100
88128,note_on,,,,,4,0,8,,,,,,4,,80,100
88128,note_on,,,,,4,0,9,,,,,,4,,59,100
88128,note_on,,,,,4,0,3,,,,,,0,,80,100
88220,note_off,,,,,92,0,9,,,,,,4,,59,0
88220,note_off,,,,,92,0,4,,,,,,1,,74,0
88224,note_on,,,,,4,0,9,,,,,,4,,57,100
88224,note_on,,,,,4,0,4,,,,,,1,,71,100
88316,note_off,,,,,92,0,9,,,,,,4,,57,0
88316,note_off,,,,,188,0,7,,,,,,3,,33,0
88316,note_off,,,,,188,0,6,,,,,,3,,45,0
88316,note_off,,,,,92,0,4,,,,,,1,,71,0
88320,note_on,,,,,196,0,5,,,,,,2,,59,100
88320,note_on,,,,,4,0,6,,,,,,3,,45,100
88320,note_on,,,,,4,0,7,,,,,,3,,33,100
88320,note_on,,,,,4,0,9,,,,,,4,,59,100
88320,note_on,,,,,4,0,4,,,,,,1,,62,100
88412,note_off,,,,,92,0,9,,,,,,4,,59,0
88416,note_on,,,,,4,0,9,,,,,,4,,60,100
88508,note_off,,,,,188,0,6,,,,,,3,,45,0
88508,note_off,,,,,380,0,3,,,,,,0,,80,0
88508,note_off,,,,,188,0,5,,,,,,2,,59,0
88508,note_off,,,,,92,0,9,,,,,,4,,60,0
88508,note_off,,,,,380,0,8,,,,,,4,,80,0
88508,note_off,,,,,188,0,4,,,,,,1,,62,0
88508,note_off,,,,,188,0,7,,,,,,3,,33,0
88512,note_on,,,,,4,0,8,,,,,,4,,77,100
88512,note_on,,,,,4,0,9,,,,,,4,,62,100
88512,note_on,,,,,4,0,4,,,,,,1,,80,100
88512,note_on,,,,,4,0,7,,,,,,3,,33,100
88512,note_on,,,,,4,0,6,,,,,,3,,45,100
88512,note_on,,,,,4,0,3,,,,,,0,,77,100
88604,note_off,,,,,92,0,9,,,,,,4,,62,0
88604,note_off,,,,,92,0,8,,,,,,4,,77,0
88604,note_off,,,,,92,0,3,,,,,,0,,77,0
88608,note_on,,,,,4,0,8,,,,,,4,,74,100
88608,note_on,,,,,4,0,3,,,,,,0,,74,100
88608,note_on,,,,,4,0,9,,,,,,4,,59,100
88700,note_off,,,,,188,0,7,,,,,,3,,33,0
88700,note_off,,,,,92,0,8,,,,,,4,,74,0
88700,note_off,,,,,92,0,3,,,,,,0,,74,0
88700,note_off,,,,,188,0,6,,,,,,3,,45,0
88700,note_off,,,,,92,0,9,,,,,,4,,59,0
88704,note_on,,,,,4,0,3,,,,,,0,,64,100
88704,note_on,,,,,4,0,8,,,,,,4,,64,100
88704,note_on,,,,,4,0,7,,,,,,3,,33,100
88704,note_on,,,,,196,0,5,,,,,,2,,60,100
88704,note_on,,,,,4,0,6,,,,,,3,,45,100
88704,note_on,,,,,4,0,9,,,,,,4,,60,100
88796,note_off,,,,,92,0,9,,,,,,4,,60,0
88800,note_on,,,,,4,0,9,,,,,,4,,64,100
88892,note_off,,,,,92,0,9,,,,,,4,,64,0
88892,note_off,,,,,188,0,8,,,,,,4,,64,0
88892,note_off,,,,,188,0,6,,,,,,3,,45,0
88892,note_off,,,,,380,0,4,,,,,,1,,80,0
88892,note_off,,,,,188,0,5,,,,,,2,,60,0
88892,note_off,,,,,188,0,3,,,,,,0,,64,0
88892,note_off,,,,,188,0,7,,,,,,3,,33,0
88896,note_on,,,,,4,0,9,,,,,,4,,62,100
88896,note_on,,,,,4,0,8,,,,,,4,,83,100
88896,note_on,,,,,4,0,4,,,,,,1,,77,100
88896,note_on,,,,,4,0,6,,,,,,3,,45,100
88896,note_on,,,,,4,0,3,,,,,,0,,83,100
88896,note_on,,,,,4,0,7,,,,,,3,,33,100
88988,note_off,,,,,92,0,4,,,,,,1,,77,0
88988,note_off,,,,,92,0,9,,,,,,4,,62,0
88992,note_on,,,,,4,0,4,,,,,,1,,74,100
88992,note_on,,,,,4,0,9,,,,,,4,,60,100
89084,note_off,,,,,188,0,6,,,,,,3,,45,0
89084,note_off,,,,,92,0,9,,,,,,4,,60,0
89084,note_off,,,,,92,0,4,,,,,,1,,74,0
89084,note_off,,,,,188,0,7,,,,,,3,,33,0
89088,note_on,,,,,4,0,4,,,,,,1,,62,100
89088,note_on,,,,,4,0,6,,,,,,3,,45,100
89088,note_on,,,,,196,0,5,,,,,,2,,62,100
89088,note_on,,,,,4,0,9,,,,,,4,,62,100
89088,note_on,,,,,0,0,7,,,,,,3,,33,100
89088,note_on,,,,,4,0,7,,,,,,3,,33,100
89180,note_off,,,,,92,0,9,,,,,,4,,62,0
89184,note_on,,,,,4,0,9,,,,,,4,,50,100
89276,note_off,,,,,380,0,8,,,,,,4,,83,0
89276,note_off,,,,,188,0,4,,,,,,1,,62,0
89276,note_off,,,,,380,0,3,,,,,,0,,83,0
89276,note_off,,,,,188,0,5,,,,,,2,,62,0
89276,note_off,,,,,92,0,9,,,,,,4,,50,0
89280,note_on,,,,,4,0,4,,,,,,1,,83,100
89280,note_on,,,,,4,0,5,,,,,,2,,62,100
89280,note_on,,,,,4,0,9,,,,,,4,,62,100
89280,note_on,,,,,4,0,8,,,,,,4,,80,100
89280,note_on,,,,,4,0,3,,,,,,0,,80,100
89372,note_off,,,,,92,0,9,,,,,,4,,62,0
89372,note_off,,,,,92,0,3,,,,,,0,,80,0
89372,note_off,,,,,92,0,8,,,,,,4,,80,0
89376,note_on,,,,,4,0,8,,,,,,4,,76,100
89376,note_on,,,,,4,0,3,,,,,,0,,76,100
89376,note_on,,,,,4,0,9,,,,,,4,,60,100
89468,note_off,,,,,92,0,9,,,,,,4,,60,0
89468,note_off,,,,,92,0,8,,,,,,4,,76,0
89468,note_off,,,,,188,0,5,,,,,,2,,62,0
89468,note_off,,,,,0,0,7,,,,,,3,,33,0
89468,note_off,,,,,380,0,6,,,,,,3,,45,0
89468,note_off,,,,,92,0,3,,,,,,0,,76,0
89468,note_off,,,,,380,0,7,,,,,,3,,33,0
89472,note_on,,,,,4,0,9,,,,,,4,,62,100
89472,note_on,,,,,4,0,8,,,,,,4,,77,100
89472,note_on,,,,,4,0,5,,,,,,2,,62,100
89472,note_on,,,,,4,0,3,,,,,,0,,77,100
89564,note_off,,,,,92,0,8,,,,,,4,,77,0
89564,note_off,,,,,92,0,3,,,,,,0,,77,0
89568,note_on,,,,,4,0,8,,,,,,4,,74,100
89568,note_on,,,,,4,0,3,,,,,,0,,74,100
89660,note_off,,,,,92,0,8,,,,,,4,,74,0
89660,note_off,,,,,380,0,4,,,,,,1,,83,0
89660,note_off,,,,,188,0,5,,,,,,2,,62,0
89660,note_off,,,,,188,0,9,,,,,,4,,62,0
89660,note_off,,,,,92,0,3,,,,,,0,,74,0
89664,note_on,,,,,4,0,5,,,,,,2,,62,100
89664,note_on,,,,,4,0,4,,,,,,1,,80,100
89664,note_on,,,,,4,0,8,,,,,,4,,76,100
89664,note_on,,,,,4,0,3,,,,,,0,,76,100
89756,note_off,,,,,92,0,8,,,,,,4,,76,0
89756,note_off,,,,,92,0,4,,,,,,1,,80,0
89756,note_off,,,,,92,0,3,,,,,,0,,76,0
89760,note_on,,,,,4,0,3,,,,,,0,,72,100
89760,note_on,,,,,4,0,8,,,,,,4,,72,100
89760,note_on,,,,,4,0,4,,,,,,1,,76,100
89852,note_off,,,,,92,0,8,,,,,,4,,72,0
89852,note_off,,,,,92,0,4,,,,,,1,,76,0
89852,note_off,,,,,188,0,5,,,,,,2,,62,0
89852,note_off,,,,,92,0,3,,,,,,0,,72,0
89856,note_on,,,,,4,0,8,,,,,,4,,74,100
89856,note_on,,,,,4,0,5,,,,,,2,,62,100
89856,note_on,,,,,4,0,3,,,,,,0,,74,100
89856,note_on,,,,,4,0,4,,,,,,1,,77,100
89948,note_off,,,,,92,0,4,,,,,,1,,77,0
89948,note_off,,,,,92,0,8,,,,,,4,,74,0
89948,note_off,,,,,92,0,3,,,,,,0,,74,0
89952,note_on,,,,,4,0,3,,,,,,0,,71,100
89952,note_on,,,,,4,0,4,,,,,,1,,74,100
89952,note_on,,,,,292,0,9,,,,,,4,,50,100
89952,note_on,,,,,4,0,8,,,,,,4,,71,100
90044,note_off,,,,,188,0,5,,,,,,2,,62,0
90044,note_off,,,,,92,0,3,,,,,,0,,71,0
90044,note_off,,,,,92,0,9,,,,,,4,,50,0
90044,note_off,,,,,92,0,4,,,,,,1,,74,0
90044,note_off,,,,,92,0,8,,,,,,4,,71,0
90048,note_on,,,,,4,0,9,,,,,,4,,62,100
90048,note_on,,,,,4,0,4,,,,,,1,,76,100
90048,note_on,,,,,4,0,5,,,,,,2,,62,100
90048,note_on,,,,,4,0,3,,,,,,0,,72,100
90048,note_on,,,,,4,0,8,,,,,,4,,72,100
90140,note_off,,,,,92,0,8,,,,,,4,,72,0
90140,note_off,,,,,92,0,4,,,,,,1,,76,0
90140,note_off,,,,,92,0,9,,,,,,4,,62,0
90140,note_off,,,,,92,0,3,,,,,,0,,72,0
90144,note_on,,,,,4,0,9,,,,,,4,,60,100
90144,note_on,,,,,4,0,4,,,,,,1,,72,100
90144,note_on,,,,,4,0,3,,,,,,0,,69,100
90144,note_on,,,,,4,0,8,,,,,,4,,69,100
90236,note_off,,,,,92,0,4,,,,,,1,,72,0
90236,note_off,,,,,92,0,8,,,,,,4,,69,0
90236,note_off,,,,,92,0,3,,,,,,0,,69,0
90236,note_off,,,,,188,0,5,,,,,,2,,62,0
90236,note_off,,,,,92,0,9,,,,,,4,,60,0
90240,note_on,,,,,4,0,8,,,,,,4,,71,100
90240,note_on,,,,,4,0,4,,,,,,1,,74,100
90240,note_on,,,,,4,0,9,,,,,,4,,62,100
90240,note_on,,,,,4,0,3,,,,,,0,,71,100
90240,note_on,,,,,4,0,5,,,,,,2,,62,100
90332,note_off,,,,,92,0,8,,,,,,4,,71,0
90332,note_off,,,,,92,0,3,,,,,,0,,71,0
90332,note_off,,,,,92,0,4,,,,,,1,,74,0
90336,note_on,,,,,4,0,3,,,,,,0,,68,100
90336,note_on,,,,,4,0,4,,,,,,1,,71,100
90336,note_on,,,,,4,0,8,,,,,,4,,68,100
90428,note_off,,,,,188,0,9,,,,,,4,,62,0
90428,note_off,,,,,188,0,5,,,,,,2,,62,0
90428,note_off,,,,,92,0,3,,,,,,0,,68,0
90428,note_off,,,,,92,0,8,,,,,,4,,68,0
90428,note_off,,,,,92,0,4,,,,,,1,,71,0
90432,note_on,,,,,4,0,3,,,,,,0,,69,100
90432,note_on,,,,,4,0,8,,,,,,4,,69,100
90432,note_on,,,,,4,0,5,,,,,,2,,62,100
90432,note_on,,,,,4,0,4,,,,,,1,,72,100
90524,note_off,,,,,92,0,3,,,,,,0,,69,0
90524,note_off,,,,,92,0,4,,,,,,1,,72,0
90524,note_off,,,,,92,0,8,,,,,,4,,69,0
90528,note_on,,,,,4,0,4,,,,,,1,,69,100
90528,note_on,,,,,4,0,3,,,,,,0,,66,100
90528,note_on,,,,,4,0,8,,,,,,4,,66,100
90620,note_off,,,,,92,0,4,,,,,,1,,69,0
90620,note_off,,,,,92,0,3,,,,,,0,,66,0
90620,note_off,,,,,92,0,8,,,,,,4,,66,0
90620,note_off,,,,,188,0,5,,,,,,2,,62,0
90624,note_on,,,,,0,0,9,,,,,,4,,52,100
90624,note_on,,,,,4,0,8,,,,,,4,,68,100
90624,note_on,,,,,4,0,4,,,,,,1,,76,100
90624,note_on,,,,,0,0,9,,,,,,4,,50,100
90624,note_on,,,,,196,0,9,,,,,,4,,59,100
90624,note_on,,,,,4,0,5,,,,,,2,,62,100
90624,note_on,,,,,4,0,3,,,,,,0,,68,100
90716,note_off,,,,,92,0,8,,,,,,4,,68,0
90716,note_off,,,,,92,0,3,,,,,,0,,68,0
90720,note_on,,,,,4,0,8,,,,,,4,,64,100
90720,note_on,,,,,4,0,3,,,,,,0,,64,100
90812,note_off,,,,,0,0,9,,,,,,4,,52,0
90812,note_off,,,,,92,0,8,,,,,,4,,64,0
90812,note_off,,,,,188,0,9,,,,,,4,,59,0
90812,note_off,,,,,92,0,3,,,,,,0,,64,0
90816,note_on,,,,,4,0,8,,,,,,4,,66,100
90816,note_on,,,,,4,0,3,,,,,,0,,66,100
90908,note_off,,,,,92,0,8,,,,,,4,,66,0
90908,note_off,,,,,96,0,9,,,,,,4,,50,0
90908,note_off,,,,,92,0,3,,,,,,0,,66,0
90912,note_on,,,,,4,0,8,,,,,,4,,68,100
90912,note_on,,,,,4,0,3,,,,,,0,,68,100
90912,note_on,,,,,4,0,9,,,,,,4,,52,100
91004,note_off,,,,,92,0,3,,,,,,0,,68,0
91004,note_off,,,,,92,0,8,,,,,,4,,68,0
91004,note_off,,,,,92,0,9,,,,,,4,,52,0
91004,note_off,,,,,380,0,5,,,,,,2,,62,0
91008,note_on,,,,,4,0,3,,,,,,0,,69,100
91008,note_on,,,,,4,0,8,,,,,,4,,69,100
91008,note_on,,,,,4,0,9,,,,,,4,,54,100
91100,note_off,,,,,92,0,9,,,,,,4,,54,0
91100,note_off,,,,,92,0,8,,,,,,4,,69,0
91100,note_off,,,,,92,0,3,,,,,,0,,69,0
91104,note_on,,,,,4,0,8,,,,,,4,,71,100
91104,note_on,,,,,4,0,9,,,,,,4,,56,100
91104,note_on,,,,,4,0,3,,,,,,0,,71,100
91196,note_off,,,,,92,0,3,,,,,,0,,71,0
91196,note_off,,,,,92,0,8,,,,,,4,,71,0
91196,note_off,,,,,92,0,9,,,,,,4,,56,0
91200,note_on,,,,,4,0,9,,,,,,4,,57,100
91200,note_on,,,,,4,0,8,,,,,,4,,72,100
91200,note_on,,,,,4,0,3,,,,,,0,,72,100
91292,note_off,,,,,92,0,9,,,,,,4,,57,0
91292,note_off,,,,,92,0,8,,,,,,4,,72,0
91292,note_off,,,,,92,0,3,,,,,,0,,72,0
91296,note_on,,,,,4,0,8,,,,,,4,,74,100
91296,note_on,,,,,4,0,9,,,,,,4,,59,100
91296,note_on,,,,,4,0,3,,,,,,0,,74,100
91388,note_off,,,,,92,0,9,,,,,,4,,59,0
91388,note_off,,,,,92,0,8,,,,,,4,,74,0
91388,note_off,,,,,92,0,3,,,,,,0,,74,0
91392,note_on,,,,,4,0,8,,,,,,4,,76,100
91392,note_on,,,,,1924,0,6,,,,,,3,,49,100
91392,note_on,,,,,4,0,3,,,,,,0,,76,100
91392,note_on,,,,,4,0,9,,,,,,4,,61,100
91392,note_on,,,,,1924,0,7,,,,,,3,,37,100
91484,note_off,,,,,92,0,3,,,,,,0,,76,0
91484,note_off,,,,,92,0,9,,,,,,4,,61,0
91484,note_off,,,,,92,0,8,,,,,,4,,76,0
91484,note_off,,,,,92,0,7,,,,,,3,,37,0
91484,note_off,,,,,92,0,6,,,,,,3,,49,0
91488,note_on,,,,,4,0,3,,,,,,0,,77,100
91488,note_on,,,,,4,0,8,,,,,,4,,77,100
91488,note_on,,,,,4,0,9,,,,,,4,,62,100
91488,note_on,,,,,4,0,7,,,,,,3,,38,100
91488,note_on,,,,,4,0,6,,,,,,3,,50,100
91580,note_off,,,,,92,0,6,,,,,,3,,50,0
91580,note_off,,,,,92,0,8,,,,,,4,,77,0
91580,note_off,,,,,92,0,7,,,,,,3,,38,0
91580,note_off,,,,,92,0,9,,,,,,4,,62,0
91580,note_off,,,,,92,0,3,,,,,,0,,77,0
91584,note_on,,,,,4,0,8,,,,,,4,,79,100
91584,note_on,,,,,4,0,3,,,,,,0,,79,100
91584,note_on,,,,,4,0,9,,,,,,4,,64,100
91584,note_on,,,,,4,0,7,,,,,,3,,40,100
91584,note_on,,,,,4,0,6,,,,,,3,,52,100
91712,note_off,,,,,128,0,7,,,,,,3,,40,0
91712,note_off,,,,,128,0,3,,,,,,0,,79,0
91712,note_off,,,,,128,0,6,,,,,,3,,52,0
91712,note_off,,,,,128,0,8,,,,,,4,,79,0
91712,note_off,,,,,128,0,9,,,,,,4,,64,0
91776,note_on,,,,,64,0,7,,,,,,3,,40,100
91776,note_on,,,,,64,0,6,,,,,,3,,52,100
91776,note_on,,,,,64,0,9,,,,,,4,,64,100
91776,note_on,,,,,64,0,8,,,,,,4,,79,100
91776,note_on,,,,,64,0,3,,,,,,0,,79,100
91868,note_off,,,,,92,0,9,,,,,,4,,64,0
91868,note_off,,,,,92,0,8,,,,,,4,,79,0
91868,note_off,,,,,92,0,3,,,,,,0,,79,0
91868,note_off,,,,,92,0,6,,,,,,3,,52,0
91868,note_off,,,,,92,0,7,,,,,,3,,40,0
91872,note_on,,,,,4,0,8,,,,,,4,,81,100
91872,note_on,,,,,4,0,7,,,,,,3,,41,100
91872,note_on,,,,,4,0,6,,,,,,3,,53,100
91872,note_on,,,,,4,0,9,,,,,,4,,65,100
91872,note_on,,,,,4,0,3,,,,,,0,,81,100
91964,note_off,,,,,92,0,7,,,,,,3,,41,0
91964,note_off,,,,,92,0,6,,,,,,3,,53,0
91964,note_off,,,,,92,0,3,,,,,,0,,81,0
91964,note_off,,,,,92,0,9,,,,,,4,,65,0
91964,note_off,,,,,92,0,8,,,,,,4,,81,0
91968,note_on,,,,,4,0,3,,,,,,0,,82,100
91968,note_on,,,,,4,0,8,,,,,,4,,82,100
91968,note_on,,,,,4,0,6,,,,,,3,,55,100
91968,note_on,,,,,4,0,7,,,,,,3,,43,100
91968,note_on,,,,,4,0,9,,,,,,4,,67,100
92096,note_off,,,,,128,0,9,,,,,,4,,67,0
92096,note_off,,,,,128,0,3,,,,,,0,,82,0
92096,note_off,,,,,128,0,8,,,,,,4,,82,0
92096,note_off,,,,,128,0,7,,,,,,3,,43,0
92096,note_off,,,,,128,0,6,,,,,,3,,55,0
92160,note_on,,,,,0,0,8,,,,,,4,,73,100
92160,note_on,,,,,64,0,6,,,,,,3,,55,100
92160,note_on,,,,,1156,0,5,,,,,,2,,58,100
92160,note_on,,,,,64,0,3,,,,,,0,,73,100
92160,note_on,,,,,64,0,7,,,,,,3,,43,100
92160,note_on,,,,,64,0,8,,,,,,4,,64,100
92160,note_on,,,,,0,0,9,,,,,,4,,55,100
92160,note_on,,,,,64,0,9,,,,,,4,,58,100
92288,note_off,,,,,128,0,8,,,,,,4,,64,0
92288,note_off,,,,,0,0,8,,,,,,4,,73,0
92288,note_off,,,,,0,0,9,,,,,,4,,55,0
92288,note_off,,,,,128,0,9,,,,,,4,,58,0
92288,note_off,,,,,128,0,3,,,,,,0,,73,0
92348,note_off,,,,,188,0,6,,,,,,3,,55,0
92348,note_off,,,,,188,0,5,,,,,,2,,58,0
92348,note_off,,,,,188,0,7,,,,,,3,,43,0
92348,note_off,,,,,1724,0,4,,,,,,1,,76,0
92352,note_on,,,,,4,0,6,,,,,,3,,53,100
92352,note_on,,,,,4,0,7,,,,,,3,,41,100
92352,note_on,,,,,0,0,8,,,,,,4,,74,100
92352,note_on,,,,,0,0,9,,,,,,4,,53,100
92352,note_on,,,,,4,0,4,,,,,,1,,77,100
92352,note_on,,,,,64,0,8,,,,,,4,,65,100
92352,note_on,,,,,64,0,3,,,,,,0,,74,100
92352,note_on,,,,,4,0,5,,,,,,2,,57,100
92352,note_on,,,,,64,0,9,,,,,,4,,57,100
92480,note_off,,,,,128,0,7,,,,,,3,,41,0
92480,note_off,,,,,128,0,3,,,,,,0,,74,0
92480,note_off,,,,,128,0,6,,,,,,3,,53,0
92480,note_off,,,,,0,0,9,,,,,,4,,53,0
92480,note_off,,,,,128,0,5,,,,,,2,,57,0
92480,note_off,,,,,128,0,8,,,,,,4,,65,0
92480,note_off,,,,,128,0,9,,,,,,4,,57,0
92480,note_off,,,,,0,0,8,,,,,,4,,74,0
92480,note_off,,,,,128,0,4,,,,,,1,,77,0
92544,note_on,,,,,64,0,8,,,,,,4,,62,100
92544,note_on,,,,,64,0,3,,,,,,0,,68,100
92544,note_on,,,,,0,0,8,,,,,,4,,68,100
92544,note_on,,,,,64,0,4,,,,,,1,,71,100
92544,note_on,,,,,64,0,7,,,,,,3,,41,100
92544,note_on,,,,,0,0,9,,,,,,4,,53,100
92544,note_on,,,,,64,0,6,,,,,,3,,53,100
92544,note_on,,,,,64,0,9,,,,,,4,,59,100
92544,note_on,,,,,64,0,5,,,,,,2,,62,100
92672,note_off,,,,,0,0,9,,,,,,4,,53,0
92672,note_off,,,,,0,0,8,,,,,,4,,68,0
92672,note_off,,,,,128,0,8,,,,,,4,,62,0
92672,note_off,,,,,128,0,9,,,,,,4,,59,0
92672,note_off,,,,,128,0,3,,,,,,0,,68,0
92672,note_off,,,,,128,0,4,,,,,,1,,71,0
92732,note_off,,,,,188,0,7,,,,,,3,,41,0
92732,note_off,,,,,188,0,5,,,,,,2,,62,0
92732,note_off,,,,,188,0,6,,,,,,3,,53,0
92736,note_on,,,,,64,0,8,,,,,,4,,64,100
92736,note_on,,,,,4,0,6,,,,,,3,,52,100
92736,note_on,,,,,4,0,7,,,,,,3,,40,100
92736,note_on,,,,,4,0,5,,,,,,2,,64,100
92736,note_on,,,,,64,0,3,,,,,,0,,69,100
92736,note_on,,,,,0,0,8,,,,,,4,,69,100
92736,note_on,,,,,0,0,9,,,,,,4,,52,100
92736,note_on,,,,,64,0,9,,,,,,4,,60,100
92736,note_on,,,,,64,0,4,,,,,,1,,72,100
92864,note_off,,,,,128,0,7,,,,,,3,,40,0
92864,note_off,,,,,128,0,5,,,,,,2,,64,0
92864,note_off,,,,,0,0,8,,,,,,4,,69,0
92864,note_off,,,,,128,0,4,,,,,,1,,72,0
92864,note_off,,,,,128,0,8,,,,,,4,,64,0
92864,note_off,,,,,128,0,6,,,,,,3,,52,0
92864,note_off,,,,,128,0,3,,,,,,0,,69,0
92864,note_off,,,,,128,0,9,,,,,,4,,60,0
92864,note_off,,,,,0,0,9,,,,,,4,,52,0
92928,note_on,,,,,64,0,4,,,,,,1,,63,100
92928,note_on,,,,,64,0,6,,,,,,3,,51,100
92928,note_on,,,,,64,0,9,,,,,,4,,51,100
92928,note_on,,,,,64,0,3,,,,,,0,,63,100
92928,note_on,,,,,64,0,5,,,,,,2,,63,100
92928,note_on,,,,,64,0,8,,,,,,4,,63,100
92928,note_on,,,,,64,0,7,,,,,,3,,39,100
93116,note_off,,,,,188,0,8,,,,,,4,,63,0
93116,note_off,,,,,188,0,4,,,,,,1,,63,0
93116,note_off,,,,,188,0,6,,,,,,3,,51,0
93116,note_off,,,,,188,0,7,,,,,,3,,39,0
93116,note_off,,,,,188,0,3,,,,,,0,,63,0
93116,note_off,,,,,188,0,9,,,,,,4,,51,0
93116,note_off,,,,,188,0,5,,,,,,2,,63,0
93312,note_on,,,,,196,0,3,,,,,,0,,64,100
93312,note_on,,,,,196,0,4,,,,,,1,,64,100
93312,note_on,,,,,196,0,5,,,,,,2,,64,100
93312,note_on,,,,,196,0,9,,,,,,4,,52,100
93312,note_on,,,,,196,0,6,,,,,,3,,52,100
93312,note_on,,,,,196,0,8,,,,,,4,,64,100
93312,note_on,,,,,196,0,7,,,,,,3,,40,100
93500,note_off,,,,,188,0,4,,,,,,1,,64,0
93500,note_off,,,,,188,0,8,,,,,,4,,64,0
93500,note_off,,,,,188,0,6,,,,,,3,,52,0
93500,note_off,,,,,188,0,5,,,,,,2,,64,0
93500,note_off,,,,,188,0,3,,,,,,0,,64,0
93500,note_off,,,,,188,0,9,,,,,,4,,52,0
93500,note_off,,,,,188,0,7,,,,,,3,,40,0
93696,note_on,,,,,196,0,5,,,,,,2,,57,100
93696,note_on,,,,,196,0,7,,,,,,3,,33,100
93696,note_on,,,,,196,0,6,,,,,,3,,45,100
93696,note_on,,,,,196,0,3,,,,,,0,,57,100
93696,note_on,,,,,196,0,4,,,,,,1,,57,100
93696,note_on,,,,,196,0,9,,,,,,4,,57,100
93788,note_off,,,,,92,0,9,,,,,,4,,57,0
93792,note_on,,,,,4,0,9,,,,,,4,,69,100
93884,note_off,,,,,188,0,3,,,,,,0,,57,0
93884,note_off,,,,,188,0,5,,,,,,2,,57,0
93884,note_off,,,,,92,0,9,,,,,,4,,69,0
93884,note_off,,,,,188,0,4,,,,,,1,,57,0
93888,note_on,,,,,388,0,8,,,,,,4,,69,100
93888,note_on,,,,,4,0,3,,,,,,0,,57,85
93980,note_off,,,,,92,0,8,,,,,,4,,69,0
93984,note_on,,,,,100,0,9,,,,,,4,,69,100
94076,note_off,,,,,380,0,7,,,,,,3,,33,0
94076,note_off,,,,,92,0,9,,,,,,4,,69,0
94076,note_off,,,,,380,0,6,,,,,,3,,45,0
94076,note_off,,,,,188,0,3,,,,,,0,,57,0
94080,note_on,,,,,100,0,8,,,,,,4,,68,100
94080,note_on,,,,,4,0,3,,,,,,0,,59,85
94172,note_off,,,,,92,0,8,,,,,,4,,68,0
94176,note_on,,,,,100,0,9,,,,,,4,,69,100
94268,note_off,,,,,188,0,3,,,,,,0,,59,0
94268,note_off,,,,,92,0,9,,,,,,4,,69,0
94272,note_on,,,,,100,0,8,,,,,,4,,69,100
94272,note_on,,,,,4,0,3,,,,,,0,,60,85
94364,note_off,,,,,92,0,8,,,,,,4,,69,0
94368,note_on,,,,,100,0,9,,,,,,4,,69,100
94460,note_off,,,,,188,0,3,,,,,,0,,60,0
94460,note_off,,,,,92,0,9,,,,,,4,,69,0
94464,note_on,,,,,100,0,8,,,,,,4,,70,100
94464,note_on,,,,,4,0,3,,,,,,0,,62,85
94556,note_off,,,,,92,0,8,,,,,,4,,70,0
94560,note_on,,,,,100,0,9,,,,,,4,,69,100
94652,note_off,,,,,188,0,3,,,,,,0,,62,0
94652,note_off,,,,,92,0,9,,,,,,4,,69,0
94656,note_on,,,,,100,0,8,,,,,,4,,69,100
94656,note_on,,,,,4,0,3,,,,,,0,,65,85
94748,note_off,,,,,92,0,8,,,,,,4,,69,0
94752,note_on,,,,,100,0,9,,,,,,4,,69,100
94844,note_off,,,,,92,0,9,,,,,,4,,69,0
94844,note_off,,,,,188,0,3,,,,,,0,,65,0
94848,note_on,,,,,4,0,3,,,,,,0,,64,85
94848,note_on,,,,,100,0,8,,,,,,4,,68,100
94940,note_off,,,,,92,0,8,,,,,,4,,68,0
94944,note_on,,,,,100,0,9,,,,,,4,,69,100
95036,note_off,,,,,92,0,9,,,,,,4,,69,0
95036,note_off,,,,,188,0,3,,,,,,0,,64,0
95040,note_on,,,,,100,0,8,,,,,,4,,69,100
95040,note_on,,,,,4,0,3,,,,,,0,,62,85
95132,note_off,,,,,92,0,8,,,,,,4,,69,0
95136,note_on,,,,,100,0,9,,,,,,4,,69,100
95228,note_off,,,,,92,0,9,,,,,,4,,69,0
95228,note_off,,,,,188,0,3,,,,,,0,,62,0
95232,note_on,,,,,100,0,8,,,,,,4,,64,100
95232,note_on,,,,,4,0,9,,,,,,4,,57,100
95232,note_on,,,,,1156,0,7,,,,,,3,,33,85
95232,note_on,,,,,4,0,3,,,,,,0,,60,85
95232,note_on,,,,,1156,0,6,,,,,,3,,45,85
95324,note_off,,,,,92,0,8,,,,,,4,,64,0
95324,note_off,,,,,92,0,9,,,,,,4,,57,0
95328,note_on,,,,,4,0,9,,,,,,4,,69,100
95420,note_off,,,,,188,0,3,,,,,,0,,60,0
95420,note_off,,,,,92,0,9,,,,,,4,,69,0
95424,note_on,,,,,4,0,3,,,,,,0,,57,85
95424,note_on,,,,,100,0,8,,,,,,4,,69,100
95516,note_off,,,,,92,0,8,,,,,,4,,69,0
95520,note_on,,,,,100,0,9,,,,,,4,,69,100
95612,note_off,,,,,188,0,3,,,,,,0,,57,0
95612,note_off,,,,,380,0,7,,,,,,3,,33,0
95612,note_off,,,,,380,0,6,,,,,,3,,45,0
95612,note_off,,,,,92,0,9,,,,,,4,,69,0
95616,note_on,,,,,100,0,8,,,,,,4,,68,100
95616,note_on,,,,,4,0,3,,,,,,0,,59,85
95708,note_off,,,,,92,0,8,,,,,,4,,68,0
95712,note_on,,,,,100,0,9,,,,,,4,,69,100
95804,note_off,,,,,92,0,9,,,,,,4,,69,0
95804,note_off,,,,,188,0,3,,,,,,0,,59,0
95808,note_on,,,,,4,0,3,,,,,,0,,60,85
95808,note_on,,,,,100,0,8,,,,,,4,,69,100
95900,note_off,,,,,92,0,8,,,,,,4,,69,0
95904,note_on,,,,,100,0,9,,,,,,4,,69,100
95996,note_off,,,,,92,0,9,,,,,,4,,69,0
95996,note_off,,,,,188,0,3,,,,,,0,,60,0
96000,note_on,,,,,100,0,8,,,,,,4,,70,100
96000,note_on,,,,,4,0,3,,,,,,0,,62,85
96092,note_off,,,,,92,0,8,,,,,,4,,70,0
96096,note_on,,,,,100,0,9,,,,,,4,,69,100
96188,note_off,,,,,92,0,9,,,,,,4,,69,0
96188,note_off,,,,,188,0,3,,,,,,0,,62,0
96192,note_on,,,,,4,0,3,,,,,,0,,65,85
96192,note_on,,,,,100,0,8,,,,,,4,,69,100
96284,note_off,,,,,92,0,8,,,,,,4,,69,0
96288,note_on,,,,,100,0,9,,,,,,4,,69,100
96380,note_off,,,,,188,0,3,,,,,,0,,65,0
96380,note_off,,,,,92,0,9,,,,,,4,,69,0
96384,note_on,,,,,4,0,3,,,,,,0,,64,85
96384,note_on,,,,,100,0,8,,,,,,4,,68,100
96476,note_off,,,,,92,0,8,,,,,,4,,68,0
96480,note_on,,,,,100,0,9,,,,,,4,,69,100
96572,note_off,,,,,188,0,3,,,,,,0,,64,0
96572,note_off,,,,,92,0,9,,,,,,4,,69,0
96576,note_on,,,,,4,0,3,,,,,,0,,62,85
96576,note_on,,,,,100,0,8,,,,,,4,,69,100
96668,note_off,,,,,92,0,8,,,,,,4,,69,0
96672,note_on,,,,,100,0,9,,,,,,4,,69,100
96764,note_off,,,,,92,0,9,,,,,,4,,69,0
96764,note_off,,,,,188,0,3,,,,,,0,,62,0
96768,note_on,,,,,1156,0,6,,,,,,3,,45,85
96768,note_on,,,,,4,0,3,,,,,,0,,60,85
96768,note_on,,,,,4,0,9,,,,,,4,,57,100
96768,note_on,,,,,1156,0,7,,,,,,3,,33,85
96768,note_on,,,,,100,0,8,,,,,,4,,64,100
96860,note_off,,,,,92,0,8,,,,,,4,,64,0
96860,note_off,,,,,92,0,9,,,,,,4,,57,0
96864,note_on,,,,,4,0,9,,,,,,4,,69,100
96956,note_off,,,,,92,0,9,,,,,,4,,69,0
96956,note_off,,,,,188,0,3,,,,,,0,,60,0
96960,note_on,,,,,100,0,8,,,,,,4,,72,100
96960,note_on,,,,,4,0,3,,,,,,0,,69,85
96960,note_on,,,,,0,0,8,,,,,,4,,64,100
97052,note_off,,,,,92,0,8,,,,,,4,,72,0
97052,note_off,,,,,0,0,8,,,,,,4,,64,0
97056,note_on,,,,,100,0,9,,,,,,4,,69,100
97148,note_off,,,,,92,0,9,,,,,,4,,69,0
97148,note_off,,,,,188,0,3,,,,,,0,,69,0
97148,note_off,,,,,380,0,6,,,,,,3,,45,0
97148,note_off,,,,,380,0,7,,,,,,3,,33,0
97152,note_on,,,,,100,0,8,,,,,,4,,71,100
97152,note_on,,,,,0,0,8,,,,,,4,,62,100
97152,note_on,,,,,4,0,3,,,,,,0,,68,85
97244,note_off,,,,,92,0,8,,,,,,4,,71,0
97244,note_off,,,,,0,0,8,,,,,,4,,62,0
97248,note_on,,,,,100,0,9,,,,,,4,,69,100
97340,note_off,,,,,92,0,9,,,,,,4,,69,0
97340,note_off,,,,,188,0,3,,,,,,0,,68,0
97344,note_on,,,,,100,0,8,,,,,,4,,72,100
97344,note_on,,,,,4,0,3,,,,,,0,,69,85
97344,note_on,,,,,0,0,8,,,,,,4,,64,100
97436,note_off,,,,,92,0,8,,,,,,4,,72,0
97436,note_off,,,,,0,0,8,,,,,,4,,64,0
97440,note_on,,,,,100,0,9,,,,,,4,,69,100
97532,note_off,,,,,92,0,9,,,,,,4,,69,0
97532,note_off,,,,,188,0,3,,,,,,0,,69,0
97536,note_on,,,,,4,0,3,,,,,,0,,71,85
97536,note_on,,,,,0,0,8,,,,,,4,,65,100
97536,note_on,,,,,100,0,8,,,,,,4,,74,100
97628,note_off,,,,,0,0,8,,,,,,4,,65,0
97628,note_off,,,,,92,0,8,,,,,,4,,74,0
97632,note_on,,,,,100,0,9,,,,,,4,,69,100
97724,note_off,,,,,188,0,3,,,,,,0,,71,0
97724,note_off,,,,,92,0,9,,,,,,4,,69,0
97728,note_on,,,,,100,0,8,,,,,,4,,72,100
97728,note_on,,,,,0,0,8,,,,,,4,,64,100
97728,note_on,,,,,4,0,3,,,,,,0,,69,85
97820,note_off,,,,,92,0,8,,,,,,4,,72,0
97820,note_off,,,,,0,0,8,,,,,,4,,64,0
97824,note_on,,,,,100,0,9,,,,,,4,,69,100
97916,note_off,,,,,92,0,9,,,,,,4,,69,0
97916,note_off,,,,,188,0,3,,,,,,0,,69,0
97920,note_on,,,,,0,0,8,,,,,,4,,65,100
97920,note_on,,,,,100,0,8,,,,,,4,,74,100
97920,note_on,,,,,4,0,3,,,,,,0,,71,85
98012,note_off,,,,,92,0,8,,,,,,4,,74,0
98012,note_off,,,,,0,0,8,,,,,,4,,65,0
98016,note_on,,,,,100,0,9,,,,,,4,,69,100
98108,note_off,,,,,188,0,3,,,,,,0,,71,0
98108,note_off,,,,,92,0,9,,,,,,4,,69,0
98112,note_on,,,,,0,0,8,,,,,,4,,62,100
98112,note_on,,,,,4,0,3,,,,,,0,,68,85
98112,note_on,,,,,100,0,8,,,,,,4,,71,100
98204,note_off,,,,,92,0,8,,,,,,4,,71,0
98204,note_off,,,,,0,0,8,,,,,,4,,62,0
98208,note_on,,,,,100,0,9,,,,,,4,,69,100
98300,note_off,,,,,188,0,3,,,,,,0,,68,0
98300,note_off,,,,,92,0,9,,,,,,4,,69,0
98304,note_on,,,,,1156,0,6,,,,,,3,,45,85
98304,note_on,,,,,4,0,3,,,,,,0,,69,85
98304,note_on,,,,,1156,0,7,,,,,,3,,33,85
98304,note_on,,,,,0,0,8,,,,,,4,,64,100
98304,note_on,,,,,100,0,8,,,,,,4,,72,100
98396,note_off,,,,,92,0,8,,,,,,4,,72,0
98396,note_off,,,,,0,0,8,,,,,,4,,64,0
98400,note_on,,,,,100,0,9,,,,,,4,,69,100
98492,note_off,,,,,188,0,3,,,,,,0,,69,0
98492,note_off,,,,,92,0,9,,,,,,4,,69,0
98496,note_on,,,,,4,0,3,,,,,,0,,69,85
98496,note_on,,,,,0,0,8,,,,,,4,,64,100
98496,note_on,,,,,100,0,8,,,,,,4,,72,100
98588,note_off,,,,,92,0,8,,,,,,4,,72,0
98588,note_off,,,,,0,0,8,,,,,,4,,64,0
98592,note_on,,,,,100,0,9,,,,,,4,,69,100
98684,note_off,,,,,380,0,6,,,,,,3,,45,0
98684,note_off,,,,,92,0,9,,,,,,4,,69,0
98684,note_off,,,,,380,0,7,,,,,,3,,33,0
98684,note_off,,,,,188,0,3,,,,,,0,,69,0
98688,note_on,,,,,100,0,8,,,,,,4,,71,100
98688,note_on,,,,,0,0,8,,,,,,4,,62,100
98688,note_on,,,,,4,0,3,,,,,,0,,68,85
98780,note_off,,,,,92,0,8,,,,,,4,,71,0
98780,note_off,,,,,0,0,8,,,,,,4,,62,0
98784,note_on,,,,,100,0,9,,,,,,4,,69,100
98876,note_off,,,,,92,0,9,,,,,,4,,69,0
98876,note_off,,,,,188,0,3,,,,,,0,,68,0
98880,note_on,,,,,0,0,8,,,,,,4,,64,100
98880,note_on,,,,,4,0,3,,,,,,0,,69,85
98880,note_on,,,,,100,0,8,,,,,,4,,72,100
98972,note_off,,,,,0,0,8,,,,,,4,,64,0
98972,note_off,,,,,92,0,8,,,,,,4,,72,0
98976,note_on,,,,,100,0,9,,,,,,4,,69,100
99068,note_off,,,,,188,0,3,,,,,,0,,69,0
99068,note_off,,,,,92,0,9,,,,,,4,,69,0
99072,note_on,,,,,100,0,8,,,,,,4,,74,100
99072,note_on,,,,,4,0,3,,,,,,0,,71,85
99072,note_on,,,,,0,0,8,,,,,,4,,65,100
99164,note_off,,,,,92,0,8,,,,,,4,,74,0
99164,note_off,,,,,0,0,8,,,,,,4,,65,0
99168,note_on,,,,,100,0,9,,,,,,4,,69,100
99260,note_off,,,,,92,0,9,,,,,,4,,69,0
99260,note_off,,,,,188,0,3,,,,,,0,,71,0
99264,note_on,,,,,0,0,8,,,,,,4,,64,100
99264,note_on,,,,,100,0,8,,,,,,4,,72,100
99264,note_on,,,,,4,0,3,,,,,,0,,69,85
99356,note_off,,,,,0,0,8,,,,,,4,,64,0
99356,note_off,,,,,92,0,8,,,,,,4,,72,0
99360,note_on,,,,,100,0,9,,,,,,4,,69,100
99452,note_off,,,,,92,0,9,,,,,,4,,69,0
99452,note_off,,,,,188,0,3,,,,,,0,,69,0
99456,note_on,,,,,4,0,3,,,,,,0,,71,85
99456,note_on,,,,,100,0,8,,,,,,4,,74,100
99456,note_on,,,,,0,0,8,,,,,,4,,65,100
99548,note_off,,,,,92,0,8,,,,,,4,,74,0
99548,note_off,,,,,0,0,8,,,,,,4,,65,0
99552,note_on,,,,,100,0,9,,,,,,4,,69,100
99644,note_off,,,,,188,0,3,,,,,,0,,71,0
99644,note_off,,,,,92,0,9,,,,,,4,,69,0
99648,note_on,,,,,0,0,8,,,,,,4,,62,100
99648,note_on,,,,,4,0,3,,,,,,0,,68,85
99648,note_on,,,,,100,0,8,,,,,,4,,71,100
99740,note_off,,,,,92,0,8,,,,,,4,,71,0
99740,note_off,,,,,0,0,8,,,,,,4,,62,0
99744,note_on,,,,,100,0,9,,,,,,4,,69,100
99836,note_off,,,,,188,0,3,,,,,,0,,68,0
99836,note_off,,,,,92,0,9,,,,,,4,,69,0
99840,note_on,,,,,1156,0,7,,,,,,3,,33,85
99840,note_on,,,,,1156,0,6,,,,,,3,,45,85
99840,note_on,,,,,100,0,8,,,,,,4,,72,100
99840,note_on,,,,,0,0,8,,,,,,4,,64,100
99840,note_on,,,,,4,0,3,,,,,,0,,69,85
99932,note_off,,,,,92,0,8,,,,,,4,,72,0
99932,note_off,,,,,0,0,8,,,,,,4,,64,0
99936,note_on,,,,,100,0,9,,,,,,4,,69,100
100028,note_off,,,,,188,0,3,,,,,,0,,69,0
100028,note_off,,,,,92,0,9,,,,,,4,,69,0
100032,note_on,,,,,0,0,8,,,,,,4,,60,100
100032,note_on,,,,,4,0,3,,,,,,0,,64,85
100032,note_on,,,,,100,0,8,,,,,,4,,69,100
100124,note_off,,,,,92,0,8,,,,,,4,,69,0
100124,note_off,,,,,0,0,8,,,,,,4,,60,0
100128,note_on,,,,,100,0,9,,,,,,4,,69,100
100220,note_off,,,,,380,0,7,,,,,,3,,33,0
100220,note_off,,,,,188,0,3,,,,,,0,,64,0
100220,note_off,,,,,380,0,6,,,,,,3,,45,0
100220,note_off,,,,,92,0,9,,,,,,4,,69,0
100224,note_on,,,,,0,0,8,,,,,,4,,62,100
100224,note_on,,,,,100,0,8,,,,,,4,,70,100
100224,note_on,,,,,4,0,3,,,,,,0,,65,85
100316,note_off,,,,,0,0,8,,,,,,4,,62,0
100316,note_off,,,,,92,0,8,,,,,,4,,70,0
100320,note_on,,,,,100,0,9,,,,,,4,,69,100
100412,note_off,,,,,188,0,3,,,,,,0,,65,0
100412,note_off,,,,,92,0,9,,,,,,4,,69,0
100416,note_on,,,,,4,0,3,,,,,,0,,62,85
100416,note_on,,,,,0,0,8,,,,,,4,,68,100
100416,note_on,,,,,100,0,8,,,,,,4,,59,100
100508,note_off,,,,,0,0,8,,,,,,4,,68,0
100508,note_off,,,,,92,0,8,,,,,,4,,59,0
100512,note_on,,,,,100,0,9,,,,,,4,,69,100
100604,note_off,,,,,188,0,3,,,,,,0,,62,0
100604,note_off,,,,,92,0,9,,,,,,4,,69,0
100608,note_on,,,,,4,0,3,,,,,,0,,64,85
100608,note_on,,,,,100,0,8,,,,,,4,,69,100
100608,note_on,,,,,0,0,8,,,,,,4,,60,100
100700,note_off,,,,,92,0,8,,,,,,4,,69,0
100700,note_off,,,,,0,0,8,,,,,,4,,60,0
100704,note_on,,,,,100,0,9,,,,,,4,,69,100
100796,note_off,,,,,92,0,9,,,,,,4,,69,0
100796,note_off,,,,,188,0,3,,,,,,0,,64,0
100800,note_on,,,,,4,0,3,,,,,,0,,69,85
100800,note_on,,,,,100,0,8,,,,,,4,,72,100
100800,note_on,,,,,0,0,8,,,,,,4,,64,100
100892,note_off,,,,,92,0,8,,,,,,4,,72,0
100892,note_off,,,,,0,0,8,,,,,,4,,64,0
100896,note_on,,,,,100,0,9,,,,,,4,,69,100
100988,note_off,,,,,188,0,3,,,,,,0,,69,0
100988,note_off,,,,,92,0,9,,,,,,4,,69,0
100992,note_on,,,,,4,0,3,,,,,,0,,65,85
100992,note_on,,,,,100,0,8,,,,,,4,,70,100
100992,note_on,,,,,0,0,8,,,,,,4,,62,100
101084,note_off,,,,,0,0,8,,,,,,4,,62,0
101084,note_off,,,,,92,0,8,,,,,,4,,70,0
101088,note_on,,,,,100,0,9,,,,,,4,,69,100
101180,note_off,,,,,188,0,3,,,,,,0,,65,0
101180,note_off,,,,,92,0,9,,,,,,4,,69,0
101184,note_on,,,,,100,0,8,,,,,,4,,68,100
101184,note_on,,,,,0,0,8,,,,,,4,,59,100
101184,note_on,,,,,4,0,3,,,,,,0,,62,85
101276,note_off,,,,,92,0,8,,,,,,4,,68,0
101276,note_off,,,,,0,0,8,,,,,,4,,59,0
101280,note_on,,,,,100,0,9,,,,,,4,,69,100
101372,note_off,,,,,92,0,9,,,,,,4,,69,0
101372,note_off,,,,,188,0,3,,,,,,0,,62,0
101376,note_on,,,,,1156,0,6,,,,,,3,,45,85
101376,note_on,,,,,1156,0,7,,,,,,3,,33,85
101376,note_on,,,,,4,0,3,,,,,,0,,64,85
101376,note_on,,,,,100,0,8,,,,,,4,,69,100
101376,note_on,,,,,0,0,8,,,,,,4,,60,100
101468,note_off,,,,,92,0,8,,,,,,4,,69,0
101468,note_off,,,,,0,0,8,,,,,,4,,60,0
101472,note_on,,,,,100,0,9,,,,,,4,,69,100
101564,note_off,,,,,92,0,9,,,,,,4,,69,0
101564,note_off,,,,,188,0,3,,,,,,0,,64,0
101568,note_on,,,,,4,0,3,,,,,,0,,64,85
101568,note_on,,,,,100,0,8,,,,,,4,,64,100
101568,note_on,,,,,0,0,8,,,,,,4,,60,100
101660,note_off,,,,,92,0,8,,,,,,4,,64,0
101660,note_off,,,,,0,0,8,,,,,,4,,60,0
101664,note_on,,,,,100,0,9,,,,,,4,,69,100
101756,note_off,,,,,92,0,9,,,,,,4,,69,0
101756,note_off,,,,,380,0,7,,,,,,3,,33,0
101756,note_off,,,,,380,0,6,,,,,,3,,45,0
101760,note_on,,,,,0,0,8,,,,,,4,,66,100
101760,note_on,,,,,100,0,8,,,,,,4,,62,100
101852,note_off,,,,,92,0,8,,,,,,4,,62,0
101852,note_off,,,,,0,0,8,,,,,,4,,66,0
101856,note_on,,,,,100,0,9,,,,,,4,,69,100
101948,note_off,,,,,380,0,3,,,,,,0,,64,0
101948,note_off,,,,,92,0,9,,,,,,4,,69,0
101952,note_on,,,,,4,0,3,,,,,,0,,62,85
101952,note_on,,,,,100,0,8,,,,,,4,,68,100
101952,note_on,,,,,0,0,8,,,,,,4,,59,100
102044,note_off,,,,,0,0,8,,,,,,4,,59,0
102044,note_off,,,,,92,0,8,,,,,,4,,68,0
102048,note_on,,,,,100,0,9,,,,,,4,,69,100
102140,note_off,,,,,92,0,9,,,,,,4,,69,0
102140,note_off,,,,,188,0,3,,,,,,0,,62,0
102144,note_on,,,,,0,0,8,,,,,,4,,60,100
102144,note_on,,,,,4,0,3,,,,,,0,,60,85
102144,note_on,,,,,100,0,8,,,,,,4,,69,100
102236,note_off,,,,,92,0,8,,,,,,4,,69,0
102236,note_off,,,,,0,0,8,,,,,,4,,60,0
102240,note_on,,,,,100,0,9,,,,,,4,,69,100
102332,note_off,,,,,92,0,9,,,,,,4,,69,0
102332,note_off,,,,,188,0,3,,,,,,0,,60,0
102336,note_on,,,,,100,0,8,,,,,,4,,64,100
102336,note_on,,,,,0,0,8,,,,,,4,,60,100
102336,note_on,,,,,4,0,3,,,,,,0,,60,85
102428,note_off,,,,,0,0,8,,,,,,4,,60,0
102428,note_off,,,,,92,0,8,,,,,,4,,64,0
102432,note_on,,,,,100,0,9,,,,,,4,,69,100
102524,note_off,,,,,92,0,9,,,,,,4,,69,0
102528,note_on,,,,,0,0,8,,,,,,4,,62,100
102528,note_on,,,,,100,0,8,,,,,,4,,66,100
102620,note_off,,,,,92,0,8,,,,,,4,,66,0
102620,note_off,,,,,0,0,8,,,,,,4,,62,0
102624,note_on,,,,,100,0,9,,,,,,4,,69,100
102716,note_off,,,,,380,0,3,,,,,,0,,60,0
102716,note_off,,,,,92,0,9,,,,,,4,,69,0
102720,note_on,,,,,0,0,8,,,,,,4,,59,100
102720,note_on,,,,,4,0,3,,,,,,0,,59,85
102720,note_on,,,,,100,0,8,,,,,,4,,68,100
102812,note_off,,,,,0,0,8,,,,,,4,,59,0
102812,note_off,,,,,92,0,8,,,,,,4,,68,0
102816,note_on,,,,,100,0,9,,,,,,4,,69,100
102908,note_off,,,,,92,0,9,,,,,,4,,69,0
102908,note_off,,,,,188,0,3,,,,,,0,,59,0
102912,note_on,,,,,100,0,8,,,,,,4,,69,100
102912,note_on,,,,,4,0,3,,,,,,0,,57,85
102912,note_on,,,,,0,0,8,,,,,,4,,60,100
103004,note_off,,,,,0,0,8,,,,,,4,,60,0
103004,note_off,,,,,92,0,8,,,,,,4,,69,0
103008,note_on,,,,,100,0,9,,,,,,4,,69,100
103100,note_off,,,,,92,0,9,,,,,,4,,69,0
103104,note_on,,,,,0,0,8,,,,,,4,,60,100
103104,note_on,,,,,100,0,8,,,,,,4,,64,100
103196,note_off,,,,,0,0,8,,,,,,4,,60,0
103196,note_off,,,,,92,0,8,,,,,,4,,64,0
103200,note_on,,,,,100,0,9,,,,,,4,,69,100
103292,note_off,,,,,380,0,3,,,,,,0,,57,0
103292,note_off,,,,,92,0,9,,,,,,4,,69,0
103296,note_on,,,,,0,0,8,,,,,,4,,62,100
103296,note_on,,,,,100,0,8,,,,,,4,,66,100
103388,note_off,,,,,0,0,8,,,,,,4,,62,0
103388,note_off,,,,,92,0,8,,,,,,4,,66,0
103392,note_on,,,,,100,0,9,,,,,,4,,69,100
103484,note_off,,,,,92,0,9,,,,,,4,,69,0
103488,note_on,,,,,0,0,8,,,,,,4,,68,100
103488,note_on,,,,,100,0,8,,,,,,4,,64,100
103580,note_off,,,,,0,0,8,,,,,,4,,68,0
103580,note_off,,,,,92,0,8,,,,,,4,,64,0
103584,note_on,,,,,100,0,9,,,,,,4,,69,100
103676,note_off,,,,,92,0,9,,,,,,4,,69,0
103680,note_on,,,,,100,0,8,,,,,,4,,66,100
103680,note_on,,,,,0,0,8,,,,,,4,,69,100
103772,note_off,,,,,92,0,8,,,,,,4,,66,0
103772,note_off,,,,,0,0,8,,,,,,4,,69,0
103776,note_on,,,,,100,0,9,,,,,,4,,69,100
103868,note_off,,,,,92,0,9,,,,,,4,,69,0
103872,note_on,,,,,0,0,8,,,,,,4,,71,100
103872,note_on,,,,,100,0,8,,,,,,4,,68,100
103964,note_off,,,,,92,0,8,,,,,,4,,68,0
103964,note_off,,,,,0,0,8,,,,,,4,,71,0
103968,note_on,,,,,100,0,9,,,,,,4,,69,100
104060,note_off,,,,,92,0,9,,,,,,4,,69,0
104064,note_on,,,,,100,0,8,,,,,,4,,69,100
104064,note_on,,,,,0,0,8,,,,,,4,,72,100
104156,note_off,,,,,92,0,8,,,,,,4,,69,0
104156,note_off,,,,,0,0,8,,,,,,4,,72,0
104160,note_on,,,,,100,0,9,,,,,,4,,69,100
104252,note_off,,,,,92,0,9,,,,,,4,,69,0
104256,note_on,,,,,100,0,8,,,,,,4,,74,100
104256,note_on,,,,,0,0,8,,,,,,4,,71,100
104348,note_off,,,,,92,0,8,,,,,,4,,74,0
104348,note_off,,,,,0,0,8,,,,,,4,,71,0
104352,note_on,,,,,100,0,9,,,,,,4,,69,100
104444,note_off,,,,,92,0,9,,,,,,4,,69,0
104448,note_on,,,,,100,0,8,,,,,,4,,76,100
104448,note_on,,,,,4,0,9,,,,,,4,,72,100
104540,note_off,,,,,92,0,8,,,,,,4,,76,0
104540,note_off,,,,,92,0,9,,,,,,4,,72,0
104544,note_on,,,,,4,0,8,,,,,,4,,69,100
104636,note_off,,,,,92,0,8,,,,,,4,,69,0
104640,note_on,,,,,2884,0,6,,,,,,3,,57,100
104640,note_on,,,,,10756,0,5,,,,,,2,,57,100
104640,note_on,,,,,1348,0,3,,,,,,0,,76,100
104640,note_on,,,,,100,0,9,,,,,,4,,57,100
104640,note_on,,,,,2884,0,7,,,,,,3,,45,100
104640,note_on,,,,,10756,0,4,,,,,,1,,76,100
104640,note_on,,,,,4,0,8,,,,,,4,,72,100
104732,note_off,,,,,92,0,8,,,,,,4,,72,0
104732,note_off,,,,,92,0,5,,,,,,2,,57,0
104732,note_off,,,,,92,0,9,,,,,,4,,57,0
104736,note_on,,,,,4,0,8,,,,,,4,,76,100
104736,note_on,,,,,4,0,5,,,,,,2,,55,100
104736,note_on,,,,,4,0,9,,,,,,4,,59,100
104828,note_off,,,,,92,0,9,,,,,,4,,59,0
104828,note_off,,,,,92,0,5,,,,,,2,,55,0
104828,note_off,,,,,92,0,8,,,,,,4,,76,0
104828,note_off,,,,,188,0,3,,,,,,0,,76,0
104828,note_off,,,,,188,0,4,,,,,,1,,76,0
104832,note_on,,,,,4,0,8,,,,,,4,,81,100
104832,note_on,,,,,4,0,9,,,,,,4,,57,100
104832,note_on,,,,,4,0,4,,,,,,1,,75,100
104832,note_on,,,,,4,0,5,,,,,,2,,54,100
104832,note_on,,,,,4,0,3,,,,,,0,,78,100
104924,note_off,,,,,92,0,8,,,,,,4,,81,0
104928,note_on,,,,,4,0,8,,,,,,4,,79,100
105020,note_off,,,,,188,0,4,,,,,,1,,75,0
105020,note_off,,,,,188,0,5,,,,,,2,,54,0
105020,note_off,,,,,188,0,9,,,,,,4,,57,0
105020,note_off,,,,,188,0,3,,,,,,0,,78,0
105020,note_off,,,,,92,0,8,,,,,,4,,79,0
105020,note_off,,,,,380,0,6,,,,,,3,,57,0
105020,note_off,,,,,380,0,7,,,,,,3,,45,0
105024,note_on,,,,,4,0,5,,,,,,2,,59,100
105024,note_on,,,,,4,0,6,,,,,,3,,55,100
105024,note_on,,,,,4,0,4,,,,,,1,,76,100
105024,note_on,,,,,4,0,8,,,,,,4,,78,100
105024,note_on,,,,,4,0,3,,,,,,0,,79,100
105024,note_on,,,,,4,0,7,,,,,,3,,43,100
105024,note_on,,,,,4,0,9,,,,,,4,,55,100
105116,note_off,,,,,92,0,8,,,,,,4,,78,0
105120,note_on,,,,,4,0,8,,,,,,4,,76,100
105212,note_off,,,,,188,0,7,,,,,,3,,43,0
105212,note_off,,,,,188,0,4,,,,,,1,,76,0
105212,note_off,,,,,188,0,5,,,,,,2,,59,0
105212,note_off,,,,,188,0,6,,,,,,3,,55,0
105212,note_off,,,,,188,0,3,,,,,,0,,79,0
105212,note_off,,,,,92,0,8,,,,,,4,,76,0
105212,note_off,,,,,188,0,9,,,,,,4,,55,0
105216,note_on,,,,,4,0,5,,,,,,2,,60,100
105216,note_on,,,,,4,0,9,,,,,,4,,54,100
105216,note_on,,,,,4,0,4,,,,,,1,,78,100
105216,note_on,,,,,4,0,7,,,,,,3,,42,100
105216,note_on,,,,,4,0,6,,,,,,3,,54,100
105216,note_on,,,,,4,0,3,,,,,,0,,81,100
105216,note_on,,,,,4,0,8,,,,,,4,,75,100
105308,note_off,,,,,92,0,8,,,,,,4,,75,0
105312,note_on,,,,,4,0,8,,,,,,4,,78,100
105404,note_off,,,,,188,0,3,,,,,,0,,81,0
105404,note_off,,,,,188,0,7,,,,,,3,,42,0
105404,note_off,,,,,188,0,5,,,,,,2,,60,0
105404,note_off,,,,,188,0,9,,,,,,4,,54,0
105404,note_off,,,,,188,0,6,,,,,,3,,54,0
105404,note_off,,,,,92,0,8,,,,,,4,,78,0
105404,note_off,,,,,188,0,4,,,,,,1,,78,0
105408,note_on,,,,,4,0,9,,,,,,4,,59,100
105408,note_on,,,,,4,0,8,,,,,,4,,81,100
105408,note_on,,,,,4,0,7,,,,,,3,,47,100
105408,note_on,,,,,4,0,6,,,,,,3,,59,100
105500,note_off,,,,,92,0,8,,,,,,4,,81,0
105500,note_off,,,,,92,0,9,,,,,,4,,59,0
105504,note_on,,,,,4,0,9,,,,,,4,,57,100
105504,note_on,,,,,4,0,8,,,,,,4,,84,100
105596,note_off,,,,,92,0,9,,,,,,4,,57,0
105596,note_off,,,,,92,0,8,,,,,,4,,84,0
105600,note_on,,,,,196,0,3,,,,,,0,,78,100
105600,note_on,,,,,4,0,9,,,,,,4,,59,100
105600,note_on,,,,,196,0,5,,,,,,2,,59,100
105600,note_on,,,,,196,0,4,,,,,,1,,75,100
105600,note_on,,,,,4,0,8,,,,,,4,,83,100
105692,note_off,,,,,92,0,8,,,,,,4,,83,0
105696,note_on,,,,,4,0,8,,,,,,4,,81,100
105788,note_off,,,,,380,0,6,,,,,,3,,59,0
105788,note_off,,,,,188,0,3,,,,,,0,,78,0
105788,note_off,,,,,188,0,9,,,,,,4,,59,0
105788,note_off,,,,,92,0,8,,,,,,4,,81,0
105788,note_off,,,,,188,0,4,,,,,,1,,75,0
105788,note_off,,,,,380,0,7,,,,,,3,,47,0
105788,note_off,,,,,188,0,5,,,,,,2,,59,0
105792,note_on,,,,,4,0,6,,,,,,3,,47,100
105792,note_on,,,,,4,0,7,,,,,,3,,35,100
105792,note_on,,,,,4,0,9,,,,,,4,,47,100
105792,note_on,,,,,4,0,8,,,,,,4,,79,100
105884,note_off,,,,,92,0,8,,,,,,4,,79,0
105888,note_on,,,,,4,0,8,,,,,,4,,78,100
105980,note_off,,,,,188,0,9,,,,,,4,,47,0
105980,note_off,,,,,188,0,6,,,,,,3,,47,0
105980,note_off,,,,,92,0,8,,,,,,4,,78,0
105980,note_off,,,,,188,0,7,,,,,,3,,35,0
105984,note_on,,,,,4,0,8,,,,,,4,,79,100
105984,note_on,,,,,4,0,9,,,,,,4,,52,100
105984,note_on,,,,,4,0,7,,,,,,3,,40,100
105984,note_on,,,,,196,0,3,,,,,,0,,76,100
105984,note_on,,,,,196,0,5,,,,,,2,,59,100
105984,note_on,,,,,196,0,4,,,,,,1,,71,100
105984,note_on,,,,,4,0,6,,,,,,3,,52,100
106076,note_off,,,,,92,0,9,,,,,,4,,52,0
106080,note_on,,,,,4,0,9,,,,,,4,,64,100
106172,note_off,,,,,188,0,4,,,,,,1,,71,0
106172,note_off,,,,,188,0,5,,,,,,2,,59,0
106172,note_off,,,,,188,0,3,,,,,,0,,76,0
106172,note_off,,,,,188,0,8,,,,,,4,,79,0
106172,note_off,,,,,92,0,9,,,,,,4,,64,0
106176,note_on,,,,,4,0,8,,,,,,4,,76,100
106176,note_on,,,,,4,0,3,,,,,,0,,64,85
106268,note_off,,,,,92,0,8,,,,,,4,,76,0
106272,note_on,,,,,100,0,9,,,,,,4,,76,100
106364,note_off,,,,,188,0,3,,,,,,0,,64,0
106364,note_off,,,,,380,0,6,,,,,,3,,52,0
106364,note_off,,,,,92,0,9,,,,,,4,,76,0
106364,note_off,,,,,380,0,7,,,,,,3,,40,0
106368,note_on,,,,,100,0,8,,,,,,4,,75,100
106368,note_on,,,,,4,0,3,,,,,,0,,66,85
106460,note_off,,,,,92,0,8,,,,,,4,,75,0
106464,note_on,,,,,100,0,9,,,,,,4,,76,100
106556,note_off,,,,,92,0,9,,,,,,4,,76,0
106556,note_off,,,,,188,0,3,,,,,,0,,66,0
106560,note_on,,,,,100,0,8,,,,,,4,,76,100
106560,note_on,,,,,4,0,3,,,,,,0,,67,85
106652,note_off,,,,,92,0,8,,,,,,4,,76,0
106656,note_on,,,,,100,0,9,,,,,,4,,76,100
106748,note_off,,,,,92,0,9,,,,,,4,,76,0
106748,note_off,,,,,188,0,3,,,,,,0,,67,0
106752,note_on,,,,,4,0,3,,,,,,0,,69,85
106752,note_on,,,,,100,0,8,,,,,,4,,77,100
106844,note_off,,,,,92,0,8,,,,,,4,,77,0
106848,note_on,,,,,100,0,9,,,,,,4,,76,100
106940,note_off,,,,,188,0,3,,,,,,0,,69,0
106940,note_off,,,,,92,0,9,,,,,,4,,76,0
106944,note_on,,,,,100,0,8,,,,,,4,,76,100
106944,note_on,,,,,4,0,3,,,,,,0,,72,85
107036,note_off,,,,,92,0,8,,,,,,4,,76,0
107040,note_on,,,,,100,0,9,,,,,,4,,76,100
107132,note_off,,,,,92,0,9,,,,,,4,,76,0
107132,note_off,,,,,188,0,3,,,,,,0,,72,0
107136,note_on,,,,,100,0,8,,,,,,4,,75,100
107136,note_on,,,,,4,0,3,,,,,,0,,71,85
107228,note_off,,,,,92,0,8,,,,,,4,,75,0
107232,note_on,,,,,100,0,9,,,,,,4,,76,100
107324,note_off,,,,,188,0,3,,,,,,0,,71,0
107324,note_off,,,,,92,0,9,,,,,,4,,76,0
107328,note_on,,,,,4,0,3,,,,,,0,,69,85
107328,note_on,,,,,100,0,8,,,,,,4,,76,100
107420,note_off,,,,,92,0,8,,,,,,4,,76,0
107424,note_on,,,,,100,0,9,,,,,,4,,76,100
107516,note_off,,,,,188,0,3,,,,,,0,,69,0
107516,note_off,,,,,92,0,9,,,,,,4,,76,0
107520,note_on,,,,,4,0,3,,,,,,0,,67,85
107520,note_on,,,,,100,0,8,,,,,,4,,71,100
107520,note_on,,,,,4,0,9,,,,,,4,,64,100
107520,note_on,,,,,1156,0,7,,,,,,3,,40,85
107520,note_on,,,,,1156,0,6,,,,,,3,,52,85
107612,note_off,,,,,92,0,9,,,,,,4,,64,0
107612,note_off,,,,,92,0,8,,,,,,4,,71,0
107616,note_on,,,,,4,0,9,,,,,,4,,76,100
107708,note_off,,,,,92,0,9,,,,,,4,,76,0
107708,note_off,,,,,188,0,3,,,,,,0,,67,0
107712,note_on,,,,,100,0,8,,,,,,4,,76,100
107712,note_on,,,,,4,0,3,,,,,,0,,64,85
107804,note_off,,,,,92,0,8,,,,,,4,,76,0
107808,note_on,,,,,100,0,9,,,,,,4,,76,100
107900,note_off,,,,,380,0,7,,,,,,3,,40,0
107900,note_off,,,,,92,0,9,,,,,,4,,76,0
107900,note_off,,,,,380,0,6,,,,,,3,,52,0
107900,note_off,,,,,188,0,3,,,,,,0,,64,0
107904,note_on,,,,,100,0,8,,,,,,4,,75,100
107904,note_on,,,,,4,0,3,,,,,,0,,66,85
107996,note_off,,,,,92,0,8,,,,,,4,,75,0
108000,note_on,,,,,100,0,9,,,,,,4,,76,100
108092,note_off,,,,,188,0,3,,,,,,0,,66,0
108092,note_off,,,,,92,0,9,,,,,,4,,76,0
108096,note_on,,,,,4,0,3,,,,,,0,,67,85
108096,note_on,,,,,100,0,8,,,,,,4,,76,100
108188,note_off,,,,,92,0,8,,,,,,4,,76,0
108192,note_on,,,,,100,0,9,,,,,,4,,76,100
108284,note_off,,,,,188,0,3,,,,,,0,,67,0
108284,note_off,,,,,92,0,9,,,,,,4,,76,0
108288,note_on,,,,,4,0,3,,,,,,0,,69,85
108288,note_on,,,,,100,0,8,,,,,,4,,77,100
108380,note_off,,,,,92,0,8,,,,,,4,,77,0
108384,note_on,,,,,100,0,9,,,,,,4,,76,100
108476,note_off,,,,,92,0,9,,,,,,4,,76,0
108476,note_off,,,,,188,0,3,,,,,,0,,69,0
108480,note_on,,,,,4,0,3,,,,,,0,,72,85
108480,note_on,,,,,100,0,8,,,,,,4,,76,100
108572,note_off,,,,,92,0,8,,,,,,4,,76,0
108576,note_on,,,,,100,0,9,,,,,,4,,76,100
108668,note_off,,,,,92,0,9,,,,,,4,,76,0
108668,note_off,,,,,188,0,3,,,,,,0,,72,0
108672,note_on,,,,,4,0,3,,,,,,0,,71,85
108672,note_on,,,,,100,0,8,,,,,,4,,75,100
108764,note_off,,,,,92,0,8,,,,,,4,,75,0
108768,note_on,,,,,100,0,9,,,,,,4,,76,100
108860,note_off,,,,,188,0,3,,,,,,0,,71,0
108860,note_off,,,,,92,0,9,,,,,,4,,76,0
108864,note_on,,,,,100,0,8,,,,,,4,,76,100
108864,note_on,,,,,4,0,3,,,,,,0,,69,85
108956,note_off,,,,,92,0,8,,,,,,4,,76,0
108960,note_on,,,,,100,0,9,,,,,,4,,76,100
109052,note_off,,,,,188,0,3,,,,,,0,,69,0
109052,note_off,,,,,92,0,9,,,,,,4,,76,0
109056,note_on,,,,,1156,0,6,,,,,,3,,52,85
109056,note_on,,,,,4,0,9,,,,,,4,,64,100
109056,note_on,,,,,4,0,3,,,,,,0,,67,85
109056,note_on,,,,,1156,0,7,,,,,,3,,40,85
109056,note_on,,,,,100,0,8,,,,,,4,,71,100
109148,note_off,,,,,92,0,9,,,,,,4,,64,0
109148,note_off,,,,,92,0,8,,,,,,4,,71,0
109152,note_on,,,,,4,0,9,,,,,,4,,76,100
109244,note_off,,,,,92,0,9,,,,,,4,,76,0
109244,note_off,,,,,188,0,3,,,,,,0,,67,0
109248,note_on,,,,,4,0,3,,,,,,0,,76,85
109248,note_on,,,,,100,0,8,,,,,,4,,79,100
109248,note_on,,,,,0,0,8,,,,,,4,,71,100
109340,note_off,,,,,0,0,8,,,,,,4,,71,0
109340,note_off,,,,,92,0,8,,,,,,4,,79,0
109344,note_on,,,,,100,0,9,,,,,,4,,76,100
109436,note_off,,,,,92,0,9,,,,,,4,,76,0
109436,note_off,,,,,380,0,7,,,,,,3,,40,0
109436,note_off,,,,,380,0,6,,,,,,3,,52,0
109436,note_off,,,,,188,0,3,,,,,,0,,76,0
109440,note_on,,,,,100,0,8,,,,,,4,,69,100
109440,note_on,,,,,0,0,8,,,,,,4,,78,100
109440,note_on,,,,,4,0,3,,,,,,0,,75,85
109532,note_off,,,,,0,0,8,,,,,,4,,78,0
109532,note_off,,,,,92,0,8,,,,,,4,,69,0
109536,note_on,,,,,100,0,9,,,,,,4,,76,100
109628,note_off,,,,,188,0,3,,,,,,0,,75,0
109628,note_off,,,,,92,0,9,,,,,,4,,76,0
109632,note_on,,,,,100,0,8,,,,,,4,,79,100
109632,note_on,,,,,4,0,3,,,,,,0,,76,85
109632,note_on,,,,,0,0,8,,,,,,4,,71,100
109724,note_off,,,,,92,0,8,,,,,,4,,79,0
109724,note_off,,,,,0,0,8,,,,,,4,,71,0
109728,note_on,,,,,100,0,9,,,,,,4,,76,100
109820,note_off,,,,,92,0,9,,,,,,4,,76,0
109820,note_off,,,,,188,0,3,,,,,,0,,76,0
109824,note_on,,,,,100,0,8,,,,,,4,,81,100
109824,note_on,,,,,0,0,8,,,,,,4,,72,100
109824,note_on,,,,,4,0,3,,,,,,0,,78,85
109916,note_off,,,,,92,0,8,,,,,,4,,81,0
109916,note_off,,,,,0,0,8,,,,,,4,,72,0
109920,note_on,,,,,100,0,9,,,,,,4,,76,100
110012,note_off,,,,,92,0,9,,,,,,4,,76,0
110012,note_off,,,,,188,0,3,,,,,,0,,78,0
110016,note_on,,,,,100,0,8,,,,,,4,,79,100
110016,note_on,,,,,0,0,8,,,,,,4,,71,100
110016,note_on,,,,,4,0,3,,,,,,0,,76,85
110108,note_off,,,,,0,0,8,,,,,,4,,71,0
110108,note_off,,,,,92,0,8,,,,,,4,,79,0
110112,note_on,,,,,100,0,9,,,,,,4,,76,100
110204,note_off,,,,,92,0,9,,,,,,4,,76,0
110204,note_off,,,,,188,0,3,,,,,,0,,76,0
110208,note_on,,,,,4,0,3,,,,,,0,,78,85
110208,note_on,,,,,0,0,8,,,,,,4,,72,100
110208,note_on,,,,,100,0,8,,,,,,4,,81,100
110300,note_off,,,,,0,0,8,,,,,,4,,72,0
110300,note_off,,,,,92,0,8,,,,,,4,,81,0
110304,note_on,,,,,100,0,9,,,,,,4,,76,100
110396,note_off,,,,,92,0,9,,,,,,4,,76,0
110396,note_off,,,,,188,0,3,,,,,,0,,78,0
110400,note_on,,,,,100,0,8,,,,,,4,,78,100
110400,note_on,,,,,4,0,3,,,,,,0,,75,85
110400,note_on,,,,,0,0,8,,,,,,4,,69,100
110492,note_off,,,,,0,0,8,,,,,,4,,69,0
110492,note_off,,,,,92,0,8,,,,,,4,,78,0
110496,note_on,,,,,100,0,9,,,,,,4,,76,100
110588,note_off,,,,,92,0,9,,,,,,4,,76,0
110588,note_off,,,,,188,0,3,,,,,,0,,75,0
110592,note_on,,,,,0,0,8,,,,,,4,,71,100
110592,note_on,,,,,100,0,8,,,,,,4,,79,100
110592,note_on,,,,,1156,0,6,,,,,,3,,52,85
110592,note_on,,,,,4,0,3,,,,,,0,,76,85
110592,note_on,,,,,1156,0,7,,,,,,3,,40,85
110684,note_off,,,,,92,0,8,,,,,,4,,79,0
110684,note_off,,,,,0,0,8,,,,,,4,,71,0
110688,note_on,,,,,100,0,9,,,,,,4,,76,100
110780,note_off,,,,,92,0,9,,,,,,4,,76,0
110780,note_off,,,,,188,0,3,,,,,,0,,76,0
110784,note_on,,,,,100,0,8,,,,,,4,,79,100
110784,note_on,,,,,0,0,8,,,,,,4,,71,100
110784,note_on,,,,,4,0,3,,,,,,0,,76,85
110876,note_off,,,,,92,0,8,,,,,,4,,79,0
110876,note_off,,,,,0,0,8,,,,,,4,,71,0
110880,note_on,,,,,100,0,9,,,,,,4,,76,100
110972,note_off,,,,,380,0,6,,,,,,3,,52,0
110972,note_off,,,,,92,0,9,,,,,,4,,76,0
110972,note_off,,,,,188,0,3,,,,,,0,,76,0
110972,note_off,,,,,380,0,7,,,,,,3,,40,0
110976,note_on,,,,,0,0,8,,,,,,4,,69,100
110976,note_on,,,,,4,0,3,,,,,,0,,75,85
110976,note_on,,,,,100,0,8,,,,,,4,,78,100
111068,note_off,,,,,0,0,8,,,,,,4,,69,0
111068,note_off,,,,,92,0,8,,,,,,4,,78,0
111072,note_on,,,,,100,0,9,,,,,,4,,76,100
111164,note_off,,,,,92,0,9,,,,,,4,,76,0
111164,note_off,,,,,188,0,3,,,,,,0,,75,0
111168,note_on,,,,,100,0,8,,,,,,4,,79,100
111168,note_on,,,,,0,0,8,,,,,,4,,71,100
111168,note_on,,,,,4,0,3,,,,,,0,,76,85
111260,note_off,,,,,92,0,8,,,,,,4,,79,0
111260,note_off,,,,,0,0,8,,,,,,4,,71,0
111264,note_on,,,,,100,0,9,,,,,,4,,76,100
111356,note_off,,,,,92,0,9,,,,,,4,,76,0
111356,note_off,,,,,188,0,3,,,,,,0,,76,0
111360,note_on,,,,,100,0,8,,,,,,4,,81,100
111360,note_on,,,,,0,0,8,,,,,,4,,72,100
111360,note_on,,,,,4,0,3,,,,,,0,,78,85
111452,note_off,,,,,92,0,8,,,,,,4,,81,0
111452,note_off,,,,,0,0,8,,,,,,4,,72,0
111456,note_on,,,,,100,0,9,,,,,,4,,76,100
111548,note_off,,,,,188,0,3,,,,,,0,,78,0
111548,note_off,,,,,92,0,9,,,,,,4,,76,0
111552,note_on,,,,,4,0,3,,,,,,0,,76,85
111552,note_on,,,,,100,0,8,,,,,,4,,79,100
111552,note_on,,,,,0,0,8,,,,,,4,,71,100
111644,note_off,,,,,92,0,8,,,,,,4,,79,0
111644,note_off,,,,,0,0,8,,,,,,4,,71,0
111648,note_on,,,,,100,0,9,,,,,,4,,76,100
111740,note_off,,,,,92,0,9,,,,,,4,,76,0
111740,note_off,,,,,188,0,3,,,,,,0,,76,0
111744,note_on,,,,,4,0,3,,,,,,0,,78,85
111744,note_on,,,,,100,0,8,,,,,,4,,81,100
111744,note_on,,,,,0,0,8,,,,,,4,,72,100
111836,note_off,,,,,92,0,8,,,,,,4,,81,0
111836,note_off,,,,,0,0,8,,,,,,4,,72,0
111840,note_on,,,,,100,0,9,,,,,,4,,76,100
111932,note_off,,,,,92,0,9,,,,,,4,,76,0
111932,note_off,,,,,188,0,3,,,,,,0,,78,0
111936,note_on,,,,,100,0,8,,,,,,4,,78,100
111936,note_on,,,,,0,0,8,,,,,,4,,69,100
111936,note_on,,,,,4,0,3,,,,,,0,,75,85
112028,note_off,,,,,92,0,8,,,,,,4,,78,0
112028,note_off,,,,,0,0,8,,,,,,4,,69,0
112032,note_on,,,,,100,0,9,,,,,,4,,76,100
112124,note_off,,,,,188,0,3,,,,,,0,,75,0
112124,note_off,,,,,92,0,9,,,,,,4,,76,0
112128,note_on,,,,,0,0,8,,,,,,4,,71,100
112128,note_on,,,,,1156,0,6,,,,,,3,,52,85
112128,note_on,,,,,100,0,8,,,,,,4,,79,100
112128,note_on,,,,,4,0,3,,,,,,0,,76,85
112128,note_on,,,,,1156,0,7,,,,,,3,,40,85
112220,note_off,,,,,92,0,8,,,,,,4,,79,0
112220,note_off,,,,,0,0,8,,,,,,4,,71,0
112224,note_on,,,,,100,0,9,,,,,,4,,76,100
112316,note_off,,,,,92,0,9,,,,,,4,,76,0
112316,note_off,,,,,188,0,3,,,,,,0,,76,0
112320,note_on,,,,,0,0,8,,,,,,4,,67,100
112320,note_on,,,,,100,0,8,,,,,,4,,76,100
112320,note_on,,,,,4,0,3,,,,,,0,,71,85
112412,note_off,,,,,92,0,8,,,,,,4,,76,0
112412,note_off,,,,,0,0,8,,,,,,4,,67,0
112416,note_on,,,,,100,0,9,,,,,,4,,76,100
112508,note_off,,,,,380,0,6,,,,,,3,,52,0
112508,note_off,,,,,92,0,9,,,,,,4,,76,0
112508,note_off,,,,,188,0,3,,,,,,0,,71,0
112508,note_off,,,,,380,0,7,,,,,,3,,40,0
112512,note_on,,,,,0,0,8,,,,,,4,,69,100
112512,note_on,,,,,4,0,3,,,,,,0,,72,85
112512,note_on,,,,,100,0,8,,,,,,4,,77,100
112604,note_off,,,,,92,0,8,,,,,,4,,77,0
112604,note_off,,,,,0,0,8,,,,,,4,,69,0
112608,note_on,,,,,100,0,9,,,,,,4,,76,100
112700,note_off,,,,,92,0,9,,,,,,4,,76,0
112700,note_off,,,,,188,0,3,,,,,,0,,72,0
112704,note_on,,,,,4,0,3,,,,,,0,,69,85
112704,note_on,,,,,100,0,8,,,,,,4,,75,100
112704,note_on,,,,,0,0,8,,,,,,4,,66,100
112796,note_off,,,,,92,0,8,,,,,,4,,75,0
112796,note_off,,,,,0,0,8,,,,,,4,,66,0
112800,note_on,,,,,100,0,9,,,,,,4,,76,100
112892,note_off,,,,,92,0,9,,,,,,4,,76,0
112892,note_off,,,,,188,0,3,,,,,,0,,69,0
112896,note_on,,,,,100,0,8,,,,,,4,,76,100
112896,note_on,,,,,4,0,3,,,,,,0,,71,85
112896,note_on,,,,,0,0,8,,,,,,4,,67,100
112988,note_off,,,,,92,0,8,,,,,,4,,76,0
112988,note_off,,,,,0,0,8,,,,,,4,,67,0
112992,note_on,,,,,100,0,9,,,,,,4,,76,100
113084,note_off,,,,,92,0,9,,,,,,4,,76,0
113084,note_off,,,,,188,0,3,,,,,,0,,71,0
113088,note_on,,,,,4,0,3,,,,,,0,,76,85
113088,note_on,,,,,100,0,8,,,,,,4,,79,100
113088,note_on,,,,,0,0,8,,,,,,4,,71,100
113180,note_off,,,,,0,0,8,,,,,,4,,71,0
113180,note_off,,,,,92,0,8,,,,,,4,,79,0
113184,note_on,,,,,100,0,9,,,,,,4,,76,100
113276,note_off,,,,,92,0,9,,,,,,4,,76,0
113276,note_off,,,,,188,0,3,,,,,,0,,76,0
113280,note_on,,,,,4,0,3,,,,,,0,,72,85
113280,note_on,,,,,100,0,8,,,,,,4,,77,100
113280,note_on,,,,,0,0,8,,,,,,4,,69,100
113372,note_off,,,,,92,0,8,,,,,,4,,77,0
113372,note_off,,,,,0,0,8,,,,,,4,,69,0
113376,note_on,,,,,100,0,9,,,,,,4,,76,100
113468,note_off,,,,,188,0,3,,,,,,0,,72,0
113468,note_off,,,,,92,0,9,,,,,,4,,76,0
113472,note_on,,,,,0,0,8,,,,,,4,,66,100
113472,note_on,,,,,4,0,3,,,,,,0,,69,85
113472,note_on,,,,,100,0,8,,,,,,4,,75,100
113564,note_off,,,,,92,0,8,,,,,,4,,75,0
113564,note_off,,,,,0,0,8,,,,,,4,,66,0
113568,note_on,,,,,100,0,9,,,,,,4,,76,100
113660,note_off,,,,,92,0,9,,,,,,4,,76,0
113660,note_off,,,,,188,0,3,,,,,,0,,69,0
113664,note_on,,,,,4,0,3,,,,,,0,,71,85
113664,note_on,,,,,1156,0,6,,,,,,3,,52,85
113664,note_on,,,,,0,0,8,,,,,,4,,67,100
113664,note_on,,,,,100,0,8,,,,,,4,,76,100
113664,note_on,,,,,1156,0,7,,,,,,3,,40,85
113756,note_off,,,,,92,0,8,,,,,,4,,76,0
113756,note_off,,,,,0,0,8,,,,,,4,,67,0
113760,note_on,,,,,100,0,9,,,,,,4,,76,100
113852,note_off,,,,,188,0,3,,,,,,0,,71,0
113852,note_off,,,,,92,0,9,,,,,,4,,76,0
113856,note_on,,,,,100,0,8,,,,,,4,,71,100
113856,note_on,,,,,0,0,8,,,,,,4,,67,100
113856,note_on,,,,,4,0,3,,,,,,0,,71,85
113948,note_off,,,,,92,0,8,,,,,,4,,71,0
113948,note_off,,,,,0,0,8,,,,,,4,,67,0
113952,note_on,,,,,100,0,9,,,,,,4,,76,100
114044,note_off,,,,,380,0,7,,,,,,3,,40,0
114044,note_off,,,,,92,0,9,,,,,,4,,76,0
114044,note_off,,,,,380,0,6,,,,,,3,,52,0
114048,note_on,,,,,100,0,8,,,,,,4,,73,100
114048,note_on,,,,,0,0,8,,,,,,4,,69,100
114140,note_off,,,,,92,0,8,,,,,,4,,73,0
114140,note_off,,,,,0,0,8,,,,,,4,,69,0
114144,note_on,,,,,100,0,9,,,,,,4,,76,100
114236,note_off,,,,,92,0,9,,,,,,4,,76,0
114236,note_off,,,,,380,0,3,,,,,,0,,71,0
114240,note_on,,,,,4,0,3,,,,,,0,,69,85
114240,note_on,,,,,0,0,8,,,,,,4,,66,100
114240,note_on,,,,,100,0,8,,,,,,4,,75,100
114332,note_off,,,,,0,0,8,,,,,,4,,66,0
114332,note_off,,,,,92,0,8,,,,,,4,,75,0
114336,note_on,,,,,100,0,9,,,,,,4,,76,100
114428,note_off,,,,,92,0,9,,,,,,4,,76,0
114428,note_off,,,,,188,0,3,,,,,,0,,69,0
114432,note_on,,,,,0,0,8,,,,,,4,,67,100
114432,note_on,,,,,4,0,3,,,,,,0,,67,85
114432,note_on,,,,,100,0,8,,,,,,4,,76,100
114524,note_off,,,,,0,0,8,,,,,,4,,67,0
114524,note_off,,,,,92,0,8,,,,,,4,,76,0
114528,note_on,,,,,100,0,9,,,,,,4,,76,100
114620,note_off,,,,,92,0,9,,,,,,4,,76,0
114620,note_off,,,,,188,0,3,,,,,,0,,67,0
114624,note_on,,,,,100,0,8,,,,,,4,,71,100
114624,note_on,,,,,4,0,3,,,,,,0,,67,85
114624,note_on,,,,,0,0,8,,,,,,4,,67,100
114716,note_off,,,,,92,0,8,,,,,,4,,71,0
114716,note_off,,,,,0,0,8,,,,,,4,,67,0
114720,note_on,,,,,100,0,9,,,,,,4,,76,100
114812,note_off,,,,,92,0,9,,,,,,4,,76,0
114816,note_on,,,,,100,0,8,,,,,,4,,69,100
114816,note_on,,,,,0,0,8,,,,,,4,,73,100
114908,note_off,,,,,92,0,8,,,,,,4,,69,0
114908,note_off,,,,,0,0,8,,,,,,4,,73,0
114912,note_on,,,,,100,0,9,,,,,,4,,76,100
115004,note_off,,,,,380,0,3,,,,,,0,,67,0
115004,note_off,,,,,92,0,9,,,,,,4,,76,0
115008,note_on,,,,,100,0,8,,,,,,4,,75,100
115008,note_on,,,,,0,0,8,,,,,,4,,66,100
115008,note_on,,,,,4,0,3,,,,,,0,,66,85
115100,note_off,,,,,92,0,8,,,,,,4,,75,0
115100,note_off,,,,,0,0,8,,,,,,4,,66,0
115104,note_on,,,,,100,0,9,,,,,,4,,76,100
115196,note_off,,,,,188,0,3,,,,,,0,,66,0
115196,note_off,,,,,92,0,9,,,,,,4,,76,0
115200,note_on,,,,,4,0,3,,,,,,0,,64,85
115200,note_on,,,,,100,0,8,,,,,,4,,76,100
115200,note_on,,,,,0,0,8,,,,,,4,,67,100
115292,note_off,,,,,92,0,8,,,,,,4,,76,0
115292,note_off,,,,,0,0,8,,,,,,4,,67,0
115296,note_on,,,,,100,0,9,,,,,,4,,76,100
115388,note_off,,,,,188,0,3,,,,,,0,,64,0
115388,note_off,,,,,92,0,9,,,,,,4,,76,0
115392,note_on,,,,,100,0,8,,,,,,4,,71,100
115392,note_on,,,,,0,0,8,,,,,,4,,67,100
115484,note_off,,,,,0,0,8,,,,,,4,,67,0
115484,note_off,,,,,92,0,8,,,,,,4,,71,0
115488,note_on,,,,,100,0,9,,,,,,4,,76,100
115580,note_off,,,,,92,0,9,,,,,,4,,76,0
115584,note_on,,,,,0,0,8,,,,,,4,,73,100
115584,note_on,,,,,100,0,8,,,,,,4,,69,100
115676,note_off,,,,,0,0,8,,,,,,4,,73,0
115676,note_off,,,,,92,0,8,,,,,,4,,69,0
115680,note_on,,,,,100,0,9,,,,,,4,,76,100
115772,note_off,,,,,92,0,9,,,,,,4,,76,0
115776,note_on,,,,,100,0,8,,,,,,4,,71,100
115776,note_on,,,,,0,0,8,,,,,,4,,75,100
115868,note_off,,,,,92,0,8,,,,,,4,,71,0
115868,note_off,,,,,0,0,8,,,,,,4,,75,0
115872,note_on,,,,,100,0,9,,,,,,4,,76,100
115964,note_off,,,,,92,0,9,,,,,,4,,76,0
115968,note_on,,,,,0,0,8,,,,,,4,,76,100
115968,note_on,,,,,100,0,8,,,,,,4,,73,100
116060,note_off,,,,,0,0,8,,,,,,4,,76,0
116060,note_off,,,,,92,0,8,,,,,,4,,73,0
116064,note_on,,,,,100,0,9,,,,,,4,,76,100
116156,note_off,,,,,92,0,9,,,,,,4,,76,0
116160,note_on,,,,,0,0,8,,,,,,4,,78,100
116160,note_on,,,,,100,0,8,,,,,,4,,75,100
116252,note_off,,,,,0,0,8,,,,,,4,,78,0
116252,note_off,,,,,92,0,8,,,,,,4,,75,0
116256,note_on,,,,,100,0,9,,,,,,4,,76,100
116348,note_off,,,,,92,0,9,,,,,,4,,76,0
116352,note_on,,,,,0,0,8,,,,,,4,,79,100
116352,note_on,,,,,100,0,8,,,,,,4,,76,100
116444,note_off,,,,,0,0,8,,,,,,4,,79,0
116444,note_off,,,,,92,0,8,,,,,,4,,76,0
116448,note_on,,,,,100,0,9,,,,,,4,,76,100
116540,note_off,,,,,92,0,9,,,,,,4,,76,0
116544,note_on,,,,,0,0,8,,,,,,4,,81,100
116544,note_on,,,,,100,0,8,,,,,,4,,78,100
116636,note_off,,,,,0,0,8,,,,,,4,,81,0
116636,note_off,,,,,92,0,8,,,,,,4,,78,0
116640,note_on,,,,,100,0,9,,,,,,4,,76,100
116732,note_off,,,,,92,0,9,,,,,,4,,76,0
116736,note_on,,,,,100,0,8,,,,,,4,,79,100
116736,note_on,,,,,0,0,8,,,,,,4,,83,100
116828,note_off,,,,,92,0,8,,,,,,4,,79,0
116828,note_off,,,,,0,0,8,,,,,,4,,83,0
116832,note_on,,,,,100,0,9,,,,,,4,,76,100
116924,note_off,,,,,92,0,9,,,,,,4,,76,0
116928,note_on,,,,,1540,0,3,,,,,,0,,76,85
116928,note_on,,,,,100,0,8,,,,,,4,,79,100
116928,note_on,,,,,0,0,8,,,,,,4,,83,100
117020,note_off,,,,,92,0,8,,,,,,4,,79,0
117020,note_off,,,,,0,0,8,,,,,,4,,83,0
117024,note_on,,,,,100,0,9,,,,,,4,,76,100
117116,note_off,,,,,92,0,9,,,,,,4,,76,0
117120,note_on,,,,,100,0,8,,,,,,4,,81,100
117120,note_on,,,,,0,0,8,,,,,,4,,84,100
117212,note_off,,,,,92,0,8,,,,,,4,,81,0
117212,note_off,,,,,0,0,8,,,,,,4,,84,0
117216,note_on,,,,,100,0,9,,,,,,4,,76,100
117308,note_off,,,,,92,0,9,,,,,,4,,76,0
117308,note_off,,,,,380,0,3,,,,,,0,,76,0
117312,note_on,,,,,0,0,8,,,,,,4,,79,100
117312,note_on,,,,,11140,0,4,,,,,,1,,76,85
117312,note_on,,,,,4,0,3,,,,,,0,,71,85
117312,note_on,,,,,100,0,8,,,,,,4,,83,100
117404,note_off,,,,,0,0,8,,,,,,4,,79,0
117404,note_off,,,,,92,0,3,,,,,,0,,71,0
117404,note_off,,,,,92,0,8,,,,,,4,,83,0
117408,note_on,,,,,4,0,3,,,,,,0,,67,85
117408,note_on,,,,,100,0,9,,,,,,4,,76,100
117500,note_off,,,,,92,0,3,,,,,,0,,67,0
117500,note_off,,,,,92,0,9,,,,,,4,,76,0
117504,note_on,,,,,0,0,8,,,,,,4,,84,100
117504,note_on,,,,,100,0,8,,,,,,4,,81,100
117504,note_on,,,,,4,0,3,,,,,,0,,64,85
117596,note_off,,,,,92,0,8,,,,,,4,,81,0
117596,note_off,,,,,0,0,8,,,,,,4,,84,0
117600,note_on,,,,,100,0,9,,,,,,4,,76,100
117692,note_off,,,,,380,0,4,,,,,,1,,76,0
117692,note_off,,,,,188,0,3,,,,,,0,,64,0
117692,note_off,,,,,92,0,9,,,,,,4,,76,0
117696,note_on,,,,,0,0,8,,,,,,4,,81,100
117696,note_on,,,,,100,0,8,,,,,,4,,78,100
117696,note_on,,,,,4,0,4,,,,,,1,,72,85
117696,note_on,,,,,4,0,3,,,,,,0,,76,85
117788,note_off,,,,,0,0,8,,,,,,4,,81,0
117788,note_off,,,,,92,0,4,,,,,,1,,72,0
117788,note_off,,,,,92,0,8,,,,,,4,,78,0
117792,note_on,,,,,100,0,9,,,,,,4,,76,100
117792,note_on,,,,,4,0,4,,,,,,1,,69,85
117884,note_off,,,,,92,0,9,,,,,,4,,76,0
117884,note_off,,,,,92,0,4,,,,,,1,,69,0
117888,note_on,,,,,100,0,8,,,,,,4,,83,100
117888,note_on,,,,,0,0,8,,,,,,4,,79,100
117888,note_on,,,,,4,0,4,,,,,,1,,64,85
117980,note_off,,,,,92,0,8,,,,,,4,,83,0
117980,note_off,,,,,0,0,8,,,,,,4,,79,0
117984,note_on,,,,,100,0,9,,,,,,4,,76,100
118076,note_off,,,,,188,0,4,,,,,,1,,64,0
118076,note_off,,,,,380,0,3,,,,,,0,,76,0
118076,note_off,,,,,92,0,9,,,,,,4,,76,0
118080,note_on,,,,,4,0,4,,,,,,1,,76,85
118080,note_on,,,,,0,0,8,,,,,,4,,81,100
118080,note_on,,,,,4,0,3,,,,,,0,,72,85
118080,note_on,,,,,100,0,8,,,,,,4,,78,100
118172,note_off,,,,,92,0,8,,,,,,4,,78,0
118172,note_off,,,,,0,0,8,,,,,,4,,81,0
118172,note_off,,,,,92,0,3,,,,,,0,,72,0
118176,note_on,,,,,100,0,9,,,,,,4,,76,100
118176,note_on,,,,,4,0,3,,,,,,0,,69,85
118268,note_off,,,,,92,0,3,,,,,,0,,69,0
118268,note_off,,,,,92,0,9,,,,,,4,,76,0
118272,note_on,,,,,4,0,3,,,,,,0,,64,85
118272,note_on,,,,,100,0,8,,,,,,4,,83,100
118272,note_on,,,,,0,0,8,,,,,,4,,79,100
118364,note_off,,,,,92,0,8,,,,,,4,,83,0
118364,note_off,,,,,0,0,8,,,,,,4,,79,0
118368,note_on,,,,,100,0,9,,,,,,4,,76,100
118460,note_off,,,,,380,0,4,,,,,,1,,76,0
118460,note_off,,,,,92,0,9,,,,,,4,,76,0
118460,note_off,,,,,188,0,3,,,,,,0,,64,0
118464,note_on,,,,,0,0,8,,,,,,4,,79,100
118464,note_on,,,,,4,0,4,,,,,,1,,71,85
118464,note_on,,,,,100,0,8,,,,,,4,,76,100
118464,note_on,,,,,4,0,3,,,,,,0,,76,85
118556,note_off,,,,,0,0,8,,,,,,4,,79,0
118556,note_off,,,,,92,0,8,,,,,,4,,76,0
118556,note_off,,,,,92,0,4,,,,,,1,,71,0
118560,note_on,,,,,4,0,4,,,,,,1,,67,85
118560,note_on,,,,,100,0,9,,,,,,4,,76,100
118652,note_off,,,,,92,0,9,,,,,,4,,76,0
118652,note_off,,,,,92,0,4,,,,,,1,,67,0
118656,note_on,,,,,4,0,4,,,,,,1,,64,85
118656,note_on,,,,,100,0,8,,,,,,4,,81,100
118656,note_on,,,,,0,0,8,,,,,,4,,78,100
118748,note_off,,,,,92,0,8,,,,,,4,,81,0
118748,note_off,,,,,0,0,8,,,,,,4,,78,0
118752,note_on,,,,,100,0,9,,,,,,4,,76,100
118844,note_off,,,,,92,0,9,,,,,,4,,76,0
118844,note_off,,,,,188,0,4,,,,,,1,,64,0
118844,note_off,,,,,380,0,3,,,,,,0,,76,0
118848,note_on,,,,,100,0,8,,,,,,4,,76,100
118848,note_on,,,,,0,0,8,,,,,,4,,79,100
118848,note_on,,,,,4,0,4,,,,,,1,,76,85
118848,note_on,,,,,4,0,3,,,,,,0,,71,85
118940,note_off,,,,,92,0,8,,,,,,4,,76,0
118940,note_off,,,,,0,0,8,,,,,,4,,79,0
118940,note_off,,,,,92,0,3,,,,,,0,,71,0
118944,note_on,,,,,100,0,9,,,,,,4,,76,100
118944,note_on,,,,,4,0,3,,,,,,0,,67,85
119036,note_off,,,,,92,0,3,,,,,,0,,67,0
119036,note_off,,,,,92,0,9,,,,,,4,,76,0
119040,note_on,,,,,0,0,8,,,,,,4,,81,100
119040,note_on,,,,,100,0,8,,,,,,4,,78,100
119040,note_on,,,,,4,0,3,,,,,,0,,64,85
119132,note_off,,,,,0,0,8,,,,,,4,,81,0
119132,note_off,,,,,92,0,8,,,,,,4,,78,0
119136,note_on,,,,,100,0,9,,,,,,4,,76,100
119228,note_off,,,,,380,0,4,,,,,,1,,76,0
119228,note_off,,,,,92,0,9,,,,,,4,,76,0
119228,note_off,,,,,188,0,3,,,,,,0,,64,0
119232,note_on,,,,,100,0,8,,,,,,4,,75,100
119232,note_on,,,,,0,0,8,,,,,,4,,78,100
119232,note_on,,,,,4,0,3,,,,,,0,,76,85
119232,note_on,,,,,4,0,4,,,,,,1,,72,85
119324,note_off,,,,,92,0,4,,,,,,1,,72,0
119324,note_off,,,,,92,0,8,,,,,,4,,75,0
119324,note_off,,,,,0,0,8,,,,,,4,,78,0
119328,note_on,,,,,100,0,9,,,,,,4,,76,100
119328,note_on,,,,,4,0,4,,,,,,1,,69,85
119420,note_off,,,,,92,0,9,,,,,,4,,76,0
119420,note_off,,,,,92,0,4,,,,,,1,,69,0
119424,note_on,,,,,4,0,4,,,,,,1,,64,85
119424,note_on,,,,,100,0,8,,,,,,4,,76,100
119424,note_on,,,,,0,0,8,,,,,,4,,79,100
119516,note_off,,,,,0,0,8,,,,,,4,,79,0
119516,note_off,,,,,92,0,8,,,,,,4,,76,0
119520,note_on,,,,,100,0,9,,,,,,4,,76,100
119612,note_off,,,,,92,0,9,,,,,,4,,76,0
119612,note_off,,,,,380,0,3,,,,,,0,,76,0
119612,note_off,,,,,188,0,4,,,,,,1,,64,0
119616,note_on,,,,,4,0,3,,,,,,0,,72,85
119616,note_on,,,,,4,0,4,,,,,,1,,76,85
119616,note_on,,,,,0,0,8,,,,,,4,,78,100
119616,note_on,,,,,100,0,8,,,,,,4,,75,100
119708,note_off,,,,,92,0,8,,,,,,4,,75,0
119708,note_off,,,,,0,0,8,,,,,,4,,78,0
119708,note_off,,,,,92,0,3,,,,,,0,,72,0
119712,note_on,,,,,100,0,9,,,,,,4,,76,100
119712,note_on,,,,,4,0,3,,,,,,0,,69,85
119804,note_off,,,,,92,0,9,,,,,,4,,76,0
119804,note_off,,,,,92,0,3,,,,,,0,,69,0
119808,note_on,,,,,100,0,8,,,,,,4,,76,100
119808,note_on,,,,,0,0,8,,,,,,4,,79,100
119808,note_on,,,,,4,0,3,,,,,,0,,64,85
119900,note_off,,,,,92,0,8,,,,,,4,,76,0
119900,note_off,,,,,0,0,8,,,,,,4,,79,0
119904,note_on,,,,,100,0,9,,,,,,4,,76,100
119996,note_off,,,,,380,0,4,,,,,,1,,76,0
119996,note_off,,,,,92,0,9,,,,,,4,,76,0
119996,note_off,,,,,188,0,3,,,,,,0,,64,0
120000,note_on,,,,,13828,0,5,,,,,,2,,64,85
120000,note_on,,,,,0,0,8,,,,,,4,,74,100
120000,note_on,,,,,100,0,8,,,,,,4,,80,100
120092,note_off,,,,,92,0,8,,,,,,4,,80,0
120092,note_off,,,,,0,0,8,,,,,,4,,74,0
120096,note_on,,,,,100,0,9,,,,,,4,,76,100
120188,note_off,,,,,188,0,5,,,,,,2,,64,0
120188,note_off,,,,,92,0,9,,,,,,4,,76,0
120192,note_on,,,,,4,0,5,,,,,,2,,63,85
120192,note_on,,,,,0,0,8,,,,,,4,,72,100
120192,note_on,,,,,100,0,8,,,,,,4,,81,100
120284,note_off,,,,,92,0,8,,,,,,4,,81,0
120284,note_off,,,,,0,0,8,,,,,,4,,72,0
120288,note_on,,,,,100,0,9,,,,,,4,,76,100
120380,note_off,,,,,92,0,9,,,,,,4,,76,0
120380,note_off,,,,,188,0,5,,,,,,2,,63,0
120384,note_on,,,,,100,0,8,,,,,,4,,79,100
120384,note_on,,,,,0,0,8,,,,,,4,,71,100
120384,note_on,,,,,4,0,5,,,,,,2,,64,85
120476,note_off,,,,,0,0,8,,,,,,4,,71,0
120476,note_off,,,,,92,0,8,,,,,,4,,79,0
120480,note_on,,,,,100,0,9,,,,,,4,,76,100
120572,note_off,,,,,92,0,9,,,,,,4,,76,0
120572,note_off,,,,,188,0,5,,,,,,2,,64,0
120576,note_on,,,,,4,0,5,,,,,,2,,60,85
120576,note_on,,,,,100,0,8,,,,,,4,,78,100
120576,note_on,,,,,0,0,8,,,,,,4,,69,100
120668,note_off,,,,,0,0,8,,,,,,4,,69,0
120668,note_off,,,,,92,0,8,,,,,,4,,78,0
120672,note_on,,,,,100,0,9,,,,,,4,,76,100
120764,note_off,,,,,92,0,9,,,,,,4,,76,0
120764,note_off,,,,,188,0,5,,,,,,2,,60,0
120768,note_on,,,,,4,0,5,,,,,,2,,57,85
120768,note_on,,,,,100,0,8,,,,,,4,,76,100
120768,note_on,,,,,0,0,8,,,,,,4,,67,100
120860,note_off,,,,,92,0,8,,,,,,4,,76,0
120860,note_off,,,,,0,0,8,,,,,,4,,67,0
120864,note_on,,,,,100,0,9,,,,,,4,,76,100
120956,note_off,,,,,188,0,5,,,,,,2,,57,0
120956,note_off,,,,,92,0,9,,,,,,4,,76,0
120960,note_on,,,,,100,0,8,,,,,,4,,76,100
120960,note_on,,,,,0,0,8,,,,,,4,,66,100
120960,note_on,,,,,4,0,5,,,,,,2,,59,85
121052,note_off,,,,,92,0,8,,,,,,4,,76,0
121052,note_off,,,,,0,0,8,,,,,,4,,66,0
121056,note_on,,,,,100,0,9,,,,,,4,,76,100
121148,note_off,,,,,188,0,5,,,,,,2,,59,0
121148,note_off,,,,,92,0,9,,,,,,4,,76,0
121152,note_on,,,,,0,0,8,,,,,,4,,66,100
121152,note_on,,,,,100,0,8,,,,,,4,,74,100
121152,note_on,,,,,4,0,5,,,,,,2,,71,85
121244,note_off,,,,,0,0,8,,,,,,4,,66,0
121244,note_off,,,,,92,0,8,,,,,,4,,74,0
121248,note_on,,,,,100,0,9,,,,,,4,,76,100
121340,note_off,,,,,92,0,9,,,,,,4,,76,0
121340,note_off,,,,,188,0,5,,,,,,2,,71,0
121344,note_on,,,,,0,0,8,,,,,,4,,68,100
121344,note_on,,,,,100,0,8,,,,,,4,,74,100
121344,note_on,,,,,4,0,5,,,,,,2,,64,85
121436,note_off,,,,,0,0,8,,,,,,4,,68,0
121436,note_off,,,,,92,0,8,,,,,,4,,74,0
121440,note_on,,,,,100,0,9,,,,,,4,,76,100
121532,note_off,,,,,92,0,9,,,,,,4,,76,0
121532,note_off,,,,,188,0,5,,,,,,2,,64,0
121536,note_on,,,,,100,0,8,,,,,,4,,69,100
121536,note_on,,,,,0,0,8,,,,,,4,,72,100
121536,note_on,,,,,4,0,5,,,,,,2,,65,85
121628,note_off,,,,,92,0,8,,,,,,4,,69,0
121628,note_off,,,,,0,0,8,,,,,,4,,72,0
121632,note_on,,,,,100,0,9,,,,,,4,,76,100
121724,note_off,,,,,188,0,5,,,,,,2,,65,0
121724,note_off,,,,,92,0,9,,,,,,4,,76,0
121728,note_on,,,,,4,0,5,,,,,,2,,62,85
121728,note_on,,,,,0,0,8,,,,,,4,,71,100
121728,note_on,,,,,100,0,8,,,,,,4,,69,100
121820,note_off,,,,,92,0,8,,,,,,4,,69,0
121820,note_off,,,,,0,0,8,,,,,,4,,71,0
121824,note_on,,,,,100,0,9,,,,,,4,,76,100
121916,note_off,,,,,92,0,9,,,,,,4,,76,0
121916,note_off,,,,,188,0,5,,,,,,2,,62,0
121920,note_on,,,,,0,0,8,,,,,,4,,67,100
121920,note_on,,,,,4,0,5,,,,,,2,,64,85
121920,note_on,,,,,100,0,8,,,,,,4,,76,100
122012,note_off,,,,,0,0,8,,,,,,4,,67,0
122012,note_off,,,,,92,0,8,,,,,,4,,76,0
122016,note_on,,,,,100,0,9,,,,,,4,,76,100
122108,note_off,,,,,188,0,5,,,,,,2,,64,0
122108,note_off,,,,,92,0,9,,,,,,4,,76,0
122112,note_on,,,,,100,0,8,,,,,,4,,76,100
122112,note_on,,,,,0,0,8,,,,,,4,,65,100
122112,note_on,,,,,4,0,5,,,,,,2,,57,85
122204,note_off,,,,,0,0,8,,,,,,4,,65,0
122204,note_off,,,,,92,0,8,,,,,,4,,76,0
122208,note_on,,,,,100,0,9,,,,,,4,,76,100
122300,note_off,,,,,92,0,9,,,,,,4,,76,0
122300,note_off,,,,,188,0,5,,,,,,2,,57,0
122304,note_on,,,,,0,0,8,,,,,,4,,65,100
122304,note_on,,,,,100,0,8,,,,,,4,,74,100
122304,note_on,,,,,4,0,5,,,,,,2,,59,85
122396,note_off,,,,,92,0,8,,,,,,4,,74,0
122396,note_off,,,,,0,0,8,,,,,,4,,65,0
122400,note_on,,,,,100,0,9,,,,,,4,,76,100
122492,note_off,,,,,92,0,9,,,,,,4,,76,0
122492,note_off,,,,,188,0,5,,,,,,2,,59,0
122496,note_on,,,,,4,0,5,,,,,,2,,60,85
122496,note_on,,,,,0,0,8,,,,,,4,,64,100
122496,note_on,,,,,100,0,8,,,,,,4,,74,100
122588,note_off,,,,,0,0,8,,,,,,4,,64,0
122588,note_off,,,,,92,0,8,,,,,,4,,74,0
122592,note_on,,,,,100,0,9,,,,,,4,,76,100
122684,note_off,,,,,92,0,9,,,,,,4,,76,0
122684,note_off,,,,,188,0,5,,,,,,2,,60,0
122688,note_on,,,,,4,0,5,,,,,,2,,57,85
122688,note_on,,,,,100,0,8,,,,,,4,,72,100
122688,note_on,,,,,0,0,8,,,,,,4,,64,100
122780,note_off,,,,,92,0,8,,,,,,4,,72,0
122780,note_off,,,,,0,0,8,,,,,,4,,64,0
122784,note_on,,,,,100,0,9,,,,,,4,,76,100
122876,note_off,,,,,188,0,5,,,,,,2,,57,0
122876,note_off,,,,,92,0,9,,,,,,4,,76,0
122880,note_on,,,,,4,0,5,,,,,,2,,53,85
122880,note_on,,,,,0,0,8,,,,,,4,,62,100
122880,note_on,,,,,100,0,8,,,,,,4,,72,100
122972,note_off,,,,,0,0,8,,,,,,4,,62,0
122972,note_off,,,,,92,0,8,,,,,,4,,72,0
122976,note_on,,,,,100,0,9,,,,,,4,,77,100
123068,note_off,,,,,188,0,5,,,,,,2,,53,0
123068,note_off,,,,,92,0,9,,,,,,4,,77,0
123072,note_on,,,,,4,0,5,,,,,,2,,62,85
123072,note_on,,,,,0,0,8,,,,,,4,,62,100
123072,note_on,,,,,100,0,8,,,,,,4,,69,100
123164,note_off,,,,,92,0,8,,,,,,4,,69,0
123164,note_off,,,,,0,0,8,,,,,,4,,62,0
123168,note_on,,,,,100,0,9,,,,,,4,,77,100
123260,note_off,,,,,188,0,5,,,,,,2,,62,0
123260,note_off,,,,,92,0,9,,,,,,4,,77,0
123264,note_on,,,,,4,0,5,,,,,,2,,59,85
123264,note_on,,,,,0,0,8,,,,,,4,,62,100
123264,note_on,,,,,100,0,8,,,,,,4,,71,100
123356,note_off,,,,,0,0,8,,,,,,4,,62,0
123356,note_off,,,,,92,0,8,,,,,,4,,71,0
123360,note_on,,,,,100,0,9,,,,,,4,,77,100
123452,note_off,,,,,188,0,5,,,,,,2,,59,0
123452,note_off,,,,,92,0,9,,,,,,4,,77,0
123456,note_on,,,,,100,0,8,,,,,,4,,67,100
123456,note_on,,,,,0,0,8,,,,,,4,,71,100
123456,note_on,,,,,4,0,5,,,,,,2,,55,85
123548,note_off,,,,,92,0,8,,,,,,4,,67,0
123548,note_off,,,,,0,0,8,,,,,,4,,71,0
123552,note_on,,,,,100,0,9,,,,,,4,,77,100
123644,note_off,,,,,188,0,5,,,,,,2,,55,0
123644,note_off,,,,,92,0,9,,,,,,4,,77,0
123648,note_on,,,,,0,0,8,,,,,,4,,72,100
123648,note_on,,,,,100,0,8,,,,,,4,,67,100
123648,note_on,,,,,4,0,5,,,,,,2,,60,85
123740,note_off,,,,,92,0,8,,,,,,4,,67,0
123740,note_off,,,,,0,0,8,,,,,,4,,72,0
123744,note_on,,,,,100,0,9,,,,,,4,,76,100
123836,note_off,,,,,188,0,5,,,,,,2,,60,0
123836,note_off,,,,,92,0,9,,,,,,4,,76,0
123840,note_on,,,,,4,0,5,,,,,,2,,48,85
123840,note_on,,,,,100,0,8,,,,,,4,,72,100
123840,note_on,,,,,0,0,8,,,,,,4,,70,100
123932,note_off,,,,,92,0,8,,,,,,4,,72,0
123932,note_off,,,,,0,0,8,,,,,,4,,70,0
123936,note_on,,,,,100,0,9,,,,,,4,,76,100
124028,note_off,,,,,92,0,9,,,,,,4,,76,0
124028,note_off,,,,,188,0,5,,,,,,2,,48,0
124032,note_on,,,,,100,0,8,,,,,,4,,72,100
124032,note_on,,,,,0,0,8,,,,,,4,,69,100
124032,note_on,,,,,4,0,5,,,,,,2,,50,85
124124,note_off,,,,,92,0,8,,,,,,4,,72,0
124124,note_off,,,,,0,0,8,,,,,,4,,69,0
124128,note_on,,,,,100,0,9,,,,,,4,,76,100
124220,note_off,,,,,188,0,5,,,,,,2,,50,0
124220,note_off,,,,,92,0,9,,,,,,4,,76,0
124224,note_on,,,,,4,0,5,,,,,,2,,52,85
124224,note_on,,,,,0,0,8,,,,,,4,,67,100
124224,note_on,,,,,100,0,8,,,,,,4,,70,100
124316,note_off,,,,,92,0,8,,,,,,4,,70,0
124316,note_off,,,,,0,0,8,,,,,,4,,67,0
124320,note_on,,,,,100,0,9,,,,,,4,,76,100
124412,note_off,,,,,92,0,9,,,,,,4,,76,0
124412,note_off,,,,,188,0,5,,,,,,2,,52,0
124416,note_on,,,,,4,0,9,,,,,,4,,65,100
124416,note_on,,,,,100,0,8,,,,,,4,,69,100
124416,note_on,,,,,4,0,5,,,,,,2,,53,85
124508,note_off,,,,,92,0,8,,,,,,4,,69,0
124508,note_off,,,,,92,0,9,,,,,,4,,65,0
124512,note_on,,,,,4,0,8,,,,,,4,,71,100
124604,note_off,,,,,188,0,5,,,,,,2,,53,0
124604,note_off,,,,,92,0,8,,,,,,4,,71,0
124608,note_on,,,,,4,0,5,,,,,,2,,52,85
124608,note_on,,,,,4,0,8,,,,,,4,,72,100
124700,note_off,,,,,92,0,8,,,,,,4,,72,0
124704,note_on,,,,,4,0,8,,,,,,4,,76,100
124796,note_off,,,,,188,0,5,,,,,,2,,52,0
124796,note_off,,,,,92,0,8,,,,,,4,,76,0
124800,note_on,,,,,4,0,5,,,,,,2,,53,85
124800,note_on,,,,,4,0,8,,,,,,4,,81,100
124892,note_off,,,,,92,0,8,,,,,,4,,81,0
124896,note_on,,,,,4,0,8,,,,,,4,,76,100
124988,note_off,,,,,92,0,8,,,,,,4,,76,0
124988,note_off,,,,,188,0,5,,,,,,2,,53,0
124992,note_on,,,,,4,0,8,,,,,,4,,77,100
124992,note_on,,,,,4,0,5,,,,,,2,,55,85
125084,note_off,,,,,92,0,8,,,,,,4,,77,0
125088,note_on,,,,,4,0,8,,,,,,4,,74,100
125180,note_off,,,,,92,0,8,,,,,,4,,74,0
125180,note_off,,,,,188,0,5,,,,,,2,,55,0
125184,note_on,,,,,4,0,5,,,,,,2,,57,85
125184,note_on,,,,,4,0,8,,,,,,4,,69,100
125184,note_on,,,,,676,0,9,,,,,,4,,65,100
125276,note_off,,,,,92,0,8,,,,,,4,,69,0
125276,note_off,,,,,92,0,9,,,,,,4,,65,0
125280,note_on,,,,,4,0,8,,,,,,4,,71,100
125372,note_off,,,,,92,0,8,,,,,,4,,71,0
125372,note_off,,,,,188,0,5,,,,,,2,,57,0
125376,note_on,,,,,4,0,8,,,,,,4,,72,100
125376,note_on,,,,,4,0,5,,,,,,2,,55,85
125468,note_off,,,,,92,0,8,,,,,,4,,72,0
125472,note_on,,,,,4,0,8,,,,,,4,,76,100
125564,note_off,,,,,92,0,8,,,,,,4,,76,0
125564,note_off,,,,,188,0,5,,,,,,2,,55,0
125568,note_on,,,,,4,0,5,,,,,,2,,53,85
125568,note_on,,,,,4,0,8,,,,,,4,,81,100
125660,note_off,,,,,92,0,8,,,,,,4,,81,0
125664,note_on,,,,,4,0,8,,,,,,4,,76,100
125756,note_off,,,,,92,0,8,,,,,,4,,76,0
125756,note_off,,,,,188,0,5,,,,,,2,,53,0
125760,note_on,,,,,4,0,8,,,,,,4,,77,100
125760,note_on,,,,,4,0,5,,,,,,2,,50,85
125852,note_off,,,,,92,0,8,,,,,,4,,77,0
125856,note_on,,,,,4,0,8,,,,,,4,,74,100
125948,note_off,,,,,92,0,8,,,,,,4,,74,0
125948,note_off,,,,,188,0,5,,,,,,2,,50,0
125952,note_on,,,,,676,0,9,,,,,,4,,65,100
125952,note_on,,,,,4,0,8,,,,,,4,,71,100
125952,note_on,,,,,4,0,5,,,,,,2,,55,85
126044,note_off,,,,,92,0,9,,,,,,4,,65,0
126044,note_off,,,,,92,0,8,,,,,,4,,71,0
126048,note_on,,,,,4,0,8,,,,,,4,,72,100
126140,note_off,,,,,188,0,5,,,,,,2,,55,0
126140,note_off,,,,,92,0,8,,,,,,4,,72,0
126144,note_on,,,,,4,0,5,,,,,,2,,55,85
126144,note_on,,,,,4,0,8,,,,,,4,,74,100
126236,note_off,,,,,92,0,8,,,,,,4,,74,0
126240,note_on,,,,,4,0,8,,,,,,4,,77,100
126332,note_off,,,,,92,0,8,,,,,,4,,77,0
126332,note_off,,,,,188,0,5,,,,,,2,,55,0
126336,note_on,,,,,4,0,5,,,,,,2,,55,85
126336,note_on,,,,,4,0,8,,,,,,4,,79,100
126428,note_off,,,,,92,0,8,,,,,,4,,79,0
126432,note_on,,,,,4,0,8,,,,,,4,,74,100
126524,note_off,,,,,92,0,8,,,,,,4,,74,0
126524,note_off,,,,,188,0,5,,,,,,2,,55,0
126528,note_on,,,,,4,0,5,,,,,,2,,55,85
126528,note_on,,,,,4,0,8,,,,,,4,,76,100
126620,note_off,,,,,92,0,8,,,,,,4,,76,0
126624,note_on,,,,,4,0,8,,,,,,4,,72,100
126716,note_off,,,,,188,0,5,,,,,,2,,55,0
126716,note_off,,,,,92,0,8,,,,,,4,,72,0
126720,note_on,,,,,4,0,5,,,,,,2,,55,85
126720,note_on,,,,,676,0,9,,,,,,4,,65,100
126720,note_on,,,,,4,0,8,,,,,,4,,71,100
126812,note_off,,,,,92,0,8,,,,,,4,,71,0
126812,note_off,,,,,92,0,9,,,,,,4,,65,0
126816,note_on,,,,,4,0,8,,,,,,4,,72,100
126908,note_off,,,,,188,0,5,,,,,,2,,55,0
126908,note_off,,,,,92,0,8,,,,,,4,,72,0
126912,note_on,,,,,4,0,8,,,,,,4,,74,100
126912,note_on,,,,,4,0,5,,,,,,2,,55,85
127004,note_off,,,,,92,0,8,,,,,,4,,74,0
127008,note_on,,,,,4,0,8,,,,,,4,,77,100
127100,note_off,,,,,92,0,8,,,,,,4,,77,0
127100,note_off,,,,,188,0,5,,,,,,2,,55,0
127104,note_on,,,,,4,0,5,,,,,,2,,55,85
127104,note_on,,,,,4,0,8,,,,,,4,,79,100
127196,note_off,,,,,92,0,8,,,,,,4,,79,0
127200,note_on,,,,,4,0,8,,,,,,4,,74,100
127292,note_off,,,,,188,0,5,,,,,,2,,55,0
127292,note_off,,,,,92,0,8,,,,,,4,,74,0
127296,note_on,,,,,4,0,5,,,,,,2,,55,85
127296,note_on,,,,,4,0,8,,,,,,4,,76,100
127388,note_off,,,,,92,0,8,,,,,,4,,76,0
127392,note_on,,,,,4,0,8,,,,,,4,,71,100
127484,note_off,,,,,188,0,5,,,,,,2,,55,0
127484,note_off,,,,,92,0,8,,,,,,4,,71,0
127488,note_on,,,,,4,0,8,,,,,,4,,69,100
127488,note_on,,,,,4,0,5,,,,,,2,,54,85
127488,note_on,,,,,676,0,9,,,,,,4,,63,100
127580,note_off,,,,,92,0,8,,,,,,4,,69,0
127580,note_off,,,,,92,0,9,,,,,,4,,63,0
127584,note_on,,,,,4,0,8,,,,,,4,,71,100
127676,note_off,,,,,188,0,5,,,,,,2,,54,0
127676,note_off,,,,,92,0,8,,,,,,4,,71,0
127680,note_on,,,,,4,0,8,,,,,,4,,72,100
127680,note_on,,,,,4,0,5,,,,,,2,,54,85
127772,note_off,,,,,92,0,8,,,,,,4,,72,0
127776,note_on,,,,,4,0,8,,,,,,4,,75,100
127868,note_off,,,,,188,0,5,,,,,,2,,54,0
127868,note_off,,,,,92,0,8,,,,,,4,,75,0
127872,note_on,,,,,4,0,5,,,,,,2,,54,85
127872,note_on,,,,,4,0,8,,,,,,4,,81,100
127964,note_off,,,,,92,0,8,,,,,,4,,81,0
127968,note_on,,,,,4,0,8,,,,,,4,,72,100
128060,note_off,,,,,188,0,5,,,,,,2,,54,0
128060,note_off,,,,,92,0,8,,,,,,4,,72,0
128064,note_on,,,,,4,0,5,,,,,,2,,54,85
128064,note_on,,,,,4,0,8,,,,,,4,,81,100
128156,note_off,,,,,92,0,8,,,,,,4,,81,0
128160,note_on,,,,,4,0,8,,,,,,4,,72,100
128252,note_off,,,,,92,0,8,,,,,,4,,72,0
128252,note_off,,,,,188,0,5,,,,,,2,,54,0
128256,note_on,,,,,4,0,5,,,,,,2,,54,85
128256,note_on,,,,,4,0,8,,,,,,4,,69,100
128256,note_on,,,,,676,0,9,,,,,,4,,63,100
128348,note_off,,,,,92,0,8,,,,,,4,,69,0
128348,note_off,,,,,92,0,9,,,,,,4,,63,0
128352,note_on,,,,,4,0,8,,,,,,4,,71,100
128444,note_off,,,,,188,0,5,,,,,,2,,54,0
128444,note_off,,,,,92,0,8,,,,,,4,,71,0
128448,note_on,,,,,4,0,5,,,,,,2,,54,85
128448,note_on,,,,,4,0,8,,,,,,4,,72,100
128540,note_off,,,,,92,0,8,,,,,,4,,72,0
128544,note_on,,,,,4,0,8,,,,,,4,,75,100
128636,note_off,,,,,188,0,5,,,,,,2,,54,0
128636,note_off,,,,,92,0,8,,,,,,4,,75,0
128640,note_on,,,,,4,0,5,,,,,,2,,54,85
128640,note_on,,,,,4,0,8,,,,,,4,,81,100
128732,note_off,,,,,92,0,8,,,,,,4,,81,0
128736,note_on,,,,,4,0,8,,,,,,4,,72,100
128828,note_off,,,,,92,0,8,,,,,,4,,72,0
128828,note_off,,,,,188,0,5,,,,,,2,,54,0
128832,note_on,,,,,4,0,8,,,,,,4,,81,100
128832,note_on,,,,,4,0,5,,,,,,2,,54,85
128924,note_off,,,,,92,0,8,,,,,,4,,81,0
128928,note_on,,,,,4,0,8,,,,,,4,,72,100
129020,note_off,,,,,92,0,8,,,,,,4,,72,0
129020,note_off,,,,,188,0,5,,,,,,2,,54,0
129024,note_on,,,,,4,0,8,,,,,,4,,71,100
129024,note_on,,,,,676,0,9,,,,,,4,,62,100
129024,note_on,,,,,4,0,5,,,,,,2,,55,85
129116,note_off,,,,,92,0,9,,,,,,4,,62,0
129116,note_off,,,,,92,0,8,,,,,,4,,71,0
129120,note_on,,,,,4,0,8,,,,,,4,,72,100
129212,note_off,,,,,92,0,8,,,,,,4,,72,0
129212,note_off,,,,,188,0,5,,,,,,2,,55,0
129216,note_on,,,,,4,0,8,,,,,,4,,74,100
129216,note_on,,,,,4,0,5,,,,,,2,,55,85
129308,note_off,,,,,92,0,8,,,,,,4,,74,0
129312,note_on,,,,,4,0,8,,,,,,4,,77,100
129404,note_off,,,,,188,0,5,,,,,,2,,55,0
129404,note_off,,,,,92,0,8,,,,,,4,,77,0
129408,note_on,,,,,4,0,5,,,,,,2,,55,85
129408,note_on,,,,,4,0,8,,,,,,4,,80,100
129500,note_off,,,,,92,0,8,,,,,,4,,80,0
129504,note_on,,,,,4,0,8,,,,,,4,,71,100
129596,note_off,,,,,188,0,5,,,,,,2,,55,0
129596,note_off,,,,,92,0,8,,,,,,4,,71,0
129600,note_on,,,,,4,0,8,,,,,,4,,80,100
129600,note_on,,,,,4,0,5,,,,,,2,,55,85
129692,note_off,,,,,92,0,8,,,,,,4,,80,0
129696,note_on,,,,,4,0,8,,,,,,4,,71,100
129788,note_off,,,,,92,0,8,,,,,,4,,71,0
129788,note_off,,,,,188,0,5,,,,,,2,,55,0
129792,note_on,,,,,4,0,5,,,,,,2,,55,85
129792,note_on,,,,,4,0,8,,,,,,4,,71,100
129792,note_on,,,,,676,0,9,,,,,,4,,62,100
129884,note_off,,,,,92,0,8,,,,,,4,,71,0
129884,note_off,,,,,92,0,9,,,,,,4,,62,0
129888,note_on,,,,,4,0,8,,,,,,4,,72,100
129980,note_off,,,,,92,0,8,,,,,,4,,72,0
129980,note_off,,,,,188,0,5,,,,,,2,,55,0
129984,note_on,,,,,4,0,8,,,,,,4,,74,100
129984,note_on,,,,,4,0,5,,,,,,2,,55,85
130076,note_off,,,,,92,0,8,,,,,,4,,74,0
130080,note_on,,,,,4,0,8,,,,,,4,,77,100
130172,note_off,,,,,188,0,5,,,,,,2,,55,0
130172,note_off,,,,,92,0,8,,,,,,4,,77,0
130176,note_on,,,,,4,0,5,,,,,,2,,55,85
130176,note_on,,,,,4,0,8,,,,,,4,,80,100
130268,note_off,,,,,92,0,8,,,,,,4,,80,0
130272,note_on,,,,,4,0,8,,,,,,4,,71,100
130364,note_off,,,,,92,0,8,,,,,,4,,71,0
130364,note_off,,,,,188,0,5,,,,,,2,,55,0
130368,note_on,,,,,4,0,8,,,,,,4,,80,100
130368,note_on,,,,,4,0,5,,,,,,2,,55,85
130460,note_off,,,,,92,0,8,,,,,,4,,80,0
130464,note_on,,,,,4,0,8,,,,,,4,,71,100
130556,note_off,,,,,92,0,8,,,,,,4,,71,0
130556,note_off,,,,,188,0,5,,,,,,2,,55,0
130560,note_on,,,,,4,0,8,,,,,,4,,66,100
130560,note_on,,,,,676,0,9,,,,,,4,,57,100
130560,note_on,,,,,4,0,5,,,,,,2,,55,85
130652,note_off,,,,,92,0,8,,,,,,4,,66,0
130652,note_off,,,,,92,0,9,,,,,,4,,57,0
130656,note_on,,,,,4,0,8,,,,,,4,,67,100
130748,note_off,,,,,92,0,8,,,,,,4,,67,0
130752,note_on,,,,,4,0,8,,,,,,4,,69,100
130752,note_on,,,,,0,0,5,,,,,,2,,55,85
130752,note_off,,,,,192,0,5,,,,,,2,,55,0
130844,note_off,,,,,92,0,8,,,,,,4,,69,0
130848,note_on,,,,,4,0,8,,,,,,4,,72,100
130940,note_off,,,,,92,0,8,,,,,,4,,72,0
130944,note_off,,,,,192,0,5,,,,,,2,,55,0
130944,note_on,,,,,0,0,5,,,,,,2,,55,85
130944,note_on,,,,,4,0,8,,,,,,4,,75,100
131036,note_off,,,,,92,0,8,,,,,,4,,75,0
131040,note_on,,,,,4,0,8,,,,,,4,,66,100
131132,note_off,,,,,92,0,8,,,,,,4,,66,0
131136,note_off,,,,,192,0,5,,,,,,2,,55,0
131136,note_on,,,,,0,0,5,,,,,,2,,55,85
131136,note_on,,,,,4,0,8,,,,,,4,,75,100
131228,note_off,,,,,92,0,8,,,,,,4,,75,0
131232,note_on,,,,,4,0,8,,,,,,4,,66,100
131324,note_off,,,,,92,0,8,,,,,,4,,66,0
131328,note_on,,,,,0,0,5,,,,,,2,,55,85
131328,note_on,,,,,676,0,9,,,,,,4,,57,100
131328,note_off,,,,,192,0,5,,,,,,2,,55,0
131328,note_on,,,,,4,0,8,,,,,,4,,66,100
131420,note_off,,,,,92,0,9,,,,,,4,,57,0
131420,note_off,,,,,92,0,8,,,,,,4,,66,0
131424,note_on,,,,,4,0,8,,,,,,4,,67,100
131516,note_off,,,,,92,0,8,,,,,,4,,67,0
131520,note_on,,,,,0,0,5,,,,,,2,,55,85
131520,note_on,,,,,4,0,8,,,,,,4,,69,100
131520,note_off,,,,,192,0,5,,,,,,2,,55,0
131612,note_off,,,,,92,0,8,,,,,,4,,69,0
131616,note_on,,,,,4,0,8,,,,,,4,,72,100
131708,note_off,,,,,92,0,8,,,,,,4,,72,0
131712,note_on,,,,,0,0,5,,,,,,2,,55,85
131712,note_off,,,,,192,0,5,,,,,,2,,55,0
131712,note_on,,,,,4,0,8,,,,,,4,,75,100
131804,note_off,,,,,92,0,8,,,,,,4,,75,0
131808,note_on,,,,,4,0,8,,,,,,4,,66,100
131900,note_off,,,,,92,0,8,,,,,,4,,66,0
131904,note_on,,,,,0,0,5,,,,,,2,,55,85
131904,note_off,,,,,192,0,5,,,,,,2,,55,0
131904,note_on,,,,,4,0,8,,,,,,4,,75,100
131996,note_off,,,,,92,0,8,,,,,,4,,75,0
132000,note_on,,,,,4,0,8,,,,,,4,,66,100
132092,note_off,,,,,92,0,8,,,,,,4,,66,0
132096,note_on,,,,,0,0,5,,,,,,2,,55,85
132096,note_on,,,,,676,0,9,,,,,,4,,55,100
132096,note_off,,,,,192,0,5,,,,,,2,,55,0
132096,note_on,,,,,4,0,8,,,,,,4,,65,100
132188,note_off,,,,,92,0,8,,,,,,4,,65,0
132188,note_off,,,,,92,0,9,,,,,,4,,55,0
132192,note_on,,,,,4,0,8,,,,,,4,,67,100
132284,note_off,,,,,92,0,8,,,,,,4,,67,0
132288,note_on,,,,,4,0,8,,,,,,4,,68,100
132288,note_on,,,,,0,0,5,,,,,,2,,55,85
132288,note_off,,,,,192,0,5,,,,,,2,,55,0
132380,note_off,,,,,92,0,8,,,,,,4,,68,0
132384,note_on,,,,,4,0,8,,,,,,4,,71,100
132476,note_off,,,,,92,0,8,,,,,,4,,71,0
132480,note_on,,,,,4,0,8,,,,,,4,,74,100
132480,note_off,,,,,192,0,5,,,,,,2,,55,0
132480,note_on,,,,,0,0,5,,,,,,2,,55,85
132572,note_off,,,,,92,0,8,,,,,,4,,74,0
132576,note_on,,,,,4,0,8,,,,,,4,,65,100
132668,note_off,,,,,92,0,8,,,,,,4,,65,0
132672,note_off,,,,,192,0,5,,,,,,2,,55,0
132672,note_on,,,,,0,0,5,,,,,,2,,55,85
132672,note_on,,,,,4,0,8,,,,,,4,,74,100
132764,note_off,,,,,92,0,8,,,,,,4,,74,0
132768,note_on,,,,,4,0,8,,,,,,4,,65,100
132860,note_off,,,,,92,0,8,,,,,,4,,65,0
132864,note_on,,,,,4,0,8,,,,,,4,,65,100
132864,note_on,,,,,676,0,9,,,,,,4,,55,100
132864,note_off,,,,,192,0,5,,,,,,2,,55,0
132864,note_on,,,,,0,0,5,,,,,,2,,55,85
132956,note_off,,,,,92,0,8,,,,,,4,,65,0
132956,note_off,,,,,92,0,9,,,,,,4,,55,0
132960,note_on,,,,,4,0,8,,,,,,4,,67,100
133052,note_off,,,,,92,0,8,,,,,,4,,67,0
133056,note_on,,,,,0,0,5,,,,,,2,,55,85
133056,note_off,,,,,192,0,5,,,,,,2,,55,0
133056,note_on,,,,,4,0,8,,,,,,4,,68,100
133148,note_off,,,,,92,0,8,,,,,,4,,68,0
133152,note_on,,,,,4,0,8,,,,,,4,,71,100
133244,note_off,,,,,92,0,8,,,,,,4,,71,0
133248,note_on,,,,,0,0,5,,,,,,2,,55,85
133248,note_off,,,,,192,0,5,,,,,,2,,55,0
133248,note_on,,,,,4,0,8,,,,,,4,,74,100
133340,note_off,,,,,92,0,8,,,,,,4,,74,0
133344,note_on,,,,,4,0,8,,,,,,4,,65,100
133436,note_off,,,,,92,0,8,,,,,,4,,65,0
133440,note_on,,,,,0,0,5,,,,,,2,,55,85
133440,note_off,,,,,192,0,5,,,,,,2,,55,0
133440,note_on,,,,,4,0,8,,,,,,4,,74,100
133532,note_off,,,,,92,0,8,,,,,,4,,74,0
133536,note_on,,,,,4,0,8,,,,,,4,,65,100
133628,note_off,,,,,92,0,8,,,,,,4,,65,0
133632,note_on,,,,,0,0,5,,,,,,2,,55,85
133632,note_off,,,,,192,0,5,,,,,,2,,55,0
133632,note_on,,,,,676,0,9,,,,,,4,,55,100
133632,note_on,,,,,4,0,8,,,,,,4,,63,100
133724,note_off,,,,,92,0,8,,,,,,4,,63,0
133724,note_off,,,,,92,0,9,,,,,,4,,55,0
133728,note_on,,,,,4,0,8,,,,,,4,,65,100
133820,note_off,,,,,92,0,8,,,,,,4,,65,0
133824,note_off,,,,,192,0,5,,,,,,2,,55,0
133824,note_on,,,,,0,0,5,,,,,,2,,55,85
133824,note_on,,,,,4,0,8,,,,,,4,,67,100
133916,note_off,,,,,92,0,8,,,,,,4,,67,0
133920,note_on,,,,,4,0,8,,,,,,4,,71,100
134012,note_off,,,,,92,0,8,,,,,,4,,71,0
134016,note_on,,,,,4,0,8,,,,,,4,,72,100
134016,note_off,,,,,192,0,5,,,,,,2,,55,0
134016,note_on,,,,,0,0,5,,,,,,2,,55,85
134108,note_off,,,,,92,0,8,,,,,,4,,72,0
134112,note_on,,,,,4,0,8,,,,,,4,,63,100
134204,note_off,,,,,92,0,8,,,,,,4,,63,0
134208,note_on,,,,,0,0,5,,,,,,2,,55,85
134208,note_off,,,,,192,0,5,,,,,,2,,55,0
134208,note_on,,,,,4,0,8,,,,,,4,,72,100
134300,note_off,,,,,92,0,8,,,,,,4,,72,0
134304,note_on,,,,,4,0,8,,,,,,4,,63,100
134396,note_off,,,,,92,0,8,,,,,,4,,63,0
134400,note_on,,,,,0,0,5,,,,,,2,,55,85
134400,note_off,,,,,192,0,5,,,,,,2,,55,0
134400,note_on,,,,,676,0,9,,,,,,4,,55,100
134400,note_on,,,,,4,0,8,,,,,,4,,63,100
134492,note_off,,,,,92,0,9,,,,,,4,,55,0
134492,note_off,,,,,92,0,8,,,,,,4,,63,0
134496,note_on,,,,,4,0,8,,,,,,4,,65,100
134588,note_off,,,,,92,0,8,,,,,,4,,65,0
134592,note_on,,,,,0,0,5,,,,,,2,,55,85
134592,note_off,,,,,192,0,5,,,,,,2,,55,0
134592,note_on,,,,,4,0,8,,,,,,4,,67,100
134684,note_off,,,,,92,0,8,,,,,,4,,67,0
134688,note_on,,,,,4,0,8,,,,,,4,,71,100
134780,note_off,,,,,92,0,8,,,,,,4,,71,0
134784,note_off,,,,,192,0,5,,,,,,2,,55,0
134784,note_on,,,,,0,0,5,,,,,,2,,55,85
134784,note_on,,,,,4,0,8,,,,,,4,,72,100
134876,note_off,,,,,92,0,8,,,,,,4,,72,0
134880,note_on,,,,,4,0,8,,,,,,4,,63,100
134972,note_off,,,,,92,0,8,,,,,,4,,63,0
134976,note_off,,,,,192,0,5,,,,,,2,,55,0
134976,note_on,,,,,4,0,8,,,,,,4,,72,100
134976,note_on,,,,,0,0,5,,,,,,2,,55,85
135068,note_off,,,,,92,0,8,,,,,,4,,72,0
135072,note_on,,,,,4,0,8,,,,,,4,,63,100
135164,note_off,,,,,92,0,8,,,,,,4,,63,0
135168,note_on,,,,,676,0,9,,,,,,4,,55,100
135168,note_off,,,,,192,0,5,,,,,,2,,55,0
135168,note_on,,,,,0,0,5,,,,,,2,,55,85
135168,note_on,,,,,4,0,8,,,,,,4,,62,100
135260,note_off,,,,,92,0,8,,,,,,4,,62,0
135260,note_off,,,,,92,0,9,,,,,,4,,55,0
135264,note_on,,,,,4,0,8,,,,,,4,,63,100
135356,note_off,,,,,92,0,8,,,,,,4,,63,0
135360,note_on,,,,,4,0,8,,,,,,4,,65,100
135360,note_off,,,,,192,0,5,,,,,,2,,55,0
135360,note_on,,,,,0,0,5,,,,,,2,,55,85
135452,note_off,,,,,92,0,8,,,,,,4,,65,0
135456,note_on,,,,,4,0,8,,,,,,4,,71,100
135548,note_off,,,,,92,0,8,,,,,,4,,71,0
135552,note_on,,,,,4,0,8,,,,,,4,,72,100
135552,note_off,,,,,192,0,5,,,,,,2,,55,0
135552,note_on,,,,,0,0,5,,,,,,2,,55,85
135644,note_off,,,,,92,0,8,,,,,,4,,72,0
135648,note_on,,,,,4,0,8,,,,,,4,,62,100
135740,note_off,,,,,92,0,8,,,,,,4,,62,0
135744,note_on,,,,,4,0,8,,,,,,4,,72,100
135744,note_off,,,,,192,0,5,,,,,,2,,55,0
135744,note_on,,,,,0,0,5,,,,,,2,,55,85
135836,note_off,,,,,92,0,8,,,,,,4,,72,0
135840,note_on,,,,,4,0,8,,,,,,4,,62,100
135932,note_off,,,,,92,0,8,,,,,,4,,62,0
135936,note_on,,,,,4,0,8,,,,,,4,,62,100
135936,note_off,,,,,192,0,5,,,,,,2,,55,0
135936,note_on,,,,,0,0,5,,,,,,2,,55,85
135936,note_on,,,,,676,0,9,,,,,,4,,55,100
136028,note_off,,,,,92,0,8,,,,,,4,,62,0
136028,note_off,,,,,92,0,9,,,,,,4,,55,0
136032,note_on,,,,,4,0,8,,,,,,4,,63,100
136124,note_off,,,,,92,0,8,,,,,,4,,63,0
136128,note_on,,,,,0,0,5,,,,,,2,,55,85
136128,note_off,,,,,192,0,5,,,,,,2,,55,0
136128,note_on,,,,,4,0,8,,,,,,4,,65,100
136220,note_off,,,,,92,0,8,,,,,,4,,65,0
136224,note_on,,,,,4,0,8,,,,,,4,,71,100
136316,note_off,,,,,92,0,8,,,,,,4,,71,0
136320,note_on,,,,,4,0,8,,,,,,4,,72,100
136320,note_on,,,,,0,0,5,,,,,,2,,55,85
136320,note_off,,,,,192,0,5,,,,,,2,,55,0
136412,note_off,,,,,92,0,8,,,,,,4,,72,0
136416,note_on,,,,,4,0,8,,,,,,4,,62,100
136508,note_off,,,,,92,0,8,,,,,,4,,62,0
136512,note_off,,,,,192,0,5,,,,,,2,,55,0
136512,note_on,,,,,0,0,5,,,,,,2,,55,85
136512,note_on,,,,,4,0,8,,,,,,4,,72,100
136604,note_off,,,,,92,0,8,,,,,,4,,72,0
136608,note_on,,,,,4,0,8,,,,,,4,,62,100
136700,note_off,,,,,92,0,8,,,,,,4,,62,0
136704,note_on,,,,,676,0,9,,,,,,4,,55,100
136704,note_on,,,,,4,0,8,,,,,,4,,62,100
136704,note_on,,,,,0,0,5,,,,,,2,,55,85
136704,note_off,,,,,192,0,5,,,,,,2,,55,0
136796,note_off,,,,,92,0,9,,,,,,4,,55,0
136796,note_off,,,,,92,0,8,,,,,,4,,62,0
136800,note_on,,,,,4,0,8,,,,,,4,,63,100
136892,note_off,,,,,92,0,8,,,,,,4,,63,0
136896,note_on,,,,,4,0,8,,,,,,4,,65,100
136896,note_on,,,,,0,0,5,,,,,,2,,55,85
136896,note_off,,,,,192,0,5,,,,,,2,,55,0
136988,note_off,,,,,92,0,8,,,,,,4,,65,0
136992,note_on,,,,,4,0,8,,,,,,4,,68,100
137084,note_off,,,,,92,0,8,,,,,,4,,68,0
137088,note_on,,,,,0,0,5,,,,,,2,,55,85
137088,note_off,,,,,192,0,5,,,,,,2,,55,0
137088,note_on,,,,,4,0,8,,,,,,4,,71,100
137180,note_off,,,,,92,0,8,,,,,,4,,71,0
137184,note_on,,,,,4,0,8,,,,,,4,,62,100
137276,note_off,,,,,92,0,8,,,,,,4,,62,0
137280,note_off,,,,,192,0,5,,,,,,2,,55,0
137280,note_on,,,,,0,0,5,,,,,,2,,55,85
137280,note_on,,,,,4,0,8,,,,,,4,,71,100
137372,note_off,,,,,92,0,8,,,,,,4,,71,0
137376,note_on,,,,,4,0,8,,,,,,4,,62,100
137468,note_off,,,,,92,0,8,,,,,,4,,62,0
137472,note_on,,,,,4,0,8,,,,,,4,,62,100
137472,note_on,,,,,676,0,9,,,,,,4,,55,100
137472,note_on,,,,,0,0,5,,,,,,2,,55,85
137472,note_off,,,,,192,0,5,,,,,,2,,55,0
137564,note_off,,,,,92,0,9,,,,,,4,,55,0
137564,note_off,,,,,92,0,8,,,,,,4,,62,0
137568,note_on,,,,,4,0,8,,,,,,4,,63,100
137660,note_off,,,,,92,0,8,,,,,,4,,63,0
137664,note_on,,,,,4,0,8,,,,,,4,,65,100
137664,note_off,,,,,192,0,5,,,,,,2,,55,0
137664,note_on,,,,,0,0,5,,,,,,2,,55,85
137756,note_off,,,,,92,0,8,,,,,,4,,65,0
137760,note_on,,,,,4,0,8,,,,,,4,,68,100
137852,note_off,,,,,92,0,8,,,,,,4,,68,0
137856,note_off,,,,,192,0,5,,,,,,2,,55,0
137856,note_on,,,,,0,0,5,,,,,,2,,55,85
137856,note_on,,,,,4,0,8,,,,,,4,,71,100
137948,note_off,,,,,92,0,8,,,,,,4,,71,0
137952,note_on,,,,,4,0,8,,,,,,4,,62,100
138044,note_off,,,,,92,0,8,,,,,,4,,62,0
138048,note_off,,,,,192,0,5,,,,,,2,,55,0
138048,note_on,,,,,0,0,5,,,,,,2,,55,85
138048,note_on,,,,,4,0,8,,,,,,4,,71,100
138140,note_off,,,,,92,0,8,,,,,,4,,71,0
138144,note_on,,,,,4,0,8,,,,,,4,,62,100
138236,note_off,,,,,92,0,8,,,,,,4,,62,0
138240,note_on,,,,,18244,0,3,,,,,,0,,72,85
138240,note_off,,,,,192,0,5,,,,,,2,,55,0
138240,note_on,,,,,18244,0,4,,,,,,1,,67,85
138240,note_on,,,,,24196,0,7,,,,,,3,,24,85
138240,note_on,,,,,676,0,9,,,,,,4,,48,100
138240,note_on,,,,,24196,0,6,,,,,,3,,36,85
138240,note_on,,,,,4,0,8,,,,,,4,,60,100
138240,note_on,,,,,0,0,5,,,,,,2,,64,85
138332,note_off,,,,,92,0,8,,,,,,4,,60,0
138336,note_on,,,,,4,0,8,,,,,,4,,62,100
138428,note_off,,,,,92,0,8,,,,,,4,,62,0
138428,note_off,,,,,188,0,9,,,,,,4,,48,0
138432,note_on,,,,,0,0,7,,,,,,3,,24,85
138432,note_off,,,,,192,0,7,,,,,,3,,24,0
138432,note_off,,,,,192,0,6,,,,,,3,,36,0
138432,note_on,,,,,0,0,6,,,,,,3,,36,85
138432,note_on,,,,,4,0,8,,,,,,4,,64,100
138560,note_off,,,,,128,0,8,,,,,,4,,64,0
138624,note_on,,,,,64,0,8,,,,,,4,,62,100
138624,note_off,,,,,192,0,7,,,,,,3,,24,0
138624,note_off,,,,,192,0,6,,,,,,3,,36,0
138624,note_on,,,,,0,0,6,,,,,,3,,36,85
138624,note_on,,,,,0,0,7,,,,,,3,,24,85
138812,note_off,,,,,188,0,8,,,,,,4,,62,0
138816,note_off,,,,,192,0,6,,,,,,3,,36,0
138816,note_on,,,,,0,0,6,,,,,,3,,36,85
138816,note_off,,,,,192,0,7,,,,,,3,,24,0
138816,note_on,,,,,4,0,8,,,,,,4,,60,100
138816,note_on,,,,,0,0,7,,,,,,3,,24,85
139004,note_off,,,,,188,0,8,,,,,,4,,60,0
139008,note_on,,,,,4,0,8,,,,,,4,,67,100
139008,note_off,,,,,192,0,7,,,,,,3,,24,0
139008,note_on,,,,,0,0,7,,,,,,3,,24,85
139008,note_on,,,,,580,0,9,,,,,,4,,52,100
139008,note_off,,,,,192,0,6,,,,,,3,,36,0
139008,note_on,,,,,0,0,6,,,,,,3,,36,85
139100,note_off,,,,,92,0,9,,,,,,4,,52,0
139104,note_on,,,,,4,0,9,,,,,,4,,53,100
139196,note_off,,,,,188,0,8,,,,,,4,,67,0
139196,note_off,,,,,92,0,9,,,,,,4,,53,0
139200,note_off,,,,,192,0,6,,,,,,3,,36,0
139200,note_on,,,,,0,0,6,,,,,,3,,36,85
139200,note_on,,,,,0,0,7,,,,,,3,,24,85
139200,note_off,,,,,192,0,7,,,,,,3,,24,0
139200,note_on,,,,,4,0,9,,,,,,4,,55,100
139200,note_on,,,,,4,0,8,,,,,,4,,76,100
139292,note_off,,,,,92,0,9,,,,,,4,,55,0
139296,note_on,,,,,4,0,9,,,,,,4,,53,100
139388,note_off,,,,,92,0,9,,,,,,4,,53,0
139392,note_off,,,,,192,0,6,,,,,,3,,36,0
139392,note_on,,,,,0,0,6,,,,,,3,,36,85
139392,note_on,,,,,4,0,9,,,,,,4,,57,100
139392,note_on,,,,,0,0,7,,,,,,3,,24,85
139392,note_off,,,,,192,0,7,,,,,,3,,24,0
139484,note_off,,,,,92,0,9,,,,,,4,,57,0
139488,note_on,,,,,4,0,9,,,,,,4,,55,100
139580,note_off,,,,,92,0,9,,,,,,4,,55,0
139580,note_off,,,,,380,0,8,,,,,,4,,76,0
139584,note_off,,,,,192,0,7,,,,,,3,,24,0
139584,note_on,,,,,4,0,8,,,,,,4,,67,100
139584,note_off,,,,,192,0,6,,,,,,3,,36,0
139584,note_on,,,,,4,0,9,,,,,,4,,53,100
139584,note_on,,,,,0,0,7,,,,,,3,,24,85
139584,note_on,,,,,0,0,6,,,,,,3,,36,85
139676,note_off,,,,,92,0,9,,,,,,4,,53,0
139680,note_on,,,,,4,0,9,,,,,,4,,52,100
139772,note_off,,,,,188,0,8,,,,,,4,,67,0
139772,note_off,,,,,92,0,9,,,,,,4,,52,0
139776,note_on,,,,,4,0,8,,,,,,4,,59,100
139776,note_on,,,,,4,0,9,,,,,,4,,50,100
139776,note_off,,,,,1536,0,5,,,,,,2,,64,0
139776,note_on,,,,,0,0,6,,,,,,3,,36,85
139776,note_off,,,,,1536,0,3,,,,,,0,,72,0
139776,note_on,,,,,0,0,7,,,,,,3,,24,85
139776,note_off,,,,,192,0,7,,,,,,3,,24,0
139776,note_on,,,,,0,0,5,,,,,,2,,59,85
139776,note_off,,,,,1536,0,4,,,,,,1,,67,0
139776,note_on,,,,,0,0,3,,,,,,0,,74,85
139776,note_off,,,,,192,0,6,,,,,,3,,36,0
139776,note_on,,,,,0,0,4,,,,,,1,,65,85
139868,note_off,,,,,92,0,9,,,,,,4,,50,0
139868,note_off,,,,,92,0,8,,,,,,4,,59,0
139872,note_on,,,,,4,0,8,,,,,,4,,60,100
139872,note_on,,,,,4,0,9,,,,,,4,,52,100
139964,note_off,,,,,92,0,9,,,,,,4,,52,0
139964,note_off,,,,,92,0,8,,,,,,4,,60,0
139968,note_off,,,,,192,0,7,,,,,,3,,24,0
139968,note_on,,,,,4,0,9,,,,,,4,,53,100
139968,note_on,,,,,0,0,7,,,,,,3,,24,85
139968,note_on,,,,,0,0,6,,,,,,3,,36,85
139968,note_on,,,,,4,0,8,,,,,,4,,62,100
139968,note_off,,,,,192,0,6,,,,,,3,,36,0
140060,note_off,,,,,92,0,9,,,,,,4,,53,0
140064,note_on,,,,,4,0,9,,,,,,4,,52,100
140096,note_off,,,,,128,0,8,,,,,,4,,62,0
140156,note_off,,,,,92,0,9,,,,,,4,,52,0
140160,note_on,,,,,0,0,7,,,,,,3,,24,85
140160,note_on,,,,,0,0,6,,,,,,3,,36,85
140160,note_off,,,,,192,0,7,,,,,,3,,24,0
140160,note_off,,,,,192,0,6,,,,,,3,,36,0
140160,note_on,,,,,4,0,9,,,,,,4,,53,100
140160,note_on,,,,,64,0,8,,,,,,4,,60,100
140252,note_off,,,,,92,0,9,,,,,,4,,53,0
140256,note_on,,,,,4,0,9,,,,,,4,,52,100
140348,note_off,,,,,92,0,9,,,,,,4,,52,0
140348,note_off,,,,,188,0,8,,,,,,4,,60,0
140352,note_on,,,,,0,0,6,,,,,,3,,36,85
140352,note_on,,,,,4,0,9,,,,,,4,,50,100
140352,note_off,,,,,192,0,6,,,,,,3,,36,0
140352,note_on,,,,,0,0,7,,,,,,3,,24,85
140352,note_off,,,,,192,0,7,,,,,,3,,24,0
140352,note_on,,,,,4,0,8,,,,,,4,,59,100
140444,note_off,,,,,92,0,9,,,,,,4,,50,0
140448,note_on,,,,,4,0,9,,,,,,4,,48,100
140540,note_off,,,,,92,0,9,,,,,,4,,48,0
140540,note_off,,,,,188,0,8,,,,,,4,,59,0
140544,note_off,,,,,192,0,7,,,,,,3,,24,0
140544,note_on,,,,,4,0,9,,,,,,4,,50,100
140544,note_on,,,,,0,0,3,,,,,,0,,71,85
140544,note_on,,,,,4,0,8,,,,,,4,,65,100
140544,note_on,,,,,0,0,6,,,,,,3,,36,85
140544,note_off,,,,,768,0,3,,,,,,0,,74,0
140544,note_on,,,,,0,0,7,,,,,,3,,24,85
140544,note_off,,,,,192,0,6,,,,,,3,,36,0
140544,note_on,,,,,0,0,5,,,,,,2,,62,85
140544,note_off,,,,,768,0,5,,,,,,2,,59,0
140636,note_off,,,,,92,0,9,,,,,,4,,50,0
140640,note_on,,,,,4,0,9,,,,,,4,,48,100
140732,note_off,,,,,92,0,9,,,,,,4,,48,0
140732,note_off,,,,,188,0,8,,,,,,4,,65,0
140736,note_on,,,,,0,0,6,,,,,,3,,36,85
140736,note_off,,,,,192,0,6,,,,,,3,,36,0
140736,note_on,,,,,0,0,7,,,,,,3,,24,85
140736,note_on,,,,,4,0,8,,,,,,4,,74,100
140736,note_off,,,,,192,0,7,,,,,,3,,24,0
140736,note_on,,,,,4,0,9,,,,,,4,,47,100
140828,note_off,,,,,92,0,9,,,,,,4,,47,0
140832,note_on,,,,,4,0,9,,,,,,4,,45,100
140924,note_off,,,,,92,0,9,,,,,,4,,45,0
140928,note_off,,,,,192,0,6,,,,,,3,,36,0
140928,note_on,,,,,0,0,6,,,,,,3,,36,85
140928,note_off,,,,,192,0,7,,,,,,3,,24,0
140928,note_on,,,,,0,0,7,,,,,,3,,24,85
140928,note_on,,,,,4,0,9,,,,,,4,,43,100
141020,note_off,,,,,92,0,9,,,,,,4,,43,0
141024,note_on,,,,,4,0,9,,,,,,4,,41,100
141116,note_off,,,,,380,0,8,,,,,,4,,74,0
141116,note_off,,,,,92,0,9,,,,,,4,,41,0
141120,note_off,,,,,192,0,6,,,,,,3,,36,0
141120,note_on,,,,,0,0,7,,,,,,3,,24,85
141120,note_on,,,,,4,0,9,,,,,,4,,40,100
141120,note_on,,,,,4,0,8,,,,,,4,,65,100
141120,note_on,,,,,0,0,6,,,,,,3,,36,85
141120,note_off,,,,,192,0,7,,,,,,3,,24,0
141212,note_off,,,,,92,0,9,,,,,,4,,40,0
141216,note_on,,,,,4,0,9,,,,,,4,,38,100
141308,note_off,,,,,92,0,9,,,,,,4,,38,0
141308,note_off,,,,,188,0,8,,,,,,4,,65,0
141312,note_on,,,,,4,0,8,,,,,,4,,64,100
141312,note_off,,,,,768,0,5,,,,,,2,,62,0
141312,note_on,,,,,0,0,5,,,,,,2,,64,100
141312,note_off,,,,,1536,0,4,,,,,,1,,65,0
141312,note_on,,,,,0,0,4,,,,,,1,,67,100
141312,note_on,,,,,0,0,3,,,,,,0,,72,100
141312,note_on,,,,,0,0,6,,,,,,3,,36,100
141312,note_off,,,,,192,0,7,,,,,,3,,24,0
141312,note_on,,,,,0,0,7,,,,,,3,,24,100
141312,note_on,,,,,4,0,9,,,,,,4,,36,100
141312,note_off,,,,,768,0,3,,,,,,0,,71,0
141312,note_off,,,,,192,0,6,,,,,,3,,36,0
141404,note_off,,,,,92,0,8,,,,,,4,,64,0
141408,note_on,,,,,4,0,8,,,,,,4,,65,100
141440,note_off,,,,,128,0,3,,,,,,0,,72,0
141500,note_off,,,,,188,0,9,,,,,,4,,36,0
141500,note_off,,,,,92,0,8,,,,,,4,,65,0
141504,note_on,,,,,4,0,8,,,,,,4,,67,100
141504,note_on,,,,,64,0,3,,,,,,0,,60,100
141596,note_off,,,,,284,0,6,,,,,,3,,36,0
141596,note_off,,,,,284,0,5,,,,,,2,,64,0
141596,note_off,,,,,284,0,7,,,,,,3,,24,0
141596,note_off,,,,,284,0,4,,,,,,1,,67,0
141632,note_off,,,,,128,0,3,,,,,,0,,60,0
141644,note_off,,,,,140,0,8,,,,,,4,,67,0
141696,note_on,,,,,52,0,8,,,,,,4,,67,100
141696,note_on,,,,,64,0,3,,,,,,0,,64,100
141788,note_off,,,,,92,0,8,,,,,,4,,67,0
141792,note_on,,,,,4,0,8,,,,,,4,,69,100
141824,note_off,,,,,128,0,3,,,,,,0,,64,0
141884,note_off,,,,,92,0,8,,,,,,4,,69,0
141888,note_on,,,,,64,0,3,,,,,,0,,67,100
141888,note_on,,,,,4,0,8,,,,,,4,,70,100
142016,note_off,,,,,128,0,3,,,,,,0,,67,0
142028,note_off,,,,,140,0,8,,,,,,4,,70,0
142080,note_on,,,,,52,0,8,,,,,,4,,61,100
142080,note_on,,,,,64,0,3,,,,,,0,,57,100
142208,note_off,,,,,128,0,3,,,,,,0,,57,0
142220,note_off,,,,,140,0,8,,,,,,4,,61,0
142272,note_on,,,,,772,0,9,,,,,,4,,57,100
142272,note_on,,,,,676,0,5,,,,,,2,,61,100
142272,note_on,,,,,676,0,4,,,,,,1,,67,100
142272,note_on,,,,,676,0,7,,,,,,3,,33,100
142272,note_on,,,,,0,0,9,,,,,,4,,61,100
142272,note_on,,,,,52,0,8,,,,,,4,,76,100
142272,note_on,,,,,676,0,6,,,,,,3,,45,100
142272,note_on,,,,,64,0,3,,,,,,0,,76,100
142364,note_off,,,,,92,0,8,,,,,,4,,76,0
142364,note_off,,,,,92,0,3,,,,,,0,,76,0
142368,note_on,,,,,4,0,3,,,,,,0,,74,100
142368,note_on,,,,,4,0,8,,,,,,4,,74,100
142460,note_off,,,,,92,0,3,,,,,,0,,74,0
142460,note_off,,,,,188,0,6,,,,,,3,,45,0
142460,note_off,,,,,0,0,9,,,,,,4,,61,0
142460,note_off,,,,,92,0,8,,,,,,4,,74,0
142460,note_off,,,,,188,0,4,,,,,,1,,67,0
142460,note_off,,,,,188,0,7,,,,,,3,,33,0
142460,note_off,,,,,188,0,9,,,,,,4,,57,0
142460,note_off,,,,,188,0,5,,,,,,2,,61,0
142464,note_on,,,,,4,0,6,,,,,,3,,47,100
142464,note_on,,,,,4,0,8,,,,,,4,,73,100
142464,note_on,,,,,4,0,7,,,,,,3,,35,100
142464,note_on,,,,,4,0,4,,,,,,1,,65,100
142464,note_on,,,,,4,0,9,,,,,,4,,59,100
142464,note_on,,,,,4,0,3,,,,,,0,,73,100
142464,note_on,,,,,4,0,5,,,,,,2,,62,100
142464,note_on,,,,,0,0,9,,,,,,4,,62,100
142556,note_off,,,,,92,0,8,,,,,,4,,73,0
142556,note_off,,,,,92,0,3,,,,,,0,,73,0
142560,note_on,,,,,4,0,8,,,,,,4,,71,100
142560,note_on,,,,,4,0,3,,,,,,0,,71,100
142652,note_off,,,,,188,0,6,,,,,,3,,47,0
142652,note_off,,,,,188,0,9,,,,,,4,,59,0
142652,note_off,,,,,92,0,3,,,,,,0,,71,0
142652,note_off,,,,,188,0,4,,,,,,1,,65,0
142652,note_off,,,,,188,0,5,,,,,,2,,62,0
142652,note_off,,,,,188,0,7,,,,,,3,,35,0
142652,note_off,,,,,0,0,9,,,,,,4,,62,0
142652,note_off,,,,,92,0,8,,,,,,4,,71,0
142656,note_on,,,,,4,0,7,,,,,,3,,37,100
142656,note_on,,,,,4,0,4,,,,,,1,,64,100
142656,note_on,,,,,4,0,3,,,,,,0,,69,100
142656,note_on,,,,,4,0,5,,,,,,2,,64,100
142656,note_on,,,,,4,0,9,,,,,,4,,61,100
142656,note_on,,,,,4,0,6,,,,,,3,,49,100
142656,note_on,,,,,0,0,9,,,,,,4,,64,100
142656,note_on,,,,,4,0,8,,,,,,4,,69,100
142748,note_off,,,,,92,0,8,,,,,,4,,69,0
142748,note_off,,,,,92,0,3,,,,,,0,,69,0
142752,note_on,,,,,4,0,8,,,,,,4,,67,100
142752,note_on,,,,,4,0,3,,,,,,0,,67,100
142844,note_off,,,,,188,0,4,,,,,,1,,64,0
142844,note_off,,,,,92,0,3,,,,,,0,,67,0
142844,note_off,,,,,188,0,6,,,,,,3,,49,0
142844,note_off,,,,,92,0,8,,,,,,4,,67,0
142844,note_off,,,,,188,0,5,,,,,,2,,64,0
142844,note_off,,,,,188,0,9,,,,,,4,,61,0
142844,note_off,,,,,0,0,9,,,,,,4,,64,0
142844,note_off,,,,,188,0,7,,,,,,3,,37,0
142848,note_on,,,,,4,0,4,,,,,,1,,62,100
142848,note_on,,,,,4,0,3,,,,,,0,,65,100
142848,note_on,,,,,4,0,5,,,,,,2,,57,100
142848,note_on,,,,,4,0,9,,,,,,4,,62,100
142848,note_on,,,,,4,0,8,,,,,,4,,65,100
142848,note_on,,,,,4,0,6,,,,,,3,,50,100
142848,note_on,,,,,4,0,7,,,,,,3,,38,100
142932,note_off,,,,,84,0,8,,,,,,4,,65,0
142944,note_on,,,,,12,0,8,,,,,,4,,62,100
142988,note_off,,,,,140,0,3,,,,,,0,,65,0
143020,note_off,,,,,172,0,9,,,,,,4,,62,0
143028,note_off,,,,,84,0,8,,,,,,4,,62,0
143040,note_on,,,,,12,0,8,,,,,,4,,65,100
143040,note_on,,,,,52,0,3,,,,,,0,,62,100
143124,note_off,,,,,84,0,8,,,,,,4,,65,0
143132,note_off,,,,,284,0,6,,,,,,3,,50,0
143132,note_off,,,,,284,0,7,,,,,,3,,38,0
143132,note_off,,,,,284,0,4,,,,,,1,,62,0
143132,note_off,,,,,284,0,5,,,,,,2,,57,0
143136,note_on,,,,,12,0,8,,,,,,4,,69,100
143212,note_off,,,,,172,0,3,,,,,,0,,62,0
143220,note_off,,,,,84,0,8,,,,,,4,,69,0
143232,note_on,,,,,20,0,3,,,,,,0,,66,100
143232,note_on,,,,,12,0,8,,,,,,4,,72,100
143316,note_off,,,,,84,0,8,,,,,,4,,72,0
143328,note_on,,,,,12,0,8,,,,,,4,,69,100
143404,note_off,,,,,172,0,3,,,,,,0,,66,0
143412,note_off,,,,,84,0,8,,,,,,4,,69,0
143424,note_on,,,,,20,0,3,,,,,,0,,69,100
143424,note_on,,,,,12,0,8,,,,,,4,,72,100
143508,note_off,,,,,84,0,8,,,,,,4,,72,0
143520,note_on,,,,,12,0,8,,,,,,4,,75,100
143596,note_off,,,,,172,0,3,,,,,,0,,69,0
143604,note_off,,,,,84,0,8,,,,,,4,,75,0
143616,note_on,,,,,20,0,3,,,,,,0,,72,100
143616,note_on,,,,,12,0,8,,,,,,4,,66,100
143744,note_off,,,,,128,0,8,,,,,,4,,66,0
143744,note_off,,,,,128,0,3,,,,,,0,,72,0
143808,note_on,,,,,676,0,6,,,,,,3,,50,100
143808,note_on,,,,,64,0,3,,,,,,0,,81,100
143808,note_on,,,,,64,0,8,,,,,,4,,81,100
143808,note_on,,,,,676,0,5,,,,,,2,,66,100
143808,note_on,,,,,0,0,9,,,,,,4,,66,100
143808,note_on,,,,,676,0,7,,,,,,3,,38,100
143808,note_on,,,,,788,0,9,,,,,,4,,62,100
143808,note_on,,,,,676,0,4,,,,,,1,,72,100
143892,note_off,,,,,84,0,3,,,,,,0,,81,0
143892,note_off,,,,,84,0,8,,,,,,4,,81,0
143904,note_on,,,,,12,0,3,,,,,,0,,79,100
143904,note_on,,,,,12,0,8,,,,,,4,,79,100
143980,note_off,,,,,0,0,9,,,,,,4,,66,0
143980,note_off,,,,,172,0,4,,,,,,1,,72,0
143980,note_off,,,,,172,0,7,,,,,,3,,38,0
143980,note_off,,,,,172,0,6,,,,,,3,,50,0
143980,note_off,,,,,172,0,5,,,,,,2,,66,0
143980,note_off,,,,,172,0,9,,,,,,4,,62,0
143988,note_off,,,,,84,0,8,,,,,,4,,79,0
143988,note_off,,,,,84,0,3,,,,,,0,,79,0
144000,note_on,,,,,0,0,9,,,,,,4,,67,100
144000,note_on,,,,,20,0,9,,,,,,4,,64,100
144000,note_on,,,,,20,0,7,,,,,,3,,40,100
144000,note_on,,,,,20,0,4,,,,,,1,,70,100
144000,note_on,,,,,12,0,3,,,,,,0,,78,100
144000,note_on,,,,,20,0,6,,,,,,3,,52,100
144000,note_on,,,,,20,0,5,,,,,,2,,67,100
144000,note_on,,,,,12,0,8,,,,,,4,,78,100
144084,note_off,,,,,84,0,3,,,,,,0,,78,0
144084,note_off,,,,,84,0,8,,,,,,4,,78,0
144096,note_on,,,,,12,0,3,,,,,,0,,76,100
144096,note_on,,,,,12,0,8,,,,,,4,,76,100
144172,note_off,,,,,172,0,6,,,,,,3,,52,0
144172,note_off,,,,,172,0,7,,,,,,3,,40,0
144172,note_off,,,,,172,0,4,,,,,,1,,70,0
144172,note_off,,,,,172,0,9,,,,,,4,,64,0
144172,note_off,,,,,172,0,5,,,,,,2,,67,0
144172,note_off,,,,,0,0,9,,,,,,4,,67,0
144180,note_off,,,,,84,0,3,,,,,,0,,76,0
144180,note_off,,,,,84,0,8,,,,,,4,,76,0
144192,note_on,,,,,12,0,3,,,,,,0,,74,100
144192,note_on,,,,,20,0,6,,,,,,3,,54,100
144192,note_on,,,,,20,0,4,,,,,,1,,69,100
144192,note_on,,,,,20,0,7,,,,,,3,,42,100
144192,note_on,,,,,12,0,8,,,,,,4,,74,100
144192,note_on,,,,,20,0,9,,,,,,4,,66,100
144192,note_on,,,,,20,0,5,,,,,,2,,69,100
144192,note_on,,,,,0,0,9,,,,,,4,,69,100
144276,note_off,,,,,84,0,8,,,,,,4,,74,0
144276,note_off,,,,,84,0,3,,,,,,0,,74,0
144288,note_on,,,,,12,0,8,,,,,,4,,72,100
144288,note_on,,,,,12,0,3,,,,,,0,,72,100
144364,note_off,,,,,172,0,4,,,,,,1,,69,0
144364,note_off,,,,,172,0,7,,,,,,3,,42,0
144364,note_off,,,,,172,0,5,,,,,,2,,69,0
144364,note_off,,,,,0,0,9,,,,,,4,,69,0
144364,note_off,,,,,172,0,6,,,,,,3,,54,0
144364,note_off,,,,,172,0,9,,,,,,4,,66,0
144372,note_off,,,,,84,0,3,,,,,,0,,72,0
144372,note_off,,,,,84,0,8,,,,,,4,,72,0
144384,note_on,,,,,20,0,5,,,,,,2,,62,100
144384,note_on,,,,,20,0,4,,,,,,1,,67,100
144384,note_on,,,,,12,0,3,,,,,,0,,70,100
144384,note_on,,,,,20,0,7,,,,,,3,,43,100
144384,note_on,,,,,20,0,9,,,,,,4,,67,100
144384,note_on,,,,,0,0,9,,,,,,4,,55,100
144384,note_on,,,,,12,0,8,,,,,,4,,70,100
144384,note_on,,,,,20,0,6,,,,,,3,,55,100
144448,note_off,,,,,64,0,9,,,,,,4,,67,0
144480,note_on,,,,,32,0,9,,,,,,4,,66,100
144512,note_off,,,,,128,0,7,,,,,,3,,43,0
144512,note_off,,,,,128,0,8,,,,,,4,,70,0
144512,note_off,,,,,32,0,9,,,,,,4,,55,0
144512,note_off,,,,,128,0,6,,,,,,3,,55,0
144544,note_off,,,,,32,0,9,,,,,,4,,66,0
144576,note_on,,,,,64,0,6,,,,,,3,,54,85
144576,note_on,,,,,64,0,7,,,,,,3,,42,85
144576,note_on,,,,,32,0,9,,,,,,4,,67,100
144640,note_off,,,,,256,0,5,,,,,,2,,62,0
144640,note_off,,,,,64,0,9,,,,,,4,,67,0
144640,note_off,,,,,256,0,4,,,,,,1,,67,0
144640,note_off,,,,,256,0,3,,,,,,0,,70,0
144672,note_on,,,,,160,0,8,,,,,,4,,69,100
144736,note_off,,,,,64,0,8,,,,,,4,,69,0
144748,note_off,,,,,172,0,7,,,,,,3,,42,0
144748,note_off,,,,,172,0,6,,,,,,3,,54,0
144768,note_on,,,,,32,0,8,,,,,,4,,70,100
144768,note_on,,,,,20,0,6,,,,,,3,,55,85
144768,note_on,,,,,20,0,7,,,,,,3,,43,85
144832,note_off,,,,,64,0,8,,,,,,4,,70,0
144864,note_on,,,,,32,0,8,,,,,,4,,74,100
144928,note_off,,,,,64,0,8,,,,,,4,,74,0
144940,note_off,,,,,172,0,7,,,,,,3,,43,0
144940,note_off,,,,,172,0,6,,,,,,3,,55,0
144960,note_on,,,,,20,0,7,,,,,,3,,45,85
144960,note_on,,,,,32,0,8,,,,,,4,,78,100
144960,note_on,,,,,20,0,6,,,,,,3,,57,85
145024,note_off,,,,,64,0,8,,,,,,4,,78,0
145056,note_on,,,,,32,0,8,,,,,,4,,79,100
145120,note_off,,,,,64,0,8,,,,,,4,,79,0
145132,note_off,,,,,172,0,7,,,,,,3,,45,0
145132,note_off,,,,,172,0,6,,,,,,3,,57,0
145152,note_on,,,,,32,0,8,,,,,,4,,70,100
145152,note_on,,,,,512,0,9,,,,,,4,,67,100
145152,note_on,,,,,0,0,9,,,,,,4,,55,100
145152,note_on,,,,,20,0,6,,,,,,3,,58,85
145152,note_on,,,,,20,0,7,,,,,,3,,46,85
145216,note_off,,,,,64,0,9,,,,,,4,,67,0
145248,note_on,,,,,32,0,9,,,,,,4,,66,100
145280,note_off,,,,,32,0,9,,,,,,4,,55,0
145280,note_off,,,,,128,0,8,,,,,,4,,70,0
145312,note_off,,,,,32,0,9,,,,,,4,,66,0
145324,note_off,,,,,172,0,7,,,,,,3,,46,0
145324,note_off,,,,,172,0,6,,,,,,3,,58,0
145344,note_on,,,,,20,0,7,,,,,,3,,50,85
145344,note_on,,,,,704,0,4,,,,,,1,,70,85
145344,note_on,,,,,704,0,3,,,,,,0,,74,85
145344,note_on,,,,,704,0,5,,,,,,2,,70,85
145344,note_on,,,,,32,0,9,,,,,,4,,67,100
145344,note_on,,,,,20,0,6,,,,,,3,,62,85
145408,note_off,,,,,64,0,9,,,,,,4,,67,0
145440,note_on,,,,,160,0,8,,,,,,4,,69,100
145472,note_off,,,,,128,0,7,,,,,,3,,50,0
145472,note_off,,,,,128,0,5,,,,,,2,,70,0
145472,note_off,,,,,128,0,4,,,,,,1,,70,0
145472,note_off,,,,,128,0,6,,,,,,3,,62,0
145472,note_off,,,,,128,0,3,,,,,,0,,74,0
145504,note_off,,,,,64,0,8,,,,,,4,,69,0
145536,note_on,,,,,32,0,8,,,,,,4,,70,100
145536,note_on,,,,,64,0,5,,,,,,2,,67,85
145536,note_on,,,,,64,0,3,,,,,,0,,79,85
145536,note_on,,,,,64,0,7,,,,,,3,,46,85
145536,note_on,,,,,64,0,6,,,,,,3,,58,85
145536,note_on,,,,,64,0,4,,,,,,1,,74,85
145600,note_off,,,,,64,0,8,,,,,,4,,70,0
145632,note_on,,,,,32,0,8,,,,,,4,,74,100
145664,note_off,,,,,128,0,5,,,,,,2,,67,0
145664,note_off,,,,,128,0,3,,,,,,0,,79,0
145664,note_off,,,,,128,0,7,,,,,,3,,46,0
145664,note_off,,,,,128,0,4,,,,,,1,,74,0
145664,note_off,,,,,128,0,6,,,,,,3,,58,0
145696,note_off,,,,,64,0,8,,,,,,4,,74,0
145728,note_on,,,,,64,0,6,,,,,,3,,55,85
145728,note_on,,,,,64,0,3,,,,,,0,,82,85
145728,note_on,,,,,64,0,7,,,,,,3,,43,85
145728,note_on,,,,,64,0,4,,,,,,1,,70,85
145728,note_on,,,,,32,0,8,,,,,,4,,78,100
145728,note_on,,,,,64,0,5,,,,,,2,,62,85
145792,note_off,,,,,64,0,8,,,,,,4,,78,0
145824,note_on,,,,,32,0,8,,,,,,4,,79,100
145856,note_off,,,,,128,0,3,,,,,,0,,82,0
145856,note_off,,,,,128,0,5,,,,,,2,,62,0
145856,note_off,,,,,128,0,7,,,,,,3,,43,0
145856,note_off,,,,,128,0,4,,,,,,1,,70,0
145856,note_off,,,,,128,0,6,,,,,,3,,55,0
145888,note_off,,,,,64,0,8,,,,,,4,,79,0
145920,note_on,,,,,64,0,5,,,,,,2,,69,85
145920,note_on,,,,,512,0,9,,,,,,4,,67,100
145920,note_on,,,,,0,0,9,,,,,,4,,57,100
145920,note_on,,,,,64,0,3,,,,,,0,,72,85
145920,note_on,,,,,64,0,4,,,,,,1,,63,85
145920,note_on,,,,,64,0,7,,,,,,3,,45,85
145920,note_on,,,,,32,0,8,,,,,,4,,72,100
145920,note_on,,,,,64,0,6,,,,,,3,,57,85
146012,note_off,,,,,92,0,8,,,,,,4,,72,0
146016,note_on,,,,,4,0,8,,,,,,4,,70,100
146048,note_off,,,,,128,0,6,,,,,,3,,57,0
146048,note_off,,,,,128,0,7,,,,,,3,,45,0
146108,note_off,,,,,0,0,9,,,,,,4,,57,0
146108,note_off,,,,,188,0,9,,,,,,4,,67,0
146108,note_off,,,,,92,0,8,,,,,,4,,70,0
146112,note_on,,,,,64,0,7,,,,,,3,,43,85
146112,note_on,,,,,64,0,6,,,,,,3,,55,85
146112,note_on,,,,,4,0,8,,,,,,4,,72,100
146176,note_off,,,,,256,0,5,,,,,,2,,69,0
146176,note_off,,,,,256,0,4,,,,,,1,,63,0
146176,note_off,,,,,256,0,3,,,,,,0,,72,0
146204,note_off,,,,,92,0,8,,,,,,4,,72,0
146208,note_on,,,,,4,0,8,,,,,,4,,74,100
146240,note_off,,,,,128,0,7,,,,,,3,,43,0
146240,note_off,,,,,128,0,6,,,,,,3,,55,0
146300,note_off,,,,,92,0,8,,,,,,4,,74,0
146304,note_on,,,,,4,0,8,,,,,,4,,75,100
146304,note_on,,,,,64,0,6,,,,,,3,,57,85
146304,note_on,,,,,64,0,7,,,,,,3,,45,85
146396,note_off,,,,,92,0,8,,,,,,4,,75,0
146400,note_on,,,,,4,0,8,,,,,,4,,78,100
146432,note_off,,,,,128,0,6,,,,,,3,,57,0
146432,note_off,,,,,128,0,7,,,,,,3,,45,0
146492,note_off,,,,,92,0,8,,,,,,4,,78,0
146496,note_on,,,,,64,0,6,,,,,,3,,58,85
146496,note_on,,,,,4,0,8,,,,,,4,,79,100
146496,note_on,,,,,64,0,7,,,,,,3,,46,85
146588,note_off,,,,,92,0,8,,,,,,4,,79,0
146592,note_on,,,,,4,0,8,,,,,,4,,81,100
146624,note_off,,,,,128,0,7,,,,,,3,,46,0
146624,note_off,,,,,128,0,6,,,,,,3,,58,0
146684,note_off,,,,,92,0,8,,,,,,4,,81,0
146688,note_on,,,,,0,0,9,,,,,,4,,57,100
146688,note_on,,,,,64,0,7,,,,,,3,,48,85
146688,note_on,,,,,580,0,9,,,,,,4,,67,100
146688,note_on,,,,,64,0,6,,,,,,3,,60,85
146688,note_on,,,,,4,0,8,,,,,,4,,72,100
146780,note_off,,,,,92,0,8,,,,,,4,,72,0
146784,note_on,,,,,4,0,8,,,,,,4,,70,100
146816,note_off,,,,,128,0,7,,,,,,3,,48,0
146816,note_off,,,,,128,0,6,,,,,,3,,60,0
146876,note_off,,,,,0,0,9,,,,,,4,,57,0
146876,note_off,,,,,92,0,8,,,,,,4,,70,0
146876,note_off,,,,,188,0,9,,,,,,4,,67,0
146880,note_on,,,,,4,0,8,,,,,,4,,72,100
146880,note_on,,,,,704,0,5,,,,,,2,,72,85
146880,note_on,,,,,704,0,3,,,,,,0,,75,85
146880,note_on,,,,,64,0,6,,,,,,3,,63,85
146880,note_on,,,,,64,0,7,,,,,,3,,51,85
146880,note_on,,,,,704,0,4,,,,,,1,,72,85
146972,note_off,,,,,92,0,8,,,,,,4,,72,0
146976,note_on,,,,,4,0,8,,,,,,4,,74,100
147008,note_off,,,,,128,0,6,,,,,,3,,63,0
147008,note_off,,,,,128,0,7,,,,,,3,,51,0
147008,note_off,,,,,128,0,4,,,,,,1,,72,0
147008,note_off,,,,,128,0,5,,,,,,2,,72,0
147008,note_off,,,,,128,0,3,,,,,,0,,75,0
147068,note_off,,,,,92,0,8,,,,,,4,,74,0
147072,note_on,,,,,64,0,3,,,,,,0,,81,85
147072,note_on,,,,,64,0,4,,,,,,1,,75,85
147072,note_on,,,,,64,0,7,,,,,,3,,48,85
147072,note_on,,,,,64,0,6,,,,,,3,,60,85
147072,note_on,,,,,64,0,5,,,,,,2,,69,85
147072,note_on,,,,,4,0,8,,,,,,4,,75,100
147164,note_off,,,,,92,0,8,,,,,,4,,75,0
147168,note_on,,,,,4,0,8,,,,,,4,,78,100
147200,note_off,,,,,128,0,7,,,,,,3,,48,0
147200,note_off,,,,,128,0,3,,,,,,0,,81,0
147200,note_off,,,,,128,0,5,,,,,,2,,69,0
147200,note_off,,,,,128,0,6,,,,,,3,,60,0
147200,note_off,,,,,128,0,4,,,,,,1,,75,0
147260,note_off,,,,,92,0,8,,,,,,4,,78,0
147264,note_on,,,,,64,0,5,,,,,,2,,60,85
147264,note_on,,,,,4,0,8,,,,,,4,,79,100
147264,note_on,,,,,64,0,3,,,,,,0,,84,85
147264,note_on,,,,,64,0,4,,,,,,1,,72,85
147264,note_on,,,,,64,0,7,,,,,,3,,45,85
147264,note_on,,,,,64,0,6,,,,,,3,,57,85
147356,note_off,,,,,92,0,8,,,,,,4,,79,0
147360,note_on,,,,,4,0,8,,,,,,4,,81,100
147392,note_off,,,,,128,0,7,,,,,,3,,45,0
147392,note_off,,,,,128,0,6,,,,,,3,,57,0
147392,note_off,,,,,128,0,3,,,,,,0,,84,0
147392,note_off,,,,,128,0,5,,,,,,2,,60,0
147392,note_off,,,,,128,0,4,,,,,,1,,72,0
147452,note_off,,,,,92,0,8,,,,,,4,,81,0
147456,note_on,,,,,4,0,8,,,,,,4,,74,100
147456,note_on,,,,,64,0,7,,,,,,3,,46,85
147456,note_on,,,,,64,0,4,,,,,,1,,70,85
147456,note_on,,,,,0,0,9,,,,,,4,,67,100
147456,note_on,,,,,64,0,5,,,,,,2,,67,85
147456,note_on,,,,,64,0,3,,,,,,0,,74,85
147456,note_on,,,,,580,0,9,,,,,,4,,58,100
147456,note_on,,,,,64,0,6,,,,,,3,,58,85
147548,note_off,,,,,92,0,8,,,,,,4,,74,0
147552,note_on,,,,,4,0,8,,,,,,4,,72,100
147584,note_off,,,,,128,0,7,,,,,,3,,46,0
147584,note_off,,,,,128,0,6,,,,,,3,,58,0
147644,note_off,,,,,188,0,9,,,,,,4,,58,0
147644,note_off,,,,,92,0,8,,,,,,4,,72,0
147644,note_off,,,,,0,0,9,,,,,,4,,67,0
147648,note_on,,,,,64,0,6,,,,,,3,,60,85
147648,note_on,,,,,64,0,7,,,,,,3,,48,85
147648,note_on,,,,,4,0,8,,,,,,4,,74,100
147712,note_off,,,,,256,0,4,,,,,,1,,70,0
147712,note_off,,,,,256,0,5,,,,,,2,,67,0
147712,note_off,,,,,256,0,3,,,,,,0,,74,0
147740,note_off,,,,,92,0,8,,,,,,4,,74,0
147744,note_on,,,,,4,0,8,,,,,,4,,78,100
147776,note_off,,,,,128,0,7,,,,,,3,,48,0
147776,note_off,,,,,128,0,6,,,,,,3,,60,0
147836,note_off,,,,,92,0,8,,,,,,4,,78,0
147840,note_on,,,,,64,0,7,,,,,,3,,46,85
147840,note_on,,,,,64,0,6,,,,,,3,,58,85
147840,note_on,,,,,4,0,8,,,,,,4,,79,100
147932,note_off,,,,,92,0,8,,,,,,4,,79,0
147936,note_on,,,,,4,0,8,,,,,,4,,81,100
147968,note_off,,,,,128,0,6,,,,,,3,,58,0
147968,note_off,,,,,128,0,7,,,,,,3,,46,0
148028,note_off,,,,,92,0,8,,,,,,4,,81,0
148032,note_on,,,,,4,0,8,,,,,,4,,82,100
148032,note_on,,,,,64,0,6,,,,,,3,,57,85
148032,note_on,,,,,64,0,7,,,,,,3,,45,85
148124,note_off,,,,,92,0,8,,,,,,4,,82,0
148128,note_on,,,,,4,0,8,,,,,,4,,79,100
148160,note_off,,,,,128,0,6,,,,,,3,,57,0
148160,note_off,,,,,128,0,7,,,,,,3,,45,0
148220,note_off,,,,,92,0,8,,,,,,4,,79,0
148224,note_on,,,,,4,0,8,,,,,,4,,74,100
148224,note_on,,,,,0,0,9,,,,,,4,,67,100
148224,note_on,,,,,64,0,6,,,,,,3,,55,85
148224,note_on,,,,,580,0,9,,,,,,4,,58,100
148224,note_on,,,,,64,0,7,,,,,,3,,43,85
148316,note_off,,,,,92,0,8,,,,,,4,,74,0
148320,note_on,,,,,4,0,8,,,,,,4,,72,100
148352,note_off,,,,,128,0,6,,,,,,3,,55,0
148352,note_off,,,,,128,0,7,,,,,,3,,43,0
148412,note_off,,,,,92,0,8,,,,,,4,,72,0
148412,note_off,,,,,188,0,9,,,,,,4,,58,0
148412,note_off,,,,,0,0,9,,,,,,4,,67,0
148416,note_on,,,,,64,0,7,,,,,,3,,46,85
148416,note_on,,,,,4,0,8,,,,,,4,,74,100
148416,note_on,,,,,64,0,6,,,,,,3,,58,85
148416,note_on,,,,,704,0,5,,,,,,2,,58,85
148416,note_on,,,,,704,0,4,,,,,,1,,67,85
148416,note_on,,,,,704,0,3,,,,,,0,,74,85
148508,note_off,,,,,92,0,8,,,,,,4,,74,0
148512,note_on,,,,,4,0,8,,,,,,4,,78,100
148544,note_off,,,,,128,0,5,,,,,,2,,58,0
148544,note_off,,,,,128,0,4,,,,,,1,,67,0
148544,note_off,,,,,128,0,6,,,,,,3,,58,0
148544,note_off,,,,,128,0,3,,,,,,0,,74,0
148544,note_off,,,,,128,0,7,,,,,,3,,46,0
148604,note_off,,,,,92,0,8,,,,,,4,,78,0
148608,note_on,,,,,64,0,3,,,,,,0,,70,85
148608,note_on,,,,,64,0,4,,,,,,1,,62,85
148608,note_on,,,,,64,0,6,,,,,,3,,55,85
148608,note_on,,,,,64,0,5,,,,,,2,,62,85
148608,note_on,,,,,64,0,7,,,,,,3,,43,85
148608,note_on,,,,,4,0,8,,,,,,4,,79,100
148700,note_off,,,,,92,0,8,,,,,,4,,79,0
148704,note_on,,,,,4,0,8,,,,,,4,,81,100
148736,note_off,,,,,128,0,6,,,,,,3,,55,0
148736,note_off,,,,,128,0,7,,,,,,3,,43,0
148736,note_off,,,,,128,0,5,,,,,,2,,62,0
148736,note_off,,,,,128,0,3,,,,,,0,,70,0
148736,note_off,,,,,128,0,4,,,,,,1,,62,0
148796,note_off,,,,,92,0,8,,,,,,4,,81,0
148800,note_on,,,,,4,0,8,,,,,,4,,82,100
148800,note_on,,,,,64,0,3,,,,,,0,,67,85
148800,note_on,,,,,64,0,6,,,,,,3,,51,85
148800,note_on,,,,,64,0,5,,,,,,2,,67,85
148800,note_on,,,,,64,0,7,,,,,,3,,39,85
148800,note_on,,,,,64,0,4,,,,,,1,,70,85
148892,note_off,,,,,92,0,8,,,,,,4,,82,0
148896,note_on,,,,,4,0,8,,,,,,4,,79,100
148928,note_off,,,,,128,0,7,,,,,,3,,39,0
148928,note_off,,,,,128,0,3,,,,,,0,,67,0
148928,note_off,,,,,128,0,6,,,,,,3,,51,0
148928,note_off,,,,,128,0,4,,,,,,1,,70,0
148928,note_off,,,,,128,0,5,,,,,,2,,67,0
148988,note_off,,,,,92,0,8,,,,,,4,,79,0
148992,note_on,,,,,64,0,5,,,,,,2,,67,85
148992,note_on,,,,,64,0,7,,,,,,3,,36,85
148992,note_on,,,,,64,0,4,,,,,,1,,72,85
148992,note_on,,,,,580,0,9,,,,,,4,,67,100
148992,note_on,,,,,0,0,9,,,,,,4,,60,100
148992,note_on,,,,,64,0,6,,,,,,3,,48,85
148992,note_on,,,,,64,0,3,,,,,,0,,75,85
148992,note_on,,,,,4,0,8,,,,,,4,,75,100
149084,note_off,,,,,0,0,9,,,,,,4,,60,0
149084,note_off,,,,,92,0,9,,,,,,4,,67,0
149088,note_on,,,,,4,0,9,,,,,,4,,66,100
149120,note_off,,,,,128,0,6,,,,,,3,,48,0
149120,note_off,,,,,128,0,7,,,,,,3,,36,0
149180,note_off,,,,,188,0,8,,,,,,4,,75,0
149180,note_off,,,,,92,0,9,,,,,,4,,66,0
149184,note_on,,,,,64,0,6,,,,,,3,,55,85
149184,note_on,,,,,4,0,9,,,,,,4,,67,100
149184,note_on,,,,,64,0,7,,,,,,3,,43,85
149248,note_off,,,,,256,0,5,,,,,,2,,67,0
149248,note_off,,,,,256,0,3,,,,,,0,,75,0
149248,note_off,,,,,256,0,4,,,,,,1,,72,0
149276,note_off,,,,,92,0,9,,,,,,4,,67,0
149280,note_on,,,,,100,0,8,,,,,,4,,69,100
149312,note_off,,,,,128,0,7,,,,,,3,,43,0
149312,note_off,,,,,128,0,6,,,,,,3,,55,0
149372,note_off,,,,,92,0,8,,,,,,4,,69,0
149376,note_on,,,,,4,0,8,,,,,,4,,70,100
149376,note_on,,,,,64,0,7,,,,,,3,,39,85
149376,note_on,,,,,64,0,6,,,,,,3,,51,85
149468,note_off,,,,,92,0,8,,,,,,4,,70,0
149472,note_on,,,,,4,0,8,,,,,,4,,72,100
149504,note_off,,,,,128,0,7,,,,,,3,,39,0
149504,note_off,,,,,128,0,6,,,,,,3,,51,0
149564,note_off,,,,,92,0,8,,,,,,4,,72,0
149568,note_on,,,,,64,0,6,,,,,,3,,50,85
149568,note_on,,,,,64,0,7,,,,,,3,,38,85
149568,note_on,,,,,4,0,8,,,,,,4,,74,100
149660,note_off,,,,,92,0,8,,,,,,4,,74,0
149664,note_on,,,,,4,0,8,,,,,,4,,75,100
149696,note_off,,,,,128,0,7,,,,,,3,,38,0
149696,note_off,,,,,128,0,6,,,,,,3,,50,0
149756,note_off,,,,,92,0,8,,,,,,4,,75,0
149760,note_on,,,,,64,0,7,,,,,,3,,36,85
149760,note_on,,,,,64,0,6,,,,,,3,,48,85
149760,note_on,,,,,0,0,9,,,,,,4,,60,100
149760,note_on,,,,,4,0,8,,,,,,4,,75,100
149760,note_on,,,,,484,0,9,,,,,,4,,67,100
149852,note_off,,,,,0,0,9,,,,,,4,,60,0
149852,note_off,,,,,92,0,9,,,,,,4,,67,0
149856,note_on,,,,,4,0,9,,,,,,4,,66,100
149888,note_off,,,,,128,0,6,,,,,,3,,48,0
149888,note_off,,,,,128,0,7,,,,,,3,,36,0
149948,note_off,,,,,188,0,8,,,,,,4,,75,0
149948,note_off,,,,,92,0,9,,,,,,4,,66,0
149952,note_on,,,,,704,0,3,,,,,,0,,75,85
149952,note_on,,,,,704,0,4,,,,,,1,,72,85
149952,note_on,,,,,704,0,5,,,,,,2,,63,85
149952,note_on,,,,,64,0,7,,,,,,3,,31,85
149952,note_on,,,,,4,0,9,,,,,,4,,67,100
149952,note_on,,,,,64,0,6,,,,,,3,,43,85
150044,note_off,,,,,92,0,9,,,,,,4,,67,0
150048,note_on,,,,,100,0,8,,,,,,4,,69,100
150080,note_off,,,,,128,0,4,,,,,,1,,72,0
150080,note_off,,,,,128,0,5,,,,,,2,,63,0
150080,note_off,,,,,128,0,3,,,,,,0,,75,0
150080,note_off,,,,,128,0,6,,,,,,3,,43,0
150080,note_off,,,,,128,0,7,,,,,,3,,31,0
150140,note_off,,,,,92,0,8,,,,,,4,,69,0
150144,note_on,,,,,4,0,8,,,,,,4,,70,100
150144,note_on,,,,,64,0,4,,,,,,1,,67,85
150144,note_on,,,,,64,0,5,,,,,,2,,67,85
150144,note_on,,,,,64,0,3,,,,,,0,,72,85
150144,note_on,,,,,64,0,7,,,,,,3,,27,85
150144,note_on,,,,,64,0,6,,,,,,3,,39,85
150236,note_off,,,,,92,0,8,,,,,,4,,70,0
150240,note_on,,,,,4,0,8,,,,,,4,,72,100
150272,note_off,,,,,128,0,3,,,,,,0,,72,0
150272,note_off,,,,,128,0,6,,,,,,3,,39,0
150272,note_off,,,,,128,0,4,,,,,,1,,67,0
150272,note_off,,,,,128,0,5,,,,,,2,,67,0
150272,note_off,,,,,128,0,7,,,,,,3,,27,0
150332,note_off,,,,,92,0,8,,,,,,4,,72,0
150336,note_on,,,,,64,0,3,,,,,,0,,69,85
150336,note_on,,,,,64,0,7,,,,,,3,,24,85
150336,note_on,,,,,64,0,6,,,,,,3,,36,85
150336,note_on,,,,,4,0,8,,,,,,4,,74,100
150336,note_on,,,,,64,0,4,,,,,,1,,63,85
150336,note_on,,,,,64,0,5,,,,,,2,,72,85
150428,note_off,,,,,92,0,8,,,,,,4,,74,0
150432,note_on,,,,,4,0,8,,,,,,4,,75,100
150464,note_off,,,,,128,0,5,,,,,,2,,72,0
150464,note_off,,,,,128,0,6,,,,,,3,,36,0
150464,note_off,,,,,128,0,7,,,,,,3,,24,0
150464,note_off,,,,,128,0,4,,,,,,1,,63,0
150464,note_off,,,,,128,0,3,,,,,,0,,69,0
150524,note_off,,,,,92,0,8,,,,,,4,,75,0
150528,note_on,,,,,484,0,9,,,,,,4,,60,100
150528,note_on,,,,,64,0,7,,,,,,3,,36,85
150528,note_on,,,,,4,0,8,,,,,,4,,74,100
150528,note_on,,,,,64,0,3,,,,,,0,,66,85
150528,note_on,,,,,64,0,5,,,,,,2,,74,85
150528,note_on,,,,,64,0,6,,,,,,3,,48,85
150528,note_on,,,,,64,0,4,,,,,,1,,57,85
150528,note_on,,,,,0,0,9,,,,,,4,,66,100
150620,note_off,,,,,0,0,9,,,,,,4,,66,0
150620,note_off,,,,,92,0,9,,,,,,4,,60,0
150624,note_on,,,,,4,0,9,,,,,,4,,64,100
150716,note_off,,,,,92,0,9,,,,,,4,,64,0
150716,note_off,,,,,188,0,8,,,,,,4,,74,0
150716,note_off,,,,,188,0,4,,,,,,1,,57,0
150720,note_on,,,,,4,0,9,,,,,,4,,66,100
150720,note_on,,,,,4,0,4,,,,,,1,,62,85
150812,note_off,,,,,92,0,9,,,,,,4,,66,0
150816,note_on,,,,,100,0,8,,,,,,4,,69,100
150908,note_off,,,,,380,0,6,,,,,,3,,48,0
150908,note_off,,,,,380,0,7,,,,,,3,,36,0
150908,note_off,,,,,92,0,8,,,,,,4,,69,0
150908,note_off,,,,,380,0,5,,,,,,2,,74,0
150908,note_off,,,,,188,0,4,,,,,,1,,62,0
150908,note_off,,,,,380,0,3,,,,,,0,,66,0
150912,note_on,,,,,4,0,4,,,,,,1,,66,85
150912,note_on,,,,,4,0,8,,,,,,4,,74,100
151004,note_off,,,,,92,0,8,,,,,,4,,74,0
151008,note_on,,,,,4,0,8,,,,,,4,,69,100
151100,note_off,,,,,92,0,8,,,,,,4,,69,0
151100,note_off,,,,,188,0,4,,,,,,1,,66,0
151104,note_on,,,,,4,0,8,,,,,,4,,66,100
151104,note_on,,,,,4,0,4,,,,,,1,,69,85
151196,note_off,,,,,92,0,8,,,,,,4,,66,0
151200,note_on,,,,,4,0,8,,,,,,4,,62,100
151292,note_off,,,,,188,0,4,,,,,,1,,69,0
151292,note_off,,,,,92,0,8,,,,,,4,,62,0
151296,note_on,,,,,4,0,8,,,,,,4,,74,100
151296,note_on,,,,,388,0,7,,,,,,3,,36,85
151296,note_on,,,,,484,0,9,,,,,,4,,60,100
151296,note_on,,,,,0,0,9,,,,,,4,,66,100
151296,note_on,,,,,388,0,6,,,,,,3,,48,85
151296,note_on,,,,,4,0,4,,,,,,1,,74,85
151296,note_on,,,,,388,0,5,,,,,,2,,69,85
151388,note_off,,,,,92,0,9,,,,,,4,,60,0
151388,note_off,,,,,0,0,9,,,,,,4,,66,0
151392,note_on,,,,,4,0,9,,,,,,4,,64,100
151484,note_off,,,,,188,0,8,,,,,,4,,74,0
151484,note_off,,,,,92,0,9,,,,,,4,,64,0
151488,note_on,,,,,580,0,3,,,,,,0,,62,85
151488,note_on,,,,,4,0,9,,,,,,4,,66,100
151580,note_off,,,,,92,0,9,,,,,,4,,66,0
151584,note_on,,,,,100,0,8,,,,,,4,,69,100
151676,note_off,,,,,92,0,8,,,,,,4,,69,0
151676,note_off,,,,,380,0,4,,,,,,1,,74,0
151676,note_off,,,,,188,0,3,,,,,,0,,62,0
151676,note_off,,,,,380,0,5,,,,,,2,,69,0
151676,note_off,,,,,380,0,7,,,,,,3,,36,0
151676,note_off,,,,,380,0,6,,,,,,3,,48,0
151680,note_on,,,,,4,0,8,,,,,,4,,74,100
151680,note_on,,,,,4,0,3,,,,,,0,,66,85
151772,note_off,,,,,92,0,8,,,,,,4,,74,0
151776,note_on,,,,,4,0,8,,,,,,4,,69,100
151868,note_off,,,,,188,0,3,,,,,,0,,66,0
151868,note_off,,,,,92,0,8,,,,,,4,,69,0
151872,note_on,,,,,4,0,3,,,,,,0,,69,85
151872,note_on,,,,,4,0,8,,,,,,4,,66,100
151964,note_off,,,,,92,0,8,,,,,,4,,66,0
151968,note_on,,,,,4,0,8,,,,,,4,,62,100
152060,note_off,,,,,92,0,8,,,,,,4,,62,0
152060,note_off,,,,,188,0,3,,,,,,0,,69,0
152064,note_on,,,,,0,0,9,,,,,,4,,66,100
152064,note_on,,,,,484,0,9,,,,,,4,,61,100
152064,note_on,,,,,388,0,6,,,,,,3,,49,85
152064,note_on,,,,,4,0,8,,,,,,4,,70,100
152064,note_on,,,,,4,0,3,,,,,,0,,76,85
152064,note_on,,,,,388,0,5,,,,,,2,,67,85
152064,note_on,,,,,388,0,7,,,,,,3,,37,85
152156,note_off,,,,,0,0,9,,,,,,4,,66,0
152156,note_off,,,,,92,0,9,,,,,,4,,61,0
152156,note_off,,,,,92,0,8,,,,,,4,,70,0
152160,note_on,,,,,4,0,8,,,,,,4,,69,100
152160,note_on,,,,,4,0,9,,,,,,4,,64,100
152252,note_off,,,,,92,0,9,,,,,,4,,64,0
152252,note_off,,,,,92,0,8,,,,,,4,,69,0
152256,note_on,,,,,580,0,4,,,,,,1,,70,85
152256,note_on,,,,,4,0,8,,,,,,4,,70,100
152256,note_on,,,,,4,0,9,,,,,,4,,66,100
152348,note_off,,,,,92,0,8,,,,,,4,,70,0
152348,note_off,,,,,92,0,9,,,,,,4,,66,0
152352,note_on,,,,,4,0,9,,,,,,4,,61,100
152444,note_off,,,,,380,0,3,,,,,,0,,76,0
152444,note_off,,,,,92,0,9,,,,,,4,,61,0
152444,note_off,,,,,380,0,5,,,,,,2,,67,0
152444,note_off,,,,,188,0,4,,,,,,1,,70,0
152444,note_off,,,,,380,0,7,,,,,,3,,37,0
152444,note_off,,,,,380,0,6,,,,,,3,,49,0
152448,note_on,,,,,4,0,4,,,,,,1,,67,85
152448,note_on,,,,,4,0,9,,,,,,4,,64,100
152540,note_off,,,,,92,0,9,,,,,,4,,64,0
152544,note_on,,,,,4,0,9,,,,,,4,,67,100
152636,note_off,,,,,92,0,9,,,,,,4,,67,0
152636,note_off,,,,,188,0,4,,,,,,1,,67,0
152640,note_on,,,,,292,0,8,,,,,,4,,70,100
152640,note_on,,,,,4,0,4,,,,,,1,,64,85
152732,note_off,,,,,92,0,8,,,,,,4,,70,0
152736,note_on,,,,,100,0,9,,,,,,4,,66,100
152736,note_on,,,,,4,0,8,,,,,,4,,69,100
152828,note_off,,,,,92,0,9,,,,,,4,,66,0
152828,note_off,,,,,92,0,8,,,,,,4,,69,0
152828,note_off,,,,,188,0,4,,,,,,1,,64,0
152832,note_on,,,,,4,0,9,,,,,,4,,61,100
152832,note_on,,,,,388,0,5,,,,,,2,,64,85
152832,note_on,,,,,0,0,9,,,,,,4,,66,100
152832,note_on,,,,,388,0,6,,,,,,3,,49,85
152832,note_on,,,,,388,0,7,,,,,,3,,37,85
152832,note_on,,,,,4,0,4,,,,,,1,,61,85
152832,note_on,,,,,4,0,8,,,,,,4,,70,100
152924,note_off,,,,,92,0,9,,,,,,4,,61,0
152924,note_off,,,,,92,0,8,,,,,,4,,70,0
152924,note_off,,,,,0,0,9,,,,,,4,,66,0
152928,note_on,,,,,4,0,8,,,,,,4,,69,100
152928,note_on,,,,,4,0,9,,,,,,4,,64,100
153020,note_off,,,,,92,0,9,,,,,,4,,64,0
153020,note_off,,,,,188,0,4,,,,,,1,,61,0
153020,note_off,,,,,92,0,8,,,,,,4,,69,0
153024,note_on,,,,,4,0,9,,,,,,4,,66,100
153024,note_on,,,,,4,0,8,,,,,,4,,70,100
153024,note_on,,,,,580,0,3,,,,,,0,,70,85
153116,note_off,,,,,92,0,8,,,,,,4,,70,0
153116,note_off,,,,,92,0,9,,,,,,4,,66,0
153120,note_on,,,,,4,0,9,,,,,,4,,61,100
153212,note_off,,,,,380,0,5,,,,,,2,,64,0
153212,note_off,,,,,92,0,9,,,,,,4,,61,0
153212,note_off,,,,,380,0,7,,,,,,3,,37,0
153212,note_off,,,,,188,0,3,,,,,,0,,70,0
153212,note_off,,,,,380,0,6,,,,,,3,,49,0
153216,note_on,,,,,4,0,3,,,,,,0,,67,85
153216,note_on,,,,,4,0,9,,,,,,4,,64,100
153308,note_off,,,,,92,0,9,,,,,,4,,64,0
153312,note_on,,,,,4,0,9,,,,,,4,,67,100
153404,note_off,,,,,92,0,9,,,,,,4,,67,0
153404,note_off,,,,,188,0,3,,,,,,0,,67,0
153408,note_on,,,,,292,0,8,,,,,,4,,70,100
153408,note_on,,,,,4,0,3,,,,,,0,,64,85
153452,note_off,,,,,44,0,8,,,,,,4,,70,0
153456,note_on,,,,,4,0,8,,,,,,4,,69,100
153500,note_off,,,,,44,0,8,,,,,,4,,69,0
153504,note_on,,,,,4,0,8,,,,,,4,,67,100
153596,note_off,,,,,188,0,3,,,,,,0,,64,0
153596,note_off,,,,,92,0,8,,,,,,4,,67,0
153600,note_on,,,,,4,0,8,,,,,,4,,72,100
153600,note_on,,,,,388,0,6,,,,,,3,,51,85
153600,note_on,,,,,4,0,3,,,,,,0,,57,85
153600,note_on,,,,,388,0,7,,,,,,3,,39,85
153600,note_on,,,,,196,0,9,,,,,,4,,66,100
153600,note_on,,,,,0,0,9,,,,,,4,,63,100
153600,note_on,,,,,388,0,5,,,,,,2,,60,85
153692,note_off,,,,,0,0,9,,,,,,4,,63,0
153692,note_off,,,,,92,0,9,,,,,,4,,66,0
153692,note_off,,,,,92,0,8,,,,,,4,,72,0
153696,note_on,,,,,4,0,8,,,,,,4,,70,100
153788,note_off,,,,,188,0,3,,,,,,0,,57,0
153788,note_off,,,,,92,0,8,,,,,,4,,70,0
153792,note_on,,,,,772,0,4,,,,,,1,,69,85
153792,note_on,,,,,4,0,8,,,,,,4,,72,100
153884,note_off,,,,,92,0,8,,,,,,4,,72,0
153888,note_on,,,,,196,0,9,,,,,,4,,57,100
153980,note_off,,,,,380,0,6,,,,,,3,,51,0
153980,note_off,,,,,188,0,4,,,,,,1,,69,0
153980,note_off,,,,,92,0,9,,,,,,4,,57,0
153980,note_off,,,,,380,0,7,,,,,,3,,39,0
153980,note_off,,,,,380,0,5,,,,,,2,,60,0
153984,note_on,,,,,4,0,4,,,,,,1,,66,85
153984,note_on,,,,,4,0,9,,,,,,4,,60,100
154076,note_off,,,,,92,0,9,,,,,,4,,60,0
154080,note_on,,,,,4,0,9,,,,,,4,,63,100
154172,note_off,,,,,188,0,4,,,,,,1,,66,0
154172,note_off,,,,,92,0,9,,,,,,4,,63,0
154176,note_on,,,,,292,0,8,,,,,,4,,66,100
154176,note_on,,,,,4,0,4,,,,,,1,,60,85
154268,note_off,,,,,92,0,8,,,,,,4,,66,0
154272,note_on,,,,,4,0,8,,,,,,4,,69,100
154364,note_off,,,,,92,0,8,,,,,,4,,69,0
154364,note_off,,,,,188,0,4,,,,,,1,,60,0
154368,note_on,,,,,388,0,7,,,,,,3,,39,85
154368,note_on,,,,,4,0,8,,,,,,4,,72,100
154368,note_on,,,,,388,0,5,,,,,,2,,63,85
154368,note_on,,,,,4,0,4,,,,,,1,,57,85
154368,note_on,,,,,388,0,6,,,,,,3,,51,85
154368,note_on,,,,,196,0,9,,,,,,4,,66,100
154368,note_on,,,,,0,0,9,,,,,,4,,63,100
154460,note_off,,,,,92,0,9,,,,,,4,,66,0
154460,note_off,,,,,0,0,9,,,,,,4,,63,0
154460,note_off,,,,,92,0,8,,,,,,4,,72,0
154464,note_on,,,,,4,0,8,,,,,,4,,70,100
154556,note_off,,,,,92,0,8,,,,,,4,,70,0
154556,note_off,,,,,188,0,4,,,,,,1,,57,0
154560,note_on,,,,,772,0,3,,,,,,0,,72,85
154560,note_on,,,,,4,0,8,,,,,,4,,72,100
154652,note_off,,,,,92,0,8,,,,,,4,,72,0
154656,note_on,,,,,196,0,9,,,,,,4,,57,100
154748,note_off,,,,,380,0,5,,,,,,2,,63,0
154748,note_off,,,,,380,0,6,,,,,,3,,51,0
154748,note_off,,,,,92,0,9,,,,,,4,,57,0
154748,note_off,,,,,380,0,7,,,,,,3,,39,0
154748,note_off,,,,,188,0,3,,,,,,0,,72,0
154752,note_on,,,,,4,0,9,,,,,,4,,60,100
154752,note_on,,,,,4,0,3,,,,,,0,,69,85
154844,note_off,,,,,92,0,9,,,,,,4,,60,0
154848,note_on,,,,,4,0,9,,,,,,4,,66,100
154940,note_off,,,,,188,0,3,,,,,,0,,69,0
154940,note_off,,,,,92,0,9,,,,,,4,,66,0
154944,note_on,,,,,4,0,3,,,,,,0,,66,85
154944,note_on,,,,,4,0,9,,,,,,4,,69,100
155036,note_off,,,,,92,0,9,,,,,,4,,69,0
155040,note_on,,,,,388,0,8,,,,,,4,,72,100
155132,note_off,,,,,92,0,8,,,,,,4,,72,0
155132,note_off,,,,,188,0,3,,,,,,0,,66,0
155136,note_on,,,,,4,0,3,,,,,,0,,62,85
155136,note_on,,,,,4,0,8,,,,,,4,,78,100
155136,note_on,,,,,388,0,7,,,,,,3,,38,85
155136,note_on,,,,,388,0,5,,,,,,2,,57,85
155136,note_on,,,,,388,0,6,,,,,,3,,50,85
155136,note_on,,,,,100,0,9,,,,,,4,,62,100
155136,note_on,,,,,0,0,9,,,,,,4,,72,100
155228,note_off,,,,,92,0,8,,,,,,4,,78,0
155228,note_off,,,,,92,0,9,,,,,,4,,62,0
155228,note_off,,,,,0,0,9,,,,,,4,,72,0
155232,note_on,,,,,4,0,8,,,,,,4,,76,100
155324,note_off,,,,,188,0,3,,,,,,0,,62,0
155324,note_off,,,,,92,0,8,,,,,,4,,76,0
155328,note_on,,,,,772,0,4,,,,,,1,,78,85
155328,note_on,,,,,4,0,8,,,,,,4,,78,100
155420,note_off,,,,,92,0,8,,,,,,4,,78,0
155424,note_on,,,,,196,0,9,,,,,,4,,62,100
155516,note_off,,,,,380,0,7,,,,,,3,,38,0
155516,note_off,,,,,188,0,4,,,,,,1,,78,0
155516,note_off,,,,,92,0,9,,,,,,4,,62,0
155516,note_off,,,,,380,0,6,,,,,,3,,50,0
155516,note_off,,,,,380,0,5,,,,,,2,,57,0
155520,note_on,,,,,4,0,9,,,,,,4,,66,100
155520,note_on,,,,,4,0,4,,,,,,1,,72,85
155612,note_off,,,,,92,0,9,,,,,,4,,66,0
155616,note_on,,,,,4,0,9,,,,,,4,,69,100
155708,note_off,,,,,188,0,4,,,,,,1,,72,0
155708,note_off,,,,,92,0,9,,,,,,4,,69,0
155712,note_on,,,,,4,0,4,,,,,,1,,69,85
155712,note_on,,,,,4,0,9,,,,,,4,,72,100
155804,note_off,,,,,92,0,9,,,,,,4,,72,0
155808,note_on,,,,,388,0,8,,,,,,4,,78,100
155900,note_off,,,,,188,0,4,,,,,,1,,69,0
155900,note_off,,,,,92,0,8,,,,,,4,,78,0
155904,note_on,,,,,4,0,8,,,,,,4,,81,100
155904,note_on,,,,,100,0,9,,,,,,4,,62,100
155904,note_on,,,,,0,0,9,,,,,,4,,72,100
155904,note_on,,,,,388,0,5,,,,,,2,,66,85
155904,note_on,,,,,388,0,7,,,,,,3,,38,85
155904,note_on,,,,,388,0,6,,,,,,3,,50,85
155904,note_on,,,,,4,0,4,,,,,,1,,62,85
155996,note_off,,,,,92,0,9,,,,,,4,,62,0
155996,note_off,,,,,92,0,8,,,,,,4,,81,0
155996,note_off,,,,,0,0,9,,,,,,4,,72,0
156000,note_on,,,,,4,0,8,,,,,,4,,79,100
156092,note_off,,,,,92,0,8,,,,,,4,,79,0
156096,note_on,,,,,772,0,3,,,,,,0,,81,85
156096,note_on,,,,,4,0,8,,,,,,4,,81,100
156188,note_off,,,,,92,0,8,,,,,,4,,81,0
156192,note_on,,,,,196,0,9,,,,,,4,,62,100
156284,note_off,,,,,188,0,3,,,,,,0,,81,0
156284,note_off,,,,,380,0,7,,,,,,3,,38,0
156284,note_off,,,,,380,0,6,,,,,,3,,50,0
156284,note_off,,,,,380,0,5,,,,,,2,,66,0
156284,note_off,,,,,92,0,9,,,,,,4,,62,0
156284,note_off,,,,,380,0,4,,,,,,1,,62,0
156288,note_on,,,,,4,0,9,,,,,,4,,69,100
156288,note_on,,,,,4,0,3,,,,,,0,,78,85
156380,note_off,,,,,92,0,9,,,,,,4,,69,0
156384,note_on,,,,,4,0,9,,,,,,4,,72,100
156476,note_off,,,,,92,0,9,,,,,,4,,72,0
156476,note_off,,,,,188,0,3,,,,,,0,,78,0
156480,note_on,,,,,4,0,3,,,,,,0,,72,85
156480,note_on,,,,,292,0,8,,,,,,4,,78,100
156572,note_off,,,,,92,0,8,,,,,,4,,78,0
156576,note_on,,,,,4,0,8,,,,,,4,,81,100
156668,note_off,,,,,188,0,3,,,,,,0,,72,0
156668,note_off,,,,,92,0,8,,,,,,4,,81,0
156672,note_on,,,,,4,0,3,,,,,,0,,66,85
156672,note_on,,,,,4,0,8,,,,,,4,,84,100
156764,note_off,,,,,92,0,8,,,,,,4,,84,0
156768,note_on,,,,,4,0,8,,,,,,4,,81,100
156860,note_off,,,,,92,0,8,,,,,,4,,81,0
156860,note_off,,,,,188,0,3,,,,,,0,,66,0
156864,note_on,,,,,388,0,9,,,,,,4,,74,100
156864,note_on,,,,,580,0,6,,,,,,3,,62,85
156864,note_on,,,,,580,0,7,,,,,,3,,50,85
156864,note_on,,,,,4,0,8,,,,,,4,,82,100
156956,note_off,,,,,92,0,8,,,,,,4,,82,0
156956,note_off,,,,,92,0,9,,,,,,4,,74,0
156960,note_on,,,,,4,0,8,,,,,,4,,78,100
156960,note_on,,,,,4,0,9,,,,,,4,,69,100
157052,note_off,,,,,188,0,6,,,,,,3,,62,0
157052,note_off,,,,,92,0,8,,,,,,4,,78,0
157052,note_off,,,,,188,0,7,,,,,,3,,50,0
157052,note_off,,,,,92,0,9,,,,,,4,,69,0
157056,note_on,,,,,4,0,6,,,,,,3,,58,85
157056,note_on,,,,,4,0,9,,,,,,4,,70,100
157056,note_on,,,,,4,0,7,,,,,,3,,46,85
157056,note_on,,,,,4,0,8,,,,,,4,,79,100
157148,note_off,,,,,92,0,8,,,,,,4,,79,0
157148,note_off,,,,,92,0,9,,,,,,4,,70,0
157152,note_on,,,,,4,0,8,,,,,,4,,74,100
157152,note_on,,,,,4,0,9,,,,,,4,,66,100
157244,note_off,,,,,188,0,6,,,,,,3,,58,0
157244,note_off,,,,,188,0,7,,,,,,3,,46,0
157244,note_off,,,,,92,0,8,,,,,,4,,74,0
157244,note_off,,,,,92,0,9,,,,,,4,,66,0
157248,note_on,,,,,4,0,6,,,,,,3,,55,85
157248,note_on,,,,,4,0,8,,,,,,4,,75,100
157248,note_on,,,,,4,0,9,,,,,,4,,67,100
157248,note_on,,,,,4,0,7,,,,,,3,,43,85
157340,note_off,,,,,92,0,9,,,,,,4,,67,0
157340,note_off,,,,,92,0,8,,,,,,4,,75,0
157344,note_on,,,,,4,0,8,,,,,,4,,71,100
157344,note_on,,,,,4,0,9,,,,,,4,,62,100
157436,note_off,,,,,92,0,9,,,,,,4,,62,0
157436,note_off,,,,,92,0,8,,,,,,4,,71,0
157436,note_off,,,,,188,0,7,,,,,,3,,43,0
157436,note_off,,,,,188,0,6,,,,,,3,,55,0
157440,note_on,,,,,4,0,9,,,,,,4,,63,100
157440,note_on,,,,,4,0,7,,,,,,3,,39,85
157440,note_on,,,,,4,0,8,,,,,,4,,72,100
157440,note_on,,,,,4,0,6,,,,,,3,,51,85
157532,note_off,,,,,92,0,9,,,,,,4,,63,0
157532,note_off,,,,,92,0,8,,,,,,4,,72,0
157536,note_on,,,,,4,0,8,,,,,,4,,81,100
157536,note_on,,,,,4,0,9,,,,,,4,,62,100
157568,note_off,,,,,128,0,6,,,,,,3,,51,0
157568,note_off,,,,,128,0,7,,,,,,3,,39,0
157628,note_off,,,,,92,0,8,,,,,,4,,81,0
157628,note_off,,,,,92,0,9,,,,,,4,,62,0
157632,note_on,,,,,4,0,8,,,,,,4,,78,100
157632,note_on,,,,,64,0,7,,,,,,3,,36,85
157632,note_on,,,,,64,0,6,,,,,,3,,48,85
157632,note_on,,,,,4,0,9,,,,,,4,,63,100
157724,note_off,,,,,92,0,9,,,,,,4,,63,0
157724,note_off,,,,,92,0,8,,,,,,4,,78,0
157728,note_on,,,,,4,0,8,,,,,,4,,79,100
157728,note_on,,,,,4,0,9,,,,,,4,,60,100
157760,note_off,,,,,128,0,7,,,,,,3,,36,0
157760,note_off,,,,,128,0,6,,,,,,3,,48,0
157820,note_off,,,,,92,0,8,,,,,,4,,79,0
157820,note_off,,,,,92,0,9,,,,,,4,,60,0
157824,note_on,,,,,4,0,8,,,,,,4,,70,100
157824,note_on,,,,,64,0,7,,,,,,3,,38,85
157824,note_on,,,,,4,0,9,,,,,,4,,62,100
157824,note_on,,,,,64,0,6,,,,,,3,,50,85
157916,note_off,,,,,92,0,8,,,,,,4,,70,0
157920,note_on,,,,,4,0,8,,,,,,4,,79,100
157952,note_off,,,,,128,0,7,,,,,,3,,38,0
157952,note_off,,,,,128,0,6,,,,,,3,,50,0
158012,note_off,,,,,188,0,9,,,,,,4,,62,0
158012,note_off,,,,,92,0,8,,,,,,4,,79,0
158016,note_on,,,,,64,0,6,,,,,,3,,38,85
158016,note_on,,,,,64,0,7,,,,,,3,,26,85
158016,note_on,,,,,4,0,9,,,,,,4,,50,100
158016,note_on,,,,,4,0,8,,,,,,4,,69,100
158108,note_off,,,,,92,0,8,,,,,,4,,69,0
158112,note_on,,,,,4,0,8,,,,,,4,,78,100
158144,note_off,,,,,128,0,7,,,,,,3,,26,0
158144,note_off,,,,,128,0,6,,,,,,3,,38,0
158204,note_off,,,,,92,0,8,,,,,,4,,78,0
158204,note_off,,,,,188,0,9,,,,,,4,,50,0
158208,note_on,,,,,64,0,7,,,,,,3,,31,100
158208,note_on,,,,,4,0,8,,,,,,4,,79,100
158208,note_on,,,,,1924,0,5,,,,,,2,,58,100
158208,note_on,,,,,64,0,6,,,,,,3,,43,100
158208,note_on,,,,,1924,0,4,,,,,,1,,67,100
158208,note_on,,,,,1348,0,3,,,,,,0,,67,100
158208,note_on,,,,,4,0,9,,,,,,4,,55,100
158300,note_off,,,,,92,0,3,,,,,,0,,67,0
158300,note_off,,,,,92,0,4,,,,,,1,,67,0
158300,note_off,,,,,92,0,5,,,,,,2,,58,0
158304,note_on,,,,,4,0,5,,,,,,2,,60,100
158304,note_on,,,,,4,0,3,,,,,,0,,69,100
158304,note_on,,,,,4,0,4,,,,,,1,,69,100
158396,note_off,,,,,92,0,3,,,,,,0,,69,0
158396,note_off,,,,,92,0,4,,,,,,1,,69,0
158396,note_off,,,,,92,0,5,,,,,,2,,60,0
158400,note_on,,,,,4,0,4,,,,,,1,,70,100
158400,note_on,,,,,4,0,3,,,,,,0,,70,100
158400,note_on,,,,,4,0,5,,,,,,2,,62,100
158528,note_off,,,,,128,0,4,,,,,,1,,70,0
158528,note_off,,,,,128,0,3,,,,,,0,,70,0
158528,note_off,,,,,128,0,5,,,,,,2,,62,0
158588,note_off,,,,,380,0,6,,,,,,3,,43,0
158588,note_off,,,,,380,0,7,,,,,,3,,31,0
158588,note_off,,,,,380,0,9,,,,,,4,,55,0
158588,note_off,,,,,380,0,8,,,,,,4,,79,0
158592,note_on,,,,,64,0,3,,,,,,0,,69,100
158592,note_on,,,,,64,0,5,,,,,,2,,60,100
158592,note_on,,,,,64,0,4,,,,,,1,,69,100
158780,note_off,,,,,188,0,5,,,,,,2,,60,0
158780,note_off,,,,,188,0,3,,,,,,0,,69,0
158780,note_off,,,,,188,0,4,,,,,,1,,69,0
158784,note_on,,,,,4,0,5,,,,,,2,,58,100
158784,note_on,,,,,4,0,3,,,,,,0,,67,100
158784,note_on,,,,,4,0,4,,,,,,1,,67,100
158972,note_off,,,,,188,0,4,,,,,,1,,67,0
158972,note_off,,,,,188,0,5,,,,,,2,,58,0
158972,note_off,,,,,188,0,3,,,,,,0,,67,0
158976,note_on,,,,,388,0,6,,,,,,3,,55,100
158976,note_on,,,,,388,0,8,,,,,,4,,82,100
158976,note_on,,,,,4,0,3,,,,,,0,,74,100
158976,note_on,,,,,4,0,4,,,,,,1,,74,100
158976,note_on,,,,,4,0,5,,,,,,2,,67,100
158976,note_on,,,,,388,0,9,,,,,,4,,55,100
158976,note_on,,,,,388,0,7,,,,,,3,,43,100
159068,note_off,,,,,92,0,9,,,,,,4,,55,0
159068,note_off,,,,,92,0,8,,,,,,4,,82,0
159068,note_off,,,,,92,0,5,,,,,,2,,67,0
159068,note_off,,,,,92,0,6,,,,,,3,,55,0
159068,note_off,,,,,92,0,7,,,,,,3,,43,0
159072,note_on,,,,,4,0,9,,,,,,4,,57,100
159072,note_on,,,,,4,0,8,,,,,,4,,84,100
159072,note_on,,,,,4,0,6,,,,,,3,,57,100
159072,note_on,,,,,4,0,5,,,,,,2,,66,100
159072,note_on,,,,,4,0,7,,,,,,3,,45,100
159164,note_off,,,,,92,0,8,,,,,,4,,84,0
159164,note_off,,,,,92,0,7,,,,,,3,,45,0
159164,note_off,,,,,188,0,4,,,,,,1,,74,0
159164,note_off,,,,,188,0,3,,,,,,0,,74,0
159164,note_off,,,,,92,0,5,,,,,,2,,66,0
159164,note_off,,,,,92,0,6,,,,,,3,,57,0
159164,note_off,,,,,92,0,9,,,,,,4,,57,0
159168,note_on,,,,,4,0,5,,,,,,2,,67,100
159168,note_on,,,,,4,0,4,,,,,,1,,79,100
159168,note_on,,,,,4,0,6,,,,,,3,,58,100
159168,note_on,,,,,4,0,7,,,,,,3,,46,100
159168,note_on,,,,,4,0,3,,,,,,0,,79,100
159168,note_on,,,,,4,0,8,,,,,,4,,86,100
159168,note_on,,,,,4,0,9,,,,,,4,,58,100
159296,note_off,,,,,128,0,8,,,,,,4,,86,0
159296,note_off,,,,,128,0,5,,,,,,2,,67,0
159296,note_off,,,,,128,0,9,,,,,,4,,58,0
159296,note_off,,,,,128,0,7,,,,,,3,,46,0
159296,note_off,,,,,128,0,6,,,,,,3,,58,0
159360,note_on,,,,,64,0,8,,,,,,4,,84,100
159360,note_on,,,,,64,0,5,,,,,,2,,69,100
159360,note_on,,,,,64,0,9,,,,,,4,,57,100
159360,note_on,,,,,64,0,6,,,,,,3,,57,100
159360,note_on,,,,,64,0,7,,,,,,3,,45,100
159548,note_off,,,,,188,0,8,,,,,,4,,84,0
159548,note_off,,,,,188,0,9,,,,,,4,,57,0
159548,note_off,,,,,380,0,3,,,,,,0,,79,0
159548,note_off,,,,,188,0,6,,,,,,3,,57,0
159548,note_off,,,,,188,0,7,,,,,,3,,45,0
159548,note_off,,,,,380,0,4,,,,,,1,,79,0
159548,note_off,,,,,188,0,5,,,,,,2,,69,0
159552,note_on,,,,,4,0,8,,,,,,4,,82,100
159552,note_on,,,,,4,0,9,,,,,,4,,55,100
159552,note_on,,,,,4,0,5,,,,,,2,,70,100
159552,note_on,,,,,4,0,6,,,,,,3,,55,100
159552,note_on,,,,,4,0,4,,,,,,1,,74,100
159552,note_on,,,,,4,0,3,,,,,,0,,74,100
159552,note_on,,,,,4,0,7,,,,,,3,,43,100
159740,note_off,,,,,188,0,3,,,,,,0,,74,0
159740,note_off,,,,,188,0,7,,,,,,3,,43,0
159740,note_off,,,,,188,0,4,,,,,,1,,74,0
159740,note_off,,,,,188,0,5,,,,,,2,,70,0
159740,note_off,,,,,188,0,6,,,,,,3,,55,0
159740,note_off,,,,,188,0,9,,,,,,4,,55,0
159744,note_on,,,,,4,0,4,,,,,,1,,75,100
159744,note_on,,,,,4,0,7,,,,,,3,,48,100
159744,note_on,,,,,4,0,5,,,,,,2,,67,100
159744,note_on,,,,,4,0,9,,,,,,4,,60,100
159744,note_on,,,,,4,0,3,,,,,,0,,75,100
159744,note_on,,,,,4,0,6,,,,,,3,,60,100
159836,note_off,,,,,92,0,9,,,,,,4,,60,0
159840,note_on,,,,,4,0,9,,,,,,4,,58,100
159932,note_off,,,,,380,0,8,,,,,,4,,82,0
159932,note_off,,,,,188,0,6,,,,,,3,,60,0
159932,note_off,,,,,188,0,3,,,,,,0,,75,0
159932,note_off,,,,,188,0,4,,,,,,1,,75,0
159932,note_off,,,,,188,0,7,,,,,,3,,48,0
159932,note_off,,,,,188,0,5,,,,,,2,,67,0
159932,note_off,,,,,92,0,9,,,,,,4,,58,0
159936,note_on,,,,,4,0,3,,,,,,0,,72,100
159936,note_on,,,,,4,0,4,,,,,,1,,72,100
159936,note_on,,,,,4,0,5,,,,,,2,,63,100
159936,note_on,,,,,4,0,9,,,,,,4,,60,100
159936,note_on,,,,,4,0,8,,,,,,4,,81,100
160028,note_off,,,,,92,0,3,,,,,,0,,72,0
160028,note_off,,,,,92,0,4,,,,,,1,,72,0
160028,note_off,,,,,92,0,9,,,,,,4,,60,0
160032,note_on,,,,,4,0,9,,,,,,4,,62,100
160032,note_on,,,,,4,0,3,,,,,,0,,69,100
160032,note_on,,,,,4,0,4,,,,,,1,,69,100
160124,note_off,,,,,92,0,4,,,,,,1,,69,0
160124,note_off,,,,,188,0,5,,,,,,2,,63,0
160124,note_off,,,,,92,0,9,,,,,,4,,62,0
160124,note_off,,,,,92,0,3,,,,,,0,,69,0
160128,note_on,,,,,196,0,7,,,,,,3,,46,100
160128,note_on,,,,,4,0,4,,,,,,1,,74,100
160128,note_on,,,,,196,0,6,,,,,,3,,58,100
160128,note_on,,,,,4,0,5,,,,,,2,,62,100
160128,note_on,,,,,4,0,9,,,,,,4,,58,100
160128,note_on,,,,,4,0,3,,,,,,0,,74,100
160220,note_off,,,,,92,0,9,,,,,,4,,58,0
160224,note_on,,,,,4,0,9,,,,,,4,,57,100
160316,note_off,,,,,92,0,9,,,,,,4,,57,0
160316,note_off,,,,,188,0,7,,,,,,3,,46,0
160316,note_off,,,,,188,0,3,,,,,,0,,74,0
160316,note_off,,,,,380,0,8,,,,,,4,,81,0
160316,note_off,,,,,188,0,4,,,,,,1,,74,0
160316,note_off,,,,,188,0,5,,,,,,2,,62,0
160316,note_off,,,,,188,0,6,,,,,,3,,58,0
160320,note_on,,,,,4,0,3,,,,,,0,,70,100
160320,note_on,,,,,4,0,9,,,,,,4,,58,100
160320,note_on,,,,,4,0,8,,,,,,4,,79,100
160320,note_on,,,,,4,0,4,,,,,,1,,70,100
160412,note_off,,,,,92,0,4,,,,,,1,,70,0
160412,note_off,,,,,92,0,9,,,,,,4,,58,0
160412,note_off,,,,,92,0,3,,,,,,0,,70,0
160416,note_on,,,,,4,0,4,,,,,,1,,67,100
160416,note_on,,,,,4,0,3,,,,,,0,,67,100
160416,note_on,,,,,4,0,9,,,,,,4,,60,100
160508,note_off,,,,,92,0,4,,,,,,1,,67,0
160508,note_off,,,,,92,0,3,,,,,,0,,67,0
160508,note_off,,,,,92,0,9,,,,,,4,,60,0
160512,note_on,,,,,4,0,4,,,,,,1,,72,100
160512,note_on,,,,,196,0,6,,,,,,3,,57,100
160512,note_on,,,,,4,0,3,,,,,,0,,72,100
160512,note_on,,,,,196,0,7,,,,,,3,,45,100
160512,note_on,,,,,196,0,5,,,,,,2,,63,100
160512,note_on,,,,,4,0,9,,,,,,4,,57,100
160604,note_off,,,,,92,0,9,,,,,,4,,57,0
160608,note_on,,,,,4,0,9,,,,,,4,,45,100
160700,note_off,,,,,92,0,9,,,,,,4,,45,0
160700,note_off,,,,,188,0,3,,,,,,0,,72,0
160700,note_off,,,,,380,0,8,,,,,,4,,79,0
160700,note_off,,,,,188,0,6,,,,,,3,,57,0
160700,note_off,,,,,188,0,4,,,,,,1,,72,0
160700,note_off,,,,,188,0,5,,,,,,2,,63,0
160700,note_off,,,,,188,0,7,,,,,,3,,45,0
160704,note_on,,,,,4,0,9,,,,,,4,,48,100
160704,note_on,,,,,4,0,8,,,,,,4,,72,100
160704,note_on,,,,,4,0,3,,,,,,0,,69,100
160704,note_on,,,,,4,0,4,,,,,,1,,69,100
160796,note_off,,,,,92,0,4,,,,,,1,,69,0
160796,note_off,,,,,92,0,3,,,,,,0,,69,0
160796,note_off,,,,,92,0,9,,,,,,4,,48,0
160800,note_on,,,,,4,0,3,,,,,,0,,66,100
160800,note_on,,,,,4,0,9,,,,,,4,,51,100
160800,note_on,,,,,4,0,4,,,,,,1,,66,100
160892,note_off,,,,,92,0,4,,,,,,1,,66,0
160892,note_off,,,,,92,0,9,,,,,,4,,51,0
160892,note_off,,,,,92,0,3,,,,,,0,,66,0
160896,note_on,,,,,4,0,3,,,,,,0,,62,100
160896,note_on,,,,,196,0,7,,,,,,3,,43,100
160896,note_on,,,,,196,0,5,,,,,,2,,67,100
160896,note_on,,,,,196,0,6,,,,,,3,,55,100
160896,note_on,,,,,4,0,4,,,,,,1,,62,100
160896,note_on,,,,,4,0,9,,,,,,4,,55,100
160988,note_off,,,,,92,0,9,,,,,,4,,55,0
160992,note_on,,,,,4,0,9,,,,,,4,,43,100
161084,note_off,,,,,188,0,3,,,,,,0,,62,0
161084,note_off,,,,,92,0,9,,,,,,4,,43,0
161084,note_off,,,,,188,0,5,,,,,,2,,67,0
161084,note_off,,,,,380,0,8,,,,,,4,,72,0
161084,note_off,,,,,188,0,4,,,,,,1,,62,0
161084,note_off,,,,,188,0,7,,,,,,3,,43,0
161084,note_off,,,,,188,0,6,,,,,,3,,55,0
161088,note_on,,,,,4,0,3,,,,,,0,,75,100
161088,note_on,,,,,4,0,9,,,,,,4,,48,100
161088,note_on,,,,,4,0,8,,,,,,4,,69,100
161088,note_on,,,,,4,0,4,,,,,,1,,75,100
161180,note_off,,,,,92,0,9,,,,,,4,,48,0
161180,note_off,,,,,92,0,8,,,,,,4,,69,0
161184,note_on,,,,,4,0,8,,,,,,4,,66,100
161184,note_on,,,,,4,0,9,,,,,,4,,51,100
161276,note_off,,,,,92,0,8,,,,,,4,,66,0
161276,note_off,,,,,92,0,9,,,,,,4,,51,0
161280,note_on,,,,,4,0,8,,,,,,4,,60,100
161280,note_on,,,,,196,0,6,,,,,,3,,54,100
161280,note_on,,,,,4,0,9,,,,,,4,,42,100
161280,note_on,,,,,196,0,7,,,,,,3,,42,100
161280,note_on,,,,,196,0,5,,,,,,2,,69,100
161344,note_off,,,,,64,0,9,,,,,,4,,42,0
161376,note_on,,,,,32,0,9,,,,,,4,,57,100
161468,note_off,,,,,188,0,6,,,,,,3,,54,0
161468,note_off,,,,,380,0,4,,,,,,1,,75,0
161468,note_off,,,,,380,0,3,,,,,,0,,75,0
161468,note_off,,,,,188,0,8,,,,,,4,,60,0
161468,note_off,,,,,92,0,9,,,,,,4,,57,0
161468,note_off,,,,,188,0,5,,,,,,2,,69,0
161468,note_off,,,,,188,0,7,,,,,,3,,42,0
161472,note_on,,,,,4,0,4,,,,,,1,,72,100
161472,note_on,,,,,4,0,9,,,,,,4,,55,100
161472,note_on,,,,,4,0,8,,,,,,4,,75,100
161472,note_on,,,,,4,0,3,,,,,,0,,72,100
161564,note_off,,,,,92,0,3,,,,,,0,,72,0
161564,note_off,,,,,92,0,4,,,,,,1,,72,0
161564,note_off,,,,,92,0,9,,,,,,4,,55,0
161568,note_on,,,,,4,0,3,,,,,,0,,69,100
161568,note_on,,,,,4,0,4,,,,,,1,,69,100
161568,note_on,,,,,4,0,9,,,,,,4,,54,100
161660,note_off,,,,,92,0,4,,,,,,1,,69,0
161660,note_off,,,,,92,0,9,,,,,,4,,54,0
161660,note_off,,,,,92,0,3,,,,,,0,,69,0
161664,note_on,,,,,196,0,7,,,,,,3,,43,100
161664,note_on,,,,,4,0,4,,,,,,1,,62,100
161664,note_on,,,,,4,0,3,,,,,,0,,62,100
161664,note_on,,,,,196,0,5,,,,,,2,,70,100
161664,note_on,,,,,196,0,6,,,,,,3,,55,100
161664,note_on,,,,,4,0,9,,,,,,4,,43,100
161728,note_off,,,,,64,0,9,,,,,,4,,43,0
161760,note_on,,,,,32,0,9,,,,,,4,,58,100
161852,note_off,,,,,92,0,9,,,,,,4,,58,0
161852,note_off,,,,,188,0,5,,,,,,2,,70,0
161852,note_off,,,,,188,0,6,,,,,,3,,55,0
161852,note_off,,,,,188,0,4,,,,,,1,,62,0
161852,note_off,,,,,188,0,7,,,,,,3,,43,0
161852,note_off,,,,,188,0,3,,,,,,0,,62,0
161856,note_on,,,,,4,0,9,,,,,,4,,57,100
161856,note_on,,,,,384,0,8,,,,,,4,,72,100
161856,note_on,,,,,4,0,3,,,,,,0,,78,100
161856,note_on,,,,,4,0,4,,,,,,1,,78,100
161948,note_off,,,,,92,0,9,,,,,,4,,57,0
161948,note_off,,,,,92,0,8,,,,,,4,,72,0
161952,note_on,,,,,4,0,8,,,,,,4,,69,100
161952,note_on,,,,,4,0,9,,,,,,4,,55,100
162044,note_off,,,,,92,0,9,,,,,,4,,55,0
162044,note_off,,,,,92,0,8,,,,,,4,,75,0
162044,note_off,,,,,0,0,8,,,,,,4,,69,0
162048,note_on,,,,,4,0,8,,,,,,4,,60,100
162048,note_on,,,,,196,0,5,,,,,,2,,72,100
162048,note_on,,,,,4,0,9,,,,,,4,,45,100
162048,note_on,,,,,196,0,6,,,,,,3,,57,100
162048,note_on,,,,,196,0,7,,,,,,3,,45,100
162112,note_off,,,,,64,0,9,,,,,,4,,45,0
162144,note_on,,,,,32,0,9,,,,,,4,,60,100
162236,note_off,,,,,188,0,7,,,,,,3,,45,0
162236,note_off,,,,,188,0,5,,,,,,2,,72,0
162236,note_off,,,,,188,0,8,,,,,,4,,60,0
162236,note_off,,,,,380,0,4,,,,,,1,,78,0
162236,note_off,,,,,380,0,3,,,,,,0,,78,0
162236,note_off,,,,,188,0,6,,,,,,3,,57,0
162236,note_off,,,,,92,0,9,,,,,,4,,60,0
162240,note_on,,,,,4,0,8,,,,,,4,,78,100
162240,note_on,,,,,4,0,9,,,,,,4,,58,100
162240,note_on,,,,,4,0,4,,,,,,1,,75,100
162240,note_on,,,,,4,0,3,,,,,,0,,75,100
162332,note_off,,,,,92,0,9,,,,,,4,,58,0
162332,note_off,,,,,92,0,4,,,,,,1,,75,0
162332,note_off,,,,,92,0,3,,,,,,0,,75,0
162336,note_on,,,,,4,0,4,,,,,,1,,72,100
162336,note_on,,,,,4,0,9,,,,,,4,,57,100
162336,note_on,,,,,4,0,3,,,,,,0,,72,100
162428,note_off,,,,,92,0,4,,,,,,1,,72,0
162428,note_off,,,,,92,0,9,,,,,,4,,57,0
162428,note_off,,,,,92,0,3,,,,,,0,,72,0
162432,note_on,,,,,196,0,6,,,,,,3,,58,100
162432,note_on,,,,,196,0,7,,,,,,3,,46,100
162432,note_on,,,,,4,0,3,,,,,,0,,62,100
162432,note_on,,,,,4,0,4,,,,,,1,,62,100
162432,note_on,,,,,196,0,5,,,,,,2,,70,100
162432,note_on,,,,,4,0,9,,,,,,4,,46,100
162496,note_off,,,,,64,0,9,,,,,,4,,46,0
162528,note_on,,,,,32,0,9,,,,,,4,,62,100
162620,note_off,,,,,188,0,4,,,,,,1,,62,0
162620,note_off,,,,,380,0,8,,,,,,4,,78,0
162620,note_off,,,,,188,0,7,,,,,,3,,46,0
162620,note_off,,,,,188,0,3,,,,,,0,,62,0
162620,note_off,,,,,188,0,6,,,,,,3,,58,0
162620,note_off,,,,,188,0,5,,,,,,2,,70,0
162620,note_off,,,,,92,0,9,,,,,,4,,62,0
162624,note_on,,,,,4,0,9,,,,,,4,,60,100
162624,note_on,,,,,4,0,3,,,,,,0,,81,100
162624,note_on,,,,,4,0,4,,,,,,1,,81,100
162624,note_on,,,,,4,0,8,,,,,,4,,75,100
162716,note_off,,,,,92,0,8,,,,,,4,,75,0
162716,note_off,,,,,92,0,9,,,,,,4,,60,0
162720,note_on,,,,,4,0,9,,,,,,4,,58,100
162720,note_on,,,,,4,0,8,,,,,,4,,72,100
162812,note_off,,,,,92,0,8,,,,,,4,,72,0
162812,note_off,,,,,92,0,9,,,,,,4,,58,0
162816,note_on,,,,,196,0,5,,,,,,2,,69,100
162816,note_on,,,,,4,0,8,,,,,,4,,62,100
162816,note_on,,,,,4,0,9,,,,,,4,,60,100
162816,note_on,,,,,196,0,7,,,,,,3,,48,100
162816,note_on,,,,,196,0,6,,,,,,3,,60,100
162908,note_off,,,,,92,0,9,,,,,,4,,60,0
162912,note_on,,,,,4,0,9,,,,,,4,,48,100
162944,note_off,,,,,128,0,7,,,,,,3,,48,0
162944,note_off,,,,,128,0,6,,,,,,3,,60,0
162944,note_off,,,,,128,0,5,,,,,,2,,69,0
163004,note_off,,,,,188,0,8,,,,,,4,,62,0
163004,note_off,,,,,380,0,4,,,,,,1,,81,0
163004,note_off,,,,,92,0,9,,,,,,4,,48,0
163004,note_off,,,,,380,0,3,,,,,,0,,81,0
163008,note_on,,,,,64,0,6,,,,,,3,,60,100
163008,note_on,,,,,64,0,5,,,,,,2,,69,100
163008,note_on,,,,,4,0,4,,,,,,1,,78,100
163008,note_on,,,,,4,0,9,,,,,,4,,60,100
163008,note_on,,,,,4,0,3,,,,,,0,,78,100
163008,note_on,,,,,4,0,8,,,,,,4,,81,100
163008,note_on,,,,,64,0,7,,,,,,3,,48,100
163100,note_off,,,,,92,0,3,,,,,,0,,78,0
163100,note_off,,,,,92,0,9,,,,,,4,,60,0
163100,note_off,,,,,92,0,4,,,,,,1,,78,0
163104,note_on,,,,,4,0,3,,,,,,0,,74,100
163104,note_on,,,,,4,0,9,,,,,,4,,58,100
163104,note_on,,,,,4,0,4,,,,,,1,,74,100
163136,note_off,,,,,128,0,5,,,,,,2,,69,0
163136,note_off,,,,,128,0,6,,,,,,3,,60,0
163136,note_off,,,,,128,0,7,,,,,,3,,48,0
163196,note_off,,,,,92,0,3,,,,,,0,,74,0
163196,note_off,,,,,92,0,4,,,,,,1,,74,0
163196,note_off,,,,,92,0,9,,,,,,4,,58,0
163200,note_on,,,,,64,0,7,,,,,,3,,48,100
163200,note_on,,,,,64,0,6,,,,,,3,,60,100
163200,note_on,,,,,4,0,4,,,,,,1,,75,100
163200,note_on,,,,,4,0,3,,,,,,0,,75,100
163200,note_on,,,,,64,0,5,,,,,,2,,69,100
163200,note_on,,,,,4,0,9,,,,,,4,,60,100
163292,note_off,,,,,92,0,4,,,,,,1,,75,0
163292,note_off,,,,,92,0,3,,,,,,0,,75,0
163296,note_on,,,,,4,0,4,,,,,,1,,72,100
163296,note_on,,,,,4,0,3,,,,,,0,,72,100
163328,note_off,,,,,128,0,7,,,,,,3,,48,0
163328,note_off,,,,,128,0,5,,,,,,2,,69,0
163328,note_off,,,,,128,0,6,,,,,,3,,60,0
163388,note_off,,,,,92,0,3,,,,,,0,,72,0
163388,note_off,,,,,92,0,4,,,,,,1,,72,0
163388,note_off,,,,,380,0,8,,,,,,4,,81,0
163388,note_off,,,,,188,0,9,,,,,,4,,60,0
163392,note_on,,,,,4,0,3,,,,,,0,,74,100
163392,note_on,,,,,4,0,4,,,,,,1,,74,100
163392,note_on,,,,,4,0,8,,,,,,4,,78,100
163392,note_on,,,,,64,0,7,,,,,,3,,48,100
163392,note_on,,,,,64,0,6,,,,,,3,,60,100
163392,note_on,,,,,64,0,5,,,,,,2,,69,100
163484,note_off,,,,,92,0,4,,,,,,1,,74,0
163484,note_off,,,,,92,0,8,,,,,,4,,78,0
163484,note_off,,,,,92,0,3,,,,,,0,,74,0
163488,note_on,,,,,4,0,3,,,,,,0,,70,100
163488,note_on,,,,,4,0,8,,,,,,4,,74,100
163488,note_on,,,,,4,0,4,,,,,,1,,70,100
163520,note_off,,,,,128,0,5,,,,,,2,,69,0
163520,note_off,,,,,128,0,6,,,,,,3,,60,0
163520,note_off,,,,,128,0,7,,,,,,3,,48,0
163580,note_off,,,,,92,0,3,,,,,,0,,70,0
163580,note_off,,,,,92,0,8,,,,,,4,,74,0
163580,note_off,,,,,92,0,4,,,,,,1,,70,0
163584,note_on,,,,,64,0,5,,,,,,2,,69,100
163584,note_on,,,,,64,0,6,,,,,,3,,60,100
163584,note_on,,,,,4,0,4,,,,,,1,,72,100
163584,note_on,,,,,4,0,8,,,,,,4,,75,100
163584,note_on,,,,,4,0,3,,,,,,0,,72,100
163584,note_on,,,,,64,0,7,,,,,,3,,48,100
163676,note_off,,,,,92,0,8,,,,,,4,,75,0
163676,note_off,,,,,92,0,4,,,,,,1,,72,0
163676,note_off,,,,,92,0,3,,,,,,0,,72,0
163680,note_on,,,,,4,0,3,,,,,,0,,69,100
163680,note_on,,,,,4,0,4,,,,,,1,,69,100
163680,note_on,,,,,292,0,9,,,,,,4,,51,100
163680,note_on,,,,,4,0,8,,,,,,4,,72,100
163712,note_off,,,,,128,0,5,,,,,,2,,69,0
163712,note_off,,,,,128,0,7,,,,,,3,,48,0
163712,note_off,,,,,128,0,6,,,,,,3,,60,0
163772,note_off,,,,,92,0,9,,,,,,4,,51,0
163772,note_off,,,,,92,0,4,,,,,,1,,69,0
163772,note_off,,,,,92,0,3,,,,,,0,,69,0
163772,note_off,,,,,92,0,8,,,,,,4,,72,0
163776,note_on,,,,,4,0,9,,,,,,4,,63,100
163776,note_on,,,,,4,0,4,,,,,,1,,70,100
163776,note_on,,,,,4,0,3,,,,,,0,,70,100
163776,note_on,,,,,4,0,8,,,,,,4,,74,100
163776,note_on,,,,,64,0,6,,,,,,3,,60,100
163776,note_on,,,,,64,0,7,,,,,,3,,48,100
163868,note_off,,,,,92,0,3,,,,,,0,,70,0
163868,note_off,,,,,92,0,8,,,,,,4,,74,0
163868,note_off,,,,,92,0,9,,,,,,4,,63,0
163868,note_off,,,,,92,0,4,,,,,,1,,70,0
163872,note_on,,,,,4,0,9,,,,,,4,,62,100
163872,note_on,,,,,4,0,4,,,,,,1,,67,100
163872,note_on,,,,,4,0,8,,,,,,4,,70,100
163872,note_on,,,,,4,0,3,,,,,,0,,67,100
163904,note_off,,,,,128,0,6,,,,,,3,,60,0
163904,note_off,,,,,128,0,7,,,,,,3,,48,0
163964,note_off,,,,,92,0,9,,,,,,4,,62,0
163964,note_off,,,,,92,0,4,,,,,,1,,67,0
163964,note_off,,,,,92,0,3,,,,,,0,,67,0
163964,note_off,,,,,92,0,8,,,,,,4,,70,0
163968,note_on,,,,,4,0,9,,,,,,4,,63,100
163968,note_on,,,,,4,0,3,,,,,,0,,69,100
163968,note_on,,,,,4,0,8,,,,,,4,,72,100
163968,note_on,,,,,64,0,7,,,,,,3,,48,100
163968,note_on,,,,,64,0,6,,,,,,3,,60,100
163968,note_on,,,,,4,0,4,,,,,,1,,69,100
163968,note_on,,,,,256,0,5,,,,,,2,,69,100
164060,note_off,,,,,92,0,8,,,,,,4,,72,0
164060,note_off,,,,,92,0,4,,,,,,1,,69,0
164060,note_off,,,,,92,0,3,,,,,,0,,69,0
164064,note_on,,,,,4,0,3,,,,,,0,,66,100
164064,note_on,,,,,4,0,8,,,,,,4,,69,100
164064,note_on,,,,,4,0,4,,,,,,1,,66,100
164096,note_off,,,,,128,0,5,,,,,,2,,69,0
164096,note_off,,,,,128,0,7,,,,,,3,,48,0
164096,note_off,,,,,128,0,6,,,,,,3,,60,0
164156,note_off,,,,,92,0,8,,,,,,4,,69,0
164156,note_off,,,,,188,0,9,,,,,,4,,63,0
164156,note_off,,,,,92,0,3,,,,,,0,,66,0
164156,note_off,,,,,92,0,4,,,,,,1,,66,0
164160,note_on,,,,,4,0,8,,,,,,4,,70,100
164160,note_on,,,,,64,0,6,,,,,,3,,60,100
164160,note_on,,,,,4,0,3,,,,,,0,,67,100
164160,note_on,,,,,64,0,7,,,,,,3,,48,100
164160,note_on,,,,,4,0,4,,,,,,1,,67,100
164252,note_off,,,,,92,0,4,,,,,,1,,67,0
164252,note_off,,,,,92,0,3,,,,,,0,,67,0
164252,note_off,,,,,92,0,8,,,,,,4,,70,0
164256,note_on,,,,,4,0,3,,,,,,0,,64,100
164256,note_on,,,,,4,0,4,,,,,,1,,64,100
164256,note_on,,,,,4,0,8,,,,,,4,,67,100
164288,note_off,,,,,128,0,6,,,,,,3,,60,0
164288,note_off,,,,,128,0,7,,,,,,3,,48,0
164348,note_off,,,,,92,0,4,,,,,,1,,64,0
164348,note_off,,,,,92,0,8,,,,,,4,,67,0
164348,note_off,,,,,92,0,3,,,,,,0,,64,0
164352,note_on,,,,,4,0,8,,,,,,4,,75,100
164352,note_on,,,,,4,0,3,,,,,,0,,66,100
164352,note_on,,,,,64,0,7,,,,,,3,,48,100
164352,note_on,,,,,256,0,5,,,,,,2,,69,100
164352,note_on,,,,,64,0,6,,,,,,3,,60,100
164352,note_on,,,,,4,0,4,,,,,,1,,66,100
164444,note_off,,,,,92,0,4,,,,,,1,,66,0
164444,note_off,,,,,92,0,3,,,,,,0,,66,0
164448,note_on,,,,,4,0,4,,,,,,1,,62,100
164448,note_on,,,,,4,0,3,,,,,,0,,62,100
164448,note_on,,,,,292,0,9,,,,,,4,,58,100
164496,note_on,,,,,144,0,8,,,,,,4,,74,100
164500,note_off,,,,,4,0,8,,,,,,4,,75,0
164540,note_off,,,,,92,0,4,,,,,,1,,62,0
164540,note_off,,,,,92,0,3,,,,,,0,,62,0
164540,note_off,,,,,92,0,9,,,,,,4,,58,0
164544,note_on,,,,,4,0,4,,,,,,1,,64,100
164544,note_on,,,,,4,0,9,,,,,,4,,57,100
164544,note_on,,,,,4,0,3,,,,,,0,,64,100
164568,note_on,,,,,68,0,8,,,,,,4,,75,100
164572,note_off,,,,,4,0,8,,,,,,4,,74,0
164608,note_off,,,,,256,0,5,,,,,,2,,69,0
164608,note_off,,,,,256,0,7,,,,,,3,,48,0
164608,note_off,,,,,256,0,6,,,,,,3,,60,0
164624,note_off,,,,,52,0,8,,,,,,4,,75,0
164628,note_on,,,,,4,0,8,,,,,,4,,74,100
164636,note_off,,,,,92,0,3,,,,,,0,,64,0
164636,note_off,,,,,92,0,9,,,,,,4,,57,0
164636,note_off,,,,,92,0,4,,,,,,1,,64,0
164640,note_on,,,,,4,0,3,,,,,,0,,66,100
164640,note_on,,,,,4,0,9,,,,,,4,,55,100
164640,note_on,,,,,4,0,4,,,,,,1,,66,100
164676,note_on,,,,,48,0,8,,,,,,4,,75,100
164684,note_off,,,,,8,0,8,,,,,,4,,74,0
164732,note_off,,,,,92,0,4,,,,,,1,,66,0
164732,note_off,,,,,92,0,3,,,,,,0,,66,0
164732,note_off,,,,,92,0,9,,,,,,4,,55,0
164732,note_off,,,,,48,0,8,,,,,,4,,75,0
164732,note_on,,,,,0,0,8,,,,,,4,,74,100
164736,note_on,,,,,4,0,9,,,,,,4,,54,100
164736,note_on,,,,,4,0,3,,,,,,0,,67,100
164736,note_on,,,,,4,0,4,,,,,,1,,67,100
164784,note_on,,,,,0,0,8,,,,,,4,,75,100
164784,note_off,,,,,52,0,8,,,,,,4,,74,0
164828,note_off,,,,,92,0,4,,,,,,1,,67,0
164828,note_off,,,,,92,0,9,,,,,,4,,54,0
164828,note_off,,,,,92,0,3,,,,,,0,,67,0
164832,note_on,,,,,4,0,3,,,,,,0,,69,100
164832,note_on,,,,,4,0,9,,,,,,4,,51,100
164832,note_on,,,,,4,0,4,,,,,,1,,69,100
164836,note_on,,,,,0,0,8,,,,,,4,,74,100
164836,note_off,,,,,52,0,8,,,,,,4,,75,0
164888,note_off,,,,,52,0,8,,,,,,4,,74,0
164888,note_on,,,,,0,0,8,,,,,,4,,75,100
164924,note_off,,,,,92,0,9,,,,,,4,,51,0
164924,note_off,,,,,92,0,3,,,,,,0,,69,0
164924,note_off,,,,,92,0,4,,,,,,1,,69,0
164928,note_on,,,,,4,0,4,,,,,,1,,70,100
164928,note_on,,,,,4,0,9,,,,,,4,,50,100
164928,note_on,,,,,4,0,3,,,,,,0,,70,100
164940,note_off,,,,,52,0,8,,,,,,4,,75,0
164948,note_on,,,,,8,0,8,,,,,,4,,74,100
165000,note_on,,,,,0,0,8,,,,,,4,,75,100
165000,note_off,,,,,52,0,8,,,,,,4,,74,0
165020,note_off,,,,,92,0,4,,,,,,1,,70,0
165020,note_off,,,,,92,0,9,,,,,,4,,50,0
165020,note_off,,,,,92,0,3,,,,,,0,,70,0
165024,note_on,,,,,4,0,3,,,,,,0,,72,100
165024,note_on,,,,,4,0,9,,,,,,4,,48,100
165024,note_on,,,,,4,0,4,,,,,,1,,72,100
165056,note_off,,,,,56,0,8,,,,,,4,,75,0
165064,note_on,,,,,8,0,8,,,,,,4,,74,100
165112,note_off,,,,,48,0,8,,,,,,4,,74,0
165116,note_on,,,,,4,0,8,,,,,,4,,75,100
165116,note_off,,,,,92,0,4,,,,,,1,,72,0
165116,note_off,,,,,92,0,3,,,,,,0,,72,0
165116,note_off,,,,,92,0,9,,,,,,4,,48,0
165120,note_on,,,,,512,0,6,,,,,,3,,47,100
165120,note_on,,,,,4,0,4,,,,,,1,,74,100
165120,note_on,,,,,4,0,9,,,,,,4,,46,100
165120,note_on,,,,,512,0,5,,,,,,2,,67,100
165120,note_on,,,,,4,0,3,,,,,,0,,74,100
165120,note_on,,,,,512,0,7,,,,,,3,,35,100
165168,note_off,,,,,52,0,8,,,,,,4,,75,0
165172,note_on,,,,,4,0,8,,,,,,4,,74,100
165212,note_off,,,,,92,0,4,,,,,,1,,74,0
165212,note_off,,,,,92,0,3,,,,,,0,,74,0
165212,note_off,,,,,92,0,7,,,,,,3,,35,0
165212,note_off,,,,,92,0,6,,,,,,3,,47,0
165212,note_off,,,,,92,0,9,,,,,,4,,46,0
165216,note_on,,,,,4,0,6,,,,,,3,,48,100
165216,note_on,,,,,4,0,7,,,,,,3,,36,100
165216,note_on,,,,,4,0,4,,,,,,1,,75,100
165216,note_on,,,,,4,0,3,,,,,,0,,75,100
165216,note_on,,,,,4,0,9,,,,,,4,,48,100
165224,note_off,,,,,52,0,8,,,,,,4,,74,0
165232,note_on,,,,,8,0,8,,,,,,4,,75,100
165284,note_off,,,,,52,0,8,,,,,,4,,75,0
165284,note_on,,,,,0,0,8,,,,,,4,,74,100
165308,note_off,,,,,92,0,3,,,,,,0,,75,0
165308,note_off,,,,,92,0,6,,,,,,3,,48,0
165308,note_off,,,,,92,0,4,,,,,,1,,75,0
165308,note_off,,,,,188,0,5,,,,,,2,,67,0
165308,note_off,,,,,92,0,9,,,,,,4,,48,0
165308,note_off,,,,,92,0,7,,,,,,3,,36,0
165312,note_on,,,,,4,0,3,,,,,,0,,77,100
165312,note_on,,,,,4,0,9,,,,,,4,,50,100
165312,note_on,,,,,4,0,4,,,,,,1,,77,100
165312,note_on,,,,,4,0,6,,,,,,3,,50,100
165312,note_on,,,,,4,0,7,,,,,,3,,38,100
165332,note_off,,,,,48,0,8,,,,,,4,,74,0
165344,note_on,,,,,12,0,8,,,,,,4,,75,100
165396,note_on,,,,,0,0,8,,,,,,4,,74,100
165396,note_off,,,,,52,0,8,,,,,,4,,75,0
165404,note_off,,,,,92,0,9,,,,,,4,,50,0
165408,note_on,,,,,4,0,9,,,,,,4,,51,100
165440,note_off,,,,,128,0,7,,,,,,3,,38,0
165440,note_off,,,,,128,0,6,,,,,,3,,50,0
165440,note_off,,,,,128,0,4,,,,,,1,,77,0
165440,note_off,,,,,44,0,8,,,,,,4,,74,0
165440,note_off,,,,,128,0,3,,,,,,0,,77,0
165456,note_on,,,,,16,0,8,,,,,,4,,75,100
165500,note_on,,,,,44,0,8,,,,,,4,,74,100
165500,note_off,,,,,92,0,9,,,,,,4,,51,0
165504,note_off,,,,,4,0,8,,,,,,4,,75,0
165504,note_on,,,,,64,0,3,,,,,,0,,77,100
165504,note_on,,,,,64,0,6,,,,,,3,,50,100
165504,note_on,,,,,196,0,5,,,,,,2,,62,100
165504,note_on,,,,,64,0,4,,,,,,1,,77,100
165504,note_on,,,,,4,0,9,,,,,,4,,50,100
165504,note_on,,,,,64,0,7,,,,,,3,,38,100
165544,note_off,,,,,40,0,8,,,,,,4,,74,0
165560,note_on,,,,,16,0,8,,,,,,4,,75,100
165596,note_off,,,,,92,0,6,,,,,,3,,50,0
165596,note_off,,,,,92,0,3,,,,,,0,,77,0
165596,note_off,,,,,92,0,9,,,,,,4,,50,0
165596,note_off,,,,,92,0,7,,,,,,3,,38,0
165596,note_off,,,,,92,0,4,,,,,,1,,77,0
165600,note_on,,,,,4,0,7,,,,,,3,,39,100
165600,note_on,,,,,4,0,3,,,,,,0,,79,100
165600,note_on,,,,,4,0,4,,,,,,1,,79,100
165600,note_on,,,,,4,0,9,,,,,,4,,51,100
165600,note_on,,,,,4,0,6,,,,,,3,,51,100
165604,note_on,,,,,44,0,8,,,,,,4,,74,100
165612,note_off,,,,,8,0,8,,,,,,4,,75,0
165660,note_off,,,,,48,0,8,,,,,,4,,74,0
165672,note_on,,,,,12,0,8,,,,,,4,,75,100
165692,note_off,,,,,92,0,3,,,,,,0,,79,0
165692,note_off,,,,,92,0,4,,,,,,1,,79,0
165692,note_off,,,,,188,0,5,,,,,,2,,62,0
165692,note_off,,,,,92,0,7,,,,,,3,,39,0
165692,note_off,,,,,92,0,6,,,,,,3,,51,0
165692,note_off,,,,,92,0,9,,,,,,4,,51,0
165696,note_on,,,,,4,0,3,,,,,,0,,80,100
165696,note_on,,,,,4,0,6,,,,,,3,,53,100
165696,note_on,,,,,4,0,7,,,,,,3,,41,100
165696,note_on,,,,,4,0,4,,,,,,1,,80,100
165696,note_on,,,,,4,0,9,,,,,,4,,53,100
165720,note_on,,,,,48,0,8,,,,,,4,,74,100
165724,note_off,,,,,4,0,8,,,,,,4,,75,0
165772,note_off,,,,,48,0,8,,,,,,4,,74,0
165780,note_on,,,,,8,0,8,,,,,,4,,75,100
165788,note_off,,,,,92,0,9,,,,,,4,,53,0
165792,note_on,,,,,4,0,9,,,,,,4,,55,100
165824,note_off,,,,,128,0,3,,,,,,0,,80,0
165824,note_off,,,,,128,0,6,,,,,,3,,53,0
165824,note_off,,,,,128,0,4,,,,,,1,,80,0
165824,note_off,,,,,128,0,7,,,,,,3,,41,0
165832,note_on,,,,,0,0,8,,,,,,4,,74,100
165832,note_off,,,,,52,0,8,,,,,,4,,75,0
165884,note_on,,,,,0,0,8,,,,,,4,,75,100
165884,note_off,,,,,52,0,8,,,,,,4,,74,0
165884,note_off,,,,,92,0,9,,,,,,4,,55,0
165888,note_on,,,,,64,0,4,,,,,,1,,71,100
165888,note_on,,,,,64,0,6,,,,,,3,,53,100
165888,note_on,,,,,64,0,3,,,,,,0,,71,100
165888,note_on,,,,,4,0,9,,,,,,4,,53,100
165888,note_on,,,,,196,0,5,,,,,,2,,62,100
165888,note_on,,,,,4,0,8,,,,,,4,,74,100
165888,note_on,,,,,64,0,7,,,,,,3,,41,100
165936,note_off,,,,,48,0,8,,,,,,4,,75,0
165980,note_off,,,,,92,0,9,,,,,,4,,53,0
165984,note_on,,,,,4,0,9,,,,,,4,,62,100
165996,note_off,,,,,108,0,4,,,,,,1,,71,0
165996,note_off,,,,,108,0,3,,,,,,0,,71,0
166076,note_off,,,,,188,0,6,,,,,,3,,53,0
166076,note_off,,,,,92,0,9,,,,,,4,,62,0
166076,note_off,,,,,188,0,5,,,,,,2,,62,0
166076,note_off,,,,,188,0,7,,,,,,3,,41,0
166076,note_off,,,,,140,0,8,,,,,,4,,74,0
166080,note_on,,,,,4,0,9,,,,,,4,,51,100
166080,note_on,,,,,84,0,4,,,,,,1,,72,100
166080,note_on,,,,,4,0,7,,,,,,3,,39,100
166080,note_on,,,,,4,0,5,,,,,,2,,67,100
166080,note_on,,,,,4,0,6,,,,,,3,,51,100
166080,note_on,,,,,84,0,3,,,,,,0,,72,100
166172,note_off,,,,,92,0,9,,,,,,4,,51,0
166176,note_on,,,,,4,0,9,,,,,,4,,50,100
166188,note_off,,,,,108,0,3,,,,,,0,,72,0
166188,note_off,,,,,108,0,4,,,,,,1,,72,0
166208,note_off,,,,,128,0,6,,,,,,3,,51,0
166208,note_off,,,,,128,0,7,,,,,,3,,39,0
166208,note_off,,,,,128,0,5,,,,,,2,,67,0
166268,note_off,,,,,92,0,9,,,,,,4,,50,0
166272,note_on,,,,,84,0,3,,,,,,0,,66,100
166272,note_on,,,,,64,0,6,,,,,,3,,51,100
166272,note_on,,,,,84,0,4,,,,,,1,,66,100
166272,note_on,,,,,64,0,7,,,,,,3,,39,100
166272,note_on,,,,,4,0,9,,,,,,4,,51,100
166272,note_on,,,,,64,0,5,,,,,,2,,69,100
166364,note_off,,,,,92,0,9,,,,,,4,,51,0
166368,note_on,,,,,4,0,9,,,,,,4,,60,100
166380,note_off,,,,,108,0,3,,,,,,0,,66,0
166380,note_off,,,,,108,0,4,,,,,,1,,66,0
166460,note_off,,,,,188,0,7,,,,,,3,,39,0
166460,note_off,,,,,92,0,9,,,,,,4,,60,0
166460,note_off,,,,,188,0,6,,,,,,3,,51,0
166460,note_off,,,,,188,0,5,,,,,,2,,69,0
166464,note_on,,,,,84,0,3,,,,,,0,,67,100
166464,note_on,,,,,84,0,4,,,,,,1,,67,100
166464,note_on,,,,,4,0,9,,,,,,4,,50,100
166464,note_on,,,,,4,0,6,,,,,,3,,50,100
166464,note_on,,,,,4,0,5,,,,,,2,,70,100
166464,note_on,,,,,4,0,7,,,,,,3,,38,100
166556,note_off,,,,,92,0,9,,,,,,4,,50,0
166560,note_on,,,,,4,0,9,,,,,,4,,58,100
166572,note_off,,,,,108,0,4,,,,,,1,,67,0
166572,note_off,,,,,108,0,3,,,,,,0,,67,0
166592,note_off,,,,,128,0,5,,,,,,2,,70,0
166592,note_off,,,,,128,0,6,,,,,,3,,50,0
166592,note_off,,,,,128,0,7,,,,,,3,,38,0
166644,set_tempo,,,,,166644,1,0,,594059,,,,,,,
166648,set_tempo,,,,,4,1,0,,625000,,,,,,,
166652,note_off,,,,,92,0,9,,,,,,4,,58,0
166656,note_on,,,,,0,0,9,,,,,,4,,55,100
166656,note_on,,,,,84,0,3,,,,,,0,,61,100
166656,note_on,,,,,580,0,8,,,,,,4,,82,100
166656,note_on,,,,,64,0,7,,,,,,3,,37,100
166656,note_on,,,,,64,0,5,,,,,,2,,61,100
166656,note_on,,,,,84,0,4,,,,,,1,,61,100
166656,note_on,,,,,4,0,9,,,,,,4,,49,100
166656,note_on,,,,,64,0,6,,,,,,3,,49,100
166656,set_tempo,,,,,8,1,0,,645161,,,,,,,
166656,note_on,,,,,0,0,9,,,,,,4,,52,100
166660,set_tempo,,,,,4,1,0,,674157,,,,,,,
166664,set_tempo,,,,,4,1,0,,674157,,,,,,,
166668,set_tempo,,,,,4,1,0,,674157,,,,,,,
166676,set_tempo,,,,,8,1,0,,705882,,,,,,,
166688,set_tempo,,,,,12,1,0,,731707,,,,,,,
166692,set_tempo,,,,,4,1,0,,750000,,,,,,,
166696,set_tempo,,,,,4,1,0,,750000,,,,,,,
166700,set_tempo,,,,,4,1,0,,789473,,,,,,,
166708,set_tempo,,,,,8,1,0,,800000,,,,,,,
166712,set_tempo,,,,,4,1,0,,800000,,,,,,,
166720,set_tempo,,,,,8,1,0,,833333,,,,,,,
166724,set_tempo,,,,,4,1,0,,833333,,,,,,,
166728,set_tempo,,,,,4,1,0,,833333,,,,,,,
166732,set_tempo,,,,,4,1,0,,845070,,,,,,,
166740,set_tempo,,,,,8,1,0,,869565,,,,,,,
166744,set_tempo,,,,,4,1,0,,895522,,,,,,,
166752,set_tempo,,,,,8,1,0,,895522,,,,,,,
166752,note_on,,,,,0,0,8,,,,,,4,,81,100
166752,note_off,,,,,96,0,8,,,,,,4,,82,0
166756,set_tempo,,,,,4,1,0,,937500,,,,,,,
166764,set_tempo,,,,,8,1,0,,937500,,,,,,,
166772,set_tempo,,,,,8,1,0,,1000000,,,,,,,
166784,set_tempo,,,,,12,1,0,,1000000,,,,,,,
166788,set_tempo,,,,,4,1,0,,1000000,,,,,,,
166796,set_tempo,,,,,8,1,0,,1016949,,,,,,,
166800,note_on,,,,,0,0,8,,,,,,4,,82,100
166800,note_off,,,,,48,0,8,,,,,,4,,81,0
166804,set_tempo,,,,,8,1,0,,1090909,,,,,,,
166808,set_tempo,,,,,4,1,0,,1090909,,,,,,,
166820,set_tempo,,,,,12,1,0,,1132075,,,,,,,
166824,set_tempo,,,,,4,1,0,,1200000,,,,,,,
166828,set_tempo,,,,,4,1,0,,1200000,,,,,,,
166836,set_tempo,,,,,8,1,0,,1250000,,,,,,,
166840,set_tempo,,,,,4,1,0,,1250000,,,,,,,
166848,note_on,,,,,0,0,8,,,,,,4,,81,100
166848,set_tempo,,,,,8,1,0,,1250000,,,,,,,
166848,note_off,,,,,48,0,8,,,,,,4,,82,0
166872,note_on,,,,,24,0,8,,,,,,4,,82,100
166884,note_off,,,,,12,0,8,,,,,,4,,81,0
166892,set_tempo,,,,,44,1,0,,1250000,,,,,,,
166896,note_on,,,,,12,0,8,,,,,,4,,81,100
166904,note_off,,,,,8,0,8,,,,,,4,,82,0
166920,note_on,,,,,16,0,8,,,,,,4,,82,100
166928,note_off,,,,,8,0,8,,,,,,4,,81,0
166944,note_on,,,,,16,0,8,,,,,,4,,81,100
166952,note_off,,,,,8,0,8,,,,,,4,,82,0
166968,note_on,,,,,16,0,8,,,,,,4,,82,100
166976,note_off,,,,,8,0,8,,,,,,4,,81,0
166980,set_tempo,,,,,88,1,0,,1250000,,,,,,,
166992,note_on,,,,,16,0,8,,,,,,4,,81,100
167000,note_off,,,,,8,0,8,,,,,,4,,82,0
167016,note_on,,,,,16,0,8,,,,,,4,,82,100
167024,note_off,,,,,8,0,8,,,,,,4,,81,0
167036,note_off,,,,,380,0,9,,,,,,4,,49,0
167036,note_off,,,,,380,0,5,,,,,,2,,61,0
167036,note_off,,,,,380,0,4,,,,,,1,,61,0
167036,note_off,,,,,0,0,9,,,,,,4,,52,0
167036,note_off,,,,,380,0,6,,,,,,3,,49,0
167036,note_off,,,,,0,0,9,,,,,,4,,55,0
167036,note_off,,,,,380,0,7,,,,,,3,,37,0
167036,note_off,,,,,380,0,3,,,,,,0,,61,0
167040,note_on,,,,,16,0,8,,,,,,4,,81,100
167048,note_off,,,,,8,0,8,,,,,,4,,82,0
167076,note_off,,,,,28,0,8,,,,,,4,,81,0
167088,note_on,,,,,12,0,8,,,,,,4,,82,100
167156,set_tempo,,,,,176,1,0,,1333333,,,,,,,
167200,set_tempo,,,,,44,1,0,,1250000,,,,,,,
167220,set_tempo,,,,,20,1,0,,1200000,,,,,,,
167224,set_tempo,,,,,4,1,0,,1200000,,,,,,,
167232,set_tempo,,,,,8,1,0,,1153846,,,,,,,
167236,set_tempo,,,,,4,1,0,,1132075,,,,,,,
167244,set_tempo,,,,,8,1,0,,1090909,,,,,,,
167256,set_tempo,,,,,12,1,0,,1090909,,,,,,,
167260,set_tempo,,,,,4,1,0,,1090909,,,,,,,
167264,set_tempo,,,,,4,1,0,,1016949,,,,,,,
167268,set_tempo,,,,,4,1,0,,1000000,,,,,,,
167276,set_tempo,,,,,8,1,0,,1000000,,,,,,,
167284,set_tempo,,,,,8,1,0,,937500,,,,,,,
167292,set_tempo,,,,,8,1,0,,937500,,,,,,,
167296,set_tempo,,,,,4,1,0,,869565,,,,,,,
167300,set_tempo,,,,,4,1,0,,869565,,,,,,,
167308,set_tempo,,,,,8,1,0,,845070,,,,,,,
167316,set_tempo,,,,,8,1,0,,833333,,,,,,,
167320,set_tempo,,,,,4,1,0,,800000,,,,,,,
167324,set_tempo,,,,,4,1,0,,800000,,,,,,,
167328,set_tempo,,,,,4,1,0,,800000,,,,,,,
167332,set_tempo,,,,,4,1,0,,750000,,,,,,,
167340,set_tempo,,,,,8,1,0,,731707,,,,,,,
167352,set_tempo,,,,,12,1,0,,697674,,,,,,,
167356,set_tempo,,,,,4,1,0,,681818,,,,,,,
167360,set_tempo,,,,,4,1,0,,674157,,,,,,,
167364,set_tempo,,,,,4,1,0,,674157,,,,,,,
167372,set_tempo,,,,,8,1,0,,645161,,,,,,,
167384,set_tempo,,,,,12,1,0,,625000,,,,,,,
167388,set_tempo,,,,,4,1,0,,625000,,,,,,,
167392,set_tempo,,,,,4,1,0,,600000,,,,,,,
167396,set_tempo,,,,,4,1,0,,594059,,,,,,,
167404,set_tempo,,,,,8,1,0,,582524,,,,,,,
167412,set_tempo,,,,,8,1,0,,576923,,,,,,,
167416,set_tempo,,,,,4,1,0,,576923,,,,,,,
167420,set_tempo,,,,,4,1,0,,576923,,,,,,,
167424,set_tempo,,,,,4,1,0,,571428,,,,,,,
167428,set_tempo,,,,,4,1,0,,560747,,,,,,,
167436,set_tempo,,,,,8,1,0,,566037,,,,,,,
167440,set_tempo,,,,,4,1,0,,576923,,,,,,,
167448,set_tempo,,,,,8,1,0,,576923,,,,,,,
167456,set_tempo,,,,,8,1,0,,618556,,,,,,,
167460,set_tempo,,,,,4,1,0,,625000,,,,,,,
167468,set_tempo,,,,,8,1,0,,625000,,,,,,,
167472,set_tempo,,,,,4,1,0,,645161,,,,,,,
167476,set_tempo,,,,,4,1,0,,645161,,,,,,,
167480,set_tempo,,,,,4,1,0,,666666,,,,,,,
167488,set_tempo,,,,,8,1,0,,681818,,,,,,,
167492,set_tempo,,,,,4,1,0,,689655,,,,,,,
167500,set_tempo,,,,,8,1,0,,697674,,,,,,,
167504,set_tempo,,,,,4,1,0,,705882,,,,,,,
167520,note_on,,,,,432,0,8,,,,,,4,,84,100
167524,note_off,,,,,4,0,8,,,,,,4,,82,0
167556,set_tempo,,,,,52,1,0,,697674,,,,,,,
167572,set_tempo,,,,,16,1,0,,689655,,,,,,,
167584,set_tempo,,,,,12,1,0,,674157,,,,,,,
167596,set_tempo,,,,,12,1,0,,674157,,,,,,,
167600,set_tempo,,,,,4,1,0,,674157,,,,,,,
167604,set_tempo,,,,,4,1,0,,645161,,,,,,,
167608,set_tempo,,,,,4,1,0,,645161,,,,,,,
167612,note_off,,,,,88,0,8,,,,,,4,,84,0
167616,note_on,,,,,4,0,8,,,,,,4,,82,100
167616,set_tempo,,,,,8,1,0,,645161,,,,,,,
167620,set_tempo,,,,,4,1,0,,625000,,,,,,,
167628,set_tempo,,,,,8,1,0,,625000,,,,,,,
167632,set_tempo,,,,,4,1,0,,625000,,,,,,,
167636,set_tempo,,,,,4,1,0,,618556,,,,,,,
167640,set_tempo,,,,,4,1,0,,600000,,,,,,,
167648,set_tempo,,,,,8,1,0,,588235,,,,,,,
167652,set_tempo,,,,,4,1,0,,582524,,,,,,,
167660,set_tempo,,,,,8,1,0,,576923,,,,,,,
167664,set_tempo,,,,,4,1,0,,576923,,,,,,,
167672,set_tempo,,,,,8,1,0,,576923,,,,,,,
167680,set_tempo,,,,,8,1,0,,566037,,,,,,,
167692,set_tempo,,,,,12,1,0,,555555,,,,,,,
167704,set_tempo,,,,,12,1,0,,550458,,,,,,,
167708,note_off,,,,,92,0,8,,,,,,4,,82,0
167712,note_on,,,,,4,0,8,,,,,,4,,81,100
167712,set_tempo,,,,,8,1,0,,530973,,,,,,,
167716,set_tempo,,,,,4,1,0,,530973,,,,,,,
167732,set_tempo,,,,,16,1,0,,517241,,,,,,,
167744,set_tempo,,,,,12,1,0,,517241,,,,,,,
167748,set_tempo,,,,,4,1,0,,512820,,,,,,,
167756,set_tempo,,,,,8,1,0,,500000,,,,,,,
167764,set_tempo,,,,,8,1,0,,500000,,,,,,,
167768,set_tempo,,,,,4,1,0,,491803,,,,,,,
167776,set_tempo,,,,,8,1,0,,491803,,,,,,,
167780,set_tempo,,,,,4,1,0,,491803,,,,,,,
167788,set_tempo,,,,,8,1,0,,480000,,,,,,,
167792,set_tempo,,,,,4,1,0,,476190,,,,,,,
167796,set_tempo,,,,,4,1,0,,468750,,,,,,,
167804,note_off,,,,,92,0,8,,,,,,4,,81,0
167808,set_tempo,,,,,12,1,0,,461538,,,,,,,
167808,note_on,,,,,4,0,8,,,,,,4,,79,100
167820,set_tempo,,,,,12,1,0,,458015,,,,,,,
167824,set_tempo,,,,,4,1,0,,454545,,,,,,,
167832,set_tempo,,,,,8,1,0,,444444,,,,,,,
167860,set_tempo,,,,,28,1,0,,428571,,,,,,,
167872,set_tempo,,,,,12,1,0,,419580,,,,,,,
167876,set_tempo,,,,,4,1,0,,413793,,,,,,,
167888,set_tempo,,,,,12,1,0,,408163,,,,,,,
167892,set_tempo,,,,,4,1,0,,405405,,,,,,,
167900,note_off,,,,,92,0,8,,,,,,4,,79,0
167904,set_tempo,,,,,12,1,0,,400000,,,,,,,
167904,note_on,,,,,4,0,8,,,,,,4,,81,100
167908,set_tempo,,,,,4,1,0,,397350,,,,,,,
167920,set_tempo,,,,,12,1,0,,389610,,,,,,,
167928,set_tempo,,,,,8,1,0,,384615,,,,,,,
167936,set_tempo,,,,,8,1,0,,375000,,,,,,,
167948,set_tempo,,,,,12,1,0,,375000,,,,,,,
167952,set_tempo,,,,,4,1,0,,370370,,,,,,,
167960,set_tempo,,,,,8,1,0,,368098,,,,,,,
167968,set_tempo,,,,,8,1,0,,363636,,,,,,,
167980,set_tempo,,,,,12,1,0,,359281,,,,,,,
167988,set_tempo,,,,,8,1,0,,359281,,,,,,,
167996,note_off,,,,,92,0,8,,,,,,4,,81,0
168000,set_tempo,,,,,12,1,0,,350877,,,,,,,
168000,note_on,,,,,4,0,8,,,,,,4,,82,100
168024,set_tempo,,,,,24,1,0,,348837,,,,,,,
168032,set_tempo,,,,,8,1,0,,348837,,,,,,,
168044,set_tempo,,,,,12,1,0,,340909,,,,,,,
168052,set_tempo,,,,,8,1,0,,338983,,,,,,,
168064,set_tempo,,,,,12,1,0,,338983,,,,,,,
168068,set_tempo,,,,,4,1,0,,333333,,,,,,,
168076,set_tempo,,,,,8,1,0,,329670,,,,,,,
168092,note_off,,,,,92,0,8,,,,,,4,,82,0
168096,note_on,,,,,4,0,8,,,,,,4,,81,100
168100,set_tempo,,,,,24,1,0,,329670,,,,,,,
168112,set_tempo,,,,,12,1,0,,324324,,,,,,,
168120,set_tempo,,,,,8,1,0,,324324,,,,,,,
168128,set_tempo,,,,,8,1,0,,317460,,,,,,,
168140,set_tempo,,,,,12,1,0,,314136,,,,,,,
168148,set_tempo,,,,,8,1,0,,312500,,,,,,,
168160,set_tempo,,,,,12,1,0,,307692,,,,,,,
168164,set_tempo,,,,,4,1,0,,306122,,,,,,,
168176,set_tempo,,,,,12,1,0,,303030,,,,,,,
168188,note_off,,,,,92,0,8,,,,,,4,,81,0
168192,note_on,,,,,4,0,8,,,,,,4,,79,100
168204,set_tempo,,,,,28,1,0,,295566,,,,,,,
168228,set_tempo,,,,,24,1,0,,284360,,,,,,,
168240,set_tempo,,,,,12,1,0,,279069,,,,,,,
168248,set_tempo,,,,,8,1,0,,275229,,,,,,,
168256,set_tempo,,,,,8,1,0,,271493,,,,,,,
168268,set_tempo,,,,,12,1,0,,270270,,,,,,,
168276,set_tempo,,,,,8,1,0,,267857,,,,,,,
168284,note_off,,,,,92,0,8,,,,,,4,,79,0
168288,set_tempo,,,,,12,1,0,,267857,,,,,,,
168288,note_on,,,,,4,0,8,,,,,,4,,77,100
168300,set_tempo,,,,,12,1,0,,264317,,,,,,,
168324,set_tempo,,,,,24,1,0,,264317,,,,,,,
168336,set_tempo,,,,,12,1,0,,264317,,,,,,,
168352,set_tempo,,,,,16,1,0,,263157,,,,,,,
168380,note_off,,,,,92,0,8,,,,,,4,,77,0
168384,note_on,,,,,4,0,8,,,,,,4,,76,100
168432,set_tempo,,,,,80,1,0,,259740,,,,,,,
168460,set_tempo,,,,,28,1,0,,259740,,,,,,,
168476,note_off,,,,,92,0,8,,,,,,4,,76,0
168480,note_on,,,,,4,0,8,,,,,,4,,77,100
168496,set_tempo,,,,,36,1,0,,259740,,,,,,,
168548,set_tempo,,,,,52,1,0,,256410,,,,,,,
168572,note_off,,,,,92,0,8,,,,,,4,,77,0
168576,note_on,,,,,4,0,8,,,,,,4,,79,100
168664,set_tempo,,,,,116,1,0,,259740,,,,,,,
168668,note_off,,,,,92,0,8,,,,,,4,,79,0
168672,note_on,,,,,4,0,8,,,,,,4,,77,100
168696,set_tempo,,,,,32,1,0,,259740,,,,,,,
168736,set_tempo,,,,,40,1,0,,263157,,,,,,,
168764,note_off,,,,,92,0,8,,,,,,4,,77,0
168768,note_on,,,,,4,0,8,,,,,,4,,76,100
168772,set_tempo,,,,,36,1,0,,264317,,,,,,,
168800,set_tempo,,,,,28,1,0,,264317,,,,,,,
168812,set_tempo,,,,,12,1,0,,264317,,,,,,,
168820,set_tempo,,,,,8,1,0,,267857,,,,,,,
168832,set_tempo,,,,,12,1,0,,267857,,,,,,,
168848,set_tempo,,,,,16,1,0,,270270,,,,,,,
168860,note_off,,,,,92,0,8,,,,,,4,,76,0
168864,note_on,,,,,4,0,8,,,,,,4,,74,100
168876,set_tempo,,,,,28,1,0,,271493,,,,,,,
168880,set_tempo,,,,,4,1,0,,272727,,,,,,,
168888,set_tempo,,,,,8,1,0,,275229,,,,,,,
168900,set_tempo,,,,,12,1,0,,279069,,,,,,,
168912,set_tempo,,,,,12,1,0,,280373,,,,,,,
168920,set_tempo,,,,,8,1,0,,281690,,,,,,,
168928,set_tempo,,,,,8,1,0,,281690,,,,,,,
168948,set_tempo,,,,,20,1,0,,284360,,,,,,,
168956,note_off,,,,,92,0,8,,,,,,4,,74,0
168960,note_on,,,,,4,0,8,,,,,,4,,73,100
168960,set_tempo,,,,,12,1,0,,284360,,,,,,,
168964,set_tempo,,,,,4,1,0,,285714,,,,,,,
168972,set_tempo,,,,,8,1,0,,287081,,,,,,,
168980,set_tempo,,,,,8,1,0,,289855,,,,,,,
168992,set_tempo,,,,,12,1,0,,291262,,,,,,,
168996,set_tempo,,,,,4,1,0,,295566,,,,,,,
169004,set_tempo,,,,,8,1,0,,297029,,,,,,,
169008,set_tempo,,,,,4,1,0,,298507,,,,,,,
169024,set_tempo,,,,,16,1,0,,303030,,,,,,,
169028,set_tempo,,,,,4,1,0,,303030,,,,,,,
169052,note_off,,,,,92,0,8,,,,,,4,,73,0
169056,note_on,,,,,4,0,8,,,,,,4,,74,100
169060,set_tempo,,,,,32,1,0,,300000,,,,,,,
169148,note_off,,,,,92,0,8,,,,,,4,,74,0
169152,set_tempo,,,,,92,1,0,,298507,,,,,,,
169152,note_on,,,,,4,0,8,,,,,,4,,76,100
169208,set_tempo,,,,,56,1,0,,298507,,,,,,,
169236,set_tempo,,,,,28,1,0,,298507,,,,,,,
169244,note_off,,,,,92,0,8,,,,,,4,,76,0
169248,note_on,,,,,4,0,8,,,,,,4,,74,100
169324,set_tempo,,,,,88,1,0,,298507,,,,,,,
169340,note_off,,,,,92,0,8,,,,,,4,,74,0
169344,note_on,,,,,4,0,8,,,,,,4,,73,100
169436,note_off,,,,,92,0,8,,,,,,4,,73,0
169440,note_on,,,,,4,0,8,,,,,,4,,71,100
169532,note_off,,,,,92,0,8,,,,,,4,,71,0
169536,note_on,,,,,4,0,8,,,,,,4,,69,100
169628,note_off,,,,,92,0,8,,,,,,4,,69,0
169632,note_on,,,,,4,0,8,,,,,,4,,71,100
169724,note_off,,,,,92,0,8,,,,,,4,,71,0
169728,note_on,,,,,4,0,8,,,,,,4,,73,100
169732,set_tempo,,,,,408,1,0,,298507,,,,,,,
169772,set_tempo,,,,,40,1,0,,298507,,,,,,,
169780,set_tempo,,,,,8,1,0,,300000,,,,,,,
169784,set_tempo,,,,,4,1,0,,309278,,,,,,,
169792,set_tempo,,,,,8,1,0,,312500,,,,,,,
169804,set_tempo,,,,,12,1,0,,329670,,,,,,,
169812,set_tempo,,,,,8,1,0,,329670,,,,,,,
169816,set_tempo,,,,,4,1,0,,333333,,,,,,,
169820,note_off,,,,,92,0,8,,,,,,4,,73,0
169824,set_tempo,,,,,8,1,0,,338983,,,,,,,
169824,note_on,,,,,4,0,8,,,,,,4,,71,100
169828,set_tempo,,,,,4,1,0,,338983,,,,,,,
169836,set_tempo,,,,,8,1,0,,340909,,,,,,,
169844,set_tempo,,,,,8,1,0,,342857,,,,,,,
169852,set_tempo,,,,,8,1,0,,348837,,,,,,,
169868,set_tempo,,,,,16,1,0,,342857,,,,,,,
169880,set_tempo,,,,,12,1,0,,338983,,,,,,,
169884,set_tempo,,,,,4,1,0,,338983,,,,,,,
169888,set_tempo,,,,,4,1,0,,338983,,,,,,,
169892,set_tempo,,,,,4,1,0,,333333,,,,,,,
169900,set_tempo,,,,,8,1,0,,329670,,,,,,,
169916,note_off,,,,,92,0,8,,,,,,4,,71,0
169920,note_on,,,,,4,0,8,,,,,,4,,69,100
170012,note_off,,,,,92,0,8,,,,,,4,,69,0
170016,note_on,,,,,4,0,8,,,,,,4,,67,100
170108,note_off,,,,,92,0,8,,,,,,4,,67,0
170112,note_on,,,,,4,0,8,,,,,,4,,70,100
170204,note_off,,,,,92,0,8,,,,,,4,,70,0
170208,note_on,,,,,4,0,8,,,,,,4,,69,100
170300,note_off,,,,,92,0,8,,,,,,4,,69,0
170304,note_on,,,,,4,0,8,,,,,,4,,67,100
170396,note_off,,,,,92,0,8,,,,,,4,,67,0
170400,note_on,,,,,4,0,8,,,,,,4,,65,100
170492,note_off,,,,,92,0,8,,,,,,4,,65,0
170496,note_on,,,,,4,0,8,,,,,,4,,64,100
170588,note_off,,,,,92,0,8,,,,,,4,,64,0
170592,note_on,,,,,4,0,8,,,,,,4,,65,100
170684,note_off,,,,,92,0,8,,,,,,4,,65,0
170688,note_on,,,,,4,0,8,,,,,,4,,67,100
170780,note_off,,,,,92,0,8,,,,,,4,,67,0
170784,note_on,,,,,4,0,8,,,,,,4,,65,100
170876,note_off,,,,,92,0,8,,,,,,4,,65,0
170880,note_on,,,,,4,0,8,,,,,,4,,64,100
170972,note_off,,,,,92,0,8,,,,,,4,,64,0
170976,note_on,,,,,4,0,8,,,,,,4,,62,100
171068,note_off,,,,,92,0,8,,,,,,4,,62,0
171072,note_on,,,,,4,0,8,,,,,,4,,61,100
171164,note_off,,,,,92,0,8,,,,,,4,,61,0
171168,note_on,,,,,4,0,8,,,,,,4,,62,100
171260,note_off,,,,,92,0,8,,,,,,4,,62,0
171264,note_on,,,,,4,0,8,,,,,,4,,64,100
171356,note_off,,,,,92,0,8,,,,,,4,,64,0
171360,note_on,,,,,4,0,8,,,,,,4,,62,100
171452,note_off,,,,,92,0,8,,,,,,4,,62,0
171456,note_on,,,,,4,0,8,,,,,,4,,61,100
171548,note_off,,,,,92,0,8,,,,,,4,,61,0
171552,note_on,,,,,4,0,8,,,,,,4,,59,100
171636,set_tempo,,,,,1736,1,0,,333333,,,,,,,
171644,note_off,,,,,92,0,8,,,,,,4,,59,0
171648,set_tempo,,,,,12,1,0,,535714,,,,,,,
171652,set_tempo,,,,,4,1,0,,576923,,,,,,,
171656,set_tempo,,,,,4,1,0,,625000,,,,,,,
171660,set_tempo,,,,,4,1,0,,674157,,,,,,,
171660,note_on,,,,,4624,0,9,,,,,,4,,57,100
171668,set_tempo,,,,,8,1,0,,681818,,,,,,,
171676,set_tempo,,,,,8,1,0,,705882,,,,,,,
171680,set_tempo,,,,,4,1,0,,731707,,,,,,,
171684,set_tempo,,,,,4,1,0,,731707,,,,,,,
171688,set_tempo,,,,,4,1,0,,731707,,,,,,,
171692,set_tempo,,,,,4,1,0,,750000,,,,,,,
171700,set_tempo,,,,,8,1,0,,750000,,,,,,,
171904,note_on,,,,,244,0,9,,,,,,4,,59,100
171932,note_off,,,,,28,0,9,,,,,,4,,57,0
172028,note_on,,,,,96,0,9,,,,,,4,,57,100
172032,note_off,,,,,4,0,9,,,,,,4,,59,0
172064,set_tempo,,,,,364,1,0,,750000,,,,,,,
172084,set_tempo,,,,,20,1,0,,750000,,,,,,,
172088,set_tempo,,,,,4,1,0,,731707,,,,,,,
172116,note_off,,,,,84,0,9,,,,,,4,,57,0
172120,note_on,,,,,4,0,9,,,,,,4,,59,100
172128,set_tempo,,,,,40,1,0,,731707,,,,,,,
172140,set_tempo,,,,,12,1,0,,705882,,,,,,,
172168,set_tempo,,,,,28,1,0,,697674,,,,,,,
172180,set_tempo,,,,,12,1,0,,689655,,,,,,,
172200,note_on,,,,,80,0,9,,,,,,4,,57,100
172204,set_tempo,,,,,24,1,0,,681818,,,,,,,
172216,note_off,,,,,16,0,9,,,,,,4,,59,0
172232,set_tempo,,,,,28,1,0,,674157,,,,,,,
172256,note_on,,,,,40,0,9,,,,,,4,,59,100
172260,set_tempo,,,,,28,1,0,,674157,,,,,,,
172296,note_off,,,,,40,0,9,,,,,,4,,57,0
172296,set_tempo,,,,,36,1,0,,645161,,,,,,,
172324,set_tempo,,,,,28,1,0,,645161,,,,,,,
172332,note_on,,,,,36,0,9,,,,,,4,,57,100
172352,note_off,,,,,20,0,9,,,,,,4,,59,0
172360,set_tempo,,,,,36,1,0,,625000,,,,,,,
172388,note_on,,,,,36,0,9,,,,,,4,,59,100
172388,set_tempo,,,,,28,1,0,,625000,,,,,,,
172396,set_tempo,,,,,8,1,0,,625000,,,,,,,
172404,set_tempo,,,,,8,1,0,,600000,,,,,,,
172408,set_tempo,,,,,4,1,0,,594059,,,,,,,
172412,note_off,,,,,24,0,9,,,,,,4,,57,0
172420,set_tempo,,,,,12,1,0,,588235,,,,,,,
172428,set_tempo,,,,,8,1,0,,576923,,,,,,,
172456,set_tempo,,,,,28,1,0,,576923,,,,,,,
172464,note_on,,,,,52,0,9,,,,,,4,,57,100
172468,note_off,,,,,4,0,9,,,,,,4,,59,0
172484,set_tempo,,,,,28,1,0,,576923,,,,,,,
172512,note_on,,,,,44,0,9,,,,,,4,,59,100
172512,set_tempo,,,,,28,1,0,,571428,,,,,,,
172520,set_tempo,,,,,8,1,0,,566037,,,,,,,
172532,set_tempo,,,,,12,1,0,,555555,,,,,,,
172540,note_off,,,,,28,0,9,,,,,,4,,57,0
172544,set_tempo,,,,,12,1,0,,535714,,,,,,,
172560,note_on,,,,,20,0,9,,,,,,4,,57,100
172568,set_tempo,,,,,24,1,0,,530973,,,,,,,
172576,note_off,,,,,16,0,9,,,,,,4,,59,0
172580,set_tempo,,,,,12,1,0,,530973,,,,,,,
172608,set_tempo,,,,,28,1,0,,521739,,,,,,,
172660,set_tempo,,,,,52,1,0,,517241,,,,,,,
172664,set_tempo,,,,,4,1,0,,517241,,,,,,,
172692,set_tempo,,,,,28,1,0,,517241,,,,,,,
172696,set_tempo,,,,,4,1,0,,500000,,,,,,,
172724,set_tempo,,,,,28,1,0,,500000,,,,,,,
172728,set_tempo,,,,,4,1,0,,491803,,,,,,,
172744,set_tempo,,,,,16,1,0,,491803,,,,,,,
172748,set_tempo,,,,,4,1,0,,491803,,,,,,,
172756,set_tempo,,,,,8,1,0,,476190,,,,,,,
172788,set_tempo,,,,,32,1,0,,476190,,,,,,,
172800,set_tempo,,,,,12,1,0,,468750,,,,,,,
172872,set_tempo,,,,,72,1,0,,465116,,,,,,,
172904,set_tempo,,,,,32,1,0,,461538,,,,,,,
173060,note_off,,,,,484,0,9,,,,,,4,,57,0
173156,set_tempo,,,,,252,1,0,,458015,,,,,,,
173160,set_tempo,,,,,4,1,0,,461538,,,,,,,
173168,set_tempo,,,,,8,1,0,,468750,,,,,,,
173176,set_tempo,,,,,8,1,0,,476190,,,,,,,
173180,set_tempo,,,,,4,1,0,,491803,,,,,,,
173184,set_tempo,,,,,4,1,0,,500000,,,,,,,
173192,set_tempo,,,,,8,1,0,,512820,,,,,,,
173200,set_tempo,,,,,8,1,0,,517241,,,,,,,
173208,set_tempo,,,,,8,1,0,,530973,,,,,,,
173212,set_tempo,,,,,4,1,0,,530973,,,,,,,
173216,set_tempo,,,,,4,1,0,,550458,,,,,,,
173220,set_tempo,,,,,4,1,0,,566037,,,,,,,
173224,set_tempo,,,,,4,1,0,,576923,,,,,,,
173232,set_tempo,,,,,8,1,0,,600000,,,,,,,
173240,set_tempo,,,,,8,1,0,,625000,,,,,,,
173244,set_tempo,,,,,4,1,0,,645161,,,,,,,
173248,set_tempo,,,,,4,1,0,,666666,,,,,,,
173252,set_tempo,,,,,4,1,0,,674157,,,,,,,
173256,set_tempo,,,,,4,1,0,,689655,,,,,,,
173264,set_tempo,,,,,8,1,0,,705882,,,,,,,
173272,set_tempo,,,,,8,1,0,,731707,,,,,,,
173276,set_tempo,,,,,4,1,0,,750000,,,,,,,
173280,note_on,,,,,220,0,9,,,,,,4,,59,100
173280,set_tempo,,,,,4,1,0,,779220,,,,,,,
173296,set_tempo,,,,,16,1,0,,800000,,,,,,,
173308,set_tempo,,,,,12,1,0,,789473,,,,,,,
173316,set_tempo,,,,,8,1,0,,779220,,,,,,,
173328,set_tempo,,,,,12,1,0,,750000,,,,,,,
173336,set_tempo,,,,,8,1,0,,750000,,,,,,,
173344,set_tempo,,,,,8,1,0,,731707,,,,,,,
173348,set_tempo,,,,,4,1,0,,731707,,,,,,,
173356,set_tempo,,,,,8,1,0,,731707,,,,,,,
173368,set_tempo,,,,,12,1,0,,731707,,,,,,,
173372,note_off,,,,,92,0,9,,,,,,4,,59,0
173376,note_on,,,,,4,0,9,,,,,,4,,61,100
173380,set_tempo,,,,,12,1,0,,705882,,,,,,,
173388,set_tempo,,,,,8,1,0,,697674,,,,,,,
173392,set_tempo,,,,,4,1,0,,689655,,,,,,,
173400,set_tempo,,,,,8,1,0,,681818,,,,,,,
173412,set_tempo,,,,,12,1,0,,674157,,,,,,,
173428,set_tempo,,,,,16,1,0,,674157,,,,,,,
173436,set_tempo,,,,,8,1,0,,666666,,,,,,,
173468,note_off,,,,,92,0,9,,,,,,4,,61,0
173472,note_on,,,,,4,0,9,,,,,,4,,62,100
173476,set_tempo,,,,,40,1,0,,645161,,,,,,,
173484,set_tempo,,,,,8,1,0,,645161,,,,,,,
173500,set_tempo,,,,,16,1,0,,645161,,,,,,,
173520,set_tempo,,,,,20,1,0,,625000,,,,,,,
173532,set_tempo,,,,,12,1,0,,625000,,,,,,,
173540,set_tempo,,,,,8,1,0,,625000,,,,,,,
173548,set_tempo,,,,,8,1,0,,618556,,,,,,,
173560,set_tempo,,,,,12,1,0,,600000,,,,,,,
173564,note_off,,,,,92,0,9,,,,,,4,,62,0
173568,note_on,,,,,1924,0,8,,,,,,4,,64,100
173572,set_tempo,,,,,12,1,0,,588235,,,,,,,
173580,set_tempo,,,,,8,1,0,,582524,,,,,,,
173588,set_tempo,,,,,8,1,0,,576923,,,,,,,
173592,set_tempo,,,,,4,1,0,,576923,,,,,,,
173596,set_tempo,,,,,4,1,0,,571428,,,,,,,
173604,set_tempo,,,,,8,1,0,,566037,,,,,,,
173612,set_tempo,,,,,8,1,0,,555555,,,,,,,
173616,set_tempo,,,,,4,1,0,,550458,,,,,,,
173620,set_tempo,,,,,4,1,0,,535714,,,,,,,
173628,set_tempo,,,,,8,1,0,,530973,,,,,,,
173636,set_tempo,,,,,8,1,0,,521739,,,,,,,
173644,set_tempo,,,,,8,1,0,,517241,,,,,,,
173648,set_tempo,,,,,4,1,0,,512820,,,,,,,
173660,set_tempo,,,,,12,1,0,,500000,,,,,,,
173660,note_off,,,,,92,0,8,,,,,,4,,64,0
173664,note_on,,,,,4,0,8,,,,,,4,,65,100
173668,set_tempo,,,,,8,1,0,,491803,,,,,,,
173680,set_tempo,,,,,12,1,0,,491803,,,,,,,
173684,set_tempo,,,,,4,1,0,,491803,,,,,,,
173688,set_tempo,,,,,4,1,0,,476190,,,,,,,
173692,set_tempo,,,,,4,1,0,,468750,,,,,,,
173700,set_tempo,,,,,8,1,0,,465116,,,,,,,
173708,set_tempo,,,,,8,1,0,,458015,,,,,,,
173712,set_tempo,,,,,4,1,0,,454545,,,,,,,
173720,set_tempo,,,,,8,1,0,,447761,,,,,,,
173732,set_tempo,,,,,12,1,0,,441176,,,,,,,
173740,set_tempo,,,,,8,1,0,,437956,,,,,,,
173744,set_tempo,,,,,4,1,0,,437956,,,,,,,
173748,set_tempo,,,,,4,1,0,,428571,,,,,,,
173756,note_off,,,,,92,0,8,,,,,,4,,65,0
173756,set_tempo,,,,,8,1,0,,422535,,,,,,,
173760,note_on,,,,,4,0,8,,,,,,4,,67,100
173764,set_tempo,,,,,8,1,0,,419580,,,,,,,
173776,set_tempo,,,,,12,1,0,,413793,,,,,,,
173780,set_tempo,,,,,4,1,0,,408163,,,,,,,
173784,set_tempo,,,,,4,1,0,,405405,,,,,,,
173788,set_tempo,,,,,4,1,0,,400000,,,,,,,
173796,set_tempo,,,,,8,1,0,,400000,,,,,,,
173804,set_tempo,,,,,8,1,0,,397350,,,,,,,
173812,set_tempo,,,,,8,1,0,,389610,,,,,,,
173816,set_tempo,,,,,4,1,0,,389610,,,,,,,
173820,set_tempo,,,,,4,1,0,,384615,,,,,,,
173828,set_tempo,,,,,8,1,0,,377358,,,,,,,
173840,set_tempo,,,,,12,1,0,,375000,,,,,,,
173844,set_tempo,,,,,4,1,0,,370370,,,,,,,
173852,set_tempo,,,,,8,1,0,,368098,,,,,,,
173852,note_off,,,,,92,0,8,,,,,,4,,67,0
173856,note_on,,,,,4,0,8,,,,,,4,,64,100
173860,set_tempo,,,,,8,1,0,,363636,,,,,,,
173868,set_tempo,,,,,8,1,0,,359281,,,,,,,
173876,set_tempo,,,,,8,1,0,,359281,,,,,,,
173880,set_tempo,,,,,4,1,0,,352941,,,,,,,
173884,set_tempo,,,,,4,1,0,,348837,,,,,,,
173892,set_tempo,,,,,8,1,0,,348837,,,,,,,
173900,set_tempo,,,,,8,1,0,,340909,,,,,,,
173904,set_tempo,,,,,4,1,0,,338983,,,,,,,
173908,set_tempo,,,,,4,1,0,,338983,,,,,,,
173916,set_tempo,,,,,8,1,0,,333333,,,,,,,
173924,set_tempo,,,,,8,1,0,,324324,,,,,,,
173932,set_tempo,,,,,8,1,0,,322580,,,,,,,
173936,set_tempo,,,,,4,1,0,,315789,,,,,,,
173940,set_tempo,,,,,4,1,0,,312500,,,,,,,
173944,set_tempo,,,,,4,1,0,,309278,,,,,,,
173948,set_tempo,,,,,4,1,0,,306122,,,,,,,
173948,note_off,,,,,92,0,8,,,,,,4,,64,0
173952,note_on,,,,,388,0,9,,,,,,4,,61,100
173956,set_tempo,,,,,8,1,0,,300000,,,,,,,
173960,set_tempo,,,,,4,1,0,,298507,,,,,,,
173980,set_tempo,,,,,20,1,0,,298507,,,,,,,
173984,set_tempo,,,,,4,1,0,,298507,,,,,,,
173996,set_tempo,,,,,12,1,0,,297029,,,,,,,
174032,set_tempo,,,,,36,1,0,,295566,,,,,,,
174044,note_off,,,,,92,0,9,,,,,,4,,61,0
174048,note_on,,,,,4,0,9,,,,,,4,,62,100
174048,set_tempo,,,,,16,1,0,,291262,,,,,,,
174064,set_tempo,,,,,16,1,0,,289855,,,,,,,
174076,set_tempo,,,,,12,1,0,,289855,,,,,,,
174080,set_tempo,,,,,4,1,0,,287081,,,,,,,
174092,set_tempo,,,,,12,1,0,,285714,,,,,,,
174096,set_tempo,,,,,4,1,0,,284360,,,,,,,
174108,set_tempo,,,,,12,1,0,,281690,,,,,,,
174120,set_tempo,,,,,12,1,0,,279069,,,,,,,
174124,set_tempo,,,,,4,1,0,,275229,,,,,,,
174132,set_tempo,,,,,8,1,0,,275229,,,,,,,
174140,set_tempo,,,,,8,1,0,,272727,,,,,,,
174140,note_off,,,,,92,0,9,,,,,,4,,62,0
174144,set_tempo,,,,,4,1,0,,271493,,,,,,,
174144,note_on,,,,,4,0,9,,,,,,4,,64,100
174156,set_tempo,,,,,12,1,0,,270270,,,,,,,
174172,set_tempo,,,,,16,1,0,,269058,,,,,,,
174236,note_off,,,,,92,0,9,,,,,,4,,64,0
174240,note_on,,,,,4,0,9,,,,,,4,,65,100
174280,set_tempo,,,,,108,1,0,,270270,,,,,,,
174332,note_off,,,,,92,0,9,,,,,,4,,65,0
174336,note_on,,,,,388,0,8,,,,,,4,,67,100
174336,set_tempo,,,,,56,1,0,,271493,,,,,,,
174428,note_off,,,,,92,0,8,,,,,,4,,67,0
174432,note_on,,,,,4,0,8,,,,,,4,,69,100
174440,set_tempo,,,,,104,1,0,,281690,,,,,,,
174524,set_tempo,,,,,84,1,0,,281690,,,,,,,
174524,note_off,,,,,92,0,8,,,,,,4,,69,0
174528,note_on,,,,,4,0,8,,,,,,4,,70,100
174568,set_tempo,,,,,44,1,0,,284360,,,,,,,
174580,set_tempo,,,,,12,1,0,,285714,,,,,,,
174588,set_tempo,,,,,8,1,0,,287081,,,,,,,
174592,set_tempo,,,,,4,1,0,,289855,,,,,,,
174600,set_tempo,,,,,8,1,0,,291262,,,,,,,
174604,set_tempo,,,,,4,1,0,,297029,,,,,,,
174608,set_tempo,,,,,4,1,0,,298507,,,,,,,
174612,set_tempo,,,,,4,1,0,,303030,,,,,,,
174620,set_tempo,,,,,8,1,0,,314136,,,,,,,
174620,note_off,,,,,92,0,8,,,,,,4,,70,0
174624,set_tempo,,,,,4,1,0,,324324,,,,,,,
174624,note_on,,,,,4,0,8,,,,,,4,,67,100
174632,set_tempo,,,,,8,1,0,,329670,,,,,,,
174636,set_tempo,,,,,4,1,0,,329670,,,,,,,
174640,set_tempo,,,,,4,1,0,,333333,,,,,,,
174644,set_tempo,,,,,4,1,0,,348837,,,,,,,
174652,set_tempo,,,,,8,1,0,,368098,,,,,,,
174656,set_tempo,,,,,4,1,0,,375000,,,,,,,
174664,set_tempo,,,,,8,1,0,,384615,,,,,,,
174696,set_tempo,,,,,32,1,0,,384615,,,,,,,
174704,set_tempo,,,,,8,1,0,,377358,,,,,,,
174716,note_off,,,,,92,0,8,,,,,,4,,67,0
174720,note_on,,,,,4,0,8,,,,,,4,,64,100
174768,set_tempo,,,,,64,1,0,,375000,,,,,,,
174808,set_tempo,,,,,40,1,0,,375000,,,,,,,
174812,note_off,,,,,92,0,8,,,,,,4,,64,0
174816,note_on,,,,,4,0,8,,,,,,4,,65,100
174840,set_tempo,,,,,32,1,0,,370370,,,,,,,
174872,set_tempo,,,,,32,1,0,,368098,,,,,,,
174908,note_off,,,,,92,0,8,,,,,,4,,65,0
174912,note_on,,,,,4,0,8,,,,,,4,,67,100
174940,set_tempo,,,,,68,1,0,,368098,,,,,,,
174952,set_tempo,,,,,12,1,0,,363636,,,,,,,
174968,set_tempo,,,,,16,1,0,,363636,,,,,,,
174980,set_tempo,,,,,12,1,0,,359281,,,,,,,
174984,set_tempo,,,,,4,1,0,,359281,,,,,,,
175004,note_off,,,,,92,0,8,,,,,,4,,67,0
175008,note_on,,,,,4,0,8,,,,,,4,,69,100
175012,set_tempo,,,,,28,1,0,,359281,,,,,,,
175016,set_tempo,,,,,4,1,0,,352941,,,,,,,
175044,set_tempo,,,,,28,1,0,,350877,,,,,,,
175052,set_tempo,,,,,8,1,0,,348837,,,,,,,
175064,set_tempo,,,,,12,1,0,,348837,,,,,,,
175088,set_tempo,,,,,24,1,0,,348837,,,,,,,
175096,set_tempo,,,,,8,1,0,,342857,,,,,,,
175100,note_off,,,,,92,0,8,,,,,,4,,69,0
175100,set_tempo,,,,,4,1,0,,340909,,,,,,,
175104,note_on,,,,,4,0,8,,,,,,4,,70,100
175120,set_tempo,,,,,20,1,0,,338983,,,,,,,
175132,set_tempo,,,,,12,1,0,,338983,,,,,,,
175144,set_tempo,,,,,12,1,0,,338983,,,,,,,
175160,set_tempo,,,,,16,1,0,,333333,,,,,,,
175192,set_tempo,,,,,32,1,0,,333333,,,,,,,
175196,note_off,,,,,92,0,8,,,,,,4,,70,0
175200,note_on,,,,,4,0,8,,,,,,4,,73,100
175208,set_tempo,,,,,16,1,0,,329670,,,,,,,
175244,set_tempo,,,,,36,1,0,,329670,,,,,,,
175292,note_off,,,,,92,0,8,,,,,,4,,73,0
175296,note_on,,,,,4,0,8,,,,,,4,,74,100
175324,set_tempo,,,,,80,1,0,,329670,,,,,,,
175388,note_off,,,,,92,0,8,,,,,,4,,74,0
175392,note_on,,,,,4,0,8,,,,,,4,,76,100
175468,set_tempo,,,,,144,1,0,,329670,,,,,,,
175484,note_off,,,,,92,0,8,,,,,,4,,76,0
175488,note_on,,,,,4,0,8,,,,,,4,,74,100
175576,set_tempo,,,,,108,1,0,,333333,,,,,,,
175580,note_off,,,,,92,0,8,,,,,,4,,74,0
175584,note_on,,,,,4,0,8,,,,,,4,,73,100
175664,set_tempo,,,,,88,1,0,,338983,,,,,,,
175676,note_off,,,,,92,0,8,,,,,,4,,73,0
175680,note_on,,,,,4,0,8,,,,,,4,,71,100
175708,set_tempo,,,,,44,1,0,,338983,,,,,,,
175736,set_tempo,,,,,28,1,0,,338983,,,,,,,
175740,set_tempo,,,,,4,1,0,,340909,,,,,,,
175768,set_tempo,,,,,28,1,0,,352941,,,,,,,
175772,note_off,,,,,92,0,8,,,,,,4,,71,0
175776,note_on,,,,,4,0,8,,,,,,4,,69,100
175800,set_tempo,,,,,32,1,0,,359281,,,,,,,
175804,set_tempo,,,,,4,1,0,,368098,,,,,,,
175820,set_tempo,,,,,16,1,0,,368098,,,,,,,
175868,note_off,,,,,92,0,8,,,,,,4,,69,0
175872,note_on,,,,,4,0,8,,,,,,4,,67,100
175964,note_off,,,,,92,0,8,,,,,,4,,67,0
175968,note_on,,,,,4,0,8,,,,,,4,,69,100
176060,note_off,,,,,92,0,8,,,,,,4,,69,0
176064,note_on,,,,,4,0,8,,,,,,4,,71,100
176156,note_off,,,,,92,0,8,,,,,,4,,71,0
176160,note_on,,,,,4,0,8,,,,,,4,,73,100
176188,set_tempo,,,,,368,1,0,,368098,,,,,,,
176212,set_tempo,,,,,24,1,0,,363636,,,,,,,
176228,set_tempo,,,,,16,1,0,,363636,,,,,,,
176236,set_tempo,,,,,8,1,0,,359281,,,,,,,
176244,set_tempo,,,,,8,1,0,,359281,,,,,,,
176252,note_off,,,,,92,0,8,,,,,,4,,73,0
176256,note_on,,,,,4,0,8,,,,,,4,,74,100
176264,set_tempo,,,,,20,1,0,,359281,,,,,,,
176276,set_tempo,,,,,12,1,0,,352941,,,,,,,
176288,set_tempo,,,,,12,1,0,,350877,,,,,,,
176296,set_tempo,,,,,8,1,0,,348837,,,,,,,
176308,set_tempo,,,,,12,1,0,,348837,,,,,,,
176316,set_tempo,,,,,8,1,0,,348837,,,,,,,
176332,set_tempo,,,,,16,1,0,,342857,,,,,,,
176348,note_off,,,,,92,0,8,,,,,,4,,74,0
176352,note_on,,,,,4,0,8,,,,,,4,,76,100
176388,set_tempo,,,,,56,1,0,,340909,,,,,,,
176444,set_tempo,,,,,56,1,0,,338983,,,,,,,
176444,note_off,,,,,92,0,8,,,,,,4,,76,0
176448,note_on,,,,,4,0,8,,,,,,4,,77,100
176540,note_off,,,,,92,0,8,,,,,,4,,77,0
176544,note_on,,,,,4,0,8,,,,,,4,,79,100
176636,note_off,,,,,92,0,8,,,,,,4,,79,0
176640,note_on,,,,,4,0,8,,,,,,4,,81,100
176732,note_off,,,,,92,0,8,,,,,,4,,81,0
176736,note_on,,,,,4,0,8,,,,,,4,,82,100
176828,note_off,,,,,92,0,8,,,,,,4,,82,0
176828,set_tempo,,,,,384,1,0,,340909,,,,,,,
176832,note_on,,,,,4,0,8,,,,,,4,,81,100
176864,set_tempo,,,,,36,1,0,,342857,,,,,,,
176900,set_tempo,,,,,36,1,0,,348837,,,,,,,
176924,note_off,,,,,92,0,8,,,,,,4,,81,0
176928,note_on,,,,,4,0,8,,,,,,4,,79,100
176956,set_tempo,,,,,56,1,0,,348837,,,,,,,
177020,note_off,,,,,92,0,8,,,,,,4,,79,0
177024,note_on,,,,,4,0,8,,,,,,4,,77,100
177044,set_tempo,,,,,88,1,0,,350877,,,,,,,
177084,set_tempo,,,,,40,1,0,,352941,,,,,,,
177116,note_off,,,,,92,0,8,,,,,,4,,77,0
177120,set_tempo,,,,,36,1,0,,359281,,,,,,,
177120,note_on,,,,,4,0,8,,,,,,4,,76,100
177156,set_tempo,,,,,36,1,0,,359281,,,,,,,
177184,set_tempo,,,,,28,1,0,,363636,,,,,,,
177212,note_off,,,,,92,0,8,,,,,,4,,76,0
177212,set_tempo,,,,,28,1,0,,363636,,,,,,,
177216,note_on,,,,,4,0,8,,,,,,4,,74,100
177236,set_tempo,,,,,24,1,0,,368098,,,,,,,
177276,set_tempo,,,,,40,1,0,,368098,,,,,,,
177308,note_off,,,,,92,0,8,,,,,,4,,74,0
177312,set_tempo,,,,,36,1,0,,370370,,,,,,,
177312,note_on,,,,,4,0,8,,,,,,4,,73,100
177356,set_tempo,,,,,44,1,0,,375000,,,,,,,
177364,set_tempo,,,,,8,1,0,,375000,,,,,,,
177376,set_tempo,,,,,12,1,0,,384615,,,,,,,
177380,set_tempo,,,,,4,1,0,,384615,,,,,,,
177384,set_tempo,,,,,4,1,0,,389610,,,,,,,
177388,set_tempo,,,,,4,1,0,,397350,,,,,,,
177396,set_tempo,,,,,8,1,0,,405405,,,,,,,
177404,set_tempo,,,,,8,1,0,,422535,,,,,,,
177404,note_off,,,,,92,0,8,,,,,,4,,73,0
177408,set_tempo,,,,,4,1,0,,437956,,,,,,,
177408,note_on,,,,,4,0,8,,,,,,4,,74,100
177416,set_tempo,,,,,8,1,0,,465116,,,,,,,
177424,set_tempo,,,,,8,1,0,,476190,,,,,,,
177428,set_tempo,,,,,4,1,0,,491803,,,,,,,
177432,set_tempo,,,,,4,1,0,,491803,,,,,,,
177436,set_tempo,,,,,4,1,0,,500000,,,,,,,
177440,set_tempo,,,,,4,1,0,,517241,,,,,,,
177448,set_tempo,,,,,8,1,0,,521739,,,,,,,
177456,set_tempo,,,,,8,1,0,,535714,,,,,,,
177460,set_tempo,,,,,4,1,0,,560747,,,,,,,
177464,set_tempo,,,,,4,1,0,,582524,,,,,,,
177468,set_tempo,,,,,4,1,0,,576923,,,,,,,
177536,note_off,,,,,128,0,8,,,,,,4,,74,0
177600,note_on,,,,,10564,0,6,,,,,,3,,51,100
177600,note_on,,,,,10564,0,5,,,,,,2,,67,100
177600,note_on,,,,,10564,0,4,,,,,,1,,70,100
177600,note_on,,,,,10564,0,7,,,,,,3,,39,100
177600,note_on,,,,,64,0,8,,,,,,4,,70,100
177600,note_on,,,,,3268,0,9,,,,,,4,,51,100
177600,note_on,,,,,0,0,8,,,,,,4,,75,100
177600,note_on,,,,,0,0,8,,,,,,4,,79,100
177600,note_on,,,,,10564,0,3,,,,,,0,,79,100
177728,note_off,,,,,0,0,8,,,,,,4,,75,0
177728,note_off,,,,,128,0,7,,,,,,3,,39,0
177728,note_off,,,,,128,0,8,,,,,,4,,70,0
177728,note_off,,,,,128,0,9,,,,,,4,,51,0
177728,note_off,,,,,128,0,5,,,,,,2,,67,0
177728,note_off,,,,,0,0,8,,,,,,4,,79,0
177728,note_off,,,,,128,0,4,,,,,,1,,70,0
177728,note_off,,,,,128,0,6,,,,,,3,,51,0
177728,note_off,,,,,128,0,3,,,,,,0,,79,0
177792,note_on,,,,,64,0,4,,,,,,1,,75,100
177792,note_on,,,,,64,0,9,,,,,,4,,48,100
177792,note_on,,,,,64,0,5,,,,,,2,,72,100
177792,note_on,,,,,64,0,7,,,,,,3,,36,100
177792,note_on,,,,,64,0,8,,,,,,4,,72,100
177792,note_on,,,,,0,0,8,,,,,,4,,75,100
177792,note_on,,,,,64,0,3,,,,,,0,,81,100
177792,note_on,,,,,64,0,6,,,,,,3,,48,100
177792,note_on,,,,,0,0,8,,,,,,4,,81,100
177920,note_off,,,,,128,0,5,,,,,,2,,72,0
177920,note_off,,,,,0,0,8,,,,,,4,,81,0
177920,note_off,,,,,0,0,8,,,,,,4,,75,0
177920,note_off,,,,,128,0,9,,,,,,4,,48,0
177920,note_off,,,,,128,0,8,,,,,,4,,72,0
177920,note_off,,,,,128,0,4,,,,,,1,,75,0
177920,note_off,,,,,128,0,7,,,,,,3,,36,0
177920,note_off,,,,,128,0,3,,,,,,0,,81,0
177920,note_off,,,,,128,0,6,,,,,,3,,48,0
177984,note_on,,,,,64,0,4,,,,,,1,,74,100
177984,note_on,,,,,64,0,3,,,,,,0,,78,100
177984,note_on,,,,,64,0,6,,,,,,3,,50,100
177984,note_on,,,,,64,0,5,,,,,,2,,69,100
177984,note_on,,,,,64,0,8,,,,,,4,,69,100
177984,note_on,,,,,0,0,8,,,,,,4,,74,100
177984,note_on,,,,,0,0,8,,,,,,4,,78,100
177984,note_on,,,,,64,0,7,,,,,,3,,38,100
177984,note_on,,,,,64,0,9,,,,,,4,,50,100
178112,note_off,,,,,0,0,8,,,,,,4,,74,0
178112,note_off,,,,,0,0,8,,,,,,4,,78,0
178112,note_off,,,,,128,0,7,,,,,,3,,38,0
178112,note_off,,,,,128,0,8,,,,,,4,,69,0
178112,note_off,,,,,128,0,6,,,,,,3,,50,0
178112,note_off,,,,,128,0,5,,,,,,2,,69,0
178112,note_off,,,,,128,0,3,,,,,,0,,78,0
178112,note_off,,,,,128,0,4,,,,,,1,,74,0
178112,note_off,,,,,128,0,9,,,,,,4,,50,0
178176,note_on,,,,,0,0,8,,,,,,4,,79,100
178176,note_on,,,,,64,0,3,,,,,,0,,79,100
178176,note_on,,,,,64,0,4,,,,,,1,,74,100
178176,note_on,,,,,64,0,7,,,,,,3,,31,100
178176,note_on,,,,,64,0,5,,,,,,2,,70,100
178176,note_on,,,,,64,0,8,,,,,,4,,70,100
178176,note_on,,,,,0,0,8,,,,,,4,,74,100
178176,note_on,,,,,64,0,6,,,,,,3,,43,100
178176,note_on,,,,,64,0,9,,,,,,4,,55,100
178268,note_off,,,,,92,0,4,,,,,,1,,74,0
178268,note_off,,,,,92,0,9,,,,,,4,,55,0
178268,note_off,,,,,92,0,6,,,,,,3,,43,0
178268,note_off,,,,,92,0,7,,,,,,3,,31,0
178272,note_on,,,,,4,0,7,,,,,,3,,33,100
178272,note_on,,,,,4,0,4,,,,,,1,,72,100
178272,note_on,,,,,4,0,6,,,,,,3,,45,100
178272,note_on,,,,,4,0,9,,,,,,4,,57,100
178304,note_off,,,,,0,0,8,,,,,,4,,79,0
178304,note_off,,,,,0,0,8,,,,,,4,,74,0
178304,note_off,,,,,128,0,8,,,,,,4,,70,0
178364,note_off,,,,,92,0,9,,,,,,4,,57,0
178364,note_off,,,,,92,0,4,,,,,,1,,72,0
178364,note_off,,,,,92,0,6,,,,,,3,,45,0
178364,note_off,,,,,92,0,7,,,,,,3,,33,0
178368,note_on,,,,,4,0,6,,,,,,3,,46,100
178368,note_on,,,,,4,0,9,,,,,,4,,58,100
178368,note_on,,,,,4,0,4,,,,,,1,,70,100
178368,note_on,,,,,4,0,7,,,,,,3,,34,100
178432,note_off,,,,,256,0,3,,,,,,0,,79,0
178432,note_off,,,,,256,0,5,,,,,,2,,70,0
178460,note_off,,,,,92,0,4,,,,,,1,,70,0
178464,note_on,,,,,4,0,4,,,,,,1,,69,100
178496,note_off,,,,,128,0,9,,,,,,4,,58,0
178496,note_off,,,,,128,0,7,,,,,,3,,34,0
178496,note_off,,,,,128,0,6,,,,,,3,,46,0
178556,note_off,,,,,92,0,4,,,,,,1,,69,0
178560,note_on,,,,,64,0,6,,,,,,3,,45,100
178560,note_on,,,,,4,0,4,,,,,,1,,67,100
178560,note_on,,,,,64,0,9,,,,,,4,,57,100
178560,note_on,,,,,64,0,7,,,,,,3,,33,100
178588,note_on,,,,,284,0,8,,,,,,4,,81,100
178652,note_off,,,,,92,0,4,,,,,,1,,67,0
178656,note_on,,,,,4,0,4,,,,,,1,,65,100
178660,note_on,,,,,72,0,8,,,,,,4,,82,100
178672,note_off,,,,,12,0,8,,,,,,4,,81,0
178712,note_off,,,,,40,0,8,,,,,,4,,82,0
178712,note_on,,,,,0,0,8,,,,,,4,,84,100
178748,note_off,,,,,188,0,6,,,,,,3,,45,0
178748,note_off,,,,,188,0,9,,,,,,4,,57,0
178748,note_off,,,,,188,0,7,,,,,,3,,33,0
178748,note_off,,,,,92,0,4,,,,,,1,,65,0
178752,note_on,,,,,4,0,6,,,,,,3,,43,100
178752,note_on,,,,,4,0,7,,,,,,3,,31,100
178752,note_on,,,,,4,0,9,,,,,,4,,55,100
178752,note_on,,,,,4,0,4,,,,,,1,,63,100
178788,note_on,,,,,76,0,8,,,,,,4,,82,100
178796,note_off,,,,,8,0,8,,,,,,4,,84,0
178832,note_on,,,,,36,0,8,,,,,,4,,84,100
178840,note_off,,,,,8,0,8,,,,,,4,,82,0
178844,note_off,,,,,92,0,4,,,,,,1,,63,0
178848,note_on,,,,,4,0,4,,,,,,1,,62,100
178892,note_on,,,,,52,0,8,,,,,,4,,82,100
178936,note_off,,,,,44,0,8,,,,,,4,,82,0
178940,note_off,,,,,188,0,7,,,,,,3,,31,0
178940,note_off,,,,,188,0,9,,,,,,4,,55,0
178940,note_off,,,,,92,0,4,,,,,,1,,62,0
178940,note_off,,,,,188,0,6,,,,,,3,,43,0
178944,note_on,,,,,4,0,4,,,,,,1,,60,100
178944,note_on,,,,,4,0,9,,,,,,4,,60,100
178944,note_on,,,,,512,0,3,,,,,,0,,79,100
178944,note_on,,,,,4,0,7,,,,,,3,,36,100
178944,note_on,,,,,4,0,6,,,,,,3,,48,100
178944,note_on,,,,,512,0,5,,,,,,2,,60,100
178976,note_on,,,,,40,0,8,,,,,,4,,82,100
178992,note_off,,,,,16,0,8,,,,,,4,,84,0
179012,note_off,,,,,20,0,8,,,,,,4,,82,0
179020,note_on,,,,,8,0,8,,,,,,4,,84,100
179036,note_off,,,,,92,0,3,,,,,,0,,79,0
179036,note_off,,,,,92,0,5,,,,,,2,,60,0
179036,note_off,,,,,92,0,9,,,,,,4,,60,0
179040,note_on,,,,,4,0,3,,,,,,0,,77,100
179040,note_on,,,,,4,0,5,,,,,,2,,62,100
179040,note_on,,,,,4,0,9,,,,,,4,,62,100
179068,note_on,,,,,48,0,8,,,,,,4,,82,100
179080,note_off,,,,,12,0,8,,,,,,4,,84,0
179112,note_off,,,,,32,0,8,,,,,,4,,82,0
179112,note_on,,,,,0,0,8,,,,,,4,,84,100
179132,note_off,,,,,92,0,3,,,,,,0,,77,0
179132,note_off,,,,,188,0,6,,,,,,3,,48,0
179132,note_off,,,,,188,0,7,,,,,,3,,36,0
179132,note_off,,,,,188,0,4,,,,,,1,,60,0
179132,note_off,,,,,92,0,9,,,,,,4,,62,0
179132,note_off,,,,,92,0,5,,,,,,2,,62,0
179136,note_on,,,,,4,0,3,,,,,,0,,76,100
179136,note_on,,,,,4,0,7,,,,,,3,,43,100
179136,note_on,,,,,4,0,4,,,,,,1,,72,100
179136,note_on,,,,,4,0,9,,,,,,4,,64,100
179136,note_on,,,,,4,0,5,,,,,,2,,64,100
179136,note_on,,,,,4,0,6,,,,,,3,,55,100
179180,note_off,,,,,68,0,8,,,,,,4,,84,0
179204,note_on,,,,,24,0,8,,,,,,4,,84,100
179228,note_off,,,,,92,0,3,,,,,,0,,76,0
179232,note_on,,,,,4,0,3,,,,,,0,,74,100
179244,note_on,,,,,40,0,8,,,,,,4,,82,100
179260,note_off,,,,,16,0,8,,,,,,4,,84,0
179264,note_off,,,,,128,0,5,,,,,,2,,64,0
179264,note_off,,,,,128,0,9,,,,,,4,,64,0
179300,note_on,,,,,40,0,8,,,,,,4,,84,100
179304,note_off,,,,,4,0,8,,,,,,4,,82,0
179324,note_off,,,,,188,0,4,,,,,,1,,72,0
179324,note_off,,,,,92,0,3,,,,,,0,,74,0
179328,note_on,,,,,64,0,9,,,,,,4,,62,100
179328,note_on,,,,,4,0,3,,,,,,0,,72,100
179328,note_on,,,,,64,0,5,,,,,,2,,62,100
179416,note_off,,,,,112,0,8,,,,,,4,,84,0
179420,note_on,,,,,4,0,8,,,,,,4,,82,100
179420,note_off,,,,,92,0,3,,,,,,0,,72,0
179424,note_on,,,,,4,0,3,,,,,,0,,70,100
179464,note_off,,,,,44,0,8,,,,,,4,,82,0
179472,note_on,,,,,8,0,8,,,,,,4,,84,100
179516,note_off,,,,,380,0,7,,,,,,3,,43,0
179516,note_off,,,,,188,0,9,,,,,,4,,62,0
179516,note_off,,,,,188,0,5,,,,,,2,,62,0
179516,note_off,,,,,380,0,6,,,,,,3,,55,0
179516,note_off,,,,,92,0,3,,,,,,0,,70,0
179520,note_on,,,,,4,0,6,,,,,,3,,48,100
179520,note_on,,,,,4,0,9,,,,,,4,,60,100
179520,note_on,,,,,4,0,3,,,,,,0,,69,100
179520,note_on,,,,,4,0,7,,,,,,3,,36,100
179520,note_on,,,,,4,0,5,,,,,,2,,60,100
179536,note_on,,,,,64,0,8,,,,,,4,,82,100
179544,note_off,,,,,8,0,8,,,,,,4,,84,0
179560,note_on,,,,,16,0,8,,,,,,4,,84,100
179612,note_off,,,,,92,0,3,,,,,,0,,69,0
179616,note_on,,,,,0,0,8,,,,,,4,,82,100
179616,note_off,,,,,56,0,8,,,,,,4,,84,0
179616,note_on,,,,,4,0,3,,,,,,0,,67,100
179628,note_off,,,,,12,0,8,,,,,,4,,82,0
179652,note_off,,,,,24,0,8,,,,,,4,,82,0
179652,note_on,,,,,0,0,8,,,,,,4,,84,100
179684,note_on,,,,,32,0,8,,,,,,4,,82,100
179688,note_off,,,,,4,0,8,,,,,,4,,84,0
179708,note_off,,,,,188,0,7,,,,,,3,,36,0
179708,note_off,,,,,92,0,3,,,,,,0,,67,0
179708,note_off,,,,,188,0,9,,,,,,4,,60,0
179708,note_off,,,,,188,0,6,,,,,,3,,48,0
179708,note_off,,,,,188,0,5,,,,,,2,,60,0
179712,note_on,,,,,4,0,6,,,,,,3,,41,100
179712,note_on,,,,,24,0,8,,,,,,4,,81,100
179712,note_on,,,,,4,0,9,,,,,,4,,53,100
179712,note_on,,,,,388,0,4,,,,,,1,,72,100
179712,note_on,,,,,4,0,7,,,,,,3,,29,100
179712,note_on,,,,,4,0,5,,,,,,2,,65,100
179712,note_on,,,,,4,0,3,,,,,,0,,65,100
179716,note_off,,,,,4,0,8,,,,,,4,,82,0
179756,note_off,,,,,40,0,8,,,,,,4,,81,0
179760,note_on,,,,,4,0,8,,,,,,4,,82,100
179804,note_off,,,,,92,0,9,,,,,,4,,53,0
179804,note_off,,,,,92,0,4,,,,,,1,,72,0
179804,note_off,,,,,44,0,8,,,,,,4,,82,0
179804,note_off,,,,,92,0,7,,,,,,3,,29,0
179804,note_off,,,,,92,0,6,,,,,,3,,41,0
179808,note_on,,,,,4,0,8,,,,,,4,,81,100
179808,note_on,,,,,4,0,7,,,,,,3,,31,100
179808,note_on,,,,,4,0,6,,,,,,3,,43,100
179808,note_on,,,,,4,0,9,,,,,,4,,55,100
179808,note_on,,,,,4,0,4,,,,,,1,,70,100
179840,note_off,,,,,128,0,3,,,,,,0,,65,0
179852,note_off,,,,,44,0,8,,,,,,4,,81,0
179856,note_on,,,,,4,0,8,,,,,,4,,82,100
179900,note_off,,,,,44,0,8,,,,,,4,,82,0
179900,note_off,,,,,92,0,9,,,,,,4,,55,0
179900,note_off,,,,,92,0,6,,,,,,3,,43,0
179900,note_off,,,,,92,0,4,,,,,,1,,70,0
179900,note_off,,,,,188,0,5,,,,,,2,,65,0
179900,note_off,,,,,92,0,7,,,,,,3,,31,0
179904,note_on,,,,,4,0,5,,,,,,2,,72,100
179904,note_on,,,,,4,0,4,,,,,,1,,69,100
179904,note_on,,,,,4,0,9,,,,,,4,,57,100
179904,note_on,,,,,4,0,7,,,,,,3,,33,100
179904,note_on,,,,,4,0,8,,,,,,4,,81,100
179904,note_on,,,,,4,0,6,,,,,,3,,45,100
179904,note_on,,,,,64,0,3,,,,,,0,,77,100
179948,note_off,,,,,44,0,8,,,,,,4,,81,0
179952,note_on,,,,,4,0,8,,,,,,4,,82,100
179996,note_off,,,,,92,0,4,,,,,,1,,69,0
179996,note_off,,,,,44,0,8,,,,,,4,,82,0
180000,note_on,,,,,4,0,8,,,,,,4,,81,100
180000,note_on,,,,,4,0,4,,,,,,1,,67,100
180032,note_off,,,,,128,0,6,,,,,,3,,45,0
180032,note_off,,,,,128,0,9,,,,,,4,,57,0
180032,note_off,,,,,128,0,3,,,,,,0,,77,0
180032,note_off,,,,,128,0,7,,,,,,3,,33,0
180044,note_off,,,,,44,0,8,,,,,,4,,81,0
180048,note_on,,,,,4,0,8,,,,,,4,,82,100
180092,note_off,,,,,92,0,4,,,,,,1,,67,0
180092,note_off,,,,,44,0,8,,,,,,4,,82,0
180096,note_on,,,,,64,0,7,,,,,,3,,31,100
180096,note_on,,,,,4,0,8,,,,,,4,,81,100
180096,note_on,,,,,64,0,6,,,,,,3,,43,100
180096,note_on,,,,,4,0,4,,,,,,1,,65,100
180096,note_on,,,,,64,0,9,,,,,,4,,55,100
180140,note_off,,,,,44,0,8,,,,,,4,,81,0
180144,note_on,,,,,4,0,8,,,,,,4,,82,100
180188,note_off,,,,,44,0,8,,,,,,4,,82,0
180188,note_off,,,,,92,0,4,,,,,,1,,65,0
180192,note_on,,,,,4,0,8,,,,,,4,,81,100
180192,note_on,,,,,4,0,4,,,,,,1,,63,100
180236,note_off,,,,,44,0,8,,,,,,4,,81,0
180240,note_on,,,,,4,0,8,,,,,,4,,82,100
180284,note_off,,,,,92,0,4,,,,,,1,,63,0
180284,note_off,,,,,188,0,9,,,,,,4,,55,0
180284,note_off,,,,,44,0,8,,,,,,4,,82,0
180284,note_off,,,,,380,0,5,,,,,,2,,72,0
180284,note_off,,,,,188,0,7,,,,,,3,,31,0
180284,note_off,,,,,188,0,6,,,,,,3,,43,0
180288,note_on,,,,,4,0,5,,,,,,2,,65,100
180288,note_on,,,,,4,0,9,,,,,,4,,53,100
180288,note_on,,,,,4,0,7,,,,,,3,,29,100
180288,note_on,,,,,4,0,6,,,,,,3,,41,100
180288,note_on,,,,,4,0,8,,,,,,4,,81,100
180288,note_on,,,,,4,0,4,,,,,,1,,62,100
180332,note_off,,,,,44,0,8,,,,,,4,,81,0
180336,note_on,,,,,4,0,8,,,,,,4,,82,100
180380,note_off,,,,,92,0,4,,,,,,1,,62,0
180380,note_off,,,,,44,0,8,,,,,,4,,82,0
180384,note_on,,,,,4,0,4,,,,,,1,,60,100
180384,note_on,,,,,4,0,8,,,,,,4,,81,100
180428,note_off,,,,,44,0,8,,,,,,4,,81,0
180432,note_on,,,,,4,0,8,,,,,,4,,82,100
180476,note_off,,,,,188,0,6,,,,,,3,,41,0
180476,note_off,,,,,44,0,8,,,,,,4,,82,0
180476,note_off,,,,,92,0,4,,,,,,1,,60,0
180476,note_off,,,,,188,0,7,,,,,,3,,29,0
180476,note_off,,,,,188,0,5,,,,,,2,,65,0
180476,note_off,,,,,188,0,9,,,,,,4,,53,0
180480,note_on,,,,,4,0,9,,,,,,4,,58,100
180480,note_on,,,,,448,0,3,,,,,,0,,77,100
180480,note_on,,,,,4,0,5,,,,,,2,,58,100
180480,note_on,,,,,4,0,8,,,,,,4,,81,100
180480,note_on,,,,,4,0,7,,,,,,3,,34,100
180480,note_on,,,,,4,0,4,,,,,,1,,58,100
180480,note_on,,,,,4,0,6,,,,,,3,,46,100
180524,note_off,,,,,44,0,8,,,,,,4,,81,0
180528,note_on,,,,,4,0,8,,,,,,4,,82,100
180572,note_off,,,,,92,0,5,,,,,,2,,58,0
180572,note_off,,,,,92,0,3,,,,,,0,,77,0
180572,note_off,,,,,44,0,8,,,,,,4,,82,0
180572,note_off,,,,,92,0,9,,,,,,4,,58,0
180576,note_on,,,,,4,0,5,,,,,,2,,60,100
180576,note_on,,,,,4,0,8,,,,,,4,,81,100
180576,note_on,,,,,4,0,9,,,,,,4,,60,100
180576,note_on,,,,,4,0,3,,,,,,0,,76,100
180608,note_off,,,,,128,0,4,,,,,,1,,58,0
180620,note_off,,,,,44,0,8,,,,,,4,,81,0
180624,note_on,,,,,4,0,8,,,,,,4,,82,100
180668,note_off,,,,,44,0,8,,,,,,4,,82,0
180668,note_off,,,,,92,0,5,,,,,,2,,60,0
180668,note_off,,,,,92,0,3,,,,,,0,,76,0
180668,note_off,,,,,188,0,6,,,,,,3,,46,0
180668,note_off,,,,,92,0,9,,,,,,4,,60,0
180668,note_off,,,,,188,0,7,,,,,,3,,34,0
180672,note_on,,,,,4,0,8,,,,,,4,,81,100
180672,note_on,,,,,4,0,5,,,,,,2,,62,100
180672,note_on,,,,,4,0,9,,,,,,4,,62,100
180672,note_on,,,,,4,0,6,,,,,,3,,53,100
180672,note_on,,,,,4,0,3,,,,,,0,,74,100
180672,note_on,,,,,4,0,7,,,,,,3,,41,100
180672,note_on,,,,,64,0,4,,,,,,1,,70,100
180716,note_off,,,,,44,0,8,,,,,,4,,81,0
180720,note_on,,,,,4,0,8,,,,,,4,,82,100
180764,note_off,,,,,44,0,8,,,,,,4,,82,0
180764,note_off,,,,,92,0,3,,,,,,0,,74,0
180768,note_on,,,,,4,0,8,,,,,,4,,81,100
180768,note_on,,,,,4,0,3,,,,,,0,,72,100
180800,note_off,,,,,128,0,9,,,,,,4,,62,0
180800,note_off,,,,,128,0,4,,,,,,1,,70,0
180800,note_off,,,,,128,0,5,,,,,,2,,62,0
180812,note_off,,,,,44,0,8,,,,,,4,,81,0
180816,note_on,,,,,4,0,8,,,,,,4,,82,100
180860,note_off,,,,,92,0,3,,,,,,0,,72,0
180860,note_off,,,,,44,0,8,,,,,,4,,82,0
180864,note_on,,,,,64,0,9,,,,,,4,,60,100
180864,note_on,,,,,4,0,3,,,,,,0,,70,100
180864,note_on,,,,,4,0,8,,,,,,4,,81,100
180864,note_on,,,,,64,0,5,,,,,,2,,60,100
180908,note_off,,,,,44,0,8,,,,,,4,,81,0
180912,note_on,,,,,4,0,8,,,,,,4,,82,100
180956,note_off,,,,,92,0,3,,,,,,0,,70,0
180956,note_off,,,,,44,0,8,,,,,,4,,82,0
180960,note_on,,,,,4,0,3,,,,,,0,,69,100
180960,note_on,,,,,4,0,8,,,,,,4,,81,100
181004,note_off,,,,,44,0,8,,,,,,4,,81,0
181008,note_on,,,,,4,0,8,,,,,,4,,82,100
181052,note_off,,,,,380,0,6,,,,,,3,,53,0
181052,note_off,,,,,92,0,3,,,,,,0,,69,0
181052,note_off,,,,,380,0,7,,,,,,3,,41,0
181052,note_off,,,,,188,0,9,,,,,,4,,60,0
181052,note_off,,,,,188,0,5,,,,,,2,,60,0
181052,note_off,,,,,44,0,8,,,,,,4,,82,0
181056,note_on,,,,,4,0,8,,,,,,4,,81,100
181056,note_on,,,,,4,0,5,,,,,,2,,58,100
181056,note_on,,,,,4,0,7,,,,,,3,,34,100
181056,note_on,,,,,4,0,3,,,,,,0,,67,100
181056,note_on,,,,,4,0,9,,,,,,4,,58,100
181056,note_on,,,,,4,0,6,,,,,,3,,46,100
181100,note_off,,,,,44,0,8,,,,,,4,,81,0
181104,note_on,,,,,4,0,8,,,,,,4,,82,100
181148,note_off,,,,,44,0,8,,,,,,4,,82,0
181148,note_off,,,,,92,0,3,,,,,,0,,67,0
181152,note_on,,,,,4,0,3,,,,,,0,,65,100
181152,note_on,,,,,4,0,8,,,,,,4,,81,100
181196,note_off,,,,,44,0,8,,,,,,4,,81,0
181200,note_on,,,,,4,0,8,,,,,,4,,82,100
181244,note_off,,,,,188,0,5,,,,,,2,,58,0
181244,note_off,,,,,188,0,6,,,,,,3,,46,0
181244,note_off,,,,,44,0,8,,,,,,4,,82,0
181244,note_off,,,,,188,0,9,,,,,,4,,58,0
181244,note_off,,,,,92,0,3,,,,,,0,,65,0
181244,note_off,,,,,188,0,7,,,,,,3,,34,0
181248,note_on,,,,,4,0,6,,,,,,3,,40,100
181248,note_on,,,,,448,0,4,,,,,,1,,70,100
181248,note_on,,,,,4,0,5,,,,,,2,,64,100
181248,note_on,,,,,4,0,7,,,,,,3,,28,100
181248,note_on,,,,,4,0,3,,,,,,0,,64,100
181248,note_on,,,,,4,0,8,,,,,,4,,79,100
181248,note_on,,,,,4,0,9,,,,,,4,,52,100
181292,note_off,,,,,44,0,8,,,,,,4,,79,0
181296,note_on,,,,,4,0,8,,,,,,4,,81,100
181340,note_off,,,,,44,0,8,,,,,,4,,81,0
181340,note_off,,,,,92,0,7,,,,,,3,,28,0
181340,note_off,,,,,92,0,9,,,,,,4,,52,0
181340,note_off,,,,,92,0,4,,,,,,1,,70,0
181340,note_off,,,,,92,0,6,,,,,,3,,40,0
181344,note_on,,,,,4,0,8,,,,,,4,,79,100
181344,note_on,,,,,4,0,7,,,,,,3,,29,100
181344,note_on,,,,,4,0,4,,,,,,1,,69,100
181344,note_on,,,,,4,0,9,,,,,,4,,53,100
181344,note_on,,,,,4,0,6,,,,,,3,,41,100
181376,note_off,,,,,128,0,3,,,,,,0,,64,0
181388,note_off,,,,,44,0,8,,,,,,4,,79,0
181392,note_on,,,,,4,0,8,,,,,,4,,81,100
181436,note_off,,,,,44,0,8,,,,,,4,,81,0
181436,note_off,,,,,92,0,4,,,,,,1,,69,0
181436,note_off,,,,,92,0,6,,,,,,3,,41,0
181436,note_off,,,,,92,0,9,,,,,,4,,53,0
181436,note_off,,,,,188,0,5,,,,,,2,,64,0
181436,note_off,,,,,92,0,7,,,,,,3,,29,0
181440,note_on,,,,,4,0,6,,,,,,3,,43,100
181440,note_on,,,,,64,0,3,,,,,,0,,76,100
181440,note_on,,,,,4,0,9,,,,,,4,,55,100
181440,note_on,,,,,4,0,8,,,,,,4,,79,100
181440,note_on,,,,,4,0,7,,,,,,3,,31,100
181440,note_on,,,,,4,0,5,,,,,,2,,70,100
181440,note_on,,,,,4,0,4,,,,,,1,,67,100
181484,note_off,,,,,44,0,8,,,,,,4,,79,0
181488,note_on,,,,,4,0,8,,,,,,4,,81,100
181532,note_off,,,,,92,0,4,,,,,,1,,67,0
181532,note_off,,,,,44,0,8,,,,,,4,,81,0
181536,note_on,,,,,4,0,4,,,,,,1,,65,100
181536,note_on,,,,,4,0,8,,,,,,4,,79,100
181568,note_off,,,,,128,0,3,,,,,,0,,76,0
181568,note_off,,,,,128,0,6,,,,,,3,,43,0
181568,note_off,,,,,128,0,9,,,,,,4,,55,0
181568,note_off,,,,,128,0,7,,,,,,3,,31,0
181580,note_off,,,,,44,0,8,,,,,,4,,79,0
181584,note_on,,,,,4,0,8,,,,,,4,,81,100
181628,note_off,,,,,44,0,8,,,,,,4,,81,0
181628,note_off,,,,,92,0,4,,,,,,1,,65,0
181632,note_on,,,,,4,0,4,,,,,,1,,64,100
181632,note_on,,,,,64,0,7,,,,,,3,,29,100
181632,note_on,,,,,64,0,9,,,,,,4,,53,100
181632,note_on,,,,,64,0,6,,,,,,3,,41,100
181632,note_on,,,,,4,0,8,,,,,,4,,79,100
181676,note_off,,,,,44,0,8,,,,,,4,,79,0
181680,note_on,,,,,4,0,8,,,,,,4,,81,100
181724,note_off,,,,,92,0,4,,,,,,1,,64,0
181724,note_off,,,,,44,0,8,,,,,,4,,81,0
181728,note_on,,,,,4,0,8,,,,,,4,,79,100
181728,note_on,,,,,4,0,4,,,,,,1,,62,100
181772,note_off,,,,,44,0,8,,,,,,4,,79,0
181776,note_on,,,,,4,0,8,,,,,,4,,81,100
181820,note_off,,,,,44,0,8,,,,,,4,,81,0
181820,note_off,,,,,188,0,7,,,,,,3,,29,0
181820,note_off,,,,,188,0,9,,,,,,4,,53,0
181820,note_off,,,,,92,0,4,,,,,,1,,62,0
181820,note_off,,,,,380,0,5,,,,,,2,,70,0
181820,note_off,,,,,188,0,6,,,,,,3,,41,0
181824,note_on,,,,,4,0,4,,,,,,1,,61,100
181824,note_on,,,,,4,0,6,,,,,,3,,40,100
181824,note_on,,,,,4,0,9,,,,,,4,,52,100
181824,note_on,,,,,4,0,7,,,,,,3,,28,100
181824,note_on,,,,,4,0,8,,,,,,4,,79,100
181824,note_on,,,,,4,0,5,,,,,,2,,64,100
181868,note_off,,,,,44,0,8,,,,,,4,,79,0
181872,note_on,,,,,4,0,8,,,,,,4,,81,100
181916,note_off,,,,,44,0,8,,,,,,4,,81,0
181916,note_off,,,,,92,0,4,,,,,,1,,61,0
181920,note_on,,,,,4,0,4,,,,,,1,,59,100
181920,note_on,,,,,4,0,8,,,,,,4,,79,100
181964,note_off,,,,,44,0,8,,,,,,4,,79,0
181968,note_on,,,,,4,0,8,,,,,,4,,81,100
181968,note_on,,,,,48,0,4,,,,,,1,,57,100
181968,note_on,,,,,144,0,6,,,,,,3,,45,100
181968,note_on,,,,,144,0,7,,,,,,3,,33,100
182012,note_off,,,,,44,0,8,,,,,,4,,81,0
182012,note_off,,,,,188,0,9,,,,,,4,,52,0
182012,note_off,,,,,188,0,5,,,,,,2,,64,0
182012,note_off,,,,,44,0,7,,,,,,3,,28,0
182012,note_off,,,,,44,0,4,,,,,,1,,59,0
182012,note_off,,,,,44,0,6,,,,,,3,,40,0
182016,note_on,,,,,4,0,8,,,,,,4,,79,100
182016,note_on,,,,,4,0,9,,,,,,4,,57,100
182016,note_on,,,,,4,0,5,,,,,,2,,57,100
182016,note_on,,,,,448,0,3,,,,,,0,,76,100
182060,note_off,,,,,44,0,8,,,,,,4,,79,0
182064,note_on,,,,,4,0,8,,,,,,4,,81,100
182096,note_off,,,,,84,0,4,,,,,,1,,57,0
182108,note_off,,,,,92,0,3,,,,,,0,,76,0
182108,note_off,,,,,44,0,8,,,,,,4,,81,0
182108,note_off,,,,,92,0,9,,,,,,4,,57,0
182108,note_off,,,,,92,0,5,,,,,,2,,57,0
182112,note_on,,,,,4,0,3,,,,,,0,,74,100
182112,note_on,,,,,4,0,8,,,,,,4,,79,100
182112,note_on,,,,,4,0,5,,,,,,2,,59,100
182112,note_on,,,,,4,0,9,,,,,,4,,59,100
182156,note_off,,,,,44,0,8,,,,,,4,,79,0
182156,note_off,,,,,144,0,7,,,,,,3,,33,0
182156,note_off,,,,,144,0,6,,,,,,3,,45,0
182160,note_on,,,,,4,0,8,,,,,,4,,81,100
182204,note_off,,,,,44,0,8,,,,,,4,,81,0
182204,note_off,,,,,92,0,5,,,,,,2,,59,0
182204,note_off,,,,,92,0,9,,,,,,4,,59,0
182204,note_off,,,,,92,0,3,,,,,,0,,74,0
182208,note_on,,,,,4,0,5,,,,,,2,,61,100
182208,note_on,,,,,52,0,7,,,,,,3,,40,100
182208,note_on,,,,,4,0,8,,,,,,4,,79,100
182208,note_on,,,,,4,0,3,,,,,,0,,73,100
182208,note_on,,,,,112,0,4,,,,,,1,,69,100
182208,note_on,,,,,52,0,6,,,,,,3,,52,100
182208,note_on,,,,,4,0,9,,,,,,4,,61,100
182252,note_off,,,,,44,0,8,,,,,,4,,79,0
182256,note_on,,,,,4,0,8,,,,,,4,,81,100
182300,note_off,,,,,92,0,3,,,,,,0,,73,0
182300,note_off,,,,,44,0,8,,,,,,4,,81,0
182304,note_on,,,,,4,0,8,,,,,,4,,79,100
182304,note_on,,,,,4,0,3,,,,,,0,,71,100
182336,note_off,,,,,128,0,5,,,,,,2,,61,0
182336,note_off,,,,,128,0,4,,,,,,1,,69,0
182336,note_off,,,,,128,0,9,,,,,,4,,61,0
182348,note_off,,,,,44,0,8,,,,,,4,,79,0
182352,note_on,,,,,4,0,8,,,,,,4,,81,100
182396,note_off,,,,,44,0,8,,,,,,4,,81,0
182396,note_off,,,,,92,0,3,,,,,,0,,71,0
182400,note_on,,,,,64,0,9,,,,,,4,,59,100
182400,note_on,,,,,64,0,5,,,,,,2,,59,100
182400,note_on,,,,,4,0,8,,,,,,4,,79,100
182400,note_on,,,,,4,0,3,,,,,,0,,69,100
182444,note_off,,,,,44,0,8,,,,,,4,,79,0
182448,note_on,,,,,4,0,8,,,,,,4,,81,100
182492,note_off,,,,,44,0,8,,,,,,4,,81,0
182492,note_off,,,,,92,0,3,,,,,,0,,69,0
182496,note_on,,,,,4,0,8,,,,,,4,,79,100
182496,note_on,,,,,4,0,3,,,,,,0,,67,100
182540,note_off,,,,,44,0,8,,,,,,4,,79,0
182544,note_on,,,,,4,0,8,,,,,,4,,81,100
182588,note_off,,,,,44,0,8,,,,,,4,,81,0
182588,note_off,,,,,188,0,5,,,,,,2,,59,0
182588,note_off,,,,,380,0,7,,,,,,3,,40,0
182588,note_off,,,,,92,0,3,,,,,,0,,67,0
182588,note_off,,,,,188,0,9,,,,,,4,,59,0
182588,note_off,,,,,380,0,6,,,,,,3,,52,0
182592,note_on,,,,,4,0,5,,,,,,2,,57,100
182592,note_on,,,,,4,0,8,,,,,,4,,79,100
182592,note_on,,,,,4,0,3,,,,,,0,,65,100
182592,note_on,,,,,4,0,9,,,,,,4,,57,100
182592,note_on,,,,,4,0,6,,,,,,3,,45,100
182592,note_on,,,,,4,0,7,,,,,,3,,33,100
182636,note_off,,,,,44,0,8,,,,,,4,,79,0
182640,note_on,,,,,4,0,8,,,,,,4,,81,100
182684,note_off,,,,,92,0,3,,,,,,0,,65,0
182684,note_off,,,,,44,0,8,,,,,,4,,81,0
182688,note_on,,,,,4,0,3,,,,,,0,,64,100
182688,note_on,,,,,4,0,8,,,,,,4,,79,100
182732,note_off,,,,,44,0,8,,,,,,4,,79,0
182736,note_on,,,,,4,0,8,,,,,,4,,81,100
182780,note_off,,,,,188,0,9,,,,,,4,,57,0
182780,note_off,,,,,44,0,8,,,,,,4,,81,0
182780,note_off,,,,,188,0,7,,,,,,3,,33,0
182780,note_off,,,,,188,0,6,,,,,,3,,45,0
182780,note_off,,,,,92,0,3,,,,,,0,,64,0
182780,note_off,,,,,188,0,5,,,,,,2,,57,0
182784,note_on,,,,,4,0,7,,,,,,3,,26,85
182784,note_on,,,,,4,0,5,,,,,,2,,62,85
182784,note_on,,,,,4,0,8,,,,,,4,,77,100
182784,note_on,,,,,4,0,3,,,,,,0,,62,85
182784,note_on,,,,,4,0,9,,,,,,4,,50,100
182784,note_on,,,,,4,0,6,,,,,,3,,38,85
182848,note_off,,,,,64,0,8,,,,,,4,,77,0
182876,note_off,,,,,92,0,7,,,,,,3,,26,0
182876,note_off,,,,,92,0,6,,,,,,3,,38,0
182876,note_off,,,,,92,0,9,,,,,,4,,50,0
182880,note_on,,,,,4,0,9,,,,,,4,,52,100
182880,note_on,,,,,4,0,7,,,,,,3,,28,85
182880,note_on,,,,,4,0,6,,,,,,3,,40,85
182880,note_on,,,,,32,0,8,,,,,,4,,81,100
182944,note_off,,,,,64,0,8,,,,,,4,,81,0
182972,note_off,,,,,92,0,9,,,,,,4,,52,0
182972,note_off,,,,,188,0,3,,,,,,0,,62,0
182972,note_off,,,,,188,0,5,,,,,,2,,62,0
182972,note_off,,,,,92,0,7,,,,,,3,,28,0
182972,note_off,,,,,92,0,6,,,,,,3,,40,0
182976,note_on,,,,,4,0,7,,,,,,3,,29,85
182976,note_on,,,,,4,0,9,,,,,,4,,53,100
182976,note_on,,,,,640,0,4,,,,,,1,,65,85
182976,note_on,,,,,4,0,3,,,,,,0,,74,85
182976,note_on,,,,,4,0,6,,,,,,3,,41,85
182976,note_on,,,,,32,0,8,,,,,,4,,81,100
182976,note_on,,,,,4,0,5,,,,,,2,,69,85
183040,note_off,,,,,64,0,8,,,,,,4,,81,0
183072,note_on,,,,,32,0,8,,,,,,4,,81,100
183104,note_off,,,,,128,0,9,,,,,,4,,53,0
183104,note_off,,,,,128,0,7,,,,,,3,,29,0
183104,note_off,,,,,128,0,6,,,,,,3,,41,0
183136,note_off,,,,,64,0,8,,,,,,4,,81,0
183164,note_off,,,,,188,0,4,,,,,,1,,65,0
183164,note_off,,,,,188,0,3,,,,,,0,,74,0
183168,note_on,,,,,4,0,4,,,,,,1,,69,85
183168,note_on,,,,,64,0,6,,,,,,3,,40,85
183168,note_on,,,,,64,0,9,,,,,,4,,52,100
183168,note_on,,,,,64,0,7,,,,,,3,,28,85
183168,note_on,,,,,32,0,8,,,,,,4,,79,100
183232,note_off,,,,,64,0,8,,,,,,4,,79,0
183264,note_on,,,,,32,0,8,,,,,,4,,81,100
183328,note_off,,,,,64,0,8,,,,,,4,,81,0
183356,note_off,,,,,380,0,5,,,,,,2,,69,0
183356,note_off,,,,,188,0,7,,,,,,3,,28,0
183356,note_off,,,,,188,0,6,,,,,,3,,40,0
183356,note_off,,,,,188,0,9,,,,,,4,,52,0
183356,note_off,,,,,188,0,4,,,,,,1,,69,0
183360,note_on,,,,,4,0,4,,,,,,1,,74,85
183360,note_on,,,,,4,0,9,,,,,,4,,50,100
183360,note_on,,,,,4,0,7,,,,,,3,,26,85
183360,note_on,,,,,4,0,6,,,,,,3,,38,85
183360,note_on,,,,,32,0,8,,,,,,4,,77,100
183360,note_on,,,,,196,0,3,,,,,,0,,74,85
183360,note_on,,,,,4,0,5,,,,,,2,,62,85
183424,note_off,,,,,64,0,8,,,,,,4,,77,0
183456,note_on,,,,,32,0,8,,,,,,4,,81,100
183520,note_off,,,,,64,0,8,,,,,,4,,81,0
183548,note_off,,,,,188,0,5,,,,,,2,,62,0
183548,note_off,,,,,188,0,7,,,,,,3,,26,0
183548,note_off,,,,,188,0,6,,,,,,3,,38,0
183548,note_off,,,,,188,0,4,,,,,,1,,74,0
183548,note_off,,,,,188,0,3,,,,,,0,,74,0
183548,note_off,,,,,188,0,9,,,,,,4,,50,0
183552,note_on,,,,,4,0,6,,,,,,3,,45,85
183552,note_on,,,,,32,0,8,,,,,,4,,76,100
183552,note_on,,,,,4,0,9,,,,,,4,,57,100
183552,note_on,,,,,4,0,7,,,,,,3,,33,85
183552,note_on,,,,,4,0,3,,,,,,0,,76,85
183552,note_on,,,,,4,0,5,,,,,,2,,61,85
183644,note_off,,,,,92,0,6,,,,,,3,,45,0
183644,note_off,,,,,92,0,8,,,,,,4,,76,0
183644,note_off,,,,,92,0,7,,,,,,3,,33,0
183648,note_on,,,,,4,0,6,,,,,,3,,47,85
183648,note_on,,,,,4,0,8,,,,,,4,,81,100
183648,note_on,,,,,4,0,7,,,,,,3,,35,85
183740,note_off,,,,,188,0,5,,,,,,2,,61,0
183740,note_off,,,,,92,0,6,,,,,,3,,47,0
183740,note_off,,,,,188,0,9,,,,,,4,,57,0
183740,note_off,,,,,92,0,8,,,,,,4,,81,0
183740,note_off,,,,,92,0,7,,,,,,3,,35,0
183740,note_off,,,,,188,0,3,,,,,,0,,76,0
183744,note_on,,,,,4,0,9,,,,,,4,,45,100
183744,note_on,,,,,4,0,3,,,,,,0,,79,85
183744,note_on,,,,,4,0,5,,,,,,2,,69,85
183744,note_on,,,,,4,0,6,,,,,,3,,49,85
183744,note_on,,,,,4,0,7,,,,,,3,,37,85
183744,note_on,,,,,4,0,8,,,,,,4,,79,100
183744,note_on,,,,,196,0,4,,,,,,1,,69,85
183836,note_off,,,,,92,0,8,,,,,,4,,79,0
183840,note_on,,,,,4,0,8,,,,,,4,,77,100
183872,note_off,,,,,128,0,7,,,,,,3,,37,0
183872,note_off,,,,,128,0,6,,,,,,3,,49,0
183932,note_off,,,,,188,0,9,,,,,,4,,45,0
183932,note_off,,,,,188,0,3,,,,,,0,,79,0
183932,note_off,,,,,188,0,4,,,,,,1,,69,0
183932,note_off,,,,,92,0,8,,,,,,4,,77,0
183936,note_on,,,,,4,0,4,,,,,,1,,76,85
183936,note_on,,,,,64,0,6,,,,,,3,,47,85
183936,note_on,,,,,4,0,8,,,,,,4,,76,100
183936,note_on,,,,,64,0,7,,,,,,3,,35,85
184028,note_off,,,,,92,0,8,,,,,,4,,76,0
184032,note_on,,,,,4,0,8,,,,,,4,,74,100
184124,note_off,,,,,92,0,8,,,,,,4,,74,0
184124,note_off,,,,,188,0,6,,,,,,3,,47,0
184124,note_off,,,,,188,0,4,,,,,,1,,76,0
184124,note_off,,,,,188,0,7,,,,,,3,,35,0
184124,note_off,,,,,380,0,5,,,,,,2,,69,0
184128,note_on,,,,,4,0,8,,,,,,4,,73,100
184128,note_on,,,,,4,0,6,,,,,,3,,45,85
184128,note_on,,,,,4,0,4,,,,,,1,,79,85
184128,note_on,,,,,4,0,7,,,,,,3,,33,85
184128,note_on,,,,,4,0,5,,,,,,2,,61,85
184128,note_on,,,,,196,0,3,,,,,,0,,76,85
184220,note_off,,,,,92,0,8,,,,,,4,,73,0
184224,note_on,,,,,4,0,8,,,,,,4,,71,100
184316,note_off,,,,,188,0,3,,,,,,0,,76,0
184316,note_off,,,,,188,0,4,,,,,,1,,79,0
184316,note_off,,,,,92,0,8,,,,,,4,,71,0
184316,note_off,,,,,188,0,7,,,,,,3,,33,0
184316,note_off,,,,,188,0,6,,,,,,3,,45,0
184316,note_off,,,,,188,0,5,,,,,,2,,61,0
184320,note_on,,,,,4,0,5,,,,,,2,,62,85
184320,note_on,,,,,4,0,8,,,,,,4,,69,100
184320,note_on,,,,,4,0,6,,,,,,3,,50,85
184320,note_on,,,,,4,0,7,,,,,,3,,38,85
184320,note_on,,,,,388,0,9,,,,,,4,,38,100
184320,note_on,,,,,4,0,3,,,,,,0,,77,85
184384,note_off,,,,,64,0,8,,,,,,4,,69,0
184412,note_off,,,,,92,0,7,,,,,,3,,38,0
184412,note_off,,,,,92,0,9,,,,,,4,,38,0
184412,note_off,,,,,92,0,6,,,,,,3,,50,0
184416,note_on,,,,,4,0,6,,,,,,3,,52,85
184416,note_on,,,,,32,0,8,,,,,,4,,69,100
184416,note_on,,,,,4,0,9,,,,,,4,,40,100
184416,note_on,,,,,4,0,7,,,,,,3,,40,85
184480,note_off,,,,,64,0,8,,,,,,4,,69,0
184508,note_off,,,,,92,0,9,,,,,,4,,40,0
184508,note_off,,,,,92,0,7,,,,,,3,,40,0
184508,note_off,,,,,188,0,5,,,,,,2,,62,0
184508,note_off,,,,,92,0,6,,,,,,3,,52,0
184508,note_off,,,,,188,0,3,,,,,,0,,77,0
184512,note_on,,,,,196,0,4,,,,,,1,,77,85
184512,note_on,,,,,4,0,3,,,,,,0,,81,85
184512,note_on,,,,,4,0,9,,,,,,4,,41,100
184512,note_on,,,,,4,0,6,,,,,,3,,53,85
184512,note_on,,,,,4,0,7,,,,,,3,,41,85
184512,note_on,,,,,32,0,8,,,,,,4,,69,100
184512,note_on,,,,,4,0,5,,,,,,2,,69,85
184576,note_off,,,,,64,0,8,,,,,,4,,69,0
184608,note_on,,,,,32,0,8,,,,,,4,,69,100
184640,note_off,,,,,128,0,9,,,,,,4,,41,0
184640,note_off,,,,,128,0,6,,,,,,3,,53,0
184640,note_off,,,,,128,0,7,,,,,,3,,41,0
184672,note_off,,,,,64,0,8,,,,,,4,,69,0
184700,note_off,,,,,188,0,3,,,,,,0,,81,0
184700,note_off,,,,,188,0,4,,,,,,1,,77,0
184704,note_on,,,,,4,0,4,,,,,,1,,81,85
184704,note_on,,,,,64,0,9,,,,,,4,,40,100
184704,note_on,,,,,64,0,7,,,,,,3,,40,85
184704,note_on,,,,,64,0,6,,,,,,3,,52,85
184704,note_on,,,,,32,0,8,,,,,,4,,67,100
184768,note_off,,,,,64,0,8,,,,,,4,,67,0
184800,note_on,,,,,32,0,8,,,,,,4,,69,100
184864,note_off,,,,,64,0,8,,,,,,4,,69,0
184892,note_off,,,,,188,0,6,,,,,,3,,52,0
184892,note_off,,,,,188,0,9,,,,,,4,,40,0
184892,note_off,,,,,380,0,5,,,,,,2,,69,0
184892,note_off,,,,,188,0,7,,,,,,3,,40,0
184892,note_off,,,,,188,0,4,,,,,,1,,81,0
184896,note_on,,,,,32,0,8,,,,,,4,,65,100
184896,note_on,,,,,4,0,5,,,,,,2,,62,85
184896,note_on,,,,,196,0,3,,,,,,0,,77,85
184896,note_on,,,,,4,0,7,,,,,,3,,38,85
184896,note_on,,,,,4,0,6,,,,,,3,,50,85
184896,note_on,,,,,4,0,9,,,,,,4,,38,100
184896,note_on,,,,,4,0,4,,,,,,1,,86,85
184960,note_off,,,,,64,0,8,,,,,,4,,65,0
184992,note_on,,,,,32,0,8,,,,,,4,,69,100
185056,note_off,,,,,64,0,8,,,,,,4,,69,0
185084,note_off,,,,,188,0,3,,,,,,0,,77,0
185084,note_off,,,,,188,0,9,,,,,,4,,38,0
185084,note_off,,,,,188,0,7,,,,,,3,,38,0
185084,note_off,,,,,188,0,4,,,,,,1,,86,0
185084,note_off,,,,,188,0,6,,,,,,3,,50,0
185084,note_off,,,,,188,0,5,,,,,,2,,62,0
185088,note_on,,,,,4,0,9,,,,,,4,,45,100
185088,note_on,,,,,32,0,8,,,,,,4,,64,100
185088,note_on,,,,,4,0,7,,,,,,3,,45,85
185088,note_on,,,,,4,0,3,,,,,,0,,76,85
185088,note_on,,,,,4,0,6,,,,,,3,,57,85
185088,note_on,,,,,4,0,5,,,,,,2,,61,85
185180,note_off,,,,,92,0,7,,,,,,3,,45,0
185180,note_off,,,,,92,0,6,,,,,,3,,57,0
185180,note_off,,,,,92,0,8,,,,,,4,,64,0
185184,note_on,,,,,4,0,6,,,,,,3,,59,85
185184,note_on,,,,,4,0,7,,,,,,3,,47,85
185184,note_on,,,,,4,0,8,,,,,,4,,69,100
185276,note_off,,,,,188,0,3,,,,,,0,,76,0
185276,note_off,,,,,92,0,6,,,,,,3,,59,0
185276,note_off,,,,,188,0,9,,,,,,4,,45,0
185276,note_off,,,,,188,0,5,,,,,,2,,61,0
185276,note_off,,,,,92,0,8,,,,,,4,,69,0
185276,note_off,,,,,92,0,7,,,,,,3,,47,0
185280,note_on,,,,,4,0,5,,,,,,2,,69,85
185280,note_on,,,,,4,0,9,,,,,,4,,33,100
185280,note_on,,,,,4,0,6,,,,,,3,,61,85
185280,note_on,,,,,4,0,7,,,,,,3,,49,85
185280,note_on,,,,,4,0,8,,,,,,4,,67,100
185280,note_on,,,,,4,0,3,,,,,,0,,79,85
185280,note_on,,,,,196,0,4,,,,,,1,,69,85
185372,note_off,,,,,92,0,8,,,,,,4,,67,0
185376,note_on,,,,,4,0,8,,,,,,4,,65,100
185408,note_off,,,,,128,0,7,,,,,,3,,49,0
185408,note_off,,,,,128,0,6,,,,,,3,,61,0
185468,note_off,,,,,188,0,3,,,,,,0,,79,0
185468,note_off,,,,,188,0,4,,,,,,1,,69,0
185468,note_off,,,,,92,0,8,,,,,,4,,65,0
185468,note_off,,,,,188,0,9,,,,,,4,,33,0
185472,note_on,,,,,4,0,4,,,,,,1,,76,85
185472,note_on,,,,,64,0,7,,,,,,3,,47,85
185472,note_on,,,,,64,0,6,,,,,,3,,59,85
185472,note_on,,,,,4,0,8,,,,,,4,,64,100
185564,note_off,,,,,92,0,8,,,,,,4,,64,0
185568,note_on,,,,,4,0,8,,,,,,4,,62,100
185660,note_off,,,,,188,0,6,,,,,,3,,59,0
185660,note_off,,,,,188,0,7,,,,,,3,,47,0
185660,note_off,,,,,92,0,8,,,,,,4,,62,0
185660,note_off,,,,,380,0,5,,,,,,2,,69,0
185660,note_off,,,,,188,0,4,,,,,,1,,76,0
185664,note_on,,,,,4,0,7,,,,,,3,,45,85
185664,note_on,,,,,4,0,4,,,,,,1,,79,85
185664,note_on,,,,,196,0,3,,,,,,0,,76,85
185664,note_on,,,,,4,0,8,,,,,,4,,61,100
185664,note_on,,,,,4,0,6,,,,,,3,,57,85
185664,note_on,,,,,4,0,5,,,,,,2,,61,85
185756,note_off,,,,,92,0,8,,,,,,4,,61,0
185760,note_on,,,,,4,0,8,,,,,,4,,59,100
185852,note_off,,,,,188,0,3,,,,,,0,,76,0
185852,note_off,,,,,188,0,5,,,,,,2,,61,0
185852,note_off,,,,,188,0,6,,,,,,3,,57,0
185852,note_off,,,,,188,0,4,,,,,,1,,79,0
185852,note_off,,,,,188,0,7,,,,,,3,,45,0
185852,note_off,,,,,92,0,8,,,,,,4,,59,0
185856,note_on,,,,,4,0,7,,,,,,3,,50,90
185856,note_on,,,,,4,0,8,,,,,,4,,57,100
185856,note_on,,,,,4,0,5,,,,,,2,,62,90
185856,note_on,,,,,4,0,6,,,,,,3,,62,90
185856,note_on,,,,,4,0,3,,,,,,0,,77,90
185948,note_off,,,,,92,0,8,,,,,,4,,57,0
185952,note_on,,,,,4,0,8,,,,,,4,,62,100
185952,note_on,,,,,484,0,9,,,,,,4,,50,100
185996,note_off,,,,,140,0,5,,,,,,2,,62,0
186044,note_off,,,,,188,0,3,,,,,,0,,77,0
186044,note_off,,,,,92,0,9,,,,,,4,,50,0
186044,note_off,,,,,92,0,8,,,,,,4,,62,0
186048,note_on,,,,,196,0,4,,,,,,1,,81,90
186048,note_on,,,,,4,0,8,,,,,,4,,64,100
186048,note_on,,,,,4,0,9,,,,,,4,,49,100
186048,note_on,,,,,52,0,5,,,,,,2,,62,90
186048,note_on,,,,,4,0,3,,,,,,0,,81,90
186140,note_off,,,,,92,0,8,,,,,,4,,64,0
186140,note_off,,,,,92,0,9,,,,,,4,,49,0
186140,note_off,,,,,92,0,3,,,,,,0,,81,0
186144,note_on,,,,,4,0,3,,,,,,0,,77,90
186144,note_on,,,,,4,0,8,,,,,,4,,65,100
186144,note_on,,,,,4,0,9,,,,,,4,,50,100
186188,note_off,,,,,140,0,5,,,,,,2,,62,0
186236,note_off,,,,,380,0,7,,,,,,3,,50,0
186236,note_off,,,,,380,0,6,,,,,,3,,62,0
186236,note_off,,,,,92,0,3,,,,,,0,,77,0
186236,note_off,,,,,92,0,8,,,,,,4,,65,0
186236,note_off,,,,,92,0,9,,,,,,4,,50,0
186240,note_on,,,,,52,0,5,,,,,,2,,62,90
186240,note_on,,,,,4,0,8,,,,,,4,,67,100
186240,note_on,,,,,4,0,3,,,,,,0,,74,90
186240,note_on,,,,,4,0,9,,,,,,4,,38,100
186332,note_off,,,,,92,0,8,,,,,,4,,67,0
186332,note_off,,,,,284,0,4,,,,,,1,,81,0
186336,note_on,,,,,4,0,8,,,,,,4,,64,100
186380,note_off,,,,,140,0,5,,,,,,2,,62,0
186428,note_off,,,,,92,0,8,,,,,,4,,64,0
186428,note_off,,,,,188,0,9,,,,,,4,,38,0
186428,note_off,,,,,188,0,3,,,,,,0,,74,0
186432,note_on,,,,,4,0,8,,,,,,4,,65,100
186432,note_on,,,,,4,0,3,,,,,,0,,81,90
186432,note_on,,,,,100,0,4,,,,,,1,,81,90
186432,note_on,,,,,52,0,5,,,,,,2,,62,90
186524,note_off,,,,,92,0,8,,,,,,4,,65,0
186524,note_off,,,,,92,0,4,,,,,,1,,81,0
186528,note_on,,,,,4,0,8,,,,,,4,,62,100
186528,note_on,,,,,4,0,4,,,,,,1,,77,90
186572,note_off,,,,,140,0,5,,,,,,2,,62,0
186620,note_off,,,,,92,0,4,,,,,,1,,77,0
186620,note_off,,,,,92,0,8,,,,,,4,,62,0
186624,note_on,,,,,52,0,5,,,,,,2,,62,90
186624,note_on,,,,,4,0,4,,,,,,1,,74,90
186624,note_on,,,,,4,0,8,,,,,,4,,57,100
186716,note_off,,,,,92,0,8,,,,,,4,,57,0
186716,note_off,,,,,284,0,3,,,,,,0,,81,0
186720,note_on,,,,,4,0,8,,,,,,4,,62,100
186720,note_on,,,,,292,0,9,,,,,,4,,50,100
186764,note_off,,,,,140,0,5,,,,,,2,,62,0
186812,note_off,,,,,92,0,8,,,,,,4,,62,0
186812,note_off,,,,,188,0,4,,,,,,1,,74,0
186812,note_off,,,,,92,0,9,,,,,,4,,50,0
186816,note_on,,,,,4,0,9,,,,,,4,,48,100
186816,note_on,,,,,580,0,7,,,,,,3,,50,90
186816,note_on,,,,,52,0,5,,,,,,2,,62,90
186816,note_on,,,,,4,0,8,,,,,,4,,64,100
186816,note_on,,,,,100,0,3,,,,,,0,,81,90
186816,note_on,,,,,4,0,4,,,,,,1,,82,90
186816,note_on,,,,,580,0,6,,,,,,3,,62,90
186908,note_off,,,,,92,0,9,,,,,,4,,48,0
186908,note_off,,,,,92,0,3,,,,,,0,,81,0
186908,note_off,,,,,92,0,8,,,,,,4,,64,0
186912,note_on,,,,,4,0,9,,,,,,4,,50,100
186912,note_on,,,,,4,0,8,,,,,,4,,65,100
186912,note_on,,,,,4,0,3,,,,,,0,,77,90
186956,note_off,,,,,140,0,5,,,,,,2,,62,0
187004,note_off,,,,,92,0,3,,,,,,0,,77,0
187004,note_off,,,,,92,0,9,,,,,,4,,50,0
187004,note_off,,,,,188,0,6,,,,,,3,,62,0
187004,note_off,,,,,92,0,8,,,,,,4,,65,0
187004,note_off,,,,,188,0,7,,,,,,3,,50,0
187008,note_on,,,,,4,0,3,,,,,,0,,74,90
187008,note_on,,,,,4,0,9,,,,,,4,,46,100
187008,note_on,,,,,52,0,5,,,,,,2,,62,90
187008,note_on,,,,,4,0,8,,,,,,4,,67,100
187008,note_on,,,,,4,0,7,,,,,,3,,46,90
187008,note_on,,,,,4,0,6,,,,,,3,,58,90
187100,note_off,,,,,92,0,8,,,,,,4,,67,0
187100,note_off,,,,,92,0,9,,,,,,4,,46,0
187104,note_on,,,,,4,0,8,,,,,,4,,64,100
187104,note_on,,,,,4,0,9,,,,,,4,,43,100
187148,note_off,,,,,140,0,5,,,,,,2,,62,0
187196,note_off,,,,,188,0,6,,,,,,3,,58,0
187196,note_off,,,,,188,0,7,,,,,,3,,46,0
187196,note_off,,,,,188,0,3,,,,,,0,,74,0
187196,note_off,,,,,92,0,8,,,,,,4,,64,0
187196,note_off,,,,,92,0,9,,,,,,4,,43,0
187196,note_off,,,,,380,0,4,,,,,,1,,82,0
187200,note_on,,,,,4,0,7,,,,,,3,,43,90
187200,note_on,,,,,4,0,8,,,,,,4,,65,100
187200,note_on,,,,,4,0,6,,,,,,3,,55,90
187200,note_on,,,,,4,0,3,,,,,,0,,82,90
187200,note_on,,,,,4,0,9,,,,,,4,,45,100
187200,note_on,,,,,4,0,4,,,,,,1,,74,90
187200,note_on,,,,,52,0,5,,,,,,2,,62,90
187292,note_off,,,,,92,0,4,,,,,,1,,74,0
187292,note_off,,,,,92,0,8,,,,,,4,,65,0
187292,note_off,,,,,92,0,9,,,,,,4,,45,0
187296,note_on,,,,,4,0,8,,,,,,4,,62,100
187296,note_on,,,,,4,0,9,,,,,,4,,46,100
187296,note_on,,,,,4,0,4,,,,,,1,,70,90
187340,note_off,,,,,140,0,5,,,,,,2,,62,0
187388,note_off,,,,,92,0,9,,,,,,4,,46,0
187388,note_off,,,,,92,0,4,,,,,,1,,70,0
187388,note_off,,,,,92,0,8,,,,,,4,,62,0
187388,note_off,,,,,188,0,7,,,,,,3,,43,0
187388,note_off,,,,,188,0,6,,,,,,3,,55,0
187392,note_on,,,,,4,0,4,,,,,,1,,64,90
187392,note_on,,,,,4,0,8,,,,,,4,,64,100
187392,note_on,,,,,4,0,9,,,,,,4,,45,100
187392,note_on,,,,,4,0,6,,,,,,3,,60,90
187392,note_on,,,,,52,0,5,,,,,,2,,60,90
187392,note_on,,,,,4,0,7,,,,,,3,,48,90
187484,note_off,,,,,92,0,9,,,,,,4,,45,0
187484,note_off,,,,,92,0,8,,,,,,4,,64,0
187488,note_on,,,,,4,0,9,,,,,,4,,57,100
187488,note_on,,,,,4,0,8,,,,,,4,,69,100
187532,note_off,,,,,140,0,5,,,,,,2,,60,0
187580,note_off,,,,,92,0,9,,,,,,4,,57,0
187580,note_off,,,,,92,0,8,,,,,,4,,69,0
187580,note_off,,,,,380,0,3,,,,,,0,,82,0
187580,note_off,,,,,188,0,4,,,,,,1,,64,0
187584,note_on,,,,,4,0,8,,,,,,4,,71,100
187584,note_on,,,,,4,0,4,,,,,,1,,81,90
187584,note_on,,,,,4,0,3,,,,,,0,,76,90
187584,note_on,,,,,4,0,9,,,,,,4,,56,100
187584,note_on,,,,,52,0,5,,,,,,2,,60,90
187676,note_off,,,,,92,0,3,,,,,,0,,76,0
187676,note_off,,,,,92,0,9,,,,,,4,,56,0
187676,note_off,,,,,92,0,8,,,,,,4,,71,0
187680,note_on,,,,,4,0,8,,,,,,4,,72,100
187680,note_on,,,,,4,0,9,,,,,,4,,57,100
187680,note_on,,,,,4,0,3,,,,,,0,,72,90
187724,note_off,,,,,140,0,5,,,,,,2,,60,0
187772,note_off,,,,,92,0,8,,,,,,4,,72,0
187772,note_off,,,,,380,0,7,,,,,,3,,48,0
187772,note_off,,,,,92,0,9,,,,,,4,,57,0
187772,note_off,,,,,380,0,6,,,,,,3,,60,0
187772,note_off,,,,,92,0,3,,,,,,0,,72,0
187776,note_on,,,,,4,0,3,,,,,,0,,69,90
187776,note_on,,,,,4,0,8,,,,,,4,,74,100
187776,note_on,,,,,52,0,5,,,,,,2,,60,90
187776,note_on,,,,,4,0,9,,,,,,4,,45,100
187868,note_off,,,,,92,0,8,,,,,,4,,74,0
187872,note_on,,,,,4,0,8,,,,,,4,,71,100
187916,note_off,,,,,140,0,5,,,,,,2,,60,0
187964,note_off,,,,,92,0,8,,,,,,4,,71,0
187964,note_off,,,,,188,0,9,,,,,,4,,45,0
187964,note_off,,,,,188,0,3,,,,,,0,,69,0
187964,note_off,,,,,380,0,4,,,,,,1,,81,0
187968,note_on,,,,,4,0,8,,,,,,4,,72,100
187968,note_on,,,,,52,0,5,,,,,,2,,60,90
187968,note_on,,,,,4,0,4,,,,,,1,,76,90
187968,note_on,,,,,4,0,3,,,,,,0,,81,90
188060,note_off,,,,,92,0,4,,,,,,1,,76,0
188060,note_off,,,,,92,0,8,,,,,,4,,72,0
188064,note_on,,,,,4,0,8,,,,,,4,,69,100
188064,note_on,,,,,4,0,4,,,,,,1,,72,90
188108,note_off,,,,,140,0,5,,,,,,2,,60,0
188156,note_off,,,,,92,0,4,,,,,,1,,72,0
188156,note_off,,,,,92,0,8,,,,,,4,,69,0
188160,note_on,,,,,4,0,4,,,,,,1,,69,90
188160,note_on,,,,,52,0,5,,,,,,2,,60,90
188160,note_on,,,,,4,0,8,,,,,,4,,64,100
188252,note_off,,,,,92,0,8,,,,,,4,,64,0
188256,note_on,,,,,4,0,8,,,,,,4,,69,100
188256,note_on,,,,,292,0,9,,,,,,4,,57,100
188300,note_off,,,,,140,0,5,,,,,,2,,60,0
188348,note_off,,,,,92,0,9,,,,,,4,,57,0
188348,note_off,,,,,188,0,4,,,,,,1,,69,0
188348,note_off,,,,,92,0,8,,,,,,4,,69,0
188348,note_off,,,,,380,0,3,,,,,,0,,81,0
188352,note_on,,,,,52,0,5,,,,,,2,,60,90
188352,note_on,,,,,4,0,8,,,,,,4,,71,100
188352,note_on,,,,,4,0,4,,,,,,1,,81,90
188352,note_on,,,,,4,0,3,,,,,,0,,76,90
188352,note_on,,,,,4,0,9,,,,,,4,,56,100
188352,note_on,,,,,580,0,7,,,,,,3,,36,90
188352,note_on,,,,,580,0,6,,,,,,3,,48,90
188444,note_off,,,,,92,0,9,,,,,,4,,56,0
188444,note_off,,,,,92,0,8,,,,,,4,,71,0
188444,note_off,,,,,92,0,3,,,,,,0,,76,0
188448,note_on,,,,,4,0,9,,,,,,4,,57,100
188448,note_on,,,,,4,0,8,,,,,,4,,72,100
188448,note_on,,,,,4,0,3,,,,,,0,,72,90
188492,note_off,,,,,140,0,5,,,,,,2,,60,0
188540,note_off,,,,,92,0,9,,,,,,4,,57,0
188540,note_off,,,,,188,0,6,,,,,,3,,48,0
188540,note_off,,,,,188,0,7,,,,,,3,,36,0
188540,note_off,,,,,92,0,8,,,,,,4,,72,0
188540,note_off,,,,,92,0,3,,,,,,0,,72,0
188544,note_on,,,,,4,0,8,,,,,,4,,74,100
188544,note_on,,,,,4,0,9,,,,,,4,,53,100
188544,note_on,,,,,52,0,5,,,,,,2,,60,90
188544,note_on,,,,,4,0,7,,,,,,3,,41,90
188544,note_on,,,,,4,0,3,,,,,,0,,69,90
188544,note_on,,,,,4,0,6,,,,,,3,,53,90
188636,note_off,,,,,92,0,8,,,,,,4,,74,0
188636,note_off,,,,,92,0,9,,,,,,4,,53,0
188640,note_on,,,,,4,0,9,,,,,,4,,50,100
188640,note_on,,,,,4,0,8,,,,,,4,,71,100
188684,note_off,,,,,140,0,5,,,,,,2,,60,0
188732,note_off,,,,,188,0,6,,,,,,3,,53,0
188732,note_off,,,,,188,0,3,,,,,,0,,69,0
188732,note_off,,,,,380,0,4,,,,,,1,,81,0
188732,note_off,,,,,92,0,8,,,,,,4,,71,0
188732,note_off,,,,,188,0,7,,,,,,3,,41,0
188732,note_off,,,,,92,0,9,,,,,,4,,50,0
188736,note_on,,,,,4,0,8,,,,,,4,,72,100
188736,note_on,,,,,4,0,6,,,,,,3,,57,90
188736,note_on,,,,,4,0,9,,,,,,4,,52,100
188736,note_on,,,,,52,0,5,,,,,,2,,60,90
188736,note_on,,,,,4,0,3,,,,,,0,,81,90
188736,note_on,,,,,4,0,7,,,,,,3,,45,90
188736,note_on,,,,,4,0,4,,,,,,1,,76,90
188828,note_off,,,,,92,0,8,,,,,,4,,72,0
188828,note_off,,,,,92,0,9,,,,,,4,,52,0
188828,note_off,,,,,92,0,4,,,,,,1,,76,0
188832,note_on,,,,,4,0,4,,,,,,1,,72,90
188832,note_on,,,,,4,0,8,,,,,,4,,69,100
188832,note_on,,,,,4,0,9,,,,,,4,,53,100
188876,note_off,,,,,140,0,5,,,,,,2,,60,0
188924,note_off,,,,,92,0,4,,,,,,1,,72,0
188924,note_off,,,,,92,0,8,,,,,,4,,69,0
188924,note_off,,,,,188,0,6,,,,,,3,,57,0
188924,note_off,,,,,92,0,9,,,,,,4,,53,0
188924,note_off,,,,,188,0,7,,,,,,3,,45,0
188928,note_on,,,,,52,0,5,,,,,,2,,58,90
188928,note_on,,,,,4,0,9,,,,,,4,,46,100
188928,note_on,,,,,4,0,7,,,,,,3,,34,90
188928,note_on,,,,,4,0,6,,,,,,3,,46,90
188928,note_on,,,,,4,0,4,,,,,,1,,65,90
188928,note_on,,,,,4,0,8,,,,,,4,,62,100
189020,note_off,,,,,92,0,9,,,,,,4,,46,0
189020,note_off,,,,,92,0,8,,,,,,4,,62,0
189024,note_on,,,,,4,0,8,,,,,,4,,74,100
189024,note_on,,,,,4,0,9,,,,,,4,,62,100
189068,note_off,,,,,140,0,5,,,,,,2,,58,0
189116,note_off,,,,,380,0,3,,,,,,0,,81,0
189116,note_off,,,,,92,0,9,,,,,,4,,62,0
189116,note_off,,,,,92,0,8,,,,,,4,,74,0
189116,note_off,,,,,188,0,4,,,,,,1,,65,0
189120,note_on,,,,,4,0,4,,,,,,1,,81,90
189120,note_on,,,,,4,0,8,,,,,,4,,76,100
189120,note_on,,,,,4,0,3,,,,,,0,,81,90
189120,note_on,,,,,52,0,5,,,,,,2,,58,90
189120,note_on,,,,,4,0,9,,,,,,4,,61,100
189212,note_off,,,,,92,0,3,,,,,,0,,81,0
189212,note_off,,,,,92,0,9,,,,,,4,,61,0
189212,note_off,,,,,92,0,8,,,,,,4,,76,0
189216,note_on,,,,,4,0,3,,,,,,0,,77,90
189216,note_on,,,,,4,0,8,,,,,,4,,77,100
189216,note_on,,,,,4,0,9,,,,,,4,,62,100
189260,note_off,,,,,140,0,5,,,,,,2,,58,0
189308,note_off,,,,,380,0,6,,,,,,3,,46,0
189308,note_off,,,,,92,0,9,,,,,,4,,62,0
189308,note_off,,,,,92,0,3,,,,,,0,,77,0
189308,note_off,,,,,380,0,7,,,,,,3,,34,0
189308,note_off,,,,,92,0,8,,,,,,4,,77,0
189312,note_on,,,,,4,0,8,,,,,,4,,79,100
189312,note_on,,,,,4,0,9,,,,,,4,,46,100
189312,note_on,,,,,4,0,3,,,,,,0,,74,90
189312,note_on,,,,,52,0,5,,,,,,2,,58,90
189404,note_off,,,,,284,0,4,,,,,,1,,81,0
189404,note_off,,,,,92,0,8,,,,,,4,,79,0
189408,note_on,,,,,4,0,8,,,,,,4,,76,100
189452,note_off,,,,,140,0,5,,,,,,2,,58,0
189500,note_off,,,,,188,0,3,,,,,,0,,74,0
189500,note_off,,,,,188,0,9,,,,,,4,,46,0
189500,note_off,,,,,92,0,8,,,,,,4,,76,0
189504,note_on,,,,,52,0,5,,,,,,2,,58,90
189504,note_on,,,,,4,0,3,,,,,,0,,81,90
189504,note_on,,,,,100,0,4,,,,,,1,,81,90
189504,note_on,,,,,4,0,8,,,,,,4,,77,100
189596,note_off,,,,,92,0,4,,,,,,1,,81,0
189596,note_off,,,,,92,0,8,,,,,,4,,77,0
189600,note_on,,,,,4,0,4,,,,,,1,,77,90
189600,note_on,,,,,4,0,8,,,,,,4,,74,100
189644,note_off,,,,,140,0,5,,,,,,2,,58,0
189692,note_off,,,,,92,0,4,,,,,,1,,77,0
189692,note_off,,,,,92,0,8,,,,,,4,,74,0
189696,note_on,,,,,4,0,8,,,,,,4,,62,100
189696,note_on,,,,,52,0,5,,,,,,2,,58,90
189696,note_on,,,,,4,0,4,,,,,,1,,74,90
189788,note_off,,,,,92,0,8,,,,,,4,,62,0
189788,note_off,,,,,284,0,3,,,,,,0,,81,0
189792,note_on,,,,,4,0,8,,,,,,4,,74,100
189792,note_on,,,,,292,0,9,,,,,,4,,62,100
189836,note_off,,,,,140,0,5,,,,,,2,,58,0
189884,note_off,,,,,92,0,8,,,,,,4,,74,0
189884,note_off,,,,,92,0,9,,,,,,4,,62,0
189884,note_off,,,,,188,0,4,,,,,,1,,74,0
189888,note_on,,,,,100,0,3,,,,,,0,,81,90
189888,note_on,,,,,4,0,4,,,,,,1,,82,90
189888,note_on,,,,,580,0,7,,,,,,3,,34,90
189888,note_on,,,,,4,0,9,,,,,,4,,61,100
189888,note_on,,,,,580,0,6,,,,,,3,,46,90
189888,note_on,,,,,52,0,5,,,,,,2,,58,90
189888,note_on,,,,,4,0,8,,,,,,4,,76,100
189980,note_off,,,,,92,0,3,,,,,,0,,81,0
189980,note_off,,,,,92,0,9,,,,,,4,,61,0
189980,note_off,,,,,92,0,8,,,,,,4,,76,0
189984,note_on,,,,,4,0,3,,,,,,0,,77,90
189984,note_on,,,,,4,0,9,,,,,,4,,62,100
189984,note_on,,,,,4,0,8,,,,,,4,,77,100
190028,note_off,,,,,140,0,5,,,,,,2,,58,0
190076,note_off,,,,,92,0,3,,,,,,0,,77,0
190076,note_off,,,,,188,0,6,,,,,,3,,46,0
190076,note_off,,,,,188,0,7,,,,,,3,,34,0
190076,note_off,,,,,92,0,9,,,,,,4,,62,0
190076,note_off,,,,,92,0,8,,,,,,4,,77,0
190080,note_on,,,,,4,0,7,,,,,,3,,40,90
190080,note_on,,,,,4,0,8,,,,,,4,,79,100
190080,note_on,,,,,4,0,6,,,,,,3,,52,90
190080,note_on,,,,,4,0,9,,,,,,4,,58,100
190080,note_on,,,,,52,0,5,,,,,,2,,58,90
190080,note_on,,,,,4,0,3,,,,,,0,,74,90
190172,note_off,,,,,92,0,8,,,,,,4,,79,0
190172,note_off,,,,,92,0,9,,,,,,4,,58,0
190176,note_on,,,,,4,0,9,,,,,,4,,55,100
190176,note_on,,,,,4,0,8,,,,,,4,,76,100
190220,note_off,,,,,140,0,5,,,,,,2,,58,0
190268,note_off,,,,,188,0,6,,,,,,3,,52,0
190268,note_off,,,,,380,0,4,,,,,,1,,82,0
190268,note_off,,,,,92,0,8,,,,,,4,,76,0
190268,note_off,,,,,188,0,7,,,,,,3,,40,0
190268,note_off,,,,,92,0,9,,,,,,4,,55,0
190268,note_off,,,,,188,0,3,,,,,,0,,74,0
190272,note_on,,,,,4,0,6,,,,,,3,,55,90
190272,note_on,,,,,4,0,7,,,,,,3,,43,90
190272,note_on,,,,,52,0,5,,,,,,2,,58,90
190272,note_on,,,,,4,0,8,,,,,,4,,77,100
190272,note_on,,,,,4,0,9,,,,,,4,,57,100
190272,note_on,,,,,4,0,4,,,,,,1,,74,90
190272,note_on,,,,,4,0,3,,,,,,0,,82,90
190364,note_off,,,,,92,0,8,,,,,,4,,77,0
190364,note_off,,,,,92,0,9,,,,,,4,,57,0
190364,note_off,,,,,92,0,4,,,,,,1,,74,0
190368,note_on,,,,,4,0,8,,,,,,4,,74,100
190368,note_on,,,,,4,0,4,,,,,,1,,70,90
190368,note_on,,,,,4,0,9,,,,,,4,,58,100
190412,note_off,,,,,140,0,5,,,,,,2,,58,0
190460,note_off,,,,,188,0,6,,,,,,3,,55,0
190460,note_off,,,,,92,0,9,,,,,,4,,58,0
190460,note_off,,,,,92,0,8,,,,,,4,,74,0
190460,note_off,,,,,188,0,7,,,,,,3,,43,0
190460,note_off,,,,,92,0,4,,,,,,1,,70,0
190464,note_on,,,,,4,0,4,,,,,,1,,76,90
190464,note_on,,,,,4,0,6,,,,,,3,,45,90
190464,note_on,,,,,4,0,7,,,,,,3,,33,90
190464,note_on,,,,,4,0,8,,,,,,4,,73,100
190464,note_on,,,,,4,0,9,,,,,,4,,45,100
190464,note_on,,,,,52,0,5,,,,,,2,,57,90
190556,note_off,,,,,92,0,9,,,,,,4,,45,0
190556,note_off,,,,,92,0,8,,,,,,4,,73,0
190560,note_on,,,,,4,0,9,,,,,,4,,64,100
190560,note_on,,,,,4,0,8,,,,,,4,,76,100
190600,note_off,,,,,328,0,3,,,,,,0,,82,0
190604,note_off,,,,,140,0,5,,,,,,2,,57,0
190652,note_off,,,,,188,0,4,,,,,,1,,76,0
190652,note_off,,,,,92,0,9,,,,,,4,,64,0
190652,note_off,,,,,92,0,8,,,,,,4,,76,0
190656,note_on,,,,,4,0,9,,,,,,4,,62,100
190656,note_on,,,,,56,0,3,,,,,,0,,82,90
190656,note_on,,,,,52,0,5,,,,,,2,,57,90
190656,note_on,,,,,4,0,4,,,,,,1,,73,90
190656,note_on,,,,,4,0,8,,,,,,4,,77,100
190748,note_off,,,,,92,0,3,,,,,,0,,82,0
190748,note_off,,,,,92,0,8,,,,,,4,,77,0
190748,note_off,,,,,92,0,9,,,,,,4,,62,0
190752,note_on,,,,,4,0,9,,,,,,4,,64,100
190752,note_on,,,,,4,0,3,,,,,,0,,79,90
190752,note_on,,,,,4,0,8,,,,,,4,,79,100
190796,note_off,,,,,140,0,5,,,,,,2,,57,0
190844,note_off,,,,,92,0,9,,,,,,4,,64,0
190844,note_off,,,,,380,0,6,,,,,,3,,45,0
190844,note_off,,,,,380,0,7,,,,,,3,,33,0
190844,note_off,,,,,92,0,8,,,,,,4,,79,0
190844,note_off,,,,,92,0,3,,,,,,0,,79,0
190848,note_on,,,,,4,0,8,,,,,,4,,81,100
190848,note_on,,,,,4,0,9,,,,,,4,,61,100
190848,note_on,,,,,52,0,5,,,,,,2,,57,90
190848,note_on,,,,,4,0,3,,,,,,0,,76,90
190940,note_off,,,,,92,0,8,,,,,,4,,81,0
190944,note_on,,,,,4,0,8,,,,,,4,,77,100
190988,note_off,,,,,140,0,5,,,,,,2,,57,0
191036,note_off,,,,,188,0,9,,,,,,4,,61,0
191036,note_off,,,,,380,0,4,,,,,,1,,73,0
191036,note_off,,,,,92,0,8,,,,,,4,,77,0
191036,note_off,,,,,188,0,3,,,,,,0,,76,0
191040,note_on,,,,,4,0,8,,,,,,4,,79,100
191040,note_on,,,,,4,0,3,,,,,,0,,79,90
191040,note_on,,,,,4,0,4,,,,,,1,,76,90
191040,note_on,,,,,52,0,5,,,,,,2,,57,90
191132,note_off,,,,,92,0,4,,,,,,1,,76,0
191132,note_off,,,,,92,0,8,,,,,,4,,79,0
191136,note_on,,,,,4,0,4,,,,,,1,,73,90
191136,note_on,,,,,4,0,8,,,,,,4,,76,100
191180,note_off,,,,,140,0,5,,,,,,2,,57,0
191228,note_off,,,,,92,0,8,,,,,,4,,76,0
191228,note_off,,,,,92,0,4,,,,,,1,,73,0
191232,note_on,,,,,4,0,8,,,,,,4,,73,100
191232,note_on,,,,,52,0,5,,,,,,2,,57,90
191232,note_on,,,,,4,0,4,,,,,,1,,69,90
191324,note_off,,,,,92,0,8,,,,,,4,,73,0
191328,note_on,,,,,4,0,8,,,,,,4,,76,100
191328,note_on,,,,,292,0,9,,,,,,4,,64,100
191372,note_off,,,,,140,0,5,,,,,,2,,57,0
191372,note_off,,,,,140,0,4,,,,,,1,,69,0
191420,note_off,,,,,380,0,3,,,,,,0,,79,0
191420,note_off,,,,,92,0,8,,,,,,4,,76,0
191420,note_off,,,,,92,0,9,,,,,,4,,64,0
191424,note_on,,,,,4,0,3,,,,,,0,,76,90
191424,note_on,,,,,4,0,9,,,,,,4,,62,100
191424,note_on,,,,,580,0,6,,,,,,3,,52,90
191424,note_on,,,,,52,0,5,,,,,,2,,57,90
191424,note_on,,,,,580,0,7,,,,,,3,,40,90
191424,note_on,,,,,4,0,8,,,,,,4,,77,100
191424,note_on,,,,,52,0,4,,,,,,1,,69,90
191516,note_off,,,,,92,0,3,,,,,,0,,76,0
191516,note_off,,,,,92,0,9,,,,,,4,,62,0
191516,note_off,,,,,92,0,8,,,,,,4,,77,0
191520,note_on,,,,,4,0,9,,,,,,4,,64,100
191520,note_on,,,,,4,0,8,,,,,,4,,79,100
191520,note_on,,,,,4,0,3,,,,,,0,,73,90
191564,note_off,,,,,140,0,5,,,,,,2,,57,0
191612,note_off,,,,,188,0,7,,,,,,3,,40,0
191612,note_off,,,,,92,0,8,,,,,,4,,79,0
191612,note_off,,,,,92,0,3,,,,,,0,,73,0
191612,note_off,,,,,188,0,6,,,,,,3,,52,0
191612,note_off,,,,,92,0,9,,,,,,4,,64,0
191616,note_on,,,,,4,0,3,,,,,,0,,69,90
191616,note_on,,,,,52,0,5,,,,,,2,,57,90
191616,note_on,,,,,4,0,9,,,,,,4,,61,100
191616,note_on,,,,,4,0,7,,,,,,3,,37,90
191616,note_on,,,,,4,0,6,,,,,,3,,49,90
191616,note_on,,,,,4,0,8,,,,,,4,,81,100
191708,note_off,,,,,92,0,9,,,,,,4,,61,0
191708,note_off,,,,,92,0,8,,,,,,4,,81,0
191712,note_on,,,,,4,0,9,,,,,,4,,62,100
191712,note_on,,,,,4,0,8,,,,,,4,,77,100
191756,note_off,,,,,140,0,5,,,,,,2,,57,0
191804,note_off,,,,,188,0,6,,,,,,3,,49,0
191804,note_off,,,,,92,0,9,,,,,,4,,62,0
191804,note_off,,,,,92,0,8,,,,,,4,,77,0
191804,note_off,,,,,380,0,4,,,,,,1,,69,0
191804,note_off,,,,,188,0,3,,,,,,0,,69,0
191804,note_off,,,,,188,0,7,,,,,,3,,37,0
191808,note_on,,,,,4,0,7,,,,,,3,,33,90
191808,note_on,,,,,52,0,5,,,,,,2,,57,90
191808,note_on,,,,,4,0,3,,,,,,0,,73,90
191808,note_on,,,,,4,0,4,,,,,,1,,64,90
191808,note_on,,,,,4,0,6,,,,,,3,,45,90
191808,note_on,,,,,4,0,9,,,,,,4,,64,100
191808,note_on,,,,,4,0,8,,,,,,4,,79,100
191900,note_off,,,,,92,0,4,,,,,,1,,64,0
191900,note_off,,,,,92,0,9,,,,,,4,,64,0
191900,note_off,,,,,92,0,8,,,,,,4,,79,0
191904,note_on,,,,,4,0,4,,,,,,1,,61,90
191904,note_on,,,,,4,0,8,,,,,,4,,76,100
191904,note_on,,,,,4,0,9,,,,,,4,,57,100
191948,note_off,,,,,140,0,5,,,,,,2,,57,0
191996,note_off,,,,,188,0,3,,,,,,0,,73,0
191996,note_off,,,,,92,0,4,,,,,,1,,61,0
191996,note_off,,,,,92,0,8,,,,,,4,,76,0
191996,note_off,,,,,188,0,7,,,,,,3,,33,0
191996,note_off,,,,,188,0,6,,,,,,3,,45,0
191996,note_off,,,,,92,0,9,,,,,,4,,57,0
192000,note_on,,,,,4,0,3,,,,,,0,,77,90
192000,note_on,,,,,4,0,4,,,,,,1,,62,90
192000,note_on,,,,,52,0,5,,,,,,2,,57,90
192000,note_on,,,,,4,0,7,,,,,,3,,38,90
192000,note_on,,,,,4,0,9,,,,,,4,,62,100
192000,note_on,,,,,4,0,6,,,,,,3,,50,90
192000,note_on,,,,,4,0,8,,,,,,4,,77,100
192092,note_off,,,,,92,0,8,,,,,,4,,77,0
192092,note_off,,,,,92,0,4,,,,,,1,,62,0
192096,note_on,,,,,4,0,8,,,,,,4,,74,100
192096,note_on,,,,,4,0,4,,,,,,1,,64,90
192140,note_off,,,,,140,0,7,,,,,,3,,38,0
192140,note_off,,,,,140,0,6,,,,,,3,,50,0
192188,note_off,,,,,188,0,3,,,,,,0,,77,0
192188,note_off,,,,,92,0,4,,,,,,1,,64,0
192188,note_off,,,,,92,0,8,,,,,,4,,74,0
192188,note_off,,,,,188,0,9,,,,,,4,,62,0
192192,note_on,,,,,52,0,7,,,,,,3,,38,90
192192,note_on,,,,,4,0,4,,,,,,1,,65,90
192192,note_on,,,,,4,0,9,,,,,,4,,50,100
192192,note_on,,,,,52,0,6,,,,,,3,,50,90
192192,note_on,,,,,4,0,8,,,,,,4,,77,100
192284,note_off,,,,,92,0,8,,,,,,4,,77,0
192288,note_on,,,,,4,0,8,,,,,,4,,81,100
192320,note_off,,,,,128,0,4,,,,,,1,,65,0
192320,note_off,,,,,128,0,9,,,,,,4,,50,0
192332,note_off,,,,,140,0,6,,,,,,3,,50,0
192332,note_off,,,,,140,0,7,,,,,,3,,38,0
192380,note_off,,,,,380,0,5,,,,,,2,,57,0
192380,note_off,,,,,92,0,8,,,,,,4,,81,0
192384,note_on,,,,,52,0,6,,,,,,3,,50,90
192384,note_on,,,,,4,0,5,,,,,,2,,62,90
192384,note_on,,,,,196,0,3,,,,,,0,,81,90
192384,note_on,,,,,64,0,9,,,,,,4,,50,100
192384,note_on,,,,,4,0,8,,,,,,4,,86,100
192384,note_on,,,,,52,0,7,,,,,,3,,38,90
192384,note_on,,,,,64,0,4,,,,,,1,,64,90
192476,note_off,,,,,92,0,8,,,,,,4,,86,0
192480,note_on,,,,,4,0,8,,,,,,4,,74,100
192524,note_off,,,,,140,0,6,,,,,,3,,50,0
192524,note_off,,,,,140,0,7,,,,,,3,,38,0
192572,note_off,,,,,188,0,4,,,,,,1,,64,0
192572,note_off,,,,,92,0,8,,,,,,4,,74,0
192572,note_off,,,,,188,0,3,,,,,,0,,81,0
192572,note_off,,,,,188,0,9,,,,,,4,,50,0
192576,note_on,,,,,4,0,4,,,,,,1,,62,90
192576,note_on,,,,,4,0,9,,,,,,4,,62,100
192576,note_on,,,,,52,0,6,,,,,,3,,50,90
192576,note_on,,,,,4,0,8,,,,,,4,,77,100
192576,note_on,,,,,52,0,7,,,,,,3,,38,90
192668,note_off,,,,,92,0,8,,,,,,4,,77,0
192672,note_on,,,,,4,0,8,,,,,,4,,81,100
192716,note_off,,,,,140,0,6,,,,,,3,,50,0
192716,note_off,,,,,140,0,7,,,,,,3,,38,0
192764,note_off,,,,,92,0,8,,,,,,4,,81,0
192764,note_off,,,,,380,0,5,,,,,,2,,62,0
192764,note_off,,,,,188,0,9,,,,,,4,,62,0
192764,note_off,,,,,188,0,4,,,,,,1,,62,0
192768,note_on,,,,,4,0,8,,,,,,4,,86,100
192768,note_on,,,,,196,0,3,,,,,,0,,78,90
192768,note_on,,,,,4,0,9,,,,,,4,,60,100
192768,note_on,,,,,52,0,7,,,,,,3,,36,90
192768,note_on,,,,,4,0,4,,,,,,1,,69,90
192768,note_on,,,,,52,0,6,,,,,,3,,48,90
192860,note_off,,,,,92,0,8,,,,,,4,,86,0
192864,note_on,,,,,4,0,8,,,,,,4,,74,100
192908,note_off,,,,,140,0,6,,,,,,3,,48,0
192908,note_off,,,,,140,0,7,,,,,,3,,36,0
192956,note_off,,,,,188,0,4,,,,,,1,,69,0
192956,note_off,,,,,188,0,9,,,,,,4,,60,0
192956,note_off,,,,,188,0,3,,,,,,0,,78,0
192956,note_off,,,,,92,0,8,,,,,,4,,74,0
192960,note_on,,,,,4,0,4,,,,,,1,,74,90
192960,note_on,,,,,4,0,9,,,,,,4,,48,100
192960,note_on,,,,,52,0,6,,,,,,3,,48,90
192960,note_on,,,,,4,0,8,,,,,,4,,78,100
192960,note_on,,,,,52,0,7,,,,,,3,,36,90
193052,note_off,,,,,92,0,8,,,,,,4,,78,0
193056,note_on,,,,,4,0,8,,,,,,4,,81,100
193088,note_off,,,,,128,0,9,,,,,,4,,48,0
193100,note_off,,,,,140,0,6,,,,,,3,,48,0
193100,note_off,,,,,140,0,7,,,,,,3,,36,0
193148,note_off,,,,,92,0,8,,,,,,4,,81,0
193152,note_on,,,,,64,0,9,,,,,,4,,48,100
193152,note_on,,,,,196,0,3,,,,,,0,,74,90
193152,note_on,,,,,52,0,6,,,,,,3,,48,90
193152,note_on,,,,,388,0,5,,,,,,2,,60,90
193152,note_on,,,,,52,0,7,,,,,,3,,36,90
193152,note_on,,,,,4,0,8,,,,,,4,,86,100
193244,note_off,,,,,92,0,8,,,,,,4,,86,0
193248,note_on,,,,,4,0,8,,,,,,4,,74,100
193292,note_off,,,,,140,0,6,,,,,,3,,48,0
193292,note_off,,,,,140,0,7,,,,,,3,,36,0
193340,note_off,,,,,92,0,8,,,,,,4,,74,0
193340,note_off,,,,,380,0,4,,,,,,1,,74,0
193340,note_off,,,,,188,0,3,,,,,,0,,74,0
193340,note_off,,,,,188,0,9,,,,,,4,,48,0
193344,note_on,,,,,52,0,6,,,,,,3,,48,90
193344,note_on,,,,,4,0,8,,,,,,4,,78,100
193344,note_on,,,,,52,0,7,,,,,,3,,36,90
193344,note_on,,,,,4,0,4,,,,,,1,,66,90
193344,note_on,,,,,4,0,9,,,,,,4,,60,100
193436,note_off,,,,,92,0,8,,,,,,4,,78,0
193440,note_on,,,,,4,0,8,,,,,,4,,81,100
193484,note_off,,,,,140,0,7,,,,,,3,,36,0
193484,note_off,,,,,140,0,6,,,,,,3,,48,0
193532,note_off,,,,,380,0,5,,,,,,2,,60,0
193532,note_off,,,,,92,0,8,,,,,,4,,81,0
193532,note_off,,,,,188,0,4,,,,,,1,,66,0
193532,note_off,,,,,188,0,9,,,,,,4,,60,0
193536,note_on,,,,,4,0,9,,,,,,4,,58,100
193536,note_on,,,,,4,0,4,,,,,,1,,67,90
193536,note_on,,,,,196,0,3,,,,,,0,,67,90
193536,note_on,,,,,52,0,7,,,,,,3,,34,90
193536,note_on,,,,,4,0,8,,,,,,4,,86,100
193536,note_on,,,,,52,0,6,,,,,,3,,46,90
193628,note_off,,,,,92,0,8,,,,,,4,,86,0
193628,note_off,,,,,92,0,3,,,,,,0,,67,0
193632,note_on,,,,,4,0,8,,,,,,4,,74,100
193632,note_on,,,,,4,0,3,,,,,,0,,69,90
193676,note_off,,,,,140,0,6,,,,,,3,,46,0
193676,note_off,,,,,140,0,7,,,,,,3,,34,0
193724,note_off,,,,,92,0,3,,,,,,0,,69,0
193724,note_off,,,,,92,0,8,,,,,,4,,74,0
193724,note_off,,,,,188,0,4,,,,,,1,,67,0
193724,note_off,,,,,188,0,9,,,,,,4,,58,0
193728,note_on,,,,,4,0,8,,,,,,4,,79,100
193728,note_on,,,,,4,0,9,,,,,,4,,46,100
193728,note_on,,,,,52,0,7,,,,,,3,,34,90
193728,note_on,,,,,4,0,3,,,,,,0,,70,90
193728,note_on,,,,,52,0,6,,,,,,3,,46,90
193820,note_off,,,,,92,0,8,,,,,,4,,79,0
193824,note_on,,,,,4,0,8,,,,,,4,,82,100
193856,note_off,,,,,128,0,9,,,,,,4,,46,0
193856,note_off,,,,,128,0,3,,,,,,0,,70,0
193868,note_off,,,,,140,0,7,,,,,,3,,34,0
193868,note_off,,,,,140,0,6,,,,,,3,,46,0
193916,note_off,,,,,92,0,8,,,,,,4,,82,0
193920,note_on,,,,,64,0,9,,,,,,4,,46,100
193920,note_on,,,,,196,0,4,,,,,,1,,70,90
193920,note_on,,,,,64,0,3,,,,,,0,,69,90
193920,note_on,,,,,52,0,6,,,,,,3,,46,90
193920,note_on,,,,,388,0,5,,,,,,2,,58,90
193920,note_on,,,,,4,0,8,,,,,,4,,86,100
193920,note_on,,,,,52,0,7,,,,,,3,,34,90
194012,note_off,,,,,92,0,8,,,,,,4,,86,0
194016,note_on,,,,,4,0,8,,,,,,4,,74,100
194060,note_off,,,,,140,0,6,,,,,,3,,46,0
194060,note_off,,,,,140,0,7,,,,,,3,,34,0
194108,note_off,,,,,188,0,3,,,,,,0,,69,0
194108,note_off,,,,,188,0,9,,,,,,4,,46,0
194108,note_off,,,,,188,0,4,,,,,,1,,70,0
194108,note_off,,,,,92,0,8,,,,,,4,,74,0
194112,note_on,,,,,4,0,3,,,,,,0,,67,90
194112,note_on,,,,,52,0,6,,,,,,3,,46,90
194112,note_on,,,,,4,0,9,,,,,,4,,58,100
194112,note_on,,,,,52,0,7,,,,,,3,,34,90
194112,note_on,,,,,4,0,8,,,,,,4,,79,100
194204,note_off,,,,,92,0,8,,,,,,4,,79,0
194208,note_on,,,,,4,0,8,,,,,,4,,82,100
194252,note_off,,,,,140,0,7,,,,,,3,,34,0
194252,note_off,,,,,140,0,6,,,,,,3,,46,0
194300,note_off,,,,,92,0,8,,,,,,4,,82,0
194300,note_off,,,,,188,0,3,,,,,,0,,67,0
194300,note_off,,,,,188,0,9,,,,,,4,,58,0
194300,note_off,,,,,380,0,5,,,,,,2,,58,0
194304,note_on,,,,,52,0,6,,,,,,3,,47,90
194304,note_on,,,,,4,0,8,,,,,,4,,86,100
194304,note_on,,,,,196,0,4,,,,,,1,,67,90
194304,note_on,,,,,4,0,9,,,,,,4,,59,100
194304,note_on,,,,,4,0,3,,,,,,0,,74,90
194304,note_on,,,,,52,0,7,,,,,,3,,35,90
194396,note_off,,,,,92,0,8,,,,,,4,,86,0
194400,note_on,,,,,4,0,8,,,,,,4,,74,100
194444,note_off,,,,,140,0,6,,,,,,3,,47,0
194444,note_off,,,,,140,0,7,,,,,,3,,35,0
194492,note_off,,,,,188,0,9,,,,,,4,,59,0
194492,note_off,,,,,188,0,3,,,,,,0,,74,0
194492,note_off,,,,,188,0,4,,,,,,1,,67,0
194492,note_off,,,,,92,0,8,,,,,,4,,74,0
194496,note_on,,,,,4,0,8,,,,,,4,,77,100
194496,note_on,,,,,4,0,9,,,,,,4,,47,100
194496,note_on,,,,,52,0,7,,,,,,3,,35,90
194496,note_on,,,,,52,0,6,,,,,,3,,47,90
194496,note_on,,,,,4,0,3,,,,,,0,,79,90
194588,note_off,,,,,92,0,8,,,,,,4,,77,0
194592,note_on,,,,,4,0,8,,,,,,4,,83,100
194624,note_off,,,,,128,0,9,,,,,,4,,47,0
194636,note_off,,,,,140,0,6,,,,,,3,,47,0
194636,note_off,,,,,140,0,7,,,,,,3,,35,0
194684,note_off,,,,,92,0,8,,,,,,4,,83,0
194688,note_on,,,,,196,0,4,,,,,,1,,62,90
194688,note_on,,,,,64,0,9,,,,,,4,,47,100
194688,note_on,,,,,52,0,7,,,,,,3,,35,90
194688,note_on,,,,,388,0,5,,,,,,2,,59,90
194688,note_on,,,,,4,0,8,,,,,,4,,86,100
194688,note_on,,,,,52,0,6,,,,,,3,,47,90
194780,note_off,,,,,92,0,8,,,,,,4,,86,0
194784,note_on,,,,,4,0,8,,,,,,4,,83,100
194828,note_off,,,,,140,0,6,,,,,,3,,47,0
194828,note_off,,,,,140,0,7,,,,,,3,,35,0
194876,note_off,,,,,92,0,8,,,,,,4,,83,0
194876,note_off,,,,,188,0,9,,,,,,4,,47,0
194876,note_off,,,,,188,0,4,,,,,,1,,62,0
194876,note_off,,,,,380,0,3,,,,,,0,,79,0
194880,note_on,,,,,52,0,7,,,,,,3,,35,90
194880,note_on,,,,,4,0,8,,,,,,4,,77,100
194880,note_on,,,,,52,0,6,,,,,,3,,47,90
194880,note_on,,,,,4,0,3,,,,,,0,,74,90
194880,note_on,,,,,4,0,9,,,,,,4,,59,100
194972,note_off,,,,,92,0,8,,,,,,4,,77,0
194976,note_on,,,,,4,0,8,,,,,,4,,74,100
195020,note_off,,,,,140,0,7,,,,,,3,,35,0
195020,note_off,,,,,140,0,6,,,,,,3,,47,0
195068,note_off,,,,,380,0,5,,,,,,2,,59,0
195068,note_off,,,,,92,0,8,,,,,,4,,74,0
195068,note_off,,,,,188,0,3,,,,,,0,,74,0
195068,note_off,,,,,188,0,9,,,,,,4,,59,0
195072,note_on,,,,,52,0,6,,,,,,3,,48,90
195072,note_on,,,,,4,0,9,,,,,,4,,60,100
195072,note_on,,,,,196,0,4,,,,,,1,,60,90
195072,note_on,,,,,4,0,8,,,,,,4,,75,100
195072,note_on,,,,,52,0,7,,,,,,3,,36,90
195072,note_on,,,,,4,0,3,,,,,,0,,67,90
195164,note_off,,,,,92,0,8,,,,,,4,,75,0
195164,note_off,,,,,92,0,4,,,,,,1,,60,0
195168,note_on,,,,,4,0,4,,,,,,1,,62,90
195168,note_on,,,,,4,0,8,,,,,,4,,72,100
195212,note_off,,,,,140,0,7,,,,,,3,,36,0
195212,note_off,,,,,140,0,6,,,,,,3,,48,0
195260,note_off,,,,,92,0,8,,,,,,4,,72,0
195260,note_off,,,,,188,0,3,,,,,,0,,67,0
195260,note_off,,,,,92,0,4,,,,,,1,,62,0
195260,note_off,,,,,188,0,9,,,,,,4,,60,0
195264,note_on,,,,,52,0,6,,,,,,3,,48,90
195264,note_on,,,,,4,0,9,,,,,,4,,48,100
195264,note_on,,,,,4,0,8,,,,,,4,,75,100
195264,note_on,,,,,52,0,7,,,,,,3,,36,90
195264,note_on,,,,,4,0,4,,,,,,1,,63,90
195356,note_off,,,,,92,0,8,,,,,,4,,75,0
195360,note_on,,,,,4,0,8,,,,,,4,,79,100
195392,note_off,,,,,128,0,9,,,,,,4,,48,0
195392,note_off,,,,,128,0,4,,,,,,1,,63,0
195404,note_off,,,,,140,0,6,,,,,,3,,48,0
195404,note_off,,,,,140,0,7,,,,,,3,,36,0
195452,note_off,,,,,92,0,8,,,,,,4,,79,0
195456,note_on,,,,,52,0,6,,,,,,3,,48,90
195456,note_on,,,,,64,0,9,,,,,,4,,48,100
195456,note_on,,,,,388,0,5,,,,,,2,,60,90
195456,note_on,,,,,196,0,3,,,,,,0,,79,90
195456,note_on,,,,,52,0,7,,,,,,3,,36,90
195456,note_on,,,,,64,0,4,,,,,,1,,62,90
195456,note_on,,,,,4,0,8,,,,,,4,,84,100
195548,note_off,,,,,92,0,8,,,,,,4,,84,0
195552,note_on,,,,,4,0,8,,,,,,4,,72,100
195596,note_off,,,,,140,0,7,,,,,,3,,36,0
195596,note_off,,,,,140,0,6,,,,,,3,,48,0
195644,note_off,,,,,188,0,3,,,,,,0,,79,0
195644,note_off,,,,,92,0,8,,,,,,4,,72,0
195644,note_off,,,,,188,0,9,,,,,,4,,48,0
195644,note_off,,,,,188,0,4,,,,,,1,,62,0
195648,note_on,,,,,52,0,6,,,,,,3,,48,90
195648,note_on,,,,,52,0,7,,,,,,3,,36,90
195648,note_on,,,,,4,0,8,,,,,,4,,75,100
195648,note_on,,,,,4,0,9,,,,,,4,,60,100
195648,note_on,,,,,4,0,4,,,,,,1,,60,90
195740,note_off,,,,,92,0,8,,,,,,4,,75,0
195744,note_on,,,,,4,0,8,,,,,,4,,79,100
195788,note_off,,,,,140,0,7,,,,,,3,,36,0
195788,note_off,,,,,140,0,6,,,,,,3,,48,0
195836,note_off,,,,,188,0,4,,,,,,1,,60,0
195836,note_off,,,,,380,0,5,,,,,,2,,60,0
195836,note_off,,,,,188,0,9,,,,,,4,,60,0
195836,note_off,,,,,92,0,8,,,,,,4,,79,0
195840,note_on,,,,,52,0,6,,,,,,3,,46,90
195840,note_on,,,,,4,0,9,,,,,,4,,58,100
195840,note_on,,,,,196,0,3,,,,,,0,,76,90
195840,note_on,,,,,4,0,8,,,,,,4,,84,100
195840,note_on,,,,,52,0,7,,,,,,3,,34,90
195840,note_on,,,,,4,0,4,,,,,,1,,67,90
195932,note_off,,,,,92,0,8,,,,,,4,,84,0
195936,note_on,,,,,4,0,8,,,,,,4,,72,100
195980,note_off,,,,,140,0,7,,,,,,3,,34,0
195980,note_off,,,,,140,0,6,,,,,,3,,46,0
196028,note_off,,,,,92,0,8,,,,,,4,,72,0
196028,note_off,,,,,188,0,4,,,,,,1,,67,0
196028,note_off,,,,,188,0,9,,,,,,4,,58,0
196028,note_off,,,,,188,0,3,,,,,,0,,76,0
196032,note_on,,,,,52,0,6,,,,,,3,,46,90
196032,note_on,,,,,4,0,8,,,,,,4,,76,100
196032,note_on,,,,,52,0,7,,,,,,3,,34,90
196032,note_on,,,,,4,0,4,,,,,,1,,72,90
196032,note_on,,,,,4,0,9,,,,,,4,,46,100
196124,note_off,,,,,92,0,8,,,,,,4,,76,0
196128,note_on,,,,,4,0,8,,,,,,4,,79,100
196160,note_off,,,,,128,0,9,,,,,,4,,46,0
196172,note_off,,,,,140,0,6,,,,,,3,,46,0
196172,note_off,,,,,140,0,7,,,,,,3,,34,0
196220,note_off,,,,,92,0,8,,,,,,4,,79,0
196224,note_on,,,,,52,0,7,,,,,,3,,34,90
196224,note_on,,,,,64,0,9,,,,,,4,,46,100
196224,note_on,,,,,196,0,3,,,,,,0,,72,90
196224,note_on,,,,,52,0,6,,,,,,3,,46,90
196224,note_on,,,,,388,0,5,,,,,,2,,58,90
196224,note_on,,,,,4,0,8,,,,,,4,,84,100
196316,note_off,,,,,92,0,8,,,,,,4,,84,0
196320,note_on,,,,,4,0,8,,,,,,4,,72,100
196364,note_off,,,,,140,0,7,,,,,,3,,34,0
196364,note_off,,,,,140,0,6,,,,,,3,,46,0
196412,note_off,,,,,188,0,9,,,,,,4,,46,0
196412,note_off,,,,,188,0,3,,,,,,0,,72,0
196412,note_off,,,,,380,0,4,,,,,,1,,72,0
196412,note_off,,,,,92,0,8,,,,,,4,,72,0
196416,note_on,,,,,52,0,6,,,,,,3,,46,90
196416,note_on,,,,,4,0,8,,,,,,4,,76,100
196416,note_on,,,,,4,0,9,,,,,,4,,58,100
196416,note_on,,,,,52,0,7,,,,,,3,,34,90
196416,note_on,,,,,4,0,4,,,,,,1,,67,90
196508,note_off,,,,,92,0,8,,,,,,4,,76,0
196512,note_on,,,,,4,0,8,,,,,,4,,79,100
196556,note_off,,,,,140,0,7,,,,,,3,,34,0
196556,note_off,,,,,140,0,6,,,,,,3,,46,0
196604,note_off,,,,,188,0,4,,,,,,1,,67,0
196604,note_off,,,,,92,0,8,,,,,,4,,79,0
196604,note_off,,,,,380,0,5,,,,,,2,,58,0
196604,note_off,,,,,188,0,9,,,,,,4,,58,0
196608,note_on,,,,,4,0,4,,,,,,1,,65,90
196608,note_on,,,,,4,0,8,,,,,,4,,84,100
196608,note_on,,,,,52,0,7,,,,,,3,,33,90
196608,note_on,,,,,4,0,9,,,,,,4,,57,100
196608,note_on,,,,,196,0,3,,,,,,0,,65,90
196608,note_on,,,,,52,0,6,,,,,,3,,45,90
196700,note_off,,,,,92,0,8,,,,,,4,,84,0
196700,note_off,,,,,92,0,3,,,,,,0,,65,0
196704,note_on,,,,,4,0,8,,,,,,4,,72,100
196704,note_on,,,,,4,0,3,,,,,,0,,67,90
196748,note_off,,,,,140,0,7,,,,,,3,,33,0
196748,note_off,,,,,140,0,6,,,,,,3,,45,0
196796,note_off,,,,,188,0,4,,,,,,1,,65,0
196796,note_off,,,,,92,0,3,,,,,,0,,67,0
196796,note_off,,,,,92,0,8,,,,,,4,,72,0
196796,note_off,,,,,188,0,9,,,,,,4,,57,0
196800,note_on,,,,,4,0,3,,,,,,0,,69,90
196800,note_on,,,,,4,0,9,,,,,,4,,45,100
196800,note_on,,,,,4,0,8,,,,,,4,,77,100
196800,note_on,,,,,52,0,7,,,,,,3,,33,90
196800,note_on,,,,,52,0,6,,,,,,3,,45,90
196892,note_off,,,,,92,0,8,,,,,,4,,77,0
196896,note_on,,,,,4,0,8,,,,,,4,,81,100
196928,note_off,,,,,128,0,9,,,,,,4,,45,0
196928,note_off,,,,,128,0,3,,,,,,0,,69,0
196940,note_off,,,,,140,0,7,,,,,,3,,33,0
196940,note_off,,,,,140,0,6,,,,,,3,,45,0
196988,note_off,,,,,92,0,8,,,,,,4,,81,0
196992,note_on,,,,,52,0,7,,,,,,3,,33,90
196992,note_on,,,,,64,0,9,,,,,,4,,45,100
196992,note_on,,,,,64,0,3,,,,,,0,,67,90
196992,note_on,,,,,196,0,4,,,,,,1,,69,90
196992,note_on,,,,,4,0,8,,,,,,4,,84,100
196992,note_on,,,,,52,0,6,,,,,,3,,45,90
196992,note_on,,,,,388,0,5,,,,,,2,,57,90
197084,note_off,,,,,92,0,8,,,,,,4,,84,0
197088,note_on,,,,,4,0,8,,,,,,4,,72,100
197132,note_off,,,,,140,0,6,,,,,,3,,45,0
197132,note_off,,,,,140,0,7,,,,,,3,,33,0
197180,note_off,,,,,188,0,9,,,,,,4,,45,0
197180,note_off,,,,,92,0,8,,,,,,4,,72,0
197180,note_off,,,,,188,0,4,,,,,,1,,69,0
197180,note_off,,,,,188,0,3,,,,,,0,,67,0
197184,note_on,,,,,52,0,7,,,,,,3,,33,90
197184,note_on,,,,,52,0,6,,,,,,3,,45,90
197184,note_on,,,,,4,0,3,,,,,,0,,65,90
197184,note_on,,,,,4,0,9,,,,,,4,,57,100
197184,note_on,,,,,4,0,8,,,,,,4,,77,100
197276,note_off,,,,,92,0,8,,,,,,4,,77,0
197280,note_on,,,,,4,0,8,,,,,,4,,81,100
197324,note_off,,,,,140,0,6,,,,,,3,,45,0
197324,note_off,,,,,140,0,7,,,,,,3,,33,0
197372,note_off,,,,,92,0,8,,,,,,4,,81,0
197372,note_off,,,,,188,0,3,,,,,,0,,65,0
197372,note_off,,,,,188,0,9,,,,,,4,,57,0
197372,note_off,,,,,380,0,5,,,,,,2,,57,0
197376,note_on,,,,,52,0,7,,,,,,3,,33,90
197376,note_on,,,,,196,0,4,,,,,,1,,65,90
197376,note_on,,,,,4,0,9,,,,,,4,,57,100
197376,note_on,,,,,4,0,8,,,,,,4,,84,100
197376,note_on,,,,,52,0,6,,,,,,3,,45,90
197376,note_on,,,,,4,0,3,,,,,,0,,72,90
197468,note_off,,,,,92,0,8,,,,,,4,,84,0
197472,note_on,,,,,4,0,8,,,,,,4,,72,100
197516,note_off,,,,,140,0,6,,,,,,3,,45,0
197516,note_off,,,,,140,0,7,,,,,,3,,33,0
197564,note_off,,,,,188,0,9,,,,,,4,,57,0
197564,note_off,,,,,92,0,8,,,,,,4,,72,0
197564,note_off,,,,,188,0,4,,,,,,1,,65,0
197564,note_off,,,,,188,0,3,,,,,,0,,72,0
197568,note_on,,,,,4,0,3,,,,,,0,,77,90
197568,note_on,,,,,4,0,9,,,,,,4,,45,100
197568,note_on,,,,,52,0,7,,,,,,3,,33,90
197568,note_on,,,,,4,0,8,,,,,,4,,75,100
197568,note_on,,,,,52,0,6,,,,,,3,,45,90
197660,note_off,,,,,92,0,8,,,,,,4,,75,0
197664,note_on,,,,,4,0,8,,,,,,4,,81,100
197696,note_off,,,,,128,0,9,,,,,,4,,45,0
197708,note_off,,,,,140,0,7,,,,,,3,,33,0
197708,note_off,,,,,140,0,6,,,,,,3,,45,0
197756,note_off,,,,,92,0,8,,,,,,4,,81,0
197760,note_on,,,,,52,0,6,,,,,,3,,45,90
197760,note_on,,,,,196,0,4,,,,,,1,,60,90
197760,note_on,,,,,52,0,7,,,,,,3,,33,90
197760,note_on,,,,,388,0,5,,,,,,2,,57,90
197760,note_on,,,,,64,0,9,,,,,,4,,45,100
197760,note_on,,,,,4,0,8,,,,,,4,,84,100
197852,note_off,,,,,92,0,8,,,,,,4,,84,0
197856,note_on,,,,,4,0,8,,,,,,4,,81,100
197900,note_off,,,,,140,0,7,,,,,,3,,33,0
197900,note_off,,,,,140,0,6,,,,,,3,,45,0
197948,note_off,,,,,188,0,9,,,,,,4,,45,0
197948,note_off,,,,,380,0,3,,,,,,0,,77,0
197948,note_off,,,,,92,0,8,,,,,,4,,81,0
197948,note_off,,,,,188,0,4,,,,,,1,,60,0
197952,note_on,,,,,4,0,8,,,,,,4,,75,100
197952,note_on,,,,,4,0,9,,,,,,4,,57,100
197952,note_on,,,,,52,0,7,,,,,,3,,33,90
197952,note_on,,,,,4,0,3,,,,,,0,,72,90
197952,note_on,,,,,52,0,6,,,,,,3,,45,90
198044,note_off,,,,,92,0,8,,,,,,4,,75,0
198048,note_on,,,,,4,0,8,,,,,,4,,72,100
198092,note_off,,,,,140,0,7,,,,,,3,,33,0
198092,note_off,,,,,140,0,6,,,,,,3,,45,0
198140,note_off,,,,,188,0,9,,,,,,4,,57,0
198140,note_off,,,,,380,0,5,,,,,,2,,57,0
198140,note_off,,,,,188,0,3,,,,,,0,,72,0
198140,note_off,,,,,92,0,8,,,,,,4,,72,0
198144,note_on,,,,,52,0,6,,,,,,3,,46,90
198144,note_on,,,,,4,0,8,,,,,,4,,74,100
198144,note_on,,,,,4,0,9,,,,,,4,,58,100
198144,note_on,,,,,196,0,4,,,,,,1,,58,90
198144,note_on,,,,,52,0,7,,,,,,3,,34,90
198144,note_on,,,,,4,0,3,,,,,,0,,65,90
198236,note_off,,,,,92,0,8,,,,,,4,,74,0
198236,note_off,,,,,92,0,4,,,,,,1,,58,0
198240,note_on,,,,,4,0,8,,,,,,4,,70,100
198240,note_on,,,,,4,0,4,,,,,,1,,60,90
198284,note_off,,,,,140,0,7,,,,,,3,,34,0
198284,note_off,,,,,140,0,6,,,,,,3,,46,0
198332,note_off,,,,,92,0,4,,,,,,1,,60,0
198332,note_off,,,,,188,0,3,,,,,,0,,65,0
198332,note_off,,,,,188,0,9,,,,,,4,,58,0
198332,note_off,,,,,92,0,8,,,,,,4,,70,0
198336,note_on,,,,,4,0,8,,,,,,4,,74,100
198336,note_on,,,,,52,0,7,,,,,,3,,34,90
198336,note_on,,,,,52,0,6,,,,,,3,,46,90
198336,note_on,,,,,4,0,9,,,,,,4,,46,100
198336,note_on,,,,,4,0,4,,,,,,1,,62,90
198428,note_off,,,,,92,0,8,,,,,,4,,74,0
198432,note_on,,,,,4,0,8,,,,,,4,,77,100
198464,note_off,,,,,128,0,4,,,,,,1,,62,0
198464,note_off,,,,,128,0,9,,,,,,4,,46,0
198476,note_off,,,,,140,0,6,,,,,,3,,46,0
198476,note_off,,,,,140,0,7,,,,,,3,,34,0
198524,note_off,,,,,92,0,8,,,,,,4,,77,0
198528,note_on,,,,,196,0,3,,,,,,0,,77,90
198528,note_on,,,,,52,0,7,,,,,,3,,34,90
198528,note_on,,,,,64,0,4,,,,,,1,,60,90
198528,note_on,,,,,4,0,8,,,,,,4,,82,100
198528,note_on,,,,,388,0,5,,,,,,2,,58,90
198528,note_on,,,,,64,0,9,,,,,,4,,46,100
198528,note_on,,,,,52,0,6,,,,,,3,,46,90
198620,note_off,,,,,92,0,8,,,,,,4,,82,0
198624,note_on,,,,,4,0,8,,,,,,4,,70,100
198668,note_off,,,,,140,0,6,,,,,,3,,46,0
198668,note_off,,,,,140,0,7,,,,,,3,,34,0
198716,note_off,,,,,92,0,8,,,,,,4,,70,0
198716,note_off,,,,,188,0,4,,,,,,1,,60,0
198716,note_off,,,,,188,0,9,,,,,,4,,46,0
198716,note_off,,,,,188,0,3,,,,,,0,,77,0
198720,note_on,,,,,4,0,8,,,,,,4,,74,100
198720,note_on,,,,,52,0,6,,,,,,3,,46,90
198720,note_on,,,,,4,0,9,,,,,,4,,58,100
198720,note_on,,,,,52,0,7,,,,,,3,,34,90
198720,note_on,,,,,4,0,4,,,,,,1,,58,90
198812,note_off,,,,,92,0,8,,,,,,4,,74,0
198816,note_on,,,,,4,0,8,,,,,,4,,77,100
198860,note_off,,,,,140,0,7,,,,,,3,,34,0
198860,note_off,,,,,140,0,6,,,,,,3,,46,0
198908,note_off,,,,,188,0,9,,,,,,4,,58,0
198908,note_off,,,,,380,0,5,,,,,,2,,58,0
198908,note_off,,,,,188,0,4,,,,,,1,,58,0
198908,note_off,,,,,92,0,8,,,,,,4,,77,0
198912,note_on,,,,,52,0,6,,,,,,3,,44,90
198912,note_on,,,,,4,0,8,,,,,,4,,82,100
198912,note_on,,,,,52,0,7,,,,,,3,,32,90
198912,note_on,,,,,196,0,3,,,,,,0,,74,90
198912,note_on,,,,,4,0,4,,,,,,1,,65,90
198912,note_on,,,,,4,0,9,,,,,,4,,56,100
199004,note_off,,,,,92,0,8,,,,,,4,,82,0
199008,note_on,,,,,4,0,8,,,,,,4,,70,100
199052,note_off,,,,,140,0,7,,,,,,3,,32,0
199052,note_off,,,,,140,0,6,,,,,,3,,44,0
199100,note_off,,,,,188,0,4,,,,,,1,,65,0
199100,note_off,,,,,188,0,9,,,,,,4,,56,0
199100,note_off,,,,,92,0,8,,,,,,4,,70,0
199100,note_off,,,,,188,0,3,,,,,,0,,74,0
199104,note_on,,,,,52,0,7,,,,,,3,,32,90
199104,note_on,,,,,4,0,4,,,,,,1,,70,90
199104,note_on,,,,,52,0,6,,,,,,3,,44,90
199104,note_on,,,,,4,0,9,,,,,,4,,44,100
199104,note_on,,,,,4,0,8,,,,,,4,,74,100
199196,note_off,,,,,92,0,8,,,,,,4,,74,0
199200,note_on,,,,,4,0,8,,,,,,4,,77,100
199232,note_off,,,,,128,0,9,,,,,,4,,44,0
199244,note_off,,,,,140,0,6,,,,,,3,,44,0
199244,note_off,,,,,140,0,7,,,,,,3,,32,0
199292,note_off,,,,,92,0,8,,,,,,4,,77,0
199296,note_on,,,,,4,0,8,,,,,,4,,82,100
199296,note_on,,,,,64,0,9,,,,,,4,,44,100
199296,note_on,,,,,52,0,6,,,,,,3,,44,90
199296,note_on,,,,,52,0,7,,,,,,3,,32,90
199296,note_on,,,,,388,0,5,,,,,,2,,56,90
199296,note_on,,,,,196,0,3,,,,,,0,,70,90
199388,note_off,,,,,92,0,8,,,,,,4,,82,0
199392,note_on,,,,,4,0,8,,,,,,4,,70,100
199436,note_off,,,,,140,0,6,,,,,,3,,44,0
199436,note_off,,,,,140,0,7,,,,,,3,,32,0
199484,note_off,,,,,188,0,3,,,,,,0,,70,0
199484,note_off,,,,,380,0,4,,,,,,1,,70,0
199484,note_off,,,,,188,0,9,,,,,,4,,44,0
199484,note_off,,,,,92,0,8,,,,,,4,,70,0
199488,note_on,,,,,52,0,7,,,,,,3,,32,90
199488,note_on,,,,,4,0,4,,,,,,1,,65,90
199488,note_on,,,,,52,0,6,,,,,,3,,44,90
199488,note_on,,,,,4,0,8,,,,,,4,,74,100
199488,note_on,,,,,4,0,9,,,,,,4,,56,100
199580,note_off,,,,,92,0,8,,,,,,4,,74,0
199584,note_on,,,,,4,0,8,,,,,,4,,77,100
199628,note_off,,,,,140,0,6,,,,,,3,,44,0
199628,note_off,,,,,140,0,7,,,,,,3,,32,0
199676,note_off,,,,,188,0,9,,,,,,4,,56,0
199676,note_off,,,,,92,0,8,,,,,,4,,77,0
199676,note_off,,,,,380,0,5,,,,,,2,,56,0
199676,note_off,,,,,188,0,4,,,,,,1,,65,0
199680,note_on,,,,,196,0,3,,,,,,0,,63,90
199680,note_on,,,,,52,0,6,,,,,,3,,43,90
199680,note_on,,,,,4,0,4,,,,,,1,,63,90
199680,note_on,,,,,52,0,7,,,,,,3,,31,90
199680,note_on,,,,,4,0,9,,,,,,4,,55,100
199680,note_on,,,,,4,0,8,,,,,,4,,82,100
199772,note_off,,,,,92,0,3,,,,,,0,,63,0
199772,note_off,,,,,92,0,8,,,,,,4,,82,0
199776,note_on,,,,,4,0,3,,,,,,0,,65,90
199776,note_on,,,,,4,0,8,,,,,,4,,70,100
199820,note_off,,,,,140,0,7,,,,,,3,,31,0
199820,note_off,,,,,140,0,6,,,,,,3,,43,0
199868,note_off,,,,,188,0,9,,,,,,4,,55,0
199868,note_off,,,,,92,0,3,,,,,,0,,65,0
199868,note_off,,,,,188,0,4,,,,,,1,,63,0
199868,note_off,,,,,92,0,8,,,,,,4,,70,0
199872,note_on,,,,,52,0,6,,,,,,3,,43,90
199872,note_on,,,,,52,0,7,,,,,,3,,31,90
199872,note_on,,,,,4,0,8,,,,,,4,,75,100
199872,note_on,,,,,4,0,9,,,,,,4,,43,100
199872,note_on,,,,,4,0,3,,,,,,0,,67,90
199964,note_off,,,,,92,0,8,,,,,,4,,75,0
199968,note_on,,,,,4,0,8,,,,,,4,,79,100
200000,note_off,,,,,128,0,9,,,,,,4,,43,0
200000,note_off,,,,,128,0,3,,,,,,0,,67,0
200012,note_off,,,,,140,0,6,,,,,,3,,43,0
200012,note_off,,,,,140,0,7,,,,,,3,,31,0
200060,note_off,,,,,92,0,8,,,,,,4,,79,0
200064,note_on,,,,,388,0,5,,,,,,2,,55,90
200064,note_on,,,,,4,0,8,,,,,,4,,82,100
200064,note_on,,,,,196,0,4,,,,,,1,,67,90
200064,note_on,,,,,64,0,3,,,,,,0,,65,90
200064,note_on,,,,,64,0,9,,,,,,4,,43,100
200064,note_on,,,,,52,0,6,,,,,,3,,43,90
200064,note_on,,,,,52,0,7,,,,,,3,,31,90
200156,note_off,,,,,92,0,8,,,,,,4,,82,0
200160,note_on,,,,,4,0,8,,,,,,4,,70,100
200204,note_off,,,,,140,0,6,,,,,,3,,43,0
200204,note_off,,,,,140,0,7,,,,,,3,,31,0
200252,note_off,,,,,92,0,8,,,,,,4,,70,0
200252,note_off,,,,,188,0,4,,,,,,1,,67,0
200252,note_off,,,,,188,0,3,,,,,,0,,65,0
200252,note_off,,,,,188,0,9,,,,,,4,,43,0
200256,note_on,,,,,4,0,8,,,,,,4,,75,100
200256,note_on,,,,,52,0,6,,,,,,3,,43,90
200256,note_on,,,,,4,0,3,,,,,,0,,63,90
200256,note_on,,,,,52,0,7,,,,,,3,,31,90
200256,note_on,,,,,4,0,9,,,,,,4,,55,100
200348,note_off,,,,,92,0,8,,,,,,4,,75,0
200352,note_on,,,,,4,0,8,,,,,,4,,79,100
200396,note_off,,,,,140,0,7,,,,,,3,,31,0
200396,note_off,,,,,140,0,6,,,,,,3,,43,0
200444,note_off,,,,,188,0,9,,,,,,4,,55,0
200444,note_off,,,,,188,0,3,,,,,,0,,63,0
200444,note_off,,,,,92,0,8,,,,,,4,,79,0
200444,note_off,,,,,380,0,5,,,,,,2,,55,0
200448,note_on,,,,,52,0,7,,,,,,3,,31,90
200448,note_on,,,,,196,0,4,,,,,,1,,63,90
200448,note_on,,,,,52,0,6,,,,,,3,,43,90
200448,note_on,,,,,4,0,3,,,,,,0,,70,90
200448,note_on,,,,,4,0,8,,,,,,4,,82,100
200448,note_on,,,,,4,0,9,,,,,,4,,55,100
200540,note_off,,,,,92,0,8,,,,,,4,,82,0
200544,note_on,,,,,4,0,8,,,,,,4,,70,100
200588,note_off,,,,,140,0,7,,,,,,3,,31,0
200588,note_off,,,,,140,0,6,,,,,,3,,43,0
200636,note_off,,,,,92,0,8,,,,,,4,,70,0
200636,note_off,,,,,188,0,3,,,,,,0,,70,0
200636,note_off,,,,,188,0,4,,,,,,1,,63,0
200636,note_off,,,,,188,0,9,,,,,,4,,55,0
200640,note_on,,,,,4,0,8,,,,,,4,,75,100
200640,note_on,,,,,52,0,7,,,,,,3,,31,90
200640,note_on,,,,,4,0,9,,,,,,4,,43,100
200640,note_on,,,,,52,0,6,,,,,,3,,43,90
200640,note_on,,,,,4,0,3,,,,,,0,,75,90
200732,note_off,,,,,92,0,8,,,,,,4,,75,0
200736,note_on,,,,,4,0,8,,,,,,4,,79,100
200768,note_off,,,,,128,0,9,,,,,,4,,43,0
200780,note_off,,,,,140,0,6,,,,,,3,,43,0
200780,note_off,,,,,140,0,7,,,,,,3,,31,0
200828,note_off,,,,,92,0,8,,,,,,4,,79,0
200832,note_on,,,,,52,0,6,,,,,,3,,43,90
200832,note_on,,,,,64,0,9,,,,,,4,,43,100
200832,note_on,,,,,388,0,5,,,,,,2,,55,90
200832,note_on,,,,,4,0,8,,,,,,4,,82,100
200832,note_on,,,,,52,0,7,,,,,,3,,31,90
200832,note_on,,,,,196,0,4,,,,,,1,,67,90
200924,note_off,,,,,92,0,8,,,,,,4,,82,0
200928,note_on,,,,,4,0,8,,,,,,4,,79,100
200972,note_off,,,,,140,0,7,,,,,,3,,31,0
200972,note_off,,,,,140,0,6,,,,,,3,,43,0
201020,note_off,,,,,92,0,8,,,,,,4,,79,0
201020,note_off,,,,,380,0,3,,,,,,0,,75,0
201020,note_off,,,,,188,0,9,,,,,,4,,43,0
201020,note_off,,,,,188,0,4,,,,,,1,,67,0
201024,note_on,,,,,52,0,7,,,,,,3,,31,90
201024,note_on,,,,,52,0,6,,,,,,3,,43,90
201024,note_on,,,,,4,0,3,,,,,,0,,70,90
201024,note_on,,,,,4,0,8,,,,,,4,,75,100
201024,note_on,,,,,4,0,9,,,,,,4,,55,100
201116,note_off,,,,,92,0,8,,,,,,4,,75,0
201120,note_on,,,,,4,0,8,,,,,,4,,79,100
201164,note_off,,,,,140,0,6,,,,,,3,,43,0
201164,note_off,,,,,140,0,7,,,,,,3,,31,0
201212,note_off,,,,,92,0,8,,,,,,4,,79,0
201212,note_off,,,,,188,0,9,,,,,,4,,55,0
201212,note_off,,,,,380,0,5,,,,,,2,,55,0
201212,note_off,,,,,188,0,3,,,,,,0,,70,0
201216,note_on,,,,,4,0,9,,,,,,4,,55,100
201216,note_on,,,,,4,0,8,,,,,,4,,73,100
201216,note_on,,,,,52,0,6,,,,,,3,,43,85
201216,note_on,,,,,196,0,4,,,,,,1,,64,85
201216,note_on,,,,,52,0,7,,,,,,3,,31,85
201216,note_on,,,,,4,0,3,,,,,,0,,69,85
201216,note_on,,,,,4,0,5,,,,,,2,,57,85
201308,note_off,,,,,92,0,8,,,,,,4,,73,0
201308,note_off,,,,,92,0,9,,,,,,4,,55,0
201312,note_on,,,,,4,0,8,,,,,,4,,69,100
201312,note_on,,,,,4,0,9,,,,,,4,,67,100
201344,note_off,,,,,128,0,3,,,,,,0,,69,0
201404,note_off,,,,,188,0,5,,,,,,2,,57,0
201404,note_off,,,,,92,0,9,,,,,,4,,67,0
201404,note_off,,,,,92,0,8,,,,,,4,,69,0
201404,note_off,,,,,188,0,4,,,,,,1,,64,0
201408,note_on,,,,,4,0,8,,,,,,4,,73,100
201408,note_on,,,,,4,0,5,,,,,,2,,76,85
201408,note_on,,,,,64,0,3,,,,,,0,,69,85
201408,note_on,,,,,4,0,9,,,,,,4,,64,100
201500,note_off,,,,,92,0,8,,,,,,4,,73,0
201500,note_off,,,,,92,0,9,,,,,,4,,64,0
201504,note_on,,,,,4,0,9,,,,,,4,,61,100
201504,note_on,,,,,4,0,8,,,,,,4,,76,100
201536,note_off,,,,,128,0,3,,,,,,0,,69,0
201596,note_off,,,,,92,0,9,,,,,,4,,61,0
201596,note_off,,,,,92,0,8,,,,,,4,,76,0
201596,note_off,,,,,380,0,7,,,,,,3,,31,0
201596,note_off,,,,,380,0,6,,,,,,3,,43,0
201600,note_on,,,,,196,0,4,,,,,,1,,64,85
201600,note_on,,,,,64,0,3,,,,,,0,,73,85
201600,note_on,,,,,4,0,8,,,,,,4,,81,100
201600,note_on,,,,,4,0,9,,,,,,4,,57,100
201692,note_off,,,,,92,0,9,,,,,,4,,57,0
201692,note_off,,,,,92,0,8,,,,,,4,,81,0
201696,note_on,,,,,4,0,9,,,,,,4,,64,100
201696,note_on,,,,,4,0,8,,,,,,4,,69,100
201728,note_off,,,,,128,0,3,,,,,,0,,73,0
201788,note_off,,,,,92,0,8,,,,,,4,,69,0
201788,note_off,,,,,188,0,4,,,,,,1,,64,0
201788,note_off,,,,,92,0,9,,,,,,4,,64,0
201788,note_off,,,,,380,0,5,,,,,,2,,76,0
201792,note_on,,,,,4,0,9,,,,,,4,,61,100
201792,note_on,,,,,64,0,3,,,,,,0,,73,85
201792,note_on,,,,,4,0,8,,,,,,4,,73,100
201792,note_on,,,,,4,0,5,,,,,,2,,69,85
201884,note_off,,,,,92,0,8,,,,,,4,,73,0
201884,note_off,,,,,92,0,9,,,,,,4,,61,0
201888,note_on,,,,,4,0,8,,,,,,4,,76,100
201888,note_on,,,,,4,0,9,,,,,,4,,57,100
201920,note_off,,,,,128,0,3,,,,,,0,,73,0
201980,note_off,,,,,92,0,9,,,,,,4,,57,0
201980,note_off,,,,,92,0,8,,,,,,4,,76,0
201984,note_on,,,,,196,0,4,,,,,,1,,65,85
201984,note_on,,,,,388,0,6,,,,,,3,,41,85
201984,note_on,,,,,4,0,8,,,,,,4,,81,100
201984,note_on,,,,,4,0,9,,,,,,4,,53,100
201984,note_on,,,,,64,0,3,,,,,,0,,74,85
201984,note_on,,,,,388,0,7,,,,,,3,,29,85
202076,note_off,,,,,92,0,8,,,,,,4,,81,0
202080,note_on,,,,,4,0,8,,,,,,4,,69,100
202112,note_off,,,,,128,0,3,,,,,,0,,74,0
202172,note_off,,,,,188,0,4,,,,,,1,,65,0
202172,note_off,,,,,92,0,8,,,,,,4,,69,0
202172,note_off,,,,,188,0,9,,,,,,4,,53,0
202172,note_off,,,,,380,0,5,,,,,,2,,69,0
202176,note_on,,,,,4,0,5,,,,,,2,,65,85
202176,note_on,,,,,4,0,9,,,,,,4,,65,100
202176,note_on,,,,,4,0,8,,,,,,4,,74,100
202176,note_on,,,,,64,0,3,,,,,,0,,74,85
202268,note_off,,,,,92,0,8,,,,,,4,,74,0
202272,note_on,,,,,4,0,8,,,,,,4,,77,100
202304,note_off,,,,,128,0,3,,,,,,0,,74,0
202364,note_off,,,,,92,0,8,,,,,,4,,77,0
202364,note_off,,,,,380,0,7,,,,,,3,,29,0
202364,note_off,,,,,380,0,6,,,,,,3,,41,0
202364,note_off,,,,,188,0,9,,,,,,4,,65,0
202368,note_on,,,,,196,0,4,,,,,,1,,69,85
202368,note_on,,,,,4,0,8,,,,,,4,,81,100
202368,note_on,,,,,64,0,3,,,,,,0,,77,85
202460,note_off,,,,,92,0,8,,,,,,4,,81,0
202464,note_on,,,,,4,0,8,,,,,,4,,77,100
202496,note_off,,,,,128,0,3,,,,,,0,,77,0
202556,note_off,,,,,188,0,4,,,,,,1,,69,0
202556,note_off,,,,,92,0,8,,,,,,4,,77,0
202556,note_off,,,,,380,0,5,,,,,,2,,65,0
202560,note_on,,,,,4,0,8,,,,,,4,,74,100
202560,note_on,,,,,4,0,5,,,,,,2,,62,85
202560,note_on,,,,,64,0,3,,,,,,0,,77,85
202652,note_off,,,,,92,0,8,,,,,,4,,74,0
202656,note_on,,,,,4,0,8,,,,,,4,,77,100
202688,note_off,,,,,128,0,3,,,,,,0,,77,0
202748,note_off,,,,,92,0,8,,,,,,4,,77,0
202752,note_on,,,,,4,0,8,,,,,,4,,71,100
202752,note_on,,,,,196,0,4,,,,,,1,,71,85
202752,note_on,,,,,64,0,3,,,,,,0,,67,85
202752,note_on,,,,,388,0,7,,,,,,3,,29,85
202752,note_on,,,,,388,0,6,,,,,,3,,41,85
202844,note_off,,,,,92,0,8,,,,,,4,,71,0
202848,note_on,,,,,484,0,9,,,,,,4,,65,100
202848,note_on,,,,,4,0,8,,,,,,4,,67,100
202880,note_off,,,,,128,0,3,,,,,,0,,67,0
202940,note_off,,,,,188,0,4,,,,,,1,,71,0
202940,note_off,,,,,380,0,5,,,,,,2,,62,0
202940,note_off,,,,,92,0,8,,,,,,4,,67,0
202940,note_off,,,,,92,0,9,,,,,,4,,65,0
202944,note_on,,,,,4,0,5,,,,,,2,,74,85
202944,note_on,,,,,64,0,3,,,,,,0,,67,85
202944,note_on,,,,,4,0,8,,,,,,4,,71,100
202944,note_on,,,,,4,0,9,,,,,,4,,62,100
203036,note_off,,,,,92,0,9,,,,,,4,,62,0
203036,note_off,,,,,92,0,8,,,,,,4,,71,0
203040,note_on,,,,,4,0,8,,,,,,4,,74,100
203040,note_on,,,,,4,0,9,,,,,,4,,59,100
203072,note_off,,,,,128,0,3,,,,,,0,,67,0
203132,note_off,,,,,92,0,8,,,,,,4,,74,0
203132,note_off,,,,,380,0,7,,,,,,3,,29,0
203132,note_off,,,,,380,0,6,,,,,,3,,41,0
203132,note_off,,,,,92,0,9,,,,,,4,,59,0
203136,note_on,,,,,4,0,8,,,,,,4,,79,100
203136,note_on,,,,,64,0,3,,,,,,0,,71,85
203136,note_on,,,,,4,0,9,,,,,,4,,55,100
203136,note_on,,,,,196,0,4,,,,,,1,,62,85
203228,note_off,,,,,92,0,8,,,,,,4,,79,0
203228,note_off,,,,,92,0,9,,,,,,4,,55,0
203232,note_on,,,,,4,0,8,,,,,,4,,67,100
203232,note_on,,,,,4,0,9,,,,,,4,,62,100
203264,note_off,,,,,128,0,3,,,,,,0,,71,0
203324,note_off,,,,,380,0,5,,,,,,2,,74,0
203324,note_off,,,,,92,0,9,,,,,,4,,62,0
203324,note_off,,,,,92,0,8,,,,,,4,,67,0
203324,note_off,,,,,188,0,4,,,,,,1,,62,0
203328,note_on,,,,,4,0,8,,,,,,4,,71,100
203328,note_on,,,,,64,0,3,,,,,,0,,71,85
203328,note_on,,,,,4,0,5,,,,,,2,,67,85
203328,note_on,,,,,4,0,9,,,,,,4,,59,100
203420,note_off,,,,,92,0,8,,,,,,4,,71,0
203420,note_off,,,,,92,0,9,,,,,,4,,59,0
203424,note_on,,,,,4,0,8,,,,,,4,,74,100
203424,note_on,,,,,4,0,9,,,,,,4,,55,100
203456,note_off,,,,,128,0,3,,,,,,0,,71,0
203516,note_off,,,,,92,0,8,,,,,,4,,74,0
203516,note_off,,,,,92,0,9,,,,,,4,,55,0
203520,note_on,,,,,388,0,6,,,,,,3,,39,85
203520,note_on,,,,,64,0,3,,,,,,0,,72,85
203520,note_on,,,,,196,0,4,,,,,,1,,63,85
203520,note_on,,,,,388,0,7,,,,,,3,,27,85
203520,note_on,,,,,4,0,8,,,,,,4,,79,100
203520,note_on,,,,,4,0,9,,,,,,4,,51,100
203612,note_off,,,,,92,0,8,,,,,,4,,79,0
203616,note_on,,,,,4,0,8,,,,,,4,,67,100
203648,note_off,,,,,128,0,3,,,,,,0,,72,0
203708,note_off,,,,,188,0,9,,,,,,4,,51,0
203708,note_off,,,,,380,0,5,,,,,,2,,67,0
203708,note_off,,,,,92,0,8,,,,,,4,,67,0
203708,note_off,,,,,188,0,4,,,,,,1,,63,0
203712,note_on,,,,,4,0,8,,,,,,4,,72,100
203712,note_on,,,,,64,0,3,,,,,,0,,72,85
203712,note_on,,,,,4,0,9,,,,,,4,,63,100
203712,note_on,,,,,4,0,5,,,,,,2,,63,85
203804,note_off,,,,,92,0,8,,,,,,4,,72,0
203808,note_on,,,,,4,0,8,,,,,,4,,75,100
203840,note_off,,,,,128,0,3,,,,,,0,,72,0
203900,note_off,,,,,380,0,7,,,,,,3,,27,0
203900,note_off,,,,,188,0,9,,,,,,4,,63,0
203900,note_off,,,,,92,0,8,,,,,,4,,75,0
203900,note_off,,,,,380,0,6,,,,,,3,,39,0
203904,note_on,,,,,196,0,4,,,,,,1,,67,85
203904,note_on,,,,,64,0,3,,,,,,0,,75,85
203904,note_on,,,,,4,0,8,,,,,,4,,79,100
203996,note_off,,,,,92,0,8,,,,,,4,,79,0
204000,note_on,,,,,4,0,8,,,,,,4,,75,100
204032,note_off,,,,,128,0,3,,,,,,0,,75,0
204092,note_off,,,,,92,0,8,,,,,,4,,75,0
204092,note_off,,,,,380,0,5,,,,,,2,,63,0
204092,note_off,,,,,188,0,4,,,,,,1,,67,0
204096,note_on,,,,,4,0,8,,,,,,4,,72,100
204096,note_on,,,,,64,0,3,,,,,,0,,75,85
204096,note_on,,,,,4,0,5,,,,,,2,,60,85
204188,note_off,,,,,92,0,8,,,,,,4,,72,0
204192,note_on,,,,,4,0,8,,,,,,4,,75,100
204224,note_off,,,,,128,0,3,,,,,,0,,75,0
204284,note_off,,,,,92,0,8,,,,,,4,,75,0
204288,note_on,,,,,64,0,3,,,,,,0,,65,85
204288,note_on,,,,,388,0,6,,,,,,3,,39,85
204288,note_on,,,,,4,0,8,,,,,,4,,69,100
204288,note_on,,,,,388,0,7,,,,,,3,,27,85
204288,note_on,,,,,196,0,4,,,,,,1,,69,85
204380,note_off,,,,,92,0,8,,,,,,4,,69,0
204384,note_on,,,,,484,0,9,,,,,,4,,63,100
204384,note_on,,,,,4,0,8,,,,,,4,,65,100
204416,note_off,,,,,128,0,3,,,,,,0,,65,0
204476,note_off,,,,,380,0,5,,,,,,2,,60,0
204476,note_off,,,,,92,0,8,,,,,,4,,65,0
204476,note_off,,,,,188,0,4,,,,,,1,,69,0
204476,note_off,,,,,92,0,9,,,,,,4,,63,0
204480,note_on,,,,,4,0,8,,,,,,4,,69,100
204480,note_on,,,,,4,0,9,,,,,,4,,60,100
204480,note_on,,,,,64,0,3,,,,,,0,,65,85
204480,note_on,,,,,4,0,5,,,,,,2,,72,85
204572,note_off,,,,,92,0,8,,,,,,4,,69,0
204572,note_off,,,,,92,0,9,,,,,,4,,60,0
204576,note_on,,,,,4,0,9,,,,,,4,,57,100
204576,note_on,,,,,4,0,8,,,,,,4,,72,100
204608,note_off,,,,,128,0,3,,,,,,0,,65,0
204668,note_off,,,,,92,0,8,,,,,,4,,72,0
204668,note_off,,,,,92,0,9,,,,,,4,,57,0
204668,note_off,,,,,380,0,7,,,,,,3,,27,0
204668,note_off,,,,,380,0,6,,,,,,3,,39,0
204672,note_on,,,,,4,0,9,,,,,,4,,53,100
204672,note_on,,,,,64,0,3,,,,,,0,,69,85
204672,note_on,,,,,4,0,8,,,,,,4,,77,100
204672,note_on,,,,,196,0,4,,,,,,1,,60,85
204764,note_off,,,,,92,0,9,,,,,,4,,53,0
204764,note_off,,,,,92,0,8,,,,,,4,,77,0
204768,note_on,,,,,4,0,8,,,,,,4,,65,100
204768,note_on,,,,,4,0,9,,,,,,4,,60,100
204800,note_off,,,,,128,0,3,,,,,,0,,69,0
204860,note_off,,,,,188,0,4,,,,,,1,,60,0
204860,note_off,,,,,380,0,5,,,,,,2,,72,0
204860,note_off,,,,,92,0,8,,,,,,4,,65,0
204860,note_off,,,,,92,0,9,,,,,,4,,60,0
204864,note_on,,,,,4,0,8,,,,,,4,,69,100
204864,note_on,,,,,4,0,9,,,,,,4,,57,100
204864,note_on,,,,,64,0,3,,,,,,0,,69,85
204864,note_on,,,,,4,0,5,,,,,,2,,65,85
204956,note_off,,,,,92,0,9,,,,,,4,,57,0
204956,note_off,,,,,92,0,8,,,,,,4,,69,0
204960,note_on,,,,,4,0,8,,,,,,4,,72,100
204960,note_on,,,,,4,0,9,,,,,,4,,53,100
204992,note_off,,,,,128,0,3,,,,,,0,,69,0
205052,note_off,,,,,92,0,9,,,,,,4,,53,0
205052,note_off,,,,,92,0,8,,,,,,4,,72,0
205056,note_on,,,,,4,0,8,,,,,,4,,77,100
205056,note_on,,,,,388,0,7,,,,,,3,,26,85
205056,note_on,,,,,388,0,6,,,,,,3,,38,85
205056,note_on,,,,,64,0,3,,,,,,0,,70,85
205056,note_on,,,,,4,0,9,,,,,,4,,50,100
205056,note_on,,,,,196,0,4,,,,,,1,,62,85
205148,note_off,,,,,92,0,8,,,,,,4,,77,0
205152,note_on,,,,,4,0,8,,,,,,4,,65,100
205184,note_off,,,,,128,0,3,,,,,,0,,70,0
205244,note_off,,,,,92,0,8,,,,,,4,,65,0
205244,note_off,,,,,188,0,9,,,,,,4,,50,0
205244,note_off,,,,,188,0,4,,,,,,1,,62,0
205244,note_off,,,,,380,0,5,,,,,,2,,65,0
205248,note_on,,,,,4,0,9,,,,,,4,,62,100
205248,note_on,,,,,64,0,3,,,,,,0,,70,85
205248,note_on,,,,,4,0,5,,,,,,2,,62,85
205248,note_on,,,,,4,0,8,,,,,,4,,70,100
205340,note_off,,,,,92,0,8,,,,,,4,,70,0
205344,note_on,,,,,4,0,8,,,,,,4,,74,100
205376,note_off,,,,,128,0,3,,,,,,0,,70,0
205436,note_off,,,,,92,0,8,,,,,,4,,74,0
205436,note_off,,,,,188,0,9,,,,,,4,,62,0
205436,note_off,,,,,380,0,7,,,,,,3,,26,0
205436,note_off,,,,,380,0,6,,,,,,3,,38,0
205440,note_on,,,,,4,0,6,,,,,,3,,50,85
205440,note_on,,,,,4,0,8,,,,,,4,,77,100
205440,note_on,,,,,4,0,7,,,,,,3,,38,85
205440,note_on,,,,,64,0,3,,,,,,0,,74,85
205440,note_on,,,,,196,0,4,,,,,,1,,65,85
205532,note_off,,,,,92,0,8,,,,,,4,,77,0
205536,note_on,,,,,100,0,9,,,,,,4,,62,100
205536,note_on,,,,,4,0,8,,,,,,4,,74,100
205568,note_off,,,,,128,0,3,,,,,,0,,74,0
205628,note_off,,,,,92,0,9,,,,,,4,,62,0
205628,note_off,,,,,380,0,5,,,,,,2,,62,0
205628,note_off,,,,,188,0,4,,,,,,1,,65,0
205628,note_off,,,,,92,0,8,,,,,,4,,74,0
205632,note_on,,,,,4,0,8,,,,,,4,,70,100
205632,note_on,,,,,4,0,9,,,,,,4,,65,100
205632,note_on,,,,,4,0,5,,,,,,2,,58,85
205632,note_on,,,,,64,0,3,,,,,,0,,74,85
205724,note_off,,,,,92,0,9,,,,,,4,,65,0
205724,note_off,,,,,92,0,8,,,,,,4,,70,0
205728,note_on,,,,,4,0,9,,,,,,4,,62,100
205728,note_on,,,,,4,0,8,,,,,,4,,74,100
205760,note_off,,,,,128,0,3,,,,,,0,,74,0
205820,note_off,,,,,92,0,9,,,,,,4,,62,0
205820,note_off,,,,,92,0,8,,,,,,4,,74,0
205824,note_on,,,,,64,0,3,,,,,,0,,75,85
205824,note_on,,,,,4,0,8,,,,,,4,,67,100
205824,note_on,,,,,4,0,9,,,,,,4,,50,100
205824,note_on,,,,,196,0,4,,,,,,1,,67,85
205916,note_off,,,,,92,0,9,,,,,,4,,50,0
205916,note_off,,,,,92,0,8,,,,,,4,,67,0
205920,note_on,,,,,4,0,8,,,,,,4,,63,100
205920,note_on,,,,,4,0,9,,,,,,4,,55,100
206012,note_off,,,,,188,0,4,,,,,,1,,67,0
206012,note_off,,,,,380,0,5,,,,,,2,,58,0
206012,note_off,,,,,92,0,8,,,,,,4,,63,0
206012,note_off,,,,,92,0,9,,,,,,4,,55,0
206016,note_on,,,,,4,0,9,,,,,,4,,58,100
206016,note_on,,,,,4,0,5,,,,,,2,,63,85
206016,note_on,,,,,4,0,8,,,,,,4,,67,100
206108,note_off,,,,,92,0,8,,,,,,4,,67,0
206108,note_off,,,,,92,0,9,,,,,,4,,58,0
206112,note_on,,,,,4,0,9,,,,,,4,,62,100
206112,note_on,,,,,4,0,8,,,,,,4,,70,100
206204,note_off,,,,,764,0,6,,,,,,3,,50,0
206204,note_off,,,,,92,0,9,,,,,,4,,62,0
206204,note_off,,,,,764,0,7,,,,,,3,,38,0
206204,note_off,,,,,92,0,8,,,,,,4,,70,0
206208,note_on,,,,,4,0,7,,,,,,3,,36,85
206208,note_on,,,,,4,0,6,,,,,,3,,48,85
206208,note_on,,,,,196,0,4,,,,,,1,,69,85
206208,note_on,,,,,4,0,9,,,,,,4,,48,100
206208,note_on,,,,,4,0,8,,,,,,4,,75,100
206300,note_off,,,,,92,0,8,,,,,,4,,75,0
206300,note_off,,,,,92,0,9,,,,,,4,,48,0
206304,note_on,,,,,4,0,8,,,,,,4,,72,100
206304,note_on,,,,,4,0,9,,,,,,4,,60,100
206396,note_off,,,,,380,0,5,,,,,,2,,63,0
206396,note_off,,,,,188,0,4,,,,,,1,,69,0
206396,note_off,,,,,92,0,8,,,,,,4,,72,0
206396,note_off,,,,,92,0,9,,,,,,4,,60,0
206400,note_on,,,,,4,0,9,,,,,,4,,63,100
206400,note_on,,,,,4,0,8,,,,,,4,,69,100
206400,note_on,,,,,4,0,5,,,,,,2,,60,85
206492,note_off,,,,,92,0,9,,,,,,4,,63,0
206492,note_off,,,,,92,0,8,,,,,,4,,69,0
206496,note_on,,,,,4,0,9,,,,,,4,,60,100
206496,note_on,,,,,4,0,8,,,,,,4,,72,100
206588,note_off,,,,,764,0,3,,,,,,0,,75,0
206588,note_off,,,,,188,0,5,,,,,,2,,60,0
206588,note_off,,,,,92,0,9,,,,,,4,,60,0
206588,note_off,,,,,92,0,8,,,,,,4,,72,0
206592,note_on,,,,,4,0,8,,,,,,4,,65,100
206592,note_on,,,,,4,0,3,,,,,,0,,74,85
206592,note_on,,,,,4,0,9,,,,,,4,,48,100
206592,note_on,,,,,196,0,4,,,,,,1,,69,85
206592,note_on,,,,,4,0,5,,,,,,2,,57,85
206684,note_off,,,,,92,0,9,,,,,,4,,48,0
206684,note_off,,,,,92,0,8,,,,,,4,,65,0
206688,note_on,,,,,4,0,9,,,,,,4,,53,100
206688,note_on,,,,,4,0,8,,,,,,4,,62,100
206780,note_off,,,,,92,0,9,,,,,,4,,53,0
206780,note_off,,,,,188,0,5,,,,,,2,,57,0
206780,note_off,,,,,92,0,8,,,,,,4,,62,0
206780,note_off,,,,,188,0,4,,,,,,1,,69,0
206784,note_on,,,,,4,0,5,,,,,,2,,62,85
206784,note_on,,,,,4,0,8,,,,,,4,,65,100
206784,note_on,,,,,4,0,9,,,,,,4,,57,100
206876,note_off,,,,,92,0,9,,,,,,4,,57,0
206876,note_off,,,,,92,0,8,,,,,,4,,65,0
206880,note_on,,,,,4,0,9,,,,,,4,,60,100
206880,note_on,,,,,4,0,8,,,,,,4,,69,100
206972,note_off,,,,,764,0,6,,,,,,3,,48,0
206972,note_off,,,,,92,0,8,,,,,,4,,69,0
206972,note_off,,,,,764,0,7,,,,,,3,,36,0
206972,note_off,,,,,92,0,9,,,,,,4,,60,0
206976,note_on,,,,,4,0,6,,,,,,3,,46,85
206976,note_on,,,,,196,0,4,,,,,,1,,67,85
206976,note_on,,,,,4,0,7,,,,,,3,,34,85
206976,note_on,,,,,4,0,8,,,,,,4,,74,100
206976,note_on,,,,,4,0,9,,,,,,4,,46,100
207068,note_off,,,,,92,0,9,,,,,,4,,46,0
207068,note_off,,,,,92,0,8,,,,,,4,,74,0
207072,note_on,,,,,4,0,8,,,,,,4,,70,100
207072,note_on,,,,,4,0,9,,,,,,4,,58,100
207164,note_off,,,,,380,0,5,,,,,,2,,62,0
207164,note_off,,,,,92,0,8,,,,,,4,,70,0
207164,note_off,,,,,92,0,9,,,,,,4,,58,0
207164,note_off,,,,,188,0,4,,,,,,1,,67,0
207168,note_on,,,,,4,0,9,,,,,,4,,62,100
207168,note_on,,,,,4,0,5,,,,,,2,,58,85
207168,note_on,,,,,4,0,8,,,,,,4,,67,100
207260,note_off,,,,,92,0,9,,,,,,4,,62,0
207260,note_off,,,,,92,0,8,,,,,,4,,67,0
207264,note_on,,,,,4,0,9,,,,,,4,,58,100
207264,note_on,,,,,4,0,8,,,,,,4,,70,100
207356,note_off,,,,,764,0,3,,,,,,0,,74,0
207356,note_off,,,,,92,0,8,,,,,,4,,70,0
207356,note_off,,,,,92,0,9,,,,,,4,,58,0
207356,note_off,,,,,188,0,5,,,,,,2,,58,0
207360,note_on,,,,,4,0,9,,,,,,4,,46,100
207360,note_on,,,,,4,0,8,,,,,,4,,63,100
207360,note_on,,,,,196,0,4,,,,,,1,,67,85
207360,note_on,,,,,4,0,3,,,,,,0,,72,85
207360,note_on,,,,,4,0,5,,,,,,2,,53,85
207452,note_off,,,,,92,0,8,,,,,,4,,63,0
207452,note_off,,,,,92,0,9,,,,,,4,,46,0
207456,note_on,,,,,4,0,9,,,,,,4,,51,100
207456,note_on,,,,,4,0,8,,,,,,4,,60,100
207548,note_off,,,,,188,0,5,,,,,,2,,53,0
207548,note_off,,,,,188,0,4,,,,,,1,,67,0
207548,note_off,,,,,92,0,8,,,,,,4,,60,0
207548,note_off,,,,,92,0,9,,,,,,4,,51,0
207552,note_on,,,,,4,0,5,,,,,,2,,60,85
207552,note_on,,,,,4,0,8,,,,,,4,,63,100
207552,note_on,,,,,4,0,9,,,,,,4,,55,100
207644,note_off,,,,,92,0,9,,,,,,4,,55,0
207644,note_off,,,,,92,0,8,,,,,,4,,63,0
207648,note_on,,,,,4,0,9,,,,,,4,,58,100
207648,note_on,,,,,4,0,8,,,,,,4,,67,100
207740,note_off,,,,,764,0,6,,,,,,3,,46,0
207740,note_off,,,,,92,0,9,,,,,,4,,58,0
207740,note_off,,,,,92,0,8,,,,,,4,,67,0
207740,note_off,,,,,764,0,7,,,,,,3,,34,0
207744,note_on,,,,,4,0,7,,,,,,3,,33,85
207744,note_on,,,,,4,0,6,,,,,,3,,45,85
207744,note_on,,,,,4,0,9,,,,,,4,,45,100
207744,note_on,,,,,4,0,8,,,,,,4,,72,100
207744,note_on,,,,,196,0,4,,,,,,1,,65,85
207836,note_off,,,,,92,0,9,,,,,,4,,45,0
207836,note_off,,,,,92,0,8,,,,,,4,,72,0
207840,note_on,,,,,4,0,9,,,,,,4,,57,100
207840,note_on,,,,,4,0,8,,,,,,4,,69,100
207932,note_off,,,,,188,0,4,,,,,,1,,65,0
207932,note_off,,,,,92,0,8,,,,,,4,,69,0
207932,note_off,,,,,92,0,9,,,,,,4,,57,0
207932,note_off,,,,,380,0,5,,,,,,2,,60,0
207936,note_on,,,,,4,0,5,,,,,,2,,53,85
207936,note_on,,,,,4,0,8,,,,,,4,,65,100
207936,note_on,,,,,4,0,9,,,,,,4,,60,100
208028,note_off,,,,,92,0,9,,,,,,4,,60,0
208028,note_off,,,,,92,0,8,,,,,,4,,65,0
208032,note_on,,,,,4,0,9,,,,,,4,,57,100
208032,note_on,,,,,4,0,8,,,,,,4,,69,100
208124,note_off,,,,,380,0,7,,,,,,3,,33,0
208124,note_off,,,,,380,0,6,,,,,,3,,45,0
208124,note_off,,,,,92,0,9,,,,,,4,,57,0
208124,note_off,,,,,764,0,3,,,,,,0,,72,0
208124,note_off,,,,,92,0,8,,,,,,4,,69,0
208124,note_off,,,,,188,0,5,,,,,,2,,53,0
208128,note_on,,,,,4,0,8,,,,,,4,,62,100
208128,note_on,,,,,4,0,5,,,,,,2,,50,85
208128,note_on,,,,,4,0,9,,,,,,4,,46,100
208128,note_on,,,,,196,0,4,,,,,,1,,70,85
208128,note_on,,,,,4,0,3,,,,,,0,,70,85
208128,note_on,,,,,4,0,6,,,,,,3,,46,85
208128,note_on,,,,,4,0,7,,,,,,3,,34,85
208220,note_off,,,,,92,0,9,,,,,,4,,46,0
208220,note_off,,,,,92,0,8,,,,,,4,,62,0
208224,note_on,,,,,4,0,9,,,,,,4,,50,100
208224,note_on,,,,,4,0,8,,,,,,4,,58,100
208316,note_off,,,,,92,0,9,,,,,,4,,50,0
208316,note_off,,,,,92,0,8,,,,,,4,,58,0
208320,note_on,,,,,4,0,9,,,,,,4,,51,100
208320,note_on,,,,,4,0,8,,,,,,4,,60,100
208412,note_off,,,,,92,0,9,,,,,,4,,51,0
208412,note_off,,,,,92,0,8,,,,,,4,,60,0
208416,note_on,,,,,4,0,9,,,,,,4,,53,100
208416,note_on,,,,,4,0,8,,,,,,4,,62,100
208508,note_off,,,,,380,0,5,,,,,,2,,50,0
208508,note_off,,,,,92,0,8,,,,,,4,,62,0
208508,note_off,,,,,380,0,3,,,,,,0,,70,0
208508,note_off,,,,,380,0,6,,,,,,3,,46,0
208508,note_off,,,,,380,0,7,,,,,,3,,34,0
208508,note_off,,,,,380,0,4,,,,,,1,,70,0
208508,note_off,,,,,92,0,9,,,,,,4,,53,0
208512,note_on,,,,,4,0,8,,,,,,4,,63,100
208512,note_on,,,,,4,0,9,,,,,,4,,55,100
208604,note_off,,,,,92,0,9,,,,,,4,,55,0
208604,note_off,,,,,92,0,8,,,,,,4,,63,0
208608,note_on,,,,,4,0,8,,,,,,4,,65,100
208608,note_on,,,,,4,0,9,,,,,,4,,57,100
208700,note_off,,,,,92,0,9,,,,,,4,,57,0
208700,note_off,,,,,92,0,8,,,,,,4,,65,0
208704,note_on,,,,,196,0,4,,,,,,1,,65,85
208704,note_on,,,,,196,0,7,,,,,,3,,33,85
208704,note_on,,,,,196,0,5,,,,,,2,,60,85
208704,note_on,,,,,4,0,9,,,,,,4,,58,100
208704,note_on,,,,,196,0,6,,,,,,3,,45,85
208704,note_on,,,,,196,0,3,,,,,,0,,72,85
208704,note_on,,,,,4,0,8,,,,,,4,,67,100
208796,note_off,,,,,92,0,9,,,,,,4,,58,0
208796,note_off,,,,,92,0,8,,,,,,4,,67,0
208800,note_on,,,,,4,0,9,,,,,,4,,57,100
208800,note_on,,,,,4,0,8,,,,,,4,,69,100
208892,note_off,,,,,92,0,9,,,,,,4,,57,0
208892,note_off,,,,,188,0,4,,,,,,1,,65,0
208892,note_off,,,,,188,0,7,,,,,,3,,33,0
208892,note_off,,,,,188,0,5,,,,,,2,,60,0
208892,note_off,,,,,188,0,3,,,,,,0,,72,0
208892,note_off,,,,,92,0,8,,,,,,4,,69,0
208892,note_off,,,,,188,0,6,,,,,,3,,45,0
208896,note_on,,,,,4,0,9,,,,,,4,,55,100
208896,note_on,,,,,4,0,7,,,,,,3,,31,100
208896,note_on,,,,,4,0,4,,,,,,1,,62,100
208896,note_on,,,,,4,0,8,,,,,,4,,70,100
208896,note_on,,,,,4,0,3,,,,,,0,,74,100
208896,note_on,,,,,4,0,5,,,,,,2,,67,100
208896,note_on,,,,,4,0,6,,,,,,3,,43,100
208988,note_off,,,,,92,0,4,,,,,,1,,62,0
208988,note_off,,,,,92,0,9,,,,,,4,,55,0
208988,note_off,,,,,92,0,8,,,,,,4,,70,0
208988,note_off,,,,,92,0,3,,,,,,0,,74,0
208992,note_on,,,,,4,0,8,,,,,,4,,65,100
208992,note_on,,,,,4,0,9,,,,,,4,,57,100
208992,note_on,,,,,4,0,4,,,,,,1,,65,100
208992,note_on,,,,,4,0,3,,,,,,0,,65,100
209084,note_off,,,,,92,0,3,,,,,,0,,65,0
209084,note_off,,,,,92,0,4,,,,,,1,,65,0
209084,note_off,,,,,92,0,9,,,,,,4,,57,0
209084,note_off,,,,,92,0,8,,,,,,4,,65,0
209088,note_on,,,,,4,0,4,,,,,,1,,67,100
209088,note_on,,,,,4,0,3,,,,,,0,,67,100
209088,note_on,,,,,4,0,8,,,,,,4,,67,100
209088,note_on,,,,,4,0,9,,,,,,4,,58,100
209180,note_off,,,,,92,0,9,,,,,,4,,58,0
209180,note_off,,,,,92,0,8,,,,,,4,,67,0
209180,note_off,,,,,92,0,3,,,,,,0,,67,0
209180,note_off,,,,,92,0,4,,,,,,1,,67,0
209184,note_on,,,,,4,0,8,,,,,,4,,69,100
209184,note_on,,,,,4,0,9,,,,,,4,,60,100
209184,note_on,,,,,4,0,4,,,,,,1,,69,100
209184,note_on,,,,,4,0,3,,,,,,0,,69,100
209276,note_off,,,,,92,0,4,,,,,,1,,69,0
209276,note_off,,,,,380,0,5,,,,,,2,,67,0
209276,note_off,,,,,380,0,7,,,,,,3,,31,0
209276,note_off,,,,,92,0,3,,,,,,0,,69,0
209276,note_off,,,,,92,0,9,,,,,,4,,60,0
209276,note_off,,,,,92,0,8,,,,,,4,,69,0
209276,note_off,,,,,380,0,6,,,,,,3,,43,0
209280,note_on,,,,,4,0,9,,,,,,4,,62,100
209280,note_on,,,,,4,0,8,,,,,,4,,70,100
209280,note_on,,,,,4,0,4,,,,,,1,,70,100
209280,note_on,,,,,4,0,3,,,,,,0,,70,100
209372,note_off,,,,,92,0,4,,,,,,1,,70,0
209372,note_off,,,,,92,0,8,,,,,,4,,70,0
209372,note_off,,,,,92,0,3,,,,,,0,,70,0
209372,note_off,,,,,92,0,9,,,,,,4,,62,0
209376,note_on,,,,,4,0,3,,,,,,0,,72,100
209376,note_on,,,,,4,0,4,,,,,,1,,72,100
209376,note_on,,,,,4,0,9,,,,,,4,,63,100
209376,note_on,,,,,4,0,8,,,,,,4,,72,100
209468,note_off,,,,,92,0,4,,,,,,1,,72,0
209468,note_off,,,,,92,0,8,,,,,,4,,72,0
209468,note_off,,,,,92,0,3,,,,,,0,,72,0
209468,note_off,,,,,92,0,9,,,,,,4,,63,0
209472,note_on,,,,,4,0,3,,,,,,0,,74,100
209472,note_on,,,,,196,0,6,,,,,,3,,41,100
209472,note_on,,,,,4,0,8,,,,,,4,,74,100
209472,note_on,,,,,4,0,9,,,,,,4,,65,100
209472,note_on,,,,,196,0,7,,,,,,3,,29,100
209472,note_on,,,,,4,0,4,,,,,,1,,74,100
209472,note_on,,,,,196,0,5,,,,,,2,,58,100
209564,note_off,,,,,92,0,3,,,,,,0,,74,0
209564,note_off,,,,,92,0,9,,,,,,4,,65,0
209564,note_off,,,,,92,0,7,,,,,,3,,29,0
209564,note_off,,,,,92,0,6,,,,,,3,,41,0
209564,note_off,,,,,92,0,5,,,,,,2,,58,0
209564,note_off,,,,,92,0,4,,,,,,1,,74,0
209564,note_off,,,,,92,0,8,,,,,,4,,74,0
209568,note_on,,,,,4,0,4,,,,,,1,,75,100
209568,note_on,,,,,4,0,3,,,,,,0,,75,100
209568,note_on,,,,,4,0,9,,,,,,4,,63,100
209568,note_on,,,,,4,0,5,,,,,,2,,60,100
209568,note_on,,,,,4,0,8,,,,,,4,,75,100
209568,note_on,,,,,4,0,7,,,,,,3,,27,100
209568,note_on,,,,,4,0,6,,,,,,3,,39,100
209660,note_off,,,,,92,0,3,,,,,,0,,75,0
209660,note_off,,,,,92,0,5,,,,,,2,,60,0
209660,note_off,,,,,92,0,7,,,,,,3,,27,0
209660,note_off,,,,,92,0,8,,,,,,4,,75,0
209660,note_off,,,,,92,0,6,,,,,,3,,39,0
209660,note_off,,,,,92,0,9,,,,,,4,,63,0
209660,note_off,,,,,92,0,4,,,,,,1,,75,0
209664,note_on,,,,,4,0,3,,,,,,0,,77,100
209664,note_on,,,,,4,0,7,,,,,,3,,26,100
209664,note_on,,,,,4,0,5,,,,,,2,,62,100
209664,note_on,,,,,4,0,8,,,,,,4,,77,100
209664,note_on,,,,,4,0,6,,,,,,3,,38,100
209664,note_on,,,,,4,0,9,,,,,,4,,62,100
209664,note_on,,,,,4,0,4,,,,,,1,,77,100
209852,note_off,,,,,188,0,5,,,,,,2,,62,0
209852,note_off,,,,,188,0,4,,,,,,1,,77,0
209852,note_off,,,,,188,0,9,,,,,,4,,62,0
209852,note_off,,,,,188,0,6,,,,,,3,,38,0
209852,note_off,,,,,188,0,7,,,,,,3,,26,0
209852,note_off,,,,,188,0,8,,,,,,4,,77,0
209852,note_off,,,,,188,0,3,,,,,,0,,77,0
209856,note_on,,,,,0,0,8,,,,,,4,,70,100
209856,note_on,,,,,4,0,8,,,,,,4,,62,100
209856,note_on,,,,,4,0,6,,,,,,3,,39,100
209856,note_on,,,,,0,0,9,,,,,,4,,55,100
209856,note_on,,,,,4,0,9,,,,,,4,,51,100
209856,note_on,,,,,4,0,7,,,,,,3,,27,100
209856,note_on,,,,,4,0,4,,,,,,1,,70,100
209856,note_on,,,,,4,0,3,,,,,,0,,70,100
209856,note_on,,,,,4,0,5,,,,,,2,,67,100
210044,note_off,,,,,188,0,5,,,,,,2,,67,0
210044,note_off,,,,,188,0,9,,,,,,4,,51,0
210044,note_off,,,,,188,0,6,,,,,,3,,39,0
210044,note_off,,,,,0,0,9,,,,,,4,,55,0
210044,note_off,,,,,188,0,7,,,,,,3,,27,0
210044,note_off,,,,,188,0,4,,,,,,1,,70,0
210044,note_off,,,,,188,0,8,,,,,,4,,62,0
210044,note_off,,,,,0,0,8,,,,,,4,,70,0
210044,note_off,,,,,188,0,3,,,,,,0,,70,0
210048,note_on,,,,,4,0,7,,,,,,3,,29,100
210048,note_on,,,,,4,0,9,,,,,,4,,53,100
210048,note_on,,,,,4,0,4,,,,,,1,,65,100
210048,note_on,,,,,0,0,8,,,,,,4,,65,100
210048,note_on,,,,,4,0,8,,,,,,4,,60,100
210048,note_on,,,,,4,0,6,,,,,,3,,41,100
210048,note_on,,,,,0,0,9,,,,,,4,,57,100
210048,note_on,,,,,4,0,3,,,,,,0,,65,100
210048,note_on,,,,,4,0,5,,,,,,2,,65,100
210176,note_off,,,,,128,0,7,,,,,,3,,29,0
210176,note_off,,,,,128,0,6,,,,,,3,,41,0
210236,note_off,,,,,0,0,8,,,,,,4,,65,0
210236,note_off,,,,,188,0,8,,,,,,4,,60,0
210236,note_off,,,,,188,0,3,,,,,,0,,65,0
210236,note_off,,,,,188,0,9,,,,,,4,,53,0
210236,note_off,,,,,0,0,9,,,,,,4,,57,0
210236,note_off,,,,,188,0,4,,,,,,1,,65,0
210236,note_off,,,,,188,0,5,,,,,,2,,65,0
210240,note_on,,,,,64,0,7,,,,,,3,,29,100
210240,note_on,,,,,4,0,4,,,,,,1,,69,100
210240,note_on,,,,,4,0,3,,,,,,0,,69,100
210240,note_on,,,,,4,0,8,,,,,,4,,69,100
210240,note_on,,,,,4,0,5,,,,,,2,,63,100
210240,note_on,,,,,4,0,9,,,,,,4,,41,100
210240,note_on,,,,,64,0,6,,,,,,3,,41,100
210428,note_off,,,,,188,0,9,,,,,,4,,41,0
210428,note_off,,,,,188,0,7,,,,,,3,,29,0
210428,note_off,,,,,188,0,4,,,,,,1,,69,0
210428,note_off,,,,,188,0,3,,,,,,0,,69,0
210428,note_off,,,,,188,0,5,,,,,,2,,63,0
210428,note_off,,,,,188,0,6,,,,,,3,,41,0
210428,note_off,,,,,188,0,8,,,,,,4,,69,0
210432,note_on,,,,,4,0,5,,,,,,2,,62,85
210432,note_on,,,,,4,0,9,,,,,,4,,34,100
210432,note_on,,,,,4,0,7,,,,,,3,,34,85
210432,note_on,,,,,4,0,6,,,,,,3,,46,85
210432,note_on,,,,,4,0,4,,,,,,1,,70,100
210432,note_on,,,,,4,0,8,,,,,,4,,60,100
210432,note_on,,,,,4,0,3,,,,,,0,,70,100
210476,note_off,,,,,44,0,8,,,,,,4,,60,0
210480,note_on,,,,,4,0,8,,,,,,4,,58,100
210524,note_off,,,,,92,0,6,,,,,,3,,46,0
210524,note_off,,,,,92,0,5,,,,,,2,,62,0
210524,note_off,,,,,92,0,9,,,,,,4,,34,0
210524,note_off,,,,,44,0,8,,,,,,4,,58,0
210524,note_off,,,,,92,0,7,,,,,,3,,34,0
210528,note_on,,,,,4,0,9,,,,,,4,,36,100
210528,note_on,,,,,4,0,8,,,,,,4,,60,100
210528,note_on,,,,,4,0,6,,,,,,3,,48,85
210528,note_on,,,,,4,0,7,,,,,,3,,36,85
210528,note_on,,,,,4,0,5,,,,,,2,,63,85
210572,note_off,,,,,44,0,8,,,,,,4,,60,0
210576,note_on,,,,,4,0,8,,,,,,4,,58,100
210620,note_off,,,,,92,0,6,,,,,,3,,48,0
210620,note_off,,,,,92,0,5,,,,,,2,,63,0
210620,note_off,,,,,44,0,8,,,,,,4,,58,0
210620,note_off,,,,,92,0,9,,,,,,4,,36,0
210620,note_off,,,,,92,0,7,,,,,,3,,36,0
210624,note_on,,,,,4,0,8,,,,,,4,,60,100
210624,note_on,,,,,4,0,5,,,,,,2,,65,85
210624,note_on,,,,,4,0,6,,,,,,3,,50,85
210624,note_on,,,,,4,0,9,,,,,,4,,38,100
210624,note_on,,,,,4,0,7,,,,,,3,,38,85
210668,note_off,,,,,44,0,8,,,,,,4,,60,0
210672,note_on,,,,,4,0,8,,,,,,4,,58,100
210716,note_off,,,,,44,0,8,,,,,,4,,58,0
210720,note_on,,,,,4,0,8,,,,,,4,,60,100
210752,note_off,,,,,128,0,6,,,,,,3,,50,0
210752,note_off,,,,,128,0,7,,,,,,3,,38,0
210752,note_off,,,,,128,0,5,,,,,,2,,65,0
210752,note_off,,,,,128,0,9,,,,,,4,,38,0
210764,note_off,,,,,44,0,8,,,,,,4,,60,0
210768,note_on,,,,,4,0,8,,,,,,4,,58,100
210776,note_off,,,,,344,0,4,,,,,,1,,70,0
210776,note_off,,,,,344,0,3,,,,,,0,,70,0
210812,note_off,,,,,44,0,8,,,,,,4,,58,0
210816,note_on,,,,,4,0,8,,,,,,4,,60,100
210816,note_on,,,,,64,0,7,,,,,,3,,36,85
210816,note_on,,,,,64,0,5,,,,,,2,,63,85
210816,note_on,,,,,64,0,6,,,,,,3,,48,85
210816,note_on,,,,,64,0,9,,,,,,4,,36,100
210860,note_off,,,,,44,0,8,,,,,,4,,60,0
210864,note_on,,,,,4,0,8,,,,,,4,,58,100
210908,note_off,,,,,44,0,8,,,,,,4,,58,0
210912,note_on,,,,,4,0,8,,,,,,4,,60,100
210956,note_off,,,,,44,0,8,,,,,,4,,60,0
210960,note_on,,,,,4,0,8,,,,,,4,,58,100
211004,note_off,,,,,188,0,7,,,,,,3,,36,0
211004,note_off,,,,,188,0,9,,,,,,4,,36,0
211004,note_off,,,,,188,0,5,,,,,,2,,63,0
211004,note_off,,,,,188,0,6,,,,,,3,,48,0
211004,note_off,,,,,44,0,8,,,,,,4,,58,0
211008,note_on,,,,,4,0,5,,,,,,2,,62,85
211008,note_on,,,,,4,0,6,,,,,,3,,46,85
211008,note_on,,,,,4,0,7,,,,,,3,,34,85
211008,note_on,,,,,4,0,8,,,,,,4,,60,100
211008,note_on,,,,,232,0,4,,,,,,1,,62,85
211008,note_on,,,,,232,0,3,,,,,,0,,65,85
211008,note_on,,,,,4,0,9,,,,,,4,,34,100
211052,note_off,,,,,44,0,8,,,,,,4,,60,0
211056,note_on,,,,,4,0,8,,,,,,4,,58,100
211100,note_off,,,,,44,0,8,,,,,,4,,58,0
211104,note_on,,,,,4,0,8,,,,,,4,,60,100
211148,note_off,,,,,44,0,8,,,,,,4,,60,0
211152,note_on,,,,,4,0,8,,,,,,4,,58,100
211196,note_off,,,,,188,0,5,,,,,,2,,62,0
211196,note_off,,,,,44,0,8,,,,,,4,,58,0
211196,note_off,,,,,188,0,9,,,,,,4,,34,0
211196,note_off,,,,,188,0,4,,,,,,1,,62,0
211196,note_off,,,,,188,0,3,,,,,,0,,65,0
211196,note_off,,,,,188,0,7,,,,,,3,,34,0
211196,note_off,,,,,188,0,6,,,,,,3,,46,0
211200,note_on,,,,,4,0,4,,,,,,1,,63,85
211200,note_on,,,,,4,0,6,,,,,,3,,51,85
211200,note_on,,,,,4,0,8,,,,,,4,,60,100
211200,note_on,,,,,4,0,9,,,,,,4,,39,100
211200,note_on,,,,,4,0,7,,,,,,3,,39,85
211200,note_on,,,,,4,0,5,,,,,,2,,70,85
211200,note_on,,,,,4,0,3,,,,,,0,,67,85
211244,note_off,,,,,44,0,8,,,,,,4,,60,0
211248,note_on,,,,,4,0,8,,,,,,4,,58,100
211292,note_off,,,,,44,0,8,,,,,,4,,58,0
211296,note_on,,,,,4,0,8,,,,,,4,,60,100
211340,note_off,,,,,44,0,8,,,,,,4,,60,0
211344,note_on,,,,,4,0,8,,,,,,4,,58,100
211388,note_off,,,,,188,0,3,,,,,,0,,67,0
211388,note_off,,,,,188,0,9,,,,,,4,,39,0
211388,note_off,,,,,44,0,8,,,,,,4,,58,0
211388,note_off,,,,,188,0,4,,,,,,1,,63,0
211388,note_off,,,,,188,0,7,,,,,,3,,39,0
211388,note_off,,,,,188,0,6,,,,,,3,,51,0
211388,note_off,,,,,188,0,5,,,,,,2,,70,0
211392,note_on,,,,,4,0,6,,,,,,3,,58,85
211392,note_on,,,,,4,0,4,,,,,,1,,62,85
211392,note_on,,,,,4,0,8,,,,,,4,,60,100
211392,note_on,,,,,4,0,3,,,,,,0,,65,85
211392,note_on,,,,,4,0,5,,,,,,2,,58,85
211392,note_on,,,,,4,0,7,,,,,,3,,46,85
211392,note_on,,,,,4,0,9,,,,,,4,,46,100
211436,note_off,,,,,44,0,8,,,,,,4,,60,0
211440,note_on,,,,,4,0,8,,,,,,4,,58,100
211484,note_off,,,,,44,0,8,,,,,,4,,58,0
211488,note_on,,,,,4,0,8,,,,,,4,,60,100
211520,note_off,,,,,128,0,3,,,,,,0,,65,0
211520,note_off,,,,,128,0,4,,,,,,1,,62,0
211532,note_off,,,,,44,0,8,,,,,,4,,60,0
211536,note_on,,,,,4,0,8,,,,,,4,,58,100
211580,note_off,,,,,188,0,5,,,,,,2,,58,0
211580,note_off,,,,,44,0,8,,,,,,4,,58,0
211584,note_on,,,,,4,0,5,,,,,,2,,62,85
211584,note_on,,,,,4,0,8,,,,,,4,,60,100
211584,note_on,,,,,64,0,3,,,,,,0,,68,85
211584,note_on,,,,,64,0,4,,,,,,1,,65,85
211628,note_off,,,,,44,0,8,,,,,,4,,60,0
211632,note_on,,,,,4,0,8,,,,,,4,,58,100
211676,note_off,,,,,44,0,8,,,,,,4,,58,0
211680,note_on,,,,,4,0,8,,,,,,4,,60,100
211724,note_off,,,,,44,0,8,,,,,,4,,60,0
211728,note_on,,,,,4,0,8,,,,,,4,,58,100
211772,note_off,,,,,44,0,8,,,,,,4,,58,0
211772,note_off,,,,,188,0,4,,,,,,1,,65,0
211772,note_off,,,,,188,0,3,,,,,,0,,68,0
211772,note_off,,,,,188,0,5,,,,,,2,,62,0
211772,note_off,,,,,380,0,6,,,,,,3,,58,0
211772,note_off,,,,,380,0,9,,,,,,4,,46,0
211772,note_off,,,,,380,0,7,,,,,,3,,46,0
211776,note_on,,,,,4,0,8,,,,,,4,,60,100
211776,note_on,,,,,4,0,3,,,,,,0,,67,85
211776,note_on,,,,,4,0,9,,,,,,4,,39,100
211776,note_on,,,,,4,0,4,,,,,,1,,63,85
211776,note_on,,,,,4,0,5,,,,,,2,,63,85
211776,note_on,,,,,4,0,6,,,,,,3,,51,85
211776,note_on,,,,,4,0,7,,,,,,3,,39,85
211820,note_off,,,,,44,0,8,,,,,,4,,60,0
211824,note_on,,,,,4,0,8,,,,,,4,,58,100
211868,note_off,,,,,44,0,8,,,,,,4,,58,0
211872,note_on,,,,,4,0,8,,,,,,4,,60,100
211904,note_off,,,,,128,0,4,,,,,,1,,63,0
211904,note_off,,,,,128,0,3,,,,,,0,,67,0
211916,note_off,,,,,44,0,8,,,,,,4,,60,0
211920,note_on,,,,,4,0,8,,,,,,4,,58,100
211964,note_off,,,,,44,0,8,,,,,,4,,58,0
211964,note_off,,,,,188,0,9,,,,,,4,,39,0
211964,note_off,,,,,188,0,5,,,,,,2,,63,0
211964,note_off,,,,,188,0,6,,,,,,3,,51,0
211964,note_off,,,,,188,0,7,,,,,,3,,39,0
211968,note_on,,,,,4,0,7,,,,,,3,,34,85
211968,note_on,,,,,4,0,9,,,,,,4,,34,100
211968,note_on,,,,,64,0,4,,,,,,1,,62,85
211968,note_on,,,,,64,0,3,,,,,,0,,65,85
211968,note_on,,,,,4,0,6,,,,,,3,,46,85
211968,note_on,,,,,4,0,8,,,,,,4,,60,100
211968,note_on,,,,,4,0,5,,,,,,2,,65,85
212012,note_off,,,,,44,0,8,,,,,,4,,60,0
212016,note_on,,,,,4,0,8,,,,,,4,,58,100
212060,note_off,,,,,92,0,6,,,,,,3,,46,0
212060,note_off,,,,,44,0,8,,,,,,4,,58,0
212060,note_off,,,,,92,0,4,,,,,,1,,62,0
212060,note_off,,,,,92,0,9,,,,,,4,,34,0
212060,note_off,,,,,92,0,7,,,,,,3,,34,0
212064,note_on,,,,,4,0,8,,,,,,4,,60,100
212064,note_on,,,,,4,0,9,,,,,,4,,36,100
212064,note_on,,,,,4,0,6,,,,,,3,,48,85
212064,note_on,,,,,4,0,7,,,,,,3,,36,85
212064,note_on,,,,,4,0,4,,,,,,1,,63,85
212108,note_off,,,,,44,0,8,,,,,,4,,60,0
212112,note_on,,,,,4,0,8,,,,,,4,,58,100
212156,note_off,,,,,92,0,6,,,,,,3,,48,0
212156,note_off,,,,,44,0,8,,,,,,4,,58,0
212156,note_off,,,,,92,0,4,,,,,,1,,63,0
212156,note_off,,,,,92,0,9,,,,,,4,,36,0
212156,note_off,,,,,92,0,7,,,,,,3,,36,0
212160,note_on,,,,,4,0,4,,,,,,1,,65,85
212160,note_on,,,,,4,0,9,,,,,,4,,38,100
212160,note_on,,,,,4,0,6,,,,,,3,,50,85
212160,note_on,,,,,4,0,7,,,,,,3,,38,85
212160,note_on,,,,,4,0,8,,,,,,4,,60,100
212204,note_off,,,,,44,0,8,,,,,,4,,60,0
212208,note_on,,,,,4,0,8,,,,,,4,,58,100
212252,note_off,,,,,44,0,8,,,,,,4,,58,0
212256,note_on,,,,,4,0,8,,,,,,4,,60,100
212288,note_off,,,,,128,0,9,,,,,,4,,38,0
212288,note_off,,,,,128,0,6,,,,,,3,,50,0
212288,note_off,,,,,128,0,4,,,,,,1,,65,0
212288,note_off,,,,,128,0,7,,,,,,3,,38,0
212300,note_off,,,,,44,0,8,,,,,,4,,60,0
212304,note_on,,,,,4,0,8,,,,,,4,,58,100
212348,note_off,,,,,380,0,3,,,,,,0,,65,0
212348,note_off,,,,,380,0,5,,,,,,2,,65,0
212348,note_off,,,,,44,0,8,,,,,,4,,58,0
212352,note_on,,,,,4,0,8,,,,,,4,,60,100
212352,note_on,,,,,64,0,4,,,,,,1,,63,85
212352,note_on,,,,,64,0,7,,,,,,3,,36,85
212352,note_on,,,,,64,0,9,,,,,,4,,36,100
212352,note_on,,,,,64,0,6,,,,,,3,,48,85
212396,note_off,,,,,44,0,8,,,,,,4,,60,0
212400,note_on,,,,,4,0,8,,,,,,4,,58,100
212444,note_off,,,,,44,0,8,,,,,,4,,58,0
212448,note_on,,,,,4,0,8,,,,,,4,,60,100
212492,note_off,,,,,44,0,8,,,,,,4,,60,0
212496,note_on,,,,,4,0,8,,,,,,4,,58,100
212540,note_off,,,,,188,0,7,,,,,,3,,36,0
212540,note_off,,,,,188,0,9,,,,,,4,,36,0
212540,note_off,,,,,44,0,8,,,,,,4,,58,0
212540,note_off,,,,,188,0,6,,,,,,3,,48,0
212540,note_off,,,,,188,0,4,,,,,,1,,63,0
212544,note_on,,,,,196,0,3,,,,,,0,,62,85
212544,note_on,,,,,4,0,7,,,,,,3,,34,85
212544,note_on,,,,,4,0,8,,,,,,4,,60,100
212544,note_on,,,,,4,0,4,,,,,,1,,62,85
212544,note_on,,,,,196,0,5,,,,,,2,,53,85
212544,note_on,,,,,4,0,9,,,,,,4,,34,100
212544,note_on,,,,,4,0,6,,,,,,3,,46,85
212588,note_off,,,,,44,0,8,,,,,,4,,60,0
212592,note_on,,,,,4,0,8,,,,,,4,,58,100
212636,note_off,,,,,44,0,8,,,,,,4,,58,0
212640,note_on,,,,,4,0,8,,,,,,4,,60,100
212684,note_off,,,,,44,0,8,,,,,,4,,60,0
212688,note_on,,,,,4,0,8,,,,,,4,,58,100
212732,note_off,,,,,188,0,9,,,,,,4,,34,0
212732,note_off,,,,,188,0,5,,,,,,2,,53,0
212732,note_off,,,,,44,0,8,,,,,,4,,58,0
212732,note_off,,,,,188,0,4,,,,,,1,,62,0
212732,note_off,,,,,188,0,6,,,,,,3,,46,0
212732,note_off,,,,,188,0,3,,,,,,0,,62,0
212732,note_off,,,,,188,0,7,,,,,,3,,34,0
212736,note_on,,,,,4,0,4,,,,,,1,,70,85
212736,note_on,,,,,4,0,6,,,,,,3,,51,85
212736,note_on,,,,,4,0,5,,,,,,2,,55,85
212736,note_on,,,,,4,0,9,,,,,,4,,39,100
212736,note_on,,,,,4,0,3,,,,,,0,,63,85
212736,note_on,,,,,4,0,8,,,,,,4,,60,100
212736,note_on,,,,,4,0,7,,,,,,3,,39,85
212780,note_off,,,,,44,0,8,,,,,,4,,60,0
212784,note_on,,,,,4,0,8,,,,,,4,,58,100
212828,note_off,,,,,44,0,8,,,,,,4,,58,0
212832,note_on,,,,,4,0,8,,,,,,4,,60,100
212876,note_off,,,,,44,0,8,,,,,,4,,60,0
212880,note_on,,,,,4,0,8,,,,,,4,,58,100
212924,note_off,,,,,188,0,3,,,,,,0,,63,0
212924,note_off,,,,,188,0,9,,,,,,4,,39,0
212924,note_off,,,,,188,0,4,,,,,,1,,70,0
212924,note_off,,,,,188,0,5,,,,,,2,,55,0
212924,note_off,,,,,188,0,6,,,,,,3,,51,0
212924,note_off,,,,,188,0,7,,,,,,3,,39,0
212924,note_off,,,,,44,0,8,,,,,,4,,58,0
212928,note_on,,,,,4,0,6,,,,,,3,,58,85
212928,note_on,,,,,4,0,9,,,,,,4,,46,100
212928,note_on,,,,,4,0,7,,,,,,3,,46,85
212928,note_on,,,,,4,0,4,,,,,,1,,58,85
212928,note_on,,,,,4,0,5,,,,,,2,,53,85
212928,note_on,,,,,4,0,8,,,,,,4,,60,100
212928,note_on,,,,,4,0,3,,,,,,0,,62,85
212972,note_off,,,,,44,0,8,,,,,,4,,60,0
212976,note_on,,,,,4,0,8,,,,,,4,,58,100
213020,note_off,,,,,44,0,8,,,,,,4,,58,0
213024,note_on,,,,,4,0,8,,,,,,4,,60,100
213056,note_off,,,,,128,0,5,,,,,,2,,53,0
213056,note_off,,,,,128,0,3,,,,,,0,,62,0
213068,note_off,,,,,44,0,8,,,,,,4,,60,0
213072,note_on,,,,,4,0,8,,,,,,4,,58,100
213116,note_off,,,,,188,0,4,,,,,,1,,58,0
213116,note_off,,,,,44,0,8,,,,,,4,,58,0
213120,note_on,,,,,4,0,4,,,,,,1,,62,85
213120,note_on,,,,,64,0,3,,,,,,0,,65,85
213120,note_on,,,,,4,0,8,,,,,,4,,60,100
213120,note_on,,,,,64,0,5,,,,,,2,,56,85
213164,note_off,,,,,44,0,8,,,,,,4,,60,0
213168,note_on,,,,,4,0,8,,,,,,4,,58,100
213212,note_off,,,,,44,0,8,,,,,,4,,58,0
213216,note_on,,,,,4,0,8,,,,,,4,,60,100
213260,note_off,,,,,44,0,8,,,,,,4,,60,0
213264,note_on,,,,,4,0,8,,,,,,4,,58,100
213308,note_off,,,,,380,0,6,,,,,,3,,58,0
213308,note_off,,,,,380,0,7,,,,,,3,,46,0
213308,note_off,,,,,188,0,4,,,,,,1,,62,0
213308,note_off,,,,,188,0,3,,,,,,0,,65,0
213308,note_off,,,,,44,0,8,,,,,,4,,58,0
213308,note_off,,,,,188,0,5,,,,,,2,,56,0
213308,note_off,,,,,380,0,9,,,,,,4,,46,0
213312,note_on,,,,,4,0,5,,,,,,2,,55,85
213312,note_on,,,,,4,0,9,,,,,,4,,39,100
213312,note_on,,,,,4,0,4,,,,,,1,,63,85
213312,note_on,,,,,4,0,3,,,,,,0,,63,85
213312,note_on,,,,,4,0,8,,,,,,4,,60,100
213312,note_on,,,,,4,0,6,,,,,,3,,51,85
213312,note_on,,,,,4,0,7,,,,,,3,,39,85
213356,note_off,,,,,44,0,8,,,,,,4,,60,0
213360,note_on,,,,,4,0,8,,,,,,4,,58,100
213404,note_off,,,,,44,0,8,,,,,,4,,58,0
213408,note_on,,,,,4,0,8,,,,,,4,,60,100
213440,note_off,,,,,128,0,3,,,,,,0,,63,0
213440,note_off,,,,,128,0,5,,,,,,2,,55,0
213452,note_off,,,,,44,0,8,,,,,,4,,60,0
213456,note_on,,,,,4,0,8,,,,,,4,,58,100
213500,note_off,,,,,188,0,4,,,,,,1,,63,0
213500,note_off,,,,,188,0,7,,,,,,3,,39,0
213500,note_off,,,,,188,0,6,,,,,,3,,51,0
213500,note_off,,,,,188,0,9,,,,,,4,,39,0
213504,note_on,,,,,4,0,6,,,,,,3,,46,85
213504,note_on,,,,,4,0,7,,,,,,3,,34,85
213504,note_on,,,,,64,0,3,,,,,,0,,62,85
213504,note_on,,,,,64,0,5,,,,,,2,,53,85
213504,note_on,,,,,4,0,9,,,,,,4,,34,100
213504,note_on,,,,,4,0,4,,,,,,1,,65,85
213568,note_off,,,,,112,0,8,,,,,,4,,58,0
213600,note_on,,,,,32,0,8,,,,,,4,,45,100
213692,note_off,,,,,188,0,9,,,,,,4,,34,0
213692,note_off,,,,,92,0,8,,,,,,4,,45,0
213696,note_on,,,,,4,0,8,,,,,,4,,46,100
213788,note_off,,,,,92,0,8,,,,,,4,,46,0
213792,note_on,,,,,4,0,8,,,,,,4,,48,100
213884,note_off,,,,,380,0,3,,,,,,0,,62,0
213884,note_off,,,,,380,0,5,,,,,,2,,53,0
213884,note_off,,,,,380,0,6,,,,,,3,,46,0
213884,note_off,,,,,380,0,7,,,,,,3,,34,0
213884,note_off,,,,,92,0,8,,,,,,4,,48,0
213884,note_off,,,,,380,0,4,,,,,,1,,65,0
213888,note_on,,,,,4,0,8,,,,,,4,,50,100
213980,note_off,,,,,92,0,8,,,,,,4,,50,0
213984,note_on,,,,,4,0,8,,,,,,4,,51,100
214076,note_off,,,,,92,0,8,,,,,,4,,51,0
214080,note_on,,,,,4,0,8,,,,,,4,,53,100
214172,note_off,,,,,92,0,8,,,,,,4,,53,0
214176,note_on,,,,,4,0,8,,,,,,4,,55,100
214268,note_off,,,,,92,0,8,,,,,,4,,55,0
214272,note_on,,,,,4,0,8,,,,,,4,,56,100
214364,note_off,,,,,92,0,8,,,,,,4,,56,0
214368,note_on,,,,,4,0,8,,,,,,4,,59,100
214460,note_off,,,,,92,0,8,,,,,,4,,59,0
214464,note_on,,,,,580,0,5,,,,,,2,,62,100
214464,note_on,,,,,580,0,6,,,,,,3,,43,100
214464,note_on,,,,,0,0,9,,,,,,4,,43,100
214464,note_on,,,,,580,0,7,,,,,,3,,31,100
214464,note_on,,,,,772,0,9,,,,,,4,,31,100
214464,note_on,,,,,580,0,3,,,,,,0,,71,100
214464,note_on,,,,,4,0,8,,,,,,4,,60,100
214464,note_on,,,,,580,0,4,,,,,,1,,67,100
214556,note_off,,,,,92,0,8,,,,,,4,,60,0
214560,note_on,,,,,4,0,8,,,,,,4,,62,100
214592,note_off,,,,,128,0,7,,,,,,3,,31,0
214592,note_off,,,,,128,0,4,,,,,,1,,67,0
214592,note_off,,,,,128,0,3,,,,,,0,,71,0
214592,note_off,,,,,128,0,6,,,,,,3,,43,0
214592,note_off,,,,,128,0,5,,,,,,2,,62,0
214636,note_off,,,,,172,0,9,,,,,,4,,31,0
214636,note_off,,,,,0,0,9,,,,,,4,,43,0
214652,note_off,,,,,92,0,8,,,,,,4,,62,0
214656,note_on,,,,,20,0,9,,,,,,4,,31,100
214656,note_on,,,,,64,0,5,,,,,,2,,62,100
214656,note_on,,,,,64,0,6,,,,,,3,,43,100
214656,note_on,,,,,64,0,7,,,,,,3,,31,100
214656,note_on,,,,,64,0,4,,,,,,1,,67,100
214656,note_on,,,,,4,0,8,,,,,,4,,60,100
214656,note_on,,,,,0,0,9,,,,,,4,,43,100
214656,note_on,,,,,64,0,3,,,,,,0,,71,100
214748,note_off,,,,,92,0,8,,,,,,4,,60,0
214752,note_on,,,,,4,0,8,,,,,,4,,59,100
214784,note_off,,,,,128,0,5,,,,,,2,,62,0
214784,note_off,,,,,128,0,3,,,,,,0,,71,0
214784,note_off,,,,,128,0,4,,,,,,1,,67,0
214784,note_off,,,,,128,0,6,,,,,,3,,43,0
214784,note_off,,,,,128,0,7,,,,,,3,,31,0
214828,note_off,,,,,172,0,9,,,,,,4,,31,0
214828,note_off,,,,,0,0,9,,,,,,4,,43,0
214844,note_off,,,,,92,0,8,,,,,,4,,59,0
214848,note_on,,,,,64,0,6,,,,,,3,,43,100
214848,note_on,,,,,0,0,9,,,,,,4,,43,100
214848,note_on,,,,,64,0,3,,,,,,0,,71,100
214848,note_on,,,,,64,0,5,,,,,,2,,62,100
214848,note_on,,,,,64,0,4,,,,,,1,,67,100
214848,note_on,,,,,4,0,8,,,,,,4,,57,100
214848,note_on,,,,,20,0,9,,,,,,4,,31,100
214848,note_on,,,,,64,0,7,,,,,,3,,31,100
214940,note_off,,,,,92,0,8,,,,,,4,,57,0
214944,note_on,,,,,4,0,8,,,,,,4,,55,100
214976,note_off,,,,,128,0,4,,,,,,1,,67,0
214976,note_off,,,,,128,0,6,,,,,,3,,43,0
214976,note_off,,,,,128,0,3,,,,,,0,,71,0
214976,note_off,,,,,128,0,5,,,,,,2,,62,0
214976,note_off,,,,,128,0,7,,,,,,3,,31,0
215020,note_off,,,,,172,0,9,,,,,,4,,31,0
215020,note_off,,,,,0,0,9,,,,,,4,,43,0
215036,note_off,,,,,92,0,8,,,,,,4,,55,0
215040,note_on,,,,,64,0,7,,,,,,3,,36,100
215040,note_on,,,,,4,0,8,,,,,,4,,63,100
215040,note_on,,,,,64,0,5,,,,,,2,,60,100
215040,note_on,,,,,64,0,4,,,,,,1,,67,100
215040,note_on,,,,,64,0,3,,,,,,0,,72,100
215040,note_on,,,,,64,0,6,,,,,,3,,48,100
215040,note_on,,,,,0,0,9,,,,,,4,,48,100
215040,note_on,,,,,20,0,9,,,,,,4,,36,100
215132,note_off,,,,,92,0,8,,,,,,4,,63,0
215136,note_on,,,,,4,0,8,,,,,,4,,60,100
215228,note_off,,,,,92,0,8,,,,,,4,,60,0
215232,note_on,,,,,4,0,8,,,,,,4,,59,100
215324,note_off,,,,,92,0,8,,,,,,4,,59,0
215328,note_on,,,,,4,0,8,,,,,,4,,60,100
215420,note_off,,,,,380,0,4,,,,,,1,,67,0
215420,note_off,,,,,380,0,7,,,,,,3,,36,0
215420,note_off,,,,,380,0,5,,,,,,2,,60,0
215420,note_off,,,,,380,0,6,,,,,,3,,48,0
215420,note_off,,,,,380,0,3,,,,,,0,,72,0
215420,note_off,,,,,92,0,8,,,,,,4,,60,0
215420,note_off,,,,,380,0,9,,,,,,4,,36,0
215420,note_off,,,,,0,0,9,,,,,,4,,48,0
215424,note_on,,,,,4,0,8,,,,,,4,,55,100
215516,note_off,,,,,92,0,8,,,,,,4,,55,0
215520,note_on,,,,,4,0,8,,,,,,4,,60,100
215612,note_off,,,,,92,0,8,,,,,,4,,60,0
215616,note_on,,,,,4,0,8,,,,,,4,,51,100
215708,note_off,,,,,92,0,8,,,,,,4,,51,0
215712,note_on,,,,,4,0,8,,,,,,4,,55,100
215804,note_off,,,,,92,0,8,,,,,,4,,55,0
215808,note_on,,,,,4,0,8,,,,,,4,,48,100
215900,note_off,,,,,92,0,8,,,,,,4,,48,0
215904,note_on,,,,,4,0,8,,,,,,4,,47,100
215996,note_off,,,,,92,0,8,,,,,,4,,47,0
216000,note_on,,,,,4,0,8,,,,,,4,,48,100
216092,note_off,,,,,92,0,8,,,,,,4,,48,0
216096,note_on,,,,,4,0,8,,,,,,4,,50,100
216188,note_off,,,,,92,0,8,,,,,,4,,50,0
216192,note_on,,,,,4,0,8,,,,,,4,,51,100
216284,note_off,,,,,92,0,8,,,,,,4,,51,0
216288,note_on,,,,,4,0,8,,,,,,4,,53,100
216380,note_off,,,,,92,0,8,,,,,,4,,53,0
216384,note_on,,,,,4,0,8,,,,,,4,,55,100
216476,note_off,,,,,92,0,8,,,,,,4,,55,0
216480,note_on,,,,,4,0,8,,,,,,4,,57,100
216572,note_off,,,,,92,0,8,,,,,,4,,57,0
216576,note_on,,,,,4,0,8,,,,,,4,,58,100
216668,note_off,,,,,92,0,8,,,,,,4,,58,0
216672,note_on,,,,,4,0,8,,,,,,4,,61,100
216764,note_off,,,,,92,0,8,,,,,,4,,61,0
216768,note_on,,,,,4,0,8,,,,,,4,,62,100
216768,note_on,,,,,1348,0,6,,,,,,3,,45,100
216768,note_on,,,,,1348,0,7,,,,,,3,,33,100
216768,note_on,,,,,1348,0,3,,,,,,0,,73,100
216768,note_on,,,,,0,0,9,,,,,,4,,45,100
216768,note_on,,,,,1348,0,9,,,,,,4,,33,100
216768,note_on,,,,,1348,0,5,,,,,,2,,64,100
216768,note_on,,,,,1348,0,4,,,,,,1,,69,100
216860,note_off,,,,,92,0,8,,,,,,4,,62,0
216864,note_on,,,,,4,0,8,,,,,,4,,64,100
216896,note_off,,,,,128,0,4,,,,,,1,,69,0
216896,note_off,,,,,128,0,7,,,,,,3,,33,0
216896,note_off,,,,,128,0,3,,,,,,0,,73,0
216896,note_off,,,,,128,0,6,,,,,,3,,45,0
216896,note_off,,,,,128,0,5,,,,,,2,,64,0
216940,note_off,,,,,0,0,9,,,,,,4,,45,0
216940,note_off,,,,,172,0,9,,,,,,4,,33,0
216956,note_off,,,,,92,0,8,,,,,,4,,64,0
216960,note_on,,,,,64,0,7,,,,,,3,,33,100
216960,note_on,,,,,64,0,3,,,,,,0,,73,100
216960,note_on,,,,,20,0,9,,,,,,4,,33,100
216960,note_on,,,,,64,0,5,,,,,,2,,64,100
216960,note_on,,,,,0,0,9,,,,,,4,,45,100
216960,note_on,,,,,64,0,6,,,,,,3,,45,100
216960,note_on,,,,,64,0,4,,,,,,1,,69,100
216960,note_on,,,,,4,0,8,,,,,,4,,62,100
217052,note_off,,,,,92,0,8,,,,,,4,,62,0
217056,note_on,,,,,4,0,8,,,,,,4,,61,100
217088,note_off,,,,,128,0,6,,,,,,3,,45,0
217088,note_off,,,,,128,0,4,,,,,,1,,69,0
217088,note_off,,,,,128,0,3,,,,,,0,,73,0
217088,note_off,,,,,128,0,7,,,,,,3,,33,0
217088,note_off,,,,,128,0,5,,,,,,2,,64,0
217132,note_off,,,,,0,0,9,,,,,,4,,45,0
217132,note_off,,,,,172,0,9,,,,,,4,,33,0
217148,note_off,,,,,92,0,8,,,,,,4,,61,0
217152,note_on,,,,,4,0,8,,,,,,4,,59,100
217152,note_on,,,,,20,0,9,,,,,,4,,33,100
217152,note_on,,,,,64,0,4,,,,,,1,,69,100
217152,note_on,,,,,64,0,5,,,,,,2,,64,100
217152,note_on,,,,,64,0,6,,,,,,3,,45,100
217152,note_on,,,,,0,0,9,,,,,,4,,45,100
217152,note_on,,,,,64,0,3,,,,,,0,,73,100
217152,note_on,,,,,64,0,7,,,,,,3,,33,100
217244,note_off,,,,,92,0,8,,,,,,4,,59,0
217248,note_on,,,,,4,0,8,,,,,,4,,57,100
217280,note_off,,,,,128,0,4,,,,,,1,,69,0
217280,note_off,,,,,128,0,3,,,,,,0,,73,0
217280,note_off,,,,,128,0,7,,,,,,3,,33,0
217280,note_off,,,,,128,0,6,,,,,,3,,45,0
217280,note_off,,,,,128,0,5,,,,,,2,,64,0
217324,note_off,,,,,0,0,9,,,,,,4,,45,0
217324,note_off,,,,,172,0,9,,,,,,4,,33,0
217340,note_off,,,,,92,0,8,,,,,,4,,57,0
217344,note_on,,,,,64,0,6,,,,,,3,,50,100
217344,note_on,,,,,64,0,4,,,,,,1,,69,100
217344,note_on,,,,,20,0,9,,,,,,4,,38,100
217344,note_on,,,,,0,0,9,,,,,,4,,50,100
217344,note_on,,,,,64,0,5,,,,,,2,,62,100
217344,note_on,,,,,64,0,7,,,,,,3,,38,100
217344,note_on,,,,,64,0,3,,,,,,0,,74,100
217344,note_on,,,,,4,0,8,,,,,,4,,65,100
217436,note_off,,,,,92,0,8,,,,,,4,,65,0
217440,note_on,,,,,4,0,8,,,,,,4,,62,100
217532,note_off,,,,,92,0,8,,,,,,4,,62,0
217536,note_on,,,,,4,0,8,,,,,,4,,61,100
217628,note_off,,,,,92,0,8,,,,,,4,,61,0
217632,note_on,,,,,4,0,8,,,,,,4,,62,100
217724,note_off,,,,,92,0,8,,,,,,4,,62,0
217724,note_off,,,,,380,0,3,,,,,,0,,74,0
217724,note_off,,,,,0,0,9,,,,,,4,,50,0
217724,note_off,,,,,380,0,6,,,,,,3,,50,0
217724,note_off,,,,,380,0,4,,,,,,1,,69,0
217724,note_off,,,,,380,0,7,,,,,,3,,38,0
217724,note_off,,,,,380,0,9,,,,,,4,,38,0
217724,note_off,,,,,380,0,5,,,,,,2,,62,0
217728,note_on,,,,,4,0,8,,,,,,4,,57,100
217820,note_off,,,,,92,0,8,,,,,,4,,57,0
217824,note_on,,,,,4,0,8,,,,,,4,,62,100
217868,note_off,,,,,44,0,8,,,,,,4,,62,0
217872,note_on,,,,,4,0,8,,,,,,4,,57,100
217916,note_off,,,,,44,0,8,,,,,,4,,57,0
217920,note_on,,,,,4,0,8,,,,,,4,,53,100
218012,note_off,,,,,92,0,8,,,,,,4,,53,0
218016,note_on,,,,,4,0,8,,,,,,4,,57,100
218060,note_off,,,,,44,0,8,,,,,,4,,57,0
218064,note_on,,,,,4,0,8,,,,,,4,,53,100
218108,note_off,,,,,44,0,8,,,,,,4,,53,0
218112,note_on,,,,,4,0,8,,,,,,4,,50,100
218204,note_off,,,,,92,0,8,,,,,,4,,50,0
218208,note_on,,,,,4,0,8,,,,,,4,,52,100
218300,note_off,,,,,92,0,8,,,,,,4,,52,0
218304,note_on,,,,,4,0,8,,,,,,4,,53,100
218396,note_off,,,,,92,0,8,,,,,,4,,53,0
218400,note_on,,,,,4,0,8,,,,,,4,,55,100
218492,note_off,,,,,92,0,8,,,,,,4,,55,0
218496,note_on,,,,,4,0,8,,,,,,4,,57,100
218588,note_off,,,,,92,0,8,,,,,,4,,57,0
218592,note_on,,,,,4,0,8,,,,,,4,,58,100
218684,note_off,,,,,92,0,8,,,,,,4,,58,0
218688,note_on,,,,,4,0,8,,,,,,4,,60,100
218780,note_off,,,,,92,0,8,,,,,,4,,60,0
218784,note_on,,,,,4,0,8,,,,,,4,,62,100
218876,note_off,,,,,92,0,8,,,,,,4,,62,0
218880,note_on,,,,,4,0,8,,,,,,4,,63,100
218972,note_off,,,,,92,0,8,,,,,,4,,63,0
218976,note_on,,,,,4,0,8,,,,,,4,,66,100
219068,note_off,,,,,92,0,8,,,,,,4,,66,0
219072,note_on,,,,,4,0,8,,,,,,4,,67,100
219072,note_on,,,,,1348,0,9,,,,,,4,,38,100
219072,note_on,,,,,0,0,9,,,,,,4,,50,100
219072,note_on,,,,,1348,0,3,,,,,,0,,78,100
219072,note_on,,,,,1348,0,6,,,,,,3,,50,100
219072,note_on,,,,,1348,0,5,,,,,,2,,69,100
219072,note_on,,,,,1348,0,4,,,,,,1,,74,100
219072,note_on,,,,,1348,0,7,,,,,,3,,38,100
219164,note_off,,,,,92,0,8,,,,,,4,,67,0
219168,note_on,,,,,4,0,8,,,,,,4,,69,100
219200,note_off,,,,,128,0,4,,,,,,1,,74,0
219200,note_off,,,,,128,0,7,,,,,,3,,38,0
219200,note_off,,,,,128,0,3,,,,,,0,,78,0
219200,note_off,,,,,128,0,6,,,,,,3,,50,0
219200,note_off,,,,,128,0,5,,,,,,2,,69,0
219244,note_off,,,,,0,0,9,,,,,,4,,50,0
219244,note_off,,,,,172,0,9,,,,,,4,,38,0
219260,note_off,,,,,92,0,8,,,,,,4,,69,0
219264,note_on,,,,,64,0,7,,,,,,3,,38,100
219264,note_on,,,,,64,0,5,,,,,,2,,69,100
219264,note_on,,,,,20,0,9,,,,,,4,,38,100
219264,note_on,,,,,4,0,8,,,,,,4,,67,100
219264,note_on,,,,,64,0,4,,,,,,1,,74,100
219264,note_on,,,,,64,0,3,,,,,,0,,78,100
219264,note_on,,,,,0,0,9,,,,,,4,,50,100
219264,note_on,,,,,64,0,6,,,,,,3,,50,100
219356,note_off,,,,,92,0,8,,,,,,4,,67,0
219360,note_on,,,,,4,0,8,,,,,,4,,66,100
219392,note_off,,,,,128,0,4,,,,,,1,,74,0
219392,note_off,,,,,128,0,3,,,,,,0,,78,0
219392,note_off,,,,,128,0,5,,,,,,2,,69,0
219392,note_off,,,,,128,0,7,,,,,,3,,38,0
219392,note_off,,,,,128,0,6,,,,,,3,,50,0
219436,note_off,,,,,172,0,9,,,,,,4,,38,0
219436,note_off,,,,,0,0,9,,,,,,4,,50,0
219452,note_off,,,,,92,0,8,,,,,,4,,66,0
219456,note_on,,,,,64,0,3,,,,,,0,,78,100
219456,note_on,,,,,64,0,7,,,,,,3,,38,100
219456,note_on,,,,,4,0,8,,,,,,4,,64,100
219456,note_on,,,,,64,0,4,,,,,,1,,74,100
219456,note_on,,,,,64,0,6,,,,,,3,,50,100
219456,note_on,,,,,0,0,9,,,,,,4,,50,100
219456,note_on,,,,,20,0,9,,,,,,4,,38,100
219456,note_on,,,,,64,0,5,,,,,,2,,69,100
219548,note_off,,,,,92,0,8,,,,,,4,,64,0
219552,note_on,,,,,4,0,8,,,,,,4,,62,100
219584,note_off,,,,,128,0,5,,,,,,2,,69,0
219584,note_off,,,,,128,0,6,,,,,,3,,50,0
219584,note_off,,,,,128,0,3,,,,,,0,,78,0
219584,note_off,,,,,128,0,7,,,,,,3,,38,0
219584,note_off,,,,,128,0,4,,,,,,1,,74,0
219616,note_off,,,,,64,0,8,,,,,,4,,62,0
219628,note_off,,,,,0,0,9,,,,,,4,,50,0
219628,note_off,,,,,172,0,9,,,,,,4,,38,0
219648,note_on,,,,,0,0,9,,,,,,4,,43,100
219648,note_on,,,,,64,0,5,,,,,,2,,67,100
219648,note_on,,,,,64,0,3,,,,,,0,,79,100
219648,note_on,,,,,32,0,8,,,,,,4,,70,100
219648,note_on,,,,,20,0,9,,,,,,4,,55,100
219648,note_on,,,,,64,0,6,,,,,,3,,55,100
219648,note_on,,,,,64,0,4,,,,,,1,,74,100
219648,note_on,,,,,64,0,7,,,,,,3,,43,100
219740,note_off,,,,,92,0,8,,,,,,4,,70,0
219740,note_off,,,,,0,0,9,,,,,,4,,43,0
219740,note_off,,,,,92,0,9,,,,,,4,,55,0
219744,note_on,,,,,4,0,9,,,,,,4,,58,100
219744,note_on,,,,,4,0,8,,,,,,4,,67,100
219836,note_off,,,,,92,0,9,,,,,,4,,58,0
219836,note_off,,,,,92,0,8,,,,,,4,,67,0
219836,note_off,,,,,188,0,4,,,,,,1,,74,0
219840,note_on,,,,,4,0,8,,,,,,4,,69,100
219840,note_on,,,,,4,0,4,,,,,,1,,70,85
219840,note_on,,,,,4,0,9,,,,,,4,,60,100
219932,note_off,,,,,92,0,9,,,,,,4,,60,0
219932,note_off,,,,,92,0,8,,,,,,4,,69,0
219936,note_on,,,,,4,0,8,,,,,,4,,70,100
219936,note_on,,,,,4,0,9,,,,,,4,,62,100
220028,note_off,,,,,380,0,3,,,,,,0,,79,0
220028,note_off,,,,,380,0,7,,,,,,3,,43,0
220028,note_off,,,,,380,0,5,,,,,,2,,67,0
220028,note_off,,,,,92,0,9,,,,,,4,,62,0
220028,note_off,,,,,188,0,4,,,,,,1,,70,0
220028,note_off,,,,,380,0,6,,,,,,3,,55,0
220028,note_off,,,,,92,0,8,,,,,,4,,70,0
220032,note_on,,,,,4,0,8,,,,,,4,,69,100
220032,note_on,,,,,4,0,4,,,,,,1,,75,85
220032,note_on,,,,,4,0,9,,,,,,4,,60,100
220124,note_off,,,,,92,0,8,,,,,,4,,69,0
220124,note_off,,,,,92,0,9,,,,,,4,,60,0
220128,note_on,,,,,4,0,8,,,,,,4,,67,100
220128,note_on,,,,,4,0,9,,,,,,4,,58,100
220220,note_off,,,,,92,0,9,,,,,,4,,58,0
220220,note_off,,,,,92,0,8,,,,,,4,,67,0
220224,note_on,,,,,196,0,6,,,,,,3,,55,85
220224,note_on,,,,,196,0,3,,,,,,0,,82,85
220224,note_on,,,,,196,0,5,,,,,,2,,70,85
220224,note_on,,,,,4,0,9,,,,,,4,,57,100
220224,note_on,,,,,196,0,7,,,,,,3,,43,85
220224,note_on,,,,,4,0,8,,,,,,4,,66,100
220316,note_off,,,,,92,0,8,,,,,,4,,66,0
220316,note_off,,,,,92,0,9,,,,,,4,,57,0
220320,note_on,,,,,4,0,9,,,,,,4,,55,100
220320,note_on,,,,,4,0,8,,,,,,4,,64,100
220384,note_off,,,,,64,0,8,,,,,,4,,64,0
220412,note_off,,,,,92,0,9,,,,,,4,,55,0
220412,note_off,,,,,188,0,6,,,,,,3,,55,0
220412,note_off,,,,,188,0,3,,,,,,0,,82,0
220412,note_off,,,,,188,0,7,,,,,,3,,43,0
220412,note_off,,,,,188,0,5,,,,,,2,,70,0
220416,note_on,,,,,4,0,6,,,,,,3,,57,85
220416,note_on,,,,,32,0,8,,,,,,4,,72,100
220416,note_on,,,,,4,0,3,,,,,,0,,84,85
220416,note_on,,,,,4,0,7,,,,,,3,,45,85
220416,note_on,,,,,4,0,5,,,,,,2,,66,85
220416,note_on,,,,,4,0,9,,,,,,4,,57,100
220508,note_off,,,,,92,0,8,,,,,,4,,72,0
220508,note_off,,,,,92,0,9,,,,,,4,,57,0
220512,note_on,,,,,4,0,8,,,,,,4,,69,100
220512,note_on,,,,,4,0,9,,,,,,4,,60,100
220604,note_off,,,,,92,0,9,,,,,,4,,60,0
220604,note_off,,,,,572,0,4,,,,,,1,,75,0
220604,note_off,,,,,92,0,8,,,,,,4,,69,0
220608,note_on,,,,,4,0,9,,,,,,4,,62,100
220608,note_on,,,,,4,0,8,,,,,,4,,70,100
220608,note_on,,,,,4,0,4,,,,,,1,,72,85
220700,note_off,,,,,92,0,9,,,,,,4,,62,0
220700,note_off,,,,,92,0,8,,,,,,4,,70,0
220704,note_on,,,,,4,0,9,,,,,,4,,63,100
220704,note_on,,,,,4,0,8,,,,,,4,,72,100
220796,note_off,,,,,380,0,6,,,,,,3,,57,0
220796,note_off,,,,,380,0,3,,,,,,0,,84,0
220796,note_off,,,,,380,0,7,,,,,,3,,45,0
220796,note_off,,,,,380,0,5,,,,,,2,,66,0
220796,note_off,,,,,92,0,8,,,,,,4,,72,0
220796,note_off,,,,,92,0,9,,,,,,4,,63,0
220796,note_off,,,,,188,0,4,,,,,,1,,72,0
220800,note_on,,,,,4,0,4,,,,,,1,,78,85
220800,note_on,,,,,4,0,8,,,,,,4,,70,100
220800,note_on,,,,,4,0,9,,,,,,4,,62,100
220892,note_off,,,,,92,0,9,,,,,,4,,62,0
220892,note_off,,,,,92,0,8,,,,,,4,,70,0
220896,note_on,,,,,4,0,8,,,,,,4,,69,100
220896,note_on,,,,,4,0,9,,,,,,4,,60,100
220988,note_off,,,,,92,0,9,,,,,,4,,60,0
220988,note_off,,,,,92,0,8,,,,,,4,,69,0
220992,note_on,,,,,196,0,3,,,,,,0,,84,85
220992,note_on,,,,,196,0,7,,,,,,3,,45,85
220992,note_on,,,,,196,0,6,,,,,,3,,57,85
220992,note_on,,,,,196,0,5,,,,,,2,,69,85
220992,note_on,,,,,4,0,9,,,,,,4,,58,100
220992,note_on,,,,,4,0,8,,,,,,4,,67,100
221084,note_off,,,,,92,0,9,,,,,,4,,58,0
221084,note_off,,,,,92,0,8,,,,,,4,,67,0
221088,note_on,,,,,4,0,9,,,,,,4,,57,100
221088,note_on,,,,,4,0,8,,,,,,4,,66,100
221152,note_off,,,,,64,0,8,,,,,,4,,66,0
221180,note_off,,,,,188,0,5,,,,,,2,,69,0
221180,note_off,,,,,188,0,6,,,,,,3,,57,0
221180,note_off,,,,,188,0,7,,,,,,3,,45,0
221180,note_off,,,,,188,0,3,,,,,,0,,84,0
221180,note_off,,,,,92,0,9,,,,,,4,,57,0
221184,note_on,,,,,4,0,6,,,,,,3,,58,85
221184,note_on,,,,,4,0,5,,,,,,2,,62,85
221184,note_on,,,,,4,0,3,,,,,,0,,86,85
221184,note_on,,,,,32,0,8,,,,,,4,,74,100
221184,note_on,,,,,4,0,9,,,,,,4,,58,100
221184,note_on,,,,,4,0,7,,,,,,3,,46,85
221276,note_off,,,,,92,0,8,,,,,,4,,74,0
221276,note_off,,,,,92,0,9,,,,,,4,,58,0
221280,note_on,,,,,4,0,8,,,,,,4,,70,100
221280,note_on,,,,,4,0,9,,,,,,4,,55,100
221372,note_off,,,,,572,0,4,,,,,,1,,78,0
221372,note_off,,,,,92,0,9,,,,,,4,,55,0
221372,note_off,,,,,92,0,8,,,,,,4,,70,0
221376,note_on,,,,,4,0,4,,,,,,1,,74,85
221376,note_on,,,,,4,0,9,,,,,,4,,57,100
221376,note_on,,,,,4,0,8,,,,,,4,,72,100
221468,note_off,,,,,92,0,9,,,,,,4,,57,0
221468,note_off,,,,,92,0,8,,,,,,4,,72,0
221472,note_on,,,,,4,0,9,,,,,,4,,58,100
221472,note_on,,,,,4,0,8,,,,,,4,,74,100
221564,note_off,,,,,380,0,3,,,,,,0,,86,0
221564,note_off,,,,,380,0,6,,,,,,3,,58,0
221564,note_off,,,,,188,0,4,,,,,,1,,74,0
221564,note_off,,,,,380,0,5,,,,,,2,,62,0
221564,note_off,,,,,380,0,7,,,,,,3,,46,0
221564,note_off,,,,,92,0,8,,,,,,4,,74,0
221564,note_off,,,,,92,0,9,,,,,,4,,58,0
221568,note_on,,,,,4,0,4,,,,,,1,,79,85
221568,note_on,,,,,4,0,8,,,,,,4,,72,100
221568,note_on,,,,,4,0,9,,,,,,4,,57,100
221660,note_off,,,,,92,0,9,,,,,,4,,57,0
221660,note_off,,,,,92,0,8,,,,,,4,,72,0
221664,note_on,,,,,4,0,9,,,,,,4,,55,100
221664,note_on,,,,,4,0,8,,,,,,4,,70,100
221756,note_off,,,,,92,0,8,,,,,,4,,70,0
221756,note_off,,,,,92,0,9,,,,,,4,,55,0
221760,note_on,,,,,4,0,9,,,,,,4,,54,100
221760,note_on,,,,,196,0,7,,,,,,3,,46,85
221760,note_on,,,,,196,0,6,,,,,,3,,58,85
221760,note_on,,,,,196,0,3,,,,,,0,,74,85
221760,note_on,,,,,4,0,8,,,,,,4,,69,100
221760,note_on,,,,,196,0,5,,,,,,2,,62,85
221852,note_off,,,,,92,0,9,,,,,,4,,54,0
221852,note_off,,,,,92,0,8,,,,,,4,,69,0
221856,note_on,,,,,4,0,8,,,,,,4,,67,100
221856,note_on,,,,,4,0,9,,,,,,4,,55,100
221920,note_off,,,,,64,0,8,,,,,,4,,67,0
221948,note_off,,,,,188,0,3,,,,,,0,,74,0
221948,note_off,,,,,188,0,6,,,,,,3,,58,0
221948,note_off,,,,,92,0,9,,,,,,4,,55,0
221948,note_off,,,,,188,0,7,,,,,,3,,46,0
221948,note_off,,,,,188,0,5,,,,,,2,,62,0
221952,note_on,,,,,4,0,5,,,,,,2,,64,85
221952,note_on,,,,,4,0,6,,,,,,3,,49,85
221952,note_on,,,,,32,0,8,,,,,,4,,76,100
221952,note_on,,,,,4,0,3,,,,,,0,,81,85
221952,note_on,,,,,4,0,9,,,,,,4,,49,100
221952,note_on,,,,,4,0,7,,,,,,3,,37,85
222044,note_off,,,,,92,0,8,,,,,,4,,76,0
222044,note_off,,,,,92,0,9,,,,,,4,,49,0
222048,note_on,,,,,4,0,8,,,,,,4,,73,100
222048,note_on,,,,,4,0,9,,,,,,4,,52,100
222140,note_off,,,,,92,0,8,,,,,,4,,73,0
222140,note_off,,,,,572,0,4,,,,,,1,,79,0
222140,note_off,,,,,92,0,9,,,,,,4,,52,0
222140,note_off,,,,,188,0,3,,,,,,0,,81,0
222144,note_on,,,,,4,0,8,,,,,,4,,74,100
222144,note_on,,,,,4,0,4,,,,,,1,,76,85
222144,note_on,,,,,4,0,9,,,,,,4,,53,100
222144,note_on,,,,,4,0,3,,,,,,0,,79,85
222236,note_off,,,,,92,0,8,,,,,,4,,74,0
222236,note_off,,,,,92,0,9,,,,,,4,,53,0
222240,note_on,,,,,4,0,8,,,,,,4,,76,100
222240,note_on,,,,,4,0,9,,,,,,4,,55,100
222332,note_off,,,,,380,0,7,,,,,,3,,37,0
222332,note_off,,,,,92,0,9,,,,,,4,,55,0
222332,note_off,,,,,92,0,8,,,,,,4,,76,0
222332,note_off,,,,,188,0,3,,,,,,0,,79,0
222332,note_off,,,,,380,0,5,,,,,,2,,64,0
222332,note_off,,,,,380,0,6,,,,,,3,,49,0
222332,note_off,,,,,188,0,4,,,,,,1,,76,0
222336,note_on,,,,,4,0,3,,,,,,0,,77,85
222336,note_on,,,,,4,0,8,,,,,,4,,74,100
222336,note_on,,,,,4,0,4,,,,,,1,,81,85
222336,note_on,,,,,4,0,9,,,,,,4,,45,100
222428,note_off,,,,,92,0,8,,,,,,4,,74,0
222432,note_on,,,,,4,0,8,,,,,,4,,73,100
222524,note_off,,,,,188,0,9,,,,,,4,,45,0
222524,note_off,,,,,92,0,8,,,,,,4,,73,0
222524,note_off,,,,,188,0,3,,,,,,0,,77,0
222528,note_on,,,,,4,0,8,,,,,,4,,71,100
222528,note_on,,,,,4,0,3,,,,,,0,,76,85
222528,note_on,,,,,196,0,5,,,,,,2,,64,85
222528,note_on,,,,,4,0,9,,,,,,4,,49,100
222528,note_on,,,,,196,0,7,,,,,,3,,37,85
222528,note_on,,,,,196,0,6,,,,,,3,,49,85
222620,note_off,,,,,92,0,8,,,,,,4,,71,0
222624,note_on,,,,,4,0,8,,,,,,4,,69,100
222688,note_off,,,,,64,0,8,,,,,,4,,69,0
222716,note_off,,,,,188,0,9,,,,,,4,,49,0
222716,note_off,,,,,188,0,6,,,,,,3,,49,0
222716,note_off,,,,,188,0,5,,,,,,2,,64,0
222716,note_off,,,,,188,0,3,,,,,,0,,76,0
222716,note_off,,,,,188,0,7,,,,,,3,,37,0
222720,note_on,,,,,4,0,5,,,,,,2,,57,85
222720,note_on,,,,,4,0,3,,,,,,0,,74,85
222720,note_on,,,,,32,0,8,,,,,,4,,77,100
222720,note_on,,,,,4,0,9,,,,,,4,,50,100
222720,note_on,,,,,4,0,6,,,,,,3,,50,85
222720,note_on,,,,,4,0,7,,,,,,3,,38,85
222812,note_off,,,,,92,0,8,,,,,,4,,77,0
222816,note_on,,,,,4,0,8,,,,,,4,,74,100
222848,note_off,,,,,512,0,4,,,,,,1,,81,0
222908,note_off,,,,,92,0,8,,,,,,4,,74,0
222908,note_off,,,,,188,0,3,,,,,,0,,74,0
222908,note_off,,,,,188,0,9,,,,,,4,,50,0
222912,note_on,,,,,4,0,9,,,,,,4,,54,100
222912,note_on,,,,,4,0,3,,,,,,0,,75,85
222912,note_on,,,,,4,0,8,,,,,,4,,72,100
222912,note_on,,,,,64,0,4,,,,,,1,,81,85
223004,note_off,,,,,92,0,8,,,,,,4,,72,0
223008,note_on,,,,,4,0,8,,,,,,4,,74,100
223100,note_off,,,,,188,0,4,,,,,,1,,81,0
223100,note_off,,,,,92,0,8,,,,,,4,,74,0
223100,note_off,,,,,188,0,9,,,,,,4,,54,0
223100,note_off,,,,,188,0,3,,,,,,0,,75,0
223100,note_off,,,,,380,0,6,,,,,,3,,50,0
223100,note_off,,,,,380,0,7,,,,,,3,,38,0
223100,note_off,,,,,380,0,5,,,,,,2,,57,0
223104,note_on,,,,,4,0,4,,,,,,1,,79,85
223104,note_on,,,,,4,0,8,,,,,,4,,70,100
223104,note_on,,,,,4,0,3,,,,,,0,,74,85
223104,note_on,,,,,4,0,9,,,,,,4,,55,100
223196,note_off,,,,,92,0,8,,,,,,4,,70,0
223200,note_on,,,,,4,0,8,,,,,,4,,74,100
223292,note_off,,,,,188,0,4,,,,,,1,,79,0
223292,note_off,,,,,92,0,8,,,,,,4,,74,0
223292,note_off,,,,,188,0,3,,,,,,0,,74,0
223292,note_off,,,,,188,0,9,,,,,,4,,55,0
223296,note_on,,,,,4,0,9,,,,,,4,,57,100
223296,note_on,,,,,4,0,4,,,,,,1,,78,85
223296,note_on,,,,,4,0,8,,,,,,4,,69,100
223296,note_on,,,,,4,0,3,,,,,,0,,72,85
223388,note_off,,,,,92,0,8,,,,,,4,,69,0
223392,note_on,,,,,4,0,8,,,,,,4,,74,100
223484,note_off,,,,,188,0,3,,,,,,0,,72,0
223484,note_off,,,,,188,0,9,,,,,,4,,57,0
223484,note_off,,,,,92,0,8,,,,,,4,,74,0
223484,note_off,,,,,188,0,4,,,,,,1,,78,0
223488,note_on,,,,,4,0,9,,,,,,4,,58,100
223488,note_on,,,,,4,0,8,,,,,,4,,67,100
223488,note_on,,,,,4,0,4,,,,,,1,,79,85
223488,note_on,,,,,4,0,3,,,,,,0,,70,85
223580,note_off,,,,,92,0,8,,,,,,4,,67,0
223584,note_on,,,,,4,0,8,,,,,,4,,74,100
223676,note_off,,,,,188,0,4,,,,,,1,,79,0
223676,note_off,,,,,188,0,9,,,,,,4,,58,0
223676,note_off,,,,,188,0,3,,,,,,0,,70,0
223676,note_off,,,,,92,0,8,,,,,,4,,74,0
223680,note_on,,,,,580,0,5,,,,,,2,,67,85
223680,note_on,,,,,4,0,4,,,,,,1,,71,85
223680,note_on,,,,,4,0,9,,,,,,4,,55,100
223680,note_on,,,,,4,0,8,,,,,,4,,76,100
223680,note_on,,,,,580,0,6,,,,,,3,,55,85
223680,note_on,,,,,4,0,3,,,,,,0,,74,85
223680,note_on,,,,,580,0,7,,,,,,3,,43,85
223772,note_off,,,,,92,0,8,,,,,,4,,76,0
223776,note_on,,,,,4,0,8,,,,,,4,,77,100
223868,note_off,,,,,188,0,9,,,,,,4,,55,0
223868,note_off,,,,,92,0,8,,,,,,4,,77,0
223868,note_off,,,,,188,0,3,,,,,,0,,74,0
223868,note_off,,,,,188,0,7,,,,,,3,,43,0
223868,note_off,,,,,188,0,5,,,,,,2,,67,0
223868,note_off,,,,,188,0,6,,,,,,3,,55,0
223868,note_off,,,,,188,0,4,,,,,,1,,71,0
223872,note_on,,,,,4,0,8,,,,,,4,,76,100
223872,note_on,,,,,4,0,5,,,,,,2,,60,85
223872,note_on,,,,,4,0,9,,,,,,4,,57,100
223872,note_on,,,,,4,0,6,,,,,,3,,57,85
223872,note_on,,,,,4,0,7,,,,,,3,,45,85
223872,note_on,,,,,4,0,4,,,,,,1,,72,85
223872,note_on,,,,,4,0,3,,,,,,0,,79,85
223964,note_off,,,,,92,0,8,,,,,,4,,76,0
223968,note_on,,,,,4,0,8,,,,,,4,,74,100
224060,note_off,,,,,188,0,4,,,,,,1,,72,0
224060,note_off,,,,,92,0,8,,,,,,4,,74,0
224060,note_off,,,,,188,0,6,,,,,,3,,57,0
224060,note_off,,,,,188,0,7,,,,,,3,,45,0
224060,note_off,,,,,188,0,5,,,,,,2,,60,0
224060,note_off,,,,,188,0,9,,,,,,4,,57,0
224064,note_on,,,,,4,0,6,,,,,,3,,59,85
224064,note_on,,,,,4,0,5,,,,,,2,,55,85
224064,note_on,,,,,4,0,9,,,,,,4,,59,100
224064,note_on,,,,,4,0,8,,,,,,4,,72,100
224064,note_on,,,,,4,0,7,,,,,,3,,47,85
224064,note_on,,,,,4,0,4,,,,,,1,,74,85
224156,note_off,,,,,92,0,8,,,,,,4,,72,0
224160,note_on,,,,,4,0,8,,,,,,4,,71,100
224252,note_off,,,,,188,0,6,,,,,,3,,59,0
224252,note_off,,,,,188,0,5,,,,,,2,,55,0
224252,note_off,,,,,188,0,4,,,,,,1,,74,0
224252,note_off,,,,,92,0,8,,,,,,4,,71,0
224252,note_off,,,,,188,0,9,,,,,,4,,59,0
224252,note_off,,,,,188,0,7,,,,,,3,,47,0
224256,note_on,,,,,4,0,5,,,,,,2,,60,85
224256,note_on,,,,,4,0,8,,,,,,4,,76,100
224256,note_on,,,,,4,0,6,,,,,,3,,60,85
224256,note_on,,,,,4,0,7,,,,,,3,,48,85
224256,note_on,,,,,4,0,9,,,,,,4,,48,100
224256,note_on,,,,,4,0,4,,,,,,1,,72,85
224348,note_off,,,,,92,0,8,,,,,,4,,76,0
224352,note_on,,,,,4,0,8,,,,,,4,,72,100
224384,note_off,,,,,512,0,3,,,,,,0,,79,0
224444,note_off,,,,,92,0,8,,,,,,4,,72,0
224444,note_off,,,,,188,0,4,,,,,,1,,72,0
224444,note_off,,,,,188,0,9,,,,,,4,,48,0
224448,note_on,,,,,4,0,9,,,,,,4,,52,100
224448,note_on,,,,,4,0,8,,,,,,4,,70,100
224448,note_on,,,,,4,0,4,,,,,,1,,74,85
224448,note_on,,,,,64,0,3,,,,,,0,,79,85
224540,note_off,,,,,92,0,8,,,,,,4,,70,0
224544,note_on,,,,,4,0,8,,,,,,4,,72,100
224636,note_off,,,,,188,0,4,,,,,,1,,74,0
224636,note_off,,,,,380,0,5,,,,,,2,,60,0
224636,note_off,,,,,380,0,6,,,,,,3,,60,0
224636,note_off,,,,,188,0,9,,,,,,4,,52,0
224636,note_off,,,,,92,0,8,,,,,,4,,72,0
224636,note_off,,,,,380,0,7,,,,,,3,,48,0
224636,note_off,,,,,188,0,3,,,,,,0,,79,0
224640,note_on,,,,,4,0,3,,,,,,0,,77,85
224640,note_on,,,,,4,0,9,,,,,,4,,53,100
224640,note_on,,,,,4,0,4,,,,,,1,,72,85
224640,note_on,,,,,4,0,8,,,,,,4,,69,100
224732,note_off,,,,,92,0,8,,,,,,4,,69,0
224736,note_on,,,,,4,0,8,,,,,,4,,72,100
224828,note_off,,,,,188,0,9,,,,,,4,,53,0
224828,note_off,,,,,92,0,8,,,,,,4,,72,0
224828,note_off,,,,,188,0,4,,,,,,1,,72,0
224828,note_off,,,,,188,0,3,,,,,,0,,77,0
224832,note_on,,,,,4,0,4,,,,,,1,,70,85
224832,note_on,,,,,4,0,8,,,,,,4,,67,100
224832,note_on,,,,,4,0,3,,,,,,0,,76,85
224832,note_on,,,,,4,0,9,,,,,,4,,55,100
224924,note_off,,,,,92,0,8,,,,,,4,,67,0
224928,note_on,,,,,4,0,8,,,,,,4,,72,100
225020,note_off,,,,,188,0,9,,,,,,4,,55,0
225020,note_off,,,,,92,0,8,,,,,,4,,72,0
225020,note_off,,,,,188,0,4,,,,,,1,,70,0
225020,note_off,,,,,188,0,3,,,,,,0,,76,0
225024,note_on,,,,,4,0,8,,,,,,4,,65,100
225024,note_on,,,,,4,0,9,,,,,,4,,57,100
225024,note_on,,,,,4,0,4,,,,,,1,,69,85
225024,note_on,,,,,4,0,3,,,,,,0,,77,85
225116,note_off,,,,,92,0,8,,,,,,4,,65,0
225120,note_on,,,,,4,0,8,,,,,,4,,72,100
225212,note_off,,,,,188,0,3,,,,,,0,,77,0
225212,note_off,,,,,92,0,8,,,,,,4,,72,0
225212,note_off,,,,,188,0,9,,,,,,4,,57,0
225212,note_off,,,,,188,0,4,,,,,,1,,69,0
225216,note_on,,,,,580,0,7,,,,,,3,,41,85
225216,note_on,,,,,4,0,9,,,,,,4,,53,100
225216,note_on,,,,,580,0,6,,,,,,3,,53,85
225216,note_on,,,,,580,0,5,,,,,,2,,65,85
225216,note_on,,,,,4,0,3,,,,,,0,,69,85
225216,note_on,,,,,4,0,8,,,,,,4,,74,100
225216,note_on,,,,,4,0,4,,,,,,1,,72,85
225308,note_off,,,,,92,0,8,,,,,,4,,74,0
225312,note_on,,,,,4,0,8,,,,,,4,,75,100
225404,note_off,,,,,188,0,7,,,,,,3,,41,0
225404,note_off,,,,,188,0,5,,,,,,2,,65,0
225404,note_off,,,,,188,0,9,,,,,,4,,53,0
225404,note_off,,,,,188,0,3,,,,,,0,,69,0
225404,note_off,,,,,92,0,8,,,,,,4,,75,0
225404,note_off,,,,,188,0,4,,,,,,1,,72,0
225404,note_off,,,,,188,0,6,,,,,,3,,53,0
225408,note_on,,,,,4,0,8,,,,,,4,,74,100
225408,note_on,,,,,4,0,9,,,,,,4,,55,100
225408,note_on,,,,,4,0,4,,,,,,1,,77,85
225408,note_on,,,,,4,0,7,,,,,,3,,43,85
225408,note_on,,,,,4,0,3,,,,,,0,,70,85
225408,note_on,,,,,4,0,6,,,,,,3,,55,85
225408,note_on,,,,,4,0,5,,,,,,2,,58,85
225500,note_off,,,,,92,0,8,,,,,,4,,74,0
225504,note_on,,,,,4,0,8,,,,,,4,,72,100
225596,note_off,,,,,92,0,8,,,,,,4,,72,0
225596,note_off,,,,,188,0,7,,,,,,3,,43,0
225596,note_off,,,,,188,0,3,,,,,,0,,70,0
225596,note_off,,,,,188,0,9,,,,,,4,,55,0
225596,note_off,,,,,188,0,5,,,,,,2,,58,0
225596,note_off,,,,,188,0,6,,,,,,3,,55,0
225600,note_on,,,,,4,0,8,,,,,,4,,70,100
225600,note_on,,,,,4,0,5,,,,,,2,,53,85
225600,note_on,,,,,4,0,6,,,,,,3,,57,85
225600,note_on,,,,,4,0,9,,,,,,4,,57,100
225600,note_on,,,,,4,0,3,,,,,,0,,72,85
225600,note_on,,,,,4,0,7,,,,,,3,,45,85
225692,note_off,,,,,92,0,8,,,,,,4,,70,0
225696,note_on,,,,,4,0,8,,,,,,4,,69,100
225788,note_off,,,,,188,0,6,,,,,,3,,57,0
225788,note_off,,,,,188,0,7,,,,,,3,,45,0
225788,note_off,,,,,188,0,3,,,,,,0,,72,0
225788,note_off,,,,,188,0,5,,,,,,2,,53,0
225788,note_off,,,,,92,0,8,,,,,,4,,69,0
225788,note_off,,,,,188,0,9,,,,,,4,,57,0
225792,note_on,,,,,4,0,8,,,,,,4,,74,100
225792,note_on,,,,,4,0,9,,,,,,4,,46,100
225792,note_on,,,,,4,0,3,,,,,,0,,70,85
225792,note_on,,,,,4,0,5,,,,,,2,,58,85
225792,note_on,,,,,4,0,7,,,,,,3,,46,85
225792,note_on,,,,,4,0,6,,,,,,3,,58,85
225884,note_off,,,,,92,0,8,,,,,,4,,74,0
225888,note_on,,,,,4,0,8,,,,,,4,,70,100
225920,note_off,,,,,512,0,4,,,,,,1,,77,0
225980,note_off,,,,,92,0,8,,,,,,4,,70,0
225980,note_off,,,,,188,0,6,,,,,,3,,58,0
225980,note_off,,,,,188,0,9,,,,,,4,,46,0
225980,note_off,,,,,188,0,5,,,,,,2,,58,0
225980,note_off,,,,,188,0,7,,,,,,3,,46,0
225984,note_on,,,,,4,0,7,,,,,,3,,48,85
225984,note_on,,,,,4,0,6,,,,,,3,,60,85
225984,note_on,,,,,4,0,8,,,,,,4,,69,100
225984,note_on,,,,,4,0,5,,,,,,2,,62,85
225984,note_on,,,,,64,0,4,,,,,,1,,77,85
225984,note_on,,,,,4,0,9,,,,,,4,,60,100
226076,note_off,,,,,92,0,8,,,,,,4,,69,0
226080,note_on,,,,,4,0,8,,,,,,4,,70,100
226172,note_off,,,,,380,0,3,,,,,,0,,70,0
226172,note_off,,,,,188,0,4,,,,,,1,,77,0
226172,note_off,,,,,188,0,7,,,,,,3,,48,0
226172,note_off,,,,,188,0,9,,,,,,4,,60,0
226172,note_off,,,,,188,0,5,,,,,,2,,62,0
226172,note_off,,,,,188,0,6,,,,,,3,,60,0
226172,note_off,,,,,92,0,8,,,,,,4,,70,0
226176,note_on,,,,,4,0,4,,,,,,1,,76,85
226176,note_on,,,,,4,0,8,,,,,,4,,67,100
226176,note_on,,,,,4,0,9,,,,,,4,,58,100
226176,note_on,,,,,4,0,5,,,,,,2,,67,85
226176,note_on,,,,,4,0,7,,,,,,3,,46,85
226176,note_on,,,,,4,0,6,,,,,,3,,58,85
226268,note_off,,,,,92,0,8,,,,,,4,,67,0
226272,note_on,,,,,4,0,8,,,,,,4,,70,100
226364,note_off,,,,,188,0,9,,,,,,4,,58,0
226364,note_off,,,,,188,0,5,,,,,,2,,67,0
226364,note_off,,,,,188,0,4,,,,,,1,,76,0
226364,note_off,,,,,188,0,7,,,,,,3,,46,0
226364,note_off,,,,,188,0,6,,,,,,3,,58,0
226364,note_off,,,,,92,0,8,,,,,,4,,70,0
226368,note_on,,,,,4,0,6,,,,,,3,,57,85
226368,note_on,,,,,4,0,5,,,,,,2,,69,85
226368,note_on,,,,,4,0,7,,,,,,3,,45,85
226368,note_on,,,,,196,0,3,,,,,,0,,74,85
226368,note_on,,,,,4,0,4,,,,,,1,,74,85
226368,note_on,,,,,4,0,9,,,,,,4,,57,100
226368,note_on,,,,,4,0,8,,,,,,4,,65,100
226460,note_off,,,,,92,0,8,,,,,,4,,65,0
226464,note_on,,,,,4,0,8,,,,,,4,,70,100
226556,note_off,,,,,188,0,3,,,,,,0,,74,0
226556,note_off,,,,,188,0,4,,,,,,1,,74,0
226556,note_off,,,,,92,0,8,,,,,,4,,70,0
226556,note_off,,,,,188,0,9,,,,,,4,,57,0
226556,note_off,,,,,188,0,7,,,,,,3,,45,0
226556,note_off,,,,,188,0,6,,,,,,3,,57,0
226556,note_off,,,,,188,0,5,,,,,,2,,69,0
226560,note_on,,,,,4,0,4,,,,,,1,,73,85
226560,note_on,,,,,4,0,7,,,,,,3,,43,85
226560,note_on,,,,,4,0,5,,,,,,2,,70,85
226560,note_on,,,,,4,0,6,,,,,,3,,55,85
226560,note_on,,,,,4,0,9,,,,,,4,,55,100
226560,note_on,,,,,4,0,8,,,,,,4,,64,100
226560,note_on,,,,,4,0,3,,,,,,0,,76,85
226652,note_off,,,,,92,0,8,,,,,,4,,64,0
226656,note_on,,,,,4,0,8,,,,,,4,,67,100
226748,note_off,,,,,188,0,5,,,,,,2,,70,0
226748,note_off,,,,,188,0,9,,,,,,4,,55,0
226748,note_off,,,,,188,0,4,,,,,,1,,73,0
226748,note_off,,,,,188,0,7,,,,,,3,,43,0
226748,note_off,,,,,92,0,8,,,,,,4,,67,0
226748,note_off,,,,,188,0,6,,,,,,3,,55,0
226752,note_on,,,,,4,0,4,,,,,,1,,74,85
226752,note_on,,,,,4,0,5,,,,,,2,,69,85
226752,note_on,,,,,4,0,7,,,,,,3,,45,85
226752,note_on,,,,,4,0,8,,,,,,4,,65,100
226752,note_on,,,,,4,0,9,,,,,,4,,57,100
226752,note_on,,,,,4,0,6,,,,,,3,,57,85
226844,note_off,,,,,92,0,8,,,,,,4,,65,0
226848,note_on,,,,,4,0,8,,,,,,4,,67,100
226940,note_off,,,,,188,0,9,,,,,,4,,57,0
226940,note_off,,,,,380,0,3,,,,,,0,,76,0
226940,note_off,,,,,188,0,4,,,,,,1,,74,0
226940,note_off,,,,,188,0,5,,,,,,2,,69,0
226940,note_off,,,,,188,0,7,,,,,,3,,45,0
226940,note_off,,,,,92,0,8,,,,,,4,,67,0
226940,note_off,,,,,188,0,6,,,,,,3,,57,0
226944,note_on,,,,,4,0,6,,,,,,3,,55,85
226944,note_on,,,,,4,0,9,,,,,,4,,55,100
226944,note_on,,,,,4,0,5,,,,,,2,,70,85
226944,note_on,,,,,4,0,7,,,,,,3,,43,85
226944,note_on,,,,,4,0,4,,,,,,1,,73,85
226944,note_on,,,,,4,0,8,,,,,,4,,64,100
227036,note_off,,,,,92,0,8,,,,,,4,,64,0
227040,note_on,,,,,4,0,8,,,,,,4,,67,100
227132,note_off,,,,,188,0,4,,,,,,1,,73,0
227132,note_off,,,,,188,0,7,,,,,,3,,43,0
227132,note_off,,,,,92,0,8,,,,,,4,,67,0
227132,note_off,,,,,188,0,5,,,,,,2,,70,0
227132,note_off,,,,,188,0,9,,,,,,4,,55,0
227132,note_off,,,,,188,0,6,,,,,,3,,55,0
227136,note_on,,,,,4,0,5,,,,,,2,,62,85
227136,note_on,,,,,4,0,4,,,,,,1,,74,85
227136,note_on,,,,,4,0,8,,,,,,4,,62,100
227136,note_on,,,,,4,0,9,,,,,,4,,53,100
227136,note_on,,,,,4,0,6,,,,,,3,,53,85
227136,note_on,,,,,196,0,3,,,,,,0,,77,85
227136,note_on,,,,,4,0,7,,,,,,3,,41,85
227228,note_off,,,,,92,0,8,,,,,,4,,62,0
227232,note_on,,,,,4,0,8,,,,,,4,,67,100
227324,note_off,,,,,188,0,9,,,,,,4,,53,0
227324,note_off,,,,,188,0,3,,,,,,0,,77,0
227324,note_off,,,,,188,0,5,,,,,,2,,62,0
227324,note_off,,,,,188,0,4,,,,,,1,,74,0
227324,note_off,,,,,188,0,6,,,,,,3,,53,0
227324,note_off,,,,,92,0,8,,,,,,4,,67,0
227324,note_off,,,,,188,0,7,,,,,,3,,41,0
227328,note_on,,,,,4,0,5,,,,,,2,,64,85
227328,note_on,,,,,4,0,3,,,,,,0,,79,85
227328,note_on,,,,,4,0,7,,,,,,3,,40,85
227328,note_on,,,,,4,0,8,,,,,,4,,61,100
227328,note_on,,,,,4,0,6,,,,,,3,,52,85
227328,note_on,,,,,4,0,4,,,,,,1,,67,85
227328,note_on,,,,,4,0,9,,,,,,4,,52,100
227420,note_off,,,,,92,0,8,,,,,,4,,61,0
227424,note_on,,,,,4,0,8,,,,,,4,,67,100
227516,note_off,,,,,188,0,6,,,,,,3,,52,0
227516,note_off,,,,,188,0,7,,,,,,3,,40,0
227516,note_off,,,,,92,0,8,,,,,,4,,67,0
227516,note_off,,,,,188,0,4,,,,,,1,,67,0
227516,note_off,,,,,188,0,9,,,,,,4,,52,0
227516,note_off,,,,,188,0,5,,,,,,2,,64,0
227520,note_on,,,,,4,0,6,,,,,,3,,53,85
227520,note_on,,,,,4,0,5,,,,,,2,,62,85
227520,note_on,,,,,4,0,8,,,,,,4,,62,100
227520,note_on,,,,,4,0,9,,,,,,4,,53,100
227520,note_on,,,,,4,0,7,,,,,,3,,41,85
227520,note_on,,,,,4,0,4,,,,,,1,,69,85
227612,note_off,,,,,92,0,8,,,,,,4,,62,0
227616,note_on,,,,,4,0,8,,,,,,4,,67,100
227708,note_off,,,,,188,0,9,,,,,,4,,53,0
227708,note_off,,,,,380,0,3,,,,,,0,,79,0
227708,note_off,,,,,188,0,5,,,,,,2,,62,0
227708,note_off,,,,,188,0,4,,,,,,1,,69,0
227708,note_off,,,,,188,0,6,,,,,,3,,53,0
227708,note_off,,,,,92,0,8,,,,,,4,,67,0
227708,note_off,,,,,188,0,7,,,,,,3,,41,0
227712,note_on,,,,,4,0,6,,,,,,3,,52,85
227712,note_on,,,,,4,0,7,,,,,,3,,40,85
227712,note_on,,,,,4,0,4,,,,,,1,,67,85
227712,note_on,,,,,4,0,9,,,,,,4,,52,100
227712,note_on,,,,,4,0,5,,,,,,2,,64,85
227712,note_on,,,,,4,0,8,,,,,,4,,61,100
227804,note_off,,,,,92,0,8,,,,,,4,,61,0
227808,note_on,,,,,4,0,8,,,,,,4,,67,100
227900,note_off,,,,,188,0,7,,,,,,3,,40,0
227900,note_off,,,,,188,0,6,,,,,,3,,52,0
227900,note_off,,,,,188,0,9,,,,,,4,,52,0
227900,note_off,,,,,188,0,5,,,,,,2,,64,0
227900,note_off,,,,,92,0,8,,,,,,4,,67,0
227900,note_off,,,,,188,0,4,,,,,,1,,67,0
227904,note_on,,,,,4,0,4,,,,,,1,,65,85
227904,note_on,,,,,196,0,3,,,,,,0,,74,85
227904,note_on,,,,,4,0,6,,,,,,3,,50,85
227904,note_on,,,,,4,0,8,,,,,,4,,59,100
227904,note_on,,,,,4,0,5,,,,,,2,,65,85
227904,note_on,,,,,4,0,7,,,,,,3,,38,85
227904,note_on,,,,,4,0,9,,,,,,4,,50,100
227996,note_off,,,,,92,0,8,,,,,,4,,59,0
228000,note_on,,,,,4,0,8,,,,,,4,,67,100
228092,note_off,,,,,188,0,7,,,,,,3,,38,0
228092,note_off,,,,,188,0,3,,,,,,0,,74,0
228092,note_off,,,,,188,0,6,,,,,,3,,50,0
228092,note_off,,,,,188,0,9,,,,,,4,,50,0
228092,note_off,,,,,92,0,8,,,,,,4,,67,0
228092,note_off,,,,,188,0,5,,,,,,2,,65,0
228092,note_off,,,,,188,0,4,,,,,,1,,65,0
228096,note_on,,,,,4,0,8,,,,,,4,,57,100
228096,note_on,,,,,4,0,5,,,,,,2,,67,85
228096,note_on,,,,,4,0,3,,,,,,0,,76,85
228096,note_on,,,,,4,0,9,,,,,,4,,49,100
228096,note_on,,,,,4,0,4,,,,,,1,,64,85
228096,note_on,,,,,4,0,6,,,,,,3,,49,85
228096,note_on,,,,,4,0,7,,,,,,3,,37,85
228188,note_off,,,,,92,0,8,,,,,,4,,57,0
228192,note_on,,,,,4,0,8,,,,,,4,,67,100
228284,note_off,,,,,92,0,8,,,,,,4,,67,0
228284,note_off,,,,,188,0,9,,,,,,4,,49,0
228284,note_off,,,,,188,0,5,,,,,,2,,67,0
228284,note_off,,,,,188,0,6,,,,,,3,,49,0
228284,note_off,,,,,188,0,7,,,,,,3,,37,0
228288,note_on,,,,,4,0,8,,,,,,4,,61,100
228288,note_on,,,,,4,0,5,,,,,,2,,64,85
228288,note_on,,,,,4,0,7,,,,,,3,,35,85
228288,note_on,,,,,4,0,9,,,,,,4,,52,100
228288,note_on,,,,,4,0,6,,,,,,3,,47,85
228380,note_off,,,,,92,0,8,,,,,,4,,61,0
228384,note_on,,,,,4,0,8,,,,,,4,,67,100
228476,note_off,,,,,188,0,7,,,,,,3,,35,0
228476,note_off,,,,,188,0,6,,,,,,3,,47,0
228476,note_off,,,,,188,0,5,,,,,,2,,64,0
228476,note_off,,,,,188,0,9,,,,,,4,,52,0
228476,note_off,,,,,92,0,8,,,,,,4,,67,0
228476,note_off,,,,,380,0,4,,,,,,1,,64,0
228476,note_off,,,,,380,0,3,,,,,,0,,76,0
228480,note_on,,,,,4,0,7,,,,,,3,,33,85
228480,note_on,,,,,4,0,6,,,,,,3,,45,85
228480,note_on,,,,,4,0,9,,,,,,4,,57,100
228480,note_on,,,,,4,0,5,,,,,,2,,61,85
228480,note_on,,,,,4,0,8,,,,,,4,,64,100
228572,note_off,,,,,92,0,8,,,,,,4,,64,0
228576,note_on,,,,,4,0,8,,,,,,4,,67,100
228668,note_off,,,,,188,0,9,,,,,,4,,57,0
228668,note_off,,,,,188,0,6,,,,,,3,,45,0
228668,note_off,,,,,188,0,5,,,,,,2,,61,0
228668,note_off,,,,,92,0,8,,,,,,4,,67,0
228668,note_off,,,,,188,0,7,,,,,,3,,33,0
228672,note_on,,,,,196,0,4,,,,,,1,,64,85
228672,note_on,,,,,4,0,6,,,,,,3,,43,85
228672,note_on,,,,,4,0,7,,,,,,3,,31,85
228672,note_on,,,,,4,0,9,,,,,,4,,55,100
228672,note_on,,,,,196,0,3,,,,,,0,,76,85
228672,note_on,,,,,4,0,5,,,,,,2,,57,85
228672,note_on,,,,,4,0,8,,,,,,4,,61,100
228764,note_off,,,,,92,0,8,,,,,,4,,61,0
228768,note_on,,,,,4,0,8,,,,,,4,,64,100
228860,note_off,,,,,92,0,8,,,,,,4,,64,0
228860,note_off,,,,,188,0,4,,,,,,1,,64,0
228860,note_off,,,,,188,0,6,,,,,,3,,43,0
228860,note_off,,,,,188,0,5,,,,,,2,,57,0
228860,note_off,,,,,188,0,3,,,,,,0,,76,0
228860,note_off,,,,,188,0,9,,,,,,4,,55,0
228860,note_off,,,,,188,0,7,,,,,,3,,31,0
228864,note_on,,,,,4,0,4,,,,,,1,,62,85
228864,note_on,,,,,0,0,8,,,,,,4,,69,100
228864,note_on,,,,,4,0,3,,,,,,0,,77,85
228864,note_on,,,,,4,0,6,,,,,,3,,41,85
228864,note_on,,,,,4,0,8,,,,,,4,,62,100
228864,note_on,,,,,4,0,9,,,,,,4,,53,100
228864,note_on,,,,,4,0,5,,,,,,2,,62,85
228864,note_on,,,,,4,0,7,,,,,,3,,29,85
228956,note_off,,,,,0,0,8,,,,,,4,,69,0
228956,note_off,,,,,92,0,9,,,,,,4,,53,0
228956,note_off,,,,,92,0,8,,,,,,4,,62,0
228960,note_on,,,,,4,0,9,,,,,,4,,41,100
229004,note_off,,,,,140,0,4,,,,,,1,,62,0
229052,note_off,,,,,92,0,9,,,,,,4,,41,0
229052,note_off,,,,,188,0,7,,,,,,3,,29,0
229052,note_off,,,,,188,0,3,,,,,,0,,77,0
229052,note_off,,,,,188,0,6,,,,,,3,,41,0
229052,note_off,,,,,188,0,5,,,,,,2,,62,0
229056,note_on,,,,,52,0,4,,,,,,1,,62,85
229056,note_on,,,,,0,0,8,,,,,,4,,65,100
229056,note_on,,,,,100,0,8,,,,,,4,,62,100
229148,note_off,,,,,92,0,8,,,,,,4,,62,0
229148,note_off,,,,,0,0,8,,,,,,4,,65,0
229152,note_on,,,,,100,0,9,,,,,,4,,50,100
229244,note_off,,,,,92,0,9,,,,,,4,,50,0
229244,note_off,,,,,188,0,4,,,,,,1,,62,0
229248,note_on,,,,,196,0,7,,,,,,3,,34,85
229248,note_on,,,,,196,0,3,,,,,,0,,77,85
229248,note_on,,,,,196,0,6,,,,,,3,,46,85
229248,note_on,,,,,4,0,4,,,,,,1,,64,85
229248,note_on,,,,,100,0,8,,,,,,4,,61,100
229248,note_on,,,,,0,0,8,,,,,,4,,64,100
229248,note_on,,,,,4,0,9,,,,,,4,,46,100
229340,note_off,,,,,92,0,9,,,,,,4,,46,0
229340,note_off,,,,,0,0,8,,,,,,4,,64,0
229340,note_off,,,,,92,0,8,,,,,,4,,61,0
229344,note_on,,,,,4,0,9,,,,,,4,,50,100
229436,note_off,,,,,188,0,3,,,,,,0,,77,0
229436,note_off,,,,,188,0,4,,,,,,1,,64,0
229436,note_off,,,,,92,0,9,,,,,,4,,50,0
229436,note_off,,,,,188,0,6,,,,,,3,,46,0
229436,note_off,,,,,188,0,7,,,,,,3,,34,0
229440,note_on,,,,,4,0,9,,,,,,4,,45,100
229440,note_on,,,,,4,0,4,,,,,,1,,65,85
229440,note_on,,,,,0,0,8,,,,,,4,,65,100
229440,note_on,,,,,100,0,8,,,,,,4,,62,100
229440,note_on,,,,,388,0,5,,,,,,2,,62,85
229532,note_off,,,,,0,0,8,,,,,,4,,65,0
229532,note_off,,,,,92,0,8,,,,,,4,,62,0
229532,note_off,,,,,92,0,9,,,,,,4,,45,0
229536,note_on,,,,,4,0,9,,,,,,4,,50,100
229628,note_off,,,,,92,0,9,,,,,,4,,50,0
229628,note_off,,,,,188,0,5,,,,,,2,,62,0
229628,note_off,,,,,188,0,4,,,,,,1,,65,0
229632,note_on,,,,,0,0,8,,,,,,4,,67,100
229632,note_on,,,,,4,0,4,,,,,,1,,67,85
229632,note_on,,,,,196,0,7,,,,,,3,,31,85
229632,note_on,,,,,100,0,8,,,,,,4,,63,100
229632,note_on,,,,,196,0,6,,,,,,3,,43,85
229632,note_on,,,,,4,0,5,,,,,,2,,70,85
229632,note_on,,,,,4,0,9,,,,,,4,,43,100
229632,note_on,,,,,196,0,3,,,,,,0,,75,85
229724,note_off,,,,,92,0,9,,,,,,4,,43,0
229724,note_off,,,,,0,0,8,,,,,,4,,67,0
229724,note_off,,,,,92,0,8,,,,,,4,,63,0
229728,note_on,,,,,4,0,9,,,,,,4,,50,100
229820,note_off,,,,,92,0,9,,,,,,4,,50,0
229820,note_off,,,,,188,0,7,,,,,,3,,31,0
229820,note_off,,,,,188,0,5,,,,,,2,,70,0
229820,note_off,,,,,188,0,3,,,,,,0,,75,0
229820,note_off,,,,,188,0,4,,,,,,1,,67,0
229820,note_off,,,,,188,0,6,,,,,,3,,43,0
229824,note_on,,,,,4,0,9,,,,,,4,,40,100
229824,note_on,,,,,0,0,8,,,,,,4,,70,100
229824,note_on,,,,,100,0,8,,,,,,4,,62,100
229824,note_on,,,,,4,0,4,,,,,,1,,70,85
229916,note_off,,,,,92,0,9,,,,,,4,,40,0
229916,note_off,,,,,92,0,8,,,,,,4,,62,0
229916,note_off,,,,,0,0,8,,,,,,4,,70,0
229920,note_on,,,,,4,0,9,,,,,,4,,50,100
230012,note_off,,,,,92,0,9,,,,,,4,,50,0
230012,note_off,,,,,188,0,4,,,,,,1,,70,0
230016,note_on,,,,,196,0,7,,,,,,3,,33,85
230016,note_on,,,,,196,0,6,,,,,,3,,45,85
230016,note_on,,,,,0,0,8,,,,,,4,,69,100
230016,note_on,,,,,196,0,3,,,,,,0,,73,85
230016,note_on,,,,,4,0,9,,,,,,4,,45,100
230016,note_on,,,,,100,0,8,,,,,,4,,61,100
230016,note_on,,,,,196,0,5,,,,,,2,,64,85
230016,note_on,,,,,4,0,4,,,,,,1,,69,85
230108,note_off,,,,,92,0,8,,,,,,4,,61,0
230108,note_off,,,,,0,0,8,,,,,,4,,69,0
230108,note_off,,,,,92,0,9,,,,,,4,,45,0
230112,note_on,,,,,4,0,9,,,,,,4,,49,100
230204,note_off,,,,,188,0,4,,,,,,1,,69,0
230204,note_off,,,,,188,0,5,,,,,,2,,64,0
230204,note_off,,,,,188,0,7,,,,,,3,,33,0
230204,note_off,,,,,188,0,6,,,,,,3,,45,0
230204,note_off,,,,,188,0,3,,,,,,0,,73,0
230204,note_off,,,,,92,0,9,,,,,,4,,49,0
230208,note_on,,,,,4,0,9,,,,,,4,,45,100
230208,note_on,,,,,0,0,8,,,,,,4,,67,100
230208,note_on,,,,,100,0,8,,,,,,4,,64,100
230208,note_on,,,,,4,0,4,,,,,,1,,67,85
230300,note_off,,,,,92,0,8,,,,,,4,,64,0
230300,note_off,,,,,0,0,8,,,,,,4,,67,0
230300,note_off,,,,,92,0,9,,,,,,4,,45,0
230304,note_on,,,,,4,0,9,,,,,,4,,49,100
230396,note_off,,,,,188,0,4,,,,,,1,,67,0
230396,note_off,,,,,92,0,9,,,,,,4,,49,0
230400,note_on,,,,,4,0,9,,,,,,4,,46,100
230400,note_on,,,,,196,0,5,,,,,,2,,62,85
230400,note_on,,,,,196,0,7,,,,,,3,,34,85
230400,note_on,,,,,4,0,4,,,,,,1,,65,85
230400,note_on,,,,,196,0,6,,,,,,3,,46,85
230400,note_on,,,,,196,0,3,,,,,,0,,74,85
230400,note_on,,,,,0,0,8,,,,,,4,,65,100
230400,note_on,,,,,100,0,8,,,,,,4,,62,100
230492,note_off,,,,,92,0,8,,,,,,4,,62,0
230492,note_off,,,,,0,0,8,,,,,,4,,65,0
230492,note_off,,,,,92,0,9,,,,,,4,,46,0
230496,note_on,,,,,4,0,9,,,,,,4,,50,100
230588,note_off,,,,,188,0,6,,,,,,3,,46,0
230588,note_off,,,,,188,0,4,,,,,,1,,65,0
230588,note_off,,,,,188,0,7,,,,,,3,,34,0
230588,note_off,,,,,188,0,5,,,,,,2,,62,0
230588,note_off,,,,,188,0,3,,,,,,0,,74,0
230588,note_off,,,,,92,0,9,,,,,,4,,50,0
230592,note_on,,,,,4,0,4,,,,,,1,,67,85
230592,note_on,,,,,0,0,8,,,,,,4,,67,100
230592,note_on,,,,,100,0,8,,,,,,4,,62,100
230592,note_on,,,,,4,0,9,,,,,,4,,46,100
230684,note_off,,,,,92,0,8,,,,,,4,,62,0
230684,note_off,,,,,92,0,9,,,,,,4,,46,0
230684,note_off,,,,,0,0,8,,,,,,4,,67,0
230688,note_on,,,,,4,0,9,,,,,,4,,50,100
230780,note_off,,,,,188,0,4,,,,,,1,,67,0
230780,note_off,,,,,92,0,9,,,,,,4,,50,0
230784,note_on,,,,,100,0,8,,,,,,4,,61,100
230784,note_on,,,,,0,0,8,,,,,,4,,69,100
230784,note_on,,,,,4,0,9,,,,,,4,,41,100
230784,note_on,,,,,4,0,4,,,,,,1,,69,85
230784,note_on,,,,,196,0,7,,,,,,3,,29,85
230784,note_on,,,,,196,0,6,,,,,,3,,41,85
230784,note_on,,,,,196,0,3,,,,,,0,,69,85
230876,note_off,,,,,92,0,9,,,,,,4,,41,0
230876,note_off,,,,,0,0,8,,,,,,4,,69,0
230876,note_off,,,,,92,0,8,,,,,,4,,61,0
230880,note_on,,,,,4,0,9,,,,,,4,,50,100
230972,note_off,,,,,188,0,6,,,,,,3,,41,0
230972,note_off,,,,,188,0,7,,,,,,3,,29,0
230972,note_off,,,,,188,0,4,,,,,,1,,69,0
230972,note_off,,,,,92,0,9,,,,,,4,,50,0
230972,note_off,,,,,188,0,3,,,,,,0,,69,0
230976,note_on,,,,,4,0,4,,,,,,1,,65,85
230976,note_on,,,,,388,0,5,,,,,,2,,62,85
230976,note_on,,,,,4,0,9,,,,,,4,,41,100
230976,note_on,,,,,0,0,8,,,,,,4,,65,100
230976,note_on,,,,,100,0,8,,,,,,4,,62,100
231068,note_off,,,,,92,0,9,,,,,,4,,41,0
231068,note_off,,,,,92,0,8,,,,,,4,,62,0
231068,note_off,,,,,0,0,8,,,,,,4,,65,0
231072,note_on,,,,,4,0,9,,,,,,4,,50,100
231164,note_off,,,,,92,0,9,,,,,,4,,50,0
231164,note_off,,,,,188,0,4,,,,,,1,,65,0
231164,note_off,,,,,188,0,5,,,,,,2,,62,0
231168,note_on,,,,,196,0,7,,,,,,3,,31,85
231168,note_on,,,,,4,0,5,,,,,,2,,58,85
231168,note_on,,,,,0,0,8,,,,,,4,,70,100
231168,note_on,,,,,196,0,3,,,,,,0,,67,85
231168,note_on,,,,,4,0,4,,,,,,1,,70,85
231168,note_on,,,,,4,0,9,,,,,,4,,43,100
231168,note_on,,,,,196,0,6,,,,,,3,,43,85
231168,note_on,,,,,100,0,8,,,,,,4,,63,100
231260,note_off,,,,,92,0,8,,,,,,4,,63,0
231260,note_off,,,,,0,0,8,,,,,,4,,70,0
231260,note_off,,,,,92,0,9,,,,,,4,,43,0
231264,note_on,,,,,4,0,9,,,,,,4,,50,100
231356,note_off,,,,,188,0,5,,,,,,2,,58,0
231356,note_off,,,,,188,0,4,,,,,,1,,70,0
231356,note_off,,,,,92,0,9,,,,,,4,,50,0
231356,note_off,,,,,188,0,7,,,,,,3,,31,0
231356,note_off,,,,,188,0,3,,,,,,0,,67,0
231356,note_off,,,,,188,0,6,,,,,,3,,43,0
231360,note_on,,,,,4,0,9,,,,,,4,,43,100
231360,note_on,,,,,100,0,8,,,,,,4,,62,100
231360,note_on,,,,,0,0,8,,,,,,4,,67,100
231360,note_on,,,,,4,0,4,,,,,,1,,67,85
231452,note_off,,,,,0,0,8,,,,,,4,,67,0
231452,note_off,,,,,92,0,8,,,,,,4,,62,0
231452,note_off,,,,,92,0,9,,,,,,4,,43,0
231456,note_on,,,,,4,0,9,,,,,,4,,50,100
231548,note_off,,,,,92,0,9,,,,,,4,,50,0
231548,note_off,,,,,188,0,4,,,,,,1,,67,0
231552,note_on,,,,,0,0,8,,,,,,4,,64,100
231552,note_on,,,,,4,0,9,,,,,,4,,45,100
231552,note_on,,,,,196,0,3,,,,,,0,,64,85
231552,note_on,,,,,196,0,6,,,,,,3,,45,85
231552,note_on,,,,,4,0,4,,,,,,1,,61,85
231552,note_on,,,,,196,0,5,,,,,,2,,57,85
231552,note_on,,,,,196,0,7,,,,,,3,,33,85
231552,note_on,,,,,100,0,8,,,,,,4,,61,100
231644,note_off,,,,,0,0,8,,,,,,4,,64,0
231644,note_off,,,,,92,0,8,,,,,,4,,61,0
231644,note_off,,,,,92,0,9,,,,,,4,,45,0
231648,note_on,,,,,4,0,9,,,,,,4,,49,100
231740,note_off,,,,,188,0,3,,,,,,0,,64,0
231740,note_off,,,,,188,0,7,,,,,,3,,33,0
231740,note_off,,,,,188,0,6,,,,,,3,,45,0
231740,note_off,,,,,92,0,9,,,,,,4,,49,0
231740,note_off,,,,,188,0,5,,,,,,2,,57,0
231740,note_off,,,,,188,0,4,,,,,,1,,61,0
231744,note_on,,,,,4,0,9,,,,,,4,,45,100
231744,note_on,,,,,100,0,8,,,,,,4,,61,100
231744,note_on,,,,,4,0,4,,,,,,1,,69,85
231744,note_on,,,,,0,0,8,,,,,,4,,69,100
231836,note_off,,,,,0,0,8,,,,,,4,,69,0
231836,note_off,,,,,92,0,8,,,,,,4,,61,0
231836,note_off,,,,,92,0,9,,,,,,4,,45,0
231840,note_on,,,,,4,0,9,,,,,,4,,49,100
231932,note_off,,,,,188,0,4,,,,,,1,,69,0
231932,note_off,,,,,92,0,9,,,,,,4,,49,0
231936,note_on,,,,,4,0,4,,,,,,1,,69,85
231936,note_on,,,,,0,0,8,,,,,,4,,65,100
231936,note_on,,,,,196,0,5,,,,,,2,,57,85
231936,note_on,,,,,196,0,3,,,,,,0,,65,85
231936,note_on,,,,,196,0,7,,,,,,3,,26,85
231936,note_on,,,,,4,0,9,,,,,,4,,38,100
231936,note_on,,,,,196,0,6,,,,,,3,,38,85
231936,note_on,,,,,100,0,8,,,,,,4,,62,100
232028,note_off,,,,,0,0,8,,,,,,4,,65,0
232028,note_off,,,,,92,0,8,,,,,,4,,62,0
232028,note_off,,,,,92,0,9,,,,,,4,,38,0
232032,note_on,,,,,4,0,9,,,,,,4,,50,100
232124,note_off,,,,,92,0,9,,,,,,4,,50,0
232124,note_off,,,,,188,0,5,,,,,,2,,57,0
232124,note_off,,,,,188,0,3,,,,,,0,,65,0
232128,note_on,,,,,4,0,5,,,,,,2,,62,85
232128,note_on,,,,,4,0,3,,,,,,0,,69,85
232128,note_on,,,,,100,0,8,,,,,,4,,62,100
232128,note_on,,,,,0,0,8,,,,,,4,,65,100
232220,note_off,,,,,0,0,8,,,,,,4,,65,0
232220,note_off,,,,,92,0,8,,,,,,4,,62,0
232224,note_on,,,,,100,0,9,,,,,,4,,38,100
232224,note_on,,,,,0,0,9,,,,,,4,,50,100
232268,note_off,,,,,140,0,5,,,,,,2,,62,0
232316,note_off,,,,,92,0,9,,,,,,4,,38,0
232316,note_off,,,,,0,0,9,,,,,,4,,50,0
232316,note_off,,,,,380,0,7,,,,,,3,,26,0
232316,note_off,,,,,380,0,6,,,,,,3,,38,0
232316,note_off,,,,,188,0,3,,,,,,0,,69,0
232316,note_off,,,,,380,0,4,,,,,,1,,69,0
232320,note_on,,,,,100,0,8,,,,,,4,,61,100
232320,note_on,,,,,52,0,5,,,,,,2,,62,85
232320,note_on,,,,,0,0,8,,,,,,4,,64,100
232320,note_on,,,,,4,0,3,,,,,,0,,67,85
232412,note_off,,,,,0,0,8,,,,,,4,,64,0
232412,note_off,,,,,92,0,8,,,,,,4,,61,0
232416,note_on,,,,,0,0,9,,,,,,4,,50,100
232416,note_on,,,,,100,0,9,,,,,,4,,38,100
232460,note_off,,,,,140,0,5,,,,,,2,,62,0
232508,note_off,,,,,92,0,9,,,,,,4,,38,0
232508,note_off,,,,,0,0,9,,,,,,4,,50,0
232508,note_off,,,,,188,0,3,,,,,,0,,67,0
232512,note_on,,,,,52,0,5,,,,,,2,,62,85
232512,note_on,,,,,0,0,8,,,,,,4,,65,100
232512,note_on,,,,,100,0,8,,,,,,4,,62,100
232512,note_on,,,,,4,0,3,,,,,,0,,69,85
232604,note_off,,,,,0,0,8,,,,,,4,,65,0
232604,note_off,,,,,92,0,8,,,,,,4,,62,0
232608,note_on,,,,,100,0,9,,,,,,4,,38,100
232608,note_on,,,,,0,0,9,,,,,,4,,50,100
232652,note_off,,,,,140,0,5,,,,,,2,,62,0
232700,note_off,,,,,92,0,9,,,,,,4,,38,0
232700,note_off,,,,,0,0,9,,,,,,4,,50,0
232700,note_off,,,,,188,0,3,,,,,,0,,69,0
232704,note_on,,,,,52,0,5,,,,,,2,,62,85
232704,note_on,,,,,0,0,8,,,,,,4,,67,100
232704,note_on,,,,,388,0,4,,,,,,1,,73,85
232704,note_on,,,,,100,0,8,,,,,,4,,64,100
232704,note_on,,,,,4,0,3,,,,,,0,,70,85
232796,note_off,,,,,0,0,8,,,,,,4,,67,0
232796,note_off,,,,,92,0,8,,,,,,4,,64,0
232800,note_on,,,,,100,0,9,,,,,,4,,38,100
232800,note_on,,,,,0,0,9,,,,,,4,,50,100
232844,note_off,,,,,140,0,5,,,,,,2,,62,0
232892,note_off,,,,,0,0,9,,,,,,4,,50,0
232892,note_off,,,,,188,0,3,,,,,,0,,70,0
232892,note_off,,,,,92,0,9,,,,,,4,,38,0
232896,note_on,,,,,0,0,8,,,,,,4,,65,100
232896,note_on,,,,,100,0,8,,,,,,4,,62,100
232896,note_on,,,,,52,0,5,,,,,,2,,62,85
232896,note_on,,,,,4,0,3,,,,,,0,,69,85
232988,note_off,,,,,0,0,8,,,,,,4,,65,0
232988,note_off,,,,,92,0,8,,,,,,4,,62,0
232992,note_on,,,,,0,0,9,,,,,,4,,50,100
232992,note_on,,,,,100,0,9,,,,,,4,,38,100
233036,note_off,,,,,140,0,5,,,,,,2,,62,0
233084,note_off,,,,,380,0,4,,,,,,1,,73,0
233084,note_off,,,,,92,0,9,,,,,,4,,38,0
233084,note_off,,,,,188,0,3,,,,,,0,,69,0
233084,note_off,,,,,0,0,9,,,,,,4,,50,0
233088,note_on,,,,,100,0,8,,,,,,4,,64,100
233088,note_on,,,,,52,0,5,,,,,,2,,62,85
233088,note_on,,,,,0,0,8,,,,,,4,,67,100
233088,note_on,,,,,4,0,3,,,,,,0,,70,85
233180,note_off,,,,,92,0,8,,,,,,4,,64,0
233180,note_off,,,,,0,0,8,,,,,,4,,67,0
233184,note_on,,,,,0,0,9,,,,,,4,,50,100
233184,note_on,,,,,100,0,9,,,,,,4,,38,100
233228,note_off,,,,,140,0,5,,,,,,2,,62,0
233276,note_off,,,,,92,0,9,,,,,,4,,38,0
233276,note_off,,,,,0,0,9,,,,,,4,,50,0
233276,note_off,,,,,188,0,3,,,,,,0,,70,0
233280,note_on,,,,,100,0,8,,,,,,4,,61,100
233280,note_on,,,,,0,0,8,,,,,,4,,64,100
233280,note_on,,,,,52,0,5,,,,,,2,,62,85
233280,note_on,,,,,4,0,3,,,,,,0,,67,85
233372,note_off,,,,,0,0,8,,,,,,4,,64,0
233372,note_off,,,,,92,0,8,,,,,,4,,61,0
233376,note_on,,,,,0,0,9,,,,,,4,,50,100
233376,note_on,,,,,100,0,9,,,,,,4,,38,100
233420,note_off,,,,,140,0,5,,,,,,2,,62,0
233468,note_off,,,,,0,0,9,,,,,,4,,50,0
233468,note_off,,,,,92,0,9,,,,,,4,,38,0
233468,note_off,,,,,188,0,3,,,,,,0,,67,0
233472,note_on,,,,,4,0,3,,,,,,0,,69,85
233472,note_on,,,,,1156,0,6,,,,,,3,,38,85
233472,note_on,,,,,1156,0,7,,,,,,3,,26,85
233472,note_on,,,,,388,0,4,,,,,,1,,74,85
233472,note_on,,,,,52,0,5,,,,,,2,,62,85
233472,note_on,,,,,100,0,8,,,,,,4,,62,100
233472,note_on,,,,,0,0,8,,,,,,4,,65,100
233564,note_off,,,,,92,0,8,,,,,,4,,62,0
233564,note_off,,,,,0,0,8,,,,,,4,,65,0
233568,note_on,,,,,100,0,9,,,,,,4,,38,100
233568,note_on,,,,,0,0,9,,,,,,4,,50,100
233612,note_off,,,,,140,0,5,,,,,,2,,62,0
233660,note_off,,,,,188,0,3,,,,,,0,,69,0
233660,note_off,,,,,0,0,9,,,,,,4,,50,0
233660,note_off,,,,,92,0,9,,,,,,4,,38,0
233664,note_on,,,,,52,0,5,,,,,,2,,62,85
233664,note_on,,,,,0,0,8,,,,,,4,,65,100
233664,note_on,,,,,100,0,8,,,,,,4,,62,100
233664,note_on,,,,,4,0,3,,,,,,0,,62,85
233756,note_off,,,,,92,0,8,,,,,,4,,62,0
233756,note_off,,,,,0,0,8,,,,,,4,,65,0
233760,note_on,,,,,100,0,9,,,,,,4,,38,100
233760,note_on,,,,,0,0,9,,,,,,4,,50,100
233804,note_off,,,,,140,0,5,,,,,,2,,62,0
233852,note_off,,,,,188,0,3,,,,,,0,,62,0
233852,note_off,,,,,380,0,7,,,,,,3,,26,0
233852,note_off,,,,,380,0,6,,,,,,3,,38,0
233852,note_off,,,,,0,0,9,,,,,,4,,50,0
233852,note_off,,,,,92,0,9,,,,,,4,,38,0
233852,note_off,,,,,380,0,4,,,,,,1,,74,0
233856,note_on,,,,,0,0,8,,,,,,4,,64,100
233856,note_on,,,,,52,0,5,,,,,,2,,62,85
233856,note_on,,,,,4,0,3,,,,,,0,,67,85
233856,note_on,,,,,100,0,8,,,,,,4,,61,100
233948,note_off,,,,,92,0,8,,,,,,4,,61,0
233948,note_off,,,,,0,0,8,,,,,,4,,64,0
233952,note_on,,,,,0,0,9,,,,,,4,,50,100
233952,note_on,,,,,100,0,9,,,,,,4,,38,100
233996,note_off,,,,,140,0,5,,,,,,2,,62,0
234044,note_off,,,,,0,0,9,,,,,,4,,50,0
234044,note_off,,,,,92,0,9,,,,,,4,,38,0
234044,note_off,,,,,188,0,3,,,,,,0,,67,0
234048,note_on,,,,,0,0,8,,,,,,4,,65,100
234048,note_on,,,,,4,0,3,,,,,,0,,69,85
234048,note_on,,,,,52,0,5,,,,,,2,,62,85
234048,note_on,,,,,100,0,8,,,,,,4,,62,100
234140,note_off,,,,,92,0,8,,,,,,4,,62,0
234140,note_off,,,,,0,0,8,,,,,,4,,65,0
234144,note_on,,,,,0,0,9,,,,,,4,,50,100
234144,note_on,,,,,100,0,9,,,,,,4,,38,100
234188,note_off,,,,,140,0,5,,,,,,2,,62,0
234236,note_off,,,,,92,0,9,,,,,,4,,38,0
234236,note_off,,,,,188,0,3,,,,,,0,,69,0
234236,note_off,,,,,0,0,9,,,,,,4,,50,0
234240,note_on,,,,,52,0,5,,,,,,2,,62,85
234240,note_on,,,,,388,0,4,,,,,,1,,73,85
234240,note_on,,,,,100,0,8,,,,,,4,,64,100
234240,note_on,,,,,0,0,8,,,,,,4,,67,100
234240,note_on,,,,,4,0,3,,,,,,0,,70,85
234332,note_off,,,,,0,0,8,,,,,,4,,67,0
234332,note_off,,,,,92,0,8,,,,,,4,,64,0
234336,note_on,,,,,0,0,9,,,,,,4,,50,100
234336,note_on,,,,,100,0,9,,,,,,4,,38,100
234380,note_off,,,,,140,0,5,,,,,,2,,62,0
234428,note_off,,,,,92,0,9,,,,,,4,,38,0
234428,note_off,,,,,0,0,9,,,,,,4,,50,0
234428,note_off,,,,,188,0,3,,,,,,0,,70,0
234432,note_on,,,,,4,0,3,,,,,,0,,69,85
234432,note_on,,,,,0,0,8,,,,,,4,,65,100
234432,note_on,,,,,100,0,8,,,,,,4,,62,100
234432,note_on,,,,,52,0,5,,,,,,2,,62,85
234524,note_off,,,,,0,0,8,,,,,,4,,65,0
234524,note_off,,,,,92,0,8,,,,,,4,,62,0
234528,note_on,,,,,0,0,9,,,,,,4,,50,100
234528,note_on,,,,,100,0,9,,,,,,4,,38,100
234572,note_off,,,,,140,0,5,,,,,,2,,62,0
234620,note_off,,,,,380,0,4,,,,,,1,,73,0
234620,note_off,,,,,188,0,3,,,,,,0,,69,0
234620,note_off,,,,,0,0,9,,,,,,4,,50,0
234620,note_off,,,,,92,0,9,,,,,,4,,38,0
234624,note_on,,,,,4,0,3,,,,,,0,,70,85
234624,note_on,,,,,52,0,5,,,,,,2,,62,85
234624,note_on,,,,,0,0,8,,,,,,4,,67,100
234624,note_on,,,,,100,0,8,,,,,,4,,64,100
234716,note_off,,,,,92,0,8,,,,,,4,,64,0
234716,note_off,,,,,0,0,8,,,,,,4,,67,0
234720,note_on,,,,,100,0,9,,,,,,4,,38,100
234720,note_on,,,,,0,0,9,,,,,,4,,50,100
234764,note_off,,,,,140,0,5,,,,,,2,,62,0
234812,note_off,,,,,92,0,9,,,,,,4,,38,0
234812,note_off,,,,,188,0,3,,,,,,0,,70,0
234812,note_off,,,,,0,0,9,,,,,,4,,50,0
234816,note_on,,,,,0,0,8,,,,,,4,,64,100
234816,note_on,,,,,52,0,5,,,,,,2,,62,85
234816,note_on,,,,,4,0,3,,,,,,0,,67,85
234816,note_on,,,,,100,0,8,,,,,,4,,61,100
234908,note_off,,,,,0,0,8,,,,,,4,,64,0
234908,note_off,,,,,92,0,8,,,,,,4,,61,0
234912,note_on,,,,,100,0,9,,,,,,4,,38,100
234912,note_on,,,,,0,0,9,,,,,,4,,50,100
234956,note_off,,,,,140,0,5,,,,,,2,,62,0
235004,note_off,,,,,0,0,9,,,,,,4,,50,0
235004,note_off,,,,,92,0,9,,,,,,4,,38,0
235004,note_off,,,,,188,0,3,,,,,,0,,67,0
235008,note_on,,,,,100,0,8,,,,,,4,,62,100
235008,note_on,,,,,0,0,8,,,,,,4,,65,100
235008,note_on,,,,,1156,0,6,,,,,,3,,38,85
235008,note_on,,,,,52,0,5,,,,,,2,,62,85
235008,note_on,,,,,388,0,4,,,,,,1,,74,85
235008,note_on,,,,,1156,0,7,,,,,,3,,26,85
235008,note_on,,,,,4,0,3,,,,,,0,,69,85
235100,note_off,,,,,0,0,8,,,,,,4,,65,0
235100,note_off,,,,,92,0,8,,,,,,4,,62,0
235104,note_on,,,,,100,0,9,,,,,,4,,38,100
235104,note_on,,,,,0,0,9,,,,,,4,,50,100
235148,note_off,,,,,140,0,5,,,,,,2,,62,0
235196,note_off,,,,,188,0,3,,,,,,0,,69,0
235196,note_off,,,,,92,0,9,,,,,,4,,38,0
235196,note_off,,,,,0,0,9,,,,,,4,,50,0
235200,note_on,,,,,4,0,3,,,,,,0,,74,85
235200,note_on,,,,,52,0,5,,,,,,2,,62,85
235200,note_on,,,,,100,0,8,,,,,,4,,65,100
235200,note_on,,,,,0,0,8,,,,,,4,,69,100
235292,note_off,,,,,0,0,8,,,,,,4,,69,0
235292,note_off,,,,,92,0,8,,,,,,4,,65,0
235296,note_on,,,,,0,0,9,,,,,,4,,50,100
235296,note_on,,,,,100,0,9,,,,,,4,,38,100
235340,note_off,,,,,140,0,5,,,,,,2,,62,0
235388,note_off,,,,,380,0,6,,,,,,3,,38,0
235388,note_off,,,,,380,0,7,,,,,,3,,26,0
235388,note_off,,,,,380,0,4,,,,,,1,,74,0
235388,note_off,,,,,92,0,9,,,,,,4,,38,0
235388,note_off,,,,,0,0,9,,,,,,4,,50,0
235392,note_on,,,,,0,0,8,,,,,,4,,70,100
235392,note_on,,,,,100,0,8,,,,,,4,,67,100
235392,note_on,,,,,52,0,5,,,,,,2,,62,85
235484,note_off,,,,,0,0,8,,,,,,4,,70,0
235484,note_off,,,,,92,0,8,,,,,,4,,67,0
235488,note_on,,,,,0,0,9,,,,,,4,,50,100
235488,note_on,,,,,100,0,9,,,,,,4,,38,100
235532,note_off,,,,,140,0,5,,,,,,2,,62,0
235580,note_off,,,,,380,0,3,,,,,,0,,74,0
235580,note_off,,,,,92,0,9,,,,,,4,,38,0
235580,note_off,,,,,0,0,9,,,,,,4,,50,0
235584,note_on,,,,,52,0,5,,,,,,2,,62,85
235584,note_on,,,,,100,0,8,,,,,,4,,64,100
235584,note_on,,,,,4,0,3,,,,,,0,,73,85
235584,note_on,,,,,0,0,8,,,,,,4,,67,100
235676,note_off,,,,,0,0,8,,,,,,4,,67,0
235676,note_off,,,,,92,0,8,,,,,,4,,64,0
235680,note_on,,,,,0,0,9,,,,,,4,,50,100
235680,note_on,,,,,100,0,9,,,,,,4,,38,100
235724,note_off,,,,,140,0,5,,,,,,2,,62,0
235772,note_off,,,,,188,0,3,,,,,,0,,73,0
235772,note_off,,,,,0,0,9,,,,,,4,,50,0
235772,note_off,,,,,92,0,9,,,,,,4,,38,0
235776,note_on,,,,,4,0,3,,,,,,0,,74,85
235776,note_on,,,,,52,0,5,,,,,,2,,62,85
235776,note_on,,,,,100,0,8,,,,,,4,,65,100
235776,note_on,,,,,0,0,8,,,,,,4,,69,100
235868,note_off,,,,,0,0,8,,,,,,4,,69,0
235868,note_off,,,,,92,0,8,,,,,,4,,65,0
235872,note_on,,,,,100,0,9,,,,,,4,,38,100
235872,note_on,,,,,0,0,9,,,,,,4,,50,100
235916,note_off,,,,,140,0,5,,,,,,2,,62,0
235964,note_off,,,,,92,0,9,,,,,,4,,38,0
235964,note_off,,,,,188,0,3,,,,,,0,,74,0
235964,note_off,,,,,0,0,9,,,,,,4,,50,0
235968,note_on,,,,,0,0,8,,,,,,4,,65,100
235968,note_on,,,,,100,0,8,,,,,,4,,62,100
235968,note_on,,,,,580,0,4,,,,,,1,,74,85
235968,note_on,,,,,4,0,3,,,,,,0,,69,85
235968,note_on,,,,,52,0,5,,,,,,2,,62,85
236060,note_off,,,,,0,0,8,,,,,,4,,65,0
236060,note_off,,,,,92,0,8,,,,,,4,,62,0
236064,note_on,,,,,0,0,9,,,,,,4,,50,100
236064,note_on,,,,,100,0,9,,,,,,4,,38,100
236108,note_off,,,,,140,0,5,,,,,,2,,62,0
236156,note_off,,,,,92,0,9,,,,,,4,,38,0
236156,note_off,,,,,188,0,4,,,,,,1,,74,0
236156,note_off,,,,,188,0,3,,,,,,0,,69,0
236156,note_off,,,,,0,0,9,,,,,,4,,50,0
236160,note_on,,,,,52,0,5,,,,,,2,,62,85
236160,note_on,,,,,4,0,4,,,,,,1,,73,85
236160,note_on,,,,,4,0,3,,,,,,0,,70,85
236160,note_on,,,,,0,0,8,,,,,,4,,67,100
236160,note_on,,,,,100,0,8,,,,,,4,,64,100
236252,note_off,,,,,92,0,8,,,,,,4,,64,0
236252,note_off,,,,,0,0,8,,,,,,4,,67,0
236256,note_on,,,,,0,0,9,,,,,,4,,50,100
236256,note_on,,,,,100,0,9,,,,,,4,,38,100
236300,note_off,,,,,140,0,5,,,,,,2,,62,0
236348,note_off,,,,,92,0,9,,,,,,4,,38,0
236348,note_off,,,,,0,0,9,,,,,,4,,50,0
236348,note_off,,,,,188,0,3,,,,,,0,,70,0
236348,note_off,,,,,188,0,4,,,,,,1,,73,0
236352,note_on,,,,,4,0,3,,,,,,0,,67,85
236352,note_on,,,,,0,0,8,,,,,,4,,64,100
236352,note_on,,,,,100,0,8,,,,,,4,,61,100
236352,note_on,,,,,4,0,4,,,,,,1,,76,85
236352,note_on,,,,,52,0,5,,,,,,2,,62,85
236444,note_off,,,,,0,0,8,,,,,,4,,64,0
236444,note_off,,,,,92,0,8,,,,,,4,,61,0
236448,note_on,,,,,100,0,9,,,,,,4,,38,100
236448,note_on,,,,,0,0,9,,,,,,4,,50,100
236492,note_off,,,,,140,0,5,,,,,,2,,62,0
236540,note_off,,,,,188,0,4,,,,,,1,,76,0
236540,note_off,,,,,0,0,9,,,,,,4,,50,0
236540,note_off,,,,,188,0,3,,,,,,0,,67,0
236540,note_off,,,,,92,0,9,,,,,,4,,38,0
236544,note_on,,,,,4,0,3,,,,,,0,,69,85
236544,note_on,,,,,100,0,8,,,,,,4,,62,100
236544,note_on,,,,,1156,0,7,,,,,,3,,26,85
236544,note_on,,,,,52,0,5,,,,,,2,,62,85
236544,note_on,,,,,1156,0,6,,,,,,3,,38,85
236544,note_on,,,,,0,0,8,,,,,,4,,65,100
236544,note_on,,,,,4,0,4,,,,,,1,,74,85
236636,note_off,,,,,92,0,8,,,,,,4,,62,0
236636,note_off,,,,,0,0,8,,,,,,4,,65,0
236640,note_on,,,,,0,0,9,,,,,,4,,50,100
236640,note_on,,,,,100,0,9,,,,,,4,,38,100
236684,note_off,,,,,140,0,5,,,,,,2,,62,0
236732,note_off,,,,,188,0,3,,,,,,0,,69,0
236732,note_off,,,,,0,0,9,,,,,,4,,50,0
236732,note_off,,,,,92,0,9,,,,,,4,,38,0
236736,note_on,,,,,0,0,8,,,,,,4,,69,100
236736,note_on,,,,,100,0,8,,,,,,4,,65,100
236736,note_on,,,,,4,0,3,,,,,,0,,65,85
236736,note_on,,,,,52,0,5,,,,,,2,,62,85
236828,note_off,,,,,92,0,8,,,,,,4,,65,0
236828,note_off,,,,,0,0,8,,,,,,4,,69,0
236832,note_on,,,,,0,0,9,,,,,,4,,50,100
236832,note_on,,,,,100,0,9,,,,,,4,,38,100
236876,note_off,,,,,140,0,5,,,,,,2,,62,0
236924,note_off,,,,,380,0,6,,,,,,3,,38,0
236924,note_off,,,,,188,0,3,,,,,,0,,65,0
236924,note_off,,,,,380,0,4,,,,,,1,,74,0
236924,note_off,,,,,380,0,7,,,,,,3,,26,0
236924,note_off,,,,,92,0,9,,,,,,4,,38,0
236924,note_off,,,,,0,0,9,,,,,,4,,50,0
236928,note_on,,,,,0,0,8,,,,,,4,,71,100
236928,note_on,,,,,100,0,8,,,,,,4,,67,100
236928,note_on,,,,,52,0,5,,,,,,2,,62,85
236928,note_on,,,,,4,0,3,,,,,,0,,65,85
237020,note_off,,,,,0,0,8,,,,,,4,,71,0
237020,note_off,,,,,92,0,8,,,,,,4,,67,0
237024,note_on,,,,,100,0,9,,,,,,4,,38,100
237024,note_on,,,,,0,0,9,,,,,,4,,50,100
237068,note_off,,,,,140,0,5,,,,,,2,,62,0
237100,note_off,,,,,172,0,3,,,,,,0,,65,0
237116,note_off,,,,,92,0,9,,,,,,4,,38,0
237116,note_off,,,,,0,0,9,,,,,,4,,50,0
237120,note_on,,,,,52,0,5,,,,,,2,,62,85
237120,note_on,,,,,100,0,8,,,,,,4,,64,100
237120,note_on,,,,,0,0,8,,,,,,4,,73,100
237120,note_on,,,,,20,0,3,,,,,,0,,64,85
237212,note_off,,,,,0,0,8,,,,,,4,,73,0
237212,note_off,,,,,92,0,8,,,,,,4,,64,0
237216,note_on,,,,,100,0,9,,,,,,4,,38,100
237216,note_on,,,,,0,0,9,,,,,,4,,50,100
237260,note_off,,,,,140,0,5,,,,,,2,,62,0
237308,note_off,,,,,0,0,9,,,,,,4,,50,0
237308,note_off,,,,,92,0,9,,,,,,4,,38,0
237308,note_off,,,,,188,0,3,,,,,,0,,64,0
237312,note_on,,,,,52,0,5,,,,,,2,,62,85
237312,note_on,,,,,0,0,8,,,,,,4,,74,100
237312,note_on,,,,,100,0,8,,,,,,4,,65,100
237312,note_on,,,,,4,0,3,,,,,,0,,62,85
237404,note_off,,,,,0,0,8,,,,,,4,,74,0
237404,note_off,,,,,92,0,8,,,,,,4,,65,0
237408,note_on,,,,,100,0,9,,,,,,4,,38,100
237408,note_on,,,,,0,0,9,,,,,,4,,50,100
237452,note_off,,,,,140,0,5,,,,,,2,,62,0
237500,note_off,,,,,92,0,9,,,,,,4,,38,0
237500,note_off,,,,,188,0,3,,,,,,0,,62,0
237500,note_off,,,,,0,0,9,,,,,,4,,50,0
237504,note_on,,,,,4,0,3,,,,,,0,,74,85
237504,note_on,,,,,52,0,5,,,,,,2,,62,85
237504,note_on,,,,,580,0,4,,,,,,1,,65,85
237504,note_on,,,,,100,0,8,,,,,,4,,57,100
237504,note_on,,,,,0,0,8,,,,,,4,,65,100
237596,note_off,,,,,92,0,8,,,,,,4,,57,0
237596,note_off,,,,,0,0,8,,,,,,4,,65,0
237600,note_on,,,,,0,0,9,,,,,,4,,50,100
237600,note_on,,,,,100,0,9,,,,,,4,,38,100
237644,note_off,,,,,140,0,5,,,,,,2,,62,0
237692,note_off,,,,,0,0,9,,,,,,4,,50,0
237692,note_off,,,,,92,0,9,,,,,,4,,38,0
237692,note_off,,,,,188,0,3,,,,,,0,,74,0
237692,note_off,,,,,188,0,4,,,,,,1,,65,0
237696,note_on,,,,,52,0,5,,,,,,2,,62,85
237696,note_on,,,,,4,0,3,,,,,,0,,76,85
237696,note_on,,,,,4,0,4,,,,,,1,,64,85
237696,note_on,,,,,0,0,8,,,,,,4,,67,100
237696,note_on,,,,,100,0,8,,,,,,4,,59,100
237788,note_off,,,,,0,0,8,,,,,,4,,67,0
237788,note_off,,,,,92,0,8,,,,,,4,,59,0
237792,note_on,,,,,0,0,9,,,,,,4,,50,100
237792,note_on,,,,,100,0,9,,,,,,4,,38,100
237836,note_off,,,,,140,0,5,,,,,,2,,62,0
237868,note_off,,,,,172,0,4,,,,,,1,,64,0
237868,note_off,,,,,172,0,3,,,,,,0,,76,0
237884,note_off,,,,,0,0,9,,,,,,4,,50,0
237884,note_off,,,,,92,0,9,,,,,,4,,38,0
237888,note_on,,,,,0,0,8,,,,,,4,,64,100
237888,note_on,,,,,20,0,4,,,,,,1,,64,85
237888,note_on,,,,,52,0,5,,,,,,2,,62,85
237888,note_on,,,,,20,0,3,,,,,,0,,76,85
237888,note_on,,,,,100,0,8,,,,,,4,,61,100
237980,note_off,,,,,92,0,8,,,,,,4,,61,0
237980,note_off,,,,,0,0,8,,,,,,4,,64,0
237984,note_on,,,,,0,0,9,,,,,,4,,50,100
237984,note_on,,,,,100,0,9,,,,,,4,,38,100
238028,note_off,,,,,140,0,5,,,,,,2,,62,0
238076,note_off,,,,,188,0,3,,,,,,0,,76,0
238076,note_off,,,,,0,0,9,,,,,,4,,50,0
238076,note_off,,,,,188,0,4,,,,,,1,,64,0
238076,note_off,,,,,92,0,9,,,,,,4,,38,0
238080,note_on,,,,,1156,0,7,,,,,,3,,26,85
238080,note_on,,,,,4,0,4,,,,,,1,,62,85
238080,note_on,,,,,100,0,8,,,,,,4,,62,100
238080,note_on,,,,,0,0,8,,,,,,4,,65,100
238080,note_on,,,,,1156,0,6,,,,,,3,,38,85
238080,note_on,,,,,52,0,5,,,,,,2,,62,85
238080,note_on,,,,,4,0,3,,,,,,0,,69,85
238172,note_off,,,,,0,0,8,,,,,,4,,65,0
238172,note_off,,,,,92,0,8,,,,,,4,,62,0
238176,note_on,,,,,0,0,9,,,,,,4,,50,100
238176,note_on,,,,,100,0,9,,,,,,4,,38,100
238268,note_off,,,,,0,0,9,,,,,,4,,50,0
238268,note_off,,,,,92,0,9,,,,,,4,,38,0
238272,note_on,,,,,100,0,8,,,,,,4,,62,100
238272,note_on,,,,,0,0,8,,,,,,4,,65,100
238364,note_off,,,,,92,0,8,,,,,,4,,62,0
238364,note_off,,,,,0,0,8,,,,,,4,,65,0
238368,note_on,,,,,0,0,9,,,,,,4,,50,100
238368,note_on,,,,,100,0,9,,,,,,4,,38,100
238460,note_off,,,,,380,0,7,,,,,,3,,26,0
238460,note_off,,,,,380,0,5,,,,,,2,,62,0
238460,note_off,,,,,380,0,4,,,,,,1,,62,0
238460,note_off,,,,,380,0,3,,,,,,0,,69,0
238460,note_off,,,,,92,0,9,,,,,,4,,38,0
238460,note_off,,,,,0,0,9,,,,,,4,,50,0
238460,note_off,,,,,380,0,6,,,,,,3,,38,0
238464,note_on,,,,,0,0,8,,,,,,4,,67,100
238464,note_on,,,,,100,0,8,,,,,,4,,64,100
238556,note_off,,,,,0,0,8,,,,,,4,,67,0
238556,note_off,,,,,92,0,8,,,,,,4,,64,0
238560,note_on,,,,,100,0,9,,,,,,4,,38,100
238560,note_on,,,,,0,0,9,,,,,,4,,50,100
238652,note_off,,,,,92,0,9,,,,,,4,,38,0
238652,note_off,,,,,0,0,9,,,,,,4,,50,0
238656,note_on,,,,,100,0,8,,,,,,4,,65,100
238656,note_on,,,,,0,0,8,,,,,,4,,69,100
238748,note_off,,,,,0,0,8,,,,,,4,,69,0
238748,note_off,,,,,92,0,8,,,,,,4,,65,0
238752,note_on,,,,,0,0,9,,,,,,4,,50,100
238752,note_on,,,,,100,0,9,,,,,,4,,38,100
238844,note_off,,,,,0,0,9,,,,,,4,,50,0
238844,note_off,,,,,92,0,9,,,,,,4,,38,0
238848,note_on,,,,,100,0,8,,,,,,4,,67,100
238848,note_on,,,,,0,0,8,,,,,,4,,71,100
238940,note_off,,,,,92,0,8,,,,,,4,,67,0
238940,note_off,,,,,0,0,8,,,,,,4,,71,0
238944,note_on,,,,,0,0,9,,,,,,4,,50,100
238944,note_on,,,,,100,0,9,,,,,,4,,38,100
239036,note_off,,,,,0,0,9,,,,,,4,,50,0
239036,note_off,,,,,92,0,9,,,,,,4,,38,0
239040,note_on,,,,,100,0,8,,,,,,4,,69,100
239040,note_on,,,,,0,0,8,,,,,,4,,73,100
239132,note_off,,,,,92,0,8,,,,,,4,,69,0
239132,note_off,,,,,0,0,8,,,,,,4,,73,0
239136,note_on,,,,,100,0,9,,,,,,4,,38,100
239136,note_on,,,,,0,0,9,,,,,,4,,50,100
239228,note_off,,,,,0,0,9,,,,,,4,,50,0
239228,note_off,,,,,92,0,9,,,,,,4,,38,0
239232,note_on,,,,,100,0,8,,,,,,4,,71,100
239232,note_on,,,,,0,0,8,,,,,,4,,74,100
239324,note_off,,,,,92,0,8,,,,,,4,,71,0
239324,note_off,,,,,0,0,8,,,,,,4,,74,0
239328,note_on,,,,,0,0,9,,,,,,4,,50,100
239328,note_on,,,,,100,0,9,,,,,,4,,38,100
239420,note_off,,,,,0,0,9,,,,,,4,,50,0
239420,note_off,,,,,92,0,9,,,,,,4,,38,0
239424,note_on,,,,,100,0,8,,,,,,4,,73,100
239424,note_on,,,,,0,0,8,,,,,,4,,76,100
239516,note_off,,,,,92,0,8,,,,,,4,,73,0
239516,note_off,,,,,0,0,8,,,,,,4,,76,0
239520,note_on,,,,,0,0,9,,,,,,4,,50,100
239520,note_on,,,,,100,0,9,,,,,,4,,38,100
239612,note_off,,,,,92,0,9,,,,,,4,,38,0
239612,note_off,,,,,0,0,9,,,,,,4,,50,0
239616,note_on,,,,,1156,0,6,,,,,,3,,38,85
239616,note_on,,,,,100,0,8,,,,,,4,,74,100
239616,note_on,,,,,0,0,8,,,,,,4,,77,100
239616,note_on,,,,,1156,0,4,,,,,,1,,65,85
239616,note_on,,,,,1156,0,3,,,,,,0,,69,85
239616,note_on,,,,,1156,0,5,,,,,,2,,62,85
239616,note_on,,,,,1156,0,7,,,,,,3,,26,85
239708,note_off,,,,,92,0,8,,,,,,4,,74,0
239708,note_off,,,,,0,0,8,,,,,,4,,77,0
239712,note_on,,,,,100,0,9,,,,,,4,,38,100
239712,note_on,,,,,0,0,9,,,,,,4,,50,100
239804,note_off,,,,,92,0,9,,,,,,4,,38,0
239804,note_off,,,,,0,0,9,,,,,,4,,50,0
239808,note_on,,,,,0,0,8,,,,,,4,,77,100
239808,note_on,,,,,100,0,8,,,,,,4,,74,100
239900,note_off,,,,,92,0,8,,,,,,4,,74,0
239900,note_off,,,,,0,0,8,,,,,,4,,77,0
239904,note_on,,,,,0,0,9,,,,,,4,,50,100
239904,note_on,,,,,100,0,9,,,,,,4,,38,100
239996,note_off,,,,,92,0,9,,,,,,4,,38,0
239996,note_off,,,,,380,0,6,,,,,,3,,38,0
239996,note_off,,,,,0,0,9,,,,,,4,,50,0
239996,note_off,,,,,380,0,3,,,,,,0,,69,0
239996,note_off,,,,,380,0,4,,,,,,1,,65,0
239996,note_off,,,,,380,0,5,,,,,,2,,62,0
239996,note_off,,,,,380,0,7,,,,,,3,,26,0
240000,note_on,,,,,0,0,8,,,,,,4,,72,100
240000,note_on,,,,,100,0,8,,,,,,4,,81,100
240092,note_off,,,,,92,0,8,,,,,,4,,81,0
240092,note_off,,,,,0,0,8,,,,,,4,,72,0
240096,note_on,,,,,0,0,9,,,,,,4,,50,100
240096,note_on,,,,,100,0,9,,,,,,4,,38,100
240188,note_off,,,,,0,0,9,,,,,,4,,50,0
240188,note_off,,,,,92,0,9,,,,,,4,,38,0
240192,note_on,,,,,100,0,8,,,,,,4,,81,100
240192,note_on,,,,,0,0,8,,,,,,4,,72,100
240284,note_off,,,,,92,0,8,,,,,,4,,81,0
240284,note_off,,,,,0,0,8,,,,,,4,,72,0
240288,note_on,,,,,100,0,9,,,,,,4,,38,100
240288,note_on,,,,,0,0,9,,,,,,4,,50,100
240380,note_off,,,,,92,0,9,,,,,,4,,38,0
240380,note_off,,,,,0,0,9,,,,,,4,,50,0
240384,note_on,,,,,0,0,8,,,,,,4,,81,100
240384,note_on,,,,,100,0,8,,,,,,4,,71,100
240476,note_off,,,,,0,0,8,,,,,,4,,81,0
240476,note_off,,,,,92,0,8,,,,,,4,,71,0
240480,note_on,,,,,100,0,9,,,,,,4,,38,100
240480,note_on,,,,,0,0,9,,,,,,4,,50,100
240572,note_off,,,,,92,0,9,,,,,,4,,38,0
240572,note_off,,,,,0,0,9,,,,,,4,,50,0
240576,note_on,,,,,0,0,8,,,,,,4,,81,100
240576,note_on,,,,,100,0,8,,,,,,4,,71,100
240668,note_off,,,,,92,0,8,,,,,,4,,71,0
240668,note_off,,,,,0,0,8,,,,,,4,,81,0
240672,note_on,,,,,0,0,9,,,,,,4,,50,100
240672,note_on,,,,,100,0,9,,,,,,4,,38,100
240764,note_off,,,,,0,0,9,,,,,,4,,50,0
240764,note_off,,,,,92,0,9,,,,,,4,,38,0
240768,note_on,,,,,100,0,8,,,,,,4,,70,100
240768,note_on,,,,,0,0,8,,,,,,4,,79,100
240860,note_off,,,,,92,0,8,,,,,,4,,70,0
240860,note_off,,,,,0,0,8,,,,,,4,,79,0
240864,note_on,,,,,0,0,9,,,,,,4,,50,100
240864,note_on,,,,,100,0,9,,,,,,4,,38,100
240956,note_off,,,,,92,0,9,,,,,,4,,38,0
240956,note_off,,,,,0,0,9,,,,,,4,,50,0
240960,note_on,,,,,0,0,8,,,,,,4,,79,100
240960,note_on,,,,,100,0,8,,,,,,4,,70,100
241052,note_off,,,,,0,0,8,,,,,,4,,79,0
241052,note_off,,,,,92,0,8,,,,,,4,,70,0
241056,note_on,,,,,100,0,9,,,,,,4,,38,100
241056,note_on,,,,,0,0,9,,,,,,4,,50,100
241148,note_off,,,,,92,0,9,,,,,,4,,38,0
241148,note_off,,,,,0,0,9,,,,,,4,,50,0
241152,note_on,,,,,100,0,8,,,,,,4,,69,100
241152,note_on,,,,,0,0,8,,,,,,4,,79,100
241244,note_off,,,,,92,0,8,,,,,,4,,69,0
241244,note_off,,,,,0,0,8,,,,,,4,,79,0
241248,note_on,,,,,100,0,9,,,,,,4,,38,100
241248,note_on,,,,,0,0,9,,,,,,4,,50,100
241340,note_off,,,,,0,0,9,,,,,,4,,50,0
241340,note_off,,,,,92,0,9,,,,,,4,,38,0
241344,note_on,,,,,100,0,8,,,,,,4,,69,100
241344,note_on,,,,,0,0,8,,,,,,4,,79,100
241436,note_off,,,,,92,0,8,,,,,,4,,69,0
241436,note_off,,,,,0,0,8,,,,,,4,,79,0
241440,note_on,,,,,0,0,9,,,,,,4,,50,100
241440,note_on,,,,,100,0,9,,,,,,4,,38,100
241532,note_off,,,,,0,0,9,,,,,,4,,50,0
241532,note_off,,,,,92,0,9,,,,,,4,,38,0
241536,note_on,,,,,100,0,8,,,,,,4,,69,100
241536,note_on,,,,,0,0,8,,,,,,4,,77,100
241628,note_off,,,,,92,0,8,,,,,,4,,69,0
241628,note_off,,,,,0,0,8,,,,,,4,,77,0
241632,note_on,,,,,100,0,9,,,,,,4,,38,100
241632,note_on,,,,,0,0,9,,,,,,4,,50,100
241724,note_off,,,,,92,0,9,,,,,,4,,38,0
241724,note_off,,,,,0,0,9,,,,,,4,,50,0
241728,note_on,,,,,0,0,8,,,,,,4,,77,100
241728,note_on,,,,,100,0,8,,,,,,4,,69,100
241820,note_off,,,,,0,0,8,,,,,,4,,77,0
241820,note_off,,,,,92,0,8,,,,,,4,,69,0
241824,note_on,,,,,0,0,9,,,,,,4,,50,100
241824,note_on,,,,,100,0,9,,,,,,4,,38,100
241916,note_off,,,,,0,0,9,,,,,,4,,50,0
241916,note_off,,,,,92,0,9,,,,,,4,,38,0
241920,note_on,,,,,100,0,8,,,,,,4,,68,100
241920,note_on,,,,,0,0,8,,,,,,4,,77,100
242012,note_off,,,,,92,0,8,,,,,,4,,68,0
242012,note_off,,,,,0,0,8,,,,,,4,,77,0
242016,note_on,,,,,100,0,9,,,,,,4,,38,100
242016,note_on,,,,,0,0,9,,,,,,4,,50,100
242108,note_off,,,,,92,0,9,,,,,,4,,38,0
242108,note_off,,,,,0,0,9,,,,,,4,,50,0
242112,note_on,,,,,100,0,8,,,,,,4,,68,100
242112,note_on,,,,,0,0,8,,,,,,4,,77,100
242204,note_off,,,,,0,0,8,,,,,,4,,77,0
242204,note_off,,,,,92,0,8,,,,,,4,,68,0
242208,note_on,,,,,0,0,9,,,,,,4,,50,100
242208,note_on,,,,,100,0,9,,,,,,4,,38,100
242300,note_off,,,,,92,0,9,,,,,,4,,38,0
242300,note_off,,,,,0,0,9,,,,,,4,,50,0
242304,note_on,,,,,100,0,8,,,,,,4,,67,100
242304,note_on,,,,,0,0,8,,,,,,4,,76,100
242396,note_off,,,,,92,0,8,,,,,,4,,67,0
242396,note_off,,,,,0,0,8,,,,,,4,,76,0
242400,note_on,,,,,100,0,9,,,,,,4,,38,100
242400,note_on,,,,,0,0,9,,,,,,4,,50,100
242492,note_off,,,,,92,0,9,,,,,,4,,38,0
242492,note_off,,,,,0,0,9,,,,,,4,,50,0
242496,note_on,,,,,0,0,8,,,,,,4,,76,100
242496,note_on,,,,,100,0,8,,,,,,4,,67,100
242588,note_off,,,,,0,0,8,,,,,,4,,76,0
242588,note_off,,,,,92,0,8,,,,,,4,,67,0
242592,note_on,,,,,100,0,9,,,,,,4,,38,100
242592,note_on,,,,,0,0,9,,,,,,4,,50,100
242684,note_off,,,,,92,0,9,,,,,,4,,38,0
242684,note_off,,,,,0,0,9,,,,,,4,,50,0
242688,note_on,,,,,0,0,8,,,,,,4,,76,100
242688,note_on,,,,,100,0,8,,,,,,4,,66,100
242780,note_off,,,,,0,0,8,,,,,,4,,76,0
242780,note_off,,,,,92,0,8,,,,,,4,,66,0
242784,note_on,,,,,0,0,9,,,,,,4,,50,100
242784,note_on,,,,,100,0,9,,,,,,4,,38,100
242876,note_off,,,,,0,0,9,,,,,,4,,50,0
242876,note_off,,,,,92,0,9,,,,,,4,,38,0
242880,note_on,,,,,0,0,8,,,,,,4,,76,100
242880,note_on,,,,,100,0,8,,,,,,4,,66,100
242972,note_off,,,,,0,0,8,,,,,,4,,76,0
242972,note_off,,,,,92,0,8,,,,,,4,,66,0
242976,note_on,,,,,100,0,9,,,,,,4,,38,100
242976,note_on,,,,,0,0,9,,,,,,4,,50,100
243068,note_off,,,,,92,0,9,,,,,,4,,38,0
243068,note_off,,,,,0,0,9,,,,,,4,,50,0
243072,note_on,,,,,0,0,8,,,,,,4,,74,100
243072,note_on,,,,,100,0,8,,,,,,4,,65,100
243164,note_off,,,,,0,0,8,,,,,,4,,74,0
243164,note_off,,,,,92,0,8,,,,,,4,,65,0
243168,note_on,,,,,0,0,9,,,,,,4,,50,100
243168,note_on,,,,,100,0,9,,,,,,4,,38,100
243260,note_off,,,,,0,0,9,,,,,,4,,50,0
243260,note_off,,,,,92,0,9,,,,,,4,,38,0
243264,note_on,,,,,0,0,8,,,,,,4,,74,100
243264,note_on,,,,,100,0,8,,,,,,4,,65,100
243356,note_off,,,,,0,0,8,,,,,,4,,74,0
243356,note_off,,,,,92,0,8,,,,,,4,,65,0
243360,note_on,,,,,100,0,9,,,,,,4,,38,100
243360,note_on,,,,,0,0,9,,,,,,4,,50,100
243452,note_off,,,,,0,0,9,,,,,,4,,50,0
243452,note_off,,,,,92,0,9,,,,,,4,,38,0
243456,note_on,,,,,100,0,8,,,,,,4,,64,100
243456,note_on,,,,,0,0,8,,,,,,4,,74,100
243548,note_off,,,,,0,0,8,,,,,,4,,74,0
243548,note_off,,,,,92,0,8,,,,,,4,,64,0
243552,note_on,,,,,100,0,9,,,,,,4,,38,100
243552,note_on,,,,,0,0,9,,,,,,4,,50,100
243644,note_off,,,,,92,0,9,,,,,,4,,38,0
243644,note_off,,,,,0,0,9,,,,,,4,,50,0
243648,note_on,,,,,100,0,8,,,,,,4,,64,100
243648,note_on,,,,,0,0,8,,,,,,4,,74,100
243740,note_off,,,,,92,0,8,,,,,,4,,64,0
243740,note_off,,,,,0,0,8,,,,,,4,,74,0
243744,note_on,,,,,100,0,9,,,,,,4,,38,100
243744,note_on,,,,,0,0,9,,,,,,4,,50,100
243836,note_off,,,,,92,0,9,,,,,,4,,38,0
243836,note_off,,,,,0,0,9,,,,,,4,,50,0
243840,note_on,,,,,0,0,8,,,,,,4,,72,100
243840,note_on,,,,,100,0,8,,,,,,4,,63,100
243932,note_off,,,,,92,0,8,,,,,,4,,63,0
243932,note_off,,,,,0,0,8,,,,,,4,,72,0
243936,note_on,,,,,0,0,9,,,,,,4,,50,100
243936,note_on,,,,,100,0,9,,,,,,4,,38,100
244028,note_off,,,,,0,0,9,,,,,,4,,50,0
244028,note_off,,,,,92,0,9,,,,,,4,,38,0
244032,note_on,,,,,100,0,8,,,,,,4,,63,100
244032,note_on,,,,,0,0,8,,,,,,4,,72,100
244124,note_off,,,,,92,0,8,,,,,,4,,63,0
244124,note_off,,,,,0,0,8,,,,,,4,,72,0
244128,note_on,,,,,0,0,9,,,,,,4,,50,100
244128,note_on,,,,,100,0,9,,,,,,4,,38,100
244220,note_off,,,,,0,0,9,,,,,,4,,50,0
244220,note_off,,,,,92,0,9,,,,,,4,,38,0
244224,note_on,,,,,100,0,8,,,,,,4,,62,100
244224,note_on,,,,,0,0,8,,,,,,4,,72,100
244316,note_off,,,,,92,0,8,,,,,,4,,62,0
244316,note_off,,,,,0,0,8,,,,,,4,,72,0
244320,note_on,,,,,0,0,9,,,,,,4,,50,100
244320,note_on,,,,,100,0,9,,,,,,4,,38,100
244412,note_off,,,,,0,0,9,,,,,,4,,50,0
244412,note_off,,,,,92,0,9,,,,,,4,,38,0
244416,note_on,,,,,100,0,8,,,,,,4,,62,100
244416,note_on,,,,,0,0,8,,,,,,4,,72,100
244508,note_off,,,,,0,0,8,,,,,,4,,72,0
244508,note_off,,,,,92,0,8,,,,,,4,,62,0
244512,note_on,,,,,100,0,9,,,,,,4,,38,100
244512,note_on,,,,,0,0,9,,,,,,4,,50,100
244604,note_off,,,,,92,0,9,,,,,,4,,38,0
244604,note_off,,,,,0,0,9,,,,,,4,,50,0
244608,note_on,,,,,0,0,8,,,,,,4,,70,100
244608,note_on,,,,,100,0,8,,,,,,4,,67,100
244700,note_off,,,,,0,0,8,,,,,,4,,70,0
244700,note_off,,,,,92,0,8,,,,,,4,,67,0
244704,note_on,,,,,0,0,9,,,,,,4,,50,100
244704,note_on,,,,,100,0,9,,,,,,4,,38,100
244796,note_off,,,,,92,0,9,,,,,,4,,38,0
244796,note_off,,,,,0,0,9,,,,,,4,,50,0
244800,note_on,,,,,0,0,8,,,,,,4,,70,100
244800,note_on,,,,,100,0,8,,,,,,4,,67,100
244892,note_off,,,,,0,0,8,,,,,,4,,70,0
244892,note_off,,,,,92,0,8,,,,,,4,,67,0
244896,note_on,,,,,100,0,9,,,,,,4,,38,100
244896,note_on,,,,,0,0,9,,,,,,4,,50,100
244988,note_off,,,,,92,0,9,,,,,,4,,38,0
244988,note_off,,,,,0,0,9,,,,,,4,,50,0
244992,note_on,,,,,0,0,8,,,,,,4,,69,100
244992,note_on,,,,,100,0,8,,,,,,4,,67,100
245084,note_off,,,,,0,0,8,,,,,,4,,69,0
245084,note_off,,,,,92,0,8,,,,,,4,,67,0
245088,note_on,,,,,0,0,9,,,,,,4,,50,100
245088,note_on,,,,,100,0,9,,,,,,4,,38,100
245180,note_off,,,,,92,0,9,,,,,,4,,38,0
245180,note_off,,,,,0,0,9,,,,,,4,,50,0
245184,note_on,,,,,100,0,8,,,,,,4,,67,100
245184,note_on,,,,,0,0,8,,,,,,4,,69,100
245276,note_off,,,,,0,0,8,,,,,,4,,69,0
245276,note_off,,,,,92,0,8,,,,,,4,,67,0
245280,note_on,,,,,0,0,9,,,,,,4,,50,100
245280,note_on,,,,,100,0,9,,,,,,4,,38,100
245372,note_off,,,,,0,0,9,,,,,,4,,50,0
245372,note_off,,,,,92,0,9,,,,,,4,,38,0
245376,note_on,,,,,100,0,8,,,,,,4,,65,100
245376,note_on,,,,,0,0,8,,,,,,4,,74,100
245468,note_off,,,,,92,0,8,,,,,,4,,65,0
245468,note_off,,,,,0,0,8,,,,,,4,,74,0
245472,note_on,,,,,0,0,9,,,,,,4,,50,100
245472,note_on,,,,,100,0,9,,,,,,4,,38,100
245564,note_off,,,,,92,0,9,,,,,,4,,38,0
245564,note_off,,,,,0,0,9,,,,,,4,,50,0
245568,note_on,,,,,0,0,8,,,,,,4,,74,100
245568,note_on,,,,,100,0,8,,,,,,4,,65,100
245660,note_off,,,,,92,0,8,,,,,,4,,65,0
245660,note_off,,,,,0,0,8,,,,,,4,,74,0
245664,note_on,,,,,0,0,9,,,,,,4,,50,100
245664,note_on,,,,,100,0,9,,,,,,4,,38,100
245756,note_off,,,,,0,0,9,,,,,,4,,50,0
245756,note_off,,,,,92,0,9,,,,,,4,,38,0
245760,note_on,,,,,0,0,8,,,,,,4,,74,100
245760,note_on,,,,,100,0,8,,,,,,4,,64,100
245852,note_off,,,,,0,0,8,,,,,,4,,74,0
245852,note_off,,,,,92,0,8,,,,,,4,,64,0
245856,note_on,,,,,100,0,9,,,,,,4,,38,100
245856,note_on,,,,,0,0,9,,,,,,4,,50,100
245948,note_off,,,,,92,0,9,,,,,,4,,38,0
245948,note_off,,,,,0,0,9,,,,,,4,,50,0
245952,note_on,,,,,100,0,8,,,,,,4,,64,100
245952,note_on,,,,,0,0,8,,,,,,4,,74,100
246044,note_off,,,,,92,0,8,,,,,,4,,64,0
246044,note_off,,,,,0,0,8,,,,,,4,,74,0
246048,note_on,,,,,100,0,9,,,,,,4,,38,100
246048,note_on,,,,,0,0,9,,,,,,4,,50,100
246140,note_off,,,,,0,0,9,,,,,,4,,50,0
246140,note_off,,,,,92,0,9,,,,,,4,,38,0
246144,note_on,,,,,0,0,8,,,,,,4,,72,100
246144,note_on,,,,,100,0,8,,,,,,4,,69,100
246236,note_off,,,,,0,0,8,,,,,,4,,72,0
246236,note_off,,,,,92,0,8,,,,,,4,,69,0
246240,note_on,,,,,100,0,9,,,,,,4,,38,100
246240,note_on,,,,,0,0,9,,,,,,4,,50,100
246332,note_off,,,,,0,0,9,,,,,,4,,50,0
246332,note_off,,,,,92,0,9,,,,,,4,,38,0
246336,note_on,,,,,0,0,8,,,,,,4,,72,100
246336,note_on,,,,,100,0,8,,,,,,4,,69,100
246428,note_off,,,,,0,0,8,,,,,,4,,72,0
246428,note_off,,,,,92,0,8,,,,,,4,,69,0
246432,note_on,,,,,100,0,9,,,,,,4,,38,100
246432,note_on,,,,,0,0,9,,,,,,4,,50,100
246524,note_off,,,,,92,0,9,,,,,,4,,38,0
246524,note_off,,,,,0,0,9,,,,,,4,,50,0
246528,note_on,,,,,100,0,8,,,,,,4,,69,100
246528,note_on,,,,,0,0,8,,,,,,4,,70,100
246620,note_off,,,,,0,0,8,,,,,,4,,70,0
246620,note_off,,,,,92,0,8,,,,,,4,,69,0
246624,note_on,,,,,0,0,9,,,,,,4,,50,100
246624,note_on,,,,,100,0,9,,,,,,4,,38,100
246716,note_off,,,,,0,0,9,,,,,,4,,50,0
246716,note_off,,,,,92,0,9,,,,,,4,,38,0
246720,note_on,,,,,100,0,8,,,,,,4,,69,100
246720,note_on,,,,,0,0,8,,,,,,4,,70,100
246812,note_off,,,,,92,0,8,,,,,,4,,69,0
246812,note_off,,,,,0,0,8,,,,,,4,,70,0
246816,note_on,,,,,100,0,9,,,,,,4,,38,100
246816,note_on,,,,,0,0,9,,,,,,4,,50,100
246908,note_off,,,,,0,0,9,,,,,,4,,50,0
246908,note_off,,,,,92,0,9,,,,,,4,,38,0
246912,note_on,,,,,0,0,8,,,,,,4,,70,100
246912,note_on,,,,,100,0,8,,,,,,4,,67,100
247004,note_off,,,,,92,0,8,,,,,,4,,67,0
247004,note_off,,,,,0,0,8,,,,,,4,,70,0
247008,note_on,,,,,0,0,9,,,,,,4,,50,100
247008,note_on,,,,,100,0,9,,,,,,4,,38,100
247100,note_off,,,,,92,0,9,,,,,,4,,38,0
247100,note_off,,,,,0,0,9,,,,,,4,,50,0
247104,note_on,,,,,100,0,8,,,,,,4,,67,100
247104,note_on,,,,,0,0,8,,,,,,4,,70,100
247196,note_off,,,,,92,0,8,,,,,,4,,67,0
247196,note_off,,,,,0,0,8,,,,,,4,,70,0
247200,note_on,,,,,0,0,9,,,,,,4,,50,100
247200,note_on,,,,,100,0,9,,,,,,4,,38,100
247292,note_off,,,,,0,0,9,,,,,,4,,50,0
247292,note_off,,,,,92,0,9,,,,,,4,,38,0
247296,note_on,,,,,0,0,8,,,,,,4,,69,100
247296,note_on,,,,,100,0,8,,,,,,4,,67,100
247388,note_off,,,,,0,0,8,,,,,,4,,69,0
247388,note_off,,,,,92,0,8,,,,,,4,,67,0
247392,note_on,,,,,100,0,9,,,,,,4,,38,100
247392,note_on,,,,,0,0,9,,,,,,4,,50,100
247484,note_off,,,,,92,0,9,,,,,,4,,38,0
247484,note_off,,,,,0,0,9,,,,,,4,,50,0
247488,note_on,,,,,0,0,8,,,,,,4,,69,100
247488,note_on,,,,,100,0,8,,,,,,4,,67,100
247580,note_off,,,,,92,0,8,,,,,,4,,67,0
247580,note_off,,,,,0,0,8,,,,,,4,,69,0
247584,note_on,,,,,0,0,9,,,,,,4,,50,100
247584,note_on,,,,,100,0,9,,,,,,4,,38,100
247676,note_off,,,,,92,0,9,,,,,,4,,38,0
247676,note_off,,,,,0,0,9,,,,,,4,,50,0
247680,note_on,,,,,0,0,8,,,,,,4,,69,100
247680,note_on,,,,,100,0,8,,,,,,4,,65,100
247772,note_off,,,,,92,0,8,,,,,,4,,65,0
247772,note_off,,,,,0,0,8,,,,,,4,,69,0
247776,note_on,,,,,100,0,9,,,,,,4,,38,100
247776,note_on,,,,,0,0,9,,,,,,4,,50,100
247868,note_off,,,,,92,0,9,,,,,,4,,38,0
247868,note_off,,,,,0,0,9,,,,,,4,,50,0
247872,note_on,,,,,0,0,8,,,,,,4,,69,100
247872,note_on,,,,,100,0,8,,,,,,4,,65,100
247964,note_off,,,,,0,0,8,,,,,,4,,69,0
247964,note_off,,,,,92,0,8,,,,,,4,,65,0
247968,note_on,,,,,100,0,9,,,,,,4,,38,100
247968,note_on,,,,,0,0,9,,,,,,4,,50,100
248060,note_off,,,,,92,0,9,,,,,,4,,38,0
248060,note_off,,,,,0,0,9,,,,,,4,,50,0
248064,note_on,,,,,0,0,8,,,,,,4,,67,100
248064,note_on,,,,,100,0,8,,,,,,4,,65,100
248156,note_off,,,,,0,0,8,,,,,,4,,67,0
248156,note_off,,,,,92,0,8,,,,,,4,,65,0
248160,note_on,,,,,100,0,9,,,,,,4,,38,100
248160,note_on,,,,,0,0,9,,,,,,4,,50,100
248252,note_off,,,,,0,0,9,,,,,,4,,50,0
248252,note_off,,,,,92,0,9,,,,,,4,,38,0
248256,note_on,,,,,0,0,8,,,,,,4,,67,100
248256,note_on,,,,,100,0,8,,,,,,4,,65,100
248348,note_off,,,,,0,0,8,,,,,,4,,67,0
248348,note_off,,,,,92,0,8,,,,,,4,,65,0
248352,note_on,,,,,100,0,9,,,,,,4,,38,100
248352,note_on,,,,,0,0,9,,,,,,4,,50,100
248444,note_off,,,,,0,0,9,,,,,,4,,50,0
248444,note_off,,,,,92,0,9,,,,,,4,,38,0
248448,note_on,,,,,0,0,8,,,,,,4,,67,100
248448,note_on,,,,,100,0,8,,,,,,4,,64,100
248540,note_off,,,,,0,0,8,,,,,,4,,67,0
248540,note_off,,,,,92,0,8,,,,,,4,,64,0
248544,note_on,,,,,100,0,9,,,,,,4,,38,100
248544,note_on,,,,,0,0,9,,,,,,4,,50,100
248636,note_off,,,,,92,0,9,,,,,,4,,38,0
248636,note_off,,,,,0,0,9,,,,,,4,,50,0
248640,note_on,,,,,100,0,8,,,,,,4,,64,100
248640,note_on,,,,,0,0,8,,,,,,4,,67,100
248732,note_off,,,,,92,0,8,,,,,,4,,64,0
248732,note_off,,,,,0,0,8,,,,,,4,,67,0
248736,note_on,,,,,0,0,9,,,,,,4,,50,100
248736,note_on,,,,,100,0,9,,,,,,4,,38,100
248828,note_off,,,,,0,0,9,,,,,,4,,50,0
248828,note_off,,,,,92,0,9,,,,,,4,,38,0
248832,note_on,,,,,100,0,8,,,,,,4,,64,100
248832,note_on,,,,,0,0,8,,,,,,4,,65,100
248924,note_off,,,,,92,0,8,,,,,,4,,64,0
248924,note_off,,,,,0,0,8,,,,,,4,,65,0
248928,note_on,,,,,0,0,9,,,,,,4,,50,100
248928,note_on,,,,,100,0,9,,,,,,4,,38,100
249020,note_off,,,,,92,0,9,,,,,,4,,38,0
249020,note_off,,,,,0,0,9,,,,,,4,,50,0
249024,note_on,,,,,0,0,8,,,,,,4,,65,100
249024,note_on,,,,,100,0,8,,,,,,4,,64,100
249116,note_off,,,,,0,0,8,,,,,,4,,65,0
249116,note_off,,,,,92,0,8,,,,,,4,,64,0
249120,note_on,,,,,100,0,9,,,,,,4,,38,100
249120,note_on,,,,,0,0,9,,,,,,4,,50,100
249212,note_off,,,,,0,0,9,,,,,,4,,50,0
249212,note_off,,,,,92,0,9,,,,,,4,,38,0
249216,note_on,,,,,100,0,8,,,,,,4,,62,100
249216,note_on,,,,,0,0,8,,,,,,4,,65,100
249308,note_off,,,,,92,0,8,,,,,,4,,62,0
249308,note_off,,,,,0,0,8,,,,,,4,,65,0
249312,note_on,,,,,100,0,9,,,,,,4,,38,100
249312,note_on,,,,,0,0,9,,,,,,4,,50,100
249404,note_off,,,,,92,0,9,,,,,,4,,38,0
249404,note_off,,,,,0,0,9,,,,,,4,,50,0
249408,note_on,,,,,100,0,8,,,,,,4,,62,100
249408,note_on,,,,,0,0,8,,,,,,4,,65,100
249500,note_off,,,,,92,0,8,,,,,,4,,62,0
249500,note_off,,,,,0,0,8,,,,,,4,,65,0
249504,note_on,,,,,100,0,9,,,,,,4,,38,100
249504,note_on,,,,,0,0,9,,,,,,4,,50,100
249596,note_off,,,,,92,0,9,,,,,,4,,38,0
249596,note_off,,,,,0,0,9,,,,,,4,,50,0
249600,note_on,,,,,0,0,8,,,,,,4,,64,100
249600,note_on,,,,,100,0,8,,,,,,4,,62,100
249692,note_off,,,,,92,0,8,,,,,,4,,62,0
249692,note_off,,,,,0,0,8,,,,,,4,,64,0
249696,note_on,,,,,100,0,9,,,,,,4,,38,100
249696,note_on,,,,,0,0,9,,,,,,4,,50,100
249788,note_off,,,,,0,0,9,,,,,,4,,50,0
249788,note_off,,,,,92,0,9,,,,,,4,,38,0
249792,note_on,,,,,100,0,8,,,,,,4,,62,100
249792,note_on,,,,,0,0,8,,,,,,4,,64,100
249884,note_off,,,,,92,0,8,,,,,,4,,62,0
249884,note_off,,,,,0,0,8,,,,,,4,,64,0
249888,note_on,,,,,100,0,9,,,,,,4,,38,100
249888,note_on,,,,,0,0,9,,,,,,4,,50,100
249980,note_off,,,,,92,0,9,,,,,,4,,38,0
249980,note_off,,,,,0,0,9,,,,,,4,,50,0
249984,note_on,,,,,0,0,8,,,,,,4,,64,100
249984,note_on,,,,,100,0,8,,,,,,4,,61,100
250076,note_off,,,,,0,0,8,,,,,,4,,64,0
250076,note_off,,,,,92,0,8,,,,,,4,,61,0
250080,note_on,,,,,100,0,9,,,,,,4,,38,100
250080,note_on,,,,,0,0,9,,,,,,4,,50,100
250172,note_off,,,,,92,0,9,,,,,,4,,38,0
250172,note_off,,,,,0,0,9,,,,,,4,,50,0
250176,note_on,,,,,100,0,8,,,,,,4,,61,100
250176,note_on,,,,,0,0,8,,,,,,4,,64,100
250268,note_off,,,,,0,0,8,,,,,,4,,64,0
250268,note_off,,,,,92,0,8,,,,,,4,,61,0
250272,note_on,,,,,100,0,9,,,,,,4,,38,100
250272,note_on,,,,,0,0,9,,,,,,4,,50,100
250364,note_off,,,,,0,0,9,,,,,,4,,50,0
250364,note_off,,,,,92,0,9,,,,,,4,,38,0
250368,note_on,,,,,100,0,8,,,,,,4,,60,100
250368,note_on,,,,,0,0,8,,,,,,4,,66,100
250460,note_off,,,,,92,0,8,,,,,,4,,60,0
250460,note_off,,,,,0,0,8,,,,,,4,,66,0
250464,note_on,,,,,100,0,9,,,,,,4,,38,100
250464,note_on,,,,,0,0,9,,,,,,4,,50,100
250556,note_off,,,,,92,0,9,,,,,,4,,38,0
250556,note_off,,,,,0,0,9,,,,,,4,,50,0
250560,note_on,,,,,100,0,8,,,,,,4,,60,100
250560,note_on,,,,,0,0,8,,,,,,4,,66,100
250652,note_off,,,,,0,0,8,,,,,,4,,66,0
250652,note_off,,,,,92,0,8,,,,,,4,,60,0
250656,note_on,,,,,100,0,9,,,,,,4,,38,100
250656,note_on,,,,,0,0,9,,,,,,4,,50,100
250748,note_off,,,,,92,0,9,,,,,,4,,38,0
250748,note_off,,,,,0,0,9,,,,,,4,,50,0
250752,note_on,,,,,0,0,8,,,,,,4,,67,100
250752,note_on,,,,,100,0,8,,,,,,4,,59,100
250844,note_off,,,,,0,0,8,,,,,,4,,67,0
250844,note_off,,,,,92,0,8,,,,,,4,,59,0
250848,note_on,,,,,100,0,9,,,,,,4,,38,100
250848,note_on,,,,,0,0,9,,,,,,4,,50,100
250940,note_off,,,,,0,0,9,,,,,,4,,50,0
250940,note_off,,,,,92,0,9,,,,,,4,,38,0
250944,note_on,,,,,100,0,8,,,,,,4,,59,100
250944,note_on,,,,,0,0,8,,,,,,4,,67,100
251036,note_off,,,,,92,0,8,,,,,,4,,59,0
251036,note_off,,,,,0,0,8,,,,,,4,,67,0
251040,note_on,,,,,100,0,9,,,,,,4,,38,100
251040,note_on,,,,,0,0,9,,,,,,4,,50,100
251132,note_off,,,,,0,0,9,,,,,,4,,50,0
251132,note_off,,,,,92,0,9,,,,,,4,,38,0
251136,note_on,,,,,100,0,8,,,,,,4,,58,100
251136,note_on,,,,,0,0,8,,,,,,4,,64,100
251228,note_off,,,,,92,0,8,,,,,,4,,58,0
251228,note_off,,,,,0,0,8,,,,,,4,,64,0
251232,note_on,,,,,0,0,9,,,,,,4,,50,100
251232,note_on,,,,,100,0,9,,,,,,4,,38,100
251324,note_off,,,,,0,0,9,,,,,,4,,50,0
251324,note_off,,,,,92,0,9,,,,,,4,,38,0
251328,note_on,,,,,0,0,8,,,,,,4,,64,100
251328,note_on,,,,,100,0,8,,,,,,4,,58,100
251420,note_off,,,,,0,0,8,,,,,,4,,64,0
251420,note_off,,,,,92,0,8,,,,,,4,,58,0
251424,note_on,,,,,100,0,9,,,,,,4,,38,100
251424,note_on,,,,,0,0,9,,,,,,4,,50,100
251516,note_off,,,,,0,0,9,,,,,,4,,50,0
251516,note_off,,,,,92,0,9,,,,,,4,,38,0
251520,note_on,,,,,0,0,8,,,,,,4,,65,100
251520,note_on,,,,,100,0,8,,,,,,4,,57,100
251612,note_off,,,,,0,0,8,,,,,,4,,65,0
251612,note_off,,,,,92,0,8,,,,,,4,,57,0
251616,note_on,,,,,100,0,9,,,,,,4,,38,100
251616,note_on,,,,,0,0,9,,,,,,4,,50,100
251708,note_off,,,,,92,0,9,,,,,,4,,38,0
251708,note_off,,,,,0,0,9,,,,,,4,,50,0
251712,note_on,,,,,100,0,8,,,,,,4,,57,100
251712,note_on,,,,,0,0,8,,,,,,4,,65,100
251804,note_off,,,,,92,0,8,,,,,,4,,57,0
251804,note_off,,,,,0,0,8,,,,,,4,,65,0
251808,note_on,,,,,0,0,9,,,,,,4,,50,100
251808,note_on,,,,,100,0,9,,,,,,4,,38,100
251900,note_off,,,,,92,0,9,,,,,,4,,38,0
251900,note_off,,,,,0,0,9,,,,,,4,,50,0
251904,note_on,,,,,100,0,8,,,,,,4,,56,100
251904,note_on,,,,,0,0,8,,,,,,4,,62,100
251996,note_off,,,,,0,0,8,,,,,,4,,62,0
251996,note_off,,,,,92,0,8,,,,,,4,,56,0
252000,note_on,,,,,0,0,9,,,,,,4,,50,100
252000,note_on,,,,,100,0,9,,,,,,4,,38,100
252092,note_off,,,,,0,0,9,,,,,,4,,50,0
252092,note_off,,,,,92,0,9,,,,,,4,,38,0
252096,note_on,,,,,0,0,8,,,,,,4,,62,100
252096,note_on,,,,,100,0,8,,,,,,4,,56,100
252188,note_off,,,,,92,0,8,,,,,,4,,56,0
252188,note_off,,,,,0,0,8,,,,,,4,,62,0
252192,note_on,,,,,0,0,9,,,,,,4,,50,100
252192,note_on,,,,,100,0,9,,,,,,4,,38,100
252284,note_off,,,,,0,0,9,,,,,,4,,50,0
252284,note_off,,,,,92,0,9,,,,,,4,,38,0
252288,note_on,,,,,100,0,8,,,,,,4,,55,100
252288,note_on,,,,,0,0,8,,,,,,4,,63,100
252380,note_off,,,,,0,0,8,,,,,,4,,63,0
252380,note_off,,,,,92,0,8,,,,,,4,,55,0
252384,note_on,,,,,100,0,9,,,,,,4,,38,100
252384,note_on,,,,,0,0,9,,,,,,4,,50,100
252476,note_off,,,,,92,0,9,,,,,,4,,38,0
252476,note_off,,,,,0,0,9,,,,,,4,,50,0
252480,note_on,,,,,100,0,8,,,,,,4,,55,100
252480,note_on,,,,,0,0,8,,,,,,4,,63,100
252572,note_off,,,,,92,0,8,,,,,,4,,55,0
252572,note_off,,,,,0,0,8,,,,,,4,,63,0
252576,note_on,,,,,0,0,9,,,,,,4,,50,100
252576,note_on,,,,,100,0,9,,,,,,4,,38,100
252668,note_off,,,,,92,0,9,,,,,,4,,38,0
252668,note_off,,,,,0,0,9,,,,,,4,,50,0
252672,note_on,,,,,100,0,8,,,,,,4,,55,100
252672,note_on,,,,,0,0,8,,,,,,4,,61,100
252764,note_off,,,,,0,0,8,,,,,,4,,61,0
252764,note_off,,,,,92,0,8,,,,,,4,,55,0
252768,note_on,,,,,0,0,9,,,,,,4,,50,100
252768,note_on,,,,,100,0,9,,,,,,4,,38,100
252860,note_off,,,,,0,0,9,,,,,,4,,50,0
252860,note_off,,,,,92,0,9,,,,,,4,,38,0
252864,note_on,,,,,0,0,8,,,,,,4,,61,100
252864,note_on,,,,,100,0,8,,,,,,4,,55,100
252956,note_off,,,,,0,0,8,,,,,,4,,61,0
252956,note_off,,,,,92,0,8,,,,,,4,,55,0
252960,note_on,,,,,0,0,9,,,,,,4,,50,100
252960,note_on,,,,,100,0,9,,,,,,4,,38,100
253052,note_off,,,,,0,0,9,,,,,,4,,50,0
253052,note_off,,,,,92,0,9,,,,,,4,,38,0
253056,note_on,,,,,100,0,8,,,,,,4,,53,100
253056,note_on,,,,,0,0,8,,,,,,4,,62,100
253148,note_off,,,,,92,0,8,,,,,,4,,53,0
253148,note_off,,,,,0,0,8,,,,,,4,,62,0
253152,note_on,,,,,100,0,9,,,,,,4,,38,100
253152,note_on,,,,,0,0,9,,,,,,4,,50,100
253244,note_off,,,,,92,0,9,,,,,,4,,38,0
253244,note_off,,,,,0,0,9,,,,,,4,,50,0
253248,note_on,,,,,0,0,8,,,,,,4,,62,100
253248,note_on,,,,,100,0,8,,,,,,4,,53,100
253340,note_off,,,,,0,0,8,,,,,,4,,62,0
253340,note_off,,,,,92,0,8,,,,,,4,,53,0
253344,note_on,,,,,100,0,9,,,,,,4,,38,100
253344,note_on,,,,,0,0,9,,,,,,4,,50,100
253436,note_off,,,,,0,0,9,,,,,,4,,50,0
253436,note_off,,,,,92,0,9,,,,,,4,,38,0
253440,note_on,,,,,4,0,9,,,,,,4,,50,100
253440,note_on,,,,,0,0,9,,,,,,4,,44,100
253532,note_off,,,,,0,0,9,,,,,,4,,44,0
253532,note_off,,,,,92,0,9,,,,,,4,,50,0
253536,note_on,,,,,4,0,9,,,,,,4,,52,100
253628,note_off,,,,,92,0,9,,,,,,4,,52,0
253632,note_on,,,,,13636,0,6,,,,,,3,,44,85
253632,note_on,,,,,4,0,9,,,,,,4,,53,100
253632,note_on,,,,,13636,0,7,,,,,,3,,32,85
253724,note_off,,,,,92,0,9,,,,,,4,,53,0
253728,note_on,,,,,4,0,9,,,,,,4,,59,100
253764,note_off,,,,,132,0,7,,,,,,3,,32,0
253764,note_off,,,,,132,0,6,,,,,,3,,44,0
253820,note_off,,,,,92,0,9,,,,,,4,,59,0
253824,note_on,,,,,60,0,6,,,,,,3,,44,85
253824,note_on,,,,,60,0,7,,,,,,3,,32,85
253824,note_on,,,,,4,0,9,,,,,,4,,62,100
253916,note_off,,,,,92,0,9,,,,,,4,,62,0
253920,note_on,,,,,4,0,9,,,,,,4,,57,100
253956,note_off,,,,,132,0,7,,,,,,3,,32,0
253956,note_off,,,,,132,0,6,,,,,,3,,44,0
254012,note_off,,,,,92,0,9,,,,,,4,,57,0
254016,note_on,,,,,14020,0,3,,,,,,0,,74,85
254016,note_on,,,,,14020,0,5,,,,,,2,,59,85
254016,note_on,,,,,4,0,9,,,,,,4,,59,100
254016,note_on,,,,,14020,0,4,,,,,,1,,65,85
254108,note_off,,,,,92,0,9,,,,,,4,,59,0
254112,note_on,,,,,4,0,9,,,,,,4,,56,100
254148,note_off,,,,,132,0,5,,,,,,2,,59,0
254148,note_off,,,,,132,0,4,,,,,,1,,65,0
254148,note_off,,,,,132,0,3,,,,,,0,,74,0
254204,note_off,,,,,92,0,9,,,,,,4,,56,0
254208,note_on,,,,,0,0,9,,,,,,4,,44,100
254208,note_on,,,,,4,0,9,,,,,,4,,50,100
254208,note_on,,,,,60,0,4,,,,,,1,,65,85
254208,note_on,,,,,60,0,5,,,,,,2,,59,85
254208,note_on,,,,,60,0,3,,,,,,0,,74,85
254300,note_off,,,,,0,0,9,,,,,,4,,44,0
254300,note_off,,,,,92,0,9,,,,,,4,,50,0
254304,note_on,,,,,4,0,9,,,,,,4,,52,100
254340,note_off,,,,,132,0,3,,,,,,0,,74,0
254340,note_off,,,,,132,0,4,,,,,,1,,65,0
254340,note_off,,,,,132,0,5,,,,,,2,,59,0
254396,note_off,,,,,92,0,9,,,,,,4,,52,0
254400,note_on,,,,,4,0,9,,,,,,4,,53,100
254400,note_on,,,,,444,0,7,,,,,,3,,32,85
254400,note_on,,,,,444,0,6,,,,,,3,,44,85
254492,note_off,,,,,92,0,9,,,,,,4,,53,0
254496,note_on,,,,,4,0,9,,,,,,4,,59,100
254532,note_off,,,,,132,0,7,,,,,,3,,32,0
254532,note_off,,,,,132,0,6,,,,,,3,,44,0
254588,note_off,,,,,92,0,9,,,,,,4,,59,0
254592,note_on,,,,,60,0,6,,,,,,3,,44,85
254592,note_on,,,,,4,0,9,,,,,,4,,62,100
254592,note_on,,,,,60,0,7,,,,,,3,,32,85
254684,note_off,,,,,92,0,9,,,,,,4,,62,0
254688,note_on,,,,,4,0,9,,,,,,4,,59,100
254724,note_off,,,,,132,0,7,,,,,,3,,32,0
254724,note_off,,,,,132,0,6,,,,,,3,,44,0
254780,note_off,,,,,92,0,9,,,,,,4,,59,0
254784,note_on,,,,,444,0,4,,,,,,1,,64,85
254784,note_on,,,,,4,0,9,,,,,,4,,56,100
254784,note_on,,,,,444,0,5,,,,,,2,,59,85
254784,note_on,,,,,444,0,3,,,,,,0,,74,85
254876,note_off,,,,,92,0,9,,,,,,4,,56,0
254880,note_on,,,,,4,0,9,,,,,,4,,52,100
254916,note_off,,,,,132,0,3,,,,,,0,,74,0
254916,note_off,,,,,132,0,4,,,,,,1,,64,0
254916,note_off,,,,,132,0,5,,,,,,2,,59,0
254972,note_off,,,,,92,0,9,,,,,,4,,52,0
254976,note_on,,,,,0,0,9,,,,,,4,,45,100
254976,note_on,,,,,4,0,9,,,,,,4,,53,100
254976,note_on,,,,,60,0,4,,,,,,1,,57,85
254976,note_on,,,,,60,0,3,,,,,,0,,74,85
254976,note_on,,,,,60,0,5,,,,,,2,,65,85
255068,note_off,,,,,92,0,9,,,,,,4,,53,0
255068,note_off,,,,,0,0,9,,,,,,4,,45,0
255072,note_on,,,,,4,0,9,,,,,,4,,55,100
255108,note_off,,,,,132,0,5,,,,,,2,,65,0
255108,note_off,,,,,132,0,4,,,,,,1,,57,0
255108,note_off,,,,,132,0,3,,,,,,0,,74,0
255164,note_off,,,,,92,0,9,,,,,,4,,55,0
255168,note_on,,,,,4,0,9,,,,,,4,,57,100
255168,note_on,,,,,444,0,6,,,,,,3,,45,85
255168,note_on,,,,,444,0,7,,,,,,3,,33,85
255260,note_off,,,,,92,0,9,,,,,,4,,57,0
255264,note_on,,,,,4,0,9,,,,,,4,,61,100
255300,note_off,,,,,132,0,7,,,,,,3,,33,0
255300,note_off,,,,,132,0,6,,,,,,3,,45,0
255356,note_off,,,,,92,0,9,,,,,,4,,61,0
255360,note_on,,,,,4,0,9,,,,,,4,,62,100
255360,note_on,,,,,60,0,7,,,,,,3,,33,85
255360,note_on,,,,,60,0,6,,,,,,3,,45,85
255452,note_off,,,,,92,0,9,,,,,,4,,62,0
255456,note_on,,,,,4,0,9,,,,,,4,,57,100
255492,note_off,,,,,132,0,6,,,,,,3,,45,0
255492,note_off,,,,,132,0,7,,,,,,3,,33,0
255548,note_off,,,,,92,0,9,,,,,,4,,57,0
255552,note_on,,,,,444,0,4,,,,,,1,,65,85
255552,note_on,,,,,444,0,5,,,,,,2,,62,85
255552,note_on,,,,,444,0,3,,,,,,0,,74,85
255552,note_on,,,,,4,0,9,,,,,,4,,58,100
255644,note_off,,,,,92,0,9,,,,,,4,,58,0
255648,note_on,,,,,4,0,9,,,,,,4,,55,100
255684,note_off,,,,,132,0,3,,,,,,0,,74,0
255684,note_off,,,,,132,0,5,,,,,,2,,62,0
255684,note_off,,,,,132,0,4,,,,,,1,,65,0
255740,note_off,,,,,92,0,9,,,,,,4,,55,0
255744,note_on,,,,,60,0,5,,,,,,2,,62,85
255744,note_on,,,,,60,0,4,,,,,,1,,65,85
255744,note_on,,,,,60,0,3,,,,,,0,,74,85
255744,note_on,,,,,0,0,9,,,,,,4,,45,100
255744,note_on,,,,,4,0,9,,,,,,4,,53,100
255836,note_off,,,,,0,0,9,,,,,,4,,45,0
255836,note_off,,,,,92,0,9,,,,,,4,,53,0
255840,note_on,,,,,4,0,9,,,,,,4,,55,100
255876,note_off,,,,,132,0,5,,,,,,2,,62,0
255876,note_off,,,,,132,0,4,,,,,,1,,65,0
255876,note_off,,,,,132,0,3,,,,,,0,,74,0
255932,note_off,,,,,92,0,9,,,,,,4,,55,0
255936,note_on,,,,,4,0,9,,,,,,4,,57,100
255936,note_on,,,,,444,0,7,,,,,,3,,33,85
255936,note_on,,,,,444,0,6,,,,,,3,,45,85
256028,note_off,,,,,92,0,9,,,,,,4,,57,0
256032,note_on,,,,,4,0,9,,,,,,4,,61,100
256068,note_off,,,,,132,0,6,,,,,,3,,45,0
256068,note_off,,,,,132,0,7,,,,,,3,,33,0
256124,note_off,,,,,92,0,9,,,,,,4,,61,0
256128,note_on,,,,,4,0,9,,,,,,4,,62,100
256128,note_on,,,,,60,0,7,,,,,,3,,33,85
256128,note_on,,,,,60,0,6,,,,,,3,,45,85
256220,note_off,,,,,92,0,9,,,,,,4,,62,0
256224,note_on,,,,,4,0,9,,,,,,4,,57,100
256260,note_off,,,,,132,0,7,,,,,,3,,33,0
256260,note_off,,,,,132,0,6,,,,,,3,,45,0
256316,note_off,,,,,92,0,9,,,,,,4,,57,0
256320,note_on,,,,,444,0,5,,,,,,2,,62,85
256320,note_on,,,,,444,0,4,,,,,,1,,65,85
256320,note_on,,,,,444,0,3,,,,,,0,,74,85
256320,note_on,,,,,4,0,9,,,,,,4,,53,100
256412,note_off,,,,,92,0,9,,,,,,4,,53,0
256416,note_on,,,,,4,0,9,,,,,,4,,50,100
256452,note_off,,,,,132,0,4,,,,,,1,,65,0
256452,note_off,,,,,132,0,3,,,,,,0,,74,0
256452,note_off,,,,,132,0,5,,,,,,2,,62,0
256508,note_off,,,,,92,0,9,,,,,,4,,50,0
256512,note_on,,,,,4,0,9,,,,,,4,,52,100
256512,note_on,,,,,60,0,3,,,,,,0,,74,85
256512,note_on,,,,,0,0,9,,,,,,4,,46,100
256512,note_on,,,,,60,0,4,,,,,,1,,67,85
256512,note_on,,,,,60,0,5,,,,,,2,,64,85
256604,note_off,,,,,0,0,9,,,,,,4,,46,0
256604,note_off,,,,,92,0,9,,,,,,4,,52,0
256608,note_on,,,,,4,0,9,,,,,,4,,53,100
256644,note_off,,,,,132,0,4,,,,,,1,,67,0
256644,note_off,,,,,132,0,3,,,,,,0,,74,0
256644,note_off,,,,,132,0,5,,,,,,2,,64,0
256700,note_off,,,,,92,0,9,,,,,,4,,53,0
256704,note_on,,,,,444,0,6,,,,,,3,,46,85
256704,note_on,,,,,4,0,9,,,,,,4,,55,100
256704,note_on,,,,,444,0,7,,,,,,3,,34,85
256796,note_off,,,,,92,0,9,,,,,,4,,55,0
256800,note_on,,,,,4,0,9,,,,,,4,,61,100
256836,note_off,,,,,132,0,6,,,,,,3,,46,0
256836,note_off,,,,,132,0,7,,,,,,3,,34,0
256892,note_off,,,,,92,0,9,,,,,,4,,61,0
256896,note_on,,,,,4,0,9,,,,,,4,,62,100
256896,note_on,,,,,60,0,7,,,,,,3,,34,85
256896,note_on,,,,,60,0,6,,,,,,3,,46,85
256988,note_off,,,,,92,0,9,,,,,,4,,62,0
256992,note_on,,,,,4,0,9,,,,,,4,,57,100
257028,note_off,,,,,132,0,6,,,,,,3,,46,0
257028,note_off,,,,,132,0,7,,,,,,3,,34,0
257084,note_off,,,,,92,0,9,,,,,,4,,57,0
257088,note_on,,,,,4,0,9,,,,,,4,,58,100
257088,note_on,,,,,444,0,5,,,,,,2,,55,85
257088,note_on,,,,,444,0,4,,,,,,1,,64,85
257088,note_on,,,,,444,0,3,,,,,,0,,74,85
257180,note_off,,,,,92,0,9,,,,,,4,,58,0
257184,note_on,,,,,4,0,9,,,,,,4,,55,100
257220,note_off,,,,,132,0,5,,,,,,2,,55,0
257220,note_off,,,,,132,0,3,,,,,,0,,74,0
257220,note_off,,,,,132,0,4,,,,,,1,,64,0
257276,note_off,,,,,92,0,9,,,,,,4,,55,0
257280,note_on,,,,,60,0,5,,,,,,2,,55,85
257280,note_on,,,,,60,0,3,,,,,,0,,74,85
257280,note_on,,,,,0,0,9,,,,,,4,,46,100
257280,note_on,,,,,4,0,9,,,,,,4,,52,100
257280,note_on,,,,,60,0,4,,,,,,1,,64,85
257372,note_off,,,,,92,0,9,,,,,,4,,52,0
257372,note_off,,,,,0,0,9,,,,,,4,,46,0
257376,note_on,,,,,4,0,9,,,,,,4,,53,100
257412,note_off,,,,,132,0,4,,,,,,1,,64,0
257412,note_off,,,,,132,0,5,,,,,,2,,55,0
257412,note_off,,,,,132,0,3,,,,,,0,,74,0
257468,note_off,,,,,92,0,9,,,,,,4,,53,0
257472,note_on,,,,,444,0,7,,,,,,3,,34,85
257472,note_on,,,,,4,0,9,,,,,,4,,55,100
257472,note_on,,,,,444,0,6,,,,,,3,,46,85
257564,note_off,,,,,92,0,9,,,,,,4,,55,0
257568,note_on,,,,,4,0,9,,,,,,4,,61,100
257604,note_off,,,,,132,0,6,,,,,,3,,46,0
257604,note_off,,,,,132,0,7,,,,,,3,,34,0
257660,note_off,,,,,92,0,9,,,,,,4,,61,0
257664,note_on,,,,,60,0,6,,,,,,3,,46,85
257664,note_on,,,,,4,0,9,,,,,,4,,62,100
257664,note_on,,,,,60,0,7,,,,,,3,,34,85
257756,note_off,,,,,92,0,9,,,,,,4,,62,0
257760,note_on,,,,,4,0,9,,,,,,4,,58,100
257796,note_off,,,,,132,0,7,,,,,,3,,34,0
257796,note_off,,,,,132,0,6,,,,,,3,,46,0
257852,note_off,,,,,92,0,9,,,,,,4,,58,0
257856,note_on,,,,,444,0,3,,,,,,0,,74,85
257856,note_on,,,,,444,0,4,,,,,,1,,67,85
257856,note_on,,,,,444,0,5,,,,,,2,,52,85
257856,note_on,,,,,4,0,9,,,,,,4,,55,100
257948,note_off,,,,,92,0,9,,,,,,4,,55,0
257952,note_on,,,,,4,0,9,,,,,,4,,52,100
257988,note_off,,,,,132,0,4,,,,,,1,,67,0
257988,note_off,,,,,132,0,3,,,,,,0,,74,0
257988,note_off,,,,,132,0,5,,,,,,2,,52,0
258044,note_off,,,,,92,0,9,,,,,,4,,52,0
258048,note_on,,,,,4,0,9,,,,,,4,,53,100
258048,note_on,,,,,0,0,9,,,,,,4,,45,100
258048,note_on,,,,,60,0,5,,,,,,2,,53,85
258048,note_on,,,,,60,0,3,,,,,,0,,74,85
258048,note_on,,,,,60,0,4,,,,,,1,,69,85
258140,note_off,,,,,92,0,9,,,,,,4,,53,0
258140,note_off,,,,,0,0,9,,,,,,4,,45,0
258144,note_on,,,,,4,0,9,,,,,,4,,52,100
258180,note_off,,,,,132,0,5,,,,,,2,,53,0
258180,note_off,,,,,132,0,3,,,,,,0,,74,0
258180,note_off,,,,,132,0,4,,,,,,1,,69,0
258236,note_off,,,,,92,0,9,,,,,,4,,52,0
258240,note_on,,,,,4,0,9,,,,,,4,,53,100
258240,note_on,,,,,444,0,7,,,,,,3,,33,85
258240,note_on,,,,,444,0,6,,,,,,3,,45,85
258332,note_off,,,,,92,0,9,,,,,,4,,53,0
258336,note_on,,,,,4,0,9,,,,,,4,,57,100
258372,note_off,,,,,132,0,7,,,,,,3,,33,0
258372,note_off,,,,,132,0,6,,,,,,3,,45,0
258428,note_off,,,,,92,0,9,,,,,,4,,57,0
258432,note_on,,,,,60,0,7,,,,,,3,,33,85
258432,note_on,,,,,60,0,6,,,,,,3,,45,85
258432,note_on,,,,,4,0,9,,,,,,4,,62,100
258524,note_off,,,,,92,0,9,,,,,,4,,62,0
258528,note_on,,,,,4,0,9,,,,,,4,,57,100
258564,note_off,,,,,132,0,6,,,,,,3,,45,0
258564,note_off,,,,,132,0,7,,,,,,3,,33,0
258620,note_off,,,,,92,0,9,,,,,,4,,57,0
258624,note_on,,,,,444,0,5,,,,,,2,,64,85
258624,note_on,,,,,444,0,4,,,,,,1,,67,85
258624,note_on,,,,,444,0,3,,,,,,0,,74,85
258624,note_on,,,,,4,0,9,,,,,,4,,58,100
258716,note_off,,,,,92,0,9,,,,,,4,,58,0
258720,note_on,,,,,4,0,9,,,,,,4,,55,100
258756,note_off,,,,,132,0,5,,,,,,2,,64,0
258756,note_off,,,,,132,0,3,,,,,,0,,74,0
258756,note_off,,,,,132,0,4,,,,,,1,,67,0
258812,note_off,,,,,92,0,9,,,,,,4,,55,0
258816,note_on,,,,,60,0,4,,,,,,1,,69,85
258816,note_on,,,,,60,0,3,,,,,,0,,74,85
258816,note_on,,,,,60,0,5,,,,,,2,,65,85
258816,note_on,,,,,4,0,9,,,,,,4,,53,100
258816,note_on,,,,,0,0,9,,,,,,4,,45,100
258908,note_off,,,,,0,0,9,,,,,,4,,45,0
258908,note_off,,,,,92,0,9,,,,,,4,,53,0
258912,note_on,,,,,4,0,9,,,,,,4,,52,100
258948,note_off,,,,,132,0,5,,,,,,2,,65,0
258948,note_off,,,,,132,0,4,,,,,,1,,69,0
258948,note_off,,,,,132,0,3,,,,,,0,,74,0
259004,note_off,,,,,92,0,9,,,,,,4,,52,0
259008,note_on,,,,,444,0,7,,,,,,3,,33,85
259008,note_on,,,,,4,0,9,,,,,,4,,53,100
259008,note_on,,,,,444,0,6,,,,,,3,,45,85
259100,note_off,,,,,92,0,9,,,,,,4,,53,0
259104,note_on,,,,,4,0,9,,,,,,4,,57,100
259140,note_off,,,,,132,0,7,,,,,,3,,33,0
259140,note_off,,,,,132,0,6,,,,,,3,,45,0
259196,note_off,,,,,92,0,9,,,,,,4,,57,0
259200,note_on,,,,,4,0,9,,,,,,4,,62,100
259200,note_on,,,,,60,0,7,,,,,,3,,33,85
259200,note_on,,,,,60,0,6,,,,,,3,,45,85
259292,note_off,,,,,92,0,9,,,,,,4,,62,0
259296,note_on,,,,,4,0,9,,,,,,4,,57,100
259332,note_off,,,,,132,0,7,,,,,,3,,33,0
259332,note_off,,,,,132,0,6,,,,,,3,,45,0
259388,note_off,,,,,92,0,9,,,,,,4,,57,0
259392,note_on,,,,,4,0,9,,,,,,4,,65,100
259392,note_on,,,,,444,0,3,,,,,,0,,74,85
259392,note_on,,,,,444,0,4,,,,,,1,,69,85
259392,note_on,,,,,444,0,5,,,,,,2,,65,85
259484,note_off,,,,,92,0,9,,,,,,4,,65,0
259488,note_on,,,,,4,0,9,,,,,,4,,62,100
259524,note_off,,,,,132,0,3,,,,,,0,,74,0
259524,note_off,,,,,132,0,4,,,,,,1,,69,0
259524,note_off,,,,,132,0,5,,,,,,2,,65,0
259572,set_tempo,,,,,82104,1,0,,582524,,,,,,,
259576,set_tempo,,,,,4,1,0,,588235,,,,,,,
259580,note_off,,,,,92,0,9,,,,,,4,,62,0
259584,note_on,,,,,60,0,4,,,,,,1,,71,85
259584,note_on,,,,,4,0,9,,,,,,4,,56,100
259584,note_on,,,,,60,0,3,,,,,,0,,74,85
259584,note_on,,,,,252,0,7,,,,,,3,,32,85
259584,note_on,,,,,60,0,5,,,,,,2,,65,85
259584,note_on,,,,,252,0,6,,,,,,3,,44,85
259588,set_tempo,,,,,12,1,0,,612244,,,,,,,
259592,set_tempo,,,,,4,1,0,,618556,,,,,,,
259608,set_tempo,,,,,16,1,0,,625000,,,,,,,
259620,set_tempo,,,,,12,1,0,,645161,,,,,,,
259628,note_off,,,,,44,0,9,,,,,,4,,56,0
259632,note_on,,,,,4,0,9,,,,,,4,,62,100
259668,set_tempo,,,,,48,1,0,,645161,,,,,,,
259676,note_off,,,,,44,0,9,,,,,,4,,62,0
259680,note_on,,,,,6340,0,8,,,,,,4,,64,100
259684,set_tempo,,,,,16,1,0,,645161,,,,,,,
259696,set_tempo,,,,,12,1,0,,638297,,,,,,,
259724,note_off,,,,,44,0,8,,,,,,4,,64,0
259728,note_on,,,,,4,0,8,,,,,,4,,65,100
259768,set_tempo,,,,,72,1,0,,645161,,,,,,,
259772,note_off,,,,,44,0,8,,,,,,4,,65,0
259776,note_on,,,,,4,0,8,,,,,,4,,71,100
259780,set_tempo,,,,,12,1,0,,638297,,,,,,,
259812,set_tempo,,,,,32,1,0,,625000,,,,,,,
259820,note_off,,,,,44,0,8,,,,,,4,,71,0
259824,note_on,,,,,4,0,8,,,,,,4,,65,100
259844,set_tempo,,,,,32,1,0,,625000,,,,,,,
259856,set_tempo,,,,,12,1,0,,618556,,,,,,,
259868,note_off,,,,,44,0,8,,,,,,4,,65,0
259872,note_on,,,,,4,0,8,,,,,,4,,64,100
259896,set_tempo,,,,,40,1,0,,625000,,,,,,,
259916,note_off,,,,,44,0,8,,,,,,4,,64,0
259920,note_on,,,,,244,0,9,,,,,,4,,62,100
259952,set_tempo,,,,,56,1,0,,618556,,,,,,,
259964,note_off,,,,,44,0,9,,,,,,4,,62,0
259968,note_on,,,,,4,0,9,,,,,,4,,56,100
260012,note_off,,,,,44,0,9,,,,,,4,,56,0
260016,note_on,,,,,4,0,9,,,,,,4,,62,100
260060,note_off,,,,,44,0,9,,,,,,4,,62,0
260064,note_on,,,,,148,0,8,,,,,,4,,64,100
260108,note_off,,,,,44,0,8,,,,,,4,,64,0
260112,note_on,,,,,4,0,8,,,,,,4,,65,100
260156,note_off,,,,,44,0,8,,,,,,4,,65,0
260160,note_on,,,,,4,0,8,,,,,,4,,71,100
260204,note_off,,,,,44,0,8,,,,,,4,,71,0
260208,note_on,,,,,4,0,8,,,,,,4,,65,100
260240,set_tempo,,,,,288,1,0,,625000,,,,,,,
260248,set_tempo,,,,,8,1,0,,625000,,,,,,,
260252,note_off,,,,,44,0,8,,,,,,4,,65,0
260256,note_on,,,,,4,0,8,,,,,,4,,64,100
260260,set_tempo,,,,,12,1,0,,638297,,,,,,,
260276,set_tempo,,,,,16,1,0,,645161,,,,,,,
260300,note_off,,,,,44,0,8,,,,,,4,,64,0
260304,note_on,,,,,244,0,9,,,,,,4,,62,100
260324,set_tempo,,,,,48,1,0,,638297,,,,,,,
260336,set_tempo,,,,,12,1,0,,625000,,,,,,,
260344,set_tempo,,,,,8,1,0,,625000,,,,,,,
260348,note_off,,,,,764,0,5,,,,,,2,,65,0
260348,note_off,,,,,44,0,9,,,,,,4,,62,0
260352,note_on,,,,,4,0,5,,,,,,2,,64,85
260352,note_on,,,,,4,0,9,,,,,,4,,56,100
260360,set_tempo,,,,,16,1,0,,618556,,,,,,,
260396,note_off,,,,,44,0,9,,,,,,4,,56,0
260400,note_on,,,,,4,0,9,,,,,,4,,62,100
260420,set_tempo,,,,,60,1,0,,625000,,,,,,,
260444,note_off,,,,,44,0,9,,,,,,4,,62,0
260448,note_on,,,,,148,0,8,,,,,,4,,59,100
260452,set_tempo,,,,,32,1,0,,638297,,,,,,,
260492,note_off,,,,,44,0,8,,,,,,4,,59,0
260496,note_on,,,,,4,0,8,,,,,,4,,64,100
260532,set_tempo,,,,,80,1,0,,625000,,,,,,,
260540,note_off,,,,,44,0,8,,,,,,4,,64,0
260544,note_on,,,,,4,0,8,,,,,,4,,71,100
260588,note_off,,,,,44,0,8,,,,,,4,,71,0
260592,note_on,,,,,4,0,8,,,,,,4,,64,100
260600,set_tempo,,,,,68,1,0,,618556,,,,,,,
260636,note_off,,,,,44,0,8,,,,,,4,,64,0
260640,note_on,,,,,4,0,8,,,,,,4,,59,100
260684,note_off,,,,,44,0,8,,,,,,4,,59,0
260688,note_on,,,,,244,0,9,,,,,,4,,62,100
260732,note_off,,,,,44,0,9,,,,,,4,,62,0
260736,note_on,,,,,4,0,9,,,,,,4,,56,100
260780,note_off,,,,,44,0,9,,,,,,4,,56,0
260784,note_on,,,,,4,0,9,,,,,,4,,62,100
260828,note_off,,,,,44,0,9,,,,,,4,,62,0
260832,note_on,,,,,148,0,8,,,,,,4,,59,100
260876,note_off,,,,,44,0,8,,,,,,4,,59,0
260880,note_on,,,,,4,0,8,,,,,,4,,64,100
260924,note_off,,,,,44,0,8,,,,,,4,,64,0
260928,note_on,,,,,4,0,8,,,,,,4,,71,100
260972,note_off,,,,,44,0,8,,,,,,4,,71,0
260976,note_on,,,,,4,0,8,,,,,,4,,64,100
261020,note_off,,,,,44,0,8,,,,,,4,,64,0
261024,note_on,,,,,4,0,8,,,,,,4,,59,100
261068,note_off,,,,,44,0,8,,,,,,4,,59,0
261072,note_on,,,,,244,0,9,,,,,,4,,62,100
261116,note_off,,,,,44,0,9,,,,,,4,,62,0
261116,note_off,,,,,1532,0,4,,,,,,1,,71,0
261116,note_off,,,,,1532,0,3,,,,,,0,,74,0
261116,note_off,,,,,1532,0,7,,,,,,3,,32,0
261116,note_off,,,,,1532,0,6,,,,,,3,,44,0
261120,note_on,,,,,4,0,3,,,,,,0,,73,85
261120,note_on,,,,,4,0,7,,,,,,3,,33,85
261120,note_on,,,,,4,0,6,,,,,,3,,45,85
261120,note_on,,,,,4,0,9,,,,,,4,,55,100
261120,note_on,,,,,4,0,4,,,,,,1,,70,85
261164,note_off,,,,,44,0,9,,,,,,4,,55,0
261168,note_on,,,,,4,0,9,,,,,,4,,61,100
261212,note_off,,,,,44,0,9,,,,,,4,,61,0
261216,note_on,,,,,148,0,8,,,,,,4,,62,100
261260,note_off,,,,,44,0,8,,,,,,4,,62,0
261264,note_on,,,,,4,0,8,,,,,,4,,64,100
261308,note_off,,,,,44,0,8,,,,,,4,,64,0
261312,note_on,,,,,4,0,8,,,,,,4,,70,100
261356,note_off,,,,,44,0,8,,,,,,4,,70,0
261360,note_on,,,,,4,0,8,,,,,,4,,64,100
261404,note_off,,,,,44,0,8,,,,,,4,,64,0
261408,note_on,,,,,4,0,8,,,,,,4,,62,100
261452,note_off,,,,,44,0,8,,,,,,4,,62,0
261456,note_on,,,,,244,0,9,,,,,,4,,61,100
261500,note_off,,,,,44,0,9,,,,,,4,,61,0
261504,note_on,,,,,4,0,9,,,,,,4,,55,100
261508,set_tempo,,,,,908,1,0,,625000,,,,,,,
261520,set_tempo,,,,,12,1,0,,625000,,,,,,,
261536,set_tempo,,,,,16,1,0,,638297,,,,,,,
261544,set_tempo,,,,,8,1,0,,645161,,,,,,,
261548,note_off,,,,,44,0,9,,,,,,4,,55,0
261552,note_on,,,,,4,0,9,,,,,,4,,61,100
261584,set_tempo,,,,,40,1,0,,645161,,,,,,,
261596,note_off,,,,,44,0,9,,,,,,4,,61,0
261600,note_on,,,,,148,0,8,,,,,,4,,62,100
261608,set_tempo,,,,,24,1,0,,659340,,,,,,,
261644,note_off,,,,,44,0,8,,,,,,4,,62,0
261648,note_on,,,,,4,0,8,,,,,,4,,64,100
261692,note_off,,,,,44,0,8,,,,,,4,,64,0
261696,note_on,,,,,4,0,8,,,,,,4,,70,100
261696,set_tempo,,,,,88,1,0,,674157,,,,,,,
261740,note_off,,,,,44,0,8,,,,,,4,,70,0
261744,note_on,,,,,4,0,8,,,,,,4,,64,100
261788,note_off,,,,,44,0,8,,,,,,4,,64,0
261792,note_on,,,,,4,0,8,,,,,,4,,62,100
261808,set_tempo,,,,,112,1,0,,666666,,,,,,,
261836,note_off,,,,,44,0,8,,,,,,4,,62,0
261840,note_on,,,,,244,0,9,,,,,,4,,61,100
261848,set_tempo,,,,,40,1,0,,659340,,,,,,,
261884,note_off,,,,,44,0,9,,,,,,4,,61,0
261884,note_off,,,,,764,0,4,,,,,,1,,70,0
261888,note_on,,,,,4,0,9,,,,,,4,,55,100
261888,note_on,,,,,4,0,4,,,,,,1,,69,85
261912,set_tempo,,,,,64,1,0,,645161,,,,,,,
261928,set_tempo,,,,,16,1,0,,645161,,,,,,,
261932,note_off,,,,,44,0,9,,,,,,4,,55,0
261936,note_on,,,,,4,0,9,,,,,,4,,61,100
261968,set_tempo,,,,,40,1,0,,638297,,,,,,,
261976,set_tempo,,,,,8,1,0,,625000,,,,,,,
261980,note_off,,,,,44,0,9,,,,,,4,,61,0
261984,note_on,,,,,148,0,8,,,,,,4,,57,100
261988,set_tempo,,,,,12,1,0,,618556,,,,,,,
262008,set_tempo,,,,,20,1,0,,612244,,,,,,,
262016,set_tempo,,,,,8,1,0,,600000,,,,,,,
262024,set_tempo,,,,,8,1,0,,594059,,,,,,,
262028,note_off,,,,,44,0,8,,,,,,4,,57,0
262032,note_on,,,,,4,0,8,,,,,,4,,64,100
262032,set_tempo,,,,,8,1,0,,588235,,,,,,,
262040,set_tempo,,,,,8,1,0,,582524,,,,,,,
262076,note_off,,,,,44,0,8,,,,,,4,,64,0
262080,note_on,,,,,4,0,8,,,,,,4,,69,100
262088,set_tempo,,,,,48,1,0,,576923,,,,,,,
262124,note_off,,,,,44,0,8,,,,,,4,,69,0
262128,note_on,,,,,4,0,8,,,,,,4,,64,100
262172,note_off,,,,,44,0,8,,,,,,4,,64,0
262176,note_on,,,,,4,0,8,,,,,,4,,57,100
262220,note_off,,,,,44,0,8,,,,,,4,,57,0
262224,note_on,,,,,244,0,9,,,,,,4,,61,100
262268,note_off,,,,,44,0,9,,,,,,4,,61,0
262272,note_on,,,,,4,0,9,,,,,,4,,55,100
262316,note_off,,,,,44,0,9,,,,,,4,,55,0
262320,note_on,,,,,4,0,9,,,,,,4,,61,100
262360,set_tempo,,,,,272,1,0,,588235,,,,,,,
262364,note_off,,,,,44,0,9,,,,,,4,,61,0
262368,note_on,,,,,148,0,8,,,,,,4,,57,100
262412,note_off,,,,,44,0,8,,,,,,4,,57,0
262416,note_on,,,,,4,0,8,,,,,,4,,64,100
262424,set_tempo,,,,,64,1,0,,594059,,,,,,,
262456,set_tempo,,,,,32,1,0,,600000,,,,,,,
262460,note_off,,,,,44,0,8,,,,,,4,,64,0
262464,note_on,,,,,4,0,8,,,,,,4,,69,100
262480,set_tempo,,,,,24,1,0,,612244,,,,,,,
262508,note_off,,,,,44,0,8,,,,,,4,,69,0
262508,set_tempo,,,,,28,1,0,,618556,,,,,,,
262512,note_on,,,,,4,0,8,,,,,,4,,64,100
262536,set_tempo,,,,,28,1,0,,625000,,,,,,,
262556,note_off,,,,,44,0,8,,,,,,4,,64,0
262560,note_on,,,,,4,0,8,,,,,,4,,57,100
262572,set_tempo,,,,,36,1,0,,625000,,,,,,,
262604,note_off,,,,,44,0,8,,,,,,4,,57,0
262608,note_on,,,,,244,0,9,,,,,,4,,61,100
262648,set_tempo,,,,,76,1,0,,638297,,,,,,,
262652,note_off,,,,,1532,0,3,,,,,,0,,73,0
262652,note_off,,,,,2300,0,5,,,,,,2,,64,0
262652,note_off,,,,,764,0,4,,,,,,1,,69,0
262652,note_off,,,,,44,0,9,,,,,,4,,61,0
262656,note_on,,,,,4,0,4,,,,,,1,,69,85
262656,note_on,,,,,4,0,9,,,,,,4,,54,100
262656,set_tempo,,,,,8,1,0,,645161,,,,,,,
262656,note_on,,,,,4,0,3,,,,,,0,,74,85
262656,note_on,,,,,4,0,5,,,,,,2,,62,85
262680,set_tempo,,,,,24,1,0,,645161,,,,,,,
262700,note_off,,,,,44,0,9,,,,,,4,,54,0
262704,note_on,,,,,4,0,9,,,,,,4,,60,100
262748,note_off,,,,,44,0,9,,,,,,4,,60,0
262752,note_on,,,,,148,0,8,,,,,,4,,57,100
262796,note_off,,,,,44,0,8,,,,,,4,,57,0
262800,note_on,,,,,4,0,8,,,,,,4,,62,100
262844,note_off,,,,,44,0,8,,,,,,4,,62,0
262848,note_on,,,,,4,0,8,,,,,,4,,69,100
262892,note_off,,,,,44,0,8,,,,,,4,,69,0
262896,note_on,,,,,4,0,8,,,,,,4,,62,100
262940,note_off,,,,,44,0,8,,,,,,4,,62,0
262944,note_on,,,,,4,0,8,,,,,,4,,57,100
262988,note_off,,,,,44,0,8,,,,,,4,,57,0
262992,note_on,,,,,244,0,9,,,,,,4,,60,100
263036,note_off,,,,,44,0,9,,,,,,4,,60,0
263040,note_on,,,,,4,0,9,,,,,,4,,54,100
263044,set_tempo,,,,,364,1,0,,659340,,,,,,,
263076,set_tempo,,,,,32,1,0,,645161,,,,,,,
263084,note_off,,,,,44,0,9,,,,,,4,,54,0
263084,set_tempo,,,,,8,1,0,,645161,,,,,,,
263088,note_on,,,,,4,0,9,,,,,,4,,60,100
263096,set_tempo,,,,,12,1,0,,625000,,,,,,,
263108,set_tempo,,,,,12,1,0,,625000,,,,,,,
263112,set_tempo,,,,,4,1,0,,618556,,,,,,,
263120,set_tempo,,,,,8,1,0,,612244,,,,,,,
263128,set_tempo,,,,,8,1,0,,600000,,,,,,,
263132,note_off,,,,,44,0,9,,,,,,4,,60,0
263136,note_on,,,,,148,0,8,,,,,,4,,57,100
263180,set_tempo,,,,,52,1,0,,594059,,,,,,,
263180,note_off,,,,,44,0,8,,,,,,4,,57,0
263184,note_on,,,,,4,0,8,,,,,,4,,62,100
263208,set_tempo,,,,,28,1,0,,588235,,,,,,,
263212,set_tempo,,,,,4,1,0,,582524,,,,,,,
263216,set_tempo,,,,,4,1,0,,588235,,,,,,,
263220,set_tempo,,,,,4,1,0,,594059,,,,,,,
263228,note_off,,,,,44,0,8,,,,,,4,,62,0
263232,set_tempo,,,,,12,1,0,,600000,,,,,,,
263232,note_on,,,,,4,0,8,,,,,,4,,69,100
263236,set_tempo,,,,,4,1,0,,612244,,,,,,,
263276,note_off,,,,,44,0,8,,,,,,4,,69,0
263280,note_on,,,,,4,0,8,,,,,,4,,62,100
263324,note_off,,,,,44,0,8,,,,,,4,,62,0
263328,note_on,,,,,4,0,8,,,,,,4,,57,100
263352,set_tempo,,,,,116,1,0,,618556,,,,,,,
263372,note_off,,,,,44,0,8,,,,,,4,,57,0
263376,note_on,,,,,244,0,9,,,,,,4,,60,100
263384,set_tempo,,,,,32,1,0,,625000,,,,,,,
263420,note_off,,,,,44,0,9,,,,,,4,,60,0
263420,note_off,,,,,764,0,4,,,,,,1,,69,0
263424,note_on,,,,,4,0,4,,,,,,1,,71,85
263424,note_on,,,,,4,0,9,,,,,,4,,53,100
263428,set_tempo,,,,,44,1,0,,625000,,,,,,,
263468,note_off,,,,,44,0,9,,,,,,4,,53,0
263472,note_on,,,,,4,0,9,,,,,,4,,62,100
263516,note_off,,,,,44,0,9,,,,,,4,,62,0
263520,note_on,,,,,148,0,8,,,,,,4,,61,100
263564,note_off,,,,,44,0,8,,,,,,4,,61,0
263568,note_on,,,,,4,0,8,,,,,,4,,69,100
263612,note_off,,,,,44,0,8,,,,,,4,,69,0
263616,note_on,,,,,4,0,8,,,,,,4,,71,100
263660,note_off,,,,,44,0,8,,,,,,4,,71,0
263664,note_on,,,,,4,0,8,,,,,,4,,69,100
263708,note_off,,,,,44,0,8,,,,,,4,,69,0
263712,note_on,,,,,4,0,8,,,,,,4,,61,100
263756,note_off,,,,,44,0,8,,,,,,4,,61,0
263760,note_on,,,,,244,0,9,,,,,,4,,62,100
263804,note_off,,,,,44,0,9,,,,,,4,,62,0
263808,note_on,,,,,4,0,9,,,,,,4,,53,100
263852,note_off,,,,,44,0,9,,,,,,4,,53,0
263856,note_on,,,,,4,0,9,,,,,,4,,62,100
263860,set_tempo,,,,,432,1,0,,638297,,,,,,,
263900,note_off,,,,,44,0,9,,,,,,4,,62,0
263904,note_on,,,,,148,0,8,,,,,,4,,61,100
263948,note_off,,,,,44,0,8,,,,,,4,,61,0
263952,note_on,,,,,4,0,8,,,,,,4,,69,100
263968,set_tempo,,,,,108,1,0,,645161,,,,,,,
263996,note_off,,,,,44,0,8,,,,,,4,,69,0
264000,note_on,,,,,4,0,8,,,,,,4,,71,100
264044,note_off,,,,,44,0,8,,,,,,4,,71,0
264048,note_on,,,,,4,0,8,,,,,,4,,69,100
264092,note_off,,,,,44,0,8,,,,,,4,,69,0
264096,note_on,,,,,4,0,8,,,,,,4,,61,100
264140,note_off,,,,,44,0,8,,,,,,4,,61,0
264144,note_on,,,,,244,0,9,,,,,,4,,62,100
264188,note_off,,,,,764,0,4,,,,,,1,,71,0
264188,note_off,,,,,1532,0,5,,,,,,2,,62,0
264188,note_off,,,,,44,0,9,,,,,,4,,62,0
264188,note_off,,,,,1532,0,3,,,,,,0,,74,0
264192,note_on,,,,,4,0,3,,,,,,0,,76,85
264192,note_on,,,,,4,0,5,,,,,,2,,67,85
264192,note_on,,,,,4,0,9,,,,,,4,,58,100
264192,note_on,,,,,4,0,4,,,,,,1,,73,85
264236,note_off,,,,,44,0,9,,,,,,4,,58,0
264240,note_on,,,,,4,0,9,,,,,,4,,64,100
264284,note_off,,,,,44,0,9,,,,,,4,,64,0
264288,note_on,,,,,148,0,8,,,,,,4,,65,100
264332,note_off,,,,,44,0,8,,,,,,4,,65,0
264336,note_on,,,,,4,0,8,,,,,,4,,67,100
264380,note_off,,,,,44,0,8,,,,,,4,,67,0
264384,note_on,,,,,4,0,8,,,,,,4,,73,100
264428,note_off,,,,,44,0,8,,,,,,4,,73,0
264432,note_on,,,,,4,0,8,,,,,,4,,67,100
264476,note_off,,,,,44,0,8,,,,,,4,,67,0
264480,note_on,,,,,4,0,8,,,,,,4,,65,100
264524,note_off,,,,,44,0,8,,,,,,4,,65,0
264528,note_on,,,,,244,0,9,,,,,,4,,64,100
264572,note_off,,,,,44,0,9,,,,,,4,,64,0
264576,note_on,,,,,4,0,9,,,,,,4,,58,100
264620,note_off,,,,,44,0,9,,,,,,4,,58,0
264624,note_on,,,,,4,0,9,,,,,,4,,64,100
264668,note_off,,,,,44,0,9,,,,,,4,,64,0
264672,note_on,,,,,148,0,8,,,,,,4,,65,100
264716,note_off,,,,,44,0,8,,,,,,4,,65,0
264720,note_on,,,,,4,0,8,,,,,,4,,67,100
264764,note_off,,,,,44,0,8,,,,,,4,,67,0
264768,note_on,,,,,4,0,8,,,,,,4,,73,100
264812,note_off,,,,,44,0,8,,,,,,4,,73,0
264816,note_on,,,,,4,0,8,,,,,,4,,67,100
264860,note_off,,,,,44,0,8,,,,,,4,,67,0
264864,note_on,,,,,4,0,8,,,,,,4,,65,100
264908,note_off,,,,,44,0,8,,,,,,4,,65,0
264912,note_on,,,,,244,0,9,,,,,,4,,64,100
264956,note_off,,,,,764,0,5,,,,,,2,,67,0
264956,note_off,,,,,764,0,4,,,,,,1,,73,0
264956,note_off,,,,,44,0,9,,,,,,4,,64,0
264956,note_off,,,,,764,0,3,,,,,,0,,76,0
264960,note_on,,,,,4,0,9,,,,,,4,,57,100
264960,note_on,,,,,4,0,3,,,,,,0,,77,85
264960,note_on,,,,,4,0,4,,,,,,1,,74,85
264960,note_on,,,,,4,0,5,,,,,,2,,65,85
265004,note_off,,,,,44,0,9,,,,,,4,,57,0
265008,note_on,,,,,4,0,9,,,,,,4,,65,100
265052,note_off,,,,,44,0,9,,,,,,4,,65,0
265056,note_on,,,,,148,0,8,,,,,,4,,69,100
265100,note_off,,,,,44,0,8,,,,,,4,,69,0
265104,note_on,,,,,4,0,8,,,,,,4,,73,100
265148,note_off,,,,,44,0,8,,,,,,4,,73,0
265152,note_on,,,,,4,0,8,,,,,,4,,74,100
265196,note_off,,,,,44,0,8,,,,,,4,,74,0
265200,note_on,,,,,4,0,8,,,,,,4,,73,100
265244,note_off,,,,,44,0,8,,,,,,4,,73,0
265248,note_on,,,,,4,0,8,,,,,,4,,69,100
265292,note_off,,,,,44,0,8,,,,,,4,,69,0
265296,note_on,,,,,244,0,9,,,,,,4,,65,100
265340,note_off,,,,,44,0,9,,,,,,4,,65,0
265344,note_on,,,,,4,0,9,,,,,,4,,57,100
265388,note_off,,,,,44,0,9,,,,,,4,,57,0
265392,note_on,,,,,4,0,9,,,,,,4,,65,100
265436,note_off,,,,,44,0,9,,,,,,4,,65,0
265440,note_on,,,,,148,0,8,,,,,,4,,69,100
265484,note_off,,,,,44,0,8,,,,,,4,,69,0
265488,note_on,,,,,4,0,8,,,,,,4,,73,100
265532,note_off,,,,,44,0,8,,,,,,4,,73,0
265536,note_on,,,,,4,0,8,,,,,,4,,74,100
265580,note_off,,,,,44,0,8,,,,,,4,,74,0
265584,note_on,,,,,4,0,8,,,,,,4,,73,100
265628,note_off,,,,,44,0,8,,,,,,4,,73,0
265632,note_on,,,,,4,0,8,,,,,,4,,69,100
265676,note_off,,,,,44,0,8,,,,,,4,,69,0
265680,note_on,,,,,244,0,9,,,,,,4,,65,100
265724,note_off,,,,,764,0,5,,,,,,2,,65,0
265724,note_off,,,,,44,0,9,,,,,,4,,65,0
265728,note_on,,,,,4,0,5,,,,,,2,,59,85
265728,note_on,,,,,4,0,9,,,,,,4,,56,100
265772,note_off,,,,,44,0,9,,,,,,4,,56,0
265776,note_on,,,,,4,0,9,,,,,,4,,65,100
265820,note_off,,,,,44,0,9,,,,,,4,,65,0
265824,note_on,,,,,148,0,8,,,,,,4,,71,100
265868,note_off,,,,,44,0,8,,,,,,4,,71,0
265872,note_on,,,,,4,0,8,,,,,,4,,73,100
265916,note_off,,,,,44,0,8,,,,,,4,,73,0
265920,note_on,,,,,4,0,8,,,,,,4,,74,100
265964,note_off,,,,,44,0,8,,,,,,4,,74,0
265968,note_on,,,,,4,0,8,,,,,,4,,73,100
266012,note_off,,,,,44,0,8,,,,,,4,,73,0
266016,note_on,,,,,4,0,8,,,,,,4,,71,100
266060,note_off,,,,,44,0,8,,,,,,4,,71,0
266064,note_on,,,,,244,0,9,,,,,,4,,65,100
266108,note_off,,,,,44,0,9,,,,,,4,,65,0
266112,note_on,,,,,4,0,9,,,,,,4,,56,100
266156,note_off,,,,,44,0,9,,,,,,4,,56,0
266160,note_on,,,,,4,0,9,,,,,,4,,65,100
266204,note_off,,,,,44,0,9,,,,,,4,,65,0
266208,note_on,,,,,148,0,8,,,,,,4,,71,100
266252,note_off,,,,,44,0,8,,,,,,4,,71,0
266256,note_on,,,,,4,0,8,,,,,,4,,73,100
266300,note_off,,,,,44,0,8,,,,,,4,,73,0
266304,note_on,,,,,4,0,8,,,,,,4,,74,100
266348,note_off,,,,,44,0,8,,,,,,4,,74,0
266352,note_on,,,,,4,0,8,,,,,,4,,73,100
266396,note_off,,,,,44,0,8,,,,,,4,,73,0
266400,note_on,,,,,4,0,8,,,,,,4,,71,100
266444,note_off,,,,,44,0,8,,,,,,4,,71,0
266448,note_on,,,,,244,0,9,,,,,,4,,65,100
266492,note_off,,,,,1532,0,3,,,,,,0,,77,0
266492,note_off,,,,,764,0,5,,,,,,2,,59,0
266492,note_off,,,,,44,0,9,,,,,,4,,65,0
266496,note_on,,,,,4,0,5,,,,,,2,,71,85
266496,note_on,,,,,4,0,9,,,,,,4,,56,100
266496,note_on,,,,,4,0,3,,,,,,0,,76,85
266540,note_off,,,,,44,0,9,,,,,,4,,56,0
266544,note_on,,,,,4,0,9,,,,,,4,,64,100
266588,note_off,,,,,44,0,9,,,,,,4,,64,0
266592,note_on,,,,,148,0,8,,,,,,4,,71,100
266636,note_off,,,,,44,0,8,,,,,,4,,71,0
266640,note_on,,,,,4,0,8,,,,,,4,,73,100
266684,note_off,,,,,44,0,8,,,,,,4,,73,0
266688,note_on,,,,,4,0,8,,,,,,4,,74,100
266732,note_off,,,,,44,0,8,,,,,,4,,74,0
266736,note_on,,,,,4,0,8,,,,,,4,,73,100
266780,note_off,,,,,44,0,8,,,,,,4,,73,0
266784,note_on,,,,,4,0,8,,,,,,4,,71,100
266828,note_off,,,,,44,0,8,,,,,,4,,71,0
266832,note_on,,,,,244,0,9,,,,,,4,,64,100
266876,note_off,,,,,44,0,9,,,,,,4,,64,0
266880,note_on,,,,,4,0,9,,,,,,4,,56,100
266924,note_off,,,,,44,0,9,,,,,,4,,56,0
266928,note_on,,,,,4,0,9,,,,,,4,,64,100
266972,note_off,,,,,44,0,9,,,,,,4,,64,0
266976,note_on,,,,,148,0,8,,,,,,4,,71,100
267020,note_off,,,,,44,0,8,,,,,,4,,71,0
267024,note_on,,,,,4,0,8,,,,,,4,,73,100
267068,note_off,,,,,44,0,8,,,,,,4,,73,0
267072,note_on,,,,,4,0,8,,,,,,4,,74,100
267116,note_off,,,,,44,0,8,,,,,,4,,74,0
267120,note_on,,,,,4,0,8,,,,,,4,,73,100
267164,note_off,,,,,44,0,8,,,,,,4,,73,0
267168,note_on,,,,,4,0,8,,,,,,4,,71,100
267212,note_off,,,,,44,0,8,,,,,,4,,71,0
267216,note_on,,,,,244,0,9,,,,,,4,,64,100
267260,note_off,,,,,764,0,5,,,,,,2,,71,0
267260,set_tempo,,,,,3292,1,0,,645161,,,,,,,
267260,note_off,,,,,44,0,9,,,,,,4,,64,0
267264,note_on,,,,,4,0,5,,,,,,2,,64,85
267264,note_on,,,,,4,0,9,,,,,,4,,57,100
267272,set_tempo,,,,,12,1,0,,659340,,,,,,,
267308,note_off,,,,,44,0,9,,,,,,4,,57,0
267312,note_on,,,,,4,0,9,,,,,,4,,67,100
267312,set_tempo,,,,,40,1,0,,666666,,,,,,,
267336,set_tempo,,,,,24,1,0,,674157,,,,,,,
267356,note_off,,,,,44,0,9,,,,,,4,,67,0
267360,note_on,,,,,148,0,8,,,,,,4,,64,100
267368,set_tempo,,,,,32,1,0,,674157,,,,,,,
267376,set_tempo,,,,,8,1,0,,681818,,,,,,,
267392,set_tempo,,,,,16,1,0,,689655,,,,,,,
267404,note_off,,,,,44,0,8,,,,,,4,,64,0
267408,note_on,,,,,4,0,8,,,,,,4,,70,100
267452,note_off,,,,,44,0,8,,,,,,4,,70,0
267456,note_on,,,,,4,0,8,,,,,,4,,74,100
267484,set_tempo,,,,,92,1,0,,681818,,,,,,,
267500,note_off,,,,,44,0,8,,,,,,4,,74,0
267500,set_tempo,,,,,16,1,0,,674157,,,,,,,
267504,note_on,,,,,4,0,8,,,,,,4,,70,100
267528,set_tempo,,,,,28,1,0,,674157,,,,,,,
267548,set_tempo,,,,,20,1,0,,666666,,,,,,,
267548,note_off,,,,,44,0,8,,,,,,4,,70,0
267552,note_on,,,,,4,0,8,,,,,,4,,64,100
267560,set_tempo,,,,,12,1,0,,659340,,,,,,,
267572,set_tempo,,,,,12,1,0,,645161,,,,,,,
267596,note_off,,,,,44,0,8,,,,,,4,,64,0
267600,note_on,,,,,244,0,9,,,,,,4,,67,100
267616,set_tempo,,,,,44,1,0,,645161,,,,,,,
267644,note_off,,,,,44,0,9,,,,,,4,,67,0
267648,note_on,,,,,4,0,9,,,,,,4,,57,100
267656,set_tempo,,,,,40,1,0,,638297,,,,,,,
267692,note_off,,,,,44,0,9,,,,,,4,,57,0
267692,set_tempo,,,,,36,1,0,,625000,,,,,,,
267696,note_on,,,,,4,0,9,,,,,,4,,67,100
267740,note_off,,,,,44,0,9,,,,,,4,,67,0
267744,note_on,,,,,148,0,8,,,,,,4,,64,100
267788,note_off,,,,,44,0,8,,,,,,4,,64,0
267792,note_on,,,,,4,0,8,,,,,,4,,70,100
267820,set_tempo,,,,,128,1,0,,638297,,,,,,,
267836,note_off,,,,,44,0,8,,,,,,4,,70,0
267840,note_on,,,,,4,0,8,,,,,,4,,74,100
267848,set_tempo,,,,,28,1,0,,645161,,,,,,,
267872,set_tempo,,,,,24,1,0,,645161,,,,,,,
267884,note_off,,,,,44,0,8,,,,,,4,,74,0
267888,set_tempo,,,,,16,1,0,,659340,,,,,,,
267888,note_on,,,,,4,0,8,,,,,,4,,70,100
267932,note_off,,,,,44,0,8,,,,,,4,,70,0
267936,note_on,,,,,4,0,8,,,,,,4,,64,100
267956,set_tempo,,,,,68,1,0,,666666,,,,,,,
267980,note_off,,,,,44,0,8,,,,,,4,,64,0
267984,note_on,,,,,244,0,9,,,,,,4,,67,100
268000,set_tempo,,,,,44,1,0,,674157,,,,,,,
268012,set_tempo,,,,,12,1,0,,674157,,,,,,,
268028,note_off,,,,,44,0,9,,,,,,4,,67,0
268028,note_off,,,,,3068,0,4,,,,,,1,,74,0
268028,note_off,,,,,764,0,5,,,,,,2,,64,0
268032,note_on,,,,,4,0,9,,,,,,4,,57,100
268032,note_on,,,,,4,0,4,,,,,,1,,73,85
268032,note_on,,,,,4,0,5,,,,,,2,,67,85
268044,set_tempo,,,,,32,1,0,,681818,,,,,,,
268076,note_off,,,,,44,0,9,,,,,,4,,57,0
268080,note_on,,,,,4,0,9,,,,,,4,,67,100
268080,set_tempo,,,,,36,1,0,,689655,,,,,,,
268108,set_tempo,,,,,28,1,0,,697674,,,,,,,
268124,note_off,,,,,44,0,9,,,,,,4,,67,0
268128,note_on,,,,,148,0,8,,,,,,4,,64,100
268172,note_off,,,,,44,0,8,,,,,,4,,64,0
268176,note_on,,,,,4,0,8,,,,,,4,,69,100
268220,note_off,,,,,44,0,8,,,,,,4,,69,0
268224,note_on,,,,,4,0,8,,,,,,4,,73,100
268268,note_off,,,,,44,0,8,,,,,,4,,73,0
268272,note_on,,,,,4,0,8,,,,,,4,,69,100
268316,note_off,,,,,44,0,8,,,,,,4,,69,0
268320,note_on,,,,,4,0,8,,,,,,4,,64,100
268364,note_off,,,,,44,0,8,,,,,,4,,64,0
268368,note_on,,,,,244,0,9,,,,,,4,,67,100
268392,set_tempo,,,,,284,1,0,,689655,,,,,,,
268412,note_off,,,,,44,0,9,,,,,,4,,67,0
268416,note_on,,,,,4,0,9,,,,,,4,,57,100
268460,note_off,,,,,44,0,9,,,,,,4,,57,0
268464,note_on,,,,,4,0,9,,,,,,4,,67,100
268488,set_tempo,,,,,96,1,0,,681818,,,,,,,
268508,note_off,,,,,44,0,9,,,,,,4,,67,0
268512,note_on,,,,,148,0,8,,,,,,4,,64,100
268556,note_off,,,,,44,0,8,,,,,,4,,64,0
268560,note_on,,,,,4,0,8,,,,,,4,,69,100
268604,note_off,,,,,44,0,8,,,,,,4,,69,0
268608,note_on,,,,,4,0,8,,,,,,4,,73,100
268648,set_tempo,,,,,160,1,0,,674157,,,,,,,
268652,note_off,,,,,44,0,8,,,,,,4,,73,0
268656,note_on,,,,,4,0,8,,,,,,4,,69,100
268660,set_tempo,,,,,12,1,0,,674157,,,,,,,
268684,set_tempo,,,,,24,1,0,,666666,,,,,,,
268692,set_tempo,,,,,8,1,0,,659340,,,,,,,
268700,set_tempo,,,,,8,1,0,,645161,,,,,,,
268700,note_off,,,,,44,0,8,,,,,,4,,69,0
268704,note_on,,,,,4,0,8,,,,,,4,,64,100
268712,set_tempo,,,,,12,1,0,,645161,,,,,,,
268716,set_tempo,,,,,4,1,0,,638297,,,,,,,
268720,set_tempo,,,,,4,1,0,,625000,,,,,,,
268732,set_tempo,,,,,12,1,0,,625000,,,,,,,
268748,note_off,,,,,44,0,8,,,,,,4,,64,0
268752,note_on,,,,,244,0,9,,,,,,4,,57,100
268756,set_tempo,,,,,24,1,0,,618556,,,,,,,
268768,set_tempo,,,,,12,1,0,,612244,,,,,,,
268776,set_tempo,,,,,8,1,0,,576923,,,,,,,
268796,note_off,,,,,44,0,9,,,,,,4,,57,0
268796,note_off,,,,,7676,0,6,,,,,,3,,45,0
268796,note_off,,,,,7676,0,7,,,,,,3,,33,0
268796,note_off,,,,,2300,0,3,,,,,,0,,76,0
268796,note_off,,,,,764,0,5,,,,,,2,,67,0
268796,note_off,,,,,764,0,4,,,,,,1,,73,0
268800,note_on,,,,,4,0,6,,,,,,3,,50,100
268800,note_on,,,,,52,0,8,,,,,,4,,62,100
268800,note_on,,,,,4,0,5,,,,,,2,,62,100
268800,note_on,,,,,4,0,9,,,,,,4,,50,100
268800,note_on,,,,,4,0,4,,,,,,1,,62,100
268800,note_on,,,,,4,0,3,,,,,,0,,62,100
268800,note_on,,,,,4,0,7,,,,,,3,,38,100
268896,note_off,,,,,96,0,4,,,,,,1,,62,0
268896,note_on,,,,,0,0,4,,,,,,1,,64,100
268896,note_off,,,,,96,0,3,,,,,,0,,62,0
268896,note_off,,,,,96,0,5,,,,,,2,,62,0
268896,note_on,,,,,0,0,5,,,,,,2,,64,100
268896,note_off,,,,,96,0,7,,,,,,3,,38,0
268896,note_on,,,,,0,0,7,,,,,,3,,40,100
268896,note_off,,,,,96,0,6,,,,,,3,,50,0
268896,note_on,,,,,0,0,6,,,,,,3,,52,100
268896,note_on,,,,,0,0,9,,,,,,4,,52,100
268896,note_on,,,,,0,0,3,,,,,,0,,64,100
268896,note_off,,,,,96,0,8,,,,,,4,,62,0
268896,note_off,,,,,96,0,9,,,,,,4,,50,0
268896,note_on,,,,,0,0,8,,,,,,4,,64,100
268992,note_off,,,,,96,0,7,,,,,,3,,40,0
268992,note_on,,,,,0,0,6,,,,,,3,,53,100
268992,note_off,,,,,96,0,9,,,,,,4,,52,0
268992,note_on,,,,,0,0,9,,,,,,4,,53,100
268992,note_off,,,,,96,0,3,,,,,,0,,64,0
268992,note_off,,,,,96,0,6,,,,,,3,,52,0
268992,note_off,,,,,96,0,4,,,,,,1,,64,0
268992,note_on,,,,,0,0,4,,,,,,1,,65,100
268992,note_on,,,,,0,0,5,,,,,,2,,65,100
268992,note_off,,,,,96,0,5,,,,,,2,,64,0
268992,note_on,,,,,0,0,7,,,,,,3,,41,100
268992,note_on,,,,,0,0,3,,,,,,0,,65,100
268992,note_off,,,,,96,0,8,,,,,,4,,64,0
268992,note_on,,,,,0,0,8,,,,,,4,,65,100
269120,note_off,,,,,128,0,4,,,,,,1,,65,0
269120,note_off,,,,,128,0,5,,,,,,2,,65,0
269120,note_off,,,,,128,0,7,,,,,,3,,41,0
269120,note_off,,,,,128,0,6,,,,,,3,,53,0
269120,note_off,,,,,128,0,9,,,,,,4,,53,0
269120,note_off,,,,,128,0,8,,,,,,4,,65,0
269120,note_off,,,,,128,0,3,,,,,,0,,65,0
269184,note_on,,,,,64,0,4,,,,,,1,,64,100
269184,note_on,,,,,64,0,5,,,,,,2,,64,100
269184,note_on,,,,,64,0,6,,,,,,3,,52,100
269184,note_on,,,,,64,0,3,,,,,,0,,64,100
269184,note_on,,,,,64,0,7,,,,,,3,,40,100
269184,note_on,,,,,64,0,9,,,,,,4,,52,100
269184,note_on,,,,,64,0,8,,,,,,4,,64,100
269376,note_on,,,,,0,0,7,,,,,,3,,38,100
269376,note_off,,,,,192,0,9,,,,,,4,,52,0
269376,note_off,,,,,192,0,6,,,,,,3,,52,0
269376,note_on,,,,,0,0,6,,,,,,3,,50,100
269376,note_on,,,,,0,0,5,,,,,,2,,62,100
269376,note_off,,,,,192,0,5,,,,,,2,,64,0
269376,note_on,,,,,0,0,9,,,,,,4,,50,100
269376,note_off,,,,,192,0,7,,,,,,3,,40,0
269376,note_off,,,,,192,0,3,,,,,,0,,64,0
269376,note_on,,,,,0,0,4,,,,,,1,,62,100
269376,note_off,,,,,192,0,4,,,,,,1,,64,0
269376,note_off,,,,,192,0,8,,,,,,4,,64,0
269376,note_on,,,,,0,0,8,,,,,,4,,62,100
269376,note_on,,,,,0,0,3,,,,,,0,,62,100
269568,note_on,,,,,0,0,8,,,,,,4,,69,100
269568,note_off,,,,,192,0,4,,,,,,1,,62,0
269568,note_off,,,,,192,0,7,,,,,,3,,38,0
269568,note_off,,,,,192,0,5,,,,,,2,,62,0
269568,note_off,,,,,192,0,8,,,,,,4,,62,0
269568,note_on,,,,,0,0,3,,,,,,0,,69,100
269568,note_off,,,,,192,0,3,,,,,,0,,62,0
269568,note_on,,,,,0,0,4,,,,,,1,,69,100
269568,note_on,,,,,0,0,5,,,,,,2,,69,100
269568,note_on,,,,,0,0,7,,,,,,3,,45,100
269568,note_off,,,,,192,0,9,,,,,,4,,50,0
269568,note_on,,,,,0,0,9,,,,,,4,,57,100
269568,note_on,,,,,0,0,6,,,,,,3,,57,100
269568,note_off,,,,,192,0,6,,,,,,3,,50,0
269760,note_off,,,,,192,0,5,,,,,,2,,69,0
269760,note_on,,,,,0,0,6,,,,,,3,,62,100
269760,note_off,,,,,192,0,6,,,,,,3,,57,0
269760,note_on,,,,,0,0,7,,,,,,3,,50,100
269760,note_on,,,,,0,0,5,,,,,,2,,74,100
269760,note_off,,,,,192,0,4,,,,,,1,,69,0
269760,note_on,,,,,0,0,3,,,,,,0,,74,100
269760,note_off,,,,,192,0,3,,,,,,0,,69,0
269760,note_off,,,,,192,0,7,,,,,,3,,45,0
269760,note_off,,,,,192,0,8,,,,,,4,,69,0
269760,note_on,,,,,0,0,4,,,,,,1,,74,100
269760,note_off,,,,,192,0,9,,,,,,4,,57,0
269760,note_on,,,,,0,0,9,,,,,,4,,62,100
269760,note_on,,,,,0,0,8,,,,,,4,,74,100
270144,note_on,,,,,0,0,6,,,,,,3,,57,100
270144,note_off,,,,,384,0,6,,,,,,3,,62,0
270144,note_off,,,,,384,0,9,,,,,,4,,62,0
270144,note_on,,,,,0,0,9,,,,,,4,,57,100
270144,note_on,,,,,0,0,8,,,,,,4,,69,100
270144,note_on,,,,,0,0,4,,,,,,1,,69,100
270144,note_off,,,,,384,0,5,,,,,,2,,74,0
270144,note_on,,,,,0,0,5,,,,,,2,,69,100
270144,note_off,,,,,384,0,7,,,,,,3,,50,0
270144,note_off,,,,,384,0,8,,,,,,4,,74,0
270144,note_on,,,,,0,0,7,,,,,,3,,45,100
270144,note_off,,,,,384,0,3,,,,,,0,,74,0
270144,note_off,,,,,384,0,4,,,,,,1,,74,0
270144,note_on,,,,,0,0,3,,,,,,0,,69,100
270336,note_on,,,,,0,0,6,,,,,,3,,58,100
270336,note_on,,,,,0,0,8,,,,,,4,,70,100
270336,note_off,,,,,192,0,8,,,,,,4,,69,0
270336,note_off,,,,,192,0,7,,,,,,3,,45,0
270336,note_on,,,,,0,0,4,,,,,,1,,70,100
270336,note_off,,,,,192,0,6,,,,,,3,,57,0
270336,note_off,,,,,192,0,4,,,,,,1,,69,0
270336,note_on,,,,,0,0,3,,,,,,0,,70,100
270336,note_off,,,,,192,0,5,,,,,,2,,69,0
270336,note_on,,,,,0,0,5,,,,,,2,,70,100
270336,note_off,,,,,192,0,3,,,,,,0,,69,0
270336,note_on,,,,,0,0,9,,,,,,4,,58,100
270336,note_off,,,,,192,0,9,,,,,,4,,57,0
270336,note_on,,,,,0,0,7,,,,,,3,,46,100
270524,note_off,,,,,188,0,9,,,,,,4,,58,0
270524,note_off,,,,,188,0,3,,,,,,0,,70,0
270524,note_off,,,,,188,0,6,,,,,,3,,58,0
270524,note_off,,,,,188,0,7,,,,,,3,,46,0
270524,note_off,,,,,188,0,4,,,,,,1,,70,0
270524,note_off,,,,,188,0,5,,,,,,2,,70,0
270524,note_off,,,,,188,0,8,,,,,,4,,70,0
270528,note_on,,,,,4,0,4,,,,,,1,,67,100
270528,note_on,,,,,4,0,7,,,,,,3,,43,100
270528,note_on,,,,,4,0,9,,,,,,4,,55,100
270528,note_on,,,,,4,0,3,,,,,,0,,67,100
270528,note_on,,,,,4,0,8,,,,,,4,,67,100
270528,note_on,,,,,4,0,5,,,,,,2,,67,100
270528,note_on,,,,,4,0,6,,,,,,3,,55,100
270620,note_off,,,,,92,0,3,,,,,,0,,67,0
270620,note_off,,,,,92,0,9,,,,,,4,,55,0
270620,note_off,,,,,92,0,5,,,,,,2,,67,0
270620,note_off,,,,,92,0,6,,,,,,3,,55,0
270620,note_off,,,,,92,0,8,,,,,,4,,67,0
270620,note_off,,,,,92,0,4,,,,,,1,,67,0
270620,note_off,,,,,92,0,7,,,,,,3,,43,0
270624,note_on,,,,,4,0,9,,,,,,4,,52,100
270624,note_on,,,,,4,0,3,,,,,,0,,64,100
270624,note_on,,,,,4,0,4,,,,,,1,,64,100
270624,note_on,,,,,4,0,6,,,,,,3,,52,100
270624,note_on,,,,,4,0,7,,,,,,3,,40,100
270624,note_on,,,,,4,0,8,,,,,,4,,64,100
270624,note_on,,,,,4,0,5,,,,,,2,,64,100
270716,note_off,,,,,92,0,6,,,,,,3,,52,0
270716,note_off,,,,,92,0,3,,,,,,0,,64,0
270716,note_off,,,,,92,0,7,,,,,,3,,40,0
270716,note_off,,,,,92,0,9,,,,,,4,,52,0
270716,note_off,,,,,92,0,4,,,,,,1,,64,0
270716,note_off,,,,,92,0,8,,,,,,4,,64,0
270716,note_off,,,,,92,0,5,,,,,,2,,64,0
270720,note_on,,,,,4,0,9,,,,,,4,,57,100
270720,note_on,,,,,4,0,6,,,,,,3,,57,100
270720,note_on,,,,,4,0,5,,,,,,2,,69,100
270720,note_on,,,,,4,0,3,,,,,,0,,69,100
270720,note_on,,,,,4,0,7,,,,,,3,,45,100
270720,note_on,,,,,4,0,8,,,,,,4,,69,100
270720,note_on,,,,,4,0,4,,,,,,1,,69,100
270908,note_off,,,,,188,0,5,,,,,,2,,69,0
270908,note_off,,,,,188,0,9,,,,,,4,,57,0
270908,note_off,,,,,188,0,8,,,,,,4,,69,0
270908,note_off,,,,,188,0,3,,,,,,0,,69,0
270908,note_off,,,,,188,0,6,,,,,,3,,57,0
270908,note_off,,,,,188,0,7,,,,,,3,,45,0
270908,note_off,,,,,188,0,4,,,,,,1,,69,0
270912,note_on,,,,,4,0,7,,,,,,3,,41,100
270912,note_on,,,,,4,0,6,,,,,,3,,53,100
270912,note_on,,,,,4,0,8,,,,,,4,,65,100
270912,note_on,,,,,4,0,5,,,,,,2,,65,100
270912,note_on,,,,,4,0,4,,,,,,1,,65,100
270912,note_on,,,,,4,0,9,,,,,,4,,53,100
270912,note_on,,,,,4,0,3,,,,,,0,,65,100
271004,note_off,,,,,92,0,4,,,,,,1,,65,0
271004,note_off,,,,,92,0,9,,,,,,4,,53,0
271004,note_off,,,,,92,0,5,,,,,,2,,65,0
271004,note_off,,,,,92,0,8,,,,,,4,,65,0
271004,note_off,,,,,92,0,7,,,,,,3,,41,0
271004,note_off,,,,,92,0,3,,,,,,0,,65,0
271004,note_off,,,,,92,0,6,,,,,,3,,53,0
271008,note_on,,,,,4,0,7,,,,,,3,,38,100
271008,note_on,,,,,4,0,4,,,,,,1,,62,100
271008,note_on,,,,,4,0,8,,,,,,4,,62,100
271008,note_on,,,,,4,0,6,,,,,,3,,50,100
271008,note_on,,,,,4,0,9,,,,,,4,,50,100
271008,note_on,,,,,4,0,5,,,,,,2,,62,100
271008,note_on,,,,,4,0,3,,,,,,0,,62,100
271100,note_off,,,,,92,0,3,,,,,,0,,62,0
271100,note_off,,,,,92,0,6,,,,,,3,,50,0
271100,note_off,,,,,92,0,9,,,,,,4,,50,0
271100,note_off,,,,,92,0,7,,,,,,3,,38,0
271100,note_off,,,,,92,0,5,,,,,,2,,62,0
271100,note_off,,,,,92,0,4,,,,,,1,,62,0
271100,note_off,,,,,92,0,8,,,,,,4,,62,0
271104,note_on,,,,,4,0,4,,,,,,1,,67,100
271104,note_on,,,,,4,0,6,,,,,,3,,55,100
271104,note_on,,,,,4,0,3,,,,,,0,,67,100
271104,note_on,,,,,4,0,5,,,,,,2,,67,100
271104,note_on,,,,,4,0,9,,,,,,4,,55,100
271104,note_on,,,,,4,0,7,,,,,,3,,43,100
271104,note_on,,,,,4,0,8,,,,,,4,,67,100
271292,note_off,,,,,188,0,5,,,,,,2,,67,0
271292,note_off,,,,,188,0,7,,,,,,3,,43,0
271292,note_off,,,,,188,0,4,,,,,,1,,67,0
271292,note_off,,,,,188,0,3,,,,,,0,,67,0
271292,note_off,,,,,188,0,6,,,,,,3,,55,0
271292,note_off,,,,,188,0,9,,,,,,4,,55,0
271292,note_off,,,,,188,0,8,,,,,,4,,67,0
271296,note_on,,,,,4,0,4,,,,,,1,,64,100
271296,note_on,,,,,4,0,5,,,,,,2,,64,100
271296,note_on,,,,,4,0,7,,,,,,3,,40,100
271296,note_on,,,,,4,0,6,,,,,,3,,52,100
271296,note_on,,,,,4,0,8,,,,,,4,,64,100
271296,note_on,,,,,4,0,3,,,,,,0,,64,100
271296,note_on,,,,,4,0,9,,,,,,4,,52,100
271388,note_off,,,,,92,0,8,,,,,,4,,64,0
271388,note_off,,,,,92,0,6,,,,,,3,,52,0
271388,note_off,,,,,92,0,3,,,,,,0,,64,0
271388,note_off,,,,,92,0,7,,,,,,3,,40,0
271388,note_off,,,,,92,0,5,,,,,,2,,64,0
271388,note_off,,,,,92,0,4,,,,,,1,,64,0
271388,note_off,,,,,92,0,9,,,,,,4,,52,0
271392,note_on,,,,,4,0,8,,,,,,4,,61,100
271392,note_on,,,,,4,0,3,,,,,,0,,61,100
271392,note_on,,,,,4,0,7,,,,,,3,,37,100
271392,note_on,,,,,4,0,4,,,,,,1,,61,100
271392,note_on,,,,,4,0,5,,,,,,2,,61,100
271392,note_on,,,,,4,0,6,,,,,,3,,49,100
271392,note_on,,,,,4,0,9,,,,,,4,,49,100
271484,note_off,,,,,92,0,3,,,,,,0,,61,0
271484,note_off,,,,,92,0,6,,,,,,3,,49,0
271484,note_off,,,,,92,0,8,,,,,,4,,61,0
271484,note_off,,,,,92,0,5,,,,,,2,,61,0
271484,note_off,,,,,92,0,7,,,,,,3,,37,0
271484,note_off,,,,,92,0,9,,,,,,4,,49,0
271484,note_off,,,,,92,0,4,,,,,,1,,61,0
271488,note_on,,,,,4,0,5,,,,,,2,,57,100
271488,note_on,,,,,4,0,9,,,,,,4,,45,100
271488,note_on,,,,,4,0,7,,,,,,3,,33,100
271488,note_on,,,,,4,0,6,,,,,,3,,45,100
271488,note_on,,,,,4,0,8,,,,,,4,,57,100
271488,note_on,,,,,4,0,3,,,,,,0,,57,100
271488,note_on,,,,,4,0,4,,,,,,1,,57,100
271580,note_off,,,,,92,0,9,,,,,,4,,45,0
271584,note_on,,,,,4,0,9,,,,,,4,,53,100
271616,note_off,,,,,128,0,7,,,,,,3,,33,0
271616,note_off,,,,,128,0,8,,,,,,4,,57,0
271616,note_off,,,,,128,0,4,,,,,,1,,57,0
271616,note_off,,,,,128,0,5,,,,,,2,,57,0
271616,note_off,,,,,128,0,3,,,,,,0,,57,0
271616,note_off,,,,,128,0,6,,,,,,3,,45,0
271676,note_off,,,,,92,0,9,,,,,,4,,53,0
271680,note_on,,,,,4,0,9,,,,,,4,,52,100
271680,note_on,,,,,64,0,8,,,,,,4,,70,100
271680,note_on,,,,,64,0,3,,,,,,0,,76,87
271680,note_on,,,,,64,0,7,,,,,,3,,37,100
271680,note_on,,,,,64,0,6,,,,,,3,,49,100
271680,note_on,,,,,64,0,5,,,,,,2,,67,85
271680,note_on,,,,,64,0,4,,,,,,1,,70,87
271772,note_off,,,,,92,0,9,,,,,,4,,52,0
271776,note_on,,,,,4,0,9,,,,,,4,,50,100
271832,note_off,,,,,152,0,5,,,,,,2,,67,0
271868,note_off,,,,,188,0,8,,,,,,4,,70,0
271868,note_off,,,,,188,0,6,,,,,,3,,49,0
271868,note_off,,,,,92,0,9,,,,,,4,,50,0
271868,note_off,,,,,188,0,7,,,,,,3,,37,0
271872,note_on,,,,,40,0,5,,,,,,2,,67,85
271872,note_on,,,,,4,0,6,,,,,,3,,52,85
271872,note_on,,,,,4,0,9,,,,,,4,,49,100
271872,note_on,,,,,4,0,7,,,,,,3,,40,85
271964,note_off,,,,,92,0,9,,,,,,4,,49,0
271968,note_on,,,,,100,0,8,,,,,,4,,58,100
272024,note_off,,,,,152,0,5,,,,,,2,,67,0
272060,note_off,,,,,380,0,4,,,,,,1,,70,0
272060,note_off,,,,,188,0,6,,,,,,3,,52,0
272060,note_off,,,,,380,0,3,,,,,,0,,76,0
272060,note_off,,,,,92,0,8,,,,,,4,,58,0
272060,note_off,,,,,188,0,7,,,,,,3,,40,0
272064,note_on,,,,,4,0,7,,,,,,3,,43,85
272064,note_on,,,,,4,0,8,,,,,,4,,64,100
272064,note_on,,,,,40,0,5,,,,,,2,,67,85
272064,note_on,,,,,4,0,4,,,,,,1,,79,85
272064,note_on,,,,,4,0,3,,,,,,0,,70,85
272064,note_on,,,,,4,0,6,,,,,,3,,55,85
272156,note_off,,,,,92,0,3,,,,,,0,,70,0
272156,note_off,,,,,92,0,8,,,,,,4,,64,0
272160,note_on,,,,,4,0,8,,,,,,4,,62,100
272160,note_on,,,,,4,0,3,,,,,,0,,67,85
272216,note_off,,,,,152,0,5,,,,,,2,,67,0
272252,note_off,,,,,188,0,6,,,,,,3,,55,0
272252,note_off,,,,,92,0,3,,,,,,0,,67,0
272252,note_off,,,,,92,0,8,,,,,,4,,62,0
272252,note_off,,,,,188,0,7,,,,,,3,,43,0
272256,note_on,,,,,4,0,7,,,,,,3,,46,85
272256,note_on,,,,,4,0,3,,,,,,0,,61,85
272256,note_on,,,,,40,0,5,,,,,,2,,67,85
272256,note_on,,,,,4,0,6,,,,,,3,,58,85
272256,note_on,,,,,4,0,8,,,,,,4,,64,100
272348,note_off,,,,,92,0,8,,,,,,4,,64,0
272352,note_on,,,,,4,0,8,,,,,,4,,58,100
272408,note_off,,,,,152,0,5,,,,,,2,,67,0
272444,note_off,,,,,188,0,3,,,,,,0,,61,0
272444,note_off,,,,,188,0,6,,,,,,3,,58,0
272444,note_off,,,,,380,0,4,,,,,,1,,79,0
272444,note_off,,,,,188,0,7,,,,,,3,,46,0
272444,note_off,,,,,92,0,8,,,,,,4,,58,0
272448,note_on,,,,,4,0,4,,,,,,1,,76,85
272448,note_on,,,,,4,0,3,,,,,,0,,76,85
272448,note_on,,,,,4,0,7,,,,,,3,,43,85
272448,note_on,,,,,4,0,6,,,,,,3,,55,85
272448,note_on,,,,,4,0,8,,,,,,4,,57,100
272448,note_on,,,,,40,0,5,,,,,,2,,67,85
272540,note_off,,,,,92,0,4,,,,,,1,,76,0
272540,note_off,,,,,92,0,8,,,,,,4,,57,0
272544,note_on,,,,,4,0,8,,,,,,4,,55,100
272544,note_on,,,,,4,0,4,,,,,,1,,73,85
272600,note_off,,,,,152,0,5,,,,,,2,,67,0
272636,note_off,,,,,188,0,6,,,,,,3,,55,0
272636,note_off,,,,,92,0,8,,,,,,4,,55,0
272636,note_off,,,,,92,0,4,,,,,,1,,73,0
272636,note_off,,,,,188,0,7,,,,,,3,,43,0
272640,note_on,,,,,676,0,9,,,,,,4,,49,100
272640,note_on,,,,,4,0,7,,,,,,3,,40,85
272640,note_on,,,,,40,0,5,,,,,,2,,67,85
272640,note_on,,,,,4,0,6,,,,,,3,,52,85
272640,note_on,,,,,4,0,4,,,,,,1,,64,85
272732,note_off,,,,,92,0,9,,,,,,4,,49,0
272736,note_on,,,,,100,0,8,,,,,,4,,58,100
272792,note_off,,,,,152,0,5,,,,,,2,,67,0
272828,note_off,,,,,188,0,6,,,,,,3,,52,0
272828,note_off,,,,,380,0,3,,,,,,0,,76,0
272828,note_off,,,,,188,0,4,,,,,,1,,64,0
272828,note_off,,,,,188,0,7,,,,,,3,,40,0
272828,note_off,,,,,92,0,8,,,,,,4,,58,0
272832,note_on,,,,,4,0,3,,,,,,0,,70,85
272832,note_on,,,,,4,0,4,,,,,,1,,79,85
272832,note_on,,,,,40,0,5,,,,,,2,,67,85
272832,note_on,,,,,4,0,7,,,,,,3,,37,85
272832,note_on,,,,,4,0,6,,,,,,3,,49,85
272832,note_on,,,,,4,0,8,,,,,,4,,64,100
272924,note_off,,,,,92,0,8,,,,,,4,,64,0
272924,note_off,,,,,92,0,3,,,,,,0,,70,0
272928,note_on,,,,,4,0,8,,,,,,4,,62,100
272928,note_on,,,,,4,0,3,,,,,,0,,67,85
272984,note_off,,,,,152,0,5,,,,,,2,,67,0
273020,note_off,,,,,188,0,7,,,,,,3,,37,0
273020,note_off,,,,,92,0,8,,,,,,4,,62,0
273020,note_off,,,,,188,0,6,,,,,,3,,49,0
273020,note_off,,,,,92,0,3,,,,,,0,,67,0
273024,note_on,,,,,40,0,5,,,,,,2,,69,85
273024,note_on,,,,,4,0,3,,,,,,0,,61,85
273024,note_on,,,,,4,0,7,,,,,,3,,33,85
273024,note_on,,,,,4,0,8,,,,,,4,,64,100
273024,note_on,,,,,4,0,6,,,,,,3,,45,85
273116,note_off,,,,,92,0,8,,,,,,4,,64,0
273120,note_on,,,,,4,0,8,,,,,,4,,58,100
273176,note_off,,,,,152,0,5,,,,,,2,,69,0
273212,note_off,,,,,188,0,3,,,,,,0,,61,0
273212,note_off,,,,,380,0,4,,,,,,1,,79,0
273212,note_off,,,,,188,0,7,,,,,,3,,33,0
273212,note_off,,,,,92,0,8,,,,,,4,,58,0
273212,note_off,,,,,188,0,6,,,,,,3,,45,0
273216,note_on,,,,,4,0,8,,,,,,4,,57,100
273216,note_on,,,,,4,0,7,,,,,,3,,45,85
273216,note_on,,,,,4,0,3,,,,,,0,,73,85
273216,note_on,,,,,4,0,4,,,,,,1,,76,85
273216,note_on,,,,,4,0,6,,,,,,3,,57,85
273216,note_on,,,,,40,0,5,,,,,,2,,69,85
273308,note_off,,,,,92,0,4,,,,,,1,,76,0
273308,note_off,,,,,92,0,8,,,,,,4,,57,0
273312,note_on,,,,,4,0,8,,,,,,4,,55,100
273312,note_on,,,,,4,0,4,,,,,,1,,73,85
273368,note_off,,,,,152,0,5,,,,,,2,,69,0
273404,note_off,,,,,92,0,8,,,,,,4,,55,0
273404,note_off,,,,,188,0,3,,,,,,0,,73,0
273404,note_off,,,,,92,0,4,,,,,,1,,73,0
273404,note_off,,,,,188,0,7,,,,,,3,,45,0
273404,note_off,,,,,188,0,6,,,,,,3,,57,0
273408,note_on,,,,,4,0,7,,,,,,3,,38,85
273408,note_on,,,,,40,0,5,,,,,,2,,69,85
273408,note_on,,,,,4,0,4,,,,,,1,,69,85
273408,note_on,,,,,4,0,3,,,,,,0,,74,85
273408,note_on,,,,,4,0,6,,,,,,3,,50,85
273408,note_on,,,,,676,0,9,,,,,,4,,50,100
273408,note_on,,,,,4,0,8,,,,,,4,,53,100
273500,note_off,,,,,92,0,9,,,,,,4,,50,0
273500,note_off,,,,,92,0,8,,,,,,4,,53,0
273504,note_on,,,,,4,0,8,,,,,,4,,57,100
273596,note_off,,,,,92,0,8,,,,,,4,,57,0
273596,note_off,,,,,188,0,3,,,,,,0,,74,0
273596,note_off,,,,,188,0,4,,,,,,1,,69,0
273600,note_on,,,,,4,0,8,,,,,,4,,62,100
273600,note_on,,,,,4,0,3,,,,,,0,,69,85
273600,note_on,,,,,4,0,4,,,,,,1,,65,85
273692,note_off,,,,,92,0,8,,,,,,4,,62,0
273696,note_on,,,,,4,0,8,,,,,,4,,61,100
273788,note_off,,,,,380,0,6,,,,,,3,,50,0
273788,note_off,,,,,380,0,5,,,,,,2,,69,0
273788,note_off,,,,,92,0,8,,,,,,4,,61,0
273788,note_off,,,,,188,0,4,,,,,,1,,65,0
273788,note_off,,,,,380,0,7,,,,,,3,,38,0
273788,note_off,,,,,188,0,3,,,,,,0,,69,0
273792,note_on,,,,,4,0,8,,,,,,4,,62,100
273792,note_on,,,,,4,0,5,,,,,,2,,62,85
273792,note_on,,,,,4,0,3,,,,,,0,,65,85
273792,note_on,,,,,4,0,4,,,,,,1,,62,85
273884,note_off,,,,,92,0,8,,,,,,4,,62,0
273888,note_on,,,,,4,0,8,,,,,,4,,58,100
273980,note_off,,,,,188,0,3,,,,,,0,,65,0
273980,note_off,,,,,92,0,8,,,,,,4,,58,0
273980,note_off,,,,,188,0,4,,,,,,1,,62,0
273984,note_on,,,,,4,0,8,,,,,,4,,57,100
273984,note_on,,,,,4,0,3,,,,,,0,,69,85
273984,note_on,,,,,4,0,4,,,,,,1,,65,85
274076,note_off,,,,,92,0,8,,,,,,4,,57,0
274080,note_on,,,,,4,0,8,,,,,,4,,55,100
274172,note_off,,,,,188,0,3,,,,,,0,,69,0
274172,note_off,,,,,380,0,5,,,,,,2,,62,0
274172,note_off,,,,,92,0,8,,,,,,4,,55,0
274172,note_off,,,,,188,0,4,,,,,,1,,65,0
274176,note_on,,,,,4,0,4,,,,,,1,,69,85
274176,note_on,,,,,388,0,7,,,,,,3,,38,85
274176,note_on,,,,,4,0,3,,,,,,0,,74,85
274176,note_on,,,,,676,0,9,,,,,,4,,50,100
274176,note_on,,,,,388,0,6,,,,,,3,,50,85
274176,note_on,,,,,4,0,8,,,,,,4,,53,100
274268,note_off,,,,,92,0,9,,,,,,4,,50,0
274268,note_off,,,,,92,0,8,,,,,,4,,53,0
274272,note_on,,,,,4,0,8,,,,,,4,,57,100
274364,note_off,,,,,92,0,8,,,,,,4,,57,0
274364,note_off,,,,,188,0,3,,,,,,0,,74,0
274364,note_off,,,,,188,0,4,,,,,,1,,69,0
274368,note_on,,,,,4,0,3,,,,,,0,,69,85
274368,note_on,,,,,4,0,4,,,,,,1,,65,85
274368,note_on,,,,,4,0,8,,,,,,4,,62,100
274460,note_off,,,,,92,0,8,,,,,,4,,62,0
274464,note_on,,,,,4,0,8,,,,,,4,,61,100
274556,note_off,,,,,188,0,4,,,,,,1,,65,0
274556,note_off,,,,,188,0,3,,,,,,0,,69,0
274556,note_off,,,,,92,0,8,,,,,,4,,61,0
274556,note_off,,,,,380,0,6,,,,,,3,,50,0
274556,note_off,,,,,380,0,7,,,,,,3,,38,0
274560,note_on,,,,,4,0,4,,,,,,1,,62,85
274560,note_on,,,,,4,0,8,,,,,,4,,62,100
274560,note_on,,,,,4,0,3,,,,,,0,,62,85
274560,note_on,,,,,388,0,5,,,,,,2,,62,85
274652,note_off,,,,,92,0,8,,,,,,4,,62,0
274656,note_on,,,,,4,0,8,,,,,,4,,58,100
274748,note_off,,,,,92,0,8,,,,,,4,,58,0
274748,note_off,,,,,188,0,3,,,,,,0,,62,0
274748,note_off,,,,,188,0,4,,,,,,1,,62,0
274752,note_on,,,,,4,0,8,,,,,,4,,57,100
274752,note_on,,,,,4,0,4,,,,,,1,,66,85
274752,note_on,,,,,4,0,3,,,,,,0,,84,85
274844,note_off,,,,,92,0,8,,,,,,4,,57,0
274848,note_on,,,,,4,0,8,,,,,,4,,55,100
274940,note_off,,,,,188,0,4,,,,,,1,,66,0
274940,note_off,,,,,92,0,8,,,,,,4,,55,0
274940,note_off,,,,,380,0,5,,,,,,2,,62,0
274944,note_on,,,,,388,0,7,,,,,,3,,33,85
274944,note_on,,,,,388,0,6,,,,,,3,,45,85
274944,note_on,,,,,4,0,4,,,,,,1,,75,85
274944,note_on,,,,,676,0,9,,,,,,4,,54,100
274944,note_on,,,,,4,0,5,,,,,,2,,60,85
275036,note_off,,,,,92,0,9,,,,,,4,,54,0
275040,note_on,,,,,100,0,8,,,,,,4,,63,100
275096,note_off,,,,,152,0,5,,,,,,2,,60,0
275132,note_off,,,,,92,0,8,,,,,,4,,63,0
275132,note_off,,,,,188,0,6,,,,,,3,,45,0
275132,note_off,,,,,188,0,4,,,,,,1,,75,0
275132,note_off,,,,,380,0,3,,,,,,0,,84,0
275132,note_off,,,,,188,0,7,,,,,,3,,33,0
275136,note_on,,,,,40,0,5,,,,,,2,,60,85
275136,note_on,,,,,4,0,7,,,,,,3,,36,85
275136,note_on,,,,,4,0,6,,,,,,3,,48,85
275136,note_on,,,,,4,0,4,,,,,,1,,84,85
275136,note_on,,,,,4,0,3,,,,,,0,,75,85
275136,note_on,,,,,4,0,8,,,,,,4,,69,100
275228,note_off,,,,,92,0,3,,,,,,0,,75,0
275228,note_off,,,,,92,0,8,,,,,,4,,69,0
275232,note_on,,,,,4,0,8,,,,,,4,,67,100
275232,note_on,,,,,4,0,3,,,,,,0,,72,85
275288,note_off,,,,,152,0,5,,,,,,2,,60,0
275324,note_off,,,,,188,0,6,,,,,,3,,48,0
275324,note_off,,,,,92,0,8,,,,,,4,,67,0
275324,note_off,,,,,92,0,3,,,,,,0,,72,0
275324,note_off,,,,,188,0,7,,,,,,3,,36,0
275328,note_on,,,,,4,0,7,,,,,,3,,39,85
275328,note_on,,,,,4,0,3,,,,,,0,,66,85
275328,note_on,,,,,40,0,5,,,,,,2,,60,85
275328,note_on,,,,,4,0,8,,,,,,4,,69,100
275328,note_on,,,,,4,0,6,,,,,,3,,51,85
275420,note_off,,,,,92,0,8,,,,,,4,,69,0
275424,note_on,,,,,4,0,8,,,,,,4,,63,100
275480,note_off,,,,,152,0,5,,,,,,2,,60,0
275516,note_off,,,,,188,0,7,,,,,,3,,39,0
275516,note_off,,,,,92,0,8,,,,,,4,,63,0
275516,note_off,,,,,380,0,4,,,,,,1,,84,0
275516,note_off,,,,,188,0,3,,,,,,0,,66,0
275516,note_off,,,,,188,0,6,,,,,,3,,51,0
275520,note_on,,,,,40,0,5,,,,,,2,,60,85
275520,note_on,,,,,4,0,3,,,,,,0,,84,85
275520,note_on,,,,,4,0,8,,,,,,4,,62,100
275520,note_on,,,,,4,0,4,,,,,,1,,81,85
275520,note_on,,,,,4,0,7,,,,,,3,,36,85
275520,note_on,,,,,4,0,6,,,,,,3,,48,85
275612,note_off,,,,,92,0,8,,,,,,4,,62,0
275612,note_off,,,,,92,0,4,,,,,,1,,81,0
275616,note_on,,,,,4,0,8,,,,,,4,,60,100
275616,note_on,,,,,4,0,4,,,,,,1,,78,85
275672,note_off,,,,,152,0,5,,,,,,2,,60,0
275708,note_off,,,,,188,0,7,,,,,,3,,36,0
275708,note_off,,,,,92,0,8,,,,,,4,,60,0
275708,note_off,,,,,188,0,6,,,,,,3,,48,0
275708,note_off,,,,,92,0,4,,,,,,1,,78,0
275712,note_on,,,,,4,0,7,,,,,,3,,33,85
275712,note_on,,,,,40,0,5,,,,,,2,,60,85
275712,note_on,,,,,4,0,6,,,,,,3,,45,85
275712,note_on,,,,,676,0,9,,,,,,4,,54,100
275712,note_on,,,,,4,0,4,,,,,,1,,69,85
275804,note_off,,,,,92,0,9,,,,,,4,,54,0
275808,note_on,,,,,100,0,8,,,,,,4,,63,100
275864,note_off,,,,,152,0,5,,,,,,2,,60,0
275900,note_off,,,,,188,0,7,,,,,,3,,33,0
275900,note_off,,,,,188,0,4,,,,,,1,,69,0
275900,note_off,,,,,92,0,8,,,,,,4,,63,0
275900,note_off,,,,,380,0,3,,,,,,0,,84,0
275900,note_off,,,,,188,0,6,,,,,,3,,45,0
275904,note_on,,,,,4,0,4,,,,,,1,,84,85
275904,note_on,,,,,4,0,8,,,,,,4,,69,100
275904,note_on,,,,,4,0,7,,,,,,3,,30,85
275904,note_on,,,,,40,0,5,,,,,,2,,60,85
275904,note_on,,,,,4,0,3,,,,,,0,,75,85
275904,note_on,,,,,4,0,6,,,,,,3,,42,85
275996,note_off,,,,,92,0,3,,,,,,0,,75,0
275996,note_off,,,,,92,0,8,,,,,,4,,69,0
276000,note_on,,,,,4,0,8,,,,,,4,,67,100
276000,note_on,,,,,4,0,3,,,,,,0,,72,85
276056,note_off,,,,,152,0,5,,,,,,2,,60,0
276092,note_off,,,,,188,0,6,,,,,,3,,42,0
276092,note_off,,,,,92,0,8,,,,,,4,,67,0
276092,note_off,,,,,92,0,3,,,,,,0,,72,0
276092,note_off,,,,,188,0,7,,,,,,3,,30,0
276096,note_on,,,,,4,0,8,,,,,,4,,69,100
276096,note_on,,,,,40,0,5,,,,,,2,,62,85
276096,note_on,,,,,4,0,7,,,,,,3,,26,85
276096,note_on,,,,,4,0,3,,,,,,0,,66,85
276096,note_on,,,,,4,0,6,,,,,,3,,38,85
276188,note_off,,,,,92,0,8,,,,,,4,,69,0
276192,note_on,,,,,4,0,8,,,,,,4,,63,100
276248,note_off,,,,,152,0,5,,,,,,2,,62,0
276284,note_off,,,,,188,0,7,,,,,,3,,26,0
276284,note_off,,,,,380,0,4,,,,,,1,,84,0
276284,note_off,,,,,92,0,8,,,,,,4,,63,0
276284,note_off,,,,,188,0,6,,,,,,3,,38,0
276284,note_off,,,,,188,0,3,,,,,,0,,66,0
276288,note_on,,,,,40,0,5,,,,,,2,,62,85
276288,note_on,,,,,4,0,4,,,,,,1,,81,85
276288,note_on,,,,,4,0,7,,,,,,3,,38,85
276288,note_on,,,,,4,0,8,,,,,,4,,62,100
276288,note_on,,,,,4,0,6,,,,,,3,,50,85
276288,note_on,,,,,4,0,3,,,,,,0,,78,85
276380,note_off,,,,,92,0,4,,,,,,1,,81,0
276380,note_off,,,,,92,0,8,,,,,,4,,62,0
276384,note_on,,,,,4,0,4,,,,,,1,,78,85
276384,note_on,,,,,4,0,8,,,,,,4,,60,100
276440,note_off,,,,,152,0,5,,,,,,2,,62,0
276476,note_off,,,,,92,0,4,,,,,,1,,78,0
276476,note_off,,,,,188,0,7,,,,,,3,,38,0
276476,note_off,,,,,188,0,6,,,,,,3,,50,0
276476,note_off,,,,,188,0,3,,,,,,0,,78,0
276476,note_off,,,,,92,0,8,,,,,,4,,60,0
276480,note_on,,,,,4,0,4,,,,,,1,,74,85
276480,note_on,,,,,40,0,5,,,,,,2,,62,85
276480,note_on,,,,,676,0,9,,,,,,4,,55,100
276480,note_on,,,,,4,0,3,,,,,,0,,79,85
276480,note_on,,,,,4,0,7,,,,,,3,,31,85
276480,note_on,,,,,4,0,6,,,,,,3,,43,85
276572,note_off,,,,,92,0,9,,,,,,4,,55,0
276576,note_on,,,,,100,0,8,,,,,,4,,62,100
276668,note_off,,,,,92,0,8,,,,,,4,,62,0
276668,note_off,,,,,188,0,3,,,,,,0,,79,0
276668,note_off,,,,,188,0,4,,,,,,1,,74,0
276672,note_on,,,,,4,0,3,,,,,,0,,74,85
276672,note_on,,,,,4,0,8,,,,,,4,,67,100
276672,note_on,,,,,4,0,4,,,,,,1,,70,85
276764,note_off,,,,,92,0,8,,,,,,4,,67,0
276768,note_on,,,,,4,0,8,,,,,,4,,66,100
276860,note_off,,,,,188,0,4,,,,,,1,,70,0
276860,note_off,,,,,188,0,3,,,,,,0,,74,0
276860,note_off,,,,,380,0,7,,,,,,3,,31,0
276860,note_off,,,,,380,0,5,,,,,,2,,62,0
276860,note_off,,,,,380,0,6,,,,,,3,,43,0
276860,note_off,,,,,92,0,8,,,,,,4,,66,0
276864,note_on,,,,,4,0,4,,,,,,1,,67,85
276864,note_on,,,,,4,0,3,,,,,,0,,70,85
276864,note_on,,,,,4,0,8,,,,,,4,,67,100
276864,note_on,,,,,4,0,5,,,,,,2,,55,85
276956,note_off,,,,,92,0,8,,,,,,4,,67,0
276960,note_on,,,,,4,0,8,,,,,,4,,63,100
277052,note_off,,,,,188,0,3,,,,,,0,,70,0
277052,note_off,,,,,92,0,8,,,,,,4,,63,0
277052,note_off,,,,,188,0,4,,,,,,1,,67,0
277056,note_on,,,,,4,0,3,,,,,,0,,74,85
277056,note_on,,,,,4,0,8,,,,,,4,,62,100
277056,note_on,,,,,4,0,4,,,,,,1,,70,85
277148,note_off,,,,,92,0,8,,,,,,4,,62,0
277152,note_on,,,,,4,0,8,,,,,,4,,60,100
277244,note_off,,,,,188,0,3,,,,,,0,,74,0
277244,note_off,,,,,188,0,4,,,,,,1,,70,0
277244,note_off,,,,,92,0,8,,,,,,4,,60,0
277244,note_off,,,,,380,0,5,,,,,,2,,55,0
277248,note_on,,,,,388,0,7,,,,,,3,,31,85
277248,note_on,,,,,4,0,3,,,,,,0,,79,85
277248,note_on,,,,,388,0,6,,,,,,3,,43,85
277248,note_on,,,,,676,0,9,,,,,,4,,55,100
277248,note_on,,,,,4,0,4,,,,,,1,,74,85
277340,note_off,,,,,92,0,9,,,,,,4,,55,0
277344,note_on,,,,,100,0,8,,,,,,4,,62,100
277436,note_off,,,,,188,0,3,,,,,,0,,79,0
277436,note_off,,,,,92,0,8,,,,,,4,,62,0
277436,note_off,,,,,188,0,4,,,,,,1,,74,0
277440,note_on,,,,,4,0,8,,,,,,4,,67,100
277440,note_on,,,,,4,0,3,,,,,,0,,74,85
277440,note_on,,,,,4,0,4,,,,,,1,,70,85
277532,note_off,,,,,92,0,8,,,,,,4,,67,0
277536,note_on,,,,,4,0,8,,,,,,4,,66,100
277628,note_off,,,,,92,0,8,,,,,,4,,66,0
277628,note_off,,,,,188,0,3,,,,,,0,,74,0
277628,note_off,,,,,380,0,6,,,,,,3,,43,0
277628,note_off,,,,,188,0,4,,,,,,1,,70,0
277628,note_off,,,,,380,0,7,,,,,,3,,31,0
277632,note_on,,,,,4,0,4,,,,,,1,,67,85
277632,note_on,,,,,388,0,5,,,,,,2,,55,85
277632,note_on,,,,,4,0,3,,,,,,0,,70,85
277632,note_on,,,,,4,0,8,,,,,,4,,67,100
277724,note_off,,,,,92,0,8,,,,,,4,,67,0
277728,note_on,,,,,4,0,8,,,,,,4,,60,100
277820,note_off,,,,,188,0,4,,,,,,1,,67,0
277820,note_off,,,,,92,0,8,,,,,,4,,60,0
277820,note_off,,,,,188,0,3,,,,,,0,,70,0
277824,note_on,,,,,4,0,8,,,,,,4,,58,100
277824,note_on,,,,,4,0,3,,,,,,0,,74,85
277824,note_on,,,,,4,0,4,,,,,,1,,70,85
277916,note_off,,,,,92,0,8,,,,,,4,,58,0
277920,note_on,,,,,4,0,8,,,,,,4,,57,100
278012,note_off,,,,,92,0,8,,,,,,4,,57,0
278012,note_off,,,,,188,0,4,,,,,,1,,70,0
278012,note_off,,,,,380,0,5,,,,,,2,,55,0
278016,note_on,,,,,676,0,9,,,,,,4,,56,100
278016,note_on,,,,,388,0,6,,,,,,3,,47,85
278016,note_on,,,,,4,0,4,,,,,,1,,77,85
278016,note_on,,,,,388,0,7,,,,,,3,,35,85
278016,note_on,,,,,4,0,5,,,,,,2,,62,85
278108,note_off,,,,,92,0,9,,,,,,4,,56,0
278112,note_on,,,,,100,0,8,,,,,,4,,65,100
278188,note_off,,,,,172,0,5,,,,,,2,,62,0
278204,note_off,,,,,380,0,3,,,,,,0,,74,0
278204,note_off,,,,,188,0,7,,,,,,3,,35,0
278204,note_off,,,,,188,0,4,,,,,,1,,77,0
278204,note_off,,,,,92,0,8,,,,,,4,,65,0
278204,note_off,,,,,188,0,6,,,,,,3,,47,0
278208,note_on,,,,,4,0,4,,,,,,1,,74,85
278208,note_on,,,,,4,0,6,,,,,,3,,50,85
278208,note_on,,,,,20,0,5,,,,,,2,,62,85
278208,note_on,,,,,4,0,3,,,,,,0,,65,85
278208,note_on,,,,,4,0,8,,,,,,4,,71,100
278208,note_on,,,,,4,0,7,,,,,,3,,38,85
278300,note_off,,,,,92,0,3,,,,,,0,,65,0
278300,note_off,,,,,92,0,8,,,,,,4,,71,0
278304,note_on,,,,,4,0,8,,,,,,4,,69,100
278304,note_on,,,,,4,0,3,,,,,,0,,62,85
278380,note_off,,,,,172,0,5,,,,,,2,,62,0
278396,note_off,,,,,92,0,3,,,,,,0,,62,0
278396,note_off,,,,,188,0,7,,,,,,3,,38,0
278396,note_off,,,,,188,0,6,,,,,,3,,50,0
278396,note_off,,,,,92,0,8,,,,,,4,,69,0
278400,note_on,,,,,4,0,8,,,,,,4,,71,100
278400,note_on,,,,,4,0,6,,,,,,3,,53,85
278400,note_on,,,,,20,0,5,,,,,,2,,62,85
278400,note_on,,,,,4,0,3,,,,,,0,,56,85
278400,note_on,,,,,4,0,7,,,,,,3,,41,85
278492,note_off,,,,,92,0,8,,,,,,4,,71,0
278496,note_on,,,,,4,0,8,,,,,,4,,65,100
278572,note_off,,,,,172,0,5,,,,,,2,,62,0
278588,note_off,,,,,188,0,7,,,,,,3,,41,0
278588,note_off,,,,,188,0,6,,,,,,3,,53,0
278588,note_off,,,,,380,0,4,,,,,,1,,74,0
278588,note_off,,,,,92,0,8,,,,,,4,,65,0
278588,note_off,,,,,188,0,3,,,,,,0,,56,0
278592,note_on,,,,,4,0,4,,,,,,1,,71,85
278592,note_on,,,,,4,0,8,,,,,,4,,64,100
278592,note_on,,,,,4,0,6,,,,,,3,,50,85
278592,note_on,,,,,4,0,7,,,,,,3,,38,85
278592,note_on,,,,,4,0,3,,,,,,0,,74,85
278592,note_on,,,,,20,0,5,,,,,,2,,62,85
278684,note_off,,,,,92,0,4,,,,,,1,,71,0
278684,note_off,,,,,92,0,8,,,,,,4,,64,0
278688,note_on,,,,,4,0,4,,,,,,1,,68,85
278688,note_on,,,,,4,0,8,,,,,,4,,62,100
278764,note_off,,,,,172,0,5,,,,,,2,,62,0
278780,note_off,,,,,92,0,8,,,,,,4,,62,0
278780,note_off,,,,,92,0,4,,,,,,1,,68,0
278780,note_off,,,,,188,0,6,,,,,,3,,50,0
278780,note_off,,,,,188,0,7,,,,,,3,,38,0
278784,note_on,,,,,4,0,6,,,,,,3,,47,85
278784,note_on,,,,,676,0,9,,,,,,4,,56,100
278784,note_on,,,,,4,0,4,,,,,,1,,56,85
278784,note_on,,,,,4,0,7,,,,,,3,,35,85
278784,note_on,,,,,20,0,5,,,,,,2,,62,85
278876,note_off,,,,,92,0,9,,,,,,4,,56,0
278880,note_on,,,,,100,0,8,,,,,,4,,65,100
278956,note_off,,,,,172,0,5,,,,,,2,,62,0
278972,note_off,,,,,188,0,6,,,,,,3,,47,0
278972,note_off,,,,,188,0,4,,,,,,1,,56,0
278972,note_off,,,,,380,0,3,,,,,,0,,74,0
278972,note_off,,,,,188,0,7,,,,,,3,,35,0
278972,note_off,,,,,92,0,8,,,,,,4,,65,0
278976,note_on,,,,,4,0,4,,,,,,1,,74,85
278976,note_on,,,,,4,0,7,,,,,,3,,32,85
278976,note_on,,,,,20,0,5,,,,,,2,,62,85
278976,note_on,,,,,4,0,6,,,,,,3,,44,85
278976,note_on,,,,,4,0,3,,,,,,0,,65,85
278976,note_on,,,,,4,0,8,,,,,,4,,71,100
279068,note_off,,,,,92,0,8,,,,,,4,,71,0
279068,note_off,,,,,92,0,3,,,,,,0,,65,0
279072,note_on,,,,,4,0,3,,,,,,0,,62,85
279072,note_on,,,,,4,0,8,,,,,,4,,69,100
279148,note_off,,,,,172,0,5,,,,,,2,,62,0
279164,note_off,,,,,92,0,8,,,,,,4,,69,0
279164,note_off,,,,,92,0,3,,,,,,0,,62,0
279164,note_off,,,,,188,0,7,,,,,,3,,32,0
279164,note_off,,,,,188,0,6,,,,,,3,,44,0
279168,note_on,,,,,20,0,5,,,,,,2,,64,85
279168,note_on,,,,,4,0,3,,,,,,0,,56,85
279168,note_on,,,,,4,0,8,,,,,,4,,71,100
279168,note_on,,,,,4,0,6,,,,,,3,,40,85
279168,note_on,,,,,4,0,7,,,,,,3,,28,85
279260,note_off,,,,,92,0,8,,,,,,4,,71,0
279264,note_on,,,,,4,0,8,,,,,,4,,65,100
279340,note_off,,,,,172,0,5,,,,,,2,,64,0
279356,note_off,,,,,380,0,4,,,,,,1,,74,0
279356,note_off,,,,,92,0,8,,,,,,4,,65,0
279356,note_off,,,,,188,0,3,,,,,,0,,56,0
279356,note_off,,,,,188,0,6,,,,,,3,,40,0
279356,note_off,,,,,188,0,7,,,,,,3,,28,0
279360,note_on,,,,,4,0,6,,,,,,3,,52,85
279360,note_on,,,,,4,0,8,,,,,,4,,64,100
279360,note_on,,,,,20,0,5,,,,,,2,,64,85
279360,note_on,,,,,4,0,4,,,,,,1,,71,85
279360,note_on,,,,,4,0,3,,,,,,0,,76,85
279360,note_on,,,,,4,0,7,,,,,,3,,40,85
279452,note_off,,,,,92,0,8,,,,,,4,,64,0
279452,note_off,,,,,92,0,4,,,,,,1,,71,0
279456,note_on,,,,,4,0,8,,,,,,4,,62,100
279456,note_on,,,,,4,0,4,,,,,,1,,68,85
279532,note_off,,,,,172,0,5,,,,,,2,,64,0
279548,note_off,,,,,92,0,8,,,,,,4,,62,0
279548,note_off,,,,,188,0,6,,,,,,3,,52,0
279548,note_off,,,,,188,0,7,,,,,,3,,40,0
279548,note_off,,,,,92,0,4,,,,,,1,,68,0
279552,note_on,,,,,20,0,5,,,,,,2,,64,85
279552,note_on,,,,,4,0,4,,,,,,1,,69,85
279552,note_on,,,,,4,0,8,,,,,,4,,61,100
279552,note_on,,,,,4,0,7,,,,,,3,,33,85
279552,note_on,,,,,4,0,6,,,,,,3,,45,85
279552,note_on,,,,,676,0,9,,,,,,4,,57,100
279644,note_off,,,,,92,0,9,,,,,,4,,57,0
279644,note_off,,,,,92,0,8,,,,,,4,,61,0
279648,note_on,,,,,4,0,8,,,,,,4,,70,100
279724,note_off,,,,,172,0,5,,,,,,2,,64,0
279740,note_off,,,,,188,0,7,,,,,,3,,33,0
279740,note_off,,,,,188,0,6,,,,,,3,,45,0
279740,note_off,,,,,92,0,8,,,,,,4,,70,0
279740,note_off,,,,,380,0,3,,,,,,0,,76,0
279740,note_off,,,,,188,0,4,,,,,,1,,69,0
279744,note_on,,,,,20,0,5,,,,,,2,,64,85
279744,note_on,,,,,4,0,8,,,,,,4,,76,100
279744,note_on,,,,,4,0,7,,,,,,3,,43,85
279744,note_on,,,,,4,0,3,,,,,,0,,70,85
279744,note_on,,,,,4,0,4,,,,,,1,,67,85
279744,note_on,,,,,4,0,6,,,,,,3,,55,85
279836,note_off,,,,,92,0,8,,,,,,4,,76,0
279836,note_off,,,,,92,0,3,,,,,,0,,70,0
279840,note_on,,,,,4,0,8,,,,,,4,,74,100
279840,note_on,,,,,4,0,3,,,,,,0,,67,85
279916,note_off,,,,,172,0,5,,,,,,2,,64,0
279932,note_off,,,,,188,0,6,,,,,,3,,55,0
279932,note_off,,,,,188,0,7,,,,,,3,,43,0
279932,note_off,,,,,92,0,8,,,,,,4,,74,0
279932,note_off,,,,,92,0,3,,,,,,0,,67,0
279936,note_on,,,,,4,0,3,,,,,,0,,61,85
279936,note_on,,,,,4,0,7,,,,,,3,,46,85
279936,note_on,,,,,4,0,6,,,,,,3,,58,85
279936,note_on,,,,,20,0,5,,,,,,2,,67,85
279936,note_on,,,,,4,0,8,,,,,,4,,76,100
280028,note_off,,,,,92,0,8,,,,,,4,,76,0
280032,note_on,,,,,4,0,8,,,,,,4,,70,100
280108,note_off,,,,,172,0,5,,,,,,2,,67,0
280124,note_off,,,,,188,0,7,,,,,,3,,46,0
280124,note_off,,,,,188,0,6,,,,,,3,,58,0
280124,note_off,,,,,188,0,3,,,,,,0,,61,0
280124,note_off,,,,,92,0,8,,,,,,4,,70,0
280124,note_off,,,,,380,0,4,,,,,,1,,67,0
280128,note_on,,,,,20,0,5,,,,,,2,,67,85
280128,note_on,,,,,4,0,8,,,,,,4,,69,100
280128,note_on,,,,,4,0,6,,,,,,3,,55,85
280128,note_on,,,,,4,0,7,,,,,,3,,43,85
280128,note_on,,,,,4,0,3,,,,,,0,,76,85
280128,note_on,,,,,4,0,4,,,,,,1,,64,85
280220,note_off,,,,,92,0,4,,,,,,1,,64,0
280220,note_off,,,,,92,0,8,,,,,,4,,69,0
280224,note_on,,,,,4,0,4,,,,,,1,,61,85
280224,note_on,,,,,4,0,8,,,,,,4,,67,100
280300,note_off,,,,,172,0,5,,,,,,2,,67,0
280316,note_off,,,,,188,0,7,,,,,,3,,43,0
280316,note_off,,,,,92,0,8,,,,,,4,,67,0
280316,note_off,,,,,92,0,4,,,,,,1,,61,0
280316,note_off,,,,,188,0,6,,,,,,3,,55,0
280320,note_on,,,,,4,0,7,,,,,,3,,40,85
280320,note_on,,,,,4,0,4,,,,,,1,,57,85
280320,note_on,,,,,4,0,6,,,,,,3,,52,85
280320,note_on,,,,,676,0,9,,,,,,4,,57,100
280320,note_on,,,,,4,0,8,,,,,,4,,61,100
280320,note_on,,,,,20,0,5,,,,,,2,,67,85
280412,note_off,,,,,92,0,9,,,,,,4,,57,0
280412,note_off,,,,,92,0,8,,,,,,4,,61,0
280416,note_on,,,,,4,0,8,,,,,,4,,70,100
280492,note_off,,,,,172,0,5,,,,,,2,,67,0
280508,note_off,,,,,380,0,3,,,,,,0,,76,0
280508,note_off,,,,,188,0,6,,,,,,3,,52,0
280508,note_off,,,,,92,0,8,,,,,,4,,70,0
280508,note_off,,,,,188,0,4,,,,,,1,,57,0
280508,note_off,,,,,188,0,7,,,,,,3,,40,0
280512,note_on,,,,,4,0,7,,,,,,3,,37,85
280512,note_on,,,,,20,0,5,,,,,,2,,67,85
280512,note_on,,,,,4,0,3,,,,,,0,,70,85
280512,note_on,,,,,4,0,8,,,,,,4,,76,100
280512,note_on,,,,,4,0,6,,,,,,3,,49,85
280512,note_on,,,,,4,0,4,,,,,,1,,67,85
280604,note_off,,,,,92,0,8,,,,,,4,,76,0
280604,note_off,,,,,92,0,3,,,,,,0,,70,0
280608,note_on,,,,,4,0,3,,,,,,0,,67,85
280608,note_on,,,,,4,0,8,,,,,,4,,74,100
280684,note_off,,,,,172,0,5,,,,,,2,,67,0
280700,note_off,,,,,188,0,6,,,,,,3,,49,0
280700,note_off,,,,,92,0,3,,,,,,0,,67,0
280700,note_off,,,,,188,0,7,,,,,,3,,37,0
280700,note_off,,,,,92,0,8,,,,,,4,,74,0
280704,note_on,,,,,4,0,3,,,,,,0,,61,85
280704,note_on,,,,,4,0,7,,,,,,3,,33,85
280704,note_on,,,,,4,0,6,,,,,,3,,45,85
280704,note_on,,,,,20,0,5,,,,,,2,,69,85
280704,note_on,,,,,4,0,8,,,,,,4,,76,100
280796,note_off,,,,,92,0,8,,,,,,4,,76,0
280800,note_on,,,,,4,0,8,,,,,,4,,70,100
280876,note_off,,,,,172,0,5,,,,,,2,,69,0
280892,note_off,,,,,188,0,3,,,,,,0,,61,0
280892,note_off,,,,,380,0,4,,,,,,1,,67,0
280892,note_off,,,,,92,0,8,,,,,,4,,70,0
280892,note_off,,,,,188,0,7,,,,,,3,,33,0
280892,note_off,,,,,188,0,6,,,,,,3,,45,0
280896,note_on,,,,,20,0,5,,,,,,2,,69,85
280896,note_on,,,,,4,0,8,,,,,,4,,69,100
280896,note_on,,,,,4,0,4,,,,,,1,,64,85
280896,note_on,,,,,4,0,7,,,,,,3,,45,85
280896,note_on,,,,,4,0,3,,,,,,0,,81,85
280896,note_on,,,,,4,0,6,,,,,,3,,57,85
280988,note_off,,,,,92,0,4,,,,,,1,,64,0
280988,note_off,,,,,92,0,8,,,,,,4,,69,0
280992,note_on,,,,,4,0,4,,,,,,1,,61,85
280992,note_on,,,,,4,0,8,,,,,,4,,67,100
281040,note_off,,,,,144,0,3,,,,,,0,,81,0
281068,note_off,,,,,172,0,5,,,,,,2,,69,0
281084,note_off,,,,,92,0,8,,,,,,4,,67,0
281084,note_off,,,,,92,0,4,,,,,,1,,61,0
281084,note_off,,,,,188,0,6,,,,,,3,,57,0
281084,note_off,,,,,188,0,7,,,,,,3,,45,0
281088,note_on,,,,,4,0,4,,,,,,1,,74,85
281088,note_on,,,,,4,0,7,,,,,,3,,38,85
281088,note_on,,,,,20,0,5,,,,,,2,,69,85
281088,note_on,,,,,4,0,6,,,,,,3,,50,85
281088,note_on,,,,,0,0,9,,,,,,4,,62,100
281088,note_on,,,,,676,0,9,,,,,,4,,65,100
281088,note_on,,,,,48,0,3,,,,,,0,,81,85
281180,note_off,,,,,0,0,9,,,,,,4,,62,0
281180,note_off,,,,,92,0,9,,,,,,4,,65,0
281184,note_on,,,,,100,0,8,,,,,,4,,69,100
281232,note_off,,,,,144,0,3,,,,,,0,,81,0
281232,note_off,,,,,144,0,4,,,,,,1,,74,0
281276,note_off,,,,,92,0,8,,,,,,4,,69,0
281280,note_on,,,,,4,0,8,,,,,,4,,74,100
281280,note_on,,,,,48,0,4,,,,,,1,,69,85
281280,note_on,,,,,48,0,3,,,,,,0,,77,85
281372,note_off,,,,,92,0,8,,,,,,4,,74,0
281376,note_off,,,,,288,0,5,,,,,,2,,69,0
281376,note_off,,,,,288,0,6,,,,,,3,,50,0
281376,note_off,,,,,288,0,7,,,,,,3,,38,0
281376,note_on,,,,,4,0,8,,,,,,4,,73,100
281424,note_off,,,,,144,0,3,,,,,,0,,77,0
281424,note_off,,,,,144,0,4,,,,,,1,,69,0
281468,note_off,,,,,92,0,8,,,,,,4,,73,0
281472,note_on,,,,,4,0,8,,,,,,4,,74,100
281472,note_on,,,,,96,0,5,,,,,,2,,62,85
281472,note_on,,,,,48,0,4,,,,,,1,,65,85
281472,note_on,,,,,48,0,3,,,,,,0,,74,85
281564,note_off,,,,,92,0,8,,,,,,4,,74,0
281568,note_on,,,,,4,0,8,,,,,,4,,67,100
281616,note_off,,,,,144,0,4,,,,,,1,,65,0
281616,note_off,,,,,144,0,3,,,,,,0,,74,0
281660,note_off,,,,,92,0,8,,,,,,4,,67,0
281664,note_on,,,,,4,0,8,,,,,,4,,65,100
281664,note_on,,,,,48,0,3,,,,,,0,,77,85
281664,note_on,,,,,48,0,4,,,,,,1,,69,85
281756,note_off,,,,,92,0,8,,,,,,4,,65,0
281760,note_off,,,,,288,0,5,,,,,,2,,62,0
281760,note_on,,,,,4,0,8,,,,,,4,,64,100
281808,note_off,,,,,144,0,3,,,,,,0,,77,0
281808,note_off,,,,,144,0,4,,,,,,1,,69,0
281852,note_off,,,,,92,0,8,,,,,,4,,64,0
281856,note_on,,,,,676,0,9,,,,,,4,,53,100
281856,note_on,,,,,480,0,6,,,,,,3,,48,85
281856,note_on,,,,,48,0,4,,,,,,1,,74,85
281856,note_on,,,,,480,0,7,,,,,,3,,36,85
281856,note_on,,,,,48,0,3,,,,,,0,,81,85
281856,note_on,,,,,0,0,9,,,,,,4,,62,100
281948,note_off,,,,,0,0,9,,,,,,4,,62,0
281948,note_off,,,,,92,0,9,,,,,,4,,53,0
281952,note_on,,,,,100,0,8,,,,,,4,,69,100
282000,note_off,,,,,144,0,3,,,,,,0,,81,0
282000,note_off,,,,,144,0,4,,,,,,1,,74,0
282044,note_off,,,,,92,0,8,,,,,,4,,69,0
282048,note_on,,,,,48,0,3,,,,,,0,,77,85
282048,note_on,,,,,4,0,8,,,,,,4,,74,100
282048,note_on,,,,,48,0,4,,,,,,1,,69,85
282140,note_off,,,,,92,0,8,,,,,,4,,74,0
282144,note_off,,,,,288,0,7,,,,,,3,,36,0
282144,note_off,,,,,288,0,6,,,,,,3,,48,0
282144,note_on,,,,,4,0,8,,,,,,4,,73,100
282192,note_off,,,,,144,0,3,,,,,,0,,77,0
282192,note_off,,,,,144,0,4,,,,,,1,,69,0
282236,note_off,,,,,92,0,8,,,,,,4,,73,0
282240,note_on,,,,,480,0,5,,,,,,2,,60,85
282240,note_on,,,,,48,0,4,,,,,,1,,65,85
282240,note_on,,,,,48,0,3,,,,,,0,,74,85
282240,note_on,,,,,4,0,8,,,,,,4,,74,100
282332,note_off,,,,,92,0,8,,,,,,4,,74,0
282336,note_on,,,,,388,0,9,,,,,,4,,64,100
282384,note_off,,,,,144,0,4,,,,,,1,,65,0
282384,note_off,,,,,144,0,3,,,,,,0,,74,0
282428,note_off,,,,,92,0,9,,,,,,4,,64,0
282432,note_on,,,,,4,0,9,,,,,,4,,62,100
282432,note_on,,,,,48,0,4,,,,,,1,,69,85
282432,note_on,,,,,48,0,3,,,,,,0,,77,85
282524,note_off,,,,,92,0,9,,,,,,4,,62,0
282528,note_on,,,,,4,0,9,,,,,,4,,60,100
282528,note_off,,,,,288,0,5,,,,,,2,,60,0
282576,note_off,,,,,144,0,4,,,,,,1,,69,0
282576,note_off,,,,,144,0,3,,,,,,0,,77,0
282620,note_off,,,,,92,0,9,,,,,,4,,60,0
282624,note_on,,,,,48,0,3,,,,,,0,,82,85
282624,note_on,,,,,4,0,9,,,,,,4,,46,100
282624,note_on,,,,,0,0,9,,,,,,4,,58,100
282624,note_on,,,,,480,0,7,,,,,,3,,34,85
282624,note_on,,,,,480,0,6,,,,,,3,,46,85
282624,note_on,,,,,48,0,4,,,,,,1,,74,85
282716,note_off,,,,,92,0,9,,,,,,4,,46,0
282716,note_off,,,,,0,0,9,,,,,,4,,58,0
282720,note_on,,,,,388,0,8,,,,,,4,,65,100
282768,note_off,,,,,144,0,4,,,,,,1,,74,0
282768,note_off,,,,,144,0,3,,,,,,0,,82,0
282812,note_off,,,,,92,0,8,,,,,,4,,65,0
282816,note_on,,,,,48,0,3,,,,,,0,,77,85
282816,note_on,,,,,4,0,8,,,,,,4,,74,100
282816,note_on,,,,,48,0,4,,,,,,1,,70,85
282908,note_off,,,,,92,0,8,,,,,,4,,74,0
282912,note_off,,,,,288,0,6,,,,,,3,,46,0
282912,note_off,,,,,288,0,7,,,,,,3,,34,0
282912,note_on,,,,,4,0,8,,,,,,4,,73,100
282960,note_off,,,,,144,0,3,,,,,,0,,77,0
282960,note_off,,,,,144,0,4,,,,,,1,,70,0
283004,note_off,,,,,92,0,8,,,,,,4,,73,0
283008,note_on,,,,,48,0,3,,,,,,0,,74,85
283008,note_on,,,,,480,0,5,,,,,,2,,58,85
283008,note_on,,,,,48,0,4,,,,,,1,,65,85
283008,note_on,,,,,4,0,8,,,,,,4,,74,100
283100,note_off,,,,,92,0,8,,,,,,4,,74,0
283104,note_on,,,,,388,0,9,,,,,,4,,58,100
283152,note_off,,,,,144,0,3,,,,,,0,,74,0
283152,note_off,,,,,144,0,4,,,,,,1,,65,0
283196,note_off,,,,,92,0,9,,,,,,4,,58,0
283200,note_on,,,,,48,0,4,,,,,,1,,70,85
283200,note_on,,,,,48,0,3,,,,,,0,,77,85
283200,note_on,,,,,4,0,9,,,,,,4,,57,100
283292,note_off,,,,,92,0,9,,,,,,4,,57,0
283296,note_off,,,,,288,0,5,,,,,,2,,58,0
283296,note_on,,,,,4,0,9,,,,,,4,,55,100
283344,note_off,,,,,144,0,4,,,,,,1,,70,0
283344,note_off,,,,,144,0,3,,,,,,0,,77,0
283388,note_off,,,,,92,0,9,,,,,,4,,55,0
283392,note_on,,,,,48,0,3,,,,,,0,,81,85
283392,note_on,,,,,480,0,6,,,,,,3,,45,85
283392,note_on,,,,,4,0,9,,,,,,4,,41,100
283392,note_on,,,,,0,0,9,,,,,,4,,53,100
283392,note_on,,,,,48,0,4,,,,,,1,,74,85
283392,note_on,,,,,480,0,7,,,,,,3,,33,85
283484,note_off,,,,,92,0,9,,,,,,4,,41,0
283484,note_off,,,,,0,0,9,,,,,,4,,53,0
283488,note_on,,,,,388,0,8,,,,,,4,,69,100
283536,note_off,,,,,144,0,3,,,,,,0,,81,0
283536,note_off,,,,,144,0,4,,,,,,1,,74,0
283580,note_off,,,,,92,0,8,,,,,,4,,69,0
283584,note_on,,,,,4,0,8,,,,,,4,,74,100
283584,note_on,,,,,48,0,3,,,,,,0,,77,85
283584,note_on,,,,,48,0,4,,,,,,1,,69,85
283676,note_off,,,,,92,0,8,,,,,,4,,74,0
283680,note_on,,,,,4,0,8,,,,,,4,,73,100
283680,note_off,,,,,288,0,7,,,,,,3,,33,0
283680,note_off,,,,,288,0,6,,,,,,3,,45,0
283728,note_off,,,,,144,0,3,,,,,,0,,77,0
283728,note_off,,,,,144,0,4,,,,,,1,,69,0
283772,note_off,,,,,92,0,8,,,,,,4,,73,0
283776,note_on,,,,,480,0,5,,,,,,2,,57,85
283776,note_on,,,,,4,0,8,,,,,,4,,74,100
283776,note_on,,,,,48,0,4,,,,,,1,,65,85
283776,note_on,,,,,48,0,3,,,,,,0,,74,85
283868,note_off,,,,,92,0,8,,,,,,4,,74,0
283872,note_on,,,,,4,0,8,,,,,,4,,69,100
283920,note_off,,,,,144,0,4,,,,,,1,,65,0
283920,note_off,,,,,144,0,3,,,,,,0,,74,0
283964,note_off,,,,,92,0,8,,,,,,4,,69,0
283968,note_on,,,,,4,0,8,,,,,,4,,67,100
283968,note_on,,,,,48,0,4,,,,,,1,,69,85
283968,note_on,,,,,48,0,3,,,,,,0,,77,85
284060,note_off,,,,,92,0,8,,,,,,4,,67,0
284064,note_off,,,,,288,0,5,,,,,,2,,57,0
284064,note_on,,,,,4,0,8,,,,,,4,,65,100
284112,note_off,,,,,144,0,4,,,,,,1,,69,0
284112,note_off,,,,,144,0,3,,,,,,0,,77,0
284156,note_off,,,,,92,0,8,,,,,,4,,65,0
284160,note_on,,,,,480,0,6,,,,,,3,,43,85
284160,note_on,,,,,48,0,3,,,,,,0,,76,85
284160,note_on,,,,,4,0,8,,,,,,4,,70,100
284160,note_on,,,,,48,0,4,,,,,,1,,58,85
284160,note_on,,,,,0,0,9,,,,,,4,,43,100
284160,note_on,,,,,676,0,9,,,,,,4,,55,100
284160,note_on,,,,,480,0,7,,,,,,3,,31,85
284252,note_off,,,,,92,0,8,,,,,,4,,70,0
284256,note_on,,,,,4,0,8,,,,,,4,,67,100
284348,note_off,,,,,188,0,4,,,,,,1,,58,0
284348,note_off,,,,,92,0,8,,,,,,4,,67,0
284348,note_off,,,,,188,0,9,,,,,,4,,55,0
284348,note_off,,,,,188,0,3,,,,,,0,,76,0
284348,note_off,,,,,0,0,9,,,,,,4,,43,0
284352,note_on,,,,,4,0,3,,,,,,0,,74,85
284352,note_on,,,,,4,0,4,,,,,,1,,62,85
284352,note_on,,,,,4,0,8,,,,,,4,,65,100
284444,note_off,,,,,92,0,8,,,,,,4,,65,0
284448,note_on,,,,,4,0,8,,,,,,4,,64,100
284480,note_off,,,,,128,0,3,,,,,,0,,74,0
284480,note_off,,,,,128,0,4,,,,,,1,,62,0
284540,note_off,,,,,380,0,6,,,,,,3,,43,0
284540,note_off,,,,,92,0,8,,,,,,4,,64,0
284540,note_off,,,,,380,0,7,,,,,,3,,31,0
284544,note_on,,,,,64,0,3,,,,,,0,,73,85
284544,note_on,,,,,4,0,8,,,,,,4,,67,100
284544,note_on,,,,,64,0,4,,,,,,1,,64,85
284544,note_on,,,,,480,0,5,,,,,,2,,55,85
284636,note_off,,,,,92,0,8,,,,,,4,,67,0
284640,note_on,,,,,4,0,8,,,,,,4,,64,100
284732,note_off,,,,,188,0,3,,,,,,0,,73,0
284732,note_off,,,,,188,0,4,,,,,,1,,64,0
284732,note_off,,,,,92,0,8,,,,,,4,,64,0
284736,note_on,,,,,4,0,4,,,,,,1,,65,85
284736,note_on,,,,,4,0,8,,,,,,4,,62,100
284736,note_on,,,,,4,0,3,,,,,,0,,74,85
284828,note_off,,,,,92,0,8,,,,,,4,,62,0
284832,note_on,,,,,4,0,8,,,,,,4,,61,100
284864,note_off,,,,,128,0,4,,,,,,1,,65,0
284864,note_off,,,,,128,0,3,,,,,,0,,74,0
284924,note_off,,,,,92,0,8,,,,,,4,,61,0
284924,note_off,,,,,380,0,5,,,,,,2,,55,0
284928,note_on,,,,,64,0,3,,,,,,0,,70,85
284928,note_on,,,,,388,0,7,,,,,,3,,25,85
284928,note_on,,,,,4,0,8,,,,,,4,,64,100
284928,note_on,,,,,580,0,9,,,,,,4,,49,100
284928,note_on,,,,,64,0,4,,,,,,1,,64,85
284928,note_on,,,,,0,0,9,,,,,,4,,55,100
284928,note_on,,,,,388,0,6,,,,,,3,,37,85
285020,note_off,,,,,92,0,8,,,,,,4,,64,0
285024,note_on,,,,,4,0,8,,,,,,4,,61,100
285116,note_off,,,,,188,0,3,,,,,,0,,70,0
285116,note_off,,,,,0,0,9,,,,,,4,,55,0
285116,note_off,,,,,188,0,9,,,,,,4,,49,0
285116,note_off,,,,,92,0,8,,,,,,4,,61,0
285116,note_off,,,,,188,0,4,,,,,,1,,64,0
285120,note_on,,,,,4,0,8,,,,,,4,,59,100
285120,note_on,,,,,4,0,3,,,,,,0,,76,85
285120,note_on,,,,,4,0,4,,,,,,1,,67,85
285212,note_off,,,,,92,0,8,,,,,,4,,59,0
285216,note_on,,,,,4,0,8,,,,,,4,,57,100
285248,note_off,,,,,128,0,3,,,,,,0,,76,0
285248,note_off,,,,,128,0,4,,,,,,1,,67,0
285308,note_off,,,,,380,0,7,,,,,,3,,25,0
285308,note_off,,,,,380,0,6,,,,,,3,,37,0
285308,note_off,,,,,92,0,8,,,,,,4,,57,0
285312,note_on,,,,,64,0,3,,,,,,0,,79,85
285312,note_on,,,,,64,0,4,,,,,,1,,61,85
285312,note_on,,,,,388,0,5,,,,,,2,,52,85
285312,note_on,,,,,4,0,8,,,,,,4,,58,100
285404,note_off,,,,,92,0,8,,,,,,4,,58,0
285408,note_on,,,,,4,0,8,,,,,,4,,55,100
285500,note_off,,,,,92,0,8,,,,,,4,,55,0
285500,note_off,,,,,188,0,5,,,,,,2,,52,0
285500,note_off,,,,,188,0,4,,,,,,1,,61,0
285500,note_off,,,,,188,0,3,,,,,,0,,79,0
285504,note_on,,,,,4,0,3,,,,,,0,,70,85
285504,note_on,,,,,4,0,4,,,,,,1,,67,85
285504,note_on,,,,,4,0,8,,,,,,4,,53,100
285504,note_on,,,,,4,0,5,,,,,,2,,61,85
285596,note_off,,,,,92,0,8,,,,,,4,,53,0
285600,note_on,,,,,4,0,8,,,,,,4,,52,100
285632,note_off,,,,,128,0,4,,,,,,1,,67,0
285632,note_off,,,,,128,0,3,,,,,,0,,70,0
285692,note_off,,,,,92,0,8,,,,,,4,,52,0
285692,note_off,,,,,188,0,5,,,,,,2,,61,0
285696,note_on,,,,,4,0,8,,,,,,4,,53,100
285696,note_on,,,,,64,0,3,,,,,,0,,69,85
285696,note_on,,,,,388,0,7,,,,,,3,,26,85
285696,note_on,,,,,4,0,5,,,,,,2,,62,85
285696,note_on,,,,,388,0,6,,,,,,3,,38,85
285696,note_on,,,,,64,0,4,,,,,,1,,65,85
285696,note_on,,,,,580,0,9,,,,,,4,,50,100
285788,note_off,,,,,92,0,8,,,,,,4,,53,0
285792,note_on,,,,,4,0,8,,,,,,4,,57,100
285884,note_off,,,,,188,0,4,,,,,,1,,65,0
285884,note_off,,,,,188,0,5,,,,,,2,,62,0
285884,note_off,,,,,92,0,8,,,,,,4,,57,0
285884,note_off,,,,,188,0,3,,,,,,0,,69,0
285888,note_on,,,,,4,0,8,,,,,,4,,62,100
285980,note_off,,,,,92,0,8,,,,,,4,,62,0
285984,note_on,,,,,4,0,8,,,,,,4,,61,100
286076,note_off,,,,,92,0,8,,,,,,4,,61,0
286076,note_off,,,,,380,0,9,,,,,,4,,50,0
286076,note_off,,,,,380,0,6,,,,,,3,,38,0
286076,note_off,,,,,380,0,7,,,,,,3,,26,0
286080,note_on,,,,,4,0,8,,,,,,4,,62,100
286172,note_off,,,,,92,0,8,,,,,,4,,62,0
286176,note_on,,,,,4,0,8,,,,,,4,,57,100
286268,note_off,,,,,92,0,8,,,,,,4,,57,0
286272,note_on,,,,,196,0,7,,,,,,3,,38,85
286272,note_on,,,,,4,0,8,,,,,,4,,65,100
286272,note_on,,,,,196,0,6,,,,,,3,,50,85
286272,note_on,,,,,196,0,9,,,,,,4,,38,100
286364,note_off,,,,,92,0,8,,,,,,4,,65,0
286364,note_off,,,,,92,0,7,,,,,,3,,38,0
286364,note_off,,,,,92,0,6,,,,,,3,,50,0
286364,note_off,,,,,92,0,9,,,,,,4,,38,0
286368,note_on,,,,,4,0,6,,,,,,3,,52,85
286368,note_on,,,,,4,0,7,,,,,,3,,40,85
286368,note_on,,,,,4,0,8,,,,,,4,,62,100
286368,note_on,,,,,4,0,9,,,,,,4,,40,100
286460,note_off,,,,,92,0,8,,,,,,4,,62,0
286460,note_off,,,,,92,0,9,,,,,,4,,40,0
286460,note_off,,,,,92,0,7,,,,,,3,,40,0
286460,note_off,,,,,92,0,6,,,,,,3,,52,0
286464,note_on,,,,,4,0,8,,,,,,4,,69,100
286464,note_on,,,,,4,0,6,,,,,,3,,53,85
286464,note_on,,,,,4,0,7,,,,,,3,,41,85
286464,note_on,,,,,4,0,9,,,,,,4,,41,100
286592,note_off,,,,,128,0,6,,,,,,3,,53,0
286592,note_off,,,,,128,0,7,,,,,,3,,41,0
286652,note_off,,,,,188,0,9,,,,,,4,,41,0
286652,note_off,,,,,188,0,8,,,,,,4,,69,0
286656,note_on,,,,,4,0,9,,,,,,4,,45,100
286656,note_on,,,,,64,0,7,,,,,,3,,43,85
286656,note_on,,,,,64,0,6,,,,,,3,,55,85
286656,note_on,,,,,4,0,8,,,,,,4,,62,100
286700,note_off,,,,,44,0,9,,,,,,4,,45,0
286708,note_on,,,,,8,0,9,,,,,,4,,43,100
286752,note_off,,,,,44,0,9,,,,,,4,,43,0
286752,note_on,,,,,0,0,9,,,,,,4,,41,100
286784,note_off,,,,,128,0,7,,,,,,3,,43,0
286784,note_off,,,,,128,0,6,,,,,,3,,55,0
286796,note_off,,,,,44,0,9,,,,,,4,,41,0
286800,note_on,,,,,4,0,9,,,,,,4,,43,100
286844,note_off,,,,,44,0,9,,,,,,4,,43,0
286844,note_off,,,,,188,0,8,,,,,,4,,62,0
286848,note_on,,,,,4,0,9,,,,,,4,,45,100
286848,note_on,,,,,64,0,6,,,,,,3,,57,85
286848,note_on,,,,,4,0,8,,,,,,4,,57,100
286848,note_on,,,,,64,0,7,,,,,,3,,45,85
286976,note_off,,,,,128,0,6,,,,,,3,,57,0
286976,note_off,,,,,128,0,7,,,,,,3,,45,0
287036,note_off,,,,,188,0,8,,,,,,4,,57,0
287036,note_off,,,,,188,0,9,,,,,,4,,45,0
287040,note_on,,,,,64,0,7,,,,,,3,,33,85
287040,note_on,,,,,4,0,8,,,,,,4,,61,100
287040,note_on,,,,,4,0,9,,,,,,4,,33,100
287040,note_on,,,,,64,0,6,,,,,,3,,45,85
287168,note_off,,,,,128,0,7,,,,,,3,,33,0
287168,note_off,,,,,128,0,6,,,,,,3,,45,0
287228,note_off,,,,,188,0,8,,,,,,4,,61,0
287228,note_off,,,,,188,0,9,,,,,,4,,33,0
287232,note_on,,,,,4,0,8,,,,,,4,,62,100
287232,note_on,,,,,1348,0,3,,,,,,0,,62,100
287232,note_on,,,,,64,0,6,,,,,,3,,50,100
287232,note_on,,,,,64,0,7,,,,,,3,,38,100
287232,note_on,,,,,1348,0,4,,,,,,1,,62,100
287232,note_on,,,,,0,0,9,,,,,,4,,38,100
287232,note_on,,,,,4,0,9,,,,,,4,,50,100
287232,note_on,,,,,1348,0,5,,,,,,2,,62,100
287328,note_off,,,,,96,0,6,,,,,,3,,50,0
287328,note_off,,,,,96,0,7,,,,,,3,,38,0
287328,note_on,,,,,0,0,7,,,,,,3,,40,100
287328,note_on,,,,,0,0,6,,,,,,3,,52,100
287328,note_off,,,,,96,0,4,,,,,,1,,62,0
287328,note_on,,,,,0,0,8,,,,,,4,,64,100
287328,note_on,,,,,0,0,4,,,,,,1,,64,100
287328,note_off,,,,,96,0,3,,,,,,0,,62,0
287328,note_on,,,,,0,0,3,,,,,,0,,64,100
287328,note_on,,,,,0,0,9,,,,,,4,,52,100
287328,note_off,,,,,96,0,9,,,,,,4,,50,0
287328,note_off,,,,,96,0,8,,,,,,4,,62,0
287328,note_off,,,,,96,0,5,,,,,,2,,62,0
287328,note_on,,,,,0,0,5,,,,,,2,,64,100
287424,note_off,,,,,96,0,5,,,,,,2,,64,0
287424,note_on,,,,,0,0,5,,,,,,2,,65,100
287424,note_off,,,,,96,0,7,,,,,,3,,40,0
287424,note_on,,,,,0,0,3,,,,,,0,,65,100
287424,note_off,,,,,96,0,3,,,,,,0,,64,0
287424,note_on,,,,,0,0,9,,,,,,4,,53,100
287424,note_on,,,,,0,0,6,,,,,,3,,53,100
287424,note_off,,,,,96,0,6,,,,,,3,,52,0
287424,note_on,,,,,0,0,7,,,,,,3,,41,100
287424,note_off,,,,,96,0,9,,,,,,4,,52,0
287424,note_on,,,,,0,0,4,,,,,,1,,65,100
287424,note_on,,,,,0,0,8,,,,,,4,,65,100
287424,note_off,,,,,96,0,4,,,,,,1,,64,0
287424,note_off,,,,,96,0,8,,,,,,4,,64,0
287552,note_off,,,,,128,0,5,,,,,,2,,65,0
287552,note_off,,,,,128,0,3,,,,,,0,,65,0
287552,note_off,,,,,128,0,9,,,,,,4,,53,0
287552,note_off,,,,,128,0,8,,,,,,4,,65,0
287552,note_off,,,,,128,0,7,,,,,,3,,41,0
287552,note_off,,,,,128,0,4,,,,,,1,,65,0
287552,note_off,,,,,128,0,6,,,,,,3,,53,0
287612,note_off,,,,,60,0,9,,,,,,4,,38,0
287616,note_on,,,,,64,0,5,,,,,,2,,64,100
287616,note_on,,,,,64,0,3,,,,,,0,,64,100
287616,note_on,,,,,64,0,4,,,,,,1,,64,100
287616,note_on,,,,,64,0,7,,,,,,3,,40,100
287616,note_on,,,,,4,0,9,,,,,,4,,52,100
287616,note_on,,,,,64,0,8,,,,,,4,,64,100
287616,note_on,,,,,64,0,6,,,,,,3,,52,100
287808,note_off,,,,,192,0,6,,,,,,3,,52,0
287808,note_on,,,,,0,0,6,,,,,,3,,50,100
287808,note_off,,,,,192,0,8,,,,,,4,,64,0
287808,note_on,,,,,0,0,8,,,,,,4,,62,100
287808,note_off,,,,,192,0,4,,,,,,1,,64,0
287808,note_off,,,,,192,0,3,,,,,,0,,64,0
287808,note_on,,,,,0,0,3,,,,,,0,,62,100
287808,note_on,,,,,0,0,5,,,,,,2,,62,100
287808,note_on,,,,,0,0,9,,,,,,4,,50,100
287808,note_off,,,,,192,0,9,,,,,,4,,52,0
287808,note_off,,,,,192,0,7,,,,,,3,,40,0
287808,note_on,,,,,0,0,7,,,,,,3,,38,100
287808,note_off,,,,,192,0,5,,,,,,2,,64,0
287808,note_on,,,,,0,0,4,,,,,,1,,62,100
288000,note_on,,,,,0,0,5,,,,,,2,,69,100
288000,note_on,,,,,0,0,9,,,,,,4,,57,100
288000,note_off,,,,,192,0,9,,,,,,4,,50,0
288000,note_off,,,,,192,0,8,,,,,,4,,62,0
288000,note_on,,,,,0,0,3,,,,,,0,,69,100
288000,note_off,,,,,192,0,3,,,,,,0,,62,0
288000,note_on,,,,,0,0,7,,,,,,3,,45,100
288000,note_off,,,,,192,0,4,,,,,,1,,62,0
288000,note_on,,,,,0,0,4,,,,,,1,,69,100
288000,note_off,,,,,192,0,7,,,,,,3,,38,0
288000,note_off,,,,,192,0,6,,,,,,3,,50,0
288000,note_on,,,,,0,0,6,,,,,,3,,57,100
288000,note_off,,,,,192,0,5,,,,,,2,,62,0
288000,note_on,,,,,0,0,8,,,,,,4,,69,100
288192,note_off,,,,,192,0,4,,,,,,1,,69,0
288192,note_on,,,,,0,0,8,,,,,,4,,74,100
288192,note_on,,,,,0,0,4,,,,,,1,,74,100
288192,note_off,,,,,192,0,3,,,,,,0,,69,0
288192,note_on,,,,,0,0,3,,,,,,0,,74,100
288192,note_on,,,,,0,0,9,,,,,,4,,62,100
288192,note_on,,,,,0,0,5,,,,,,2,,74,100
288192,note_off,,,,,192,0,5,,,,,,2,,69,0
288192,note_off,,,,,192,0,9,,,,,,4,,57,0
288192,note_off,,,,,192,0,8,,,,,,4,,69,0
288192,note_off,,,,,192,0,6,,,,,,3,,57,0
288192,note_on,,,,,0,0,6,,,,,,3,,62,100
288192,note_on,,,,,0,0,7,,,,,,3,,50,100
288192,note_off,,,,,192,0,7,,,,,,3,,45,0
288576,note_off,,,,,384,0,5,,,,,,2,,74,0
288576,note_on,,,,,0,0,8,,,,,,4,,69,100
288576,note_on,,,,,0,0,9,,,,,,4,,57,100
288576,note_on,,,,,0,0,6,,,,,,3,,57,100
288576,note_on,,,,,0,0,5,,,,,,2,,69,100
288576,note_off,,,,,384,0,9,,,,,,4,,62,0
288576,note_off,,,,,384,0,4,,,,,,1,,74,0
288576,note_off,,,,,384,0,6,,,,,,3,,62,0
288576,note_on,,,,,0,0,4,,,,,,1,,69,100
288576,note_on,,,,,0,0,3,,,,,,0,,69,100
288576,note_off,,,,,384,0,3,,,,,,0,,74,0
288576,note_off,,,,,384,0,8,,,,,,4,,74,0
288576,note_on,,,,,0,0,7,,,,,,3,,45,100
288576,note_off,,,,,384,0,7,,,,,,3,,50,0
288768,note_off,,,,,192,0,4,,,,,,1,,69,0
288768,note_off,,,,,192,0,9,,,,,,4,,57,0
288768,note_on,,,,,0,0,9,,,,,,4,,58,100
288768,note_on,,,,,0,0,3,,,,,,0,,70,100
288768,note_off,,,,,192,0,7,,,,,,3,,45,0
288768,note_off,,,,,192,0,8,,,,,,4,,69,0
288768,note_on,,,,,0,0,7,,,,,,3,,46,100
288768,note_on,,,,,0,0,6,,,,,,3,,58,100
288768,note_off,,,,,192,0,6,,,,,,3,,57,0
288768,note_off,,,,,192,0,5,,,,,,2,,69,0
288768,note_on,,,,,0,0,5,,,,,,2,,70,100
288768,note_off,,,,,192,0,3,,,,,,0,,69,0
288768,note_on,,,,,0,0,8,,,,,,4,,70,100
288768,note_on,,,,,0,0,4,,,,,,1,,70,100
288956,note_off,,,,,188,0,3,,,,,,0,,70,0
288956,note_off,,,,,188,0,5,,,,,,2,,70,0
288956,note_off,,,,,188,0,4,,,,,,1,,70,0
288956,note_off,,,,,188,0,6,,,,,,3,,58,0
288956,note_off,,,,,188,0,8,,,,,,4,,70,0
288956,note_off,,,,,188,0,9,,,,,,4,,58,0
288956,note_off,,,,,188,0,7,,,,,,3,,46,0
288960,note_on,,,,,4,0,4,,,,,,1,,67,100
288960,note_on,,,,,4,0,5,,,,,,2,,67,100
288960,note_on,,,,,4,0,8,,,,,,4,,67,100
288960,note_on,,,,,4,0,3,,,,,,0,,67,100
288960,note_on,,,,,4,0,6,,,,,,3,,55,100
288960,note_on,,,,,4,0,9,,,,,,4,,55,100
288960,note_on,,,,,4,0,7,,,,,,3,,43,100
289052,note_off,,,,,92,0,3,,,,,,0,,67,0
289052,note_off,,,,,92,0,6,,,,,,3,,55,0
289052,note_off,,,,,92,0,8,,,,,,4,,67,0
289052,note_off,,,,,92,0,9,,,,,,4,,55,0
289052,note_off,,,,,92,0,5,,,,,,2,,67,0
289052,note_off,,,,,92,0,4,,,,,,1,,67,0
289052,note_off,,,,,92,0,7,,,,,,3,,43,0
289056,note_on,,,,,4,0,9,,,,,,4,,52,100
289056,note_on,,,,,4,0,6,,,,,,3,,52,100
289056,note_on,,,,,4,0,5,,,,,,2,,64,100
289056,note_on,,,,,4,0,3,,,,,,0,,64,100
289056,note_on,,,,,4,0,8,,,,,,4,,64,100
289056,note_on,,,,,4,0,4,,,,,,1,,64,100
289056,note_on,,,,,4,0,7,,,,,,3,,40,100
289148,note_off,,,,,92,0,7,,,,,,3,,40,0
289148,note_off,,,,,92,0,3,,,,,,0,,64,0
289148,note_off,,,,,92,0,6,,,,,,3,,52,0
289148,note_off,,,,,92,0,8,,,,,,4,,64,0
289148,note_off,,,,,92,0,9,,,,,,4,,52,0
289148,note_off,,,,,92,0,4,,,,,,1,,64,0
289148,note_off,,,,,92,0,5,,,,,,2,,64,0
289152,note_on,,,,,4,0,5,,,,,,2,,69,100
289152,note_on,,,,,4,0,6,,,,,,3,,57,100
289152,note_on,,,,,4,0,8,,,,,,4,,69,100
289152,note_on,,,,,4,0,7,,,,,,3,,45,100
289152,note_on,,,,,4,0,3,,,,,,0,,69,100
289152,note_on,,,,,4,0,9,,,,,,4,,57,100
289152,note_on,,,,,4,0,4,,,,,,1,,69,100
289340,note_off,,,,,188,0,3,,,,,,0,,69,0
289340,note_off,,,,,188,0,9,,,,,,4,,57,0
289340,note_off,,,,,188,0,5,,,,,,2,,69,0
289340,note_off,,,,,188,0,4,,,,,,1,,69,0
289340,note_off,,,,,188,0,8,,,,,,4,,69,0
289340,note_off,,,,,188,0,7,,,,,,3,,45,0
289340,note_off,,,,,188,0,6,,,,,,3,,57,0
289344,note_on,,,,,4,0,8,,,,,,4,,65,100
289344,note_on,,,,,4,0,9,,,,,,4,,53,100
289344,note_on,,,,,4,0,6,,,,,,3,,53,100
289344,note_on,,,,,4,0,7,,,,,,3,,41,100
289344,note_on,,,,,4,0,5,,,,,,2,,65,100
289344,note_on,,,,,4,0,3,,,,,,0,,65,100
289344,note_on,,,,,4,0,4,,,,,,1,,65,100
289436,note_off,,,,,92,0,7,,,,,,3,,41,0
289436,note_off,,,,,92,0,3,,,,,,0,,65,0
289436,note_off,,,,,92,0,6,,,,,,3,,53,0
289436,note_off,,,,,92,0,4,,,,,,1,,65,0
289436,note_off,,,,,92,0,8,,,,,,4,,65,0
289436,note_off,,,,,92,0,9,,,,,,4,,53,0
289436,note_off,,,,,92,0,5,,,,,,2,,65,0
289440,note_on,,,,,4,0,4,,,,,,1,,62,100
289440,note_on,,,,,4,0,8,,,,,,4,,62,100
289440,note_on,,,,,4,0,7,,,,,,3,,38,100
289440,note_on,,,,,4,0,9,,,,,,4,,50,100
289440,note_on,,,,,4,0,6,,,,,,3,,50,100
289440,note_on,,,,,4,0,5,,,,,,2,,62,100
289440,note_on,,,,,4,0,3,,,,,,0,,62,100
289532,note_off,,,,,92,0,3,,,,,,0,,62,0
289532,note_off,,,,,92,0,4,,,,,,1,,62,0
289532,note_off,,,,,92,0,5,,,,,,2,,62,0
289532,note_off,,,,,92,0,8,,,,,,4,,62,0
289532,note_off,,,,,92,0,9,,,,,,4,,50,0
289532,note_off,,,,,92,0,7,,,,,,3,,38,0
289532,note_off,,,,,92,0,6,,,,,,3,,50,0
289536,note_on,,,,,4,0,7,,,,,,3,,43,100
289536,note_on,,,,,4,0,4,,,,,,1,,67,100
289536,note_on,,,,,4,0,8,,,,,,4,,67,100
289536,note_on,,,,,4,0,9,,,,,,4,,55,100
289536,note_on,,,,,4,0,6,,,,,,3,,55,100
289536,note_on,,,,,4,0,3,,,,,,0,,67,100
289536,note_on,,,,,4,0,5,,,,,,2,,67,100
289724,note_off,,,,,188,0,5,,,,,,2,,67,0
289724,note_off,,,,,188,0,9,,,,,,4,,55,0
289724,note_off,,,,,188,0,7,,,,,,3,,43,0
289724,note_off,,,,,188,0,6,,,,,,3,,55,0
289724,note_off,,,,,188,0,8,,,,,,4,,67,0
289724,note_off,,,,,188,0,3,,,,,,0,,67,0
289724,note_off,,,,,188,0,4,,,,,,1,,67,0
289728,note_on,,,,,4,0,5,,,,,,2,,64,100
289728,note_on,,,,,4,0,6,,,,,,3,,52,100
289728,note_on,,,,,4,0,7,,,,,,3,,40,100
289728,note_on,,,,,4,0,9,,,,,,4,,52,100
289728,note_on,,,,,4,0,3,,,,,,0,,64,100
289728,note_on,,,,,4,0,4,,,,,,1,,64,100
289728,note_on,,,,,4,0,8,,,,,,4,,64,100
289820,note_off,,,,,92,0,5,,,,,,2,,64,0
289820,note_off,,,,,92,0,3,,,,,,0,,64,0
289820,note_off,,,,,92,0,8,,,,,,4,,64,0
289820,note_off,,,,,92,0,6,,,,,,3,,52,0
289820,note_off,,,,,92,0,4,,,,,,1,,64,0
289820,note_off,,,,,92,0,9,,,,,,4,,52,0
289820,note_off,,,,,92,0,7,,,,,,3,,40,0
289824,note_on,,,,,4,0,9,,,,,,4,,49,100
289824,note_on,,,,,4,0,5,,,,,,2,,61,100
289824,note_on,,,,,4,0,6,,,,,,3,,49,100
289824,note_on,,,,,4,0,4,,,,,,1,,61,100
289824,note_on,,,,,4,0,8,,,,,,4,,61,100
289824,note_on,,,,,4,0,3,,,,,,0,,61,100
289824,note_on,,,,,4,0,7,,,,,,3,,37,100
289916,note_off,,,,,92,0,5,,,,,,2,,61,0
289916,note_off,,,,,92,0,3,,,,,,0,,61,0
289916,note_off,,,,,92,0,9,,,,,,4,,49,0
289916,note_off,,,,,92,0,8,,,,,,4,,61,0
289916,note_off,,,,,92,0,6,,,,,,3,,49,0
289916,note_off,,,,,92,0,4,,,,,,1,,61,0
289916,note_off,,,,,92,0,7,,,,,,3,,37,0
289920,note_on,,,,,4,0,6,,,,,,3,,45,100
289920,note_on,,,,,4,0,7,,,,,,3,,33,100
289920,note_on,,,,,4,0,5,,,,,,2,,57,100
289920,note_on,,,,,4,0,4,,,,,,1,,57,100
289920,note_on,,,,,4,0,3,,,,,,0,,57,100
289920,note_on,,,,,4,0,9,,,,,,4,,45,100
289920,note_on,,,,,4,0,8,,,,,,4,,57,100
290048,note_off,,,,,128,0,3,,,,,,0,,57,0
290048,note_off,,,,,128,0,8,,,,,,4,,57,0
290048,note_off,,,,,128,0,5,,,,,,2,,57,0
290048,note_off,,,,,128,0,6,,,,,,3,,45,0
290048,note_off,,,,,128,0,4,,,,,,1,,57,0
290048,note_off,,,,,128,0,7,,,,,,3,,33,0
290048,note_off,,,,,128,0,9,,,,,,4,,45,0
290112,note_on,,,,,64,0,6,,,,,,3,,58,100
290112,note_on,,,,,64,0,4,,,,,,1,,70,100
290112,note_on,,,,,64,0,5,,,,,,2,,70,100
290112,note_on,,,,,64,0,7,,,,,,3,,46,100
290112,note_on,,,,,64,0,8,,,,,,4,,70,100
290112,note_on,,,,,64,0,3,,,,,,0,,70,100
290112,note_on,,,,,64,0,9,,,,,,4,,58,100
290492,note_off,,,,,380,0,9,,,,,,4,,58,0
290492,note_off,,,,,380,0,7,,,,,,3,,46,0
290492,note_off,,,,,380,0,8,,,,,,4,,70,0
290492,note_off,,,,,380,0,4,,,,,,1,,70,0
290492,note_off,,,,,380,0,6,,,,,,3,,58,0
290492,note_off,,,,,380,0,5,,,,,,2,,70,0
290492,note_off,,,,,380,0,3,,,,,,0,,70,0
290496,note_on,,,,,4,0,6,,,,,,3,,55,100
290496,note_on,,,,,4,0,4,,,,,,1,,67,100
290496,note_on,,,,,4,0,7,,,,,,3,,43,100
290496,note_on,,,,,4,0,5,,,,,,2,,67,100
290496,note_on,,,,,4,0,3,,,,,,0,,67,100
290496,note_on,,,,,4,0,8,,,,,,4,,67,100
290496,note_on,,,,,4,0,9,,,,,,4,,55,100
290588,note_off,,,,,92,0,7,,,,,,3,,43,0
290588,note_off,,,,,92,0,5,,,,,,2,,67,0
290588,note_off,,,,,92,0,6,,,,,,3,,55,0
290588,note_off,,,,,92,0,4,,,,,,1,,67,0
290588,note_off,,,,,92,0,8,,,,,,4,,67,0
290588,note_off,,,,,92,0,9,,,,,,4,,55,0
290588,note_off,,,,,92,0,3,,,,,,0,,67,0
290592,note_on,,,,,4,0,9,,,,,,4,,52,100
290592,note_on,,,,,4,0,7,,,,,,3,,40,100
290592,note_on,,,,,4,0,3,,,,,,0,,64,100
290592,note_on,,,,,4,0,5,,,,,,2,,64,100
290592,note_on,,,,,4,0,4,,,,,,1,,64,100
290592,note_on,,,,,4,0,6,,,,,,3,,52,100
290592,note_on,,,,,4,0,8,,,,,,4,,64,100
290684,note_off,,,,,92,0,7,,,,,,3,,40,0
290684,note_off,,,,,92,0,4,,,,,,1,,64,0
290684,note_off,,,,,92,0,3,,,,,,0,,64,0
290684,note_off,,,,,92,0,8,,,,,,4,,64,0
290684,note_off,,,,,92,0,6,,,,,,3,,52,0
290684,note_off,,,,,92,0,5,,,,,,2,,64,0
290684,note_off,,,,,92,0,9,,,,,,4,,52,0
290688,note_on,,,,,4,0,6,,,,,,3,,45,100
290688,note_on,,,,,4,0,9,,,,,,4,,45,100
290688,note_on,,,,,4,0,8,,,,,,4,,57,100
290688,note_on,,,,,4,0,4,,,,,,1,,57,100
290688,note_on,,,,,4,0,7,,,,,,3,,33,100
290688,note_on,,,,,4,0,5,,,,,,2,,57,100
290688,note_on,,,,,4,0,3,,,,,,0,,57,100
290816,note_off,,,,,128,0,8,,,,,,4,,57,0
290816,note_off,,,,,128,0,9,,,,,,4,,45,0
290816,note_off,,,,,128,0,5,,,,,,2,,57,0
290816,note_off,,,,,128,0,3,,,,,,0,,57,0
290816,note_off,,,,,128,0,4,,,,,,1,,57,0
290816,note_off,,,,,128,0,7,,,,,,3,,33,0
290816,note_off,,,,,128,0,6,,,,,,3,,45,0
290880,note_on,,,,,64,0,5,,,,,,2,,73,100
290880,note_on,,,,,64,0,8,,,,,,4,,73,100
290880,note_on,,,,,64,0,6,,,,,,3,,61,100
290880,note_on,,,,,64,0,9,,,,,,4,,61,100
290880,note_on,,,,,64,0,3,,,,,,0,,73,100
290880,note_on,,,,,64,0,7,,,,,,3,,49,100
290880,note_on,,,,,64,0,4,,,,,,1,,73,100
291260,note_off,,,,,380,0,3,,,,,,0,,73,0
291260,note_off,,,,,380,0,5,,,,,,2,,73,0
291260,note_off,,,,,380,0,4,,,,,,1,,73,0
291260,note_off,,,,,380,0,8,,,,,,4,,73,0
291260,note_off,,,,,380,0,6,,,,,,3,,61,0
291260,note_off,,,,,380,0,9,,,,,,4,,61,0
291260,note_off,,,,,380,0,7,,,,,,3,,49,0
291264,note_on,,,,,4,0,7,,,,,,3,,46,100
291264,note_on,,,,,4,0,6,,,,,,3,,58,100
291264,note_on,,,,,4,0,8,,,,,,4,,70,100
291264,note_on,,,,,4,0,4,,,,,,1,,70,100
291264,note_on,,,,,4,0,9,,,,,,4,,58,100
291264,note_on,,,,,4,0,5,,,,,,2,,70,100
291264,note_on,,,,,4,0,3,,,,,,0,,70,100
291356,note_off,,,,,92,0,7,,,,,,3,,46,0
291356,note_off,,,,,92,0,4,,,,,,1,,70,0
291356,note_off,,,,,92,0,3,,,,,,0,,70,0
291356,note_off,,,,,92,0,5,,,,,,2,,70,0
291356,note_off,,,,,92,0,8,,,,,,4,,70,0
291356,note_off,,,,,92,0,6,,,,,,3,,58,0
291356,note_off,,,,,92,0,9,,,,,,4,,58,0
291360,note_on,,,,,4,0,9,,,,,,4,,55,100
291360,note_on,,,,,4,0,6,,,,,,3,,55,100
291360,note_on,,,,,4,0,4,,,,,,1,,67,100
291360,note_on,,,,,4,0,5,,,,,,2,,67,100
291360,note_on,,,,,4,0,8,,,,,,4,,67,100
291360,note_on,,,,,4,0,3,,,,,,0,,67,100
291360,note_on,,,,,4,0,7,,,,,,3,,43,100
291452,note_off,,,,,92,0,9,,,,,,4,,55,0
291452,note_off,,,,,92,0,4,,,,,,1,,67,0
291452,note_off,,,,,92,0,6,,,,,,3,,55,0
291452,note_off,,,,,92,0,7,,,,,,3,,43,0
291452,note_off,,,,,92,0,5,,,,,,2,,67,0
291452,note_off,,,,,92,0,3,,,,,,0,,67,0
291452,note_off,,,,,92,0,8,,,,,,4,,67,0
291456,note_on,,,,,4,0,9,,,,,,4,,45,100
291456,note_on,,,,,4,0,4,,,,,,1,,57,100
291456,note_on,,,,,4,0,5,,,,,,2,,57,100
291456,note_on,,,,,4,0,8,,,,,,4,,57,100
291456,note_on,,,,,4,0,6,,,,,,3,,45,100
291456,note_on,,,,,4,0,7,,,,,,3,,33,100
291456,note_on,,,,,4,0,3,,,,,,0,,57,100
291584,note_off,,,,,128,0,8,,,,,,4,,57,0
291584,note_off,,,,,128,0,6,,,,,,3,,45,0
291584,note_off,,,,,128,0,7,,,,,,3,,33,0
291584,note_off,,,,,128,0,4,,,,,,1,,57,0
291584,note_off,,,,,128,0,5,,,,,,2,,57,0
291584,note_off,,,,,128,0,3,,,,,,0,,57,0
291584,note_off,,,,,128,0,9,,,,,,4,,45,0
291648,note_on,,,,,64,0,5,,,,,,2,,76,100
291648,note_on,,,,,64,0,3,,,,,,0,,76,100
291648,note_on,,,,,64,0,9,,,,,,4,,64,100
291648,note_on,,,,,64,0,8,,,,,,4,,76,100
291648,note_on,,,,,64,0,4,,,,,,1,,76,100
291648,note_on,,,,,64,0,6,,,,,,3,,64,100
291648,note_on,,,,,64,0,7,,,,,,3,,52,100
292028,note_off,,,,,380,0,8,,,,,,4,,76,0
292028,note_off,,,,,380,0,4,,,,,,1,,76,0
292028,note_off,,,,,380,0,3,,,,,,0,,76,0
292028,note_off,,,,,380,0,5,,,,,,2,,76,0
292028,note_off,,,,,380,0,7,,,,,,3,,52,0
292028,note_off,,,,,380,0,6,,,,,,3,,64,0
292028,note_off,,,,,380,0,9,,,,,,4,,64,0
292032,note_on,,,,,4,0,5,,,,,,2,,73,100
292032,note_on,,,,,4,0,7,,,,,,3,,49,100
292032,note_on,,,,,4,0,6,,,,,,3,,61,100
292032,note_on,,,,,4,0,3,,,,,,0,,73,100
292032,note_on,,,,,4,0,8,,,,,,4,,73,100
292032,note_on,,,,,4,0,9,,,,,,4,,61,100
292032,note_on,,,,,4,0,4,,,,,,1,,73,100
292124,note_off,,,,,92,0,3,,,,,,0,,73,0
292124,note_off,,,,,92,0,7,,,,,,3,,49,0
292124,note_off,,,,,92,0,6,,,,,,3,,61,0
292124,note_off,,,,,92,0,9,,,,,,4,,61,0
292124,note_off,,,,,92,0,4,,,,,,1,,73,0
292124,note_off,,,,,92,0,5,,,,,,2,,73,0
292124,note_off,,,,,92,0,8,,,,,,4,,73,0
292128,note_on,,,,,4,0,7,,,,,,3,,45,100
292128,note_on,,,,,4,0,5,,,,,,2,,69,100
292128,note_on,,,,,4,0,3,,,,,,0,,69,100
292128,note_on,,,,,4,0,4,,,,,,1,,69,100
292128,note_on,,,,,4,0,9,,,,,,4,,57,100
292128,note_on,,,,,4,0,8,,,,,,4,,69,100
292128,note_on,,,,,4,0,6,,,,,,3,,57,100
292220,note_off,,,,,92,0,7,,,,,,3,,45,0
292220,note_off,,,,,92,0,6,,,,,,3,,57,0
292220,note_off,,,,,92,0,4,,,,,,1,,69,0
292220,note_off,,,,,92,0,5,,,,,,2,,69,0
292220,note_off,,,,,92,0,9,,,,,,4,,57,0
292220,note_off,,,,,92,0,3,,,,,,0,,69,0
292220,note_off,,,,,92,0,8,,,,,,4,,69,0
292224,note_on,,,,,4,0,6,,,,,,3,,58,100
292224,note_on,,,,,4,0,7,,,,,,3,,46,100
292224,note_on,,,,,4,0,3,,,,,,0,,70,100
292224,note_on,,,,,4,0,5,,,,,,2,,70,100
292224,note_on,,,,,4,0,8,,,,,,4,,70,100
292224,note_on,,,,,4,0,4,,,,,,1,,70,100
292224,note_on,,,,,4,0,9,,,,,,4,,58,100
292316,note_off,,,,,92,0,8,,,,,,4,,70,0
292316,note_off,,,,,92,0,7,,,,,,3,,46,0
292316,note_off,,,,,92,0,6,,,,,,3,,58,0
292316,note_off,,,,,92,0,3,,,,,,0,,70,0
292316,note_off,,,,,92,0,9,,,,,,4,,58,0
292316,note_off,,,,,92,0,4,,,,,,1,,70,0
292316,note_off,,,,,92,0,5,,,,,,2,,70,0
292320,note_on,,,,,4,0,9,,,,,,4,,55,100
292320,note_on,,,,,4,0,6,,,,,,3,,55,100
292320,note_on,,,,,4,0,8,,,,,,4,,67,100
292320,note_on,,,,,4,0,7,,,,,,3,,43,100
292320,note_on,,,,,4,0,4,,,,,,1,,67,100
292320,note_on,,,,,4,0,5,,,,,,2,,67,100
292320,note_on,,,,,4,0,3,,,,,,0,,67,100
292412,note_off,,,,,92,0,9,,,,,,4,,55,0
292412,note_off,,,,,92,0,8,,,,,,4,,67,0
292412,note_off,,,,,92,0,4,,,,,,1,,67,0
292412,note_off,,,,,92,0,5,,,,,,2,,67,0
292412,note_off,,,,,92,0,7,,,,,,3,,43,0
292412,note_off,,,,,92,0,3,,,,,,0,,67,0
292412,note_off,,,,,92,0,6,,,,,,3,,55,0
292416,note_on,,,,,4,0,7,,,,,,3,,45,100
292416,note_on,,,,,4,0,8,,,,,,4,,69,100
292416,note_on,,,,,4,0,3,,,,,,0,,69,100
292416,note_on,,,,,4,0,4,,,,,,1,,69,100
292416,note_on,,,,,4,0,5,,,,,,2,,69,100
292416,note_on,,,,,4,0,6,,,,,,3,,57,100
292416,note_on,,,,,4,0,9,,,,,,4,,57,100
292508,note_off,,,,,92,0,8,,,,,,4,,69,0
292508,note_off,,,,,92,0,7,,,,,,3,,45,0
292508,note_off,,,,,92,0,4,,,,,,1,,69,0
292508,note_off,,,,,92,0,5,,,,,,2,,69,0
292508,note_off,,,,,92,0,6,,,,,,3,,57,0
292508,note_off,,,,,92,0,3,,,,,,0,,69,0
292508,note_off,,,,,92,0,9,,,,,,4,,57,0
292512,note_on,,,,,4,0,9,,,,,,4,,53,100
292512,note_on,,,,,4,0,3,,,,,,0,,65,100
292512,note_on,,,,,4,0,8,,,,,,4,,65,100
292512,note_on,,,,,4,0,5,,,,,,2,,65,100
292512,note_on,,,,,4,0,6,,,,,,3,,53,100
292512,note_on,,,,,4,0,4,,,,,,1,,65,100
292512,note_on,,,,,4,0,7,,,,,,3,,41,100
292604,note_off,,,,,92,0,8,,,,,,4,,65,0
292604,note_off,,,,,92,0,4,,,,,,1,,65,0
292604,note_off,,,,,92,0,9,,,,,,4,,53,0
292604,note_off,,,,,92,0,3,,,,,,0,,65,0
292604,note_off,,,,,92,0,5,,,,,,2,,65,0
292604,note_off,,,,,92,0,6,,,,,,3,,53,0
292604,note_off,,,,,92,0,7,,,,,,3,,41,0
292608,note_on,,,,,4,0,9,,,,,,4,,55,100
292608,note_on,,,,,4,0,7,,,,,,3,,43,100
292608,note_on,,,,,4,0,6,,,,,,3,,55,100
292608,note_on,,,,,4,0,4,,,,,,1,,67,100
292608,note_on,,,,,4,0,3,,,,,,0,,67,100
292608,note_on,,,,,4,0,5,,,,,,2,,67,100
292608,note_on,,,,,4,0,8,,,,,,4,,67,100
292700,note_off,,,,,92,0,9,,,,,,4,,55,0
292700,note_off,,,,,92,0,7,,,,,,3,,43,0
292700,note_off,,,,,92,0,6,,,,,,3,,55,0
292700,note_off,,,,,92,0,8,,,,,,4,,67,0
292700,note_off,,,,,92,0,3,,,,,,0,,67,0
292700,note_off,,,,,92,0,5,,,,,,2,,67,0
292700,note_off,,,,,92,0,4,,,,,,1,,67,0
292704,note_on,,,,,4,0,5,,,,,,2,,64,100
292704,note_on,,,,,4,0,6,,,,,,3,,52,100
292704,note_on,,,,,4,0,9,,,,,,4,,52,100
292704,note_on,,,,,4,0,4,,,,,,1,,64,100
292704,note_on,,,,,4,0,7,,,,,,3,,40,100
292704,note_on,,,,,4,0,8,,,,,,4,,64,100
292704,note_on,,,,,4,0,3,,,,,,0,,64,100
292796,note_off,,,,,92,0,7,,,,,,3,,40,0
292796,note_off,,,,,92,0,3,,,,,,0,,64,0
292796,note_off,,,,,92,0,9,,,,,,4,,52,0
292796,note_off,,,,,92,0,6,,,,,,3,,52,0
292796,note_off,,,,,92,0,8,,,,,,4,,64,0
292796,note_off,,,,,92,0,5,,,,,,2,,64,0
292796,note_off,,,,,92,0,4,,,,,,1,,64,0
292800,note_on,,,,,4,0,3,,,,,,0,,65,100
292800,note_on,,,,,4,0,7,,,,,,3,,41,100
292800,note_on,,,,,4,0,8,,,,,,4,,65,100
292800,note_on,,,,,4,0,5,,,,,,2,,65,100
292800,note_on,,,,,4,0,9,,,,,,4,,53,100
292800,note_on,,,,,4,0,6,,,,,,3,,53,100
292800,note_on,,,,,4,0,4,,,,,,1,,65,100
292892,note_off,,,,,92,0,4,,,,,,1,,65,0
292892,note_off,,,,,92,0,3,,,,,,0,,65,0
292892,note_off,,,,,92,0,5,,,,,,2,,65,0
292892,note_off,,,,,92,0,8,,,,,,4,,65,0
292892,note_off,,,,,92,0,9,,,,,,4,,53,0
292892,note_off,,,,,92,0,7,,,,,,3,,41,0
292892,note_off,,,,,92,0,6,,,,,,3,,53,0
292896,note_on,,,,,4,0,9,,,,,,4,,50,100
292896,note_on,,,,,4,0,7,,,,,,3,,38,100
292896,note_on,,,,,4,0,4,,,,,,1,,62,100
292896,note_on,,,,,4,0,3,,,,,,0,,62,100
292896,note_on,,,,,4,0,5,,,,,,2,,62,100
292896,note_on,,,,,4,0,6,,,,,,3,,50,100
292896,note_on,,,,,4,0,8,,,,,,4,,62,100
292988,note_off,,,,,92,0,9,,,,,,4,,50,0
292988,note_off,,,,,92,0,5,,,,,,2,,62,0
292988,note_off,,,,,92,0,8,,,,,,4,,62,0
292988,note_off,,,,,92,0,7,,,,,,3,,38,0
292988,note_off,,,,,92,0,4,,,,,,1,,62,0
292988,note_off,,,,,92,0,3,,,,,,0,,62,0
292988,note_off,,,,,92,0,6,,,,,,3,,50,0
292992,note_on,,,,,4,0,5,,,,,,2,,64,100
292992,note_on,,,,,4,0,8,,,,,,4,,64,100
292992,note_on,,,,,4,0,7,,,,,,3,,40,100
292992,note_on,,,,,4,0,9,,,,,,4,,52,100
292992,note_on,,,,,4,0,4,,,,,,1,,64,100
292992,note_on,,,,,4,0,6,,,,,,3,,52,100
292992,note_on,,,,,4,0,3,,,,,,0,,64,100
293084,note_off,,,,,92,0,8,,,,,,4,,64,0
293084,note_off,,,,,92,0,6,,,,,,3,,52,0
293084,note_off,,,,,92,0,9,,,,,,4,,52,0
293084,note_off,,,,,92,0,5,,,,,,2,,64,0
293084,note_off,,,,,92,0,4,,,,,,1,,64,0
293084,note_off,,,,,92,0,7,,,,,,3,,40,0
293084,note_off,,,,,92,0,3,,,,,,0,,64,0
293088,note_on,,,,,4,0,6,,,,,,3,,49,100
293088,note_on,,,,,4,0,4,,,,,,1,,61,100
293088,note_on,,,,,4,0,5,,,,,,2,,61,100
293088,note_on,,,,,4,0,7,,,,,,3,,37,100
293088,note_on,,,,,4,0,9,,,,,,4,,49,100
293088,note_on,,,,,4,0,3,,,,,,0,,61,100
293088,note_on,,,,,4,0,8,,,,,,4,,61,100
293180,note_off,,,,,92,0,7,,,,,,3,,37,0
293180,note_off,,,,,92,0,5,,,,,,2,,61,0
293180,note_off,,,,,92,0,3,,,,,,0,,61,0
293180,note_off,,,,,92,0,8,,,,,,4,,61,0
293180,note_off,,,,,92,0,6,,,,,,3,,49,0
293180,note_off,,,,,92,0,9,,,,,,4,,49,0
293180,note_off,,,,,92,0,4,,,,,,1,,61,0
293184,note_on,,,,,4,0,9,,,,,,4,,50,100
293184,note_on,,,,,4,0,5,,,,,,2,,62,100
293184,note_on,,,,,4,0,6,,,,,,3,,50,100
293184,note_on,,,,,4,0,7,,,,,,3,,38,100
293184,note_on,,,,,4,0,3,,,,,,0,,62,100
293184,note_on,,,,,4,0,4,,,,,,1,,62,100
293184,note_on,,,,,4,0,8,,,,,,4,,62,100
293276,note_off,,,,,92,0,3,,,,,,0,,62,0
293276,note_off,,,,,92,0,9,,,,,,4,,50,0
293276,note_off,,,,,92,0,4,,,,,,1,,62,0
293276,note_off,,,,,92,0,7,,,,,,3,,38,0
293276,note_off,,,,,92,0,6,,,,,,3,,50,0
293276,note_off,,,,,92,0,8,,,,,,4,,62,0
293276,note_off,,,,,92,0,5,,,,,,2,,62,0
293280,note_on,,,,,4,0,6,,,,,,3,,47,100
293280,note_on,,,,,4,0,5,,,,,,2,,59,100
293280,note_on,,,,,4,0,9,,,,,,4,,47,100
293280,note_on,,,,,4,0,7,,,,,,3,,35,100
293280,note_on,,,,,4,0,3,,,,,,0,,59,100
293280,note_on,,,,,4,0,8,,,,,,4,,59,100
293280,note_on,,,,,4,0,4,,,,,,1,,59,100
293372,note_off,,,,,92,0,7,,,,,,3,,35,0
293372,note_off,,,,,92,0,6,,,,,,3,,47,0
293372,note_off,,,,,92,0,5,,,,,,2,,59,0
293372,note_off,,,,,92,0,8,,,,,,4,,59,0
293372,note_off,,,,,92,0,4,,,,,,1,,59,0
293372,note_off,,,,,92,0,9,,,,,,4,,47,0
293372,note_off,,,,,92,0,3,,,,,,0,,59,0
293376,note_on,,,,,4,0,4,,,,,,1,,61,100
293376,note_on,,,,,4,0,5,,,,,,2,,61,100
293376,note_on,,,,,4,0,7,,,,,,3,,37,100
293376,note_on,,,,,4,0,6,,,,,,3,,49,100
293376,note_on,,,,,4,0,9,,,,,,4,,49,100
293376,note_on,,,,,4,0,8,,,,,,4,,61,100
293376,note_on,,,,,4,0,3,,,,,,0,,61,100
293468,note_off,,,,,92,0,5,,,,,,2,,61,0
293468,note_off,,,,,92,0,6,,,,,,3,,49,0
293468,note_off,,,,,92,0,4,,,,,,1,,61,0
293468,note_off,,,,,92,0,7,,,,,,3,,37,0
293468,note_off,,,,,92,0,9,,,,,,4,,49,0
293468,note_off,,,,,92,0,8,,,,,,4,,61,0
293468,note_off,,,,,92,0,3,,,,,,0,,61,0
293472,note_on,,,,,4,0,6,,,,,,3,,45,100
293472,note_on,,,,,4,0,4,,,,,,1,,57,100
293472,note_on,,,,,4,0,9,,,,,,4,,45,100
293472,note_on,,,,,4,0,7,,,,,,3,,33,100
293472,note_on,,,,,4,0,5,,,,,,2,,57,100
293472,note_on,,,,,4,0,3,,,,,,0,,57,100
293472,note_on,,,,,4,0,8,,,,,,4,,57,100
293564,note_off,,,,,92,0,3,,,,,,0,,57,0
293564,note_off,,,,,92,0,9,,,,,,4,,45,0
293564,note_off,,,,,92,0,8,,,,,,4,,57,0
293564,note_off,,,,,92,0,6,,,,,,3,,45,0
293564,note_off,,,,,92,0,7,,,,,,3,,33,0
293564,note_off,,,,,92,0,5,,,,,,2,,57,0
293564,note_off,,,,,92,0,4,,,,,,1,,57,0
293568,note_on,,,,,4,0,4,,,,,,1,,59,100
293568,note_on,,,,,4,0,9,,,,,,4,,47,100
293568,note_on,,,,,4,0,3,,,,,,0,,59,100
293568,note_on,,,,,4,0,6,,,,,,3,,47,100
293568,note_on,,,,,4,0,5,,,,,,2,,59,100
293568,note_on,,,,,4,0,7,,,,,,3,,35,100
293568,note_on,,,,,4,0,8,,,,,,4,,59,100
293660,note_off,,,,,92,0,3,,,,,,0,,59,0
293660,note_off,,,,,92,0,9,,,,,,4,,47,0
293660,note_off,,,,,92,0,6,,,,,,3,,47,0
293660,note_off,,,,,92,0,7,,,,,,3,,35,0
293660,note_off,,,,,92,0,5,,,,,,2,,59,0
293660,note_off,,,,,92,0,4,,,,,,1,,59,0
293660,note_off,,,,,92,0,8,,,,,,4,,59,0
293664,note_on,,,,,4,0,5,,,,,,2,,61,100
293664,note_on,,,,,4,0,9,,,,,,4,,49,100
293664,note_on,,,,,4,0,6,,,,,,3,,49,100
293664,note_on,,,,,4,0,7,,,,,,3,,37,100
293664,note_on,,,,,4,0,8,,,,,,4,,61,100
293664,note_on,,,,,4,0,4,,,,,,1,,61,100
293664,note_on,,,,,4,0,3,,,,,,0,,61,100
293756,note_off,,,,,92,0,6,,,,,,3,,49,0
293756,note_off,,,,,92,0,9,,,,,,4,,49,0
293756,note_off,,,,,92,0,5,,,,,,2,,61,0
293756,note_off,,,,,92,0,3,,,,,,0,,61,0
293756,note_off,,,,,92,0,4,,,,,,1,,61,0
293756,note_off,,,,,92,0,8,,,,,,4,,61,0
293756,note_off,,,,,92,0,7,,,,,,3,,37,0
293760,note_on,,,,,4,0,6,,,,,,3,,50,100
293760,note_on,,,,,4,0,5,,,,,,2,,62,100
293760,note_on,,,,,4,0,3,,,,,,0,,62,100
293760,note_on,,,,,4,0,7,,,,,,3,,38,100
293760,note_on,,,,,4,0,8,,,,,,4,,62,100
293760,note_on,,,,,4,0,9,,,,,,4,,50,100
293760,note_on,,,,,4,0,4,,,,,,1,,62,100
293852,note_off,,,,,92,0,4,,,,,,1,,62,0
293852,note_off,,,,,92,0,7,,,,,,3,,38,0
293852,note_off,,,,,92,0,5,,,,,,2,,62,0
293852,note_off,,,,,92,0,8,,,,,,4,,62,0
293852,note_off,,,,,92,0,9,,,,,,4,,50,0
293852,note_off,,,,,92,0,6,,,,,,3,,50,0
293852,note_off,,,,,92,0,3,,,,,,0,,62,0
293856,note_on,,,,,4,0,4,,,,,,1,,64,100
293856,note_on,,,,,4,0,9,,,,,,4,,52,100
293856,note_on,,,,,4,0,6,,,,,,3,,52,100
293856,note_on,,,,,4,0,8,,,,,,4,,64,100
293856,note_on,,,,,4,0,7,,,,,,3,,40,100
293856,note_on,,,,,4,0,5,,,,,,2,,64,100
293856,note_on,,,,,4,0,3,,,,,,0,,64,100
293948,note_off,,,,,92,0,4,,,,,,1,,64,0
293948,note_off,,,,,92,0,5,,,,,,2,,64,0
293948,note_off,,,,,92,0,8,,,,,,4,,64,0
293948,note_off,,,,,92,0,3,,,,,,0,,64,0
293948,note_off,,,,,92,0,9,,,,,,4,,52,0
293948,note_off,,,,,92,0,6,,,,,,3,,52,0
293948,note_off,,,,,92,0,7,,,,,,3,,40,0
293952,note_on,,,,,4,0,9,,,,,,4,,53,100
293952,note_on,,,,,4,0,5,,,,,,2,,65,100
293952,note_on,,,,,4,0,8,,,,,,4,,65,100
293952,note_on,,,,,4,0,6,,,,,,3,,53,100
293952,note_on,,,,,4,0,3,,,,,,0,,65,100
293952,note_on,,,,,4,0,4,,,,,,1,,65,100
293952,note_on,,,,,4,0,7,,,,,,3,,41,100
294044,note_off,,,,,92,0,4,,,,,,1,,65,0
294044,note_off,,,,,92,0,7,,,,,,3,,41,0
294044,note_off,,,,,92,0,5,,,,,,2,,65,0
294044,note_off,,,,,92,0,9,,,,,,4,,53,0
294044,note_off,,,,,92,0,8,,,,,,4,,65,0
294044,note_off,,,,,92,0,6,,,,,,3,,53,0
294044,note_off,,,,,92,0,3,,,,,,0,,65,0
294048,note_on,,,,,4,0,4,,,,,,1,,67,100
294048,note_on,,,,,4,0,3,,,,,,0,,67,100
294048,note_on,,,,,4,0,5,,,,,,2,,67,100
294048,note_on,,,,,4,0,8,,,,,,4,,67,100
294048,note_on,,,,,4,0,9,,,,,,4,,55,100
294048,note_on,,,,,4,0,7,,,,,,3,,43,100
294048,note_on,,,,,4,0,6,,,,,,3,,55,100
294140,note_off,,,,,92,0,6,,,,,,3,,55,0
294140,note_off,,,,,92,0,4,,,,,,1,,67,0
294140,note_off,,,,,92,0,5,,,,,,2,,67,0
294140,note_off,,,,,92,0,9,,,,,,4,,55,0
294140,note_off,,,,,92,0,8,,,,,,4,,67,0
294140,note_off,,,,,92,0,7,,,,,,3,,43,0
294140,note_off,,,,,92,0,3,,,,,,0,,67,0
294144,note_on,,,,,4,0,9,,,,,,4,,57,100
294144,note_on,,,,,4,0,4,,,,,,1,,69,100
294144,note_on,,,,,4,0,7,,,,,,3,,45,100
294144,note_on,,,,,4,0,3,,,,,,0,,69,100
294144,note_on,,,,,4,0,8,,,,,,4,,69,100
294144,note_on,,,,,4,0,5,,,,,,2,,69,100
294144,note_on,,,,,4,0,6,,,,,,3,,57,100
294236,note_off,,,,,92,0,7,,,,,,3,,45,0
294236,note_off,,,,,92,0,3,,,,,,0,,69,0
294236,note_off,,,,,92,0,8,,,,,,4,,69,0
294236,note_off,,,,,92,0,5,,,,,,2,,69,0
294236,note_off,,,,,92,0,4,,,,,,1,,69,0
294236,note_off,,,,,92,0,9,,,,,,4,,57,0
294236,note_off,,,,,92,0,6,,,,,,3,,57,0
294240,note_on,,,,,4,0,9,,,,,,4,,58,100
294240,note_on,,,,,4,0,5,,,,,,2,,70,100
294240,note_on,,,,,4,0,4,,,,,,1,,70,100
294240,note_on,,,,,4,0,6,,,,,,3,,58,100
294240,note_on,,,,,4,0,8,,,,,,4,,70,100
294240,note_on,,,,,4,0,7,,,,,,3,,46,100
294240,note_on,,,,,4,0,3,,,,,,0,,70,100
294332,note_off,,,,,92,0,4,,,,,,1,,70,0
294332,note_off,,,,,92,0,5,,,,,,2,,70,0
294332,note_off,,,,,92,0,6,,,,,,3,,58,0
294332,note_off,,,,,92,0,9,,,,,,4,,58,0
294332,note_off,,,,,92,0,8,,,,,,4,,70,0
294332,note_off,,,,,92,0,3,,,,,,0,,70,0
294332,note_off,,,,,92,0,7,,,,,,3,,46,0
294336,note_on,,,,,4,0,8,,,,,,4,,72,100
294336,note_on,,,,,4,0,3,,,,,,0,,72,100
294336,note_on,,,,,4,0,4,,,,,,1,,72,100
294336,note_on,,,,,4,0,9,,,,,,4,,60,100
294336,note_on,,,,,4,0,7,,,,,,3,,48,100
294336,note_on,,,,,4,0,6,,,,,,3,,60,100
294336,note_on,,,,,4,0,5,,,,,,2,,72,100
294464,note_off,,,,,128,0,5,,,,,,2,,72,0
294464,note_off,,,,,128,0,9,,,,,,4,,60,0
294464,note_off,,,,,128,0,3,,,,,,0,,72,0
294464,note_off,,,,,128,0,7,,,,,,3,,48,0
294464,note_off,,,,,128,0,6,,,,,,3,,60,0
294464,note_off,,,,,128,0,8,,,,,,4,,72,0
294464,note_off,,,,,128,0,4,,,,,,1,,72,0
294528,note_on,,,,,64,0,5,,,,,,2,,72,100
294528,note_on,,,,,64,0,3,,,,,,0,,72,100
294528,note_on,,,,,64,0,7,,,,,,3,,48,100
294528,note_on,,,,,64,0,4,,,,,,1,,72,100
294528,note_on,,,,,64,0,9,,,,,,4,,60,100
294528,note_on,,,,,64,0,6,,,,,,3,,60,100
294528,note_on,,,,,64,0,8,,,,,,4,,72,100
294620,note_off,,,,,92,0,6,,,,,,3,,60,0
294620,note_off,,,,,92,0,8,,,,,,4,,72,0
294620,note_off,,,,,92,0,5,,,,,,2,,72,0
294620,note_off,,,,,92,0,9,,,,,,4,,60,0
294620,note_off,,,,,92,0,7,,,,,,3,,48,0
294620,note_off,,,,,92,0,3,,,,,,0,,72,0
294620,note_off,,,,,92,0,4,,,,,,1,,72,0
294624,note_on,,,,,4,0,3,,,,,,0,,74,100
294624,note_on,,,,,4,0,8,,,,,,4,,74,100
294624,note_on,,,,,4,0,5,,,,,,2,,74,100
294624,note_on,,,,,4,0,7,,,,,,3,,50,100
294624,note_on,,,,,4,0,9,,,,,,4,,62,100
294624,note_on,,,,,4,0,6,,,,,,3,,62,100
294624,note_on,,,,,4,0,4,,,,,,1,,74,100
294716,note_off,,,,,92,0,8,,,,,,4,,74,0
294716,note_off,,,,,92,0,6,,,,,,3,,62,0
294716,note_off,,,,,92,0,9,,,,,,4,,62,0
294716,note_off,,,,,92,0,7,,,,,,3,,50,0
294716,note_off,,,,,92,0,4,,,,,,1,,74,0
294716,note_off,,,,,92,0,5,,,,,,2,,74,0
294716,note_off,,,,,92,0,3,,,,,,0,,74,0
294720,note_on,,,,,4,0,3,,,,,,0,,75,100
294720,note_on,,,,,4,0,4,,,,,,1,,75,100
294720,note_on,,,,,4,0,5,,,,,,2,,75,100
294720,note_on,,,,,4,0,6,,,,,,3,,63,100
294720,note_on,,,,,4,0,7,,,,,,3,,51,100
294720,note_on,,,,,4,0,8,,,,,,4,,75,100
294720,note_on,,,,,4,0,9,,,,,,4,,63,100
294848,note_off,,,,,128,0,3,,,,,,0,,75,0
294848,note_off,,,,,128,0,6,,,,,,3,,63,0
294848,note_off,,,,,128,0,9,,,,,,4,,63,0
294848,note_off,,,,,128,0,8,,,,,,4,,75,0
294848,note_off,,,,,128,0,7,,,,,,3,,51,0
294848,note_off,,,,,128,0,5,,,,,,2,,75,0
294848,note_off,,,,,128,0,4,,,,,,1,,75,0
294912,note_on,,,,,64,0,8,,,,,,4,,66,100
294912,note_on,,,,,64,0,5,,,,,,2,,66,100
294912,note_on,,,,,64,0,9,,,,,,4,,54,100
294912,note_on,,,,,64,0,3,,,,,,0,,66,100
294912,note_on,,,,,64,0,6,,,,,,3,,54,100
294912,note_on,,,,,64,0,4,,,,,,1,,66,100
294912,note_on,,,,,64,0,7,,,,,,3,,42,100
295020,note_off,,,,,108,0,5,,,,,,2,,66,0
295020,note_off,,,,,108,0,3,,,,,,0,,66,0
295020,note_off,,,,,108,0,4,,,,,,1,,66,0
295020,note_off,,,,,108,0,6,,,,,,3,,54,0
295020,note_off,,,,,108,0,9,,,,,,4,,54,0
295020,note_off,,,,,108,0,8,,,,,,4,,66,0
295020,note_off,,,,,108,0,7,,,,,,3,,42,0
295104,note_on,,,,,84,0,3,,,,,,0,,67,100
295104,note_on,,,,,84,0,9,,,,,,4,,55,100
295104,note_on,,,,,84,0,5,,,,,,2,,67,100
295104,note_on,,,,,84,0,7,,,,,,3,,43,100
295104,note_on,,,,,84,0,6,,,,,,3,,55,100
295104,note_on,,,,,84,0,8,,,,,,4,,67,100
295104,note_on,,,,,84,0,4,,,,,,1,,67,100
295212,note_off,,,,,108,0,4,,,,,,1,,67,0
295212,note_off,,,,,108,0,7,,,,,,3,,43,0
295212,note_off,,,,,108,0,6,,,,,,3,,55,0
295212,note_off,,,,,108,0,5,,,,,,2,,67,0
295212,note_off,,,,,108,0,3,,,,,,0,,67,0
295212,note_off,,,,,108,0,9,,,,,,4,,55,0
295212,note_off,,,,,108,0,8,,,,,,4,,67,0
295296,note_on,,,,,84,0,3,,,,,,0,,61,100
295296,note_on,,,,,84,0,4,,,,,,1,,61,100
295296,note_on,,,,,84,0,7,,,,,,3,,37,100
295296,note_on,,,,,84,0,6,,,,,,3,,49,100
295296,note_on,,,,,84,0,9,,,,,,4,,49,100
295296,note_on,,,,,84,0,5,,,,,,2,,61,100
295296,note_on,,,,,84,0,8,,,,,,4,,61,100
295388,set_tempo,,,,,26612,1,0,,582524,,,,,,,
295400,set_tempo,,,,,12,1,0,,588235,,,,,,,
295404,note_off,,,,,108,0,9,,,,,,4,,49,0
295404,note_off,,,,,108,0,7,,,,,,3,,37,0
295404,note_off,,,,,108,0,6,,,,,,3,,49,0
295404,note_off,,,,,108,0,5,,,,,,2,,61,0
295404,note_off,,,,,108,0,8,,,,,,4,,61,0
295404,note_off,,,,,108,0,4,,,,,,1,,61,0
295404,note_off,,,,,108,0,3,,,,,,0,,61,0
295416,set_tempo,,,,,16,1,0,,594059,,,,,,,
295448,set_tempo,,,,,32,1,0,,600000,,,,,,,
295472,set_tempo,,,,,24,1,0,,612244,,,,,,,
295488,note_on,,,,,84,0,7,,,,,,3,,38,100
295488,note_on,,,,,84,0,5,,,,,,2,,62,100
295488,note_on,,,,,84,0,8,,,,,,4,,62,100
295488,note_on,,,,,84,0,6,,,,,,3,,50,100
295488,note_on,,,,,84,0,3,,,,,,0,,62,100
295488,note_on,,,,,84,0,4,,,,,,1,,62,100
295488,note_on,,,,,84,0,9,,,,,,4,,50,100
295496,set_tempo,,,,,24,1,0,,618556,,,,,,,
295512,set_tempo,,,,,16,1,0,,625000,,,,,,,
295536,set_tempo,,,,,24,1,0,,625000,,,,,,,
295596,note_off,,,,,108,0,9,,,,,,4,,50,0
295596,note_off,,,,,108,0,4,,,,,,1,,62,0
295596,note_off,,,,,108,0,8,,,,,,4,,62,0
295596,note_off,,,,,108,0,5,,,,,,2,,62,0
295596,note_off,,,,,108,0,7,,,,,,3,,38,0
295596,note_off,,,,,108,0,3,,,,,,0,,62,0
295596,note_off,,,,,108,0,6,,,,,,3,,50,0
295612,set_tempo,,,,,76,1,0,,638297,,,,,,,
295680,note_on,,,,,84,0,7,,,,,,3,,32,100
295680,note_on,,,,,84,0,6,,,,,,3,,44,100
295680,note_on,,,,,84,0,9,,,,,,4,,44,100
295680,note_on,,,,,84,0,8,,,,,,4,,56,100
295680,note_on,,,,,84,0,4,,,,,,1,,56,100
295680,note_on,,,,,84,0,3,,,,,,0,,56,100
295680,note_on,,,,,84,0,5,,,,,,2,,56,100
295740,set_tempo,,,,,128,1,0,,645161,,,,,,,
295804,set_tempo,,,,,64,1,0,,645161,,,,,,,
295832,set_tempo,,,,,28,1,0,,659340,,,,,,,
295864,set_tempo,,,,,32,1,0,,666666,,,,,,,
295868,note_off,,,,,188,0,9,,,,,,4,,44,0
295868,note_off,,,,,188,0,8,,,,,,4,,56,0
295868,note_off,,,,,188,0,3,,,,,,0,,56,0
295868,note_off,,,,,188,0,7,,,,,,3,,32,0
295868,note_off,,,,,188,0,4,,,,,,1,,56,0
295868,note_off,,,,,188,0,6,,,,,,3,,44,0
295868,note_off,,,,,188,0,5,,,,,,2,,56,0
295916,set_tempo,,,,,52,1,0,,674157,,,,,,,
295932,set_tempo,,,,,16,1,0,,674157,,,,,,,
295948,set_tempo,,,,,16,1,0,,681818,,,,,,,
295960,set_tempo,,,,,12,1,0,,689655,,,,,,,
296012,set_tempo,,,,,52,1,0,,697674,,,,,,,
296044,set_tempo,,,,,32,1,0,,705882,,,,,,,
296060,set_tempo,,,,,16,1,0,,722891,,,,,,,
296064,note_on,,,,,196,0,4,,,,,,1,,57,100
296064,note_on,,,,,196,0,6,,,,,,3,,45,100
296064,note_on,,,,,0,0,8,,,,,,4,,73,100
296064,note_on,,,,,0,0,8,,,,,,4,,69,100
296064,note_on,,,,,196,0,5,,,,,,2,,57,100
296064,note_on,,,,,196,0,8,,,,,,4,,64,100
296064,note_on,,,,,196,0,9,,,,,,4,,57,100
296064,note_on,,,,,196,0,3,,,,,,0,,57,100
296064,note_on,,,,,196,0,7,,,,,,3,,33,100
296064,note_on,,,,,0,0,8,,,,,,4,,67,100
296064,note_on,,,,,0,0,9,,,,,,4,,45,100
296192,note_off,,,,,0,0,8,,,,,,4,,67,0
296192,note_off,,,,,0,0,8,,,,,,4,,69,0
296192,note_off,,,,,0,0,8,,,,,,4,,73,0
296192,note_off,,,,,0,0,9,,,,,,4,,45,0
296192,note_off,,,,,128,0,8,,,,,,4,,64,0
296192,note_off,,,,,128,0,9,,,,,,4,,57,0
296252,note_off,,,,,188,0,6,,,,,,3,,45,0
296252,note_off,,,,,188,0,5,,,,,,2,,57,0
296252,note_off,,,,,188,0,4,,,,,,1,,57,0
296252,note_off,,,,,188,0,3,,,,,,0,,57,0
296252,note_off,,,,,188,0,7,,,,,,3,,33,0
296444,set_tempo,,,,,384,1,0,,731707,,,,,,,
296448,note_on,,,,,0,0,8,,,,,,4,,74,100
296448,note_on,,,,,196,0,5,,,,,,2,,50,100
296448,note_on,,,,,0,0,8,,,,,,4,,69,100
296448,note_on,,,,,256,0,9,,,,,,4,,38,100
296448,note_on,,,,,256,0,8,,,,,,4,,62,100
296448,note_on,,,,,0,0,9,,,,,,4,,50,100
296448,note_on,,,,,196,0,4,,,,,,1,,62,100
296448,note_on,,,,,196,0,3,,,,,,0,,62,100
296448,note_on,,,,,196,0,6,,,,,,3,,38,100
296448,note_on,,,,,196,0,7,,,,,,3,,26,100
296448,note_on,,,,,0,0,8,,,,,,4,,65,100
296472,set_tempo,,,,,28,1,0,,750000,,,,,,,
296484,end_of_track,,,,,0,1,0,,,,,,,,,
296484,set_tempo,,,,,12,1,0,,750000,,,,,,,
297212,end_of_track,,,,,0,1,3,,,,,,,,,
297212,note_off,,,,,764,0,3,,,,,,0,,62,0
297212,note_off,,,,,0,0,8,,,,,,4,,69,0
297212,note_off,,,,,0,0,8,,,,,,4,,65,0
297212,note_off,,,,,764,0,5,,,,,,2,,50,0
297212,end_of_track,,,,,0,1,9,,,,,,,,,
297212,note_off,,,,,0,0,9,,,,,,4,,50,0
297212,note_off,,,,,764,0,9,,,,,,4,,38,0
297212,end_of_track,,,,,0,1,5,,,,,,,,,
297212,note_off,,,,,764,0,4,,,,,,1,,62,0
297212,end_of_track,,,,,0,1,4,,,,,,,,,
297212,end_of_track,,,,,0,1,7,,,,,,,,,
297212,note_off,,,,,764,0,7,,,,,,3,,26,0
297212,end_of_track,,,,,0,1,8,,,,,,,,,
297212,end_of_track,,,,,0,1,6,,,,,,,,,
297212,note_off,,,,,764,0,6,,,,,,3,,38,0
297212,note_off,,,,,764,0,8,,,,,,4,,62,0
297212,note_off,,,,,0,0,8,,,,,,4,,74,0
