,note,step,duration,channel,velocity
0,62.0,0,30,0.0,0.0
1,62.0,0,30,1.0,0.0
2,50.0,0,30,4.0,0.0
3,62.0,0,30,4.0,0.0
4,62.0,30,30,2.0,0.0
5,50.0,0,30,3.0,0.0
6,64.0,0,30,0.0,0.0
7,52.0,0,30,3.0,0.0
8,64.0,0,30,1.0,0.0
9,64.0,0,30,2.0,0.0
10,64.0,30,30,4.0,0.0
11,52.0,0,30,4.0,0.0
12,65.0,0,30,2.0,0.0
13,65.0,0,30,1.0,0.0
14,65.0,0,30,0.0,0.0
15,53.0,75,30,3.0,0.0
16,53.0,0,30,4.0,0.0
17,65.0,0,30,4.0,0.0
18,52.0,0,60,4.0,0.0
19,64.0,45,60,4.0,0.0
20,64.0,0,40,2.0,0.0
21,64.0,0,40,0.0,0.0
22,64.0,0,40,1.0,0.0
23,52.0,15,40,3.0,0.0
24,62.0,0,40,2.0,0.0
25,62.0,0,60,4.0,0.0
26,50.0,0,40,3.0,0.0
27,62.0,15,40,1.0,0.0
28,50.0,45,60,4.0,0.0
29,62.0,0,40,0.0,0.0
30,69.0,0,40,2.0,0.0
31,57.0,0,60,4.0,0.0
32,69.0,105,60,4.0,0.0
33,69.0,0,40,0.0,0.0
34,57.0,15,40,3.0,0.0
35,69.0,0,40,1.0,0.0
36,74.0,0,120,2.0,0.0
37,74.0,14,120,1.0,0.0
38,74.0,0,120,4.0,0.0
39,62.0,45,120,4.0,0.0
40,74.0,0,120,0.0,0.0
41,62.0,0,120,3.0,0.0
42,57.0,15,40,3.0,0.0
43,57.0,0,60,4.0,0.0
44,69.0,0,40,0.0,0.0
45,69.0,46,60,4.0,0.0
46,69.0,0,40,2.0,0.0
47,69.0,0,40,1.0,0.0
48,70.0,0,40,0.0,0.0
49,70.0,0,40,2.0,0.0
50,70.0,0,60,4.0,0.0
51,58.0,30,60,4.0,0.0
52,70.0,15,40,1.0,0.0
53,58.0,0,40,3.0,0.0
54,67.0,0,30,2.0,0.0
55,55.0,0,30,3.0,0.0
56,67.0,0,30,0.0,0.0
57,67.0,0,30,1.0,0.0
58,55.0,30,30,4.0,0.0
59,67.0,0,30,4.0,0.0
60,64.0,0,30,0.0,0.0
61,52.0,0,30,3.0,0.0
62,64.0,0,30,2.0,0.0
63,64.0,45,30,4.0,0.0
64,64.0,0,30,1.0,0.0
65,52.0,0,30,4.0,0.0
66,69.0,0,40,1.0,0.0
67,57.0,0,40,3.0,0.0
68,69.0,15,40,2.0,0.0
69,57.0,0,60,4.0,0.0
70,69.0,0,40,0.0,0.0
71,69.0,30,60,4.0,0.0
72,65.0,0,30,1.0,0.0
73,65.0,30,30,4.0,0.0
74,53.0,0,30,3.0,0.0
75,53.0,0,30,4.0,0.0
76,65.0,0,30,0.0,0.0
77,65.0,0,30,2.0,0.0
78,50.0,0,30,3.0,0.0
79,62.0,0,30,1.0,0.0
80,50.0,0,30,4.0,0.0
81,62.0,0,30,4.0,0.0
82,62.0,45,30,2.0,0.0
83,62.0,0,30,0.0,0.0
84,67.0,0,40,0.0,0.0
85,55.0,30,60,4.0,0.0
86,67.0,0,60,4.0,0.0
87,67.0,15,40,2.0,0.0
88,55.0,0,40,3.0,0.0
89,67.0,0,40,1.0,0.0
90,64.0,30,30,1.0,0.0
91,64.0,0,30,2.0,0.0
92,52.0,0,30,3.0,0.0
93,64.0,0,30,0.0,0.0
94,52.0,0,30,4.0,0.0
95,64.0,0,30,4.0,0.0
96,61.0,0,30,1.0,0.0
97,49.0,0,30,4.0,0.0
98,61.0,0,30,4.0,0.0
99,49.0,0,30,3.0,0.0
100,61.0,0,30,0.0,0.0
101,61.0,45,30,2.0,0.0
102,57.0,0,40,1.0,0.0
103,57.0,105,60,4.0,0.0
104,45.0,0,40,3.0,0.0
105,45.0,0,60,4.0,0.0
106,57.0,15,40,0.0,0.0
107,57.0,0,40,2.0,0.0
108,58.0,31,120,4.0,0.0
109,70.0,0,120,2.0,0.0
110,70.0,0,120,1.0,0.0
111,58.0,0,120,3.0,0.0
112,70.0,0,120,4.0,0.0
113,70.0,14,120,0.0,0.0
114,67.0,0,30,1.0,0.0
115,67.0,30,30,0.0,0.0
116,67.0,0,30,4.0,0.0
117,55.0,0,30,4.0,0.0
118,67.0,0,30,2.0,0.0
119,55.0,0,30,3.0,0.0
120,64.0,0,30,0.0,0.0
121,64.0,0,30,1.0,0.0
122,64.0,0,30,2.0,0.0
123,52.0,0,30,4.0,0.0
124,52.0,0,30,3.0,0.0
125,64.0,45,30,4.0,0.0
126,57.0,0,40,2.0,0.0
127,45.0,15,40,3.0,0.0
128,57.0,105,60,4.0,0.0
129,45.0,0,60,4.0,0.0
130,57.0,0,40,0.0,0.0
131,57.0,0,40,1.0,0.0
132,73.0,31,120,4.0,0.0
133,61.0,0,120,4.0,0.0
134,73.0,0,120,2.0,0.0
135,73.0,0,120,0.0,0.0
136,61.0,0,120,3.0,0.0
137,73.0,14,120,1.0,0.0
138,70.0,30,30,1.0,0.0
139,70.0,0,30,0.0,0.0
140,58.0,0,30,3.0,0.0
141,70.0,0,30,2.0,0.0
142,70.0,0,30,4.0,0.0
143,58.0,0,30,4.0,0.0
144,67.0,0,30,4.0,0.0
145,55.0,0,30,4.0,0.0
146,55.0,45,30,3.0,0.0
147,67.0,0,30,2.0,0.0
148,67.0,0,30,0.0,0.0
149,67.0,0,30,1.0,0.0
150,57.0,0,40,0.0,0.0
151,57.0,15,40,2.0,0.0
152,57.0,0,40,1.0,0.0
153,57.0,105,60,4.0,0.0
154,45.0,0,60,4.0,0.0
155,45.0,0,40,3.0,0.0
156,64.0,0,120,3.0,0.0
157,76.0,0,120,2.0,0.0
158,76.0,14,120,0.0,0.0
159,76.0,0,120,1.0,0.0
160,76.0,31,120,4.0,0.0
161,64.0,0,120,4.0,0.0
162,61.0,0,30,3.0,0.0
163,73.0,0,30,0.0,0.0
164,61.0,0,30,4.0,0.0
165,73.0,0,30,2.0,0.0
166,73.0,30,30,4.0,0.0
167,73.0,0,30,1.0,0.0
168,69.0,0,30,0.0,0.0
169,69.0,0,30,2.0,0.0
170,69.0,0,30,1.0,0.0
171,57.0,0,30,3.0,0.0
172,69.0,0,30,4.0,0.0
173,57.0,30,30,4.0,0.0
174,70.0,30,30,1.0,0.0
175,70.0,0,30,4.0,0.0
176,70.0,0,30,0.0,0.0
177,58.0,0,30,4.0,0.0
178,58.0,0,30,3.0,0.0
179,70.0,0,30,2.0,0.0
180,55.0,0,30,4.0,0.0
181,67.0,0,30,1.0,0.0
182,67.0,0,30,4.0,0.0
183,67.0,30,30,0.0,0.0
184,67.0,0,30,2.0,0.0
185,55.0,0,30,3.0,0.0
186,69.0,0,30,4.0,0.0
187,57.0,0,30,4.0,0.0
188,69.0,0,30,0.0,0.0
189,69.0,0,30,1.0,0.0
190,69.0,30,30,2.0,0.0
191,57.0,0,30,3.0,0.0
192,65.0,30,30,2.0,0.0
193,53.0,0,30,4.0,0.0
194,65.0,0,30,4.0,0.0
195,53.0,0,30,3.0,0.0
196,65.0,0,30,1.0,0.0
197,65.0,0,30,0.0,0.0
198,55.0,0,30,3.0,0.0
199,67.0,0,30,4.0,0.0
200,55.0,0,30,4.0,0.0
201,67.0,0,30,2.0,0.0
202,67.0,0,30,1.0,0.0
203,67.0,30,30,0.0,0.0
204,64.0,0,30,4.0,0.0
205,64.0,0,30,0.0,0.0
206,52.0,0,30,3.0,0.0
207,64.0,0,30,2.0,0.0
208,52.0,0,30,4.0,0.0
209,64.0,30,30,1.0,0.0
210,53.0,0,30,3.0,0.0
211,65.0,30,30,2.0,0.0
212,65.0,0,30,1.0,0.0
213,53.0,0,30,4.0,0.0
214,65.0,0,30,4.0,0.0
215,65.0,0,30,0.0,0.0
216,62.0,0,30,4.0,0.0
217,50.0,30,30,4.0,0.0
218,62.0,0,30,2.0,0.0
219,50.0,0,30,3.0,0.0
220,62.0,0,30,1.0,0.0
221,62.0,0,30,0.0,0.0
222,64.0,0,30,1.0,0.0
223,64.0,0,30,0.0,0.0
224,64.0,0,30,2.0,0.0
225,52.0,30,30,3.0,0.0
226,64.0,0,30,4.0,0.0
227,52.0,0,30,4.0,0.0
228,49.0,0,30,4.0,0.0
229,61.0,0,30,2.0,0.0
230,61.0,0,30,4.0,0.0
231,61.0,0,30,0.0,0.0
232,61.0,30,30,1.0,0.0
233,49.0,0,30,3.0,0.0
234,50.0,0,30,4.0,0.0
235,50.0,0,30,3.0,0.0
236,62.0,0,30,4.0,0.0
237,62.0,30,30,2.0,0.0
238,62.0,0,30,1.0,0.0
239,62.0,0,30,0.0,0.0
240,59.0,0,30,4.0,0.0
241,47.0,30,30,4.0,0.0
242,59.0,0,30,1.0,0.0
243,59.0,0,30,0.0,0.0
244,47.0,0,30,3.0,0.0
245,59.0,0,30,2.0,0.0
246,49.0,0,30,3.0,0.0
247,61.0,0,30,1.0,0.0
248,61.0,0,30,2.0,0.0
249,61.0,30,30,4.0,0.0
250,49.0,0,30,4.0,0.0
251,61.0,0,30,0.0,0.0
252,45.0,0,30,3.0,0.0
253,57.0,30,30,2.0,0.0
254,45.0,0,30,4.0,0.0
255,57.0,0,30,4.0,0.0
256,57.0,0,30,0.0,0.0
257,57.0,0,30,1.0,0.0
258,59.0,0,30,4.0,0.0
259,47.0,0,30,3.0,0.0
260,47.0,0,30,4.0,0.0
261,59.0,0,30,0.0,0.0
262,59.0,30,30,2.0,0.0
263,59.0,0,30,1.0,0.0
264,49.0,30,30,4.0,0.0
265,61.0,0,30,4.0,0.0
266,61.0,0,30,0.0,0.0
267,61.0,0,30,2.0,0.0
268,49.0,0,30,3.0,0.0
269,61.0,0,30,1.0,0.0
270,50.0,30,30,3.0,0.0
271,62.0,0,30,0.0,0.0
272,50.0,0,30,4.0,0.0
273,62.0,0,30,4.0,0.0
274,62.0,0,30,1.0,0.0
275,62.0,0,30,2.0,0.0
276,52.0,0,30,4.0,0.0
277,64.0,0,30,1.0,0.0
278,64.0,0,30,4.0,0.0
279,64.0,30,30,0.0,0.0
280,52.0,0,30,3.0,0.0
281,64.0,0,30,2.0,0.0
282,65.0,0,30,4.0,0.0
283,53.0,0,30,4.0,0.0
284,53.0,0,30,3.0,0.0
285,65.0,0,30,2.0,0.0
286,65.0,30,30,1.0,0.0
287,65.0,0,30,0.0,0.0
288,67.0,0,30,4.0,0.0
289,67.0,0,30,0.0,0.0
290,55.0,30,30,3.0,0.0
291,55.0,0,30,4.0,0.0
292,67.0,0,30,1.0,0.0
293,67.0,0,30,2.0,0.0
294,69.0,30,30,4.0,0.0
295,57.0,0,30,4.0,0.0
296,69.0,0,30,0.0,0.0
297,69.0,0,30,1.0,0.0
298,57.0,0,30,3.0,0.0
299,69.0,0,30,2.0,0.0
300,70.0,0,30,0.0,0.0
301,58.0,0,30,3.0,0.0
302,70.0,0,30,1.0,0.0
303,70.0,0,30,2.0,0.0
304,70.0,0,30,4.0,0.0
305,58.0,30,30,4.0,0.0
306,72.0,0,30,1.0,0.0
307,60.0,0,30,3.0,0.0
308,72.0,60,30,4.0,0.0
309,60.0,0,30,4.0,0.0
310,72.0,0,30,0.0,0.0
311,72.0,0,30,2.0,0.0
312,60.0,0,30,3.0,0.0
313,72.0,0,30,2.0,0.0
314,72.0,30,30,0.0,0.0
315,72.0,0,30,1.0,0.0
316,72.0,0,30,4.0,0.0
317,60.0,0,30,4.0,0.0
318,74.0,0,30,2.0,0.0
319,74.0,0,30,4.0,0.0
320,62.0,0,30,4.0,0.0
321,62.0,30,30,3.0,0.0
322,74.0,0,30,1.0,0.0
323,74.0,0,30,0.0,0.0
324,75.0,0,30,0.0,0.0
325,75.0,0,30,1.0,0.0
326,75.0,75,30,2.0,0.0
327,63.0,0,30,4.0,0.0
328,75.0,0,30,4.0,0.0
329,63.0,0,30,3.0,0.0
330,66.0,0,40,0.0,0.0
331,66.0,60,40,1.0,0.0
332,54.0,0,40,4.0,0.0
333,66.0,0,40,2.0,0.0
334,54.0,0,40,3.0,0.0
335,66.0,0,40,4.0,0.0
336,67.0,15,40,2.0,0.0
337,55.0,0,40,4.0,0.0
338,67.0,0,40,4.0,0.0
339,55.0,0,40,3.0,0.0
340,67.0,45,60,0.0,0.0
341,67.0,0,60,1.0,0.0
342,49.0,0,40,4.0,0.0
343,61.0,0,40,4.0,0.0
344,49.0,0,40,3.0,0.0
345,61.0,60,40,1.0,0.0
346,61.0,0,40,0.0,0.0
347,61.0,0,40,2.0,0.0
348,62.0,0,40,0.0,0.0
349,62.0,0,40,1.0,0.0
350,62.0,60,40,4.0,0.0
351,50.0,0,40,4.0,0.0
352,50.0,0,40,3.0,0.0
353,62.0,0,40,2.0,0.0
354,56.0,0,40,4.0,0.0
355,44.0,0,40,4.0,0.0
356,56.0,120,40,1.0,0.0
357,44.0,0,40,3.0,0.0
358,56.0,0,40,2.0,0.0
359,56.0,0,40,0.0,0.0
360,45.0,0,40,3.0,0.0
361,57.0,0,40,2.0,0.0
362,57.0,0,40,0.0,0.0
363,57.0,0,40,1.0,0.0
364,57.0,90,40,4.0,0.0
365,45.0,0,40,4.0,0.0
366,38.0,30,120,3.0,0.0
367,62.0,0,40,2.0,0.0
368,38.0,0,120,4.0,0.0
369,62.0,15,40,0.0,0.0
370,50.0,0,120,4.0,0.0
371,62.0,15,15,4.0,0.0
372,62.0,0,40,1.0,0.0
373,64.0,15,15,4.0,0.0
374,65.0,0,15,4.0,0.0
375,67.0,30,15,4.0,0.0
376,69.0,15,30,4.0,0.0
377,62.0,15,40,2.0,0.0
378,64.0,0,30,4.0,0.0
379,74.0,0,60,0.0,0.0
380,65.0,15,30,4.0,0.0
381,69.0,30,60,1.0,0.0
382,62.0,15,40,2.0,0.0
383,62.0,0,30,4.0,0.0
384,62.0,15,40,2.0,0.0
385,64.0,15,30,4.0,0.0
386,73.0,30,60,0.0,0.0
387,67.0,0,60,1.0,0.0
388,61.0,0,30,4.0,0.0
389,38.0,30,120,4.0,0.0
390,62.0,15,30,4.0,0.0
391,50.0,0,120,4.0,0.0
392,62.0,15,40,2.0,0.0
393,57.0,30,30,4.0,0.0
394,62.0,15,40,2.0,0.0
395,58.0,15,30,4.0,0.0
396,55.0,0,30,4.0,0.0
397,62.0,15,40,2.0,0.0
398,57.0,15,30,4.0,0.0
399,74.0,0,60,1.0,0.0
400,77.0,30,60,0.0,0.0
401,62.0,0,30,4.0,0.0
402,73.0,0,60,1.0,0.0
403,64.0,15,30,4.0,0.0
404,62.0,15,40,2.0,0.0
405,76.0,30,60,0.0,0.0
406,61.0,0,30,4.0,0.0
407,62.0,15,40,2.0,0.0
408,38.0,30,120,4.0,0.0
409,50.0,0,120,4.0,0.0
410,62.0,15,30,4.0,0.0
411,65.0,30,30,4.0,0.0
412,62.0,15,40,2.0,0.0
413,67.0,15,30,4.0,0.0
414,64.0,0,30,4.0,0.0
415,65.0,15,30,4.0,0.0
416,81.0,0,60,0.0,0.0
417,74.0,30,60,1.0,0.0
418,62.0,15,40,2.0,0.0
419,69.0,0,30,4.0,0.0
420,70.0,15,30,4.0,0.0
421,62.0,15,40,2.0,0.0
422,73.0,0,60,1.0,0.0
423,79.0,0,60,0.0,0.0
424,67.0,15,30,4.0,0.0
425,62.0,0,40,2.0,0.0
426,38.0,30,120,3.0,0.0
427,50.0,0,15,4.0,0.0
428,69.0,15,15,4.0,0.0
429,73.0,0,15,4.0,0.0
430,52.0,15,15,4.0,0.0
431,53.0,15,15,4.0,0.0
432,74.0,0,15,4.0,0.0
433,55.0,30,15,4.0,0.0
434,76.0,0,15,4.0,0.0
435,62.0,15,40,2.0,0.0
436,57.0,15,30,4.0,0.0
437,77.0,0,30,4.0,0.0
438,52.0,0,30,4.0,0.0
439,73.0,0,30,4.0,0.0
440,53.0,0,30,4.0,0.0
441,74.0,15,30,4.0,0.0
442,74.0,0,60,1.0,0.0
443,77.0,0,60,0.0,0.0
444,62.0,15,40,2.0,0.0
445,50.0,0,30,4.0,0.0
446,69.0,30,30,4.0,0.0
447,62.0,15,40,2.0,0.0
448,73.0,0,60,1.0,0.0
449,76.0,0,60,0.0,0.0
450,70.0,15,30,4.0,0.0
451,55.0,0,30,4.0,0.0
452,67.0,0,30,4.0,0.0
453,52.0,30,30,4.0,0.0
454,53.0,15,30,4.0,0.0
455,62.0,15,40,2.0,0.0
456,69.0,0,30,4.0,0.0
457,65.0,0,30,4.0,0.0
458,50.0,30,30,4.0,0.0
459,62.0,15,40,2.0,0.0
460,52.0,15,30,4.0,0.0
461,67.0,0,30,4.0,0.0
462,64.0,0,30,4.0,0.0
463,49.0,30,30,4.0,0.0
464,74.0,30,60,0.0,0.0
465,50.0,15,30,4.0,0.0
466,69.0,0,60,1.0,0.0
467,65.0,0,30,4.0,0.0
468,62.0,15,40,2.0,0.0
469,69.0,0,30,4.0,0.0
470,53.0,0,30,4.0,0.0
471,62.0,15,40,2.0,0.0
472,67.0,0,60,1.0,0.0
473,55.0,0,30,4.0,0.0
474,70.0,15,30,4.0,0.0
475,73.0,30,60,0.0,0.0
476,52.0,0,30,4.0,0.0
477,67.0,0,30,4.0,0.0
478,62.0,15,40,2.0,0.0
479,53.0,0,30,4.0,0.0
480,69.0,15,30,4.0,0.0
481,74.0,0,30,4.0,0.0
482,65.0,30,30,4.0,0.0
483,62.0,15,40,2.0,0.0
484,67.0,15,30,4.0,0.0
485,76.0,0,30,4.0,0.0
486,73.0,0,30,4.0,0.0
487,64.0,30,30,4.0,0.0
488,74.0,30,60,0.0,0.0
489,65.0,0,30,4.0,0.0
490,74.0,15,30,4.0,0.0
491,69.0,0,60,1.0,0.0
492,62.0,15,40,2.0,0.0
493,77.0,0,30,4.0,0.0
494,69.0,0,30,4.0,0.0
495,62.0,15,40,2.0,0.0
496,70.0,15,30,4.0,0.0
497,79.0,0,30,4.0,0.0
498,73.0,15,60,0.0,0.0
499,67.0,0,60,1.0,0.0
500,67.0,0,30,4.0,0.0
501,76.0,0,30,4.0,0.0
502,62.0,15,40,2.0,0.0
503,69.0,0,15,4.0,0.0
504,77.0,15,15,4.0,0.0
505,38.0,30,120,3.0,0.0
506,67.0,0,15,4.0,0.0
507,81.0,15,15,4.0,0.0
508,65.0,0,15,4.0,0.0
509,83.0,0,15,4.0,0.0
510,64.0,0,15,4.0,0.0
511,85.0,30,15,4.0,0.0
512,86.0,15,30,4.0,0.0
513,65.0,0,30,4.0,0.0
514,62.0,15,40,2.0,0.0
515,81.0,0,30,4.0,0.0
516,62.0,0,30,4.0,0.0
517,82.0,15,30,4.0,0.0
518,74.0,0,60,4.0,0.0
519,67.0,0,60,0.0,0.0
520,62.0,15,40,2.0,0.0
521,62.0,30,60,1.0,0.0
522,79.0,0,30,4.0,0.0
523,81.0,15,30,4.0,0.0
524,64.0,15,60,0.0,0.0
525,61.0,0,60,1.0,0.0
526,62.0,15,40,2.0,0.0
527,76.0,0,30,4.0,0.0
528,77.0,15,30,4.0,0.0
529,57.0,15,15,4.0,0.0
530,62.0,15,40,2.0,0.0
531,62.0,0,15,4.0,0.0
532,64.0,0,15,4.0,0.0
533,74.0,0,30,4.0,0.0
534,65.0,30,15,4.0,0.0
535,67.0,0,30,4.0,0.0
536,62.0,15,40,2.0,0.0
537,76.0,15,30,4.0,0.0
538,73.0,0,30,4.0,0.0
539,64.0,30,30,4.0,0.0
540,65.0,0,30,4.0,0.0
541,74.0,15,30,4.0,0.0
542,62.0,15,40,2.0,0.0
543,62.0,0,60,1.0,0.0
544,65.0,0,60,0.0,0.0
545,69.0,30,30,4.0,0.0
546,77.0,0,30,4.0,0.0
547,62.0,15,40,2.0,0.0
548,64.0,0,60,0.0,0.0
549,61.0,0,60,1.0,0.0
550,70.0,15,30,4.0,0.0
551,79.0,0,30,4.0,0.0
552,67.0,0,30,4.0,0.0
553,76.0,30,30,4.0,0.0
554,69.0,0,30,4.0,0.0
555,62.0,15,40,2.0,0.0
556,77.0,15,30,4.0,0.0
557,81.0,30,30,4.0,0.0
558,65.0,0,30,4.0,0.0
559,62.0,15,40,2.0,0.0
560,82.0,0,30,4.0,0.0
561,67.0,15,30,4.0,0.0
562,79.0,0,30,4.0,0.0
563,64.0,30,30,4.0,0.0
564,65.0,15,30,4.0,0.0
565,81.0,0,30,4.0,0.0
566,62.0,15,40,2.0,0.0
567,65.0,30,60,1.0,0.0
568,62.0,0,60,0.0,0.0
569,86.0,0,30,4.0,0.0
570,62.0,0,30,4.0,0.0
571,67.0,0,30,4.0,0.0
572,82.0,15,30,4.0,0.0
573,61.0,15,40,0.0,0.0
574,62.0,0,40,2.0,0.0
575,64.0,0,40,1.0,0.0
576,79.0,30,30,4.0,0.0
577,64.0,0,30,4.0,0.0
578,62.0,15,40,2.0,0.0
579,62.0,0,120,0.0,0.0
580,81.0,15,30,4.0,0.0
581,65.0,0,30,4.0,0.0
582,38.0,0,120,3.0,0.0
583,65.0,0,120,1.0,0.0
584,86.0,0,30,4.0,0.0
585,62.0,30,30,4.0,0.0
586,58.0,15,30,4.0,0.0
587,79.0,0,30,4.0,0.0
588,62.0,15,40,2.0,0.0
589,55.0,30,30,4.0,0.0
590,76.0,0,30,4.0,0.0
591,62.0,15,40,2.0,0.0
592,77.0,0,30,4.0,0.0
593,57.0,15,30,4.0,0.0
594,53.0,30,30,4.0,0.0
595,86.0,0,30,4.0,0.0
596,55.0,15,30,4.0,0.0
597,76.0,0,30,4.0,0.0
598,62.0,15,40,2.0,0.0
599,52.0,30,30,4.0,0.0
600,73.0,0,30,4.0,0.0
601,62.0,0,120,2.0,0.0
602,53.0,30,30,4.0,0.0
603,74.0,0,30,4.0,0.0
604,38.0,0,30,4.0,0.0
605,86.0,30,30,4.0,0.0
606,81.0,30,30,4.0,0.0
607,41.0,0,30,4.0,0.0
608,45.0,30,30,4.0,0.0
609,77.0,0,30,4.0,0.0
610,74.0,30,30,4.0,0.0
611,50.0,0,30,4.0,0.0
612,41.0,0,30,4.0,0.0
613,81.0,30,30,4.0,0.0
614,77.0,30,30,4.0,0.0
615,45.0,0,30,4.0,0.0
616,74.0,0,30,4.0,0.0
617,50.0,30,30,4.0,0.0
618,53.0,0,30,4.0,0.0
619,69.0,30,30,4.0,0.0
620,45.0,0,30,4.0,0.0
621,77.0,30,30,4.0,0.0
622,50.0,30,30,4.0,0.0
623,74.0,0,30,4.0,0.0
624,53.0,30,30,4.0,0.0
625,69.0,0,30,4.0,0.0
626,57.0,30,30,4.0,0.0
627,65.0,0,30,4.0,0.0
628,50.0,0,30,4.0,0.0
629,74.0,30,30,4.0,0.0
630,69.0,30,30,4.0,0.0
631,53.0,0,30,4.0,0.0
632,65.0,0,30,4.0,0.0
633,57.0,30,30,4.0,0.0
634,62.0,0,30,1.0,0.0
635,62.0,30,30,4.0,0.0
636,38.0,45,120,3.0,0.0
637,62.0,0,30,0.0,0.0
638,64.0,0,30,1.0,0.0
639,64.0,0,30,0.0,0.0
640,64.0,30,30,4.0,0.0
641,65.0,0,30,0.0,0.0
642,65.0,30,30,1.0,0.0
643,65.0,0,30,4.0,0.0
644,64.0,45,60,4.0,0.0
645,64.0,0,40,0.0,0.0
646,64.0,15,40,1.0,0.0
647,62.0,15,40,0.0,0.0
648,62.0,0,40,1.0,0.0
649,62.0,30,60,4.0,0.0
650,69.0,0,40,1.0,0.0
651,50.0,15,30,4.0,0.0
652,69.0,0,60,4.0,0.0
653,69.0,15,40,0.0,0.0
654,65.0,0,30,2.0,0.0
655,50.0,0,30,3.0,0.0
656,67.0,0,30,2.0,0.0
657,52.0,30,30,3.0,0.0
658,52.0,0,30,4.0,0.0
659,69.0,0,30,2.0,0.0
660,74.0,0,120,0.0,0.0
661,74.0,0,120,1.0,0.0
662,53.0,30,30,3.0,0.0
663,74.0,1,120,4.0,0.0
664,53.0,45,60,4.0,0.0
665,52.0,0,40,3.0,0.0
666,67.0,14,40,2.0,0.0
667,52.0,44,60,4.0,0.0
668,69.0,15,40,0.0,0.0
669,50.0,0,40,3.0,0.0
670,69.0,0,40,1.0,0.0
671,50.0,45,60,4.0,0.0
672,69.0,1,60,4.0,0.0
673,65.0,0,120,2.0,0.0
674,70.0,15,40,1.0,0.0
675,55.0,30,60,3.0,0.0
676,55.0,0,60,4.0,0.0
677,70.0,0,60,4.0,0.0
678,70.0,0,40,0.0,0.0
679,67.0,0,30,0.0,0.0
680,64.0,0,120,2.0,0.0
681,67.0,0,30,4.0,0.0
682,67.0,30,30,1.0,0.0
683,64.0,0,15,4.0,0.0
684,61.0,45,30,4.0,0.0
685,64.0,0,30,0.0,0.0
686,64.0,0,30,1.0,0.0
687,69.0,0,60,4.0,0.0
688,69.0,0,40,0.0,0.0
689,69.0,15,40,1.0,0.0
690,53.0,30,60,3.0,0.0
691,53.0,0,60,4.0,0.0
692,65.0,0,30,1.0,0.0
693,65.0,0,30,0.0,0.0
694,65.0,30,30,4.0,0.0
695,62.0,15,120,2.0,0.0
696,62.0,30,30,1.0,0.0
697,62.0,0,30,0.0,0.0
698,62.0,0,15,4.0,0.0
699,58.0,0,30,4.0,0.0
700,52.0,15,30,4.0,0.0
701,67.0,0,40,1.0,0.0
702,52.0,30,60,3.0,0.0
703,67.0,0,60,4.0,0.0
704,67.0,0,40,0.0,0.0
705,53.0,0,30,4.0,0.0
706,64.0,0,30,4.0,0.0
707,55.0,0,30,4.0,0.0
708,67.0,0,120,2.0,0.0
709,64.0,0,30,1.0,0.0
710,64.0,30,30,0.0,0.0
711,61.0,0,30,0.0,0.0
712,61.0,0,30,1.0,0.0
713,61.0,0,30,4.0,0.0
714,52.0,30,30,4.0,0.0
715,50.0,0,60,3.0,0.0
716,57.0,0,40,1.0,0.0
717,57.0,15,40,0.0,0.0
718,57.0,30,60,4.0,0.0
719,50.0,15,30,4.0,0.0
720,52.0,0,30,4.0,0.0
721,64.0,30,30,2.0,0.0
722,70.0,0,120,1.0,0.0
723,70.0,0,120,0.0,0.0
724,55.0,0,30,4.0,0.0
725,70.0,1,120,4.0,0.0
726,61.0,0,30,2.0,0.0
727,52.0,30,30,4.0,0.0
728,49.0,15,30,4.0,0.0
729,49.0,0,60,3.0,0.0
730,55.0,14,40,2.0,0.0
731,50.0,30,30,4.0,0.0
732,70.0,0,120,2.0,0.0
733,67.0,0,30,1.0,0.0
734,52.0,30,30,4.0,0.0
735,67.0,0,30,0.0,0.0
736,67.0,0,30,4.0,0.0
737,64.0,30,30,1.0,0.0
738,49.0,0,30,4.0,0.0
739,64.0,0,30,4.0,0.0
740,64.0,0,30,0.0,0.0
741,57.0,0,60,4.0,0.0
742,50.0,30,60,3.0,0.0
743,57.0,15,40,0.0,0.0
744,57.0,0,40,1.0,0.0
745,50.0,15,30,4.0,0.0
746,53.0,0,30,4.0,0.0
747,73.0,1,120,4.0,0.0
748,52.0,30,30,4.0,0.0
749,67.0,0,30,2.0,0.0
750,73.0,0,120,1.0,0.0
751,73.0,14,120,0.0,0.0
752,64.0,30,30,2.0,0.0
753,50.0,0,30,4.0,0.0
754,52.0,0,60,3.0,0.0
755,52.0,15,30,4.0,0.0
756,55.0,0,40,2.0,0.0
757,53.0,30,30,4.0,0.0
758,73.0,0,120,2.0,0.0
759,70.0,30,30,0.0,0.0
760,70.0,0,30,1.0,0.0
761,70.0,0,30,4.0,0.0
762,55.0,0,30,4.0,0.0
763,67.0,0,30,0.0,0.0
764,67.0,0,30,4.0,0.0
765,52.0,30,30,4.0,0.0
766,67.0,0,30,1.0,0.0
767,53.0,30,60,3.0,0.0
768,57.0,0,40,1.0,0.0
769,57.0,15,40,0.0,0.0
770,53.0,15,30,4.0,0.0
771,57.0,0,30,4.0,0.0
772,76.0,0,120,0.0,0.0
773,70.0,30,30,2.0,0.0
774,76.0,14,120,1.0,0.0
775,76.0,1,120,4.0,0.0
776,55.0,0,30,4.0,0.0
777,67.0,0,30,2.0,0.0
778,53.0,30,30,4.0,0.0
779,55.0,0,40,2.0,0.0
780,55.0,0,40,3.0,0.0
781,55.0,15,30,4.0,0.0
782,43.0,30,30,4.0,0.0
783,73.0,0,30,0.0,0.0
784,76.0,0,120,2.0,0.0
785,55.0,15,40,3.0,0.0
786,73.0,0,30,4.0,0.0
787,55.0,0,30,4.0,0.0
788,73.0,15,30,1.0,0.0
789,69.0,30,30,0.0,0.0
790,69.0,0,30,1.0,0.0
791,53.0,0,30,4.0,0.0
792,69.0,0,30,4.0,0.0
793,55.0,15,40,3.0,0.0
794,55.0,0,60,4.0,0.0
795,70.0,15,30,4.0,0.0
796,70.0,0,30,1.0,0.0
797,70.0,0,30,0.0,0.0
798,67.0,30,30,0.0,0.0
799,67.0,0,30,1.0,0.0
800,67.0,0,30,4.0,0.0
801,69.0,0,30,1.0,0.0
802,73.0,0,30,2.0,0.0
803,69.0,0,30,0.0,0.0
804,55.0,15,40,3.0,0.0
805,69.0,15,30,4.0,0.0
806,65.0,30,30,1.0,0.0
807,69.0,0,30,2.0,0.0
808,65.0,0,30,4.0,0.0
809,65.0,0,30,0.0,0.0
810,67.0,15,30,4.0,0.0
811,55.0,15,40,3.0,0.0
812,67.0,0,30,0.0,0.0
813,70.0,0,30,2.0,0.0
814,67.0,0,30,1.0,0.0
815,64.0,30,30,0.0,0.0
816,64.0,0,30,1.0,0.0
817,64.0,0,30,4.0,0.0
818,67.0,0,30,2.0,0.0
819,43.0,0,30,4.0,0.0
820,55.0,0,30,4.0,0.0
821,65.0,15,30,4.0,0.0
822,65.0,0,30,1.0,0.0
823,55.0,15,40,3.0,0.0
824,69.0,0,30,2.0,0.0
825,65.0,0,30,0.0,0.0
826,53.0,0,30,4.0,0.0
827,62.0,0,30,4.0,0.0
828,62.0,30,30,0.0,0.0
829,65.0,0,30,2.0,0.0
830,62.0,0,30,1.0,0.0
831,67.0,0,30,2.0,0.0
832,64.0,15,30,4.0,0.0
833,55.0,30,60,4.0,0.0
834,64.0,0,30,0.0,0.0
835,55.0,15,40,3.0,0.0
836,64.0,0,30,1.0,0.0
837,61.0,0,30,1.0,0.0
838,64.0,0,30,2.0,0.0
839,61.0,0,30,0.0,0.0
840,61.0,0,30,4.0,0.0
841,65.0,0,30,2.0,0.0
842,62.0,0,30,1.0,0.0
843,62.0,0,30,0.0,0.0
844,62.0,15,30,4.0,0.0
845,55.0,15,40,3.0,0.0
846,59.0,0,30,1.0,0.0
847,59.0,0,30,4.0,0.0
848,59.0,0,30,0.0,0.0
849,62.0,30,30,2.0,0.0
850,61.0,30,30,0.0,0.0
851,61.0,0,30,1.0,0.0
852,69.0,15,540,2.0,0.0
853,52.0,0,60,4.0,0.0
854,43.0,0,90,4.0,0.0
855,61.0,0,30,4.0,0.0
856,55.0,0,120,3.0,0.0
857,57.0,0,30,4.0,0.0
858,57.0,0,30,1.0,0.0
859,57.0,30,30,0.0,0.0
860,59.0,30,30,4.0,0.0
861,59.0,0,30,1.0,0.0
862,59.0,0,30,0.0,0.0
863,61.0,0,30,1.0,0.0
864,61.0,30,30,0.0,0.0
865,45.0,0,30,4.0,0.0
866,61.0,0,30,4.0,0.0
867,62.0,0,30,4.0,0.0
868,62.0,30,30,1.0,0.0
869,47.0,0,30,4.0,0.0
870,62.0,0,30,0.0,0.0
871,64.0,30,30,0.0,0.0
872,49.0,0,30,4.0,0.0
873,64.0,0,30,4.0,0.0
874,64.0,0,30,1.0,0.0
875,65.0,0,30,1.0,0.0
876,65.0,0,30,0.0,0.0
877,50.0,30,30,4.0,0.0
878,65.0,0,30,4.0,0.0
879,67.0,0,30,1.0,0.0
880,67.0,30,30,0.0,0.0
881,52.0,0,30,4.0,0.0
882,67.0,0,30,4.0,0.0
883,54.0,0,30,4.0,0.0
884,69.0,0,30,4.0,0.0
885,69.0,30,30,0.0,0.0
886,54.0,0,30,3.0,0.0
887,69.0,0,30,1.0,0.0
888,70.0,30,30,1.0,0.0
889,55.0,0,30,3.0,0.0
890,55.0,0,30,4.0,0.0
891,70.0,0,30,4.0,0.0
892,70.0,0,30,0.0,0.0
893,57.0,0,30,3.0,0.0
894,72.0,60,30,1.0,0.0
895,72.0,0,30,0.0,0.0
896,57.0,0,30,4.0,0.0
897,72.0,0,30,4.0,0.0
898,57.0,0,30,4.0,0.0
899,57.0,0,30,3.0,0.0
900,72.0,0,30,0.0,0.0
901,72.0,0,30,4.0,0.0
902,72.0,30,30,1.0,0.0
903,58.0,0,30,3.0,0.0
904,74.0,0,30,0.0,0.0
905,74.0,0,30,1.0,0.0
906,58.0,0,30,4.0,0.0
907,74.0,30,30,4.0,0.0
908,75.0,75,30,0.0,0.0
909,60.0,0,30,4.0,0.0
910,75.0,0,30,4.0,0.0
911,75.0,0,30,1.0,0.0
912,60.0,0,30,3.0,0.0
913,60.0,0,60,4.0,0.0
914,60.0,0,60,3.0,0.0
915,66.0,0,60,4.0,0.0
916,64.0,0,120,4.0,0.0
917,66.0,45,60,1.0,0.0
918,66.0,0,60,0.0,0.0
919,67.0,45,60,0.0,0.0
920,62.0,0,40,2.0,0.0
921,59.0,15,40,3.0,0.0
922,67.0,0,60,1.0,0.0
923,67.0,0,60,4.0,0.0
924,59.0,0,60,4.0,0.0
925,58.0,15,40,4.0,0.0
926,64.0,0,60,4.0,0.0
927,73.0,0,40,4.0,0.0
928,58.0,45,60,3.0,0.0
929,57.0,0,40,3.0,0.0
930,74.0,15,40,4.0,0.0
931,57.0,0,40,4.0,0.0
932,65.0,60,60,4.0,0.0
933,57.0,0,60,4.0,0.0
934,57.0,0,60,3.0,0.0
935,64.0,0,60,0.0,0.0
936,61.0,0,60,4.0,0.0
937,64.0,0,60,4.0,0.0
938,61.0,45,60,2.0,0.0
939,64.0,0,60,1.0,0.0
940,56.0,15,40,3.0,0.0
941,56.0,0,60,4.0,0.0
942,62.0,0,60,4.0,0.0
943,62.0,0,60,2.0,0.0
944,65.0,0,60,0.0,0.0
945,65.0,0,60,4.0,0.0
946,65.0,45,60,1.0,0.0
947,55.0,15,40,4.0,0.0
948,64.0,45,60,4.0,0.0
949,73.0,0,40,4.0,0.0
950,55.0,0,60,3.0,0.0
951,74.0,0,40,4.0,0.0
952,65.0,15,60,4.0,0.0
953,53.0,15,40,4.0,0.0
954,53.0,0,40,3.0,0.0
955,44.0,0,60,4.0,0.0
956,50.0,29,60,4.0,0.0
957,71.0,0,120,4.0,0.0
958,77.0,15,15,4.0,0.0
959,44.0,0,60,3.0,0.0
960,77.0,30,120,0.0,0.0
961,74.0,0,120,1.0,0.0
962,71.0,0,120,2.0,0.0
963,79.0,30,15,4.0,0.0
964,77.0,16,60,4.0,0.0
965,45.0,15,40,3.0,0.0
966,45.0,0,60,4.0,0.0
967,76.0,0,30,4.0,0.0
968,74.0,30,30,4.0,0.0
969,45.0,0,60,3.0,0.0
970,53.0,30,60,4.0,0.0
971,45.0,0,60,4.0,0.0
972,72.0,0,30,4.0,0.0
973,47.0,15,40,3.0,0.0
974,71.0,15,30,4.0,0.0
975,69.0,15,30,4.0,0.0
976,47.0,0,60,3.0,0.0
977,74.0,0,120,0.0,0.0
978,68.0,0,120,2.0,0.0
979,47.0,0,15,4.0,0.0
980,65.0,0,120,1.0,0.0
981,56.0,29,60,4.0,0.0
982,74.0,15,15,4.0,0.0
983,76.0,30,15,4.0,0.0
984,74.0,16,60,4.0,0.0
985,48.0,15,40,3.0,0.0
986,72.0,0,30,4.0,0.0
987,48.0,0,60,3.0,0.0
988,48.0,30,15,4.0,0.0
989,52.0,30,60,4.0,0.0
990,71.0,30,30,4.0,0.0
991,69.0,0,30,4.0,0.0
992,50.0,15,40,3.0,0.0
993,50.0,30,60,4.0,0.0
994,68.0,15,30,4.0,0.0
995,66.0,0,30,4.0,0.0
996,59.0,15,30,1.0,0.0
997,50.0,0,120,4.0,0.0
998,56.0,0,120,4.0,0.0
999,59.0,0,120,4.0,0.0
1000,64.0,30,60,4.0,0.0
1001,64.0,15,40,0.0,0.0
1002,56.0,0,30,2.0,0.0
1003,50.0,30,120,3.0,0.0
1004,64.0,0,30,1.0,0.0
1005,76.0,0,30,2.0,0.0
1006,66.0,30,30,4.0,0.0
1007,74.0,0,30,2.0,0.0
1008,66.0,0,30,0.0,0.0
1009,66.0,0,30,1.0,0.0
1010,68.0,0,30,1.0,0.0
1011,68.0,0,30,4.0,0.0
1012,68.0,0,30,0.0,0.0
1013,72.0,0,30,2.0,0.0
1014,69.0,30,30,0.0,0.0
1015,69.0,0,30,4.0,0.0
1016,69.0,0,30,1.0,0.0
1017,71.0,0,30,2.0,0.0
1018,71.0,0,30,1.0,0.0
1019,71.0,30,30,0.0,0.0
1020,69.0,0,30,2.0,0.0
1021,71.0,0,30,4.0,0.0
1022,68.0,0,30,2.0,0.0
1023,72.0,30,30,0.0,0.0
1024,72.0,0,30,1.0,0.0
1025,72.0,0,30,4.0,0.0
1026,66.0,0,30,2.0,0.0
1027,74.0,0,30,1.0,0.0
1028,74.0,0,30,4.0,0.0
1029,74.0,30,30,0.0,0.0
1030,49.0,0,30,4.0,0.0
1031,57.0,0,60,4.0,0.0
1032,76.0,0,30,4.0,0.0
1033,49.0,0,30,3.0,0.0
1034,64.0,0,300,2.0,0.0
1035,76.0,0,30,1.0,0.0
1036,76.0,30,30,0.0,0.0
1037,77.0,0,30,0.0,0.0
1038,77.0,0,30,1.0,0.0
1039,50.0,0,30,3.0,0.0
1040,50.0,0,30,4.0,0.0
1041,77.0,0,30,4.0,0.0
1042,79.0,0,30,0.0,0.0
1043,52.0,60,30,3.0,0.0
1044,79.0,0,30,1.0,0.0
1045,52.0,30,15,4.0,0.0
1046,79.0,0,30,4.0,0.0
1047,79.0,0,30,1.0,0.0
1048,52.0,0,30,3.0,0.0
1049,52.0,30,30,4.0,0.0
1050,79.0,0,30,4.0,0.0
1051,79.0,0,30,0.0,0.0
1052,81.0,0,30,1.0,0.0
1053,53.0,0,30,4.0,0.0
1054,81.0,0,30,4.0,0.0
1055,81.0,0,30,0.0,0.0
1056,53.0,30,30,3.0,0.0
1057,82.0,0,30,1.0,0.0
1058,55.0,75,30,4.0,0.0
1059,82.0,0,30,4.0,0.0
1060,82.0,0,30,0.0,0.0
1061,55.0,0,30,3.0,0.0
1062,55.0,0,40,4.0,0.0
1063,58.0,0,60,4.0,0.0
1064,73.0,0,40,1.0,0.0
1065,55.0,45,60,3.0,0.0
1066,73.0,15,40,0.0,0.0
1067,64.0,0,60,4.0,0.0
1068,73.0,0,40,4.0,0.0
1069,74.0,0,40,4.0,0.0
1070,53.0,15,40,4.0,0.0
1071,65.0,0,60,4.0,0.0
1072,74.0,0,40,1.0,0.0
1073,65.0,0,40,2.0,0.0
1074,53.0,0,40,3.0,0.0
1075,74.0,0,40,0.0,0.0
1076,57.0,45,60,4.0,0.0
1077,68.0,0,40,0.0,0.0
1078,68.0,0,40,4.0,0.0
1079,62.0,0,60,4.0,0.0
1080,59.0,45,60,4.0,0.0
1081,68.0,15,40,1.0,0.0
1082,53.0,0,40,4.0,0.0
1083,59.0,0,40,2.0,0.0
1084,53.0,0,60,3.0,0.0
1085,52.0,0,40,3.0,0.0
1086,69.0,0,40,1.0,0.0
1087,52.0,0,40,4.0,0.0
1088,64.0,30,60,4.0,0.0
1089,69.0,0,40,4.0,0.0
1090,69.0,0,40,0.0,0.0
1091,60.0,0,60,4.0,0.0
1092,60.0,15,40,2.0,0.0
1093,63.0,90,60,1.0,0.0
1094,51.0,0,60,2.0,0.0
1095,63.0,0,60,0.0,0.0
1096,51.0,0,30,4.0,0.0
1097,63.0,30,30,4.0,0.0
1098,51.0,0,60,3.0,0.0
1099,64.0,0,30,4.0,0.0
1100,52.0,30,30,4.0,0.0
1101,52.0,0,60,2.0,0.0
1102,64.0,0,60,1.0,0.0
1103,64.0,75,60,0.0,0.0
1104,52.0,0,60,3.0,0.0
1105,57.0,0,60,0.0,0.0
1106,57.0,0,40,2.0,0.0
1107,45.0,0,120,3.0,0.0
1108,57.0,0,60,1.0,0.0
1109,45.0,0,120,4.0,0.0
1110,57.0,15,15,4.0,0.0
1111,59.0,15,15,4.0,0.0
1112,60.0,15,15,4.0,0.0
1113,62.0,30,15,4.0,0.0
1114,64.0,15,30,4.0,0.0
1115,57.0,15,40,2.0,0.0
1116,59.0,30,30,4.0,0.0
1117,64.0,30,60,1.0,0.0
1118,69.0,0,60,0.0,0.0
1119,57.0,15,40,2.0,0.0
1120,60.0,15,30,4.0,0.0
1121,57.0,0,30,4.0,0.0
1122,57.0,15,40,2.0,0.0
1123,59.0,15,30,4.0,0.0
1124,68.0,0,60,0.0,0.0
1125,62.0,30,60,1.0,0.0
1126,56.0,0,30,4.0,0.0
1127,33.0,30,120,4.0,0.0
1128,57.0,15,30,4.0,0.0
1129,57.0,15,40,2.0,0.0
1130,45.0,0,120,4.0,0.0
1131,52.0,30,30,4.0,0.0
1132,57.0,15,40,2.0,0.0
1133,53.0,15,30,4.0,0.0
1134,50.0,0,30,4.0,0.0
1135,57.0,15,40,2.0,0.0
1136,69.0,30,60,1.0,0.0
1137,52.0,15,30,4.0,0.0
1138,72.0,0,60,0.0,0.0
1139,57.0,0,30,4.0,0.0
1140,68.0,0,60,1.0,0.0
1141,71.0,30,60,0.0,0.0
1142,57.0,15,40,2.0,0.0
1143,59.0,15,30,4.0,0.0
1144,56.0,0,30,4.0,0.0
1145,57.0,15,40,2.0,0.0
1146,33.0,0,120,4.0,0.0
1147,45.0,30,120,4.0,0.0
1148,57.0,15,30,4.0,0.0
1149,60.0,30,30,4.0,0.0
1150,57.0,15,40,2.0,0.0
1151,62.0,15,30,4.0,0.0
1152,59.0,0,30,4.0,0.0
1153,60.0,15,30,4.0,0.0
1154,57.0,15,40,2.0,0.0
1155,76.0,0,60,0.0,0.0
1156,69.0,30,60,1.0,0.0
1157,64.0,0,30,4.0,0.0
1158,65.0,15,30,4.0,0.0
1159,74.0,0,60,0.0,0.0
1160,68.0,0,60,1.0,0.0
1161,57.0,15,40,2.0,0.0
1162,62.0,15,30,4.0,0.0
1163,57.0,0,40,2.0,0.0
1164,45.0,30,120,3.0,0.0
1165,64.0,15,15,4.0,0.0
1166,45.0,0,15,4.0,0.0
1167,68.0,0,15,4.0,0.0
1168,47.0,15,15,4.0,0.0
1169,48.0,15,15,4.0,0.0
1170,69.0,0,15,4.0,0.0
1171,71.0,30,15,4.0,0.0
1172,50.0,0,15,4.0,0.0
1173,57.0,15,40,2.0,0.0
1174,52.0,15,30,4.0,0.0
1175,72.0,0,30,4.0,0.0
1176,47.0,0,30,4.0,0.0
1177,68.0,0,30,4.0,0.0
1178,48.0,15,30,4.0,0.0
1179,69.0,0,30,4.0,0.0
1180,72.0,30,60,0.0,0.0
1181,69.0,0,60,1.0,0.0
1182,57.0,15,40,2.0,0.0
1183,45.0,0,30,4.0,0.0
1184,64.0,0,30,4.0,0.0
1185,50.0,0,30,4.0,0.0
1186,57.0,15,40,2.0,0.0
1187,65.0,15,30,4.0,0.0
1188,68.0,0,60,1.0,0.0
1189,71.0,30,60,0.0,0.0
1190,47.0,0,30,4.0,0.0
1191,62.0,0,30,4.0,0.0
1192,64.0,15,30,4.0,0.0
1193,48.0,0,30,4.0,0.0
1194,57.0,15,40,2.0,0.0
1195,45.0,30,30,4.0,0.0
1196,60.0,0,30,4.0,0.0
1197,62.0,0,30,4.0,0.0
1198,47.0,15,30,4.0,0.0
1199,57.0,15,40,2.0,0.0
1200,59.0,0,30,4.0,0.0
1201,44.0,30,30,4.0,0.0
1202,57.0,15,40,2.0,0.0
1203,64.0,0,60,1.0,0.0
1204,60.0,15,30,4.0,0.0
1205,45.0,0,30,4.0,0.0
1206,69.0,30,60,0.0,0.0
1207,64.0,0,30,4.0,0.0
1208,48.0,0,30,4.0,0.0
1209,50.0,0,30,4.0,0.0
1210,65.0,15,30,4.0,0.0
1211,68.0,30,60,0.0,0.0
1212,57.0,15,40,2.0,0.0
1213,62.0,0,60,1.0,0.0
1214,62.0,0,30,4.0,0.0
1215,47.0,0,30,4.0,0.0
1216,48.0,15,30,4.0,0.0
1217,64.0,0,30,4.0,0.0
1218,57.0,15,40,2.0,0.0
1219,60.0,0,30,4.0,0.0
1220,69.0,30,30,4.0,0.0
1221,71.0,0,30,4.0,0.0
1222,62.0,15,30,4.0,0.0
1223,57.0,15,40,2.0,0.0
1224,59.0,30,30,4.0,0.0
1225,68.0,0,30,4.0,0.0
1226,57.0,15,40,2.0,0.0
1227,60.0,15,30,4.0,0.0
1228,69.0,0,30,4.0,0.0
1229,69.0,0,60,0.0,0.0
1230,60.0,30,60,1.0,0.0
1231,72.0,0,30,4.0,0.0
1232,64.0,0,30,4.0,0.0
1233,74.0,15,30,4.0,0.0
1234,57.0,15,40,2.0,0.0
1235,65.0,0,30,4.0,0.0
1236,68.0,0,60,0.0,0.0
1237,59.0,30,60,1.0,0.0
1238,71.0,0,30,4.0,0.0
1239,62.0,0,30,4.0,0.0
1240,64.0,15,30,4.0,0.0
1241,72.0,0,30,4.0,0.0
1242,57.0,15,40,2.0,0.0
1243,45.0,0,120,3.0,0.0
1244,68.0,30,30,4.0,0.0
1245,59.0,0,30,4.0,0.0
1246,69.0,15,30,4.0,0.0
1247,60.0,0,30,4.0,0.0
1248,57.0,15,40,2.0,0.0
1249,64.0,0,30,4.0,0.0
1250,56.0,30,30,4.0,0.0
1251,57.0,0,60,1.0,0.0
1252,62.0,0,60,0.0,0.0
1253,57.0,0,60,4.0,0.0
1254,65.0,15,30,4.0,0.0
1255,57.0,15,40,2.0,0.0
1256,62.0,30,30,4.0,0.0
1257,57.0,15,40,2.0,0.0
1258,59.0,0,60,0.0,0.0
1259,50.0,0,60,4.0,0.0
1260,56.0,0,60,4.0,0.0
1261,64.0,15,30,4.0,0.0
1262,56.0,30,60,1.0,0.0
1263,59.0,0,30,4.0,0.0
1264,48.0,30,60,4.0,0.0
1265,45.0,0,15,4.0,0.0
1266,52.0,0,60,4.0,0.0
1267,60.0,15,30,4.0,0.0
1268,57.0,15,40,2.0,0.0
1269,56.0,0,30,4.0,0.0
1270,57.0,15,40,2.0,0.0
1271,57.0,15,30,4.0,0.0
1272,52.0,30,30,4.0,0.0
1273,59.0,0,60,0.0,0.0
1274,62.0,0,60,1.0,0.0
1275,53.0,15,30,4.0,0.0
1276,57.0,15,40,2.0,0.0
1277,50.0,30,30,4.0,0.0
1278,56.0,0,40,0.0,0.0
1279,57.0,0,40,2.0,0.0
1280,52.0,15,30,4.0,0.0
1281,59.0,15,40,1.0,0.0
1282,47.0,30,30,4.0,0.0
1283,57.0,0,120,0.0,0.0
1284,33.0,30,120,4.0,0.0
1285,48.0,15,30,4.0,0.0
1286,64.0,0,120,1.0,0.0
1287,57.0,15,40,2.0,0.0
1288,44.0,30,30,4.0,0.0
1289,45.0,15,30,4.0,0.0
1290,57.0,15,40,2.0,0.0
1291,48.0,0,30,4.0,0.0
1292,52.0,15,30,4.0,0.0
1293,57.0,15,40,2.0,0.0
1294,47.0,30,30,4.0,0.0
1295,48.0,15,30,4.0,0.0
1296,57.0,15,40,2.0,0.0
1297,52.0,30,30,4.0,0.0
1298,45.0,0,120,3.0,0.0
1299,57.0,15,40,2.0,0.0
1300,57.0,15,30,4.0,0.0
1301,51.0,0,30,4.0,0.0
1302,47.0,30,30,4.0,0.0
1303,48.0,15,30,4.0,0.0
1304,52.0,0,30,4.0,0.0
1305,57.0,15,40,2.0,0.0
1306,57.0,0,30,4.0,0.0
1307,52.0,30,30,4.0,0.0
1308,57.0,15,40,2.0,0.0
1309,57.0,15,30,4.0,0.0
1310,60.0,0,30,4.0,0.0
1311,56.0,30,30,4.0,0.0
1312,47.0,0,30,4.0,0.0
1313,57.0,15,40,2.0,0.0
1314,48.0,15,30,4.0,0.0
1315,57.0,0,30,4.0,0.0
1316,52.0,30,30,4.0,0.0
1317,60.0,0,30,4.0,0.0
1318,57.0,30,90,2.0,0.0
1319,64.0,30,30,4.0,0.0
1320,59.0,30,30,4.0,0.0
1321,60.0,0,30,4.0,0.0
1322,64.0,60,30,4.0,0.0
1323,57.0,0,30,4.0,0.0
1324,45.0,60,30,4.0,0.0
1325,72.0,0,60,4.0,0.0
1326,69.0,0,15,4.0,0.0
1327,64.0,0,60,4.0,0.0
1328,57.0,60,30,4.0,0.0
1329,45.0,0,30,4.0,0.0
1330,72.0,0,60,4.0,0.0
1331,69.0,0,60,4.0,0.0
1332,76.0,0,60,4.0,0.0
1333,45.0,0,30,4.0,0.0
1334,57.0,60,30,4.0,0.0
1335,60.0,60,60,4.0,0.0
1336,64.0,0,60,4.0,0.0
1337,57.0,0,30,4.0,0.0
1338,45.0,0,30,4.0,0.0
1339,69.0,0,15,4.0,0.0
1340,64.0,0,60,4.0,0.0
1341,57.0,0,30,4.0,0.0
1342,45.0,60,30,4.0,0.0
1343,72.0,0,15,4.0,0.0
1344,69.0,0,15,4.0,0.0
1345,57.0,0,30,4.0,0.0
1346,45.0,0,30,4.0,0.0
1347,76.0,0,15,4.0,0.0
1348,81.0,0,30,4.0,0.0
1349,72.0,0,15,4.0,0.0
1350,64.0,0,60,1.0,0.0
1351,57.0,15,40,3.0,0.0
1352,69.0,14,30,0.0,0.0
1353,71.0,30,30,0.0,0.0
1354,69.0,0,30,4.0,0.0
1355,72.0,15,30,0.0,0.0
1356,57.0,0,60,4.0,0.0
1357,72.0,0,30,4.0,0.0
1358,57.0,15,40,3.0,0.0
1359,76.0,30,30,4.0,0.0
1360,69.0,0,120,2.0,0.0
1361,76.0,0,60,1.0,0.0
1362,71.0,0,40,0.0,0.0
1363,57.0,15,40,3.0,0.0
1364,57.0,0,60,4.0,0.0
1365,81.0,15,30,4.0,0.0
1366,69.0,30,30,4.0,0.0
1367,45.0,0,60,4.0,0.0
1368,72.0,15,30,4.0,0.0
1369,57.0,0,40,3.0,0.0
1370,69.0,15,40,0.0,0.0
1371,76.0,30,30,4.0,0.0
1372,81.0,15,30,4.0,0.0
1373,43.0,0,60,4.0,0.0
1374,73.0,0,60,1.0,0.0
1375,76.0,15,40,0.0,0.0
1376,55.0,0,40,3.0,0.0
1377,69.0,30,30,4.0,0.0
1378,73.0,15,30,4.0,0.0
1379,81.0,0,120,0.0,0.0
1380,55.0,15,40,3.0,0.0
1381,76.0,30,30,4.0,0.0
1382,55.0,0,15,4.0,0.0
1383,55.0,15,40,3.0,0.0
1384,81.0,15,30,4.0,0.0
1385,67.0,30,120,2.0,0.0
1386,69.0,0,60,1.0,0.0
1387,69.0,0,30,4.0,0.0
1388,55.0,0,40,3.0,0.0
1389,73.0,15,40,0.0,0.0
1390,43.0,0,60,4.0,0.0
1391,73.0,15,30,4.0,0.0
1392,76.0,0,30,4.0,0.0
1393,41.0,0,60,4.0,0.0
1394,62.0,15,30,1.0,0.0
1395,74.0,0,60,0.0,0.0
1396,53.0,15,40,3.0,0.0
1397,81.0,0,30,4.0,0.0
1398,69.0,0,30,4.0,0.0
1399,64.0,30,30,1.0,0.0
1400,74.0,0,30,4.0,0.0
1401,53.0,15,40,3.0,0.0
1402,53.0,0,60,4.0,0.0
1403,65.0,15,30,1.0,0.0
1404,77.0,30,30,4.0,0.0
1405,77.0,0,60,0.0,0.0
1406,53.0,0,60,4.0,0.0
1407,81.0,15,30,4.0,0.0
1408,53.0,0,40,3.0,0.0
1409,65.0,0,120,2.0,0.0
1410,64.0,15,40,1.0,0.0
1411,69.0,30,30,4.0,0.0
1412,53.0,0,40,3.0,0.0
1413,74.0,15,30,4.0,0.0
1414,62.0,15,40,1.0,0.0
1415,41.0,30,60,4.0,0.0
1416,77.0,0,30,4.0,0.0
1417,42.0,0,60,4.0,0.0
1418,81.0,15,30,4.0,0.0
1419,69.0,0,40,1.0,0.0
1420,74.0,0,60,0.0,0.0
1421,54.0,15,40,3.0,0.0
1422,69.0,30,30,4.0,0.0
1423,54.0,15,40,3.0,0.0
1424,74.0,15,120,1.0,0.0
1425,72.0,15,30,4.0,0.0
1426,78.0,30,30,4.0,0.0
1427,66.0,0,120,2.0,0.0
1428,69.0,0,60,0.0,0.0
1429,81.0,15,30,4.0,0.0
1430,54.0,0,15,4.0,0.0
1431,54.0,0,40,3.0,0.0
1432,78.0,0,30,4.0,0.0
1433,54.0,0,40,3.0,0.0
1434,72.0,15,30,4.0,0.0
1435,44.0,0,60,4.0,0.0
1436,69.0,15,40,1.0,0.0
1437,69.0,30,30,4.0,0.0
1438,43.0,30,60,4.0,0.0
1439,62.0,0,60,1.0,0.0
1440,67.0,0,30,0.0,0.0
1441,55.0,15,40,3.0,0.0
1442,70.0,15,30,4.0,0.0
1443,69.0,0,30,0.0,0.0
1444,67.0,0,30,4.0,0.0
1445,55.0,15,40,3.0,0.0
1446,70.0,0,30,0.0,0.0
1447,70.0,15,30,4.0,0.0
1448,74.0,0,30,4.0,0.0
1449,67.0,0,120,2.0,0.0
1450,79.0,15,30,4.0,0.0
1451,55.0,0,40,3.0,0.0
1452,55.0,30,15,4.0,0.0
1453,74.0,0,60,1.0,0.0
1454,69.0,15,40,0.0,0.0
1455,67.0,30,30,4.0,0.0
1456,70.0,15,30,4.0,0.0
1457,55.0,0,40,3.0,0.0
1458,67.0,15,40,0.0,0.0
1459,43.0,30,60,4.0,0.0
1460,74.0,0,30,4.0,0.0
1461,74.0,0,40,0.0,0.0
1462,71.0,0,60,1.0,0.0
1463,53.0,15,40,3.0,0.0
1464,79.0,15,30,4.0,0.0
1465,41.0,30,60,4.0,0.0
1466,67.0,0,30,4.0,0.0
1467,79.0,15,120,0.0,0.0
1468,71.0,15,30,4.0,0.0
1469,53.0,30,60,4.0,0.0
1470,53.0,15,40,3.0,0.0
1471,74.0,0,30,4.0,0.0
1472,65.0,0,120,2.0,0.0
1473,53.0,0,40,3.0,0.0
1474,67.0,0,60,1.0,0.0
1475,53.0,0,60,4.0,0.0
1476,79.0,15,30,4.0,0.0
1477,67.0,30,30,4.0,0.0
1478,71.0,15,30,4.0,0.0
1479,71.0,0,40,0.0,0.0
1480,41.0,30,60,4.0,0.0
1481,53.0,15,40,3.0,0.0
1482,74.0,0,30,4.0,0.0
1483,60.0,0,30,1.0,0.0
1484,72.0,0,60,0.0,0.0
1485,52.0,15,40,3.0,0.0
1486,40.0,0,60,4.0,0.0
1487,79.0,15,30,4.0,0.0
1488,62.0,0,30,1.0,0.0
1489,67.0,30,30,4.0,0.0
1490,64.0,0,30,1.0,0.0
1491,72.0,15,30,4.0,0.0
1492,52.0,15,40,3.0,0.0
1493,76.0,30,30,4.0,0.0
1494,52.0,0,40,3.0,0.0
1495,79.0,15,30,4.0,0.0
1496,52.0,0,15,4.0,0.0
1497,64.0,0,120,2.0,0.0
1498,76.0,0,60,0.0,0.0
1499,62.0,15,40,1.0,0.0
1500,67.0,30,30,4.0,0.0
1501,60.0,0,40,1.0,0.0
1502,72.0,15,30,4.0,0.0
1503,52.0,15,40,3.0,0.0
1504,76.0,0,30,4.0,0.0
1505,67.0,15,40,1.0,0.0
1506,72.0,0,60,0.0,0.0
1507,52.0,0,40,3.0,0.0
1508,79.0,15,30,4.0,0.0
1509,40.0,30,15,4.0,0.0
1510,67.0,0,30,4.0,0.0
1511,52.0,15,40,3.0,0.0
1512,72.0,0,120,1.0,0.0
1513,70.0,15,30,4.0,0.0
1514,76.0,30,30,4.0,0.0
1515,67.0,0,60,0.0,0.0
1516,52.0,15,40,3.0,0.0
1517,79.0,15,30,4.0,0.0
1518,52.0,0,15,4.0,0.0
1519,64.0,30,120,2.0,0.0
1520,76.0,0,30,4.0,0.0
1521,52.0,15,40,3.0,0.0
1522,70.0,15,30,4.0,0.0
1523,40.0,0,60,4.0,0.0
1524,67.0,0,40,1.0,0.0
1525,67.0,0,30,4.0,0.0
1526,60.0,0,60,1.0,0.0
1527,53.0,15,40,3.0,0.0
1528,69.0,15,30,4.0,0.0
1529,41.0,0,60,4.0,0.0
1530,65.0,0,30,0.0,0.0
1531,67.0,0,30,0.0,0.0
1532,65.0,30,30,4.0,0.0
1533,69.0,0,30,0.0,0.0
1534,53.0,15,40,3.0,0.0
1535,69.0,15,30,4.0,0.0
1536,72.0,0,30,4.0,0.0
1537,53.0,30,15,4.0,0.0
1538,72.0,0,60,1.0,0.0
1539,53.0,15,40,3.0,0.0
1540,67.0,0,40,0.0,0.0
1541,65.0,0,120,2.0,0.0
1542,77.0,15,30,4.0,0.0
1543,65.0,30,30,4.0,0.0
1544,41.0,0,60,4.0,0.0
1545,53.0,15,40,3.0,0.0
1546,69.0,15,30,4.0,0.0
1547,65.0,0,40,0.0,0.0
1548,72.0,30,30,4.0,0.0
1549,51.0,0,40,3.0,0.0
1550,69.0,0,60,1.0,0.0
1551,72.0,15,40,0.0,0.0
1552,77.0,15,30,4.0,0.0
1553,39.0,30,60,4.0,0.0
1554,65.0,0,30,4.0,0.0
1555,77.0,15,120,0.0,0.0
1556,51.0,15,40,3.0,0.0
1557,51.0,0,60,4.0,0.0
1558,69.0,15,30,4.0,0.0
1559,72.0,30,30,4.0,0.0
1560,65.0,0,60,1.0,0.0
1561,51.0,30,60,4.0,0.0
1562,51.0,0,40,3.0,0.0
1563,77.0,15,30,4.0,0.0
1564,63.0,0,120,2.0,0.0
1565,65.0,0,30,4.0,0.0
1566,51.0,0,40,3.0,0.0
1567,69.0,15,30,4.0,0.0
1568,39.0,30,60,4.0,0.0
1569,69.0,15,40,0.0,0.0
1570,72.0,0,30,4.0,0.0
1571,58.0,0,30,1.0,0.0
1572,77.0,15,30,4.0,0.0
1573,38.0,0,60,4.0,0.0
1574,50.0,15,40,3.0,0.0
1575,70.0,0,60,0.0,0.0
1576,60.0,0,30,1.0,0.0
1577,65.0,30,30,4.0,0.0
1578,62.0,15,30,1.0,0.0
1579,70.0,0,30,4.0,0.0
1580,50.0,15,40,3.0,0.0
1581,74.0,0,30,4.0,0.0
1582,77.0,15,30,4.0,0.0
1583,60.0,0,40,1.0,0.0
1584,50.0,30,15,4.0,0.0
1585,50.0,15,40,3.0,0.0
1586,74.0,0,60,0.0,0.0
1587,62.0,0,120,2.0,0.0
1588,65.0,30,30,4.0,0.0
1589,58.0,0,40,1.0,0.0
1590,50.0,15,40,3.0,0.0
1591,70.0,15,30,4.0,0.0
1592,74.0,30,30,4.0,0.0
1593,77.0,15,30,4.0,0.0
1594,65.0,0,40,1.0,0.0
1595,50.0,15,40,3.0,0.0
1596,70.0,30,60,0.0,0.0
1597,38.0,0,15,4.0,0.0
1598,65.0,0,30,4.0,0.0
1599,70.0,15,30,4.0,0.0
1600,70.0,0,120,1.0,0.0
1601,50.0,15,40,3.0,0.0
1602,74.0,0,30,4.0,0.0
1603,65.0,30,60,0.0,0.0
1604,50.0,15,40,3.0,0.0
1605,77.0,15,30,4.0,0.0
1606,50.0,30,15,4.0,0.0
1607,62.0,30,120,2.0,0.0
1608,74.0,0,30,4.0,0.0
1609,50.0,0,40,3.0,0.0
1610,38.0,0,60,4.0,0.0
1611,65.0,15,40,1.0,0.0
1612,70.0,15,30,4.0,0.0
1613,74.0,0,30,4.0,0.0
1614,50.0,0,120,3.0,0.0
1615,64.0,15,40,0.0,0.0
1616,64.0,0,40,2.0,0.0
1617,68.0,0,30,4.0,0.0
1618,38.0,15,30,4.0,0.0
1619,59.0,0,60,1.0,0.0
1620,64.0,0,30,4.0,0.0
1621,62.0,30,30,4.0,0.0
1622,59.0,15,30,4.0,0.0
1623,68.0,0,30,4.0,0.0
1624,71.0,0,120,2.0,0.0
1625,64.0,15,40,0.0,0.0
1626,56.0,0,30,4.0,0.0
1627,71.0,30,30,4.0,0.0
1628,52.0,15,30,4.0,0.0
1629,76.0,0,30,4.0,0.0
1630,59.0,0,60,1.0,0.0
1631,68.0,15,40,0.0,0.0
1632,64.0,0,30,4.0,0.0
1633,59.0,30,30,4.0,0.0
1634,68.0,15,40,0.0,0.0
1635,68.0,15,30,4.0,0.0
1636,56.0,0,30,4.0,0.0
1637,64.0,15,120,2.0,0.0
1638,71.0,0,30,4.0,0.0
1639,52.0,30,30,4.0,0.0
1640,48.0,0,60,4.0,0.0
1641,76.0,15,30,4.0,0.0
1642,69.0,0,40,0.0,0.0
1643,60.0,0,60,1.0,0.0
1644,48.0,0,120,3.0,0.0
1645,64.0,30,30,4.0,0.0
1646,69.0,15,40,0.0,0.0
1647,60.0,0,60,4.0,0.0
1648,60.0,15,120,2.0,0.0
1649,68.0,15,30,4.0,0.0
1650,71.0,30,30,4.0,0.0
1651,72.0,0,40,0.0,0.0
1652,64.0,0,60,1.0,0.0
1653,76.0,15,30,4.0,0.0
1654,72.0,30,30,4.0,0.0
1655,72.0,15,40,0.0,0.0
1656,57.0,0,120,2.0,0.0
1657,69.0,15,30,4.0,0.0
1658,72.0,30,30,4.0,0.0
1659,66.0,0,60,1.0,0.0
1660,66.0,15,30,4.0,0.0
1661,48.0,0,120,3.0,0.0
1662,62.0,15,40,0.0,0.0
1663,60.0,30,30,4.0,0.0
1664,62.0,0,30,4.0,0.0
1665,69.0,15,120,2.0,0.0
1666,66.0,0,30,4.0,0.0
1667,57.0,15,30,4.0,0.0
1668,62.0,15,40,0.0,0.0
1669,69.0,0,30,4.0,0.0
1670,54.0,30,30,4.0,0.0
1671,66.0,0,40,0.0,0.0
1672,57.0,0,60,1.0,0.0
1673,50.0,15,30,4.0,0.0
1674,74.0,0,30,4.0,0.0
1675,62.0,30,30,4.0,0.0
1676,57.0,0,30,4.0,0.0
1677,66.0,15,40,0.0,0.0
1678,62.0,15,120,2.0,0.0
1679,54.0,15,30,4.0,0.0
1680,66.0,0,30,4.0,0.0
1681,50.0,30,30,4.0,0.0
1682,69.0,0,30,4.0,0.0
1683,67.0,0,40,0.0,0.0
1684,46.0,0,60,4.0,0.0
1685,74.0,15,30,4.0,0.0
1686,46.0,30,120,3.0,0.0
1687,58.0,30,60,1.0,0.0
1688,62.0,0,30,4.0,0.0
1689,58.0,0,60,4.0,0.0
1690,67.0,15,40,0.0,0.0
1691,67.0,15,30,4.0,0.0
1692,58.0,15,120,2.0,0.0
1693,70.0,0,30,4.0,0.0
1694,62.0,0,60,1.0,0.0
1695,74.0,15,30,4.0,0.0
1696,70.0,0,40,0.0,0.0
1697,70.0,30,30,4.0,0.0
1698,55.0,0,120,2.0,0.0
1699,67.0,15,30,4.0,0.0
1700,70.0,15,40,0.0,0.0
1701,70.0,30,30,4.0,0.0
1702,64.0,15,30,4.0,0.0
1703,64.0,0,60,1.0,0.0
1704,60.0,15,40,0.0,0.0
1705,46.0,30,120,3.0,0.0
1706,60.0,30,30,4.0,0.0
1707,58.0,0,30,4.0,0.0
1708,60.0,15,40,0.0,0.0
1709,55.0,0,30,4.0,0.0
1710,67.0,0,120,2.0,0.0
1711,64.0,15,30,4.0,0.0
1712,67.0,0,30,4.0,0.0
1713,52.0,0,30,4.0,0.0
1714,48.0,0,30,4.0,0.0
1715,72.0,15,30,4.0,0.0
1716,64.0,15,40,0.0,0.0
1717,55.0,30,60,1.0,0.0
1718,60.0,0,30,4.0,0.0
1719,55.0,0,30,4.0,0.0
1720,52.0,0,30,4.0,0.0
1721,64.0,15,30,4.0,0.0
1722,64.0,15,40,0.0,0.0
1723,60.0,15,120,2.0,0.0
1724,67.0,30,30,4.0,0.0
1725,48.0,0,30,4.0,0.0
1726,65.0,0,40,0.0,0.0
1727,72.0,15,30,4.0,0.0
1728,45.0,0,60,4.0,0.0
1729,45.0,30,120,3.0,0.0
1730,57.0,0,60,1.0,0.0
1731,60.0,30,30,4.0,0.0
1732,65.0,15,40,0.0,0.0
1733,57.0,0,60,4.0,0.0
1734,57.0,0,120,2.0,0.0
1735,65.0,15,30,4.0,0.0
1736,69.0,0,30,4.0,0.0
1737,72.0,15,30,4.0,0.0
1738,69.0,15,40,0.0,0.0
1739,57.0,1,240,3.0,0.0
1740,60.0,0,60,1.0,0.0
1741,69.0,0,30,4.0,0.0
1742,57.0,30,30,4.0,0.0
1743,53.0,0,120,2.0,0.0
1744,69.0,15,40,0.0,0.0
1745,60.0,15,30,4.0,0.0
1746,65.0,0,30,4.0,0.0
1747,69.0,0,30,4.0,0.0
1748,57.0,30,30,4.0,0.0
1749,70.0,30,240,0.0,0.0
1750,45.0,0,30,4.0,0.0
1751,62.0,30,30,4.0,0.0
1752,62.0,30,60,1.0,0.0
1753,50.0,0,30,4.0,0.0
1754,58.0,0,30,4.0,0.0
1755,53.0,29,30,4.0,0.0
1756,62.0,0,30,4.0,0.0
1757,70.0,0,120,2.0,0.0
1758,57.0,30,30,4.0,0.0
1759,65.0,0,30,4.0,0.0
1760,70.0,0,30,4.0,0.0
1761,43.0,30,30,4.0,0.0
1762,64.0,0,60,1.0,0.0
1763,55.0,30,240,3.0,0.0
1764,67.0,30,30,4.0,0.0
1765,55.0,0,30,4.0,0.0
1766,58.0,30,30,4.0,0.0
1767,67.0,0,60,2.0,0.0
1768,64.0,0,30,4.0,0.0
1769,67.0,0,30,4.0,0.0
1770,55.0,0,30,4.0,0.0
1771,60.0,0,30,4.0,0.0
1772,43.0,30,30,4.0,0.0
1773,64.0,0,60,1.0,0.0
1774,69.0,30,240,0.0,0.0
1775,64.0,30,60,2.0,0.0
1776,57.0,0,30,4.0,0.0
1777,48.0,0,30,4.0,0.0
1778,69.0,0,120,2.0,0.0
1779,52.0,30,30,4.0,0.0
1780,60.0,0,30,4.0,0.0
1781,64.0,0,30,4.0,0.0
1782,55.0,0,30,4.0,0.0
1783,62.0,0,60,1.0,0.0
1784,69.0,0,30,4.0,0.0
1785,41.0,30,30,4.0,0.0
1786,53.0,0,240,3.0,0.0
1787,53.0,0,30,4.0,0.0
1788,65.0,30,30,4.0,0.0
1789,62.0,30,30,4.0,0.0
1790,65.0,0,60,2.0,0.0
1791,57.0,0,30,4.0,0.0
1792,53.0,0,30,4.0,0.0
1793,65.0,0,30,4.0,0.0
1794,67.0,0,240,0.0,0.0
1795,58.0,30,30,4.0,0.0
1796,41.0,0,30,4.0,0.0
1797,62.0,30,60,1.0,0.0
1798,62.0,0,60,2.0,0.0
1799,55.0,0,30,4.0,0.0
1800,46.0,0,30,4.0,0.0
1801,67.0,0,120,2.0,0.0
1802,58.0,0,30,4.0,0.0
1803,50.0,30,30,4.0,0.0
1804,62.0,30,30,4.0,0.0
1805,53.0,0,30,4.0,0.0
1806,60.0,30,60,1.0,0.0
1807,52.0,0,120,3.0,0.0
1808,67.0,0,30,4.0,0.0
1809,40.0,30,30,4.0,0.0
1810,52.0,0,30,4.0,0.0
1811,64.0,0,30,4.0,0.0
1812,64.0,0,60,2.0,0.0
1813,55.0,0,30,4.0,0.0
1814,60.0,30,30,4.0,0.0
1815,52.0,0,30,4.0,0.0
1816,64.0,30,30,4.0,0.0
1817,60.0,0,120,2.0,0.0
1818,65.0,0,120,0.0,0.0
1819,53.0,30,120,3.0,0.0
1820,65.0,0,120,1.0,0.0
1821,41.0,30,30,4.0,0.0
1822,57.0,0,30,4.0,0.0
1823,65.0,30,30,4.0,0.0
1824,45.0,0,30,4.0,0.0
1825,67.0,30,30,4.0,0.0
1826,46.0,0,30,4.0,0.0
1827,69.0,0,30,4.0,0.0
1828,48.0,0,30,4.0,0.0
1829,50.0,0,30,4.0,0.0
1830,70.0,30,30,4.0,0.0
1831,52.0,30,30,4.0,0.0
1832,72.0,0,30,4.0,0.0
1833,74.0,15,30,4.0,0.0
1834,53.0,0,30,4.0,0.0
1835,72.0,15,40,1.0,0.0
1836,55.0,0,40,2.0,0.0
1837,67.0,0,40,0.0,0.0
1838,52.0,0,40,3.0,0.0
1839,76.0,0,30,4.0,0.0
1840,52.0,30,30,4.0,0.0
1841,50.0,30,30,4.0,0.0
1842,77.0,0,30,4.0,0.0
1843,50.0,0,120,3.0,0.0
1844,62.0,0,120,2.0,0.0
1845,69.0,0,30,0.0,0.0
1846,65.0,0,30,1.0,0.0
1847,72.0,0,30,1.0,0.0
1848,52.0,30,30,4.0,0.0
1849,72.0,0,30,4.0,0.0
1850,72.0,0,30,0.0,0.0
1851,74.0,30,30,0.0,0.0
1852,74.0,0,30,4.0,0.0
1853,53.0,0,30,4.0,0.0
1854,74.0,0,30,1.0,0.0
1855,76.0,0,30,1.0,0.0
1856,76.0,0,30,4.0,0.0
1857,55.0,0,30,4.0,0.0
1858,76.0,30,30,0.0,0.0
1859,77.0,0,30,4.0,0.0
1860,57.0,30,30,4.0,0.0
1861,77.0,0,30,1.0,0.0
1862,77.0,0,30,0.0,0.0
1863,64.0,30,30,2.0,0.0
1864,79.0,0,30,1.0,0.0
1865,79.0,0,30,4.0,0.0
1866,58.0,0,30,4.0,0.0
1867,79.0,0,30,0.0,0.0
1868,81.0,30,30,0.0,0.0
1869,81.0,0,30,1.0,0.0
1870,65.0,0,30,2.0,0.0
1871,48.0,0,30,3.0,0.0
1872,60.0,0,30,4.0,0.0
1873,81.0,0,30,4.0,0.0
1874,46.0,45,30,3.0,0.0
1875,82.0,0,30,0.0,0.0
1876,82.0,0,30,1.0,0.0
1877,58.0,0,30,4.0,0.0
1878,82.0,0,30,4.0,0.0
1879,67.0,0,30,2.0,0.0
1880,84.0,0,40,1.0,0.0
1881,84.0,0,60,4.0,0.0
1882,84.0,0,40,0.0,0.0
1883,57.0,10,60,4.0,0.0
1884,45.0,0,40,3.0,0.0
1885,69.0,15,40,2.0,0.0
1886,77.0,0,40,1.0,0.0
1887,46.0,0,40,3.0,0.0
1888,60.0,10,15,4.0,0.0
1889,77.0,15,40,0.0,0.0
1890,74.0,0,40,2.0,0.0
1891,77.0,45,60,4.0,0.0
1892,58.0,10,15,4.0,0.0
1893,57.0,15,15,4.0,0.0
1894,58.0,0,30,4.0,0.0
1895,67.0,0,40,1.0,0.0
1896,72.0,0,40,2.0,0.0
1897,67.0,0,60,4.0,0.0
1898,60.0,45,60,4.0,0.0
1899,67.0,0,40,0.0,0.0
1900,48.0,15,40,3.0,0.0
1901,70.0,15,40,2.0,0.0
1902,48.0,30,60,4.0,0.0
1903,76.0,0,60,4.0,0.0
1904,76.0,0,40,1.0,0.0
1905,76.0,0,40,0.0,0.0
1906,36.0,0,40,3.0,0.0
1907,77.0,0,480,0.0,0.0
1908,41.0,15,40,3.0,0.0
1909,41.0,45,120,4.0,0.0
1910,53.0,0,120,4.0,0.0
1911,65.0,15,30,4.0,0.0
1912,69.0,30,480,2.0,0.0
1913,72.0,0,480,1.0,0.0
1914,67.0,45,30,4.0,0.0
1915,41.0,15,40,3.0,0.0
1916,69.0,0,60,4.0,0.0
1917,41.0,15,40,3.0,0.0
1918,67.0,45,60,4.0,0.0
1919,65.0,30,60,4.0,0.0
1920,41.0,15,40,3.0,0.0
1921,57.0,15,30,4.0,0.0
1922,72.0,0,60,4.0,0.0
1923,41.0,15,40,3.0,0.0
1924,58.0,30,30,4.0,0.0
1925,41.0,15,40,3.0,0.0
1926,81.0,30,120,4.0,0.0
1927,60.0,15,30,4.0,0.0
1928,58.0,30,30,4.0,0.0
1929,41.0,15,40,3.0,0.0
1930,62.0,15,30,4.0,0.0
1931,60.0,0,30,4.0,0.0
1932,41.0,15,40,3.0,0.0
1933,58.0,15,30,4.0,0.0
1934,72.0,0,60,4.0,0.0
1935,57.0,0,30,4.0,0.0
1936,79.0,0,240,0.0,0.0
1937,55.0,15,30,4.0,0.0
1938,64.0,0,30,4.0,0.0
1939,64.0,30,240,2.0,0.0
1940,70.0,30,480,1.0,0.0
1941,41.0,15,40,3.0,0.0
1942,57.0,30,30,4.0,0.0
1943,65.0,0,30,4.0,0.0
1944,41.0,15,40,3.0,0.0
1945,58.0,15,30,4.0,0.0
1946,67.0,30,60,4.0,0.0
1947,57.0,0,30,4.0,0.0
1948,58.0,15,30,4.0,0.0
1949,65.0,30,60,4.0,0.0
1950,41.0,15,40,3.0,0.0
1951,57.0,0,30,4.0,0.0
1952,41.0,15,40,3.0,0.0
1953,55.0,15,30,4.0,0.0
1954,64.0,0,60,4.0,0.0
1955,53.0,0,30,4.0,0.0
1956,52.0,15,30,4.0,0.0
1957,41.0,15,40,3.0,0.0
1958,70.0,0,60,4.0,0.0
1959,76.0,0,240,0.0,0.0
1960,67.0,0,240,2.0,0.0
1961,53.0,30,30,4.0,0.0
1962,41.0,15,40,3.0,0.0
1963,79.0,30,120,4.0,0.0
1964,52.0,15,30,4.0,0.0
1965,50.0,30,30,4.0,0.0
1966,48.0,15,30,4.0,0.0
1967,41.0,15,40,3.0,0.0
1968,46.0,0,30,4.0,0.0
1969,41.0,15,40,3.0,0.0
1970,45.0,15,30,4.0,0.0
1971,70.0,0,60,4.0,0.0
1972,43.0,0,30,4.0,0.0
1973,77.0,15,40,0.0,0.0
1974,69.0,15,30,4.0,0.0
1975,41.0,0,120,4.0,0.0
1976,48.0,0,120,4.0,0.0
1977,53.0,0,120,4.0,0.0
1978,69.0,0,120,2.0,0.0
1979,72.0,30,120,1.0,0.0
1980,41.0,0,120,3.0,0.0
1981,70.0,45,30,4.0,0.0
1982,65.0,15,40,0.0,0.0
1983,72.0,0,60,4.0,0.0
1984,69.0,15,40,0.0,0.0
1985,72.0,15,30,4.0,0.0
1986,74.0,45,30,4.0,0.0
1987,75.0,45,60,4.0,0.0
1988,72.0,15,40,0.0,0.0
1989,66.0,30,60,4.0,0.0
1990,62.0,15,40,0.0,0.0
1991,66.0,0,40,1.0,0.0
1992,50.0,0,60,4.0,0.0
1993,60.0,30,60,4.0,0.0
1994,60.0,15,40,2.0,0.0
1995,81.0,15,30,0.0,0.0
1996,50.0,0,40,3.0,0.0
1997,81.0,0,30,4.0,0.0
1998,79.0,0,30,0.0,0.0
1999,79.0,0,30,4.0,0.0
2000,78.0,15,30,0.0,0.0
2001,52.0,0,40,3.0,0.0
2002,52.0,30,60,4.0,0.0
2003,58.0,15,40,2.0,0.0
2004,78.0,0,30,4.0,0.0
2005,58.0,0,60,4.0,0.0
2006,67.0,0,40,1.0,0.0
2007,76.0,0,30,4.0,0.0
2008,76.0,0,30,0.0,0.0
2009,57.0,0,60,4.0,0.0
2010,54.0,0,40,3.0,0.0
2011,74.0,0,30,0.0,0.0
2012,74.0,15,30,4.0,0.0
2013,54.0,0,60,4.0,0.0
2014,69.0,0,40,1.0,0.0
2015,57.0,15,40,2.0,0.0
2016,72.0,30,30,0.0,0.0
2017,72.0,0,30,4.0,0.0
2018,43.0,0,120,4.0,0.0
2019,55.0,0,120,4.0,0.0
2020,50.0,0,120,4.0,0.0
2021,70.0,15,30,4.0,0.0
2022,70.0,15,40,0.0,0.0
2023,55.0,30,120,3.0,0.0
2024,55.0,0,120,2.0,0.0
2025,62.0,0,120,1.0,0.0
2026,72.0,45,30,4.0,0.0
2027,74.0,0,60,4.0,0.0
2028,67.0,15,40,0.0,0.0
2029,70.0,15,40,0.0,0.0
2030,74.0,15,30,4.0,0.0
2031,76.0,45,30,4.0,0.0
2032,77.0,45,60,4.0,0.0
2033,74.0,15,40,0.0,0.0
2034,64.0,15,40,0.0,0.0
2035,68.0,30,60,4.0,0.0
2036,62.0,0,40,2.0,0.0
2037,68.0,0,40,1.0,0.0
2038,83.0,15,30,4.0,0.0
2039,52.0,15,40,3.0,0.0
2040,62.0,0,60,4.0,0.0
2041,83.0,0,30,0.0,0.0
2042,52.0,0,60,4.0,0.0
2043,81.0,30,30,0.0,0.0
2044,81.0,0,30,4.0,0.0
2045,60.0,0,60,4.0,0.0
2046,54.0,0,60,4.0,0.0
2047,80.0,15,30,4.0,0.0
2048,69.0,0,40,1.0,0.0
2049,80.0,0,30,0.0,0.0
2050,54.0,0,40,3.0,0.0
2051,60.0,15,40,2.0,0.0
2052,78.0,30,30,0.0,0.0
2053,78.0,0,30,4.0,0.0
2054,71.0,0,40,1.0,0.0
2055,59.0,0,60,4.0,0.0
2056,56.0,0,40,3.0,0.0
2057,76.0,0,30,0.0,0.0
2058,59.0,15,40,2.0,0.0
2059,76.0,15,30,4.0,0.0
2060,56.0,30,60,4.0,0.0
2061,74.0,0,30,0.0,0.0
2062,74.0,0,30,4.0,0.0
2063,57.0,0,120,2.0,0.0
2064,52.0,0,120,4.0,0.0
2065,45.0,30,120,4.0,0.0
2066,73.0,15,40,0.0,0.0
2067,64.0,0,120,1.0,0.0
2068,57.0,0,120,3.0,0.0
2069,57.0,0,120,4.0,0.0
2070,73.0,15,30,4.0,0.0
2071,74.0,30,30,4.0,0.0
2072,73.0,15,40,0.0,0.0
2073,76.0,15,30,4.0,0.0
2074,77.0,0,30,4.0,0.0
2075,76.0,15,40,0.0,0.0
2076,79.0,15,30,4.0,0.0
2077,81.0,30,30,4.0,0.0
2078,83.0,15,30,4.0,0.0
2079,79.0,15,40,0.0,0.0
2080,79.0,45,30,4.0,0.0
2081,73.0,30,60,4.0,0.0
2082,69.0,15,40,0.0,0.0
2083,45.0,0,40,3.0,0.0
2084,73.0,15,40,1.0,0.0
2085,67.0,0,60,4.0,0.0
2086,57.0,0,60,4.0,0.0
2087,76.0,0,30,4.0,0.0
2088,67.0,0,40,2.0,0.0
2089,76.0,15,30,0.0,0.0
2090,74.0,30,30,4.0,0.0
2091,74.0,0,30,0.0,0.0
2092,73.0,0,30,0.0,0.0
2093,47.0,0,40,3.0,0.0
2094,65.0,0,60,4.0,0.0
2095,73.0,15,30,4.0,0.0
2096,65.0,0,40,2.0,0.0
2097,59.0,0,60,4.0,0.0
2098,74.0,15,40,1.0,0.0
2099,71.0,30,30,0.0,0.0
2100,71.0,0,30,4.0,0.0
2101,64.0,0,60,4.0,0.0
2102,69.0,0,30,4.0,0.0
2103,49.0,0,40,3.0,0.0
2104,64.0,0,40,2.0,0.0
2105,61.0,0,60,4.0,0.0
2106,76.0,15,40,1.0,0.0
2107,69.0,15,30,0.0,0.0
2108,67.0,0,30,0.0,0.0
2109,67.0,30,30,4.0,0.0
2110,50.0,15,40,3.0,0.0
2111,65.0,0,30,4.0,0.0
2112,65.0,15,30,0.0,0.0
2113,62.0,0,60,4.0,0.0
2114,62.0,0,40,2.0,0.0
2115,69.0,15,90,1.0,0.0
2116,67.0,0,30,4.0,0.0
2117,67.0,30,30,0.0,0.0
2118,64.0,0,40,2.0,0.0
2119,49.0,15,40,3.0,0.0
2120,69.0,0,30,4.0,0.0
2121,69.0,0,30,0.0,0.0
2122,49.0,0,60,4.0,0.0
2123,67.0,0,30,4.0,0.0
2124,67.0,30,30,0.0,0.0
2125,70.0,0,30,1.0,0.0
2126,65.0,15,40,2.0,0.0
2127,65.0,15,30,0.0,0.0
2128,69.0,0,30,1.0,0.0
2129,50.0,0,40,3.0,0.0
2130,65.0,0,30,4.0,0.0
2131,50.0,0,60,4.0,0.0
2132,67.0,0,30,1.0,0.0
2133,64.0,0,30,4.0,0.0
2134,64.0,30,30,0.0,0.0
2135,62.0,0,30,4.0,0.0
2136,52.0,0,60,4.0,0.0
2137,65.0,15,30,1.0,0.0
2138,67.0,15,40,2.0,0.0
2139,52.0,0,40,3.0,0.0
2140,62.0,0,30,0.0,0.0
2141,61.0,0,30,0.0,0.0
2142,61.0,0,30,4.0,0.0
2143,64.0,30,30,1.0,0.0
2144,62.0,30,120,0.0,0.0
2145,53.0,30,60,4.0,0.0
2146,62.0,15,30,4.0,0.0
2147,69.0,15,40,2.0,0.0
2148,62.0,0,120,1.0,0.0
2149,53.0,0,40,3.0,0.0
2150,65.0,0,30,4.0,0.0
2151,52.0,0,40,3.0,0.0
2152,52.0,0,60,4.0,0.0
2153,69.0,15,30,4.0,0.0
2154,67.0,15,40,2.0,0.0
2155,73.0,0,30,4.0,0.0
2156,69.0,0,40,2.0,0.0
2157,53.0,30,60,4.0,0.0
2158,74.0,15,30,4.0,0.0
2159,53.0,15,40,3.0,0.0
2160,69.0,0,30,4.0,0.0
2161,52.0,45,60,4.0,0.0
2162,71.0,0,40,2.0,0.0
2163,74.0,15,120,0.0,0.0
2164,65.0,15,30,4.0,0.0
2165,50.0,15,40,3.0,0.0
2166,62.0,0,30,4.0,0.0
2167,52.0,0,120,3.0,0.0
2168,59.0,15,120,2.0,0.0
2169,56.0,0,120,4.0,0.0
2170,52.0,0,120,4.0,0.0
2171,65.0,30,30,4.0,0.0
2172,71.0,0,30,4.0,0.0
2173,65.0,15,30,0.0,0.0
2174,74.0,0,120,1.0,0.0
2175,62.0,0,30,0.0,0.0
2176,69.0,30,30,4.0,0.0
2177,56.0,15,40,0.0,0.0
2178,64.0,15,120,2.0,0.0
2179,71.0,15,30,4.0,0.0
2180,65.0,30,30,4.0,0.0
2181,71.0,0,30,1.0,0.0
2182,74.0,15,120,0.0,0.0
2183,64.0,15,30,4.0,0.0
2184,68.0,0,30,1.0,0.0
2185,62.0,45,30,4.0,0.0
2186,52.0,0,120,4.0,0.0
2187,56.0,0,120,4.0,0.0
2188,52.0,30,120,3.0,0.0
2189,59.0,0,40,1.0,0.0
2190,65.0,30,30,4.0,0.0
2191,65.0,0,30,0.0,0.0
2192,71.0,30,30,4.0,0.0
2193,74.0,15,120,1.0,0.0
2194,62.0,0,30,0.0,0.0
2195,69.0,0,30,4.0,0.0
2196,56.0,0,40,0.0,0.0
2197,64.0,0,120,2.0,0.0
2198,71.0,15,30,4.0,0.0
2199,65.0,30,30,4.0,0.0
2200,68.0,15,40,0.0,0.0
2201,71.0,0,30,1.0,0.0
2202,64.0,15,30,4.0,0.0
2203,68.0,0,30,1.0,0.0
2204,62.0,30,30,4.0,0.0
2205,64.0,15,40,1.0,0.0
2206,45.0,0,120,4.0,0.0
2207,52.0,0,120,4.0,0.0
2208,57.0,30,120,4.0,0.0
2209,60.0,15,30,4.0,0.0
2210,45.0,0,120,3.0,0.0
2211,69.0,0,40,0.0,0.0
2212,65.0,30,30,4.0,0.0
2213,69.0,15,30,4.0,0.0
2214,64.0,15,40,0.0,0.0
2215,60.0,0,40,1.0,0.0
2216,68.0,0,30,4.0,0.0
2217,60.0,15,40,0.0,0.0
2218,57.0,0,40,1.0,0.0
2219,57.0,30,120,2.0,0.0
2220,69.0,15,30,4.0,0.0
2221,65.0,30,30,4.0,0.0
2222,64.0,15,30,4.0,0.0
2223,60.0,15,40,1.0,0.0
2224,64.0,0,40,0.0,0.0
2225,62.0,0,30,4.0,0.0
2226,64.0,0,40,1.0,0.0
2227,69.0,15,40,0.0,0.0
2228,60.0,15,30,4.0,0.0
2229,57.0,0,120,4.0,0.0
2230,52.0,0,120,4.0,0.0
2231,45.0,0,120,4.0,0.0
2232,45.0,0,120,3.0,0.0
2233,64.0,30,30,4.0,0.0
2234,60.0,15,40,1.0,0.0
2235,64.0,0,40,0.0,0.0
2236,69.0,15,30,4.0,0.0
2237,68.0,30,30,4.0,0.0
2238,60.0,0,40,0.0,0.0
2239,57.0,45,120,2.0,0.0
2240,69.0,15,30,4.0,0.0
2241,57.0,15,40,1.0,0.0
2242,65.0,30,30,4.0,0.0
2243,61.0,15,40,1.0,0.0
2244,79.0,0,120,0.0,0.0
2245,64.0,15,30,4.0,0.0
2246,62.0,0,30,4.0,0.0
2247,61.0,0,120,4.0,0.0
2248,57.0,30,120,4.0,0.0
2249,57.0,0,120,3.0,0.0
2250,64.0,15,40,1.0,0.0
2251,70.0,30,30,4.0,0.0
2252,76.0,0,30,4.0,0.0
2253,79.0,0,120,1.0,0.0
2254,70.0,30,30,0.0,0.0
2255,67.0,0,30,0.0,0.0
2256,74.0,0,30,4.0,0.0
2257,76.0,15,30,4.0,0.0
2258,69.0,0,120,2.0,0.0
2259,61.0,15,40,0.0,0.0
2260,70.0,30,30,4.0,0.0
2261,69.0,0,30,4.0,0.0
2262,79.0,0,120,0.0,0.0
2263,76.0,30,30,1.0,0.0
2264,67.0,0,30,4.0,0.0
2265,73.0,45,30,1.0,0.0
2266,57.0,0,120,4.0,0.0
2267,64.0,15,40,1.0,0.0
2268,61.0,0,120,4.0,0.0
2269,57.0,30,120,3.0,0.0
2270,70.0,30,30,4.0,0.0
2271,79.0,15,120,1.0,0.0
2272,70.0,30,30,0.0,0.0
2273,76.0,0,30,4.0,0.0
2274,74.0,0,30,4.0,0.0
2275,67.0,0,30,0.0,0.0
2276,76.0,15,30,4.0,0.0
2277,61.0,0,40,0.0,0.0
2278,69.0,30,120,2.0,0.0
2279,70.0,30,30,4.0,0.0
2280,73.0,15,40,0.0,0.0
2281,76.0,0,30,1.0,0.0
2282,69.0,15,30,4.0,0.0
2283,73.0,0,30,1.0,0.0
2284,67.0,0,30,4.0,0.0
2285,50.0,0,120,4.0,0.0
2286,62.0,0,120,4.0,0.0
2287,69.0,0,40,1.0,0.0
2288,57.0,0,120,4.0,0.0
2289,74.0,15,40,0.0,0.0
2290,50.0,0,120,3.0,0.0
2291,65.0,15,30,4.0,0.0
2292,69.0,30,30,4.0,0.0
2293,65.0,0,40,1.0,0.0
2294,74.0,15,30,4.0,0.0
2295,69.0,15,40,0.0,0.0
2296,73.0,30,30,4.0,0.0
2297,62.0,30,120,2.0,0.0
2298,62.0,15,40,1.0,0.0
2299,65.0,0,40,0.0,0.0
2300,74.0,15,30,4.0,0.0
2301,70.0,30,30,4.0,0.0
2302,69.0,15,30,4.0,0.0
2303,69.0,15,40,0.0,0.0
2304,65.0,0,40,1.0,0.0
2305,67.0,0,30,4.0,0.0
2306,62.0,0,120,4.0,0.0
2307,57.0,0,120,4.0,0.0
2308,50.0,0,120,4.0,0.0
2309,65.0,15,30,4.0,0.0
2310,69.0,0,40,1.0,0.0
2311,74.0,15,40,0.0,0.0
2312,50.0,30,120,3.0,0.0
2313,69.0,30,30,4.0,0.0
2314,74.0,15,30,4.0,0.0
2315,65.0,15,40,1.0,0.0
2316,69.0,0,40,0.0,0.0
2317,73.0,0,30,4.0,0.0
2318,74.0,15,30,4.0,0.0
2319,62.0,0,120,2.0,0.0
2320,62.0,15,40,1.0,0.0
2321,65.0,0,40,0.0,0.0
2322,67.0,30,30,4.0,0.0
2323,81.0,0,120,0.0,0.0
2324,65.0,15,40,1.0,0.0
2325,65.0,15,30,4.0,0.0
2326,64.0,45,30,4.0,0.0
2327,71.0,15,40,1.0,0.0
2328,59.0,0,120,3.0,0.0
2329,59.0,0,120,4.0,0.0
2330,63.0,30,120,4.0,0.0
2331,72.0,30,30,4.0,0.0
2332,72.0,0,30,0.0,0.0
2333,81.0,0,120,1.0,0.0
2334,78.0,30,30,4.0,0.0
2335,69.0,0,30,0.0,0.0
2336,76.0,0,30,4.0,0.0
2337,71.0,0,120,2.0,0.0
2338,78.0,15,30,4.0,0.0
2339,63.0,15,40,0.0,0.0
2340,72.0,30,30,4.0,0.0
2341,78.0,0,30,1.0,0.0
2342,71.0,30,30,4.0,0.0
2343,81.0,0,120,0.0,0.0
2344,69.0,0,30,4.0,0.0
2345,75.0,45,30,1.0,0.0
2346,59.0,0,120,3.0,0.0
2347,63.0,0,120,4.0,0.0
2348,59.0,30,120,4.0,0.0
2349,66.0,15,40,1.0,0.0
2350,72.0,30,30,4.0,0.0
2351,81.0,15,120,1.0,0.0
2352,72.0,0,30,0.0,0.0
2353,78.0,30,30,4.0,0.0
2354,69.0,0,30,0.0,0.0
2355,76.0,0,30,4.0,0.0
2356,78.0,15,30,4.0,0.0
2357,71.0,0,120,2.0,0.0
2358,63.0,0,40,0.0,0.0
2359,72.0,30,30,4.0,0.0
2360,71.0,30,30,4.0,0.0
2361,78.0,0,30,1.0,0.0
2362,71.0,15,120,0.0,0.0
2363,75.0,45,30,1.0,0.0
2364,69.0,0,30,4.0,0.0
2365,68.0,0,120,4.0,0.0
2366,64.0,0,120,4.0,0.0
2367,52.0,0,120,3.0,0.0
2368,76.0,0,40,1.0,0.0
2369,77.0,30,30,4.0,0.0
2370,71.0,0,120,1.0,0.0
2371,65.0,30,30,0.0,0.0
2372,83.0,0,30,4.0,0.0
2373,81.0,0,30,4.0,0.0
2374,62.0,30,30,0.0,0.0
2375,83.0,15,30,4.0,0.0
2376,56.0,15,40,0.0,0.0
2377,64.0,45,120,2.0,0.0
2378,77.0,30,30,4.0,0.0
2379,71.0,15,120,0.0,0.0
2380,71.0,0,30,1.0,0.0
2381,76.0,30,30,4.0,0.0
2382,68.0,0,30,1.0,0.0
2383,74.0,0,30,4.0,0.0
2384,68.0,0,120,4.0,0.0
2385,64.0,0,40,1.0,0.0
2386,64.0,0,120,4.0,0.0
2387,52.0,30,120,3.0,0.0
2388,77.0,30,30,4.0,0.0
2389,65.0,30,30,0.0,0.0
2390,74.0,0,120,1.0,0.0
2391,83.0,0,30,4.0,0.0
2392,81.0,0,30,4.0,0.0
2393,62.0,0,30,0.0,0.0
2394,83.0,15,30,4.0,0.0
2395,56.0,15,40,0.0,0.0
2396,64.0,0,120,2.0,0.0
2397,77.0,30,30,4.0,0.0
2398,76.0,0,30,4.0,0.0
2399,71.0,15,30,1.0,0.0
2400,76.0,15,40,0.0,0.0
2401,74.0,30,30,4.0,0.0
2402,67.0,0,30,1.0,0.0
2403,69.0,0,40,1.0,0.0
2404,57.0,0,120,3.0,0.0
2405,69.0,0,120,4.0,0.0
2406,76.0,15,40,0.0,0.0
2407,72.0,15,30,4.0,0.0
2408,57.0,30,120,4.0,0.0
2409,76.0,30,30,4.0,0.0
2410,81.0,15,30,4.0,0.0
2411,72.0,0,40,0.0,0.0
2412,64.0,15,40,1.0,0.0
2413,80.0,0,30,4.0,0.0
2414,81.0,15,30,4.0,0.0
2415,60.0,0,40,1.0,0.0
2416,69.0,30,120,2.0,0.0
2417,69.0,15,40,0.0,0.0
2418,74.0,30,30,4.0,0.0
2419,72.0,15,30,4.0,0.0
2420,72.0,0,40,0.0,0.0
2421,64.0,15,40,1.0,0.0
2422,71.0,0,30,4.0,0.0
2423,52.0,0,120,3.0,0.0
2424,55.0,30,120,4.0,0.0
2425,69.0,0,40,1.0,0.0
2426,76.0,15,40,0.0,0.0
2427,64.0,0,120,4.0,0.0
2428,69.0,15,30,4.0,0.0
2429,72.0,30,30,4.0,0.0
2430,64.0,0,40,1.0,0.0
2431,72.0,15,40,0.0,0.0
2432,81.0,15,30,4.0,0.0
2433,80.0,0,30,4.0,0.0
2434,69.0,0,40,0.0,0.0
2435,81.0,15,30,4.0,0.0
2436,69.0,0,120,2.0,0.0
2437,60.0,15,40,1.0,0.0
2438,70.0,30,30,4.0,0.0
2439,72.0,15,40,0.0,0.0
2440,64.0,0,40,1.0,0.0
2441,69.0,15,30,4.0,0.0
2442,67.0,45,30,4.0,0.0
2443,77.0,0,40,0.0,0.0
2444,69.0,15,40,1.0,0.0
2445,53.0,30,120,3.0,0.0
2446,65.0,0,120,4.0,0.0
2447,50.0,0,120,4.0,0.0
2448,72.0,30,30,4.0,0.0
2449,72.0,0,40,0.0,0.0
2450,81.0,15,30,4.0,0.0
2451,65.0,15,40,1.0,0.0
2452,80.0,0,30,4.0,0.0
2453,65.0,0,120,2.0,0.0
2454,69.0,15,40,0.0,0.0
2455,60.0,0,40,1.0,0.0
2456,81.0,15,30,4.0,0.0
2457,65.0,30,30,4.0,0.0
2458,69.0,0,40,1.0,0.0
2459,64.0,15,30,4.0,0.0
2460,72.0,15,40,0.0,0.0
2461,62.0,45,30,4.0,0.0
2462,76.0,15,40,0.0,0.0
2463,69.0,0,40,1.0,0.0
2464,52.0,30,120,3.0,0.0
2465,60.0,0,120,4.0,0.0
2466,52.0,0,120,4.0,0.0
2467,76.0,30,30,4.0,0.0
2468,81.0,15,30,4.0,0.0
2469,72.0,0,40,0.0,0.0
2470,64.0,15,40,1.0,0.0
2471,80.0,0,30,4.0,0.0
2472,60.0,0,40,1.0,0.0
2473,65.0,0,120,2.0,0.0
2474,81.0,15,30,4.0,0.0
2475,69.0,15,40,0.0,0.0
2476,76.0,30,30,4.0,0.0
2477,74.0,15,30,4.0,0.0
2478,64.0,0,40,1.0,0.0
2479,72.0,15,40,0.0,0.0
2480,72.0,30,30,4.0,0.0
2481,69.0,0,60,1.0,0.0
2482,50.0,0,120,3.0,0.0
2483,77.0,30,60,0.0,0.0
2484,62.0,30,120,4.0,0.0
2485,50.0,0,120,4.0,0.0
2486,77.0,30,30,4.0,0.0
2487,74.0,0,30,4.0,0.0
2488,67.0,15,40,1.0,0.0
2489,76.0,0,40,0.0,0.0
2490,72.0,15,30,4.0,0.0
2491,71.0,0,30,4.0,0.0
2492,62.0,0,120,2.0,0.0
2493,74.0,30,30,4.0,0.0
2494,74.0,0,60,0.0,0.0
2495,65.0,0,60,1.0,0.0
2496,71.0,30,30,4.0,0.0
2497,64.0,0,40,1.0,0.0
2498,69.0,15,30,4.0,0.0
2499,72.0,15,40,0.0,0.0
2500,68.0,30,30,4.0,0.0
2501,52.0,0,120,4.0,0.0
2502,44.0,0,120,4.0,0.0
2503,71.0,30,30,4.0,0.0
2504,71.0,0,60,0.0,0.0
2505,62.0,30,60,1.0,0.0
2506,44.0,0,120,3.0,0.0
2507,68.0,0,30,4.0,0.0
2508,66.0,15,30,4.0,0.0
2509,60.0,15,40,1.0,0.0
2510,69.0,0,40,0.0,0.0
2511,64.0,30,30,4.0,0.0
2512,65.0,30,30,4.0,0.0
2513,56.0,30,120,2.0,0.0
2514,68.0,30,60,0.0,0.0
2515,59.0,0,60,1.0,0.0
2516,62.0,0,30,4.0,0.0
2517,66.0,15,40,0.0,0.0
2518,62.0,0,40,1.0,0.0
2519,60.0,15,30,4.0,0.0
2520,59.0,0,30,4.0,0.0
2521,57.0,0,60,2.0,0.0
2522,64.0,0,60,0.0,0.0
2523,60.0,30,30,4.0,0.0
2524,45.0,0,120,4.0,0.0
2525,52.0,30,120,4.0,0.0
2526,60.0,0,60,1.0,0.0
2527,45.0,0,120,3.0,0.0
2528,64.0,30,30,4.0,0.0
2529,69.0,30,30,4.0,0.0
2530,68.0,0,30,4.0,0.0
2531,69.0,30,30,4.0,0.0
2532,64.0,30,30,4.0,0.0
2533,45.0,30,30,3.0,0.0
2534,45.0,0,30,4.0,0.0
2535,72.0,0,30,4.0,0.0
2536,47.0,0,30,3.0,0.0
2537,47.0,45,30,4.0,0.0
2538,69.0,0,30,4.0,0.0
2539,48.0,15,40,3.0,0.0
2540,48.0,0,60,4.0,0.0
2541,76.0,10,60,4.0,0.0
2542,69.0,0,60,4.0,0.0
2543,50.0,15,40,3.0,0.0
2544,52.0,10,15,4.0,0.0
2545,50.0,10,15,4.0,0.0
2546,48.0,15,15,4.0,0.0
2547,50.0,45,30,4.0,0.0
2548,52.0,15,40,3.0,0.0
2549,52.0,0,60,4.0,0.0
2550,64.0,45,60,4.0,0.0
2551,40.0,30,60,4.0,0.0
2552,68.0,0,60,4.0,0.0
2553,40.0,15,40,3.0,0.0
2554,69.0,15,30,0.0,0.0
2555,57.0,0,120,4.0,0.0
2556,52.0,0,120,4.0,0.0
2557,48.0,0,120,4.0,0.0
2558,45.0,45,120,4.0,0.0
2559,69.0,0,30,4.0,0.0
2560,45.0,15,40,3.0,0.0
2561,71.0,0,30,0.0,0.0
2562,71.0,30,30,4.0,0.0
2563,72.0,0,60,4.0,0.0
2564,45.0,15,40,3.0,0.0
2565,72.0,15,30,0.0,0.0
2566,71.0,0,40,0.0,0.0
2567,71.0,45,60,4.0,0.0
2568,45.0,15,40,3.0,0.0
2569,69.0,0,40,0.0,0.0
2570,45.0,15,40,3.0,0.0
2571,69.0,30,60,4.0,0.0
2572,57.0,0,30,2.0,0.0
2573,76.0,0,40,0.0,0.0
2574,72.0,15,30,1.0,0.0
2575,45.0,15,40,3.0,0.0
2576,76.0,0,60,4.0,0.0
2577,57.0,0,30,4.0,0.0
2578,59.0,0,30,2.0,0.0
2579,59.0,0,30,4.0,0.0
2580,74.0,30,30,1.0,0.0
2581,81.0,5,120,4.0,0.0
2582,81.0,5,120,0.0,0.0
2583,45.0,15,40,3.0,0.0
2584,60.0,15,30,2.0,0.0
2585,60.0,40,60,4.0,0.0
2586,76.0,0,30,1.0,0.0
2587,59.0,45,60,4.0,0.0
2588,74.0,0,40,1.0,0.0
2589,45.0,0,40,3.0,0.0
2590,59.0,10,40,2.0,0.0
2591,57.0,0,40,2.0,0.0
2592,45.0,15,40,3.0,0.0
2593,72.0,15,120,1.0,0.0
2594,76.0,0,40,0.0,0.0
2595,57.0,45,60,4.0,0.0
2596,76.0,0,60,4.0,0.0
2597,62.0,30,60,4.0,0.0
2598,62.0,0,60,2.0,0.0
2599,45.0,0,40,3.0,0.0
2600,77.0,0,40,0.0,0.0
2601,77.0,0,60,4.0,0.0
2602,45.0,15,40,3.0,0.0
2603,71.0,0,30,4.0,0.0
2604,74.0,0,30,4.0,0.0
2605,74.0,15,30,0.0,0.0
2606,71.0,0,120,1.0,0.0
2607,68.0,45,30,4.0,0.0
2608,71.0,0,30,0.0,0.0
2609,71.0,0,30,4.0,0.0
2610,76.0,0,40,0.0,0.0
2611,60.0,0,60,4.0,0.0
2612,76.0,0,60,4.0,0.0
2613,60.0,30,60,2.0,0.0
2614,45.0,15,40,3.0,0.0
2615,69.0,15,30,4.0,0.0
2616,69.0,0,120,1.0,0.0
2617,72.0,0,30,4.0,0.0
2618,45.0,15,40,3.0,0.0
2619,72.0,0,30,0.0,0.0
2620,69.0,0,30,0.0,0.0
2621,65.0,30,30,4.0,0.0
2622,69.0,0,30,4.0,0.0
2623,59.0,30,60,2.0,0.0
2624,74.0,0,60,4.0,0.0
2625,59.0,15,30,4.0,0.0
2626,45.0,15,40,3.0,0.0
2627,74.0,0,40,0.0,0.0
2628,60.0,0,30,4.0,0.0
2629,71.0,0,30,0.0,0.0
2630,45.0,15,40,3.0,0.0
2631,71.0,15,30,4.0,0.0
2632,74.0,0,120,1.0,0.0
2633,62.0,0,30,4.0,0.0
2634,68.0,30,30,0.0,0.0
2635,68.0,0,30,4.0,0.0
2636,59.0,0,30,4.0,0.0
2637,45.0,0,40,3.0,0.0
2638,64.0,30,60,4.0,0.0
2639,57.0,15,30,4.0,0.0
2640,57.0,0,60,2.0,0.0
2641,64.0,15,40,0.0,0.0
2642,59.0,0,30,4.0,0.0
2643,71.0,0,30,1.0,0.0
2644,62.0,15,30,4.0,0.0
2645,45.0,15,40,3.0,0.0
2646,77.0,30,120,4.0,0.0
2647,77.0,15,120,0.0,0.0
2648,68.0,0,30,1.0,0.0
2649,59.0,30,30,4.0,0.0
2650,45.0,0,40,3.0,0.0
2651,56.0,0,60,2.0,0.0
2652,56.0,15,30,4.0,0.0
2653,62.0,0,40,1.0,0.0
2654,57.0,0,30,4.0,0.0
2655,45.0,15,40,3.0,0.0
2656,74.0,15,30,0.0,0.0
2657,74.0,0,30,4.0,0.0
2658,59.0,0,30,4.0,0.0
2659,77.0,15,120,1.0,0.0
2660,71.0,0,30,4.0,0.0
2661,56.0,30,30,4.0,0.0
2662,71.0,0,30,0.0,0.0
2663,57.0,0,60,2.0,0.0
2664,64.0,0,40,0.0,0.0
2665,64.0,0,60,4.0,0.0
2666,57.0,15,30,4.0,0.0
2667,45.0,0,40,3.0,0.0
2668,60.0,30,30,4.0,0.0
2669,45.0,15,40,3.0,0.0
2670,59.0,15,30,4.0,0.0
2671,80.0,0,120,0.0,0.0
2672,74.0,0,30,1.0,0.0
2673,80.0,30,120,4.0,0.0
2674,57.0,30,30,4.0,0.0
2675,71.0,0,30,1.0,0.0
2676,62.0,15,40,1.0,0.0
2677,45.0,0,40,3.0,0.0
2678,59.0,0,60,2.0,0.0
2679,59.0,15,30,4.0,0.0
2680,60.0,0,30,4.0,0.0
2681,62.0,0,30,4.0,0.0
2682,77.0,15,30,4.0,0.0
2683,80.0,0,120,1.0,0.0
2684,45.0,15,40,3.0,0.0
2685,77.0,0,30,0.0,0.0
2686,74.0,0,30,0.0,0.0
2687,59.0,30,30,4.0,0.0
2688,74.0,0,30,4.0,0.0
2689,64.0,15,40,0.0,0.0
2690,60.0,0,60,2.0,0.0
2691,45.0,0,40,3.0,0.0
2692,60.0,15,30,4.0,0.0
2693,64.0,0,30,4.0,0.0
2694,77.0,0,30,1.0,0.0
2695,83.0,30,120,4.0,0.0
2696,45.0,15,40,3.0,0.0
2697,83.0,0,120,0.0,0.0
2698,62.0,15,30,4.0,0.0
2699,60.0,0,30,4.0,0.0
2700,74.0,30,30,1.0,0.0
2701,62.0,15,30,4.0,0.0
2702,62.0,15,40,1.0,0.0
2703,45.0,30,120,3.0,0.0
2704,62.0,0,40,2.0,0.0
2705,50.0,0,30,4.0,0.0
2706,62.0,15,40,2.0,0.0
2707,80.0,15,30,4.0,0.0
2708,80.0,0,30,0.0,0.0
2709,62.0,0,30,4.0,0.0
2710,83.0,0,120,1.0,0.0
2711,60.0,0,30,4.0,0.0
2712,76.0,0,30,4.0,0.0
2713,76.0,0,30,0.0,0.0
2714,62.0,15,40,2.0,0.0
2715,62.0,0,60,4.0,0.0
2716,77.0,0,30,4.0,0.0
2717,77.0,15,30,0.0,0.0
2718,74.0,30,30,4.0,0.0
2719,74.0,0,30,0.0,0.0
2720,80.0,0,30,1.0,0.0
2721,76.0,0,30,0.0,0.0
2722,62.0,15,40,2.0,0.0
2723,76.0,15,30,4.0,0.0
2724,72.0,0,30,4.0,0.0
2725,76.0,30,30,1.0,0.0
2726,72.0,0,30,0.0,0.0
2727,77.0,0,30,1.0,0.0
2728,74.0,0,30,0.0,0.0
2729,62.0,15,40,2.0,0.0
2730,74.0,15,30,4.0,0.0
2731,74.0,30,30,1.0,0.0
2732,71.0,0,30,0.0,0.0
2733,50.0,0,30,4.0,0.0
2734,71.0,0,30,4.0,0.0
2735,62.0,0,30,4.0,0.0
2736,76.0,0,30,1.0,0.0
2737,72.0,15,30,0.0,0.0
2738,72.0,0,30,4.0,0.0
2739,62.0,15,40,2.0,0.0
2740,72.0,30,30,1.0,0.0
2741,69.0,0,30,4.0,0.0
2742,69.0,0,30,0.0,0.0
2743,60.0,0,30,4.0,0.0
2744,74.0,0,30,1.0,0.0
2745,62.0,15,40,2.0,0.0
2746,62.0,0,60,4.0,0.0
2747,71.0,15,30,4.0,0.0
2748,71.0,0,30,0.0,0.0
2749,71.0,30,30,1.0,0.0
2750,68.0,0,30,0.0,0.0
2751,68.0,0,30,4.0,0.0
2752,69.0,0,30,0.0,0.0
2753,72.0,15,30,1.0,0.0
2754,69.0,0,30,4.0,0.0
2755,62.0,15,40,2.0,0.0
2756,66.0,30,30,0.0,0.0
2757,69.0,0,30,1.0,0.0
2758,66.0,0,30,4.0,0.0
2759,52.0,0,30,4.0,0.0
2760,59.0,30,60,4.0,0.0
2761,68.0,30,30,4.0,0.0
2762,62.0,30,120,2.0,0.0
2763,68.0,0,30,0.0,0.0
2764,50.0,30,90,4.0,0.0
2765,76.0,0,540,1.0,0.0
2766,64.0,0,30,0.0,0.0
2767,64.0,0,30,4.0,0.0
2768,66.0,0,30,4.0,0.0
2769,66.0,0,30,0.0,0.0
2770,68.0,0,30,0.0,0.0
2771,52.0,0,30,4.0,0.0
2772,67.0,0,30,4.0,0.0
2773,69.0,0,30,0.0,0.0
2774,69.0,30,30,4.0,0.0
2775,54.0,0,30,4.0,0.0
2776,71.0,30,30,0.0,0.0
2777,56.0,0,30,4.0,0.0
2778,71.0,0,30,4.0,0.0
2779,57.0,0,30,4.0,0.0
2780,72.0,30,30,0.0,0.0
2781,72.0,0,30,4.0,0.0
2782,59.0,0,30,4.0,0.0
2783,74.0,30,30,4.0,0.0
2784,74.0,0,30,0.0,0.0
2785,76.0,0,30,0.0,0.0
2786,76.0,30,30,4.0,0.0
2787,61.0,0,30,4.0,0.0
2788,49.0,0,30,3.0,0.0
2789,50.0,0,30,3.0,0.0
2790,77.0,0,30,0.0,0.0
2791,77.0,45,30,4.0,0.0
2792,62.0,0,30,4.0,0.0
2793,52.0,15,40,3.0,0.0
2794,64.0,0,60,4.0,0.0
2795,64.0,30,30,4.0,0.0
2796,79.0,0,15,4.0,0.0
2797,52.0,0,30,3.0,0.0
2798,79.0,30,15,0.0,0.0
2799,81.0,0,30,0.0,0.0
2800,53.0,0,30,3.0,0.0
2801,65.0,45,30,4.0,0.0
2802,81.0,0,30,4.0,0.0
2803,82.0,0,60,0.0,0.0
2804,67.0,45,60,4.0,0.0
2805,55.0,15,40,3.0,0.0
2806,82.0,0,60,4.0,0.0
2807,73.0,0,40,0.0,0.0
2808,55.0,0,40,3.0,0.0
2809,64.0,0,60,4.0,0.0
2810,58.0,0,60,4.0,0.0
2811,55.0,0,60,4.0,0.0
2812,58.0,15,40,2.0,0.0
2813,73.0,45,60,4.0,0.0
2814,57.0,0,60,4.0,0.0
2815,53.0,0,60,4.0,0.0
2816,65.0,45,60,4.0,0.0
2817,77.0,0,40,1.0,0.0
2818,74.0,0,60,4.0,0.0
2819,53.0,15,40,3.0,0.0
2820,74.0,0,40,0.0,0.0
2821,57.0,0,40,2.0,0.0
2822,68.0,15,40,0.0,0.0
2823,62.0,0,40,2.0,0.0
2824,53.0,0,40,3.0,0.0
2825,53.0,0,60,4.0,0.0
2826,71.0,0,40,1.0,0.0
2827,68.0,0,60,4.0,0.0
2828,62.0,45,60,4.0,0.0
2829,59.0,0,60,4.0,0.0
2830,64.0,45,60,4.0,0.0
2831,60.0,0,60,4.0,0.0
2832,52.0,0,60,4.0,0.0
2833,72.0,0,40,1.0,0.0
2834,64.0,15,40,2.0,0.0
2835,52.0,0,40,3.0,0.0
2836,69.0,0,60,4.0,0.0
2837,69.0,0,40,0.0,0.0
2838,63.0,0,40,1.0,0.0
2839,51.0,105,60,4.0,0.0
2840,63.0,0,60,4.0,0.0
2841,63.0,0,40,0.0,0.0
2842,63.0,0,40,2.0,0.0
2843,51.0,15,40,3.0,0.0
2844,64.0,0,40,1.0,0.0
2845,64.0,0,40,2.0,0.0
2846,64.0,15,40,0.0,0.0
2847,64.0,0,60,4.0,0.0
2848,52.0,90,60,4.0,0.0
2849,52.0,0,40,3.0,0.0
2850,57.0,0,60,1.0,0.0
2851,57.0,15,30,4.0,0.0
2852,57.0,15,40,0.0,0.0
2853,45.0,0,120,3.0,0.0
2854,57.0,30,60,2.0,0.0
2855,69.0,0,30,4.0,0.0
2856,57.0,15,40,0.0,0.0
2857,69.0,15,30,4.0,0.0
2858,69.0,30,30,4.0,0.0
2859,59.0,15,40,0.0,0.0
2860,68.0,15,30,4.0,0.0
2861,69.0,30,30,4.0,0.0
2862,60.0,15,40,0.0,0.0
2863,69.0,15,30,4.0,0.0
2864,69.0,30,30,4.0,0.0
2865,70.0,15,30,4.0,0.0
2866,62.0,15,40,0.0,0.0
2867,64.0,15,40,0.0,0.0
2868,69.0,30,15,4.0,0.0
2869,69.0,30,30,4.0,0.0
2870,65.0,15,40,0.0,0.0
2871,68.0,15,30,4.0,0.0
2872,69.0,30,30,4.0,0.0
2873,64.0,15,40,0.0,0.0
2874,69.0,15,30,4.0,0.0
2875,69.0,30,30,4.0,0.0
2876,60.0,15,40,0.0,0.0
2877,45.0,0,120,3.0,0.0
2878,64.0,0,30,4.0,0.0
2879,57.0,15,30,4.0,0.0
2880,69.0,30,30,4.0,0.0
2881,69.0,15,30,4.0,0.0
2882,57.0,15,40,0.0,0.0
2883,69.0,30,30,4.0,0.0
2884,68.0,15,30,4.0,0.0
2885,59.0,15,40,0.0,0.0
2886,69.0,30,30,4.0,0.0
2887,60.0,15,40,0.0,0.0
2888,69.0,15,30,4.0,0.0
2889,69.0,30,30,4.0,0.0
2890,70.0,15,30,4.0,0.0
2891,62.0,15,40,0.0,0.0
2892,69.0,30,15,4.0,0.0
2893,65.0,15,40,0.0,0.0
2894,69.0,30,30,4.0,0.0
2895,68.0,15,30,4.0,0.0
2896,64.0,15,40,0.0,0.0
2897,69.0,30,30,4.0,0.0
2898,62.0,15,40,0.0,0.0
2899,69.0,15,30,4.0,0.0
2900,69.0,30,30,4.0,0.0
2901,45.0,30,120,3.0,0.0
2902,57.0,15,30,4.0,0.0
2903,64.0,0,30,4.0,0.0
2904,60.0,15,40,0.0,0.0
2905,69.0,30,30,4.0,0.0
2906,64.0,15,30,4.0,0.0
2907,72.0,0,30,4.0,0.0
2908,69.0,15,40,0.0,0.0
2909,69.0,0,30,4.0,0.0
2910,68.0,15,40,0.0,0.0
2911,71.0,15,30,4.0,0.0
2912,62.0,0,30,4.0,0.0
2913,69.0,30,30,4.0,0.0
2914,64.0,15,30,4.0,0.0
2915,72.0,0,30,4.0,0.0
2916,69.0,15,40,0.0,0.0
2917,69.0,30,30,4.0,0.0
2918,65.0,0,30,4.0,0.0
2919,71.0,15,40,0.0,0.0
2920,74.0,15,30,4.0,0.0
2921,69.0,30,30,4.0,0.0
2922,69.0,15,40,0.0,0.0
2923,64.0,15,30,4.0,0.0
2924,72.0,0,30,4.0,0.0
2925,69.0,30,30,4.0,0.0
2926,74.0,0,30,4.0,0.0
2927,71.0,15,40,0.0,0.0
2928,65.0,15,30,4.0,0.0
2929,69.0,30,30,4.0,0.0
2930,68.0,15,40,0.0,0.0
2931,62.0,15,30,4.0,0.0
2932,71.0,0,30,4.0,0.0
2933,69.0,30,30,4.0,0.0
2934,64.0,0,30,4.0,0.0
2935,69.0,15,40,0.0,0.0
2936,45.0,0,120,3.0,0.0
2937,72.0,15,30,4.0,0.0
2938,69.0,30,30,4.0,0.0
2939,72.0,0,30,4.0,0.0
2940,69.0,15,40,0.0,0.0
2941,64.0,15,30,4.0,0.0
2942,69.0,30,30,4.0,0.0
2943,68.0,15,40,0.0,0.0
2944,62.0,15,30,4.0,0.0
2945,71.0,0,30,4.0,0.0
2946,69.0,30,30,4.0,0.0
2947,64.0,0,30,4.0,0.0
2948,72.0,15,30,4.0,0.0
2949,69.0,15,40,0.0,0.0
2950,69.0,30,30,4.0,0.0
2951,65.0,15,30,4.0,0.0
2952,71.0,15,40,0.0,0.0
2953,74.0,0,30,4.0,0.0
2954,69.0,30,30,4.0,0.0
2955,64.0,15,30,4.0,0.0
2956,72.0,0,30,4.0,0.0
2957,69.0,15,40,0.0,0.0
2958,69.0,30,30,4.0,0.0
2959,71.0,15,40,0.0,0.0
2960,74.0,15,30,4.0,0.0
2961,65.0,0,30,4.0,0.0
2962,69.0,30,30,4.0,0.0
2963,71.0,15,30,4.0,0.0
2964,62.0,0,30,4.0,0.0
2965,68.0,15,40,0.0,0.0
2966,69.0,30,30,4.0,0.0
2967,69.0,15,40,0.0,0.0
2968,72.0,15,30,4.0,0.0
2969,64.0,0,30,4.0,0.0
2970,45.0,30,120,3.0,0.0
2971,64.0,15,40,0.0,0.0
2972,69.0,30,15,4.0,0.0
2973,60.0,15,30,4.0,0.0
2974,69.0,0,30,4.0,0.0
2975,65.0,15,40,0.0,0.0
2976,70.0,15,30,4.0,0.0
2977,62.0,0,30,4.0,0.0
2978,69.0,30,30,4.0,0.0
2979,59.0,0,30,4.0,0.0
2980,68.0,15,30,4.0,0.0
2981,62.0,15,40,0.0,0.0
2982,69.0,30,30,4.0,0.0
2983,64.0,15,40,0.0,0.0
2984,69.0,15,30,4.0,0.0
2985,60.0,0,30,4.0,0.0
2986,69.0,30,30,4.0,0.0
2987,64.0,0,30,4.0,0.0
2988,72.0,15,30,4.0,0.0
2989,69.0,15,40,0.0,0.0
2990,69.0,30,30,4.0,0.0
2991,62.0,15,30,4.0,0.0
2992,70.0,0,30,4.0,0.0
2993,65.0,15,40,0.0,0.0
2994,69.0,30,30,4.0,0.0
2995,62.0,15,40,0.0,0.0
2996,59.0,15,30,4.0,0.0
2997,68.0,0,30,4.0,0.0
2998,69.0,30,30,4.0,0.0
2999,60.0,15,30,4.0,0.0
3000,69.0,0,30,4.0,0.0
3001,45.0,30,120,3.0,0.0
3002,64.0,15,40,0.0,0.0
3003,69.0,30,30,4.0,0.0
3004,60.0,30,30,4.0,0.0
3005,64.0,0,30,4.0,0.0
3006,64.0,15,120,0.0,0.0
3007,69.0,0,30,4.0,0.0
3008,62.0,15,30,4.0,0.0
3009,66.0,0,30,4.0,0.0
3010,69.0,30,30,4.0,0.0
3011,62.0,15,40,0.0,0.0
3012,59.0,0,30,4.0,0.0
3013,68.0,15,30,4.0,0.0
3014,69.0,30,30,4.0,0.0
3015,60.0,15,40,0.0,0.0
3016,69.0,15,30,4.0,0.0
3017,60.0,0,30,4.0,0.0
3018,69.0,30,30,4.0,0.0
3019,64.0,30,30,4.0,0.0
3020,60.0,0,30,4.0,0.0
3021,60.0,15,120,0.0,0.0
3022,69.0,30,30,4.0,0.0
3023,66.0,15,30,4.0,0.0
3024,62.0,0,30,4.0,0.0
3025,69.0,30,30,4.0,0.0
3026,59.0,15,40,0.0,0.0
3027,68.0,0,30,4.0,0.0
3028,59.0,15,30,4.0,0.0
3029,69.0,30,30,4.0,0.0
3030,60.0,0,30,4.0,0.0
3031,57.0,0,120,0.0,0.0
3032,69.0,30,15,4.0,0.0
3033,60.0,30,30,4.0,0.0
3034,64.0,0,30,4.0,0.0
3035,69.0,30,30,4.0,0.0
3036,66.0,0,30,4.0,0.0
3037,62.0,30,30,4.0,0.0
3038,69.0,30,30,4.0,0.0
3039,64.0,30,30,4.0,0.0
3040,68.0,0,30,4.0,0.0
3041,69.0,30,30,4.0,0.0
3042,66.0,0,30,4.0,0.0
3043,69.0,30,30,4.0,0.0
3044,69.0,30,30,4.0,0.0
3045,71.0,30,30,4.0,0.0
3046,68.0,0,30,4.0,0.0
3047,69.0,30,15,4.0,0.0
3048,72.0,0,30,4.0,0.0
3049,69.0,30,15,4.0,0.0
3050,74.0,0,30,4.0,0.0
3051,71.0,30,30,4.0,0.0
3052,69.0,30,30,4.0,0.0
3053,72.0,30,30,4.0,0.0
3054,76.0,0,30,4.0,0.0
3055,69.0,30,30,4.0,0.0
3056,69.0,15,30,2.0,0.0
3057,76.0,0,40,1.0,0.0
3058,76.0,15,40,0.0,0.0
3059,72.0,0,30,4.0,0.0
3060,57.0,15,120,3.0,0.0
3061,57.0,0,30,4.0,0.0
3062,76.0,0,30,4.0,0.0
3063,59.0,30,30,4.0,0.0
3064,75.0,0,40,1.0,0.0
3065,57.0,0,60,4.0,0.0
3066,81.0,15,30,4.0,0.0
3067,67.0,0,15,2.0,0.0
3068,78.0,0,40,0.0,0.0
3069,79.0,30,30,4.0,0.0
3070,55.0,30,60,4.0,0.0
3071,78.0,15,30,4.0,0.0
3072,76.0,0,40,1.0,0.0
3073,55.0,0,40,3.0,0.0
3074,71.0,0,40,2.0,0.0
3075,79.0,15,40,0.0,0.0
3076,76.0,0,30,4.0,0.0
3077,54.0,0,40,3.0,0.0
3078,81.0,15,40,0.0,0.0
3079,78.0,0,40,1.0,0.0
3080,54.0,30,60,4.0,0.0
3081,75.0,15,30,4.0,0.0
3082,72.0,0,40,2.0,0.0
3083,78.0,0,30,4.0,0.0
3084,59.0,30,30,4.0,0.0
3085,81.0,0,30,4.0,0.0
3086,59.0,15,120,3.0,0.0
3087,84.0,30,30,4.0,0.0
3088,57.0,0,30,4.0,0.0
3089,71.0,0,60,2.0,0.0
3090,75.0,0,60,1.0,0.0
3091,83.0,15,30,4.0,0.0
3092,78.0,30,60,0.0,0.0
3093,59.0,0,60,4.0,0.0
3094,81.0,0,30,4.0,0.0
3095,79.0,15,30,4.0,0.0
3096,47.0,15,40,3.0,0.0
3097,47.0,30,60,4.0,0.0
3098,78.0,0,30,4.0,0.0
3099,71.0,30,60,2.0,0.0
3100,79.0,0,30,4.0,0.0
3101,52.0,15,30,4.0,0.0
3102,71.0,0,60,1.0,0.0
3103,76.0,15,40,0.0,0.0
3104,52.0,30,120,3.0,0.0
3105,64.0,0,30,4.0,0.0
3106,64.0,15,40,0.0,0.0
3107,76.0,15,15,4.0,0.0
3108,75.0,15,30,4.0,0.0
3109,66.0,15,40,0.0,0.0
3110,76.0,30,30,4.0,0.0
3111,67.0,15,40,0.0,0.0
3112,76.0,15,30,4.0,0.0
3113,76.0,30,30,4.0,0.0
3114,69.0,15,40,0.0,0.0
3115,77.0,15,30,4.0,0.0
3116,72.0,15,40,0.0,0.0
3117,76.0,30,15,4.0,0.0
3118,76.0,30,30,4.0,0.0
3119,71.0,15,40,0.0,0.0
3120,75.0,15,30,4.0,0.0
3121,76.0,30,30,4.0,0.0
3122,76.0,15,30,4.0,0.0
3123,69.0,15,40,0.0,0.0
3124,76.0,30,30,4.0,0.0
3125,64.0,0,30,4.0,0.0
3126,71.0,15,30,4.0,0.0
3127,52.0,30,120,3.0,0.0
3128,67.0,15,40,0.0,0.0
3129,76.0,30,30,4.0,0.0
3130,64.0,15,40,0.0,0.0
3131,76.0,15,30,4.0,0.0
3132,76.0,0,30,4.0,0.0
3133,66.0,15,40,0.0,0.0
3134,75.0,15,30,4.0,0.0
3135,76.0,30,30,4.0,0.0
3136,67.0,15,40,0.0,0.0
3137,76.0,15,15,4.0,0.0
3138,69.0,15,40,0.0,0.0
3139,77.0,15,30,4.0,0.0
3140,76.0,30,15,4.0,0.0
3141,72.0,15,40,0.0,0.0
3142,76.0,30,30,4.0,0.0
3143,75.0,15,30,4.0,0.0
3144,71.0,15,40,0.0,0.0
3145,69.0,15,40,0.0,0.0
3146,76.0,30,15,4.0,0.0
3147,76.0,15,15,4.0,0.0
3148,67.0,15,40,0.0,0.0
3149,71.0,0,30,4.0,0.0
3150,64.0,15,30,4.0,0.0
3151,52.0,30,120,3.0,0.0
3152,76.0,30,30,4.0,0.0
3153,71.0,15,30,4.0,0.0
3154,76.0,15,40,0.0,0.0
3155,79.0,0,30,4.0,0.0
3156,76.0,0,30,4.0,0.0
3157,69.0,15,30,4.0,0.0
3158,78.0,0,30,4.0,0.0
3159,75.0,15,40,0.0,0.0
3160,76.0,30,30,4.0,0.0
3161,71.0,15,30,4.0,0.0
3162,76.0,15,40,0.0,0.0
3163,79.0,0,30,4.0,0.0
3164,76.0,30,30,4.0,0.0
3165,72.0,15,30,4.0,0.0
3166,81.0,0,30,4.0,0.0
3167,78.0,15,40,0.0,0.0
3168,76.0,30,30,4.0,0.0
3169,76.0,15,40,0.0,0.0
3170,71.0,15,30,4.0,0.0
3171,79.0,0,30,4.0,0.0
3172,76.0,30,30,4.0,0.0
3173,72.0,0,30,4.0,0.0
3174,81.0,15,30,4.0,0.0
3175,78.0,15,40,0.0,0.0
3176,76.0,30,30,4.0,0.0
3177,69.0,0,30,4.0,0.0
3178,75.0,15,40,0.0,0.0
3179,78.0,15,30,4.0,0.0
3180,76.0,30,30,4.0,0.0
3181,76.0,15,40,0.0,0.0
3182,79.0,15,30,4.0,0.0
3183,71.0,0,30,4.0,0.0
3184,52.0,0,120,3.0,0.0
3185,76.0,30,30,4.0,0.0
3186,76.0,15,40,0.0,0.0
3187,71.0,15,30,4.0,0.0
3188,79.0,0,30,4.0,0.0
3189,76.0,30,30,4.0,0.0
3190,69.0,0,30,4.0,0.0
3191,75.0,15,40,0.0,0.0
3192,78.0,15,30,4.0,0.0
3193,76.0,30,30,4.0,0.0
3194,79.0,0,30,4.0,0.0
3195,71.0,15,30,4.0,0.0
3196,76.0,15,40,0.0,0.0
3197,76.0,30,30,4.0,0.0
3198,81.0,15,30,4.0,0.0
3199,78.0,15,40,0.0,0.0
3200,72.0,0,30,4.0,0.0
3201,76.0,30,30,4.0,0.0
3202,76.0,15,40,0.0,0.0
3203,79.0,0,30,4.0,0.0
3204,71.0,15,30,4.0,0.0
3205,76.0,30,30,4.0,0.0
3206,81.0,15,30,4.0,0.0
3207,72.0,0,30,4.0,0.0
3208,78.0,15,40,0.0,0.0
3209,76.0,30,30,4.0,0.0
3210,78.0,15,30,4.0,0.0
3211,69.0,0,30,4.0,0.0
3212,75.0,15,40,0.0,0.0
3213,76.0,30,30,4.0,0.0
3214,79.0,15,30,4.0,0.0
3215,71.0,0,30,4.0,0.0
3216,52.0,30,120,3.0,0.0
3217,76.0,15,40,0.0,0.0
3218,76.0,30,15,4.0,0.0
3219,67.0,15,30,4.0,0.0
3220,71.0,15,40,0.0,0.0
3221,76.0,0,15,4.0,0.0
3222,69.0,15,30,4.0,0.0
3223,72.0,15,40,0.0,0.0
3224,77.0,0,30,4.0,0.0
3225,76.0,30,30,4.0,0.0
3226,75.0,15,30,4.0,0.0
3227,66.0,0,30,4.0,0.0
3228,69.0,15,40,0.0,0.0
3229,76.0,30,30,4.0,0.0
3230,67.0,15,30,4.0,0.0
3231,76.0,0,30,4.0,0.0
3232,71.0,15,40,0.0,0.0
3233,76.0,30,30,4.0,0.0
3234,79.0,0,30,4.0,0.0
3235,71.0,15,30,4.0,0.0
3236,76.0,15,40,0.0,0.0
3237,76.0,30,30,4.0,0.0
3238,72.0,15,40,0.0,0.0
3239,69.0,15,30,4.0,0.0
3240,77.0,0,30,4.0,0.0
3241,76.0,30,30,4.0,0.0
3242,69.0,15,40,0.0,0.0
3243,66.0,15,30,4.0,0.0
3244,75.0,0,30,4.0,0.0
3245,71.0,15,40,0.0,0.0
3246,67.0,0,30,4.0,0.0
3247,52.0,0,120,3.0,0.0
3248,76.0,30,15,4.0,0.0
3249,76.0,15,15,4.0,0.0
3250,71.0,15,120,0.0,0.0
3251,71.0,30,30,4.0,0.0
3252,67.0,0,30,4.0,0.0
3253,76.0,30,30,4.0,0.0
3254,73.0,15,30,4.0,0.0
3255,69.0,0,30,4.0,0.0
3256,76.0,30,30,4.0,0.0
3257,69.0,15,40,0.0,0.0
3258,66.0,0,30,4.0,0.0
3259,75.0,15,30,4.0,0.0
3260,76.0,30,30,4.0,0.0
3261,67.0,15,30,4.0,0.0
3262,67.0,15,40,0.0,0.0
3263,76.0,0,30,4.0,0.0
3264,76.0,30,30,4.0,0.0
3265,71.0,30,30,4.0,0.0
3266,67.0,15,120,0.0,0.0
3267,67.0,0,30,4.0,0.0
3268,76.0,30,30,4.0,0.0
3269,69.0,0,30,4.0,0.0
3270,73.0,15,30,4.0,0.0
3271,76.0,30,30,4.0,0.0
3272,66.0,0,30,4.0,0.0
3273,75.0,15,30,4.0,0.0
3274,66.0,15,40,0.0,0.0
3275,76.0,30,30,4.0,0.0
3276,67.0,30,30,4.0,0.0
3277,76.0,0,30,4.0,0.0
3278,64.0,30,60,0.0,0.0
3279,76.0,0,30,4.0,0.0
3280,67.0,30,30,4.0,0.0
3281,71.0,0,30,4.0,0.0
3282,76.0,30,30,4.0,0.0
3283,73.0,30,30,4.0,0.0
3284,69.0,0,30,4.0,0.0
3285,76.0,30,30,4.0,0.0
3286,71.0,30,30,4.0,0.0
3287,75.0,0,30,4.0,0.0
3288,76.0,30,30,4.0,0.0
3289,73.0,30,30,4.0,0.0
3290,76.0,0,15,4.0,0.0
3291,75.0,30,30,4.0,0.0
3292,78.0,0,30,4.0,0.0
3293,76.0,30,15,4.0,0.0
3294,79.0,0,30,4.0,0.0
3295,76.0,30,15,4.0,0.0
3296,78.0,30,30,4.0,0.0
3297,81.0,0,30,4.0,0.0
3298,76.0,30,30,4.0,0.0
3299,79.0,30,30,4.0,0.0
3300,83.0,0,30,4.0,0.0
3301,76.0,30,30,4.0,0.0
3302,76.0,15,120,0.0,0.0
3303,79.0,0,30,4.0,0.0
3304,83.0,30,30,4.0,0.0
3305,76.0,30,30,4.0,0.0
3306,84.0,0,30,4.0,0.0
3307,81.0,15,30,4.0,0.0
3308,76.0,30,30,4.0,0.0
3309,76.0,0,120,1.0,0.0
3310,79.0,0,30,4.0,0.0
3311,83.0,30,30,4.0,0.0
3312,71.0,0,30,0.0,0.0
3313,76.0,30,30,4.0,0.0
3314,67.0,0,30,0.0,0.0
3315,64.0,15,40,0.0,0.0
3316,84.0,0,30,4.0,0.0
3317,81.0,15,30,4.0,0.0
3318,76.0,30,30,4.0,0.0
3319,76.0,0,120,0.0,0.0
3320,78.0,30,30,4.0,0.0
3321,81.0,0,30,4.0,0.0
3322,72.0,0,30,1.0,0.0
3323,69.0,0,30,1.0,0.0
3324,76.0,30,30,4.0,0.0
3325,64.0,15,40,1.0,0.0
3326,83.0,0,30,4.0,0.0
3327,79.0,15,30,4.0,0.0
3328,76.0,30,30,4.0,0.0
3329,81.0,30,30,4.0,0.0
3330,72.0,0,30,0.0,0.0
3331,78.0,0,30,4.0,0.0
3332,76.0,15,120,1.0,0.0
3333,76.0,0,30,4.0,0.0
3334,69.0,30,30,0.0,0.0
3335,83.0,0,30,4.0,0.0
3336,64.0,0,40,0.0,0.0
3337,79.0,15,30,4.0,0.0
3338,76.0,30,30,4.0,0.0
3339,71.0,30,30,1.0,0.0
3340,79.0,0,30,4.0,0.0
3341,76.0,15,120,0.0,0.0
3342,76.0,0,15,4.0,0.0
3343,67.0,30,30,1.0,0.0
3344,64.0,0,40,1.0,0.0
3345,81.0,15,30,4.0,0.0
3346,78.0,0,30,4.0,0.0
3347,76.0,30,30,4.0,0.0
3348,76.0,15,120,1.0,0.0
3349,71.0,0,30,0.0,0.0
3350,79.0,0,30,4.0,0.0
3351,67.0,0,30,0.0,0.0
3352,76.0,30,15,4.0,0.0
3353,64.0,0,40,0.0,0.0
3354,78.0,15,30,4.0,0.0
3355,81.0,0,30,4.0,0.0
3356,76.0,30,30,4.0,0.0
3357,75.0,0,30,4.0,0.0
3358,76.0,15,120,0.0,0.0
3359,78.0,0,30,4.0,0.0
3360,72.0,30,30,1.0,0.0
3361,76.0,0,30,4.0,0.0
3362,69.0,30,30,1.0,0.0
3363,79.0,0,30,4.0,0.0
3364,64.0,0,40,1.0,0.0
3365,76.0,15,15,4.0,0.0
3366,72.0,0,30,0.0,0.0
3367,76.0,0,120,1.0,0.0
3368,78.0,0,30,4.0,0.0
3369,75.0,30,30,4.0,0.0
3370,69.0,0,30,0.0,0.0
3371,76.0,30,30,4.0,0.0
3372,64.0,0,60,0.0,0.0
3373,79.0,0,30,4.0,0.0
3374,76.0,30,15,4.0,0.0
3375,80.0,0,30,4.0,0.0
3376,64.0,15,40,2.0,0.0
3377,74.0,15,30,4.0,0.0
3378,76.0,30,30,4.0,0.0
3379,63.0,15,40,2.0,0.0
3380,81.0,15,30,4.0,0.0
3381,72.0,0,30,4.0,0.0
3382,76.0,30,30,4.0,0.0
3383,79.0,0,30,4.0,0.0
3384,71.0,15,30,4.0,0.0
3385,64.0,15,40,2.0,0.0
3386,76.0,30,30,4.0,0.0
3387,69.0,0,30,4.0,0.0
3388,60.0,15,40,2.0,0.0
3389,78.0,15,30,4.0,0.0
3390,76.0,30,15,4.0,0.0
3391,57.0,15,40,2.0,0.0
3392,67.0,0,30,4.0,0.0
3393,76.0,15,15,4.0,0.0
3394,66.0,0,30,4.0,0.0
3395,59.0,15,40,2.0,0.0
3396,76.0,15,15,4.0,0.0
3397,66.0,0,30,4.0,0.0
3398,71.0,0,60,2.0,0.0
3399,74.0,30,30,4.0,0.0
3400,76.0,30,30,4.0,0.0
3401,68.0,15,30,4.0,0.0
3402,74.0,0,30,4.0,0.0
3403,64.0,15,40,2.0,0.0
3404,76.0,30,30,4.0,0.0
3405,65.0,15,40,2.0,0.0
3406,69.0,15,30,4.0,0.0
3407,72.0,0,30,4.0,0.0
3408,76.0,30,30,4.0,0.0
3409,62.0,15,40,2.0,0.0
3410,69.0,15,30,4.0,0.0
3411,71.0,0,30,4.0,0.0
3412,76.0,30,30,4.0,0.0
3413,67.0,15,30,4.0,0.0
3414,76.0,0,30,4.0,0.0
3415,64.0,15,40,2.0,0.0
3416,65.0,0,30,4.0,0.0
3417,76.0,30,15,4.0,0.0
3418,57.0,15,40,2.0,0.0
3419,76.0,15,15,4.0,0.0
3420,74.0,15,30,4.0,0.0
3421,65.0,0,30,4.0,0.0
3422,59.0,15,40,2.0,0.0
3423,76.0,30,30,4.0,0.0
3424,64.0,15,30,4.0,0.0
3425,60.0,15,40,2.0,0.0
3426,74.0,0,30,4.0,0.0
3427,76.0,30,30,4.0,0.0
3428,64.0,0,30,4.0,0.0
3429,72.0,15,30,4.0,0.0
3430,57.0,15,40,2.0,0.0
3431,76.0,30,30,4.0,0.0
3432,53.0,15,40,2.0,0.0
3433,72.0,15,30,4.0,0.0
3434,62.0,0,30,4.0,0.0
3435,77.0,30,30,4.0,0.0
3436,62.0,15,40,2.0,0.0
3437,69.0,0,30,4.0,0.0
3438,62.0,15,30,4.0,0.0
3439,77.0,30,30,4.0,0.0
3440,71.0,0,30,4.0,0.0
3441,59.0,15,40,2.0,0.0
3442,62.0,15,30,4.0,0.0
3443,77.0,30,30,4.0,0.0
3444,55.0,15,40,2.0,0.0
3445,71.0,15,30,4.0,0.0
3446,67.0,0,30,4.0,0.0
3447,77.0,30,30,4.0,0.0
3448,60.0,15,40,2.0,0.0
3449,67.0,0,30,4.0,0.0
3450,72.0,15,30,4.0,0.0
3451,76.0,30,30,4.0,0.0
3452,70.0,15,30,4.0,0.0
3453,72.0,0,30,4.0,0.0
3454,48.0,15,40,2.0,0.0
3455,76.0,30,30,4.0,0.0
3456,72.0,15,30,4.0,0.0
3457,69.0,0,30,4.0,0.0
3458,50.0,15,40,2.0,0.0
3459,76.0,30,30,4.0,0.0
3460,52.0,15,40,2.0,0.0
3461,67.0,15,30,4.0,0.0
3462,70.0,0,30,4.0,0.0
3463,76.0,30,30,4.0,0.0
3464,69.0,15,30,4.0,0.0
3465,53.0,15,40,2.0,0.0
3466,65.0,0,30,4.0,0.0
3467,71.0,30,30,4.0,0.0
3468,72.0,15,30,4.0,0.0
3469,52.0,15,40,2.0,0.0
3470,76.0,30,30,4.0,0.0
3471,53.0,15,40,2.0,0.0
3472,81.0,15,30,4.0,0.0
3473,76.0,30,30,4.0,0.0
3474,55.0,15,40,2.0,0.0
3475,77.0,15,30,4.0,0.0
3476,74.0,30,30,4.0,0.0
3477,69.0,15,30,4.0,0.0
3478,65.0,0,30,4.0,0.0
3479,57.0,15,40,2.0,0.0
3480,71.0,30,30,4.0,0.0
3481,55.0,15,40,2.0,0.0
3482,72.0,15,30,4.0,0.0
3483,76.0,30,30,4.0,0.0
3484,81.0,15,30,4.0,0.0
3485,53.0,15,40,2.0,0.0
3486,76.0,30,30,4.0,0.0
3487,77.0,15,30,4.0,0.0
3488,50.0,15,40,2.0,0.0
3489,74.0,30,30,4.0,0.0
3490,71.0,20,30,4.0,0.0
3491,65.0,0,30,4.0,0.0
3492,55.0,10,60,2.0,0.0
3493,72.0,30,30,4.0,0.0
3494,55.0,10,60,2.0,0.0
3495,74.0,20,30,4.0,0.0
3496,77.0,30,30,4.0,0.0
3497,55.0,10,60,2.0,0.0
3498,79.0,20,30,4.0,0.0
3499,74.0,30,30,4.0,0.0
3500,76.0,20,30,4.0,0.0
3501,55.0,10,60,2.0,0.0
3502,72.0,30,30,4.0,0.0
3503,55.0,10,60,2.0,0.0
3504,65.0,20,30,4.0,0.0
3505,71.0,0,30,4.0,0.0
3506,72.0,30,30,4.0,0.0
3507,74.0,20,30,4.0,0.0
3508,55.0,10,60,2.0,0.0
3509,77.0,30,30,4.0,0.0
3510,55.0,10,60,2.0,0.0
3511,79.0,20,30,4.0,0.0
3512,74.0,30,30,4.0,0.0
3513,55.0,10,60,2.0,0.0
3514,76.0,20,30,4.0,0.0
3515,71.0,30,30,4.0,0.0
3516,54.0,10,60,2.0,0.0
3517,63.0,20,30,4.0,0.0
3518,69.0,0,30,4.0,0.0
3519,71.0,30,30,4.0,0.0
3520,72.0,20,30,4.0,0.0
3521,54.0,10,60,2.0,0.0
3522,75.0,30,30,4.0,0.0
3523,81.0,20,30,4.0,0.0
3524,54.0,10,60,2.0,0.0
3525,72.0,30,30,4.0,0.0
3526,54.0,10,60,2.0,0.0
3527,81.0,20,30,4.0,0.0
3528,72.0,30,30,4.0,0.0
3529,63.0,0,30,4.0,0.0
3530,69.0,20,30,4.0,0.0
3531,54.0,10,60,2.0,0.0
3532,71.0,30,30,4.0,0.0
3533,54.0,10,60,2.0,0.0
3534,72.0,20,30,4.0,0.0
3535,75.0,30,30,4.0,0.0
3536,54.0,10,60,2.0,0.0
3537,81.0,20,30,4.0,0.0
3538,72.0,30,30,4.0,0.0
3539,54.0,10,60,2.0,0.0
3540,81.0,20,30,4.0,0.0
3541,72.0,30,30,4.0,0.0
3542,71.0,20,30,4.0,0.0
3543,62.0,0,30,4.0,0.0
3544,55.0,10,60,2.0,0.0
3545,72.0,30,30,4.0,0.0
3546,74.0,20,30,4.0,0.0
3547,55.0,10,60,2.0,0.0
3548,77.0,30,30,4.0,0.0
3549,55.0,10,60,2.0,0.0
3550,80.0,20,30,4.0,0.0
3551,71.0,30,30,4.0,0.0
3552,80.0,20,30,4.0,0.0
3553,55.0,10,60,2.0,0.0
3554,62.0,0,30,4.0,0.0
3555,55.0,10,60,2.0,0.0
3556,71.0,30,15,4.0,0.0
3557,72.0,30,30,4.0,0.0
3558,74.0,20,30,4.0,0.0
3559,55.0,10,60,2.0,0.0
3560,77.0,30,30,4.0,0.0
3561,80.0,20,30,4.0,0.0
3562,55.0,10,60,2.0,0.0
3563,71.0,30,30,4.0,0.0
3564,55.0,10,60,2.0,0.0
3565,80.0,20,30,4.0,0.0
3566,71.0,30,30,4.0,0.0
3567,57.0,0,30,4.0,0.0
3568,55.0,10,60,2.0,0.0
3569,66.0,20,30,4.0,0.0
3570,67.0,30,30,4.0,0.0
3571,69.0,20,30,4.0,0.0
3572,55.0,10,60,2.0,0.0
3573,72.0,30,30,4.0,0.0
3574,75.0,20,30,4.0,0.0
3575,55.0,10,60,2.0,0.0
3576,66.0,30,30,4.0,0.0
3577,75.0,20,30,4.0,0.0
3578,55.0,10,60,2.0,0.0
3579,57.0,0,30,4.0,0.0
3580,66.0,30,15,4.0,0.0
3581,55.0,10,60,2.0,0.0
3582,67.0,30,30,4.0,0.0
3583,69.0,20,30,4.0,0.0
3584,55.0,10,60,2.0,0.0
3585,72.0,30,30,4.0,0.0
3586,55.0,10,60,2.0,0.0
3587,75.0,20,30,4.0,0.0
3588,66.0,30,30,4.0,0.0
3589,55.0,10,60,2.0,0.0
3590,75.0,20,30,4.0,0.0
3591,66.0,30,30,4.0,0.0
3592,55.0,10,60,2.0,0.0
3593,55.0,20,30,4.0,0.0
3594,65.0,0,30,4.0,0.0
3595,67.0,30,30,4.0,0.0
3596,68.0,20,30,4.0,0.0
3597,55.0,10,60,2.0,0.0
3598,71.0,30,30,4.0,0.0
3599,55.0,10,60,2.0,0.0
3600,74.0,20,30,4.0,0.0
3601,65.0,30,30,4.0,0.0
3602,55.0,10,60,2.0,0.0
3603,74.0,20,30,4.0,0.0
3604,65.0,30,30,4.0,0.0
3605,55.0,20,30,4.0,0.0
3606,65.0,0,30,4.0,0.0
3607,55.0,10,60,2.0,0.0
3608,67.0,30,30,4.0,0.0
3609,68.0,20,30,4.0,0.0
3610,55.0,10,60,2.0,0.0
3611,71.0,30,30,4.0,0.0
3612,74.0,20,30,4.0,0.0
3613,55.0,10,60,2.0,0.0
3614,65.0,30,30,4.0,0.0
3615,55.0,10,60,2.0,0.0
3616,74.0,20,30,4.0,0.0
3617,65.0,30,30,4.0,0.0
3618,55.0,10,60,2.0,0.0
3619,63.0,0,30,4.0,0.0
3620,55.0,20,30,4.0,0.0
3621,65.0,30,30,4.0,0.0
3622,67.0,20,30,4.0,0.0
3623,55.0,10,60,2.0,0.0
3624,71.0,30,30,4.0,0.0
3625,72.0,20,30,4.0,0.0
3626,55.0,10,60,2.0,0.0
3627,63.0,30,30,4.0,0.0
3628,55.0,10,60,2.0,0.0
3629,72.0,20,30,4.0,0.0
3630,63.0,30,15,4.0,0.0
3631,55.0,0,30,4.0,0.0
3632,55.0,10,60,2.0,0.0
3633,65.0,30,30,4.0,0.0
3634,67.0,20,30,4.0,0.0
3635,55.0,10,60,2.0,0.0
3636,71.0,30,30,4.0,0.0
3637,72.0,20,30,4.0,0.0
3638,55.0,10,60,2.0,0.0
3639,63.0,30,30,4.0,0.0
3640,55.0,10,60,2.0,0.0
3641,72.0,20,30,4.0,0.0
3642,63.0,30,30,4.0,0.0
3643,62.0,20,30,4.0,0.0
3644,55.0,0,30,4.0,0.0
3645,55.0,10,60,2.0,0.0
3646,63.0,30,30,4.0,0.0
3647,65.0,20,30,4.0,0.0
3648,55.0,10,60,2.0,0.0
3649,71.0,30,30,4.0,0.0
3650,55.0,10,60,2.0,0.0
3651,72.0,20,30,4.0,0.0
3652,62.0,30,30,4.0,0.0
3653,55.0,10,60,2.0,0.0
3654,72.0,20,30,4.0,0.0
3655,55.0,10,60,2.0,0.0
3656,62.0,30,15,4.0,0.0
3657,55.0,20,30,4.0,0.0
3658,63.0,30,30,4.0,0.0
3659,65.0,20,30,4.0,0.0
3660,55.0,10,60,2.0,0.0
3661,71.0,30,30,4.0,0.0
3662,72.0,20,30,4.0,0.0
3663,55.0,10,60,2.0,0.0
3664,62.0,30,30,4.0,0.0
3665,72.0,20,30,4.0,0.0
3666,55.0,10,60,2.0,0.0
3667,62.0,30,15,4.0,0.0
3668,55.0,10,60,2.0,0.0
3669,55.0,0,30,4.0,0.0
3670,63.0,30,30,4.0,0.0
3671,55.0,10,60,2.0,0.0
3672,65.0,20,30,4.0,0.0
3673,68.0,30,30,4.0,0.0
3674,55.0,10,60,2.0,0.0
3675,71.0,20,30,4.0,0.0
3676,62.0,30,30,4.0,0.0
3677,71.0,20,30,4.0,0.0
3678,55.0,10,60,2.0,0.0
3679,62.0,30,30,4.0,0.0
3680,55.0,20,30,4.0,0.0
3681,62.0,0,30,4.0,0.0
3682,55.0,10,60,2.0,0.0
3683,63.0,30,30,4.0,0.0
3684,55.0,10,60,2.0,0.0
3685,65.0,20,30,4.0,0.0
3686,68.0,30,30,4.0,0.0
3687,71.0,20,30,4.0,0.0
3688,55.0,10,60,2.0,0.0
3689,62.0,30,30,4.0,0.0
3690,71.0,20,30,4.0,0.0
3691,55.0,10,60,2.0,0.0
3692,62.0,30,30,4.0,0.0
3693,64.0,0,480,2.0,0.0
3694,67.0,0,480,1.0,0.0
3695,48.0,45,60,4.0,0.0
3696,36.0,15,40,3.0,0.0
3697,60.0,15,30,4.0,0.0
3698,72.0,0,480,0.0,0.0
3699,62.0,0,30,4.0,0.0
3700,64.0,45,60,4.0,0.0
3701,36.0,15,40,3.0,0.0
3702,36.0,15,40,3.0,0.0
3703,62.0,45,60,4.0,0.0
3704,36.0,15,40,3.0,0.0
3705,60.0,30,60,4.0,0.0
3706,52.0,15,30,4.0,0.0
3707,67.0,30,60,4.0,0.0
3708,36.0,15,40,3.0,0.0
3709,53.0,0,30,4.0,0.0
3710,36.0,15,40,3.0,0.0
3711,55.0,15,30,4.0,0.0
3712,76.0,0,120,4.0,0.0
3713,53.0,30,30,4.0,0.0
3714,36.0,15,40,3.0,0.0
3715,57.0,15,30,4.0,0.0
3716,55.0,30,30,4.0,0.0
3717,36.0,15,40,3.0,0.0
3718,53.0,15,30,4.0,0.0
3719,67.0,0,60,4.0,0.0
3720,52.0,30,30,4.0,0.0
3721,36.0,15,40,3.0,0.0
3722,50.0,0,30,4.0,0.0
3723,59.0,15,30,4.0,0.0
3724,59.0,0,240,2.0,0.0
3725,65.0,0,480,1.0,0.0
3726,74.0,0,240,0.0,0.0
3727,60.0,0,30,4.0,0.0
3728,52.0,30,30,4.0,0.0
3729,36.0,15,40,3.0,0.0
3730,62.0,30,60,4.0,0.0
3731,53.0,15,30,4.0,0.0
3732,52.0,0,30,4.0,0.0
3733,36.0,15,40,3.0,0.0
3734,53.0,15,30,4.0,0.0
3735,60.0,0,60,4.0,0.0
3736,52.0,30,30,4.0,0.0
3737,36.0,15,40,3.0,0.0
3738,59.0,0,60,4.0,0.0
3739,50.0,15,30,4.0,0.0
3740,48.0,30,30,4.0,0.0
3741,71.0,0,240,0.0,0.0
3742,36.0,15,40,3.0,0.0
3743,62.0,0,240,2.0,0.0
3744,47.0,15,30,4.0,0.0
3745,65.0,30,60,4.0,0.0
3746,48.0,0,30,4.0,0.0
3747,47.0,15,30,4.0,0.0
3748,74.0,0,120,4.0,0.0
3749,36.0,15,40,3.0,0.0
3750,45.0,30,30,4.0,0.0
3751,36.0,15,40,3.0,0.0
3752,43.0,15,30,4.0,0.0
3753,41.0,30,30,4.0,0.0
3754,40.0,15,30,4.0,0.0
3755,65.0,0,60,4.0,0.0
3756,36.0,15,40,3.0,0.0
3757,38.0,30,30,4.0,0.0
3758,72.0,15,40,0.0,0.0
3759,64.0,15,30,4.0,0.0
3760,36.0,0,60,4.0,0.0
3761,64.0,0,120,2.0,0.0
3762,36.0,30,120,3.0,0.0
3763,67.0,0,120,1.0,0.0
3764,65.0,45,30,4.0,0.0
3765,60.0,15,40,0.0,0.0
3766,67.0,0,60,4.0,0.0
3767,67.0,15,30,4.0,0.0
3768,64.0,15,40,0.0,0.0
3769,69.0,45,30,4.0,0.0
3770,70.0,45,60,4.0,0.0
3771,67.0,15,40,0.0,0.0
3772,61.0,30,60,4.0,0.0
3773,57.0,15,40,0.0,0.0
3774,61.0,0,40,2.0,0.0
3775,76.0,15,30,0.0,0.0
3776,45.0,15,40,3.0,0.0
3777,67.0,0,40,1.0,0.0
3778,57.0,0,60,4.0,0.0
3779,61.0,0,60,4.0,0.0
3780,76.0,0,30,4.0,0.0
3781,74.0,0,30,0.0,0.0
3782,74.0,30,30,4.0,0.0
3783,73.0,15,30,0.0,0.0
3784,73.0,0,30,4.0,0.0
3785,59.0,30,60,4.0,0.0
3786,62.0,15,40,2.0,0.0
3787,47.0,0,40,3.0,0.0
3788,65.0,0,40,1.0,0.0
3789,62.0,0,60,4.0,0.0
3790,71.0,0,30,4.0,0.0
3791,71.0,0,30,0.0,0.0
3792,69.0,0,30,0.0,0.0
3793,64.0,0,60,4.0,0.0
3794,49.0,0,40,3.0,0.0
3795,64.0,0,40,1.0,0.0
3796,61.0,30,60,4.0,0.0
3797,69.0,15,30,4.0,0.0
3798,64.0,15,40,2.0,0.0
3799,67.0,0,30,4.0,0.0
3800,67.0,0,30,0.0,0.0
3801,62.0,0,120,1.0,0.0
3802,57.0,0,120,2.0,0.0
3803,65.0,15,40,0.0,0.0
3804,50.0,30,120,3.0,0.0
3805,65.0,15,30,4.0,0.0
3806,62.0,0,30,4.0,0.0
3807,65.0,15,30,4.0,0.0
3808,62.0,15,40,0.0,0.0
3809,69.0,0,30,4.0,0.0
3810,66.0,15,40,0.0,0.0
3811,72.0,15,30,4.0,0.0
3812,69.0,30,30,4.0,0.0
3813,72.0,15,30,4.0,0.0
3814,69.0,15,40,0.0,0.0
3815,75.0,45,30,4.0,0.0
3816,72.0,15,40,0.0,0.0
3817,50.0,0,40,3.0,0.0
3818,66.0,15,40,2.0,0.0
3819,81.0,0,30,4.0,0.0
3820,66.0,30,15,4.0,0.0
3821,81.0,15,30,0.0,0.0
3822,62.0,30,60,4.0,0.0
3823,72.0,0,40,1.0,0.0
3824,79.0,0,30,0.0,0.0
3825,79.0,0,30,4.0,0.0
3826,67.0,15,40,2.0,0.0
3827,52.0,0,40,3.0,0.0
3828,67.0,0,60,4.0,0.0
3829,78.0,0,30,0.0,0.0
3830,70.0,0,40,1.0,0.0
3831,78.0,15,30,4.0,0.0
3832,64.0,0,60,4.0,0.0
3833,76.0,30,30,4.0,0.0
3834,76.0,0,30,0.0,0.0
3835,69.0,0,40,2.0,0.0
3836,54.0,15,40,3.0,0.0
3837,74.0,0,30,0.0,0.0
3838,66.0,30,60,4.0,0.0
3839,74.0,15,30,4.0,0.0
3840,69.0,0,40,1.0,0.0
3841,69.0,0,60,4.0,0.0
3842,72.0,0,30,0.0,0.0
3843,72.0,0,30,4.0,0.0
3844,55.0,15,40,3.0,0.0
3845,70.0,0,120,0.0,0.0
3846,67.0,15,30,4.0,0.0
3847,70.0,0,60,4.0,0.0
3848,67.0,0,120,1.0,0.0
3849,55.0,0,60,4.0,0.0
3850,62.0,30,120,2.0,0.0
3851,66.0,30,30,4.0,0.0
3852,67.0,15,30,4.0,0.0
3853,54.0,15,40,3.0,0.0
3854,69.0,0,30,4.0,0.0
3855,70.0,15,30,4.0,0.0
3856,55.0,15,40,3.0,0.0
3857,74.0,30,30,4.0,0.0
3858,78.0,15,30,4.0,0.0
3859,57.0,15,40,3.0,0.0
3860,79.0,30,30,4.0,0.0
3861,67.0,15,30,4.0,0.0
3862,70.0,0,60,4.0,0.0
3863,58.0,0,60,4.0,0.0
3864,58.0,15,40,3.0,0.0
3865,66.0,30,30,4.0,0.0
3866,62.0,0,40,3.0,0.0
3867,67.0,15,30,4.0,0.0
3868,70.0,0,40,1.0,0.0
3869,70.0,15,40,2.0,0.0
3870,74.0,0,40,0.0,0.0
3871,69.0,30,30,4.0,0.0
3872,70.0,15,30,4.0,0.0
3873,58.0,15,40,3.0,0.0
3874,79.0,0,40,0.0,0.0
3875,67.0,0,40,2.0,0.0
3876,74.0,0,40,1.0,0.0
3877,74.0,30,30,4.0,0.0
3878,78.0,15,30,4.0,0.0
3879,70.0,15,40,1.0,0.0
3880,62.0,0,40,2.0,0.0
3881,82.0,0,40,0.0,0.0
3882,55.0,0,40,3.0,0.0
3883,79.0,30,30,4.0,0.0
3884,69.0,0,120,2.0,0.0
3885,72.0,15,30,4.0,0.0
3886,67.0,0,60,4.0,0.0
3887,63.0,0,120,1.0,0.0
3888,72.0,0,120,0.0,0.0
3889,57.0,15,40,3.0,0.0
3890,57.0,30,60,4.0,0.0
3891,70.0,0,30,4.0,0.0
3892,55.0,15,40,3.0,0.0
3893,72.0,15,30,4.0,0.0
3894,74.0,30,30,4.0,0.0
3895,57.0,15,40,3.0,0.0
3896,75.0,15,30,4.0,0.0
3897,78.0,30,30,4.0,0.0
3898,79.0,15,30,4.0,0.0
3899,58.0,15,40,3.0,0.0
3900,81.0,30,30,4.0,0.0
3901,60.0,15,40,3.0,0.0
3902,67.0,30,60,4.0,0.0
3903,72.0,15,30,4.0,0.0
3904,60.0,0,60,4.0,0.0
3905,70.0,0,30,4.0,0.0
3906,75.0,15,40,0.0,0.0
3907,63.0,0,40,3.0,0.0
3908,72.0,0,40,1.0,0.0
3909,72.0,0,40,2.0,0.0
3910,72.0,15,30,4.0,0.0
3911,74.0,30,30,4.0,0.0
3912,60.0,0,40,3.0,0.0
3913,69.0,0,40,2.0,0.0
3914,81.0,15,40,0.0,0.0
3915,75.0,0,40,1.0,0.0
3916,75.0,15,30,4.0,0.0
3917,78.0,30,30,4.0,0.0
3918,72.0,15,40,1.0,0.0
3919,79.0,15,30,4.0,0.0
3920,60.0,0,40,2.0,0.0
3921,84.0,0,40,0.0,0.0
3922,57.0,0,40,3.0,0.0
3923,81.0,30,30,4.0,0.0
3924,70.0,0,120,1.0,0.0
3925,67.0,0,60,4.0,0.0
3926,74.0,15,30,4.0,0.0
3927,74.0,30,120,0.0,0.0
3928,58.0,30,60,4.0,0.0
3929,58.0,15,40,3.0,0.0
3930,67.0,0,120,2.0,0.0
3931,72.0,0,30,4.0,0.0
3932,74.0,15,30,4.0,0.0
3933,60.0,15,40,3.0,0.0
3934,78.0,0,30,4.0,0.0
3935,58.0,15,40,3.0,0.0
3936,79.0,15,30,4.0,0.0
3937,81.0,30,30,4.0,0.0
3938,57.0,15,40,3.0,0.0
3939,82.0,15,30,4.0,0.0
3940,79.0,30,30,4.0,0.0
3941,74.0,15,30,4.0,0.0
3942,67.0,0,60,4.0,0.0
3943,55.0,15,40,3.0,0.0
3944,58.0,30,60,4.0,0.0
3945,72.0,0,30,4.0,0.0
3946,74.0,0,40,0.0,0.0
3947,67.0,15,40,1.0,0.0
3948,74.0,15,30,4.0,0.0
3949,58.0,0,40,3.0,0.0
3950,58.0,0,40,2.0,0.0
3951,78.0,30,30,4.0,0.0
3952,79.0,15,30,4.0,0.0
3953,62.0,0,40,1.0,0.0
3954,70.0,0,40,0.0,0.0
3955,62.0,0,40,2.0,0.0
3956,55.0,15,40,3.0,0.0
3957,81.0,30,30,4.0,0.0
3958,82.0,15,30,4.0,0.0
3959,70.0,0,40,1.0,0.0
3960,67.0,0,40,2.0,0.0
3961,67.0,15,40,0.0,0.0
3962,51.0,0,40,3.0,0.0
3963,79.0,30,30,4.0,0.0
3964,72.0,0,120,1.0,0.0
3965,48.0,15,40,3.0,0.0
3966,67.0,0,120,2.0,0.0
3967,67.0,15,30,4.0,0.0
3968,75.0,30,60,4.0,0.0
3969,60.0,0,30,4.0,0.0
3970,75.0,0,120,0.0,0.0
3971,66.0,0,30,4.0,0.0
3972,55.0,15,40,3.0,0.0
3973,67.0,15,30,4.0,0.0
3974,69.0,30,30,4.0,0.0
3975,70.0,15,30,4.0,0.0
3976,51.0,15,40,3.0,0.0
3977,72.0,30,30,4.0,0.0
3978,74.0,15,30,4.0,0.0
3979,50.0,15,40,3.0,0.0
3980,75.0,30,30,4.0,0.0
3981,48.0,15,40,3.0,0.0
3982,60.0,0,30,4.0,0.0
3983,67.0,15,30,4.0,0.0
3984,75.0,0,60,4.0,0.0
3985,66.0,30,30,4.0,0.0
3986,63.0,0,40,2.0,0.0
3987,72.0,15,40,1.0,0.0
3988,75.0,0,40,0.0,0.0
3989,67.0,15,30,4.0,0.0
3990,43.0,0,40,3.0,0.0
3991,69.0,30,30,4.0,0.0
3992,39.0,0,40,3.0,0.0
3993,67.0,15,40,1.0,0.0
3994,72.0,0,40,0.0,0.0
3995,67.0,0,40,2.0,0.0
3996,70.0,15,30,4.0,0.0
3997,72.0,30,30,4.0,0.0
3998,69.0,0,40,0.0,0.0
3999,74.0,15,30,4.0,0.0
4000,63.0,15,40,1.0,0.0
4001,36.0,0,40,3.0,0.0
4002,72.0,0,40,2.0,0.0
4003,75.0,30,30,4.0,0.0
4004,74.0,0,120,2.0,0.0
4005,57.0,15,40,1.0,0.0
4006,74.0,30,60,4.0,0.0
4007,60.0,15,30,4.0,0.0
4008,48.0,0,120,3.0,0.0
4009,66.0,0,30,4.0,0.0
4010,66.0,30,120,0.0,0.0
4011,64.0,0,30,4.0,0.0
4012,66.0,15,30,4.0,0.0
4013,62.0,15,40,1.0,0.0
4014,69.0,0,30,4.0,0.0
4015,72.0,15,30,4.0,0.0
4016,66.0,15,40,1.0,0.0
4017,69.0,30,30,4.0,0.0
4018,69.0,15,40,1.0,0.0
4019,66.0,15,30,4.0,0.0
4020,62.0,30,30,4.0,0.0
4021,60.0,0,30,4.0,0.0
4022,74.0,0,120,1.0,0.0
4023,48.0,30,120,3.0,0.0
4024,74.0,30,60,4.0,0.0
4025,69.0,0,120,2.0,0.0
4026,66.0,30,30,4.0,0.0
4027,64.0,0,30,4.0,0.0
4028,62.0,15,40,0.0,0.0
4029,66.0,15,30,4.0,0.0
4030,69.0,0,30,4.0,0.0
4031,66.0,15,40,0.0,0.0
4032,72.0,15,30,4.0,0.0
4033,69.0,30,30,4.0,0.0
4034,69.0,15,40,0.0,0.0
4035,66.0,15,30,4.0,0.0
4036,62.0,30,30,4.0,0.0
4037,76.0,0,120,0.0,0.0
4038,67.0,30,120,2.0,0.0
4039,70.0,0,30,4.0,0.0
4040,61.0,30,30,4.0,0.0
4041,49.0,0,120,3.0,0.0
4042,67.0,0,30,4.0,0.0
4043,66.0,0,30,4.0,0.0
4044,69.0,30,30,4.0,0.0
4045,70.0,15,40,1.0,0.0
4046,70.0,0,30,4.0,0.0
4047,67.0,15,30,4.0,0.0
4048,61.0,0,30,4.0,0.0
4049,67.0,15,40,1.0,0.0
4050,64.0,15,30,4.0,0.0
4051,67.0,30,30,4.0,0.0
4052,70.0,15,30,4.0,0.0
4053,64.0,15,40,1.0,0.0
4054,66.0,0,30,4.0,0.0
4055,69.0,30,30,4.0,0.0
4056,49.0,0,120,3.0,0.0
4057,70.0,0,30,4.0,0.0
4058,67.0,0,30,4.0,0.0
4059,61.0,15,40,1.0,0.0
4060,64.0,0,120,2.0,0.0
4061,61.0,15,30,4.0,0.0
4062,69.0,0,30,4.0,0.0
4063,66.0,30,30,4.0,0.0
4064,70.0,15,30,4.0,0.0
4065,67.0,0,30,4.0,0.0
4066,70.0,15,40,0.0,0.0
4067,61.0,30,30,4.0,0.0
4068,64.0,15,30,4.0,0.0
4069,67.0,15,40,0.0,0.0
4070,67.0,15,30,4.0,0.0
4071,64.0,15,40,0.0,0.0
4072,70.0,15,15,4.0,0.0
4073,69.0,15,15,4.0,0.0
4074,67.0,30,30,4.0,0.0
4075,60.0,0,120,2.0,0.0
4076,51.0,30,120,3.0,0.0
4077,63.0,15,30,4.0,0.0
4078,66.0,0,30,4.0,0.0
4079,72.0,0,30,4.0,0.0
4080,57.0,15,40,0.0,0.0
4081,70.0,30,30,4.0,0.0
4082,69.0,15,40,1.0,0.0
4083,72.0,15,30,4.0,0.0
4084,57.0,0,30,4.0,0.0
4085,60.0,15,30,4.0,0.0
4086,66.0,15,40,1.0,0.0
4087,63.0,30,30,4.0,0.0
4088,60.0,15,40,1.0,0.0
4089,66.0,15,30,4.0,0.0
4090,69.0,30,30,4.0,0.0
4091,72.0,0,30,4.0,0.0
4092,66.0,15,30,4.0,0.0
4093,63.0,0,30,4.0,0.0
4094,57.0,15,40,1.0,0.0
4095,51.0,30,120,3.0,0.0
4096,63.0,0,120,2.0,0.0
4097,70.0,30,30,4.0,0.0
4098,72.0,15,40,0.0,0.0
4099,72.0,15,30,4.0,0.0
4100,57.0,0,30,4.0,0.0
4101,69.0,15,40,0.0,0.0
4102,60.0,15,30,4.0,0.0
4103,66.0,30,30,4.0,0.0
4104,66.0,15,40,0.0,0.0
4105,69.0,15,30,4.0,0.0
4106,72.0,30,30,4.0,0.0
4107,62.0,0,30,4.0,0.0
4108,50.0,0,120,3.0,0.0
4109,62.0,15,40,0.0,0.0
4110,57.0,0,120,2.0,0.0
4111,72.0,0,30,4.0,0.0
4112,78.0,15,30,4.0,0.0
4113,76.0,30,30,4.0,0.0
4114,78.0,15,40,1.0,0.0
4115,78.0,15,30,4.0,0.0
4116,62.0,30,30,4.0,0.0
4117,66.0,15,30,4.0,0.0
4118,72.0,15,40,1.0,0.0
4119,69.0,30,30,4.0,0.0
4120,72.0,15,30,4.0,0.0
4121,69.0,15,40,1.0,0.0
4122,78.0,30,30,4.0,0.0
4123,66.0,30,120,2.0,0.0
4124,62.0,0,60,4.0,0.0
4125,62.0,0,120,1.0,0.0
4126,72.0,0,30,4.0,0.0
4127,50.0,0,120,3.0,0.0
4128,81.0,30,30,4.0,0.0
4129,79.0,30,30,4.0,0.0
4130,81.0,15,30,4.0,0.0
4131,81.0,15,40,0.0,0.0
4132,62.0,15,60,4.0,0.0
4133,78.0,15,40,0.0,0.0
4134,69.0,0,30,4.0,0.0
4135,72.0,30,30,4.0,0.0
4136,78.0,15,30,4.0,0.0
4137,72.0,15,40,0.0,0.0
4138,81.0,30,30,4.0,0.0
4139,84.0,15,30,4.0,0.0
4140,66.0,15,40,0.0,0.0
4141,81.0,30,30,4.0,0.0
4142,74.0,15,30,4.0,0.0
4143,62.0,15,40,3.0,0.0
4144,84.0,0,30,4.0,0.0
4145,69.0,30,30,4.0,0.0
4146,78.0,0,30,4.0,0.0
4147,58.0,15,40,3.0,0.0
4148,79.0,0,30,4.0,0.0
4149,70.0,15,30,4.0,0.0
4150,66.0,30,30,4.0,0.0
4151,74.0,0,30,4.0,0.0
4152,55.0,15,40,3.0,0.0
4153,75.0,0,30,4.0,0.0
4154,67.0,15,30,4.0,0.0
4155,62.0,30,30,4.0,0.0
4156,71.0,0,30,4.0,0.0
4157,51.0,15,40,3.0,0.0
4158,63.0,0,30,4.0,0.0
4159,72.0,15,30,4.0,0.0
4160,62.0,0,30,4.0,0.0
4161,81.0,30,30,4.0,0.0
4162,48.0,15,40,3.0,0.0
4163,78.0,0,30,4.0,0.0
4164,63.0,15,30,4.0,0.0
4165,60.0,0,30,4.0,0.0
4166,79.0,30,30,4.0,0.0
4167,62.0,30,60,4.0,0.0
4168,70.0,15,30,4.0,0.0
4169,50.0,15,40,3.0,0.0
4170,79.0,0,30,4.0,0.0
4171,38.0,15,40,3.0,0.0
4172,69.0,15,30,4.0,0.0
4173,50.0,0,60,4.0,0.0
4174,78.0,30,30,4.0,0.0
4175,58.0,30,30,2.0,0.0
4176,43.0,45,120,3.0,0.0
4177,55.0,0,120,4.0,0.0
4178,79.0,0,120,4.0,0.0
4179,67.0,0,30,1.0,0.0
4180,67.0,0,30,0.0,0.0
4181,60.0,0,30,2.0,0.0
4182,69.0,0,30,1.0,0.0
4183,69.0,30,30,0.0,0.0
4184,70.0,30,30,0.0,0.0
4185,62.0,0,30,2.0,0.0
4186,70.0,0,30,1.0,0.0
4187,69.0,0,40,1.0,0.0
4188,60.0,0,40,2.0,0.0
4189,69.0,60,40,0.0,0.0
4190,58.0,0,40,2.0,0.0
4191,67.0,45,40,1.0,0.0
4192,67.0,0,40,0.0,0.0
4193,82.0,15,30,4.0,0.0
4194,55.0,0,30,3.0,0.0
4195,74.0,15,40,1.0,0.0
4196,55.0,0,30,4.0,0.0
4197,67.0,0,30,2.0,0.0
4198,74.0,0,40,0.0,0.0
4199,57.0,30,30,3.0,0.0
4200,66.0,0,30,2.0,0.0
4201,57.0,0,30,4.0,0.0
4202,84.0,0,30,4.0,0.0
4203,67.0,0,30,2.0,0.0
4204,79.0,0,120,0.0,0.0
4205,58.0,0,30,3.0,0.0
4206,79.0,15,120,1.0,0.0
4207,58.0,75,30,4.0,0.0
4208,86.0,0,30,4.0,0.0
4209,84.0,0,60,4.0,0.0
4210,57.0,45,60,4.0,0.0
4211,69.0,0,40,2.0,0.0
4212,57.0,0,40,3.0,0.0
4213,55.0,0,40,3.0,0.0
4214,74.0,15,40,0.0,0.0
4215,82.0,0,120,4.0,0.0
4216,55.0,30,60,4.0,0.0
4217,74.0,0,40,1.0,0.0
4218,70.0,0,40,2.0,0.0
4219,67.0,15,40,2.0,0.0
4220,75.0,0,40,0.0,0.0
4221,60.0,0,60,3.0,0.0
4222,48.0,15,30,4.0,0.0
4223,75.0,0,40,1.0,0.0
4224,60.0,30,30,4.0,0.0
4225,72.0,0,30,0.0,0.0
4226,72.0,0,30,1.0,0.0
4227,63.0,15,40,2.0,0.0
4228,63.0,15,30,4.0,0.0
4229,81.0,0,120,4.0,0.0
4230,60.0,0,30,4.0,0.0
4231,69.0,30,30,0.0,0.0
4232,69.0,0,30,1.0,0.0
4233,46.0,15,30,4.0,0.0
4234,74.0,0,40,1.0,0.0
4235,62.0,0,60,2.0,0.0
4236,58.0,30,60,3.0,0.0
4237,74.0,15,40,0.0,0.0
4238,58.0,0,30,4.0,0.0
4239,70.0,0,30,0.0,0.0
4240,70.0,0,30,1.0,0.0
4241,62.0,30,30,4.0,0.0
4242,79.0,0,120,4.0,0.0
4243,58.0,0,30,4.0,0.0
4244,67.0,0,30,1.0,0.0
4245,67.0,30,30,0.0,0.0
4246,45.0,15,30,4.0,0.0
4247,63.0,30,60,2.0,0.0
4248,57.0,0,60,3.0,0.0
4249,72.0,15,40,1.0,0.0
4250,72.0,0,40,0.0,0.0
4251,57.0,0,30,4.0,0.0
4252,72.0,0,120,4.0,0.0
4253,69.0,0,30,0.0,0.0
4254,69.0,0,30,1.0,0.0
4255,60.0,30,30,4.0,0.0
4256,66.0,30,30,0.0,0.0
4257,63.0,0,30,4.0,0.0
4258,66.0,0,30,1.0,0.0
4259,43.0,15,30,4.0,0.0
4260,67.0,0,60,2.0,0.0
4261,62.0,0,40,1.0,0.0
4262,55.0,30,60,3.0,0.0
4263,62.0,15,40,0.0,0.0
4264,58.0,0,30,4.0,0.0
4265,69.0,30,30,4.0,0.0
4266,60.0,0,30,4.0,0.0
4267,75.0,15,120,1.0,0.0
4268,75.0,0,120,0.0,0.0
4269,63.0,30,30,4.0,0.0
4270,66.0,0,30,4.0,0.0
4271,54.0,0,60,3.0,0.0
4272,69.0,0,60,2.0,0.0
4273,42.0,15,30,4.0,0.0
4274,60.0,0,60,4.0,0.0
4275,57.0,30,30,4.0,0.0
4276,72.0,0,30,1.0,0.0
4277,72.0,0,30,0.0,0.0
4278,75.0,0,120,4.0,0.0
4279,55.0,30,30,4.0,0.0
4280,69.0,30,30,0.0,0.0
4281,69.0,0,30,1.0,0.0
4282,54.0,0,30,4.0,0.0
4283,55.0,30,60,3.0,0.0
4284,43.0,15,30,4.0,0.0
4285,62.0,0,40,1.0,0.0
4286,62.0,15,40,0.0,0.0
4287,70.0,0,60,2.0,0.0
4288,58.0,0,30,4.0,0.0
4289,78.0,0,120,1.0,0.0
4290,72.0,30,30,4.0,0.0
4291,57.0,0,30,4.0,0.0
4292,78.0,15,120,0.0,0.0
4293,69.0,30,30,4.0,0.0
4294,55.0,0,30,4.0,0.0
4295,72.0,30,60,2.0,0.0
4296,45.0,15,30,4.0,0.0
4297,57.0,0,60,3.0,0.0
4298,60.0,0,30,4.0,0.0
4299,58.0,0,30,4.0,0.0
4300,78.0,0,120,4.0,0.0
4301,75.0,30,30,1.0,0.0
4302,75.0,0,30,0.0,0.0
4303,57.0,0,30,4.0,0.0
4304,72.0,30,30,0.0,0.0
4305,72.0,0,30,1.0,0.0
4306,70.0,0,60,2.0,0.0
4307,62.0,15,40,1.0,0.0
4308,58.0,0,60,3.0,0.0
4309,46.0,15,30,4.0,0.0
4310,62.0,0,40,0.0,0.0
4311,62.0,30,30,4.0,0.0
4312,81.0,15,120,0.0,0.0
4313,81.0,0,120,1.0,0.0
4314,60.0,0,30,4.0,0.0
4315,75.0,30,30,4.0,0.0
4316,58.0,30,30,4.0,0.0
4317,72.0,0,30,4.0,0.0
4318,62.0,30,60,4.0,0.0
4319,69.0,0,40,2.0,0.0
4320,60.0,0,40,3.0,0.0
4321,60.0,15,30,4.0,0.0
4322,48.0,0,30,4.0,0.0
4323,78.0,0,30,1.0,0.0
4324,69.0,0,40,2.0,0.0
4325,60.0,15,30,4.0,0.0
4326,78.0,0,30,0.0,0.0
4327,60.0,15,40,3.0,0.0
4328,81.0,0,120,4.0,0.0
4329,74.0,0,30,1.0,0.0
4330,58.0,30,30,4.0,0.0
4331,74.0,0,30,0.0,0.0
4332,75.0,0,30,1.0,0.0
4333,75.0,15,30,0.0,0.0
4334,60.0,0,40,3.0,0.0
4335,60.0,0,60,4.0,0.0
4336,69.0,15,40,2.0,0.0
4337,72.0,30,30,0.0,0.0
4338,72.0,0,30,1.0,0.0
4339,74.0,0,30,0.0,0.0
4340,74.0,0,30,1.0,0.0
4341,78.0,15,30,4.0,0.0
4342,69.0,15,40,2.0,0.0
4343,60.0,0,40,3.0,0.0
4344,70.0,30,30,0.0,0.0
4345,74.0,0,30,4.0,0.0
4346,70.0,0,30,1.0,0.0
4347,69.0,30,60,2.0,0.0
4348,75.0,15,30,4.0,0.0
4349,72.0,0,30,0.0,0.0
4350,72.0,0,30,1.0,0.0
4351,60.0,15,40,3.0,0.0
4352,69.0,0,30,1.0,0.0
4353,69.0,0,30,0.0,0.0
4354,51.0,0,30,4.0,0.0
4355,72.0,0,30,4.0,0.0
4356,70.0,0,30,0.0,0.0
4357,60.0,15,40,3.0,0.0
4358,70.0,0,30,1.0,0.0
4359,63.0,15,30,4.0,0.0
4360,74.0,0,30,4.0,0.0
4361,67.0,0,30,0.0,0.0
4362,67.0,30,30,1.0,0.0
4363,62.0,0,30,4.0,0.0
4364,70.0,0,30,4.0,0.0
4365,69.0,0,30,0.0,0.0
4366,63.0,0,60,4.0,0.0
4367,69.0,0,60,2.0,0.0
4368,60.0,15,40,3.0,0.0
4369,69.0,0,30,1.0,0.0
4370,72.0,15,30,4.0,0.0
4371,66.0,0,30,0.0,0.0
4372,66.0,30,30,1.0,0.0
4373,69.0,0,30,4.0,0.0
4374,70.0,15,30,4.0,0.0
4375,67.0,0,30,0.0,0.0
4376,60.0,15,40,3.0,0.0
4377,67.0,0,30,1.0,0.0
4378,64.0,0,30,1.0,0.0
4379,67.0,15,30,4.0,0.0
4380,64.0,0,30,0.0,0.0
4381,69.0,0,120,2.0,0.0
4382,74.0,15,15,4.0,0.0
4383,66.0,0,30,0.0,0.0
4384,60.0,0,120,3.0,0.0
4385,66.0,15,30,1.0,0.0
4386,76.0,0,15,4.0,0.0
4387,62.0,15,30,0.0,0.0
4388,58.0,0,30,4.0,0.0
4389,74.0,15,15,4.0,0.0
4390,62.0,0,30,1.0,0.0
4391,76.0,0,15,4.0,0.0
4392,57.0,0,30,4.0,0.0
4393,74.0,15,15,4.0,0.0
4394,64.0,15,30,1.0,0.0
4395,64.0,0,30,0.0,0.0
4396,76.0,0,15,4.0,0.0
4397,74.0,15,15,4.0,0.0
4398,55.0,0,30,4.0,0.0
4399,66.0,15,30,0.0,0.0
4400,66.0,0,30,1.0,0.0
4401,76.0,0,15,4.0,0.0
4402,74.0,15,15,4.0,0.0
4403,67.0,15,30,0.0,0.0
4404,54.0,0,30,4.0,0.0
4405,67.0,0,30,1.0,0.0
4406,76.0,0,15,4.0,0.0
4407,69.0,0,30,1.0,0.0
4408,51.0,0,30,4.0,0.0
4409,74.0,15,15,4.0,0.0
4410,69.0,15,30,0.0,0.0
4411,76.0,0,15,4.0,0.0
4412,50.0,15,30,4.0,0.0
4413,70.0,0,30,1.0,0.0
4414,74.0,15,15,4.0,0.0
4415,70.0,0,30,0.0,0.0
4416,76.0,0,15,4.0,0.0
4417,74.0,15,15,4.0,0.0
4418,72.0,0,30,0.0,0.0
4419,48.0,15,30,4.0,0.0
4420,72.0,0,30,1.0,0.0
4421,76.0,0,15,4.0,0.0
4422,47.0,0,30,3.0,0.0
4423,67.0,0,60,2.0,0.0
4424,74.0,0,30,1.0,0.0
4425,47.0,0,30,4.0,0.0
4426,74.0,15,15,4.0,0.0
4427,74.0,15,30,0.0,0.0
4428,76.0,0,15,4.0,0.0
4429,48.0,0,30,4.0,0.0
4430,74.0,15,15,4.0,0.0
4431,48.0,0,30,3.0,0.0
4432,75.0,15,30,1.0,0.0
4433,75.0,0,30,0.0,0.0
4434,76.0,0,15,4.0,0.0
4435,77.0,0,40,0.0,0.0
4436,50.0,0,40,3.0,0.0
4437,77.0,15,40,1.0,0.0
4438,50.0,0,30,4.0,0.0
4439,74.0,15,15,4.0,0.0
4440,76.0,15,15,4.0,0.0
4441,74.0,0,15,4.0,0.0
4442,51.0,15,30,4.0,0.0
4443,76.0,0,15,4.0,0.0
4444,74.0,15,15,4.0,0.0
4445,77.0,0,30,1.0,0.0
4446,50.0,0,30,4.0,0.0
4447,50.0,0,30,3.0,0.0
4448,62.0,15,60,2.0,0.0
4449,77.0,15,30,0.0,0.0
4450,76.0,0,15,4.0,0.0
4451,79.0,0,30,1.0,0.0
4452,51.0,0,30,4.0,0.0
4453,74.0,15,15,4.0,0.0
4454,51.0,0,30,3.0,0.0
4455,79.0,0,30,0.0,0.0
4456,76.0,0,15,4.0,0.0
4457,74.0,15,15,4.0,0.0
4458,53.0,0,30,4.0,0.0
4459,80.0,0,40,1.0,0.0
4460,80.0,0,40,0.0,0.0
4461,53.0,0,40,3.0,0.0
4462,76.0,15,15,4.0,0.0
4463,55.0,15,30,4.0,0.0
4464,74.0,15,15,4.0,0.0
4465,76.0,0,15,4.0,0.0
4466,53.0,0,30,4.0,0.0
4467,74.0,15,15,4.0,0.0
4468,71.0,0,40,0.0,0.0
4469,62.0,15,40,2.0,0.0
4470,53.0,0,40,3.0,0.0
4471,71.0,0,40,1.0,0.0
4472,76.0,15,15,4.0,0.0
4473,62.0,0,30,4.0,0.0
4474,74.0,0,15,4.0,0.0
4475,76.0,30,15,4.0,0.0
4476,51.0,15,30,4.0,0.0
4477,72.0,15,40,0.0,0.0
4478,51.0,0,40,3.0,0.0
4479,67.0,0,40,2.0,0.0
4480,72.0,0,40,1.0,0.0
4481,50.0,30,30,4.0,0.0
4482,51.0,0,40,3.0,0.0
4483,69.0,0,40,2.0,0.0
4484,51.0,15,30,4.0,0.0
4485,66.0,0,40,0.0,0.0
4486,66.0,15,40,1.0,0.0
4487,60.0,30,30,4.0,0.0
4488,67.0,0,40,1.0,0.0
4489,67.0,15,40,0.0,0.0
4490,50.0,15,30,4.0,0.0
4491,50.0,0,40,3.0,0.0
4492,70.0,0,40,2.0,0.0
4493,58.0,45,30,4.0,0.0
4494,61.0,0,40,1.0,0.0
4495,61.0,30,40,0.0,0.0
4496,49.0,0,120,4.0,0.0
4497,52.0,0,120,4.0,0.0
4498,55.0,15,120,4.0,0.0
4499,82.0,15,60,4.0,0.0
4500,49.0,0,40,3.0,0.0
4501,61.0,0,40,2.0,0.0
4502,84.0,15,15,4.0,0.0
4503,82.0,15,15,4.0,0.0
4504,81.0,0,15,4.0,0.0
4505,79.0,15,15,4.0,0.0
4506,81.0,15,15,4.0,0.0
4507,82.0,15,15,4.0,0.0
4508,81.0,15,15,4.0,0.0
4509,79.0,15,15,4.0,0.0
4510,77.0,15,15,4.0,0.0
4511,76.0,15,15,4.0,0.0
4512,77.0,15,15,4.0,0.0
4513,79.0,15,15,4.0,0.0
4514,77.0,15,15,4.0,0.0
4515,76.0,15,15,4.0,0.0
4516,74.0,15,15,4.0,0.0
4517,73.0,15,15,4.0,0.0
4518,74.0,15,15,4.0,0.0
4519,76.0,15,15,4.0,0.0
4520,74.0,15,15,4.0,0.0
4521,73.0,15,15,4.0,0.0
4522,71.0,15,15,4.0,0.0
4523,69.0,15,15,4.0,0.0
4524,71.0,15,15,4.0,0.0
4525,73.0,15,15,4.0,0.0
4526,71.0,15,15,4.0,0.0
4527,69.0,15,15,4.0,0.0
4528,67.0,15,15,4.0,0.0
4529,70.0,15,15,4.0,0.0
4530,69.0,15,15,4.0,0.0
4531,67.0,15,15,4.0,0.0
4532,65.0,15,15,4.0,0.0
4533,64.0,15,15,4.0,0.0
4534,65.0,15,15,4.0,0.0
4535,67.0,15,15,4.0,0.0
4536,65.0,15,15,4.0,0.0
4537,64.0,15,15,4.0,0.0
4538,62.0,15,15,4.0,0.0
4539,61.0,15,15,4.0,0.0
4540,62.0,15,15,4.0,0.0
4541,64.0,15,15,4.0,0.0
4542,62.0,15,15,4.0,0.0
4543,61.0,15,15,4.0,0.0
4544,59.0,15,15,4.0,0.0
4545,57.0,15,15,4.0,0.0
4546,59.0,15,15,4.0,0.0
4547,57.0,15,15,4.0,0.0
4548,59.0,15,15,4.0,0.0
4549,57.0,15,15,4.0,0.0
4550,59.0,15,15,4.0,0.0
4551,61.0,15,15,4.0,0.0
4552,62.0,15,15,4.0,0.0
4553,64.0,15,15,4.0,0.0
4554,65.0,15,15,4.0,0.0
4555,67.0,15,15,4.0,0.0
4556,64.0,15,15,4.0,0.0
4557,61.0,15,15,4.0,0.0
4558,62.0,15,15,4.0,0.0
4559,64.0,15,15,4.0,0.0
4560,65.0,15,15,4.0,0.0
4561,67.0,15,15,4.0,0.0
4562,69.0,15,15,4.0,0.0
4563,70.0,15,15,4.0,0.0
4564,67.0,15,15,4.0,0.0
4565,64.0,15,15,4.0,0.0
4566,65.0,15,15,4.0,0.0
4567,67.0,15,15,4.0,0.0
4568,69.0,15,15,4.0,0.0
4569,70.0,15,15,4.0,0.0
4570,73.0,15,15,4.0,0.0
4571,74.0,15,15,4.0,0.0
4572,76.0,15,15,4.0,0.0
4573,74.0,15,15,4.0,0.0
4574,73.0,15,15,4.0,0.0
4575,71.0,15,15,4.0,0.0
4576,69.0,15,15,4.0,0.0
4577,67.0,15,15,4.0,0.0
4578,69.0,15,15,4.0,0.0
4579,71.0,15,15,4.0,0.0
4580,73.0,15,15,4.0,0.0
4581,74.0,15,15,4.0,0.0
4582,76.0,15,15,4.0,0.0
4583,77.0,15,15,4.0,0.0
4584,79.0,15,15,4.0,0.0
4585,81.0,15,15,4.0,0.0
4586,82.0,15,15,4.0,0.0
4587,81.0,15,15,4.0,0.0
4588,79.0,15,15,4.0,0.0
4589,77.0,15,15,4.0,0.0
4590,76.0,15,15,4.0,0.0
4591,74.0,15,15,4.0,0.0
4592,73.0,60,15,4.0,0.0
4593,74.0,30,60,4.0,0.0
4594,79.0,0,60,4.0,0.0
4595,75.0,30,60,4.0,0.0
4596,51.0,30,30,3.0,0.0
4597,51.0,0,60,4.0,0.0
4598,70.0,0,60,4.0,0.0
4599,70.0,0,30,1.0,0.0
4600,67.0,0,30,2.0,0.0
4601,79.0,0,30,0.0,0.0
4602,72.0,0,30,2.0,0.0
4603,81.0,0,30,0.0,0.0
4604,48.0,0,30,3.0,0.0
4605,81.0,30,60,4.0,0.0
4606,72.0,0,60,4.0,0.0
4607,48.0,0,60,4.0,0.0
4608,75.0,30,30,1.0,0.0
4609,75.0,0,60,4.0,0.0
4610,69.0,30,30,2.0,0.0
4611,78.0,0,30,0.0,0.0
4612,50.0,0,30,3.0,0.0
4613,74.0,0,30,1.0,0.0
4614,50.0,0,60,4.0,0.0
4615,69.0,0,60,4.0,0.0
4616,78.0,30,60,4.0,0.0
4617,74.0,30,30,1.0,0.0
4618,79.0,15,120,0.0,0.0
4619,70.0,0,120,2.0,0.0
4620,43.0,0,30,3.0,0.0
4621,74.0,0,15,4.0,0.0
4622,70.0,30,60,4.0,0.0
4623,55.0,0,30,4.0,0.0
4624,79.0,0,60,4.0,0.0
4625,45.0,0,30,3.0,0.0
4626,72.0,0,30,1.0,0.0
4627,57.0,0,30,4.0,0.0
4628,46.0,0,30,3.0,0.0
4629,70.0,30,30,1.0,0.0
4630,58.0,0,60,4.0,0.0
4631,69.0,0,30,1.0,0.0
4632,57.0,15,60,4.0,0.0
4633,67.0,0,30,1.0,0.0
4634,82.0,15,15,4.0,0.0
4635,45.0,15,40,3.0,0.0
4636,81.0,15,15,4.0,0.0
4637,82.0,0,15,4.0,0.0
4638,65.0,0,30,1.0,0.0
4639,84.0,0,15,4.0,0.0
4640,63.0,0,30,1.0,0.0
4641,55.0,15,60,4.0,0.0
4642,82.0,15,15,4.0,0.0
4643,43.0,15,40,3.0,0.0
4644,84.0,15,15,4.0,0.0
4645,82.0,0,15,4.0,0.0
4646,62.0,0,30,1.0,0.0
4647,84.0,0,15,4.0,0.0
4648,60.0,15,30,2.0,0.0
4649,60.0,0,40,1.0,0.0
4650,79.0,0,30,0.0,0.0
4651,82.0,15,15,4.0,0.0
4652,60.0,0,30,4.0,0.0
4653,48.0,15,40,3.0,0.0
4654,84.0,0,15,4.0,0.0
4655,77.0,0,30,0.0,0.0
4656,82.0,0,15,4.0,0.0
4657,62.0,15,30,4.0,0.0
4658,62.0,0,30,2.0,0.0
4659,84.0,0,15,4.0,0.0
4660,76.0,0,30,0.0,0.0
4661,55.0,0,120,3.0,0.0
4662,72.0,15,40,1.0,0.0
4663,63.0,0,30,2.0,0.0
4664,64.0,0,60,4.0,0.0
4665,82.0,15,15,4.0,0.0
4666,84.0,15,15,4.0,0.0
4667,74.0,0,30,0.0,0.0
4668,82.0,0,15,4.0,0.0
4669,84.0,15,15,4.0,0.0
4670,62.0,0,40,2.0,0.0
4671,82.0,15,15,4.0,0.0
4672,72.0,0,30,0.0,0.0
4673,62.0,0,60,4.0,0.0
4674,84.0,15,15,4.0,0.0
4675,70.0,15,30,0.0,0.0
4676,82.0,15,15,4.0,0.0
4677,84.0,0,15,4.0,0.0
4678,48.0,15,40,3.0,0.0
4679,69.0,0,30,0.0,0.0
4680,60.0,0,60,4.0,0.0
4681,82.0,15,15,4.0,0.0
4682,60.0,0,40,2.0,0.0
4683,84.0,15,15,4.0,0.0
4684,82.0,0,15,4.0,0.0
4685,67.0,0,30,0.0,0.0
4686,84.0,15,15,4.0,0.0
4687,65.0,0,40,2.0,0.0
4688,65.0,15,40,0.0,0.0
4689,72.0,15,30,1.0,0.0
4690,53.0,0,30,4.0,0.0
4691,41.0,0,30,3.0,0.0
4692,81.0,15,15,4.0,0.0
4693,82.0,0,15,4.0,0.0
4694,43.0,0,30,3.0,0.0
4695,55.0,15,30,4.0,0.0
4696,81.0,0,15,4.0,0.0
4697,70.0,0,30,1.0,0.0
4698,82.0,0,15,4.0,0.0
4699,45.0,15,30,3.0,0.0
4700,57.0,15,60,4.0,0.0
4701,77.0,0,40,0.0,0.0
4702,69.0,0,30,1.0,0.0
4703,72.0,0,120,2.0,0.0
4704,81.0,15,15,4.0,0.0
4705,82.0,0,15,4.0,0.0
4706,81.0,15,15,4.0,0.0
4707,67.0,0,30,1.0,0.0
4708,82.0,0,15,4.0,0.0
4709,81.0,15,15,4.0,0.0
4710,43.0,0,40,3.0,0.0
4711,65.0,0,30,1.0,0.0
4712,55.0,0,60,4.0,0.0
4713,82.0,15,15,4.0,0.0
4714,63.0,15,30,1.0,0.0
4715,81.0,15,15,4.0,0.0
4716,82.0,0,15,4.0,0.0
4717,65.0,15,40,2.0,0.0
4718,53.0,0,60,4.0,0.0
4719,81.0,15,15,4.0,0.0
4720,62.0,15,30,1.0,0.0
4721,41.0,0,40,3.0,0.0
4722,82.0,0,15,4.0,0.0
4723,81.0,0,15,4.0,0.0
4724,60.0,15,30,1.0,0.0
4725,82.0,0,15,4.0,0.0
4726,58.0,0,30,4.0,0.0
4727,81.0,15,15,4.0,0.0
4728,58.0,0,30,2.0,0.0
4729,77.0,15,30,0.0,0.0
4730,46.0,15,40,3.0,0.0
4731,58.0,0,40,1.0,0.0
4732,82.0,0,15,4.0,0.0
4733,60.0,0,30,2.0,0.0
4734,60.0,0,30,4.0,0.0
4735,81.0,0,15,4.0,0.0
4736,76.0,0,30,0.0,0.0
4737,82.0,15,15,4.0,0.0
4738,62.0,15,60,4.0,0.0
4739,74.0,0,30,0.0,0.0
4740,53.0,0,120,3.0,0.0
4741,70.0,15,40,1.0,0.0
4742,81.0,15,15,4.0,0.0
4743,62.0,15,30,2.0,0.0
4744,82.0,0,15,4.0,0.0
4745,72.0,0,30,0.0,0.0
4746,81.0,0,15,4.0,0.0
4747,82.0,0,15,4.0,0.0
4748,60.0,15,40,2.0,0.0
4749,60.0,0,60,4.0,0.0
4750,81.0,15,15,4.0,0.0
4751,70.0,0,30,0.0,0.0
4752,82.0,15,15,4.0,0.0
4753,69.0,15,30,0.0,0.0
4754,81.0,0,15,4.0,0.0
4755,82.0,0,15,4.0,0.0
4756,67.0,15,30,0.0,0.0
4757,81.0,15,15,4.0,0.0
4758,58.0,0,40,2.0,0.0
4759,58.0,0,60,4.0,0.0
4760,46.0,15,40,3.0,0.0
4761,82.0,0,15,4.0,0.0
4762,81.0,0,15,4.0,0.0
4763,65.0,15,30,0.0,0.0
4764,82.0,0,15,4.0,0.0
4765,64.0,15,40,2.0,0.0
4766,52.0,0,30,4.0,0.0
4767,64.0,0,40,0.0,0.0
4768,40.0,15,30,3.0,0.0
4769,79.0,15,15,4.0,0.0
4770,70.0,0,30,1.0,0.0
4771,81.0,0,15,4.0,0.0
4772,53.0,15,30,4.0,0.0
4773,79.0,0,15,4.0,0.0
4774,69.0,0,30,1.0,0.0
4775,41.0,0,30,3.0,0.0
4776,81.0,0,15,4.0,0.0
4777,67.0,0,30,1.0,0.0
4778,70.0,0,120,2.0,0.0
4779,76.0,0,40,0.0,0.0
4780,79.0,15,15,4.0,0.0
4781,55.0,0,60,4.0,0.0
4782,43.0,0,30,3.0,0.0
4783,81.0,15,15,4.0,0.0
4784,65.0,0,30,1.0,0.0
4785,79.0,15,15,4.0,0.0
4786,81.0,15,15,4.0,0.0
4787,79.0,15,15,4.0,0.0
4788,64.0,0,30,1.0,0.0
4789,53.0,0,60,4.0,0.0
4790,41.0,0,40,3.0,0.0
4791,81.0,15,15,4.0,0.0
4792,62.0,15,30,1.0,0.0
4793,79.0,15,15,4.0,0.0
4794,81.0,0,15,4.0,0.0
4795,64.0,0,40,2.0,0.0
4796,40.0,0,40,3.0,0.0
4797,52.0,15,60,4.0,0.0
4798,79.0,15,15,4.0,0.0
4799,61.0,15,30,1.0,0.0
4800,81.0,0,15,4.0,0.0
4801,59.0,0,30,1.0,0.0
4802,79.0,15,15,4.0,0.0
4803,81.0,0,15,4.0,0.0
4804,45.0,15,40,3.0,0.0
4805,79.0,15,15,4.0,0.0
4806,57.0,15,30,2.0,0.0
4807,76.0,0,30,0.0,0.0
4808,57.0,0,40,1.0,0.0
4809,57.0,0,30,4.0,0.0
4810,81.0,0,15,4.0,0.0
4811,59.0,0,30,4.0,0.0
4812,79.0,0,15,4.0,0.0
4813,74.0,0,30,0.0,0.0
4814,59.0,15,30,2.0,0.0
4815,81.0,0,15,4.0,0.0
4816,61.0,0,60,4.0,0.0
4817,79.0,15,15,4.0,0.0
4818,61.0,0,30,2.0,0.0
4819,69.0,0,40,1.0,0.0
4820,52.0,0,120,3.0,0.0
4821,73.0,15,30,0.0,0.0
4822,81.0,0,15,4.0,0.0
4823,79.0,15,15,4.0,0.0
4824,71.0,0,30,0.0,0.0
4825,81.0,15,15,4.0,0.0
4826,69.0,15,30,0.0,0.0
4827,59.0,0,60,4.0,0.0
4828,59.0,15,40,2.0,0.0
4829,79.0,15,15,4.0,0.0
4830,81.0,0,15,4.0,0.0
4831,67.0,0,30,0.0,0.0
4832,79.0,0,15,4.0,0.0
4833,81.0,15,15,4.0,0.0
4834,65.0,0,30,0.0,0.0
4835,45.0,15,40,3.0,0.0
4836,57.0,0,40,2.0,0.0
4837,79.0,15,15,4.0,0.0
4838,57.0,30,60,4.0,0.0
4839,81.0,15,15,4.0,0.0
4840,64.0,0,30,0.0,0.0
4841,79.0,0,15,4.0,0.0
4842,81.0,0,15,4.0,0.0
4843,38.0,0,30,3.0,0.0
4844,62.0,15,40,0.0,0.0
4845,77.0,15,30,4.0,0.0
4846,50.0,0,30,4.0,0.0
4847,62.0,0,40,2.0,0.0
4848,52.0,0,30,4.0,0.0
4849,81.0,0,30,4.0,0.0
4850,40.0,30,30,3.0,0.0
4851,69.0,0,120,2.0,0.0
4852,65.0,0,40,1.0,0.0
4853,41.0,15,30,3.0,0.0
4854,53.0,0,60,4.0,0.0
4855,74.0,15,40,0.0,0.0
4856,81.0,0,15,4.0,0.0
4857,69.0,0,40,1.0,0.0
4858,40.0,15,40,3.0,0.0
4859,52.0,30,60,4.0,0.0
4860,79.0,15,30,4.0,0.0
4861,81.0,0,30,4.0,0.0
4862,38.0,0,40,3.0,0.0
4863,74.0,0,40,1.0,0.0
4864,77.0,15,30,4.0,0.0
4865,50.0,30,60,4.0,0.0
4866,74.0,15,40,0.0,0.0
4867,62.0,0,40,2.0,0.0
4868,81.0,0,30,4.0,0.0
4869,45.0,15,30,3.0,0.0
4870,61.0,15,40,2.0,0.0
4871,76.0,0,40,0.0,0.0
4872,76.0,0,30,4.0,0.0
4873,57.0,30,60,4.0,0.0
4874,47.0,0,30,3.0,0.0
4875,81.0,0,30,4.0,0.0
4876,69.0,0,120,2.0,0.0
4877,49.0,0,40,3.0,0.0
4878,45.0,0,60,4.0,0.0
4879,79.0,15,30,4.0,0.0
4880,69.0,0,40,1.0,0.0
4881,79.0,15,40,0.0,0.0
4882,77.0,30,30,4.0,0.0
4883,76.0,15,30,4.0,0.0
4884,76.0,15,40,1.0,0.0
4885,47.0,0,40,3.0,0.0
4886,74.0,30,30,4.0,0.0
4887,61.0,0,60,2.0,0.0
4888,73.0,15,30,4.0,0.0
4889,76.0,0,40,0.0,0.0
4890,79.0,0,40,1.0,0.0
4891,45.0,15,40,3.0,0.0
4892,71.0,30,30,4.0,0.0
4893,50.0,0,30,3.0,0.0
4894,77.0,0,40,0.0,0.0
4895,62.0,15,40,2.0,0.0
4896,38.0,0,30,4.0,0.0
4897,52.0,0,30,3.0,0.0
4898,69.0,15,15,4.0,0.0
4899,40.0,0,30,4.0,0.0
4900,77.0,0,40,1.0,0.0
4901,81.0,0,40,0.0,0.0
4902,69.0,30,15,4.0,0.0
4903,41.0,30,60,4.0,0.0
4904,69.0,0,120,2.0,0.0
4905,53.0,15,40,3.0,0.0
4906,69.0,15,15,4.0,0.0
4907,52.0,15,40,3.0,0.0
4908,67.0,15,30,4.0,0.0
4909,81.0,0,40,1.0,0.0
4910,40.0,0,60,4.0,0.0
4911,69.0,30,30,4.0,0.0
4912,50.0,0,40,3.0,0.0
4913,38.0,30,60,4.0,0.0
4914,86.0,0,40,1.0,0.0
4915,62.0,15,40,2.0,0.0
4916,77.0,0,40,0.0,0.0
4917,65.0,15,30,4.0,0.0
4918,69.0,0,30,4.0,0.0
4919,76.0,0,40,0.0,0.0
4920,57.0,0,30,3.0,0.0
4921,64.0,15,30,4.0,0.0
4922,45.0,0,60,4.0,0.0
4923,61.0,15,40,2.0,0.0
4924,59.0,0,30,3.0,0.0
4925,69.0,30,30,4.0,0.0
4926,33.0,30,60,4.0,0.0
4927,67.0,15,30,4.0,0.0
4928,69.0,0,40,1.0,0.0
4929,69.0,0,120,2.0,0.0
4930,61.0,15,40,3.0,0.0
4931,79.0,0,40,0.0,0.0
4932,65.0,0,30,4.0,0.0
4933,76.0,0,40,1.0,0.0
4934,59.0,15,40,3.0,0.0
4935,64.0,15,30,4.0,0.0
4936,62.0,30,30,4.0,0.0
4937,61.0,15,30,4.0,0.0
4938,76.0,15,40,0.0,0.0
4939,57.0,0,40,3.0,0.0
4940,79.0,0,40,1.0,0.0
4941,61.0,0,40,2.0,0.0
4942,59.0,30,30,4.0,0.0
4943,62.0,0,40,2.0,0.0
4944,62.0,0,120,3.0,0.0
4945,77.0,15,40,0.0,0.0
4946,57.0,15,30,4.0,0.0
4947,50.0,30,30,4.0,0.0
4948,62.0,0,30,4.0,0.0
4949,64.0,15,30,4.0,0.0
4950,49.0,0,30,4.0,0.0
4951,81.0,0,120,1.0,0.0
4952,81.0,0,30,0.0,0.0
4953,62.0,15,40,2.0,0.0
4954,77.0,0,30,0.0,0.0
4955,65.0,0,30,4.0,0.0
4956,50.0,30,30,4.0,0.0
4957,74.0,0,40,0.0,0.0
4958,38.0,30,60,4.0,0.0
4959,67.0,15,30,4.0,0.0
4960,62.0,15,40,2.0,0.0
4961,64.0,0,30,4.0,0.0
4962,65.0,0,30,4.0,0.0
4963,81.0,0,120,0.0,0.0
4964,62.0,15,40,2.0,0.0
4965,81.0,15,30,1.0,0.0
4966,62.0,30,30,4.0,0.0
4967,77.0,0,30,1.0,0.0
4968,74.0,0,40,1.0,0.0
4969,57.0,15,30,4.0,0.0
4970,62.0,15,40,2.0,0.0
4971,62.0,0,30,4.0,0.0
4972,50.0,30,30,4.0,0.0
4973,81.0,15,30,0.0,0.0
4974,64.0,0,30,4.0,0.0
4975,62.0,0,40,2.0,0.0
4976,82.0,15,120,1.0,0.0
4977,62.0,15,40,3.0,0.0
4978,48.0,0,30,4.0,0.0
4979,50.0,0,30,4.0,0.0
4980,65.0,30,30,4.0,0.0
4981,77.0,0,30,0.0,0.0
4982,62.0,0,40,2.0,0.0
4983,74.0,0,40,0.0,0.0
4984,58.0,0,40,3.0,0.0
4985,46.0,15,30,4.0,0.0
4986,67.0,0,30,4.0,0.0
4987,64.0,0,30,4.0,0.0
4988,43.0,30,30,4.0,0.0
4989,62.0,15,40,2.0,0.0
4990,55.0,0,40,3.0,0.0
4991,82.0,15,120,0.0,0.0
4992,45.0,0,30,4.0,0.0
4993,65.0,15,30,4.0,0.0
4994,74.0,0,30,1.0,0.0
4995,70.0,30,30,1.0,0.0
4996,62.0,0,30,4.0,0.0
4997,46.0,0,30,4.0,0.0
4998,60.0,0,120,3.0,0.0
4999,48.0,15,30,4.0,0.0
5000,64.0,0,40,1.0,0.0
5001,64.0,0,30,4.0,0.0
5002,60.0,0,40,2.0,0.0
5003,57.0,0,30,4.0,0.0
5004,69.0,30,30,4.0,0.0
5005,81.0,0,120,1.0,0.0
5006,76.0,15,30,0.0,0.0
5007,56.0,0,30,4.0,0.0
5008,71.0,0,30,4.0,0.0
5009,60.0,15,40,2.0,0.0
5010,57.0,30,30,4.0,0.0
5011,72.0,0,30,4.0,0.0
5012,72.0,0,30,0.0,0.0
5013,45.0,30,60,4.0,0.0
5014,74.0,15,30,4.0,0.0
5015,60.0,0,40,2.0,0.0
5016,69.0,15,40,0.0,0.0
5017,71.0,0,30,4.0,0.0
5018,81.0,15,120,0.0,0.0
5019,76.0,0,30,1.0,0.0
5020,72.0,15,30,4.0,0.0
5021,60.0,15,40,2.0,0.0
5022,72.0,0,30,1.0,0.0
5023,69.0,30,30,4.0,0.0
5024,64.0,15,30,4.0,0.0
5025,69.0,0,40,1.0,0.0
5026,60.0,0,40,2.0,0.0
5027,69.0,0,30,4.0,0.0
5028,57.0,30,30,4.0,0.0
5029,71.0,15,30,4.0,0.0
5030,48.0,15,40,3.0,0.0
5031,76.0,0,30,0.0,0.0
5032,56.0,0,30,4.0,0.0
5033,60.0,0,40,2.0,0.0
5034,81.0,15,120,1.0,0.0
5035,57.0,0,30,4.0,0.0
5036,72.0,0,30,4.0,0.0
5037,72.0,30,30,0.0,0.0
5038,74.0,15,30,4.0,0.0
5039,53.0,0,30,4.0,0.0
5040,69.0,0,40,0.0,0.0
5041,53.0,0,40,3.0,0.0
5042,60.0,0,40,2.0,0.0
5043,71.0,0,30,4.0,0.0
5044,50.0,30,30,4.0,0.0
5045,57.0,15,40,3.0,0.0
5046,72.0,0,30,4.0,0.0
5047,52.0,15,30,4.0,0.0
5048,81.0,0,120,0.0,0.0
5049,76.0,0,30,1.0,0.0
5050,60.0,0,40,2.0,0.0
5051,72.0,0,30,1.0,0.0
5052,53.0,30,30,4.0,0.0
5053,69.0,0,30,4.0,0.0
5054,46.0,0,120,3.0,0.0
5055,58.0,15,40,2.0,0.0
5056,65.0,0,40,1.0,0.0
5057,46.0,0,30,4.0,0.0
5058,62.0,15,15,4.0,0.0
5059,74.0,0,30,4.0,0.0
5060,58.0,15,40,2.0,0.0
5061,81.0,0,30,0.0,0.0
5062,81.0,0,120,1.0,0.0
5063,61.0,15,30,4.0,0.0
5064,76.0,0,30,4.0,0.0
5065,77.0,0,30,0.0,0.0
5066,62.0,0,30,4.0,0.0
5067,77.0,30,30,4.0,0.0
5068,74.0,15,40,0.0,0.0
5069,46.0,30,60,4.0,0.0
5070,79.0,15,30,4.0,0.0
5071,58.0,0,40,2.0,0.0
5072,76.0,0,30,4.0,0.0
5073,81.0,0,30,1.0,0.0
5074,81.0,15,120,0.0,0.0
5075,77.0,15,30,4.0,0.0
5076,58.0,15,40,2.0,0.0
5077,77.0,30,30,1.0,0.0
5078,74.0,0,30,4.0,0.0
5079,62.0,15,30,4.0,0.0
5080,74.0,0,40,1.0,0.0
5081,58.0,0,40,2.0,0.0
5082,62.0,0,30,4.0,0.0
5083,74.0,30,30,4.0,0.0
5084,46.0,0,40,3.0,0.0
5085,61.0,0,30,4.0,0.0
5086,76.0,0,30,4.0,0.0
5087,58.0,15,40,2.0,0.0
5088,81.0,15,30,0.0,0.0
5089,82.0,0,120,1.0,0.0
5090,62.0,30,30,4.0,0.0
5091,77.0,0,30,4.0,0.0
5092,77.0,0,30,0.0,0.0
5093,52.0,0,40,3.0,0.0
5094,58.0,0,40,2.0,0.0
5095,74.0,15,40,0.0,0.0
5096,58.0,0,30,4.0,0.0
5097,79.0,15,30,4.0,0.0
5098,76.0,30,30,4.0,0.0
5099,55.0,0,30,4.0,0.0
5100,77.0,0,30,4.0,0.0
5101,82.0,15,30,1.0,0.0
5102,55.0,15,40,3.0,0.0
5103,58.0,0,40,2.0,0.0
5104,82.0,0,120,0.0,0.0
5105,57.0,0,30,4.0,0.0
5106,58.0,30,30,4.0,0.0
5107,74.0,0,30,4.0,0.0
5108,79.0,0,30,1.0,0.0
5109,45.0,0,30,4.0,0.0
5110,57.0,0,40,2.0,0.0
5111,76.0,15,40,1.0,0.0
5112,73.0,15,30,4.0,0.0
5113,45.0,0,120,3.0,0.0
5114,76.0,0,30,4.0,0.0
5115,64.0,30,30,4.0,0.0
5116,73.0,15,120,1.0,0.0
5117,57.0,15,40,2.0,0.0
5118,77.0,0,30,4.0,0.0
5119,62.0,0,30,4.0,0.0
5120,82.0,15,30,0.0,0.0
5121,64.0,0,30,4.0,0.0
5122,79.0,30,30,4.0,0.0
5123,79.0,0,30,0.0,0.0
5124,81.0,15,30,4.0,0.0
5125,61.0,30,60,4.0,0.0
5126,76.0,0,40,0.0,0.0
5127,57.0,0,40,2.0,0.0
5128,77.0,0,30,4.0,0.0
5129,76.0,15,30,1.0,0.0
5130,79.0,15,120,0.0,0.0
5131,57.0,15,40,2.0,0.0
5132,79.0,0,30,4.0,0.0
5133,76.0,30,30,4.0,0.0
5134,73.0,0,30,1.0,0.0
5135,73.0,15,30,4.0,0.0
5136,69.0,0,40,1.0,0.0
5137,57.0,0,40,2.0,0.0
5138,76.0,0,30,4.0,0.0
5139,64.0,30,30,4.0,0.0
5140,76.0,0,30,0.0,0.0
5141,69.0,0,120,1.0,0.0
5142,52.0,15,40,3.0,0.0
5143,77.0,15,30,4.0,0.0
5144,62.0,0,30,4.0,0.0
5145,57.0,0,40,2.0,0.0
5146,79.0,30,30,4.0,0.0
5147,64.0,0,30,4.0,0.0
5148,73.0,0,30,0.0,0.0
5149,49.0,0,40,3.0,0.0
5150,57.0,0,40,2.0,0.0
5151,81.0,0,30,4.0,0.0
5152,61.0,15,30,4.0,0.0
5153,69.0,15,40,0.0,0.0
5154,77.0,0,30,4.0,0.0
5155,62.0,30,30,4.0,0.0
5156,73.0,0,40,0.0,0.0
5157,64.0,0,30,1.0,0.0
5158,64.0,15,30,4.0,0.0
5159,79.0,0,30,4.0,0.0
5160,45.0,0,40,3.0,0.0
5161,57.0,15,40,2.0,0.0
5162,57.0,0,30,4.0,0.0
5163,61.0,0,30,1.0,0.0
5164,76.0,30,30,4.0,0.0
5165,62.0,0,30,1.0,0.0
5166,77.0,0,60,0.0,0.0
5167,50.0,15,40,3.0,0.0
5168,57.0,15,120,2.0,0.0
5169,62.0,0,60,4.0,0.0
5170,77.0,15,30,4.0,0.0
5171,74.0,30,30,4.0,0.0
5172,64.0,0,30,1.0,0.0
5173,65.0,0,30,1.0,0.0
5174,50.0,0,40,3.0,0.0
5175,77.0,15,30,4.0,0.0
5176,81.0,0,30,4.0,0.0
5177,86.0,15,30,4.0,0.0
5178,50.0,30,15,4.0,0.0
5179,50.0,0,40,3.0,0.0
5180,81.0,0,60,0.0,0.0
5181,62.0,15,120,2.0,0.0
5182,64.0,15,40,1.0,0.0
5183,74.0,30,30,4.0,0.0
5184,77.0,15,30,4.0,0.0
5185,62.0,0,60,4.0,0.0
5186,62.0,0,40,1.0,0.0
5187,50.0,0,40,3.0,0.0
5188,81.0,30,30,4.0,0.0
5189,86.0,15,30,4.0,0.0
5190,69.0,0,40,1.0,0.0
5191,60.0,0,60,4.0,0.0
5192,78.0,0,60,0.0,0.0
5193,48.0,15,40,3.0,0.0
5194,74.0,30,30,4.0,0.0
5195,48.0,15,40,3.0,0.0
5196,48.0,30,60,4.0,0.0
5197,74.0,15,120,1.0,0.0
5198,78.0,15,30,4.0,0.0
5199,81.0,0,30,4.0,0.0
5200,48.0,0,40,3.0,0.0
5201,60.0,0,120,2.0,0.0
5202,74.0,30,60,0.0,0.0
5203,86.0,15,30,4.0,0.0
5204,48.0,0,60,4.0,0.0
5205,74.0,0,30,4.0,0.0
5206,78.0,15,30,4.0,0.0
5207,48.0,15,40,3.0,0.0
5208,66.0,0,40,1.0,0.0
5209,60.0,0,60,4.0,0.0
5210,81.0,30,30,4.0,0.0
5211,46.0,15,40,3.0,0.0
5212,67.0,0,60,1.0,0.0
5213,86.0,15,30,4.0,0.0
5214,58.0,0,60,4.0,0.0
5215,67.0,0,30,0.0,0.0
5216,69.0,30,30,0.0,0.0
5217,74.0,0,30,4.0,0.0
5218,70.0,0,30,0.0,0.0
5219,46.0,30,60,4.0,0.0
5220,79.0,15,30,4.0,0.0
5221,46.0,15,40,3.0,0.0
5222,82.0,0,30,4.0,0.0
5223,58.0,30,120,2.0,0.0
5224,70.0,0,60,1.0,0.0
5225,86.0,15,30,4.0,0.0
5226,46.0,0,40,3.0,0.0
5227,46.0,0,60,4.0,0.0
5228,69.0,15,40,0.0,0.0
5229,74.0,30,30,4.0,0.0
5230,67.0,15,40,0.0,0.0
5231,46.0,0,40,3.0,0.0
5232,79.0,15,30,4.0,0.0
5233,58.0,0,60,4.0,0.0
5234,82.0,0,30,4.0,0.0
5235,67.0,30,60,1.0,0.0
5236,47.0,15,40,3.0,0.0
5237,59.0,0,60,4.0,0.0
5238,86.0,15,30,4.0,0.0
5239,74.0,0,40,0.0,0.0
5240,74.0,0,30,4.0,0.0
5241,77.0,15,30,4.0,0.0
5242,47.0,15,40,3.0,0.0
5243,79.0,15,120,0.0,0.0
5244,83.0,0,30,4.0,0.0
5245,47.0,30,15,4.0,0.0
5246,59.0,0,120,2.0,0.0
5247,86.0,15,30,4.0,0.0
5248,47.0,0,40,3.0,0.0
5249,62.0,0,60,1.0,0.0
5250,83.0,0,30,4.0,0.0
5251,74.0,15,40,0.0,0.0
5252,77.0,15,30,4.0,0.0
5253,59.0,30,60,4.0,0.0
5254,47.0,0,40,3.0,0.0
5255,74.0,0,30,4.0,0.0
5256,48.0,15,40,3.0,0.0
5257,67.0,30,60,0.0,0.0
5258,60.0,0,60,4.0,0.0
5259,75.0,0,30,4.0,0.0
5260,60.0,15,30,1.0,0.0
5261,72.0,0,30,4.0,0.0
5262,62.0,0,30,1.0,0.0
5263,75.0,15,30,4.0,0.0
5264,48.0,30,60,4.0,0.0
5265,48.0,15,40,3.0,0.0
5266,63.0,0,30,1.0,0.0
5267,79.0,0,30,4.0,0.0
5268,62.0,0,40,1.0,0.0
5269,60.0,0,120,2.0,0.0
5270,84.0,15,30,4.0,0.0
5271,79.0,30,60,0.0,0.0
5272,48.0,15,40,3.0,0.0
5273,48.0,0,60,4.0,0.0
5274,72.0,0,30,4.0,0.0
5275,60.0,0,60,4.0,0.0
5276,48.0,0,40,3.0,0.0
5277,60.0,15,40,1.0,0.0
5278,75.0,15,30,4.0,0.0
5279,79.0,30,30,4.0,0.0
5280,76.0,0,60,0.0,0.0
5281,46.0,15,40,3.0,0.0
5282,58.0,0,60,4.0,0.0
5283,84.0,15,30,4.0,0.0
5284,67.0,0,40,1.0,0.0
5285,72.0,30,30,4.0,0.0
5286,72.0,0,120,1.0,0.0
5287,76.0,15,30,4.0,0.0
5288,46.0,30,60,4.0,0.0
5289,46.0,15,40,3.0,0.0
5290,79.0,0,30,4.0,0.0
5291,72.0,0,60,0.0,0.0
5292,46.0,15,40,3.0,0.0
5293,46.0,0,60,4.0,0.0
5294,84.0,15,30,4.0,0.0
5295,58.0,0,120,2.0,0.0
5296,72.0,30,30,4.0,0.0
5297,58.0,0,60,4.0,0.0
5298,76.0,15,30,4.0,0.0
5299,64.0,0,40,1.0,0.0
5300,46.0,15,40,3.0,0.0
5301,79.0,30,30,4.0,0.0
5302,57.0,0,60,4.0,0.0
5303,45.0,15,40,3.0,0.0
5304,84.0,0,30,4.0,0.0
5305,65.0,15,30,0.0,0.0
5306,65.0,0,60,1.0,0.0
5307,72.0,0,30,4.0,0.0
5308,67.0,30,30,0.0,0.0
5309,69.0,0,30,0.0,0.0
5310,45.0,15,40,3.0,0.0
5311,45.0,0,60,4.0,0.0
5312,77.0,15,30,4.0,0.0
5313,81.0,30,30,4.0,0.0
5314,45.0,15,40,3.0,0.0
5315,84.0,15,30,4.0,0.0
5316,57.0,0,120,2.0,0.0
5317,69.0,30,60,1.0,0.0
5318,67.0,0,40,0.0,0.0
5319,45.0,0,60,4.0,0.0
5320,72.0,0,30,4.0,0.0
5321,65.0,0,40,0.0,0.0
5322,77.0,15,30,4.0,0.0
5323,45.0,15,40,3.0,0.0
5324,57.0,30,60,4.0,0.0
5325,81.0,0,30,4.0,0.0
5326,72.0,0,40,0.0,0.0
5327,45.0,15,40,3.0,0.0
5328,84.0,15,30,4.0,0.0
5329,65.0,30,60,1.0,0.0
5330,57.0,0,60,4.0,0.0
5331,72.0,0,30,4.0,0.0
5332,75.0,15,30,4.0,0.0
5333,77.0,15,120,0.0,0.0
5334,45.0,15,40,3.0,0.0
5335,81.0,30,30,4.0,0.0
5336,84.0,15,30,4.0,0.0
5337,57.0,30,120,2.0,0.0
5338,60.0,30,60,1.0,0.0
5339,45.0,0,40,3.0,0.0
5340,45.0,0,15,4.0,0.0
5341,81.0,0,30,4.0,0.0
5342,72.0,0,40,0.0,0.0
5343,57.0,0,60,4.0,0.0
5344,75.0,15,30,4.0,0.0
5345,45.0,15,40,3.0,0.0
5346,72.0,0,30,4.0,0.0
5347,58.0,30,60,4.0,0.0
5348,74.0,15,30,4.0,0.0
5349,58.0,0,30,1.0,0.0
5350,65.0,0,60,0.0,0.0
5351,46.0,15,40,3.0,0.0
5352,60.0,0,30,1.0,0.0
5353,70.0,0,30,4.0,0.0
5354,62.0,15,30,1.0,0.0
5355,46.0,15,40,3.0,0.0
5356,74.0,0,30,4.0,0.0
5357,77.0,0,30,4.0,0.0
5358,77.0,0,60,0.0,0.0
5359,58.0,0,120,2.0,0.0
5360,46.0,0,40,3.0,0.0
5361,46.0,30,15,4.0,0.0
5362,60.0,15,40,1.0,0.0
5363,82.0,15,30,4.0,0.0
5364,70.0,30,30,4.0,0.0
5365,74.0,15,30,4.0,0.0
5366,46.0,15,40,3.0,0.0
5367,58.0,0,40,1.0,0.0
5368,58.0,0,60,4.0,0.0
5369,77.0,30,30,4.0,0.0
5370,74.0,0,60,0.0,0.0
5371,44.0,0,40,3.0,0.0
5372,56.0,0,60,4.0,0.0
5373,82.0,15,30,4.0,0.0
5374,65.0,15,40,1.0,0.0
5375,70.0,30,30,4.0,0.0
5376,74.0,15,30,4.0,0.0
5377,44.0,15,40,3.0,0.0
5378,70.0,15,120,1.0,0.0
5379,77.0,30,30,4.0,0.0
5380,56.0,0,120,2.0,0.0
5381,70.0,0,60,0.0,0.0
5382,82.0,15,30,4.0,0.0
5383,44.0,0,15,4.0,0.0
5384,44.0,0,40,3.0,0.0
5385,70.0,0,30,4.0,0.0
5386,44.0,0,40,3.0,0.0
5387,62.0,15,40,1.0,0.0
5388,56.0,30,60,4.0,0.0
5389,74.0,15,30,4.0,0.0
5390,77.0,0,30,4.0,0.0
5391,43.0,15,40,3.0,0.0
5392,63.0,0,60,1.0,0.0
5393,55.0,30,60,4.0,0.0
5394,63.0,0,30,0.0,0.0
5395,82.0,15,30,4.0,0.0
5396,65.0,0,30,0.0,0.0
5397,70.0,0,30,4.0,0.0
5398,43.0,15,40,3.0,0.0
5399,43.0,0,60,4.0,0.0
5400,75.0,15,30,4.0,0.0
5401,67.0,0,30,0.0,0.0
5402,79.0,30,30,4.0,0.0
5403,43.0,0,60,4.0,0.0
5404,82.0,15,30,4.0,0.0
5405,43.0,0,40,3.0,0.0
5406,65.0,15,40,0.0,0.0
5407,55.0,0,120,2.0,0.0
5408,67.0,0,60,1.0,0.0
5409,70.0,30,30,4.0,0.0
5410,43.0,15,40,3.0,0.0
5411,63.0,0,40,0.0,0.0
5412,75.0,15,30,4.0,0.0
5413,79.0,0,30,4.0,0.0
5414,70.0,15,40,0.0,0.0
5415,43.0,0,40,3.0,0.0
5416,63.0,0,60,1.0,0.0
5417,55.0,30,15,4.0,0.0
5418,82.0,15,30,4.0,0.0
5419,70.0,0,30,4.0,0.0
5420,75.0,15,30,4.0,0.0
5421,75.0,0,120,0.0,0.0
5422,43.0,15,40,3.0,0.0
5423,79.0,0,30,4.0,0.0
5424,82.0,15,30,4.0,0.0
5425,67.0,0,60,1.0,0.0
5426,43.0,15,40,3.0,0.0
5427,55.0,30,120,2.0,0.0
5428,43.0,30,15,4.0,0.0
5429,79.0,0,30,4.0,0.0
5430,55.0,0,60,4.0,0.0
5431,43.0,15,40,3.0,0.0
5432,75.0,15,30,4.0,0.0
5433,70.0,0,40,0.0,0.0
5434,79.0,0,30,4.0,0.0
5435,55.0,15,30,4.0,0.0
5436,73.0,0,30,4.0,0.0
5437,69.0,0,40,0.0,0.0
5438,43.0,0,120,3.0,0.0
5439,64.0,0,60,1.0,0.0
5440,57.0,15,40,2.0,0.0
5441,67.0,30,30,4.0,0.0
5442,69.0,0,30,4.0,0.0
5443,64.0,0,30,4.0,0.0
5444,69.0,15,40,0.0,0.0
5445,76.0,0,120,2.0,0.0
5446,73.0,15,30,4.0,0.0
5447,61.0,30,30,4.0,0.0
5448,76.0,0,30,4.0,0.0
5449,73.0,15,40,0.0,0.0
5450,57.0,15,30,4.0,0.0
5451,81.0,0,30,4.0,0.0
5452,64.0,0,60,1.0,0.0
5453,64.0,30,30,4.0,0.0
5454,69.0,0,30,4.0,0.0
5455,73.0,15,40,0.0,0.0
5456,61.0,0,30,4.0,0.0
5457,73.0,15,30,4.0,0.0
5458,69.0,15,120,2.0,0.0
5459,57.0,0,30,4.0,0.0
5460,76.0,30,30,4.0,0.0
5461,65.0,0,60,1.0,0.0
5462,53.0,0,60,4.0,0.0
5463,81.0,15,30,4.0,0.0
5464,74.0,0,40,0.0,0.0
5465,41.0,30,120,3.0,0.0
5466,69.0,30,30,4.0,0.0
5467,65.0,15,120,2.0,0.0
5468,74.0,15,30,4.0,0.0
5469,74.0,15,40,0.0,0.0
5470,62.0,0,60,4.0,0.0
5471,77.0,0,30,4.0,0.0
5472,77.0,0,40,0.0,0.0
5473,69.0,30,60,1.0,0.0
5474,81.0,15,30,4.0,0.0
5475,77.0,0,30,4.0,0.0
5476,74.0,15,30,4.0,0.0
5477,62.0,0,120,2.0,0.0
5478,77.0,15,40,0.0,0.0
5479,77.0,30,30,4.0,0.0
5480,67.0,15,40,0.0,0.0
5481,71.0,15,30,4.0,0.0
5482,71.0,0,60,1.0,0.0
5483,41.0,0,120,3.0,0.0
5484,65.0,30,30,4.0,0.0
5485,67.0,0,30,4.0,0.0
5486,71.0,15,30,4.0,0.0
5487,62.0,0,30,4.0,0.0
5488,74.0,0,120,2.0,0.0
5489,67.0,15,40,0.0,0.0
5490,74.0,0,30,4.0,0.0
5491,59.0,30,30,4.0,0.0
5492,71.0,15,40,0.0,0.0
5493,62.0,0,60,1.0,0.0
5494,55.0,0,30,4.0,0.0
5495,79.0,15,30,4.0,0.0
5496,67.0,30,30,4.0,0.0
5497,62.0,0,30,4.0,0.0
5498,59.0,0,30,4.0,0.0
5499,71.0,15,30,4.0,0.0
5500,71.0,15,40,0.0,0.0
5501,67.0,0,120,2.0,0.0
5502,55.0,30,30,4.0,0.0
5503,74.0,0,30,4.0,0.0
5504,63.0,30,60,1.0,0.0
5505,39.0,30,120,3.0,0.0
5506,72.0,15,40,0.0,0.0
5507,51.0,0,60,4.0,0.0
5508,79.0,15,30,4.0,0.0
5509,67.0,0,30,4.0,0.0
5510,72.0,15,40,0.0,0.0
5511,63.0,15,120,2.0,0.0
5512,72.0,15,30,4.0,0.0
5513,63.0,0,60,4.0,0.0
5514,75.0,0,30,4.0,0.0
5515,79.0,15,30,4.0,0.0
5516,67.0,0,60,1.0,0.0
5517,75.0,0,40,0.0,0.0
5518,75.0,30,30,4.0,0.0
5519,75.0,15,40,0.0,0.0
5520,60.0,0,120,2.0,0.0
5521,72.0,15,30,4.0,0.0
5522,75.0,30,30,4.0,0.0
5523,65.0,15,40,0.0,0.0
5524,69.0,30,60,1.0,0.0
5525,69.0,15,30,4.0,0.0
5526,39.0,30,120,3.0,0.0
5527,65.0,0,30,4.0,0.0
5528,63.0,0,30,4.0,0.0
5529,60.0,15,30,4.0,0.0
5530,65.0,15,40,0.0,0.0
5531,69.0,0,30,4.0,0.0
5532,72.0,0,120,2.0,0.0
5533,72.0,0,30,4.0,0.0
5534,57.0,0,30,4.0,0.0
5535,53.0,15,30,4.0,0.0
5536,77.0,0,30,4.0,0.0
5537,60.0,0,60,1.0,0.0
5538,69.0,15,40,0.0,0.0
5539,65.0,0,30,4.0,0.0
5540,60.0,30,30,4.0,0.0
5541,69.0,0,30,4.0,0.0
5542,69.0,15,40,0.0,0.0
5543,65.0,0,120,2.0,0.0
5544,57.0,15,30,4.0,0.0
5545,53.0,30,30,4.0,0.0
5546,72.0,0,30,4.0,0.0
5547,77.0,15,30,4.0,0.0
5548,70.0,15,40,0.0,0.0
5549,62.0,0,60,1.0,0.0
5550,50.0,30,60,4.0,0.0
5551,38.0,30,120,3.0,0.0
5552,65.0,0,30,4.0,0.0
5553,70.0,15,40,0.0,0.0
5554,62.0,0,120,2.0,0.0
5555,62.0,0,60,4.0,0.0
5556,70.0,15,30,4.0,0.0
5557,74.0,0,30,4.0,0.0
5558,50.0,30,240,3.0,0.0
5559,65.0,30,60,1.0,0.0
5560,74.0,15,40,0.0,0.0
5561,77.0,15,30,4.0,0.0
5562,62.0,0,30,4.0,0.0
5563,74.0,0,30,4.0,0.0
5564,65.0,15,30,4.0,0.0
5565,70.0,0,30,4.0,0.0
5566,74.0,15,40,0.0,0.0
5567,58.0,15,120,2.0,0.0
5568,62.0,0,30,4.0,0.0
5569,74.0,30,30,4.0,0.0
5570,67.0,0,60,1.0,0.0
5571,67.0,15,30,4.0,0.0
5572,75.0,0,240,0.0,0.0
5573,50.0,0,30,4.0,0.0
5574,55.0,30,30,4.0,0.0
5575,63.0,0,30,4.0,0.0
5576,63.0,15,120,2.0,0.0
5577,67.0,0,30,4.0,0.0
5578,58.0,30,30,4.0,0.0
5579,62.0,0,30,4.0,0.0
5580,70.0,0,30,4.0,0.0
5581,48.0,15,30,4.0,0.0
5582,75.0,0,30,4.0,0.0
5583,69.0,0,60,1.0,0.0
5584,48.0,30,240,3.0,0.0
5585,60.0,30,30,4.0,0.0
5586,72.0,0,30,4.0,0.0
5587,63.0,15,30,4.0,0.0
5588,69.0,0,30,4.0,0.0
5589,60.0,15,40,2.0,0.0
5590,60.0,30,30,4.0,0.0
5591,72.0,0,30,4.0,0.0
5592,69.0,30,60,1.0,0.0
5593,48.0,0,30,4.0,0.0
5594,65.0,15,30,4.0,0.0
5595,74.0,30,240,0.0,0.0
5596,57.0,15,40,2.0,0.0
5597,53.0,0,30,4.0,0.0
5598,62.0,0,30,4.0,0.0
5599,57.0,30,30,4.0,0.0
5600,65.0,0,30,4.0,0.0
5601,62.0,15,120,2.0,0.0
5602,60.0,0,30,4.0,0.0
5603,69.0,0,30,4.0,0.0
5604,46.0,0,30,4.0,0.0
5605,74.0,15,30,4.0,0.0
5606,46.0,0,240,3.0,0.0
5607,67.0,0,60,1.0,0.0
5608,70.0,0,30,4.0,0.0
5609,58.0,30,30,4.0,0.0
5610,58.0,15,40,2.0,0.0
5611,62.0,0,30,4.0,0.0
5612,67.0,15,30,4.0,0.0
5613,70.0,0,30,4.0,0.0
5614,58.0,0,30,4.0,0.0
5615,72.0,0,240,0.0,0.0
5616,63.0,0,30,4.0,0.0
5617,67.0,0,60,1.0,0.0
5618,55.0,15,40,2.0,0.0
5619,46.0,15,30,4.0,0.0
5620,51.0,30,30,4.0,0.0
5621,60.0,0,30,4.0,0.0
5622,55.0,0,30,4.0,0.0
5623,60.0,15,120,2.0,0.0
5624,63.0,30,30,4.0,0.0
5625,58.0,30,30,4.0,0.0
5626,67.0,0,30,4.0,0.0
5627,45.0,0,30,4.0,0.0
5628,45.0,0,120,3.0,0.0
5629,72.0,15,30,4.0,0.0
5630,65.0,30,60,1.0,0.0
5631,69.0,0,30,4.0,0.0
5632,57.0,0,30,4.0,0.0
5633,57.0,15,40,2.0,0.0
5634,65.0,15,30,4.0,0.0
5635,60.0,0,30,4.0,0.0
5636,69.0,0,30,4.0,0.0
5637,57.0,30,30,4.0,0.0
5638,70.0,0,120,1.0,0.0
5639,70.0,0,120,0.0,0.0
5640,53.0,15,120,2.0,0.0
5641,62.0,0,30,4.0,0.0
5642,46.0,0,120,3.0,0.0
5643,46.0,30,30,4.0,0.0
5644,58.0,0,30,4.0,0.0
5645,50.0,30,30,4.0,0.0
5646,51.0,0,30,4.0,0.0
5647,60.0,15,30,4.0,0.0
5648,53.0,30,30,4.0,0.0
5649,62.0,0,30,4.0,0.0
5650,55.0,30,30,4.0,0.0
5651,63.0,0,30,4.0,0.0
5652,57.0,30,30,4.0,0.0
5653,65.0,0,30,4.0,0.0
5654,45.0,15,40,3.0,0.0
5655,72.0,0,40,1.0,0.0
5656,72.0,0,40,0.0,0.0
5657,67.0,0,30,4.0,0.0
5658,58.0,15,30,4.0,0.0
5659,60.0,0,40,2.0,0.0
5660,57.0,30,30,4.0,0.0
5661,69.0,0,30,4.0,0.0
5662,67.0,0,120,2.0,0.0
5663,55.0,30,30,4.0,0.0
5664,74.0,0,30,0.0,0.0
5665,70.0,0,30,4.0,0.0
5666,62.0,0,30,1.0,0.0
5667,43.0,0,120,3.0,0.0
5668,65.0,30,30,0.0,0.0
5669,65.0,0,30,1.0,0.0
5670,57.0,0,30,4.0,0.0
5671,65.0,0,30,4.0,0.0
5672,67.0,30,30,0.0,0.0
5673,58.0,0,30,4.0,0.0
5674,67.0,0,30,4.0,0.0
5675,67.0,0,30,1.0,0.0
5676,69.0,0,30,0.0,0.0
5677,60.0,0,30,4.0,0.0
5678,69.0,0,30,4.0,0.0
5679,69.0,30,30,1.0,0.0
5680,70.0,0,30,1.0,0.0
5681,62.0,0,30,4.0,0.0
5682,70.0,0,30,4.0,0.0
5683,70.0,30,30,0.0,0.0
5684,63.0,0,30,4.0,0.0
5685,72.0,0,30,1.0,0.0
5686,72.0,30,30,0.0,0.0
5687,72.0,0,30,4.0,0.0
5688,58.0,0,30,2.0,0.0
5689,74.0,0,30,1.0,0.0
5690,74.0,0,30,4.0,0.0
5691,65.0,0,30,4.0,0.0
5692,74.0,0,30,0.0,0.0
5693,41.0,30,30,3.0,0.0
5694,63.0,0,30,4.0,0.0
5695,75.0,0,30,4.0,0.0
5696,75.0,0,30,0.0,0.0
5697,60.0,0,30,2.0,0.0
5698,75.0,0,30,1.0,0.0
5699,39.0,45,30,3.0,0.0
5700,77.0,0,40,1.0,0.0
5701,77.0,0,60,4.0,0.0
5702,62.0,15,40,2.0,0.0
5703,77.0,0,40,0.0,0.0
5704,38.0,0,40,3.0,0.0
5705,67.0,0,40,2.0,0.0
5706,70.0,15,40,1.0,0.0
5707,39.0,0,40,3.0,0.0
5708,55.0,0,60,4.0,0.0
5709,51.0,0,60,4.0,0.0
5710,70.0,0,40,0.0,0.0
5711,70.0,45,60,4.0,0.0
5712,62.0,45,15,4.0,0.0
5713,65.0,0,40,2.0,0.0
5714,53.0,0,60,4.0,0.0
5715,65.0,45,60,4.0,0.0
5716,57.0,0,60,4.0,0.0
5717,60.0,0,60,4.0,0.0
5718,65.0,0,40,0.0,0.0
5719,41.0,0,40,3.0,0.0
5720,65.0,15,40,1.0,0.0
5721,41.0,15,40,3.0,0.0
5722,69.0,0,60,4.0,0.0
5723,41.0,30,60,4.0,0.0
5724,63.0,0,40,2.0,0.0
5725,69.0,0,40,0.0,0.0
5726,69.0,0,40,1.0,0.0
5727,70.0,0,120,0.0,0.0
5728,70.0,0,120,1.0,0.0
5729,46.0,0,30,3.0,0.0
5730,62.0,30,30,2.0,0.0
5731,46.0,0,30,4.0,0.0
5732,62.0,0,120,4.0,0.0
5733,48.0,30,30,3.0,0.0
5734,63.0,0,30,2.0,0.0
5735,48.0,0,30,4.0,0.0
5736,50.0,45,60,4.0,0.0
5737,65.0,30,30,2.0,0.0
5738,50.0,0,30,3.0,0.0
5739,48.0,15,40,3.0,0.0
5740,48.0,45,60,4.0,0.0
5741,63.0,0,40,2.0,0.0
5742,46.0,0,40,3.0,0.0
5743,62.0,0,40,1.0,0.0
5744,65.0,45,60,4.0,0.0
5745,62.0,0,60,4.0,0.0
5746,46.0,0,60,4.0,0.0
5747,62.0,15,40,2.0,0.0
5748,65.0,0,40,0.0,0.0
5749,63.0,0,60,1.0,0.0
5750,70.0,15,40,2.0,0.0
5751,51.0,0,60,3.0,0.0
5752,63.0,0,60,4.0,0.0
5753,51.0,0,60,4.0,0.0
5754,67.0,0,60,0.0,0.0
5755,67.0,45,60,4.0,0.0
5756,58.0,0,40,2.0,0.0
5757,65.0,0,40,0.0,0.0
5758,62.0,0,60,4.0,0.0
5759,58.0,45,120,4.0,0.0
5760,58.0,0,120,3.0,0.0
5761,62.0,15,40,1.0,0.0
5762,62.0,15,40,2.0,0.0
5763,65.0,45,15,4.0,0.0
5764,68.0,0,60,4.0,0.0
5765,68.0,0,60,0.0,0.0
5766,65.0,0,60,1.0,0.0
5767,63.0,0,40,2.0,0.0
5768,63.0,0,40,1.0,0.0
5769,51.0,0,60,4.0,0.0
5770,63.0,30,60,4.0,0.0
5771,67.0,0,60,4.0,0.0
5772,67.0,0,40,0.0,0.0
5773,51.0,15,40,3.0,0.0
5774,65.0,0,120,4.0,0.0
5775,62.0,0,30,1.0,0.0
5776,46.0,30,30,3.0,0.0
5777,65.0,0,120,2.0,0.0
5778,65.0,0,120,0.0,0.0
5779,62.0,0,120,4.0,0.0
5780,46.0,0,30,4.0,0.0
5781,63.0,0,30,1.0,0.0
5782,48.0,0,30,4.0,0.0
5783,48.0,30,30,3.0,0.0
5784,65.0,30,30,1.0,0.0
5785,50.0,45,60,4.0,0.0
5786,50.0,0,30,3.0,0.0
5787,48.0,15,40,3.0,0.0
5788,63.0,0,40,1.0,0.0
5789,48.0,45,60,4.0,0.0
5790,62.0,0,40,1.0,0.0
5791,62.0,0,60,4.0,0.0
5792,53.0,45,60,4.0,0.0
5793,46.0,0,60,4.0,0.0
5794,46.0,15,40,3.0,0.0
5795,53.0,0,40,2.0,0.0
5796,62.0,0,40,0.0,0.0
5797,51.0,45,60,4.0,0.0
5798,55.0,0,60,4.0,0.0
5799,63.0,0,60,4.0,0.0
5800,51.0,0,40,3.0,0.0
5801,55.0,0,60,2.0,0.0
5802,70.0,15,40,1.0,0.0
5803,63.0,0,60,0.0,0.0
5804,58.0,0,40,1.0,0.0
5805,58.0,15,120,3.0,0.0
5806,62.0,45,60,4.0,0.0
5807,53.0,0,40,2.0,0.0
5808,53.0,0,60,4.0,0.0
5809,62.0,15,40,0.0,0.0
5810,46.0,0,120,4.0,0.0
5811,56.0,0,60,2.0,0.0
5812,65.0,0,60,0.0,0.0
5813,65.0,45,60,4.0,0.0
5814,56.0,0,60,4.0,0.0
5815,62.0,0,40,1.0,0.0
5816,55.0,0,40,2.0,0.0
5817,51.0,0,40,3.0,0.0
5818,55.0,0,60,4.0,0.0
5819,63.0,0,60,4.0,0.0
5820,63.0,15,40,0.0,0.0
5821,65.0,0,40,1.0,0.0
5822,39.0,30,60,4.0,0.0
5823,65.0,0,120,1.0,0.0
5824,46.0,0,120,3.0,0.0
5825,58.0,30,30,4.0,0.0
5826,62.0,0,30,4.0,0.0
5827,62.0,30,120,0.0,0.0
5828,53.0,30,60,4.0,0.0
5829,53.0,0,120,2.0,0.0
5830,45.0,0,30,4.0,0.0
5831,46.0,0,15,4.0,0.0
5832,48.0,0,30,4.0,0.0
5833,50.0,30,30,4.0,0.0
5834,51.0,30,30,4.0,0.0
5835,53.0,30,30,4.0,0.0
5836,55.0,30,30,4.0,0.0
5837,56.0,30,30,4.0,0.0
5838,59.0,30,30,4.0,0.0
5839,67.0,0,40,1.0,0.0
5840,43.0,0,40,3.0,0.0
5841,43.0,0,60,4.0,0.0
5842,71.0,0,40,0.0,0.0
5843,60.0,15,30,4.0,0.0
5844,62.0,15,40,2.0,0.0
5845,62.0,0,30,4.0,0.0
5846,31.0,30,15,4.0,0.0
5847,67.0,15,40,1.0,0.0
5848,71.0,0,40,0.0,0.0
5849,60.0,15,30,4.0,0.0
5850,43.0,0,60,4.0,0.0
5851,43.0,0,40,3.0,0.0
5852,62.0,0,40,2.0,0.0
5853,59.0,30,30,4.0,0.0
5854,62.0,0,40,2.0,0.0
5855,67.0,0,40,1.0,0.0
5856,31.0,0,60,4.0,0.0
5857,71.0,0,40,0.0,0.0
5858,43.0,15,40,3.0,0.0
5859,43.0,0,60,4.0,0.0
5860,57.0,15,30,4.0,0.0
5861,55.0,30,30,4.0,0.0
5862,60.0,0,120,2.0,0.0
5863,63.0,30,30,4.0,0.0
5864,48.0,0,120,4.0,0.0
5865,36.0,0,120,4.0,0.0
5866,72.0,30,120,0.0,0.0
5867,48.0,0,120,3.0,0.0
5868,67.0,0,120,1.0,0.0
5869,60.0,30,30,4.0,0.0
5870,59.0,30,30,4.0,0.0
5871,60.0,0,30,4.0,0.0
5872,55.0,30,30,4.0,0.0
5873,60.0,30,30,4.0,0.0
5874,51.0,30,30,4.0,0.0
5875,55.0,30,30,4.0,0.0
5876,48.0,30,30,4.0,0.0
5877,47.0,30,30,4.0,0.0
5878,48.0,30,30,4.0,0.0
5879,50.0,30,30,4.0,0.0
5880,51.0,30,30,4.0,0.0
5881,53.0,30,30,4.0,0.0
5882,55.0,30,30,4.0,0.0
5883,57.0,30,30,4.0,0.0
5884,58.0,30,30,4.0,0.0
5885,61.0,30,30,4.0,0.0
5886,45.0,0,40,3.0,0.0
5887,62.0,15,30,4.0,0.0
5888,64.0,15,40,2.0,0.0
5889,73.0,0,40,0.0,0.0
5890,33.0,0,60,4.0,0.0
5891,69.0,0,40,1.0,0.0
5892,64.0,0,30,4.0,0.0
5893,33.0,0,60,4.0,0.0
5894,45.0,30,15,4.0,0.0
5895,62.0,15,30,4.0,0.0
5896,64.0,15,40,2.0,0.0
5897,69.0,0,40,1.0,0.0
5898,45.0,0,40,3.0,0.0
5899,73.0,0,40,0.0,0.0
5900,61.0,30,30,4.0,0.0
5901,73.0,0,40,0.0,0.0
5902,64.0,0,40,2.0,0.0
5903,59.0,15,30,4.0,0.0
5904,45.0,0,15,4.0,0.0
5905,33.0,0,60,4.0,0.0
5906,69.0,15,40,1.0,0.0
5907,45.0,0,40,3.0,0.0
5908,57.0,0,30,4.0,0.0
5909,74.0,0,120,0.0,0.0
5910,50.0,30,120,3.0,0.0
5911,69.0,0,120,1.0,0.0
5912,62.0,0,120,2.0,0.0
5913,38.0,0,120,4.0,0.0
5914,50.0,0,120,4.0,0.0
5915,65.0,30,30,4.0,0.0
5916,62.0,30,30,4.0,0.0
5917,61.0,30,30,4.0,0.0
5918,62.0,0,30,4.0,0.0
5919,57.0,30,30,4.0,0.0
5920,62.0,30,30,4.0,0.0
5921,53.0,30,30,4.0,0.0
5922,57.0,30,30,4.0,0.0
5923,50.0,30,30,4.0,0.0
5924,52.0,30,30,4.0,0.0
5925,53.0,30,30,4.0,0.0
5926,55.0,30,30,4.0,0.0
5927,57.0,30,30,4.0,0.0
5928,58.0,30,30,4.0,0.0
5929,60.0,30,30,4.0,0.0
5930,62.0,30,30,4.0,0.0
5931,63.0,30,30,4.0,0.0
5932,66.0,30,30,4.0,0.0
5933,69.0,0,40,2.0,0.0
5934,78.0,0,40,0.0,0.0
5935,50.0,15,40,3.0,0.0
5936,74.0,0,40,1.0,0.0
5937,67.0,15,30,4.0,0.0
5938,69.0,0,30,4.0,0.0
5939,67.0,15,30,4.0,0.0
5940,50.0,30,15,4.0,0.0
5941,38.0,0,15,4.0,0.0
5942,50.0,0,40,3.0,0.0
5943,74.0,0,40,1.0,0.0
5944,69.0,0,40,2.0,0.0
5945,78.0,15,40,0.0,0.0
5946,66.0,30,30,4.0,0.0
5947,64.0,15,30,4.0,0.0
5948,50.0,0,15,4.0,0.0
5949,38.0,0,15,4.0,0.0
5950,69.0,0,40,2.0,0.0
5951,50.0,0,40,3.0,0.0
5952,74.0,15,40,1.0,0.0
5953,78.0,0,40,0.0,0.0
5954,62.0,0,30,4.0,0.0
5955,79.0,0,120,0.0,0.0
5956,55.0,15,30,4.0,0.0
5957,55.0,30,120,3.0,0.0
5958,70.0,0,30,4.0,0.0
5959,43.0,0,30,4.0,0.0
5960,74.0,15,40,1.0,0.0
5961,67.0,0,120,2.0,0.0
5962,67.0,30,30,4.0,0.0
5963,58.0,0,30,4.0,0.0
5964,69.0,0,30,4.0,0.0
5965,60.0,15,30,4.0,0.0
5966,70.0,15,40,1.0,0.0
5967,62.0,0,30,4.0,0.0
5968,70.0,0,30,4.0,0.0
5969,60.0,30,30,4.0,0.0
5970,69.0,0,30,4.0,0.0
5971,75.0,15,180,1.0,0.0
5972,58.0,30,30,4.0,0.0
5973,67.0,0,30,4.0,0.0
5974,55.0,15,40,3.0,0.0
5975,82.0,0,40,0.0,0.0
5976,70.0,0,40,2.0,0.0
5977,57.0,0,30,4.0,0.0
5978,66.0,15,30,4.0,0.0
5979,64.0,0,30,4.0,0.0
5980,55.0,30,30,4.0,0.0
5981,66.0,0,120,2.0,0.0
5982,57.0,0,120,3.0,0.0
5983,84.0,0,120,0.0,0.0
5984,57.0,15,30,4.0,0.0
5985,72.0,0,30,4.0,0.0
5986,69.0,0,30,4.0,0.0
5987,60.0,30,30,4.0,0.0
5988,62.0,0,30,4.0,0.0
5989,70.0,15,30,4.0,0.0
5990,72.0,15,40,1.0,0.0
5991,72.0,0,30,4.0,0.0
5992,63.0,30,30,4.0,0.0
5993,78.0,15,180,1.0,0.0
5994,70.0,0,30,4.0,0.0
5995,62.0,30,30,4.0,0.0
5996,60.0,30,30,4.0,0.0
5997,69.0,0,30,4.0,0.0
5998,58.0,0,30,4.0,0.0
5999,67.0,15,30,4.0,0.0
6000,57.0,0,40,3.0,0.0
6001,69.0,0,40,2.0,0.0
6002,84.0,15,40,0.0,0.0
6003,57.0,30,30,4.0,0.0
6004,66.0,0,30,4.0,0.0
6005,58.0,15,30,4.0,0.0
6006,62.0,0,120,2.0,0.0
6007,86.0,0,120,0.0,0.0
6008,58.0,30,120,3.0,0.0
6009,74.0,0,30,4.0,0.0
6010,55.0,0,30,4.0,0.0
6011,70.0,30,30,4.0,0.0
6012,74.0,15,40,1.0,0.0
6013,72.0,0,30,4.0,0.0
6014,57.0,15,30,4.0,0.0
6015,58.0,0,30,4.0,0.0
6016,74.0,0,30,4.0,0.0
6017,72.0,30,30,4.0,0.0
6018,57.0,0,30,4.0,0.0
6019,79.0,15,180,1.0,0.0
6020,55.0,0,30,4.0,0.0
6021,70.0,30,30,4.0,0.0
6022,69.0,0,30,4.0,0.0
6023,74.0,0,40,0.0,0.0
6024,62.0,15,40,2.0,0.0
6025,58.0,0,40,3.0,0.0
6026,54.0,15,30,4.0,0.0
6027,55.0,0,30,4.0,0.0
6028,67.0,30,30,4.0,0.0
6029,81.0,0,40,0.0,0.0
6030,49.0,15,30,4.0,0.0
6031,76.0,0,30,4.0,0.0
6032,64.0,0,120,2.0,0.0
6033,49.0,30,120,3.0,0.0
6034,52.0,30,30,4.0,0.0
6035,73.0,0,30,4.0,0.0
6036,53.0,15,30,4.0,0.0
6037,79.0,0,40,0.0,0.0
6038,76.0,15,40,1.0,0.0
6039,74.0,0,30,4.0,0.0
6040,76.0,0,30,4.0,0.0
6041,55.0,0,30,4.0,0.0
6042,81.0,0,180,1.0,0.0
6043,77.0,15,40,0.0,0.0
6044,74.0,15,30,4.0,0.0
6045,45.0,30,60,4.0,0.0
6046,73.0,0,30,4.0,0.0
6047,49.0,0,60,4.0,0.0
6048,71.0,15,30,4.0,0.0
6049,49.0,0,40,3.0,0.0
6050,76.0,0,40,0.0,0.0
6051,64.0,15,40,2.0,0.0
6052,69.0,30,30,4.0,0.0
6053,50.0,0,60,4.0,0.0
6054,57.0,30,120,2.0,0.0
6055,74.0,15,40,0.0,0.0
6056,77.0,15,30,4.0,0.0
6057,50.0,0,120,3.0,0.0
6058,74.0,30,30,4.0,0.0
6059,72.0,15,30,4.0,0.0
6060,75.0,15,40,0.0,0.0
6061,54.0,0,60,4.0,0.0
6062,81.0,0,40,1.0,0.0
6063,74.0,0,30,4.0,0.0
6064,55.0,0,60,4.0,0.0
6065,70.0,15,30,4.0,0.0
6066,74.0,15,40,0.0,0.0
6067,79.0,0,40,1.0,0.0
6068,74.0,30,30,4.0,0.0
6069,72.0,0,40,0.0,0.0
6070,57.0,30,60,4.0,0.0
6071,78.0,15,40,1.0,0.0
6072,69.0,15,30,4.0,0.0
6073,74.0,0,30,4.0,0.0
6074,67.0,15,30,4.0,0.0
6075,58.0,30,60,4.0,0.0
6076,79.0,0,40,1.0,0.0
6077,70.0,15,40,0.0,0.0
6078,74.0,0,30,4.0,0.0
6079,55.0,0,40,3.0,0.0
6080,71.0,15,40,1.0,0.0
6081,74.0,0,40,0.0,0.0
6082,67.0,0,40,2.0,0.0
6083,76.0,15,30,4.0,0.0
6084,55.0,30,60,4.0,0.0
6085,77.0,0,30,4.0,0.0
6086,79.0,15,180,0.0,0.0
6087,57.0,0,60,4.0,0.0
6088,76.0,15,30,4.0,0.0
6089,60.0,0,40,2.0,0.0
6090,57.0,15,40,3.0,0.0
6091,72.0,0,40,1.0,0.0
6092,74.0,30,30,4.0,0.0
6093,55.0,15,40,2.0,0.0
6094,59.0,0,40,3.0,0.0
6095,74.0,0,40,1.0,0.0
6096,59.0,0,60,4.0,0.0
6097,72.0,15,30,4.0,0.0
6098,71.0,30,30,4.0,0.0
6099,76.0,15,30,4.0,0.0
6100,72.0,0,40,1.0,0.0
6101,60.0,0,120,2.0,0.0
6102,60.0,0,120,3.0,0.0
6103,48.0,30,60,4.0,0.0
6104,72.0,0,30,4.0,0.0
6105,74.0,15,40,1.0,0.0
6106,79.0,0,40,0.0,0.0
6107,52.0,0,60,4.0,0.0
6108,70.0,15,30,4.0,0.0
6109,72.0,30,30,4.0,0.0
6110,77.0,0,40,0.0,0.0
6111,72.0,15,40,1.0,0.0
6112,53.0,30,60,4.0,0.0
6113,69.0,15,30,4.0,0.0
6114,72.0,0,30,4.0,0.0
6115,67.0,15,30,4.0,0.0
6116,55.0,30,60,4.0,0.0
6117,76.0,0,40,0.0,0.0
6118,70.0,15,40,1.0,0.0
6119,72.0,0,30,4.0,0.0
6120,65.0,15,30,4.0,0.0
6121,69.0,0,40,1.0,0.0
6122,77.0,15,40,0.0,0.0
6123,57.0,0,60,4.0,0.0
6124,72.0,30,30,4.0,0.0
6125,65.0,15,40,2.0,0.0
6126,72.0,0,40,1.0,0.0
6127,53.0,0,40,3.0,0.0
6128,74.0,15,30,4.0,0.0
6129,53.0,0,60,4.0,0.0
6130,69.0,0,40,0.0,0.0
6131,75.0,30,30,4.0,0.0
6132,70.0,15,40,0.0,0.0
6133,74.0,15,30,4.0,0.0
6134,58.0,0,40,2.0,0.0
6135,77.0,0,180,1.0,0.0
6136,55.0,0,40,3.0,0.0
6137,55.0,0,60,4.0,0.0
6138,72.0,30,30,4.0,0.0
6139,53.0,0,40,2.0,0.0
6140,70.0,15,30,4.0,0.0
6141,57.0,30,60,4.0,0.0
6142,57.0,0,40,3.0,0.0
6143,72.0,15,40,0.0,0.0
6144,69.0,0,30,4.0,0.0
6145,46.0,0,60,4.0,0.0
6146,58.0,0,40,3.0,0.0
6147,58.0,15,40,2.0,0.0
6148,70.0,30,120,0.0,0.0
6149,74.0,15,30,4.0,0.0
6150,70.0,30,30,4.0,0.0
6151,62.0,0,40,2.0,0.0
6152,60.0,0,60,4.0,0.0
6153,69.0,15,30,4.0,0.0
6154,77.0,15,40,1.0,0.0
6155,60.0,0,40,3.0,0.0
6156,70.0,0,30,4.0,0.0
6157,76.0,15,40,1.0,0.0
6158,67.0,15,30,4.0,0.0
6159,67.0,0,40,2.0,0.0
6160,58.0,30,60,4.0,0.0
6161,58.0,0,40,3.0,0.0
6162,70.0,0,30,4.0,0.0
6163,57.0,0,60,4.0,0.0
6164,74.0,0,40,0.0,0.0
6165,57.0,15,40,3.0,0.0
6166,69.0,0,40,2.0,0.0
6167,65.0,15,30,4.0,0.0
6168,74.0,0,40,1.0,0.0
6169,70.0,30,30,4.0,0.0
6170,70.0,0,40,2.0,0.0
6171,55.0,15,40,3.0,0.0
6172,76.0,30,120,0.0,0.0
6173,55.0,0,60,4.0,0.0
6174,73.0,0,40,1.0,0.0
6175,64.0,15,30,4.0,0.0
6176,67.0,30,30,4.0,0.0
6177,74.0,15,40,1.0,0.0
6178,65.0,15,30,4.0,0.0
6179,57.0,0,40,3.0,0.0
6180,69.0,0,40,2.0,0.0
6181,57.0,0,60,4.0,0.0
6182,67.0,0,30,4.0,0.0
6183,73.0,0,40,1.0,0.0
6184,55.0,30,60,4.0,0.0
6185,70.0,15,40,2.0,0.0
6186,55.0,0,40,3.0,0.0
6187,64.0,15,30,4.0,0.0
6188,67.0,0,30,4.0,0.0
6189,53.0,30,60,4.0,0.0
6190,62.0,15,30,4.0,0.0
6191,77.0,0,40,0.0,0.0
6192,74.0,15,40,1.0,0.0
6193,62.0,0,40,2.0,0.0
6194,53.0,0,40,3.0,0.0
6195,67.0,0,30,4.0,0.0
6196,79.0,0,120,0.0,0.0
6197,64.0,0,40,2.0,0.0
6198,67.0,0,40,1.0,0.0
6199,52.0,15,40,3.0,0.0
6200,52.0,30,60,4.0,0.0
6201,61.0,15,30,4.0,0.0
6202,67.0,0,30,4.0,0.0
6203,62.0,15,30,4.0,0.0
6204,53.0,0,40,3.0,0.0
6205,62.0,15,40,2.0,0.0
6206,53.0,30,60,4.0,0.0
6207,69.0,0,40,1.0,0.0
6208,67.0,0,30,4.0,0.0
6209,67.0,0,40,1.0,0.0
6210,64.0,0,40,2.0,0.0
6211,52.0,30,60,4.0,0.0
6212,61.0,15,30,4.0,0.0
6213,52.0,15,40,3.0,0.0
6214,67.0,0,30,4.0,0.0
6215,74.0,0,40,0.0,0.0
6216,65.0,0,40,2.0,0.0
6217,59.0,15,30,4.0,0.0
6218,50.0,30,60,4.0,0.0
6219,50.0,15,40,3.0,0.0
6220,65.0,0,40,1.0,0.0
6221,67.0,0,30,4.0,0.0
6222,57.0,15,30,4.0,0.0
6223,64.0,0,120,1.0,0.0
6224,49.0,30,60,4.0,0.0
6225,49.0,0,40,3.0,0.0
6226,67.0,15,40,2.0,0.0
6227,76.0,30,120,0.0,0.0
6228,67.0,0,30,4.0,0.0
6229,64.0,0,40,2.0,0.0
6230,47.0,15,40,3.0,0.0
6231,61.0,15,30,4.0,0.0
6232,52.0,0,60,4.0,0.0
6233,67.0,0,30,4.0,0.0
6234,61.0,0,40,2.0,0.0
6235,64.0,15,30,4.0,0.0
6236,45.0,15,40,3.0,0.0
6237,57.0,30,60,4.0,0.0
6238,67.0,0,30,4.0,0.0
6239,57.0,15,40,2.0,0.0
6240,55.0,0,60,4.0,0.0
6241,61.0,15,30,4.0,0.0
6242,43.0,0,40,3.0,0.0
6243,76.0,0,40,0.0,0.0
6244,64.0,0,40,1.0,0.0
6245,64.0,30,30,4.0,0.0
6246,62.0,15,30,4.0,0.0
6247,53.0,0,30,4.0,0.0
6248,69.0,0,30,4.0,0.0
6249,41.0,0,60,3.0,0.0
6250,62.0,0,60,2.0,0.0
6251,77.0,30,60,0.0,0.0
6252,62.0,15,40,1.0,0.0
6253,41.0,0,30,4.0,0.0
6254,62.0,15,40,1.0,0.0
6255,62.0,15,30,4.0,0.0
6256,65.0,0,30,4.0,0.0
6257,50.0,30,30,4.0,0.0
6258,61.0,0,30,4.0,0.0
6259,64.0,0,30,4.0,0.0
6260,46.0,15,30,4.0,0.0
6261,64.0,15,40,1.0,0.0
6262,46.0,0,60,3.0,0.0
6263,50.0,30,30,4.0,0.0
6264,65.0,0,40,1.0,0.0
6265,62.0,15,40,2.0,0.0
6266,45.0,0,30,4.0,0.0
6267,65.0,0,30,4.0,0.0
6268,62.0,15,30,4.0,0.0
6269,77.0,0,40,0.0,0.0
6270,50.0,30,30,4.0,0.0
6271,67.0,0,30,4.0,0.0
6272,43.0,15,30,4.0,0.0
6273,63.0,0,30,4.0,0.0
6274,67.0,15,40,1.0,0.0
6275,75.0,0,60,0.0,0.0
6276,43.0,0,60,3.0,0.0
6277,70.0,0,60,2.0,0.0
6278,50.0,30,30,4.0,0.0
6279,70.0,15,40,1.0,0.0
6280,40.0,15,30,4.0,0.0
6281,62.0,0,30,4.0,0.0
6282,70.0,0,30,4.0,0.0
6283,50.0,30,30,4.0,0.0
6284,69.0,15,40,1.0,0.0
6285,73.0,0,60,0.0,0.0
6286,45.0,0,60,3.0,0.0
6287,64.0,0,60,2.0,0.0
6288,45.0,15,30,4.0,0.0
6289,61.0,0,30,4.0,0.0
6290,69.0,0,30,4.0,0.0
6291,49.0,30,30,4.0,0.0
6292,67.0,15,40,1.0,0.0
6293,67.0,0,30,4.0,0.0
6294,64.0,15,30,4.0,0.0
6295,45.0,0,30,4.0,0.0
6296,49.0,30,30,4.0,0.0
6297,74.0,0,60,0.0,0.0
6298,65.0,15,40,1.0,0.0
6299,46.0,0,60,3.0,0.0
6300,62.0,30,60,2.0,0.0
6301,46.0,15,30,4.0,0.0
6302,62.0,0,30,4.0,0.0
6303,65.0,0,30,4.0,0.0
6304,50.0,0,30,4.0,0.0
6305,62.0,0,30,4.0,0.0
6306,46.0,0,30,4.0,0.0
6307,67.0,15,30,4.0,0.0
6308,67.0,15,40,1.0,0.0
6309,50.0,30,30,4.0,0.0
6310,69.0,15,40,1.0,0.0
6311,41.0,15,30,4.0,0.0
6312,61.0,0,30,4.0,0.0
6313,69.0,0,30,4.0,0.0
6314,41.0,30,60,3.0,0.0
6315,50.0,0,30,4.0,0.0
6316,62.0,0,40,2.0,0.0
6317,41.0,15,30,4.0,0.0
6318,62.0,0,30,4.0,0.0
6319,65.0,0,40,1.0,0.0
6320,69.0,15,40,0.0,0.0
6321,65.0,0,30,4.0,0.0
6322,50.0,30,30,4.0,0.0
6323,67.0,0,60,0.0,0.0
6324,43.0,0,60,3.0,0.0
6325,43.0,15,30,4.0,0.0
6326,58.0,0,60,2.0,0.0
6327,70.0,15,40,1.0,0.0
6328,63.0,0,30,4.0,0.0
6329,70.0,0,30,4.0,0.0
6330,50.0,30,30,4.0,0.0
6331,43.0,15,30,4.0,0.0
6332,62.0,0,30,4.0,0.0
6333,67.0,0,30,4.0,0.0
6334,67.0,15,40,1.0,0.0
6335,50.0,30,30,4.0,0.0
6336,61.0,15,40,1.0,0.0
6337,64.0,0,60,0.0,0.0
6338,57.0,0,60,2.0,0.0
6339,64.0,0,30,4.0,0.0
6340,45.0,0,60,3.0,0.0
6341,45.0,15,30,4.0,0.0
6342,61.0,0,30,4.0,0.0
6343,49.0,30,30,4.0,0.0
6344,69.0,15,40,1.0,0.0
6345,69.0,0,30,4.0,0.0
6346,61.0,15,30,4.0,0.0
6347,45.0,0,30,4.0,0.0
6348,49.0,30,30,4.0,0.0
6349,69.0,0,120,1.0,0.0
6350,65.0,0,40,0.0,0.0
6351,62.0,0,30,4.0,0.0
6352,65.0,0,30,4.0,0.0
6353,38.0,15,30,4.0,0.0
6354,38.0,30,120,3.0,0.0
6355,57.0,15,40,2.0,0.0
6356,50.0,30,30,4.0,0.0
6357,65.0,0,30,4.0,0.0
6358,62.0,15,30,4.0,0.0
6359,62.0,0,40,2.0,0.0
6360,69.0,15,40,0.0,0.0
6361,38.0,0,30,4.0,0.0
6362,50.0,0,30,4.0,0.0
6363,61.0,15,30,4.0,0.0
6364,64.0,0,30,4.0,0.0
6365,62.0,0,40,2.0,0.0
6366,67.0,15,40,0.0,0.0
6367,38.0,30,30,4.0,0.0
6368,50.0,0,30,4.0,0.0
6369,69.0,0,40,0.0,0.0
6370,62.0,15,30,4.0,0.0
6371,62.0,15,40,2.0,0.0
6372,65.0,0,30,4.0,0.0
6373,38.0,30,30,4.0,0.0
6374,50.0,0,30,4.0,0.0
6375,62.0,15,40,2.0,0.0
6376,64.0,0,30,4.0,0.0
6377,67.0,15,30,4.0,0.0
6378,73.0,0,120,1.0,0.0
6379,70.0,0,40,0.0,0.0
6380,50.0,30,30,4.0,0.0
6381,38.0,0,30,4.0,0.0
6382,69.0,15,40,0.0,0.0
6383,62.0,0,40,2.0,0.0
6384,62.0,15,30,4.0,0.0
6385,65.0,0,30,4.0,0.0
6386,50.0,30,30,4.0,0.0
6387,38.0,0,30,4.0,0.0
6388,62.0,0,40,2.0,0.0
6389,64.0,0,30,4.0,0.0
6390,67.0,15,30,4.0,0.0
6391,70.0,15,40,0.0,0.0
6392,50.0,0,30,4.0,0.0
6393,38.0,30,30,4.0,0.0
6394,62.0,15,40,2.0,0.0
6395,67.0,0,40,0.0,0.0
6396,61.0,0,30,4.0,0.0
6397,64.0,15,30,4.0,0.0
6398,50.0,0,30,4.0,0.0
6399,38.0,30,30,4.0,0.0
6400,74.0,0,120,1.0,0.0
6401,38.0,0,120,3.0,0.0
6402,62.0,15,40,2.0,0.0
6403,62.0,15,30,4.0,0.0
6404,65.0,0,30,4.0,0.0
6405,69.0,0,40,0.0,0.0
6406,50.0,0,30,4.0,0.0
6407,38.0,30,30,4.0,0.0
6408,62.0,15,30,4.0,0.0
6409,62.0,0,40,0.0,0.0
6410,62.0,15,40,2.0,0.0
6411,65.0,0,30,4.0,0.0
6412,38.0,30,30,4.0,0.0
6413,50.0,0,30,4.0,0.0
6414,64.0,15,30,4.0,0.0
6415,67.0,0,40,0.0,0.0
6416,61.0,0,30,4.0,0.0
6417,62.0,15,40,2.0,0.0
6418,38.0,30,30,4.0,0.0
6419,50.0,0,30,4.0,0.0
6420,62.0,15,40,2.0,0.0
6421,62.0,0,30,4.0,0.0
6422,65.0,15,30,4.0,0.0
6423,69.0,0,40,0.0,0.0
6424,50.0,30,30,4.0,0.0
6425,38.0,0,30,4.0,0.0
6426,70.0,15,40,0.0,0.0
6427,62.0,0,40,2.0,0.0
6428,73.0,30,120,1.0,0.0
6429,64.0,15,30,4.0,0.0
6430,67.0,0,30,4.0,0.0
6431,38.0,30,30,4.0,0.0
6432,50.0,0,30,4.0,0.0
6433,65.0,15,30,4.0,0.0
6434,69.0,15,40,0.0,0.0
6435,62.0,0,40,2.0,0.0
6436,62.0,0,30,4.0,0.0
6437,50.0,0,30,4.0,0.0
6438,38.0,0,30,4.0,0.0
6439,62.0,0,40,2.0,0.0
6440,70.0,15,40,0.0,0.0
6441,64.0,15,30,4.0,0.0
6442,67.0,0,30,4.0,0.0
6443,50.0,0,30,4.0,0.0
6444,38.0,30,30,4.0,0.0
6445,61.0,15,30,4.0,0.0
6446,64.0,0,30,4.0,0.0
6447,67.0,15,40,0.0,0.0
6448,62.0,0,40,2.0,0.0
6449,38.0,0,30,4.0,0.0
6450,50.0,30,30,4.0,0.0
6451,65.0,0,30,4.0,0.0
6452,62.0,15,30,4.0,0.0
6453,62.0,0,40,2.0,0.0
6454,74.0,30,120,1.0,0.0
6455,38.0,0,120,3.0,0.0
6456,69.0,15,40,0.0,0.0
6457,38.0,0,30,4.0,0.0
6458,50.0,30,30,4.0,0.0
6459,69.0,15,30,4.0,0.0
6460,65.0,0,30,4.0,0.0
6461,74.0,0,120,0.0,0.0
6462,62.0,15,40,2.0,0.0
6463,38.0,0,30,4.0,0.0
6464,50.0,0,30,4.0,0.0
6465,67.0,0,30,4.0,0.0
6466,70.0,15,30,4.0,0.0
6467,62.0,15,40,2.0,0.0
6468,38.0,0,30,4.0,0.0
6469,50.0,30,30,4.0,0.0
6470,73.0,0,40,0.0,0.0
6471,62.0,15,40,2.0,0.0
6472,67.0,15,30,4.0,0.0
6473,64.0,0,30,4.0,0.0
6474,38.0,0,30,4.0,0.0
6475,50.0,30,30,4.0,0.0
6476,69.0,0,30,4.0,0.0
6477,62.0,15,40,2.0,0.0
6478,65.0,15,30,4.0,0.0
6479,74.0,0,40,0.0,0.0
6480,38.0,30,30,4.0,0.0
6481,50.0,0,30,4.0,0.0
6482,74.0,0,40,1.0,0.0
6483,62.0,0,40,2.0,0.0
6484,69.0,15,40,0.0,0.0
6485,65.0,15,30,4.0,0.0
6486,62.0,0,30,4.0,0.0
6487,38.0,0,30,4.0,0.0
6488,50.0,30,30,4.0,0.0
6489,73.0,0,40,1.0,0.0
6490,64.0,0,30,4.0,0.0
6491,70.0,0,40,0.0,0.0
6492,62.0,15,40,2.0,0.0
6493,67.0,15,30,4.0,0.0
6494,38.0,0,30,4.0,0.0
6495,50.0,30,30,4.0,0.0
6496,76.0,0,40,1.0,0.0
6497,64.0,15,30,4.0,0.0
6498,61.0,0,30,4.0,0.0
6499,62.0,15,40,2.0,0.0
6500,67.0,0,40,0.0,0.0
6501,38.0,0,30,4.0,0.0
6502,50.0,30,30,4.0,0.0
6503,62.0,0,30,4.0,0.0
6504,74.0,30,120,1.0,0.0
6505,38.0,0,120,3.0,0.0
6506,65.0,15,30,4.0,0.0
6507,62.0,15,40,2.0,0.0
6508,69.0,0,40,0.0,0.0
6509,50.0,30,30,4.0,0.0
6510,38.0,0,30,4.0,0.0
6511,65.0,0,30,4.0,0.0
6512,62.0,15,40,2.0,0.0
6513,69.0,15,30,4.0,0.0
6514,65.0,0,40,0.0,0.0
6515,38.0,0,30,4.0,0.0
6516,50.0,0,30,4.0,0.0
6517,67.0,0,30,4.0,0.0
6518,71.0,15,30,4.0,0.0
6519,62.0,15,40,2.0,0.0
6520,64.0,0,40,0.0,0.0
6521,50.0,30,30,4.0,0.0
6522,38.0,0,30,4.0,0.0
6523,64.0,0,40,0.0,0.0
6524,64.0,0,30,4.0,0.0
6525,73.0,15,30,4.0,0.0
6526,62.0,15,40,2.0,0.0
6527,38.0,0,30,4.0,0.0
6528,50.0,30,30,4.0,0.0
6529,65.0,15,30,4.0,0.0
6530,74.0,0,30,4.0,0.0
6531,62.0,0,40,2.0,0.0
6532,62.0,15,40,0.0,0.0
6533,38.0,0,30,4.0,0.0
6534,50.0,30,30,4.0,0.0
6535,65.0,0,40,1.0,0.0
6536,62.0,0,40,2.0,0.0
6537,74.0,15,40,0.0,0.0
6538,65.0,15,30,4.0,0.0
6539,69.0,0,30,4.0,0.0
6540,38.0,0,30,4.0,0.0
6541,50.0,30,30,4.0,0.0
6542,64.0,0,40,1.0,0.0
6543,76.0,0,40,0.0,0.0
6544,67.0,15,30,4.0,0.0
6545,71.0,0,30,4.0,0.0
6546,62.0,15,40,2.0,0.0
6547,50.0,30,30,4.0,0.0
6548,38.0,0,30,4.0,0.0
6549,64.0,0,30,4.0,0.0
6550,61.0,15,30,4.0,0.0
6551,76.0,0,40,0.0,0.0
6552,62.0,0,40,2.0,0.0
6553,64.0,15,40,1.0,0.0
6554,38.0,29,30,4.0,0.0
6555,50.0,0,30,4.0,0.0
6556,65.0,30,30,4.0,0.0
6557,62.0,0,30,4.0,0.0
6558,38.0,0,120,3.0,0.0
6559,62.0,0,120,1.0,0.0
6560,69.0,0,120,0.0,0.0
6561,62.0,30,120,2.0,0.0
6562,50.0,30,30,4.0,0.0
6563,38.0,0,30,4.0,0.0
6564,65.0,0,30,4.0,0.0
6565,62.0,30,30,4.0,0.0
6566,38.0,1,30,4.0,0.0
6567,50.0,0,30,4.0,0.0
6568,64.0,29,30,4.0,0.0
6569,67.0,0,30,4.0,0.0
6570,38.0,0,30,4.0,0.0
6571,50.0,31,30,4.0,0.0
6572,69.0,0,30,4.0,0.0
6573,65.0,29,30,4.0,0.0
6574,38.0,0,30,4.0,0.0
6575,50.0,31,30,4.0,0.0
6576,67.0,29,30,4.0,0.0
6577,71.0,0,30,4.0,0.0
6578,38.0,31,30,4.0,0.0
6579,50.0,0,30,4.0,0.0
6580,69.0,0,30,4.0,0.0
6581,73.0,29,30,4.0,0.0
6582,38.0,0,30,4.0,0.0
6583,50.0,31,30,4.0,0.0
6584,71.0,29,30,4.0,0.0
6585,74.0,0,30,4.0,0.0
6586,38.0,0,30,4.0,0.0
6587,50.0,31,30,4.0,0.0
6588,73.0,0,30,4.0,0.0
6589,76.0,29,30,4.0,0.0
6590,38.0,31,30,4.0,0.0
6591,50.0,0,30,4.0,0.0
6592,62.0,0,120,2.0,0.0
6593,65.0,30,120,1.0,0.0
6594,74.0,29,30,4.0,0.0
6595,77.0,0,30,4.0,0.0
6596,69.0,0,120,0.0,0.0
6597,38.0,0,120,3.0,0.0
6598,38.0,0,30,4.0,0.0
6599,50.0,31,30,4.0,0.0
6600,77.0,0,30,4.0,0.0
6601,74.0,29,30,4.0,0.0
6602,38.0,0,30,4.0,0.0
6603,50.0,1,30,4.0,0.0
6604,81.0,0,30,4.0,0.0
6605,72.0,29,30,4.0,0.0
6606,38.0,0,30,4.0,0.0
6607,50.0,31,30,4.0,0.0
6608,72.0,0,30,4.0,0.0
6609,81.0,29,30,4.0,0.0
6610,38.0,0,30,4.0,0.0
6611,50.0,31,30,4.0,0.0
6612,71.0,29,30,4.0,0.0
6613,81.0,0,30,4.0,0.0
6614,38.0,0,30,4.0,0.0
6615,50.0,31,30,4.0,0.0
6616,71.0,29,30,4.0,0.0
6617,81.0,0,30,4.0,0.0
6618,38.0,0,30,4.0,0.0
6619,50.0,31,30,4.0,0.0
6620,70.0,29,30,4.0,0.0
6621,79.0,0,30,4.0,0.0
6622,38.0,0,30,4.0,0.0
6623,50.0,31,30,4.0,0.0
6624,70.0,29,30,4.0,0.0
6625,79.0,0,30,4.0,0.0
6626,50.0,31,30,4.0,0.0
6627,38.0,0,30,4.0,0.0
6628,69.0,30,30,4.0,0.0
6629,79.0,0,30,4.0,0.0
6630,50.0,30,30,4.0,0.0
6631,38.0,0,30,4.0,0.0
6632,69.0,30,30,4.0,0.0
6633,79.0,0,30,4.0,0.0
6634,50.0,30,30,4.0,0.0
6635,38.0,0,30,4.0,0.0
6636,69.0,30,30,4.0,0.0
6637,77.0,0,30,4.0,0.0
6638,50.0,30,30,4.0,0.0
6639,38.0,0,30,4.0,0.0
6640,69.0,30,30,4.0,0.0
6641,77.0,0,30,4.0,0.0
6642,38.0,0,30,4.0,0.0
6643,50.0,30,30,4.0,0.0
6644,68.0,30,30,4.0,0.0
6645,77.0,0,30,4.0,0.0
6646,50.0,0,30,4.0,0.0
6647,38.0,30,30,4.0,0.0
6648,77.0,0,30,4.0,0.0
6649,68.0,30,30,4.0,0.0
6650,38.0,0,30,4.0,0.0
6651,50.0,30,30,4.0,0.0
6652,67.0,30,30,4.0,0.0
6653,76.0,0,30,4.0,0.0
6654,50.0,0,30,4.0,0.0
6655,38.0,30,30,4.0,0.0
6656,76.0,30,30,4.0,0.0
6657,67.0,0,30,4.0,0.0
6658,50.0,30,30,4.0,0.0
6659,38.0,0,30,4.0,0.0
6660,76.0,30,30,4.0,0.0
6661,66.0,0,30,4.0,0.0
6662,50.0,30,30,4.0,0.0
6663,38.0,0,30,4.0,0.0
6664,66.0,0,30,4.0,0.0
6665,76.0,30,30,4.0,0.0
6666,50.0,30,30,4.0,0.0
6667,38.0,0,30,4.0,0.0
6668,65.0,30,30,4.0,0.0
6669,74.0,0,30,4.0,0.0
6670,50.0,0,30,4.0,0.0
6671,38.0,30,30,4.0,0.0
6672,65.0,30,30,4.0,0.0
6673,74.0,0,30,4.0,0.0
6674,50.0,30,30,4.0,0.0
6675,38.0,0,30,4.0,0.0
6676,74.0,30,30,4.0,0.0
6677,64.0,0,30,4.0,0.0
6678,50.0,30,30,4.0,0.0
6679,38.0,0,30,4.0,0.0
6680,64.0,0,30,4.0,0.0
6681,74.0,30,30,4.0,0.0
6682,50.0,30,30,4.0,0.0
6683,38.0,0,30,4.0,0.0
6684,72.0,30,30,4.0,0.0
6685,63.0,0,30,4.0,0.0
6686,38.0,30,30,4.0,0.0
6687,50.0,0,30,4.0,0.0
6688,72.0,30,30,4.0,0.0
6689,63.0,0,30,4.0,0.0
6690,50.0,30,30,4.0,0.0
6691,38.0,0,30,4.0,0.0
6692,62.0,30,30,4.0,0.0
6693,72.0,0,30,4.0,0.0
6694,38.0,0,30,4.0,0.0
6695,50.0,30,30,4.0,0.0
6696,62.0,30,30,4.0,0.0
6697,72.0,0,30,4.0,0.0
6698,50.0,0,30,4.0,0.0
6699,38.0,30,30,4.0,0.0
6700,70.0,0,30,4.0,0.0
6701,67.0,29,30,4.0,0.0
6702,38.0,0,30,4.0,0.0
6703,50.0,31,30,4.0,0.0
6704,67.0,0,30,4.0,0.0
6705,70.0,29,30,4.0,0.0
6706,50.0,31,30,4.0,0.0
6707,38.0,0,30,4.0,0.0
6708,67.0,29,30,4.0,0.0
6709,69.0,0,30,4.0,0.0
6710,38.0,0,30,4.0,0.0
6711,50.0,31,30,4.0,0.0
6712,67.0,29,30,4.0,0.0
6713,69.0,0,30,4.0,0.0
6714,50.0,31,30,4.0,0.0
6715,38.0,0,30,4.0,0.0
6716,65.0,29,30,4.0,0.0
6717,74.0,0,30,4.0,0.0
6718,38.0,0,30,4.0,0.0
6719,50.0,31,30,4.0,0.0
6720,65.0,29,30,4.0,0.0
6721,74.0,0,30,4.0,0.0
6722,50.0,31,30,4.0,0.0
6723,38.0,0,30,4.0,0.0
6724,64.0,29,30,4.0,0.0
6725,74.0,0,30,4.0,0.0
6726,38.0,0,30,4.0,0.0
6727,50.0,31,30,4.0,0.0
6728,64.0,0,30,4.0,0.0
6729,74.0,29,30,4.0,0.0
6730,38.0,0,30,4.0,0.0
6731,50.0,31,30,4.0,0.0
6732,69.0,29,30,4.0,0.0
6733,72.0,0,30,4.0,0.0
6734,38.0,0,30,4.0,0.0
6735,50.0,31,30,4.0,0.0
6736,72.0,29,30,4.0,0.0
6737,69.0,0,30,4.0,0.0
6738,38.0,0,30,4.0,0.0
6739,50.0,31,30,4.0,0.0
6740,70.0,29,30,4.0,0.0
6741,69.0,0,30,4.0,0.0
6742,38.0,0,30,4.0,0.0
6743,50.0,31,30,4.0,0.0
6744,69.0,0,30,4.0,0.0
6745,70.0,29,30,4.0,0.0
6746,38.0,0,30,4.0,0.0
6747,50.0,31,30,4.0,0.0
6748,70.0,29,30,4.0,0.0
6749,67.0,0,30,4.0,0.0
6750,38.0,0,30,4.0,0.0
6751,50.0,31,30,4.0,0.0
6752,70.0,29,30,4.0,0.0
6753,67.0,0,30,4.0,0.0
6754,50.0,31,30,4.0,0.0
6755,38.0,0,30,4.0,0.0
6756,67.0,29,30,4.0,0.0
6757,69.0,0,30,4.0,0.0
6758,38.0,31,30,4.0,0.0
6759,50.0,0,30,4.0,0.0
6760,69.0,0,30,4.0,0.0
6761,67.0,29,30,4.0,0.0
6762,38.0,0,30,4.0,0.0
6763,50.0,31,30,4.0,0.0
6764,69.0,29,30,4.0,0.0
6765,65.0,0,30,4.0,0.0
6766,38.0,0,30,4.0,0.0
6767,50.0,31,30,4.0,0.0
6768,65.0,29,30,4.0,0.0
6769,69.0,0,30,4.0,0.0
6770,38.0,0,30,4.0,0.0
6771,50.0,31,30,4.0,0.0
6772,65.0,29,30,4.0,0.0
6773,67.0,0,30,4.0,0.0
6774,38.0,0,30,4.0,0.0
6775,50.0,31,30,4.0,0.0
6776,65.0,29,30,4.0,0.0
6777,67.0,0,30,4.0,0.0
6778,38.0,0,30,4.0,0.0
6779,50.0,31,30,4.0,0.0
6780,67.0,0,30,4.0,0.0
6781,64.0,29,30,4.0,0.0
6782,38.0,31,30,4.0,0.0
6783,50.0,0,30,4.0,0.0
6784,67.0,29,30,4.0,0.0
6785,64.0,0,30,4.0,0.0
6786,38.0,0,30,4.0,0.0
6787,50.0,31,30,4.0,0.0
6788,64.0,29,30,4.0,0.0
6789,65.0,0,30,4.0,0.0
6790,38.0,31,30,4.0,0.0
6791,50.0,0,30,4.0,0.0
6792,64.0,29,30,4.0,0.0
6793,65.0,0,30,4.0,0.0
6794,38.0,0,30,4.0,0.0
6795,50.0,31,30,4.0,0.0
6796,65.0,0,30,4.0,0.0
6797,62.0,29,30,4.0,0.0
6798,38.0,31,30,4.0,0.0
6799,50.0,0,30,4.0,0.0
6800,62.0,0,30,4.0,0.0
6801,65.0,29,30,4.0,0.0
6802,38.0,0,30,4.0,0.0
6803,50.0,31,30,4.0,0.0
6804,62.0,29,30,4.0,0.0
6805,64.0,0,30,4.0,0.0
6806,38.0,31,30,4.0,0.0
6807,50.0,0,30,4.0,0.0
6808,62.0,29,30,4.0,0.0
6809,64.0,0,30,4.0,0.0
6810,38.0,31,30,4.0,0.0
6811,50.0,0,30,4.0,0.0
6812,64.0,29,30,4.0,0.0
6813,61.0,0,30,4.0,0.0
6814,38.0,0,30,4.0,0.0
6815,50.0,31,30,4.0,0.0
6816,61.0,29,30,4.0,0.0
6817,64.0,0,30,4.0,0.0
6818,38.0,0,30,4.0,0.0
6819,50.0,31,30,4.0,0.0
6820,60.0,29,30,4.0,0.0
6821,66.0,0,30,4.0,0.0
6822,38.0,0,30,4.0,0.0
6823,50.0,31,30,4.0,0.0
6824,60.0,29,30,4.0,0.0
6825,66.0,0,30,4.0,0.0
6826,38.0,31,30,4.0,0.0
6827,50.0,0,30,4.0,0.0
6828,59.0,29,30,4.0,0.0
6829,67.0,0,30,4.0,0.0
6830,50.0,1,30,4.0,0.0
6831,38.0,30,30,4.0,0.0
6832,67.0,0,30,4.0,0.0
6833,59.0,29,30,4.0,0.0
6834,50.0,1,30,4.0,0.0
6835,38.0,30,30,4.0,0.0
6836,58.0,30,30,4.0,0.0
6837,64.0,0,30,4.0,0.0
6838,38.0,30,30,4.0,0.0
6839,50.0,0,30,4.0,0.0
6840,64.0,0,30,4.0,0.0
6841,58.0,30,30,4.0,0.0
6842,50.0,30,30,4.0,0.0
6843,38.0,0,30,4.0,0.0
6844,57.0,0,30,4.0,0.0
6845,65.0,30,30,4.0,0.0
6846,38.0,0,30,4.0,0.0
6847,50.0,30,30,4.0,0.0
6848,57.0,29,30,4.0,0.0
6849,65.0,0,30,4.0,0.0
6850,38.0,1,30,4.0,0.0
6851,50.0,30,30,4.0,0.0
6852,56.0,29,30,4.0,0.0
6853,62.0,0,30,4.0,0.0
6854,38.0,31,30,4.0,0.0
6855,50.0,0,30,4.0,0.0
6856,56.0,29,30,4.0,0.0
6857,62.0,0,30,4.0,0.0
6858,50.0,31,30,4.0,0.0
6859,38.0,0,30,4.0,0.0
6860,55.0,0,30,4.0,0.0
6861,63.0,29,30,4.0,0.0
6862,38.0,0,30,4.0,0.0
6863,50.0,31,30,4.0,0.0
6864,63.0,29,30,4.0,0.0
6865,55.0,0,30,4.0,0.0
6866,38.0,31,30,4.0,0.0
6867,50.0,0,30,4.0,0.0
6868,61.0,0,30,4.0,0.0
6869,55.0,29,30,4.0,0.0
6870,50.0,0,30,4.0,0.0
6871,38.0,31,30,4.0,0.0
6872,55.0,29,30,4.0,0.0
6873,61.0,0,30,4.0,0.0
6874,38.0,31,30,4.0,0.0
6875,50.0,0,30,4.0,0.0
6876,53.0,29,30,4.0,0.0
6877,62.0,0,30,4.0,0.0
6878,38.0,0,30,4.0,0.0
6879,50.0,31,30,4.0,0.0
6880,53.0,29,30,4.0,0.0
6881,62.0,0,30,4.0,0.0
6882,38.0,31,30,4.0,0.0
6883,50.0,0,30,4.0,0.0
6884,50.0,30,30,4.0,0.0
6885,44.0,0,30,4.0,0.0
6886,52.0,30,30,4.0,0.0
6887,53.0,15,30,4.0,0.0
6888,44.0,15,40,3.0,0.0
6889,59.0,30,30,4.0,0.0
6890,62.0,30,30,4.0,0.0
6891,44.0,30,120,3.0,0.0
6892,57.0,30,30,4.0,0.0
6893,59.0,0,40,2.0,0.0
6894,74.0,0,40,0.0,0.0
6895,65.0,15,40,1.0,0.0
6896,59.0,15,30,4.0,0.0
6897,56.0,0,30,4.0,0.0
6898,50.0,0,30,4.0,0.0
6899,59.0,0,120,2.0,0.0
6900,74.0,0,120,0.0,0.0
6901,65.0,30,120,1.0,0.0
6902,44.0,30,30,4.0,0.0
6903,52.0,30,30,4.0,0.0
6904,53.0,15,30,4.0,0.0
6905,44.0,15,40,3.0,0.0
6906,59.0,0,30,4.0,0.0
6907,62.0,30,30,4.0,0.0
6908,44.0,30,120,3.0,0.0
6909,59.0,30,30,4.0,0.0
6910,64.0,0,40,1.0,0.0
6911,56.0,15,30,4.0,0.0
6912,59.0,0,40,2.0,0.0
6913,74.0,15,40,0.0,0.0
6914,52.0,0,30,4.0,0.0
6915,74.0,0,120,0.0,0.0
6916,45.0,30,30,4.0,0.0
6917,53.0,0,30,4.0,0.0
6918,65.0,0,120,2.0,0.0
6919,57.0,0,120,1.0,0.0
6920,55.0,30,30,4.0,0.0
6921,45.0,15,40,3.0,0.0
6922,57.0,15,30,4.0,0.0
6923,61.0,30,30,4.0,0.0
6924,45.0,30,120,3.0,0.0
6925,62.0,30,30,4.0,0.0
6926,57.0,30,30,4.0,0.0
6927,65.0,0,40,1.0,0.0
6928,62.0,15,40,2.0,0.0
6929,74.0,0,40,0.0,0.0
6930,58.0,15,30,4.0,0.0
6931,55.0,0,30,4.0,0.0
6932,53.0,30,30,4.0,0.0
6933,45.0,0,30,4.0,0.0
6934,65.0,0,120,1.0,0.0
6935,62.0,30,120,2.0,0.0
6936,74.0,0,120,0.0,0.0
6937,55.0,30,30,4.0,0.0
6938,57.0,15,30,4.0,0.0
6939,45.0,15,40,3.0,0.0
6940,61.0,0,30,4.0,0.0
6941,62.0,30,30,4.0,0.0
6942,45.0,0,120,3.0,0.0
6943,57.0,30,30,4.0,0.0
6944,53.0,15,30,4.0,0.0
6945,57.0,15,40,2.0,0.0
6946,65.0,0,40,1.0,0.0
6947,74.0,0,40,0.0,0.0
6948,50.0,30,30,4.0,0.0
6949,64.0,0,120,2.0,0.0
6950,74.0,30,120,0.0,0.0
6951,46.0,30,30,4.0,0.0
6952,52.0,0,30,4.0,0.0
6953,67.0,0,120,1.0,0.0
6954,53.0,30,30,4.0,0.0
6955,46.0,15,40,3.0,0.0
6956,55.0,15,30,4.0,0.0
6957,61.0,0,30,4.0,0.0
6958,62.0,30,30,4.0,0.0
6959,46.0,0,120,3.0,0.0
6960,57.0,30,30,4.0,0.0
6961,55.0,0,40,2.0,0.0
6962,58.0,15,30,4.0,0.0
6963,64.0,15,40,1.0,0.0
6964,74.0,0,40,0.0,0.0
6965,55.0,30,30,4.0,0.0
6966,46.0,0,30,4.0,0.0
6967,52.0,30,30,4.0,0.0
6968,74.0,0,120,0.0,0.0
6969,55.0,0,120,2.0,0.0
6970,64.0,0,120,1.0,0.0
6971,53.0,30,30,4.0,0.0
6972,46.0,15,40,3.0,0.0
6973,55.0,15,30,4.0,0.0
6974,61.0,30,30,4.0,0.0
6975,46.0,0,120,3.0,0.0
6976,62.0,30,30,4.0,0.0
6977,58.0,30,30,4.0,0.0
6978,52.0,30,30,2.0,0.0
6979,67.0,0,30,1.0,0.0
6980,74.0,0,30,0.0,0.0
6981,55.0,0,30,4.0,0.0
6982,52.0,30,30,4.0,0.0
6983,74.0,0,120,0.0,0.0
6984,69.0,30,120,1.0,0.0
6985,53.0,0,120,2.0,0.0
6986,53.0,30,30,4.0,0.0
6987,45.0,0,30,4.0,0.0
6988,52.0,30,30,4.0,0.0
6989,53.0,15,30,4.0,0.0
6990,45.0,15,40,3.0,0.0
6991,57.0,0,30,4.0,0.0
6992,45.0,0,120,3.0,0.0
6993,62.0,30,30,4.0,0.0
6994,57.0,30,30,4.0,0.0
6995,64.0,0,30,2.0,0.0
6996,74.0,30,30,0.0,0.0
6997,67.0,0,30,1.0,0.0
6998,58.0,0,30,4.0,0.0
6999,55.0,30,30,4.0,0.0
7000,74.0,30,120,0.0,0.0
7001,69.0,0,120,1.0,0.0
7002,53.0,30,30,4.0,0.0
7003,45.0,0,30,4.0,0.0
7004,65.0,0,120,2.0,0.0
7005,52.0,30,30,4.0,0.0
7006,45.0,15,40,3.0,0.0
7007,53.0,15,30,4.0,0.0
7008,57.0,0,30,4.0,0.0
7009,45.0,0,120,3.0,0.0
7010,62.0,30,30,4.0,0.0
7011,57.0,30,30,4.0,0.0
7012,69.0,0,40,1.0,0.0
7013,65.0,15,30,4.0,0.0
7014,74.0,15,40,0.0,0.0
7015,65.0,0,40,2.0,0.0
7016,62.0,15,30,4.0,0.0
7017,65.0,0,240,2.0,0.0
7018,56.0,15,15,4.0,0.0
7019,44.0,0,480,3.0,0.0
7020,71.0,0,480,1.0,0.0
7021,74.0,15,480,0.0,0.0
7022,62.0,15,15,4.0,0.0
7023,64.0,15,15,4.0,0.0
7024,65.0,15,15,4.0,0.0
7025,71.0,15,15,4.0,0.0
7026,65.0,15,15,4.0,0.0
7027,64.0,15,15,4.0,0.0
7028,62.0,15,15,4.0,0.0
7029,56.0,15,15,4.0,0.0
7030,62.0,15,15,4.0,0.0
7031,64.0,15,15,4.0,0.0
7032,65.0,15,15,4.0,0.0
7033,71.0,15,15,4.0,0.0
7034,65.0,15,15,4.0,0.0
7035,64.0,15,15,4.0,0.0
7036,62.0,15,15,4.0,0.0
7037,64.0,0,720,2.0,0.0
7038,56.0,15,15,4.0,0.0
7039,62.0,15,15,4.0,0.0
7040,59.0,15,15,4.0,0.0
7041,64.0,15,15,4.0,0.0
7042,71.0,15,15,4.0,0.0
7043,64.0,15,15,4.0,0.0
7044,59.0,15,15,4.0,0.0
7045,62.0,15,15,4.0,0.0
7046,56.0,15,15,4.0,0.0
7047,62.0,15,15,4.0,0.0
7048,59.0,15,15,4.0,0.0
7049,64.0,15,15,4.0,0.0
7050,71.0,15,15,4.0,0.0
7051,64.0,15,15,4.0,0.0
7052,59.0,15,15,4.0,0.0
7053,62.0,0,15,4.0,0.0
7054,45.0,0,2400,3.0,0.0
7055,55.0,15,15,4.0,0.0
7056,70.0,0,240,1.0,0.0
7057,73.0,0,480,0.0,0.0
7058,61.0,15,15,4.0,0.0
7059,62.0,15,15,4.0,0.0
7060,64.0,15,15,4.0,0.0
7061,70.0,15,15,4.0,0.0
7062,64.0,15,15,4.0,0.0
7063,62.0,15,15,4.0,0.0
7064,61.0,15,15,4.0,0.0
7065,55.0,15,15,4.0,0.0
7066,61.0,15,15,4.0,0.0
7067,62.0,15,15,4.0,0.0
7068,64.0,15,15,4.0,0.0
7069,70.0,15,15,4.0,0.0
7070,64.0,15,15,4.0,0.0
7071,62.0,15,15,4.0,0.0
7072,61.0,15,15,4.0,0.0
7073,55.0,15,15,4.0,0.0
7074,61.0,15,15,4.0,0.0
7075,57.0,15,15,4.0,0.0
7076,64.0,15,15,4.0,0.0
7077,69.0,15,15,4.0,0.0
7078,64.0,15,15,4.0,0.0
7079,57.0,15,15,4.0,0.0
7080,61.0,15,15,4.0,0.0
7081,55.0,15,15,4.0,0.0
7082,61.0,15,15,4.0,0.0
7083,57.0,15,15,4.0,0.0
7084,64.0,15,15,4.0,0.0
7085,69.0,15,15,4.0,0.0
7086,64.0,15,15,4.0,0.0
7087,57.0,15,15,4.0,0.0
7088,61.0,15,15,4.0,0.0
7089,69.0,0,15,1.0,0.0
7090,62.0,0,480,2.0,0.0
7091,74.0,0,480,0.0,0.0
7092,54.0,15,15,4.0,0.0
7093,60.0,15,15,4.0,0.0
7094,57.0,15,15,4.0,0.0
7095,62.0,15,15,4.0,0.0
7096,69.0,15,15,4.0,0.0
7097,62.0,15,15,4.0,0.0
7098,57.0,15,15,4.0,0.0
7099,60.0,15,15,4.0,0.0
7100,54.0,15,15,4.0,0.0
7101,60.0,15,15,4.0,0.0
7102,57.0,15,15,4.0,0.0
7103,62.0,15,15,4.0,0.0
7104,69.0,15,15,4.0,0.0
7105,62.0,15,15,4.0,0.0
7106,57.0,15,15,4.0,0.0
7107,60.0,0,15,4.0,0.0
7108,53.0,15,15,4.0,0.0
7109,71.0,0,240,1.0,0.0
7110,62.0,15,15,4.0,0.0
7111,61.0,15,15,4.0,0.0
7112,69.0,15,15,4.0,0.0
7113,71.0,15,15,4.0,0.0
7114,69.0,15,15,4.0,0.0
7115,61.0,15,15,4.0,0.0
7116,62.0,15,15,4.0,0.0
7117,53.0,15,15,4.0,0.0
7118,62.0,15,15,4.0,0.0
7119,61.0,15,15,4.0,0.0
7120,69.0,15,15,4.0,0.0
7121,71.0,15,15,4.0,0.0
7122,69.0,15,15,4.0,0.0
7123,61.0,15,15,4.0,0.0
7124,62.0,15,15,4.0,0.0
7125,73.0,0,240,1.0,0.0
7126,67.0,0,240,2.0,0.0
7127,76.0,15,240,0.0,0.0
7128,58.0,15,15,4.0,0.0
7129,64.0,15,15,4.0,0.0
7130,65.0,15,15,4.0,0.0
7131,67.0,15,15,4.0,0.0
7132,73.0,15,15,4.0,0.0
7133,67.0,15,15,4.0,0.0
7134,65.0,15,15,4.0,0.0
7135,64.0,15,15,4.0,0.0
7136,58.0,15,15,4.0,0.0
7137,64.0,15,15,4.0,0.0
7138,65.0,15,15,4.0,0.0
7139,67.0,15,15,4.0,0.0
7140,73.0,15,15,4.0,0.0
7141,67.0,15,15,4.0,0.0
7142,65.0,15,15,4.0,0.0
7143,64.0,0,15,4.0,0.0
7144,62.0,0,240,2.0,0.0
7145,74.0,0,960,1.0,0.0
7146,77.0,0,480,0.0,0.0
7147,57.0,15,15,4.0,0.0
7148,65.0,15,15,4.0,0.0
7149,69.0,15,15,4.0,0.0
7150,73.0,15,15,4.0,0.0
7151,74.0,15,15,4.0,0.0
7152,73.0,15,15,4.0,0.0
7153,69.0,15,15,4.0,0.0
7154,65.0,15,15,4.0,0.0
7155,57.0,15,15,4.0,0.0
7156,65.0,15,15,4.0,0.0
7157,69.0,15,15,4.0,0.0
7158,73.0,15,15,4.0,0.0
7159,74.0,15,15,4.0,0.0
7160,73.0,15,15,4.0,0.0
7161,69.0,15,15,4.0,0.0
7162,65.0,15,15,4.0,0.0
7163,59.0,15,240,2.0,0.0
7164,56.0,15,15,4.0,0.0
7165,65.0,15,15,4.0,0.0
7166,71.0,15,15,4.0,0.0
7167,73.0,15,15,4.0,0.0
7168,74.0,15,15,4.0,0.0
7169,73.0,15,15,4.0,0.0
7170,71.0,15,15,4.0,0.0
7171,65.0,15,15,4.0,0.0
7172,56.0,15,15,4.0,0.0
7173,65.0,15,15,4.0,0.0
7174,71.0,15,15,4.0,0.0
7175,73.0,15,15,4.0,0.0
7176,74.0,15,15,4.0,0.0
7177,73.0,15,15,4.0,0.0
7178,71.0,15,15,4.0,0.0
7179,65.0,0,15,4.0,0.0
7180,76.0,0,720,0.0,0.0
7181,56.0,15,15,4.0,0.0
7182,71.0,0,240,2.0,0.0
7183,64.0,15,15,4.0,0.0
7184,71.0,15,15,4.0,0.0
7185,73.0,15,15,4.0,0.0
7186,74.0,15,15,4.0,0.0
7187,73.0,15,15,4.0,0.0
7188,71.0,15,15,4.0,0.0
7189,64.0,15,15,4.0,0.0
7190,56.0,15,15,4.0,0.0
7191,64.0,15,15,4.0,0.0
7192,71.0,15,15,4.0,0.0
7193,73.0,15,15,4.0,0.0
7194,74.0,15,15,4.0,0.0
7195,73.0,15,15,4.0,0.0
7196,71.0,15,15,4.0,0.0
7197,64.0,15,15,4.0,0.0
7198,64.0,15,240,2.0,0.0
7199,57.0,15,15,4.0,0.0
7200,67.0,15,15,4.0,0.0
7201,64.0,15,15,4.0,0.0
7202,70.0,15,15,4.0,0.0
7203,74.0,15,15,4.0,0.0
7204,70.0,15,15,4.0,0.0
7205,64.0,15,15,4.0,0.0
7206,67.0,15,15,4.0,0.0
7207,57.0,15,15,4.0,0.0
7208,67.0,15,15,4.0,0.0
7209,64.0,15,15,4.0,0.0
7210,70.0,15,15,4.0,0.0
7211,74.0,15,15,4.0,0.0
7212,70.0,15,15,4.0,0.0
7213,64.0,15,15,4.0,0.0
7214,67.0,0,15,4.0,0.0
7215,57.0,15,15,4.0,0.0
7216,67.0,0,240,2.0,0.0
7217,73.0,30,240,1.0,0.0
7218,67.0,15,15,4.0,0.0
7219,64.0,15,15,4.0,0.0
7220,69.0,15,15,4.0,0.0
7221,73.0,15,15,4.0,0.0
7222,69.0,15,15,4.0,0.0
7223,64.0,15,15,4.0,0.0
7224,67.0,15,15,4.0,0.0
7225,57.0,15,15,4.0,0.0
7226,67.0,15,15,4.0,0.0
7227,64.0,15,15,4.0,0.0
7228,69.0,15,15,4.0,0.0
7229,73.0,15,15,4.0,0.0
7230,69.0,15,15,4.0,0.0
7231,64.0,15,15,4.0,0.0
7232,57.0,0,15,4.0,0.0
7233,50.0,0,30,3.0,0.0
7234,65.0,30,30,2.0,0.0
7235,50.0,0,30,4.0,0.0
7236,62.0,0,30,4.0,0.0
7237,62.0,0,30,1.0,0.0
7238,62.0,0,30,0.0,0.0
7239,64.0,0,30,2.0,0.0
7240,64.0,30,30,4.0,0.0
7241,52.0,0,30,4.0,0.0
7242,64.0,0,30,1.0,0.0
7243,52.0,0,30,3.0,0.0
7244,64.0,0,30,0.0,0.0
7245,65.0,0,30,4.0,0.0
7246,53.0,0,30,4.0,0.0
7247,65.0,0,30,0.0,0.0
7248,53.0,75,30,3.0,0.0
7249,65.0,0,30,2.0,0.0
7250,65.0,0,30,1.0,0.0
7251,52.0,0,60,4.0,0.0
7252,64.0,15,40,1.0,0.0
7253,64.0,0,40,2.0,0.0
7254,64.0,0,40,0.0,0.0
7255,52.0,0,40,3.0,0.0
7256,64.0,45,60,4.0,0.0
7257,62.0,0,40,2.0,0.0
7258,62.0,15,40,1.0,0.0
7259,50.0,0,40,3.0,0.0
7260,50.0,45,60,4.0,0.0
7261,62.0,0,60,4.0,0.0
7262,62.0,0,40,0.0,0.0
7263,69.0,15,40,2.0,0.0
7264,57.0,0,40,3.0,0.0
7265,69.0,105,60,4.0,0.0
7266,57.0,0,60,4.0,0.0
7267,69.0,0,40,1.0,0.0
7268,69.0,0,40,0.0,0.0
7269,62.0,0,120,3.0,0.0
7270,74.0,45,120,4.0,0.0
7271,62.0,0,120,4.0,0.0
7272,74.0,15,120,0.0,0.0
7273,74.0,0,120,1.0,0.0
7274,74.0,0,120,2.0,0.0
7275,57.0,0,40,3.0,0.0
7276,69.0,0,40,2.0,0.0
7277,69.0,15,40,0.0,0.0
7278,69.0,0,40,1.0,0.0
7279,69.0,0,60,4.0,0.0
7280,57.0,45,60,4.0,0.0
7281,58.0,30,60,4.0,0.0
7282,70.0,0,40,2.0,0.0
7283,70.0,0,40,1.0,0.0
7284,70.0,0,40,0.0,0.0
7285,58.0,15,40,3.0,0.0
7286,70.0,0,60,4.0,0.0
7287,67.0,0,30,1.0,0.0
7288,67.0,0,30,0.0,0.0
7289,67.0,0,30,2.0,0.0
7290,55.0,0,30,3.0,0.0
7291,55.0,30,30,4.0,0.0
7292,67.0,0,30,4.0,0.0
7293,64.0,45,30,2.0,0.0
7294,64.0,0,30,0.0,0.0
7295,64.0,0,30,1.0,0.0
7296,52.0,0,30,3.0,0.0
7297,64.0,0,30,4.0,0.0
7298,52.0,0,30,4.0,0.0
7299,69.0,30,60,4.0,0.0
7300,57.0,15,40,3.0,0.0
7301,69.0,0,40,0.0,0.0
7302,57.0,0,60,4.0,0.0
7303,69.0,0,40,2.0,0.0
7304,69.0,0,40,1.0,0.0
7305,65.0,0,30,0.0,0.0
7306,65.0,30,30,1.0,0.0
7307,53.0,0,30,4.0,0.0
7308,65.0,0,30,4.0,0.0
7309,65.0,0,30,2.0,0.0
7310,53.0,0,30,3.0,0.0
7311,62.0,0,30,1.0,0.0
7312,50.0,0,30,4.0,0.0
7313,62.0,0,30,0.0,0.0
7314,62.0,0,30,4.0,0.0
7315,62.0,0,30,2.0,0.0
7316,50.0,45,30,3.0,0.0
7317,67.0,0,40,1.0,0.0
7318,67.0,15,40,0.0,0.0
7319,55.0,0,40,3.0,0.0
7320,67.0,0,60,4.0,0.0
7321,55.0,30,60,4.0,0.0
7322,67.0,0,40,2.0,0.0
7323,64.0,0,30,1.0,0.0
7324,64.0,0,30,2.0,0.0
7325,52.0,0,30,3.0,0.0
7326,64.0,0,30,0.0,0.0
7327,52.0,0,30,4.0,0.0
7328,64.0,30,30,4.0,0.0
7329,61.0,0,30,1.0,0.0
7330,61.0,0,30,2.0,0.0
7331,61.0,0,30,4.0,0.0
7332,49.0,0,30,4.0,0.0
7333,49.0,0,30,3.0,0.0
7334,61.0,30,30,0.0,0.0
7335,45.0,0,40,3.0,0.0
7336,57.0,0,40,1.0,0.0
7337,57.0,15,40,2.0,0.0
7338,57.0,0,40,0.0,0.0
7339,57.0,0,60,4.0,0.0
7340,45.0,15,30,4.0,0.0
7341,53.0,30,30,4.0,0.0
7342,76.0,0,120,0.0,0.0
7343,70.0,0,120,1.0,0.0
7344,70.0,30,60,4.0,0.0
7345,52.0,15,30,4.0,0.0
7346,67.0,0,40,2.0,0.0
7347,49.0,15,40,3.0,0.0
7348,50.0,0,30,4.0,0.0
7349,52.0,0,40,3.0,0.0
7350,67.0,15,40,2.0,0.0
7351,49.0,15,30,4.0,0.0
7352,58.0,30,30,4.0,0.0
7353,70.0,15,30,0.0,0.0
7354,79.0,15,120,1.0,0.0
7355,55.0,0,40,3.0,0.0
7356,64.0,0,30,4.0,0.0
7357,67.0,15,40,2.0,0.0
7358,67.0,30,30,0.0,0.0
7359,62.0,0,30,4.0,0.0
7360,61.0,0,40,0.0,0.0
7361,64.0,15,30,4.0,0.0
7362,58.0,0,40,3.0,0.0
7363,67.0,0,40,2.0,0.0
7364,58.0,30,30,4.0,0.0
7365,57.0,0,30,4.0,0.0
7366,67.0,0,40,2.0,0.0
7367,55.0,15,40,3.0,0.0
7368,76.0,15,30,1.0,0.0
7369,76.0,0,120,0.0,0.0
7370,55.0,0,30,4.0,0.0
7371,73.0,30,30,1.0,0.0
7372,64.0,0,40,1.0,0.0
7373,67.0,15,40,2.0,0.0
7374,52.0,0,40,3.0,0.0
7375,49.0,15,30,4.0,0.0
7376,57.0,30,30,4.0,0.0
7377,79.0,0,120,1.0,0.0
7378,67.0,15,40,2.0,0.0
7379,70.0,15,30,0.0,0.0
7380,64.0,0,30,4.0,0.0
7381,49.0,0,40,3.0,0.0
7382,62.0,30,30,4.0,0.0
7383,67.0,0,30,0.0,0.0
7384,61.0,0,40,0.0,0.0
7385,45.0,15,40,3.0,0.0
7386,69.0,0,40,2.0,0.0
7387,64.0,15,30,4.0,0.0
7388,58.0,30,30,4.0,0.0
7389,57.0,15,40,3.0,0.0
7390,76.0,15,30,1.0,0.0
7391,69.0,0,40,2.0,0.0
7392,57.0,0,30,4.0,0.0
7393,73.0,0,60,0.0,0.0
7394,73.0,0,30,1.0,0.0
7395,55.0,30,30,4.0,0.0
7396,74.0,15,40,0.0,0.0
7397,69.0,0,120,2.0,0.0
7398,50.0,0,120,3.0,0.0
7399,50.0,15,30,4.0,0.0
7400,69.0,0,40,1.0,0.0
7401,53.0,0,30,4.0,0.0
7402,57.0,30,30,4.0,0.0
7403,69.0,15,40,0.0,0.0
7404,62.0,15,30,4.0,0.0
7405,65.0,0,40,1.0,0.0
7406,61.0,30,30,4.0,0.0
7407,62.0,0,120,2.0,0.0
7408,62.0,15,40,1.0,0.0
7409,65.0,0,40,0.0,0.0
7410,62.0,15,30,4.0,0.0
7411,58.0,30,30,4.0,0.0
7412,65.0,15,40,1.0,0.0
7413,69.0,0,40,0.0,0.0
7414,57.0,15,30,4.0,0.0
7415,55.0,30,30,4.0,0.0
7416,50.0,0,30,4.0,0.0
7417,74.0,0,40,0.0,0.0
7418,69.0,15,40,1.0,0.0
7419,50.0,30,120,3.0,0.0
7420,53.0,15,30,4.0,0.0
7421,57.0,30,30,4.0,0.0
7422,65.0,0,40,1.0,0.0
7423,69.0,15,40,0.0,0.0
7424,62.0,15,30,4.0,0.0
7425,61.0,0,30,4.0,0.0
7426,62.0,0,120,2.0,0.0
7427,65.0,15,40,0.0,0.0
7428,62.0,15,30,4.0,0.0
7429,62.0,0,40,1.0,0.0
7430,58.0,30,30,4.0,0.0
7431,66.0,15,40,1.0,0.0
7432,57.0,15,30,4.0,0.0
7433,84.0,0,120,0.0,0.0
7434,55.0,30,30,4.0,0.0
7435,60.0,0,40,2.0,0.0
7436,45.0,15,40,3.0,0.0
7437,75.0,0,40,1.0,0.0
7438,54.0,15,30,4.0,0.0
7439,63.0,30,30,4.0,0.0
7440,84.0,0,120,1.0,0.0
7441,75.0,0,30,0.0,0.0
7442,69.0,15,30,4.0,0.0
7443,60.0,0,40,2.0,0.0
7444,48.0,15,40,3.0,0.0
7445,67.0,0,30,4.0,0.0
7446,72.0,30,30,0.0,0.0
7447,51.0,15,40,3.0,0.0
7448,69.0,15,30,4.0,0.0
7449,60.0,0,40,2.0,0.0
7450,66.0,0,40,0.0,0.0
7451,63.0,30,30,4.0,0.0
7452,60.0,15,40,2.0,0.0
7453,48.0,0,40,3.0,0.0
7454,62.0,0,30,4.0,0.0
7455,81.0,15,30,1.0,0.0
7456,84.0,0,120,0.0,0.0
7457,60.0,0,30,4.0,0.0
7458,78.0,30,30,1.0,0.0
7459,69.0,0,40,1.0,0.0
7460,60.0,15,40,2.0,0.0
7461,45.0,0,40,3.0,0.0
7462,54.0,15,30,4.0,0.0
7463,63.0,30,30,4.0,0.0
7464,42.0,15,40,3.0,0.0
7465,75.0,15,30,0.0,0.0
7466,60.0,0,40,2.0,0.0
7467,84.0,0,120,1.0,0.0
7468,69.0,0,30,4.0,0.0
7469,67.0,30,30,4.0,0.0
7470,72.0,0,30,0.0,0.0
7471,62.0,15,40,2.0,0.0
7472,38.0,0,40,3.0,0.0
7473,66.0,0,40,0.0,0.0
7474,69.0,15,30,4.0,0.0
7475,63.0,30,30,4.0,0.0
7476,50.0,0,40,3.0,0.0
7477,78.0,0,40,0.0,0.0
7478,62.0,15,30,4.0,0.0
7479,81.0,0,30,1.0,0.0
7480,62.0,15,40,2.0,0.0
7481,78.0,0,30,1.0,0.0
7482,60.0,30,30,4.0,0.0
7483,58.0,0,30,4.0,0.0
7484,55.0,15,30,4.0,0.0
7485,79.0,0,40,0.0,0.0
7486,74.0,15,40,1.0,0.0
7487,43.0,0,120,3.0,0.0
7488,62.0,0,120,2.0,0.0
7489,62.0,30,30,4.0,0.0
7490,74.0,15,40,0.0,0.0
7491,67.0,15,30,4.0,0.0
7492,70.0,0,40,1.0,0.0
7493,66.0,30,30,4.0,0.0
7494,67.0,15,40,1.0,0.0
7495,70.0,0,40,0.0,0.0
7496,67.0,15,30,4.0,0.0
7497,55.0,0,120,2.0,0.0
7498,63.0,30,30,4.0,0.0
7499,62.0,15,30,4.0,0.0
7500,70.0,0,40,1.0,0.0
7501,74.0,15,40,0.0,0.0
7502,60.0,30,30,4.0,0.0
7503,74.0,15,40,1.0,0.0
7504,79.0,0,40,0.0,0.0
7505,43.0,30,120,3.0,0.0
7506,58.0,15,30,4.0,0.0
7507,55.0,0,30,4.0,0.0
7508,62.0,30,30,4.0,0.0
7509,70.0,15,40,1.0,0.0
7510,74.0,0,40,0.0,0.0
7511,67.0,15,30,4.0,0.0
7512,66.0,0,30,4.0,0.0
7513,55.0,30,120,2.0,0.0
7514,70.0,0,40,0.0,0.0
7515,67.0,15,30,4.0,0.0
7516,67.0,15,40,1.0,0.0
7517,60.0,30,30,4.0,0.0
7518,74.0,0,120,0.0,0.0
7519,70.0,15,40,1.0,0.0
7520,58.0,15,30,4.0,0.0
7521,57.0,0,30,4.0,0.0
7522,56.0,15,30,4.0,0.0
7523,47.0,15,40,3.0,0.0
7524,77.0,0,40,1.0,0.0
7525,62.0,0,40,2.0,0.0
7526,65.0,30,30,4.0,0.0
7527,50.0,15,40,3.0,0.0
7528,62.0,0,40,2.0,0.0
7529,71.0,0,30,4.0,0.0
7530,65.0,15,30,0.0,0.0
7531,74.0,0,120,1.0,0.0
7532,69.0,30,30,4.0,0.0
7533,62.0,0,30,0.0,0.0
7534,56.0,0,40,0.0,0.0
7535,71.0,15,30,4.0,0.0
7536,62.0,15,40,2.0,0.0
7537,53.0,0,40,3.0,0.0
7538,65.0,30,30,4.0,0.0
7539,50.0,0,40,3.0,0.0
7540,71.0,15,30,1.0,0.0
7541,74.0,0,120,0.0,0.0
7542,62.0,15,40,2.0,0.0
7543,64.0,0,30,4.0,0.0
7544,62.0,30,30,4.0,0.0
7545,68.0,0,30,1.0,0.0
7546,47.0,15,40,3.0,0.0
7547,56.0,15,30,4.0,0.0
7548,56.0,0,40,1.0,0.0
7549,62.0,0,40,2.0,0.0
7550,65.0,30,30,4.0,0.0
7551,71.0,15,30,4.0,0.0
7552,62.0,15,40,2.0,0.0
7553,65.0,0,30,0.0,0.0
7554,74.0,0,120,1.0,0.0
7555,44.0,0,40,3.0,0.0
7556,62.0,30,30,0.0,0.0
7557,69.0,0,30,4.0,0.0
7558,40.0,15,40,3.0,0.0
7559,71.0,15,30,4.0,0.0
7560,56.0,0,40,0.0,0.0
7561,64.0,0,40,2.0,0.0
7562,65.0,30,30,4.0,0.0
7563,71.0,0,30,1.0,0.0
7564,64.0,15,30,4.0,0.0
7565,76.0,0,120,0.0,0.0
7566,52.0,0,40,3.0,0.0
7567,64.0,15,40,2.0,0.0
7568,68.0,30,30,1.0,0.0
7569,62.0,0,30,4.0,0.0
7570,61.0,15,30,4.0,0.0
7571,64.0,0,40,2.0,0.0
7572,57.0,0,30,4.0,0.0
7573,69.0,0,40,1.0,0.0
7574,45.0,15,40,3.0,0.0
7575,70.0,30,30,4.0,0.0
7576,70.0,15,30,0.0,0.0
7577,76.0,0,30,4.0,0.0
7578,64.0,15,40,2.0,0.0
7579,55.0,0,40,3.0,0.0
7580,67.0,15,120,1.0,0.0
7581,67.0,30,30,0.0,0.0
7582,74.0,0,30,4.0,0.0
7583,76.0,15,30,4.0,0.0
7584,67.0,0,40,2.0,0.0
7585,58.0,0,40,3.0,0.0
7586,61.0,0,40,0.0,0.0
7587,70.0,30,30,4.0,0.0
7588,64.0,15,30,1.0,0.0
7589,69.0,0,30,4.0,0.0
7590,76.0,0,120,0.0,0.0
7591,55.0,0,40,3.0,0.0
7592,67.0,15,40,2.0,0.0
7593,67.0,0,30,4.0,0.0
7594,61.0,30,30,1.0,0.0
7595,61.0,0,30,4.0,0.0
7596,57.0,15,30,4.0,0.0
7597,57.0,15,40,1.0,0.0
7598,67.0,0,40,2.0,0.0
7599,52.0,0,40,3.0,0.0
7600,70.0,30,30,4.0,0.0
7601,49.0,0,40,3.0,0.0
7602,70.0,0,30,0.0,0.0
7603,67.0,15,40,2.0,0.0
7604,76.0,15,30,4.0,0.0
7605,67.0,0,120,1.0,0.0
7606,67.0,30,30,0.0,0.0
7607,74.0,0,30,4.0,0.0
7608,76.0,15,30,4.0,0.0
7609,45.0,0,40,3.0,0.0
7610,61.0,15,40,0.0,0.0
7611,69.0,0,40,2.0,0.0
7612,70.0,30,30,4.0,0.0
7613,81.0,0,40,0.0,0.0
7614,69.0,0,30,4.0,0.0
7615,57.0,15,40,3.0,0.0
7616,69.0,0,40,2.0,0.0
7617,64.0,15,30,1.0,0.0
7618,61.0,30,30,1.0,0.0
7619,67.0,0,30,4.0,0.0
7620,81.0,15,40,0.0,0.0
7621,69.0,0,120,2.0,0.0
7622,65.0,0,30,4.0,0.0
7623,62.0,15,30,4.0,0.0
7624,50.0,30,120,3.0,0.0
7625,74.0,0,40,1.0,0.0
7626,69.0,30,30,4.0,0.0
7627,77.0,0,40,0.0,0.0
7628,69.0,15,40,1.0,0.0
7629,74.0,15,30,4.0,0.0
7630,73.0,0,30,4.0,0.0
7631,74.0,15,40,0.0,0.0
7632,65.0,0,40,1.0,0.0
7633,62.0,30,120,2.0,0.0
7634,74.0,15,30,4.0,0.0
7635,67.0,30,30,4.0,0.0
7636,65.0,15,30,4.0,0.0
7637,69.0,0,40,1.0,0.0
7638,77.0,15,40,0.0,0.0
7639,64.0,0,30,4.0,0.0
7640,62.0,0,30,4.0,0.0
7641,48.0,30,120,3.0,0.0
7642,74.0,0,40,1.0,0.0
7643,53.0,15,30,4.0,0.0
7644,81.0,15,40,0.0,0.0
7645,69.0,30,30,4.0,0.0
7646,69.0,15,40,1.0,0.0
7647,77.0,0,40,0.0,0.0
7648,74.0,15,30,4.0,0.0
7649,73.0,0,30,4.0,0.0
7650,60.0,0,120,2.0,0.0
7651,74.0,15,30,4.0,0.0
7652,65.0,0,40,1.0,0.0
7653,74.0,15,40,0.0,0.0
7654,64.0,30,30,4.0,0.0
7655,77.0,15,40,0.0,0.0
7656,62.0,15,30,4.0,0.0
7657,69.0,0,40,1.0,0.0
7658,60.0,30,30,4.0,0.0
7659,82.0,0,40,0.0,0.0
7660,46.0,30,120,3.0,0.0
7661,58.0,15,30,4.0,0.0
7662,46.0,0,30,4.0,0.0
7663,74.0,15,40,1.0,0.0
7664,65.0,30,30,4.0,0.0
7665,74.0,15,30,4.0,0.0
7666,77.0,15,40,0.0,0.0
7667,70.0,0,40,1.0,0.0
7668,73.0,0,30,4.0,0.0
7669,74.0,15,30,4.0,0.0
7670,65.0,0,40,1.0,0.0
7671,74.0,15,40,0.0,0.0
7672,58.0,30,120,2.0,0.0
7673,58.0,30,30,4.0,0.0
7674,74.0,0,40,1.0,0.0
7675,77.0,15,40,0.0,0.0
7676,57.0,15,30,4.0,0.0
7677,55.0,0,30,4.0,0.0
7678,74.0,15,40,1.0,0.0
7679,53.0,0,30,4.0,0.0
7680,45.0,30,120,3.0,0.0
7681,45.0,15,30,4.0,0.0
7682,81.0,0,40,0.0,0.0
7683,69.0,30,30,4.0,0.0
7684,74.0,15,30,4.0,0.0
7685,69.0,15,40,1.0,0.0
7686,77.0,0,40,0.0,0.0
7687,73.0,0,30,4.0,0.0
7688,74.0,0,40,0.0,0.0
7689,57.0,30,120,2.0,0.0
7690,65.0,15,40,1.0,0.0
7691,74.0,15,30,4.0,0.0
7692,69.0,30,30,4.0,0.0
7693,67.0,15,30,4.0,0.0
7694,69.0,15,40,1.0,0.0
7695,77.0,0,40,0.0,0.0
7696,65.0,0,30,4.0,0.0
7697,76.0,30,60,0.0,0.0
7698,55.0,0,60,4.0,0.0
7699,70.0,30,30,4.0,0.0
7700,43.0,0,120,3.0,0.0
7701,58.0,0,60,1.0,0.0
7702,43.0,0,60,4.0,0.0
7703,67.0,0,30,4.0,0.0
7704,65.0,15,30,4.0,0.0
7705,62.0,0,40,1.0,0.0
7706,74.0,15,40,0.0,0.0
7707,64.0,30,30,4.0,0.0
7708,64.0,0,60,1.0,0.0
7709,73.0,0,60,0.0,0.0
7710,55.0,0,120,2.0,0.0
7711,67.0,30,30,4.0,0.0
7712,64.0,30,30,4.0,0.0
7713,65.0,0,40,1.0,0.0
7714,62.0,15,30,4.0,0.0
7715,74.0,15,40,0.0,0.0
7716,61.0,30,30,4.0,0.0
7717,70.0,0,60,0.0,0.0
7718,37.0,0,120,3.0,0.0
7719,64.0,0,60,1.0,0.0
7720,49.0,0,60,4.0,0.0
7721,55.0,0,60,4.0,0.0
7722,64.0,30,30,4.0,0.0
7723,61.0,30,30,4.0,0.0
7724,67.0,0,40,1.0,0.0
7725,76.0,15,40,0.0,0.0
7726,59.0,15,30,4.0,0.0
7727,57.0,30,30,4.0,0.0
7728,61.0,0,60,1.0,0.0
7729,79.0,0,60,0.0,0.0
7730,58.0,15,30,4.0,0.0
7731,52.0,15,40,2.0,0.0
7732,55.0,30,30,4.0,0.0
7733,67.0,15,40,1.0,0.0
7734,70.0,0,40,0.0,0.0
7735,60.0,0,40,2.0,0.0
7736,53.0,15,30,4.0,0.0
7737,52.0,30,30,4.0,0.0
7738,62.0,30,60,2.0,0.0
7739,50.0,0,120,4.0,0.0
7740,65.0,0,60,1.0,0.0
7741,53.0,30,30,4.0,0.0
7742,38.0,30,120,3.0,0.0
7743,69.0,0,60,0.0,0.0
7744,57.0,0,30,4.0,0.0
7745,62.0,30,30,4.0,0.0
7746,61.0,0,30,4.0,0.0
7747,62.0,30,30,4.0,0.0
7748,57.0,30,30,4.0,0.0
7749,38.0,0,30,4.0,0.0
7750,65.0,30,30,4.0,0.0
7751,50.0,0,30,3.0,0.0
7752,52.0,0,30,3.0,0.0
7753,40.0,0,30,4.0,0.0
7754,62.0,45,30,4.0,0.0
7755,69.0,10,60,4.0,0.0
7756,41.0,0,60,4.0,0.0
7757,53.0,15,40,3.0,0.0
7758,55.0,15,40,3.0,0.0
7759,45.0,10,15,4.0,0.0
7760,62.0,45,60,4.0,0.0
7761,43.0,10,15,4.0,0.0
7762,41.0,15,15,4.0,0.0
7763,43.0,0,30,4.0,0.0
7764,57.0,15,40,3.0,0.0
7765,45.0,45,60,4.0,0.0
7766,57.0,0,60,4.0,0.0
7767,61.0,30,60,4.0,0.0
7768,33.0,0,60,4.0,0.0
7769,45.0,15,40,3.0,0.0
7770,62.0,0,30,4.0,0.0
7771,50.0,0,30,3.0,0.0
7772,62.0,0,30,2.0,0.0
7773,50.0,30,30,4.0,0.0
7774,62.0,0,30,0.0,0.0
7775,62.0,0,30,1.0,0.0
7776,64.0,0,30,1.0,0.0
7777,52.0,0,30,3.0,0.0
7778,64.0,0,30,4.0,0.0
7779,52.0,0,30,4.0,0.0
7780,64.0,0,30,0.0,0.0
7781,64.0,30,30,2.0,0.0
7782,65.0,0,30,4.0,0.0
7783,53.0,0,30,3.0,0.0
7784,65.0,75,30,2.0,0.0
7785,65.0,0,30,1.0,0.0
7786,65.0,0,30,0.0,0.0
7787,53.0,0,30,4.0,0.0
7788,52.0,0,40,3.0,0.0
7789,64.0,0,40,2.0,0.0
7790,64.0,15,40,0.0,0.0
7791,52.0,0,60,4.0,0.0
7792,64.0,45,60,4.0,0.0
7793,64.0,0,40,1.0,0.0
7794,62.0,15,40,2.0,0.0
7795,62.0,0,60,4.0,0.0
7796,62.0,0,40,0.0,0.0
7797,62.0,0,40,1.0,0.0
7798,50.0,45,60,4.0,0.0
7799,50.0,0,40,3.0,0.0
7800,57.0,15,40,3.0,0.0
7801,69.0,105,60,4.0,0.0
7802,69.0,0,40,1.0,0.0
7803,69.0,0,40,0.0,0.0
7804,57.0,0,60,4.0,0.0
7805,69.0,0,40,2.0,0.0
7806,74.0,0,120,2.0,0.0
7807,74.0,14,120,1.0,0.0
7808,74.0,0,120,0.0,0.0
7809,74.0,46,120,4.0,0.0
7810,62.0,0,120,4.0,0.0
7811,62.0,0,120,3.0,0.0
7812,69.0,0,40,0.0,0.0
7813,57.0,46,60,4.0,0.0
7814,69.0,0,40,2.0,0.0
7815,69.0,14,40,1.0,0.0
7816,69.0,0,60,4.0,0.0
7817,57.0,0,40,3.0,0.0
7818,70.0,0,40,0.0,0.0
7819,70.0,0,60,4.0,0.0
7820,70.0,0,40,1.0,0.0
7821,70.0,0,40,2.0,0.0
7822,58.0,30,60,4.0,0.0
7823,58.0,15,40,3.0,0.0
7824,67.0,0,30,1.0,0.0
7825,55.0,0,30,3.0,0.0
7826,67.0,0,30,2.0,0.0
7827,55.0,30,30,4.0,0.0
7828,67.0,0,30,0.0,0.0
7829,67.0,0,30,4.0,0.0
7830,64.0,45,30,0.0,0.0
7831,64.0,0,30,1.0,0.0
7832,52.0,0,30,3.0,0.0
7833,64.0,0,30,2.0,0.0
7834,52.0,0,30,4.0,0.0
7835,64.0,0,30,4.0,0.0
7836,69.0,0,40,2.0,0.0
7837,69.0,0,40,1.0,0.0
7838,57.0,15,40,3.0,0.0
7839,69.0,0,40,0.0,0.0
7840,69.0,0,60,4.0,0.0
7841,57.0,30,60,4.0,0.0
7842,53.0,0,30,4.0,0.0
7843,65.0,0,30,1.0,0.0
7844,53.0,30,30,3.0,0.0
7845,65.0,0,30,2.0,0.0
7846,65.0,0,30,0.0,0.0
7847,65.0,0,30,4.0,0.0
7848,62.0,45,30,2.0,0.0
7849,50.0,0,30,3.0,0.0
7850,62.0,0,30,1.0,0.0
7851,50.0,0,30,4.0,0.0
7852,62.0,0,30,0.0,0.0
7853,62.0,0,30,4.0,0.0
7854,67.0,0,40,0.0,0.0
7855,67.0,0,40,2.0,0.0
7856,67.0,0,40,1.0,0.0
7857,55.0,0,60,4.0,0.0
7858,67.0,30,60,4.0,0.0
7859,55.0,15,40,3.0,0.0
7860,64.0,0,30,2.0,0.0
7861,52.0,0,30,3.0,0.0
7862,64.0,0,30,0.0,0.0
7863,64.0,30,30,4.0,0.0
7864,64.0,0,30,1.0,0.0
7865,52.0,0,30,4.0,0.0
7866,61.0,0,30,2.0,0.0
7867,61.0,0,30,4.0,0.0
7868,49.0,0,30,3.0,0.0
7869,61.0,0,30,0.0,0.0
7870,61.0,0,30,1.0,0.0
7871,49.0,45,30,4.0,0.0
7872,45.0,0,40,3.0,0.0
7873,45.0,0,60,4.0,0.0
7874,57.0,105,60,4.0,0.0
7875,57.0,0,40,0.0,0.0
7876,57.0,15,40,1.0,0.0
7877,57.0,0,40,2.0,0.0
7878,70.0,0,120,0.0,0.0
7879,58.0,0,120,3.0,0.0
7880,70.0,31,120,4.0,0.0
7881,58.0,0,120,4.0,0.0
7882,70.0,14,120,2.0,0.0
7883,70.0,0,120,1.0,0.0
7884,67.0,0,30,2.0,0.0
7885,55.0,0,30,4.0,0.0
7886,67.0,0,30,4.0,0.0
7887,55.0,0,30,3.0,0.0
7888,67.0,0,30,1.0,0.0
7889,67.0,30,30,0.0,0.0
7890,64.0,45,30,2.0,0.0
7891,52.0,0,30,4.0,0.0
7892,64.0,0,30,1.0,0.0
7893,52.0,0,30,3.0,0.0
7894,64.0,0,30,0.0,0.0
7895,64.0,0,30,4.0,0.0
7896,57.0,0,60,4.0,0.0
7897,45.0,119,60,4.0,0.0
7898,57.0,0,40,2.0,0.0
7899,57.0,0,40,1.0,0.0
7900,57.0,0,40,0.0,0.0
7901,45.0,15,40,3.0,0.0
7902,73.0,31,120,1.0,0.0
7903,61.0,0,120,3.0,0.0
7904,73.0,0,120,4.0,0.0
7905,61.0,0,120,4.0,0.0
7906,73.0,0,120,0.0,0.0
7907,73.0,0,120,2.0,0.0
7908,58.0,0,30,3.0,0.0
7909,70.0,30,30,1.0,0.0
7910,70.0,0,30,4.0,0.0
7911,58.0,0,30,4.0,0.0
7912,70.0,0,30,0.0,0.0
7913,70.0,0,30,2.0,0.0
7914,67.0,0,30,2.0,0.0
7915,67.0,0,30,0.0,0.0
7916,67.0,0,30,4.0,0.0
7917,55.0,45,30,4.0,0.0
7918,55.0,0,30,3.0,0.0
7919,67.0,0,30,1.0,0.0
7920,57.0,0,40,1.0,0.0
7921,57.0,0,40,0.0,0.0
7922,57.0,15,40,2.0,0.0
7923,45.0,105,60,4.0,0.0
7924,57.0,0,60,4.0,0.0
7925,45.0,0,40,3.0,0.0
7926,64.0,31,120,4.0,0.0
7927,76.0,0,120,4.0,0.0
7928,76.0,0,120,0.0,0.0
7929,64.0,0,120,3.0,0.0
7930,76.0,14,120,1.0,0.0
7931,76.0,0,120,2.0,0.0
7932,73.0,30,30,0.0,0.0
7933,73.0,0,30,2.0,0.0
7934,73.0,0,30,4.0,0.0
7935,73.0,0,30,1.0,0.0
7936,61.0,0,30,4.0,0.0
7937,61.0,0,30,3.0,0.0
7938,57.0,0,30,3.0,0.0
7939,69.0,30,30,0.0,0.0
7940,69.0,0,30,4.0,0.0
7941,57.0,0,30,4.0,0.0
7942,69.0,0,30,1.0,0.0
7943,69.0,0,30,2.0,0.0
7944,58.0,30,30,3.0,0.0
7945,58.0,0,30,4.0,0.0
7946,70.0,0,30,2.0,0.0
7947,70.0,0,30,1.0,0.0
7948,70.0,0,30,0.0,0.0
7949,70.0,0,30,4.0,0.0
7950,67.0,30,30,4.0,0.0
7951,55.0,0,30,4.0,0.0
7952,67.0,0,30,0.0,0.0
7953,67.0,0,30,2.0,0.0
7954,67.0,0,30,1.0,0.0
7955,55.0,0,30,3.0,0.0
7956,57.0,30,30,4.0,0.0
7957,69.0,0,30,2.0,0.0
7958,57.0,0,30,3.0,0.0
7959,69.0,0,30,1.0,0.0
7960,69.0,0,30,0.0,0.0
7961,69.0,0,30,4.0,0.0
7962,53.0,0,30,3.0,0.0
7963,65.0,30,30,2.0,0.0
7964,65.0,0,30,1.0,0.0
7965,65.0,0,30,0.0,0.0
7966,53.0,0,30,4.0,0.0
7967,65.0,0,30,4.0,0.0
7968,67.0,0,30,4.0,0.0
7969,55.0,30,30,4.0,0.0
7970,67.0,0,30,1.0,0.0
7971,67.0,0,30,0.0,0.0
7972,67.0,0,30,2.0,0.0
7973,55.0,0,30,3.0,0.0
7974,64.0,0,30,2.0,0.0
7975,64.0,0,30,0.0,0.0
7976,64.0,0,30,1.0,0.0
7977,64.0,30,30,4.0,0.0
7978,52.0,0,30,3.0,0.0
7979,52.0,0,30,4.0,0.0
7980,65.0,0,30,1.0,0.0
7981,53.0,0,30,4.0,0.0
7982,53.0,0,30,3.0,0.0
7983,65.0,30,30,2.0,0.0
7984,65.0,0,30,0.0,0.0
7985,65.0,0,30,4.0,0.0
7986,50.0,0,30,3.0,0.0
7987,62.0,0,30,0.0,0.0
7988,50.0,0,30,4.0,0.0
7989,62.0,0,30,1.0,0.0
7990,62.0,30,30,4.0,0.0
7991,62.0,0,30,2.0,0.0
7992,64.0,0,30,0.0,0.0
7993,64.0,30,30,1.0,0.0
7994,52.0,0,30,3.0,0.0
7995,64.0,0,30,2.0,0.0
7996,64.0,0,30,4.0,0.0
7997,52.0,0,30,4.0,0.0
7998,61.0,0,30,0.0,0.0
7999,61.0,0,30,2.0,0.0
8000,61.0,0,30,4.0,0.0
8001,49.0,0,30,3.0,0.0
8002,49.0,0,30,4.0,0.0
8003,61.0,30,30,1.0,0.0
8004,50.0,0,30,3.0,0.0
8005,62.0,0,30,2.0,0.0
8006,50.0,0,30,4.0,0.0
8007,62.0,0,30,0.0,0.0
8008,62.0,0,30,4.0,0.0
8009,62.0,30,30,1.0,0.0
8010,59.0,0,30,2.0,0.0
8011,47.0,30,30,3.0,0.0
8012,59.0,0,30,4.0,0.0
8013,59.0,0,30,0.0,0.0
8014,47.0,0,30,4.0,0.0
8015,59.0,0,30,1.0,0.0
8016,61.0,0,30,1.0,0.0
8017,61.0,0,30,4.0,0.0
8018,61.0,30,30,0.0,0.0
8019,61.0,0,30,2.0,0.0
8020,49.0,0,30,4.0,0.0
8021,49.0,0,30,3.0,0.0
8022,45.0,30,30,4.0,0.0
8023,57.0,0,30,2.0,0.0
8024,45.0,0,30,3.0,0.0
8025,57.0,0,30,1.0,0.0
8026,57.0,0,30,4.0,0.0
8027,57.0,0,30,0.0,0.0
8028,59.0,30,30,1.0,0.0
8029,59.0,0,30,2.0,0.0
8030,59.0,0,30,0.0,0.0
8031,47.0,0,30,3.0,0.0
8032,47.0,0,30,4.0,0.0
8033,59.0,0,30,4.0,0.0
8034,61.0,0,30,4.0,0.0
8035,61.0,0,30,1.0,0.0
8036,61.0,30,30,0.0,0.0
8037,61.0,0,30,2.0,0.0
8038,49.0,0,30,4.0,0.0
8039,49.0,0,30,3.0,0.0
8040,50.0,0,30,4.0,0.0
8041,62.0,30,30,4.0,0.0
8042,62.0,0,30,1.0,0.0
8043,62.0,0,30,2.0,0.0
8044,50.0,0,30,3.0,0.0
8045,62.0,0,30,0.0,0.0
8046,64.0,0,30,1.0,0.0
8047,64.0,30,30,0.0,0.0
8048,64.0,0,30,4.0,0.0
8049,52.0,0,30,4.0,0.0
8050,64.0,0,30,2.0,0.0
8051,52.0,0,30,3.0,0.0
8052,65.0,0,30,1.0,0.0
8053,65.0,0,30,0.0,0.0
8054,53.0,0,30,3.0,0.0
8055,65.0,0,30,2.0,0.0
8056,53.0,30,30,4.0,0.0
8057,65.0,0,30,4.0,0.0
8058,67.0,0,30,1.0,0.0
8059,67.0,0,30,0.0,0.0
8060,67.0,0,30,4.0,0.0
8061,55.0,0,30,4.0,0.0
8062,67.0,0,30,2.0,0.0
8063,55.0,30,30,3.0,0.0
8064,69.0,30,30,0.0,0.0
8065,57.0,0,30,3.0,0.0
8066,69.0,0,30,1.0,0.0
8067,69.0,0,30,2.0,0.0
8068,69.0,0,30,4.0,0.0
8069,57.0,0,30,4.0,0.0
8070,58.0,30,30,3.0,0.0
8071,70.0,0,30,2.0,0.0
8072,70.0,0,30,4.0,0.0
8073,58.0,0,30,4.0,0.0
8074,70.0,0,30,0.0,0.0
8075,70.0,0,30,1.0,0.0
8076,60.0,0,30,4.0,0.0
8077,72.0,0,30,4.0,0.0
8078,72.0,0,30,2.0,0.0
8079,72.0,0,30,0.0,0.0
8080,72.0,0,30,1.0,0.0
8081,60.0,60,30,3.0,0.0
8082,60.0,0,30,4.0,0.0
8083,72.0,0,30,4.0,0.0
8084,72.0,0,30,1.0,0.0
8085,60.0,0,30,3.0,0.0
8086,72.0,0,30,2.0,0.0
8087,72.0,30,30,0.0,0.0
8088,74.0,0,30,4.0,0.0
8089,74.0,0,30,2.0,0.0
8090,62.0,0,30,3.0,0.0
8091,74.0,30,30,1.0,0.0
8092,62.0,0,30,4.0,0.0
8093,74.0,0,30,0.0,0.0
8094,75.0,75,30,4.0,0.0
8095,63.0,0,30,4.0,0.0
8096,75.0,0,30,2.0,0.0
8097,63.0,0,30,3.0,0.0
8098,75.0,0,30,0.0,0.0
8099,75.0,0,30,1.0,0.0
8100,66.0,0,40,0.0,0.0
8101,54.0,0,40,4.0,0.0
8102,66.0,0,40,1.0,0.0
8103,66.0,0,40,4.0,0.0
8104,54.0,60,40,3.0,0.0
8105,66.0,0,40,2.0,0.0
8106,55.0,15,40,4.0,0.0
8107,67.0,0,40,4.0,0.0
8108,55.0,0,40,3.0,0.0
8109,67.0,0,40,2.0,0.0
8110,67.0,0,60,0.0,0.0
8111,67.0,45,60,1.0,0.0
8112,61.0,0,40,4.0,0.0
8113,61.0,0,40,0.0,0.0
8114,49.0,0,40,4.0,0.0
8115,61.0,0,40,1.0,0.0
8116,61.0,60,40,2.0,0.0
8117,49.0,0,40,3.0,0.0
8118,62.0,0,40,2.0,0.0
8119,62.0,0,40,1.0,0.0
8120,50.0,60,40,4.0,0.0
8121,62.0,0,40,4.0,0.0
8122,62.0,0,40,0.0,0.0
8123,50.0,0,40,3.0,0.0
8124,56.0,120,40,1.0,0.0
8125,44.0,0,40,4.0,0.0
8126,56.0,0,40,4.0,0.0
8127,56.0,0,40,0.0,0.0
8128,56.0,0,40,2.0,0.0
8129,44.0,0,40,3.0,0.0
8130,67.0,0,40,4.0,0.0
8131,57.0,0,40,4.0,0.0
8132,57.0,195,40,0.0,0.0
8133,64.0,0,40,4.0,0.0
8134,57.0,0,40,1.0,0.0
8135,45.0,0,40,3.0,0.0
8136,69.0,0,40,4.0,0.0
8137,73.0,0,40,4.0,0.0
8138,45.0,0,40,4.0,0.0
8139,57.0,0,40,2.0,0.0
8140,38.0,0,120,3.0,0.0
8141,65.0,0,120,4.0,0.0
8142,62.0,0,120,0.0,0.0
8143,74.0,0,120,4.0,0.0
8144,38.0,0,120,4.0,0.0
8145,50.0,0,120,4.0,0.0
8146,69.0,0,120,4.0,0.0
8147,50.0,0,120,2.0,0.0
8148,62.0,0,120,4.0,0.0
8149,62.0,1018,120,1.0,0.0
8150,55.0,2,60,4.0,0.0
8151,67.0,0,15,0.0,0.0
8152,55.0,51,15,3.0,0.0
8153,55.0,0,60,4.0,0.0
8154,67.0,0,15,1.0,0.0
8155,67.0,0,15,2.0,0.0
8156,58.0,2,60,4.0,0.0
8157,58.0,0,60,3.0,0.0
8158,70.0,51,60,2.0,0.0
8159,70.0,0,60,1.0,0.0
8160,70.0,0,15,0.0,0.0
8161,70.0,67,60,1.0,0.0
8162,58.0,0,60,4.0,0.0
8163,58.0,0,60,3.0,0.0
8164,70.0,0,60,2.0,0.0
8165,62.0,2,60,4.0,0.0
8166,74.0,0,60,2.0,0.0
8167,74.0,0,15,0.0,0.0
8168,62.0,0,15,3.0,0.0
8169,74.0,51,15,1.0,0.0
8170,74.0,67,60,2.0,0.0
8171,62.0,0,60,4.0,0.0
8172,51.0,0,60,3.0,0.0
8173,51.0,2,60,4.0,0.0
8174,63.0,58,60,2.0,0.0
8175,63.0,0,60,0.0,0.0
8176,63.0,0,60,1.0,0.0
8177,50.0,2,60,4.0,0.0
8178,50.0,0,15,3.0,0.0
8179,50.0,2,60,4.0,0.0
8180,62.0,0,15,1.0,0.0
8181,62.0,0,15,2.0,0.0
8182,62.0,58,15,0.0,0.0
8183,51.0,0,60,3.0,0.0
8184,63.0,180,60,1.0,0.0
8185,63.0,0,60,0.0,0.0
8186,63.0,0,60,2.0,0.0
8187,51.0,0,60,4.0,0.0
8188,69.0,0,60,1.0,0.0
8189,69.0,0,60,2.0,0.0
8190,69.0,0,60,0.0,0.0
8191,57.0,53,60,3.0,0.0
8192,57.0,0,60,4.0,0.0
8193,69.0,0,60,0.0,0.0
8194,69.0,0,60,1.0,0.0
8195,57.0,67,60,4.0,0.0
8196,57.0,0,60,3.0,0.0
8197,69.0,0,60,2.0,0.0
8198,60.0,0,60,3.0,0.0
8199,72.0,53,60,2.0,0.0
8200,60.0,0,60,4.0,0.0
8201,72.0,0,60,0.0,0.0
8202,72.0,0,60,1.0,0.0
8203,60.0,0,60,4.0,0.0
8204,72.0,0,60,1.0,0.0
8205,60.0,0,60,3.0,0.0
8206,72.0,67,60,0.0,0.0
8207,72.0,0,60,2.0,0.0
8208,75.0,53,60,0.0,0.0
8209,75.0,0,60,1.0,0.0
8210,75.0,0,60,2.0,0.0
8211,63.0,0,60,4.0,0.0
8212,63.0,0,60,3.0,0.0
8213,63.0,0,60,3.0,0.0
8214,75.0,0,60,1.0,0.0
8215,75.0,0,60,0.0,0.0
8216,63.0,67,60,4.0,0.0
8217,75.0,0,60,2.0,0.0
8218,66.0,0,60,0.0,0.0
8219,54.0,0,60,4.0,0.0
8220,66.0,0,60,2.0,0.0
8221,66.0,0,60,1.0,0.0
8222,54.0,53,60,3.0,0.0
8223,54.0,0,60,3.0,0.0
8224,66.0,0,60,1.0,0.0
8225,66.0,0,60,0.0,0.0
8226,66.0,0,60,2.0,0.0
8227,54.0,67,60,4.0,0.0
8228,57.0,0,60,3.0,0.0
8229,69.0,53,60,2.0,0.0
8230,69.0,0,60,0.0,0.0
8231,57.0,0,60,4.0,0.0
8232,69.0,0,60,1.0,0.0
8233,57.0,0,60,3.0,0.0
8234,69.0,67,60,1.0,0.0
8235,57.0,0,60,4.0,0.0
8236,69.0,0,60,0.0,0.0
8237,69.0,0,60,2.0,0.0
8238,60.0,0,60,4.0,0.0
8239,60.0,53,60,3.0,0.0
8240,72.0,0,60,1.0,0.0
8241,72.0,0,60,2.0,0.0
8242,72.0,0,60,0.0,0.0
8243,72.0,0,60,2.0,0.0
8244,60.0,0,60,4.0,0.0
8245,60.0,67,60,3.0,0.0
8246,72.0,0,60,1.0,0.0
8247,72.0,0,60,0.0,0.0
8248,62.0,0,60,0.0,0.0
8249,62.0,0,60,2.0,0.0
8250,50.0,0,60,4.0,0.0
8251,50.0,53,60,3.0,0.0
8252,62.0,0,60,1.0,0.0
8253,50.0,0,60,4.0,0.0
8254,62.0,0,60,1.0,0.0
8255,50.0,67,60,3.0,0.0
8256,62.0,0,60,2.0,0.0
8257,62.0,0,60,0.0,0.0
8258,66.0,0,60,2.0,0.0
8259,66.0,0,60,0.0,0.0
8260,54.0,53,60,4.0,0.0
8261,66.0,0,60,1.0,0.0
8262,54.0,0,60,3.0,0.0
8263,54.0,0,60,4.0,0.0
8264,66.0,0,60,2.0,0.0
8265,66.0,0,60,1.0,0.0
8266,66.0,67,60,0.0,0.0
8267,54.0,0,60,3.0,0.0
8268,69.0,0,60,2.0,0.0
8269,57.0,53,60,3.0,0.0
8270,69.0,0,60,0.0,0.0
8271,57.0,0,60,4.0,0.0
8272,69.0,0,60,1.0,0.0
8273,57.0,0,60,4.0,0.0
8274,69.0,0,60,0.0,0.0
8275,69.0,67,60,2.0,0.0
8276,69.0,0,60,1.0,0.0
8277,57.0,0,60,3.0,0.0
8278,46.0,0,60,4.0,0.0
8279,58.0,58,60,0.0,0.0
8280,46.0,0,60,3.0,0.0
8281,58.0,2,60,2.0,0.0
8282,58.0,0,60,1.0,0.0
8283,57.0,2,60,2.0,0.0
8284,57.0,0,60,1.0,0.0
8285,45.0,0,60,4.0,0.0
8286,57.0,51,60,0.0,0.0
8287,45.0,0,60,3.0,0.0
8288,46.0,0,60,4.0,0.0
8289,46.0,0,60,3.0,0.0
8290,58.0,52,60,1.0,0.0
8291,58.0,0,60,2.0,0.0
8292,58.0,0,60,0.0,0.0
8293,70.0,60,60,1.0,0.0
8294,70.0,0,60,2.0,0.0
8295,70.0,0,60,0.0,0.0
8296,58.0,0,60,3.0,0.0
8297,58.0,15,40,4.0,0.0
8298,66.0,53,60,0.0,0.0
8299,66.0,0,60,1.0,0.0
8300,54.0,0,60,3.0,0.0
8301,54.0,0,60,4.0,0.0
8302,66.0,0,60,2.0,0.0
8303,67.0,0,60,2.0,0.0
8304,55.0,0,60,3.0,0.0
8305,67.0,0,60,0.0,0.0
8306,67.0,0,60,1.0,0.0
8307,55.0,67,60,4.0,0.0
8308,60.0,0,60,1.0,0.0
8309,48.0,60,60,3.0,0.0
8310,60.0,0,60,2.0,0.0
8311,60.0,0,60,0.0,0.0
8312,48.0,0,60,4.0,0.0
8313,58.0,53,60,0.0,0.0
8314,46.0,0,60,3.0,0.0
8315,46.0,0,60,4.0,0.0
8316,58.0,0,60,1.0,0.0
8317,58.0,0,60,2.0,0.0
8318,48.0,52,60,3.0,0.0
8319,48.0,0,60,4.0,0.0
8320,60.0,0,60,0.0,0.0
8321,60.0,0,60,1.0,0.0
8322,60.0,0,60,2.0,0.0
8323,70.0,60,60,0.0,0.0
8324,58.0,15,40,4.0,0.0
8325,70.0,0,60,1.0,0.0
8326,70.0,0,60,2.0,0.0
8327,58.0,0,60,3.0,0.0
8328,54.0,53,60,4.0,0.0
8329,66.0,0,60,0.0,0.0
8330,66.0,0,60,1.0,0.0
8331,54.0,0,60,3.0,0.0
8332,66.0,0,60,2.0,0.0
8333,55.0,0,60,4.0,0.0
8334,67.0,0,60,2.0,0.0
8335,67.0,7,60,0.0,0.0
8336,67.0,0,60,1.0,0.0
8337,55.0,60,60,3.0,0.0
8338,62.0,0,60,2.0,0.0
8339,62.0,0,60,0.0,0.0
8340,50.0,0,60,4.0,0.0
8341,62.0,0,60,1.0,0.0
8342,50.0,60,60,3.0,0.0
8343,60.0,0,60,2.0,0.0
8344,60.0,0,60,1.0,0.0
8345,48.0,0,60,4.0,0.0
8346,48.0,0,60,3.0,0.0
8347,60.0,53,60,0.0,0.0
8348,62.0,7,60,0.0,0.0
8349,50.0,0,60,3.0,0.0
8350,50.0,60,60,4.0,0.0
8351,62.0,0,60,1.0,0.0
8352,62.0,0,60,2.0,0.0
8353,70.0,0,60,2.0,0.0
8354,58.0,0,60,4.0,0.0
8355,70.0,0,60,1.0,0.0
8356,58.0,60,60,3.0,0.0
8357,70.0,0,60,0.0,0.0
8358,54.0,60,60,4.0,0.0
8359,66.0,0,60,1.0,0.0
8360,54.0,0,60,3.0,0.0
8361,66.0,0,60,0.0,0.0
8362,66.0,0,60,2.0,0.0
8363,55.0,120,60,3.0,0.0
8364,67.0,0,60,0.0,0.0
8365,55.0,0,60,4.0,0.0
8366,67.0,0,60,2.0,0.0
8367,67.0,0,60,1.0,0.0
8368,63.0,0,120,0.0,0.0
8369,51.0,120,120,4.0,0.0
8370,63.0,0,120,2.0,0.0
8371,63.0,0,120,1.0,0.0
8372,51.0,0,120,3.0,0.0
8373,55.0,0,60,3.0,0.0
8374,55.0,0,60,4.0,0.0
8375,67.0,0,60,2.0,0.0
8376,67.0,0,60,0.0,0.0
8377,67.0,60,60,1.0,0.0
8378,68.0,0,60,2.0,0.0
8379,68.0,0,60,0.0,0.0
8380,68.0,0,60,1.0,0.0
8381,56.0,60,60,4.0,0.0
8382,56.0,0,60,3.0,0.0
8383,53.0,0,60,4.0,0.0
8384,65.0,0,60,2.0,0.0
8385,65.0,0,60,0.0,0.0
8386,53.0,0,60,3.0,0.0
8387,65.0,60,60,1.0,0.0
8388,59.0,0,60,2.0,0.0
8389,47.0,0,60,4.0,0.0
8390,59.0,0,60,0.0,0.0
8391,47.0,53,60,3.0,0.0
8392,59.0,0,60,1.0,0.0
8393,59.0,0,60,2.0,0.0
8394,59.0,0,60,1.0,0.0
8395,59.0,0,60,0.0,0.0
8396,47.0,7,60,3.0,0.0
8397,47.0,60,60,4.0,0.0
8398,62.0,0,60,0.0,0.0
8399,62.0,0,60,2.0,0.0
8400,50.0,53,60,3.0,0.0
8401,50.0,0,60,4.0,0.0
8402,62.0,0,60,1.0,0.0
8403,62.0,7,60,1.0,0.0
8404,50.0,0,60,3.0,0.0
8405,62.0,0,60,2.0,0.0
8406,50.0,60,60,4.0,0.0
8407,62.0,0,60,0.0,0.0
8408,65.0,53,60,0.0,0.0
8409,65.0,0,60,2.0,0.0
8410,53.0,0,60,3.0,0.0
8411,53.0,0,60,4.0,0.0
8412,65.0,0,60,1.0,0.0
8413,65.0,0,60,1.0,0.0
8414,65.0,0,60,2.0,0.0
8415,53.0,120,60,4.0,0.0
8416,65.0,0,60,0.0,0.0
8417,53.0,7,60,3.0,0.0
8418,56.0,0,120,2.0,0.0
8419,56.0,0,120,0.0,0.0
8420,44.0,120,120,4.0,0.0
8421,56.0,0,120,1.0,0.0
8422,44.0,0,120,3.0,0.0
8423,50.0,0,60,4.0,0.0
8424,50.0,60,60,3.0,0.0
8425,62.0,0,60,1.0,0.0
8426,62.0,0,60,0.0,0.0
8427,62.0,0,60,2.0,0.0
8428,63.0,0,60,1.0,0.0
8429,63.0,0,60,0.0,0.0
8430,51.0,0,60,3.0,0.0
8431,51.0,60,60,4.0,0.0
8432,63.0,0,60,2.0,0.0
8433,48.0,0,60,4.0,0.0
8434,60.0,60,60,1.0,0.0
8435,60.0,0,60,0.0,0.0
8436,60.0,0,60,2.0,0.0
8437,48.0,0,60,3.0,0.0
8438,54.0,0,60,3.0,0.0
8439,66.0,60,60,0.0,0.0
8440,54.0,0,60,4.0,0.0
8441,66.0,0,60,1.0,0.0
8442,66.0,0,60,2.0,0.0
8443,67.0,0,60,2.0,0.0
8444,67.0,0,60,1.0,0.0
8445,55.0,0,60,4.0,0.0
8446,55.0,0,60,3.0,0.0
8447,67.0,120,60,0.0,0.0
8448,50.0,0,120,4.0,0.0
8449,62.0,0,120,1.0,0.0
8450,62.0,0,120,0.0,0.0
8451,62.0,0,120,2.0,0.0
8452,50.0,120,120,3.0,0.0
8453,38.0,0,120,3.0,0.0
8454,38.0,0,120,4.0,0.0
8455,62.0,120,120,1.0,0.0
8456,62.0,0,120,0.0,0.0
8457,50.0,0,120,2.0,0.0
8458,55.0,0,120,2.0,0.0
8459,43.0,0,120,4.0,0.0
8460,74.0,30,120,4.0,0.0
8461,43.0,5,120,3.0,0.0
8462,55.0,0,120,0.0,0.0
8463,55.0,0,120,1.0,0.0
8464,72.0,13,30,4.0,0.0
8465,70.0,7,15,4.0,0.0
8466,72.0,62,15,4.0,0.0
8467,70.0,31,60,4.0,0.0
8468,69.0,30,30,4.0,0.0
8469,67.0,55,30,4.0,0.0
8470,66.0,60,60,4.0,0.0
8471,67.0,49,60,4.0,0.0
8472,67.0,0,120,2.0,0.0
8473,70.0,0,120,1.0,0.0
8474,55.0,0,60,3.0,0.0
8475,55.0,4,60,4.0,0.0
8476,74.0,60,120,0.0,0.0
8477,66.0,0,60,4.0,0.0
8478,55.0,7,60,4.0,0.0
8479,55.0,0,60,3.0,0.0
8480,67.0,0,120,1.0,0.0
8481,70.0,60,120,0.0,0.0
8482,62.0,0,120,2.0,0.0
8483,66.0,49,60,4.0,0.0
8484,58.0,0,60,4.0,0.0
8485,58.0,4,60,3.0,0.0
8486,58.0,7,60,3.0,0.0
8487,67.0,0,60,4.0,0.0
8488,58.0,0,60,4.0,0.0
8489,62.0,0,60,4.0,0.0
8490,62.0,0,60,1.0,0.0
8491,58.0,0,60,2.0,0.0
8492,66.0,35,120,0.0,0.0
8493,62.0,53,60,3.0,0.0
8494,62.0,7,60,3.0,0.0
8495,60.0,0,60,1.0,0.0
8496,57.0,0,60,2.0,0.0
8497,62.0,0,60,4.0,0.0
8498,79.0,8,30,4.0,0.0
8499,51.0,0,60,4.0,0.0
8500,55.0,0,120,2.0,0.0
8501,51.0,3,60,3.0,0.0
8502,67.0,0,60,0.0,0.0
8503,58.0,4,120,1.0,0.0
8504,77.0,10,15,4.0,0.0
8505,79.0,7,15,4.0,0.0
8506,80.0,50,15,4.0,0.0
8507,50.0,7,60,4.0,0.0
8508,79.0,56,60,4.0,0.0
8509,66.0,0,60,0.0,0.0
8510,50.0,0,60,3.0,0.0
8511,50.0,0,60,3.0,0.0
8512,50.0,39,60,4.0,0.0
8513,66.0,0,60,0.0,0.0
8514,77.0,14,90,4.0,0.0
8515,67.0,0,60,0.0,0.0
8516,51.0,0,60,3.0,0.0
8517,51.0,12,60,4.0,0.0
8518,75.0,28,30,4.0,0.0
8519,74.0,30,30,4.0,0.0
8520,72.0,57,30,4.0,0.0
8521,71.0,60,60,4.0,0.0
8522,72.0,0,120,0.0,0.0
8523,60.0,0,120,2.0,0.0
8524,57.0,0,60,4.0,0.0
8525,66.0,0,120,1.0,0.0
8526,57.0,53,60,3.0,0.0
8527,72.0,0,60,4.0,0.0
8528,57.0,0,60,3.0,0.0
8529,71.0,60,60,4.0,0.0
8530,57.0,7,60,4.0,0.0
8531,69.0,60,120,0.0,0.0
8532,63.0,0,120,2.0,0.0
8533,66.0,53,60,1.0,0.0
8534,60.0,0,60,3.0,0.0
8535,71.0,0,60,4.0,0.0
8536,60.0,0,60,4.0,0.0
8537,60.0,7,60,4.0,0.0
8538,72.0,56,300,4.0,0.0
8539,60.0,0,60,3.0,0.0
8540,69.0,0,60,1.0,0.0
8541,63.0,53,60,4.0,0.0
8542,57.0,0,120,2.0,0.0
8543,63.0,0,60,3.0,0.0
8544,60.0,0,60,1.0,0.0
8545,66.0,0,120,0.0,0.0
8546,63.0,60,60,1.0,0.0
8547,63.0,7,60,3.0,0.0
8548,63.0,0,60,4.0,0.0
8549,54.0,0,60,3.0,0.0
8550,62.0,0,60,0.0,0.0
8551,57.0,0,120,1.0,0.0
8552,54.0,53,60,4.0,0.0
8553,62.0,4,120,2.0,0.0
8554,60.0,0,60,0.0,0.0
8555,54.0,0,60,3.0,0.0
8556,54.0,7,60,4.0,0.0
8557,57.0,4,60,3.0,0.0
8558,57.0,0,60,4.0,0.0
8559,70.0,49,60,4.0,0.0
8560,62.0,4,120,0.0,0.0
8561,57.0,0,60,4.0,0.0
8562,57.0,7,60,3.0,0.0
8563,69.0,56,60,4.0,0.0
8564,67.0,49,60,4.0,0.0
8565,60.0,4,60,3.0,0.0
8566,60.0,0,60,4.0,0.0
8567,66.0,56,60,4.0,0.0
8568,60.0,0,60,4.0,0.0
8569,60.0,9,60,3.0,0.0
8570,69.0,1,40,4.0,0.0
8571,72.0,1,30,4.0,0.0
8572,75.0,0,15,4.0,0.0
8573,50.0,0,60,3.0,0.0
8574,66.0,0,120,1.0,0.0
8575,50.0,0,60,4.0,0.0
8576,60.0,0,120,2.0,0.0
8577,69.0,53,60,0.0,0.0
8578,50.0,7,60,4.0,0.0
8579,67.0,0,60,0.0,0.0
8580,50.0,0,60,3.0,0.0
8581,74.0,0,15,4.0,0.0
8582,75.0,4,15,4.0,0.0
8583,54.0,4,60,3.0,0.0
8584,69.0,60,120,0.0,0.0
8585,54.0,0,60,4.0,0.0
8586,74.0,49,60,4.0,0.0
8587,72.0,4,180,4.0,0.0
8588,54.0,7,60,4.0,0.0
8589,54.0,0,60,3.0,0.0
8590,57.0,0,60,3.0,0.0
8591,57.0,48,60,4.0,0.0
8592,57.0,0,60,3.0,0.0
8593,57.0,10,60,4.0,0.0
8594,70.0,5,15,4.0,0.0
8595,69.0,2,15,4.0,0.0
8596,58.0,0,120,2.0,0.0
8597,67.0,0,120,0.0,0.0
8598,46.0,0,60,4.0,0.0
8599,67.0,7,15,4.0,0.0
8600,62.0,3,120,1.0,0.0
8601,46.0,48,60,3.0,0.0
8602,69.0,44,15,4.0,0.0
8603,67.0,11,90,4.0,0.0
8604,45.0,0,60,4.0,0.0
8605,45.0,0,60,3.0,0.0
8606,69.0,1,15,4.0,0.0
8607,66.0,50,15,4.0,0.0
8608,46.0,52,60,4.0,0.0
8609,70.0,0,120,0.0,0.0
8610,67.0,60,120,4.0,0.0
8611,46.0,0,60,3.0,0.0
8612,67.0,0,120,1.0,0.0
8613,62.0,0,120,2.0,0.0
8614,58.0,0,60,3.0,0.0
8615,58.0,15,40,4.0,0.0
8616,70.0,35,120,1.0,0.0
8617,54.0,0,60,3.0,0.0
8618,67.0,0,120,2.0,0.0
8619,74.0,0,120,0.0,0.0
8620,54.0,53,60,4.0,0.0
8621,55.0,0,60,3.0,0.0
8622,55.0,7,60,4.0,0.0
8623,69.0,0,480,1.0,0.0
8624,75.0,18,30,4.0,0.0
8625,67.0,0,360,2.0,0.0
8626,75.0,53,120,0.0,0.0
8627,48.0,0,60,3.0,0.0
8628,48.0,35,60,4.0,0.0
8629,74.0,7,20,4.0,0.0
8630,46.0,0,60,3.0,0.0
8631,46.0,0,60,4.0,0.0
8632,77.0,18,30,4.0,0.0
8633,75.0,7,20,4.0,0.0
8634,48.0,0,60,3.0,0.0
8635,48.0,52,60,4.0,0.0
8636,79.0,0,120,0.0,0.0
8637,75.0,60,120,4.0,0.0
8638,58.0,0,60,3.0,0.0
8639,58.0,15,40,4.0,0.0
8640,54.0,0,60,3.0,0.0
8641,75.0,60,120,0.0,0.0
8642,54.0,53,60,4.0,0.0
8643,55.0,0,60,3.0,0.0
8644,55.0,7,60,4.0,0.0
8645,50.0,0,60,3.0,0.0
8646,50.0,0,60,4.0,0.0
8647,78.0,15,60,4.0,0.0
8648,66.0,8,120,2.0,0.0
8649,72.0,0,120,0.0,0.0
8650,48.0,0,60,3.0,0.0
8651,79.0,15,15,4.0,0.0
8652,48.0,0,60,4.0,0.0
8653,78.0,15,15,4.0,0.0
8654,76.0,15,15,4.0,0.0
8655,78.0,0,15,4.0,0.0
8656,72.0,0,120,1.0,0.0
8657,50.0,0,60,4.0,0.0
8658,79.0,7,15,4.0,0.0
8659,75.0,0,120,0.0,0.0
8660,50.0,7,60,3.0,0.0
8661,57.0,8,120,2.0,0.0
8662,78.0,8,15,4.0,0.0
8663,79.0,7,15,4.0,0.0
8664,78.0,8,15,4.0,0.0
8665,79.0,7,15,4.0,0.0
8666,78.0,8,15,4.0,0.0
8667,79.0,0,15,4.0,0.0
8668,78.0,8,15,4.0,0.0
8669,79.0,7,15,4.0,0.0
8670,58.0,8,40,4.0,0.0
8671,58.0,0,60,3.0,0.0
8672,78.0,8,15,4.0,0.0
8673,79.0,7,15,4.0,0.0
8674,78.0,8,15,4.0,0.0
8675,79.0,7,15,4.0,0.0
8676,78.0,0,15,4.0,0.0
8677,79.0,7,15,4.0,0.0
8678,78.0,0,15,4.0,0.0
8679,74.0,0,60,0.0,0.0
8680,69.0,0,120,1.0,0.0
8681,54.0,0,60,3.0,0.0
8682,54.0,30,60,4.0,0.0
8683,79.0,7,15,4.0,0.0
8684,62.0,0,120,2.0,0.0
8685,78.0,8,15,4.0,0.0
8686,79.0,7,15,4.0,0.0
8687,78.0,8,15,4.0,0.0
8688,79.0,7,15,4.0,0.0
8689,78.0,8,15,4.0,0.0
8690,79.0,7,15,4.0,0.0
8691,78.0,0,15,4.0,0.0
8692,55.0,0,60,4.0,0.0
8693,76.0,30,30,4.0,0.0
8694,72.0,0,60,0.0,0.0
8695,55.0,0,60,3.0,0.0
8696,78.0,60,30,4.0,0.0
8697,51.0,0,120,3.0,0.0
8698,70.0,5,60,0.0,0.0
8699,67.0,0,120,1.0,0.0
8700,67.0,60,120,2.0,0.0
8701,79.0,43,60,4.0,0.0
8702,51.0,0,120,4.0,0.0
8703,66.0,0,60,0.0,0.0
8704,74.0,12,40,4.0,0.0
8705,66.0,5,60,0.0,0.0
8706,75.0,43,60,4.0,0.0
8707,55.0,60,60,4.0,0.0
8708,71.0,5,40,4.0,0.0
8709,55.0,0,60,3.0,0.0
8710,67.0,7,60,0.0,0.0
8711,56.0,0,60,4.0,0.0
8712,72.0,43,60,4.0,0.0
8713,56.0,5,60,3.0,0.0
8714,53.0,42,60,3.0,0.0
8715,68.0,5,40,4.0,0.0
8716,53.0,0,60,4.0,0.0
8717,62.0,0,120,2.0,0.0
8718,67.0,25,30,4.0,0.0
8719,47.0,5,60,4.0,0.0
8720,68.0,0,120,0.0,0.0
8721,47.0,0,60,3.0,0.0
8722,65.0,60,120,1.0,0.0
8723,47.0,7,60,4.0,0.0
8724,47.0,0,60,3.0,0.0
8725,65.0,4,15,4.0,0.0
8726,67.0,37,15,4.0,0.0
8727,65.0,57,360,4.0,0.0
8728,62.0,0,120,1.0,0.0
8729,65.0,0,120,0.0,0.0
8730,50.0,0,60,4.0,0.0
8731,50.0,53,60,3.0,0.0
8732,59.0,60,120,2.0,0.0
8733,50.0,7,60,3.0,0.0
8734,50.0,0,60,4.0,0.0
8735,62.0,63,120,0.0,0.0
8736,53.0,53,60,3.0,0.0
8737,59.0,0,120,1.0,0.0
8738,56.0,0,120,2.0,0.0
8739,53.0,0,60,4.0,0.0
8740,53.0,0,60,3.0,0.0
8741,53.0,7,60,4.0,0.0
8742,44.0,60,120,4.0,0.0
8743,62.0,0,120,2.0,0.0
8744,44.0,0,120,3.0,0.0
8745,65.0,0,120,1.0,0.0
8746,59.0,0,120,0.0,0.0
8747,62.0,0,60,4.0,0.0
8748,63.0,30,60,4.0,0.0
8749,65.0,0,60,2.0,0.0
8750,50.0,0,60,3.0,0.0
8751,50.0,0,60,4.0,0.0
8752,67.0,30,30,4.0,0.0
8753,62.0,0,60,1.0,0.0
8754,71.0,60,60,0.0,0.0
8755,65.0,0,30,4.0,0.0
8756,67.0,0,60,4.0,0.0
8757,51.0,0,60,3.0,0.0
8758,63.0,30,60,2.0,0.0
8759,51.0,0,60,4.0,0.0
8760,67.0,0,60,1.0,0.0
8761,72.0,0,60,0.0,0.0
8762,48.0,0,60,4.0,0.0
8763,67.0,0,60,1.0,0.0
8764,75.0,60,60,0.0,0.0
8765,71.0,30,30,4.0,0.0
8766,48.0,0,60,3.0,0.0
8767,63.0,0,60,2.0,0.0
8768,69.0,0,30,4.0,0.0
8769,68.0,0,60,1.0,0.0
8770,71.0,0,60,4.0,0.0
8771,56.0,0,60,4.0,0.0
8772,56.0,60,60,3.0,0.0
8773,65.0,0,60,2.0,0.0
8774,74.0,0,60,0.0,0.0
8775,72.0,0,60,0.0,0.0
8776,53.0,0,60,3.0,0.0
8777,60.0,0,60,2.0,0.0
8778,72.0,0,60,4.0,0.0
8779,68.0,60,60,1.0,0.0
8780,53.0,0,60,4.0,0.0
8781,72.0,0,120,0.0,0.0
8782,75.0,0,120,4.0,0.0
8783,55.0,17,120,4.0,0.0
8784,55.0,0,120,3.0,0.0
8785,67.0,60,60,2.0,0.0
8786,67.0,0,240,1.0,0.0
8787,63.0,0,60,2.0,0.0
8788,71.0,0,120,0.0,0.0
8789,43.0,0,120,4.0,0.0
8790,74.0,15,15,4.0,0.0
8791,65.0,2,60,2.0,0.0
8792,43.0,0,120,3.0,0.0
8793,75.0,15,15,4.0,0.0
8794,74.0,13,15,4.0,0.0
8795,72.0,7,15,4.0,0.0
8796,74.0,7,15,4.0,0.0
8797,62.0,1,60,2.0,0.0
8798,75.0,33,15,4.0,0.0
8799,74.0,5,30,4.0,0.0
8800,72.0,6,15,4.0,0.0
8801,74.0,119,15,4.0,0.0
8802,67.0,0,120,1.0,0.0
8803,63.0,0,120,2.0,0.0
8804,48.0,0,120,3.0,0.0
8805,48.0,120,120,4.0,0.0
8806,72.0,0,120,0.0,0.0
8807,72.0,0,120,4.0,0.0
8808,67.0,60,120,4.0,0.0
8809,65.0,60,60,4.0,0.0
8810,63.0,30,60,4.0,0.0
8811,72.0,0,120,0.0,0.0
8812,67.0,0,120,1.0,0.0
8813,62.0,30,30,4.0,0.0
8814,63.0,15,120,2.0,0.0
8815,60.0,2,30,4.0,0.0
8816,48.0,0,15,3.0,0.0
8817,48.0,51,15,4.0,0.0
8818,59.0,0,60,4.0,0.0
8819,60.0,0,120,2.0,0.0
8820,51.0,51,60,4.0,0.0
8821,59.0,15,15,4.0,0.0
8822,63.0,0,120,1.0,0.0
8823,67.0,62,120,0.0,0.0
8824,51.0,0,60,3.0,0.0
8825,60.0,10,15,4.0,0.0
8826,62.0,10,15,4.0,0.0
8827,60.0,10,15,4.0,0.0
8828,59.0,2,15,4.0,0.0
8829,51.0,7,60,3.0,0.0
8830,60.0,0,60,4.0,0.0
8831,51.0,0,60,4.0,0.0
8832,55.0,0,60,3.0,0.0
8833,55.0,0,120,2.0,0.0
8834,55.0,51,60,4.0,0.0
8835,63.0,62,120,0.0,0.0
8836,60.0,0,120,1.0,0.0
8837,55.0,0,60,3.0,0.0
8838,55.0,7,60,4.0,0.0
8839,73.0,0,120,1.0,0.0
8840,82.0,14,90,4.0,0.0
8841,45.0,0,60,4.0,0.0
8842,64.0,3,120,2.0,0.0
8843,76.0,0,120,0.0,0.0
8844,45.0,0,60,4.0,0.0
8845,45.0,17,15,3.0,0.0
8846,81.0,15,15,4.0,0.0
8847,79.0,5,15,4.0,0.0
8848,77.0,30,15,4.0,0.0
8849,76.0,29,30,4.0,0.0
8850,73.0,3,120,0.0,0.0
8851,69.0,0,120,1.0,0.0
8852,64.0,0,120,2.0,0.0
8853,79.0,30,30,4.0,0.0
8854,49.0,0,15,3.0,0.0
8855,77.0,20,30,4.0,0.0
8856,49.0,1,15,4.0,0.0
8857,76.0,30,30,4.0,0.0
8858,69.0,3,120,0.0,0.0
8859,52.0,1,60,3.0,0.0
8860,64.0,2,60,2.0,0.0
8861,67.0,0,120,1.0,0.0
8862,74.0,27,30,4.0,0.0
8863,52.0,0,60,4.0,0.0
8864,73.0,30,30,4.0,0.0
8865,61.0,0,60,2.0,0.0
8866,71.0,20,30,4.0,0.0
8867,52.0,7,60,3.0,0.0
8868,52.0,0,60,4.0,0.0
8869,69.0,15,30,4.0,0.0
8870,77.0,15,15,4.0,0.0
8871,69.0,0,120,0.0,0.0
8872,65.0,33,120,1.0,0.0
8873,38.0,0,120,3.0,0.0
8874,38.0,0,120,4.0,0.0
8875,62.0,0,120,2.0,0.0
8876,82.0,87,15,4.0,0.0
8877,81.0,61,120,4.0,0.0
8878,79.0,1,30,4.0,0.0
8879,77.0,28,60,4.0,0.0
8880,76.0,30,30,4.0,0.0
8881,74.0,30,30,4.0,0.0
8882,76.0,62,30,4.0,0.0
8883,73.0,57,60,4.0,0.0
8884,74.0,2,120,2.0,0.0
8885,77.0,0,120,1.0,0.0
8886,74.0,12,90,4.0,0.0
8887,81.0,0,120,0.0,0.0
8888,50.0,0,15,4.0,0.0
8889,50.0,18,15,3.0,0.0
8890,76.0,15,15,4.0,0.0
8891,74.0,6,15,4.0,0.0
8892,73.0,60,15,4.0,0.0
8893,74.0,0,120,1.0,0.0
8894,69.0,0,120,2.0,0.0
8895,77.0,60,120,0.0,0.0
8896,53.0,51,60,4.0,0.0
8897,74.0,0,120,4.0,0.0
8898,53.0,0,60,3.0,0.0
8899,53.0,7,60,4.0,0.0
8900,53.0,0,60,3.0,0.0
8901,69.0,0,60,1.0,0.0
8902,73.0,60,120,0.0,0.0
8903,65.0,2,60,2.0,0.0
8904,57.0,51,60,3.0,0.0
8905,57.0,0,60,4.0,0.0
8906,64.0,0,60,2.0,0.0
8907,67.0,0,60,1.0,0.0
8908,57.0,0,60,4.0,0.0
8909,57.0,7,60,3.0,0.0
8910,46.0,0,60,4.0,0.0
8911,74.0,60,60,0.0,0.0
8912,46.0,0,60,3.0,0.0
8913,86.0,60,120,4.0,0.0
8914,45.0,0,60,3.0,0.0
8915,73.0,0,60,0.0,0.0
8916,45.0,0,60,4.0,0.0
8917,73.0,0,60,0.0,0.0
8918,45.0,0,60,4.0,0.0
8919,45.0,0,60,3.0,0.0
8920,84.0,60,60,4.0,0.0
8921,74.0,30,60,0.0,0.0
8922,46.0,0,60,4.0,0.0
8923,46.0,0,60,3.0,0.0
8924,82.0,0,60,4.0,0.0
8925,81.0,30,30,4.0,0.0
8926,79.0,60,30,4.0,0.0
8927,78.0,30,60,4.0,0.0
8928,79.0,23,30,4.0,0.0
8929,79.0,0,120,0.0,0.0
8930,73.0,0,120,1.0,0.0
8931,67.0,15,120,2.0,0.0
8932,78.0,9,20,4.0,0.0
8933,52.0,0,15,4.0,0.0
8934,52.0,28,15,3.0,0.0
8935,81.0,23,30,4.0,0.0
8936,79.0,0,20,4.0,0.0
8937,55.0,0,60,3.0,0.0
8938,73.0,0,60,1.0,0.0
8939,76.0,0,120,0.0,0.0
8940,70.0,0,120,2.0,0.0
8941,78.0,15,15,4.0,0.0
8942,79.0,8,15,4.0,0.0
8943,81.0,7,15,4.0,0.0
8944,79.0,8,15,4.0,0.0
8945,81.0,7,15,4.0,0.0
8946,79.0,2,15,4.0,0.0
8947,76.0,60,60,1.0,0.0
8948,78.0,38,15,4.0,0.0
8949,55.0,7,60,3.0,0.0
8950,55.0,13,15,4.0,0.0
8951,79.0,15,480,4.0,0.0
8952,64.0,0,120,2.0,0.0
8953,67.0,2,60,1.0,0.0
8954,73.0,0,120,0.0,0.0
8955,58.0,0,60,3.0,0.0
8956,58.0,51,15,4.0,0.0
8957,58.0,7,60,3.0,0.0
8958,70.0,60,60,1.0,0.0
8959,69.0,2,60,0.0,0.0
8960,49.0,51,60,3.0,0.0
8961,69.0,0,120,2.0,0.0
8962,64.0,60,120,1.0,0.0
8963,49.0,0,15,4.0,0.0
8964,67.0,0,60,0.0,0.0
8965,49.0,0,60,3.0,0.0
8966,52.0,0,60,4.0,0.0
8967,52.0,51,60,3.0,0.0
8968,69.0,30,120,0.0,0.0
8969,77.0,2,30,4.0,0.0
8970,52.0,7,60,4.0,0.0
8971,52.0,0,60,3.0,0.0
8972,76.0,30,90,4.0,0.0
8973,55.0,0,60,3.0,0.0
8974,55.0,13,60,4.0,0.0
8975,74.0,2,30,4.0,0.0
8976,73.0,23,30,4.0,0.0
8977,55.0,0,60,3.0,0.0
8978,55.0,22,60,4.0,0.0
8979,82.0,15,40,4.0,0.0
8980,76.0,0,60,0.0,0.0
8981,45.0,28,60,4.0,0.0
8982,45.0,0,60,3.0,0.0
8983,67.0,0,120,2.0,0.0
8984,73.0,0,120,1.0,0.0
8985,81.0,15,15,4.0,0.0
8986,79.0,15,15,4.0,0.0
8987,77.0,2,15,4.0,0.0
8988,79.0,23,30,4.0,0.0
8989,45.0,7,60,4.0,0.0
8990,45.0,0,60,3.0,0.0
8991,74.0,15,60,0.0,0.0
8992,82.0,15,40,4.0,0.0
8993,49.0,0,60,3.0,0.0
8994,76.0,15,120,0.0,0.0
8995,81.0,15,15,4.0,0.0
8996,79.0,15,15,4.0,0.0
8997,77.0,2,15,4.0,0.0
8998,76.0,23,30,4.0,0.0
8999,49.0,28,15,4.0,0.0
9000,49.0,0,60,3.0,0.0
9001,79.0,15,40,4.0,0.0
9002,52.0,0,60,4.0,0.0
9003,77.0,15,15,4.0,0.0
9004,76.0,15,15,4.0,0.0
9005,74.0,2,15,4.0,0.0
9006,76.0,23,30,4.0,0.0
9007,52.0,28,15,3.0,0.0
9008,52.0,0,60,4.0,0.0
9009,73.0,60,30,4.0,0.0
9010,69.0,0,120,1.0,0.0
9011,62.0,0,120,0.0,0.0
9012,74.0,15,90,4.0,0.0
9013,41.0,30,60,4.0,0.0
9014,65.0,0,120,2.0,0.0
9015,41.0,0,60,3.0,0.0
9016,40.0,0,60,4.0,0.0
9017,40.0,0,60,3.0,0.0
9018,76.0,15,15,4.0,0.0
9019,77.0,30,15,4.0,0.0
9020,76.0,23,30,4.0,0.0
9021,41.0,60,60,4.0,0.0
9022,41.0,7,60,3.0,0.0
9023,65.0,60,120,0.0,0.0
9024,62.0,0,120,1.0,0.0
9025,57.0,0,120,2.0,0.0
9026,74.0,0,90,4.0,0.0
9027,53.0,0,60,4.0,0.0
9028,53.0,0,60,3.0,0.0
9029,49.0,60,60,4.0,0.0
9030,62.0,0,120,2.0,0.0
9031,65.0,0,120,1.0,0.0
9032,49.0,0,60,3.0,0.0
9033,69.0,0,120,0.0,0.0
9034,50.0,33,60,4.0,0.0
9035,50.0,0,60,3.0,0.0
9036,64.0,0,480,1.0,0.0
9037,62.0,0,360,2.0,0.0
9038,82.0,20,30,4.0,0.0
9039,43.0,0,60,4.0,0.0
9040,70.0,0,120,0.0,0.0
9041,43.0,33,60,3.0,0.0
9042,81.0,7,20,4.0,0.0
9043,84.0,20,30,4.0,0.0
9044,41.0,53,60,3.0,0.0
9045,41.0,0,60,4.0,0.0
9046,82.0,7,20,4.0,0.0
9047,74.0,0,120,0.0,0.0
9048,82.0,0,180,4.0,0.0
9049,43.0,60,60,4.0,0.0
9050,43.0,7,60,3.0,0.0
9051,53.0,60,60,3.0,0.0
9052,53.0,0,60,4.0,0.0
9053,70.0,0,120,0.0,0.0
9054,49.0,0,60,4.0,0.0
9055,49.0,15,60,3.0,0.0
9056,81.0,0,30,4.0,0.0
9057,79.0,15,15,4.0,0.0
9058,50.0,0,60,4.0,0.0
9059,50.0,60,60,3.0,0.0
9060,78.0,15,15,4.0,0.0
9061,79.0,15,15,4.0,0.0
9062,82.0,0,15,4.0,0.0
9063,67.0,0,120,0.0,0.0
9064,45.0,0,60,3.0,0.0
9065,61.0,0,120,2.0,0.0
9066,85.0,15,60,4.0,0.0
9067,45.0,0,60,4.0,0.0
9068,43.0,0,60,4.0,0.0
9069,43.0,8,60,3.0,0.0
9070,86.0,15,15,4.0,0.0
9071,85.0,15,15,4.0,0.0
9072,83.0,15,15,4.0,0.0
9073,85.0,0,15,4.0,0.0
9074,45.0,8,60,4.0,0.0
9075,67.0,0,120,1.0,0.0
9076,86.0,7,15,4.0,0.0
9077,70.0,0,120,0.0,0.0
9078,64.0,8,120,2.0,0.0
9079,45.0,0,60,3.0,0.0
9080,85.0,8,15,4.0,0.0
9081,86.0,7,15,4.0,0.0
9082,85.0,8,15,4.0,0.0
9083,86.0,7,15,4.0,0.0
9084,85.0,8,15,4.0,0.0
9085,86.0,7,15,4.0,0.0
9086,85.0,0,15,4.0,0.0
9087,53.0,0,60,4.0,0.0
9088,86.0,7,15,4.0,0.0
9089,53.0,0,60,3.0,0.0
9090,85.0,8,15,4.0,0.0
9091,86.0,7,15,4.0,0.0
9092,85.0,8,15,4.0,0.0
9093,86.0,7,15,4.0,0.0
9094,85.0,8,15,4.0,0.0
9095,86.0,7,15,4.0,0.0
9096,85.0,0,15,4.0,0.0
9097,49.0,0,60,3.0,0.0
9098,49.0,30,60,4.0,0.0
9099,57.0,0,120,2.0,0.0
9100,86.0,7,15,4.0,0.0
9101,64.0,60,120,1.0,0.0
9102,69.0,0,60,0.0,0.0
9103,85.0,8,15,4.0,0.0
9104,86.0,7,15,4.0,0.0
9105,85.0,8,15,4.0,0.0
9106,86.0,7,15,4.0,0.0
9107,85.0,8,15,4.0,0.0
9108,86.0,7,15,4.0,0.0
9109,85.0,0,15,4.0,0.0
9110,67.0,0,60,0.0,0.0
9111,50.0,0,60,3.0,0.0
9112,50.0,0,60,4.0,0.0
9113,83.0,30,30,4.0,0.0
9114,85.0,0,30,4.0,0.0
9115,46.0,0,120,4.0,0.0
9116,86.0,49,60,4.0,0.0
9117,62.0,0,120,1.0,0.0
9118,46.0,60,120,3.0,0.0
9119,65.0,0,60,0.0,0.0
9120,62.0,0,120,2.0,0.0
9121,61.0,0,60,0.0,0.0
9122,81.0,11,40,4.0,0.0
9123,62.0,0,120,0.0,0.0
9124,82.0,48,60,4.0,0.0
9125,50.0,60,60,3.0,0.0
9126,78.0,12,40,4.0,0.0
9127,50.0,0,60,4.0,0.0
9128,51.0,0,60,4.0,0.0
9129,51.0,0,60,3.0,0.0
9130,79.0,15,60,4.0,0.0
9131,48.0,8,60,3.0,0.0
9132,77.0,45,15,4.0,0.0
9133,48.0,0,60,4.0,0.0
9134,75.0,0,40,4.0,0.0
9135,69.0,0,120,2.0,0.0
9136,74.0,7,15,4.0,0.0
9137,42.0,6,60,4.0,0.0
9138,75.0,0,120,0.0,0.0
9139,72.0,8,120,1.0,0.0
9140,42.0,0,60,3.0,0.0
9141,72.0,8,15,4.0,0.0
9142,74.0,7,15,4.0,0.0
9143,72.0,8,15,4.0,0.0
9144,74.0,7,15,4.0,0.0
9145,72.0,8,15,4.0,0.0
9146,74.0,7,15,4.0,0.0
9147,72.0,2,15,4.0,0.0
9148,42.0,0,60,3.0,0.0
9149,42.0,7,60,4.0,0.0
9150,74.0,7,15,4.0,0.0
9151,72.0,8,15,4.0,0.0
9152,74.0,7,15,4.0,0.0
9153,72.0,8,15,4.0,0.0
9154,74.0,7,15,4.0,0.0
9155,72.0,8,15,4.0,0.0
9156,74.0,0,15,4.0,0.0
9157,72.0,0,15,4.0,0.0
9158,45.0,6,60,3.0,0.0
9159,72.0,0,120,0.0,0.0
9160,74.0,7,15,4.0,0.0
9161,45.0,0,60,4.0,0.0
9162,69.0,0,120,1.0,0.0
9163,66.0,8,120,2.0,0.0
9164,72.0,8,15,4.0,0.0
9165,74.0,7,15,4.0,0.0
9166,72.0,8,15,4.0,0.0
9167,74.0,7,15,4.0,0.0
9168,72.0,8,15,4.0,0.0
9169,74.0,7,15,4.0,0.0
9170,72.0,2,15,4.0,0.0
9171,74.0,7,15,4.0,0.0
9172,45.0,7,60,4.0,0.0
9173,45.0,0,60,3.0,0.0
9174,72.0,8,15,4.0,0.0
9175,74.0,7,15,4.0,0.0
9176,72.0,8,15,4.0,0.0
9177,74.0,7,15,4.0,0.0
9178,72.0,8,15,4.0,0.0
9179,74.0,0,15,4.0,0.0
9180,72.0,0,15,4.0,0.0
9181,48.0,0,60,4.0,0.0
9182,74.0,7,15,4.0,0.0
9183,63.0,90,120,2.0,0.0
9184,48.0,10,60,3.0,0.0
9185,66.0,0,120,1.0,0.0
9186,69.0,0,120,0.0,0.0
9187,72.0,8,15,4.0,0.0
9188,74.0,7,15,4.0,0.0
9189,72.0,8,15,4.0,0.0
9190,74.0,7,15,4.0,0.0
9191,72.0,8,15,4.0,0.0
9192,74.0,7,15,4.0,0.0
9193,72.0,2,15,4.0,0.0
9194,74.0,15,15,4.0,0.0
9195,48.0,0,60,4.0,0.0
9196,48.0,4,60,3.0,0.0
9197,72.0,15,15,4.0,0.0
9198,74.0,11,15,4.0,0.0
9199,70.0,3,15,4.0,0.0
9200,39.0,0,120,4.0,0.0
9201,72.0,30,90,4.0,0.0
9202,39.0,0,120,3.0,0.0
9203,65.0,0,120,0.0,0.0
9204,57.0,0,120,2.0,0.0
9205,60.0,15,120,1.0,0.0
9206,69.0,0,60,4.0,0.0
9207,70.0,15,15,4.0,0.0
9208,72.0,15,15,4.0,0.0
9209,70.0,15,15,4.0,0.0
9210,69.0,30,15,4.0,0.0
9211,45.0,0,60,3.0,0.0
9212,72.0,0,60,1.0,0.0
9213,67.0,0,60,2.0,0.0
9214,75.0,0,60,0.0,0.0
9215,45.0,15,60,4.0,0.0
9216,70.0,30,30,4.0,0.0
9217,72.0,0,30,4.0,0.0
9218,74.0,0,60,0.0,0.0
9219,46.0,0,60,3.0,0.0
9220,46.0,0,60,4.0,0.0
9221,65.0,30,60,2.0,0.0
9222,70.0,0,60,1.0,0.0
9223,74.0,15,15,4.0,0.0
9224,75.0,15,15,4.0,0.0
9225,74.0,15,15,4.0,0.0
9226,72.0,0,15,4.0,0.0
9227,72.0,15,60,0.0,0.0
9228,69.0,0,60,1.0,0.0
9229,48.0,0,60,4.0,0.0
9230,74.0,30,30,4.0,0.0
9231,63.0,0,60,2.0,0.0
9232,48.0,0,60,3.0,0.0
9233,75.0,0,30,4.0,0.0
9234,70.0,60,180,0.0,0.0
9235,50.0,30,60,3.0,0.0
9236,77.0,15,15,4.0,0.0
9237,70.0,0,120,1.0,0.0
9238,62.0,0,60,2.0,0.0
9239,50.0,0,60,4.0,0.0
9240,77.0,15,15,4.0,0.0
9241,79.0,15,15,4.0,0.0
9242,80.0,0,15,4.0,0.0
9243,51.0,0,60,4.0,0.0
9244,79.0,30,30,4.0,0.0
9245,51.0,0,60,3.0,0.0
9246,60.0,30,60,2.0,0.0
9247,77.0,0,30,4.0,0.0
9248,75.0,30,30,4.0,0.0
9249,53.0,0,120,3.0,0.0
9250,65.0,15,120,1.0,0.0
9251,53.0,0,120,4.0,0.0
9252,62.0,0,60,2.0,0.0
9253,74.0,0,90,4.0,0.0
9254,72.0,0,60,0.0,0.0
9255,63.0,0,60,2.0,0.0
9256,41.0,0,120,4.0,0.0
9257,72.0,0,15,4.0,0.0
9258,41.0,0,120,3.0,0.0
9259,65.0,23,120,1.0,0.0
9260,65.0,0,60,2.0,0.0
9261,70.0,15,15,0.0,0.0
9262,74.0,15,15,4.0,0.0
9263,69.0,0,15,0.0,0.0
9264,70.0,15,15,0.0,0.0
9265,72.0,0,15,4.0,0.0
9266,69.0,15,15,0.0,0.0
9267,70.0,0,15,4.0,0.0
9268,72.0,0,60,4.0,0.0
9269,70.0,15,15,0.0,0.0
9270,62.0,0,60,2.0,0.0
9271,69.0,15,15,0.0,0.0
9272,67.0,15,15,0.0,0.0
9273,69.0,0,15,0.0,0.0
9274,46.0,0,120,3.0,0.0
9275,70.0,0,120,0.0,0.0
9276,65.0,0,120,1.0,0.0
9277,70.0,40,20,4.0,0.0
9278,46.0,0,120,4.0,0.0
9279,62.0,3,120,2.0,0.0
9280,65.0,27,30,4.0,0.0
9281,67.0,30,30,4.0,0.0
9282,62.0,27,30,4.0,0.0
9283,63.0,33,30,4.0,0.0
9284,60.0,27,30,4.0,0.0
9285,62.0,30,30,4.0,0.0
9286,58.0,30,30,4.0,0.0
9287,56.0,30,30,4.0,0.0
9288,55.0,30,30,4.0,0.0
9289,56.0,30,30,4.0,0.0
9290,65.0,60,30,4.0,0.0
9291,77.0,15,90,0.0,0.0
9292,74.0,0,120,1.0,0.0
9293,67.0,0,120,2.0,0.0
9294,47.0,28,60,4.0,0.0
9295,65.0,30,390,4.0,0.0
9296,56.0,2,60,4.0,0.0
9297,47.0,0,15,3.0,0.0
9298,55.0,0,330,4.0,0.0
9299,47.0,7,60,4.0,0.0
9300,79.0,8,15,0.0,0.0
9301,80.0,60,15,0.0,0.0
9302,79.0,2,60,0.0,0.0
9303,50.0,51,60,3.0,0.0
9304,71.0,0,120,1.0,0.0
9305,50.0,0,60,4.0,0.0
9306,62.0,0,120,2.0,0.0
9307,50.0,7,60,4.0,0.0
9308,77.0,60,60,0.0,0.0
9309,50.0,0,60,3.0,0.0
9310,75.0,2,60,0.0,0.0
9311,59.0,30,120,2.0,0.0
9312,67.0,0,120,1.0,0.0
9313,53.0,51,15,3.0,0.0
9314,53.0,0,15,4.0,0.0
9315,74.0,0,60,0.0,0.0
9316,72.0,2,60,0.0,0.0
9317,62.0,0,120,2.0,0.0
9318,43.0,0,60,4.0,0.0
9319,43.0,28,60,3.0,0.0
9320,67.0,0,120,1.0,0.0
9321,59.0,0,30,4.0,0.0
9322,41.0,0,60,4.0,0.0
9323,62.0,30,30,4.0,0.0
9324,71.0,2,60,0.0,0.0
9325,65.0,0,30,4.0,0.0
9326,41.0,28,15,3.0,0.0
9327,68.0,30,30,4.0,0.0
9328,41.0,2,60,4.0,0.0
9329,71.0,0,30,4.0,0.0
9330,74.0,23,30,4.0,0.0
9331,43.0,7,60,3.0,0.0
9332,43.0,30,60,4.0,0.0
9333,77.0,0,30,4.0,0.0
9334,80.0,30,30,4.0,0.0
9335,79.0,15,30,4.0,0.0
9336,77.0,15,15,4.0,0.0
9337,75.0,15,15,4.0,0.0
9338,77.0,15,15,4.0,0.0
9339,74.0,15,15,4.0,0.0
9340,48.0,6,60,4.0,0.0
9341,74.0,15,15,4.0,0.0
9342,79.0,0,120,0.0,0.0
9343,72.0,0,120,2.0,0.0
9344,75.0,62,120,1.0,0.0
9345,75.0,8,15,4.0,0.0
9346,77.0,7,15,4.0,0.0
9347,75.0,8,15,4.0,0.0
9348,77.0,7,15,4.0,0.0
9349,75.0,2,15,4.0,0.0
9350,48.0,0,15,3.0,0.0
9351,48.0,7,60,4.0,0.0
9352,77.0,7,15,4.0,0.0
9353,75.0,8,15,4.0,0.0
9354,77.0,7,15,4.0,0.0
9355,75.0,15,15,4.0,0.0
9356,77.0,8,15,4.0,0.0
9357,74.0,0,15,4.0,0.0
9358,67.0,0,120,2.0,0.0
9359,72.0,0,120,1.0,0.0
9360,75.0,60,120,0.0,0.0
9361,75.0,30,270,4.0,0.0
9362,51.0,0,60,3.0,0.0
9363,51.0,51,15,4.0,0.0
9364,51.0,7,60,3.0,0.0
9365,55.0,0,60,4.0,0.0
9366,67.0,2,60,1.0,0.0
9367,71.0,0,120,0.0,0.0
9368,63.0,0,60,2.0,0.0
9369,55.0,51,60,3.0,0.0
9370,65.0,30,60,1.0,0.0
9371,55.0,7,60,3.0,0.0
9372,62.0,0,60,2.0,0.0
9373,55.0,0,60,4.0,0.0
9374,44.0,30,60,3.0,0.0
9375,72.0,0,60,0.0,0.0
9376,60.0,0,120,2.0,0.0
9377,44.0,0,60,4.0,0.0
9378,63.0,15,120,1.0,0.0
9379,72.0,15,60,4.0,0.0
9380,71.0,0,60,0.0,0.0
9381,43.0,0,60,3.0,0.0
9382,43.0,0,60,4.0,0.0
9383,73.0,15,15,4.0,0.0
9384,71.0,0,15,4.0,0.0
9385,72.0,15,15,4.0,0.0
9386,43.0,30,60,4.0,0.0
9387,43.0,0,60,3.0,0.0
9388,72.0,0,120,0.0,0.0
9389,70.0,15,15,4.0,0.0
9390,68.0,15,15,4.0,0.0
9391,67.0,0,15,4.0,0.0
9392,44.0,7,60,3.0,0.0
9393,68.0,23,30,4.0,0.0
9394,44.0,0,60,4.0,0.0
9395,64.0,30,30,4.0,0.0
9396,65.0,30,30,4.0,0.0
9397,73.0,30,30,4.0,0.0
9398,72.0,30,30,4.0,0.0
9399,71.0,62,30,4.0,0.0
9400,71.0,0,390,4.0,0.0
9401,50.0,51,60,4.0,0.0
9402,65.0,60,120,2.0,0.0
9403,77.0,0,120,0.0,0.0
9404,71.0,0,120,1.0,0.0
9405,77.0,30,390,4.0,0.0
9406,50.0,0,15,3.0,0.0
9407,50.0,0,60,4.0,0.0
9408,71.0,2,60,1.0,0.0
9409,53.0,0,60,4.0,0.0
9410,68.0,0,120,2.0,0.0
9411,74.0,0,120,0.0,0.0
9412,53.0,51,15,3.0,0.0
9413,53.0,7,60,4.0,0.0
9414,74.0,60,60,1.0,0.0
9415,65.0,2,60,1.0,0.0
9416,62.0,0,120,2.0,0.0
9417,71.0,30,120,0.0,0.0
9418,56.0,0,15,4.0,0.0
9419,56.0,51,15,3.0,0.0
9420,68.0,0,60,1.0,0.0
9421,62.0,30,120,1.0,0.0
9422,67.0,0,120,2.0,0.0
9423,47.0,0,60,4.0,0.0
9424,67.0,2,60,0.0,0.0
9425,76.0,0,30,4.0,0.0
9426,65.0,0,60,0.0,0.0
9427,77.0,23,30,4.0,0.0
9428,47.0,28,15,3.0,0.0
9429,47.0,0,60,4.0,0.0
9430,80.0,0,30,4.0,0.0
9431,67.0,0,120,0.0,0.0
9432,50.0,0,60,3.0,0.0
9433,77.0,30,30,4.0,0.0
9434,76.0,2,30,4.0,0.0
9435,50.0,0,60,3.0,0.0
9436,50.0,28,15,4.0,0.0
9437,77.0,15,30,4.0,0.0
9438,80.0,8,15,4.0,0.0
9439,79.0,15,15,4.0,0.0
9440,77.0,15,15,4.0,0.0
9441,53.0,43,60,4.0,0.0
9442,76.0,30,15,4.0,0.0
9443,77.0,2,30,4.0,0.0
9444,53.0,0,15,3.0,0.0
9445,53.0,0,60,4.0,0.0
9446,85.0,8,40,4.0,0.0
9447,84.0,15,15,4.0,0.0
9448,83.0,15,15,4.0,0.0
9449,68.0,0,120,1.0,0.0
9450,62.0,62,120,2.0,0.0
9451,65.0,0,120,0.0,0.0
9452,84.0,15,15,4.0,0.0
9453,83.0,15,15,4.0,0.0
9454,84.0,2,15,4.0,0.0
9455,84.0,5,15,4.0,0.0
9456,43.0,0,15,3.0,0.0
9457,43.0,5,15,4.0,0.0
9458,86.0,5,15,4.0,0.0
9459,84.0,15,15,4.0,0.0
9460,83.0,21,15,4.0,0.0
9461,84.0,0,30,4.0,0.0
9462,62.0,0,120,0.0,0.0
9463,59.0,62,120,2.0,0.0
9464,86.0,30,270,4.0,0.0
9465,65.0,0,120,1.0,0.0
9466,47.0,51,15,4.0,0.0
9467,47.0,0,15,3.0,0.0
9468,55.0,0,120,2.0,0.0
9469,50.0,0,60,3.0,0.0
9470,62.0,0,120,1.0,0.0
9471,59.0,30,120,0.0,0.0
9472,50.0,0,60,3.0,0.0
9473,50.0,51,15,4.0,0.0
9474,51.0,0,120,2.0,0.0
9475,51.0,0,60,3.0,0.0
9476,55.0,30,120,0.0,0.0
9477,67.0,0,120,1.0,0.0
9478,39.0,30,60,4.0,0.0
9479,84.0,0,30,4.0,0.0
9480,38.0,0,60,4.0,0.0
9481,83.0,30,30,4.0,0.0
9482,50.0,0,60,3.0,0.0
9483,84.0,0,30,4.0,0.0
9484,60.0,0,120,0.0,0.0
9485,51.0,7,60,3.0,0.0
9486,84.0,23,30,4.0,0.0
9487,39.0,30,60,4.0,0.0
9488,82.0,0,30,4.0,0.0
9489,51.0,0,60,4.0,0.0
9490,63.0,0,60,3.0,0.0
9491,80.0,15,30,4.0,0.0
9492,79.0,15,15,4.0,0.0
9493,82.0,30,15,4.0,0.0
9494,47.0,30,60,4.0,0.0
9495,82.0,30,30,4.0,0.0
9496,62.0,0,60,0.0,0.0
9497,59.0,0,60,3.0,0.0
9498,80.0,0,150,4.0,0.0
9499,60.0,60,60,3.0,0.0
9500,48.0,0,60,4.0,0.0
9501,65.0,30,30,0.0,0.0
9502,64.0,0,30,0.0,0.0
9503,60.0,15,120,2.0,0.0
9504,41.0,30,60,4.0,0.0
9505,53.0,0,60,3.0,0.0
9506,65.0,0,120,1.0,0.0
9507,65.0,0,60,0.0,0.0
9508,51.0,0,60,3.0,0.0
9509,39.0,0,60,4.0,0.0
9510,72.0,0,60,4.0,0.0
9511,68.0,30,30,0.0,0.0
9512,67.0,0,30,0.0,0.0
9513,53.0,7,60,3.0,0.0
9514,75.0,15,15,4.0,0.0
9515,41.0,30,60,4.0,0.0
9516,68.0,0,120,0.0,0.0
9517,73.0,23,15,4.0,0.0
9518,72.0,0,30,4.0,0.0
9519,73.0,30,30,4.0,0.0
9520,51.0,0,60,4.0,0.0
9521,63.0,0,60,3.0,0.0
9522,80.0,30,30,4.0,0.0
9523,79.0,30,30,4.0,0.0
9524,47.0,0,60,4.0,0.0
9525,59.0,30,60,3.0,0.0
9526,74.0,0,60,0.0,0.0
9527,77.0,0,30,4.0,0.0
9528,48.0,0,60,4.0,0.0
9529,76.0,30,30,4.0,0.0
9530,60.0,30,60,3.0,0.0
9531,72.0,0,60,0.0,0.0
9532,77.0,0,30,4.0,0.0
9533,74.0,30,360,1.0,0.0
9534,55.0,0,60,3.0,0.0
9535,71.0,0,120,0.0,0.0
9536,67.0,15,30,4.0,0.0
9537,43.0,60,60,4.0,0.0
9538,65.0,0,360,2.0,0.0
9539,71.0,15,15,4.0,0.0
9540,74.0,0,15,4.0,0.0
9541,53.0,0,60,3.0,0.0
9542,41.0,53,60,4.0,0.0
9543,77.0,0,60,4.0,0.0
9544,55.0,7,60,3.0,0.0
9545,74.0,0,120,0.0,0.0
9546,43.0,60,60,4.0,0.0
9547,51.0,60,60,4.0,0.0
9548,63.0,0,60,3.0,0.0
9549,67.0,0,60,4.0,0.0
9550,59.0,0,60,3.0,0.0
9551,47.0,60,60,4.0,0.0
9552,68.0,0,60,4.0,0.0
9553,77.0,0,120,0.0,0.0
9554,60.0,0,60,3.0,0.0
9555,67.0,0,60,4.0,0.0
9556,48.0,0,60,4.0,0.0
9557,72.0,0,120,1.0,0.0
9558,67.0,15,30,4.0,0.0
9559,56.0,0,120,3.0,0.0
9560,44.0,0,120,4.0,0.0
9561,60.0,0,120,2.0,0.0
9562,75.0,30,120,0.0,0.0
9563,75.0,15,15,4.0,0.0
9564,74.0,30,15,4.0,0.0
9565,72.0,30,30,4.0,0.0
9566,68.0,0,30,4.0,0.0
9567,67.0,30,30,4.0,0.0
9568,65.0,30,30,4.0,0.0
9569,60.0,0,60,3.0,0.0
9570,64.0,30,30,4.0,0.0
9571,48.0,30,60,4.0,0.0
9572,65.0,0,30,4.0,0.0
9573,49.0,0,60,4.0,0.0
9574,61.0,30,60,3.0,0.0
9575,65.0,30,30,4.0,0.0
9576,61.0,0,30,4.0,0.0
9577,57.0,30,30,4.0,0.0
9578,46.0,0,60,4.0,0.0
9579,58.0,8,60,3.0,0.0
9580,58.0,0,30,4.0,0.0
9581,73.0,8,120,0.0,0.0
9582,52.0,0,60,3.0,0.0
9583,67.0,0,120,2.0,0.0
9584,70.0,0,120,1.0,0.0
9585,40.0,6,60,4.0,0.0
9586,58.0,7,15,4.0,0.0
9587,60.0,8,15,4.0,0.0
9588,58.0,7,15,4.0,0.0
9589,60.0,8,15,4.0,0.0
9590,58.0,7,15,4.0,0.0
9591,60.0,8,15,4.0,0.0
9592,58.0,7,15,4.0,0.0
9593,60.0,2,15,4.0,0.0
9594,52.0,7,60,3.0,0.0
9595,58.0,7,15,4.0,0.0
9596,40.0,0,60,4.0,0.0
9597,60.0,8,15,4.0,0.0
9598,58.0,7,15,4.0,0.0
9599,60.0,8,15,4.0,0.0
9600,58.0,7,15,4.0,0.0
9601,60.0,8,15,4.0,0.0
9602,58.0,0,15,4.0,0.0
9603,60.0,0,15,4.0,0.0
9604,58.0,7,15,4.0,0.0
9605,67.0,0,120,1.0,0.0
9606,55.0,6,60,3.0,0.0
9607,64.0,0,120,2.0,0.0
9608,70.0,0,120,0.0,0.0
9609,60.0,8,15,4.0,0.0
9610,58.0,7,15,4.0,0.0
9611,60.0,8,15,4.0,0.0
9612,58.0,7,15,4.0,0.0
9613,60.0,8,15,4.0,0.0
9614,58.0,7,15,4.0,0.0
9615,60.0,2,15,4.0,0.0
9616,43.0,0,15,4.0,0.0
9617,58.0,7,15,4.0,0.0
9618,55.0,0,60,3.0,0.0
9619,60.0,8,15,4.0,0.0
9620,58.0,7,15,4.0,0.0
9621,60.0,8,15,4.0,0.0
9622,58.0,7,15,4.0,0.0
9623,60.0,8,15,4.0,0.0
9624,58.0,7,15,4.0,0.0
9625,60.0,8,15,4.0,0.0
9626,61.0,60,120,2.0,0.0
9627,64.0,0,120,1.0,0.0
9628,67.0,0,120,0.0,0.0
9629,58.0,7,15,4.0,0.0
9630,60.0,8,15,4.0,0.0
9631,58.0,7,15,4.0,0.0
9632,60.0,8,15,4.0,0.0
9633,58.0,7,15,4.0,0.0
9634,60.0,8,15,4.0,0.0
9635,58.0,7,15,4.0,0.0
9636,60.0,2,15,4.0,0.0
9637,58.0,0,15,3.0,0.0
9638,46.0,6,15,4.0,0.0
9639,58.0,7,15,4.0,0.0
9640,60.0,8,15,4.0,0.0
9641,58.0,7,15,4.0,0.0
9642,60.0,8,15,4.0,0.0
9643,58.0,7,15,4.0,0.0
9644,60.0,8,15,4.0,0.0
9645,58.0,7,15,4.0,0.0
9646,60.0,0,15,4.0,0.0
9647,49.0,0,120,3.0,0.0
9648,58.0,8,60,4.0,0.0
9649,37.0,30,120,4.0,0.0
9650,67.0,0,120,2.0,0.0
9651,64.0,0,120,0.0,0.0
9652,70.0,0,120,1.0,0.0
9653,55.0,7,15,4.0,0.0
9654,56.0,8,15,4.0,0.0
9655,55.0,7,15,4.0,0.0
9656,53.0,30,15,4.0,0.0
9657,55.0,0,30,4.0,0.0
9658,56.0,60,30,4.0,0.0
9659,61.0,30,60,4.0,0.0
9660,67.0,0,60,1.0,0.0
9661,76.0,30,60,0.0,0.0
9662,70.0,0,60,2.0,0.0
9663,55.0,0,60,4.0,0.0
9664,55.0,0,60,3.0,0.0
9665,60.0,0,30,4.0,0.0
9666,68.0,60,60,2.0,0.0
9667,56.0,0,60,4.0,0.0
9668,77.0,0,60,0.0,0.0
9669,65.0,0,60,1.0,0.0
9670,60.0,30,30,4.0,0.0
9671,56.0,0,60,3.0,0.0
9672,65.0,30,120,4.0,0.0
9673,53.0,30,60,4.0,0.0
9674,68.0,0,60,2.0,0.0
9675,53.0,0,60,3.0,0.0
9676,65.0,0,60,1.0,0.0
9677,75.0,0,60,0.0,0.0
9678,62.0,0,60,2.0,0.0
9679,59.0,0,60,3.0,0.0
9680,65.0,0,60,1.0,0.0
9681,59.0,30,60,4.0,0.0
9682,74.0,0,60,0.0,0.0
9683,68.0,0,30,4.0,0.0
9684,63.0,0,60,1.0,0.0
9685,66.0,30,30,4.0,0.0
9686,60.0,0,60,4.0,0.0
9687,63.0,0,60,2.0,0.0
9688,72.0,30,60,0.0,0.0
9689,60.0,0,60,3.0,0.0
9690,67.0,0,30,4.0,0.0
9691,59.0,30,60,2.0,0.0
9692,55.0,30,120,3.0,0.0
9693,67.0,0,120,1.0,0.0
9694,75.0,0,120,0.0,0.0
9695,67.0,30,30,4.0,0.0
9696,55.0,0,120,4.0,0.0
9697,75.0,30,60,4.0,0.0
9698,60.0,0,60,2.0,0.0
9699,74.0,0,30,4.0,0.0
9700,67.0,0,120,1.0,0.0
9701,62.0,60,60,2.0,0.0
9702,72.0,30,30,4.0,0.0
9703,43.0,0,120,4.0,0.0
9704,43.0,0,120,3.0,0.0
9705,77.0,0,60,0.0,0.0
9706,71.0,0,30,4.0,0.0
9707,74.0,0,60,0.0,0.0
9708,72.0,0,60,4.0,0.0
9709,65.0,60,60,2.0,0.0
9710,72.0,30,60,4.0,0.0
9711,63.0,0,120,2.0,0.0
9712,48.0,0,120,3.0,0.0
9713,67.0,0,120,1.0,0.0
9714,72.0,15,120,0.0,0.0
9715,48.0,0,120,4.0,0.0
9716,67.0,15,15,4.0,0.0
9717,69.0,15,15,4.0,0.0
9718,71.0,0,15,4.0,0.0
9719,72.0,15,15,4.0,0.0
9720,74.0,15,15,4.0,0.0
9721,75.0,15,15,4.0,0.0
9722,74.0,15,15,4.0,0.0
9723,72.0,15,15,4.0,0.0
9724,70.0,15,15,4.0,0.0
9725,69.0,15,15,4.0,0.0
9726,70.0,15,15,4.0,0.0
9727,72.0,15,15,4.0,0.0
9728,66.0,15,15,4.0,0.0
9729,67.0,15,15,4.0,0.0
9730,69.0,15,15,4.0,0.0
9731,67.0,15,15,4.0,0.0
9732,66.0,15,15,4.0,0.0
9733,64.0,15,15,4.0,0.0
9734,62.0,62,15,4.0,0.0
9735,78.0,15,120,4.0,0.0
9736,45.0,0,60,4.0,0.0
9737,75.0,0,120,0.0,0.0
9738,72.0,0,120,1.0,0.0
9739,57.0,15,120,2.0,0.0
9740,45.0,0,60,4.0,0.0
9741,45.0,51,15,3.0,0.0
9742,48.0,28,60,3.0,0.0
9743,69.0,0,120,1.0,0.0
9744,72.0,15,120,0.0,0.0
9745,63.0,0,120,2.0,0.0
9746,79.0,15,15,4.0,0.0
9747,78.0,15,15,4.0,0.0
9748,76.0,2,15,4.0,0.0
9749,78.0,23,30,4.0,0.0
9750,48.0,0,15,4.0,0.0
9751,48.0,7,60,3.0,0.0
9752,79.0,0,30,4.0,0.0
9753,51.0,13,60,4.0,0.0
9754,81.0,15,15,4.0,0.0
9755,51.0,0,60,3.0,0.0
9756,58.0,0,120,2.0,0.0
9757,67.0,30,120,1.0,0.0
9758,69.0,0,120,0.0,0.0
9759,79.0,8,15,4.0,0.0
9760,81.0,7,15,4.0,0.0
9761,79.0,8,15,4.0,0.0
9762,81.0,7,15,4.0,0.0
9763,79.0,2,15,4.0,0.0
9764,50.0,7,60,4.0,0.0
9765,81.0,15,15,4.0,0.0
9766,51.0,0,60,3.0,0.0
9767,79.0,15,15,4.0,0.0
9768,78.0,8,15,4.0,0.0
9769,79.0,0,15,4.0,0.0
9770,81.0,30,30,4.0,0.0
9771,42.0,28,60,3.0,0.0
9772,63.0,0,120,1.0,0.0
9773,72.0,30,120,0.0,0.0
9774,57.0,0,120,2.0,0.0
9775,42.0,0,60,4.0,0.0
9776,75.0,2,30,4.0,0.0
9777,72.0,23,30,4.0,0.0
9778,42.0,0,60,4.0,0.0
9779,42.0,7,60,3.0,0.0
9780,71.0,0,30,4.0,0.0
9781,45.0,2,60,4.0,0.0
9782,72.0,30,30,4.0,0.0
9783,60.0,15,120,1.0,0.0
9784,54.0,0,120,2.0,0.0
9785,69.0,0,120,0.0,0.0
9786,45.0,28,60,3.0,0.0
9787,75.0,0,30,4.0,0.0
9788,45.0,0,60,4.0,0.0
9789,78.0,23,30,4.0,0.0
9790,45.0,7,60,3.0,0.0
9791,79.0,0,30,4.0,0.0
9792,48.0,0,60,4.0,0.0
9793,81.0,15,15,4.0,0.0
9794,57.0,0,120,1.0,0.0
9795,50.0,15,120,2.0,0.0
9796,66.0,0,120,0.0,0.0
9797,82.0,15,15,4.0,0.0
9798,81.0,15,15,4.0,0.0
9799,79.0,2,15,4.0,0.0
9800,81.0,23,30,4.0,0.0
9801,48.0,0,60,4.0,0.0
9802,48.0,28,15,3.0,0.0
9803,82.0,0,30,4.0,0.0
9804,62.0,0,120,0.0,0.0
9805,84.0,15,15,4.0,0.0
9806,38.0,0,120,3.0,0.0
9807,38.0,30,120,4.0,0.0
9808,66.0,0,120,2.0,0.0
9809,57.0,0,120,1.0,0.0
9810,82.0,15,15,4.0,0.0
9811,81.0,15,15,4.0,0.0
9812,79.0,15,15,4.0,0.0
9813,78.0,15,15,4.0,0.0
9814,79.0,30,15,4.0,0.0
9815,81.0,0,30,4.0,0.0
9816,75.0,60,30,4.0,0.0
9817,73.0,30,60,4.0,0.0
9818,74.0,15,30,4.0,0.0
9819,74.0,30,15,4.0,0.0
9820,84.0,8,30,4.0,0.0
9821,82.0,7,15,4.0,0.0
9822,81.0,30,15,4.0,0.0
9823,79.0,30,30,4.0,0.0
9824,78.0,62,30,4.0,0.0
9825,74.0,0,120,0.0,0.0
9826,67.0,0,120,2.0,0.0
9827,55.0,28,60,4.0,0.0
9828,79.0,8,90,4.0,0.0
9829,70.0,0,120,1.0,0.0
9830,55.0,0,60,3.0,0.0
9831,55.0,0,60,4.0,0.0
9832,55.0,7,60,3.0,0.0
9833,80.0,7,15,4.0,0.0
9834,79.0,8,15,4.0,0.0
9835,78.0,30,15,4.0,0.0
9836,78.0,32,30,4.0,0.0
9837,58.0,0,60,3.0,0.0
9838,67.0,0,120,1.0,0.0
9839,70.0,60,120,0.0,0.0
9840,62.0,0,120,2.0,0.0
9841,79.0,30,240,4.0,0.0
9842,58.0,51,15,4.0,0.0
9843,58.0,7,60,3.0,0.0
9844,62.0,2,60,1.0,0.0
9845,58.0,0,60,2.0,0.0
9846,62.0,0,60,3.0,0.0
9847,66.0,0,120,0.0,0.0
9848,57.0,30,60,2.0,0.0
9849,62.0,51,15,4.0,0.0
9850,60.0,0,60,1.0,0.0
9851,62.0,0,60,3.0,0.0
9852,51.0,30,60,3.0,0.0
9853,51.0,0,60,4.0,0.0
9854,67.0,0,60,0.0,0.0
9855,58.0,15,120,1.0,0.0
9856,55.0,0,120,2.0,0.0
9857,67.0,0,30,4.0,0.0
9858,69.0,15,30,4.0,0.0
9859,50.0,0,60,4.0,0.0
9860,50.0,0,60,3.0,0.0
9861,66.0,0,60,0.0,0.0
9862,72.0,15,15,4.0,0.0
9863,71.0,0,15,4.0,0.0
9864,50.0,0,60,4.0,0.0
9865,72.0,15,15,4.0,0.0
9866,50.0,0,60,3.0,0.0
9867,67.0,0,120,0.0,0.0
9868,67.0,15,15,4.0,0.0
9869,69.0,15,15,4.0,0.0
9870,71.0,30,15,4.0,0.0
9871,51.0,45,60,3.0,0.0
9872,72.0,15,30,4.0,0.0
9873,51.0,0,60,4.0,0.0
9874,75.0,15,15,4.0,0.0
9875,74.0,0,15,4.0,0.0
9876,75.0,5,40,4.0,0.0
9877,74.0,6,15,4.0,0.0
9878,72.0,4,15,4.0,0.0
9879,71.0,30,15,4.0,0.0
9880,72.0,15,30,4.0,0.0
9881,75.0,15,15,4.0,0.0
9882,79.0,62,15,4.0,0.0
9883,57.0,0,60,4.0,0.0
9884,84.0,15,480,4.0,0.0
9885,66.0,60,120,1.0,0.0
9886,72.0,0,120,0.0,0.0
9887,60.0,0,120,2.0,0.0
9888,57.0,0,60,4.0,0.0
9889,57.0,51,15,3.0,0.0
9890,69.0,60,120,0.0,0.0
9891,63.0,0,120,2.0,0.0
9892,66.0,2,60,1.0,0.0
9893,69.0,0,60,1.0,0.0
9894,60.0,0,15,3.0,0.0
9895,60.0,51,15,4.0,0.0
9896,63.0,51,60,3.0,0.0
9897,63.0,0,60,4.0,0.0
9898,57.0,0,120,2.0,0.0
9899,66.0,0,120,0.0,0.0
9900,60.0,2,60,1.0,0.0
9901,63.0,60,60,1.0,0.0
9902,63.0,0,60,4.0,0.0
9903,63.0,7,60,3.0,0.0
9904,62.0,0,120,2.0,0.0
9905,62.0,2,60,0.0,0.0
9906,57.0,0,120,1.0,0.0
9907,54.0,51,60,4.0,0.0
9908,60.0,15,60,0.0,0.0
9909,54.0,0,15,3.0,0.0
9910,54.0,0,60,4.0,0.0
9911,57.0,0,60,3.0,0.0
9912,62.0,30,120,0.0,0.0
9913,82.0,15,15,4.0,0.0
9914,84.0,15,15,4.0,0.0
9915,86.0,2,15,4.0,0.0
9916,84.0,15,15,4.0,0.0
9917,57.0,13,15,4.0,0.0
9918,57.0,0,60,3.0,0.0
9919,82.0,15,15,4.0,0.0
9920,81.0,8,15,4.0,0.0
9921,79.0,0,15,4.0,0.0
9922,60.0,51,60,3.0,0.0
9923,60.0,0,60,4.0,0.0
9924,79.0,32,30,4.0,0.0
9925,78.0,13,120,4.0,0.0
9926,60.0,0,60,4.0,0.0
9927,60.0,24,60,3.0,0.0
9928,69.0,2,60,0.0,0.0
9929,62.0,0,120,1.0,0.0
9930,50.0,0,60,4.0,0.0
9931,66.0,60,120,2.0,0.0
9932,76.0,15,15,4.0,0.0
9933,78.0,15,15,4.0,0.0
9934,82.0,0,15,4.0,0.0
9935,67.0,0,60,0.0,0.0
9936,50.0,13,15,3.0,0.0
9937,81.0,15,15,4.0,0.0
9938,50.0,7,60,4.0,0.0
9939,79.0,15,15,4.0,0.0
9940,78.0,8,15,4.0,0.0
9941,76.0,0,15,4.0,0.0
9942,75.0,2,60,4.0,0.0
9943,69.0,0,120,0.0,0.0
9944,54.0,0,15,3.0,0.0
9945,54.0,28,15,4.0,0.0
9946,74.0,15,15,4.0,0.0
9947,75.0,8,15,4.0,0.0
9948,77.0,15,15,4.0,0.0
9949,75.0,15,15,4.0,0.0
9950,78.0,30,15,4.0,0.0
9951,79.0,2,30,4.0,0.0
9952,57.0,13,15,3.0,0.0
9953,57.0,0,15,4.0,0.0
9954,78.0,15,15,4.0,0.0
9955,79.0,15,15,4.0,0.0
9956,78.0,8,15,4.0,0.0
9957,78.0,0,15,4.0,0.0
9958,76.0,0,15,4.0,0.0
9959,46.0,0,60,3.0,0.0
9960,79.0,23,150,4.0,0.0
9961,46.0,0,60,4.0,0.0
9962,62.0,30,120,1.0,0.0
9963,58.0,60,60,2.0,0.0
9964,67.0,0,120,0.0,0.0
9965,60.0,0,60,2.0,0.0
9966,45.0,0,60,4.0,0.0
9967,45.0,0,60,3.0,0.0
9968,62.0,30,60,2.0,0.0
9969,70.0,0,60,0.0,0.0
9970,46.0,7,60,3.0,0.0
9971,46.0,0,60,4.0,0.0
9972,67.0,0,120,1.0,0.0
9973,81.0,0,30,4.0,0.0
9974,79.0,15,30,4.0,0.0
9975,74.0,0,60,0.0,0.0
9976,58.0,0,60,3.0,0.0
9977,58.0,0,60,4.0,0.0
9978,70.0,15,60,2.0,0.0
9979,77.0,15,30,4.0,0.0
9980,54.0,0,60,3.0,0.0
9981,69.0,0,60,1.0,0.0
9982,69.0,0,60,2.0,0.0
9983,72.0,0,60,0.0,0.0
9984,75.0,45,15,4.0,0.0
9985,54.0,0,60,4.0,0.0
9986,74.0,15,40,4.0,0.0
9987,55.0,0,60,4.0,0.0
9988,77.0,45,15,4.0,0.0
9989,67.0,0,60,2.0,0.0
9990,55.0,0,60,3.0,0.0
9991,70.0,0,60,0.0,0.0
9992,70.0,60,60,1.0,0.0
9993,75.0,0,40,4.0,0.0
9994,69.0,0,480,1.0,0.0
9995,75.0,0,120,0.0,0.0
9996,48.0,0,60,4.0,0.0
9997,75.0,23,150,4.0,0.0
9998,48.0,60,60,3.0,0.0
9999,67.0,0,360,2.0,0.0
10000,46.0,30,60,4.0,0.0
10001,46.0,0,60,3.0,0.0
10002,48.0,7,60,3.0,0.0
10003,79.0,0,120,0.0,0.0
10004,48.0,30,60,4.0,0.0
10005,77.0,0,30,4.0,0.0
10006,75.0,30,30,4.0,0.0
10007,58.0,0,60,4.0,0.0
10008,58.0,15,60,3.0,0.0
10009,74.0,0,30,4.0,0.0
10010,72.0,45,15,4.0,0.0
10011,75.0,0,120,0.0,0.0
10012,54.0,15,60,3.0,0.0
10013,54.0,0,60,4.0,0.0
10014,71.0,0,40,4.0,0.0
10015,74.0,45,15,4.0,0.0
10016,55.0,60,60,4.0,0.0
10017,55.0,0,60,3.0,0.0
10018,72.0,0,40,4.0,0.0
10019,66.0,0,120,2.0,0.0
10020,72.0,0,120,0.0,0.0
10021,50.0,60,60,3.0,0.0
10022,72.0,23,150,4.0,0.0
10023,50.0,0,60,4.0,0.0
10024,48.0,0,60,3.0,0.0
10025,48.0,30,60,4.0,0.0
10026,50.0,7,60,3.0,0.0
10027,75.0,0,120,0.0,0.0
10028,69.0,0,120,2.0,0.0
10029,50.0,0,60,4.0,0.0
10030,72.0,0,120,1.0,0.0
10031,79.0,30,30,4.0,0.0
10032,58.0,30,60,4.0,0.0
10033,58.0,0,60,3.0,0.0
10034,78.0,15,30,4.0,0.0
10035,79.0,15,15,4.0,0.0
10036,81.0,0,15,4.0,0.0
10037,75.0,0,30,4.0,0.0
10038,62.0,30,120,2.0,0.0
10039,54.0,0,60,4.0,0.0
10040,69.0,0,120,1.0,0.0
10041,54.0,8,60,3.0,0.0
10042,74.0,30,30,0.0,0.0
10043,75.0,0,30,0.0,0.0
10044,72.0,0,30,4.0,0.0
10045,55.0,0,60,3.0,0.0
10046,72.0,0,60,0.0,0.0
10047,55.0,0,60,4.0,0.0
10048,70.0,7,15,4.0,0.0
10049,72.0,15,15,4.0,0.0
10050,70.0,30,15,4.0,0.0
10051,69.0,0,30,4.0,0.0
10052,51.0,0,120,3.0,0.0
10053,51.0,0,120,4.0,0.0
10054,67.0,0,120,2.0,0.0
10055,67.0,30,120,1.0,0.0
10056,70.0,30,30,0.0,0.0
10057,67.0,0,30,4.0,0.0
10058,72.0,0,30,0.0,0.0
10059,66.0,8,30,4.0,0.0
10060,69.0,0,60,0.0,0.0
10061,67.0,7,15,4.0,0.0
10062,69.0,15,15,4.0,0.0
10063,67.0,30,15,4.0,0.0
10064,70.0,0,30,4.0,0.0
10065,63.0,30,30,4.0,0.0
10066,67.0,30,120,0.0,0.0
10067,62.0,8,30,4.0,0.0
10068,55.0,0,60,3.0,0.0
10069,63.0,7,15,4.0,0.0
10070,55.0,0,60,4.0,0.0
10071,65.0,15,15,4.0,0.0
10072,63.0,30,15,4.0,0.0
10073,67.0,0,30,4.0,0.0
10074,56.0,0,60,3.0,0.0
10075,56.0,0,60,4.0,0.0
10076,60.0,30,30,4.0,0.0
10077,59.0,8,30,4.0,0.0
10078,53.0,0,60,3.0,0.0
10079,53.0,30,60,4.0,0.0
10080,60.0,7,15,4.0,0.0
10081,62.0,15,15,4.0,0.0
10082,60.0,30,15,4.0,0.0
10083,63.0,0,30,4.0,0.0
10084,47.0,28,60,3.0,0.0
10085,56.0,30,30,4.0,0.0
10086,47.0,2,60,4.0,0.0
10087,59.0,30,120,2.0,0.0
10088,77.0,0,480,0.0,0.0
10089,74.0,30,480,1.0,0.0
10090,55.0,0,30,4.0,0.0
10091,56.0,23,30,4.0,0.0
10092,47.0,0,60,4.0,0.0
10093,47.0,7,60,3.0,0.0
10094,62.0,0,30,4.0,0.0
10095,50.0,2,60,4.0,0.0
10096,65.0,30,30,4.0,0.0
10097,50.0,28,60,3.0,0.0
10098,68.0,30,120,2.0,0.0
10099,63.0,0,30,4.0,0.0
10100,65.0,23,30,4.0,0.0
10101,50.0,7,60,3.0,0.0
10102,50.0,0,60,4.0,0.0
10103,68.0,0,30,4.0,0.0
10104,53.0,0,60,4.0,0.0
10105,62.0,30,30,4.0,0.0
10106,65.0,30,120,2.0,0.0
10107,53.0,28,60,3.0,0.0
10108,60.0,2,30,4.0,0.0
10109,53.0,0,60,4.0,0.0
10110,53.0,7,60,3.0,0.0
10111,62.0,23,30,4.0,0.0
10112,65.0,0,30,4.0,0.0
10113,62.0,0,120,2.0,0.0
10114,44.0,0,120,3.0,0.0
10115,59.0,30,30,4.0,0.0
10116,44.0,0,120,4.0,0.0
10117,62.0,30,30,4.0,0.0
10118,65.0,30,30,4.0,0.0
10119,68.0,0,30,4.0,0.0
10120,67.0,30,30,4.0,0.0
10121,65.0,8,30,4.0,0.0
10122,77.0,30,60,1.0,0.0
10123,50.0,0,60,4.0,0.0
10124,50.0,0,60,3.0,0.0
10125,80.0,0,60,0.0,0.0
10126,71.0,0,60,2.0,0.0
10127,63.0,7,15,4.0,0.0
10128,65.0,15,15,4.0,0.0
10129,63.0,30,15,4.0,0.0
10130,62.0,0,30,4.0,0.0
10131,51.0,0,60,3.0,0.0
10132,79.0,0,60,0.0,0.0
10133,72.0,0,60,2.0,0.0
10134,75.0,0,60,1.0,0.0
10135,60.0,30,30,4.0,0.0
10136,51.0,0,60,4.0,0.0
10137,63.0,30,30,4.0,0.0
10138,77.0,0,60,0.0,0.0
10139,48.0,0,60,4.0,0.0
10140,67.0,30,30,4.0,0.0
10141,48.0,0,60,3.0,0.0
10142,74.0,0,60,1.0,0.0
10143,67.0,30,60,2.0,0.0
10144,71.0,0,30,4.0,0.0
10145,72.0,0,60,1.0,0.0
10146,54.0,0,60,3.0,0.0
10147,75.0,0,60,0.0,0.0
10148,69.0,30,60,2.0,0.0
10149,54.0,0,60,4.0,0.0
10150,72.0,30,30,4.0,0.0
10151,75.0,0,30,4.0,0.0
10152,67.0,0,60,1.0,0.0
10153,55.0,30,60,3.0,0.0
10154,73.0,30,30,4.0,0.0
10155,55.0,0,60,4.0,0.0
10156,71.0,0,60,0.0,0.0
10157,67.0,0,60,2.0,0.0
10158,71.0,0,30,4.0,0.0
10159,67.0,30,120,1.0,0.0
10160,72.0,0,120,0.0,0.0
10161,60.0,0,120,2.0,0.0
10162,51.0,0,120,3.0,0.0
10163,72.0,30,30,4.0,0.0
10164,51.0,0,120,4.0,0.0
10165,75.0,30,30,4.0,0.0
10166,80.0,30,30,4.0,0.0
10167,78.0,0,30,4.0,0.0
10168,79.0,30,30,4.0,0.0
10169,75.0,30,30,4.0,0.0
10170,73.0,30,30,4.0,0.0
10171,74.0,30,30,4.0,0.0
10172,76.0,0,120,1.0,0.0
10173,61.0,0,120,2.0,0.0
10174,82.0,30,30,4.0,0.0
10175,49.0,60,120,4.0,0.0
10176,79.0,0,60,0.0,0.0
10177,49.0,0,120,3.0,0.0
10178,80.0,30,30,4.0,0.0
10179,78.0,0,30,4.0,0.0
10180,81.0,30,30,0.0,0.0
10181,82.0,0,30,0.0,0.0
10182,79.0,0,30,4.0,0.0
10183,84.0,15,150,4.0,0.0
10184,50.0,45,120,4.0,0.0
10185,79.0,0,120,0.0,0.0
10186,57.0,60,60,2.0,0.0
10187,74.0,0,120,1.0,0.0
10188,50.0,0,120,3.0,0.0
10189,58.0,0,60,2.0,0.0
10190,60.0,0,60,2.0,0.0
10191,38.0,0,120,3.0,0.0
10192,78.0,0,90,0.0,0.0
10193,38.0,0,120,4.0,0.0
10194,74.0,0,120,1.0,0.0
10195,82.0,15,15,4.0,0.0
10196,62.0,0,60,2.0,0.0
10197,81.0,15,15,4.0,0.0
10198,79.0,30,15,4.0,0.0
10199,81.0,0,30,4.0,0.0
10200,79.0,75,30,0.0,0.0
10201,79.0,0,120,0.0,0.0
10202,58.0,0,120,2.0,0.0
10203,43.0,0,120,4.0,0.0
10204,74.0,0,120,1.0,0.0
10205,79.0,15,60,4.0,0.0
10206,43.0,15,120,3.0,0.0
10207,82.0,15,15,4.0,0.0
10208,81.0,15,15,4.0,0.0
10209,79.0,0,15,4.0,0.0
10210,77.0,15,15,4.0,0.0
10211,75.0,15,15,4.0,0.0
10212,74.0,15,15,4.0,0.0
10213,72.0,15,15,4.0,0.0
10214,70.0,15,15,4.0,0.0
10215,72.0,8,15,4.0,0.0
10216,72.0,7,15,4.0,0.0
10217,74.0,8,15,4.0,0.0
10218,70.0,7,15,4.0,0.0
10219,72.0,8,15,4.0,0.0
10220,74.0,7,15,4.0,0.0
10221,70.0,8,15,4.0,0.0
10222,67.0,7,15,4.0,0.0
10223,65.0,8,15,4.0,0.0
10224,67.0,7,15,4.0,0.0
10225,62.0,8,15,4.0,0.0
10226,58.0,7,15,4.0,0.0
10227,60.0,8,15,4.0,0.0
10228,62.0,7,15,4.0,0.0
10229,60.0,8,15,4.0,0.0
10230,58.0,7,15,4.0,0.0
10231,60.0,15,15,4.0,0.0
10232,62.0,15,15,4.0,0.0
10233,58.0,60,15,4.0,0.0
10234,55.0,2,60,4.0,0.0
10235,67.0,0,60,1.0,0.0
10236,67.0,0,60,2.0,0.0
10237,55.0,0,60,3.0,0.0
10238,58.0,6,90,4.0,0.0
10239,62.0,5,90,4.0,0.0
10240,67.0,2,60,4.0,0.0
10241,55.0,5,40,4.0,0.0
10242,70.0,3,60,4.0,0.0
10243,55.0,0,60,3.0,0.0
10244,67.0,2,60,2.0,0.0
10245,67.0,0,60,1.0,0.0
10246,67.0,35,15,0.0,0.0
10247,74.0,58,40,4.0,0.0
10248,79.0,2,30,4.0,0.0
10249,58.0,0,60,3.0,0.0
10250,58.0,2,60,4.0,0.0
10251,70.0,0,60,0.0,0.0
10252,58.0,0,60,4.0,0.0
10253,70.0,51,15,2.0,0.0
10254,70.0,0,15,1.0,0.0
10255,70.0,0,60,0.0,0.0
10256,58.0,67,60,3.0,0.0
10257,62.0,0,60,3.0,0.0
10258,74.0,51,60,0.0,0.0
10259,62.0,2,60,4.0,0.0
10260,74.0,0,60,2.0,0.0
10261,62.0,0,60,3.0,0.0
10262,74.0,0,15,1.0,0.0
10263,74.0,0,60,0.0,0.0
10264,74.0,0,60,2.0,0.0
10265,62.0,67,60,4.0,0.0
10266,63.0,0,60,1.0,0.0
10267,51.0,51,60,3.0,0.0
10268,63.0,0,60,2.0,0.0
10269,51.0,2,60,4.0,0.0
10270,63.0,0,60,0.0,0.0
10271,62.0,0,60,1.0,0.0
10272,50.0,66,60,4.0,0.0
10273,62.0,1,60,0.0,0.0
10274,62.0,0,60,2.0,0.0
10275,50.0,0,60,3.0,0.0
10276,62.0,0,60,2.0,0.0
10277,50.0,2,60,4.0,0.0
10278,62.0,0,60,1.0,0.0
10279,62.0,58,60,0.0,0.0
10280,50.0,0,60,3.0,0.0
10281,51.0,0,60,4.0,0.0
10282,63.0,0,60,1.0,0.0
10283,51.0,180,60,3.0,0.0
10284,63.0,0,60,0.0,0.0
10285,63.0,0,60,2.0,0.0
10286,69.0,0,60,1.0,0.0
10287,57.0,0,60,4.0,0.0
10288,57.0,0,60,3.0,0.0
10289,69.0,0,60,2.0,0.0
10290,69.0,53,60,0.0,0.0
10291,69.0,67,60,2.0,0.0
10292,69.0,0,60,0.0,0.0
10293,69.0,0,60,1.0,0.0
10294,57.0,0,60,4.0,0.0
10295,57.0,0,60,3.0,0.0
10296,60.0,0,60,3.0,0.0
10297,72.0,0,60,1.0,0.0
10298,72.0,0,60,0.0,0.0
10299,72.0,53,60,2.0,0.0
10300,60.0,0,60,4.0,0.0
10301,72.0,67,60,0.0,0.0
10302,60.0,0,60,3.0,0.0
10303,72.0,0,60,1.0,0.0
10304,60.0,0,60,4.0,0.0
10305,72.0,0,60,2.0,0.0
10306,63.0,0,60,4.0,0.0
10307,75.0,0,60,1.0,0.0
10308,75.0,0,60,2.0,0.0
10309,75.0,53,60,0.0,0.0
10310,63.0,0,60,3.0,0.0
10311,75.0,0,60,1.0,0.0
10312,63.0,0,60,3.0,0.0
10313,63.0,67,60,4.0,0.0
10314,75.0,0,60,0.0,0.0
10315,75.0,0,60,2.0,0.0
10316,54.0,0,60,3.0,0.0
10317,66.0,0,60,1.0,0.0
10318,66.0,0,60,2.0,0.0
10319,66.0,0,60,0.0,0.0
10320,54.0,53,60,4.0,0.0
10321,54.0,67,60,4.0,0.0
10322,66.0,0,60,2.0,0.0
10323,66.0,0,60,0.0,0.0
10324,54.0,0,60,3.0,0.0
10325,66.0,0,60,1.0,0.0
10326,69.0,0,60,1.0,0.0
10327,57.0,0,60,4.0,0.0
10328,69.0,0,60,0.0,0.0
10329,57.0,53,60,3.0,0.0
10330,69.0,0,60,2.0,0.0
10331,69.0,0,60,2.0,0.0
10332,69.0,0,60,1.0,0.0
10333,57.0,0,60,3.0,0.0
10334,57.0,67,60,4.0,0.0
10335,69.0,0,60,0.0,0.0
10336,72.0,0,60,2.0,0.0
10337,60.0,0,60,4.0,0.0
10338,72.0,0,60,1.0,0.0
10339,60.0,0,60,3.0,0.0
10340,72.0,53,60,0.0,0.0
10341,72.0,0,60,1.0,0.0
10342,60.0,0,60,4.0,0.0
10343,60.0,0,60,3.0,0.0
10344,72.0,0,60,2.0,0.0
10345,72.0,67,60,0.0,0.0
10346,50.0,0,60,4.0,0.0
10347,62.0,53,60,1.0,0.0
10348,50.0,0,60,3.0,0.0
10349,62.0,0,60,2.0,0.0
10350,62.0,0,60,0.0,0.0
10351,62.0,0,60,2.0,0.0
10352,62.0,67,60,1.0,0.0
10353,50.0,0,60,4.0,0.0
10354,50.0,0,60,3.0,0.0
10355,62.0,0,60,0.0,0.0
10356,66.0,53,60,2.0,0.0
10357,54.0,0,60,3.0,0.0
10358,54.0,0,60,4.0,0.0
10359,66.0,0,60,0.0,0.0
10360,66.0,0,60,1.0,0.0
10361,66.0,67,60,0.0,0.0
10362,54.0,0,60,4.0,0.0
10363,66.0,0,60,2.0,0.0
10364,66.0,0,60,1.0,0.0
10365,54.0,0,60,3.0,0.0
10366,69.0,0,60,1.0,0.0
10367,57.0,53,60,4.0,0.0
10368,69.0,0,60,2.0,0.0
10369,69.0,0,60,0.0,0.0
10370,57.0,0,60,3.0,0.0
10371,57.0,0,60,3.0,0.0
10372,69.0,67,60,0.0,0.0
10373,69.0,0,60,2.0,0.0
10374,57.0,0,60,4.0,0.0
10375,69.0,0,60,1.0,0.0
10376,58.0,0,60,2.0,0.0
10377,58.0,60,60,0.0,0.0
10378,46.0,0,60,4.0,0.0
10379,46.0,0,60,3.0,0.0
10380,58.0,0,60,1.0,0.0
10381,57.0,0,60,0.0,0.0
10382,57.0,0,60,1.0,0.0
10383,45.0,0,60,3.0,0.0
10384,57.0,0,60,2.0,0.0
10385,45.0,53,60,4.0,0.0
10386,58.0,52,60,0.0,0.0
10387,46.0,0,60,3.0,0.0
10388,58.0,0,60,2.0,0.0
10389,58.0,0,60,1.0,0.0
10390,46.0,0,60,4.0,0.0
10391,70.0,0,40,1.0,0.0
10392,70.0,0,40,0.0,0.0
10393,58.0,75,40,4.0,0.0
10394,70.0,0,40,2.0,0.0
10395,58.0,0,40,3.0,0.0
10396,66.0,0,60,2.0,0.0
10397,66.0,0,60,1.0,0.0
10398,54.0,0,60,4.0,0.0
10399,54.0,0,60,3.0,0.0
10400,66.0,53,60,0.0,0.0
10401,67.0,67,60,2.0,0.0
10402,55.0,0,60,4.0,0.0
10403,67.0,0,60,0.0,0.0
10404,67.0,0,60,1.0,0.0
10405,55.0,0,60,3.0,0.0
10406,48.0,0,60,3.0,0.0
10407,60.0,0,60,2.0,0.0
10408,48.0,0,60,4.0,0.0
10409,60.0,0,60,0.0,0.0
10410,60.0,60,60,1.0,0.0
10411,58.0,0,60,0.0,0.0
10412,46.0,0,60,3.0,0.0
10413,58.0,0,60,2.0,0.0
10414,46.0,0,60,4.0,0.0
10415,58.0,53,60,1.0,0.0
10416,48.0,0,60,4.0,0.0
10417,48.0,0,60,3.0,0.0
10418,60.0,52,60,1.0,0.0
10419,60.0,0,60,2.0,0.0
10420,60.0,0,60,0.0,0.0
10421,58.0,0,40,4.0,0.0
10422,58.0,75,40,3.0,0.0
10423,70.0,0,40,2.0,0.0
10424,70.0,0,40,0.0,0.0
10425,70.0,0,40,1.0,0.0
10426,66.0,0,60,1.0,0.0
10427,54.0,0,60,3.0,0.0
10428,66.0,0,60,2.0,0.0
10429,66.0,0,60,0.0,0.0
10430,54.0,53,60,4.0,0.0
10431,67.0,60,60,2.0,0.0
10432,55.0,0,60,3.0,0.0
10433,55.0,0,60,4.0,0.0
10434,67.0,0,60,1.0,0.0
10435,67.0,7,60,0.0,0.0
10436,62.0,0,60,1.0,0.0
10437,50.0,0,60,4.0,0.0
10438,62.0,60,60,2.0,0.0
10439,50.0,0,60,3.0,0.0
10440,62.0,0,60,0.0,0.0
10441,48.0,0,60,3.0,0.0
10442,48.0,0,60,4.0,0.0
10443,60.0,53,60,1.0,0.0
10444,60.0,0,60,0.0,0.0
10445,60.0,0,60,2.0,0.0
10446,50.0,0,60,3.0,0.0
10447,62.0,0,60,1.0,0.0
10448,62.0,7,60,0.0,0.0
10449,62.0,0,60,2.0,0.0
10450,50.0,45,60,4.0,0.0
10451,70.0,60,60,2.0,0.0
10452,70.0,15,40,0.0,0.0
10453,58.0,0,60,3.0,0.0
10454,70.0,0,60,1.0,0.0
10455,58.0,0,60,4.0,0.0
10456,66.0,0,60,0.0,0.0
10457,66.0,0,60,1.0,0.0
10458,54.0,0,60,4.0,0.0
10459,54.0,0,60,3.0,0.0
10460,66.0,60,60,2.0,0.0
10461,67.0,0,60,0.0,0.0
10462,55.0,0,60,3.0,0.0
10463,67.0,120,60,1.0,0.0
10464,55.0,0,60,4.0,0.0
10465,67.0,0,60,2.0,0.0
10466,63.0,0,120,2.0,0.0
10467,63.0,120,120,1.0,0.0
10468,51.0,0,120,4.0,0.0
10469,51.0,0,120,3.0,0.0
10470,63.0,0,120,0.0,0.0
10471,55.0,0,60,4.0,0.0
10472,67.0,0,60,1.0,0.0
10473,55.0,0,60,3.0,0.0
10474,67.0,60,60,2.0,0.0
10475,67.0,0,60,0.0,0.0
10476,68.0,0,60,1.0,0.0
10477,56.0,0,60,3.0,0.0
10478,68.0,0,60,2.0,0.0
10479,68.0,0,60,0.0,0.0
10480,56.0,60,60,4.0,0.0
10481,65.0,0,60,0.0,0.0
10482,65.0,0,60,2.0,0.0
10483,65.0,0,60,1.0,0.0
10484,53.0,0,60,3.0,0.0
10485,53.0,60,60,4.0,0.0
10486,47.0,0,60,4.0,0.0
10487,47.0,0,60,3.0,0.0
10488,59.0,0,60,1.0,0.0
10489,59.0,53,60,2.0,0.0
10490,59.0,0,60,0.0,0.0
10491,47.0,60,60,4.0,0.0
10492,59.0,0,60,2.0,0.0
10493,47.0,0,60,3.0,0.0
10494,59.0,0,60,0.0,0.0
10495,59.0,7,60,1.0,0.0
10496,62.0,0,60,2.0,0.0
10497,50.0,0,60,4.0,0.0
10498,62.0,0,60,0.0,0.0
10499,50.0,0,60,3.0,0.0
10500,62.0,53,60,1.0,0.0
10501,50.0,60,60,4.0,0.0
10502,62.0,0,60,0.0,0.0
10503,62.0,7,60,2.0,0.0
10504,50.0,0,60,3.0,0.0
10505,62.0,0,60,1.0,0.0
10506,53.0,0,60,4.0,0.0
10507,53.0,0,60,3.0,0.0
10508,65.0,53,60,0.0,0.0
10509,65.0,0,60,1.0,0.0
10510,65.0,0,60,2.0,0.0
10511,53.0,0,60,3.0,0.0
10512,65.0,0,60,0.0,0.0
10513,65.0,7,60,1.0,0.0
10514,53.0,120,60,4.0,0.0
10515,65.0,0,60,2.0,0.0
10516,56.0,0,120,2.0,0.0
10517,56.0,0,120,1.0,0.0
10518,44.0,0,120,3.0,0.0
10519,56.0,120,120,0.0,0.0
10520,44.0,0,120,4.0,0.0
10521,50.0,0,60,4.0,0.0
10522,62.0,60,60,2.0,0.0
10523,62.0,0,60,1.0,0.0
10524,62.0,0,60,0.0,0.0
10525,50.0,0,60,3.0,0.0
10526,63.0,0,60,2.0,0.0
10527,51.0,0,60,3.0,0.0
10528,63.0,60,60,0.0,0.0
10529,51.0,0,60,4.0,0.0
10530,63.0,0,60,1.0,0.0
10531,48.0,60,60,4.0,0.0
10532,60.0,0,60,0.0,0.0
10533,48.0,0,60,3.0,0.0
10534,60.0,0,60,1.0,0.0
10535,60.0,0,60,2.0,0.0
10536,66.0,0,60,1.0,0.0
10537,54.0,0,60,3.0,0.0
10538,66.0,0,60,0.0,0.0
10539,66.0,0,60,2.0,0.0
10540,54.0,60,60,4.0,0.0
10541,67.0,0,60,1.0,0.0
10542,55.0,0,60,3.0,0.0
10543,67.0,0,60,2.0,0.0
10544,67.0,0,60,0.0,0.0
10545,55.0,120,60,4.0,0.0
10546,62.0,0,120,2.0,0.0
10547,62.0,0,120,0.0,0.0
10548,50.0,0,120,4.0,0.0
10549,50.0,120,120,3.0,0.0
10550,62.0,0,120,1.0,0.0
10551,62.0,0,120,0.0,0.0
10552,50.0,0,120,2.0,0.0
10553,38.0,0,120,3.0,0.0
10554,62.0,0,120,1.0,0.0
10555,38.0,0,120,4.0,0.0
10556,55.0,0,360,2.0,0.0
10557,43.0,0,360,4.0,0.0
10558,55.0,0,360,1.0,0.0
10559,43.0,1007,360,3.0,0.0
10560,55.0,0,360,0.0,0.0
10561,74.0,30,60,4.0,0.0
10562,74.0,15,40,0.0,0.0
10563,74.0,0,40,1.0,0.0
10564,72.0,30,30,0.0,0.0
10565,72.0,0,30,4.0,0.0
10566,72.0,0,30,1.0,0.0
10567,70.0,0,30,4.0,0.0
10568,70.0,0,30,1.0,0.0
10569,70.0,45,30,0.0,0.0
10570,69.0,15,40,1.0,0.0
10571,69.0,45,60,4.0,0.0
10572,69.0,0,40,0.0,0.0
10573,67.0,0,40,0.0,0.0
10574,67.0,15,40,1.0,0.0
10575,67.0,45,60,4.0,0.0
10576,65.0,15,40,0.0,0.0
10577,65.0,0,40,1.0,0.0
10578,65.0,45,60,4.0,0.0
10579,64.0,45,60,4.0,0.0
10580,64.0,15,40,0.0,0.0
10581,64.0,0,40,1.0,0.0
10582,65.0,28,60,4.0,0.0
10583,65.0,0,40,1.0,0.0
10584,65.0,15,40,0.0,0.0
10585,50.0,2,30,3.0,0.0
10586,62.0,0,60,4.0,0.0
10587,50.0,0,30,4.0,0.0
10588,65.0,15,30,2.0,0.0
10589,62.0,13,40,0.0,0.0
10590,62.0,0,40,1.0,0.0
10591,52.0,2,30,3.0,0.0
10592,67.0,43,30,2.0,0.0
10593,52.0,0,30,4.0,0.0
10594,53.0,2,40,3.0,0.0
10595,74.0,0,40,0.0,0.0
10596,74.0,15,40,1.0,0.0
10597,53.0,0,60,4.0,0.0
10598,69.0,0,40,2.0,0.0
10599,52.0,2,30,3.0,0.0
10600,74.0,13,40,0.0,0.0
10601,74.0,28,15,4.0,0.0
10602,52.0,15,30,4.0,0.0
10603,67.0,0,30,2.0,0.0
10604,74.0,0,40,1.0,0.0
10605,53.0,2,30,3.0,0.0
10606,69.0,0,30,2.0,0.0
10607,53.0,43,30,4.0,0.0
10608,55.0,2,40,3.0,0.0
10609,74.0,0,40,0.0,0.0
10610,70.0,0,40,2.0,0.0
10611,74.0,0,15,4.0,0.0
10612,55.0,0,60,4.0,0.0
10613,74.0,15,40,1.0,0.0
10614,53.0,2,30,3.0,0.0
10615,53.0,0,30,4.0,0.0
10616,69.0,15,30,2.0,0.0
10617,74.0,13,40,1.0,0.0
10618,74.0,30,60,4.0,0.0
10619,74.0,0,40,0.0,0.0
10620,55.0,2,30,3.0,0.0
10621,55.0,0,30,4.0,0.0
10622,70.0,0,30,2.0,0.0
10623,57.0,2,40,3.0,0.0
10624,74.0,13,30,1.0,0.0
10625,74.0,0,30,0.0,0.0
10626,57.0,0,60,4.0,0.0
10627,64.0,15,40,2.0,0.0
10628,74.0,0,30,4.0,0.0
10629,72.0,0,30,0.0,0.0
10630,72.0,28,30,4.0,0.0
10631,72.0,0,30,1.0,0.0
10632,53.0,2,30,3.0,0.0
10633,74.0,0,30,0.0,0.0
10634,74.0,0,30,1.0,0.0
10635,53.0,0,30,4.0,0.0
10636,69.0,28,30,2.0,0.0
10637,74.0,0,30,4.0,0.0
10638,55.0,2,30,3.0,0.0
10639,70.0,0,30,2.0,0.0
10640,76.0,0,30,4.0,0.0
10641,55.0,0,30,4.0,0.0
10642,76.0,43,30,0.0,0.0
10643,76.0,0,30,1.0,0.0
10644,57.0,2,40,3.0,0.0
10645,77.0,15,40,1.0,0.0
10646,77.0,0,40,0.0,0.0
10647,72.0,0,40,2.0,0.0
10648,77.0,0,60,4.0,0.0
10649,57.0,28,60,4.0,0.0
10650,55.0,2,30,3.0,0.0
10651,77.0,0,40,1.0,0.0
10652,70.0,0,30,2.0,0.0
10653,55.0,15,30,4.0,0.0
10654,77.0,43,60,4.0,0.0
10655,77.0,13,40,0.0,0.0
10656,57.0,2,30,3.0,0.0
10657,57.0,0,30,4.0,0.0
10658,72.0,0,30,2.0,0.0
10659,58.0,2,40,3.0,0.0
10660,77.0,0,40,1.0,0.0
10661,77.0,0,60,4.0,0.0
10662,77.0,15,40,0.0,0.0
10663,74.0,0,40,2.0,0.0
10664,58.0,28,60,4.0,0.0
10665,57.0,2,30,3.0,0.0
10666,77.0,0,40,0.0,0.0
10667,72.0,0,30,2.0,0.0
10668,57.0,15,30,4.0,0.0
10669,77.0,13,40,1.0,0.0
10670,58.0,2,30,3.0,0.0
10671,58.0,30,30,4.0,0.0
10672,74.0,0,30,2.0,0.0
10673,60.0,2,40,3.0,0.0
10674,77.0,0,15,4.0,0.0
10675,60.0,0,60,4.0,0.0
10676,77.0,0,30,1.0,0.0
10677,67.0,15,40,2.0,0.0
10678,77.0,0,30,0.0,0.0
10679,76.0,0,30,1.0,0.0
10680,76.0,0,30,0.0,0.0
10681,76.0,28,30,4.0,0.0
10682,57.0,2,30,3.0,0.0
10683,60.0,0,30,2.0,0.0
10684,77.0,0,30,0.0,0.0
10685,77.0,28,30,1.0,0.0
10686,77.0,0,30,4.0,0.0
10687,57.0,0,30,4.0,0.0
10688,59.0,2,30,3.0,0.0
10689,59.0,0,30,4.0,0.0
10690,79.0,0,30,4.0,0.0
10691,79.0,0,30,1.0,0.0
10692,79.0,0,30,0.0,0.0
10693,62.0,43,30,2.0,0.0
10694,60.0,2,40,3.0,0.0
10695,60.0,28,60,4.0,0.0
10696,81.0,0,40,0.0,0.0
10697,81.0,15,40,1.0,0.0
10698,64.0,0,40,2.0,0.0
10699,59.0,2,30,3.0,0.0
10700,81.0,0,15,4.0,0.0
10701,59.0,15,30,4.0,0.0
10702,81.0,0,40,0.0,0.0
10703,81.0,13,40,1.0,0.0
10704,62.0,0,30,2.0,0.0
10705,60.0,2,30,3.0,0.0
10706,60.0,0,30,4.0,0.0
10707,64.0,43,30,2.0,0.0
10708,62.0,2,40,3.0,0.0
10709,81.0,0,15,4.0,0.0
10710,62.0,0,60,4.0,0.0
10711,65.0,0,40,2.0,0.0
10712,81.0,15,40,1.0,0.0
10713,81.0,0,40,0.0,0.0
10714,60.0,2,30,3.0,0.0
10715,81.0,28,15,4.0,0.0
10716,81.0,13,40,1.0,0.0
10717,64.0,0,30,2.0,0.0
10718,81.0,0,40,0.0,0.0
10719,60.0,15,30,4.0,0.0
10720,62.0,2,30,3.0,0.0
10721,62.0,0,30,4.0,0.0
10722,65.0,43,30,2.0,0.0
10723,64.0,2,40,3.0,0.0
10724,59.0,0,120,2.0,0.0
10725,81.0,0,15,4.0,0.0
10726,81.0,0,40,0.0,0.0
10727,64.0,30,60,4.0,0.0
10728,81.0,15,40,1.0,0.0
10729,52.0,17,40,3.0,0.0
10730,79.0,13,30,1.0,0.0
10731,52.0,0,60,4.0,0.0
10732,79.0,0,30,4.0,0.0
10733,79.0,0,30,0.0,0.0
10734,77.0,0,30,0.0,0.0
10735,77.0,0,30,4.0,0.0
10736,77.0,43,30,1.0,0.0
10737,64.0,2,40,3.0,0.0
10738,64.0,30,60,4.0,0.0
10739,79.0,0,40,1.0,0.0
10740,79.0,0,60,4.0,0.0
10741,79.0,15,40,0.0,0.0
10742,59.0,0,30,2.0,0.0
10743,62.0,17,40,3.0,0.0
10744,61.0,0,30,2.0,0.0
10745,76.0,0,30,1.0,0.0
10746,62.0,0,60,4.0,0.0
10747,76.0,0,30,4.0,0.0
10748,76.0,13,30,0.0,0.0
10749,77.0,0,30,1.0,0.0
10750,77.0,30,30,4.0,0.0
10751,62.0,0,30,2.0,0.0
10752,77.0,0,30,0.0,0.0
10753,61.0,2,40,3.0,0.0
10754,79.0,0,40,1.0,0.0
10755,64.0,13,30,2.0,0.0
10756,79.0,15,40,0.0,0.0
10757,61.0,0,60,4.0,0.0
10758,62.0,30,30,2.0,0.0
10759,57.0,2,40,3.0,0.0
10760,57.0,0,60,4.0,0.0
10761,79.0,0,15,4.0,0.0
10762,79.0,15,40,1.0,0.0
10763,79.0,0,40,0.0,0.0
10764,61.0,13,30,2.0,0.0
10765,59.0,43,30,2.0,0.0
10766,62.0,2,40,3.0,0.0
10767,79.0,0,15,4.0,0.0
10768,79.0,0,40,1.0,0.0
10769,62.0,0,60,4.0,0.0
10770,79.0,15,40,0.0,0.0
10771,57.0,0,120,2.0,0.0
10772,50.0,17,40,3.0,0.0
10773,77.0,13,30,4.0,0.0
10774,50.0,0,60,4.0,0.0
10775,77.0,0,30,1.0,0.0
10776,77.0,0,30,0.0,0.0
10777,76.0,0,30,0.0,0.0
10778,76.0,0,30,1.0,0.0
10779,76.0,43,30,4.0,0.0
10780,62.0,2,40,3.0,0.0
10781,77.0,15,40,1.0,0.0
10782,62.0,0,60,4.0,0.0
10783,77.0,0,40,0.0,0.0
10784,77.0,30,60,4.0,0.0
10785,60.0,17,40,3.0,0.0
10786,60.0,0,60,4.0,0.0
10787,65.0,13,30,2.0,0.0
10788,74.0,0,30,0.0,0.0
10789,74.0,0,30,4.0,0.0
10790,74.0,0,30,1.0,0.0
10791,76.0,0,30,1.0,0.0
10792,67.0,43,30,2.0,0.0
10793,76.0,0,30,4.0,0.0
10794,76.0,0,30,0.0,0.0
10795,58.0,2,40,3.0,0.0
10796,77.0,0,40,0.0,0.0
10797,69.0,15,40,2.0,0.0
10798,58.0,0,60,4.0,0.0
10799,77.0,30,60,4.0,0.0
10800,77.0,0,40,1.0,0.0
10801,57.0,2,40,3.0,0.0
10802,79.0,0,30,4.0,0.0
10803,79.0,13,30,1.0,0.0
10804,57.0,0,60,4.0,0.0
10805,79.0,0,30,0.0,0.0
10806,62.0,15,40,2.0,0.0
10807,81.0,0,30,4.0,0.0
10808,81.0,43,30,0.0,0.0
10809,81.0,0,30,1.0,0.0
10810,55.0,2,40,3.0,0.0
10811,82.0,0,40,1.0,0.0
10812,74.0,0,40,2.0,0.0
10813,82.0,0,60,4.0,0.0
10814,55.0,28,60,4.0,0.0
10815,82.0,15,40,0.0,0.0
10816,57.0,2,30,3.0,0.0
10817,70.0,0,30,2.0,0.0
10818,79.0,0,30,1.0,0.0
10819,79.0,0,30,4.0,0.0
10820,79.0,28,30,0.0,0.0
10821,57.0,0,30,4.0,0.0
10822,58.0,2,30,3.0,0.0
10823,77.0,0,30,1.0,0.0
10824,77.0,0,30,4.0,0.0
10825,58.0,0,30,4.0,0.0
10826,69.0,43,30,2.0,0.0
10827,77.0,0,30,0.0,0.0
10828,60.0,2,40,3.0,0.0
10829,76.0,15,40,1.0,0.0
10830,67.0,0,40,2.0,0.0
10831,76.0,0,40,0.0,0.0
10832,60.0,30,60,4.0,0.0
10833,76.0,0,60,4.0,0.0
10834,58.0,17,40,3.0,0.0
10835,58.0,0,60,4.0,0.0
10836,72.0,13,30,4.0,0.0
10837,72.0,0,30,0.0,0.0
10838,64.0,0,30,2.0,0.0
10839,72.0,0,30,1.0,0.0
10840,65.0,0,30,2.0,0.0
10841,74.0,0,30,1.0,0.0
10842,74.0,0,30,0.0,0.0
10843,74.0,43,30,4.0,0.0
10844,57.0,2,40,3.0,0.0
10845,67.0,0,40,2.0,0.0
10846,76.0,30,60,4.0,0.0
10847,57.0,0,60,4.0,0.0
10848,76.0,15,40,1.0,0.0
10849,76.0,0,40,0.0,0.0
10850,55.0,2,40,3.0,0.0
10851,77.0,0,30,0.0,0.0
10852,77.0,0,30,1.0,0.0
10853,60.0,15,40,2.0,0.0
10854,77.0,13,30,4.0,0.0
10855,55.0,43,60,4.0,0.0
10856,79.0,0,30,0.0,0.0
10857,79.0,0,30,1.0,0.0
10858,79.0,0,30,4.0,0.0
10859,53.0,2,40,3.0,0.0
10860,81.0,28,60,4.0,0.0
10861,81.0,0,40,0.0,0.0
10862,53.0,0,60,4.0,0.0
10863,81.0,0,40,1.0,0.0
10864,72.0,15,40,2.0,0.0
10865,55.0,2,30,3.0,0.0
10866,55.0,0,30,4.0,0.0
10867,69.0,28,30,2.0,0.0
10868,77.0,0,30,4.0,0.0
10869,77.0,0,30,0.0,0.0
10870,77.0,0,30,1.0,0.0
10871,57.0,2,30,3.0,0.0
10872,76.0,0,30,4.0,0.0
10873,76.0,0,30,1.0,0.0
10874,57.0,0,30,4.0,0.0
10875,67.0,43,30,2.0,0.0
10876,76.0,0,30,0.0,0.0
10877,58.0,2,40,3.0,0.0
10878,65.0,0,40,2.0,0.0
10879,74.0,0,60,4.0,0.0
10880,74.0,0,40,1.0,0.0
10881,74.0,15,40,0.0,0.0
10882,58.0,30,60,4.0,0.0
10883,57.0,2,40,3.0,0.0
10884,86.0,0,30,4.0,0.0
10885,86.0,13,30,0.0,0.0
10886,65.0,15,40,2.0,0.0
10887,57.0,43,60,4.0,0.0
10888,86.0,0,30,1.0,0.0
10889,85.0,0,30,0.0,0.0
10890,85.0,0,30,1.0,0.0
10891,85.0,0,30,4.0,0.0
10892,55.0,2,40,3.0,0.0
10893,70.0,0,40,2.0,0.0
10894,86.0,15,40,0.0,0.0
10895,86.0,0,40,1.0,0.0
10896,86.0,43,60,4.0,0.0
10897,55.0,0,60,4.0,0.0
10898,53.0,2,40,3.0,0.0
10899,82.0,15,40,1.0,0.0
10900,82.0,0,40,0.0,0.0
10901,74.0,0,40,2.0,0.0
10902,82.0,58,60,4.0,0.0
10903,53.0,0,60,4.0,0.0
10904,52.0,2,60,3.0,0.0
10905,52.0,0,60,4.0,0.0
10906,79.0,0,60,1.0,0.0
10907,79.0,0,60,4.0,0.0
10908,70.0,0,120,2.0,0.0
10909,79.0,58,60,0.0,0.0
10910,50.0,2,60,3.0,0.0
10911,50.0,43,60,4.0,0.0
10912,78.0,0,60,4.0,0.0
10913,78.0,0,60,1.0,0.0
10914,78.0,0,60,0.0,0.0
10915,49.0,2,40,3.0,0.0
10916,79.0,15,40,1.0,0.0
10917,79.0,30,60,4.0,0.0
10918,49.0,0,60,4.0,0.0
10919,79.0,0,40,0.0,0.0
10920,50.0,17,40,3.0,0.0
10921,67.0,0,30,2.0,0.0
10922,82.0,0,30,4.0,0.0
10923,50.0,43,60,4.0,0.0
10924,82.0,0,30,0.0,0.0
10925,82.0,13,30,1.0,0.0
10926,81.0,0,30,4.0,0.0
10927,65.0,0,30,2.0,0.0
10928,81.0,0,30,0.0,0.0
10929,81.0,0,30,1.0,0.0
10930,52.0,2,40,3.0,0.0
10931,82.0,0,40,0.0,0.0
10932,67.0,0,40,2.0,0.0
10933,52.0,30,60,4.0,0.0
10934,82.0,0,60,4.0,0.0
10935,82.0,15,40,1.0,0.0
10936,53.0,2,40,3.0,0.0
10937,79.0,0,40,0.0,0.0
10938,79.0,45,60,4.0,0.0
10939,70.0,13,30,2.0,0.0
10940,79.0,15,40,1.0,0.0
10941,53.0,0,60,4.0,0.0
10942,69.0,0,30,2.0,0.0
10943,55.0,2,60,3.0,0.0
10944,75.0,45,60,0.0,0.0
10945,70.0,13,40,2.0,0.0
10946,55.0,0,60,4.0,0.0
10947,75.0,0,60,4.0,0.0
10948,75.0,0,60,1.0,0.0
10949,53.0,2,60,3.0,0.0
10950,74.0,43,60,1.0,0.0
10951,69.0,13,40,2.0,0.0
10952,74.0,0,60,0.0,0.0
10953,53.0,0,60,4.0,0.0
10954,74.0,0,60,4.0,0.0
10955,55.0,2,40,3.0,0.0
10956,75.0,0,60,4.0,0.0
10957,55.0,30,60,4.0,0.0
10958,70.0,15,40,2.0,0.0
10959,75.0,0,40,1.0,0.0
10960,75.0,0,40,0.0,0.0
10961,57.0,2,40,3.0,0.0
10962,72.0,15,40,2.0,0.0
10963,79.0,0,30,4.0,0.0
10964,57.0,43,60,4.0,0.0
10965,79.0,0,30,1.0,0.0
10966,79.0,13,30,0.0,0.0
10967,78.0,0,30,4.0,0.0
10968,78.0,0,30,1.0,0.0
10969,78.0,0,30,0.0,0.0
10970,58.0,2,40,3.0,0.0
10971,79.0,15,40,1.0,0.0
10972,58.0,43,60,4.0,0.0
10973,79.0,0,60,4.0,0.0
10974,79.0,0,40,0.0,0.0
10975,74.0,0,40,2.0,0.0
10976,55.0,2,40,3.0,0.0
10977,75.0,0,40,1.0,0.0
10978,75.0,0,60,4.0,0.0
10979,55.0,45,60,4.0,0.0
10980,75.0,0,40,0.0,0.0
10981,70.0,15,40,2.0,0.0
10982,57.0,2,120,3.0,0.0
10983,73.0,0,40,0.0,0.0
10984,73.0,15,40,1.0,0.0
10985,57.0,0,120,4.0,0.0
10986,73.0,30,60,4.0,0.0
10987,64.0,0,40,2.0,0.0
10988,82.0,0,30,4.0,0.0
10989,82.0,15,30,0.0,0.0
10990,73.0,13,40,2.0,0.0
10991,82.0,0,30,1.0,0.0
10992,81.0,0,30,4.0,0.0
10993,81.0,45,30,1.0,0.0
10994,81.0,0,30,0.0,0.0
10995,82.0,0,40,0.0,0.0
10996,82.0,30,60,4.0,0.0
10997,82.0,15,40,1.0,0.0
10998,73.0,0,40,2.0,0.0
10999,79.0,0,30,0.0,0.0
11000,79.0,15,30,4.0,0.0
11001,73.0,15,40,2.0,0.0
11002,79.0,0,30,1.0,0.0
11003,78.0,45,30,4.0,0.0
11004,78.0,0,30,1.0,0.0
11005,78.0,0,30,0.0,0.0
11006,79.0,0,40,1.0,0.0
11007,79.0,43,60,4.0,0.0
11008,79.0,15,40,0.0,0.0
11009,73.0,0,40,2.0,0.0
11010,55.0,2,40,3.0,0.0
11011,55.0,0,60,4.0,0.0
11012,73.0,43,60,4.0,0.0
11013,73.0,0,40,1.0,0.0
11014,73.0,0,40,0.0,0.0
11015,64.0,15,40,2.0,0.0
11016,53.0,2,40,3.0,0.0
11017,74.0,0,40,1.0,0.0
11018,74.0,28,60,4.0,0.0
11019,53.0,0,60,4.0,0.0
11020,69.0,0,40,2.0,0.0
11021,74.0,15,40,0.0,0.0
11022,52.0,2,30,3.0,0.0
11023,65.0,0,60,4.0,0.0
11024,52.0,15,30,4.0,0.0
11025,65.0,13,40,1.0,0.0
11026,65.0,0,40,0.0,0.0
11027,65.0,0,40,2.0,0.0
11028,50.0,2,30,3.0,0.0
11029,50.0,43,30,4.0,0.0
11030,58.0,2,40,3.0,0.0
11031,67.0,0,40,1.0,0.0
11032,58.0,0,60,4.0,0.0
11033,67.0,28,60,4.0,0.0
11034,62.0,15,40,2.0,0.0
11035,67.0,0,40,0.0,0.0
11036,57.0,2,30,3.0,0.0
11037,57.0,15,30,4.0,0.0
11038,67.0,0,40,2.0,0.0
11039,74.0,0,40,1.0,0.0
11040,74.0,0,60,4.0,0.0
11041,74.0,13,40,0.0,0.0
11042,55.0,2,30,3.0,0.0
11043,55.0,43,30,4.0,0.0
11044,57.0,2,40,3.0,0.0
11045,69.0,0,40,0.0,0.0
11046,64.0,0,40,2.0,0.0
11047,57.0,43,60,4.0,0.0
11048,69.0,0,60,4.0,0.0
11049,69.0,15,40,1.0,0.0
11050,45.0,2,40,3.0,0.0
11051,45.0,0,60,4.0,0.0
11052,73.0,58,60,4.0,0.0
11053,73.0,0,40,0.0,0.0
11054,73.0,0,40,1.0,0.0
11055,69.0,15,40,2.0,0.0
11056,50.0,2,60,3.0,0.0
11057,50.0,0,60,4.0,0.0
11058,74.0,0,60,0.0,0.0
11059,65.0,0,60,2.0,0.0
11060,74.0,30,60,1.0,0.0
11061,74.0,0,60,4.0,0.0
11062,81.0,60,60,4.0,0.0
11063,86.0,0,30,4.0,0.0
11064,77.0,30,30,4.0,0.0
11065,85.0,0,30,4.0,0.0
11066,76.0,0,30,4.0,0.0
11067,81.0,0,60,4.0,0.0
11068,86.0,0,60,4.0,0.0
11069,74.0,0,60,4.0,0.0
11070,77.0,30,15,4.0,0.0
11071,81.0,0,30,4.0,0.0
11072,76.0,0,30,4.0,0.0
11073,79.0,60,30,4.0,0.0
11074,77.0,0,60,4.0,0.0
11075,81.0,0,60,4.0,0.0
11076,74.0,30,60,4.0,0.0
11077,69.0,30,30,4.0,0.0
11078,74.0,0,30,4.0,0.0
11079,77.0,0,30,4.0,0.0
11080,73.0,0,30,4.0,0.0
11081,76.0,60,30,4.0,0.0
11082,67.0,0,30,4.0,0.0
11083,77.0,30,60,4.0,0.0
11084,74.0,0,60,4.0,0.0
11085,69.0,0,60,4.0,0.0
11086,62.0,15,40,0.0,0.0
11087,50.0,15,30,3.0,0.0
11088,74.0,0,30,4.0,0.0
11089,50.0,0,30,4.0,0.0
11090,65.0,0,30,2.0,0.0
11091,62.0,0,40,1.0,0.0
11092,73.0,0,30,4.0,0.0
11093,67.0,0,30,2.0,0.0
11094,52.0,0,30,4.0,0.0
11095,52.0,45,30,3.0,0.0
11096,69.0,0,40,2.0,0.0
11097,74.0,0,40,1.0,0.0
11098,74.0,0,40,0.0,0.0
11099,74.0,30,60,4.0,0.0
11100,53.0,0,60,4.0,0.0
11101,53.0,15,40,3.0,0.0
11102,52.0,15,30,3.0,0.0
11103,74.0,0,40,1.0,0.0
11104,52.0,0,30,4.0,0.0
11105,74.0,15,40,0.0,0.0
11106,67.0,0,30,2.0,0.0
11107,53.0,45,30,4.0,0.0
11108,69.0,0,30,2.0,0.0
11109,53.0,0,30,3.0,0.0
11110,74.0,0,40,0.0,0.0
11111,70.0,0,40,2.0,0.0
11112,55.0,30,60,4.0,0.0
11113,74.0,0,40,1.0,0.0
11114,55.0,15,40,3.0,0.0
11115,53.0,15,30,3.0,0.0
11116,53.0,0,30,4.0,0.0
11117,74.0,15,40,1.0,0.0
11118,74.0,0,40,0.0,0.0
11119,69.0,0,30,2.0,0.0
11120,55.0,0,30,3.0,0.0
11121,70.0,45,30,2.0,0.0
11122,55.0,0,30,4.0,0.0
11123,53.0,0,120,3.0,0.0
11124,57.0,30,60,4.0,0.0
11125,69.0,60,120,2.0,0.0
11126,74.0,0,40,0.0,0.0
11127,74.0,15,40,1.0,0.0
11128,72.0,30,30,4.0,0.0
11129,81.0,0,30,4.0,0.0
11130,72.0,0,30,0.0,0.0
11131,72.0,0,30,1.0,0.0
11132,71.0,0,30,0.0,0.0
11133,71.0,0,30,1.0,0.0
11134,80.0,0,30,4.0,0.0
11135,71.0,0,30,4.0,0.0
11136,72.0,30,60,1.0,0.0
11137,72.0,0,60,4.0,0.0
11138,76.0,0,60,4.0,0.0
11139,81.0,0,60,4.0,0.0
11140,72.0,0,60,0.0,0.0
11141,69.0,0,60,4.0,0.0
11142,72.0,30,30,4.0,0.0
11143,76.0,0,30,4.0,0.0
11144,74.0,60,30,4.0,0.0
11145,71.0,0,30,4.0,0.0
11146,76.0,0,60,4.0,0.0
11147,69.0,30,60,4.0,0.0
11148,72.0,0,60,4.0,0.0
11149,64.0,30,30,4.0,0.0
11150,69.0,0,30,4.0,0.0
11151,72.0,0,30,4.0,0.0
11152,71.0,0,30,4.0,0.0
11153,62.0,60,30,4.0,0.0
11154,68.0,0,30,4.0,0.0
11155,64.0,0,60,4.0,0.0
11156,72.0,0,60,4.0,0.0
11157,57.0,15,30,3.0,0.0
11158,69.0,0,40,0.0,0.0
11159,69.0,15,40,1.0,0.0
11160,69.0,30,15,4.0,0.0
11161,57.0,0,30,4.0,0.0
11162,60.0,0,30,2.0,0.0
11163,59.0,0,30,4.0,0.0
11164,62.0,45,30,2.0,0.0
11165,68.0,0,30,4.0,0.0
11166,59.0,0,30,3.0,0.0
11167,69.0,30,60,4.0,0.0
11168,60.0,0,60,4.0,0.0
11169,60.0,0,40,3.0,0.0
11170,81.0,15,40,0.0,0.0
11171,64.0,0,40,2.0,0.0
11172,81.0,0,40,1.0,0.0
11173,81.0,0,40,0.0,0.0
11174,62.0,0,30,2.0,0.0
11175,59.0,0,30,3.0,0.0
11176,59.0,15,30,4.0,0.0
11177,81.0,15,40,1.0,0.0
11178,60.0,45,30,3.0,0.0
11179,64.0,0,30,2.0,0.0
11180,60.0,0,30,4.0,0.0
11181,62.0,30,60,4.0,0.0
11182,65.0,0,40,2.0,0.0
11183,81.0,0,40,1.0,0.0
11184,81.0,15,40,0.0,0.0
11185,62.0,0,40,3.0,0.0
11186,81.0,0,40,1.0,0.0
11187,81.0,15,40,0.0,0.0
11188,64.0,0,30,2.0,0.0
11189,60.0,0,30,4.0,0.0
11190,60.0,15,30,3.0,0.0
11191,65.0,0,30,2.0,0.0
11192,62.0,45,30,4.0,0.0
11193,62.0,0,30,3.0,0.0
11194,64.0,0,40,3.0,0.0
11195,81.0,0,40,0.0,0.0
11196,64.0,30,60,4.0,0.0
11197,81.0,0,40,1.0,0.0
11198,59.0,15,40,2.0,0.0
11199,61.0,0,30,2.0,0.0
11200,52.0,0,60,4.0,0.0
11201,79.0,0,30,0.0,0.0
11202,52.0,15,40,3.0,0.0
11203,79.0,15,30,1.0,0.0
11204,77.0,30,30,1.0,0.0
11205,62.0,0,30,2.0,0.0
11206,77.0,0,30,0.0,0.0
11207,79.0,0,40,1.0,0.0
11208,64.0,15,40,3.0,0.0
11209,64.0,15,30,2.0,0.0
11210,64.0,0,60,4.0,0.0
11211,79.0,0,40,0.0,0.0
11212,62.0,30,30,2.0,0.0
11213,62.0,15,40,3.0,0.0
11214,62.0,30,60,4.0,0.0
11215,61.0,0,30,2.0,0.0
11216,76.0,15,30,1.0,0.0
11217,76.0,0,30,0.0,0.0
11218,62.0,0,30,2.0,0.0
11219,77.0,0,30,1.0,0.0
11220,77.0,0,30,0.0,0.0
11221,79.0,15,40,0.0,0.0
11222,79.0,0,40,1.0,0.0
11223,61.0,0,40,3.0,0.0
11224,64.0,15,30,2.0,0.0
11225,61.0,0,60,4.0,0.0
11226,62.0,30,30,2.0,0.0
11227,79.0,15,40,1.0,0.0
11228,79.0,0,40,0.0,0.0
11229,61.0,15,30,2.0,0.0
11230,57.0,0,40,3.0,0.0
11231,57.0,45,60,4.0,0.0
11232,59.0,0,30,2.0,0.0
11233,79.0,15,40,0.0,0.0
11234,62.0,30,60,3.0,0.0
11235,57.0,0,120,2.0,0.0
11236,79.0,0,40,1.0,0.0
11237,62.0,0,60,4.0,0.0
11238,77.0,0,30,0.0,0.0
11239,77.0,0,30,1.0,0.0
11240,74.0,30,30,4.0,0.0
11241,65.0,0,30,4.0,0.0
11242,64.0,0,30,4.0,0.0
11243,73.0,60,30,4.0,0.0
11244,76.0,0,30,1.0,0.0
11245,76.0,0,30,0.0,0.0
11246,77.0,30,60,0.0,0.0
11247,77.0,0,60,1.0,0.0
11248,74.0,0,60,4.0,0.0
11249,69.0,0,15,4.0,0.0
11250,65.0,0,60,4.0,0.0
11251,69.0,0,15,4.0,0.0
11252,62.0,0,60,4.0,0.0
11253,65.0,30,30,4.0,0.0
11254,64.0,0,30,4.0,0.0
11255,67.0,60,30,4.0,0.0
11256,69.0,0,60,4.0,0.0
11257,65.0,0,60,4.0,0.0
11258,62.0,30,60,4.0,0.0
11259,57.0,0,30,4.0,0.0
11260,65.0,30,30,4.0,0.0
11261,62.0,0,30,4.0,0.0
11262,55.0,0,30,4.0,0.0
11263,64.0,60,30,4.0,0.0
11264,61.0,0,30,4.0,0.0
11265,65.0,0,60,4.0,0.0
11266,62.0,0,15,4.0,0.0
11267,57.0,30,15,4.0,0.0
11268,53.0,0,30,4.0,0.0
11269,61.0,0,30,4.0,0.0
11270,55.0,60,30,4.0,0.0
11271,52.0,0,30,4.0,0.0
11272,53.0,0,60,4.0,0.0
11273,62.0,0,60,4.0,0.0
11274,65.0,15,30,4.0,0.0
11275,62.0,15,40,3.0,0.0
11276,57.0,30,15,4.0,0.0
11277,50.0,0,60,4.0,0.0
11278,64.0,45,30,4.0,0.0
11279,46.0,0,60,4.0,0.0
11280,50.0,0,60,4.0,0.0
11281,65.0,30,60,4.0,0.0
11282,58.0,15,40,3.0,0.0
11283,55.0,15,40,3.0,0.0
11284,70.0,15,30,4.0,0.0
11285,55.0,0,60,4.0,0.0
11286,43.0,60,60,4.0,0.0
11287,69.0,0,30,4.0,0.0
11288,60.0,0,120,3.0,0.0
11289,48.0,30,60,4.0,0.0
11290,52.0,0,60,4.0,0.0
11291,70.0,0,60,4.0,0.0
11292,55.0,0,60,4.0,0.0
11293,52.0,0,30,4.0,0.0
11294,60.0,30,30,4.0,0.0
11295,58.0,60,30,4.0,0.0
11296,50.0,0,30,4.0,0.0
11297,52.0,30,60,4.0,0.0
11298,60.0,0,60,4.0,0.0
11299,48.0,45,60,4.0,0.0
11300,60.0,15,40,3.0,0.0
11301,55.0,0,15,4.0,0.0
11302,64.0,15,30,4.0,0.0
11303,62.0,0,30,4.0,0.0
11304,45.0,30,60,4.0,0.0
11305,48.0,0,60,4.0,0.0
11306,57.0,15,40,3.0,0.0
11307,64.0,0,60,4.0,0.0
11308,69.0,15,30,4.0,0.0
11309,41.0,0,60,4.0,0.0
11310,53.0,15,40,3.0,0.0
11311,67.0,60,30,4.0,0.0
11312,58.0,60,120,3.0,0.0
11313,53.0,0,15,4.0,0.0
11314,46.0,30,60,4.0,0.0
11315,69.0,0,60,4.0,0.0
11316,50.0,30,30,4.0,0.0
11317,58.0,0,30,4.0,0.0
11318,53.0,0,60,4.0,0.0
11319,57.0,0,30,4.0,0.0
11320,49.0,0,30,4.0,0.0
11321,58.0,30,60,4.0,0.0
11322,50.0,0,60,4.0,0.0
11323,53.0,0,60,4.0,0.0
11324,58.0,15,40,3.0,0.0
11325,62.0,15,30,4.0,0.0
11326,53.0,0,60,4.0,0.0
11327,61.0,0,30,4.0,0.0
11328,62.0,0,60,4.0,0.0
11329,43.0,0,60,4.0,0.0
11330,46.0,45,15,4.0,0.0
11331,55.0,15,40,3.0,0.0
11332,40.0,0,60,4.0,0.0
11333,67.0,15,30,4.0,0.0
11334,50.0,45,60,4.0,0.0
11335,52.0,15,40,3.0,0.0
11336,65.0,0,30,4.0,0.0
11337,45.0,45,120,4.0,0.0
11338,49.0,0,120,4.0,0.0
11339,67.0,30,60,4.0,0.0
11340,57.0,15,40,0.0,0.0
11341,61.0,0,120,2.0,0.0
11342,57.0,0,120,3.0,0.0
11343,57.0,0,60,4.0,0.0
11344,61.0,30,30,0.0,0.0
11345,59.0,0,30,0.0,0.0
11346,57.0,0,40,1.0,0.0
11347,57.0,30,60,4.0,0.0
11348,61.0,15,40,0.0,0.0
11349,64.0,30,30,0.0,0.0
11350,61.0,0,30,1.0,0.0
11351,59.0,0,30,1.0,0.0
11352,62.0,0,30,0.0,0.0
11353,67.0,30,15,4.0,0.0
11354,61.0,15,40,1.0,0.0
11355,64.0,30,60,0.0,0.0
11356,69.0,0,30,4.0,0.0
11357,70.0,30,30,4.0,0.0
11358,64.0,0,30,1.0,0.0
11359,67.0,45,30,4.0,0.0
11360,62.0,0,30,1.0,0.0
11361,64.0,15,40,1.0,0.0
11362,73.0,30,60,4.0,0.0
11363,55.0,0,120,3.0,0.0
11364,52.0,0,120,4.0,0.0
11365,57.0,0,40,0.0,0.0
11366,57.0,0,120,2.0,0.0
11367,43.0,0,120,4.0,0.0
11368,64.0,0,30,1.0,0.0
11369,61.0,30,30,0.0,0.0
11370,57.0,0,60,4.0,0.0
11371,59.0,0,30,0.0,0.0
11372,62.0,45,30,1.0,0.0
11373,61.0,15,40,0.0,0.0
11374,57.0,30,60,4.0,0.0
11375,64.0,0,40,1.0,0.0
11376,73.0,0,60,4.0,0.0
11377,64.0,30,30,0.0,0.0
11378,69.0,0,30,1.0,0.0
11379,67.0,30,30,1.0,0.0
11380,62.0,0,30,0.0,0.0
11381,64.0,0,60,0.0,0.0
11382,73.0,30,30,4.0,0.0
11383,69.0,30,60,1.0,0.0
11384,74.0,0,30,4.0,0.0
11385,76.0,30,30,4.0,0.0
11386,73.0,60,30,4.0,0.0
11387,54.0,0,120,3.0,0.0
11388,81.0,30,60,4.0,0.0
11389,42.0,60,120,4.0,0.0
11390,51.0,0,120,4.0,0.0
11391,75.0,30,30,4.0,0.0
11392,74.0,0,30,4.0,0.0
11393,75.0,30,60,4.0,0.0
11394,72.0,0,30,4.0,0.0
11395,63.0,30,30,4.0,0.0
11396,71.0,0,30,4.0,0.0
11397,62.0,60,30,4.0,0.0
11398,63.0,30,60,4.0,0.0
11399,72.0,0,60,4.0,0.0
11400,79.0,30,30,4.0,0.0
11401,78.0,60,30,4.0,0.0
11402,53.0,60,120,3.0,0.0
11403,62.0,0,120,4.0,0.0
11404,79.0,30,60,4.0,0.0
11405,59.0,0,120,4.0,0.0
11406,53.0,0,120,4.0,0.0
11407,74.0,30,30,4.0,0.0
11408,72.0,0,30,4.0,0.0
11409,74.0,30,60,4.0,0.0
11410,71.0,0,30,4.0,0.0
11411,62.0,30,30,4.0,0.0
11412,60.0,0,30,4.0,0.0
11413,69.0,60,30,4.0,0.0
11414,71.0,0,60,4.0,0.0
11415,62.0,30,60,4.0,0.0
11416,82.0,30,30,4.0,0.0
11417,81.0,60,30,4.0,0.0
11418,52.0,0,120,3.0,0.0
11419,82.0,30,60,4.0,0.0
11420,52.0,0,120,4.0,0.0
11421,55.0,0,120,4.0,0.0
11422,61.0,0,120,4.0,0.0
11423,79.0,30,30,4.0,0.0
11424,77.0,60,30,4.0,0.0
11425,79.0,30,60,4.0,0.0
11426,76.0,0,30,4.0,0.0
11427,67.0,30,30,4.0,0.0
11428,65.0,60,30,4.0,0.0
11429,74.0,0,30,4.0,0.0
11430,67.0,30,60,4.0,0.0
11431,76.0,0,60,4.0,0.0
11432,64.0,0,30,4.0,0.0
11433,73.0,30,30,4.0,0.0
11434,71.0,0,30,4.0,0.0
11435,62.0,60,30,4.0,0.0
11436,55.0,0,120,3.0,0.0
11437,73.0,30,60,4.0,0.0
11438,34.0,0,120,4.0,0.0
11439,64.0,0,60,4.0,0.0
11440,61.0,30,30,4.0,0.0
11441,69.0,0,30,4.0,0.0
11442,67.0,0,30,4.0,0.0
11443,59.0,60,30,4.0,0.0
11444,61.0,45,60,4.0,0.0
11445,69.0,0,60,4.0,0.0
11446,64.0,30,60,4.0,0.0
11447,52.0,15,40,3.0,0.0
11448,57.0,30,60,4.0,0.0
11449,79.0,0,15,4.0,0.0
11450,49.0,15,40,3.0,0.0
11451,77.0,0,30,4.0,0.0
11452,61.0,30,60,4.0,0.0
11453,79.0,15,30,4.0,0.0
11454,45.0,15,40,3.0,0.0
11455,76.0,0,30,4.0,0.0
11456,50.0,15,40,3.0,0.0
11457,77.0,15,30,4.0,0.0
11458,62.0,0,60,4.0,0.0
11459,79.0,30,30,4.0,0.0
11460,60.0,15,60,4.0,0.0
11461,77.0,15,30,4.0,0.0
11462,48.0,15,40,3.0,0.0
11463,79.0,0,15,4.0,0.0
11464,58.0,15,60,4.0,0.0
11465,46.0,0,120,3.0,0.0
11466,81.0,15,15,4.0,0.0
11467,79.0,15,15,4.0,0.0
11468,81.0,0,15,4.0,0.0
11469,79.0,15,15,4.0,0.0
11470,57.0,0,60,4.0,0.0
11471,81.0,15,15,4.0,0.0
11472,79.0,15,15,4.0,0.0
11473,81.0,15,15,4.0,0.0
11474,58.0,0,120,3.0,0.0
11475,79.0,15,15,4.0,0.0
11476,58.0,0,120,4.0,0.0
11477,81.0,15,15,4.0,0.0
11478,79.0,15,15,4.0,0.0
11479,81.0,15,15,4.0,0.0
11480,79.0,15,15,4.0,0.0
11481,81.0,15,15,4.0,0.0
11482,77.0,15,15,4.0,0.0
11483,79.0,45,15,4.0,0.0
11484,57.0,30,180,4.0,0.0
11485,81.0,30,60,4.0,0.0
11486,69.0,0,40,1.0,0.0
11487,57.0,0,120,3.0,0.0
11488,69.0,15,40,0.0,0.0
11489,67.0,0,30,1.0,0.0
11490,76.0,0,30,4.0,0.0
11491,67.0,30,30,0.0,0.0
11492,65.0,0,30,0.0,0.0
11493,65.0,45,30,1.0,0.0
11494,72.0,0,30,4.0,0.0
11495,64.0,15,40,0.0,0.0
11496,69.0,0,60,4.0,0.0
11497,64.0,0,40,1.0,0.0
11498,59.0,15,30,4.0,0.0
11499,62.0,15,40,1.0,0.0
11500,62.0,0,40,0.0,0.0
11501,60.0,30,30,4.0,0.0
11502,60.0,0,40,0.0,0.0
11503,60.0,15,40,1.0,0.0
11504,62.0,15,30,4.0,0.0
11505,64.0,30,30,4.0,0.0
11506,59.0,0,40,1.0,0.0
11507,66.0,15,30,4.0,0.0
11508,59.0,15,40,0.0,0.0
11509,68.0,45,30,4.0,0.0
11510,69.0,30,60,4.0,0.0
11511,60.0,0,40,1.0,0.0
11512,60.0,15,40,0.0,0.0
11513,64.0,0,30,2.0,0.0
11514,72.0,15,30,4.0,0.0
11515,45.0,0,30,3.0,0.0
11516,57.0,0,40,1.0,0.0
11517,57.0,15,40,0.0,0.0
11518,45.0,0,30,4.0,0.0
11519,74.0,0,30,4.0,0.0
11520,47.0,0,30,4.0,0.0
11521,62.0,0,30,2.0,0.0
11522,47.0,45,30,3.0,0.0
11523,48.0,0,60,4.0,0.0
11524,76.0,30,60,4.0,0.0
11525,60.0,15,40,2.0,0.0
11526,69.0,0,40,1.0,0.0
11527,48.0,0,40,3.0,0.0
11528,69.0,0,40,0.0,0.0
11529,47.0,15,30,4.0,0.0
11530,47.0,0,30,3.0,0.0
11531,69.0,0,40,0.0,0.0
11532,64.0,0,40,2.0,0.0
11533,69.0,15,40,1.0,0.0
11534,74.0,0,30,4.0,0.0
11535,48.0,0,30,3.0,0.0
11536,48.0,0,30,4.0,0.0
11537,76.0,45,30,4.0,0.0
11538,69.0,0,40,1.0,0.0
11539,50.0,0,40,3.0,0.0
11540,50.0,0,60,4.0,0.0
11541,60.0,0,40,2.0,0.0
11542,77.0,30,60,4.0,0.0
11543,69.0,15,40,0.0,0.0
11544,69.0,0,40,0.0,0.0
11545,48.0,15,30,3.0,0.0
11546,69.0,15,40,1.0,0.0
11547,57.0,0,40,2.0,0.0
11548,48.0,0,30,4.0,0.0
11549,76.0,0,30,4.0,0.0
11550,50.0,30,30,3.0,0.0
11551,50.0,0,30,4.0,0.0
11552,77.0,0,30,4.0,0.0
11553,71.0,0,60,4.0,0.0
11554,64.0,15,40,2.0,0.0
11555,52.0,0,60,4.0,0.0
11556,52.0,0,40,3.0,0.0
11557,69.0,0,30,1.0,0.0
11558,69.0,15,30,0.0,0.0
11559,67.0,0,30,1.0,0.0
11560,67.0,30,30,0.0,0.0
11561,67.0,0,30,2.0,0.0
11562,48.0,30,30,3.0,0.0
11563,69.0,0,30,1.0,0.0
11564,48.0,0,30,4.0,0.0
11565,69.0,0,30,0.0,0.0
11566,50.0,0,30,4.0,0.0
11567,71.0,0,30,0.0,0.0
11568,65.0,0,30,2.0,0.0
11569,71.0,45,30,1.0,0.0
11570,50.0,0,30,3.0,0.0
11571,52.0,0,40,3.0,0.0
11572,52.0,0,60,4.0,0.0
11573,72.0,0,40,0.0,0.0
11574,64.0,0,40,2.0,0.0
11575,79.0,30,60,4.0,0.0
11576,72.0,15,40,1.0,0.0
11577,72.0,0,40,0.0,0.0
11578,72.0,15,40,1.0,0.0
11579,77.0,0,30,4.0,0.0
11580,50.0,15,30,4.0,0.0
11581,67.0,0,40,2.0,0.0
11582,50.0,0,30,3.0,0.0
11583,52.0,45,30,4.0,0.0
11584,79.0,0,30,4.0,0.0
11585,52.0,0,30,3.0,0.0
11586,72.0,0,40,1.0,0.0
11587,53.0,15,40,3.0,0.0
11588,72.0,0,40,0.0,0.0
11589,64.0,0,40,2.0,0.0
11590,53.0,0,60,4.0,0.0
11591,81.0,30,60,4.0,0.0
11592,72.0,0,40,1.0,0.0
11593,72.0,15,40,0.0,0.0
11594,52.0,0,30,3.0,0.0
11595,60.0,0,40,2.0,0.0
11596,52.0,0,30,4.0,0.0
11597,79.0,15,30,4.0,0.0
11598,53.0,0,30,3.0,0.0
11599,81.0,30,30,4.0,0.0
11600,53.0,0,30,4.0,0.0
11601,72.0,0,30,1.0,0.0
11602,67.0,15,40,2.0,0.0
11603,74.0,0,60,4.0,0.0
11604,55.0,0,40,3.0,0.0
11605,72.0,15,30,0.0,0.0
11606,55.0,30,60,4.0,0.0
11607,71.0,0,30,1.0,0.0
11608,71.0,0,30,0.0,0.0
11609,71.0,0,30,2.0,0.0
11610,72.0,0,30,1.0,0.0
11611,52.0,0,30,3.0,0.0
11612,72.0,30,30,0.0,0.0
11613,52.0,0,30,4.0,0.0
11614,54.0,45,30,4.0,0.0
11615,69.0,0,30,2.0,0.0
11616,54.0,0,30,3.0,0.0
11617,74.0,0,30,0.0,0.0
11618,74.0,0,30,1.0,0.0
11619,67.0,0,40,2.0,0.0
11620,76.0,0,40,1.0,0.0
11621,55.0,15,40,3.0,0.0
11622,76.0,0,40,0.0,0.0
11623,55.0,0,60,4.0,0.0
11624,83.0,30,60,4.0,0.0
11625,76.0,0,40,0.0,0.0
11626,54.0,0,30,3.0,0.0
11627,53.0,15,30,4.0,0.0
11628,81.0,0,30,4.0,0.0
11629,76.0,15,40,1.0,0.0
11630,71.0,0,40,2.0,0.0
11631,55.0,0,30,3.0,0.0
11632,83.0,45,30,4.0,0.0
11633,55.0,0,30,4.0,0.0
11634,84.0,0,60,4.0,0.0
11635,57.0,0,40,3.0,0.0
11636,76.0,15,40,0.0,0.0
11637,57.0,30,60,4.0,0.0
11638,76.0,0,40,1.0,0.0
11639,67.0,0,40,2.0,0.0
11640,76.0,0,40,1.0,0.0
11641,55.0,15,30,3.0,0.0
11642,76.0,15,40,0.0,0.0
11643,64.0,0,40,2.0,0.0
11644,55.0,0,30,4.0,0.0
11645,83.0,0,30,4.0,0.0
11646,57.0,0,30,4.0,0.0
11647,57.0,30,30,3.0,0.0
11648,84.0,0,30,4.0,0.0
11649,78.0,30,60,4.0,0.0
11650,59.0,15,30,4.0,0.0
11651,71.0,0,120,2.0,0.0
11652,76.0,0,40,1.0,0.0
11653,76.0,15,40,0.0,0.0
11654,59.0,0,40,3.0,0.0
11655,60.0,0,30,4.0,0.0
11656,80.0,0,30,4.0,0.0
11657,74.0,15,30,0.0,0.0
11658,47.0,15,40,3.0,0.0
11659,74.0,0,30,1.0,0.0
11660,59.0,0,30,4.0,0.0
11661,57.0,0,30,4.0,0.0
11662,81.0,30,30,4.0,0.0
11663,72.0,0,30,0.0,0.0
11664,72.0,0,30,1.0,0.0
11665,74.0,0,40,1.0,0.0
11666,59.0,0,40,3.0,0.0
11667,83.0,0,30,4.0,0.0
11668,56.0,15,30,4.0,0.0
11669,74.0,15,40,0.0,0.0
11670,81.0,30,30,4.0,0.0
11671,57.0,0,30,4.0,0.0
11672,71.0,0,30,0.0,0.0
11673,59.0,0,30,4.0,0.0
11674,71.0,0,40,2.0,0.0
11675,57.0,15,40,3.0,0.0
11676,71.0,0,30,1.0,0.0
11677,80.0,15,30,4.0,0.0
11678,72.0,0,30,0.0,0.0
11679,57.0,0,30,4.0,0.0
11680,72.0,30,30,1.0,0.0
11681,81.0,0,30,4.0,0.0
11682,83.0,15,30,4.0,0.0
11683,56.0,0,60,4.0,0.0
11684,74.0,15,40,1.0,0.0
11685,56.0,0,40,3.0,0.0
11686,64.0,0,40,2.0,0.0
11687,74.0,0,40,0.0,0.0
11688,81.0,30,30,4.0,0.0
11689,52.0,0,40,3.0,0.0
11690,80.0,15,30,4.0,0.0
11691,52.0,30,60,4.0,0.0
11692,68.0,0,40,2.0,0.0
11693,74.0,0,40,0.0,0.0
11694,74.0,15,40,1.0,0.0
11695,78.0,0,30,4.0,0.0
11696,74.0,0,40,1.0,0.0
11697,57.0,0,40,3.0,0.0
11698,74.0,15,40,0.0,0.0
11699,69.0,0,120,2.0,0.0
11700,76.0,15,30,4.0,0.0
11701,57.0,30,60,4.0,0.0
11702,81.0,0,30,4.0,0.0
11703,45.0,15,40,3.0,0.0
11704,80.0,0,30,4.0,0.0
11705,72.0,15,30,0.0,0.0
11706,72.0,0,30,1.0,0.0
11707,45.0,30,60,4.0,0.0
11708,71.0,0,30,0.0,0.0
11709,78.0,0,30,4.0,0.0
11710,71.0,0,30,1.0,0.0
11711,57.0,30,60,4.0,0.0
11712,76.0,15,30,4.0,0.0
11713,72.0,0,40,1.0,0.0
11714,57.0,15,40,3.0,0.0
11715,72.0,0,40,0.0,0.0
11716,74.0,0,30,4.0,0.0
11717,55.0,15,40,3.0,0.0
11718,55.0,0,60,4.0,0.0
11719,69.0,0,30,0.0,0.0
11720,69.0,0,30,1.0,0.0
11721,64.0,0,40,2.0,0.0
11722,72.0,15,30,4.0,0.0
11723,74.0,15,30,4.0,0.0
11724,71.0,0,30,1.0,0.0
11725,71.0,0,30,0.0,0.0
11726,69.0,15,40,2.0,0.0
11727,72.0,0,40,0.0,0.0
11728,53.0,0,40,3.0,0.0
11729,76.0,15,15,4.0,0.0
11730,53.0,30,60,4.0,0.0
11731,72.0,0,40,1.0,0.0
11732,74.0,15,15,4.0,0.0
11733,76.0,15,120,4.0,0.0
11734,74.0,15,30,1.0,0.0
11735,52.0,15,40,3.0,0.0
11736,52.0,0,60,4.0,0.0
11737,67.0,0,40,2.0,0.0
11738,74.0,0,30,0.0,0.0
11739,76.0,30,30,1.0,0.0
11740,76.0,0,30,0.0,0.0
11741,50.0,15,40,3.0,0.0
11742,50.0,30,60,4.0,0.0
11743,77.0,0,40,0.0,0.0
11744,69.0,0,120,2.0,0.0
11745,77.0,0,40,1.0,0.0
11746,79.0,0,30,4.0,0.0
11747,74.0,0,30,1.0,0.0
11748,52.0,30,30,3.0,0.0
11749,52.0,0,30,4.0,0.0
11750,77.0,0,30,4.0,0.0
11751,74.0,0,30,0.0,0.0
11752,72.0,0,30,1.0,0.0
11753,72.0,0,30,0.0,0.0
11754,53.0,30,30,3.0,0.0
11755,53.0,0,30,4.0,0.0
11756,76.0,0,30,4.0,0.0
11757,74.0,15,30,4.0,0.0
11758,71.0,15,40,0.0,0.0
11759,71.0,0,40,1.0,0.0
11760,55.0,0,40,3.0,0.0
11761,55.0,0,60,4.0,0.0
11762,72.0,30,30,4.0,0.0
11763,62.0,15,40,2.0,0.0
11764,71.0,15,30,4.0,0.0
11765,53.0,0,60,4.0,0.0
11766,67.0,0,30,1.0,0.0
11767,53.0,0,40,3.0,0.0
11768,67.0,0,30,0.0,0.0
11769,69.0,15,30,0.0,0.0
11770,72.0,0,30,4.0,0.0
11771,69.0,0,30,1.0,0.0
11772,71.0,0,40,1.0,0.0
11773,52.0,0,40,3.0,0.0
11774,71.0,15,40,0.0,0.0
11775,74.0,15,15,4.0,0.0
11776,52.0,30,60,4.0,0.0
11777,67.0,0,40,2.0,0.0
11778,72.0,15,15,4.0,0.0
11779,74.0,15,120,4.0,0.0
11780,72.0,0,30,1.0,0.0
11781,50.0,0,40,3.0,0.0
11782,50.0,30,60,4.0,0.0
11783,72.0,15,30,0.0,0.0
11784,65.0,15,40,2.0,0.0
11785,74.0,0,30,0.0,0.0
11786,74.0,0,30,1.0,0.0
11787,76.0,0,40,0.0,0.0
11788,48.0,0,40,3.0,0.0
11789,67.0,0,120,2.0,0.0
11790,76.0,15,40,1.0,0.0
11791,48.0,0,60,4.0,0.0
11792,77.0,30,30,4.0,0.0
11793,76.0,0,30,4.0,0.0
11794,50.0,30,30,4.0,0.0
11795,50.0,0,30,3.0,0.0
11796,72.0,0,30,0.0,0.0
11797,72.0,0,30,1.0,0.0
11798,52.0,0,30,3.0,0.0
11799,71.0,0,30,0.0,0.0
11800,71.0,0,30,1.0,0.0
11801,74.0,0,30,4.0,0.0
11802,52.0,30,30,4.0,0.0
11803,69.0,0,40,0.0,0.0
11804,69.0,15,40,1.0,0.0
11805,53.0,0,40,3.0,0.0
11806,72.0,15,30,4.0,0.0
11807,53.0,30,60,4.0,0.0
11808,69.0,0,30,4.0,0.0
11809,81.0,0,30,1.0,0.0
11810,60.0,0,40,2.0,0.0
11811,72.0,15,30,4.0,0.0
11812,81.0,0,30,0.0,0.0
11813,52.0,15,40,3.0,0.0
11814,52.0,0,60,4.0,0.0
11815,80.0,0,30,1.0,0.0
11816,76.0,0,30,4.0,0.0
11817,80.0,45,30,0.0,0.0
11818,81.0,0,40,0.0,0.0
11819,65.0,0,40,2.0,0.0
11820,50.0,0,40,3.0,0.0
11821,50.0,45,60,4.0,0.0
11822,81.0,15,40,1.0,0.0
11823,81.0,15,150,4.0,0.0
11824,48.0,30,60,4.0,0.0
11825,48.0,15,40,3.0,0.0
11826,69.0,0,40,2.0,0.0
11827,77.0,0,40,1.0,0.0
11828,77.0,0,40,0.0,0.0
11829,65.0,0,120,2.0,0.0
11830,74.0,0,60,0.0,0.0
11831,74.0,0,60,1.0,0.0
11832,47.0,30,60,4.0,0.0
11833,47.0,15,40,3.0,0.0
11834,74.0,0,30,4.0,0.0
11835,73.0,0,60,1.0,0.0
11836,73.0,0,60,0.0,0.0
11837,45.0,15,40,3.0,0.0
11838,45.0,45,60,4.0,0.0
11839,77.0,15,30,4.0,0.0
11840,81.0,0,30,4.0,0.0
11841,74.0,0,40,0.0,0.0
11842,44.0,15,40,3.0,0.0
11843,74.0,0,40,1.0,0.0
11844,86.0,30,60,4.0,0.0
11845,44.0,0,60,4.0,0.0
11846,77.0,0,30,1.0,0.0
11847,45.0,15,40,3.0,0.0
11848,77.0,0,30,0.0,0.0
11849,86.0,0,60,4.0,0.0
11850,62.0,15,30,2.0,0.0
11851,45.0,45,60,4.0,0.0
11852,60.0,0,30,2.0,0.0
11853,76.0,0,30,1.0,0.0
11854,76.0,0,30,0.0,0.0
11855,62.0,0,40,2.0,0.0
11856,77.0,0,40,1.0,0.0
11857,47.0,0,60,4.0,0.0
11858,77.0,0,40,0.0,0.0
11859,47.0,15,40,3.0,0.0
11860,86.0,30,15,4.0,0.0
11861,48.0,45,60,4.0,0.0
11862,74.0,0,40,0.0,0.0
11863,48.0,15,40,3.0,0.0
11864,65.0,15,30,2.0,0.0
11865,74.0,0,40,1.0,0.0
11866,64.0,0,30,2.0,0.0
11867,50.0,15,40,3.0,0.0
11868,65.0,0,40,2.0,0.0
11869,70.0,0,60,0.0,0.0
11870,70.0,0,60,1.0,0.0
11871,50.0,45,60,4.0,0.0
11872,86.0,0,60,4.0,0.0
11873,69.0,0,60,1.0,0.0
11874,69.0,0,60,0.0,0.0
11875,64.0,0,40,2.0,0.0
11876,48.0,45,60,4.0,0.0
11877,86.0,0,60,4.0,0.0
11878,48.0,15,40,3.0,0.0
11879,70.0,15,40,0.0,0.0
11880,70.0,0,40,1.0,0.0
11881,50.0,30,60,4.0,0.0
11882,86.0,0,60,4.0,0.0
11883,50.0,0,40,3.0,0.0
11884,65.0,0,40,2.0,0.0
11885,52.0,0,60,4.0,0.0
11886,86.0,0,60,4.0,0.0
11887,74.0,0,30,0.0,0.0
11888,74.0,15,30,1.0,0.0
11889,52.0,15,40,3.0,0.0
11890,67.0,0,40,2.0,0.0
11891,73.0,45,30,0.0,0.0
11892,73.0,0,30,1.0,0.0
11893,53.0,0,60,4.0,0.0
11894,69.0,15,40,2.0,0.0
11895,53.0,0,40,3.0,0.0
11896,74.0,0,40,0.0,0.0
11897,74.0,0,40,1.0,0.0
11898,86.0,45,15,4.0,0.0
11899,70.0,15,40,1.0,0.0
11900,70.0,0,40,0.0,0.0
11901,65.0,0,40,2.0,0.0
11902,50.0,0,40,3.0,0.0
11903,52.0,45,15,4.0,0.0
11904,86.0,15,60,4.0,0.0
11905,68.0,0,40,1.0,0.0
11906,59.0,0,40,2.0,0.0
11907,52.0,0,120,3.0,0.0
11908,68.0,15,40,0.0,0.0
11909,84.0,15,15,4.0,0.0
11910,77.0,0,30,0.0,0.0
11911,77.0,15,30,1.0,0.0
11912,68.0,15,40,2.0,0.0
11913,83.0,0,15,4.0,0.0
11914,81.0,0,30,4.0,0.0
11915,76.0,0,30,0.0,0.0
11916,76.0,0,30,1.0,0.0
11917,68.0,0,40,2.0,0.0
11918,77.0,0,40,1.0,0.0
11919,77.0,0,40,0.0,0.0
11920,40.0,0,120,4.0,0.0
11921,83.0,15,30,4.0,0.0
11922,80.0,15,15,4.0,0.0
11923,81.0,15,15,4.0,0.0
11924,68.0,15,40,2.0,0.0
11925,74.0,0,30,0.0,0.0
11926,74.0,15,30,1.0,0.0
11927,83.0,15,15,4.0,0.0
11928,84.0,0,15,4.0,0.0
11929,86.0,0,30,4.0,0.0
11930,73.0,0,30,0.0,0.0
11931,73.0,30,30,1.0,0.0
11932,68.0,0,40,2.0,0.0
11933,74.0,15,40,1.0,0.0
11934,77.0,15,30,4.0,0.0
11935,74.0,0,40,0.0,0.0
11936,76.0,0,15,4.0,0.0
11937,74.0,45,15,4.0,0.0
11938,50.0,0,60,4.0,0.0
11939,76.0,0,40,4.0,0.0
11940,68.0,0,40,0.0,0.0
11941,71.0,0,40,2.0,0.0
11942,68.0,0,40,1.0,0.0
11943,50.0,15,40,3.0,0.0
11944,77.0,45,15,4.0,0.0
11945,48.0,30,60,4.0,0.0
11946,76.0,0,60,4.0,0.0
11947,64.0,0,40,2.0,0.0
11948,48.0,0,40,3.0,0.0
11949,69.0,0,40,0.0,0.0
11950,69.0,15,40,1.0,0.0
11951,84.0,0,60,4.0,0.0
11952,47.0,15,30,4.0,0.0
11953,47.0,0,30,3.0,0.0
11954,60.0,0,40,0.0,0.0
11955,64.0,15,40,2.0,0.0
11956,60.0,0,40,1.0,0.0
11957,45.0,0,30,4.0,0.0
11958,45.0,15,30,3.0,0.0
11959,53.0,0,40,3.0,0.0
11960,69.0,0,40,2.0,0.0
11961,62.0,0,40,1.0,0.0
11962,62.0,15,40,0.0,0.0
11963,53.0,30,60,4.0,0.0
11964,83.0,30,15,4.0,0.0
11965,81.0,0,60,4.0,0.0
11966,69.0,0,40,1.0,0.0
11967,52.0,15,30,3.0,0.0
11968,65.0,0,40,2.0,0.0
11969,69.0,15,40,0.0,0.0
11970,52.0,0,30,4.0,0.0
11971,50.0,0,30,4.0,0.0
11972,83.0,0,30,4.0,0.0
11973,50.0,15,30,3.0,0.0
11974,52.0,30,60,4.0,0.0
11975,64.0,0,40,1.0,0.0
11976,83.0,15,15,4.0,0.0
11977,64.0,0,40,0.0,0.0
11978,52.0,0,40,3.0,0.0
11979,59.0,15,40,2.0,0.0
11980,84.0,15,15,4.0,0.0
11981,83.0,15,60,4.0,0.0
11982,64.0,0,40,2.0,0.0
11983,40.0,0,40,3.0,0.0
11984,68.0,0,40,1.0,0.0
11985,40.0,60,60,4.0,0.0
11986,68.0,15,40,0.0,0.0
11987,81.0,0,30,4.0,0.0
11988,60.0,0,120,2.0,0.0
11989,69.0,0,120,1.0,0.0
11990,69.0,60,120,0.0,0.0
11991,45.0,0,120,3.0,0.0
11992,45.0,30,60,4.0,0.0
11993,81.0,0,60,4.0,0.0
11994,52.0,0,60,4.0,0.0
11995,57.0,30,30,4.0,0.0
11996,48.0,0,30,4.0,0.0
11997,47.0,0,30,4.0,0.0
11998,56.0,0,30,4.0,0.0
11999,48.0,30,60,4.0,0.0
12000,57.0,0,60,4.0,0.0
12001,52.0,0,15,4.0,0.0
12002,57.0,30,30,4.0,0.0
12003,60.0,0,30,4.0,0.0
12004,50.0,0,30,4.0,0.0
12005,59.0,60,30,4.0,0.0
12006,56.0,0,30,4.0,0.0
12007,60.0,0,60,4.0,0.0
12008,52.0,0,60,4.0,0.0
12009,57.0,30,60,4.0,0.0
12010,57.0,0,60,4.0,0.0
12011,60.0,30,30,4.0,0.0
12012,64.0,0,30,4.0,0.0
12013,62.0,60,30,4.0,0.0
12014,59.0,0,30,4.0,0.0
12015,57.0,30,60,4.0,0.0
12016,57.0,0,30,3.0,0.0
12017,69.0,15,40,0.0,0.0
12018,60.0,0,15,4.0,0.0
12019,69.0,0,30,4.0,0.0
12020,64.0,0,15,4.0,0.0
12021,69.0,0,40,1.0,0.0
12022,60.0,0,30,2.0,0.0
12023,62.0,45,30,2.0,0.0
12024,59.0,0,30,3.0,0.0
12025,59.0,0,30,4.0,0.0
12026,68.0,0,30,4.0,0.0
12027,60.0,0,60,4.0,0.0
12028,81.0,0,40,0.0,0.0
12029,60.0,0,40,3.0,0.0
12030,64.0,15,40,2.0,0.0
12031,81.0,0,40,1.0,0.0
12032,69.0,30,60,4.0,0.0
12033,64.0,0,60,4.0,0.0
12034,59.0,0,30,3.0,0.0
12035,81.0,15,40,1.0,0.0
12036,59.0,0,30,4.0,0.0
12037,81.0,0,40,0.0,0.0
12038,62.0,15,30,2.0,0.0
12039,64.0,0,30,2.0,0.0
12040,60.0,45,30,3.0,0.0
12041,60.0,0,30,4.0,0.0
12042,65.0,0,40,2.0,0.0
12043,81.0,0,40,0.0,0.0
12044,81.0,15,40,1.0,0.0
12045,62.0,0,40,3.0,0.0
12046,62.0,30,60,4.0,0.0
12047,60.0,15,30,3.0,0.0
12048,60.0,0,30,4.0,0.0
12049,81.0,15,40,1.0,0.0
12050,81.0,0,40,0.0,0.0
12051,64.0,0,30,2.0,0.0
12052,62.0,0,30,4.0,0.0
12053,65.0,0,30,2.0,0.0
12054,62.0,45,30,3.0,0.0
12055,81.0,15,40,0.0,0.0
12056,81.0,0,40,1.0,0.0
12057,59.0,0,120,2.0,0.0
12058,64.0,60,120,3.0,0.0
12059,79.0,0,30,1.0,0.0
12060,52.0,0,60,4.0,0.0
12061,61.0,0,30,4.0,0.0
12062,64.0,30,15,4.0,0.0
12063,79.0,30,30,0.0,0.0
12064,65.0,0,30,4.0,0.0
12065,62.0,0,30,4.0,0.0
12066,77.0,0,30,1.0,0.0
12067,77.0,0,30,0.0,0.0
12068,79.0,0,60,0.0,0.0
12069,79.0,30,60,1.0,0.0
12070,61.0,0,15,4.0,0.0
12071,58.0,30,30,4.0,0.0
12072,64.0,0,15,4.0,0.0
12073,67.0,0,30,4.0,0.0
12074,57.0,60,30,4.0,0.0
12075,65.0,0,30,4.0,0.0
12076,67.0,30,60,4.0,0.0
12077,58.0,0,60,4.0,0.0
12078,55.0,0,30,4.0,0.0
12079,70.0,30,30,4.0,0.0
12080,53.0,0,30,4.0,0.0
12081,69.0,0,30,4.0,0.0
12082,70.0,0,60,4.0,0.0
12083,64.0,0,15,4.0,0.0
12084,61.0,60,15,4.0,0.0
12085,55.0,0,60,4.0,0.0
12086,61.0,0,30,2.0,0.0
12087,52.0,0,60,4.0,0.0
12088,67.0,0,60,4.0,0.0
12089,73.0,0,30,4.0,0.0
12090,76.0,0,30,0.0,0.0
12091,76.0,15,30,1.0,0.0
12092,52.0,15,40,3.0,0.0
12093,71.0,0,30,4.0,0.0
12094,77.0,0,30,0.0,0.0
12095,77.0,0,30,1.0,0.0
12096,62.0,30,30,2.0,0.0
12097,64.0,0,60,4.0,0.0
12098,79.0,0,40,0.0,0.0
12099,73.0,0,60,4.0,0.0
12100,64.0,0,40,3.0,0.0
12101,79.0,15,40,1.0,0.0
12102,64.0,15,30,2.0,0.0
12103,62.0,30,30,2.0,0.0
12104,62.0,15,40,3.0,0.0
12105,76.0,0,30,0.0,0.0
12106,76.0,15,30,1.0,0.0
12107,61.0,0,30,2.0,0.0
12108,62.0,0,60,4.0,0.0
12109,77.0,0,30,0.0,0.0
12110,77.0,0,30,1.0,0.0
12111,62.0,30,30,2.0,0.0
12112,64.0,15,30,2.0,0.0
12113,61.0,0,60,4.0,0.0
12114,79.0,15,40,0.0,0.0
12115,61.0,0,40,3.0,0.0
12116,79.0,0,40,1.0,0.0
12117,62.0,30,30,2.0,0.0
12118,61.0,15,30,2.0,0.0
12119,57.0,45,60,4.0,0.0
12120,57.0,0,40,3.0,0.0
12121,79.0,15,40,1.0,0.0
12122,79.0,0,40,0.0,0.0
12123,59.0,0,30,2.0,0.0
12124,62.0,0,40,3.0,0.0
12125,57.0,0,120,2.0,0.0
12126,62.0,30,60,4.0,0.0
12127,79.0,0,40,1.0,0.0
12128,79.0,15,40,0.0,0.0
12129,50.0,0,60,4.0,0.0
12130,77.0,0,30,1.0,0.0
12131,74.0,15,30,4.0,0.0
12132,77.0,0,30,0.0,0.0
12133,50.0,15,40,3.0,0.0
12134,76.0,0,30,1.0,0.0
12135,76.0,45,30,0.0,0.0
12136,76.0,0,30,4.0,0.0
12137,77.0,15,40,1.0,0.0
12138,62.0,0,40,3.0,0.0
12139,77.0,0,40,0.0,0.0
12140,77.0,0,60,4.0,0.0
12141,62.0,30,60,4.0,0.0
12142,74.0,0,30,4.0,0.0
12143,60.0,0,60,4.0,0.0
12144,69.0,15,40,2.0,0.0
12145,60.0,0,40,3.0,0.0
12146,74.0,0,30,0.0,0.0
12147,74.0,15,30,1.0,0.0
12148,76.0,0,30,0.0,0.0
12149,76.0,45,30,1.0,0.0
12150,76.0,0,30,4.0,0.0
12151,77.0,30,60,4.0,0.0
12152,58.0,15,40,3.0,0.0
12153,62.0,0,40,2.0,0.0
12154,58.0,0,60,4.0,0.0
12155,77.0,0,40,1.0,0.0
12156,77.0,0,40,0.0,0.0
12157,79.0,0,30,4.0,0.0
12158,57.0,0,60,4.0,0.0
12159,60.0,0,60,4.0,0.0
12160,79.0,15,30,1.0,0.0
12161,79.0,0,30,0.0,0.0
12162,64.0,0,30,2.0,0.0
12163,57.0,15,40,3.0,0.0
12164,81.0,0,30,0.0,0.0
12165,65.0,0,30,2.0,0.0
12166,81.0,60,30,1.0,0.0
12167,81.0,0,30,4.0,0.0
12168,55.0,0,60,3.0,0.0
12169,67.0,30,60,2.0,0.0
12170,55.0,0,60,4.0,0.0
12171,62.0,0,60,4.0,0.0
12172,82.0,0,60,0.0,0.0
12173,82.0,0,60,4.0,0.0
12174,82.0,0,60,1.0,0.0
12175,67.0,0,30,4.0,0.0
12176,58.0,30,30,4.0,0.0
12177,69.0,30,30,4.0,0.0
12178,60.0,0,30,4.0,0.0
12179,62.0,30,60,4.0,0.0
12180,70.0,30,30,4.0,0.0
12181,72.0,0,30,4.0,0.0
12182,74.0,30,30,4.0,0.0
12183,58.0,30,60,4.0,0.0
12184,69.0,0,30,4.0,0.0
12185,55.0,30,60,4.0,0.0
12186,70.0,30,30,4.0,0.0
12187,67.0,0,30,4.0,0.0
12188,58.0,60,60,4.0,0.0
12189,74.0,30,30,4.0,0.0
12190,70.0,0,30,4.0,0.0
12191,60.0,0,60,4.0,0.0
12192,76.0,30,60,4.0,0.0
12193,76.0,15,30,1.0,0.0
12194,76.0,0,30,0.0,0.0
12195,72.0,0,30,4.0,0.0
12196,48.0,15,40,3.0,0.0
12197,48.0,45,60,4.0,0.0
12198,74.0,0,30,0.0,0.0
12199,74.0,0,30,4.0,0.0
12200,74.0,0,30,1.0,0.0
12201,76.0,15,40,1.0,0.0
12202,60.0,0,40,3.0,0.0
12203,76.0,30,60,4.0,0.0
12204,76.0,0,40,0.0,0.0
12205,60.0,0,60,4.0,0.0
12206,58.0,15,40,3.0,0.0
12207,67.0,0,40,2.0,0.0
12208,72.0,0,30,1.0,0.0
12209,58.0,0,60,4.0,0.0
12210,72.0,15,30,0.0,0.0
12211,72.0,0,30,4.0,0.0
12212,74.0,45,30,0.0,0.0
12213,74.0,0,30,4.0,0.0
12214,74.0,0,30,1.0,0.0
12215,60.0,15,40,2.0,0.0
12216,76.0,0,60,4.0,0.0
12217,57.0,0,60,4.0,0.0
12218,76.0,0,40,0.0,0.0
12219,76.0,0,40,1.0,0.0
12220,57.0,0,40,3.0,0.0
12221,55.0,0,60,4.0,0.0
12222,58.0,0,60,4.0,0.0
12223,77.0,0,30,0.0,0.0
12224,77.0,0,30,4.0,0.0
12225,77.0,15,30,1.0,0.0
12226,55.0,15,40,3.0,0.0
12227,62.0,0,30,2.0,0.0
12228,79.0,0,30,0.0,0.0
12229,79.0,60,30,1.0,0.0
12230,64.0,0,30,2.0,0.0
12231,79.0,0,30,4.0,0.0
12232,81.0,0,60,4.0,0.0
12233,53.0,0,60,4.0,0.0
12234,60.0,0,60,4.0,0.0
12235,81.0,0,60,1.0,0.0
12236,65.0,0,60,2.0,0.0
12237,53.0,30,60,3.0,0.0
12238,81.0,0,60,0.0,0.0
12239,57.0,30,30,4.0,0.0
12240,65.0,0,30,4.0,0.0
12241,58.0,30,30,4.0,0.0
12242,67.0,0,30,4.0,0.0
12243,60.0,0,60,4.0,0.0
12244,69.0,30,30,4.0,0.0
12245,70.0,30,30,4.0,0.0
12246,72.0,30,30,4.0,0.0
12247,57.0,30,60,4.0,0.0
12248,67.0,0,30,4.0,0.0
12249,69.0,30,30,4.0,0.0
12250,53.0,0,60,4.0,0.0
12251,65.0,30,30,4.0,0.0
12252,57.0,0,60,4.0,0.0
12253,72.0,30,30,4.0,0.0
12254,69.0,60,30,4.0,0.0
12255,74.0,30,60,4.0,0.0
12256,58.0,0,60,4.0,0.0
12257,46.0,0,60,4.0,0.0
12258,70.0,0,30,4.0,0.0
12259,74.0,0,30,0.0,0.0
12260,46.0,15,40,3.0,0.0
12261,74.0,15,30,1.0,0.0
12262,72.0,0,30,0.0,0.0
12263,72.0,0,30,4.0,0.0
12264,72.0,45,30,1.0,0.0
12265,74.0,0,40,0.0,0.0
12266,58.0,0,60,4.0,0.0
12267,58.0,0,40,3.0,0.0
12268,74.0,30,60,4.0,0.0
12269,74.0,15,40,1.0,0.0
12270,57.0,15,40,3.0,0.0
12271,70.0,0,30,4.0,0.0
12272,57.0,0,60,4.0,0.0
12273,65.0,0,40,2.0,0.0
12274,70.0,0,30,0.0,0.0
12275,70.0,15,30,1.0,0.0
12276,72.0,0,30,0.0,0.0
12277,72.0,0,30,1.0,0.0
12278,72.0,45,30,4.0,0.0
12279,58.0,0,40,2.0,0.0
12280,55.0,0,40,3.0,0.0
12281,74.0,0,40,1.0,0.0
12282,74.0,15,40,0.0,0.0
12283,55.0,30,60,4.0,0.0
12284,74.0,0,60,4.0,0.0
12285,57.0,0,60,4.0,0.0
12286,76.0,0,30,1.0,0.0
12287,53.0,0,60,4.0,0.0
12288,76.0,0,30,4.0,0.0
12289,53.0,15,40,3.0,0.0
12290,76.0,0,30,0.0,0.0
12291,60.0,15,30,2.0,0.0
12292,77.0,0,30,1.0,0.0
12293,77.0,0,30,4.0,0.0
12294,62.0,0,30,2.0,0.0
12295,77.0,54,30,0.0,0.0
12296,55.0,30,60,4.0,0.0
12297,60.0,0,15,4.0,0.0
12298,79.0,0,60,4.0,0.0
12299,52.0,0,60,4.0,0.0
12300,60.0,0,1320,2.0,0.0
12301,79.0,0,1320,0.0,0.0
12302,70.0,0,1320,1.0,0.0
12303,52.0,6,60,3.0,0.0
12304,52.0,6,60,3.0,0.0
12305,60.0,24,30,4.0,0.0
12306,58.0,30,60,4.0,0.0
12307,62.0,0,30,4.0,0.0
12308,52.0,6,60,3.0,0.0
12309,55.0,30,60,4.0,0.0
12310,64.0,24,30,4.0,0.0
12311,65.0,0,30,4.0,0.0
12312,67.0,24,30,4.0,0.0
12313,52.0,30,60,4.0,0.0
12314,52.0,6,60,3.0,0.0
12315,62.0,0,30,4.0,0.0
12316,64.0,24,30,4.0,0.0
12317,48.0,30,60,4.0,0.0
12318,52.0,6,60,3.0,0.0
12319,60.0,0,30,4.0,0.0
12320,52.0,0,60,4.0,0.0
12321,52.0,6,60,3.0,0.0
12322,67.0,24,30,4.0,0.0
12323,64.0,30,30,4.0,0.0
12324,70.0,24,30,4.0,0.0
12325,52.0,6,60,3.0,0.0
12326,55.0,0,60,4.0,0.0
12327,69.0,30,30,4.0,0.0
12328,52.0,6,60,3.0,0.0
12329,67.0,24,30,4.0,0.0
12330,58.0,0,60,4.0,0.0
12331,65.0,30,30,4.0,0.0
12332,52.0,30,60,4.0,0.0
12333,52.0,6,60,3.0,0.0
12334,67.0,24,30,4.0,0.0
12335,69.0,0,30,4.0,0.0
12336,55.0,0,60,4.0,0.0
12337,70.0,24,30,4.0,0.0
12338,52.0,6,60,3.0,0.0
12339,65.0,30,30,4.0,0.0
12340,52.0,6,60,3.0,0.0
12341,67.0,24,30,4.0,0.0
12342,58.0,30,60,4.0,0.0
12343,64.0,0,30,4.0,0.0
12344,55.0,30,60,4.0,0.0
12345,70.0,24,30,4.0,0.0
12346,52.0,6,60,3.0,0.0
12347,67.0,0,30,4.0,0.0
12348,52.0,6,60,3.0,0.0
12349,76.0,24,30,4.0,0.0
12350,60.0,0,60,4.0,0.0
12351,74.0,30,30,4.0,0.0
12352,72.0,24,30,4.0,0.0
12353,55.0,0,60,4.0,0.0
12354,52.0,6,60,3.0,0.0
12355,74.0,30,30,4.0,0.0
12356,76.0,24,30,4.0,0.0
12357,60.0,30,60,4.0,0.0
12358,52.0,6,60,3.0,0.0
12359,77.0,0,30,4.0,0.0
12360,64.0,30,60,4.0,0.0
12361,79.0,24,30,4.0,0.0
12362,52.0,6,60,3.0,0.0
12363,74.0,0,30,4.0,0.0
12364,52.0,6,60,3.0,0.0
12365,76.0,24,30,4.0,0.0
12366,67.0,0,60,4.0,0.0
12367,72.0,30,30,4.0,0.0
12368,64.0,30,60,4.0,0.0
12369,52.0,6,60,3.0,0.0
12370,79.0,24,30,4.0,0.0
12371,76.0,0,30,4.0,0.0
12372,82.0,0,30,4.0,0.0
12373,52.0,30,240,3.0,0.0
12374,60.0,30,30,4.0,0.0
12375,62.0,30,30,4.0,0.0
12376,81.0,0,30,4.0,0.0
12377,64.0,0,30,4.0,0.0
12378,79.0,30,30,4.0,0.0
12379,81.0,0,30,4.0,0.0
12380,65.0,30,30,4.0,0.0
12381,82.0,30,30,4.0,0.0
12382,67.0,0,30,4.0,0.0
12383,69.0,30,30,4.0,0.0
12384,84.0,0,30,4.0,0.0
12385,70.0,30,30,4.0,0.0
12386,86.0,0,30,4.0,0.0
12387,81.0,0,30,4.0,0.0
12388,72.0,0,30,4.0,0.0
12389,74.0,0,30,4.0,0.0
12390,82.0,30,30,4.0,0.0
12391,77.0,30,30,4.0,0.0
12392,79.0,0,30,4.0,0.0
12393,60.0,0,40,2.0,0.0
12394,76.0,15,40,1.0,0.0
12395,76.0,0,40,0.0,0.0
12396,48.0,0,40,3.0,0.0
12397,76.0,15,30,4.0,0.0
12398,84.0,0,30,4.0,0.0
12399,72.0,30,30,4.0,0.0
12400,79.0,0,30,4.0,0.0
12401,53.0,0,40,3.0,0.0
12402,60.0,15,40,2.0,0.0
12403,77.0,0,40,0.0,0.0
12404,77.0,0,40,1.0,0.0
12405,81.0,15,30,4.0,0.0
12406,77.0,30,60,4.0,0.0
12407,76.0,0,30,4.0,0.0
12408,69.0,0,40,0.0,0.0
12409,69.0,0,40,1.0,0.0
12410,60.0,15,40,2.0,0.0
12411,69.0,30,60,4.0,0.0
12412,77.0,15,30,4.0,0.0
12413,52.0,0,40,3.0,0.0
12414,72.0,0,30,4.0,0.0
12415,70.0,0,40,0.0,0.0
12416,50.0,0,40,3.0,0.0
12417,70.0,0,40,1.0,0.0
12418,74.0,15,30,4.0,0.0
12419,70.0,0,60,4.0,0.0
12420,65.0,15,40,2.0,0.0
12421,77.0,30,30,4.0,0.0
12422,77.0,0,40,0.0,0.0
12423,77.0,0,40,1.0,0.0
12424,62.0,15,40,2.0,0.0
12425,67.0,0,60,4.0,0.0
12426,48.0,0,30,3.0,0.0
12427,82.0,15,30,4.0,0.0
12428,46.0,0,30,3.0,0.0
12429,79.0,30,30,4.0,0.0
12430,48.0,0,40,3.0,0.0
12431,72.0,15,40,0.0,0.0
12432,72.0,0,40,1.0,0.0
12433,81.0,15,30,4.0,0.0
12434,60.0,0,40,2.0,0.0
12435,77.0,0,30,4.0,0.0
12436,67.0,0,40,2.0,0.0
12437,76.0,0,40,1.0,0.0
12438,36.0,0,40,3.0,0.0
12439,76.0,15,40,0.0,0.0
12440,70.0,0,60,4.0,0.0
12441,60.0,0,60,4.0,0.0
12442,72.0,30,15,4.0,0.0
12443,76.0,45,30,4.0,0.0
12444,77.0,30,60,4.0,0.0
12445,65.0,0,120,4.0,0.0
12446,41.0,45,120,3.0,0.0
12447,77.0,15,40,0.0,0.0
12448,77.0,0,120,1.0,0.0
12449,69.0,0,120,2.0,0.0
12450,69.0,0,120,4.0,0.0
12451,76.0,0,30,4.0,0.0
12452,76.0,30,30,0.0,0.0
12453,74.0,0,30,4.0,0.0
12454,74.0,0,30,0.0,0.0
12455,72.0,0,60,4.0,0.0
12456,72.0,15,40,0.0,0.0
12457,69.0,45,30,4.0,0.0
12458,70.0,0,60,4.0,0.0
12459,70.0,15,40,0.0,0.0
12460,67.0,45,30,4.0,0.0
12461,69.0,45,60,4.0,0.0
12462,69.0,15,40,0.0,0.0
12463,65.0,0,30,4.0,0.0
12464,67.0,0,60,4.0,0.0
12465,67.0,15,40,0.0,0.0
12466,64.0,45,30,4.0,0.0
12467,69.0,15,40,0.0,0.0
12468,69.0,30,60,4.0,0.0
12469,57.0,0,30,2.0,0.0
12470,65.0,0,15,4.0,0.0
12471,65.0,15,40,0.0,0.0
12472,53.0,0,30,3.0,0.0
12473,53.0,15,30,4.0,0.0
12474,72.0,0,30,1.0,0.0
12475,58.0,0,30,2.0,0.0
12476,55.0,0,30,4.0,0.0
12477,55.0,45,30,3.0,0.0
12478,70.0,0,30,1.0,0.0
12479,69.0,0,40,1.0,0.0
12480,57.0,0,60,4.0,0.0
12481,77.0,15,40,0.0,0.0
12482,57.0,0,40,3.0,0.0
12483,60.0,0,40,2.0,0.0
12484,55.0,15,30,3.0,0.0
12485,77.0,30,15,4.0,0.0
12486,72.0,15,40,1.0,0.0
12487,55.0,0,30,4.0,0.0
12488,77.0,0,40,0.0,0.0
12489,58.0,0,30,2.0,0.0
12490,60.0,45,30,2.0,0.0
12491,57.0,0,30,4.0,0.0
12492,57.0,0,30,3.0,0.0
12493,77.0,0,40,0.0,0.0
12494,59.0,0,60,4.0,0.0
12495,62.0,0,40,2.0,0.0
12496,69.0,15,40,1.0,0.0
12497,59.0,0,40,3.0,0.0
12498,77.0,15,40,0.0,0.0
12499,60.0,0,30,2.0,0.0
12500,65.0,0,40,1.0,0.0
12501,57.0,15,30,3.0,0.0
12502,77.0,30,15,4.0,0.0
12503,57.0,0,30,4.0,0.0
12504,59.0,0,30,4.0,0.0
12505,62.0,0,30,2.0,0.0
12506,59.0,30,30,3.0,0.0
12507,72.0,0,40,1.0,0.0
12508,72.0,15,40,0.0,0.0
12509,60.0,0,120,3.0,0.0
12510,77.0,0,15,4.0,0.0
12511,60.0,0,120,4.0,0.0
12512,55.0,45,120,2.0,0.0
12513,81.0,30,30,4.0,0.0
12514,79.0,0,30,4.0,0.0
12515,70.0,30,30,0.0,0.0
12516,70.0,0,30,1.0,0.0
12517,69.0,0,30,1.0,0.0
12518,69.0,0,30,0.0,0.0
12519,77.0,0,30,4.0,0.0
12520,67.0,0,40,1.0,0.0
12521,76.0,45,60,4.0,0.0
12522,67.0,15,40,0.0,0.0
12523,67.0,0,30,4.0,0.0
12524,65.0,0,40,1.0,0.0
12525,65.0,15,40,0.0,0.0
12526,74.0,0,60,4.0,0.0
12527,65.0,45,30,4.0,0.0
12528,64.0,0,40,0.0,0.0
12529,72.0,45,60,4.0,0.0
12530,64.0,15,40,1.0,0.0
12531,64.0,0,30,4.0,0.0
12532,62.0,15,40,0.0,0.0
12533,71.0,0,60,4.0,0.0
12534,62.0,0,40,1.0,0.0
12535,62.0,30,30,4.0,0.0
12536,64.0,15,40,0.0,0.0
12537,64.0,0,40,1.0,0.0
12538,72.0,15,30,4.0,0.0
12539,64.0,0,60,4.0,0.0
12540,74.0,30,30,4.0,0.0
12541,60.0,15,40,1.0,0.0
12542,60.0,0,40,0.0,0.0
12543,76.0,0,30,4.0,0.0
12544,48.0,0,30,4.0,0.0
12545,48.0,0,30,3.0,0.0
12546,67.0,15,30,2.0,0.0
12547,50.0,45,30,3.0,0.0
12548,50.0,0,30,4.0,0.0
12549,65.0,0,30,2.0,0.0
12550,77.0,0,30,4.0,0.0
12551,52.0,0,40,3.0,0.0
12552,64.0,0,40,2.0,0.0
12553,52.0,0,60,4.0,0.0
12554,72.0,0,40,1.0,0.0
12555,72.0,15,40,0.0,0.0
12556,79.0,30,60,4.0,0.0
12557,72.0,0,40,0.0,0.0
12558,50.0,15,30,3.0,0.0
12559,50.0,0,30,4.0,0.0
12560,78.0,0,30,4.0,0.0
12561,67.0,0,40,2.0,0.0
12562,72.0,15,40,1.0,0.0
12563,79.0,0,30,4.0,0.0
12564,52.0,45,30,4.0,0.0
12565,52.0,0,30,3.0,0.0
12566,54.0,15,40,3.0,0.0
12567,63.0,0,40,2.0,0.0
12568,72.0,0,40,0.0,0.0
12569,54.0,30,60,4.0,0.0
12570,81.0,0,60,4.0,0.0
12571,72.0,0,40,1.0,0.0
12572,72.0,0,40,0.0,0.0
12573,79.0,0,30,4.0,0.0
12574,52.0,0,30,4.0,0.0
12575,52.0,15,30,3.0,0.0
12576,72.0,0,40,1.0,0.0
12577,60.0,15,40,2.0,0.0
12578,54.0,0,30,3.0,0.0
12579,81.0,0,30,4.0,0.0
12580,54.0,30,30,4.0,0.0
12581,74.0,15,30,4.0,0.0
12582,72.0,0,30,0.0,0.0
12583,55.0,0,120,3.0,0.0
12584,67.0,15,40,1.0,0.0
12585,67.0,0,40,2.0,0.0
12586,55.0,0,30,4.0,0.0
12587,75.0,30,30,0.0,0.0
12588,75.0,0,30,4.0,0.0
12589,67.0,0,30,4.0,0.0
12590,65.0,0,30,4.0,0.0
12591,74.0,0,30,4.0,0.0
12592,65.0,0,30,2.0,0.0
12593,74.0,30,30,0.0,0.0
12594,65.0,0,30,1.0,0.0
12595,63.0,30,30,2.0,0.0
12596,63.0,0,30,1.0,0.0
12597,72.0,0,30,4.0,0.0
12598,72.0,0,30,0.0,0.0
12599,63.0,0,30,4.0,0.0
12600,62.0,0,60,4.0,0.0
12601,70.0,15,30,4.0,0.0
12602,70.0,0,120,0.0,0.0
12603,62.0,0,40,2.0,0.0
12604,62.0,15,40,1.0,0.0
12605,67.0,30,30,4.0,0.0
12606,75.0,15,30,4.0,0.0
12607,60.0,0,40,1.0,0.0
12608,60.0,30,60,4.0,0.0
12609,60.0,15,40,2.0,0.0
12610,67.0,0,30,4.0,0.0
12611,74.0,15,30,4.0,0.0
12612,58.0,30,60,4.0,0.0
12613,58.0,0,40,2.0,0.0
12614,58.0,15,40,1.0,0.0
12615,67.0,0,30,4.0,0.0
12616,72.0,15,30,4.0,0.0
12617,57.0,0,40,2.0,0.0
12618,57.0,15,40,1.0,0.0
12619,57.0,0,60,4.0,0.0
12620,66.0,30,30,4.0,0.0
12621,58.0,0,40,1.0,0.0
12622,70.0,15,30,4.0,0.0
12623,55.0,0,60,4.0,0.0
12624,58.0,15,40,2.0,0.0
12625,67.0,30,30,4.0,0.0
12626,43.0,15,30,4.0,0.0
12627,70.0,0,30,0.0,0.0
12628,55.0,0,40,2.0,0.0
12629,79.0,0,60,4.0,0.0
12630,43.0,0,30,3.0,0.0
12631,55.0,15,40,1.0,0.0
12632,45.0,0,30,3.0,0.0
12633,45.0,30,30,4.0,0.0
12634,72.0,0,30,0.0,0.0
12635,47.0,0,60,4.0,0.0
12636,67.0,0,40,2.0,0.0
12637,47.0,0,40,3.0,0.0
12638,77.0,15,30,4.0,0.0
12639,74.0,0,40,0.0,0.0
12640,67.0,15,40,1.0,0.0
12641,74.0,30,60,4.0,0.0
12642,81.0,0,30,4.0,0.0
12643,45.0,15,30,3.0,0.0
12644,45.0,0,30,4.0,0.0
12645,79.0,0,30,4.0,0.0
12646,73.0,0,30,0.0,0.0
12647,67.0,15,40,2.0,0.0
12648,67.0,0,40,1.0,0.0
12649,74.0,0,30,0.0,0.0
12650,47.0,0,30,4.0,0.0
12651,47.0,30,30,3.0,0.0
12652,77.0,0,30,4.0,0.0
12653,69.0,0,60,4.0,0.0
12654,76.0,15,30,4.0,0.0
12655,76.0,0,40,0.0,0.0
12656,49.0,0,60,4.0,0.0
12657,67.0,15,40,1.0,0.0
12658,67.0,0,40,2.0,0.0
12659,49.0,0,40,3.0,0.0
12660,79.0,30,30,4.0,0.0
12661,67.0,15,40,2.0,0.0
12662,77.0,0,30,4.0,0.0
12663,47.0,0,30,4.0,0.0
12664,74.0,15,30,0.0,0.0
12665,47.0,0,30,3.0,0.0
12666,67.0,0,40,1.0,0.0
12667,49.0,30,30,3.0,0.0
12668,76.0,0,30,4.0,0.0
12669,49.0,0,30,4.0,0.0
12670,76.0,0,30,0.0,0.0
12671,67.0,0,30,1.0,0.0
12672,67.0,15,30,2.0,0.0
12673,74.0,0,60,4.0,0.0
12674,65.0,0,60,4.0,0.0
12675,69.0,0,120,0.0,0.0
12676,50.0,0,60,4.0,0.0
12677,50.0,15,40,3.0,0.0
12678,70.0,30,30,2.0,0.0
12679,70.0,0,30,1.0,0.0
12680,48.0,0,30,4.0,0.0
12681,62.0,0,60,4.0,0.0
12682,69.0,0,30,1.0,0.0
12683,69.0,30,30,2.0,0.0
12684,48.0,0,30,3.0,0.0
12685,46.0,0,30,4.0,0.0
12686,46.0,0,30,3.0,0.0
12687,67.0,30,30,1.0,0.0
12688,67.0,0,30,2.0,0.0
12689,45.0,15,30,4.0,0.0
12690,45.0,15,40,3.0,0.0
12691,65.0,0,120,1.0,0.0
12692,65.0,30,60,4.0,0.0
12693,65.0,0,120,2.0,0.0
12694,57.0,0,30,4.0,0.0
12695,64.0,0,60,4.0,0.0
12696,43.0,15,40,3.0,0.0
12697,69.0,0,60,4.0,0.0
12698,61.0,0,60,4.0,0.0
12699,43.0,15,30,4.0,0.0
12700,55.0,30,30,4.0,0.0
12701,62.0,0,60,4.0,0.0
12702,74.0,0,60,4.0,0.0
12703,41.0,15,30,4.0,0.0
12704,69.0,0,60,4.0,0.0
12705,41.0,15,40,3.0,0.0
12706,53.0,30,30,4.0,0.0
12707,40.0,15,30,4.0,0.0
12708,64.0,45,60,4.0,0.0
12709,73.0,0,60,4.0,0.0
12710,67.0,0,60,4.0,0.0
12711,40.0,15,40,3.0,0.0
12712,52.0,0,30,4.0,0.0
12713,41.0,30,60,4.0,0.0
12714,69.0,0,60,4.0,0.0
12715,74.0,0,60,4.0,0.0
12716,41.0,15,40,3.0,0.0
12717,38.0,15,40,3.0,0.0
12718,65.0,15,30,2.0,0.0
12719,62.0,0,30,0.0,0.0
12720,38.0,0,60,4.0,0.0
12721,62.0,0,15,4.0,0.0
12722,62.0,0,30,1.0,0.0
12723,64.0,0,30,4.0,0.0
12724,67.0,0,30,2.0,0.0
12725,64.0,45,30,1.0,0.0
12726,64.0,0,30,0.0,0.0
12727,65.0,0,40,0.0,0.0
12728,50.0,0,60,4.0,0.0
12729,69.0,0,40,2.0,0.0
12730,50.0,0,40,3.0,0.0
12731,65.0,15,40,1.0,0.0
12732,65.0,30,60,4.0,0.0
12733,64.0,0,30,0.0,0.0
12734,64.0,0,30,4.0,0.0
12735,64.0,0,30,1.0,0.0
12736,50.0,15,40,3.0,0.0
12737,67.0,15,30,2.0,0.0
12738,65.0,45,30,0.0,0.0
12739,65.0,0,30,4.0,0.0
12740,65.0,0,30,1.0,0.0
12741,69.0,0,30,2.0,0.0
12742,67.0,0,60,4.0,0.0
12743,50.0,0,15,4.0,0.0
12744,67.0,0,40,1.0,0.0
12745,50.0,0,40,3.0,0.0
12746,70.0,15,40,2.0,0.0
12747,67.0,0,40,0.0,0.0
12748,65.0,0,30,0.0,0.0
12749,50.0,15,40,3.0,0.0
12750,50.0,0,60,4.0,0.0
12751,69.0,0,30,2.0,0.0
12752,65.0,0,30,4.0,0.0
12753,65.0,15,30,1.0,0.0
12754,70.0,0,30,2.0,0.0
12755,67.0,0,30,1.0,0.0
12756,67.0,0,30,0.0,0.0
12757,67.0,30,30,4.0,0.0
12758,50.0,0,30,3.0,0.0
12759,69.0,0,40,1.0,0.0
12760,50.0,15,30,4.0,0.0
12761,64.0,0,60,4.0,0.0
12762,69.0,0,60,4.0,0.0
12763,69.0,0,40,0.0,0.0
12764,64.0,15,40,2.0,0.0
12765,48.0,30,30,4.0,0.0
12766,48.0,0,30,3.0,0.0
12767,65.0,0,30,4.0,0.0
12768,50.0,15,30,3.0,0.0
12769,50.0,0,30,4.0,0.0
12770,65.0,0,30,1.0,0.0
12771,65.0,0,30,0.0,0.0
12772,65.0,15,40,2.0,0.0
12773,67.0,0,30,4.0,0.0
12774,52.0,0,30,4.0,0.0
12775,52.0,45,30,3.0,0.0
12776,67.0,0,30,1.0,0.0
12777,67.0,0,30,0.0,0.0
12778,69.0,0,60,4.0,0.0
12779,69.0,0,40,0.0,0.0
12780,60.0,0,40,2.0,0.0
12781,69.0,15,40,1.0,0.0
12782,53.0,0,40,3.0,0.0
12783,67.0,0,30,1.0,0.0
12784,58.0,15,30,2.0,0.0
12785,53.0,15,40,3.0,0.0
12786,67.0,0,30,0.0,0.0
12787,67.0,0,30,4.0,0.0
12788,53.0,30,15,4.0,0.0
12789,60.0,0,30,2.0,0.0
12790,69.0,0,30,0.0,0.0
12791,69.0,0,30,4.0,0.0
12792,69.0,0,30,1.0,0.0
12793,62.0,0,40,2.0,0.0
12794,71.0,0,40,1.0,0.0
12795,53.0,15,40,3.0,0.0
12796,71.0,0,60,4.0,0.0
12797,71.0,0,40,0.0,0.0
12798,53.0,45,15,4.0,0.0
12799,60.0,0,30,2.0,0.0
12800,53.0,15,40,3.0,0.0
12801,69.0,15,30,1.0,0.0
12802,69.0,0,30,0.0,0.0
12803,53.0,30,60,4.0,0.0
12804,69.0,0,30,4.0,0.0
12805,62.0,0,30,2.0,0.0
12806,71.0,0,30,1.0,0.0
12807,71.0,0,30,4.0,0.0
12808,71.0,0,30,0.0,0.0
12809,55.0,15,40,2.0,0.0
12810,72.0,0,40,1.0,0.0
12811,72.0,0,60,4.0,0.0
12812,53.0,0,30,3.0,0.0
12813,72.0,0,40,0.0,0.0
12814,53.0,15,30,4.0,0.0
12815,67.0,30,60,4.0,0.0
12816,52.0,0,30,3.0,0.0
12817,52.0,0,30,4.0,0.0
12818,69.0,15,40,2.0,0.0
12819,69.0,0,30,0.0,0.0
12820,69.0,0,30,1.0,0.0
12821,53.0,0,30,3.0,0.0
12822,69.0,0,30,4.0,0.0
12823,53.0,15,30,4.0,0.0
12824,71.0,0,30,1.0,0.0
12825,55.0,45,30,4.0,0.0
12826,55.0,0,30,3.0,0.0
12827,71.0,0,30,0.0,0.0
12828,71.0,0,30,4.0,0.0
12829,57.0,15,40,3.0,0.0
12830,64.0,0,40,2.0,0.0
12831,72.0,0,40,1.0,0.0
12832,57.0,0,60,4.0,0.0
12833,72.0,0,40,0.0,0.0
12834,72.0,30,60,4.0,0.0
12835,71.0,0,30,1.0,0.0
12836,71.0,0,30,4.0,0.0
12837,57.0,15,40,3.0,0.0
12838,62.0,15,30,2.0,0.0
12839,71.0,0,30,0.0,0.0
12840,72.0,45,30,1.0,0.0
12841,72.0,0,30,4.0,0.0
12842,64.0,0,30,2.0,0.0
12843,72.0,0,30,0.0,0.0
12844,57.0,0,15,4.0,0.0
12845,74.0,30,60,4.0,0.0
12846,65.0,0,40,2.0,0.0
12847,57.0,15,40,3.0,0.0
12848,74.0,0,40,0.0,0.0
12849,74.0,0,40,1.0,0.0
12850,57.0,0,15,4.0,0.0
12851,72.0,0,30,0.0,0.0
12852,72.0,0,30,4.0,0.0
12853,72.0,0,30,1.0,0.0
12854,64.0,15,30,2.0,0.0
12855,57.0,15,40,3.0,0.0
12856,74.0,0,30,1.0,0.0
12857,74.0,0,30,0.0,0.0
12858,74.0,45,30,4.0,0.0
12859,65.0,0,30,2.0,0.0
12860,76.0,0,40,1.0,0.0
12861,59.0,0,120,2.0,0.0
12862,76.0,0,60,4.0,0.0
12863,57.0,0,15,4.0,0.0
12864,76.0,0,40,0.0,0.0
12865,57.0,15,40,3.0,0.0
12866,64.0,15,40,1.0,0.0
12867,64.0,45,60,4.0,0.0
12868,55.0,0,30,4.0,0.0
12869,64.0,0,40,0.0,0.0
12870,55.0,15,30,3.0,0.0
12871,53.0,0,30,4.0,0.0
12872,53.0,0,30,3.0,0.0
12873,76.0,0,40,1.0,0.0
12874,55.0,0,40,3.0,0.0
12875,55.0,0,60,4.0,0.0
12876,76.0,30,60,4.0,0.0
12877,76.0,15,40,0.0,0.0
12878,74.0,15,40,1.0,0.0
12879,74.0,0,60,4.0,0.0
12880,52.0,0,30,4.0,0.0
12881,74.0,0,40,0.0,0.0
12882,52.0,0,30,3.0,0.0
12883,67.0,15,30,2.0,0.0
12884,53.0,0,30,3.0,0.0
12885,65.0,30,30,2.0,0.0
12886,53.0,0,30,4.0,0.0
12887,64.0,15,30,2.0,0.0
12888,73.0,15,40,0.0,0.0
12889,55.0,30,60,4.0,0.0
12890,73.0,0,60,4.0,0.0
12891,73.0,0,40,1.0,0.0
12892,55.0,0,40,3.0,0.0
12893,62.0,0,30,2.0,0.0
12894,61.0,15,30,2.0,0.0
12895,69.0,0,120,4.0,0.0
12896,69.0,15,40,0.0,0.0
12897,55.0,0,40,3.0,0.0
12898,69.0,0,40,1.0,0.0
12899,59.0,45,30,2.0,0.0
12900,74.0,30,60,4.0,0.0
12901,55.0,0,40,3.0,0.0
12902,55.0,0,15,4.0,0.0
12903,74.0,15,40,0.0,0.0
12904,74.0,0,40,1.0,0.0
12905,57.0,0,40,2.0,0.0
12906,59.0,0,30,2.0,0.0
12907,62.0,0,40,0.0,0.0
12908,53.0,0,30,3.0,0.0
12909,62.0,0,60,4.0,0.0
12910,53.0,15,30,4.0,0.0
12911,62.0,15,40,1.0,0.0
12912,61.0,0,30,2.0,0.0
12913,52.0,0,30,3.0,0.0
12914,52.0,0,30,4.0,0.0
12915,74.0,15,40,0.0,0.0
12916,53.0,0,40,3.0,0.0
12917,62.0,15,30,2.0,0.0
12918,74.0,0,40,1.0,0.0
12919,74.0,0,60,4.0,0.0
12920,53.0,0,60,4.0,0.0
12921,64.0,30,30,2.0,0.0
12922,74.0,0,30,0.0,0.0
12923,74.0,15,30,4.0,0.0
12924,62.0,45,60,4.0,0.0
12925,62.0,15,40,3.0,0.0
12926,74.0,0,30,1.0,0.0
12927,65.0,0,30,2.0,0.0
12928,76.0,0,30,4.0,0.0
12929,76.0,0,30,0.0,0.0
12930,76.0,0,30,1.0,0.0
12931,67.0,0,30,2.0,0.0
12932,69.0,15,40,2.0,0.0
12933,50.0,0,40,3.0,0.0
12934,77.0,0,40,1.0,0.0
12935,77.0,0,40,0.0,0.0
12936,50.0,0,60,4.0,0.0
12937,77.0,30,60,4.0,0.0
12938,79.0,0,30,4.0,0.0
12939,62.0,15,40,2.0,0.0
12940,52.0,0,30,4.0,0.0
12941,52.0,0,30,3.0,0.0
12942,79.0,15,30,0.0,0.0
12943,79.0,0,30,1.0,0.0
12944,53.0,0,30,3.0,0.0
12945,53.0,0,30,4.0,0.0
12946,81.0,0,30,1.0,0.0
12947,81.0,0,30,0.0,0.0
12948,81.0,45,30,4.0,0.0
12949,82.0,0,40,0.0,0.0
12950,74.0,0,40,2.0,0.0
12951,82.0,30,60,4.0,0.0
12952,55.0,0,60,4.0,0.0
12953,82.0,0,40,1.0,0.0
12954,55.0,15,40,3.0,0.0
12955,79.0,0,30,4.0,0.0
12956,57.0,0,30,4.0,0.0
12957,70.0,0,30,2.0,0.0
12958,57.0,30,30,3.0,0.0
12959,79.0,0,30,1.0,0.0
12960,79.0,0,30,0.0,0.0
12961,69.0,0,30,2.0,0.0
12962,77.0,0,30,1.0,0.0
12963,77.0,0,30,4.0,0.0
12964,77.0,45,30,0.0,0.0
12965,58.0,0,30,4.0,0.0
12966,58.0,0,30,3.0,0.0
12967,67.0,15,40,2.0,0.0
12968,76.0,30,60,4.0,0.0
12969,76.0,0,40,1.0,0.0
12970,76.0,0,40,0.0,0.0
12971,60.0,0,40,3.0,0.0
12972,60.0,0,60,4.0,0.0
12973,58.0,15,40,3.0,0.0
12974,72.0,0,30,1.0,0.0
12975,72.0,15,30,4.0,0.0
12976,64.0,0,30,2.0,0.0
12977,72.0,0,30,0.0,0.0
12978,58.0,0,60,4.0,0.0
12979,74.0,45,30,0.0,0.0
12980,65.0,0,30,2.0,0.0
12981,74.0,0,30,4.0,0.0
12982,74.0,0,30,1.0,0.0
12983,76.0,30,60,4.0,0.0
12984,57.0,0,60,4.0,0.0
12985,76.0,0,40,1.0,0.0
12986,57.0,0,40,3.0,0.0
12987,67.0,0,40,2.0,0.0
12988,76.0,15,40,0.0,0.0
12989,77.0,15,30,4.0,0.0
12990,55.0,45,60,4.0,0.0
12991,55.0,0,40,3.0,0.0
12992,60.0,15,40,2.0,0.0
12993,77.0,0,30,1.0,0.0
12994,77.0,0,30,0.0,0.0
12995,79.0,0,30,1.0,0.0
12996,79.0,0,30,4.0,0.0
12997,79.0,0,30,0.0,0.0
12998,81.0,0,40,1.0,0.0
12999,53.0,0,40,3.0,0.0
13000,53.0,0,60,4.0,0.0
13001,81.0,30,60,4.0,0.0
13002,72.0,15,40,2.0,0.0
13003,81.0,0,40,0.0,0.0
13004,77.0,0,30,4.0,0.0
13005,55.0,0,30,4.0,0.0
13006,69.0,0,30,2.0,0.0
13007,77.0,0,30,0.0,0.0
13008,55.0,0,30,3.0,0.0
13009,77.0,30,30,1.0,0.0
13010,57.0,0,30,3.0,0.0
13011,57.0,0,30,4.0,0.0
13012,76.0,0,30,0.0,0.0
13013,76.0,0,30,4.0,0.0
13014,76.0,0,30,1.0,0.0
13015,67.0,45,30,2.0,0.0
13016,74.0,0,60,4.0,0.0
13017,58.0,30,60,4.0,0.0
13018,58.0,0,40,3.0,0.0
13019,74.0,0,40,0.0,0.0
13020,74.0,15,40,1.0,0.0
13021,65.0,0,40,2.0,0.0
13022,86.0,0,30,0.0,0.0
13023,65.0,0,40,2.0,0.0
13024,86.0,15,30,4.0,0.0
13025,57.0,0,60,4.0,0.0
13026,57.0,15,40,3.0,0.0
13027,86.0,0,30,1.0,0.0
13028,85.0,0,30,4.0,0.0
13029,85.0,45,30,0.0,0.0
13030,85.0,0,30,1.0,0.0
13031,86.0,0,60,4.0,0.0
13032,55.0,45,60,4.0,0.0
13033,86.0,15,40,0.0,0.0
13034,70.0,0,40,2.0,0.0
13035,86.0,0,40,1.0,0.0
13036,55.0,0,40,3.0,0.0
13037,74.0,0,40,2.0,0.0
13038,53.0,0,40,3.0,0.0
13039,82.0,0,60,4.0,0.0
13040,53.0,45,60,4.0,0.0
13041,82.0,0,40,0.0,0.0
13042,82.0,15,40,1.0,0.0
13043,79.0,0,60,1.0,0.0
13044,79.0,0,60,0.0,0.0
13045,52.0,0,60,4.0,0.0
13046,70.0,0,120,2.0,0.0
13047,79.0,45,60,4.0,0.0
13048,52.0,15,40,3.0,0.0
13049,78.0,0,60,4.0,0.0
13050,78.0,45,60,1.0,0.0
13051,50.0,15,40,3.0,0.0
13052,78.0,0,60,0.0,0.0
13053,50.0,0,60,4.0,0.0
13054,79.0,30,60,4.0,0.0
13055,79.0,0,40,0.0,0.0
13056,49.0,0,60,4.0,0.0
13057,49.0,0,40,3.0,0.0
13058,79.0,15,40,1.0,0.0
13059,82.0,15,30,0.0,0.0
13060,50.0,45,60,4.0,0.0
13061,82.0,0,30,4.0,0.0
13062,67.0,0,30,2.0,0.0
13063,82.0,0,30,1.0,0.0
13064,50.0,15,40,3.0,0.0
13065,65.0,0,30,2.0,0.0
13066,81.0,0,30,4.0,0.0
13067,81.0,0,30,0.0,0.0
13068,81.0,0,30,1.0,0.0
13069,82.0,0,40,1.0,0.0
13070,67.0,0,40,2.0,0.0
13071,82.0,15,40,0.0,0.0
13072,52.0,0,40,3.0,0.0
13073,82.0,30,60,4.0,0.0
13074,52.0,0,60,4.0,0.0
13075,70.0,15,30,2.0,0.0
13076,79.0,0,60,4.0,0.0
13077,79.0,15,40,1.0,0.0
13078,53.0,0,40,3.0,0.0
13079,53.0,0,60,4.0,0.0
13080,79.0,0,40,0.0,0.0
13081,69.0,45,30,2.0,0.0
13082,70.0,15,40,2.0,0.0
13083,75.0,45,60,4.0,0.0
13084,75.0,0,60,1.0,0.0
13085,75.0,0,60,0.0,0.0
13086,55.0,0,60,4.0,0.0
13087,55.0,0,40,3.0,0.0
13088,74.0,45,60,1.0,0.0
13089,53.0,15,40,3.0,0.0
13090,74.0,0,60,0.0,0.0
13091,69.0,0,40,2.0,0.0
13092,74.0,0,60,4.0,0.0
13093,53.0,0,60,4.0,0.0
13094,55.0,0,60,4.0,0.0
13095,75.0,0,40,0.0,0.0
13096,75.0,0,40,1.0,0.0
13097,75.0,30,60,4.0,0.0
13098,70.0,15,40,2.0,0.0
13099,55.0,0,40,3.0,0.0
13100,57.0,0,60,4.0,0.0
13101,79.0,0,30,4.0,0.0
13102,79.0,0,30,1.0,0.0
13103,79.0,15,30,0.0,0.0
13104,72.0,15,40,2.0,0.0
13105,57.0,0,40,3.0,0.0
13106,78.0,45,30,1.0,0.0
13107,78.0,0,30,4.0,0.0
13108,78.0,0,30,0.0,0.0
13109,79.0,0,60,4.0,0.0
13110,58.0,0,40,3.0,0.0
13111,58.0,45,60,4.0,0.0
13112,79.0,0,40,0.0,0.0
13113,79.0,0,40,1.0,0.0
13114,74.0,15,40,2.0,0.0
13115,75.0,60,60,4.0,0.0
13116,75.0,0,40,0.0,0.0
13117,55.0,0,60,4.0,0.0
13118,70.0,0,40,2.0,0.0
13119,75.0,15,40,1.0,0.0
13120,55.0,0,40,3.0,0.0
13121,73.0,60,120,1.0,0.0
13122,73.0,0,60,4.0,0.0
13123,57.0,30,60,4.0,0.0
13124,57.0,0,120,3.0,0.0
13125,64.0,0,120,2.0,0.0
13126,73.0,0,120,0.0,0.0
13127,67.0,30,30,4.0,0.0
13128,82.0,0,30,4.0,0.0
13129,65.0,0,30,4.0,0.0
13130,81.0,0,30,4.0,0.0
13131,82.0,0,60,4.0,0.0
13132,67.0,30,60,4.0,0.0
13133,79.0,0,30,4.0,0.0
13134,82.0,0,30,1.0,0.0
13135,64.0,30,30,4.0,0.0
13136,82.0,0,30,0.0,0.0
13137,81.0,0,30,0.0,0.0
13138,77.0,0,30,4.0,0.0
13139,62.0,0,30,4.0,0.0
13140,81.0,45,30,1.0,0.0
13141,82.0,0,40,0.0,0.0
13142,79.0,0,60,4.0,0.0
13143,64.0,45,60,4.0,0.0
13144,82.0,15,40,1.0,0.0
13145,73.0,0,40,1.0,0.0
13146,55.0,0,40,3.0,0.0
13147,73.0,0,40,0.0,0.0
13148,55.0,45,60,4.0,0.0
13149,73.0,0,60,4.0,0.0
13150,64.0,15,40,2.0,0.0
13151,74.0,0,60,4.0,0.0
13152,69.0,0,40,2.0,0.0
13153,53.0,30,60,4.0,0.0
13154,74.0,0,40,0.0,0.0
13155,53.0,15,40,3.0,0.0
13156,74.0,0,40,1.0,0.0
13157,52.0,0,30,3.0,0.0
13158,65.0,0,40,2.0,0.0
13159,65.0,0,60,4.0,0.0
13160,52.0,15,30,4.0,0.0
13161,65.0,15,40,0.0,0.0
13162,65.0,0,40,1.0,0.0
13163,50.0,45,30,4.0,0.0
13164,50.0,0,30,3.0,0.0
13165,67.0,0,40,0.0,0.0
13166,62.0,15,40,2.0,0.0
13167,58.0,0,40,3.0,0.0
13168,67.0,30,60,4.0,0.0
13169,58.0,0,60,4.0,0.0
13170,67.0,0,40,1.0,0.0
13171,67.0,0,40,2.0,0.0
13172,57.0,0,30,4.0,0.0
13173,57.0,15,30,3.0,0.0
13174,74.0,15,40,1.0,0.0
13175,74.0,0,40,0.0,0.0
13176,74.0,45,60,4.0,0.0
13177,55.0,0,30,4.0,0.0
13178,55.0,0,30,3.0,0.0
13179,64.0,0,40,2.0,0.0
13180,57.0,0,40,3.0,0.0
13181,69.0,0,40,1.0,0.0
13182,69.0,0,60,4.0,0.0
13183,69.0,15,40,0.0,0.0
13184,57.0,45,60,4.0,0.0
13185,73.0,0,40,1.0,0.0
13186,69.0,15,40,2.0,0.0
13187,45.0,0,60,4.0,0.0
13188,73.0,0,40,0.0,0.0
13189,45.0,0,40,3.0,0.0
13190,73.0,45,60,4.0,0.0
13191,46.0,30,120,3.0,0.0
13192,62.0,15,40,2.0,0.0
13193,62.0,30,1620,1.0,0.0
13194,62.0,30,60,4.0,0.0
13195,62.0,0,1620,0.0,0.0
13196,46.0,0,120,4.0,0.0
13197,60.0,0,30,2.0,0.0
13198,60.0,30,30,4.0,0.0
13199,58.0,0,30,4.0,0.0
13200,58.0,0,30,2.0,0.0
13201,57.0,15,40,2.0,0.0
13202,57.0,15,30,4.0,0.0
13203,62.0,30,30,4.0,0.0
13204,46.0,15,40,3.0,0.0
13205,55.0,15,30,4.0,0.0
13206,55.0,0,40,2.0,0.0
13207,46.0,30,60,4.0,0.0
13208,62.0,0,30,4.0,0.0
13209,53.0,0,40,2.0,0.0
13210,45.0,15,40,3.0,0.0
13211,53.0,15,30,4.0,0.0
13212,45.0,30,60,4.0,0.0
13213,62.0,0,30,4.0,0.0
13214,43.0,15,40,3.0,0.0
13215,52.0,0,40,2.0,0.0
13216,43.0,0,60,4.0,0.0
13217,52.0,15,30,4.0,0.0
13218,62.0,30,30,4.0,0.0
13219,41.0,30,120,3.0,0.0
13220,41.0,0,120,4.0,0.0
13221,50.0,15,30,4.0,0.0
13222,57.0,15,40,2.0,0.0
13223,53.0,30,30,4.0,0.0
13224,57.0,15,30,4.0,0.0
13225,50.0,15,40,2.0,0.0
13226,61.0,0,30,4.0,0.0
13227,62.0,15,40,2.0,0.0
13228,62.0,15,30,4.0,0.0
13229,58.0,30,30,4.0,0.0
13230,62.0,15,40,2.0,0.0
13231,38.0,0,30,4.0,0.0
13232,57.0,15,30,4.0,0.0
13233,38.0,0,30,3.0,0.0
13234,55.0,0,30,4.0,0.0
13235,40.0,30,30,4.0,0.0
13236,40.0,0,30,3.0,0.0
13237,41.0,15,40,3.0,0.0
13238,62.0,15,30,4.0,0.0
13239,62.0,0,40,2.0,0.0
13240,57.0,30,30,4.0,0.0
13241,55.0,0,30,4.0,0.0
13242,41.0,0,15,4.0,0.0
13243,62.0,15,40,2.0,0.0
13244,41.0,15,30,3.0,0.0
13245,43.0,30,30,4.0,0.0
13246,43.0,0,30,3.0,0.0
13247,53.0,0,30,4.0,0.0
13248,45.0,30,120,3.0,0.0
13249,45.0,0,120,4.0,0.0
13250,52.0,15,30,4.0,0.0
13251,62.0,15,40,2.0,0.0
13252,62.0,30,30,4.0,0.0
13253,60.0,0,30,4.0,0.0
13254,60.0,30,30,2.0,0.0
13255,58.0,0,30,2.0,0.0
13256,58.0,0,30,4.0,0.0
13257,60.0,15,40,2.0,0.0
13258,60.0,15,30,4.0,0.0
13259,54.0,30,30,4.0,0.0
13260,45.0,0,30,4.0,0.0
13261,57.0,0,30,4.0,0.0
13262,45.0,0,30,3.0,0.0
13263,57.0,30,30,2.0,0.0
13264,43.0,0,30,3.0,0.0
13265,58.0,30,30,2.0,0.0
13266,58.0,0,30,4.0,0.0
13267,43.0,0,30,4.0,0.0
13268,42.0,30,60,4.0,0.0
13269,60.0,15,30,4.0,0.0
13270,42.0,0,40,3.0,0.0
13271,60.0,15,40,2.0,0.0
13272,57.0,0,30,4.0,0.0
13273,60.0,15,40,2.0,0.0
13274,55.0,0,30,4.0,0.0
13275,40.0,0,30,3.0,0.0
13276,40.0,15,30,4.0,0.0
13277,38.0,0,30,3.0,0.0
13278,38.0,0,30,4.0,0.0
13279,54.0,30,30,4.0,0.0
13280,55.0,15,30,4.0,0.0
13281,43.0,0,40,3.0,0.0
13282,60.0,15,40,2.0,0.0
13283,43.0,0,60,4.0,0.0
13284,60.0,30,30,4.0,0.0
13285,58.0,0,30,2.0,0.0
13286,50.0,15,40,3.0,0.0
13287,50.0,0,60,4.0,0.0
13288,58.0,15,30,4.0,0.0
13289,57.0,0,30,2.0,0.0
13290,57.0,30,30,4.0,0.0
13291,55.0,0,60,4.0,0.0
13292,58.0,15,30,4.0,0.0
13293,58.0,0,40,2.0,0.0
13294,55.0,15,40,3.0,0.0
13295,62.0,30,30,4.0,0.0
13296,58.0,0,30,4.0,0.0
13297,55.0,15,40,3.0,0.0
13298,55.0,15,30,2.0,0.0
13299,57.0,30,30,4.0,0.0
13300,57.0,0,30,2.0,0.0
13301,58.0,15,40,2.0,0.0
13302,58.0,15,30,4.0,0.0
13303,55.0,0,40,3.0,0.0
13304,55.0,0,15,4.0,0.0
13305,62.0,0,30,4.0,0.0
13306,58.0,15,40,2.0,0.0
13307,53.0,0,30,4.0,0.0
13308,67.0,0,30,4.0,0.0
13309,53.0,15,30,3.0,0.0
13310,52.0,0,30,4.0,0.0
13311,61.0,0,30,4.0,0.0
13312,52.0,30,30,3.0,0.0
13313,62.0,15,30,4.0,0.0
13314,58.0,0,40,2.0,0.0
13315,53.0,15,40,3.0,0.0
13316,58.0,0,30,4.0,0.0
13317,53.0,30,30,3.0,0.0
13318,57.0,0,30,2.0,0.0
13319,57.0,0,30,4.0,0.0
13320,53.0,30,15,4.0,0.0
13321,52.0,0,30,3.0,0.0
13322,55.0,0,30,2.0,0.0
13323,55.0,0,30,4.0,0.0
13324,52.0,45,30,4.0,0.0
13325,57.0,0,40,2.0,0.0
13326,53.0,0,60,4.0,0.0
13327,57.0,0,60,4.0,0.0
13328,53.0,15,40,3.0,0.0
13329,74.0,0,30,4.0,0.0
13330,74.0,0,30,1.0,0.0
13331,74.0,0,30,0.0,0.0
13332,50.0,0,30,4.0,0.0
13333,65.0,30,30,2.0,0.0
13334,50.0,0,30,3.0,0.0
13335,76.0,0,30,1.0,0.0
13336,49.0,0,30,3.0,0.0
13337,76.0,0,30,0.0,0.0
13338,64.0,0,30,2.0,0.0
13339,49.0,0,30,4.0,0.0
13340,76.0,30,30,4.0,0.0
13341,62.0,15,30,2.0,0.0
13342,50.0,30,60,4.0,0.0
13343,77.0,0,30,4.0,0.0
13344,50.0,0,40,3.0,0.0
13345,77.0,15,40,1.0,0.0
13346,77.0,0,40,0.0,0.0
13347,74.0,0,30,4.0,0.0
13348,60.0,0,30,2.0,0.0
13349,52.0,0,30,3.0,0.0
13350,58.0,0,30,2.0,0.0
13351,52.0,0,30,4.0,0.0
13352,79.0,0,30,4.0,0.0
13353,79.0,0,30,1.0,0.0
13354,79.0,30,30,0.0,0.0
13355,53.0,0,30,4.0,0.0
13356,57.0,0,30,2.0,0.0
13357,81.0,30,30,4.0,0.0
13358,53.0,0,30,3.0,0.0
13359,81.0,0,30,1.0,0.0
13360,81.0,0,30,0.0,0.0
13361,82.0,15,40,1.0,0.0
13362,55.0,0,40,2.0,0.0
13363,82.0,0,40,0.0,0.0
13364,55.0,0,40,3.0,0.0
13365,82.0,15,30,4.0,0.0
13366,55.0,0,60,4.0,0.0
13367,81.0,30,30,4.0,0.0
13368,79.0,0,30,4.0,0.0
13369,79.0,0,30,1.0,0.0
13370,57.0,0,30,4.0,0.0
13371,57.0,0,30,3.0,0.0
13372,70.0,30,30,2.0,0.0
13373,79.0,0,30,0.0,0.0
13374,77.0,0,30,1.0,0.0
13375,69.0,0,30,2.0,0.0
13376,58.0,0,30,4.0,0.0
13377,77.0,30,30,0.0,0.0
13378,58.0,0,30,3.0,0.0
13379,77.0,0,30,4.0,0.0
13380,60.0,30,60,4.0,0.0
13381,76.0,0,30,4.0,0.0
13382,76.0,15,40,1.0,0.0
13383,60.0,0,40,3.0,0.0
13384,67.0,15,30,2.0,0.0
13385,76.0,0,40,0.0,0.0
13386,74.0,0,30,4.0,0.0
13387,65.0,0,30,2.0,0.0
13388,72.0,0,30,0.0,0.0
13389,64.0,15,30,2.0,0.0
13390,72.0,0,30,1.0,0.0
13391,58.0,15,40,3.0,0.0
13392,72.0,0,30,4.0,0.0
13393,58.0,0,60,4.0,0.0
13394,74.0,0,30,1.0,0.0
13395,62.0,0,30,2.0,0.0
13396,74.0,30,30,0.0,0.0
13397,74.0,0,30,4.0,0.0
13398,60.0,15,40,2.0,0.0
13399,57.0,0,40,3.0,0.0
13400,76.0,0,40,1.0,0.0
13401,57.0,30,60,4.0,0.0
13402,76.0,15,30,4.0,0.0
13403,76.0,0,40,0.0,0.0
13404,72.0,0,30,4.0,0.0
13405,77.0,0,30,0.0,0.0
13406,58.0,15,40,2.0,0.0
13407,77.0,0,30,1.0,0.0
13408,55.0,0,40,3.0,0.0
13409,55.0,0,60,4.0,0.0
13410,77.0,15,30,4.0,0.0
13411,79.0,30,30,1.0,0.0
13412,79.0,0,30,0.0,0.0
13413,79.0,0,30,4.0,0.0
13414,53.0,15,40,3.0,0.0
13415,81.0,0,40,0.0,0.0
13416,53.0,30,60,4.0,0.0
13417,81.0,15,30,4.0,0.0
13418,81.0,0,40,1.0,0.0
13419,57.0,0,40,2.0,0.0
13420,79.0,0,30,4.0,0.0
13421,77.0,30,30,1.0,0.0
13422,59.0,0,30,2.0,0.0
13423,55.0,0,30,3.0,0.0
13424,55.0,0,30,4.0,0.0
13425,77.0,0,30,4.0,0.0
13426,77.0,0,30,0.0,0.0
13427,57.0,0,30,3.0,0.0
13428,76.0,30,30,0.0,0.0
13429,61.0,0,30,2.0,0.0
13430,57.0,0,30,4.0,0.0
13431,76.0,0,30,4.0,0.0
13432,76.0,0,30,1.0,0.0
13433,58.0,15,40,3.0,0.0
13434,74.0,0,60,1.0,0.0
13435,58.0,0,60,4.0,0.0
13436,74.0,0,60,0.0,0.0
13437,62.0,30,60,2.0,0.0
13438,74.0,15,30,4.0,0.0
13439,72.0,0,30,4.0,0.0
13440,62.0,30,30,3.0,0.0
13441,62.0,0,30,4.0,0.0
13442,70.0,0,30,4.0,0.0
13443,61.0,0,30,3.0,0.0
13444,61.0,0,30,4.0,0.0
13445,69.0,30,30,4.0,0.0
13446,62.0,15,40,3.0,0.0
13447,70.0,15,30,4.0,0.0
13448,62.0,30,60,4.0,0.0
13449,74.0,0,30,4.0,0.0
13450,67.0,15,30,4.0,0.0
13451,58.0,0,60,4.0,0.0
13452,58.0,15,40,3.0,0.0
13453,70.0,30,30,4.0,0.0
13454,70.0,0,120,1.0,0.0
13455,63.0,30,30,4.0,0.0
13456,55.0,0,60,4.0,0.0
13457,70.0,0,120,0.0,0.0
13458,67.0,0,120,2.0,0.0
13459,55.0,30,60,3.0,0.0
13460,75.0,0,30,4.0,0.0
13461,54.0,0,60,3.0,0.0
13462,54.0,0,60,4.0,0.0
13463,74.0,30,30,4.0,0.0
13464,75.0,30,30,4.0,0.0
13465,70.0,15,30,4.0,0.0
13466,55.0,0,60,4.0,0.0
13467,55.0,15,40,3.0,0.0
13468,75.0,30,30,4.0,0.0
13469,74.0,0,30,4.0,0.0
13470,58.0,0,30,4.0,0.0
13471,58.0,30,30,3.0,0.0
13472,57.0,0,30,4.0,0.0
13473,75.0,0,30,4.0,0.0
13474,57.0,30,30,3.0,0.0
13475,58.0,15,40,3.0,0.0
13476,58.0,30,60,4.0,0.0
13477,67.0,15,30,4.0,0.0
13478,70.0,0,30,4.0,0.0
13479,55.0,0,60,4.0,0.0
13480,55.0,15,40,3.0,0.0
13481,75.0,15,30,4.0,0.0
13482,70.0,30,30,4.0,0.0
13483,75.0,0,120,0.0,0.0
13484,79.0,30,30,4.0,0.0
13485,51.0,30,60,3.0,0.0
13486,51.0,0,60,4.0,0.0
13487,58.0,0,120,2.0,0.0
13488,70.0,0,120,1.0,0.0
13489,70.0,0,30,4.0,0.0
13490,78.0,30,30,4.0,0.0
13491,50.0,0,60,4.0,0.0
13492,50.0,30,60,3.0,0.0
13493,70.0,0,30,4.0,0.0
13494,51.0,0,60,4.0,0.0
13495,79.0,15,30,4.0,0.0
13496,51.0,15,40,3.0,0.0
13497,75.0,30,30,4.0,0.0
13498,70.0,0,30,4.0,0.0
13499,55.0,30,30,4.0,0.0
13500,55.0,0,30,3.0,0.0
13501,54.0,0,30,4.0,0.0
13502,69.0,0,30,4.0,0.0
13503,54.0,30,30,3.0,0.0
13504,55.0,0,60,4.0,0.0
13505,70.0,15,30,4.0,0.0
13506,55.0,15,40,3.0,0.0
13507,75.0,30,30,4.0,0.0
13508,51.0,15,40,3.0,0.0
13509,79.0,15,30,4.0,0.0
13510,51.0,0,60,4.0,0.0
13511,75.0,45,30,4.0,0.0
13512,49.0,0,60,4.0,0.0
13513,49.0,15,40,3.0,0.0
13514,82.0,30,15,4.0,0.0
13515,82.0,0,30,0.0,0.0
13516,70.0,0,30,2.0,0.0
13517,82.0,0,30,1.0,0.0
13518,58.0,30,30,3.0,0.0
13519,58.0,0,30,4.0,0.0
13520,57.0,0,30,4.0,0.0
13521,81.0,0,30,1.0,0.0
13522,57.0,0,30,3.0,0.0
13523,81.0,0,30,0.0,0.0
13524,69.0,0,30,2.0,0.0
13525,81.0,45,30,4.0,0.0
13526,82.0,15,40,1.0,0.0
13527,58.0,0,40,3.0,0.0
13528,82.0,30,60,4.0,0.0
13529,58.0,0,60,4.0,0.0
13530,82.0,0,40,0.0,0.0
13531,70.0,0,40,2.0,0.0
13532,67.0,0,30,2.0,0.0
13533,79.0,0,30,0.0,0.0
13534,79.0,0,30,1.0,0.0
13535,55.0,0,30,3.0,0.0
13536,55.0,30,30,4.0,0.0
13537,79.0,0,30,4.0,0.0
13538,78.0,0,30,1.0,0.0
13539,66.0,0,30,2.0,0.0
13540,78.0,0,30,0.0,0.0
13541,78.0,0,30,4.0,0.0
13542,54.0,0,30,4.0,0.0
13543,54.0,45,30,3.0,0.0
13544,55.0,45,60,4.0,0.0
13545,79.0,0,40,1.0,0.0
13546,79.0,15,40,0.0,0.0
13547,79.0,0,60,4.0,0.0
13548,67.0,0,40,2.0,0.0
13549,55.0,0,40,3.0,0.0
13550,64.0,0,40,2.0,0.0
13551,73.0,0,40,0.0,0.0
13552,73.0,45,60,4.0,0.0
13553,43.0,0,40,3.0,0.0
13554,73.0,15,40,1.0,0.0
13555,43.0,0,60,4.0,0.0
13556,74.0,0,40,1.0,0.0
13557,74.0,0,60,4.0,0.0
13558,41.0,0,40,3.0,0.0
13559,41.0,30,60,4.0,0.0
13560,69.0,0,40,2.0,0.0
13561,74.0,15,40,0.0,0.0
13562,65.0,0,40,1.0,0.0
13563,65.0,0,40,2.0,0.0
13564,65.0,15,40,0.0,0.0
13565,40.0,0,30,4.0,0.0
13566,65.0,0,60,4.0,0.0
13567,40.0,15,30,3.0,0.0
13568,38.0,0,30,4.0,0.0
13569,38.0,45,30,3.0,0.0
13570,46.0,30,60,4.0,0.0
13571,67.0,0,60,4.0,0.0
13572,67.0,0,40,1.0,0.0
13573,46.0,15,40,3.0,0.0
13574,67.0,0,40,0.0,0.0
13575,62.0,0,40,2.0,0.0
13576,45.0,0,30,4.0,0.0
13577,74.0,15,40,0.0,0.0
13578,74.0,0,40,1.0,0.0
13579,45.0,15,30,3.0,0.0
13580,67.0,0,40,2.0,0.0
13581,74.0,45,60,4.0,0.0
13582,43.0,0,30,4.0,0.0
13583,43.0,0,30,3.0,0.0
13584,69.0,15,40,1.0,0.0
13585,45.0,0,40,3.0,0.0
13586,69.0,45,60,4.0,0.0
13587,64.0,0,40,2.0,0.0
13588,45.0,0,60,4.0,0.0
13589,69.0,0,40,0.0,0.0
13590,73.0,0,40,0.0,0.0
13591,73.0,0,60,4.0,0.0
13592,45.0,0,40,3.0,0.0
13593,33.0,30,60,4.0,0.0
13594,73.0,0,40,1.0,0.0
13595,69.0,15,40,2.0,0.0
13596,38.0,0,120,3.0,0.0
13597,65.0,0,120,2.0,0.0
13598,74.0,0,120,1.0,0.0
13599,74.0,0,120,0.0,0.0
13600,62.0,30,30,4.0,0.0
13601,38.0,30,120,4.0,0.0
13602,64.0,30,30,4.0,0.0
13603,65.0,30,30,4.0,0.0
13604,67.0,0,30,4.0,0.0
13605,69.0,30,30,4.0,0.0
13606,71.0,30,30,4.0,0.0
13607,73.0,30,30,4.0,0.0
13608,74.0,30,30,4.0,0.0
13609,69.0,30,30,4.0,0.0
13610,74.0,30,30,4.0,0.0
13611,65.0,30,30,4.0,0.0
13612,69.0,60,30,4.0,0.0
13613,62.0,0,120,4.0,0.0
13614,50.0,0,120,4.0,0.0
13615,38.0,30,120,3.0,0.0
13616,86.0,30,30,4.0,0.0
13617,81.0,30,30,4.0,0.0
13618,86.0,0,30,4.0,0.0
13619,77.0,30,30,4.0,0.0
13620,81.0,30,30,4.0,0.0
13621,74.0,30,30,4.0,0.0
13622,77.0,30,30,4.0,0.0
13623,69.0,30,30,4.0,0.0
13624,74.0,30,30,4.0,0.0
13625,65.0,30,30,4.0,0.0
13626,69.0,30,30,4.0,0.0
13627,38.0,30,120,3.0,0.0
13628,62.0,30,30,4.0,0.0
13629,62.0,30,30,4.0,0.0
13630,69.0,30,30,4.0,0.0
13631,62.0,0,30,4.0,0.0
13632,64.0,30,30,4.0,0.0
13633,62.0,30,30,4.0,0.0
13634,69.0,30,30,4.0,0.0
13635,62.0,30,30,4.0,0.0
13636,65.0,30,30,4.0,0.0
13637,62.0,30,30,4.0,0.0
13638,69.0,30,30,4.0,0.0
13639,62.0,30,30,4.0,0.0
13640,67.0,30,30,4.0,0.0
13641,62.0,30,30,4.0,0.0
13642,69.0,30,30,4.0,0.0
13643,62.0,30,30,4.0,0.0
13644,65.0,30,30,4.0,0.0
13645,62.0,30,30,4.0,0.0
13646,69.0,30,30,4.0,0.0
13647,62.0,30,30,4.0,0.0
13648,64.0,30,30,4.0,0.0
13649,62.0,30,30,4.0,0.0
13650,69.0,30,30,4.0,0.0
13651,62.0,30,15,4.0,0.0
13652,38.0,0,120,3.0,0.0
13653,62.0,30,30,4.0,0.0
13654,69.0,30,30,4.0,0.0
13655,62.0,30,30,4.0,0.0
13656,64.0,30,30,4.0,0.0
13657,62.0,30,30,4.0,0.0
13658,69.0,30,30,4.0,0.0
13659,62.0,30,30,4.0,0.0
13660,65.0,30,30,4.0,0.0
13661,62.0,30,30,4.0,0.0
13662,69.0,30,30,4.0,0.0
13663,62.0,30,30,4.0,0.0
13664,67.0,30,30,4.0,0.0
13665,62.0,30,30,4.0,0.0
13666,69.0,30,30,4.0,0.0
13667,62.0,30,30,4.0,0.0
13668,65.0,30,30,4.0,0.0
13669,62.0,30,30,4.0,0.0
13670,69.0,30,30,4.0,0.0
13671,62.0,30,30,4.0,0.0
13672,64.0,30,30,4.0,0.0
13673,62.0,30,30,4.0,0.0
13674,69.0,30,30,4.0,0.0
13675,62.0,60,30,4.0,0.0
13676,62.0,0,60,4.0,0.0
13677,38.0,30,120,3.0,0.0
13678,74.0,30,30,4.0,0.0
13679,74.0,15,40,2.0,0.0
13680,65.0,0,60,4.0,0.0
13681,69.0,15,30,4.0,0.0
13682,74.0,0,30,4.0,0.0
13683,73.0,15,40,2.0,0.0
13684,64.0,0,60,4.0,0.0
13685,67.0,15,30,4.0,0.0
13686,73.0,30,30,4.0,0.0
13687,69.0,15,30,4.0,0.0
13688,65.0,0,60,4.0,0.0
13689,74.0,15,40,2.0,0.0
13690,74.0,30,30,4.0,0.0
13691,70.0,15,30,4.0,0.0
13692,67.0,30,60,4.0,0.0
13693,76.0,15,40,2.0,0.0
13694,76.0,0,30,4.0,0.0
13695,64.0,0,60,4.0,0.0
13696,73.0,15,40,2.0,0.0
13697,67.0,15,30,4.0,0.0
13698,73.0,30,30,4.0,0.0
13699,74.0,15,40,2.0,0.0
13700,69.0,15,30,4.0,0.0
13701,74.0,45,15,4.0,0.0
13702,65.0,0,15,4.0,0.0
13703,62.0,0,60,4.0,0.0
13704,74.0,0,40,1.0,0.0
13705,65.0,15,40,2.0,0.0
13706,77.0,0,30,4.0,0.0
13707,64.0,0,60,4.0,0.0
13708,67.0,0,60,4.0,0.0
13709,67.0,0,40,2.0,0.0
13710,69.0,45,15,4.0,0.0
13711,73.0,0,60,4.0,0.0
13712,73.0,15,40,1.0,0.0
13713,76.0,45,30,4.0,0.0
13714,74.0,0,60,4.0,0.0
13715,65.0,15,40,2.0,0.0
13716,74.0,0,40,1.0,0.0
13717,62.0,0,60,4.0,0.0
13718,65.0,0,60,4.0,0.0
13719,69.0,0,60,4.0,0.0
13720,77.0,45,30,4.0,0.0
13721,61.0,45,60,4.0,0.0
13722,69.0,0,60,4.0,0.0
13723,76.0,0,60,4.0,0.0
13724,64.0,15,40,2.0,0.0
13725,64.0,0,60,4.0,0.0
13726,76.0,0,40,1.0,0.0
13727,79.0,0,30,4.0,0.0
13728,67.0,0,40,2.0,0.0
13729,73.0,15,40,1.0,0.0
13730,64.0,0,60,4.0,0.0
13731,73.0,0,60,4.0,0.0
13732,67.0,0,60,4.0,0.0
13733,76.0,30,30,4.0,0.0
13734,69.0,0,15,4.0,0.0
13735,65.0,15,40,2.0,0.0
13736,77.0,0,30,4.0,0.0
13737,74.0,15,30,4.0,0.0
13738,57.0,0,30,4.0,0.0
13739,50.0,0,30,4.0,0.0
13740,74.0,0,40,1.0,0.0
13741,62.0,30,30,4.0,0.0
13742,50.0,30,30,3.0,0.0
13743,65.0,0,30,4.0,0.0
13744,52.0,30,30,3.0,0.0
13745,69.0,0,30,4.0,0.0
13746,74.0,15,30,4.0,0.0
13747,53.0,15,40,3.0,0.0
13748,69.0,30,30,4.0,0.0
13749,52.0,15,40,3.0,0.0
13750,74.0,15,30,4.0,0.0
13751,77.0,30,30,4.0,0.0
13752,81.0,15,30,4.0,0.0
13753,50.0,15,40,3.0,0.0
13754,79.0,30,30,4.0,0.0
13755,48.0,15,40,3.0,0.0
13756,77.0,15,30,4.0,0.0
13757,76.0,30,30,4.0,0.0
13758,74.0,30,30,4.0,0.0
13759,47.0,15,120,3.0,0.0
13760,47.0,0,30,4.0,0.0
13761,72.0,30,30,4.0,0.0
13762,71.0,15,30,4.0,0.0
13763,48.0,0,30,4.0,0.0
13764,50.0,0,30,4.0,0.0
13765,69.0,30,30,4.0,0.0
13766,68.0,30,30,4.0,0.0
13767,56.0,0,120,3.0,0.0
13768,52.0,0,60,4.0,0.0
13769,66.0,30,30,4.0,0.0
13770,64.0,30,30,4.0,0.0
13771,47.0,30,60,4.0,0.0
13772,62.0,0,30,4.0,0.0
13773,60.0,30,30,4.0,0.0
13774,40.0,0,120,4.0,0.0
13775,59.0,30,30,4.0,0.0
13776,50.0,0,60,4.0,0.0
13777,57.0,30,30,4.0,0.0
13778,56.0,30,30,4.0,0.0
13779,45.0,0,120,3.0,0.0
13780,57.0,30,30,4.0,0.0
13781,48.0,0,120,4.0,0.0
13782,45.0,30,120,4.0,0.0
13783,59.0,30,30,4.0,0.0
13784,60.0,30,30,4.0,0.0
13785,62.0,0,30,4.0,0.0
13786,64.0,30,30,4.0,0.0
13787,66.0,30,30,4.0,0.0
13788,68.0,30,30,4.0,0.0
13789,69.0,30,30,4.0,0.0
13790,64.0,30,30,4.0,0.0
13791,69.0,30,30,4.0,0.0
13792,60.0,30,30,4.0,0.0
13793,64.0,60,30,4.0,0.0
13794,33.0,30,120,4.0,0.0
13795,45.0,0,120,4.0,0.0
13796,45.0,0,120,3.0,0.0
13797,81.0,30,30,4.0,0.0
13798,76.0,30,30,4.0,0.0
13799,81.0,0,30,4.0,0.0
13800,72.0,30,30,4.0,0.0
13801,76.0,30,30,4.0,0.0
13802,69.0,30,30,4.0,0.0
13803,72.0,30,30,4.0,0.0
13804,64.0,30,30,4.0,0.0
13805,69.0,30,30,4.0,0.0
13806,60.0,30,30,4.0,0.0
13807,64.0,30,30,4.0,0.0
13808,57.0,30,30,4.0,0.0
13809,45.0,30,120,3.0,0.0
13810,57.0,30,30,4.0,0.0
13811,64.0,30,30,4.0,0.0
13812,57.0,0,30,4.0,0.0
13813,59.0,30,30,4.0,0.0
13814,57.0,30,30,4.0,0.0
13815,64.0,30,30,4.0,0.0
13816,57.0,30,30,4.0,0.0
13817,60.0,30,30,4.0,0.0
13818,57.0,30,30,4.0,0.0
13819,64.0,30,30,4.0,0.0
13820,57.0,30,30,4.0,0.0
13821,62.0,30,30,4.0,0.0
13822,57.0,30,30,4.0,0.0
13823,64.0,30,30,4.0,0.0
13824,57.0,30,30,4.0,0.0
13825,60.0,30,30,4.0,0.0
13826,57.0,30,30,4.0,0.0
13827,64.0,30,30,4.0,0.0
13828,57.0,30,30,4.0,0.0
13829,59.0,30,30,4.0,0.0
13830,57.0,30,30,4.0,0.0
13831,64.0,30,30,4.0,0.0
13832,57.0,30,30,4.0,0.0
13833,45.0,0,120,3.0,0.0
13834,57.0,30,15,4.0,0.0
13835,64.0,30,30,4.0,0.0
13836,57.0,30,30,4.0,0.0
13837,59.0,30,30,4.0,0.0
13838,57.0,30,30,4.0,0.0
13839,64.0,30,30,4.0,0.0
13840,57.0,30,30,4.0,0.0
13841,60.0,30,30,4.0,0.0
13842,57.0,30,30,4.0,0.0
13843,64.0,30,30,4.0,0.0
13844,57.0,30,30,4.0,0.0
13845,62.0,30,30,4.0,0.0
13846,57.0,30,30,4.0,0.0
13847,64.0,30,30,4.0,0.0
13848,57.0,30,30,4.0,0.0
13849,60.0,30,30,4.0,0.0
13850,57.0,30,30,4.0,0.0
13851,64.0,30,30,4.0,0.0
13852,57.0,30,30,4.0,0.0
13853,59.0,30,30,4.0,0.0
13854,57.0,30,30,4.0,0.0
13855,64.0,30,30,4.0,0.0
13856,57.0,60,30,4.0,0.0
13857,45.0,30,120,3.0,0.0
13858,57.0,30,60,4.0,0.0
13859,81.0,0,30,4.0,0.0
13860,76.0,15,30,4.0,0.0
13861,72.0,0,60,4.0,0.0
13862,81.0,15,40,0.0,0.0
13863,81.0,0,30,4.0,0.0
13864,74.0,15,30,4.0,0.0
13865,80.0,15,40,0.0,0.0
13866,71.0,30,60,4.0,0.0
13867,80.0,0,30,4.0,0.0
13868,72.0,30,60,4.0,0.0
13869,76.0,15,30,4.0,0.0
13870,81.0,15,40,0.0,0.0
13871,81.0,0,30,4.0,0.0
13872,74.0,0,60,4.0,0.0
13873,77.0,15,30,4.0,0.0
13874,83.0,15,40,0.0,0.0
13875,83.0,30,30,4.0,0.0
13876,71.0,30,60,4.0,0.0
13877,74.0,15,30,4.0,0.0
13878,80.0,15,40,0.0,0.0
13879,80.0,0,30,4.0,0.0
13880,81.0,15,40,0.0,0.0
13881,76.0,15,30,4.0,0.0
13882,72.0,45,60,4.0,0.0
13883,81.0,0,30,4.0,0.0
13884,72.0,15,40,0.0,0.0
13885,69.0,0,40,1.0,0.0
13886,69.0,0,60,4.0,0.0
13887,72.0,0,60,4.0,0.0
13888,81.0,0,60,4.0,0.0
13889,84.0,0,30,4.0,0.0
13890,71.0,45,60,4.0,0.0
13891,74.0,0,60,4.0,0.0
13892,76.0,45,15,4.0,0.0
13893,80.0,0,60,4.0,0.0
13894,74.0,0,40,0.0,0.0
13895,68.0,15,40,1.0,0.0
13896,83.0,0,30,4.0,0.0
13897,72.0,15,40,0.0,0.0
13898,69.0,0,40,1.0,0.0
13899,72.0,0,60,4.0,0.0
13900,76.0,0,15,4.0,0.0
13901,69.0,0,60,4.0,0.0
13902,81.0,45,60,4.0,0.0
13903,84.0,0,30,4.0,0.0
13904,71.0,15,40,1.0,0.0
13905,71.0,0,40,0.0,0.0
13906,68.0,45,60,4.0,0.0
13907,83.0,0,60,4.0,0.0
13908,71.0,0,60,4.0,0.0
13909,86.0,0,30,4.0,0.0
13910,68.0,0,40,1.0,0.0
13911,80.0,30,60,4.0,0.0
13912,74.0,0,60,4.0,0.0
13913,71.0,0,60,4.0,0.0
13914,74.0,15,40,0.0,0.0
13915,76.0,0,60,4.0,0.0
13916,83.0,0,30,4.0,0.0
13917,69.0,0,120,1.0,0.0
13918,84.0,0,30,4.0,0.0
13919,72.0,30,120,0.0,0.0
13920,81.0,0,30,4.0,0.0
13921,69.0,0,30,4.0,0.0
13922,72.0,30,30,4.0,0.0
13923,76.0,0,30,4.0,0.0
13924,57.0,30,30,4.0,0.0
13925,57.0,30,30,3.0,0.0
13926,60.0,0,30,4.0,0.0
13927,64.0,0,30,4.0,0.0
13928,59.0,0,30,3.0,0.0
13929,60.0,15,40,3.0,0.0
13930,69.0,15,30,4.0,0.0
13931,64.0,30,30,4.0,0.0
13932,69.0,15,30,4.0,0.0
13933,59.0,15,40,3.0,0.0
13934,72.0,30,30,4.0,0.0
13935,76.0,15,30,4.0,0.0
13936,57.0,15,40,3.0,0.0
13937,74.0,30,30,4.0,0.0
13938,55.0,15,40,3.0,0.0
13939,72.0,15,30,4.0,0.0
13940,71.0,30,30,4.0,0.0
13941,69.0,30,30,4.0,0.0
13942,54.0,15,120,3.0,0.0
13943,42.0,30,30,4.0,0.0
13944,67.0,0,30,4.0,0.0
13945,43.0,15,30,4.0,0.0
13946,66.0,0,30,4.0,0.0
13947,45.0,30,30,4.0,0.0
13948,64.0,0,30,4.0,0.0
13949,47.0,0,60,4.0,0.0
13950,63.0,30,30,4.0,0.0
13951,63.0,30,120,3.0,0.0
13952,61.0,30,30,4.0,0.0
13953,42.0,0,60,4.0,0.0
13954,59.0,30,30,4.0,0.0
13955,57.0,0,30,4.0,0.0
13956,35.0,30,120,4.0,0.0
13957,55.0,30,30,4.0,0.0
13958,54.0,30,30,4.0,0.0
13959,45.0,0,60,4.0,0.0
13960,52.0,30,30,4.0,0.0
13961,51.0,0,30,4.0,0.0
13962,52.0,30,30,4.0,0.0
13963,47.0,0,120,4.0,0.0
13964,43.0,0,120,4.0,0.0
13965,40.0,0,120,4.0,0.0
13966,52.0,30,120,3.0,0.0
13967,54.0,30,30,4.0,0.0
13968,55.0,30,30,4.0,0.0
13969,57.0,0,30,4.0,0.0
13970,59.0,30,30,4.0,0.0
13971,61.0,30,30,4.0,0.0
13972,63.0,30,30,4.0,0.0
13973,64.0,30,30,4.0,0.0
13974,59.0,30,30,4.0,0.0
13975,64.0,30,30,4.0,0.0
13976,55.0,30,30,4.0,0.0
13977,59.0,60,30,4.0,0.0
13978,52.0,0,120,4.0,0.0
13979,47.0,0,120,4.0,0.0
13980,40.0,30,120,4.0,0.0
13981,43.0,0,120,4.0,0.0
13982,76.0,30,30,4.0,0.0
13983,71.0,30,30,4.0,0.0
13984,76.0,0,30,4.0,0.0
13985,67.0,30,30,4.0,0.0
13986,71.0,30,30,4.0,0.0
13987,64.0,30,30,4.0,0.0
13988,67.0,30,30,4.0,0.0
13989,59.0,30,30,4.0,0.0
13990,64.0,30,30,4.0,0.0
13991,55.0,30,30,4.0,0.0
13992,59.0,30,30,4.0,0.0
13993,52.0,30,30,4.0,0.0
13994,64.0,30,30,4.0,0.0
13995,67.0,30,30,4.0,0.0
13996,52.0,0,30,3.0,0.0
13997,53.0,30,30,3.0,0.0
13998,71.0,0,30,4.0,0.0
13999,76.0,15,30,4.0,0.0
14000,55.0,15,40,3.0,0.0
14001,71.0,30,30,4.0,0.0
14002,76.0,15,30,4.0,0.0
14003,53.0,15,40,3.0,0.0
14004,79.0,30,30,4.0,0.0
14005,82.0,15,30,4.0,0.0
14006,52.0,15,40,3.0,0.0
14007,81.0,30,30,4.0,0.0
14008,79.0,15,30,4.0,0.0
14009,50.0,15,40,3.0,0.0
14010,77.0,30,30,4.0,0.0
14011,49.0,15,120,3.0,0.0
14012,76.0,30,30,4.0,0.0
14013,77.0,30,30,4.0,0.0
14014,79.0,15,30,4.0,0.0
14015,52.0,30,60,4.0,0.0
14016,77.0,0,30,4.0,0.0
14017,57.0,30,120,3.0,0.0
14018,57.0,30,60,4.0,0.0
14019,76.0,30,30,4.0,0.0
14020,74.0,0,30,4.0,0.0
14021,52.0,0,60,4.0,0.0
14022,73.0,30,30,4.0,0.0
14023,71.0,0,30,4.0,0.0
14024,69.0,30,30,4.0,0.0
14025,67.0,30,30,4.0,0.0
14026,49.0,0,15,4.0,0.0
14027,45.0,0,60,4.0,0.0
14028,65.0,30,30,4.0,0.0
14029,55.0,30,60,4.0,0.0
14030,64.0,0,30,4.0,0.0
14031,50.0,0,120,3.0,0.0
14032,62.0,30,30,4.0,0.0
14033,50.0,30,120,4.0,0.0
14034,53.0,0,120,4.0,0.0
14035,64.0,30,30,4.0,0.0
14036,65.0,30,30,4.0,0.0
14037,67.0,0,30,4.0,0.0
14038,69.0,30,30,4.0,0.0
14039,71.0,30,30,4.0,0.0
14040,73.0,30,30,4.0,0.0
14041,74.0,30,30,4.0,0.0
14042,69.0,30,30,4.0,0.0
14043,74.0,30,30,4.0,0.0
14044,65.0,30,30,4.0,0.0
14045,69.0,60,30,4.0,0.0
14046,62.0,0,120,4.0,0.0
14047,57.0,0,120,4.0,0.0
14048,53.0,0,120,4.0,0.0
14049,50.0,30,120,4.0,0.0
14050,86.0,30,30,4.0,0.0
14051,81.0,0,30,4.0,0.0
14052,50.0,30,30,3.0,0.0
14053,52.0,0,30,3.0,0.0
14054,86.0,0,30,4.0,0.0
14055,53.0,15,40,3.0,0.0
14056,77.0,15,30,4.0,0.0
14057,81.0,30,30,4.0,0.0
14058,74.0,15,30,4.0,0.0
14059,52.0,15,40,3.0,0.0
14060,77.0,30,30,4.0,0.0
14061,50.0,15,40,3.0,0.0
14062,69.0,15,30,4.0,0.0
14063,74.0,30,30,4.0,0.0
14064,48.0,15,40,3.0,0.0
14065,65.0,15,30,4.0,0.0
14066,69.0,60,30,4.0,0.0
14067,50.0,0,120,4.0,0.0
14068,53.0,0,120,4.0,0.0
14069,58.0,30,120,4.0,0.0
14070,60.0,30,30,4.0,0.0
14071,62.0,0,30,4.0,0.0
14072,46.0,30,30,3.0,0.0
14073,63.0,0,30,4.0,0.0
14074,48.0,0,30,3.0,0.0
14075,50.0,15,40,3.0,0.0
14076,65.0,15,30,4.0,0.0
14077,67.0,30,30,4.0,0.0
14078,48.0,15,40,3.0,0.0
14079,69.0,15,30,4.0,0.0
14080,70.0,30,30,4.0,0.0
14081,65.0,15,30,4.0,0.0
14082,46.0,15,40,3.0,0.0
14083,70.0,30,30,4.0,0.0
14084,62.0,15,30,4.0,0.0
14085,45.0,15,40,3.0,0.0
14086,65.0,60,30,4.0,0.0
14087,55.0,30,120,4.0,0.0
14088,50.0,0,120,4.0,0.0
14089,46.0,0,120,4.0,0.0
14090,57.0,30,30,4.0,0.0
14091,43.0,0,30,3.0,0.0
14092,58.0,30,30,4.0,0.0
14093,45.0,0,30,3.0,0.0
14094,60.0,0,30,4.0,0.0
14095,62.0,15,30,4.0,0.0
14096,46.0,15,40,3.0,0.0
14097,64.0,30,30,4.0,0.0
14098,45.0,15,40,3.0,0.0
14099,65.0,15,30,4.0,0.0
14100,67.0,30,30,4.0,0.0
14101,69.0,15,30,4.0,0.0
14102,43.0,15,40,3.0,0.0
14103,70.0,30,30,4.0,0.0
14104,41.0,15,40,3.0,0.0
14105,72.0,15,30,4.0,0.0
14106,74.0,30,30,4.0,0.0
14107,76.0,30,30,4.0,0.0
14108,55.0,0,120,4.0,0.0
14109,48.0,30,120,4.0,0.0
14110,46.0,0,120,4.0,0.0
14111,48.0,0,120,3.0,0.0
14112,77.0,30,30,4.0,0.0
14113,79.0,30,30,4.0,0.0
14114,81.0,0,30,4.0,0.0
14115,82.0,30,30,4.0,0.0
14116,81.0,30,30,4.0,0.0
14117,79.0,30,30,4.0,0.0
14118,77.0,30,30,4.0,0.0
14119,76.0,30,30,4.0,0.0
14120,74.0,30,30,4.0,0.0
14121,72.0,30,30,4.0,0.0
14122,70.0,30,30,4.0,0.0
14123,53.0,15,40,3.0,0.0
14124,69.0,15,30,4.0,0.0
14125,67.0,30,30,4.0,0.0
14126,45.0,15,40,3.0,0.0
14127,45.0,30,60,4.0,0.0
14128,65.0,15,30,4.0,0.0
14129,64.0,0,30,4.0,0.0
14130,46.0,0,60,4.0,0.0
14131,62.0,15,30,4.0,0.0
14132,46.0,15,40,3.0,0.0
14133,60.0,30,30,4.0,0.0
14134,43.0,30,60,4.0,0.0
14135,58.0,15,30,4.0,0.0
14136,53.0,15,40,3.0,0.0
14137,57.0,0,30,4.0,0.0
14138,48.0,15,40,3.0,0.0
14139,48.0,0,60,4.0,0.0
14140,55.0,15,30,4.0,0.0
14141,65.0,30,30,4.0,0.0
14142,52.0,15,40,3.0,0.0
14143,55.0,15,30,4.0,0.0
14144,36.0,30,60,4.0,0.0
14145,64.0,0,30,4.0,0.0
14146,65.0,15,40,0.0,0.0
14147,41.0,0,120,3.0,0.0
14148,65.0,0,40,1.0,0.0
14149,48.0,0,120,4.0,0.0
14150,45.0,0,120,4.0,0.0
14151,41.0,0,120,4.0,0.0
14152,53.0,15,30,4.0,0.0
14153,65.0,30,30,4.0,0.0
14154,64.0,0,30,4.0,0.0
14155,64.0,0,30,1.0,0.0
14156,64.0,30,30,0.0,0.0
14157,62.0,0,30,4.0,0.0
14158,62.0,0,30,1.0,0.0
14159,62.0,45,30,0.0,0.0
14160,60.0,0,60,4.0,0.0
14161,60.0,0,40,1.0,0.0
14162,60.0,15,40,0.0,0.0
14163,57.0,45,30,4.0,0.0
14164,58.0,0,40,0.0,0.0
14165,58.0,15,40,1.0,0.0
14166,58.0,0,60,4.0,0.0
14167,55.0,45,30,4.0,0.0
14168,57.0,15,40,1.0,0.0
14169,57.0,45,60,4.0,0.0
14170,57.0,0,40,0.0,0.0
14171,53.0,0,30,4.0,0.0
14172,55.0,0,60,4.0,0.0
14173,55.0,15,40,0.0,0.0
14174,55.0,0,40,1.0,0.0
14175,52.0,45,30,4.0,0.0
14176,57.0,0,60,4.0,0.0
14177,53.0,30,60,4.0,0.0
14178,57.0,0,40,0.0,0.0
14179,57.0,15,40,1.0,0.0
14180,41.0,0,30,3.0,0.0
14181,60.0,0,40,1.0,0.0
14182,57.0,0,30,2.0,0.0
14183,41.0,15,30,4.0,0.0
14184,60.0,15,40,0.0,0.0
14185,43.0,45,30,3.0,0.0
14186,58.0,0,30,2.0,0.0
14187,43.0,0,30,4.0,0.0
14188,45.0,15,40,3.0,0.0
14189,65.0,0,60,4.0,0.0
14190,60.0,0,40,2.0,0.0
14191,60.0,0,15,4.0,0.0
14192,57.0,0,15,4.0,0.0
14193,65.0,0,40,1.0,0.0
14194,45.0,0,60,4.0,0.0
14195,65.0,0,40,0.0,0.0
14196,43.0,0,30,4.0,0.0
14197,65.0,15,40,0.0,0.0
14198,43.0,15,30,3.0,0.0
14199,65.0,0,60,4.0,0.0
14200,65.0,0,40,1.0,0.0
14201,60.0,45,60,4.0,0.0
14202,58.0,0,30,2.0,0.0
14203,45.0,0,30,4.0,0.0
14204,45.0,0,30,3.0,0.0
14205,60.0,0,30,2.0,0.0
14206,62.0,30,60,4.0,0.0
14207,62.0,0,40,2.0,0.0
14208,57.0,0,15,4.0,0.0
14209,47.0,0,60,4.0,0.0
14210,65.0,0,40,0.0,0.0
14211,65.0,0,40,1.0,0.0
14212,65.0,0,60,4.0,0.0
14213,47.0,15,40,3.0,0.0
14214,65.0,15,40,0.0,0.0
14215,57.0,60,60,4.0,0.0
14216,62.0,0,60,4.0,0.0
14217,65.0,0,60,4.0,0.0
14218,45.0,0,30,4.0,0.0
14219,60.0,15,30,2.0,0.0
14220,65.0,0,40,1.0,0.0
14221,45.0,0,30,3.0,0.0
14222,47.0,0,30,4.0,0.0
14223,47.0,0,30,3.0,0.0
14224,62.0,0,30,2.0,0.0
14225,55.0,0,60,2.0,0.0
14226,64.0,0,60,4.0,0.0
14227,48.0,0,120,3.0,0.0
14228,48.0,30,60,4.0,0.0
14229,55.0,0,60,4.0,0.0
14230,64.0,0,60,1.0,0.0
14231,64.0,0,60,0.0,0.0
14232,52.0,30,60,4.0,0.0
14233,60.0,0,15,4.0,0.0
14234,62.0,0,30,4.0,0.0
14235,64.0,30,30,4.0,0.0
14236,55.0,30,60,4.0,0.0
14237,65.0,0,30,4.0,0.0
14238,67.0,30,30,4.0,0.0
14239,60.0,30,60,4.0,0.0
14240,62.0,0,30,4.0,0.0
14241,64.0,30,30,4.0,0.0
14242,55.0,30,60,4.0,0.0
14243,60.0,0,30,4.0,0.0
14244,67.0,30,30,4.0,0.0
14245,59.0,0,60,4.0,0.0
14246,62.0,60,30,4.0,0.0
14247,60.0,0,60,4.0,0.0
14248,64.0,30,15,4.0,0.0
14249,64.0,15,30,2.0,0.0
14250,67.0,15,40,0.0,0.0
14251,48.0,0,30,3.0,0.0
14252,48.0,0,30,4.0,0.0
14253,67.0,0,40,1.0,0.0
14254,50.0,45,30,3.0,0.0
14255,65.0,0,30,2.0,0.0
14256,50.0,0,30,4.0,0.0
14257,72.0,0,40,0.0,0.0
14258,67.0,0,40,2.0,0.0
14259,52.0,0,60,4.0,0.0
14260,64.0,0,15,4.0,0.0
14261,67.0,0,15,4.0,0.0
14262,72.0,0,40,1.0,0.0
14263,52.0,15,40,3.0,0.0
14264,72.0,15,40,0.0,0.0
14265,72.0,0,40,1.0,0.0
14266,64.0,30,15,4.0,0.0
14267,66.0,15,30,2.0,0.0
14268,67.0,0,15,4.0,0.0
14269,72.0,0,15,4.0,0.0
14270,50.0,0,30,4.0,0.0
14271,50.0,0,30,3.0,0.0
14272,52.0,0,30,4.0,0.0
14273,52.0,45,30,3.0,0.0
14274,67.0,0,30,2.0,0.0
14275,72.0,0,40,1.0,0.0
14276,72.0,0,40,0.0,0.0
14277,54.0,0,60,4.0,0.0
14278,54.0,15,40,3.0,0.0
14279,69.0,0,40,2.0,0.0
14280,67.0,0,30,2.0,0.0
14281,52.0,0,30,3.0,0.0
14282,72.0,15,40,1.0,0.0
14283,52.0,15,30,4.0,0.0
14284,72.0,30,15,4.0,0.0
14285,69.0,0,15,4.0,0.0
14286,62.0,0,15,4.0,0.0
14287,72.0,0,40,0.0,0.0
14288,69.0,0,30,2.0,0.0
14289,54.0,0,30,3.0,0.0
14290,54.0,0,30,4.0,0.0
14291,55.0,0,60,4.0,0.0
14292,55.0,0,120,3.0,0.0
14293,62.0,60,15,4.0,0.0
14294,67.0,0,60,4.0,0.0
14295,70.0,30,60,0.0,0.0
14296,70.0,0,60,4.0,0.0
14297,70.0,0,60,1.0,0.0
14298,62.0,0,60,2.0,0.0
14299,55.0,30,30,4.0,0.0
14300,46.0,30,60,4.0,0.0
14301,57.0,0,30,4.0,0.0
14302,58.0,30,30,4.0,0.0
14303,50.0,30,60,4.0,0.0
14304,60.0,0,30,4.0,0.0
14305,62.0,30,30,4.0,0.0
14306,55.0,30,60,4.0,0.0
14307,58.0,0,30,4.0,0.0
14308,55.0,30,30,4.0,0.0
14309,50.0,0,60,4.0,0.0
14310,62.0,60,30,4.0,0.0
14311,54.0,0,60,4.0,0.0
14312,57.0,60,30,4.0,0.0
14313,55.0,0,60,4.0,0.0
14314,58.0,0,30,2.0,0.0
14315,58.0,30,15,4.0,0.0
14316,62.0,26,30,1.0,0.0
14317,62.0,0,60,4.0,0.0
14318,43.0,0,30,4.0,0.0
14319,43.0,4,30,3.0,0.0
14320,62.0,0,30,0.0,0.0
14321,60.0,34,30,2.0,0.0
14322,45.0,0,30,4.0,0.0
14323,45.0,0,30,3.0,0.0
14324,46.0,0,60,4.0,0.0
14325,62.0,0,30,2.0,0.0
14326,46.0,0,30,3.0,0.0
14327,67.0,0,30,1.0,0.0
14328,67.0,26,30,0.0,0.0
14329,45.0,0,30,3.0,0.0
14330,62.0,0,15,4.0,0.0
14331,58.0,30,15,4.0,0.0
14332,67.0,0,15,4.0,0.0
14333,45.0,0,30,4.0,0.0
14334,67.0,26,30,0.0,0.0
14335,67.0,0,30,1.0,0.0
14336,60.0,4,30,2.0,0.0
14337,46.0,0,30,3.0,0.0
14338,62.0,0,30,2.0,0.0
14339,46.0,0,30,4.0,0.0
14340,48.0,0,30,3.0,0.0
14341,67.0,26,30,1.0,0.0
14342,67.0,0,30,0.0,0.0
14343,48.0,0,60,4.0,0.0
14344,63.0,0,30,2.0,0.0
14345,57.0,0,15,4.0,0.0
14346,67.0,26,30,0.0,0.0
14347,63.0,0,15,4.0,0.0
14348,46.0,4,30,3.0,0.0
14349,67.0,30,15,4.0,0.0
14350,62.0,0,30,2.0,0.0
14351,46.0,0,30,4.0,0.0
14352,67.0,0,30,1.0,0.0
14353,63.0,0,30,2.0,0.0
14354,48.0,30,30,4.0,0.0
14355,48.0,0,30,3.0,0.0
14356,67.0,15,30,0.0,0.0
14357,67.0,0,30,1.0,0.0
14358,57.0,15,40,2.0,0.0
14359,57.0,0,15,4.0,0.0
14360,50.0,0,60,4.0,0.0
14361,67.0,0,30,4.0,0.0
14362,50.0,0,40,3.0,0.0
14363,65.0,0,30,4.0,0.0
14364,65.0,30,30,0.0,0.0
14365,65.0,0,30,1.0,0.0
14366,67.0,0,30,1.0,0.0
14367,67.0,0,30,4.0,0.0
14368,46.0,0,30,4.0,0.0
14369,62.0,0,30,2.0,0.0
14370,46.0,30,30,3.0,0.0
14371,67.0,0,30,0.0,0.0
14372,48.0,45,30,4.0,0.0
14373,69.0,0,30,4.0,0.0
14374,69.0,0,30,0.0,0.0
14375,69.0,0,30,1.0,0.0
14376,64.0,0,30,2.0,0.0
14377,48.0,0,30,3.0,0.0
14378,65.0,0,40,2.0,0.0
14379,70.0,0,40,0.0,0.0
14380,70.0,15,40,1.0,0.0
14381,50.0,30,60,4.0,0.0
14382,50.0,0,40,3.0,0.0
14383,70.0,0,60,4.0,0.0
14384,70.0,15,40,1.0,0.0
14385,70.0,0,40,0.0,0.0
14386,48.0,15,30,4.0,0.0
14387,62.0,0,60,4.0,0.0
14388,64.0,0,30,2.0,0.0
14389,48.0,0,30,3.0,0.0
14390,65.0,0,60,4.0,0.0
14391,50.0,45,30,3.0,0.0
14392,65.0,0,30,2.0,0.0
14393,50.0,0,30,4.0,0.0
14394,52.0,0,60,4.0,0.0
14395,67.0,0,40,2.0,0.0
14396,70.0,0,15,4.0,0.0
14397,70.0,0,40,1.0,0.0
14398,52.0,0,40,3.0,0.0
14399,70.0,15,40,0.0,0.0
14400,70.0,30,15,4.0,0.0
14401,67.0,0,15,4.0,0.0
14402,60.0,0,15,4.0,0.0
14403,50.0,0,30,4.0,0.0
14404,50.0,15,30,3.0,0.0
14405,65.0,0,30,2.0,0.0
14406,70.0,0,40,0.0,0.0
14407,70.0,15,40,1.0,0.0
14408,52.0,0,30,4.0,0.0
14409,52.0,0,30,3.0,0.0
14410,67.0,30,30,2.0,0.0
14411,53.0,0,40,3.0,0.0
14412,70.0,0,15,4.0,0.0
14413,53.0,0,60,4.0,0.0
14414,60.0,0,15,4.0,0.0
14415,70.0,15,30,0.0,0.0
14416,60.0,15,40,2.0,0.0
14417,70.0,0,30,1.0,0.0
14418,69.0,0,30,1.0,0.0
14419,69.0,0,30,4.0,0.0
14420,69.0,30,30,0.0,0.0
14421,50.0,30,30,3.0,0.0
14422,65.0,0,30,2.0,0.0
14423,70.0,0,30,1.0,0.0
14424,50.0,0,30,4.0,0.0
14425,70.0,0,30,4.0,0.0
14426,70.0,0,30,0.0,0.0
14427,72.0,0,30,4.0,0.0
14428,67.0,0,30,2.0,0.0
14429,72.0,0,30,0.0,0.0
14430,52.0,45,30,4.0,0.0
14431,52.0,0,30,3.0,0.0
14432,72.0,0,30,1.0,0.0
14433,69.0,0,40,2.0,0.0
14434,74.0,0,40,1.0,0.0
14435,53.0,0,40,3.0,0.0
14436,74.0,15,40,0.0,0.0
14437,53.0,0,60,4.0,0.0
14438,74.0,15,40,1.0,0.0
14439,74.0,30,15,4.0,0.0
14440,69.0,0,60,4.0,0.0
14441,52.0,0,30,4.0,0.0
14442,65.0,0,60,4.0,0.0
14443,74.0,0,40,0.0,0.0
14444,52.0,0,30,3.0,0.0
14445,67.0,15,30,2.0,0.0
14446,53.0,45,30,4.0,0.0
14447,69.0,0,30,2.0,0.0
14448,53.0,0,30,3.0,0.0
14449,55.0,30,60,4.0,0.0
14450,74.0,15,40,0.0,0.0
14451,64.0,0,60,4.0,0.0
14452,74.0,0,40,1.0,0.0
14453,70.0,0,40,2.0,0.0
14454,55.0,0,40,3.0,0.0
14455,74.0,15,40,0.0,0.0
14456,74.0,0,40,1.0,0.0
14457,70.0,0,15,4.0,0.0
14458,53.0,15,30,4.0,0.0
14459,74.0,0,15,4.0,0.0
14460,53.0,0,30,3.0,0.0
14461,69.0,0,30,2.0,0.0
14462,55.0,0,30,3.0,0.0
14463,55.0,0,30,4.0,0.0
14464,70.0,45,30,2.0,0.0
14465,64.0,0,15,4.0,0.0
14466,74.0,0,40,0.0,0.0
14467,57.0,0,60,4.0,0.0
14468,57.0,15,40,3.0,0.0
14469,74.0,30,60,4.0,0.0
14470,64.0,0,120,2.0,0.0
14471,74.0,0,40,1.0,0.0
14472,72.0,0,30,4.0,0.0
14473,45.0,45,60,4.0,0.0
14474,72.0,0,30,1.0,0.0
14475,45.0,15,40,3.0,0.0
14476,72.0,15,30,0.0,0.0
14477,70.0,0,30,0.0,0.0
14478,70.0,0,30,1.0,0.0
14479,70.0,0,30,4.0,0.0
14480,72.0,0,60,4.0,0.0
14481,72.0,0,40,0.0,0.0
14482,57.0,30,60,4.0,0.0
14483,72.0,15,40,1.0,0.0
14484,57.0,0,40,3.0,0.0
14485,64.0,0,30,2.0,0.0
14486,55.0,0,60,4.0,0.0
14487,69.0,0,30,4.0,0.0
14488,69.0,0,30,1.0,0.0
14489,66.0,0,30,2.0,0.0
14490,55.0,15,40,3.0,0.0
14491,69.0,15,30,0.0,0.0
14492,67.0,0,30,2.0,0.0
14493,70.0,30,30,0.0,0.0
14494,70.0,0,30,4.0,0.0
14495,70.0,0,30,1.0,0.0
14496,72.0,15,40,1.0,0.0
14497,54.0,30,60,4.0,0.0
14498,69.0,15,30,2.0,0.0
14499,54.0,0,40,3.0,0.0
14500,72.0,0,40,0.0,0.0
14501,67.0,0,30,2.0,0.0
14502,72.0,0,15,4.0,0.0
14503,50.0,0,60,4.0,0.0
14504,66.0,15,30,2.0,0.0
14505,72.0,0,40,0.0,0.0
14506,50.0,15,40,3.0,0.0
14507,72.0,0,40,1.0,0.0
14508,64.0,45,30,2.0,0.0
14509,72.0,0,40,1.0,0.0
14510,72.0,0,60,4.0,0.0
14511,55.0,30,60,4.0,0.0
14512,62.0,0,120,2.0,0.0
14513,55.0,0,40,3.0,0.0
14514,72.0,15,40,0.0,0.0
14515,70.0,0,30,1.0,0.0
14516,43.0,0,60,4.0,0.0
14517,70.0,0,30,4.0,0.0
14518,43.0,15,40,3.0,0.0
14519,70.0,15,30,0.0,0.0
14520,69.0,0,30,1.0,0.0
14521,69.0,0,30,4.0,0.0
14522,69.0,45,30,0.0,0.0
14523,55.0,30,60,4.0,0.0
14524,70.0,0,60,4.0,0.0
14525,70.0,0,40,0.0,0.0
14526,70.0,0,40,1.0,0.0
14527,55.0,15,40,3.0,0.0
14528,67.0,15,30,1.0,0.0
14529,53.0,30,60,4.0,0.0
14530,67.0,0,30,4.0,0.0
14531,53.0,15,40,3.0,0.0
14532,67.0,0,30,0.0,0.0
14533,58.0,0,30,2.0,0.0
14534,69.0,0,30,0.0,0.0
14535,60.0,0,30,2.0,0.0
14536,69.0,0,30,4.0,0.0
14537,69.0,0,30,1.0,0.0
14538,70.0,15,30,4.0,0.0
14539,62.0,15,40,2.0,0.0
14540,70.0,0,40,0.0,0.0
14541,51.0,30,60,4.0,0.0
14542,51.0,0,40,3.0,0.0
14543,70.0,0,40,1.0,0.0
14544,67.0,0,30,4.0,0.0
14545,72.0,15,30,1.0,0.0
14546,50.0,15,40,3.0,0.0
14547,50.0,0,60,4.0,0.0
14548,72.0,0,30,0.0,0.0
14549,55.0,0,40,2.0,0.0
14550,72.0,0,30,4.0,0.0
14551,74.0,30,30,4.0,0.0
14552,74.0,0,30,0.0,0.0
14553,74.0,0,30,1.0,0.0
14554,75.0,15,30,4.0,0.0
14555,48.0,0,60,4.0,0.0
14556,75.0,0,40,0.0,0.0
14557,48.0,0,40,3.0,0.0
14558,67.0,15,40,2.0,0.0
14559,75.0,0,40,1.0,0.0
14560,74.0,30,30,4.0,0.0
14561,72.0,0,30,1.0,0.0
14562,50.0,0,30,4.0,0.0
14563,72.0,0,30,4.0,0.0
14564,63.0,0,30,2.0,0.0
14565,72.0,0,30,0.0,0.0
14566,50.0,30,30,3.0,0.0
14567,70.0,30,30,1.0,0.0
14568,70.0,0,30,4.0,0.0
14569,51.0,0,30,4.0,0.0
14570,70.0,0,30,0.0,0.0
14571,62.0,0,30,2.0,0.0
14572,51.0,0,30,3.0,0.0
14573,69.0,0,40,1.0,0.0
14574,60.0,0,40,2.0,0.0
14575,53.0,0,40,3.0,0.0
14576,69.0,15,40,0.0,0.0
14577,69.0,15,30,4.0,0.0
14578,53.0,0,60,4.0,0.0
14579,67.0,30,30,4.0,0.0
14580,65.0,0,30,0.0,0.0
14581,65.0,15,30,4.0,0.0
14582,51.0,15,40,3.0,0.0
14583,51.0,0,60,4.0,0.0
14584,65.0,0,30,1.0,0.0
14585,57.0,0,30,2.0,0.0
14586,58.0,0,30,2.0,0.0
14587,67.0,0,30,1.0,0.0
14588,67.0,0,30,0.0,0.0
14589,67.0,30,30,4.0,0.0
14590,69.0,15,30,4.0,0.0
14591,50.0,0,60,4.0,0.0
14592,60.0,0,40,2.0,0.0
14593,50.0,0,40,3.0,0.0
14594,69.0,15,40,0.0,0.0
14595,69.0,0,40,1.0,0.0
14596,65.0,30,30,4.0,0.0
14597,70.0,0,30,4.0,0.0
14598,48.0,0,60,4.0,0.0
14599,70.0,0,30,1.0,0.0
14600,48.0,0,40,3.0,0.0
14601,53.0,15,40,2.0,0.0
14602,70.0,15,30,0.0,0.0
14603,72.0,0,30,0.0,0.0
14604,72.0,0,30,1.0,0.0
14605,72.0,30,30,4.0,0.0
14606,46.0,15,40,3.0,0.0
14607,74.0,0,40,0.0,0.0
14608,65.0,0,40,2.0,0.0
14609,74.0,15,30,4.0,0.0
14610,46.0,30,60,4.0,0.0
14611,74.0,0,40,1.0,0.0
14612,72.0,0,30,4.0,0.0
14613,62.0,0,30,2.0,0.0
14614,70.0,0,30,0.0,0.0
14615,70.0,0,30,1.0,0.0
14616,48.0,30,30,3.0,0.0
14617,70.0,0,30,4.0,0.0
14618,48.0,0,30,4.0,0.0
14619,60.0,0,30,2.0,0.0
14620,69.0,0,30,0.0,0.0
14621,69.0,45,30,1.0,0.0
14622,69.0,0,30,4.0,0.0
14623,50.0,0,30,4.0,0.0
14624,50.0,0,30,3.0,0.0
14625,67.0,0,60,4.0,0.0
14626,51.0,30,60,4.0,0.0
14627,67.0,0,40,0.0,0.0
14628,58.0,0,40,2.0,0.0
14629,51.0,0,40,3.0,0.0
14630,67.0,15,40,1.0,0.0
14631,79.0,0,30,0.0,0.0
14632,58.0,15,40,2.0,0.0
14633,79.0,15,30,1.0,0.0
14634,50.0,0,40,3.0,0.0
14635,50.0,0,60,4.0,0.0
14636,79.0,0,30,4.0,0.0
14637,78.0,45,30,4.0,0.0
14638,78.0,0,30,0.0,0.0
14639,78.0,0,30,1.0,0.0
14640,79.0,45,60,4.0,0.0
14641,48.0,0,60,4.0,0.0
14642,79.0,0,40,0.0,0.0
14643,63.0,0,40,2.0,0.0
14644,79.0,15,40,1.0,0.0
14645,48.0,0,40,3.0,0.0
14646,75.0,0,40,0.0,0.0
14647,46.0,0,40,3.0,0.0
14648,75.0,0,60,4.0,0.0
14649,46.0,15,60,4.0,0.0
14650,75.0,15,40,1.0,0.0
14651,67.0,0,40,2.0,0.0
14652,45.0,0,60,4.0,0.0
14653,72.0,15,15,4.0,0.0
14654,63.0,45,120,2.0,0.0
14655,72.0,45,60,0.0,0.0
14656,72.0,0,60,1.0,0.0
14657,45.0,15,40,3.0,0.0
14658,74.0,15,15,4.0,0.0
14659,72.0,0,30,4.0,0.0
14660,71.0,0,60,4.0,0.0
14661,43.0,0,60,4.0,0.0
14662,43.0,15,40,3.0,0.0
14663,71.0,0,60,1.0,0.0
14664,71.0,0,60,0.0,0.0
14665,72.0,0,40,0.0,0.0
14666,42.0,15,40,3.0,0.0
14667,72.0,0,40,1.0,0.0
14668,42.0,30,60,4.0,0.0
14669,72.0,0,60,4.0,0.0
14670,43.0,0,60,4.0,0.0
14671,75.0,0,30,4.0,0.0
14672,60.0,0,30,2.0,0.0
14673,43.0,15,40,3.0,0.0
14674,75.0,15,30,0.0,0.0
14675,75.0,0,30,1.0,0.0
14676,74.0,45,30,0.0,0.0
14677,74.0,0,30,4.0,0.0
14678,74.0,0,30,1.0,0.0
14679,59.0,0,30,2.0,0.0
14680,75.0,0,40,1.0,0.0
14681,75.0,30,60,4.0,0.0
14682,60.0,0,40,2.0,0.0
14683,75.0,0,40,0.0,0.0
14684,45.0,0,60,4.0,0.0
14685,45.0,15,40,3.0,0.0
14686,72.0,15,40,0.0,0.0
14687,46.0,0,60,4.0,0.0
14688,46.0,0,40,3.0,0.0
14689,72.0,0,60,4.0,0.0
14690,72.0,0,40,1.0,0.0
14691,63.0,15,30,2.0,0.0
14692,62.0,45,30,2.0,0.0
14693,68.0,45,60,4.0,0.0
14694,48.0,0,60,4.0,0.0
14695,63.0,0,40,2.0,0.0
14696,48.0,15,40,3.0,0.0
14697,68.0,0,60,0.0,0.0
14698,68.0,0,60,1.0,0.0
14699,67.0,45,60,0.0,0.0
14700,62.0,0,40,2.0,0.0
14701,67.0,0,60,1.0,0.0
14702,46.0,15,40,3.0,0.0
14703,46.0,0,60,4.0,0.0
14704,67.0,0,60,4.0,0.0
14705,63.0,0,40,2.0,0.0
14706,48.0,0,60,4.0,0.0
14707,68.0,30,60,4.0,0.0
14708,68.0,0,40,1.0,0.0
14709,68.0,15,40,0.0,0.0
14710,48.0,0,40,3.0,0.0
14711,50.0,0,60,4.0,0.0
14712,72.0,15,30,4.0,0.0
14713,65.0,0,40,2.0,0.0
14714,72.0,0,30,0.0,0.0
14715,50.0,15,40,3.0,0.0
14716,72.0,0,30,1.0,0.0
14717,71.0,0,30,1.0,0.0
14718,71.0,45,30,4.0,0.0
14719,71.0,0,30,0.0,0.0
14720,67.0,0,40,2.0,0.0
14721,72.0,0,60,4.0,0.0
14722,51.0,0,40,3.0,0.0
14723,51.0,45,60,4.0,0.0
14724,72.0,15,40,0.0,0.0
14725,72.0,0,40,1.0,0.0
14726,63.0,0,40,2.0,0.0
14727,48.0,0,40,3.0,0.0
14728,48.0,45,60,4.0,0.0
14729,68.0,0,60,4.0,0.0
14730,68.0,0,40,1.0,0.0
14731,68.0,15,40,0.0,0.0
14732,66.0,0,40,1.0,0.0
14733,57.0,0,40,2.0,0.0
14734,66.0,30,60,4.0,0.0
14735,66.0,15,40,0.0,0.0
14736,50.0,0,60,4.0,0.0
14737,50.0,0,120,3.0,0.0
14738,60.0,15,30,4.0,0.0
14739,75.0,0,30,4.0,0.0
14740,66.0,15,40,2.0,0.0
14741,75.0,0,30,0.0,0.0
14742,75.0,0,30,1.0,0.0
14743,74.0,0,30,1.0,0.0
14744,58.0,0,30,4.0,0.0
14745,74.0,45,30,4.0,0.0
14746,74.0,0,30,0.0,0.0
14747,60.0,0,60,4.0,0.0
14748,75.0,30,60,4.0,0.0
14749,75.0,0,40,1.0,0.0
14750,75.0,0,40,0.0,0.0
14751,66.0,15,40,2.0,0.0
14752,66.0,15,40,2.0,0.0
14753,72.0,0,30,1.0,0.0
14754,72.0,0,30,4.0,0.0
14755,57.0,0,30,4.0,0.0
14756,72.0,15,30,0.0,0.0
14757,55.0,0,30,4.0,0.0
14758,70.0,0,30,4.0,0.0
14759,70.0,45,30,1.0,0.0
14760,70.0,0,30,0.0,0.0
14761,72.0,0,40,1.0,0.0
14762,66.0,0,40,2.0,0.0
14763,72.0,0,60,4.0,0.0
14764,57.0,45,60,4.0,0.0
14765,72.0,15,40,0.0,0.0
14766,48.0,0,60,3.0,0.0
14767,66.0,0,60,4.0,0.0
14768,48.0,45,60,4.0,0.0
14769,66.0,0,40,0.0,0.0
14770,66.0,15,40,1.0,0.0
14771,57.0,0,40,2.0,0.0
14772,67.0,0,40,1.0,0.0
14773,46.0,0,40,3.0,0.0
14774,62.0,15,40,2.0,0.0
14775,67.0,0,40,0.0,0.0
14776,67.0,30,60,4.0,0.0
14777,46.0,0,60,4.0,0.0
14778,58.0,0,60,4.0,0.0
14779,45.0,15,30,4.0,0.0
14780,58.0,0,40,1.0,0.0
14781,58.0,15,40,2.0,0.0
14782,58.0,0,40,0.0,0.0
14783,45.0,0,30,3.0,0.0
14784,43.0,45,30,3.0,0.0
14785,43.0,0,30,4.0,0.0
14786,55.0,15,40,2.0,0.0
14787,60.0,0,40,1.0,0.0
14788,60.0,30,60,4.0,0.0
14789,60.0,0,40,0.0,0.0
14790,51.0,0,60,4.0,0.0
14791,51.0,0,40,3.0,0.0
14792,67.0,0,40,1.0,0.0
14793,67.0,0,60,4.0,0.0
14794,60.0,0,40,2.0,0.0
14795,50.0,15,30,3.0,0.0
14796,50.0,0,30,4.0,0.0
14797,67.0,15,40,0.0,0.0
14798,48.0,45,30,4.0,0.0
14799,48.0,0,30,3.0,0.0
14800,50.0,15,40,3.0,0.0
14801,62.0,0,40,0.0,0.0
14802,62.0,0,60,4.0,0.0
14803,62.0,0,40,1.0,0.0
14804,50.0,45,60,4.0,0.0
14805,57.0,0,40,2.0,0.0
14806,66.0,0,40,1.0,0.0
14807,38.0,0,40,3.0,0.0
14808,38.0,45,60,4.0,0.0
14809,66.0,0,60,4.0,0.0
14810,62.0,0,40,2.0,0.0
14811,66.0,15,40,0.0,0.0
14812,43.0,15,120,3.0,0.0
14813,67.0,0,40,0.0,0.0
14814,58.0,0,40,2.0,0.0
14815,43.0,0,120,4.0,0.0
14816,55.0,0,120,4.0,0.0
14817,67.0,15,40,1.0,0.0
14818,67.0,30,30,4.0,0.0
14819,58.0,0,30,2.0,0.0
14820,66.0,0,30,4.0,0.0
14821,58.0,15,30,1.0,0.0
14822,58.0,0,30,0.0,0.0
14823,67.0,0,30,4.0,0.0
14824,60.0,0,30,0.0,0.0
14825,60.0,30,30,1.0,0.0
14826,60.0,0,30,2.0,0.0
14827,70.0,15,30,4.0,0.0
14828,62.0,15,40,2.0,0.0
14829,55.0,30,120,3.0,0.0
14830,62.0,0,40,0.0,0.0
14831,62.0,0,40,1.0,0.0
14832,67.0,30,30,4.0,0.0
14833,60.0,15,40,0.0,0.0
14834,60.0,0,40,2.0,0.0
14835,66.0,15,30,4.0,0.0
14836,60.0,0,40,1.0,0.0
14837,67.0,0,30,4.0,0.0
14838,58.0,15,40,0.0,0.0
14839,62.0,15,30,4.0,0.0
14840,58.0,0,40,1.0,0.0
14841,58.0,0,40,2.0,0.0
14842,67.0,30,30,4.0,0.0
14843,57.0,0,40,1.0,0.0
14844,57.0,15,40,0.0,0.0
14845,66.0,15,30,4.0,0.0
14846,57.0,0,40,2.0,0.0
14847,67.0,30,30,4.0,0.0
14848,55.0,11,90,0.0,0.0
14849,55.0,0,120,1.0,0.0
14850,55.0,15,120,2.0,0.0
14851,55.0,30,30,4.0,0.0
14852,67.0,19,30,4.0,0.0
14853,66.0,0,30,4.0,0.0
14854,55.0,15,30,3.0,0.0
14855,67.0,30,30,4.0,0.0
14856,53.0,0,30,3.0,0.0
14857,67.0,30,120,1.0,0.0
14858,51.0,15,40,3.0,0.0
14859,70.0,15,30,4.0,0.0
14860,67.0,0,120,0.0,0.0
14861,67.0,0,120,2.0,0.0
14862,67.0,30,30,4.0,0.0
14863,66.0,15,30,4.0,0.0
14864,50.0,15,40,3.0,0.0
14865,67.0,0,30,4.0,0.0
14866,48.0,15,40,3.0,0.0
14867,62.0,15,30,4.0,0.0
14868,67.0,30,30,4.0,0.0
14869,46.0,15,40,3.0,0.0
14870,66.0,15,30,4.0,0.0
14871,67.0,30,30,4.0,0.0
14872,57.0,30,30,4.0,0.0
14873,45.0,15,120,3.0,0.0
14874,67.0,30,30,4.0,0.0
14875,60.0,0,30,1.0,0.0
14876,66.0,15,30,4.0,0.0
14877,60.0,0,30,2.0,0.0
14878,60.0,0,30,0.0,0.0
14879,62.0,0,30,1.0,0.0
14880,62.0,0,30,2.0,0.0
14881,62.0,0,30,0.0,0.0
14882,67.0,30,30,4.0,0.0
14883,63.0,0,40,1.0,0.0
14884,63.0,0,40,0.0,0.0
14885,57.0,30,120,3.0,0.0
14886,72.0,15,30,4.0,0.0
14887,63.0,15,40,2.0,0.0
14888,67.0,30,30,4.0,0.0
14889,62.0,0,40,2.0,0.0
14890,62.0,0,40,0.0,0.0
14891,62.0,15,40,1.0,0.0
14892,66.0,15,30,4.0,0.0
14893,67.0,0,30,4.0,0.0
14894,60.0,0,40,1.0,0.0
14895,60.0,15,40,2.0,0.0
14896,60.0,0,40,0.0,0.0
14897,62.0,15,30,4.0,0.0
14898,67.0,30,30,4.0,0.0
14899,58.0,0,40,1.0,0.0
14900,58.0,15,40,0.0,0.0
14901,66.0,15,30,4.0,0.0
14902,58.0,0,40,2.0,0.0
14903,67.0,30,30,4.0,0.0
14904,57.0,15,120,1.0,0.0
14905,57.0,30,30,4.0,0.0
14906,57.0,0,120,2.0,0.0
14907,57.0,0,120,0.0,0.0
14908,67.0,30,30,4.0,0.0
14909,66.0,0,30,4.0,0.0
14910,57.0,15,30,3.0,0.0
14911,55.0,30,30,3.0,0.0
14912,67.0,0,30,4.0,0.0
14913,69.0,0,120,1.0,0.0
14914,54.0,15,40,3.0,0.0
14915,69.0,0,120,0.0,0.0
14916,69.0,30,120,2.0,0.0
14917,72.0,15,30,4.0,0.0
14918,67.0,30,30,4.0,0.0
14919,66.0,15,30,4.0,0.0
14920,52.0,15,40,3.0,0.0
14921,67.0,0,30,4.0,0.0
14922,50.0,15,40,3.0,0.0
14923,62.0,15,30,4.0,0.0
14924,67.0,30,30,4.0,0.0
14925,48.0,15,40,3.0,0.0
14926,66.0,15,30,4.0,0.0
14927,67.0,30,30,4.0,0.0
14928,58.0,30,30,4.0,0.0
14929,46.0,15,120,3.0,0.0
14930,67.0,30,30,4.0,0.0
14931,70.0,0,30,0.0,0.0
14932,70.0,0,30,1.0,0.0
14933,66.0,15,30,4.0,0.0
14934,72.0,0,30,0.0,0.0
14935,72.0,0,30,1.0,0.0
14936,67.0,30,30,4.0,0.0
14937,74.0,15,30,4.0,0.0
14938,58.0,0,120,3.0,0.0
14939,74.0,0,40,0.0,0.0
14940,74.0,15,40,1.0,0.0
14941,67.0,30,30,4.0,0.0
14942,72.0,15,40,0.0,0.0
14943,72.0,0,40,1.0,0.0
14944,66.0,15,30,4.0,0.0
14945,67.0,30,30,4.0,0.0
14946,70.0,15,40,1.0,0.0
14947,70.0,0,40,0.0,0.0
14948,62.0,15,30,4.0,0.0
14949,67.0,30,30,4.0,0.0
14950,69.0,0,40,1.0,0.0
14951,66.0,15,30,4.0,0.0
14952,69.0,15,40,0.0,0.0
14953,67.0,30,30,4.0,0.0
14954,67.0,0,40,1.0,0.0
14955,58.0,15,30,4.0,0.0
14956,67.0,15,40,0.0,0.0
14957,67.0,30,30,4.0,0.0
14958,62.0,0,30,0.0,0.0
14959,58.0,0,30,3.0,0.0
14960,66.0,0,30,4.0,0.0
14961,62.0,30,30,1.0,0.0
14962,62.0,0,30,2.0,0.0
14963,57.0,30,30,3.0,0.0
14964,60.0,0,30,2.0,0.0
14965,67.0,0,30,4.0,0.0
14966,60.0,0,30,0.0,0.0
14967,60.0,0,30,1.0,0.0
14968,58.0,0,40,1.0,0.0
14969,58.0,15,40,2.0,0.0
14970,58.0,0,40,0.0,0.0
14971,55.0,0,40,3.0,0.0
14972,74.0,15,30,4.0,0.0
14973,67.0,30,30,4.0,0.0
14974,57.0,0,40,2.0,0.0
14975,53.0,15,40,3.0,0.0
14976,57.0,0,40,1.0,0.0
14977,66.0,15,30,4.0,0.0
14978,57.0,0,40,0.0,0.0
14979,67.0,30,30,4.0,0.0
14980,62.0,15,30,4.0,0.0
14981,55.0,0,40,1.0,0.0
14982,55.0,15,40,0.0,0.0
14983,55.0,0,40,2.0,0.0
14984,51.0,0,40,3.0,0.0
14985,67.0,30,30,4.0,0.0
14986,74.0,0,40,1.0,0.0
14987,66.0,15,30,4.0,0.0
14988,50.0,15,40,3.0,0.0
14989,74.0,0,40,0.0,0.0
14990,59.0,0,40,2.0,0.0
14991,67.0,30,30,4.0,0.0
14992,60.0,0,120,2.0,0.0
14993,75.0,0,40,1.0,0.0
14994,60.0,15,30,4.0,0.0
14995,75.0,15,40,0.0,0.0
14996,48.0,15,120,3.0,0.0
14997,67.0,30,30,4.0,0.0
14998,72.0,15,30,0.0,0.0
14999,72.0,0,30,1.0,0.0
15000,66.0,0,30,4.0,0.0
15001,67.0,0,30,4.0,0.0
15002,74.0,0,30,1.0,0.0
15003,74.0,30,30,0.0,0.0
15004,60.0,0,120,3.0,0.0
15005,75.0,15,30,4.0,0.0
15006,75.0,15,40,0.0,0.0
15007,75.0,0,40,1.0,0.0
15008,67.0,30,30,4.0,0.0
15009,66.0,15,30,4.0,0.0
15010,74.0,0,40,1.0,0.0
15011,74.0,15,40,0.0,0.0
15012,67.0,30,30,4.0,0.0
15013,72.0,15,40,0.0,0.0
15014,72.0,0,40,1.0,0.0
15015,75.0,15,30,4.0,0.0
15016,67.0,30,30,4.0,0.0
15017,66.0,15,30,4.0,0.0
15018,70.0,0,40,1.0,0.0
15019,70.0,15,40,0.0,0.0
15020,67.0,30,30,4.0,0.0
15021,60.0,15,30,4.0,0.0
15022,69.0,0,40,0.0,0.0
15023,69.0,15,40,1.0,0.0
15024,67.0,30,30,4.0,0.0
15025,63.0,0,30,2.0,0.0
15026,63.0,0,30,0.0,0.0
15027,66.0,0,30,4.0,0.0
15028,63.0,0,30,1.0,0.0
15029,60.0,30,30,3.0,0.0
15030,62.0,30,30,0.0,0.0
15031,62.0,0,30,1.0,0.0
15032,67.0,0,30,4.0,0.0
15033,62.0,0,30,2.0,0.0
15034,58.0,0,30,3.0,0.0
15035,57.0,0,40,3.0,0.0
15036,60.0,0,40,0.0,0.0
15037,60.0,15,40,2.0,0.0
15038,75.0,15,30,4.0,0.0
15039,60.0,0,40,1.0,0.0
15040,67.0,30,30,4.0,0.0
15041,58.0,15,40,1.0,0.0
15042,66.0,15,30,4.0,0.0
15043,58.0,0,40,2.0,0.0
15044,58.0,0,40,0.0,0.0
15045,55.0,0,40,3.0,0.0
15046,67.0,30,30,4.0,0.0
15047,57.0,0,40,2.0,0.0
15048,54.0,0,40,3.0,0.0
15049,75.0,15,30,4.0,0.0
15050,57.0,15,40,1.0,0.0
15051,57.0,0,40,0.0,0.0
15052,67.0,30,30,4.0,0.0
15053,79.0,0,40,1.0,0.0
15054,79.0,15,40,0.0,0.0
15055,60.0,0,40,2.0,0.0
15056,66.0,15,30,4.0,0.0
15057,52.0,0,40,3.0,0.0
15058,67.0,30,30,4.0,0.0
15059,78.0,0,40,0.0,0.0
15060,62.0,0,120,2.0,0.0
15061,78.0,15,40,1.0,0.0
15062,50.0,30,120,3.0,0.0
15063,60.0,15,30,4.0,0.0
15064,69.0,30,30,4.0,0.0
15065,78.0,30,30,4.0,0.0
15066,69.0,0,30,1.0,0.0
15067,72.0,0,30,0.0,0.0
15068,79.0,0,30,4.0,0.0
15069,70.0,0,30,0.0,0.0
15070,67.0,0,30,1.0,0.0
15071,78.0,15,30,4.0,0.0
15072,72.0,0,40,0.0,0.0
15073,69.0,15,40,1.0,0.0
15074,69.0,30,30,4.0,0.0
15075,69.0,30,30,0.0,0.0
15076,60.0,0,30,4.0,0.0
15077,66.0,0,30,1.0,0.0
15078,62.0,0,30,4.0,0.0
15079,64.0,0,30,1.0,0.0
15080,67.0,30,30,0.0,0.0
15081,66.0,0,40,1.0,0.0
15082,60.0,15,30,4.0,0.0
15083,69.0,15,40,0.0,0.0
15084,69.0,30,30,4.0,0.0
15085,72.0,0,40,1.0,0.0
15086,78.0,15,30,4.0,0.0
15087,69.0,0,40,2.0,0.0
15088,78.0,15,40,0.0,0.0
15089,69.0,30,30,4.0,0.0
15090,67.0,0,120,2.0,0.0
15091,79.0,0,40,0.0,0.0
15092,70.0,15,40,1.0,0.0
15093,61.0,15,30,4.0,0.0
15094,50.0,0,120,3.0,0.0
15095,70.0,30,30,4.0,0.0
15096,79.0,0,30,4.0,0.0
15097,70.0,0,30,0.0,0.0
15098,67.0,30,30,1.0,0.0
15099,81.0,0,30,4.0,0.0
15100,69.0,30,30,0.0,0.0
15101,66.0,0,30,1.0,0.0
15102,70.0,15,40,0.0,0.0
15103,79.0,15,30,4.0,0.0
15104,67.0,0,40,1.0,0.0
15105,70.0,30,30,4.0,0.0
15106,67.0,0,30,0.0,0.0
15107,64.0,30,30,1.0,0.0
15108,61.0,0,30,4.0,0.0
15109,66.0,0,30,0.0,0.0
15110,62.0,30,30,1.0,0.0
15111,62.0,0,30,4.0,0.0
15112,67.0,0,40,0.0,0.0
15113,61.0,15,30,4.0,0.0
15114,64.0,15,40,1.0,0.0
15115,70.0,30,30,4.0,0.0
15116,64.0,0,40,2.0,0.0
15117,70.0,0,40,1.0,0.0
15118,79.0,15,40,0.0,0.0
15119,79.0,15,30,4.0,0.0
15120,70.0,30,30,4.0,0.0
15121,62.0,15,30,4.0,0.0
15122,66.0,30,120,2.0,0.0
15123,50.0,0,120,3.0,0.0
15124,69.0,15,40,1.0,0.0
15125,72.0,0,40,0.0,0.0
15126,78.0,30,30,4.0,0.0
15127,69.0,30,30,0.0,0.0
15128,66.0,0,30,1.0,0.0
15129,84.0,0,30,4.0,0.0
15130,64.0,0,30,1.0,0.0
15131,86.0,0,30,4.0,0.0
15132,67.0,0,30,0.0,0.0
15133,66.0,0,40,1.0,0.0
15134,69.0,15,40,0.0,0.0
15135,84.0,15,30,4.0,0.0
15136,78.0,30,30,4.0,0.0
15137,69.0,0,30,4.0,0.0
15138,66.0,0,30,0.0,0.0
15139,62.0,30,30,1.0,0.0
15140,70.0,30,30,4.0,0.0
15141,60.0,0,30,1.0,0.0
15142,64.0,0,30,0.0,0.0
15143,62.0,0,40,1.0,0.0
15144,69.0,15,30,4.0,0.0
15145,66.0,15,40,0.0,0.0
15146,78.0,30,30,4.0,0.0
15147,72.0,0,40,0.0,0.0
15148,66.0,15,40,2.0,0.0
15149,69.0,0,40,1.0,0.0
15150,84.0,15,30,4.0,0.0
15151,78.0,30,30,4.0,0.0
15152,67.0,15,40,1.0,0.0
15153,67.0,15,30,4.0,0.0
15154,50.0,0,120,3.0,0.0
15155,62.0,0,120,2.0,0.0
15156,70.0,0,40,0.0,0.0
15157,74.0,30,30,4.0,0.0
15158,64.0,0,30,1.0,0.0
15159,67.0,0,30,0.0,0.0
15160,82.0,30,30,4.0,0.0
15161,84.0,30,30,4.0,0.0
15162,62.0,0,30,1.0,0.0
15163,66.0,0,30,0.0,0.0
15164,67.0,15,40,0.0,0.0
15165,64.0,0,40,1.0,0.0
15166,82.0,15,30,4.0,0.0
15167,73.0,30,30,4.0,0.0
15168,64.0,0,30,0.0,0.0
15169,67.0,30,30,4.0,0.0
15170,61.0,0,30,1.0,0.0
15171,62.0,30,30,0.0,0.0
15172,59.0,0,30,1.0,0.0
15173,69.0,0,30,4.0,0.0
15174,67.0,15,30,4.0,0.0
15175,61.0,15,40,1.0,0.0
15176,64.0,0,40,0.0,0.0
15177,73.0,30,30,4.0,0.0
15178,82.0,15,30,4.0,0.0
15179,67.0,0,40,1.0,0.0
15180,70.0,0,40,0.0,0.0
15181,62.0,15,40,2.0,0.0
15182,73.0,30,30,4.0,0.0
15183,62.0,0,40,2.0,0.0
15184,66.0,15,30,4.0,0.0
15185,50.0,0,120,3.0,0.0
15186,66.0,0,40,1.0,0.0
15187,72.0,15,40,0.0,0.0
15188,72.0,30,30,4.0,0.0
15189,66.0,0,30,0.0,0.0
15190,81.0,0,30,4.0,0.0
15191,62.0,30,30,1.0,0.0
15192,57.0,0,30,2.0,0.0
15193,82.0,0,30,4.0,0.0
15194,55.0,0,30,2.0,0.0
15195,60.0,0,30,1.0,0.0
15196,64.0,30,30,0.0,0.0
15197,57.0,0,40,2.0,0.0
15198,81.0,15,30,4.0,0.0
15199,62.0,0,40,1.0,0.0
15200,66.0,15,40,0.0,0.0
15201,72.0,30,30,4.0,0.0
15202,62.0,0,30,0.0,0.0
15203,57.0,0,30,1.0,0.0
15204,54.0,0,30,2.0,0.0
15205,66.0,30,30,4.0,0.0
15206,52.0,0,30,2.0,0.0
15207,55.0,0,30,1.0,0.0
15208,60.0,30,30,0.0,0.0
15209,67.0,0,30,4.0,0.0
15210,62.0,30,60,0.0,0.0
15211,57.0,0,60,1.0,0.0
15212,54.0,0,60,2.0,0.0
15213,66.0,30,30,4.0,0.0
15214,72.0,0,30,4.0,0.0
15215,50.0,15,40,3.0,0.0
15216,81.0,15,30,4.0,0.0
15217,72.0,30,30,4.0,0.0
15218,67.0,15,30,4.0,0.0
15219,55.0,15,40,3.0,0.0
15220,70.0,30,30,4.0,0.0
15221,74.0,15,30,4.0,0.0
15222,54.0,15,40,3.0,0.0
15223,79.0,30,30,4.0,0.0
15224,82.0,15,30,4.0,0.0
15225,55.0,15,40,3.0,0.0
15226,79.0,30,30,4.0,0.0
15227,74.0,15,30,4.0,0.0
15228,57.0,15,40,3.0,0.0
15229,70.0,15,30,4.0,0.0
15230,67.0,15,15,4.0,0.0
15231,58.0,15,40,3.0,0.0
15232,69.0,15,15,4.0,0.0
15233,70.0,0,15,4.0,0.0
15234,72.0,15,15,4.0,0.0
15235,60.0,15,40,3.0,0.0
15236,74.0,15,15,4.0,0.0
15237,76.0,15,15,4.0,0.0
15238,78.0,0,15,4.0,0.0
15239,79.0,30,15,4.0,0.0
15240,62.0,15,120,3.0,0.0
15241,62.0,30,30,4.0,0.0
15242,69.0,30,30,4.0,0.0
15243,69.0,0,30,1.0,0.0
15244,69.0,0,30,0.0,0.0
15245,74.0,15,30,4.0,0.0
15246,69.0,0,30,2.0,0.0
15247,70.0,0,30,0.0,0.0
15248,70.0,0,30,2.0,0.0
15249,70.0,0,30,1.0,0.0
15250,79.0,30,30,4.0,0.0
15251,81.0,15,30,4.0,0.0
15252,72.0,0,40,1.0,0.0
15253,72.0,0,40,2.0,0.0
15254,72.0,15,40,0.0,0.0
15255,50.0,0,120,3.0,0.0
15256,79.0,30,30,4.0,0.0
15257,70.0,0,40,1.0,0.0
15258,74.0,15,30,4.0,0.0
15259,70.0,0,40,2.0,0.0
15260,70.0,15,40,0.0,0.0
15261,79.0,30,30,4.0,0.0
15262,69.0,0,40,2.0,0.0
15263,86.0,15,30,4.0,0.0
15264,69.0,15,40,1.0,0.0
15265,69.0,0,40,0.0,0.0
15266,79.0,30,30,4.0,0.0
15267,67.0,15,40,2.0,0.0
15268,67.0,0,40,0.0,0.0
15269,67.0,0,40,1.0,0.0
15270,74.0,15,30,4.0,0.0
15271,79.0,30,30,4.0,0.0
15272,65.0,11,90,0.0,0.0
15273,65.0,0,120,2.0,0.0
15274,65.0,15,120,1.0,0.0
15275,62.0,30,30,4.0,0.0
15276,69.0,19,30,4.0,0.0
15277,74.0,0,30,4.0,0.0
15278,57.0,15,30,3.0,0.0
15279,55.0,30,30,3.0,0.0
15280,77.0,0,30,4.0,0.0
15281,74.0,0,120,2.0,0.0
15282,81.0,15,30,4.0,0.0
15283,53.0,15,40,3.0,0.0
15284,74.0,0,120,1.0,0.0
15285,74.0,15,120,0.0,0.0
15286,77.0,30,30,4.0,0.0
15287,51.0,15,40,3.0,0.0
15288,74.0,15,30,4.0,0.0
15289,69.0,0,30,4.0,0.0
15290,50.0,15,40,3.0,0.0
15291,62.0,15,15,4.0,0.0
15292,64.0,15,15,4.0,0.0
15293,65.0,0,15,4.0,0.0
15294,67.0,15,15,4.0,0.0
15295,48.0,15,40,3.0,0.0
15296,69.0,15,15,4.0,0.0
15297,71.0,15,15,4.0,0.0
15298,72.0,0,15,4.0,0.0
15299,74.0,30,15,4.0,0.0
15300,47.0,15,120,3.0,0.0
15301,59.0,30,30,4.0,0.0
15302,67.0,30,30,4.0,0.0
15303,67.0,0,30,0.0,0.0
15304,74.0,0,30,4.0,0.0
15305,67.0,15,30,2.0,0.0
15306,67.0,0,30,1.0,0.0
15307,69.0,30,30,1.0,0.0
15308,77.0,0,30,4.0,0.0
15309,69.0,0,30,0.0,0.0
15310,69.0,0,30,2.0,0.0
15311,71.0,15,40,0.0,0.0
15312,79.0,15,30,4.0,0.0
15313,71.0,0,40,2.0,0.0
15314,55.0,30,120,3.0,0.0
15315,71.0,0,40,1.0,0.0
15316,77.0,30,30,4.0,0.0
15317,69.0,15,40,1.0,0.0
15318,74.0,15,30,4.0,0.0
15319,69.0,0,40,0.0,0.0
15320,69.0,0,40,2.0,0.0
15321,77.0,0,30,4.0,0.0
15322,86.0,15,30,4.0,0.0
15323,67.0,15,40,0.0,0.0
15324,67.0,0,40,2.0,0.0
15325,67.0,0,40,1.0,0.0
15326,77.0,30,30,4.0,0.0
15327,74.0,15,30,4.0,0.0
15328,65.0,0,40,2.0,0.0
15329,65.0,0,40,1.0,0.0
15330,65.0,15,40,0.0,0.0
15331,77.0,30,30,4.0,0.0
15332,63.0,0,120,2.0,0.0
15333,63.0,0,120,1.0,0.0
15334,60.0,30,30,4.0,0.0
15335,63.0,15,120,0.0,0.0
15336,67.0,30,30,4.0,0.0
15337,55.0,15,30,3.0,0.0
15338,72.0,0,30,4.0,0.0
15339,75.0,0,30,4.0,0.0
15340,53.0,30,30,3.0,0.0
15341,79.0,15,30,4.0,0.0
15342,72.0,0,120,1.0,0.0
15343,51.0,15,40,3.0,0.0
15344,72.0,15,120,2.0,0.0
15345,72.0,0,120,0.0,0.0
15346,75.0,30,30,4.0,0.0
15347,72.0,15,30,4.0,0.0
15348,50.0,15,40,3.0,0.0
15349,67.0,0,30,4.0,0.0
15350,60.0,15,15,4.0,0.0
15351,48.0,0,40,3.0,0.0
15352,62.0,15,15,4.0,0.0
15353,63.0,15,15,4.0,0.0
15354,65.0,15,15,4.0,0.0
15355,46.0,15,40,3.0,0.0
15356,67.0,15,15,4.0,0.0
15357,69.0,15,15,4.0,0.0
15358,70.0,0,15,4.0,0.0
15359,72.0,30,15,4.0,0.0
15360,57.0,30,30,4.0,0.0
15361,45.0,15,120,3.0,0.0
15362,65.0,30,30,4.0,0.0
15363,65.0,0,30,2.0,0.0
15364,72.0,0,30,4.0,0.0
15365,65.0,0,30,0.0,0.0
15366,65.0,15,30,1.0,0.0
15367,75.0,0,30,4.0,0.0
15368,67.0,0,30,2.0,0.0
15369,67.0,30,30,1.0,0.0
15370,67.0,0,30,0.0,0.0
15371,69.0,15,40,2.0,0.0
15372,69.0,0,40,0.0,0.0
15373,77.0,15,30,4.0,0.0
15374,69.0,0,40,1.0,0.0
15375,53.0,30,120,3.0,0.0
15376,75.0,30,30,4.0,0.0
15377,67.0,0,40,0.0,0.0
15378,67.0,0,40,1.0,0.0
15379,67.0,15,40,2.0,0.0
15380,72.0,15,30,4.0,0.0
15381,75.0,0,30,4.0,0.0
15382,65.0,0,40,2.0,0.0
15383,84.0,15,30,4.0,0.0
15384,65.0,0,40,0.0,0.0
15385,65.0,15,40,1.0,0.0
15386,75.0,30,30,4.0,0.0
15387,63.0,15,40,0.0,0.0
15388,63.0,0,40,1.0,0.0
15389,63.0,0,40,2.0,0.0
15390,72.0,15,30,4.0,0.0
15391,75.0,30,30,4.0,0.0
15392,62.0,0,120,1.0,0.0
15393,62.0,15,120,0.0,0.0
15394,58.0,30,30,4.0,0.0
15395,62.0,0,120,2.0,0.0
15396,65.0,30,30,4.0,0.0
15397,53.0,15,30,3.0,0.0
15398,70.0,0,30,4.0,0.0
15399,51.0,30,30,3.0,0.0
15400,74.0,0,30,4.0,0.0
15401,70.0,0,120,0.0,0.0
15402,50.0,15,40,3.0,0.0
15403,77.0,15,30,4.0,0.0
15404,70.0,0,120,2.0,0.0
15405,70.0,15,120,1.0,0.0
15406,74.0,30,30,4.0,0.0
15407,70.0,15,30,4.0,0.0
15408,48.0,15,40,3.0,0.0
15409,65.0,0,30,4.0,0.0
15410,46.0,15,40,3.0,0.0
15411,58.0,15,15,4.0,0.0
15412,60.0,15,15,4.0,0.0
15413,62.0,0,15,4.0,0.0
15414,63.0,15,15,4.0,0.0
15415,45.0,0,40,3.0,0.0
15416,65.0,15,15,4.0,0.0
15417,67.0,15,15,4.0,0.0
15418,69.0,15,15,4.0,0.0
15419,70.0,30,15,4.0,0.0
15420,43.0,15,120,3.0,0.0
15421,58.0,30,30,4.0,0.0
15422,67.0,0,30,4.0,0.0
15423,77.0,30,30,4.0,0.0
15424,68.0,15,30,4.0,0.0
15425,77.0,30,30,4.0,0.0
15426,67.0,30,30,4.0,0.0
15427,48.0,30,120,3.0,0.0
15428,75.0,30,30,4.0,0.0
15429,72.0,30,30,4.0,0.0
15430,75.0,0,30,4.0,0.0
15431,60.0,0,30,4.0,0.0
15432,67.0,30,30,4.0,0.0
15433,70.0,0,30,4.0,0.0
15434,75.0,30,30,4.0,0.0
15435,72.0,30,30,4.0,0.0
15436,75.0,30,30,4.0,0.0
15437,57.0,0,30,4.0,0.0
15438,65.0,30,30,4.0,0.0
15439,45.0,15,120,3.0,0.0
15440,75.0,30,30,4.0,0.0
15441,67.0,15,30,4.0,0.0
15442,75.0,30,30,4.0,0.0
15443,65.0,30,30,4.0,0.0
15444,46.0,0,120,3.0,0.0
15445,74.0,30,30,4.0,0.0
15446,70.0,30,30,4.0,0.0
15447,74.0,30,30,4.0,0.0
15448,68.0,0,30,4.0,0.0
15449,65.0,0,30,4.0,0.0
15450,58.0,30,30,4.0,0.0
15451,74.0,30,30,4.0,0.0
15452,70.0,30,30,4.0,0.0
15453,74.0,30,30,4.0,0.0
15454,63.0,0,30,4.0,0.0
15455,43.0,15,120,3.0,0.0
15456,55.0,30,30,4.0,0.0
15457,74.0,30,30,4.0,0.0
15458,65.0,15,30,4.0,0.0
15459,74.0,30,30,4.0,0.0
15460,45.0,30,120,3.0,0.0
15461,57.0,30,60,4.0,0.0
15462,63.0,30,30,4.0,0.0
15463,72.0,0,30,4.0,0.0
15464,69.0,30,30,4.0,0.0
15465,60.0,0,60,4.0,0.0
15466,72.0,0,30,4.0,0.0
15467,58.0,0,60,4.0,0.0
15468,67.0,30,30,4.0,0.0
15469,72.0,30,30,4.0,0.0
15470,69.0,30,30,4.0,0.0
15471,60.0,30,60,4.0,0.0
15472,72.0,0,30,4.0,0.0
15473,62.0,30,30,4.0,0.0
15474,53.0,0,30,4.0,0.0
15475,41.0,15,120,3.0,0.0
15476,72.0,30,30,4.0,0.0
15477,63.0,15,30,4.0,0.0
15478,72.0,30,30,4.0,0.0
15479,43.0,0,120,3.0,0.0
15480,55.0,30,60,4.0,0.0
15481,62.0,30,30,4.0,0.0
15482,70.0,0,30,4.0,0.0
15483,58.0,30,60,4.0,0.0
15484,67.0,30,30,4.0,0.0
15485,70.0,0,30,4.0,0.0
15486,57.0,0,60,4.0,0.0
15487,65.0,30,30,4.0,0.0
15488,70.0,30,30,4.0,0.0
15489,67.0,30,30,4.0,0.0
15490,58.0,30,60,4.0,0.0
15491,70.0,0,30,4.0,0.0
15492,48.0,30,60,4.0,0.0
15493,63.0,15,30,4.0,0.0
15494,48.0,15,40,3.0,0.0
15495,70.0,0,30,4.0,0.0
15496,50.0,15,40,3.0,0.0
15497,65.0,15,30,4.0,0.0
15498,50.0,30,60,4.0,0.0
15499,70.0,0,30,4.0,0.0
15500,51.0,15,40,3.0,0.0
15501,51.0,30,60,4.0,0.0
15502,67.0,15,30,4.0,0.0
15503,70.0,0,30,4.0,0.0
15504,53.0,30,60,4.0,0.0
15505,53.0,15,40,3.0,0.0
15506,65.0,15,30,4.0,0.0
15507,70.0,0,30,4.0,0.0
15508,55.0,15,40,3.0,0.0
15509,55.0,30,60,4.0,0.0
15510,63.0,15,30,4.0,0.0
15511,70.0,0,30,4.0,0.0
15512,51.0,15,40,3.0,0.0
15513,51.0,30,60,4.0,0.0
15514,62.0,15,30,4.0,0.0
15515,70.0,0,30,4.0,0.0
15516,60.0,30,30,4.0,0.0
15517,53.0,30,60,4.0,0.0
15518,53.0,15,120,3.0,0.0
15519,69.0,0,30,4.0,0.0
15520,55.0,30,60,4.0,0.0
15521,67.0,15,30,4.0,0.0
15522,69.0,0,30,4.0,0.0
15523,41.0,15,120,3.0,0.0
15524,65.0,30,30,4.0,0.0
15525,57.0,30,60,4.0,0.0
15526,69.0,0,30,4.0,0.0
15527,60.0,30,60,4.0,0.0
15528,63.0,15,30,4.0,0.0
15529,69.0,0,30,4.0,0.0
15530,62.0,30,30,4.0,0.0
15531,53.0,30,60,4.0,0.0
15532,53.0,15,120,3.0,0.0
15533,69.0,0,30,4.0,0.0
15534,57.0,30,60,4.0,0.0
15535,60.0,15,30,4.0,0.0
15536,69.0,0,30,4.0,0.0
15537,62.0,30,30,4.0,0.0
15538,46.0,30,120,4.0,0.0
15539,46.0,0,120,3.0,0.0
15540,70.0,30,30,4.0,0.0
15541,63.0,30,30,4.0,0.0
15542,72.0,0,30,4.0,0.0
15543,65.0,30,30,4.0,0.0
15544,74.0,30,30,4.0,0.0
15545,58.0,15,40,3.0,0.0
15546,67.0,15,30,4.0,0.0
15547,58.0,30,60,4.0,0.0
15548,75.0,0,30,4.0,0.0
15549,57.0,0,60,4.0,0.0
15550,69.0,15,30,4.0,0.0
15551,57.0,15,40,3.0,0.0
15552,77.0,30,30,4.0,0.0
15553,70.0,15,30,4.0,0.0
15554,55.0,0,60,4.0,0.0
15555,55.0,15,40,3.0,0.0
15556,79.0,30,30,4.0,0.0
15557,72.0,15,30,4.0,0.0
15558,53.0,30,60,4.0,0.0
15559,53.0,15,40,3.0,0.0
15560,81.0,0,30,4.0,0.0
15561,75.0,0,30,4.0,0.0
15562,48.0,0,30,4.0,0.0
15563,48.0,30,30,3.0,0.0
15564,46.0,0,30,3.0,0.0
15565,74.0,0,30,4.0,0.0
15566,46.0,30,30,4.0,0.0
15567,75.0,15,30,4.0,0.0
15568,48.0,0,60,4.0,0.0
15569,48.0,15,40,3.0,0.0
15570,81.0,30,30,4.0,0.0
15571,72.0,30,30,4.0,0.0
15572,45.0,0,30,4.0,0.0
15573,45.0,0,30,3.0,0.0
15574,43.0,0,30,4.0,0.0
15575,43.0,0,30,3.0,0.0
15576,81.0,30,30,4.0,0.0
15577,45.0,15,40,3.0,0.0
15578,45.0,0,60,4.0,0.0
15579,77.0,15,30,4.0,0.0
15580,81.0,30,30,4.0,0.0
15581,41.0,15,40,3.0,0.0
15582,41.0,0,60,4.0,0.0
15583,75.0,15,30,4.0,0.0
15584,81.0,30,30,4.0,0.0
15585,74.0,15,30,4.0,0.0
15586,46.0,15,40,3.0,0.0
15587,46.0,30,60,4.0,0.0
15588,82.0,0,30,4.0,0.0
15589,55.0,15,40,3.0,0.0
15590,55.0,30,60,4.0,0.0
15591,70.0,15,30,4.0,0.0
15592,82.0,0,30,4.0,0.0
15593,51.0,15,40,3.0,0.0
15594,51.0,30,60,4.0,0.0
15595,72.0,15,30,4.0,0.0
15596,82.0,0,30,4.0,0.0
15597,48.0,15,40,3.0,0.0
15598,48.0,30,60,4.0,0.0
15599,75.0,15,30,4.0,0.0
15600,74.0,0,30,4.0,0.0
15601,53.0,15,40,3.0,0.0
15602,75.0,15,30,4.0,0.0
15603,53.0,30,60,4.0,0.0
15604,81.0,0,30,4.0,0.0
15605,75.0,15,30,4.0,0.0
15606,41.0,45,60,4.0,0.0
15607,41.0,15,40,3.0,0.0
15608,81.0,0,30,4.0,0.0
15609,82.0,15,40,1.0,0.0
15610,82.0,0,40,0.0,0.0
15611,82.0,30,60,4.0,0.0
15612,46.0,0,120,4.0,0.0
15613,46.0,0,120,3.0,0.0
15614,81.0,0,30,4.0,0.0
15615,81.0,0,30,1.0,0.0
15616,81.0,30,30,0.0,0.0
15617,79.0,0,30,4.0,0.0
15618,79.0,0,30,1.0,0.0
15619,79.0,30,30,0.0,0.0
15620,77.0,0,40,0.0,0.0
15621,77.0,15,40,1.0,0.0
15622,77.0,15,30,4.0,0.0
15623,86.0,30,30,4.0,0.0
15624,75.0,15,30,4.0,0.0
15625,75.0,0,40,0.0,0.0
15626,75.0,15,40,1.0,0.0
15627,84.0,30,30,4.0,0.0
15628,74.0,15,40,1.0,0.0
15629,74.0,0,40,0.0,0.0
15630,74.0,15,30,4.0,0.0
15631,82.0,30,30,4.0,0.0
15632,72.0,15,30,4.0,0.0
15633,72.0,0,40,0.0,0.0
15634,72.0,15,40,1.0,0.0
15635,81.0,45,30,4.0,0.0
15636,74.0,0,40,1.0,0.0
15637,82.0,30,60,4.0,0.0
15638,74.0,0,60,4.0,0.0
15639,74.0,15,40,0.0,0.0
15640,46.0,0,30,4.0,0.0
15641,70.0,0,60,4.0,0.0
15642,46.0,0,30,3.0,0.0
15643,70.0,15,40,0.0,0.0
15644,77.0,15,30,1.0,0.0
15645,62.0,0,30,2.0,0.0
15646,63.0,0,30,2.0,0.0
15647,48.0,45,30,4.0,0.0
15648,48.0,0,30,3.0,0.0
15649,75.0,0,30,1.0,0.0
15650,50.0,0,40,3.0,0.0
15651,82.0,30,60,4.0,0.0
15652,74.0,0,40,1.0,0.0
15653,82.0,15,40,0.0,0.0
15654,65.0,0,40,2.0,0.0
15655,50.0,0,60,4.0,0.0
15656,77.0,15,40,1.0,0.0
15657,48.0,15,30,3.0,0.0
15658,48.0,0,30,4.0,0.0
15659,82.0,0,40,0.0,0.0
15660,63.0,0,30,2.0,0.0
15661,50.0,0,30,3.0,0.0
15662,50.0,0,30,4.0,0.0
15663,65.0,45,30,2.0,0.0
15664,82.0,0,15,4.0,0.0
15665,52.0,0,60,4.0,0.0
15666,52.0,0,40,3.0,0.0
15667,67.0,0,40,2.0,0.0
15668,74.0,0,40,1.0,0.0
15669,82.0,15,40,0.0,0.0
15670,70.0,0,40,1.0,0.0
15671,50.0,15,30,3.0,0.0
15672,82.0,15,40,0.0,0.0
15673,65.0,0,30,2.0,0.0
15674,82.0,30,15,4.0,0.0
15675,50.0,0,30,4.0,0.0
15676,52.0,0,30,3.0,0.0
15677,67.0,0,30,2.0,0.0
15678,52.0,30,30,4.0,0.0
15679,53.0,0,120,3.0,0.0
15680,77.0,0,40,1.0,0.0
15681,60.0,0,120,2.0,0.0
15682,53.0,30,60,4.0,0.0
15683,82.0,15,30,4.0,0.0
15684,77.0,15,40,0.0,0.0
15685,86.0,0,30,4.0,0.0
15686,84.0,0,30,4.0,0.0
15687,76.0,0,30,1.0,0.0
15688,76.0,30,30,0.0,0.0
15689,41.0,0,60,4.0,0.0
15690,74.0,0,30,1.0,0.0
15691,74.0,0,30,0.0,0.0
15692,82.0,30,30,4.0,0.0
15693,72.0,0,40,1.0,0.0
15694,72.0,15,40,0.0,0.0
15695,81.0,15,30,4.0,0.0
15696,53.0,30,60,4.0,0.0
15697,82.0,0,30,4.0,0.0
15698,62.0,15,60,4.0,0.0
15699,70.0,15,40,0.0,0.0
15700,81.0,15,30,4.0,0.0
15701,70.0,0,40,1.0,0.0
15702,82.0,0,30,4.0,0.0
15703,69.0,0,40,0.0,0.0
15704,60.0,15,60,4.0,0.0
15705,82.0,15,15,4.0,0.0
15706,69.0,15,40,1.0,0.0
15707,84.0,15,15,4.0,0.0
15708,82.0,0,15,4.0,0.0
15709,84.0,0,15,4.0,0.0
15710,67.0,15,40,1.0,0.0
15711,67.0,0,40,0.0,0.0
15712,82.0,15,15,4.0,0.0
15713,58.0,45,60,4.0,0.0
15714,84.0,15,15,4.0,0.0
15715,81.0,0,15,4.0,0.0
15716,82.0,0,15,4.0,0.0
15717,57.0,0,60,4.0,0.0
15718,84.0,30,60,4.0,0.0
15719,69.0,0,40,1.0,0.0
15720,69.0,15,40,0.0,0.0
15721,65.0,0,40,1.0,0.0
15722,72.0,0,30,2.0,0.0
15723,53.0,15,30,3.0,0.0
15724,53.0,0,30,4.0,0.0
15725,81.0,0,30,4.0,0.0
15726,65.0,15,40,0.0,0.0
15727,70.0,0,30,2.0,0.0
15728,55.0,45,30,3.0,0.0
15729,55.0,0,30,4.0,0.0
15730,82.0,0,30,4.0,0.0
15731,84.0,0,60,4.0,0.0
15732,57.0,30,60,4.0,0.0
15733,57.0,15,40,3.0,0.0
15734,77.0,0,40,0.0,0.0
15735,69.0,0,40,2.0,0.0
15736,77.0,0,40,1.0,0.0
15737,55.0,0,30,4.0,0.0
15738,83.0,15,30,4.0,0.0
15739,72.0,15,40,2.0,0.0
15740,55.0,0,30,3.0,0.0
15741,77.0,0,40,1.0,0.0
15742,77.0,0,40,0.0,0.0
15743,57.0,0,30,3.0,0.0
15744,84.0,0,30,4.0,0.0
15745,57.0,45,30,4.0,0.0
15746,86.0,30,60,4.0,0.0
15747,77.0,0,40,1.0,0.0
15748,68.0,15,40,2.0,0.0
15749,59.0,0,40,3.0,0.0
15750,77.0,0,40,0.0,0.0
15751,59.0,0,60,4.0,0.0
15752,57.0,0,30,4.0,0.0
15753,57.0,0,30,3.0,0.0
15754,84.0,15,30,4.0,0.0
15755,65.0,15,40,2.0,0.0
15756,77.0,0,40,1.0,0.0
15757,77.0,0,40,0.0,0.0
15758,59.0,0,30,3.0,0.0
15759,59.0,30,30,4.0,0.0
15760,86.0,0,30,4.0,0.0
15761,77.0,15,30,0.0,0.0
15762,72.0,0,40,2.0,0.0
15763,60.0,0,30,4.0,0.0
15764,60.0,30,120,3.0,0.0
15765,72.0,15,40,1.0,0.0
15766,79.0,30,60,4.0,0.0
15767,59.0,0,30,4.0,0.0
15768,80.0,0,30,0.0,0.0
15769,79.0,0,30,0.0,0.0
15770,60.0,30,30,4.0,0.0
15771,72.0,0,60,4.0,0.0
15772,70.0,0,30,2.0,0.0
15773,70.0,0,30,1.0,0.0
15774,68.0,0,30,2.0,0.0
15775,62.0,0,30,4.0,0.0
15776,77.0,0,30,0.0,0.0
15777,68.0,0,30,1.0,0.0
15778,67.0,15,40,1.0,0.0
15779,63.0,15,30,4.0,0.0
15780,84.0,0,60,4.0,0.0
15781,67.0,0,40,2.0,0.0
15782,75.0,0,30,0.0,0.0
15783,77.0,30,30,0.0,0.0
15784,60.0,0,30,4.0,0.0
15785,65.0,0,40,2.0,0.0
15786,68.0,0,60,4.0,0.0
15787,75.0,15,30,0.0,0.0
15788,65.0,15,40,1.0,0.0
15789,84.0,11,90,4.0,0.0
15790,63.0,11,40,2.0,0.0
15791,67.0,11,60,4.0,0.0
15792,63.0,0,40,1.0,0.0
15793,77.0,11,15,0.0,0.0
15794,79.0,4,15,0.0,0.0
15795,83.0,0,30,4.0,0.0
15796,77.0,4,15,0.0,0.0
15797,79.0,4,15,0.0,0.0
15798,77.0,15,15,0.0,0.0
15799,62.0,0,40,1.0,0.0
15800,62.0,11,40,2.0,0.0
15801,65.0,30,60,4.0,0.0
15802,84.0,11,30,4.0,0.0
15803,79.0,4,15,0.0,0.0
15804,75.0,4,15,0.0,0.0
15805,83.0,0,30,4.0,0.0
15806,77.0,4,15,0.0,0.0
15807,84.0,15,30,4.0,0.0
15808,79.0,15,40,0.0,0.0
15809,63.0,0,40,1.0,0.0
15810,63.0,30,60,4.0,0.0
15811,63.0,0,40,2.0,0.0
15812,79.0,0,30,4.0,0.0
15813,75.0,15,30,0.0,0.0
15814,84.0,15,90,4.0,0.0
15815,48.0,0,30,4.0,0.0
15816,48.0,0,30,3.0,0.0
15817,60.0,15,40,1.0,0.0
15818,60.0,0,40,2.0,0.0
15819,50.0,0,30,4.0,0.0
15820,77.0,30,30,0.0,0.0
15821,50.0,0,30,3.0,0.0
15822,52.0,0,60,4.0,0.0
15823,79.0,0,40,0.0,0.0
15824,72.0,15,40,1.0,0.0
15825,52.0,0,40,3.0,0.0
15826,72.0,0,40,2.0,0.0
15827,86.0,30,30,4.0,0.0
15828,72.0,0,40,1.0,0.0
15829,50.0,0,30,3.0,0.0
15830,72.0,15,40,2.0,0.0
15831,78.0,0,30,0.0,0.0
15832,50.0,0,30,4.0,0.0
15833,84.0,15,30,4.0,0.0
15834,52.0,0,30,3.0,0.0
15835,82.0,0,30,4.0,0.0
15836,52.0,30,30,4.0,0.0
15837,79.0,0,30,0.0,0.0
15838,54.0,30,60,4.0,0.0
15839,54.0,15,40,3.0,0.0
15840,81.0,0,40,0.0,0.0
15841,72.0,0,40,1.0,0.0
15842,81.0,15,30,4.0,0.0
15843,72.0,0,40,2.0,0.0
15844,84.0,0,30,4.0,0.0
15845,72.0,0,40,2.0,0.0
15846,72.0,15,40,1.0,0.0
15847,82.0,0,30,4.0,0.0
15848,52.0,15,30,4.0,0.0
15849,52.0,0,30,3.0,0.0
15850,79.0,0,30,0.0,0.0
15851,54.0,0,30,3.0,0.0
15852,81.0,30,30,0.0,0.0
15853,81.0,0,30,4.0,0.0
15854,54.0,0,30,4.0,0.0
15855,55.0,30,60,4.0,0.0
15856,72.0,15,30,2.0,0.0
15857,55.0,15,40,3.0,0.0
15858,74.0,0,120,0.0,0.0
15859,79.0,0,60,4.0,0.0
15860,72.0,0,30,1.0,0.0
15861,75.0,0,30,1.0,0.0
15862,75.0,0,30,2.0,0.0
15863,74.0,0,30,1.0,0.0
15864,74.0,0,30,2.0,0.0
15865,53.0,0,30,3.0,0.0
15866,53.0,30,30,4.0,0.0
15867,67.0,0,30,4.0,0.0
15868,72.0,30,30,1.0,0.0
15869,51.0,0,30,4.0,0.0
15870,72.0,0,30,2.0,0.0
15871,51.0,0,30,3.0,0.0
15872,69.0,0,30,4.0,0.0
15873,70.0,15,30,4.0,0.0
15874,70.0,0,30,1.0,0.0
15875,50.0,15,40,3.0,0.0
15876,50.0,30,60,4.0,0.0
15877,70.0,0,30,2.0,0.0
15878,67.0,0,30,4.0,0.0
15879,72.0,0,30,1.0,0.0
15880,72.0,0,30,2.0,0.0
15881,70.0,0,30,1.0,0.0
15882,70.0,15,30,2.0,0.0
15883,48.0,0,60,4.0,0.0
15884,70.0,0,30,4.0,0.0
15885,48.0,15,40,3.0,0.0
15886,72.0,0,30,1.0,0.0
15887,74.0,0,30,4.0,0.0
15888,72.0,11,30,2.0,0.0
15889,46.0,11,60,4.0,0.0
15890,46.0,11,40,3.0,0.0
15891,79.0,11,30,4.0,0.0
15892,72.0,0,15,1.0,0.0
15893,72.0,15,15,2.0,0.0
15894,74.0,0,15,1.0,0.0
15895,74.0,4,15,2.0,0.0
15896,78.0,0,30,4.0,0.0
15897,72.0,4,15,1.0,0.0
15898,72.0,0,15,2.0,0.0
15899,74.0,0,15,2.0,0.0
15900,74.0,4,15,1.0,0.0
15901,45.0,45,60,4.0,0.0
15902,79.0,11,30,4.0,0.0
15903,72.0,0,15,2.0,0.0
15904,45.0,11,40,3.0,0.0
15905,72.0,15,15,1.0,0.0
15906,74.0,0,15,1.0,0.0
15907,74.0,4,15,2.0,0.0
15908,78.0,0,30,4.0,0.0
15909,70.0,0,15,1.0,0.0
15910,70.0,4,15,2.0,0.0
15911,72.0,4,15,2.0,0.0
15912,72.0,0,15,1.0,0.0
15913,79.0,0,60,4.0,0.0
15914,46.0,30,60,4.0,0.0
15915,74.0,0,40,1.0,0.0
15916,46.0,15,40,3.0,0.0
15917,74.0,0,40,2.0,0.0
15918,67.0,0,30,0.0,0.0
15919,67.0,0,30,4.0,0.0
15920,58.0,15,30,2.0,0.0
15921,67.0,0,30,1.0,0.0
15922,43.0,45,60,4.0,0.0
15923,43.0,15,40,3.0,0.0
15924,69.0,0,30,1.0,0.0
15925,69.0,0,30,0.0,0.0
15926,69.0,0,30,4.0,0.0
15927,60.0,0,30,2.0,0.0
15928,62.0,0,40,2.0,0.0
15929,55.0,30,60,4.0,0.0
15930,70.0,0,60,4.0,0.0
15931,70.0,0,40,0.0,0.0
15932,55.0,15,40,3.0,0.0
15933,70.0,0,40,1.0,0.0
15934,69.0,15,30,1.0,0.0
15935,55.0,15,40,3.0,0.0
15936,60.0,0,30,2.0,0.0
15937,55.0,45,60,4.0,0.0
15938,69.0,0,30,4.0,0.0
15939,69.0,0,30,0.0,0.0
15940,70.0,0,30,4.0,0.0
15941,62.0,0,30,2.0,0.0
15942,70.0,0,30,0.0,0.0
15943,70.0,0,30,1.0,0.0
15944,63.0,15,40,2.0,0.0
15945,55.0,0,40,3.0,0.0
15946,72.0,0,40,1.0,0.0
15947,72.0,0,40,0.0,0.0
15948,55.0,0,60,4.0,0.0
15949,72.0,30,60,4.0,0.0
15950,70.0,0,30,1.0,0.0
15951,55.0,15,40,3.0,0.0
15952,70.0,0,30,0.0,0.0
15953,62.0,0,30,2.0,0.0
15954,70.0,15,30,4.0,0.0
15955,55.0,0,60,4.0,0.0
15956,63.0,0,30,2.0,0.0
15957,72.0,0,30,0.0,0.0
15958,72.0,0,30,4.0,0.0
15959,72.0,30,30,1.0,0.0
15960,55.0,15,30,4.0,0.0
15961,74.0,30,60,4.0,0.0
15962,74.0,0,40,1.0,0.0
15963,55.0,0,30,3.0,0.0
15964,57.0,0,40,2.0,0.0
15965,74.0,15,40,0.0,0.0
15966,53.0,0,30,3.0,0.0
15967,53.0,0,30,4.0,0.0
15968,55.0,0,30,3.0,0.0
15969,70.0,15,40,2.0,0.0
15970,55.0,0,30,4.0,0.0
15971,70.0,0,30,0.0,0.0
15972,70.0,0,30,1.0,0.0
15973,70.0,15,30,4.0,0.0
15974,72.0,0,30,1.0,0.0
15975,57.0,0,30,4.0,0.0
15976,72.0,0,30,4.0,0.0
15977,72.0,0,30,0.0,0.0
15978,57.0,45,30,3.0,0.0
15979,65.0,0,40,2.0,0.0
15980,74.0,15,40,0.0,0.0
15981,58.0,0,40,3.0,0.0
15982,74.0,0,60,4.0,0.0
15983,74.0,0,40,1.0,0.0
15984,58.0,30,15,4.0,0.0
15985,72.0,0,30,0.0,0.0
15986,72.0,0,30,4.0,0.0
15987,72.0,15,30,1.0,0.0
15988,64.0,0,30,2.0,0.0
15989,58.0,15,40,3.0,0.0
15990,74.0,45,30,0.0,0.0
15991,74.0,0,30,1.0,0.0
15992,65.0,0,30,2.0,0.0
15993,74.0,0,30,4.0,0.0
15994,58.0,0,15,4.0,0.0
15995,67.0,0,40,2.0,0.0
15996,58.0,15,40,3.0,0.0
15997,76.0,0,40,1.0,0.0
15998,76.0,0,60,4.0,0.0
15999,76.0,0,40,0.0,0.0
16000,65.0,0,30,2.0,0.0
16001,74.0,0,30,0.0,0.0
16002,58.0,15,40,3.0,0.0
16003,74.0,0,30,1.0,0.0
16004,74.0,15,30,4.0,0.0
16005,58.0,0,60,4.0,0.0
16006,67.0,30,30,2.0,0.0
16007,76.0,0,30,4.0,0.0
16008,76.0,0,30,0.0,0.0
16009,76.0,0,30,1.0,0.0
16010,77.0,15,40,0.0,0.0
16011,77.0,0,40,1.0,0.0
16012,77.0,30,60,4.0,0.0
16013,58.0,0,30,4.0,0.0
16014,60.0,0,40,2.0,0.0
16015,58.0,15,30,3.0,0.0
16016,57.0,0,30,4.0,0.0
16017,57.0,0,30,3.0,0.0
16018,58.0,0,30,3.0,0.0
16019,74.0,0,30,1.0,0.0
16020,74.0,15,30,0.0,0.0
16021,58.0,0,30,4.0,0.0
16022,74.0,0,30,4.0,0.0
16023,74.0,15,40,2.0,0.0
16024,76.0,0,30,4.0,0.0
16025,60.0,0,30,4.0,0.0
16026,76.0,0,30,1.0,0.0
16027,60.0,0,30,3.0,0.0
16028,76.0,45,30,0.0,0.0
16029,62.0,0,40,3.0,0.0
16030,77.0,0,40,1.0,0.0
16031,77.0,0,40,0.0,0.0
16032,77.0,30,60,4.0,0.0
16033,62.0,0,60,4.0,0.0
16034,69.0,15,40,2.0,0.0
16035,76.0,0,30,4.0,0.0
16036,76.0,15,30,1.0,0.0
16037,76.0,0,30,0.0,0.0
16038,67.0,0,30,2.0,0.0
16039,62.0,15,40,3.0,0.0
16040,77.0,0,30,0.0,0.0
16041,69.0,0,30,2.0,0.0
16042,77.0,45,30,1.0,0.0
16043,77.0,0,30,4.0,0.0
16044,79.0,0,40,1.0,0.0
16045,62.0,15,40,3.0,0.0
16046,79.0,0,40,0.0,0.0
16047,62.0,0,15,4.0,0.0
16048,70.0,0,40,2.0,0.0
16049,79.0,30,60,4.0,0.0
16050,62.0,0,15,4.0,0.0
16051,77.0,0,30,0.0,0.0
16052,77.0,0,30,4.0,0.0
16053,77.0,0,30,1.0,0.0
16054,69.0,15,30,2.0,0.0
16055,62.0,15,40,3.0,0.0
16056,79.0,0,30,0.0,0.0
16057,79.0,0,30,4.0,0.0
16058,70.0,0,30,2.0,0.0
16059,79.0,0,30,1.0,0.0
16060,81.0,0,40,0.0,0.0
16061,64.0,45,120,2.0,0.0
16062,81.0,30,60,4.0,0.0
16063,62.0,45,15,4.0,0.0
16064,81.0,0,40,1.0,0.0
16065,62.0,15,40,3.0,0.0
16066,69.0,15,40,1.0,0.0
16067,60.0,15,30,3.0,0.0
16068,69.0,0,40,0.0,0.0
16069,60.0,0,30,4.0,0.0
16070,69.0,0,60,4.0,0.0
16071,58.0,0,30,4.0,0.0
16072,58.0,0,30,3.0,0.0
16073,81.0,0,60,4.0,0.0
16074,60.0,30,60,4.0,0.0
16075,81.0,0,40,1.0,0.0
16076,81.0,15,40,0.0,0.0
16077,60.0,0,40,3.0,0.0
16078,57.0,0,30,3.0,0.0
16079,79.0,0,60,4.0,0.0
16080,57.0,15,30,4.0,0.0
16081,79.0,15,40,0.0,0.0
16082,72.0,0,30,2.0,0.0
16083,79.0,0,40,1.0,0.0
16084,70.0,30,30,2.0,0.0
16085,58.0,0,30,3.0,0.0
16086,58.0,0,30,4.0,0.0
16087,60.0,0,60,4.0,0.0
16088,78.0,0,60,4.0,0.0
16089,78.0,0,40,1.0,0.0
16090,69.0,15,30,2.0,0.0
16091,78.0,15,40,0.0,0.0
16092,60.0,0,40,3.0,0.0
16093,67.0,30,30,2.0,0.0
16094,66.0,15,30,2.0,0.0
16095,74.0,0,40,0.0,0.0
16096,60.0,15,40,3.0,0.0
16097,74.0,0,60,4.0,0.0
16098,74.0,0,40,1.0,0.0
16099,60.0,0,60,4.0,0.0
16100,64.0,45,30,2.0,0.0
16101,79.0,30,60,4.0,0.0
16102,60.0,0,40,3.0,0.0
16103,79.0,0,40,0.0,0.0
16104,79.0,0,40,1.0,0.0
16105,60.0,0,60,4.0,0.0
16106,62.0,15,40,2.0,0.0
16107,67.0,30,30,0.0,0.0
16108,58.0,0,30,4.0,0.0
16109,67.0,0,30,4.0,0.0
16110,67.0,0,30,1.0,0.0
16111,64.0,0,30,2.0,0.0
16112,58.0,0,30,3.0,0.0
16113,66.0,0,30,1.0,0.0
16114,57.0,30,30,4.0,0.0
16115,66.0,0,30,4.0,0.0
16116,66.0,0,30,0.0,0.0
16117,66.0,0,30,2.0,0.0
16118,57.0,0,30,3.0,0.0
16119,67.0,0,40,1.0,0.0
16120,67.0,0,40,0.0,0.0
16121,58.0,15,40,3.0,0.0
16122,58.0,0,60,4.0,0.0
16123,67.0,0,60,4.0,0.0
16124,67.0,15,30,2.0,0.0
16125,69.0,30,30,2.0,0.0
16126,67.0,0,30,1.0,0.0
16127,43.0,0,60,4.0,0.0
16128,67.0,0,30,4.0,0.0
16129,43.0,15,40,3.0,0.0
16130,70.0,0,30,2.0,0.0
16131,67.0,15,30,0.0,0.0
16132,69.0,45,30,1.0,0.0
16133,72.0,0,30,2.0,0.0
16134,69.0,0,30,0.0,0.0
16135,69.0,0,30,4.0,0.0
16136,43.0,0,40,3.0,0.0
16137,74.0,0,60,2.0,0.0
16138,70.0,0,40,0.0,0.0
16139,43.0,0,60,4.0,0.0
16140,70.0,30,60,4.0,0.0
16141,70.0,15,40,1.0,0.0
16142,45.0,0,30,4.0,0.0
16143,72.0,0,30,4.0,0.0
16144,67.0,15,40,2.0,0.0
16145,72.0,15,30,1.0,0.0
16146,45.0,0,30,3.0,0.0
16147,72.0,0,30,0.0,0.0
16148,74.0,45,30,0.0,0.0
16149,46.0,0,30,4.0,0.0
16150,74.0,0,30,1.0,0.0
16151,74.0,0,30,4.0,0.0
16152,46.0,0,30,3.0,0.0
16153,48.0,30,60,4.0,0.0
16154,75.0,0,60,4.0,0.0
16155,75.0,0,40,0.0,0.0
16156,48.0,0,40,3.0,0.0
16157,67.0,15,40,2.0,0.0
16158,75.0,0,40,1.0,0.0
16159,63.0,0,30,2.0,0.0
16160,72.0,30,30,1.0,0.0
16161,50.0,0,30,3.0,0.0
16162,50.0,0,30,4.0,0.0
16163,72.0,0,30,4.0,0.0
16164,72.0,0,30,0.0,0.0
16165,51.0,0,30,4.0,0.0
16166,70.0,0,30,4.0,0.0
16167,62.0,0,30,2.0,0.0
16168,70.0,0,30,0.0,0.0
16169,51.0,45,30,3.0,0.0
16170,70.0,0,30,1.0,0.0
16171,69.0,0,40,0.0,0.0
16172,69.0,0,40,1.0,0.0
16173,53.0,0,60,4.0,0.0
16174,53.0,15,40,3.0,0.0
16175,69.0,30,60,4.0,0.0
16176,60.0,0,40,2.0,0.0
16177,65.0,0,30,4.0,0.0
16178,51.0,0,60,4.0,0.0
16179,65.0,0,30,0.0,0.0
16180,65.0,0,30,1.0,0.0
16181,51.0,15,40,3.0,0.0
16182,57.0,15,30,2.0,0.0
16183,58.0,0,30,2.0,0.0
16184,67.0,0,30,1.0,0.0
16185,67.0,45,30,0.0,0.0
16186,67.0,0,30,4.0,0.0
16187,60.0,15,40,2.0,0.0
16188,69.0,0,40,0.0,0.0
16189,69.0,0,60,4.0,0.0
16190,50.0,30,60,4.0,0.0
16191,69.0,0,40,1.0,0.0
16192,50.0,0,40,3.0,0.0
16193,70.0,0,30,4.0,0.0
16194,48.0,0,40,3.0,0.0
16195,70.0,15,30,1.0,0.0
16196,70.0,0,30,0.0,0.0
16197,53.0,15,40,2.0,0.0
16198,48.0,0,60,4.0,0.0
16199,72.0,45,30,0.0,0.0
16200,72.0,0,30,1.0,0.0
16201,72.0,0,30,4.0,0.0
16202,74.0,30,60,4.0,0.0
16203,46.0,0,60,4.0,0.0
16204,74.0,15,40,0.0,0.0
16205,74.0,0,40,1.0,0.0
16206,65.0,0,40,2.0,0.0
16207,46.0,0,40,3.0,0.0
16208,70.0,0,30,1.0,0.0
16209,62.0,0,30,2.0,0.0
16210,70.0,0,30,4.0,0.0
16211,48.0,30,30,4.0,0.0
16212,48.0,0,30,3.0,0.0
16213,70.0,0,30,0.0,0.0
16214,69.0,0,30,1.0,0.0
16215,50.0,45,30,3.0,0.0
16216,69.0,0,30,4.0,0.0
16217,69.0,0,30,0.0,0.0
16218,60.0,0,30,2.0,0.0
16219,50.0,0,30,4.0,0.0
16220,67.0,30,60,1.0,0.0
16221,58.0,15,40,2.0,0.0
16222,67.0,0,40,0.0,0.0
16223,51.0,0,60,4.0,0.0
16224,67.0,0,60,4.0,0.0
16225,51.0,0,40,3.0,0.0
16226,79.0,0,30,0.0,0.0
16227,79.0,0,30,4.0,0.0
16228,50.0,0,60,4.0,0.0
16229,50.0,0,40,3.0,0.0
16230,58.0,15,40,2.0,0.0
16231,79.0,15,30,1.0,0.0
16232,78.0,0,30,4.0,0.0
16233,78.0,0,30,0.0,0.0
16234,78.0,45,30,1.0,0.0
16235,79.0,0,60,4.0,0.0
16236,48.0,45,60,4.0,0.0
16237,79.0,0,40,1.0,0.0
16238,48.0,15,40,3.0,0.0
16239,79.0,0,40,0.0,0.0
16240,63.0,0,40,2.0,0.0
16241,75.0,45,60,4.0,0.0
16242,46.0,0,60,4.0,0.0
16243,75.0,0,40,0.0,0.0
16244,46.0,0,40,3.0,0.0
16245,67.0,0,40,2.0,0.0
16246,75.0,15,40,1.0,0.0
16247,45.0,15,40,3.0,0.0
16248,72.0,0,60,0.0,0.0
16249,72.0,0,60,4.0,0.0
16250,45.0,0,60,4.0,0.0
16251,63.0,0,120,2.0,0.0
16252,72.0,45,60,1.0,0.0
16253,71.0,45,60,1.0,0.0
16254,71.0,0,60,4.0,0.0
16255,43.0,0,60,4.0,0.0
16256,43.0,15,40,3.0,0.0
16257,71.0,0,60,0.0,0.0
16258,42.0,0,40,3.0,0.0
16259,72.0,0,40,0.0,0.0
16260,42.0,30,60,4.0,0.0
16261,72.0,0,60,4.0,0.0
16262,72.0,15,40,1.0,0.0
16263,60.0,0,30,2.0,0.0
16264,43.0,45,60,4.0,0.0
16265,75.0,0,30,4.0,0.0
16266,75.0,0,30,1.0,0.0
16267,43.0,15,40,3.0,0.0
16268,75.0,15,30,0.0,0.0
16269,58.0,0,30,2.0,0.0
16270,74.0,0,30,1.0,0.0
16271,74.0,0,30,4.0,0.0
16272,74.0,0,30,0.0,0.0
16273,75.0,0,40,0.0,0.0
16274,60.0,0,40,2.0,0.0
16275,45.0,15,40,3.0,0.0
16276,75.0,0,40,1.0,0.0
16277,45.0,0,60,4.0,0.0
16278,75.0,30,60,4.0,0.0
16279,46.0,0,60,4.0,0.0
16280,72.0,0,40,0.0,0.0
16281,72.0,0,60,4.0,0.0
16282,63.0,15,30,2.0,0.0
16283,72.0,15,40,1.0,0.0
16284,46.0,0,40,3.0,0.0
16285,62.0,45,30,2.0,0.0
16286,63.0,0,40,2.0,0.0
16287,48.0,0,60,4.0,0.0
16288,68.0,0,60,4.0,0.0
16289,68.0,45,60,1.0,0.0
16290,48.0,15,40,3.0,0.0
16291,68.0,0,60,0.0,0.0
16292,46.0,15,40,3.0,0.0
16293,67.0,0,60,4.0,0.0
16294,46.0,45,60,4.0,0.0
16295,62.0,0,40,2.0,0.0
16296,67.0,0,60,0.0,0.0
16297,67.0,0,60,1.0,0.0
16298,63.0,0,40,2.0,0.0
16299,68.0,0,40,1.0,0.0
16300,68.0,30,60,4.0,0.0
16301,48.0,0,60,4.0,0.0
16302,68.0,15,40,0.0,0.0
16303,48.0,0,40,3.0,0.0
16304,72.0,0,30,0.0,0.0
16305,65.0,15,40,2.0,0.0
16306,50.0,0,40,3.0,0.0
16307,72.0,0,30,4.0,0.0
16308,50.0,45,60,4.0,0.0
16309,72.0,15,30,1.0,0.0
16310,71.0,0,30,1.0,0.0
16311,71.0,0,30,4.0,0.0
16312,71.0,0,30,0.0,0.0
16313,72.0,0,40,1.0,0.0
16314,72.0,0,40,0.0,0.0
16315,51.0,0,60,4.0,0.0
16316,51.0,0,40,3.0,0.0
16317,72.0,45,60,4.0,0.0
16318,67.0,15,40,2.0,0.0
16319,63.0,0,40,2.0,0.0
16320,68.0,0,40,0.0,0.0
16321,68.0,0,40,1.0,0.0
16322,48.0,15,40,3.0,0.0
16323,48.0,0,60,4.0,0.0
16324,68.0,45,60,4.0,0.0
16325,66.0,0,40,1.0,0.0
16326,57.0,0,120,2.0,0.0
16327,66.0,30,60,4.0,0.0
16328,50.0,0,60,4.0,0.0
16329,66.0,15,40,0.0,0.0
16330,50.0,0,120,3.0,0.0
16331,63.0,0,30,1.0,0.0
16332,63.0,0,30,4.0,0.0
16333,63.0,0,30,0.0,0.0
16334,60.0,30,30,4.0,0.0
16335,62.0,0,30,4.0,0.0
16336,62.0,0,30,0.0,0.0
16337,62.0,45,30,1.0,0.0
16338,58.0,0,30,4.0,0.0
16339,63.0,0,40,0.0,0.0
16340,63.0,0,60,4.0,0.0
16341,63.0,15,40,1.0,0.0
16342,60.0,30,30,0.0,0.0
16343,60.0,0,30,1.0,0.0
16344,60.0,30,15,4.0,0.0
16345,57.0,0,30,4.0,0.0
16346,58.0,0,30,4.0,0.0
16347,58.0,45,30,1.0,0.0
16348,55.0,0,30,4.0,0.0
16349,58.0,0,30,0.0,0.0
16350,57.0,0,60,4.0,0.0
16351,60.0,45,60,4.0,0.0
16352,60.0,0,40,1.0,0.0
16353,60.0,15,40,0.0,0.0
16354,48.0,0,40,3.0,0.0
16355,66.0,0,40,1.0,0.0
16356,57.0,0,40,2.0,0.0
16357,66.0,45,60,4.0,0.0
16358,66.0,15,40,0.0,0.0
16359,48.0,0,60,4.0,0.0
16360,46.0,0,40,3.0,0.0
16361,67.0,0,40,1.0,0.0
16362,62.0,15,40,2.0,0.0
16363,46.0,0,60,4.0,0.0
16364,67.0,0,40,0.0,0.0
16365,67.0,30,60,4.0,0.0
16366,58.0,0,40,1.0,0.0
16367,45.0,0,30,3.0,0.0
16368,58.0,15,40,2.0,0.0
16369,58.0,0,40,0.0,0.0
16370,45.0,15,30,4.0,0.0
16371,58.0,0,60,4.0,0.0
16372,43.0,45,30,3.0,0.0
16373,43.0,0,30,4.0,0.0
16374,51.0,0,60,4.0,0.0
16375,60.0,0,40,0.0,0.0
16376,55.0,0,40,2.0,0.0
16377,60.0,0,40,1.0,0.0
16378,51.0,15,40,3.0,0.0
16379,60.0,30,60,4.0,0.0
16380,67.0,15,40,1.0,0.0
16381,67.0,0,40,0.0,0.0
16382,67.0,0,60,4.0,0.0
16383,50.0,15,30,4.0,0.0
16384,60.0,0,40,2.0,0.0
16385,50.0,0,30,3.0,0.0
16386,48.0,30,30,3.0,0.0
16387,48.0,0,30,4.0,0.0
16388,62.0,0,40,0.0,0.0
16389,57.0,15,40,2.0,0.0
16390,62.0,0,40,1.0,0.0
16391,50.0,0,40,3.0,0.0
16392,50.0,15,30,4.0,0.0
16393,62.0,0,60,4.0,0.0
16394,51.0,30,30,4.0,0.0
16395,48.0,0,40,3.0,0.0
16396,66.0,0,40,1.0,0.0
16397,66.0,45,60,4.0,0.0
16398,60.0,0,40,2.0,0.0
16399,66.0,15,40,0.0,0.0
16400,48.0,15,30,4.0,0.0
16401,50.0,0,30,4.0,0.0
16402,55.0,0,1260,1.0,0.0
16403,67.0,15,40,2.0,0.0
16404,55.0,30,1260,0.0,0.0
16405,47.0,30,120,3.0,0.0
16406,67.0,30,60,4.0,0.0
16407,47.0,0,120,4.0,0.0
16408,65.0,0,30,4.0,0.0
16409,65.0,30,30,2.0,0.0
16410,63.0,0,30,4.0,0.0
16411,63.0,0,30,2.0,0.0
16412,62.0,15,30,4.0,0.0
16413,62.0,15,40,2.0,0.0
16414,67.0,30,30,4.0,0.0
16415,50.0,15,40,3.0,0.0
16416,50.0,0,60,4.0,0.0
16417,60.0,15,30,4.0,0.0
16418,60.0,0,40,2.0,0.0
16419,67.0,30,30,4.0,0.0
16420,55.0,0,40,3.0,0.0
16421,55.0,0,60,4.0,0.0
16422,59.0,15,30,4.0,0.0
16423,59.0,15,40,2.0,0.0
16424,67.0,30,30,4.0,0.0
16425,57.0,15,30,4.0,0.0
16426,53.0,15,40,3.0,0.0
16427,57.0,0,40,2.0,0.0
16428,53.0,0,60,4.0,0.0
16429,67.0,30,30,4.0,0.0
16430,51.0,15,40,3.0,0.0
16431,51.0,0,60,4.0,0.0
16432,55.0,15,30,2.0,0.0
16433,55.0,0,30,4.0,0.0
16434,60.0,0,30,4.0,0.0
16435,60.0,30,30,2.0,0.0
16436,62.0,30,30,2.0,0.0
16437,50.0,0,30,4.0,0.0
16438,50.0,0,30,3.0,0.0
16439,62.0,0,30,4.0,0.0
16440,63.0,30,30,4.0,0.0
16441,63.0,0,30,2.0,0.0
16442,48.0,0,30,3.0,0.0
16443,48.0,0,30,4.0,0.0
16444,65.0,15,40,2.0,0.0
16445,47.0,0,40,3.0,0.0
16446,47.0,30,60,4.0,0.0
16447,65.0,15,30,4.0,0.0
16448,63.0,0,30,4.0,0.0
16449,50.0,15,40,3.0,0.0
16450,65.0,0,40,2.0,0.0
16451,50.0,30,60,4.0,0.0
16452,62.0,15,30,4.0,0.0
16453,60.0,0,30,4.0,0.0
16454,47.0,0,40,3.0,0.0
16455,65.0,15,40,2.0,0.0
16456,65.0,15,30,4.0,0.0
16457,47.0,30,60,4.0,0.0
16458,62.0,0,30,4.0,0.0
16459,65.0,0,40,2.0,0.0
16460,43.0,15,40,3.0,0.0
16461,43.0,0,60,4.0,0.0
16462,60.0,15,30,4.0,0.0
16463,59.0,30,30,4.0,0.0
16464,48.0,15,40,3.0,0.0
16465,48.0,0,60,4.0,0.0
16466,60.0,15,30,4.0,0.0
16467,65.0,0,40,2.0,0.0
16468,65.0,30,30,4.0,0.0
16469,63.0,15,30,2.0,0.0
16470,51.0,0,60,4.0,0.0
16471,63.0,0,30,4.0,0.0
16472,55.0,15,40,3.0,0.0
16473,62.0,30,30,4.0,0.0
16474,62.0,0,30,2.0,0.0
16475,63.0,15,30,4.0,0.0
16476,60.0,0,60,4.0,0.0
16477,63.0,15,40,2.0,0.0
16478,60.0,0,40,3.0,0.0
16479,67.0,30,30,4.0,0.0
16480,63.0,15,30,4.0,0.0
16481,60.0,0,60,4.0,0.0
16482,60.0,15,40,3.0,0.0
16483,60.0,0,30,2.0,0.0
16484,62.0,30,30,2.0,0.0
16485,62.0,0,30,4.0,0.0
16486,63.0,0,40,2.0,0.0
16487,60.0,15,40,3.0,0.0
16488,63.0,15,30,4.0,0.0
16489,60.0,30,60,4.0,0.0
16490,67.0,0,30,4.0,0.0
16491,58.0,15,30,4.0,0.0
16492,63.0,15,40,2.0,0.0
16493,58.0,0,30,3.0,0.0
16494,72.0,0,30,4.0,0.0
16495,57.0,0,30,3.0,0.0
16496,57.0,0,30,4.0,0.0
16497,66.0,30,30,4.0,0.0
16498,58.0,15,40,3.0,0.0
16499,63.0,0,40,2.0,0.0
16500,67.0,15,30,4.0,0.0
16501,58.0,0,60,4.0,0.0
16502,63.0,30,30,4.0,0.0
16503,58.0,0,30,3.0,0.0
16504,62.0,0,30,2.0,0.0
16505,62.0,30,30,4.0,0.0
16506,58.0,0,30,4.0,0.0
16507,57.0,0,30,3.0,0.0
16508,60.0,0,30,2.0,0.0
16509,60.0,0,30,4.0,0.0
16510,57.0,45,30,4.0,0.0
16511,62.0,0,40,2.0,0.0
16512,58.0,0,60,4.0,0.0
16513,62.0,0,60,4.0,0.0
16514,58.0,15,40,3.0,0.0
16515,70.0,0,30,2.0,0.0
16516,67.0,30,30,0.0,0.0
16517,67.0,0,30,1.0,0.0
16518,43.0,0,30,3.0,0.0
16519,67.0,0,30,4.0,0.0
16520,43.0,0,30,4.0,0.0
16521,69.0,0,30,4.0,0.0
16522,42.0,0,30,4.0,0.0
16523,42.0,30,30,3.0,0.0
16524,69.0,0,30,0.0,0.0
16525,69.0,0,30,1.0,0.0
16526,69.0,0,30,2.0,0.0
16527,70.0,0,40,0.0,0.0
16528,70.0,15,30,4.0,0.0
16529,43.0,0,60,4.0,0.0
16530,67.0,0,30,2.0,0.0
16531,70.0,0,40,1.0,0.0
16532,43.0,15,40,3.0,0.0
16533,67.0,30,30,4.0,0.0
16534,65.0,0,30,2.0,0.0
16535,63.0,0,30,2.0,0.0
16536,72.0,0,30,1.0,0.0
16537,45.0,0,30,3.0,0.0
16538,72.0,30,30,4.0,0.0
16539,45.0,0,30,4.0,0.0
16540,72.0,0,30,0.0,0.0
16541,74.0,0,30,0.0,0.0
16542,74.0,30,30,1.0,0.0
16543,46.0,0,30,3.0,0.0
16544,46.0,0,30,4.0,0.0
16545,74.0,0,30,4.0,0.0
16546,62.0,0,30,2.0,0.0
16547,75.0,0,40,0.0,0.0
16548,48.0,15,40,3.0,0.0
16549,75.0,0,40,1.0,0.0
16550,60.0,0,40,2.0,0.0
16551,48.0,0,60,4.0,0.0
16552,75.0,15,30,4.0,0.0
16553,74.0,30,30,4.0,0.0
16554,75.0,0,30,2.0,0.0
16555,72.0,0,30,1.0,0.0
16556,50.0,0,30,4.0,0.0
16557,72.0,30,30,4.0,0.0
16558,50.0,0,30,3.0,0.0
16559,72.0,0,30,0.0,0.0
16560,70.0,0,30,1.0,0.0
16561,51.0,0,30,3.0,0.0
16562,74.0,0,30,2.0,0.0
16563,70.0,0,30,0.0,0.0
16564,70.0,0,30,4.0,0.0
16565,51.0,30,30,4.0,0.0
16566,69.0,15,40,1.0,0.0
16567,69.0,0,40,0.0,0.0
16568,53.0,0,60,4.0,0.0
16569,72.0,0,30,2.0,0.0
16570,69.0,15,30,4.0,0.0
16571,53.0,0,40,3.0,0.0
16572,70.0,30,30,2.0,0.0
16573,67.0,0,30,4.0,0.0
16574,51.0,15,40,3.0,0.0
16575,51.0,0,60,4.0,0.0
16576,65.0,15,30,4.0,0.0
16577,69.0,0,30,2.0,0.0
16578,65.0,0,30,1.0,0.0
16579,65.0,0,30,0.0,0.0
16580,67.0,30,30,1.0,0.0
16581,67.0,0,30,2.0,0.0
16582,67.0,0,30,4.0,0.0
16583,67.0,0,30,0.0,0.0
16584,65.0,15,40,2.0,0.0
16585,69.0,0,40,0.0,0.0
16586,50.0,0,60,4.0,0.0
16587,69.0,30,60,1.0,0.0
16588,69.0,15,30,4.0,0.0
16589,50.0,0,40,3.0,0.0
16590,65.0,0,30,4.0,0.0
16591,63.0,15,40,2.0,0.0
16592,48.0,0,60,4.0,0.0
16593,70.0,15,30,4.0,0.0
16594,70.0,0,30,1.0,0.0
16595,70.0,0,30,0.0,0.0
16596,48.0,0,40,3.0,0.0
16597,72.0,0,30,1.0,0.0
16598,72.0,0,30,0.0,0.0
16599,72.0,45,30,4.0,0.0
16600,74.0,15,40,0.0,0.0
16601,74.0,0,40,1.0,0.0
16602,46.0,30,60,4.0,0.0
16603,62.0,0,40,2.0,0.0
16604,74.0,0,60,4.0,0.0
16605,46.0,0,40,3.0,0.0
16606,70.0,0,30,1.0,0.0
16607,70.0,0,30,0.0,0.0
16608,70.0,0,30,4.0,0.0
16609,48.0,0,30,3.0,0.0
16610,64.0,30,30,2.0,0.0
16611,48.0,0,30,4.0,0.0
16612,50.0,0,30,4.0,0.0
16613,69.0,0,30,4.0,0.0
16614,50.0,0,30,3.0,0.0
16615,69.0,45,30,1.0,0.0
16616,66.0,0,30,2.0,0.0
16617,69.0,0,30,0.0,0.0
16618,51.0,0,60,4.0,0.0
16619,51.0,30,60,3.0,0.0
16620,67.0,15,40,2.0,0.0
16621,67.0,0,60,0.0,0.0
16622,67.0,0,60,1.0,0.0
16623,67.0,0,30,4.0,0.0
16624,66.0,0,30,4.0,0.0
16625,67.0,30,30,2.0,0.0
16626,66.0,45,30,2.0,0.0
16627,67.0,30,60,4.0,0.0
16628,67.0,15,40,2.0,0.0
16629,70.0,0,30,4.0,0.0
16630,63.0,30,60,4.0,0.0
16631,63.0,15,40,2.0,0.0
16632,79.0,15,30,4.0,0.0
16633,70.0,0,30,4.0,0.0
16634,60.0,0,60,2.0,0.0
16635,53.0,0,60,4.0,0.0
16636,70.0,30,30,4.0,0.0
16637,65.0,0,120,0.0,0.0
16638,60.0,0,120,1.0,0.0
16639,60.0,0,60,4.0,0.0
16640,53.0,0,120,3.0,0.0
16641,79.0,30,30,4.0,0.0
16642,59.0,30,60,2.0,0.0
16643,68.0,30,30,4.0,0.0
16644,59.0,0,60,4.0,0.0
16645,67.0,0,30,4.0,0.0
16646,68.0,15,30,4.0,0.0
16647,60.0,30,60,4.0,0.0
16648,60.0,15,40,2.0,0.0
16649,77.0,0,30,4.0,0.0
16650,63.0,30,30,4.0,0.0
16651,63.0,0,30,2.0,0.0
16652,67.0,0,30,4.0,0.0
16653,62.0,0,30,2.0,0.0
16654,65.0,30,30,4.0,0.0
16655,62.0,0,30,4.0,0.0
16656,63.0,15,40,2.0,0.0
16657,63.0,30,60,4.0,0.0
16658,67.0,15,30,4.0,0.0
16659,75.0,0,30,4.0,0.0
16660,65.0,15,30,4.0,0.0
16661,60.0,0,60,4.0,0.0
16662,60.0,15,40,2.0,0.0
16663,63.0,30,30,4.0,0.0
16664,56.0,0,60,4.0,0.0
16665,56.0,30,60,2.0,0.0
16666,60.0,0,120,1.0,0.0
16667,51.0,30,120,3.0,0.0
16668,51.0,0,60,4.0,0.0
16669,65.0,30,30,4.0,0.0
16670,65.0,0,120,0.0,0.0
16671,74.0,0,30,4.0,0.0
16672,55.0,0,60,4.0,0.0
16673,72.0,30,30,4.0,0.0
16674,55.0,0,60,2.0,0.0
16675,71.0,0,30,4.0,0.0
16676,56.0,15,40,2.0,0.0
16677,72.0,15,30,4.0,0.0
16678,56.0,30,60,4.0,0.0
16679,75.0,0,30,4.0,0.0
16680,68.0,30,30,4.0,0.0
16681,60.0,0,30,2.0,0.0
16682,60.0,0,30,4.0,0.0
16683,67.0,30,30,4.0,0.0
16684,59.0,0,30,4.0,0.0
16685,59.0,0,30,2.0,0.0
16686,60.0,30,60,4.0,0.0
16687,60.0,15,40,2.0,0.0
16688,68.0,15,30,4.0,0.0
16689,72.0,0,30,4.0,0.0
16690,56.0,0,60,4.0,0.0
16691,75.0,15,30,4.0,0.0
16692,56.0,15,40,2.0,0.0
16693,72.0,45,30,4.0,0.0
16694,81.0,30,60,4.0,0.0
16695,54.0,0,60,4.0,0.0
16696,54.0,15,40,2.0,0.0
16697,75.0,0,30,4.0,0.0
16698,75.0,0,30,1.0,0.0
16699,75.0,0,30,0.0,0.0
16700,63.0,0,30,4.0,0.0
16701,63.0,0,30,2.0,0.0
16702,63.0,30,30,3.0,0.0
16703,74.0,0,30,0.0,0.0
16704,74.0,0,30,4.0,0.0
16705,62.0,0,30,4.0,0.0
16706,62.0,0,30,2.0,0.0
16707,74.0,45,30,1.0,0.0
16708,62.0,0,30,3.0,0.0
16709,75.0,0,40,0.0,0.0
16710,75.0,30,60,4.0,0.0
16711,63.0,0,60,4.0,0.0
16712,63.0,0,40,3.0,0.0
16713,75.0,0,40,1.0,0.0
16714,63.0,15,40,2.0,0.0
16715,72.0,0,30,1.0,0.0
16716,60.0,30,30,2.0,0.0
16717,60.0,0,30,4.0,0.0
16718,60.0,0,30,3.0,0.0
16719,72.0,0,30,0.0,0.0
16720,72.0,0,30,4.0,0.0
16721,59.0,0,30,4.0,0.0
16722,71.0,0,30,4.0,0.0
16723,59.0,45,30,3.0,0.0
16724,59.0,0,30,2.0,0.0
16725,71.0,0,30,1.0,0.0
16726,71.0,0,30,0.0,0.0
16727,60.0,0,60,4.0,0.0
16728,72.0,0,40,0.0,0.0
16729,60.0,0,40,3.0,0.0
16730,60.0,15,40,2.0,0.0
16731,72.0,45,60,4.0,0.0
16732,72.0,0,40,1.0,0.0
16733,57.0,0,40,2.0,0.0
16734,78.0,0,40,0.0,0.0
16735,48.0,0,40,3.0,0.0
16736,78.0,0,60,4.0,0.0
16737,48.0,20,60,4.0,0.0
16738,78.0,15,40,1.0,0.0
16739,79.0,0,40,0.0,0.0
16740,79.0,15,40,1.0,0.0
16741,46.0,0,40,3.0,0.0
16742,81.0,20,20,4.0,0.0
16743,46.0,0,60,4.0,0.0
16744,62.0,0,40,2.0,0.0
16745,79.0,5,20,4.0,0.0
16746,78.0,30,20,4.0,0.0
16747,79.0,15,30,4.0,0.0
16748,43.0,15,60,4.0,0.0
16749,67.0,0,30,2.0,0.0
16750,43.0,0,40,3.0,0.0
16751,70.0,15,40,1.0,0.0
16752,70.0,0,40,0.0,0.0
16753,81.0,0,30,4.0,0.0
16754,65.0,0,30,2.0,0.0
16755,48.0,15,40,3.0,0.0
16756,48.0,0,60,4.0,0.0
16757,72.0,0,40,1.0,0.0
16758,63.0,0,40,2.0,0.0
16759,72.0,0,40,0.0,0.0
16760,81.0,15,15,4.0,0.0
16761,82.0,15,15,4.0,0.0
16762,81.0,0,15,4.0,0.0
16763,82.0,15,15,4.0,0.0
16764,79.0,0,40,1.0,0.0
16765,60.0,0,40,2.0,0.0
16766,45.0,0,40,3.0,0.0
16767,79.0,15,40,0.0,0.0
16768,45.0,0,60,4.0,0.0
16769,81.0,15,15,4.0,0.0
16770,82.0,15,15,4.0,0.0
16771,81.0,0,15,4.0,0.0
16772,82.0,15,15,4.0,0.0
16773,69.0,0,40,1.0,0.0
16774,50.0,0,60,4.0,0.0
16775,81.0,15,15,4.0,0.0
16776,50.0,0,40,3.0,0.0
16777,69.0,0,40,0.0,0.0
16778,57.0,15,40,2.0,0.0
16779,82.0,15,15,4.0,0.0
16780,81.0,0,15,4.0,0.0
16781,82.0,45,15,4.0,0.0
16782,62.0,0,40,2.0,0.0
16783,78.0,15,40,1.0,0.0
16784,78.0,0,40,0.0,0.0
16785,38.0,0,40,3.0,0.0
16786,38.0,45,60,4.0,0.0
16787,79.0,0,15,4.0,0.0
16788,43.0,15,40,3.0,0.0
16789,43.0,0,120,4.0,0.0
16790,79.0,0,120,0.0,0.0
16791,79.0,45,720,1.0,0.0
16792,58.0,15,120,2.0,0.0
16793,82.0,0,30,4.0,0.0
16794,50.0,15,30,3.0,0.0
16795,81.0,0,30,4.0,0.0
16796,48.0,30,30,3.0,0.0
16797,82.0,0,600,0.0,0.0
16798,82.0,15,30,4.0,0.0
16799,62.0,0,240,2.0,0.0
16800,50.0,15,40,3.0,0.0
16801,84.0,30,30,4.0,0.0
16802,82.0,0,30,4.0,0.0
16803,55.0,0,30,4.0,0.0
16804,55.0,30,30,3.0,0.0
16805,57.0,30,30,4.0,0.0
16806,81.0,0,30,4.0,0.0
16807,54.0,0,30,3.0,0.0
16808,55.0,15,40,3.0,0.0
16809,58.0,0,60,4.0,0.0
16810,79.0,15,30,4.0,0.0
16811,81.0,30,30,4.0,0.0
16812,82.0,15,30,4.0,0.0
16813,55.0,30,60,4.0,0.0
16814,43.0,15,40,3.0,0.0
16815,79.0,0,30,4.0,0.0
16816,64.0,0,360,2.0,0.0
16817,48.0,15,40,3.0,0.0
16818,60.0,30,60,4.0,0.0
16819,76.0,15,30,4.0,0.0
16820,74.0,0,30,4.0,0.0
16821,55.0,30,60,4.0,0.0
16822,72.0,15,30,4.0,0.0
16823,50.0,15,40,3.0,0.0
16824,70.0,0,30,4.0,0.0
16825,52.0,15,40,3.0,0.0
16826,52.0,30,60,4.0,0.0
16827,72.0,15,30,4.0,0.0
16828,74.0,0,30,4.0,0.0
16829,48.0,15,40,3.0,0.0
16830,72.0,15,30,4.0,0.0
16831,48.0,30,60,4.0,0.0
16832,70.0,0,30,4.0,0.0
16833,50.0,15,40,3.0,0.0
16834,50.0,30,60,4.0,0.0
16835,69.0,15,30,4.0,0.0
16836,70.0,0,30,4.0,0.0
16837,52.0,0,60,4.0,0.0
16838,72.0,15,30,4.0,0.0
16839,52.0,15,40,3.0,0.0
16840,69.0,0,30,4.0,0.0
16841,41.0,15,40,3.0,0.0
16842,60.0,15,120,2.0,0.0
16843,53.0,0,60,4.0,0.0
16844,65.0,30,60,4.0,0.0
16845,81.0,45,720,0.0,0.0
16846,77.0,0,720,1.0,0.0
16847,81.0,0,30,4.0,0.0
16848,48.0,15,30,3.0,0.0
16849,41.0,0,60,4.0,0.0
16850,79.0,0,30,4.0,0.0
16851,46.0,30,30,3.0,0.0
16852,81.0,15,30,4.0,0.0
16853,65.0,0,600,2.0,0.0
16854,48.0,15,40,3.0,0.0
16855,82.0,30,30,4.0,0.0
16856,53.0,30,30,3.0,0.0
16857,81.0,0,30,4.0,0.0
16858,53.0,0,30,4.0,0.0
16859,55.0,30,30,4.0,0.0
16860,79.0,0,30,4.0,0.0
16861,52.0,0,30,3.0,0.0
16862,53.0,15,40,3.0,0.0
16863,57.0,30,60,4.0,0.0
16864,77.0,15,30,4.0,0.0
16865,79.0,0,30,4.0,0.0
16866,41.0,15,40,3.0,0.0
16867,53.0,30,60,4.0,0.0
16868,81.0,15,30,4.0,0.0
16869,77.0,0,30,4.0,0.0
16870,74.0,15,30,4.0,0.0
16871,58.0,30,60,4.0,0.0
16872,46.0,15,40,3.0,0.0
16873,72.0,0,30,4.0,0.0
16874,53.0,30,60,4.0,0.0
16875,70.0,15,30,4.0,0.0
16876,48.0,15,40,3.0,0.0
16877,69.0,0,30,4.0,0.0
16878,50.0,15,40,3.0,0.0
16879,50.0,30,60,4.0,0.0
16880,70.0,15,30,4.0,0.0
16881,72.0,0,30,4.0,0.0
16882,46.0,15,40,3.0,0.0
16883,46.0,0,60,4.0,0.0
16884,70.0,15,30,4.0,0.0
16885,69.0,30,30,4.0,0.0
16886,67.0,15,30,4.0,0.0
16887,48.0,30,60,4.0,0.0
16888,48.0,15,40,3.0,0.0
16889,69.0,0,30,4.0,0.0
16890,50.0,15,40,3.0,0.0
16891,50.0,0,60,4.0,0.0
16892,70.0,15,30,4.0,0.0
16893,67.0,0,30,4.0,0.0
16894,52.0,30,60,4.0,0.0
16895,64.0,0,60,4.0,0.0
16896,76.0,0,720,1.0,0.0
16897,67.0,30,360,2.0,0.0
16898,79.0,30,720,0.0,0.0
16899,40.0,15,40,3.0,0.0
16900,79.0,30,30,4.0,0.0
16901,47.0,0,30,3.0,0.0
16902,40.0,0,60,4.0,0.0
16903,45.0,30,30,3.0,0.0
16904,77.0,0,30,4.0,0.0
16905,79.0,15,30,4.0,0.0
16906,47.0,15,40,3.0,0.0
16907,81.0,30,30,4.0,0.0
16908,52.0,30,30,3.0,0.0
16909,79.0,0,30,4.0,0.0
16910,52.0,0,30,4.0,0.0
16911,53.0,0,30,4.0,0.0
16912,50.0,30,30,3.0,0.0
16913,77.0,0,30,4.0,0.0
16914,76.0,15,30,4.0,0.0
16915,55.0,0,60,4.0,0.0
16916,52.0,15,40,3.0,0.0
16917,77.0,30,30,4.0,0.0
16918,79.0,15,30,4.0,0.0
16919,40.0,15,40,3.0,0.0
16920,52.0,0,60,4.0,0.0
16921,76.0,0,30,4.0,0.0
16922,57.0,30,60,4.0,0.0
16923,73.0,15,30,4.0,0.0
16924,45.0,15,40,3.0,0.0
16925,71.0,0,30,4.0,0.0
16926,69.0,15,30,4.0,0.0
16927,52.0,30,60,4.0,0.0
16928,47.0,15,40,3.0,0.0
16929,68.0,0,30,4.0,0.0
16930,49.0,15,40,3.0,0.0
16931,69.0,15,30,4.0,0.0
16932,61.0,30,60,4.0,0.0
16933,70.0,0,30,4.0,0.0
16934,57.0,30,60,4.0,0.0
16935,45.0,15,40,3.0,0.0
16936,69.0,15,30,4.0,0.0
16937,67.0,0,30,4.0,0.0
16938,59.0,0,60,4.0,0.0
16939,65.0,15,30,4.0,0.0
16940,47.0,15,40,3.0,0.0
16941,67.0,30,30,4.0,0.0
16942,49.0,15,40,3.0,0.0
16943,61.0,0,60,4.0,0.0
16944,69.0,15,30,4.0,0.0
16945,65.0,0,30,4.0,0.0
16946,69.0,0,15,2.0,0.0
16947,77.0,0,120,4.0,0.0
16948,74.0,0,120,4.0,0.0
16949,74.0,0,120,1.0,0.0
16950,69.0,0,120,4.0,0.0
16951,62.0,30,30,4.0,0.0
16952,38.0,30,120,3.0,0.0
16953,77.0,0,120,0.0,0.0
16954,64.0,30,30,4.0,0.0
16955,65.0,30,30,4.0,0.0
16956,67.0,0,30,4.0,0.0
16957,69.0,30,30,4.0,0.0
16958,71.0,30,30,4.0,0.0
16959,73.0,30,30,4.0,0.0
16960,74.0,30,30,4.0,0.0
16961,73.0,30,30,4.0,0.0
16962,74.0,30,30,4.0,0.0
16963,73.0,30,30,4.0,0.0
16964,74.0,60,30,4.0,0.0
16965,64.0,0,120,2.0,0.0
16966,73.0,0,120,4.0,0.0
16967,64.0,30,60,4.0,0.0
16968,79.0,0,120,0.0,0.0
16969,73.0,30,120,1.0,0.0
16970,79.0,0,90,4.0,0.0
16971,65.0,30,30,4.0,0.0
16972,67.0,0,30,4.0,0.0
16973,69.0,30,30,4.0,0.0
16974,71.0,30,30,4.0,0.0
16975,73.0,30,30,4.0,0.0
16976,74.0,30,30,4.0,0.0
16977,73.0,30,30,4.0,0.0
16978,74.0,30,30,4.0,0.0
16979,73.0,30,30,4.0,0.0
16980,74.0,30,30,4.0,0.0
16981,81.0,0,120,0.0,0.0
16982,65.0,0,120,2.0,0.0
16983,74.0,0,120,1.0,0.0
16984,65.0,30,30,4.0,0.0
16985,81.0,0,120,4.0,0.0
16986,74.0,30,90,4.0,0.0
16987,64.0,30,30,4.0,0.0
16988,65.0,30,30,4.0,0.0
16989,67.0,0,30,4.0,0.0
16990,69.0,30,30,4.0,0.0
16991,71.0,30,30,4.0,0.0
16992,73.0,30,30,4.0,0.0
16993,74.0,30,30,4.0,0.0
16994,73.0,30,30,4.0,0.0
16995,74.0,30,30,4.0,0.0
16996,73.0,60,30,4.0,0.0
16997,74.0,0,150,4.0,0.0
16998,67.0,30,30,4.0,0.0
16999,79.0,0,120,4.0,0.0
17000,82.0,0,120,4.0,0.0
17001,82.0,30,120,0.0,0.0
17002,67.0,0,120,2.0,0.0
17003,74.0,0,120,1.0,0.0
17004,66.0,30,30,4.0,0.0
17005,67.0,30,30,4.0,0.0
17006,69.0,0,30,4.0,0.0
17007,70.0,30,30,4.0,0.0
17008,72.0,30,30,4.0,0.0
17009,74.0,30,30,4.0,0.0
17010,76.0,30,30,4.0,0.0
17011,78.0,30,30,4.0,0.0
17012,79.0,30,30,4.0,0.0
17013,78.0,30,30,4.0,0.0
17014,79.0,60,30,4.0,0.0
17015,78.0,0,120,0.0,0.0
17016,69.0,0,120,2.0,0.0
17017,72.0,30,120,1.0,0.0
17018,69.0,30,60,4.0,0.0
17019,78.0,0,120,4.0,0.0
17020,84.0,0,90,4.0,0.0
17021,70.0,30,30,4.0,0.0
17022,72.0,0,30,4.0,0.0
17023,74.0,30,30,4.0,0.0
17024,76.0,30,30,4.0,0.0
17025,78.0,30,30,4.0,0.0
17026,79.0,30,30,4.0,0.0
17027,78.0,30,30,4.0,0.0
17028,79.0,30,30,4.0,0.0
17029,78.0,30,30,4.0,0.0
17030,79.0,30,30,4.0,0.0
17031,70.0,30,30,4.0,0.0
17032,86.0,0,120,4.0,0.0
17033,74.0,0,120,1.0,0.0
17034,79.0,0,120,0.0,0.0
17035,70.0,0,120,2.0,0.0
17036,69.0,30,30,4.0,0.0
17037,79.0,0,90,4.0,0.0
17038,70.0,30,30,4.0,0.0
17039,72.0,30,30,4.0,0.0
17040,74.0,30,30,4.0,0.0
17041,76.0,30,30,4.0,0.0
17042,78.0,30,30,4.0,0.0
17043,79.0,30,30,4.0,0.0
17044,78.0,30,30,4.0,0.0
17045,79.0,30,30,4.0,0.0
17046,78.0,30,30,4.0,0.0
17047,79.0,30,30,4.0,0.0
17048,74.0,0,120,1.0,0.0
17049,80.0,0,120,0.0,0.0
17050,71.0,30,30,4.0,0.0
17051,86.0,0,120,4.0,0.0
17052,71.0,0,120,2.0,0.0
17053,69.0,30,30,4.0,0.0
17054,80.0,30,90,4.0,0.0
17055,71.0,30,30,4.0,0.0
17056,72.0,0,30,4.0,0.0
17057,74.0,30,30,4.0,0.0
17058,76.0,30,30,4.0,0.0
17059,77.0,30,30,4.0,0.0
17060,81.0,30,30,4.0,0.0
17061,80.0,30,30,4.0,0.0
17062,81.0,30,30,4.0,0.0
17063,80.0,60,30,4.0,0.0
17064,81.0,0,150,4.0,0.0
17065,76.0,0,120,1.0,0.0
17066,81.0,0,120,0.0,0.0
17067,72.0,30,30,4.0,0.0
17068,72.0,0,120,2.0,0.0
17069,71.0,30,30,4.0,0.0
17070,72.0,30,30,4.0,0.0
17071,74.0,30,30,4.0,0.0
17072,76.0,0,15,4.0,0.0
17073,77.0,30,30,4.0,0.0
17074,79.0,30,30,4.0,0.0
17075,81.0,15,30,4.0,0.0
17076,82.0,15,15,4.0,0.0
17077,81.0,15,15,4.0,0.0
17078,79.0,15,15,4.0,0.0
17079,77.0,15,15,4.0,0.0
17080,76.0,15,15,4.0,0.0
17081,74.0,15,15,4.0,0.0
17082,73.0,15,15,4.0,0.0
17083,71.0,30,15,4.0,0.0
17084,82.0,0,40,0.0,0.0
17085,76.0,15,40,1.0,0.0
17086,73.0,15,30,4.0,0.0
17087,73.0,0,40,2.0,0.0
17088,74.0,30,30,4.0,0.0
17089,82.0,15,40,0.0,0.0
17090,76.0,15,30,4.0,0.0
17091,76.0,0,40,1.0,0.0
17092,73.0,0,40,2.0,0.0
17093,79.0,30,30,4.0,0.0
17094,76.0,15,30,4.0,0.0
17095,82.0,15,40,0.0,0.0
17096,73.0,0,40,2.0,0.0
17097,79.0,0,40,1.0,0.0
17098,77.0,30,30,4.0,0.0
17099,82.0,15,40,0.0,0.0
17100,73.0,0,40,2.0,0.0
17101,79.0,0,40,1.0,0.0
17102,79.0,15,30,4.0,0.0
17103,82.0,30,30,4.0,0.0
17104,79.0,15,30,4.0,0.0
17105,73.0,0,40,2.0,0.0
17106,76.0,15,40,1.0,0.0
17107,82.0,0,40,0.0,0.0
17108,81.0,30,30,4.0,0.0
17109,73.0,15,40,2.0,0.0
17110,82.0,15,30,4.0,0.0
17111,82.0,0,40,0.0,0.0
17112,76.0,0,40,1.0,0.0
17113,85.0,30,30,4.0,0.0
17114,81.0,0,40,0.0,0.0
17115,78.0,15,30,4.0,0.0
17116,72.0,0,40,2.0,0.0
17117,78.0,15,40,1.0,0.0
17118,79.0,30,30,4.0,0.0
17119,72.0,0,40,2.0,0.0
17120,81.0,15,30,4.0,0.0
17121,78.0,15,40,1.0,0.0
17122,81.0,0,40,0.0,0.0
17123,86.0,30,30,4.0,0.0
17124,72.0,0,40,2.0,0.0
17125,78.0,15,40,1.0,0.0
17126,74.0,15,30,4.0,0.0
17127,81.0,0,40,0.0,0.0
17128,76.0,30,30,4.0,0.0
17129,81.0,0,40,0.0,0.0
17130,78.0,15,30,4.0,0.0
17131,72.0,15,40,2.0,0.0
17132,78.0,0,40,1.0,0.0
17133,81.0,30,30,4.0,0.0
17134,78.0,0,40,1.0,0.0
17135,72.0,0,40,2.0,0.0
17136,81.0,15,40,0.0,0.0
17137,72.0,15,30,4.0,0.0
17138,74.0,30,30,4.0,0.0
17139,75.0,15,30,4.0,0.0
17140,72.0,15,40,2.0,0.0
17141,78.0,0,40,1.0,0.0
17142,81.0,0,40,0.0,0.0
17143,78.0,30,30,4.0,0.0
17144,71.0,15,40,2.0,0.0
17145,71.0,15,30,4.0,0.0
17146,77.0,0,40,1.0,0.0
17147,80.0,0,40,0.0,0.0
17148,72.0,30,30,4.0,0.0
17149,71.0,0,40,2.0,0.0
17150,74.0,15,30,4.0,0.0
17151,80.0,0,40,0.0,0.0
17152,77.0,15,40,1.0,0.0
17153,77.0,30,30,4.0,0.0
17154,71.0,0,40,2.0,0.0
17155,74.0,15,30,4.0,0.0
17156,80.0,0,40,0.0,0.0
17157,77.0,15,40,1.0,0.0
17158,76.0,30,30,4.0,0.0
17159,71.0,0,40,2.0,0.0
17160,77.0,0,40,1.0,0.0
17161,80.0,15,40,0.0,0.0
17162,77.0,15,30,4.0,0.0
17163,80.0,30,30,4.0,0.0
17164,71.0,0,40,2.0,0.0
17165,80.0,15,40,0.0,0.0
17166,77.0,15,30,4.0,0.0
17167,74.0,0,40,1.0,0.0
17168,79.0,30,30,4.0,0.0
17169,80.0,15,30,4.0,0.0
17170,74.0,0,40,1.0,0.0
17171,80.0,15,40,0.0,0.0
17172,71.0,0,40,2.0,0.0
17173,83.0,30,30,4.0,0.0
17174,70.0,0,40,2.0,0.0
17175,76.0,15,30,4.0,0.0
17176,79.0,15,40,0.0,0.0
17177,76.0,0,40,1.0,0.0
17178,77.0,30,30,4.0,0.0
17179,79.0,15,30,4.0,0.0
17180,79.0,15,40,0.0,0.0
17181,76.0,0,40,1.0,0.0
17182,70.0,0,40,2.0,0.0
17183,84.0,30,30,4.0,0.0
17184,72.0,15,30,4.0,0.0
17185,70.0,0,40,2.0,0.0
17186,76.0,0,40,1.0,0.0
17187,79.0,15,40,0.0,0.0
17188,74.0,30,30,4.0,0.0
17189,70.0,15,40,2.0,0.0
17190,76.0,0,40,1.0,0.0
17191,79.0,0,40,0.0,0.0
17192,76.0,15,30,4.0,0.0
17193,79.0,30,30,4.0,0.0
17194,70.0,15,30,4.0,0.0
17195,79.0,0,40,0.0,0.0
17196,76.0,15,40,1.0,0.0
17197,70.0,0,40,2.0,0.0
17198,72.0,30,30,4.0,0.0
17199,76.0,0,40,1.0,0.0
17200,79.0,0,40,0.0,0.0
17201,73.0,15,30,4.0,0.0
17202,70.0,15,40,2.0,0.0
17203,76.0,30,30,4.0,0.0
17204,69.0,0,40,2.0,0.0
17205,75.0,15,40,1.0,0.0
17206,78.0,0,40,0.0,0.0
17207,69.0,15,30,4.0,0.0
17208,70.0,30,30,4.0,0.0
17209,78.0,0,40,0.0,0.0
17210,69.0,15,40,2.0,0.0
17211,72.0,15,30,4.0,0.0
17212,75.0,0,40,1.0,0.0
17213,75.0,30,30,4.0,0.0
17214,69.0,15,40,2.0,0.0
17215,78.0,0,40,0.0,0.0
17216,72.0,15,30,4.0,0.0
17217,75.0,0,40,1.0,0.0
17218,74.0,30,30,4.0,0.0
17219,78.0,15,40,0.0,0.0
17220,69.0,0,40,2.0,0.0
17221,75.0,0,40,1.0,0.0
17222,75.0,15,30,4.0,0.0
17223,78.0,30,30,4.0,0.0
17224,75.0,15,30,4.0,0.0
17225,72.0,15,40,1.0,0.0
17226,69.0,0,40,2.0,0.0
17227,78.0,0,40,0.0,0.0
17228,77.0,30,30,4.0,0.0
17229,69.0,15,40,2.0,0.0
17230,78.0,0,40,0.0,0.0
17231,72.0,0,40,1.0,0.0
17232,78.0,15,30,4.0,0.0
17233,81.0,30,30,4.0,0.0
17234,68.0,0,40,2.0,0.0
17235,77.0,0,40,0.0,0.0
17236,74.0,15,40,1.0,0.0
17237,74.0,15,30,4.0,0.0
17238,75.0,30,30,4.0,0.0
17239,68.0,0,40,2.0,0.0
17240,74.0,15,40,1.0,0.0
17241,77.0,0,40,0.0,0.0
17242,77.0,15,30,4.0,0.0
17243,82.0,30,30,4.0,0.0
17244,77.0,0,40,0.0,0.0
17245,74.0,15,40,1.0,0.0
17246,70.0,15,30,4.0,0.0
17247,68.0,0,40,2.0,0.0
17248,72.0,30,30,4.0,0.0
17249,74.0,15,30,4.0,0.0
17250,68.0,0,40,2.0,0.0
17251,74.0,0,40,1.0,0.0
17252,77.0,15,40,0.0,0.0
17253,77.0,30,30,4.0,0.0
17254,65.0,15,30,4.0,0.0
17255,77.0,15,40,0.0,0.0
17256,74.0,0,40,1.0,0.0
17257,68.0,0,40,2.0,0.0
17258,67.0,30,30,4.0,0.0
17259,68.0,15,30,4.0,0.0
17260,77.0,15,40,0.0,0.0
17261,68.0,0,40,2.0,0.0
17262,74.0,0,40,1.0,0.0
17263,74.0,30,30,4.0,0.0
17264,67.0,15,30,4.0,0.0
17265,67.0,15,40,2.0,0.0
17266,70.0,0,40,1.0,0.0
17267,75.0,0,40,0.0,0.0
17268,68.0,30,30,4.0,0.0
17269,75.0,0,40,0.0,0.0
17270,70.0,15,30,4.0,0.0
17271,67.0,0,40,2.0,0.0
17272,70.0,15,40,1.0,0.0
17273,75.0,30,30,4.0,0.0
17274,67.0,0,40,2.0,0.0
17275,75.0,0,40,0.0,0.0
17276,70.0,15,40,1.0,0.0
17277,63.0,15,30,4.0,0.0
17278,65.0,30,30,4.0,0.0
17279,67.0,15,40,2.0,0.0
17280,67.0,15,30,4.0,0.0
17281,70.0,0,40,1.0,0.0
17282,75.0,0,40,0.0,0.0
17283,70.0,30,30,4.0,0.0
17284,75.0,15,30,4.0,0.0
17285,75.0,0,40,0.0,0.0
17286,67.0,0,40,2.0,0.0
17287,70.0,15,40,1.0,0.0
17288,77.0,30,30,4.0,0.0
17289,67.0,0,40,2.0,0.0
17290,79.0,15,30,4.0,0.0
17291,70.0,0,40,1.0,0.0
17292,75.0,15,40,0.0,0.0
17293,82.0,30,30,4.0,0.0
17294,66.0,0,40,2.0,0.0
17295,72.0,15,40,1.0,0.0
17296,75.0,0,40,0.0,0.0
17297,72.0,15,30,4.0,0.0
17298,73.0,30,30,4.0,0.0
17299,75.0,15,30,4.0,0.0
17300,72.0,0,40,1.0,0.0
17301,75.0,0,40,0.0,0.0
17302,66.0,15,40,2.0,0.0
17303,78.0,30,30,4.0,0.0
17304,75.0,15,40,0.0,0.0
17305,66.0,0,40,2.0,0.0
17306,72.0,0,40,1.0,0.0
17307,69.0,15,30,4.0,0.0
17308,70.0,30,30,4.0,0.0
17309,72.0,0,40,1.0,0.0
17310,75.0,0,40,0.0,0.0
17311,66.0,15,40,2.0,0.0
17312,72.0,15,30,4.0,0.0
17313,75.0,30,30,4.0,0.0
17314,66.0,15,40,2.0,0.0
17315,63.0,15,30,4.0,0.0
17316,75.0,0,40,0.0,0.0
17317,70.0,0,40,1.0,0.0
17318,65.0,30,30,4.0,0.0
17319,70.0,0,40,1.0,0.0
17320,66.0,15,30,4.0,0.0
17321,75.0,0,40,0.0,0.0
17322,66.0,15,40,2.0,0.0
17323,72.0,45,30,4.0,0.0
17324,45.0,15,40,3.0,0.0
17325,72.0,0,1080,1.0,0.0
17326,57.0,30,60,4.0,0.0
17327,65.0,0,720,2.0,0.0
17328,75.0,45,1080,0.0,0.0
17329,45.0,15,40,3.0,0.0
17330,65.0,15,30,4.0,0.0
17331,63.0,30,60,4.0,0.0
17332,67.0,0,30,4.0,0.0
17333,45.0,15,40,3.0,0.0
17334,60.0,0,60,4.0,0.0
17335,69.0,15,30,4.0,0.0
17336,70.0,30,30,4.0,0.0
17337,72.0,15,30,4.0,0.0
17338,57.0,30,60,4.0,0.0
17339,45.0,15,40,3.0,0.0
17340,67.0,0,30,4.0,0.0
17341,69.0,15,30,4.0,0.0
17342,45.0,15,40,3.0,0.0
17343,53.0,0,60,4.0,0.0
17344,65.0,30,30,4.0,0.0
17345,72.0,15,30,4.0,0.0
17346,45.0,15,40,3.0,0.0
17347,57.0,0,60,4.0,0.0
17348,69.0,30,30,4.0,0.0
17349,75.0,15,30,4.0,0.0
17350,58.0,0,60,4.0,0.0
17351,45.0,15,40,3.0,0.0
17352,74.0,30,30,4.0,0.0
17353,72.0,15,30,4.0,0.0
17354,63.0,30,60,4.0,0.0
17355,45.0,15,40,3.0,0.0
17356,70.0,0,30,4.0,0.0
17357,72.0,15,30,4.0,0.0
17358,57.0,30,60,4.0,0.0
17359,45.0,15,40,3.0,0.0
17360,74.0,0,30,4.0,0.0
17361,75.0,15,30,4.0,0.0
17362,60.0,30,60,4.0,0.0
17363,45.0,15,40,3.0,0.0
17364,70.0,0,30,4.0,0.0
17365,45.0,15,40,3.0,0.0
17366,63.0,30,60,4.0,0.0
17367,72.0,15,30,4.0,0.0
17368,69.0,0,30,4.0,0.0
17369,45.0,15,40,3.0,0.0
17370,75.0,15,30,4.0,0.0
17371,60.0,0,60,4.0,0.0
17372,72.0,30,30,4.0,0.0
17373,45.0,15,40,3.0,0.0
17374,60.0,0,360,2.0,0.0
17375,63.0,0,60,4.0,0.0
17376,78.0,15,30,4.0,0.0
17377,77.0,30,30,4.0,0.0
17378,66.0,0,60,4.0,0.0
17379,45.0,15,40,3.0,0.0
17380,75.0,15,30,4.0,0.0
17381,74.0,30,30,4.0,0.0
17382,45.0,15,40,3.0,0.0
17383,60.0,0,60,4.0,0.0
17384,75.0,15,30,4.0,0.0
17385,77.0,30,30,4.0,0.0
17386,45.0,15,40,3.0,0.0
17387,63.0,0,60,4.0,0.0
17388,78.0,15,30,4.0,0.0
17389,75.0,30,30,4.0,0.0
17390,53.0,0,60,4.0,0.0
17391,81.0,15,30,4.0,0.0
17392,45.0,15,40,3.0,0.0
17393,77.0,30,30,4.0,0.0
17394,84.0,15,30,4.0,0.0
17395,57.0,0,60,4.0,0.0
17396,45.0,15,40,3.0,0.0
17397,75.0,0,30,4.0,0.0
17398,74.0,0,40,0.0,0.0
17399,70.0,0,40,1.0,0.0
17400,65.0,0,40,2.0,0.0
17401,46.0,15,40,3.0,0.0
17402,74.0,0,60,4.0,0.0
17403,58.0,45,60,4.0,0.0
17404,50.0,15,40,3.0,0.0
17405,70.0,0,40,0.0,0.0
17406,50.0,0,60,4.0,0.0
17407,70.0,45,60,4.0,0.0
17408,65.0,0,40,2.0,0.0
17409,70.0,0,40,1.0,0.0
17410,63.0,15,40,0.0,0.0
17411,51.0,45,60,4.0,0.0
17412,67.0,0,60,4.0,0.0
17413,51.0,0,40,3.0,0.0
17414,63.0,0,40,1.0,0.0
17415,67.0,0,40,2.0,0.0
17416,70.0,0,40,0.0,0.0
17417,48.0,0,40,3.0,0.0
17418,48.0,0,60,4.0,0.0
17419,70.0,0,40,1.0,0.0
17420,63.0,15,40,2.0,0.0
17421,63.0,45,60,4.0,0.0
17422,60.0,45,60,4.0,0.0
17423,53.0,0,60,4.0,0.0
17424,53.0,0,40,3.0,0.0
17425,60.0,15,40,2.0,0.0
17426,65.0,0,40,1.0,0.0
17427,65.0,0,40,0.0,0.0
17428,41.0,0,40,3.0,0.0
17429,65.0,0,40,2.0,0.0
17430,69.0,0,40,1.0,0.0
17431,41.0,60,60,4.0,0.0
17432,69.0,0,60,4.0,0.0
17433,69.0,15,40,0.0,0.0
17434,70.0,0,60,0.0,0.0
17435,70.0,0,60,1.0,0.0
17436,46.0,0,60,3.0,0.0
17437,62.0,0,60,2.0,0.0
17438,46.0,0,60,4.0,0.0
17439,58.0,30,60,4.0,0.0
17440,74.0,0,30,4.0,0.0
17441,82.0,30,30,4.0,0.0
17442,72.0,60,30,4.0,0.0
17443,81.0,0,30,4.0,0.0
17444,77.0,0,15,4.0,0.0
17445,82.0,0,60,4.0,0.0
17446,74.0,0,15,4.0,0.0
17447,77.0,30,15,4.0,0.0
17448,72.0,0,30,4.0,0.0
17449,75.0,60,30,4.0,0.0
17450,77.0,30,60,4.0,0.0
17451,74.0,0,60,4.0,0.0
17452,70.0,0,15,4.0,0.0
17453,65.0,30,30,4.0,0.0
17454,70.0,0,30,4.0,0.0
17455,74.0,0,30,4.0,0.0
17456,63.0,0,30,4.0,0.0
17457,69.0,0,30,4.0,0.0
17458,72.0,60,30,4.0,0.0
17459,74.0,30,60,4.0,0.0
17460,65.0,0,120,4.0,0.0
17461,70.0,0,60,4.0,0.0
17462,77.0,15,40,0.0,0.0
17463,46.0,0,30,4.0,0.0
17464,70.0,0,30,4.0,0.0
17465,62.0,0,30,2.0,0.0
17466,77.0,0,40,1.0,0.0
17467,46.0,15,30,3.0,0.0
17468,63.0,0,30,2.0,0.0
17469,69.0,0,30,4.0,0.0
17470,48.0,0,30,4.0,0.0
17471,48.0,45,30,3.0,0.0
17472,82.0,0,40,0.0,0.0
17473,82.0,0,40,1.0,0.0
17474,70.0,0,60,4.0,0.0
17475,65.0,0,40,2.0,0.0
17476,50.0,30,60,4.0,0.0
17477,50.0,15,40,3.0,0.0
17478,82.0,15,40,0.0,0.0
17479,64.0,0,30,2.0,0.0
17480,48.0,15,30,3.0,0.0
17481,82.0,0,40,1.0,0.0
17482,48.0,0,30,4.0,0.0
17483,65.0,0,30,2.0,0.0
17484,50.0,45,30,3.0,0.0
17485,50.0,0,30,4.0,0.0
17486,52.0,30,60,4.0,0.0
17487,82.0,0,40,1.0,0.0
17488,52.0,0,40,3.0,0.0
17489,82.0,0,40,0.0,0.0
17490,67.0,15,40,2.0,0.0
17491,50.0,15,30,4.0,0.0
17492,65.0,0,30,2.0,0.0
17493,82.0,15,40,1.0,0.0
17494,50.0,0,30,3.0,0.0
17495,82.0,0,40,0.0,0.0
17496,67.0,0,30,2.0,0.0
17497,52.0,0,30,3.0,0.0
17498,52.0,45,30,4.0,0.0
17499,53.0,0,60,3.0,0.0
17500,82.0,15,40,0.0,0.0
17501,60.0,0,60,2.0,0.0
17502,53.0,30,60,4.0,0.0
17503,82.0,0,40,1.0,0.0
17504,57.0,0,30,4.0,0.0
17505,65.0,0,30,4.0,0.0
17506,81.0,0,30,0.0,0.0
17507,81.0,30,30,1.0,0.0
17508,60.0,0,30,4.0,0.0
17509,79.0,60,30,1.0,0.0
17510,79.0,0,30,0.0,0.0
17511,64.0,0,30,4.0,0.0
17512,58.0,0,30,4.0,0.0
17513,55.0,0,30,4.0,0.0
17514,81.0,30,60,0.0,0.0
17515,60.0,0,60,4.0,0.0
17516,81.0,0,60,1.0,0.0
17517,57.0,0,60,4.0,0.0
17518,69.0,0,30,4.0,0.0
17519,60.0,30,30,4.0,0.0
17520,65.0,0,15,4.0,0.0
17521,58.0,0,30,4.0,0.0
17522,67.0,60,30,4.0,0.0
17523,64.0,0,30,4.0,0.0
17524,65.0,0,60,4.0,0.0
17525,60.0,30,60,4.0,0.0
17526,63.0,0,30,4.0,0.0
17527,69.0,0,15,4.0,0.0
17528,72.0,30,30,4.0,0.0
17529,70.0,60,30,4.0,0.0
17530,62.0,0,30,4.0,0.0
17531,67.0,0,30,4.0,0.0
17532,63.0,0,60,4.0,0.0
17533,69.0,30,60,4.0,0.0
17534,72.0,0,60,4.0,0.0
17535,81.0,15,30,1.0,0.0
17536,45.0,30,60,4.0,0.0
17537,75.0,0,30,4.0,0.0
17538,45.0,15,40,3.0,0.0
17539,66.0,0,30,2.0,0.0
17540,81.0,0,30,0.0,0.0
17541,74.0,0,30,4.0,0.0
17542,82.0,0,30,1.0,0.0
17543,67.0,0,30,2.0,0.0
17544,82.0,0,30,0.0,0.0
17545,84.0,0,40,0.0,0.0
17546,57.0,0,60,4.0,0.0
17547,69.0,15,30,2.0,0.0
17548,84.0,15,40,1.0,0.0
17549,57.0,0,40,3.0,0.0
17550,75.0,30,60,4.0,0.0
17551,67.0,0,30,2.0,0.0
17552,81.0,0,30,1.0,0.0
17553,66.0,0,30,2.0,0.0
17554,55.0,0,60,4.0,0.0
17555,81.0,15,30,0.0,0.0
17556,55.0,15,40,3.0,0.0
17557,82.0,0,30,0.0,0.0
17558,67.0,30,30,2.0,0.0
17559,82.0,0,30,1.0,0.0
17560,84.0,15,40,1.0,0.0
17561,84.0,0,40,0.0,0.0
17562,54.0,0,60,4.0,0.0
17563,69.0,15,30,2.0,0.0
17564,54.0,0,40,3.0,0.0
17565,67.0,30,30,2.0,0.0
17566,50.0,45,60,4.0,0.0
17567,84.0,0,40,1.0,0.0
17568,66.0,15,30,2.0,0.0
17569,84.0,15,40,0.0,0.0
17570,50.0,0,40,3.0,0.0
17571,64.0,0,30,2.0,0.0
17572,84.0,15,40,0.0,0.0
17573,55.0,0,60,4.0,0.0
17574,55.0,0,60,3.0,0.0
17575,84.0,0,40,1.0,0.0
17576,62.0,30,60,2.0,0.0
17577,82.0,0,30,0.0,0.0
17578,70.0,30,30,4.0,0.0
17579,74.0,0,30,4.0,0.0
17580,79.0,0,30,4.0,0.0
17581,82.0,0,30,1.0,0.0
17582,81.0,0,30,0.0,0.0
17583,81.0,0,30,1.0,0.0
17584,78.0,0,30,4.0,0.0
17585,69.0,0,30,4.0,0.0
17586,72.0,60,30,4.0,0.0
17587,82.0,0,60,1.0,0.0
17588,82.0,0,60,0.0,0.0
17589,79.0,0,60,4.0,0.0
17590,74.0,30,60,4.0,0.0
17591,70.0,0,60,4.0,0.0
17592,67.0,0,60,4.0,0.0
17593,74.0,30,30,4.0,0.0
17594,70.0,0,30,4.0,0.0
17595,72.0,0,30,4.0,0.0
17596,69.0,60,30,4.0,0.0
17597,67.0,0,60,4.0,0.0
17598,74.0,30,60,4.0,0.0
17599,70.0,0,15,4.0,0.0
17600,67.0,30,30,4.0,0.0
17601,62.0,0,30,4.0,0.0
17602,69.0,0,30,4.0,0.0
17603,66.0,0,30,4.0,0.0
17604,60.0,60,30,4.0,0.0
17605,62.0,0,60,4.0,0.0
17606,70.0,0,60,4.0,0.0
17607,67.0,30,60,4.0,0.0
17608,70.0,0,30,0.0,0.0
17609,67.0,15,40,2.0,0.0
17610,62.0,0,30,1.0,0.0
17611,43.0,0,40,3.0,0.0
17612,43.0,45,60,4.0,0.0
17613,67.0,15,30,4.0,0.0
17614,69.0,0,30,0.0,0.0
17615,60.0,0,30,1.0,0.0
17616,66.0,0,30,4.0,0.0
17617,62.0,0,40,1.0,0.0
17618,67.0,0,40,2.0,0.0
17619,67.0,30,60,4.0,0.0
17620,55.0,0,60,4.0,0.0
17621,70.0,0,40,0.0,0.0
17622,55.0,15,40,3.0,0.0
17623,67.0,15,40,2.0,0.0
17624,74.0,0,30,0.0,0.0
17625,70.0,15,30,4.0,0.0
17626,53.0,0,60,4.0,0.0
17627,67.0,0,30,1.0,0.0
17628,53.0,0,40,3.0,0.0
17629,72.0,0,30,0.0,0.0
17630,69.0,45,30,4.0,0.0
17631,66.0,0,30,1.0,0.0
17632,67.0,15,40,2.0,0.0
17633,74.0,0,40,0.0,0.0
17634,67.0,0,40,1.0,0.0
17635,52.0,30,60,4.0,0.0
17636,70.0,0,60,4.0,0.0
17637,52.0,0,40,3.0,0.0
17638,70.0,0,30,1.0,0.0
17639,50.0,15,40,3.0,0.0
17640,79.0,15,30,0.0,0.0
17641,76.0,0,30,4.0,0.0
17642,67.0,0,40,2.0,0.0
17643,50.0,60,60,4.0,0.0
17644,78.0,0,30,0.0,0.0
17645,74.0,0,30,4.0,0.0
17646,69.0,0,30,1.0,0.0
17647,79.0,0,60,0.0,0.0
17648,76.0,0,60,4.0,0.0
17649,70.0,0,60,1.0,0.0
17650,49.0,0,60,4.0,0.0
17651,67.0,30,60,2.0,0.0
17652,49.0,0,60,3.0,0.0
17653,73.0,0,30,4.0,0.0
17654,67.0,0,60,4.0,0.0
17655,64.0,30,30,4.0,0.0
17656,62.0,0,30,4.0,0.0
17657,71.0,60,30,4.0,0.0
17658,67.0,0,60,4.0,0.0
17659,73.0,30,60,4.0,0.0
17660,64.0,0,15,4.0,0.0
17661,69.0,30,30,4.0,0.0
17662,61.0,0,30,4.0,0.0
17663,67.0,0,30,4.0,0.0
17664,59.0,60,30,4.0,0.0
17665,69.0,30,60,4.0,0.0
17666,61.0,0,60,4.0,0.0
17667,64.0,0,60,4.0,0.0
17668,57.0,0,30,4.0,0.0
17669,62.0,0,30,4.0,0.0
17670,65.0,30,30,4.0,0.0
17671,61.0,0,30,4.0,0.0
17672,55.0,0,30,4.0,0.0
17673,64.0,60,30,4.0,0.0
17674,65.0,0,60,4.0,0.0
17675,57.0,0,60,4.0,0.0
17676,65.0,15,40,2.0,0.0
17677,57.0,0,30,1.0,0.0
17678,38.0,0,60,4.0,0.0
17679,65.0,0,30,0.0,0.0
17680,38.0,0,40,3.0,0.0
17681,62.0,30,15,4.0,0.0
17682,64.0,45,30,0.0,0.0
17683,61.0,0,30,4.0,0.0
17684,55.0,0,30,1.0,0.0
17685,57.0,15,40,1.0,0.0
17686,50.0,0,40,3.0,0.0
17687,65.0,0,40,2.0,0.0
17688,50.0,0,60,4.0,0.0
17689,62.0,30,60,4.0,0.0
17690,65.0,0,40,0.0,0.0
17691,65.0,0,30,4.0,0.0
17692,48.0,0,60,4.0,0.0
17693,69.0,0,30,0.0,0.0
17694,48.0,15,40,3.0,0.0
17695,65.0,0,40,2.0,0.0
17696,62.0,15,30,1.0,0.0
17697,61.0,0,30,1.0,0.0
17698,64.0,0,30,4.0,0.0
17699,67.0,45,30,0.0,0.0
17700,47.0,0,40,3.0,0.0
17701,65.0,15,40,2.0,0.0
17702,47.0,30,60,4.0,0.0
17703,62.0,0,40,1.0,0.0
17704,69.0,0,40,0.0,0.0
17705,65.0,0,60,4.0,0.0
17706,65.0,0,30,1.0,0.0
17707,74.0,0,30,0.0,0.0
17708,45.0,15,40,3.0,0.0
17709,65.0,0,40,2.0,0.0
17710,71.0,15,30,4.0,0.0
17711,45.0,0,60,4.0,0.0
17712,64.0,60,30,1.0,0.0
17713,69.0,0,30,4.0,0.0
17714,73.0,0,30,0.0,0.0
17715,74.0,0,60,0.0,0.0
17716,44.0,0,60,3.0,0.0
17717,65.0,0,60,1.0,0.0
17718,71.0,30,60,4.0,0.0
17719,44.0,0,60,4.0,0.0
17720,62.0,0,60,2.0,0.0
17721,59.0,0,30,4.0,0.0
17722,62.0,30,30,4.0,0.0
17723,68.0,0,30,4.0,0.0
17724,60.0,0,30,4.0,0.0
17725,66.0,60,30,4.0,0.0
17726,57.0,0,30,4.0,0.0
17727,68.0,0,60,4.0,0.0
17728,62.0,0,60,4.0,0.0
17729,59.0,30,60,4.0,0.0
17730,56.0,0,30,4.0,0.0
17731,64.0,30,30,4.0,0.0
17732,59.0,0,30,4.0,0.0
17733,62.0,0,30,4.0,0.0
17734,57.0,60,30,4.0,0.0
17735,54.0,0,30,4.0,0.0
17736,56.0,0,60,4.0,0.0
17737,59.0,0,60,4.0,0.0
17738,64.0,30,60,4.0,0.0
17739,52.0,0,30,4.0,0.0
17740,61.0,30,30,4.0,0.0
17741,57.0,0,30,4.0,0.0
17742,50.0,60,30,4.0,0.0
17743,59.0,0,30,4.0,0.0
17744,56.0,0,30,4.0,0.0
17745,52.0,0,60,4.0,0.0
17746,45.0,0,60,4.0,0.0
17747,61.0,0,60,4.0,0.0
17748,45.0,0,60,3.0,0.0
17749,57.0,0,60,4.0,0.0
17750,64.0,0,60,1.0,0.0
17751,69.0,30,60,0.0,0.0
17752,61.0,0,60,2.0,0.0
17753,57.0,30,30,4.0,0.0
17754,55.0,60,30,4.0,0.0
17755,57.0,30,60,4.0,0.0
17756,61.0,0,30,4.0,0.0
17757,52.0,30,30,4.0,0.0
17758,50.0,60,30,4.0,0.0
17759,59.0,0,30,4.0,0.0
17760,52.0,0,60,4.0,0.0
17761,57.0,0,15,4.0,0.0
17762,64.0,0,30,4.0,0.0
17763,61.0,0,15,4.0,0.0
17764,55.0,30,30,4.0,0.0
17765,53.0,0,30,4.0,0.0
17766,62.0,60,30,4.0,0.0
17767,61.0,0,15,4.0,0.0
17768,64.0,0,60,4.0,0.0
17769,55.0,30,60,4.0,0.0
17770,67.0,30,30,4.0,0.0
17771,65.0,0,30,4.0,0.0
17772,49.0,0,15,4.0,0.0
17773,45.0,0,15,4.0,0.0
17774,67.0,30,60,4.0,0.0
17775,52.0,60,15,4.0,0.0
17776,70.0,30,30,4.0,0.0
17777,43.0,0,60,4.0,0.0
17778,52.0,0,60,4.0,0.0
17779,69.0,0,30,4.0,0.0
17780,70.0,0,60,4.0,0.0
17781,43.0,30,60,4.0,0.0
17782,49.0,60,15,4.0,0.0
17783,52.0,0,60,4.0,0.0
17784,74.0,30,30,4.0,0.0
17785,41.0,0,60,4.0,0.0
17786,45.0,0,60,4.0,0.0
17787,73.0,0,30,4.0,0.0
17788,53.0,45,15,4.0,0.0
17789,74.0,15,40,0.0,0.0
17790,74.0,0,60,4.0,0.0
17791,74.0,0,40,1.0,0.0
17792,41.0,0,60,4.0,0.0
17793,72.0,0,30,1.0,0.0
17794,72.0,0,30,4.0,0.0
17795,43.0,0,60,4.0,0.0
17796,52.0,0,60,4.0,0.0
17797,72.0,30,30,0.0,0.0
17798,70.0,0,30,4.0,0.0
17799,70.0,0,30,1.0,0.0
17800,70.0,30,30,0.0,0.0
17801,69.0,0,40,1.0,0.0
17802,45.0,0,15,4.0,0.0
17803,53.0,0,60,4.0,0.0
17804,69.0,15,30,4.0,0.0
17805,69.0,15,40,0.0,0.0
17806,77.0,0,30,4.0,0.0
17807,46.0,0,60,4.0,0.0
17808,55.0,0,60,4.0,0.0
17809,67.0,15,30,4.0,0.0
17810,67.0,0,40,1.0,0.0
17811,67.0,15,40,0.0,0.0
17812,76.0,30,30,4.0,0.0
17813,65.0,15,30,4.0,0.0
17814,45.0,0,120,4.0,0.0
17815,57.0,30,60,4.0,0.0
17816,65.0,0,40,0.0,0.0
17817,65.0,15,40,1.0,0.0
17818,74.0,0,30,4.0,0.0
17819,64.0,0,40,1.0,0.0
17820,64.0,15,40,0.0,0.0
17821,64.0,15,30,4.0,0.0
17822,55.0,0,60,4.0,0.0
17823,73.0,45,30,4.0,0.0
17824,50.0,0,60,4.0,0.0
17825,53.0,0,60,4.0,0.0
17826,65.0,30,60,4.0,0.0
17827,74.0,0,60,4.0,0.0
17828,65.0,15,40,1.0,0.0
17829,65.0,0,40,0.0,0.0
17830,65.0,0,30,2.0,0.0
17831,62.0,15,40,1.0,0.0
17832,50.0,15,30,3.0,0.0
17833,50.0,0,30,4.0,0.0
17834,62.0,0,40,0.0,0.0
17835,62.0,0,60,4.0,0.0
17836,52.0,0,30,4.0,0.0
17837,52.0,45,30,3.0,0.0
17838,67.0,0,30,2.0,0.0
17839,53.0,30,60,4.0,0.0
17840,74.0,0,60,4.0,0.0
17841,74.0,0,40,1.0,0.0
17842,53.0,0,40,3.0,0.0
17843,69.0,15,40,2.0,0.0
17844,74.0,0,40,0.0,0.0
17845,67.0,0,30,2.0,0.0
17846,52.0,0,30,3.0,0.0
17847,74.0,0,40,1.0,0.0
17848,52.0,15,30,4.0,0.0
17849,74.0,15,40,0.0,0.0
17850,69.0,0,30,2.0,0.0
17851,53.0,45,30,3.0,0.0
17852,53.0,0,30,4.0,0.0
17853,55.0,0,40,3.0,0.0
17854,74.0,0,40,0.0,0.0
17855,74.0,0,40,1.0,0.0
17856,74.0,0,15,4.0,0.0
17857,70.0,15,40,2.0,0.0
17858,55.0,30,60,4.0,0.0
17859,53.0,0,30,4.0,0.0
17860,74.0,15,40,1.0,0.0
17861,74.0,0,40,0.0,0.0
17862,53.0,0,30,3.0,0.0
17863,69.0,15,30,2.0,0.0
17864,55.0,30,30,3.0,0.0
17865,55.0,0,30,4.0,0.0
17866,70.0,0,30,2.0,0.0
17867,74.0,0,30,0.0,0.0
17868,74.0,0,15,4.0,0.0
17869,57.0,0,60,4.0,0.0
17870,64.0,15,40,2.0,0.0
17871,74.0,0,30,1.0,0.0
17872,57.0,0,40,3.0,0.0
17873,72.0,0,30,0.0,0.0
17874,72.0,30,30,1.0,0.0
17875,72.0,0,30,4.0,0.0
17876,74.0,0,30,0.0,0.0
17877,74.0,0,30,4.0,0.0
17878,53.0,0,30,4.0,0.0
17879,53.0,0,30,3.0,0.0
17880,69.0,0,30,2.0,0.0
17881,74.0,30,30,1.0,0.0
17882,76.0,0,30,0.0,0.0
17883,55.0,0,30,3.0,0.0
17884,76.0,0,30,4.0,0.0
17885,55.0,45,30,4.0,0.0
17886,70.0,0,30,2.0,0.0
17887,76.0,0,30,1.0,0.0
17888,77.0,0,40,0.0,0.0
17889,72.0,0,40,2.0,0.0
17890,57.0,15,40,3.0,0.0
17891,77.0,0,40,1.0,0.0
17892,57.0,30,60,4.0,0.0
17893,55.0,0,30,4.0,0.0
17894,77.0,0,15,4.0,0.0
17895,70.0,0,30,2.0,0.0
17896,77.0,15,40,0.0,0.0
17897,77.0,0,40,1.0,0.0
17898,55.0,15,30,3.0,0.0
17899,72.0,0,30,2.0,0.0
17900,57.0,45,30,4.0,0.0
17901,57.0,0,30,3.0,0.0
17902,59.0,15,40,3.0,0.0
17903,59.0,30,60,4.0,0.0
17904,77.0,0,15,4.0,0.0
17905,77.0,0,40,0.0,0.0
17906,74.0,0,40,2.0,0.0
17907,77.0,0,40,1.0,0.0
17908,77.0,0,40,0.0,0.0
17909,57.0,15,30,3.0,0.0
17910,72.0,0,30,2.0,0.0
17911,77.0,0,15,4.0,0.0
17912,77.0,15,40,1.0,0.0
17913,57.0,0,30,4.0,0.0
17914,74.0,0,30,2.0,0.0
17915,59.0,0,30,3.0,0.0
17916,59.0,0,30,4.0,0.0
17917,77.0,15,30,0.0,0.0
17918,67.0,15,40,2.0,0.0
17919,77.0,0,30,1.0,0.0
17920,60.0,0,40,3.0,0.0
17921,77.0,30,15,4.0,0.0
17922,60.0,30,60,4.0,0.0
17923,76.0,0,30,4.0,0.0
17924,76.0,0,30,1.0,0.0
17925,76.0,0,30,0.0,0.0
17926,60.0,30,30,2.0,0.0
17927,77.0,0,30,1.0,0.0
17928,77.0,0,30,0.0,0.0
17929,77.0,0,30,4.0,0.0
17930,57.0,0,30,4.0,0.0
17931,57.0,0,30,3.0,0.0
17932,79.0,0,30,0.0,0.0
17933,59.0,0,30,3.0,0.0
17934,79.0,0,30,1.0,0.0
17935,62.0,0,30,2.0,0.0
17936,59.0,0,30,4.0,0.0
17937,79.0,45,30,4.0,0.0
17938,60.0,0,60,4.0,0.0
17939,81.0,30,60,4.0,0.0
17940,64.0,15,40,2.0,0.0
17941,81.0,0,40,1.0,0.0
17942,81.0,0,40,0.0,0.0
17943,60.0,0,40,3.0,0.0
17944,81.0,15,40,1.0,0.0
17945,81.0,0,40,0.0,0.0
17946,59.0,0,30,4.0,0.0
17947,81.0,0,60,4.0,0.0
17948,59.0,15,30,3.0,0.0
17949,62.0,0,30,2.0,0.0
17950,60.0,45,30,3.0,0.0
17951,60.0,0,30,4.0,0.0
17952,64.0,0,30,2.0,0.0
17953,81.0,0,40,0.0,0.0
17954,81.0,15,40,1.0,0.0
17955,62.0,30,60,4.0,0.0
17956,65.0,0,40,2.0,0.0
17957,62.0,0,40,3.0,0.0
17958,81.0,0,60,4.0,0.0
17959,64.0,0,30,2.0,0.0
17960,60.0,15,30,4.0,0.0
17961,81.0,0,60,4.0,0.0
17962,81.0,15,40,1.0,0.0
17963,60.0,0,30,3.0,0.0
17964,81.0,0,40,0.0,0.0
17965,62.0,45,30,4.0,0.0
17966,62.0,0,30,3.0,0.0
17967,65.0,0,30,2.0,0.0
17968,64.0,30,60,4.0,0.0
17969,81.0,0,60,4.0,0.0
17970,59.0,0,120,2.0,0.0
17971,64.0,0,40,3.0,0.0
17972,81.0,15,40,0.0,0.0
17973,81.0,0,40,1.0,0.0
17974,79.0,15,30,1.0,0.0
17975,52.0,45,60,4.0,0.0
17976,79.0,0,30,4.0,0.0
17977,52.0,15,40,3.0,0.0
17978,79.0,0,30,0.0,0.0
17979,77.0,0,30,0.0,0.0
17980,77.0,0,30,4.0,0.0
17981,77.0,0,30,1.0,0.0
17982,79.0,0,40,1.0,0.0
17983,64.0,0,40,3.0,0.0
17984,64.0,0,60,4.0,0.0
17985,79.0,30,60,4.0,0.0
17986,79.0,15,40,0.0,0.0
17987,76.0,0,30,1.0,0.0
17988,61.0,0,30,2.0,0.0
17989,76.0,0,30,0.0,0.0
17990,62.0,15,40,3.0,0.0
17991,62.0,0,60,4.0,0.0
17992,76.0,15,30,4.0,0.0
17993,77.0,30,30,1.0,0.0
17994,77.0,0,30,0.0,0.0
17995,62.0,0,30,2.0,0.0
17996,77.0,0,30,4.0,0.0
17997,79.0,0,40,1.0,0.0
17998,64.0,15,30,2.0,0.0
17999,61.0,0,60,4.0,0.0
18000,79.0,15,40,0.0,0.0
18001,61.0,0,40,3.0,0.0
18002,62.0,0,30,2.0,0.0
18003,61.0,15,30,2.0,0.0
18004,57.0,0,60,4.0,0.0
18005,79.0,30,15,4.0,0.0
18006,57.0,15,40,3.0,0.0
18007,79.0,0,40,1.0,0.0
18008,79.0,0,40,0.0,0.0
18009,59.0,45,30,2.0,0.0
18010,62.0,0,60,3.0,0.0
18011,62.0,0,60,4.0,0.0
18012,79.0,0,40,1.0,0.0
18013,79.0,30,60,4.0,0.0
18014,57.0,0,60,2.0,0.0
18015,79.0,15,40,0.0,0.0
18016,77.0,0,30,1.0,0.0
18017,86.0,0,30,4.0,0.0
18018,77.0,30,30,4.0,0.0
18019,77.0,0,30,0.0,0.0
18020,76.0,0,30,0.0,0.0
18021,76.0,0,30,4.0,0.0
18022,85.0,0,30,4.0,0.0
18023,76.0,0,30,1.0,0.0
18024,77.0,0,60,0.0,0.0
18025,81.0,60,15,4.0,0.0
18026,77.0,30,60,1.0,0.0
18027,86.0,0,60,4.0,0.0
18028,77.0,0,15,4.0,0.0
18029,74.0,60,60,4.0,0.0
18030,81.0,30,30,4.0,0.0
18031,79.0,0,30,4.0,0.0
18032,76.0,0,30,4.0,0.0
18033,81.0,0,60,4.0,0.0
18034,69.0,0,30,4.0,0.0
18035,74.0,0,15,4.0,0.0
18036,77.0,30,15,4.0,0.0
18037,67.0,60,30,4.0,0.0
18038,73.0,0,30,4.0,0.0
18039,76.0,0,30,4.0,0.0
18040,74.0,0,60,4.0,0.0
18041,69.0,30,60,4.0,0.0
18042,77.0,0,60,4.0,0.0
18043,65.0,0,30,4.0,0.0
18044,69.0,0,30,4.0,0.0
18045,74.0,0,30,4.0,0.0
18046,77.0,30,30,0.0,0.0
18047,73.0,0,30,4.0,0.0
18048,64.0,0,30,4.0,0.0
18049,67.0,0,30,4.0,0.0
18050,76.0,60,30,0.0,0.0
18051,74.0,30,60,4.0,0.0
18052,65.0,0,60,4.0,0.0
18053,77.0,0,60,0.0,0.0
18054,69.0,0,60,4.0,0.0
18055,74.0,0,30,1.0,0.0
18056,62.0,0,60,4.0,0.0
18057,77.0,15,30,4.0,0.0
18058,62.0,15,40,3.0,0.0
18059,73.0,45,30,1.0,0.0
18060,76.0,0,30,4.0,0.0
18061,58.0,15,40,3.0,0.0
18062,74.0,30,60,1.0,0.0
18063,77.0,0,60,4.0,0.0
18064,58.0,0,60,4.0,0.0
18065,82.0,15,30,4.0,0.0
18066,55.0,15,40,3.0,0.0
18067,55.0,60,60,4.0,0.0
18068,67.0,0,30,2.0,0.0
18069,65.0,0,30,2.0,0.0
18070,81.0,0,30,4.0,0.0
18071,82.0,0,60,4.0,0.0
18072,60.0,0,60,4.0,0.0
18073,60.0,0,120,3.0,0.0
18074,64.0,30,60,2.0,0.0
18075,76.0,30,30,0.0,0.0
18076,72.0,0,30,4.0,0.0
18077,55.0,0,60,4.0,0.0
18078,74.0,0,30,0.0,0.0
18079,71.0,60,30,4.0,0.0
18080,48.0,0,60,4.0,0.0
18081,72.0,0,60,4.0,0.0
18082,76.0,30,60,0.0,0.0
18083,60.0,15,40,3.0,0.0
18084,76.0,15,30,4.0,0.0
18085,72.0,0,30,1.0,0.0
18086,60.0,0,60,4.0,0.0
18087,71.0,0,30,1.0,0.0
18088,74.0,45,30,4.0,0.0
18089,57.0,15,40,3.0,0.0
18090,72.0,0,60,1.0,0.0
18091,57.0,30,60,4.0,0.0
18092,76.0,0,60,4.0,0.0
18093,65.0,0,30,2.0,0.0
18094,53.0,0,60,4.0,0.0
18095,81.0,15,30,4.0,0.0
18096,53.0,15,40,3.0,0.0
18097,79.0,0,30,4.0,0.0
18098,64.0,60,30,2.0,0.0
18099,81.0,0,60,4.0,0.0
18100,58.0,0,60,4.0,0.0
18101,62.0,30,60,2.0,0.0
18102,58.0,60,120,3.0,0.0
18103,74.0,30,30,0.0,0.0
18104,53.0,0,60,4.0,0.0
18105,70.0,0,30,4.0,0.0
18106,73.0,0,30,0.0,0.0
18107,69.0,0,30,4.0,0.0
18108,70.0,0,60,4.0,0.0
18109,46.0,0,60,4.0,0.0
18110,74.0,30,60,0.0,0.0
18111,70.0,15,30,1.0,0.0
18112,58.0,0,60,4.0,0.0
18113,74.0,0,30,4.0,0.0
18114,58.0,15,40,3.0,0.0
18115,69.0,45,30,1.0,0.0
18116,73.0,0,30,4.0,0.0
18117,55.0,15,40,3.0,0.0
18118,55.0,0,60,4.0,0.0
18119,74.0,0,60,4.0,0.0
18120,70.0,30,60,1.0,0.0
18121,79.0,0,30,4.0,0.0
18122,52.0,0,60,4.0,0.0
18123,52.0,15,40,3.0,0.0
18124,64.0,15,30,2.0,0.0
18125,62.0,0,30,2.0,0.0
18126,77.0,45,30,4.0,0.0
18127,61.0,0,60,2.0,0.0
18128,57.0,45,120,3.0,0.0
18129,57.0,0,120,4.0,0.0
18130,61.0,0,120,4.0,0.0
18131,79.0,30,60,4.0,0.0
18132,57.0,15,40,0.0,0.0
18133,69.0,0,60,4.0,0.0
18134,61.0,30,30,0.0,0.0
18135,59.0,0,30,0.0,0.0
18136,69.0,30,60,4.0,0.0
18137,61.0,15,40,0.0,0.0
18138,57.0,0,40,1.0,0.0
18139,64.0,30,30,0.0,0.0
18140,61.0,0,30,1.0,0.0
18141,59.0,30,30,1.0,0.0
18142,62.0,0,30,0.0,0.0
18143,64.0,0,60,0.0,0.0
18144,79.0,0,15,4.0,0.0
18145,61.0,30,60,1.0,0.0
18146,81.0,0,30,4.0,0.0
18147,82.0,30,30,4.0,0.0
18148,79.0,45,30,4.0,0.0
18149,69.0,15,40,0.0,0.0
18150,85.0,30,60,4.0,0.0
18151,55.0,0,120,4.0,0.0
18152,57.0,0,120,4.0,0.0
18153,64.0,0,120,4.0,0.0
18154,55.0,0,120,3.0,0.0
18155,64.0,45,120,2.0,0.0
18156,73.0,30,30,0.0,0.0
18157,69.0,0,60,4.0,0.0
18158,71.0,0,30,0.0,0.0
18159,69.0,15,40,1.0,0.0
18160,73.0,0,40,0.0,0.0
18161,69.0,30,60,4.0,0.0
18162,76.0,30,30,0.0,0.0
18163,73.0,0,30,1.0,0.0
18164,71.0,0,30,1.0,0.0
18165,74.0,0,30,0.0,0.0
18166,73.0,0,60,1.0,0.0
18167,76.0,0,60,0.0,0.0
18168,73.0,30,15,4.0,0.0
18169,74.0,30,30,4.0,0.0
18170,76.0,30,30,4.0,0.0
18171,73.0,30,30,4.0,0.0
18172,76.0,0,120,0.0,0.0
18173,67.0,30,120,1.0,0.0
18174,69.0,15,40,2.0,0.0
18175,49.0,15,30,4.0,0.0
18176,67.0,0,30,4.0,0.0
18177,52.0,0,30,4.0,0.0
18178,73.0,30,30,4.0,0.0
18179,69.0,0,40,2.0,0.0
18180,74.0,0,30,4.0,0.0
18181,53.0,15,30,4.0,0.0
18182,55.0,15,40,3.0,0.0
18183,76.0,0,30,4.0,0.0
18184,55.0,0,30,4.0,0.0
18185,69.0,15,40,2.0,0.0
18186,52.0,0,40,3.0,0.0
18187,67.0,15,30,4.0,0.0
18188,45.0,0,30,4.0,0.0
18189,52.0,30,30,4.0,0.0
18190,73.0,0,30,4.0,0.0
18191,49.0,15,40,3.0,0.0
18192,69.0,0,40,2.0,0.0
18193,53.0,15,30,4.0,0.0
18194,74.0,0,30,4.0,0.0
18195,76.0,0,30,4.0,0.0
18196,55.0,30,30,4.0,0.0
18197,45.0,15,40,3.0,0.0
18198,69.0,0,40,2.0,0.0
18199,49.0,0,30,4.0,0.0
18200,67.0,15,30,4.0,0.0
18201,73.0,0,30,4.0,0.0
18202,52.0,30,30,4.0,0.0
18203,69.0,0,40,2.0,0.0
18204,53.0,15,30,4.0,0.0
18205,74.0,0,30,4.0,0.0
18206,49.0,15,40,3.0,0.0
18207,55.0,0,30,4.0,0.0
18208,76.0,30,30,4.0,0.0
18209,50.0,0,120,3.0,0.0
18210,50.0,30,60,4.0,0.0
18211,69.0,15,40,2.0,0.0
18212,66.0,15,30,4.0,0.0
18213,72.0,0,30,4.0,0.0
18214,69.0,0,40,2.0,0.0
18215,74.0,15,30,4.0,0.0
18216,72.0,0,40,0.0,0.0
18217,72.0,15,40,1.0,0.0
18218,75.0,30,30,4.0,0.0
18219,69.0,0,40,1.0,0.0
18220,62.0,0,60,4.0,0.0
18221,66.0,15,30,4.0,0.0
18222,69.0,0,40,0.0,0.0
18223,69.0,15,40,2.0,0.0
18224,72.0,30,30,4.0,0.0
18225,66.0,15,40,0.0,0.0
18226,66.0,0,40,1.0,0.0
18227,74.0,15,30,4.0,0.0
18228,69.0,0,40,2.0,0.0
18229,75.0,30,30,4.0,0.0
18230,69.0,15,40,2.0,0.0
18231,66.0,15,30,4.0,0.0
18232,48.0,30,60,4.0,0.0
18233,62.0,0,40,0.0,0.0
18234,62.0,0,40,1.0,0.0
18235,72.0,0,30,4.0,0.0
18236,69.0,0,40,2.0,0.0
18237,66.0,0,40,0.0,0.0
18238,74.0,15,30,4.0,0.0
18239,66.0,15,40,1.0,0.0
18240,75.0,30,30,4.0,0.0
18241,67.0,15,40,2.0,0.0
18242,47.0,0,30,4.0,0.0
18243,65.0,0,120,1.0,0.0
18244,65.0,15,30,4.0,0.0
18245,74.0,30,120,0.0,0.0
18246,71.0,30,30,4.0,0.0
18247,50.0,0,30,4.0,0.0
18248,67.0,15,40,2.0,0.0
18249,72.0,15,30,4.0,0.0
18250,53.0,0,40,3.0,0.0
18251,52.0,0,30,4.0,0.0
18252,74.0,0,30,4.0,0.0
18253,53.0,0,30,4.0,0.0
18254,67.0,0,40,2.0,0.0
18255,50.0,15,40,3.0,0.0
18256,43.0,15,30,4.0,0.0
18257,65.0,0,30,4.0,0.0
18258,50.0,30,30,4.0,0.0
18259,71.0,0,30,4.0,0.0
18260,67.0,0,40,2.0,0.0
18261,47.0,15,40,3.0,0.0
18262,52.0,0,30,4.0,0.0
18263,72.0,15,30,4.0,0.0
18264,53.0,30,30,4.0,0.0
18265,74.0,0,30,4.0,0.0
18266,67.0,15,40,2.0,0.0
18267,43.0,0,40,3.0,0.0
18268,47.0,15,30,4.0,0.0
18269,65.0,0,30,4.0,0.0
18270,50.0,30,30,4.0,0.0
18271,71.0,0,30,4.0,0.0
18272,52.0,15,30,4.0,0.0
18273,72.0,0,30,4.0,0.0
18274,47.0,15,40,3.0,0.0
18275,67.0,0,40,2.0,0.0
18276,74.0,0,30,4.0,0.0
18277,53.0,30,30,4.0,0.0
18278,64.0,15,30,4.0,0.0
18279,48.0,0,60,4.0,0.0
18280,67.0,15,40,2.0,0.0
18281,48.0,0,120,3.0,0.0
18282,70.0,30,30,4.0,0.0
18283,70.0,0,40,1.0,0.0
18284,67.0,0,40,2.0,0.0
18285,70.0,15,40,0.0,0.0
18286,72.0,15,30,4.0,0.0
18287,73.0,30,30,4.0,0.0
18288,67.0,15,40,1.0,0.0
18289,67.0,0,40,2.0,0.0
18290,67.0,0,40,0.0,0.0
18291,60.0,0,60,4.0,0.0
18292,64.0,15,30,4.0,0.0
18293,70.0,30,30,4.0,0.0
18294,64.0,15,40,0.0,0.0
18295,67.0,0,40,2.0,0.0
18296,72.0,15,30,4.0,0.0
18297,64.0,0,40,1.0,0.0
18298,73.0,30,30,4.0,0.0
18299,60.0,15,40,0.0,0.0
18300,46.0,0,60,4.0,0.0
18301,64.0,15,30,4.0,0.0
18302,60.0,0,40,1.0,0.0
18303,67.0,0,40,2.0,0.0
18304,70.0,30,30,4.0,0.0
18305,72.0,15,30,4.0,0.0
18306,64.0,0,40,1.0,0.0
18307,67.0,0,40,2.0,0.0
18308,64.0,15,40,0.0,0.0
18309,73.0,30,30,4.0,0.0
18310,72.0,0,120,0.0,0.0
18311,63.0,0,120,1.0,0.0
18312,65.0,15,40,2.0,0.0
18313,45.0,0,30,4.0,0.0
18314,63.0,15,30,4.0,0.0
18315,69.0,30,30,4.0,0.0
18316,48.0,0,30,4.0,0.0
18317,50.0,15,30,4.0,0.0
18318,70.0,0,30,4.0,0.0
18319,65.0,0,40,2.0,0.0
18320,51.0,15,40,3.0,0.0
18321,51.0,0,30,4.0,0.0
18322,72.0,30,30,4.0,0.0
18323,65.0,15,40,2.0,0.0
18324,63.0,15,30,4.0,0.0
18325,48.0,0,40,3.0,0.0
18326,41.0,0,30,4.0,0.0
18327,48.0,30,30,4.0,0.0
18328,69.0,0,30,4.0,0.0
18329,45.0,15,40,3.0,0.0
18330,70.0,15,30,4.0,0.0
18331,50.0,0,30,4.0,0.0
18332,65.0,0,40,2.0,0.0
18333,51.0,0,30,4.0,0.0
18334,72.0,30,30,4.0,0.0
18335,41.0,0,40,3.0,0.0
18336,63.0,0,30,4.0,0.0
18337,65.0,15,40,2.0,0.0
18338,45.0,15,30,4.0,0.0
18339,48.0,0,30,4.0,0.0
18340,69.0,30,30,4.0,0.0
18341,70.0,0,30,4.0,0.0
18342,50.0,15,30,4.0,0.0
18343,45.0,15,40,3.0,0.0
18344,65.0,0,40,2.0,0.0
18345,72.0,30,30,4.0,0.0
18346,51.0,0,30,4.0,0.0
18347,65.0,0,40,2.0,0.0
18348,46.0,15,40,3.0,0.0
18349,62.0,15,30,4.0,0.0
18350,46.0,30,60,4.0,0.0
18351,70.0,0,30,4.0,0.0
18352,70.0,0,40,1.0,0.0
18353,62.0,15,40,2.0,0.0
18354,50.0,0,40,3.0,0.0
18355,66.0,15,30,4.0,0.0
18356,50.0,30,60,4.0,0.0
18357,74.0,0,40,0.0,0.0
18358,67.0,0,30,4.0,0.0
18359,63.0,15,30,4.0,0.0
18360,55.0,30,60,4.0,0.0
18361,43.0,0,40,3.0,0.0
18362,75.0,0,40,0.0,0.0
18363,70.0,15,40,1.0,0.0
18364,58.0,0,40,2.0,0.0
18365,70.0,0,30,4.0,0.0
18366,62.0,15,40,2.0,0.0
18367,74.0,0,40,0.0,0.0
18368,43.0,0,40,3.0,0.0
18369,66.0,15,30,4.0,0.0
18370,70.0,0,40,1.0,0.0
18371,43.0,0,60,4.0,0.0
18372,67.0,30,30,4.0,0.0
18373,62.0,15,30,4.0,0.0
18374,67.0,0,40,2.0,0.0
18375,74.0,0,40,0.0,0.0
18376,43.0,15,40,3.0,0.0
18377,70.0,0,40,1.0,0.0
18378,70.0,30,30,4.0,0.0
18379,43.0,0,15,4.0,0.0
18380,66.0,15,30,4.0,0.0
18381,43.0,0,40,3.0,0.0
18382,70.0,15,40,1.0,0.0
18383,73.0,0,40,0.0,0.0
18384,70.0,0,40,2.0,0.0
18385,67.0,30,30,4.0,0.0
18386,73.0,0,120,0.0,0.0
18387,64.0,0,120,2.0,0.0
18388,43.0,0,15,4.0,0.0
18389,45.0,0,120,4.0,0.0
18390,52.0,30,120,4.0,0.0
18391,61.0,30,30,4.0,0.0
18392,43.0,0,120,3.0,0.0
18393,69.0,0,120,1.0,0.0
18394,59.0,30,30,4.0,0.0
18395,57.0,30,30,4.0,0.0
18396,59.0,0,30,4.0,0.0
18397,61.0,30,30,4.0,0.0
18398,62.0,30,30,4.0,0.0
18399,64.0,30,30,4.0,0.0
18400,65.0,30,30,4.0,0.0
18401,67.0,30,30,4.0,0.0
18402,69.0,30,30,4.0,0.0
18403,70.0,30,30,4.0,0.0
18404,67.0,30,30,4.0,0.0
18405,64.0,30,30,4.0,0.0
18406,62.0,30,30,4.0,0.0
18407,45.0,30,30,4.0,0.0
18408,61.0,0,30,4.0,0.0
18409,47.0,30,30,4.0,0.0
18410,62.0,0,30,4.0,0.0
18411,49.0,0,30,4.0,0.0
18412,64.0,30,30,4.0,0.0
18413,65.0,0,30,4.0,0.0
18414,50.0,30,30,4.0,0.0
18415,67.0,0,30,4.0,0.0
18416,52.0,30,30,4.0,0.0
18417,53.0,30,30,4.0,0.0
18418,69.0,0,30,4.0,0.0
18419,55.0,0,180,4.0,0.0
18420,70.0,30,30,4.0,0.0
18421,67.0,30,30,4.0,0.0
18422,65.0,30,30,4.0,0.0
18423,64.0,30,30,4.0,0.0
18424,73.0,30,30,4.0,0.0
18425,71.0,30,30,4.0,0.0
18426,69.0,30,30,4.0,0.0
18427,67.0,0,30,4.0,0.0
18428,71.0,30,30,4.0,0.0
18429,65.0,0,30,4.0,0.0
18430,73.0,0,30,4.0,0.0
18431,64.0,30,30,4.0,0.0
18432,74.0,0,30,4.0,0.0
18433,62.0,30,30,4.0,0.0
18434,61.0,0,30,4.0,0.0
18435,76.0,30,30,4.0,0.0
18436,77.0,30,30,4.0,0.0
18437,59.0,0,30,4.0,0.0
18438,57.0,30,30,4.0,0.0
18439,79.0,0,30,4.0,0.0
18440,58.0,0,30,4.0,0.0
18441,77.0,30,30,4.0,0.0
18442,79.0,0,30,4.0,0.0
18443,57.0,30,30,4.0,0.0
18444,76.0,0,30,4.0,0.0
18445,55.0,30,30,4.0,0.0
18446,53.0,0,60,4.0,0.0
18447,81.0,30,30,4.0,0.0
18448,41.0,0,120,3.0,0.0
18449,74.0,0,120,0.0,0.0
18450,65.0,0,120,2.0,0.0
18451,69.0,30,120,1.0,0.0
18452,77.0,30,30,4.0,0.0
18453,57.0,0,60,4.0,0.0
18454,74.0,30,30,4.0,0.0
18455,69.0,0,30,4.0,0.0
18456,81.0,30,30,4.0,0.0
18457,62.0,30,60,4.0,0.0
18458,76.0,0,30,4.0,0.0
18459,77.0,30,30,4.0,0.0
18460,57.0,30,60,4.0,0.0
18461,74.0,0,30,4.0,0.0
18462,53.0,0,60,4.0,0.0
18463,69.0,30,30,4.0,0.0
18464,74.0,30,30,4.0,0.0
18465,77.0,30,30,4.0,0.0
18466,50.0,30,60,4.0,0.0
18467,81.0,0,30,4.0,0.0
18468,79.0,30,30,4.0,0.0
18469,76.0,30,120,0.0,0.0
18470,49.0,0,120,3.0,0.0
18471,49.0,0,60,4.0,0.0
18472,64.0,0,120,2.0,0.0
18473,69.0,0,120,1.0,0.0
18474,76.0,30,30,4.0,0.0
18475,73.0,30,30,4.0,0.0
18476,52.0,0,60,4.0,0.0
18477,69.0,0,30,4.0,0.0
18478,79.0,30,30,4.0,0.0
18479,57.0,0,60,4.0,0.0
18480,74.0,30,30,4.0,0.0
18481,76.0,30,30,4.0,0.0
18482,52.0,30,60,4.0,0.0
18483,73.0,0,30,4.0,0.0
18484,49.0,30,60,4.0,0.0
18485,69.0,30,30,4.0,0.0
18486,73.0,0,30,4.0,0.0
18487,45.0,0,60,4.0,0.0
18488,76.0,30,30,4.0,0.0
18489,79.0,30,30,4.0,0.0
18490,77.0,0,120,0.0,0.0
18491,77.0,30,30,4.0,0.0
18492,50.0,0,120,3.0,0.0
18493,62.0,30,120,2.0,0.0
18494,50.0,0,60,4.0,0.0
18495,69.0,0,120,1.0,0.0
18496,74.0,30,30,4.0,0.0
18497,70.0,30,30,4.0,0.0
18498,53.0,0,60,4.0,0.0
18499,69.0,0,30,4.0,0.0
18500,57.0,0,60,4.0,0.0
18501,77.0,30,30,4.0,0.0
18502,73.0,30,30,4.0,0.0
18503,74.0,30,30,4.0,0.0
18504,53.0,30,60,4.0,0.0
18505,70.0,0,30,4.0,0.0
18506,50.0,30,60,4.0,0.0
18507,69.0,30,30,4.0,0.0
18508,73.0,0,30,4.0,0.0
18509,45.0,0,60,4.0,0.0
18510,74.0,30,30,4.0,0.0
18511,77.0,30,30,4.0,0.0
18512,76.0,30,30,4.0,0.0
18513,49.0,30,60,4.0,0.0
18514,69.0,0,120,1.0,0.0
18515,76.0,0,120,0.0,0.0
18516,45.0,0,120,3.0,0.0
18517,61.0,30,120,2.0,0.0
18518,73.0,0,30,4.0,0.0
18519,70.0,30,30,4.0,0.0
18520,52.0,0,60,4.0,0.0
18521,69.0,0,30,4.0,0.0
18522,57.0,30,60,4.0,0.0
18523,76.0,30,30,4.0,0.0
18524,73.0,0,30,4.0,0.0
18525,52.0,30,60,4.0,0.0
18526,74.0,30,30,4.0,0.0
18527,70.0,0,30,4.0,0.0
18528,69.0,30,30,4.0,0.0
18529,49.0,30,60,4.0,0.0
18530,70.0,0,30,4.0,0.0
18531,45.0,0,60,4.0,0.0
18532,73.0,30,30,4.0,0.0
18533,76.0,30,30,4.0,0.0
18534,45.0,30,120,3.0,0.0
18535,62.0,0,120,2.0,0.0
18536,69.0,0,120,1.0,0.0
18537,74.0,0,120,0.0,0.0
18538,77.0,30,30,4.0,0.0
18539,50.0,30,60,4.0,0.0
18540,74.0,0,30,4.0,0.0
18541,70.0,30,30,4.0,0.0
18542,53.0,0,60,4.0,0.0
18543,69.0,0,30,4.0,0.0
18544,57.0,0,60,4.0,0.0
18545,77.0,30,30,4.0,0.0
18546,73.0,30,30,4.0,0.0
18547,74.0,30,30,4.0,0.0
18548,53.0,30,60,4.0,0.0
18549,70.0,0,30,4.0,0.0
18550,69.0,30,30,4.0,0.0
18551,50.0,30,60,4.0,0.0
18552,73.0,0,30,4.0,0.0
18553,45.0,30,60,4.0,0.0
18554,74.0,30,30,4.0,0.0
18555,77.0,0,30,4.0,0.0
18556,80.0,30,30,4.0,0.0
18557,74.0,0,120,0.0,0.0
18558,45.0,0,120,3.0,0.0
18559,50.0,0,60,4.0,0.0
18560,65.0,0,120,2.0,0.0
18561,71.0,0,120,1.0,0.0
18562,77.0,30,30,4.0,0.0
18563,74.0,30,30,4.0,0.0
18564,56.0,30,60,4.0,0.0
18565,71.0,0,30,4.0,0.0
18566,80.0,30,30,4.0,0.0
18567,59.0,30,60,4.0,0.0
18568,76.0,0,30,4.0,0.0
18569,56.0,30,60,4.0,0.0
18570,77.0,30,30,4.0,0.0
18571,74.0,0,30,4.0,0.0
18572,71.0,30,30,4.0,0.0
18573,50.0,30,60,4.0,0.0
18574,74.0,0,30,4.0,0.0
18575,45.0,30,60,4.0,0.0
18576,77.0,30,30,4.0,0.0
18577,80.0,0,30,4.0,0.0
18578,64.0,0,120,2.0,0.0
18579,57.0,30,30,4.0,0.0
18580,73.0,0,120,0.0,0.0
18581,69.0,0,120,1.0,0.0
18582,45.0,0,120,3.0,0.0
18583,81.0,0,30,4.0,0.0
18584,76.0,0,30,4.0,0.0
18585,67.0,30,30,4.0,0.0
18586,69.0,30,30,4.0,0.0
18587,77.0,0,30,4.0,0.0
18588,81.0,0,30,4.0,0.0
18589,65.0,30,30,4.0,0.0
18590,67.0,30,30,4.0,0.0
18591,81.0,0,30,4.0,0.0
18592,65.0,30,30,4.0,0.0
18593,74.0,0,30,4.0,0.0
18594,67.0,30,30,4.0,0.0
18595,76.0,0,30,4.0,0.0
18596,81.0,0,30,4.0,0.0
18597,64.0,30,30,4.0,0.0
18598,65.0,30,30,4.0,0.0
18599,81.0,0,30,4.0,0.0
18600,64.0,30,30,4.0,0.0
18601,73.0,0,30,4.0,0.0
18602,65.0,0,30,4.0,0.0
18603,74.0,30,30,4.0,0.0
18604,62.0,0,30,4.0,0.0
18605,81.0,30,15,4.0,0.0
18606,64.0,30,30,4.0,0.0
18607,71.0,30,30,4.0,0.0
18608,62.0,0,30,4.0,0.0
18609,64.0,30,30,4.0,0.0
18610,73.0,0,30,4.0,0.0
18611,61.0,30,30,4.0,0.0
18612,76.0,0,30,4.0,0.0
18613,81.0,30,30,4.0,0.0
18614,57.0,30,60,4.0,0.0
18615,76.0,0,30,4.0,0.0
18616,73.0,30,30,4.0,0.0
18617,45.0,0,60,4.0,0.0
18618,49.0,0,60,4.0,0.0
18619,52.0,0,60,4.0,0.0
18620,69.0,0,30,4.0,0.0
18621,67.0,30,30,4.0,0.0
18622,57.0,30,15,4.0,0.0
18623,69.0,0,30,4.0,0.0
18624,57.0,0,15,4.0,0.0
18625,52.0,30,15,4.0,0.0
18626,49.0,0,15,4.0,0.0
18627,45.0,0,15,4.0,0.0
18628,70.0,30,30,4.0,0.0
18629,73.0,30,30,4.0,0.0
18630,74.0,30,30,4.0,0.0
18631,57.0,0,15,4.0,0.0
18632,53.0,30,60,4.0,0.0
18633,50.0,0,60,4.0,0.0
18634,65.0,0,30,4.0,0.0
18635,69.0,0,30,4.0,0.0
18636,70.0,30,30,4.0,0.0
18637,67.0,0,30,4.0,0.0
18638,74.0,30,30,4.0,0.0
18639,64.0,0,30,4.0,0.0
18640,65.0,0,30,4.0,0.0
18641,74.0,30,30,4.0,0.0
18642,67.0,30,30,4.0,0.0
18643,64.0,0,30,4.0,0.0
18644,69.0,30,30,4.0,0.0
18645,65.0,0,30,4.0,0.0
18646,74.0,30,30,4.0,0.0
18647,62.0,0,30,4.0,0.0
18648,64.0,0,30,4.0,0.0
18649,74.0,30,30,4.0,0.0
18650,65.0,30,30,4.0,0.0
18651,62.0,0,30,4.0,0.0
18652,67.0,30,30,4.0,0.0
18653,64.0,0,30,4.0,0.0
18654,57.0,0,30,4.0,0.0
18655,74.0,30,15,4.0,0.0
18656,62.0,30,30,4.0,0.0
18657,64.0,0,30,4.0,0.0
18658,61.0,30,30,4.0,0.0
18659,62.0,30,30,4.0,0.0
18660,65.0,0,30,4.0,0.0
18661,57.0,30,30,4.0,0.0
18662,69.0,0,30,4.0,0.0
18663,74.0,30,30,4.0,0.0
18664,69.0,0,30,4.0,0.0
18665,65.0,30,30,4.0,0.0
18666,57.0,30,60,4.0,0.0
18667,53.0,30,15,4.0,0.0
18668,50.0,0,60,4.0,0.0
18669,69.0,0,30,4.0,0.0
18670,62.0,0,15,4.0,0.0
18671,50.0,0,60,4.0,0.0
18672,54.0,0,60,4.0,0.0
18673,57.0,30,60,4.0,0.0
18674,72.0,30,30,4.0,0.0
18675,74.0,0,30,4.0,0.0
18676,75.0,30,30,4.0,0.0
18677,62.0,0,60,4.0,0.0
18678,57.0,30,60,4.0,0.0
18679,50.0,0,60,4.0,0.0
18680,54.0,0,60,4.0,0.0
18681,78.0,0,30,4.0,0.0
18682,79.0,30,30,4.0,0.0
18683,62.0,0,60,4.0,0.0
18684,58.0,0,60,4.0,0.0
18685,55.0,0,60,4.0,0.0
18686,74.0,30,30,4.0,0.0
18687,66.0,0,30,4.0,0.0
18688,75.0,30,30,4.0,0.0
18689,67.0,0,30,4.0,0.0
18690,63.0,0,30,4.0,0.0
18691,79.0,30,15,4.0,0.0
18692,65.0,30,30,4.0,0.0
18693,72.0,30,30,4.0,0.0
18694,63.0,0,30,4.0,0.0
18695,65.0,30,30,4.0,0.0
18696,74.0,0,30,4.0,0.0
18697,62.0,0,30,4.0,0.0
18698,79.0,30,15,4.0,0.0
18699,63.0,0,30,4.0,0.0
18700,70.0,30,30,4.0,0.0
18701,62.0,0,30,4.0,0.0
18702,63.0,30,30,4.0,0.0
18703,72.0,0,30,4.0,0.0
18704,60.0,30,30,4.0,0.0
18705,79.0,0,30,4.0,0.0
18706,62.0,30,30,4.0,0.0
18707,79.0,0,30,4.0,0.0
18708,60.0,30,30,4.0,0.0
18709,69.0,0,30,4.0,0.0
18710,70.0,0,30,4.0,0.0
18711,62.0,30,30,4.0,0.0
18712,58.0,30,30,4.0,0.0
18713,74.0,0,30,4.0,0.0
18714,79.0,30,30,4.0,0.0
18715,74.0,30,30,4.0,0.0
18716,70.0,30,30,4.0,0.0
18717,55.0,0,15,4.0,0.0
18718,46.0,0,60,4.0,0.0
18719,67.0,0,30,4.0,0.0
18720,47.0,0,60,4.0,0.0
18721,55.0,30,15,4.0,0.0
18722,50.0,0,15,4.0,0.0
18723,43.0,0,15,4.0,0.0
18724,65.0,30,30,4.0,0.0
18725,67.0,0,30,4.0,0.0
18726,68.0,30,30,4.0,0.0
18727,43.0,30,15,4.0,0.0
18728,47.0,0,60,4.0,0.0
18729,50.0,30,60,4.0,0.0
18730,55.0,0,60,4.0,0.0
18731,71.0,0,30,4.0,0.0
18732,48.0,0,60,4.0,0.0
18733,52.0,30,60,4.0,0.0
18734,55.0,0,60,4.0,0.0
18735,72.0,30,30,4.0,0.0
18736,64.0,0,30,4.0,0.0
18737,67.0,0,30,4.0,0.0
18738,65.0,0,30,4.0,0.0
18739,69.0,30,30,4.0,0.0
18740,62.0,0,30,4.0,0.0
18741,64.0,30,30,4.0,0.0
18742,72.0,30,15,4.0,0.0
18743,62.0,30,30,4.0,0.0
18744,65.0,0,30,4.0,0.0
18745,64.0,0,30,4.0,0.0
18746,67.0,30,30,4.0,0.0
18747,60.0,30,30,4.0,0.0
18748,72.0,0,30,4.0,0.0
18749,62.0,0,30,4.0,0.0
18750,72.0,30,30,4.0,0.0
18751,60.0,30,30,4.0,0.0
18752,64.0,0,30,4.0,0.0
18753,62.0,30,30,4.0,0.0
18754,65.0,0,30,4.0,0.0
18755,55.0,30,30,4.0,0.0
18756,72.0,0,30,4.0,0.0
18757,60.0,0,30,4.0,0.0
18758,72.0,30,30,4.0,0.0
18759,59.0,30,30,4.0,0.0
18760,62.0,0,30,4.0,0.0
18761,60.0,30,30,4.0,0.0
18762,64.0,0,30,4.0,0.0
18763,55.0,30,30,4.0,0.0
18764,67.0,0,30,4.0,0.0
18765,52.0,0,60,4.0,0.0
18766,72.0,30,30,4.0,0.0
18767,67.0,30,30,4.0,0.0
18768,60.0,0,60,4.0,0.0
18769,64.0,30,30,4.0,0.0
18770,55.0,30,60,4.0,0.0
18771,48.0,0,60,4.0,0.0
18772,67.0,0,30,4.0,0.0
18773,52.0,0,15,4.0,0.0
18774,48.0,0,60,4.0,0.0
18775,70.0,30,30,4.0,0.0
18776,72.0,0,30,4.0,0.0
18777,55.0,0,15,4.0,0.0
18778,73.0,30,30,4.0,0.0
18779,60.0,30,15,4.0,0.0
18780,52.0,0,15,4.0,0.0
18781,48.0,0,60,4.0,0.0
18782,76.0,0,30,4.0,0.0
18783,60.0,0,15,4.0,0.0
18784,53.0,0,60,4.0,0.0
18785,77.0,30,30,4.0,0.0
18786,57.0,30,60,4.0,0.0
18787,64.0,0,30,4.0,0.0
18788,72.0,0,30,4.0,0.0
18789,74.0,0,30,4.0,0.0
18790,65.0,30,30,4.0,0.0
18791,62.0,30,30,4.0,0.0
18792,63.0,30,30,4.0,0.0
18793,77.0,0,15,4.0,0.0
18794,62.0,30,30,4.0,0.0
18795,70.0,0,30,4.0,0.0
18796,63.0,0,30,4.0,0.0
18797,72.0,30,30,4.0,0.0
18798,77.0,0,30,4.0,0.0
18799,60.0,30,30,4.0,0.0
18800,62.0,30,30,4.0,0.0
18801,77.0,0,30,4.0,0.0
18802,69.0,0,30,4.0,0.0
18803,60.0,30,30,4.0,0.0
18804,62.0,30,30,4.0,0.0
18805,70.0,0,30,4.0,0.0
18806,58.0,30,30,4.0,0.0
18807,77.0,0,30,4.0,0.0
18808,60.0,30,30,4.0,0.0
18809,77.0,0,30,4.0,0.0
18810,58.0,30,30,4.0,0.0
18811,67.0,0,30,4.0,0.0
18812,69.0,0,30,4.0,0.0
18813,60.0,30,30,4.0,0.0
18814,57.0,30,30,4.0,0.0
18815,72.0,0,30,4.0,0.0
18816,53.0,30,60,4.0,0.0
18817,77.0,30,30,4.0,0.0
18818,72.0,0,30,4.0,0.0
18819,69.0,30,30,4.0,0.0
18820,65.0,0,30,4.0,0.0
18821,63.0,30,30,4.0,0.0
18822,53.0,0,15,4.0,0.0
18823,48.0,30,15,4.0,0.0
18824,41.0,0,15,4.0,0.0
18825,45.0,0,15,4.0,0.0
18826,65.0,0,30,4.0,0.0
18827,45.0,0,15,4.0,0.0
18828,66.0,30,30,4.0,0.0
18829,53.0,0,15,4.0,0.0
18830,48.0,30,15,4.0,0.0
18831,41.0,0,15,4.0,0.0
18832,69.0,0,30,4.0,0.0
18833,50.0,30,60,4.0,0.0
18834,70.0,30,30,4.0,0.0
18835,53.0,0,15,4.0,0.0
18836,46.0,0,60,4.0,0.0
18837,62.0,0,30,4.0,0.0
18838,65.0,0,30,4.0,0.0
18839,63.0,30,30,4.0,0.0
18840,67.0,0,30,4.0,0.0
18841,60.0,30,30,4.0,0.0
18842,70.0,0,15,4.0,0.0
18843,62.0,30,30,4.0,0.0
18844,60.0,30,30,4.0,0.0
18845,63.0,0,30,4.0,0.0
18846,62.0,30,30,4.0,0.0
18847,65.0,0,30,4.0,0.0
18848,58.0,30,30,4.0,0.0
18849,70.0,0,15,4.0,0.0
18850,60.0,30,30,4.0,0.0
18851,58.0,30,30,4.0,0.0
18852,62.0,0,30,4.0,0.0
18853,63.0,30,30,4.0,0.0
18854,60.0,0,30,4.0,0.0
18855,53.0,30,30,4.0,0.0
18856,70.0,0,30,4.0,0.0
18857,58.0,30,30,4.0,0.0
18858,70.0,0,30,4.0,0.0
18859,57.0,30,30,4.0,0.0
18860,60.0,0,30,4.0,0.0
18861,58.0,30,30,4.0,0.0
18862,62.0,0,30,4.0,0.0
18863,65.0,0,30,4.0,0.0
18864,53.0,30,30,4.0,0.0
18865,50.0,0,60,4.0,0.0
18866,70.0,30,30,4.0,0.0
18867,65.0,30,30,4.0,0.0
18868,46.0,0,60,4.0,0.0
18869,62.0,30,30,4.0,0.0
18870,65.0,0,30,4.0,0.0
18871,68.0,30,30,4.0,0.0
18872,58.0,30,15,4.0,0.0
18873,53.0,0,15,4.0,0.0
18874,50.0,0,15,4.0,0.0
18875,70.0,0,30,4.0,0.0
18876,58.0,0,15,4.0,0.0
18877,53.0,30,15,4.0,0.0
18878,50.0,0,15,4.0,0.0
18879,71.0,30,30,4.0,0.0
18880,46.0,0,15,4.0,0.0
18881,74.0,0,30,4.0,0.0
18882,75.0,30,30,4.0,0.0
18883,58.0,0,15,4.0,0.0
18884,55.0,0,60,4.0,0.0
18885,51.0,0,60,4.0,0.0
18886,62.0,0,30,4.0,0.0
18887,70.0,0,30,4.0,0.0
18888,72.0,30,30,4.0,0.0
18889,63.0,0,30,4.0,0.0
18890,60.0,0,30,4.0,0.0
18891,75.0,30,15,4.0,0.0
18892,61.0,30,30,4.0,0.0
18893,60.0,30,30,4.0,0.0
18894,68.0,0,30,4.0,0.0
18895,70.0,30,30,4.0,0.0
18896,61.0,0,30,4.0,0.0
18897,75.0,0,30,4.0,0.0
18898,58.0,30,30,4.0,0.0
18899,60.0,30,30,4.0,0.0
18900,75.0,0,30,4.0,0.0
18901,58.0,0,30,4.0,0.0
18902,67.0,30,30,4.0,0.0
18903,68.0,0,30,4.0,0.0
18904,60.0,30,30,4.0,0.0
18905,56.0,30,30,4.0,0.0
18906,75.0,0,30,4.0,0.0
18907,58.0,30,30,4.0,0.0
18908,75.0,0,30,4.0,0.0
18909,56.0,30,30,4.0,0.0
18910,65.0,0,30,4.0,0.0
18911,58.0,30,30,4.0,0.0
18912,67.0,0,30,4.0,0.0
18913,70.0,30,30,4.0,0.0
18914,53.0,0,30,4.0,0.0
18915,75.0,0,30,4.0,0.0
18916,55.0,30,30,4.0,0.0
18917,51.0,30,30,4.0,0.0
18918,70.0,0,30,4.0,0.0
18919,55.0,30,30,4.0,0.0
18920,67.0,0,30,4.0,0.0
18921,58.0,0,30,4.0,0.0
18922,67.0,0,30,4.0,0.0
18923,63.0,30,15,4.0,0.0
18924,70.0,0,30,4.0,0.0
18925,51.0,30,30,4.0,0.0
18926,55.0,30,30,4.0,0.0
18927,75.0,0,30,4.0,0.0
18928,70.0,30,30,4.0,0.0
18929,58.0,0,30,4.0,0.0
18930,79.0,30,30,4.0,0.0
18931,63.0,0,60,4.0,0.0
18932,75.0,30,30,4.0,0.0
18933,43.0,15,40,3.0,0.0
18934,82.0,15,30,4.0,0.0
18935,55.0,0,60,4.0,0.0
18936,43.0,0,60,4.0,0.0
18937,79.0,30,30,4.0,0.0
18938,43.0,15,40,3.0,0.0
18939,75.0,15,30,4.0,0.0
18940,55.0,0,60,4.0,0.0
18941,79.0,30,30,4.0,0.0
18942,43.0,15,40,3.0,0.0
18943,70.0,15,30,4.0,0.0
18944,55.0,0,60,4.0,0.0
18945,43.0,0,15,4.0,0.0
18946,75.0,0,30,4.0,0.0
18947,67.0,15,30,4.0,0.0
18948,43.0,15,40,3.0,0.0
18949,43.0,0,60,4.0,0.0
18950,70.0,30,30,4.0,0.0
18951,63.0,15,30,4.0,0.0
18952,55.0,0,15,4.0,0.0
18953,43.0,0,60,4.0,0.0
18954,63.0,15,40,2.0,0.0
18955,79.0,0,40,1.0,0.0
18956,43.0,0,40,3.0,0.0
18957,82.0,0,40,0.0,0.0
18958,67.0,30,30,4.0,0.0
18959,79.0,0,60,1.0,0.0
18960,61.0,15,30,4.0,0.0
18961,45.0,0,780,3.0,0.0
18962,61.0,15,60,2.0,0.0
18963,52.0,0,120,4.0,0.0
18964,45.0,0,120,4.0,0.0
18965,82.0,0,60,0.0,0.0
18966,55.0,0,120,4.0,0.0
18967,67.0,15,15,4.0,0.0
18968,65.0,0,15,4.0,0.0
18969,64.0,15,15,4.0,0.0
18970,73.0,0,60,1.0,0.0
18971,67.0,0,60,2.0,0.0
18972,81.0,30,60,0.0,0.0
18973,65.0,30,15,4.0,0.0
18974,67.0,0,30,4.0,0.0
18975,57.0,30,30,4.0,0.0
18976,61.0,30,30,4.0,0.0
18977,45.0,0,60,4.0,0.0
18978,52.0,0,60,4.0,0.0
18979,55.0,0,60,4.0,0.0
18980,64.0,30,30,4.0,0.0
18981,67.0,30,30,4.0,0.0
18982,52.0,30,60,4.0,0.0
18983,55.0,0,60,4.0,0.0
18984,73.0,30,30,4.0,0.0
18985,67.0,0,30,4.0,0.0
18986,73.0,15,40,1.0,0.0
18987,67.0,0,40,2.0,0.0
18988,76.0,15,30,4.0,0.0
18989,81.0,0,40,0.0,0.0
18990,49.0,0,60,4.0,0.0
18991,45.0,0,15,4.0,0.0
18992,52.0,30,60,4.0,0.0
18993,67.0,0,30,4.0,0.0
18994,65.0,15,60,2.0,0.0
18995,81.0,0,60,0.0,0.0
18996,45.0,0,15,4.0,0.0
18997,50.0,30,120,4.0,0.0
18998,53.0,0,120,4.0,0.0
18999,65.0,15,30,4.0,0.0
19000,74.0,0,60,1.0,0.0
19001,74.0,15,15,4.0,0.0
19002,73.0,0,15,4.0,0.0
19003,62.0,0,60,2.0,0.0
19004,71.0,0,60,1.0,0.0
19005,80.0,0,60,0.0,0.0
19006,71.0,15,15,4.0,0.0
19007,73.0,30,15,4.0,0.0
19008,74.0,0,30,4.0,0.0
19009,68.0,30,30,4.0,0.0
19010,71.0,30,30,4.0,0.0
19011,50.0,0,60,4.0,0.0
19012,56.0,0,60,4.0,0.0
19013,74.0,30,30,4.0,0.0
19014,77.0,0,30,4.0,0.0
19015,45.0,0,15,4.0,0.0
19016,47.0,30,15,4.0,0.0
19017,80.0,30,30,4.0,0.0
19018,50.0,0,60,4.0,0.0
19019,74.0,0,30,4.0,0.0
19020,71.0,15,40,1.0,0.0
19021,62.0,0,40,2.0,0.0
19022,80.0,0,40,0.0,0.0
19023,45.0,0,15,4.0,0.0
19024,47.0,0,60,4.0,0.0
19025,50.0,0,60,4.0,0.0
19026,56.0,30,15,4.0,0.0
19027,83.0,15,30,4.0,0.0
19028,74.0,0,30,4.0,0.0
19029,57.0,0,60,4.0,0.0
19030,73.0,15,15,4.0,0.0
19031,45.0,0,15,4.0,0.0
19032,52.0,0,60,4.0,0.0
19033,81.0,0,120,0.0,0.0
19034,64.0,0,120,2.0,0.0
19035,73.0,0,120,1.0,0.0
19036,69.0,15,15,4.0,0.0
19037,64.0,15,15,4.0,0.0
19038,61.0,0,15,4.0,0.0
19039,45.0,15,40,3.0,0.0
19040,57.0,15,15,4.0,0.0
19041,55.0,15,15,4.0,0.0
19042,52.0,0,15,4.0,0.0
19043,49.0,30,15,4.0,0.0
19044,45.0,20,40,3.0,0.0
19045,45.0,10,30,4.0,0.0
19046,82.0,5,20,4.0,0.0
19047,79.0,15,20,4.0,0.0
19048,45.0,15,40,3.0,0.0
19049,76.0,20,20,4.0,0.0
19050,79.0,5,20,4.0,0.0
19051,76.0,20,20,4.0,0.0
19052,73.0,20,20,4.0,0.0
19053,45.0,15,40,3.0,0.0
19054,76.0,5,20,4.0,0.0
19055,73.0,20,20,4.0,0.0
19056,45.0,15,40,3.0,0.0
19057,69.0,20,20,4.0,0.0
19058,73.0,5,20,4.0,0.0
19059,69.0,15,20,4.0,0.0
19060,65.0,0,360,1.0,0.0
19061,57.0,15,60,4.0,0.0
19062,62.0,0,360,2.0,0.0
19063,50.0,0,60,4.0,0.0
19064,45.0,0,60,4.0,0.0
19065,65.0,15,15,4.0,0.0
19066,69.0,15,360,0.0,0.0
19067,67.0,15,15,4.0,0.0
19068,69.0,15,15,4.0,0.0
19069,65.0,0,15,4.0,0.0
19070,62.0,15,15,4.0,0.0
19071,45.0,15,40,3.0,0.0
19072,57.0,15,15,4.0,0.0
19073,53.0,0,15,4.0,0.0
19074,50.0,30,15,4.0,0.0
19075,45.0,15,40,3.0,0.0
19076,45.0,10,30,4.0,0.0
19077,81.0,5,20,4.0,0.0
19078,77.0,20,20,4.0,0.0
19079,45.0,15,40,3.0,0.0
19080,74.0,20,20,4.0,0.0
19081,77.0,5,20,4.0,0.0
19082,74.0,20,20,4.0,0.0
19083,45.0,15,40,3.0,0.0
19084,70.0,20,20,4.0,0.0
19085,74.0,5,20,4.0,0.0
19086,70.0,20,20,4.0,0.0
19087,67.0,20,20,4.0,0.0
19088,45.0,15,40,3.0,0.0
19089,70.0,5,20,4.0,0.0
19090,67.0,0,20,4.0,0.0
19091,52.0,0,60,4.0,0.0
19092,61.0,0,360,1.0,0.0
19093,49.0,0,60,4.0,0.0
19094,64.0,0,360,2.0,0.0
19095,57.0,15,60,4.0,0.0
19096,67.0,0,360,0.0,0.0
19097,64.0,15,15,4.0,0.0
19098,45.0,0,60,4.0,0.0
19099,65.0,15,15,4.0,0.0
19100,67.0,15,15,4.0,0.0
19101,64.0,0,15,4.0,0.0
19102,61.0,15,15,4.0,0.0
19103,45.0,15,40,3.0,0.0
19104,57.0,15,15,4.0,0.0
19105,52.0,0,15,4.0,0.0
19106,49.0,30,15,4.0,0.0
19107,45.0,20,40,3.0,0.0
19108,45.0,10,30,4.0,0.0
19109,79.0,5,20,4.0,0.0
19110,76.0,15,20,4.0,0.0
19111,45.0,15,40,3.0,0.0
19112,73.0,20,20,4.0,0.0
19113,76.0,5,20,4.0,0.0
19114,73.0,20,20,4.0,0.0
19115,69.0,20,20,4.0,0.0
19116,45.0,15,40,3.0,0.0
19117,73.0,5,20,4.0,0.0
19118,69.0,20,20,4.0,0.0
19119,65.0,20,20,4.0,0.0
19120,45.0,15,40,3.0,0.0
19121,69.0,5,20,4.0,0.0
19122,65.0,15,20,4.0,0.0
19123,62.0,0,360,1.0,0.0
19124,65.0,0,360,0.0,0.0
19125,56.0,0,360,2.0,0.0
19126,56.0,0,60,4.0,0.0
19127,47.0,15,60,4.0,0.0
19128,45.0,0,60,4.0,0.0
19129,62.0,15,15,4.0,0.0
19130,64.0,15,15,4.0,0.0
19131,65.0,15,15,4.0,0.0
19132,62.0,0,15,4.0,0.0
19133,59.0,15,15,4.0,0.0
19134,45.0,0,40,3.0,0.0
19135,56.0,15,15,4.0,0.0
19136,53.0,15,15,4.0,0.0
19137,50.0,30,15,4.0,0.0
19138,45.0,10,30,4.0,0.0
19139,45.0,20,40,3.0,0.0
19140,77.0,5,20,4.0,0.0
19141,74.0,15,20,4.0,0.0
19142,45.0,15,40,3.0,0.0
19143,71.0,20,20,4.0,0.0
19144,74.0,5,20,4.0,0.0
19145,71.0,20,20,4.0,0.0
19146,45.0,15,40,3.0,0.0
19147,68.0,20,20,4.0,0.0
19148,71.0,5,20,4.0,0.0
19149,68.0,20,20,4.0,0.0
19150,64.0,20,20,4.0,0.0
19151,45.0,15,40,3.0,0.0
19152,68.0,5,20,4.0,0.0
19153,64.0,15,20,4.0,0.0
19154,45.0,0,120,3.0,0.0
19155,64.0,0,120,0.0,0.0
19156,61.0,0,120,1.0,0.0
19157,57.0,0,120,2.0,0.0
19158,61.0,15,15,4.0,0.0
19159,45.0,0,60,4.0,0.0
19160,52.0,0,60,4.0,0.0
19161,57.0,0,60,4.0,0.0
19162,64.0,15,15,4.0,0.0
19163,69.0,15,15,4.0,0.0
19164,64.0,15,15,4.0,0.0
19165,61.0,15,15,4.0,0.0
19166,57.0,15,15,4.0,0.0
19167,52.0,15,15,4.0,0.0
19168,49.0,30,15,4.0,0.0
19169,45.0,30,30,4.0,0.0
19170,71.0,30,30,4.0,0.0
19171,43.0,0,30,4.0,0.0
19172,73.0,0,30,4.0,0.0
19173,41.0,30,30,4.0,0.0
19174,40.0,0,30,4.0,0.0
19175,74.0,30,30,4.0,0.0
19176,38.0,0,30,4.0,0.0
19177,76.0,30,30,4.0,0.0
19178,77.0,0,30,4.0,0.0
19179,36.0,30,30,4.0,0.0
19180,34.0,0,30,4.0,0.0
19181,79.0,30,30,4.0,0.0
19182,81.0,30,30,4.0,0.0
19183,33.0,0,30,4.0,0.0
19184,82.0,30,30,4.0,0.0
19185,31.0,0,30,4.0,0.0
19186,79.0,30,30,4.0,0.0
19187,33.0,0,30,4.0,0.0
19188,37.0,0,30,4.0,0.0
19189,76.0,30,30,4.0,0.0
19190,73.0,0,30,4.0,0.0
19191,40.0,15,30,4.0,0.0
19192,43.0,45,180,4.0,0.0
19193,70.0,15,15,4.0,0.0
19194,69.0,15,15,4.0,0.0
19195,70.0,15,15,4.0,0.0
19196,69.0,15,15,4.0,0.0
19197,70.0,15,15,4.0,0.0
19198,69.0,15,15,4.0,0.0
19199,70.0,15,15,4.0,0.0
19200,69.0,15,15,4.0,0.0
19201,70.0,15,15,4.0,0.0
19202,69.0,15,15,4.0,0.0
19203,70.0,15,15,4.0,0.0
19204,69.0,375,60,4.0,0.0
19205,69.0,0,60,4.0,0.0
19206,64.0,0,60,4.0,0.0
19207,73.0,30,60,4.0,0.0
19208,55.0,0,60,4.0,0.0
19209,53.0,30,30,4.0,0.0
19210,74.0,0,90,4.0,0.0
19211,69.0,30,90,4.0,0.0
19212,62.0,3,180,4.0,0.0
19213,52.0,30,30,4.0,0.0
19214,53.0,0,30,4.0,0.0
19215,55.0,7,30,4.0,0.0
19216,70.0,0,30,4.0,0.0
19217,76.0,0,30,4.0,0.0
19218,69.0,0,120,4.0,0.0
19219,57.0,0,240,4.0,0.0
19220,77.0,7,15,4.0,0.0
19221,76.0,7,15,4.0,0.0
19222,77.0,7,15,4.0,0.0
19223,76.0,7,15,4.0,0.0
19224,77.0,7,15,4.0,0.0
19225,76.0,7,15,4.0,0.0
19226,77.0,7,15,4.0,0.0
19227,76.0,4,15,4.0,0.0
19228,77.0,7,15,4.0,0.0
19229,61.0,1,30,4.0,0.0
19230,76.0,7,15,4.0,0.0
19231,77.0,7,15,4.0,0.0
19232,76.0,6,15,4.0,0.0
19233,77.0,7,15,4.0,0.0
19234,59.0,6,30,4.0,0.0
19235,76.0,7,15,4.0,0.0
19236,77.0,7,15,4.0,0.0
19237,76.0,7,15,4.0,0.0
19238,77.0,1,15,4.0,0.0
19239,76.0,7,15,4.0,0.0
19240,61.0,0,120,4.0,0.0
19241,67.0,0,120,4.0,0.0
19242,77.0,7,15,4.0,0.0
19243,76.0,7,15,4.0,0.0
19244,77.0,7,15,4.0,0.0
19245,76.0,7,15,4.0,0.0
19246,77.0,8,15,4.0,0.0
19247,76.0,71,15,4.0,0.0
19248,74.0,45,60,4.0,0.0
19249,74.0,15,40,1.0,0.0
19250,50.0,0,120,4.0,0.0
19251,57.0,0,60,4.0,0.0
19252,62.0,30,60,4.0,0.0
19253,65.0,0,60,4.0,0.0
19254,74.0,0,60,4.0,0.0
19255,74.0,0,40,0.0,0.0
19256,72.0,30,30,1.0,0.0
19257,72.0,0,30,0.0,0.0
19258,72.0,0,30,4.0,0.0
19259,70.0,0,30,0.0,0.0
19260,70.0,0,30,1.0,0.0
19261,70.0,45,30,4.0,0.0
19262,69.0,15,40,1.0,0.0
19263,69.0,0,40,0.0,0.0
19264,69.0,45,60,4.0,0.0
19265,67.0,45,60,4.0,0.0
19266,67.0,15,40,1.0,0.0
19267,67.0,0,40,0.0,0.0
19268,65.0,0,40,0.0,0.0
19269,65.0,15,40,1.0,0.0
19270,65.0,45,60,4.0,0.0
19271,64.0,15,40,0.0,0.0
19272,64.0,0,40,1.0,0.0
19273,64.0,45,60,4.0,0.0
19274,65.0,28,60,4.0,0.0
19275,65.0,0,40,0.0,0.0
19276,65.0,15,40,1.0,0.0
19277,50.0,2,30,3.0,0.0
19278,62.0,13,40,0.0,0.0
19279,65.0,15,30,2.0,0.0
19280,62.0,0,60,4.0,0.0
19281,50.0,0,30,4.0,0.0
19282,62.0,0,40,1.0,0.0
19283,52.0,2,30,3.0,0.0
19284,52.0,0,30,4.0,0.0
19285,67.0,43,30,2.0,0.0
19286,53.0,2,40,3.0,0.0
19287,53.0,28,60,4.0,0.0
19288,69.0,15,40,2.0,0.0
19289,74.0,0,40,1.0,0.0
19290,74.0,0,40,0.0,0.0
19291,52.0,2,30,3.0,0.0
19292,67.0,0,30,2.0,0.0
19293,74.0,13,40,0.0,0.0
19294,74.0,0,40,1.0,0.0
19295,74.0,0,15,4.0,0.0
19296,52.0,15,30,4.0,0.0
19297,53.0,2,30,3.0,0.0
19298,53.0,0,30,4.0,0.0
19299,69.0,43,30,2.0,0.0
19300,55.0,2,40,3.0,0.0
19301,55.0,0,60,4.0,0.0
19302,74.0,0,40,1.0,0.0
19303,74.0,0,15,4.0,0.0
19304,74.0,0,40,0.0,0.0
19305,70.0,15,40,2.0,0.0
19306,53.0,2,30,3.0,0.0
19307,74.0,13,40,0.0,0.0
19308,69.0,15,30,2.0,0.0
19309,74.0,0,40,1.0,0.0
19310,53.0,0,30,4.0,0.0
19311,74.0,0,60,4.0,0.0
19312,55.0,2,30,3.0,0.0
19313,55.0,0,30,4.0,0.0
19314,70.0,32,30,2.0,0.0
19315,57.0,2,40,3.0,0.0
19316,74.0,13,30,4.0,0.0
19317,57.0,28,60,4.0,0.0
19318,64.0,15,40,2.0,0.0
19319,74.0,0,30,0.0,0.0
19320,74.0,0,30,1.0,0.0
19321,72.0,0,30,1.0,0.0
19322,72.0,0,30,0.0,0.0
19323,72.0,0,30,4.0,0.0
19324,53.0,2,30,3.0,0.0
19325,74.0,0,30,4.0,0.0
19326,74.0,28,30,1.0,0.0
19327,69.0,0,30,2.0,0.0
19328,74.0,0,30,0.0,0.0
19329,53.0,0,30,4.0,0.0
19330,55.0,2,30,3.0,0.0
19331,76.0,0,30,4.0,0.0
19332,76.0,0,30,1.0,0.0
19333,76.0,43,30,0.0,0.0
19334,55.0,0,30,4.0,0.0
19335,70.0,0,30,2.0,0.0
19336,57.0,2,40,3.0,0.0
19337,72.0,0,40,2.0,0.0
19338,57.0,28,60,4.0,0.0
19339,77.0,0,60,4.0,0.0
19340,77.0,0,40,1.0,0.0
19341,77.0,15,40,0.0,0.0
19342,55.0,2,30,3.0,0.0
19343,77.0,0,40,0.0,0.0
19344,55.0,0,30,4.0,0.0
19345,70.0,15,30,2.0,0.0
19346,77.0,13,40,1.0,0.0
19347,57.0,2,30,3.0,0.0
19348,57.0,0,30,4.0,0.0
19349,72.0,0,30,2.0,0.0
19350,58.0,2,40,3.0,0.0
19351,77.0,15,40,1.0,0.0
19352,77.0,0,40,0.0,0.0
19353,74.0,0,40,2.0,0.0
19354,77.0,43,15,4.0,0.0
19355,58.0,0,60,4.0,0.0
19356,57.0,2,30,3.0,0.0
19357,57.0,0,30,4.0,0.0
19358,77.0,13,40,1.0,0.0
19359,72.0,15,30,2.0,0.0
19360,77.0,0,40,0.0,0.0
19361,58.0,2,30,3.0,0.0
19362,58.0,0,30,4.0,0.0
19363,74.0,0,30,2.0,0.0
19364,60.0,2,40,3.0,0.0
19365,60.0,0,60,4.0,0.0
19366,77.0,30,15,4.0,0.0
19367,67.0,15,40,2.0,0.0
19368,77.0,0,30,0.0,0.0
19369,77.0,13,30,1.0,0.0
19370,76.0,28,30,4.0,0.0
19371,76.0,0,30,0.0,0.0
19372,76.0,0,30,1.0,0.0
19373,57.0,2,30,3.0,0.0
19374,60.0,0,30,2.0,0.0
19375,77.0,0,30,0.0,0.0
19376,77.0,0,30,1.0,0.0
19377,77.0,28,30,4.0,0.0
19378,57.0,0,30,4.0,0.0
19379,59.0,2,30,3.0,0.0
19380,79.0,0,30,1.0,0.0
19381,62.0,0,30,2.0,0.0
19382,79.0,43,30,0.0,0.0
19383,59.0,0,30,4.0,0.0
19384,79.0,0,30,4.0,0.0
19385,60.0,2,40,3.0,0.0
19386,64.0,15,40,2.0,0.0
19387,60.0,28,60,4.0,0.0
19388,81.0,0,60,4.0,0.0
19389,81.0,0,40,0.0,0.0
19390,81.0,0,40,1.0,0.0
19391,59.0,2,30,3.0,0.0
19392,81.0,13,40,1.0,0.0
19393,81.0,0,40,0.0,0.0
19394,59.0,15,30,4.0,0.0
19395,81.0,0,60,4.0,0.0
19396,62.0,0,30,2.0,0.0
19397,60.0,2,30,3.0,0.0
19398,64.0,43,30,2.0,0.0
19399,60.0,0,30,4.0,0.0
19400,62.0,2,40,3.0,0.0
19401,62.0,0,60,4.0,0.0
19402,81.0,15,40,1.0,0.0
19403,65.0,0,40,2.0,0.0
19404,81.0,0,40,0.0,0.0
19405,60.0,2,30,3.0,0.0
19406,81.0,28,15,4.0,0.0
19407,60.0,0,30,4.0,0.0
19408,81.0,13,40,0.0,0.0
19409,64.0,15,30,2.0,0.0
19410,81.0,0,40,1.0,0.0
19411,62.0,2,30,3.0,0.0
19412,62.0,0,30,4.0,0.0
19413,65.0,43,30,2.0,0.0
19414,64.0,2,40,3.0,0.0
19415,64.0,30,60,4.0,0.0
19416,81.0,0,60,4.0,0.0
19417,81.0,15,40,1.0,0.0
19418,59.0,0,120,2.0,0.0
19419,81.0,0,40,0.0,0.0
19420,52.0,17,40,3.0,0.0
19421,52.0,0,60,4.0,0.0
19422,79.0,0,30,1.0,0.0
19423,79.0,13,30,0.0,0.0
19424,79.0,0,30,4.0,0.0
19425,77.0,43,30,1.0,0.0
19426,77.0,0,30,4.0,0.0
19427,77.0,0,30,0.0,0.0
19428,64.0,2,40,3.0,0.0
19429,79.0,15,40,0.0,0.0
19430,79.0,0,40,1.0,0.0
19431,64.0,0,60,4.0,0.0
19432,79.0,30,60,4.0,0.0
19433,59.0,0,30,2.0,0.0
19434,62.0,17,40,3.0,0.0
19435,76.0,13,30,1.0,0.0
19436,62.0,30,60,4.0,0.0
19437,61.0,0,30,2.0,0.0
19438,76.0,0,30,0.0,0.0
19439,76.0,0,30,4.0,0.0
19440,62.0,0,30,2.0,0.0
19441,77.0,0,30,0.0,0.0
19442,77.0,0,30,1.0,0.0
19443,77.0,0,30,4.0,0.0
19444,61.0,2,40,3.0,0.0
19445,64.0,13,30,2.0,0.0
19446,79.0,0,40,1.0,0.0
19447,79.0,15,40,0.0,0.0
19448,79.0,0,60,4.0,0.0
19449,61.0,0,60,4.0,0.0
19450,62.0,30,30,2.0,0.0
19451,57.0,2,40,3.0,0.0
19452,79.0,0,40,0.0,0.0
19453,79.0,15,40,1.0,0.0
19454,57.0,0,60,4.0,0.0
19455,61.0,13,30,2.0,0.0
19456,59.0,0,30,2.0,0.0
19457,62.0,2,40,3.0,0.0
19458,79.0,43,15,4.0,0.0
19459,57.0,0,120,2.0,0.0
19460,62.0,30,60,4.0,0.0
19461,79.0,15,40,1.0,0.0
19462,79.0,0,40,0.0,0.0
19463,50.0,17,40,3.0,0.0
19464,77.0,0,30,0.0,0.0
19465,50.0,43,60,4.0,0.0
19466,77.0,0,30,4.0,0.0
19467,77.0,13,30,1.0,0.0
19468,76.0,0,30,4.0,0.0
19469,76.0,0,30,0.0,0.0
19470,76.0,0,30,1.0,0.0
19471,62.0,2,40,3.0,0.0
19472,77.0,0,40,1.0,0.0
19473,77.0,15,40,0.0,0.0
19474,77.0,0,60,4.0,0.0
19475,62.0,30,60,4.0,0.0
19476,60.0,17,40,3.0,0.0
19477,74.0,0,30,1.0,0.0
19478,65.0,0,30,2.0,0.0
19479,74.0,13,30,0.0,0.0
19480,74.0,0,30,4.0,0.0
19481,60.0,0,60,4.0,0.0
19482,76.0,0,30,1.0,0.0
19483,76.0,43,30,4.0,0.0
19484,76.0,0,30,0.0,0.0
19485,67.0,0,30,2.0,0.0
19486,58.0,2,40,3.0,0.0
19487,77.0,30,60,4.0,0.0
19488,77.0,15,40,1.0,0.0
19489,69.0,0,40,2.0,0.0
19490,58.0,0,60,4.0,0.0
19491,77.0,0,40,0.0,0.0
19492,57.0,2,40,3.0,0.0
19493,79.0,0,30,4.0,0.0
19494,57.0,0,60,4.0,0.0
19495,79.0,13,30,0.0,0.0
19496,62.0,15,40,2.0,0.0
19497,79.0,0,30,1.0,0.0
19498,81.0,43,30,4.0,0.0
19499,81.0,0,30,0.0,0.0
19500,81.0,0,30,1.0,0.0
19501,55.0,2,40,3.0,0.0
19502,82.0,0,40,0.0,0.0
19503,82.0,0,60,4.0,0.0
19504,55.0,28,60,4.0,0.0
19505,82.0,0,40,1.0,0.0
19506,74.0,15,40,2.0,0.0
19507,57.0,2,30,3.0,0.0
19508,57.0,0,30,4.0,0.0
19509,70.0,28,30,2.0,0.0
19510,79.0,0,30,4.0,0.0
19511,79.0,0,30,1.0,0.0
19512,79.0,0,30,0.0,0.0
19513,58.0,2,30,3.0,0.0
19514,77.0,0,30,1.0,0.0
19515,77.0,0,30,0.0,0.0
19516,58.0,0,30,4.0,0.0
19517,77.0,0,30,4.0,0.0
19518,69.0,43,30,2.0,0.0
19519,60.0,2,40,3.0,0.0
19520,60.0,0,60,4.0,0.0
19521,76.0,30,60,4.0,0.0
19522,76.0,0,40,1.0,0.0
19523,76.0,0,40,0.0,0.0
19524,67.0,15,40,2.0,0.0
19525,58.0,17,40,3.0,0.0
19526,72.0,0,30,4.0,0.0
19527,58.0,43,60,4.0,0.0
19528,72.0,13,30,0.0,0.0
19529,72.0,0,30,1.0,0.0
19530,64.0,0,30,2.0,0.0
19531,65.0,0,30,2.0,0.0
19532,74.0,0,30,1.0,0.0
19533,74.0,0,30,0.0,0.0
19534,74.0,0,30,4.0,0.0
19535,57.0,2,40,3.0,0.0
19536,76.0,0,40,1.0,0.0
19537,67.0,0,40,2.0,0.0
19538,57.0,0,60,4.0,0.0
19539,76.0,15,40,0.0,0.0
19540,76.0,30,60,4.0,0.0
19541,55.0,2,40,3.0,0.0
19542,60.0,15,40,2.0,0.0
19543,55.0,0,60,4.0,0.0
19544,77.0,13,30,0.0,0.0
19545,77.0,0,30,1.0,0.0
19546,77.0,0,30,4.0,0.0
19547,79.0,0,30,4.0,0.0
19548,79.0,0,30,0.0,0.0
19549,79.0,43,30,1.0,0.0
19550,53.0,2,40,3.0,0.0
19551,72.0,15,40,2.0,0.0
19552,53.0,0,60,4.0,0.0
19553,81.0,0,40,0.0,0.0
19554,81.0,0,40,1.0,0.0
19555,81.0,28,60,4.0,0.0
19556,55.0,2,30,3.0,0.0
19557,77.0,28,30,4.0,0.0
19558,77.0,0,30,0.0,0.0
19559,55.0,0,30,4.0,0.0
19560,77.0,0,30,1.0,0.0
19561,69.0,0,30,2.0,0.0
19562,57.0,2,30,3.0,0.0
19563,76.0,0,30,1.0,0.0
19564,76.0,43,30,0.0,0.0
19565,67.0,0,30,2.0,0.0
19566,76.0,0,30,4.0,0.0
19567,57.0,0,30,4.0,0.0
19568,58.0,2,40,3.0,0.0
19569,65.0,0,40,2.0,0.0
19570,74.0,0,40,1.0,0.0
19571,74.0,30,60,4.0,0.0
19572,58.0,0,60,4.0,0.0
19573,74.0,15,40,0.0,0.0
19574,57.0,2,40,3.0,0.0
19575,86.0,0,30,1.0,0.0
19576,86.0,0,30,4.0,0.0
19577,57.0,0,60,4.0,0.0
19578,65.0,15,40,2.0,0.0
19579,86.0,13,30,0.0,0.0
19580,85.0,0,30,1.0,0.0
19581,85.0,0,30,4.0,0.0
19582,85.0,43,30,0.0,0.0
19583,55.0,2,40,3.0,0.0
19584,70.0,0,40,2.0,0.0
19585,86.0,0,40,1.0,0.0
19586,55.0,0,60,4.0,0.0
19587,86.0,43,60,4.0,0.0
19588,86.0,15,40,0.0,0.0
19589,53.0,2,40,3.0,0.0
19590,82.0,0,40,0.0,0.0
19591,74.0,15,40,2.0,0.0
19592,82.0,0,40,1.0,0.0
19593,82.0,0,60,4.0,0.0
19594,53.0,58,60,4.0,0.0
19595,52.0,2,60,3.0,0.0
19596,70.0,0,120,2.0,0.0
19597,79.0,0,60,0.0,0.0
19598,52.0,0,60,4.0,0.0
19599,79.0,0,60,4.0,0.0
19600,79.0,58,60,1.0,0.0
19601,50.0,2,60,3.0,0.0
19602,78.0,0,60,0.0,0.0
19603,78.0,0,60,1.0,0.0
19604,50.0,43,60,4.0,0.0
19605,78.0,0,60,4.0,0.0
19606,49.0,2,40,3.0,0.0
19607,79.0,30,60,4.0,0.0
19608,79.0,0,40,1.0,0.0
19609,79.0,15,40,0.0,0.0
19610,49.0,0,60,4.0,0.0
19611,50.0,17,40,3.0,0.0
19612,82.0,0,30,1.0,0.0
19613,67.0,0,30,2.0,0.0
19614,82.0,13,30,4.0,0.0
19615,50.0,0,60,4.0,0.0
19616,82.0,0,30,0.0,0.0
19617,81.0,43,30,0.0,0.0
19618,65.0,0,30,2.0,0.0
19619,81.0,0,30,1.0,0.0
19620,81.0,0,30,4.0,0.0
19621,52.0,2,40,3.0,0.0
19622,82.0,0,40,1.0,0.0
19623,82.0,15,40,0.0,0.0
19624,82.0,0,60,4.0,0.0
19625,52.0,30,60,4.0,0.0
19626,67.0,0,40,2.0,0.0
19627,53.0,2,40,3.0,0.0
19628,79.0,15,40,1.0,0.0
19629,79.0,0,60,4.0,0.0
19630,70.0,13,30,2.0,0.0
19631,79.0,0,40,0.0,0.0
19632,53.0,0,60,4.0,0.0
19633,69.0,45,30,2.0,0.0
19634,55.0,2,60,3.0,0.0
19635,75.0,0,60,0.0,0.0
19636,55.0,0,60,4.0,0.0
19637,75.0,0,60,4.0,0.0
19638,70.0,13,40,2.0,0.0
19639,75.0,45,60,1.0,0.0
19640,53.0,2,60,3.0,0.0
19641,69.0,13,40,2.0,0.0
19642,74.0,0,60,0.0,0.0
19643,53.0,0,60,4.0,0.0
19644,74.0,43,60,1.0,0.0
19645,74.0,0,60,4.0,0.0
19646,55.0,2,40,3.0,0.0
19647,75.0,0,60,4.0,0.0
19648,55.0,30,60,4.0,0.0
19649,75.0,0,40,0.0,0.0
19650,70.0,15,40,2.0,0.0
19651,75.0,0,40,1.0,0.0
19652,57.0,2,40,3.0,0.0
19653,79.0,0,30,1.0,0.0
19654,57.0,0,60,4.0,0.0
19655,79.0,0,30,4.0,0.0
19656,72.0,15,40,2.0,0.0
19657,79.0,13,30,0.0,0.0
19658,78.0,0,30,1.0,0.0
19659,78.0,0,30,4.0,0.0
19660,78.0,43,30,0.0,0.0
19661,58.0,2,40,3.0,0.0
19662,74.0,15,40,2.0,0.0
19663,58.0,43,60,4.0,0.0
19664,79.0,0,60,4.0,0.0
19665,79.0,0,40,0.0,0.0
19666,79.0,0,40,1.0,0.0
19667,55.0,2,40,3.0,0.0
19668,75.0,15,40,0.0,0.0
19669,75.0,0,60,4.0,0.0
19670,70.0,0,40,2.0,0.0
19671,55.0,45,60,4.0,0.0
19672,75.0,0,40,1.0,0.0
19673,57.0,2,120,3.0,0.0
19674,73.0,0,40,0.0,0.0
19675,57.0,0,120,4.0,0.0
19676,73.0,30,60,4.0,0.0
19677,64.0,0,40,2.0,0.0
19678,73.0,15,40,1.0,0.0
19679,82.0,0,30,1.0,0.0
19680,82.0,15,30,4.0,0.0
19681,73.0,13,40,2.0,0.0
19682,82.0,0,30,0.0,0.0
19683,81.0,0,30,1.0,0.0
19684,81.0,45,30,0.0,0.0
19685,81.0,0,30,4.0,0.0
19686,82.0,15,40,0.0,0.0
19687,82.0,0,40,1.0,0.0
19688,73.0,0,40,2.0,0.0
19689,82.0,30,60,4.0,0.0
19690,73.0,15,40,2.0,0.0
19691,79.0,0,30,0.0,0.0
19692,79.0,0,30,4.0,0.0
19693,79.0,15,30,1.0,0.0
19694,78.0,0,30,4.0,0.0
19695,78.0,45,30,1.0,0.0
19696,78.0,0,30,0.0,0.0
19697,79.0,15,40,1.0,0.0
19698,79.0,43,60,4.0,0.0
19699,73.0,0,40,2.0,0.0
19700,79.0,0,40,0.0,0.0
19701,55.0,2,40,3.0,0.0
19702,73.0,15,40,1.0,0.0
19703,55.0,0,60,4.0,0.0
19704,73.0,43,60,4.0,0.0
19705,64.0,0,40,2.0,0.0
19706,73.0,0,40,0.0,0.0
19707,53.0,2,40,3.0,0.0
19708,74.0,0,40,1.0,0.0
19709,69.0,15,40,2.0,0.0
19710,53.0,0,60,4.0,0.0
19711,74.0,0,40,0.0,0.0
19712,74.0,28,60,4.0,0.0
19713,52.0,2,30,3.0,0.0
19714,65.0,0,40,1.0,0.0
19715,65.0,13,40,2.0,0.0
19716,65.0,43,60,4.0,0.0
19717,65.0,0,40,0.0,0.0
19718,52.0,15,30,4.0,0.0
19719,50.0,2,30,3.0,0.0
19720,50.0,0,30,4.0,0.0
19721,58.0,2,40,3.0,0.0
19722,67.0,0,40,1.0,0.0
19723,62.0,15,40,2.0,0.0
19724,67.0,0,40,0.0,0.0
19725,58.0,0,60,4.0,0.0
19726,67.0,28,60,4.0,0.0
19727,57.0,2,30,3.0,0.0
19728,67.0,0,40,2.0,0.0
19729,57.0,15,30,4.0,0.0
19730,74.0,0,40,1.0,0.0
19731,74.0,13,40,0.0,0.0
19732,74.0,0,60,4.0,0.0
19733,55.0,2,30,3.0,0.0
19734,55.0,43,30,4.0,0.0
19735,57.0,2,40,3.0,0.0
19736,69.0,0,40,1.0,0.0
19737,57.0,43,60,4.0,0.0
19738,69.0,0,40,0.0,0.0
19739,69.0,0,60,4.0,0.0
19740,64.0,15,40,2.0,0.0
19741,45.0,2,40,3.0,0.0
19742,73.0,118,60,4.0,0.0
19743,73.0,0,40,1.0,0.0
19744,73.0,0,40,0.0,0.0
19745,69.0,15,40,2.0,0.0
19746,50.0,0,120,3.0,0.0
19747,45.0,0,15,4.0,0.0
19748,69.0,0,120,4.0,0.0
19749,38.0,0,120,4.0,0.0
19750,50.0,0,120,4.0,0.0
19751,62.0,0,120,4.0,0.0
19752,65.0,0,120,4.0,0.0
19753,74.0,0,120,4.0,0.0
19754,74.0,361,120,1.0,0.0
19755,65.0,0,120,2.0,0.0
19756,74.0,0,120,0.0,0.0
