,note,step,duration,channel,velocity
0,77.0,30,90,1.0,0.0
1,69.0,0,40,2.0,0.0
2,65.0,0,40,3.0,0.0
3,60.0,0,40,4.0,0.0
4,53.0,0,40,5.0,0.0
5,41.0,27,40,6.0,0.0
6,41.0,0,20,5.0,0.0
7,29.0,15,20,6.0,0.0
8,70.0,0,40,2.0,0.0
9,58.0,0,40,3.0,0.0
10,67.0,0,40,4.0,0.0
11,43.0,0,40,5.0,0.0
12,31.0,3,40,6.0,0.0
13,76.0,24,20,1.0,0.0
14,74.0,0,20,1.0,0.0
15,55.0,0,20,5.0,0.0
16,43.0,45,20,6.0,0.0
17,72.0,30,90,1.0,0.0
18,72.0,0,40,2.0,0.0
19,65.0,0,40,3.0,0.0
20,60.0,0,40,4.0,0.0
21,57.0,0,40,5.0,0.0
22,45.0,27,40,6.0,0.0
23,45.0,0,20,5.0,0.0
24,33.0,15,20,6.0,0.0
25,74.0,0,40,2.0,0.0
26,62.0,0,40,3.0,0.0
27,53.0,0,40,4.0,0.0
28,46.0,0,40,5.0,0.0
29,34.0,3,40,6.0,0.0
30,70.0,24,20,1.0,0.0
31,69.0,0,20,1.0,0.0
32,58.0,0,20,5.0,0.0
33,46.0,24,20,6.0,0.0
34,67.0,18,20,1.0,0.0
35,76.0,3,20,2.0,0.0
36,67.0,0,40,3.0,0.0
37,60.0,0,40,4.0,0.0
38,58.0,0,40,5.0,0.0
39,46.0,3,40,6.0,0.0
40,64.0,0,20,1.0,0.0
41,72.0,24,20,2.0,0.0
42,65.0,0,20,1.0,0.0
43,77.0,24,40,2.0,0.0
44,72.0,0,20,3.0,0.0
45,60.0,0,20,4.0,0.0
46,57.0,0,20,5.0,0.0
47,45.0,21,20,6.0,0.0
48,70.0,30,90,1.0,0.0
49,74.0,0,40,3.0,0.0
50,67.0,0,40,4.0,0.0
51,55.0,0,40,5.0,0.0
52,43.0,3,40,6.0,0.0
53,74.0,24,20,2.0,0.0
54,76.0,0,20,2.0,0.0
55,72.0,0,20,3.0,0.0
56,67.0,0,20,4.0,0.0
57,60.0,0,20,5.0,0.0
58,48.0,15,20,6.0,0.0
59,77.0,0,40,2.0,0.0
60,72.0,0,40,3.0,0.0
61,65.0,0,40,4.0,0.0
62,53.0,0,40,5.0,0.0
63,41.0,3,40,6.0,0.0
64,69.0,24,20,1.0,0.0
65,72.0,0,20,1.0,0.0
66,72.0,0,20,2.0,0.0
67,69.0,0,20,3.0,0.0
68,65.0,0,20,4.0,0.0
69,57.0,0,20,5.0,0.0
70,45.0,24,20,6.0,0.0
71,77.0,15,20,1.0,0.0
72,72.0,0,40,2.0,0.0
73,69.0,0,40,3.0,0.0
74,65.0,0,40,4.0,0.0
75,50.0,0,40,5.0,0.0
76,38.0,6,40,6.0,0.0
77,79.0,6,15,1.0,0.0
78,77.0,12,15,1.0,0.0
79,76.0,9,15,1.0,0.0
80,71.0,0,20,2.0,0.0
81,67.0,0,20,3.0,0.0
82,67.0,0,20,4.0,0.0
83,55.0,0,20,5.0,0.0
84,43.0,1,20,6.0,0.0
85,74.0,14,15,1.0,0.0
86,84.0,0,90,0.0,0.0
87,76.0,12,15,1.0,0.0
88,72.0,0,40,2.0,0.0
89,67.0,0,40,3.0,0.0
90,64.0,0,40,4.0,0.0
91,48.0,0,40,5.0,0.0
92,36.0,4,40,6.0,0.0
93,74.0,10,15,1.0,0.0
94,76.0,8,15,1.0,0.0
95,72.0,12,15,1.0,0.0
96,67.0,11,15,1.0,0.0
97,36.0,0,20,5.0,0.0
98,24.0,1,20,6.0,0.0
99,72.0,14,15,1.0,0.0
100,77.0,12,15,1.0,0.0
101,77.0,0,40,2.0,0.0
102,65.0,0,40,3.0,0.0
103,62.0,0,40,4.0,0.0
104,38.0,0,40,5.0,0.0
105,26.0,3,40,6.0,0.0
106,76.0,10,15,1.0,0.0
107,83.0,1,20,0.0,0.0
108,77.0,8,15,1.0,0.0
109,74.0,12,15,1.0,0.0
110,81.0,0,20,0.0,0.0
111,71.0,11,15,1.0,0.0
112,50.0,0,20,5.0,0.0
113,38.0,1,20,6.0,0.0
114,74.0,14,15,1.0,0.0
115,79.0,0,90,0.0,0.0
116,79.0,12,15,1.0,0.0
117,76.0,0,40,2.0,0.0
118,72.0,0,40,3.0,0.0
119,55.0,0,40,4.0,0.0
120,52.0,0,40,5.0,0.0
121,40.0,4,40,6.0,0.0
122,77.0,10,15,1.0,0.0
123,79.0,8,15,1.0,0.0
124,76.0,12,15,1.0,0.0
125,72.0,11,15,1.0,0.0
126,40.0,0,20,5.0,0.0
127,28.0,1,20,6.0,0.0
128,76.0,14,15,1.0,0.0
129,81.0,12,15,1.0,0.0
130,72.0,0,40,2.0,0.0
131,69.0,0,40,3.0,0.0
132,60.0,0,40,4.0,0.0
133,41.0,0,40,5.0,0.0
134,29.0,3,40,6.0,0.0
135,79.0,10,15,1.0,0.0
136,77.0,1,20,0.0,0.0
137,81.0,8,15,1.0,0.0
138,77.0,12,15,1.0,0.0
139,76.0,0,20,0.0,0.0
140,79.0,11,15,1.0,0.0
141,53.0,0,20,5.0,0.0
142,41.0,1,20,6.0,0.0
143,81.0,23,15,1.0,0.0
144,74.0,18,20,0.0,0.0
145,71.0,3,20,1.0,0.0
146,79.0,0,40,2.0,0.0
147,74.0,0,40,3.0,0.0
148,55.0,0,40,4.0,0.0
149,53.0,0,40,5.0,0.0
150,41.0,3,40,6.0,0.0
151,71.0,0,20,0.0,0.0
152,79.0,24,20,1.0,0.0
153,72.0,0,20,0.0,0.0
154,72.0,24,40,1.0,0.0
155,79.0,0,20,2.0,0.0
156,76.0,0,20,3.0,0.0
157,55.0,0,20,4.0,0.0
158,52.0,0,20,5.0,0.0
159,40.0,21,20,6.0,0.0
160,77.0,0,90,0.0,0.0
161,77.0,0,40,2.0,0.0
162,69.0,0,40,3.0,0.0
163,62.0,0,40,4.0,0.0
164,50.0,0,40,5.0,0.0
165,38.0,3,40,6.0,0.0
166,69.0,6,20,1.0,0.0
167,71.0,3,15,1.0,0.0
168,74.0,0,20,2.0,0.0
169,67.0,0,20,3.0,0.0
170,59.0,0,20,4.0,0.0
171,55.0,0,20,5.0,0.0
172,43.0,1,20,6.0,0.0
173,72.0,3,15,1.0,0.0
174,71.0,3,15,1.0,0.0
175,72.0,3,15,1.0,0.0
176,71.0,3,15,1.0,0.0
177,72.0,2,15,1.0,0.0
178,71.0,1,15,1.0,0.0
179,72.0,2,15,1.0,0.0
180,71.0,12,15,1.0,0.0
181,72.0,12,15,1.0,0.0
182,72.0,0,40,2.0,0.0
183,67.0,0,40,3.0,0.0
184,55.0,0,40,4.0,0.0
185,48.0,0,40,5.0,0.0
186,36.0,3,40,6.0,0.0
187,71.0,10,15,1.0,0.0
188,76.0,1,20,0.0,0.0
189,72.0,8,15,1.0,0.0
190,67.0,12,15,1.0,0.0
191,79.0,0,20,0.0,0.0
192,64.0,11,15,1.0,0.0
193,46.0,0,20,5.0,0.0
194,34.0,1,20,6.0,0.0
195,67.0,14,15,1.0,0.0
196,84.0,0,40,0.0,0.0
197,65.0,12,15,1.0,0.0
198,45.0,0,40,5.0,0.0
199,33.0,6,40,6.0,0.0
200,67.0,12,15,1.0,0.0
201,69.0,6,15,1.0,0.0
202,70.0,10,15,1.0,0.0
203,75.0,0,40,0.0,0.0
204,72.0,11,15,1.0,0.0
205,72.0,6,40,2.0,0.0
206,65.0,0,20,3.0,0.0
207,57.0,0,20,4.0,0.0
208,41.0,0,20,5.0,0.0
209,29.0,1,20,6.0,0.0
210,69.0,14,15,1.0,0.0
211,65.0,6,15,1.0,0.0
212,65.0,0,40,3.0,0.0
213,58.0,0,40,4.0,0.0
214,46.0,0,40,5.0,0.0
215,34.0,3,40,6.0,0.0
216,63.0,10,15,1.0,0.0
217,74.0,0,20,0.0,0.0
218,65.0,8,15,1.0,0.0
219,70.0,1,20,2.0,0.0
220,70.0,12,15,1.0,0.0
221,77.0,0,20,0.0,0.0
222,62.0,11,15,1.0,0.0
223,45.0,0,20,5.0,0.0
224,33.0,1,20,6.0,0.0
225,65.0,14,15,1.0,0.0
226,82.0,0,40,0.0,0.0
227,64.0,12,15,1.0,0.0
228,43.0,0,40,5.0,0.0
229,31.0,6,40,6.0,0.0
230,65.0,12,15,1.0,0.0
231,67.0,6,15,1.0,0.0
232,69.0,10,15,1.0,0.0
233,74.0,0,40,0.0,0.0
234,70.0,11,15,1.0,0.0
235,70.0,6,40,2.0,0.0
236,64.0,0,20,3.0,0.0
237,55.0,0,20,4.0,0.0
238,40.0,0,20,5.0,0.0
239,28.0,1,20,6.0,0.0
240,67.0,14,15,1.0,0.0
241,64.0,6,15,1.0,0.0
242,64.0,0,40,3.0,0.0
243,57.0,0,40,4.0,0.0
244,45.0,0,40,5.0,0.0
245,33.0,3,40,6.0,0.0
246,62.0,10,15,1.0,0.0
247,72.0,0,20,0.0,0.0
248,64.0,8,15,1.0,0.0
249,69.0,1,20,2.0,0.0
250,69.0,12,15,1.0,0.0
251,76.0,0,20,0.0,0.0
252,60.0,11,15,1.0,0.0
253,43.0,0,20,5.0,0.0
254,31.0,1,20,6.0,0.0
255,64.0,14,15,1.0,0.0
256,81.0,0,40,0.0,0.0
257,62.0,12,15,1.0,0.0
258,41.0,0,40,5.0,0.0
259,29.0,6,40,6.0,0.0
260,64.0,12,15,1.0,0.0
261,65.0,6,15,1.0,0.0
262,67.0,10,15,1.0,0.0
263,72.0,0,40,0.0,0.0
264,69.0,11,15,1.0,0.0
265,69.0,6,40,2.0,0.0
266,62.0,0,20,3.0,0.0
267,53.0,0,20,4.0,0.0
268,38.0,0,20,5.0,0.0
269,26.0,1,20,6.0,0.0
270,65.0,14,15,1.0,0.0
271,62.0,6,15,1.0,0.0
272,62.0,0,40,3.0,0.0
273,55.0,0,40,4.0,0.0
274,43.0,0,40,5.0,0.0
275,31.0,3,40,6.0,0.0
276,60.0,10,15,1.0,0.0
277,70.0,0,20,0.0,0.0
278,62.0,8,15,1.0,0.0
279,67.0,1,20,2.0,0.0
280,67.0,12,15,1.0,0.0
281,74.0,0,20,0.0,0.0
282,58.0,11,15,1.0,0.0
283,41.0,0,20,5.0,0.0
284,29.0,1,20,6.0,0.0
285,62.0,14,15,1.0,0.0
286,79.0,0,40,0.0,0.0
287,60.0,12,15,1.0,0.0
288,40.0,0,40,5.0,0.0
289,28.0,6,40,6.0,0.0
290,62.0,12,15,1.0,0.0
291,64.0,6,15,1.0,0.0
292,65.0,10,15,1.0,0.0
293,70.0,0,40,0.0,0.0
294,67.0,11,15,1.0,0.0
295,72.0,24,40,2.0,0.0
296,64.0,0,20,3.0,0.0
297,67.0,0,20,4.0,0.0
298,36.0,0,20,5.0,0.0
299,24.0,1,20,6.0,0.0
300,64.0,20,15,1.0,0.0
301,65.0,0,40,1.0,0.0
302,60.0,0,40,3.0,0.0
303,65.0,0,40,4.0,0.0
304,41.0,0,40,5.0,0.0
305,29.0,3,40,6.0,0.0
306,69.0,0,20,0.0,0.0
307,77.0,24,20,2.0,0.0
308,74.0,0,20,0.0,0.0
309,74.0,0,20,2.0,0.0
310,58.0,0,20,3.0,0.0
311,65.0,0,20,4.0,0.0
312,46.0,0,20,5.0,0.0
313,34.0,24,20,6.0,0.0
314,79.0,15,20,0.0,0.0
315,74.0,0,40,2.0,0.0
316,70.0,0,40,3.0,0.0
317,67.0,0,40,4.0,0.0
318,40.0,0,40,5.0,0.0
319,28.0,6,40,6.0,0.0
320,81.0,6,15,0.0,0.0
321,79.0,12,15,0.0,0.0
322,77.0,9,15,0.0,0.0
323,73.0,0,20,2.0,0.0
324,69.0,0,20,3.0,0.0
325,69.0,0,20,4.0,0.0
326,45.0,0,20,5.0,0.0
327,33.0,1,20,6.0,0.0
328,76.0,14,15,0.0,0.0
329,77.0,12,15,0.0,0.0
330,74.0,12,90,1.0,0.0
331,74.0,0,40,2.0,0.0
332,69.0,0,40,3.0,0.0
333,65.0,0,40,4.0,0.0
334,50.0,0,40,5.0,0.0
335,38.0,4,40,6.0,0.0
336,76.0,10,15,0.0,0.0
337,77.0,8,15,0.0,0.0
338,74.0,12,15,0.0,0.0
339,69.0,11,15,0.0,0.0
340,38.0,0,20,5.0,0.0
341,26.0,1,20,6.0,0.0
342,74.0,14,15,0.0,0.0
343,79.0,0,15,0.0,0.0
344,79.0,0,40,2.0,0.0
345,67.0,0,40,3.0,0.0
346,64.0,0,40,4.0,0.0
347,40.0,0,40,5.0,0.0
348,28.0,3,40,6.0,0.0
349,77.0,10,15,0.0,0.0
350,79.0,8,15,0.0,0.0
351,72.0,1,20,1.0,0.0
352,76.0,12,15,0.0,0.0
353,72.0,11,15,0.0,0.0
354,70.0,0,20,1.0,0.0
355,52.0,0,20,5.0,0.0
356,40.0,1,20,6.0,0.0
357,76.0,14,15,0.0,0.0
358,81.0,12,15,0.0,0.0
359,69.0,12,90,1.0,0.0
360,72.0,0,40,2.0,0.0
361,65.0,0,40,3.0,0.0
362,57.0,0,40,4.0,0.0
363,53.0,0,40,5.0,0.0
364,41.0,4,40,6.0,0.0
365,79.0,10,15,0.0,0.0
366,81.0,8,15,0.0,0.0
367,77.0,12,15,0.0,0.0
368,74.0,11,15,0.0,0.0
369,41.0,0,20,5.0,0.0
370,29.0,1,20,6.0,0.0
371,77.0,14,15,0.0,0.0
372,82.0,0,15,0.0,0.0
373,70.0,0,40,2.0,0.0
374,65.0,0,40,3.0,0.0
375,62.0,0,40,4.0,0.0
376,43.0,0,40,5.0,0.0
377,31.0,3,40,6.0,0.0
378,81.0,10,15,0.0,0.0
379,82.0,8,15,0.0,0.0
380,67.0,1,20,1.0,0.0
381,79.0,12,15,0.0,0.0
382,81.0,11,15,0.0,0.0
383,65.0,0,20,1.0,0.0
384,55.0,0,20,5.0,0.0
385,43.0,1,20,6.0,0.0
386,82.0,23,15,0.0,0.0
387,73.0,3,20,0.0,0.0
388,64.0,18,20,1.0,0.0
389,69.0,0,40,2.0,0.0
390,64.0,0,40,3.0,0.0
391,64.0,0,40,4.0,0.0
392,55.0,0,40,5.0,0.0
393,43.0,3,40,6.0,0.0
394,81.0,0,20,0.0,0.0
395,61.0,24,20,1.0,0.0
396,74.0,24,40,0.0,0.0
397,62.0,0,20,1.0,0.0
398,81.0,0,20,2.0,0.0
399,57.0,0,20,3.0,0.0
400,65.0,0,20,4.0,0.0
401,53.0,0,20,5.0,0.0
402,41.0,21,20,6.0,0.0
403,67.0,23,60,1.0,0.0
404,79.0,0,40,2.0,0.0
405,64.0,0,40,3.0,0.0
406,70.0,0,40,4.0,0.0
407,52.0,0,40,5.0,0.0
408,40.0,3,40,6.0,0.0
409,71.0,24,20,0.0,0.0
410,73.0,0,20,0.0,0.0
411,76.0,0,20,2.0,0.0
412,61.0,0,20,3.0,0.0
413,69.0,0,20,4.0,0.0
414,57.0,0,20,5.0,0.0
415,45.0,4,20,6.0,0.0
416,74.0,0,40,0.0,0.0
417,74.0,0,40,2.0,0.0
418,57.0,0,40,3.0,0.0
419,69.0,0,40,4.0,0.0
420,50.0,0,40,5.0,0.0
421,38.0,6,40,6.0,0.0
422,64.0,12,15,1.0,0.0
423,66.0,6,15,1.0,0.0
424,67.0,12,15,1.0,0.0
425,69.0,9,15,1.0,0.0
426,62.0,0,20,5.0,0.0
427,50.0,1,20,6.0,0.0
428,70.0,12,15,1.0,0.0
429,72.0,14,15,1.0,0.0
430,54.0,0,40,5.0,0.0
431,42.0,6,40,6.0,0.0
432,75.0,12,15,1.0,0.0
433,69.0,20,60,0.0,0.0
434,74.0,6,15,1.0,0.0
435,72.0,12,15,1.0,0.0
436,70.0,9,15,1.0,0.0
437,72.0,0,20,2.0,0.0
438,66.0,0,20,3.0,0.0
439,62.0,0,20,4.0,0.0
440,50.0,0,20,5.0,0.0
441,38.0,1,20,6.0,0.0
442,69.0,6,15,1.0,0.0
443,70.0,0,40,1.0,0.0
444,70.0,0,40,2.0,0.0
445,62.0,0,40,3.0,0.0
446,62.0,0,40,4.0,0.0
447,55.0,0,40,5.0,0.0
448,43.0,6,40,6.0,0.0
449,66.0,12,15,0.0,0.0
450,67.0,6,15,0.0,0.0
451,69.0,12,15,0.0,0.0
452,70.0,9,15,0.0,0.0
453,63.0,0,20,5.0,0.0
454,51.0,1,20,6.0,0.0
455,72.0,14,15,0.0,0.0
456,74.0,9,15,0.0,0.0
457,55.0,0,20,5.0,0.0
458,43.0,3,20,6.0,0.0
459,77.0,12,15,0.0,0.0
460,75.0,12,15,0.0,0.0
461,70.0,20,60,1.0,0.0
462,74.0,12,15,0.0,0.0
463,72.0,9,15,0.0,0.0
464,67.0,0,20,2.0,0.0
465,63.0,0,20,3.0,0.0
466,60.0,0,20,4.0,0.0
467,51.0,0,20,5.0,0.0
468,39.0,1,20,6.0,0.0
469,70.0,6,15,0.0,0.0
470,72.0,6,60,0.0,0.0
471,65.0,0,40,2.0,0.0
472,63.0,0,40,3.0,0.0
473,60.0,0,40,4.0,0.0
474,57.0,0,40,5.0,0.0
475,45.0,6,40,6.0,0.0
476,67.0,12,15,1.0,0.0
477,69.0,6,15,1.0,0.0
478,70.0,12,15,1.0,0.0
479,72.0,3,15,1.0,0.0
480,65.0,0,20,5.0,0.0
481,53.0,1,20,6.0,0.0
482,74.0,12,15,1.0,0.0
483,75.0,14,15,1.0,0.0
484,57.0,0,40,5.0,0.0
485,45.0,6,40,6.0,0.0
486,79.0,12,15,1.0,0.0
487,77.0,6,15,1.0,0.0
488,75.0,12,15,1.0,0.0
489,74.0,9,15,1.0,0.0
490,69.0,0,20,2.0,0.0
491,63.0,0,20,3.0,0.0
492,65.0,0,20,4.0,0.0
493,53.0,0,20,5.0,0.0
494,41.0,1,20,6.0,0.0
495,72.0,14,15,1.0,0.0
496,82.0,0,90,0.0,0.0
497,74.0,12,15,1.0,0.0
498,70.0,0,40,2.0,0.0
499,62.0,0,40,3.0,0.0
500,65.0,0,40,4.0,0.0
501,58.0,0,40,5.0,0.0
502,46.0,4,40,6.0,0.0
503,72.0,10,15,1.0,0.0
504,74.0,8,15,1.0,0.0
505,70.0,12,15,1.0,0.0
506,65.0,11,15,1.0,0.0
507,46.0,0,20,5.0,0.0
508,34.0,1,20,6.0,0.0
509,70.0,14,15,1.0,0.0
510,75.0,12,15,1.0,0.0
511,75.0,0,40,2.0,0.0
512,60.0,0,40,3.0,0.0
513,63.0,0,40,4.0,0.0
514,48.0,0,40,5.0,0.0
515,36.0,3,40,6.0,0.0
516,74.0,10,15,1.0,0.0
517,81.0,1,20,0.0,0.0
518,75.0,8,15,1.0,0.0
519,72.0,12,15,1.0,0.0
520,79.0,0,20,0.0,0.0
521,69.0,11,15,1.0,0.0
522,60.0,0,20,5.0,0.0
523,48.0,1,20,6.0,0.0
524,72.0,14,15,1.0,0.0
525,77.0,0,90,0.0,0.0
526,77.0,12,15,1.0,0.0
527,74.0,0,40,2.0,0.0
528,65.0,0,40,3.0,0.0
529,58.0,0,40,4.0,0.0
530,62.0,0,40,5.0,0.0
531,50.0,4,40,6.0,0.0
532,75.0,10,15,1.0,0.0
533,77.0,8,15,1.0,0.0
534,74.0,12,15,1.0,0.0
535,70.0,11,15,1.0,0.0
536,50.0,0,20,5.0,0.0
537,38.0,1,20,6.0,0.0
538,74.0,14,15,1.0,0.0
539,79.0,12,15,1.0,0.0
540,79.0,0,40,2.0,0.0
541,70.0,0,40,3.0,0.0
542,55.0,0,40,4.0,0.0
543,51.0,0,40,5.0,0.0
544,39.0,3,40,6.0,0.0
545,77.0,10,15,1.0,0.0
546,75.0,1,20,0.0,0.0
547,79.0,8,15,1.0,0.0
548,75.0,12,15,1.0,0.0
549,74.0,0,20,0.0,0.0
550,77.0,11,15,1.0,0.0
551,63.0,0,20,5.0,0.0
552,51.0,1,20,6.0,0.0
553,79.0,23,15,1.0,0.0
554,72.0,18,20,0.0,0.0
555,69.0,3,20,1.0,0.0
556,77.0,0,40,2.0,0.0
557,72.0,0,40,3.0,0.0
558,60.0,0,40,4.0,0.0
559,63.0,0,40,5.0,0.0
560,51.0,3,40,6.0,0.0
561,69.0,0,20,0.0,0.0
562,77.0,24,20,1.0,0.0
563,70.0,0,20,0.0,0.0
564,70.0,24,40,1.0,0.0
565,77.0,0,20,2.0,0.0
566,74.0,0,20,3.0,0.0
567,53.0,0,20,4.0,0.0
568,62.0,0,20,5.0,0.0
569,50.0,21,20,6.0,0.0
570,75.0,30,90,0.0,0.0
571,75.0,0,40,2.0,0.0
572,67.0,0,40,3.0,0.0
573,60.0,0,40,4.0,0.0
574,60.0,0,40,5.0,0.0
575,48.0,3,40,6.0,0.0
576,67.0,24,20,1.0,0.0
577,69.0,0,20,1.0,0.0
578,72.0,0,20,2.0,0.0
579,65.0,0,20,3.0,0.0
580,57.0,0,20,4.0,0.0
581,53.0,0,20,5.0,0.0
582,41.0,15,20,6.0,0.0
583,70.0,6,60,1.0,0.0
584,70.0,0,40,2.0,0.0
585,65.0,0,40,3.0,0.0
586,53.0,0,40,4.0,0.0
587,58.0,0,40,5.0,0.0
588,46.0,3,40,6.0,0.0
589,74.0,18,20,0.0,0.0
590,77.0,0,20,0.0,0.0
591,77.0,0,20,2.0,0.0
592,62.0,0,20,3.0,0.0
593,58.0,0,20,4.0,0.0
594,62.0,0,20,5.0,0.0
595,50.0,24,20,6.0,0.0
596,82.0,15,20,0.0,0.0
597,77.0,0,40,2.0,0.0
598,74.0,0,40,3.0,0.0
599,67.0,0,40,4.0,0.0
600,55.0,0,40,5.0,0.0
601,43.0,6,40,6.0,0.0
602,84.0,6,15,0.0,0.0
603,82.0,12,15,0.0,0.0
604,81.0,9,15,0.0,0.0
605,76.0,0,20,2.0,0.0
606,72.0,0,20,3.0,0.0
607,67.0,0,20,4.0,0.0
608,60.0,0,20,5.0,0.0
609,48.0,1,20,6.0,0.0
610,79.0,14,15,0.0,0.0
611,81.0,12,15,0.0,0.0
612,77.0,12,90,1.0,0.0
613,77.0,0,40,2.0,0.0
614,72.0,0,40,3.0,0.0
615,65.0,0,40,4.0,0.0
616,53.0,0,40,5.0,0.0
617,41.0,4,40,6.0,0.0
618,79.0,10,15,0.0,0.0
619,81.0,8,15,0.0,0.0
620,77.0,12,15,0.0,0.0
621,72.0,11,15,0.0,0.0
622,41.0,0,20,5.0,0.0
623,29.0,1,20,6.0,0.0
624,77.0,14,15,0.0,0.0
625,82.0,0,15,0.0,0.0
626,70.0,0,40,2.0,0.0
627,67.0,0,40,3.0,0.0
628,70.0,0,40,4.0,0.0
629,43.0,0,40,5.0,0.0
630,31.0,3,40,6.0,0.0
631,81.0,10,15,0.0,0.0
632,82.0,8,15,0.0,0.0
633,76.0,1,20,1.0,0.0
634,79.0,12,15,0.0,0.0
635,76.0,11,15,0.0,0.0
636,74.0,0,20,1.0,0.0
637,55.0,0,20,5.0,0.0
638,43.0,1,20,6.0,0.0
639,79.0,14,15,0.0,0.0
640,84.0,12,15,0.0,0.0
641,72.0,12,90,1.0,0.0
642,77.0,0,40,2.0,0.0
643,72.0,0,40,3.0,0.0
644,69.0,0,40,4.0,0.0
645,57.0,0,40,5.0,0.0
646,45.0,4,40,6.0,0.0
647,82.0,10,15,0.0,0.0
648,84.0,8,15,0.0,0.0
649,81.0,12,15,0.0,0.0
650,77.0,11,15,0.0,0.0
651,45.0,0,20,5.0,0.0
652,33.0,1,20,6.0,0.0
653,81.0,14,15,0.0,0.0
654,86.0,0,15,0.0,0.0
655,77.0,0,40,2.0,0.0
656,65.0,0,40,3.0,0.0
657,62.0,0,40,4.0,0.0
658,46.0,0,40,5.0,0.0
659,34.0,3,40,6.0,0.0
660,84.0,10,15,0.0,0.0
661,86.0,8,15,0.0,0.0
662,70.0,1,20,1.0,0.0
663,82.0,12,15,0.0,0.0
664,84.0,11,15,0.0,0.0
665,69.0,0,20,1.0,0.0
666,58.0,0,20,5.0,0.0
667,46.0,1,20,6.0,0.0
668,86.0,23,15,0.0,0.0
669,76.0,3,20,0.0,0.0
670,67.0,18,20,1.0,0.0
671,79.0,0,40,2.0,0.0
672,72.0,0,40,3.0,0.0
673,60.0,0,40,4.0,0.0
674,58.0,0,40,5.0,0.0
675,46.0,3,40,6.0,0.0
676,84.0,3,20,0.0,0.0
677,64.0,21,20,1.0,0.0
678,77.0,24,40,0.0,0.0
679,65.0,0,20,1.0,0.0
680,81.0,0,20,2.0,0.0
681,72.0,0,20,3.0,0.0
682,65.0,0,20,4.0,0.0
683,57.0,0,20,5.0,0.0
684,45.0,21,20,6.0,0.0
685,70.0,12,90,1.0,0.0
686,74.0,0,40,2.0,0.0
687,70.0,0,40,3.0,0.0
688,67.0,0,40,4.0,0.0
689,55.0,0,40,5.0,0.0
690,43.0,3,40,6.0,0.0
691,74.0,24,20,0.0,0.0
692,76.0,0,20,0.0,0.0
693,72.0,0,20,2.0,0.0
694,67.0,0,20,3.0,0.0
695,64.0,0,20,4.0,0.0
696,48.0,0,20,5.0,0.0
697,36.0,15,20,6.0,0.0
698,77.0,0,15,0.0,0.0
699,72.0,0,40,2.0,0.0
700,65.0,0,40,3.0,0.0
701,60.0,0,40,4.0,0.0
702,53.0,0,40,5.0,0.0
703,41.0,3,40,6.0,0.0
704,76.0,10,15,0.0,0.0
705,77.0,8,15,0.0,0.0
706,69.0,1,20,1.0,0.0
707,81.0,12,15,0.0,0.0
708,76.0,11,15,0.0,0.0
709,70.0,0,20,1.0,0.0
710,55.0,0,20,5.0,0.0
711,43.0,1,20,6.0,0.0
712,79.0,14,15,0.0,0.0
713,77.0,12,15,0.0,0.0
714,72.0,0,40,1.0,0.0
715,57.0,0,40,5.0,0.0
716,45.0,6,40,6.0,0.0
717,79.0,12,15,0.0,0.0
718,81.0,6,15,0.0,0.0
719,82.0,12,15,0.0,0.0
720,84.0,9,15,0.0,0.0
721,63.0,0,40,1.0,0.0
722,84.0,6,40,2.0,0.0
723,65.0,0,20,3.0,0.0
724,57.0,0,20,4.0,0.0
725,53.0,0,20,5.0,0.0
726,41.0,1,20,6.0,0.0
727,81.0,14,15,0.0,0.0
728,77.0,6,15,0.0,0.0
729,65.0,0,40,3.0,0.0
730,58.0,0,40,4.0,0.0
731,58.0,0,40,5.0,0.0
732,46.0,3,40,6.0,0.0
733,76.0,10,15,0.0,0.0
734,77.0,8,15,0.0,0.0
735,62.0,0,20,1.0,0.0
736,82.0,1,20,2.0,0.0
737,82.0,12,15,0.0,0.0
738,74.0,11,15,0.0,0.0
739,65.0,0,20,1.0,0.0
740,57.0,0,20,5.0,0.0
741,45.0,1,20,6.0,0.0
742,77.0,14,15,0.0,0.0
743,76.0,12,15,0.0,0.0
744,70.0,0,40,1.0,0.0
745,55.0,0,40,5.0,0.0
746,43.0,6,40,6.0,0.0
747,77.0,12,15,0.0,0.0
748,79.0,6,15,0.0,0.0
749,81.0,12,15,0.0,0.0
750,82.0,9,15,0.0,0.0
751,62.0,0,40,1.0,0.0
752,82.0,6,40,2.0,0.0
753,64.0,0,20,3.0,0.0
754,55.0,0,20,4.0,0.0
755,52.0,0,20,5.0,0.0
756,40.0,1,20,6.0,0.0
757,79.0,14,15,0.0,0.0
758,76.0,6,15,0.0,0.0
759,64.0,0,40,3.0,0.0
760,57.0,0,40,4.0,0.0
761,57.0,0,40,5.0,0.0
762,45.0,3,40,6.0,0.0
763,74.0,10,15,0.0,0.0
764,76.0,8,15,0.0,0.0
765,60.0,0,20,1.0,0.0
766,81.0,1,20,2.0,0.0
767,81.0,12,15,0.0,0.0
768,72.0,11,15,0.0,0.0
769,64.0,0,20,1.0,0.0
770,55.0,0,20,5.0,0.0
771,43.0,1,20,6.0,0.0
772,76.0,14,15,0.0,0.0
773,74.0,12,15,0.0,0.0
774,69.0,0,40,1.0,0.0
775,53.0,0,40,5.0,0.0
776,41.0,6,40,6.0,0.0
777,76.0,12,15,0.0,0.0
778,77.0,6,15,0.0,0.0
779,79.0,10,15,0.0,0.0
780,81.0,11,15,0.0,0.0
781,60.0,0,40,1.0,0.0
782,81.0,6,40,2.0,0.0
783,62.0,0,20,3.0,0.0
784,53.0,0,20,4.0,0.0
785,50.0,0,20,5.0,0.0
786,38.0,1,20,6.0,0.0
787,77.0,14,15,0.0,0.0
788,74.0,6,15,0.0,0.0
789,62.0,0,40,3.0,0.0
790,55.0,0,40,4.0,0.0
791,55.0,0,40,5.0,0.0
792,43.0,3,40,6.0,0.0
793,72.0,10,15,0.0,0.0
794,74.0,8,15,0.0,0.0
795,58.0,0,20,1.0,0.0
796,79.0,1,20,2.0,0.0
797,79.0,12,15,0.0,0.0
798,70.0,11,15,0.0,0.0
799,62.0,0,20,1.0,0.0
800,53.0,0,20,5.0,0.0
801,41.0,1,20,6.0,0.0
802,74.0,14,15,0.0,0.0
803,72.0,12,15,0.0,0.0
804,67.0,0,40,1.0,0.0
805,52.0,0,40,5.0,0.0
806,40.0,6,40,6.0,0.0
807,74.0,12,15,0.0,0.0
808,76.0,6,15,0.0,0.0
809,77.0,10,15,0.0,0.0
810,79.0,11,15,0.0,0.0
811,58.0,0,40,1.0,0.0
812,79.0,6,40,2.0,0.0
813,64.0,0,20,3.0,0.0
814,60.0,0,20,4.0,0.0
815,48.0,0,20,5.0,0.0
816,36.0,1,20,6.0,0.0
817,76.0,14,15,0.0,0.0
818,72.0,6,15,0.0,0.0
819,65.0,0,40,3.0,0.0
820,60.0,0,40,4.0,0.0
821,53.0,0,40,5.0,0.0
822,41.0,3,40,6.0,0.0
823,70.0,10,15,0.0,0.0
824,72.0,8,15,0.0,0.0
825,57.0,0,20,1.0,0.0
826,77.0,1,20,2.0,0.0
827,77.0,14,15,0.0,0.0
828,70.0,9,15,0.0,0.0
829,60.0,18,20,1.0,0.0
830,70.0,0,20,2.0,0.0
831,65.0,3,40,3.0,0.0
832,53.0,0,20,4.0,0.0
833,50.0,0,20,5.0,0.0
834,38.0,3,20,6.0,0.0
835,69.0,12,20,0.0,0.0
836,65.0,0,20,1.0,0.0
837,69.0,3,20,2.0,0.0
838,60.0,0,40,4.0,0.0
839,48.0,0,40,5.0,0.0
840,36.0,3,40,6.0,0.0
841,70.0,0,20,0.0,0.0
842,67.0,6,15,1.0,0.0
843,70.0,0,20,2.0,0.0
844,67.0,15,20,3.0,0.0
845,67.0,0,20,0.0,0.0
846,64.0,9,15,1.0,0.0
847,67.0,0,20,2.0,0.0
848,64.0,0,20,3.0,0.0
849,58.0,0,20,4.0,0.0
850,36.0,0,20,5.0,0.0
851,24.0,15,20,6.0,0.0
852,65.0,0,40,0.0,0.0
853,65.0,10,15,1.0,0.0
854,65.0,0,40,2.0,0.0
855,60.0,0,40,3.0,0.0
856,57.0,0,40,4.0,0.0
857,41.0,0,40,5.0,0.0
858,29.0,4,40,6.0,0.0
859,60.0,12,15,1.0,0.0
860,62.0,8,15,1.0,0.0
861,58.0,14,15,1.0,0.0
862,60.0,9,15,1.0,0.0
863,53.0,0,20,5.0,0.0
864,41.0,15,20,6.0,0.0
865,62.0,0,15,0.0,0.0
866,70.0,24,15,1.0,0.0
867,53.0,0,40,5.0,0.0
868,41.0,18,40,6.0,0.0
869,60.0,0,15,0.0,0.0
870,69.0,6,15,1.0,0.0
871,58.0,0,15,0.0,0.0
872,67.0,9,15,1.0,0.0
873,41.0,0,20,5.0,0.0
874,29.0,15,20,6.0,0.0
875,57.0,10,15,0.0,0.0
876,65.0,0,40,1.0,0.0
877,41.0,0,40,5.0,0.0
878,29.0,4,40,6.0,0.0
879,60.0,12,15,0.0,0.0
880,62.0,8,15,0.0,0.0
881,58.0,14,15,0.0,0.0
882,60.0,9,15,0.0,0.0
883,53.0,0,20,5.0,0.0
884,41.0,15,20,6.0,0.0
885,70.0,0,15,0.0,0.0
886,62.0,24,15,1.0,0.0
887,53.0,0,40,5.0,0.0
888,41.0,18,40,6.0,0.0
889,69.0,0,15,0.0,0.0
890,60.0,6,15,1.0,0.0
891,67.0,0,15,0.0,0.0
892,58.0,9,15,1.0,0.0
893,41.0,0,20,5.0,0.0
894,29.0,24,20,6.0,0.0
895,65.0,21,20,0.0,0.0
896,57.0,0,40,1.0,0.0
897,41.0,0,40,5.0,0.0
898,29.0,27,40,6.0,0.0
899,74.0,27,60,0.0,0.0
900,74.0,0,20,2.0,0.0
901,70.0,0,20,3.0,0.0
902,65.0,18,20,4.0,0.0
903,70.0,21,60,1.0,0.0
904,70.0,0,40,2.0,0.0
905,65.0,0,40,3.0,0.0
906,62.0,0,40,4.0,0.0
907,53.0,0,40,5.0,0.0
908,41.0,6,40,6.0,0.0
909,76.0,21,20,0.0,0.0
910,77.0,0,20,0.0,0.0
911,65.0,0,20,2.0,0.0
912,62.0,0,20,3.0,0.0
913,58.0,4,20,4.0,0.0
914,72.0,30,90,0.0,0.0
915,41.0,0,40,5.0,0.0
916,29.0,18,40,6.0,0.0
917,69.0,14,15,1.0,0.0
918,76.0,6,15,1.0,0.0
919,77.0,9,15,1.0,0.0
920,72.0,0,20,2.0,0.0
921,69.0,0,20,3.0,0.0
922,65.0,15,20,4.0,0.0
923,69.0,21,60,1.0,0.0
924,69.0,0,40,2.0,0.0
925,65.0,0,40,3.0,0.0
926,60.0,0,40,4.0,0.0
927,53.0,0,40,5.0,0.0
928,41.0,6,40,6.0,0.0
929,76.0,21,20,0.0,0.0
930,77.0,0,20,0.0,0.0
931,65.0,0,20,2.0,0.0
932,60.0,0,20,3.0,0.0
933,57.0,4,20,4.0,0.0
934,70.0,30,90,0.0,0.0
935,41.0,0,40,5.0,0.0
936,29.0,18,40,6.0,0.0
937,67.0,14,15,1.0,0.0
938,76.0,6,15,1.0,0.0
939,77.0,9,15,1.0,0.0
940,70.0,0,20,2.0,0.0
941,65.0,0,20,3.0,0.0
942,62.0,15,20,4.0,0.0
943,67.0,20,60,1.0,0.0
944,67.0,0,40,2.0,0.0
945,64.0,0,40,3.0,0.0
946,58.0,0,40,4.0,0.0
947,53.0,0,40,5.0,0.0
948,41.0,18,40,6.0,0.0
949,76.0,6,40,0.0,0.0
950,64.0,0,20,2.0,0.0
951,58.0,0,20,3.0,0.0
952,55.0,2,20,4.0,0.0
953,77.0,3,15,0.0,0.0
954,79.0,2,15,0.0,0.0
955,69.0,21,60,0.0,0.0
956,69.0,3,40,2.0,0.0
957,60.0,0,60,3.0,0.0
958,53.0,6,60,4.0,0.0
959,41.0,0,20,5.0,0.0
960,29.0,1,20,6.0,0.0
961,65.0,14,15,1.0,0.0
962,76.0,6,15,1.0,0.0
963,43.0,0,20,5.0,0.0
964,31.0,15,20,6.0,0.0
965,77.0,3,15,1.0,0.0
966,45.0,0,20,5.0,0.0
967,33.0,4,20,6.0,0.0
968,65.0,12,90,1.0,0.0
969,38.0,0,40,5.0,0.0
970,26.0,3,40,6.0,0.0
971,71.0,5,15,0.0,0.0
972,72.0,3,15,0.0,0.0
973,71.0,3,15,0.0,0.0
974,72.0,3,15,0.0,0.0
975,71.0,3,15,0.0,0.0
976,72.0,3,15,0.0,0.0
977,71.0,0,15,0.0,0.0
978,72.0,3,15,0.0,0.0
979,71.0,3,15,0.0,0.0
980,72.0,3,15,0.0,0.0
981,43.0,0,20,5.0,0.0
982,31.0,3,20,6.0,0.0
983,71.0,3,15,0.0,0.0
984,72.0,3,15,0.0,0.0
985,71.0,3,15,0.0,0.0
986,72.0,3,15,0.0,0.0
987,71.0,3,15,0.0,0.0
988,72.0,0,15,0.0,0.0
989,71.0,12,15,0.0,0.0
990,72.0,0,15,0.0,0.0
991,48.0,0,40,5.0,0.0
992,36.0,3,40,6.0,0.0
993,71.0,10,15,0.0,0.0
994,72.0,8,15,0.0,0.0
995,64.0,1,20,1.0,0.0
996,76.0,12,15,0.0,0.0
997,71.0,11,15,0.0,0.0
998,50.0,0,20,5.0,0.0
999,38.0,1,20,6.0,0.0
1000,74.0,14,15,0.0,0.0
1001,72.0,12,15,0.0,0.0
1002,79.0,0,40,1.0,0.0
1003,52.0,0,40,5.0,0.0
1004,40.0,6,40,6.0,0.0
1005,74.0,12,15,0.0,0.0
1006,76.0,6,15,0.0,0.0
1007,77.0,10,15,0.0,0.0
1008,79.0,11,15,0.0,0.0
1009,70.0,0,40,1.0,0.0
1010,79.0,6,40,2.0,0.0
1011,72.0,0,20,3.0,0.0
1012,64.0,0,20,4.0,0.0
1013,48.0,0,20,5.0,0.0
1014,36.0,1,20,6.0,0.0
1015,76.0,14,15,0.0,0.0
1016,72.0,6,15,0.0,0.0
1017,72.0,0,40,3.0,0.0
1018,65.0,0,40,4.0,0.0
1019,53.0,0,40,5.0,0.0
1020,41.0,3,40,6.0,0.0
1021,70.0,10,15,0.0,0.0
1022,72.0,8,15,0.0,0.0
1023,69.0,0,20,1.0,0.0
1024,77.0,1,20,2.0,0.0
1025,77.0,12,15,0.0,0.0
1026,69.0,11,15,0.0,0.0
1027,72.0,0,20,1.0,0.0
1028,52.0,0,20,5.0,0.0
1029,40.0,1,20,6.0,0.0
1030,72.0,14,15,0.0,0.0
1031,71.0,12,15,0.0,0.0
1032,77.0,0,40,1.0,0.0
1033,50.0,0,40,5.0,0.0
1034,38.0,6,40,6.0,0.0
1035,72.0,12,15,0.0,0.0
1036,74.0,6,15,0.0,0.0
1037,76.0,10,15,0.0,0.0
1038,77.0,11,15,0.0,0.0
1039,69.0,0,40,1.0,0.0
1040,77.0,6,40,2.0,0.0
1041,71.0,0,20,3.0,0.0
1042,62.0,0,20,4.0,0.0
1043,47.0,0,20,5.0,0.0
1044,35.0,1,20,6.0,0.0
1045,74.0,14,15,0.0,0.0
1046,71.0,6,15,0.0,0.0
1047,71.0,0,40,3.0,0.0
1048,64.0,0,40,4.0,0.0
1049,52.0,0,40,5.0,0.0
1050,40.0,3,40,6.0,0.0
1051,69.0,10,15,0.0,0.0
1052,71.0,8,15,0.0,0.0
1053,67.0,0,20,1.0,0.0
1054,76.0,1,20,2.0,0.0
1055,76.0,12,15,0.0,0.0
1056,67.0,11,15,0.0,0.0
1057,71.0,0,20,1.0,0.0
1058,50.0,0,20,5.0,0.0
1059,38.0,1,20,6.0,0.0
1060,71.0,14,15,0.0,0.0
1061,69.0,12,15,0.0,0.0
1062,76.0,0,40,1.0,0.0
1063,48.0,0,40,5.0,0.0
1064,36.0,6,40,6.0,0.0
1065,71.0,12,15,0.0,0.0
1066,72.0,6,15,0.0,0.0
1067,74.0,10,15,0.0,0.0
1068,76.0,11,15,0.0,0.0
1069,67.0,0,40,1.0,0.0
1070,76.0,6,40,2.0,0.0
1071,69.0,0,20,3.0,0.0
1072,60.0,0,20,4.0,0.0
1073,45.0,0,20,5.0,0.0
1074,33.0,1,20,6.0,0.0
1075,72.0,14,15,0.0,0.0
1076,69.0,6,15,0.0,0.0
1077,69.0,0,40,3.0,0.0
1078,62.0,0,40,4.0,0.0
1079,50.0,0,40,5.0,0.0
1080,38.0,3,40,6.0,0.0
1081,67.0,10,15,0.0,0.0
1082,69.0,8,15,0.0,0.0
1083,65.0,0,20,1.0,0.0
1084,74.0,1,20,2.0,0.0
1085,74.0,12,15,0.0,0.0
1086,65.0,11,15,0.0,0.0
1087,69.0,0,20,1.0,0.0
1088,48.0,0,20,5.0,0.0
1089,36.0,1,20,6.0,0.0
1090,69.0,14,15,0.0,0.0
1091,67.0,12,15,0.0,0.0
1092,74.0,0,40,1.0,0.0
1093,47.0,0,40,5.0,0.0
1094,35.0,6,40,6.0,0.0
1095,69.0,12,15,0.0,0.0
1096,71.0,6,15,0.0,0.0
1097,72.0,10,15,0.0,0.0
1098,74.0,11,15,0.0,0.0
1099,65.0,6,40,1.0,0.0
1100,74.0,0,20,2.0,0.0
1101,71.0,0,20,3.0,0.0
1102,67.0,0,20,4.0,0.0
1103,43.0,0,20,5.0,0.0
1104,31.0,1,20,6.0,0.0
1105,71.0,20,15,0.0,0.0
