,note,step,duration,channel,velocity
0,65.0,0,30,1.0,0.0
1,60.0,0,30,2.0,0.0
2,56.0,0,30,3.0,0.0
3,41.0,26,30,4.0,0.0
4,65.0,0,30,5.0,0.0
5,41.0,0,30,6.0,0.0
6,65.0,22,60,1.0,0.0
7,68.0,0,20,2.0,0.0
8,60.0,0,20,3.0,0.0
9,53.0,24,20,4.0,0.0
10,65.0,0,60,5.0,0.0
11,53.0,0,20,6.0,0.0
12,67.0,0,20,2.0,0.0
13,58.0,0,20,3.0,0.0
14,55.0,24,20,4.0,0.0
15,55.0,0,20,6.0,0.0
16,65.0,0,30,2.0,0.0
17,60.0,0,30,3.0,0.0
18,56.0,0,30,4.0,0.0
19,56.0,2,30,6.0,0.0
20,72.0,24,20,1.0,0.0
21,72.0,0,20,5.0,0.0
22,68.0,22,20,1.0,0.0
23,53.0,0,30,4.0,0.0
24,68.0,0,20,5.0,0.0
25,53.0,2,30,6.0,0.0
26,64.0,0,20,1.0,0.0
27,64.0,24,20,5.0,0.0
28,65.0,22,20,1.0,0.0
29,58.0,0,30,2.0,0.0
30,53.0,0,30,3.0,0.0
31,37.0,0,30,4.0,0.0
32,65.0,0,20,5.0,0.0
33,37.0,2,30,6.0,0.0
34,64.0,24,20,1.0,0.0
35,64.0,0,20,5.0,0.0
36,65.0,22,60,1.0,0.0
37,68.0,0,20,2.0,0.0
38,65.0,0,20,3.0,0.0
39,53.0,24,20,4.0,0.0
40,65.0,0,60,5.0,0.0
41,53.0,0,20,6.0,0.0
42,67.0,0,20,2.0,0.0
43,64.0,0,20,3.0,0.0
44,55.0,24,20,4.0,0.0
45,55.0,0,20,6.0,0.0
46,65.0,0,30,2.0,0.0
47,65.0,0,30,3.0,0.0
48,56.0,0,30,4.0,0.0
49,56.0,2,30,6.0,0.0
50,72.0,24,20,1.0,0.0
51,72.0,0,20,5.0,0.0
52,68.0,22,20,1.0,0.0
53,53.0,0,30,4.0,0.0
54,68.0,0,20,5.0,0.0
55,53.0,2,30,6.0,0.0
56,64.0,0,20,1.0,0.0
57,64.0,17,20,5.0,0.0
58,65.0,16,15,1.0,0.0
59,60.0,0,30,2.0,0.0
60,53.0,0,30,3.0,0.0
61,44.0,0,30,4.0,0.0
62,65.0,0,15,5.0,0.0
63,44.0,3,30,6.0,0.0
64,66.0,13,15,1.0,0.0
65,66.0,0,15,5.0,0.0
66,64.0,23,15,1.0,0.0
67,64.0,0,15,5.0,0.0
68,65.0,22,60,1.0,0.0
69,68.0,0,20,2.0,0.0
70,60.0,0,20,3.0,0.0
71,53.0,24,20,4.0,0.0
72,65.0,0,60,5.0,0.0
73,53.0,0,20,6.0,0.0
74,67.0,0,20,2.0,0.0
75,58.0,0,20,3.0,0.0
76,55.0,24,20,4.0,0.0
77,55.0,0,20,6.0,0.0
78,65.0,0,30,2.0,0.0
79,60.0,0,30,3.0,0.0
80,56.0,0,30,4.0,0.0
81,56.0,2,30,6.0,0.0
82,72.0,24,20,1.0,0.0
83,72.0,0,20,5.0,0.0
84,68.0,22,20,1.0,0.0
85,53.0,0,30,4.0,0.0
86,68.0,0,20,5.0,0.0
87,53.0,2,30,6.0,0.0
88,65.0,0,20,1.0,0.0
89,65.0,17,20,5.0,0.0
90,73.0,16,15,1.0,0.0
91,65.0,0,30,2.0,0.0
92,58.0,3,30,3.0,0.0
93,58.0,0,30,4.0,0.0
94,73.0,0,30,5.0,0.0
95,58.0,0,30,6.0,0.0
96,70.0,13,15,1.0,0.0
97,69.0,45,15,1.0,0.0
98,70.0,0,30,1.0,0.0
99,61.0,0,30,2.0,0.0
100,53.0,0,30,3.0,0.0
101,46.0,19,30,4.0,0.0
102,70.0,0,30,5.0,0.0
103,46.0,0,30,6.0,0.0
104,73.0,16,15,5.0,0.0
105,70.0,16,15,5.0,0.0
106,69.0,45,15,5.0,0.0
107,70.0,48,30,5.0,0.0
108,70.0,0,30,1.0,0.0
109,65.0,0,30,2.0,0.0
110,61.0,0,30,3.0,0.0
111,46.0,26,30,4.0,0.0
112,70.0,0,30,5.0,0.0
113,46.0,0,30,6.0,0.0
114,70.0,22,60,1.0,0.0
115,73.0,0,20,2.0,0.0
116,65.0,0,20,3.0,0.0
117,58.0,24,20,4.0,0.0
118,70.0,0,60,5.0,0.0
119,58.0,0,20,6.0,0.0
120,72.0,0,20,2.0,0.0
121,63.0,0,20,3.0,0.0
122,60.0,24,20,4.0,0.0
123,60.0,0,20,6.0,0.0
124,70.0,0,30,2.0,0.0
125,65.0,0,30,3.0,0.0
126,61.0,0,30,4.0,0.0
127,61.0,2,30,6.0,0.0
128,77.0,24,20,1.0,0.0
129,77.0,0,20,5.0,0.0
130,73.0,22,20,1.0,0.0
131,58.0,0,30,4.0,0.0
132,73.0,0,20,5.0,0.0
133,58.0,2,30,6.0,0.0
134,69.0,0,20,1.0,0.0
135,69.0,24,20,5.0,0.0
136,70.0,22,20,1.0,0.0
137,65.0,0,30,2.0,0.0
138,58.0,0,30,3.0,0.0
139,49.0,0,30,4.0,0.0
140,70.0,0,20,5.0,0.0
141,49.0,2,30,6.0,0.0
142,69.0,24,20,1.0,0.0
143,69.0,0,20,5.0,0.0
144,70.0,22,60,1.0,0.0
145,73.0,0,20,2.0,0.0
146,65.0,0,20,3.0,0.0
147,58.0,24,20,4.0,0.0
148,70.0,0,60,5.0,0.0
149,58.0,0,20,6.0,0.0
150,72.0,0,20,2.0,0.0
151,63.0,0,20,3.0,0.0
152,60.0,24,20,4.0,0.0
153,60.0,0,20,6.0,0.0
154,70.0,0,30,2.0,0.0
155,65.0,0,30,3.0,0.0
156,61.0,0,30,4.0,0.0
157,61.0,2,30,6.0,0.0
158,77.0,24,20,1.0,0.0
159,77.0,0,20,5.0,0.0
160,73.0,22,20,1.0,0.0
161,58.0,0,30,4.0,0.0
162,73.0,0,20,5.0,0.0
163,58.0,2,30,6.0,0.0
164,69.0,0,20,1.0,0.0
165,69.0,17,20,5.0,0.0
166,70.0,16,15,1.0,0.0
167,65.0,0,30,2.0,0.0
168,61.0,0,30,3.0,0.0
169,43.0,0,30,4.0,0.0
170,70.0,0,15,5.0,0.0
171,43.0,3,30,6.0,0.0
172,71.0,13,15,1.0,0.0
173,71.0,0,15,5.0,0.0
174,69.0,23,15,1.0,0.0
175,69.0,0,15,5.0,0.0
176,70.0,22,60,1.0,0.0
177,73.0,0,20,2.0,0.0
178,55.0,0,20,3.0,0.0
179,58.0,24,20,4.0,0.0
180,70.0,0,60,5.0,0.0
181,58.0,0,20,6.0,0.0
182,72.0,0,20,2.0,0.0
183,56.0,0,20,3.0,0.0
184,60.0,24,20,4.0,0.0
185,60.0,0,20,6.0,0.0
186,70.0,0,30,2.0,0.0
187,58.0,0,30,3.0,0.0
188,61.0,0,30,4.0,0.0
189,61.0,2,30,6.0,0.0
190,77.0,24,20,1.0,0.0
191,77.0,0,20,5.0,0.0
192,73.0,22,20,1.0,0.0
193,58.0,0,30,4.0,0.0
194,73.0,0,20,5.0,0.0
195,58.0,2,30,6.0,0.0
196,70.0,0,20,1.0,0.0
197,70.0,9,20,5.0,0.0
198,76.0,0,15,1.0,0.0
199,70.0,6,15,2.0,0.0
200,67.0,0,15,3.0,0.0
201,60.0,0,30,4.0,0.0
202,76.0,0,30,5.0,0.0
203,60.0,2,30,6.0,0.0
204,77.0,0,15,1.0,0.0
205,72.0,11,15,2.0,0.0
206,68.0,0,15,3.0,0.0
207,76.0,0,15,1.0,0.0
208,70.0,20,15,2.0,0.0
209,67.0,0,15,3.0,0.0
210,74.0,0,20,1.0,0.0
211,69.0,0,20,2.0,0.0
212,65.0,46,20,3.0,0.0
213,76.0,0,30,1.0,0.0
214,70.0,0,30,2.0,0.0
215,67.0,0,30,3.0,0.0
216,48.0,11,30,4.0,0.0
217,72.0,0,30,5.0,0.0
218,48.0,0,30,6.0,0.0
219,76.0,6,15,5.0,0.0
220,77.0,11,15,5.0,0.0
221,76.0,22,15,5.0,0.0
222,74.0,46,20,5.0,0.0
223,76.0,26,30,5.0,0.0
224,79.0,22,20,1.0,0.0
225,70.0,0,20,2.0,0.0
226,64.0,0,30,3.0,0.0
227,36.0,0,30,4.0,0.0
228,79.0,0,20,5.0,0.0
229,36.0,2,30,6.0,0.0
230,77.0,0,20,1.0,0.0
231,68.0,0,20,2.0,0.0
232,77.0,24,20,5.0,0.0
233,76.0,0,20,1.0,0.0
234,67.0,0,20,2.0,0.0
235,67.0,2,30,3.0,0.0
236,48.0,0,20,4.0,0.0
237,76.0,22,20,5.0,0.0
238,48.0,0,20,6.0,0.0
239,74.0,0,20,1.0,0.0
240,65.0,0,20,2.0,0.0
241,50.0,0,20,4.0,0.0
242,74.0,46,20,5.0,0.0
243,50.0,0,20,6.0,0.0
244,72.0,0,30,1.0,0.0
245,67.0,0,30,2.0,0.0
246,72.0,0,30,3.0,0.0
247,52.0,48,30,4.0,0.0
248,72.0,0,30,5.0,0.0
249,52.0,0,30,6.0,0.0
250,70.0,0,30,1.0,0.0
251,67.0,0,30,2.0,0.0
252,64.0,0,30,3.0,0.0
253,48.0,11,30,4.0,0.0
254,70.0,0,30,5.0,0.0
255,48.0,0,30,6.0,0.0
256,68.0,6,15,1.0,0.0
257,65.0,0,30,2.0,0.0
258,60.0,0,30,3.0,0.0
259,41.0,0,30,4.0,0.0
260,68.0,0,15,5.0,0.0
261,41.0,2,30,6.0,0.0
262,70.0,11,15,1.0,0.0
263,70.0,0,15,5.0,0.0
264,68.0,20,15,1.0,0.0
265,68.0,0,15,5.0,0.0
266,67.0,24,20,1.0,0.0
267,67.0,0,20,5.0,0.0
268,68.0,0,60,1.0,0.0
269,60.0,2,30,2.0,0.0
270,65.0,0,20,3.0,0.0
271,53.0,22,20,4.0,0.0
272,68.0,22,60,5.0,0.0
273,53.0,0,20,6.0,0.0
274,67.0,0,20,3.0,0.0
275,52.0,0,20,4.0,0.0
276,52.0,24,20,6.0,0.0
277,65.0,0,120,2.0,0.0
278,68.0,0,30,3.0,0.0
279,53.0,0,30,4.0,0.0
280,53.0,2,30,6.0,0.0
281,65.0,24,20,1.0,0.0
282,65.0,0,20,5.0,0.0
283,64.0,22,20,1.0,0.0
284,60.0,0,30,3.0,0.0
285,56.0,0,30,4.0,0.0
286,64.0,0,20,5.0,0.0
287,56.0,2,30,6.0,0.0
288,65.0,24,20,1.0,0.0
289,65.0,0,20,5.0,0.0
290,71.0,22,20,1.0,0.0
291,62.0,0,20,3.0,0.0
292,43.0,0,30,4.0,0.0
293,71.0,0,20,5.0,0.0
294,43.0,2,30,6.0,0.0
295,72.0,24,20,1.0,0.0
296,63.0,0,20,2.0,0.0
297,60.0,0,20,3.0,0.0
298,72.0,0,20,5.0,0.0
299,74.0,0,20,1.0,0.0
300,62.0,0,20,2.0,0.0
301,59.0,0,20,3.0,0.0
302,59.0,24,20,4.0,0.0
303,74.0,0,20,5.0,0.0
304,59.0,0,20,6.0,0.0
305,72.0,0,20,1.0,0.0
306,63.0,0,20,2.0,0.0
307,57.0,0,20,3.0,0.0
308,60.0,24,20,4.0,0.0
309,72.0,0,20,5.0,0.0
310,60.0,0,20,6.0,0.0
311,71.0,22,20,1.0,0.0
312,65.0,0,30,2.0,0.0
313,55.0,0,30,3.0,0.0
314,62.0,0,30,4.0,0.0
315,71.0,0,20,5.0,0.0
316,62.0,2,30,6.0,0.0
317,69.0,24,20,1.0,0.0
318,69.0,0,20,5.0,0.0
319,67.0,22,20,1.0,0.0
320,62.0,0,30,2.0,0.0
321,55.0,0,30,3.0,0.0
322,59.0,0,30,4.0,0.0
323,67.0,0,20,5.0,0.0
324,59.0,2,30,6.0,0.0
325,65.0,9,20,1.0,0.0
326,65.0,0,20,5.0,0.0
327,65.0,6,15,1.0,0.0
328,62.0,0,15,2.0,0.0
329,55.0,0,30,3.0,0.0
330,48.0,0,30,4.0,0.0
331,65.0,0,15,5.0,0.0
332,48.0,2,30,6.0,0.0
333,67.0,0,15,1.0,0.0
334,64.0,6,15,2.0,0.0
335,67.0,0,15,5.0,0.0
336,65.0,0,15,1.0,0.0
337,62.0,6,15,2.0,0.0
338,65.0,0,15,5.0,0.0
339,67.0,0,15,1.0,0.0
340,64.0,19,15,2.0,0.0
341,67.0,0,15,5.0,0.0
342,65.0,0,20,1.0,0.0
343,62.0,0,20,2.0,0.0
344,65.0,24,20,5.0,0.0
345,64.0,0,60,1.0,0.0
346,60.0,2,30,2.0,0.0
347,55.0,0,30,3.0,0.0
348,60.0,22,20,4.0,0.0
349,64.0,22,60,5.0,0.0
350,60.0,0,20,6.0,0.0
351,61.0,0,20,4.0,0.0
352,61.0,24,20,6.0,0.0
353,60.0,0,30,4.0,0.0
354,60.0,2,30,6.0,0.0
355,60.0,0,20,1.0,0.0
356,60.0,24,20,5.0,0.0
357,62.0,22,20,1.0,0.0
358,58.0,0,30,4.0,0.0
359,62.0,0,20,5.0,0.0
360,58.0,2,30,6.0,0.0
361,64.0,0,20,1.0,0.0
362,64.0,46,20,5.0,0.0
363,65.0,0,30,1.0,0.0
364,60.0,0,30,2.0,0.0
365,53.0,0,30,3.0,0.0
366,56.0,26,30,4.0,0.0
367,65.0,0,30,5.0,0.0
368,56.0,0,30,6.0,0.0
369,65.0,22,60,1.0,0.0
370,68.0,0,20,2.0,0.0
371,60.0,0,20,3.0,0.0
372,53.0,24,20,4.0,0.0
373,65.0,0,60,5.0,0.0
374,53.0,0,20,6.0,0.0
375,67.0,0,20,2.0,0.0
376,58.0,0,20,3.0,0.0
377,55.0,24,20,4.0,0.0
378,55.0,0,20,6.0,0.0
379,65.0,0,30,2.0,0.0
380,60.0,0,30,3.0,0.0
381,56.0,0,30,4.0,0.0
382,56.0,2,30,6.0,0.0
383,72.0,24,20,1.0,0.0
384,72.0,0,20,5.0,0.0
385,68.0,22,20,1.0,0.0
386,53.0,0,30,4.0,0.0
387,68.0,0,20,5.0,0.0
388,53.0,2,30,6.0,0.0
389,64.0,0,20,1.0,0.0
390,64.0,24,20,5.0,0.0
391,65.0,22,20,1.0,0.0
392,58.0,0,30,2.0,0.0
393,53.0,0,30,3.0,0.0
394,49.0,0,30,4.0,0.0
395,65.0,0,20,5.0,0.0
396,49.0,2,30,6.0,0.0
397,64.0,24,20,1.0,0.0
398,64.0,0,20,5.0,0.0
399,65.0,22,60,1.0,0.0
400,68.0,0,20,2.0,0.0
401,65.0,0,20,3.0,0.0
402,53.0,24,20,4.0,0.0
403,65.0,0,60,5.0,0.0
404,53.0,0,20,6.0,0.0
405,67.0,0,20,2.0,0.0
406,64.0,0,20,3.0,0.0
407,55.0,24,20,4.0,0.0
408,55.0,0,20,6.0,0.0
409,65.0,0,30,2.0,0.0
410,65.0,0,30,3.0,0.0
411,56.0,0,30,4.0,0.0
412,56.0,2,30,6.0,0.0
413,72.0,24,20,1.0,0.0
414,72.0,0,20,5.0,0.0
415,68.0,22,20,1.0,0.0
416,53.0,0,30,4.0,0.0
417,68.0,0,20,5.0,0.0
418,53.0,2,30,6.0,0.0
419,65.0,0,20,1.0,0.0
420,65.0,17,20,5.0,0.0
421,73.0,0,30,1.0,0.0
422,70.0,3,30,2.0,0.0
423,65.0,0,30,3.0,0.0
424,46.0,0,30,4.0,0.0
425,73.0,16,15,5.0,0.0
426,46.0,0,30,6.0,0.0
427,72.0,13,15,5.0,0.0
428,70.0,16,15,5.0,0.0
429,68.0,16,15,5.0,0.0
430,70.0,16,15,5.0,0.0
431,67.0,16,15,5.0,0.0
432,76.0,0,30,1.0,0.0
433,70.0,3,30,2.0,0.0
434,60.0,0,30,3.0,0.0
435,48.0,0,30,4.0,0.0
436,76.0,16,15,5.0,0.0
437,48.0,0,30,6.0,0.0
438,73.0,13,15,5.0,0.0
439,72.0,16,15,5.0,0.0
440,70.0,16,15,5.0,0.0
441,72.0,16,15,5.0,0.0
442,68.0,16,15,5.0,0.0
443,77.0,0,30,1.0,0.0
444,70.0,3,30,2.0,0.0
445,65.0,0,30,3.0,0.0
446,49.0,0,30,4.0,0.0
447,77.0,16,15,5.0,0.0
448,49.0,0,30,6.0,0.0
449,75.0,13,15,5.0,0.0
450,73.0,16,15,5.0,0.0
451,72.0,16,15,5.0,0.0
452,73.0,16,15,5.0,0.0
453,70.0,16,15,5.0,0.0
454,79.0,0,30,1.0,0.0
455,70.0,3,30,2.0,0.0
456,60.0,0,30,3.0,0.0
457,40.0,0,30,4.0,0.0
458,79.0,16,15,5.0,0.0
459,40.0,0,30,6.0,0.0
460,77.0,13,15,5.0,0.0
461,76.0,16,15,5.0,0.0
462,73.0,16,15,5.0,0.0
463,72.0,16,15,5.0,0.0
464,70.0,16,15,5.0,0.0
465,68.0,0,30,1.0,0.0
466,65.0,3,30,2.0,0.0
467,60.0,0,30,3.0,0.0
468,41.0,0,30,4.0,0.0
469,68.0,16,15,5.0,0.0
470,41.0,0,30,6.0,0.0
471,67.0,13,15,5.0,0.0
472,65.0,16,15,5.0,0.0
473,70.0,0,30,1.0,0.0
474,64.0,3,30,2.0,0.0
475,60.0,0,30,3.0,0.0
476,43.0,0,30,4.0,0.0
477,70.0,16,15,5.0,0.0
478,43.0,0,30,6.0,0.0
479,68.0,13,15,5.0,0.0
480,67.0,16,15,5.0,0.0
481,72.0,0,30,1.0,0.0
482,65.0,3,30,2.0,0.0
483,60.0,0,30,3.0,0.0
484,44.0,0,30,4.0,0.0
485,72.0,16,15,5.0,0.0
486,44.0,0,30,6.0,0.0
487,70.0,13,15,5.0,0.0
488,68.0,16,15,5.0,0.0
489,73.0,0,30,1.0,0.0
490,58.0,3,30,2.0,0.0
491,65.0,0,30,3.0,0.0
492,46.0,0,30,4.0,0.0
493,73.0,16,15,5.0,0.0
494,46.0,0,30,6.0,0.0
495,70.0,13,15,5.0,0.0
496,67.0,16,15,5.0,0.0
497,64.0,0,30,1.0,0.0
498,55.0,3,30,2.0,0.0
499,60.0,0,30,3.0,0.0
500,36.0,0,30,4.0,0.0
501,64.0,16,15,5.0,0.0
502,36.0,0,30,6.0,0.0
503,67.0,13,15,5.0,0.0
504,70.0,23,15,5.0,0.0
505,70.0,0,60,1.0,0.0
506,64.0,0,20,2.0,0.0
507,55.0,2,30,3.0,0.0
508,48.0,22,20,4.0,0.0
509,70.0,16,60,5.0,0.0
510,48.0,0,20,6.0,0.0
511,65.0,0,20,2.0,0.0
512,50.0,0,20,4.0,0.0
513,50.0,17,20,6.0,0.0
514,67.0,0,30,2.0,0.0
515,60.0,0,30,3.0,0.0
516,52.0,0,30,4.0,0.0
517,52.0,3,30,6.0,0.0
518,67.0,13,15,1.0,0.0
519,67.0,0,15,5.0,0.0
520,68.0,16,15,1.0,0.0
521,68.0,0,15,5.0,0.0
522,70.0,16,15,1.0,0.0
523,64.0,0,30,2.0,0.0
524,60.0,0,30,3.0,0.0
525,48.0,0,30,4.0,0.0
526,70.0,0,15,5.0,0.0
527,48.0,3,30,6.0,0.0
528,68.0,13,15,1.0,0.0
529,68.0,0,15,5.0,0.0
530,67.0,16,15,1.0,0.0
531,67.0,0,15,5.0,0.0
532,68.0,0,30,1.0,0.0
533,65.0,3,30,2.0,0.0
534,60.0,0,30,3.0,0.0
535,53.0,0,30,4.0,0.0
536,68.0,16,15,5.0,0.0
537,53.0,0,30,6.0,0.0
538,73.0,13,15,5.0,0.0
539,71.0,16,15,5.0,0.0
540,72.0,0,30,1.0,0.0
541,65.0,0,30,2.0,0.0
542,60.0,2,30,3.0,0.0
543,44.0,0,20,4.0,0.0
544,72.0,7,15,5.0,0.0
545,44.0,9,20,6.0,0.0
546,64.0,13,15,5.0,0.0
547,46.0,1,20,4.0,0.0
548,46.0,0,20,6.0,0.0
549,65.0,16,15,5.0,0.0
550,60.0,0,30,1.0,0.0
551,65.0,3,30,2.0,0.0
552,60.0,0,30,3.0,0.0
553,48.0,0,30,4.0,0.0
554,70.0,16,15,5.0,0.0
555,48.0,0,30,6.0,0.0
556,68.0,13,15,5.0,0.0
557,67.0,16,15,5.0,0.0
558,64.0,0,30,1.0,0.0
559,60.0,3,30,2.0,0.0
560,58.0,0,30,3.0,0.0
561,36.0,0,30,4.0,0.0
562,68.0,16,15,5.0,0.0
563,36.0,0,30,6.0,0.0
564,67.0,13,15,5.0,0.0
565,65.0,16,15,5.0,0.0
566,65.0,0,90,1.0,0.0
567,60.0,6,90,2.0,0.0
568,56.0,0,90,3.0,0.0
569,41.0,0,90,4.0,0.0
570,65.0,16,15,5.0,0.0
571,41.0,16,120,6.0,0.0
572,60.0,16,15,5.0,0.0
573,58.0,16,15,5.0,0.0
574,56.0,16,15,5.0,0.0
575,58.0,10,15,5.0,0.0
576,60.0,16,15,5.0,0.0
577,53.0,3,30,5.0,0.0
578,44.0,13,15,6.0,0.0
579,46.0,16,15,6.0,0.0
580,48.0,16,15,6.0,0.0
581,50.0,16,15,6.0,0.0
582,52.0,16,15,6.0,0.0
583,53.0,3,30,4.0,0.0
584,72.0,16,15,5.0,0.0
585,53.0,0,30,6.0,0.0
586,77.0,13,15,5.0,0.0
587,79.0,23,15,5.0,0.0
588,77.0,0,20,1.0,0.0
589,72.0,24,20,2.0,0.0
590,68.0,0,20,3.0,0.0
591,80.0,16,60,5.0,0.0
592,76.0,17,20,1.0,0.0
593,70.0,0,20,2.0,0.0
594,67.0,0,20,3.0,0.0
595,77.0,0,30,1.0,0.0
596,72.0,3,30,2.0,0.0
597,68.0,0,30,3.0,0.0
598,41.0,0,30,4.0,0.0
599,41.0,0,30,6.0,0.0
600,77.0,13,15,5.0,0.0
601,79.0,16,15,5.0,0.0
602,80.0,16,15,5.0,0.0
603,79.0,16,15,5.0,0.0
604,77.0,16,15,5.0,0.0
605,43.0,3,30,4.0,0.0
606,76.0,16,15,5.0,0.0
607,43.0,0,30,6.0,0.0
608,77.0,13,15,5.0,0.0
609,79.0,23,15,5.0,0.0
610,76.0,0,20,1.0,0.0
611,70.0,24,20,2.0,0.0
612,67.0,0,20,3.0,0.0
613,70.0,16,60,5.0,0.0
614,74.0,17,20,1.0,0.0
615,68.0,0,20,2.0,0.0
616,65.0,0,20,3.0,0.0
617,76.0,0,30,1.0,0.0
618,70.0,3,30,2.0,0.0
619,67.0,0,30,3.0,0.0
620,55.0,0,30,4.0,0.0
621,55.0,0,30,6.0,0.0
622,72.0,13,15,5.0,0.0
623,73.0,16,15,5.0,0.0
624,67.0,16,15,5.0,0.0
625,68.0,16,15,5.0,0.0
626,70.0,16,15,5.0,0.0
627,60.0,3,30,4.0,0.0
628,64.0,16,15,5.0,0.0
629,60.0,0,30,6.0,0.0
630,65.0,13,15,5.0,0.0
631,67.0,16,15,5.0,0.0
632,79.0,0,20,1.0,0.0
633,76.0,9,20,2.0,0.0
634,70.0,0,20,3.0,0.0
635,60.0,7,15,5.0,0.0
636,64.0,15,15,5.0,0.0
637,77.0,0,20,1.0,0.0
638,74.0,1,20,2.0,0.0
639,68.0,0,20,3.0,0.0
640,67.0,16,15,5.0,0.0
641,79.0,0,30,1.0,0.0
642,76.0,3,30,2.0,0.0
643,67.0,0,30,3.0,0.0
644,48.0,0,30,4.0,0.0
645,70.0,16,15,5.0,0.0
646,48.0,0,30,6.0,0.0
647,68.0,13,15,5.0,0.0
648,67.0,16,15,5.0,0.0
649,73.0,16,15,5.0,0.0
650,72.0,16,15,5.0,0.0
651,70.0,16,15,5.0,0.0
652,53.0,3,30,4.0,0.0
653,68.0,16,15,5.0,0.0
654,53.0,0,30,6.0,0.0
655,70.0,13,15,5.0,0.0
656,72.0,23,15,5.0,0.0
657,77.0,0,20,1.0,0.0
658,72.0,24,20,2.0,0.0
659,68.0,0,20,3.0,0.0
660,65.0,16,60,5.0,0.0
661,76.0,17,20,1.0,0.0
662,70.0,0,20,2.0,0.0
663,67.0,0,20,3.0,0.0
664,77.0,0,30,1.0,0.0
665,72.0,3,30,2.0,0.0
666,68.0,0,30,3.0,0.0
667,41.0,0,30,4.0,0.0
668,41.0,0,30,6.0,0.0
669,65.0,13,15,5.0,0.0
670,67.0,16,15,5.0,0.0
671,69.0,16,15,5.0,0.0
672,67.0,16,15,5.0,0.0
673,65.0,16,15,5.0,0.0
674,45.0,3,30,4.0,0.0
675,72.0,16,15,5.0,0.0
676,45.0,0,30,6.0,0.0
677,70.0,13,15,5.0,0.0
678,69.0,16,15,5.0,0.0
679,72.0,0,30,1.0,0.0
680,72.0,3,30,2.0,0.0
681,72.0,0,30,3.0,0.0
682,75.0,16,15,5.0,0.0
683,73.0,13,15,5.0,0.0
684,72.0,16,15,5.0,0.0
685,69.0,0,30,1.0,0.0
686,69.0,3,30,2.0,0.0
687,69.0,0,30,3.0,0.0
688,41.0,0,30,4.0,0.0
689,78.0,16,15,5.0,0.0
690,41.0,0,30,6.0,0.0
691,77.0,13,15,5.0,0.0
692,75.0,16,15,5.0,0.0
693,65.0,0,30,1.0,0.0
694,65.0,3,30,2.0,0.0
695,65.0,0,30,3.0,0.0
696,81.0,16,15,5.0,0.0
697,84.0,13,15,5.0,0.0
698,75.0,16,15,5.0,0.0
699,46.0,3,30,4.0,0.0
700,73.0,16,15,5.0,0.0
701,46.0,0,30,6.0,0.0
702,72.0,13,15,5.0,0.0
703,70.0,23,15,5.0,0.0
704,73.0,0,20,1.0,0.0
705,70.0,24,20,2.0,0.0
706,65.0,0,20,3.0,0.0
707,82.0,16,60,5.0,0.0
708,72.0,17,20,1.0,0.0
709,69.0,0,20,2.0,0.0
710,63.0,0,20,3.0,0.0
711,73.0,0,30,1.0,0.0
712,70.0,3,30,2.0,0.0
713,65.0,0,30,3.0,0.0
714,44.0,0,30,4.0,0.0
715,44.0,0,30,6.0,0.0
716,79.0,13,15,5.0,0.0
717,80.0,16,15,5.0,0.0
718,82.0,16,15,5.0,0.0
719,80.0,16,15,5.0,0.0
720,79.0,16,15,5.0,0.0
721,43.0,3,30,4.0,0.0
722,77.0,16,15,5.0,0.0
723,43.0,0,30,6.0,0.0
724,75.0,13,15,5.0,0.0
725,72.0,16,15,5.0,0.0
726,70.0,0,30,1.0,0.0
727,70.0,3,30,2.0,0.0
728,70.0,0,30,3.0,0.0
729,73.0,16,15,5.0,0.0
730,72.0,13,15,5.0,0.0
731,73.0,16,15,5.0,0.0
732,67.0,0,30,1.0,0.0
733,67.0,3,30,2.0,0.0
734,67.0,0,30,3.0,0.0
735,39.0,0,30,4.0,0.0
736,82.0,16,15,5.0,0.0
737,39.0,0,30,6.0,0.0
738,80.0,13,15,5.0,0.0
739,79.0,16,15,5.0,0.0
740,63.0,0,30,1.0,0.0
741,63.0,3,30,2.0,0.0
742,63.0,0,30,3.0,0.0
743,77.0,16,15,5.0,0.0
744,79.0,13,15,5.0,0.0
745,75.0,16,15,5.0,0.0
746,44.0,3,30,4.0,0.0
747,73.0,16,15,5.0,0.0
748,44.0,0,30,6.0,0.0
749,70.0,13,15,5.0,0.0
750,73.0,23,15,5.0,0.0
751,72.0,0,20,1.0,0.0
752,68.0,24,20,2.0,0.0
753,63.0,0,20,3.0,0.0
754,72.0,16,60,5.0,0.0
755,70.0,17,20,1.0,0.0
756,67.0,0,20,2.0,0.0
757,61.0,0,20,3.0,0.0
758,72.0,0,30,1.0,0.0
759,68.0,3,30,2.0,0.0
760,63.0,0,30,3.0,0.0
761,56.0,0,30,6.0,0.0
762,68.0,13,15,5.0,0.0
763,70.0,16,15,5.0,0.0
764,72.0,16,15,5.0,0.0
765,44.0,3,30,6.0,0.0
766,70.0,13,15,5.0,0.0
767,68.0,16,15,5.0,0.0
768,66.0,16,15,5.0,0.0
769,49.0,3,30,6.0,0.0
770,65.0,13,15,5.0,0.0
771,73.0,16,15,5.0,0.0
772,65.0,16,15,5.0,0.0
773,51.0,3,30,6.0,0.0
774,63.0,13,15,5.0,0.0
775,72.0,16,15,5.0,0.0
776,63.0,16,15,5.0,0.0
777,53.0,3,30,6.0,0.0
778,61.0,13,15,5.0,0.0
779,70.0,16,15,5.0,0.0
780,61.0,16,15,5.0,0.0
781,49.0,3,30,6.0,0.0
782,60.0,13,15,5.0,0.0
783,68.0,16,15,5.0,0.0
784,67.0,16,15,5.0,0.0
785,51.0,3,30,6.0,0.0
786,68.0,13,15,5.0,0.0
787,70.0,16,15,5.0,0.0
788,68.0,16,15,5.0,0.0
789,46.0,3,30,6.0,0.0
790,67.0,13,15,5.0,0.0
791,65.0,16,15,5.0,0.0
792,67.0,16,15,5.0,0.0
793,39.0,3,30,6.0,0.0
794,65.0,13,15,5.0,0.0
795,63.0,16,15,5.0,0.0
796,73.0,16,15,5.0,0.0
797,43.0,3,30,6.0,0.0
798,72.0,13,15,5.0,0.0
799,70.0,16,15,5.0,0.0
800,72.0,16,15,5.0,0.0
801,44.0,3,30,6.0,0.0
802,77.0,13,15,5.0,0.0
803,75.0,16,15,5.0,0.0
804,73.0,16,15,5.0,0.0
805,48.0,3,30,6.0,0.0
806,72.0,13,15,5.0,0.0
807,70.0,8,15,5.0,0.0
808,68.0,6,15,5.0,0.0
809,49.0,2,30,6.0,0.0
810,70.0,6,15,5.0,0.0
811,68.0,6,15,5.0,0.0
812,70.0,19,15,5.0,0.0
813,68.0,24,20,5.0,0.0
814,67.0,22,20,5.0,0.0
815,51.0,2,30,6.0,0.0
816,68.0,46,20,5.0,0.0
817,74.0,26,30,5.0,0.0
818,53.0,0,30,6.0,0.0
819,75.0,0,20,1.0,0.0
820,70.0,0,20,2.0,0.0
821,63.0,0,20,3.0,0.0
822,55.0,24,20,4.0,0.0
823,75.0,16,60,5.0,0.0
824,55.0,0,20,6.0,0.0
825,74.0,0,20,1.0,0.0
826,68.0,0,20,2.0,0.0
827,65.0,0,20,3.0,0.0
828,53.0,17,20,4.0,0.0
829,53.0,0,20,6.0,0.0
830,75.0,0,30,1.0,0.0
831,70.0,3,30,2.0,0.0
832,67.0,0,30,3.0,0.0
833,51.0,0,30,4.0,0.0
834,51.0,0,30,6.0,0.0
835,77.0,13,15,5.0,0.0
836,79.0,16,15,5.0,0.0
837,80.0,16,15,5.0,0.0
838,49.0,3,30,6.0,0.0
839,79.0,13,15,5.0,0.0
840,77.0,16,15,5.0,0.0
841,75.0,16,15,5.0,0.0
842,48.0,3,30,6.0,0.0
843,73.0,13,15,5.0,0.0
844,72.0,16,15,5.0,0.0
845,77.0,16,15,5.0,0.0
846,49.0,3,30,6.0,0.0
847,75.0,13,15,5.0,0.0
848,73.0,8,15,5.0,0.0
849,72.0,6,15,5.0,0.0
850,51.0,2,30,6.0,0.0
851,73.0,6,15,5.0,0.0
852,72.0,6,15,5.0,0.0
853,73.0,19,15,5.0,0.0
854,72.0,24,20,5.0,0.0
855,70.0,22,20,5.0,0.0
856,39.0,2,30,6.0,0.0
857,68.0,17,20,5.0,0.0
858,68.0,16,15,5.0,0.0
859,44.0,5,90,6.0,0.0
860,63.0,16,15,5.0,0.0
861,68.0,16,15,5.0,0.0
862,72.0,9,20,1.0,0.0
863,68.0,0,20,2.0,0.0
864,63.0,0,20,3.0,0.0
865,72.0,7,15,5.0,0.0
866,75.0,10,15,5.0,0.0
867,70.0,1,20,1.0,0.0
868,70.0,0,20,2.0,0.0
869,61.0,0,20,3.0,0.0
870,79.0,16,15,5.0,0.0
871,72.0,0,30,1.0,0.0
872,68.0,3,30,2.0,0.0
873,63.0,0,30,3.0,0.0
874,80.0,16,15,5.0,0.0
875,75.0,13,15,5.0,0.0
876,72.0,16,15,5.0,0.0
877,68.0,9,20,1.0,0.0
878,63.0,0,30,2.0,0.0
879,60.0,2,30,3.0,0.0
880,68.0,7,15,5.0,0.0
881,63.0,13,15,5.0,0.0
882,67.0,1,20,1.0,0.0
883,60.0,23,15,5.0,0.0
884,68.0,0,30,1.0,0.0
885,63.0,0,30,2.0,0.0
886,60.0,0,30,3.0,0.0
887,44.0,0,30,4.0,0.0
888,75.0,2,30,5.0,0.0
889,56.0,22,20,6.0,0.0
890,55.0,24,20,6.0,0.0
891,68.0,22,60,1.0,0.0
892,72.0,0,20,2.0,0.0
893,63.0,0,20,3.0,0.0
894,56.0,24,20,4.0,0.0
895,68.0,0,60,5.0,0.0
896,56.0,0,20,6.0,0.0
897,70.0,0,20,2.0,0.0
898,61.0,0,20,3.0,0.0
899,58.0,24,20,4.0,0.0
900,58.0,0,20,6.0,0.0
901,68.0,0,30,2.0,0.0
902,63.0,0,30,3.0,0.0
903,60.0,0,30,4.0,0.0
904,60.0,2,30,6.0,0.0
905,75.0,24,20,1.0,0.0
906,75.0,0,20,5.0,0.0
907,72.0,22,20,1.0,0.0
908,56.0,0,30,4.0,0.0
909,72.0,0,20,5.0,0.0
910,56.0,2,30,6.0,0.0
911,67.0,0,20,1.0,0.0
912,67.0,24,20,5.0,0.0
913,68.0,22,20,1.0,0.0
914,63.0,0,30,2.0,0.0
915,60.0,0,30,3.0,0.0
916,48.0,0,30,4.0,0.0
917,68.0,0,20,5.0,0.0
918,48.0,2,30,6.0,0.0
919,67.0,24,20,1.0,0.0
920,67.0,0,20,5.0,0.0
921,68.0,22,60,1.0,0.0
922,72.0,0,20,2.0,0.0
923,63.0,0,20,3.0,0.0
924,56.0,24,20,4.0,0.0
925,68.0,0,60,5.0,0.0
926,56.0,0,20,6.0,0.0
927,70.0,0,20,2.0,0.0
928,61.0,0,20,3.0,0.0
929,58.0,24,20,4.0,0.0
930,58.0,0,20,6.0,0.0
931,68.0,0,30,2.0,0.0
932,63.0,0,30,3.0,0.0
933,60.0,0,30,4.0,0.0
934,60.0,2,30,6.0,0.0
935,75.0,24,20,1.0,0.0
936,75.0,0,20,5.0,0.0
937,72.0,22,20,1.0,0.0
938,56.0,0,30,4.0,0.0
939,72.0,0,20,5.0,0.0
940,56.0,2,30,6.0,0.0
941,67.0,0,20,1.0,0.0
942,67.0,17,20,5.0,0.0
943,68.0,16,15,1.0,0.0
944,65.0,0,30,2.0,0.0
945,60.0,0,30,3.0,0.0
946,41.0,0,30,4.0,0.0
947,68.0,0,15,5.0,0.0
948,41.0,3,30,6.0,0.0
949,70.0,13,15,1.0,0.0
950,70.0,0,15,5.0,0.0
951,67.0,23,15,1.0,0.0
952,67.0,0,15,5.0,0.0
953,68.0,22,60,1.0,0.0
954,72.0,0,20,2.0,0.0
955,65.0,0,20,3.0,0.0
956,56.0,24,20,4.0,0.0
957,68.0,0,60,5.0,0.0
958,56.0,0,20,6.0,0.0
959,70.0,0,20,2.0,0.0
960,67.0,0,20,3.0,0.0
961,58.0,24,20,4.0,0.0
962,58.0,0,20,6.0,0.0
963,68.0,0,30,2.0,0.0
964,68.0,0,30,3.0,0.0
965,60.0,0,30,4.0,0.0
966,60.0,2,30,6.0,0.0
967,75.0,24,20,1.0,0.0
968,75.0,0,20,5.0,0.0
969,72.0,22,20,1.0,0.0
970,56.0,0,30,4.0,0.0
971,72.0,0,20,5.0,0.0
972,56.0,2,30,6.0,0.0
973,67.0,0,20,1.0,0.0
974,67.0,24,20,5.0,0.0
975,68.0,0,20,1.0,0.0
976,63.0,22,20,2.0,0.0
977,56.0,0,20,3.0,0.0
978,36.0,0,30,4.0,0.0
979,68.0,2,30,5.0,0.0
980,48.0,0,30,6.0,0.0
981,67.0,0,20,1.0,0.0
982,61.0,0,20,2.0,0.0
983,58.0,46,20,3.0,0.0
984,68.0,0,30,1.0,0.0
985,63.0,0,30,2.0,0.0
986,60.0,0,30,3.0,0.0
987,48.0,16,30,4.0,0.0
988,56.0,0,30,5.0,0.0
989,36.0,0,30,6.0,0.0
990,68.0,12,15,5.0,0.0
991,60.0,24,30,6.0,0.0
992,67.0,20,15,5.0,0.0
993,68.0,16,30,5.0,0.0
994,48.0,4,30,6.0,0.0
995,72.0,8,15,5.0,0.0
996,75.0,44,15,5.0,0.0
997,63.0,0,30,2.0,0.0
998,48.0,26,30,4.0,0.0
999,80.0,0,60,5.0,0.0
1000,60.0,0,30,6.0,0.0
1001,60.0,14,20,1.0,0.0
1002,56.0,2,30,3.0,0.0
1003,63.0,0,20,6.0,0.0
1004,61.0,2,20,1.0,0.0
1005,75.0,8,15,5.0,0.0
1006,65.0,0,20,6.0,0.0
1007,73.0,15,15,5.0,0.0
1008,63.0,3,30,1.0,0.0
1009,72.0,16,15,5.0,0.0
1010,66.0,0,30,6.0,0.0
1011,73.0,13,15,5.0,0.0
1012,75.0,16,15,5.0,0.0
1013,66.0,0,30,1.0,0.0
1014,63.0,3,30,2.0,0.0
1015,51.0,0,30,4.0,0.0
1016,73.0,16,15,5.0,0.0
1017,51.0,0,30,6.0,0.0
1018,72.0,13,15,5.0,0.0
1019,70.0,45,15,5.0,0.0
1020,60.0,0,30,2.0,0.0
1021,58.0,0,30,3.0,0.0
1022,53.0,0,30,4.0,0.0
1023,70.0,26,30,5.0,0.0
1024,53.0,0,30,6.0,0.0
1025,57.0,24,20,1.0,0.0
1026,65.0,0,90,3.0,0.0
1027,69.0,16,60,5.0,0.0
1028,60.0,0,20,6.0,0.0
1029,58.0,17,20,1.0,0.0
1030,61.0,0,20,6.0,0.0
1031,60.0,3,30,1.0,0.0
1032,63.0,0,30,6.0,0.0
1033,68.0,13,15,5.0,0.0
1034,70.0,16,15,5.0,0.0
1035,63.0,0,30,1.0,0.0
1036,58.0,3,30,2.0,0.0
1037,55.0,0,30,4.0,0.0
1038,70.0,16,15,5.0,0.0
1039,55.0,0,30,6.0,0.0
1040,68.0,13,15,5.0,0.0
1041,67.0,16,15,5.0,0.0
1042,65.0,0,30,2.0,0.0
1043,60.0,3,30,3.0,0.0
1044,57.0,0,30,4.0,0.0
1045,65.0,16,15,5.0,0.0
1046,57.0,0,30,6.0,0.0
1047,72.0,13,15,5.0,0.0
1048,75.0,16,15,5.0,0.0
1049,75.0,19,30,1.0,0.0
1050,69.0,16,15,5.0,0.0
1051,60.0,0,30,6.0,0.0
1052,75.0,13,15,5.0,0.0
1053,78.0,16,30,5.0,0.0
1054,69.0,3,30,1.0,0.0
1055,65.0,0,30,6.0,0.0
1056,77.0,13,15,5.0,0.0
1057,75.0,16,15,5.0,0.0
1058,72.0,0,30,1.0,0.0
1059,69.0,19,30,2.0,0.0
1060,65.0,0,30,3.0,0.0
1061,53.0,0,30,4.0,0.0
1062,77.0,16,15,5.0,0.0
1063,53.0,0,30,6.0,0.0
1064,72.0,13,15,5.0,0.0
1065,75.0,16,30,5.0,0.0
1066,70.0,0,30,2.0,0.0
1067,65.0,3,30,3.0,0.0
1068,58.0,0,30,4.0,0.0
1069,58.0,0,30,6.0,0.0
1070,73.0,13,15,5.0,0.0
1071,72.0,16,15,5.0,0.0
1072,70.0,0,20,1.0,0.0
1073,65.0,9,20,2.0,0.0
1074,58.0,0,20,3.0,0.0
1075,73.0,7,15,5.0,0.0
1076,70.0,15,15,5.0,0.0
1077,69.0,0,20,1.0,0.0
1078,63.0,1,20,2.0,0.0
1079,60.0,0,20,3.0,0.0
1080,69.0,16,15,5.0,0.0
1081,70.0,0,30,1.0,0.0
1082,65.0,3,30,2.0,0.0
1083,61.0,0,30,3.0,0.0
1084,70.0,16,15,5.0,0.0
1085,65.0,13,15,5.0,0.0
1086,61.0,23,15,5.0,0.0
1087,58.0,22,20,5.0,0.0
1088,46.0,19,30,6.0,0.0
1089,70.0,16,30,5.0,0.0
1090,51.0,3,30,6.0,0.0
1091,72.0,13,15,5.0,0.0
1092,73.0,16,15,5.0,0.0
1093,75.0,16,15,5.0,0.0
1094,49.0,3,30,6.0,0.0
1095,77.0,13,15,5.0,0.0
1096,78.0,37,15,5.0,0.0
1097,68.0,8,30,5.0,0.0
1098,48.0,4,30,6.0,0.0
1099,78.0,15,15,5.0,0.0
1100,77.0,3,30,5.0,0.0
1101,49.0,16,15,6.0,0.0
1102,53.0,13,15,6.0,0.0
1103,49.0,16,15,6.0,0.0
1104,66.0,16,15,5.0,0.0
1105,46.0,3,30,6.0,0.0
1106,68.0,13,15,5.0,0.0
1107,70.0,16,15,5.0,0.0
1108,72.0,16,15,5.0,0.0
1109,51.0,3,30,6.0,0.0
1110,73.0,13,15,5.0,0.0
1111,75.0,37,15,5.0,0.0
1112,65.0,8,30,5.0,0.0
1113,45.0,4,30,6.0,0.0
1114,75.0,15,15,5.0,0.0
1115,73.0,3,30,5.0,0.0
1116,46.0,16,15,6.0,0.0
1117,49.0,13,15,6.0,0.0
1118,46.0,16,15,6.0,0.0
1119,63.0,16,15,5.0,0.0
1120,54.0,3,30,6.0,0.0
1121,73.0,13,15,5.0,0.0
1122,72.0,16,15,5.0,0.0
1123,61.0,16,15,5.0,0.0
1124,53.0,3,30,6.0,0.0
1125,72.0,13,15,5.0,0.0
1126,70.0,16,15,5.0,0.0
1127,60.0,16,15,5.0,0.0
1128,51.0,11,30,6.0,0.0
1129,70.0,5,15,5.0,0.0
1130,69.0,1,15,5.0,0.0
1131,54.0,15,15,6.0,0.0
1132,66.0,16,15,5.0,0.0
1133,60.0,11,30,6.0,0.0
1134,65.0,5,15,5.0,0.0
1135,64.0,1,15,5.0,0.0
1136,58.0,15,15,6.0,0.0
1137,65.0,16,15,5.0,0.0
1138,57.0,3,30,6.0,0.0
1139,66.0,13,15,5.0,0.0
1140,64.0,23,15,5.0,0.0
1141,75.0,0,20,1.0,0.0
1142,69.0,22,20,2.0,0.0
1143,65.0,0,20,3.0,0.0
1144,41.0,0,30,4.0,0.0
1145,65.0,16,60,5.0,0.0
1146,53.0,2,30,6.0,0.0
1147,73.0,0,20,1.0,0.0
1148,70.0,0,20,2.0,0.0
1149,67.0,17,20,3.0,0.0
1150,75.0,0,30,1.0,0.0
1151,72.0,3,30,2.0,0.0
1152,69.0,0,30,3.0,0.0
1153,53.0,0,30,4.0,0.0
1154,53.0,0,30,6.0,0.0
1155,60.0,13,15,5.0,0.0
1156,58.0,16,15,5.0,0.0
1157,72.0,0,30,1.0,0.0
1158,65.0,3,30,2.0,0.0
1159,57.0,0,30,3.0,0.0
1160,41.0,0,30,4.0,0.0
1161,57.0,16,15,5.0,0.0
1162,41.0,0,30,6.0,0.0
1163,58.0,13,15,5.0,0.0
1164,60.0,32,15,5.0,0.0
1165,69.0,0,180,1.0,0.0
1166,65.0,0,360,2.0,0.0
1167,60.0,7,180,3.0,0.0
1168,41.0,0,1530,4.0,0.0
1169,51.0,0,30,6.0,0.0
1170,53.0,3,30,6.0,0.0
1171,69.0,13,15,5.0,0.0
1172,70.0,16,15,5.0,0.0
1173,72.0,16,15,5.0,0.0
1174,41.0,3,30,6.0,0.0
1175,69.0,13,15,5.0,0.0
1176,63.0,32,15,5.0,0.0
1177,51.0,0,30,6.0,0.0
1178,53.0,3,30,6.0,0.0
1179,69.0,13,15,5.0,0.0
1180,70.0,16,15,5.0,0.0
1181,72.0,16,15,5.0,0.0
1182,41.0,3,30,6.0,0.0
1183,69.0,6,15,5.0,0.0
1184,63.0,32,15,5.0,0.0
1185,70.0,7,180,1.0,0.0
1186,61.0,0,180,3.0,0.0
1187,49.0,0,30,6.0,0.0
1188,53.0,3,30,6.0,0.0
1189,70.0,13,15,5.0,0.0
1190,72.0,16,15,5.0,0.0
1191,73.0,16,15,5.0,0.0
1192,41.0,3,30,6.0,0.0
1193,70.0,13,15,5.0,0.0
1194,65.0,32,15,5.0,0.0
1195,49.0,0,30,6.0,0.0
1196,53.0,3,30,6.0,0.0
1197,70.0,13,15,5.0,0.0
1198,72.0,16,15,5.0,0.0
1199,73.0,16,15,5.0,0.0
1200,41.0,3,30,6.0,0.0
1201,70.0,6,15,5.0,0.0
1202,65.0,32,15,5.0,0.0
1203,72.0,0,180,1.0,0.0
1204,69.0,7,180,2.0,0.0
1205,63.0,0,180,3.0,0.0
1206,48.0,3,30,6.0,0.0
1207,53.0,0,30,6.0,0.0
1208,51.0,0,30,6.0,0.0
1209,72.0,13,15,5.0,0.0
1210,73.0,16,15,5.0,0.0
1211,75.0,16,15,5.0,0.0
1212,41.0,3,30,6.0,0.0
1213,72.0,13,15,5.0,0.0
1214,69.0,32,15,5.0,0.0
1215,51.0,3,30,6.0,0.0
1216,48.0,0,30,6.0,0.0
1217,53.0,0,30,6.0,0.0
1218,72.0,13,15,5.0,0.0
1219,73.0,16,15,5.0,0.0
1220,75.0,16,15,5.0,0.0
1221,41.0,3,30,6.0,0.0
1222,72.0,6,15,5.0,0.0
1223,69.0,32,15,5.0,0.0
1224,73.0,0,180,1.0,0.0
1225,65.0,7,180,2.0,0.0
1226,61.0,0,180,3.0,0.0
1227,53.0,0,30,6.0,0.0
1228,46.0,3,30,6.0,0.0
1229,73.0,13,15,5.0,0.0
1230,75.0,16,15,5.0,0.0
1231,77.0,16,15,5.0,0.0
1232,41.0,3,30,6.0,0.0
1233,73.0,13,15,5.0,0.0
1234,70.0,32,15,5.0,0.0
1235,46.0,0,30,6.0,0.0
1236,53.0,3,30,6.0,0.0
1237,73.0,13,15,5.0,0.0
1238,75.0,16,15,5.0,0.0
1239,77.0,16,15,5.0,0.0
1240,41.0,3,30,6.0,0.0
1241,73.0,6,15,5.0,0.0
1242,70.0,32,15,5.0,0.0
1243,69.0,0,180,1.0,0.0
1244,60.0,7,180,2.0,0.0
1245,66.0,0,180,3.0,0.0
1246,48.0,3,30,6.0,0.0
1247,53.0,0,30,6.0,0.0
1248,51.0,0,30,6.0,0.0
1249,75.0,13,15,5.0,0.0
1250,77.0,16,15,5.0,0.0
1251,78.0,16,15,5.0,0.0
1252,41.0,3,30,6.0,0.0
1253,75.0,13,15,5.0,0.0
1254,72.0,32,15,5.0,0.0
1255,51.0,3,30,6.0,0.0
1256,48.0,0,30,6.0,0.0
1257,53.0,0,30,6.0,0.0
1258,75.0,13,15,5.0,0.0
1259,77.0,16,15,5.0,0.0
1260,78.0,16,15,5.0,0.0
1261,41.0,3,30,6.0,0.0
1262,75.0,6,15,5.0,0.0
1263,72.0,32,15,5.0,0.0
1264,70.0,7,360,1.0,0.0
1265,65.0,0,630,2.0,0.0
1266,61.0,7,180,3.0,0.0
1267,46.0,0,30,6.0,0.0
1268,53.0,3,30,6.0,0.0
1269,73.0,13,15,5.0,0.0
1270,75.0,16,15,5.0,0.0
1271,77.0,16,15,5.0,0.0
1272,41.0,3,30,6.0,0.0
1273,73.0,13,15,5.0,0.0
1274,70.0,32,15,5.0,0.0
1275,49.0,3,30,6.0,0.0
1276,53.0,0,30,6.0,0.0
1277,46.0,0,30,6.0,0.0
1278,73.0,13,15,5.0,0.0
1279,75.0,16,15,5.0,0.0
1280,77.0,16,15,5.0,0.0
1281,41.0,3,30,6.0,0.0
1282,73.0,6,15,5.0,0.0
1283,70.0,32,15,5.0,0.0
1284,63.0,0,180,3.0,0.0
1285,51.0,0,30,6.0,0.0
1286,53.0,3,30,6.0,0.0
1287,72.0,13,15,5.0,0.0
1288,73.0,16,15,5.0,0.0
1289,75.0,16,15,5.0,0.0
1290,41.0,3,30,6.0,0.0
1291,72.0,13,15,5.0,0.0
1292,70.0,32,15,5.0,0.0
1293,53.0,3,30,6.0,0.0
1294,51.0,0,30,6.0,0.0
1295,48.0,0,30,6.0,0.0
1296,72.0,13,15,5.0,0.0
1297,73.0,16,15,5.0,0.0
1298,75.0,16,15,5.0,0.0
1299,41.0,3,30,6.0,0.0
1300,72.0,6,15,5.0,0.0
1301,70.0,32,15,5.0,0.0
1302,69.0,7,180,1.0,0.0
1303,60.0,0,180,3.0,0.0
1304,48.0,3,30,6.0,0.0
1305,51.0,0,30,6.0,0.0
1306,53.0,0,30,6.0,0.0
1307,72.0,13,15,5.0,0.0
1308,73.0,16,15,5.0,0.0
1309,75.0,16,15,5.0,0.0
1310,41.0,3,30,6.0,0.0
1311,72.0,13,15,5.0,0.0
1312,69.0,32,15,5.0,0.0
1313,48.0,3,30,6.0,0.0
1314,51.0,0,30,6.0,0.0
1315,53.0,0,30,6.0,0.0
1316,72.0,13,15,5.0,0.0
1317,73.0,16,15,5.0,0.0
1318,75.0,16,15,5.0,0.0
1319,41.0,3,30,6.0,0.0
1320,72.0,6,15,5.0,0.0
1321,69.0,13,15,5.0,0.0
1322,70.0,0,30,1.0,0.0
1323,58.0,0,30,3.0,0.0
1324,46.0,0,30,4.0,0.0
1325,75.0,12,15,5.0,0.0
1326,46.0,4,30,6.0,0.0
1327,73.0,12,15,5.0,0.0
1328,75.0,8,15,5.0,0.0
1329,73.0,12,15,5.0,0.0
1330,70.0,2,60,1.0,0.0
1331,73.0,0,20,2.0,0.0
1332,65.0,0,20,3.0,0.0
1333,58.0,0,20,4.0,0.0
1334,75.0,10,15,5.0,0.0
1335,58.0,2,20,6.0,0.0
1336,73.0,12,15,5.0,0.0
1337,72.0,0,20,2.0,0.0
1338,63.0,0,20,3.0,0.0
1339,60.0,0,20,4.0,0.0
1340,75.0,10,15,5.0,0.0
1341,60.0,2,20,6.0,0.0
1342,73.0,12,15,5.0,0.0
1343,70.0,0,30,2.0,0.0
1344,65.0,0,30,3.0,0.0
1345,61.0,2,30,4.0,0.0
1346,75.0,10,15,5.0,0.0
1347,61.0,0,30,6.0,0.0
1348,73.0,12,15,5.0,0.0
1349,77.0,2,20,1.0,0.0
1350,75.0,8,15,5.0,0.0
1351,73.0,12,15,5.0,0.0
1352,73.0,2,20,1.0,0.0
1353,65.0,0,30,2.0,0.0
1354,70.0,0,30,3.0,0.0
1355,58.0,2,30,4.0,0.0
1356,75.0,10,15,5.0,0.0
1357,58.0,0,30,6.0,0.0
1358,73.0,12,15,5.0,0.0
1359,69.0,17,20,1.0,0.0
1360,75.0,8,15,5.0,0.0
1361,73.0,7,20,5.0,0.0
1362,70.0,9,20,1.0,0.0
1363,65.0,0,30,2.0,0.0
1364,61.0,0,30,3.0,0.0
1365,42.0,0,30,4.0,0.0
1366,42.0,2,30,6.0,0.0
1367,75.0,13,15,5.0,0.0
1368,69.0,1,20,1.0,0.0
1369,73.0,16,15,5.0,0.0
1370,70.0,3,30,1.0,0.0
1371,72.0,16,15,5.0,0.0
1372,73.0,13,15,5.0,0.0
1373,70.0,16,15,5.0,0.0
1374,75.0,16,15,5.0,0.0
1375,77.0,16,15,5.0,0.0
1376,75.0,16,15,5.0,0.0
1377,73.0,16,15,5.0,0.0
1378,75.0,16,15,5.0,0.0
1379,72.0,13,15,5.0,0.0
1380,70.0,9,15,1.0,0.0
1381,65.0,0,30,2.0,0.0
1382,58.0,0,30,3.0,0.0
1383,49.0,0,30,4.0,0.0
1384,78.0,3,15,5.0,0.0
1385,49.0,3,30,6.0,0.0
1386,77.0,7,15,5.0,0.0
1387,71.0,5,15,1.0,0.0
1388,78.0,8,15,5.0,0.0
1389,69.0,1,15,1.0,0.0
1390,77.0,12,15,5.0,0.0
1391,70.0,2,60,1.0,0.0
1392,73.0,0,20,2.0,0.0
1393,65.0,0,20,3.0,0.0
1394,58.0,0,20,4.0,0.0
1395,78.0,10,15,5.0,0.0
1396,58.0,2,20,6.0,0.0
1397,77.0,12,15,5.0,0.0
1398,72.0,0,20,2.0,0.0
1399,63.0,0,20,3.0,0.0
1400,60.0,0,20,4.0,0.0
1401,78.0,10,15,5.0,0.0
1402,60.0,2,20,6.0,0.0
1403,77.0,12,15,5.0,0.0
1404,70.0,0,30,2.0,0.0
1405,65.0,0,30,3.0,0.0
1406,61.0,2,30,4.0,0.0
1407,78.0,10,15,5.0,0.0
1408,61.0,0,30,6.0,0.0
1409,77.0,12,15,5.0,0.0
1410,77.0,2,20,1.0,0.0
1411,78.0,8,15,5.0,0.0
1412,77.0,12,15,5.0,0.0
1413,73.0,2,20,1.0,0.0
1414,65.0,0,30,2.0,0.0
1415,58.0,0,30,3.0,0.0
1416,58.0,2,30,4.0,0.0
1417,78.0,10,15,5.0,0.0
1418,58.0,0,30,6.0,0.0
1419,77.0,12,15,5.0,0.0
1420,70.0,17,20,1.0,0.0
1421,78.0,8,15,5.0,0.0
1422,77.0,16,20,5.0,0.0
1423,78.0,0,30,1.0,0.0
1424,63.0,3,30,2.0,0.0
1425,70.0,0,30,3.0,0.0
1426,51.0,0,30,4.0,0.0
1427,51.0,0,30,6.0,0.0
1428,78.0,13,15,5.0,0.0
1429,77.0,16,15,5.0,0.0
1430,75.0,16,15,5.0,0.0
1431,77.0,16,15,5.0,0.0
1432,74.0,16,15,5.0,0.0
1433,78.0,16,15,5.0,0.0
1434,80.0,16,15,5.0,0.0
1435,78.0,16,15,5.0,0.0
1436,77.0,16,15,5.0,0.0
1437,78.0,16,15,5.0,0.0
1438,75.0,16,15,5.0,0.0
1439,81.0,16,15,5.0,0.0
1440,41.0,3,30,6.0,0.0
1441,84.0,13,15,5.0,0.0
1442,82.0,16,15,5.0,0.0
1443,81.0,7,15,5.0,0.0
1444,53.0,9,20,6.0,0.0
1445,79.0,15,15,5.0,0.0
1446,55.0,1,20,6.0,0.0
1447,77.0,16,15,5.0,0.0
1448,75.0,16,15,5.0,0.0
1449,57.0,3,30,6.0,0.0
1450,78.0,13,15,5.0,0.0
1451,77.0,16,15,5.0,0.0
1452,75.0,16,15,5.0,0.0
1453,53.0,3,30,6.0,0.0
1454,73.0,13,15,5.0,0.0
1455,72.0,16,15,5.0,0.0
1456,58.0,0,30,1.0,0.0
1457,58.0,3,30,2.0,0.0
1458,58.0,0,30,3.0,0.0
1459,73.0,16,15,5.0,0.0
1460,46.0,0,30,6.0,0.0
1461,69.0,13,15,5.0,0.0
1462,70.0,16,15,5.0,0.0
1463,60.0,0,30,1.0,0.0
1464,60.0,3,30,2.0,0.0
1465,60.0,0,30,3.0,0.0
1466,75.0,16,15,5.0,0.0
1467,48.0,0,30,6.0,0.0
1468,69.0,13,15,5.0,0.0
1469,70.0,16,15,5.0,0.0
1470,61.0,0,30,1.0,0.0
1471,61.0,3,30,2.0,0.0
1472,61.0,0,30,3.0,0.0
1473,77.0,16,15,5.0,0.0
1474,49.0,0,30,6.0,0.0
1475,69.0,13,15,5.0,0.0
1476,70.0,16,15,5.0,0.0
1477,63.0,0,30,1.0,0.0
1478,63.0,3,30,2.0,0.0
1479,63.0,0,30,3.0,0.0
1480,78.0,16,15,5.0,0.0
1481,51.0,0,30,6.0,0.0
1482,69.0,13,15,5.0,0.0
1483,70.0,16,15,5.0,0.0
1484,65.0,0,30,1.0,0.0
1485,65.0,3,30,2.0,0.0
1486,65.0,0,30,3.0,0.0
1487,46.0,0,30,4.0,0.0
1488,61.0,16,15,5.0,0.0
1489,58.0,0,30,6.0,0.0
1490,69.0,13,15,5.0,0.0
1491,70.0,16,15,5.0,0.0
1492,48.0,3,30,4.0,0.0
1493,63.0,16,15,5.0,0.0
1494,60.0,0,30,6.0,0.0
1495,69.0,13,15,5.0,0.0
1496,70.0,16,15,5.0,0.0
1497,49.0,3,30,4.0,0.0
1498,65.0,16,15,5.0,0.0
1499,61.0,0,30,6.0,0.0
1500,69.0,13,15,5.0,0.0
1501,70.0,16,15,5.0,0.0
1502,51.0,3,30,4.0,0.0
1503,66.0,16,15,5.0,0.0
1504,63.0,0,30,6.0,0.0
1505,69.0,13,15,5.0,0.0
1506,70.0,32,15,5.0,0.0
1507,48.0,3,30,4.0,0.0
1508,70.0,0,120,5.0,0.0
1509,66.0,16,120,5.0,0.0
1510,75.0,0,120,5.0,0.0
1511,60.0,13,15,6.0,0.0
1512,61.0,16,15,6.0,0.0
1513,66.0,0,30,1.0,0.0
1514,63.0,3,30,2.0,0.0
1515,60.0,0,30,3.0,0.0
1516,63.0,16,15,6.0,0.0
1517,65.0,13,15,6.0,0.0
1518,66.0,16,15,6.0,0.0
1519,66.0,0,30,1.0,0.0
1520,63.0,0,30,2.0,0.0
1521,60.0,3,30,3.0,0.0
1522,58.0,0,30,6.0,0.0
1523,70.0,13,15,5.0,0.0
1524,68.0,16,15,5.0,0.0
1525,70.0,0,30,1.0,0.0
1526,63.0,3,30,2.0,0.0
1527,60.0,0,30,3.0,0.0
1528,66.0,16,15,5.0,0.0
1529,65.0,13,15,5.0,0.0
1530,63.0,32,15,5.0,0.0
1531,41.0,3,30,4.0,0.0
1532,75.0,0,120,5.0,0.0
1533,65.0,16,120,5.0,0.0
1534,72.0,0,120,5.0,0.0
1535,57.0,13,15,6.0,0.0
1536,58.0,16,15,6.0,0.0
1537,69.0,0,30,1.0,0.0
1538,60.0,3,30,2.0,0.0
1539,53.0,0,30,3.0,0.0
1540,60.0,16,15,6.0,0.0
1541,61.0,13,15,6.0,0.0
1542,63.0,16,15,6.0,0.0
1543,69.0,0,30,1.0,0.0
1544,60.0,0,30,2.0,0.0
1545,53.0,3,30,3.0,0.0
1546,53.0,0,30,6.0,0.0
1547,72.0,13,15,5.0,0.0
1548,70.0,16,15,5.0,0.0
1549,72.0,0,30,1.0,0.0
1550,69.0,3,30,2.0,0.0
1551,53.0,0,30,3.0,0.0
1552,69.0,16,15,5.0,0.0
1553,67.0,13,15,5.0,0.0
1554,65.0,16,15,5.0,0.0
1555,70.0,0,30,2.0,0.0
1556,65.0,3,30,3.0,0.0
1557,46.0,0,30,4.0,0.0
1558,73.0,16,15,5.0,0.0
1559,46.0,0,30,6.0,0.0
1560,70.0,13,15,5.0,0.0
1561,68.0,16,15,5.0,0.0
1562,66.0,0,90,1.0,0.0
1563,51.0,3,30,4.0,0.0
1564,66.0,16,15,5.0,0.0
1565,51.0,0,30,6.0,0.0
1566,65.0,13,15,5.0,0.0
1567,63.0,16,15,5.0,0.0
1568,72.0,3,30,2.0,0.0
1569,68.0,0,30,3.0,0.0
1570,44.0,0,30,4.0,0.0
1571,72.0,16,15,5.0,0.0
1572,44.0,0,30,6.0,0.0
1573,68.0,13,15,5.0,0.0
1574,66.0,16,15,5.0,0.0
1575,65.0,0,90,1.0,0.0
1576,49.0,3,30,4.0,0.0
1577,65.0,16,15,5.0,0.0
1578,49.0,0,30,6.0,0.0
1579,63.0,13,15,5.0,0.0
1580,61.0,16,15,5.0,0.0
1581,73.0,3,30,2.0,0.0
1582,70.0,0,30,3.0,0.0
1583,42.0,0,30,4.0,0.0
1584,70.0,16,15,5.0,0.0
1585,42.0,0,30,6.0,0.0
1586,66.0,13,15,5.0,0.0
1587,65.0,16,15,5.0,0.0
1588,63.0,0,90,1.0,0.0
1589,75.0,3,30,2.0,0.0
1590,58.0,0,30,3.0,0.0
1591,54.0,0,30,4.0,0.0
1592,63.0,16,15,5.0,0.0
1593,54.0,0,30,6.0,0.0
1594,61.0,13,15,5.0,0.0
1595,60.0,16,15,5.0,0.0
1596,77.0,3,30,2.0,0.0
1597,60.0,0,30,3.0,0.0
1598,53.0,0,30,4.0,0.0
1599,69.0,16,15,5.0,0.0
1600,53.0,0,30,6.0,0.0
1601,65.0,13,15,5.0,0.0
1602,67.0,16,15,5.0,0.0
1603,63.0,16,60,1.0,0.0
1604,69.0,16,15,5.0,0.0
1605,60.0,3,30,6.0,0.0
1606,70.0,13,15,5.0,0.0
1607,72.0,16,15,5.0,0.0
1608,65.0,0,30,2.0,0.0
1609,60.0,0,30,3.0,0.0
1610,53.0,0,30,4.0,0.0
1611,72.0,0,15,5.0,0.0
1612,57.0,3,30,6.0,0.0
1613,65.0,13,15,1.0,0.0
1614,69.0,0,15,5.0,0.0
1615,67.0,16,15,1.0,0.0
1616,70.0,0,15,5.0,0.0
1617,69.0,16,15,1.0,0.0
1618,72.0,0,15,5.0,0.0
1619,53.0,3,30,6.0,0.0
1620,70.0,13,15,1.0,0.0
1621,73.0,0,15,5.0,0.0
1622,72.0,16,15,1.0,0.0
1623,75.0,0,15,5.0,0.0
1624,72.0,0,30,1.0,0.0
1625,69.0,3,30,2.0,0.0
1626,60.0,0,30,3.0,0.0
1627,41.0,0,30,4.0,0.0
1628,75.0,16,15,5.0,0.0
1629,48.0,0,30,6.0,0.0
1630,78.0,13,15,5.0,0.0
1631,77.0,16,15,5.0,0.0
1632,75.0,16,15,5.0,0.0
1633,45.0,3,30,6.0,0.0
1634,73.0,13,15,5.0,0.0
1635,72.0,16,15,5.0,0.0
1636,73.0,16,15,5.0,0.0
1637,46.0,3,30,6.0,0.0
1638,77.0,13,15,5.0,0.0
1639,75.0,16,15,5.0,0.0
1640,73.0,16,15,5.0,0.0
1641,51.0,3,30,6.0,0.0
1642,72.0,13,15,5.0,0.0
1643,70.0,45,15,5.0,0.0
1644,70.0,40,30,5.0,0.0
1645,53.0,0,30,6.0,0.0
1646,69.0,8,30,5.0,0.0
1647,41.0,4,30,6.0,0.0
1648,70.0,44,15,5.0,0.0
1649,76.0,0,30,1.0,0.0
1650,73.0,0,30,2.0,0.0
1651,67.0,0,30,3.0,0.0
1652,46.0,26,30,4.0,0.0
1653,76.0,0,30,5.0,0.0
1654,46.0,0,30,6.0,0.0
1655,77.0,0,30,1.0,0.0
1656,72.0,0,30,2.0,0.0
1657,60.0,0,30,3.0,0.0
1658,45.0,2,30,4.0,0.0
1659,77.0,16,60,5.0,0.0
1660,45.0,22,20,6.0,0.0
1661,43.0,17,20,6.0,0.0
1662,45.0,3,30,6.0,0.0
1663,79.0,13,15,5.0,0.0
1664,81.0,16,15,5.0,0.0
1665,82.0,16,15,5.0,0.0
1666,49.0,16,60,6.0,0.0
1667,80.0,16,15,5.0,0.0
1668,78.0,16,15,5.0,0.0
1669,77.0,0,15,5.0,0.0
1670,75.0,16,15,5.0,0.0
1671,48.0,0,15,6.0,0.0
1672,73.0,16,15,5.0,0.0
1673,46.0,0,15,6.0,0.0
1674,78.0,16,15,5.0,0.0
1675,51.0,0,15,6.0,0.0
1676,77.0,16,15,5.0,0.0
1677,53.0,0,15,6.0,0.0
1678,75.0,45,15,5.0,0.0
1679,54.0,0,15,6.0,0.0
1680,73.0,11,30,5.0,0.0
1681,53.0,0,30,6.0,0.0
1682,72.0,6,15,5.0,0.0
1683,41.0,4,30,6.0,0.0
1684,73.0,21,15,5.0,0.0
1685,72.0,10,20,5.0,0.0
1686,70.0,15,15,5.0,0.0
1687,70.0,16,15,5.0,0.0
1688,46.0,3,30,6.0,0.0
1689,73.0,13,15,5.0,0.0
1690,70.0,16,15,5.0,0.0
1691,58.0,3,30,1.0,0.0
1692,65.0,16,15,5.0,0.0
1693,70.0,13,15,5.0,0.0
1694,65.0,16,15,5.0,0.0
1695,61.0,3,30,1.0,0.0
1696,58.0,0,30,2.0,0.0
1697,61.0,16,15,5.0,0.0
1698,70.0,13,15,5.0,0.0
1699,65.0,16,15,5.0,0.0
1700,65.0,0,30,1.0,0.0
1701,61.0,3,30,2.0,0.0
1702,58.0,0,30,3.0,0.0
1703,61.0,16,15,5.0,0.0
1704,65.0,13,15,5.0,0.0
1705,61.0,23,15,5.0,0.0
1706,70.0,0,30,1.0,0.0
1707,65.0,2,30,2.0,0.0
1708,61.0,0,30,3.0,0.0
1709,46.0,0,30,4.0,0.0
1710,58.0,22,20,6.0,0.0
1711,57.0,24,20,6.0,0.0
1712,70.0,22,60,1.0,0.0
1713,73.0,0,20,2.0,0.0
1714,65.0,0,20,3.0,0.0
1715,58.0,24,20,4.0,0.0
1716,70.0,0,60,5.0,0.0
1717,58.0,0,20,6.0,0.0
1718,72.0,0,20,2.0,0.0
1719,63.0,0,20,3.0,0.0
1720,60.0,24,20,4.0,0.0
1721,60.0,0,20,6.0,0.0
1722,70.0,0,30,2.0,0.0
1723,65.0,0,30,3.0,0.0
1724,61.0,0,30,4.0,0.0
1725,61.0,2,30,6.0,0.0
1726,77.0,24,20,1.0,0.0
1727,77.0,0,20,5.0,0.0
1728,73.0,22,20,1.0,0.0
1729,58.0,0,30,4.0,0.0
1730,73.0,0,20,5.0,0.0
1731,58.0,2,30,6.0,0.0
1732,69.0,0,20,1.0,0.0
1733,69.0,24,20,5.0,0.0
1734,70.0,22,20,1.0,0.0
1735,63.0,0,30,2.0,0.0
1736,58.0,0,30,3.0,0.0
1737,42.0,0,30,4.0,0.0
1738,70.0,0,20,5.0,0.0
1739,42.0,2,30,6.0,0.0
1740,69.0,24,20,1.0,0.0
1741,69.0,0,20,5.0,0.0
1742,70.0,22,60,1.0,0.0
1743,73.0,0,20,2.0,0.0
1744,70.0,0,20,3.0,0.0
1745,58.0,24,20,4.0,0.0
1746,70.0,0,60,5.0,0.0
1747,58.0,0,20,6.0,0.0
1748,72.0,0,20,2.0,0.0
1749,69.0,0,20,3.0,0.0
1750,60.0,24,20,4.0,0.0
1751,60.0,0,20,6.0,0.0
1752,70.0,0,30,2.0,0.0
1753,70.0,0,30,3.0,0.0
1754,61.0,0,30,4.0,0.0
1755,61.0,2,30,6.0,0.0
1756,77.0,24,20,1.0,0.0
1757,77.0,0,20,5.0,0.0
1758,73.0,22,20,1.0,0.0
1759,58.0,0,30,4.0,0.0
1760,73.0,0,20,5.0,0.0
1761,58.0,2,30,6.0,0.0
1762,69.0,0,20,1.0,0.0
1763,69.0,17,20,5.0,0.0
1764,70.0,16,15,1.0,0.0
1765,65.0,0,30,2.0,0.0
1766,58.0,0,30,3.0,0.0
1767,49.0,0,30,4.0,0.0
1768,70.0,0,15,5.0,0.0
1769,49.0,3,30,6.0,0.0
1770,71.0,13,15,1.0,0.0
1771,71.0,0,15,5.0,0.0
1772,69.0,23,15,1.0,0.0
1773,69.0,0,15,5.0,0.0
1774,70.0,22,60,1.0,0.0
1775,73.0,0,20,2.0,0.0
1776,65.0,0,20,3.0,0.0
1777,58.0,24,20,4.0,0.0
1778,70.0,0,60,5.0,0.0
1779,58.0,0,20,6.0,0.0
1780,72.0,0,20,2.0,0.0
1781,63.0,0,20,3.0,0.0
1782,60.0,24,20,4.0,0.0
1783,60.0,0,20,6.0,0.0
1784,70.0,0,30,2.0,0.0
1785,65.0,0,30,3.0,0.0
1786,61.0,0,30,4.0,0.0
1787,61.0,2,30,6.0,0.0
1788,77.0,24,20,1.0,0.0
1789,77.0,0,20,5.0,0.0
1790,73.0,22,20,1.0,0.0
1791,58.0,0,30,4.0,0.0
1792,73.0,0,20,5.0,0.0
1793,58.0,2,30,6.0,0.0
1794,70.0,0,20,1.0,0.0
1795,70.0,17,20,5.0,0.0
1796,78.0,16,15,1.0,0.0
1797,70.0,0,30,2.0,0.0
1798,63.0,3,30,3.0,0.0
1799,51.0,0,30,4.0,0.0
1800,78.0,0,30,5.0,0.0
1801,51.0,0,30,6.0,0.0
1802,75.0,13,15,1.0,0.0
1803,74.0,45,15,1.0,0.0
1804,75.0,0,30,1.0,0.0
1805,66.0,0,30,2.0,0.0
1806,58.0,0,30,3.0,0.0
1807,39.0,19,30,4.0,0.0
1808,75.0,0,30,5.0,0.0
1809,39.0,0,30,6.0,0.0
1810,78.0,16,15,5.0,0.0
1811,75.0,16,15,5.0,0.0
1812,74.0,45,15,5.0,0.0
1813,75.0,48,30,5.0,0.0
1814,68.0,0,30,1.0,0.0
1815,63.0,0,30,2.0,0.0
1816,60.0,0,30,3.0,0.0
1817,44.0,26,30,4.0,0.0
1818,68.0,0,30,5.0,0.0
1819,44.0,0,30,6.0,0.0
1820,68.0,22,60,1.0,0.0
1821,72.0,0,20,2.0,0.0
1822,63.0,0,20,3.0,0.0
1823,56.0,24,20,4.0,0.0
1824,68.0,0,60,5.0,0.0
1825,56.0,0,20,6.0,0.0
1826,70.0,0,20,2.0,0.0
1827,61.0,0,20,3.0,0.0
1828,58.0,24,20,4.0,0.0
1829,58.0,0,20,6.0,0.0
1830,68.0,0,30,2.0,0.0
1831,63.0,0,30,3.0,0.0
1832,60.0,0,30,4.0,0.0
1833,60.0,2,30,6.0,0.0
1834,75.0,24,20,1.0,0.0
1835,75.0,0,20,5.0,0.0
1836,72.0,22,20,1.0,0.0
1837,56.0,0,30,4.0,0.0
1838,72.0,0,20,5.0,0.0
1839,56.0,2,30,6.0,0.0
1840,67.0,0,20,1.0,0.0
1841,67.0,24,20,5.0,0.0
1842,68.0,22,20,1.0,0.0
1843,61.0,0,30,2.0,0.0
1844,56.0,0,30,3.0,0.0
1845,41.0,0,30,4.0,0.0
1846,68.0,0,20,5.0,0.0
1847,41.0,2,30,6.0,0.0
1848,67.0,24,20,1.0,0.0
1849,67.0,0,20,5.0,0.0
1850,68.0,22,60,1.0,0.0
1851,72.0,0,20,2.0,0.0
1852,68.0,0,20,3.0,0.0
1853,56.0,24,20,4.0,0.0
1854,68.0,0,60,5.0,0.0
1855,56.0,0,20,6.0,0.0
1856,70.0,0,20,2.0,0.0
1857,67.0,0,20,3.0,0.0
1858,58.0,24,20,4.0,0.0
1859,58.0,0,20,6.0,0.0
1860,68.0,0,30,2.0,0.0
1861,68.0,0,30,3.0,0.0
1862,60.0,0,30,4.0,0.0
1863,60.0,2,30,6.0,0.0
1864,75.0,24,20,1.0,0.0
1865,75.0,0,20,5.0,0.0
1866,72.0,22,20,1.0,0.0
1867,56.0,0,30,4.0,0.0
1868,72.0,0,20,5.0,0.0
1869,56.0,2,30,6.0,0.0
1870,67.0,0,20,1.0,0.0
1871,67.0,17,20,5.0,0.0
1872,68.0,16,15,1.0,0.0
1873,63.0,0,30,2.0,0.0
1874,56.0,0,30,3.0,0.0
1875,48.0,0,30,4.0,0.0
1876,68.0,0,15,5.0,0.0
1877,48.0,3,30,6.0,0.0
1878,70.0,13,15,1.0,0.0
1879,70.0,0,15,5.0,0.0
1880,67.0,23,15,1.0,0.0
1881,67.0,0,15,5.0,0.0
1882,68.0,22,60,1.0,0.0
1883,72.0,0,20,2.0,0.0
1884,63.0,0,20,3.0,0.0
1885,56.0,24,20,4.0,0.0
1886,68.0,0,60,5.0,0.0
1887,56.0,0,20,6.0,0.0
1888,70.0,0,20,2.0,0.0
1889,61.0,0,20,3.0,0.0
1890,58.0,24,20,4.0,0.0
1891,58.0,0,20,6.0,0.0
1892,68.0,0,30,2.0,0.0
1893,63.0,0,30,3.0,0.0
1894,60.0,0,30,4.0,0.0
1895,60.0,2,30,6.0,0.0
1896,75.0,24,20,1.0,0.0
1897,75.0,0,20,5.0,0.0
1898,72.0,22,20,1.0,0.0
1899,56.0,0,30,4.0,0.0
1900,72.0,0,20,5.0,0.0
1901,56.0,2,30,6.0,0.0
1902,68.0,0,20,1.0,0.0
1903,68.0,17,20,5.0,0.0
1904,77.0,16,15,1.0,0.0
1905,68.0,0,30,2.0,0.0
1906,61.0,3,30,3.0,0.0
1907,49.0,0,30,4.0,0.0
1908,77.0,0,30,5.0,0.0
1909,49.0,0,30,6.0,0.0
1910,73.0,13,15,1.0,0.0
1911,72.0,45,15,1.0,0.0
1912,73.0,0,30,1.0,0.0
1913,65.0,0,30,2.0,0.0
1914,56.0,0,30,3.0,0.0
1915,37.0,19,30,4.0,0.0
1916,73.0,0,30,5.0,0.0
1917,37.0,0,30,6.0,0.0
1918,77.0,16,15,5.0,0.0
1919,73.0,16,15,5.0,0.0
1920,72.0,64,15,5.0,0.0
1921,73.0,16,60,5.0,0.0
1922,73.0,10,360,1.0,0.0
1923,65.0,3,30,2.0,0.0
1924,61.0,0,30,3.0,0.0
1925,49.0,0,30,4.0,0.0
1926,49.0,0,30,6.0,0.0
1927,61.0,13,15,5.0,0.0
1928,60.0,16,15,5.0,0.0
1929,61.0,16,15,5.0,0.0
1930,63.0,16,15,5.0,0.0
1931,65.0,16,15,5.0,0.0
1932,66.0,3,30,2.0,0.0
1933,58.0,0,30,3.0,0.0
1934,51.0,0,30,4.0,0.0
1935,66.0,16,15,5.0,0.0
1936,51.0,0,30,6.0,0.0
1937,61.0,13,15,5.0,0.0
1938,60.0,16,15,5.0,0.0
1939,61.0,16,15,5.0,0.0
1940,65.0,16,15,5.0,0.0
1941,66.0,16,15,5.0,0.0
1942,68.0,3,30,2.0,0.0
1943,56.0,0,30,3.0,0.0
1944,53.0,0,30,4.0,0.0
1945,68.0,16,15,5.0,0.0
1946,53.0,0,30,6.0,0.0
1947,61.0,13,15,5.0,0.0
1948,60.0,16,15,5.0,0.0
1949,61.0,16,15,5.0,0.0
1950,66.0,16,15,5.0,0.0
1951,68.0,16,15,5.0,0.0
1952,70.0,3,30,2.0,0.0
1953,61.0,0,30,3.0,0.0
1954,54.0,0,30,4.0,0.0
1955,70.0,16,15,5.0,0.0
1956,54.0,0,30,6.0,0.0
1957,61.0,13,15,5.0,0.0
1958,60.0,16,15,5.0,0.0
1959,61.0,16,15,5.0,0.0
1960,68.0,6,15,5.0,0.0
1961,70.0,16,15,5.0,0.0
1962,72.0,3,30,1.0,0.0
1963,68.0,10,180,2.0,0.0
1964,63.0,0,30,3.0,0.0
1965,42.0,0,30,4.0,0.0
1966,72.0,16,15,5.0,0.0
1967,42.0,0,30,6.0,0.0
1968,68.0,13,15,5.0,0.0
1969,67.0,16,15,5.0,0.0
1970,68.0,16,15,5.0,0.0
1971,70.0,16,15,5.0,0.0
1972,72.0,16,15,5.0,0.0
1973,73.0,3,30,1.0,0.0
1974,65.0,0,30,3.0,0.0
1975,41.0,0,30,4.0,0.0
1976,73.0,16,15,5.0,0.0
1977,41.0,0,30,6.0,0.0
1978,68.0,13,15,5.0,0.0
1979,67.0,16,15,5.0,0.0
1980,68.0,16,15,5.0,0.0
1981,72.0,6,15,5.0,0.0
1982,73.0,16,15,5.0,0.0
1983,72.0,3,30,1.0,0.0
1984,69.0,6,90,2.0,0.0
1985,66.0,0,30,3.0,0.0
1986,39.0,0,30,4.0,0.0
1987,75.0,16,15,5.0,0.0
1988,39.0,0,30,6.0,0.0
1989,72.0,13,15,5.0,0.0
1990,70.0,16,15,5.0,0.0
1991,72.0,16,15,5.0,0.0
1992,73.0,10,15,5.0,0.0
1993,75.0,16,15,5.0,0.0
1994,77.0,3,30,1.0,0.0
1995,70.0,22,120,2.0,0.0
1996,65.0,0,30,3.0,0.0
1997,37.0,0,30,4.0,0.0
1998,77.0,16,15,5.0,0.0
1999,37.0,0,30,6.0,0.0
2000,70.0,13,15,5.0,0.0
2001,69.0,16,15,5.0,0.0
2002,70.0,16,15,5.0,0.0
2003,76.0,16,15,5.0,0.0
2004,77.0,23,15,5.0,0.0
2005,79.0,0,20,1.0,0.0
2006,64.0,0,30,3.0,0.0
2007,36.0,0,30,4.0,0.0
2008,79.0,0,20,5.0,0.0
2009,36.0,2,30,6.0,0.0
2010,77.0,0,20,1.0,0.0
2011,68.0,0,20,2.0,0.0
2012,77.0,24,20,5.0,0.0
2013,76.0,0,20,1.0,0.0
2014,67.0,0,20,2.0,0.0
2015,67.0,2,30,3.0,0.0
2016,48.0,0,20,4.0,0.0
2017,76.0,22,20,5.0,0.0
2018,48.0,0,20,6.0,0.0
2019,74.0,0,20,1.0,0.0
2020,65.0,0,20,2.0,0.0
2021,50.0,0,20,4.0,0.0
2022,74.0,46,20,5.0,0.0
2023,50.0,0,20,6.0,0.0
2024,72.0,0,30,1.0,0.0
2025,67.0,0,30,2.0,0.0
2026,72.0,0,30,3.0,0.0
2027,52.0,48,30,4.0,0.0
2028,72.0,0,30,5.0,0.0
2029,52.0,0,30,6.0,0.0
2030,70.0,0,30,1.0,0.0
2031,67.0,0,30,2.0,0.0
2032,64.0,0,30,3.0,0.0
2033,48.0,11,30,4.0,0.0
2034,70.0,0,30,5.0,0.0
2035,48.0,0,30,6.0,0.0
2036,68.0,2,20,1.0,0.0
2037,65.0,0,30,2.0,0.0
2038,60.0,0,30,3.0,0.0
2039,41.0,0,30,4.0,0.0
2040,68.0,6,15,5.0,0.0
2041,41.0,2,30,6.0,0.0
2042,70.0,9,15,5.0,0.0
2043,68.0,20,15,5.0,0.0
2044,67.0,24,20,1.0,0.0
2045,67.0,0,20,5.0,0.0
2046,68.0,0,60,1.0,0.0
2047,60.0,2,30,2.0,0.0
2048,65.0,0,20,3.0,0.0
2049,53.0,22,20,4.0,0.0
2050,68.0,22,60,5.0,0.0
2051,53.0,0,20,6.0,0.0
2052,67.0,0,20,3.0,0.0
2053,52.0,0,20,4.0,0.0
2054,52.0,24,20,6.0,0.0
2055,65.0,0,120,2.0,0.0
2056,68.0,0,30,3.0,0.0
2057,53.0,0,30,4.0,0.0
2058,53.0,2,30,6.0,0.0
2059,65.0,24,20,1.0,0.0
2060,65.0,0,20,5.0,0.0
2061,64.0,22,20,1.0,0.0
2062,60.0,0,30,3.0,0.0
2063,56.0,0,30,4.0,0.0
2064,64.0,0,20,5.0,0.0
2065,56.0,2,30,6.0,0.0
2066,65.0,24,20,1.0,0.0
2067,65.0,0,20,5.0,0.0
2068,71.0,22,20,1.0,0.0
2069,62.0,0,20,3.0,0.0
2070,43.0,0,30,4.0,0.0
2071,71.0,0,20,5.0,0.0
2072,43.0,2,30,6.0,0.0
2073,72.0,24,20,1.0,0.0
2074,63.0,0,20,2.0,0.0
2075,60.0,0,20,3.0,0.0
2076,72.0,0,20,5.0,0.0
2077,74.0,0,20,1.0,0.0
2078,62.0,0,20,2.0,0.0
2079,59.0,0,20,3.0,0.0
2080,59.0,24,20,4.0,0.0
2081,74.0,0,20,5.0,0.0
2082,59.0,0,20,6.0,0.0
2083,72.0,0,20,1.0,0.0
2084,63.0,0,20,2.0,0.0
2085,57.0,0,20,3.0,0.0
2086,60.0,24,20,4.0,0.0
2087,72.0,0,20,5.0,0.0
2088,60.0,0,20,6.0,0.0
2089,71.0,22,20,1.0,0.0
2090,65.0,0,30,2.0,0.0
2091,55.0,0,30,3.0,0.0
2092,62.0,0,30,4.0,0.0
2093,71.0,0,20,5.0,0.0
2094,62.0,2,30,6.0,0.0
2095,68.0,24,20,1.0,0.0
2096,68.0,0,20,5.0,0.0
2097,67.0,22,20,1.0,0.0
2098,62.0,0,30,2.0,0.0
2099,55.0,0,30,3.0,0.0
2100,59.0,0,30,4.0,0.0
2101,67.0,0,20,5.0,0.0
2102,59.0,2,30,6.0,0.0
2103,65.0,9,20,1.0,0.0
2104,65.0,0,20,5.0,0.0
2105,65.0,5,15,1.0,0.0
2106,62.0,0,15,2.0,0.0
2107,55.0,0,30,3.0,0.0
2108,60.0,0,30,4.0,0.0
2109,67.0,1,15,5.0,0.0
2110,60.0,2,30,6.0,0.0
2111,67.0,0,15,1.0,0.0
2112,63.0,6,15,2.0,0.0
2113,65.0,5,15,1.0,0.0
2114,62.0,0,15,2.0,0.0
2115,65.0,1,15,5.0,0.0
2116,67.0,0,15,1.0,0.0
2117,63.0,11,15,2.0,0.0
2118,65.0,0,20,1.0,0.0
2119,62.0,2,20,2.0,0.0
2120,67.0,8,15,5.0,0.0
2121,65.0,22,15,5.0,0.0
2122,64.0,0,30,1.0,0.0
2123,60.0,2,30,2.0,0.0
2124,55.0,0,30,3.0,0.0
2125,48.0,22,20,4.0,0.0
2126,64.0,22,60,5.0,0.0
2127,48.0,0,20,6.0,0.0
2128,49.0,24,20,4.0,0.0
2129,49.0,0,20,6.0,0.0
2130,48.0,2,30,4.0,0.0
2131,48.0,0,30,6.0,0.0
2132,72.0,24,20,5.0,0.0
2133,46.0,2,30,4.0,0.0
2134,74.0,22,20,5.0,0.0
2135,46.0,0,30,6.0,0.0
2136,76.0,46,20,5.0,0.0
2137,44.0,26,30,4.0,0.0
2138,77.0,0,30,5.0,0.0
2139,44.0,0,30,6.0,0.0
2140,77.0,0,20,1.0,0.0
2141,68.0,22,20,2.0,0.0
2142,65.0,0,20,3.0,0.0
2143,56.0,0,30,4.0,0.0
2144,77.0,22,60,5.0,0.0
2145,56.0,2,30,6.0,0.0
2146,76.0,0,20,1.0,0.0
2147,70.0,0,20,2.0,0.0
2148,67.0,24,20,3.0,0.0
2149,77.0,0,30,1.0,0.0
2150,72.0,2,30,2.0,0.0
2151,68.0,0,30,3.0,0.0
2152,56.0,0,30,6.0,0.0
2153,84.0,24,20,5.0,0.0
2154,72.0,0,30,1.0,0.0
2155,68.0,0,30,2.0,0.0
2156,65.0,0,30,3.0,0.0
2157,44.0,0,30,4.0,0.0
2158,80.0,22,20,5.0,0.0
2159,44.0,2,30,6.0,0.0
2160,76.0,24,20,5.0,0.0
2161,46.0,2,30,4.0,0.0
2162,77.0,22,20,5.0,0.0
2163,46.0,0,30,6.0,0.0
2164,76.0,24,20,5.0,0.0
2165,77.0,0,20,1.0,0.0
2166,68.0,22,20,2.0,0.0
2167,65.0,0,20,3.0,0.0
2168,58.0,0,30,4.0,0.0
2169,77.0,22,60,5.0,0.0
2170,58.0,2,30,6.0,0.0
2171,76.0,0,20,1.0,0.0
2172,70.0,0,20,2.0,0.0
2173,67.0,24,20,3.0,0.0
2174,77.0,0,30,1.0,0.0
2175,72.0,2,30,2.0,0.0
2176,68.0,0,30,3.0,0.0
2177,58.0,0,30,6.0,0.0
2178,84.0,24,20,5.0,0.0
2179,72.0,0,30,1.0,0.0
2180,77.0,0,30,2.0,0.0
2181,65.0,0,30,3.0,0.0
2182,46.0,0,30,4.0,0.0
2183,80.0,22,20,5.0,0.0
2184,46.0,2,30,6.0,0.0
2185,76.0,17,20,5.0,0.0
2186,48.0,3,30,4.0,0.0
2187,77.0,16,15,5.0,0.0
2188,48.0,0,30,6.0,0.0
2189,79.0,13,15,5.0,0.0
2190,76.0,23,15,5.0,0.0
2191,77.0,0,20,1.0,0.0
2192,68.0,22,20,2.0,0.0
2193,65.0,0,20,3.0,0.0
2194,60.0,0,30,4.0,0.0
2195,77.0,22,60,5.0,0.0
2196,60.0,2,30,6.0,0.0
2197,76.0,0,20,1.0,0.0
2198,70.0,0,20,2.0,0.0
2199,67.0,24,20,3.0,0.0
2200,77.0,0,30,1.0,0.0
2201,72.0,2,30,2.0,0.0
2202,68.0,0,30,3.0,0.0
2203,60.0,0,30,6.0,0.0
2204,84.0,24,20,5.0,0.0
2205,72.0,0,30,1.0,0.0
2206,77.0,0,30,2.0,0.0
2207,65.0,0,30,3.0,0.0
2208,48.0,0,30,4.0,0.0
2209,80.0,22,20,5.0,0.0
2210,48.0,2,30,6.0,0.0
2211,77.0,17,20,5.0,0.0
2212,49.0,3,30,4.0,0.0
2213,82.0,16,15,5.0,0.0
2214,49.0,0,30,6.0,0.0
2215,80.0,13,15,5.0,0.0
2216,78.0,16,15,5.0,0.0
2217,77.0,16,15,5.0,0.0
2218,53.0,3,30,6.0,0.0
2219,75.0,13,15,5.0,0.0
2220,73.0,16,15,5.0,0.0
2221,75.0,16,15,5.0,0.0
2222,58.0,3,30,6.0,0.0
2223,73.0,13,15,5.0,0.0
2224,72.0,16,15,5.0,0.0
2225,73.0,16,15,5.0,0.0
2226,55.0,3,30,6.0,0.0
2227,72.0,13,15,5.0,0.0
2228,70.0,16,15,5.0,0.0
2229,79.0,16,15,5.0,0.0
2230,52.0,3,30,6.0,0.0
2231,77.0,13,15,5.0,0.0
2232,76.0,16,15,5.0,0.0
2233,73.0,16,15,5.0,0.0
2234,55.0,3,30,6.0,0.0
2235,72.0,13,15,5.0,0.0
2236,70.0,16,15,5.0,0.0
2237,72.0,16,15,5.0,0.0
2238,52.0,3,30,6.0,0.0
2239,70.0,13,15,5.0,0.0
2240,68.0,16,15,5.0,0.0
2241,70.0,16,15,5.0,0.0
2242,48.0,3,30,6.0,0.0
2243,68.0,13,15,5.0,0.0
2244,67.0,16,15,5.0,0.0
2245,65.0,0,270,1.0,0.0
2246,65.0,0,270,2.0,0.0
2247,65.0,3,270,3.0,0.0
2248,41.0,3,30,4.0,0.0
2249,68.0,16,15,5.0,0.0
2250,41.0,0,30,6.0,0.0
2251,77.0,13,15,5.0,0.0
2252,79.0,16,15,5.0,0.0
2253,80.0,16,15,5.0,0.0
2254,41.0,3,30,6.0,0.0
2255,79.0,13,15,5.0,0.0
2256,77.0,16,15,5.0,0.0
2257,43.0,3,30,4.0,0.0
2258,70.0,16,15,5.0,0.0
2259,43.0,0,30,6.0,0.0
2260,77.0,13,15,5.0,0.0
2261,79.0,16,15,5.0,0.0
2262,80.0,16,15,5.0,0.0
2263,43.0,3,30,6.0,0.0
2264,79.0,13,15,5.0,0.0
2265,77.0,16,15,5.0,0.0
2266,44.0,3,30,4.0,0.0
2267,72.0,16,15,5.0,0.0
2268,44.0,0,30,6.0,0.0
2269,77.0,13,15,5.0,0.0
2270,79.0,16,15,5.0,0.0
2271,80.0,16,15,5.0,0.0
2272,44.0,3,30,6.0,0.0
2273,79.0,10,15,5.0,0.0
2274,77.0,16,15,5.0,0.0
2275,73.0,0,180,1.0,0.0
2276,70.0,3,180,2.0,0.0
2277,46.0,3,30,4.0,0.0
2278,73.0,16,15,5.0,0.0
2279,46.0,0,30,6.0,0.0
2280,77.0,13,15,5.0,0.0
2281,79.0,16,15,5.0,0.0
2282,80.0,16,15,5.0,0.0
2283,46.0,3,30,6.0,0.0
2284,79.0,13,15,5.0,0.0
2285,77.0,16,15,5.0,0.0
2286,67.0,7,180,3.0,0.0
2287,39.0,3,30,4.0,0.0
2288,79.0,16,15,5.0,0.0
2289,39.0,0,30,6.0,0.0
2290,73.0,13,15,5.0,0.0
2291,72.0,16,15,5.0,0.0
2292,70.0,16,15,5.0,0.0
2293,39.0,3,30,6.0,0.0
2294,72.0,10,15,5.0,0.0
2295,73.0,16,15,5.0,0.0
2296,72.0,0,180,1.0,0.0
2297,68.0,0,180,2.0,0.0
2298,44.0,3,30,4.0,0.0
2299,72.0,16,15,5.0,0.0
2300,44.0,0,30,6.0,0.0
2301,76.0,13,15,5.0,0.0
2302,77.0,16,15,5.0,0.0
2303,79.0,16,15,5.0,0.0
2304,44.0,3,30,6.0,0.0
2305,77.0,6,15,5.0,0.0
2306,76.0,16,15,5.0,0.0
2307,65.0,3,90,3.0,0.0
2308,38.0,3,30,4.0,0.0
2309,77.0,16,15,5.0,0.0
2310,38.0,0,30,6.0,0.0
2311,72.0,13,15,5.0,0.0
2312,70.0,16,15,5.0,0.0
2313,68.0,16,15,5.0,0.0
2314,38.0,3,30,6.0,0.0
2315,70.0,10,15,5.0,0.0
2316,72.0,16,15,5.0,0.0
2317,71.0,0,90,1.0,0.0
2318,67.0,0,30,2.0,0.0
2319,53.0,3,90,3.0,0.0
2320,37.0,3,30,4.0,0.0
2321,71.0,16,15,5.0,0.0
2322,37.0,0,30,6.0,0.0
2323,77.0,13,15,5.0,0.0
2324,79.0,16,15,5.0,0.0
2325,65.0,3,30,2.0,0.0
2326,80.0,16,15,5.0,0.0
2327,37.0,0,30,6.0,0.0
2328,79.0,10,15,5.0,0.0
2329,77.0,16,15,5.0,0.0
2330,72.0,0,360,1.0,0.0
2331,67.0,4,180,2.0,0.0
2332,60.0,5,90,3.0,0.0
2333,36.0,0,1140,4.0,0.0
2334,76.0,16,15,5.0,0.0
2335,36.0,3,30,6.0,0.0
2336,72.0,13,15,5.0,0.0
2337,76.0,16,15,5.0,0.0
2338,79.0,7,15,5.0,0.0
2339,52.0,9,20,6.0,0.0
2340,76.0,10,15,5.0,0.0
2341,53.0,1,20,6.0,0.0
2342,79.0,16,15,5.0,0.0
2343,64.0,3,90,3.0,0.0
2344,82.0,16,15,5.0,0.0
2345,55.0,3,30,6.0,0.0
2346,79.0,13,15,5.0,0.0
2347,82.0,16,15,5.0,0.0
2348,85.0,16,15,5.0,0.0
2349,52.0,3,30,6.0,0.0
2350,84.0,6,15,5.0,0.0
2351,82.0,16,15,5.0,0.0
2352,68.0,7,180,2.0,0.0
2353,65.0,0,180,3.0,0.0
2354,84.0,16,15,5.0,0.0
2355,36.0,3,30,6.0,0.0
2356,80.0,13,15,5.0,0.0
2357,77.0,16,15,5.0,0.0
2358,72.0,7,15,5.0,0.0
2359,53.0,9,20,6.0,0.0
2360,68.0,15,15,5.0,0.0
2361,55.0,1,20,6.0,0.0
2362,72.0,16,15,5.0,0.0
2363,77.0,16,15,5.0,0.0
2364,56.0,3,30,6.0,0.0
2365,72.0,13,15,5.0,0.0
2366,77.0,16,15,5.0,0.0
2367,80.0,16,15,5.0,0.0
2368,53.0,3,30,6.0,0.0
2369,77.0,6,15,5.0,0.0
2370,80.0,16,15,5.0,0.0
2371,73.0,0,180,1.0,0.0
2372,67.0,7,180,2.0,0.0
2373,64.0,0,180,3.0,0.0
2374,82.0,16,15,5.0,0.0
2375,36.0,3,30,6.0,0.0
2376,79.0,13,15,5.0,0.0
2377,76.0,16,15,5.0,0.0
2378,70.0,7,15,5.0,0.0
2379,55.0,9,20,6.0,0.0
2380,67.0,15,15,5.0,0.0
2381,56.0,1,20,6.0,0.0
2382,70.0,16,15,5.0,0.0
2383,76.0,16,15,5.0,0.0
2384,58.0,3,30,6.0,0.0
2385,70.0,13,15,5.0,0.0
2386,76.0,16,15,5.0,0.0
2387,79.0,16,15,5.0,0.0
2388,55.0,3,30,6.0,0.0
2389,77.0,6,15,5.0,0.0
2390,76.0,16,15,5.0,0.0
2391,72.0,7,180,1.0,0.0
2392,68.0,0,360,2.0,0.0
2393,65.0,0,180,3.0,0.0
2394,80.0,16,15,5.0,0.0
2395,36.0,3,30,6.0,0.0
2396,77.0,13,15,5.0,0.0
2397,72.0,16,15,5.0,0.0
2398,68.0,7,15,5.0,0.0
2399,53.0,9,20,6.0,0.0
2400,65.0,15,15,5.0,0.0
2401,55.0,1,20,6.0,0.0
2402,68.0,16,15,5.0,0.0
2403,72.0,16,15,5.0,0.0
2404,56.0,3,30,6.0,0.0
2405,68.0,13,15,5.0,0.0
2406,72.0,16,15,5.0,0.0
2407,77.0,16,15,5.0,0.0
2408,53.0,3,30,6.0,0.0
2409,79.0,6,15,5.0,0.0
2410,80.0,16,15,5.0,0.0
2411,77.0,7,180,1.0,0.0
2412,53.0,0,180,3.0,0.0
2413,71.0,16,15,5.0,0.0
2414,36.0,3,30,6.0,0.0
2415,77.0,13,15,5.0,0.0
2416,80.0,16,15,5.0,0.0
2417,80.0,7,15,5.0,0.0
2418,59.0,9,20,6.0,0.0
2419,77.0,15,15,5.0,0.0
2420,60.0,1,20,6.0,0.0
2421,71.0,16,15,5.0,0.0
2422,71.0,16,15,5.0,0.0
2423,62.0,3,30,6.0,0.0
2424,77.0,13,15,5.0,0.0
2425,80.0,16,15,5.0,0.0
2426,80.0,16,15,5.0,0.0
2427,59.0,3,30,6.0,0.0
2428,77.0,6,15,5.0,0.0
2429,71.0,16,15,5.0,0.0
2430,76.0,0,180,1.0,0.0
2431,67.0,7,180,2.0,0.0
2432,60.0,0,180,3.0,0.0
2433,70.0,16,15,5.0,0.0
2434,36.0,3,30,6.0,0.0
2435,76.0,13,15,5.0,0.0
2436,77.0,16,15,5.0,0.0
2437,79.0,7,15,5.0,0.0
2438,60.0,9,20,6.0,0.0
2439,76.0,15,15,5.0,0.0
2440,62.0,1,20,6.0,0.0
2441,70.0,16,15,5.0,0.0
2442,70.0,16,15,5.0,0.0
2443,64.0,3,30,6.0,0.0
2444,76.0,13,15,5.0,0.0
2445,77.0,16,15,5.0,0.0
2446,79.0,16,15,5.0,0.0
2447,60.0,3,30,6.0,0.0
2448,76.0,6,15,5.0,0.0
2449,70.0,16,15,5.0,0.0
2450,72.0,16,15,5.0,0.0
2451,56.0,3,30,6.0,0.0
2452,68.0,13,15,5.0,0.0
2453,67.0,16,15,5.0,0.0
2454,65.0,16,15,5.0,0.0
2455,44.0,3,30,6.0,0.0
2456,64.0,13,15,5.0,0.0
2457,65.0,16,15,5.0,0.0
2458,74.0,16,15,5.0,0.0
2459,46.0,3,30,6.0,0.0
2460,68.0,13,15,5.0,0.0
2461,67.0,16,15,5.0,0.0
2462,65.0,16,15,5.0,0.0
2463,58.0,3,30,6.0,0.0
2464,64.0,13,15,5.0,0.0
2465,65.0,16,15,5.0,0.0
2466,76.0,16,15,5.0,0.0
2467,60.0,3,30,6.0,0.0
2468,68.0,13,15,5.0,0.0
2469,67.0,16,15,5.0,0.0
2470,65.0,16,15,5.0,0.0
2471,48.0,3,30,6.0,0.0
2472,64.0,13,15,5.0,0.0
2473,65.0,16,15,5.0,0.0
2474,77.0,16,15,5.0,0.0
2475,49.0,3,30,6.0,0.0
2476,73.0,13,15,5.0,0.0
2477,72.0,16,15,5.0,0.0
2478,70.0,16,15,5.0,0.0
2479,61.0,3,30,6.0,0.0
2480,69.0,13,15,5.0,0.0
2481,70.0,13,15,5.0,0.0
2482,70.0,0,30,1.0,0.0
2483,64.0,0,30,2.0,0.0
2484,67.0,0,30,3.0,0.0
2485,43.0,0,30,4.0,0.0
2486,84.0,12,15,5.0,0.0
2487,43.0,4,30,6.0,0.0
2488,82.0,12,15,5.0,0.0
2489,84.0,8,15,5.0,0.0
2490,82.0,12,15,5.0,0.0
2491,70.0,2,60,1.0,0.0
2492,73.0,0,20,2.0,0.0
2493,64.0,0,20,3.0,0.0
2494,58.0,0,20,4.0,0.0
2495,84.0,10,15,5.0,0.0
2496,58.0,2,20,6.0,0.0
2497,82.0,12,15,5.0,0.0
2498,72.0,0,20,2.0,0.0
2499,65.0,0,20,3.0,0.0
2500,60.0,0,20,4.0,0.0
2501,84.0,10,15,5.0,0.0
2502,60.0,2,20,6.0,0.0
2503,82.0,12,15,5.0,0.0
2504,70.0,0,30,2.0,0.0
2505,67.0,0,30,3.0,0.0
2506,61.0,2,30,4.0,0.0
2507,84.0,10,15,5.0,0.0
2508,61.0,0,30,6.0,0.0
2509,82.0,12,15,5.0,0.0
2510,77.0,2,20,1.0,0.0
2511,84.0,8,15,5.0,0.0
2512,82.0,12,15,5.0,0.0
2513,73.0,2,20,1.0,0.0
2514,58.0,2,30,4.0,0.0
2515,84.0,10,15,5.0,0.0
2516,58.0,0,30,6.0,0.0
2517,82.0,12,15,5.0,0.0
2518,70.0,17,20,1.0,0.0
2519,84.0,8,15,5.0,0.0
2520,82.0,7,20,5.0,0.0
2521,76.0,9,20,1.0,0.0
2522,67.0,0,30,2.0,0.0
2523,60.0,0,30,3.0,0.0
2524,48.0,0,30,4.0,0.0
2525,48.0,2,30,6.0,0.0
2526,79.0,13,15,5.0,0.0
2527,74.0,1,20,1.0,0.0
2528,77.0,16,15,5.0,0.0
2529,76.0,0,30,1.0,0.0
2530,72.0,3,30,2.0,0.0
2531,67.0,0,30,3.0,0.0
2532,60.0,0,30,4.0,0.0
2533,76.0,16,15,5.0,0.0
2534,60.0,0,30,6.0,0.0
2535,74.0,13,15,5.0,0.0
2536,72.0,16,15,5.0,0.0
2537,71.0,16,15,5.0,0.0
2538,72.0,16,15,5.0,0.0
2539,76.0,16,15,5.0,0.0
2540,79.0,16,15,5.0,0.0
2541,80.0,16,15,5.0,0.0
2542,82.0,13,15,5.0,0.0
2543,65.0,0,30,1.0,0.0
2544,60.0,0,30,2.0,0.0
2545,53.0,0,30,3.0,0.0
2546,41.0,0,30,4.0,0.0
2547,82.0,12,15,5.0,0.0
2548,41.0,4,30,6.0,0.0
2549,80.0,12,15,5.0,0.0
2550,82.0,8,15,5.0,0.0
2551,80.0,12,15,5.0,0.0
2552,65.0,2,60,1.0,0.0
2553,68.0,0,20,2.0,0.0
2554,60.0,0,20,3.0,0.0
2555,53.0,0,20,4.0,0.0
2556,82.0,10,15,5.0,0.0
2557,53.0,2,20,6.0,0.0
2558,80.0,12,15,5.0,0.0
2559,67.0,0,20,2.0,0.0
2560,58.0,0,20,3.0,0.0
2561,55.0,0,20,4.0,0.0
2562,82.0,10,15,5.0,0.0
2563,55.0,2,20,6.0,0.0
2564,80.0,12,15,5.0,0.0
2565,65.0,0,30,2.0,0.0
2566,60.0,0,30,3.0,0.0
2567,56.0,2,30,4.0,0.0
2568,82.0,10,15,5.0,0.0
2569,56.0,0,30,6.0,0.0
2570,80.0,12,15,5.0,0.0
2571,72.0,2,20,1.0,0.0
2572,82.0,8,15,5.0,0.0
2573,80.0,12,15,5.0,0.0
2574,68.0,2,20,1.0,0.0
2575,53.0,2,30,4.0,0.0
2576,82.0,10,15,5.0,0.0
2577,53.0,0,30,6.0,0.0
2578,80.0,12,15,5.0,0.0
2579,65.0,17,20,1.0,0.0
2580,82.0,8,15,5.0,0.0
2581,80.0,7,20,5.0,0.0
2582,73.0,9,20,1.0,0.0
2583,65.0,0,30,2.0,0.0
2584,58.0,0,30,3.0,0.0
2585,46.0,0,30,4.0,0.0
2586,46.0,2,30,6.0,0.0
2587,82.0,13,15,5.0,0.0
2588,72.0,1,20,1.0,0.0
2589,80.0,16,15,5.0,0.0
2590,73.0,0,30,1.0,0.0
2591,58.0,3,30,2.0,0.0
2592,61.0,0,30,3.0,0.0
2593,58.0,0,30,4.0,0.0
2594,78.0,16,15,5.0,0.0
2595,58.0,0,30,6.0,0.0
2596,80.0,13,15,5.0,0.0
2597,77.0,16,15,5.0,0.0
2598,78.0,16,15,5.0,0.0
2599,82.0,16,15,5.0,0.0
2600,84.0,16,15,5.0,0.0
2601,85.0,16,15,5.0,0.0
2602,82.0,16,15,5.0,0.0
2603,78.0,16,15,5.0,0.0
2604,76.0,16,15,5.0,0.0
2605,46.0,3,30,6.0,0.0
2606,79.0,13,15,5.0,0.0
2607,80.0,16,15,5.0,0.0
2608,82.0,16,15,5.0,0.0
2609,55.0,3,30,6.0,0.0
2610,79.0,13,15,5.0,0.0
2611,76.0,16,15,5.0,0.0
2612,72.0,16,15,5.0,0.0
2613,73.0,16,15,5.0,0.0
2614,72.0,16,15,5.0,0.0
2615,70.0,16,15,5.0,0.0
2616,68.0,16,15,5.0,0.0
2617,67.0,45,15,5.0,0.0
2618,65.0,0,30,1.0,0.0
2619,60.0,0,30,2.0,0.0
2620,53.0,0,30,3.0,0.0
2621,44.0,26,30,4.0,0.0
2622,65.0,0,30,5.0,0.0
2623,44.0,0,30,6.0,0.0
2624,65.0,22,60,1.0,0.0
2625,68.0,0,20,2.0,0.0
2626,60.0,0,20,3.0,0.0
2627,53.0,24,20,4.0,0.0
2628,65.0,0,60,5.0,0.0
2629,53.0,0,20,6.0,0.0
2630,67.0,0,20,2.0,0.0
2631,58.0,0,20,3.0,0.0
2632,55.0,24,20,4.0,0.0
2633,55.0,0,20,6.0,0.0
2634,65.0,0,30,2.0,0.0
2635,60.0,0,30,3.0,0.0
2636,56.0,0,30,4.0,0.0
2637,56.0,2,30,6.0,0.0
2638,72.0,24,20,1.0,0.0
2639,72.0,0,20,5.0,0.0
2640,68.0,22,20,1.0,0.0
2641,53.0,0,30,4.0,0.0
2642,68.0,0,20,5.0,0.0
2643,53.0,2,30,6.0,0.0
2644,64.0,0,20,1.0,0.0
2645,64.0,24,20,5.0,0.0
2646,65.0,22,20,1.0,0.0
2647,58.0,0,30,2.0,0.0
2648,53.0,0,30,3.0,0.0
2649,49.0,0,30,4.0,0.0
2650,65.0,0,20,5.0,0.0
2651,49.0,2,30,6.0,0.0
2652,64.0,24,20,1.0,0.0
2653,64.0,0,20,5.0,0.0
2654,65.0,22,60,1.0,0.0
2655,68.0,0,20,2.0,0.0
2656,65.0,0,20,3.0,0.0
2657,53.0,24,20,4.0,0.0
2658,65.0,0,60,5.0,0.0
2659,53.0,0,20,6.0,0.0
2660,67.0,0,20,2.0,0.0
2661,64.0,0,20,3.0,0.0
2662,55.0,24,20,4.0,0.0
2663,55.0,0,20,6.0,0.0
2664,65.0,0,30,2.0,0.0
2665,65.0,0,30,3.0,0.0
2666,56.0,0,30,4.0,0.0
2667,56.0,2,30,6.0,0.0
2668,72.0,24,20,1.0,0.0
2669,72.0,0,20,5.0,0.0
2670,68.0,22,20,1.0,0.0
2671,53.0,0,30,4.0,0.0
2672,68.0,0,20,5.0,0.0
2673,53.0,2,30,6.0,0.0
2674,65.0,0,20,1.0,0.0
2675,65.0,17,20,5.0,0.0
2676,73.0,0,30,1.0,0.0
2677,70.0,3,30,2.0,0.0
2678,65.0,0,30,3.0,0.0
2679,46.0,0,30,4.0,0.0
2680,73.0,16,15,5.0,0.0
2681,46.0,0,30,6.0,0.0
2682,72.0,13,15,5.0,0.0
2683,70.0,16,15,5.0,0.0
2684,68.0,16,15,5.0,0.0
2685,70.0,16,15,5.0,0.0
2686,67.0,16,15,5.0,0.0
2687,76.0,0,30,1.0,0.0
2688,70.0,3,30,2.0,0.0
2689,60.0,0,30,3.0,0.0
2690,48.0,0,30,4.0,0.0
2691,76.0,16,15,5.0,0.0
2692,48.0,0,30,6.0,0.0
2693,73.0,13,15,5.0,0.0
2694,72.0,16,15,5.0,0.0
2695,70.0,16,15,5.0,0.0
2696,72.0,16,15,5.0,0.0
2697,68.0,16,15,5.0,0.0
2698,77.0,0,30,1.0,0.0
2699,70.0,3,30,2.0,0.0
2700,65.0,0,30,3.0,0.0
2701,49.0,0,30,4.0,0.0
2702,77.0,16,15,5.0,0.0
2703,49.0,0,30,6.0,0.0
2704,75.0,13,15,5.0,0.0
2705,73.0,16,15,5.0,0.0
2706,72.0,16,15,5.0,0.0
2707,73.0,16,15,5.0,0.0
2708,70.0,16,15,5.0,0.0
2709,79.0,0,30,1.0,0.0
2710,70.0,3,30,2.0,0.0
2711,60.0,0,30,3.0,0.0
2712,40.0,0,30,4.0,0.0
2713,79.0,16,15,5.0,0.0
2714,40.0,0,30,6.0,0.0
2715,77.0,13,15,5.0,0.0
2716,76.0,16,15,5.0,0.0
2717,73.0,16,15,5.0,0.0
2718,72.0,16,15,5.0,0.0
2719,70.0,16,15,5.0,0.0
2720,68.0,0,30,1.0,0.0
2721,65.0,3,30,2.0,0.0
2722,60.0,0,30,3.0,0.0
2723,41.0,0,30,4.0,0.0
2724,68.0,16,15,5.0,0.0
2725,41.0,0,30,6.0,0.0
2726,67.0,13,15,5.0,0.0
2727,65.0,16,15,5.0,0.0
2728,70.0,0,30,1.0,0.0
2729,64.0,3,30,2.0,0.0
2730,60.0,0,30,3.0,0.0
2731,43.0,0,30,4.0,0.0
2732,70.0,16,15,5.0,0.0
2733,43.0,0,30,6.0,0.0
2734,68.0,13,15,5.0,0.0
2735,67.0,16,15,5.0,0.0
2736,72.0,0,30,1.0,0.0
2737,65.0,3,30,2.0,0.0
2738,60.0,0,30,3.0,0.0
2739,44.0,0,30,4.0,0.0
2740,72.0,16,15,5.0,0.0
2741,44.0,0,30,6.0,0.0
2742,70.0,13,15,5.0,0.0
2743,68.0,16,15,5.0,0.0
2744,73.0,0,30,1.0,0.0
2745,58.0,3,30,2.0,0.0
2746,53.0,0,30,3.0,0.0
2747,46.0,0,30,4.0,0.0
2748,73.0,16,15,5.0,0.0
2749,46.0,0,30,6.0,0.0
2750,70.0,13,15,5.0,0.0
2751,67.0,16,15,5.0,0.0
2752,64.0,0,30,1.0,0.0
2753,55.0,3,30,2.0,0.0
2754,60.0,0,30,3.0,0.0
2755,36.0,0,30,4.0,0.0
2756,64.0,16,15,5.0,0.0
2757,36.0,0,30,6.0,0.0
2758,67.0,13,15,5.0,0.0
2759,70.0,23,15,5.0,0.0
2760,70.0,0,60,1.0,0.0
2761,64.0,0,20,2.0,0.0
2762,55.0,2,30,3.0,0.0
2763,48.0,22,20,4.0,0.0
2764,70.0,16,60,5.0,0.0
2765,48.0,0,20,6.0,0.0
2766,65.0,0,20,2.0,0.0
2767,50.0,0,20,4.0,0.0
2768,50.0,17,20,6.0,0.0
2769,67.0,0,30,2.0,0.0
2770,60.0,0,30,3.0,0.0
2771,52.0,0,30,4.0,0.0
2772,52.0,3,30,6.0,0.0
2773,67.0,13,15,1.0,0.0
2774,67.0,0,15,5.0,0.0
2775,68.0,16,15,1.0,0.0
2776,68.0,0,15,5.0,0.0
2777,70.0,16,15,1.0,0.0
2778,64.0,0,30,2.0,0.0
2779,60.0,0,30,3.0,0.0
2780,48.0,0,30,4.0,0.0
2781,70.0,0,15,5.0,0.0
2782,48.0,3,30,6.0,0.0
2783,68.0,13,15,1.0,0.0
2784,68.0,0,15,5.0,0.0
2785,67.0,16,15,1.0,0.0
2786,67.0,0,15,5.0,0.0
2787,68.0,0,30,1.0,0.0
2788,65.0,0,30,2.0,0.0
2789,60.0,2,30,3.0,0.0
2790,53.0,0,20,4.0,0.0
2791,68.0,7,15,5.0,0.0
2792,53.0,9,20,6.0,0.0
2793,73.0,13,15,5.0,0.0
2794,55.0,1,20,4.0,0.0
2795,55.0,0,20,6.0,0.0
2796,71.0,16,15,5.0,0.0
2797,84.0,0,30,1.0,0.0
2798,65.0,0,30,2.0,0.0
2799,60.0,2,30,3.0,0.0
2800,56.0,0,20,4.0,0.0
2801,72.0,7,15,5.0,0.0
2802,56.0,9,20,6.0,0.0
2803,64.0,13,15,5.0,0.0
2804,58.0,1,20,4.0,0.0
2805,58.0,0,20,6.0,0.0
2806,65.0,16,15,5.0,0.0
2807,72.0,0,30,1.0,0.0
2808,64.0,3,30,2.0,0.0
2809,60.0,0,30,3.0,0.0
2810,60.0,0,30,4.0,0.0
2811,70.0,16,15,5.0,0.0
2812,60.0,0,30,6.0,0.0
2813,68.0,13,15,5.0,0.0
2814,67.0,16,15,5.0,0.0
2815,76.0,3,30,1.0,0.0
2816,72.0,0,60,2.0,0.0
2817,58.0,0,30,3.0,0.0
2818,48.0,0,30,4.0,0.0
2819,68.0,16,15,5.0,0.0
2820,48.0,0,30,6.0,0.0
2821,67.0,13,15,5.0,0.0
2822,65.0,16,15,5.0,0.0
2823,77.0,0,15,1.0,0.0
2824,56.0,0,15,3.0,0.0
2825,53.0,16,15,4.0,0.0
2826,65.0,0,15,5.0,0.0
2827,53.0,0,15,6.0,0.0
2828,72.0,0,15,1.0,0.0
2829,72.0,0,15,2.0,0.0
2830,60.0,0,15,3.0,0.0
2831,48.0,16,15,4.0,0.0
2832,60.0,0,15,5.0,0.0
2833,48.0,0,15,6.0,0.0
2834,70.0,0,15,1.0,0.0
2835,70.0,0,15,2.0,0.0
2836,58.0,0,15,3.0,0.0
2837,46.0,16,15,4.0,0.0
2838,58.0,0,15,5.0,0.0
2839,46.0,0,15,6.0,0.0
2840,68.0,0,15,1.0,0.0
2841,68.0,0,15,2.0,0.0
2842,56.0,0,15,3.0,0.0
2843,44.0,16,15,4.0,0.0
2844,56.0,0,15,5.0,0.0
2845,44.0,0,15,6.0,0.0
2846,70.0,0,15,1.0,0.0
2847,70.0,0,15,2.0,0.0
2848,58.0,0,15,3.0,0.0
2849,46.0,16,15,4.0,0.0
2850,58.0,0,15,5.0,0.0
2851,46.0,0,15,6.0,0.0
2852,72.0,0,15,1.0,0.0
2853,72.0,0,15,2.0,0.0
2854,60.0,0,15,3.0,0.0
2855,48.0,186,15,4.0,0.0
2856,60.0,0,15,5.0,0.0
2857,48.0,0,15,6.0,0.0
2858,65.0,0,180,1.0,0.0
2859,65.0,0,180,2.0,0.0
2860,53.0,0,180,3.0,0.0
2861,41.0,307,180,4.0,0.0
2862,53.0,0,180,5.0,0.0
2863,41.0,0,180,6.0,0.0
2864,56.0,3,90,4.0,0.0
2865,72.0,12,15,5.0,0.0
2866,70.0,65,15,5.0,0.0
2867,72.0,22,90,5.0,0.0
2868,72.0,0,30,1.0,0.0
2869,68.0,0,30,2.0,0.0
2870,63.0,0,30,3.0,0.0
2871,56.0,26,30,6.0,0.0
2872,75.0,0,30,1.0,0.0
2873,72.0,2,30,2.0,0.0
2874,68.0,0,30,3.0,0.0
2875,44.0,0,30,6.0,0.0
2876,73.0,24,20,5.0,0.0
2877,56.0,2,30,4.0,0.0
2878,75.0,22,20,5.0,0.0
2879,56.0,0,30,6.0,0.0
2880,77.0,46,20,5.0,0.0
2881,55.0,3,90,4.0,0.0
2882,72.0,45,30,5.0,0.0
2883,70.0,0,30,1.0,0.0
2884,67.0,0,30,2.0,0.0
2885,63.0,0,30,3.0,0.0
2886,70.0,22,60,5.0,0.0
2887,55.0,26,30,6.0,0.0
2888,75.0,0,30,1.0,0.0
2889,70.0,2,30,2.0,0.0
2890,67.0,0,30,3.0,0.0
2891,43.0,0,30,6.0,0.0
2892,72.0,24,20,5.0,0.0
2893,55.0,2,30,4.0,0.0
2894,73.0,22,20,5.0,0.0
2895,55.0,0,30,6.0,0.0
2896,75.0,46,20,5.0,0.0
2897,53.0,3,90,4.0,0.0
2898,68.0,26,30,5.0,0.0
2899,68.0,0,30,1.0,0.0
2900,65.0,0,30,2.0,0.0
2901,60.0,0,30,3.0,0.0
2902,80.0,19,20,5.0,0.0
2903,53.0,2,30,6.0,0.0
2904,77.0,46,20,5.0,0.0
2905,73.0,0,30,1.0,0.0
2906,68.0,16,30,2.0,0.0
2907,65.0,0,30,3.0,0.0
2908,73.0,12,60,5.0,0.0
2909,41.0,0,30,6.0,0.0
2910,53.0,4,30,4.0,0.0
2911,53.0,0,30,6.0,0.0
2912,75.0,12,15,5.0,0.0
2913,73.0,8,15,5.0,0.0
2914,72.0,22,15,5.0,0.0
2915,51.0,3,90,4.0,0.0
2916,73.0,24,20,5.0,0.0
2917,82.0,24,20,5.0,0.0
2918,73.0,0,30,1.0,0.0
2919,70.0,0,30,2.0,0.0
2920,67.0,0,30,3.0,0.0
2921,79.0,19,20,5.0,0.0
2922,51.0,2,30,6.0,0.0
2923,75.0,9,20,5.0,0.0
2924,82.0,0,30,1.0,0.0
2925,79.0,0,30,2.0,0.0
2926,73.0,0,30,3.0,0.0
2927,75.0,6,15,5.0,0.0
2928,39.0,5,30,6.0,0.0
2929,73.0,6,15,5.0,0.0
2930,75.0,6,15,5.0,0.0
2931,73.0,6,15,5.0,0.0
2932,75.0,6,15,5.0,0.0
2933,73.0,6,15,5.0,0.0
2934,75.0,1,15,5.0,0.0
2935,73.0,21,15,5.0,0.0
2936,51.0,2,30,4.0,0.0
2937,72.0,22,20,5.0,0.0
2938,51.0,0,30,6.0,0.0
2939,73.0,24,20,5.0,0.0
2940,56.0,3,90,4.0,0.0
2941,73.0,24,20,5.0,0.0
2942,72.0,24,20,5.0,0.0
2943,75.0,0,30,1.0,0.0
2944,72.0,0,30,2.0,0.0
2945,68.0,0,30,3.0,0.0
2946,70.0,19,20,5.0,0.0
2947,56.0,2,30,6.0,0.0
2948,68.0,46,20,5.0,0.0
2949,80.0,0,30,1.0,0.0
2950,75.0,0,30,2.0,0.0
2951,72.0,48,30,3.0,0.0
2952,44.0,0,30,6.0,0.0
2953,55.0,93,30,4.0,0.0
2954,55.0,0,30,6.0,0.0
2955,53.0,3,90,4.0,0.0
2956,80.0,14,120,5.0,0.0
2957,80.0,0,30,1.0,0.0
2958,77.0,0,30,2.0,0.0
2959,60.0,0,30,3.0,0.0
2960,53.0,26,30,6.0,0.0
2961,84.0,0,30,1.0,0.0
2962,80.0,4,30,2.0,0.0
2963,65.0,0,30,3.0,0.0
2964,41.0,0,30,6.0,0.0
2965,79.0,8,15,5.0,0.0
2966,77.0,22,15,5.0,0.0
2967,51.0,2,30,4.0,0.0
2968,79.0,22,20,5.0,0.0
2969,51.0,0,30,6.0,0.0
2970,80.0,91,20,5.0,0.0
2971,50.0,3,90,4.0,0.0
2972,70.0,22,120,5.0,0.0
2973,77.0,0,30,1.0,0.0
2974,74.0,0,30,2.0,0.0
2975,70.0,0,30,3.0,0.0
2976,50.0,26,30,6.0,0.0
2977,82.0,0,30,1.0,0.0
2978,77.0,2,30,2.0,0.0
2979,74.0,0,30,3.0,0.0
2980,38.0,0,30,6.0,0.0
2981,74.0,24,20,5.0,0.0
2982,50.0,2,30,4.0,0.0
2983,77.0,22,20,5.0,0.0
2984,50.0,0,30,6.0,0.0
2985,80.0,91,20,5.0,0.0
2986,51.0,3,90,4.0,0.0
2987,79.0,12,120,5.0,0.0
2988,79.0,0,30,1.0,0.0
2989,75.0,0,30,2.0,0.0
2990,58.0,0,30,3.0,0.0
2991,51.0,16,30,6.0,0.0
2992,82.0,0,30,1.0,0.0
2993,79.0,4,30,2.0,0.0
2994,63.0,0,30,3.0,0.0
2995,39.0,0,30,6.0,0.0
2996,77.0,12,15,5.0,0.0
2997,75.0,8,15,5.0,0.0
2998,74.0,22,15,5.0,0.0
2999,50.0,2,30,4.0,0.0
3000,72.0,22,20,5.0,0.0
3001,50.0,0,30,6.0,0.0
3002,70.0,62,20,5.0,0.0
3003,48.0,3,90,4.0,0.0
3004,68.0,12,60,5.0,0.0
3005,75.0,0,30,1.0,0.0
3006,72.0,0,30,2.0,0.0
3007,68.0,0,30,3.0,0.0
3008,48.0,4,30,6.0,0.0
3009,70.0,12,15,5.0,0.0
3010,68.0,5,15,5.0,0.0
3011,67.0,22,15,5.0,0.0
3012,80.0,0,30,1.0,0.0
3013,75.0,2,30,2.0,0.0
3014,72.0,0,30,3.0,0.0
3015,68.0,22,20,5.0,0.0
3016,36.0,0,30,6.0,0.0
3017,72.0,24,20,5.0,0.0
3018,48.0,2,30,4.0,0.0
3019,75.0,22,20,5.0,0.0
3020,48.0,0,30,6.0,0.0
3021,79.0,91,20,5.0,0.0
3022,50.0,3,90,4.0,0.0
3023,77.0,12,120,5.0,0.0
3024,77.0,0,30,1.0,0.0
3025,74.0,0,30,2.0,0.0
3026,70.0,0,30,3.0,0.0
3027,50.0,16,30,6.0,0.0
3028,80.0,0,30,1.0,0.0
3029,77.0,4,30,2.0,0.0
3030,58.0,0,30,3.0,0.0
3031,38.0,0,30,6.0,0.0
3032,75.0,12,15,5.0,0.0
3033,74.0,8,15,5.0,0.0
3034,75.0,12,15,5.0,0.0
3035,50.0,4,30,4.0,0.0
3036,77.0,12,15,5.0,0.0
3037,50.0,0,30,6.0,0.0
3038,74.0,12,15,5.0,0.0
3039,70.0,8,15,5.0,0.0
3040,68.0,22,15,5.0,0.0
3041,51.0,3,90,4.0,0.0
3042,67.0,24,20,5.0,0.0
3043,70.0,24,20,5.0,0.0
3044,80.0,0,30,1.0,0.0
3045,77.0,0,30,2.0,0.0
3046,70.0,0,30,3.0,0.0
3047,74.0,19,20,5.0,0.0
3048,51.0,2,30,6.0,0.0
3049,77.0,46,20,5.0,0.0
3050,79.0,0,30,1.0,0.0
3051,70.0,48,30,2.0,0.0
3052,75.0,0,30,3.0,0.0
3053,75.0,14,120,5.0,0.0
3054,39.0,0,30,6.0,0.0
3055,55.0,26,30,4.0,0.0
3056,55.0,0,30,6.0,0.0
3057,56.0,4,30,4.0,0.0
3058,56.0,0,30,6.0,0.0
3059,77.0,8,15,5.0,0.0
3060,79.0,12,15,5.0,0.0
3061,77.0,0,30,1.0,0.0
3062,72.0,0,30,2.0,0.0
3063,75.0,0,30,3.0,0.0
3064,53.0,0,30,4.0,0.0
3065,80.0,12,15,5.0,0.0
3066,53.0,4,30,6.0,0.0
3067,79.0,12,15,5.0,0.0
3068,80.0,8,15,5.0,0.0
3069,84.0,12,15,5.0,0.0
3070,80.0,0,30,1.0,0.0
3071,70.0,24,30,2.0,0.0
3072,74.0,0,30,3.0,0.0
3073,58.0,0,30,4.0,0.0
3074,74.0,12,15,5.0,0.0
3075,58.0,0,30,6.0,0.0
3076,72.0,20,15,5.0,0.0
3077,74.0,24,30,5.0,0.0
3078,46.0,2,30,4.0,0.0
3079,46.0,0,30,6.0,0.0
3080,75.0,91,20,5.0,0.0
3081,51.0,3,90,4.0,0.0
3082,75.0,0,90,5.0,0.0
3083,79.0,48,30,1.0,0.0
3084,70.0,0,30,2.0,0.0
3085,63.0,0,30,3.0,0.0
3086,51.0,0,30,6.0,0.0
3087,82.0,0,30,1.0,0.0
3088,75.0,0,30,2.0,0.0
3089,67.0,48,30,3.0,0.0
3090,39.0,0,30,6.0,0.0
3091,49.0,93,30,4.0,0.0
3092,49.0,0,30,6.0,0.0
3093,48.0,3,90,4.0,0.0
3094,78.0,14,120,5.0,0.0
3095,75.0,0,30,1.0,0.0
3096,78.0,0,30,2.0,0.0
3097,60.0,0,30,3.0,0.0
3098,48.0,26,30,6.0,0.0
3099,69.0,0,30,1.0,0.0
3100,72.0,4,30,2.0,0.0
3101,63.0,0,30,3.0,0.0
3102,36.0,0,30,6.0,0.0
3103,77.0,8,15,5.0,0.0
3104,75.0,12,15,5.0,0.0
3105,51.0,2,30,4.0,0.0
3106,73.0,12,15,5.0,0.0
3107,51.0,0,30,6.0,0.0
3108,72.0,20,15,5.0,0.0
3109,70.0,91,20,5.0,0.0
3110,53.0,3,90,4.0,0.0
3111,69.0,22,120,5.0,0.0
3112,72.0,0,30,1.0,0.0
3113,69.0,0,30,2.0,0.0
3114,63.0,0,30,3.0,0.0
3115,53.0,26,30,6.0,0.0
3116,65.0,0,30,1.0,0.0
3117,72.0,2,30,2.0,0.0
3118,57.0,0,30,3.0,0.0
3119,41.0,0,30,6.0,0.0
3120,70.0,24,20,5.0,0.0
3121,54.0,2,30,4.0,0.0
3122,72.0,22,20,5.0,0.0
3123,54.0,0,30,6.0,0.0
3124,73.0,24,20,5.0,0.0
3125,45.0,3,90,4.0,0.0
3126,75.0,24,20,5.0,0.0
3127,77.0,24,20,5.0,0.0
3128,63.0,0,30,1.0,0.0
3129,72.0,0,30,2.0,0.0
3130,60.0,0,30,3.0,0.0
3131,78.0,19,20,5.0,0.0
3132,45.0,2,30,6.0,0.0
3133,81.0,24,20,5.0,0.0
3134,69.0,0,30,1.0,0.0
3135,65.0,16,30,2.0,0.0
3136,63.0,0,30,3.0,0.0
3137,84.0,22,20,5.0,0.0
3138,33.0,0,30,6.0,0.0
3139,75.0,12,30,5.0,0.0
3140,41.0,4,30,4.0,0.0
3141,41.0,0,30,6.0,0.0
3142,77.0,12,15,5.0,0.0
3143,78.0,8,15,5.0,0.0
3144,77.0,22,15,5.0,0.0
3145,46.0,3,90,4.0,0.0
3146,75.0,24,20,5.0,0.0
3147,73.0,9,20,5.0,0.0
3148,70.0,0,30,1.0,0.0
3149,65.0,0,30,2.0,0.0
3150,61.0,0,30,3.0,0.0
3151,72.0,6,15,5.0,0.0
3152,46.0,2,30,6.0,0.0
3153,73.0,11,15,5.0,0.0
3154,72.0,17,15,5.0,0.0
3155,70.0,46,20,5.0,0.0
3156,73.0,0,30,1.0,0.0
3157,70.0,26,30,2.0,0.0
3158,65.0,0,30,3.0,0.0
3159,85.0,22,60,5.0,0.0
3160,58.0,0,30,6.0,0.0
3161,58.0,2,30,4.0,0.0
3162,34.0,0,30,6.0,0.0
3163,77.0,9,20,5.0,0.0
3164,56.0,2,90,4.0,0.0
3165,78.0,6,15,5.0,0.0
3166,77.0,11,15,5.0,0.0
3167,75.0,22,15,5.0,0.0
3168,77.0,33,20,5.0,0.0
3169,73.0,0,30,1.0,0.0
3170,70.0,5,30,2.0,0.0
3171,65.0,0,30,3.0,0.0
3172,85.0,6,30,5.0,0.0
3173,56.0,0,30,6.0,0.0
3174,84.0,4,15,5.0,0.0
3175,82.0,1,15,5.0,0.0
3176,81.0,21,15,5.0,0.0
3177,77.0,0,30,1.0,0.0
3178,73.0,26,30,2.0,0.0
3179,70.0,0,30,3.0,0.0
3180,81.0,22,20,5.0,0.0
3181,44.0,0,30,6.0,0.0
3182,82.0,22,30,5.0,0.0
3183,56.0,2,30,4.0,0.0
3184,56.0,0,30,6.0,0.0
3185,77.0,14,20,5.0,0.0
3186,54.0,3,90,4.0,0.0
3187,77.0,12,15,5.0,0.0
3188,74.0,36,15,5.0,0.0
3189,75.0,12,30,5.0,0.0
3190,75.0,0,30,1.0,0.0
3191,75.0,0,30,2.0,0.0
3192,58.0,0,30,3.0,0.0
3193,54.0,4,30,6.0,0.0
3194,77.0,7,15,5.0,0.0
3195,78.0,6,15,5.0,0.0
3196,77.0,4,15,5.0,0.0
3197,75.0,44,15,5.0,0.0
3198,81.0,0,30,1.0,0.0
3199,72.0,16,30,2.0,0.0
3200,63.0,0,30,3.0,0.0
3201,84.0,12,60,5.0,0.0
3202,42.0,0,30,6.0,0.0
3203,54.0,4,30,4.0,0.0
3204,54.0,0,30,6.0,0.0
3205,75.0,12,15,5.0,0.0
3206,73.0,8,15,5.0,0.0
3207,72.0,22,15,5.0,0.0
3208,53.0,2,30,4.0,0.0
3209,73.0,22,20,5.0,0.0
3210,53.0,0,30,6.0,0.0
3211,77.0,24,20,5.0,0.0
3212,82.0,0,30,1.0,0.0
3213,78.0,0,30,2.0,0.0
3214,61.0,0,30,3.0,0.0
3215,51.0,0,30,4.0,0.0
3216,82.0,22,20,5.0,0.0
3217,51.0,2,30,6.0,0.0
3218,84.0,46,20,5.0,0.0
3219,81.0,0,30,1.0,0.0
3220,77.0,0,30,2.0,0.0
3221,60.0,0,30,3.0,0.0
3222,53.0,26,30,4.0,0.0
3223,84.0,22,60,5.0,0.0
3224,53.0,0,30,6.0,0.0
3225,41.0,2,30,4.0,0.0
3226,41.0,0,30,6.0,0.0
3227,82.0,91,20,5.0,0.0
3228,46.0,3,90,4.0,0.0
3229,82.0,0,90,5.0,0.0
3230,77.0,48,30,1.0,0.0
3231,73.0,0,30,2.0,0.0
3232,58.0,0,30,3.0,0.0
3233,46.0,0,30,6.0,0.0
3234,82.0,0,30,1.0,0.0
3235,77.0,0,30,2.0,0.0
3236,61.0,48,30,3.0,0.0
3237,34.0,0,30,6.0,0.0
3238,56.0,93,30,4.0,0.0
3239,56.0,0,30,6.0,0.0
3240,55.0,3,90,4.0,0.0
3241,73.0,12,120,5.0,0.0
3242,70.0,0,30,1.0,0.0
3243,75.0,0,30,2.0,0.0
3244,67.0,0,30,3.0,0.0
3245,55.0,16,30,6.0,0.0
3246,75.0,0,30,1.0,0.0
3247,79.0,4,30,2.0,0.0
3248,70.0,0,30,3.0,0.0
3249,43.0,0,30,6.0,0.0
3250,75.0,12,15,5.0,0.0
3251,73.0,8,15,5.0,0.0
3252,72.0,22,15,5.0,0.0
3253,51.0,2,30,4.0,0.0
3254,73.0,22,20,5.0,0.0
3255,51.0,0,30,6.0,0.0
3256,82.0,46,20,5.0,0.0
3257,56.0,3,90,4.0,0.0
3258,75.0,45,30,5.0,0.0
3259,75.0,0,30,1.0,0.0
3260,72.0,0,30,2.0,0.0
3261,68.0,0,30,3.0,0.0
3262,73.0,22,60,5.0,0.0
3263,56.0,26,30,6.0,0.0
3264,81.0,0,30,1.0,0.0
3265,75.0,2,30,2.0,0.0
3266,72.0,0,30,3.0,0.0
3267,44.0,0,30,6.0,0.0
3268,68.0,24,20,5.0,0.0
3269,54.0,2,30,4.0,0.0
3270,70.0,22,20,5.0,0.0
3271,54.0,0,30,6.0,0.0
3272,72.0,14,20,5.0,0.0
3273,53.0,3,90,4.0,0.0
3274,73.0,12,15,5.0,0.0
3275,75.0,12,15,5.0,0.0
3276,73.0,12,15,5.0,0.0
3277,72.0,12,15,5.0,0.0
3278,81.0,0,30,1.0,0.0
3279,73.0,0,30,2.0,0.0
3280,68.0,0,30,3.0,0.0
3281,73.0,12,15,5.0,0.0
3282,53.0,4,30,6.0,0.0
3283,75.0,12,15,5.0,0.0
3284,77.0,5,15,5.0,0.0
3285,78.0,22,15,5.0,0.0
3286,84.0,0,30,1.0,0.0
3287,75.0,4,30,2.0,0.0
3288,66.0,0,30,3.0,0.0
3289,80.0,14,20,5.0,0.0
3290,41.0,0,30,6.0,0.0
3291,78.0,8,15,5.0,0.0
3292,77.0,12,15,5.0,0.0
3293,56.0,48,30,4.0,0.0
3294,78.0,12,15,5.0,0.0
3295,56.0,0,30,6.0,0.0
3296,72.0,20,15,5.0,0.0
3297,78.0,45,60,5.0,0.0
3298,49.0,3,90,4.0,0.0
3299,68.0,0,30,1.0,0.0
3300,77.0,0,30,2.0,0.0
3301,61.0,0,30,3.0,0.0
3302,77.0,48,30,5.0,0.0
3303,49.0,0,30,6.0,0.0
3304,73.0,0,30,1.0,0.0
3305,80.0,2,30,2.0,0.0
3306,65.0,0,30,3.0,0.0
3307,37.0,0,30,6.0,0.0
3308,70.0,9,20,5.0,0.0
3309,48.0,2,30,4.0,0.0
3310,70.0,6,15,5.0,0.0
3311,48.0,0,30,6.0,0.0
3312,72.0,6,15,5.0,0.0
3313,73.0,6,15,5.0,0.0
3314,72.0,19,15,5.0,0.0
3315,73.0,17,20,5.0,0.0
3316,46.0,3,90,4.0,0.0
3317,67.0,16,15,5.0,0.0
3318,65.0,16,15,5.0,0.0
3319,67.0,16,15,5.0,0.0
3320,85.0,0,30,1.0,0.0
3321,82.0,0,30,2.0,0.0
3322,65.0,0,30,3.0,0.0
3323,68.0,16,15,5.0,0.0
3324,46.0,3,30,6.0,0.0
3325,67.0,10,15,5.0,0.0
3326,68.0,16,15,5.0,0.0
3327,79.0,0,30,1.0,0.0
3328,73.0,3,30,2.0,0.0
3329,70.0,0,30,3.0,0.0
3330,70.0,16,15,5.0,0.0
3331,34.0,0,30,6.0,0.0
3332,72.0,13,15,5.0,0.0
3333,70.0,16,15,5.0,0.0
3334,44.0,3,30,4.0,0.0
3335,68.0,16,15,5.0,0.0
3336,44.0,0,30,6.0,0.0
3337,70.0,13,15,5.0,0.0
3338,72.0,16,15,5.0,0.0
3339,43.0,3,90,4.0,0.0
3340,73.0,16,15,5.0,0.0
3341,72.0,16,15,5.0,0.0
3342,73.0,42,15,5.0,0.0
3343,82.0,0,30,1.0,0.0
3344,73.0,0,30,2.0,0.0
3345,63.0,0,30,3.0,0.0
3346,82.0,12,60,5.0,0.0
3347,43.0,16,30,6.0,0.0
3348,73.0,0,30,1.0,0.0
3349,70.0,4,30,2.0,0.0
3350,67.0,0,30,3.0,0.0
3351,31.0,0,30,6.0,0.0
3352,72.0,12,15,5.0,0.0
3353,73.0,8,15,5.0,0.0
3354,75.0,12,15,5.0,0.0
3355,39.0,2,30,4.0,0.0
3356,73.0,12,15,5.0,0.0
3357,39.0,0,30,6.0,0.0
3358,72.0,20,15,5.0,0.0
3359,70.0,24,20,5.0,0.0
3360,44.0,2,30,4.0,0.0
3361,72.0,22,20,5.0,0.0
3362,44.0,0,30,6.0,0.0
3363,75.0,24,20,5.0,0.0
3364,75.0,0,30,1.0,0.0
3365,72.0,0,30,2.0,0.0
3366,68.0,0,30,3.0,0.0
3367,48.0,0,30,4.0,0.0
3368,80.0,22,20,5.0,0.0
3369,48.0,2,30,6.0,0.0
3370,77.0,24,20,5.0,0.0
3371,80.0,0,30,1.0,0.0
3372,72.0,0,30,2.0,0.0
3373,65.0,0,30,3.0,0.0
3374,53.0,0,30,4.0,0.0
3375,75.0,22,20,5.0,0.0
3376,53.0,2,30,6.0,0.0
3377,73.0,24,20,5.0,0.0
3378,49.0,2,30,4.0,0.0
3379,79.0,22,20,5.0,0.0
3380,49.0,0,30,6.0,0.0
3381,80.0,14,20,5.0,0.0
3382,51.0,3,90,4.0,0.0
3383,72.0,12,15,5.0,0.0
3384,73.0,22,15,5.0,0.0
3385,72.0,43,20,5.0,0.0
3386,74.0,0,30,1.0,0.0
3387,68.0,0,30,2.0,0.0
3388,65.0,0,30,3.0,0.0
3389,70.0,48,30,5.0,0.0
3390,51.0,0,30,6.0,0.0
3391,75.0,0,30,1.0,0.0
3392,67.0,0,30,2.0,0.0
3393,58.0,48,30,3.0,0.0
3394,39.0,0,30,6.0,0.0
3395,55.0,93,30,4.0,0.0
3396,55.0,0,30,6.0,0.0
3397,56.0,3,90,4.0,0.0
3398,72.0,12,120,5.0,0.0
3399,72.0,0,30,1.0,0.0
3400,68.0,0,30,2.0,0.0
3401,63.0,0,30,3.0,0.0
3402,56.0,16,30,6.0,0.0
3403,75.0,0,30,1.0,0.0
3404,72.0,4,30,2.0,0.0
3405,68.0,0,30,3.0,0.0
3406,44.0,0,30,6.0,0.0
3407,70.0,12,15,5.0,0.0
3408,73.0,8,15,5.0,0.0
3409,72.0,12,15,5.0,0.0
3410,56.0,2,30,4.0,0.0
3411,75.0,12,15,5.0,0.0
3412,56.0,0,30,6.0,0.0
3413,73.0,20,15,5.0,0.0
3414,77.0,24,20,5.0,0.0
3415,55.0,3,90,4.0,0.0
3416,77.0,67,20,5.0,0.0
3417,70.0,12,90,5.0,0.0
3418,70.0,0,30,1.0,0.0
3419,67.0,0,30,2.0,0.0
3420,63.0,0,30,3.0,0.0
3421,55.0,16,30,6.0,0.0
3422,75.0,0,30,1.0,0.0
3423,70.0,4,30,2.0,0.0
3424,67.0,0,30,3.0,0.0
3425,43.0,0,30,6.0,0.0
3426,68.0,12,15,5.0,0.0
3427,72.0,8,15,5.0,0.0
3428,70.0,12,15,5.0,0.0
3429,55.0,2,30,4.0,0.0
3430,73.0,12,15,5.0,0.0
3431,55.0,0,30,6.0,0.0
3432,72.0,20,15,5.0,0.0
3433,75.0,24,20,5.0,0.0
3434,53.0,3,90,4.0,0.0
3435,75.0,24,20,5.0,0.0
3436,68.0,24,20,5.0,0.0
3437,68.0,0,30,1.0,0.0
3438,65.0,0,30,2.0,0.0
3439,60.0,0,30,3.0,0.0
3440,80.0,19,20,5.0,0.0
3441,53.0,2,30,6.0,0.0
3442,77.0,46,20,5.0,0.0
3443,73.0,0,30,1.0,0.0
3444,68.0,0,30,2.0,0.0
3445,65.0,0,30,3.0,0.0
3446,75.0,48,30,5.0,0.0
3447,41.0,0,30,6.0,0.0
3448,53.0,26,30,4.0,0.0
3449,73.0,24,60,5.0,0.0
3450,53.0,0,30,6.0,0.0
3451,51.0,3,90,4.0,0.0
3452,82.0,24,20,5.0,0.0
3453,73.0,0,30,1.0,0.0
3454,70.0,0,30,2.0,0.0
3455,63.0,0,30,3.0,0.0
3456,79.0,19,20,5.0,0.0
3457,51.0,2,30,6.0,0.0
3458,75.0,24,20,5.0,0.0
3459,82.0,0,30,1.0,0.0
3460,79.0,0,30,2.0,0.0
3461,61.0,5,30,3.0,0.0
3462,75.0,9,20,5.0,0.0
3463,39.0,0,30,6.0,0.0
3464,75.0,6,15,5.0,0.0
3465,73.0,6,15,5.0,0.0
3466,75.0,1,15,5.0,0.0
3467,73.0,21,15,5.0,0.0
3468,51.0,2,30,4.0,0.0
3469,72.0,22,20,5.0,0.0
3470,51.0,0,30,6.0,0.0
3471,73.0,14,20,5.0,0.0
3472,56.0,3,90,4.0,0.0
3473,73.0,12,15,5.0,0.0
3474,72.0,12,15,5.0,0.0
3475,73.0,12,15,5.0,0.0
3476,75.0,12,15,5.0,0.0
3477,75.0,0,30,1.0,0.0
3478,72.0,0,30,2.0,0.0
3479,68.0,0,30,3.0,0.0
3480,73.0,12,15,5.0,0.0
3481,56.0,4,30,6.0,0.0
3482,72.0,12,15,5.0,0.0
3483,70.0,5,15,5.0,0.0
3484,68.0,44,15,5.0,0.0
3485,84.0,0,30,1.0,0.0
3486,80.0,0,30,2.0,0.0
3487,63.0,0,30,3.0,0.0
3488,68.0,11,30,5.0,0.0
3489,44.0,0,30,6.0,0.0
3490,44.0,2,30,4.0,0.0
3491,66.0,6,15,5.0,0.0
3492,56.0,0,30,6.0,0.0
3493,68.0,6,15,5.0,0.0
3494,66.0,6,15,5.0,0.0
3495,65.0,19,15,5.0,0.0
3496,66.0,24,20,5.0,0.0
3497,49.0,3,90,4.0,0.0
3498,65.0,24,20,5.0,0.0
3499,67.0,14,20,5.0,0.0
3500,82.0,0,30,1.0,0.0
3501,70.0,0,30,2.0,0.0
3502,63.0,0,30,3.0,0.0
3503,68.0,12,15,5.0,0.0
3504,49.0,2,30,6.0,0.0
3505,67.0,17,15,5.0,0.0
3506,68.0,46,20,5.0,0.0
3507,77.0,0,30,1.0,0.0
3508,71.0,48,30,2.0,0.0
3509,68.0,0,30,3.0,0.0
3510,68.0,12,120,5.0,0.0
3511,38.0,0,30,6.0,0.0
3512,50.0,16,30,4.0,0.0
3513,50.0,0,30,6.0,0.0
3514,51.0,4,30,4.0,0.0
3515,51.0,0,30,6.0,0.0
3516,70.0,12,15,5.0,0.0
3517,68.0,8,15,5.0,0.0
3518,67.0,12,15,5.0,0.0
3519,77.0,0,30,1.0,0.0
3520,70.0,2,30,2.0,0.0
3521,65.0,0,30,3.0,0.0
3522,49.0,0,30,4.0,0.0
3523,68.0,12,15,5.0,0.0
3524,49.0,0,30,6.0,0.0
3525,73.0,20,15,5.0,0.0
3526,70.0,9,20,5.0,0.0
3527,70.0,0,30,1.0,0.0
3528,67.0,0,30,2.0,0.0
3529,63.0,0,30,3.0,0.0
3530,51.0,5,30,4.0,0.0
3531,68.0,6,15,5.0,0.0
3532,51.0,0,30,6.0,0.0
3533,67.0,6,15,5.0,0.0
3534,68.0,6,15,5.0,0.0
3535,67.0,6,15,5.0,0.0
3536,68.0,6,15,5.0,0.0
3537,67.0,6,15,5.0,0.0
3538,68.0,1,15,5.0,0.0
3539,67.0,6,15,5.0,0.0
3540,39.0,2,30,4.0,0.0
3541,68.0,6,15,5.0,0.0
3542,39.0,0,30,6.0,0.0
3543,67.0,6,15,5.0,0.0
3544,68.0,6,15,5.0,0.0
3545,67.0,19,15,5.0,0.0
3546,68.0,24,20,5.0,0.0
3547,44.0,3,90,4.0,0.0
3548,68.0,24,20,5.0,0.0
3549,72.0,14,20,5.0,0.0
3550,71.0,0,30,1.0,0.0
3551,68.0,0,30,2.0,0.0
3552,65.0,0,30,3.0,0.0
3553,77.0,12,15,5.0,0.0
3554,44.0,2,30,6.0,0.0
3555,74.0,17,15,5.0,0.0
3556,75.0,46,20,5.0,0.0
3557,70.0,0,30,1.0,0.0
3558,63.0,26,30,2.0,0.0
3559,67.0,0,30,3.0,0.0
3560,75.0,22,60,5.0,0.0
3561,43.0,0,30,6.0,0.0
3562,43.0,26,30,4.0,0.0
3563,55.0,0,30,6.0,0.0
3564,75.0,14,30,5.0,0.0
3565,41.0,3,90,4.0,0.0
3566,77.0,12,15,5.0,0.0
3567,79.0,12,15,5.0,0.0
3568,72.0,0,30,1.0,0.0
3569,68.0,0,30,2.0,0.0
3570,60.0,0,30,3.0,0.0
3571,80.0,12,15,5.0,0.0
3572,53.0,2,30,6.0,0.0
3573,77.0,17,15,5.0,0.0
3574,72.0,38,20,5.0,0.0
3575,80.0,0,30,1.0,0.0
3576,61.0,4,30,2.0,0.0
3577,65.0,0,30,3.0,0.0
3578,73.0,8,30,5.0,0.0
3579,41.0,0,30,6.0,0.0
3580,72.0,12,15,5.0,0.0
3581,53.0,2,30,4.0,0.0
3582,70.0,12,15,5.0,0.0
3583,53.0,0,30,6.0,0.0
3584,72.0,20,15,5.0,0.0
3585,73.0,14,20,5.0,0.0
3586,51.0,3,90,4.0,0.0
3587,68.0,24,15,5.0,0.0
3588,67.0,7,20,5.0,0.0
3589,68.0,6,15,5.0,0.0
3590,70.0,6,15,5.0,0.0
3591,79.0,0,30,1.0,0.0
3592,67.0,0,30,2.0,0.0
3593,58.0,0,30,3.0,0.0
3594,70.0,6,15,5.0,0.0
3595,51.0,2,30,6.0,0.0
3596,72.0,6,15,5.0,0.0
3597,70.0,6,15,5.0,0.0
3598,68.0,16,15,5.0,0.0
3599,70.0,46,20,5.0,0.0
3600,72.0,0,30,1.0,0.0
3601,63.0,11,30,2.0,0.0
3602,55.0,0,30,3.0,0.0
3603,72.0,6,60,5.0,0.0
3604,39.0,0,30,6.0,0.0
3605,39.0,4,30,4.0,0.0
3606,51.0,0,30,6.0,0.0
3607,70.0,6,15,5.0,0.0
3608,68.0,6,15,5.0,0.0
3609,67.0,6,15,5.0,0.0
3610,68.0,6,15,5.0,0.0
3611,72.0,7,15,5.0,0.0
3612,64.0,22,15,5.0,0.0
3613,37.0,7,180,4.0,0.0
3614,65.0,38,20,5.0,0.0
3615,77.0,7,30,5.0,0.0
3616,68.0,4,30,1.0,0.0
3617,65.0,0,30,2.0,0.0
3618,61.0,0,30,3.0,0.0
3619,49.0,0,30,6.0,0.0
3620,79.0,6,15,5.0,0.0
3621,77.0,11,15,5.0,0.0
3622,76.0,8,15,5.0,0.0
3623,77.0,44,15,5.0,0.0
3624,65.0,0,30,1.0,0.0
3625,77.0,0,30,2.0,0.0
3626,56.0,0,30,3.0,0.0
3627,72.0,40,30,5.0,0.0
3628,37.0,0,30,6.0,0.0
3629,77.0,26,90,1.0,0.0
3630,70.0,0,30,2.0,0.0
3631,53.0,0,30,3.0,0.0
3632,70.0,1,30,5.0,0.0
3633,49.0,4,30,6.0,0.0
3634,72.0,44,15,5.0,0.0
3635,68.0,0,30,2.0,0.0
3636,60.0,0,360,3.0,0.0
3637,36.0,0,360,4.0,0.0
3638,72.0,417,360,5.0,0.0
3639,48.0,0,360,6.0,0.0
3640,79.0,24,20,1.0,0.0
3641,70.0,0,20,2.0,0.0
3642,77.0,24,20,1.0,0.0
3643,68.0,0,20,2.0,0.0
3644,77.0,24,20,1.0,0.0
3645,68.0,0,20,2.0,0.0
3646,76.0,24,20,1.0,0.0
3647,67.0,0,20,2.0,0.0
3648,76.0,24,20,1.0,0.0
3649,67.0,0,20,2.0,0.0
3650,74.0,183,20,1.0,0.0
3651,65.0,0,20,2.0,0.0
3652,76.0,0,180,1.0,0.0
3653,67.0,0,180,2.0,0.0
3654,65.0,22,20,1.0,0.0
3655,60.0,0,30,2.0,0.0
3656,56.0,0,30,3.0,0.0
3657,53.0,0,30,4.0,0.0
3658,65.0,0,20,5.0,0.0
3659,53.0,2,30,6.0,0.0
3660,67.0,24,20,1.0,0.0
3661,67.0,0,20,5.0,0.0
3662,68.0,22,20,1.0,0.0
3663,65.0,0,30,2.0,0.0
3664,60.0,0,30,3.0,0.0
3665,41.0,0,30,4.0,0.0
3666,68.0,0,20,5.0,0.0
3667,41.0,2,30,6.0,0.0
3668,70.0,46,20,1.0,0.0
3669,70.0,0,20,5.0,0.0
3670,72.0,0,30,1.0,0.0
3671,68.0,26,30,2.0,0.0
3672,65.0,0,30,3.0,0.0
3673,53.0,0,60,4.0,0.0
3674,72.0,0,30,5.0,0.0
3675,53.0,22,60,6.0,0.0
3676,68.0,0,30,1.0,0.0
3677,65.0,0,30,2.0,0.0
3678,60.0,0,30,3.0,0.0
3679,68.0,2,30,5.0,0.0
3680,55.0,24,20,4.0,0.0
3681,55.0,0,20,6.0,0.0
3682,72.0,0,30,1.0,0.0
3683,65.0,2,30,2.0,0.0
3684,60.0,0,30,3.0,0.0
3685,56.0,22,20,4.0,0.0
3686,72.0,0,30,5.0,0.0
3687,56.0,0,20,6.0,0.0
3688,58.0,24,20,4.0,0.0
3689,58.0,0,20,6.0,0.0
3690,76.0,4,90,1.0,0.0
3691,70.0,0,90,2.0,0.0
3692,60.0,2,30,3.0,0.0
3693,55.0,22,20,4.0,0.0
3694,76.0,0,90,5.0,0.0
3695,55.0,0,20,6.0,0.0
3696,56.0,0,20,4.0,0.0
3697,56.0,14,20,6.0,0.0
3698,60.0,0,90,3.0,0.0
3699,53.0,3,90,4.0,0.0
3700,55.0,12,15,6.0,0.0
3701,53.0,12,15,6.0,0.0
3702,55.0,8,15,6.0,0.0
3703,53.0,12,15,6.0,0.0
3704,77.0,4,30,1.0,0.0
3705,68.0,0,30,2.0,0.0
3706,77.0,0,30,5.0,0.0
3707,55.0,12,15,6.0,0.0
3708,53.0,12,15,6.0,0.0
3709,55.0,5,15,6.0,0.0
3710,53.0,44,15,6.0,0.0
3711,72.0,0,30,1.0,0.0
3712,67.0,0,30,2.0,0.0
3713,60.0,0,30,3.0,0.0
3714,52.0,16,30,4.0,0.0
3715,72.0,0,30,5.0,0.0
3716,52.0,0,30,6.0,0.0
3717,70.0,10,15,1.0,0.0
3718,67.0,0,15,2.0,0.0
3719,60.0,5,90,3.0,0.0
3720,53.0,0,20,4.0,0.0
3721,70.0,0,15,5.0,0.0
3722,53.0,2,20,6.0,0.0
3723,68.0,0,15,1.0,0.0
3724,65.0,0,15,2.0,0.0
3725,68.0,12,15,5.0,0.0
3726,70.0,10,15,1.0,0.0
3727,67.0,0,15,2.0,0.0
3728,55.0,2,20,4.0,0.0
3729,70.0,0,15,5.0,0.0
3730,55.0,0,20,6.0,0.0
3731,68.0,0,15,1.0,0.0
3732,65.0,0,15,2.0,0.0
3733,68.0,12,15,5.0,0.0
3734,70.0,10,15,1.0,0.0
3735,67.0,0,15,2.0,0.0
3736,56.0,2,20,4.0,0.0
3737,70.0,0,15,5.0,0.0
3738,56.0,0,20,6.0,0.0
3739,68.0,0,15,1.0,0.0
3740,65.0,0,15,2.0,0.0
3741,68.0,12,15,5.0,0.0
3742,70.0,5,15,1.0,0.0
3743,67.0,0,15,2.0,0.0
3744,58.0,0,20,4.0,0.0
3745,70.0,0,15,5.0,0.0
3746,58.0,2,20,6.0,0.0
3747,68.0,0,15,1.0,0.0
3748,65.0,0,15,2.0,0.0
3749,68.0,22,15,5.0,0.0
3750,67.0,0,30,1.0,0.0
3751,64.0,2,30,2.0,0.0
3752,60.0,0,30,3.0,0.0
3753,60.0,22,20,4.0,0.0
3754,67.0,0,30,5.0,0.0
3755,60.0,0,20,6.0,0.0
3756,58.0,24,20,4.0,0.0
3757,58.0,0,20,6.0,0.0
3758,65.0,22,20,1.0,0.0
3759,60.0,0,30,2.0,0.0
3760,60.0,0,30,3.0,0.0
3761,56.0,0,30,4.0,0.0
3762,65.0,0,20,5.0,0.0
3763,56.0,2,30,6.0,0.0
3764,67.0,24,20,1.0,0.0
3765,67.0,0,20,5.0,0.0
3766,68.0,22,20,1.0,0.0
3767,65.0,0,30,2.0,0.0
3768,60.0,0,30,3.0,0.0
3769,53.0,0,30,4.0,0.0
3770,68.0,0,20,5.0,0.0
3771,53.0,2,30,6.0,0.0
3772,70.0,46,20,1.0,0.0
3773,70.0,0,20,5.0,0.0
3774,72.0,0,30,1.0,0.0
3775,67.0,0,30,2.0,0.0
3776,60.0,0,30,3.0,0.0
3777,52.0,26,30,4.0,0.0
3778,72.0,0,30,5.0,0.0
3779,52.0,0,30,6.0,0.0
3780,68.0,0,30,1.0,0.0
3781,65.0,2,30,2.0,0.0
3782,60.0,0,30,3.0,0.0
3783,53.0,22,20,4.0,0.0
3784,68.0,0,30,5.0,0.0
3785,53.0,0,20,6.0,0.0
3786,55.0,24,20,4.0,0.0
3787,55.0,0,20,6.0,0.0
3788,72.0,0,30,1.0,0.0
3789,65.0,2,30,2.0,0.0
3790,60.0,0,30,3.0,0.0
3791,56.0,22,20,4.0,0.0
3792,72.0,0,30,5.0,0.0
3793,56.0,0,20,6.0,0.0
3794,55.0,24,20,4.0,0.0
3795,55.0,0,20,6.0,0.0
3796,77.0,0,30,1.0,0.0
3797,72.0,2,30,2.0,0.0
3798,68.0,0,30,3.0,0.0
3799,56.0,22,20,4.0,0.0
3800,77.0,0,30,5.0,0.0
3801,56.0,0,20,6.0,0.0
3802,53.0,46,20,4.0,0.0
3803,53.0,0,20,6.0,0.0
3804,79.0,0,30,1.0,0.0
3805,72.0,0,30,2.0,0.0
3806,64.0,0,30,3.0,0.0
3807,60.0,48,30,4.0,0.0
3808,79.0,0,30,5.0,0.0
3809,60.0,0,30,6.0,0.0
3810,72.0,0,30,1.0,0.0
3811,64.0,0,30,2.0,0.0
3812,67.0,0,30,3.0,0.0
3813,48.0,96,30,4.0,0.0
3814,72.0,0,30,5.0,0.0
3815,48.0,0,30,6.0,0.0
3816,67.0,48,30,1.0,0.0
3817,64.0,0,30,2.0,0.0
3818,60.0,0,30,3.0,0.0
3819,60.0,74,30,1.0,0.0
3820,55.0,0,30,2.0,0.0
3821,52.0,0,30,3.0,0.0
3822,80.0,22,20,1.0,0.0
3823,65.0,0,30,2.0,0.0
3824,60.0,0,30,3.0,0.0
3825,53.0,0,30,4.0,0.0
3826,80.0,0,20,5.0,0.0
3827,53.0,2,30,6.0,0.0
3828,79.0,24,20,1.0,0.0
3829,79.0,0,20,5.0,0.0
3830,77.0,0,20,1.0,0.0
3831,72.0,22,20,2.0,0.0
3832,68.0,0,20,3.0,0.0
3833,41.0,0,30,4.0,0.0
3834,77.0,0,20,5.0,0.0
3835,41.0,2,30,6.0,0.0
3836,75.0,24,20,1.0,0.0
3837,70.0,0,20,2.0,0.0
3838,67.0,0,20,3.0,0.0
3839,75.0,0,20,5.0,0.0
3840,73.0,2,90,1.0,0.0
3841,68.0,22,20,2.0,0.0
3842,65.0,0,20,3.0,0.0
3843,53.0,0,30,4.0,0.0
3844,73.0,0,90,5.0,0.0
3845,53.0,2,30,6.0,0.0
3846,67.0,0,20,2.0,0.0
3847,63.0,24,20,3.0,0.0
3848,65.0,0,150,2.0,0.0
3849,61.0,0,20,3.0,0.0
3850,46.0,22,20,4.0,0.0
3851,46.0,0,20,6.0,0.0
3852,60.0,0,20,3.0,0.0
3853,44.0,0,20,4.0,0.0
3854,44.0,24,20,6.0,0.0
3855,72.0,0,30,1.0,0.0
3856,61.0,0,20,3.0,0.0
3857,46.0,22,20,4.0,0.0
3858,72.0,2,30,5.0,0.0
3859,46.0,0,20,6.0,0.0
3860,63.0,0,20,3.0,0.0
3861,48.0,0,20,4.0,0.0
3862,48.0,24,20,6.0,0.0
3863,70.0,0,30,1.0,0.0
3864,65.0,0,20,3.0,0.0
3865,49.0,22,20,4.0,0.0
3866,70.0,2,30,5.0,0.0
3867,49.0,0,20,6.0,0.0
3868,61.0,0,20,3.0,0.0
3869,46.0,0,20,4.0,0.0
3870,46.0,24,20,6.0,0.0
3871,79.0,22,20,1.0,0.0
3872,63.0,0,30,2.0,0.0
3873,58.0,0,30,3.0,0.0
3874,51.0,0,30,4.0,0.0
3875,79.0,0,20,5.0,0.0
3876,51.0,2,30,6.0,0.0
3877,77.0,24,20,1.0,0.0
3878,77.0,0,20,5.0,0.0
3879,75.0,0,20,1.0,0.0
3880,70.0,22,20,2.0,0.0
3881,67.0,0,20,3.0,0.0
3882,39.0,0,30,4.0,0.0
3883,75.0,0,20,5.0,0.0
3884,39.0,2,30,6.0,0.0
3885,73.0,24,20,1.0,0.0
3886,68.0,0,20,2.0,0.0
3887,65.0,0,20,3.0,0.0
3888,73.0,0,20,5.0,0.0
3889,72.0,0,90,1.0,0.0
3890,67.0,24,20,2.0,0.0
3891,63.0,0,20,3.0,0.0
3892,51.0,0,90,4.0,0.0
3893,72.0,2,90,5.0,0.0
3894,51.0,0,90,6.0,0.0
3895,65.0,24,20,2.0,0.0
3896,61.0,0,20,3.0,0.0
3897,63.0,0,150,2.0,0.0
3898,60.0,22,20,3.0,0.0
3899,44.0,0,20,4.0,0.0
3900,44.0,0,20,6.0,0.0
3901,58.0,24,20,3.0,0.0
3902,43.0,0,20,4.0,0.0
3903,43.0,0,20,6.0,0.0
3904,70.0,0,30,1.0,0.0
3905,60.0,0,20,3.0,0.0
3906,44.0,22,20,4.0,0.0
3907,70.0,2,30,5.0,0.0
3908,44.0,0,20,6.0,0.0
3909,61.0,0,20,3.0,0.0
3910,46.0,0,20,4.0,0.0
3911,46.0,24,20,6.0,0.0
3912,68.0,0,30,1.0,0.0
3913,63.0,0,20,3.0,0.0
3914,48.0,22,20,4.0,0.0
3915,68.0,2,30,5.0,0.0
3916,48.0,0,20,6.0,0.0
3917,60.0,0,20,3.0,0.0
3918,44.0,0,20,4.0,0.0
3919,44.0,24,20,6.0,0.0
3920,70.0,22,20,1.0,0.0
3921,65.0,0,30,2.0,0.0
3922,61.0,0,30,3.0,0.0
3923,49.0,0,30,4.0,0.0
3924,70.0,0,20,5.0,0.0
3925,49.0,2,30,6.0,0.0
3926,72.0,24,20,1.0,0.0
3927,72.0,0,20,5.0,0.0
3928,73.0,22,20,1.0,0.0
3929,70.0,0,30,2.0,0.0
3930,65.0,0,30,3.0,0.0
3931,46.0,0,30,4.0,0.0
3932,73.0,0,20,5.0,0.0
3933,46.0,2,30,6.0,0.0
3934,75.0,46,20,1.0,0.0
3935,75.0,0,20,5.0,0.0
3936,77.0,0,30,1.0,0.0
3937,65.0,0,30,2.0,0.0
3938,58.0,0,30,3.0,0.0
3939,49.0,26,30,4.0,0.0
3940,77.0,0,30,5.0,0.0
3941,49.0,0,30,6.0,0.0
3942,68.0,0,30,1.0,0.0
3943,63.0,2,30,2.0,0.0
3944,58.0,0,30,3.0,0.0
3945,51.0,22,20,4.0,0.0
3946,68.0,0,30,5.0,0.0
3947,51.0,0,20,6.0,0.0
3948,53.0,24,20,4.0,0.0
3949,53.0,0,20,6.0,0.0
3950,67.0,0,30,1.0,0.0
3951,58.0,2,30,2.0,0.0
3952,63.0,0,30,3.0,0.0
3953,51.0,22,20,4.0,0.0
3954,67.0,0,30,5.0,0.0
3955,51.0,0,20,6.0,0.0
3956,49.0,24,20,4.0,0.0
3957,49.0,0,20,6.0,0.0
3958,73.0,0,90,1.0,0.0
3959,67.0,0,90,2.0,0.0
3960,63.0,2,30,3.0,0.0
3961,48.0,22,20,4.0,0.0
3962,73.0,0,90,5.0,0.0
3963,48.0,0,20,6.0,0.0
3964,46.0,0,20,4.0,0.0
3965,46.0,46,20,6.0,0.0
3966,63.0,48,30,3.0,0.0
3967,44.0,0,30,4.0,0.0
3968,44.0,0,30,6.0,0.0
3969,72.0,0,30,1.0,0.0
3970,68.0,0,30,2.0,0.0
3971,63.0,0,30,3.0,0.0
3972,56.0,96,30,4.0,0.0
3973,72.0,0,30,5.0,0.0
3974,56.0,0,30,6.0,0.0
3975,61.0,48,30,1.0,0.0
3976,58.0,0,30,2.0,0.0
3977,55.0,0,30,3.0,0.0
3978,60.0,74,30,1.0,0.0
3979,56.0,0,30,2.0,0.0
3980,56.0,0,30,3.0,0.0
3981,77.0,22,20,1.0,0.0
3982,58.0,0,30,2.0,0.0
3983,53.0,2,30,3.0,0.0
3984,49.0,0,150,4.0,0.0
3985,77.0,0,20,5.0,0.0
3986,49.0,0,150,6.0,0.0
3987,75.0,0,20,1.0,0.0
3988,75.0,24,20,5.0,0.0
3989,73.0,22,20,1.0,0.0
3990,61.0,0,30,2.0,0.0
3991,58.0,2,30,3.0,0.0
3992,73.0,0,20,5.0,0.0
3993,72.0,0,20,1.0,0.0
3994,72.0,24,20,5.0,0.0
3995,70.0,22,20,1.0,0.0
3996,63.0,0,30,2.0,0.0
3997,60.0,2,30,3.0,0.0
3998,70.0,0,20,5.0,0.0
3999,69.0,0,20,1.0,0.0
4000,69.0,24,20,5.0,0.0
4001,70.0,24,20,1.0,0.0
4002,65.0,0,60,2.0,0.0
4003,61.0,0,60,3.0,0.0
4004,70.0,0,20,5.0,0.0
4005,65.0,0,20,1.0,0.0
4006,51.0,0,20,4.0,0.0
4007,65.0,24,20,5.0,0.0
4008,51.0,0,20,6.0,0.0
4009,70.0,0,20,1.0,0.0
4010,49.0,24,20,4.0,0.0
4011,70.0,0,20,5.0,0.0
4012,49.0,0,20,6.0,0.0
4013,72.0,0,20,1.0,0.0
4014,63.0,0,20,2.0,0.0
4015,63.0,0,20,3.0,0.0
4016,48.0,24,20,4.0,0.0
4017,72.0,0,20,5.0,0.0
4018,48.0,0,20,6.0,0.0
4019,73.0,22,60,1.0,0.0
4020,61.0,0,20,2.0,0.0
4021,65.0,0,60,3.0,0.0
4022,46.0,24,20,4.0,0.0
4023,73.0,0,60,5.0,0.0
4024,46.0,0,20,6.0,0.0
4025,60.0,0,20,2.0,0.0
4026,45.0,24,20,4.0,0.0
4027,45.0,0,20,6.0,0.0
4028,58.0,2,30,2.0,0.0
4029,46.0,0,150,4.0,0.0
4030,46.0,0,150,6.0,0.0
4031,72.0,0,20,1.0,0.0
4032,63.0,0,20,3.0,0.0
4033,72.0,24,20,5.0,0.0
4034,70.0,0,20,1.0,0.0
4035,65.0,2,30,2.0,0.0
4036,61.0,22,20,3.0,0.0
4037,70.0,0,20,5.0,0.0
4038,68.0,0,20,1.0,0.0
4039,60.0,0,20,3.0,0.0
4040,68.0,24,20,5.0,0.0
4041,66.0,0,20,1.0,0.0
4042,61.0,2,30,2.0,0.0
4043,58.0,22,20,3.0,0.0
4044,66.0,0,20,5.0,0.0
4045,65.0,0,20,1.0,0.0
4046,56.0,0,20,3.0,0.0
4047,65.0,24,20,5.0,0.0
4048,64.0,0,20,1.0,0.0
4049,60.0,24,20,2.0,0.0
4050,55.0,0,20,3.0,0.0
4051,64.0,0,20,5.0,0.0
4052,65.0,0,20,1.0,0.0
4053,62.0,0,20,2.0,0.0
4054,56.0,0,20,3.0,0.0
4055,44.0,24,20,4.0,0.0
4056,65.0,0,20,5.0,0.0
4057,44.0,0,20,6.0,0.0
4058,67.0,0,20,1.0,0.0
4059,64.0,0,20,2.0,0.0
4060,58.0,0,20,3.0,0.0
4061,43.0,24,20,4.0,0.0
4062,67.0,0,20,5.0,0.0
4063,43.0,0,20,6.0,0.0
4064,68.0,0,20,1.0,0.0
4065,65.0,0,20,2.0,0.0
4066,56.0,0,20,3.0,0.0
4067,41.0,24,20,4.0,0.0
4068,68.0,0,20,5.0,0.0
4069,41.0,0,20,6.0,0.0
4070,70.0,22,60,1.0,0.0
4071,67.0,0,60,2.0,0.0
4072,55.0,0,20,3.0,0.0
4073,40.0,24,20,4.0,0.0
4074,70.0,0,60,5.0,0.0
4075,40.0,0,20,6.0,0.0
4076,53.0,0,20,3.0,0.0
4077,38.0,24,20,4.0,0.0
4078,38.0,0,20,6.0,0.0
4079,52.0,0,30,3.0,0.0
4080,36.0,2,30,4.0,0.0
4081,36.0,0,30,6.0,0.0
4082,72.0,0,20,1.0,0.0
4083,68.0,0,20,2.0,0.0
4084,72.0,24,20,5.0,0.0
4085,74.0,22,20,1.0,0.0
4086,70.0,2,30,2.0,0.0
4087,74.0,0,20,5.0,0.0
4088,76.0,0,20,1.0,0.0
4089,48.0,0,20,4.0,0.0
4090,76.0,0,20,5.0,0.0
4091,48.0,24,20,6.0,0.0
4092,77.0,0,20,1.0,0.0
4093,60.0,0,30,2.0,0.0
4094,70.0,2,30,3.0,0.0
4095,50.0,0,20,4.0,0.0
4096,77.0,22,20,5.0,0.0
4097,50.0,0,20,6.0,0.0
4098,79.0,46,20,1.0,0.0
4099,52.0,0,20,4.0,0.0
4100,79.0,0,20,5.0,0.0
4101,52.0,0,20,6.0,0.0
4102,80.0,0,30,1.0,0.0
4103,72.0,0,30,2.0,0.0
4104,68.0,0,30,3.0,0.0
4105,53.0,48,30,4.0,0.0
4106,80.0,0,30,5.0,0.0
4107,53.0,0,30,6.0,0.0
4108,76.0,0,30,1.0,0.0
4109,70.0,0,30,2.0,0.0
4110,67.0,0,30,3.0,0.0
4111,55.0,48,30,4.0,0.0
4112,76.0,0,30,5.0,0.0
4113,55.0,0,30,6.0,0.0
4114,77.0,0,30,1.0,0.0
4115,72.0,0,30,2.0,0.0
4116,65.0,0,90,3.0,0.0
4117,56.0,0,30,4.0,0.0
4118,77.0,48,30,5.0,0.0
4119,56.0,0,30,6.0,0.0
4120,68.0,0,30,1.0,0.0
4121,65.0,0,30,2.0,0.0
4122,49.0,48,30,4.0,0.0
4123,68.0,0,30,5.0,0.0
4124,65.0,0,30,5.0,0.0
4125,49.0,0,30,6.0,0.0
4126,70.0,0,30,1.0,0.0
4127,67.0,0,30,2.0,0.0
4128,61.0,0,30,3.0,0.0
4129,46.0,16,30,4.0,0.0
4130,67.0,0,30,5.0,0.0
4131,70.0,0,30,5.0,0.0
4132,46.0,0,30,6.0,0.0
4133,68.0,12,15,1.0,0.0
4134,64.0,0,30,2.0,0.0
4135,60.0,0,30,3.0,0.0
4136,48.0,0,30,4.0,0.0
4137,64.0,0,30,5.0,0.0
4138,67.0,0,30,5.0,0.0
4139,48.0,4,30,6.0,0.0
4140,67.0,12,15,1.0,0.0
4141,68.0,8,15,1.0,0.0
4142,67.0,89,15,1.0,0.0
4143,65.0,3,90,1.0,0.0
4144,60.0,0,90,2.0,0.0
4145,56.0,0,90,3.0,0.0
4146,41.0,0,90,4.0,0.0
4147,56.0,0,90,5.0,0.0
4148,65.0,0,90,5.0,0.0
4149,60.0,0,90,5.0,0.0
4150,41.0,74,90,6.0,0.0
4151,65.0,2,30,2.0,0.0
4152,65.0,22,20,5.0,0.0
4153,60.0,24,20,5.0,0.0
4154,68.0,2,30,2.0,0.0
4155,65.0,22,20,5.0,0.0
4156,67.0,24,20,5.0,0.0
4157,72.0,2,30,2.0,0.0
4158,68.0,22,20,5.0,0.0
4159,67.0,24,20,5.0,0.0
4160,65.0,22,20,1.0,0.0
4161,68.0,0,30,2.0,0.0
4162,65.0,2,30,5.0,0.0
4163,53.0,0,30,6.0,0.0
4164,60.0,14,20,1.0,0.0
4165,65.0,2,20,1.0,0.0
4166,72.0,0,30,2.0,0.0
4167,72.0,10,15,5.0,0.0
4168,56.0,2,30,6.0,0.0
4169,70.0,20,15,5.0,0.0
4170,67.0,24,20,1.0,0.0
4171,72.0,22,90,5.0,0.0
4172,68.0,22,20,1.0,0.0
4173,77.0,2,30,2.0,0.0
4174,60.0,0,30,6.0,0.0
4175,67.0,24,20,1.0,0.0
4176,65.0,0,30,1.0,0.0
4177,72.0,0,30,2.0,0.0
4178,51.0,0,30,3.0,0.0
4179,41.0,0,30,4.0,0.0
4180,41.0,2,30,6.0,0.0
4181,70.0,24,20,5.0,0.0
4182,72.0,22,120,1.0,0.0
4183,65.0,0,30,2.0,0.0
4184,55.0,0,30,3.0,0.0
4185,44.0,0,30,4.0,0.0
4186,68.0,22,20,5.0,0.0
4187,44.0,2,30,6.0,0.0
4188,67.0,24,20,5.0,0.0
4189,67.0,0,30,2.0,0.0
4190,58.0,0,30,3.0,0.0
4191,48.0,0,30,4.0,0.0
4192,65.0,22,20,5.0,0.0
4193,48.0,2,30,6.0,0.0
4194,64.0,24,20,5.0,0.0
4195,68.0,0,30,2.0,0.0
4196,55.0,0,30,3.0,0.0
4197,44.0,0,30,4.0,0.0
4198,65.0,0,30,5.0,0.0
4199,44.0,2,30,6.0,0.0
4200,70.0,24,20,1.0,0.0
4201,68.0,22,20,1.0,0.0
4202,72.0,0,30,2.0,0.0
4203,51.0,0,30,3.0,0.0
4204,41.0,0,30,4.0,0.0
4205,72.0,22,120,5.0,0.0
4206,41.0,2,30,6.0,0.0
4207,67.0,24,20,1.0,0.0
4208,65.0,22,20,1.0,0.0
4209,67.0,0,30,2.0,0.0
4210,53.0,0,30,3.0,0.0
4211,43.0,0,30,4.0,0.0
4212,43.0,2,30,6.0,0.0
4213,64.0,24,20,1.0,0.0
4214,65.0,0,30,1.0,0.0
4215,65.0,0,30,2.0,0.0
4216,55.0,0,30,3.0,0.0
4217,44.0,0,30,4.0,0.0
4218,44.0,2,30,6.0,0.0
4219,77.0,24,20,5.0,0.0
4220,70.0,2,150,1.0,0.0
4221,79.0,22,20,5.0,0.0
4222,49.0,2,30,6.0,0.0
4223,80.0,24,20,5.0,0.0
4224,79.0,22,20,5.0,0.0
4225,46.0,2,30,6.0,0.0
4226,77.0,24,20,5.0,0.0
4227,76.0,22,20,5.0,0.0
4228,48.0,0,20,6.0,0.0
4229,77.0,14,20,5.0,0.0
4230,49.0,0,20,6.0,0.0
4231,77.0,10,15,1.0,0.0
4232,79.0,2,20,5.0,0.0
4233,48.0,0,20,6.0,0.0
4234,76.0,12,15,1.0,0.0
4235,77.0,10,15,1.0,0.0
4236,73.0,2,20,5.0,0.0
4237,46.0,0,20,6.0,0.0
4238,76.0,12,15,1.0,0.0
4239,77.0,10,15,1.0,0.0
4240,72.0,2,20,5.0,0.0
4241,44.0,0,20,6.0,0.0
4242,76.0,12,15,1.0,0.0
4243,77.0,10,15,1.0,0.0
4244,70.0,2,20,5.0,0.0
4245,43.0,0,20,6.0,0.0
4246,76.0,22,15,1.0,0.0
4247,77.0,2,30,1.0,0.0
4248,68.0,22,20,5.0,0.0
4249,41.0,0,20,6.0,0.0
4250,72.0,24,20,5.0,0.0
4251,39.0,0,20,6.0,0.0
4252,65.0,2,30,1.0,0.0
4253,70.0,22,20,5.0,0.0
4254,37.0,0,30,6.0,0.0
4255,68.0,24,20,5.0,0.0
4256,70.0,2,30,1.0,0.0
4257,67.0,22,20,5.0,0.0
4258,49.0,0,30,6.0,0.0
4259,65.0,24,20,5.0,0.0
4260,72.0,3,120,1.0,0.0
4261,64.0,22,20,5.0,0.0
4262,48.0,2,30,6.0,0.0
4263,65.0,24,20,5.0,0.0
4264,67.0,24,20,5.0,0.0
4265,60.0,0,20,6.0,0.0
4266,64.0,24,20,5.0,0.0
4267,58.0,0,20,6.0,0.0
4268,60.0,2,30,5.0,0.0
4269,56.0,19,20,6.0,0.0
4270,55.0,14,20,6.0,0.0
4271,65.0,2,20,1.0,0.0
4272,60.0,0,30,2.0,0.0
4273,56.0,2,30,3.0,0.0
4274,73.0,10,15,5.0,0.0
4275,56.0,0,30,6.0,0.0
4276,72.0,12,15,5.0,0.0
4277,67.0,2,20,1.0,0.0
4278,73.0,8,15,5.0,0.0
4279,72.0,12,15,5.0,0.0
4280,68.0,2,20,1.0,0.0
4281,65.0,0,30,2.0,0.0
4282,60.0,2,30,3.0,0.0
4283,73.0,10,15,5.0,0.0
4284,53.0,0,30,6.0,0.0
4285,72.0,12,15,5.0,0.0
4286,70.0,2,20,1.0,0.0
4287,73.0,8,15,5.0,0.0
4288,72.0,12,15,5.0,0.0
4289,72.0,0,30,1.0,0.0
4290,67.0,4,30,2.0,0.0
4291,55.0,0,30,3.0,0.0
4292,73.0,12,15,5.0,0.0
4293,52.0,0,30,6.0,0.0
4294,72.0,12,15,5.0,0.0
4295,73.0,8,15,5.0,0.0
4296,72.0,12,15,5.0,0.0
4297,68.0,0,30,1.0,0.0
4298,65.0,0,30,2.0,0.0
4299,56.0,2,30,3.0,0.0
4300,41.0,0,20,4.0,0.0
4301,73.0,10,15,5.0,0.0
4302,53.0,2,20,6.0,0.0
4303,72.0,12,15,5.0,0.0
4304,43.0,0,20,4.0,0.0
4305,73.0,8,15,5.0,0.0
4306,55.0,2,20,6.0,0.0
4307,72.0,12,15,5.0,0.0
4308,72.0,0,30,1.0,0.0
4309,60.0,0,30,2.0,0.0
4310,53.0,2,30,3.0,0.0
4311,44.0,0,20,4.0,0.0
4312,73.0,10,15,5.0,0.0
4313,56.0,2,20,6.0,0.0
4314,72.0,12,15,5.0,0.0
4315,46.0,0,20,4.0,0.0
4316,73.0,8,15,5.0,0.0
4317,58.0,2,20,6.0,0.0
4318,72.0,12,15,5.0,0.0
4319,76.0,0,90,1.0,0.0
4320,67.0,4,90,2.0,0.0
4321,48.0,2,30,3.0,0.0
4322,48.0,0,20,4.0,0.0
4323,73.0,10,15,5.0,0.0
4324,60.0,2,20,6.0,0.0
4325,72.0,12,15,5.0,0.0
4326,46.0,0,20,4.0,0.0
4327,73.0,8,15,5.0,0.0
4328,58.0,2,20,6.0,0.0
4329,72.0,12,15,5.0,0.0
4330,60.0,0,30,3.0,0.0
4331,44.0,0,90,4.0,0.0
4332,73.0,12,15,5.0,0.0
4333,56.0,3,90,6.0,0.0
4334,72.0,12,15,5.0,0.0
4335,73.0,8,15,5.0,0.0
4336,72.0,12,15,5.0,0.0
4337,77.0,4,30,1.0,0.0
4338,68.0,0,30,2.0,0.0
4339,53.0,0,30,3.0,0.0
4340,73.0,12,15,5.0,0.0
4341,72.0,12,15,5.0,0.0
4342,73.0,5,15,5.0,0.0
4343,72.0,12,15,5.0,0.0
4344,72.0,0,30,1.0,0.0
4345,67.0,0,30,2.0,0.0
4346,55.0,0,30,3.0,0.0
4347,40.0,0,30,4.0,0.0
4348,73.0,12,15,5.0,0.0
4349,52.0,16,30,6.0,0.0
4350,72.0,12,15,5.0,0.0
4351,73.0,8,15,5.0,0.0
4352,72.0,2,30,5.0,0.0
4353,70.0,10,15,1.0,0.0
4354,65.0,3,90,2.0,0.0
4355,56.0,0,20,3.0,0.0
4356,41.0,2,30,4.0,0.0
4357,53.0,0,30,6.0,0.0
4358,68.0,12,15,1.0,0.0
4359,70.0,8,15,1.0,0.0
4360,58.0,0,20,3.0,0.0
4361,77.0,2,20,5.0,0.0
4362,68.0,12,15,1.0,0.0
4363,70.0,10,15,1.0,0.0
4364,60.0,3,90,3.0,0.0
4365,48.0,0,30,4.0,0.0
4366,76.0,2,20,5.0,0.0
4367,60.0,2,30,6.0,0.0
4368,68.0,12,15,1.0,0.0
4369,70.0,5,15,1.0,0.0
4370,73.0,2,20,5.0,0.0
4371,68.0,22,15,1.0,0.0
4372,67.0,0,30,1.0,0.0
4373,64.0,0,30,2.0,0.0
4374,36.0,0,30,4.0,0.0
4375,72.0,19,20,5.0,0.0
4376,48.0,2,30,6.0,0.0
4377,70.0,24,20,5.0,0.0
4378,68.0,22,20,5.0,0.0
4379,53.0,2,30,6.0,0.0
4380,72.0,24,20,5.0,0.0
4381,70.0,22,20,5.0,0.0
4382,55.0,2,30,6.0,0.0
4383,68.0,24,20,5.0,0.0
4384,67.0,24,20,5.0,0.0
4385,56.0,22,60,6.0,0.0
4386,65.0,24,20,5.0,0.0
4387,74.0,2,30,5.0,0.0
4388,53.0,24,20,6.0,0.0
4389,70.0,0,30,1.0,0.0
4390,67.0,2,30,2.0,0.0
4391,63.0,0,30,3.0,0.0
4392,74.0,0,30,5.0,0.0
4393,55.0,22,20,6.0,0.0
4394,56.0,24,20,6.0,0.0
4395,67.0,0,30,1.0,0.0
4396,63.0,2,30,2.0,0.0
4397,58.0,0,30,3.0,0.0
4398,75.0,0,30,5.0,0.0
4399,58.0,22,20,6.0,0.0
4400,55.0,24,20,6.0,0.0
4401,67.0,22,20,5.0,0.0
4402,51.0,2,30,6.0,0.0
4403,70.0,24,20,5.0,0.0
4404,68.0,22,20,5.0,0.0
4405,53.0,2,30,6.0,0.0
4406,67.0,24,20,5.0,0.0
4407,65.0,24,20,5.0,0.0
4408,54.0,22,60,6.0,0.0
4409,63.0,24,20,5.0,0.0
4410,72.0,2,30,5.0,0.0
4411,51.0,24,20,6.0,0.0
4412,68.0,0,30,1.0,0.0
4413,65.0,2,30,2.0,0.0
4414,61.0,0,30,3.0,0.0
4415,72.0,0,30,5.0,0.0
4416,53.0,22,20,6.0,0.0
4417,54.0,24,20,6.0,0.0
4418,65.0,0,30,1.0,0.0
4419,61.0,2,30,2.0,0.0
4420,56.0,0,30,3.0,0.0
4421,73.0,0,30,5.0,0.0
4422,56.0,22,20,6.0,0.0
4423,53.0,24,20,6.0,0.0
4424,65.0,22,20,5.0,0.0
4425,49.0,2,30,6.0,0.0
4426,68.0,24,20,5.0,0.0
4427,70.0,22,20,5.0,0.0
4428,53.0,2,30,6.0,0.0
4429,68.0,24,20,5.0,0.0
4430,67.0,22,20,5.0,0.0
4431,56.0,2,30,6.0,0.0
4432,68.0,24,20,5.0,0.0
4433,63.0,22,20,5.0,0.0
4434,48.0,2,30,6.0,0.0
4435,68.0,24,20,5.0,0.0
4436,70.0,22,20,5.0,0.0
4437,51.0,2,30,6.0,0.0
4438,68.0,24,20,5.0,0.0
4439,67.0,22,20,5.0,0.0
4440,56.0,2,30,6.0,0.0
4441,68.0,24,20,5.0,0.0
4442,61.0,22,20,5.0,0.0
4443,46.0,2,30,6.0,0.0
4444,68.0,24,20,5.0,0.0
4445,70.0,22,20,5.0,0.0
4446,49.0,2,30,6.0,0.0
4447,68.0,24,20,5.0,0.0
4448,67.0,22,20,5.0,0.0
4449,51.0,2,30,6.0,0.0
4450,68.0,24,20,5.0,0.0
4451,60.0,22,20,5.0,0.0
4452,44.0,2,30,6.0,0.0
4453,68.0,24,20,5.0,0.0
4454,70.0,22,20,5.0,0.0
4455,48.0,2,30,6.0,0.0
4456,68.0,24,20,5.0,0.0
4457,67.0,22,20,5.0,0.0
4458,51.0,2,30,6.0,0.0
4459,68.0,24,20,5.0,0.0
4460,58.0,2,30,5.0,0.0
4461,50.0,22,20,6.0,0.0
4462,51.0,24,20,6.0,0.0
4463,65.0,2,30,5.0,0.0
4464,50.0,22,20,6.0,0.0
4465,48.0,24,20,6.0,0.0
4466,68.0,2,30,5.0,0.0
4467,46.0,22,20,6.0,0.0
4468,44.0,24,20,6.0,0.0
4469,74.0,2,30,5.0,0.0
4470,43.0,22,20,6.0,0.0
4471,41.0,24,20,6.0,0.0
4472,75.0,2,30,5.0,0.0
4473,39.0,22,20,6.0,0.0
4474,37.0,46,20,6.0,0.0
4475,68.0,48,30,5.0,0.0
4476,36.0,0,30,6.0,0.0
4477,73.0,26,30,5.0,0.0
4478,41.0,0,30,6.0,0.0
4479,72.0,22,20,5.0,0.0
4480,37.0,26,30,6.0,0.0
4481,70.0,14,30,5.0,0.0
4482,39.0,4,30,6.0,0.0
4483,68.0,8,15,5.0,0.0
4484,70.0,22,15,5.0,0.0
4485,68.0,2,150,5.0,0.0
4486,44.0,24,20,6.0,0.0
4487,46.0,24,20,6.0,0.0
4488,48.0,24,20,6.0,0.0
4489,49.0,24,20,6.0,0.0
4490,51.0,22,20,6.0,0.0
4491,49.0,24,20,6.0,0.0
4492,68.0,22,20,1.0,0.0
4493,63.0,0,30,2.0,0.0
4494,60.0,2,30,3.0,0.0
4495,68.0,0,20,5.0,0.0
4496,48.0,0,30,6.0,0.0
4497,70.0,0,20,1.0,0.0
4498,70.0,24,20,5.0,0.0
4499,72.0,22,20,1.0,0.0
4500,68.0,0,30,2.0,0.0
4501,63.0,2,30,3.0,0.0
4502,72.0,0,20,5.0,0.0
4503,44.0,0,30,6.0,0.0
4504,73.0,0,20,1.0,0.0
4505,73.0,46,20,5.0,0.0
4506,75.0,0,30,1.0,0.0
4507,70.0,0,30,2.0,0.0
4508,63.0,0,30,3.0,0.0
4509,75.0,26,30,5.0,0.0
4510,43.0,0,30,6.0,0.0
4511,72.0,0,30,1.0,0.0
4512,68.0,2,30,2.0,0.0
4513,63.0,0,30,3.0,0.0
4514,44.0,22,20,4.0,0.0
4515,72.0,0,30,5.0,0.0
4516,44.0,0,20,6.0,0.0
4517,46.0,24,20,4.0,0.0
4518,46.0,0,20,6.0,0.0
4519,75.0,0,30,1.0,0.0
4520,68.0,2,30,2.0,0.0
4521,63.0,0,30,3.0,0.0
4522,48.0,22,20,4.0,0.0
4523,75.0,0,30,5.0,0.0
4524,48.0,0,20,6.0,0.0
4525,49.0,24,20,4.0,0.0
4526,49.0,0,20,6.0,0.0
4527,79.0,0,90,1.0,0.0
4528,73.0,0,90,2.0,0.0
4529,63.0,2,30,3.0,0.0
4530,46.0,22,20,4.0,0.0
4531,79.0,4,90,5.0,0.0
4532,46.0,0,20,6.0,0.0
4533,48.0,0,20,4.0,0.0
4534,48.0,14,20,6.0,0.0
4535,63.0,3,90,3.0,0.0
4536,46.0,12,15,4.0,0.0
4537,44.0,0,90,6.0,0.0
4538,44.0,12,15,4.0,0.0
4539,46.0,8,15,4.0,0.0
4540,44.0,12,15,4.0,0.0
4541,80.0,0,30,1.0,0.0
4542,72.0,0,30,2.0,0.0
4543,46.0,12,15,4.0,0.0
4544,80.0,4,30,5.0,0.0
4545,44.0,12,15,4.0,0.0
4546,46.0,5,15,4.0,0.0
4547,44.0,44,15,4.0,0.0
4548,75.0,0,30,1.0,0.0
4549,70.0,0,30,2.0,0.0
4550,63.0,0,30,3.0,0.0
4551,43.0,16,30,4.0,0.0
4552,75.0,0,30,5.0,0.0
4553,43.0,0,30,6.0,0.0
4554,73.0,2,30,1.0,0.0
4555,68.0,0,90,2.0,0.0
4556,63.0,3,90,3.0,0.0
4557,44.0,0,20,4.0,0.0
4558,73.0,10,15,5.0,0.0
4559,44.0,2,20,6.0,0.0
4560,72.0,12,15,5.0,0.0
4561,46.0,0,20,4.0,0.0
4562,73.0,8,15,5.0,0.0
4563,46.0,2,20,6.0,0.0
4564,72.0,12,15,5.0,0.0
4565,72.0,2,30,1.0,0.0
4566,48.0,0,20,4.0,0.0
4567,73.0,10,15,5.0,0.0
4568,48.0,2,20,6.0,0.0
4569,72.0,12,15,5.0,0.0
4570,49.0,0,20,4.0,0.0
4571,73.0,5,15,5.0,0.0
4572,49.0,2,20,6.0,0.0
4573,72.0,22,15,5.0,0.0
4574,70.0,0,30,1.0,0.0
4575,67.0,2,30,2.0,0.0
4576,63.0,0,30,3.0,0.0
4577,51.0,22,20,4.0,0.0
4578,70.0,0,30,5.0,0.0
4579,51.0,0,20,6.0,0.0
4580,49.0,24,20,4.0,0.0
4581,49.0,0,20,6.0,0.0
4582,68.0,22,20,1.0,0.0
4583,63.0,0,30,2.0,0.0
4584,63.0,0,30,3.0,0.0
4585,48.0,0,30,4.0,0.0
4586,68.0,0,20,5.0,0.0
4587,48.0,2,30,6.0,0.0
4588,70.0,24,20,1.0,0.0
4589,70.0,0,20,5.0,0.0
4590,72.0,22,20,1.0,0.0
4591,68.0,0,30,2.0,0.0
4592,63.0,0,30,3.0,0.0
4593,44.0,0,30,4.0,0.0
4594,72.0,0,20,5.0,0.0
4595,44.0,2,30,6.0,0.0
4596,73.0,46,20,1.0,0.0
4597,73.0,0,20,5.0,0.0
4598,75.0,0,30,1.0,0.0
4599,70.0,0,30,2.0,0.0
4600,63.0,0,30,3.0,0.0
4601,43.0,26,30,4.0,0.0
4602,75.0,0,30,5.0,0.0
4603,43.0,0,30,6.0,0.0
4604,72.0,0,30,1.0,0.0
4605,68.0,2,30,2.0,0.0
4606,63.0,0,30,3.0,0.0
4607,44.0,22,20,4.0,0.0
4608,72.0,0,30,5.0,0.0
4609,44.0,0,20,6.0,0.0
4610,46.0,24,20,4.0,0.0
4611,46.0,0,20,6.0,0.0
4612,75.0,0,30,1.0,0.0
4613,68.0,2,30,2.0,0.0
4614,68.0,0,30,3.0,0.0
4615,48.0,22,20,4.0,0.0
4616,75.0,0,30,5.0,0.0
4617,48.0,0,20,6.0,0.0
4618,46.0,24,20,4.0,0.0
4619,46.0,0,20,6.0,0.0
4620,80.0,0,30,1.0,0.0
4621,75.0,2,30,2.0,0.0
4622,72.0,0,30,3.0,0.0
4623,48.0,22,20,4.0,0.0
4624,80.0,0,30,5.0,0.0
4625,48.0,0,20,6.0,0.0
4626,44.0,24,20,4.0,0.0
4627,44.0,0,20,6.0,0.0
4628,82.0,0,30,1.0,0.0
4629,75.0,0,30,2.0,0.0
4630,67.0,0,30,3.0,0.0
4631,51.0,0,30,4.0,0.0
4632,63.0,22,20,5.0,0.0
4633,51.0,2,30,6.0,0.0
4634,65.0,24,20,5.0,0.0
4635,75.0,0,30,1.0,0.0
4636,67.0,0,30,2.0,0.0
4637,70.0,0,30,3.0,0.0
4638,39.0,0,30,4.0,0.0
4639,67.0,22,20,5.0,0.0
4640,39.0,2,30,6.0,0.0
4641,68.0,24,20,5.0,0.0
4642,70.0,24,20,5.0,0.0
4643,68.0,24,20,5.0,0.0
4644,70.0,0,30,1.0,0.0
4645,67.0,2,30,2.0,0.0
4646,63.0,0,30,3.0,0.0
4647,67.0,22,20,5.0,0.0
4648,51.0,0,30,6.0,0.0
4649,68.0,24,20,5.0,0.0
4650,63.0,0,30,1.0,0.0
4651,58.0,2,30,2.0,0.0
4652,55.0,0,30,3.0,0.0
4653,70.0,22,20,5.0,0.0
4654,39.0,0,30,6.0,0.0
4655,72.0,24,20,5.0,0.0
4656,73.0,24,20,5.0,0.0
4657,70.0,24,20,5.0,0.0
4658,79.0,0,30,1.0,0.0
4659,72.0,0,30,2.0,0.0
4660,55.0,0,30,3.0,0.0
4661,52.0,0,30,4.0,0.0
4662,72.0,22,20,5.0,0.0
4663,52.0,2,30,6.0,0.0
4664,74.0,24,20,5.0,0.0
4665,72.0,0,30,1.0,0.0
4666,67.0,0,30,2.0,0.0
4667,67.0,0,30,3.0,0.0
4668,40.0,0,30,4.0,0.0
4669,76.0,22,20,5.0,0.0
4670,40.0,2,30,6.0,0.0
4671,77.0,24,20,5.0,0.0
4672,79.0,24,20,5.0,0.0
4673,77.0,24,20,5.0,0.0
4674,67.0,0,30,1.0,0.0
4675,60.0,2,30,2.0,0.0
4676,55.0,0,30,3.0,0.0
4677,76.0,22,20,5.0,0.0
4678,48.0,0,30,6.0,0.0
4679,77.0,24,20,5.0,0.0
4680,60.0,0,30,1.0,0.0
4681,55.0,2,30,2.0,0.0
4682,64.0,0,30,3.0,0.0
4683,79.0,22,20,5.0,0.0
4684,36.0,0,30,6.0,0.0
4685,80.0,24,20,5.0,0.0
4686,82.0,24,20,5.0,0.0
4687,79.0,24,20,5.0,0.0
4688,84.0,0,30,1.0,0.0
4689,77.0,0,30,2.0,0.0
4690,53.0,0,30,3.0,0.0
4691,41.0,0,30,4.0,0.0
4692,80.0,22,20,5.0,0.0
4693,41.0,2,30,6.0,0.0
4694,82.0,24,20,5.0,0.0
4695,77.0,0,30,1.0,0.0
4696,72.0,0,30,2.0,0.0
4697,65.0,0,30,3.0,0.0
4698,53.0,0,30,4.0,0.0
4699,80.0,22,20,5.0,0.0
4700,44.0,2,30,6.0,0.0
4701,79.0,24,20,5.0,0.0
4702,77.0,22,20,5.0,0.0
4703,48.0,2,30,6.0,0.0
4704,76.0,24,20,5.0,0.0
4705,72.0,0,30,1.0,0.0
4706,65.0,2,30,2.0,0.0
4707,53.0,0,30,3.0,0.0
4708,77.0,22,20,5.0,0.0
4709,44.0,0,30,6.0,0.0
4710,79.0,24,20,5.0,0.0
4711,65.0,0,30,1.0,0.0
4712,60.0,2,30,2.0,0.0
4713,56.0,0,30,3.0,0.0
4714,77.0,22,20,5.0,0.0
4715,41.0,0,30,6.0,0.0
4716,75.0,24,20,5.0,0.0
4717,73.0,22,20,5.0,0.0
4718,45.0,2,30,6.0,0.0
4719,72.0,24,20,5.0,0.0
4720,77.0,0,30,1.0,0.0
4721,70.0,0,30,2.0,0.0
4722,61.0,0,30,3.0,0.0
4723,46.0,0,30,4.0,0.0
4724,73.0,22,20,5.0,0.0
4725,46.0,2,30,6.0,0.0
4726,75.0,24,20,5.0,0.0
4727,70.0,0,30,1.0,0.0
4728,65.0,0,30,2.0,0.0
4729,65.0,0,30,3.0,0.0
4730,58.0,0,30,4.0,0.0
4731,73.0,22,20,5.0,0.0
4732,49.0,2,30,6.0,0.0
4733,72.0,24,20,5.0,0.0
4734,70.0,22,20,5.0,0.0
4735,53.0,2,30,6.0,0.0
4736,69.0,24,20,5.0,0.0
4737,65.0,0,30,1.0,0.0
4738,58.0,2,30,2.0,0.0
4739,53.0,0,30,3.0,0.0
4740,70.0,22,20,5.0,0.0
4741,49.0,0,30,6.0,0.0
4742,72.0,24,20,5.0,0.0
4743,58.0,0,30,1.0,0.0
4744,65.0,2,30,2.0,0.0
4745,61.0,0,30,3.0,0.0
4746,70.0,22,20,5.0,0.0
4747,46.0,0,30,6.0,0.0
4748,68.0,24,20,5.0,0.0
4749,67.0,22,20,5.0,0.0
4750,50.0,2,30,6.0,0.0
4751,65.0,24,20,5.0,0.0
4752,67.0,24,20,5.0,0.0
4753,51.0,24,60,6.0,0.0
4754,63.0,24,20,5.0,0.0
4755,65.0,0,20,5.0,0.0
4756,67.0,24,20,5.0,0.0
4757,49.0,0,20,6.0,0.0
4758,68.0,24,20,5.0,0.0
4759,48.0,0,20,6.0,0.0
4760,70.0,24,20,5.0,0.0
4761,46.0,0,20,6.0,0.0
4762,72.0,22,20,5.0,0.0
4763,44.0,2,30,6.0,0.0
4764,73.0,24,20,5.0,0.0
4765,75.0,22,20,5.0,0.0
4766,56.0,2,30,6.0,0.0
4767,77.0,24,20,5.0,0.0
4768,79.0,22,20,5.0,0.0
4769,55.0,2,30,6.0,0.0
4770,75.0,24,20,5.0,0.0
4771,80.0,22,20,1.0,0.0
4772,65.0,0,30,2.0,0.0
4773,60.0,0,30,3.0,0.0
4774,53.0,0,30,4.0,0.0
4775,80.0,0,20,5.0,0.0
4776,53.0,2,30,6.0,0.0
4777,79.0,24,20,1.0,0.0
4778,79.0,0,20,5.0,0.0
4779,77.0,0,20,1.0,0.0
4780,72.0,22,20,2.0,0.0
4781,68.0,0,20,3.0,0.0
4782,41.0,0,30,4.0,0.0
4783,77.0,0,20,5.0,0.0
4784,41.0,2,30,6.0,0.0
4785,75.0,24,20,1.0,0.0
4786,70.0,0,20,2.0,0.0
4787,67.0,0,20,3.0,0.0
4788,75.0,0,20,5.0,0.0
4789,73.0,2,90,1.0,0.0
4790,68.0,22,20,2.0,0.0
4791,65.0,0,20,3.0,0.0
4792,53.0,0,30,4.0,0.0
4793,73.0,0,90,5.0,0.0
4794,53.0,2,30,6.0,0.0
4795,67.0,0,20,2.0,0.0
4796,63.0,24,20,3.0,0.0
4797,65.0,0,150,2.0,0.0
4798,61.0,0,20,3.0,0.0
4799,46.0,22,20,4.0,0.0
4800,46.0,0,20,6.0,0.0
4801,60.0,0,20,3.0,0.0
4802,44.0,0,20,4.0,0.0
4803,44.0,24,20,6.0,0.0
4804,72.0,0,30,1.0,0.0
4805,61.0,0,20,3.0,0.0
4806,46.0,22,20,4.0,0.0
4807,72.0,2,30,5.0,0.0
4808,46.0,0,20,6.0,0.0
4809,63.0,0,20,3.0,0.0
4810,48.0,0,20,4.0,0.0
4811,48.0,24,20,6.0,0.0
4812,70.0,0,30,1.0,0.0
4813,65.0,0,20,3.0,0.0
4814,49.0,22,20,4.0,0.0
4815,70.0,2,30,5.0,0.0
4816,49.0,0,20,6.0,0.0
4817,61.0,0,20,3.0,0.0
4818,46.0,0,20,4.0,0.0
4819,46.0,24,20,6.0,0.0
4820,79.0,22,20,1.0,0.0
4821,58.0,0,30,2.0,0.0
4822,58.0,0,30,3.0,0.0
4823,51.0,0,30,4.0,0.0
4824,79.0,0,20,5.0,0.0
4825,51.0,2,30,6.0,0.0
4826,77.0,24,20,1.0,0.0
4827,77.0,0,20,5.0,0.0
4828,75.0,0,20,1.0,0.0
4829,70.0,22,20,2.0,0.0
4830,67.0,0,20,3.0,0.0
4831,39.0,0,30,4.0,0.0
4832,75.0,0,20,5.0,0.0
4833,39.0,2,30,6.0,0.0
4834,73.0,24,20,1.0,0.0
4835,68.0,0,20,2.0,0.0
4836,65.0,0,20,3.0,0.0
4837,73.0,0,20,5.0,0.0
4838,72.0,2,90,1.0,0.0
4839,67.0,22,20,2.0,0.0
4840,63.0,0,20,3.0,0.0
4841,51.0,0,30,4.0,0.0
4842,72.0,0,90,5.0,0.0
4843,51.0,2,30,6.0,0.0
4844,65.0,0,20,2.0,0.0
4845,61.0,24,20,3.0,0.0
4846,63.0,0,150,2.0,0.0
4847,60.0,0,20,3.0,0.0
4848,44.0,22,20,4.0,0.0
4849,44.0,0,20,6.0,0.0
4850,58.0,0,20,3.0,0.0
4851,43.0,0,20,4.0,0.0
4852,43.0,24,20,6.0,0.0
4853,70.0,0,30,1.0,0.0
4854,60.0,0,20,3.0,0.0
4855,44.0,22,20,4.0,0.0
4856,70.0,2,30,5.0,0.0
4857,44.0,0,20,6.0,0.0
4858,61.0,0,20,3.0,0.0
4859,46.0,0,20,4.0,0.0
4860,46.0,24,20,6.0,0.0
4861,68.0,0,30,1.0,0.0
4862,63.0,0,20,3.0,0.0
4863,48.0,22,20,4.0,0.0
4864,68.0,2,30,5.0,0.0
4865,48.0,0,20,6.0,0.0
4866,60.0,0,20,3.0,0.0
4867,44.0,0,20,4.0,0.0
4868,44.0,24,20,6.0,0.0
4869,70.0,22,20,1.0,0.0
4870,65.0,0,30,2.0,0.0
4871,61.0,0,30,3.0,0.0
4872,49.0,0,30,4.0,0.0
4873,70.0,0,20,5.0,0.0
4874,49.0,2,30,6.0,0.0
4875,72.0,24,20,1.0,0.0
4876,72.0,0,20,5.0,0.0
4877,73.0,22,20,1.0,0.0
4878,70.0,0,30,2.0,0.0
4879,65.0,0,30,3.0,0.0
4880,46.0,0,30,4.0,0.0
4881,73.0,0,20,5.0,0.0
4882,46.0,2,30,6.0,0.0
4883,75.0,46,20,1.0,0.0
4884,75.0,0,20,5.0,0.0
4885,77.0,0,30,1.0,0.0
4886,65.0,0,30,2.0,0.0
4887,58.0,0,30,3.0,0.0
4888,49.0,16,30,4.0,0.0
4889,77.0,0,30,5.0,0.0
4890,49.0,0,30,6.0,0.0
4891,70.0,10,15,1.0,0.0
4892,63.0,2,30,2.0,0.0
4893,58.0,0,30,3.0,0.0
4894,51.0,0,20,4.0,0.0
4895,70.0,0,15,5.0,0.0
4896,51.0,2,20,6.0,0.0
4897,68.0,0,15,1.0,0.0
4898,68.0,12,15,5.0,0.0
4899,70.0,8,15,1.0,0.0
4900,53.0,2,20,4.0,0.0
4901,70.0,0,15,5.0,0.0
4902,53.0,0,20,6.0,0.0
4903,68.0,22,15,1.0,0.0
4904,68.0,0,15,5.0,0.0
4905,67.0,0,30,1.0,0.0
4906,58.0,2,30,2.0,0.0
4907,63.0,0,30,3.0,0.0
4908,51.0,22,20,4.0,0.0
4909,67.0,0,30,5.0,0.0
4910,51.0,0,20,6.0,0.0
4911,49.0,24,20,4.0,0.0
4912,49.0,0,20,6.0,0.0
4913,73.0,0,90,1.0,0.0
4914,67.0,0,90,2.0,0.0
4915,63.0,2,30,3.0,0.0
4916,48.0,22,20,4.0,0.0
4917,73.0,0,90,5.0,0.0
4918,48.0,0,20,6.0,0.0
4919,46.0,0,20,4.0,0.0
4920,46.0,46,20,6.0,0.0
4921,63.0,48,30,3.0,0.0
4922,44.0,0,30,4.0,0.0
4923,44.0,0,30,6.0,0.0
4924,72.0,0,30,1.0,0.0
4925,68.0,0,30,2.0,0.0
4926,63.0,0,30,3.0,0.0
4927,56.0,96,30,4.0,0.0
4928,72.0,0,30,5.0,0.0
4929,56.0,0,30,6.0,0.0
4930,61.0,48,30,1.0,0.0
4931,58.0,0,30,2.0,0.0
4932,55.0,0,30,3.0,0.0
4933,60.0,64,30,1.0,0.0
4934,56.0,0,30,2.0,0.0
4935,56.0,0,30,3.0,0.0
4936,57.0,48,30,1.0,0.0
4937,78.0,12,15,5.0,0.0
4938,57.0,0,30,6.0,0.0
4939,77.0,20,15,5.0,0.0
4940,78.0,16,120,5.0,0.0
4941,60.0,48,30,1.0,0.0
4942,60.0,0,30,6.0,0.0
4943,63.0,0,30,1.0,0.0
4944,63.0,0,30,6.0,0.0
4945,60.0,0,30,1.0,0.0
4946,57.0,4,30,2.0,0.0
4947,79.0,12,15,5.0,0.0
4948,57.0,0,30,6.0,0.0
4949,77.0,12,15,5.0,0.0
4950,79.0,8,15,5.0,0.0
4951,77.0,12,15,5.0,0.0
4952,65.0,0,30,1.0,0.0
4953,60.0,4,30,2.0,0.0
4954,79.0,12,15,5.0,0.0
4955,60.0,0,30,6.0,0.0
4956,77.0,12,15,5.0,0.0
4957,79.0,8,15,5.0,0.0
4958,77.0,12,15,5.0,0.0
4959,69.0,0,30,1.0,0.0
4960,65.0,4,30,2.0,0.0
4961,79.0,12,15,5.0,0.0
4962,65.0,0,30,6.0,0.0
4963,77.0,12,15,5.0,0.0
4964,79.0,8,15,5.0,0.0
4965,77.0,12,15,5.0,0.0
4966,65.0,0,30,1.0,0.0
4967,60.0,4,30,2.0,0.0
4968,57.0,0,30,3.0,0.0
4969,77.0,12,15,5.0,0.0
4970,57.0,0,30,6.0,0.0
4971,75.0,12,15,5.0,0.0
4972,77.0,8,15,5.0,0.0
4973,75.0,12,15,5.0,0.0
4974,69.0,0,30,1.0,0.0
4975,65.0,4,30,2.0,0.0
4976,60.0,0,30,3.0,0.0
4977,77.0,12,15,5.0,0.0
4978,60.0,0,30,6.0,0.0
4979,75.0,12,15,5.0,0.0
4980,77.0,8,15,5.0,0.0
4981,75.0,12,15,5.0,0.0
4982,72.0,0,30,1.0,0.0
4983,69.0,26,30,2.0,0.0
4984,66.0,0,30,3.0,0.0
4985,77.0,12,15,5.0,0.0
4986,66.0,0,30,6.0,0.0
4987,75.0,12,15,5.0,0.0
4988,77.0,8,15,5.0,0.0
4989,75.0,22,30,5.0,0.0
4990,70.0,0,30,1.0,0.0
4991,58.0,0,30,2.0,0.0
4992,65.0,0,30,3.0,0.0
4993,46.0,0,30,4.0,0.0
4994,46.0,2,30,6.0,0.0
4995,78.0,24,20,5.0,0.0
4996,65.0,0,30,1.0,0.0
4997,67.0,0,30,2.0,0.0
4998,58.0,0,30,3.0,0.0
4999,49.0,0,30,4.0,0.0
5000,77.0,22,20,5.0,0.0
5001,49.0,2,30,6.0,0.0
5002,75.0,24,20,5.0,0.0
5003,69.0,0,30,1.0,0.0
5004,65.0,0,30,2.0,0.0
5005,60.0,0,30,3.0,0.0
5006,53.0,0,30,4.0,0.0
5007,73.0,22,20,5.0,0.0
5008,53.0,2,30,6.0,0.0
5009,72.0,24,20,5.0,0.0
5010,70.0,0,30,1.0,0.0
5011,65.0,0,30,2.0,0.0
5012,58.0,0,30,3.0,0.0
5013,58.0,0,30,4.0,0.0
5014,73.0,22,20,5.0,0.0
5015,58.0,2,30,6.0,0.0
5016,70.0,24,20,5.0,0.0
5017,72.0,22,20,5.0,0.0
5018,46.0,2,30,6.0,0.0
5019,70.0,24,20,5.0,0.0
5020,69.0,24,20,5.0,0.0
5021,58.0,2,90,6.0,0.0
5022,70.0,24,20,5.0,0.0
5023,76.0,22,20,5.0,0.0
5024,70.0,24,20,5.0,0.0
5025,72.0,22,20,5.0,0.0
5026,48.0,2,30,6.0,0.0
5027,70.0,24,20,5.0,0.0
5028,69.0,24,20,5.0,0.0
5029,58.0,2,90,6.0,0.0
5030,70.0,24,20,5.0,0.0
5031,77.0,22,20,5.0,0.0
5032,70.0,24,20,5.0,0.0
5033,72.0,22,20,5.0,0.0
5034,49.0,2,30,6.0,0.0
5035,70.0,24,20,5.0,0.0
5036,69.0,24,20,5.0,0.0
5037,58.0,2,90,6.0,0.0
5038,70.0,24,20,5.0,0.0
5039,79.0,22,20,5.0,0.0
5040,72.0,24,20,5.0,0.0
5041,74.0,22,20,5.0,0.0
5042,52.0,2,30,6.0,0.0
5043,76.0,24,20,5.0,0.0
5044,77.0,22,20,5.0,0.0
5045,48.0,2,30,6.0,0.0
5046,79.0,14,20,5.0,0.0
5047,59.0,0,30,1.0,0.0
5048,80.0,12,15,5.0,0.0
5049,59.0,48,30,6.0,0.0
5050,53.0,0,30,6.0,0.0
5051,79.0,20,15,5.0,0.0
5052,80.0,16,120,5.0,0.0
5053,62.0,48,30,1.0,0.0
5054,62.0,0,30,6.0,0.0
5055,65.0,0,30,1.0,0.0
5056,65.0,0,30,6.0,0.0
5057,62.0,0,30,1.0,0.0
5058,59.0,4,30,2.0,0.0
5059,80.0,12,15,5.0,0.0
5060,59.0,0,30,6.0,0.0
5061,79.0,12,15,5.0,0.0
5062,80.0,8,15,5.0,0.0
5063,79.0,12,15,5.0,0.0
5064,67.0,0,30,1.0,0.0
5065,62.0,4,30,2.0,0.0
5066,80.0,12,15,5.0,0.0
5067,62.0,0,30,6.0,0.0
5068,79.0,12,15,5.0,0.0
5069,80.0,8,15,5.0,0.0
5070,79.0,12,15,5.0,0.0
5071,71.0,0,30,1.0,0.0
5072,67.0,4,30,2.0,0.0
5073,80.0,12,15,5.0,0.0
5074,67.0,0,30,6.0,0.0
5075,79.0,12,15,5.0,0.0
5076,80.0,8,15,5.0,0.0
5077,79.0,12,15,5.0,0.0
5078,67.0,0,30,1.0,0.0
5079,62.0,4,30,2.0,0.0
5080,59.0,0,30,3.0,0.0
5081,79.0,12,15,5.0,0.0
5082,59.0,0,30,6.0,0.0
5083,77.0,12,15,5.0,0.0
5084,79.0,8,15,5.0,0.0
5085,77.0,12,15,5.0,0.0
5086,71.0,0,30,1.0,0.0
5087,67.0,4,30,2.0,0.0
5088,62.0,0,30,3.0,0.0
5089,79.0,12,15,5.0,0.0
5090,62.0,0,30,6.0,0.0
5091,77.0,12,15,5.0,0.0
5092,79.0,8,15,5.0,0.0
5093,77.0,12,15,5.0,0.0
5094,74.0,0,30,1.0,0.0
5095,71.0,26,30,2.0,0.0
5096,68.0,0,30,3.0,0.0
5097,79.0,12,15,5.0,0.0
5098,68.0,0,30,6.0,0.0
5099,77.0,12,15,5.0,0.0
5100,79.0,8,15,5.0,0.0
5101,77.0,22,30,5.0,0.0
5102,72.0,0,30,1.0,0.0
5103,60.0,2,30,2.0,0.0
5104,67.0,0,30,3.0,0.0
5105,48.0,0,30,4.0,0.0
5106,67.0,0,20,6.0,0.0
5107,80.0,24,20,5.0,0.0
5108,48.0,0,20,6.0,0.0
5109,67.0,0,30,1.0,0.0
5110,72.0,0,30,2.0,0.0
5111,60.0,0,30,3.0,0.0
5112,51.0,0,30,4.0,0.0
5113,79.0,22,20,5.0,0.0
5114,51.0,2,30,6.0,0.0
5115,77.0,24,20,5.0,0.0
5116,71.0,0,30,1.0,0.0
5117,67.0,0,30,2.0,0.0
5118,62.0,0,30,3.0,0.0
5119,55.0,0,30,4.0,0.0
5120,75.0,22,20,5.0,0.0
5121,55.0,2,30,6.0,0.0
5122,74.0,24,20,5.0,0.0
5123,72.0,0,30,1.0,0.0
5124,67.0,0,30,2.0,0.0
5125,60.0,0,30,3.0,0.0
5126,60.0,0,30,4.0,0.0
5127,75.0,22,20,5.0,0.0
5128,60.0,2,30,6.0,0.0
5129,72.0,24,20,5.0,0.0
5130,74.0,22,20,5.0,0.0
5131,48.0,2,30,6.0,0.0
5132,72.0,24,20,5.0,0.0
5133,71.0,22,20,5.0,0.0
5134,51.0,2,30,6.0,0.0
5135,72.0,24,20,5.0,0.0
5136,72.0,0,30,1.0,0.0
5137,65.0,0,30,2.0,0.0
5138,60.0,0,30,3.0,0.0
5139,53.0,0,30,4.0,0.0
5140,80.0,22,20,5.0,0.0
5141,53.0,2,30,6.0,0.0
5142,79.0,24,20,5.0,0.0
5143,77.0,22,20,5.0,0.0
5144,55.0,2,30,6.0,0.0
5145,75.0,24,20,5.0,0.0
5146,74.0,22,20,5.0,0.0
5147,56.0,2,30,6.0,0.0
5148,72.0,24,20,5.0,0.0
5149,70.0,0,30,1.0,0.0
5150,65.0,0,30,2.0,0.0
5151,53.0,0,30,3.0,0.0
5152,58.0,0,30,4.0,0.0
5153,74.0,22,20,5.0,0.0
5154,58.0,2,30,6.0,0.0
5155,70.0,24,20,5.0,0.0
5156,72.0,22,20,5.0,0.0
5157,46.0,2,30,6.0,0.0
5158,70.0,24,20,5.0,0.0
5159,69.0,22,20,5.0,0.0
5160,50.0,2,30,6.0,0.0
5161,70.0,24,20,5.0,0.0
5162,70.0,0,30,1.0,0.0
5163,63.0,0,30,2.0,0.0
5164,55.0,0,30,3.0,0.0
5165,51.0,0,30,4.0,0.0
5166,79.0,22,20,5.0,0.0
5167,51.0,2,30,6.0,0.0
5168,77.0,24,20,5.0,0.0
5169,75.0,22,20,5.0,0.0
5170,53.0,2,30,6.0,0.0
5171,74.0,24,20,5.0,0.0
5172,72.0,22,20,5.0,0.0
5173,55.0,2,30,6.0,0.0
5174,71.0,24,20,5.0,0.0
5175,68.0,0,30,1.0,0.0
5176,63.0,0,30,2.0,0.0
5177,60.0,0,30,3.0,0.0
5178,56.0,0,30,4.0,0.0
5179,72.0,22,20,5.0,0.0
5180,56.0,2,30,6.0,0.0
5181,68.0,24,20,5.0,0.0
5182,70.0,22,20,5.0,0.0
5183,53.0,2,30,6.0,0.0
5184,68.0,24,20,5.0,0.0
5185,67.0,22,20,5.0,0.0
5186,51.0,2,30,6.0,0.0
5187,68.0,24,20,5.0,0.0
5188,68.0,22,20,1.0,0.0
5189,65.0,0,20,2.0,0.0
5190,68.0,0,150,3.0,0.0
5191,50.0,0,30,4.0,0.0
5192,77.0,22,150,5.0,0.0
5193,50.0,2,30,6.0,0.0
5194,67.0,0,20,1.0,0.0
5195,63.0,24,20,2.0,0.0
5196,65.0,22,20,1.0,0.0
5197,62.0,0,20,2.0,0.0
5198,51.0,2,30,6.0,0.0
5199,63.0,0,20,1.0,0.0
5200,60.0,24,20,2.0,0.0
5201,62.0,22,20,1.0,0.0
5202,59.0,0,20,2.0,0.0
5203,53.0,2,30,6.0,0.0
5204,60.0,0,20,1.0,0.0
5205,57.0,24,20,2.0,0.0
5206,59.0,2,30,1.0,0.0
5207,55.0,0,30,2.0,0.0
5208,55.0,0,150,4.0,0.0
5209,55.0,22,150,6.0,0.0
5210,67.0,0,20,3.0,0.0
5211,75.0,24,20,5.0,0.0
5212,65.0,24,20,3.0,0.0
5213,74.0,0,20,5.0,0.0
5214,63.0,24,20,3.0,0.0
5215,72.0,0,20,5.0,0.0
5216,62.0,24,20,3.0,0.0
5217,71.0,0,20,5.0,0.0
5218,60.0,24,20,3.0,0.0
5219,69.0,0,20,5.0,0.0
5220,59.0,2,30,3.0,0.0
5221,67.0,0,20,5.0,0.0
5222,53.0,0,20,4.0,0.0
5223,68.0,0,20,5.0,0.0
5224,53.0,24,20,6.0,0.0
5225,51.0,24,20,4.0,0.0
5226,67.0,0,20,5.0,0.0
5227,51.0,0,20,6.0,0.0
5228,50.0,24,20,4.0,0.0
5229,65.0,0,20,5.0,0.0
5230,50.0,0,20,6.0,0.0
5231,48.0,24,20,4.0,0.0
5232,63.0,0,20,5.0,0.0
5233,48.0,0,20,6.0,0.0
5234,47.0,24,20,4.0,0.0
5235,62.0,0,20,5.0,0.0
5236,47.0,0,20,6.0,0.0
5237,60.0,22,20,1.0,0.0
5238,55.0,0,30,2.0,0.0
5239,51.0,0,30,3.0,0.0
5240,48.0,0,30,4.0,0.0
5241,63.0,0,20,5.0,0.0
5242,48.0,2,30,6.0,0.0
5243,62.0,24,20,1.0,0.0
5244,62.0,0,20,5.0,0.0
5245,63.0,22,20,1.0,0.0
5246,60.0,0,30,2.0,0.0
5247,55.0,0,30,3.0,0.0
5248,36.0,0,30,4.0,0.0
5249,63.0,0,20,5.0,0.0
5250,36.0,2,30,6.0,0.0
5251,65.0,46,20,1.0,0.0
5252,65.0,0,20,5.0,0.0
5253,67.0,0,30,1.0,0.0
5254,63.0,26,30,2.0,0.0
5255,60.0,0,30,3.0,0.0
5256,48.0,0,60,4.0,0.0
5257,67.0,0,30,5.0,0.0
5258,48.0,22,60,6.0,0.0
5259,63.0,0,30,1.0,0.0
5260,60.0,0,30,2.0,0.0
5261,55.0,0,30,3.0,0.0
5262,63.0,2,30,5.0,0.0
5263,50.0,24,20,4.0,0.0
5264,50.0,0,20,6.0,0.0
5265,67.0,0,30,1.0,0.0
5266,60.0,2,30,2.0,0.0
5267,55.0,0,30,3.0,0.0
5268,51.0,22,20,4.0,0.0
5269,67.0,0,30,5.0,0.0
5270,51.0,0,20,6.0,0.0
5271,53.0,24,20,4.0,0.0
5272,53.0,0,20,6.0,0.0
5273,71.0,0,90,1.0,0.0
5274,65.0,0,90,2.0,0.0
5275,55.0,2,30,3.0,0.0
5276,50.0,22,20,4.0,0.0
5277,71.0,4,90,5.0,0.0
5278,50.0,0,20,6.0,0.0
5279,51.0,0,20,4.0,0.0
5280,51.0,14,20,6.0,0.0
5281,55.0,3,90,3.0,0.0
5282,50.0,12,15,4.0,0.0
5283,49.0,0,15,6.0,0.0
5284,48.0,12,15,4.0,0.0
5285,48.0,0,15,6.0,0.0
5286,50.0,8,15,4.0,0.0
5287,49.0,0,15,6.0,0.0
5288,48.0,12,15,4.0,0.0
5289,48.0,0,15,6.0,0.0
5290,72.0,0,30,1.0,0.0
5291,63.0,4,30,2.0,0.0
5292,50.0,12,15,4.0,0.0
5293,72.0,0,30,5.0,0.0
5294,49.0,0,15,6.0,0.0
5295,48.0,12,15,4.0,0.0
5296,48.0,0,15,6.0,0.0
5297,50.0,5,15,4.0,0.0
5298,49.0,0,15,6.0,0.0
5299,48.0,44,15,4.0,0.0
5300,48.0,0,15,6.0,0.0
5301,67.0,0,30,1.0,0.0
5302,62.0,0,30,2.0,0.0
5303,55.0,0,30,3.0,0.0
5304,47.0,16,30,4.0,0.0
5305,67.0,0,30,5.0,0.0
5306,47.0,0,30,6.0,0.0
5307,65.0,10,15,1.0,0.0
5308,62.0,0,15,2.0,0.0
5309,55.0,5,90,3.0,0.0
5310,48.0,0,20,4.0,0.0
5311,65.0,0,15,5.0,0.0
5312,48.0,2,20,6.0,0.0
5313,63.0,0,15,1.0,0.0
5314,60.0,0,15,2.0,0.0
5315,63.0,12,15,5.0,0.0
5316,65.0,10,15,1.0,0.0
5317,62.0,0,15,2.0,0.0
5318,50.0,2,20,4.0,0.0
5319,65.0,0,15,5.0,0.0
5320,50.0,0,20,6.0,0.0
5321,63.0,0,15,1.0,0.0
5322,60.0,0,15,2.0,0.0
5323,63.0,12,15,5.0,0.0
5324,65.0,10,15,1.0,0.0
5325,62.0,0,15,2.0,0.0
5326,51.0,2,20,4.0,0.0
5327,65.0,0,15,5.0,0.0
5328,51.0,0,20,6.0,0.0
5329,63.0,0,15,1.0,0.0
5330,60.0,0,15,2.0,0.0
5331,63.0,12,15,5.0,0.0
5332,65.0,5,15,1.0,0.0
5333,62.0,0,15,2.0,0.0
5334,53.0,0,20,4.0,0.0
5335,65.0,0,15,5.0,0.0
5336,53.0,2,20,6.0,0.0
5337,63.0,0,15,1.0,0.0
5338,60.0,0,15,2.0,0.0
5339,63.0,22,15,5.0,0.0
5340,62.0,0,30,1.0,0.0
5341,59.0,2,30,2.0,0.0
5342,55.0,0,30,3.0,0.0
5343,55.0,22,20,4.0,0.0
5344,62.0,0,30,5.0,0.0
5345,55.0,0,20,6.0,0.0
5346,53.0,24,20,4.0,0.0
5347,53.0,0,20,6.0,0.0
5348,60.0,22,20,1.0,0.0
5349,55.0,0,30,2.0,0.0
5350,55.0,0,30,3.0,0.0
5351,51.0,0,30,4.0,0.0
5352,60.0,0,20,5.0,0.0
5353,51.0,2,30,6.0,0.0
5354,62.0,24,20,1.0,0.0
5355,62.0,0,20,5.0,0.0
5356,63.0,22,20,1.0,0.0
5357,60.0,0,30,2.0,0.0
5358,55.0,0,30,3.0,0.0
5359,48.0,0,30,4.0,0.0
5360,63.0,0,20,5.0,0.0
5361,48.0,2,30,6.0,0.0
5362,65.0,46,20,1.0,0.0
5363,65.0,0,20,5.0,0.0
5364,67.0,0,30,1.0,0.0
5365,62.0,0,30,2.0,0.0
5366,55.0,0,30,3.0,0.0
5367,47.0,26,30,4.0,0.0
5368,67.0,0,30,5.0,0.0
5369,47.0,0,30,6.0,0.0
5370,63.0,0,30,1.0,0.0
5371,60.0,2,30,2.0,0.0
5372,55.0,0,30,3.0,0.0
5373,48.0,22,20,4.0,0.0
5374,63.0,0,30,5.0,0.0
5375,48.0,0,20,6.0,0.0
5376,50.0,24,20,4.0,0.0
5377,50.0,0,20,6.0,0.0
5378,67.0,0,30,1.0,0.0
5379,60.0,2,30,2.0,0.0
5380,60.0,0,30,3.0,0.0
5381,51.0,22,20,4.0,0.0
5382,67.0,0,30,5.0,0.0
5383,51.0,0,20,6.0,0.0
5384,50.0,24,20,4.0,0.0
5385,50.0,0,20,6.0,0.0
5386,72.0,0,30,1.0,0.0
5387,67.0,2,30,2.0,0.0
5388,63.0,0,30,3.0,0.0
5389,51.0,22,20,4.0,0.0
5390,72.0,0,30,5.0,0.0
5391,51.0,0,20,6.0,0.0
5392,48.0,46,20,4.0,0.0
5393,48.0,0,20,6.0,0.0
5394,74.0,0,30,1.0,0.0
5395,71.0,0,30,2.0,0.0
5396,67.0,0,30,3.0,0.0
5397,43.0,0,30,4.0,0.0
5398,71.0,0,30,5.0,0.0
5399,67.0,0,30,5.0,0.0
5400,74.0,48,30,5.0,0.0
5401,43.0,0,30,6.0,0.0
5402,67.0,0,30,1.0,0.0
5403,62.0,0,30,2.0,0.0
5404,59.0,0,30,3.0,0.0
5405,55.0,0,30,4.0,0.0
5406,62.0,0,30,5.0,0.0
5407,59.0,0,30,5.0,0.0
5408,67.0,96,30,5.0,0.0
5409,55.0,0,30,6.0,0.0
5410,71.0,0,30,5.0,0.0
5411,67.0,0,30,5.0,0.0
5412,74.0,48,30,5.0,0.0
5413,43.0,0,30,6.0,0.0
5414,59.0,0,30,5.0,0.0
5415,62.0,0,30,5.0,0.0
5416,67.0,96,30,5.0,0.0
5417,55.0,0,30,6.0,0.0
5418,75.0,0,30,1.0,0.0
5419,72.0,0,30,2.0,0.0
5420,67.0,0,30,3.0,0.0
5421,43.0,0,30,4.0,0.0
5422,67.0,0,30,5.0,0.0
5423,72.0,0,30,5.0,0.0
5424,75.0,48,30,5.0,0.0
5425,43.0,0,30,6.0,0.0
5426,67.0,0,30,1.0,0.0
5427,63.0,0,30,2.0,0.0
5428,60.0,0,30,3.0,0.0
5429,55.0,0,30,4.0,0.0
5430,63.0,0,30,5.0,0.0
5431,67.0,0,30,5.0,0.0
5432,60.0,96,30,5.0,0.0
5433,55.0,0,30,6.0,0.0
5434,72.0,0,30,5.0,0.0
5435,75.0,0,30,5.0,0.0
5436,67.0,48,30,5.0,0.0
5437,43.0,0,30,6.0,0.0
5438,63.0,0,30,5.0,0.0
5439,60.0,0,30,5.0,0.0
5440,67.0,96,30,5.0,0.0
5441,55.0,0,30,6.0,0.0
5442,77.0,0,30,1.0,0.0
5443,71.0,0,30,2.0,0.0
5444,62.0,0,30,3.0,0.0
5445,43.0,0,30,4.0,0.0
5446,71.0,0,30,5.0,0.0
5447,77.0,0,30,5.0,0.0
5448,67.0,48,30,5.0,0.0
5449,43.0,0,30,6.0,0.0
5450,67.0,0,30,1.0,0.0
5451,62.0,0,30,2.0,0.0
5452,59.0,0,30,3.0,0.0
5453,55.0,0,30,4.0,0.0
5454,59.0,0,30,5.0,0.0
5455,62.0,0,30,5.0,0.0
5456,67.0,96,30,5.0,0.0
5457,55.0,0,30,6.0,0.0
5458,74.0,0,30,5.0,0.0
5459,71.0,0,30,5.0,0.0
5460,77.0,48,30,5.0,0.0
5461,43.0,0,30,6.0,0.0
5462,59.0,0,30,5.0,0.0
5463,62.0,0,30,5.0,0.0
5464,67.0,74,30,5.0,0.0
5465,55.0,0,30,6.0,0.0
5466,72.0,22,20,1.0,0.0
5467,75.0,2,180,5.0,0.0
5468,48.0,2,30,6.0,0.0
5469,70.0,24,20,1.0,0.0
5470,68.0,22,20,1.0,0.0
5471,51.0,2,30,6.0,0.0
5472,67.0,24,20,1.0,0.0
5473,65.0,22,20,1.0,0.0
5474,55.0,2,30,6.0,0.0
5475,63.0,24,20,1.0,0.0
5476,65.0,22,20,1.0,0.0
5477,44.0,0,30,6.0,0.0
5478,60.0,14,20,1.0,0.0
5479,65.0,2,20,1.0,0.0
5480,74.0,10,15,5.0,0.0
5481,56.0,2,30,6.0,0.0
5482,75.0,20,15,5.0,0.0
5483,67.0,46,20,1.0,0.0
5484,74.0,0,20,5.0,0.0
5485,68.0,22,60,1.0,0.0
5486,72.0,26,30,5.0,0.0
5487,71.0,0,20,5.0,0.0
5488,50.0,2,30,6.0,0.0
5489,67.0,24,20,1.0,0.0
5490,72.0,0,20,5.0,0.0
5491,65.0,22,20,1.0,0.0
5492,74.0,0,20,5.0,0.0
5493,53.0,2,30,6.0,0.0
5494,63.0,24,20,1.0,0.0
5495,75.0,0,20,5.0,0.0
5496,62.0,22,20,1.0,0.0
5497,77.0,22,60,5.0,0.0
5498,56.0,2,30,6.0,0.0
5499,60.0,24,20,1.0,0.0
5500,59.0,0,20,1.0,0.0
5501,43.0,2,30,6.0,0.0
5502,60.0,24,20,1.0,0.0
5503,75.0,0,20,5.0,0.0
5504,62.0,22,20,1.0,0.0
5505,74.0,0,20,5.0,0.0
5506,55.0,2,30,6.0,0.0
5507,63.0,24,20,1.0,0.0
5508,72.0,0,20,5.0,0.0
5509,65.0,22,60,1.0,0.0
5510,71.0,24,20,5.0,0.0
5511,69.0,24,20,5.0,0.0
5512,62.0,0,30,2.0,0.0
5513,55.0,0,30,3.0,0.0
5514,47.0,0,30,4.0,0.0
5515,67.0,0,30,5.0,0.0
5516,47.0,2,30,6.0,0.0
5517,67.0,24,20,1.0,0.0
5518,69.0,22,20,1.0,0.0
5519,62.0,0,30,2.0,0.0
5520,55.0,0,30,3.0,0.0
5521,47.0,0,30,4.0,0.0
5522,69.0,0,20,5.0,0.0
5523,47.0,2,30,6.0,0.0
5524,71.0,24,20,1.0,0.0
5525,71.0,0,20,5.0,0.0
5526,72.0,22,20,1.0,0.0
5527,62.0,0,30,2.0,0.0
5528,55.0,0,30,3.0,0.0
5529,47.0,0,30,4.0,0.0
5530,72.0,0,20,5.0,0.0
5531,47.0,2,30,6.0,0.0
5532,74.0,24,20,1.0,0.0
5533,74.0,0,20,5.0,0.0
5534,75.0,0,30,1.0,0.0
5535,60.0,0,20,2.0,0.0
5536,55.0,0,30,3.0,0.0
5537,48.0,22,20,4.0,0.0
5538,75.0,2,30,5.0,0.0
5539,48.0,0,20,6.0,0.0
5540,62.0,0,20,2.0,0.0
5541,47.0,0,20,4.0,0.0
5542,47.0,24,20,6.0,0.0
5543,71.0,0,30,1.0,0.0
5544,63.0,0,20,2.0,0.0
5545,67.0,0,30,3.0,0.0
5546,48.0,22,20,4.0,0.0
5547,71.0,2,30,5.0,0.0
5548,48.0,0,20,6.0,0.0
5549,65.0,0,20,2.0,0.0
5550,50.0,0,20,4.0,0.0
5551,50.0,24,20,6.0,0.0
5552,72.0,0,30,1.0,0.0
5553,67.0,0,20,2.0,0.0
5554,60.0,0,90,3.0,0.0
5555,51.0,22,20,4.0,0.0
5556,72.0,2,30,5.0,0.0
5557,51.0,0,20,6.0,0.0
5558,68.0,0,20,2.0,0.0
5559,53.0,0,20,4.0,0.0
5560,53.0,46,20,6.0,0.0
5561,63.0,0,30,1.0,0.0
5562,55.0,0,30,2.0,0.0
5563,55.0,48,30,4.0,0.0
5564,63.0,0,30,5.0,0.0
5565,55.0,0,30,6.0,0.0
5566,65.0,0,30,1.0,0.0
5567,62.0,0,30,2.0,0.0
5568,56.0,0,30,3.0,0.0
5569,53.0,48,30,4.0,0.0
5570,65.0,0,30,5.0,0.0
5571,53.0,0,30,6.0,0.0
5572,62.0,0,30,1.0,0.0
5573,59.0,0,30,2.0,0.0
5574,55.0,0,30,3.0,0.0
5575,55.0,48,30,4.0,0.0
5576,62.0,0,30,5.0,0.0
5577,55.0,0,30,6.0,0.0
5578,60.0,0,150,1.0,0.0
5579,55.0,0,150,2.0,0.0
5580,51.0,2,150,3.0,0.0
5581,48.0,26,30,4.0,0.0
5582,60.0,2,90,5.0,0.0
5583,48.0,0,30,6.0,0.0
5584,43.0,22,20,4.0,0.0
5585,43.0,0,20,6.0,0.0
5586,41.0,0,20,4.0,0.0
5587,41.0,24,20,6.0,0.0
5588,39.0,22,20,4.0,0.0
5589,39.0,0,20,6.0,0.0
5590,38.0,0,20,4.0,0.0
5591,38.0,24,20,6.0,0.0
5592,60.0,2,30,2.0,0.0
5593,36.0,0,90,4.0,0.0
5594,72.0,22,20,5.0,0.0
5595,36.0,3,90,6.0,0.0
5596,67.0,24,20,5.0,0.0
5597,63.0,2,30,2.0,0.0
5598,72.0,19,20,5.0,0.0
5599,74.0,24,20,5.0,0.0
5600,67.0,2,30,2.0,0.0
5601,75.0,22,20,5.0,0.0
5602,74.0,24,20,5.0,0.0
5603,60.0,22,20,1.0,0.0
5604,63.0,0,30,2.0,0.0
5605,48.0,2,30,3.0,0.0
5606,72.0,0,30,5.0,0.0
5607,60.0,0,30,6.0,0.0
5608,55.0,24,20,1.0,0.0
5609,60.0,22,20,1.0,0.0
5610,67.0,0,30,2.0,0.0
5611,51.0,2,30,3.0,0.0
5612,79.0,22,120,5.0,0.0
5613,63.0,0,30,6.0,0.0
5614,62.0,24,20,1.0,0.0
5615,63.0,22,20,1.0,0.0
5616,72.0,2,30,2.0,0.0
5617,55.0,0,30,3.0,0.0
5618,67.0,0,30,6.0,0.0
5619,62.0,24,20,1.0,0.0
5620,60.0,0,30,1.0,0.0
5621,67.0,0,30,2.0,0.0
5622,51.0,0,30,3.0,0.0
5623,36.0,0,30,4.0,0.0
5624,48.0,2,30,6.0,0.0
5625,77.0,24,20,5.0,0.0
5626,67.0,22,120,1.0,0.0
5627,60.0,0,30,2.0,0.0
5628,55.0,0,30,3.0,0.0
5629,39.0,0,30,4.0,0.0
5630,75.0,22,20,5.0,0.0
5631,51.0,2,30,6.0,0.0
5632,74.0,24,20,5.0,0.0
5633,62.0,0,30,2.0,0.0
5634,55.0,0,30,3.0,0.0
5635,43.0,0,30,4.0,0.0
5636,72.0,22,20,5.0,0.0
5637,55.0,2,30,6.0,0.0
5638,71.0,24,20,5.0,0.0
5639,63.0,0,30,2.0,0.0
5640,55.0,0,30,3.0,0.0
5641,39.0,0,30,4.0,0.0
5642,72.0,0,30,5.0,0.0
5643,51.0,2,30,6.0,0.0
5644,65.0,24,20,1.0,0.0
5645,63.0,22,20,1.0,0.0
5646,67.0,0,30,2.0,0.0
5647,60.0,0,30,3.0,0.0
5648,36.0,0,30,4.0,0.0
5649,79.0,0,150,5.0,0.0
5650,48.0,2,30,6.0,0.0
5651,62.0,14,20,1.0,0.0
5652,60.0,2,20,1.0,0.0
5653,62.0,0,30,2.0,0.0
5654,53.0,2,30,3.0,0.0
5655,38.0,0,30,4.0,0.0
5656,51.0,10,15,6.0,0.0
5657,50.0,12,15,6.0,0.0
5658,59.0,2,20,1.0,0.0
5659,48.0,8,15,6.0,0.0
5660,50.0,44,15,6.0,0.0
5661,60.0,0,30,1.0,0.0
5662,60.0,0,30,2.0,0.0
5663,51.0,26,30,3.0,0.0
5664,39.0,0,30,4.0,0.0
5665,51.0,0,30,6.0,0.0
5666,65.0,2,150,1.0,0.0
5667,77.0,22,20,5.0,0.0
5668,56.0,2,30,6.0,0.0
5669,75.0,24,20,5.0,0.0
5670,74.0,22,20,5.0,0.0
5671,53.0,2,30,6.0,0.0
5672,72.0,24,20,5.0,0.0
5673,71.0,22,20,5.0,0.0
5674,55.0,0,20,6.0,0.0
5675,72.0,24,20,5.0,0.0
5676,56.0,0,20,6.0,0.0
5677,71.0,5,90,1.0,0.0
5678,74.0,24,20,5.0,0.0
5679,55.0,0,20,6.0,0.0
5680,68.0,24,20,5.0,0.0
5681,53.0,0,20,6.0,0.0
5682,67.0,19,20,5.0,0.0
5683,51.0,0,20,6.0,0.0
5684,65.0,24,20,5.0,0.0
5685,50.0,0,20,6.0,0.0
5686,72.0,2,30,1.0,0.0
5687,63.0,22,20,5.0,0.0
5688,48.0,0,20,6.0,0.0
5689,67.0,24,20,5.0,0.0
5690,46.0,0,20,6.0,0.0
5691,60.0,2,30,1.0,0.0
5692,65.0,22,20,5.0,0.0
5693,44.0,0,20,6.0,0.0
5694,63.0,24,20,5.0,0.0
5695,43.0,0,20,6.0,0.0
5696,72.0,2,90,1.0,0.0
5697,62.0,24,20,5.0,0.0
5698,41.0,0,20,6.0,0.0
5699,60.0,14,20,5.0,0.0
5700,44.0,0,20,6.0,0.0
5701,68.0,10,15,5.0,0.0
5702,43.0,2,20,6.0,0.0
5703,67.0,12,15,5.0,0.0
5704,68.0,8,15,5.0,0.0
5705,44.0,2,20,6.0,0.0
5706,67.0,12,15,5.0,0.0
5707,71.0,2,20,1.0,0.0
5708,68.0,10,15,5.0,0.0
5709,43.0,0,20,6.0,0.0
5710,67.0,12,15,5.0,0.0
5711,69.0,2,20,1.0,0.0
5712,68.0,10,15,5.0,0.0
5713,41.0,0,20,6.0,0.0
5714,67.0,12,15,5.0,0.0
5715,67.0,2,20,1.0,0.0
5716,68.0,10,15,5.0,0.0
5717,39.0,0,20,6.0,0.0
5718,67.0,12,15,5.0,0.0
5719,65.0,2,20,1.0,0.0
5720,68.0,10,15,5.0,0.0
5721,38.0,0,20,6.0,0.0
5722,67.0,12,15,5.0,0.0
5723,63.0,2,20,1.0,0.0
5724,55.0,0,30,2.0,0.0
5725,60.0,2,30,3.0,0.0
5726,68.0,10,15,5.0,0.0
5727,36.0,0,30,6.0,0.0
5728,67.0,12,15,5.0,0.0
5729,62.0,2,20,1.0,0.0
5730,68.0,8,15,5.0,0.0
5731,67.0,12,15,5.0,0.0
5732,63.0,2,20,1.0,0.0
5733,60.0,0,30,2.0,0.0
5734,55.0,2,30,3.0,0.0
5735,68.0,10,15,5.0,0.0
5736,48.0,0,30,6.0,0.0
5737,67.0,12,15,5.0,0.0
5738,65.0,2,20,1.0,0.0
5739,68.0,8,15,5.0,0.0
5740,67.0,12,15,5.0,0.0
5741,67.0,0,30,1.0,0.0
5742,62.0,4,30,2.0,0.0
5743,55.0,0,30,3.0,0.0
5744,68.0,12,15,5.0,0.0
5745,47.0,0,30,6.0,0.0
5746,67.0,12,15,5.0,0.0
5747,68.0,8,15,5.0,0.0
5748,67.0,12,15,5.0,0.0
5749,63.0,0,30,1.0,0.0
5750,60.0,0,30,2.0,0.0
5751,55.0,2,30,3.0,0.0
5752,48.0,0,20,4.0,0.0
5753,68.0,10,15,5.0,0.0
5754,48.0,2,20,6.0,0.0
5755,67.0,12,15,5.0,0.0
5756,50.0,0,20,4.0,0.0
5757,68.0,8,15,5.0,0.0
5758,50.0,2,20,6.0,0.0
5759,67.0,12,15,5.0,0.0
5760,67.0,0,30,1.0,0.0
5761,55.0,0,30,2.0,0.0
5762,60.0,2,30,3.0,0.0
5763,51.0,0,20,4.0,0.0
5764,68.0,10,15,5.0,0.0
5765,51.0,2,20,6.0,0.0
5766,67.0,12,15,5.0,0.0
5767,53.0,0,20,4.0,0.0
5768,68.0,8,15,5.0,0.0
5769,53.0,2,20,6.0,0.0
5770,67.0,12,15,5.0,0.0
5771,71.0,0,90,1.0,0.0
5772,62.0,4,90,2.0,0.0
5773,55.0,2,30,3.0,0.0
5774,55.0,0,20,4.0,0.0
5775,68.0,10,15,5.0,0.0
5776,55.0,2,20,6.0,0.0
5777,67.0,12,15,5.0,0.0
5778,53.0,0,20,4.0,0.0
5779,68.0,8,15,5.0,0.0
5780,53.0,2,20,6.0,0.0
5781,67.0,12,15,5.0,0.0
5782,55.0,0,30,3.0,0.0
5783,51.0,3,90,4.0,0.0
5784,68.0,12,15,5.0,0.0
5785,53.0,0,15,6.0,0.0
5786,67.0,12,15,5.0,0.0
5787,51.0,0,15,6.0,0.0
5788,68.0,8,15,5.0,0.0
5789,53.0,0,15,6.0,0.0
5790,67.0,12,15,5.0,0.0
5791,51.0,0,15,6.0,0.0
5792,72.0,0,30,1.0,0.0
5793,63.0,4,30,2.0,0.0
5794,55.0,0,30,3.0,0.0
5795,68.0,12,15,5.0,0.0
5796,53.0,0,15,6.0,0.0
5797,67.0,12,15,5.0,0.0
5798,51.0,0,15,6.0,0.0
5799,68.0,5,15,5.0,0.0
5800,53.0,0,15,6.0,0.0
5801,67.0,12,15,5.0,0.0
5802,51.0,0,15,6.0,0.0
5803,67.0,0,30,1.0,0.0
5804,62.0,0,30,2.0,0.0
5805,55.0,0,30,3.0,0.0
5806,47.0,0,30,4.0,0.0
5807,68.0,12,15,5.0,0.0
5808,47.0,16,30,6.0,0.0
5809,67.0,12,15,5.0,0.0
5810,68.0,8,15,5.0,0.0
5811,67.0,2,30,5.0,0.0
5812,65.0,10,15,1.0,0.0
5813,60.0,0,90,2.0,0.0
5814,55.0,0,90,3.0,0.0
5815,48.0,0,30,4.0,0.0
5816,48.0,2,30,6.0,0.0
5817,63.0,12,15,1.0,0.0
5818,65.0,8,15,1.0,0.0
5819,69.0,2,20,5.0,0.0
5820,63.0,12,15,1.0,0.0
5821,65.0,10,15,1.0,0.0
5822,55.0,0,30,4.0,0.0
5823,71.0,2,20,5.0,0.0
5824,55.0,2,30,6.0,0.0
5825,63.0,12,15,1.0,0.0
5826,65.0,8,15,1.0,0.0
5827,72.0,2,20,5.0,0.0
5828,63.0,22,15,1.0,0.0
5829,62.0,0,30,1.0,0.0
5830,59.0,4,30,2.0,0.0
5831,55.0,0,30,3.0,0.0
5832,43.0,0,30,4.0,0.0
5833,74.0,14,20,5.0,0.0
5834,43.0,0,30,6.0,0.0
5835,75.0,8,15,5.0,0.0
5836,77.0,22,15,5.0,0.0
5837,75.0,14,20,5.0,0.0
5838,48.0,4,30,6.0,0.0
5839,77.0,8,15,5.0,0.0
5840,79.0,22,15,5.0,0.0
5841,77.0,22,20,5.0,0.0
5842,50.0,2,30,6.0,0.0
5843,75.0,24,20,5.0,0.0
5844,74.0,24,20,5.0,0.0
5845,51.0,22,60,6.0,0.0
5846,72.0,24,20,5.0,0.0
5847,81.0,2,30,5.0,0.0
5848,48.0,24,20,6.0,0.0
5849,77.0,0,30,1.0,0.0
5850,74.0,2,30,2.0,0.0
5851,70.0,0,30,3.0,0.0
5852,81.0,0,30,5.0,0.0
5853,50.0,22,20,6.0,0.0
5854,51.0,24,20,6.0,0.0
5855,74.0,0,30,1.0,0.0
5856,70.0,2,30,2.0,0.0
5857,65.0,0,30,3.0,0.0
5858,82.0,0,30,5.0,0.0
5859,53.0,22,20,6.0,0.0
5860,50.0,24,20,6.0,0.0
5861,74.0,14,20,5.0,0.0
5862,46.0,4,30,6.0,0.0
5863,75.0,8,15,5.0,0.0
5864,77.0,22,15,5.0,0.0
5865,75.0,22,20,5.0,0.0
5866,48.0,2,30,6.0,0.0
5867,74.0,24,20,5.0,0.0
5868,72.0,24,20,5.0,0.0
5869,49.0,22,60,6.0,0.0
5870,70.0,24,20,5.0,0.0
5871,79.0,2,30,5.0,0.0
5872,46.0,24,20,6.0,0.0
5873,75.0,0,30,1.0,0.0
5874,72.0,2,30,2.0,0.0
5875,68.0,0,30,3.0,0.0
5876,79.0,0,30,5.0,0.0
5877,48.0,22,20,6.0,0.0
5878,49.0,24,20,6.0,0.0
5879,72.0,0,30,1.0,0.0
5880,68.0,2,30,2.0,0.0
5881,63.0,0,30,3.0,0.0
5882,80.0,0,30,5.0,0.0
5883,51.0,22,20,6.0,0.0
5884,48.0,24,20,6.0,0.0
5885,72.0,22,20,5.0,0.0
5886,44.0,2,30,6.0,0.0
5887,75.0,24,20,5.0,0.0
5888,77.0,22,20,5.0,0.0
5889,48.0,2,30,6.0,0.0
5890,75.0,24,20,5.0,0.0
5891,74.0,22,20,5.0,0.0
5892,51.0,2,30,6.0,0.0
5893,75.0,24,20,5.0,0.0
5894,70.0,22,20,5.0,0.0
5895,43.0,2,30,6.0,0.0
5896,75.0,24,20,5.0,0.0
5897,77.0,22,20,5.0,0.0
5898,46.0,2,30,6.0,0.0
5899,75.0,24,20,5.0,0.0
5900,74.0,22,20,5.0,0.0
5901,51.0,2,30,6.0,0.0
5902,75.0,24,20,5.0,0.0
5903,68.0,22,20,5.0,0.0
5904,41.0,2,30,6.0,0.0
5905,75.0,24,20,5.0,0.0
5906,77.0,22,20,5.0,0.0
5907,44.0,2,30,6.0,0.0
5908,75.0,24,20,5.0,0.0
5909,74.0,22,20,5.0,0.0
5910,46.0,2,30,6.0,0.0
5911,75.0,24,20,5.0,0.0
5912,67.0,22,20,5.0,0.0
5913,39.0,2,30,6.0,0.0
5914,75.0,24,20,5.0,0.0
5915,77.0,22,20,5.0,0.0
5916,43.0,2,30,6.0,0.0
5917,75.0,24,20,5.0,0.0
5918,74.0,22,20,5.0,0.0
5919,46.0,2,30,6.0,0.0
5920,75.0,24,20,5.0,0.0
5921,65.0,2,30,5.0,0.0
5922,45.0,22,20,6.0,0.0
5923,58.0,24,20,6.0,0.0
5924,72.0,2,30,5.0,0.0
5925,57.0,22,20,6.0,0.0
5926,55.0,24,20,6.0,0.0
5927,75.0,2,30,5.0,0.0
5928,53.0,22,20,6.0,0.0
5929,51.0,24,20,6.0,0.0
5930,81.0,2,30,5.0,0.0
5931,50.0,22,20,6.0,0.0
5932,48.0,24,20,6.0,0.0
5933,82.0,2,30,5.0,0.0
5934,46.0,22,20,6.0,0.0
5935,44.0,46,20,6.0,0.0
5936,75.0,48,30,5.0,0.0
5937,43.0,0,30,6.0,0.0
5938,80.0,26,30,5.0,0.0
5939,48.0,0,30,6.0,0.0
5940,79.0,22,20,5.0,0.0
5941,44.0,26,30,6.0,0.0
5942,77.0,14,30,5.0,0.0
5943,46.0,4,30,6.0,0.0
5944,75.0,8,15,5.0,0.0
5945,77.0,12,15,5.0,0.0
5946,39.0,2,20,4.0,0.0
5947,77.0,10,15,5.0,0.0
5948,39.0,0,20,6.0,0.0
5949,75.0,12,15,5.0,0.0
5950,41.0,2,20,4.0,0.0
5951,77.0,10,15,5.0,0.0
5952,41.0,0,20,6.0,0.0
5953,75.0,12,15,5.0,0.0
5954,43.0,2,20,4.0,0.0
5955,77.0,10,15,5.0,0.0
5956,43.0,0,20,6.0,0.0
5957,75.0,12,15,5.0,0.0
5958,44.0,2,20,4.0,0.0
5959,77.0,10,15,5.0,0.0
5960,44.0,0,20,6.0,0.0
5961,75.0,12,15,5.0,0.0
5962,46.0,2,20,4.0,0.0
5963,77.0,10,15,5.0,0.0
5964,46.0,0,20,6.0,0.0
5965,75.0,12,15,5.0,0.0
5966,44.0,2,20,4.0,0.0
5967,77.0,10,15,5.0,0.0
5968,44.0,0,20,6.0,0.0
5969,75.0,12,15,5.0,0.0
5970,63.0,2,20,1.0,0.0
5971,43.0,2,30,4.0,0.0
5972,77.0,10,15,5.0,0.0
5973,43.0,0,20,6.0,0.0
5974,75.0,12,15,5.0,0.0
5975,65.0,2,20,1.0,0.0
5976,77.0,8,15,5.0,0.0
5977,46.0,0,20,6.0,0.0
5978,75.0,12,15,5.0,0.0
5979,67.0,2,20,1.0,0.0
5980,43.0,2,30,4.0,0.0
5981,77.0,10,15,5.0,0.0
5982,51.0,0,20,6.0,0.0
5983,75.0,12,15,5.0,0.0
5984,68.0,2,20,1.0,0.0
5985,77.0,8,15,5.0,0.0
5986,53.0,0,20,6.0,0.0
5987,75.0,12,15,5.0,0.0
5988,70.0,2,20,1.0,0.0
5989,43.0,2,30,4.0,0.0
5990,77.0,10,15,5.0,0.0
5991,55.0,0,20,6.0,0.0
5992,75.0,12,15,5.0,0.0
5993,68.0,2,20,1.0,0.0
5994,77.0,8,15,5.0,0.0
5995,56.0,0,20,6.0,0.0
5996,75.0,12,15,5.0,0.0
5997,67.0,2,20,1.0,0.0
5998,63.0,0,20,2.0,0.0
5999,43.0,2,30,4.0,0.0
6000,77.0,10,15,5.0,0.0
6001,58.0,0,20,6.0,0.0
6002,75.0,12,15,5.0,0.0
6003,68.0,0,20,1.0,0.0
6004,65.0,2,20,2.0,0.0
6005,77.0,8,15,5.0,0.0
6006,60.0,0,20,6.0,0.0
6007,75.0,12,15,5.0,0.0
6008,70.0,2,20,1.0,0.0
6009,67.0,0,20,2.0,0.0
6010,43.0,2,30,4.0,0.0
6011,77.0,10,15,5.0,0.0
6012,58.0,0,20,6.0,0.0
6013,75.0,12,15,5.0,0.0
6014,72.0,0,20,1.0,0.0
6015,68.0,2,20,2.0,0.0
6016,77.0,8,15,5.0,0.0
6017,56.0,0,20,6.0,0.0
6018,75.0,22,15,5.0,0.0
6019,74.0,0,90,1.0,0.0
6020,70.0,22,20,2.0,0.0
6021,43.0,2,30,4.0,0.0
6022,55.0,0,20,6.0,0.0
6023,68.0,24,20,2.0,0.0
6024,53.0,0,20,6.0,0.0
6025,67.0,2,30,2.0,0.0
6026,51.0,22,20,3.0,0.0
6027,43.0,0,30,4.0,0.0
6028,55.0,0,20,6.0,0.0
6029,53.0,0,20,3.0,0.0
6030,56.0,24,20,6.0,0.0
6031,75.0,0,30,1.0,0.0
6032,63.0,2,30,2.0,0.0
6033,55.0,22,20,3.0,0.0
6034,43.0,0,30,4.0,0.0
6035,55.0,0,20,6.0,0.0
6036,56.0,0,20,3.0,0.0
6037,53.0,24,20,6.0,0.0
6038,61.0,0,90,1.0,0.0
6039,58.0,2,30,2.0,0.0
6040,58.0,22,20,3.0,0.0
6041,43.0,0,30,4.0,0.0
6042,55.0,0,20,6.0,0.0
6043,55.0,24,20,3.0,0.0
6044,51.0,0,20,6.0,0.0
6045,56.0,0,30,2.0,0.0
6046,51.0,0,30,3.0,0.0
6047,44.0,0,30,4.0,0.0
6048,68.0,22,20,5.0,0.0
6049,56.0,2,30,6.0,0.0
6050,70.0,24,20,5.0,0.0
6051,60.0,0,30,1.0,0.0
6052,63.0,0,30,2.0,0.0
6053,56.0,0,30,3.0,0.0
6054,56.0,0,30,4.0,0.0
6055,72.0,22,20,5.0,0.0
6056,51.0,2,30,6.0,0.0
6057,73.0,24,20,5.0,0.0
6058,75.0,22,20,5.0,0.0
6059,48.0,2,30,6.0,0.0
6060,73.0,24,20,5.0,0.0
6061,72.0,2,30,5.0,0.0
6062,44.0,22,20,6.0,0.0
6063,46.0,24,20,6.0,0.0
6064,75.0,2,30,5.0,0.0
6065,48.0,22,20,6.0,0.0
6066,49.0,24,20,6.0,0.0
6067,79.0,2,90,5.0,0.0
6068,51.0,24,20,6.0,0.0
6069,49.0,24,20,6.0,0.0
6070,44.0,22,20,4.0,0.0
6071,48.0,0,30,6.0,0.0
6072,46.0,24,20,4.0,0.0
6073,48.0,22,20,4.0,0.0
6074,80.0,2,30,5.0,0.0
6075,44.0,0,30,6.0,0.0
6076,49.0,24,20,4.0,0.0
6077,51.0,22,20,4.0,0.0
6078,66.0,2,30,5.0,0.0
6079,48.0,0,30,6.0,0.0
6080,48.0,14,20,4.0,0.0
6081,61.0,2,20,1.0,0.0
6082,49.0,2,30,4.0,0.0
6083,68.0,10,15,5.0,0.0
6084,49.0,0,20,6.0,0.0
6085,66.0,12,15,5.0,0.0
6086,63.0,2,20,1.0,0.0
6087,68.0,8,15,5.0,0.0
6088,44.0,0,20,6.0,0.0
6089,66.0,22,15,5.0,0.0
6090,65.0,22,20,1.0,0.0
6091,49.0,2,30,4.0,0.0
6092,65.0,0,30,5.0,0.0
6093,49.0,0,20,6.0,0.0
6094,66.0,0,20,1.0,0.0
6095,51.0,24,20,6.0,0.0
6096,68.0,22,20,1.0,0.0
6097,49.0,2,30,4.0,0.0
6098,53.0,0,20,6.0,0.0
6099,66.0,24,20,1.0,0.0
6100,54.0,0,20,6.0,0.0
6101,65.0,0,20,1.0,0.0
6102,61.0,22,20,2.0,0.0
6103,49.0,2,30,4.0,0.0
6104,56.0,0,20,6.0,0.0
6105,66.0,0,20,1.0,0.0
6106,63.0,0,20,2.0,0.0
6107,58.0,24,20,6.0,0.0
6108,68.0,0,20,1.0,0.0
6109,65.0,22,20,2.0,0.0
6110,49.0,2,30,4.0,0.0
6111,56.0,0,20,6.0,0.0
6112,70.0,0,20,1.0,0.0
6113,66.0,0,20,2.0,0.0
6114,54.0,24,20,6.0,0.0
6115,72.0,0,90,1.0,0.0
6116,68.0,22,20,2.0,0.0
6117,49.0,2,30,4.0,0.0
6118,53.0,0,20,6.0,0.0
6119,66.0,24,20,2.0,0.0
6120,51.0,0,20,6.0,0.0
6121,65.0,2,30,2.0,0.0
6122,61.0,22,20,3.0,0.0
6123,49.0,0,30,4.0,0.0
6124,53.0,0,20,6.0,0.0
6125,63.0,0,20,3.0,0.0
6126,51.0,24,20,6.0,0.0
6127,73.0,0,30,1.0,0.0
6128,58.0,2,30,2.0,0.0
6129,65.0,22,20,3.0,0.0
6130,49.0,0,30,4.0,0.0
6131,49.0,0,30,6.0,0.0
6132,63.0,24,20,3.0,0.0
6133,70.0,0,90,1.0,0.0
6134,66.0,2,30,2.0,0.0
6135,61.0,22,20,3.0,0.0
6136,51.0,0,30,4.0,0.0
6137,51.0,0,30,6.0,0.0
6138,60.0,24,20,3.0,0.0
6139,65.0,0,30,2.0,0.0
6140,61.0,0,30,3.0,0.0
6141,53.0,0,30,4.0,0.0
6142,65.0,22,20,5.0,0.0
6143,53.0,2,30,6.0,0.0
6144,67.0,24,20,5.0,0.0
6145,69.0,0,30,1.0,0.0
6146,65.0,0,30,2.0,0.0
6147,60.0,0,30,3.0,0.0
6148,41.0,0,30,4.0,0.0
6149,69.0,22,20,5.0,0.0
6150,48.0,2,30,6.0,0.0
6151,70.0,24,20,5.0,0.0
6152,72.0,22,20,5.0,0.0
6153,45.0,2,30,6.0,0.0
6154,70.0,24,20,5.0,0.0
6155,69.0,24,20,5.0,0.0
6156,41.0,0,20,6.0,0.0
6157,70.0,24,20,5.0,0.0
6158,43.0,0,20,6.0,0.0
6159,72.0,24,20,5.0,0.0
6160,45.0,0,20,6.0,0.0
6161,74.0,24,20,5.0,0.0
6162,46.0,0,20,6.0,0.0
6163,76.0,2,90,5.0,0.0
6164,48.0,24,20,6.0,0.0
6165,46.0,24,20,6.0,0.0
6166,53.0,22,20,4.0,0.0
6167,45.0,0,30,6.0,0.0
6168,55.0,24,20,4.0,0.0
6169,57.0,22,20,4.0,0.0
6170,77.0,2,30,5.0,0.0
6171,41.0,0,30,6.0,0.0
6172,58.0,24,20,4.0,0.0
6173,60.0,22,20,4.0,0.0
6174,63.0,2,30,5.0,0.0
6175,45.0,0,30,6.0,0.0
6176,57.0,14,20,4.0,0.0
6177,70.0,2,20,1.0,0.0
6178,65.0,0,30,2.0,0.0
6179,58.0,0,30,3.0,0.0
6180,58.0,2,30,4.0,0.0
6181,65.0,10,15,5.0,0.0
6182,46.0,0,30,6.0,0.0
6183,63.0,12,15,5.0,0.0
6184,72.0,2,20,1.0,0.0
6185,65.0,8,15,5.0,0.0
6186,63.0,22,15,5.0,0.0
6187,73.0,22,20,1.0,0.0
6188,70.0,0,30,2.0,0.0
6189,65.0,0,30,3.0,0.0
6190,46.0,0,30,4.0,0.0
6191,61.0,0,30,5.0,0.0
6192,58.0,2,30,6.0,0.0
6193,75.0,46,20,1.0,0.0
6194,77.0,0,30,1.0,0.0
6195,72.0,0,30,2.0,0.0
6196,65.0,26,30,3.0,0.0
6197,57.0,0,30,6.0,0.0
6198,73.0,0,30,1.0,0.0
6199,70.0,2,30,2.0,0.0
6200,65.0,0,30,3.0,0.0
6201,46.0,22,20,4.0,0.0
6202,58.0,0,20,6.0,0.0
6203,48.0,0,20,4.0,0.0
6204,60.0,24,20,6.0,0.0
6205,77.0,0,30,1.0,0.0
6206,70.0,2,30,2.0,0.0
6207,65.0,0,30,3.0,0.0
6208,49.0,22,20,4.0,0.0
6209,61.0,0,20,6.0,0.0
6210,51.0,0,20,4.0,0.0
6211,63.0,24,20,6.0,0.0
6212,81.0,0,90,1.0,0.0
6213,75.0,45,90,2.0,0.0
6214,65.0,2,30,3.0,0.0
6215,48.0,22,20,4.0,0.0
6216,60.0,0,20,6.0,0.0
6217,49.0,0,20,4.0,0.0
6218,61.0,46,20,6.0,0.0
6219,65.0,0,90,3.0,0.0
6220,46.0,3,90,4.0,0.0
6221,58.0,0,30,6.0,0.0
6222,82.0,0,30,1.0,0.0
6223,73.0,0,30,2.0,0.0
6224,46.0,48,30,6.0,0.0
6225,77.0,0,30,1.0,0.0
6226,72.0,0,30,2.0,0.0
6227,65.0,0,30,3.0,0.0
6228,45.0,16,30,4.0,0.0
6229,45.0,0,30,6.0,0.0
6230,75.0,10,15,1.0,0.0
6231,72.0,0,15,2.0,0.0
6232,65.0,5,90,3.0,0.0
6233,46.0,0,20,4.0,0.0
6234,46.0,2,20,6.0,0.0
6235,73.0,0,15,1.0,0.0
6236,70.0,12,15,2.0,0.0
6237,75.0,10,15,1.0,0.0
6238,72.0,0,15,2.0,0.0
6239,48.0,2,20,4.0,0.0
6240,48.0,0,20,6.0,0.0
6241,73.0,12,15,1.0,0.0
6242,70.0,0,15,2.0,0.0
6243,75.0,10,15,1.0,0.0
6244,72.0,0,15,2.0,0.0
6245,49.0,2,20,4.0,0.0
6246,49.0,0,20,6.0,0.0
6247,73.0,12,15,1.0,0.0
6248,70.0,0,15,2.0,0.0
6249,75.0,5,15,1.0,0.0
6250,72.0,0,15,2.0,0.0
6251,51.0,0,20,4.0,0.0
6252,51.0,2,20,6.0,0.0
6253,73.0,0,15,1.0,0.0
6254,70.0,22,15,2.0,0.0
6255,72.0,0,30,1.0,0.0
6256,69.0,2,30,2.0,0.0
6257,65.0,0,30,3.0,0.0
6258,53.0,22,20,4.0,0.0
6259,53.0,0,20,6.0,0.0
6260,51.0,0,20,4.0,0.0
6261,51.0,24,20,6.0,0.0
6262,70.0,22,20,1.0,0.0
6263,65.0,0,30,2.0,0.0
6264,65.0,2,30,3.0,0.0
6265,49.0,0,30,4.0,0.0
6266,49.0,0,30,6.0,0.0
6267,72.0,24,20,1.0,0.0
6268,73.0,22,20,1.0,0.0
6269,70.0,0,30,2.0,0.0
6270,65.0,2,30,3.0,0.0
6271,46.0,0,30,4.0,0.0
6272,46.0,0,30,6.0,0.0
6273,75.0,46,20,1.0,0.0
6274,77.0,0,30,1.0,0.0
6275,72.0,0,30,2.0,0.0
6276,65.0,0,30,3.0,0.0
6277,45.0,26,30,4.0,0.0
6278,45.0,0,30,6.0,0.0
6279,73.0,0,30,1.0,0.0
6280,70.0,2,30,2.0,0.0
6281,65.0,0,30,3.0,0.0
6282,46.0,22,20,4.0,0.0
6283,46.0,0,20,6.0,0.0
6284,48.0,0,20,4.0,0.0
6285,48.0,24,20,6.0,0.0
6286,77.0,0,30,1.0,0.0
6287,70.0,2,30,2.0,0.0
6288,70.0,0,30,3.0,0.0
6289,49.0,22,20,4.0,0.0
6290,49.0,0,20,6.0,0.0
6291,48.0,0,20,4.0,0.0
6292,48.0,24,20,6.0,0.0
6293,82.0,0,30,1.0,0.0
6294,77.0,2,30,2.0,0.0
6295,73.0,0,30,3.0,0.0
6296,49.0,22,20,4.0,0.0
6297,49.0,0,20,6.0,0.0
6298,46.0,0,20,4.0,0.0
6299,46.0,24,20,6.0,0.0
6300,84.0,0,30,1.0,0.0
6301,77.0,0,30,2.0,0.0
6302,69.0,0,30,3.0,0.0
6303,41.0,0,30,4.0,0.0
6304,65.0,22,20,5.0,0.0
6305,53.0,2,30,6.0,0.0
6306,67.0,24,20,5.0,0.0
6307,77.0,0,30,1.0,0.0
6308,69.0,0,30,2.0,0.0
6309,60.0,0,30,3.0,0.0
6310,53.0,0,30,4.0,0.0
6311,69.0,22,20,5.0,0.0
6312,41.0,2,30,6.0,0.0
6313,70.0,24,20,5.0,0.0
6314,72.0,24,20,5.0,0.0
6315,70.0,24,20,5.0,0.0
6316,72.0,0,30,1.0,0.0
6317,65.0,2,30,2.0,0.0
6318,69.0,0,30,3.0,0.0
6319,69.0,22,20,5.0,0.0
6320,41.0,0,30,6.0,0.0
6321,70.0,24,20,5.0,0.0
6322,65.0,0,30,1.0,0.0
6323,60.0,2,30,2.0,0.0
6324,57.0,0,30,3.0,0.0
6325,72.0,22,20,5.0,0.0
6326,53.0,0,30,6.0,0.0
6327,73.0,24,20,5.0,0.0
6328,75.0,24,20,5.0,0.0
6329,72.0,24,20,5.0,0.0
6330,73.0,22,20,1.0,0.0
6331,70.0,0,30,2.0,0.0
6332,53.0,2,30,3.0,0.0
6333,46.0,0,30,4.0,0.0
6334,73.0,22,150,5.0,0.0
6335,46.0,0,20,6.0,0.0
6336,72.0,24,20,1.0,0.0
6337,48.0,0,20,6.0,0.0
6338,70.0,0,20,1.0,0.0
6339,65.0,22,20,2.0,0.0
6340,58.0,2,30,3.0,0.0
6341,49.0,0,30,4.0,0.0
6342,49.0,0,20,6.0,0.0
6343,68.0,0,20,1.0,0.0
6344,63.0,0,20,2.0,0.0
6345,48.0,24,20,6.0,0.0
6346,66.0,2,90,1.0,0.0
6347,61.0,22,20,2.0,0.0
6348,61.0,0,30,3.0,0.0
6349,46.0,2,30,4.0,0.0
6350,46.0,0,20,6.0,0.0
6351,60.0,0,20,2.0,0.0
6352,49.0,24,20,6.0,0.0
6353,58.0,0,20,2.0,0.0
6354,63.0,0,90,3.0,0.0
6355,51.0,0,90,4.0,0.0
6356,39.0,3,90,6.0,0.0
6357,72.0,24,20,5.0,0.0
6358,65.0,2,30,1.0,0.0
6359,68.0,19,20,2.0,0.0
6360,73.0,0,20,5.0,0.0
6361,75.0,24,20,5.0,0.0
6362,63.0,0,30,1.0,0.0
6363,66.0,3,90,2.0,0.0
6364,63.0,0,30,3.0,0.0
6365,39.0,0,30,4.0,0.0
6366,77.0,22,20,5.0,0.0
6367,51.0,2,30,6.0,0.0
6368,78.0,24,20,5.0,0.0
6369,72.0,19,20,1.0,0.0
6370,51.0,2,30,3.0,0.0
6371,44.0,0,30,4.0,0.0
6372,72.0,22,150,5.0,0.0
6373,44.0,0,20,6.0,0.0
6374,70.0,24,20,1.0,0.0
6375,46.0,0,20,6.0,0.0
6376,68.0,0,20,1.0,0.0
6377,63.0,22,20,2.0,0.0
6378,56.0,2,30,3.0,0.0
6379,48.0,0,30,4.0,0.0
6380,48.0,0,20,6.0,0.0
6381,66.0,0,20,1.0,0.0
6382,61.0,0,20,2.0,0.0
6383,46.0,24,20,6.0,0.0
6384,65.0,0,90,1.0,0.0
6385,60.0,22,20,2.0,0.0
6386,60.0,0,30,3.0,0.0
6387,44.0,2,30,4.0,0.0
6388,44.0,0,20,6.0,0.0
6389,58.0,0,20,2.0,0.0
6390,48.0,24,20,6.0,0.0
6391,56.0,2,30,2.0,0.0
6392,61.0,3,90,3.0,0.0
6393,49.0,0,90,4.0,0.0
6394,37.0,0,90,6.0,0.0
6395,70.0,24,20,5.0,0.0
6396,63.0,0,30,1.0,0.0
6397,66.0,2,30,2.0,0.0
6398,72.0,19,20,5.0,0.0
6399,73.0,24,20,5.0,0.0
6400,61.0,0,30,1.0,0.0
6401,65.0,0,30,2.0,0.0
6402,56.0,0,30,3.0,0.0
6403,37.0,0,30,4.0,0.0
6404,75.0,22,20,5.0,0.0
6405,49.0,2,30,6.0,0.0
6406,77.0,24,20,5.0,0.0
6407,63.0,22,20,1.0,0.0
6408,63.0,0,30,2.0,0.0
6409,58.0,0,30,3.0,0.0
6410,42.0,0,30,4.0,0.0
6411,70.0,0,20,5.0,0.0
6412,54.0,2,30,6.0,0.0
6413,65.0,24,20,1.0,0.0
6414,68.0,0,20,5.0,0.0
6415,66.0,22,20,1.0,0.0
6416,61.0,0,30,2.0,0.0
6417,56.0,0,30,3.0,0.0
6418,41.0,0,30,4.0,0.0
6419,70.0,0,20,5.0,0.0
6420,53.0,2,30,6.0,0.0
6421,68.0,24,20,1.0,0.0
6422,72.0,0,20,5.0,0.0
6423,70.0,0,30,1.0,0.0
6424,66.0,0,30,2.0,0.0
6425,54.0,0,30,3.0,0.0
6426,39.0,0,30,4.0,0.0
6427,73.0,22,20,5.0,0.0
6428,51.0,2,30,6.0,0.0
6429,75.0,14,20,5.0,0.0
6430,61.0,0,30,1.0,0.0
6431,68.0,0,30,2.0,0.0
6432,53.0,2,30,3.0,0.0
6433,44.0,0,20,4.0,0.0
6434,77.0,10,15,5.0,0.0
6435,56.0,2,20,6.0,0.0
6436,75.0,20,15,5.0,0.0
6437,46.0,0,20,4.0,0.0
6438,73.0,0,20,5.0,0.0
6439,58.0,24,20,6.0,0.0
6440,60.0,0,30,1.0,0.0
6441,56.0,2,30,2.0,0.0
6442,54.0,0,30,3.0,0.0
6443,44.0,22,20,4.0,0.0
6444,75.0,0,30,5.0,0.0
6445,56.0,0,20,6.0,0.0
6446,42.0,24,20,4.0,0.0
6447,54.0,0,20,6.0,0.0
6448,66.0,0,90,1.0,0.0
6449,60.0,3,90,2.0,0.0
6450,56.0,0,90,3.0,0.0
6451,41.0,24,20,4.0,0.0
6452,66.0,0,90,5.0,0.0
6453,53.0,0,20,6.0,0.0
6454,39.0,43,20,4.0,0.0
6455,51.0,0,20,6.0,0.0
6456,37.0,48,30,4.0,0.0
6457,49.0,0,30,6.0,0.0
6458,65.0,0,30,1.0,0.0
6459,61.0,0,30,2.0,0.0
6460,56.0,0,30,3.0,0.0
6461,49.0,96,30,4.0,0.0
6462,65.0,0,30,5.0,0.0
6463,61.0,0,30,6.0,0.0
6464,60.0,48,30,1.0,0.0
6465,56.0,0,30,2.0,0.0
6466,54.0,0,30,3.0,0.0
6467,61.0,64,30,1.0,0.0
6468,56.0,0,30,2.0,0.0
6469,53.0,0,30,3.0,0.0
6470,62.0,48,30,1.0,0.0
6471,83.0,12,15,5.0,0.0
6472,62.0,0,30,6.0,0.0
6473,82.0,20,15,5.0,0.0
6474,83.0,16,120,5.0,0.0
6475,65.0,48,30,1.0,0.0
6476,65.0,0,30,6.0,0.0
6477,68.0,0,30,1.0,0.0
6478,68.0,0,30,6.0,0.0
6479,65.0,0,30,1.0,0.0
6480,62.0,4,30,2.0,0.0
6481,84.0,12,15,5.0,0.0
6482,62.0,0,30,6.0,0.0
6483,82.0,12,15,5.0,0.0
6484,84.0,8,15,5.0,0.0
6485,82.0,12,15,5.0,0.0
6486,70.0,0,30,1.0,0.0
6487,65.0,4,30,2.0,0.0
6488,84.0,12,15,5.0,0.0
6489,65.0,0,30,6.0,0.0
6490,82.0,12,15,5.0,0.0
6491,84.0,8,15,5.0,0.0
6492,82.0,12,15,5.0,0.0
6493,74.0,0,30,1.0,0.0
6494,70.0,4,30,2.0,0.0
6495,84.0,12,15,5.0,0.0
6496,70.0,0,30,6.0,0.0
6497,82.0,12,15,5.0,0.0
6498,84.0,8,15,5.0,0.0
6499,82.0,12,15,5.0,0.0
6500,70.0,0,30,1.0,0.0
6501,65.0,4,30,2.0,0.0
6502,62.0,0,30,3.0,0.0
6503,82.0,12,15,5.0,0.0
6504,62.0,0,30,6.0,0.0
6505,80.0,12,15,5.0,0.0
6506,82.0,8,15,5.0,0.0
6507,80.0,12,15,5.0,0.0
6508,74.0,0,30,1.0,0.0
6509,70.0,4,30,2.0,0.0
6510,65.0,0,30,3.0,0.0
6511,82.0,12,15,5.0,0.0
6512,65.0,0,30,6.0,0.0
6513,80.0,12,15,5.0,0.0
6514,82.0,8,15,5.0,0.0
6515,80.0,12,15,5.0,0.0
6516,77.0,0,30,1.0,0.0
6517,74.0,26,30,2.0,0.0
6518,71.0,0,30,3.0,0.0
6519,82.0,12,15,5.0,0.0
6520,71.0,0,30,6.0,0.0
6521,80.0,12,15,5.0,0.0
6522,82.0,8,15,5.0,0.0
6523,80.0,22,30,5.0,0.0
6524,75.0,0,30,1.0,0.0
6525,63.0,2,30,2.0,0.0
6526,70.0,0,30,3.0,0.0
6527,39.0,0,30,4.0,0.0
6528,70.0,0,20,6.0,0.0
6529,83.0,24,20,5.0,0.0
6530,51.0,0,20,6.0,0.0
6531,70.0,0,30,1.0,0.0
6532,75.0,0,30,2.0,0.0
6533,63.0,0,30,3.0,0.0
6534,42.0,0,30,4.0,0.0
6535,82.0,22,20,5.0,0.0
6536,54.0,2,30,6.0,0.0
6537,80.0,24,20,5.0,0.0
6538,74.0,0,30,1.0,0.0
6539,70.0,0,30,2.0,0.0
6540,65.0,0,30,3.0,0.0
6541,46.0,0,30,4.0,0.0
6542,78.0,22,20,5.0,0.0
6543,58.0,2,30,6.0,0.0
6544,77.0,24,20,5.0,0.0
6545,75.0,0,30,1.0,0.0
6546,70.0,0,30,2.0,0.0
6547,63.0,0,30,3.0,0.0
6548,51.0,0,30,4.0,0.0
6549,78.0,22,20,5.0,0.0
6550,63.0,2,30,6.0,0.0
6551,75.0,24,20,5.0,0.0
6552,77.0,22,20,5.0,0.0
6553,51.0,2,30,6.0,0.0
6554,75.0,24,20,5.0,0.0
6555,74.0,24,20,5.0,0.0
6556,63.0,2,90,6.0,0.0
6557,75.0,24,20,5.0,0.0
6558,81.0,22,20,5.0,0.0
6559,75.0,24,20,5.0,0.0
6560,77.0,22,20,5.0,0.0
6561,53.0,2,30,6.0,0.0
6562,75.0,24,20,5.0,0.0
6563,74.0,24,20,5.0,0.0
6564,63.0,2,90,6.0,0.0
6565,75.0,24,20,5.0,0.0
6566,82.0,22,20,5.0,0.0
6567,75.0,24,20,5.0,0.0
6568,77.0,22,20,5.0,0.0
6569,54.0,2,30,6.0,0.0
6570,75.0,24,20,5.0,0.0
6571,74.0,24,20,5.0,0.0
6572,63.0,2,90,6.0,0.0
6573,75.0,24,20,5.0,0.0
6574,84.0,22,20,5.0,0.0
6575,77.0,24,20,5.0,0.0
6576,79.0,22,20,5.0,0.0
6577,57.0,2,30,6.0,0.0
6578,81.0,24,20,5.0,0.0
6579,82.0,22,20,5.0,0.0
6580,53.0,2,30,6.0,0.0
6581,84.0,14,20,5.0,0.0
6582,64.0,0,30,1.0,0.0
6583,85.0,12,15,5.0,0.0
6584,58.0,48,30,6.0,0.0
6585,64.0,0,30,6.0,0.0
6586,84.0,20,15,5.0,0.0
6587,85.0,16,120,5.0,0.0
6588,67.0,48,30,1.0,0.0
6589,67.0,0,30,6.0,0.0
6590,70.0,0,30,1.0,0.0
6591,70.0,0,30,6.0,0.0
6592,67.0,0,30,1.0,0.0
6593,64.0,4,30,2.0,0.0
6594,85.0,12,15,5.0,0.0
6595,64.0,0,30,6.0,0.0
6596,84.0,12,15,5.0,0.0
6597,85.0,8,15,5.0,0.0
6598,84.0,12,15,5.0,0.0
6599,72.0,0,30,1.0,0.0
6600,67.0,4,30,2.0,0.0
6601,85.0,12,15,5.0,0.0
6602,67.0,0,30,6.0,0.0
6603,84.0,12,15,5.0,0.0
6604,85.0,8,15,5.0,0.0
6605,84.0,12,15,5.0,0.0
6606,76.0,0,30,1.0,0.0
6607,72.0,4,30,2.0,0.0
6608,85.0,12,15,5.0,0.0
6609,72.0,0,30,6.0,0.0
6610,84.0,12,15,5.0,0.0
6611,85.0,8,15,5.0,0.0
6612,84.0,12,15,5.0,0.0
6613,72.0,0,30,1.0,0.0
6614,67.0,4,30,2.0,0.0
6615,64.0,0,30,3.0,0.0
6616,84.0,12,15,5.0,0.0
6617,64.0,0,30,6.0,0.0
6618,82.0,12,15,5.0,0.0
6619,84.0,8,15,5.0,0.0
6620,82.0,12,15,5.0,0.0
6621,76.0,0,30,1.0,0.0
6622,72.0,4,30,2.0,0.0
6623,67.0,0,30,3.0,0.0
6624,84.0,12,15,5.0,0.0
6625,67.0,0,30,6.0,0.0
6626,82.0,12,15,5.0,0.0
6627,84.0,8,15,5.0,0.0
6628,82.0,12,15,5.0,0.0
6629,79.0,0,30,1.0,0.0
6630,76.0,26,30,2.0,0.0
6631,73.0,0,30,3.0,0.0
6632,84.0,12,15,5.0,0.0
6633,73.0,0,30,6.0,0.0
6634,82.0,12,15,5.0,0.0
6635,84.0,8,15,5.0,0.0
6636,82.0,22,30,5.0,0.0
6637,77.0,0,30,1.0,0.0
6638,65.0,2,30,2.0,0.0
6639,72.0,0,30,3.0,0.0
6640,41.0,0,30,4.0,0.0
6641,72.0,0,20,6.0,0.0
6642,85.0,24,20,5.0,0.0
6643,53.0,0,20,6.0,0.0
6644,72.0,0,30,1.0,0.0
6645,77.0,0,30,2.0,0.0
6646,65.0,0,30,3.0,0.0
6647,44.0,0,30,4.0,0.0
6648,84.0,22,20,5.0,0.0
6649,56.0,2,30,6.0,0.0
6650,82.0,24,20,5.0,0.0
6651,76.0,0,30,1.0,0.0
6652,72.0,0,30,2.0,0.0
6653,67.0,0,30,3.0,0.0
6654,48.0,0,30,4.0,0.0
6655,80.0,22,20,5.0,0.0
6656,60.0,2,30,6.0,0.0
6657,79.0,24,20,5.0,0.0
6658,77.0,0,30,1.0,0.0
6659,72.0,0,30,2.0,0.0
6660,65.0,0,30,3.0,0.0
6661,53.0,0,30,4.0,0.0
6662,80.0,22,20,5.0,0.0
6663,65.0,2,30,6.0,0.0
6664,77.0,24,20,5.0,0.0
6665,79.0,22,20,5.0,0.0
6666,53.0,2,30,6.0,0.0
6667,77.0,24,20,5.0,0.0
6668,76.0,22,20,5.0,0.0
6669,56.0,2,30,6.0,0.0
6670,77.0,24,20,5.0,0.0
6671,73.0,0,30,1.0,0.0
6672,70.0,0,30,2.0,0.0
6673,65.0,0,30,3.0,0.0
6674,46.0,0,30,4.0,0.0
6675,85.0,22,20,5.0,0.0
6676,58.0,2,30,6.0,0.0
6677,84.0,24,20,5.0,0.0
6678,82.0,22,20,5.0,0.0
6679,60.0,2,30,6.0,0.0
6680,80.0,24,20,5.0,0.0
6681,79.0,22,20,5.0,0.0
6682,61.0,2,30,6.0,0.0
6683,77.0,24,20,5.0,0.0
6684,73.0,0,30,1.0,0.0
6685,70.0,0,30,2.0,0.0
6686,63.0,0,30,3.0,0.0
6687,51.0,0,30,4.0,0.0
6688,79.0,22,20,5.0,0.0
6689,63.0,2,30,6.0,0.0
6690,75.0,24,20,5.0,0.0
6691,77.0,22,20,5.0,0.0
6692,51.0,2,30,6.0,0.0
6693,75.0,24,20,5.0,0.0
6694,74.0,22,20,5.0,0.0
6695,55.0,2,30,6.0,0.0
6696,75.0,24,20,5.0,0.0
6697,72.0,0,30,1.0,0.0
6698,68.0,0,30,2.0,0.0
6699,63.0,0,30,3.0,0.0
6700,44.0,0,30,4.0,0.0
6701,84.0,22,20,5.0,0.0
6702,56.0,2,30,6.0,0.0
6703,82.0,24,20,5.0,0.0
6704,80.0,22,20,5.0,0.0
6705,58.0,2,30,6.0,0.0
6706,79.0,24,20,5.0,0.0
6707,77.0,22,20,5.0,0.0
6708,60.0,2,30,6.0,0.0
6709,76.0,24,20,5.0,0.0
6710,72.0,0,30,1.0,0.0
6711,68.0,0,30,2.0,0.0
6712,61.0,0,30,3.0,0.0
6713,49.0,0,30,4.0,0.0
6714,77.0,22,20,5.0,0.0
6715,61.0,2,30,6.0,0.0
6716,73.0,24,20,5.0,0.0
6717,75.0,22,20,5.0,0.0
6718,58.0,2,30,6.0,0.0
6719,73.0,24,20,5.0,0.0
6720,72.0,22,20,5.0,0.0
6721,56.0,2,30,6.0,0.0
6722,73.0,24,20,5.0,0.0
6723,70.0,22,20,1.0,0.0
6724,67.0,0,20,2.0,0.0
6725,61.0,0,30,3.0,0.0
6726,43.0,0,30,4.0,0.0
6727,82.0,22,150,5.0,0.0
6728,55.0,2,30,6.0,0.0
6729,72.0,24,20,1.0,0.0
6730,68.0,0,20,2.0,0.0
6731,70.0,22,20,1.0,0.0
6732,67.0,0,20,2.0,0.0
6733,56.0,2,30,6.0,0.0
6734,68.0,24,20,1.0,0.0
6735,65.0,0,20,2.0,0.0
6736,67.0,22,20,1.0,0.0
6737,64.0,0,20,2.0,0.0
6738,58.0,2,30,6.0,0.0
6739,65.0,24,20,1.0,0.0
6740,62.0,0,20,2.0,0.0
6741,64.0,0,30,1.0,0.0
6742,60.0,3,120,2.0,0.0
6743,55.0,2,150,3.0,0.0
6744,48.0,0,1950,4.0,0.0
6745,48.0,2,30,6.0,0.0
6746,70.0,24,20,5.0,0.0
6747,60.0,0,30,1.0,0.0
6748,72.0,22,20,5.0,0.0
6749,52.0,2,30,6.0,0.0
6750,70.0,24,20,5.0,0.0
6751,69.0,19,20,5.0,0.0
6752,55.0,0,30,6.0,0.0
6753,70.0,24,20,5.0,0.0
6754,70.0,0,30,1.0,0.0
6755,64.0,2,150,2.0,0.0
6756,60.0,4,1800,3.0,0.0
6757,79.0,22,20,5.0,0.0
6758,60.0,2,30,6.0,0.0
6759,77.0,24,20,5.0,0.0
6760,67.0,2,30,1.0,0.0
6761,76.0,22,20,5.0,0.0
6762,74.0,24,20,5.0,0.0
6763,72.0,22,20,5.0,0.0
6764,70.0,24,20,5.0,0.0
6765,68.0,0,30,1.0,0.0
6766,65.0,5,270,2.0,0.0
6767,68.0,22,20,5.0,0.0
6768,60.0,2,30,6.0,0.0
6769,72.0,24,20,5.0,0.0
6770,65.0,0,30,1.0,0.0
6771,73.0,22,20,5.0,0.0
6772,56.0,2,30,6.0,0.0
6773,72.0,24,20,5.0,0.0
6774,71.0,22,20,5.0,0.0
6775,53.0,2,30,6.0,0.0
6776,72.0,24,20,5.0,0.0
6777,72.0,0,30,1.0,0.0
6778,80.0,22,20,5.0,0.0
6779,48.0,2,30,6.0,0.0
6780,79.0,24,20,5.0,0.0
6781,68.0,2,30,1.0,0.0
6782,77.0,22,20,5.0,0.0
6783,75.0,24,20,5.0,0.0
6784,73.0,19,20,5.0,0.0
6785,72.0,24,20,5.0,0.0
6786,70.0,0,30,1.0,0.0
6787,67.0,0,420,2.0,0.0
6788,70.0,22,20,5.0,0.0
6789,52.0,2,30,6.0,0.0
6790,73.0,24,20,5.0,0.0
6791,67.0,0,30,1.0,0.0
6792,75.0,22,20,5.0,0.0
6793,55.0,2,30,6.0,0.0
6794,73.0,24,20,5.0,0.0
6795,72.0,22,20,5.0,0.0
6796,58.0,2,30,6.0,0.0
6797,73.0,24,20,5.0,0.0
6798,73.0,0,30,1.0,0.0
6799,82.0,22,20,5.0,0.0
6800,64.0,2,30,6.0,0.0
6801,80.0,24,20,5.0,0.0
6802,70.0,2,30,1.0,0.0
6803,79.0,22,20,5.0,0.0
6804,77.0,24,20,5.0,0.0
6805,76.0,24,20,5.0,0.0
6806,74.0,24,20,5.0,0.0
6807,76.0,0,30,1.0,0.0
6808,72.0,22,20,5.0,0.0
6809,55.0,2,30,6.0,0.0
6810,76.0,24,20,5.0,0.0
6811,72.0,0,30,1.0,0.0
6812,79.0,22,20,5.0,0.0
6813,58.0,2,30,6.0,0.0
6814,76.0,24,20,5.0,0.0
6815,73.0,22,20,5.0,0.0
6816,64.0,2,30,6.0,0.0
6817,72.0,24,20,5.0,0.0
6818,79.0,0,30,1.0,0.0
6819,70.0,0,30,2.0,0.0
6820,70.0,22,20,5.0,0.0
6821,67.0,2,30,6.0,0.0
6822,76.0,24,20,5.0,0.0
6823,76.0,2,30,1.0,0.0
6824,79.0,22,20,5.0,0.0
6825,76.0,24,20,5.0,0.0
6826,79.0,2,30,2.0,0.0
6827,72.0,22,20,5.0,0.0
6828,70.0,24,20,5.0,0.0
6829,77.0,0,30,1.0,0.0
6830,68.0,0,30,2.0,0.0
6831,68.0,22,20,5.0,0.0
6832,60.0,2,30,6.0,0.0
6833,72.0,24,20,5.0,0.0
6834,73.0,0,30,1.0,0.0
6835,77.0,22,20,5.0,0.0
6836,56.0,2,30,6.0,0.0
6837,73.0,24,20,5.0,0.0
6838,77.0,0,30,2.0,0.0
6839,70.0,22,20,5.0,0.0
6840,61.0,2,30,6.0,0.0
6841,68.0,24,20,5.0,0.0
6842,75.0,0,30,1.0,0.0
6843,67.0,0,30,2.0,0.0
6844,67.0,22,20,5.0,0.0
6845,58.0,2,30,6.0,0.0
6846,70.0,24,20,5.0,0.0
6847,72.0,0,30,1.0,0.0
6848,75.0,22,20,5.0,0.0
6849,55.0,2,30,6.0,0.0
6850,72.0,24,20,5.0,0.0
6851,75.0,0,30,2.0,0.0
6852,68.0,22,20,5.0,0.0
6853,60.0,2,30,6.0,0.0
6854,66.0,24,20,5.0,0.0
6855,73.0,0,30,1.0,0.0
6856,65.0,0,30,2.0,0.0
6857,65.0,22,20,5.0,0.0
6858,56.0,2,30,6.0,0.0
6859,68.0,24,20,5.0,0.0
6860,70.0,0,30,1.0,0.0
6861,73.0,22,20,5.0,0.0
6862,53.0,2,30,6.0,0.0
6863,70.0,24,20,5.0,0.0
6864,73.0,0,30,2.0,0.0
6865,68.0,22,20,5.0,0.0
6866,58.0,2,30,6.0,0.0
6867,66.0,24,20,5.0,0.0
6868,70.0,0,360,1.0,0.0
6869,64.0,0,360,2.0,0.0
6870,65.0,24,20,5.0,0.0
6871,55.0,0,20,6.0,0.0
6872,68.0,24,20,5.0,0.0
6873,56.0,0,20,6.0,0.0
6874,73.0,24,20,5.0,0.0
6875,58.0,0,20,6.0,0.0
6876,70.0,24,20,5.0,0.0
6877,56.0,0,20,6.0,0.0
6878,66.0,24,20,5.0,0.0
6879,55.0,0,20,6.0,0.0
6880,65.0,24,20,5.0,0.0
6881,53.0,0,20,6.0,0.0
6882,64.0,24,20,5.0,0.0
6883,52.0,0,20,6.0,0.0
6884,65.0,24,20,5.0,0.0
6885,53.0,0,20,6.0,0.0
6886,67.0,24,20,5.0,0.0
6887,55.0,0,20,6.0,0.0
6888,68.0,24,20,5.0,0.0
6889,53.0,0,20,6.0,0.0
6890,70.0,24,20,5.0,0.0
6891,52.0,0,20,6.0,0.0
6892,72.0,24,20,5.0,0.0
6893,55.0,0,20,6.0,0.0
6894,73.0,24,20,5.0,0.0
6895,48.0,5,90,6.0,0.0
6896,72.0,24,20,5.0,0.0
6897,70.0,15,20,5.0,0.0
6898,69.0,24,20,5.0,0.0
6899,70.0,24,20,5.0,0.0
6900,76.0,24,20,5.0,0.0
6901,65.0,22,20,1.0,0.0
6902,60.0,0,30,2.0,0.0
6903,56.0,0,30,3.0,0.0
6904,53.0,0,30,4.0,0.0
6905,79.0,3,90,5.0,0.0
6906,53.0,2,30,6.0,0.0
6907,67.0,24,20,1.0,0.0
6908,68.0,19,20,1.0,0.0
6909,65.0,0,30,2.0,0.0
6910,60.0,0,30,3.0,0.0
6911,41.0,0,30,4.0,0.0
6912,41.0,2,30,6.0,0.0
6913,70.0,46,20,1.0,0.0
6914,72.0,0,30,1.0,0.0
6915,68.0,26,30,2.0,0.0
6916,65.0,0,30,3.0,0.0
6917,53.0,22,60,4.0,0.0
6918,53.0,0,60,6.0,0.0
6919,68.0,0,30,1.0,0.0
6920,65.0,0,30,2.0,0.0
6921,60.0,2,30,3.0,0.0
6922,65.0,0,20,5.0,0.0
6923,55.0,0,20,4.0,0.0
6924,67.0,0,20,5.0,0.0
6925,55.0,24,20,6.0,0.0
6926,72.0,0,30,1.0,0.0
6927,65.0,0,30,2.0,0.0
6928,60.0,2,30,3.0,0.0
6929,56.0,0,20,4.0,0.0
6930,68.0,22,20,5.0,0.0
6931,56.0,0,20,6.0,0.0
6932,58.0,0,20,4.0,0.0
6933,70.0,0,20,5.0,0.0
6934,58.0,24,20,6.0,0.0
6935,76.0,4,90,1.0,0.0
6936,70.0,3,90,2.0,0.0
6937,60.0,0,30,3.0,0.0
6938,55.0,22,20,4.0,0.0
6939,72.0,2,30,5.0,0.0
6940,55.0,0,20,6.0,0.0
6941,56.0,0,20,4.0,0.0
6942,56.0,14,20,6.0,0.0
6943,60.0,3,90,3.0,0.0
6944,55.0,12,15,4.0,0.0
6945,68.0,0,30,5.0,0.0
6946,55.0,0,15,6.0,0.0
6947,53.0,12,15,4.0,0.0
6948,53.0,0,15,6.0,0.0
6949,55.0,5,15,4.0,0.0
6950,55.0,0,15,6.0,0.0
6951,53.0,0,15,4.0,0.0
6952,53.0,12,15,6.0,0.0
6953,77.0,0,30,1.0,0.0
6954,68.0,4,30,2.0,0.0
6955,55.0,12,15,4.0,0.0
6956,72.0,0,30,5.0,0.0
6957,55.0,0,15,6.0,0.0
6958,53.0,12,15,4.0,0.0
6959,53.0,0,15,6.0,0.0
6960,55.0,5,15,4.0,0.0
6961,55.0,0,15,6.0,0.0
6962,53.0,44,15,4.0,0.0
6963,53.0,0,15,6.0,0.0
6964,72.0,0,30,1.0,0.0
6965,67.0,0,30,2.0,0.0
6966,60.0,0,30,3.0,0.0
6967,52.0,16,30,4.0,0.0
6968,76.0,2,90,5.0,0.0
6969,52.0,0,30,6.0,0.0
6970,70.0,10,15,1.0,0.0
6971,67.0,0,15,2.0,0.0
6972,60.0,3,90,3.0,0.0
6973,53.0,0,20,4.0,0.0
6974,53.0,2,20,6.0,0.0
6975,68.0,0,15,1.0,0.0
6976,65.0,12,15,2.0,0.0
6977,70.0,8,15,1.0,0.0
6978,67.0,0,15,2.0,0.0
6979,55.0,2,20,4.0,0.0
6980,55.0,0,20,6.0,0.0
6981,68.0,12,15,1.0,0.0
6982,65.0,0,15,2.0,0.0
6983,70.0,10,15,1.0,0.0
6984,67.0,0,15,2.0,0.0
6985,56.0,0,20,4.0,0.0
6986,77.0,2,30,5.0,0.0
6987,56.0,2,20,6.0,0.0
6988,68.0,0,15,1.0,0.0
6989,65.0,12,15,2.0,0.0
6990,70.0,5,15,1.0,0.0
6991,67.0,0,15,2.0,0.0
6992,58.0,2,20,4.0,0.0
6993,58.0,0,20,6.0,0.0
6994,68.0,22,15,1.0,0.0
6995,65.0,0,15,2.0,0.0
6996,67.0,0,30,1.0,0.0
6997,64.0,2,30,2.0,0.0
6998,60.0,0,30,3.0,0.0
6999,60.0,22,20,4.0,0.0
7000,72.0,0,30,5.0,0.0
7001,60.0,0,20,6.0,0.0
7002,58.0,14,20,4.0,0.0
7003,58.0,0,20,6.0,0.0
7004,65.0,2,20,1.0,0.0
7005,60.0,0,30,2.0,0.0
7006,60.0,0,30,3.0,0.0
7007,56.0,2,30,4.0,0.0
7008,70.0,10,15,5.0,0.0
7009,56.0,0,30,6.0,0.0
7010,68.0,12,15,5.0,0.0
7011,67.0,2,20,1.0,0.0
7012,70.0,8,15,5.0,0.0
7013,68.0,12,15,5.0,0.0
7014,68.0,2,20,1.0,0.0
7015,65.0,0,30,2.0,0.0
7016,60.0,0,30,3.0,0.0
7017,53.0,2,30,4.0,0.0
7018,70.0,10,15,5.0,0.0
7019,53.0,0,30,6.0,0.0
7020,68.0,12,15,5.0,0.0
7021,70.0,2,20,1.0,0.0
7022,70.0,8,15,5.0,0.0
7023,68.0,44,15,5.0,0.0
7024,72.0,0,30,1.0,0.0
7025,67.0,0,30,2.0,0.0
7026,60.0,0,30,3.0,0.0
7027,52.0,26,30,4.0,0.0
7028,67.0,0,30,5.0,0.0
7029,52.0,0,30,6.0,0.0
7030,68.0,0,30,1.0,0.0
7031,65.0,0,30,2.0,0.0
7032,60.0,2,30,3.0,0.0
7033,53.0,0,20,4.0,0.0
7034,65.0,22,20,5.0,0.0
7035,53.0,0,20,6.0,0.0
7036,55.0,0,20,4.0,0.0
7037,67.0,0,20,5.0,0.0
7038,55.0,24,20,6.0,0.0
7039,72.0,0,30,1.0,0.0
7040,65.0,0,30,2.0,0.0
7041,65.0,2,30,3.0,0.0
7042,56.0,0,20,4.0,0.0
7043,68.0,22,20,5.0,0.0
7044,56.0,0,20,6.0,0.0
7045,55.0,0,20,4.0,0.0
7046,70.0,0,20,5.0,0.0
7047,55.0,24,20,6.0,0.0
7048,77.0,0,30,1.0,0.0
7049,72.0,2,30,2.0,0.0
7050,68.0,0,30,3.0,0.0
7051,56.0,22,20,4.0,0.0
7052,72.0,0,30,5.0,0.0
7053,56.0,0,20,6.0,0.0
7054,53.0,46,20,4.0,0.0
7055,53.0,0,20,6.0,0.0
7056,79.0,0,30,1.0,0.0
7057,76.0,0,30,2.0,0.0
7058,67.0,0,30,3.0,0.0
7059,48.0,0,30,4.0,0.0
7060,76.0,0,30,5.0,0.0
7061,72.0,0,30,5.0,0.0
7062,79.0,48,30,5.0,0.0
7063,48.0,0,30,6.0,0.0
7064,72.0,0,30,1.0,0.0
7065,67.0,0,30,2.0,0.0
7066,64.0,0,30,3.0,0.0
7067,60.0,0,30,4.0,0.0
7068,64.0,0,30,5.0,0.0
7069,72.0,0,30,5.0,0.0
7070,67.0,96,30,5.0,0.0
7071,60.0,0,30,6.0,0.0
7072,76.0,0,30,5.0,0.0
7073,72.0,0,30,5.0,0.0
7074,79.0,48,30,5.0,0.0
7075,48.0,0,30,6.0,0.0
7076,72.0,0,30,5.0,0.0
7077,67.0,0,30,5.0,0.0
7078,64.0,96,30,5.0,0.0
7079,60.0,0,30,6.0,0.0
7080,80.0,0,30,1.0,0.0
7081,77.0,0,30,2.0,0.0
7082,72.0,0,30,3.0,0.0
7083,48.0,0,30,4.0,0.0
7084,77.0,0,30,5.0,0.0
7085,80.0,0,30,5.0,0.0
7086,72.0,48,30,5.0,0.0
7087,48.0,0,30,6.0,0.0
7088,72.0,0,30,1.0,0.0
7089,68.0,0,30,2.0,0.0
7090,65.0,0,30,3.0,0.0
7091,60.0,0,30,4.0,0.0
7092,68.0,0,30,5.0,0.0
7093,65.0,0,30,5.0,0.0
7094,72.0,96,30,5.0,0.0
7095,60.0,0,30,6.0,0.0
7096,77.0,0,30,5.0,0.0
7097,72.0,0,30,5.0,0.0
7098,80.0,48,30,5.0,0.0
7099,48.0,0,30,6.0,0.0
7100,68.0,0,30,5.0,0.0
7101,65.0,0,30,5.0,0.0
7102,72.0,96,30,5.0,0.0
7103,60.0,0,30,6.0,0.0
7104,82.0,0,30,1.0,0.0
7105,76.0,0,30,2.0,0.0
7106,67.0,0,30,3.0,0.0
7107,48.0,0,30,4.0,0.0
7108,82.0,0,30,5.0,0.0
7109,72.0,0,30,5.0,0.0
7110,76.0,48,30,5.0,0.0
7111,48.0,0,30,6.0,0.0
7112,72.0,0,30,1.0,0.0
7113,67.0,0,30,2.0,0.0
7114,64.0,0,30,3.0,0.0
7115,60.0,0,30,4.0,0.0
7116,67.0,0,30,5.0,0.0
7117,72.0,0,30,5.0,0.0
7118,64.0,96,30,5.0,0.0
7119,60.0,0,30,6.0,0.0
7120,82.0,0,30,5.0,0.0
7121,72.0,0,30,5.0,0.0
7122,76.0,48,30,5.0,0.0
7123,48.0,0,30,6.0,0.0
7124,72.0,0,30,5.0,0.0
7125,67.0,0,30,5.0,0.0
7126,64.0,74,30,5.0,0.0
7127,60.0,0,30,6.0,0.0
7128,80.0,22,20,1.0,0.0
7129,77.0,0,30,2.0,0.0
7130,60.0,2,30,3.0,0.0
7131,53.0,0,30,4.0,0.0
7132,68.0,22,150,5.0,0.0
7133,53.0,0,20,6.0,0.0
7134,79.0,24,20,1.0,0.0
7135,55.0,0,20,6.0,0.0
7136,77.0,22,20,1.0,0.0
7137,72.0,2,30,2.0,0.0
7138,65.0,0,30,3.0,0.0
7139,56.0,0,30,4.0,0.0
7140,56.0,0,20,6.0,0.0
7141,75.0,24,20,1.0,0.0
7142,55.0,0,20,6.0,0.0
7143,73.0,0,90,1.0,0.0
7144,68.0,0,30,2.0,0.0
7145,68.0,0,30,3.0,0.0
7146,53.0,2,30,4.0,0.0
7147,53.0,22,20,6.0,0.0
7148,56.0,24,20,6.0,0.0
7149,65.0,2,30,2.0,0.0
7150,70.0,3,90,3.0,0.0
7151,58.0,0,90,4.0,0.0
7152,46.0,0,90,6.0,0.0
7153,67.0,24,20,5.0,0.0
7154,72.0,0,30,1.0,0.0
7155,75.0,2,30,2.0,0.0
7156,68.0,19,20,5.0,0.0
7157,70.0,24,20,5.0,0.0
7158,70.0,0,30,1.0,0.0
7159,73.0,3,90,2.0,0.0
7160,70.0,0,30,3.0,0.0
7161,46.0,0,30,4.0,0.0
7162,72.0,22,20,5.0,0.0
7163,58.0,2,30,6.0,0.0
7164,73.0,24,20,5.0,0.0
7165,79.0,19,20,1.0,0.0
7166,58.0,2,30,3.0,0.0
7167,51.0,0,30,4.0,0.0
7168,67.0,22,150,5.0,0.0
7169,51.0,0,20,6.0,0.0
7170,77.0,24,20,1.0,0.0
7171,53.0,0,20,6.0,0.0
7172,75.0,22,20,1.0,0.0
7173,70.0,2,30,2.0,0.0
7174,63.0,0,30,3.0,0.0
7175,55.0,0,30,4.0,0.0
7176,55.0,0,20,6.0,0.0
7177,73.0,24,20,1.0,0.0
7178,53.0,0,20,6.0,0.0
7179,72.0,0,90,1.0,0.0
7180,67.0,0,30,2.0,0.0
7181,67.0,0,30,3.0,0.0
7182,51.0,2,30,4.0,0.0
7183,51.0,22,20,6.0,0.0
7184,55.0,24,20,6.0,0.0
7185,63.0,2,30,2.0,0.0
7186,68.0,3,90,3.0,0.0
7187,56.0,0,90,4.0,0.0
7188,44.0,0,90,6.0,0.0
7189,65.0,24,20,5.0,0.0
7190,70.0,0,30,1.0,0.0
7191,73.0,2,30,2.0,0.0
7192,67.0,19,20,5.0,0.0
7193,68.0,24,20,5.0,0.0
7194,68.0,0,30,1.0,0.0
7195,72.0,0,30,2.0,0.0
7196,63.0,0,30,3.0,0.0
7197,44.0,0,30,4.0,0.0
7198,70.0,22,20,5.0,0.0
7199,56.0,2,30,6.0,0.0
7200,72.0,24,20,5.0,0.0
7201,70.0,22,20,1.0,0.0
7202,70.0,0,30,2.0,0.0
7203,65.0,0,30,3.0,0.0
7204,49.0,0,30,4.0,0.0
7205,65.0,0,20,5.0,0.0
7206,49.0,2,30,6.0,0.0
7207,72.0,24,20,1.0,0.0
7208,63.0,0,20,5.0,0.0
7209,73.0,22,20,1.0,0.0
7210,68.0,0,30,2.0,0.0
7211,63.0,0,30,3.0,0.0
7212,48.0,0,30,4.0,0.0
7213,65.0,0,20,5.0,0.0
7214,48.0,2,30,6.0,0.0
7215,75.0,24,20,1.0,0.0
7216,67.0,0,20,5.0,0.0
7217,77.0,0,30,1.0,0.0
7218,73.0,0,30,2.0,0.0
7219,61.0,0,30,3.0,0.0
7220,46.0,0,30,4.0,0.0
7221,68.0,22,20,5.0,0.0
7222,46.0,2,30,6.0,0.0
7223,70.0,24,20,5.0,0.0
7224,68.0,0,30,1.0,0.0
7225,72.0,0,20,2.0,0.0
7226,63.0,2,30,3.0,0.0
7227,51.0,0,20,4.0,0.0
7228,72.0,22,20,5.0,0.0
7229,51.0,0,20,6.0,0.0
7230,73.0,24,20,2.0,0.0
7231,53.0,0,20,4.0,0.0
7232,68.0,0,20,5.0,0.0
7233,53.0,0,20,6.0,0.0
7234,67.0,0,30,1.0,0.0
7235,75.0,2,30,2.0,0.0
7236,58.0,0,30,3.0,0.0
7237,51.0,22,20,4.0,0.0
7238,70.0,0,30,5.0,0.0
7239,51.0,0,20,6.0,0.0
7240,49.0,24,20,4.0,0.0
7241,49.0,0,20,6.0,0.0
7242,73.0,0,90,1.0,0.0
7243,63.0,3,90,2.0,0.0
7244,70.0,0,90,3.0,0.0
7245,48.0,24,20,4.0,0.0
7246,79.0,0,90,5.0,0.0
7247,48.0,0,20,6.0,0.0
7248,46.0,43,20,4.0,0.0
7249,46.0,0,20,6.0,0.0
7250,44.0,48,30,4.0,0.0
7251,44.0,0,30,6.0,0.0
7252,72.0,0,30,1.0,0.0
7253,68.0,0,30,2.0,0.0
7254,63.0,0,30,3.0,0.0
7255,56.0,96,30,4.0,0.0
7256,80.0,0,30,5.0,0.0
7257,56.0,0,30,6.0,0.0
7258,61.0,26,30,1.0,0.0
7259,58.0,0,30,2.0,0.0
7260,55.0,0,30,3.0,0.0
7261,60.0,0,30,1.0,0.0
7262,56.0,2,30,2.0,0.0
7263,56.0,0,30,3.0,0.0
7264,80.0,22,20,5.0,0.0
7265,78.0,24,20,5.0,0.0
7266,77.0,24,20,5.0,0.0
7267,49.0,9,180,4.0,0.0
7268,78.0,24,20,5.0,0.0
7269,77.0,22,20,1.0,0.0
7270,58.0,0,30,2.0,0.0
7271,53.0,0,30,3.0,0.0
7272,77.0,0,150,5.0,0.0
7273,61.0,2,30,6.0,0.0
7274,75.0,24,20,1.0,0.0
7275,73.0,22,20,1.0,0.0
7276,61.0,0,30,2.0,0.0
7277,58.0,0,30,3.0,0.0
7278,58.0,2,30,6.0,0.0
7279,72.0,24,20,1.0,0.0
7280,70.0,22,20,1.0,0.0
7281,63.0,0,30,2.0,0.0
7282,60.0,0,30,3.0,0.0
7283,53.0,2,30,6.0,0.0
7284,69.0,15,20,1.0,0.0
7285,70.0,0,20,1.0,0.0
7286,65.0,0,180,2.0,0.0
7287,61.0,7,180,3.0,0.0
7288,49.0,24,20,6.0,0.0
7289,65.0,0,20,1.0,0.0
7290,48.0,0,20,4.0,0.0
7291,75.0,24,20,5.0,0.0
7292,48.0,0,20,6.0,0.0
7293,70.0,0,20,1.0,0.0
7294,49.0,0,20,4.0,0.0
7295,73.0,24,20,5.0,0.0
7296,49.0,0,20,6.0,0.0
7297,72.0,0,20,1.0,0.0
7298,51.0,0,20,4.0,0.0
7299,72.0,24,20,5.0,0.0
7300,51.0,0,20,6.0,0.0
7301,73.0,15,60,1.0,0.0
7302,49.0,0,20,4.0,0.0
7303,70.0,24,20,5.0,0.0
7304,49.0,0,20,6.0,0.0
7305,48.0,0,20,4.0,0.0
7306,69.0,24,20,5.0,0.0
7307,48.0,0,20,6.0,0.0
7308,46.0,9,180,4.0,0.0
7309,70.0,0,20,5.0,0.0
7310,46.0,2,30,6.0,0.0
7311,72.0,0,20,1.0,0.0
7312,65.0,24,20,5.0,0.0
7313,70.0,22,20,1.0,0.0
7314,61.0,0,30,2.0,0.0
7315,65.0,0,30,3.0,0.0
7316,70.0,0,20,5.0,0.0
7317,49.0,2,30,6.0,0.0
7318,68.0,24,20,1.0,0.0
7319,72.0,0,20,5.0,0.0
7320,67.0,22,20,1.0,0.0
7321,58.0,0,30,2.0,0.0
7322,61.0,0,30,3.0,0.0
7323,73.0,0,60,5.0,0.0
7324,53.0,2,30,6.0,0.0
7325,65.0,24,20,1.0,0.0
7326,64.0,0,20,1.0,0.0
7327,67.0,22,150,2.0,0.0
7328,55.0,15,20,3.0,0.0
7329,58.0,0,20,6.0,0.0
7330,65.0,0,20,1.0,0.0
7331,56.0,0,20,3.0,0.0
7332,72.0,0,20,5.0,0.0
7333,56.0,24,20,6.0,0.0
7334,67.0,0,20,1.0,0.0
7335,58.0,0,20,3.0,0.0
7336,44.0,0,20,4.0,0.0
7337,70.0,24,20,5.0,0.0
7338,55.0,0,20,6.0,0.0
7339,68.0,0,20,1.0,0.0
7340,60.0,0,20,3.0,0.0
7341,43.0,0,20,4.0,0.0
7342,68.0,24,20,5.0,0.0
7343,53.0,0,20,6.0,0.0
7344,70.0,0,60,1.0,0.0
7345,61.0,0,20,3.0,0.0
7346,41.0,0,20,4.0,0.0
7347,67.0,24,20,5.0,0.0
7348,52.0,0,20,6.0,0.0
7349,58.0,0,20,3.0,0.0
7350,40.0,0,20,4.0,0.0
7351,65.0,24,20,5.0,0.0
7352,50.0,0,20,6.0,0.0
7353,64.0,2,30,3.0,0.0
7354,38.0,0,20,4.0,0.0
7355,64.0,0,20,5.0,0.0
7356,48.0,0,30,6.0,0.0
7357,72.0,0,20,1.0,0.0
7358,68.0,0,20,2.0,0.0
7359,36.0,2,30,4.0,0.0
7360,72.0,22,20,5.0,0.0
7361,74.0,0,20,1.0,0.0
7362,70.0,2,30,2.0,0.0
7363,74.0,22,20,5.0,0.0
7364,76.0,0,20,1.0,0.0
7365,76.0,0,20,5.0,0.0
7366,48.0,24,20,6.0,0.0
7367,77.0,0,20,1.0,0.0
7368,60.0,0,30,2.0,0.0
7369,70.0,2,30,3.0,0.0
7370,48.0,0,20,4.0,0.0
7371,77.0,22,20,5.0,0.0
7372,50.0,0,20,6.0,0.0
7373,79.0,46,20,1.0,0.0
7374,50.0,0,20,4.0,0.0
7375,79.0,0,20,5.0,0.0
7376,52.0,0,20,6.0,0.0
7377,80.0,0,30,1.0,0.0
7378,72.0,0,30,2.0,0.0
7379,68.0,0,30,3.0,0.0
7380,53.0,48,30,4.0,0.0
7381,80.0,0,30,5.0,0.0
7382,53.0,0,30,6.0,0.0
7383,76.0,0,30,1.0,0.0
7384,70.0,0,30,2.0,0.0
7385,67.0,0,30,3.0,0.0
7386,55.0,48,30,4.0,0.0
7387,76.0,0,30,5.0,0.0
7388,55.0,0,30,6.0,0.0
7389,77.0,0,30,1.0,0.0
7390,72.0,0,30,2.0,0.0
7391,65.0,3,90,3.0,0.0
7392,56.0,0,30,4.0,0.0
7393,77.0,45,30,5.0,0.0
7394,56.0,0,30,6.0,0.0
7395,68.0,0,30,1.0,0.0
7396,65.0,0,30,2.0,0.0
7397,49.0,0,30,4.0,0.0
7398,68.0,48,30,5.0,0.0
7399,65.0,0,30,5.0,0.0
7400,49.0,0,30,6.0,0.0
7401,70.0,0,30,1.0,0.0
7402,67.0,0,30,2.0,0.0
7403,61.0,0,30,3.0,0.0
7404,46.0,48,30,4.0,0.0
7405,70.0,0,30,5.0,0.0
7406,67.0,0,30,5.0,0.0
7407,46.0,0,30,6.0,0.0
7408,67.0,0,30,1.0,0.0
7409,64.0,0,30,2.0,0.0
7410,60.0,0,30,3.0,0.0
7411,48.0,281,30,4.0,0.0
7412,64.0,0,30,5.0,0.0
7413,67.0,0,30,5.0,0.0
7414,48.0,0,30,6.0,0.0
7415,65.0,0,270,1.0,0.0
7416,60.0,0,270,2.0,0.0
7417,56.0,0,270,3.0,0.0
7418,41.0,4,270,4.0,0.0
7419,65.0,0,270,5.0,0.0
7420,56.0,0,270,5.0,0.0
7421,60.0,3,270,5.0,0.0
7422,41.0,0,270,6.0,0.0
