,note,step,duration,channel,velocity
0,72.0,2,44,4.0,66.0
1,72.0,1,47,0.0,98.0
2,48.0,0,54,6.0,80.0
3,64.0,2,50,2.0,87.0
4,72.0,9,39,5.0,87.0
5,48.0,2,50,3.0,76.0
6,67.0,2,61,1.0,78.0
7,72.0,1,120,4.0,87.0
8,64.0,1,135,2.0,98.0
9,72.0,108,147,0.0,95.0
10,72.0,4,137,5.0,89.0
11,71.0,4,127,4.0,87.0
12,62.0,99,135,2.0,66.0
13,71.0,1,138,0.0,68.0
14,71.0,10,136,5.0,74.0
15,64.0,7,110,2.0,74.0
16,72.0,107,122,4.0,70.0
17,72.0,1,113,0.0,80.0
18,72.0,8,127,5.0,80.0
19,67.0,2,374,1.0,85.0
20,65.0,95,115,2.0,80.0
21,74.0,2,105,0.0,80.0
22,74.0,0,128,4.0,76.0
23,74.0,11,123,5.0,82.0
24,48.0,3,493,3.0,98.0
25,48.0,5,529,6.0,91.0
26,76.0,13,168,4.0,82.0
27,67.0,104,192,2.0,85.0
28,76.0,1,186,0.0,82.0
29,76.0,2,201,5.0,82.0
30,72.0,4,288,1.0,82.0
31,60.0,230,97,3.0,91.0
32,60.0,4,104,6.0,85.0
33,69.0,100,64,2.0,82.0
34,77.0,12,57,0.0,80.0
35,77.0,1,64,4.0,74.0
36,77.0,7,64,5.0,80.0
37,72.0,0,57,1.0,91.0
38,67.0,6,62,2.0,87.0
39,76.0,1,69,0.0,89.0
40,76.0,10,62,4.0,89.0
41,76.0,3,66,5.0,85.0
42,55.0,0,84,6.0,82.0
43,55.0,113,99,3.0,80.0
44,65.0,4,49,2.0,78.0
45,71.0,31,55,1.0,68.0
46,74.0,8,50,0.0,95.0
47,74.0,5,51,4.0,95.0
48,74.0,11,49,5.0,102.0
49,72.0,14,76,1.0,82.0
50,67.0,7,75,2.0,61.0
51,76.0,2,70,4.0,66.0
52,76.0,11,75,0.0,63.0
53,76.0,17,58,5.0,59.0
54,74.0,1,60,4.0,80.0
55,65.0,0,87,2.0,66.0
56,74.0,19,74,0.0,76.0
57,71.0,20,93,1.0,68.0
58,74.0,11,74,5.0,82.0
59,57.0,56,79,3.0,82.0
60,57.0,11,70,6.0,80.0
61,72.0,104,66,1.0,78.0
62,64.0,2,69,2.0,82.0
63,72.0,18,60,0.0,64.0
64,72.0,0,70,5.0,80.0
65,72.0,18,59,4.0,70.0
66,52.0,0,121,3.0,100.0
67,72.0,2,121,1.0,87.0
68,52.0,9,119,6.0,91.0
69,64.0,95,149,2.0,87.0
70,53.0,93,110,3.0,85.0
71,53.0,4,113,6.0,76.0
72,71.0,2,129,1.0,82.0
73,62.0,2,144,2.0,80.0
74,52.0,2,100,3.0,80.0
75,52.0,111,112,6.0,74.0
76,72.0,3,117,1.0,66.0
77,64.0,0,132,2.0,66.0
78,74.0,0,100,1.0,80.0
79,50.0,2,102,6.0,70.0
80,50.0,7,106,3.0,87.0
81,65.0,103,147,2.0,70.0
82,48.0,6,118,6.0,66.0
83,67.0,14,130,2.0,80.0
84,48.0,2,132,3.0,87.0
85,79.0,8,606,4.0,87.0
86,79.0,0,644,5.0,80.0
87,79.0,1,652,0.0,85.0
88,76.0,113,213,1.0,85.0
89,74.0,4,89,1.0,70.0
90,58.0,0,88,3.0,87.0
91,77.0,0,90,5.0,80.0
92,77.0,6,91,4.0,80.0
93,77.0,5,87,0.0,78.0
94,67.0,233,108,2.0,72.0
95,58.0,3,101,6.0,76.0
96,72.0,87,76,1.0,66.0
97,76.0,3,89,5.0,78.0
98,76.0,5,79,4.0,82.0
99,76.0,8,90,0.0,78.0
100,69.0,120,87,2.0,80.0
101,57.0,1,93,6.0,78.0
102,57.0,0,104,3.0,87.0
103,77.0,3,225,0.0,78.0
104,77.0,1,240,5.0,85.0
105,74.0,5,252,1.0,89.0
106,77.0,1,250,4.0,85.0
107,70.0,227,77,2.0,78.0
108,55.0,11,88,6.0,68.0
109,55.0,3,101,3.0,80.0
110,79.0,2,62,5.0,82.0
111,79.0,5,51,0.0,72.0
112,79.0,9,62,4.0,80.0
113,76.0,102,75,1.0,70.0
114,53.0,1,95,6.0,64.0
115,53.0,14,105,3.0,72.0
116,72.0,102,127,2.0,87.0
117,77.0,0,191,1.0,87.0
118,81.0,6,247,0.0,80.0
119,81.0,8,263,4.0,95.0
120,81.0,2,286,5.0,95.0
121,52.0,214,106,6.0,63.0
122,60.0,3,110,2.0,70.0
123,69.0,4,106,1.0,80.0
124,52.0,4,107,3.0,74.0
125,79.0,96,67,0.0,76.0
126,79.0,6,67,5.0,80.0
127,79.0,7,62,4.0,80.0
128,71.0,3,92,1.0,78.0
129,50.0,115,104,6.0,66.0
130,62.0,4,98,2.0,87.0
131,50.0,1,113,3.0,82.0
132,77.0,0,203,5.0,85.0
133,77.0,5,224,0.0,80.0
134,77.0,9,221,4.0,91.0
135,74.0,3,84,1.0,87.0
136,47.0,218,94,6.0,66.0
137,76.0,7,86,0.0,80.0
138,76.0,6,82,5.0,68.0
139,55.0,0,99,2.0,74.0
140,76.0,11,78,4.0,87.0
141,47.0,3,110,3.0,87.0
142,74.0,89,80,0.0,74.0
143,74.0,4,79,5.0,76.0
144,74.0,9,79,4.0,78.0
145,48.0,108,82,6.0,78.0
146,67.0,2,87,1.0,82.0
147,60.0,2,90,2.0,76.0
148,48.0,2,93,3.0,89.0
149,76.0,12,230,0.0,76.0
150,76.0,4,239,4.0,93.0
151,76.0,0,254,5.0,89.0
152,69.0,11,78,1.0,89.0
153,41.0,213,106,6.0,54.0
154,41.0,6,94,3.0,85.0
155,60.0,9,93,2.0,76.0
156,77.0,101,53,0.0,68.0
157,77.0,10,53,5.0,78.0
158,77.0,7,49,4.0,68.0
159,43.0,102,141,6.0,74.0
160,43.0,8,135,3.0,82.0
161,72.0,7,121,0.0,70.0
162,72.0,2,142,4.0,89.0
163,72.0,3,139,5.0,80.0
164,71.0,2,128,4.0,66.0
165,71.0,11,122,0.0,60.0
166,71.0,97,135,5.0,56.0
167,55.0,2,108,3.0,72.0
168,55.0,93,124,6.0,72.0
169,69.0,4,115,4.0,60.0
170,69.0,16,132,5.0,64.0
171,69.0,7,127,0.0,51.0
172,67.0,6,107,0.0,64.0
173,67.0,6,119,5.0,72.0
174,67.0,100,127,4.0,68.0
175,62.0,5,564,1.0,82.0
176,53.0,87,124,3.0,74.0
177,53.0,17,124,6.0,66.0
178,67.0,11,596,2.0,85.0
179,69.0,14,135,4.0,78.0
180,69.0,3,130,0.0,68.0
181,69.0,2,142,5.0,82.0
182,71.0,3,129,0.0,82.0
183,71.0,3,128,5.0,72.0
184,71.0,107,149,4.0,76.0
185,60.0,5,100,2.0,66.0
186,52.0,87,133,3.0,76.0
187,67.0,13,106,1.0,72.0
188,52.0,14,141,6.0,60.0
189,72.0,9,152,5.0,68.0
190,72.0,3,152,0.0,66.0
191,72.0,1,148,4.0,64.0
192,74.0,0,62,5.0,68.0
193,74.0,5,59,4.0,76.0
194,74.0,95,65,0.0,74.0
195,76.0,18,80,5.0,89.0
196,53.0,101,115,3.0,80.0
197,76.0,3,89,4.0,87.0
198,76.0,3,97,0.0,82.0
199,53.0,2,111,6.0,72.0
200,60.0,0,122,2.0,78.0
201,69.0,10,106,1.0,80.0
202,74.0,71,41,5.0,61.0
203,74.0,0,35,4.0,49.0
204,74.0,11,51,0.0,57.0
205,76.0,33,55,5.0,66.0
206,76.0,7,53,4.0,62.0
207,76.0,11,55,0.0,74.0
208,74.0,42,28,5.0,57.0
209,74.0,2,29,4.0,61.0
210,74.0,5,35,0.0,62.0
211,76.0,5,39,4.0,59.0
212,76.0,11,47,5.0,60.0
213,55.0,17,88,3.0,80.0
214,76.0,5,63,0.0,64.0
215,67.0,2,95,1.0,66.0
216,55.0,0,108,6.0,70.0
217,59.0,6,102,2.0,80.0
218,74.0,20,77,5.0,70.0
219,74.0,16,62,0.0,70.0
220,74.0,6,98,4.0,78.0
221,72.0,14,86,0.0,70.0
222,72.0,40,101,5.0,80.0
223,72.0,3,98,4.0,66.0
224,74.0,48,68,0.0,64.0
225,74.0,8,71,5.0,82.0
226,74.0,20,64,4.0,80.0
227,48.0,44,100,6.0,64.0
228,48.0,5,106,3.0,85.0
229,67.0,3,138,1.0,82.0
230,60.0,9,140,2.0,85.0
231,76.0,2,257,4.0,66.0
232,76.0,2,252,5.0,80.0
233,76.0,3,287,0.0,66.0
234,52.0,221,89,6.0,78.0
235,52.0,5,83,3.0,80.0
236,59.0,6,100,2.0,80.0
237,68.0,3,110,1.0,64.0
238,74.0,7,49,4.0,66.0
239,74.0,108,56,5.0,66.0
240,74.0,10,51,0.0,66.0
241,45.0,98,96,6.0,82.0
242,69.0,7,106,1.0,82.0
243,57.0,0,91,2.0,78.0
244,45.0,2,111,3.0,91.0
245,72.0,13,213,5.0,82.0
246,72.0,3,214,4.0,85.0
247,72.0,9,219,0.0,68.0
248,71.0,2,73,4.0,89.0
249,66.0,3,91,1.0,68.0
250,71.0,9,84,5.0,74.0
251,71.0,8,79,0.0,72.0
252,57.0,216,120,2.0,76.0
253,50.0,5,96,3.0,80.0
254,50.0,2,128,6.0,80.0
255,52.0,73,87,6.0,70.0
256,69.0,22,74,0.0,68.0
257,69.0,0,76,5.0,78.0
258,69.0,1,79,4.0,82.0
259,52.0,6,87,3.0,82.0
260,50.0,1,96,3.0,89.0
261,50.0,104,126,6.0,74.0
262,48.0,87,117,6.0,66.0
263,48.0,26,108,3.0,82.0
264,67.0,3,269,1.0,87.0
265,71.0,5,250,0.0,87.0
266,71.0,2,272,5.0,87.0
267,62.0,13,288,2.0,89.0
268,71.0,3,281,4.0,87.0
269,47.0,95,91,6.0,68.0
270,47.0,26,80,3.0,70.0
271,72.0,2,42,5.0,82.0
272,72.0,3,46,0.0,78.0
273,72.0,0,47,4.0,80.0
274,45.0,98,86,6.0,60.0
275,69.0,5,66,1.0,76.0
276,60.0,11,86,2.0,63.0
277,45.0,1,85,3.0,89.0
278,67.0,7,91,2.0,87.0
279,47.0,9,133,3.0,87.0
280,47.0,108,146,6.0,80.0
281,62.0,0,142,1.0,76.0
282,74.0,4,295,4.0,87.0
283,74.0,1,307,0.0,93.0
284,74.0,1,310,5.0,91.0
285,67.0,11,101,1.0,78.0
286,48.0,2,106,3.0,87.0
287,48.0,218,128,6.0,64.0
288,76.0,0,88,4.0,78.0
289,76.0,1,90,0.0,80.0
290,76.0,95,93,5.0,80.0
291,78.0,123,80,0.0,80.0
292,78.0,1,75,5.0,78.0
293,78.0,3,84,4.0,85.0
294,45.0,4,114,3.0,78.0
295,69.0,1,131,1.0,66.0
296,45.0,2,151,6.0,58.0
297,60.0,11,400,2.0,85.0
298,79.0,1,58,0.0,85.0
299,79.0,0,75,4.0,89.0
300,79.0,0,69,5.0,91.0
301,62.0,8,71,2.0,66.0
302,71.0,4,96,1.0,68.0
303,43.0,5,111,3.0,80.0
304,43.0,223,125,6.0,62.0
305,42.0,219,116,6.0,87.0
306,42.0,7,130,3.0,91.0
307,62.0,0,151,2.0,89.0
308,69.0,4,177,1.0,95.0
309,69.0,5,272,4.0,85.0
310,69.0,1,292,5.0,89.0
311,69.0,3,300,0.0,98.0
312,43.0,213,108,6.0,68.0
313,43.0,2,120,3.0,76.0
314,62.0,6,133,2.0,82.0
315,67.0,5,135,1.0,70.0
316,71.0,95,82,5.0,76.0
317,71.0,15,64,4.0,76.0
318,71.0,14,80,0.0,78.0
319,64.0,2,106,2.0,78.0
320,40.0,0,116,3.0,76.0
321,40.0,100,139,6.0,63.0
322,67.0,6,133,1.0,85.0
323,72.0,2,240,5.0,82.0
324,72.0,5,255,0.0,80.0
325,72.0,13,251,4.0,85.0
326,42.0,7,82,3.0,82.0
327,62.0,0,94,2.0,87.0
328,69.0,219,105,1.0,78.0
329,42.0,3,103,6.0,68.0
330,74.0,97,60,5.0,82.0
331,74.0,7,80,0.0,68.0
332,74.0,15,68,4.0,85.0
333,67.0,104,135,1.0,87.0
334,43.0,7,128,6.0,82.0
335,43.0,0,140,3.0,98.0
336,72.0,13,155,5.0,89.0
337,72.0,1,155,0.0,80.0
338,72.0,3,157,4.0,87.0
339,62.0,5,181,2.0,85.0
340,71.0,108,118,5.0,78.0
341,71.0,3,124,0.0,78.0
342,71.0,6,122,4.0,76.0
343,60.0,0,64,2.0,85.0
344,64.0,93,109,1.0,80.0
345,69.0,0,107,0.0,70.0
346,48.0,9,102,6.0,82.0
347,48.0,2,113,3.0,80.0
348,69.0,16,119,5.0,85.0
349,69.0,2,119,4.0,82.0
350,67.0,1,64,0.0,80.0
351,67.0,3,64,5.0,70.0
352,59.0,93,76,2.0,85.0
353,67.0,9,69,4.0,66.0
354,50.0,2,104,3.0,95.0
355,67.0,2,102,4.0,74.0
356,67.0,0,115,5.0,82.0
357,50.0,113,117,6.0,82.0
358,67.0,5,123,0.0,76.0
359,66.0,88,49,4.0,82.0
360,66.0,5,50,5.0,76.0
361,66.0,12,53,0.0,57.0
362,67.0,34,71,4.0,70.0
363,67.0,5,80,5.0,82.0
364,67.0,15,78,0.0,82.0
365,38.0,12,93,3.0,98.0
366,38.0,11,87,6.0,89.0
367,66.0,10,133,0.0,70.0
368,66.0,28,154,4.0,68.0
369,66.0,10,146,5.0,66.0
370,62.0,2,359,1.0,76.0
371,67.0,98,66,5.0,66.0
372,67.0,6,64,4.0,82.0
373,57.0,9,403,2.0,85.0
374,67.0,5,64,0.0,72.0
375,67.0,0,976,5.0,66.0
376,43.0,133,993,6.0,72.0
377,59.0,6,980,2.0,85.0
378,67.0,2,996,4.0,74.0
379,67.0,1,1016,0.0,70.0
380,43.0,2,1012,3.0,85.0
381,62.0,4,1025,1.0,85.0
382,72.0,1291,55,0.0,74.0
383,72.0,3,58,5.0,68.0
384,72.0,7,62,4.0,80.0
385,48.0,5,57,6.0,82.0
386,67.0,5,67,1.0,72.0
387,64.0,2,64,2.0,82.0
388,48.0,0,66,3.0,87.0
389,72.0,112,145,4.0,80.0
390,72.0,0,144,0.0,85.0
391,72.0,3,144,5.0,91.0
392,64.0,0,145,2.0,95.0
393,71.0,4,130,0.0,68.0
394,71.0,99,142,4.0,76.0
395,62.0,1,138,2.0,72.0
396,71.0,6,145,5.0,72.0
397,67.0,0,321,1.0,80.0
398,72.0,0,112,0.0,82.0
399,72.0,3,130,4.0,85.0
400,64.0,113,136,2.0,66.0
401,72.0,6,129,5.0,80.0
402,65.0,91,131,2.0,66.0
403,74.0,6,118,5.0,82.0
404,74.0,9,124,4.0,80.0
405,74.0,1,127,0.0,78.0
406,48.0,2,516,3.0,87.0
407,48.0,9,582,6.0,93.0
408,76.0,120,183,4.0,78.0
409,67.0,1,197,2.0,85.0
410,76.0,7,188,0.0,82.0
411,76.0,3,196,5.0,80.0
412,72.0,0,245,1.0,82.0
413,60.0,0,102,6.0,85.0
414,60.0,231,124,3.0,85.0
415,69.0,87,73,2.0,82.0
416,77.0,15,64,4.0,87.0
417,77.0,2,68,5.0,82.0
418,77.0,14,78,0.0,85.0
419,67.0,107,59,2.0,89.0
420,72.0,4,62,1.0,82.0
421,76.0,4,65,4.0,89.0
422,76.0,7,62,5.0,80.0
423,76.0,5,69,0.0,82.0
424,55.0,4,99,6.0,82.0
425,65.0,17,55,2.0,80.0
426,74.0,11,46,4.0,87.0
427,71.0,5,59,1.0,95.0
428,74.0,15,46,5.0,89.0
429,55.0,11,111,3.0,82.0
430,74.0,16,51,0.0,82.0
431,76.0,8,53,4.0,68.0
432,67.0,0,80,2.0,70.0
433,72.0,9,79,1.0,72.0
434,76.0,11,60,5.0,60.0
435,76.0,17,75,0.0,66.0
436,74.0,14,78,4.0,87.0
437,65.0,0,87,2.0,62.0
438,74.0,11,78,5.0,78.0
439,71.0,5,108,1.0,70.0
440,74.0,32,82,0.0,64.0
441,57.0,43,75,6.0,82.0
442,57.0,9,77,3.0,89.0
443,72.0,108,63,1.0,82.0
444,64.0,5,60,2.0,87.0
445,72.0,0,67,4.0,80.0
446,72.0,4,69,5.0,76.0
447,72.0,10,71,0.0,80.0
448,52.0,0,116,3.0,91.0
449,72.0,2,120,1.0,91.0
450,52.0,2,127,6.0,89.0
451,64.0,2,145,2.0,95.0
452,53.0,2,91,3.0,80.0
453,53.0,93,99,6.0,78.0
454,71.0,6,124,1.0,78.0
455,62.0,11,131,2.0,80.0
456,52.0,102,98,6.0,78.0
457,52.0,0,102,3.0,82.0
458,72.0,2,120,1.0,80.0
459,64.0,10,128,2.0,74.0
460,50.0,4,87,3.0,82.0
461,50.0,0,95,6.0,82.0
462,74.0,2,98,1.0,80.0
463,65.0,97,139,2.0,72.0
464,48.0,6,124,6.0,66.0
465,79.0,110,598,4.0,87.0
466,48.0,2,135,3.0,85.0
467,67.0,0,150,2.0,87.0
468,79.0,5,638,0.0,87.0
469,79.0,7,664,5.0,85.0
470,76.0,119,222,1.0,82.0
471,74.0,243,71,1.0,76.0
472,77.0,6,86,5.0,82.0
473,77.0,8,93,0.0,80.0
474,67.0,2,105,2.0,72.0
475,58.0,0,111,6.0,64.0
476,58.0,6,102,3.0,85.0
477,77.0,2,107,4.0,85.0
478,72.0,78,75,1.0,89.0
479,76.0,5,106,0.0,76.0
480,76.0,4,108,5.0,78.0
481,76.0,15,96,4.0,68.0
482,57.0,2,98,6.0,78.0
483,69.0,104,111,2.0,80.0
484,57.0,5,93,3.0,85.0
485,74.0,17,238,1.0,89.0
486,77.0,6,241,5.0,85.0
487,77.0,3,239,4.0,93.0
488,77.0,1,267,0.0,87.0
489,55.0,6,87,6.0,68.0
490,70.0,206,103,2.0,82.0
491,55.0,25,79,3.0,68.0
492,79.0,2,51,5.0,80.0
493,76.0,94,72,1.0,80.0
494,79.0,12,71,4.0,78.0
495,79.0,7,76,0.0,74.0
496,53.0,95,108,6.0,66.0
497,72.0,8,120,2.0,102.0
498,53.0,9,112,3.0,85.0
499,77.0,3,142,1.0,98.0
500,81.0,13,266,4.0,100.0
501,81.0,2,268,5.0,91.0
502,81.0,5,282,0.0,87.0
503,60.0,17,102,2.0,63.0
504,69.0,1,119,1.0,78.0
505,52.0,5,106,3.0,72.0
506,52.0,205,144,6.0,64.0
507,79.0,0,62,4.0,82.0
508,79.0,97,66,5.0,76.0
509,79.0,14,71,0.0,74.0
510,50.0,99,102,6.0,78.0
511,50.0,6,101,3.0,76.0
512,62.0,2,97,2.0,87.0
513,71.0,3,106,1.0,82.0
514,77.0,2,203,0.0,78.0
515,77.0,1,214,4.0,80.0
516,77.0,11,217,5.0,76.0
517,55.0,214,110,2.0,74.0
518,76.0,18,79,4.0,78.0
519,76.0,1,84,0.0,76.0
520,74.0,4,104,1.0,89.0
521,47.0,0,104,3.0,70.0
522,47.0,9,113,6.0,60.0
523,76.0,0,99,5.0,64.0
524,74.0,6,69,0.0,70.0
525,74.0,102,78,4.0,80.0
526,74.0,2,84,5.0,76.0
527,48.0,7,86,6.0,82.0
528,48.0,7,86,3.0,85.0
529,67.0,101,104,1.0,87.0
530,60.0,4,95,2.0,78.0
531,76.0,9,246,4.0,87.0
532,76.0,3,249,5.0,93.0
533,76.0,1,256,0.0,89.0
534,69.0,6,78,1.0,85.0
535,60.0,5,79,2.0,70.0
536,41.0,217,93,6.0,80.0
537,41.0,3,99,3.0,72.0
538,77.0,114,61,0.0,78.0
539,77.0,0,65,5.0,80.0
540,77.0,21,62,4.0,82.0
541,43.0,90,139,3.0,80.0
542,43.0,3,150,6.0,74.0
543,72.0,22,131,5.0,85.0
544,72.0,1,141,0.0,85.0
545,72.0,1,142,4.0,91.0
546,71.0,98,125,5.0,61.0
547,71.0,6,119,4.0,64.0
548,71.0,5,139,0.0,63.0
549,55.0,2,112,6.0,66.0
550,55.0,97,135,3.0,80.0
551,69.0,6,128,4.0,68.0
552,69.0,5,141,5.0,64.0
553,69.0,3,142,0.0,66.0
554,67.0,110,111,4.0,68.0
555,67.0,1,120,0.0,70.0
556,67.0,2,131,5.0,68.0
557,53.0,4,109,3.0,72.0
558,53.0,112,137,6.0,68.0
559,62.0,9,620,1.0,78.0
560,67.0,2,622,2.0,82.0
561,69.0,4,141,4.0,76.0
562,69.0,6,146,0.0,76.0
563,69.0,4,139,5.0,76.0
564,71.0,1,126,5.0,76.0
565,71.0,7,127,4.0,76.0
566,71.0,103,148,0.0,78.0
567,60.0,6,95,2.0,66.0
568,52.0,94,120,3.0,62.0
569,52.0,1,134,6.0,63.0
570,67.0,12,141,1.0,74.0
571,72.0,1,157,4.0,64.0
572,72.0,0,157,5.0,64.0
573,72.0,5,153,0.0,62.0
574,74.0,1,70,5.0,78.0
575,74.0,108,72,4.0,76.0
576,74.0,3,70,0.0,82.0
577,76.0,10,92,4.0,89.0
578,53.0,5,95,3.0,76.0
579,76.0,2,97,5.0,85.0
580,53.0,0,110,6.0,68.0
581,76.0,9,102,0.0,82.0
582,60.0,1,118,2.0,66.0
583,69.0,105,133,1.0,80.0
584,74.0,76,48,4.0,52.0
585,74.0,16,47,5.0,55.0
586,74.0,3,51,0.0,56.0
587,76.0,29,58,4.0,63.0
588,76.0,15,52,5.0,72.0
589,76.0,8,52,0.0,68.0
590,74.0,35,37,4.0,58.0
591,74.0,14,34,5.0,59.0
592,74.0,3,40,0.0,68.0
593,76.0,5,49,5.0,66.0
594,76.0,6,61,4.0,62.0
595,55.0,9,93,3.0,78.0
596,55.0,4,95,6.0,74.0
597,76.0,11,65,0.0,66.0
598,59.0,5,105,2.0,82.0
599,67.0,4,118,1.0,68.0
600,74.0,22,71,4.0,70.0
601,74.0,5,68,0.0,74.0
602,74.0,14,90,5.0,62.0
603,72.0,32,100,4.0,78.0
604,72.0,16,82,0.0,63.0
605,72.0,9,115,5.0,64.0
606,74.0,11,57,0.0,74.0
607,74.0,41,78,4.0,72.0
608,74.0,18,62,5.0,74.0
609,48.0,4,102,6.0,74.0
610,48.0,6,115,3.0,87.0
611,60.0,6,147,2.0,78.0
612,67.0,45,168,1.0,78.0
613,76.0,2,255,4.0,89.0
614,76.0,3,254,5.0,72.0
615,76.0,1,285,0.0,76.0
616,52.0,2,84,6.0,68.0
617,52.0,7,89,3.0,78.0
618,59.0,11,104,2.0,68.0
619,68.0,221,117,1.0,64.0
620,74.0,111,53,5.0,74.0
621,74.0,1,55,0.0,63.0
622,74.0,5,56,4.0,76.0
623,69.0,5,106,1.0,80.0
624,57.0,104,118,2.0,80.0
625,45.0,4,113,6.0,85.0
626,45.0,3,124,3.0,87.0
627,72.0,8,220,5.0,78.0
628,72.0,5,216,4.0,85.0
629,72.0,3,231,0.0,78.0
630,71.0,3,82,5.0,68.0
631,71.0,3,77,0.0,80.0
632,66.0,2,86,1.0,68.0
633,71.0,1,84,4.0,74.0
634,57.0,224,102,2.0,80.0
635,50.0,0,120,6.0,78.0
636,50.0,4,127,3.0,85.0
637,52.0,92,73,3.0,82.0
638,69.0,7,73,0.0,82.0
639,69.0,0,75,5.0,64.0
640,52.0,2,82,6.0,78.0
641,69.0,9,81,4.0,78.0
642,50.0,106,99,3.0,95.0
643,50.0,2,104,6.0,85.0
644,48.0,90,100,3.0,82.0
645,48.0,3,115,6.0,70.0
646,71.0,7,257,0.0,87.0
647,67.0,5,272,1.0,87.0
648,62.0,4,286,2.0,93.0
649,71.0,5,270,5.0,80.0
650,71.0,8,284,4.0,78.0
651,47.0,0,80,6.0,70.0
652,47.0,110,102,3.0,80.0
653,72.0,0,43,0.0,80.0
654,72.0,6,45,4.0,80.0
655,72.0,7,49,5.0,82.0
656,45.0,0,88,6.0,68.0
657,69.0,5,75,1.0,80.0
658,45.0,120,99,3.0,60.0
659,60.0,13,93,2.0,66.0
660,67.0,1,99,2.0,91.0
661,47.0,0,124,3.0,89.0
662,62.0,1,140,1.0,70.0
663,47.0,105,156,6.0,85.0
664,74.0,7,301,4.0,95.0
665,74.0,1,309,0.0,98.0
666,74.0,22,292,5.0,95.0
667,48.0,2,115,6.0,64.0
668,48.0,9,108,3.0,78.0
669,67.0,204,137,1.0,68.0
670,76.0,101,93,0.0,85.0
671,76.0,10,89,4.0,72.0
672,76.0,14,86,5.0,66.0
673,78.0,2,93,4.0,87.0
674,78.0,5,102,0.0,100.0
675,45.0,8,120,3.0,70.0
676,78.0,27,86,5.0,91.0
677,69.0,90,144,1.0,66.0
678,45.0,3,148,6.0,64.0
679,60.0,6,374,2.0,80.0
680,79.0,11,69,0.0,102.0
681,79.0,2,69,4.0,91.0
682,71.0,3,88,1.0,74.0
683,79.0,5,64,5.0,93.0
684,62.0,6,73,2.0,64.0
685,43.0,199,114,3.0,78.0
686,43.0,6,126,6.0,70.0
687,42.0,9,124,3.0,93.0
688,42.0,2,127,6.0,68.0
689,62.0,3,135,2.0,87.0
690,69.0,210,180,1.0,87.0
691,69.0,1,287,0.0,87.0
692,69.0,4,303,4.0,85.0
693,69.0,9,298,5.0,89.0
694,43.0,200,117,6.0,64.0
695,67.0,11,115,1.0,66.0
696,43.0,9,106,3.0,70.0
697,62.0,4,114,2.0,85.0
698,71.0,4,73,5.0,72.0
699,71.0,114,79,4.0,76.0
700,71.0,3,75,0.0,72.0
701,40.0,6,95,6.0,80.0
702,64.0,9,104,2.0,82.0
703,40.0,99,135,3.0,68.0
704,67.0,2,152,1.0,80.0
705,72.0,12,236,4.0,85.0
706,72.0,0,241,5.0,82.0
707,72.0,2,242,0.0,82.0
708,42.0,214,78,6.0,58.0
709,62.0,17,84,2.0,85.0
710,42.0,3,104,3.0,80.0
711,69.0,0,122,1.0,70.0
712,74.0,8,60,4.0,80.0
713,74.0,87,71,0.0,72.0
714,74.0,5,64,5.0,80.0
715,43.0,1,110,6.0,82.0
716,67.0,124,128,1.0,85.0
717,43.0,1,135,3.0,95.0
718,72.0,4,148,4.0,91.0
719,72.0,3,160,0.0,85.0
720,72.0,4,159,5.0,80.0
721,62.0,0,184,2.0,91.0
722,71.0,3,122,4.0,82.0
723,71.0,2,131,5.0,74.0
724,71.0,112,141,0.0,70.0
725,64.0,98,93,1.0,82.0
726,60.0,5,84,2.0,89.0
727,48.0,1,87,6.0,78.0
728,69.0,0,111,5.0,78.0
729,69.0,17,118,4.0,80.0
730,48.0,2,111,3.0,87.0
731,69.0,1,121,0.0,80.0
732,67.0,100,60,5.0,76.0
733,67.0,0,64,4.0,66.0
734,67.0,5,67,0.0,64.0
735,59.0,6,62,2.0,82.0
736,50.0,111,98,6.0,85.0
737,67.0,0,97,4.0,78.0
738,59.0,11,90,2.0,87.0
739,67.0,3,104,5.0,78.0
740,50.0,2,106,3.0,85.0
741,67.0,2,125,0.0,80.0
742,66.0,79,46,4.0,76.0
743,66.0,7,42,5.0,66.0
744,57.0,2,47,2.0,66.0
745,66.0,12,53,0.0,60.0
746,59.0,29,50,2.0,76.0
747,67.0,3,80,5.0,74.0
748,57.0,0,40,2.0,70.0
749,66.0,24,52,4.0,70.0
750,67.0,18,78,0.0,78.0
751,59.0,17,51,2.0,80.0
752,67.0,3,137,4.0,70.0
753,38.0,10,85,6.0,82.0
754,38.0,7,89,3.0,95.0
755,66.0,13,148,5.0,53.0
756,62.0,2,359,1.0,85.0
757,66.0,10,152,0.0,68.0
758,66.0,2,120,4.0,74.0
759,67.0,84,62,5.0,76.0
760,67.0,12,68,0.0,74.0
761,67.0,14,56,4.0,78.0
762,57.0,14,183,2.0,78.0
763,43.0,111,976,3.0,89.0
764,67.0,2,996,4.0,63.0
765,67.0,5,998,5.0,76.0
766,67.0,5,994,0.0,76.0
767,62.0,11,1007,1.0,82.0
768,59.0,0,1003,2.0,82.0
769,43.0,2,1042,6.0,66.0
770,67.0,0,53,2.0,68.0
771,55.0,1274,62,3.0,80.0
772,74.0,7,58,5.0,87.0
773,74.0,4,56,4.0,85.0
774,55.0,3,64,6.0,80.0
775,71.0,3,46,1.0,72.0
776,74.0,17,51,0.0,82.0
777,74.0,2,111,4.0,95.0
778,74.0,3,139,5.0,85.0
779,71.0,4,131,1.0,87.0
780,74.0,3,143,0.0,93.0
781,55.0,4,171,3.0,98.0
782,55.0,5,219,6.0,82.0
783,72.0,5,117,5.0,80.0
784,72.0,96,126,4.0,76.0
785,69.0,6,114,1.0,64.0
786,72.0,9,132,0.0,72.0
787,53.0,106,73,3.0,82.0
788,53.0,1,73,6.0,72.0
789,74.0,1,118,4.0,70.0
790,74.0,5,122,5.0,72.0
791,71.0,0,122,1.0,58.0
792,74.0,8,115,0.0,76.0
793,67.0,102,384,2.0,80.0
794,52.0,78,75,3.0,76.0
795,52.0,7,97,6.0,72.0
796,76.0,13,100,4.0,78.0
797,76.0,5,104,0.0,76.0
798,76.0,5,119,5.0,78.0
799,73.0,1,118,1.0,53.0
800,74.0,0,180,1.0,80.0
801,77.0,2,182,4.0,85.0
802,77.0,4,195,0.0,85.0
803,77.0,8,193,5.0,85.0
804,69.0,4,215,2.0,85.0
805,79.0,6,60,4.0,72.0
806,79.0,332,68,0.0,76.0
807,70.0,4,55,2.0,66.0
808,79.0,5,62,5.0,76.0
809,50.0,1,511,3.0,82.0
810,50.0,112,517,6.0,68.0
811,77.0,115,56,0.0,87.0
812,77.0,5,53,4.0,91.0
813,69.0,2,60,2.0,100.0
814,77.0,5,66,5.0,87.0
815,76.0,33,65,0.0,76.0
816,67.0,11,49,2.0,85.0
817,76.0,7,67,4.0,87.0
818,76.0,1,61,5.0,80.0
819,77.0,30,75,0.0,57.0
820,69.0,0,75,2.0,72.0
821,77.0,1,73,4.0,72.0
822,77.0,4,74,5.0,64.0
823,49.0,3,89,3.0,72.0
824,49.0,8,98,6.0,80.0
825,70.0,1,188,1.0,70.0
826,76.0,42,77,0.0,66.0
827,76.0,7,64,5.0,66.0
828,76.0,2,75,4.0,66.0
829,67.0,9,122,2.0,82.0
830,50.0,7,106,3.0,68.0
831,50.0,46,115,6.0,68.0
832,74.0,4,84,0.0,68.0
833,52.0,121,90,3.0,66.0
834,52.0,1,92,6.0,70.0
835,74.0,12,88,5.0,85.0
836,74.0,10,84,4.0,82.0
837,53.0,3,110,6.0,87.0
838,53.0,108,115,3.0,85.0
839,69.0,4,171,1.0,64.0
840,74.0,4,193,2.0,82.0
841,55.0,86,112,3.0,72.0
842,55.0,0,149,6.0,68.0
843,69.0,11,80,2.0,82.0
844,53.0,122,99,3.0,72.0
845,74.0,6,98,1.0,68.0
846,53.0,0,111,6.0,64.0
847,73.0,5,73,1.0,53.0
848,52.0,4,96,3.0,68.0
849,67.0,87,110,2.0,66.0
850,52.0,7,115,6.0,62.0
851,65.0,15,111,2.0,76.0
852,81.0,8,569,4.0,87.0
853,81.0,6,586,5.0,85.0
854,50.0,2,132,3.0,74.0
855,50.0,2,134,6.0,72.0
856,81.0,0,614,0.0,82.0
857,69.0,229,71,2.0,62.0
858,79.0,5,75,5.0,82.0
859,60.0,4,86,3.0,85.0
860,60.0,11,99,6.0,80.0
861,79.0,1,98,0.0,82.0
862,79.0,5,114,4.0,74.0
863,77.0,87,97,4.0,68.0
864,77.0,14,89,0.0,68.0
865,77.0,6,87,5.0,87.0
866,62.0,110,80,2.0,76.0
867,58.0,3,104,3.0,76.0
868,58.0,2,120,6.0,66.0
869,79.0,4,195,4.0,87.0
870,79.0,13,211,5.0,80.0
871,79.0,7,255,0.0,87.0
872,66.0,221,82,2.0,76.0
873,57.0,3,90,3.0,80.0
874,57.0,11,86,6.0,59.0
875,81.0,96,46,5.0,82.0
876,81.0,5,60,0.0,76.0
877,81.0,14,50,4.0,68.0
878,55.0,1,119,3.0,89.0
879,55.0,0,118,6.0,80.0
880,53.0,98,102,3.0,82.0
881,53.0,9,112,6.0,78.0
882,82.0,0,235,4.0,82.0
883,82.0,116,265,5.0,89.0
884,82.0,6,262,0.0,87.0
885,55.0,110,97,3.0,64.0
886,55.0,5,106,6.0,62.0
887,81.0,108,57,4.0,72.0
888,81.0,3,58,5.0,74.0
889,81.0,2,53,0.0,76.0
890,57.0,0,115,6.0,68.0
891,57.0,4,121,3.0,72.0
892,67.0,7,501,2.0,70.0
893,74.0,106,1554,1.0,68.0
894,58.0,0,116,6.0,66.0
895,58.0,1,123,3.0,72.0
896,79.0,1,186,0.0,91.0
897,79.0,129,188,5.0,93.0
898,79.0,1,185,4.0,89.0
899,77.0,2,73,4.0,70.0
900,77.0,0,78,0.0,72.0
901,77.0,5,70,5.0,68.0
902,69.0,227,101,2.0,76.0
903,69.0,3,108,1.0,66.0
904,49.0,4,120,3.0,76.0
905,49.0,2,127,6.0,64.0
906,76.0,90,74,0.0,64.0
907,76.0,0,77,4.0,82.0
908,76.0,11,78,5.0,78.0
909,62.0,13,89,2.0,64.0
910,50.0,0,104,6.0,82.0
911,50.0,0,99,3.0,80.0
912,69.0,5,113,1.0,64.0
913,77.0,115,248,0.0,76.0
914,77.0,2,245,4.0,80.0
915,77.0,5,261,5.0,78.0
916,43.0,229,89,3.0,78.0
917,58.0,3,88,2.0,63.0
918,67.0,6,86,1.0,70.0
919,43.0,9,99,6.0,80.0
920,79.0,11,66,4.0,80.0
921,79.0,7,65,5.0,76.0
922,79.0,89,83,0.0,80.0
923,45.0,0,100,3.0,85.0
924,45.0,0,112,6.0,80.0
925,74.0,115,137,0.0,93.0
926,74.0,4,126,4.0,85.0
927,74.0,7,122,5.0,91.0
928,73.0,90,135,0.0,66.0
929,73.0,1,141,5.0,70.0
930,73.0,7,150,4.0,66.0
931,57.0,2,93,3.0,82.0
932,71.0,99,128,0.0,59.0
933,57.0,3,117,6.0,76.0
934,71.0,1,138,4.0,59.0
935,71.0,16,139,5.0,57.0
936,69.0,1,135,4.0,70.0
937,57.0,6,490,2.0,70.0
938,69.0,97,164,0.0,62.0
939,69.0,23,148,5.0,68.0
940,55.0,109,102,3.0,70.0
941,55.0,0,106,6.0,80.0
942,71.0,7,137,4.0,64.0
943,71.0,2,145,0.0,59.0
944,71.0,3,144,5.0,60.0
945,64.0,3,633,1.0,78.0
946,73.0,118,100,4.0,61.0
947,73.0,0,107,0.0,57.0
948,73.0,8,108,5.0,60.0
949,69.0,0,89,2.0,78.0
950,53.0,88,123,3.0,63.0
951,74.0,12,102,1.0,70.0
952,74.0,2,118,0.0,74.0
953,74.0,11,128,4.0,78.0
954,53.0,6,126,6.0,70.0
955,74.0,0,135,5.0,62.0
956,76.0,88,82,4.0,80.0
957,76.0,4,85,0.0,78.0
958,76.0,7,79,5.0,74.0
959,77.0,117,82,4.0,82.0
960,77.0,5,89,0.0,85.0
961,55.0,4,107,3.0,80.0
962,77.0,6,92,5.0,80.0
963,70.0,2,110,2.0,78.0
964,76.0,52,51,4.0,53.0
965,55.0,6,121,6.0,66.0
966,74.0,1,130,1.0,78.0
967,76.0,9,60,0.0,58.0
968,76.0,25,57,5.0,55.0
969,77.0,21,49,4.0,64.0
970,77.0,13,51,0.0,74.0
971,77.0,25,44,5.0,66.0
972,76.0,7,41,4.0,70.0
973,76.0,11,39,0.0,64.0
974,76.0,20,38,5.0,58.0
975,77.0,19,65,4.0,80.0
976,77.0,3,62,0.0,66.0
977,77.0,3,62,5.0,68.0
978,69.0,2,73,2.0,76.0
979,76.0,13,67,0.0,72.0
980,57.0,5,95,3.0,74.0
981,57.0,15,105,6.0,68.0
982,76.0,20,62,5.0,66.0
983,73.0,1,102,1.0,74.0
984,76.0,3,88,4.0,66.0
985,74.0,44,93,0.0,66.0
986,74.0,7,88,5.0,68.0
987,74.0,7,101,4.0,57.0
988,76.0,16,73,5.0,64.0
989,76.0,37,91,0.0,70.0
990,76.0,4,71,4.0,74.0
991,74.0,5,82,1.0,91.0
992,69.0,9,75,2.0,82.0
993,50.0,4,98,3.0,78.0
994,50.0,5,106,6.0,68.0
995,77.0,64,274,0.0,89.0
996,77.0,7,255,4.0,91.0
997,77.0,10,272,5.0,82.0
998,53.0,216,102,3.0,80.0
999,53.0,5,98,6.0,63.0
1000,76.0,0,65,5.0,70.0
1001,76.0,92,68,4.0,74.0
1002,76.0,2,68,0.0,68.0
1003,62.0,10,297,2.0,80.0
1004,69.0,7,318,1.0,80.0
1005,47.0,121,118,6.0,72.0
1006,47.0,3,132,3.0,78.0
1007,74.0,4,196,5.0,87.0
1008,74.0,3,195,4.0,87.0
1009,74.0,8,208,0.0,82.0
1010,72.0,4,80,0.0,80.0
1011,72.0,3,82,5.0,78.0
1012,68.0,222,99,1.0,72.0
1013,52.0,2,113,3.0,76.0
1014,52.0,4,108,6.0,80.0
1015,72.0,6,115,4.0,72.0
1016,64.0,7,124,2.0,82.0
1017,71.0,75,82,0.0,62.0
1018,71.0,1,69,5.0,59.0
1019,71.0,13,78,4.0,68.0
1020,53.0,2,88,3.0,78.0
1021,53.0,3,95,6.0,64.0
1022,65.0,11,51,2.0,93.0
1023,52.0,0,102,3.0,80.0
1024,64.0,44,51,2.0,76.0
1025,52.0,118,131,6.0,78.0
1026,65.0,6,76,2.0,70.0
1027,50.0,42,102,3.0,64.0
1028,50.0,3,130,6.0,76.0
1029,69.0,2,248,1.0,85.0
1030,64.0,42,95,2.0,89.0
1031,72.0,3,274,0.0,85.0
1032,72.0,8,263,4.0,85.0
1033,72.0,3,285,5.0,80.0
1034,48.0,74,97,3.0,64.0
1035,48.0,8,113,6.0,64.0
1036,74.0,4,51,4.0,78.0
1037,74.0,7,51,5.0,80.0
1038,74.0,109,68,0.0,82.0
1039,71.0,1,73,1.0,78.0
1040,62.0,8,75,2.0,80.0
1041,47.0,2,99,6.0,60.0
1042,47.0,0,96,3.0,66.0
1043,64.0,8,109,1.0,72.0
1044,48.0,1,101,3.0,91.0
1045,48.0,5,111,6.0,87.0
1046,69.0,2,139,2.0,93.0
1047,76.0,102,268,0.0,78.0
1048,76.0,3,259,4.0,85.0
1049,76.0,1,272,5.0,78.0
1050,50.0,1,92,3.0,78.0
1051,69.0,239,106,1.0,72.0
1052,50.0,0,108,6.0,78.0
1053,78.0,82,88,0.0,66.0
1054,78.0,5,79,5.0,63.0
1055,78.0,11,84,4.0,63.0
1056,80.0,112,77,0.0,100.0
1057,62.0,8,297,2.0,85.0
1058,80.0,5,67,5.0,98.0
1059,80.0,2,75,4.0,93.0
1060,71.0,0,106,1.0,63.0
1061,47.0,3,110,6.0,72.0
1062,47.0,17,113,3.0,80.0
1063,81.0,0,73,0.0,91.0
1064,81.0,5,61,5.0,93.0
1065,81.0,0,69,4.0,95.0
1066,72.0,3,104,1.0,68.0
1067,64.0,3,89,2.0,76.0
1068,45.0,216,129,3.0,82.0
1069,45.0,9,125,6.0,74.0
1070,44.0,6,104,3.0,74.0
1071,64.0,3,92,2.0,72.0
1072,44.0,5,100,6.0,66.0
1073,71.0,4,109,1.0,68.0
1074,71.0,1,267,5.0,80.0
1075,71.0,3,277,4.0,87.0
1076,71.0,220,292,0.0,80.0
1077,69.0,4,80,1.0,68.0
1078,64.0,3,95,2.0,80.0
1079,45.0,4,104,3.0,70.0
1080,45.0,230,119,6.0,68.0
1081,72.0,7,60,4.0,70.0
1082,72.0,97,76,0.0,78.0
1083,72.0,5,71,5.0,70.0
1084,69.0,1,68,1.0,80.0
1085,42.0,0,87,3.0,66.0
1086,57.0,8,102,2.0,64.0
1087,42.0,5,112,6.0,68.0
1088,74.0,0,231,4.0,87.0
1089,74.0,112,250,0.0,85.0
1090,74.0,7,250,5.0,82.0
1091,44.0,216,102,3.0,68.0
1092,64.0,13,100,2.0,72.0
1093,44.0,5,104,6.0,68.0
1094,76.0,89,73,0.0,74.0
1095,76.0,22,65,5.0,70.0
1096,76.0,2,68,4.0,80.0
1097,45.0,8,124,6.0,62.0
1098,64.0,9,115,2.0,66.0
1099,45.0,0,118,3.0,82.0
1100,71.0,2,364,1.0,80.0
1101,72.0,102,267,0.0,64.0
1102,72.0,6,265,5.0,76.0
1103,72.0,1,275,4.0,74.0
1104,50.0,2,95,3.0,80.0
1105,50.0,0,106,6.0,78.0
1106,69.0,7,108,1.0,82.0
1107,65.0,226,133,2.0,74.0
1108,71.0,90,69,1.0,80.0
1109,71.0,13,47,4.0,68.0
1110,71.0,18,71,0.0,64.0
1111,71.0,14,54,5.0,74.0
1112,72.0,5,55,4.0,82.0
1113,72.0,2,49,5.0,85.0
1114,52.0,0,93,6.0,82.0
1115,64.0,9,79,2.0,78.0
1116,69.0,86,108,1.0,85.0
1117,52.0,11,98,3.0,82.0
1118,71.0,29,47,4.0,62.0
1119,71.0,10,60,5.0,56.0
1120,72.0,8,104,0.0,63.0
1121,68.0,28,42,1.0,66.0
1122,72.0,6,71,4.0,64.0
1123,71.0,2,62,0.0,60.0
1124,72.0,10,67,5.0,68.0
1125,69.0,28,65,1.0,76.0
1126,72.0,13,69,0.0,68.0
1127,71.0,9,149,4.0,68.0
1128,71.0,5,151,5.0,47.0
1129,40.0,24,71,3.0,89.0
1130,62.0,11,66,2.0,80.0
1131,68.0,18,148,1.0,85.0
1132,71.0,26,126,0.0,63.0
1133,40.0,1,101,6.0,80.0
1134,64.0,92,62,1.0,68.0
1135,69.0,0,80,0.0,78.0
1136,69.0,11,59,4.0,80.0
1137,69.0,10,73,5.0,78.0
1138,45.0,3,110,6.0,80.0
1139,45.0,4,125,3.0,87.0
1140,44.0,80,112,6.0,60.0
1141,44.0,4,114,3.0,74.0
1142,45.0,124,120,6.0,68.0
1143,45.0,8,127,3.0,70.0
1144,47.0,105,133,6.0,57.0
1145,47.0,12,132,3.0,82.0
1146,69.0,12,518,4.0,87.0
1147,69.0,1,538,5.0,82.0
1148,64.0,6,554,1.0,66.0
1149,48.0,126,85,6.0,80.0
1150,60.0,9,545,2.0,78.0
1151,48.0,9,79,3.0,89.0
1152,69.0,119,600,0.0,68.0
1153,62.0,3,109,2.0,78.0
1154,71.0,5,120,5.0,72.0
1155,71.0,3,115,0.0,82.0
1156,71.0,95,133,4.0,74.0
1157,60.0,95,86,2.0,66.0
1158,52.0,0,82,6.0,78.0
1159,72.0,5,101,5.0,72.0
1160,52.0,15,89,3.0,85.0
1161,69.0,4,115,1.0,68.0
1162,72.0,3,141,0.0,66.0
1163,72.0,6,155,4.0,66.0
1164,59.0,76,84,2.0,74.0
1165,74.0,13,90,0.0,78.0
1166,74.0,2,95,4.0,82.0
1167,71.0,6,99,1.0,78.0
1168,74.0,1,130,5.0,78.0
1169,72.0,8,104,1.0,80.0
1170,57.0,112,125,2.0,76.0
1171,76.0,0,131,0.0,80.0
1172,76.0,3,128,4.0,85.0
1173,76.0,1,134,5.0,64.0
1174,77.0,2,82,4.0,68.0
1175,77.0,1,90,0.0,78.0
1176,57.0,10,193,3.0,89.0
1177,77.0,89,105,5.0,68.0
1178,57.0,1,201,6.0,85.0
1179,71.0,3,131,1.0,68.0
1180,79.0,99,45,4.0,72.0
1181,79.0,7,47,0.0,68.0
1182,79.0,0,78,5.0,61.0
1183,77.0,3,45,5.0,72.0
1184,77.0,6,62,0.0,68.0
1185,55.0,9,87,3.0,82.0
1186,69.0,0,90,2.0,85.0
1187,55.0,1,93,6.0,70.0
1188,72.0,26,103,1.0,66.0
1189,79.0,44,64,4.0,74.0
1190,79.0,2,61,0.0,68.0
1191,79.0,5,68,5.0,52.0
1192,77.0,2,148,4.0,62.0
1193,77.0,9,57,0.0,48.0
1194,77.0,7,64,5.0,82.0
1195,74.0,24,86,1.0,68.0
1196,53.0,0,80,3.0,80.0
1197,53.0,6,80,6.0,68.0
1198,76.0,21,42,5.0,70.0
1199,76.0,0,86,4.0,66.0
1200,76.0,24,96,0.0,66.0
1201,77.0,37,60,4.0,66.0
1202,77.0,2,58,0.0,80.0
1203,76.0,17,104,1.0,98.0
1204,52.0,8,98,6.0,66.0
1205,52.0,11,102,3.0,78.0
1206,67.0,2,142,2.0,89.0
1207,50.0,89,117,6.0,76.0
1208,50.0,10,111,3.0,82.0
1209,79.0,1,252,0.0,85.0
1210,79.0,2,263,4.0,91.0
1211,79.0,10,311,5.0,93.0
1212,52.0,122,95,3.0,60.0
1213,72.0,3,101,1.0,68.0
1214,55.0,20,90,2.0,68.0
1215,52.0,0,122,6.0,68.0
1216,77.0,86,71,5.0,80.0
1217,77.0,2,67,4.0,68.0
1218,77.0,7,62,0.0,72.0
1219,53.0,4,95,3.0,70.0
1220,53.0,2,96,6.0,72.0
1221,57.0,14,84,2.0,85.0
1222,58.0,7,82,2.0,93.0
1223,55.0,4,111,3.0,85.0
1224,67.0,7,106,1.0,82.0
1225,55.0,0,113,6.0,80.0
1226,76.0,2,195,0.0,87.0
1227,76.0,102,213,5.0,91.0
1228,76.0,2,228,4.0,91.0
1229,74.0,1,95,4.0,74.0
1230,64.0,1,111,1.0,68.0
1231,48.0,230,115,3.0,72.0
1232,48.0,6,113,6.0,82.0
1233,55.0,4,109,2.0,70.0
1234,74.0,0,127,0.0,66.0
1235,74.0,1,137,5.0,74.0
1236,72.0,8,82,5.0,68.0
1237,72.0,6,79,4.0,62.0
1238,72.0,86,122,0.0,59.0
1239,65.0,0,97,1.0,70.0
1240,70.0,128,104,0.0,74.0
1241,62.0,5,88,2.0,87.0
1242,50.0,2,102,3.0,82.0
1243,70.0,5,111,5.0,82.0
1244,70.0,2,119,4.0,85.0
1245,50.0,7,115,6.0,82.0
1246,69.0,6,91,4.0,72.0
1247,69.0,83,117,0.0,64.0
1248,69.0,5,144,5.0,72.0
1249,52.0,2,65,6.0,72.0
1250,52.0,9,75,3.0,74.0
1251,67.0,0,82,1.0,78.0
1252,60.0,2,89,2.0,72.0
1253,70.0,3,120,5.0,59.0
1254,70.0,115,124,0.0,57.0
1255,70.0,8,113,4.0,64.0
1256,67.0,2,90,4.0,63.0
1257,67.0,8,104,5.0,70.0
1258,67.0,86,115,0.0,63.0
1259,53.0,6,120,3.0,87.0
1260,53.0,7,124,6.0,82.0
1261,52.0,103,122,3.0,78.0
1262,52.0,13,109,6.0,66.0
1263,69.0,132,295,0.0,78.0
1264,69.0,3,290,4.0,76.0
1265,69.0,4,309,5.0,82.0
1266,53.0,101,135,3.0,62.0
1267,53.0,15,139,6.0,66.0
1268,67.0,97,74,0.0,66.0
1269,67.0,3,79,4.0,85.0
1270,67.0,10,73,5.0,82.0
1271,55.0,8,102,3.0,68.0
1272,55.0,6,108,6.0,68.0
1273,60.0,0,542,2.0,80.0
1274,65.0,4,86,0.0,78.0
1275,65.0,3,575,1.0,64.0
1276,65.0,6,106,4.0,85.0
1277,65.0,10,86,5.0,89.0
1278,57.0,98,135,3.0,68.0
1279,57.0,7,129,6.0,74.0
1280,58.0,94,117,3.0,78.0
1281,58.0,5,133,6.0,80.0
1282,69.0,8,58,4.0,87.0
1283,69.0,2,60,5.0,85.0
1284,69.0,3,68,0.0,82.0
1285,61.0,7,97,2.0,82.0
1286,64.0,5,92,1.0,78.0
1287,57.0,110,116,3.0,72.0
1288,57.0,0,144,6.0,60.0
1289,55.0,90,138,3.0,72.0
1290,55.0,11,128,6.0,68.0
1291,69.0,7,82,1.0,78.0
1292,62.0,0,84,2.0,80.0
1293,53.0,111,122,3.0,68.0
1294,53.0,14,119,6.0,63.0
1295,52.0,5,106,3.0,64.0
1296,52.0,85,118,6.0,70.0
1297,74.0,4,254,0.0,82.0
1298,74.0,3,250,5.0,74.0
1299,74.0,2,277,4.0,87.0
1300,69.0,4,73,1.0,80.0
1301,57.0,18,84,2.0,74.0
1302,50.0,115,124,3.0,66.0
1303,50.0,9,124,6.0,68.0
1304,76.0,6,57,5.0,82.0
1305,76.0,93,77,0.0,82.0
1306,76.0,7,75,4.0,80.0
1307,49.0,0,100,3.0,72.0
1308,49.0,4,109,6.0,68.0
1309,50.0,6,92,3.0,85.0
1310,50.0,3,98,6.0,80.0
1311,77.0,1,251,4.0,91.0
1312,77.0,110,267,0.0,91.0
1313,77.0,8,248,5.0,82.0
1314,52.0,218,94,3.0,74.0
1315,52.0,10,97,6.0,78.0
1316,79.0,97,71,0.0,76.0
1317,79.0,5,80,4.0,85.0
1318,79.0,1,84,5.0,68.0
1319,69.0,4,492,1.0,80.0
1320,62.0,10,489,2.0,80.0
1321,53.0,2,91,3.0,78.0
1322,53.0,5,110,6.0,74.0
1323,81.0,4,139,4.0,87.0
1324,81.0,125,149,0.0,100.0
1325,81.0,5,147,5.0,82.0
1326,79.0,3,150,0.0,82.0
1327,79.0,101,158,4.0,80.0
1328,79.0,12,166,5.0,72.0
1329,69.0,1,82,1.0,85.0
1330,62.0,100,85,2.0,80.0
1331,50.0,5,110,3.0,72.0
1332,50.0,2,116,6.0,68.0
1333,77.0,1,153,0.0,72.0
1334,77.0,0,166,4.0,89.0
1335,77.0,19,155,5.0,62.0
1336,76.0,98,120,4.0,76.0
1337,76.0,1,121,0.0,68.0
1338,76.0,21,117,5.0,63.0
1339,64.0,7,91,1.0,78.0
1340,55.0,1,97,2.0,80.0
1341,74.0,9,108,0.0,76.0
1342,74.0,87,122,4.0,66.0
1343,52.0,3,108,3.0,78.0
1344,74.0,5,116,5.0,61.0
1345,52.0,15,122,6.0,70.0
1346,72.0,0,133,0.0,72.0
1347,72.0,62,140,4.0,76.0
1348,72.0,21,146,5.0,72.0
1349,62.0,7,84,1.0,80.0
1350,57.0,2,91,2.0,87.0
1351,71.0,116,126,4.0,63.0
1352,53.0,2,116,3.0,82.0
1353,71.0,2,127,0.0,61.0
1354,53.0,6,100,6.0,74.0
1355,71.0,14,118,5.0,57.0
1356,72.0,71,65,0.0,66.0
1357,72.0,5,69,4.0,78.0
1358,72.0,40,65,5.0,78.0
1359,72.0,73,64,0.0,82.0
1360,72.0,20,59,4.0,80.0
1361,72.0,9,52,5.0,80.0
1362,71.0,11,51,0.0,59.0
1363,71.0,15,49,4.0,62.0
1364,55.0,17,102,3.0,85.0
1365,55.0,0,109,6.0,66.0
1366,55.0,5,108,2.0,87.0
1367,71.0,30,53,5.0,78.0
1368,72.0,1,74,0.0,80.0
1369,72.0,9,75,4.0,82.0
1370,72.0,5,73,5.0,78.0
1371,54.0,29,108,2.0,82.0
1372,43.0,57,97,6.0,70.0
1373,71.0,4,208,0.0,74.0
1374,71.0,32,165,5.0,76.0
1375,71.0,17,198,4.0,70.0
1376,43.0,2,115,3.0,87.0
1377,55.0,0,120,2.0,64.0
1378,62.0,2,384,1.0,70.0
1379,72.0,93,75,0.0,78.0
1380,72.0,6,80,4.0,76.0
1381,72.0,6,75,5.0,82.0
1382,57.0,2,99,2.0,80.0
1383,59.0,14,96,2.0,80.0
1384,55.0,3,102,6.0,78.0
1385,55.0,4,108,3.0,72.0
1386,74.0,112,184,0.0,78.0
1387,74.0,0,195,4.0,87.0
1388,74.0,6,221,5.0,74.0
1389,60.0,223,76,2.0,82.0
1390,57.0,2,102,3.0,78.0
1391,72.0,2,100,5.0,76.0
1392,72.0,6,102,4.0,70.0
1393,57.0,3,113,6.0,76.0
1394,67.0,7,350,1.0,85.0
1395,72.0,0,128,0.0,68.0
1396,71.0,7,89,4.0,66.0
1397,71.0,4,99,5.0,66.0
1398,71.0,98,106,0.0,66.0
1399,55.0,1,108,6.0,70.0
1400,69.0,5,109,0.0,76.0
1401,55.0,117,122,3.0,78.0
1402,69.0,5,119,5.0,72.0
1403,69.0,6,116,4.0,95.0
1404,67.0,87,109,5.0,68.0
1405,67.0,13,128,0.0,76.0
1406,67.0,7,125,4.0,74.0
1407,62.0,2,302,2.0,82.0
1408,53.0,7,85,6.0,63.0
1409,59.0,1,308,1.0,68.0
1410,53.0,7,82,3.0,70.0
1411,69.0,107,115,5.0,64.0
1412,69.0,0,124,4.0,66.0
1413,69.0,7,128,0.0,74.0
1414,71.0,17,65,4.0,78.0
1415,71.0,93,83,5.0,66.0
1416,71.0,0,78,0.0,74.0
1417,71.0,2,18,0.0,80.0
1418,72.0,1,96,5.0,87.0
1419,72.0,10,105,4.0,93.0
1420,52.0,114,119,6.0,70.0
1421,52.0,0,112,3.0,87.0
1422,72.0,2,112,0.0,76.0
1423,64.0,2,122,2.0,87.0
1424,71.0,2,116,4.0,82.0
1425,71.0,0,117,0.0,78.0
1426,62.0,6,122,2.0,78.0
1427,71.0,93,131,5.0,82.0
1428,72.0,1,93,5.0,78.0
1429,72.0,6,108,4.0,80.0
1430,50.0,1,107,3.0,74.0
1431,72.0,111,129,0.0,64.0
1432,64.0,5,130,2.0,68.0
1433,50.0,6,124,6.0,72.0
1434,67.0,5,365,1.0,82.0
1435,74.0,2,88,5.0,76.0
1436,74.0,2,91,0.0,80.0
1437,74.0,3,98,4.0,76.0
1438,65.0,100,114,2.0,66.0
1439,48.0,0,142,6.0,66.0
1440,48.0,6,150,3.0,80.0
1441,76.0,0,180,5.0,89.0
1442,76.0,5,181,4.0,89.0
1443,67.0,0,197,2.0,85.0
1444,76.0,120,217,0.0,82.0
1445,72.0,6,297,1.0,85.0
1446,60.0,9,98,3.0,85.0
1447,60.0,217,111,6.0,78.0
1448,77.0,3,55,5.0,76.0
1449,77.0,6,64,4.0,72.0
1450,69.0,98,79,2.0,80.0
1451,77.0,5,70,0.0,80.0
1452,72.0,5,48,1.0,82.0
1453,76.0,1,47,5.0,85.0
1454,76.0,2,48,4.0,87.0
1455,67.0,119,73,2.0,93.0
1456,76.0,4,58,0.0,95.0
1457,65.0,3,38,2.0,82.0
1458,74.0,1,55,5.0,80.0
1459,71.0,34,63,1.0,66.0
1460,55.0,2,102,3.0,85.0
1461,74.0,6,58,4.0,85.0
1462,55.0,3,109,6.0,76.0
1463,76.0,2,69,4.0,66.0
1464,76.0,7,64,0.0,66.0
1465,72.0,0,78,1.0,82.0
1466,76.0,1,69,5.0,68.0
1467,67.0,33,84,2.0,66.0
1468,74.0,5,74,5.0,70.0
1469,74.0,3,73,4.0,70.0
1470,74.0,7,202,0.0,63.0
1471,71.0,10,126,1.0,68.0
1472,65.0,34,136,2.0,78.0
1473,57.0,95,62,3.0,87.0
1474,57.0,1,70,6.0,80.0
1475,72.0,95,71,1.0,74.0
1476,64.0,22,64,2.0,82.0
1477,72.0,7,63,0.0,68.0
1478,72.0,2,64,5.0,72.0
1479,72.0,9,77,4.0,85.0
1480,72.0,2,98,1.0,91.0
1481,64.0,4,122,2.0,80.0
1482,52.0,6,122,6.0,78.0
1483,52.0,95,152,3.0,82.0
1484,50.0,5,113,3.0,78.0
1485,71.0,88,120,1.0,89.0
1486,50.0,7,110,6.0,66.0
1487,65.0,2,137,2.0,68.0
1488,72.0,110,107,1.0,82.0
1489,64.0,2,110,2.0,85.0
1490,52.0,0,133,6.0,64.0
1491,52.0,1,135,3.0,70.0
1492,62.0,4,69,2.0,66.0
1493,74.0,97,98,1.0,74.0
1494,53.0,2,96,3.0,82.0
1495,53.0,16,106,6.0,72.0
1496,55.0,6,113,6.0,78.0
1497,55.0,11,124,3.0,82.0
1498,60.0,9,113,2.0,68.0
1499,79.0,2,589,4.0,91.0
1500,79.0,1,627,5.0,85.0
1501,79.0,9,636,0.0,85.0
1502,57.0,102,93,3.0,82.0
1503,76.0,109,229,1.0,89.0
1504,57.0,0,111,6.0,66.0
1505,74.0,2,58,1.0,72.0
1506,58.0,122,108,3.0,82.0
1507,77.0,4,97,0.0,66.0
1508,67.0,9,108,2.0,85.0
1509,58.0,0,126,6.0,74.0
1510,77.0,16,97,4.0,76.0
1511,77.0,5,98,5.0,66.0
1512,76.0,74,89,0.0,70.0
1513,76.0,11,91,4.0,80.0
1514,72.0,5,102,1.0,82.0
1515,76.0,7,94,5.0,66.0
1516,69.0,104,124,2.0,85.0
1517,57.0,3,117,3.0,80.0
1518,57.0,11,122,6.0,70.0
1519,77.0,6,244,0.0,87.0
1520,77.0,4,232,4.0,85.0
1521,77.0,5,231,5.0,82.0
1522,74.0,0,254,1.0,87.0
1523,70.0,225,95,2.0,76.0
1524,55.0,9,106,6.0,66.0
1525,55.0,5,112,3.0,85.0
1526,79.0,88,76,0.0,80.0
1527,79.0,9,65,5.0,78.0
1528,79.0,7,82,4.0,82.0
1529,76.0,2,99,1.0,68.0
1530,72.0,6,97,2.0,82.0
1531,77.0,0,87,1.0,95.0
1532,53.0,7,115,6.0,61.0
1533,53.0,2,122,3.0,82.0
1534,81.0,111,256,0.0,93.0
1535,81.0,7,266,5.0,85.0
1536,81.0,4,273,4.0,89.0
1537,60.0,219,93,2.0,70.0
1538,52.0,5,95,3.0,80.0
1539,52.0,8,104,6.0,68.0
1540,79.0,89,78,0.0,80.0
1541,79.0,1,67,5.0,72.0
1542,79.0,15,78,4.0,74.0
1543,50.0,0,104,6.0,68.0
1544,50.0,5,115,3.0,85.0
1545,69.0,0,387,1.0,82.0
1546,77.0,1,184,4.0,89.0
1547,77.0,119,222,0.0,85.0
1548,77.0,8,225,5.0,80.0
1549,76.0,236,82,4.0,72.0
1550,62.0,2,334,2.0,89.0
1551,71.0,1,86,1.0,82.0
1552,76.0,0,89,0.0,66.0
1553,76.0,5,95,5.0,66.0
1554,55.0,5,117,6.0,70.0
1555,55.0,5,125,3.0,87.0
1556,74.0,82,82,0.0,66.0
1557,74.0,4,95,4.0,82.0
1558,74.0,5,91,5.0,78.0
1559,57.0,8,93,3.0,76.0
1560,57.0,9,130,6.0,68.0
1561,67.0,2,102,2.0,78.0
1562,55.0,102,140,3.0,74.0
1563,55.0,2,124,6.0,66.0
1564,53.0,98,110,3.0,76.0
1565,76.0,7,248,0.0,72.0
1566,76.0,7,248,5.0,80.0
1567,53.0,24,120,6.0,62.0
1568,76.0,2,252,4.0,89.0
1569,72.0,2,268,1.0,82.0
1570,52.0,75,118,3.0,68.0
1571,52.0,11,104,6.0,64.0
1572,65.0,36,119,2.0,70.0
1573,77.0,2,73,5.0,72.0
1574,77.0,7,75,0.0,76.0
1575,77.0,7,70,4.0,85.0
1576,74.0,8,73,1.0,78.0
1577,50.0,73,117,3.0,66.0
1578,50.0,9,91,6.0,66.0
1579,52.0,93,98,3.0,93.0
1580,72.0,5,73,1.0,82.0
1581,64.0,2,109,2.0,70.0
1582,52.0,11,96,6.0,80.0
1583,71.0,68,58,1.0,66.0
1584,72.0,51,67,1.0,80.0
1585,79.0,9,267,0.0,89.0
1586,79.0,6,273,4.0,91.0
1587,79.0,7,280,5.0,85.0
1588,55.0,0,100,3.0,78.0
1589,62.0,44,100,2.0,66.0
1590,55.0,26,76,6.0,82.0
1591,71.0,47,154,1.0,85.0
1592,72.0,70,70,1.0,82.0
1593,77.0,22,65,5.0,72.0
1594,77.0,11,60,4.0,74.0
1595,77.0,2,73,0.0,72.0
1596,60.0,9,102,2.0,68.0
1597,76.0,14,97,5.0,78.0
1598,60.0,5,111,3.0,85.0
1599,76.0,1,120,0.0,91.0
1600,76.0,7,114,4.0,85.0
1601,72.0,95,166,1.0,87.0
1602,60.0,15,137,6.0,72.0
1603,74.0,0,81,5.0,68.0
1604,74.0,80,102,0.0,64.0
1605,59.0,4,102,3.0,72.0
1606,74.0,13,98,4.0,80.0
1607,59.0,13,125,6.0,74.0
1608,64.0,4,87,2.0,80.0
1609,76.0,1,97,5.0,78.0
1610,76.0,6,101,4.0,68.0
1611,76.0,5,111,0.0,66.0
1612,72.0,8,100,1.0,68.0
1613,57.0,89,140,3.0,72.0
1614,57.0,5,144,6.0,60.0
1615,72.0,6,82,5.0,80.0
1616,72.0,2,93,4.0,82.0
1617,72.0,1,98,0.0,66.0
1618,55.0,88,118,3.0,60.0
1619,55.0,16,110,6.0,61.0
1620,71.0,4,76,1.0,74.0
1621,53.0,95,119,3.0,61.0
1622,53.0,13,115,6.0,58.0
1623,69.0,59,54,1.0,60.0
1624,71.0,28,64,1.0,78.0
1625,52.0,14,130,3.0,66.0
1626,52.0,9,135,6.0,61.0
1627,74.0,1,247,0.0,78.0
1628,65.0,1,254,2.0,78.0
1629,74.0,6,251,4.0,76.0
1630,74.0,2,263,5.0,78.0
1631,69.0,50,130,1.0,74.0
1632,50.0,43,121,3.0,66.0
1633,50.0,9,120,6.0,54.0
1634,76.0,2,68,0.0,80.0
1635,76.0,9,71,5.0,72.0
1636,64.0,15,52,2.0,78.0
1637,69.0,4,67,1.0,68.0
1638,76.0,0,79,4.0,80.0
1639,48.0,112,109,3.0,63.0
1640,48.0,8,113,6.0,66.0
1641,50.0,0,104,6.0,78.0
1642,50.0,0,124,3.0,82.0
1643,69.0,2,155,1.0,87.0
1644,62.0,4,157,2.0,82.0
1645,67.0,117,100,1.0,58.0
1646,77.0,107,243,0.0,89.0
1647,77.0,5,262,5.0,93.0
1648,77.0,2,276,4.0,91.0
1649,60.0,118,77,2.0,82.0
1650,57.0,11,135,3.0,82.0
1651,57.0,5,135,6.0,72.0
1652,65.0,2,168,1.0,78.0
1653,76.0,7,69,0.0,68.0
1654,76.0,5,64,5.0,68.0
1655,59.0,83,78,2.0,80.0
1656,76.0,9,64,4.0,74.0
1657,67.0,11,102,1.0,82.0
1658,55.0,4,117,3.0,78.0
1659,55.0,2,146,6.0,80.0
1660,57.0,84,126,2.0,82.0
1661,74.0,2,118,5.0,82.0
1662,74.0,9,117,0.0,87.0
1663,53.0,12,146,3.0,70.0
1664,74.0,6,139,4.0,91.0
1665,53.0,0,155,6.0,59.0
1666,69.0,5,172,1.0,85.0
1667,72.0,95,101,0.0,64.0
1668,72.0,6,108,5.0,64.0
1669,72.0,11,104,4.0,85.0
1670,52.0,1,123,3.0,76.0
1671,52.0,4,122,6.0,66.0
1672,62.0,4,77,2.0,82.0
1673,65.0,2,93,1.0,87.0
1674,50.0,16,115,3.0,68.0
1675,50.0,7,104,6.0,68.0
1676,71.0,7,106,4.0,76.0
1677,71.0,86,148,0.0,60.0
1678,71.0,0,136,5.0,60.0
1679,72.0,0,120,0.0,59.0
1680,64.0,5,117,1.0,78.0
1681,72.0,25,82,4.0,66.0
1682,72.0,3,119,5.0,59.0
1683,48.0,77,144,3.0,70.0
1684,48.0,13,155,6.0,57.0
1685,55.0,15,87,2.0,76.0
1686,47.0,74,123,3.0,63.0
1687,65.0,6,96,1.0,85.0
1688,74.0,5,118,0.0,70.0
1689,74.0,8,121,5.0,70.0
1690,47.0,2,142,6.0,61.0
1691,74.0,14,120,4.0,87.0
1692,71.0,16,111,5.0,74.0
1693,71.0,11,135,0.0,68.0
1694,45.0,65,150,3.0,61.0
1695,71.0,11,112,4.0,82.0
1696,45.0,2,134,6.0,64.0
1697,60.0,16,80,2.0,80.0
1698,43.0,77,122,3.0,72.0
1699,69.0,9,76,1.0,95.0
1700,72.0,5,124,0.0,62.0
1701,72.0,0,128,5.0,63.0
1702,72.0,2,118,4.0,56.0
1703,41.0,2,51,3.0,68.0
1704,43.0,21,158,6.0,56.0
1705,74.0,71,78,0.0,68.0
1706,41.0,10,54,6.0,80.0
1707,74.0,12,88,5.0,76.0
1708,74.0,9,71,4.0,85.0
1709,67.0,2,297,0.0,78.0
1710,67.0,14,312,5.0,68.0
1711,67.0,12,306,4.0,80.0
1712,69.0,327,129,0.0,63.0
1713,69.0,5,130,4.0,64.0
1714,69.0,1,130,5.0,63.0
1715,59.0,3,495,2.0,78.0
1716,62.0,13,503,1.0,80.0
1717,53.0,100,562,3.0,82.0
1718,71.0,14,100,5.0,72.0
1719,53.0,9,565,6.0,78.0
1720,71.0,101,122,0.0,64.0
1721,71.0,8,106,4.0,82.0
1722,72.0,103,122,5.0,70.0
1723,72.0,16,116,0.0,87.0
1724,72.0,5,120,4.0,85.0
1725,74.0,0,86,1.0,89.0
1726,74.0,103,101,5.0,58.0
1727,47.0,2,94,3.0,78.0
1728,55.0,0,96,2.0,82.0
1729,47.0,7,93,6.0,78.0
1730,74.0,4,107,4.0,66.0
1731,74.0,1,120,0.0,66.0
1732,76.0,3,73,5.0,76.0
1733,76.0,2,85,4.0,87.0
1734,76.0,104,89,0.0,74.0
1735,77.0,5,79,5.0,85.0
1736,77.0,0,92,4.0,89.0
1737,71.0,1,97,1.0,85.0
1738,62.0,2,86,2.0,82.0
1739,77.0,112,114,0.0,82.0
1740,43.0,8,106,6.0,64.0
1741,43.0,4,104,3.0,74.0
1742,74.0,6,73,5.0,82.0
1743,74.0,2,82,4.0,85.0
1744,74.0,89,100,0.0,78.0
1745,59.0,7,84,2.0,85.0
1746,74.0,0,96,1.0,87.0
1747,79.0,2,91,4.0,95.0
1748,79.0,118,127,0.0,89.0
1749,47.0,5,106,3.0,78.0
1750,47.0,8,115,6.0,76.0
1751,79.0,3,124,5.0,93.0
1752,48.0,2,118,6.0,60.0
1753,48.0,6,115,3.0,76.0
1754,55.0,214,168,2.0,74.0
1755,72.0,1,258,1.0,82.0
1756,76.0,0,271,0.0,85.0
1757,76.0,8,260,4.0,87.0
1758,76.0,5,284,5.0,85.0
1759,43.0,4,106,6.0,68.0
1760,67.0,229,112,2.0,82.0
1761,43.0,7,106,3.0,74.0
1762,74.0,4,56,5.0,82.0
1763,74.0,15,52,4.0,76.0
1764,71.0,88,101,1.0,64.0
1765,74.0,2,95,0.0,78.0
1766,65.0,5,98,2.0,80.0
1767,45.0,2,80,3.0,85.0
1768,72.0,107,106,1.0,85.0
1769,72.0,6,106,0.0,82.0
1770,45.0,2,104,6.0,76.0
1771,72.0,7,117,5.0,87.0
1772,72.0,2,113,4.0,89.0
1773,64.0,1,119,2.0,87.0
1774,71.0,97,84,0.0,72.0
1775,71.0,3,79,4.0,85.0
1776,71.0,8,92,5.0,78.0
1777,72.0,4,100,4.0,82.0
1778,41.0,0,88,6.0,70.0
1779,69.0,5,99,1.0,80.0
1780,41.0,8,90,3.0,85.0
1781,72.0,109,119,0.0,82.0
1782,72.0,3,119,5.0,82.0
1783,62.0,19,100,2.0,85.0
1784,69.0,2,72,4.0,66.0
1785,69.0,71,93,0.0,68.0
1786,69.0,23,85,5.0,78.0
1787,64.0,0,66,2.0,85.0
1788,69.0,97,100,1.0,70.0
1789,72.0,8,98,0.0,64.0
1790,72.0,5,80,5.0,68.0
1791,72.0,5,129,4.0,85.0
1792,67.0,55,53,1.0,59.0
1793,62.0,0,58,2.0,62.0
1794,71.0,15,47,0.0,62.0
1795,71.0,4,53,5.0,57.0
1796,71.0,22,43,4.0,58.0
1797,64.0,4,49,2.0,89.0
1798,69.0,6,53,1.0,64.0
1799,72.0,5,48,5.0,66.0
1800,72.0,9,64,0.0,74.0
1801,72.0,21,40,4.0,66.0
1802,67.0,5,44,1.0,70.0
1803,62.0,6,49,2.0,70.0
1804,71.0,1,42,5.0,64.0
1805,71.0,0,44,4.0,70.0
1806,72.0,6,33,0.0,62.0
1807,69.0,15,61,1.0,74.0
1808,64.0,6,58,2.0,78.0
1809,72.0,14,62,5.0,70.0
1810,72.0,16,59,4.0,82.0
1811,43.0,16,317,6.0,66.0
1812,43.0,4,343,3.0,82.0
1813,71.0,7,114,5.0,70.0
1814,71.0,16,190,0.0,82.0
1815,67.0,0,132,1.0,78.0
1816,71.0,27,103,4.0,78.0
1817,62.0,6,157,2.0,80.0
1818,72.0,77,68,0.0,85.0
1819,72.0,5,64,5.0,78.0
1820,72.0,13,62,4.0,78.0
1821,64.0,0,926,2.0,82.0
1822,72.0,3,970,0.0,68.0
1823,72.0,5,968,4.0,89.0
1824,36.0,9,965,3.0,85.0
1825,72.0,109,996,5.0,70.0
1826,67.0,1,990,1.0,76.0
1827,36.0,5,985,6.0,68.0
1828,67.0,0,53,2.0,68.0
1829,55.0,1274,62,3.0,80.0
1830,74.0,7,58,5.0,87.0
1831,74.0,4,56,4.0,85.0
1832,55.0,3,64,6.0,80.0
1833,71.0,3,46,1.0,72.0
1834,74.0,17,51,0.0,82.0
1835,74.0,2,111,4.0,95.0
1836,74.0,3,139,5.0,85.0
1837,71.0,4,131,1.0,87.0
1838,74.0,3,143,0.0,93.0
1839,55.0,4,171,3.0,98.0
1840,55.0,5,219,6.0,82.0
1841,72.0,5,117,5.0,80.0
1842,72.0,96,126,4.0,76.0
1843,69.0,6,114,1.0,64.0
1844,72.0,9,132,0.0,72.0
1845,53.0,106,73,3.0,82.0
1846,53.0,1,73,6.0,72.0
1847,74.0,0,118,4.0,70.0
1848,74.0,5,122,5.0,72.0
1849,71.0,1,122,1.0,58.0
1850,74.0,8,115,0.0,76.0
1851,67.0,102,384,2.0,80.0
1852,52.0,78,75,3.0,76.0
1853,52.0,7,97,6.0,72.0
1854,76.0,13,100,4.0,78.0
1855,76.0,5,104,0.0,76.0
1856,73.0,1,118,1.0,53.0
1857,76.0,5,119,5.0,78.0
1858,74.0,0,180,1.0,80.0
1859,77.0,2,182,4.0,85.0
1860,77.0,4,195,0.0,85.0
1861,77.0,8,193,5.0,85.0
1862,69.0,4,215,2.0,85.0
1863,79.0,6,60,4.0,72.0
1864,79.0,332,68,0.0,76.0
1865,70.0,4,55,2.0,66.0
1866,79.0,5,62,5.0,76.0
1867,50.0,1,511,3.0,82.0
1868,50.0,112,517,6.0,68.0
1869,77.0,115,56,0.0,87.0
1870,77.0,5,53,4.0,91.0
1871,69.0,2,60,2.0,100.0
1872,77.0,5,66,5.0,87.0
1873,76.0,33,65,0.0,76.0
1874,67.0,11,49,2.0,85.0
1875,76.0,7,67,4.0,87.0
1876,76.0,1,61,5.0,80.0
1877,77.0,30,75,0.0,57.0
1878,69.0,0,75,2.0,72.0
1879,77.0,1,73,4.0,72.0
1880,77.0,4,74,5.0,64.0
1881,49.0,3,89,3.0,72.0
1882,49.0,8,98,6.0,80.0
1883,70.0,1,188,1.0,70.0
1884,76.0,42,77,0.0,66.0
1885,76.0,7,64,5.0,66.0
1886,76.0,2,75,4.0,66.0
1887,67.0,9,122,2.0,82.0
1888,50.0,7,106,3.0,68.0
1889,50.0,46,115,6.0,68.0
1890,74.0,4,84,0.0,68.0
1891,52.0,121,90,3.0,66.0
1892,52.0,1,92,6.0,70.0
1893,74.0,12,88,5.0,85.0
1894,74.0,10,84,4.0,82.0
1895,53.0,3,110,6.0,87.0
1896,53.0,108,115,3.0,85.0
1897,69.0,4,171,1.0,64.0
1898,74.0,4,193,2.0,82.0
1899,55.0,86,112,3.0,72.0
1900,55.0,0,149,6.0,68.0
1901,69.0,11,80,2.0,82.0
1902,53.0,0,99,3.0,72.0
1903,74.0,6,98,1.0,68.0
1904,53.0,122,111,6.0,64.0
1905,73.0,5,73,1.0,53.0
1906,52.0,4,96,3.0,68.0
1907,67.0,87,110,2.0,66.0
1908,52.0,7,115,6.0,62.0
1909,65.0,15,111,2.0,76.0
1910,81.0,8,569,4.0,87.0
1911,81.0,6,586,5.0,85.0
1912,50.0,2,132,3.0,74.0
1913,50.0,2,134,6.0,72.0
1914,81.0,0,614,0.0,82.0
1915,69.0,229,71,2.0,62.0
1916,79.0,5,75,5.0,82.0
1917,60.0,4,86,3.0,85.0
1918,60.0,11,99,6.0,80.0
1919,79.0,1,98,0.0,82.0
1920,79.0,5,114,4.0,74.0
1921,77.0,87,97,4.0,68.0
1922,77.0,14,89,0.0,68.0
1923,77.0,6,87,5.0,87.0
1924,62.0,110,80,2.0,76.0
1925,58.0,3,104,3.0,76.0
1926,58.0,2,120,6.0,66.0
1927,79.0,4,195,4.0,87.0
1928,79.0,13,211,5.0,80.0
1929,79.0,7,255,0.0,87.0
1930,66.0,221,82,2.0,76.0
1931,57.0,3,90,3.0,80.0
1932,57.0,11,86,6.0,59.0
1933,81.0,96,46,5.0,82.0
1934,81.0,5,60,0.0,76.0
1935,81.0,14,50,4.0,68.0
1936,55.0,1,119,3.0,89.0
1937,55.0,6,118,6.0,80.0
1938,53.0,98,102,3.0,82.0
1939,53.0,9,112,6.0,78.0
1940,82.0,0,235,4.0,82.0
1941,82.0,116,265,5.0,89.0
1942,82.0,0,262,0.0,87.0
1943,55.0,110,97,3.0,64.0
1944,55.0,5,106,6.0,62.0
1945,81.0,108,57,4.0,72.0
1946,81.0,3,58,5.0,74.0
1947,81.0,0,53,0.0,76.0
1948,57.0,2,115,6.0,68.0
1949,57.0,4,121,3.0,72.0
1950,67.0,7,501,2.0,70.0
1951,74.0,106,1554,1.0,68.0
1952,58.0,1,116,6.0,66.0
1953,58.0,1,123,3.0,72.0
1954,79.0,0,186,0.0,91.0
1955,79.0,129,188,5.0,93.0
1956,79.0,1,185,4.0,89.0
1957,77.0,2,73,4.0,70.0
1958,77.0,5,70,5.0,68.0
1959,77.0,0,78,0.0,72.0
1960,69.0,227,101,2.0,76.0
1961,69.0,3,108,1.0,66.0
1962,49.0,4,120,3.0,76.0
1963,49.0,2,127,6.0,64.0
1964,76.0,90,74,0.0,64.0
1965,76.0,0,77,4.0,82.0
1966,76.0,11,78,5.0,78.0
1967,62.0,13,89,2.0,64.0
1968,50.0,0,104,6.0,82.0
1969,50.0,0,99,3.0,80.0
1970,69.0,5,113,1.0,64.0
1971,77.0,115,248,0.0,76.0
1972,77.0,2,245,4.0,80.0
1973,77.0,5,261,5.0,78.0
1974,43.0,229,89,3.0,78.0
1975,58.0,3,88,2.0,63.0
1976,67.0,6,86,1.0,70.0
1977,43.0,9,99,6.0,80.0
1978,79.0,11,66,4.0,80.0
1979,79.0,7,65,5.0,76.0
1980,79.0,89,83,0.0,80.0
1981,45.0,6,100,3.0,85.0
1982,45.0,3,112,6.0,80.0
1983,74.0,115,137,0.0,93.0
1984,74.0,4,126,4.0,85.0
1985,74.0,7,122,5.0,91.0
1986,73.0,90,135,0.0,66.0
1987,73.0,1,141,5.0,70.0
1988,73.0,7,150,4.0,66.0
1989,57.0,2,93,3.0,82.0
1990,71.0,99,128,0.0,59.0
1991,57.0,3,117,6.0,76.0
1992,71.0,16,139,5.0,57.0
1993,71.0,1,138,4.0,59.0
1994,69.0,1,135,4.0,70.0
1995,57.0,0,490,2.0,70.0
1996,69.0,97,164,0.0,62.0
1997,69.0,23,148,5.0,68.0
1998,55.0,109,102,3.0,70.0
1999,55.0,0,106,6.0,80.0
2000,71.0,7,137,4.0,64.0
2001,71.0,2,145,0.0,59.0
2002,71.0,3,144,5.0,60.0
2003,64.0,0,633,1.0,78.0
2004,73.0,0,100,4.0,61.0
2005,73.0,118,107,0.0,57.0
2006,73.0,8,108,5.0,60.0
2007,69.0,0,89,2.0,78.0
2008,53.0,88,123,3.0,63.0
2009,74.0,12,102,1.0,70.0
2010,74.0,2,118,0.0,74.0
2011,74.0,11,128,4.0,78.0
2012,53.0,6,126,6.0,70.0
2013,74.0,0,135,5.0,62.0
2014,76.0,88,82,4.0,80.0
2015,76.0,4,85,0.0,78.0
2016,76.0,7,79,5.0,74.0
2017,77.0,117,82,4.0,82.0
2018,77.0,5,89,0.0,85.0
2019,55.0,4,107,3.0,80.0
2020,77.0,6,92,5.0,80.0
2021,70.0,2,110,2.0,78.0
2022,76.0,52,51,4.0,53.0
2023,55.0,6,121,6.0,66.0
2024,74.0,1,130,1.0,78.0
2025,76.0,9,60,0.0,58.0
2026,76.0,25,57,5.0,55.0
2027,77.0,21,49,4.0,64.0
2028,77.0,13,51,0.0,74.0
2029,77.0,25,44,5.0,66.0
2030,76.0,7,41,4.0,70.0
2031,76.0,11,39,0.0,64.0
2032,76.0,20,38,5.0,58.0
2033,77.0,19,65,4.0,80.0
2034,77.0,3,62,0.0,66.0
2035,77.0,3,62,5.0,68.0
2036,69.0,2,73,2.0,76.0
2037,76.0,13,67,0.0,72.0
2038,57.0,5,95,3.0,74.0
2039,57.0,15,105,6.0,68.0
2040,76.0,20,62,5.0,66.0
2041,73.0,1,102,1.0,74.0
2042,76.0,3,88,4.0,66.0
2043,74.0,44,93,0.0,66.0
2044,74.0,7,88,5.0,68.0
2045,74.0,7,101,4.0,57.0
2046,76.0,16,73,5.0,64.0
2047,76.0,37,91,0.0,70.0
2048,76.0,4,71,4.0,74.0
2049,74.0,5,82,1.0,91.0
2050,69.0,9,75,2.0,82.0
2051,50.0,4,98,3.0,78.0
2052,50.0,5,106,6.0,68.0
2053,77.0,64,274,0.0,89.0
2054,77.0,7,255,4.0,91.0
2055,77.0,10,272,5.0,82.0
2056,53.0,216,102,3.0,80.0
2057,53.0,5,98,6.0,63.0
2058,76.0,92,65,5.0,70.0
2059,76.0,0,68,4.0,74.0
2060,76.0,2,68,0.0,68.0
2061,62.0,10,297,2.0,80.0
2062,69.0,7,318,1.0,80.0
2063,47.0,121,118,6.0,72.0
2064,47.0,3,132,3.0,78.0
2065,74.0,4,196,5.0,87.0
2066,74.0,3,195,4.0,87.0
2067,74.0,8,208,0.0,82.0
2068,72.0,4,80,0.0,80.0
2069,72.0,3,82,5.0,78.0
2070,68.0,222,99,1.0,72.0
2071,52.0,2,113,3.0,76.0
2072,52.0,4,108,6.0,80.0
2073,72.0,6,115,4.0,72.0
2074,64.0,7,124,2.0,82.0
2075,71.0,75,82,0.0,62.0
2076,71.0,1,69,5.0,59.0
2077,71.0,13,78,4.0,68.0
2078,53.0,2,88,3.0,78.0
2079,53.0,3,95,6.0,64.0
2080,65.0,11,51,2.0,93.0
2081,52.0,118,102,3.0,80.0
2082,64.0,44,51,2.0,76.0
2083,52.0,0,131,6.0,78.0
2084,65.0,6,76,2.0,70.0
2085,50.0,42,102,3.0,64.0
2086,50.0,3,130,6.0,76.0
2087,69.0,2,248,1.0,85.0
2088,64.0,42,95,2.0,89.0
2089,72.0,3,274,0.0,85.0
2090,72.0,8,263,4.0,85.0
2091,72.0,3,285,5.0,80.0
2092,48.0,74,97,3.0,64.0
2093,48.0,8,113,6.0,64.0
2094,74.0,4,51,4.0,78.0
2095,74.0,7,51,5.0,80.0
2096,74.0,109,68,0.0,82.0
2097,71.0,1,73,1.0,78.0
2098,62.0,8,75,2.0,80.0
2099,47.0,2,99,6.0,60.0
2100,47.0,0,96,3.0,66.0
2101,64.0,8,109,1.0,72.0
2102,48.0,1,101,3.0,91.0
2103,48.0,5,111,6.0,87.0
2104,69.0,2,139,2.0,93.0
2105,76.0,102,268,0.0,78.0
2106,76.0,3,259,4.0,85.0
2107,76.0,1,272,5.0,78.0
2108,50.0,1,92,3.0,78.0
2109,69.0,0,106,1.0,72.0
2110,50.0,239,108,6.0,78.0
2111,78.0,82,88,0.0,66.0
2112,78.0,5,79,5.0,63.0
2113,78.0,11,84,4.0,63.0
2114,80.0,112,77,0.0,100.0
2115,62.0,8,297,2.0,85.0
2116,80.0,5,67,5.0,98.0
2117,80.0,2,75,4.0,93.0
2118,71.0,3,106,1.0,63.0
2119,47.0,0,110,6.0,72.0
2120,47.0,17,113,3.0,80.0
2121,81.0,0,73,0.0,91.0
2122,81.0,5,61,5.0,93.0
2123,81.0,0,69,4.0,95.0
2124,72.0,3,104,1.0,68.0
2125,64.0,3,89,2.0,76.0
2126,45.0,216,129,3.0,82.0
2127,45.0,9,125,6.0,74.0
2128,44.0,6,104,3.0,74.0
2129,64.0,3,92,2.0,72.0
2130,44.0,5,100,6.0,66.0
2131,71.0,4,109,1.0,68.0
2132,71.0,1,267,5.0,80.0
2133,71.0,3,277,4.0,87.0
2134,71.0,220,292,0.0,80.0
2135,69.0,4,80,1.0,68.0
2136,64.0,3,95,2.0,80.0
2137,45.0,4,104,3.0,70.0
2138,45.0,230,119,6.0,68.0
2139,72.0,7,60,4.0,70.0
2140,72.0,97,76,0.0,78.0
2141,72.0,5,71,5.0,70.0
2142,69.0,1,68,1.0,80.0
2143,42.0,8,87,3.0,66.0
2144,57.0,0,102,2.0,64.0
2145,42.0,5,112,6.0,68.0
2146,74.0,0,231,4.0,87.0
2147,74.0,112,250,0.0,85.0
2148,74.0,7,250,5.0,82.0
2149,44.0,216,102,3.0,68.0
2150,64.0,13,100,2.0,72.0
2151,44.0,5,104,6.0,68.0
2152,76.0,89,73,0.0,74.0
2153,76.0,22,65,5.0,70.0
2154,76.0,2,68,4.0,80.0
2155,45.0,8,124,6.0,62.0
2156,64.0,0,115,2.0,66.0
2157,45.0,9,118,3.0,82.0
2158,71.0,2,364,1.0,80.0
2159,72.0,102,267,0.0,64.0
2160,72.0,6,265,5.0,76.0
2161,72.0,1,275,4.0,74.0
2162,50.0,2,95,3.0,80.0
2163,50.0,0,106,6.0,78.0
2164,69.0,7,108,1.0,82.0
2165,65.0,226,133,2.0,74.0
2166,71.0,90,69,1.0,80.0
2167,71.0,13,47,4.0,68.0
2168,71.0,18,71,0.0,64.0
2169,71.0,14,54,5.0,74.0
2170,72.0,5,55,4.0,82.0
2171,72.0,2,49,5.0,85.0
2172,64.0,9,79,2.0,78.0
2173,52.0,11,93,6.0,82.0
2174,69.0,86,108,1.0,85.0
2175,52.0,0,98,3.0,82.0
2176,71.0,29,47,4.0,62.0
2177,71.0,10,60,5.0,56.0
2178,72.0,8,104,0.0,63.0
2179,68.0,28,42,1.0,66.0
2180,72.0,6,71,4.0,64.0
2181,71.0,2,62,0.0,60.0
2182,72.0,10,67,5.0,68.0
2183,69.0,28,65,1.0,76.0
2184,72.0,13,69,0.0,68.0
2185,71.0,9,149,4.0,68.0
2186,71.0,5,151,5.0,47.0
2187,40.0,24,71,3.0,89.0
2188,62.0,11,66,2.0,80.0
2189,68.0,18,148,1.0,85.0
2190,71.0,26,126,0.0,63.0
2191,40.0,1,101,6.0,80.0
2192,64.0,92,62,1.0,68.0
2193,69.0,11,59,4.0,80.0
2194,69.0,0,80,0.0,78.0
2195,69.0,10,73,5.0,78.0
2196,45.0,3,110,6.0,80.0
2197,45.0,4,125,3.0,87.0
2198,44.0,80,112,6.0,60.0
2199,44.0,4,114,3.0,74.0
2200,45.0,124,120,6.0,68.0
2201,45.0,8,127,3.0,70.0
2202,47.0,105,133,6.0,57.0
2203,47.0,12,132,3.0,82.0
2204,69.0,12,518,4.0,87.0
2205,69.0,1,538,5.0,82.0
2206,64.0,6,554,1.0,66.0
2207,48.0,126,85,6.0,80.0
2208,60.0,9,545,2.0,78.0
2209,48.0,9,79,3.0,89.0
2210,69.0,119,600,0.0,68.0
2211,62.0,3,109,2.0,78.0
2212,71.0,5,120,5.0,72.0
2213,71.0,3,115,0.0,82.0
2214,71.0,95,133,4.0,74.0
2215,60.0,95,86,2.0,66.0
2216,72.0,5,101,5.0,72.0
2217,52.0,15,82,6.0,78.0
2218,52.0,0,89,3.0,85.0
2219,69.0,4,115,1.0,68.0
2220,72.0,3,141,0.0,66.0
2221,72.0,6,155,4.0,66.0
2222,59.0,76,84,2.0,74.0
2223,74.0,13,90,0.0,78.0
2224,74.0,2,95,4.0,82.0
2225,71.0,6,99,1.0,78.0
2226,74.0,1,130,5.0,78.0
2227,72.0,8,104,1.0,80.0
2228,57.0,112,125,2.0,76.0
2229,76.0,3,128,4.0,85.0
2230,76.0,0,131,0.0,80.0
2231,76.0,1,134,5.0,64.0
2232,77.0,2,82,4.0,68.0
2233,77.0,1,90,0.0,78.0
2234,57.0,10,193,3.0,89.0
2235,77.0,89,105,5.0,68.0
2236,57.0,1,201,6.0,85.0
2237,71.0,3,131,1.0,68.0
2238,79.0,99,45,4.0,72.0
2239,79.0,7,47,0.0,68.0
2240,79.0,0,78,5.0,61.0
2241,77.0,3,45,5.0,72.0
2242,77.0,6,62,0.0,68.0
2243,55.0,9,87,3.0,82.0
2244,69.0,0,90,2.0,85.0
2245,72.0,26,103,1.0,66.0
2246,55.0,1,93,6.0,70.0
2247,79.0,44,64,4.0,74.0
2248,79.0,2,61,0.0,68.0
2249,79.0,5,68,5.0,52.0
2250,77.0,2,148,4.0,62.0
2251,77.0,9,57,0.0,48.0
2252,77.0,7,64,5.0,82.0
2253,74.0,24,86,1.0,68.0
2254,53.0,6,80,3.0,80.0
2255,53.0,0,80,6.0,68.0
2256,76.0,21,42,5.0,70.0
2257,76.0,24,86,4.0,66.0
2258,76.0,0,96,0.0,66.0
2259,77.0,2,58,0.0,80.0
2260,77.0,37,60,4.0,66.0
2261,76.0,17,104,1.0,98.0
2262,52.0,8,98,6.0,66.0
2263,52.0,11,102,3.0,78.0
2264,67.0,2,142,2.0,89.0
2265,50.0,89,117,6.0,76.0
2266,50.0,10,111,3.0,82.0
2267,79.0,1,252,0.0,85.0
2268,79.0,2,263,4.0,91.0
2269,79.0,10,311,5.0,93.0
2270,52.0,0,95,3.0,60.0
2271,72.0,3,101,1.0,68.0
2272,55.0,20,90,2.0,68.0
2273,52.0,122,122,6.0,68.0
2274,77.0,86,71,5.0,80.0
2275,77.0,2,67,4.0,68.0
2276,77.0,7,62,0.0,72.0
2277,53.0,4,95,3.0,70.0
2278,53.0,2,96,6.0,72.0
2279,57.0,14,84,2.0,85.0
2280,58.0,7,82,2.0,93.0
2281,55.0,4,111,3.0,85.0
2282,67.0,7,106,1.0,82.0
2283,55.0,0,113,6.0,80.0
2284,76.0,2,195,0.0,87.0
2285,76.0,102,213,5.0,91.0
2286,76.0,2,228,4.0,91.0
2287,74.0,1,95,4.0,74.0
2288,64.0,1,111,1.0,68.0
2289,48.0,230,115,3.0,72.0
2290,48.0,0,113,6.0,82.0
2291,55.0,4,109,2.0,70.0
2292,74.0,6,127,0.0,66.0
2293,74.0,1,137,5.0,74.0
2294,72.0,8,82,5.0,68.0
2295,72.0,6,79,4.0,62.0
2296,72.0,86,122,0.0,59.0
2297,65.0,128,97,1.0,70.0
2298,70.0,0,104,0.0,74.0
2299,62.0,5,88,2.0,87.0
2300,50.0,2,102,3.0,82.0
2301,70.0,5,111,5.0,82.0
2302,70.0,2,119,4.0,85.0
2303,50.0,7,115,6.0,82.0
2304,69.0,6,91,4.0,72.0
2305,69.0,83,117,0.0,64.0
2306,69.0,5,144,5.0,72.0
2307,52.0,2,65,6.0,72.0
2308,52.0,9,75,3.0,74.0
2309,67.0,0,82,1.0,78.0
2310,60.0,2,89,2.0,72.0
2311,70.0,3,120,5.0,59.0
2312,70.0,115,124,0.0,57.0
2313,70.0,8,113,4.0,64.0
2314,67.0,2,90,4.0,63.0
2315,67.0,8,104,5.0,70.0
2316,67.0,86,115,0.0,63.0
2317,53.0,6,120,3.0,87.0
2318,53.0,7,124,6.0,82.0
2319,52.0,103,122,3.0,78.0
2320,52.0,13,109,6.0,66.0
2321,69.0,132,295,0.0,78.0
2322,69.0,3,290,4.0,76.0
2323,69.0,4,309,5.0,82.0
2324,53.0,101,135,3.0,62.0
2325,53.0,15,139,6.0,66.0
2326,67.0,97,74,0.0,66.0
2327,67.0,3,79,4.0,85.0
2328,67.0,10,73,5.0,82.0
2329,55.0,8,102,3.0,68.0
2330,55.0,6,108,6.0,68.0
2331,60.0,0,542,2.0,80.0
2332,65.0,4,86,0.0,78.0
2333,65.0,3,575,1.0,64.0
2334,65.0,6,106,4.0,85.0
2335,65.0,10,86,5.0,89.0
2336,57.0,98,135,3.0,68.0
2337,57.0,7,129,6.0,74.0
2338,58.0,94,117,3.0,78.0
2339,58.0,5,133,6.0,80.0
2340,69.0,8,58,4.0,87.0
2341,69.0,2,60,5.0,85.0
2342,69.0,3,68,0.0,82.0
2343,64.0,5,92,1.0,78.0
2344,61.0,7,97,2.0,82.0
2345,57.0,0,116,3.0,72.0
2346,57.0,110,144,6.0,60.0
2347,55.0,90,138,3.0,72.0
2348,55.0,11,128,6.0,68.0
2349,69.0,7,82,1.0,78.0
2350,62.0,0,84,2.0,80.0
2351,53.0,111,122,3.0,68.0
2352,53.0,14,119,6.0,63.0
2353,52.0,5,106,3.0,64.0
2354,52.0,85,118,6.0,70.0
2355,74.0,4,254,0.0,82.0
2356,74.0,3,250,5.0,74.0
2357,74.0,2,277,4.0,87.0
2358,69.0,4,73,1.0,80.0
2359,57.0,18,84,2.0,74.0
2360,50.0,115,124,3.0,66.0
2361,50.0,9,124,6.0,68.0
2362,76.0,6,57,5.0,82.0
2363,76.0,93,77,0.0,82.0
2364,76.0,7,75,4.0,80.0
2365,49.0,0,100,3.0,72.0
2366,49.0,4,109,6.0,68.0
2367,50.0,6,92,3.0,85.0
2368,50.0,3,98,6.0,80.0
2369,77.0,1,251,4.0,91.0
2370,77.0,110,267,0.0,91.0
2371,77.0,8,248,5.0,82.0
2372,52.0,218,94,3.0,74.0
2373,52.0,10,97,6.0,78.0
2374,79.0,97,71,0.0,76.0
2375,79.0,5,80,4.0,85.0
2376,79.0,1,84,5.0,68.0
2377,69.0,4,492,1.0,80.0
2378,62.0,10,489,2.0,80.0
2379,53.0,2,91,3.0,78.0
2380,53.0,5,110,6.0,74.0
2381,81.0,4,139,4.0,87.0
2382,81.0,125,149,0.0,100.0
2383,81.0,5,147,5.0,82.0
2384,79.0,3,150,0.0,82.0
2385,79.0,101,158,4.0,80.0
2386,79.0,12,166,5.0,72.0
2387,69.0,1,82,1.0,85.0
2388,62.0,100,85,2.0,80.0
2389,50.0,5,110,3.0,72.0
2390,50.0,2,116,6.0,68.0
2391,77.0,1,153,0.0,72.0
2392,77.0,0,166,4.0,89.0
2393,77.0,19,155,5.0,62.0
2394,76.0,98,120,4.0,76.0
2395,76.0,1,121,0.0,68.0
2396,76.0,21,117,5.0,63.0
2397,64.0,7,91,1.0,78.0
2398,55.0,1,97,2.0,80.0
2399,74.0,9,108,0.0,76.0
2400,74.0,87,122,4.0,66.0
2401,52.0,3,108,3.0,78.0
2402,74.0,5,116,5.0,61.0
2403,52.0,15,122,6.0,70.0
2404,72.0,62,133,0.0,72.0
2405,72.0,0,140,4.0,76.0
2406,72.0,21,146,5.0,72.0
2407,62.0,7,84,1.0,80.0
2408,57.0,2,91,2.0,87.0
2409,71.0,116,126,4.0,63.0
2410,53.0,2,116,3.0,82.0
2411,71.0,2,127,0.0,61.0
2412,53.0,6,100,6.0,74.0
2413,71.0,14,118,5.0,57.0
2414,72.0,71,65,0.0,66.0
2415,72.0,5,69,4.0,78.0
2416,72.0,40,65,5.0,78.0
2417,72.0,73,64,0.0,82.0
2418,72.0,20,59,4.0,80.0
2419,72.0,9,52,5.0,80.0
2420,71.0,11,51,0.0,59.0
2421,71.0,15,49,4.0,62.0
2422,55.0,17,102,3.0,85.0
2423,55.0,0,109,6.0,66.0
2424,55.0,5,108,2.0,87.0
2425,71.0,30,53,5.0,78.0
2426,72.0,1,74,0.0,80.0
2427,72.0,9,75,4.0,82.0
2428,72.0,5,73,5.0,78.0
2429,54.0,29,108,2.0,82.0
2430,43.0,57,97,6.0,70.0
2431,71.0,4,208,0.0,74.0
2432,71.0,32,165,5.0,76.0
2433,71.0,17,198,4.0,70.0
2434,43.0,0,115,3.0,87.0
2435,55.0,2,120,2.0,64.0
2436,62.0,2,384,1.0,70.0
2437,72.0,93,75,0.0,78.0
2438,72.0,6,80,4.0,76.0
2439,72.0,6,75,5.0,82.0
2440,57.0,2,99,2.0,80.0
2441,59.0,0,96,2.0,80.0
2442,55.0,3,102,6.0,78.0
2443,55.0,4,108,3.0,72.0
2444,74.0,112,184,0.0,78.0
2445,74.0,14,195,4.0,87.0
2446,74.0,6,221,5.0,74.0
2447,60.0,223,76,2.0,82.0
2448,57.0,2,102,3.0,78.0
2449,72.0,0,100,5.0,76.0
2450,72.0,6,102,4.0,70.0
2451,57.0,3,113,6.0,76.0
2452,67.0,7,350,1.0,85.0
2453,72.0,2,128,0.0,68.0
2454,71.0,7,89,4.0,66.0
2455,71.0,4,99,5.0,66.0
2456,71.0,98,106,0.0,66.0
2457,55.0,1,108,6.0,70.0
2458,69.0,5,109,0.0,76.0
2459,55.0,117,122,3.0,78.0
2460,69.0,5,119,5.0,72.0
2461,69.0,6,116,4.0,95.0
2462,67.0,87,109,5.0,68.0
2463,67.0,13,128,0.0,76.0
2464,67.0,7,125,4.0,74.0
2465,62.0,2,302,2.0,82.0
2466,53.0,7,85,6.0,63.0
2467,59.0,1,308,1.0,68.0
2468,53.0,7,82,3.0,70.0
2469,69.0,107,115,5.0,64.0
2470,69.0,7,124,4.0,66.0
2471,69.0,0,128,0.0,74.0
2472,71.0,0,65,4.0,78.0
2473,71.0,93,83,5.0,66.0
2474,71.0,17,78,0.0,74.0
2475,71.0,2,18,0.0,80.0
2476,72.0,1,96,5.0,87.0
2477,72.0,10,105,4.0,93.0
2478,52.0,114,119,6.0,70.0
2479,52.0,0,112,3.0,87.0
2480,72.0,2,112,0.0,76.0
2481,64.0,2,122,2.0,87.0
2482,71.0,2,116,4.0,82.0
2483,71.0,0,117,0.0,78.0
2484,62.0,6,122,2.0,78.0
2485,71.0,93,131,5.0,82.0
2486,72.0,1,93,5.0,78.0
2487,72.0,6,108,4.0,80.0
2488,50.0,1,107,3.0,74.0
2489,72.0,111,129,0.0,64.0
2490,64.0,5,130,2.0,68.0
2491,50.0,6,124,6.0,72.0
2492,67.0,5,365,1.0,82.0
2493,74.0,2,88,5.0,76.0
2494,74.0,2,91,0.0,80.0
2495,74.0,3,98,4.0,76.0
2496,65.0,100,114,2.0,66.0
2497,48.0,6,142,6.0,66.0
2498,48.0,0,150,3.0,80.0
2499,76.0,0,180,5.0,89.0
2500,76.0,5,181,4.0,89.0
2501,67.0,0,197,2.0,85.0
2502,76.0,120,217,0.0,82.0
2503,72.0,6,297,1.0,85.0
2504,60.0,9,98,3.0,85.0
2505,60.0,217,111,6.0,78.0
2506,77.0,3,55,5.0,76.0
2507,77.0,6,64,4.0,72.0
2508,69.0,98,79,2.0,80.0
2509,77.0,5,70,0.0,80.0
2510,72.0,5,48,1.0,82.0
2511,76.0,2,48,4.0,87.0
2512,76.0,1,47,5.0,85.0
2513,67.0,119,73,2.0,93.0
2514,76.0,4,58,0.0,95.0
2515,65.0,3,38,2.0,82.0
2516,74.0,1,55,5.0,80.0
2517,71.0,34,63,1.0,66.0
2518,55.0,2,102,3.0,85.0
2519,74.0,6,58,4.0,85.0
2520,55.0,3,109,6.0,76.0
2521,76.0,2,69,4.0,66.0
2522,76.0,7,64,0.0,66.0
2523,72.0,33,78,1.0,82.0
2524,76.0,1,69,5.0,68.0
2525,67.0,0,84,2.0,66.0
2526,74.0,5,74,5.0,70.0
2527,74.0,3,73,4.0,70.0
2528,74.0,7,202,0.0,63.0
2529,65.0,34,136,2.0,78.0
2530,71.0,10,126,1.0,68.0
2531,57.0,95,62,3.0,87.0
2532,57.0,1,70,6.0,80.0
2533,72.0,95,71,1.0,74.0
2534,64.0,22,64,2.0,82.0
2535,72.0,7,63,0.0,68.0
2536,72.0,2,64,5.0,72.0
2537,72.0,9,77,4.0,85.0
2538,72.0,2,98,1.0,91.0
2539,64.0,4,122,2.0,80.0
2540,52.0,6,122,6.0,78.0
2541,52.0,95,152,3.0,82.0
2542,50.0,5,113,3.0,78.0
2543,71.0,88,120,1.0,89.0
2544,50.0,7,110,6.0,66.0
2545,65.0,2,137,2.0,68.0
2546,72.0,110,107,1.0,82.0
2547,64.0,2,110,2.0,85.0
2548,52.0,0,133,6.0,64.0
2549,52.0,1,135,3.0,70.0
2550,62.0,4,69,2.0,66.0
2551,74.0,97,98,1.0,74.0
2552,53.0,2,96,3.0,82.0
2553,53.0,16,106,6.0,72.0
2554,55.0,6,113,6.0,78.0
2555,55.0,11,124,3.0,82.0
2556,60.0,9,113,2.0,68.0
2557,79.0,2,589,4.0,91.0
2558,79.0,1,627,5.0,85.0
2559,79.0,9,636,0.0,85.0
2560,57.0,0,93,3.0,82.0
2561,76.0,109,229,1.0,89.0
2562,57.0,102,111,6.0,66.0
2563,74.0,2,58,1.0,72.0
2564,58.0,122,108,3.0,82.0
2565,77.0,4,97,0.0,66.0
2566,67.0,9,108,2.0,85.0
2567,58.0,0,126,6.0,74.0
2568,77.0,16,97,4.0,76.0
2569,77.0,5,98,5.0,66.0
2570,76.0,74,89,0.0,70.0
2571,72.0,5,102,1.0,82.0
2572,76.0,11,91,4.0,80.0
2573,76.0,7,94,5.0,66.0
2574,69.0,104,124,2.0,85.0
2575,57.0,3,117,3.0,80.0
2576,57.0,11,122,6.0,70.0
2577,77.0,6,244,0.0,87.0
2578,77.0,4,232,4.0,85.0
2579,77.0,5,231,5.0,82.0
2580,74.0,0,254,1.0,87.0
2581,70.0,225,95,2.0,76.0
2582,55.0,9,106,6.0,66.0
2583,55.0,5,112,3.0,85.0
2584,79.0,88,76,0.0,80.0
2585,79.0,9,65,5.0,78.0
2586,79.0,7,82,4.0,82.0
2587,76.0,2,99,1.0,68.0
2588,72.0,6,97,2.0,82.0
2589,77.0,0,87,1.0,95.0
2590,53.0,2,122,3.0,82.0
2591,53.0,7,115,6.0,61.0
2592,81.0,111,256,0.0,93.0
2593,81.0,7,266,5.0,85.0
2594,81.0,4,273,4.0,89.0
2595,60.0,219,93,2.0,70.0
2596,52.0,0,95,3.0,80.0
2597,52.0,8,104,6.0,68.0
2598,79.0,89,78,0.0,80.0
2599,79.0,1,67,5.0,72.0
2600,79.0,15,78,4.0,74.0
2601,50.0,5,104,6.0,68.0
2602,50.0,0,115,3.0,85.0
2603,69.0,5,387,1.0,82.0
2604,77.0,1,184,4.0,89.0
2605,77.0,119,222,0.0,85.0
2606,77.0,8,225,5.0,80.0
2607,76.0,0,82,4.0,72.0
2608,62.0,2,334,2.0,89.0
2609,71.0,1,86,1.0,82.0
2610,76.0,236,89,0.0,66.0
2611,76.0,5,95,5.0,66.0
2612,55.0,5,117,6.0,70.0
2613,55.0,5,125,3.0,87.0
2614,74.0,82,82,0.0,66.0
2615,74.0,4,95,4.0,82.0
2616,74.0,5,91,5.0,78.0
2617,57.0,8,93,3.0,76.0
2618,57.0,9,130,6.0,68.0
2619,67.0,2,102,2.0,78.0
2620,55.0,102,140,3.0,74.0
2621,55.0,2,124,6.0,66.0
2622,53.0,98,110,3.0,76.0
2623,76.0,7,248,0.0,72.0
2624,53.0,24,120,6.0,62.0
2625,76.0,7,248,5.0,80.0
2626,76.0,2,252,4.0,89.0
2627,72.0,2,268,1.0,82.0
2628,52.0,75,118,3.0,68.0
2629,52.0,11,104,6.0,64.0
2630,65.0,36,119,2.0,70.0
2631,77.0,2,73,5.0,72.0
2632,77.0,7,75,0.0,76.0
2633,77.0,7,70,4.0,85.0
2634,74.0,8,73,1.0,78.0
2635,50.0,73,117,3.0,66.0
2636,50.0,9,91,6.0,66.0
2637,52.0,93,98,3.0,93.0
2638,72.0,5,73,1.0,82.0
2639,64.0,2,109,2.0,70.0
2640,52.0,11,96,6.0,80.0
2641,71.0,68,58,1.0,66.0
2642,72.0,51,67,1.0,80.0
2643,79.0,9,267,0.0,89.0
2644,79.0,6,273,4.0,91.0
2645,79.0,7,280,5.0,85.0
2646,62.0,44,100,2.0,66.0
2647,55.0,0,100,3.0,78.0
2648,55.0,26,76,6.0,82.0
2649,71.0,47,154,1.0,85.0
2650,72.0,70,70,1.0,82.0
2651,77.0,22,65,5.0,72.0
2652,77.0,11,60,4.0,74.0
2653,77.0,2,73,0.0,72.0
2654,60.0,9,102,2.0,68.0
2655,76.0,14,97,5.0,78.0
2656,60.0,5,111,3.0,85.0
2657,76.0,1,120,0.0,91.0
2658,76.0,7,114,4.0,85.0
2659,72.0,95,166,1.0,87.0
2660,60.0,15,137,6.0,72.0
2661,74.0,80,81,5.0,68.0
2662,74.0,0,102,0.0,64.0
2663,59.0,4,102,3.0,72.0
2664,74.0,13,98,4.0,80.0
2665,59.0,13,125,6.0,74.0
2666,64.0,4,87,2.0,80.0
2667,76.0,1,97,5.0,78.0
2668,76.0,6,101,4.0,68.0
2669,76.0,5,111,0.0,66.0
2670,72.0,8,100,1.0,68.0
2671,57.0,89,140,3.0,72.0
2672,57.0,5,144,6.0,60.0
2673,72.0,6,82,5.0,80.0
2674,72.0,2,93,4.0,82.0
2675,72.0,1,98,0.0,66.0
2676,55.0,88,118,3.0,60.0
2677,55.0,16,110,6.0,61.0
2678,71.0,4,76,1.0,74.0
2679,53.0,95,119,3.0,61.0
2680,53.0,13,115,6.0,58.0
2681,69.0,59,54,1.0,60.0
2682,71.0,28,64,1.0,78.0
2683,52.0,14,130,3.0,66.0
2684,52.0,9,135,6.0,61.0
2685,74.0,1,247,0.0,78.0
2686,65.0,1,254,2.0,78.0
2687,74.0,6,251,4.0,76.0
2688,74.0,2,263,5.0,78.0
2689,69.0,50,130,1.0,74.0
2690,50.0,43,121,3.0,66.0
2691,50.0,9,120,6.0,54.0
2692,76.0,2,68,0.0,80.0
2693,76.0,0,71,5.0,72.0
2694,64.0,15,52,2.0,78.0
2695,69.0,4,67,1.0,68.0
2696,76.0,9,79,4.0,80.0
2697,48.0,112,109,3.0,63.0
2698,48.0,8,113,6.0,66.0
2699,50.0,0,104,6.0,78.0
2700,50.0,2,124,3.0,82.0
2701,69.0,0,155,1.0,87.0
2702,62.0,4,157,2.0,82.0
2703,67.0,117,100,1.0,58.0
2704,77.0,107,243,0.0,89.0
2705,77.0,5,262,5.0,93.0
2706,77.0,2,276,4.0,91.0
2707,60.0,118,77,2.0,82.0
2708,57.0,11,135,3.0,82.0
2709,57.0,5,135,6.0,72.0
2710,65.0,2,168,1.0,78.0
2711,76.0,5,64,5.0,68.0
2712,76.0,7,69,0.0,68.0
2713,59.0,83,78,2.0,80.0
2714,76.0,9,64,4.0,74.0
2715,67.0,11,102,1.0,82.0
2716,55.0,4,117,3.0,78.0
2717,55.0,2,146,6.0,80.0
2718,57.0,84,126,2.0,82.0
2719,74.0,2,118,5.0,82.0
2720,74.0,9,117,0.0,87.0
2721,53.0,12,146,3.0,70.0
2722,74.0,6,139,4.0,91.0
2723,53.0,0,155,6.0,59.0
2724,69.0,5,172,1.0,85.0
2725,72.0,95,101,0.0,64.0
2726,72.0,6,108,5.0,64.0
2727,72.0,11,104,4.0,85.0
2728,52.0,1,123,3.0,76.0
2729,52.0,4,122,6.0,66.0
2730,62.0,4,77,2.0,82.0
2731,65.0,2,93,1.0,87.0
2732,50.0,0,115,3.0,68.0
2733,50.0,7,104,6.0,68.0
2734,71.0,7,106,4.0,76.0
2735,71.0,86,148,0.0,60.0
2736,71.0,16,136,5.0,60.0
2737,72.0,0,120,0.0,59.0
2738,64.0,5,117,1.0,78.0
2739,72.0,25,82,4.0,66.0
2740,72.0,3,119,5.0,59.0
2741,48.0,77,144,3.0,70.0
2742,48.0,13,155,6.0,57.0
2743,55.0,15,87,2.0,76.0
2744,47.0,74,123,3.0,63.0
2745,65.0,6,96,1.0,85.0
2746,74.0,5,118,0.0,70.0
2747,74.0,8,121,5.0,70.0
2748,47.0,2,142,6.0,61.0
2749,74.0,14,120,4.0,87.0
2750,71.0,16,111,5.0,74.0
2751,71.0,11,135,0.0,68.0
2752,45.0,65,150,3.0,61.0
2753,71.0,11,112,4.0,82.0
2754,45.0,2,134,6.0,64.0
2755,43.0,77,122,3.0,72.0
2756,60.0,16,80,2.0,80.0
2757,69.0,9,76,1.0,95.0
2758,72.0,5,124,0.0,62.0
2759,72.0,0,128,5.0,63.0
2760,72.0,2,118,4.0,56.0
2761,41.0,2,51,3.0,68.0
2762,43.0,21,158,6.0,56.0
2763,41.0,10,54,6.0,80.0
2764,74.0,71,78,0.0,68.0
2765,74.0,12,88,5.0,76.0
2766,74.0,9,71,4.0,85.0
2767,67.0,2,297,0.0,78.0
2768,67.0,14,312,5.0,68.0
2769,67.0,12,306,4.0,80.0
2770,69.0,327,129,0.0,63.0
2771,69.0,5,130,4.0,64.0
2772,69.0,1,130,5.0,63.0
2773,59.0,3,495,2.0,78.0
2774,62.0,13,503,1.0,80.0
2775,53.0,100,562,3.0,82.0
2776,71.0,14,100,5.0,72.0
2777,53.0,9,565,6.0,78.0
2778,71.0,101,122,0.0,64.0
2779,71.0,8,106,4.0,82.0
2780,72.0,103,122,5.0,70.0
2781,72.0,16,116,0.0,87.0
2782,72.0,5,120,4.0,85.0
2783,74.0,0,86,1.0,89.0
2784,74.0,103,101,5.0,58.0
2785,47.0,2,94,3.0,78.0
2786,55.0,0,96,2.0,82.0
2787,47.0,7,93,6.0,78.0
2788,74.0,4,107,4.0,66.0
2789,74.0,1,120,0.0,66.0
2790,76.0,3,73,5.0,76.0
2791,76.0,2,85,4.0,87.0
2792,76.0,104,89,0.0,74.0
2793,77.0,5,79,5.0,85.0
2794,77.0,1,92,4.0,89.0
2795,71.0,0,97,1.0,85.0
2796,62.0,2,86,2.0,82.0
2797,77.0,112,114,0.0,82.0
2798,43.0,8,106,6.0,64.0
2799,43.0,4,104,3.0,74.0
2800,74.0,6,73,5.0,82.0
2801,74.0,2,82,4.0,85.0
2802,74.0,89,100,0.0,78.0
2803,59.0,7,84,2.0,85.0
2804,74.0,118,96,1.0,87.0
2805,79.0,2,91,4.0,95.0
2806,79.0,0,127,0.0,89.0
2807,47.0,5,106,3.0,78.0
2808,47.0,8,115,6.0,76.0
2809,79.0,3,124,5.0,93.0
2810,48.0,0,118,6.0,60.0
2811,48.0,6,115,3.0,76.0
2812,55.0,214,168,2.0,74.0
2813,72.0,1,258,1.0,82.0
2814,76.0,2,271,0.0,85.0
2815,76.0,8,260,4.0,87.0
2816,76.0,5,284,5.0,85.0
2817,43.0,4,106,6.0,68.0
2818,67.0,229,112,2.0,82.0
2819,43.0,7,106,3.0,74.0
2820,74.0,4,56,5.0,82.0
2821,74.0,15,52,4.0,76.0
2822,71.0,88,101,1.0,64.0
2823,74.0,2,95,0.0,78.0
2824,65.0,5,98,2.0,80.0
2825,45.0,2,80,3.0,85.0
2826,72.0,107,106,1.0,85.0
2827,72.0,6,106,0.0,82.0
2828,45.0,2,104,6.0,76.0
2829,72.0,7,117,5.0,87.0
2830,72.0,2,113,4.0,89.0
2831,64.0,1,119,2.0,87.0
2832,71.0,97,84,0.0,72.0
2833,71.0,3,79,4.0,85.0
2834,71.0,8,92,5.0,78.0
2835,72.0,4,100,4.0,82.0
2836,69.0,5,99,1.0,80.0
2837,41.0,0,88,6.0,70.0
2838,41.0,8,90,3.0,85.0
2839,72.0,109,119,0.0,82.0
2840,72.0,3,119,5.0,82.0
2841,62.0,19,100,2.0,85.0
2842,69.0,2,72,4.0,66.0
2843,69.0,71,93,0.0,68.0
2844,69.0,23,85,5.0,78.0
2845,64.0,16,66,2.0,85.0
2846,69.0,97,100,1.0,70.0
2847,72.0,8,98,0.0,64.0
2848,72.0,5,80,5.0,68.0
2849,72.0,5,129,4.0,85.0
2850,67.0,0,53,1.0,59.0
2851,62.0,55,58,2.0,62.0
2852,71.0,15,47,0.0,62.0
2853,71.0,4,53,5.0,57.0
2854,71.0,22,43,4.0,58.0
2855,64.0,4,49,2.0,89.0
2856,69.0,6,53,1.0,64.0
2857,72.0,5,48,5.0,66.0
2858,72.0,9,64,0.0,74.0
2859,72.0,21,40,4.0,66.0
2860,67.0,5,44,1.0,70.0
2861,62.0,6,49,2.0,70.0
2862,71.0,1,42,5.0,64.0
2863,71.0,0,44,4.0,70.0
2864,72.0,6,33,0.0,62.0
2865,69.0,15,61,1.0,74.0
2866,64.0,6,58,2.0,78.0
2867,72.0,14,62,5.0,70.0
2868,72.0,0,59,4.0,82.0
2869,43.0,0,317,6.0,66.0
2870,43.0,4,343,3.0,82.0
2871,71.0,7,114,5.0,70.0
2872,71.0,16,190,0.0,82.0
2873,67.0,16,132,1.0,78.0
2874,71.0,27,103,4.0,78.0
2875,62.0,6,157,2.0,80.0
2876,72.0,77,68,0.0,85.0
2877,72.0,5,64,5.0,78.0
2878,72.0,13,62,4.0,78.0
2879,64.0,9,926,2.0,82.0
2880,72.0,3,970,0.0,68.0
2881,72.0,5,968,4.0,89.0
2882,36.0,0,965,3.0,85.0
2883,72.0,109,996,5.0,70.0
2884,67.0,1,990,1.0,76.0
2885,36.0,5,985,6.0,68.0
