,note,step,duration,channel,velocity
0,45.0,0,90,5.0,0.0
1,69.0,0,40,8.0,0.0
2,73.0,0,90,4.0,0.0
3,33.0,0,90,12.0,0.0
4,73.0,0,40,6.0,0.0
5,81.0,0,150,2.0,0.0
6,45.0,0,90,11.0,0.0
7,64.0,42,40,9.0,0.0
8,73.0,0,90,13.0,0.0
9,76.0,6,90,3.0,0.0
10,73.0,0,40,7.0,0.0
11,64.0,0,90,13.0,0.0
12,45.0,0,90,13.0,0.0
13,69.0,48,40,8.0,0.0
14,73.0,0,40,6.0,0.0
15,64.0,0,40,9.0,0.0
16,73.0,0,40,7.0,0.0
17,73.0,0,40,7.0,0.0
18,73.0,0,40,6.0,0.0
19,64.0,0,40,9.0,0.0
20,69.0,27,40,8.0,0.0
21,73.0,0,40,6.0,0.0
22,69.0,0,40,8.0,0.0
23,73.0,0,40,7.0,0.0
24,64.0,3,40,9.0,0.0
25,82.0,21,20,2.0,0.0
26,81.0,24,20,2.0,0.0
27,73.0,3,40,6.0,0.0
28,64.0,0,40,9.0,0.0
29,73.0,0,40,7.0,0.0
30,79.0,21,20,2.0,0.0
31,69.0,0,40,8.0,0.0
32,77.0,24,20,2.0,0.0
33,76.0,13,20,2.0,0.0
34,69.0,0,40,8.0,0.0
35,73.0,0,40,7.0,0.0
36,64.0,4,40,9.0,0.0
37,73.0,0,40,6.0,0.0
38,79.0,8,15,2.0,0.0
39,77.0,44,15,2.0,0.0
40,33.0,0,90,12.0,0.0
41,73.0,0,40,6.0,0.0
42,64.0,0,40,9.0,0.0
43,73.0,0,40,7.0,0.0
44,64.0,0,90,4.0,0.0
45,69.0,42,40,8.0,0.0
46,45.0,0,90,11.0,0.0
47,73.0,0,90,3.0,0.0
48,79.0,27,150,2.0,0.0
49,45.0,0,90,13.0,0.0
50,45.0,0,90,5.0,0.0
51,64.0,0,90,13.0,0.0
52,73.0,6,90,13.0,0.0
53,73.0,0,40,7.0,0.0
54,69.0,0,40,8.0,0.0
55,73.0,0,40,6.0,0.0
56,64.0,48,40,9.0,0.0
57,73.0,0,40,7.0,0.0
58,73.0,0,40,6.0,0.0
59,69.0,0,40,8.0,0.0
60,64.0,0,40,9.0,0.0
61,69.0,0,40,8.0,0.0
62,64.0,0,40,9.0,0.0
63,81.0,21,20,2.0,0.0
64,73.0,0,40,6.0,0.0
65,73.0,3,40,7.0,0.0
66,82.0,24,20,2.0,0.0
67,73.0,0,40,7.0,0.0
68,69.0,0,40,8.0,0.0
69,73.0,0,40,6.0,0.0
70,81.0,21,20,2.0,0.0
71,64.0,3,40,9.0,0.0
72,79.0,24,20,2.0,0.0
73,73.0,4,40,7.0,0.0
74,64.0,0,40,9.0,0.0
75,73.0,0,40,6.0,0.0
76,77.0,13,20,2.0,0.0
77,69.0,0,40,8.0,0.0
78,79.0,8,15,2.0,0.0
79,76.0,12,15,2.0,0.0
80,71.0,4,40,8.0,0.0
81,68.0,0,90,4.0,0.0
82,62.0,0,90,13.0,0.0
83,77.0,12,15,2.0,0.0
84,62.0,0,40,9.0,0.0
85,74.0,0,40,7.0,0.0
86,33.0,0,90,12.0,0.0
87,45.0,0,90,5.0,0.0
88,74.0,0,40,6.0,0.0
89,45.0,0,90,11.0,0.0
90,71.0,0,90,3.0,0.0
91,45.0,0,90,13.0,0.0
92,71.0,6,90,13.0,0.0
93,79.0,12,15,2.0,0.0
94,77.0,8,15,2.0,0.0
95,76.0,23,15,2.0,0.0
96,74.0,0,40,6.0,0.0
97,74.0,13,20,2.0,0.0
98,71.0,0,40,8.0,0.0
99,62.0,4,40,9.0,0.0
100,74.0,0,40,7.0,0.0
101,76.0,2,15,2.0,0.0
102,73.0,44,15,2.0,0.0
103,74.0,0,40,6.0,0.0
104,62.0,21,40,9.0,0.0
105,74.0,19,60,2.0,0.0
106,71.0,0,40,8.0,0.0
107,74.0,0,40,7.0,0.0
108,71.0,0,40,8.0,0.0
109,74.0,0,40,6.0,0.0
110,74.0,4,40,7.0,0.0
111,62.0,0,40,9.0,0.0
112,73.0,8,15,2.0,0.0
113,74.0,7,15,2.0,0.0
114,74.0,0,40,6.0,0.0
115,74.0,0,40,7.0,0.0
116,62.0,0,40,9.0,0.0
117,71.0,4,40,8.0,0.0
118,76.0,6,15,2.0,0.0
119,74.0,6,15,2.0,0.0
120,76.0,6,15,2.0,0.0
121,74.0,6,15,2.0,0.0
122,76.0,6,15,2.0,0.0
123,74.0,7,15,2.0,0.0
124,73.0,12,15,2.0,0.0
125,62.0,0,40,9.0,0.0
126,71.0,0,40,8.0,0.0
127,74.0,0,40,6.0,0.0
128,74.0,3,40,7.0,0.0
129,74.0,12,15,2.0,0.0
130,76.0,20,15,2.0,0.0
131,73.0,8,20,2.0,0.0
132,73.0,6,90,8.0,0.0
133,76.0,0,90,6.0,0.0
134,43.0,5,40,12.0,0.0
135,69.0,0,90,9.0,0.0
136,43.0,0,40,5.0,0.0
137,64.0,0,90,4.0,0.0
138,55.0,0,40,11.0,0.0
139,69.0,0,90,3.0,0.0
140,43.0,0,90,13.0,0.0
141,74.0,6,15,2.0,0.0
142,73.0,0,90,13.0,0.0
143,76.0,0,90,7.0,0.0
144,64.0,0,90,13.0,0.0
145,73.0,6,15,2.0,0.0
146,74.0,6,15,2.0,0.0
147,73.0,6,15,2.0,0.0
148,74.0,6,15,2.0,0.0
149,73.0,6,15,2.0,0.0
150,74.0,1,15,2.0,0.0
151,73.0,6,15,2.0,0.0
152,43.0,0,40,12.0,0.0
153,55.0,0,40,11.0,0.0
154,43.0,3,40,5.0,0.0
155,74.0,6,15,2.0,0.0
156,73.0,6,15,2.0,0.0
157,74.0,6,15,2.0,0.0
158,73.0,13,15,2.0,0.0
159,82.0,24,20,2.0,0.0
160,41.0,6,90,13.0,0.0
161,53.0,0,40,11.0,0.0
162,69.0,0,90,13.0,0.0
163,69.0,0,40,3.0,0.0
164,41.0,4,40,12.0,0.0
165,81.0,13,20,2.0,0.0
166,41.0,0,40,5.0,0.0
167,65.0,0,90,4.0,0.0
168,79.0,8,15,2.0,0.0
169,77.0,12,15,2.0,0.0
170,53.0,0,40,11.0,0.0
171,41.0,0,40,5.0,0.0
172,71.0,0,40,3.0,0.0
173,76.0,12,15,2.0,0.0
174,41.0,4,40,12.0,0.0
175,74.0,12,15,2.0,0.0
176,73.0,2,15,2.0,0.0
177,74.0,23,15,2.0,0.0
178,67.0,0,90,4.0,0.0
179,52.0,0,40,11.0,0.0
180,40.0,4,40,12.0,0.0
181,67.0,6,90,13.0,0.0
182,73.0,0,90,3.0,0.0
183,73.0,0,90,13.0,0.0
184,40.0,0,40,5.0,0.0
185,40.0,0,90,13.0,0.0
186,76.0,13,20,2.0,0.0
187,77.0,8,15,2.0,0.0
188,79.0,23,15,2.0,0.0
189,40.0,0,40,5.0,0.0
190,40.0,0,40,12.0,0.0
191,77.0,13,20,2.0,0.0
192,52.0,4,40,11.0,0.0
193,79.0,2,15,2.0,0.0
194,76.0,44,15,2.0,0.0
195,65.0,0,90,13.0,0.0
196,38.0,6,90,5.0,0.0
197,69.0,0,40,4.0,0.0
198,50.0,0,90,11.0,0.0
199,38.0,0,90,13.0,0.0
200,69.0,0,90,13.0,0.0
201,86.0,27,150,6.0,0.0
202,74.0,0,90,7.0,0.0
203,38.0,0,90,12.0,0.0
204,74.0,42,40,3.0,0.0
205,69.0,0,90,8.0,0.0
206,65.0,0,90,9.0,0.0
207,77.0,0,40,2.0,0.0
208,69.0,0,40,4.0,0.0
209,77.0,0,40,2.0,0.0
210,74.0,48,40,3.0,0.0
211,74.0,0,40,3.0,0.0
212,69.0,0,40,4.0,0.0
213,77.0,0,40,2.0,0.0
214,69.0,0,40,4.0,0.0
215,74.0,3,40,3.0,0.0
216,87.0,21,20,6.0,0.0
217,77.0,0,40,2.0,0.0
218,86.0,24,20,6.0,0.0
219,69.0,3,40,4.0,0.0
220,84.0,21,20,6.0,0.0
221,74.0,0,40,3.0,0.0
222,77.0,0,40,2.0,0.0
223,82.0,24,20,6.0,0.0
224,74.0,0,40,3.0,0.0
225,77.0,0,40,2.0,0.0
226,69.0,4,40,4.0,0.0
227,81.0,13,20,6.0,0.0
228,84.0,8,15,6.0,0.0
229,81.0,44,15,6.0,0.0
230,84.0,0,150,6.0,0.0
231,66.0,0,90,8.0,0.0
232,78.0,42,40,2.0,0.0
233,38.0,0,90,12.0,0.0
234,50.0,6,90,11.0,0.0
235,69.0,0,40,4.0,0.0
236,50.0,0,90,5.0,0.0
237,57.0,0,90,9.0,0.0
238,74.0,0,90,7.0,0.0
239,74.0,0,40,3.0,0.0
240,66.0,0,90,13.0,0.0
241,69.0,0,90,13.0,0.0
242,50.0,0,90,13.0,0.0
243,78.0,48,40,2.0,0.0
244,74.0,0,40,3.0,0.0
245,69.0,0,40,4.0,0.0
246,69.0,0,40,4.0,0.0
247,74.0,0,40,3.0,0.0
248,78.0,27,40,2.0,0.0
249,86.0,21,20,6.0,0.0
250,74.0,0,40,3.0,0.0
251,78.0,0,40,2.0,0.0
252,69.0,3,40,4.0,0.0
253,87.0,24,20,6.0,0.0
254,78.0,3,40,2.0,0.0
255,69.0,0,40,4.0,0.0
256,86.0,21,20,6.0,0.0
257,74.0,0,40,3.0,0.0
258,84.0,24,20,6.0,0.0
259,74.0,0,40,3.0,0.0
260,78.0,4,40,2.0,0.0
261,69.0,0,40,4.0,0.0
262,82.0,13,20,6.0,0.0
263,84.0,8,15,6.0,0.0
264,81.0,12,15,6.0,0.0
265,76.0,0,90,13.0,0.0
266,50.0,0,90,13.0,0.0
267,82.0,12,15,6.0,0.0
268,38.0,0,90,12.0,0.0
269,76.0,0,90,7.0,0.0
270,64.0,0,90,8.0,0.0
271,61.0,0,90,9.0,0.0
272,50.0,0,90,11.0,0.0
273,67.0,6,90,13.0,0.0
274,79.0,4,40,2.0,0.0
275,50.0,0,90,5.0,0.0
276,67.0,0,40,4.0,0.0
277,76.0,0,40,3.0,0.0
278,84.0,12,15,6.0,0.0
279,82.0,8,15,6.0,0.0
280,81.0,23,15,6.0,0.0
281,76.0,0,40,3.0,0.0
282,67.0,4,40,4.0,0.0
283,79.0,0,40,2.0,0.0
284,79.0,13,20,6.0,0.0
285,81.0,2,15,6.0,0.0
286,78.0,44,15,6.0,0.0
287,67.0,21,40,4.0,0.0
288,79.0,0,40,2.0,0.0
289,79.0,19,60,6.0,0.0
290,76.0,0,40,3.0,0.0
291,76.0,0,40,3.0,0.0
292,67.0,0,40,4.0,0.0
293,79.0,4,40,2.0,0.0
294,78.0,8,15,6.0,0.0
295,79.0,7,15,6.0,0.0
296,79.0,0,40,2.0,0.0
297,67.0,4,40,4.0,0.0
298,81.0,6,15,6.0,0.0
299,76.0,0,40,3.0,0.0
300,79.0,6,15,6.0,0.0
301,81.0,6,15,6.0,0.0
302,79.0,6,15,6.0,0.0
303,81.0,6,15,6.0,0.0
304,79.0,7,15,6.0,0.0
305,78.0,12,15,6.0,0.0
306,79.0,12,15,6.0,0.0
307,76.0,0,40,3.0,0.0
308,79.0,0,40,2.0,0.0
309,67.0,3,40,4.0,0.0
310,81.0,20,15,6.0,0.0
311,78.0,8,20,6.0,0.0
312,74.0,0,90,4.0,0.0
313,69.0,0,90,13.0,0.0
314,78.0,0,90,3.0,0.0
315,48.0,0,40,5.0,0.0
316,62.0,0,90,8.0,0.0
317,81.0,0,90,2.0,0.0
318,69.0,6,90,9.0,0.0
319,48.0,5,40,11.0,0.0
320,48.0,0,90,13.0,0.0
321,78.0,0,90,7.0,0.0
322,79.0,6,15,6.0,0.0
323,66.0,0,90,13.0,0.0
324,36.0,0,40,12.0,0.0
325,78.0,6,15,6.0,0.0
326,79.0,6,15,6.0,0.0
327,78.0,6,15,6.0,0.0
328,79.0,6,15,6.0,0.0
329,78.0,6,15,6.0,0.0
330,79.0,1,15,6.0,0.0
331,78.0,6,15,6.0,0.0
332,36.0,3,40,12.0,0.0
333,48.0,0,40,5.0,0.0
334,79.0,6,15,6.0,0.0
335,48.0,0,40,11.0,0.0
336,78.0,6,15,6.0,0.0
337,79.0,6,15,6.0,0.0
338,78.0,13,15,6.0,0.0
339,87.0,24,20,6.0,0.0
340,46.0,0,90,13.0,0.0
341,79.0,0,90,7.0,0.0
342,34.0,4,40,12.0,0.0
343,74.0,0,40,8.0,0.0
344,46.0,0,40,11.0,0.0
345,70.0,0,90,9.0,0.0
346,62.0,6,90,13.0,0.0
347,46.0,0,40,5.0,0.0
348,86.0,13,20,6.0,0.0
349,67.0,0,90,13.0,0.0
350,84.0,8,15,6.0,0.0
351,82.0,12,15,6.0,0.0
352,34.0,0,40,12.0,0.0
353,46.0,0,40,5.0,0.0
354,76.0,0,40,8.0,0.0
355,46.0,4,40,11.0,0.0
356,81.0,12,15,6.0,0.0
357,79.0,12,15,6.0,0.0
358,78.0,2,15,6.0,0.0
359,79.0,23,15,6.0,0.0
360,72.0,0,90,9.0,0.0
361,45.0,0,40,5.0,0.0
362,78.0,6,90,8.0,0.0
363,45.0,0,40,11.0,0.0
364,81.0,0,90,7.0,0.0
365,45.0,0,90,13.0,0.0
366,66.0,0,90,13.0,0.0
367,60.0,0,90,13.0,0.0
368,33.0,4,40,12.0,0.0
369,81.0,13,20,6.0,0.0
370,82.0,8,15,6.0,0.0
371,84.0,23,15,6.0,0.0
372,33.0,4,40,12.0,0.0
373,45.0,0,40,5.0,0.0
374,82.0,13,20,6.0,0.0
375,45.0,0,40,11.0,0.0
376,84.0,2,15,6.0,0.0
377,81.0,44,15,6.0,0.0
378,82.0,0,90,6.0,0.0
379,43.0,0,150,12.0,0.0
380,70.0,42,40,4.0,0.0
381,55.0,0,150,11.0,0.0
382,79.0,0,40,2.0,0.0
383,62.0,0,90,13.0,0.0
384,70.0,0,90,13.0,0.0
385,43.0,0,90,13.0,0.0
386,31.0,0,90,12.0,0.0
387,79.0,0,90,8.0,0.0
388,55.0,0,90,13.0,0.0
389,74.0,0,90,9.0,0.0
390,74.0,0,40,3.0,0.0
391,55.0,0,150,5.0,0.0
392,82.0,6,90,7.0,0.0
393,78.0,0,40,2.0,0.0
394,72.0,48,40,3.0,0.0
395,69.0,0,40,4.0,0.0
396,67.0,0,40,8.0,0.0
397,70.0,27,40,6.0,0.0
398,74.0,0,90,3.0,0.0
399,70.0,0,40,7.0,0.0
400,70.0,6,90,4.0,0.0
401,62.0,0,40,9.0,0.0
402,79.0,0,90,2.0,0.0
403,56.0,0,20,11.0,0.0
404,69.0,0,40,7.0,0.0
405,44.0,0,20,12.0,0.0
406,66.0,3,40,8.0,0.0
407,56.0,15,20,5.0,0.0
408,69.0,0,40,6.0,0.0
409,60.0,0,40,9.0,0.0
410,55.0,24,20,11.0,0.0
411,55.0,0,20,5.0,0.0
412,43.0,0,20,12.0,0.0
413,41.0,24,20,12.0,0.0
414,53.0,0,20,11.0,0.0
415,62.0,10,90,9.0,0.0
416,70.0,0,90,6.0,0.0
417,67.0,0,90,8.0,0.0
418,70.0,0,90,7.0,0.0
419,53.0,0,20,5.0,0.0
420,51.0,0,20,5.0,0.0
421,39.0,0,20,12.0,0.0
422,51.0,24,20,11.0,0.0
423,38.0,0,20,12.0,0.0
424,50.0,13,20,11.0,0.0
425,50.0,0,20,5.0,0.0
426,41.0,0,15,12.0,0.0
427,53.0,0,15,5.0,0.0
428,53.0,2,15,11.0,0.0
429,51.0,0,15,5.0,0.0
430,51.0,0,15,11.0,0.0
431,39.0,44,15,12.0,0.0
432,53.0,6,90,13.0,0.0
433,79.0,0,40,2.0,0.0
434,71.0,0,90,13.0,0.0
435,71.0,42,40,4.0,0.0
436,41.0,0,90,13.0,0.0
437,53.0,0,150,5.0,0.0
438,62.0,0,90,13.0,0.0
439,41.0,0,150,12.0,0.0
440,53.0,0,150,11.0,0.0
441,74.0,0,40,3.0,0.0
442,72.0,48,40,3.0,0.0
443,77.0,0,40,2.0,0.0
444,69.0,0,40,4.0,0.0
445,74.0,0,90,3.0,0.0
446,71.0,0,40,7.0,0.0
447,71.0,0,40,6.0,0.0
448,71.0,0,90,4.0,0.0
449,79.0,6,90,2.0,0.0
450,62.0,0,40,9.0,0.0
451,67.0,27,40,8.0,0.0
452,55.0,0,20,5.0,0.0
453,69.0,0,40,7.0,0.0
454,65.0,0,40,8.0,0.0
455,60.0,0,40,9.0,0.0
456,55.0,0,20,11.0,0.0
457,43.0,15,20,12.0,0.0
458,69.0,3,40,6.0,0.0
459,56.0,24,20,5.0,0.0
460,56.0,0,20,11.0,0.0
461,44.0,0,20,12.0,0.0
462,55.0,0,20,11.0,0.0
463,43.0,24,20,12.0,0.0
464,62.0,10,90,9.0,0.0
465,55.0,0,20,5.0,0.0
466,71.0,0,90,7.0,0.0
467,67.0,0,90,8.0,0.0
468,71.0,0,90,6.0,0.0
469,53.0,0,20,5.0,0.0
470,53.0,0,20,11.0,0.0
471,41.0,24,20,12.0,0.0
472,51.0,0,20,5.0,0.0
473,39.0,0,20,12.0,0.0
474,51.0,13,20,11.0,0.0
475,53.0,0,15,11.0,0.0
476,41.0,2,15,12.0,0.0
477,53.0,0,15,5.0,0.0
478,50.0,44,15,5.0,0.0
479,50.0,0,15,11.0,0.0
480,38.0,0,15,12.0,0.0
481,60.0,0,90,13.0,0.0
482,51.0,0,90,13.0,0.0
483,72.0,0,40,4.0,0.0
484,79.0,42,40,2.0,0.0
485,75.0,0,40,3.0,0.0
486,67.0,0,90,13.0,0.0
487,51.0,21,120,11.0,0.0
488,39.0,6,90,13.0,0.0
489,39.0,0,120,12.0,0.0
490,51.0,0,120,5.0,0.0
491,77.0,0,40,2.0,0.0
492,71.0,0,40,4.0,0.0
493,74.0,27,40,3.0,0.0
494,63.0,0,40,9.0,0.0
495,75.0,0,90,3.0,0.0
496,72.0,0,90,4.0,0.0
497,67.0,3,40,8.0,0.0
498,79.0,6,90,2.0,0.0
499,72.0,0,40,7.0,0.0
500,72.0,0,40,6.0,0.0
501,53.0,0,20,5.0,0.0
502,41.0,0,20,12.0,0.0
503,53.0,24,20,11.0,0.0
504,71.0,3,40,7.0,0.0
505,51.0,15,20,5.0,0.0
506,71.0,0,40,6.0,0.0
507,65.0,0,40,8.0,0.0
508,40.0,0,20,12.0,0.0
509,62.0,0,40,9.0,0.0
510,51.0,0,20,11.0,0.0
511,50.0,0,20,5.0,0.0
512,50.0,24,20,11.0,0.0
513,38.0,0,20,12.0,0.0
514,67.0,9,90,8.0,0.0
515,72.0,0,90,7.0,0.0
516,48.0,0,20,11.0,0.0
517,36.0,24,20,12.0,0.0
518,72.0,0,90,6.0,0.0
519,63.0,0,90,9.0,0.0
520,48.0,0,20,5.0,0.0
521,50.0,24,20,11.0,0.0
522,38.0,0,20,12.0,0.0
523,50.0,0,20,5.0,0.0
524,47.0,0,20,11.0,0.0
525,47.0,15,20,5.0,0.0
526,35.0,0,20,12.0,0.0
527,48.0,0,20,5.0,0.0
528,36.0,0,20,12.0,0.0
529,48.0,45,20,11.0,0.0
530,71.0,0,90,4.0,0.0
531,44.0,0,90,13.0,0.0
532,44.0,42,40,11.0,0.0
533,71.0,0,90,13.0,0.0
534,62.0,0,90,13.0,0.0
535,77.0,21,120,2.0,0.0
536,74.0,6,90,3.0,0.0
537,44.0,0,40,5.0,0.0
538,32.0,0,40,12.0,0.0
539,44.0,0,40,5.0,0.0
540,32.0,27,40,12.0,0.0
541,44.0,0,40,11.0,0.0
542,32.0,0,40,12.0,0.0
543,77.0,21,120,6.0,0.0
544,62.0,0,90,13.0,0.0
545,77.0,0,90,7.0,0.0
546,74.0,0,90,8.0,0.0
547,44.0,3,40,5.0,0.0
548,44.0,0,90,13.0,0.0
549,71.0,0,90,13.0,0.0
550,44.0,0,40,11.0,0.0
551,71.0,6,90,9.0,0.0
552,79.0,24,20,2.0,0.0
553,44.0,0,40,5.0,0.0
554,44.0,3,40,11.0,0.0
555,77.0,15,20,2.0,0.0
556,32.0,0,40,12.0,0.0
557,76.0,24,20,2.0,0.0
558,71.0,0,90,13.0,0.0
559,44.0,0,40,11.0,0.0
560,62.0,6,90,13.0,0.0
561,44.0,0,40,5.0,0.0
562,44.0,0,90,13.0,0.0
563,32.0,3,40,12.0,0.0
564,74.0,0,20,2.0,0.0
565,72.0,24,20,2.0,0.0
566,79.0,0,20,6.0,0.0
567,71.0,0,20,2.0,0.0
568,32.0,0,40,12.0,0.0
569,77.0,13,20,6.0,0.0
570,44.0,0,40,11.0,0.0
571,44.0,3,40,5.0,0.0
572,76.0,1,20,6.0,0.0
573,74.0,2,15,2.0,0.0
574,72.0,23,15,2.0,0.0
575,28.0,0,40,12.0,0.0
576,40.0,0,40,11.0,0.0
577,40.0,6,90,13.0,0.0
578,71.0,0,90,3.0,0.0
579,71.0,0,90,13.0,0.0
580,74.0,21,20,6.0,0.0
581,40.0,3,40,5.0,0.0
582,68.0,0,90,4.0,0.0
583,74.0,0,150,2.0,0.0
584,68.0,0,90,13.0,0.0
585,72.0,24,20,6.0,0.0
586,40.0,0,40,11.0,0.0
587,28.0,4,40,12.0,0.0
588,71.0,13,20,6.0,0.0
589,40.0,0,40,5.0,0.0
590,74.0,2,15,6.0,0.0
591,72.0,44,15,6.0,0.0
592,74.0,6,90,7.0,0.0
593,68.0,0,90,13.0,0.0
594,68.0,0,90,9.0,0.0
595,28.0,0,40,12.0,0.0
596,71.0,0,90,13.0,0.0
597,40.0,0,40,5.0,0.0
598,40.0,0,90,13.0,0.0
599,71.0,0,90,8.0,0.0
600,74.0,0,150,6.0,0.0
601,40.0,27,40,11.0,0.0
602,28.0,0,40,12.0,0.0
603,40.0,3,40,11.0,0.0
604,40.0,0,40,5.0,0.0
605,76.0,15,20,2.0,0.0
606,77.0,24,20,2.0,0.0
607,71.0,6,90,13.0,0.0
608,40.0,0,90,13.0,0.0
609,40.0,0,40,11.0,0.0
610,40.0,3,40,5.0,0.0
611,68.0,0,90,13.0,0.0
612,76.0,21,20,2.0,0.0
613,28.0,0,40,12.0,0.0
614,74.0,24,20,2.0,0.0
615,72.0,13,20,2.0,0.0
616,28.0,0,40,12.0,0.0
617,76.0,0,20,6.0,0.0
618,40.0,3,40,11.0,0.0
619,40.0,0,40,5.0,0.0
620,77.0,1,20,6.0,0.0
621,74.0,2,15,2.0,0.0
622,71.0,12,15,2.0,0.0
623,64.0,0,90,4.0,0.0
624,40.0,0,40,5.0,0.0
625,76.0,1,20,6.0,0.0
626,69.0,0,90,13.0,0.0
627,60.0,6,90,13.0,0.0
628,40.0,0,90,13.0,0.0
629,40.0,3,40,11.0,0.0
630,69.0,0,90,3.0,0.0
631,72.0,11,15,2.0,0.0
632,28.0,0,40,12.0,0.0
633,74.0,12,15,2.0,0.0
634,72.0,8,15,2.0,0.0
635,74.0,1,20,6.0,0.0
636,71.0,12,15,2.0,0.0
637,72.0,1,20,6.0,0.0
638,69.0,11,15,2.0,0.0
639,40.0,0,40,11.0,0.0
640,28.0,0,40,12.0,0.0
641,40.0,4,40,5.0,0.0
642,71.0,12,15,2.0,0.0
643,68.0,0,15,2.0,0.0
644,74.0,2,15,6.0,0.0
645,69.0,0,15,2.0,0.0
646,71.0,7,15,6.0,0.0
647,72.0,2,20,6.0,0.0
648,27.0,0,40,12.0,0.0
649,39.0,3,40,5.0,0.0
650,66.0,0,90,9.0,0.0
651,69.0,0,90,13.0,0.0
652,39.0,5,90,13.0,0.0
653,71.0,6,15,2.0,0.0
654,66.0,0,90,13.0,0.0
655,69.0,0,90,8.0,0.0
656,39.0,0,40,11.0,0.0
657,72.0,0,90,7.0,0.0
658,69.0,6,15,2.0,0.0
659,71.0,4,15,2.0,0.0
660,69.0,6,15,2.0,0.0
661,74.0,2,20,6.0,0.0
662,71.0,6,15,2.0,0.0
663,69.0,6,15,2.0,0.0
664,71.0,1,15,2.0,0.0
665,69.0,6,15,2.0,0.0
666,39.0,0,40,11.0,0.0
667,72.0,2,20,6.0,0.0
668,27.0,3,40,12.0,0.0
669,39.0,0,40,5.0,0.0
670,71.0,6,15,2.0,0.0
671,69.0,6,15,2.0,0.0
672,71.0,4,15,2.0,0.0
673,69.0,6,15,2.0,0.0
674,71.0,6,15,2.0,0.0
675,71.0,2,20,6.0,0.0
676,69.0,1,15,2.0,0.0
677,71.0,1,15,2.0,0.0
678,69.0,22,15,2.0,0.0
679,69.0,0,20,2.0,0.0
680,39.0,3,40,5.0,0.0
681,69.0,0,90,13.0,0.0
682,27.0,0,40,12.0,0.0
683,69.0,21,20,6.0,0.0
684,39.0,0,40,11.0,0.0
685,57.0,6,90,13.0,0.0
686,39.0,0,90,13.0,0.0
687,68.0,24,20,2.0,0.0
688,71.0,0,20,6.0,0.0
689,69.0,13,20,2.0,0.0
690,39.0,0,40,11.0,0.0
691,68.0,0,20,6.0,0.0
692,27.0,3,40,12.0,0.0
693,39.0,0,40,5.0,0.0
694,69.0,1,20,6.0,0.0
695,71.0,2,15,2.0,0.0
696,68.0,7,15,2.0,0.0
697,68.0,0,90,13.0,0.0
698,50.0,0,40,11.0,0.0
699,71.0,0,40,6.0,0.0
700,71.0,0,90,7.0,0.0
701,64.0,0,90,9.0,0.0
702,68.0,0,90,8.0,0.0
703,50.0,0,40,5.0,0.0
704,64.0,6,90,4.0,0.0
705,71.0,0,40,3.0,0.0
706,50.0,0,90,13.0,0.0
707,69.0,6,15,2.0,0.0
708,38.0,5,40,12.0,0.0
709,58.0,0,90,13.0,0.0
710,68.0,6,15,2.0,0.0
711,69.0,6,15,2.0,0.0
712,68.0,6,15,2.0,0.0
713,69.0,6,15,2.0,0.0
714,68.0,6,15,2.0,0.0
715,69.0,1,15,2.0,0.0
716,68.0,6,15,2.0,0.0
717,69.0,6,15,2.0,0.0
718,64.0,0,40,6.0,0.0
719,50.0,0,40,5.0,0.0
720,68.0,3,40,3.0,0.0
721,50.0,0,40,11.0,0.0
722,38.0,0,40,12.0,0.0
723,68.0,6,15,2.0,0.0
724,69.0,6,15,2.0,0.0
725,68.0,13,15,2.0,0.0
726,77.0,24,20,2.0,0.0
727,36.0,0,40,12.0,0.0
728,48.0,4,40,11.0,0.0
729,69.0,6,90,3.0,0.0
730,64.0,0,40,4.0,0.0
731,48.0,0,90,13.0,0.0
732,69.0,0,90,13.0,0.0
733,64.0,0,90,13.0,0.0
734,76.0,0,20,6.0,0.0
735,76.0,13,20,2.0,0.0
736,48.0,0,40,5.0,0.0
737,77.0,0,15,6.0,0.0
738,74.0,8,15,2.0,0.0
739,76.0,0,15,6.0,0.0
740,72.0,12,15,2.0,0.0
741,48.0,0,40,11.0,0.0
742,71.0,0,15,2.0,0.0
743,66.0,0,40,4.0,0.0
744,48.0,0,40,5.0,0.0
745,36.0,4,40,12.0,0.0
746,74.0,12,15,6.0,0.0
747,72.0,12,15,6.0,0.0
748,69.0,0,15,2.0,0.0
749,71.0,2,15,6.0,0.0
750,68.0,0,15,2.0,0.0
751,69.0,23,15,6.0,0.0
752,69.0,0,15,2.0,0.0
753,62.0,0,90,3.0,0.0
754,68.0,0,90,13.0,0.0
755,62.0,0,90,13.0,0.0
756,47.0,4,40,11.0,0.0
757,71.0,13,20,2.0,0.0
758,68.0,0,90,4.0,0.0
759,68.0,0,20,6.0,0.0
760,35.0,0,40,12.0,0.0
761,47.0,6,90,13.0,0.0
762,47.0,0,40,5.0,0.0
763,69.0,0,15,6.0,0.0
764,72.0,8,15,2.0,0.0
765,74.0,23,15,2.0,0.0
766,71.0,0,15,6.0,0.0
767,35.0,0,40,12.0,0.0
768,47.0,0,40,5.0,0.0
769,72.0,13,20,2.0,0.0
770,69.0,0,20,6.0,0.0
771,47.0,4,40,11.0,0.0
772,71.0,2,15,6.0,0.0
773,74.0,0,15,2.0,0.0
774,71.0,44,15,2.0,0.0
775,68.0,0,15,6.0,0.0
776,64.0,0,90,4.0,0.0
777,45.0,0,90,13.0,0.0
778,72.0,0,90,13.0,0.0
779,64.0,0,90,13.0,0.0
780,64.0,0,90,9.0,0.0
781,45.0,0,40,11.0,0.0
782,72.0,0,90,8.0,0.0
783,45.0,21,40,5.0,0.0
784,72.0,6,120,2.0,0.0
785,72.0,0,90,7.0,0.0
786,69.0,6,90,3.0,0.0
787,33.0,0,40,12.0,0.0
788,69.0,21,60,6.0,0.0
789,45.0,0,40,11.0,0.0
790,33.0,3,40,12.0,0.0
791,45.0,0,40,5.0,0.0
792,82.0,24,20,6.0,0.0
793,62.0,0,90,9.0,0.0
794,65.0,0,90,13.0,0.0
795,74.0,0,90,13.0,0.0
796,47.0,6,90,13.0,0.0
797,77.0,0,90,8.0,0.0
798,47.0,4,40,5.0,0.0
799,47.0,0,40,11.0,0.0
800,81.0,13,20,6.0,0.0
801,35.0,0,40,12.0,0.0
802,74.0,0,90,7.0,0.0
803,79.0,2,15,6.0,0.0
804,77.0,12,15,6.0,0.0
805,47.0,0,40,5.0,0.0
806,71.0,4,40,2.0,0.0
807,47.0,0,40,11.0,0.0
808,76.0,12,15,6.0,0.0
809,35.0,0,40,12.0,0.0
810,74.0,12,15,6.0,0.0
811,73.0,2,15,6.0,0.0
812,74.0,23,15,6.0,0.0
813,76.0,0,90,8.0,0.0
814,49.0,0,90,13.0,0.0
815,76.0,0,90,13.0,0.0
816,69.0,0,90,13.0,0.0
817,69.0,6,90,9.0,0.0
818,37.0,0,40,12.0,0.0
819,70.0,4,40,2.0,0.0
820,49.0,0,40,5.0,0.0
821,76.0,0,90,7.0,0.0
822,49.0,0,40,11.0,0.0
823,76.0,13,20,6.0,0.0
824,77.0,8,15,6.0,0.0
825,79.0,23,15,6.0,0.0
826,49.0,0,40,5.0,0.0
827,37.0,4,40,12.0,0.0
828,49.0,0,40,11.0,0.0
829,69.0,0,40,2.0,0.0
830,77.0,13,20,6.0,0.0
831,79.0,2,15,6.0,0.0
832,76.0,44,15,6.0,0.0
833,69.0,0,90,9.0,0.0
834,74.0,0,90,8.0,0.0
835,69.0,6,90,2.0,0.0
836,77.0,6,120,6.0,0.0
837,77.0,0,90,7.0,0.0
838,38.0,0,40,12.0,0.0
839,50.0,42,40,5.0,0.0
840,69.0,0,90,13.0,0.0
841,74.0,0,90,3.0,0.0
842,50.0,0,90,13.0,0.0
843,65.0,0,90,4.0,0.0
844,65.0,0,90,13.0,0.0
845,50.0,0,40,11.0,0.0
846,50.0,0,40,5.0,0.0
847,50.0,0,40,11.0,0.0
848,38.0,42,40,12.0,0.0
849,52.0,0,40,5.0,0.0
850,81.0,21,210,2.0,0.0
851,72.0,0,180,3.0,0.0
852,69.0,0,180,4.0,0.0
853,52.0,0,40,11.0,0.0
854,40.0,42,40,12.0,0.0
855,52.0,6,90,13.0,0.0
856,69.0,0,180,13.0,0.0
857,64.0,6,180,13.0,0.0
858,40.0,48,40,12.0,0.0
859,52.0,0,40,5.0,0.0
860,52.0,0,40,11.0,0.0
861,76.0,0,40,6.0,0.0
862,54.0,0,40,11.0,0.0
863,42.0,0,40,12.0,0.0
864,54.0,0,90,13.0,0.0
865,75.0,42,40,6.0,0.0
866,54.0,0,40,5.0,0.0
867,54.0,0,40,5.0,0.0
868,42.0,0,40,12.0,0.0
869,54.0,0,40,11.0,0.0
870,74.0,27,40,6.0,0.0
871,36.0,0,40,12.0,0.0
872,66.0,0,90,4.0,0.0
873,69.0,0,90,8.0,0.0
874,48.0,0,40,11.0,0.0
875,69.0,6,90,3.0,0.0
876,74.0,0,90,6.0,0.0
877,66.0,0,90,13.0,0.0
878,69.0,0,90,13.0,0.0
879,48.0,0,90,13.0,0.0
880,66.0,0,90,9.0,0.0
881,48.0,3,40,5.0,0.0
882,74.0,0,90,7.0,0.0
883,80.0,24,20,2.0,0.0
884,36.0,0,40,12.0,0.0
885,48.0,0,40,5.0,0.0
886,48.0,3,40,11.0,0.0
887,81.0,15,20,2.0,0.0
888,78.0,24,20,2.0,0.0
889,71.0,6,90,3.0,0.0
890,47.0,0,40,5.0,0.0
891,71.0,3,40,9.0,0.0
892,74.0,0,40,8.0,0.0
893,79.0,21,20,2.0,0.0
894,62.0,0,90,13.0,0.0
895,47.0,0,90,13.0,0.0
896,62.0,0,90,4.0,0.0
897,47.0,0,40,11.0,0.0
898,86.0,15,120,6.0,0.0
899,67.0,0,90,13.0,0.0
900,35.0,0,40,12.0,0.0
901,86.0,6,120,7.0,0.0
902,76.0,24,20,2.0,0.0
903,47.0,0,40,11.0,0.0
904,71.0,0,40,8.0,0.0
905,47.0,0,40,5.0,0.0
906,68.0,0,40,9.0,0.0
907,35.0,3,40,12.0,0.0
908,77.0,15,20,2.0,0.0
909,75.0,24,20,2.0,0.0
910,69.0,0,90,4.0,0.0
911,64.0,0,90,3.0,0.0
912,45.0,0,90,13.0,0.0
913,72.0,0,90,13.0,0.0
914,33.0,0,40,12.0,0.0
915,76.0,3,150,2.0,0.0
916,69.0,0,40,9.0,0.0
917,64.0,0,90,13.0,0.0
918,76.0,6,90,8.0,0.0
919,45.0,3,40,5.0,0.0
920,45.0,0,40,11.0,0.0
921,83.0,24,20,6.0,0.0
922,84.0,0,40,7.0,0.0
923,45.0,3,40,11.0,0.0
924,33.0,0,40,12.0,0.0
925,84.0,15,20,6.0,0.0
926,64.0,0,40,9.0,0.0
927,45.0,0,40,5.0,0.0
928,81.0,24,20,6.0,0.0
929,26.0,0,40,12.0,0.0
930,62.0,6,90,3.0,0.0
931,38.0,0,40,5.0,0.0
932,65.0,0,90,4.0,0.0
933,38.0,0,90,13.0,0.0
934,69.0,0,90,13.0,0.0
935,65.0,0,90,13.0,0.0
936,38.0,0,40,11.0,0.0
937,74.0,0,40,8.0,0.0
938,65.0,0,40,9.0,0.0
939,82.0,21,20,6.0,0.0
940,82.0,0,40,7.0,0.0
941,80.0,24,20,6.0,0.0
942,72.0,0,40,8.0,0.0
943,77.0,0,40,2.0,0.0
944,26.0,0,40,12.0,0.0
945,38.0,3,40,5.0,0.0
946,81.0,15,20,6.0,0.0
947,81.0,0,40,7.0,0.0
948,69.0,0,40,9.0,0.0
949,38.0,0,40,11.0,0.0
950,83.0,8,20,6.0,0.0
951,58.0,0,90,13.0,0.0
952,81.0,6,15,6.0,0.0
953,64.0,0,90,9.0,0.0
954,71.0,5,120,2.0,0.0
955,62.0,5,90,3.0,0.0
956,81.0,0,15,7.0,0.0
957,28.0,5,40,12.0,0.0
958,40.0,0,90,13.0,0.0
959,68.0,0,90,13.0,0.0
960,40.0,0,40,11.0,0.0
961,40.0,0,40,5.0,0.0
962,64.0,0,90,4.0,0.0
963,71.0,0,90,8.0,0.0
964,80.0,0,15,7.0,0.0
965,80.0,6,15,6.0,0.0
966,81.0,6,15,6.0,0.0
967,81.0,0,15,7.0,0.0
968,80.0,0,15,7.0,0.0
969,80.0,6,15,6.0,0.0
970,81.0,0,15,6.0,0.0
971,81.0,6,15,7.0,0.0
972,80.0,0,15,6.0,0.0
973,80.0,6,15,7.0,0.0
974,81.0,0,15,6.0,0.0
975,81.0,1,15,7.0,0.0
976,80.0,0,15,7.0,0.0
977,80.0,6,15,6.0,0.0
978,81.0,0,15,6.0,0.0
979,40.0,5,40,11.0,0.0
980,28.0,0,40,12.0,0.0
981,40.0,0,40,5.0,0.0
982,81.0,6,15,7.0,0.0
983,80.0,0,15,6.0,0.0
984,80.0,6,15,7.0,0.0
985,81.0,6,15,6.0,0.0
986,81.0,0,15,7.0,0.0
987,80.0,6,15,7.0,0.0
988,80.0,0,15,6.0,0.0
989,81.0,6,15,6.0,0.0
990,81.0,0,15,7.0,0.0
991,80.0,0,15,7.0,0.0
992,80.0,1,15,6.0,0.0
993,81.0,0,15,6.0,0.0
994,81.0,1,15,7.0,0.0
995,80.0,6,15,6.0,0.0
996,80.0,0,15,7.0,0.0
997,71.0,0,90,9.0,0.0
998,81.0,6,15,7.0,0.0
999,40.0,0,40,5.0,0.0
1000,76.0,6,90,8.0,0.0
1001,40.0,0,90,13.0,0.0
1002,81.0,0,15,6.0,0.0
1003,40.0,5,40,11.0,0.0
1004,64.0,0,90,4.0,0.0
1005,28.0,0,40,12.0,0.0
1006,62.0,0,90,3.0,0.0
1007,80.0,6,15,6.0,0.0
1008,80.0,0,15,7.0,0.0
1009,81.0,0,15,7.0,0.0
1010,81.0,6,15,6.0,0.0
1011,80.0,6,15,7.0,0.0
1012,80.0,0,15,6.0,0.0
1013,81.0,0,15,7.0,0.0
1014,81.0,6,15,6.0,0.0
1015,80.0,0,15,6.0,0.0
1016,80.0,1,15,7.0,0.0
1017,81.0,0,15,7.0,0.0
1018,81.0,1,15,6.0,0.0
1019,80.0,0,15,7.0,0.0
1020,80.0,37,15,6.0,0.0
1021,40.0,48,40,5.0,0.0
1022,81.0,0,40,7.0,0.0
1023,69.0,0,40,2.0,0.0
1024,81.0,0,40,6.0,0.0
1025,28.0,0,40,12.0,0.0
1026,40.0,0,40,11.0,0.0
1027,72.0,0,40,9.0,0.0
1028,60.0,6,90,3.0,0.0
1029,76.0,42,40,8.0,0.0
1030,45.0,0,90,13.0,0.0
1031,72.0,0,90,13.0,0.0
1032,57.0,0,90,13.0,0.0
1033,33.0,0,90,12.0,0.0
1034,69.0,0,90,2.0,0.0
1035,64.0,0,90,4.0,0.0
1036,45.0,0,150,12.0,0.0
1037,57.0,0,150,11.0,0.0
1038,81.0,0,40,7.0,0.0
1039,81.0,0,40,6.0,0.0
1040,64.0,0,90,13.0,0.0
1041,57.0,27,150,5.0,0.0
1042,80.0,48,40,7.0,0.0
1043,80.0,0,40,6.0,0.0
1044,71.0,0,40,9.0,0.0
1045,74.0,0,40,8.0,0.0
1046,64.0,0,40,4.0,0.0
1047,72.0,0,40,2.0,0.0
1048,81.0,0,90,7.0,0.0
1049,76.0,0,90,8.0,0.0
1050,81.0,0,90,6.0,0.0
1051,69.0,0,40,3.0,0.0
1052,72.0,6,90,9.0,0.0
1053,46.0,0,20,12.0,0.0
1054,68.0,0,40,3.0,0.0
1055,71.0,0,40,2.0,0.0
1056,62.0,3,40,4.0,0.0
1057,58.0,15,20,11.0,0.0
1058,58.0,0,20,5.0,0.0
1059,45.0,0,20,12.0,0.0
1060,57.0,24,20,5.0,0.0
1061,57.0,0,20,11.0,0.0
1062,72.0,0,90,2.0,0.0
1063,55.0,24,20,11.0,0.0
1064,64.0,10,90,4.0,0.0
1065,43.0,0,20,12.0,0.0
1066,55.0,0,20,5.0,0.0
1067,69.0,0,90,3.0,0.0
1068,53.0,24,20,5.0,0.0
1069,41.0,0,20,12.0,0.0
1070,53.0,0,20,11.0,0.0
1071,52.0,0,20,11.0,0.0
1072,40.0,13,20,12.0,0.0
1073,52.0,0,20,5.0,0.0
1074,43.0,2,15,12.0,0.0
1075,55.0,0,15,5.0,0.0
1076,55.0,0,15,11.0,0.0
1077,41.0,0,15,12.0,0.0
1078,53.0,0,15,5.0,0.0
1079,53.0,44,15,11.0,0.0
1080,55.0,0,150,11.0,0.0
1081,81.0,0,40,7.0,0.0
1082,43.0,0,150,12.0,0.0
1083,70.0,0,90,13.0,0.0
1084,43.0,0,90,13.0,0.0
1085,62.0,0,90,13.0,0.0
1086,81.0,0,40,6.0,0.0
1087,55.0,6,90,13.0,0.0
1088,76.0,42,40,8.0,0.0
1089,73.0,0,40,9.0,0.0
1090,55.0,0,150,5.0,0.0
1091,79.0,0,40,6.0,0.0
1092,79.0,0,40,7.0,0.0
1093,74.0,0,40,8.0,0.0
1094,71.0,48,40,9.0,0.0
1095,76.0,6,90,8.0,0.0
1096,69.0,0,40,3.0,0.0
1097,72.0,0,90,9.0,0.0
1098,81.0,0,90,7.0,0.0
1099,64.0,27,40,4.0,0.0
1100,73.0,0,40,2.0,0.0
1101,81.0,0,90,6.0,0.0
1102,71.0,3,40,2.0,0.0
1103,57.0,0,20,11.0,0.0
1104,67.0,0,40,3.0,0.0
1105,62.0,0,40,4.0,0.0
1106,45.0,15,20,12.0,0.0
1107,57.0,0,20,5.0,0.0
1108,46.0,0,20,12.0,0.0
1109,58.0,0,20,5.0,0.0
1110,58.0,24,20,11.0,0.0
1111,69.0,0,90,3.0,0.0
1112,57.0,0,20,11.0,0.0
1113,57.0,24,20,5.0,0.0
1114,45.0,0,20,12.0,0.0
1115,64.0,0,90,4.0,0.0
1116,73.0,10,90,2.0,0.0
1117,55.0,24,20,11.0,0.0
1118,55.0,0,20,5.0,0.0
1119,43.0,0,20,12.0,0.0
1120,41.0,0,20,12.0,0.0
1121,53.0,0,20,11.0,0.0
1122,53.0,13,20,5.0,0.0
1123,55.0,0,15,11.0,0.0
1124,43.0,0,15,12.0,0.0
1125,55.0,2,15,5.0,0.0
1126,52.0,44,15,11.0,0.0
1127,40.0,0,15,12.0,0.0
1128,52.0,0,15,5.0,0.0
1129,69.0,6,90,13.0,0.0
1130,41.0,0,90,13.0,0.0
1131,81.0,0,40,6.0,0.0
1132,41.0,0,120,12.0,0.0
1133,62.0,0,90,13.0,0.0
1134,53.0,0,90,13.0,0.0
1135,53.0,21,120,11.0,0.0
1136,74.0,0,40,9.0,0.0
1137,77.0,0,40,8.0,0.0
1138,53.0,0,120,5.0,0.0
1139,81.0,42,40,7.0,0.0
1140,73.0,0,40,9.0,0.0
1141,76.0,27,40,8.0,0.0
1142,79.0,0,40,7.0,0.0
1143,79.0,0,40,6.0,0.0
1144,65.0,3,40,4.0,0.0
1145,69.0,0,40,3.0,0.0
1146,74.0,0,40,2.0,0.0
1147,81.0,0,90,6.0,0.0
1148,74.0,0,90,9.0,0.0
1149,77.0,6,90,8.0,0.0
1150,81.0,0,90,7.0,0.0
1151,43.0,0,20,12.0,0.0
1152,55.0,0,20,11.0,0.0
1153,55.0,24,20,5.0,0.0
1154,73.0,0,40,2.0,0.0
1155,67.0,3,40,3.0,0.0
1156,53.0,15,20,11.0,0.0
1157,53.0,0,20,5.0,0.0
1158,41.0,0,20,12.0,0.0
1159,64.0,0,40,4.0,0.0
1160,52.0,0,20,5.0,0.0
1161,40.0,24,20,12.0,0.0
1162,52.0,0,20,11.0,0.0
1163,50.0,0,20,11.0,0.0
1164,38.0,0,20,12.0,0.0
1165,74.0,9,90,2.0,0.0
1166,69.0,0,90,3.0,0.0
1167,65.0,0,90,4.0,0.0
1168,50.0,24,20,5.0,0.0
1169,52.0,0,20,11.0,0.0
1170,40.0,0,20,12.0,0.0
1171,52.0,24,20,5.0,0.0
1172,49.0,0,20,11.0,0.0
1173,37.0,0,20,12.0,0.0
1174,49.0,15,20,5.0,0.0
1175,50.0,45,20,5.0,0.0
1176,50.0,0,20,11.0,0.0
1177,38.0,0,20,12.0,0.0
1178,74.0,0,90,9.0,0.0
1179,43.0,0,40,11.0,0.0
1180,31.0,0,40,12.0,0.0
1181,82.0,0,90,7.0,0.0
1182,79.0,0,90,8.0,0.0
1183,43.0,42,40,5.0,0.0
1184,82.0,21,120,6.0,0.0
1185,43.0,6,90,13.0,0.0
1186,62.0,0,90,13.0,0.0
1187,70.0,0,90,13.0,0.0
1188,31.0,27,40,12.0,0.0
1189,43.0,0,40,11.0,0.0
1190,43.0,0,40,5.0,0.0
1191,82.0,0,120,2.0,0.0
1192,70.0,0,90,13.0,0.0
1193,31.0,0,40,12.0,0.0
1194,43.0,0,90,13.0,0.0
1195,79.0,0,90,3.0,0.0
1196,43.0,3,40,11.0,0.0
1197,62.0,0,90,13.0,0.0
1198,74.0,6,90,4.0,0.0
1199,43.0,0,40,5.0,0.0
1200,84.0,24,20,6.0,0.0
1201,31.0,3,40,12.0,0.0
1202,82.0,15,20,6.0,0.0
1203,43.0,0,40,11.0,0.0
1204,43.0,0,40,5.0,0.0
1205,81.0,24,20,6.0,0.0
1206,43.0,0,40,5.0,0.0
1207,43.0,6,90,13.0,0.0
1208,79.0,21,20,6.0,0.0
1209,31.0,0,40,12.0,0.0
1210,43.0,3,40,11.0,0.0
1211,77.0,24,20,6.0,0.0
1212,84.0,0,20,2.0,0.0
1213,31.0,0,40,12.0,0.0
1214,76.0,13,20,6.0,0.0
1215,43.0,3,40,5.0,0.0
1216,82.0,0,20,2.0,0.0
1217,43.0,0,40,11.0,0.0
1218,79.0,2,15,6.0,0.0
1219,81.0,1,20,2.0,0.0
1220,77.0,23,15,6.0,0.0
1221,40.0,0,40,5.0,0.0
1222,40.0,3,40,11.0,0.0
1223,70.0,0,90,9.0,0.0
1224,79.0,6,90,7.0,0.0
1225,28.0,0,40,12.0,0.0
1226,79.0,21,20,2.0,0.0
1227,73.0,0,90,8.0,0.0
1228,67.0,0,90,13.0,0.0
1229,79.0,0,150,6.0,0.0
1230,58.0,0,90,13.0,0.0
1231,40.0,0,90,13.0,0.0
1232,77.0,24,20,2.0,0.0
1233,40.0,0,40,11.0,0.0
1234,28.0,0,40,12.0,0.0
1235,40.0,4,40,5.0,0.0
1236,76.0,13,20,2.0,0.0
1237,79.0,2,15,2.0,0.0
1238,77.0,44,15,2.0,0.0
1239,49.0,27,40,11.0,0.0
1240,76.0,0,90,3.0,0.0
1241,49.0,6,90,13.0,0.0
1242,69.0,0,90,13.0,0.0
1243,64.0,0,90,13.0,0.0
1244,69.0,0,90,4.0,0.0
1245,79.0,3,150,2.0,0.0
1246,37.0,0,40,12.0,0.0
1247,49.0,0,40,5.0,0.0
1248,37.0,0,40,12.0,0.0
1249,81.0,15,20,6.0,0.0
1250,49.0,0,40,5.0,0.0
1251,49.0,3,40,11.0,0.0
1252,82.0,24,20,6.0,0.0
1253,45.0,0,40,11.0,0.0
1254,69.0,6,90,13.0,0.0
1255,45.0,0,40,5.0,0.0
1256,33.0,0,40,12.0,0.0
1257,81.0,21,20,6.0,0.0
1258,45.0,0,90,13.0,0.0
1259,79.0,24,20,6.0,0.0
1260,45.0,0,40,5.0,0.0
1261,33.0,3,40,12.0,0.0
1262,77.0,0,20,6.0,0.0
1263,45.0,0,40,11.0,0.0
1264,81.0,13,20,2.0,0.0
1265,82.0,1,20,2.0,0.0
1266,79.0,2,15,6.0,0.0
1267,76.0,12,15,6.0,0.0
1268,50.0,0,90,13.0,0.0
1269,69.0,0,90,13.0,0.0
1270,65.0,0,90,13.0,0.0
1271,77.0,6,90,7.0,0.0
1272,69.0,0,90,9.0,0.0
1273,38.0,3,40,12.0,0.0
1274,50.0,0,40,5.0,0.0
1275,77.0,11,15,6.0,0.0
1276,50.0,0,40,11.0,0.0
1277,81.0,1,20,2.0,0.0
1278,74.0,0,90,8.0,0.0
1279,79.0,12,15,6.0,0.0
1280,77.0,8,15,6.0,0.0
1281,79.0,1,20,2.0,0.0
1282,76.0,12,15,6.0,0.0
1283,50.0,0,40,5.0,0.0
1284,74.0,11,15,6.0,0.0
1285,38.0,0,40,12.0,0.0
1286,50.0,4,40,11.0,0.0
1287,77.0,1,20,2.0,0.0
1288,76.0,12,15,6.0,0.0
1289,79.0,2,15,2.0,0.0
1290,73.0,0,15,6.0,0.0
1291,74.0,0,15,6.0,0.0
1292,76.0,23,15,2.0,0.0
1293,71.0,0,90,4.0,0.0
1294,44.0,0,90,13.0,0.0
1295,44.0,3,40,5.0,0.0
1296,77.0,21,20,2.0,0.0
1297,74.0,11,120,6.0,0.0
1298,74.0,6,90,3.0,0.0
1299,71.0,0,90,13.0,0.0
1300,62.0,0,90,13.0,0.0
1301,44.0,0,40,11.0,0.0
1302,32.0,0,40,12.0,0.0
1303,79.0,24,20,2.0,0.0
1304,32.0,0,40,12.0,0.0
1305,77.0,15,20,2.0,0.0
1306,44.0,0,40,11.0,0.0
1307,44.0,3,40,5.0,0.0
1308,76.0,24,20,2.0,0.0
1309,32.0,3,40,12.0,0.0
1310,44.0,0,40,11.0,0.0
1311,44.0,6,90,13.0,0.0
1312,44.0,0,40,5.0,0.0
1313,74.0,10,20,2.0,0.0
1314,76.0,1,20,2.0,0.0
1315,73.0,23,15,6.0,0.0
1316,44.0,0,40,11.0,0.0
1317,44.0,0,40,5.0,0.0
1318,73.0,0,20,2.0,0.0
1319,74.0,13,20,6.0,0.0
1320,32.0,3,40,12.0,0.0
1321,74.0,1,20,2.0,0.0
1322,76.0,2,15,6.0,0.0
1323,73.0,7,15,6.0,0.0
1324,55.0,5,40,11.0,0.0
1325,73.0,0,90,3.0,0.0
1326,55.0,0,40,5.0,0.0
1327,69.0,0,90,4.0,0.0
1328,74.0,6,15,6.0,0.0
1329,69.0,0,90,9.0,0.0
1330,43.0,0,40,12.0,0.0
1331,76.0,0,90,7.0,0.0
1332,73.0,0,90,13.0,0.0
1333,76.0,0,40,2.0,0.0
1334,64.0,6,90,13.0,0.0
1335,55.0,0,90,13.0,0.0
1336,76.0,0,40,8.0,0.0
1337,73.0,6,15,6.0,0.0
1338,74.0,6,15,6.0,0.0
1339,73.0,6,15,6.0,0.0
1340,74.0,6,15,6.0,0.0
1341,73.0,6,15,6.0,0.0
1342,74.0,1,15,6.0,0.0
1343,73.0,6,15,6.0,0.0
1344,55.0,0,40,11.0,0.0
1345,43.0,0,40,12.0,0.0
1346,73.0,3,40,8.0,0.0
1347,74.0,6,15,6.0,0.0
1348,55.0,0,40,5.0,0.0
1349,69.0,0,40,2.0,0.0
1350,73.0,6,15,6.0,0.0
1351,74.0,6,15,6.0,0.0
1352,73.0,13,15,6.0,0.0
1353,82.0,24,20,6.0,0.0
1354,81.0,0,20,2.0,0.0
1355,65.0,0,90,13.0,0.0
1356,69.0,0,40,9.0,0.0
1357,53.0,4,40,11.0,0.0
1358,41.0,0,40,12.0,0.0
1359,77.0,0,90,7.0,0.0
1360,53.0,0,90,13.0,0.0
1361,81.0,13,20,6.0,0.0
1362,74.0,6,90,8.0,0.0
1363,53.0,0,40,5.0,0.0
1364,69.0,0,90,13.0,0.0
1365,82.0,0,15,2.0,0.0
1366,79.0,8,15,6.0,0.0
1367,81.0,0,15,2.0,0.0
1368,77.0,12,15,6.0,0.0
1369,71.0,4,40,9.0,0.0
1370,53.0,0,40,5.0,0.0
1371,76.0,0,15,6.0,0.0
1372,53.0,0,40,11.0,0.0
1373,41.0,0,40,12.0,0.0
1374,79.0,12,15,2.0,0.0
1375,77.0,0,15,2.0,0.0
1376,74.0,12,15,6.0,0.0
1377,73.0,0,15,6.0,0.0
1378,76.0,2,15,2.0,0.0
1379,74.0,23,15,2.0,0.0
1380,74.0,0,15,6.0,0.0
1381,52.0,4,40,11.0,0.0
1382,52.0,0,40,5.0,0.0
1383,79.0,6,90,7.0,0.0
1384,40.0,0,40,12.0,0.0
1385,67.0,0,90,8.0,0.0
1386,52.0,0,90,13.0,0.0
1387,67.0,0,90,13.0,0.0
1388,73.0,0,20,2.0,0.0
1389,73.0,0,90,9.0,0.0
1390,61.0,0,90,13.0,0.0
1391,76.0,13,20,6.0,0.0
1392,74.0,0,15,2.0,0.0
1393,77.0,8,15,6.0,0.0
1394,79.0,23,15,6.0,0.0
1395,76.0,0,15,2.0,0.0
1396,77.0,13,20,6.0,0.0
1397,74.0,0,20,2.0,0.0
1398,52.0,0,40,5.0,0.0
1399,52.0,0,40,11.0,0.0
1400,40.0,4,40,12.0,0.0
1401,79.0,2,15,6.0,0.0
1402,76.0,0,15,2.0,0.0
1403,73.0,0,15,2.0,0.0
1404,76.0,44,15,6.0,0.0
1405,50.0,0,90,13.0,0.0
1406,65.0,0,90,13.0,0.0
1407,77.0,6,90,7.0,0.0
1408,50.0,21,40,11.0,0.0
1409,57.0,0,90,13.0,0.0
1410,50.0,0,40,5.0,0.0
1411,77.0,0,90,3.0,0.0
1412,74.0,21,60,2.0,0.0
1413,74.0,0,90,8.0,0.0
1414,38.0,0,40,12.0,0.0
1415,77.0,6,120,6.0,0.0
1416,69.0,0,90,4.0,0.0
1417,69.0,0,90,9.0,0.0
1418,50.0,0,40,11.0,0.0
1419,38.0,3,40,12.0,0.0
1420,50.0,0,40,5.0,0.0
1421,75.0,24,20,2.0,0.0
1422,74.0,13,20,2.0,0.0
1423,67.0,0,90,4.0,0.0
1424,52.0,0,40,11.0,0.0
1425,70.0,0,90,3.0,0.0
1426,58.0,6,90,13.0,0.0
1427,52.0,0,90,13.0,0.0
1428,67.0,0,90,13.0,0.0
1429,52.0,0,40,5.0,0.0
1430,40.0,4,40,12.0,0.0
1431,72.0,2,15,2.0,0.0
1432,70.0,12,15,2.0,0.0
1433,52.0,0,40,5.0,0.0
1434,52.0,0,40,11.0,0.0
1435,76.0,0,40,6.0,0.0
1436,40.0,4,40,12.0,0.0
1437,69.0,12,15,2.0,0.0
1438,67.0,12,15,2.0,0.0
1439,66.0,2,15,2.0,0.0
1440,67.0,23,15,2.0,0.0
1441,54.0,4,40,5.0,0.0
1442,54.0,0,40,11.0,0.0
1443,69.0,0,90,13.0,0.0
1444,62.0,0,90,13.0,0.0
1445,75.0,0,40,6.0,0.0
1446,62.0,0,90,4.0,0.0
1447,69.0,6,90,3.0,0.0
1448,69.0,13,20,2.0,0.0
1449,54.0,0,90,13.0,0.0
1450,42.0,0,40,12.0,0.0
1451,70.0,8,15,2.0,0.0
1452,72.0,23,15,2.0,0.0
1453,70.0,13,20,2.0,0.0
1454,42.0,4,40,12.0,0.0
1455,54.0,0,40,5.0,0.0
1456,54.0,0,40,11.0,0.0
1457,74.0,0,40,6.0,0.0
1458,72.0,2,15,2.0,0.0
1459,69.0,44,15,2.0,0.0
1460,55.0,42,40,5.0,0.0
1461,74.0,6,90,6.0,0.0
1462,70.0,6,120,2.0,0.0
1463,79.0,0,90,8.0,0.0
1464,70.0,0,90,13.0,0.0
1465,74.0,0,90,7.0,0.0
1466,62.0,0,90,4.0,0.0
1467,62.0,0,90,13.0,0.0
1468,55.0,0,40,11.0,0.0
1469,43.0,0,40,12.0,0.0
1470,67.0,0,90,3.0,0.0
1471,70.0,0,90,9.0,0.0
1472,55.0,0,90,13.0,0.0
1473,43.0,0,40,12.0,0.0
1474,55.0,0,40,11.0,0.0
1475,55.0,42,40,5.0,0.0
1476,65.0,6,180,13.0,0.0
1477,45.0,0,40,12.0,0.0
1478,86.0,0,270,7.0,0.0
1479,57.0,0,40,11.0,0.0
1480,57.0,6,90,13.0,0.0
1481,74.0,0,180,13.0,0.0
1482,77.0,0,180,8.0,0.0
1483,57.0,42,40,5.0,0.0
1484,74.0,0,180,9.0,0.0
1485,86.0,21,210,6.0,0.0
1486,57.0,0,40,11.0,0.0
1487,69.0,0,40,2.0,0.0
1488,45.0,0,40,12.0,0.0
1489,57.0,48,40,5.0,0.0
1490,59.0,0,90,13.0,0.0
1491,68.0,0,40,2.0,0.0
1492,47.0,0,40,12.0,0.0
1493,59.0,42,40,5.0,0.0
1494,59.0,0,40,11.0,0.0
1495,59.0,0,40,11.0,0.0
1496,47.0,27,40,12.0,0.0
1497,67.0,0,40,2.0,0.0
1498,59.0,0,40,5.0,0.0
1499,53.0,3,40,11.0,0.0
1500,53.0,0,40,5.0,0.0
1501,67.0,0,90,2.0,0.0
1502,62.0,6,90,4.0,0.0
1503,41.0,0,40,12.0,0.0
1504,71.0,0,90,13.0,0.0
1505,71.0,0,90,9.0,0.0
1506,71.0,0,90,3.0,0.0
1507,53.0,0,90,13.0,0.0
1508,74.0,0,90,8.0,0.0
1509,62.0,0,90,13.0,0.0
1510,85.0,24,20,6.0,0.0
1511,53.0,0,40,11.0,0.0
1512,86.0,15,20,6.0,0.0
1513,41.0,0,40,12.0,0.0
1514,53.0,3,40,5.0,0.0
1515,83.0,24,20,6.0,0.0
1516,76.0,0,40,3.0,0.0
1517,67.0,0,90,13.0,0.0
1518,52.0,6,90,13.0,0.0
1519,40.0,3,40,12.0,0.0
1520,84.0,0,40,7.0,0.0
1521,60.0,0,90,13.0,0.0
1522,76.0,0,90,8.0,0.0
1523,67.0,0,40,4.0,0.0
1524,52.0,0,40,11.0,0.0
1525,67.0,0,90,9.0,0.0
1526,79.0,21,120,2.0,0.0
1527,52.0,0,40,5.0,0.0
1528,84.0,21,20,6.0,0.0
1529,81.0,24,20,6.0,0.0
1530,73.0,0,40,3.0,0.0
1531,82.0,15,20,6.0,0.0
1532,82.0,0,40,7.0,0.0
1533,40.0,3,40,12.0,0.0
1534,64.0,0,40,4.0,0.0
1535,52.0,0,40,11.0,0.0
1536,52.0,0,40,5.0,0.0
1537,80.0,24,20,6.0,0.0
1538,50.0,0,40,11.0,0.0
1539,81.0,0,150,7.0,0.0
1540,69.0,0,90,4.0,0.0
1541,38.0,0,40,12.0,0.0
1542,74.0,0,90,9.0,0.0
1543,50.0,0,40,5.0,0.0
1544,65.0,0,90,13.0,0.0
1545,50.0,0,90,13.0,0.0
1546,81.0,3,150,6.0,0.0
1547,69.0,6,90,8.0,0.0
1548,74.0,3,40,3.0,0.0
1549,69.0,0,90,13.0,0.0
1550,76.0,24,20,2.0,0.0
1551,38.0,3,40,12.0,0.0
1552,50.0,0,40,5.0,0.0
1553,77.0,15,20,2.0,0.0
1554,69.0,0,40,3.0,0.0
1555,50.0,0,40,11.0,0.0
1556,74.0,24,20,2.0,0.0
1557,43.0,0,40,12.0,0.0
1558,55.0,0,90,13.0,0.0
1559,70.0,0,90,13.0,0.0
1560,55.0,0,40,5.0,0.0
1561,55.0,0,40,11.0,0.0
1562,67.0,0,40,4.0,0.0
1563,70.0,0,90,9.0,0.0
1564,70.0,0,40,3.0,0.0
1565,62.0,0,90,13.0,0.0
1566,67.0,6,90,8.0,0.0
1567,75.0,21,20,2.0,0.0
1568,73.0,24,20,2.0,0.0
1569,43.0,0,40,12.0,0.0
1570,55.0,0,40,5.0,0.0
1571,74.0,15,20,2.0,0.0
1572,55.0,0,40,11.0,0.0
1573,74.0,3,40,3.0,0.0
1574,82.0,0,40,6.0,0.0
1575,65.0,0,40,4.0,0.0
1576,82.0,0,40,7.0,0.0
1577,76.0,8,20,2.0,0.0
1578,72.0,0,90,13.0,0.0
1579,64.0,0,90,13.0,0.0
1580,77.0,0,15,6.0,0.0
1581,57.0,0,90,13.0,0.0
1582,69.0,5,90,9.0,0.0
1583,69.0,0,90,3.0,0.0
1584,57.0,5,40,5.0,0.0
1585,45.0,0,40,12.0,0.0
1586,77.0,0,15,7.0,0.0
1587,67.0,0,90,8.0,0.0
1588,64.0,0,90,4.0,0.0
1589,74.0,6,15,2.0,0.0
1590,57.0,0,40,11.0,0.0
1591,76.0,0,15,7.0,0.0
1592,76.0,6,15,6.0,0.0
1593,73.0,0,15,2.0,0.0
1594,74.0,0,15,2.0,0.0
1595,77.0,0,15,6.0,0.0
1596,77.0,6,15,7.0,0.0
1597,73.0,0,15,2.0,0.0
1598,76.0,0,15,6.0,0.0
1599,76.0,6,15,7.0,0.0
1600,77.0,0,15,6.0,0.0
1601,74.0,0,15,2.0,0.0
1602,77.0,6,15,7.0,0.0
1603,76.0,0,15,7.0,0.0
1604,73.0,6,15,2.0,0.0
1605,76.0,0,15,6.0,0.0
1606,77.0,0,15,7.0,0.0
1607,77.0,0,15,6.0,0.0
1608,74.0,1,15,2.0,0.0
1609,73.0,0,15,2.0,0.0
1610,76.0,0,15,7.0,0.0
1611,76.0,6,15,6.0,0.0
1612,74.0,0,15,2.0,0.0
1613,57.0,5,40,5.0,0.0
1614,45.0,0,40,12.0,0.0
1615,77.0,6,15,7.0,0.0
1616,77.0,0,15,6.0,0.0
1617,57.0,0,40,11.0,0.0
1618,73.0,0,15,2.0,0.0
1619,76.0,0,15,7.0,0.0
1620,76.0,6,15,6.0,0.0
1621,77.0,0,15,6.0,0.0
1622,74.0,0,15,2.0,0.0
1623,77.0,6,15,7.0,0.0
1624,76.0,6,15,7.0,0.0
1625,76.0,0,15,6.0,0.0
1626,73.0,0,15,2.0,0.0
1627,77.0,0,15,7.0,0.0
1628,74.0,0,15,2.0,0.0
1629,77.0,6,15,6.0,0.0
1630,73.0,0,15,2.0,0.0
1631,76.0,0,15,7.0,0.0
1632,76.0,1,15,6.0,0.0
1633,77.0,0,15,7.0,0.0
1634,74.0,0,15,2.0,0.0
1635,77.0,1,15,6.0,0.0
1636,73.0,0,15,2.0,0.0
1637,76.0,6,15,6.0,0.0
1638,76.0,0,15,7.0,0.0
1639,33.0,0,40,12.0,0.0
1640,64.0,0,90,13.0,0.0
1641,45.0,6,90,13.0,0.0
1642,72.0,0,90,13.0,0.0
1643,77.0,6,15,6.0,0.0
1644,69.0,0,90,9.0,0.0
1645,74.0,0,15,2.0,0.0
1646,69.0,0,90,3.0,0.0
1647,77.0,0,15,7.0,0.0
1648,67.0,0,90,8.0,0.0
1649,45.0,5,40,11.0,0.0
1650,64.0,0,90,4.0,0.0
1651,45.0,0,40,5.0,0.0
1652,76.0,0,15,7.0,0.0
1653,76.0,0,15,6.0,0.0
1654,73.0,6,15,2.0,0.0
1655,77.0,0,15,6.0,0.0
1656,77.0,6,15,7.0,0.0
1657,74.0,0,15,2.0,0.0
1658,76.0,0,15,6.0,0.0
1659,76.0,0,15,7.0,0.0
1660,73.0,6,15,2.0,0.0
1661,74.0,0,15,2.0,0.0
1662,77.0,0,15,7.0,0.0
1663,77.0,6,15,6.0,0.0
1664,73.0,6,15,2.0,0.0
1665,76.0,0,15,7.0,0.0
1666,76.0,0,15,6.0,0.0
1667,77.0,0,15,6.0,0.0
1668,74.0,1,15,2.0,0.0
1669,77.0,0,15,7.0,0.0
1670,76.0,0,15,6.0,0.0
1671,76.0,37,15,7.0,0.0
1672,73.0,0,15,2.0,0.0
1673,45.0,0,40,5.0,0.0
1674,45.0,0,40,11.0,0.0
1675,74.0,0,40,2.0,0.0
1676,33.0,48,40,12.0,0.0
1677,74.0,0,40,6.0,0.0
1678,74.0,0,40,7.0,0.0
1679,50.0,0,150,5.0,0.0
1680,69.0,0,90,9.0,0.0
1681,74.0,0,90,6.0,0.0
1682,65.0,0,40,4.0,0.0
1683,74.0,42,40,2.0,0.0
1684,38.0,0,150,12.0,0.0
1685,69.0,0,40,3.0,0.0
1686,50.0,6,90,13.0,0.0
1687,74.0,0,90,7.0,0.0
1688,65.0,0,90,13.0,0.0
1689,69.0,0,90,13.0,0.0
1690,38.0,0,90,13.0,0.0
1691,50.0,0,150,11.0,0.0
1692,65.0,0,90,8.0,0.0
1693,73.0,0,40,2.0,0.0
1694,67.0,0,40,3.0,0.0
1695,64.0,48,40,4.0,0.0
1696,69.0,6,90,3.0,0.0
1697,77.0,0,40,7.0,0.0
1698,77.0,0,40,6.0,0.0
1699,74.0,0,40,8.0,0.0
1700,69.0,27,40,9.0,0.0
1701,74.0,0,90,2.0,0.0
1702,65.0,0,90,4.0,0.0
1703,51.0,0,20,11.0,0.0
1704,76.0,0,40,6.0,0.0
1705,73.0,0,40,8.0,0.0
1706,39.0,0,20,12.0,0.0
1707,76.0,0,40,7.0,0.0
1708,51.0,15,20,5.0,0.0
1709,67.0,3,40,9.0,0.0
1710,50.0,0,20,5.0,0.0
1711,50.0,0,20,11.0,0.0
1712,38.0,24,20,12.0,0.0
1713,36.0,0,20,12.0,0.0
1714,77.0,0,90,7.0,0.0
1715,69.0,10,90,9.0,0.0
1716,77.0,0,90,6.0,0.0
1717,48.0,0,20,11.0,0.0
1718,48.0,24,20,5.0,0.0
1719,74.0,0,90,8.0,0.0
1720,34.0,0,20,12.0,0.0
1721,46.0,0,20,5.0,0.0
1722,46.0,24,20,11.0,0.0
1723,33.0,0,20,12.0,0.0
1724,45.0,0,20,5.0,0.0
1725,45.0,13,20,11.0,0.0
1726,36.0,0,15,12.0,0.0
1727,48.0,0,15,11.0,0.0
1728,48.0,2,15,5.0,0.0
1729,46.0,44,15,11.0,0.0
1730,46.0,0,15,5.0,0.0
1731,34.0,0,15,12.0,0.0
1732,48.0,0,90,13.0,0.0
1733,66.0,0,40,4.0,0.0
1734,74.0,0,40,2.0,0.0
1735,48.0,0,150,11.0,0.0
1736,66.0,6,90,13.0,0.0
1737,69.0,0,90,13.0,0.0
1738,36.0,0,90,13.0,0.0
1739,36.0,27,150,12.0,0.0
1740,48.0,0,150,5.0,0.0
1741,69.0,42,40,3.0,0.0
1742,67.0,0,40,3.0,0.0
1743,64.0,48,40,4.0,0.0
1744,72.0,0,40,2.0,0.0
1745,69.0,0,40,9.0,0.0
1746,74.0,0,40,8.0,0.0
1747,78.0,0,40,7.0,0.0
1748,66.0,6,90,4.0,0.0
1749,69.0,0,90,3.0,0.0
1750,74.0,0,90,2.0,0.0
1751,78.0,0,40,6.0,0.0
1752,50.0,0,20,5.0,0.0
1753,76.0,0,40,6.0,0.0
1754,72.0,0,40,8.0,0.0
1755,38.0,15,20,12.0,0.0
1756,76.0,3,40,7.0,0.0
1757,67.0,0,40,9.0,0.0
1758,50.0,0,20,11.0,0.0
1759,39.0,0,20,12.0,0.0
1760,51.0,24,20,11.0,0.0
1761,51.0,0,20,5.0,0.0
1762,69.0,0,90,9.0,0.0
1763,50.0,0,20,11.0,0.0
1764,78.0,10,90,7.0,0.0
1765,50.0,0,20,5.0,0.0
1766,38.0,24,20,12.0,0.0
1767,74.0,0,90,8.0,0.0
1768,78.0,0,90,6.0,0.0
1769,48.0,0,20,11.0,0.0
1770,48.0,0,20,5.0,0.0
1771,36.0,24,20,12.0,0.0
1772,34.0,0,20,12.0,0.0
1773,46.0,0,20,5.0,0.0
1774,46.0,13,20,11.0,0.0
1775,36.0,2,15,12.0,0.0
1776,48.0,0,15,11.0,0.0
1777,48.0,0,15,5.0,0.0
1778,45.0,0,15,11.0,0.0
1779,45.0,44,15,5.0,0.0
1780,33.0,0,15,12.0,0.0
1781,46.0,0,120,11.0,0.0
1782,62.0,6,90,13.0,0.0
1783,70.0,0,90,13.0,0.0
1784,34.0,0,120,12.0,0.0
1785,67.0,0,40,4.0,0.0
1786,34.0,0,90,13.0,0.0
1787,46.0,21,120,5.0,0.0
1788,74.0,0,40,2.0,0.0
1789,70.0,42,40,3.0,0.0
1790,46.0,0,90,13.0,0.0
1791,69.0,0,40,3.0,0.0
1792,66.0,27,40,4.0,0.0
1793,72.0,0,40,2.0,0.0
1794,70.0,0,90,3.0,0.0
1795,74.0,0,90,2.0,0.0
1796,74.0,0,40,8.0,0.0
1797,67.0,6,90,4.0,0.0
1798,70.0,0,40,9.0,0.0
1799,79.0,0,40,7.0,0.0
1800,79.0,3,40,6.0,0.0
1801,36.0,0,20,12.0,0.0
1802,48.0,24,20,11.0,0.0
1803,48.0,0,20,5.0,0.0
1804,78.0,0,40,7.0,0.0
1805,78.0,0,40,6.0,0.0
1806,72.0,0,40,8.0,0.0
1807,34.0,0,20,12.0,0.0
1808,69.0,3,40,9.0,0.0
1809,46.0,15,20,11.0,0.0
1810,46.0,0,20,5.0,0.0
1811,45.0,0,20,5.0,0.0
1812,45.0,0,20,11.0,0.0
1813,33.0,24,20,12.0,0.0
1814,31.0,0,20,12.0,0.0
1815,79.0,0,90,7.0,0.0
1816,43.0,0,20,5.0,0.0
1817,79.0,9,90,6.0,0.0
1818,74.0,0,90,8.0,0.0
1819,70.0,0,90,9.0,0.0
1820,43.0,24,20,11.0,0.0
1821,33.0,0,20,12.0,0.0
1822,45.0,0,20,5.0,0.0
1823,45.0,24,20,11.0,0.0
1824,42.0,15,20,11.0,0.0
1825,42.0,0,20,5.0,0.0
1826,30.0,0,20,12.0,0.0
1827,31.0,0,20,12.0,0.0
1828,43.0,0,20,5.0,0.0
1829,43.0,109,20,11.0,0.0
1830,37.0,0,180,5.0,0.0
1831,82.0,12,120,2.0,0.0
1832,64.0,10,180,13.0,0.0
1833,64.0,0,180,4.0,0.0
1834,70.0,0,180,13.0,0.0
1835,37.0,0,180,13.0,0.0
1836,37.0,0,180,11.0,0.0
1837,67.0,0,180,3.0,0.0
1838,70.0,0,180,9.0,0.0
1839,79.0,0,180,7.0,0.0
1840,76.0,0,180,8.0,0.0
1841,25.0,0,180,12.0,0.0
1842,79.0,0,180,6.0,0.0
1843,67.0,0,180,13.0,0.0
1844,81.0,12,15,2.0,0.0
1845,79.0,12,15,2.0,0.0
1846,77.0,12,15,2.0,0.0
1847,76.0,12,15,2.0,0.0
1848,74.0,12,15,2.0,0.0
1849,73.0,2,15,2.0,0.0
1850,74.0,12,15,2.0,0.0
1851,76.0,12,15,2.0,0.0
1852,69.0,12,15,2.0,0.0
1853,71.0,12,15,2.0,0.0
1854,73.0,12,15,2.0,0.0
1855,74.0,12,15,2.0,0.0
1856,76.0,12,15,2.0,0.0
1857,77.0,7,15,2.0,0.0
1858,79.0,6,15,2.0,0.0
1859,76.0,43,15,2.0,0.0
1860,69.0,0,40,4.0,0.0
1861,26.0,0,40,12.0,0.0
1862,74.0,0,40,3.0,0.0
1863,65.0,21,40,8.0,0.0
1864,38.0,6,90,13.0,0.0
1865,74.0,0,90,13.0,0.0
1866,69.0,21,60,6.0,0.0
1867,62.0,0,40,9.0,0.0
1868,65.0,0,90,13.0,0.0
1869,38.0,0,40,5.0,0.0
1870,69.0,0,60,7.0,0.0
1871,38.0,0,40,11.0,0.0
1872,77.0,0,60,2.0,0.0
1873,70.0,0,40,3.0,0.0
1874,67.0,0,40,4.0,0.0
1875,62.0,3,40,9.0,0.0
1876,64.0,0,40,8.0,0.0
1877,43.0,0,40,11.0,0.0
1878,31.0,0,40,12.0,0.0
1879,43.0,0,40,5.0,0.0
1880,79.0,45,20,2.0,0.0
1881,70.0,0,20,7.0,0.0
1882,70.0,0,20,6.0,0.0
1883,65.0,0,90,7.0,0.0
1884,65.0,0,90,13.0,0.0
1885,74.0,0,90,13.0,0.0
1886,45.0,0,90,13.0,0.0
1887,45.0,0,40,11.0,0.0
1888,65.0,0,90,6.0,0.0
1889,65.0,0,40,8.0,0.0
1890,33.0,0,40,12.0,0.0
1891,45.0,0,40,5.0,0.0
1892,65.0,42,40,4.0,0.0
1893,69.0,6,90,3.0,0.0
1894,57.0,0,40,9.0,0.0
1895,73.0,5,120,2.0,0.0
1896,33.0,0,40,12.0,0.0
1897,45.0,0,40,11.0,0.0
1898,59.0,0,40,9.0,0.0
1899,67.0,0,40,8.0,0.0
1900,45.0,11,40,5.0,0.0
1901,62.0,0,40,4.0,0.0
1902,45.0,0,40,11.0,0.0
1903,64.0,5,90,13.0,0.0
1904,69.0,6,15,3.0,0.0
1905,45.0,0,90,13.0,0.0
1906,64.0,2,60,7.0,0.0
1907,65.0,0,15,6.0,0.0
1908,73.0,0,90,13.0,0.0
1909,69.0,0,90,8.0,0.0
1910,45.0,0,40,5.0,0.0
1911,33.0,5,40,12.0,0.0
1912,64.0,0,90,4.0,0.0
1913,61.0,0,90,9.0,0.0
1914,67.0,6,15,3.0,0.0
1915,64.0,0,15,6.0,0.0
1916,65.0,0,15,6.0,0.0
1917,69.0,6,15,3.0,0.0
1918,67.0,0,15,3.0,0.0
1919,64.0,6,15,6.0,0.0
1920,69.0,0,15,3.0,0.0
1921,65.0,6,15,6.0,0.0
1922,64.0,1,15,6.0,0.0
1923,67.0,0,15,3.0,0.0
1924,65.0,0,15,6.0,0.0
1925,69.0,1,15,3.0,0.0
1926,64.0,6,15,6.0,0.0
1927,67.0,0,15,3.0,0.0
1928,65.0,0,15,6.0,0.0
1929,45.0,3,40,11.0,0.0
1930,33.0,0,40,12.0,0.0
1931,74.0,0,40,2.0,0.0
1932,45.0,0,40,5.0,0.0
1933,69.0,6,15,3.0,0.0
1934,64.0,0,15,6.0,0.0
1935,67.0,4,15,3.0,0.0
1936,65.0,0,15,6.0,0.0
1937,69.0,6,15,3.0,0.0
1938,64.0,6,15,6.0,0.0
1939,67.0,0,15,3.0,0.0
1940,69.0,6,15,3.0,0.0
1941,62.0,0,20,6.0,0.0
1942,62.0,2,20,7.0,0.0
1943,67.0,1,15,3.0,0.0
1944,69.0,1,15,3.0,0.0
1945,67.0,85,15,3.0,0.0
1946,50.0,0,90,5.0,0.0
1947,50.0,96,90,13.0,0.0
1948,38.0,0,90,12.0,0.0
1949,62.0,0,90,13.0,0.0
1950,50.0,0,90,11.0,0.0
1951,70.0,96,90,2.0,0.0
1952,62.0,0,90,4.0,0.0
1953,65.0,0,90,3.0,0.0
1954,68.0,0,90,7.0,0.0
1955,59.0,0,90,9.0,0.0
1956,64.0,96,90,8.0,0.0
1957,68.0,0,90,6.0,0.0
1958,60.0,0,90,13.0,0.0
1959,48.0,96,90,11.0,0.0
1960,36.0,0,90,12.0,0.0
1961,48.0,0,90,13.0,0.0
1962,48.0,0,90,5.0,0.0
1963,64.0,0,90,3.0,0.0
1964,69.0,96,90,2.0,0.0
1965,60.0,0,90,4.0,0.0
1966,78.0,0,90,6.0,0.0
1967,75.0,0,90,8.0,0.0
1968,78.0,96,90,7.0,0.0
1969,69.0,0,90,9.0,0.0
1970,46.0,0,90,13.0,0.0
1971,58.0,96,90,13.0,0.0
1972,46.0,0,90,5.0,0.0
1973,46.0,0,90,11.0,0.0
1974,34.0,0,90,12.0,0.0
1975,70.0,0,90,4.0,0.0
1976,74.0,54,90,2.0,0.0
1977,67.0,0,90,3.0,0.0
1978,77.0,42,40,8.0,0.0
1979,80.0,0,90,6.0,0.0
1980,74.0,6,90,9.0,0.0
1981,80.0,0,90,7.0,0.0
1982,76.0,282,40,8.0,0.0
1983,81.0,0,270,6.0,0.0
1984,69.0,0,270,3.0,0.0
1985,64.0,0,270,4.0,0.0
1986,45.0,0,270,13.0,0.0
1987,73.0,0,270,13.0,0.0
1988,73.0,0,270,9.0,0.0
1989,33.0,0,270,12.0,0.0
1990,45.0,0,270,11.0,0.0
1991,73.0,0,270,2.0,0.0
1992,45.0,0,270,5.0,0.0
1993,64.0,0,270,13.0,0.0
1994,81.0,0,270,7.0,0.0
1995,76.0,0,270,8.0,0.0
