,note,step,duration,channel,velocity
0,78.0,8,60,4.0,0.0
1,74.0,0,90,5.0,0.0
2,69.0,0,90,6.0,0.0
3,50.0,45,60,3.0,0.0
4,74.0,0,90,1.0,0.0
5,69.0,0,60,2.0,0.0
6,69.0,7,90,12.0,0.0
7,62.0,0,60,14.0,0.0
8,62.0,0,60,13.0,0.0
9,62.0,0,60,7.0,0.0
10,78.0,0,60,10.0,0.0
11,74.0,0,90,11.0,0.0
12,78.0,0,60,0.0,0.0
13,76.0,8,60,4.0,0.0
14,61.0,0,60,7.0,0.0
15,61.0,0,60,13.0,0.0
16,50.0,90,60,3.0,0.0
17,69.0,0,60,2.0,0.0
18,76.0,0,60,10.0,0.0
19,61.0,0,60,14.0,0.0
20,76.0,0,60,0.0,0.0
21,74.0,15,90,5.0,0.0
22,50.0,90,120,3.0,0.0
23,78.0,0,90,10.0,0.0
24,69.0,0,90,12.0,0.0
25,62.0,0,90,14.0,0.0
26,62.0,15,90,7.0,0.0
27,69.0,0,90,6.0,0.0
28,78.0,0,90,0.0,0.0
29,62.0,0,90,13.0,0.0
30,74.0,0,90,1.0,0.0
31,78.0,0,90,4.0,0.0
32,74.0,0,90,11.0,0.0
33,69.0,0,120,2.0,0.0
34,79.0,0,90,4.0,0.0
35,76.0,0,90,1.0,0.0
36,71.0,0,90,12.0,0.0
37,79.0,0,90,0.0,0.0
38,55.0,45,90,14.0,0.0
39,71.0,0,90,6.0,0.0
40,76.0,0,90,5.0,0.0
41,76.0,0,90,11.0,0.0
42,55.0,0,90,13.0,0.0
43,79.0,0,90,10.0,0.0
44,55.0,15,90,7.0,0.0
45,57.0,0,90,14.0,0.0
46,69.0,0,90,1.0,0.0
47,73.0,0,90,11.0,0.0
48,69.0,0,90,12.0,0.0
49,76.0,0,30,4.0,0.0
50,69.0,15,90,6.0,0.0
51,57.0,0,90,13.0,0.0
52,73.0,0,90,5.0,0.0
53,57.0,15,90,7.0,0.0
54,76.0,0,90,0.0,0.0
55,76.0,30,30,10.0,0.0
56,78.0,0,30,4.0,0.0
57,78.0,30,30,10.0,0.0
58,74.0,0,30,4.0,0.0
59,74.0,0,30,10.0,0.0
60,76.0,52,30,10.0,0.0
61,76.0,0,30,4.0,0.0
62,69.0,0,90,5.0,0.0
63,52.0,0,90,13.0,0.0
64,74.0,0,60,10.0,0.0
65,69.0,0,210,1.0,0.0
66,74.0,38,60,4.0,0.0
67,67.0,0,90,6.0,0.0
68,74.0,0,60,0.0,0.0
69,52.0,0,90,14.0,0.0
70,69.0,0,90,11.0,0.0
71,52.0,15,90,7.0,0.0
72,67.0,7,90,12.0,0.0
73,73.0,60,60,10.0,0.0
74,73.0,0,60,4.0,0.0
75,73.0,0,60,0.0,0.0
76,69.0,0,90,5.0,0.0
77,74.0,0,60,0.0,0.0
78,74.0,53,60,10.0,0.0
79,54.0,7,90,13.0,0.0
80,66.0,0,90,6.0,0.0
81,74.0,0,60,4.0,0.0
82,66.0,0,90,12.0,0.0
83,54.0,0,90,14.0,0.0
84,69.0,0,90,11.0,0.0
85,54.0,0,90,7.0,0.0
86,76.0,0,60,4.0,0.0
87,76.0,0,60,10.0,0.0
88,76.0,60,60,0.0,0.0
89,50.0,0,60,13.0,0.0
90,78.0,0,60,0.0,0.0
91,78.0,0,60,4.0,0.0
92,62.0,7,90,2.0,0.0
93,69.0,0,90,6.0,0.0
94,50.0,0,60,7.0,0.0
95,78.0,0,60,10.0,0.0
96,50.0,0,60,14.0,0.0
97,69.0,0,90,1.0,0.0
98,69.0,0,90,12.0,0.0
99,74.0,8,60,11.0,0.0
100,74.0,0,60,5.0,0.0
101,50.0,45,60,3.0,0.0
102,52.0,0,60,7.0,0.0
103,52.0,8,60,14.0,0.0
104,52.0,0,60,13.0,0.0
105,73.0,0,60,5.0,0.0
106,79.0,0,60,4.0,0.0
107,79.0,0,60,10.0,0.0
108,50.0,90,60,3.0,0.0
109,73.0,0,60,11.0,0.0
110,79.0,0,60,0.0,0.0
111,69.0,0,90,2.0,0.0
112,74.0,0,90,1.0,0.0
113,81.0,15,90,10.0,0.0
114,50.0,90,120,3.0,0.0
115,69.0,0,90,6.0,0.0
116,74.0,0,90,11.0,0.0
117,69.0,15,90,12.0,0.0
118,54.0,0,90,14.0,0.0
119,54.0,0,90,7.0,0.0
120,74.0,0,90,5.0,0.0
121,81.0,0,90,0.0,0.0
122,54.0,0,90,13.0,0.0
123,81.0,0,90,4.0,0.0
124,55.0,0,90,13.0,0.0
125,62.0,0,90,2.0,0.0
126,83.0,15,90,10.0,0.0
127,71.0,0,90,5.0,0.0
128,71.0,0,90,11.0,0.0
129,50.0,30,120,3.0,0.0
130,55.0,0,90,14.0,0.0
131,62.0,15,90,6.0,0.0
132,79.0,0,90,1.0,0.0
133,83.0,0,90,0.0,0.0
134,67.0,0,90,12.0,0.0
135,55.0,0,90,7.0,0.0
136,83.0,0,90,4.0,0.0
137,79.0,30,30,10.0,0.0
138,57.0,0,90,14.0,0.0
139,73.0,0,90,11.0,0.0
140,79.0,0,90,0.0,0.0
141,69.0,0,90,6.0,0.0
142,57.0,0,90,13.0,0.0
143,69.0,15,90,2.0,0.0
144,79.0,0,30,4.0,0.0
145,76.0,0,90,1.0,0.0
146,73.0,0,90,5.0,0.0
147,57.0,0,90,7.0,0.0
148,64.0,0,90,12.0,0.0
149,45.0,0,120,3.0,0.0
150,81.0,0,30,4.0,0.0
151,81.0,30,30,10.0,0.0
152,78.0,0,30,4.0,0.0
153,78.0,15,30,10.0,0.0
154,79.0,0,30,4.0,0.0
155,79.0,52,30,10.0,0.0
156,78.0,0,210,10.0,0.0
157,62.0,0,60,14.0,0.0
158,74.0,0,210,11.0,0.0
159,78.0,0,210,4.0,0.0
160,69.0,0,240,2.0,0.0
161,69.0,0,210,6.0,0.0
162,62.0,60,60,13.0,0.0
163,78.0,0,240,0.0,0.0
164,74.0,0,210,5.0,0.0
165,74.0,0,240,1.0,0.0
166,62.0,0,60,7.0,0.0
167,50.0,52,240,3.0,0.0
168,62.0,0,210,12.0,0.0
169,61.0,98,60,14.0,0.0
170,61.0,0,60,13.0,0.0
171,61.0,0,60,7.0,0.0
172,62.0,0,90,13.0,0.0
173,62.0,15,90,7.0,0.0
174,62.0,15,90,14.0,0.0
175,76.0,0,60,10.0,0.0
176,76.0,38,60,4.0,0.0
177,62.0,0,90,12.0,0.0
178,59.0,15,90,7.0,0.0
179,59.0,0,90,14.0,0.0
180,68.0,0,90,5.0,0.0
181,71.0,7,90,6.0,0.0
182,59.0,0,90,13.0,0.0
183,68.0,0,90,11.0,0.0
184,74.0,60,60,4.0,0.0
185,74.0,0,60,10.0,0.0
186,69.0,0,90,11.0,0.0
187,76.0,0,60,10.0,0.0
188,61.0,0,90,12.0,0.0
189,61.0,0,90,7.0,0.0
190,61.0,0,90,14.0,0.0
191,61.0,0,90,13.0,0.0
192,64.0,0,90,6.0,0.0
193,69.0,7,90,5.0,0.0
194,76.0,53,60,4.0,0.0
195,78.0,0,60,4.0,0.0
196,78.0,113,60,10.0,0.0
197,57.0,0,90,7.0,0.0
198,57.0,0,90,13.0,0.0
199,78.0,0,120,10.0,0.0
200,57.0,0,90,14.0,0.0
201,69.0,0,90,12.0,0.0
202,69.0,0,90,6.0,0.0
203,73.0,15,90,5.0,0.0
204,78.0,30,120,4.0,0.0
205,73.0,0,90,11.0,0.0
206,71.0,0,90,11.0,0.0
207,74.0,0,30,10.0,0.0
208,59.0,0,90,7.0,0.0
209,59.0,0,90,14.0,0.0
210,66.0,0,90,12.0,0.0
211,59.0,0,90,13.0,0.0
212,74.0,30,30,4.0,0.0
213,66.0,15,90,6.0,0.0
214,71.0,0,90,5.0,0.0
215,76.0,30,30,4.0,0.0
216,76.0,0,30,10.0,0.0
217,73.0,0,30,4.0,0.0
218,73.0,15,30,10.0,0.0
219,74.0,0,30,10.0,0.0
220,74.0,60,30,4.0,0.0
221,64.0,0,90,11.0,0.0
222,73.0,45,60,10.0,0.0
223,56.0,0,90,13.0,0.0
224,73.0,0,60,4.0,0.0
225,64.0,0,90,5.0,0.0
226,64.0,0,90,6.0,0.0
227,56.0,7,90,7.0,0.0
228,64.0,0,90,12.0,0.0
229,56.0,0,90,14.0,0.0
230,71.0,0,60,4.0,0.0
231,71.0,60,60,10.0,0.0
232,64.0,0,90,6.0,0.0
233,57.0,0,90,14.0,0.0
234,64.0,0,90,12.0,0.0
235,73.0,0,60,10.0,0.0
236,73.0,53,60,4.0,0.0
237,57.0,0,90,13.0,0.0
238,69.0,0,90,11.0,0.0
239,57.0,7,90,7.0,0.0
240,69.0,0,90,5.0,0.0
241,74.0,60,60,10.0,0.0
242,74.0,0,60,4.0,0.0
243,69.0,0,90,5.0,0.0
244,64.0,0,90,12.0,0.0
245,64.0,0,90,6.0,0.0
246,76.0,53,60,4.0,0.0
247,49.0,7,90,7.0,0.0
248,49.0,0,90,13.0,0.0
249,69.0,0,90,11.0,0.0
250,49.0,0,90,14.0,0.0
251,76.0,0,60,10.0,0.0
252,78.0,98,60,10.0,0.0
253,78.0,0,60,4.0,0.0
254,47.0,0,90,14.0,0.0
255,64.0,0,90,6.0,0.0
256,80.0,15,90,10.0,0.0
257,47.0,0,90,13.0,0.0
258,74.0,0,90,5.0,0.0
259,80.0,0,90,4.0,0.0
260,64.0,105,90,12.0,0.0
261,47.0,0,90,7.0,0.0
262,74.0,0,90,11.0,0.0
263,45.0,0,90,14.0,0.0
264,64.0,0,90,6.0,0.0
265,73.0,0,90,5.0,0.0
266,81.0,0,90,10.0,0.0
267,64.0,0,90,12.0,0.0
268,45.0,45,90,7.0,0.0
269,81.0,15,90,4.0,0.0
270,45.0,0,90,13.0,0.0
271,73.0,0,90,11.0,0.0
272,71.0,30,30,4.0,0.0
273,71.0,15,90,5.0,0.0
274,66.0,0,90,12.0,0.0
275,50.0,0,90,7.0,0.0
276,50.0,0,90,14.0,0.0
277,71.0,0,30,10.0,0.0
278,66.0,0,90,6.0,0.0
279,71.0,0,90,11.0,0.0
280,50.0,0,90,13.0,0.0
281,73.0,0,30,10.0,0.0
282,73.0,30,30,4.0,0.0
283,69.0,0,30,4.0,0.0
284,69.0,15,30,10.0,0.0
285,71.0,0,30,10.0,0.0
286,71.0,52,30,4.0,0.0
287,52.0,0,90,14.0,0.0
288,64.0,0,90,12.0,0.0
289,73.0,0,60,11.0,0.0
290,69.0,0,60,10.0,0.0
291,64.0,7,90,6.0,0.0
292,69.0,0,60,4.0,0.0
293,52.0,0,90,13.0,0.0
294,52.0,0,90,7.0,0.0
295,73.0,53,60,5.0,0.0
296,74.0,0,60,5.0,0.0
297,74.0,60,60,11.0,0.0
298,68.0,0,60,10.0,0.0
299,68.0,0,60,4.0,0.0
300,73.0,0,90,5.0,0.0
301,69.0,0,90,6.0,0.0
302,73.0,0,90,11.0,0.0
303,69.0,0,60,4.0,0.0
304,69.0,53,60,10.0,0.0
305,54.0,0,90,7.0,0.0
306,54.0,0,90,13.0,0.0
307,69.0,7,90,12.0,0.0
308,54.0,0,90,14.0,0.0
309,71.0,0,60,4.0,0.0
310,71.0,60,60,10.0,0.0
311,52.0,0,60,14.0,0.0
312,73.0,53,60,4.0,0.0
313,52.0,0,60,13.0,0.0
314,52.0,0,60,7.0,0.0
315,66.0,0,90,6.0,0.0
316,66.0,0,90,12.0,0.0
317,73.0,0,60,10.0,0.0
318,69.0,7,90,5.0,0.0
319,69.0,0,90,11.0,0.0
320,50.0,0,60,13.0,0.0
321,74.0,0,60,10.0,0.0
322,50.0,0,60,14.0,0.0
323,74.0,0,60,4.0,0.0
324,50.0,98,60,7.0,0.0
325,49.0,0,90,13.0,0.0
326,76.0,15,90,4.0,0.0
327,49.0,0,90,14.0,0.0
328,69.0,0,90,11.0,0.0
329,69.0,0,90,5.0,0.0
330,64.0,105,90,6.0,0.0
331,49.0,0,90,7.0,0.0
332,64.0,0,90,12.0,0.0
333,76.0,0,90,10.0,0.0
334,74.0,0,90,5.0,0.0
335,74.0,0,90,11.0,0.0
336,78.0,15,90,4.0,0.0
337,50.0,0,90,7.0,0.0
338,78.0,0,90,10.0,0.0
339,50.0,0,90,13.0,0.0
340,69.0,0,90,6.0,0.0
341,69.0,45,90,12.0,0.0
342,50.0,0,90,14.0,0.0
343,52.0,0,240,14.0,0.0
344,64.0,0,240,6.0,0.0
345,71.0,0,240,5.0,0.0
346,52.0,0,240,7.0,0.0
347,52.0,172,240,13.0,0.0
348,68.0,0,30,10.0,0.0
349,64.0,0,240,12.0,0.0
350,68.0,30,30,4.0,0.0
351,71.0,0,240,11.0,0.0
352,69.0,0,30,10.0,0.0
353,69.0,30,30,4.0,0.0
354,66.0,0,30,10.0,0.0
355,66.0,30,30,4.0,0.0
356,68.0,0,30,4.0,0.0
357,68.0,52,30,10.0,0.0
358,66.0,0,60,10.0,0.0
359,66.0,60,60,4.0,0.0
360,64.0,8,60,10.0,0.0
361,64.0,0,60,4.0,0.0
362,74.0,45,180,10.0,0.0
363,74.0,0,180,4.0,0.0
364,71.0,0,90,11.0,0.0
365,64.0,0,90,12.0,0.0
366,57.0,0,60,14.0,0.0
367,64.0,0,90,6.0,0.0
368,57.0,0,60,13.0,0.0
369,71.0,7,90,5.0,0.0
370,57.0,8,60,7.0,0.0
371,56.0,0,60,7.0,0.0
372,56.0,0,60,13.0,0.0
373,56.0,113,60,14.0,0.0
374,73.0,0,180,4.0,0.0
375,57.0,0,90,7.0,0.0
376,64.0,0,90,12.0,0.0
377,73.0,0,90,5.0,0.0
378,73.0,75,90,11.0,0.0
379,73.0,45,180,10.0,0.0
380,57.0,0,90,14.0,0.0
381,64.0,0,90,6.0,0.0
382,57.0,0,90,13.0,0.0
383,64.0,0,90,6.0,0.0
384,74.0,0,90,11.0,0.0
385,59.0,0,90,14.0,0.0
386,59.0,0,90,13.0,0.0
387,64.0,45,90,12.0,0.0
388,59.0,0,90,7.0,0.0
389,74.0,0,90,5.0,0.0
390,56.0,0,30,13.0,0.0
391,71.0,0,240,11.0,0.0
392,56.0,0,30,7.0,0.0
393,64.0,0,240,6.0,0.0
394,71.0,0,240,5.0,0.0
395,56.0,30,30,14.0,0.0
396,64.0,30,240,12.0,0.0
397,57.0,0,30,13.0,0.0
398,57.0,30,30,7.0,0.0
399,57.0,0,30,14.0,0.0
400,54.0,0,30,7.0,0.0
401,54.0,30,30,13.0,0.0
402,54.0,0,30,14.0,0.0
403,56.0,0,30,14.0,0.0
404,56.0,0,30,7.0,0.0
405,56.0,52,30,13.0,0.0
406,74.0,0,90,10.0,0.0
407,74.0,7,90,4.0,0.0
408,54.0,0,60,7.0,0.0
409,54.0,53,60,14.0,0.0
410,54.0,0,60,13.0,0.0
411,52.0,8,60,13.0,0.0
412,52.0,0,60,7.0,0.0
413,52.0,0,60,14.0,0.0
414,71.0,0,30,4.0,0.0
415,64.0,0,180,14.0,0.0
416,64.0,0,180,7.0,0.0
417,64.0,45,180,13.0,0.0
418,71.0,30,30,10.0,0.0
419,73.0,0,30,4.0,0.0
420,73.0,30,30,10.0,0.0
421,69.0,0,30,10.0,0.0
422,69.0,30,30,4.0,0.0
423,71.0,52,30,4.0,0.0
424,71.0,0,30,10.0,0.0
425,64.0,7,90,12.0,0.0
426,71.0,0,90,5.0,0.0
427,71.0,0,90,11.0,0.0
428,69.0,8,60,4.0,0.0
429,64.0,0,90,6.0,0.0
430,69.0,0,60,10.0,0.0
431,68.0,113,60,4.0,0.0
432,68.0,0,60,10.0,0.0
433,62.0,0,180,7.0,0.0
434,71.0,0,90,5.0,0.0
435,66.0,67,90,6.0,0.0
436,66.0,0,90,12.0,0.0
437,71.0,0,90,11.0,0.0
438,62.0,45,180,13.0,0.0
439,78.0,0,180,10.0,0.0
440,78.0,0,180,4.0,0.0
441,62.0,0,180,14.0,0.0
442,69.0,0,60,11.0,0.0
443,69.0,8,60,5.0,0.0
444,59.0,7,90,12.0,0.0
445,71.0,0,90,6.0,0.0
446,68.0,180,60,5.0,0.0
447,68.0,0,60,11.0,0.0
448,69.0,0,240,5.0,0.0
449,76.0,52,180,4.0,0.0
450,69.0,105,240,11.0,0.0
451,64.0,0,180,12.0,0.0
452,73.0,0,180,6.0,0.0
453,76.0,0,180,10.0,0.0
454,61.0,0,60,14.0,0.0
455,61.0,0,60,13.0,0.0
456,61.0,8,60,7.0,0.0
457,59.0,0,60,13.0,0.0
458,59.0,8,60,7.0,0.0
459,59.0,0,60,14.0,0.0
460,61.0,120,90,7.0,0.0
461,61.0,0,90,14.0,0.0
462,61.0,0,90,13.0,0.0
463,62.0,0,90,13.0,0.0
464,78.0,0,90,4.0,0.0
465,78.0,0,90,10.0,0.0
466,62.0,0,90,14.0,0.0
467,69.0,0,90,5.0,0.0
468,62.0,0,90,12.0,0.0
469,62.0,0,90,7.0,0.0
470,69.0,0,90,11.0,0.0
471,62.0,45,90,6.0,0.0
472,74.0,0,30,4.0,0.0
473,59.0,0,30,7.0,0.0
474,74.0,0,30,10.0,0.0
475,62.0,0,90,12.0,0.0
476,68.0,15,90,5.0,0.0
477,62.0,0,90,6.0,0.0
478,59.0,0,30,14.0,0.0
479,59.0,30,30,13.0,0.0
480,68.0,0,90,11.0,0.0
481,61.0,0,30,13.0,0.0
482,76.0,0,30,4.0,0.0
483,61.0,0,30,7.0,0.0
484,61.0,0,30,14.0,0.0
485,76.0,30,30,10.0,0.0
486,57.0,0,30,14.0,0.0
487,57.0,0,30,13.0,0.0
488,57.0,15,30,7.0,0.0
489,73.0,0,30,4.0,0.0
490,73.0,0,30,10.0,0.0
491,74.0,0,30,4.0,0.0
492,59.0,0,30,13.0,0.0
493,74.0,0,30,10.0,0.0
494,59.0,0,30,14.0,0.0
495,59.0,52,30,7.0,0.0
496,69.0,0,90,11.0,0.0
497,73.0,53,60,10.0,0.0
498,57.0,0,60,13.0,0.0
499,64.0,0,90,12.0,0.0
500,57.0,0,60,14.0,0.0
501,57.0,0,60,7.0,0.0
502,64.0,7,90,6.0,0.0
503,69.0,0,90,5.0,0.0
504,73.0,0,60,4.0,0.0
505,56.0,0,60,14.0,0.0
506,56.0,0,60,13.0,0.0
507,71.0,188,60,10.0,0.0
508,56.0,0,60,7.0,0.0
509,71.0,0,60,4.0,0.0
510,63.0,0,210,14.0,0.0
511,66.0,0,210,6.0,0.0
512,81.0,0,180,4.0,0.0
513,71.0,45,180,11.0,0.0
514,63.0,0,210,13.0,0.0
515,71.0,0,180,5.0,0.0
516,63.0,0,210,7.0,0.0
517,81.0,0,180,10.0,0.0
518,66.0,120,210,12.0,0.0
519,64.0,0,90,14.0,0.0
520,64.0,0,90,12.0,0.0
521,71.0,0,90,5.0,0.0
522,64.0,0,90,6.0,0.0
523,64.0,0,90,7.0,0.0
524,64.0,0,90,13.0,0.0
525,80.0,0,90,4.0,0.0
526,71.0,0,90,11.0,0.0
527,80.0,67,90,10.0,0.0
528,74.0,0,90,11.0,0.0
529,81.0,0,60,10.0,0.0
530,52.0,0,90,7.0,0.0
531,52.0,0,90,13.0,0.0
532,68.0,0,90,6.0,0.0
533,52.0,0,90,14.0,0.0
534,81.0,53,60,4.0,0.0
535,68.0,0,90,12.0,0.0
536,74.0,7,90,5.0,0.0
537,83.0,0,60,10.0,0.0
538,83.0,113,60,4.0,0.0
539,54.0,0,90,7.0,0.0
540,54.0,0,90,13.0,0.0
541,69.0,0,90,12.0,0.0
542,54.0,0,90,14.0,0.0
543,73.0,0,90,5.0,0.0
544,76.0,120,90,4.0,0.0
545,76.0,0,90,10.0,0.0
546,73.0,0,90,11.0,0.0
547,69.0,0,90,6.0,0.0
548,71.0,0,90,11.0,0.0
549,56.0,0,90,14.0,0.0
550,71.0,0,90,12.0,0.0
551,71.0,45,90,5.0,0.0
552,74.0,0,90,4.0,0.0
553,71.0,0,90,6.0,0.0
554,74.0,0,90,10.0,0.0
555,56.0,0,90,7.0,0.0
556,56.0,0,90,13.0,0.0
557,73.0,0,30,10.0,0.0
558,57.0,0,90,14.0,0.0
559,64.0,0,90,12.0,0.0
560,73.0,30,30,4.0,0.0
561,64.0,0,90,6.0,0.0
562,57.0,0,90,7.0,0.0
563,57.0,0,90,13.0,0.0
564,69.0,15,90,11.0,0.0
565,69.0,0,90,5.0,0.0
566,74.0,0,30,10.0,0.0
567,74.0,30,30,4.0,0.0
568,71.0,0,30,4.0,0.0
569,71.0,15,30,10.0,0.0
570,73.0,52,30,4.0,0.0
571,73.0,0,30,10.0,0.0
572,49.0,0,90,7.0,0.0
573,64.0,0,90,11.0,0.0
574,49.0,0,90,13.0,0.0
575,64.0,7,90,6.0,0.0
576,71.0,0,60,4.0,0.0
577,61.0,0,90,12.0,0.0
578,71.0,53,60,10.0,0.0
579,49.0,0,90,14.0,0.0
580,64.0,0,90,5.0,0.0
581,69.0,113,60,10.0,0.0
582,69.0,0,60,4.0,0.0
583,71.0,0,90,6.0,0.0
584,71.0,0,90,10.0,0.0
585,59.0,0,90,12.0,0.0
586,50.0,0,90,14.0,0.0
587,66.0,0,90,5.0,0.0
588,50.0,67,90,7.0,0.0
589,50.0,0,90,13.0,0.0
590,66.0,0,90,11.0,0.0
591,71.0,0,90,4.0,0.0
592,81.0,53,60,10.0,0.0
593,52.0,0,90,13.0,0.0
594,64.0,0,90,5.0,0.0
595,74.0,0,90,6.0,0.0
596,81.0,0,60,4.0,0.0
597,52.0,0,90,14.0,0.0
598,52.0,0,90,7.0,0.0
599,59.0,0,90,12.0,0.0
600,74.0,7,90,11.0,0.0
601,80.0,0,60,10.0,0.0
602,80.0,113,60,4.0,0.0
603,81.0,0,90,10.0,0.0
604,54.0,0,90,14.0,0.0
605,54.0,0,90,7.0,0.0
606,54.0,0,90,13.0,0.0
607,73.0,120,90,11.0,0.0
608,69.0,0,90,5.0,0.0
609,73.0,0,90,6.0,0.0
610,81.0,0,90,4.0,0.0
611,66.0,0,90,12.0,0.0
612,50.0,0,90,7.0,0.0
613,66.0,0,90,6.0,0.0
614,50.0,0,90,14.0,0.0
615,74.0,0,90,11.0,0.0
616,74.0,0,90,5.0,0.0
617,83.0,0,90,4.0,0.0
618,50.0,0,90,13.0,0.0
619,66.0,45,90,12.0,0.0
620,83.0,0,90,10.0,0.0
621,74.0,30,30,4.0,0.0
622,74.0,0,30,10.0,0.0
623,64.0,0,90,6.0,0.0
624,71.0,0,30,11.0,0.0
625,56.0,15,90,13.0,0.0
626,56.0,0,90,14.0,0.0
627,56.0,0,90,7.0,0.0
628,71.0,0,30,5.0,0.0
629,64.0,0,90,12.0,0.0
630,73.0,0,30,11.0,0.0
631,73.0,0,30,5.0,0.0
632,76.0,0,30,4.0,0.0
633,76.0,30,30,10.0,0.0
634,69.0,15,30,5.0,0.0
635,69.0,0,30,11.0,0.0
636,73.0,0,30,4.0,0.0
637,73.0,0,30,10.0,0.0
638,71.0,52,30,11.0,0.0
639,74.0,0,30,10.0,0.0
640,74.0,0,30,4.0,0.0
641,71.0,0,30,5.0,0.0
642,52.0,0,90,14.0,0.0
643,69.0,0,60,5.0,0.0
644,73.0,0,60,10.0,0.0
645,52.0,0,90,13.0,0.0
646,69.0,53,60,11.0,0.0
647,52.0,0,90,7.0,0.0
648,64.0,7,90,12.0,0.0
649,73.0,0,60,4.0,0.0
650,64.0,0,90,6.0,0.0
651,71.0,0,60,10.0,0.0
652,68.0,60,60,5.0,0.0
653,68.0,0,60,11.0,0.0
654,71.0,0,60,4.0,0.0
655,57.0,0,90,14.0,0.0
656,69.0,7,90,11.0,0.0
657,73.0,53,60,10.0,0.0
658,57.0,0,90,7.0,0.0
659,64.0,0,90,6.0,0.0
660,64.0,0,90,12.0,0.0
661,57.0,0,90,13.0,0.0
662,73.0,0,60,4.0,0.0
663,69.0,0,90,5.0,0.0
664,74.0,0,60,4.0,0.0
665,74.0,60,60,10.0,0.0
666,49.0,0,90,13.0,0.0
667,76.0,0,60,10.0,0.0
668,69.0,0,90,5.0,0.0
669,69.0,0,90,11.0,0.0
670,76.0,53,60,4.0,0.0
671,64.0,0,90,12.0,0.0
672,49.0,0,90,7.0,0.0
673,49.0,7,90,14.0,0.0
674,64.0,0,90,6.0,0.0
675,78.0,0,60,10.0,0.0
676,78.0,113,60,4.0,0.0
677,64.0,0,90,12.0,0.0
678,74.0,0,90,11.0,0.0
679,74.0,0,90,5.0,0.0
680,47.0,0,90,14.0,0.0
681,80.0,120,90,4.0,0.0
682,80.0,0,90,10.0,0.0
683,64.0,0,90,6.0,0.0
684,47.0,0,90,7.0,0.0
685,47.0,0,90,13.0,0.0
686,64.0,0,90,12.0,0.0
687,45.0,0,90,14.0,0.0
688,73.0,0,90,11.0,0.0
689,81.0,0,90,10.0,0.0
690,45.0,0,90,13.0,0.0
691,73.0,0,90,5.0,0.0
692,64.0,0,90,6.0,0.0
693,45.0,45,90,7.0,0.0
694,81.0,0,90,4.0,0.0
695,66.0,0,90,5.0,0.0
696,62.0,0,90,12.0,0.0
697,50.0,0,90,14.0,0.0
698,71.0,30,30,10.0,0.0
699,66.0,15,90,11.0,0.0
700,50.0,0,90,7.0,0.0
701,50.0,0,90,13.0,0.0
702,62.0,0,90,6.0,0.0
703,71.0,0,30,4.0,0.0
704,73.0,0,30,10.0,0.0
705,73.0,30,30,4.0,0.0
706,69.0,0,30,10.0,0.0
707,69.0,15,30,4.0,0.0
708,71.0,52,30,4.0,0.0
709,71.0,0,30,10.0,0.0
710,52.0,7,90,13.0,0.0
711,69.0,0,60,4.0,0.0
712,69.0,53,60,10.0,0.0
713,59.0,0,90,12.0,0.0
714,64.0,0,90,11.0,0.0
715,52.0,0,90,14.0,0.0
716,52.0,0,90,7.0,0.0
717,64.0,0,90,5.0,0.0
718,74.0,0,90,6.0,0.0
719,68.0,113,60,4.0,0.0
720,68.0,0,60,10.0,0.0
721,69.0,0,90,5.0,0.0
722,54.0,120,90,7.0,0.0
723,73.0,0,90,6.0,0.0
724,54.0,0,90,14.0,0.0
725,57.0,0,90,12.0,0.0
726,69.0,0,90,4.0,0.0
727,54.0,0,90,13.0,0.0
728,61.0,0,90,11.0,0.0
729,69.0,0,90,10.0,0.0
730,50.0,0,90,13.0,0.0
731,50.0,0,90,7.0,0.0
732,71.0,0,90,4.0,0.0
733,66.0,0,90,11.0,0.0
734,50.0,120,90,14.0,0.0
735,66.0,0,90,5.0,0.0
736,62.0,0,90,12.0,0.0
737,74.0,0,90,6.0,0.0
738,71.0,0,90,10.0,0.0
739,71.0,0,90,6.0,0.0
740,52.0,0,90,7.0,0.0
741,64.0,0,90,10.0,0.0
742,64.0,0,90,11.0,0.0
743,52.0,0,90,13.0,0.0
744,62.0,0,90,12.0,0.0
745,64.0,0,90,4.0,0.0
746,52.0,0,90,14.0,0.0
747,64.0,120,90,5.0,0.0
748,40.0,0,90,14.0,0.0
749,40.0,0,90,7.0,0.0
750,68.0,0,90,10.0,0.0
751,40.0,0,90,13.0,0.0
752,59.0,360,90,12.0,0.0
753,68.0,0,90,4.0,0.0
754,76.0,0,90,6.0,0.0
755,64.0,0,90,5.0,0.0
756,64.0,0,90,11.0,0.0
757,64.0,0,330,5.0,0.0
758,73.0,0,330,6.0,0.0
759,69.0,0,330,4.0,0.0
760,64.0,67,330,11.0,0.0
761,45.0,0,330,7.0,0.0
762,69.0,0,330,10.0,0.0
763,45.0,0,330,13.0,0.0
764,45.0,0,330,14.0,0.0
765,61.0,0,330,12.0,0.0
766,74.0,0,90,1.0,0.0
767,69.0,0,90,6.0,0.0
768,74.0,0,90,5.0,0.0
769,62.0,0,60,14.0,0.0
770,78.0,0,60,10.0,0.0
771,62.0,0,60,7.0,0.0
772,62.0,0,60,13.0,0.0
773,78.0,8,60,0.0,0.0
774,50.0,45,60,3.0,0.0
775,74.0,0,90,11.0,0.0
776,69.0,7,90,12.0,0.0
777,78.0,0,60,4.0,0.0
778,69.0,0,60,2.0,0.0
779,69.0,8,60,2.0,0.0
780,76.0,0,60,0.0,0.0
781,50.0,90,60,3.0,0.0
782,76.0,0,60,10.0,0.0
783,76.0,0,60,4.0,0.0
784,61.0,0,60,13.0,0.0
785,61.0,0,60,7.0,0.0
786,61.0,0,60,14.0,0.0
787,69.0,0,120,2.0,0.0
788,78.0,15,90,4.0,0.0
789,74.0,0,90,11.0,0.0
790,62.0,0,90,14.0,0.0
791,74.0,0,90,1.0,0.0
792,78.0,0,90,10.0,0.0
793,50.0,90,120,3.0,0.0
794,62.0,0,90,13.0,0.0
795,69.0,0,90,6.0,0.0
796,78.0,15,90,0.0,0.0
797,69.0,0,90,12.0,0.0
798,62.0,0,90,7.0,0.0
799,74.0,0,90,5.0,0.0
800,79.0,0,90,0.0,0.0
801,71.0,0,90,12.0,0.0
802,55.0,0,90,13.0,0.0
803,79.0,0,90,10.0,0.0
804,55.0,45,90,14.0,0.0
805,79.0,15,90,4.0,0.0
806,76.0,0,90,5.0,0.0
807,71.0,0,90,6.0,0.0
808,76.0,0,90,1.0,0.0
809,55.0,0,90,7.0,0.0
810,76.0,0,90,11.0,0.0
811,69.0,15,90,6.0,0.0
812,76.0,30,30,4.0,0.0
813,73.0,0,90,11.0,0.0
814,57.0,0,90,7.0,0.0
815,76.0,0,30,10.0,0.0
816,69.0,0,90,12.0,0.0
817,57.0,0,90,14.0,0.0
818,69.0,0,90,1.0,0.0
819,76.0,0,90,0.0,0.0
820,57.0,0,90,13.0,0.0
821,73.0,0,90,5.0,0.0
822,78.0,0,30,10.0,0.0
823,78.0,30,30,4.0,0.0
824,74.0,15,30,4.0,0.0
825,74.0,0,30,10.0,0.0
826,76.0,52,30,4.0,0.0
827,76.0,0,30,10.0,0.0
828,52.0,15,90,7.0,0.0
829,69.0,0,90,5.0,0.0
830,74.0,0,60,0.0,0.0
831,52.0,0,90,14.0,0.0
832,74.0,0,60,4.0,0.0
833,74.0,38,60,10.0,0.0
834,69.0,0,210,1.0,0.0
835,67.0,0,90,6.0,0.0
836,52.0,0,90,13.0,0.0
837,67.0,7,90,12.0,0.0
838,69.0,0,90,11.0,0.0
839,73.0,0,60,0.0,0.0
840,73.0,0,60,4.0,0.0
841,73.0,60,60,10.0,0.0
842,54.0,7,90,7.0,0.0
843,74.0,0,60,0.0,0.0
844,54.0,0,90,14.0,0.0
845,69.0,0,90,11.0,0.0
846,66.0,0,90,6.0,0.0
847,54.0,0,90,13.0,0.0
848,69.0,0,90,5.0,0.0
849,74.0,0,60,10.0,0.0
850,66.0,0,90,12.0,0.0
851,74.0,53,60,4.0,0.0
852,76.0,0,60,4.0,0.0
853,76.0,0,60,10.0,0.0
854,76.0,60,60,0.0,0.0
855,74.0,0,60,11.0,0.0
856,69.0,0,90,1.0,0.0
857,50.0,45,60,3.0,0.0
858,74.0,0,60,5.0,0.0
859,62.0,0,90,2.0,0.0
860,50.0,0,60,14.0,0.0
861,78.0,0,60,10.0,0.0
862,50.0,0,60,13.0,0.0
863,69.0,0,90,12.0,0.0
864,78.0,8,60,4.0,0.0
865,50.0,0,60,7.0,0.0
866,69.0,7,90,6.0,0.0
867,78.0,0,60,0.0,0.0
868,79.0,0,60,10.0,0.0
869,79.0,0,60,0.0,0.0
870,73.0,0,60,5.0,0.0
871,52.0,0,60,7.0,0.0
872,52.0,0,60,13.0,0.0
873,79.0,8,60,4.0,0.0
874,50.0,90,60,3.0,0.0
875,73.0,0,60,11.0,0.0
876,52.0,0,60,14.0,0.0
877,69.0,0,90,2.0,0.0
878,74.0,0,90,1.0,0.0
879,81.0,0,90,10.0,0.0
880,69.0,0,90,6.0,0.0
881,74.0,0,90,5.0,0.0
882,54.0,0,90,13.0,0.0
883,54.0,0,90,7.0,0.0
884,74.0,0,90,11.0,0.0
885,69.0,0,90,12.0,0.0
886,81.0,0,90,0.0,0.0
887,81.0,15,90,4.0,0.0
888,54.0,15,90,14.0,0.0
889,50.0,90,120,3.0,0.0
890,50.0,30,120,3.0,0.0
891,67.0,0,90,12.0,0.0
892,71.0,0,90,5.0,0.0
893,62.0,0,90,6.0,0.0
894,71.0,0,90,11.0,0.0
895,55.0,0,90,13.0,0.0
896,83.0,0,90,4.0,0.0
897,83.0,15,90,10.0,0.0
898,83.0,0,90,0.0,0.0
899,62.0,0,90,2.0,0.0
900,79.0,0,90,1.0,0.0
901,55.0,0,90,7.0,0.0
902,55.0,15,90,14.0,0.0
903,57.0,0,90,14.0,0.0
904,73.0,0,90,5.0,0.0
905,79.0,0,90,0.0,0.0
906,64.0,0,90,12.0,0.0
907,57.0,0,90,13.0,0.0
908,73.0,0,90,11.0,0.0
909,79.0,30,30,10.0,0.0
910,76.0,0,90,1.0,0.0
911,45.0,0,120,3.0,0.0
912,79.0,0,30,4.0,0.0
913,69.0,0,90,6.0,0.0
914,57.0,15,90,7.0,0.0
915,69.0,0,90,2.0,0.0
916,81.0,0,30,4.0,0.0
917,81.0,30,30,10.0,0.0
918,78.0,0,30,10.0,0.0
919,78.0,15,30,4.0,0.0
920,79.0,0,30,4.0,0.0
921,79.0,52,30,10.0,0.0
922,78.0,0,210,4.0,0.0
923,50.0,0,240,3.0,0.0
924,78.0,0,240,0.0,0.0
925,78.0,0,210,10.0,0.0
926,62.0,0,210,12.0,0.0
927,69.0,15,210,6.0,0.0
928,74.0,0,240,1.0,0.0
929,62.0,60,60,7.0,0.0
930,74.0,0,210,5.0,0.0
931,62.0,0,60,14.0,0.0
932,62.0,0,60,13.0,0.0
933,74.0,0,210,11.0,0.0
934,69.0,52,240,2.0,0.0
935,61.0,0,60,14.0,0.0
936,61.0,98,60,13.0,0.0
937,61.0,0,60,7.0,0.0
938,62.0,15,90,7.0,0.0
939,62.0,0,90,14.0,0.0
940,62.0,0,90,13.0,0.0
941,59.0,0,90,13.0,0.0
942,76.0,38,60,10.0,0.0
943,76.0,0,60,4.0,0.0
944,62.0,0,90,12.0,0.0
945,59.0,0,90,14.0,0.0
946,68.0,0,90,5.0,0.0
947,59.0,15,90,7.0,0.0
948,71.0,0,90,6.0,0.0
949,68.0,7,90,11.0,0.0
950,74.0,60,60,4.0,0.0
951,74.0,0,60,10.0,0.0
952,61.0,0,90,13.0,0.0
953,64.0,7,90,6.0,0.0
954,69.0,0,90,5.0,0.0
955,61.0,0,90,12.0,0.0
956,61.0,0,90,7.0,0.0
957,76.0,0,60,10.0,0.0
958,76.0,53,60,4.0,0.0
959,61.0,0,90,14.0,0.0
960,69.0,0,90,11.0,0.0
961,78.0,113,60,10.0,0.0
962,78.0,0,60,4.0,0.0
963,73.0,15,90,5.0,0.0
964,78.0,0,120,10.0,0.0
965,57.0,0,90,7.0,0.0
966,57.0,0,90,14.0,0.0
967,78.0,30,120,4.0,0.0
968,69.0,0,90,12.0,0.0
969,57.0,0,90,13.0,0.0
970,73.0,0,90,11.0,0.0
971,69.0,0,90,6.0,0.0
972,71.0,0,90,11.0,0.0
973,59.0,15,90,14.0,0.0
974,59.0,0,90,7.0,0.0
975,59.0,0,90,13.0,0.0
976,71.0,0,90,5.0,0.0
977,66.0,0,90,6.0,0.0
978,74.0,30,30,4.0,0.0
979,66.0,0,90,12.0,0.0
980,74.0,0,30,10.0,0.0
981,76.0,30,30,10.0,0.0
982,76.0,0,30,4.0,0.0
983,73.0,0,30,10.0,0.0
984,73.0,15,30,4.0,0.0
985,74.0,0,30,4.0,0.0
986,74.0,60,30,10.0,0.0
987,73.0,45,60,4.0,0.0
988,56.0,0,90,7.0,0.0
989,64.0,0,90,12.0,0.0
990,64.0,0,90,6.0,0.0
991,56.0,0,90,14.0,0.0
992,73.0,0,60,10.0,0.0
993,56.0,7,90,13.0,0.0
994,64.0,0,90,5.0,0.0
995,64.0,0,90,11.0,0.0
996,71.0,0,60,4.0,0.0
997,71.0,60,60,10.0,0.0
998,69.0,0,90,5.0,0.0
999,73.0,0,60,4.0,0.0
1000,69.0,0,90,11.0,0.0
1001,73.0,53,60,10.0,0.0
1002,57.0,0,90,7.0,0.0
1003,64.0,0,90,12.0,0.0
1004,57.0,0,90,14.0,0.0
1005,64.0,0,90,6.0,0.0
1006,57.0,7,90,13.0,0.0
1007,74.0,0,60,4.0,0.0
1008,74.0,60,60,10.0,0.0
1009,76.0,53,60,10.0,0.0
1010,49.0,0,90,14.0,0.0
1011,49.0,0,90,13.0,0.0
1012,76.0,0,60,4.0,0.0
1013,69.0,0,90,5.0,0.0
1014,69.0,0,90,11.0,0.0
1015,49.0,0,90,7.0,0.0
1016,64.0,7,90,6.0,0.0
1017,64.0,0,90,12.0,0.0
1018,78.0,98,60,4.0,0.0
1019,78.0,0,60,10.0,0.0
1020,64.0,0,90,6.0,0.0
1021,64.0,0,90,12.0,0.0
1022,47.0,105,90,7.0,0.0
1023,74.0,0,90,5.0,0.0
1024,47.0,0,90,14.0,0.0
1025,80.0,15,90,4.0,0.0
1026,47.0,0,90,13.0,0.0
1027,80.0,0,90,10.0,0.0
1028,74.0,0,90,11.0,0.0
1029,45.0,0,90,13.0,0.0
1030,64.0,0,90,12.0,0.0
1031,81.0,0,90,10.0,0.0
1032,45.0,0,90,7.0,0.0
1033,81.0,15,90,4.0,0.0
1034,64.0,45,90,6.0,0.0
1035,73.0,0,90,11.0,0.0
1036,45.0,0,90,14.0,0.0
1037,73.0,0,90,5.0,0.0
1038,50.0,0,90,7.0,0.0
1039,71.0,30,30,10.0,0.0
1040,71.0,0,90,5.0,0.0
1041,71.0,0,90,11.0,0.0
1042,66.0,0,90,12.0,0.0
1043,50.0,15,90,14.0,0.0
1044,50.0,0,90,13.0,0.0
1045,66.0,0,90,6.0,0.0
1046,71.0,0,30,4.0,0.0
1047,73.0,0,30,4.0,0.0
1048,73.0,30,30,10.0,0.0
1049,69.0,15,30,10.0,0.0
1050,69.0,0,30,4.0,0.0
1051,71.0,52,30,4.0,0.0
1052,71.0,0,30,10.0,0.0
1053,73.0,53,60,11.0,0.0
1054,69.0,0,60,4.0,0.0
1055,52.0,0,90,14.0,0.0
1056,64.0,7,90,12.0,0.0
1057,64.0,0,90,6.0,0.0
1058,52.0,0,90,7.0,0.0
1059,52.0,0,90,13.0,0.0
1060,69.0,0,60,10.0,0.0
1061,73.0,0,60,5.0,0.0
1062,74.0,0,60,11.0,0.0
1063,68.0,60,60,10.0,0.0
1064,68.0,0,60,4.0,0.0
1065,74.0,0,60,5.0,0.0
1066,69.0,0,90,12.0,0.0
1067,54.0,0,90,13.0,0.0
1068,54.0,0,90,14.0,0.0
1069,54.0,7,90,7.0,0.0
1070,73.0,0,90,5.0,0.0
1071,69.0,0,90,6.0,0.0
1072,69.0,0,60,4.0,0.0
1073,73.0,0,90,11.0,0.0
1074,69.0,53,60,10.0,0.0
1075,71.0,0,60,4.0,0.0
1076,71.0,60,60,10.0,0.0
1077,52.0,0,60,7.0,0.0
1078,69.0,0,90,5.0,0.0
1079,52.0,53,60,14.0,0.0
1080,73.0,0,60,4.0,0.0
1081,52.0,0,60,13.0,0.0
1082,66.0,7,90,12.0,0.0
1083,69.0,0,90,11.0,0.0
1084,73.0,0,60,10.0,0.0
1085,66.0,0,90,6.0,0.0
1086,50.0,0,60,13.0,0.0
1087,74.0,0,60,4.0,0.0
1088,50.0,0,60,14.0,0.0
1089,50.0,98,60,7.0,0.0
1090,74.0,0,60,10.0,0.0
1091,49.0,0,90,7.0,0.0
1092,69.0,0,90,11.0,0.0
1093,76.0,15,90,10.0,0.0
1094,64.0,0,90,12.0,0.0
1095,49.0,0,90,14.0,0.0
1096,69.0,0,90,5.0,0.0
1097,76.0,0,90,4.0,0.0
1098,49.0,0,90,13.0,0.0
1099,64.0,105,90,6.0,0.0
1100,50.0,0,90,13.0,0.0
1101,78.0,0,90,4.0,0.0
1102,78.0,15,90,10.0,0.0
1103,50.0,0,90,14.0,0.0
1104,50.0,45,90,7.0,0.0
1105,74.0,0,90,5.0,0.0
1106,69.0,0,90,6.0,0.0
1107,69.0,0,90,12.0,0.0
1108,74.0,0,90,11.0,0.0
1109,52.0,0,240,13.0,0.0
1110,68.0,30,30,4.0,0.0
1111,52.0,0,240,7.0,0.0
1112,52.0,0,240,14.0,0.0
1113,64.0,0,240,6.0,0.0
1114,64.0,0,240,12.0,0.0
1115,71.0,172,240,11.0,0.0
1116,71.0,0,240,5.0,0.0
1117,68.0,0,30,10.0,0.0
1118,69.0,0,30,4.0,0.0
1119,69.0,30,30,10.0,0.0
1120,66.0,30,30,10.0,0.0
1121,66.0,0,30,4.0,0.0
1122,68.0,0,30,10.0,0.0
1123,68.0,52,30,4.0,0.0
1124,66.0,0,60,10.0,0.0
1125,66.0,60,60,4.0,0.0
1126,64.0,8,60,10.0,0.0
1127,64.0,0,60,4.0,0.0
1128,74.0,45,180,4.0,0.0
1129,74.0,0,180,10.0,0.0
1130,71.0,0,90,5.0,0.0
1131,57.0,0,60,13.0,0.0
1132,64.0,0,90,6.0,0.0
1133,64.0,7,90,12.0,0.0
1134,57.0,0,60,14.0,0.0
1135,57.0,8,60,7.0,0.0
1136,71.0,0,90,11.0,0.0
1137,56.0,113,60,14.0,0.0
1138,56.0,0,60,13.0,0.0
1139,56.0,0,60,7.0,0.0
1140,73.0,45,180,4.0,0.0
1141,57.0,0,90,14.0,0.0
1142,73.0,75,90,5.0,0.0
1143,73.0,0,180,10.0,0.0
1144,57.0,0,90,7.0,0.0
1145,73.0,0,90,11.0,0.0
1146,57.0,0,90,13.0,0.0
1147,64.0,0,90,6.0,0.0
1148,64.0,0,90,12.0,0.0
1149,74.0,0,90,5.0,0.0
1150,59.0,0,90,7.0,0.0
1151,64.0,0,90,12.0,0.0
1152,59.0,0,90,13.0,0.0
1153,59.0,0,90,14.0,0.0
1154,64.0,45,90,6.0,0.0
1155,74.0,0,90,11.0,0.0
1156,56.0,30,30,7.0,0.0
1157,64.0,0,240,6.0,0.0
1158,64.0,0,240,12.0,0.0
1159,71.0,0,240,5.0,0.0
1160,56.0,0,30,14.0,0.0
1161,56.0,0,30,13.0,0.0
1162,71.0,30,240,11.0,0.0
1163,57.0,30,30,13.0,0.0
1164,57.0,0,30,7.0,0.0
1165,57.0,0,30,14.0,0.0
1166,54.0,0,30,7.0,0.0
1167,54.0,0,30,14.0,0.0
1168,54.0,30,30,13.0,0.0
1169,56.0,0,30,7.0,0.0
1170,56.0,52,30,14.0,0.0
1171,56.0,0,30,13.0,0.0
1172,74.0,7,90,4.0,0.0
1173,54.0,53,60,14.0,0.0
1174,54.0,0,60,7.0,0.0
1175,54.0,0,60,13.0,0.0
1176,74.0,0,90,10.0,0.0
1177,52.0,0,60,13.0,0.0
1178,52.0,8,60,7.0,0.0
1179,52.0,0,60,14.0,0.0
1180,64.0,45,180,13.0,0.0
1181,71.0,30,30,10.0,0.0
1182,71.0,0,30,4.0,0.0
1183,64.0,0,180,7.0,0.0
1184,64.0,0,180,14.0,0.0
1185,73.0,0,30,4.0,0.0
1186,73.0,30,30,10.0,0.0
1187,69.0,30,30,10.0,0.0
1188,69.0,0,30,4.0,0.0
1189,71.0,52,30,10.0,0.0
1190,71.0,0,30,4.0,0.0
1191,69.0,8,60,4.0,0.0
1192,64.0,0,90,6.0,0.0
1193,71.0,0,90,5.0,0.0
1194,69.0,0,60,10.0,0.0
1195,64.0,7,90,12.0,0.0
1196,71.0,0,90,11.0,0.0
1197,68.0,0,60,4.0,0.0
1198,68.0,113,60,10.0,0.0
1199,62.0,0,180,13.0,0.0
1200,62.0,0,180,14.0,0.0
1201,71.0,0,90,5.0,0.0
1202,66.0,67,90,12.0,0.0
1203,78.0,0,180,10.0,0.0
1204,78.0,45,180,4.0,0.0
1205,71.0,0,90,11.0,0.0
1206,66.0,0,90,6.0,0.0
1207,62.0,0,180,7.0,0.0
1208,69.0,0,60,5.0,0.0
1209,71.0,7,90,6.0,0.0
1210,69.0,8,60,11.0,0.0
1211,59.0,0,90,12.0,0.0
1212,68.0,0,60,11.0,0.0
1213,68.0,180,60,5.0,0.0
1214,69.0,0,240,11.0,0.0
1215,64.0,0,180,12.0,0.0
1216,73.0,52,180,6.0,0.0
1217,76.0,0,180,10.0,0.0
1218,69.0,105,240,5.0,0.0
1219,76.0,0,180,4.0,0.0
1220,61.0,0,60,13.0,0.0
1221,61.0,8,60,7.0,0.0
1222,61.0,0,60,14.0,0.0
1223,59.0,0,60,13.0,0.0
1224,59.0,8,60,7.0,0.0
1225,59.0,0,60,14.0,0.0
1226,61.0,0,90,7.0,0.0
1227,61.0,120,90,14.0,0.0
1228,61.0,0,90,13.0,0.0
1229,62.0,0,90,12.0,0.0
1230,62.0,0,90,14.0,0.0
1231,78.0,0,90,4.0,0.0
1232,69.0,0,90,11.0,0.0
1233,78.0,0,90,10.0,0.0
1234,62.0,0,90,13.0,0.0
1235,62.0,0,90,7.0,0.0
1236,62.0,0,90,6.0,0.0
1237,69.0,45,90,5.0,0.0
1238,59.0,30,30,7.0,0.0
1239,62.0,0,90,12.0,0.0
1240,62.0,15,90,6.0,0.0
1241,59.0,0,30,14.0,0.0
1242,68.0,0,90,5.0,0.0
1243,68.0,0,90,11.0,0.0
1244,59.0,0,30,13.0,0.0
1245,74.0,0,30,10.0,0.0
1246,74.0,0,30,4.0,0.0
1247,61.0,0,30,14.0,0.0
1248,76.0,0,30,4.0,0.0
1249,61.0,0,30,7.0,0.0
1250,61.0,0,30,13.0,0.0
1251,76.0,30,30,10.0,0.0
1252,57.0,0,30,14.0,0.0
1253,73.0,15,30,10.0,0.0
1254,57.0,0,30,7.0,0.0
1255,57.0,0,30,13.0,0.0
1256,73.0,0,30,4.0,0.0
1257,59.0,0,30,7.0,0.0
1258,74.0,0,30,4.0,0.0
1259,74.0,0,30,10.0,0.0
1260,59.0,0,30,13.0,0.0
1261,59.0,52,30,14.0,0.0
1262,57.0,0,60,7.0,0.0
1263,57.0,0,60,13.0,0.0
1264,69.0,0,90,5.0,0.0
1265,73.0,0,60,10.0,0.0
1266,73.0,53,60,4.0,0.0
1267,64.0,0,90,12.0,0.0
1268,69.0,0,90,11.0,0.0
1269,64.0,7,90,6.0,0.0
1270,57.0,0,60,14.0,0.0
1271,56.0,0,60,14.0,0.0
1272,71.0,0,60,4.0,0.0
1273,56.0,188,60,7.0,0.0
1274,56.0,0,60,13.0,0.0
1275,71.0,0,60,10.0,0.0
1276,71.0,0,180,5.0,0.0
1277,81.0,45,180,10.0,0.0
1278,66.0,120,210,6.0,0.0
1279,66.0,0,210,12.0,0.0
1280,63.0,0,210,13.0,0.0
1281,81.0,0,180,4.0,0.0
1282,63.0,0,210,14.0,0.0
1283,63.0,0,210,7.0,0.0
1284,71.0,0,180,11.0,0.0
1285,64.0,0,90,6.0,0.0
1286,64.0,67,90,7.0,0.0
1287,80.0,0,90,4.0,0.0
1288,64.0,0,90,13.0,0.0
1289,71.0,0,90,11.0,0.0
1290,71.0,0,90,5.0,0.0
1291,80.0,0,90,10.0,0.0
1292,64.0,0,90,12.0,0.0
1293,64.0,0,90,14.0,0.0
1294,68.0,0,90,6.0,0.0
1295,81.0,53,60,4.0,0.0
1296,68.0,7,90,12.0,0.0
1297,52.0,0,90,7.0,0.0
1298,52.0,0,90,13.0,0.0
1299,74.0,0,90,5.0,0.0
1300,52.0,0,90,14.0,0.0
1301,81.0,0,60,10.0,0.0
1302,74.0,0,90,11.0,0.0
1303,83.0,0,60,4.0,0.0
1304,83.0,113,60,10.0,0.0
1305,69.0,0,90,6.0,0.0
1306,76.0,0,90,10.0,0.0
1307,54.0,0,90,14.0,0.0
1308,73.0,120,90,5.0,0.0
1309,69.0,0,90,12.0,0.0
1310,54.0,0,90,13.0,0.0
1311,73.0,0,90,11.0,0.0
1312,76.0,0,90,4.0,0.0
1313,54.0,0,90,7.0,0.0
1314,56.0,0,90,14.0,0.0
1315,74.0,0,90,10.0,0.0
1316,71.0,45,90,6.0,0.0
1317,56.0,0,90,13.0,0.0
1318,71.0,0,90,11.0,0.0
1319,71.0,0,90,5.0,0.0
1320,71.0,0,90,12.0,0.0
1321,74.0,0,90,4.0,0.0
1322,56.0,0,90,7.0,0.0
1323,64.0,0,90,12.0,0.0
1324,73.0,30,30,10.0,0.0
1325,57.0,0,90,14.0,0.0
1326,73.0,0,30,4.0,0.0
1327,69.0,0,90,5.0,0.0
1328,57.0,0,90,7.0,0.0
1329,69.0,0,90,11.0,0.0
1330,64.0,15,90,6.0,0.0
1331,57.0,0,90,13.0,0.0
1332,74.0,0,30,4.0,0.0
1333,74.0,30,30,10.0,0.0
1334,71.0,15,30,10.0,0.0
1335,71.0,0,30,4.0,0.0
1336,73.0,0,30,10.0,0.0
1337,73.0,52,30,4.0,0.0
1338,49.0,0,90,13.0,0.0
1339,64.0,7,90,5.0,0.0
1340,71.0,53,60,4.0,0.0
1341,64.0,0,90,6.0,0.0
1342,49.0,0,90,7.0,0.0
1343,64.0,0,90,11.0,0.0
1344,61.0,0,90,12.0,0.0
1345,49.0,0,90,14.0,0.0
1346,71.0,0,60,10.0,0.0
1347,69.0,0,60,4.0,0.0
1348,69.0,113,60,10.0,0.0
1349,59.0,67,90,12.0,0.0
1350,66.0,0,90,11.0,0.0
1351,71.0,0,90,4.0,0.0
1352,66.0,0,90,5.0,0.0
1353,50.0,0,90,7.0,0.0
1354,71.0,0,90,6.0,0.0
1355,50.0,0,90,13.0,0.0
1356,50.0,0,90,14.0,0.0
1357,71.0,0,90,10.0,0.0
1358,81.0,0,60,10.0,0.0
1359,74.0,7,90,11.0,0.0
1360,52.0,0,90,13.0,0.0
1361,59.0,0,90,12.0,0.0
1362,74.0,0,90,6.0,0.0
1363,81.0,53,60,4.0,0.0
1364,52.0,0,90,7.0,0.0
1365,52.0,0,90,14.0,0.0
1366,64.0,0,90,5.0,0.0
1367,80.0,0,60,10.0,0.0
1368,80.0,113,60,4.0,0.0
1369,66.0,0,90,12.0,0.0
1370,73.0,0,90,6.0,0.0
1371,54.0,0,90,14.0,0.0
1372,73.0,120,90,11.0,0.0
1373,81.0,0,90,4.0,0.0
1374,54.0,0,90,7.0,0.0
1375,69.0,0,90,5.0,0.0
1376,54.0,0,90,13.0,0.0
1377,81.0,0,90,10.0,0.0
1378,66.0,0,90,12.0,0.0
1379,66.0,45,90,6.0,0.0
1380,50.0,0,90,14.0,0.0
1381,74.0,0,90,11.0,0.0
1382,50.0,0,90,13.0,0.0
1383,74.0,0,90,5.0,0.0
1384,50.0,0,90,7.0,0.0
1385,83.0,0,90,10.0,0.0
1386,83.0,0,90,4.0,0.0
1387,64.0,0,90,12.0,0.0
1388,74.0,0,30,10.0,0.0
1389,71.0,30,30,11.0,0.0
1390,56.0,0,90,14.0,0.0
1391,74.0,0,30,4.0,0.0
1392,56.0,15,90,7.0,0.0
1393,64.0,0,90,6.0,0.0
1394,71.0,0,30,5.0,0.0
1395,56.0,0,90,13.0,0.0
1396,73.0,30,30,5.0,0.0
1397,76.0,0,30,10.0,0.0
1398,73.0,0,30,11.0,0.0
1399,76.0,0,30,4.0,0.0
1400,69.0,0,30,11.0,0.0
1401,73.0,0,30,4.0,0.0
1402,69.0,0,30,5.0,0.0
1403,73.0,15,30,10.0,0.0
1404,71.0,52,30,11.0,0.0
1405,74.0,0,30,10.0,0.0
1406,71.0,0,30,5.0,0.0
1407,74.0,0,30,4.0,0.0
1408,73.0,0,60,4.0,0.0
1409,69.0,53,60,11.0,0.0
1410,64.0,0,90,6.0,0.0
1411,69.0,0,60,5.0,0.0
1412,64.0,0,90,12.0,0.0
1413,73.0,0,60,10.0,0.0
1414,52.0,0,90,7.0,0.0
1415,52.0,7,90,14.0,0.0
1416,52.0,0,90,13.0,0.0
1417,68.0,60,60,11.0,0.0
1418,71.0,0,60,10.0,0.0
1419,71.0,0,60,4.0,0.0
1420,68.0,0,60,5.0,0.0
1421,69.0,0,90,5.0,0.0
1422,57.0,0,90,14.0,0.0
1423,57.0,0,90,7.0,0.0
1424,57.0,0,90,13.0,0.0
1425,73.0,53,60,4.0,0.0
1426,64.0,0,90,6.0,0.0
1427,73.0,0,60,10.0,0.0
1428,64.0,0,90,12.0,0.0
1429,69.0,7,90,11.0,0.0
1430,74.0,60,60,10.0,0.0
1431,74.0,0,60,4.0,0.0
1432,49.0,0,90,13.0,0.0
1433,76.0,53,60,10.0,0.0
1434,64.0,0,90,6.0,0.0
1435,49.0,0,90,14.0,0.0
1436,49.0,7,90,7.0,0.0
1437,69.0,0,90,11.0,0.0
1438,69.0,0,90,5.0,0.0
1439,64.0,0,90,12.0,0.0
1440,76.0,0,60,4.0,0.0
1441,78.0,0,60,4.0,0.0
1442,78.0,113,60,10.0,0.0
1443,47.0,0,90,13.0,0.0
1444,74.0,0,90,5.0,0.0
1445,74.0,0,90,11.0,0.0
1446,64.0,0,90,6.0,0.0
1447,47.0,120,90,7.0,0.0
1448,80.0,0,90,10.0,0.0
1449,64.0,0,90,12.0,0.0
1450,80.0,0,90,4.0,0.0
1451,47.0,0,90,14.0,0.0
1452,64.0,0,90,6.0,0.0
1453,45.0,0,90,14.0,0.0
1454,45.0,0,90,13.0,0.0
1455,73.0,0,90,5.0,0.0
1456,73.0,45,90,11.0,0.0
1457,81.0,0,90,10.0,0.0
1458,81.0,0,90,4.0,0.0
1459,45.0,0,90,7.0,0.0
1460,64.0,0,90,12.0,0.0
1461,50.0,15,90,14.0,0.0
1462,66.0,0,90,5.0,0.0
1463,62.0,0,90,12.0,0.0
1464,50.0,0,90,13.0,0.0
1465,66.0,0,90,11.0,0.0
1466,62.0,0,90,6.0,0.0
1467,71.0,0,30,10.0,0.0
1468,71.0,30,30,4.0,0.0
1469,50.0,0,90,7.0,0.0
1470,73.0,0,30,4.0,0.0
1471,73.0,30,30,10.0,0.0
1472,69.0,15,30,4.0,0.0
1473,69.0,0,30,10.0,0.0
1474,71.0,52,30,4.0,0.0
1475,71.0,0,30,10.0,0.0
1476,69.0,53,60,4.0,0.0
1477,64.0,0,90,5.0,0.0
1478,52.0,0,90,14.0,0.0
1479,69.0,0,60,10.0,0.0
1480,52.0,0,90,7.0,0.0
1481,74.0,0,90,6.0,0.0
1482,52.0,7,90,13.0,0.0
1483,64.0,0,90,11.0,0.0
1484,59.0,0,90,12.0,0.0
1485,68.0,113,60,4.0,0.0
1486,68.0,0,60,10.0,0.0
1487,61.0,0,90,11.0,0.0
1488,69.0,0,90,10.0,0.0
1489,57.0,0,90,12.0,0.0
1490,69.0,0,90,5.0,0.0
1491,73.0,0,90,6.0,0.0
1492,54.0,0,90,7.0,0.0
1493,54.0,0,90,14.0,0.0
1494,69.0,0,90,4.0,0.0
1495,54.0,120,90,13.0,0.0
1496,66.0,0,90,11.0,0.0
1497,50.0,0,90,13.0,0.0
1498,50.0,0,90,14.0,0.0
1499,74.0,0,90,6.0,0.0
1500,71.0,0,90,10.0,0.0
1501,66.0,120,90,5.0,0.0
1502,62.0,0,90,12.0,0.0
1503,71.0,0,90,4.0,0.0
1504,50.0,0,90,7.0,0.0
1505,64.0,0,90,11.0,0.0
1506,52.0,0,90,13.0,0.0
1507,71.0,0,90,6.0,0.0
1508,64.0,0,90,10.0,0.0
1509,64.0,0,90,4.0,0.0
1510,62.0,0,90,12.0,0.0
1511,52.0,0,90,7.0,0.0
1512,52.0,0,90,14.0,0.0
1513,64.0,120,90,5.0,0.0
1514,40.0,0,90,14.0,0.0
1515,40.0,0,90,13.0,0.0
1516,76.0,0,90,6.0,0.0
1517,59.0,360,90,12.0,0.0
1518,64.0,0,90,5.0,0.0
1519,68.0,0,90,10.0,0.0
1520,40.0,0,90,7.0,0.0
1521,68.0,0,90,4.0,0.0
1522,64.0,0,90,11.0,0.0
1523,61.0,52,360,12.0,0.0
1524,69.0,0,360,10.0,0.0
1525,45.0,0,360,7.0,0.0
1526,64.0,0,360,11.0,0.0
1527,69.0,0,330,4.0,0.0
1528,45.0,0,360,14.0,0.0
1529,45.0,0,360,13.0,0.0
1530,64.0,0,330,5.0,0.0
1531,73.0,15,330,6.0,0.0
1532,73.0,0,60,5.0,0.0
1533,76.0,53,60,4.0,0.0
1534,69.0,7,90,6.0,0.0
1535,74.0,98,60,4.0,0.0
1536,71.0,0,60,5.0,0.0
1537,73.0,15,90,5.0,0.0
1538,69.0,83,90,6.0,0.0
1539,76.0,0,90,4.0,0.0
1540,78.0,22,60,4.0,0.0
1541,74.0,15,90,5.0,0.0
1542,69.0,15,90,6.0,0.0
1543,78.0,105,20,4.0,0.0
1544,79.0,67,90,4.0,0.0
1545,69.0,0,90,6.0,0.0
1546,76.0,0,90,5.0,0.0
1547,69.0,7,90,6.0,0.0
1548,74.0,0,60,5.0,0.0
1549,78.0,53,60,4.0,0.0
1550,73.0,0,60,5.0,0.0
1551,76.0,60,60,4.0,0.0
1552,78.0,53,60,4.0,0.0
1553,74.0,0,60,5.0,0.0
1554,69.0,7,90,6.0,0.0
1555,79.0,0,60,4.0,0.0
1556,76.0,60,60,5.0,0.0
1557,50.0,0,60,13.0,0.0
1558,74.0,0,90,2.0,0.0
1559,81.0,0,90,0.0,0.0
1560,50.0,8,60,7.0,0.0
1561,81.0,7,90,10.0,0.0
1562,78.0,0,90,11.0,0.0
1563,69.0,0,90,6.0,0.0
1564,50.0,45,60,3.0,0.0
1565,50.0,0,60,14.0,0.0
1566,78.0,0,90,1.0,0.0
1567,81.0,0,90,4.0,0.0
1568,69.0,0,90,12.0,0.0
1569,78.0,0,90,5.0,0.0
1570,52.0,0,60,14.0,0.0
1571,52.0,0,60,13.0,0.0
1572,50.0,90,60,3.0,0.0
1573,52.0,8,60,7.0,0.0
1574,74.0,0,90,0.0,0.0
1575,54.0,0,90,13.0,0.0
1576,74.0,15,90,4.0,0.0
1577,69.0,0,90,11.0,0.0
1578,69.0,0,90,12.0,0.0
1579,74.0,0,90,10.0,0.0
1580,69.0,0,90,2.0,0.0
1581,69.0,15,90,6.0,0.0
1582,54.0,0,90,14.0,0.0
1583,69.0,0,90,5.0,0.0
1584,50.0,68,120,3.0,0.0
1585,74.0,0,90,1.0,0.0
1586,54.0,0,90,7.0,0.0
1587,69.0,0,90,1.0,0.0
1588,45.0,0,120,3.0,0.0
1589,76.0,0,90,10.0,0.0
1590,73.0,0,60,5.0,0.0
1591,57.0,0,90,13.0,0.0
1592,57.0,0,90,7.0,0.0
1593,69.0,0,90,6.0,0.0
1594,69.0,0,90,12.0,0.0
1595,76.0,0,90,0.0,0.0
1596,76.0,37,60,4.0,0.0
1597,73.0,0,90,11.0,0.0
1598,57.0,0,90,14.0,0.0
1599,69.0,15,90,2.0,0.0
1600,76.0,0,20,4.0,0.0
1601,73.0,30,20,5.0,0.0
1602,62.0,0,90,7.0,0.0
1603,78.0,0,90,0.0,0.0
1604,74.0,0,90,5.0,0.0
1605,62.0,7,90,13.0,0.0
1606,66.0,8,60,2.0,0.0
1607,74.0,22,30,11.0,0.0
1608,69.0,0,90,1.0,0.0
1609,62.0,0,90,14.0,0.0
1610,78.0,0,30,10.0,0.0
1611,69.0,0,90,12.0,0.0
1612,50.0,0,120,3.0,0.0
1613,78.0,0,90,4.0,0.0
1614,69.0,0,90,6.0,0.0
1615,79.0,30,30,10.0,0.0
1616,76.0,0,30,11.0,0.0
1617,62.0,8,60,2.0,0.0
1618,76.0,0,30,10.0,0.0
1619,73.0,15,30,11.0,0.0
1620,78.0,0,30,10.0,0.0
1621,74.0,105,30,11.0,0.0
1622,57.0,120,90,14.0,0.0
1623,73.0,0,210,5.0,0.0
1624,76.0,0,240,0.0,0.0
1625,57.0,0,90,7.0,0.0
1626,73.0,0,240,11.0,0.0
1627,45.0,52,240,3.0,0.0
1628,57.0,0,90,13.0,0.0
1629,76.0,0,210,4.0,0.0
1630,69.0,0,240,2.0,0.0
1631,69.0,0,90,6.0,0.0
1632,76.0,0,240,10.0,0.0
1633,69.0,0,240,1.0,0.0
1634,69.0,0,240,12.0,0.0
1635,45.0,0,120,13.0,0.0
1636,69.0,15,90,6.0,0.0
1637,45.0,0,120,7.0,0.0
1638,45.0,0,120,14.0,0.0
1639,75.0,0,60,5.0,0.0
1640,69.0,7,90,6.0,0.0
1641,78.0,53,60,4.0,0.0
1642,73.0,113,60,5.0,0.0
1643,76.0,0,60,4.0,0.0
1644,78.0,83,90,4.0,0.0
1645,69.0,0,90,6.0,0.0
1646,75.0,0,90,5.0,0.0
1647,67.0,0,90,6.0,0.0
1648,79.0,37,60,4.0,0.0
1649,76.0,15,90,5.0,0.0
1650,79.0,105,20,4.0,0.0
1651,66.0,0,90,6.0,0.0
1652,81.0,67,90,4.0,0.0
1653,78.0,0,90,5.0,0.0
1654,76.0,53,60,5.0,0.0
1655,71.0,7,90,6.0,0.0
1656,79.0,0,60,4.0,0.0
1657,75.0,60,60,5.0,0.0
1658,78.0,0,60,4.0,0.0
1659,71.0,7,90,6.0,0.0
1660,76.0,0,60,5.0,0.0
1661,79.0,53,60,4.0,0.0
1662,78.0,0,60,5.0,0.0
1663,81.0,60,60,4.0,0.0
1664,52.0,0,60,13.0,0.0
1665,52.0,53,60,7.0,0.0
1666,52.0,0,60,14.0,0.0
1667,71.0,0,90,12.0,0.0
1668,71.0,0,90,6.0,0.0
1669,79.0,0,90,5.0,0.0
1670,83.0,7,90,4.0,0.0
1671,83.0,0,90,10.0,0.0
1672,79.0,0,90,11.0,0.0
1673,54.0,98,60,14.0,0.0
1674,54.0,0,60,13.0,0.0
1675,54.0,0,60,7.0,0.0
1676,55.0,0,90,13.0,0.0
1677,71.0,0,90,11.0,0.0
1678,71.0,0,90,6.0,0.0
1679,76.0,15,90,4.0,0.0
1680,76.0,83,90,10.0,0.0
1681,55.0,0,90,14.0,0.0
1682,55.0,0,90,7.0,0.0
1683,71.0,0,90,5.0,0.0
1684,71.0,0,90,12.0,0.0
1685,59.0,0,90,14.0,0.0
1686,78.0,0,60,4.0,0.0
1687,59.0,0,90,7.0,0.0
1688,75.0,37,60,5.0,0.0
1689,71.0,0,90,12.0,0.0
1690,75.0,0,90,11.0,0.0
1691,78.0,0,90,10.0,0.0
1692,71.0,0,90,6.0,0.0
1693,59.0,15,90,13.0,0.0
1694,78.0,0,20,4.0,0.0
1695,75.0,30,20,5.0,0.0
1696,76.0,15,90,5.0,0.0
1697,79.0,0,90,4.0,0.0
1698,71.0,0,90,12.0,0.0
1699,71.0,0,90,6.0,0.0
1700,64.0,0,90,7.0,0.0
1701,79.0,0,30,10.0,0.0
1702,64.0,0,90,14.0,0.0
1703,64.0,0,90,13.0,0.0
1704,76.0,30,30,11.0,0.0
1705,81.0,0,30,10.0,0.0
1706,78.0,30,30,11.0,0.0
1707,75.0,0,30,11.0,0.0
1708,78.0,15,30,10.0,0.0
1709,76.0,0,30,11.0,0.0
1710,79.0,105,30,10.0,0.0
1711,71.0,0,210,6.0,0.0
1712,78.0,67,210,4.0,0.0
1713,75.0,0,210,11.0,0.0
1714,59.0,0,90,7.0,0.0
1715,75.0,0,210,5.0,0.0
1716,59.0,0,90,14.0,0.0
1717,59.0,120,90,13.0,0.0
1718,71.0,0,210,12.0,0.0
1719,78.0,0,210,10.0,0.0
1720,47.0,0,90,14.0,0.0
1721,47.0,0,90,13.0,0.0
1722,47.0,0,90,7.0,0.0
1723,52.0,0,60,14.0,0.0
1724,79.0,53,60,10.0,0.0
1725,52.0,0,60,13.0,0.0
1726,79.0,0,60,4.0,0.0
1727,76.0,0,90,11.0,0.0
1728,76.0,0,90,5.0,0.0
1729,71.0,0,90,6.0,0.0
1730,71.0,7,90,12.0,0.0
1731,52.0,0,60,7.0,0.0
1732,78.0,113,60,4.0,0.0
1733,51.0,0,60,7.0,0.0
1734,78.0,0,60,10.0,0.0
1735,51.0,0,60,13.0,0.0
1736,51.0,0,60,14.0,0.0
1737,79.0,0,90,10.0,0.0
1738,52.0,0,90,14.0,0.0
1739,79.0,120,90,4.0,0.0
1740,52.0,0,90,13.0,0.0
1741,76.0,0,90,11.0,0.0
1742,71.0,0,90,6.0,0.0
1743,52.0,0,90,7.0,0.0
1744,76.0,0,90,5.0,0.0
1745,71.0,0,90,12.0,0.0
1746,81.0,0,90,4.0,0.0
1747,72.0,0,90,12.0,0.0
1748,78.0,0,90,11.0,0.0
1749,45.0,45,90,7.0,0.0
1750,78.0,0,90,5.0,0.0
1751,45.0,0,90,13.0,0.0
1752,45.0,0,90,14.0,0.0
1753,81.0,0,90,10.0,0.0
1754,72.0,0,90,6.0,0.0
1755,75.0,0,90,5.0,0.0
1756,47.0,15,90,7.0,0.0
1757,47.0,0,90,14.0,0.0
1758,78.0,0,90,10.0,0.0
1759,66.0,0,90,6.0,0.0
1760,75.0,0,90,11.0,0.0
1761,78.0,30,30,4.0,0.0
1762,66.0,0,90,12.0,0.0
1763,47.0,0,90,13.0,0.0
1764,79.0,30,30,4.0,0.0
1765,76.0,15,30,4.0,0.0
1766,78.0,52,30,4.0,0.0
1767,42.0,0,90,7.0,0.0
1768,42.0,0,90,14.0,0.0
1769,76.0,53,60,4.0,0.0
1770,69.0,0,90,12.0,0.0
1771,71.0,0,90,11.0,0.0
1772,71.0,0,90,5.0,0.0
1773,76.0,0,60,10.0,0.0
1774,42.0,7,90,13.0,0.0
1775,69.0,0,90,6.0,0.0
1776,75.0,0,60,10.0,0.0
1777,75.0,60,60,4.0,0.0
1778,67.0,0,90,12.0,0.0
1779,43.0,0,90,7.0,0.0
1780,76.0,53,60,10.0,0.0
1781,43.0,0,90,14.0,0.0
1782,71.0,7,90,11.0,0.0
1783,67.0,0,90,6.0,0.0
1784,43.0,0,90,13.0,0.0
1785,76.0,0,60,4.0,0.0
1786,71.0,0,90,5.0,0.0
1787,78.0,0,60,4.0,0.0
1788,78.0,60,60,10.0,0.0
1789,76.0,0,60,5.0,0.0
1790,79.0,0,60,4.0,0.0
1791,71.0,7,90,12.0,0.0
1792,71.0,0,90,6.0,0.0
1793,40.0,0,60,13.0,0.0
1794,76.0,0,60,11.0,0.0
1795,40.0,0,60,7.0,0.0
1796,40.0,53,60,14.0,0.0
1797,79.0,0,60,10.0,0.0
1798,75.0,113,60,5.0,0.0
1799,42.0,0,60,7.0,0.0
1800,81.0,0,60,10.0,0.0
1801,75.0,0,60,11.0,0.0
1802,81.0,0,60,4.0,0.0
1803,42.0,0,60,13.0,0.0
1804,42.0,0,60,14.0,0.0
1805,71.0,0,90,6.0,0.0
1806,43.0,0,90,14.0,0.0
1807,76.0,0,90,11.0,0.0
1808,71.0,0,90,12.0,0.0
1809,83.0,0,90,10.0,0.0
1810,43.0,120,90,7.0,0.0
1811,83.0,0,90,4.0,0.0
1812,43.0,0,90,13.0,0.0
1813,76.0,0,90,5.0,0.0
1814,84.0,0,90,10.0,0.0
1815,64.0,0,90,6.0,0.0
1816,81.0,0,90,11.0,0.0
1817,45.0,0,90,14.0,0.0
1818,84.0,0,90,4.0,0.0
1819,81.0,0,90,5.0,0.0
1820,45.0,0,90,7.0,0.0
1821,64.0,0,90,12.0,0.0
1822,45.0,45,90,13.0,0.0
1823,81.0,30,30,10.0,0.0
1824,81.0,0,30,4.0,0.0
1825,47.0,0,90,13.0,0.0
1826,47.0,0,90,14.0,0.0
1827,75.0,0,30,5.0,0.0
1828,75.0,0,90,11.0,0.0
1829,47.0,15,90,7.0,0.0
1830,71.0,0,90,12.0,0.0
1831,71.0,0,90,6.0,0.0
1832,76.0,30,30,5.0,0.0
1833,83.0,0,30,4.0,0.0
1834,83.0,0,30,10.0,0.0
1835,79.0,0,30,10.0,0.0
1836,73.0,0,30,5.0,0.0
1837,79.0,15,30,4.0,0.0
1838,81.0,0,30,4.0,0.0
1839,75.0,0,30,5.0,0.0
1840,81.0,52,30,10.0,0.0
1841,79.0,0,210,10.0,0.0
1842,71.0,0,210,12.0,0.0
1843,76.0,0,210,5.0,0.0
1844,79.0,0,210,4.0,0.0
1845,52.0,0,60,7.0,0.0
1846,76.0,0,210,11.0,0.0
1847,52.0,0,60,13.0,0.0
1848,71.0,0,210,6.0,0.0
1849,52.0,60,60,14.0,0.0
1850,51.0,0,60,7.0,0.0
1851,51.0,113,60,13.0,0.0
1852,51.0,0,60,14.0,0.0
1853,52.0,0,90,7.0,0.0
1854,52.0,67,90,13.0,0.0
1855,52.0,0,90,14.0,0.0
1856,70.0,0,90,11.0,0.0
1857,49.0,0,90,14.0,0.0
1858,73.0,0,90,6.0,0.0
1859,78.0,0,60,4.0,0.0
1860,49.0,0,90,13.0,0.0
1861,73.0,0,90,12.0,0.0
1862,78.0,53,60,10.0,0.0
1863,49.0,0,90,7.0,0.0
1864,70.0,7,90,5.0,0.0
1865,76.0,0,60,4.0,0.0
1866,76.0,113,60,10.0,0.0
1867,50.0,0,90,13.0,0.0
1868,71.0,0,90,11.0,0.0
1869,78.0,0,90,4.0,0.0
1870,78.0,0,90,10.0,0.0
1871,66.0,0,90,6.0,0.0
1872,50.0,0,90,14.0,0.0
1873,71.0,120,90,5.0,0.0
1874,66.0,0,90,12.0,0.0
1875,50.0,0,90,7.0,0.0
1876,47.0,0,90,14.0,0.0
1877,79.0,0,90,10.0,0.0
1878,74.0,45,90,5.0,0.0
1879,79.0,0,90,4.0,0.0
1880,71.0,0,90,12.0,0.0
1881,47.0,0,90,7.0,0.0
1882,71.0,0,90,6.0,0.0
1883,47.0,0,90,13.0,0.0
1884,74.0,0,90,11.0,0.0
1885,76.0,0,30,10.0,0.0
1886,49.0,0,90,13.0,0.0
1887,49.0,15,90,14.0,0.0
1888,73.0,0,90,11.0,0.0
1889,76.0,30,30,4.0,0.0
1890,70.0,0,90,6.0,0.0
1891,49.0,0,90,7.0,0.0
1892,70.0,0,90,12.0,0.0
1893,73.0,0,90,5.0,0.0
1894,78.0,30,30,10.0,0.0
1895,78.0,0,30,4.0,0.0
1896,74.0,15,30,4.0,0.0
1897,74.0,0,30,10.0,0.0
1898,76.0,52,30,4.0,0.0
1899,76.0,0,30,10.0,0.0
1900,73.0,0,90,6.0,0.0
1901,46.0,0,90,14.0,0.0
1902,66.0,7,90,11.0,0.0
1903,46.0,0,90,7.0,0.0
1904,66.0,0,90,5.0,0.0
1905,74.0,53,60,4.0,0.0
1906,73.0,0,90,12.0,0.0
1907,74.0,0,60,10.0,0.0
1908,46.0,0,90,13.0,0.0
1909,73.0,60,60,4.0,0.0
1910,73.0,0,60,10.0,0.0
1911,71.0,7,90,11.0,0.0
1912,47.0,0,90,14.0,0.0
1913,74.0,0,60,10.0,0.0
1914,71.0,0,90,5.0,0.0
1915,47.0,0,90,7.0,0.0
1916,74.0,53,60,4.0,0.0
1917,66.0,0,90,12.0,0.0
1918,47.0,0,90,13.0,0.0
1919,66.0,0,90,6.0,0.0
1920,76.0,60,60,4.0,0.0
1921,76.0,0,60,10.0,0.0
1922,50.0,0,90,14.0,0.0
1923,71.0,0,90,5.0,0.0
1924,78.0,0,60,4.0,0.0
1925,50.0,0,90,13.0,0.0
1926,66.0,0,90,12.0,0.0
1927,66.0,0,90,6.0,0.0
1928,71.0,7,90,11.0,0.0
1929,50.0,0,90,7.0,0.0
1930,78.0,53,60,10.0,0.0
1931,80.0,113,60,4.0,0.0
1932,80.0,0,60,10.0,0.0
1933,76.0,0,90,11.0,0.0
1934,82.0,0,90,4.0,0.0
1935,82.0,0,90,10.0,0.0
1936,66.0,0,90,12.0,0.0
1937,49.0,0,90,7.0,0.0
1938,66.0,0,90,6.0,0.0
1939,76.0,120,90,5.0,0.0
1940,49.0,0,90,13.0,0.0
1941,49.0,0,90,14.0,0.0
1942,74.0,0,90,11.0,0.0
1943,47.0,0,90,14.0,0.0
1944,74.0,0,90,5.0,0.0
1945,66.0,0,90,12.0,0.0
1946,47.0,0,90,13.0,0.0
1947,83.0,0,90,4.0,0.0
1948,83.0,0,90,10.0,0.0
1949,66.0,0,90,6.0,0.0
1950,47.0,45,90,7.0,0.0
1951,67.0,0,90,6.0,0.0
1952,73.0,0,90,5.0,0.0
1953,73.0,0,30,4.0,0.0
1954,52.0,15,90,7.0,0.0
1955,73.0,0,90,11.0,0.0
1956,52.0,0,90,14.0,0.0
1957,52.0,0,90,13.0,0.0
1958,73.0,30,30,10.0,0.0
1959,67.0,0,90,12.0,0.0
1960,74.0,30,30,4.0,0.0
1961,74.0,0,30,10.0,0.0
1962,71.0,0,30,4.0,0.0
1963,71.0,15,30,10.0,0.0
1964,73.0,0,30,4.0,0.0
1965,73.0,52,30,10.0,0.0
1966,54.0,0,90,7.0,0.0
1967,71.0,0,60,4.0,0.0
1968,71.0,0,60,10.0,0.0
1969,74.0,0,60,11.0,0.0
1970,54.0,7,90,13.0,0.0
1971,66.0,0,90,12.0,0.0
1972,66.0,0,90,6.0,0.0
1973,74.0,53,60,5.0,0.0
1974,54.0,0,90,14.0,0.0
1975,76.0,0,60,11.0,0.0
1976,70.0,60,60,10.0,0.0
1977,76.0,0,60,5.0,0.0
1978,70.0,0,60,4.0,0.0
1979,71.0,53,60,4.0,0.0
1980,71.0,0,90,6.0,0.0
1981,55.0,0,90,7.0,0.0
1982,55.0,7,90,14.0,0.0
1983,55.0,0,90,13.0,0.0
1984,71.0,0,60,10.0,0.0
1985,74.0,0,90,5.0,0.0
1986,74.0,0,90,11.0,0.0
1987,59.0,0,90,12.0,0.0
1988,73.0,0,60,10.0,0.0
1989,73.0,60,60,4.0,0.0
1990,74.0,0,60,10.0,0.0
1991,71.0,0,90,11.0,0.0
1992,54.0,0,60,14.0,0.0
1993,54.0,0,60,13.0,0.0
1994,67.0,7,90,12.0,0.0
1995,54.0,0,60,7.0,0.0
1996,74.0,53,60,4.0,0.0
1997,71.0,0,90,5.0,0.0
1998,67.0,0,90,6.0,0.0
1999,52.0,0,60,13.0,0.0
2000,76.0,0,60,10.0,0.0
2001,76.0,0,60,4.0,0.0
2002,52.0,113,60,14.0,0.0
2003,52.0,0,60,7.0,0.0
2004,50.0,0,90,14.0,0.0
2005,78.0,0,90,10.0,0.0
2006,50.0,120,90,7.0,0.0
2007,66.0,0,90,12.0,0.0
2008,50.0,0,90,13.0,0.0
2009,71.0,0,90,11.0,0.0
2010,78.0,0,90,4.0,0.0
2011,71.0,0,90,5.0,0.0
2012,66.0,0,90,6.0,0.0
2013,52.0,0,90,7.0,0.0
2014,52.0,0,90,13.0,0.0
2015,52.0,0,90,14.0,0.0
2016,76.0,45,90,11.0,0.0
2017,76.0,0,90,5.0,0.0
2018,71.0,0,90,6.0,0.0
2019,79.0,0,90,4.0,0.0
2020,59.0,0,90,12.0,0.0
2021,79.0,0,90,10.0,0.0
2022,66.0,0,240,12.0,0.0
2023,70.0,30,30,4.0,0.0
2024,54.0,0,240,14.0,0.0
2025,66.0,172,240,6.0,0.0
2026,73.0,0,240,5.0,0.0
2027,54.0,0,240,7.0,0.0
2028,73.0,0,240,11.0,0.0
2029,54.0,0,240,13.0,0.0
2030,70.0,0,30,10.0,0.0
2031,71.0,0,30,10.0,0.0
2032,71.0,30,30,4.0,0.0
2033,68.0,0,30,10.0,0.0
2034,68.0,30,30,4.0,0.0
2035,70.0,52,30,10.0,0.0
2036,70.0,0,30,4.0,0.0
2037,68.0,0,60,4.0,0.0
2038,68.0,60,60,10.0,0.0
2039,66.0,0,60,4.0,0.0
2040,66.0,8,60,10.0,0.0
2041,76.0,0,180,4.0,0.0
2042,76.0,45,180,10.0,0.0
2043,66.0,0,90,6.0,0.0
2044,66.0,0,90,12.0,0.0
2045,47.0,0,60,7.0,0.0
2046,73.0,7,90,5.0,0.0
2047,73.0,0,90,11.0,0.0
2048,47.0,8,60,13.0,0.0
2049,47.0,0,60,14.0,0.0
2050,46.0,0,60,13.0,0.0
2051,46.0,0,60,14.0,0.0
2052,46.0,113,60,7.0,0.0
2053,74.0,45,180,4.0,0.0
2054,74.0,0,90,11.0,0.0
2055,47.0,0,90,7.0,0.0
2056,66.0,0,90,12.0,0.0
2057,66.0,0,90,6.0,0.0
2058,74.0,0,180,10.0,0.0
2059,47.0,0,90,13.0,0.0
2060,74.0,75,90,5.0,0.0
2061,47.0,0,90,14.0,0.0
2062,49.0,0,90,14.0,0.0
2063,66.0,0,90,12.0,0.0
2064,76.0,0,90,11.0,0.0
2065,49.0,0,90,7.0,0.0
2066,49.0,0,90,13.0,0.0
2067,76.0,45,90,5.0,0.0
2068,66.0,0,90,6.0,0.0
2069,66.0,0,240,6.0,0.0
2070,73.0,0,240,5.0,0.0
2071,46.0,30,30,14.0,0.0
2072,66.0,0,240,12.0,0.0
2073,46.0,0,30,7.0,0.0
2074,46.0,0,30,13.0,0.0
2075,73.0,30,240,11.0,0.0
2076,47.0,30,30,14.0,0.0
2077,47.0,0,30,7.0,0.0
2078,47.0,0,30,13.0,0.0
2079,44.0,0,30,14.0,0.0
2080,44.0,30,30,7.0,0.0
2081,44.0,0,30,13.0,0.0
2082,46.0,52,30,13.0,0.0
2083,46.0,0,30,7.0,0.0
2084,46.0,0,30,14.0,0.0
2085,44.0,0,60,13.0,0.0
2086,44.0,53,60,14.0,0.0
2087,44.0,0,60,7.0,0.0
2088,76.0,7,90,4.0,0.0
2089,76.0,0,90,10.0,0.0
2090,42.0,8,60,13.0,0.0
2091,42.0,0,60,14.0,0.0
2092,42.0,0,60,7.0,0.0
2093,54.0,45,180,13.0,0.0
2094,73.0,0,30,4.0,0.0
2095,54.0,0,180,7.0,0.0
2096,73.0,30,30,10.0,0.0
2097,54.0,0,180,14.0,0.0
2098,74.0,0,30,4.0,0.0
2099,74.0,30,30,10.0,0.0
2100,71.0,0,30,4.0,0.0
2101,71.0,30,30,10.0,0.0
2102,73.0,52,30,10.0,0.0
2103,73.0,0,30,4.0,0.0
2104,71.0,8,60,10.0,0.0
2105,66.0,7,90,12.0,0.0
2106,71.0,0,60,4.0,0.0
2107,73.0,0,90,5.0,0.0
2108,73.0,0,90,11.0,0.0
2109,66.0,0,90,6.0,0.0
2110,70.0,113,60,10.0,0.0
2111,70.0,0,60,4.0,0.0
2112,70.0,0,90,12.0,0.0
2113,52.0,0,180,13.0,0.0
2114,79.0,0,180,4.0,0.0
2115,79.0,0,180,10.0,0.0
2116,70.0,0,90,6.0,0.0
2117,73.0,0,90,11.0,0.0
2118,73.0,67,90,5.0,0.0
2119,52.0,45,180,14.0,0.0
2120,52.0,0,180,7.0,0.0
2121,71.0,0,60,11.0,0.0
2122,73.0,0,90,6.0,0.0
2123,73.0,7,90,12.0,0.0
2124,71.0,8,60,5.0,0.0
2125,70.0,0,60,11.0,0.0
2126,70.0,180,60,5.0,0.0
2127,71.0,0,240,5.0,0.0
2128,62.0,105,240,12.0,0.0
2129,78.0,52,180,4.0,0.0
2130,71.0,0,240,11.0,0.0
2131,74.0,0,240,6.0,0.0
2132,78.0,0,180,10.0,0.0
2133,50.0,0,60,14.0,0.0
2134,50.0,0,60,13.0,0.0
2135,50.0,8,60,7.0,0.0
2136,49.0,8,60,13.0,0.0
2137,49.0,0,60,7.0,0.0
2138,49.0,0,60,14.0,0.0
2139,50.0,0,90,7.0,0.0
2140,50.0,120,90,14.0,0.0
2141,50.0,0,90,13.0,0.0
2142,71.0,0,90,11.0,0.0
2143,52.0,0,90,14.0,0.0
2144,52.0,45,90,13.0,0.0
2145,64.0,0,90,6.0,0.0
2146,79.0,0,90,10.0,0.0
2147,71.0,0,90,5.0,0.0
2148,52.0,0,90,7.0,0.0
2149,64.0,0,90,12.0,0.0
2150,79.0,0,90,4.0,0.0
2151,70.0,0,90,5.0,0.0
2152,49.0,0,30,7.0,0.0
2153,64.0,0,90,12.0,0.0
2154,49.0,0,30,13.0,0.0
2155,76.0,30,30,4.0,0.0
2156,64.0,0,90,6.0,0.0
2157,49.0,0,30,14.0,0.0
2158,70.0,15,90,11.0,0.0
2159,76.0,0,30,10.0,0.0
2160,50.0,0,30,13.0,0.0
2161,50.0,0,30,7.0,0.0
2162,50.0,30,30,14.0,0.0
2163,78.0,0,30,10.0,0.0
2164,78.0,0,30,4.0,0.0
2165,74.0,0,30,4.0,0.0
2166,47.0,0,30,7.0,0.0
2167,47.0,0,30,13.0,0.0
2168,74.0,0,30,10.0,0.0
2169,47.0,15,30,14.0,0.0
2170,76.0,0,30,4.0,0.0
2171,49.0,0,30,7.0,0.0
2172,76.0,0,30,10.0,0.0
2173,49.0,0,30,13.0,0.0
2174,49.0,52,30,14.0,0.0
2175,74.0,53,60,10.0,0.0
2176,47.0,0,60,13.0,0.0
2177,74.0,0,60,4.0,0.0
2178,71.0,0,90,5.0,0.0
2179,66.0,7,90,12.0,0.0
2180,47.0,0,60,14.0,0.0
2181,66.0,0,90,6.0,0.0
2182,47.0,0,60,7.0,0.0
2183,71.0,0,90,11.0,0.0
2184,73.0,0,60,10.0,0.0
2185,46.0,0,60,7.0,0.0
2186,46.0,188,60,13.0,0.0
2187,46.0,0,60,14.0,0.0
2188,73.0,0,60,4.0,0.0
2189,53.0,0,210,13.0,0.0
2190,68.0,0,210,12.0,0.0
2191,73.0,67,330,5.0,0.0
2192,53.0,0,210,14.0,0.0
2193,68.0,0,210,6.0,0.0
2194,53.0,120,210,7.0,0.0
2195,73.0,0,330,11.0,0.0
2196,83.0,0,180,10.0,0.0
2197,83.0,45,180,4.0,0.0
2198,54.0,0,90,13.0,0.0
2199,54.0,0,90,14.0,0.0
2200,82.0,0,90,10.0,0.0
2201,82.0,0,90,4.0,0.0
2202,66.0,0,90,6.0,0.0
2203,54.0,0,90,7.0,0.0
2204,66.0,0,90,12.0,0.0
2205,70.0,0,90,12.0,0.0
2206,42.0,0,90,7.0,0.0
2207,42.0,0,90,13.0,0.0
2208,42.0,0,90,14.0,0.0
2209,83.0,53,60,4.0,0.0
2210,83.0,0,60,10.0,0.0
2211,76.0,0,90,11.0,0.0
2212,70.0,0,90,6.0,0.0
2213,76.0,7,90,5.0,0.0
2214,85.0,0,60,10.0,0.0
2215,85.0,113,60,4.0,0.0
2216,74.0,0,90,5.0,0.0
2217,71.0,120,90,12.0,0.0
2218,44.0,0,90,7.0,0.0
2219,44.0,0,90,14.0,0.0
2220,78.0,0,90,10.0,0.0
2221,74.0,0,90,11.0,0.0
2222,44.0,0,90,13.0,0.0
2223,71.0,0,90,6.0,0.0
2224,78.0,0,90,4.0,0.0
2225,73.0,0,90,6.0,0.0
2226,46.0,0,90,14.0,0.0
2227,73.0,0,90,12.0,0.0
2228,76.0,0,90,10.0,0.0
2229,46.0,0,90,7.0,0.0
2230,76.0,0,90,4.0,0.0
2231,73.0,45,90,11.0,0.0
2232,73.0,0,90,5.0,0.0
2233,46.0,0,90,13.0,0.0
2234,47.0,0,90,14.0,0.0
2235,66.0,0,90,6.0,0.0
2236,66.0,0,90,12.0,0.0
2237,47.0,0,90,7.0,0.0
2238,47.0,0,90,13.0,0.0
2239,74.0,30,30,10.0,0.0
2240,71.0,0,90,5.0,0.0
2241,74.0,0,90,4.0,0.0
2242,71.0,15,90,11.0,0.0
2243,76.0,30,30,10.0,0.0
2244,73.0,15,30,10.0,0.0
2245,74.0,52,30,10.0,0.0
2246,66.0,7,90,12.0,0.0
2247,50.0,0,90,14.0,0.0
2248,50.0,0,90,13.0,0.0
2249,66.0,0,90,11.0,0.0
2250,73.0,0,60,4.0,0.0
2251,50.0,0,90,7.0,0.0
2252,73.0,53,60,10.0,0.0
2253,66.0,0,90,5.0,0.0
2254,66.0,0,90,6.0,0.0
2255,71.0,0,60,10.0,0.0
2256,71.0,113,60,4.0,0.0
2257,52.0,0,90,13.0,0.0
2258,52.0,0,90,7.0,0.0
2259,64.0,15,90,6.0,0.0
2260,52.0,0,90,14.0,0.0
2261,64.0,0,90,12.0,0.0
2262,73.0,0,90,4.0,0.0
2263,67.0,0,90,5.0,0.0
2264,67.0,0,90,11.0,0.0
2265,73.0,52,120,10.0,0.0
2266,66.0,0,90,11.0,0.0
2267,54.0,0,90,7.0,0.0
2268,66.0,0,90,5.0,0.0
2269,64.0,7,90,12.0,0.0
2270,83.0,0,60,4.0,0.0
2271,64.0,0,90,6.0,0.0
2272,83.0,53,60,10.0,0.0
2273,54.0,0,90,14.0,0.0
2274,54.0,0,90,13.0,0.0
2275,82.0,113,60,4.0,0.0
2276,82.0,0,60,10.0,0.0
2277,83.0,0,90,4.0,0.0
2278,71.0,0,90,5.0,0.0
2279,83.0,0,90,10.0,0.0
2280,62.0,0,90,12.0,0.0
2281,55.0,0,90,13.0,0.0
2282,71.0,0,90,11.0,0.0
2283,55.0,0,90,7.0,0.0
2284,55.0,0,90,14.0,0.0
2285,62.0,120,90,6.0,0.0
2286,52.0,0,90,13.0,0.0
2287,76.0,0,90,5.0,0.0
2288,67.0,0,90,6.0,0.0
2289,67.0,0,90,12.0,0.0
2290,52.0,0,90,14.0,0.0
2291,76.0,0,90,11.0,0.0
2292,85.0,0,90,4.0,0.0
2293,52.0,45,90,7.0,0.0
2294,85.0,0,90,10.0,0.0
2295,76.0,0,30,4.0,0.0
2296,66.0,0,90,12.0,0.0
2297,58.0,0,90,13.0,0.0
2298,66.0,15,90,6.0,0.0
2299,58.0,0,90,14.0,0.0
2300,58.0,0,90,7.0,0.0
2301,73.0,30,30,5.0,0.0
2302,76.0,0,30,10.0,0.0
2303,73.0,0,90,11.0,0.0
2304,78.0,0,30,4.0,0.0
2305,74.0,0,30,5.0,0.0
2306,78.0,30,30,10.0,0.0
2307,74.0,0,30,4.0,0.0
2308,71.0,15,30,5.0,0.0
2309,74.0,0,30,10.0,0.0
2310,76.0,0,30,10.0,0.0
2311,76.0,0,30,4.0,0.0
2312,73.0,52,30,5.0,0.0
2313,54.0,0,90,7.0,0.0
2314,66.0,0,90,6.0,0.0
2315,74.0,0,60,4.0,0.0
2316,74.0,0,60,10.0,0.0
2317,71.0,0,60,5.0,0.0
2318,66.0,7,90,12.0,0.0
2319,71.0,53,60,11.0,0.0
2320,54.0,0,90,13.0,0.0
2321,54.0,0,90,14.0,0.0
2322,70.0,0,60,11.0,0.0
2323,73.0,0,60,10.0,0.0
2324,73.0,60,60,4.0,0.0
2325,70.0,0,60,5.0,0.0
2326,74.0,53,60,10.0,0.0
2327,71.0,0,90,5.0,0.0
2328,66.0,0,90,6.0,0.0
2329,66.0,7,90,12.0,0.0
2330,59.0,0,90,14.0,0.0
2331,59.0,0,90,7.0,0.0
2332,71.0,0,90,11.0,0.0
2333,74.0,0,60,4.0,0.0
2334,59.0,0,90,13.0,0.0
2335,76.0,0,60,4.0,0.0
2336,76.0,60,60,10.0,0.0
2337,50.0,0,90,7.0,0.0
2338,50.0,7,90,13.0,0.0
2339,71.0,0,90,11.0,0.0
2340,66.0,0,90,12.0,0.0
2341,66.0,0,90,6.0,0.0
2342,50.0,0,90,14.0,0.0
2343,78.0,0,60,10.0,0.0
2344,78.0,53,60,4.0,0.0
2345,71.0,0,90,5.0,0.0
2346,80.0,113,60,4.0,0.0
2347,80.0,0,60,10.0,0.0
2348,82.0,0,90,4.0,0.0
2349,49.0,120,90,7.0,0.0
2350,76.0,0,90,5.0,0.0
2351,49.0,0,90,14.0,0.0
2352,82.0,0,90,10.0,0.0
2353,73.0,0,90,12.0,0.0
2354,49.0,0,90,13.0,0.0
2355,76.0,0,90,11.0,0.0
2356,73.0,0,90,6.0,0.0
2357,74.0,0,90,11.0,0.0
2358,66.0,0,90,6.0,0.0
2359,83.0,45,90,10.0,0.0
2360,47.0,0,90,7.0,0.0
2361,47.0,0,90,14.0,0.0
2362,47.0,0,90,13.0,0.0
2363,66.0,0,90,12.0,0.0
2364,74.0,0,90,5.0,0.0
2365,83.0,0,90,4.0,0.0
2366,64.0,0,90,12.0,0.0
2367,73.0,0,90,10.0,0.0
2368,52.0,0,90,7.0,0.0
2369,52.0,15,90,14.0,0.0
2370,64.0,0,90,6.0,0.0
2371,67.0,0,90,11.0,0.0
2372,67.0,0,90,5.0,0.0
2373,73.0,30,30,4.0,0.0
2374,52.0,0,90,13.0,0.0
2375,74.0,30,30,4.0,0.0
2376,71.0,15,30,4.0,0.0
2377,73.0,52,30,4.0,0.0
2378,54.0,7,90,7.0,0.0
2379,71.0,53,60,10.0,0.0
2380,54.0,0,90,13.0,0.0
2381,62.0,0,60,12.0,0.0
2382,66.0,0,60,5.0,0.0
2383,66.0,0,60,11.0,0.0
2384,71.0,0,60,4.0,0.0
2385,54.0,0,90,14.0,0.0
2386,62.0,0,90,6.0,0.0
2387,70.0,0,60,4.0,0.0
2388,61.0,113,60,12.0,0.0
2389,64.0,0,60,5.0,0.0
2390,70.0,0,60,10.0,0.0
2391,64.0,0,60,11.0,0.0
2392,71.0,0,90,10.0,0.0
2393,59.0,0,90,12.0,0.0
2394,62.0,0,90,11.0,0.0
2395,62.0,0,90,5.0,0.0
2396,62.0,120,90,6.0,0.0
2397,55.0,0,90,7.0,0.0
2398,55.0,0,90,13.0,0.0
2399,71.0,0,90,4.0,0.0
2400,55.0,0,90,14.0,0.0
2401,52.0,0,90,7.0,0.0
2402,52.0,0,90,13.0,0.0
2403,64.0,0,90,6.0,0.0
2404,73.0,0,90,10.0,0.0
2405,52.0,0,90,14.0,0.0
2406,64.0,0,90,12.0,0.0
2407,67.0,0,90,11.0,0.0
2408,67.0,0,90,5.0,0.0
2409,73.0,120,90,4.0,0.0
2410,54.0,120,90,7.0,0.0
2411,54.0,0,90,13.0,0.0
2412,61.0,0,90,12.0,0.0
2413,54.0,0,90,14.0,0.0
2414,66.0,0,90,4.0,0.0
2415,66.0,0,90,11.0,0.0
2416,66.0,0,90,10.0,0.0
2417,64.0,0,90,6.0,0.0
2418,66.0,0,90,5.0,0.0
2419,64.0,0,90,6.0,0.0
2420,70.0,0,90,4.0,0.0
2421,66.0,0,90,5.0,0.0
2422,70.0,0,90,10.0,0.0
2423,42.0,0,90,14.0,0.0
2424,66.0,0,90,11.0,0.0
2425,42.0,0,90,7.0,0.0
2426,61.0,0,90,12.0,0.0
2427,42.0,255,90,13.0,0.0
2428,62.0,0,240,12.0,0.0
2429,62.0,0,240,6.0,0.0
2430,71.0,0,240,10.0,0.0
2431,66.0,0,240,11.0,0.0
2432,47.0,0,240,14.0,0.0
2433,47.0,0,240,13.0,0.0
2434,71.0,172,240,4.0,0.0
2435,66.0,0,240,5.0,0.0
2436,47.0,0,240,7.0,0.0
2437,59.0,0,90,12.0,0.0
2438,62.0,0,60,11.0,0.0
2439,74.0,7,90,0.0,0.0
2440,66.0,53,60,10.0,0.0
2441,61.0,0,60,11.0,0.0
2442,64.0,113,60,10.0,0.0
2443,74.0,0,90,0.0,0.0
2444,62.0,120,90,11.0,0.0
2445,66.0,0,90,10.0,0.0
2446,57.0,0,90,12.0,0.0
2447,67.0,0,90,10.0,0.0
2448,74.0,0,90,0.0,0.0
2449,55.0,0,90,12.0,0.0
2450,62.0,120,90,11.0,0.0
2451,62.0,67,90,11.0,0.0
2452,69.0,0,90,10.0,0.0
2453,54.0,0,90,12.0,0.0
2454,74.0,0,90,0.0,0.0
2455,72.0,0,60,10.0,0.0
2456,54.0,7,90,12.0,0.0
2457,74.0,0,90,0.0,0.0
2458,69.0,53,60,11.0,0.0
2459,67.0,113,60,11.0,0.0
2460,71.0,0,60,10.0,0.0
2461,54.0,0,90,12.0,0.0
2462,72.0,0,90,10.0,0.0
2463,74.0,0,90,0.0,0.0
2464,69.0,67,90,11.0,0.0
2465,54.0,0,90,12.0,0.0
2466,74.0,0,90,2.0,0.0
2467,81.0,0,90,4.0,0.0
2468,50.0,0,90,13.0,0.0
2469,62.0,53,60,11.0,0.0
2470,66.0,0,90,6.0,0.0
2471,81.0,0,90,10.0,0.0
2472,50.0,0,90,14.0,0.0
2473,74.0,0,90,1.0,0.0
2474,74.0,0,90,0.0,0.0
2475,50.0,7,90,7.0,0.0
2476,62.0,0,60,5.0,0.0
2477,64.0,0,60,5.0,0.0
2478,64.0,60,60,11.0,0.0
2479,57.0,0,90,12.0,0.0
2480,69.0,0,90,4.0,0.0
2481,62.0,0,90,14.0,0.0
2482,62.0,0,90,7.0,0.0
2483,74.0,7,90,1.0,0.0
2484,66.0,0,90,6.0,0.0
2485,62.0,0,90,13.0,0.0
2486,74.0,0,90,2.0,0.0
2487,66.0,0,60,11.0,0.0
2488,69.0,0,60,10.0,0.0
2489,66.0,53,60,5.0,0.0
2490,74.0,0,90,0.0,0.0
2491,67.0,113,60,5.0,0.0
2492,67.0,0,60,11.0,0.0
2493,71.0,0,60,10.0,0.0
2494,69.0,0,90,5.0,0.0
2495,50.0,0,90,14.0,0.0
2496,72.0,0,90,4.0,0.0
2497,74.0,0,90,0.0,0.0
2498,50.0,0,90,13.0,0.0
2499,66.0,0,90,6.0,0.0
2500,74.0,0,90,2.0,0.0
2501,54.0,0,90,12.0,0.0
2502,50.0,0,90,7.0,0.0
2503,72.0,0,90,10.0,0.0
2504,69.0,0,90,11.0,0.0
2505,74.0,45,90,1.0,0.0
2506,72.0,0,30,4.0,0.0
2507,74.0,105,240,2.0,0.0
2508,69.0,0,30,11.0,0.0
2509,62.0,0,90,6.0,0.0
2510,74.0,0,240,1.0,0.0
2511,74.0,0,240,0.0,0.0
2512,50.0,15,90,12.0,0.0
2513,69.0,0,30,5.0,0.0
2514,55.0,0,90,13.0,0.0
2515,55.0,0,90,14.0,0.0
2516,55.0,0,90,7.0,0.0
2517,72.0,30,30,10.0,0.0
2518,71.0,0,30,5.0,0.0
2519,74.0,0,30,10.0,0.0
2520,71.0,0,30,11.0,0.0
2521,74.0,30,30,4.0,0.0
2522,67.0,0,30,11.0,0.0
2523,67.0,15,30,5.0,0.0
2524,71.0,0,30,4.0,0.0
2525,71.0,0,30,10.0,0.0
2526,69.0,0,30,5.0,0.0
2527,69.0,0,30,11.0,0.0
2528,72.0,105,30,4.0,0.0
2529,72.0,0,30,10.0,0.0
2530,71.0,15,210,10.0,0.0
2531,50.0,0,90,13.0,0.0
2532,71.0,0,240,4.0,0.0
2533,50.0,0,90,7.0,0.0
2534,55.0,0,90,12.0,0.0
2535,50.0,15,90,14.0,0.0
2536,67.0,0,240,5.0,0.0
2537,62.0,0,240,6.0,0.0
2538,67.0,0,210,11.0,0.0
2539,43.0,0,120,7.0,0.0
2540,43.0,52,120,13.0,0.0
2541,55.0,0,90,12.0,0.0
2542,43.0,0,120,14.0,0.0
2543,67.0,53,60,11.0,0.0
2544,76.0,7,90,0.0,0.0
2545,71.0,0,60,10.0,0.0
2546,55.0,0,90,12.0,0.0
2547,66.0,0,60,11.0,0.0
2548,69.0,113,60,10.0,0.0
2549,67.0,0,90,11.0,0.0
2550,55.0,120,90,12.0,0.0
2551,71.0,0,90,10.0,0.0
2552,76.0,0,90,0.0,0.0
2553,76.0,0,90,0.0,0.0
2554,69.0,0,90,11.0,0.0
2555,73.0,0,90,10.0,0.0
2556,55.0,120,90,12.0,0.0
2557,71.0,0,90,11.0,0.0
2558,74.0,0,90,10.0,0.0
2559,76.0,67,90,0.0,0.0
2560,56.0,0,90,12.0,0.0
2561,56.0,7,90,12.0,0.0
2562,74.0,0,60,11.0,0.0
2563,76.0,0,90,0.0,0.0
2564,78.0,53,60,10.0,0.0
2565,73.0,113,60,11.0,0.0
2566,76.0,0,60,10.0,0.0
2567,71.0,0,90,11.0,0.0
2568,76.0,0,90,0.0,0.0
2569,74.0,0,90,10.0,0.0
2570,56.0,67,90,12.0,0.0
2571,64.0,53,60,11.0,0.0
2572,64.0,0,60,5.0,0.0
2573,52.0,0,90,13.0,0.0
2574,83.0,0,90,10.0,0.0
2575,52.0,0,90,7.0,0.0
2576,76.0,0,90,1.0,0.0
2577,83.0,7,90,4.0,0.0
2578,68.0,0,90,6.0,0.0
2579,76.0,0,90,0.0,0.0
2580,56.0,0,90,12.0,0.0
2581,52.0,0,90,14.0,0.0
2582,76.0,0,90,2.0,0.0
2583,66.0,60,60,11.0,0.0
2584,66.0,0,60,5.0,0.0
2585,68.0,0,60,11.0,0.0
2586,64.0,0,90,14.0,0.0
2587,59.0,0,90,12.0,0.0
2588,76.0,0,90,0.0,0.0
2589,68.0,0,90,6.0,0.0
2590,76.0,0,90,2.0,0.0
2591,76.0,0,90,1.0,0.0
2592,68.0,0,60,5.0,0.0
2593,64.0,7,90,13.0,0.0
2594,64.0,0,90,7.0,0.0
2595,71.0,53,60,10.0,0.0
2596,71.0,0,90,4.0,0.0
2597,69.0,60,60,5.0,0.0
2598,69.0,0,60,11.0,0.0
2599,73.0,0,60,10.0,0.0
2600,71.0,53,60,11.0,0.0
2601,74.0,0,90,10.0,0.0
2602,74.0,0,90,4.0,0.0
2603,71.0,0,90,5.0,0.0
2604,56.0,7,90,12.0,0.0
2605,76.0,0,90,0.0,0.0
2606,52.0,0,90,14.0,0.0
2607,76.0,0,90,2.0,0.0
2608,52.0,0,90,13.0,0.0
2609,68.0,0,90,6.0,0.0
2610,52.0,0,90,7.0,0.0
2611,76.0,0,90,1.0,0.0
2612,73.0,38,60,11.0,0.0
2613,64.0,0,90,12.0,0.0
2614,57.0,0,90,13.0,0.0
2615,57.0,0,90,14.0,0.0
2616,76.0,105,240,2.0,0.0
2617,71.0,30,30,11.0,0.0
2618,74.0,0,30,4.0,0.0
2619,57.0,0,90,7.0,0.0
2620,74.0,0,30,10.0,0.0
2621,71.0,0,30,5.0,0.0
2622,76.0,0,240,1.0,0.0
2623,45.0,0,240,3.0,0.0
2624,64.0,15,90,6.0,0.0
2625,76.0,0,240,0.0,0.0
2626,73.0,0,30,5.0,0.0
2627,76.0,0,30,10.0,0.0
2628,76.0,0,30,4.0,0.0
2629,73.0,30,30,11.0,0.0
2630,69.0,0,30,11.0,0.0
2631,73.0,0,30,4.0,0.0
2632,73.0,15,30,10.0,0.0
2633,69.0,0,30,5.0,0.0
2634,74.0,0,30,4.0,0.0
2635,71.0,0,30,11.0,0.0
2636,74.0,0,30,10.0,0.0
2637,71.0,105,30,5.0,0.0
2638,64.0,0,210,6.0,0.0
2639,73.0,0,210,4.0,0.0
2640,52.0,0,90,14.0,0.0
2641,52.0,0,90,7.0,0.0
2642,64.0,0,210,12.0,0.0
2643,73.0,0,210,10.0,0.0
2644,69.0,0,210,5.0,0.0
2645,69.0,0,210,11.0,0.0
2646,52.0,15,90,13.0,0.0
2647,45.0,0,90,13.0,0.0
2648,45.0,0,90,14.0,0.0
2649,45.0,67,90,7.0,0.0
2650,64.0,0,60,12.0,0.0
2651,81.0,0,60,0.0,0.0
2652,45.0,0,90,14.0,0.0
2653,81.0,0,60,10.0,0.0
2654,81.0,0,60,4.0,0.0
2655,69.0,0,90,2.0,0.0
2656,73.0,53,60,5.0,0.0
2657,64.0,0,60,6.0,0.0
2658,73.0,0,60,11.0,0.0
2659,45.0,7,90,7.0,0.0
2660,76.0,0,90,1.0,0.0
2661,45.0,0,90,13.0,0.0
2662,80.0,98,60,0.0,0.0
2663,80.0,0,60,10.0,0.0
2664,62.0,0,60,12.0,0.0
2665,71.0,0,60,5.0,0.0
2666,71.0,0,60,11.0,0.0
2667,80.0,0,60,4.0,0.0
2668,62.0,0,60,6.0,0.0
2669,74.0,0,90,5.0,0.0
2670,78.0,105,90,1.0,0.0
2671,66.0,0,90,6.0,0.0
2672,45.0,0,90,13.0,0.0
2673,74.0,0,90,11.0,0.0
2674,66.0,0,90,12.0,0.0
2675,83.0,15,90,10.0,0.0
2676,74.0,0,90,2.0,0.0
2677,45.0,0,90,14.0,0.0
2678,83.0,0,90,4.0,0.0
2679,83.0,0,90,0.0,0.0
2680,45.0,0,90,7.0,0.0
2681,76.0,0,90,1.0,0.0
2682,64.0,0,90,12.0,0.0
2683,69.0,0,90,2.0,0.0
2684,81.0,15,90,4.0,0.0
2685,81.0,0,90,10.0,0.0
2686,45.0,45,90,14.0,0.0
2687,73.0,0,90,11.0,0.0
2688,45.0,0,90,7.0,0.0
2689,73.0,0,90,5.0,0.0
2690,64.0,0,90,6.0,0.0
2691,81.0,0,90,0.0,0.0
2692,45.0,0,90,13.0,0.0
2693,80.0,0,90,4.0,0.0
2694,45.0,0,90,14.0,0.0
2695,80.0,30,30,10.0,0.0
2696,45.0,0,90,7.0,0.0
2697,80.0,0,90,0.0,0.0
2698,45.0,0,90,13.0,0.0
2699,62.0,15,90,12.0,0.0
2700,74.0,0,90,1.0,0.0
2701,62.0,0,90,2.0,0.0
2702,71.0,0,90,5.0,0.0
2703,62.0,0,90,6.0,0.0
2704,71.0,0,30,11.0,0.0
2705,45.0,105,240,3.0,0.0
2706,81.0,0,30,10.0,0.0
2707,73.0,30,30,11.0,0.0
2708,78.0,0,30,10.0,0.0
2709,69.0,15,30,11.0,0.0
2710,80.0,105,30,10.0,0.0
2711,71.0,0,30,11.0,0.0
2712,64.0,0,210,6.0,0.0
2713,45.0,15,90,13.0,0.0
2714,45.0,0,90,14.0,0.0
2715,81.0,0,210,10.0,0.0
2716,64.0,0,210,12.0,0.0
2717,81.0,0,210,4.0,0.0
2718,76.0,0,210,1.0,0.0
2719,73.0,0,210,11.0,0.0
2720,69.0,0,210,2.0,0.0
2721,73.0,0,210,5.0,0.0
2722,81.0,0,210,0.0,0.0
2723,45.0,0,90,7.0,0.0
2724,45.0,0,90,7.0,0.0
2725,45.0,0,90,13.0,0.0
2726,45.0,67,90,14.0,0.0
2727,76.0,0,60,1.0,0.0
2728,79.0,53,60,0.0,0.0
2729,76.0,0,60,5.0,0.0
2730,76.0,0,60,11.0,0.0
2731,45.0,0,90,14.0,0.0
2732,69.0,0,90,2.0,0.0
2733,73.0,0,90,6.0,0.0
2734,73.0,7,90,12.0,0.0
2735,79.0,0,60,4.0,0.0
2736,79.0,0,60,10.0,0.0
2737,45.0,0,90,13.0,0.0
2738,45.0,0,90,7.0,0.0
2739,74.0,0,60,11.0,0.0
2740,74.0,0,60,5.0,0.0
2741,78.0,98,60,0.0,0.0
2742,78.0,0,60,4.0,0.0
2743,78.0,0,60,10.0,0.0
2744,74.0,0,60,1.0,0.0
2745,73.0,0,90,11.0,0.0
2746,73.0,15,90,5.0,0.0
2747,45.0,0,90,13.0,0.0
2748,81.0,0,90,10.0,0.0
2749,45.0,105,90,14.0,0.0
2750,81.0,0,90,4.0,0.0
2751,78.0,0,90,1.0,0.0
2752,69.0,0,90,2.0,0.0
2753,69.0,0,90,12.0,0.0
2754,45.0,0,90,7.0,0.0
2755,69.0,0,90,6.0,0.0
2756,81.0,0,90,0.0,0.0
2757,79.0,0,90,10.0,0.0
2758,79.0,0,90,0.0,0.0
2759,76.0,15,90,11.0,0.0
2760,45.0,0,90,13.0,0.0
2761,76.0,0,90,5.0,0.0
2762,73.0,0,90,6.0,0.0
2763,79.0,0,90,4.0,0.0
2764,45.0,45,90,14.0,0.0
2765,76.0,0,90,1.0,0.0
2766,69.0,0,90,2.0,0.0
2767,73.0,0,90,12.0,0.0
2768,45.0,0,90,7.0,0.0
2769,74.0,0,90,1.0,0.0
2770,74.0,0,30,5.0,0.0
2771,78.0,30,30,10.0,0.0
2772,62.0,15,90,2.0,0.0
2773,78.0,0,30,4.0,0.0
2774,45.0,105,240,3.0,0.0
2775,78.0,0,90,0.0,0.0
2776,69.0,0,90,6.0,0.0
2777,45.0,0,90,14.0,0.0
2778,74.0,0,30,11.0,0.0
2779,45.0,0,90,7.0,0.0
2780,69.0,0,90,12.0,0.0
2781,45.0,0,90,13.0,0.0
2782,76.0,0,30,11.0,0.0
2783,79.0,0,30,4.0,0.0
2784,79.0,30,30,10.0,0.0
2785,76.0,0,30,5.0,0.0
2786,73.0,0,30,11.0,0.0
2787,73.0,0,30,5.0,0.0
2788,76.0,15,30,10.0,0.0
2789,76.0,0,30,4.0,0.0
2790,74.0,105,30,5.0,0.0
2791,74.0,0,30,11.0,0.0
2792,78.0,0,30,4.0,0.0
2793,78.0,0,30,10.0,0.0
2794,76.0,0,240,1.0,0.0
2795,79.0,52,240,0.0,0.0
2796,45.0,15,90,13.0,0.0
2797,69.0,0,240,2.0,0.0
2798,64.0,0,210,6.0,0.0
2799,45.0,0,90,14.0,0.0
2800,73.0,15,210,11.0,0.0
2801,79.0,0,210,4.0,0.0
2802,64.0,0,210,12.0,0.0
2803,73.0,0,210,5.0,0.0
2804,45.0,0,90,7.0,0.0
2805,79.0,0,210,10.0,0.0
2806,45.0,0,90,7.0,0.0
2807,45.0,0,90,13.0,0.0
2808,45.0,0,90,14.0,0.0
2809,45.0,0,90,13.0,0.0
2810,69.0,0,60,6.0,0.0
2811,74.0,0,60,11.0,0.0
2812,77.0,53,60,10.0,0.0
2813,69.0,0,60,12.0,0.0
2814,45.0,0,90,7.0,0.0
2815,77.0,0,60,4.0,0.0
2816,74.0,0,60,5.0,0.0
2817,45.0,7,90,14.0,0.0
2818,76.0,0,60,10.0,0.0
2819,76.0,0,60,4.0,0.0
2820,73.0,0,60,5.0,0.0
2821,73.0,0,60,11.0,0.0
2822,67.0,98,60,6.0,0.0
2823,67.0,0,60,12.0,0.0
2824,45.0,105,90,13.0,0.0
2825,76.0,0,90,5.0,0.0
2826,45.0,0,90,7.0,0.0
2827,76.0,0,90,11.0,0.0
2828,45.0,0,90,14.0,0.0
2829,79.0,0,90,4.0,0.0
2830,70.0,0,90,6.0,0.0
2831,79.0,0,90,10.0,0.0
2832,70.0,15,90,12.0,0.0
2833,45.0,105,90,14.0,0.0
2834,74.0,0,90,5.0,0.0
2835,74.0,0,90,11.0,0.0
2836,69.0,0,90,6.0,0.0
2837,45.0,0,90,13.0,0.0
2838,77.0,0,90,4.0,0.0
2839,69.0,15,90,12.0,0.0
2840,45.0,0,90,7.0,0.0
2841,77.0,0,90,10.0,0.0
2842,73.0,0,120,5.0,0.0
2843,73.0,0,120,11.0,0.0
2844,45.0,90,720,13.0,0.0
2845,67.0,15,90,6.0,0.0
2846,67.0,210,120,12.0,0.0
2847,45.0,0,720,14.0,0.0
2848,76.0,0,90,10.0,0.0
2849,45.0,67,2250,7.0,0.0
2850,76.0,15,90,4.0,0.0
2851,77.0,0,210,4.0,0.0
2852,77.0,15,210,10.0,0.0
2853,74.0,0,120,11.0,0.0
2854,74.0,0,120,5.0,0.0
2855,69.0,15,90,6.0,0.0
2856,69.0,210,120,12.0,0.0
2857,74.0,0,210,10.0,0.0
2858,74.0,15,210,4.0,0.0
2859,69.0,120,120,11.0,0.0
2860,69.0,0,120,5.0,0.0
2861,65.0,15,90,6.0,0.0
2862,65.0,0,120,12.0,0.0
2863,75.0,15,210,10.0,0.0
2864,75.0,0,210,4.0,0.0
2865,70.0,210,120,11.0,0.0
2866,45.0,90,720,14.0,0.0
2867,67.0,15,90,6.0,0.0
2868,45.0,0,720,13.0,0.0
2869,67.0,0,120,12.0,0.0
2870,70.0,0,120,5.0,0.0
2871,73.0,0,210,4.0,0.0
2872,73.0,15,210,10.0,0.0
2873,64.0,0,120,12.0,0.0
2874,64.0,15,90,6.0,0.0
2875,67.0,0,120,11.0,0.0
2876,67.0,210,120,5.0,0.0
2877,74.0,0,210,4.0,0.0
2878,74.0,15,210,10.0,0.0
2879,69.0,0,120,5.0,0.0
2880,65.0,15,90,6.0,0.0
2881,65.0,0,120,12.0,0.0
2882,69.0,120,120,11.0,0.0
2883,70.0,15,210,10.0,0.0
2884,70.0,0,210,4.0,0.0
2885,65.0,15,90,6.0,0.0
2886,45.0,0,810,14.0,0.0
2887,74.0,0,120,11.0,0.0
2888,45.0,0,810,13.0,0.0
2889,65.0,0,120,12.0,0.0
2890,74.0,210,120,5.0,0.0
2891,69.0,0,210,10.0,0.0
2892,69.0,15,210,4.0,0.0
2893,74.0,210,120,11.0,0.0
2894,74.0,0,120,5.0,0.0
2895,65.0,0,120,12.0,0.0
2896,65.0,15,90,6.0,0.0
2897,68.0,0,210,4.0,0.0
2898,68.0,15,210,10.0,0.0
2899,74.0,0,120,11.0,0.0
2900,65.0,0,120,12.0,0.0
2901,74.0,105,120,5.0,0.0
2902,65.0,15,90,6.0,0.0
2903,69.0,105,90,10.0,0.0
2904,69.0,0,90,4.0,0.0
2905,65.0,0,90,12.0,0.0
2906,80.0,0,90,4.0,0.0
2907,71.0,0,90,5.0,0.0
2908,71.0,0,90,11.0,0.0
2909,62.0,15,90,6.0,0.0
2910,80.0,0,90,10.0,0.0
2911,81.0,0,210,4.0,0.0
2912,73.0,0,210,5.0,0.0
2913,64.0,0,210,12.0,0.0
2914,73.0,0,210,11.0,0.0
2915,57.0,60,60,13.0,0.0
2916,57.0,0,60,7.0,0.0
2917,64.0,0,210,6.0,0.0
2918,57.0,0,60,14.0,0.0
2919,81.0,67,210,10.0,0.0
2920,56.0,0,60,13.0,0.0
2921,56.0,0,60,14.0,0.0
2922,56.0,113,60,7.0,0.0
2923,57.0,0,90,13.0,0.0
2924,57.0,0,90,14.0,0.0
2925,57.0,0,90,7.0,0.0
2926,69.0,0,90,2.0,0.0
2927,45.0,0,90,7.0,0.0
2928,76.0,0,90,1.0,0.0
2929,45.0,0,90,14.0,0.0
2930,64.0,0,90,6.0,0.0
2931,45.0,105,120,3.0,0.0
2932,79.0,0,60,0.0,0.0
2933,79.0,0,60,4.0,0.0
2934,79.0,53,60,10.0,0.0
2935,73.0,7,90,5.0,0.0
2936,64.0,0,90,12.0,0.0
2937,73.0,0,90,11.0,0.0
2938,45.0,0,90,13.0,0.0
2939,78.0,0,60,4.0,0.0
2940,78.0,8,60,10.0,0.0
2941,78.0,0,60,0.0,0.0
2942,47.0,0,90,7.0,0.0
2943,74.0,0,90,5.0,0.0
2944,50.0,105,120,3.0,0.0
2945,47.0,0,90,14.0,0.0
2946,74.0,0,90,11.0,0.0
2947,62.0,0,90,2.0,0.0
2948,62.0,0,90,6.0,0.0
2949,79.0,0,90,0.0,0.0
2950,74.0,15,90,1.0,0.0
2951,79.0,0,90,4.0,0.0
2952,47.0,0,90,13.0,0.0
2953,79.0,0,90,10.0,0.0
2954,62.0,0,90,12.0,0.0
2955,49.0,0,90,7.0,0.0
2956,76.0,0,90,5.0,0.0
2957,76.0,0,90,0.0,0.0
2958,45.0,52,120,3.0,0.0
2959,76.0,0,90,11.0,0.0
2960,76.0,0,90,4.0,0.0
2961,69.0,0,90,12.0,0.0
2962,69.0,0,90,6.0,0.0
2963,76.0,0,90,10.0,0.0
2964,76.0,15,90,1.0,0.0
2965,49.0,0,90,13.0,0.0
2966,49.0,0,90,14.0,0.0
2967,69.0,0,90,2.0,0.0
2968,74.0,0,90,1.0,0.0
2969,74.0,0,90,11.0,0.0
2970,50.0,52,120,3.0,0.0
2971,69.0,0,90,6.0,0.0
2972,78.0,0,60,0.0,0.0
2973,74.0,0,90,5.0,0.0
2974,69.0,7,90,2.0,0.0
2975,50.0,0,90,13.0,0.0
2976,78.0,0,60,10.0,0.0
2977,50.0,0,90,7.0,0.0
2978,69.0,0,90,12.0,0.0
2979,50.0,0,90,14.0,0.0
2980,78.0,53,60,4.0,0.0
2981,79.0,0,60,4.0,0.0
2982,79.0,8,60,10.0,0.0
2983,79.0,0,60,0.0,0.0
2984,54.0,7,90,13.0,0.0
2985,74.0,0,90,5.0,0.0
2986,81.0,0,60,10.0,0.0
2987,54.0,0,90,7.0,0.0
2988,69.0,0,90,12.0,0.0
2989,81.0,0,60,4.0,0.0
2990,74.0,0,90,11.0,0.0
2991,69.0,0,90,2.0,0.0
2992,54.0,0,90,14.0,0.0
2993,50.0,105,120,3.0,0.0
2994,69.0,0,90,6.0,0.0
2995,81.0,53,60,0.0,0.0
2996,74.0,0,90,1.0,0.0
2997,83.0,0,60,4.0,0.0
2998,83.0,0,60,10.0,0.0
2999,83.0,8,60,0.0,0.0
3000,85.0,15,90,4.0,0.0
3001,79.0,0,90,5.0,0.0
3002,79.0,0,90,1.0,0.0
3003,76.0,0,90,11.0,0.0
3004,69.0,0,90,2.0,0.0
3005,52.0,0,90,14.0,0.0
3006,85.0,0,90,0.0,0.0
3007,69.0,0,90,12.0,0.0
3008,52.0,0,90,7.0,0.0
3009,69.0,0,90,6.0,0.0
3010,45.0,105,120,3.0,0.0
3011,52.0,0,90,13.0,0.0
3012,85.0,0,90,10.0,0.0
3013,86.0,0,90,10.0,0.0
3014,78.0,0,90,11.0,0.0
3015,86.0,0,90,0.0,0.0
3016,50.0,52,120,3.0,0.0
3017,78.0,0,90,1.0,0.0
3018,50.0,0,90,13.0,0.0
3019,78.0,0,90,5.0,0.0
3020,69.0,0,90,12.0,0.0
3021,86.0,15,90,4.0,0.0
3022,50.0,0,90,7.0,0.0
3023,69.0,0,90,6.0,0.0
3024,50.0,0,90,14.0,0.0
3025,69.0,0,90,2.0,0.0
3026,69.0,0,90,2.0,0.0
3027,69.0,0,90,10.0,0.0
3028,76.0,0,90,1.0,0.0
3029,85.0,53,60,0.0,0.0
3030,57.0,0,90,13.0,0.0
3031,79.0,0,90,5.0,0.0
3032,79.0,0,90,11.0,0.0
3033,57.0,0,90,7.0,0.0
3034,69.0,0,90,4.0,0.0
3035,69.0,0,90,12.0,0.0
3036,57.0,0,90,14.0,0.0
3037,69.0,7,90,6.0,0.0
3038,45.0,52,120,3.0,0.0
3039,83.0,8,60,0.0,0.0
3040,69.0,0,90,6.0,0.0
3041,69.0,0,90,2.0,0.0
3042,45.0,0,90,14.0,0.0
3043,76.0,0,90,1.0,0.0
3044,76.0,7,90,5.0,0.0
3045,45.0,0,90,13.0,0.0
3046,73.0,0,90,10.0,0.0
3047,76.0,0,90,11.0,0.0
3048,73.0,0,90,4.0,0.0
3049,45.0,0,90,7.0,0.0
3050,67.0,0,90,12.0,0.0
3051,81.0,53,60,0.0,0.0
3052,45.0,105,120,3.0,0.0
3053,79.0,8,60,0.0,0.0
3054,62.0,0,180,10.0,0.0
3055,47.0,0,240,7.0,0.0
3056,78.0,0,180,0.0,0.0
3057,47.0,0,240,13.0,0.0
3058,66.0,67,90,12.0,0.0
3059,74.0,0,180,1.0,0.0
3060,62.0,0,180,4.0,0.0
3061,74.0,0,90,5.0,0.0
3062,74.0,0,90,11.0,0.0
3063,50.0,30,240,3.0,0.0
3064,74.0,7,210,2.0,0.0
3065,47.0,0,240,14.0,0.0
3066,69.0,0,90,6.0,0.0
3067,68.0,0,60,6.0,0.0
3068,71.0,53,60,11.0,0.0
3069,68.0,0,60,12.0,0.0
3070,71.0,0,60,5.0,0.0
3071,64.0,0,60,10.0,0.0
3072,80.0,0,60,0.0,0.0
3073,64.0,0,60,4.0,0.0
3074,76.0,8,60,1.0,0.0
3075,69.0,0,60,12.0,0.0
3076,73.0,0,60,5.0,0.0
3077,73.0,0,60,11.0,0.0
3078,69.0,0,60,6.0,0.0
3079,76.0,30,30,1.0,0.0
3080,74.0,0,90,11.0,0.0
3081,66.0,0,60,10.0,0.0
3082,71.0,15,90,6.0,0.0
3083,74.0,0,210,2.0,0.0
3084,71.0,0,90,12.0,0.0
3085,80.0,0,330,0.0,0.0
3086,74.0,0,90,5.0,0.0
3087,66.0,0,60,4.0,0.0
3088,50.0,0,480,3.0,0.0
3089,78.0,30,30,1.0,0.0
3090,68.0,30,60,10.0,0.0
3091,68.0,0,60,4.0,0.0
3092,76.0,15,30,1.0,0.0
3093,78.0,0,30,1.0,0.0
3094,49.0,0,60,13.0,0.0
3095,49.0,8,60,7.0,0.0
3096,71.0,7,90,12.0,0.0
3097,69.0,0,60,4.0,0.0
3098,76.0,22,30,1.0,0.0
3099,74.0,0,90,11.0,0.0
3100,69.0,30,60,10.0,0.0
3101,49.0,0,60,14.0,0.0
3102,71.0,0,90,6.0,0.0
3103,74.0,0,90,5.0,0.0
3104,78.0,0,30,1.0,0.0
3105,71.0,8,60,10.0,0.0
3106,50.0,0,60,7.0,0.0
3107,71.0,0,60,4.0,0.0
3108,50.0,0,60,13.0,0.0
3109,76.0,15,30,1.0,0.0
3110,50.0,0,60,14.0,0.0
3111,78.0,30,30,1.0,0.0
3112,52.0,0,90,7.0,0.0
3113,52.0,0,90,14.0,0.0
3114,62.0,0,210,2.0,0.0
3115,74.0,0,90,11.0,0.0
3116,71.0,0,90,6.0,0.0
3117,74.0,0,90,5.0,0.0
3118,52.0,0,90,13.0,0.0
3119,69.0,0,60,10.0,0.0
3120,76.0,30,30,1.0,0.0
3121,71.0,15,90,12.0,0.0
3122,69.0,0,60,4.0,0.0
3123,78.0,30,30,1.0,0.0
3124,68.0,30,60,10.0,0.0
3125,76.0,15,30,1.0,0.0
3126,68.0,0,60,4.0,0.0
3127,78.0,0,30,1.0,0.0
3128,74.0,7,90,5.0,0.0
3129,40.0,0,90,7.0,0.0
3130,68.0,0,90,6.0,0.0
3131,78.0,8,60,0.0,0.0
3132,76.0,22,30,1.0,0.0
3133,74.0,0,90,11.0,0.0
3134,68.0,0,90,12.0,0.0
3135,40.0,0,90,13.0,0.0
3136,66.0,0,60,4.0,0.0
3137,40.0,0,90,14.0,0.0
3138,66.0,0,60,10.0,0.0
3139,78.0,30,30,1.0,0.0
3140,80.0,0,60,0.0,0.0
3141,64.0,0,60,10.0,0.0
3142,64.0,8,60,4.0,0.0
3143,74.0,15,30,1.0,0.0
3144,76.0,60,30,1.0,0.0
3145,45.0,0,240,7.0,0.0
3146,45.0,172,240,13.0,0.0
3147,74.0,0,90,11.0,0.0
3148,74.0,0,60,10.0,0.0
3149,64.0,0,240,6.0,0.0
3150,76.0,0,240,1.0,0.0
3151,74.0,15,90,5.0,0.0
3152,64.0,0,240,12.0,0.0
3153,74.0,45,60,4.0,0.0
3154,45.0,0,240,14.0,0.0
3155,69.0,0,240,2.0,0.0
3156,81.0,0,240,0.0,0.0
3157,45.0,0,240,3.0,0.0
3158,73.0,0,60,4.0,0.0
3159,73.0,60,60,10.0,0.0
3160,71.0,0,60,10.0,0.0
3161,71.0,52,60,4.0,0.0
3162,73.0,0,120,11.0,0.0
3163,73.0,0,120,5.0,0.0
3164,69.0,8,60,10.0,0.0
3165,69.0,0,60,4.0,0.0
3166,79.0,45,180,4.0,0.0
3167,79.0,0,180,10.0,0.0
3168,50.0,8,60,7.0,0.0
3169,76.0,7,90,5.0,0.0
3170,69.0,0,90,12.0,0.0
3171,69.0,0,90,6.0,0.0
3172,76.0,0,90,11.0,0.0
3173,50.0,0,60,14.0,0.0
3174,50.0,0,60,13.0,0.0
3175,49.0,0,60,14.0,0.0
3176,49.0,0,60,13.0,0.0
3177,49.0,113,60,7.0,0.0
3178,78.0,75,90,5.0,0.0
3179,50.0,0,90,7.0,0.0
3180,50.0,0,90,14.0,0.0
3181,78.0,20,180,4.0,0.0
3182,50.0,0,90,13.0,0.0
3183,69.0,0,90,6.0,0.0
3184,78.0,0,180,10.0,0.0
3185,78.0,0,90,11.0,0.0
3186,69.0,0,90,12.0,0.0
3187,69.0,0,90,6.0,0.0
3188,79.0,15,90,11.0,0.0
3189,52.0,0,90,7.0,0.0
3190,69.0,0,90,12.0,0.0
3191,52.0,0,90,13.0,0.0
3192,52.0,0,90,14.0,0.0
3193,79.0,25,90,5.0,0.0
3194,78.0,30,20,5.0,0.0
3195,69.0,45,180,6.0,0.0
3196,49.0,0,30,14.0,0.0
3197,49.0,0,30,7.0,0.0
3198,49.0,30,30,13.0,0.0
3199,76.0,0,240,5.0,0.0
3200,69.0,0,240,12.0,0.0
3201,76.0,30,240,11.0,0.0
3202,50.0,0,30,14.0,0.0
3203,50.0,0,30,13.0,0.0
3204,50.0,30,30,7.0,0.0
3205,47.0,0,30,13.0,0.0
3206,47.0,0,30,14.0,0.0
3207,47.0,30,30,7.0,0.0
3208,49.0,52,30,7.0,0.0
3209,49.0,0,30,14.0,0.0
3210,49.0,0,30,13.0,0.0
3211,79.0,7,90,10.0,0.0
3212,47.0,0,60,7.0,0.0
3213,79.0,0,90,4.0,0.0
3214,47.0,8,60,14.0,0.0
3215,47.0,0,60,13.0,0.0
3216,45.0,8,60,14.0,0.0
3217,45.0,0,60,7.0,0.0
3218,45.0,0,60,13.0,0.0
3219,57.0,0,180,14.0,0.0
3220,57.0,45,180,13.0,0.0
3221,57.0,0,180,7.0,0.0
3222,76.0,30,30,10.0,0.0
3223,76.0,0,30,4.0,0.0
3224,78.0,30,30,10.0,0.0
3225,78.0,0,30,4.0,0.0
3226,74.0,30,30,10.0,0.0
3227,74.0,0,30,4.0,0.0
3228,76.0,0,30,4.0,0.0
3229,76.0,52,30,10.0,0.0
3230,74.0,0,60,4.0,0.0
3231,69.0,7,90,6.0,0.0
3232,76.0,0,90,11.0,0.0
3233,76.0,0,90,5.0,0.0
3234,69.0,0,90,12.0,0.0
3235,74.0,8,60,10.0,0.0
3236,73.0,0,60,4.0,0.0
3237,73.0,38,60,10.0,0.0
3238,71.0,15,90,12.0,0.0
3239,76.0,30,30,5.0,0.0
3240,55.0,0,180,13.0,0.0
3241,76.0,0,30,11.0,0.0
3242,71.0,0,90,6.0,0.0
3243,55.0,45,180,7.0,0.0
3244,83.0,0,180,4.0,0.0
3245,55.0,0,180,14.0,0.0
3246,83.0,0,180,10.0,0.0
3247,78.0,30,30,11.0,0.0
3248,78.0,0,30,5.0,0.0
3249,74.0,0,30,11.0,0.0
3250,74.0,15,30,5.0,0.0
3251,76.0,52,30,11.0,0.0
3252,76.0,0,30,5.0,0.0
3253,64.0,0,90,6.0,0.0
3254,64.0,7,90,12.0,0.0
3255,74.0,0,60,5.0,0.0
3256,74.0,8,60,11.0,0.0
3257,73.0,0,60,11.0,0.0
3258,73.0,180,60,5.0,0.0
3259,81.0,0,180,4.0,0.0
3260,66.0,0,240,12.0,0.0
3261,66.0,105,240,6.0,0.0
3262,74.0,0,240,5.0,0.0
3263,81.0,52,180,10.0,0.0
3264,74.0,0,240,11.0,0.0
3265,54.0,0,60,13.0,0.0
3266,54.0,0,60,14.0,0.0
3267,54.0,8,60,7.0,0.0
3268,52.0,8,60,14.0,0.0
3269,52.0,0,60,7.0,0.0
3270,52.0,0,60,13.0,0.0
3271,54.0,0,90,7.0,0.0
3272,54.0,0,90,14.0,0.0
3273,54.0,120,90,13.0,0.0
3274,62.0,0,90,6.0,0.0
3275,55.0,0,90,7.0,0.0
3276,83.0,0,90,4.0,0.0
3277,55.0,0,90,13.0,0.0
3278,55.0,120,90,14.0,0.0
3279,74.0,0,90,5.0,0.0
3280,83.0,0,90,10.0,0.0
3281,62.0,0,90,12.0,0.0
3282,74.0,0,90,11.0,0.0
3283,79.0,0,90,10.0,0.0
3284,52.0,67,90,13.0,0.0
3285,73.0,0,90,11.0,0.0
3286,79.0,0,90,4.0,0.0
3287,52.0,0,90,14.0,0.0
3288,64.0,0,90,12.0,0.0
3289,73.0,0,90,5.0,0.0
3290,64.0,0,90,6.0,0.0
3291,52.0,0,90,7.0,0.0
3292,69.0,7,90,6.0,0.0
3293,50.0,0,60,7.0,0.0
3294,50.0,53,60,14.0,0.0
3295,78.0,0,60,10.0,0.0
3296,50.0,0,60,13.0,0.0
3297,69.0,0,90,12.0,0.0
3298,78.0,0,60,4.0,0.0
3299,74.0,0,90,5.0,0.0
3300,74.0,0,90,11.0,0.0
3301,76.0,188,60,10.0,0.0
3302,49.0,0,60,7.0,0.0
3303,49.0,0,60,14.0,0.0
3304,76.0,0,60,4.0,0.0
3305,49.0,0,60,13.0,0.0
3306,71.0,0,210,6.0,0.0
3307,56.0,0,180,13.0,0.0
3308,86.0,0,180,4.0,0.0
3309,76.0,0,330,5.0,0.0
3310,56.0,45,180,14.0,0.0
3311,56.0,0,180,7.0,0.0
3312,86.0,120,210,10.0,0.0
3313,76.0,0,330,11.0,0.0
3314,71.0,0,210,12.0,0.0
3315,57.0,0,90,14.0,0.0
3316,85.0,67,90,4.0,0.0
3317,85.0,0,90,10.0,0.0
3318,57.0,0,90,7.0,0.0
3319,69.0,0,90,6.0,0.0
3320,57.0,0,90,13.0,0.0
3321,69.0,0,90,12.0,0.0
3322,45.0,0,90,13.0,0.0
3323,79.0,0,60,4.0,0.0
3324,45.0,0,90,14.0,0.0
3325,73.0,0,90,5.0,0.0
3326,45.0,0,90,7.0,0.0
3327,69.0,0,90,2.0,0.0
3328,64.0,0,90,12.0,0.0
3329,73.0,7,90,11.0,0.0
3330,45.0,90,120,3.0,0.0
3331,79.0,53,60,0.0,0.0
3332,64.0,0,90,6.0,0.0
3333,79.0,0,60,10.0,0.0
3334,76.0,0,90,1.0,0.0
3335,78.0,0,60,0.0,0.0
3336,78.0,8,60,4.0,0.0
3337,78.0,0,60,10.0,0.0
3338,74.0,0,90,11.0,0.0
3339,79.0,0,90,0.0,0.0
3340,74.0,0,90,5.0,0.0
3341,47.0,0,90,13.0,0.0
3342,74.0,0,90,1.0,0.0
3343,47.0,15,90,7.0,0.0
3344,47.0,0,90,14.0,0.0
3345,79.0,15,90,4.0,0.0
3346,62.0,0,90,2.0,0.0
3347,79.0,0,90,10.0,0.0
3348,71.0,0,90,12.0,0.0
3349,71.0,0,90,6.0,0.0
3350,50.0,90,120,3.0,0.0
3351,81.0,0,90,0.0,0.0
3352,45.0,52,120,3.0,0.0
3353,76.0,0,90,11.0,0.0
3354,69.0,0,90,6.0,0.0
3355,76.0,0,90,5.0,0.0
3356,49.0,15,90,13.0,0.0
3357,81.0,0,90,10.0,0.0
3358,49.0,0,90,14.0,0.0
3359,69.0,0,90,2.0,0.0
3360,76.0,0,90,1.0,0.0
3361,69.0,0,90,12.0,0.0
3362,81.0,15,90,4.0,0.0
3363,49.0,0,90,7.0,0.0
3364,69.0,7,90,12.0,0.0
3365,74.0,0,90,5.0,0.0
3366,74.0,0,90,1.0,0.0
3367,79.0,45,60,10.0,0.0
3368,50.0,0,90,7.0,0.0
3369,79.0,8,60,0.0,0.0
3370,69.0,0,90,6.0,0.0
3371,50.0,0,120,3.0,0.0
3372,50.0,0,90,14.0,0.0
3373,79.0,0,60,4.0,0.0
3374,69.0,0,120,2.0,0.0
3375,50.0,0,90,13.0,0.0
3376,74.0,0,90,11.0,0.0
3377,78.0,8,60,0.0,0.0
3378,78.0,0,60,4.0,0.0
3379,78.0,52,60,10.0,0.0
3380,69.0,0,90,12.0,0.0
3381,69.0,0,90,6.0,0.0
3382,54.0,7,90,7.0,0.0
3383,54.0,0,90,13.0,0.0
3384,76.0,0,60,10.0,0.0
3385,76.0,45,60,4.0,0.0
3386,54.0,0,90,14.0,0.0
3387,69.0,0,90,11.0,0.0
3388,76.0,8,60,0.0,0.0
3389,69.0,0,90,5.0,0.0
3390,69.0,0,90,1.0,0.0
3391,74.0,0,60,0.0,0.0
3392,74.0,60,60,10.0,0.0
3393,74.0,0,60,4.0,0.0
3394,55.0,0,90,13.0,0.0
3395,55.0,0,90,7.0,0.0
3396,74.0,0,90,1.0,0.0
3397,55.0,7,90,14.0,0.0
3398,67.0,0,90,12.0,0.0
3399,78.0,8,60,0.0,0.0
3400,71.0,0,90,5.0,0.0
3401,71.0,0,90,11.0,0.0
3402,67.0,0,90,6.0,0.0
3403,78.0,0,60,10.0,0.0
3404,78.0,45,60,4.0,0.0
3405,76.0,52,60,4.0,0.0
3406,76.0,0,60,10.0,0.0
3407,76.0,8,60,0.0,0.0
3408,74.0,0,60,0.0,0.0
3409,66.0,8,60,6.0,0.0
3410,57.0,0,90,7.0,0.0
3411,69.0,0,60,11.0,0.0
3412,57.0,0,90,13.0,0.0
3413,66.0,0,60,12.0,0.0
3414,78.0,0,90,1.0,0.0
3415,69.0,0,60,5.0,0.0
3416,74.0,45,60,4.0,0.0
3417,45.0,105,120,3.0,0.0
3418,69.0,0,90,2.0,0.0
3419,74.0,0,60,10.0,0.0
3420,57.0,7,90,14.0,0.0
3421,73.0,0,60,0.0,0.0
3422,73.0,0,60,4.0,0.0
3423,67.0,8,60,11.0,0.0
3424,73.0,0,60,10.0,0.0
3425,67.0,0,60,5.0,0.0
3426,64.0,0,60,6.0,0.0
3427,64.0,0,60,12.0,0.0
3428,62.0,0,90,6.0,0.0
3429,59.0,0,90,14.0,0.0
3430,59.0,0,90,7.0,0.0
3431,59.0,0,90,13.0,0.0
3432,78.0,0,90,1.0,0.0
3433,74.0,0,90,10.0,0.0
3434,66.0,0,90,11.0,0.0
3435,74.0,15,90,4.0,0.0
3436,50.0,105,120,3.0,0.0
3437,62.0,0,90,12.0,0.0
3438,66.0,0,90,5.0,0.0
3439,62.0,0,90,2.0,0.0
3440,74.0,0,90,0.0,0.0
3441,76.0,0,90,4.0,0.0
3442,79.0,0,90,1.0,0.0
3443,55.0,0,90,7.0,0.0
3444,67.0,0,90,6.0,0.0
3445,67.0,0,90,12.0,0.0
3446,71.0,0,90,5.0,0.0
3447,55.0,0,90,13.0,0.0
3448,55.0,0,90,14.0,0.0
3449,62.0,0,90,2.0,0.0
3450,76.0,0,90,0.0,0.0
3451,50.0,30,120,3.0,0.0
3452,76.0,15,90,10.0,0.0
3453,71.0,0,90,11.0,0.0
3454,76.0,0,90,5.0,0.0
3455,67.0,0,90,10.0,0.0
3456,64.0,0,90,6.0,0.0
3457,61.0,0,90,7.0,0.0
3458,69.0,7,330,0.0,0.0
3459,67.0,30,30,4.0,0.0
3460,79.0,15,90,1.0,0.0
3461,45.0,52,120,3.0,0.0
3462,64.0,0,90,12.0,0.0
3463,61.0,0,90,13.0,0.0
3464,76.0,0,90,11.0,0.0
3465,61.0,0,90,14.0,0.0
3466,69.0,0,330,2.0,0.0
3467,69.0,30,30,4.0,0.0
3468,66.0,15,30,4.0,0.0
3469,67.0,0,30,4.0,0.0
3470,81.0,8,60,1.0,0.0
3471,74.0,0,60,11.0,0.0
3472,57.0,7,90,7.0,0.0
3473,45.0,45,60,3.0,0.0
3474,66.0,0,60,10.0,0.0
3475,66.0,0,60,4.0,0.0
3476,57.0,0,90,12.0,0.0
3477,69.0,0,90,6.0,0.0
3478,57.0,0,90,14.0,0.0
3479,74.0,0,60,5.0,0.0
3480,57.0,0,90,13.0,0.0
3481,73.0,0,60,5.0,0.0
3482,79.0,8,60,1.0,0.0
3483,64.0,0,60,10.0,0.0
3484,73.0,0,60,11.0,0.0
3485,64.0,0,60,4.0,0.0
3486,45.0,52,60,3.0,0.0
3487,62.0,0,90,7.0,0.0
3488,62.0,0,90,14.0,0.0
3489,69.0,0,90,6.0,0.0
3490,66.0,45,60,4.0,0.0
3491,74.0,0,90,11.0,0.0
3492,57.0,0,90,12.0,0.0
3493,66.0,8,60,10.0,0.0
3494,50.0,0,120,3.0,0.0
3495,74.0,0,90,5.0,0.0
3496,62.0,0,90,13.0,0.0
3497,78.0,0,90,1.0,0.0
3498,67.0,52,60,4.0,0.0
3499,67.0,8,60,10.0,0.0
3500,62.0,0,90,5.0,0.0
3501,69.0,0,90,12.0,0.0
3502,62.0,0,90,11.0,0.0
3503,54.0,0,90,13.0,0.0
3504,74.0,0,90,0.0,0.0
3505,69.0,45,60,4.0,0.0
3506,74.0,0,90,1.0,0.0
3507,69.0,0,90,2.0,0.0
3508,69.0,7,90,6.0,0.0
3509,54.0,0,90,7.0,0.0
3510,50.0,52,120,3.0,0.0
3511,69.0,8,60,10.0,0.0
3512,54.0,0,90,14.0,0.0
3513,71.0,8,60,10.0,0.0
3514,71.0,0,60,4.0,0.0
3515,79.0,0,90,1.0,0.0
3516,69.0,0,90,11.0,0.0
3517,52.0,0,90,7.0,0.0
3518,69.0,0,90,2.0,0.0
3519,76.0,0,90,0.0,0.0
3520,67.0,0,90,6.0,0.0
3521,69.0,0,90,5.0,0.0
3522,67.0,7,90,12.0,0.0
3523,45.0,0,120,3.0,0.0
3524,73.0,45,60,4.0,0.0
3525,52.0,0,90,13.0,0.0
3526,52.0,0,90,14.0,0.0
3527,73.0,8,60,10.0,0.0
3528,74.0,52,60,4.0,0.0
3529,74.0,8,60,10.0,0.0
3530,69.0,0,90,2.0,0.0
3531,50.0,0,90,7.0,0.0
3532,66.0,0,90,12.0,0.0
3533,78.0,0,90,0.0,0.0
3534,76.0,8,60,10.0,0.0
3535,50.0,0,90,13.0,0.0
3536,76.0,45,60,4.0,0.0
3537,66.0,0,90,6.0,0.0
3538,50.0,52,120,3.0,0.0
3539,50.0,0,90,14.0,0.0
3540,78.0,0,210,1.0,0.0
3541,69.0,0,90,11.0,0.0
3542,69.0,7,90,5.0,0.0
3543,78.0,8,60,4.0,0.0
3544,78.0,0,60,10.0,0.0
3545,79.0,53,60,4.0,0.0
3546,66.0,7,90,12.0,0.0
3547,62.0,0,120,2.0,0.0
3548,79.0,0,60,10.0,0.0
3549,59.0,0,90,13.0,0.0
3550,59.0,0,90,7.0,0.0
3551,50.0,52,120,3.0,0.0
3552,59.0,0,90,14.0,0.0
3553,79.0,0,60,0.0,0.0
3554,66.0,0,90,6.0,0.0
3555,74.0,0,90,11.0,0.0
3556,74.0,0,90,5.0,0.0
3557,81.0,0,60,10.0,0.0
3558,81.0,0,60,4.0,0.0
3559,78.0,8,60,0.0,0.0
3560,79.0,0,60,0.0,0.0
3561,67.0,0,90,12.0,0.0
3562,83.0,53,60,10.0,0.0
3563,83.0,0,60,4.0,0.0
3564,73.0,0,90,5.0,0.0
3565,52.0,0,90,14.0,0.0
3566,52.0,0,90,7.0,0.0
3567,76.0,0,90,1.0,0.0
3568,73.0,0,90,11.0,0.0
3569,52.0,7,90,13.0,0.0
3570,67.0,0,90,6.0,0.0
3571,79.0,0,60,4.0,0.0
3572,76.0,0,60,0.0,0.0
3573,79.0,113,60,10.0,0.0
3574,81.0,0,90,0.0,0.0
3575,81.0,0,90,10.0,0.0
3576,74.0,0,90,11.0,0.0
3577,54.0,0,90,14.0,0.0
3578,54.0,0,90,13.0,0.0
3579,74.0,0,90,5.0,0.0
3580,62.0,67,90,6.0,0.0
3581,54.0,0,90,7.0,0.0
3582,81.0,0,90,4.0,0.0
3583,74.0,0,90,1.0,0.0
3584,62.0,0,90,12.0,0.0
3585,67.0,0,90,12.0,0.0
3586,55.0,0,90,7.0,0.0
3587,83.0,53,60,0.0,0.0
3588,55.0,0,90,13.0,0.0
3589,71.0,0,90,5.0,0.0
3590,55.0,7,90,14.0,0.0
3591,71.0,0,90,11.0,0.0
3592,50.0,52,120,3.0,0.0
3593,62.0,0,90,2.0,0.0
3594,74.0,0,90,10.0,0.0
3595,74.0,0,90,1.0,0.0
3596,64.0,0,90,6.0,0.0
3597,74.0,0,90,4.0,0.0
3598,81.0,8,60,0.0,0.0
3599,79.0,53,60,0.0,0.0
3600,66.0,0,90,12.0,0.0
3601,45.0,52,120,3.0,0.0
3602,74.0,0,90,1.0,0.0
3603,69.0,0,90,11.0,0.0
3604,69.0,0,90,10.0,0.0
3605,57.0,0,90,13.0,0.0
3606,69.0,0,90,5.0,0.0
3607,69.0,7,90,2.0,0.0
3608,66.0,0,90,6.0,0.0
3609,57.0,0,90,14.0,0.0
3610,69.0,0,90,4.0,0.0
3611,57.0,0,90,7.0,0.0
3612,78.0,8,60,0.0,0.0
3613,69.0,0,90,5.0,0.0
3614,45.0,0,90,14.0,0.0
3615,45.0,7,90,7.0,0.0
3616,69.0,0,90,2.0,0.0
3617,67.0,0,90,6.0,0.0
3618,73.0,0,90,4.0,0.0
3619,64.0,0,90,12.0,0.0
3620,73.0,0,90,10.0,0.0
3621,45.0,345,120,3.0,0.0
3622,45.0,0,90,13.0,0.0
3623,69.0,0,90,11.0,0.0
3624,76.0,53,60,0.0,0.0
3625,69.0,0,90,1.0,0.0
3626,78.0,8,60,0.0,0.0
3627,66.0,0,360,12.0,0.0
3628,50.0,0,360,3.0,0.0
3629,66.0,15,330,6.0,0.0
3630,50.0,0,360,7.0,0.0
3631,66.0,0,360,2.0,0.0
3632,74.0,0,330,10.0,0.0
3633,69.0,0,360,1.0,0.0
3634,69.0,0,330,5.0,0.0
3635,38.0,0,360,14.0,0.0
3636,38.0,0,360,13.0,0.0
3637,74.0,0,330,4.0,0.0
3638,69.0,52,360,11.0,0.0
3639,74.0,0,360,0.0,0.0
3640,73.0,53,60,5.0,0.0
3641,76.0,0,60,4.0,0.0
3642,69.0,7,90,6.0,0.0
3643,74.0,98,60,4.0,0.0
3644,71.0,0,60,5.0,0.0
3645,76.0,15,90,4.0,0.0
3646,73.0,0,90,5.0,0.0
3647,69.0,83,90,6.0,0.0
3648,69.0,15,90,6.0,0.0
3649,74.0,15,90,5.0,0.0
3650,78.0,22,60,4.0,0.0
3651,78.0,105,20,4.0,0.0
3652,79.0,0,90,4.0,0.0
3653,69.0,0,90,6.0,0.0
3654,76.0,67,90,5.0,0.0
3655,74.0,53,60,5.0,0.0
3656,69.0,7,90,6.0,0.0
3657,78.0,0,60,4.0,0.0
3658,73.0,60,60,5.0,0.0
3659,76.0,0,60,4.0,0.0
3660,78.0,0,60,4.0,0.0
3661,69.0,7,90,6.0,0.0
3662,74.0,53,60,5.0,0.0
3663,79.0,0,60,4.0,0.0
3664,76.0,60,60,5.0,0.0
3665,50.0,0,60,13.0,0.0
3666,81.0,0,90,4.0,0.0
3667,69.0,0,90,6.0,0.0
3668,50.0,8,60,14.0,0.0
3669,50.0,45,60,3.0,0.0
3670,81.0,0,90,0.0,0.0
3671,78.0,0,90,1.0,0.0
3672,78.0,0,90,11.0,0.0
3673,50.0,0,60,7.0,0.0
3674,81.0,0,90,10.0,0.0
3675,69.0,0,90,12.0,0.0
3676,74.0,0,90,2.0,0.0
3677,78.0,7,90,5.0,0.0
3678,52.0,8,60,14.0,0.0
3679,52.0,0,60,7.0,0.0
3680,50.0,90,60,3.0,0.0
3681,52.0,0,60,13.0,0.0
3682,74.0,0,90,10.0,0.0
3683,74.0,0,90,1.0,0.0
3684,54.0,0,90,13.0,0.0
3685,54.0,0,90,14.0,0.0
3686,69.0,15,90,11.0,0.0
3687,69.0,15,90,5.0,0.0
3688,74.0,0,90,0.0,0.0
3689,69.0,0,90,2.0,0.0
3690,74.0,0,90,4.0,0.0
3691,54.0,0,90,7.0,0.0
3692,69.0,0,90,12.0,0.0
3693,50.0,68,120,3.0,0.0
3694,69.0,0,90,6.0,0.0
3695,57.0,0,90,7.0,0.0
3696,57.0,0,90,13.0,0.0
3697,69.0,0,90,1.0,0.0
3698,76.0,0,90,0.0,0.0
3699,76.0,0,60,4.0,0.0
3700,73.0,0,90,11.0,0.0
3701,69.0,0,90,12.0,0.0
3702,57.0,0,90,14.0,0.0
3703,45.0,0,120,3.0,0.0
3704,76.0,0,90,10.0,0.0
3705,69.0,0,90,6.0,0.0
3706,73.0,37,60,5.0,0.0
3707,69.0,15,90,2.0,0.0
3708,76.0,30,20,4.0,0.0
3709,73.0,0,20,5.0,0.0
3710,50.0,105,120,3.0,0.0
3711,62.0,0,90,13.0,0.0
3712,69.0,0,90,6.0,0.0
3713,66.0,8,60,2.0,0.0
3714,78.0,0,90,0.0,0.0
3715,74.0,0,90,5.0,0.0
3716,69.0,0,90,12.0,0.0
3717,62.0,0,90,7.0,0.0
3718,78.0,0,90,4.0,0.0
3719,62.0,0,90,14.0,0.0
3720,69.0,7,90,1.0,0.0
3721,78.0,22,30,10.0,0.0
3722,74.0,0,30,11.0,0.0
3723,76.0,30,30,11.0,0.0
3724,79.0,0,30,10.0,0.0
3725,62.0,8,60,2.0,0.0
3726,76.0,15,30,10.0,0.0
3727,73.0,0,30,11.0,0.0
3728,78.0,0,30,10.0,0.0
3729,74.0,0,30,11.0,0.0
3730,73.0,0,210,5.0,0.0
3731,69.0,0,90,6.0,0.0
3732,73.0,0,240,11.0,0.0
3733,69.0,0,240,12.0,0.0
3734,76.0,0,240,0.0,0.0
3735,69.0,0,240,2.0,0.0
3736,69.0,0,240,1.0,0.0
3737,45.0,0,240,3.0,0.0
3738,57.0,0,90,14.0,0.0
3739,57.0,0,90,7.0,0.0
3740,76.0,0,240,10.0,0.0
3741,76.0,15,210,4.0,0.0
3742,57.0,120,90,13.0,0.0
3743,45.0,0,120,7.0,0.0
3744,45.0,52,120,14.0,0.0
3745,69.0,0,90,6.0,0.0
3746,45.0,0,120,13.0,0.0
3747,75.0,0,60,5.0,0.0
3748,78.0,53,60,4.0,0.0
3749,69.0,7,90,6.0,0.0
3750,76.0,0,60,4.0,0.0
3751,73.0,113,60,5.0,0.0
3752,78.0,0,90,4.0,0.0
3753,69.0,83,90,6.0,0.0
3754,75.0,0,90,5.0,0.0
3755,76.0,15,90,5.0,0.0
3756,67.0,0,90,6.0,0.0
3757,79.0,37,60,4.0,0.0
3758,79.0,105,20,4.0,0.0
3759,81.0,67,90,4.0,0.0
3760,66.0,0,90,6.0,0.0
3761,78.0,0,90,5.0,0.0
3762,79.0,0,60,4.0,0.0
3763,76.0,53,60,5.0,0.0
3764,71.0,7,90,6.0,0.0
3765,75.0,60,60,5.0,0.0
3766,78.0,0,60,4.0,0.0
3767,79.0,0,60,4.0,0.0
3768,71.0,7,90,6.0,0.0
3769,76.0,53,60,5.0,0.0
3770,81.0,0,60,4.0,0.0
3771,78.0,60,60,5.0,0.0
3772,71.0,7,90,12.0,0.0
3773,79.0,0,90,11.0,0.0
3774,52.0,0,60,13.0,0.0
3775,83.0,0,90,10.0,0.0
3776,83.0,0,90,4.0,0.0
3777,71.0,0,90,6.0,0.0
3778,52.0,0,60,14.0,0.0
3779,79.0,0,90,5.0,0.0
3780,52.0,53,60,7.0,0.0
3781,54.0,98,60,14.0,0.0
3782,54.0,0,60,13.0,0.0
3783,54.0,0,60,7.0,0.0
3784,55.0,0,90,14.0,0.0
3785,76.0,0,90,4.0,0.0
3786,71.0,83,90,11.0,0.0
3787,55.0,0,90,13.0,0.0
3788,71.0,0,90,12.0,0.0
3789,71.0,0,90,6.0,0.0
3790,71.0,15,90,5.0,0.0
3791,76.0,0,90,10.0,0.0
3792,55.0,0,90,7.0,0.0
3793,78.0,37,60,4.0,0.0
3794,78.0,0,90,10.0,0.0
3795,75.0,0,60,5.0,0.0
3796,59.0,0,90,13.0,0.0
3797,59.0,0,90,7.0,0.0
3798,75.0,0,90,11.0,0.0
3799,59.0,0,90,14.0,0.0
3800,71.0,15,90,6.0,0.0
3801,71.0,0,90,12.0,0.0
3802,78.0,30,20,4.0,0.0
3803,75.0,0,20,5.0,0.0
3804,71.0,0,90,12.0,0.0
3805,76.0,30,30,11.0,0.0
3806,71.0,0,90,6.0,0.0
3807,64.0,0,90,7.0,0.0
3808,76.0,0,90,5.0,0.0
3809,64.0,15,90,13.0,0.0
3810,79.0,0,30,10.0,0.0
3811,64.0,0,90,14.0,0.0
3812,79.0,0,90,4.0,0.0
3813,81.0,0,30,10.0,0.0
3814,78.0,30,30,11.0,0.0
3815,78.0,0,30,10.0,0.0
3816,75.0,15,30,11.0,0.0
3817,76.0,0,30,11.0,0.0
3818,79.0,105,30,10.0,0.0
3819,75.0,0,210,5.0,0.0
3820,71.0,0,210,6.0,0.0
3821,59.0,120,90,7.0,0.0
3822,78.0,0,210,4.0,0.0
3823,59.0,0,90,14.0,0.0
3824,78.0,0,210,10.0,0.0
3825,59.0,0,90,13.0,0.0
3826,75.0,0,210,11.0,0.0
3827,71.0,67,210,12.0,0.0
3828,47.0,0,90,13.0,0.0
3829,47.0,0,90,7.0,0.0
3830,47.0,0,90,14.0,0.0
3831,52.0,0,60,7.0,0.0
3832,52.0,0,60,13.0,0.0
3833,76.0,0,90,5.0,0.0
3834,76.0,7,90,11.0,0.0
3835,79.0,0,60,4.0,0.0
3836,71.0,0,90,6.0,0.0
3837,52.0,53,60,14.0,0.0
3838,79.0,0,60,10.0,0.0
3839,71.0,0,90,12.0,0.0
3840,78.0,0,60,10.0,0.0
3841,51.0,0,60,7.0,0.0
3842,51.0,113,60,14.0,0.0
3843,78.0,0,60,4.0,0.0
3844,51.0,0,60,13.0,0.0
3845,52.0,0,90,14.0,0.0
3846,52.0,120,90,7.0,0.0
3847,79.0,0,90,4.0,0.0
3848,71.0,0,90,6.0,0.0
3849,76.0,0,90,5.0,0.0
3850,79.0,0,90,10.0,0.0
3851,71.0,0,90,12.0,0.0
3852,52.0,0,90,13.0,0.0
3853,76.0,0,90,11.0,0.0
3854,72.0,0,90,6.0,0.0
3855,81.0,0,90,4.0,0.0
3856,45.0,45,90,13.0,0.0
3857,45.0,0,90,14.0,0.0
3858,45.0,0,90,7.0,0.0
3859,78.0,0,90,11.0,0.0
3860,78.0,0,90,5.0,0.0
3861,81.0,0,90,10.0,0.0
3862,72.0,0,90,12.0,0.0
3863,66.0,0,90,12.0,0.0
3864,75.0,0,90,5.0,0.0
3865,66.0,0,90,6.0,0.0
3866,78.0,0,90,10.0,0.0
3867,78.0,30,30,4.0,0.0
3868,75.0,0,90,11.0,0.0
3869,47.0,0,90,14.0,0.0
3870,47.0,0,90,13.0,0.0
3871,47.0,15,90,7.0,0.0
3872,79.0,30,30,4.0,0.0
3873,76.0,15,30,4.0,0.0
3874,78.0,52,30,4.0,0.0
3875,71.0,0,90,5.0,0.0
3876,76.0,0,60,10.0,0.0
3877,42.0,0,90,13.0,0.0
3878,71.0,0,90,11.0,0.0
3879,42.0,7,90,14.0,0.0
3880,69.0,0,90,6.0,0.0
3881,76.0,53,60,4.0,0.0
3882,69.0,0,90,12.0,0.0
3883,42.0,0,90,7.0,0.0
3884,75.0,0,60,10.0,0.0
3885,75.0,60,60,4.0,0.0
3886,43.0,0,90,7.0,0.0
3887,43.0,0,90,14.0,0.0
3888,76.0,0,60,10.0,0.0
3889,71.0,0,90,5.0,0.0
3890,71.0,0,90,11.0,0.0
3891,43.0,7,90,13.0,0.0
3892,67.0,0,90,12.0,0.0
3893,67.0,0,90,6.0,0.0
3894,76.0,53,60,4.0,0.0
3895,78.0,0,60,10.0,0.0
3896,78.0,60,60,4.0,0.0
3897,40.0,0,60,14.0,0.0
3898,76.0,0,60,11.0,0.0
3899,71.0,0,90,12.0,0.0
3900,40.0,0,60,7.0,0.0
3901,76.0,0,60,5.0,0.0
3902,40.0,0,60,13.0,0.0
3903,79.0,0,60,4.0,0.0
3904,79.0,53,60,10.0,0.0
3905,71.0,7,90,6.0,0.0
3906,81.0,0,60,10.0,0.0
3907,75.0,0,60,11.0,0.0
3908,75.0,113,60,5.0,0.0
3909,42.0,0,60,7.0,0.0
3910,42.0,0,60,14.0,0.0
3911,81.0,0,60,4.0,0.0
3912,42.0,0,60,13.0,0.0
3913,43.0,0,90,14.0,0.0
3914,83.0,0,90,4.0,0.0
3915,43.0,0,90,7.0,0.0
3916,71.0,0,90,6.0,0.0
3917,43.0,0,90,13.0,0.0
3918,76.0,0,90,5.0,0.0
3919,71.0,0,90,12.0,0.0
3920,83.0,120,90,10.0,0.0
3921,76.0,0,90,11.0,0.0
3922,81.0,0,90,11.0,0.0
3923,81.0,0,90,5.0,0.0
3924,84.0,0,90,4.0,0.0
3925,64.0,0,90,6.0,0.0
3926,45.0,0,90,13.0,0.0
3927,45.0,0,90,7.0,0.0
3928,45.0,0,90,14.0,0.0
3929,64.0,0,90,12.0,0.0
3930,84.0,45,90,10.0,0.0
3931,47.0,0,90,13.0,0.0
3932,81.0,0,30,4.0,0.0
3933,71.0,15,90,6.0,0.0
3934,47.0,0,90,7.0,0.0
3935,81.0,0,30,10.0,0.0
3936,47.0,0,90,14.0,0.0
3937,75.0,0,90,11.0,0.0
3938,71.0,0,90,12.0,0.0
3939,75.0,30,30,5.0,0.0
3940,83.0,0,30,4.0,0.0
3941,83.0,30,30,10.0,0.0
3942,76.0,0,30,5.0,0.0
3943,73.0,0,30,5.0,0.0
3944,79.0,15,30,4.0,0.0
3945,79.0,0,30,10.0,0.0
3946,75.0,52,30,5.0,0.0
3947,81.0,0,30,10.0,0.0
3948,81.0,0,30,4.0,0.0
3949,52.0,60,60,7.0,0.0
3950,52.0,0,60,13.0,0.0
3951,71.0,67,210,6.0,0.0
3952,79.0,0,210,10.0,0.0
3953,76.0,0,210,11.0,0.0
3954,76.0,0,210,5.0,0.0
3955,79.0,0,210,4.0,0.0
3956,71.0,0,210,12.0,0.0
3957,52.0,0,60,14.0,0.0
3958,51.0,113,60,7.0,0.0
3959,51.0,0,60,14.0,0.0
3960,51.0,0,60,13.0,0.0
3961,52.0,0,90,14.0,0.0
3962,52.0,0,90,13.0,0.0
3963,52.0,0,90,7.0,0.0
3964,78.0,0,60,10.0,0.0
3965,73.0,0,90,12.0,0.0
3966,73.0,7,90,6.0,0.0
3967,78.0,53,60,4.0,0.0
3968,49.0,0,90,7.0,0.0
3969,70.0,0,90,11.0,0.0
3970,49.0,0,90,14.0,0.0
3971,70.0,0,90,5.0,0.0
3972,49.0,0,90,13.0,0.0
3973,76.0,0,60,10.0,0.0
3974,76.0,113,60,4.0,0.0
3975,71.0,120,90,5.0,0.0
3976,50.0,0,90,14.0,0.0
3977,78.0,0,90,4.0,0.0
3978,78.0,0,90,10.0,0.0
3979,66.0,0,90,12.0,0.0
3980,71.0,0,90,11.0,0.0
3981,66.0,0,90,6.0,0.0
3982,50.0,0,90,7.0,0.0
3983,50.0,0,90,13.0,0.0
3984,74.0,0,90,5.0,0.0
3985,47.0,0,90,7.0,0.0
3986,79.0,0,90,4.0,0.0
3987,47.0,0,90,13.0,0.0
3988,79.0,0,90,10.0,0.0
3989,71.0,0,90,12.0,0.0
3990,71.0,45,90,6.0,0.0
3991,74.0,0,90,11.0,0.0
3992,47.0,0,90,14.0,0.0
3993,76.0,30,30,10.0,0.0
3994,49.0,0,90,14.0,0.0
3995,73.0,0,90,11.0,0.0
3996,49.0,0,90,7.0,0.0
3997,73.0,15,90,5.0,0.0
3998,76.0,0,30,4.0,0.0
3999,70.0,0,90,12.0,0.0
4000,49.0,0,90,13.0,0.0
4001,70.0,0,90,6.0,0.0
4002,78.0,30,30,4.0,0.0
4003,78.0,0,30,10.0,0.0
4004,74.0,0,30,10.0,0.0
4005,74.0,15,30,4.0,0.0
4006,76.0,0,30,10.0,0.0
4007,76.0,52,30,4.0,0.0
4008,73.0,0,90,6.0,0.0
4009,73.0,0,90,12.0,0.0
4010,66.0,0,90,11.0,0.0
4011,66.0,7,90,5.0,0.0
4012,74.0,53,60,4.0,0.0
4013,46.0,0,90,7.0,0.0
4014,46.0,0,90,14.0,0.0
4015,46.0,0,90,13.0,0.0
4016,74.0,0,60,10.0,0.0
4017,73.0,60,60,10.0,0.0
4018,73.0,0,60,4.0,0.0
4019,47.0,7,90,14.0,0.0
4020,47.0,0,90,13.0,0.0
4021,47.0,0,90,7.0,0.0
4022,74.0,53,60,4.0,0.0
4023,66.0,0,90,12.0,0.0
4024,71.0,0,90,11.0,0.0
4025,74.0,0,60,10.0,0.0
4026,66.0,0,90,6.0,0.0
4027,71.0,0,90,5.0,0.0
4028,76.0,0,60,10.0,0.0
4029,76.0,60,60,4.0,0.0
4030,66.0,0,90,6.0,0.0
4031,50.0,7,90,7.0,0.0
4032,78.0,53,60,10.0,0.0
4033,50.0,0,90,14.0,0.0
4034,71.0,0,90,11.0,0.0
4035,71.0,0,90,5.0,0.0
4036,50.0,0,90,13.0,0.0
4037,78.0,0,60,4.0,0.0
4038,66.0,0,90,12.0,0.0
4039,80.0,0,60,4.0,0.0
4040,80.0,113,60,10.0,0.0
4041,49.0,0,90,7.0,0.0
4042,82.0,0,90,4.0,0.0
4043,66.0,0,90,12.0,0.0
4044,76.0,0,90,11.0,0.0
4045,49.0,120,90,14.0,0.0
4046,66.0,0,90,6.0,0.0
4047,76.0,0,90,5.0,0.0
4048,49.0,0,90,13.0,0.0
4049,82.0,0,90,10.0,0.0
4050,66.0,0,90,12.0,0.0
4051,74.0,0,90,5.0,0.0
4052,47.0,45,90,14.0,0.0
4053,66.0,0,90,6.0,0.0
4054,74.0,0,90,11.0,0.0
4055,83.0,0,90,10.0,0.0
4056,47.0,0,90,13.0,0.0
4057,47.0,0,90,7.0,0.0
4058,83.0,0,90,4.0,0.0
4059,73.0,0,90,11.0,0.0
4060,67.0,0,90,12.0,0.0
4061,52.0,0,90,13.0,0.0
4062,52.0,0,90,7.0,0.0
4063,67.0,15,90,6.0,0.0
4064,73.0,0,90,5.0,0.0
4065,73.0,30,30,10.0,0.0
4066,52.0,0,90,14.0,0.0
4067,73.0,0,30,4.0,0.0
4068,74.0,0,30,10.0,0.0
4069,74.0,30,30,4.0,0.0
4070,71.0,15,30,10.0,0.0
4071,71.0,0,30,4.0,0.0
4072,73.0,52,30,10.0,0.0
4073,73.0,0,30,4.0,0.0
4074,74.0,0,60,5.0,0.0
4075,54.0,0,90,7.0,0.0
4076,71.0,0,60,4.0,0.0
4077,66.0,0,90,12.0,0.0
4078,71.0,53,60,10.0,0.0
4079,74.0,0,60,11.0,0.0
4080,54.0,0,90,14.0,0.0
4081,66.0,7,90,6.0,0.0
4082,54.0,0,90,13.0,0.0
4083,70.0,0,60,10.0,0.0
4084,76.0,0,60,5.0,0.0
4085,76.0,0,60,11.0,0.0
4086,70.0,60,60,4.0,0.0
4087,55.0,7,90,14.0,0.0
4088,59.0,0,90,12.0,0.0
4089,74.0,0,90,11.0,0.0
4090,55.0,0,90,7.0,0.0
4091,55.0,0,90,13.0,0.0
4092,74.0,0,90,5.0,0.0
4093,71.0,0,60,4.0,0.0
4094,71.0,0,90,6.0,0.0
4095,71.0,53,60,10.0,0.0
4096,73.0,60,60,4.0,0.0
4097,73.0,0,60,10.0,0.0
4098,54.0,0,60,7.0,0.0
4099,74.0,0,60,10.0,0.0
4100,67.0,7,90,12.0,0.0
4101,54.0,53,60,13.0,0.0
4102,71.0,0,90,11.0,0.0
4103,74.0,0,60,4.0,0.0
4104,67.0,0,90,6.0,0.0
4105,54.0,0,60,14.0,0.0
4106,71.0,0,90,5.0,0.0
4107,76.0,113,60,10.0,0.0
4108,52.0,0,60,14.0,0.0
4109,76.0,0,60,4.0,0.0
4110,52.0,0,60,7.0,0.0
4111,52.0,0,60,13.0,0.0
4112,71.0,0,90,5.0,0.0
4113,50.0,120,90,13.0,0.0
4114,71.0,0,90,11.0,0.0
4115,50.0,0,90,7.0,0.0
4116,78.0,0,90,4.0,0.0
4117,50.0,0,90,14.0,0.0
4118,66.0,0,90,12.0,0.0
4119,66.0,0,90,6.0,0.0
4120,78.0,0,90,10.0,0.0
4121,76.0,0,90,11.0,0.0
4122,59.0,0,90,12.0,0.0
4123,52.0,0,90,7.0,0.0
4124,52.0,0,90,14.0,0.0
4125,76.0,0,90,5.0,0.0
4126,79.0,0,90,10.0,0.0
4127,52.0,0,90,13.0,0.0
4128,79.0,45,90,4.0,0.0
4129,71.0,0,90,6.0,0.0
4130,70.0,30,30,4.0,0.0
4131,73.0,0,240,11.0,0.0
4132,66.0,0,240,6.0,0.0
4133,70.0,0,30,10.0,0.0
4134,73.0,172,240,5.0,0.0
4135,54.0,0,240,14.0,0.0
4136,66.0,0,240,12.0,0.0
4137,54.0,0,240,13.0,0.0
4138,54.0,0,240,7.0,0.0
4139,71.0,0,30,4.0,0.0
4140,71.0,30,30,10.0,0.0
4141,68.0,0,30,10.0,0.0
4142,68.0,30,30,4.0,0.0
4143,70.0,0,30,10.0,0.0
4144,70.0,52,30,4.0,0.0
4145,68.0,60,60,10.0,0.0
4146,68.0,0,60,4.0,0.0
4147,66.0,8,60,4.0,0.0
4148,66.0,0,60,10.0,0.0
4149,76.0,45,180,4.0,0.0
4150,76.0,0,180,10.0,0.0
4151,73.0,0,90,11.0,0.0
4152,47.0,0,60,7.0,0.0
4153,47.0,0,60,13.0,0.0
4154,66.0,0,90,6.0,0.0
4155,47.0,8,60,14.0,0.0
4156,66.0,7,90,12.0,0.0
4157,73.0,0,90,5.0,0.0
4158,46.0,0,60,7.0,0.0
4159,46.0,0,60,13.0,0.0
4160,46.0,113,60,14.0,0.0
4161,47.0,0,90,13.0,0.0
4162,74.0,45,180,10.0,0.0
4163,74.0,0,180,4.0,0.0
4164,66.0,0,90,12.0,0.0
4165,47.0,75,90,14.0,0.0
4166,66.0,0,90,6.0,0.0
4167,74.0,0,90,5.0,0.0
4168,74.0,0,90,11.0,0.0
4169,47.0,0,90,7.0,0.0
4170,76.0,0,90,11.0,0.0
4171,66.0,0,90,6.0,0.0
4172,49.0,0,90,13.0,0.0
4173,66.0,0,90,12.0,0.0
4174,49.0,0,90,7.0,0.0
4175,49.0,0,90,14.0,0.0
4176,76.0,45,90,5.0,0.0
4177,46.0,0,30,13.0,0.0
4178,66.0,0,240,6.0,0.0
4179,46.0,30,30,14.0,0.0
4180,73.0,0,240,5.0,0.0
4181,66.0,0,240,12.0,0.0
4182,46.0,0,30,7.0,0.0
4183,73.0,30,240,11.0,0.0
4184,47.0,0,30,7.0,0.0
4185,47.0,30,30,13.0,0.0
4186,47.0,0,30,14.0,0.0
4187,44.0,0,30,14.0,0.0
4188,44.0,30,30,7.0,0.0
4189,44.0,0,30,13.0,0.0
4190,46.0,0,30,13.0,0.0
4191,46.0,52,30,14.0,0.0
4192,46.0,0,30,7.0,0.0
4193,76.0,0,90,10.0,0.0
4194,76.0,7,90,4.0,0.0
4195,44.0,0,60,7.0,0.0
4196,44.0,0,60,13.0,0.0
4197,44.0,53,60,14.0,0.0
4198,42.0,0,60,14.0,0.0
4199,42.0,0,60,7.0,0.0
4200,42.0,8,60,13.0,0.0
4201,54.0,0,180,7.0,0.0
4202,73.0,30,30,10.0,0.0
4203,54.0,0,180,14.0,0.0
4204,73.0,0,30,4.0,0.0
4205,54.0,45,180,13.0,0.0
4206,74.0,30,30,4.0,0.0
4207,74.0,0,30,10.0,0.0
4208,71.0,30,30,10.0,0.0
4209,71.0,0,30,4.0,0.0
4210,73.0,52,30,4.0,0.0
4211,73.0,0,30,10.0,0.0
4212,73.0,0,90,11.0,0.0
4213,66.0,0,90,6.0,0.0
4214,73.0,7,90,5.0,0.0
4215,71.0,8,60,10.0,0.0
4216,66.0,0,90,12.0,0.0
4217,71.0,0,60,4.0,0.0
4218,70.0,0,60,4.0,0.0
4219,70.0,113,60,10.0,0.0
4220,79.0,0,180,10.0,0.0
4221,73.0,0,90,11.0,0.0
4222,52.0,0,180,7.0,0.0
4223,70.0,0,90,12.0,0.0
4224,52.0,0,180,14.0,0.0
4225,73.0,67,90,5.0,0.0
4226,70.0,0,90,6.0,0.0
4227,79.0,45,180,4.0,0.0
4228,52.0,0,180,13.0,0.0
4229,71.0,0,60,5.0,0.0
4230,73.0,7,90,6.0,0.0
4231,71.0,8,60,11.0,0.0
4232,73.0,0,90,12.0,0.0
4233,70.0,0,60,5.0,0.0
4234,70.0,180,60,11.0,0.0
4235,71.0,0,240,11.0,0.0
4236,78.0,0,180,10.0,0.0
4237,71.0,105,240,5.0,0.0
4238,62.0,0,240,12.0,0.0
4239,74.0,0,240,6.0,0.0
4240,78.0,52,180,4.0,0.0
4241,50.0,0,60,7.0,0.0
4242,50.0,0,60,13.0,0.0
4243,50.0,8,60,14.0,0.0
4244,49.0,0,60,7.0,0.0
4245,49.0,0,60,13.0,0.0
4246,49.0,8,60,14.0,0.0
4247,50.0,0,90,13.0,0.0
4248,50.0,0,90,14.0,0.0
4249,50.0,120,90,7.0,0.0
4250,52.0,0,90,7.0,0.0
4251,64.0,0,90,12.0,0.0
4252,79.0,0,90,10.0,0.0
4253,52.0,0,90,14.0,0.0
4254,79.0,0,90,4.0,0.0
4255,64.0,0,90,6.0,0.0
4256,71.0,45,90,11.0,0.0
4257,52.0,0,90,13.0,0.0
4258,71.0,0,90,5.0,0.0
4259,70.0,15,90,5.0,0.0
4260,76.0,0,30,10.0,0.0
4261,64.0,0,90,6.0,0.0
4262,49.0,0,30,7.0,0.0
4263,49.0,0,30,13.0,0.0
4264,49.0,0,30,14.0,0.0
4265,70.0,0,90,11.0,0.0
4266,76.0,30,30,4.0,0.0
4267,64.0,0,90,12.0,0.0
4268,78.0,0,30,4.0,0.0
4269,50.0,0,30,7.0,0.0
4270,78.0,30,30,10.0,0.0
4271,50.0,0,30,14.0,0.0
4272,50.0,0,30,13.0,0.0
4273,74.0,0,30,4.0,0.0
4274,47.0,0,30,14.0,0.0
4275,47.0,0,30,13.0,0.0
4276,47.0,0,30,7.0,0.0
4277,74.0,15,30,10.0,0.0
4278,49.0,0,30,7.0,0.0
4279,49.0,52,30,14.0,0.0
4280,76.0,0,30,10.0,0.0
4281,76.0,0,30,4.0,0.0
4282,49.0,0,30,13.0,0.0
4283,74.0,53,60,4.0,0.0
4284,66.0,7,90,6.0,0.0
4285,47.0,0,60,13.0,0.0
4286,47.0,0,60,7.0,0.0
4287,71.0,0,90,11.0,0.0
4288,47.0,0,60,14.0,0.0
4289,66.0,0,90,12.0,0.0
4290,71.0,0,90,5.0,0.0
4291,74.0,0,60,10.0,0.0
4292,46.0,0,60,7.0,0.0
4293,73.0,0,60,10.0,0.0
4294,46.0,0,60,14.0,0.0
4295,46.0,0,60,13.0,0.0
4296,73.0,188,60,4.0,0.0
4297,83.0,0,180,4.0,0.0
4298,68.0,0,210,6.0,0.0
4299,53.0,0,210,7.0,0.0
4300,68.0,0,210,12.0,0.0
4301,83.0,45,180,10.0,0.0
4302,73.0,0,330,11.0,0.0
4303,53.0,120,210,14.0,0.0
4304,53.0,0,210,13.0,0.0
4305,73.0,0,330,5.0,0.0
4306,54.0,67,90,13.0,0.0
4307,82.0,0,90,4.0,0.0
4308,54.0,0,90,14.0,0.0
4309,66.0,0,90,12.0,0.0
4310,54.0,0,90,7.0,0.0
4311,66.0,0,90,6.0,0.0
4312,82.0,0,90,10.0,0.0
4313,83.0,53,60,4.0,0.0
4314,42.0,0,90,7.0,0.0
4315,42.0,0,90,14.0,0.0
4316,70.0,0,90,6.0,0.0
4317,83.0,0,60,10.0,0.0
4318,42.0,0,90,13.0,0.0
4319,70.0,0,90,12.0,0.0
4320,76.0,0,90,5.0,0.0
4321,76.0,7,90,11.0,0.0
4322,85.0,113,60,10.0,0.0
4323,85.0,0,60,4.0,0.0
4324,44.0,120,90,13.0,0.0
4325,71.0,0,90,6.0,0.0
4326,44.0,0,90,7.0,0.0
4327,78.0,0,90,4.0,0.0
4328,71.0,0,90,12.0,0.0
4329,74.0,0,90,5.0,0.0
4330,74.0,0,90,11.0,0.0
4331,78.0,0,90,10.0,0.0
4332,44.0,0,90,14.0,0.0
4333,73.0,0,90,5.0,0.0
4334,73.0,0,90,6.0,0.0
4335,46.0,0,90,13.0,0.0
4336,46.0,0,90,14.0,0.0
4337,73.0,0,90,11.0,0.0
4338,46.0,0,90,7.0,0.0
4339,76.0,45,90,4.0,0.0
4340,76.0,0,90,10.0,0.0
4341,73.0,0,90,12.0,0.0
4342,66.0,0,90,6.0,0.0
4343,74.0,0,90,4.0,0.0
4344,47.0,0,90,7.0,0.0
4345,47.0,0,90,13.0,0.0
4346,71.0,15,90,5.0,0.0
4347,66.0,0,90,12.0,0.0
4348,71.0,0,90,11.0,0.0
4349,74.0,30,30,10.0,0.0
4350,47.0,0,90,14.0,0.0
4351,76.0,30,30,10.0,0.0
4352,73.0,15,30,10.0,0.0
4353,74.0,52,30,10.0,0.0
4354,66.0,0,90,12.0,0.0
4355,50.0,0,90,7.0,0.0
4356,73.0,0,60,4.0,0.0
4357,50.0,7,90,14.0,0.0
4358,66.0,0,90,5.0,0.0
4359,66.0,0,90,11.0,0.0
4360,50.0,0,90,13.0,0.0
4361,73.0,53,60,10.0,0.0
4362,66.0,0,90,6.0,0.0
4363,71.0,0,60,10.0,0.0
4364,71.0,113,60,4.0,0.0
4365,64.0,0,90,6.0,0.0
4366,73.0,52,120,10.0,0.0
4367,52.0,0,90,13.0,0.0
4368,64.0,0,90,12.0,0.0
4369,67.0,0,90,11.0,0.0
4370,52.0,0,90,14.0,0.0
4371,67.0,0,90,5.0,0.0
4372,73.0,0,90,4.0,0.0
4373,52.0,15,90,7.0,0.0
4374,54.0,0,90,7.0,0.0
4375,54.0,0,90,14.0,0.0
4376,64.0,0,90,6.0,0.0
4377,83.0,53,60,10.0,0.0
4378,54.0,7,90,13.0,0.0
4379,83.0,0,60,4.0,0.0
4380,66.0,0,90,11.0,0.0
4381,64.0,0,90,12.0,0.0
4382,66.0,0,90,5.0,0.0
4383,82.0,0,60,10.0,0.0
4384,82.0,113,60,4.0,0.0
4385,83.0,0,90,10.0,0.0
4386,55.0,120,90,14.0,0.0
4387,83.0,0,90,4.0,0.0
4388,71.0,0,90,5.0,0.0
4389,62.0,0,90,12.0,0.0
4390,71.0,0,90,11.0,0.0
4391,55.0,0,90,13.0,0.0
4392,55.0,0,90,7.0,0.0
4393,62.0,0,90,6.0,0.0
4394,67.0,0,90,6.0,0.0
4395,67.0,0,90,12.0,0.0
4396,52.0,0,90,14.0,0.0
4397,85.0,0,90,10.0,0.0
4398,85.0,45,90,4.0,0.0
4399,52.0,0,90,13.0,0.0
4400,52.0,0,90,7.0,0.0
4401,76.0,0,90,5.0,0.0
4402,76.0,0,90,11.0,0.0
4403,73.0,0,30,5.0,0.0
4404,66.0,0,90,12.0,0.0
4405,66.0,0,90,6.0,0.0
4406,73.0,0,90,11.0,0.0
4407,58.0,0,90,14.0,0.0
4408,58.0,0,90,7.0,0.0
4409,58.0,15,90,13.0,0.0
4410,76.0,0,30,4.0,0.0
4411,76.0,30,30,10.0,0.0
4412,78.0,30,30,4.0,0.0
4413,74.0,0,30,5.0,0.0
4414,78.0,0,30,10.0,0.0
4415,74.0,0,30,10.0,0.0
4416,71.0,15,30,5.0,0.0
4417,74.0,0,30,4.0,0.0
4418,76.0,52,30,4.0,0.0
4419,73.0,0,30,5.0,0.0
4420,76.0,0,30,10.0,0.0
4421,54.0,0,90,14.0,0.0
4422,54.0,7,90,13.0,0.0
4423,71.0,53,60,11.0,0.0
4424,54.0,0,90,7.0,0.0
4425,74.0,0,60,10.0,0.0
4426,66.0,0,90,12.0,0.0
4427,71.0,0,60,5.0,0.0
4428,74.0,0,60,4.0,0.0
4429,66.0,0,90,6.0,0.0
4430,73.0,0,60,4.0,0.0
4431,73.0,60,60,10.0,0.0
4432,70.0,0,60,11.0,0.0
4433,70.0,0,60,5.0,0.0
4434,71.0,0,90,5.0,0.0
4435,74.0,53,60,4.0,0.0
4436,74.0,0,60,10.0,0.0
4437,59.0,0,90,13.0,0.0
4438,59.0,0,90,7.0,0.0
4439,66.0,0,90,6.0,0.0
4440,59.0,7,90,14.0,0.0
4441,66.0,0,90,12.0,0.0
4442,71.0,0,90,11.0,0.0
4443,76.0,0,60,10.0,0.0
4444,76.0,60,60,4.0,0.0
4445,78.0,53,60,4.0,0.0
4446,50.0,0,90,14.0,0.0
4447,66.0,0,90,12.0,0.0
4448,78.0,0,60,10.0,0.0
4449,71.0,0,90,11.0,0.0
4450,50.0,0,90,13.0,0.0
4451,50.0,0,90,7.0,0.0
4452,66.0,7,90,6.0,0.0
4453,71.0,0,90,5.0,0.0
4454,80.0,113,60,10.0,0.0
4455,80.0,0,60,4.0,0.0
4456,73.0,0,90,12.0,0.0
4457,76.0,0,90,5.0,0.0
4458,73.0,0,90,6.0,0.0
4459,49.0,0,90,13.0,0.0
4460,76.0,120,90,11.0,0.0
4461,49.0,0,90,14.0,0.0
4462,49.0,0,90,7.0,0.0
4463,82.0,0,90,4.0,0.0
4464,82.0,0,90,10.0,0.0
4465,47.0,0,90,14.0,0.0
4466,47.0,0,90,13.0,0.0
4467,74.0,45,90,5.0,0.0
4468,83.0,0,90,10.0,0.0
4469,66.0,0,90,6.0,0.0
4470,66.0,0,90,12.0,0.0
4471,83.0,0,90,4.0,0.0
4472,47.0,0,90,7.0,0.0
4473,74.0,0,90,11.0,0.0
4474,67.0,0,90,11.0,0.0
4475,52.0,0,90,14.0,0.0
4476,73.0,30,30,4.0,0.0
4477,64.0,0,90,12.0,0.0
4478,73.0,0,90,10.0,0.0
4479,67.0,0,90,5.0,0.0
4480,52.0,0,90,13.0,0.0
4481,52.0,15,90,7.0,0.0
4482,64.0,0,90,6.0,0.0
4483,74.0,30,30,4.0,0.0
4484,71.0,15,30,4.0,0.0
4485,73.0,52,30,4.0,0.0
4486,62.0,0,90,6.0,0.0
4487,54.0,7,90,13.0,0.0
4488,66.0,0,60,11.0,0.0
4489,62.0,0,60,12.0,0.0
4490,66.0,0,60,5.0,0.0
4491,71.0,0,60,10.0,0.0
4492,54.0,0,90,14.0,0.0
4493,71.0,53,60,4.0,0.0
4494,54.0,0,90,7.0,0.0
4495,70.0,0,60,10.0,0.0
4496,64.0,0,60,11.0,0.0
4497,70.0,0,60,4.0,0.0
4498,61.0,113,60,12.0,0.0
4499,64.0,0,60,5.0,0.0
4500,62.0,0,90,11.0,0.0
4501,55.0,0,90,14.0,0.0
4502,55.0,120,90,13.0,0.0
4503,62.0,0,90,5.0,0.0
4504,71.0,0,90,4.0,0.0
4505,62.0,0,90,6.0,0.0
4506,59.0,0,90,12.0,0.0
4507,71.0,0,90,10.0,0.0
4508,55.0,0,90,7.0,0.0
4509,52.0,0,90,7.0,0.0
4510,64.0,0,90,12.0,0.0
4511,64.0,120,90,6.0,0.0
4512,73.0,0,90,10.0,0.0
4513,67.0,0,90,5.0,0.0
4514,67.0,0,90,11.0,0.0
4515,52.0,0,90,14.0,0.0
4516,73.0,0,90,4.0,0.0
4517,52.0,0,90,13.0,0.0
4518,66.0,0,90,5.0,0.0
4519,61.0,0,90,12.0,0.0
4520,54.0,0,90,13.0,0.0
4521,54.0,0,90,14.0,0.0
4522,66.0,0,90,4.0,0.0
4523,64.0,0,90,6.0,0.0
4524,66.0,0,90,11.0,0.0
4525,66.0,0,90,10.0,0.0
4526,54.0,120,90,7.0,0.0
4527,70.0,0,90,10.0,0.0
4528,70.0,0,90,4.0,0.0
4529,42.0,0,90,7.0,0.0
4530,66.0,0,90,5.0,0.0
4531,61.0,0,90,12.0,0.0
4532,64.0,255,90,6.0,0.0
4533,42.0,0,90,13.0,0.0
4534,66.0,0,90,11.0,0.0
4535,42.0,0,90,14.0,0.0
4536,47.0,0,240,13.0,0.0
4537,66.0,0,240,11.0,0.0
4538,62.0,0,240,12.0,0.0
4539,62.0,0,240,6.0,0.0
4540,47.0,0,240,14.0,0.0
4541,71.0,0,240,4.0,0.0
4542,66.0,0,240,5.0,0.0
4543,71.0,172,240,10.0,0.0
4544,47.0,0,240,7.0,0.0
4545,74.0,7,90,0.0,0.0
4546,66.0,0,60,10.0,0.0
4547,62.0,53,60,11.0,0.0
4548,59.0,0,90,12.0,0.0
4549,61.0,113,60,11.0,0.0
4550,64.0,0,60,10.0,0.0
4551,66.0,0,90,10.0,0.0
4552,57.0,0,90,12.0,0.0
4553,62.0,0,90,11.0,0.0
4554,74.0,120,90,0.0,0.0
4555,62.0,0,90,11.0,0.0
4556,55.0,120,90,12.0,0.0
4557,67.0,0,90,10.0,0.0
4558,74.0,0,90,0.0,0.0
4559,54.0,0,90,12.0,0.0
4560,74.0,67,90,0.0,0.0
4561,69.0,0,90,10.0,0.0
4562,62.0,0,90,11.0,0.0
4563,69.0,0,60,11.0,0.0
4564,74.0,7,90,0.0,0.0
4565,72.0,53,60,10.0,0.0
4566,54.0,0,90,12.0,0.0
4567,67.0,0,60,11.0,0.0
4568,71.0,113,60,10.0,0.0
4569,72.0,0,90,10.0,0.0
4570,74.0,0,90,0.0,0.0
4571,69.0,67,90,11.0,0.0
4572,54.0,0,90,12.0,0.0
4573,74.0,0,90,2.0,0.0
4574,74.0,0,90,1.0,0.0
4575,50.0,0,90,14.0,0.0
4576,50.0,0,90,13.0,0.0
4577,62.0,0,60,5.0,0.0
4578,62.0,53,60,11.0,0.0
4579,81.0,0,90,4.0,0.0
4580,74.0,7,90,0.0,0.0
4581,81.0,0,90,10.0,0.0
4582,66.0,0,90,6.0,0.0
4583,54.0,0,90,12.0,0.0
4584,50.0,0,90,7.0,0.0
4585,64.0,60,60,11.0,0.0
4586,64.0,0,60,5.0,0.0
4587,57.0,0,90,12.0,0.0
4588,74.0,0,90,2.0,0.0
4589,66.0,53,60,5.0,0.0
4590,66.0,0,60,11.0,0.0
4591,74.0,0,90,1.0,0.0
4592,69.0,0,90,4.0,0.0
4593,62.0,7,90,7.0,0.0
4594,69.0,0,60,10.0,0.0
4595,62.0,0,90,14.0,0.0
4596,74.0,0,90,0.0,0.0
4597,62.0,0,90,13.0,0.0
4598,66.0,0,90,6.0,0.0
4599,67.0,0,60,11.0,0.0
4600,71.0,0,60,10.0,0.0
4601,67.0,113,60,5.0,0.0
4602,72.0,45,90,4.0,0.0
4603,69.0,0,90,5.0,0.0
4604,50.0,0,90,7.0,0.0
4605,72.0,0,90,10.0,0.0
4606,69.0,0,90,11.0,0.0
4607,66.0,0,90,6.0,0.0
4608,54.0,0,90,12.0,0.0
4609,74.0,0,90,1.0,0.0
4610,50.0,0,90,14.0,0.0
4611,74.0,0,90,2.0,0.0
4612,50.0,0,90,13.0,0.0
4613,74.0,0,90,0.0,0.0
4614,74.0,0,240,0.0,0.0
4615,72.0,0,30,10.0,0.0
4616,50.0,0,90,12.0,0.0
4617,62.0,0,90,6.0,0.0
4618,72.0,0,30,4.0,0.0
4619,74.0,105,240,1.0,0.0
4620,55.0,0,90,7.0,0.0
4621,55.0,15,90,13.0,0.0
4622,55.0,0,90,14.0,0.0
4623,69.0,30,30,11.0,0.0
4624,74.0,0,240,2.0,0.0
4625,69.0,0,30,5.0,0.0
4626,71.0,0,30,11.0,0.0
4627,74.0,0,30,4.0,0.0
4628,74.0,30,30,10.0,0.0
4629,71.0,0,30,5.0,0.0
4630,67.0,0,30,11.0,0.0
4631,71.0,0,30,4.0,0.0
4632,71.0,0,30,10.0,0.0
4633,67.0,15,30,5.0,0.0
4634,72.0,0,30,10.0,0.0
4635,69.0,0,30,11.0,0.0
4636,72.0,0,30,4.0,0.0
4637,69.0,105,30,5.0,0.0
4638,50.0,0,90,14.0,0.0
4639,62.0,0,240,6.0,0.0
4640,55.0,15,90,12.0,0.0
4641,71.0,0,210,10.0,0.0
4642,71.0,0,240,4.0,0.0
4643,67.0,15,210,11.0,0.0
4644,67.0,0,240,5.0,0.0
4645,50.0,0,90,7.0,0.0
4646,50.0,0,90,13.0,0.0
4647,43.0,52,120,14.0,0.0
4648,55.0,0,90,12.0,0.0
4649,43.0,0,120,13.0,0.0
4650,43.0,0,120,7.0,0.0
4651,71.0,0,60,10.0,0.0
4652,55.0,7,90,12.0,0.0
4653,67.0,53,60,11.0,0.0
4654,76.0,0,90,0.0,0.0
4655,69.0,0,60,10.0,0.0
4656,66.0,113,60,11.0,0.0
4657,55.0,0,90,12.0,0.0
4658,71.0,0,90,10.0,0.0
4659,76.0,0,90,0.0,0.0
4660,67.0,120,90,11.0,0.0
4661,55.0,120,90,12.0,0.0
4662,69.0,0,90,11.0,0.0
4663,73.0,0,90,10.0,0.0
4664,76.0,0,90,0.0,0.0
4665,71.0,0,90,11.0,0.0
4666,56.0,67,90,12.0,0.0
4667,76.0,0,90,0.0,0.0
4668,74.0,0,90,10.0,0.0
4669,78.0,53,60,10.0,0.0
4670,74.0,0,60,11.0,0.0
4671,76.0,7,90,0.0,0.0
4672,56.0,0,90,12.0,0.0
4673,76.0,113,60,10.0,0.0
4674,73.0,0,60,11.0,0.0
4675,76.0,67,90,0.0,0.0
4676,71.0,0,90,11.0,0.0
4677,74.0,0,90,10.0,0.0
4678,56.0,0,90,12.0,0.0
4679,76.0,0,90,1.0,0.0
4680,64.0,0,60,5.0,0.0
4681,83.0,0,90,10.0,0.0
4682,52.0,0,90,7.0,0.0
4683,68.0,0,90,6.0,0.0
4684,52.0,0,90,14.0,0.0
4685,76.0,7,90,0.0,0.0
4686,76.0,0,90,2.0,0.0
4687,52.0,0,90,13.0,0.0
4688,64.0,53,60,11.0,0.0
4689,56.0,0,90,12.0,0.0
4690,83.0,0,90,4.0,0.0
4691,66.0,0,60,5.0,0.0
4692,66.0,60,60,11.0,0.0
4693,76.0,0,90,1.0,0.0
4694,68.0,53,60,5.0,0.0
4695,64.0,0,90,14.0,0.0
4696,71.0,0,90,4.0,0.0
4697,68.0,0,60,11.0,0.0
4698,64.0,0,90,7.0,0.0
4699,76.0,0,90,0.0,0.0
4700,71.0,0,60,10.0,0.0
4701,68.0,0,90,6.0,0.0
4702,64.0,0,90,13.0,0.0
4703,76.0,0,90,2.0,0.0
4704,59.0,7,90,12.0,0.0
4705,69.0,0,60,5.0,0.0
4706,73.0,0,60,10.0,0.0
4707,69.0,60,60,11.0,0.0
4708,52.0,0,90,7.0,0.0
4709,76.0,0,90,1.0,0.0
4710,52.0,0,90,14.0,0.0
4711,52.0,0,90,13.0,0.0
4712,71.0,7,90,5.0,0.0
4713,56.0,0,90,12.0,0.0
4714,74.0,0,90,10.0,0.0
4715,68.0,0,90,6.0,0.0
4716,71.0,53,60,11.0,0.0
4717,76.0,0,90,0.0,0.0
4718,76.0,0,90,2.0,0.0
4719,74.0,0,90,4.0,0.0
4720,73.0,38,60,11.0,0.0
4721,76.0,0,240,1.0,0.0
4722,74.0,0,30,4.0,0.0
4723,64.0,0,90,6.0,0.0
4724,57.0,0,90,14.0,0.0
4725,71.0,0,30,5.0,0.0
4726,64.0,15,90,12.0,0.0
4727,74.0,0,30,10.0,0.0
4728,76.0,105,240,2.0,0.0
4729,71.0,30,30,11.0,0.0
4730,57.0,0,90,13.0,0.0
4731,45.0,0,240,3.0,0.0
4732,76.0,0,240,0.0,0.0
4733,57.0,0,90,7.0,0.0
4734,76.0,30,30,10.0,0.0
4735,73.0,0,30,5.0,0.0
4736,73.0,0,30,11.0,0.0
4737,76.0,0,30,4.0,0.0
4738,69.0,0,30,11.0,0.0
4739,69.0,0,30,5.0,0.0
4740,73.0,15,30,10.0,0.0
4741,73.0,0,30,4.0,0.0
4742,71.0,0,30,11.0,0.0
4743,74.0,0,30,4.0,0.0
4744,71.0,0,30,5.0,0.0
4745,74.0,105,30,10.0,0.0
4746,52.0,0,90,13.0,0.0
4747,52.0,0,90,7.0,0.0
4748,64.0,0,210,6.0,0.0
4749,52.0,15,90,14.0,0.0
4750,69.0,0,210,11.0,0.0
4751,64.0,0,210,12.0,0.0
4752,73.0,0,210,10.0,0.0
4753,69.0,0,210,5.0,0.0
4754,73.0,67,210,4.0,0.0
4755,45.0,0,90,14.0,0.0
4756,45.0,0,90,7.0,0.0
4757,45.0,0,90,13.0,0.0
4758,45.0,0,90,13.0,0.0
4759,73.0,0,60,5.0,0.0
4760,81.0,0,60,0.0,0.0
4761,81.0,53,60,10.0,0.0
4762,73.0,0,60,11.0,0.0
4763,69.0,0,90,2.0,0.0
4764,45.0,0,90,14.0,0.0
4765,76.0,7,90,1.0,0.0
4766,64.0,0,60,6.0,0.0
4767,81.0,0,60,4.0,0.0
4768,64.0,0,60,12.0,0.0
4769,45.0,0,90,7.0,0.0
4770,80.0,0,60,4.0,0.0
4771,71.0,98,60,11.0,0.0
4772,80.0,0,60,10.0,0.0
4773,80.0,0,60,0.0,0.0
4774,71.0,0,60,5.0,0.0
4775,62.0,0,60,12.0,0.0
4776,62.0,0,60,6.0,0.0
4777,74.0,0,90,5.0,0.0
4778,45.0,0,90,13.0,0.0
4779,83.0,0,90,4.0,0.0
4780,74.0,105,90,2.0,0.0
4781,66.0,0,90,6.0,0.0
4782,66.0,15,90,12.0,0.0
4783,78.0,0,90,1.0,0.0
4784,83.0,0,90,10.0,0.0
4785,83.0,0,90,0.0,0.0
4786,74.0,0,90,11.0,0.0
4787,45.0,0,90,14.0,0.0
4788,45.0,0,90,7.0,0.0
4789,64.0,0,90,12.0,0.0
4790,81.0,0,90,10.0,0.0
4791,76.0,0,90,1.0,0.0
4792,69.0,45,90,2.0,0.0
4793,81.0,0,90,0.0,0.0
4794,64.0,0,90,6.0,0.0
4795,73.0,15,90,5.0,0.0
4796,73.0,0,90,11.0,0.0
4797,81.0,0,90,4.0,0.0
4798,45.0,0,90,7.0,0.0
4799,45.0,0,90,14.0,0.0
4800,45.0,0,90,13.0,0.0
4801,45.0,0,90,14.0,0.0
4802,71.0,0,90,5.0,0.0
4803,45.0,0,90,13.0,0.0
4804,80.0,0,90,0.0,0.0
4805,62.0,0,90,6.0,0.0
4806,71.0,0,30,11.0,0.0
4807,80.0,30,30,10.0,0.0
4808,62.0,0,90,12.0,0.0
4809,45.0,0,90,7.0,0.0
4810,45.0,105,240,3.0,0.0
4811,80.0,0,90,4.0,0.0
4812,74.0,0,90,1.0,0.0
4813,62.0,15,90,2.0,0.0
4814,73.0,30,30,11.0,0.0
4815,81.0,0,30,10.0,0.0
4816,78.0,0,30,10.0,0.0
4817,69.0,15,30,11.0,0.0
4818,80.0,0,30,10.0,0.0
4819,71.0,105,30,11.0,0.0
4820,64.0,0,210,6.0,0.0
4821,73.0,0,210,11.0,0.0
4822,64.0,0,210,12.0,0.0
4823,81.0,0,210,0.0,0.0
4824,76.0,67,210,1.0,0.0
4825,45.0,0,90,14.0,0.0
4826,81.0,0,210,10.0,0.0
4827,45.0,0,90,13.0,0.0
4828,81.0,0,210,4.0,0.0
4829,69.0,0,210,2.0,0.0
4830,73.0,0,210,5.0,0.0
4831,45.0,15,90,7.0,0.0
4832,45.0,0,90,13.0,0.0
4833,45.0,0,90,14.0,0.0
4834,45.0,0,90,7.0,0.0
4835,76.0,0,60,1.0,0.0
4836,79.0,0,60,0.0,0.0
4837,73.0,0,90,12.0,0.0
4838,45.0,7,90,7.0,0.0
4839,45.0,0,90,14.0,0.0
4840,76.0,53,60,5.0,0.0
4841,45.0,0,90,13.0,0.0
4842,69.0,0,90,2.0,0.0
4843,76.0,0,60,11.0,0.0
4844,79.0,0,60,10.0,0.0
4845,79.0,0,60,4.0,0.0
4846,73.0,0,90,6.0,0.0
4847,74.0,0,60,5.0,0.0
4848,78.0,0,60,10.0,0.0
4849,78.0,0,60,4.0,0.0
4850,74.0,0,60,11.0,0.0
4851,78.0,0,60,0.0,0.0
4852,74.0,98,60,1.0,0.0
4853,81.0,105,90,0.0,0.0
4854,81.0,0,90,4.0,0.0
4855,73.0,0,90,5.0,0.0
4856,69.0,0,90,6.0,0.0
4857,69.0,0,90,12.0,0.0
4858,45.0,0,90,14.0,0.0
4859,69.0,0,90,2.0,0.0
4860,73.0,0,90,11.0,0.0
4861,81.0,15,90,10.0,0.0
4862,78.0,0,90,1.0,0.0
4863,45.0,0,90,7.0,0.0
4864,45.0,0,90,13.0,0.0
4865,73.0,0,90,12.0,0.0
4866,79.0,15,90,4.0,0.0
4867,45.0,0,90,7.0,0.0
4868,45.0,0,90,13.0,0.0
4869,45.0,0,90,14.0,0.0
4870,69.0,0,90,2.0,0.0
4871,76.0,0,90,11.0,0.0
4872,76.0,0,90,5.0,0.0
4873,76.0,0,90,1.0,0.0
4874,73.0,0,90,6.0,0.0
4875,79.0,0,90,10.0,0.0
4876,79.0,45,90,0.0,0.0
4877,69.0,0,90,12.0,0.0
4878,78.0,0,30,4.0,0.0
4879,45.0,0,90,7.0,0.0
4880,78.0,0,90,0.0,0.0
4881,74.0,0,30,5.0,0.0
4882,62.0,0,90,2.0,0.0
4883,74.0,0,90,1.0,0.0
4884,45.0,105,240,3.0,0.0
4885,45.0,0,90,14.0,0.0
4886,69.0,0,90,6.0,0.0
4887,78.0,0,30,10.0,0.0
4888,45.0,15,90,13.0,0.0
4889,74.0,30,30,11.0,0.0
4890,79.0,0,30,4.0,0.0
4891,76.0,0,30,11.0,0.0
4892,76.0,0,30,5.0,0.0
4893,79.0,30,30,10.0,0.0
4894,76.0,0,30,4.0,0.0
4895,76.0,0,30,10.0,0.0
4896,73.0,0,30,5.0,0.0
4897,73.0,15,30,11.0,0.0
4898,74.0,0,30,11.0,0.0
4899,74.0,105,30,5.0,0.0
4900,78.0,0,30,10.0,0.0
4901,78.0,0,30,4.0,0.0
4902,79.0,0,240,0.0,0.0
4903,45.0,15,90,14.0,0.0
4904,73.0,0,210,5.0,0.0
4905,73.0,0,210,11.0,0.0
4906,64.0,0,210,12.0,0.0
4907,45.0,0,90,7.0,0.0
4908,69.0,52,240,2.0,0.0
4909,64.0,0,210,6.0,0.0
4910,79.0,15,210,4.0,0.0
4911,45.0,0,90,13.0,0.0
4912,79.0,0,210,10.0,0.0
4913,76.0,0,240,1.0,0.0
4914,45.0,0,90,13.0,0.0
4915,45.0,0,90,14.0,0.0
4916,45.0,0,90,7.0,0.0
4917,77.0,0,60,10.0,0.0
4918,77.0,0,60,4.0,0.0
4919,74.0,0,60,11.0,0.0
4920,69.0,0,60,6.0,0.0
4921,45.0,0,90,7.0,0.0
4922,45.0,0,90,14.0,0.0
4923,69.0,0,60,12.0,0.0
4924,45.0,7,90,13.0,0.0
4925,74.0,53,60,5.0,0.0
4926,73.0,0,60,5.0,0.0
4927,67.0,0,60,12.0,0.0
4928,67.0,98,60,6.0,0.0
4929,73.0,0,60,11.0,0.0
4930,76.0,0,60,10.0,0.0
4931,76.0,0,60,4.0,0.0
4932,76.0,0,90,5.0,0.0
4933,79.0,0,90,10.0,0.0
4934,70.0,0,90,6.0,0.0
4935,45.0,0,90,7.0,0.0
4936,79.0,0,90,4.0,0.0
4937,45.0,105,90,14.0,0.0
4938,70.0,0,90,12.0,0.0
4939,76.0,15,90,11.0,0.0
4940,45.0,0,90,13.0,0.0
4941,74.0,0,90,11.0,0.0
4942,69.0,15,90,6.0,0.0
4943,69.0,0,90,12.0,0.0
4944,45.0,0,90,14.0,0.0
4945,45.0,0,90,7.0,0.0
4946,77.0,0,90,10.0,0.0
4947,45.0,105,90,13.0,0.0
4948,77.0,0,90,4.0,0.0
4949,74.0,0,90,5.0,0.0
4950,76.0,0,90,4.0,0.0
4951,67.0,210,120,12.0,0.0
4952,45.0,0,720,13.0,0.0
4953,73.0,0,120,11.0,0.0
4954,45.0,90,720,14.0,0.0
4955,45.0,0,2250,7.0,0.0
4956,73.0,0,120,5.0,0.0
4957,76.0,15,90,10.0,0.0
4958,67.0,15,90,6.0,0.0
4959,77.0,15,210,4.0,0.0
4960,77.0,0,210,10.0,0.0
4961,74.0,0,120,5.0,0.0
4962,74.0,0,120,11.0,0.0
4963,69.0,210,120,12.0,0.0
4964,69.0,15,90,6.0,0.0
4965,74.0,0,210,10.0,0.0
4966,74.0,15,210,4.0,0.0
4967,65.0,15,90,6.0,0.0
4968,69.0,0,120,11.0,0.0
4969,69.0,0,120,5.0,0.0
4970,65.0,120,120,12.0,0.0
4971,75.0,0,210,4.0,0.0
4972,75.0,15,210,10.0,0.0
4973,70.0,0,120,5.0,0.0
4974,45.0,0,720,13.0,0.0
4975,67.0,15,90,6.0,0.0
4976,45.0,90,720,14.0,0.0
4977,67.0,0,120,12.0,0.0
4978,70.0,210,120,11.0,0.0
4979,73.0,0,210,10.0,0.0
4980,73.0,15,210,4.0,0.0
4981,67.0,210,120,11.0,0.0
4982,64.0,0,120,12.0,0.0
4983,67.0,0,120,5.0,0.0
4984,64.0,15,90,6.0,0.0
4985,74.0,15,210,4.0,0.0
4986,74.0,0,210,10.0,0.0
4987,69.0,0,120,5.0,0.0
4988,65.0,120,120,12.0,0.0
4989,69.0,0,120,11.0,0.0
4990,65.0,15,90,6.0,0.0
4991,70.0,0,210,10.0,0.0
4992,70.0,15,210,4.0,0.0
4993,65.0,15,90,6.0,0.0
4994,74.0,0,120,5.0,0.0
4995,45.0,0,810,14.0,0.0
4996,65.0,210,120,12.0,0.0
4997,45.0,0,810,13.0,0.0
4998,74.0,0,120,11.0,0.0
4999,69.0,0,210,10.0,0.0
5000,69.0,15,210,4.0,0.0
5001,74.0,0,120,5.0,0.0
5002,74.0,0,120,11.0,0.0
5003,65.0,210,120,12.0,0.0
5004,65.0,15,90,6.0,0.0
5005,68.0,15,210,10.0,0.0
5006,68.0,0,210,4.0,0.0
5007,74.0,0,120,11.0,0.0
5008,65.0,0,120,12.0,0.0
5009,74.0,105,120,5.0,0.0
5010,65.0,15,90,6.0,0.0
5011,69.0,0,90,4.0,0.0
5012,69.0,105,90,10.0,0.0
5013,62.0,15,90,6.0,0.0
5014,71.0,0,90,5.0,0.0
5015,80.0,0,90,4.0,0.0
5016,71.0,0,90,11.0,0.0
5017,65.0,0,90,12.0,0.0
5018,80.0,67,90,10.0,0.0
5019,81.0,0,210,10.0,0.0
5020,81.0,0,210,4.0,0.0
5021,73.0,67,210,5.0,0.0
5022,64.0,0,210,6.0,0.0
5023,73.0,0,210,11.0,0.0
5024,64.0,0,210,12.0,0.0
5025,57.0,0,60,14.0,0.0
5026,57.0,0,60,7.0,0.0
5027,57.0,60,60,13.0,0.0
5028,56.0,0,60,7.0,0.0
5029,56.0,0,60,14.0,0.0
5030,56.0,113,60,13.0,0.0
5031,57.0,0,90,14.0,0.0
5032,57.0,0,90,7.0,0.0
5033,57.0,0,90,13.0,0.0
5034,73.0,0,90,5.0,0.0
5035,45.0,7,90,7.0,0.0
5036,76.0,0,90,1.0,0.0
5037,79.0,0,60,4.0,0.0
5038,45.0,105,120,3.0,0.0
5039,69.0,0,90,2.0,0.0
5040,73.0,0,90,11.0,0.0
5041,64.0,0,90,12.0,0.0
5042,79.0,0,60,10.0,0.0
5043,45.0,0,90,13.0,0.0
5044,64.0,0,90,6.0,0.0
5045,79.0,53,60,0.0,0.0
5046,45.0,0,90,14.0,0.0
5047,78.0,0,60,0.0,0.0
5048,78.0,8,60,4.0,0.0
5049,78.0,0,60,10.0,0.0
5050,62.0,0,90,6.0,0.0
5051,47.0,0,90,7.0,0.0
5052,62.0,15,90,12.0,0.0
5053,74.0,0,90,1.0,0.0
5054,74.0,0,90,11.0,0.0
5055,74.0,0,90,5.0,0.0
5056,62.0,0,90,2.0,0.0
5057,79.0,0,90,4.0,0.0
5058,47.0,0,90,14.0,0.0
5059,79.0,0,90,0.0,0.0
5060,47.0,0,90,13.0,0.0
5061,50.0,105,120,3.0,0.0
5062,79.0,0,90,10.0,0.0
5063,49.0,0,90,14.0,0.0
5064,76.0,0,90,1.0,0.0
5065,76.0,0,90,4.0,0.0
5066,76.0,0,90,0.0,0.0
5067,69.0,0,90,12.0,0.0
5068,69.0,0,90,2.0,0.0
5069,76.0,15,90,11.0,0.0
5070,76.0,0,90,5.0,0.0
5071,69.0,0,90,6.0,0.0
5072,49.0,0,90,7.0,0.0
5073,76.0,0,90,10.0,0.0
5074,45.0,52,120,3.0,0.0
5075,49.0,0,90,13.0,0.0
5076,50.0,52,120,3.0,0.0
5077,78.0,0,60,4.0,0.0
5078,78.0,53,60,10.0,0.0
5079,74.0,0,90,11.0,0.0
5080,50.0,7,90,7.0,0.0
5081,50.0,0,90,14.0,0.0
5082,69.0,0,90,6.0,0.0
5083,69.0,0,90,2.0,0.0
5084,74.0,0,90,5.0,0.0
5085,69.0,0,90,12.0,0.0
5086,50.0,0,90,13.0,0.0
5087,78.0,0,60,0.0,0.0
5088,74.0,0,90,1.0,0.0
5089,79.0,0,60,4.0,0.0
5090,79.0,0,60,10.0,0.0
5091,79.0,8,60,0.0,0.0
5092,54.0,0,90,13.0,0.0
5093,69.0,0,90,2.0,0.0
5094,54.0,0,90,14.0,0.0
5095,54.0,0,90,7.0,0.0
5096,74.0,0,90,1.0,0.0
5097,81.0,0,60,0.0,0.0
5098,50.0,105,120,3.0,0.0
5099,74.0,0,90,5.0,0.0
5100,69.0,0,90,6.0,0.0
5101,69.0,0,90,12.0,0.0
5102,74.0,7,90,11.0,0.0
5103,81.0,0,60,10.0,0.0
5104,81.0,53,60,4.0,0.0
5105,83.0,0,60,4.0,0.0
5106,83.0,8,60,10.0,0.0
5107,83.0,0,60,0.0,0.0
5108,69.0,0,90,6.0,0.0
5109,69.0,0,90,12.0,0.0
5110,69.0,0,90,2.0,0.0
5111,85.0,0,90,4.0,0.0
5112,52.0,0,90,7.0,0.0
5113,79.0,0,90,5.0,0.0
5114,76.0,15,90,11.0,0.0
5115,85.0,0,90,10.0,0.0
5116,45.0,105,120,3.0,0.0
5117,79.0,0,90,1.0,0.0
5118,52.0,0,90,13.0,0.0
5119,52.0,0,90,14.0,0.0
5120,85.0,0,90,0.0,0.0
5121,78.0,0,90,11.0,0.0
5122,69.0,0,90,12.0,0.0
5123,50.0,0,90,7.0,0.0
5124,86.0,15,90,10.0,0.0
5125,50.0,52,120,3.0,0.0
5126,69.0,0,90,6.0,0.0
5127,86.0,0,90,0.0,0.0
5128,50.0,0,90,13.0,0.0
5129,78.0,0,90,1.0,0.0
5130,50.0,0,90,14.0,0.0
5131,78.0,0,90,5.0,0.0
5132,86.0,0,90,4.0,0.0
5133,69.0,0,90,2.0,0.0
5134,69.0,0,90,4.0,0.0
5135,69.0,0,90,2.0,0.0
5136,45.0,52,120,3.0,0.0
5137,69.0,7,90,6.0,0.0
5138,57.0,0,90,14.0,0.0
5139,69.0,0,90,10.0,0.0
5140,76.0,0,90,1.0,0.0
5141,57.0,0,90,7.0,0.0
5142,69.0,0,90,12.0,0.0
5143,79.0,0,90,5.0,0.0
5144,79.0,0,90,11.0,0.0
5145,57.0,0,90,13.0,0.0
5146,85.0,53,60,0.0,0.0
5147,83.0,8,60,0.0,0.0
5148,45.0,0,90,14.0,0.0
5149,45.0,0,90,7.0,0.0
5150,45.0,0,90,13.0,0.0
5151,69.0,7,90,2.0,0.0
5152,73.0,0,90,4.0,0.0
5153,81.0,53,60,0.0,0.0
5154,45.0,105,120,3.0,0.0
5155,73.0,0,90,10.0,0.0
5156,67.0,0,90,12.0,0.0
5157,76.0,0,90,5.0,0.0
5158,76.0,0,90,11.0,0.0
5159,76.0,0,90,1.0,0.0
5160,69.0,0,90,6.0,0.0
5161,79.0,8,60,0.0,0.0
5162,47.0,0,240,7.0,0.0
5163,47.0,30,240,14.0,0.0
5164,74.0,0,180,1.0,0.0
5165,69.0,67,90,6.0,0.0
5166,62.0,53,180,10.0,0.0
5167,74.0,0,90,5.0,0.0
5168,50.0,0,240,3.0,0.0
5169,47.0,0,240,13.0,0.0
5170,78.0,0,180,0.0,0.0
5171,66.0,0,90,12.0,0.0
5172,62.0,0,180,4.0,0.0
5173,74.0,7,210,2.0,0.0
5174,74.0,0,90,11.0,0.0
5175,68.0,0,60,6.0,0.0
5176,71.0,0,60,11.0,0.0
5177,71.0,0,60,5.0,0.0
5178,68.0,0,60,12.0,0.0
5179,73.0,0,60,5.0,0.0
5180,69.0,0,60,12.0,0.0
5181,69.0,8,60,6.0,0.0
5182,76.0,0,60,1.0,0.0
5183,73.0,0,60,11.0,0.0
5184,64.0,0,60,4.0,0.0
5185,80.0,0,60,0.0,0.0
5186,64.0,0,60,10.0,0.0
5187,66.0,30,60,10.0,0.0
5188,74.0,0,90,5.0,0.0
5189,74.0,0,90,11.0,0.0
5190,80.0,0,330,0.0,0.0
5191,74.0,0,210,2.0,0.0
5192,71.0,0,90,6.0,0.0
5193,66.0,0,60,4.0,0.0
5194,76.0,30,30,1.0,0.0
5195,50.0,60,480,3.0,0.0
5196,71.0,15,90,12.0,0.0
5197,78.0,0,30,1.0,0.0
5198,76.0,15,30,1.0,0.0
5199,68.0,30,60,10.0,0.0
5200,68.0,0,60,4.0,0.0
5201,78.0,0,30,1.0,0.0
5202,49.0,8,60,7.0,0.0
5203,49.0,0,60,13.0,0.0
5204,76.0,22,30,1.0,0.0
5205,74.0,0,90,5.0,0.0
5206,74.0,0,90,11.0,0.0
5207,71.0,7,90,12.0,0.0
5208,71.0,0,90,6.0,0.0
5209,49.0,0,60,14.0,0.0
5210,69.0,0,60,4.0,0.0
5211,69.0,30,60,10.0,0.0
5212,78.0,0,30,1.0,0.0
5213,71.0,8,60,4.0,0.0
5214,50.0,0,60,14.0,0.0
5215,76.0,15,30,1.0,0.0
5216,71.0,0,60,10.0,0.0
5217,50.0,0,60,7.0,0.0
5218,50.0,0,60,13.0,0.0
5219,78.0,30,30,1.0,0.0
5220,74.0,0,90,11.0,0.0
5221,52.0,0,90,14.0,0.0
5222,71.0,0,90,6.0,0.0
5223,52.0,0,90,13.0,0.0
5224,76.0,30,30,1.0,0.0
5225,74.0,0,90,5.0,0.0
5226,71.0,15,90,12.0,0.0
5227,62.0,7,210,2.0,0.0
5228,69.0,0,60,4.0,0.0
5229,52.0,0,90,7.0,0.0
5230,69.0,30,60,10.0,0.0
5231,78.0,0,30,1.0,0.0
5232,68.0,0,60,4.0,0.0
5233,68.0,0,60,10.0,0.0
5234,76.0,15,30,1.0,0.0
5235,78.0,30,30,1.0,0.0
5236,76.0,22,30,1.0,0.0
5237,66.0,0,60,4.0,0.0
5238,74.0,0,90,11.0,0.0
5239,40.0,0,90,14.0,0.0
5240,40.0,0,90,13.0,0.0
5241,74.0,0,90,5.0,0.0
5242,66.0,30,60,10.0,0.0
5243,78.0,8,60,0.0,0.0
5244,68.0,0,90,6.0,0.0
5245,40.0,0,90,7.0,0.0
5246,68.0,0,90,12.0,0.0
5247,78.0,0,30,1.0,0.0
5248,64.0,0,60,4.0,0.0
5249,64.0,0,60,10.0,0.0
5250,80.0,8,60,0.0,0.0
5251,74.0,15,30,1.0,0.0
5252,76.0,0,30,1.0,0.0
5253,76.0,0,240,1.0,0.0
5254,69.0,0,240,2.0,0.0
5255,74.0,15,90,5.0,0.0
5256,64.0,0,240,6.0,0.0
5257,64.0,0,240,12.0,0.0
5258,45.0,172,240,3.0,0.0
5259,81.0,0,240,0.0,0.0
5260,74.0,45,60,10.0,0.0
5261,74.0,0,60,4.0,0.0
5262,45.0,0,240,7.0,0.0
5263,74.0,0,90,11.0,0.0
5264,45.0,0,240,13.0,0.0
5265,45.0,0,240,14.0,0.0
5266,73.0,0,60,10.0,0.0
5267,73.0,60,60,4.0,0.0
5268,73.0,0,120,5.0,0.0
5269,71.0,0,60,4.0,0.0
5270,73.0,0,120,11.0,0.0
5271,71.0,52,60,10.0,0.0
5272,69.0,8,60,10.0,0.0
5273,69.0,0,60,4.0,0.0
5274,79.0,0,180,4.0,0.0
5275,79.0,45,180,10.0,0.0
5276,76.0,0,90,5.0,0.0
5277,50.0,0,60,13.0,0.0
5278,69.0,0,90,6.0,0.0
5279,76.0,7,90,11.0,0.0
5280,50.0,8,60,7.0,0.0
5281,50.0,0,60,14.0,0.0
5282,69.0,0,90,12.0,0.0
5283,49.0,113,60,13.0,0.0
5284,49.0,0,60,14.0,0.0
5285,49.0,0,60,7.0,0.0
5286,50.0,75,90,7.0,0.0
5287,78.0,20,180,4.0,0.0
5288,78.0,0,90,5.0,0.0
5289,69.0,0,90,12.0,0.0
5290,78.0,0,90,11.0,0.0
5291,50.0,0,90,13.0,0.0
5292,78.0,0,180,10.0,0.0
5293,69.0,0,90,6.0,0.0
5294,50.0,0,90,14.0,0.0
5295,52.0,0,90,13.0,0.0
5296,52.0,0,90,14.0,0.0
5297,79.0,0,90,11.0,0.0
5298,69.0,0,90,6.0,0.0
5299,79.0,25,90,5.0,0.0
5300,52.0,15,90,7.0,0.0
5301,69.0,0,90,12.0,0.0
5302,78.0,30,20,5.0,0.0
5303,69.0,45,180,6.0,0.0
5304,76.0,0,240,11.0,0.0
5305,49.0,0,30,13.0,0.0
5306,49.0,0,30,14.0,0.0
5307,49.0,30,30,7.0,0.0
5308,76.0,30,240,5.0,0.0
5309,69.0,0,240,12.0,0.0
5310,50.0,0,30,13.0,0.0
5311,50.0,0,30,7.0,0.0
5312,50.0,30,30,14.0,0.0
5313,47.0,30,30,14.0,0.0
5314,47.0,0,30,7.0,0.0
5315,47.0,0,30,13.0,0.0
5316,49.0,0,30,14.0,0.0
5317,49.0,52,30,13.0,0.0
5318,49.0,0,30,7.0,0.0
5319,79.0,0,90,10.0,0.0
5320,47.0,8,60,14.0,0.0
5321,47.0,0,60,13.0,0.0
5322,79.0,7,90,4.0,0.0
5323,47.0,0,60,7.0,0.0
5324,45.0,8,60,7.0,0.0
5325,45.0,0,60,13.0,0.0
5326,45.0,0,60,14.0,0.0
5327,57.0,0,180,13.0,0.0
5328,57.0,45,180,14.0,0.0
5329,57.0,0,180,7.0,0.0
5330,76.0,30,30,4.0,0.0
5331,76.0,0,30,10.0,0.0
5332,78.0,0,30,4.0,0.0
5333,78.0,30,30,10.0,0.0
5334,74.0,0,30,4.0,0.0
5335,74.0,30,30,10.0,0.0
5336,76.0,0,30,4.0,0.0
5337,76.0,52,30,10.0,0.0
5338,74.0,0,60,10.0,0.0
5339,76.0,0,90,5.0,0.0
5340,69.0,7,90,6.0,0.0
5341,69.0,0,90,12.0,0.0
5342,76.0,0,90,11.0,0.0
5343,74.0,8,60,4.0,0.0
5344,73.0,38,60,10.0,0.0
5345,73.0,0,60,4.0,0.0
5346,76.0,0,30,11.0,0.0
5347,71.0,0,90,6.0,0.0
5348,55.0,0,180,14.0,0.0
5349,76.0,30,30,5.0,0.0
5350,83.0,45,180,10.0,0.0
5351,71.0,15,90,12.0,0.0
5352,55.0,0,180,13.0,0.0
5353,55.0,0,180,7.0,0.0
5354,83.0,0,180,4.0,0.0
5355,78.0,0,30,5.0,0.0
5356,78.0,30,30,11.0,0.0
5357,74.0,15,30,5.0,0.0
5358,74.0,0,30,11.0,0.0
5359,76.0,52,30,5.0,0.0
5360,76.0,0,30,11.0,0.0
5361,64.0,7,90,6.0,0.0
5362,74.0,8,60,11.0,0.0
5363,74.0,0,60,5.0,0.0
5364,64.0,0,90,12.0,0.0
5365,73.0,180,60,5.0,0.0
5366,73.0,0,60,11.0,0.0
5367,74.0,0,240,5.0,0.0
5368,66.0,0,240,6.0,0.0
5369,81.0,0,180,10.0,0.0
5370,74.0,105,240,11.0,0.0
5371,81.0,52,180,4.0,0.0
5372,66.0,0,240,12.0,0.0
5373,54.0,0,60,14.0,0.0
5374,54.0,0,60,13.0,0.0
5375,54.0,8,60,7.0,0.0
5376,52.0,0,60,14.0,0.0
5377,52.0,8,60,13.0,0.0
5378,52.0,0,60,7.0,0.0
5379,54.0,120,90,14.0,0.0
5380,54.0,0,90,7.0,0.0
5381,54.0,0,90,13.0,0.0
5382,62.0,120,90,12.0,0.0
5383,55.0,0,90,14.0,0.0
5384,55.0,0,90,13.0,0.0
5385,74.0,0,90,5.0,0.0
5386,62.0,0,90,6.0,0.0
5387,55.0,0,90,7.0,0.0
5388,83.0,0,90,4.0,0.0
5389,74.0,0,90,11.0,0.0
5390,83.0,0,90,10.0,0.0
5391,73.0,0,90,5.0,0.0
5392,73.0,0,90,11.0,0.0
5393,52.0,0,90,13.0,0.0
5394,52.0,0,90,14.0,0.0
5395,64.0,0,90,12.0,0.0
5396,79.0,0,90,10.0,0.0
5397,79.0,0,90,4.0,0.0
5398,52.0,67,90,7.0,0.0
5399,64.0,0,90,6.0,0.0
5400,69.0,0,90,6.0,0.0
5401,78.0,0,60,4.0,0.0
5402,69.0,0,90,12.0,0.0
5403,78.0,0,60,10.0,0.0
5404,50.0,0,60,14.0,0.0
5405,74.0,7,90,11.0,0.0
5406,74.0,0,90,5.0,0.0
5407,50.0,0,60,13.0,0.0
5408,50.0,53,60,7.0,0.0
5409,76.0,188,60,10.0,0.0
5410,76.0,0,60,4.0,0.0
5411,49.0,0,60,13.0,0.0
5412,49.0,0,60,7.0,0.0
5413,49.0,0,60,14.0,0.0
5414,71.0,120,210,6.0,0.0
5415,76.0,0,330,11.0,0.0
5416,56.0,45,180,14.0,0.0
5417,76.0,0,330,5.0,0.0
5418,71.0,0,210,12.0,0.0
5419,56.0,0,180,7.0,0.0
5420,86.0,0,210,10.0,0.0
5421,86.0,0,180,4.0,0.0
5422,56.0,0,180,13.0,0.0
5423,69.0,0,90,12.0,0.0
5424,85.0,0,90,10.0,0.0
5425,85.0,0,90,4.0,0.0
5426,57.0,0,90,14.0,0.0
5427,69.0,0,90,6.0,0.0
5428,57.0,0,90,13.0,0.0
5429,57.0,67,90,7.0,0.0
5430,79.0,0,60,0.0,0.0
5431,69.0,0,90,2.0,0.0
5432,79.0,0,60,10.0,0.0
5433,64.0,0,90,12.0,0.0
5434,76.0,0,90,1.0,0.0
5435,45.0,0,90,7.0,0.0
5436,73.0,0,90,11.0,0.0
5437,45.0,90,120,3.0,0.0
5438,79.0,53,60,4.0,0.0
5439,45.0,7,90,13.0,0.0
5440,73.0,0,90,5.0,0.0
5441,45.0,0,90,14.0,0.0
5442,64.0,0,90,6.0,0.0
5443,78.0,8,60,4.0,0.0
5444,78.0,0,60,0.0,0.0
5445,78.0,0,60,10.0,0.0
5446,50.0,90,120,3.0,0.0
5447,79.0,15,90,10.0,0.0
5448,47.0,0,90,14.0,0.0
5449,71.0,0,90,6.0,0.0
5450,47.0,0,90,7.0,0.0
5451,79.0,15,90,4.0,0.0
5452,74.0,0,90,1.0,0.0
5453,79.0,0,90,0.0,0.0
5454,71.0,0,90,12.0,0.0
5455,74.0,0,90,5.0,0.0
5456,74.0,0,90,11.0,0.0
5457,47.0,0,90,13.0,0.0
5458,62.0,0,90,2.0,0.0
5459,76.0,0,90,11.0,0.0
5460,69.0,0,90,12.0,0.0
5461,81.0,0,90,0.0,0.0
5462,49.0,0,90,13.0,0.0
5463,49.0,0,90,7.0,0.0
5464,76.0,15,90,1.0,0.0
5465,69.0,0,90,2.0,0.0
5466,69.0,0,90,6.0,0.0
5467,45.0,52,120,3.0,0.0
5468,49.0,0,90,14.0,0.0
5469,81.0,15,90,4.0,0.0
5470,81.0,0,90,10.0,0.0
5471,76.0,0,90,5.0,0.0
5472,69.0,0,120,2.0,0.0
5473,69.0,0,90,12.0,0.0
5474,74.0,0,90,11.0,0.0
5475,74.0,7,90,1.0,0.0
5476,50.0,0,90,14.0,0.0
5477,74.0,0,90,5.0,0.0
5478,79.0,45,60,10.0,0.0
5479,50.0,0,90,7.0,0.0
5480,79.0,0,60,4.0,0.0
5481,69.0,0,90,6.0,0.0
5482,79.0,8,60,0.0,0.0
5483,50.0,0,90,13.0,0.0
5484,50.0,52,120,3.0,0.0
5485,78.0,0,60,4.0,0.0
5486,78.0,0,60,10.0,0.0
5487,78.0,8,60,0.0,0.0
5488,76.0,0,60,10.0,0.0
5489,76.0,8,60,0.0,0.0
5490,69.0,7,90,1.0,0.0
5491,69.0,0,90,6.0,0.0
5492,69.0,0,90,12.0,0.0
5493,54.0,0,90,13.0,0.0
5494,69.0,0,90,11.0,0.0
5495,69.0,0,90,5.0,0.0
5496,54.0,0,90,14.0,0.0
5497,54.0,0,90,7.0,0.0
5498,76.0,45,60,4.0,0.0
5499,74.0,60,60,0.0,0.0
5500,74.0,0,60,4.0,0.0
5501,74.0,0,60,10.0,0.0
5502,78.0,45,60,10.0,0.0
5503,55.0,7,90,7.0,0.0
5504,67.0,0,90,6.0,0.0
5505,71.0,0,90,5.0,0.0
5506,78.0,0,60,4.0,0.0
5507,67.0,0,90,12.0,0.0
5508,74.0,0,90,1.0,0.0
5509,55.0,0,90,13.0,0.0
5510,78.0,8,60,0.0,0.0
5511,71.0,0,90,11.0,0.0
5512,55.0,0,90,14.0,0.0
5513,76.0,8,60,0.0,0.0
5514,76.0,52,60,10.0,0.0
5515,76.0,0,60,4.0,0.0
5516,74.0,45,60,10.0,0.0
5517,57.0,0,90,13.0,0.0
5518,69.0,0,90,2.0,0.0
5519,57.0,0,90,7.0,0.0
5520,66.0,0,60,6.0,0.0
5521,69.0,0,60,11.0,0.0
5522,69.0,8,60,5.0,0.0
5523,74.0,0,60,0.0,0.0
5524,57.0,0,90,14.0,0.0
5525,74.0,0,60,4.0,0.0
5526,78.0,7,90,1.0,0.0
5527,45.0,105,120,3.0,0.0
5528,66.0,0,60,12.0,0.0
5529,73.0,0,60,0.0,0.0
5530,64.0,0,60,6.0,0.0
5531,67.0,8,60,11.0,0.0
5532,73.0,0,60,10.0,0.0
5533,67.0,0,60,5.0,0.0
5534,64.0,0,60,12.0,0.0
5535,73.0,0,60,4.0,0.0
5536,59.0,0,90,13.0,0.0
5537,59.0,0,90,14.0,0.0
5538,74.0,0,90,0.0,0.0
5539,66.0,0,90,5.0,0.0
5540,62.0,0,90,6.0,0.0
5541,62.0,0,90,2.0,0.0
5542,78.0,0,90,1.0,0.0
5543,62.0,0,90,12.0,0.0
5544,74.0,0,90,10.0,0.0
5545,59.0,15,90,7.0,0.0
5546,74.0,0,90,4.0,0.0
5547,66.0,0,90,11.0,0.0
5548,50.0,105,120,3.0,0.0
5549,50.0,30,120,3.0,0.0
5550,62.0,15,90,2.0,0.0
5551,67.0,0,90,6.0,0.0
5552,76.0,0,90,10.0,0.0
5553,71.0,0,90,5.0,0.0
5554,55.0,0,90,13.0,0.0
5555,76.0,0,90,0.0,0.0
5556,67.0,0,90,12.0,0.0
5557,79.0,0,90,1.0,0.0
5558,55.0,0,90,14.0,0.0
5559,76.0,0,90,4.0,0.0
5560,55.0,0,90,7.0,0.0
5561,71.0,0,90,11.0,0.0
5562,69.0,0,330,2.0,0.0
5563,61.0,0,90,14.0,0.0
5564,61.0,0,90,13.0,0.0
5565,76.0,0,90,11.0,0.0
5566,67.0,0,90,10.0,0.0
5567,67.0,30,30,4.0,0.0
5568,79.0,0,90,1.0,0.0
5569,61.0,0,90,7.0,0.0
5570,64.0,0,90,12.0,0.0
5571,69.0,0,330,0.0,0.0
5572,76.0,0,90,5.0,0.0
5573,64.0,15,90,6.0,0.0
5574,45.0,52,120,3.0,0.0
5575,69.0,30,30,4.0,0.0
5576,66.0,15,30,4.0,0.0
5577,67.0,0,30,4.0,0.0
5578,66.0,8,60,4.0,0.0
5579,74.0,0,60,5.0,0.0
5580,57.0,0,90,14.0,0.0
5581,57.0,0,90,13.0,0.0
5582,74.0,0,60,11.0,0.0
5583,81.0,0,60,1.0,0.0
5584,57.0,0,90,12.0,0.0
5585,66.0,0,60,10.0,0.0
5586,69.0,0,90,6.0,0.0
5587,57.0,7,90,7.0,0.0
5588,45.0,45,60,3.0,0.0
5589,73.0,0,60,11.0,0.0
5590,73.0,8,60,5.0,0.0
5591,64.0,0,60,10.0,0.0
5592,64.0,0,60,4.0,0.0
5593,79.0,0,60,1.0,0.0
5594,45.0,52,60,3.0,0.0
5595,66.0,45,60,4.0,0.0
5596,66.0,8,60,10.0,0.0
5597,57.0,0,90,12.0,0.0
5598,62.0,0,90,7.0,0.0
5599,62.0,7,90,13.0,0.0
5600,50.0,52,120,3.0,0.0
5601,69.0,0,90,6.0,0.0
5602,78.0,0,90,1.0,0.0
5603,62.0,0,90,14.0,0.0
5604,74.0,0,90,11.0,0.0
5605,74.0,0,90,5.0,0.0
5606,67.0,0,60,4.0,0.0
5607,67.0,8,60,10.0,0.0
5608,54.0,7,90,14.0,0.0
5609,74.0,0,90,0.0,0.0
5610,69.0,45,60,4.0,0.0
5611,69.0,8,60,10.0,0.0
5612,54.0,0,90,13.0,0.0
5613,74.0,0,90,1.0,0.0
5614,69.0,0,90,12.0,0.0
5615,69.0,0,90,2.0,0.0
5616,50.0,52,120,3.0,0.0
5617,54.0,0,90,7.0,0.0
5618,62.0,0,90,11.0,0.0
5619,62.0,0,90,5.0,0.0
5620,69.0,0,90,6.0,0.0
5621,71.0,0,60,4.0,0.0
5622,71.0,8,60,10.0,0.0
5623,45.0,0,120,3.0,0.0
5624,73.0,8,60,10.0,0.0
5625,79.0,0,90,1.0,0.0
5626,52.0,0,90,7.0,0.0
5627,52.0,0,90,13.0,0.0
5628,69.0,7,90,5.0,0.0
5629,76.0,0,90,0.0,0.0
5630,67.0,0,90,12.0,0.0
5631,52.0,0,90,14.0,0.0
5632,67.0,0,90,6.0,0.0
5633,69.0,0,90,2.0,0.0
5634,69.0,0,90,11.0,0.0
5635,73.0,45,60,4.0,0.0
5636,74.0,8,60,10.0,0.0
5637,74.0,52,60,4.0,0.0
5638,50.0,0,90,14.0,0.0
5639,69.0,0,90,2.0,0.0
5640,50.0,0,90,13.0,0.0
5641,50.0,52,120,3.0,0.0
5642,66.0,0,90,6.0,0.0
5643,78.0,0,90,0.0,0.0
5644,78.0,0,210,1.0,0.0
5645,69.0,0,90,5.0,0.0
5646,76.0,8,60,10.0,0.0
5647,66.0,0,90,12.0,0.0
5648,69.0,7,90,11.0,0.0
5649,76.0,45,60,4.0,0.0
5650,50.0,0,90,7.0,0.0
5651,78.0,8,60,4.0,0.0
5652,78.0,0,60,10.0,0.0
5653,59.0,0,90,13.0,0.0
5654,79.0,0,60,0.0,0.0
5655,74.0,0,90,5.0,0.0
5656,79.0,53,60,4.0,0.0
5657,62.0,0,120,2.0,0.0
5658,66.0,0,90,6.0,0.0
5659,66.0,0,90,12.0,0.0
5660,59.0,0,90,7.0,0.0
5661,50.0,52,120,3.0,0.0
5662,59.0,0,90,14.0,0.0
5663,74.0,7,90,11.0,0.0
5664,79.0,0,60,10.0,0.0
5665,81.0,0,60,10.0,0.0
5666,81.0,0,60,4.0,0.0
5667,78.0,8,60,0.0,0.0
5668,79.0,0,60,0.0,0.0
5669,76.0,0,90,1.0,0.0
5670,73.0,0,90,5.0,0.0
5671,73.0,0,90,11.0,0.0
5672,83.0,0,60,4.0,0.0
5673,67.0,0,90,6.0,0.0
5674,67.0,0,90,12.0,0.0
5675,52.0,0,90,7.0,0.0
5676,52.0,0,90,13.0,0.0
5677,52.0,7,90,14.0,0.0
5678,83.0,53,60,10.0,0.0
5679,79.0,0,60,4.0,0.0
5680,79.0,0,60,10.0,0.0
5681,76.0,113,60,0.0,0.0
5682,62.0,0,90,12.0,0.0
5683,54.0,0,90,14.0,0.0
5684,54.0,67,90,7.0,0.0
5685,74.0,0,90,1.0,0.0
5686,81.0,0,90,10.0,0.0
5687,81.0,0,90,4.0,0.0
5688,74.0,0,90,11.0,0.0
5689,54.0,0,90,13.0,0.0
5690,74.0,0,90,5.0,0.0
5691,62.0,0,90,6.0,0.0
5692,81.0,0,90,0.0,0.0
5693,74.0,0,90,10.0,0.0
5694,55.0,7,90,7.0,0.0
5695,74.0,0,90,4.0,0.0
5696,62.0,0,90,2.0,0.0
5697,83.0,53,60,0.0,0.0
5698,71.0,0,90,11.0,0.0
5699,71.0,0,90,5.0,0.0
5700,64.0,0,90,6.0,0.0
5701,74.0,0,90,1.0,0.0
5702,67.0,0,90,12.0,0.0
5703,50.0,52,120,3.0,0.0
5704,55.0,0,90,14.0,0.0
5705,55.0,0,90,13.0,0.0
5706,81.0,8,60,0.0,0.0
5707,66.0,0,90,6.0,0.0
5708,69.0,7,90,2.0,0.0
5709,45.0,52,120,3.0,0.0
5710,66.0,0,90,12.0,0.0
5711,57.0,0,90,13.0,0.0
5712,69.0,0,90,10.0,0.0
5713,57.0,0,90,7.0,0.0
5714,69.0,0,90,11.0,0.0
5715,79.0,53,60,0.0,0.0
5716,74.0,0,90,1.0,0.0
5717,57.0,0,90,14.0,0.0
5718,69.0,0,90,5.0,0.0
5719,69.0,0,90,4.0,0.0
5720,78.0,8,60,0.0,0.0
5721,45.0,0,90,13.0,0.0
5722,73.0,0,90,10.0,0.0
5723,45.0,0,90,7.0,0.0
5724,73.0,0,90,4.0,0.0
5725,64.0,7,90,12.0,0.0
5726,69.0,0,90,2.0,0.0
5727,76.0,53,60,0.0,0.0
5728,69.0,0,90,5.0,0.0
5729,67.0,0,90,6.0,0.0
5730,69.0,0,90,1.0,0.0
5731,69.0,0,90,11.0,0.0
5732,45.0,0,90,14.0,0.0
5733,45.0,360,120,3.0,0.0
5734,78.0,8,60,0.0,0.0
5735,38.0,0,360,14.0,0.0
5736,50.0,0,360,3.0,0.0
5737,74.0,0,360,0.0,0.0
5738,66.0,0,360,6.0,0.0
5739,50.0,0,360,7.0,0.0
5740,69.0,0,360,11.0,0.0
5741,66.0,0,360,2.0,0.0
5742,69.0,0,360,1.0,0.0
5743,74.0,0,360,4.0,0.0
5744,69.0,0,360,5.0,0.0
5745,74.0,0,360,10.0,0.0
5746,38.0,0,360,13.0,0.0
5747,66.0,361,360,12.0,0.0
