,note,step,duration,channel,velocity
0,74.0,0,20,0.0,0.0
1,70.0,0,20,1.0,0.0
2,67.0,0,20,2.0,0.0
3,74.0,0,20,5.0,0.0
4,70.0,0,20,5.0,0.0
5,67.0,45,20,5.0,0.0
6,79.0,0,40,0.0,0.0
7,74.0,0,40,1.0,0.0
8,70.0,0,40,2.0,0.0
9,79.0,0,40,5.0,0.0
10,74.0,0,40,5.0,0.0
11,70.0,3,40,5.0,0.0
12,43.0,0,20,3.0,0.0
13,31.0,0,20,4.0,0.0
14,43.0,45,20,6.0,0.0
15,55.0,0,40,3.0,0.0
16,43.0,0,40,4.0,0.0
17,55.0,3,40,6.0,0.0
18,74.0,0,20,0.0,0.0
19,70.0,0,20,1.0,0.0
20,67.0,0,20,2.0,0.0
21,74.0,0,20,5.0,0.0
22,70.0,0,20,5.0,0.0
23,67.0,45,20,5.0,0.0
24,75.0,0,40,0.0,0.0
25,72.0,0,40,1.0,0.0
26,60.0,0,40,2.0,0.0
27,75.0,0,40,5.0,0.0
28,72.0,0,40,5.0,0.0
29,67.0,3,40,5.0,0.0
30,43.0,0,20,3.0,0.0
31,31.0,0,20,4.0,0.0
32,43.0,45,20,6.0,0.0
33,55.0,0,40,3.0,0.0
34,43.0,0,40,4.0,0.0
35,55.0,3,40,6.0,0.0
36,72.0,0,20,0.0,0.0
37,69.0,0,20,1.0,0.0
38,60.0,0,20,2.0,0.0
39,72.0,0,20,5.0,0.0
40,69.0,13,20,5.0,0.0
41,74.0,0,15,0.0,0.0
42,70.0,0,15,1.0,0.0
43,55.0,0,20,2.0,0.0
44,74.0,11,15,5.0,0.0
45,70.0,1,20,5.0,0.0
46,72.0,0,15,0.0,0.0
47,69.0,0,15,1.0,0.0
48,72.0,12,15,5.0,0.0
49,70.0,0,15,0.0,0.0
50,67.0,0,15,1.0,0.0
51,62.0,0,20,2.0,0.0
52,43.0,0,20,3.0,0.0
53,31.0,0,20,4.0,0.0
54,70.0,11,15,5.0,0.0
55,43.0,1,20,6.0,0.0
56,74.0,0,15,0.0,0.0
57,70.0,0,15,1.0,0.0
58,74.0,12,15,5.0,0.0
59,72.0,0,15,0.0,0.0
60,69.0,0,15,1.0,0.0
61,54.0,0,20,2.0,0.0
62,50.0,0,20,3.0,0.0
63,38.0,0,20,4.0,0.0
64,72.0,11,15,5.0,0.0
65,50.0,0,20,6.0,0.0
66,54.0,1,20,6.0,0.0
67,70.0,0,15,0.0,0.0
68,67.0,0,15,1.0,0.0
69,70.0,12,15,5.0,0.0
70,69.0,0,15,0.0,0.0
71,66.0,0,15,1.0,0.0
72,62.0,0,20,2.0,0.0
73,38.0,0,20,3.0,0.0
74,26.0,0,20,4.0,0.0
75,69.0,11,15,5.0,0.0
76,38.0,1,20,6.0,0.0
77,72.0,0,15,0.0,0.0
78,69.0,0,15,1.0,0.0
79,72.0,23,15,5.0,0.0
80,70.0,0,20,0.0,0.0
81,67.0,0,20,1.0,0.0
82,62.0,0,20,2.0,0.0
83,43.0,0,20,3.0,0.0
84,31.0,0,20,4.0,0.0
85,70.0,0,20,5.0,0.0
86,43.0,13,20,6.0,0.0
87,67.0,0,20,0.0,0.0
88,62.0,0,20,1.0,0.0
89,58.0,0,20,2.0,0.0
90,55.0,0,15,3.0,0.0
91,43.0,0,15,4.0,0.0
92,67.0,1,20,5.0,0.0
93,55.0,11,15,6.0,0.0
94,57.0,0,15,3.0,0.0
95,45.0,0,15,4.0,0.0
96,57.0,23,15,6.0,0.0
97,58.0,0,20,3.0,0.0
98,46.0,0,20,4.0,0.0
99,58.0,3,20,6.0,0.0
100,67.0,0,15,0.0,0.0
101,67.0,12,15,5.0,0.0
102,66.0,0,15,0.0,0.0
103,62.0,0,20,1.0,0.0
104,58.0,0,20,2.0,0.0
105,55.0,0,20,3.0,0.0
106,43.0,0,20,4.0,0.0
107,66.0,9,15,5.0,0.0
108,55.0,1,20,6.0,0.0
109,67.0,0,15,0.0,0.0
110,67.0,12,15,5.0,0.0
111,69.0,0,15,0.0,0.0
112,62.0,0,20,1.0,0.0
113,57.0,0,20,2.0,0.0
114,54.0,0,20,3.0,0.0
115,42.0,0,20,4.0,0.0
116,69.0,11,15,5.0,0.0
117,54.0,3,20,6.0,0.0
118,67.0,0,15,0.0,0.0
119,67.0,12,15,5.0,0.0
120,66.0,0,15,0.0,0.0
121,50.0,0,20,3.0,0.0
122,38.0,0,20,4.0,0.0
123,66.0,9,15,5.0,0.0
124,50.0,1,20,6.0,0.0
125,67.0,0,15,0.0,0.0
126,67.0,12,15,5.0,0.0
127,70.0,0,15,0.0,0.0
128,62.0,0,20,1.0,0.0
129,55.0,0,20,2.0,0.0
130,55.0,0,20,3.0,0.0
131,43.0,0,20,4.0,0.0
132,70.0,11,15,5.0,0.0
133,55.0,3,20,6.0,0.0
134,67.0,0,15,0.0,0.0
135,67.0,12,15,5.0,0.0
136,66.0,0,15,0.0,0.0
137,50.0,0,20,3.0,0.0
138,38.0,0,20,4.0,0.0
139,66.0,9,15,5.0,0.0
140,50.0,1,20,6.0,0.0
141,67.0,0,15,0.0,0.0
142,67.0,12,15,5.0,0.0
143,72.0,0,15,0.0,0.0
144,66.0,0,20,1.0,0.0
145,60.0,0,20,2.0,0.0
146,57.0,0,20,3.0,0.0
147,45.0,0,20,4.0,0.0
148,72.0,11,15,5.0,0.0
149,57.0,3,20,6.0,0.0
150,67.0,0,15,0.0,0.0
151,67.0,12,15,5.0,0.0
152,66.0,0,15,0.0,0.0
153,50.0,0,20,3.0,0.0
154,38.0,0,20,4.0,0.0
155,66.0,9,15,5.0,0.0
156,50.0,1,20,6.0,0.0
157,67.0,0,15,0.0,0.0
158,67.0,12,15,5.0,0.0
159,74.0,0,15,0.0,0.0
160,67.0,0,20,1.0,0.0
161,58.0,0,20,2.0,0.0
162,58.0,0,20,3.0,0.0
163,46.0,0,20,4.0,0.0
164,74.0,11,15,5.0,0.0
165,58.0,3,20,6.0,0.0
166,67.0,0,15,0.0,0.0
167,67.0,12,15,5.0,0.0
168,66.0,0,15,0.0,0.0
169,55.0,0,20,3.0,0.0
170,43.0,0,20,4.0,0.0
171,66.0,9,15,5.0,0.0
172,55.0,1,20,6.0,0.0
173,67.0,0,15,0.0,0.0
174,67.0,12,15,5.0,0.0
175,75.0,0,15,0.0,0.0
176,67.0,0,20,1.0,0.0
177,55.0,0,20,2.0,0.0
178,60.0,0,20,3.0,0.0
179,48.0,0,20,4.0,0.0
180,75.0,11,15,5.0,0.0
181,60.0,1,20,6.0,0.0
182,77.0,0,15,0.0,0.0
183,77.0,12,15,5.0,0.0
184,75.0,0,15,0.0,0.0
185,72.0,0,20,1.0,0.0
186,57.0,3,30,2.0,0.0
187,48.0,0,20,3.0,0.0
188,36.0,0,20,4.0,0.0
189,75.0,11,15,5.0,0.0
190,48.0,1,20,6.0,0.0
191,74.0,0,15,0.0,0.0
192,74.0,9,15,5.0,0.0
193,72.0,0,15,0.0,0.0
194,66.0,0,20,1.0,0.0
195,50.0,0,20,3.0,0.0
196,38.0,0,20,4.0,0.0
197,72.0,11,15,5.0,0.0
198,50.0,1,20,6.0,0.0
199,70.0,0,15,0.0,0.0
200,55.0,0,15,2.0,0.0
201,70.0,12,15,5.0,0.0
202,69.0,0,15,0.0,0.0
203,72.0,14,30,1.0,0.0
204,54.0,0,15,2.0,0.0
205,51.0,0,20,3.0,0.0
206,39.0,0,20,4.0,0.0
207,69.0,11,15,5.0,0.0
208,51.0,1,20,6.0,0.0
209,67.0,0,15,0.0,0.0
210,55.0,0,15,2.0,0.0
211,67.0,9,15,5.0,0.0
212,66.0,0,20,0.0,0.0
213,57.0,0,20,2.0,0.0
214,50.0,0,20,3.0,0.0
215,38.0,0,20,4.0,0.0
216,66.0,0,20,5.0,0.0
217,50.0,1,20,6.0,0.0
218,74.0,12,15,1.0,0.0
219,62.0,0,20,0.0,0.0
220,72.0,11,15,1.0,0.0
221,69.0,0,20,2.0,0.0
222,38.0,0,20,3.0,0.0
223,26.0,0,20,4.0,0.0
224,62.0,0,20,5.0,0.0
225,38.0,1,20,6.0,0.0
226,70.0,12,15,1.0,0.0
227,81.0,0,60,0.0,0.0
228,69.0,11,15,1.0,0.0
229,66.0,1,20,2.0,0.0
230,81.0,3,60,5.0,0.0
231,67.0,12,15,1.0,0.0
232,66.0,0,15,1.0,0.0
233,62.0,3,40,2.0,0.0
234,62.0,0,15,3.0,0.0
235,50.0,0,15,4.0,0.0
236,62.0,12,15,6.0,0.0
237,64.0,0,15,1.0,0.0
238,60.0,0,15,3.0,0.0
239,48.0,0,15,4.0,0.0
240,60.0,12,15,6.0,0.0
241,62.0,5,15,1.0,0.0
242,58.0,0,20,3.0,0.0
243,46.0,0,20,4.0,0.0
244,58.0,1,20,6.0,0.0
245,72.0,12,15,1.0,0.0
246,79.0,0,15,0.0,0.0
247,70.0,0,15,1.0,0.0
248,67.0,0,15,2.0,0.0
249,62.0,0,20,3.0,0.0
250,50.0,0,20,4.0,0.0
251,79.0,11,15,5.0,0.0
252,62.0,1,20,6.0,0.0
253,78.0,0,15,0.0,0.0
254,69.0,0,15,1.0,0.0
255,69.0,0,15,2.0,0.0
256,78.0,12,15,5.0,0.0
257,79.0,0,20,0.0,0.0
258,67.0,11,15,1.0,0.0
259,70.0,0,20,2.0,0.0
260,58.0,0,20,3.0,0.0
261,46.0,0,20,4.0,0.0
262,79.0,0,20,5.0,0.0
263,58.0,1,20,6.0,0.0
264,65.0,12,15,1.0,0.0
265,82.0,0,40,0.0,0.0
266,64.0,11,15,1.0,0.0
267,58.0,0,20,2.0,0.0
268,55.0,0,20,3.0,0.0
269,43.0,0,20,4.0,0.0
270,82.0,3,40,5.0,0.0
271,55.0,1,20,6.0,0.0
272,62.0,12,15,1.0,0.0
273,64.0,8,15,1.0,0.0
274,55.0,0,20,2.0,0.0
275,60.0,0,20,3.0,0.0
276,48.0,0,20,4.0,0.0
277,60.0,1,20,6.0,0.0
278,72.0,12,15,1.0,0.0
279,76.0,0,20,0.0,0.0
280,70.0,11,15,1.0,0.0
281,67.0,0,20,2.0,0.0
282,48.0,0,20,3.0,0.0
283,36.0,0,20,4.0,0.0
284,76.0,0,20,5.0,0.0
285,48.0,1,20,6.0,0.0
286,69.0,12,15,1.0,0.0
287,79.0,0,60,0.0,0.0
288,67.0,11,15,1.0,0.0
289,64.0,1,20,2.0,0.0
290,79.0,3,60,5.0,0.0
291,65.0,12,15,1.0,0.0
292,64.0,0,15,1.0,0.0
293,60.0,3,40,2.0,0.0
294,60.0,0,15,3.0,0.0
295,48.0,0,15,4.0,0.0
296,60.0,12,15,6.0,0.0
297,62.0,0,15,1.0,0.0
298,58.0,0,15,3.0,0.0
299,46.0,0,15,4.0,0.0
300,58.0,12,15,6.0,0.0
301,60.0,5,15,1.0,0.0
302,57.0,0,20,3.0,0.0
303,45.0,0,20,4.0,0.0
304,57.0,1,20,6.0,0.0
305,70.0,12,15,1.0,0.0
306,77.0,0,15,0.0,0.0
307,69.0,0,15,1.0,0.0
308,65.0,0,15,2.0,0.0
309,60.0,0,20,3.0,0.0
310,48.0,0,20,4.0,0.0
311,77.0,11,15,5.0,0.0
312,60.0,1,20,6.0,0.0
313,76.0,0,15,0.0,0.0
314,67.0,0,15,1.0,0.0
315,67.0,0,15,2.0,0.0
316,76.0,12,15,5.0,0.0
317,77.0,0,20,0.0,0.0
318,65.0,11,15,1.0,0.0
319,69.0,0,20,2.0,0.0
320,57.0,0,20,3.0,0.0
321,45.0,0,20,4.0,0.0
322,77.0,0,20,5.0,0.0
323,57.0,1,20,6.0,0.0
324,64.0,12,15,1.0,0.0
325,81.0,0,30,0.0,0.0
326,62.0,11,15,1.0,0.0
327,57.0,0,20,2.0,0.0
328,53.0,0,20,3.0,0.0
329,41.0,0,20,4.0,0.0
330,81.0,3,30,5.0,0.0
331,53.0,1,20,6.0,0.0
332,61.0,9,15,1.0,0.0
333,62.0,11,15,1.0,0.0
334,53.0,0,20,2.0,0.0
335,58.0,0,20,3.0,0.0
336,46.0,0,20,4.0,0.0
337,58.0,1,20,6.0,0.0
338,79.0,0,15,0.0,0.0
339,70.0,0,15,1.0,0.0
340,79.0,12,15,5.0,0.0
341,77.0,0,15,0.0,0.0
342,69.0,0,15,1.0,0.0
343,62.0,0,20,2.0,0.0
344,46.0,0,20,3.0,0.0
345,34.0,0,20,4.0,0.0
346,77.0,11,15,5.0,0.0
347,46.0,1,20,6.0,0.0
348,76.0,0,15,0.0,0.0
349,67.0,0,15,1.0,0.0
350,76.0,12,15,5.0,0.0
351,74.0,0,60,0.0,0.0
352,65.0,11,15,1.0,0.0
353,65.0,1,20,2.0,0.0
354,74.0,6,60,5.0,0.0
355,64.0,12,15,1.0,0.0
356,62.0,0,15,1.0,0.0
357,70.0,1,20,2.0,0.0
358,58.0,0,15,3.0,0.0
359,46.0,0,15,4.0,0.0
360,58.0,11,15,6.0,0.0
361,60.0,0,15,1.0,0.0
362,57.0,0,15,3.0,0.0
363,45.0,0,15,4.0,0.0
364,57.0,12,15,6.0,0.0
365,58.0,0,20,1.0,0.0
366,64.0,1,20,2.0,0.0
367,55.0,0,15,3.0,0.0
368,43.0,0,15,4.0,0.0
369,55.0,5,15,6.0,0.0
370,57.0,0,15,3.0,0.0
371,45.0,0,15,4.0,0.0
372,57.0,12,15,6.0,0.0
373,76.0,0,15,0.0,0.0
374,70.0,3,30,1.0,0.0
375,67.0,1,20,2.0,0.0
376,55.0,0,15,3.0,0.0
377,43.0,0,15,4.0,0.0
378,76.0,0,15,5.0,0.0
379,55.0,11,15,6.0,0.0
380,77.0,0,15,0.0,0.0
381,53.0,0,15,3.0,0.0
382,41.0,0,15,4.0,0.0
383,77.0,0,15,5.0,0.0
384,53.0,9,15,6.0,0.0
385,79.0,0,20,0.0,0.0
386,61.0,0,20,2.0,0.0
387,52.0,0,15,3.0,0.0
388,40.0,0,15,4.0,0.0
389,79.0,1,20,5.0,0.0
390,52.0,11,15,6.0,0.0
391,69.0,0,15,1.0,0.0
392,53.0,0,15,3.0,0.0
393,41.0,0,15,4.0,0.0
394,53.0,12,15,6.0,0.0
395,70.0,0,20,0.0,0.0
396,67.0,0,15,1.0,0.0
397,64.0,3,40,2.0,0.0
398,52.0,0,15,3.0,0.0
399,40.0,0,15,4.0,0.0
400,70.0,1,20,5.0,0.0
401,52.0,11,15,6.0,0.0
402,65.0,0,15,1.0,0.0
403,50.0,0,15,3.0,0.0
404,38.0,0,15,4.0,0.0
405,50.0,12,15,6.0,0.0
406,69.0,0,20,0.0,0.0
407,64.0,0,20,1.0,0.0
408,49.0,0,15,3.0,0.0
409,37.0,0,15,4.0,0.0
410,69.0,1,20,5.0,0.0
411,49.0,8,15,6.0,0.0
412,45.0,0,15,3.0,0.0
413,33.0,0,15,4.0,0.0
414,45.0,12,15,6.0,0.0
415,79.0,0,20,0.0,0.0
416,76.0,0,20,1.0,0.0
417,57.0,0,20,2.0,0.0
418,47.0,0,15,3.0,0.0
419,35.0,0,15,4.0,0.0
420,79.0,1,20,5.0,0.0
421,47.0,11,15,6.0,0.0
422,49.0,0,15,3.0,0.0
423,37.0,0,15,4.0,0.0
424,49.0,12,15,6.0,0.0
425,77.0,0,20,0.0,0.0
426,74.0,0,20,1.0,0.0
427,69.0,0,20,2.0,0.0
428,50.0,0,15,3.0,0.0
429,38.0,0,15,4.0,0.0
430,77.0,1,20,5.0,0.0
431,50.0,11,15,6.0,0.0
432,52.0,0,15,3.0,0.0
433,40.0,0,15,4.0,0.0
434,52.0,12,15,6.0,0.0
435,69.0,0,20,0.0,0.0
436,62.0,0,20,1.0,0.0
437,65.0,0,20,2.0,0.0
438,53.0,0,15,3.0,0.0
439,41.0,0,15,4.0,0.0
440,69.0,1,20,5.0,0.0
441,53.0,11,15,6.0,0.0
442,50.0,0,15,3.0,0.0
443,38.0,0,15,4.0,0.0
444,50.0,12,15,6.0,0.0
445,67.0,0,15,0.0,0.0
446,62.0,0,20,1.0,0.0
447,62.0,0,20,2.0,0.0
448,46.0,0,20,3.0,0.0
449,34.0,0,20,4.0,0.0
450,67.0,11,15,5.0,0.0
451,46.0,1,20,6.0,0.0
452,69.0,0,15,0.0,0.0
453,69.0,12,15,5.0,0.0
454,70.0,0,15,0.0,0.0
455,61.0,0,20,1.0,0.0
456,65.0,0,20,2.0,0.0
457,45.0,0,20,3.0,0.0
458,33.0,0,20,4.0,0.0
459,70.0,11,15,5.0,0.0
460,45.0,1,20,6.0,0.0
461,69.0,0,15,0.0,0.0
462,69.0,12,15,5.0,0.0
463,67.0,0,15,0.0,0.0
464,62.0,0,20,1.0,0.0
465,67.0,0,15,2.0,0.0
466,46.0,0,20,3.0,0.0
467,34.0,0,20,4.0,0.0
468,67.0,11,15,5.0,0.0
469,46.0,1,20,6.0,0.0
470,65.0,0,15,0.0,0.0
471,69.0,0,15,2.0,0.0
472,65.0,12,15,5.0,0.0
473,64.0,0,15,0.0,0.0
474,70.0,3,40,1.0,0.0
475,67.0,0,15,2.0,0.0
476,43.0,0,20,3.0,0.0
477,31.0,0,20,4.0,0.0
478,64.0,11,15,5.0,0.0
479,43.0,1,20,6.0,0.0
480,62.0,0,15,0.0,0.0
481,65.0,0,15,2.0,0.0
482,62.0,20,15,5.0,0.0
483,61.0,0,20,0.0,0.0
484,64.0,0,20,2.0,0.0
485,45.0,0,30,3.0,0.0
486,33.0,0,30,4.0,0.0
487,61.0,10,20,5.0,0.0
488,45.0,10,30,6.0,0.0
489,70.0,0,20,0.0,0.0
490,64.0,0,20,1.0,0.0
491,67.0,0,20,2.0,0.0
492,70.0,2,20,5.0,0.0
493,47.0,0,15,3.0,0.0
494,35.0,0,15,4.0,0.0
495,47.0,4,15,6.0,0.0
496,49.0,0,15,3.0,0.0
497,37.0,0,15,4.0,0.0
498,49.0,11,15,6.0,0.0
499,69.0,0,20,0.0,0.0
500,65.0,0,20,1.0,0.0
501,65.0,0,20,2.0,0.0
502,50.0,0,15,3.0,0.0
503,38.0,0,15,4.0,0.0
504,69.0,1,20,5.0,0.0
505,50.0,11,15,6.0,0.0
506,52.0,0,15,3.0,0.0
507,40.0,0,15,4.0,0.0
508,52.0,12,15,6.0,0.0
509,74.0,0,20,0.0,0.0
510,74.0,0,20,1.0,0.0
511,69.0,0,20,2.0,0.0
512,53.0,0,15,3.0,0.0
513,41.0,0,15,4.0,0.0
514,74.0,1,20,5.0,0.0
515,53.0,11,15,6.0,0.0
516,55.0,0,15,3.0,0.0
517,43.0,0,15,4.0,0.0
518,55.0,23,15,6.0,0.0
519,77.0,0,20,0.0,0.0
520,74.0,0,20,1.0,0.0
521,69.0,18,20,2.0,0.0
522,57.0,0,20,3.0,0.0
523,45.0,0,20,4.0,0.0
524,77.0,0,40,5.0,0.0
525,74.0,0,40,5.0,0.0
526,69.0,3,40,5.0,0.0
527,57.0,3,20,6.0,0.0
528,55.0,0,20,3.0,0.0
529,43.0,0,20,4.0,0.0
530,55.0,9,20,6.0,0.0
531,76.0,0,15,0.0,0.0
532,73.0,6,15,1.0,0.0
533,69.0,6,20,2.0,0.0
534,57.0,0,20,3.0,0.0
535,45.0,0,20,4.0,0.0
536,76.0,6,60,5.0,0.0
537,73.0,6,60,5.0,0.0
538,57.0,3,20,6.0,0.0
539,69.0,3,40,6.0,0.0
540,77.0,0,15,0.0,0.0
541,74.0,6,15,1.0,0.0
542,76.0,0,15,0.0,0.0
543,73.0,3,15,1.0,0.0
544,77.0,0,15,0.0,0.0
545,74.0,0,15,1.0,0.0
546,76.0,0,15,0.0,0.0
547,73.0,6,15,1.0,0.0
548,45.0,0,20,3.0,0.0
549,33.0,0,20,4.0,0.0
550,45.0,3,20,6.0,0.0
551,77.0,0,15,0.0,0.0
552,74.0,6,15,1.0,0.0
553,76.0,0,15,0.0,0.0
554,73.0,0,15,1.0,0.0
555,77.0,0,15,0.0,0.0
556,74.0,4,15,1.0,0.0
557,76.0,5,15,0.0,0.0
558,73.0,0,40,1.0,0.0
559,70.0,3,40,2.0,0.0
560,55.0,0,20,3.0,0.0
561,43.0,0,20,4.0,0.0
562,55.0,0,20,6.0,0.0
563,70.0,1,20,6.0,0.0
564,77.0,0,15,0.0,0.0
565,77.0,12,15,5.0,0.0
566,79.0,0,15,0.0,0.0
567,53.0,0,20,3.0,0.0
568,41.0,0,20,4.0,0.0
569,79.0,8,15,5.0,0.0
570,53.0,1,20,6.0,0.0
571,76.0,0,15,0.0,0.0
572,76.0,12,15,5.0,0.0
573,73.0,0,15,0.0,0.0
574,55.0,0,20,3.0,0.0
575,43.0,0,20,4.0,0.0
576,73.0,11,15,5.0,0.0
577,55.0,1,20,6.0,0.0
578,74.0,0,15,0.0,0.0
579,74.0,12,15,5.0,0.0
580,76.0,0,15,0.0,0.0
581,73.0,0,20,1.0,0.0
582,69.0,0,20,2.0,0.0
583,43.0,0,20,3.0,0.0
584,31.0,0,20,4.0,0.0
585,76.0,11,15,5.0,0.0
586,43.0,1,20,6.0,0.0
587,73.0,0,15,0.0,0.0
588,73.0,23,15,5.0,0.0
589,81.0,0,20,0.0,0.0
590,74.0,0,20,1.0,0.0
591,57.0,0,20,2.0,0.0
592,41.0,0,20,3.0,0.0
593,29.0,0,20,4.0,0.0
594,81.0,0,20,5.0,0.0
595,41.0,24,20,6.0,0.0
596,74.0,0,20,0.0,0.0
597,65.0,0,20,1.0,0.0
598,58.0,0,20,2.0,0.0
599,46.0,0,20,3.0,0.0
600,34.0,0,20,4.0,0.0
601,74.0,0,20,5.0,0.0
602,65.0,0,20,5.0,0.0
603,46.0,24,20,6.0,0.0
604,76.0,0,20,0.0,0.0
605,67.0,0,20,1.0,0.0
606,58.0,0,20,2.0,0.0
607,43.0,0,20,3.0,0.0
608,31.0,0,20,4.0,0.0
609,76.0,0,20,5.0,0.0
610,67.0,0,20,5.0,0.0
611,43.0,24,20,6.0,0.0
612,73.0,0,20,0.0,0.0
613,64.0,0,20,1.0,0.0
614,57.0,0,20,2.0,0.0
615,45.0,0,20,3.0,0.0
616,33.0,0,20,4.0,0.0
617,73.0,0,20,5.0,0.0
618,64.0,0,20,5.0,0.0
619,45.0,13,20,6.0,0.0
620,74.0,0,15,0.0,0.0
621,62.0,1,20,1.0,0.0
622,57.0,10,20,2.0,0.0
623,46.0,0,40,3.0,0.0
624,34.0,0,40,4.0,0.0
625,74.0,0,15,5.0,0.0
626,62.0,3,40,5.0,0.0
627,46.0,11,15,6.0,0.0
628,72.0,0,15,0.0,0.0
629,72.0,0,15,5.0,0.0
630,50.0,2,15,6.0,0.0
631,70.0,0,15,0.0,0.0
632,74.0,0,15,1.0,0.0
633,55.0,1,20,2.0,0.0
634,70.0,0,15,5.0,0.0
635,52.0,8,15,6.0,0.0
636,69.0,0,15,0.0,0.0
637,72.0,0,15,1.0,0.0
638,69.0,0,15,5.0,0.0
639,54.0,12,15,6.0,0.0
640,67.0,0,20,0.0,0.0
641,70.0,0,15,1.0,0.0
642,67.0,1,20,5.0,0.0
643,55.0,11,15,6.0,0.0
644,69.0,0,15,1.0,0.0
645,57.0,12,15,6.0,0.0
646,67.0,0,20,0.0,0.0
647,67.0,0,15,1.0,0.0
648,62.0,0,20,2.0,0.0
649,58.0,0,20,3.0,0.0
650,46.0,0,20,4.0,0.0
651,67.0,1,20,5.0,0.0
652,58.0,11,15,6.0,0.0
653,65.0,0,15,1.0,0.0
654,55.0,12,15,6.0,0.0
655,67.0,0,15,0.0,0.0
656,64.0,0,15,1.0,0.0
657,64.0,0,20,2.0,0.0
658,49.0,0,20,3.0,0.0
659,37.0,10,20,4.0,0.0
660,67.0,11,15,5.0,0.0
661,49.0,1,20,6.0,0.0
662,69.0,0,15,0.0,0.0
663,62.0,0,15,1.0,0.0
664,69.0,2,15,5.0,0.0
665,70.0,0,30,0.0,0.0
666,61.0,11,15,1.0,0.0
667,67.0,0,20,2.0,0.0
668,49.0,0,20,3.0,0.0
669,37.0,7,20,4.0,0.0
670,70.0,3,30,5.0,0.0
671,49.0,1,20,6.0,0.0
672,62.0,2,15,1.0,0.0
673,64.0,11,15,1.0,0.0
674,49.0,0,20,3.0,0.0
675,37.0,0,20,4.0,0.0
676,49.0,1,20,6.0,0.0
677,69.0,0,15,0.0,0.0
678,65.0,0,15,1.0,0.0
679,69.0,12,15,5.0,0.0
680,67.0,0,15,0.0,0.0
681,67.0,0,15,1.0,0.0
682,64.0,0,20,2.0,0.0
683,52.0,0,20,3.0,0.0
684,40.0,0,20,4.0,0.0
685,67.0,11,15,5.0,0.0
686,52.0,1,20,6.0,0.0
687,65.0,0,15,0.0,0.0
688,69.0,0,15,1.0,0.0
689,65.0,12,15,5.0,0.0
690,64.0,0,15,0.0,0.0
691,70.0,0,15,1.0,0.0
692,61.0,0,20,2.0,0.0
693,43.0,0,20,3.0,0.0
694,31.0,10,20,4.0,0.0
695,64.0,11,15,5.0,0.0
696,43.0,1,20,6.0,0.0
697,65.0,0,15,0.0,0.0
698,69.0,0,15,1.0,0.0
699,65.0,2,15,5.0,0.0
700,67.0,0,30,0.0,0.0
701,67.0,11,15,1.0,0.0
702,64.0,0,20,2.0,0.0
703,43.0,0,20,3.0,0.0
704,31.0,7,20,4.0,0.0
705,67.0,3,30,5.0,0.0
706,43.0,1,20,6.0,0.0
707,65.0,2,15,1.0,0.0
708,64.0,11,15,1.0,0.0
709,43.0,0,20,3.0,0.0
710,31.0,0,20,4.0,0.0
711,43.0,1,20,6.0,0.0
712,65.0,0,15,0.0,0.0
713,62.0,0,15,1.0,0.0
714,65.0,12,15,5.0,0.0
715,64.0,0,15,0.0,0.0
716,61.0,0,15,1.0,0.0
717,55.0,3,40,2.0,0.0
718,46.0,0,20,3.0,0.0
719,34.0,0,20,4.0,0.0
720,64.0,11,15,5.0,0.0
721,46.0,1,20,6.0,0.0
722,62.0,0,15,0.0,0.0
723,62.0,0,15,1.0,0.0
724,62.0,12,15,5.0,0.0
725,61.0,0,20,0.0,0.0
726,67.0,8,15,1.0,0.0
727,40.0,0,20,3.0,0.0
728,28.0,0,20,4.0,0.0
729,61.0,0,20,5.0,0.0
730,40.0,1,20,6.0,0.0
731,64.0,12,15,1.0,0.0
732,69.0,0,20,0.0,0.0
733,65.0,11,15,1.0,0.0
734,62.0,0,20,2.0,0.0
735,38.0,0,20,3.0,0.0
736,26.0,0,20,4.0,0.0
737,69.0,0,20,5.0,0.0
738,65.0,0,20,5.0,0.0
739,62.0,0,20,5.0,0.0
740,38.0,1,20,6.0,0.0
741,62.0,23,15,1.0,0.0
742,65.0,0,20,0.0,0.0
743,57.0,0,20,1.0,0.0
744,62.0,0,20,2.0,0.0
745,45.0,0,20,3.0,0.0
746,33.0,0,20,4.0,0.0
747,65.0,0,20,5.0,0.0
748,62.0,0,20,5.0,0.0
749,45.0,13,20,6.0,0.0
750,64.0,0,15,0.0,0.0
751,61.0,0,20,1.0,0.0
752,57.0,0,20,2.0,0.0
753,45.0,0,20,3.0,0.0
754,33.0,0,20,4.0,0.0
755,64.0,11,15,5.0,0.0
756,61.0,0,20,5.0,0.0
757,45.0,1,20,6.0,0.0
758,62.0,0,15,0.0,0.0
759,62.0,23,15,5.0,0.0
760,62.0,0,40,0.0,0.0
761,62.0,0,40,1.0,0.0
762,54.0,0,40,2.0,0.0
763,38.0,0,20,3.0,0.0
764,26.0,0,20,4.0,0.0
765,62.0,4,40,5.0,0.0
766,38.0,13,20,6.0,0.0
767,50.0,0,15,3.0,0.0
768,38.0,0,15,4.0,0.0
769,50.0,8,15,6.0,0.0
770,48.0,0,15,3.0,0.0
771,36.0,0,15,4.0,0.0
772,48.0,12,15,6.0,0.0
773,46.0,0,20,3.0,0.0
774,34.0,1,20,4.0,0.0
775,46.0,11,15,6.0,0.0
776,48.0,12,15,6.0,0.0
777,45.0,0,20,3.0,0.0
778,33.0,0,20,4.0,0.0
779,74.0,1,20,5.0,0.0
780,46.0,11,15,6.0,0.0
781,45.0,12,15,6.0,0.0
782,43.0,0,40,3.0,0.0
783,31.0,3,40,4.0,0.0
784,79.0,11,15,5.0,0.0
785,43.0,1,20,6.0,0.0
786,78.0,12,15,5.0,0.0
787,74.0,0,20,0.0,0.0
788,70.0,0,20,1.0,0.0
789,67.0,1,20,2.0,0.0
790,79.0,14,30,5.0,0.0
791,55.0,8,15,6.0,0.0
792,54.0,9,15,6.0,0.0
793,79.0,0,20,0.0,0.0
794,74.0,0,20,1.0,0.0
795,70.0,0,20,2.0,0.0
796,55.0,1,20,6.0,0.0
797,74.0,12,15,5.0,0.0
798,55.0,0,20,3.0,0.0
799,43.0,0,20,4.0,0.0
800,72.0,11,15,5.0,0.0
801,43.0,1,20,6.0,0.0
802,74.0,12,15,5.0,0.0
803,62.0,0,40,3.0,0.0
804,50.0,4,40,4.0,0.0
805,82.0,1,20,5.0,0.0
806,50.0,11,15,6.0,0.0
807,62.0,12,15,6.0,0.0
808,78.0,0,15,0.0,0.0
809,74.0,0,15,1.0,0.0
810,69.0,0,15,2.0,0.0
811,81.0,3,30,5.0,0.0
812,60.0,8,15,6.0,0.0
813,79.0,0,15,0.0,0.0
814,76.0,0,15,1.0,0.0
815,70.0,0,15,2.0,0.0
816,58.0,9,15,6.0,0.0
817,81.0,0,20,0.0,0.0
818,78.0,0,20,1.0,0.0
819,72.0,1,20,2.0,0.0
820,57.0,11,15,6.0,0.0
821,74.0,0,15,5.0,0.0
822,58.0,12,15,6.0,0.0
823,50.0,0,20,3.0,0.0
824,38.0,1,20,4.0,0.0
825,72.0,0,15,5.0,0.0
826,57.0,11,15,6.0,0.0
827,74.0,0,15,5.0,0.0
828,55.0,12,15,6.0,0.0
829,42.0,0,40,3.0,0.0
830,30.0,3,40,4.0,0.0
831,81.0,0,15,5.0,0.0
832,54.0,12,15,6.0,0.0
833,79.0,0,15,5.0,0.0
834,55.0,12,15,6.0,0.0
835,74.0,0,20,0.0,0.0
836,66.0,0,20,1.0,0.0
837,69.0,1,20,2.0,0.0
838,81.0,3,30,5.0,0.0
839,54.0,8,15,6.0,0.0
840,52.0,9,15,6.0,0.0
841,81.0,0,20,0.0,0.0
842,72.0,0,20,1.0,0.0
843,66.0,1,20,2.0,0.0
844,50.0,11,15,6.0,0.0
845,74.0,0,15,5.0,0.0
846,54.0,12,15,6.0,0.0
847,50.0,0,20,3.0,0.0
848,38.0,1,20,4.0,0.0
849,72.0,0,15,5.0,0.0
850,52.0,11,15,6.0,0.0
851,74.0,0,15,5.0,0.0
852,50.0,12,15,6.0,0.0
853,55.0,0,40,3.0,0.0
854,43.0,3,40,4.0,0.0
855,84.0,1,20,5.0,0.0
856,55.0,11,15,6.0,0.0
857,54.0,12,15,6.0,0.0
858,79.0,0,15,0.0,0.0
859,74.0,1,20,1.0,0.0
860,70.0,0,15,2.0,0.0
861,82.0,14,30,5.0,0.0
862,55.0,8,15,6.0,0.0
863,81.0,0,15,0.0,0.0
864,72.0,0,15,2.0,0.0
865,50.0,9,15,6.0,0.0
866,82.0,0,20,0.0,0.0
867,79.0,0,20,1.0,0.0
868,74.0,0,20,2.0,0.0
869,43.0,1,20,6.0,0.0
870,74.0,12,15,5.0,0.0
871,55.0,0,20,3.0,0.0
872,43.0,1,20,4.0,0.0
873,72.0,11,15,5.0,0.0
874,74.0,12,15,5.0,0.0
875,43.0,0,20,3.0,0.0
876,31.0,1,20,4.0,0.0
877,82.0,11,15,5.0,0.0
878,81.0,12,15,5.0,0.0
879,46.0,0,20,3.0,0.0
880,34.0,0,20,4.0,0.0
881,79.0,11,15,5.0,0.0
882,58.0,1,20,6.0,0.0
883,77.0,12,15,5.0,0.0
884,48.0,0,20,3.0,0.0
885,36.0,1,20,4.0,0.0
886,75.0,0,15,5.0,0.0
887,48.0,11,15,6.0,0.0
888,72.0,0,15,5.0,0.0
889,51.0,12,15,6.0,0.0
890,51.0,0,20,3.0,0.0
891,39.0,1,20,4.0,0.0
892,70.0,0,15,5.0,0.0
893,50.0,11,15,6.0,0.0
894,72.0,0,15,5.0,0.0
895,51.0,12,15,6.0,0.0
896,41.0,0,20,3.0,0.0
897,29.0,0,20,4.0,0.0
898,81.0,11,15,5.0,0.0
899,41.0,1,20,6.0,0.0
900,79.0,12,15,5.0,0.0
901,45.0,0,20,3.0,0.0
902,33.0,0,20,4.0,0.0
903,77.0,11,15,5.0,0.0
904,57.0,1,20,6.0,0.0
905,75.0,12,15,5.0,0.0
906,46.0,0,20,3.0,0.0
907,34.0,1,20,4.0,0.0
908,74.0,0,15,5.0,0.0
909,46.0,11,15,6.0,0.0
910,70.0,0,15,5.0,0.0
911,50.0,12,15,6.0,0.0
912,50.0,0,20,3.0,0.0
913,38.0,1,20,4.0,0.0
914,69.0,0,15,5.0,0.0
915,48.0,11,15,6.0,0.0
916,70.0,0,15,5.0,0.0
917,50.0,12,15,6.0,0.0
918,39.0,0,20,3.0,0.0
919,27.0,0,20,4.0,0.0
920,79.0,11,15,5.0,0.0
921,39.0,1,20,6.0,0.0
922,77.0,12,15,5.0,0.0
923,43.0,0,20,3.0,0.0
924,31.0,0,20,4.0,0.0
925,75.0,11,15,5.0,0.0
926,55.0,1,20,6.0,0.0
927,74.0,12,15,5.0,0.0
928,45.0,0,20,3.0,0.0
929,33.0,1,20,4.0,0.0
930,72.0,0,15,5.0,0.0
931,45.0,11,15,6.0,0.0
932,69.0,0,15,5.0,0.0
933,48.0,12,15,6.0,0.0
934,48.0,0,20,3.0,0.0
935,36.0,1,20,4.0,0.0
936,67.0,0,15,5.0,0.0
937,46.0,11,15,6.0,0.0
938,69.0,0,15,5.0,0.0
939,48.0,12,15,6.0,0.0
940,38.0,0,20,3.0,0.0
941,26.0,0,20,4.0,0.0
942,78.0,11,15,5.0,0.0
943,38.0,1,20,6.0,0.0
944,79.0,12,15,5.0,0.0
945,50.0,0,20,3.0,0.0
946,38.0,1,20,4.0,0.0
947,78.0,0,15,5.0,0.0
948,50.0,11,15,6.0,0.0
949,76.0,0,15,5.0,0.0
950,52.0,12,15,6.0,0.0
951,54.0,0,20,3.0,0.0
952,42.0,1,20,4.0,0.0
953,74.0,0,15,5.0,0.0
954,54.0,11,15,6.0,0.0
955,72.0,0,15,5.0,0.0
956,57.0,12,15,6.0,0.0
957,74.0,0,20,0.0,0.0
958,66.0,0,20,2.0,0.0
959,50.0,0,20,3.0,0.0
960,38.0,0,20,4.0,0.0
961,70.0,11,15,5.0,0.0
962,50.0,1,20,6.0,0.0
963,69.0,12,15,5.0,0.0
964,79.0,0,40,0.0,0.0
965,62.0,3,40,2.0,0.0
966,70.0,12,15,5.0,0.0
967,72.0,12,15,5.0,0.0
968,74.0,0,20,1.0,0.0
969,55.0,0,20,3.0,0.0
970,43.0,1,20,4.0,0.0
971,70.0,0,15,5.0,0.0
972,55.0,8,15,6.0,0.0
973,69.0,0,15,5.0,0.0
974,57.0,12,15,6.0,0.0
975,79.0,0,20,1.0,0.0
976,58.0,0,20,3.0,0.0
977,46.0,1,20,4.0,0.0
978,67.0,0,15,5.0,0.0
979,58.0,11,15,6.0,0.0
980,79.0,0,15,5.0,0.0
981,62.0,12,15,6.0,0.0
982,74.0,0,20,0.0,0.0
983,67.0,0,20,2.0,0.0
984,55.0,0,20,3.0,0.0
985,43.0,1,20,4.0,0.0
986,74.0,0,15,5.0,0.0
987,58.0,11,15,6.0,0.0
988,77.0,0,15,5.0,0.0
989,55.0,12,15,6.0,0.0
990,75.0,0,40,0.0,0.0
991,60.0,3,40,2.0,0.0
992,75.0,11,15,5.0,0.0
993,60.0,1,20,6.0,0.0
994,77.0,12,15,5.0,0.0
995,72.0,0,15,1.0,0.0
996,55.0,0,20,3.0,0.0
997,43.0,1,20,4.0,0.0
998,75.0,0,15,5.0,0.0
999,55.0,8,15,6.0,0.0
1000,74.0,0,15,1.0,0.0
1001,74.0,0,15,5.0,0.0
1002,53.0,12,15,6.0,0.0
1003,75.0,0,20,1.0,0.0
1004,51.0,0,20,3.0,0.0
1005,39.0,1,20,4.0,0.0
1006,72.0,0,15,5.0,0.0
1007,51.0,11,15,6.0,0.0
1008,70.0,0,15,5.0,0.0
1009,55.0,12,15,6.0,0.0
1010,72.0,0,20,0.0,0.0
1011,63.0,0,20,2.0,0.0
1012,48.0,0,20,3.0,0.0
1013,36.0,0,20,4.0,0.0
1014,69.0,11,15,5.0,0.0
1015,48.0,1,20,6.0,0.0
1016,67.0,12,15,5.0,0.0
1017,77.0,0,40,0.0,0.0
1018,60.0,3,40,2.0,0.0
1019,69.0,12,15,5.0,0.0
1020,70.0,12,15,5.0,0.0
1021,72.0,0,20,1.0,0.0
1022,53.0,0,20,3.0,0.0
1023,41.0,1,20,4.0,0.0
1024,69.0,0,15,5.0,0.0
1025,53.0,8,15,6.0,0.0
1026,67.0,0,15,5.0,0.0
1027,55.0,12,15,6.0,0.0
1028,77.0,0,20,1.0,0.0
1029,57.0,0,20,3.0,0.0
1030,45.0,1,20,4.0,0.0
1031,65.0,0,15,5.0,0.0
1032,57.0,11,15,6.0,0.0
1033,77.0,0,15,5.0,0.0
1034,60.0,12,15,6.0,0.0
1035,72.0,0,20,0.0,0.0
1036,65.0,0,20,2.0,0.0
1037,53.0,0,20,3.0,0.0
1038,41.0,1,20,4.0,0.0
1039,72.0,0,15,5.0,0.0
1040,57.0,11,15,6.0,0.0
1041,75.0,0,15,5.0,0.0
1042,53.0,12,15,6.0,0.0
1043,74.0,0,40,0.0,0.0
1044,58.0,3,40,2.0,0.0
1045,74.0,11,15,5.0,0.0
1046,58.0,1,20,6.0,0.0
1047,75.0,12,15,5.0,0.0
1048,70.0,0,15,1.0,0.0
1049,53.0,0,20,3.0,0.0
1050,41.0,1,20,4.0,0.0
1051,74.0,0,15,5.0,0.0
1052,53.0,8,15,6.0,0.0
1053,72.0,0,15,1.0,0.0
1054,72.0,0,15,5.0,0.0
1055,51.0,12,15,6.0,0.0
1056,74.0,0,20,1.0,0.0
1057,50.0,0,20,3.0,0.0
1058,38.0,1,20,4.0,0.0
1059,70.0,0,15,5.0,0.0
1060,50.0,11,15,6.0,0.0
1061,69.0,0,15,5.0,0.0
1062,53.0,12,15,6.0,0.0
1063,70.0,0,20,0.0,0.0
1064,62.0,0,20,2.0,0.0
1065,46.0,0,20,3.0,0.0
1066,34.0,0,20,4.0,0.0
1067,67.0,11,15,5.0,0.0
1068,46.0,1,20,6.0,0.0
1069,65.0,12,15,5.0,0.0
1070,75.0,0,40,0.0,0.0
1071,58.0,3,40,2.0,0.0
1072,67.0,12,15,5.0,0.0
1073,68.0,12,15,5.0,0.0
1074,70.0,0,20,1.0,0.0
1075,51.0,0,20,3.0,0.0
1076,39.0,1,20,4.0,0.0
1077,67.0,0,15,5.0,0.0
1078,51.0,8,15,6.0,0.0
1079,65.0,0,15,5.0,0.0
1080,53.0,12,15,6.0,0.0
1081,75.0,0,20,1.0,0.0
1082,55.0,0,20,3.0,0.0
1083,43.0,1,20,4.0,0.0
1084,63.0,0,15,5.0,0.0
1085,55.0,11,15,6.0,0.0
1086,75.0,0,15,5.0,0.0
1087,58.0,12,15,6.0,0.0
1088,70.0,0,20,0.0,0.0
1089,63.0,0,20,2.0,0.0
1090,51.0,0,20,3.0,0.0
1091,39.0,1,20,4.0,0.0
1092,70.0,0,15,5.0,0.0
1093,55.0,11,15,6.0,0.0
1094,74.0,0,15,5.0,0.0
1095,51.0,14,15,6.0,0.0
1096,72.0,0,40,0.0,0.0
1097,57.0,3,40,2.0,0.0
1098,72.0,9,15,5.0,0.0
1099,57.0,3,20,6.0,0.0
1100,74.0,10,15,5.0,0.0
1101,69.0,0,15,1.0,0.0
1102,51.0,0,20,3.0,0.0
1103,39.0,1,20,4.0,0.0
1104,72.0,6,15,5.0,0.0
1105,51.0,2,15,6.0,0.0
1106,70.0,0,15,1.0,0.0
1107,70.0,0,15,5.0,0.0
1108,50.0,12,15,6.0,0.0
1109,72.0,0,20,1.0,0.0
1110,48.0,0,20,3.0,0.0
1111,36.0,1,20,4.0,0.0
1112,69.0,0,15,5.0,0.0
1113,48.0,11,15,6.0,0.0
1114,67.0,0,15,5.0,0.0
1115,51.0,12,15,6.0,0.0
1116,69.0,0,20,0.0,0.0
1117,60.0,0,20,2.0,0.0
1118,45.0,0,20,3.0,0.0
1119,33.0,0,20,4.0,0.0
1120,66.0,11,15,5.0,0.0
1121,45.0,1,20,6.0,0.0
1122,64.0,12,15,5.0,0.0
1123,74.0,0,40,0.0,0.0
1124,57.0,3,40,2.0,0.0
1125,66.0,12,15,5.0,0.0
1126,67.0,12,15,5.0,0.0
1127,69.0,0,20,1.0,0.0
1128,50.0,0,20,3.0,0.0
1129,38.0,1,20,4.0,0.0
1130,66.0,0,15,5.0,0.0
1131,50.0,8,15,6.0,0.0
1132,64.0,0,15,5.0,0.0
1133,52.0,12,15,6.0,0.0
1134,74.0,0,20,1.0,0.0
1135,54.0,0,20,3.0,0.0
1136,42.0,1,20,4.0,0.0
1137,62.0,0,15,5.0,0.0
1138,54.0,11,15,6.0,0.0
1139,74.0,0,15,5.0,0.0
1140,57.0,12,15,6.0,0.0
1141,74.0,0,20,0.0,0.0
1142,66.0,0,20,2.0,0.0
1143,50.0,0,20,3.0,0.0
1144,38.0,1,20,4.0,0.0
1145,69.0,0,15,5.0,0.0
1146,54.0,11,15,6.0,0.0
1147,72.0,0,15,5.0,0.0
1148,50.0,12,15,6.0,0.0
1149,79.0,0,40,0.0,0.0
1150,62.0,3,40,2.0,0.0
1151,70.0,0,15,5.0,0.0
1152,62.0,12,15,6.0,0.0
1153,72.0,0,15,5.0,0.0
1154,63.0,12,15,6.0,0.0
1155,74.0,0,20,1.0,0.0
1156,50.0,0,20,3.0,0.0
1157,38.0,1,20,4.0,0.0
1158,70.0,0,15,5.0,0.0
1159,62.0,8,15,6.0,0.0
1160,69.0,0,15,5.0,0.0
1161,60.0,12,15,6.0,0.0
1162,79.0,3,40,1.0,0.0
1163,46.0,0,20,3.0,0.0
1164,34.0,1,20,4.0,0.0
1165,67.0,0,15,5.0,0.0
1166,58.0,11,15,6.0,0.0
1167,79.0,0,15,5.0,0.0
1168,62.0,12,15,6.0,0.0
1169,74.0,0,20,0.0,0.0
1170,70.0,0,20,2.0,0.0
1171,43.0,0,20,3.0,0.0
1172,31.0,1,20,4.0,0.0
1173,74.0,0,15,5.0,0.0
1174,58.0,8,15,6.0,0.0
1175,77.0,0,15,5.0,0.0
1176,55.0,12,15,6.0,0.0
1177,75.0,0,40,0.0,0.0
1178,72.0,0,40,2.0,0.0
1179,55.0,0,40,3.0,0.0
1180,43.0,4,40,4.0,0.0
1181,75.0,0,15,5.0,0.0
1182,60.0,12,15,6.0,0.0
1183,77.0,0,15,5.0,0.0
1184,62.0,12,15,6.0,0.0
1185,72.0,0,15,1.0,0.0
1186,75.0,0,15,5.0,0.0
1187,60.0,8,15,6.0,0.0
1188,74.0,0,15,1.0,0.0
1189,74.0,0,15,5.0,0.0
1190,58.0,12,15,6.0,0.0
1191,75.0,1,20,1.0,0.0
1192,72.0,0,15,5.0,0.0
1193,57.0,11,15,6.0,0.0
1194,75.0,0,15,5.0,0.0
1195,60.0,12,15,6.0,0.0
1196,72.0,0,20,0.0,0.0
1197,66.0,0,20,1.0,0.0
1198,69.0,0,20,2.0,0.0
1199,43.0,0,20,3.0,0.0
1200,31.0,1,20,4.0,0.0
1201,69.0,0,15,5.0,0.0
1202,63.0,11,15,6.0,0.0
1203,72.0,0,15,5.0,0.0
1204,57.0,12,15,6.0,0.0
1205,74.0,0,15,0.0,0.0
1206,70.0,0,15,1.0,0.0
1207,62.0,0,20,2.0,0.0
1208,55.0,0,20,3.0,0.0
1209,43.0,1,20,4.0,0.0
1210,74.0,0,15,5.0,0.0
1211,58.0,11,15,6.0,0.0
1212,72.0,0,15,0.0,0.0
1213,69.0,0,15,1.0,0.0
1214,72.0,0,15,5.0,0.0
1215,60.0,12,15,6.0,0.0
1216,70.0,0,15,0.0,0.0
1217,67.0,0,15,1.0,0.0
1218,62.0,0,20,2.0,0.0
1219,43.0,0,20,3.0,0.0
1220,31.0,1,20,4.0,0.0
1221,70.0,0,15,5.0,0.0
1222,62.0,11,15,6.0,0.0
1223,74.0,0,15,0.0,0.0
1224,70.0,0,15,1.0,0.0
1225,74.0,0,15,5.0,0.0
1226,55.0,12,15,6.0,0.0
1227,72.0,0,15,0.0,0.0
1228,69.0,0,15,1.0,0.0
1229,62.0,0,20,2.0,0.0
1230,50.0,0,20,3.0,0.0
1231,38.0,1,20,4.0,0.0
1232,72.0,0,15,5.0,0.0
1233,57.0,11,15,6.0,0.0
1234,70.0,0,15,0.0,0.0
1235,67.0,0,15,1.0,0.0
1236,70.0,0,15,5.0,0.0
1237,58.0,12,15,6.0,0.0
1238,69.0,0,15,0.0,0.0
1239,66.0,0,15,1.0,0.0
1240,62.0,0,20,2.0,0.0
1241,38.0,0,20,3.0,0.0
1242,26.0,1,20,4.0,0.0
1243,69.0,0,15,5.0,0.0
1244,60.0,11,15,6.0,0.0
1245,72.0,0,15,0.0,0.0
1246,69.0,0,15,1.0,0.0
1247,72.0,0,15,5.0,0.0
1248,54.0,12,15,6.0,0.0
1249,70.0,0,20,0.0,0.0
1250,67.0,0,20,1.0,0.0
1251,62.0,0,20,2.0,0.0
1252,43.0,0,20,3.0,0.0
1253,31.0,0,20,4.0,0.0
1254,70.0,1,20,5.0,0.0
1255,55.0,11,15,6.0,0.0
1256,57.0,12,15,6.0,0.0
1257,67.0,0,20,0.0,0.0
1258,62.0,0,20,1.0,0.0
1259,58.0,0,20,2.0,0.0
1260,55.0,0,15,3.0,0.0
1261,43.0,0,15,4.0,0.0
1262,67.0,1,20,5.0,0.0
1263,58.0,11,15,6.0,0.0
1264,57.0,0,15,3.0,0.0
1265,45.0,0,15,4.0,0.0
1266,57.0,12,15,6.0,0.0
1267,58.0,0,20,3.0,0.0
1268,46.0,1,20,4.0,0.0
1269,55.0,11,15,6.0,0.0
1270,62.0,0,15,5.0,0.0
1271,54.0,12,15,6.0,0.0
1272,70.0,0,20,0.0,0.0
1273,67.0,0,20,1.0,0.0
1274,62.0,0,20,2.0,0.0
1275,55.0,0,20,3.0,0.0
1276,43.0,1,20,4.0,0.0
1277,67.0,0,15,5.0,0.0
1278,55.0,11,15,6.0,0.0
1279,70.0,0,15,5.0,0.0
1280,50.0,7,15,6.0,0.0
1281,70.0,0,20,0.0,0.0
1282,67.0,0,20,1.0,0.0
1283,67.0,9,20,2.0,0.0
1284,43.0,0,20,3.0,0.0
1285,31.0,0,20,4.0,0.0
1286,75.0,6,15,5.0,0.0
1287,43.0,3,20,6.0,0.0
1288,77.0,10,15,5.0,0.0
1289,79.0,12,20,5.0,0.0
1290,70.0,0,20,0.0,0.0
1291,67.0,0,20,1.0,0.0
1292,67.0,5,20,2.0,0.0
1293,55.0,1,20,6.0,0.0
1294,75.0,2,15,5.0,0.0
1295,69.0,0,20,0.0,0.0
1296,67.0,0,20,1.0,0.0
1297,67.0,9,20,2.0,0.0
1298,73.0,6,15,5.0,0.0
1299,64.0,3,20,6.0,0.0
1300,74.0,10,15,5.0,0.0
1301,76.0,12,20,5.0,0.0
1302,69.0,0,20,0.0,0.0
1303,67.0,0,20,1.0,0.0
1304,67.0,0,20,2.0,0.0
1305,55.0,1,20,6.0,0.0
1306,73.0,12,15,5.0,0.0
1307,69.0,0,20,0.0,0.0
1308,65.0,0,20,1.0,0.0
1309,65.0,10,20,2.0,0.0
1310,74.0,12,15,5.0,0.0
1311,69.0,2,15,5.0,0.0
1312,69.0,0,20,0.0,0.0
1313,65.0,0,20,1.0,0.0
1314,65.0,10,20,2.0,0.0
1315,53.0,0,15,3.0,0.0
1316,41.0,0,15,4.0,0.0
1317,65.0,0,15,5.0,0.0
1318,53.0,12,15,6.0,0.0
1319,55.0,0,15,3.0,0.0
1320,43.0,0,15,4.0,0.0
1321,62.0,0,15,5.0,0.0
1322,55.0,2,15,6.0,0.0
1323,69.0,0,20,0.0,0.0
1324,65.0,0,20,1.0,0.0
1325,65.0,10,20,2.0,0.0
1326,57.0,0,20,3.0,0.0
1327,45.0,0,20,4.0,0.0
1328,61.0,11,15,5.0,0.0
1329,57.0,1,20,6.0,0.0
1330,62.0,2,15,5.0,0.0
1331,69.0,0,20,0.0,0.0
1332,65.0,0,20,1.0,0.0
1333,65.0,0,20,2.0,0.0
1334,53.0,0,20,3.0,0.0
1335,41.0,0,20,4.0,0.0
1336,65.0,11,15,5.0,0.0
1337,50.0,1,20,6.0,0.0
1338,69.0,7,15,5.0,0.0
1339,68.0,0,20,0.0,0.0
1340,65.0,0,20,1.0,0.0
1341,65.0,9,20,2.0,0.0
1342,41.0,0,20,3.0,0.0
1343,29.0,0,20,4.0,0.0
1344,74.0,6,15,5.0,0.0
1345,41.0,3,20,6.0,0.0
1346,75.0,10,15,5.0,0.0
1347,77.0,12,20,5.0,0.0
1348,68.0,0,20,0.0,0.0
1349,65.0,0,20,1.0,0.0
1350,65.0,5,20,2.0,0.0
1351,53.0,1,20,6.0,0.0
1352,74.0,2,15,5.0,0.0
1353,67.0,0,20,0.0,0.0
1354,65.0,0,20,1.0,0.0
1355,65.0,9,20,2.0,0.0
1356,71.0,6,15,5.0,0.0
1357,62.0,3,20,6.0,0.0
1358,72.0,10,15,5.0,0.0
1359,74.0,12,20,5.0,0.0
1360,67.0,0,20,0.0,0.0
1361,65.0,0,20,1.0,0.0
1362,65.0,0,20,2.0,0.0
1363,53.0,1,20,6.0,0.0
1364,71.0,12,15,5.0,0.0
1365,67.0,0,20,0.0,0.0
1366,63.0,0,20,1.0,0.0
1367,63.0,10,20,2.0,0.0
1368,72.0,12,15,5.0,0.0
1369,67.0,2,15,5.0,0.0
1370,67.0,0,20,0.0,0.0
1371,63.0,0,20,1.0,0.0
1372,63.0,10,20,2.0,0.0
1373,51.0,0,15,3.0,0.0
1374,39.0,0,15,4.0,0.0
1375,63.0,0,15,5.0,0.0
1376,51.0,12,15,6.0,0.0
1377,53.0,0,15,3.0,0.0
1378,41.0,0,15,4.0,0.0
1379,60.0,0,15,5.0,0.0
1380,53.0,2,15,6.0,0.0
1381,67.0,0,20,0.0,0.0
1382,63.0,0,20,1.0,0.0
1383,63.0,10,20,2.0,0.0
1384,55.0,0,20,3.0,0.0
1385,43.0,0,20,4.0,0.0
1386,59.0,11,15,5.0,0.0
1387,55.0,1,20,6.0,0.0
1388,60.0,2,15,5.0,0.0
1389,67.0,0,20,0.0,0.0
1390,63.0,0,20,1.0,0.0
1391,63.0,0,20,2.0,0.0
1392,51.0,0,20,3.0,0.0
1393,39.0,0,20,4.0,0.0
1394,63.0,11,15,5.0,0.0
1395,48.0,1,20,6.0,0.0
1396,67.0,7,15,5.0,0.0
1397,66.0,0,20,0.0,0.0
1398,63.0,0,20,1.0,0.0
1399,63.0,9,20,2.0,0.0
1400,39.0,0,20,3.0,0.0
1401,27.0,0,20,4.0,0.0
1402,72.0,6,15,5.0,0.0
1403,39.0,3,20,6.0,0.0
1404,74.0,10,15,5.0,0.0
1405,75.0,12,20,5.0,0.0
1406,66.0,0,20,0.0,0.0
1407,63.0,0,20,1.0,0.0
1408,63.0,5,20,2.0,0.0
1409,51.0,1,20,6.0,0.0
1410,72.0,2,15,5.0,0.0
1411,65.0,0,20,0.0,0.0
1412,63.0,0,20,1.0,0.0
1413,63.0,9,20,2.0,0.0
1414,69.0,6,15,5.0,0.0
1415,60.0,3,20,6.0,0.0
1416,70.0,10,15,5.0,0.0
1417,72.0,12,20,5.0,0.0
1418,65.0,0,20,0.0,0.0
1419,63.0,0,20,1.0,0.0
1420,63.0,0,20,2.0,0.0
1421,51.0,1,20,6.0,0.0
1422,69.0,12,15,5.0,0.0
1423,65.0,0,20,0.0,0.0
1424,62.0,0,20,1.0,0.0
1425,62.0,0,20,2.0,0.0
1426,70.0,11,15,5.0,0.0
1427,50.0,1,20,6.0,0.0
1428,65.0,12,15,5.0,0.0
1429,51.0,0,20,3.0,0.0
1430,39.0,0,20,4.0,0.0
1431,67.0,11,15,5.0,0.0
1432,51.0,0,20,6.0,0.0
1433,60.0,1,20,6.0,0.0
1434,69.0,12,15,5.0,0.0
1435,50.0,0,20,3.0,0.0
1436,38.0,0,20,4.0,0.0
1437,70.0,11,15,5.0,0.0
1438,50.0,0,20,6.0,0.0
1439,58.0,1,20,6.0,0.0
1440,65.0,12,15,5.0,0.0
1441,48.0,0,20,3.0,0.0
1442,36.0,0,20,4.0,0.0
1443,72.0,11,15,5.0,0.0
1444,48.0,0,20,6.0,0.0
1445,57.0,1,20,6.0,0.0
1446,65.0,12,15,5.0,0.0
1447,46.0,0,20,3.0,0.0
1448,34.0,0,20,4.0,0.0
1449,74.0,11,15,5.0,0.0
1450,46.0,0,20,6.0,0.0
1451,58.0,1,20,6.0,0.0
1452,69.0,12,15,5.0,0.0
1453,58.0,0,20,3.0,0.0
1454,46.0,0,20,4.0,0.0
1455,70.0,11,15,5.0,0.0
1456,46.0,0,20,6.0,0.0
1457,53.0,1,20,6.0,0.0
1458,72.0,12,15,5.0,0.0
1459,57.0,0,20,3.0,0.0
1460,45.0,0,20,4.0,0.0
1461,74.0,11,15,5.0,0.0
1462,45.0,0,20,6.0,0.0
1463,53.0,1,20,6.0,0.0
1464,70.0,12,15,5.0,0.0
1465,55.0,0,20,3.0,0.0
1466,43.0,0,20,4.0,0.0
1467,76.0,11,15,5.0,0.0
1468,43.0,0,20,6.0,0.0
1469,55.0,1,20,6.0,0.0
1470,70.0,12,15,5.0,0.0
1471,53.0,0,20,3.0,0.0
1472,41.0,0,20,4.0,0.0
1473,77.0,11,15,5.0,0.0
1474,41.0,1,20,6.0,0.0
1475,65.0,12,15,5.0,0.0
1476,55.0,0,20,3.0,0.0
1477,43.0,1,20,4.0,0.0
1478,69.0,11,15,5.0,0.0
1479,53.0,14,30,6.0,0.0
1480,72.0,9,15,5.0,0.0
1481,53.0,0,20,3.0,0.0
1482,41.0,1,20,4.0,0.0
1483,77.0,17,60,5.0,0.0
1484,51.0,12,15,6.0,0.0
1485,77.0,0,20,0.0,0.0
1486,72.0,0,20,1.0,0.0
1487,69.0,0,20,2.0,0.0
1488,51.0,0,20,3.0,0.0
1489,39.0,1,20,4.0,0.0
1490,50.0,11,15,6.0,0.0
1491,48.0,6,15,6.0,0.0
1492,82.0,0,40,0.0,0.0
1493,77.0,0,40,1.0,0.0
1494,70.0,3,40,2.0,0.0
1495,50.0,0,20,3.0,0.0
1496,38.0,0,20,4.0,0.0
1497,46.0,1,20,6.0,0.0
1498,70.0,12,15,5.0,0.0
1499,53.0,0,20,3.0,0.0
1500,41.0,1,20,4.0,0.0
1501,74.0,8,15,5.0,0.0
1502,58.0,14,30,6.0,0.0
1503,77.0,9,15,5.0,0.0
1504,50.0,0,20,3.0,0.0
1505,38.0,1,20,4.0,0.0
1506,82.0,6,60,5.0,0.0
1507,57.0,12,15,6.0,0.0
1508,77.0,0,20,0.0,0.0
1509,74.0,0,20,1.0,0.0
1510,70.0,0,20,2.0,0.0
1511,46.0,0,20,3.0,0.0
1512,34.0,1,20,4.0,0.0
1513,55.0,11,15,6.0,0.0
1514,53.0,6,15,6.0,0.0
1515,79.0,0,40,0.0,0.0
1516,75.0,0,40,1.0,0.0
1517,70.0,3,40,2.0,0.0
1518,51.0,0,20,3.0,0.0
1519,39.0,1,20,4.0,0.0
1520,51.0,11,15,6.0,0.0
1521,70.0,0,15,5.0,0.0
1522,53.0,12,15,6.0,0.0
1523,55.0,0,20,3.0,0.0
1524,43.0,1,20,4.0,0.0
1525,75.0,8,15,5.0,0.0
1526,55.0,14,30,6.0,0.0
1527,79.0,9,15,5.0,0.0
1528,51.0,0,20,3.0,0.0
1529,39.0,1,20,4.0,0.0
1530,82.0,6,60,5.0,0.0
1531,51.0,12,15,6.0,0.0
1532,75.0,0,20,0.0,0.0
1533,75.0,0,20,1.0,0.0
1534,72.0,0,20,2.0,0.0
1535,48.0,0,20,3.0,0.0
1536,36.0,1,20,4.0,0.0
1537,55.0,11,15,6.0,0.0
1538,58.0,12,15,6.0,0.0
1539,77.0,0,15,0.0,0.0
1540,74.0,3,15,1.0,0.0
1541,65.0,0,20,2.0,0.0
1542,50.0,0,20,3.0,0.0
1543,38.0,1,20,4.0,0.0
1544,62.0,2,15,6.0,0.0
1545,75.0,0,15,0.0,0.0
1546,75.0,10,15,1.0,0.0
1547,60.0,2,15,6.0,0.0
1548,74.0,0,15,0.0,0.0
1549,77.0,0,15,1.0,0.0
1550,65.0,0,20,2.0,0.0
1551,46.0,0,20,3.0,0.0
1552,34.0,0,20,4.0,0.0
1553,70.0,1,20,5.0,0.0
1554,62.0,11,15,6.0,0.0
1555,77.0,0,15,0.0,0.0
1556,74.0,0,15,1.0,0.0
1557,58.0,12,15,6.0,0.0
1558,75.0,2,15,0.0,0.0
1559,72.0,9,15,1.0,0.0
1560,65.0,0,20,2.0,0.0
1561,53.0,0,20,3.0,0.0
1562,41.0,0,20,4.0,0.0
1563,72.0,0,20,5.0,0.0
1564,65.0,1,20,6.0,0.0
1565,74.0,2,15,0.0,0.0
1566,74.0,10,15,1.0,0.0
1567,72.0,0,15,0.0,0.0
1568,75.0,11,15,1.0,0.0
1569,65.0,0,20,2.0,0.0
1570,41.0,0,20,3.0,0.0
1571,29.0,0,20,4.0,0.0
1572,81.0,0,20,5.0,0.0
1573,53.0,1,20,6.0,0.0
1574,75.0,0,15,0.0,0.0
1575,72.0,12,15,1.0,0.0
1576,74.0,0,20,0.0,0.0
1577,70.0,0,20,1.0,0.0
1578,65.0,0,20,2.0,0.0
1579,46.0,0,15,3.0,0.0
1580,34.0,0,15,4.0,0.0
1581,82.0,11,15,5.0,0.0
1582,58.0,1,20,6.0,0.0
1583,45.0,0,15,3.0,0.0
1584,33.0,0,15,4.0,0.0
1585,77.0,12,15,5.0,0.0
1586,70.0,0,20,0.0,0.0
1587,65.0,0,20,1.0,0.0
1588,62.0,0,20,2.0,0.0
1589,46.0,0,15,3.0,0.0
1590,34.0,0,15,4.0,0.0
1591,74.0,11,15,5.0,0.0
1592,46.0,1,20,6.0,0.0
1593,48.0,0,15,3.0,0.0
1594,36.0,0,15,4.0,0.0
1595,70.0,12,15,5.0,0.0
1596,50.0,0,20,3.0,0.0
1597,38.0,0,20,4.0,0.0
1598,58.0,11,15,5.0,0.0
1599,50.0,1,20,6.0,0.0
1600,70.0,10,15,0.0,0.0
1601,70.0,2,15,5.0,0.0
1602,69.0,9,15,0.0,0.0
1603,65.0,0,20,1.0,0.0
1604,62.0,0,20,2.0,0.0
1605,46.0,0,20,3.0,0.0
1606,34.0,0,20,4.0,0.0
1607,69.0,2,15,5.0,0.0
1608,46.0,1,20,6.0,0.0
1609,70.0,0,15,0.0,0.0
1610,70.0,12,15,5.0,0.0
1611,72.0,0,15,0.0,0.0
1612,65.0,0,20,1.0,0.0
1613,60.0,0,20,2.0,0.0
1614,45.0,0,20,3.0,0.0
1615,33.0,0,20,4.0,0.0
1616,72.0,11,15,5.0,0.0
1617,45.0,1,20,6.0,0.0
1618,70.0,10,15,0.0,0.0
1619,70.0,2,15,5.0,0.0
1620,69.0,9,15,0.0,0.0
1621,53.0,0,20,3.0,0.0
1622,41.0,0,20,4.0,0.0
1623,69.0,2,15,5.0,0.0
1624,53.0,1,20,6.0,0.0
1625,70.0,0,15,0.0,0.0
1626,70.0,12,15,5.0,0.0
1627,74.0,0,15,0.0,0.0
1628,65.0,0,20,1.0,0.0
1629,58.0,0,20,2.0,0.0
1630,46.0,0,20,3.0,0.0
1631,34.0,0,20,4.0,0.0
1632,74.0,11,15,5.0,0.0
1633,46.0,1,20,6.0,0.0
1634,70.0,10,15,0.0,0.0
1635,70.0,2,15,5.0,0.0
1636,69.0,9,15,0.0,0.0
1637,53.0,0,20,3.0,0.0
1638,41.0,0,20,4.0,0.0
1639,69.0,2,15,5.0,0.0
1640,53.0,1,20,6.0,0.0
1641,70.0,0,15,0.0,0.0
1642,70.0,12,15,5.0,0.0
1643,75.0,0,15,0.0,0.0
1644,69.0,0,20,1.0,0.0
1645,63.0,0,20,2.0,0.0
1646,48.0,0,20,3.0,0.0
1647,36.0,0,20,4.0,0.0
1648,75.0,11,15,5.0,0.0
1649,48.0,1,20,6.0,0.0
1650,70.0,10,15,0.0,0.0
1651,70.0,2,15,5.0,0.0
1652,69.0,9,15,0.0,0.0
1653,53.0,0,20,3.0,0.0
1654,41.0,0,20,4.0,0.0
1655,69.0,2,15,5.0,0.0
1656,53.0,1,20,6.0,0.0
1657,70.0,0,15,0.0,0.0
1658,70.0,12,15,5.0,0.0
1659,77.0,0,15,0.0,0.0
1660,70.0,0,20,1.0,0.0
1661,62.0,0,20,2.0,0.0
1662,50.0,0,20,3.0,0.0
1663,38.0,0,20,4.0,0.0
1664,77.0,11,15,5.0,0.0
1665,50.0,1,20,6.0,0.0
1666,70.0,10,15,0.0,0.0
1667,70.0,2,15,5.0,0.0
1668,69.0,9,15,0.0,0.0
1669,46.0,0,20,3.0,0.0
1670,34.0,0,20,4.0,0.0
1671,69.0,2,15,5.0,0.0
1672,46.0,1,20,6.0,0.0
1673,70.0,0,15,0.0,0.0
1674,70.0,12,15,5.0,0.0
1675,79.0,0,15,0.0,0.0
1676,70.0,0,20,1.0,0.0
1677,58.0,0,20,2.0,0.0
1678,51.0,0,20,3.0,0.0
1679,39.0,0,20,4.0,0.0
1680,79.0,11,15,5.0,0.0
1681,51.0,1,20,6.0,0.0
1682,80.0,0,15,0.0,0.0
1683,80.0,12,15,5.0,0.0
1684,79.0,0,15,0.0,0.0
1685,69.0,0,20,1.0,0.0
1686,65.0,0,20,2.0,0.0
1687,53.0,0,20,3.0,0.0
1688,41.0,0,20,4.0,0.0
1689,79.0,11,15,5.0,0.0
1690,53.0,1,20,6.0,0.0
1691,77.0,0,15,0.0,0.0
1692,77.0,12,15,5.0,0.0
1693,75.0,0,15,0.0,0.0
1694,70.0,0,20,1.0,0.0
1695,58.0,0,20,2.0,0.0
1696,55.0,0,20,3.0,0.0
1697,43.0,0,20,4.0,0.0
1698,75.0,11,15,5.0,0.0
1699,55.0,1,20,6.0,0.0
1700,74.0,0,15,0.0,0.0
1701,74.0,12,15,5.0,0.0
1702,72.0,0,15,0.0,0.0
1703,67.0,0,20,1.0,0.0
1704,63.0,0,20,2.0,0.0
1705,51.0,0,20,3.0,0.0
1706,39.0,0,20,4.0,0.0
1707,72.0,11,15,5.0,0.0
1708,51.0,1,20,6.0,0.0
1709,70.0,0,15,0.0,0.0
1710,70.0,12,15,5.0,0.0
1711,69.0,0,20,0.0,0.0
1712,69.0,0,15,1.0,0.0
1713,60.0,0,20,2.0,0.0
1714,53.0,0,15,3.0,0.0
1715,41.0,9,15,4.0,0.0
1716,69.0,1,20,5.0,0.0
1717,53.0,2,15,6.0,0.0
1718,70.0,0,15,1.0,0.0
1719,55.0,0,15,3.0,0.0
1720,43.0,10,15,4.0,0.0
1721,55.0,2,15,6.0,0.0
1722,65.0,0,20,0.0,0.0
1723,72.0,0,15,1.0,0.0
1724,57.0,0,20,2.0,0.0
1725,57.0,0,15,3.0,0.0
1726,45.0,0,15,4.0,0.0
1727,65.0,1,20,5.0,0.0
1728,57.0,11,15,6.0,0.0
1729,70.0,0,15,1.0,0.0
1730,55.0,0,15,3.0,0.0
1731,43.0,0,15,4.0,0.0
1732,55.0,12,15,6.0,0.0
1733,81.0,0,60,0.0,0.0
1734,69.0,0,15,1.0,0.0
1735,60.0,1,20,2.0,0.0
1736,53.0,0,15,3.0,0.0
1737,41.0,0,15,4.0,0.0
1738,81.0,3,60,5.0,0.0
1739,53.0,11,15,6.0,0.0
1740,67.0,0,15,1.0,0.0
1741,51.0,0,15,3.0,0.0
1742,39.0,0,15,4.0,0.0
1743,51.0,12,15,6.0,0.0
1744,65.0,0,15,1.0,0.0
1745,65.0,3,40,2.0,0.0
1746,50.0,0,15,3.0,0.0
1747,38.0,0,15,4.0,0.0
1748,50.0,12,15,6.0,0.0
1749,63.0,0,15,1.0,0.0
1750,48.0,0,15,3.0,0.0
1751,36.0,0,15,4.0,0.0
1752,48.0,12,15,6.0,0.0
1753,62.0,5,15,1.0,0.0
1754,46.0,0,20,3.0,0.0
1755,34.0,0,20,4.0,0.0
1756,46.0,1,20,6.0,0.0
1757,72.0,12,15,1.0,0.0
1758,79.0,0,15,0.0,0.0
1759,70.0,0,15,1.0,0.0
1760,67.0,0,15,2.0,0.0
1761,62.0,0,20,3.0,0.0
1762,50.0,0,20,4.0,0.0
1763,79.0,11,15,5.0,0.0
1764,62.0,1,20,6.0,0.0
1765,78.0,0,15,0.0,0.0
1766,69.0,0,15,1.0,0.0
1767,69.0,0,15,2.0,0.0
1768,78.0,12,15,5.0,0.0
1769,79.0,0,20,0.0,0.0
1770,67.0,11,15,1.0,0.0
1771,70.0,0,20,2.0,0.0
1772,58.0,0,20,3.0,0.0
1773,46.0,0,20,4.0,0.0
1774,79.0,0,20,5.0,0.0
1775,58.0,1,20,6.0,0.0
1776,65.0,12,15,1.0,0.0
1777,82.0,0,40,0.0,0.0
1778,64.0,11,15,1.0,0.0
1779,58.0,0,20,2.0,0.0
1780,55.0,0,20,3.0,0.0
1781,43.0,0,20,4.0,0.0
1782,82.0,3,40,5.0,0.0
1783,55.0,1,20,6.0,0.0
1784,62.0,20,15,1.0,0.0
1785,64.0,0,20,1.0,0.0
1786,55.0,0,20,2.0,0.0
1787,60.0,0,20,3.0,0.0
1788,48.0,0,20,4.0,0.0
1789,60.0,13,20,6.0,0.0
1790,76.0,0,20,0.0,0.0
1791,72.0,0,20,1.0,0.0
1792,67.0,0,20,2.0,0.0
1793,48.0,0,20,3.0,0.0
1794,36.0,0,20,4.0,0.0
1795,76.0,11,15,5.0,0.0
1796,48.0,1,20,6.0,0.0
1797,77.0,12,15,5.0,0.0
1798,79.0,12,15,5.0,0.0
1799,76.0,12,15,5.0,0.0
1800,77.0,12,15,5.0,0.0
1801,74.0,12,15,5.0,0.0
1802,76.0,12,15,5.0,0.0
1803,72.0,0,15,5.0,0.0
1804,64.0,12,15,6.0,0.0
1805,71.0,0,15,5.0,0.0
1806,62.0,12,15,6.0,0.0
1807,72.0,0,15,5.0,0.0
1808,64.0,12,15,6.0,0.0
1809,76.0,0,15,5.0,0.0
1810,60.0,12,15,6.0,0.0
1811,72.0,0,15,5.0,0.0
1812,64.0,12,15,6.0,0.0
1813,79.0,0,15,5.0,0.0
1814,55.0,12,15,6.0,0.0
1815,76.0,0,15,5.0,0.0
1816,60.0,12,15,6.0,0.0
1817,84.0,1,20,5.0,0.0
1818,52.0,11,15,6.0,0.0
1819,53.0,12,15,6.0,0.0
1820,72.0,0,20,0.0,0.0
1821,67.0,0,15,1.0,0.0
1822,55.0,0,20,2.0,0.0
1823,52.0,0,15,3.0,0.0
1824,40.0,0,15,4.0,0.0
1825,72.0,1,20,5.0,0.0
1826,52.0,11,15,6.0,0.0
1827,65.0,0,15,1.0,0.0
1828,50.0,0,15,3.0,0.0
1829,38.0,0,15,4.0,0.0
1830,50.0,12,15,6.0,0.0
1831,79.0,0,60,0.0,0.0
1832,64.0,0,15,1.0,0.0
1833,60.0,1,20,2.0,0.0
1834,48.0,0,15,3.0,0.0
1835,36.0,0,15,4.0,0.0
1836,79.0,3,60,5.0,0.0
1837,48.0,11,15,6.0,0.0
1838,62.0,0,15,1.0,0.0
1839,46.0,0,15,3.0,0.0
1840,34.0,0,15,4.0,0.0
1841,46.0,12,15,6.0,0.0
1842,60.0,0,15,1.0,0.0
1843,64.0,3,40,2.0,0.0
1844,45.0,0,15,3.0,0.0
1845,33.0,0,15,4.0,0.0
1846,45.0,12,15,6.0,0.0
1847,58.0,0,15,1.0,0.0
1848,43.0,0,15,3.0,0.0
1849,31.0,0,15,4.0,0.0
1850,43.0,12,15,6.0,0.0
1851,60.0,5,15,1.0,0.0
1852,45.0,0,20,3.0,0.0
1853,33.0,0,20,4.0,0.0
1854,45.0,1,20,6.0,0.0
1855,70.0,12,15,1.0,0.0
1856,77.0,0,15,0.0,0.0
1857,69.0,0,15,1.0,0.0
1858,65.0,0,15,2.0,0.0
1859,60.0,0,20,3.0,0.0
1860,48.0,0,20,4.0,0.0
1861,77.0,11,15,5.0,0.0
1862,60.0,1,20,6.0,0.0
1863,76.0,0,15,0.0,0.0
1864,67.0,0,15,1.0,0.0
1865,67.0,0,15,2.0,0.0
1866,76.0,12,15,5.0,0.0
1867,77.0,0,20,0.0,0.0
1868,65.0,11,15,1.0,0.0
1869,69.0,0,20,2.0,0.0
1870,57.0,0,20,3.0,0.0
1871,45.0,0,20,4.0,0.0
1872,77.0,0,20,5.0,0.0
1873,57.0,1,20,6.0,0.0
1874,64.0,12,15,1.0,0.0
1875,81.0,0,40,0.0,0.0
1876,62.0,11,15,1.0,0.0
1877,57.0,0,20,2.0,0.0
1878,53.0,0,20,3.0,0.0
1879,41.0,0,20,4.0,0.0
1880,81.0,3,40,5.0,0.0
1881,53.0,1,20,6.0,0.0
1882,61.0,20,15,1.0,0.0
1883,62.0,0,20,1.0,0.0
1884,53.0,0,20,2.0,0.0
1885,58.0,0,20,3.0,0.0
1886,46.0,0,20,4.0,0.0
1887,58.0,13,20,6.0,0.0
1888,74.0,0,20,0.0,0.0
1889,70.0,0,20,1.0,0.0
1890,65.0,0,20,2.0,0.0
1891,46.0,0,20,3.0,0.0
1892,34.0,0,20,4.0,0.0
1893,74.0,11,15,5.0,0.0
1894,46.0,1,20,6.0,0.0
1895,76.0,12,15,5.0,0.0
1896,77.0,12,15,5.0,0.0
1897,74.0,12,15,5.0,0.0
1898,76.0,12,15,5.0,0.0
1899,73.0,12,15,5.0,0.0
1900,74.0,12,15,5.0,0.0
1901,70.0,0,15,5.0,0.0
1902,62.0,12,15,6.0,0.0
1903,69.0,0,15,5.0,0.0
1904,60.0,12,15,6.0,0.0
1905,70.0,0,15,5.0,0.0
1906,62.0,12,15,6.0,0.0
1907,74.0,0,15,5.0,0.0
1908,58.0,12,15,6.0,0.0
1909,70.0,0,15,5.0,0.0
1910,62.0,12,15,6.0,0.0
1911,77.0,0,15,5.0,0.0
1912,53.0,12,15,6.0,0.0
1913,74.0,0,15,5.0,0.0
1914,58.0,12,15,6.0,0.0
1915,82.0,1,20,5.0,0.0
1916,50.0,11,15,6.0,0.0
1917,53.0,12,15,6.0,0.0
1918,74.0,0,15,0.0,0.0
1919,65.0,0,40,1.0,0.0
1920,62.0,4,40,2.0,0.0
1921,58.0,0,15,3.0,0.0
1922,46.0,0,15,4.0,0.0
1923,70.0,1,20,5.0,0.0
1924,55.0,11,15,6.0,0.0
1925,73.0,0,15,0.0,0.0
1926,57.0,0,15,3.0,0.0
1927,45.0,0,15,4.0,0.0
1928,57.0,12,15,6.0,0.0
1929,74.0,0,60,0.0,0.0
1930,58.0,0,15,3.0,0.0
1931,46.0,0,15,4.0,0.0
1932,77.0,6,60,5.0,0.0
1933,58.0,8,15,6.0,0.0
1934,60.0,0,15,3.0,0.0
1935,48.0,0,15,4.0,0.0
1936,60.0,12,15,6.0,0.0
1937,67.0,0,15,1.0,0.0
1938,64.0,0,15,2.0,0.0
1939,58.0,0,15,3.0,0.0
1940,46.0,0,15,4.0,0.0
1941,58.0,12,15,6.0,0.0
1942,69.0,0,15,1.0,0.0
1943,65.0,0,15,2.0,0.0
1944,57.0,0,15,3.0,0.0
1945,45.0,0,15,4.0,0.0
1946,57.0,12,15,6.0,0.0
1947,70.0,6,60,1.0,0.0
1948,67.0,1,20,2.0,0.0
1949,55.0,0,15,3.0,0.0
1950,43.0,0,15,4.0,0.0
1951,55.0,5,15,6.0,0.0
1952,57.0,0,15,3.0,0.0
1953,45.0,0,15,4.0,0.0
1954,57.0,12,15,6.0,0.0
1955,76.0,0,15,0.0,0.0
1956,70.0,1,20,2.0,0.0
1957,55.0,0,15,3.0,0.0
1958,43.0,0,15,4.0,0.0
1959,76.0,0,15,5.0,0.0
1960,55.0,11,15,6.0,0.0
1961,77.0,0,15,0.0,0.0
1962,53.0,0,15,3.0,0.0
1963,41.0,0,15,4.0,0.0
1964,77.0,0,15,5.0,0.0
1965,53.0,6,15,6.0,0.0
1966,79.0,0,20,0.0,0.0
1967,61.0,0,20,2.0,0.0
1968,52.0,0,15,3.0,0.0
1969,40.0,0,15,4.0,0.0
1970,79.0,1,20,5.0,0.0
1971,52.0,11,15,6.0,0.0
1972,69.0,0,15,1.0,0.0
1973,53.0,0,15,3.0,0.0
1974,41.0,0,15,4.0,0.0
1975,53.0,12,15,6.0,0.0
1976,70.0,0,20,0.0,0.0
1977,67.0,0,15,1.0,0.0
1978,64.0,3,40,2.0,0.0
1979,52.0,0,15,3.0,0.0
1980,40.0,0,15,4.0,0.0
1981,70.0,1,20,5.0,0.0
1982,52.0,11,15,6.0,0.0
1983,65.0,0,15,1.0,0.0
1984,50.0,0,15,3.0,0.0
1985,38.0,0,15,4.0,0.0
1986,50.0,12,15,6.0,0.0
1987,69.0,0,20,0.0,0.0
1988,64.0,0,20,1.0,0.0
1989,49.0,0,15,3.0,0.0
1990,37.0,0,15,4.0,0.0
1991,69.0,1,20,5.0,0.0
1992,49.0,8,15,6.0,0.0
1993,45.0,0,15,3.0,0.0
1994,33.0,0,15,4.0,0.0
1995,45.0,12,15,6.0,0.0
1996,79.0,0,20,0.0,0.0
1997,76.0,0,20,1.0,0.0
1998,57.0,0,20,2.0,0.0
1999,47.0,0,15,3.0,0.0
2000,35.0,0,15,4.0,0.0
2001,79.0,1,20,5.0,0.0
2002,47.0,11,15,6.0,0.0
2003,49.0,0,15,3.0,0.0
2004,37.0,0,15,4.0,0.0
2005,49.0,12,15,6.0,0.0
2006,77.0,0,20,0.0,0.0
2007,74.0,0,20,1.0,0.0
2008,69.0,0,20,2.0,0.0
2009,50.0,0,15,3.0,0.0
2010,38.0,0,15,4.0,0.0
2011,77.0,1,20,5.0,0.0
2012,50.0,11,15,6.0,0.0
2013,52.0,0,15,3.0,0.0
2014,40.0,0,15,4.0,0.0
2015,52.0,12,15,6.0,0.0
2016,69.0,0,20,0.0,0.0
2017,62.0,3,40,1.0,0.0
2018,65.0,0,20,2.0,0.0
2019,53.0,0,15,3.0,0.0
2020,41.0,0,15,4.0,0.0
2021,69.0,1,20,5.0,0.0
2022,53.0,11,15,6.0,0.0
2023,50.0,0,15,3.0,0.0
2024,38.0,0,15,4.0,0.0
2025,50.0,12,15,6.0,0.0
2026,67.0,6,15,0.0,0.0
2027,62.0,0,20,2.0,0.0
2028,46.0,0,20,3.0,0.0
2029,34.0,0,20,4.0,0.0
2030,67.0,2,15,5.0,0.0
2031,46.0,1,20,6.0,0.0
2032,69.0,10,15,0.0,0.0
2033,69.0,2,15,5.0,0.0
2034,70.0,0,15,0.0,0.0
2035,61.0,0,20,1.0,0.0
2036,65.0,0,20,2.0,0.0
2037,45.0,0,20,3.0,0.0
2038,33.0,0,20,4.0,0.0
2039,70.0,11,15,5.0,0.0
2040,45.0,1,20,6.0,0.0
2041,69.0,0,15,0.0,0.0
2042,69.0,12,15,5.0,0.0
2043,67.0,0,15,0.0,0.0
2044,62.0,0,20,1.0,0.0
2045,67.0,0,15,2.0,0.0
2046,46.0,0,20,3.0,0.0
2047,34.0,0,20,4.0,0.0
2048,67.0,11,15,5.0,0.0
2049,46.0,1,20,6.0,0.0
2050,65.0,0,15,0.0,0.0
2051,69.0,0,15,2.0,0.0
2052,65.0,12,15,5.0,0.0
2053,64.0,0,15,0.0,0.0
2054,70.0,3,40,1.0,0.0
2055,67.0,0,15,2.0,0.0
2056,43.0,0,20,3.0,0.0
2057,31.0,0,20,4.0,0.0
2058,64.0,11,15,5.0,0.0
2059,43.0,1,20,6.0,0.0
2060,62.0,0,15,0.0,0.0
2061,65.0,0,15,2.0,0.0
2062,62.0,20,15,5.0,0.0
2063,61.0,0,20,0.0,0.0
2064,64.0,0,20,2.0,0.0
2065,45.0,0,30,3.0,0.0
2066,33.0,0,30,4.0,0.0
2067,61.0,10,20,5.0,0.0
2068,45.0,10,30,6.0,0.0
2069,70.0,0,20,0.0,0.0
2070,64.0,0,20,1.0,0.0
2071,67.0,0,20,2.0,0.0
2072,70.0,2,20,5.0,0.0
2073,47.0,0,15,3.0,0.0
2074,35.0,0,15,4.0,0.0
2075,47.0,4,15,6.0,0.0
2076,49.0,0,15,3.0,0.0
2077,37.0,0,15,4.0,0.0
2078,49.0,11,15,6.0,0.0
2079,69.0,0,20,0.0,0.0
2080,65.0,0,20,1.0,0.0
2081,65.0,0,20,2.0,0.0
2082,50.0,0,15,3.0,0.0
2083,38.0,0,15,4.0,0.0
2084,69.0,1,20,5.0,0.0
2085,50.0,11,15,6.0,0.0
2086,52.0,0,15,3.0,0.0
2087,40.0,0,15,4.0,0.0
2088,52.0,12,15,6.0,0.0
2089,74.0,0,20,0.0,0.0
2090,74.0,0,20,1.0,0.0
2091,70.0,0,20,2.0,0.0
2092,53.0,0,15,3.0,0.0
2093,41.0,0,15,4.0,0.0
2094,74.0,1,20,5.0,0.0
2095,53.0,11,15,6.0,0.0
2096,55.0,0,15,3.0,0.0
2097,43.0,0,15,4.0,0.0
2098,55.0,23,15,6.0,0.0
2099,77.0,0,40,0.0,0.0
2100,74.0,0,40,1.0,0.0
2101,69.0,0,40,2.0,0.0
2102,57.0,0,20,3.0,0.0
2103,45.0,0,20,4.0,0.0
2104,77.0,0,40,5.0,0.0
2105,74.0,0,40,5.0,0.0
2106,69.0,3,40,5.0,0.0
2107,57.0,21,20,6.0,0.0
2108,55.0,0,20,3.0,0.0
2109,43.0,0,20,4.0,0.0
2110,55.0,9,20,6.0,0.0
2111,76.0,0,15,0.0,0.0
2112,73.0,0,15,1.0,0.0
2113,69.0,6,90,2.0,0.0
2114,57.0,0,20,3.0,0.0
2115,45.0,0,20,4.0,0.0
2116,76.0,6,15,5.0,0.0
2117,73.0,0,40,5.0,0.0
2118,69.0,3,40,5.0,0.0
2119,57.0,3,20,6.0,0.0
2120,77.0,0,15,0.0,0.0
2121,74.0,0,15,1.0,0.0
2122,77.0,6,15,5.0,0.0
2123,76.0,0,15,0.0,0.0
2124,73.0,0,15,1.0,0.0
2125,76.0,3,15,5.0,0.0
2126,77.0,0,15,0.0,0.0
2127,74.0,0,15,1.0,0.0
2128,77.0,6,15,5.0,0.0
2129,76.0,0,15,0.0,0.0
2130,73.0,0,15,1.0,0.0
2131,45.0,0,20,3.0,0.0
2132,33.0,0,20,4.0,0.0
2133,76.0,6,15,5.0,0.0
2134,45.0,3,20,6.0,0.0
2135,77.0,0,15,0.0,0.0
2136,74.0,0,15,1.0,0.0
2137,77.0,6,15,5.0,0.0
2138,76.0,0,15,0.0,0.0
2139,73.0,0,15,1.0,0.0
2140,76.0,0,15,5.0,0.0
2141,77.0,0,15,0.0,0.0
2142,74.0,0,15,1.0,0.0
2143,77.0,10,15,5.0,0.0
2144,76.0,0,40,0.0,0.0
2145,73.0,3,40,1.0,0.0
2146,55.0,0,20,3.0,0.0
2147,43.0,1,20,4.0,0.0
2148,76.0,0,15,5.0,0.0
2149,55.0,11,15,6.0,0.0
2150,77.0,0,15,5.0,0.0
2151,53.0,12,15,6.0,0.0
2152,57.0,0,20,3.0,0.0
2153,45.0,1,20,4.0,0.0
2154,79.0,0,15,5.0,0.0
2155,52.0,2,15,6.0,0.0
2156,77.0,0,15,5.0,0.0
2157,53.0,12,15,6.0,0.0
2158,55.0,0,20,3.0,0.0
2159,43.0,1,20,4.0,0.0
2160,76.0,0,15,5.0,0.0
2161,55.0,11,15,6.0,0.0
2162,79.0,0,15,5.0,0.0
2163,58.0,12,15,6.0,0.0
2164,53.0,0,20,3.0,0.0
2165,41.0,1,20,4.0,0.0
2166,74.0,0,15,5.0,0.0
2167,53.0,11,15,6.0,0.0
2168,79.0,0,15,5.0,0.0
2169,58.0,12,15,6.0,0.0
2170,79.0,0,20,0.0,0.0
2171,76.0,0,20,1.0,0.0
2172,70.0,10,20,2.0,0.0
2173,52.0,0,20,3.0,0.0
2174,40.0,1,20,4.0,0.0
2175,73.0,0,15,5.0,0.0
2176,52.0,11,15,6.0,0.0
2177,74.0,0,15,5.0,0.0
2178,50.0,2,15,6.0,0.0
2179,53.0,0,20,3.0,0.0
2180,41.0,1,20,4.0,0.0
2181,76.0,0,15,5.0,0.0
2182,49.0,11,15,6.0,0.0
2183,74.0,0,15,5.0,0.0
2184,50.0,12,15,6.0,0.0
2185,52.0,0,20,3.0,0.0
2186,40.0,1,20,4.0,0.0
2187,73.0,0,15,5.0,0.0
2188,52.0,11,15,6.0,0.0
2189,76.0,0,15,5.0,0.0
2190,53.0,12,15,6.0,0.0
2191,50.0,0,20,3.0,0.0
2192,38.0,1,20,4.0,0.0
2193,70.0,0,15,5.0,0.0
2194,55.0,11,15,6.0,0.0
2195,76.0,0,15,5.0,0.0
2196,57.0,12,15,6.0,0.0
2197,82.0,0,20,0.0,0.0
2198,79.0,0,20,1.0,0.0
2199,64.0,10,20,2.0,0.0
2200,49.0,0,20,3.0,0.0
2201,37.0,1,20,4.0,0.0
2202,67.0,0,15,5.0,0.0
2203,58.0,11,15,6.0,0.0
2204,69.0,0,15,5.0,0.0
2205,57.0,2,15,6.0,0.0
2206,50.0,0,20,3.0,0.0
2207,38.0,1,20,4.0,0.0
2208,70.0,0,15,5.0,0.0
2209,55.0,11,15,6.0,0.0
2210,69.0,0,15,5.0,0.0
2211,57.0,12,15,6.0,0.0
2212,52.0,0,20,3.0,0.0
2213,40.0,1,20,4.0,0.0
2214,67.0,0,15,5.0,0.0
2215,58.0,11,15,6.0,0.0
2216,70.0,0,15,5.0,0.0
2217,61.0,12,15,6.0,0.0
2218,53.0,0,20,3.0,0.0
2219,41.0,1,20,4.0,0.0
2220,65.0,0,15,5.0,0.0
2221,57.0,11,15,6.0,0.0
2222,70.0,0,15,5.0,0.0
2223,61.0,12,15,6.0,0.0
2224,67.0,0,20,0.0,0.0
2225,64.0,0,20,1.0,0.0
2226,70.0,10,20,2.0,0.0
2227,55.0,0,20,3.0,0.0
2228,43.0,1,20,4.0,0.0
2229,64.0,0,15,5.0,0.0
2230,55.0,11,15,6.0,0.0
2231,65.0,0,15,5.0,0.0
2232,53.0,2,15,6.0,0.0
2233,57.0,0,20,3.0,0.0
2234,45.0,1,20,4.0,0.0
2235,67.0,0,15,5.0,0.0
2236,52.0,11,15,6.0,0.0
2237,65.0,0,15,5.0,0.0
2238,53.0,12,15,6.0,0.0
2239,58.0,0,20,3.0,0.0
2240,46.0,1,20,4.0,0.0
2241,64.0,0,15,5.0,0.0
2242,55.0,11,15,6.0,0.0
2243,67.0,0,15,5.0,0.0
2244,58.0,12,15,6.0,0.0
2245,52.0,0,20,3.0,0.0
2246,40.0,1,20,4.0,0.0
2247,62.0,0,15,5.0,0.0
2248,55.0,11,15,6.0,0.0
2249,67.0,0,15,5.0,0.0
2250,52.0,12,15,6.0,0.0
2251,67.0,0,90,0.0,0.0
2252,64.0,10,90,1.0,0.0
2253,61.0,9,120,2.0,0.0
2254,57.0,0,20,3.0,0.0
2255,45.0,0,20,4.0,0.0
2256,61.0,11,15,5.0,0.0
2257,57.0,1,20,6.0,0.0
2258,67.0,12,15,5.0,0.0
2259,55.0,0,15,3.0,0.0
2260,43.0,0,15,4.0,0.0
2261,57.0,0,15,5.0,0.0
2262,55.0,12,15,6.0,0.0
2263,53.0,0,15,3.0,0.0
2264,41.0,0,15,4.0,0.0
2265,59.0,0,15,5.0,0.0
2266,53.0,12,15,6.0,0.0
2267,52.0,0,20,3.0,0.0
2268,40.0,1,20,4.0,0.0
2269,61.0,0,15,5.0,0.0
2270,52.0,11,15,6.0,0.0
2271,62.0,0,15,5.0,0.0
2272,53.0,12,15,6.0,0.0
2273,50.0,0,20,3.0,0.0
2274,38.0,1,20,4.0,0.0
2275,64.0,0,15,5.0,0.0
2276,55.0,11,15,6.0,0.0
2277,65.0,0,15,5.0,0.0
2278,53.0,2,15,6.0,0.0
2279,49.0,0,20,3.0,0.0
2280,37.0,1,20,4.0,0.0
2281,67.0,0,15,5.0,0.0
2282,52.0,2,15,6.0,0.0
2283,69.0,0,15,0.0,0.0
2284,65.0,0,15,1.0,0.0
2285,69.0,0,15,5.0,0.0
2286,50.0,12,15,6.0,0.0
2287,71.0,0,15,0.0,0.0
2288,67.0,0,15,1.0,0.0
2289,62.0,3,40,2.0,0.0
2290,47.0,0,20,3.0,0.0
2291,35.0,1,20,4.0,0.0
2292,71.0,0,15,5.0,0.0
2293,49.0,11,15,6.0,0.0
2294,73.0,0,15,0.0,0.0
2295,69.0,0,15,1.0,0.0
2296,73.0,0,15,5.0,0.0
2297,47.0,12,15,6.0,0.0
2298,74.0,0,15,0.0,0.0
2299,71.0,0,15,1.0,0.0
2300,45.0,0,20,3.0,0.0
2301,33.0,1,20,4.0,0.0
2302,74.0,0,15,5.0,0.0
2303,45.0,8,15,6.0,0.0
2304,76.0,0,15,0.0,0.0
2305,73.0,0,15,1.0,0.0
2306,76.0,0,15,5.0,0.0
2307,43.0,12,15,6.0,0.0
2308,77.0,0,15,0.0,0.0
2309,74.0,0,15,1.0,0.0
2310,70.0,0,20,2.0,0.0
2311,43.0,0,20,3.0,0.0
2312,31.0,1,20,4.0,0.0
2313,77.0,0,15,5.0,0.0
2314,41.0,11,15,6.0,0.0
2315,79.0,0,15,0.0,0.0
2316,76.0,0,15,1.0,0.0
2317,79.0,0,15,5.0,0.0
2318,40.0,23,15,6.0,0.0
2319,81.0,0,20,0.0,0.0
2320,77.0,0,20,1.0,0.0
2321,69.0,0,20,2.0,0.0
2322,41.0,0,20,3.0,0.0
2323,29.0,0,20,4.0,0.0
2324,81.0,0,20,5.0,0.0
2325,38.0,24,20,6.0,0.0
2326,74.0,0,20,0.0,0.0
2327,65.0,0,20,1.0,0.0
2328,70.0,0,20,2.0,0.0
2329,46.0,0,20,3.0,0.0
2330,34.0,0,20,4.0,0.0
2331,74.0,0,20,5.0,0.0
2332,46.0,24,20,6.0,0.0
2333,76.0,0,20,0.0,0.0
2334,67.0,0,20,1.0,0.0
2335,70.0,0,20,2.0,0.0
2336,43.0,0,20,3.0,0.0
2337,31.0,0,20,4.0,0.0
2338,76.0,0,20,5.0,0.0
2339,43.0,24,20,6.0,0.0
2340,73.0,0,20,0.0,0.0
2341,64.0,0,20,1.0,0.0
2342,69.0,0,20,2.0,0.0
2343,45.0,0,20,3.0,0.0
2344,33.0,0,20,4.0,0.0
2345,73.0,0,20,5.0,0.0
2346,45.0,13,20,6.0,0.0
2347,74.0,0,15,0.0,0.0
2348,62.0,1,20,1.0,0.0
2349,69.0,10,20,2.0,0.0
2350,46.0,0,40,3.0,0.0
2351,34.0,3,40,4.0,0.0
2352,74.0,0,15,5.0,0.0
2353,46.0,11,15,6.0,0.0
2354,72.0,0,15,0.0,0.0
2355,72.0,0,15,5.0,0.0
2356,50.0,2,15,6.0,0.0
2357,70.0,0,15,0.0,0.0
2358,74.0,0,15,1.0,0.0
2359,67.0,1,20,2.0,0.0
2360,70.0,0,15,5.0,0.0
2361,52.0,8,15,6.0,0.0
2362,69.0,0,15,0.0,0.0
2363,72.0,0,15,1.0,0.0
2364,69.0,0,15,5.0,0.0
2365,54.0,12,15,6.0,0.0
2366,67.0,0,20,0.0,0.0
2367,70.0,0,15,1.0,0.0
2368,67.0,1,20,5.0,0.0
2369,55.0,11,15,6.0,0.0
2370,69.0,0,15,1.0,0.0
2371,57.0,12,15,6.0,0.0
2372,67.0,0,20,0.0,0.0
2373,67.0,0,15,1.0,0.0
2374,62.0,0,20,2.0,0.0
2375,58.0,0,20,3.0,0.0
2376,46.0,0,20,4.0,0.0
2377,67.0,1,20,5.0,0.0
2378,58.0,11,15,6.0,0.0
2379,65.0,0,15,1.0,0.0
2380,55.0,12,15,6.0,0.0
2381,67.0,0,15,0.0,0.0
2382,64.0,0,15,1.0,0.0
2383,64.0,1,20,2.0,0.0
2384,49.0,0,20,3.0,0.0
2385,37.0,0,20,4.0,0.0
2386,67.0,11,15,5.0,0.0
2387,49.0,10,20,6.0,0.0
2388,69.0,0,15,0.0,0.0
2389,62.0,0,15,1.0,0.0
2390,69.0,2,15,5.0,0.0
2391,70.0,0,30,0.0,0.0
2392,61.0,11,15,1.0,0.0
2393,67.0,1,20,2.0,0.0
2394,49.0,0,20,3.0,0.0
2395,37.0,0,20,4.0,0.0
2396,70.0,3,30,5.0,0.0
2397,49.0,7,20,6.0,0.0
2398,62.0,2,15,1.0,0.0
2399,64.0,11,15,1.0,0.0
2400,49.0,0,20,3.0,0.0
2401,37.0,0,20,4.0,0.0
2402,49.0,1,20,6.0,0.0
2403,69.0,0,15,0.0,0.0
2404,65.0,0,15,1.0,0.0
2405,69.0,12,15,5.0,0.0
2406,67.0,0,15,0.0,0.0
2407,67.0,0,15,1.0,0.0
2408,64.0,0,20,2.0,0.0
2409,52.0,0,20,3.0,0.0
2410,40.0,0,20,4.0,0.0
2411,67.0,11,15,5.0,0.0
2412,52.0,1,20,6.0,0.0
2413,65.0,0,15,0.0,0.0
2414,69.0,0,15,1.0,0.0
2415,65.0,12,15,5.0,0.0
2416,64.0,0,15,0.0,0.0
2417,70.0,0,15,1.0,0.0
2418,61.0,1,20,2.0,0.0
2419,43.0,0,20,3.0,0.0
2420,31.0,0,20,4.0,0.0
2421,64.0,11,15,5.0,0.0
2422,43.0,10,20,6.0,0.0
2423,65.0,0,15,0.0,0.0
2424,69.0,0,15,1.0,0.0
2425,65.0,2,15,5.0,0.0
2426,67.0,0,30,0.0,0.0
2427,67.0,11,15,1.0,0.0
2428,64.0,1,20,2.0,0.0
2429,43.0,0,20,3.0,0.0
2430,31.0,0,20,4.0,0.0
2431,67.0,3,30,5.0,0.0
2432,43.0,7,20,6.0,0.0
2433,65.0,2,15,1.0,0.0
2434,64.0,11,15,1.0,0.0
2435,43.0,0,20,3.0,0.0
2436,31.0,0,20,4.0,0.0
2437,43.0,1,20,6.0,0.0
2438,65.0,0,15,0.0,0.0
2439,62.0,0,15,1.0,0.0
2440,65.0,12,15,5.0,0.0
2441,64.0,0,15,0.0,0.0
2442,61.0,0,15,1.0,0.0
2443,67.0,0,20,2.0,0.0
2444,46.0,0,20,3.0,0.0
2445,34.0,0,20,4.0,0.0
2446,64.0,11,15,5.0,0.0
2447,46.0,1,20,6.0,0.0
2448,62.0,0,15,0.0,0.0
2449,62.0,0,15,1.0,0.0
2450,62.0,23,15,5.0,0.0
2451,61.0,0,20,0.0,0.0
2452,67.0,0,20,1.0,0.0
2453,55.0,0,20,2.0,0.0
2454,40.0,0,20,3.0,0.0
2455,28.0,0,20,4.0,0.0
2456,61.0,0,20,5.0,0.0
2457,40.0,13,20,6.0,0.0
2458,69.0,0,20,0.0,0.0
2459,62.0,0,20,1.0,0.0
2460,57.0,0,20,2.0,0.0
2461,41.0,0,15,3.0,0.0
2462,29.0,0,15,4.0,0.0
2463,69.0,0,20,5.0,0.0
2464,65.0,0,20,5.0,0.0
2465,62.0,1,20,5.0,0.0
2466,41.0,11,15,6.0,0.0
2467,43.0,0,15,3.0,0.0
2468,31.0,0,15,4.0,0.0
2469,43.0,8,15,6.0,0.0
2470,65.0,0,20,0.0,0.0
2471,62.0,0,20,1.0,0.0
2472,57.0,0,20,2.0,0.0
2473,45.0,0,20,3.0,0.0
2474,33.0,0,20,4.0,0.0
2475,67.0,6,15,5.0,0.0
2476,62.0,0,20,5.0,0.0
2477,45.0,2,20,6.0,0.0
2478,65.0,6,15,5.0,0.0
2479,67.0,3,15,5.0,0.0
2480,65.0,11,15,5.0,0.0
2481,64.0,0,15,0.0,0.0
2482,61.0,0,20,1.0,0.0
2483,57.0,0,20,2.0,0.0
2484,45.0,0,20,3.0,0.0
2485,33.0,0,20,4.0,0.0
2486,64.0,11,15,5.0,0.0
2487,61.0,0,20,5.0,0.0
2488,45.0,1,20,6.0,0.0
2489,62.0,0,15,0.0,0.0
2490,62.0,23,15,5.0,0.0
2491,62.0,0,40,0.0,0.0
2492,57.0,0,40,1.0,0.0
2493,53.0,0,40,2.0,0.0
2494,38.0,0,20,3.0,0.0
2495,26.0,0,20,4.0,0.0
2496,62.0,4,40,5.0,0.0
2497,38.0,13,20,6.0,0.0
2498,50.0,0,15,3.0,0.0
2499,38.0,0,15,4.0,0.0
2500,50.0,8,15,6.0,0.0
2501,49.0,0,15,3.0,0.0
2502,37.0,0,15,4.0,0.0
2503,49.0,12,15,6.0,0.0
2504,50.0,0,20,3.0,0.0
2505,38.0,1,20,4.0,0.0
2506,50.0,11,15,6.0,0.0
2507,69.0,0,15,5.0,0.0
2508,53.0,12,15,6.0,0.0
2509,52.0,0,20,3.0,0.0
2510,40.0,1,20,4.0,0.0
2511,67.0,0,15,5.0,0.0
2512,52.0,11,15,6.0,0.0
2513,69.0,0,15,5.0,0.0
2514,55.0,12,15,6.0,0.0
2515,53.0,0,40,3.0,0.0
2516,41.0,3,40,4.0,0.0
2517,74.0,0,15,5.0,0.0
2518,53.0,12,15,6.0,0.0
2519,73.0,0,15,5.0,0.0
2520,52.0,12,15,6.0,0.0
2521,69.0,0,20,0.0,0.0
2522,65.0,0,20,1.0,0.0
2523,62.0,1,20,2.0,0.0
2524,74.0,14,30,5.0,0.0
2525,53.0,8,15,6.0,0.0
2526,52.0,9,15,6.0,0.0
2527,74.0,0,20,0.0,0.0
2528,69.0,0,20,1.0,0.0
2529,65.0,0,20,2.0,0.0
2530,53.0,1,20,6.0,0.0
2531,69.0,12,15,5.0,0.0
2532,50.0,0,20,3.0,0.0
2533,38.0,0,20,4.0,0.0
2534,67.0,11,15,5.0,0.0
2535,50.0,1,20,6.0,0.0
2536,69.0,12,15,5.0,0.0
2537,57.0,0,40,3.0,0.0
2538,45.0,4,40,4.0,0.0
2539,77.0,1,20,5.0,0.0
2540,45.0,11,15,6.0,0.0
2541,57.0,12,15,6.0,0.0
2542,73.0,0,15,0.0,0.0
2543,69.0,0,15,1.0,0.0
2544,64.0,0,15,2.0,0.0
2545,76.0,3,30,5.0,0.0
2546,55.0,8,15,6.0,0.0
2547,74.0,0,15,0.0,0.0
2548,71.0,0,15,1.0,0.0
2549,65.0,0,15,2.0,0.0
2550,53.0,9,15,6.0,0.0
2551,76.0,0,20,0.0,0.0
2552,73.0,0,20,1.0,0.0
2553,67.0,1,20,2.0,0.0
2554,52.0,11,15,6.0,0.0
2555,69.0,0,15,5.0,0.0
2556,53.0,12,15,6.0,0.0
2557,57.0,0,20,3.0,0.0
2558,45.0,1,20,4.0,0.0
2559,67.0,0,15,5.0,0.0
2560,52.0,11,15,6.0,0.0
2561,69.0,0,15,5.0,0.0
2562,50.0,12,15,6.0,0.0
2563,49.0,0,40,3.0,0.0
2564,37.0,3,40,4.0,0.0
2565,76.0,0,15,5.0,0.0
2566,49.0,12,15,6.0,0.0
2567,74.0,0,15,5.0,0.0
2568,50.0,12,15,6.0,0.0
2569,69.0,0,20,0.0,0.0
2570,61.0,0,20,1.0,0.0
2571,64.0,1,20,2.0,0.0
2572,76.0,3,30,5.0,0.0
2573,49.0,8,15,6.0,0.0
2574,47.0,9,15,6.0,0.0
2575,76.0,0,20,0.0,0.0
2576,67.0,0,20,1.0,0.0
2577,61.0,1,20,2.0,0.0
2578,45.0,11,15,6.0,0.0
2579,69.0,0,15,5.0,0.0
2580,49.0,12,15,6.0,0.0
2581,45.0,0,20,3.0,0.0
2582,33.0,1,20,4.0,0.0
2583,67.0,0,15,5.0,0.0
2584,47.0,11,15,6.0,0.0
2585,69.0,0,15,5.0,0.0
2586,45.0,12,15,6.0,0.0
2587,50.0,0,40,3.0,0.0
2588,38.0,3,40,4.0,0.0
2589,79.0,1,20,5.0,0.0
2590,50.0,11,15,6.0,0.0
2591,49.0,12,15,6.0,0.0
2592,74.0,0,15,0.0,0.0
2593,69.0,1,20,1.0,0.0
2594,65.0,0,15,2.0,0.0
2595,77.0,14,30,5.0,0.0
2596,50.0,8,15,6.0,0.0
2597,76.0,0,15,0.0,0.0
2598,67.0,0,15,2.0,0.0
2599,45.0,9,15,6.0,0.0
2600,77.0,0,20,0.0,0.0
2601,74.0,0,20,1.0,0.0
2602,69.0,0,20,2.0,0.0
2603,38.0,3,20,6.0,0.0
2604,74.0,12,15,5.0,0.0
2605,74.0,0,20,0.0,0.0
2606,65.0,0,20,1.0,0.0
2607,62.0,1,20,2.0,0.0
2608,73.0,9,15,5.0,0.0
2609,74.0,12,15,5.0,0.0
2610,76.0,0,40,0.0,0.0
2611,67.0,0,40,1.0,0.0
2612,62.0,10,40,2.0,0.0
2613,76.0,12,15,5.0,0.0
2614,74.0,10,15,5.0,0.0
2615,58.0,2,15,6.0,0.0
2616,73.0,10,15,5.0,0.0
2617,57.0,2,15,6.0,0.0
2618,74.0,0,15,5.0,0.0
2619,58.0,2,15,6.0,0.0
2620,78.0,0,40,0.0,0.0
2621,69.0,0,40,1.0,0.0
2622,60.0,10,40,2.0,0.0
2623,78.0,0,15,5.0,0.0
2624,60.0,12,15,6.0,0.0
2625,74.0,0,15,5.0,0.0
2626,58.0,12,15,6.0,0.0
2627,73.0,0,15,5.0,0.0
2628,57.0,12,15,6.0,0.0
2629,74.0,0,15,5.0,0.0
2630,58.0,2,15,6.0,0.0
2631,79.0,0,40,0.0,0.0
2632,70.0,0,40,1.0,0.0
2633,58.0,10,40,2.0,0.0
2634,79.0,0,15,5.0,0.0
2635,50.0,12,15,6.0,0.0
2636,74.0,10,15,5.0,0.0
2637,58.0,2,15,6.0,0.0
2638,50.0,0,20,3.0,0.0
2639,38.0,1,20,4.0,0.0
2640,73.0,9,15,5.0,0.0
2641,57.0,2,15,6.0,0.0
2642,74.0,0,15,5.0,0.0
2643,58.0,2,15,6.0,0.0
2644,81.0,0,40,0.0,0.0
2645,66.0,0,40,1.0,0.0
2646,57.0,10,40,2.0,0.0
2647,38.0,0,20,3.0,0.0
2648,26.0,1,20,4.0,0.0
2649,81.0,0,15,5.0,0.0
2650,60.0,11,15,6.0,0.0
2651,74.0,0,15,5.0,0.0
2652,58.0,12,15,6.0,0.0
2653,50.0,0,20,3.0,0.0
2654,38.0,1,20,4.0,0.0
2655,73.0,0,15,5.0,0.0
2656,57.0,11,15,6.0,0.0
2657,74.0,0,15,5.0,0.0
2658,58.0,2,15,6.0,0.0
2659,82.0,1,20,0.0,0.0
2660,67.0,0,40,1.0,0.0
2661,55.0,0,40,2.0,0.0
2662,43.0,0,40,3.0,0.0
2663,31.0,3,40,4.0,0.0
2664,82.0,0,15,5.0,0.0
2665,55.0,11,15,6.0,0.0
2666,79.0,0,15,5.0,0.0
2667,58.0,12,15,6.0,0.0
2668,74.0,1,20,0.0,0.0
2669,78.0,0,15,5.0,0.0
2670,63.0,8,15,6.0,0.0
2671,79.0,0,15,5.0,0.0
2672,67.0,12,15,6.0,0.0
2673,71.0,0,40,0.0,0.0
2674,65.0,0,40,1.0,0.0
2675,55.0,10,40,2.0,0.0
2676,71.0,0,15,5.0,0.0
2677,65.0,12,15,6.0,0.0
2678,79.0,0,15,5.0,0.0
2679,63.0,12,15,6.0,0.0
2680,78.0,0,15,5.0,0.0
2681,62.0,12,15,6.0,0.0
2682,79.0,0,15,5.0,0.0
2683,63.0,2,15,6.0,0.0
2684,72.0,0,40,0.0,0.0
2685,63.0,0,40,1.0,0.0
2686,57.0,10,40,2.0,0.0
2687,72.0,0,15,5.0,0.0
2688,55.0,12,15,6.0,0.0
2689,79.0,0,15,5.0,0.0
2690,63.0,12,15,6.0,0.0
2691,55.0,0,20,3.0,0.0
2692,43.0,1,20,4.0,0.0
2693,78.0,0,15,5.0,0.0
2694,62.0,11,15,6.0,0.0
2695,79.0,0,15,5.0,0.0
2696,63.0,2,15,6.0,0.0
2697,74.0,0,40,0.0,0.0
2698,62.0,0,40,1.0,0.0
2699,59.0,10,40,2.0,0.0
2700,43.0,0,20,3.0,0.0
2701,31.0,1,20,4.0,0.0
2702,74.0,0,15,5.0,0.0
2703,65.0,11,15,6.0,0.0
2704,79.0,0,15,5.0,0.0
2705,63.0,12,15,6.0,0.0
2706,55.0,0,20,3.0,0.0
2707,43.0,1,20,4.0,0.0
2708,78.0,0,15,5.0,0.0
2709,62.0,11,15,6.0,0.0
2710,79.0,0,15,5.0,0.0
2711,63.0,2,15,6.0,0.0
2712,75.0,1,20,0.0,0.0
2713,60.0,0,40,1.0,0.0
2714,60.0,0,40,2.0,0.0
2715,48.0,0,40,3.0,0.0
2716,36.0,3,40,4.0,0.0
2717,75.0,0,15,5.0,0.0
2718,60.0,11,15,6.0,0.0
2719,72.0,0,15,5.0,0.0
2720,63.0,12,15,6.0,0.0
2721,67.0,1,20,0.0,0.0
2722,71.0,0,15,5.0,0.0
2723,62.0,8,15,6.0,0.0
2724,72.0,0,15,5.0,0.0
2725,60.0,12,15,6.0,0.0
2726,64.0,0,40,0.0,0.0
2727,55.0,0,40,1.0,0.0
2728,58.0,10,40,2.0,0.0
2729,64.0,0,15,5.0,0.0
2730,58.0,12,15,6.0,0.0
2731,72.0,0,15,5.0,0.0
2732,57.0,12,15,6.0,0.0
2733,71.0,0,15,5.0,0.0
2734,55.0,12,15,6.0,0.0
2735,72.0,0,15,5.0,0.0
2736,57.0,2,15,6.0,0.0
2737,65.0,0,40,0.0,0.0
2738,60.0,0,40,1.0,0.0
2739,57.0,10,40,2.0,0.0
2740,65.0,0,15,5.0,0.0
2741,48.0,12,15,6.0,0.0
2742,72.0,0,15,5.0,0.0
2743,57.0,12,15,6.0,0.0
2744,48.0,0,20,3.0,0.0
2745,36.0,1,20,4.0,0.0
2746,71.0,0,15,5.0,0.0
2747,55.0,11,15,6.0,0.0
2748,72.0,0,15,5.0,0.0
2749,57.0,2,15,6.0,0.0
2750,67.0,0,40,0.0,0.0
2751,64.0,0,40,1.0,0.0
2752,55.0,10,40,2.0,0.0
2753,36.0,0,20,3.0,0.0
2754,24.0,1,20,4.0,0.0
2755,67.0,0,15,5.0,0.0
2756,58.0,11,15,6.0,0.0
2757,72.0,0,15,5.0,0.0
2758,57.0,12,15,6.0,0.0
2759,48.0,0,20,3.0,0.0
2760,36.0,1,20,4.0,0.0
2761,71.0,0,15,5.0,0.0
2762,55.0,11,15,6.0,0.0
2763,72.0,0,15,5.0,0.0
2764,57.0,2,15,6.0,0.0
2765,69.0,0,40,0.0,0.0
2766,65.0,0,40,1.0,0.0
2767,53.0,0,40,2.0,0.0
2768,41.0,0,40,3.0,0.0
2769,29.0,4,40,4.0,0.0
2770,69.0,0,15,5.0,0.0
2771,53.0,12,15,6.0,0.0
2772,65.0,0,15,5.0,0.0
2773,57.0,12,15,6.0,0.0
2774,64.0,0,15,5.0,0.0
2775,60.0,8,15,6.0,0.0
2776,65.0,0,15,5.0,0.0
2777,62.0,12,15,6.0,0.0
2778,69.0,0,40,0.0,0.0
2779,63.0,0,40,1.0,0.0
2780,53.0,10,40,2.0,0.0
2781,69.0,0,15,5.0,0.0
2782,63.0,12,15,6.0,0.0
2783,65.0,0,15,5.0,0.0
2784,62.0,12,15,6.0,0.0
2785,64.0,0,15,5.0,0.0
2786,60.0,12,15,6.0,0.0
2787,65.0,0,15,5.0,0.0
2788,62.0,2,15,6.0,0.0
2789,70.0,0,40,0.0,0.0
2790,62.0,0,40,1.0,0.0
2791,55.0,10,40,2.0,0.0
2792,70.0,0,15,5.0,0.0
2793,53.0,12,15,6.0,0.0
2794,65.0,0,15,5.0,0.0
2795,62.0,12,15,6.0,0.0
2796,53.0,0,20,3.0,0.0
2797,41.0,1,20,4.0,0.0
2798,64.0,0,15,5.0,0.0
2799,60.0,11,15,6.0,0.0
2800,65.0,0,15,5.0,0.0
2801,62.0,2,15,6.0,0.0
2802,72.0,0,40,0.0,0.0
2803,60.0,0,40,1.0,0.0
2804,57.0,10,40,2.0,0.0
2805,41.0,0,20,3.0,0.0
2806,29.0,1,20,4.0,0.0
2807,72.0,0,15,5.0,0.0
2808,63.0,11,15,6.0,0.0
2809,65.0,0,15,5.0,0.0
2810,62.0,12,15,6.0,0.0
2811,53.0,0,20,3.0,0.0
2812,41.0,1,20,4.0,0.0
2813,64.0,0,15,5.0,0.0
2814,60.0,11,15,6.0,0.0
2815,65.0,0,15,5.0,0.0
2816,62.0,2,15,6.0,0.0
2817,74.0,0,40,0.0,0.0
2818,58.0,0,40,1.0,0.0
2819,58.0,10,120,2.0,0.0
2820,46.0,0,40,3.0,0.0
2821,34.0,4,40,4.0,0.0
2822,74.0,0,15,5.0,0.0
2823,58.0,12,15,6.0,0.0
2824,70.0,0,15,5.0,0.0
2825,62.0,12,15,6.0,0.0
2826,69.0,0,15,5.0,0.0
2827,60.0,8,15,6.0,0.0
2828,70.0,0,15,5.0,0.0
2829,58.0,12,15,6.0,0.0
2830,74.0,0,40,0.0,0.0
2831,65.0,0,40,1.0,0.0
2832,56.0,0,40,3.0,0.0
2833,44.0,10,40,4.0,0.0
2834,74.0,0,15,5.0,0.0
2835,56.0,12,15,6.0,0.0
2836,70.0,0,15,5.0,0.0
2837,55.0,12,15,6.0,0.0
2838,69.0,0,15,5.0,0.0
2839,53.0,12,15,6.0,0.0
2840,70.0,0,15,5.0,0.0
2841,55.0,2,15,6.0,0.0
2842,75.0,0,40,0.0,0.0
2843,70.0,0,40,1.0,0.0
2844,55.0,0,40,3.0,0.0
2845,43.0,10,40,4.0,0.0
2846,75.0,0,15,5.0,0.0
2847,46.0,12,15,6.0,0.0
2848,70.0,0,15,5.0,0.0
2849,55.0,12,15,6.0,0.0
2850,69.0,0,15,5.0,0.0
2851,53.0,2,15,6.0,0.0
2852,70.0,0,15,5.0,0.0
2853,55.0,2,15,6.0,0.0
2854,77.0,0,40,0.0,0.0
2855,74.0,0,40,1.0,0.0
2856,56.0,4,40,2.0,0.0
2857,53.0,0,40,3.0,0.0
2858,41.0,10,40,4.0,0.0
2859,77.0,0,15,5.0,0.0
2860,56.0,12,15,6.0,0.0
2861,70.0,0,15,5.0,0.0
2862,55.0,12,15,6.0,0.0
2863,69.0,0,15,5.0,0.0
2864,53.0,8,15,6.0,0.0
2865,70.0,0,15,5.0,0.0
2866,55.0,2,15,6.0,0.0
2867,79.0,0,40,0.0,0.0
2868,75.0,0,40,1.0,0.0
2869,58.0,3,40,2.0,0.0
2870,51.0,0,20,3.0,0.0
2871,39.0,1,20,4.0,0.0
2872,79.0,0,15,5.0,0.0
2873,51.0,11,15,6.0,0.0
2874,80.0,0,15,5.0,0.0
2875,50.0,12,15,6.0,0.0
2876,50.0,0,20,3.0,0.0
2877,38.0,1,20,4.0,0.0
2878,79.0,0,15,5.0,0.0
2879,51.0,8,15,6.0,0.0
2880,77.0,0,15,5.0,0.0
2881,53.0,12,15,6.0,0.0
2882,48.0,0,20,3.0,0.0
2883,36.0,0,20,4.0,0.0
2884,75.0,11,15,5.0,0.0
2885,55.0,1,20,6.0,0.0
2886,74.0,12,15,5.0,0.0
2887,51.0,0,20,3.0,0.0
2888,39.0,0,20,4.0,0.0
2889,72.0,11,15,5.0,0.0
2890,51.0,1,20,6.0,0.0
2891,70.0,12,15,5.0,0.0
2892,53.0,0,20,3.0,0.0
2893,41.0,1,20,4.0,0.0
2894,68.0,0,15,5.0,0.0
2895,53.0,11,15,6.0,0.0
2896,67.0,0,15,5.0,0.0
2897,51.0,12,15,6.0,0.0
2898,51.0,0,20,3.0,0.0
2899,39.0,1,20,4.0,0.0
2900,68.0,0,15,5.0,0.0
2901,53.0,11,15,6.0,0.0
2902,79.0,0,15,5.0,0.0
2903,55.0,12,15,6.0,0.0
2904,50.0,0,20,3.0,0.0
2905,38.0,0,20,4.0,0.0
2906,77.0,11,15,5.0,0.0
2907,56.0,1,20,6.0,0.0
2908,75.0,12,15,5.0,0.0
2909,53.0,0,20,3.0,0.0
2910,41.0,0,20,4.0,0.0
2911,74.0,11,15,5.0,0.0
2912,53.0,1,20,6.0,0.0
2913,72.0,12,15,5.0,0.0
2914,55.0,0,20,3.0,0.0
2915,43.0,1,20,4.0,0.0
2916,71.0,0,15,5.0,0.0
2917,55.0,11,15,6.0,0.0
2918,72.0,0,15,5.0,0.0
2919,53.0,12,15,6.0,0.0
2920,57.0,0,20,3.0,0.0
2921,45.0,1,20,4.0,0.0
2922,71.0,0,15,5.0,0.0
2923,55.0,11,15,6.0,0.0
2924,69.0,0,15,5.0,0.0
2925,57.0,12,15,6.0,0.0
2926,59.0,0,20,3.0,0.0
2927,47.0,0,20,4.0,0.0
2928,67.0,11,15,5.0,0.0
2929,59.0,1,20,6.0,0.0
2930,65.0,12,15,5.0,0.0
2931,67.0,0,20,0.0,0.0
2932,55.0,0,20,3.0,0.0
2933,43.0,1,20,4.0,0.0
2934,63.0,11,15,5.0,0.0
2935,55.0,3,30,6.0,0.0
2936,62.0,9,15,5.0,0.0
2937,72.0,3,40,0.0,0.0
2938,51.0,0,20,3.0,0.0
2939,39.0,1,20,4.0,0.0
2940,63.0,11,15,5.0,0.0
2941,67.0,0,15,5.0,0.0
2942,60.0,12,15,6.0,0.0
2943,67.0,0,20,1.0,0.0
2944,63.0,0,20,2.0,0.0
2945,55.0,0,20,3.0,0.0
2946,43.0,1,20,4.0,0.0
2947,72.0,0,15,5.0,0.0
2948,55.0,8,15,6.0,0.0
2949,75.0,0,15,5.0,0.0
2950,51.0,12,15,6.0,0.0
2951,72.0,0,40,1.0,0.0
2952,60.0,3,40,2.0,0.0
2953,51.0,0,20,3.0,0.0
2954,39.0,1,20,4.0,0.0
2955,79.0,6,60,5.0,0.0
2956,48.0,11,15,6.0,0.0
2957,50.0,12,15,6.0,0.0
2958,67.0,0,20,0.0,0.0
2959,48.0,0,20,3.0,0.0
2960,36.0,1,20,4.0,0.0
2961,51.0,8,15,6.0,0.0
2962,48.0,6,15,6.0,0.0
2963,68.0,3,40,0.0,0.0
2964,53.0,0,20,3.0,0.0
2965,41.0,1,20,4.0,0.0
2966,53.0,11,15,6.0,0.0
2967,77.0,0,15,5.0,0.0
2968,55.0,12,15,6.0,0.0
2969,72.0,0,20,1.0,0.0
2970,60.0,0,20,2.0,0.0
2971,56.0,0,20,3.0,0.0
2972,44.0,1,20,4.0,0.0
2973,75.0,8,15,5.0,0.0
2974,56.0,3,30,6.0,0.0
2975,79.0,9,15,5.0,0.0
2976,80.0,0,20,1.0,0.0
2977,62.0,0,20,2.0,0.0
2978,53.0,0,20,3.0,0.0
2979,41.0,1,20,4.0,0.0
2980,77.0,11,15,5.0,0.0
2981,75.0,0,15,5.0,0.0
2982,55.0,12,15,6.0,0.0
2983,65.0,0,20,0.0,0.0
2984,71.0,0,20,1.0,0.0
2985,68.0,0,20,2.0,0.0
2986,48.0,0,20,3.0,0.0
2987,36.0,1,20,4.0,0.0
2988,74.0,0,15,5.0,0.0
2989,56.0,11,15,6.0,0.0
2990,77.0,0,15,5.0,0.0
2991,53.0,12,15,6.0,0.0
2992,67.0,0,15,0.0,0.0
2993,72.0,0,20,1.0,0.0
2994,67.0,0,20,2.0,0.0
2995,60.0,0,20,3.0,0.0
2996,48.0,0,20,4.0,0.0
2997,75.0,11,15,5.0,0.0
2998,60.0,1,20,6.0,0.0
2999,65.0,0,15,0.0,0.0
3000,74.0,12,15,5.0,0.0
3001,63.0,0,15,0.0,0.0
3002,67.0,0,20,1.0,0.0
3003,60.0,0,20,2.0,0.0
3004,48.0,0,20,3.0,0.0
3005,36.0,0,20,4.0,0.0
3006,72.0,11,15,5.0,0.0
3007,48.0,1,20,6.0,0.0
3008,67.0,0,15,0.0,0.0
3009,75.0,12,15,5.0,0.0
3010,65.0,0,15,0.0,0.0
3011,67.0,0,20,1.0,0.0
3012,62.0,0,20,2.0,0.0
3013,55.0,0,20,3.0,0.0
3014,43.0,0,20,4.0,0.0
3015,74.0,11,15,5.0,0.0
3016,55.0,1,20,6.0,0.0
3017,63.0,0,15,0.0,0.0
3018,72.0,12,15,5.0,0.0
3019,62.0,0,15,0.0,0.0
3020,67.0,0,20,1.0,0.0
3021,62.0,0,20,2.0,0.0
3022,43.0,0,20,3.0,0.0
3023,31.0,0,20,4.0,0.0
3024,71.0,11,15,5.0,0.0
3025,43.0,1,20,6.0,0.0
3026,65.0,0,15,0.0,0.0
3027,74.0,12,15,5.0,0.0
3028,63.0,0,20,0.0,0.0
3029,67.0,0,40,1.0,0.0
3030,63.0,0,40,2.0,0.0
3031,48.0,0,20,3.0,0.0
3032,36.0,1,20,4.0,0.0
3033,72.0,3,40,5.0,0.0
3034,48.0,11,15,6.0,0.0
3035,60.0,12,15,6.0,0.0
3036,60.0,0,20,0.0,0.0
3037,36.0,0,20,3.0,0.0
3038,24.0,1,20,4.0,0.0
3039,55.0,8,15,6.0,0.0
3040,51.0,24,15,6.0,0.0
3041,72.0,9,240,0.0,0.0
3042,48.0,3,40,6.0,0.0
3043,72.0,12,15,5.0,0.0
3044,63.0,0,20,1.0,0.0
3045,63.0,1,20,2.0,0.0
3046,71.0,8,15,5.0,0.0
3047,72.0,12,15,5.0,0.0
3048,65.0,0,20,1.0,0.0
3049,65.0,10,20,2.0,0.0
3050,74.0,12,15,5.0,0.0
3051,84.0,0,15,5.0,0.0
3052,65.0,2,15,6.0,0.0
3053,65.0,0,20,1.0,0.0
3054,65.0,10,20,2.0,0.0
3055,72.0,0,15,5.0,0.0
3056,64.0,12,15,6.0,0.0
3057,74.0,0,15,5.0,0.0
3058,65.0,2,15,6.0,0.0
3059,67.0,0,20,1.0,0.0
3060,67.0,10,20,2.0,0.0
3061,76.0,0,15,5.0,0.0
3062,67.0,12,15,6.0,0.0
3063,84.0,0,15,5.0,0.0
3064,68.0,2,15,6.0,0.0
3065,67.0,0,20,1.0,0.0
3066,67.0,1,20,2.0,0.0
3067,74.0,0,15,5.0,0.0
3068,65.0,11,15,6.0,0.0
3069,76.0,0,15,5.0,0.0
3070,67.0,12,15,6.0,0.0
3071,68.0,0,20,1.0,0.0
3072,68.0,1,20,2.0,0.0
3073,77.0,0,15,5.0,0.0
3074,68.0,11,15,6.0,0.0
3075,84.0,0,15,5.0,0.0
3076,70.0,12,15,6.0,0.0
3077,68.0,0,20,1.0,0.0
3078,68.0,1,20,2.0,0.0
3079,76.0,0,15,5.0,0.0
3080,67.0,11,15,6.0,0.0
3081,77.0,0,15,5.0,0.0
3082,68.0,12,15,6.0,0.0
3083,64.0,0,20,1.0,0.0
3084,64.0,1,20,2.0,0.0
3085,79.0,0,15,5.0,0.0
3086,70.0,11,15,6.0,0.0
3087,84.0,0,15,5.0,0.0
3088,67.0,12,15,6.0,0.0
3089,64.0,0,20,1.0,0.0
3090,64.0,0,20,2.0,0.0
3091,77.0,11,15,5.0,0.0
3092,72.0,1,20,6.0,0.0
3093,79.0,12,15,5.0,0.0
3094,65.0,0,20,1.0,0.0
3095,65.0,1,20,2.0,0.0
3096,80.0,21,90,5.0,0.0
3097,65.0,2,15,6.0,0.0
3098,67.0,12,15,6.0,0.0
3099,72.0,0,20,0.0,0.0
3100,68.0,0,20,1.0,0.0
3101,60.0,1,20,2.0,0.0
3102,53.0,0,15,3.0,0.0
3103,41.0,0,15,4.0,0.0
3104,68.0,11,15,6.0,0.0
3105,55.0,0,15,3.0,0.0
3106,43.0,0,15,4.0,0.0
3107,67.0,12,15,6.0,0.0
3108,68.0,0,20,0.0,0.0
3109,72.0,0,20,1.0,0.0
3110,65.0,1,20,2.0,0.0
3111,53.0,0,15,3.0,0.0
3112,41.0,0,15,4.0,0.0
3113,65.0,11,15,6.0,0.0
3114,51.0,0,15,3.0,0.0
3115,39.0,0,15,4.0,0.0
3116,63.0,12,15,6.0,0.0
3117,65.0,0,20,0.0,0.0
3118,77.0,0,20,1.0,0.0
3119,68.0,1,20,2.0,0.0
3120,50.0,0,15,3.0,0.0
3121,38.0,0,15,4.0,0.0
3122,62.0,11,15,6.0,0.0
3123,48.0,0,15,3.0,0.0
3124,36.0,0,15,4.0,0.0
3125,60.0,2,15,6.0,0.0
3126,70.0,9,210,0.0,0.0
3127,74.0,10,20,1.0,0.0
3128,70.0,0,20,2.0,0.0
3129,46.0,0,20,3.0,0.0
3130,34.0,0,20,4.0,0.0
3131,58.0,1,20,6.0,0.0
3132,82.0,2,15,5.0,0.0
3133,70.0,10,20,1.0,0.0
3134,65.0,0,20,2.0,0.0
3135,58.0,0,20,3.0,0.0
3136,46.0,0,20,4.0,0.0
3137,80.0,11,15,5.0,0.0
3138,62.0,1,20,6.0,0.0
3139,79.0,2,15,5.0,0.0
3140,65.0,0,20,1.0,0.0
3141,65.0,0,20,2.0,0.0
3142,80.0,11,15,5.0,0.0
3143,65.0,1,20,6.0,0.0
3144,77.0,12,15,5.0,0.0
3145,65.0,0,20,1.0,0.0
3146,65.0,0,20,2.0,0.0
3147,74.0,11,15,5.0,0.0
3148,68.0,1,20,6.0,0.0
3149,70.0,12,15,5.0,0.0
3150,67.0,0,20,1.0,0.0
3151,67.0,1,20,2.0,0.0
3152,75.0,0,15,5.0,0.0
3153,67.0,11,15,6.0,0.0
3154,82.0,0,15,5.0,0.0
3155,68.0,12,15,6.0,0.0
3156,67.0,0,20,1.0,0.0
3157,67.0,1,20,2.0,0.0
3158,74.0,0,15,5.0,0.0
3159,65.0,11,15,6.0,0.0
3160,75.0,0,15,5.0,0.0
3161,67.0,12,15,6.0,0.0
3162,62.0,0,20,1.0,0.0
3163,62.0,1,20,2.0,0.0
3164,77.0,0,15,5.0,0.0
3165,68.0,11,15,6.0,0.0
3166,82.0,0,15,5.0,0.0
3167,65.0,12,15,6.0,0.0
3168,62.0,0,20,1.0,0.0
3169,62.0,0,20,2.0,0.0
3170,75.0,11,15,5.0,0.0
3171,70.0,1,20,6.0,0.0
3172,77.0,12,15,5.0,0.0
3173,63.0,0,20,1.0,0.0
3174,63.0,1,20,2.0,0.0
3175,79.0,21,90,5.0,0.0
3176,63.0,2,15,6.0,0.0
3177,65.0,12,15,6.0,0.0
3178,70.0,0,20,0.0,0.0
3179,67.0,0,20,1.0,0.0
3180,58.0,1,20,2.0,0.0
3181,51.0,0,15,3.0,0.0
3182,39.0,0,15,4.0,0.0
3183,67.0,11,15,6.0,0.0
3184,53.0,0,15,3.0,0.0
3185,41.0,0,15,4.0,0.0
3186,65.0,12,15,6.0,0.0
3187,67.0,0,20,0.0,0.0
3188,70.0,0,20,1.0,0.0
3189,63.0,1,20,2.0,0.0
3190,51.0,0,15,3.0,0.0
3191,39.0,0,15,4.0,0.0
3192,63.0,11,15,6.0,0.0
3193,50.0,0,15,3.0,0.0
3194,38.0,0,15,4.0,0.0
3195,62.0,12,15,6.0,0.0
3196,63.0,0,20,0.0,0.0
3197,75.0,0,20,1.0,0.0
3198,67.0,1,20,2.0,0.0
3199,48.0,0,15,3.0,0.0
3200,36.0,0,15,4.0,0.0
3201,60.0,11,15,6.0,0.0
3202,46.0,0,15,3.0,0.0
3203,34.0,0,15,4.0,0.0
3204,58.0,2,15,6.0,0.0
3205,68.0,0,20,0.0,0.0
3206,72.0,0,20,1.0,0.0
3207,68.0,10,20,2.0,0.0
3208,44.0,0,20,3.0,0.0
3209,32.0,0,20,4.0,0.0
3210,56.0,1,20,6.0,0.0
3211,72.0,2,15,5.0,0.0
3212,72.0,0,20,0.0,0.0
3213,68.0,0,20,1.0,0.0
3214,68.0,10,20,2.0,0.0
3215,56.0,0,20,3.0,0.0
3216,44.0,0,20,4.0,0.0
3217,74.0,11,15,5.0,0.0
3218,68.0,1,20,6.0,0.0
3219,76.0,2,15,5.0,0.0
3220,72.0,0,20,0.0,0.0
3221,68.0,0,20,1.0,0.0
3222,68.0,10,20,2.0,0.0
3223,77.0,12,15,5.0,0.0
3224,79.0,2,15,5.0,0.0
3225,72.0,0,20,0.0,0.0
3226,68.0,0,20,1.0,0.0
3227,68.0,1,20,2.0,0.0
3228,80.0,11,15,5.0,0.0
3229,82.0,12,15,5.0,0.0
3230,72.0,0,20,0.0,0.0
3231,68.0,0,20,1.0,0.0
3232,68.0,10,20,2.0,0.0
3233,84.0,12,15,5.0,0.0
3234,82.0,0,15,5.0,0.0
3235,60.0,2,15,6.0,0.0
3236,72.0,0,20,0.0,0.0
3237,68.0,0,20,1.0,0.0
3238,68.0,10,20,2.0,0.0
3239,80.0,0,15,5.0,0.0
3240,62.0,12,15,6.0,0.0
3241,79.0,0,15,5.0,0.0
3242,64.0,2,15,6.0,0.0
3243,72.0,0,20,0.0,0.0
3244,68.0,0,20,1.0,0.0
3245,68.0,10,20,2.0,0.0
3246,77.0,0,15,5.0,0.0
3247,65.0,12,15,6.0,0.0
3248,76.0,0,15,5.0,0.0
3249,67.0,2,15,6.0,0.0
3250,72.0,0,20,0.0,0.0
3251,68.0,0,20,1.0,0.0
3252,68.0,1,20,2.0,0.0
3253,74.0,0,15,5.0,0.0
3254,68.0,11,15,6.0,0.0
3255,72.0,0,15,5.0,0.0
3256,70.0,12,15,6.0,0.0
3257,72.0,0,20,0.0,0.0
3258,68.0,0,20,1.0,0.0
3259,68.0,1,20,2.0,0.0
3260,77.0,21,90,5.0,0.0
3261,68.0,11,15,6.0,0.0
3262,67.0,12,15,6.0,0.0
3263,77.0,0,15,0.0,0.0
3264,68.0,0,20,1.0,0.0
3265,65.0,1,20,2.0,0.0
3266,50.0,0,15,3.0,0.0
3267,38.0,0,15,4.0,0.0
3268,65.0,11,15,6.0,0.0
3269,79.0,0,15,0.0,0.0
3270,51.0,0,15,3.0,0.0
3271,39.0,0,15,4.0,0.0
3272,63.0,12,15,6.0,0.0
3273,77.0,0,15,0.0,0.0
3274,62.0,0,20,1.0,0.0
3275,68.0,1,20,2.0,0.0
3276,50.0,0,15,3.0,0.0
3277,38.0,0,15,4.0,0.0
3278,62.0,11,15,6.0,0.0
3279,75.0,0,15,0.0,0.0
3280,48.0,0,15,3.0,0.0
3281,36.0,0,15,4.0,0.0
3282,60.0,12,15,6.0,0.0
3283,74.0,0,15,0.0,0.0
3284,65.0,0,20,1.0,0.0
3285,62.0,1,20,2.0,0.0
3286,47.0,0,15,3.0,0.0
3287,35.0,0,15,4.0,0.0
3288,59.0,11,15,6.0,0.0
3289,72.0,0,15,0.0,0.0
3290,45.0,0,15,3.0,0.0
3291,33.0,0,15,4.0,0.0
3292,57.0,2,15,6.0,0.0
3293,71.0,0,20,0.0,0.0
3294,67.0,0,20,1.0,0.0
3295,62.0,0,20,2.0,0.0
3296,43.0,0,20,3.0,0.0
3297,31.0,0,20,4.0,0.0
3298,55.0,1,20,6.0,0.0
3299,74.0,12,15,5.0,0.0
3300,71.0,0,20,0.0,0.0
3301,67.0,0,20,1.0,0.0
3302,67.0,10,20,2.0,0.0
3303,55.0,0,20,3.0,0.0
3304,43.0,0,20,4.0,0.0
3305,75.0,11,15,5.0,0.0
3306,67.0,1,20,6.0,0.0
3307,77.0,2,15,5.0,0.0
3308,71.0,0,20,0.0,0.0
3309,67.0,0,20,1.0,0.0
3310,67.0,10,20,2.0,0.0
3311,79.0,12,15,5.0,0.0
3312,81.0,2,15,5.0,0.0
3313,71.0,0,20,0.0,0.0
3314,67.0,0,20,1.0,0.0
3315,67.0,1,20,2.0,0.0
3316,83.0,11,15,5.0,0.0
3317,84.0,12,15,5.0,0.0
3318,71.0,0,20,0.0,0.0
3319,67.0,0,20,1.0,0.0
3320,67.0,10,20,2.0,0.0
3321,86.0,12,15,5.0,0.0
3322,84.0,0,15,5.0,0.0
3323,62.0,2,15,6.0,0.0
3324,71.0,0,20,0.0,0.0
3325,67.0,0,20,1.0,0.0
3326,67.0,10,20,2.0,0.0
3327,83.0,0,15,5.0,0.0
3328,63.0,12,15,6.0,0.0
3329,81.0,0,15,5.0,0.0
3330,65.0,2,15,6.0,0.0
3331,71.0,0,20,0.0,0.0
3332,67.0,0,20,1.0,0.0
3333,67.0,10,20,2.0,0.0
3334,79.0,0,15,5.0,0.0
3335,67.0,12,15,6.0,0.0
3336,77.0,0,15,5.0,0.0
3337,69.0,2,15,6.0,0.0
3338,71.0,0,20,0.0,0.0
3339,67.0,0,20,1.0,0.0
3340,67.0,1,20,2.0,0.0
3341,75.0,0,15,5.0,0.0
3342,71.0,11,15,6.0,0.0
3343,74.0,0,15,5.0,0.0
3344,67.0,12,15,6.0,0.0
3345,72.0,0,20,0.0,0.0
3346,67.0,0,40,1.0,0.0
3347,60.0,3,40,2.0,0.0
3348,75.0,11,15,5.0,0.0
3349,72.0,1,20,6.0,0.0
3350,84.0,12,15,5.0,0.0
3351,67.0,0,20,0.0,0.0
3352,48.0,0,20,3.0,0.0
3353,36.0,0,20,4.0,0.0
3354,75.0,8,15,5.0,0.0
3355,60.0,1,20,6.0,0.0
3356,74.0,12,15,5.0,0.0
3357,75.0,6,60,0.0,0.0
3358,60.0,0,20,3.0,0.0
3359,48.0,1,20,4.0,0.0
3360,75.0,11,15,5.0,0.0
3361,79.0,12,15,5.0,0.0
3362,72.0,0,20,1.0,0.0
3363,67.0,0,20,2.0,0.0
3364,51.0,0,20,3.0,0.0
3365,39.0,0,20,4.0,0.0
3366,84.0,11,15,5.0,0.0
3367,52.0,0,20,6.0,0.0
3368,60.0,0,20,6.0,0.0
3369,55.0,1,20,6.0,0.0
3370,82.0,12,15,5.0,0.0
3371,72.0,0,40,1.0,0.0
3372,65.0,0,40,2.0,0.0
3373,53.0,0,20,3.0,0.0
3374,41.0,1,20,4.0,0.0
3375,81.0,5,15,5.0,0.0
3376,53.0,0,40,6.0,0.0
3377,60.0,3,40,6.0,0.0
3378,75.0,12,15,5.0,0.0
3379,77.0,0,15,0.0,0.0
3380,55.0,0,20,3.0,0.0
3381,43.0,1,20,4.0,0.0
3382,82.0,8,15,5.0,0.0
3383,79.0,0,15,0.0,0.0
3384,75.0,12,15,5.0,0.0
3385,77.0,0,20,0.0,0.0
3386,57.0,0,20,3.0,0.0
3387,45.0,1,20,4.0,0.0
3388,84.0,11,15,5.0,0.0
3389,75.0,12,15,5.0,0.0
3390,75.0,0,20,0.0,0.0
3391,53.0,0,20,3.0,0.0
3392,41.0,0,20,4.0,0.0
3393,81.0,11,15,5.0,0.0
3394,53.0,0,20,6.0,0.0
3395,60.0,1,20,6.0,0.0
3396,75.0,12,15,5.0,0.0
3397,74.0,0,20,0.0,0.0
3398,58.0,0,20,3.0,0.0
3399,46.0,1,20,4.0,0.0
3400,74.0,11,15,5.0,0.0
3401,58.0,3,40,6.0,0.0
3402,82.0,12,15,5.0,0.0
3403,65.0,0,20,0.0,0.0
3404,46.0,0,20,3.0,0.0
3405,34.0,0,20,4.0,0.0
3406,74.0,8,15,5.0,0.0
3407,46.0,1,20,6.0,0.0
3408,72.0,12,15,5.0,0.0
3409,74.0,6,60,0.0,0.0
3410,58.0,0,20,3.0,0.0
3411,46.0,1,20,4.0,0.0
3412,74.0,11,15,5.0,0.0
3413,77.0,12,15,5.0,0.0
3414,70.0,0,20,1.0,0.0
3415,65.0,0,20,2.0,0.0
3416,50.0,0,20,3.0,0.0
3417,38.0,0,20,4.0,0.0
3418,82.0,11,15,5.0,0.0
3419,50.0,0,20,6.0,0.0
3420,58.0,0,20,6.0,0.0
3421,53.0,1,20,6.0,0.0
3422,81.0,12,15,5.0,0.0
3423,70.0,0,40,1.0,0.0
3424,63.0,0,40,2.0,0.0
3425,51.0,0,20,3.0,0.0
3426,39.0,1,20,4.0,0.0
3427,79.0,5,15,5.0,0.0
3428,51.0,0,40,6.0,0.0
3429,58.0,3,40,6.0,0.0
3430,74.0,12,15,5.0,0.0
3431,75.0,0,15,0.0,0.0
3432,53.0,0,20,3.0,0.0
3433,41.0,1,20,4.0,0.0
3434,81.0,8,15,5.0,0.0
3435,77.0,0,15,0.0,0.0
3436,74.0,12,15,5.0,0.0
3437,75.0,0,20,0.0,0.0
3438,55.0,0,20,3.0,0.0
3439,43.0,1,20,4.0,0.0
3440,82.0,11,15,5.0,0.0
3441,74.0,12,15,5.0,0.0
3442,74.0,0,20,0.0,0.0
3443,51.0,0,20,3.0,0.0
3444,39.0,0,20,4.0,0.0
3445,79.0,11,15,5.0,0.0
3446,51.0,0,20,6.0,0.0
3447,58.0,1,20,6.0,0.0
3448,74.0,12,15,5.0,0.0
3449,72.0,0,20,0.0,0.0
3450,57.0,0,20,3.0,0.0
3451,45.0,0,20,4.0,0.0
3452,72.0,11,15,5.0,0.0
3453,57.0,1,20,6.0,0.0
3454,81.0,12,15,5.0,0.0
3455,66.0,0,20,0.0,0.0
3456,45.0,0,20,3.0,0.0
3457,33.0,0,20,4.0,0.0
3458,72.0,11,15,5.0,0.0
3459,45.0,1,20,6.0,0.0
3460,70.0,12,15,5.0,0.0
3461,72.0,6,60,0.0,0.0
3462,57.0,0,20,3.0,0.0
3463,45.0,1,20,4.0,0.0
3464,72.0,11,15,5.0,0.0
3465,75.0,12,15,5.0,0.0
3466,69.0,0,20,1.0,0.0
3467,63.0,0,20,2.0,0.0
3468,54.0,0,20,3.0,0.0
3469,42.0,0,20,4.0,0.0
3470,81.0,11,15,5.0,0.0
3471,51.0,0,20,6.0,0.0
3472,48.0,0,20,6.0,0.0
3473,57.0,1,20,6.0,0.0
3474,79.0,12,15,5.0,0.0
3475,69.0,0,20,1.0,0.0
3476,62.0,0,20,2.0,0.0
3477,50.0,0,20,3.0,0.0
3478,38.0,1,20,4.0,0.0
3479,78.0,5,15,5.0,0.0
3480,50.0,0,40,6.0,0.0
3481,57.0,3,40,6.0,0.0
3482,72.0,12,15,5.0,0.0
3483,70.0,0,20,0.0,0.0
3484,67.0,0,20,1.0,0.0
3485,64.0,0,20,2.0,0.0
3486,38.0,0,20,3.0,0.0
3487,26.0,1,20,4.0,0.0
3488,79.0,8,15,5.0,0.0
3489,72.0,12,15,5.0,0.0
3490,69.0,0,20,0.0,0.0
3491,66.0,0,20,1.0,0.0
3492,66.0,1,20,2.0,0.0
3493,81.0,11,15,5.0,0.0
3494,72.0,0,15,5.0,0.0
3495,60.0,12,15,6.0,0.0
3496,74.0,0,20,0.0,0.0
3497,69.0,0,20,1.0,0.0
3498,62.0,1,20,2.0,0.0
3499,78.0,0,15,5.0,0.0
3500,58.0,11,15,6.0,0.0
3501,72.0,0,15,5.0,0.0
3502,57.0,12,15,6.0,0.0
3503,79.0,0,40,0.0,0.0
3504,74.0,0,40,1.0,0.0
3505,70.0,3,40,2.0,0.0
3506,70.0,0,15,5.0,0.0
3507,55.0,12,15,6.0,0.0
3508,79.0,0,15,5.0,0.0
3509,43.0,12,15,6.0,0.0
3510,43.0,0,20,3.0,0.0
3511,31.0,1,20,4.0,0.0
3512,70.0,0,15,5.0,0.0
3513,55.0,8,15,6.0,0.0
3514,69.0,0,15,5.0,0.0
3515,54.0,12,15,6.0,0.0
3516,55.0,0,40,3.0,0.0
3517,43.0,3,40,4.0,0.0
3518,70.0,0,15,5.0,0.0
3519,55.0,12,15,6.0,0.0
3520,74.0,0,15,5.0,0.0
3521,57.0,12,15,6.0,0.0
3522,74.0,0,20,0.0,0.0
3523,70.0,0,20,1.0,0.0
3524,67.0,1,20,2.0,0.0
3525,79.0,0,15,5.0,0.0
3526,58.0,8,15,6.0,0.0
3527,74.0,0,15,5.0,0.0
3528,55.0,12,15,6.0,0.0
3529,75.0,0,40,0.0,0.0
3530,72.0,0,40,1.0,0.0
3531,60.0,3,40,2.0,0.0
3532,75.0,0,15,5.0,0.0
3533,60.0,12,15,6.0,0.0
3534,79.0,0,15,5.0,0.0
3535,55.0,12,15,6.0,0.0
3536,43.0,0,20,3.0,0.0
3537,31.0,1,20,4.0,0.0
3538,72.0,0,15,5.0,0.0
3539,63.0,8,15,6.0,0.0
3540,70.0,0,15,5.0,0.0
3541,62.0,12,15,6.0,0.0
3542,55.0,0,40,3.0,0.0
3543,43.0,3,40,4.0,0.0
3544,72.0,0,15,5.0,0.0
3545,63.0,12,15,6.0,0.0
3546,75.0,0,15,5.0,0.0
3547,67.0,12,15,6.0,0.0
3548,72.0,0,20,0.0,0.0
3549,69.0,0,20,1.0,0.0
3550,60.0,1,20,2.0,0.0
3551,79.0,0,15,5.0,0.0
3552,63.0,8,15,6.0,0.0
3553,72.0,0,15,5.0,0.0
3554,75.0,0,15,5.0,0.0
3555,60.0,12,15,6.0,0.0
3556,74.0,2,15,0.0,0.0
3557,70.0,9,15,1.0,0.0
3558,55.0,0,20,2.0,0.0
3559,70.0,0,20,5.0,0.0
3560,74.0,0,20,5.0,0.0
3561,67.0,1,20,6.0,0.0
3562,72.0,2,15,0.0,0.0
3563,72.0,10,15,1.0,0.0
3564,70.0,0,15,0.0,0.0
3565,74.0,11,15,1.0,0.0
3566,62.0,0,20,2.0,0.0
3567,43.0,0,20,3.0,0.0
3568,31.0,0,20,4.0,0.0
3569,79.0,0,20,5.0,0.0
3570,55.0,1,20,6.0,0.0
3571,74.0,0,15,0.0,0.0
3572,70.0,12,15,1.0,0.0
3573,72.0,2,15,0.0,0.0
3574,69.0,9,15,1.0,0.0
3575,54.0,0,20,2.0,0.0
3576,50.0,0,20,3.0,0.0
3577,38.0,0,20,4.0,0.0
3578,69.0,0,20,5.0,0.0
3579,72.0,0,20,5.0,0.0
3580,62.0,1,20,6.0,0.0
3581,70.0,2,15,0.0,0.0
3582,70.0,10,15,1.0,0.0
3583,69.0,0,15,0.0,0.0
3584,72.0,11,15,1.0,0.0
3585,62.0,0,20,2.0,0.0
3586,38.0,0,20,3.0,0.0
3587,26.0,0,20,4.0,0.0
3588,78.0,0,20,5.0,0.0
3589,50.0,1,20,6.0,0.0
3590,72.0,0,15,0.0,0.0
3591,69.0,12,15,1.0,0.0
3592,70.0,0,20,0.0,0.0
3593,67.0,0,20,1.0,0.0
3594,62.0,0,20,2.0,0.0
3595,55.0,0,20,3.0,0.0
3596,43.0,1,20,4.0,0.0
3597,79.0,0,40,5.0,0.0
3598,74.0,0,40,5.0,0.0
3599,70.0,0,40,5.0,0.0
3600,67.0,3,40,5.0,0.0
3601,55.0,11,15,6.0,0.0
3602,54.0,12,15,6.0,0.0
3603,67.0,0,20,0.0,0.0
3604,62.0,0,20,1.0,0.0
3605,55.0,0,20,2.0,0.0
3606,43.0,0,20,3.0,0.0
3607,31.0,1,20,4.0,0.0
3608,55.0,8,15,6.0,0.0
3609,50.0,23,15,6.0,0.0
3610,46.0,0,20,3.0,0.0
3611,34.0,0,20,4.0,0.0
3612,46.0,1,20,6.0,0.0
3613,55.0,12,15,5.0,0.0
3614,50.0,0,20,3.0,0.0
3615,38.0,0,20,4.0,0.0
3616,54.0,11,15,5.0,0.0
3617,50.0,1,20,6.0,0.0
3618,55.0,12,15,5.0,0.0
3619,55.0,0,40,3.0,0.0
3620,43.0,10,40,4.0,0.0
3621,58.0,0,15,5.0,0.0
3622,43.0,12,15,6.0,0.0
3623,55.0,0,15,5.0,0.0
3624,46.0,12,15,6.0,0.0
3625,55.0,0,20,1.0,0.0
3626,55.0,0,20,2.0,0.0
3627,54.0,0,15,5.0,0.0
3628,50.0,12,15,6.0,0.0
3629,55.0,0,15,5.0,0.0
3630,46.0,2,15,6.0,0.0
3631,55.0,0,20,1.0,0.0
3632,55.0,10,20,2.0,0.0
3633,53.0,0,40,3.0,0.0
3634,41.0,3,40,4.0,0.0
3635,59.0,0,15,5.0,0.0
3636,41.0,12,15,6.0,0.0
3637,55.0,0,15,5.0,0.0
3638,47.0,2,15,6.0,0.0
3639,74.0,0,20,0.0,0.0
3640,55.0,0,20,1.0,0.0
3641,55.0,1,20,2.0,0.0
3642,54.0,0,15,5.0,0.0
3643,50.0,8,15,6.0,0.0
3644,55.0,0,15,5.0,0.0
3645,47.0,12,15,6.0,0.0
3646,67.0,1,20,0.0,0.0
3647,55.0,0,20,1.0,0.0
3648,55.0,10,20,2.0,0.0
3649,51.0,0,40,3.0,0.0
3650,39.0,10,40,4.0,0.0
3651,60.0,0,15,5.0,0.0
3652,39.0,11,15,6.0,0.0
3653,55.0,0,15,5.0,0.0
3654,48.0,2,15,6.0,0.0
3655,72.0,1,20,0.0,0.0
3656,55.0,0,20,1.0,0.0
3657,55.0,0,20,2.0,0.0
3658,54.0,0,15,5.0,0.0
3659,51.0,11,15,6.0,0.0
3660,55.0,0,15,5.0,0.0
3661,48.0,2,15,6.0,0.0
3662,65.0,0,20,0.0,0.0
3663,55.0,0,20,1.0,0.0
3664,55.0,10,20,2.0,0.0
3665,50.0,0,40,3.0,0.0
3666,38.0,3,40,4.0,0.0
3667,62.0,11,15,5.0,0.0
3668,47.0,1,20,6.0,0.0
3669,55.0,2,15,5.0,0.0
3670,71.0,0,20,0.0,0.0
3671,55.0,0,20,1.0,0.0
3672,55.0,0,20,2.0,0.0
3673,54.0,8,15,5.0,0.0
3674,43.0,1,20,6.0,0.0
3675,55.0,12,15,5.0,0.0
3676,72.0,0,15,0.0,0.0
3677,55.0,0,20,1.0,0.0
3678,55.0,10,20,2.0,0.0
3679,48.0,0,40,3.0,0.0
3680,36.0,10,40,4.0,0.0
3681,63.0,0,15,5.0,0.0
3682,48.0,12,15,6.0,0.0
3683,63.0,0,15,0.0,0.0
3684,60.0,0,15,5.0,0.0
3685,51.0,2,15,6.0,0.0
3686,62.0,10,15,0.0,0.0
3687,55.0,0,20,1.0,0.0
3688,55.0,0,20,2.0,0.0
3689,71.0,0,15,5.0,0.0
3690,55.0,2,15,6.0,0.0
3691,63.0,0,15,0.0,0.0
3692,72.0,0,15,5.0,0.0
3693,51.0,2,15,6.0,0.0
3694,60.0,7,60,0.0,0.0
3695,55.0,0,20,1.0,0.0
3696,55.0,10,20,2.0,0.0
3697,46.0,0,40,3.0,0.0
3698,34.0,3,40,4.0,0.0
3699,64.0,0,15,5.0,0.0
3700,46.0,12,15,6.0,0.0
3701,60.0,0,15,5.0,0.0
3702,52.0,2,15,6.0,0.0
3703,55.0,0,20,1.0,0.0
3704,55.0,1,20,2.0,0.0
3705,71.0,0,15,5.0,0.0
3706,55.0,8,15,6.0,0.0
3707,72.0,0,15,5.0,0.0
3708,52.0,12,15,6.0,0.0
3709,60.0,0,20,1.0,0.0
3710,60.0,10,20,2.0,0.0
3711,44.0,0,40,3.0,0.0
3712,32.0,10,40,4.0,0.0
3713,65.0,0,15,5.0,0.0
3714,44.0,5,15,6.0,0.0
3715,62.0,0,15,5.0,0.0
3716,53.0,2,15,6.0,0.0
3717,65.0,1,20,0.0,0.0
3718,60.0,0,20,1.0,0.0
3719,60.0,0,20,2.0,0.0
3720,71.0,0,15,5.0,0.0
3721,56.0,11,15,6.0,0.0
3722,72.0,0,15,5.0,0.0
3723,53.0,2,15,6.0,0.0
3724,58.0,0,20,0.0,0.0
3725,60.0,0,20,1.0,0.0
3726,60.0,10,20,2.0,0.0
3727,43.0,0,40,3.0,0.0
3728,31.0,3,40,4.0,0.0
3729,67.0,11,15,5.0,0.0
3730,52.0,1,20,6.0,0.0
3731,64.0,2,15,5.0,0.0
3732,64.0,0,20,0.0,0.0
3733,60.0,0,20,1.0,0.0
3734,60.0,0,20,2.0,0.0
3735,71.0,8,15,5.0,0.0
3736,48.0,1,20,6.0,0.0
3737,72.0,12,15,5.0,0.0
3738,65.0,0,15,0.0,0.0
3739,60.0,0,20,1.0,0.0
3740,60.0,10,20,2.0,0.0
3741,53.0,0,40,3.0,0.0
3742,41.0,10,40,4.0,0.0
3743,68.0,0,15,5.0,0.0
3744,53.0,12,15,6.0,0.0
3745,56.0,0,15,0.0,0.0
3746,77.0,0,15,5.0,0.0
3747,56.0,2,15,6.0,0.0
3748,55.0,10,15,0.0,0.0
3749,60.0,0,20,1.0,0.0
3750,60.0,0,20,2.0,0.0
3751,64.0,0,15,5.0,0.0
3752,60.0,2,15,6.0,0.0
3753,56.0,0,15,0.0,0.0
3754,65.0,0,15,5.0,0.0
3755,56.0,2,15,6.0,0.0
3756,65.0,7,60,0.0,0.0
3757,60.0,0,20,1.0,0.0
3758,60.0,10,20,2.0,0.0
3759,51.0,0,40,3.0,0.0
3760,39.0,3,40,4.0,0.0
3761,69.0,0,15,5.0,0.0
3762,51.0,12,15,6.0,0.0
3763,72.0,0,15,5.0,0.0
3764,57.0,2,15,6.0,0.0
3765,60.0,0,20,1.0,0.0
3766,60.0,1,20,2.0,0.0
3767,64.0,0,15,5.0,0.0
3768,60.0,8,15,6.0,0.0
3769,65.0,0,15,5.0,0.0
3770,57.0,12,15,6.0,0.0
3771,65.0,0,20,1.0,0.0
3772,65.0,10,20,2.0,0.0
3773,49.0,0,40,3.0,0.0
3774,37.0,10,40,4.0,0.0
3775,70.0,0,15,5.0,0.0
3776,49.0,5,15,6.0,0.0
3777,73.0,0,15,5.0,0.0
3778,58.0,2,15,6.0,0.0
3779,70.0,1,20,0.0,0.0
3780,65.0,0,20,1.0,0.0
3781,65.0,0,20,2.0,0.0
3782,64.0,0,15,5.0,0.0
3783,61.0,11,15,6.0,0.0
3784,65.0,0,15,5.0,0.0
3785,58.0,2,15,6.0,0.0
3786,63.0,0,20,0.0,0.0
3787,65.0,0,20,1.0,0.0
3788,65.0,10,20,2.0,0.0
3789,48.0,0,40,3.0,0.0
3790,36.0,3,40,4.0,0.0
3791,72.0,11,15,5.0,0.0
3792,57.0,1,20,6.0,0.0
3793,75.0,2,15,5.0,0.0
3794,69.0,0,20,0.0,0.0
3795,65.0,0,20,1.0,0.0
3796,65.0,0,20,2.0,0.0
3797,64.0,8,15,5.0,0.0
3798,53.0,1,20,6.0,0.0
3799,65.0,12,15,5.0,0.0
3800,70.0,0,40,0.0,0.0
3801,65.0,0,40,1.0,0.0
3802,65.0,4,40,2.0,0.0
3803,46.0,0,20,3.0,0.0
3804,34.0,10,20,4.0,0.0
3805,73.0,0,15,5.0,0.0
3806,58.0,12,15,6.0,0.0
3807,70.0,0,15,5.0,0.0
3808,61.0,2,15,6.0,0.0
3809,46.0,0,20,3.0,0.0
3810,34.0,10,20,4.0,0.0
3811,69.0,0,15,5.0,0.0
3812,65.0,8,15,6.0,0.0
3813,70.0,0,15,5.0,0.0
3814,61.0,2,15,6.0,0.0
3815,77.0,0,40,0.0,0.0
3816,71.0,0,40,1.0,0.0
3817,68.0,10,40,2.0,0.0
3818,46.0,0,20,3.0,0.0
3819,34.0,10,20,4.0,0.0
3820,74.0,0,15,5.0,0.0
3821,56.0,12,15,6.0,0.0
3822,82.0,0,15,5.0,0.0
3823,62.0,2,15,6.0,0.0
3824,46.0,0,20,3.0,0.0
3825,34.0,1,20,4.0,0.0
3826,83.0,0,15,5.0,0.0
3827,63.0,11,15,6.0,0.0
3828,74.0,0,15,5.0,0.0
3829,65.0,2,15,6.0,0.0
3830,75.0,0,40,0.0,0.0
3831,70.0,0,40,1.0,0.0
3832,66.0,0,40,2.0,0.0
3833,46.0,0,20,3.0,0.0
3834,34.0,10,20,4.0,0.0
3835,75.0,0,15,5.0,0.0
3836,54.0,12,15,6.0,0.0
3837,82.0,0,15,5.0,0.0
3838,66.0,2,15,6.0,0.0
3839,46.0,0,20,3.0,0.0
3840,34.0,10,20,4.0,0.0
3841,83.0,0,15,5.0,0.0
3842,65.0,12,15,6.0,0.0
3843,75.0,0,15,5.0,0.0
3844,63.0,2,15,6.0,0.0
3845,74.0,0,40,0.0,0.0
3846,68.0,0,40,1.0,0.0
3847,65.0,3,40,2.0,0.0
3848,46.0,0,20,3.0,0.0
3849,34.0,10,20,4.0,0.0
3850,77.0,0,15,5.0,0.0
3851,68.0,12,15,6.0,0.0
3852,82.0,0,15,5.0,0.0
3853,65.0,2,15,6.0,0.0
3854,46.0,0,20,3.0,0.0
3855,34.0,1,20,4.0,0.0
3856,83.0,0,15,5.0,0.0
3857,62.0,8,15,6.0,0.0
3858,77.0,0,15,5.0,0.0
3859,58.0,7,15,6.0,0.0
3860,75.0,0,20,0.0,0.0
3861,66.0,0,20,1.0,0.0
3862,63.0,0,20,2.0,0.0
3863,46.0,0,20,3.0,0.0
3864,34.0,9,20,4.0,0.0
3865,78.0,6,15,5.0,0.0
3866,63.0,3,20,6.0,0.0
3867,80.0,10,15,5.0,0.0
3868,82.0,12,20,5.0,0.0
3869,75.0,0,20,0.0,0.0
3870,66.0,0,20,1.0,0.0
3871,63.0,0,20,2.0,0.0
3872,46.0,0,20,3.0,0.0
3873,34.0,5,20,4.0,0.0
3874,66.0,1,20,6.0,0.0
3875,78.0,2,15,5.0,0.0
3876,73.0,0,20,0.0,0.0
3877,58.0,0,20,1.0,0.0
3878,67.0,0,20,2.0,0.0
3879,46.0,0,20,3.0,0.0
3880,34.0,9,20,4.0,0.0
3881,76.0,6,15,5.0,0.0
3882,70.0,3,20,6.0,0.0
3883,77.0,10,15,5.0,0.0
3884,79.0,12,20,5.0,0.0
3885,73.0,0,20,0.0,0.0
3886,58.0,0,20,1.0,0.0
3887,67.0,0,20,2.0,0.0
3888,46.0,0,20,3.0,0.0
3889,34.0,0,20,4.0,0.0
3890,58.0,1,20,6.0,0.0
3891,76.0,12,15,5.0,0.0
3892,72.0,0,40,0.0,0.0
3893,65.0,0,40,1.0,0.0
3894,68.0,3,40,2.0,0.0
3895,44.0,0,20,3.0,0.0
3896,32.0,1,20,4.0,0.0
3897,77.0,11,15,5.0,0.0
3898,72.0,12,15,5.0,0.0
3899,60.0,0,20,3.0,0.0
3900,48.0,1,20,4.0,0.0
3901,68.0,0,15,5.0,0.0
3902,56.0,8,15,6.0,0.0
3903,65.0,0,15,5.0,0.0
3904,58.0,12,15,6.0,0.0
3905,56.0,0,20,3.0,0.0
3906,44.0,0,20,4.0,0.0
3907,64.0,11,15,5.0,0.0
3908,60.0,1,20,6.0,0.0
3909,65.0,12,15,5.0,0.0
3910,53.0,0,20,3.0,0.0
3911,41.0,0,20,4.0,0.0
3912,68.0,11,15,5.0,0.0
3913,53.0,1,20,6.0,0.0
3914,72.0,7,15,5.0,0.0
3915,68.0,0,20,0.0,0.0
3916,65.0,0,20,1.0,0.0
3917,65.0,0,20,2.0,0.0
3918,41.0,0,20,3.0,0.0
3919,29.0,9,20,4.0,0.0
3920,73.0,6,15,5.0,0.0
3921,41.0,3,20,6.0,0.0
3922,75.0,10,15,5.0,0.0
3923,77.0,12,20,5.0,0.0
3924,68.0,0,20,0.0,0.0
3925,65.0,0,20,1.0,0.0
3926,65.0,0,20,2.0,0.0
3927,41.0,0,20,3.0,0.0
3928,29.0,5,20,4.0,0.0
3929,53.0,1,20,6.0,0.0
3930,73.0,2,15,5.0,0.0
3931,67.0,0,20,0.0,0.0
3932,62.0,0,20,1.0,0.0
3933,67.0,0,20,2.0,0.0
3934,41.0,0,20,3.0,0.0
3935,29.0,9,20,4.0,0.0
3936,71.0,6,15,5.0,0.0
3937,62.0,3,20,6.0,0.0
3938,72.0,10,15,5.0,0.0
3939,74.0,12,20,5.0,0.0
3940,67.0,0,20,0.0,0.0
3941,62.0,0,20,1.0,0.0
3942,67.0,0,20,2.0,0.0
3943,41.0,0,20,3.0,0.0
3944,29.0,0,20,4.0,0.0
3945,53.0,1,20,6.0,0.0
3946,71.0,12,15,5.0,0.0
3947,67.0,0,40,0.0,0.0
3948,60.0,0,40,1.0,0.0
3949,55.0,3,40,2.0,0.0
3950,39.0,0,20,3.0,0.0
3951,27.0,1,20,4.0,0.0
3952,72.0,11,15,5.0,0.0
3953,67.0,12,15,5.0,0.0
3954,55.0,0,20,3.0,0.0
3955,43.0,1,20,4.0,0.0
3956,63.0,0,15,5.0,0.0
3957,51.0,8,15,6.0,0.0
3958,60.0,0,15,5.0,0.0
3959,53.0,12,15,6.0,0.0
3960,51.0,0,20,3.0,0.0
3961,39.0,0,20,4.0,0.0
3962,59.0,11,15,5.0,0.0
3963,55.0,1,20,6.0,0.0
3964,60.0,12,15,5.0,0.0
3965,48.0,0,20,3.0,0.0
3966,36.0,0,20,4.0,0.0
3967,63.0,11,15,5.0,0.0
3968,48.0,1,20,6.0,0.0
3969,65.0,7,15,5.0,0.0
3970,63.0,0,20,0.0,0.0
3971,60.0,0,20,1.0,0.0
3972,60.0,0,20,2.0,0.0
3973,36.0,0,20,3.0,0.0
3974,24.0,9,20,4.0,0.0
3975,68.0,6,15,5.0,0.0
3976,36.0,3,20,6.0,0.0
3977,70.0,10,15,5.0,0.0
3978,72.0,12,20,5.0,0.0
3979,63.0,0,20,0.0,0.0
3980,60.0,0,20,1.0,0.0
3981,60.0,0,20,2.0,0.0
3982,36.0,0,20,3.0,0.0
3983,24.0,5,20,4.0,0.0
3984,48.0,1,20,6.0,0.0
3985,68.0,2,15,5.0,0.0
3986,62.0,0,20,0.0,0.0
3987,57.0,0,20,1.0,0.0
3988,62.0,0,20,2.0,0.0
3989,48.0,0,20,3.0,0.0
3990,36.0,9,20,4.0,0.0
3991,66.0,6,15,5.0,0.0
3992,57.0,3,20,6.0,0.0
3993,67.0,10,15,5.0,0.0
3994,69.0,12,20,5.0,0.0
3995,62.0,0,20,0.0,0.0
3996,57.0,0,20,1.0,0.0
3997,62.0,0,20,2.0,0.0
3998,48.0,0,20,3.0,0.0
3999,36.0,0,20,4.0,0.0
4000,48.0,1,20,6.0,0.0
4001,66.0,12,15,5.0,0.0
4002,62.0,0,40,0.0,0.0
4003,55.0,0,40,1.0,0.0
4004,50.0,3,40,2.0,0.0
4005,46.0,0,20,3.0,0.0
4006,34.0,0,20,4.0,0.0
4007,67.0,11,15,5.0,0.0
4008,46.0,1,20,6.0,0.0
4009,62.0,12,15,5.0,0.0
4010,48.0,0,20,3.0,0.0
4011,36.0,0,20,4.0,0.0
4012,64.0,8,15,5.0,0.0
4013,48.0,0,20,6.0,0.0
4014,57.0,1,20,6.0,0.0
4015,66.0,12,15,5.0,0.0
4016,46.0,0,20,3.0,0.0
4017,34.0,0,20,4.0,0.0
4018,67.0,11,15,5.0,0.0
4019,46.0,0,20,6.0,0.0
4020,55.0,1,20,6.0,0.0
4021,62.0,12,15,5.0,0.0
4022,45.0,0,20,3.0,0.0
4023,33.0,0,20,4.0,0.0
4024,69.0,11,15,5.0,0.0
4025,45.0,0,20,6.0,0.0
4026,54.0,1,20,6.0,0.0
4027,62.0,12,15,5.0,0.0
4028,43.0,0,20,3.0,0.0
4029,31.0,0,20,4.0,0.0
4030,70.0,11,15,5.0,0.0
4031,43.0,0,20,6.0,0.0
4032,55.0,1,20,6.0,0.0
4033,66.0,12,15,5.0,0.0
4034,55.0,0,20,3.0,0.0
4035,43.0,0,20,4.0,0.0
4036,67.0,11,15,5.0,0.0
4037,55.0,0,20,6.0,0.0
4038,62.0,1,20,6.0,0.0
4039,69.0,12,15,5.0,0.0
4040,53.0,0,20,3.0,0.0
4041,41.0,0,20,4.0,0.0
4042,70.0,11,15,5.0,0.0
4043,53.0,0,20,6.0,0.0
4044,62.0,1,20,6.0,0.0
4045,67.0,12,15,5.0,0.0
4046,51.0,0,20,3.0,0.0
4047,39.0,0,20,4.0,0.0
4048,72.0,11,15,5.0,0.0
4049,51.0,0,20,6.0,0.0
4050,55.0,1,20,6.0,0.0
4051,67.0,12,15,5.0,0.0
4052,50.0,0,20,3.0,0.0
4053,38.0,0,20,4.0,0.0
4054,66.0,11,15,5.0,0.0
4055,50.0,0,20,6.0,0.0
4056,57.0,1,20,6.0,0.0
4057,62.0,12,15,5.0,0.0
4058,51.0,0,20,3.0,0.0
4059,39.0,1,20,4.0,0.0
4060,66.0,11,15,5.0,0.0
4061,62.0,14,30,6.0,0.0
4062,69.0,9,15,5.0,0.0
4063,50.0,0,20,3.0,0.0
4064,38.0,1,20,4.0,0.0
4065,74.0,17,60,5.0,0.0
4066,60.0,12,15,6.0,0.0
4067,74.0,0,20,0.0,0.0
4068,69.0,0,20,1.0,0.0
4069,66.0,0,20,2.0,0.0
4070,48.0,0,20,3.0,0.0
4071,36.0,1,20,4.0,0.0
4072,58.0,11,15,6.0,0.0
4073,57.0,6,15,6.0,0.0
4074,79.0,0,40,0.0,0.0
4075,74.0,0,40,1.0,0.0
4076,67.0,3,40,2.0,0.0
4077,46.0,0,20,3.0,0.0
4078,34.0,0,20,4.0,0.0
4079,58.0,1,20,6.0,0.0
4080,67.0,12,15,5.0,0.0
4081,50.0,0,20,3.0,0.0
4082,38.0,1,20,4.0,0.0
4083,70.0,8,15,5.0,0.0
4084,55.0,14,30,6.0,0.0
4085,74.0,9,15,5.0,0.0
4086,46.0,0,20,3.0,0.0
4087,34.0,1,20,4.0,0.0
4088,79.0,6,60,5.0,0.0
4089,53.0,12,15,6.0,0.0
4090,74.0,0,20,0.0,0.0
4091,70.0,0,20,1.0,0.0
4092,67.0,0,20,2.0,0.0
4093,43.0,0,20,3.0,0.0
4094,31.0,1,20,4.0,0.0
4095,51.0,11,15,6.0,0.0
4096,50.0,6,15,6.0,0.0
4097,75.0,0,40,0.0,0.0
4098,72.0,0,40,1.0,0.0
4099,67.0,3,40,2.0,0.0
4100,48.0,0,20,3.0,0.0
4101,36.0,1,20,4.0,0.0
4102,48.0,11,15,6.0,0.0
4103,67.0,0,15,5.0,0.0
4104,50.0,12,15,6.0,0.0
4105,51.0,0,20,3.0,0.0
4106,39.0,1,20,4.0,0.0
4107,72.0,8,15,5.0,0.0
4108,51.0,14,30,6.0,0.0
4109,75.0,9,15,5.0,0.0
4110,48.0,0,20,3.0,0.0
4111,36.0,1,20,4.0,0.0
4112,79.0,6,60,5.0,0.0
4113,48.0,12,15,6.0,0.0
4114,72.0,0,20,0.0,0.0
4115,69.0,0,20,1.0,0.0
4116,69.0,0,20,2.0,0.0
4117,45.0,0,20,3.0,0.0
4118,33.0,1,20,4.0,0.0
4119,51.0,11,15,6.0,0.0
4120,55.0,12,15,6.0,0.0
4121,74.0,0,15,0.0,0.0
4122,70.0,3,15,1.0,0.0
4123,62.0,0,20,2.0,0.0
4124,46.0,0,20,3.0,0.0
4125,34.0,1,20,4.0,0.0
4126,58.0,2,15,6.0,0.0
4127,72.0,0,15,0.0,0.0
4128,72.0,10,15,1.0,0.0
4129,57.0,2,15,6.0,0.0
4130,70.0,0,15,0.0,0.0
4131,74.0,0,15,1.0,0.0
4132,62.0,0,20,2.0,0.0
4133,43.0,0,20,3.0,0.0
4134,31.0,0,20,4.0,0.0
4135,67.0,1,20,5.0,0.0
4136,58.0,11,15,6.0,0.0
4137,74.0,0,15,0.0,0.0
4138,70.0,0,15,1.0,0.0
4139,55.0,12,15,6.0,0.0
4140,72.0,2,15,0.0,0.0
4141,69.0,9,15,1.0,0.0
4142,62.0,0,20,2.0,0.0
4143,50.0,0,20,3.0,0.0
4144,38.0,0,20,4.0,0.0
4145,66.0,0,20,5.0,0.0
4146,62.0,1,20,6.0,0.0
4147,70.0,2,15,0.0,0.0
4148,70.0,10,15,1.0,0.0
4149,69.0,0,15,0.0,0.0
4150,72.0,11,15,1.0,0.0
4151,62.0,0,20,2.0,0.0
4152,38.0,0,20,3.0,0.0
4153,26.0,0,20,4.0,0.0
4154,72.0,0,20,5.0,0.0
4155,50.0,1,20,6.0,0.0
4156,72.0,0,15,0.0,0.0
4157,69.0,12,15,1.0,0.0
4158,70.0,0,20,0.0,0.0
4159,67.0,0,20,1.0,0.0
4160,62.0,0,20,2.0,0.0
4161,43.0,0,20,3.0,0.0
4162,31.0,0,20,4.0,0.0
4163,70.0,1,20,5.0,0.0
4164,55.0,11,15,6.0,0.0
4165,57.0,12,15,6.0,0.0
4166,67.0,0,20,0.0,0.0
4167,74.0,0,15,1.0,0.0
4168,62.0,0,20,2.0,0.0
4169,58.0,0,15,3.0,0.0
4170,46.0,0,15,4.0,0.0
4171,67.0,1,20,5.0,0.0
4172,58.0,11,15,6.0,0.0
4173,72.0,0,15,1.0,0.0
4174,57.0,0,15,3.0,0.0
4175,45.0,0,15,4.0,0.0
4176,57.0,12,15,6.0,0.0
4177,74.0,0,60,0.0,0.0
4178,70.0,0,15,1.0,0.0
4179,67.0,1,20,2.0,0.0
4180,55.0,0,15,3.0,0.0
4181,43.0,0,15,4.0,0.0
4182,74.0,3,60,5.0,0.0
4183,55.0,11,15,6.0,0.0
4184,69.0,0,15,1.0,0.0
4185,53.0,0,15,3.0,0.0
4186,41.0,0,15,4.0,0.0
4187,53.0,12,15,6.0,0.0
4188,67.0,0,15,1.0,0.0
4189,70.0,3,40,2.0,0.0
4190,51.0,0,15,3.0,0.0
4191,39.0,0,15,4.0,0.0
4192,51.0,12,15,6.0,0.0
4193,65.0,0,15,1.0,0.0
4194,50.0,0,15,3.0,0.0
4195,38.0,0,15,4.0,0.0
4196,50.0,12,15,6.0,0.0
4197,67.0,5,15,1.0,0.0
4198,51.0,0,20,3.0,0.0
4199,39.0,0,20,4.0,0.0
4200,51.0,1,20,6.0,0.0
4201,77.0,12,15,1.0,0.0
4202,72.0,0,15,0.0,0.0
4203,75.0,0,15,1.0,0.0
4204,60.0,0,15,2.0,0.0
4205,55.0,0,20,3.0,0.0
4206,43.0,0,20,4.0,0.0
4207,72.0,11,15,5.0,0.0
4208,55.0,1,20,6.0,0.0
4209,71.0,0,15,0.0,0.0
4210,74.0,0,15,1.0,0.0
4211,62.0,0,15,2.0,0.0
4212,71.0,12,15,5.0,0.0
4213,72.0,0,20,0.0,0.0
4214,72.0,11,15,1.0,0.0
4215,63.0,0,20,2.0,0.0
4216,51.0,0,20,3.0,0.0
4217,39.0,0,20,4.0,0.0
4218,72.0,0,20,5.0,0.0
4219,51.0,1,20,6.0,0.0
4220,70.0,12,15,1.0,0.0
4221,75.0,0,40,0.0,0.0
4222,69.0,11,15,1.0,0.0
4223,63.0,0,20,2.0,0.0
4224,48.0,0,20,3.0,0.0
4225,36.0,0,20,4.0,0.0
4226,75.0,3,40,5.0,0.0
4227,48.0,1,20,6.0,0.0
4228,67.0,20,15,1.0,0.0
4229,69.0,0,20,1.0,0.0
4230,60.0,0,20,2.0,0.0
4231,53.0,0,20,3.0,0.0
4232,41.0,0,20,4.0,0.0
4233,53.0,13,20,6.0,0.0
4234,69.0,0,20,0.0,0.0
4235,77.0,0,20,1.0,0.0
4236,72.0,0,20,2.0,0.0
4237,41.0,0,20,3.0,0.0
4238,29.0,0,20,4.0,0.0
4239,69.0,11,15,5.0,0.0
4240,41.0,1,20,6.0,0.0
4241,70.0,14,15,5.0,0.0
4242,72.0,10,15,5.0,0.0
4243,69.0,14,15,5.0,0.0
4244,70.0,10,15,5.0,0.0
4245,67.0,12,15,5.0,0.0
4246,69.0,12,15,5.0,0.0
4247,65.0,0,15,5.0,0.0
4248,57.0,12,15,6.0,0.0
4249,64.0,0,15,5.0,0.0
4250,55.0,12,15,6.0,0.0
4251,65.0,0,15,5.0,0.0
4252,57.0,12,15,6.0,0.0
4253,69.0,0,15,5.0,0.0
4254,53.0,12,15,6.0,0.0
4255,65.0,0,15,5.0,0.0
4256,57.0,12,15,6.0,0.0
4257,72.0,0,15,5.0,0.0
4258,48.0,12,15,6.0,0.0
4259,69.0,0,15,5.0,0.0
4260,53.0,12,15,6.0,0.0
4261,77.0,1,20,5.0,0.0
4262,45.0,11,15,6.0,0.0
4263,58.0,12,15,6.0,0.0
4264,65.0,0,20,0.0,0.0
4265,72.0,0,15,1.0,0.0
4266,60.0,0,20,2.0,0.0
4267,57.0,0,15,3.0,0.0
4268,45.0,0,15,4.0,0.0
4269,65.0,1,20,5.0,0.0
4270,57.0,11,15,6.0,0.0
4271,70.0,0,15,1.0,0.0
4272,55.0,0,15,3.0,0.0
4273,43.0,0,15,4.0,0.0
4274,55.0,12,15,6.0,0.0
4275,72.0,0,60,0.0,0.0
4276,69.0,0,15,1.0,0.0
4277,65.0,1,20,2.0,0.0
4278,53.0,0,15,3.0,0.0
4279,41.0,0,15,4.0,0.0
4280,72.0,3,60,5.0,0.0
4281,53.0,11,15,6.0,0.0
4282,67.0,0,15,1.0,0.0
4283,51.0,0,15,3.0,0.0
4284,39.0,0,15,4.0,0.0
4285,51.0,12,15,6.0,0.0
4286,65.0,0,15,1.0,0.0
4287,69.0,3,40,2.0,0.0
4288,50.0,0,15,3.0,0.0
4289,38.0,0,15,4.0,0.0
4290,50.0,12,15,6.0,0.0
4291,63.0,0,15,1.0,0.0
4292,48.0,0,15,3.0,0.0
4293,36.0,0,15,4.0,0.0
4294,48.0,12,15,6.0,0.0
4295,65.0,5,15,1.0,0.0
4296,50.0,0,20,3.0,0.0
4297,38.0,0,20,4.0,0.0
4298,50.0,1,20,6.0,0.0
4299,75.0,12,15,1.0,0.0
4300,70.0,0,15,0.0,0.0
4301,74.0,0,15,1.0,0.0
4302,58.0,0,15,2.0,0.0
4303,53.0,0,20,3.0,0.0
4304,41.0,0,20,4.0,0.0
4305,70.0,11,15,5.0,0.0
4306,53.0,1,20,6.0,0.0
4307,69.0,0,15,0.0,0.0
4308,72.0,0,15,1.0,0.0
4309,60.0,0,15,2.0,0.0
4310,69.0,12,15,5.0,0.0
4311,70.0,0,20,0.0,0.0
4312,70.0,11,15,1.0,0.0
4313,62.0,0,20,2.0,0.0
4314,50.0,0,20,3.0,0.0
4315,38.0,0,20,4.0,0.0
4316,70.0,0,20,5.0,0.0
4317,50.0,1,20,6.0,0.0
4318,69.0,12,15,1.0,0.0
4319,74.0,0,40,0.0,0.0
4320,67.0,11,15,1.0,0.0
4321,62.0,0,20,2.0,0.0
4322,46.0,0,20,3.0,0.0
4323,34.0,0,20,4.0,0.0
4324,74.0,3,40,5.0,0.0
4325,46.0,1,20,6.0,0.0
4326,66.0,20,15,1.0,0.0
4327,67.0,0,20,1.0,0.0
4328,58.0,0,20,2.0,0.0
4329,51.0,0,20,3.0,0.0
4330,39.0,0,20,4.0,0.0
4331,51.0,13,20,6.0,0.0
4332,67.0,0,20,0.0,0.0
4333,75.0,0,20,1.0,0.0
4334,70.0,0,20,2.0,0.0
4335,39.0,0,20,3.0,0.0
4336,27.0,0,20,4.0,0.0
4337,67.0,11,15,5.0,0.0
4338,39.0,1,20,6.0,0.0
4339,69.0,12,15,5.0,0.0
4340,70.0,12,15,5.0,0.0
4341,67.0,12,15,5.0,0.0
4342,69.0,12,15,5.0,0.0
4343,66.0,12,15,5.0,0.0
4344,67.0,12,15,5.0,0.0
4345,63.0,0,15,5.0,0.0
4346,55.0,12,15,6.0,0.0
4347,62.0,0,15,5.0,0.0
4348,53.0,12,15,6.0,0.0
4349,63.0,0,15,5.0,0.0
4350,55.0,12,15,6.0,0.0
4351,67.0,0,15,5.0,0.0
4352,51.0,12,15,6.0,0.0
4353,63.0,0,15,5.0,0.0
4354,55.0,12,15,6.0,0.0
4355,70.0,0,15,5.0,0.0
4356,46.0,12,15,6.0,0.0
4357,67.0,0,15,5.0,0.0
4358,51.0,12,15,6.0,0.0
4359,75.0,1,20,5.0,0.0
4360,43.0,11,15,6.0,0.0
4361,56.0,12,15,6.0,0.0
4362,63.0,0,20,0.0,0.0
4363,70.0,0,15,1.0,0.0
4364,58.0,0,20,2.0,0.0
4365,55.0,0,15,3.0,0.0
4366,43.0,0,15,4.0,0.0
4367,63.0,1,20,5.0,0.0
4368,55.0,11,15,6.0,0.0
4369,69.0,0,15,1.0,0.0
4370,53.0,0,15,3.0,0.0
4371,41.0,0,15,4.0,0.0
4372,53.0,12,15,6.0,0.0
4373,70.0,0,60,0.0,0.0
4374,67.0,0,15,1.0,0.0
4375,63.0,1,20,2.0,0.0
4376,51.0,0,15,3.0,0.0
4377,39.0,0,15,4.0,0.0
4378,70.0,3,60,5.0,0.0
4379,51.0,11,15,6.0,0.0
4380,65.0,0,15,1.0,0.0
4381,50.0,0,15,3.0,0.0
4382,38.0,0,15,4.0,0.0
4383,50.0,12,15,6.0,0.0
4384,63.0,0,15,1.0,0.0
4385,67.0,4,40,2.0,0.0
4386,48.0,0,15,3.0,0.0
4387,36.0,0,15,4.0,0.0
4388,48.0,12,15,6.0,0.0
4389,62.0,0,15,1.0,0.0
4390,46.0,0,15,3.0,0.0
4391,34.0,0,15,4.0,0.0
4392,46.0,12,15,6.0,0.0
4393,63.0,6,60,1.0,0.0
4394,48.0,0,15,3.0,0.0
4395,36.0,0,15,4.0,0.0
4396,48.0,5,15,6.0,0.0
4397,50.0,0,15,3.0,0.0
4398,38.0,0,15,4.0,0.0
4399,50.0,12,15,6.0,0.0
4400,69.0,0,15,0.0,0.0
4401,66.0,0,15,2.0,0.0
4402,48.0,0,15,3.0,0.0
4403,36.0,0,15,4.0,0.0
4404,69.0,0,15,5.0,0.0
4405,48.0,12,15,6.0,0.0
4406,70.0,0,15,0.0,0.0
4407,67.0,0,15,2.0,0.0
4408,46.0,0,15,3.0,0.0
4409,34.0,0,15,4.0,0.0
4410,70.0,0,15,5.0,0.0
4411,46.0,6,15,6.0,0.0
4412,72.0,0,20,0.0,0.0
4413,69.0,0,20,2.0,0.0
4414,45.0,0,15,3.0,0.0
4415,33.0,0,15,4.0,0.0
4416,72.0,1,20,5.0,0.0
4417,45.0,11,15,6.0,0.0
4418,62.0,0,15,1.0,0.0
4419,46.0,0,15,3.0,0.0
4420,34.0,0,15,4.0,0.0
4421,46.0,12,15,6.0,0.0
4422,63.0,0,20,0.0,0.0
4423,60.0,0,15,1.0,0.0
4424,57.0,3,40,2.0,0.0
4425,45.0,0,15,3.0,0.0
4426,33.0,0,15,4.0,0.0
4427,63.0,1,20,5.0,0.0
4428,45.0,11,15,6.0,0.0
4429,58.0,0,15,1.0,0.0
4430,43.0,0,15,3.0,0.0
4431,31.0,0,15,4.0,0.0
4432,43.0,12,15,6.0,0.0
4433,62.0,0,20,0.0,0.0
4434,57.0,0,20,1.0,0.0
4435,42.0,0,15,3.0,0.0
4436,30.0,0,15,4.0,0.0
4437,62.0,1,20,5.0,0.0
4438,42.0,8,15,6.0,0.0
4439,38.0,0,15,3.0,0.0
4440,26.0,0,15,4.0,0.0
4441,38.0,12,15,6.0,0.0
4442,72.0,0,20,0.0,0.0
4443,69.0,0,20,1.0,0.0
4444,50.0,0,20,2.0,0.0
4445,40.0,0,15,3.0,0.0
4446,28.0,0,15,4.0,0.0
4447,72.0,1,20,5.0,0.0
4448,40.0,11,15,6.0,0.0
4449,42.0,0,15,3.0,0.0
4450,30.0,0,15,4.0,0.0
4451,42.0,12,15,6.0,0.0
4452,70.0,0,20,0.0,0.0
4453,67.0,0,20,1.0,0.0
4454,62.0,0,20,2.0,0.0
4455,43.0,0,15,3.0,0.0
4456,31.0,0,15,4.0,0.0
4457,70.0,1,20,5.0,0.0
4458,43.0,11,15,6.0,0.0
4459,45.0,0,15,3.0,0.0
4460,33.0,0,15,4.0,0.0
4461,45.0,12,15,6.0,0.0
4462,62.0,0,20,0.0,0.0
4463,55.0,3,40,1.0,0.0
4464,58.0,0,20,2.0,0.0
4465,46.0,0,15,3.0,0.0
4466,34.0,0,15,4.0,0.0
4467,62.0,1,20,5.0,0.0
4468,46.0,11,15,6.0,0.0
4469,43.0,0,15,3.0,0.0
4470,31.0,0,15,4.0,0.0
4471,43.0,12,15,6.0,0.0
4472,60.0,0,15,0.0,0.0
4473,55.0,0,20,2.0,0.0
4474,39.0,0,20,3.0,0.0
4475,27.0,0,20,4.0,0.0
4476,60.0,8,15,5.0,0.0
4477,51.0,1,20,6.0,0.0
4478,70.0,0,15,0.0,0.0
4479,70.0,12,15,5.0,0.0
4480,69.0,0,15,0.0,0.0
4481,62.0,0,20,1.0,0.0
4482,58.0,0,20,2.0,0.0
4483,46.0,0,20,3.0,0.0
4484,34.0,0,20,4.0,0.0
4485,69.0,11,15,5.0,0.0
4486,46.0,1,20,6.0,0.0
4487,67.0,0,15,0.0,0.0
4488,67.0,12,15,5.0,0.0
4489,69.0,0,15,0.0,0.0
4490,60.0,0,20,1.0,0.0
4491,63.0,0,20,2.0,0.0
4492,48.0,0,20,3.0,0.0
4493,36.0,0,20,4.0,0.0
4494,69.0,11,15,5.0,0.0
4495,48.0,1,20,6.0,0.0
4496,67.0,0,15,0.0,0.0
4497,67.0,12,15,5.0,0.0
4498,66.0,0,15,0.0,0.0
4499,72.0,3,40,1.0,0.0
4500,60.0,0,20,2.0,0.0
4501,45.0,0,20,3.0,0.0
4502,33.0,0,20,4.0,0.0
4503,66.0,11,15,5.0,0.0
4504,45.0,1,20,6.0,0.0
4505,64.0,0,15,0.0,0.0
4506,64.0,20,15,5.0,0.0
4507,66.0,0,20,0.0,0.0
4508,57.0,0,20,2.0,0.0
4509,50.0,0,30,3.0,0.0
4510,38.0,0,30,4.0,0.0
4511,66.0,10,20,5.0,0.0
4512,50.0,10,30,6.0,0.0
4513,75.0,0,20,0.0,0.0
4514,69.0,0,20,1.0,0.0
4515,72.0,0,20,2.0,0.0
4516,75.0,2,20,5.0,0.0
4517,52.0,0,15,3.0,0.0
4518,40.0,0,15,4.0,0.0
4519,52.0,4,15,6.0,0.0
4520,54.0,0,15,3.0,0.0
4521,42.0,0,15,4.0,0.0
4522,54.0,11,15,6.0,0.0
4523,74.0,0,20,0.0,0.0
4524,70.0,0,20,1.0,0.0
4525,70.0,0,20,2.0,0.0
4526,55.0,0,15,3.0,0.0
4527,43.0,0,15,4.0,0.0
4528,74.0,1,20,5.0,0.0
4529,55.0,11,15,6.0,0.0
4530,57.0,0,15,3.0,0.0
4531,45.0,0,15,4.0,0.0
4532,57.0,12,15,6.0,0.0
4533,79.0,0,20,0.0,0.0
4534,74.0,0,20,1.0,0.0
4535,67.0,0,20,2.0,0.0
4536,58.0,0,15,3.0,0.0
4537,46.0,0,15,4.0,0.0
4538,79.0,1,20,5.0,0.0
4539,58.0,11,15,6.0,0.0
4540,60.0,0,15,3.0,0.0
4541,48.0,0,15,4.0,0.0
4542,60.0,14,15,6.0,0.0
4543,82.0,0,40,0.0,0.0
4544,74.0,0,40,1.0,0.0
4545,67.0,0,40,2.0,0.0
4546,62.0,0,20,3.0,0.0
4547,50.0,0,20,4.0,0.0
4548,79.0,0,40,5.0,0.0
4549,74.0,1,40,5.0,0.0
4550,62.0,21,20,6.0,0.0
4551,81.0,9,15,5.0,0.0
4552,82.0,2,30,5.0,0.0
4553,60.0,0,20,3.0,0.0
4554,48.0,0,20,4.0,0.0
4555,60.0,9,20,6.0,0.0
4556,81.0,0,15,0.0,0.0
4557,74.0,6,90,1.0,0.0
4558,66.0,6,15,2.0,0.0
4559,62.0,0,20,3.0,0.0
4560,50.0,0,20,4.0,0.0
4561,81.0,6,60,5.0,0.0
4562,78.0,0,40,5.0,0.0
4563,74.0,3,40,5.0,0.0
4564,62.0,3,20,6.0,0.0
4565,82.0,0,15,0.0,0.0
4566,67.0,6,15,2.0,0.0
4567,81.0,0,15,0.0,0.0
4568,66.0,3,15,2.0,0.0
4569,82.0,0,15,0.0,0.0
4570,67.0,6,15,2.0,0.0
4571,81.0,0,15,0.0,0.0
4572,66.0,6,15,2.0,0.0
4573,50.0,0,20,3.0,0.0
4574,38.0,0,20,4.0,0.0
4575,50.0,3,20,6.0,0.0
4576,82.0,0,15,0.0,0.0
4577,67.0,6,15,2.0,0.0
4578,81.0,0,15,0.0,0.0
4579,66.0,0,15,2.0,0.0
4580,82.0,0,15,0.0,0.0
4581,67.0,4,15,2.0,0.0
4582,81.0,0,40,0.0,0.0
4583,66.0,3,40,2.0,0.0
4584,48.0,0,20,3.0,0.0
4585,36.0,1,20,4.0,0.0
4586,60.0,11,15,6.0,0.0
4587,82.0,0,15,5.0,0.0
4588,58.0,12,15,6.0,0.0
4589,50.0,0,20,3.0,0.0
4590,38.0,1,20,4.0,0.0
4591,84.0,0,15,5.0,0.0
4592,57.0,2,15,6.0,0.0
4593,82.0,0,15,5.0,0.0
4594,58.0,12,15,6.0,0.0
4595,48.0,0,20,3.0,0.0
4596,36.0,1,20,4.0,0.0
4597,81.0,0,15,5.0,0.0
4598,60.0,11,15,6.0,0.0
4599,84.0,0,15,5.0,0.0
4600,63.0,12,15,6.0,0.0
4601,46.0,0,20,3.0,0.0
4602,34.0,1,20,4.0,0.0
4603,79.0,0,15,5.0,0.0
4604,58.0,11,15,6.0,0.0
4605,84.0,0,15,5.0,0.0
4606,63.0,12,15,6.0,0.0
4607,84.0,0,40,0.0,0.0
4608,69.0,0,40,1.0,0.0
4609,63.0,3,40,2.0,0.0
4610,45.0,0,20,3.0,0.0
4611,33.0,1,20,4.0,0.0
4612,78.0,0,15,5.0,0.0
4613,57.0,11,15,6.0,0.0
4614,79.0,0,15,5.0,0.0
4615,55.0,12,15,6.0,0.0
4616,46.0,0,20,3.0,0.0
4617,34.0,1,20,4.0,0.0
4618,81.0,0,15,5.0,0.0
4619,54.0,8,15,6.0,0.0
4620,79.0,0,15,5.0,0.0
4621,55.0,12,15,6.0,0.0
4622,45.0,0,20,3.0,0.0
4623,33.0,1,20,4.0,0.0
4624,78.0,0,15,5.0,0.0
4625,57.0,11,15,6.0,0.0
4626,81.0,0,15,5.0,0.0
4627,58.0,12,15,6.0,0.0
4628,43.0,0,20,3.0,0.0
4629,31.0,1,20,4.0,0.0
4630,75.0,0,15,5.0,0.0
4631,60.0,11,15,6.0,0.0
4632,81.0,0,15,5.0,0.0
4633,62.0,12,15,6.0,0.0
4634,75.0,0,40,0.0,0.0
4635,72.0,0,40,1.0,0.0
4636,57.0,3,40,2.0,0.0
4637,42.0,0,20,3.0,0.0
4638,30.0,1,20,4.0,0.0
4639,72.0,0,15,5.0,0.0
4640,63.0,11,15,6.0,0.0
4641,74.0,0,15,5.0,0.0
4642,62.0,12,15,6.0,0.0
4643,43.0,0,20,3.0,0.0
4644,31.0,1,20,4.0,0.0
4645,75.0,0,15,5.0,0.0
4646,60.0,8,15,6.0,0.0
4647,74.0,0,15,5.0,0.0
4648,62.0,12,15,6.0,0.0
4649,45.0,0,20,3.0,0.0
4650,33.0,1,20,4.0,0.0
4651,72.0,0,15,5.0,0.0
4652,63.0,11,15,6.0,0.0
4653,75.0,0,15,5.0,0.0
4654,66.0,12,15,6.0,0.0
4655,46.0,0,20,3.0,0.0
4656,34.0,1,20,4.0,0.0
4657,70.0,0,15,5.0,0.0
4658,62.0,11,15,6.0,0.0
4659,75.0,0,15,5.0,0.0
4660,66.0,12,15,6.0,0.0
4661,72.0,0,40,0.0,0.0
4662,69.0,0,40,1.0,0.0
4663,63.0,3,40,2.0,0.0
4664,48.0,0,20,3.0,0.0
4665,36.0,1,20,4.0,0.0
4666,69.0,0,15,5.0,0.0
4667,60.0,11,15,6.0,0.0
4668,70.0,0,15,5.0,0.0
4669,58.0,12,15,6.0,0.0
4670,50.0,0,20,3.0,0.0
4671,38.0,1,20,4.0,0.0
4672,72.0,0,15,5.0,0.0
4673,57.0,8,15,6.0,0.0
4674,70.0,0,15,5.0,0.0
4675,58.0,12,15,6.0,0.0
4676,51.0,0,20,3.0,0.0
4677,39.0,1,20,4.0,0.0
4678,69.0,0,15,5.0,0.0
4679,60.0,11,15,6.0,0.0
4680,72.0,0,15,5.0,0.0
4681,63.0,12,15,6.0,0.0
4682,45.0,0,20,3.0,0.0
4683,33.0,1,20,4.0,0.0
4684,67.0,0,15,5.0,0.0
4685,60.0,11,15,6.0,0.0
4686,72.0,0,15,5.0,0.0
4687,57.0,12,15,6.0,0.0
4688,72.0,0,90,0.0,0.0
4689,69.0,10,90,1.0,0.0
4690,66.0,9,120,2.0,0.0
4691,50.0,0,20,3.0,0.0
4692,38.0,0,20,4.0,0.0
4693,66.0,11,15,5.0,0.0
4694,62.0,1,20,6.0,0.0
4695,72.0,12,15,5.0,0.0
4696,48.0,0,15,3.0,0.0
4697,36.0,0,15,4.0,0.0
4698,62.0,0,15,5.0,0.0
4699,60.0,12,15,6.0,0.0
4700,46.0,0,15,3.0,0.0
4701,34.0,0,15,4.0,0.0
4702,64.0,0,15,5.0,0.0
4703,58.0,12,15,6.0,0.0
4704,45.0,0,20,3.0,0.0
4705,33.0,1,20,4.0,0.0
4706,66.0,0,15,5.0,0.0
4707,57.0,11,15,6.0,0.0
4708,67.0,0,15,5.0,0.0
4709,58.0,12,15,6.0,0.0
4710,43.0,0,20,3.0,0.0
4711,31.0,1,20,4.0,0.0
4712,69.0,0,15,5.0,0.0
4713,60.0,11,15,6.0,0.0
4714,70.0,0,15,5.0,0.0
4715,58.0,2,15,6.0,0.0
4716,42.0,0,20,3.0,0.0
4717,30.0,1,20,4.0,0.0
4718,72.0,0,15,5.0,0.0
4719,57.0,2,15,6.0,0.0
4720,74.0,0,15,0.0,0.0
4721,70.0,0,15,1.0,0.0
4722,74.0,0,15,5.0,0.0
4723,55.0,12,15,6.0,0.0
4724,76.0,0,15,0.0,0.0
4725,72.0,0,15,1.0,0.0
4726,67.0,3,40,2.0,0.0
4727,40.0,0,20,3.0,0.0
4728,28.0,1,20,4.0,0.0
4729,76.0,0,15,5.0,0.0
4730,54.0,11,15,6.0,0.0
4731,78.0,0,15,0.0,0.0
4732,74.0,0,15,1.0,0.0
4733,78.0,0,15,5.0,0.0
4734,52.0,12,15,6.0,0.0
4735,79.0,0,15,0.0,0.0
4736,76.0,0,15,1.0,0.0
4737,38.0,0,20,3.0,0.0
4738,26.0,1,20,4.0,0.0
4739,79.0,0,15,5.0,0.0
4740,50.0,8,15,6.0,0.0
4741,81.0,0,15,0.0,0.0
4742,78.0,0,15,1.0,0.0
4743,81.0,0,15,5.0,0.0
4744,48.0,12,15,6.0,0.0
4745,82.0,0,15,0.0,0.0
4746,79.0,0,15,1.0,0.0
4747,57.0,0,20,2.0,0.0
4748,48.0,0,20,3.0,0.0
4749,36.0,1,20,4.0,0.0
4750,82.0,0,15,5.0,0.0
4751,46.0,11,15,6.0,0.0
4752,84.0,0,15,0.0,0.0
4753,81.0,0,15,1.0,0.0
4754,84.0,0,15,5.0,0.0
4755,45.0,23,15,6.0,0.0
4756,86.0,0,20,0.0,0.0
4757,74.0,0,20,1.0,0.0
4758,55.0,0,20,2.0,0.0
4759,46.0,0,20,3.0,0.0
4760,34.0,0,20,4.0,0.0
4761,86.0,0,20,5.0,0.0
4762,43.0,24,20,6.0,0.0
4763,79.0,0,20,0.0,0.0
4764,70.0,0,20,1.0,0.0
4765,58.0,0,20,2.0,0.0
4766,51.0,0,20,3.0,0.0
4767,39.0,0,20,4.0,0.0
4768,79.0,0,20,5.0,0.0
4769,51.0,24,20,6.0,0.0
4770,81.0,0,20,0.0,0.0
4771,72.0,0,20,1.0,0.0
4772,63.0,0,20,2.0,0.0
4773,48.0,0,20,3.0,0.0
4774,36.0,0,20,4.0,0.0
4775,81.0,0,20,5.0,0.0
4776,48.0,24,20,6.0,0.0
4777,78.0,0,20,0.0,0.0
4778,69.0,0,20,1.0,0.0
4779,62.0,0,20,2.0,0.0
4780,50.0,0,20,3.0,0.0
4781,38.0,0,20,4.0,0.0
4782,78.0,0,20,5.0,0.0
4783,50.0,13,20,6.0,0.0
4784,79.0,0,15,0.0,0.0
4785,67.0,1,20,1.0,0.0
4786,62.0,10,20,2.0,0.0
4787,39.0,0,40,3.0,0.0
4788,27.0,3,40,4.0,0.0
4789,79.0,0,15,5.0,0.0
4790,39.0,11,15,6.0,0.0
4791,77.0,0,15,0.0,0.0
4792,77.0,0,15,5.0,0.0
4793,43.0,2,15,6.0,0.0
4794,75.0,0,15,0.0,0.0
4795,79.0,0,15,1.0,0.0
4796,60.0,1,20,2.0,0.0
4797,75.0,0,15,5.0,0.0
4798,45.0,8,15,6.0,0.0
4799,74.0,0,15,0.0,0.0
4800,77.0,0,15,1.0,0.0
4801,74.0,0,15,5.0,0.0
4802,47.0,12,15,6.0,0.0
4803,72.0,0,20,0.0,0.0
4804,75.0,0,15,1.0,0.0
4805,72.0,1,20,5.0,0.0
4806,48.0,11,15,6.0,0.0
4807,74.0,0,15,1.0,0.0
4808,50.0,12,15,6.0,0.0
4809,72.0,0,20,0.0,0.0
4810,72.0,0,15,1.0,0.0
4811,55.0,0,20,2.0,0.0
4812,51.0,0,20,3.0,0.0
4813,39.0,0,20,4.0,0.0
4814,72.0,1,20,5.0,0.0
4815,51.0,11,15,6.0,0.0
4816,70.0,0,15,1.0,0.0
4817,48.0,12,15,6.0,0.0
4818,72.0,0,15,0.0,0.0
4819,69.0,0,15,1.0,0.0
4820,57.0,1,20,2.0,0.0
4821,42.0,0,20,3.0,0.0
4822,30.0,0,20,4.0,0.0
4823,72.0,11,15,5.0,0.0
4824,54.0,10,20,6.0,0.0
4825,74.0,0,15,0.0,0.0
4826,67.0,0,15,1.0,0.0
4827,74.0,2,15,5.0,0.0
4828,75.0,0,30,0.0,0.0
4829,66.0,11,15,1.0,0.0
4830,60.0,1,20,2.0,0.0
4831,42.0,0,20,3.0,0.0
4832,30.0,0,20,4.0,0.0
4833,75.0,3,30,5.0,0.0
4834,54.0,7,20,6.0,0.0
4835,67.0,2,15,1.0,0.0
4836,69.0,11,15,1.0,0.0
4837,42.0,0,20,3.0,0.0
4838,30.0,0,20,4.0,0.0
4839,54.0,1,20,6.0,0.0
4840,74.0,0,15,0.0,0.0
4841,70.0,0,15,1.0,0.0
4842,74.0,12,15,5.0,0.0
4843,72.0,0,15,0.0,0.0
4844,72.0,0,15,1.0,0.0
4845,69.0,0,20,2.0,0.0
4846,57.0,0,20,3.0,0.0
4847,45.0,0,20,4.0,0.0
4848,72.0,11,15,5.0,0.0
4849,57.0,1,20,6.0,0.0
4850,70.0,0,15,0.0,0.0
4851,74.0,0,15,1.0,0.0
4852,70.0,12,15,5.0,0.0
4853,69.0,0,15,0.0,0.0
4854,75.0,0,15,1.0,0.0
4855,66.0,1,20,2.0,0.0
4856,48.0,0,20,3.0,0.0
4857,36.0,0,20,4.0,0.0
4858,69.0,11,15,5.0,0.0
4859,48.0,10,20,6.0,0.0
4860,70.0,0,15,0.0,0.0
4861,74.0,0,15,1.0,0.0
4862,70.0,2,15,5.0,0.0
4863,72.0,0,30,0.0,0.0
4864,72.0,11,15,1.0,0.0
4865,69.0,1,20,2.0,0.0
4866,48.0,0,20,3.0,0.0
4867,36.0,0,20,4.0,0.0
4868,72.0,3,30,5.0,0.0
4869,48.0,7,20,6.0,0.0
4870,70.0,2,15,1.0,0.0
4871,69.0,11,15,1.0,0.0
4872,48.0,0,20,3.0,0.0
4873,36.0,0,20,4.0,0.0
4874,48.0,1,20,6.0,0.0
4875,70.0,0,15,0.0,0.0
4876,67.0,0,15,1.0,0.0
4877,70.0,12,15,5.0,0.0
4878,69.0,0,15,0.0,0.0
4879,66.0,0,15,1.0,0.0
4880,72.0,0,20,2.0,0.0
4881,51.0,0,20,3.0,0.0
4882,39.0,0,20,4.0,0.0
4883,69.0,11,15,5.0,0.0
4884,51.0,1,20,6.0,0.0
4885,67.0,0,15,0.0,0.0
4886,67.0,0,15,1.0,0.0
4887,67.0,23,15,5.0,0.0
4888,66.0,0,20,0.0,0.0
4889,72.0,0,20,1.0,0.0
4890,60.0,0,20,2.0,0.0
4891,45.0,0,20,3.0,0.0
4892,33.0,0,20,4.0,0.0
4893,66.0,0,20,5.0,0.0
4894,45.0,13,20,6.0,0.0
4895,74.0,0,20,0.0,0.0
4896,67.0,0,20,1.0,0.0
4897,62.0,0,20,2.0,0.0
4898,46.0,0,15,3.0,0.0
4899,34.0,0,15,4.0,0.0
4900,74.0,0,20,5.0,0.0
4901,67.0,0,20,5.0,0.0
4902,62.0,1,20,5.0,0.0
4903,46.0,11,15,6.0,0.0
4904,48.0,0,15,3.0,0.0
4905,36.0,0,15,4.0,0.0
4906,48.0,23,15,6.0,0.0
4907,70.0,0,20,0.0,0.0
4908,67.0,0,20,1.0,0.0
4909,62.0,0,20,2.0,0.0
4910,50.0,0,20,3.0,0.0
4911,38.0,0,20,4.0,0.0
4912,70.0,0,20,5.0,0.0
4913,67.0,0,20,5.0,0.0
4914,62.0,0,20,5.0,0.0
4915,50.0,13,20,6.0,0.0
4916,69.0,0,15,0.0,0.0
4917,66.0,0,20,1.0,0.0
4918,62.0,0,20,2.0,0.0
4919,38.0,0,20,3.0,0.0
4920,26.0,0,20,4.0,0.0
4921,69.0,11,15,5.0,0.0
4922,66.0,0,20,5.0,0.0
4923,60.0,0,20,5.0,0.0
4924,38.0,1,20,6.0,0.0
4925,67.0,0,15,0.0,0.0
4926,67.0,74,15,5.0,0.0
4927,67.0,0,60,0.0,0.0
4928,62.0,0,60,1.0,0.0
4929,58.0,0,60,2.0,0.0
4930,43.0,0,60,3.0,0.0
4931,31.0,0,60,4.0,0.0
4932,67.0,0,60,5.0,0.0
4933,62.0,0,60,5.0,0.0
4934,58.0,0,60,5.0,0.0
4935,43.0,192,60,6.0,0.0
