tick,type,time,meta,track,numerator,denominator,clocks_per_click,notated_32nd_notes_per_beat,channel,data,port,tempo,program,control,value,note,velocity
0,track_name,0,1,0,,,,,,,,,,,,,
0,time_signature,0,1,0,3,8,24,8,,,,,,,,,
0,channel_prefix,0,1,0,,,,,0,,,,,,,,
0,copyright,0,1,0,,,,,,,,,,,,,
0,channel_prefix,0,1,0,,,,,0,,,,,,,,
0,track_name,0,1,0,,,,,,,,,,,,,
0,channel_prefix,0,1,0,,,,,0,,,,,,,,
0,instrument_name,0,1,0,,,,,,,,,,,,,
0,sysex,0,0,0,,,,,,"(126, 127, 9, 1)",,,,,,,
0,midi_port,0,1,0,,,,,,,0,,,,,,
0,set_tempo,0,1,0,,,,,,,,750000,,,,,
0,program_change,0,0,0,,,,,0,,,,48,,,,
0,control_change,0,0,0,,,,,0,,,,,7,110,,
0,channel_prefix,0,1,0,,,,,1,,,,,,,,
0,track_name,0,1,0,,,,,,,,,,,,,
0,channel_prefix,0,1,0,,,,,1,,,,,,,,
0,instrument_name,0,1,0,,,,,,,,,,,,,
0,midi_port,0,1,0,,,,,,,0,,,,,,
0,program_change,0,0,0,,,,,1,,,,48,,,,
0,control_change,0,0,0,,,,,1,,,,,7,110,,
0,channel_prefix,0,1,0,,,,,2,,,,,,,,
0,track_name,0,1,0,,,,,,,,,,,,,
0,channel_prefix,0,1,0,,,,,2,,,,,,,,
0,instrument_name,0,1,0,,,,,,,,,,,,,
0,midi_port,0,1,0,,,,,,,0,,,,,,
0,program_change,0,0,0,,,,,2,,,,48,,,,
0,control_change,0,0,0,,,,,2,,,,,7,110,,
0,channel_prefix,0,1,0,,,,,3,,,,,,,,
0,track_name,0,1,0,,,,,,,,,,,,,
0,channel_prefix,0,1,0,,,,,3,,,,,,,,
0,instrument_name,0,1,0,,,,,,,,,,,,,
0,midi_port,0,1,0,,,,,,,0,,,,,,
0,program_change,0,0,0,,,,,3,,,,42,,,,
0,channel_prefix,0,1,0,,,,,4,,,,,,,,
0,track_name,0,1,0,,,,,,,,,,,,,
0,channel_prefix,0,1,0,,,,,4,,,,,,,,
0,instrument_name,0,1,0,,,,,,,,,,,,,
0,midi_port,0,1,0,,,,,,,0,,,,,,
0,program_change,0,0,0,,,,,4,,,,43,,,,
0,channel_prefix,0,1,0,,,,,5,,,,,,,,
0,track_name,0,1,0,,,,,,,,,,,,,
0,channel_prefix,0,1,0,,,,,5,,,,,,,,
0,instrument_name,0,1,0,,,,,,,,,,,,,
0,midi_port,0,1,0,,,,,,,0,,,,,,
0,program_change,0,0,0,,,,,5,,,,6,,,,
0,note_on,0,0,0,,,,,5,,,,,,,76,96
0,channel_prefix,0,1,0,,,,,6,,,,,,,,
0,track_name,0,1,0,,,,,,,,,,,,,
0,channel_prefix,0,1,0,,,,,6,,,,,,,,
0,instrument_name,0,1,0,,,,,,,,,,,,,
0,midi_port,0,1,0,,,,,,,0,,,,,,
0,program_change,0,0,0,,,,,6,,,,6,,,,
0,midi_port,0,1,0,,,,,,,0,,,,,,
0,program_change,0,0,0,,,,,6,,,,6,,,,
7,note_off,7,0,0,,,,,5,,,,,,,76,0
8,note_on,1,0,0,,,,,5,,,,,,,71,96
15,note_off,7,0,0,,,,,5,,,,,,,71,0
16,note_on,1,0,0,,,,,5,,,,,,,68,96
23,note_off,7,0,0,,,,,5,,,,,,,68,0
24,note_on,1,0,0,,,,,0,,,,,,,64,96
24,note_on,0,0,0,,,,,1,,,,,,,59,96
24,note_on,0,0,0,,,,,2,,,,,,,56,96
24,note_on,0,0,0,,,,,3,,,,,,,52,96
24,note_on,0,0,0,,,,,4,,,,,,,40,96
24,note_on,0,0,0,,,,,6,,,,,,,64,96
31,note_off,7,0,0,,,,,6,,,,,,,64,0
32,note_on,1,0,0,,,,,6,,,,,,,59,96
39,note_off,7,0,0,,,,,6,,,,,,,59,0
40,note_on,1,0,0,,,,,6,,,,,,,56,96
45,note_off,5,0,0,,,,,0,,,,,,,64,0
45,note_off,0,0,0,,,,,1,,,,,,,59,0
45,note_off,0,0,0,,,,,2,,,,,,,56,0
45,note_off,0,0,0,,,,,3,,,,,,,52,0
45,note_off,0,0,0,,,,,4,,,,,,,40,0
47,note_off,2,0,0,,,,,6,,,,,,,56,0
48,note_on,1,0,0,,,,,0,,,,,,,68,96
48,note_on,0,0,0,,,,,1,,,,,,,64,96
48,note_on,0,0,0,,,,,2,,,,,,,59,96
48,note_on,0,0,0,,,,,3,,,,,,,52,96
48,note_on,0,0,0,,,,,4,,,,,,,40,96
48,note_on,0,0,0,,,,,6,,,,,,,52,96
55,note_off,7,0,0,,,,,6,,,,,,,52,0
56,note_on,1,0,0,,,,,6,,,,,,,47,96
63,note_off,7,0,0,,,,,6,,,,,,,47,0
64,note_on,1,0,0,,,,,6,,,,,,,44,96
69,note_off,5,0,0,,,,,0,,,,,,,68,0
69,note_off,0,0,0,,,,,1,,,,,,,64,0
69,note_off,0,0,0,,,,,2,,,,,,,59,0
69,note_off,0,0,0,,,,,3,,,,,,,52,0
69,note_off,0,0,0,,,,,4,,,,,,,40,0
71,note_off,2,0,0,,,,,6,,,,,,,44,0
72,note_on,1,0,0,,,,,0,,,,,,,71,96
72,note_on,0,0,0,,,,,1,,,,,,,68,96
72,note_on,0,0,0,,,,,2,,,,,,,64,96
72,note_on,0,0,0,,,,,3,,,,,,,52,96
72,note_on,0,0,0,,,,,4,,,,,,,40,96
72,note_on,0,0,0,,,,,6,,,,,,,40,96
79,note_off,7,0,0,,,,,6,,,,,,,40,0
80,note_on,1,0,0,,,,,6,,,,,,,44,96
87,note_off,7,0,0,,,,,6,,,,,,,44,0
88,note_on,1,0,0,,,,,6,,,,,,,47,96
93,note_off,5,0,0,,,,,0,,,,,,,71,0
93,note_off,0,0,0,,,,,1,,,,,,,68,0
93,note_off,0,0,0,,,,,2,,,,,,,64,0
93,note_off,0,0,0,,,,,3,,,,,,,52,0
93,note_off,0,0,0,,,,,4,,,,,,,40,0
95,note_off,2,0,0,,,,,6,,,,,,,47,0
96,note_on,1,0,0,,,,,0,,,,,,,64,96
96,note_on,0,0,0,,,,,1,,,,,,,71,96
96,note_on,0,0,0,,,,,2,,,,,,,68,96
96,note_on,0,0,0,,,,,3,,,,,,,52,96
96,note_on,0,0,0,,,,,4,,,,,,,40,96
96,note_on,0,0,0,,,,,6,,,,,,,52,96
103,note_off,7,0,0,,,,,6,,,,,,,52,0
104,note_on,1,0,0,,,,,6,,,,,,,56,96
106,note_off,2,0,0,,,,,0,,,,,,,64,0
108,note_on,2,0,0,,,,,0,,,,,,,66,96
111,note_off,3,0,0,,,,,6,,,,,,,56,0
112,note_on,1,0,0,,,,,6,,,,,,,59,96
117,note_off,5,0,0,,,,,1,,,,,,,71,0
117,note_off,0,0,0,,,,,2,,,,,,,68,0
117,note_off,0,0,0,,,,,3,,,,,,,52,0
117,note_off,0,0,0,,,,,4,,,,,,,40,0
118,note_off,1,0,0,,,,,0,,,,,,,66,0
119,note_off,1,0,0,,,,,6,,,,,,,59,0
120,note_on,1,0,0,,,,,0,,,,,,,68,96
120,note_on,0,0,0,,,,,1,,,,,,,64,96
120,note_on,0,0,0,,,,,2,,,,,,,71,96
120,note_on,0,0,0,,,,,3,,,,,,,52,96
120,note_on,0,0,0,,,,,4,,,,,,,40,96
120,note_on,0,0,0,,,,,5,,,,,,,64,96
127,note_off,7,0,0,,,,,5,,,,,,,64,0
128,note_on,1,0,0,,,,,5,,,,,,,68,96
130,note_off,2,0,0,,,,,0,,,,,,,68,0
130,note_off,0,0,0,,,,,1,,,,,,,64,0
132,note_on,2,0,0,,,,,0,,,,,,,69,96
132,note_on,0,0,0,,,,,1,,,,,,,66,96
135,note_off,3,0,0,,,,,5,,,,,,,68,0
136,note_on,1,0,0,,,,,5,,,,,,,71,96
141,note_off,5,0,0,,,,,2,,,,,,,71,0
141,note_off,0,0,0,,,,,3,,,,,,,52,0
141,note_off,0,0,0,,,,,4,,,,,,,40,0
142,note_off,1,0,0,,,,,0,,,,,,,69,0
142,note_off,0,0,0,,,,,1,,,,,,,66,0
143,note_off,1,0,0,,,,,5,,,,,,,71,0
144,note_on,1,0,0,,,,,0,,,,,,,71,96
144,note_on,0,0,0,,,,,1,,,,,,,68,96
144,note_on,0,0,0,,,,,2,,,,,,,64,96
144,note_on,0,0,0,,,,,3,,,,,,,52,96
144,note_on,0,0,0,,,,,4,,,,,,,40,96
144,note_on,0,0,0,,,,,5,,,,,,,76,96
151,note_off,7,0,0,,,,,5,,,,,,,76,0
152,note_on,1,0,0,,,,,5,,,,,,,71,96
154,note_off,2,0,0,,,,,1,,,,,,,68,0
154,note_off,0,0,0,,,,,2,,,,,,,64,0
156,note_on,2,0,0,,,,,1,,,,,,,69,96
156,note_on,0,0,0,,,,,2,,,,,,,66,96
159,note_off,3,0,0,,,,,5,,,,,,,71,0
160,note_on,1,0,0,,,,,5,,,,,,,75,96
165,note_off,5,0,0,,,,,0,,,,,,,71,0
165,note_off,0,0,0,,,,,3,,,,,,,52,0
165,note_off,0,0,0,,,,,4,,,,,,,40,0
166,note_off,1,0,0,,,,,1,,,,,,,69,0
166,note_off,0,0,0,,,,,2,,,,,,,66,0
167,note_off,1,0,0,,,,,5,,,,,,,75,0
168,note_on,1,0,0,,,,,0,,,,,,,76,96
168,note_on,0,0,0,,,,,1,,,,,,,71,96
168,note_on,0,0,0,,,,,2,,,,,,,68,96
168,note_on,0,0,0,,,,,3,,,,,,,52,96
168,note_on,0,0,0,,,,,4,,,,,,,40,96
168,note_on,0,0,0,,,,,5,,,,,,,76,96
168,note_on,0,0,0,,,,,6,,,,,,,59,96
168,note_on,0,0,0,,,,,6,,,,,,,56,96
168,note_on,0,0,0,,,,,6,,,,,,,52,96
175,note_off,7,0,0,,,,,5,,,,,,,76,0
176,note_on,1,0,0,,,,,5,,,,,,,71,96
178,note_off,2,0,0,,,,,2,,,,,,,68,0
180,note_on,2,0,0,,,,,2,,,,,,,69,96
183,note_off,3,0,0,,,,,5,,,,,,,71,0
184,note_on,1,0,0,,,,,5,,,,,,,76,96
189,note_off,5,0,0,,,,,0,,,,,,,76,0
189,note_off,0,0,0,,,,,1,,,,,,,71,0
189,note_off,0,0,0,,,,,3,,,,,,,52,0
189,note_off,0,0,0,,,,,4,,,,,,,40,0
189,note_off,0,0,0,,,,,6,,,,,,,59,0
189,note_off,0,0,0,,,,,6,,,,,,,56,0
189,note_off,0,0,0,,,,,6,,,,,,,52,0
190,note_off,1,0,0,,,,,2,,,,,,,69,0
191,note_off,1,0,0,,,,,5,,,,,,,76,0
192,note_on,1,0,0,,,,,0,,,,,,,80,96
192,note_on,0,0,0,,,,,1,,,,,,,76,96
192,note_on,0,0,0,,,,,2,,,,,,,71,96
192,note_on,0,0,0,,,,,3,,,,,,,52,96
192,note_on,0,0,0,,,,,4,,,,,,,40,96
192,note_on,0,0,0,,,,,5,,,,,,,80,96
192,note_on,0,0,0,,,,,6,,,,,,,59,96
192,note_on,0,0,0,,,,,6,,,,,,,56,96
192,note_on,0,0,0,,,,,6,,,,,,,52,96
199,note_off,7,0,0,,,,,5,,,,,,,80,0
200,note_on,1,0,0,,,,,5,,,,,,,76,96
207,note_off,7,0,0,,,,,5,,,,,,,76,0
208,note_on,1,0,0,,,,,5,,,,,,,80,96
213,note_off,5,0,0,,,,,0,,,,,,,80,0
213,note_off,0,0,0,,,,,1,,,,,,,76,0
213,note_off,0,0,0,,,,,2,,,,,,,71,0
213,note_off,0,0,0,,,,,3,,,,,,,52,0
213,note_off,0,0,0,,,,,4,,,,,,,40,0
213,note_off,0,0,0,,,,,6,,,,,,,59,0
213,note_off,0,0,0,,,,,6,,,,,,,56,0
213,note_off,0,0,0,,,,,6,,,,,,,52,0
215,note_off,2,0,0,,,,,5,,,,,,,80,0
216,note_on,1,0,0,,,,,0,,,,,,,83,96
216,note_on,0,0,0,,,,,1,,,,,,,80,96
216,note_on,0,0,0,,,,,2,,,,,,,76,96
216,note_on,0,0,0,,,,,3,,,,,,,52,96
216,note_on,0,0,0,,,,,4,,,,,,,40,96
216,note_on,0,0,0,,,,,5,,,,,,,83,96
216,note_on,0,0,0,,,,,6,,,,,,,59,96
216,note_on,0,0,0,,,,,6,,,,,,,56,96
216,note_on,0,0,0,,,,,6,,,,,,,52,96
237,note_off,21,0,0,,,,,0,,,,,,,83,0
237,note_off,0,0,0,,,,,1,,,,,,,80,0
237,note_off,0,0,0,,,,,2,,,,,,,76,0
237,note_off,0,0,0,,,,,3,,,,,,,52,0
237,note_off,0,0,0,,,,,4,,,,,,,40,0
237,note_off,0,0,0,,,,,5,,,,,,,83,0
237,note_off,0,0,0,,,,,6,,,,,,,59,0
237,note_off,0,0,0,,,,,6,,,,,,,56,0
237,note_off,0,0,0,,,,,6,,,,,,,52,0
240,note_on,3,0,0,,,,,0,,,,,,,81,96
240,note_on,0,0,0,,,,,1,,,,,,,76,96
240,note_on,0,0,0,,,,,2,,,,,,,64,96
240,note_on,0,0,0,,,,,3,,,,,,,49,96
240,note_on,0,0,0,,,,,4,,,,,,,37,96
240,note_on,0,0,0,,,,,5,,,,,,,81,96
240,note_on,0,0,0,,,,,6,,,,,,,49,96
250,note_off,10,0,0,,,,,0,,,,,,,81,0
250,note_off,0,0,0,,,,,5,,,,,,,81,0
252,note_on,2,0,0,,,,,0,,,,,,,80,96
252,note_on,0,0,0,,,,,5,,,,,,,80,96
261,note_off,9,0,0,,,,,1,,,,,,,76,0
261,note_off,0,0,0,,,,,2,,,,,,,64,0
261,note_off,0,0,0,,,,,3,,,,,,,49,0
261,note_off,0,0,0,,,,,4,,,,,,,37,0
261,note_off,0,0,0,,,,,6,,,,,,,49,0
262,note_off,1,0,0,,,,,0,,,,,,,80,0
262,note_off,0,0,0,,,,,5,,,,,,,80,0
264,note_on,2,0,0,,,,,0,,,,,,,78,96
264,note_on,0,0,0,,,,,1,,,,,,,73,96
264,note_on,0,0,0,,,,,2,,,,,,,69,96
264,note_on,0,0,0,,,,,3,,,,,,,45,96
264,note_on,0,0,0,,,,,4,,,,,,,33,96
264,note_on,0,0,0,,,,,5,,,,,,,78,96
264,note_on,0,0,0,,,,,6,,,,,,,45,96
274,note_off,10,0,0,,,,,0,,,,,,,78,0
274,note_off,0,0,0,,,,,5,,,,,,,78,0
276,note_on,2,0,0,,,,,0,,,,,,,76,96
276,note_on,0,0,0,,,,,5,,,,,,,76,96
285,note_off,9,0,0,,,,,1,,,,,,,73,0
285,note_off,0,0,0,,,,,2,,,,,,,69,0
285,note_off,0,0,0,,,,,3,,,,,,,45,0
285,note_off,0,0,0,,,,,4,,,,,,,33,0
285,note_off,0,0,0,,,,,6,,,,,,,45,0
286,note_off,1,0,0,,,,,0,,,,,,,76,0
286,note_off,0,0,0,,,,,5,,,,,,,76,0
288,note_on,2,0,0,,,,,0,,,,,,,75,96
288,note_on,0,0,0,,,,,1,,,,,,,71,96
288,note_on,0,0,0,,,,,2,,,,,,,66,96
288,note_on,0,0,0,,,,,3,,,,,,,47,96
288,note_on,0,0,0,,,,,4,,,,,,,35,96
288,note_on,0,0,0,,,,,5,,,,,,,75,96
288,note_on,0,0,0,,,,,6,,,,,,,47,96
298,note_off,10,0,0,,,,,0,,,,,,,75,0
298,note_off,0,0,0,,,,,5,,,,,,,75,0
300,note_on,2,0,0,,,,,0,,,,,,,71,96
300,note_on,0,0,0,,,,,5,,,,,,,71,96
309,note_off,9,0,0,,,,,1,,,,,,,71,0
309,note_off,0,0,0,,,,,2,,,,,,,66,0
309,note_off,0,0,0,,,,,3,,,,,,,47,0
309,note_off,0,0,0,,,,,4,,,,,,,35,0
309,note_off,0,0,0,,,,,6,,,,,,,47,0
310,note_off,1,0,0,,,,,0,,,,,,,71,0
310,note_off,0,0,0,,,,,5,,,,,,,71,0
312,note_on,2,0,0,,,,,0,,,,,,,78,96
312,note_on,0,0,0,,,,,1,,,,,,,75,96
312,note_on,0,0,0,,,,,2,,,,,,,59,96
312,note_on,0,0,0,,,,,3,,,,,,,59,96
312,note_on,0,0,0,,,,,4,,,,,,,47,96
312,note_on,0,0,0,,,,,5,,,,,,,78,96
312,note_on,0,0,0,,,,,6,,,,,,,59,96
322,note_off,10,0,0,,,,,1,,,,,,,75,0
324,note_on,2,0,0,,,,,1,,,,,,,76,96
333,note_off,9,0,0,,,,,0,,,,,,,78,0
333,note_off,0,0,0,,,,,2,,,,,,,59,0
333,note_off,0,0,0,,,,,3,,,,,,,59,0
333,note_off,0,0,0,,,,,4,,,,,,,47,0
333,note_off,0,0,0,,,,,5,,,,,,,78,0
333,note_off,0,0,0,,,,,6,,,,,,,59,0
334,note_off,1,0,0,,,,,1,,,,,,,76,0
336,note_on,2,0,0,,,,,0,,,,,,,78,96
336,note_on,0,0,0,,,,,1,,,,,,,78,96
336,note_on,0,0,0,,,,,2,,,,,,,63,96
336,note_on,0,0,0,,,,,3,,,,,,,57,96
336,note_on,0,0,0,,,,,4,,,,,,,45,96
336,note_on,0,0,0,,,,,5,,,,,,,78,96
336,note_on,0,0,0,,,,,6,,,,,,,57,96
346,note_off,10,0,0,,,,,1,,,,,,,78,0
348,note_on,2,0,0,,,,,1,,,,,,,75,96
357,note_off,9,0,0,,,,,0,,,,,,,78,0
357,note_off,0,0,0,,,,,2,,,,,,,63,0
357,note_off,0,0,0,,,,,3,,,,,,,57,0
357,note_off,0,0,0,,,,,4,,,,,,,45,0
357,note_off,0,0,0,,,,,5,,,,,,,78,0
357,note_off,0,0,0,,,,,6,,,,,,,57,0
358,note_off,1,0,0,,,,,1,,,,,,,75,0
360,note_on,2,0,0,,,,,0,,,,,,,78,96
360,note_on,0,0,0,,,,,1,,,,,,,71,96
360,note_on,0,0,0,,,,,2,,,,,,,63,96
360,note_on,0,0,0,,,,,3,,,,,,,56,96
360,note_on,0,0,0,,,,,4,,,,,,,44,96
360,note_on,0,0,0,,,,,5,,,,,,,78,96
360,note_on,0,0,0,,,,,6,,,,,,,56,96
381,note_off,21,0,0,,,,,0,,,,,,,78,0
381,note_off,0,0,0,,,,,1,,,,,,,71,0
381,note_off,0,0,0,,,,,2,,,,,,,63,0
381,note_off,0,0,0,,,,,3,,,,,,,56,0
381,note_off,0,0,0,,,,,4,,,,,,,44,0
381,note_off,0,0,0,,,,,5,,,,,,,78,0
381,note_off,0,0,0,,,,,6,,,,,,,56,0
384,note_on,3,0,0,,,,,0,,,,,,,80,96
384,note_on,0,0,0,,,,,1,,,,,,,75,96
384,note_on,0,0,0,,,,,2,,,,,,,68,96
384,note_on,0,0,0,,,,,3,,,,,,,59,96
384,note_on,0,0,0,,,,,4,,,,,,,47,96
384,note_on,0,0,0,,,,,5,,,,,,,80,96
384,note_on,0,0,0,,,,,6,,,,,,,59,96
394,note_off,10,0,0,,,,,0,,,,,,,80,0
394,note_off,0,0,0,,,,,5,,,,,,,80,0
396,note_on,2,0,0,,,,,0,,,,,,,81,96
396,note_on,0,0,0,,,,,5,,,,,,,81,96
405,note_off,9,0,0,,,,,1,,,,,,,75,0
405,note_off,0,0,0,,,,,2,,,,,,,68,0
405,note_off,0,0,0,,,,,3,,,,,,,59,0
405,note_off,0,0,0,,,,,4,,,,,,,47,0
405,note_off,0,0,0,,,,,6,,,,,,,59,0
406,note_off,1,0,0,,,,,0,,,,,,,81,0
406,note_off,0,0,0,,,,,5,,,,,,,81,0
408,note_on,2,0,0,,,,,0,,,,,,,83,96
408,note_on,0,0,0,,,,,1,,,,,,,71,96
408,note_on,0,0,0,,,,,2,,,,,,,63,96
408,note_on,0,0,0,,,,,3,,,,,,,56,96
408,note_on,0,0,0,,,,,4,,,,,,,44,96
408,note_on,0,0,0,,,,,5,,,,,,,83,96
408,note_on,0,0,0,,,,,6,,,,,,,56,96
418,note_off,10,0,0,,,,,0,,,,,,,83,0
418,note_off,0,0,0,,,,,5,,,,,,,83,0
420,note_on,2,0,0,,,,,0,,,,,,,80,96
420,note_on,0,0,0,,,,,5,,,,,,,80,96
429,note_off,9,0,0,,,,,1,,,,,,,71,0
429,note_off,0,0,0,,,,,2,,,,,,,63,0
429,note_off,0,0,0,,,,,3,,,,,,,56,0
429,note_off,0,0,0,,,,,4,,,,,,,44,0
429,note_off,0,0,0,,,,,6,,,,,,,56,0
430,note_off,1,0,0,,,,,0,,,,,,,80,0
430,note_off,0,0,0,,,,,5,,,,,,,80,0
432,note_on,2,0,0,,,,,0,,,,,,,76,96
432,note_on,0,0,0,,,,,1,,,,,,,68,96
432,note_on,0,0,0,,,,,2,,,,,,,61,96
432,note_on,0,0,0,,,,,3,,,,,,,49,96
432,note_on,0,0,0,,,,,4,,,,,,,37,96
432,note_on,0,0,0,,,,,5,,,,,,,76,96
432,note_on,0,0,0,,,,,6,,,,,,,49,96
440,note_off,8,0,0,,,,,0,,,,,,,76,0
440,note_on,0,0,0,,,,,0,,,,,,,75,96
440,note_off,0,0,0,,,,,5,,,,,,,76,0
440,note_on,0,0,0,,,,,5,,,,,,,75,96
448,note_off,8,0,0,,,,,0,,,,,,,75,0
448,note_on,0,0,0,,,,,0,,,,,,,73,96
448,note_off,0,0,0,,,,,5,,,,,,,75,0
448,note_on,0,0,0,,,,,5,,,,,,,73,96
453,note_off,5,0,0,,,,,1,,,,,,,68,0
453,note_off,0,0,0,,,,,2,,,,,,,61,0
453,note_off,0,0,0,,,,,3,,,,,,,49,0
453,note_off,0,0,0,,,,,4,,,,,,,37,0
453,note_off,0,0,0,,,,,6,,,,,,,49,0
455,note_off,2,0,0,,,,,0,,,,,,,73,0
455,note_off,0,0,0,,,,,5,,,,,,,73,0
456,note_on,1,0,0,,,,,0,,,,,,,76,96
456,note_on,0,0,0,,,,,1,,,,,,,73,96
456,note_on,0,0,0,,,,,2,,,,,,,68,96
456,note_on,0,0,0,,,,,3,,,,,,,61,96
456,note_on,0,0,0,,,,,4,,,,,,,49,96
456,note_on,0,0,0,,,,,5,,,,,,,76,96
456,note_on,0,0,0,,,,,6,,,,,,,61,96
466,note_off,10,0,0,,,,,1,,,,,,,73,0
468,note_on,2,0,0,,,,,1,,,,,,,75,96
477,note_off,9,0,0,,,,,0,,,,,,,76,0
477,note_off,0,0,0,,,,,2,,,,,,,68,0
477,note_off,0,0,0,,,,,3,,,,,,,61,0
477,note_off,0,0,0,,,,,4,,,,,,,49,0
477,note_off,0,0,0,,,,,5,,,,,,,76,0
477,note_off,0,0,0,,,,,6,,,,,,,61,0
478,note_off,1,0,0,,,,,1,,,,,,,75,0
480,note_on,2,0,0,,,,,0,,,,,,,76,96
480,note_on,0,0,0,,,,,1,,,,,,,76,96
480,note_on,0,0,0,,,,,2,,,,,,,61,96
480,note_on,0,0,0,,,,,3,,,,,,,57,96
480,note_on,0,0,0,,,,,4,,,,,,,45,96
480,note_on,0,0,0,,,,,5,,,,,,,76,96
480,note_on,0,0,0,,,,,6,,,,,,,57,96
490,note_off,10,0,0,,,,,1,,,,,,,76,0
492,note_on,2,0,0,,,,,1,,,,,,,73,96
501,note_off,9,0,0,,,,,0,,,,,,,76,0
501,note_off,0,0,0,,,,,2,,,,,,,61,0
501,note_off,0,0,0,,,,,3,,,,,,,57,0
501,note_off,0,0,0,,,,,4,,,,,,,45,0
501,note_off,0,0,0,,,,,5,,,,,,,76,0
501,note_off,0,0,0,,,,,6,,,,,,,57,0
502,note_off,1,0,0,,,,,1,,,,,,,73,0
504,note_on,2,0,0,,,,,0,,,,,,,76,96
504,note_on,0,0,0,,,,,1,,,,,,,69,96
504,note_on,0,0,0,,,,,2,,,,,,,61,96
504,note_on,0,0,0,,,,,3,,,,,,,54,96
504,note_on,0,0,0,,,,,4,,,,,,,42,96
504,note_on,0,0,0,,,,,5,,,,,,,76,96
504,note_on,0,0,0,,,,,6,,,,,,,54,96
525,note_off,21,0,0,,,,,0,,,,,,,76,0
525,note_off,0,0,0,,,,,1,,,,,,,69,0
525,note_off,0,0,0,,,,,2,,,,,,,61,0
525,note_off,0,0,0,,,,,3,,,,,,,54,0
525,note_off,0,0,0,,,,,4,,,,,,,42,0
525,note_off,0,0,0,,,,,5,,,,,,,76,0
525,note_off,0,0,0,,,,,6,,,,,,,54,0
528,note_on,3,0,0,,,,,0,,,,,,,78,96
528,note_on,0,0,0,,,,,1,,,,,,,73,96
528,note_on,0,0,0,,,,,2,,,,,,,66,96
528,note_on,0,0,0,,,,,3,,,,,,,57,96
528,note_on,0,0,0,,,,,4,,,,,,,45,96
528,note_on,0,0,0,,,,,5,,,,,,,78,96
528,note_on,0,0,0,,,,,6,,,,,,,57,96
538,note_off,10,0,0,,,,,0,,,,,,,78,0
538,note_off,0,0,0,,,,,5,,,,,,,78,0
540,note_on,2,0,0,,,,,0,,,,,,,80,96
540,note_on,0,0,0,,,,,5,,,,,,,80,96
549,note_off,9,0,0,,,,,1,,,,,,,73,0
549,note_off,0,0,0,,,,,2,,,,,,,66,0
549,note_off,0,0,0,,,,,3,,,,,,,57,0
549,note_off,0,0,0,,,,,4,,,,,,,45,0
549,note_off,0,0,0,,,,,6,,,,,,,57,0
550,note_off,1,0,0,,,,,0,,,,,,,80,0
550,note_off,0,0,0,,,,,5,,,,,,,80,0
552,note_on,2,0,0,,,,,0,,,,,,,81,96
552,note_on,0,0,0,,,,,1,,,,,,,69,96
552,note_on,0,0,0,,,,,2,,,,,,,61,96
552,note_on,0,0,0,,,,,3,,,,,,,54,96
552,note_on,0,0,0,,,,,4,,,,,,,42,96
552,note_on,0,0,0,,,,,5,,,,,,,81,96
552,note_on,0,0,0,,,,,6,,,,,,,54,96
562,note_off,10,0,0,,,,,0,,,,,,,81,0
562,note_off,0,0,0,,,,,5,,,,,,,81,0
564,note_on,2,0,0,,,,,0,,,,,,,78,96
564,note_on,0,0,0,,,,,5,,,,,,,78,96
573,note_off,9,0,0,,,,,1,,,,,,,69,0
573,note_off,0,0,0,,,,,2,,,,,,,61,0
573,note_off,0,0,0,,,,,3,,,,,,,54,0
573,note_off,0,0,0,,,,,4,,,,,,,42,0
573,note_off,0,0,0,,,,,6,,,,,,,54,0
574,note_off,1,0,0,,,,,0,,,,,,,78,0
574,note_off,0,0,0,,,,,5,,,,,,,78,0
576,note_on,2,0,0,,,,,0,,,,,,,75,96
576,note_on,0,0,0,,,,,1,,,,,,,66,96
576,note_on,0,0,0,,,,,2,,,,,,,59,96
576,note_on,0,0,0,,,,,3,,,,,,,59,96
576,note_on,0,0,0,,,,,4,,,,,,,47,96
576,note_on,0,0,0,,,,,5,,,,,,,75,96
576,note_on,0,0,0,,,,,6,,,,,,,59,96
586,note_off,10,0,0,,,,,2,,,,,,,59,0
588,note_on,2,0,0,,,,,2,,,,,,,58,96
597,note_off,9,0,0,,,,,0,,,,,,,75,0
597,note_off,0,0,0,,,,,1,,,,,,,66,0
597,note_off,0,0,0,,,,,3,,,,,,,59,0
597,note_off,0,0,0,,,,,4,,,,,,,47,0
597,note_off,0,0,0,,,,,5,,,,,,,75,0
597,note_off,0,0,0,,,,,6,,,,,,,59,0
598,note_off,1,0,0,,,,,2,,,,,,,58,0
600,note_on,2,0,0,,,,,0,,,,,,,78,96
600,note_on,0,0,0,,,,,1,,,,,,,75,96
600,note_on,0,0,0,,,,,2,,,,,,,59,96
600,note_on,0,0,0,,,,,3,,,,,,,47,96
600,note_on,0,0,0,,,,,4,,,,,,,35,96
600,note_on,0,0,0,,,,,5,,,,,,,78,96
600,note_on,0,0,0,,,,,6,,,,,,,47,96
610,note_off,10,0,0,,,,,2,,,,,,,59,0
610,note_off,0,0,0,,,,,3,,,,,,,47,0
610,note_off,0,0,0,,,,,4,,,,,,,35,0
610,note_off,0,0,0,,,,,6,,,,,,,47,0
612,note_on,2,0,0,,,,,2,,,,,,,61,96
612,note_on,0,0,0,,,,,3,,,,,,,46,96
612,note_on,0,0,0,,,,,4,,,,,,,34,96
612,note_on,0,0,0,,,,,6,,,,,,,46,96
621,note_off,9,0,0,,,,,0,,,,,,,78,0
621,note_off,0,0,0,,,,,1,,,,,,,75,0
621,note_off,0,0,0,,,,,5,,,,,,,78,0
622,note_off,1,0,0,,,,,2,,,,,,,61,0
622,note_off,0,0,0,,,,,3,,,,,,,46,0
622,note_off,0,0,0,,,,,4,,,,,,,34,0
622,note_off,0,0,0,,,,,6,,,,,,,46,0
624,note_on,2,0,0,,,,,0,,,,,,,75,96
624,note_on,0,0,0,,,,,1,,,,,,,71,96
624,note_on,0,0,0,,,,,2,,,,,,,63,96
624,note_on,0,0,0,,,,,3,,,,,,,47,96
624,note_on,0,0,0,,,,,4,,,,,,,35,96
624,note_on,0,0,0,,,,,5,,,,,,,75,96
624,note_on,0,0,0,,,,,6,,,,,,,47,96
634,note_off,10,0,0,,,,,2,,,,,,,63,0
634,note_off,0,0,0,,,,,3,,,,,,,47,0
634,note_off,0,0,0,,,,,4,,,,,,,35,0
634,note_off,0,0,0,,,,,6,,,,,,,47,0
636,note_on,2,0,0,,,,,2,,,,,,,64,96
636,note_on,0,0,0,,,,,3,,,,,,,49,96
636,note_on,0,0,0,,,,,4,,,,,,,37,96
636,note_on,0,0,0,,,,,6,,,,,,,49,96
645,note_off,9,0,0,,,,,0,,,,,,,75,0
645,note_off,0,0,0,,,,,1,,,,,,,71,0
645,note_off,0,0,0,,,,,5,,,,,,,75,0
646,note_off,1,0,0,,,,,2,,,,,,,64,0
646,note_off,0,0,0,,,,,3,,,,,,,49,0
646,note_off,0,0,0,,,,,4,,,,,,,37,0
646,note_off,0,0,0,,,,,6,,,,,,,49,0
648,note_on,2,0,0,,,,,0,,,,,,,71,96
648,note_on,0,0,0,,,,,1,,,,,,,66,96
648,note_on,0,0,0,,,,,2,,,,,,,66,96
648,note_on,0,0,0,,,,,3,,,,,,,51,96
648,note_on,0,0,0,,,,,4,,,,,,,39,96
648,note_on,0,0,0,,,,,5,,,,,,,71,96
648,note_on,0,0,0,,,,,6,,,,,,,51,96
658,note_off,10,0,0,,,,,2,,,,,,,66,0
660,note_on,2,0,0,,,,,2,,,,,,,68,96
669,note_off,9,0,0,,,,,0,,,,,,,71,0
669,note_off,0,0,0,,,,,1,,,,,,,66,0
669,note_off,0,0,0,,,,,3,,,,,,,51,0
669,note_off,0,0,0,,,,,4,,,,,,,39,0
669,note_off,0,0,0,,,,,5,,,,,,,71,0
669,note_off,0,0,0,,,,,6,,,,,,,51,0
670,note_off,1,0,0,,,,,2,,,,,,,68,0
672,note_on,2,0,0,,,,,0,,,,,,,75,96
672,note_on,0,0,0,,,,,1,,,,,,,71,96
672,note_on,0,0,0,,,,,2,,,,,,,66,96
672,note_on,0,0,0,,,,,3,,,,,,,47,96
672,note_on,0,0,0,,,,,4,,,,,,,35,96
672,note_on,0,0,0,,,,,5,,,,,,,75,96
672,note_on,0,0,0,,,,,6,,,,,,,47,96
682,note_off,10,0,0,,,,,0,,,,,,,75,0
682,note_off,0,0,0,,,,,2,,,,,,,66,0
682,note_off,0,0,0,,,,,5,,,,,,,75,0
684,note_on,2,0,0,,,,,0,,,,,,,73,96
684,note_on,0,0,0,,,,,2,,,,,,,64,96
684,note_on,0,0,0,,,,,5,,,,,,,73,96
693,note_off,9,0,0,,,,,1,,,,,,,71,0
693,note_off,0,0,0,,,,,3,,,,,,,47,0
693,note_off,0,0,0,,,,,4,,,,,,,35,0
693,note_off,0,0,0,,,,,6,,,,,,,47,0
694,note_off,1,0,0,,,,,0,,,,,,,73,0
694,note_off,0,0,0,,,,,2,,,,,,,64,0
694,note_off,0,0,0,,,,,5,,,,,,,73,0
696,note_on,2,0,0,,,,,0,,,,,,,71,96
696,note_on,0,0,0,,,,,1,,,,,,,66,96
696,note_on,0,0,0,,,,,2,,,,,,,63,96
696,note_on,0,0,0,,,,,3,,,,,,,51,96
696,note_on,0,0,0,,,,,4,,,,,,,39,96
696,note_on,0,0,0,,,,,5,,,,,,,71,96
696,note_on,0,0,0,,,,,6,,,,,,,51,96
706,note_off,10,0,0,,,,,0,,,,,,,71,0
706,note_off,0,0,0,,,,,2,,,,,,,63,0
706,note_off,0,0,0,,,,,5,,,,,,,71,0
708,note_on,2,0,0,,,,,0,,,,,,,69,96
708,note_on,0,0,0,,,,,2,,,,,,,61,96
708,note_on,0,0,0,,,,,5,,,,,,,69,96
717,note_off,9,0,0,,,,,1,,,,,,,66,0
717,note_off,0,0,0,,,,,3,,,,,,,51,0
717,note_off,0,0,0,,,,,4,,,,,,,39,0
717,note_off,0,0,0,,,,,6,,,,,,,51,0
718,note_off,1,0,0,,,,,0,,,,,,,69,0
718,note_off,0,0,0,,,,,2,,,,,,,61,0
718,note_off,0,0,0,,,,,5,,,,,,,69,0
720,note_on,2,0,0,,,,,0,,,,,,,68,96
720,note_on,0,0,0,,,,,1,,,,,,,64,96
720,note_on,0,0,0,,,,,2,,,,,,,59,96
720,note_on,0,0,0,,,,,3,,,,,,,52,96
720,note_on,0,0,0,,,,,4,,,,,,,40,96
720,note_on,0,0,0,,,,,5,,,,,,,68,96
720,note_on,0,0,0,,,,,6,,,,,,,52,96
730,note_off,10,0,0,,,,,1,,,,,,,64,0
732,note_on,2,0,0,,,,,1,,,,,,,63,96
741,note_off,9,0,0,,,,,0,,,,,,,68,0
741,note_off,0,0,0,,,,,2,,,,,,,59,0
741,note_off,0,0,0,,,,,3,,,,,,,52,0
741,note_off,0,0,0,,,,,4,,,,,,,40,0
741,note_off,0,0,0,,,,,5,,,,,,,68,0
741,note_off,0,0,0,,,,,6,,,,,,,52,0
742,note_off,1,0,0,,,,,1,,,,,,,63,0
744,note_on,2,0,0,,,,,0,,,,,,,83,96
744,note_on,0,0,0,,,,,1,,,,,,,64,96
744,note_on,0,0,0,,,,,2,,,,,,,68,96
744,note_on,0,0,0,,,,,3,,,,,,,40,96
744,note_on,0,0,0,,,,,4,,,,,,,28,96
744,note_on,0,0,0,,,,,5,,,,,,,83,96
744,note_on,0,0,0,,,,,6,,,,,,,40,96
754,note_off,10,0,0,,,,,1,,,,,,,64,0
754,note_off,0,0,0,,,,,3,,,,,,,40,0
754,note_off,0,0,0,,,,,4,,,,,,,28,0
754,note_off,0,0,0,,,,,6,,,,,,,40,0
756,note_on,2,0,0,,,,,1,,,,,,,66,96
756,note_on,0,0,0,,,,,3,,,,,,,39,96
756,note_on,0,0,0,,,,,4,,,,,,,27,96
756,note_on,0,0,0,,,,,6,,,,,,,39,96
765,note_off,9,0,0,,,,,0,,,,,,,83,0
765,note_off,0,0,0,,,,,2,,,,,,,68,0
765,note_off,0,0,0,,,,,5,,,,,,,83,0
766,note_off,1,0,0,,,,,1,,,,,,,66,0
766,note_off,0,0,0,,,,,3,,,,,,,39,0
766,note_off,0,0,0,,,,,4,,,,,,,27,0
766,note_off,0,0,0,,,,,6,,,,,,,39,0
768,note_on,2,0,0,,,,,0,,,,,,,80,96
768,note_on,0,0,0,,,,,1,,,,,,,68,96
768,note_on,0,0,0,,,,,2,,,,,,,64,96
768,note_on,0,0,0,,,,,3,,,,,,,40,96
768,note_on,0,0,0,,,,,4,,,,,,,28,96
768,note_on,0,0,0,,,,,5,,,,,,,80,96
768,note_on,0,0,0,,,,,6,,,,,,,40,96
778,note_off,10,0,0,,,,,1,,,,,,,68,0
778,note_off,0,0,0,,,,,3,,,,,,,40,0
778,note_off,0,0,0,,,,,4,,,,,,,28,0
778,note_off,0,0,0,,,,,6,,,,,,,40,0
780,note_on,2,0,0,,,,,1,,,,,,,69,96
780,note_on,0,0,0,,,,,3,,,,,,,42,96
780,note_on,0,0,0,,,,,4,,,,,,,30,96
780,note_on,0,0,0,,,,,6,,,,,,,42,96
789,note_off,9,0,0,,,,,0,,,,,,,80,0
789,note_off,0,0,0,,,,,2,,,,,,,64,0
789,note_off,0,0,0,,,,,5,,,,,,,80,0
790,note_off,1,0,0,,,,,1,,,,,,,69,0
790,note_off,0,0,0,,,,,3,,,,,,,42,0
790,note_off,0,0,0,,,,,4,,,,,,,30,0
790,note_off,0,0,0,,,,,6,,,,,,,42,0
792,note_on,2,0,0,,,,,0,,,,,,,76,96
792,note_on,0,0,0,,,,,1,,,,,,,71,96
792,note_on,0,0,0,,,,,2,,,,,,,59,96
792,note_on,0,0,0,,,,,3,,,,,,,44,96
792,note_on,0,0,0,,,,,4,,,,,,,32,96
792,note_on,0,0,0,,,,,5,,,,,,,76,96
792,note_on,0,0,0,,,,,6,,,,,,,44,96
802,note_off,10,0,0,,,,,1,,,,,,,71,0
804,note_on,2,0,0,,,,,1,,,,,,,73,96
813,note_off,9,0,0,,,,,0,,,,,,,76,0
813,note_off,0,0,0,,,,,2,,,,,,,59,0
813,note_off,0,0,0,,,,,3,,,,,,,44,0
813,note_off,0,0,0,,,,,4,,,,,,,32,0
813,note_off,0,0,0,,,,,5,,,,,,,76,0
813,note_off,0,0,0,,,,,6,,,,,,,44,0
814,note_off,1,0,0,,,,,1,,,,,,,73,0
816,note_on,2,0,0,,,,,0,,,,,,,80,96
816,note_on,0,0,0,,,,,1,,,,,,,71,96
816,note_on,0,0,0,,,,,2,,,,,,,64,96
816,note_on,0,0,0,,,,,3,,,,,,,40,96
816,note_on,0,0,0,,,,,4,,,,,,,28,96
816,note_on,0,0,0,,,,,5,,,,,,,80,96
816,note_on,0,0,0,,,,,6,,,,,,,40,96
826,note_off,10,0,0,,,,,0,,,,,,,80,0
826,note_off,0,0,0,,,,,1,,,,,,,71,0
826,note_off,0,0,0,,,,,5,,,,,,,80,0
828,note_on,2,0,0,,,,,0,,,,,,,78,96
828,note_on,0,0,0,,,,,1,,,,,,,69,96
828,note_on,0,0,0,,,,,5,,,,,,,78,96
837,note_off,9,0,0,,,,,2,,,,,,,64,0
837,note_off,0,0,0,,,,,3,,,,,,,40,0
837,note_off,0,0,0,,,,,4,,,,,,,28,0
837,note_off,0,0,0,,,,,6,,,,,,,40,0
838,note_off,1,0,0,,,,,0,,,,,,,78,0
838,note_off,0,0,0,,,,,1,,,,,,,69,0
838,note_off,0,0,0,,,,,5,,,,,,,78,0
840,note_on,2,0,0,,,,,0,,,,,,,76,96
840,note_on,0,0,0,,,,,1,,,,,,,68,96
840,note_on,0,0,0,,,,,2,,,,,,,59,96
840,note_on,0,0,0,,,,,3,,,,,,,44,96
840,note_on,0,0,0,,,,,4,,,,,,,32,96
840,note_on,0,0,0,,,,,5,,,,,,,76,96
840,note_on,0,0,0,,,,,6,,,,,,,44,96
850,note_off,10,0,0,,,,,0,,,,,,,76,0
850,note_off,0,0,0,,,,,1,,,,,,,68,0
850,note_off,0,0,0,,,,,5,,,,,,,76,0
852,note_on,2,0,0,,,,,0,,,,,,,75,96
852,note_on,0,0,0,,,,,1,,,,,,,66,96
852,note_on,0,0,0,,,,,5,,,,,,,75,96
861,note_off,9,0,0,,,,,2,,,,,,,59,0
861,note_off,0,0,0,,,,,3,,,,,,,44,0
861,note_off,0,0,0,,,,,4,,,,,,,32,0
861,note_off,0,0,0,,,,,6,,,,,,,44,0
862,note_off,1,0,0,,,,,0,,,,,,,75,0
862,note_off,0,0,0,,,,,1,,,,,,,66,0
862,note_off,0,0,0,,,,,5,,,,,,,75,0
864,note_on,2,0,0,,,,,0,,,,,,,73,96
864,note_on,0,0,0,,,,,1,,,,,,,64,96
864,note_on,0,0,0,,,,,2,,,,,,,61,96
864,note_on,0,0,0,,,,,3,,,,,,,45,96
864,note_on,0,0,0,,,,,4,,,,,,,33,96
864,note_on,0,0,0,,,,,5,,,,,,,73,96
864,note_on,0,0,0,,,,,6,,,,,,,45,96
874,note_off,10,0,0,,,,,0,,,,,,,73,0
874,note_off,0,0,0,,,,,5,,,,,,,73,0
874,note_off,0,0,0,,,,,6,,,,,,,45,0
876,note_on,2,0,0,,,,,0,,,,,,,76,96
876,note_on,0,0,0,,,,,5,,,,,,,76,96
876,note_on,0,0,0,,,,,6,,,,,,,49,96
885,note_off,9,0,0,,,,,1,,,,,,,64,0
885,note_off,0,0,0,,,,,2,,,,,,,61,0
885,note_off,0,0,0,,,,,3,,,,,,,45,0
885,note_off,0,0,0,,,,,4,,,,,,,33,0
886,note_off,1,0,0,,,,,0,,,,,,,76,0
886,note_off,0,0,0,,,,,5,,,,,,,76,0
886,note_off,0,0,0,,,,,6,,,,,,,49,0
888,note_on,2,0,0,,,,,0,,,,,,,81,96
888,note_on,0,0,0,,,,,1,,,,,,,63,96
888,note_on,0,0,0,,,,,2,,,,,,,57,96
888,note_on,0,0,0,,,,,3,,,,,,,54,96
888,note_on,0,0,0,,,,,4,,,,,,,42,96
888,note_on,0,0,0,,,,,5,,,,,,,81,96
888,note_on,0,0,0,,,,,6,,,,,,,54,96
898,note_off,10,0,0,,,,,0,,,,,,,81,0
898,note_off,0,0,0,,,,,5,,,,,,,81,0
900,note_on,2,0,0,,,,,0,,,,,,,80,96
900,note_on,0,0,0,,,,,5,,,,,,,80,96
909,note_off,9,0,0,,,,,1,,,,,,,63,0
909,note_off,0,0,0,,,,,2,,,,,,,57,0
909,note_off,0,0,0,,,,,3,,,,,,,54,0
909,note_off,0,0,0,,,,,4,,,,,,,42,0
909,note_off,0,0,0,,,,,6,,,,,,,54,0
910,note_off,1,0,0,,,,,0,,,,,,,80,0
910,note_off,0,0,0,,,,,5,,,,,,,80,0
912,note_on,2,0,0,,,,,0,,,,,,,78,96
912,note_on,0,0,0,,,,,5,,,,,,,78,96
922,note_off,10,0,0,,,,,0,,,,,,,78,0
922,note_off,0,0,0,,,,,5,,,,,,,78,0
924,note_on,2,0,0,,,,,0,,,,,,,81,96
924,note_on,0,0,0,,,,,5,,,,,,,81,96
934,note_off,10,0,0,,,,,0,,,,,,,81,0
934,note_off,0,0,0,,,,,5,,,,,,,81,0
936,note_on,2,0,0,,,,,0,,,,,,,71,96
936,note_on,0,0,0,,,,,1,,,,,,,64,96
936,note_on,0,0,0,,,,,2,,,,,,,59,96
936,note_on,0,0,0,,,,,3,,,,,,,44,96
936,note_on,0,0,0,,,,,4,,,,,,,32,96
936,note_on,0,0,0,,,,,5,,,,,,,71,96
936,note_on,0,0,0,,,,,6,,,,,,,44,96
946,note_off,10,0,0,,,,,0,,,,,,,71,0
946,note_off,0,0,0,,,,,5,,,,,,,71,0
946,note_off,0,0,0,,,,,6,,,,,,,44,0
948,note_on,2,0,0,,,,,0,,,,,,,76,96
948,note_on,0,0,0,,,,,5,,,,,,,76,96
948,note_on,0,0,0,,,,,6,,,,,,,47,96
957,note_off,9,0,0,,,,,1,,,,,,,64,0
957,note_off,0,0,0,,,,,2,,,,,,,59,0
957,note_off,0,0,0,,,,,3,,,,,,,44,0
957,note_off,0,0,0,,,,,4,,,,,,,32,0
958,note_off,1,0,0,,,,,0,,,,,,,76,0
958,note_off,0,0,0,,,,,5,,,,,,,76,0
958,note_off,0,0,0,,,,,6,,,,,,,47,0
960,note_on,2,0,0,,,,,0,,,,,,,80,96
960,note_on,0,0,0,,,,,1,,,,,,,71,96
960,note_on,0,0,0,,,,,2,,,,,,,64,96
960,note_on,0,0,0,,,,,3,,,,,,,52,96
960,note_on,0,0,0,,,,,4,,,,,,,40,96
960,note_on,0,0,0,,,,,5,,,,,,,80,96
960,note_on,0,0,0,,,,,6,,,,,,,52,96
970,note_off,10,0,0,,,,,0,,,,,,,80,0
970,note_off,0,0,0,,,,,5,,,,,,,80,0
972,note_on,2,0,0,,,,,0,,,,,,,78,96
972,note_on,0,0,0,,,,,5,,,,,,,78,96
981,note_off,9,0,0,,,,,1,,,,,,,71,0
981,note_off,0,0,0,,,,,2,,,,,,,64,0
981,note_off,0,0,0,,,,,3,,,,,,,52,0
981,note_off,0,0,0,,,,,4,,,,,,,40,0
981,note_off,0,0,0,,,,,6,,,,,,,52,0
982,note_off,1,0,0,,,,,0,,,,,,,78,0
982,note_off,0,0,0,,,,,5,,,,,,,78,0
984,note_on,2,0,0,,,,,0,,,,,,,76,96
984,note_on,0,0,0,,,,,5,,,,,,,76,96
994,note_off,10,0,0,,,,,0,,,,,,,76,0
994,note_off,0,0,0,,,,,5,,,,,,,76,0
996,note_on,2,0,0,,,,,0,,,,,,,80,96
996,note_on,0,0,0,,,,,5,,,,,,,80,96
1006,note_off,10,0,0,,,,,0,,,,,,,80,0
1006,note_off,0,0,0,,,,,5,,,,,,,80,0
1008,note_on,2,0,0,,,,,0,,,,,,,69,96
1008,note_on,0,0,0,,,,,1,,,,,,,66,96
1008,note_on,0,0,0,,,,,2,,,,,,,61,96
1008,note_on,0,0,0,,,,,3,,,,,,,54,96
1008,note_on,0,0,0,,,,,4,,,,,,,42,96
1008,note_on,0,0,0,,,,,5,,,,,,,69,96
1008,note_on,0,0,0,,,,,6,,,,,,,54,96
1018,note_off,10,0,0,,,,,3,,,,,,,54,0
1018,note_off,0,0,0,,,,,4,,,,,,,42,0
1018,note_off,0,0,0,,,,,6,,,,,,,54,0
1020,note_on,2,0,0,,,,,3,,,,,,,56,96
1020,note_on,0,0,0,,,,,4,,,,,,,44,96
1020,note_on,0,0,0,,,,,6,,,,,,,56,96
1029,note_off,9,0,0,,,,,0,,,,,,,69,0
1029,note_off,0,0,0,,,,,1,,,,,,,66,0
1029,note_off,0,0,0,,,,,2,,,,,,,61,0
1029,note_off,0,0,0,,,,,5,,,,,,,69,0
1030,note_off,1,0,0,,,,,3,,,,,,,56,0
1030,note_off,0,0,0,,,,,4,,,,,,,44,0
1030,note_off,0,0,0,,,,,6,,,,,,,56,0
1032,note_on,2,0,0,,,,,0,,,,,,,78,96
1032,note_on,0,0,0,,,,,1,,,,,,,73,96
1032,note_on,0,0,0,,,,,2,,,,,,,61,96
1032,note_on,0,0,0,,,,,3,,,,,,,57,96
1032,note_on,0,0,0,,,,,4,,,,,,,45,96
1032,note_on,0,0,0,,,,,5,,,,,,,78,96
1032,note_on,0,0,0,,,,,6,,,,,,,57,96
1042,note_off,10,0,0,,,,,3,,,,,,,57,0
1042,note_off,0,0,0,,,,,4,,,,,,,45,0
1042,note_off,0,0,0,,,,,6,,,,,,,57,0
1044,note_on,2,0,0,,,,,3,,,,,,,56,96
1044,note_on,0,0,0,,,,,4,,,,,,,44,96
1044,note_on,0,0,0,,,,,6,,,,,,,56,96
1053,note_off,9,0,0,,,,,0,,,,,,,78,0
1053,note_off,0,0,0,,,,,1,,,,,,,73,0
1053,note_off,0,0,0,,,,,2,,,,,,,61,0
1053,note_off,0,0,0,,,,,5,,,,,,,78,0
1054,note_off,1,0,0,,,,,3,,,,,,,56,0
1054,note_off,0,0,0,,,,,4,,,,,,,44,0
1054,note_off,0,0,0,,,,,6,,,,,,,56,0
1056,note_on,2,0,0,,,,,0,,,,,,,78,96
1056,note_on,0,0,0,,,,,1,,,,,,,69,96
1056,note_on,0,0,0,,,,,2,,,,,,,66,96
1056,note_on,0,0,0,,,,,3,,,,,,,54,96
1056,note_on,0,0,0,,,,,4,,,,,,,42,96
1056,note_on,0,0,0,,,,,5,,,,,,,78,96
1056,note_on,0,0,0,,,,,6,,,,,,,54,96
1066,note_off,10,0,0,,,,,3,,,,,,,54,0
1066,note_off,0,0,0,,,,,4,,,,,,,42,0
1066,note_off,0,0,0,,,,,6,,,,,,,54,0
1068,note_on,2,0,0,,,,,3,,,,,,,52,96
1068,note_on,0,0,0,,,,,4,,,,,,,40,96
1068,note_on,0,0,0,,,,,6,,,,,,,52,96
1077,note_off,9,0,0,,,,,0,,,,,,,78,0
1077,note_off,0,0,0,,,,,1,,,,,,,69,0
1077,note_off,0,0,0,,,,,2,,,,,,,66,0
1077,note_off,0,0,0,,,,,5,,,,,,,78,0
1078,note_off,1,0,0,,,,,3,,,,,,,52,0
1078,note_off,0,0,0,,,,,4,,,,,,,40,0
1078,note_off,0,0,0,,,,,6,,,,,,,52,0
1080,note_on,2,0,0,,,,,0,,,,,,,71,96
1080,note_on,0,0,0,,,,,1,,,,,,,71,96
1080,note_on,0,0,0,,,,,2,,,,,,,69,96
1080,note_on,0,0,0,,,,,3,,,,,,,51,96
1080,note_on,0,0,0,,,,,4,,,,,,,39,96
1080,note_on,0,0,0,,,,,5,,,,,,,71,96
1080,note_on,0,0,0,,,,,6,,,,,,,51,96
1090,note_off,10,0,0,,,,,0,,,,,,,71,0
1090,note_off,0,0,0,,,,,3,,,,,,,51,0
1090,note_off,0,0,0,,,,,4,,,,,,,39,0
1090,note_off,0,0,0,,,,,5,,,,,,,71,0
1090,note_off,0,0,0,,,,,6,,,,,,,51,0
1092,note_on,2,0,0,,,,,0,,,,,,,73,96
1092,note_on,0,0,0,,,,,3,,,,,,,52,96
1092,note_on,0,0,0,,,,,4,,,,,,,40,96
1092,note_on,0,0,0,,,,,5,,,,,,,73,96
1092,note_on,0,0,0,,,,,6,,,,,,,52,96
1102,note_off,10,0,0,,,,,0,,,,,,,73,0
1102,note_off,0,0,0,,,,,3,,,,,,,52,0
1102,note_off,0,0,0,,,,,4,,,,,,,40,0
1102,note_off,0,0,0,,,,,5,,,,,,,73,0
1102,note_off,0,0,0,,,,,6,,,,,,,52,0
1104,note_on,2,0,0,,,,,0,,,,,,,75,96
1104,note_on,0,0,0,,,,,3,,,,,,,54,96
1104,note_on,0,0,0,,,,,4,,,,,,,42,96
1104,note_on,0,0,0,,,,,5,,,,,,,75,96
1104,note_on,0,0,0,,,,,6,,,,,,,54,96
1111,note_off,7,0,0,,,,,1,,,,,,,71,0
1111,note_off,0,0,0,,,,,2,,,,,,,69,0
1114,note_off,3,0,0,,,,,0,,,,,,,75,0
1114,note_off,0,0,0,,,,,3,,,,,,,54,0
1114,note_off,0,0,0,,,,,4,,,,,,,42,0
1114,note_off,0,0,0,,,,,5,,,,,,,75,0
1114,note_off,0,0,0,,,,,6,,,,,,,54,0
1116,note_on,2,0,0,,,,,0,,,,,,,76,96
1116,note_on,0,0,0,,,,,1,,,,,,,73,96
1116,note_on,0,0,0,,,,,2,,,,,,,68,96
1116,note_on,0,0,0,,,,,3,,,,,,,52,96
1116,note_on,0,0,0,,,,,4,,,,,,,40,96
1116,note_on,0,0,0,,,,,5,,,,,,,76,96
1116,note_on,0,0,0,,,,,6,,,,,,,52,96
1126,note_off,10,0,0,,,,,0,,,,,,,76,0
1126,note_off,0,0,0,,,,,1,,,,,,,73,0
1126,note_off,0,0,0,,,,,2,,,,,,,68,0
1126,note_off,0,0,0,,,,,3,,,,,,,52,0
1126,note_off,0,0,0,,,,,4,,,,,,,40,0
1126,note_off,0,0,0,,,,,5,,,,,,,76,0
1126,note_off,0,0,0,,,,,6,,,,,,,52,0
1128,note_on,2,0,0,,,,,0,,,,,,,78,96
1128,note_on,0,0,0,,,,,1,,,,,,,75,96
1128,note_on,0,0,0,,,,,2,,,,,,,66,96
1128,note_on,0,0,0,,,,,3,,,,,,,51,96
1128,note_on,0,0,0,,,,,4,,,,,,,39,96
1128,note_on,0,0,0,,,,,5,,,,,,,78,96
1128,note_on,0,0,0,,,,,6,,,,,,,51,96
1138,note_off,10,0,0,,,,,0,,,,,,,78,0
1138,note_off,0,0,0,,,,,1,,,,,,,75,0
1138,note_off,0,0,0,,,,,2,,,,,,,66,0
1138,note_off,0,0,0,,,,,3,,,,,,,51,0
1138,note_off,0,0,0,,,,,4,,,,,,,39,0
1138,note_off,0,0,0,,,,,5,,,,,,,78,0
1138,note_off,0,0,0,,,,,6,,,,,,,51,0
1140,note_on,2,0,0,,,,,0,,,,,,,80,96
1140,note_on,0,0,0,,,,,1,,,,,,,76,96
1140,note_on,0,0,0,,,,,2,,,,,,,64,96
1140,note_on,0,0,0,,,,,3,,,,,,,49,96
1140,note_on,0,0,0,,,,,4,,,,,,,37,96
1140,note_on,0,0,0,,,,,5,,,,,,,80,96
1140,note_on,0,0,0,,,,,6,,,,,,,49,96
1150,note_off,10,0,0,,,,,0,,,,,,,80,0
1150,note_off,0,0,0,,,,,1,,,,,,,76,0
1150,note_off,0,0,0,,,,,2,,,,,,,64,0
1150,note_off,0,0,0,,,,,3,,,,,,,49,0
1150,note_off,0,0,0,,,,,4,,,,,,,37,0
1150,note_off,0,0,0,,,,,5,,,,,,,80,0
1150,note_off,0,0,0,,,,,6,,,,,,,49,0
1152,note_on,2,0,0,,,,,0,,,,,,,81,96
1152,note_on,0,0,0,,,,,1,,,,,,,78,96
1152,note_on,0,0,0,,,,,2,,,,,,,63,96
1152,note_on,0,0,0,,,,,3,,,,,,,47,96
1152,note_on,0,0,0,,,,,4,,,,,,,35,96
1152,note_on,0,0,0,,,,,5,,,,,,,81,96
1152,note_on,0,0,0,,,,,6,,,,,,,47,96
1159,note_off,7,0,0,,,,,0,,,,,,,81,0
1159,note_off,0,0,0,,,,,1,,,,,,,78,0
1159,note_off,0,0,0,,,,,5,,,,,,,81,0
1160,note_on,1,0,0,,,,,0,,,,,,,80,96
1160,note_on,0,0,0,,,,,1,,,,,,,76,96
1160,note_on,0,0,0,,,,,5,,,,,,,80,96
1167,note_off,7,0,0,,,,,0,,,,,,,80,0
1167,note_off,0,0,0,,,,,1,,,,,,,76,0
1167,note_off,0,0,0,,,,,5,,,,,,,80,0
1168,note_on,1,0,0,,,,,0,,,,,,,78,96
1168,note_on,0,0,0,,,,,1,,,,,,,75,96
1168,note_on,0,0,0,,,,,5,,,,,,,78,96
1173,note_off,5,0,0,,,,,2,,,,,,,63,0
1175,note_off,2,0,0,,,,,0,,,,,,,78,0
1175,note_off,0,0,0,,,,,1,,,,,,,75,0
1175,note_off,0,0,0,,,,,5,,,,,,,78,0
1176,note_on,1,0,0,,,,,0,,,,,,,80,96
1176,note_on,0,0,0,,,,,1,,,,,,,76,96
1176,note_on,0,0,0,,,,,2,,,,,,,59,96
1176,note_on,0,0,0,,,,,5,,,,,,,80,96
1183,note_off,7,0,0,,,,,0,,,,,,,80,0
1183,note_off,0,0,0,,,,,1,,,,,,,76,0
1183,note_off,0,0,0,,,,,5,,,,,,,80,0
1184,note_on,1,0,0,,,,,0,,,,,,,78,96
1184,note_on,0,0,0,,,,,1,,,,,,,75,96
1184,note_on,0,0,0,,,,,5,,,,,,,78,96
1191,note_off,7,0,0,,,,,0,,,,,,,78,0
1191,note_off,0,0,0,,,,,1,,,,,,,75,0
1191,note_off,0,0,0,,,,,5,,,,,,,78,0
1192,note_on,1,0,0,,,,,0,,,,,,,76,96
1192,note_on,0,0,0,,,,,1,,,,,,,73,96
1192,note_on,0,0,0,,,,,5,,,,,,,76,96
1194,note_off,2,0,0,,,,,3,,,,,,,47,0
1194,note_off,0,0,0,,,,,4,,,,,,,35,0
1194,note_off,0,0,0,,,,,6,,,,,,,47,0
1197,note_off,3,0,0,,,,,2,,,,,,,59,0
1199,note_off,2,0,0,,,,,0,,,,,,,76,0
1199,note_off,0,0,0,,,,,1,,,,,,,73,0
1199,note_off,0,0,0,,,,,5,,,,,,,76,0
1200,note_on,1,0,0,,,,,0,,,,,,,83,96
1200,note_on,0,0,0,,,,,1,,,,,,,75,96
1200,note_on,0,0,0,,,,,2,,,,,,,66,96
1200,note_on,0,0,0,,,,,3,,,,,,,45,96
1200,note_on,0,0,0,,,,,4,,,,,,,33,96
1200,note_on,0,0,0,,,,,5,,,,,,,83,96
1200,note_on,0,0,0,,,,,6,,,,,,,45,96
1221,note_off,21,0,0,,,,,0,,,,,,,83,0
1221,note_off,0,0,0,,,,,1,,,,,,,75,0
1221,note_off,0,0,0,,,,,2,,,,,,,66,0
1221,note_off,0,0,0,,,,,3,,,,,,,45,0
1221,note_off,0,0,0,,,,,4,,,,,,,33,0
1221,note_off,0,0,0,,,,,5,,,,,,,83,0
1221,note_off,0,0,0,,,,,6,,,,,,,45,0
1224,note_on,3,0,0,,,,,3,,,,,,,44,96
1224,note_on,0,0,0,,,,,4,,,,,,,32,96
1224,note_on,0,0,0,,,,,6,,,,,,,44,96
1236,note_on,12,0,0,,,,,0,,,,,,,76,96
1236,note_on,0,0,0,,,,,1,,,,,,,71,96
1236,note_on,0,0,0,,,,,2,,,,,,,64,96
1236,note_on,0,0,0,,,,,5,,,,,,,76,96
1245,note_off,9,0,0,,,,,3,,,,,,,44,0
1245,note_off,0,0,0,,,,,4,,,,,,,32,0
1245,note_off,0,0,0,,,,,6,,,,,,,44,0
1246,note_off,1,0,0,,,,,0,,,,,,,76,0
1246,note_off,0,0,0,,,,,1,,,,,,,71,0
1246,note_off,0,0,0,,,,,2,,,,,,,64,0
1246,note_off,0,0,0,,,,,5,,,,,,,76,0
1248,note_on,2,0,0,,,,,0,,,,,,,78,96
1248,note_on,0,0,0,,,,,1,,,,,,,73,96
1248,note_on,0,0,0,,,,,2,,,,,,,69,96
1248,note_on,0,0,0,,,,,3,,,,,,,45,96
1248,note_on,0,0,0,,,,,4,,,,,,,33,96
1248,note_on,0,0,0,,,,,5,,,,,,,78,96
1248,note_on,0,0,0,,,,,6,,,,,,,45,96
1269,note_off,21,0,0,,,,,0,,,,,,,78,0
1269,note_off,0,0,0,,,,,1,,,,,,,73,0
1269,note_off,0,0,0,,,,,2,,,,,,,69,0
1269,note_off,0,0,0,,,,,3,,,,,,,45,0
1269,note_off,0,0,0,,,,,4,,,,,,,33,0
1269,note_off,0,0,0,,,,,5,,,,,,,78,0
1269,note_off,0,0,0,,,,,6,,,,,,,45,0
1272,note_on,3,0,0,,,,,0,,,,,,,75,96
1272,note_on,0,0,0,,,,,1,,,,,,,69,96
1272,note_on,0,0,0,,,,,2,,,,,,,66,96
1272,note_on,0,0,0,,,,,3,,,,,,,47,96
1272,note_on,0,0,0,,,,,4,,,,,,,35,96
1272,note_on,0,0,0,,,,,5,,,,,,,75,96
1272,note_on,0,0,0,,,,,6,,,,,,,47,96
1293,note_off,21,0,0,,,,,0,,,,,,,75,0
1293,note_off,0,0,0,,,,,1,,,,,,,69,0
1293,note_off,0,0,0,,,,,2,,,,,,,66,0
1293,note_off,0,0,0,,,,,3,,,,,,,47,0
1293,note_off,0,0,0,,,,,4,,,,,,,35,0
1293,note_off,0,0,0,,,,,5,,,,,,,75,0
1293,note_off,0,0,0,,,,,6,,,,,,,47,0
1296,note_on,3,0,0,,,,,0,,,,,,,76,96
1296,note_on,0,0,0,,,,,1,,,,,,,71,96
1296,note_on,0,0,0,,,,,2,,,,,,,68,96
1296,note_on,0,0,0,,,,,3,,,,,,,40,96
1296,note_on,0,0,0,,,,,4,,,,,,,28,96
1296,note_on,0,0,0,,,,,5,,,,,,,76,96
1296,note_on,0,0,0,,,,,6,,,,,,,40,96
1306,note_off,10,0,0,,,,,5,,,,,,,76,0
1308,note_on,2,0,0,,,,,5,,,,,,,71,96
1313,note_off,5,0,0,,,,,5,,,,,,,71,0
1314,note_on,1,0,0,,,,,5,,,,,,,73,96
1317,note_off,3,0,0,,,,,0,,,,,,,76,0
1317,note_off,0,0,0,,,,,1,,,,,,,71,0
1317,note_off,0,0,0,,,,,2,,,,,,,68,0
1317,note_off,0,0,0,,,,,3,,,,,,,40,0
1317,note_off,0,0,0,,,,,4,,,,,,,28,0
1317,note_off,0,0,0,,,,,6,,,,,,,40,0
1319,note_off,2,0,0,,,,,5,,,,,,,73,0
1320,note_on,1,0,0,,,,,5,,,,,,,75,96
1320,note_on,0,0,0,,,,,6,,,,,,,47,96
1330,note_off,10,0,0,,,,,5,,,,,,,75,0
1332,note_on,2,0,0,,,,,5,,,,,,,76,96
1341,note_off,9,0,0,,,,,6,,,,,,,47,0
1342,note_off,1,0,0,,,,,5,,,,,,,76,0
1344,note_on,2,0,0,,,,,5,,,,,,,78,96
1344,note_on,0,0,0,,,,,6,,,,,,,52,96
1354,note_off,10,0,0,,,,,5,,,,,,,78,0
1356,note_on,2,0,0,,,,,5,,,,,,,80,96
1366,note_off,10,0,0,,,,,5,,,,,,,80,0
1368,note_on,2,0,0,,,,,5,,,,,,,69,96
1375,note_off,7,0,0,,,,,6,,,,,,,52,0
1378,note_off,3,0,0,,,,,5,,,,,,,69,0
1380,note_on,2,0,0,,,,,5,,,,,,,68,96
1380,note_on,0,0,0,,,,,6,,,,,,,56,96
1390,note_off,10,0,0,,,,,5,,,,,,,68,0
1390,note_off,0,0,0,,,,,6,,,,,,,56,0
1392,note_on,2,0,0,,,,,5,,,,,,,69,96
1392,note_on,0,0,0,,,,,6,,,,,,,54,96
1402,note_off,10,0,0,,,,,5,,,,,,,69,0
1402,note_off,0,0,0,,,,,6,,,,,,,54,0
1404,note_on,2,0,0,,,,,5,,,,,,,73,96
1404,note_on,0,0,0,,,,,6,,,,,,,52,96
1414,note_off,10,0,0,,,,,5,,,,,,,73,0
1414,note_off,0,0,0,,,,,6,,,,,,,52,0
1416,note_on,2,0,0,,,,,5,,,,,,,78,96
1416,note_on,0,0,0,,,,,6,,,,,,,51,96
1426,note_off,10,0,0,,,,,6,,,,,,,51,0
1428,note_on,2,0,0,,,,,6,,,,,,,49,96
1438,note_off,10,0,0,,,,,6,,,,,,,49,0
1440,note_on,2,0,0,,,,,6,,,,,,,51,96
1447,note_off,7,0,0,,,,,5,,,,,,,78,0
1450,note_off,3,0,0,,,,,6,,,,,,,51,0
1452,note_on,2,0,0,,,,,5,,,,,,,76,96
1452,note_on,0,0,0,,,,,6,,,,,,,54,96
1462,note_off,10,0,0,,,,,5,,,,,,,76,0
1462,note_off,0,0,0,,,,,6,,,,,,,54,0
1464,note_on,2,0,0,,,,,5,,,,,,,75,96
1464,note_on,0,0,0,,,,,6,,,,,,,59,96
1474,note_off,10,0,0,,,,,5,,,,,,,75,0
1476,note_on,2,0,0,,,,,5,,,,,,,73,96
1485,note_off,9,0,0,,,,,6,,,,,,,59,0
1486,note_off,1,0,0,,,,,5,,,,,,,73,0
1488,note_on,2,0,0,,,,,5,,,,,,,71,96
1488,note_on,0,0,0,,,,,6,,,,,,,47,96
1498,note_off,10,0,0,,,,,5,,,,,,,71,0
1500,note_on,2,0,0,,,,,5,,,,,,,69,96
1509,note_off,9,0,0,,,,,6,,,,,,,47,0
1510,note_off,1,0,0,,,,,5,,,,,,,69,0
1512,note_on,2,0,0,,,,,5,,,,,,,68,96
1512,note_on,0,0,0,,,,,6,,,,,,,52,96
1522,note_off,10,0,0,,,,,5,,,,,,,68,0
1524,note_on,2,0,0,,,,,5,,,,,,,66,96
1533,note_off,9,0,0,,,,,6,,,,,,,52,0
1534,note_off,1,0,0,,,,,5,,,,,,,66,0
1536,note_on,2,0,0,,,,,5,,,,,,,64,96
1536,note_on,0,0,0,,,,,6,,,,,,,44,96
1546,note_off,10,0,0,,,,,5,,,,,,,64,0
1548,note_on,2,0,0,,,,,5,,,,,,,66,96
1557,note_off,9,0,0,,,,,6,,,,,,,44,0
1558,note_off,1,0,0,,,,,5,,,,,,,66,0
1560,note_on,2,0,0,,,,,5,,,,,,,68,96
1560,note_on,0,0,0,,,,,6,,,,,,,47,96
1570,note_off,10,0,0,,,,,5,,,,,,,68,0
1572,note_on,2,0,0,,,,,5,,,,,,,69,96
1581,note_off,9,0,0,,,,,6,,,,,,,47,0
1582,note_off,1,0,0,,,,,5,,,,,,,69,0
1584,note_on,2,0,0,,,,,5,,,,,,,71,96
1584,note_on,0,0,0,,,,,6,,,,,,,40,96
1588,note_off,4,0,0,,,,,5,,,,,,,71,0
1588,note_on,0,0,0,,,,,5,,,,,,,73,96
1591,note_off,3,0,0,,,,,6,,,,,,,40,0
1592,note_off,1,0,0,,,,,5,,,,,,,73,0
1592,note_on,0,0,0,,,,,5,,,,,,,71,96
1592,note_on,0,0,0,,,,,6,,,,,,,44,96
1596,note_off,4,0,0,,,,,5,,,,,,,71,0
1596,note_on,0,0,0,,,,,5,,,,,,,73,96
1599,note_off,3,0,0,,,,,6,,,,,,,44,0
1600,note_off,1,0,0,,,,,5,,,,,,,73,0
1600,note_on,0,0,0,,,,,5,,,,,,,71,96
1600,note_on,0,0,0,,,,,6,,,,,,,47,96
1604,note_off,4,0,0,,,,,5,,,,,,,71,0
1604,note_on,0,0,0,,,,,5,,,,,,,73,96
1607,note_off,3,0,0,,,,,6,,,,,,,47,0
1608,note_on,1,0,0,,,,,0,,,,,,,64,96
1608,note_on,0,0,0,,,,,1,,,,,,,59,96
1608,note_on,0,0,0,,,,,2,,,,,,,56,96
1608,note_on,0,0,0,,,,,3,,,,,,,52,96
1608,note_on,0,0,0,,,,,4,,,,,,,40,96
1608,note_off,0,0,0,,,,,5,,,,,,,73,0
1608,note_on,0,0,0,,,,,5,,,,,,,71,96
1608,note_on,0,0,0,,,,,6,,,,,,,52,96
1612,note_off,4,0,0,,,,,5,,,,,,,71,0
1612,note_on,0,0,0,,,,,5,,,,,,,73,96
1615,note_off,3,0,0,,,,,6,,,,,,,52,0
1616,note_off,1,0,0,,,,,5,,,,,,,73,0
1616,note_on,0,0,0,,,,,5,,,,,,,71,96
1616,note_on,0,0,0,,,,,6,,,,,,,56,96
1620,note_off,4,0,0,,,,,5,,,,,,,71,0
1620,note_on,0,0,0,,,,,5,,,,,,,73,96
1623,note_off,3,0,0,,,,,6,,,,,,,56,0
1624,note_off,1,0,0,,,,,5,,,,,,,73,0
1624,note_on,0,0,0,,,,,5,,,,,,,71,96
1624,note_on,0,0,0,,,,,6,,,,,,,52,96
1628,note_off,4,0,0,,,,,5,,,,,,,71,0
1628,note_on,0,0,0,,,,,5,,,,,,,73,96
1629,note_off,1,0,0,,,,,0,,,,,,,64,0
1629,note_off,0,0,0,,,,,1,,,,,,,59,0
1629,note_off,0,0,0,,,,,2,,,,,,,56,0
1629,note_off,0,0,0,,,,,3,,,,,,,52,0
1629,note_off,0,0,0,,,,,4,,,,,,,40,0
1631,note_off,2,0,0,,,,,6,,,,,,,52,0
1632,note_on,1,0,0,,,,,0,,,,,,,68,96
1632,note_on,0,0,0,,,,,1,,,,,,,64,96
1632,note_on,0,0,0,,,,,2,,,,,,,59,96
1632,note_on,0,0,0,,,,,3,,,,,,,52,96
1632,note_on,0,0,0,,,,,4,,,,,,,40,96
1632,note_off,0,0,0,,,,,5,,,,,,,73,0
1632,note_on,0,0,0,,,,,5,,,,,,,71,96
1632,note_on,0,0,0,,,,,6,,,,,,,47,96
1636,note_off,4,0,0,,,,,5,,,,,,,71,0
1636,note_on,0,0,0,,,,,5,,,,,,,73,96
1639,note_off,3,0,0,,,,,6,,,,,,,47,0
1640,note_off,1,0,0,,,,,5,,,,,,,73,0
1640,note_on,0,0,0,,,,,5,,,,,,,71,96
1640,note_on,0,0,0,,,,,6,,,,,,,44,96
1644,note_off,4,0,0,,,,,5,,,,,,,71,0
1644,note_on,0,0,0,,,,,5,,,,,,,73,96
1647,note_off,3,0,0,,,,,6,,,,,,,44,0
1648,note_off,1,0,0,,,,,5,,,,,,,73,0
1648,note_on,0,0,0,,,,,5,,,,,,,71,96
1648,note_on,0,0,0,,,,,6,,,,,,,40,96
1652,note_off,4,0,0,,,,,5,,,,,,,71,0
1652,note_on,0,0,0,,,,,5,,,,,,,73,96
1653,note_off,1,0,0,,,,,0,,,,,,,68,0
1653,note_off,0,0,0,,,,,1,,,,,,,64,0
1653,note_off,0,0,0,,,,,2,,,,,,,59,0
1653,note_off,0,0,0,,,,,3,,,,,,,52,0
1653,note_off,0,0,0,,,,,4,,,,,,,40,0
1655,note_off,2,0,0,,,,,6,,,,,,,40,0
1656,note_on,1,0,0,,,,,0,,,,,,,71,96
1656,note_on,0,0,0,,,,,1,,,,,,,68,96
1656,note_on,0,0,0,,,,,2,,,,,,,64,96
1656,note_on,0,0,0,,,,,3,,,,,,,52,96
1656,note_on,0,0,0,,,,,4,,,,,,,40,96
1656,note_off,0,0,0,,,,,5,,,,,,,73,0
1656,note_on,0,0,0,,,,,5,,,,,,,71,96
1656,note_on,0,0,0,,,,,6,,,,,,,52,96
1660,note_off,4,0,0,,,,,5,,,,,,,71,0
1660,note_on,0,0,0,,,,,5,,,,,,,73,96
1664,note_off,4,0,0,,,,,5,,,,,,,73,0
1664,note_on,0,0,0,,,,,5,,,,,,,71,96
1668,note_off,4,0,0,,,,,5,,,,,,,71,0
1668,note_on,0,0,0,,,,,5,,,,,,,73,96
1672,note_off,4,0,0,,,,,5,,,,,,,73,0
1672,note_on,0,0,0,,,,,5,,,,,,,71,96
1676,note_off,4,0,0,,,,,5,,,,,,,71,0
1676,note_on,0,0,0,,,,,5,,,,,,,73,96
1677,note_off,1,0,0,,,,,0,,,,,,,71,0
1677,note_off,0,0,0,,,,,1,,,,,,,68,0
1677,note_off,0,0,0,,,,,2,,,,,,,64,0
1677,note_off,0,0,0,,,,,3,,,,,,,52,0
1677,note_off,0,0,0,,,,,4,,,,,,,40,0
1677,note_off,0,0,0,,,,,6,,,,,,,52,0
1680,note_on,3,0,0,,,,,0,,,,,,,64,96
1680,note_on,0,0,0,,,,,1,,,,,,,71,96
1680,note_on,0,0,0,,,,,2,,,,,,,68,96
1680,note_on,0,0,0,,,,,3,,,,,,,52,96
1680,note_on,0,0,0,,,,,4,,,,,,,40,96
1680,note_off,0,0,0,,,,,5,,,,,,,73,0
1680,note_on,0,0,0,,,,,5,,,,,,,71,96
1684,note_off,4,0,0,,,,,5,,,,,,,71,0
1684,note_on,0,0,0,,,,,5,,,,,,,73,96
1688,note_off,4,0,0,,,,,5,,,,,,,73,0
1688,note_on,0,0,0,,,,,5,,,,,,,71,96
1690,note_off,2,0,0,,,,,0,,,,,,,64,0
1692,note_on,2,0,0,,,,,0,,,,,,,66,96
1692,note_off,0,0,0,,,,,5,,,,,,,71,0
1692,note_on,0,0,0,,,,,5,,,,,,,73,96
1696,note_off,4,0,0,,,,,5,,,,,,,73,0
1696,note_on,0,0,0,,,,,5,,,,,,,71,96
1700,note_off,4,0,0,,,,,5,,,,,,,71,0
1700,note_on,0,0,0,,,,,5,,,,,,,73,96
1701,note_off,1,0,0,,,,,1,,,,,,,71,0
1701,note_off,0,0,0,,,,,2,,,,,,,68,0
1701,note_off,0,0,0,,,,,3,,,,,,,52,0
1701,note_off,0,0,0,,,,,4,,,,,,,40,0
1702,note_off,1,0,0,,,,,0,,,,,,,66,0
1704,note_on,2,0,0,,,,,0,,,,,,,68,96
1704,note_on,0,0,0,,,,,1,,,,,,,64,96
1704,note_on,0,0,0,,,,,2,,,,,,,71,96
1704,note_on,0,0,0,,,,,3,,,,,,,52,96
1704,note_on,0,0,0,,,,,4,,,,,,,40,96
1704,note_off,0,0,0,,,,,5,,,,,,,73,0
1704,note_on,0,0,0,,,,,5,,,,,,,71,96
1708,note_off,4,0,0,,,,,5,,,,,,,71,0
1708,note_on,0,0,0,,,,,5,,,,,,,73,96
1712,note_off,4,0,0,,,,,5,,,,,,,73,0
1712,note_on,0,0,0,,,,,5,,,,,,,71,96
1714,note_off,2,0,0,,,,,0,,,,,,,68,0
1714,note_off,0,0,0,,,,,1,,,,,,,64,0
1716,note_on,2,0,0,,,,,0,,,,,,,69,96
1716,note_on,0,0,0,,,,,1,,,,,,,66,96
1716,note_off,0,0,0,,,,,5,,,,,,,71,0
1716,note_on,0,0,0,,,,,5,,,,,,,73,96
1720,note_off,4,0,0,,,,,5,,,,,,,73,0
1720,note_on,0,0,0,,,,,5,,,,,,,71,96
1724,note_off,4,0,0,,,,,5,,,,,,,71,0
1724,note_on,0,0,0,,,,,5,,,,,,,73,96
1725,note_off,1,0,0,,,,,2,,,,,,,71,0
1725,note_off,0,0,0,,,,,3,,,,,,,52,0
1725,note_off,0,0,0,,,,,4,,,,,,,40,0
1726,note_off,1,0,0,,,,,0,,,,,,,69,0
1726,note_off,0,0,0,,,,,1,,,,,,,66,0
1728,note_on,2,0,0,,,,,0,,,,,,,71,96
1728,note_on,0,0,0,,,,,1,,,,,,,68,96
1728,note_on,0,0,0,,,,,2,,,,,,,64,96
1728,note_on,0,0,0,,,,,3,,,,,,,52,96
1728,note_on,0,0,0,,,,,4,,,,,,,40,96
1728,note_off,0,0,0,,,,,5,,,,,,,73,0
1728,note_on,0,0,0,,,,,5,,,,,,,71,96
1728,note_on,0,0,0,,,,,6,,,,,,,52,96
1732,note_off,4,0,0,,,,,5,,,,,,,71,0
1732,note_on,0,0,0,,,,,5,,,,,,,73,96
1735,note_off,3,0,0,,,,,6,,,,,,,52,0
1736,note_off,1,0,0,,,,,5,,,,,,,73,0
1736,note_on,0,0,0,,,,,5,,,,,,,71,96
1736,note_on,0,0,0,,,,,6,,,,,,,56,96
1738,note_off,2,0,0,,,,,1,,,,,,,68,0
1738,note_off,0,0,0,,,,,2,,,,,,,64,0
1740,note_on,2,0,0,,,,,1,,,,,,,69,96
1740,note_on,0,0,0,,,,,2,,,,,,,66,96
1740,note_off,0,0,0,,,,,5,,,,,,,71,0
1740,note_on,0,0,0,,,,,5,,,,,,,73,96
1743,note_off,3,0,0,,,,,6,,,,,,,56,0
1744,note_off,1,0,0,,,,,5,,,,,,,73,0
1744,note_on,0,0,0,,,,,5,,,,,,,71,96
1744,note_on,0,0,0,,,,,6,,,,,,,59,96
1748,note_off,4,0,0,,,,,5,,,,,,,71,0
1748,note_on,0,0,0,,,,,5,,,,,,,73,96
1749,note_off,1,0,0,,,,,0,,,,,,,71,0
1749,note_off,0,0,0,,,,,3,,,,,,,52,0
1749,note_off,0,0,0,,,,,4,,,,,,,40,0
1750,note_off,1,0,0,,,,,1,,,,,,,69,0
1750,note_off,0,0,0,,,,,2,,,,,,,66,0
1751,note_off,1,0,0,,,,,6,,,,,,,59,0
1752,note_on,1,0,0,,,,,0,,,,,,,76,96
1752,note_on,0,0,0,,,,,1,,,,,,,71,96
1752,note_on,0,0,0,,,,,2,,,,,,,68,96
1752,note_on,0,0,0,,,,,3,,,,,,,52,96
1752,note_on,0,0,0,,,,,4,,,,,,,40,96
1752,note_off,0,0,0,,,,,5,,,,,,,73,0
1752,note_on,0,0,0,,,,,5,,,,,,,71,96
1752,note_on,0,0,0,,,,,6,,,,,,,64,96
1756,note_off,4,0,0,,,,,5,,,,,,,71,0
1756,note_on,0,0,0,,,,,5,,,,,,,73,96
1759,note_off,3,0,0,,,,,6,,,,,,,64,0
1760,note_off,1,0,0,,,,,5,,,,,,,73,0
1760,note_on,0,0,0,,,,,5,,,,,,,71,96
1760,note_on,0,0,0,,,,,6,,,,,,,68,96
1762,note_off,2,0,0,,,,,2,,,,,,,68,0
1764,note_on,2,0,0,,,,,2,,,,,,,69,96
1764,note_off,0,0,0,,,,,5,,,,,,,71,0
1764,note_on,0,0,0,,,,,5,,,,,,,73,96
1767,note_off,3,0,0,,,,,6,,,,,,,68,0
1768,note_off,1,0,0,,,,,5,,,,,,,73,0
1768,note_on,0,0,0,,,,,5,,,,,,,71,96
1768,note_on,0,0,0,,,,,6,,,,,,,64,96
1772,note_off,4,0,0,,,,,5,,,,,,,71,0
1772,note_on,0,0,0,,,,,5,,,,,,,73,96
1773,note_off,1,0,0,,,,,0,,,,,,,76,0
1773,note_off,0,0,0,,,,,1,,,,,,,71,0
1773,note_off,0,0,0,,,,,3,,,,,,,52,0
1773,note_off,0,0,0,,,,,4,,,,,,,40,0
1774,note_off,1,0,0,,,,,2,,,,,,,69,0
1775,note_off,1,0,0,,,,,6,,,,,,,64,0
1776,note_on,1,0,0,,,,,0,,,,,,,80,96
1776,note_on,0,0,0,,,,,1,,,,,,,76,96
1776,note_on,0,0,0,,,,,2,,,,,,,71,96
1776,note_on,0,0,0,,,,,3,,,,,,,52,96
1776,note_on,0,0,0,,,,,4,,,,,,,40,96
1776,note_off,0,0,0,,,,,5,,,,,,,73,0
1776,note_on,0,0,0,,,,,5,,,,,,,71,96
1776,note_on,0,0,0,,,,,6,,,,,,,59,96
1783,note_off,7,0,0,,,,,6,,,,,,,59,0
1784,note_on,1,0,0,,,,,6,,,,,,,56,96
1791,note_off,7,0,0,,,,,6,,,,,,,56,0
1792,note_on,1,0,0,,,,,6,,,,,,,52,96
1797,note_off,5,0,0,,,,,0,,,,,,,80,0
1797,note_off,0,0,0,,,,,1,,,,,,,76,0
1797,note_off,0,0,0,,,,,2,,,,,,,71,0
1797,note_off,0,0,0,,,,,3,,,,,,,52,0
1797,note_off,0,0,0,,,,,4,,,,,,,40,0
1799,note_off,2,0,0,,,,,6,,,,,,,52,0
1800,note_on,1,0,0,,,,,0,,,,,,,83,96
1800,note_on,0,0,0,,,,,1,,,,,,,80,96
1800,note_on,0,0,0,,,,,2,,,,,,,76,96
1800,note_on,0,0,0,,,,,3,,,,,,,52,96
1800,note_on,0,0,0,,,,,4,,,,,,,40,96
1800,note_on,0,0,0,,,,,6,,,,,,,64,96
1807,note_off,7,0,0,,,,,5,,,,,,,71,0
1812,note_on,5,0,0,,,,,5,,,,,,,83,96
1821,note_off,9,0,0,,,,,0,,,,,,,83,0
1821,note_off,0,0,0,,,,,1,,,,,,,80,0
1821,note_off,0,0,0,,,,,2,,,,,,,76,0
1821,note_off,0,0,0,,,,,3,,,,,,,52,0
1821,note_off,0,0,0,,,,,4,,,,,,,40,0
1821,note_off,0,0,0,,,,,6,,,,,,,64,0
1822,note_off,1,0,0,,,,,5,,,,,,,83,0
1824,note_on,2,0,0,,,,,0,,,,,,,81,96
1824,note_on,0,0,0,,,,,1,,,,,,,76,96
1824,note_on,0,0,0,,,,,2,,,,,,,64,96
1824,note_on,0,0,0,,,,,3,,,,,,,49,96
1824,note_on,0,0,0,,,,,4,,,,,,,37,96
1824,note_on,0,0,0,,,,,5,,,,,,,81,96
1824,note_on,0,0,0,,,,,6,,,,,,,61,96
1834,note_off,10,0,0,,,,,0,,,,,,,81,0
1834,note_off,0,0,0,,,,,5,,,,,,,81,0
1836,note_on,2,0,0,,,,,0,,,,,,,80,96
1836,note_on,0,0,0,,,,,5,,,,,,,80,96
1845,note_off,9,0,0,,,,,1,,,,,,,76,0
1845,note_off,0,0,0,,,,,2,,,,,,,64,0
1845,note_off,0,0,0,,,,,3,,,,,,,49,0
1845,note_off,0,0,0,,,,,4,,,,,,,37,0
1845,note_off,0,0,0,,,,,6,,,,,,,61,0
1846,note_off,1,0,0,,,,,0,,,,,,,80,0
1846,note_off,0,0,0,,,,,5,,,,,,,80,0
1848,note_on,2,0,0,,,,,0,,,,,,,78,96
1848,note_on,0,0,0,,,,,1,,,,,,,73,96
1848,note_on,0,0,0,,,,,2,,,,,,,69,96
1848,note_on,0,0,0,,,,,3,,,,,,,45,96
1848,note_on,0,0,0,,,,,4,,,,,,,33,96
1848,note_on,0,0,0,,,,,5,,,,,,,78,96
1848,note_on,0,0,0,,,,,6,,,,,,,57,96
1858,note_off,10,0,0,,,,,0,,,,,,,78,0
1858,note_off,0,0,0,,,,,5,,,,,,,78,0
1860,note_on,2,0,0,,,,,0,,,,,,,76,96
1860,note_on,0,0,0,,,,,5,,,,,,,76,96
1869,note_off,9,0,0,,,,,1,,,,,,,73,0
1869,note_off,0,0,0,,,,,2,,,,,,,69,0
1869,note_off,0,0,0,,,,,3,,,,,,,45,0
1869,note_off,0,0,0,,,,,4,,,,,,,33,0
1869,note_off,0,0,0,,,,,6,,,,,,,57,0
1870,note_off,1,0,0,,,,,0,,,,,,,76,0
1870,note_off,0,0,0,,,,,5,,,,,,,76,0
1872,note_on,2,0,0,,,,,0,,,,,,,75,80
1872,note_on,0,0,0,,,,,1,,,,,,,71,80
1872,note_on,0,0,0,,,,,2,,,,,,,66,80
1872,note_on,0,0,0,,,,,3,,,,,,,47,80
1872,note_on,0,0,0,,,,,4,,,,,,,35,80
1872,note_on,0,0,0,,,,,5,,,,,,,75,96
1872,note_on,0,0,0,,,,,6,,,,,,,59,96
1882,note_off,10,0,0,,,,,5,,,,,,,75,0
1884,note_on,2,0,0,,,,,5,,,,,,,71,96
1889,note_off,5,0,0,,,,,5,,,,,,,71,0
1890,note_on,1,0,0,,,,,5,,,,,,,73,96
1893,note_off,3,0,0,,,,,0,,,,,,,75,0
1893,note_off,0,0,0,,,,,1,,,,,,,71,0
1893,note_off,0,0,0,,,,,2,,,,,,,66,0
1893,note_off,0,0,0,,,,,3,,,,,,,47,0
1893,note_off,0,0,0,,,,,4,,,,,,,35,0
1893,note_off,0,0,0,,,,,6,,,,,,,59,0
1895,note_off,2,0,0,,,,,5,,,,,,,73,0
1896,note_on,1,0,0,,,,,3,,,,,,,47,80
1896,note_on,0,0,0,,,,,4,,,,,,,35,80
1896,note_on,0,0,0,,,,,5,,,,,,,75,96
1896,note_on,0,0,0,,,,,6,,,,,,,47,96
1906,note_off,10,0,0,,,,,5,,,,,,,75,0
1906,note_off,0,0,0,,,,,6,,,,,,,47,0
1908,note_on,2,0,0,,,,,5,,,,,,,76,96
1908,note_on,0,0,0,,,,,6,,,,,,,49,96
1917,note_off,9,0,0,,,,,3,,,,,,,47,0
1917,note_off,0,0,0,,,,,4,,,,,,,35,0
1918,note_off,1,0,0,,,,,5,,,,,,,76,0
1918,note_off,0,0,0,,,,,6,,,,,,,49,0
1920,note_on,2,0,0,,,,,3,,,,,,,47,80
1920,note_on,0,0,0,,,,,4,,,,,,,35,80
1920,note_on,0,0,0,,,,,5,,,,,,,78,96
1920,note_on,0,0,0,,,,,6,,,,,,,51,96
1930,note_off,10,0,0,,,,,5,,,,,,,78,0
1930,note_off,0,0,0,,,,,6,,,,,,,51,0
1932,note_on,2,0,0,,,,,5,,,,,,,80,96
1932,note_on,0,0,0,,,,,6,,,,,,,52,96
1941,note_off,9,0,0,,,,,3,,,,,,,47,0
1941,note_off,0,0,0,,,,,4,,,,,,,35,0
1942,note_off,1,0,0,,,,,5,,,,,,,80,0
1942,note_off,0,0,0,,,,,6,,,,,,,52,0
1944,note_on,2,0,0,,,,,0,,,,,,,78,80
1944,note_on,0,0,0,,,,,1,,,,,,,75,80
1944,note_on,0,0,0,,,,,2,,,,,,,71,80
1944,note_on,0,0,0,,,,,3,,,,,,,47,80
1944,note_on,0,0,0,,,,,4,,,,,,,35,80
1944,note_on,0,0,0,,,,,5,,,,,,,69,96
1944,note_on,0,0,0,,,,,6,,,,,,,54,96
1954,note_off,10,0,0,,,,,5,,,,,,,69,0
1954,note_off,0,0,0,,,,,6,,,,,,,54,0
1956,note_on,2,0,0,,,,,5,,,,,,,68,96
1956,note_on,0,0,0,,,,,6,,,,,,,52,96
1965,note_off,9,0,0,,,,,0,,,,,,,78,0
1965,note_off,0,0,0,,,,,1,,,,,,,75,0
1965,note_off,0,0,0,,,,,2,,,,,,,71,0
1965,note_off,0,0,0,,,,,3,,,,,,,47,0
1965,note_off,0,0,0,,,,,4,,,,,,,35,0
1966,note_off,1,0,0,,,,,5,,,,,,,68,0
1966,note_off,0,0,0,,,,,6,,,,,,,52,0
1968,note_on,2,0,0,,,,,3,,,,,,,47,80
1968,note_on,0,0,0,,,,,4,,,,,,,35,80
1968,note_on,0,0,0,,,,,5,,,,,,,69,96
1968,note_on,0,0,0,,,,,6,,,,,,,54,96
1978,note_off,10,0,0,,,,,5,,,,,,,69,0
1978,note_off,0,0,0,,,,,6,,,,,,,54,0
1980,note_on,2,0,0,,,,,5,,,,,,,75,96
1980,note_on,0,0,0,,,,,6,,,,,,,56,96
1989,note_off,9,0,0,,,,,3,,,,,,,47,0
1989,note_off,0,0,0,,,,,4,,,,,,,35,0
1990,note_off,1,0,0,,,,,5,,,,,,,75,0
1990,note_off,0,0,0,,,,,6,,,,,,,56,0
1992,note_on,2,0,0,,,,,3,,,,,,,47,80
1992,note_on,0,0,0,,,,,4,,,,,,,35,80
1992,note_on,0,0,0,,,,,5,,,,,,,78,96
1992,note_on,0,0,0,,,,,6,,,,,,,57,96
2002,note_off,10,0,0,,,,,6,,,,,,,57,0
2004,note_on,2,0,0,,,,,6,,,,,,,54,96
2013,note_off,9,0,0,,,,,3,,,,,,,47,0
2013,note_off,0,0,0,,,,,4,,,,,,,35,0
2014,note_off,1,0,0,,,,,6,,,,,,,54,0
2016,note_on,2,0,0,,,,,0,,,,,,,81,80
2016,note_on,0,0,0,,,,,1,,,,,,,78,80
2016,note_on,0,0,0,,,,,2,,,,,,,63,80
2016,note_on,0,0,0,,,,,3,,,,,,,47,80
2016,note_on,0,0,0,,,,,4,,,,,,,35,80
2016,note_on,0,0,0,,,,,6,,,,,,,59,96
2023,note_off,7,0,0,,,,,5,,,,,,,78,0
2026,note_off,3,0,0,,,,,6,,,,,,,59,0
2028,note_on,2,0,0,,,,,5,,,,,,,76,96
2028,note_on,0,0,0,,,,,6,,,,,,,58,96
2037,note_off,9,0,0,,,,,0,,,,,,,81,0
2037,note_off,0,0,0,,,,,1,,,,,,,78,0
2037,note_off,0,0,0,,,,,2,,,,,,,63,0
2037,note_off,0,0,0,,,,,3,,,,,,,47,0
2037,note_off,0,0,0,,,,,4,,,,,,,35,0
2038,note_off,1,0,0,,,,,5,,,,,,,76,0
2038,note_off,0,0,0,,,,,6,,,,,,,58,0
2040,note_on,2,0,0,,,,,3,,,,,,,47,80
2040,note_on,0,0,0,,,,,4,,,,,,,35,80
2040,note_on,0,0,0,,,,,5,,,,,,,75,96
2040,note_on,0,0,0,,,,,6,,,,,,,59,96
2050,note_off,10,0,0,,,,,5,,,,,,,75,0
2050,note_off,0,0,0,,,,,6,,,,,,,59,0
2052,note_on,2,0,0,,,,,5,,,,,,,73,96
2052,note_on,0,0,0,,,,,6,,,,,,,61,96
2061,note_off,9,0,0,,,,,3,,,,,,,47,0
2061,note_off,0,0,0,,,,,4,,,,,,,35,0
2062,note_off,1,0,0,,,,,5,,,,,,,73,0
2062,note_off,0,0,0,,,,,6,,,,,,,61,0
2064,note_on,2,0,0,,,,,3,,,,,,,47,80
2064,note_on,0,0,0,,,,,4,,,,,,,35,80
2064,note_on,0,0,0,,,,,5,,,,,,,71,96
2064,note_on,0,0,0,,,,,6,,,,,,,63,96
2074,note_off,10,0,0,,,,,5,,,,,,,71,0
2074,note_off,0,0,0,,,,,6,,,,,,,63,0
2076,note_on,2,0,0,,,,,5,,,,,,,69,96
2076,note_on,0,0,0,,,,,6,,,,,,,59,96
2085,note_off,9,0,0,,,,,3,,,,,,,47,0
2085,note_off,0,0,0,,,,,4,,,,,,,35,0
2086,note_off,1,0,0,,,,,5,,,,,,,69,0
2086,note_off,0,0,0,,,,,6,,,,,,,59,0
2088,note_on,2,0,0,,,,,2,,,,,,,59,80
2088,note_on,0,0,0,,,,,3,,,,,,,40,80
2088,note_on,0,0,0,,,,,4,,,,,,,28,80
2088,note_on,0,0,0,,,,,5,,,,,,,68,96
2088,note_on,0,0,0,,,,,6,,,,,,,64,96
2095,note_off,7,0,0,,,,,5,,,,,,,68,0
2096,note_on,1,0,0,,,,,5,,,,,,,64,96
2103,note_off,7,0,0,,,,,5,,,,,,,64,0
2104,note_on,1,0,0,,,,,5,,,,,,,66,96
2109,note_off,5,0,0,,,,,2,,,,,,,59,0
2109,note_off,0,0,0,,,,,3,,,,,,,40,0
2109,note_off,0,0,0,,,,,4,,,,,,,28,0
2109,note_off,0,0,0,,,,,6,,,,,,,64,0
2111,note_off,2,0,0,,,,,5,,,,,,,66,0
2112,note_on,1,0,0,,,,,0,,,,,,,71,80
2112,note_on,0,0,0,,,,,1,,,,,,,68,80
2112,note_on,0,0,0,,,,,5,,,,,,,68,96
2112,note_on,0,0,0,,,,,6,,,,,,,52,96
2119,note_off,7,0,0,,,,,5,,,,,,,68,0
2120,note_on,1,0,0,,,,,5,,,,,,,69,96
2124,note_off,4,0,0,,,,,0,,,,,,,71,0
2124,note_on,0,0,0,,,,,0,,,,,,,69,80
2124,note_off,0,0,0,,,,,1,,,,,,,68,0
2124,note_on,0,0,0,,,,,1,,,,,,,66,80
2127,note_off,3,0,0,,,,,5,,,,,,,69,0
2128,note_on,1,0,0,,,,,5,,,,,,,71,96
2133,note_off,5,0,0,,,,,6,,,,,,,52,0
2135,note_off,2,0,0,,,,,5,,,,,,,71,0
2136,note_off,1,0,0,,,,,0,,,,,,,69,0
2136,note_on,0,0,0,,,,,0,,,,,,,68,80
2136,note_off,0,0,0,,,,,1,,,,,,,66,0
2136,note_on,0,0,0,,,,,1,,,,,,,64,80
2136,note_on,0,0,0,,,,,5,,,,,,,73,96
2148,note_off,12,0,0,,,,,0,,,,,,,68,0
2148,note_on,0,0,0,,,,,0,,,,,,,66,80
2148,note_off,0,0,0,,,,,1,,,,,,,64,0
2148,note_on,0,0,0,,,,,1,,,,,,,63,80
2158,note_off,10,0,0,,,,,0,,,,,,,66,0
2158,note_off,0,0,0,,,,,1,,,,,,,63,0
2160,note_on,2,0,0,,,,,0,,,,,,,64,80
2160,note_on,0,0,0,,,,,1,,,,,,,61,80
2160,note_on,0,0,0,,,,,2,,,,,,,68,80
2160,note_on,0,0,0,,,,,3,,,,,,,52,80
2160,note_on,0,0,0,,,,,4,,,,,,,40,80
2160,note_on,0,0,0,,,,,6,,,,,,,52,96
2167,note_off,7,0,0,,,,,5,,,,,,,73,0
2172,note_on,5,0,0,,,,,5,,,,,,,75,96
2181,note_off,9,0,0,,,,,0,,,,,,,64,0
2181,note_off,0,0,0,,,,,1,,,,,,,61,0
2181,note_off,0,0,0,,,,,2,,,,,,,68,0
2181,note_off,0,0,0,,,,,3,,,,,,,52,0
2181,note_off,0,0,0,,,,,4,,,,,,,40,0
2181,note_off,0,0,0,,,,,6,,,,,,,52,0
2182,note_off,1,0,0,,,,,5,,,,,,,75,0
2184,note_on,2,0,0,,,,,5,,,,,,,76,96
2184,note_on,0,0,0,,,,,6,,,,,,,49,96
2194,note_off,10,0,0,,,,,5,,,,,,,76,0
2196,note_on,2,0,0,,,,,5,,,,,,,73,96
2205,note_off,9,0,0,,,,,6,,,,,,,49,0
2206,note_off,1,0,0,,,,,5,,,,,,,73,0
2208,note_on,2,0,0,,,,,5,,,,,,,68,96
2208,note_on,0,0,0,,,,,6,,,,,,,52,96
2218,note_off,10,0,0,,,,,5,,,,,,,68,0
2220,note_on,2,0,0,,,,,5,,,,,,,71,96
2229,note_off,9,0,0,,,,,6,,,,,,,52,0
2230,note_off,1,0,0,,,,,5,,,,,,,71,0
2232,note_on,2,0,0,,,,,2,,,,,,,61,80
2232,note_on,0,0,0,,,,,3,,,,,,,54,80
2232,note_on,0,0,0,,,,,4,,,,,,,42,80
2232,note_on,0,0,0,,,,,5,,,,,,,70,96
2232,note_on,0,0,0,,,,,6,,,,,,,54,96
2239,note_off,7,0,0,,,,,5,,,,,,,70,0
2240,note_on,1,0,0,,,,,5,,,,,,,66,96
2247,note_off,7,0,0,,,,,5,,,,,,,66,0
2248,note_on,1,0,0,,,,,5,,,,,,,68,96
2253,note_off,5,0,0,,,,,2,,,,,,,61,0
2253,note_off,0,0,0,,,,,3,,,,,,,54,0
2253,note_off,0,0,0,,,,,4,,,,,,,42,0
2253,note_off,0,0,0,,,,,6,,,,,,,54,0
2255,note_off,2,0,0,,,,,5,,,,,,,68,0
2256,note_on,1,0,0,,,,,0,,,,,,,73,80
2256,note_on,0,0,0,,,,,1,,,,,,,70,80
2256,note_on,0,0,0,,,,,5,,,,,,,70,96
2256,note_on,0,0,0,,,,,6,,,,,,,42,96
2263,note_off,7,0,0,,,,,5,,,,,,,70,0
2264,note_on,1,0,0,,,,,5,,,,,,,71,96
2268,note_off,4,0,0,,,,,0,,,,,,,73,0
2268,note_on,0,0,0,,,,,0,,,,,,,71,80
2268,note_off,0,0,0,,,,,1,,,,,,,70,0
2268,note_on,0,0,0,,,,,1,,,,,,,68,80
2271,note_off,3,0,0,,,,,5,,,,,,,71,0
2272,note_on,1,0,0,,,,,5,,,,,,,73,96
2277,note_off,5,0,0,,,,,6,,,,,,,42,0
2279,note_off,2,0,0,,,,,5,,,,,,,73,0
2280,note_off,1,0,0,,,,,0,,,,,,,71,0
2280,note_on,0,0,0,,,,,0,,,,,,,70,80
2280,note_off,0,0,0,,,,,1,,,,,,,68,0
2280,note_on,0,0,0,,,,,1,,,,,,,66,80
2280,note_on,0,0,0,,,,,5,,,,,,,75,96
2292,note_off,12,0,0,,,,,0,,,,,,,70,0
2292,note_on,0,0,0,,,,,0,,,,,,,68,80
2292,note_off,0,0,0,,,,,1,,,,,,,66,0
2292,note_on,0,0,0,,,,,1,,,,,,,64,80
2302,note_off,10,0,0,,,,,0,,,,,,,68,0
2302,note_off,0,0,0,,,,,1,,,,,,,64,0
2304,note_on,2,0,0,,,,,0,,,,,,,66,80
2304,note_on,0,0,0,,,,,1,,,,,,,63,80
2304,note_on,0,0,0,,,,,2,,,,,,,70,80
2304,note_on,0,0,0,,,,,3,,,,,,,42,80
2304,note_on,0,0,0,,,,,4,,,,,,,30,80
2304,note_on,0,0,0,,,,,6,,,,,,,54,96
2311,note_off,7,0,0,,,,,5,,,,,,,75,0
2316,note_on,5,0,0,,,,,5,,,,,,,76,96
2325,note_off,9,0,0,,,,,0,,,,,,,66,0
2325,note_off,0,0,0,,,,,1,,,,,,,63,0
2325,note_off,0,0,0,,,,,2,,,,,,,70,0
2325,note_off,0,0,0,,,,,3,,,,,,,42,0
2325,note_off,0,0,0,,,,,4,,,,,,,30,0
2325,note_off,0,0,0,,,,,6,,,,,,,54,0
2326,note_off,1,0,0,,,,,5,,,,,,,76,0
2328,note_on,2,0,0,,,,,5,,,,,,,78,96
2328,note_on,0,0,0,,,,,6,,,,,,,51,96
2338,note_off,10,0,0,,,,,5,,,,,,,78,0
2340,note_on,2,0,0,,,,,5,,,,,,,75,96
2349,note_off,9,0,0,,,,,6,,,,,,,51,0
2350,note_off,1,0,0,,,,,5,,,,,,,75,0
2352,note_on,2,0,0,,,,,5,,,,,,,70,96
2352,note_on,0,0,0,,,,,6,,,,,,,54,96
2362,note_off,10,0,0,,,,,5,,,,,,,70,0
2364,note_on,2,0,0,,,,,5,,,,,,,73,96
2373,note_off,9,0,0,,,,,6,,,,,,,54,0
2374,note_off,1,0,0,,,,,5,,,,,,,73,0
2376,note_on,2,0,0,,,,,2,,,,,,,63,80
2376,note_on,0,0,0,,,,,3,,,,,,,44,80
2376,note_on,0,0,0,,,,,4,,,,,,,32,80
2376,note_on,0,0,0,,,,,5,,,,,,,71,96
2376,note_on,0,0,0,,,,,6,,,,,,,56,96
2383,note_off,7,0,0,,,,,5,,,,,,,71,0
2384,note_on,1,0,0,,,,,5,,,,,,,68,96
2391,note_off,7,0,0,,,,,5,,,,,,,68,0
2392,note_on,1,0,0,,,,,5,,,,,,,70,96
2397,note_off,5,0,0,,,,,2,,,,,,,63,0
2397,note_off,0,0,0,,,,,3,,,,,,,44,0
2397,note_off,0,0,0,,,,,4,,,,,,,32,0
2397,note_off,0,0,0,,,,,6,,,,,,,56,0
2399,note_off,2,0,0,,,,,5,,,,,,,70,0
2400,note_on,1,0,0,,,,,0,,,,,,,75,80
2400,note_on,0,0,0,,,,,1,,,,,,,71,80
2400,note_on,0,0,0,,,,,5,,,,,,,71,96
2400,note_on,0,0,0,,,,,6,,,,,,,44,96
2407,note_off,7,0,0,,,,,5,,,,,,,71,0
2408,note_on,1,0,0,,,,,5,,,,,,,73,96
2412,note_off,4,0,0,,,,,0,,,,,,,75,0
2412,note_on,0,0,0,,,,,0,,,,,,,73,80
2412,note_off,0,0,0,,,,,1,,,,,,,71,0
2412,note_on,0,0,0,,,,,1,,,,,,,69,80
2415,note_off,3,0,0,,,,,5,,,,,,,73,0
2416,note_on,1,0,0,,,,,5,,,,,,,75,96
2421,note_off,5,0,0,,,,,6,,,,,,,44,0
2423,note_off,2,0,0,,,,,5,,,,,,,75,0
2424,note_off,1,0,0,,,,,0,,,,,,,73,0
2424,note_on,0,0,0,,,,,0,,,,,,,71,80
2424,note_off,0,0,0,,,,,1,,,,,,,69,0
2424,note_on,0,0,0,,,,,1,,,,,,,68,80
2424,note_on,0,0,0,,,,,5,,,,,,,76,96
2436,note_off,12,0,0,,,,,0,,,,,,,71,0
2436,note_on,0,0,0,,,,,0,,,,,,,69,80
2436,note_off,0,0,0,,,,,1,,,,,,,68,0
2436,note_on,0,0,0,,,,,1,,,,,,,66,80
2446,note_off,10,0,0,,,,,0,,,,,,,69,0
2446,note_off,0,0,0,,,,,1,,,,,,,66,0
2448,note_on,2,0,0,,,,,0,,,,,,,68,80
2448,note_on,0,0,0,,,,,1,,,,,,,64,80
2448,note_on,0,0,0,,,,,2,,,,,,,71,80
2448,note_on,0,0,0,,,,,3,,,,,,,56,80
2448,note_on,0,0,0,,,,,4,,,,,,,44,80
2448,note_on,0,0,0,,,,,6,,,,,,,56,96
2455,note_off,7,0,0,,,,,5,,,,,,,76,0
2460,note_on,5,0,0,,,,,5,,,,,,,78,96
2469,note_off,9,0,0,,,,,0,,,,,,,68,0
2469,note_off,0,0,0,,,,,1,,,,,,,64,0
2469,note_off,0,0,0,,,,,2,,,,,,,71,0
2469,note_off,0,0,0,,,,,3,,,,,,,56,0
2469,note_off,0,0,0,,,,,4,,,,,,,44,0
2469,note_off,0,0,0,,,,,6,,,,,,,56,0
2470,note_off,1,0,0,,,,,5,,,,,,,78,0
2472,note_on,2,0,0,,,,,5,,,,,,,80,96
2472,note_on,0,0,0,,,,,6,,,,,,,52,96
2482,note_off,10,0,0,,,,,5,,,,,,,80,0
2484,note_on,2,0,0,,,,,5,,,,,,,76,96
2493,note_off,9,0,0,,,,,6,,,,,,,52,0
2494,note_off,1,0,0,,,,,5,,,,,,,76,0
2496,note_on,2,0,0,,,,,5,,,,,,,71,96
2496,note_on,0,0,0,,,,,6,,,,,,,56,96
2506,note_off,10,0,0,,,,,5,,,,,,,71,0
2508,note_on,2,0,0,,,,,5,,,,,,,75,96
2517,note_off,9,0,0,,,,,6,,,,,,,56,0
2518,note_off,1,0,0,,,,,5,,,,,,,75,0
2520,note_on,2,0,0,,,,,2,,,,,,,66,80
2520,note_on,0,0,0,,,,,3,,,,,,,58,80
2520,note_on,0,0,0,,,,,4,,,,,,,46,80
2520,note_on,0,0,0,,,,,5,,,,,,,73,96
2520,note_on,0,0,0,,,,,6,,,,,,,58,96
2527,note_off,7,0,0,,,,,5,,,,,,,73,0
2528,note_on,1,0,0,,,,,5,,,,,,,70,96
2535,note_off,7,0,0,,,,,5,,,,,,,70,0
2536,note_on,1,0,0,,,,,5,,,,,,,71,96
2541,note_off,5,0,0,,,,,2,,,,,,,66,0
2541,note_off,0,0,0,,,,,3,,,,,,,58,0
2541,note_off,0,0,0,,,,,4,,,,,,,46,0
2541,note_off,0,0,0,,,,,6,,,,,,,58,0
2543,note_off,2,0,0,,,,,5,,,,,,,71,0
2544,note_on,1,0,0,,,,,0,,,,,,,76,80
2544,note_on,0,0,0,,,,,1,,,,,,,73,80
2544,note_on,0,0,0,,,,,5,,,,,,,73,96
2544,note_on,0,0,0,,,,,6,,,,,,,46,96
2551,note_off,7,0,0,,,,,5,,,,,,,73,0
2552,note_on,1,0,0,,,,,5,,,,,,,75,96
2556,note_off,4,0,0,,,,,0,,,,,,,76,0
2556,note_on,0,0,0,,,,,0,,,,,,,75,80
2556,note_off,0,0,0,,,,,1,,,,,,,73,0
2556,note_on,0,0,0,,,,,1,,,,,,,71,80
2559,note_off,3,0,0,,,,,5,,,,,,,75,0
2560,note_on,1,0,0,,,,,5,,,,,,,76,96
2565,note_off,5,0,0,,,,,6,,,,,,,46,0
2567,note_off,2,0,0,,,,,5,,,,,,,76,0
2568,note_off,1,0,0,,,,,0,,,,,,,75,0
2568,note_on,0,0,0,,,,,0,,,,,,,73,80
2568,note_off,0,0,0,,,,,1,,,,,,,71,0
2568,note_on,0,0,0,,,,,1,,,,,,,70,80
2568,note_on,0,0,0,,,,,5,,,,,,,78,96
2580,note_off,12,0,0,,,,,0,,,,,,,73,0
2580,note_on,0,0,0,,,,,0,,,,,,,71,80
2580,note_off,0,0,0,,,,,1,,,,,,,70,0
2580,note_on,0,0,0,,,,,1,,,,,,,68,80
2590,note_off,10,0,0,,,,,0,,,,,,,71,0
2590,note_off,0,0,0,,,,,1,,,,,,,68,0
2592,note_on,2,0,0,,,,,0,,,,,,,70,80
2592,note_on,0,0,0,,,,,1,,,,,,,66,80
2592,note_on,0,0,0,,,,,2,,,,,,,73,80
2592,note_on,0,0,0,,,,,3,,,,,,,54,80
2592,note_on,0,0,0,,,,,4,,,,,,,42,80
2592,note_on,0,0,0,,,,,6,,,,,,,54,96
2599,note_off,7,0,0,,,,,5,,,,,,,78,0
2604,note_on,5,0,0,,,,,5,,,,,,,75,96
2613,note_off,9,0,0,,,,,0,,,,,,,70,0
2613,note_off,0,0,0,,,,,1,,,,,,,66,0
2613,note_off,0,0,0,,,,,2,,,,,,,73,0
2613,note_off,0,0,0,,,,,3,,,,,,,54,0
2613,note_off,0,0,0,,,,,4,,,,,,,42,0
2613,note_off,0,0,0,,,,,6,,,,,,,54,0
2614,note_off,1,0,0,,,,,5,,,,,,,75,0
2616,note_on,2,0,0,,,,,5,,,,,,,76,96
2616,note_on,0,0,0,,,,,6,,,,,,,56,96
2626,note_off,10,0,0,,,,,5,,,,,,,76,0
2628,note_on,2,0,0,,,,,5,,,,,,,80,96
2637,note_off,9,0,0,,,,,6,,,,,,,56,0
2638,note_off,1,0,0,,,,,5,,,,,,,80,0
2640,note_on,2,0,0,,,,,5,,,,,,,78,96
2640,note_on,0,0,0,,,,,6,,,,,,,58,96
2650,note_off,10,0,0,,,,,5,,,,,,,78,0
2652,note_on,2,0,0,,,,,5,,,,,,,76,96
2661,note_off,9,0,0,,,,,6,,,,,,,58,0
2662,note_off,1,0,0,,,,,5,,,,,,,76,0
2664,note_on,2,0,0,,,,,2,,,,,,,66,80
2664,note_on,0,0,0,,,,,3,,,,,,,59,80
2664,note_on,0,0,0,,,,,4,,,,,,,47,80
2664,note_on,0,0,0,,,,,5,,,,,,,75,96
2664,note_on,0,0,0,,,,,6,,,,,,,59,96
2674,note_off,10,0,0,,,,,5,,,,,,,75,0
2676,note_on,2,0,0,,,,,5,,,,,,,71,96
2685,note_off,9,0,0,,,,,2,,,,,,,66,0
2685,note_off,0,0,0,,,,,3,,,,,,,59,0
2685,note_off,0,0,0,,,,,4,,,,,,,47,0
2685,note_off,0,0,0,,,,,6,,,,,,,59,0
2686,note_off,1,0,0,,,,,5,,,,,,,71,0
2688,note_on,2,0,0,,,,,5,,,,,,,73,96
2688,note_on,0,0,0,,,,,6,,,,,,,58,96
2698,note_off,10,0,0,,,,,5,,,,,,,73,0
2700,note_on,2,0,0,,,,,5,,,,,,,76,96
2709,note_off,9,0,0,,,,,6,,,,,,,58,0
2710,note_off,1,0,0,,,,,5,,,,,,,76,0
2712,note_on,2,0,0,,,,,5,,,,,,,75,96
2712,note_on,0,0,0,,,,,6,,,,,,,55,96
2722,note_off,10,0,0,,,,,5,,,,,,,75,0
2724,note_on,2,0,0,,,,,5,,,,,,,73,96
2733,note_off,9,0,0,,,,,6,,,,,,,55,0
2734,note_off,1,0,0,,,,,5,,,,,,,73,0
2736,note_on,2,0,0,,,,,5,,,,,,,71,96
2736,note_on,0,0,0,,,,,6,,,,,,,56,96
2746,note_off,10,0,0,,,,,5,,,,,,,71,0
2748,note_on,2,0,0,,,,,5,,,,,,,68,96
2757,note_off,9,0,0,,,,,6,,,,,,,56,0
2758,note_off,1,0,0,,,,,5,,,,,,,68,0
2760,note_on,2,0,0,,,,,5,,,,,,,69,96
2760,note_on,0,0,0,,,,,6,,,,,,,49,96
2770,note_off,10,0,0,,,,,5,,,,,,,69,0
2772,note_on,2,0,0,,,,,5,,,,,,,73,96
2781,note_off,9,0,0,,,,,6,,,,,,,49,0
2782,note_off,1,0,0,,,,,5,,,,,,,73,0
2784,note_on,2,0,0,,,,,5,,,,,,,71,96
2784,note_on,0,0,0,,,,,6,,,,,,,51,96
2794,note_off,10,0,0,,,,,5,,,,,,,71,0
2796,note_on,2,0,0,,,,,5,,,,,,,69,96
2805,note_off,9,0,0,,,,,6,,,,,,,51,0
2806,note_off,1,0,0,,,,,5,,,,,,,69,0
2808,note_on,2,0,0,,,,,5,,,,,,,68,96
2808,note_on,0,0,0,,,,,6,,,,,,,52,96
2818,note_off,10,0,0,,,,,5,,,,,,,68,0
2820,note_on,2,0,0,,,,,5,,,,,,,70,96
2829,note_off,9,0,0,,,,,6,,,,,,,52,0
2830,note_off,1,0,0,,,,,5,,,,,,,70,0
2832,note_on,2,0,0,,,,,5,,,,,,,71,96
2832,note_on,0,0,0,,,,,6,,,,,,,56,96
2842,note_off,10,0,0,,,,,5,,,,,,,71,0
2844,note_on,2,0,0,,,,,5,,,,,,,73,96
2853,note_off,9,0,0,,,,,6,,,,,,,56,0
2854,note_off,1,0,0,,,,,5,,,,,,,73,0
2856,note_on,2,0,0,,,,,5,,,,,,,75,96
2856,note_on,0,0,0,,,,,6,,,,,,,59,96
2866,note_off,10,0,0,,,,,5,,,,,,,75,0
2868,note_on,2,0,0,,,,,5,,,,,,,76,96
2877,note_off,9,0,0,,,,,6,,,,,,,59,0
2878,note_off,1,0,0,,,,,5,,,,,,,76,0
2880,note_on,2,0,0,,,,,5,,,,,,,70,96
2880,note_on,0,0,0,,,,,6,,,,,,,64,96
2890,note_off,10,0,0,,,,,5,,,,,,,70,0
2892,note_on,2,0,0,,,,,5,,,,,,,66,96
2902,note_off,10,0,0,,,,,5,,,,,,,66,0
2904,note_on,2,0,0,,,,,5,,,,,,,70,96
2911,note_off,7,0,0,,,,,6,,,,,,,64,0
2914,note_off,3,0,0,,,,,5,,,,,,,70,0
2916,note_on,2,0,0,,,,,5,,,,,,,73,96
2916,note_on,0,0,0,,,,,6,,,,,,,52,96
2926,note_off,10,0,0,,,,,5,,,,,,,73,0
2926,note_off,0,0,0,,,,,6,,,,,,,52,0
2928,note_on,2,0,0,,,,,5,,,,,,,78,96
2928,note_on,0,0,0,,,,,6,,,,,,,51,96
2938,note_off,10,0,0,,,,,6,,,,,,,51,0
2940,note_on,2,0,0,,,,,6,,,,,,,49,96
2949,note_off,9,0,0,,,,,5,,,,,,,78,0
2950,note_off,1,0,0,,,,,6,,,,,,,49,0
2952,note_on,2,0,0,,,,,6,,,,,,,51,96
2964,note_on,12,0,0,,,,,5,,,,,,,71,96
2973,note_off,9,0,0,,,,,6,,,,,,,51,0
2974,note_off,1,0,0,,,,,5,,,,,,,71,0
2976,note_on,2,0,0,,,,,5,,,,,,,75,96
2976,note_on,0,0,0,,,,,6,,,,,,,52,96
2986,note_off,10,0,0,,,,,5,,,,,,,75,0
2988,note_on,2,0,0,,,,,5,,,,,,,73,96
2997,note_off,9,0,0,,,,,6,,,,,,,52,0
2998,note_off,1,0,0,,,,,5,,,,,,,73,0
3000,note_on,2,0,0,,,,,5,,,,,,,71,96
3000,note_on,0,0,0,,,,,6,,,,,,,54,96
3010,note_off,10,0,0,,,,,5,,,,,,,71,0
3012,note_on,2,0,0,,,,,5,,,,,,,70,96
3021,note_off,9,0,0,,,,,6,,,,,,,54,0
3022,note_off,1,0,0,,,,,5,,,,,,,70,0
3024,note_on,2,0,0,,,,,5,,,,,,,71,96
3024,note_on,0,0,0,,,,,6,,,,,,,47,96
3031,note_off,7,0,0,,,,,5,,,,,,,71,0
3032,note_on,1,0,0,,,,,5,,,,,,,66,96
3039,note_off,7,0,0,,,,,5,,,,,,,66,0
3040,note_on,1,0,0,,,,,5,,,,,,,63,96
3045,note_off,5,0,0,,,,,6,,,,,,,47,0
3047,note_off,2,0,0,,,,,5,,,,,,,63,0
3048,note_on,1,0,0,,,,,0,,,,,,,59,96
3048,note_on,0,0,0,,,,,1,,,,,,,66,96
3048,note_on,0,0,0,,,,,2,,,,,,,63,96
3048,note_on,0,0,0,,,,,3,,,,,,,47,96
3048,note_on,0,0,0,,,,,4,,,,,,,35,96
3048,note_on,0,0,0,,,,,6,,,,,,,59,96
3055,note_off,7,0,0,,,,,6,,,,,,,59,0
3056,note_on,1,0,0,,,,,6,,,,,,,54,96
3063,note_off,7,0,0,,,,,6,,,,,,,54,0
3064,note_on,1,0,0,,,,,6,,,,,,,51,96
3069,note_off,5,0,0,,,,,0,,,,,,,59,0
3069,note_off,0,0,0,,,,,1,,,,,,,66,0
3069,note_off,0,0,0,,,,,2,,,,,,,63,0
3069,note_off,0,0,0,,,,,3,,,,,,,47,0
3069,note_off,0,0,0,,,,,4,,,,,,,35,0
3071,note_off,2,0,0,,,,,6,,,,,,,51,0
3072,note_on,1,0,0,,,,,0,,,,,,,63,96
3072,note_on,0,0,0,,,,,1,,,,,,,59,96
3072,note_on,0,0,0,,,,,2,,,,,,,66,96
3072,note_on,0,0,0,,,,,3,,,,,,,47,96
3072,note_on,0,0,0,,,,,4,,,,,,,35,96
3072,note_on,0,0,0,,,,,6,,,,,,,47,96
3079,note_off,7,0,0,,,,,6,,,,,,,47,0
3080,note_on,1,0,0,,,,,6,,,,,,,42,96
3087,note_off,7,0,0,,,,,6,,,,,,,42,0
3088,note_on,1,0,0,,,,,6,,,,,,,39,96
3093,note_off,5,0,0,,,,,0,,,,,,,63,0
3093,note_off,0,0,0,,,,,1,,,,,,,59,0
3093,note_off,0,0,0,,,,,2,,,,,,,66,0
3093,note_off,0,0,0,,,,,3,,,,,,,47,0
3093,note_off,0,0,0,,,,,4,,,,,,,35,0
3095,note_off,2,0,0,,,,,6,,,,,,,39,0
3096,note_on,1,0,0,,,,,0,,,,,,,66,96
3096,note_on,0,0,0,,,,,1,,,,,,,63,96
3096,note_on,0,0,0,,,,,2,,,,,,,59,96
3096,note_on,0,0,0,,,,,3,,,,,,,47,96
3096,note_on,0,0,0,,,,,4,,,,,,,35,96
3096,note_on,0,0,0,,,,,6,,,,,,,35,96
3103,note_off,7,0,0,,,,,6,,,,,,,35,0
3104,note_on,1,0,0,,,,,6,,,,,,,39,96
3111,note_off,7,0,0,,,,,6,,,,,,,39,0
3112,note_on,1,0,0,,,,,6,,,,,,,42,96
3117,note_off,5,0,0,,,,,0,,,,,,,66,0
3117,note_off,0,0,0,,,,,1,,,,,,,63,0
3117,note_off,0,0,0,,,,,2,,,,,,,59,0
3117,note_off,0,0,0,,,,,3,,,,,,,47,0
3117,note_off,0,0,0,,,,,4,,,,,,,35,0
3119,note_off,2,0,0,,,,,6,,,,,,,42,0
3120,note_on,1,0,0,,,,,0,,,,,,,59,96
3120,note_on,0,0,0,,,,,1,,,,,,,66,96
3120,note_on,0,0,0,,,,,2,,,,,,,63,96
3120,note_on,0,0,0,,,,,3,,,,,,,47,96
3120,note_on,0,0,0,,,,,4,,,,,,,35,96
3120,note_on,0,0,0,,,,,6,,,,,,,47,96
3127,note_off,7,0,0,,,,,6,,,,,,,47,0
3128,note_on,1,0,0,,,,,6,,,,,,,51,96
3130,note_off,2,0,0,,,,,0,,,,,,,59,0
3132,note_on,2,0,0,,,,,0,,,,,,,61,96
3135,note_off,3,0,0,,,,,6,,,,,,,51,0
3136,note_on,1,0,0,,,,,6,,,,,,,54,96
3141,note_off,5,0,0,,,,,1,,,,,,,66,0
3141,note_off,0,0,0,,,,,2,,,,,,,63,0
3141,note_off,0,0,0,,,,,3,,,,,,,47,0
3141,note_off,0,0,0,,,,,4,,,,,,,35,0
3142,note_off,1,0,0,,,,,0,,,,,,,61,0
3143,note_off,1,0,0,,,,,6,,,,,,,54,0
3144,note_on,1,0,0,,,,,0,,,,,,,63,96
3144,note_on,0,0,0,,,,,1,,,,,,,59,96
3144,note_on,0,0,0,,,,,2,,,,,,,66,96
3144,note_on,0,0,0,,,,,3,,,,,,,47,96
3144,note_on,0,0,0,,,,,4,,,,,,,35,96
3144,note_on,0,0,0,,,,,5,,,,,,,59,96
3151,note_off,7,0,0,,,,,5,,,,,,,59,0
3152,note_on,1,0,0,,,,,5,,,,,,,63,96
3154,note_off,2,0,0,,,,,0,,,,,,,63,0
3154,note_off,0,0,0,,,,,1,,,,,,,59,0
3156,note_on,2,0,0,,,,,0,,,,,,,64,96
3156,note_on,0,0,0,,,,,1,,,,,,,61,96
3159,note_off,3,0,0,,,,,5,,,,,,,63,0
3160,note_on,1,0,0,,,,,5,,,,,,,66,96
3165,note_off,5,0,0,,,,,2,,,,,,,66,0
3165,note_off,0,0,0,,,,,3,,,,,,,47,0
3165,note_off,0,0,0,,,,,4,,,,,,,35,0
3166,note_off,1,0,0,,,,,0,,,,,,,64,0
3166,note_off,0,0,0,,,,,1,,,,,,,61,0
3167,note_off,1,0,0,,,,,5,,,,,,,66,0
3168,note_on,1,0,0,,,,,0,,,,,,,66,96
3168,note_on,0,0,0,,,,,1,,,,,,,63,96
3168,note_on,0,0,0,,,,,2,,,,,,,59,96
3168,note_on,0,0,0,,,,,3,,,,,,,47,96
3168,note_on,0,0,0,,,,,4,,,,,,,35,96
3168,note_on,0,0,0,,,,,5,,,,,,,71,96
3175,note_off,7,0,0,,,,,5,,,,,,,71,0
3176,note_on,1,0,0,,,,,5,,,,,,,66,96
3178,note_off,2,0,0,,,,,1,,,,,,,63,0
3178,note_off,0,0,0,,,,,2,,,,,,,59,0
3180,note_on,2,0,0,,,,,1,,,,,,,64,96
3180,note_on,0,0,0,,,,,2,,,,,,,61,96
3183,note_off,3,0,0,,,,,5,,,,,,,66,0
3184,note_on,1,0,0,,,,,5,,,,,,,70,96
3189,note_off,5,0,0,,,,,0,,,,,,,66,0
3189,note_off,0,0,0,,,,,3,,,,,,,47,0
3189,note_off,0,0,0,,,,,4,,,,,,,35,0
3190,note_off,1,0,0,,,,,1,,,,,,,64,0
3190,note_off,0,0,0,,,,,2,,,,,,,61,0
3191,note_off,1,0,0,,,,,5,,,,,,,70,0
3192,note_on,1,0,0,,,,,0,,,,,,,71,96
3192,note_on,0,0,0,,,,,1,,,,,,,66,96
3192,note_on,0,0,0,,,,,2,,,,,,,63,96
3192,note_on,0,0,0,,,,,3,,,,,,,47,96
3192,note_on,0,0,0,,,,,4,,,,,,,35,96
3192,note_on,0,0,0,,,,,5,,,,,,,71,96
3192,note_on,0,0,0,,,,,6,,,,,,,54,96
3192,note_on,0,0,0,,,,,6,,,,,,,51,96
3192,note_on,0,0,0,,,,,6,,,,,,,47,96
3199,note_off,7,0,0,,,,,5,,,,,,,71,0
3200,note_on,1,0,0,,,,,5,,,,,,,66,96
3202,note_off,2,0,0,,,,,2,,,,,,,63,0
3204,note_on,2,0,0,,,,,2,,,,,,,64,96
3207,note_off,3,0,0,,,,,5,,,,,,,66,0
3208,note_on,1,0,0,,,,,5,,,,,,,71,96
3213,note_off,5,0,0,,,,,0,,,,,,,71,0
3213,note_off,0,0,0,,,,,1,,,,,,,66,0
3213,note_off,0,0,0,,,,,3,,,,,,,47,0
3213,note_off,0,0,0,,,,,4,,,,,,,35,0
3213,note_off,0,0,0,,,,,6,,,,,,,54,0
3213,note_off,0,0,0,,,,,6,,,,,,,51,0
3213,note_off,0,0,0,,,,,6,,,,,,,47,0
3214,note_off,1,0,0,,,,,2,,,,,,,64,0
3215,note_off,1,0,0,,,,,5,,,,,,,71,0
3216,note_on,1,0,0,,,,,0,,,,,,,75,96
3216,note_on,0,0,0,,,,,1,,,,,,,71,96
3216,note_on,0,0,0,,,,,2,,,,,,,66,96
3216,note_on,0,0,0,,,,,3,,,,,,,47,96
3216,note_on,0,0,0,,,,,4,,,,,,,35,96
3216,note_on,0,0,0,,,,,5,,,,,,,75,96
3216,note_on,0,0,0,,,,,6,,,,,,,54,96
3216,note_on,0,0,0,,,,,6,,,,,,,51,96
3216,note_on,0,0,0,,,,,6,,,,,,,47,96
3223,note_off,7,0,0,,,,,5,,,,,,,75,0
3224,note_on,1,0,0,,,,,5,,,,,,,71,96
3231,note_off,7,0,0,,,,,5,,,,,,,71,0
3232,note_on,1,0,0,,,,,5,,,,,,,75,96
3237,note_off,5,0,0,,,,,0,,,,,,,75,0
3237,note_off,0,0,0,,,,,1,,,,,,,71,0
3237,note_off,0,0,0,,,,,2,,,,,,,66,0
3237,note_off,0,0,0,,,,,3,,,,,,,47,0
3237,note_off,0,0,0,,,,,4,,,,,,,35,0
3237,note_off,0,0,0,,,,,6,,,,,,,54,0
3237,note_off,0,0,0,,,,,6,,,,,,,51,0
3237,note_off,0,0,0,,,,,6,,,,,,,47,0
3239,note_off,2,0,0,,,,,5,,,,,,,75,0
3240,note_on,1,0,0,,,,,0,,,,,,,78,96
3240,note_on,0,0,0,,,,,1,,,,,,,75,96
3240,note_on,0,0,0,,,,,2,,,,,,,71,96
3240,note_on,0,0,0,,,,,3,,,,,,,47,96
3240,note_on,0,0,0,,,,,4,,,,,,,35,96
3240,note_on,0,0,0,,,,,5,,,,,,,78,96
3240,note_on,0,0,0,,,,,6,,,,,,,54,96
3240,note_on,0,0,0,,,,,6,,,,,,,51,96
3240,note_on,0,0,0,,,,,6,,,,,,,47,96
3261,note_off,21,0,0,,,,,0,,,,,,,78,0
3261,note_off,0,0,0,,,,,1,,,,,,,75,0
3261,note_off,0,0,0,,,,,2,,,,,,,71,0
3261,note_off,0,0,0,,,,,3,,,,,,,47,0
3261,note_off,0,0,0,,,,,4,,,,,,,35,0
3261,note_off,0,0,0,,,,,5,,,,,,,78,0
3261,note_off,0,0,0,,,,,6,,,,,,,54,0
3261,note_off,0,0,0,,,,,6,,,,,,,51,0
3261,note_off,0,0,0,,,,,6,,,,,,,47,0
3264,note_on,3,0,0,,,,,0,,,,,,,76,96
3264,note_on,0,0,0,,,,,1,,,,,,,71,96
3264,note_on,0,0,0,,,,,2,,,,,,,59,96
3264,note_on,0,0,0,,,,,3,,,,,,,56,96
3264,note_on,0,0,0,,,,,4,,,,,,,44,96
3264,note_on,0,0,0,,,,,5,,,,,,,76,96
3264,note_on,0,0,0,,,,,6,,,,,,,56,96
3274,note_off,10,0,0,,,,,0,,,,,,,76,0
3274,note_off,0,0,0,,,,,5,,,,,,,76,0
3276,note_on,2,0,0,,,,,0,,,,,,,75,96
3276,note_on,0,0,0,,,,,5,,,,,,,75,96
3285,note_off,9,0,0,,,,,1,,,,,,,71,0
3285,note_off,0,0,0,,,,,2,,,,,,,59,0
3285,note_off,0,0,0,,,,,3,,,,,,,56,0
3285,note_off,0,0,0,,,,,4,,,,,,,44,0
3285,note_off,0,0,0,,,,,6,,,,,,,56,0
3286,note_off,1,0,0,,,,,0,,,,,,,75,0
3286,note_off,0,0,0,,,,,5,,,,,,,75,0
3288,note_on,2,0,0,,,,,0,,,,,,,73,96
3288,note_on,0,0,0,,,,,1,,,,,,,68,96
3288,note_on,0,0,0,,,,,2,,,,,,,64,96
3288,note_on,0,0,0,,,,,3,,,,,,,52,96
3288,note_on,0,0,0,,,,,4,,,,,,,40,96
3288,note_on,0,0,0,,,,,5,,,,,,,73,96
3288,note_on,0,0,0,,,,,6,,,,,,,52,96
3298,note_off,10,0,0,,,,,0,,,,,,,73,0
3298,note_off,0,0,0,,,,,5,,,,,,,73,0
3300,note_on,2,0,0,,,,,0,,,,,,,71,96
3300,note_on,0,0,0,,,,,5,,,,,,,71,96
3309,note_off,9,0,0,,,,,1,,,,,,,68,0
3309,note_off,0,0,0,,,,,2,,,,,,,64,0
3309,note_off,0,0,0,,,,,3,,,,,,,52,0
3309,note_off,0,0,0,,,,,4,,,,,,,40,0
3309,note_off,0,0,0,,,,,6,,,,,,,52,0
3310,note_off,1,0,0,,,,,0,,,,,,,71,0
3310,note_off,0,0,0,,,,,5,,,,,,,71,0
3312,note_on,2,0,0,,,,,0,,,,,,,70,96
3312,note_on,0,0,0,,,,,1,,,,,,,66,96
3312,note_on,0,0,0,,,,,2,,,,,,,61,96
3312,note_on,0,0,0,,,,,3,,,,,,,42,96
3312,note_on,0,0,0,,,,,4,,,,,,,30,96
3312,note_on,0,0,0,,,,,5,,,,,,,70,96
3312,note_on,0,0,0,,,,,6,,,,,,,54,96
3322,note_off,10,0,0,,,,,0,,,,,,,70,0
3322,note_off,0,0,0,,,,,6,,,,,,,54,0
3324,note_on,2,0,0,,,,,0,,,,,,,66,96
3324,note_on,0,0,0,,,,,6,,,,,,,56,96
3333,note_off,9,0,0,,,,,1,,,,,,,66,0
3333,note_off,0,0,0,,,,,2,,,,,,,61,0
3333,note_off,0,0,0,,,,,3,,,,,,,42,0
3333,note_off,0,0,0,,,,,4,,,,,,,30,0
3333,note_off,0,0,0,,,,,5,,,,,,,70,0
3334,note_off,1,0,0,,,,,0,,,,,,,66,0
3334,note_off,0,0,0,,,,,6,,,,,,,56,0
3336,note_on,2,0,0,,,,,0,,,,,,,73,96
3336,note_on,0,0,0,,,,,3,,,,,,,46,96
3336,note_on,0,0,0,,,,,4,,,,,,,34,96
3336,note_on,0,0,0,,,,,5,,,,,,,78,96
3336,note_on,0,0,0,,,,,6,,,,,,,58,96
3346,note_off,10,0,0,,,,,5,,,,,,,78,0
3346,note_off,0,0,0,,,,,6,,,,,,,58,0
3348,note_on,2,0,0,,,,,5,,,,,,,80,96
3348,note_on,0,0,0,,,,,6,,,,,,,59,96
3357,note_off,9,0,0,,,,,0,,,,,,,73,0
3357,note_off,0,0,0,,,,,3,,,,,,,46,0
3357,note_off,0,0,0,,,,,4,,,,,,,34,0
3358,note_off,1,0,0,,,,,5,,,,,,,80,0
3358,note_off,0,0,0,,,,,6,,,,,,,59,0
3360,note_on,2,0,0,,,,,0,,,,,,,73,80
3360,note_on,0,0,0,,,,,3,,,,,,,49,96
3360,note_on,0,0,0,,,,,4,,,,,,,37,96
3360,note_on,0,0,0,,,,,5,,,,,,,82,96
3360,note_on,0,0,0,,,,,6,,,,,,,61,96
3370,note_off,10,0,0,,,,,5,,,,,,,82,0
3370,note_off,0,0,0,,,,,6,,,,,,,61,0
3372,note_on,2,0,0,,,,,5,,,,,,,78,96
3372,note_on,0,0,0,,,,,6,,,,,,,58,96
3381,note_off,9,0,0,,,,,0,,,,,,,73,0
3381,note_off,0,0,0,,,,,3,,,,,,,49,0
3381,note_off,0,0,0,,,,,4,,,,,,,37,0
3382,note_off,1,0,0,,,,,5,,,,,,,78,0
3382,note_off,0,0,0,,,,,6,,,,,,,58,0
3384,note_on,2,0,0,,,,,0,,,,,,,73,80
3384,note_on,0,0,0,,,,,1,,,,,,,70,80
3384,note_on,0,0,0,,,,,2,,,,,,,66,80
3384,note_on,0,0,0,,,,,3,,,,,,,54,80
3384,note_on,0,0,0,,,,,4,,,,,,,42,80
3384,note_on,0,0,0,,,,,5,,,,,,,75,96
3384,note_on,0,0,0,,,,,6,,,,,,,54,96
3394,note_off,10,0,0,,,,,6,,,,,,,54,0
3396,note_on,2,0,0,,,,,6,,,,,,,58,96
3405,note_off,9,0,0,,,,,0,,,,,,,73,0
3405,note_off,0,0,0,,,,,3,,,,,,,54,0
3405,note_off,0,0,0,,,,,4,,,,,,,42,0
3405,note_off,0,0,0,,,,,5,,,,,,,75,0
3406,note_off,1,0,0,,,,,6,,,,,,,58,0
3408,note_on,2,0,0,,,,,0,,,,,,,75,80
3408,note_on,0,0,0,,,,,3,,,,,,,52,80
3408,note_on,0,0,0,,,,,4,,,,,,,40,80
3408,note_on,0,0,0,,,,,5,,,,,,,75,96
3408,note_on,0,0,0,,,,,6,,,,,,,52,96
3418,note_off,10,0,0,,,,,0,,,,,,,75,0
3418,note_off,0,0,0,,,,,6,,,,,,,52,0
3420,note_on,2,0,0,,,,,0,,,,,,,76,80
3420,note_on,0,0,0,,,,,6,,,,,,,58,96
3429,note_off,9,0,0,,,,,3,,,,,,,52,0
3429,note_off,0,0,0,,,,,4,,,,,,,40,0
3429,note_off,0,0,0,,,,,5,,,,,,,75,0
3430,note_off,1,0,0,,,,,0,,,,,,,76,0
3430,note_off,0,0,0,,,,,6,,,,,,,58,0
3432,note_on,2,0,0,,,,,0,,,,,,,78,80
3432,note_on,0,0,0,,,,,3,,,,,,,51,80
3432,note_on,0,0,0,,,,,4,,,,,,,39,80
3432,note_on,0,0,0,,,,,5,,,,,,,75,96
3432,note_on,0,0,0,,,,,6,,,,,,,51,96
3442,note_off,10,0,0,,,,,0,,,,,,,78,0
3442,note_off,0,0,0,,,,,6,,,,,,,51,0
3444,note_on,2,0,0,,,,,0,,,,,,,75,80
3444,note_on,0,0,0,,,,,6,,,,,,,54,96
3447,note_off,3,0,0,,,,,1,,,,,,,70,0
3447,note_off,0,0,0,,,,,2,,,,,,,66,0
3453,note_off,6,0,0,,,,,3,,,,,,,51,0
3453,note_off,0,0,0,,,,,4,,,,,,,39,0
3453,note_off,0,0,0,,,,,5,,,,,,,75,0
3454,note_off,1,0,0,,,,,0,,,,,,,75,0
3454,note_off,0,0,0,,,,,6,,,,,,,54,0
3456,note_on,2,0,0,,,,,0,,,,,,,71,80
3456,note_on,0,0,0,,,,,1,,,,,,,68,80
3456,note_on,0,0,0,,,,,2,,,,,,,63,80
3456,note_on,0,0,0,,,,,3,,,,,,,44,80
3456,note_on,0,0,0,,,,,4,,,,,,,32,80
3456,note_on,0,0,0,,,,,5,,,,,,,75,96
3456,note_on,0,0,0,,,,,6,,,,,,,44,96
3464,note_off,8,0,0,,,,,0,,,,,,,71,0
3464,note_on,0,0,0,,,,,0,,,,,,,70,80
3466,note_off,2,0,0,,,,,6,,,,,,,44,0
3468,note_on,2,0,0,,,,,6,,,,,,,51,96
3472,note_off,4,0,0,,,,,0,,,,,,,70,0
3472,note_on,0,0,0,,,,,0,,,,,,,68,80
3477,note_off,5,0,0,,,,,1,,,,,,,68,0
3477,note_off,0,0,0,,,,,2,,,,,,,63,0
3477,note_off,0,0,0,,,,,3,,,,,,,44,0
3477,note_off,0,0,0,,,,,4,,,,,,,32,0
3477,note_off,0,0,0,,,,,5,,,,,,,75,0
3478,note_off,1,0,0,,,,,6,,,,,,,51,0
3479,note_off,1,0,0,,,,,0,,,,,,,68,0
3480,note_on,1,0,0,,,,,0,,,,,,,71,80
3480,note_on,0,0,0,,,,,3,,,,,,,56,80
3480,note_on,0,0,0,,,,,4,,,,,,,44,80
3480,note_on,0,0,0,,,,,5,,,,,,,76,96
3480,note_on,0,0,0,,,,,6,,,,,,,56,96
3490,note_off,10,0,0,,,,,5,,,,,,,76,0
3490,note_off,0,0,0,,,,,6,,,,,,,56,0
3492,note_on,2,0,0,,,,,5,,,,,,,78,96
3492,note_on,0,0,0,,,,,6,,,,,,,58,96
3501,note_off,9,0,0,,,,,0,,,,,,,71,0
3501,note_off,0,0,0,,,,,3,,,,,,,56,0
3501,note_off,0,0,0,,,,,4,,,,,,,44,0
3502,note_off,1,0,0,,,,,5,,,,,,,78,0
3502,note_off,0,0,0,,,,,6,,,,,,,58,0
3504,note_on,2,0,0,,,,,0,,,,,,,71,80
3504,note_on,0,0,0,,,,,3,,,,,,,54,80
3504,note_on,0,0,0,,,,,4,,,,,,,42,80
3504,note_on,0,0,0,,,,,5,,,,,,,80,96
3504,note_on,0,0,0,,,,,6,,,,,,,59,96
3514,note_off,10,0,0,,,,,5,,,,,,,80,0
3514,note_off,0,0,0,,,,,6,,,,,,,59,0
3516,note_on,2,0,0,,,,,5,,,,,,,76,96
3516,note_on,0,0,0,,,,,6,,,,,,,56,96
3525,note_off,9,0,0,,,,,0,,,,,,,71,0
3525,note_off,0,0,0,,,,,3,,,,,,,54,0
3525,note_off,0,0,0,,,,,4,,,,,,,42,0
3526,note_off,1,0,0,,,,,5,,,,,,,76,0
3526,note_off,0,0,0,,,,,6,,,,,,,56,0
3528,note_on,2,0,0,,,,,0,,,,,,,71,80
3528,note_on,0,0,0,,,,,1,,,,,,,68,80
3528,note_on,0,0,0,,,,,2,,,,,,,64,80
3528,note_on,0,0,0,,,,,3,,,,,,,52,80
3528,note_on,0,0,0,,,,,4,,,,,,,40,80
3528,note_on,0,0,0,,,,,5,,,,,,,73,96
3528,note_on,0,0,0,,,,,6,,,,,,,52,96
3538,note_off,10,0,0,,,,,6,,,,,,,52,0
3540,note_on,2,0,0,,,,,6,,,,,,,56,96
3549,note_off,9,0,0,,,,,0,,,,,,,71,0
3549,note_off,0,0,0,,,,,3,,,,,,,52,0
3549,note_off,0,0,0,,,,,4,,,,,,,40,0
3549,note_off,0,0,0,,,,,5,,,,,,,73,0
3550,note_off,1,0,0,,,,,6,,,,,,,56,0
3552,note_on,2,0,0,,,,,0,,,,,,,73,80
3552,note_on,0,0,0,,,,,3,,,,,,,51,80
3552,note_on,0,0,0,,,,,4,,,,,,,39,80
3552,note_on,0,0,0,,,,,5,,,,,,,73,96
3552,note_on,0,0,0,,,,,6,,,,,,,51,96
3562,note_off,10,0,0,,,,,0,,,,,,,73,0
3562,note_off,0,0,0,,,,,6,,,,,,,51,0
3564,note_on,2,0,0,,,,,0,,,,,,,75,80
3564,note_on,0,0,0,,,,,6,,,,,,,56,96
3573,note_off,9,0,0,,,,,3,,,,,,,51,0
3573,note_off,0,0,0,,,,,4,,,,,,,39,0
3573,note_off,0,0,0,,,,,5,,,,,,,73,0
3574,note_off,1,0,0,,,,,0,,,,,,,75,0
3574,note_off,0,0,0,,,,,6,,,,,,,56,0
3576,note_on,2,0,0,,,,,0,,,,,,,76,80
3576,note_on,0,0,0,,,,,3,,,,,,,49,80
3576,note_on,0,0,0,,,,,4,,,,,,,37,80
3576,note_on,0,0,0,,,,,5,,,,,,,73,96
3576,note_on,0,0,0,,,,,6,,,,,,,49,96
3586,note_off,10,0,0,,,,,0,,,,,,,76,0
3586,note_off,0,0,0,,,,,6,,,,,,,49,0
3588,note_on,2,0,0,,,,,0,,,,,,,73,80
3588,note_on,0,0,0,,,,,6,,,,,,,52,96
3591,note_off,3,0,0,,,,,1,,,,,,,68,0
3591,note_off,0,0,0,,,,,2,,,,,,,64,0
3597,note_off,6,0,0,,,,,3,,,,,,,49,0
3597,note_off,0,0,0,,,,,4,,,,,,,37,0
3597,note_off,0,0,0,,,,,5,,,,,,,73,0
3598,note_off,1,0,0,,,,,0,,,,,,,73,0
3598,note_off,0,0,0,,,,,6,,,,,,,52,0
3600,note_on,2,0,0,,,,,0,,,,,,,70,80
3600,note_on,0,0,0,,,,,1,,,,,,,66,80
3600,note_on,0,0,0,,,,,2,,,,,,,61,80
3600,note_on,0,0,0,,,,,3,,,,,,,42,80
3600,note_on,0,0,0,,,,,4,,,,,,,30,80
3600,note_on,0,0,0,,,,,5,,,,,,,73,96
3600,note_on,0,0,0,,,,,6,,,,,,,42,96
3610,note_off,10,0,0,,,,,5,,,,,,,73,0
3610,note_off,0,0,0,,,,,6,,,,,,,42,0
3612,note_on,2,0,0,,,,,5,,,,,,,71,96
3612,note_on,0,0,0,,,,,6,,,,,,,49,96
3621,note_off,9,0,0,,,,,0,,,,,,,70,0
3621,note_off,0,0,0,,,,,1,,,,,,,66,0
3621,note_off,0,0,0,,,,,2,,,,,,,61,0
3621,note_off,0,0,0,,,,,3,,,,,,,42,0
3621,note_off,0,0,0,,,,,4,,,,,,,30,0
3622,note_off,1,0,0,,,,,5,,,,,,,71,0
3622,note_off,0,0,0,,,,,6,,,,,,,49,0
3624,note_on,2,0,0,,,,,0,,,,,,,73,80
3624,note_on,0,0,0,,,,,3,,,,,,,54,80
3624,note_on,0,0,0,,,,,4,,,,,,,42,80
3624,note_on,0,0,0,,,,,5,,,,,,,70,96
3624,note_on,0,0,0,,,,,6,,,,,,,54,96
3634,note_off,10,0,0,,,,,5,,,,,,,70,0
3634,note_off,0,0,0,,,,,6,,,,,,,54,0
3636,note_on,2,0,0,,,,,5,,,,,,,71,96
3636,note_on,0,0,0,,,,,6,,,,,,,56,96
3645,note_off,9,0,0,,,,,0,,,,,,,73,0
3645,note_off,0,0,0,,,,,3,,,,,,,54,0
3645,note_off,0,0,0,,,,,4,,,,,,,42,0
3646,note_off,1,0,0,,,,,5,,,,,,,71,0
3646,note_off,0,0,0,,,,,6,,,,,,,56,0
3648,note_on,2,0,0,,,,,0,,,,,,,70,80
3648,note_on,0,0,0,,,,,3,,,,,,,54,80
3648,note_on,0,0,0,,,,,4,,,,,,,42,80
3648,note_on,0,0,0,,,,,5,,,,,,,73,96
3648,note_on,0,0,0,,,,,6,,,,,,,58,96
3658,note_off,10,0,0,,,,,5,,,,,,,73,0
3658,note_off,0,0,0,,,,,6,,,,,,,58,0
3660,note_on,2,0,0,,,,,5,,,,,,,75,96
3660,note_on,0,0,0,,,,,6,,,,,,,59,96
3669,note_off,9,0,0,,,,,0,,,,,,,70,0
3669,note_off,0,0,0,,,,,3,,,,,,,54,0
3669,note_off,0,0,0,,,,,4,,,,,,,42,0
3670,note_off,1,0,0,,,,,5,,,,,,,75,0
3670,note_off,0,0,0,,,,,6,,,,,,,59,0
3672,note_on,2,0,0,,,,,0,,,,,,,66,80
3672,note_on,0,0,0,,,,,1,,,,,,,73,80
3672,note_on,0,0,0,,,,,2,,,,,,,70,80
3672,note_on,0,0,0,,,,,3,,,,,,,54,80
3672,note_on,0,0,0,,,,,4,,,,,,,42,80
3672,note_on,0,0,0,,,,,5,,,,,,,76,96
3672,note_on,0,0,0,,,,,6,,,,,,,61,96
3676,note_off,4,0,0,,,,,5,,,,,,,76,0
3676,note_on,0,0,0,,,,,5,,,,,,,78,96
3680,note_off,4,0,0,,,,,5,,,,,,,78,0
3680,note_on,0,0,0,,,,,5,,,,,,,76,96
3682,note_off,2,0,0,,,,,6,,,,,,,61,0
3684,note_off,2,0,0,,,,,5,,,,,,,76,0
3684,note_on,0,0,0,,,,,5,,,,,,,78,96
3684,note_on,0,0,0,,,,,6,,,,,,,54,96
3688,note_off,4,0,0,,,,,5,,,,,,,78,0
3688,note_on,0,0,0,,,,,5,,,,,,,76,96
3692,note_off,4,0,0,,,,,5,,,,,,,76,0
3692,note_on,0,0,0,,,,,5,,,,,,,78,96
3693,note_off,1,0,0,,,,,0,,,,,,,66,0
3693,note_off,0,0,0,,,,,2,,,,,,,70,0
3693,note_off,0,0,0,,,,,3,,,,,,,54,0
3693,note_off,0,0,0,,,,,4,,,,,,,42,0
3694,note_off,1,0,0,,,,,6,,,,,,,54,0
3696,note_on,2,0,0,,,,,0,,,,,,,70,80
3696,note_on,0,0,0,,,,,2,,,,,,,61,80
3696,note_on,0,0,0,,,,,3,,,,,,,56,80
3696,note_on,0,0,0,,,,,4,,,,,,,44,80
3696,note_off,0,0,0,,,,,5,,,,,,,78,0
3696,note_on,0,0,0,,,,,5,,,,,,,76,96
3696,note_on,0,0,0,,,,,6,,,,,,,66,96
3700,note_off,4,0,0,,,,,5,,,,,,,76,0
3700,note_on,0,0,0,,,,,5,,,,,,,78,96
3704,note_off,4,0,0,,,,,5,,,,,,,78,0
3704,note_on,0,0,0,,,,,5,,,,,,,76,96
3706,note_off,2,0,0,,,,,0,,,,,,,70,0
3706,note_off,0,0,0,,,,,6,,,,,,,66,0
3708,note_on,2,0,0,,,,,0,,,,,,,68,80
3708,note_off,0,0,0,,,,,5,,,,,,,76,0
3708,note_on,0,0,0,,,,,5,,,,,,,78,96
3708,note_on,0,0,0,,,,,6,,,,,,,64,96
3712,note_off,4,0,0,,,,,5,,,,,,,78,0
3712,note_on,0,0,0,,,,,5,,,,,,,76,96
3716,note_off,4,0,0,,,,,5,,,,,,,76,0
3716,note_on,0,0,0,,,,,5,,,,,,,78,96
3717,note_off,1,0,0,,,,,2,,,,,,,61,0
3717,note_off,0,0,0,,,,,3,,,,,,,56,0
3717,note_off,0,0,0,,,,,4,,,,,,,44,0
3718,note_off,1,0,0,,,,,0,,,,,,,68,0
3718,note_off,0,0,0,,,,,6,,,,,,,64,0
3720,note_on,2,0,0,,,,,0,,,,,,,66,80
3720,note_on,0,0,0,,,,,2,,,,,,,66,80
3720,note_on,0,0,0,,,,,3,,,,,,,58,80
3720,note_on,0,0,0,,,,,4,,,,,,,46,80
3720,note_off,0,0,0,,,,,5,,,,,,,78,0
3720,note_on,0,0,0,,,,,5,,,,,,,76,96
3720,note_on,0,0,0,,,,,6,,,,,,,63,96
3724,note_off,4,0,0,,,,,5,,,,,,,76,0
3724,note_on,0,0,0,,,,,5,,,,,,,78,96
3728,note_off,4,0,0,,,,,5,,,,,,,78,0
3728,note_on,0,0,0,,,,,5,,,,,,,76,96
3730,note_off,2,0,0,,,,,0,,,,,,,66,0
3730,note_off,0,0,0,,,,,6,,,,,,,63,0
3732,note_on,2,0,0,,,,,0,,,,,,,64,80
3732,note_on,0,0,0,,,,,6,,,,,,,61,96
3741,note_off,9,0,0,,,,,2,,,,,,,66,0
3741,note_off,0,0,0,,,,,3,,,,,,,58,0
3741,note_off,0,0,0,,,,,4,,,,,,,46,0
3742,note_off,1,0,0,,,,,0,,,,,,,64,0
3742,note_off,0,0,0,,,,,5,,,,,,,76,0
3742,note_off,0,0,0,,,,,6,,,,,,,61,0
3744,note_on,2,0,0,,,,,0,,,,,,,63,80
3744,note_on,0,0,0,,,,,2,,,,,,,66,80
3744,note_on,0,0,0,,,,,3,,,,,,,59,80
3744,note_on,0,0,0,,,,,4,,,,,,,47,80
3744,note_on,0,0,0,,,,,6,,,,,,,59,96
3754,note_off,10,0,0,,,,,6,,,,,,,59,0
3756,note_off,2,0,0,,,,,1,,,,,,,73,0
3756,note_on,0,0,0,,,,,5,,,,,,,78,96
3756,note_on,0,0,0,,,,,6,,,,,,,58,96
3761,note_off,5,0,0,,,,,5,,,,,,,78,0
3762,note_on,1,0,0,,,,,5,,,,,,,76,96
3765,note_off,3,0,0,,,,,0,,,,,,,63,0
3765,note_off,0,0,0,,,,,3,,,,,,,59,0
3765,note_off,0,0,0,,,,,4,,,,,,,47,0
3766,note_off,1,0,0,,,,,6,,,,,,,58,0
3767,note_off,1,0,0,,,,,5,,,,,,,76,0
3768,note_on,1,0,0,,,,,0,,,,,,,78,80
3768,note_on,0,0,0,,,,,1,,,,,,,71,80
3768,note_on,0,0,0,,,,,3,,,,,,,47,80
3768,note_on,0,0,0,,,,,4,,,,,,,35,80
3768,note_on,0,0,0,,,,,5,,,,,,,75,96
3768,note_on,0,0,0,,,,,6,,,,,,,59,96
3778,note_off,10,0,0,,,,,5,,,,,,,75,0
3778,note_off,0,0,0,,,,,6,,,,,,,59,0
3780,note_on,2,0,0,,,,,5,,,,,,,76,96
3780,note_on,0,0,0,,,,,6,,,,,,,61,96
3786,note_off,6,0,0,,,,,2,,,,,,,66,0
3789,note_off,3,0,0,,,,,0,,,,,,,78,0
3789,note_off,0,0,0,,,,,1,,,,,,,71,0
3789,note_off,0,0,0,,,,,3,,,,,,,47,0
3789,note_off,0,0,0,,,,,4,,,,,,,35,0
3790,note_off,1,0,0,,,,,5,,,,,,,76,0
3790,note_off,0,0,0,,,,,6,,,,,,,61,0
3792,note_on,2,0,0,,,,,0,,,,,,,75,80
3792,note_on,0,0,0,,,,,3,,,,,,,47,80
3792,note_on,0,0,0,,,,,4,,,,,,,35,80
3792,note_on,0,0,0,,,,,5,,,,,,,78,96
3792,note_on,0,0,0,,,,,6,,,,,,,63,96
3802,note_off,10,0,0,,,,,5,,,,,,,78,0
3802,note_off,0,0,0,,,,,6,,,,,,,63,0
3804,note_on,2,0,0,,,,,5,,,,,,,80,96
3804,note_on,0,0,0,,,,,6,,,,,,,64,96
3813,note_off,9,0,0,,,,,0,,,,,,,75,0
3813,note_off,0,0,0,,,,,3,,,,,,,47,0
3813,note_off,0,0,0,,,,,4,,,,,,,35,0
3814,note_off,1,0,0,,,,,5,,,,,,,80,0
3814,note_off,0,0,0,,,,,6,,,,,,,64,0
3816,note_on,2,0,0,,,,,0,,,,,,,71,80
3816,note_on,0,0,0,,,,,1,,,,,,,78,80
3816,note_on,0,0,0,,,,,2,,,,,,,75,80
3816,note_on,0,0,0,,,,,3,,,,,,,47,80
3816,note_on,0,0,0,,,,,4,,,,,,,35,80
3816,note_on,0,0,0,,,,,5,,,,,,,81,96
3816,note_on,0,0,0,,,,,6,,,,,,,66,96
3820,note_off,4,0,0,,,,,5,,,,,,,81,0
3820,note_on,0,0,0,,,,,5,,,,,,,83,96
3824,note_off,4,0,0,,,,,5,,,,,,,83,0
3824,note_on,0,0,0,,,,,5,,,,,,,81,96
3826,note_off,2,0,0,,,,,6,,,,,,,66,0
3828,note_off,2,0,0,,,,,5,,,,,,,81,0
3828,note_on,0,0,0,,,,,5,,,,,,,83,96
3828,note_on,0,0,0,,,,,6,,,,,,,59,96
3832,note_off,4,0,0,,,,,5,,,,,,,83,0
3832,note_on,0,0,0,,,,,5,,,,,,,81,96
3836,note_off,4,0,0,,,,,5,,,,,,,81,0
3836,note_on,0,0,0,,,,,5,,,,,,,83,96
3837,note_off,1,0,0,,,,,0,,,,,,,71,0
3837,note_off,0,0,0,,,,,2,,,,,,,75,0
3837,note_off,0,0,0,,,,,3,,,,,,,47,0
3837,note_off,0,0,0,,,,,4,,,,,,,35,0
3838,note_off,1,0,0,,,,,6,,,,,,,59,0
3840,note_on,2,0,0,,,,,0,,,,,,,75,80
3840,note_on,0,0,0,,,,,2,,,,,,,66,80
3840,note_on,0,0,0,,,,,3,,,,,,,49,80
3840,note_on,0,0,0,,,,,4,,,,,,,37,80
3840,note_off,0,0,0,,,,,5,,,,,,,83,0
3840,note_on,0,0,0,,,,,5,,,,,,,81,96
3840,note_on,0,0,0,,,,,6,,,,,,,71,96
3844,note_off,4,0,0,,,,,5,,,,,,,81,0
3844,note_on,0,0,0,,,,,5,,,,,,,83,96
3848,note_off,4,0,0,,,,,5,,,,,,,83,0
3848,note_on,0,0,0,,,,,5,,,,,,,81,96
3850,note_off,2,0,0,,,,,0,,,,,,,75,0
3850,note_off,0,0,0,,,,,6,,,,,,,71,0
3852,note_on,2,0,0,,,,,0,,,,,,,73,80
3852,note_off,0,0,0,,,,,5,,,,,,,81,0
3852,note_on,0,0,0,,,,,5,,,,,,,83,96
3852,note_on,0,0,0,,,,,6,,,,,,,69,96
3856,note_off,4,0,0,,,,,5,,,,,,,83,0
3856,note_on,0,0,0,,,,,5,,,,,,,81,96
3860,note_off,4,0,0,,,,,5,,,,,,,81,0
3860,note_on,0,0,0,,,,,5,,,,,,,83,96
3861,note_off,1,0,0,,,,,2,,,,,,,66,0
3861,note_off,0,0,0,,,,,3,,,,,,,49,0
3861,note_off,0,0,0,,,,,4,,,,,,,37,0
3862,note_off,1,0,0,,,,,0,,,,,,,73,0
3862,note_off,0,0,0,,,,,6,,,,,,,69,0
3864,note_on,2,0,0,,,,,0,,,,,,,71,80
3864,note_on,0,0,0,,,,,2,,,,,,,71,80
3864,note_on,0,0,0,,,,,3,,,,,,,51,80
3864,note_on,0,0,0,,,,,4,,,,,,,39,80
3864,note_off,0,0,0,,,,,5,,,,,,,83,0
3864,note_on,0,0,0,,,,,5,,,,,,,81,96
3864,note_on,0,0,0,,,,,6,,,,,,,68,96
3868,note_off,4,0,0,,,,,5,,,,,,,81,0
3868,note_on,0,0,0,,,,,5,,,,,,,83,96
3872,note_off,4,0,0,,,,,5,,,,,,,83,0
3872,note_on,0,0,0,,,,,5,,,,,,,81,96
3874,note_off,2,0,0,,,,,0,,,,,,,71,0
3874,note_off,0,0,0,,,,,6,,,,,,,68,0
3876,note_on,2,0,0,,,,,0,,,,,,,69,80
3876,note_on,0,0,0,,,,,6,,,,,,,66,96
3885,note_off,9,0,0,,,,,2,,,,,,,71,0
3885,note_off,0,0,0,,,,,3,,,,,,,51,0
3885,note_off,0,0,0,,,,,4,,,,,,,39,0
3886,note_off,1,0,0,,,,,0,,,,,,,69,0
3886,note_off,0,0,0,,,,,5,,,,,,,81,0
3886,note_off,0,0,0,,,,,6,,,,,,,66,0
3888,note_on,2,0,0,,,,,0,,,,,,,68,80
3888,note_on,0,0,0,,,,,2,,,,,,,71,80
3888,note_on,0,0,0,,,,,3,,,,,,,40,80
3888,note_on,0,0,0,,,,,4,,,,,,,28,80
3888,note_on,0,0,0,,,,,6,,,,,,,64,96
3898,note_off,10,0,0,,,,,0,,,,,,,68,0
3900,note_on,2,0,0,,,,,0,,,,,,,71,80
3900,note_off,0,0,0,,,,,1,,,,,,,78,0
3909,note_off,9,0,0,,,,,2,,,,,,,71,0
3909,note_off,0,0,0,,,,,3,,,,,,,40,0
3909,note_off,0,0,0,,,,,4,,,,,,,28,0
3909,note_off,0,0,0,,,,,6,,,,,,,64,0
3910,note_off,1,0,0,,,,,0,,,,,,,71,0
3912,note_on,2,0,0,,,,,0,,,,,,,76,80
3912,note_on,0,0,0,,,,,1,,,,,,,76,80
3912,note_on,0,0,0,,,,,2,,,,,,,59,80
3912,note_on,0,0,0,,,,,3,,,,,,,52,80
3912,note_on,0,0,0,,,,,4,,,,,,,40,80
3912,note_on,0,0,0,,,,,5,,,,,,,80,96
3912,note_on,0,0,0,,,,,6,,,,,,,52,96
3922,note_off,10,0,0,,,,,0,,,,,,,76,0
3922,note_off,0,0,0,,,,,5,,,,,,,80,0
3924,note_on,2,0,0,,,,,0,,,,,,,75,80
3924,note_on,0,0,0,,,,,5,,,,,,,78,96
3933,note_off,9,0,0,,,,,1,,,,,,,76,0
3933,note_off,0,0,0,,,,,2,,,,,,,59,0
3933,note_off,0,0,0,,,,,3,,,,,,,52,0
3933,note_off,0,0,0,,,,,4,,,,,,,40,0
3933,note_off,0,0,0,,,,,6,,,,,,,52,0
3934,note_off,1,0,0,,,,,0,,,,,,,75,0
3934,note_off,0,0,0,,,,,5,,,,,,,78,0
3936,note_on,2,0,0,,,,,0,,,,,,,73,80
3936,note_on,0,0,0,,,,,1,,,,,,,80,80
3936,note_on,0,0,0,,,,,2,,,,,,,64,80
3936,note_on,0,0,0,,,,,3,,,,,,,52,80
3936,note_on,0,0,0,,,,,4,,,,,,,40,80
3936,note_on,0,0,0,,,,,5,,,,,,,80,96
3936,note_on,0,0,0,,,,,6,,,,,,,64,96
3946,note_off,10,0,0,,,,,0,,,,,,,73,0
3946,note_off,0,0,0,,,,,6,,,,,,,64,0
3948,note_on,2,0,0,,,,,0,,,,,,,76,80
3948,note_on,0,0,0,,,,,6,,,,,,,63,96
3957,note_off,9,0,0,,,,,1,,,,,,,80,0
3957,note_off,0,0,0,,,,,2,,,,,,,64,0
3957,note_off,0,0,0,,,,,3,,,,,,,52,0
3957,note_off,0,0,0,,,,,4,,,,,,,40,0
3957,note_off,0,0,0,,,,,5,,,,,,,80,0
3958,note_off,1,0,0,,,,,0,,,,,,,76,0
3958,note_off,0,0,0,,,,,6,,,,,,,63,0
3960,note_on,2,0,0,,,,,0,,,,,,,66,80
3960,note_on,0,0,0,,,,,1,,,,,,,70,80
3960,note_on,0,0,0,,,,,2,,,,,,,61,80
3960,note_on,0,0,0,,,,,3,,,,,,,52,80
3960,note_on,0,0,0,,,,,4,,,,,,,40,80
3960,note_on,0,0,0,,,,,6,,,,,,,64,96
3970,note_off,10,0,0,,,,,0,,,,,,,66,0
3972,note_on,2,0,0,,,,,0,,,,,,,70,80
3981,note_off,9,0,0,,,,,1,,,,,,,70,0
3981,note_off,0,0,0,,,,,2,,,,,,,61,0
3981,note_off,0,0,0,,,,,3,,,,,,,52,0
3981,note_off,0,0,0,,,,,4,,,,,,,40,0
3981,note_off,0,0,0,,,,,6,,,,,,,64,0
3982,note_off,1,0,0,,,,,0,,,,,,,70,0
3984,note_on,2,0,0,,,,,0,,,,,,,75,80
3984,note_on,0,0,0,,,,,1,,,,,,,71,80
3984,note_on,0,0,0,,,,,2,,,,,,,66,80
3984,note_on,0,0,0,,,,,3,,,,,,,51,80
3984,note_on,0,0,0,,,,,4,,,,,,,39,80
3984,note_on,0,0,0,,,,,5,,,,,,,78,96
3984,note_on,0,0,0,,,,,6,,,,,,,51,96
3994,note_off,10,0,0,,,,,0,,,,,,,75,0
3994,note_off,0,0,0,,,,,5,,,,,,,78,0
3996,note_on,2,0,0,,,,,0,,,,,,,73,80
3996,note_on,0,0,0,,,,,5,,,,,,,76,96
4005,note_off,9,0,0,,,,,1,,,,,,,71,0
4005,note_off,0,0,0,,,,,2,,,,,,,66,0
4005,note_off,0,0,0,,,,,3,,,,,,,51,0
4005,note_off,0,0,0,,,,,4,,,,,,,39,0
4005,note_off,0,0,0,,,,,6,,,,,,,51,0
4006,note_off,1,0,0,,,,,0,,,,,,,73,0
4006,note_off,0,0,0,,,,,5,,,,,,,76,0
4008,note_on,2,0,0,,,,,0,,,,,,,71,80
4008,note_on,0,0,0,,,,,1,,,,,,,75,80
4008,note_on,0,0,0,,,,,2,,,,,,,59,80
4008,note_on,0,0,0,,,,,3,,,,,,,51,80
4008,note_on,0,0,0,,,,,4,,,,,,,39,80
4008,note_on,0,0,0,,,,,5,,,,,,,78,96
4008,note_on,0,0,0,,,,,6,,,,,,,63,96
4018,note_off,10,0,0,,,,,0,,,,,,,71,0
4018,note_off,0,0,0,,,,,6,,,,,,,63,0
4020,note_on,2,0,0,,,,,0,,,,,,,75,80
4020,note_on,0,0,0,,,,,6,,,,,,,61,96
4029,note_off,9,0,0,,,,,1,,,,,,,75,0
4029,note_off,0,0,0,,,,,2,,,,,,,59,0
4029,note_off,0,0,0,,,,,3,,,,,,,51,0
4029,note_off,0,0,0,,,,,4,,,,,,,39,0
4029,note_off,0,0,0,,,,,5,,,,,,,78,0
4030,note_off,1,0,0,,,,,0,,,,,,,75,0
4030,note_off,0,0,0,,,,,6,,,,,,,61,0
4032,note_on,2,0,0,,,,,0,,,,,,,64,80
4032,note_on,0,0,0,,,,,1,,,,,,,68,80
4032,note_on,0,0,0,,,,,2,,,,,,,59,80
4032,note_on,0,0,0,,,,,3,,,,,,,51,80
4032,note_on,0,0,0,,,,,4,,,,,,,39,80
4032,note_on,0,0,0,,,,,6,,,,,,,63,96
4053,note_off,21,0,0,,,,,0,,,,,,,64,0
4053,note_off,0,0,0,,,,,1,,,,,,,68,0
4053,note_off,0,0,0,,,,,2,,,,,,,59,0
4053,note_off,0,0,0,,,,,3,,,,,,,51,0
4053,note_off,0,0,0,,,,,4,,,,,,,39,0
4053,note_off,0,0,0,,,,,6,,,,,,,63,0
4056,note_on,3,0,0,,,,,0,,,,,,,73,80
4056,note_on,0,0,0,,,,,1,,,,,,,68,80
4056,note_on,0,0,0,,,,,2,,,,,,,61,80
4056,note_on,0,0,0,,,,,3,,,,,,,49,80
4056,note_on,0,0,0,,,,,4,,,,,,,37,80
4056,note_on,0,0,0,,,,,5,,,,,,,76,96
4056,note_on,0,0,0,,,,,6,,,,,,,49,96
4066,note_off,10,0,0,,,,,3,,,,,,,49,0
4066,note_off,0,0,0,,,,,4,,,,,,,37,0
4066,note_off,0,0,0,,,,,5,,,,,,,76,0
4068,note_on,2,0,0,,,,,3,,,,,,,47,80
4068,note_on,0,0,0,,,,,4,,,,,,,35,80
4068,note_on,0,0,0,,,,,5,,,,,,,75,96
4077,note_off,9,0,0,,,,,0,,,,,,,73,0
4077,note_off,0,0,0,,,,,1,,,,,,,68,0
4077,note_off,0,0,0,,,,,2,,,,,,,61,0
4077,note_off,0,0,0,,,,,6,,,,,,,49,0
4078,note_off,1,0,0,,,,,3,,,,,,,47,0
4078,note_off,0,0,0,,,,,4,,,,,,,35,0
4078,note_off,0,0,0,,,,,5,,,,,,,75,0
4080,note_on,2,0,0,,,,,0,,,,,,,73,80
4080,note_on,0,0,0,,,,,1,,,,,,,68,80
4080,note_on,0,0,0,,,,,2,,,,,,,64,80
4080,note_on,0,0,0,,,,,3,,,,,,,49,80
4080,note_on,0,0,0,,,,,4,,,,,,,37,80
4080,note_on,0,0,0,,,,,5,,,,,,,73,96
4080,note_on,0,0,0,,,,,6,,,,,,,61,96
4090,note_off,10,0,0,,,,,3,,,,,,,49,0
4090,note_off,0,0,0,,,,,4,,,,,,,37,0
4090,note_off,0,0,0,,,,,5,,,,,,,73,0
4090,note_off,0,0,0,,,,,6,,,,,,,61,0
4092,note_on,2,0,0,,,,,3,,,,,,,51,80
4092,note_on,0,0,0,,,,,4,,,,,,,39,80
4092,note_on,0,0,0,,,,,5,,,,,,,71,96
4092,note_on,0,0,0,,,,,6,,,,,,,63,96
4101,note_off,9,0,0,,,,,0,,,,,,,73,0
4101,note_off,0,0,0,,,,,1,,,,,,,68,0
4101,note_off,0,0,0,,,,,2,,,,,,,64,0
4102,note_off,1,0,0,,,,,3,,,,,,,51,0
4102,note_off,0,0,0,,,,,4,,,,,,,39,0
4102,note_off,0,0,0,,,,,5,,,,,,,71,0
4102,note_off,0,0,0,,,,,6,,,,,,,63,0
4104,note_on,2,0,0,,,,,0,,,,,,,66,80
4104,note_on,0,0,0,,,,,1,,,,,,,73,80
4104,note_on,0,0,0,,,,,2,,,,,,,66,80
4104,note_on,0,0,0,,,,,3,,,,,,,52,80
4104,note_on,0,0,0,,,,,4,,,,,,,40,80
4104,note_on,0,0,0,,,,,5,,,,,,,70,96
4104,note_on,0,0,0,,,,,6,,,,,,,64,96
4114,note_off,10,0,0,,,,,0,,,,,,,66,0
4114,note_off,0,0,0,,,,,5,,,,,,,70,0
4114,note_off,0,0,0,,,,,6,,,,,,,64,0
4116,note_on,2,0,0,,,,,0,,,,,,,68,80
4116,note_on,0,0,0,,,,,5,,,,,,,71,96
4116,note_on,0,0,0,,,,,6,,,,,,,63,96
4125,note_off,9,0,0,,,,,1,,,,,,,73,0
4125,note_off,0,0,0,,,,,2,,,,,,,66,0
4125,note_off,0,0,0,,,,,3,,,,,,,52,0
4125,note_off,0,0,0,,,,,4,,,,,,,40,0
4126,note_off,1,0,0,,,,,0,,,,,,,68,0
4126,note_off,0,0,0,,,,,5,,,,,,,71,0
4126,note_off,0,0,0,,,,,6,,,,,,,63,0
4128,note_on,2,0,0,,,,,0,,,,,,,70,80
4128,note_on,0,0,0,,,,,1,,,,,,,73,80
4128,note_on,0,0,0,,,,,2,,,,,,,66,80
4128,note_on,0,0,0,,,,,3,,,,,,,52,80
4128,note_on,0,0,0,,,,,4,,,,,,,40,80
4128,note_on,0,0,0,,,,,5,,,,,,,73,96
4128,note_on,0,0,0,,,,,6,,,,,,,64,96
4138,note_off,10,0,0,,,,,0,,,,,,,70,0
4138,note_off,0,0,0,,,,,5,,,,,,,73,0
4140,note_on,2,0,0,,,,,0,,,,,,,71,80
4140,note_on,0,0,0,,,,,5,,,,,,,75,96
4149,note_off,9,0,0,,,,,1,,,,,,,73,0
4149,note_off,0,0,0,,,,,2,,,,,,,66,0
4149,note_off,0,0,0,,,,,3,,,,,,,52,0
4149,note_off,0,0,0,,,,,4,,,,,,,40,0
4149,note_off,0,0,0,,,,,6,,,,,,,64,0
4150,note_off,1,0,0,,,,,0,,,,,,,71,0
4150,note_off,0,0,0,,,,,5,,,,,,,75,0
4152,note_on,2,0,0,,,,,0,,,,,,,73,80
4152,note_on,0,0,0,,,,,1,,,,,,,73,80
4152,note_on,0,0,0,,,,,2,,,,,,,66,80
4152,note_on,0,0,0,,,,,3,,,,,,,52,80
4152,note_on,0,0,0,,,,,4,,,,,,,40,80
4152,note_on,0,0,0,,,,,5,,,,,,,76,96
4152,note_on,0,0,0,,,,,6,,,,,,,52,96
4162,note_off,10,0,0,,,,,0,,,,,,,73,0
4162,note_off,0,0,0,,,,,5,,,,,,,76,0
4164,note_on,2,0,0,,,,,0,,,,,,,75,80
4164,note_on,0,0,0,,,,,5,,,,,,,78,96
4173,note_off,9,0,0,,,,,1,,,,,,,73,0
4173,note_off,0,0,0,,,,,2,,,,,,,66,0
4173,note_off,0,0,0,,,,,3,,,,,,,52,0
4173,note_off,0,0,0,,,,,4,,,,,,,40,0
4174,note_off,1,0,0,,,,,0,,,,,,,75,0
4174,note_off,0,0,0,,,,,5,,,,,,,78,0
4176,note_on,2,0,0,,,,,0,,,,,,,76,80
4176,note_on,0,0,0,,,,,1,,,,,,,73,80
4176,note_on,0,0,0,,,,,2,,,,,,,64,80
4176,note_on,0,0,0,,,,,3,,,,,,,52,80
4176,note_on,0,0,0,,,,,4,,,,,,,40,80
4176,note_on,0,0,0,,,,,5,,,,,,,80,96
4184,note_off,8,0,0,,,,,0,,,,,,,76,0
4184,note_on,0,0,0,,,,,0,,,,,,,75,80
4186,note_off,2,0,0,,,,,5,,,,,,,80,0
4188,note_on,2,0,0,,,,,5,,,,,,,82,96
4192,note_off,4,0,0,,,,,0,,,,,,,75,0
4192,note_on,0,0,0,,,,,0,,,,,,,73,80
4194,note_off,2,0,0,,,,,6,,,,,,,52,0
4197,note_off,3,0,0,,,,,1,,,,,,,73,0
4197,note_off,0,0,0,,,,,2,,,,,,,64,0
4197,note_off,0,0,0,,,,,3,,,,,,,52,0
4197,note_off,0,0,0,,,,,4,,,,,,,40,0
4198,note_off,1,0,0,,,,,5,,,,,,,82,0
4199,note_off,1,0,0,,,,,0,,,,,,,73,0
4200,note_on,1,0,0,,,,,0,,,,,,,75,80
4200,note_on,0,0,0,,,,,1,,,,,,,71,80
4200,note_on,0,0,0,,,,,2,,,,,,,68,80
4200,note_on,0,0,0,,,,,3,,,,,,,40,80
4200,note_on,0,0,0,,,,,4,,,,,,,28,80
4200,note_on,0,0,0,,,,,5,,,,,,,83,96
4200,note_on,0,0,0,,,,,6,,,,,,,64,96
4208,note_off,8,0,0,,,,,0,,,,,,,75,0
4208,note_on,0,0,0,,,,,0,,,,,,,73,80
4208,note_off,0,0,0,,,,,5,,,,,,,83,0
4208,note_on,0,0,0,,,,,5,,,,,,,82,96
4210,note_off,2,0,0,,,,,6,,,,,,,64,0
4212,note_on,2,0,0,,,,,6,,,,,,,63,96
4216,note_off,4,0,0,,,,,0,,,,,,,73,0
4216,note_on,0,0,0,,,,,0,,,,,,,71,80
4216,note_off,0,0,0,,,,,5,,,,,,,82,0
4216,note_on,0,0,0,,,,,5,,,,,,,80,96
4221,note_off,5,0,0,,,,,1,,,,,,,71,0
4221,note_off,0,0,0,,,,,2,,,,,,,68,0
4221,note_off,0,0,0,,,,,3,,,,,,,40,0
4221,note_off,0,0,0,,,,,4,,,,,,,28,0
4222,note_off,1,0,0,,,,,6,,,,,,,63,0
4223,note_off,1,0,0,,,,,0,,,,,,,71,0
4223,note_off,0,0,0,,,,,5,,,,,,,80,0
4224,note_on,1,0,0,,,,,0,,,,,,,78,80
4224,note_on,0,0,0,,,,,1,,,,,,,73,80
4224,note_on,0,0,0,,,,,2,,,,,,,66,80
4224,note_on,0,0,0,,,,,3,,,,,,,52,80
4224,note_on,0,0,0,,,,,4,,,,,,,40,80
4224,note_on,0,0,0,,,,,5,,,,,,,82,96
4224,note_on,0,0,0,,,,,6,,,,,,,64,96
4232,note_off,8,0,0,,,,,5,,,,,,,82,0
4232,note_on,0,0,0,,,,,5,,,,,,,80,96
4240,note_off,8,0,0,,,,,5,,,,,,,80,0
4240,note_on,0,0,0,,,,,5,,,,,,,78,96
4245,note_off,5,0,0,,,,,0,,,,,,,78,0
4245,note_off,0,0,0,,,,,1,,,,,,,73,0
4245,note_off,0,0,0,,,,,2,,,,,,,66,0
4245,note_off,0,0,0,,,,,3,,,,,,,52,0
4245,note_off,0,0,0,,,,,4,,,,,,,40,0
4245,note_off,0,0,0,,,,,6,,,,,,,64,0
4247,note_off,2,0,0,,,,,5,,,,,,,78,0
4248,note_on,1,0,0,,,,,3,,,,,,,51,80
4248,note_on,0,0,0,,,,,4,,,,,,,39,80
4248,note_on,0,0,0,,,,,5,,,,,,,83,96
4248,note_on,0,0,0,,,,,6,,,,,,,63,96
4260,note_on,12,0,0,,,,,0,,,,,,,71,96
4260,note_on,0,0,0,,,,,1,,,,,,,66,96
4260,note_on,0,0,0,,,,,2,,,,,,,66,96
4269,note_off,9,0,0,,,,,3,,,,,,,51,0
4269,note_off,0,0,0,,,,,4,,,,,,,39,0
4269,note_off,0,0,0,,,,,5,,,,,,,83,0
4269,note_off,0,0,0,,,,,6,,,,,,,63,0
4270,note_off,1,0,0,,,,,0,,,,,,,71,0
4270,note_off,0,0,0,,,,,1,,,,,,,66,0
4270,note_off,0,0,0,,,,,2,,,,,,,66,0
4272,note_on,2,0,0,,,,,0,,,,,,,73,96
4272,note_on,0,0,0,,,,,1,,,,,,,68,96
4272,note_on,0,0,0,,,,,2,,,,,,,61,96
4272,note_on,0,0,0,,,,,3,,,,,,,52,96
4272,note_on,0,0,0,,,,,4,,,,,,,40,96
4272,note_on,0,0,0,,,,,5,,,,,,,78,96
4272,note_on,0,0,0,,,,,6,,,,,,,64,96
4282,note_off,10,0,0,,,,,5,,,,,,,78,0
4284,note_on,2,0,0,,,,,5,,,,,,,76,96
4293,note_off,9,0,0,,,,,0,,,,,,,73,0
4293,note_off,0,0,0,,,,,1,,,,,,,68,0
4293,note_off,0,0,0,,,,,2,,,,,,,61,0
4293,note_off,0,0,0,,,,,3,,,,,,,52,0
4293,note_off,0,0,0,,,,,4,,,,,,,40,0
4293,note_off,0,0,0,,,,,6,,,,,,,64,0
4294,note_off,1,0,0,,,,,5,,,,,,,76,0
4296,note_on,2,0,0,,,,,0,,,,,,,70,96
4296,note_on,0,0,0,,,,,1,,,,,,,66,96
4296,note_on,0,0,0,,,,,2,,,,,,,64,96
4296,note_on,0,0,0,,,,,3,,,,,,,54,96
4296,note_on,0,0,0,,,,,4,,,,,,,42,96
4296,note_on,0,0,0,,,,,5,,,,,,,75,96
4296,note_on,0,0,0,,,,,6,,,,,,,66,96
4306,note_off,10,0,0,,,,,5,,,,,,,75,0
4308,note_on,2,0,0,,,,,5,,,,,,,73,96
4317,note_off,9,0,0,,,,,0,,,,,,,70,0
4317,note_off,0,0,0,,,,,1,,,,,,,66,0
4317,note_off,0,0,0,,,,,2,,,,,,,64,0
4317,note_off,0,0,0,,,,,3,,,,,,,54,0
4317,note_off,0,0,0,,,,,4,,,,,,,42,0
4317,note_off,0,0,0,,,,,6,,,,,,,66,0
4318,note_off,1,0,0,,,,,5,,,,,,,73,0
4320,note_on,2,0,0,,,,,0,,,,,,,71,96
4320,note_on,0,0,0,,,,,1,,,,,,,66,96
4320,note_on,0,0,0,,,,,2,,,,,,,63,96
4320,note_on,0,0,0,,,,,3,,,,,,,47,96
4320,note_on,0,0,0,,,,,4,,,,,,,35,96
4320,note_on,0,0,0,,,,,5,,,,,,,71,96
4320,note_on,0,0,0,,,,,6,,,,,,,59,96
4330,note_off,10,0,0,,,,,6,,,,,,,59,0
4332,note_on,2,0,0,,,,,6,,,,,,,58,96
4341,note_off,9,0,0,,,,,0,,,,,,,71,0
4341,note_off,0,0,0,,,,,1,,,,,,,66,0
4341,note_off,0,0,0,,,,,2,,,,,,,63,0
4341,note_off,0,0,0,,,,,3,,,,,,,47,0
4341,note_off,0,0,0,,,,,4,,,,,,,35,0
4341,note_off,0,0,0,,,,,5,,,,,,,71,0
4342,note_off,1,0,0,,,,,6,,,,,,,58,0
4344,note_on,2,0,0,,,,,0,,,,,,,75,80
4344,note_on,0,0,0,,,,,5,,,,,,,78,96
4344,note_on,0,0,0,,,,,6,,,,,,,59,96
4354,note_off,10,0,0,,,,,0,,,,,,,75,0
4354,note_off,0,0,0,,,,,6,,,,,,,59,0
4356,note_on,2,0,0,,,,,0,,,,,,,76,80
4356,note_on,0,0,0,,,,,6,,,,,,,61,96
4365,note_off,9,0,0,,,,,5,,,,,,,78,0
4366,note_off,1,0,0,,,,,0,,,,,,,76,0
4366,note_off,0,0,0,,,,,6,,,,,,,61,0
4368,note_on,2,0,0,,,,,0,,,,,,,78,80
4368,note_on,0,0,0,,,,,5,,,,,,,78,96
4368,note_on,0,0,0,,,,,6,,,,,,,57,96
4378,note_off,10,0,0,,,,,0,,,,,,,78,0
4378,note_off,0,0,0,,,,,6,,,,,,,57,0
4380,note_on,2,0,0,,,,,0,,,,,,,75,80
4380,note_on,0,0,0,,,,,6,,,,,,,59,96
4389,note_off,9,0,0,,,,,5,,,,,,,78,0
4390,note_off,1,0,0,,,,,0,,,,,,,75,0
4390,note_off,0,0,0,,,,,6,,,,,,,59,0
4392,note_on,2,0,0,,,,,0,,,,,,,71,80
4392,note_on,0,0,0,,,,,5,,,,,,,78,96
4392,note_on,0,0,0,,,,,6,,,,,,,56,96
4402,note_off,10,0,0,,,,,0,,,,,,,71,0
4404,note_on,2,0,0,,,,,0,,,,,,,69,80
4413,note_off,9,0,0,,,,,5,,,,,,,78,0
4413,note_off,0,0,0,,,,,6,,,,,,,56,0
4414,note_off,1,0,0,,,,,0,,,,,,,69,0
4416,note_on,2,0,0,,,,,0,,,,,,,71,80
4416,note_on,0,0,0,,,,,5,,,,,,,80,96
4416,note_on,0,0,0,,,,,6,,,,,,,44,96
4426,note_off,10,0,0,,,,,0,,,,,,,71,0
4426,note_off,0,0,0,,,,,5,,,,,,,80,0
4428,note_on,2,0,0,,,,,0,,,,,,,73,80
4428,note_on,0,0,0,,,,,5,,,,,,,81,96
4437,note_off,9,0,0,,,,,6,,,,,,,44,0
4438,note_off,1,0,0,,,,,0,,,,,,,73,0
4438,note_off,0,0,0,,,,,5,,,,,,,81,0
4440,note_on,2,0,0,,,,,0,,,,,,,75,80
4440,note_on,0,0,0,,,,,5,,,,,,,83,96
4440,note_on,0,0,0,,,,,6,,,,,,,56,96
4450,note_off,10,0,0,,,,,0,,,,,,,75,0
4450,note_off,0,0,0,,,,,5,,,,,,,83,0
4452,note_on,2,0,0,,,,,0,,,,,,,71,80
4452,note_on,0,0,0,,,,,5,,,,,,,80,96
4461,note_off,9,0,0,,,,,6,,,,,,,56,0
4462,note_off,1,0,0,,,,,0,,,,,,,71,0
4462,note_off,0,0,0,,,,,5,,,,,,,80,0
4464,note_on,2,0,0,,,,,0,,,,,,,68,80
4464,note_on,0,0,0,,,,,5,,,,,,,76,96
4464,note_on,0,0,0,,,,,6,,,,,,,61,96
4472,note_off,8,0,0,,,,,5,,,,,,,76,0
4472,note_on,0,0,0,,,,,5,,,,,,,75,96
4474,note_off,2,0,0,,,,,6,,,,,,,61,0
4476,note_on,2,0,0,,,,,6,,,,,,,59,96
4480,note_off,4,0,0,,,,,5,,,,,,,75,0
4480,note_on,0,0,0,,,,,5,,,,,,,73,96
4485,note_off,5,0,0,,,,,0,,,,,,,68,0
4486,note_off,1,0,0,,,,,6,,,,,,,59,0
4487,note_off,1,0,0,,,,,5,,,,,,,73,0
4488,note_on,1,0,0,,,,,0,,,,,,,73,80
4488,note_on,0,0,0,,,,,5,,,,,,,76,96
4488,note_on,0,0,0,,,,,6,,,,,,,57,96
4498,note_off,10,0,0,,,,,0,,,,,,,73,0
4498,note_off,0,0,0,,,,,6,,,,,,,57,0
4500,note_on,2,0,0,,,,,0,,,,,,,75,80
4500,note_on,0,0,0,,,,,6,,,,,,,59,96
4509,note_off,9,0,0,,,,,5,,,,,,,76,0
4510,note_off,1,0,0,,,,,0,,,,,,,75,0
4510,note_off,0,0,0,,,,,6,,,,,,,59,0
4512,note_on,2,0,0,,,,,0,,,,,,,76,80
4512,note_on,0,0,0,,,,,5,,,,,,,76,96
4512,note_on,0,0,0,,,,,6,,,,,,,56,96
4522,note_off,10,0,0,,,,,0,,,,,,,76,0
4522,note_off,0,0,0,,,,,6,,,,,,,56,0
4524,note_on,2,0,0,,,,,0,,,,,,,73,80
4524,note_on,0,0,0,,,,,6,,,,,,,57,96
4533,note_off,9,0,0,,,,,5,,,,,,,76,0
4534,note_off,1,0,0,,,,,0,,,,,,,73,0
4534,note_off,0,0,0,,,,,6,,,,,,,57,0
4536,note_on,2,0,0,,,,,0,,,,,,,69,80
4536,note_on,0,0,0,,,,,5,,,,,,,76,96
4536,note_on,0,0,0,,,,,6,,,,,,,54,96
4546,note_off,10,0,0,,,,,0,,,,,,,69,0
4548,note_on,2,0,0,,,,,0,,,,,,,68,80
4557,note_off,9,0,0,,,,,5,,,,,,,76,0
4557,note_off,0,0,0,,,,,6,,,,,,,54,0
4558,note_off,1,0,0,,,,,0,,,,,,,68,0
4560,note_on,2,0,0,,,,,0,,,,,,,69,80
4560,note_on,0,0,0,,,,,5,,,,,,,78,96
4560,note_on,0,0,0,,,,,6,,,,,,,42,96
4570,note_off,10,0,0,,,,,0,,,,,,,69,0
4570,note_off,0,0,0,,,,,5,,,,,,,78,0
4572,note_on,2,0,0,,,,,0,,,,,,,71,80
4572,note_on,0,0,0,,,,,5,,,,,,,80,96
4581,note_off,9,0,0,,,,,6,,,,,,,42,0
4582,note_off,1,0,0,,,,,0,,,,,,,71,0
4582,note_off,0,0,0,,,,,5,,,,,,,80,0
4584,note_on,2,0,0,,,,,0,,,,,,,73,80
4584,note_on,0,0,0,,,,,5,,,,,,,81,96
4584,note_on,0,0,0,,,,,6,,,,,,,54,96
4594,note_off,10,0,0,,,,,0,,,,,,,73,0
4594,note_off,0,0,0,,,,,5,,,,,,,81,0
4596,note_on,2,0,0,,,,,0,,,,,,,69,80
4596,note_on,0,0,0,,,,,5,,,,,,,78,96
4605,note_off,9,0,0,,,,,6,,,,,,,54,0
4606,note_off,1,0,0,,,,,0,,,,,,,69,0
4606,note_off,0,0,0,,,,,5,,,,,,,78,0
4608,note_on,2,0,0,,,,,0,,,,,,,66,80
4608,note_on,0,0,0,,,,,5,,,,,,,75,96
4608,note_on,0,0,0,,,,,6,,,,,,,59,96
4615,note_off,7,0,0,,,,,5,,,,,,,75,0
4616,note_on,1,0,0,,,,,5,,,,,,,73,96
4623,note_off,7,0,0,,,,,5,,,,,,,73,0
4624,note_on,1,0,0,,,,,5,,,,,,,71,96
4629,note_off,5,0,0,,,,,0,,,,,,,66,0
4629,note_off,0,0,0,,,,,6,,,,,,,59,0
4631,note_off,2,0,0,,,,,5,,,,,,,71,0
4632,note_on,1,0,0,,,,,5,,,,,,,66,96
4632,note_on,0,0,0,,,,,6,,,,,,,57,96
4639,note_off,7,0,0,,,,,5,,,,,,,66,0
4640,note_on,1,0,0,,,,,5,,,,,,,71,96
4647,note_off,7,0,0,,,,,5,,,,,,,71,0
4648,note_on,1,0,0,,,,,5,,,,,,,73,96
4653,note_off,5,0,0,,,,,6,,,,,,,57,0
4655,note_off,2,0,0,,,,,5,,,,,,,73,0
4656,note_on,1,0,0,,,,,5,,,,,,,75,96
4656,note_on,0,0,0,,,,,6,,,,,,,54,96
4663,note_off,7,0,0,,,,,5,,,,,,,75,0
4664,note_on,1,0,0,,,,,5,,,,,,,73,96
4671,note_off,7,0,0,,,,,5,,,,,,,73,0
4672,note_on,1,0,0,,,,,5,,,,,,,71,96
4677,note_off,5,0,0,,,,,6,,,,,,,54,0
4679,note_off,2,0,0,,,,,5,,,,,,,71,0
4680,note_on,1,0,0,,,,,5,,,,,,,78,96
4680,note_on,0,0,0,,,,,6,,,,,,,51,96
4690,note_off,10,0,0,,,,,5,,,,,,,78,0
4692,note_on,2,0,0,,,,,5,,,,,,,76,96
4701,note_off,9,0,0,,,,,6,,,,,,,51,0
4702,note_off,1,0,0,,,,,5,,,,,,,76,0
4704,note_on,2,0,0,,,,,0,,,,,,,81,80
4704,note_on,0,0,0,,,,,1,,,,,,,78,80
4704,note_on,0,0,0,,,,,2,,,,,,,75,80
4704,note_on,0,0,0,,,,,3,,,,,,,59,80
4704,note_on,0,0,0,,,,,4,,,,,,,47,80
4704,note_on,0,0,0,,,,,5,,,,,,,75,96
4704,note_on,0,0,0,,,,,6,,,,,,,59,96
4714,note_off,10,0,0,,,,,5,,,,,,,75,0
4716,note_on,2,0,0,,,,,5,,,,,,,73,96
4725,note_off,9,0,0,,,,,0,,,,,,,81,0
4725,note_off,0,0,0,,,,,1,,,,,,,78,0
4725,note_off,0,0,0,,,,,2,,,,,,,75,0
4725,note_off,0,0,0,,,,,3,,,,,,,59,0
4725,note_off,0,0,0,,,,,4,,,,,,,47,0
4725,note_off,0,0,0,,,,,6,,,,,,,59,0
4726,note_off,1,0,0,,,,,5,,,,,,,73,0
4728,note_on,2,0,0,,,,,0,,,,,,,81,80
4728,note_on,0,0,0,,,,,1,,,,,,,78,80
4728,note_on,0,0,0,,,,,2,,,,,,,75,80
4728,note_on,0,0,0,,,,,3,,,,,,,47,80
4728,note_on,0,0,0,,,,,4,,,,,,,35,80
4728,note_on,0,0,0,,,,,5,,,,,,,71,96
4728,note_on,0,0,0,,,,,6,,,,,,,47,96
4738,note_off,10,0,0,,,,,5,,,,,,,71,0
4740,note_on,2,0,0,,,,,5,,,,,,,81,96
4749,note_off,9,0,0,,,,,0,,,,,,,81,0
4749,note_off,0,0,0,,,,,1,,,,,,,78,0
4749,note_off,0,0,0,,,,,2,,,,,,,75,0
4749,note_off,0,0,0,,,,,3,,,,,,,47,0
4749,note_off,0,0,0,,,,,4,,,,,,,35,0
4749,note_off,0,0,0,,,,,6,,,,,,,47,0
4750,note_off,1,0,0,,,,,5,,,,,,,81,0
4752,note_on,2,0,0,,,,,0,,,,,,,80,80
4752,note_on,0,0,0,,,,,1,,,,,,,76,80
4752,note_on,0,0,0,,,,,2,,,,,,,71,80
4752,note_on,0,0,0,,,,,3,,,,,,,52,80
4752,note_on,0,0,0,,,,,4,,,,,,,40,80
4752,note_on,0,0,0,,,,,5,,,,,,,80,96
4752,note_on,0,0,0,,,,,6,,,,,,,52,96
4759,note_off,7,0,0,,,,,5,,,,,,,80,0
4760,note_on,1,0,0,,,,,5,,,,,,,78,96
4767,note_off,7,0,0,,,,,5,,,,,,,78,0
4768,note_on,1,0,0,,,,,5,,,,,,,76,96
4773,note_off,5,0,0,,,,,0,,,,,,,80,0
4773,note_off,0,0,0,,,,,1,,,,,,,76,0
4773,note_off,0,0,0,,,,,2,,,,,,,71,0
4773,note_off,0,0,0,,,,,3,,,,,,,52,0
4773,note_off,0,0,0,,,,,4,,,,,,,40,0
4773,note_off,0,0,0,,,,,6,,,,,,,52,0
4775,note_off,2,0,0,,,,,5,,,,,,,76,0
4776,note_on,1,0,0,,,,,5,,,,,,,71,96
4776,note_on,0,0,0,,,,,6,,,,,,,50,96
4783,note_off,7,0,0,,,,,5,,,,,,,71,0
4784,note_on,1,0,0,,,,,5,,,,,,,76,96
4791,note_off,7,0,0,,,,,5,,,,,,,76,0
4792,note_on,1,0,0,,,,,5,,,,,,,78,96
4797,note_off,5,0,0,,,,,6,,,,,,,50,0
4799,note_off,2,0,0,,,,,5,,,,,,,78,0
4800,note_on,1,0,0,,,,,5,,,,,,,80,96
4800,note_on,0,0,0,,,,,6,,,,,,,47,96
4807,note_off,7,0,0,,,,,5,,,,,,,80,0
4808,note_on,1,0,0,,,,,5,,,,,,,78,96
4815,note_off,7,0,0,,,,,5,,,,,,,78,0
4816,note_on,1,0,0,,,,,5,,,,,,,76,96
4821,note_off,5,0,0,,,,,6,,,,,,,47,0
4823,note_off,2,0,0,,,,,5,,,,,,,76,0
4824,note_on,1,0,0,,,,,5,,,,,,,83,96
4824,note_on,0,0,0,,,,,6,,,,,,,44,96
4834,note_off,10,0,0,,,,,5,,,,,,,83,0
4836,note_on,2,0,0,,,,,5,,,,,,,81,96
4845,note_off,9,0,0,,,,,6,,,,,,,44,0
4846,note_off,1,0,0,,,,,5,,,,,,,81,0
4848,note_on,2,0,0,,,,,0,,,,,,,80,80
4848,note_on,0,0,0,,,,,1,,,,,,,76,80
4848,note_on,0,0,0,,,,,2,,,,,,,71,80
4848,note_on,0,0,0,,,,,3,,,,,,,52,80
4848,note_on,0,0,0,,,,,4,,,,,,,40,80
4848,note_on,0,0,0,,,,,5,,,,,,,80,96
4848,note_on,0,0,0,,,,,6,,,,,,,52,96
4858,note_off,10,0,0,,,,,5,,,,,,,80,0
4860,note_on,2,0,0,,,,,5,,,,,,,78,96
4869,note_off,9,0,0,,,,,0,,,,,,,80,0
4869,note_off,0,0,0,,,,,1,,,,,,,76,0
4869,note_off,0,0,0,,,,,2,,,,,,,71,0
4869,note_off,0,0,0,,,,,3,,,,,,,52,0
4869,note_off,0,0,0,,,,,4,,,,,,,40,0
4869,note_off,0,0,0,,,,,6,,,,,,,52,0
4870,note_off,1,0,0,,,,,5,,,,,,,78,0
4872,note_on,2,0,0,,,,,0,,,,,,,80,80
4872,note_on,0,0,0,,,,,1,,,,,,,76,80
4872,note_on,0,0,0,,,,,2,,,,,,,71,80
4872,note_on,0,0,0,,,,,3,,,,,,,40,80
4872,note_on,0,0,0,,,,,4,,,,,,,28,80
4872,note_on,0,0,0,,,,,5,,,,,,,76,96
4872,note_on,0,0,0,,,,,6,,,,,,,40,96
4882,note_off,10,0,0,,,,,5,,,,,,,76,0
4884,note_on,2,0,0,,,,,5,,,,,,,74,96
4893,note_off,9,0,0,,,,,1,,,,,,,76,0
4893,note_off,0,0,0,,,,,2,,,,,,,71,0
4893,note_off,0,0,0,,,,,3,,,,,,,40,0
4893,note_off,0,0,0,,,,,4,,,,,,,28,0
4893,note_off,0,0,0,,,,,6,,,,,,,40,0
4894,note_off,1,0,0,,,,,5,,,,,,,74,0
4896,note_on,2,0,0,,,,,1,,,,,,,76,80
4896,note_on,0,0,0,,,,,2,,,,,,,73,80
4896,note_on,0,0,0,,,,,3,,,,,,,45,80
4896,note_on,0,0,0,,,,,4,,,,,,,33,80
4896,note_on,0,0,0,,,,,5,,,,,,,73,96
4896,note_on,0,0,0,,,,,6,,,,,,,45,96
4906,note_off,10,0,0,,,,,5,,,,,,,73,0
4906,note_off,0,0,0,,,,,6,,,,,,,45,0
4908,note_on,2,0,0,,,,,5,,,,,,,76,96
4908,note_on,0,0,0,,,,,6,,,,,,,49,96
4914,note_off,6,0,0,,,,,0,,,,,,,80,0
4917,note_off,3,0,0,,,,,1,,,,,,,76,0
4917,note_off,0,0,0,,,,,2,,,,,,,73,0
4917,note_off,0,0,0,,,,,3,,,,,,,45,0
4917,note_off,0,0,0,,,,,4,,,,,,,33,0
4918,note_off,1,0,0,,,,,5,,,,,,,76,0
4918,note_off,0,0,0,,,,,6,,,,,,,49,0
4920,note_on,2,0,0,,,,,0,,,,,,,78,80
4920,note_on,0,0,0,,,,,1,,,,,,,75,80
4920,note_on,0,0,0,,,,,2,,,,,,,73,80
4920,note_on,0,0,0,,,,,3,,,,,,,54,80
4920,note_on,0,0,0,,,,,4,,,,,,,42,80
4920,note_on,0,0,0,,,,,5,,,,,,,81,96
4920,note_on,0,0,0,,,,,6,,,,,,,54,96
4930,note_off,10,0,0,,,,,0,,,,,,,78,0
4930,note_off,0,0,0,,,,,5,,,,,,,81,0
4932,note_on,2,0,0,,,,,0,,,,,,,76,80
4932,note_on,0,0,0,,,,,5,,,,,,,80,96
4941,note_off,9,0,0,,,,,1,,,,,,,75,0
4941,note_off,0,0,0,,,,,2,,,,,,,73,0
4941,note_off,0,0,0,,,,,3,,,,,,,54,0
4941,note_off,0,0,0,,,,,4,,,,,,,42,0
4941,note_off,0,0,0,,,,,6,,,,,,,54,0
4942,note_off,1,0,0,,,,,0,,,,,,,76,0
4942,note_off,0,0,0,,,,,5,,,,,,,80,0
4944,note_on,2,0,0,,,,,0,,,,,,,78,80
4944,note_on,0,0,0,,,,,5,,,,,,,78,96
4954,note_off,10,0,0,,,,,5,,,,,,,78,0
4956,note_on,2,0,0,,,,,5,,,,,,,81,96
4966,note_off,10,0,0,,,,,5,,,,,,,81,0
4968,note_on,2,0,0,,,,,1,,,,,,,75,80
4968,note_on,0,0,0,,,,,2,,,,,,,71,80
4968,note_on,0,0,0,,,,,3,,,,,,,44,80
4968,note_on,0,0,0,,,,,4,,,,,,,32,80
4968,note_on,0,0,0,,,,,5,,,,,,,71,96
4968,note_on,0,0,0,,,,,6,,,,,,,44,96
4978,note_off,10,0,0,,,,,5,,,,,,,71,0
4978,note_off,0,0,0,,,,,6,,,,,,,44,0
4980,note_on,2,0,0,,,,,5,,,,,,,75,96
4980,note_on,0,0,0,,,,,6,,,,,,,47,96
4986,note_off,6,0,0,,,,,0,,,,,,,78,0
4989,note_off,3,0,0,,,,,1,,,,,,,75,0
4989,note_off,0,0,0,,,,,2,,,,,,,71,0
4989,note_off,0,0,0,,,,,3,,,,,,,44,0
4989,note_off,0,0,0,,,,,4,,,,,,,32,0
4990,note_off,1,0,0,,,,,5,,,,,,,75,0
4990,note_off,0,0,0,,,,,6,,,,,,,47,0
4992,note_on,2,0,0,,,,,0,,,,,,,76,80
4992,note_on,0,0,0,,,,,1,,,,,,,73,80
4992,note_on,0,0,0,,,,,2,,,,,,,71,80
4992,note_on,0,0,0,,,,,3,,,,,,,52,80
4992,note_on,0,0,0,,,,,4,,,,,,,40,80
4992,note_on,0,0,0,,,,,5,,,,,,,80,96
4992,note_on,0,0,0,,,,,6,,,,,,,52,96
5002,note_off,10,0,0,,,,,0,,,,,,,76,0
5002,note_off,0,0,0,,,,,5,,,,,,,80,0
5004,note_on,2,0,0,,,,,0,,,,,,,75,80
5004,note_on,0,0,0,,,,,5,,,,,,,78,96
5013,note_off,9,0,0,,,,,1,,,,,,,73,0
5013,note_off,0,0,0,,,,,2,,,,,,,71,0
5013,note_off,0,0,0,,,,,3,,,,,,,52,0
5013,note_off,0,0,0,,,,,4,,,,,,,40,0
5013,note_off,0,0,0,,,,,6,,,,,,,52,0
5014,note_off,1,0,0,,,,,0,,,,,,,75,0
5014,note_off,0,0,0,,,,,5,,,,,,,78,0
5016,note_on,2,0,0,,,,,0,,,,,,,76,80
5016,note_on,0,0,0,,,,,5,,,,,,,76,96
5026,note_off,10,0,0,,,,,5,,,,,,,76,0
5028,note_on,2,0,0,,,,,5,,,,,,,80,96
5038,note_off,10,0,0,,,,,5,,,,,,,80,0
5040,note_on,2,0,0,,,,,2,,,,,,,69,96
5040,note_on,0,0,0,,,,,3,,,,,,,42,96
5040,note_on,0,0,0,,,,,4,,,,,,,30,96
5040,note_on,0,0,0,,,,,5,,,,,,,71,96
5040,note_on,0,0,0,,,,,6,,,,,,,42,96
5044,note_off,4,0,0,,,,,5,,,,,,,71,0
5044,note_on,0,0,0,,,,,5,,,,,,,69,96
5047,note_off,3,0,0,,,,,0,,,,,,,76,0
5048,note_off,1,0,0,,,,,5,,,,,,,69,0
5048,note_on,0,0,0,,,,,5,,,,,,,71,96
5052,note_on,4,0,0,,,,,0,,,,,,,83,96
5052,note_off,0,0,0,,,,,5,,,,,,,71,0
5052,note_on,0,0,0,,,,,5,,,,,,,69,96
5056,note_off,4,0,0,,,,,5,,,,,,,69,0
5056,note_on,0,0,0,,,,,5,,,,,,,71,96
5060,note_off,4,0,0,,,,,5,,,,,,,71,0
5060,note_on,0,0,0,,,,,5,,,,,,,69,96
5061,note_off,1,0,0,,,,,2,,,,,,,69,0
5061,note_off,0,0,0,,,,,3,,,,,,,42,0
5061,note_off,0,0,0,,,,,4,,,,,,,30,0
5061,note_off,0,0,0,,,,,6,,,,,,,42,0
5064,note_off,3,0,0,,,,,0,,,,,,,83,0
5064,note_on,0,0,0,,,,,0,,,,,,,81,96
5064,note_on,0,0,0,,,,,1,,,,,,,73,96
5064,note_on,0,0,0,,,,,2,,,,,,,61,96
5064,note_on,0,0,0,,,,,3,,,,,,,44,96
5064,note_on,0,0,0,,,,,4,,,,,,,32,96
5064,note_off,0,0,0,,,,,5,,,,,,,69,0
5064,note_on,0,0,0,,,,,5,,,,,,,71,96
5064,note_on,0,0,0,,,,,6,,,,,,,44,96
5068,note_off,4,0,0,,,,,5,,,,,,,71,0
5068,note_on,0,0,0,,,,,5,,,,,,,69,96
5072,note_off,4,0,0,,,,,5,,,,,,,69,0
5072,note_on,0,0,0,,,,,5,,,,,,,71,96
5076,note_off,4,0,0,,,,,0,,,,,,,81,0
5076,note_on,0,0,0,,,,,0,,,,,,,80,96
5076,note_off,0,0,0,,,,,1,,,,,,,73,0
5076,note_on,0,0,0,,,,,1,,,,,,,71,96
5076,note_off,0,0,0,,,,,5,,,,,,,71,0
5076,note_on,0,0,0,,,,,5,,,,,,,69,96
5080,note_off,4,0,0,,,,,5,,,,,,,69,0
5080,note_on,0,0,0,,,,,5,,,,,,,71,96
5084,note_off,4,0,0,,,,,5,,,,,,,71,0
5084,note_on,0,0,0,,,,,5,,,,,,,69,96
5085,note_off,1,0,0,,,,,2,,,,,,,61,0
5085,note_off,0,0,0,,,,,3,,,,,,,44,0
5085,note_off,0,0,0,,,,,4,,,,,,,32,0
5085,note_off,0,0,0,,,,,6,,,,,,,44,0
5088,note_off,3,0,0,,,,,0,,,,,,,80,0
5088,note_on,0,0,0,,,,,0,,,,,,,78,96
5088,note_off,0,0,0,,,,,1,,,,,,,71,0
5088,note_on,0,0,0,,,,,1,,,,,,,69,96
5088,note_on,0,0,0,,,,,2,,,,,,,66,96
5088,note_on,0,0,0,,,,,3,,,,,,,45,96
5088,note_on,0,0,0,,,,,4,,,,,,,33,96
5088,note_off,0,0,0,,,,,5,,,,,,,69,0
5088,note_on,0,0,0,,,,,5,,,,,,,71,96
5088,note_on,0,0,0,,,,,6,,,,,,,45,96
5092,note_off,4,0,0,,,,,5,,,,,,,71,0
5092,note_on,0,0,0,,,,,5,,,,,,,69,96
5096,note_off,4,0,0,,,,,5,,,,,,,69,0
5096,note_on,0,0,0,,,,,5,,,,,,,71,96
5100,note_off,4,0,0,,,,,0,,,,,,,78,0
5100,note_on,0,0,0,,,,,0,,,,,,,76,96
5100,note_off,0,0,0,,,,,1,,,,,,,69,0
5100,note_on,0,0,0,,,,,1,,,,,,,68,96
5100,note_off,0,0,0,,,,,5,,,,,,,71,0
5100,note_on,0,0,0,,,,,5,,,,,,,69,96
5104,note_off,4,0,0,,,,,5,,,,,,,69,0
5104,note_on,0,0,0,,,,,5,,,,,,,71,96
5108,note_off,4,0,0,,,,,5,,,,,,,71,0
5108,note_on,0,0,0,,,,,5,,,,,,,69,96
5109,note_off,1,0,0,,,,,2,,,,,,,66,0
5109,note_off,0,0,0,,,,,3,,,,,,,45,0
5109,note_off,0,0,0,,,,,4,,,,,,,33,0
5109,note_off,0,0,0,,,,,6,,,,,,,45,0
5110,note_off,1,0,0,,,,,0,,,,,,,76,0
5110,note_off,0,0,0,,,,,1,,,,,,,68,0
5112,note_on,2,0,0,,,,,0,,,,,,,75,96
5112,note_on,0,0,0,,,,,1,,,,,,,66,96
5112,note_on,0,0,0,,,,,2,,,,,,,59,96
5112,note_on,0,0,0,,,,,3,,,,,,,47,96
5112,note_on,0,0,0,,,,,4,,,,,,,35,96
5112,note_off,0,0,0,,,,,5,,,,,,,69,0
5112,note_on,0,0,0,,,,,5,,,,,,,71,96
5112,note_on,0,0,0,,,,,6,,,,,,,47,96
5116,note_off,4,0,0,,,,,5,,,,,,,71,0
5116,note_on,0,0,0,,,,,5,,,,,,,69,96
5120,note_off,4,0,0,,,,,5,,,,,,,69,0
5120,note_on,0,0,0,,,,,5,,,,,,,71,96
5124,note_off,4,0,0,,,,,0,,,,,,,75,0
5124,note_on,0,0,0,,,,,0,,,,,,,73,96
5124,note_off,0,0,0,,,,,1,,,,,,,66,0
5124,note_on,0,0,0,,,,,1,,,,,,,64,96
5124,note_off,0,0,0,,,,,5,,,,,,,71,0
5124,note_on,0,0,0,,,,,5,,,,,,,69,96
5128,note_off,4,0,0,,,,,5,,,,,,,69,0
5128,note_on,0,0,0,,,,,5,,,,,,,71,96
5132,note_off,4,0,0,,,,,5,,,,,,,71,0
5132,note_on,0,0,0,,,,,5,,,,,,,69,96
5133,note_off,1,0,0,,,,,3,,,,,,,47,0
5133,note_off,0,0,0,,,,,4,,,,,,,35,0
5133,note_off,0,0,0,,,,,6,,,,,,,47,0
5136,note_off,3,0,0,,,,,0,,,,,,,73,0
5136,note_on,0,0,0,,,,,0,,,,,,,71,96
5136,note_off,0,0,0,,,,,1,,,,,,,64,0
5136,note_on,0,0,0,,,,,1,,,,,,,63,96
5136,note_on,0,0,0,,,,,3,,,,,,,49,96
5136,note_on,0,0,0,,,,,4,,,,,,,37,96
5136,note_off,0,0,0,,,,,5,,,,,,,69,0
5136,note_on,0,0,0,,,,,5,,,,,,,71,96
5136,note_on,0,0,0,,,,,6,,,,,,,49,96
5140,note_off,4,0,0,,,,,5,,,,,,,71,0
5140,note_on,0,0,0,,,,,5,,,,,,,69,96
5144,note_off,4,0,0,,,,,5,,,,,,,69,0
5144,note_on,0,0,0,,,,,5,,,,,,,71,96
5148,note_off,4,0,0,,,,,0,,,,,,,71,0
5148,note_on,0,0,0,,,,,0,,,,,,,69,96
5148,note_off,0,0,0,,,,,1,,,,,,,63,0
5148,note_on,0,0,0,,,,,1,,,,,,,61,96
5148,note_off,0,0,0,,,,,5,,,,,,,71,0
5148,note_on,0,0,0,,,,,5,,,,,,,69,96
5152,note_off,4,0,0,,,,,5,,,,,,,69,0
5152,note_on,0,0,0,,,,,5,,,,,,,71,96
5156,note_off,4,0,0,,,,,5,,,,,,,71,0
5156,note_on,0,0,0,,,,,5,,,,,,,69,96
5157,note_off,1,0,0,,,,,3,,,,,,,49,0
5157,note_off,0,0,0,,,,,4,,,,,,,37,0
5157,note_off,0,0,0,,,,,6,,,,,,,49,0
5158,note_off,1,0,0,,,,,1,,,,,,,61,0
5160,note_off,2,0,0,,,,,0,,,,,,,69,0
5160,note_on,0,0,0,,,,,0,,,,,,,68,96
5160,note_on,0,0,0,,,,,1,,,,,,,59,96
5160,note_on,0,0,0,,,,,3,,,,,,,51,96
5160,note_on,0,0,0,,,,,4,,,,,,,39,96
5160,note_off,0,0,0,,,,,5,,,,,,,69,0
5160,note_on,0,0,0,,,,,5,,,,,,,71,96
5160,note_on,0,0,0,,,,,6,,,,,,,51,96
5164,note_off,4,0,0,,,,,5,,,,,,,71,0
5164,note_on,0,0,0,,,,,5,,,,,,,69,96
5168,note_off,4,0,0,,,,,5,,,,,,,69,0
5168,note_on,0,0,0,,,,,5,,,,,,,71,96
5172,note_off,4,0,0,,,,,0,,,,,,,68,0
5172,note_on,0,0,0,,,,,0,,,,,,,66,96
5172,note_off,0,0,0,,,,,5,,,,,,,71,0
5172,note_on,0,0,0,,,,,5,,,,,,,69,96
5181,note_off,9,0,0,,,,,1,,,,,,,59,0
5181,note_off,0,0,0,,,,,3,,,,,,,51,0
5181,note_off,0,0,0,,,,,4,,,,,,,39,0
5181,note_off,0,0,0,,,,,6,,,,,,,51,0
5182,note_off,1,0,0,,,,,0,,,,,,,66,0
5184,note_on,2,0,0,,,,,0,,,,,,,64,96
5184,note_on,0,0,0,,,,,1,,,,,,,64,96
5184,note_on,0,0,0,,,,,3,,,,,,,52,96
5184,note_on,0,0,0,,,,,4,,,,,,,40,96
5184,note_on,0,0,0,,,,,6,,,,,,,52,96
5193,note_off,9,0,0,,,,,5,,,,,,,69,0
5196,note_off,3,0,0,,,,,2,,,,,,,59,0
5196,note_on,0,0,0,,,,,5,,,,,,,73,96
5205,note_off,9,0,0,,,,,0,,,,,,,64,0
5205,note_off,0,0,0,,,,,1,,,,,,,64,0
5205,note_off,0,0,0,,,,,3,,,,,,,52,0
5205,note_off,0,0,0,,,,,4,,,,,,,40,0
5205,note_off,0,0,0,,,,,6,,,,,,,52,0
5206,note_off,1,0,0,,,,,5,,,,,,,73,0
5208,note_on,2,0,0,,,,,5,,,,,,,71,96
5208,note_on,0,0,0,,,,,6,,,,,,,56,96
5218,note_off,10,0,0,,,,,5,,,,,,,71,0
5220,note_on,2,0,0,,,,,5,,,,,,,69,96
5229,note_off,9,0,0,,,,,6,,,,,,,56,0
5230,note_off,1,0,0,,,,,5,,,,,,,69,0
5232,note_on,2,0,0,,,,,5,,,,,,,68,96
5232,note_on,0,0,0,,,,,6,,,,,,,52,96
5242,note_off,10,0,0,,,,,5,,,,,,,68,0
5244,note_on,2,0,0,,,,,5,,,,,,,74,96
5253,note_off,9,0,0,,,,,6,,,,,,,52,0
5254,note_off,1,0,0,,,,,5,,,,,,,74,0
5256,note_on,2,0,0,,,,,5,,,,,,,73,96
5256,note_on,0,0,0,,,,,6,,,,,,,57,96
5266,note_off,10,0,0,,,,,5,,,,,,,73,0
5268,note_on,2,0,0,,,,,5,,,,,,,71,96
5277,note_off,9,0,0,,,,,6,,,,,,,57,0
5278,note_off,1,0,0,,,,,5,,,,,,,71,0
5280,note_on,2,0,0,,,,,5,,,,,,,69,96
5280,note_on,0,0,0,,,,,6,,,,,,,54,96
5290,note_off,10,0,0,,,,,5,,,,,,,69,0
5292,note_on,2,0,0,,,,,5,,,,,,,76,96
5301,note_off,9,0,0,,,,,6,,,,,,,54,0
5302,note_off,1,0,0,,,,,5,,,,,,,76,0
5304,note_on,2,0,0,,,,,5,,,,,,,75,96
5304,note_on,0,0,0,,,,,6,,,,,,,59,96
5314,note_off,10,0,0,,,,,5,,,,,,,75,0
5316,note_on,2,0,0,,,,,5,,,,,,,73,96
5325,note_off,9,0,0,,,,,6,,,,,,,59,0
5326,note_off,1,0,0,,,,,5,,,,,,,73,0
5328,note_on,2,0,0,,,,,5,,,,,,,71,96
5328,note_on,0,0,0,,,,,6,,,,,,,56,96
5338,note_off,10,0,0,,,,,5,,,,,,,71,0
5340,note_on,2,0,0,,,,,5,,,,,,,78,96
5349,note_off,9,0,0,,,,,6,,,,,,,56,0
5350,note_off,1,0,0,,,,,5,,,,,,,78,0
5352,note_on,2,0,0,,,,,5,,,,,,,76,96
5352,note_on,0,0,0,,,,,6,,,,,,,61,96
5362,note_off,10,0,0,,,,,5,,,,,,,76,0
5364,note_on,2,0,0,,,,,5,,,,,,,75,96
5373,note_off,9,0,0,,,,,6,,,,,,,61,0
5374,note_off,1,0,0,,,,,5,,,,,,,75,0
5376,note_on,2,0,0,,,,,5,,,,,,,73,96
5376,note_on,0,0,0,,,,,6,,,,,,,57,96
5386,note_off,10,0,0,,,,,5,,,,,,,73,0
5388,note_on,2,0,0,,,,,5,,,,,,,80,96
5397,note_off,9,0,0,,,,,6,,,,,,,57,0
5398,note_off,1,0,0,,,,,5,,,,,,,80,0
5400,note_on,2,0,0,,,,,5,,,,,,,78,96
5400,note_on,0,0,0,,,,,6,,,,,,,63,96
5410,note_off,10,0,0,,,,,5,,,,,,,78,0
5412,note_on,2,0,0,,,,,5,,,,,,,76,96
5421,note_off,9,0,0,,,,,6,,,,,,,63,0
5422,note_off,1,0,0,,,,,5,,,,,,,76,0
5424,note_on,2,0,0,,,,,5,,,,,,,75,96
5424,note_on,0,0,0,,,,,6,,,,,,,61,96
5434,note_off,10,0,0,,,,,5,,,,,,,75,0
5436,note_on,2,0,0,,,,,5,,,,,,,81,96
5445,note_off,9,0,0,,,,,6,,,,,,,61,0
5446,note_off,1,0,0,,,,,5,,,,,,,81,0
5448,note_on,2,0,0,,,,,5,,,,,,,80,96
5448,note_on,0,0,0,,,,,6,,,,,,,60,96
5458,note_off,10,0,0,,,,,5,,,,,,,80,0
5460,note_on,2,0,0,,,,,5,,,,,,,78,96
5469,note_off,9,0,0,,,,,6,,,,,,,60,0
5470,note_off,1,0,0,,,,,5,,,,,,,78,0
5472,note_on,2,0,0,,,,,5,,,,,,,76,96
5472,note_on,0,0,0,,,,,6,,,,,,,61,96
5482,note_off,10,0,0,,,,,5,,,,,,,76,0
5484,note_on,2,0,0,,,,,5,,,,,,,83,96
5493,note_off,9,0,0,,,,,6,,,,,,,61,0
5494,note_off,1,0,0,,,,,5,,,,,,,83,0
5496,note_on,2,0,0,,,,,5,,,,,,,81,96
5496,note_on,0,0,0,,,,,6,,,,,,,54,96
5506,note_off,10,0,0,,,,,5,,,,,,,81,0
5506,note_off,0,0,0,,,,,6,,,,,,,54,0
5508,note_on,2,0,0,,,,,5,,,,,,,80,96
5508,note_on,0,0,0,,,,,6,,,,,,,56,96
5518,note_off,10,0,0,,,,,5,,,,,,,80,0
5518,note_off,0,0,0,,,,,6,,,,,,,56,0
5520,note_on,2,0,0,,,,,5,,,,,,,78,96
5520,note_on,0,0,0,,,,,6,,,,,,,57,96
5530,note_off,10,0,0,,,,,5,,,,,,,78,0
5530,note_off,0,0,0,,,,,6,,,,,,,57,0
5532,note_on,2,0,0,,,,,5,,,,,,,76,96
5532,note_on,0,0,0,,,,,6,,,,,,,54,96
5542,note_off,10,0,0,,,,,5,,,,,,,76,0
5542,note_off,0,0,0,,,,,6,,,,,,,54,0
5544,note_on,2,0,0,,,,,5,,,,,,,75,96
5544,note_on,0,0,0,,,,,6,,,,,,,59,96
5554,note_off,10,0,0,,,,,5,,,,,,,75,0
5556,note_on,2,0,0,,,,,5,,,,,,,73,96
5565,note_off,9,0,0,,,,,6,,,,,,,59,0
5566,note_off,1,0,0,,,,,5,,,,,,,73,0
5568,note_on,2,0,0,,,,,5,,,,,,,71,96
5568,note_on,0,0,0,,,,,6,,,,,,,51,96
5578,note_off,10,0,0,,,,,5,,,,,,,71,0
5580,note_on,2,0,0,,,,,5,,,,,,,69,96
5589,note_off,9,0,0,,,,,6,,,,,,,51,0
5590,note_off,1,0,0,,,,,5,,,,,,,69,0
5592,note_on,2,0,0,,,,,5,,,,,,,68,96
5592,note_on,0,0,0,,,,,6,,,,,,,47,96
5602,note_off,10,0,0,,,,,5,,,,,,,68,0
5604,note_on,2,0,0,,,,,5,,,,,,,66,96
5613,note_off,9,0,0,,,,,6,,,,,,,47,0
5614,note_off,1,0,0,,,,,5,,,,,,,66,0
5616,note_on,2,0,0,,,,,5,,,,,,,68,96
5616,note_on,0,0,0,,,,,6,,,,,,,52,96
5623,note_off,7,0,0,,,,,5,,,,,,,68,0
5624,note_on,1,0,0,,,,,5,,,,,,,71,96
5631,note_off,7,0,0,,,,,5,,,,,,,71,0
5632,note_on,1,0,0,,,,,5,,,,,,,68,96
5637,note_off,5,0,0,,,,,6,,,,,,,52,0
5639,note_off,2,0,0,,,,,5,,,,,,,68,0
5640,note_on,1,0,0,,,,,0,,,,,,,64,96
5640,note_on,0,0,0,,,,,1,,,,,,,59,96
5640,note_on,0,0,0,,,,,2,,,,,,,56,96
5640,note_on,0,0,0,,,,,3,,,,,,,52,96
5640,note_on,0,0,0,,,,,4,,,,,,,40,96
5640,note_on,0,0,0,,,,,5,,,,,,,64,96
5647,note_off,7,0,0,,,,,5,,,,,,,64,0
5648,note_on,1,0,0,,,,,5,,,,,,,59,96
5655,note_off,7,0,0,,,,,5,,,,,,,59,0
5656,note_on,1,0,0,,,,,5,,,,,,,56,96
5661,note_off,5,0,0,,,,,0,,,,,,,64,0
5661,note_off,0,0,0,,,,,1,,,,,,,59,0
5661,note_off,0,0,0,,,,,2,,,,,,,56,0
5661,note_off,0,0,0,,,,,3,,,,,,,52,0
5661,note_off,0,0,0,,,,,4,,,,,,,40,0
5663,note_off,2,0,0,,,,,5,,,,,,,56,0
5664,note_on,1,0,0,,,,,0,,,,,,,68,96
5664,note_on,0,0,0,,,,,1,,,,,,,64,96
5664,note_on,0,0,0,,,,,2,,,,,,,59,96
5664,note_on,0,0,0,,,,,3,,,,,,,52,96
5664,note_on,0,0,0,,,,,4,,,,,,,40,96
5664,note_on,0,0,0,,,,,5,,,,,,,52,96
5671,note_off,7,0,0,,,,,5,,,,,,,52,0
5672,note_on,1,0,0,,,,,5,,,,,,,47,96
5679,note_off,7,0,0,,,,,5,,,,,,,47,0
5680,note_on,1,0,0,,,,,5,,,,,,,44,96
5685,note_off,5,0,0,,,,,0,,,,,,,68,0
5685,note_off,0,0,0,,,,,1,,,,,,,64,0
5685,note_off,0,0,0,,,,,2,,,,,,,59,0
5685,note_off,0,0,0,,,,,3,,,,,,,52,0
5685,note_off,0,0,0,,,,,4,,,,,,,40,0
5687,note_off,2,0,0,,,,,5,,,,,,,44,0
5688,note_on,1,0,0,,,,,0,,,,,,,71,96
5688,note_on,0,0,0,,,,,1,,,,,,,68,96
5688,note_on,0,0,0,,,,,2,,,,,,,64,96
5688,note_on,0,0,0,,,,,3,,,,,,,52,96
5688,note_on,0,0,0,,,,,4,,,,,,,40,96
5688,note_on,0,0,0,,,,,6,,,,,,,40,96
5695,note_off,7,0,0,,,,,6,,,,,,,40,0
5696,note_on,1,0,0,,,,,6,,,,,,,44,96
5703,note_off,7,0,0,,,,,6,,,,,,,44,0
5704,note_on,1,0,0,,,,,6,,,,,,,47,96
5709,note_off,5,0,0,,,,,0,,,,,,,71,0
5709,note_off,0,0,0,,,,,1,,,,,,,68,0
5709,note_off,0,0,0,,,,,2,,,,,,,64,0
5709,note_off,0,0,0,,,,,3,,,,,,,52,0
5709,note_off,0,0,0,,,,,4,,,,,,,40,0
5711,note_off,2,0,0,,,,,6,,,,,,,47,0
5712,note_on,1,0,0,,,,,0,,,,,,,64,96
5712,note_on,0,0,0,,,,,1,,,,,,,71,96
5712,note_on,0,0,0,,,,,2,,,,,,,68,96
5712,note_on,0,0,0,,,,,3,,,,,,,52,96
5712,note_on,0,0,0,,,,,4,,,,,,,40,96
5712,note_on,0,0,0,,,,,6,,,,,,,52,96
5719,note_off,7,0,0,,,,,6,,,,,,,52,0
5720,note_on,1,0,0,,,,,6,,,,,,,56,96
5722,note_off,2,0,0,,,,,0,,,,,,,64,0
5724,note_on,2,0,0,,,,,0,,,,,,,66,96
5727,note_off,3,0,0,,,,,6,,,,,,,56,0
5728,note_on,1,0,0,,,,,6,,,,,,,59,96
5733,note_off,5,0,0,,,,,1,,,,,,,71,0
5733,note_off,0,0,0,,,,,2,,,,,,,68,0
5733,note_off,0,0,0,,,,,3,,,,,,,52,0
5733,note_off,0,0,0,,,,,4,,,,,,,40,0
5734,note_off,1,0,0,,,,,0,,,,,,,66,0
5735,note_off,1,0,0,,,,,6,,,,,,,59,0
5736,note_on,1,0,0,,,,,0,,,,,,,68,96
5736,note_on,0,0,0,,,,,1,,,,,,,64,96
5736,note_on,0,0,0,,,,,2,,,,,,,71,96
5736,note_on,0,0,0,,,,,3,,,,,,,52,96
5736,note_on,0,0,0,,,,,4,,,,,,,40,96
5736,note_on,0,0,0,,,,,5,,,,,,,64,96
5743,note_off,7,0,0,,,,,5,,,,,,,64,0
5744,note_on,1,0,0,,,,,5,,,,,,,68,96
5746,note_off,2,0,0,,,,,0,,,,,,,68,0
5746,note_off,0,0,0,,,,,1,,,,,,,64,0
5748,note_on,2,0,0,,,,,0,,,,,,,69,96
5748,note_on,0,0,0,,,,,1,,,,,,,66,96
5751,note_off,3,0,0,,,,,5,,,,,,,68,0
5752,note_on,1,0,0,,,,,5,,,,,,,71,96
5757,note_off,5,0,0,,,,,2,,,,,,,71,0
5757,note_off,0,0,0,,,,,3,,,,,,,52,0
5757,note_off,0,0,0,,,,,4,,,,,,,40,0
5758,note_off,1,0,0,,,,,0,,,,,,,69,0
5758,note_off,0,0,0,,,,,1,,,,,,,66,0
5759,note_off,1,0,0,,,,,5,,,,,,,71,0
5760,note_on,1,0,0,,,,,0,,,,,,,71,96
5760,note_on,0,0,0,,,,,1,,,,,,,68,96
5760,note_on,0,0,0,,,,,2,,,,,,,64,96
5760,note_on,0,0,0,,,,,3,,,,,,,52,96
5760,note_on,0,0,0,,,,,4,,,,,,,40,96
5760,note_on,0,0,0,,,,,5,,,,,,,76,96
5767,note_off,7,0,0,,,,,5,,,,,,,76,0
5768,note_on,1,0,0,,,,,5,,,,,,,71,96
5770,note_off,2,0,0,,,,,1,,,,,,,68,0
5770,note_off,0,0,0,,,,,2,,,,,,,64,0
5772,note_on,2,0,0,,,,,1,,,,,,,69,96
5772,note_on,0,0,0,,,,,2,,,,,,,66,96
5775,note_off,3,0,0,,,,,5,,,,,,,71,0
5776,note_on,1,0,0,,,,,5,,,,,,,75,96
5781,note_off,5,0,0,,,,,0,,,,,,,71,0
5781,note_off,0,0,0,,,,,3,,,,,,,52,0
5781,note_off,0,0,0,,,,,4,,,,,,,40,0
5782,note_off,1,0,0,,,,,1,,,,,,,69,0
5782,note_off,0,0,0,,,,,2,,,,,,,66,0
5783,note_off,1,0,0,,,,,5,,,,,,,75,0
5784,note_on,1,0,0,,,,,0,,,,,,,76,96
5784,note_on,0,0,0,,,,,1,,,,,,,71,96
5784,note_on,0,0,0,,,,,2,,,,,,,68,96
5784,note_on,0,0,0,,,,,3,,,,,,,52,96
5784,note_on,0,0,0,,,,,4,,,,,,,40,96
5784,note_on,0,0,0,,,,,5,,,,,,,76,96
5784,note_on,0,0,0,,,,,6,,,,,,,59,96
5784,note_on,0,0,0,,,,,6,,,,,,,56,96
5784,note_on,0,0,0,,,,,6,,,,,,,52,96
5791,note_off,7,0,0,,,,,5,,,,,,,76,0
5792,note_on,1,0,0,,,,,5,,,,,,,71,96
5794,note_off,2,0,0,,,,,2,,,,,,,68,0
5796,note_on,2,0,0,,,,,2,,,,,,,69,96
5799,note_off,3,0,0,,,,,5,,,,,,,71,0
5800,note_on,1,0,0,,,,,5,,,,,,,76,96
5805,note_off,5,0,0,,,,,0,,,,,,,76,0
5805,note_off,0,0,0,,,,,1,,,,,,,71,0
5805,note_off,0,0,0,,,,,3,,,,,,,52,0
5805,note_off,0,0,0,,,,,4,,,,,,,40,0
5805,note_off,0,0,0,,,,,6,,,,,,,59,0
5805,note_off,0,0,0,,,,,6,,,,,,,56,0
5805,note_off,0,0,0,,,,,6,,,,,,,52,0
5806,note_off,1,0,0,,,,,2,,,,,,,69,0
5807,note_off,1,0,0,,,,,5,,,,,,,76,0
5808,note_on,1,0,0,,,,,0,,,,,,,80,96
5808,note_on,0,0,0,,,,,1,,,,,,,76,96
5808,note_on,0,0,0,,,,,2,,,,,,,71,96
5808,note_on,0,0,0,,,,,3,,,,,,,52,96
5808,note_on,0,0,0,,,,,4,,,,,,,40,96
5808,note_on,0,0,0,,,,,5,,,,,,,80,96
5808,note_on,0,0,0,,,,,6,,,,,,,59,96
5808,note_on,0,0,0,,,,,6,,,,,,,56,96
5808,note_on,0,0,0,,,,,6,,,,,,,52,96
5815,note_off,7,0,0,,,,,5,,,,,,,80,0
5816,note_on,1,0,0,,,,,5,,,,,,,76,96
5823,note_off,7,0,0,,,,,5,,,,,,,76,0
5824,note_on,1,0,0,,,,,5,,,,,,,80,96
5829,note_off,5,0,0,,,,,0,,,,,,,80,0
5829,note_off,0,0,0,,,,,1,,,,,,,76,0
5829,note_off,0,0,0,,,,,2,,,,,,,71,0
5829,note_off,0,0,0,,,,,3,,,,,,,52,0
5829,note_off,0,0,0,,,,,4,,,,,,,40,0
5829,note_off,0,0,0,,,,,6,,,,,,,59,0
5829,note_off,0,0,0,,,,,6,,,,,,,56,0
5829,note_off,0,0,0,,,,,6,,,,,,,52,0
5831,note_off,2,0,0,,,,,5,,,,,,,80,0
5832,note_on,1,0,0,,,,,0,,,,,,,83,96
5832,note_on,0,0,0,,,,,1,,,,,,,80,96
5832,note_on,0,0,0,,,,,2,,,,,,,76,96
5832,note_on,0,0,0,,,,,3,,,,,,,52,96
5832,note_on,0,0,0,,,,,4,,,,,,,40,96
5832,note_on,0,0,0,,,,,5,,,,,,,83,96
5832,note_on,0,0,0,,,,,6,,,,,,,59,96
5832,note_on,0,0,0,,,,,6,,,,,,,56,96
5832,note_on,0,0,0,,,,,6,,,,,,,52,96
5853,note_off,21,0,0,,,,,0,,,,,,,83,0
5853,note_off,0,0,0,,,,,1,,,,,,,80,0
5853,note_off,0,0,0,,,,,2,,,,,,,76,0
5853,note_off,0,0,0,,,,,3,,,,,,,52,0
5853,note_off,0,0,0,,,,,4,,,,,,,40,0
5853,note_off,0,0,0,,,,,5,,,,,,,83,0
5853,note_off,0,0,0,,,,,6,,,,,,,59,0
5853,note_off,0,0,0,,,,,6,,,,,,,56,0
5853,note_off,0,0,0,,,,,6,,,,,,,52,0
5856,note_on,3,0,0,,,,,0,,,,,,,81,96
5856,note_on,0,0,0,,,,,1,,,,,,,76,96
5856,note_on,0,0,0,,,,,2,,,,,,,64,96
5856,note_on,0,0,0,,,,,3,,,,,,,61,96
5856,note_on,0,0,0,,,,,4,,,,,,,49,96
5856,note_on,0,0,0,,,,,5,,,,,,,81,96
5856,note_on,0,0,0,,,,,6,,,,,,,61,96
5866,note_off,10,0,0,,,,,0,,,,,,,81,0
5866,note_off,0,0,0,,,,,5,,,,,,,81,0
5868,note_on,2,0,0,,,,,0,,,,,,,80,96
5868,note_on,0,0,0,,,,,5,,,,,,,80,96
5877,note_off,9,0,0,,,,,1,,,,,,,76,0
5877,note_off,0,0,0,,,,,2,,,,,,,64,0
5877,note_off,0,0,0,,,,,3,,,,,,,61,0
5877,note_off,0,0,0,,,,,4,,,,,,,49,0
5877,note_off,0,0,0,,,,,6,,,,,,,61,0
5878,note_off,1,0,0,,,,,0,,,,,,,80,0
5878,note_off,0,0,0,,,,,5,,,,,,,80,0
5880,note_on,2,0,0,,,,,0,,,,,,,78,96
5880,note_on,0,0,0,,,,,1,,,,,,,73,96
5880,note_on,0,0,0,,,,,2,,,,,,,69,96
5880,note_on,0,0,0,,,,,3,,,,,,,57,96
5880,note_on,0,0,0,,,,,4,,,,,,,45,96
5880,note_on,0,0,0,,,,,5,,,,,,,78,96
5880,note_on,0,0,0,,,,,6,,,,,,,57,96
5890,note_off,10,0,0,,,,,0,,,,,,,78,0
5890,note_off,0,0,0,,,,,5,,,,,,,78,0
5892,note_on,2,0,0,,,,,0,,,,,,,76,96
5892,note_on,0,0,0,,,,,5,,,,,,,76,96
5901,note_off,9,0,0,,,,,1,,,,,,,73,0
5901,note_off,0,0,0,,,,,2,,,,,,,69,0
5901,note_off,0,0,0,,,,,3,,,,,,,57,0
5901,note_off,0,0,0,,,,,4,,,,,,,45,0
5901,note_off,0,0,0,,,,,6,,,,,,,57,0
5902,note_off,1,0,0,,,,,0,,,,,,,76,0
5902,note_off,0,0,0,,,,,5,,,,,,,76,0
5904,note_on,2,0,0,,,,,0,,,,,,,75,96
5904,note_on,0,0,0,,,,,1,,,,,,,71,96
5904,note_on,0,0,0,,,,,2,,,,,,,66,96
5904,note_on,0,0,0,,,,,3,,,,,,,59,80
5904,note_on,0,0,0,,,,,4,,,,,,,47,80
5904,note_on,0,0,0,,,,,5,,,,,,,75,96
5904,note_on,0,0,0,,,,,6,,,,,,,59,96
5911,note_off,7,0,0,,,,,5,,,,,,,75,0
5912,note_on,1,0,0,,,,,5,,,,,,,78,96
5919,note_off,7,0,0,,,,,5,,,,,,,78,0
5920,note_on,1,0,0,,,,,5,,,,,,,76,96
5925,note_off,5,0,0,,,,,0,,,,,,,75,0
5925,note_off,0,0,0,,,,,1,,,,,,,71,0
5925,note_off,0,0,0,,,,,2,,,,,,,66,0
5925,note_off,0,0,0,,,,,3,,,,,,,59,0
5925,note_off,0,0,0,,,,,4,,,,,,,47,0
5925,note_off,0,0,0,,,,,6,,,,,,,59,0
5927,note_off,2,0,0,,,,,5,,,,,,,76,0
5928,note_on,1,0,0,,,,,0,,,,,,,59,80
5928,note_on,0,0,0,,,,,3,,,,,,,57,80
5928,note_on,0,0,0,,,,,4,,,,,,,45,80
5928,note_on,0,0,0,,,,,5,,,,,,,75,96
5928,note_on,0,0,0,,,,,6,,,,,,,57,96
5935,note_off,7,0,0,,,,,5,,,,,,,75,0
5936,note_on,1,0,0,,,,,5,,,,,,,73,96
5938,note_off,2,0,0,,,,,6,,,,,,,57,0
5940,note_off,2,0,0,,,,,3,,,,,,,57,0
5940,note_on,0,0,0,,,,,3,,,,,,,56,80
5940,note_off,0,0,0,,,,,4,,,,,,,45,0
5940,note_on,0,0,0,,,,,4,,,,,,,44,80
5940,note_on,0,0,0,,,,,6,,,,,,,56,96
5943,note_off,3,0,0,,,,,5,,,,,,,73,0
5944,note_on,1,0,0,,,,,5,,,,,,,71,96
5949,note_off,5,0,0,,,,,0,,,,,,,59,0
5950,note_off,1,0,0,,,,,6,,,,,,,56,0
5951,note_off,1,0,0,,,,,5,,,,,,,71,0
5952,note_on,1,0,0,,,,,0,,,,,,,63,80
5952,note_off,0,0,0,,,,,3,,,,,,,56,0
5952,note_on,0,0,0,,,,,3,,,,,,,54,80
5952,note_off,0,0,0,,,,,4,,,,,,,44,0
5952,note_on,0,0,0,,,,,4,,,,,,,42,80
5952,note_on,0,0,0,,,,,5,,,,,,,81,96
5952,note_on,0,0,0,,,,,6,,,,,,,54,96
5959,note_off,7,0,0,,,,,5,,,,,,,81,0
5960,note_on,1,0,0,,,,,5,,,,,,,80,96
5962,note_off,2,0,0,,,,,6,,,,,,,54,0
5964,note_off,2,0,0,,,,,3,,,,,,,54,0
5964,note_on,0,0,0,,,,,3,,,,,,,52,80
5964,note_off,0,0,0,,,,,4,,,,,,,42,0
5964,note_on,0,0,0,,,,,4,,,,,,,40,80
5964,note_on,0,0,0,,,,,6,,,,,,,52,96
5967,note_off,3,0,0,,,,,5,,,,,,,80,0
5968,note_on,1,0,0,,,,,5,,,,,,,81,96
5973,note_off,5,0,0,,,,,0,,,,,,,63,0
5974,note_off,1,0,0,,,,,3,,,,,,,52,0
5974,note_off,0,0,0,,,,,4,,,,,,,40,0
5974,note_off,0,0,0,,,,,6,,,,,,,52,0
5975,note_off,1,0,0,,,,,5,,,,,,,81,0
5976,note_on,1,0,0,,,,,0,,,,,,,66,80
5976,note_on,0,0,0,,,,,1,,,,,,,59,80
5976,note_on,0,0,0,,,,,3,,,,,,,51,80
5976,note_on,0,0,0,,,,,4,,,,,,,39,80
5976,note_on,0,0,0,,,,,5,,,,,,,83,96
5976,note_on,0,0,0,,,,,6,,,,,,,51,96
5980,note_off,4,0,0,,,,,5,,,,,,,83,0
5980,note_on,0,0,0,,,,,5,,,,,,,81,96
5984,note_off,4,0,0,,,,,5,,,,,,,81,0
5984,note_on,0,0,0,,,,,5,,,,,,,83,96
5986,note_off,2,0,0,,,,,6,,,,,,,51,0
5988,note_off,2,0,0,,,,,3,,,,,,,51,0
5988,note_on,0,0,0,,,,,3,,,,,,,52,80
5988,note_off,0,0,0,,,,,4,,,,,,,39,0
5988,note_on,0,0,0,,,,,4,,,,,,,40,80
5988,note_off,0,0,0,,,,,5,,,,,,,83,0
5988,note_on,0,0,0,,,,,5,,,,,,,81,96
5988,note_on,0,0,0,,,,,6,,,,,,,52,96
5992,note_off,4,0,0,,,,,5,,,,,,,81,0
5992,note_on,0,0,0,,,,,5,,,,,,,83,96
5996,note_off,4,0,0,,,,,5,,,,,,,83,0
5996,note_on,0,0,0,,,,,5,,,,,,,81,96
5997,note_off,1,0,0,,,,,0,,,,,,,66,0
5997,note_off,0,0,0,,,,,1,,,,,,,59,0
5998,note_off,1,0,0,,,,,6,,,,,,,52,0
6000,note_on,2,0,0,,,,,0,,,,,,,59,80
6000,note_on,0,0,0,,,,,1,,,,,,,63,80
6000,note_off,0,0,0,,,,,3,,,,,,,52,0
6000,note_on,0,0,0,,,,,3,,,,,,,54,80
6000,note_off,0,0,0,,,,,4,,,,,,,40,0
6000,note_on,0,0,0,,,,,4,,,,,,,42,80
6000,note_off,0,0,0,,,,,5,,,,,,,81,0
6000,note_on,0,0,0,,,,,5,,,,,,,83,96
6000,note_on,0,0,0,,,,,6,,,,,,,54,96
6004,note_off,4,0,0,,,,,5,,,,,,,83,0
6004,note_on,0,0,0,,,,,5,,,,,,,81,96
6008,note_off,4,0,0,,,,,5,,,,,,,81,0
6008,note_on,0,0,0,,,,,5,,,,,,,83,96
6010,note_off,2,0,0,,,,,0,,,,,,,59,0
6010,note_off,0,0,0,,,,,6,,,,,,,54,0
6012,note_on,2,0,0,,,,,0,,,,,,,61,80
6012,note_off,0,0,0,,,,,3,,,,,,,54,0
6012,note_on,0,0,0,,,,,3,,,,,,,52,80
6012,note_off,0,0,0,,,,,4,,,,,,,42,0
6012,note_on,0,0,0,,,,,4,,,,,,,40,80
6012,note_off,0,0,0,,,,,5,,,,,,,83,0
6012,note_on,0,0,0,,,,,5,,,,,,,81,96
6012,note_on,0,0,0,,,,,6,,,,,,,52,96
6016,note_off,4,0,0,,,,,5,,,,,,,81,0
6016,note_on,0,0,0,,,,,5,,,,,,,83,96
6020,note_off,4,0,0,,,,,5,,,,,,,83,0
6020,note_on,0,0,0,,,,,5,,,,,,,81,96
6021,note_off,1,0,0,,,,,1,,,,,,,63,0
6022,note_off,1,0,0,,,,,0,,,,,,,61,0
6022,note_off,0,0,0,,,,,6,,,,,,,52,0
6024,note_on,2,0,0,,,,,0,,,,,,,63,80
6024,note_on,0,0,0,,,,,1,,,,,,,66,80
6024,note_off,0,0,0,,,,,3,,,,,,,52,0
6024,note_on,0,0,0,,,,,3,,,,,,,51,80
6024,note_off,0,0,0,,,,,4,,,,,,,40,0
6024,note_on,0,0,0,,,,,4,,,,,,,39,80
6024,note_off,0,0,0,,,,,5,,,,,,,81,0
6024,note_on,0,0,0,,,,,5,,,,,,,83,96
6024,note_on,0,0,0,,,,,6,,,,,,,51,96
6028,note_off,4,0,0,,,,,5,,,,,,,83,0
6028,note_on,0,0,0,,,,,5,,,,,,,81,96
6032,note_off,4,0,0,,,,,5,,,,,,,81,0
6032,note_on,0,0,0,,,,,5,,,,,,,83,96
6034,note_off,2,0,0,,,,,0,,,,,,,63,0
6034,note_off,0,0,0,,,,,6,,,,,,,51,0
6036,note_on,2,0,0,,,,,0,,,,,,,64,80
6036,note_off,0,0,0,,,,,3,,,,,,,51,0
6036,note_on,0,0,0,,,,,3,,,,,,,49,80
6036,note_off,0,0,0,,,,,4,,,,,,,39,0
6036,note_on,0,0,0,,,,,4,,,,,,,37,80
6036,note_off,0,0,0,,,,,5,,,,,,,83,0
6036,note_on,0,0,0,,,,,5,,,,,,,81,96
6036,note_on,0,0,0,,,,,6,,,,,,,49,96
6040,note_off,4,0,0,,,,,5,,,,,,,81,0
6040,note_on,0,0,0,,,,,5,,,,,,,83,96
6044,note_off,4,0,0,,,,,5,,,,,,,83,0
6044,note_on,0,0,0,,,,,5,,,,,,,81,96
6045,note_off,1,0,0,,,,,1,,,,,,,66,0
6046,note_off,1,0,0,,,,,0,,,,,,,64,0
6046,note_off,0,0,0,,,,,3,,,,,,,49,0
6046,note_off,0,0,0,,,,,4,,,,,,,37,0
6046,note_off,0,0,0,,,,,6,,,,,,,49,0
6048,note_on,2,0,0,,,,,0,,,,,,,66,80
6048,note_on,0,0,0,,,,,1,,,,,,,63,80
6048,note_on,0,0,0,,,,,2,,,,,,,59,80
6048,note_on,0,0,0,,,,,3,,,,,,,47,80
6048,note_on,0,0,0,,,,,4,,,,,,,35,80
6048,note_off,0,0,0,,,,,5,,,,,,,81,0
6048,note_on,0,0,0,,,,,5,,,,,,,83,96
6048,note_on,0,0,0,,,,,6,,,,,,,47,96
6052,note_off,4,0,0,,,,,5,,,,,,,83,0
6052,note_on,0,0,0,,,,,5,,,,,,,81,96
6055,note_off,3,0,0,,,,,6,,,,,,,47,0
6056,note_off,1,0,0,,,,,5,,,,,,,81,0
6056,note_on,0,0,0,,,,,5,,,,,,,83,96
6056,note_on,0,0,0,,,,,6,,,,,,,51,96
6060,note_off,4,0,0,,,,,5,,,,,,,83,0
6060,note_on,0,0,0,,,,,5,,,,,,,81,96
6063,note_off,3,0,0,,,,,6,,,,,,,51,0
6064,note_off,1,0,0,,,,,5,,,,,,,81,0
6064,note_on,0,0,0,,,,,5,,,,,,,83,96
6064,note_on,0,0,0,,,,,6,,,,,,,47,96
6068,note_off,4,0,0,,,,,5,,,,,,,83,0
6068,note_on,0,0,0,,,,,5,,,,,,,81,96
6069,note_off,1,0,0,,,,,0,,,,,,,66,0
6069,note_off,0,0,0,,,,,1,,,,,,,63,0
6069,note_off,0,0,0,,,,,2,,,,,,,59,0
6069,note_off,0,0,0,,,,,3,,,,,,,47,0
6069,note_off,0,0,0,,,,,4,,,,,,,35,0
6071,note_off,2,0,0,,,,,6,,,,,,,47,0
6072,note_on,1,0,0,,,,,0,,,,,,,71,80
6072,note_on,0,0,0,,,,,1,,,,,,,66,80
6072,note_on,0,0,0,,,,,2,,,,,,,63,80
6072,note_on,0,0,0,,,,,3,,,,,,,59,80
6072,note_on,0,0,0,,,,,4,,,,,,,47,80
6072,note_off,0,0,0,,,,,5,,,,,,,81,0
6072,note_on,0,0,0,,,,,5,,,,,,,83,96
6072,note_on,0,0,0,,,,,6,,,,,,,42,96
6076,note_off,4,0,0,,,,,5,,,,,,,83,0
6076,note_on,0,0,0,,,,,5,,,,,,,81,96
6079,note_off,3,0,0,,,,,6,,,,,,,42,0
6080,note_off,1,0,0,,,,,5,,,,,,,81,0
6080,note_on,0,0,0,,,,,5,,,,,,,83,96
6080,note_on,0,0,0,,,,,6,,,,,,,47,96
6084,note_off,4,0,0,,,,,5,,,,,,,83,0
6084,note_on,0,0,0,,,,,5,,,,,,,81,96
6087,note_off,3,0,0,,,,,6,,,,,,,47,0
6088,note_off,1,0,0,,,,,5,,,,,,,81,0
6088,note_on,0,0,0,,,,,5,,,,,,,83,96
6088,note_on,0,0,0,,,,,6,,,,,,,42,96
6092,note_off,4,0,0,,,,,5,,,,,,,83,0
6092,note_on,0,0,0,,,,,5,,,,,,,81,96
6093,note_off,1,0,0,,,,,0,,,,,,,71,0
6093,note_off,0,0,0,,,,,1,,,,,,,66,0
6093,note_off,0,0,0,,,,,2,,,,,,,63,0
6093,note_off,0,0,0,,,,,3,,,,,,,59,0
6093,note_off,0,0,0,,,,,4,,,,,,,47,0
6095,note_off,2,0,0,,,,,6,,,,,,,42,0
6096,note_on,1,0,0,,,,,0,,,,,,,75,80
6096,note_on,0,0,0,,,,,1,,,,,,,71,80
6096,note_on,0,0,0,,,,,2,,,,,,,66,80
6096,note_off,0,0,0,,,,,5,,,,,,,81,0
6096,note_on,0,0,0,,,,,5,,,,,,,83,96
6096,note_on,0,0,0,,,,,6,,,,,,,39,96
6100,note_off,4,0,0,,,,,5,,,,,,,83,0
6100,note_on,0,0,0,,,,,5,,,,,,,81,96
6103,note_off,3,0,0,,,,,6,,,,,,,39,0
6104,note_off,1,0,0,,,,,5,,,,,,,81,0
6104,note_on,0,0,0,,,,,5,,,,,,,83,96
6104,note_on,0,0,0,,,,,6,,,,,,,42,96
6108,note_off,4,0,0,,,,,5,,,,,,,83,0
6108,note_on,0,0,0,,,,,5,,,,,,,81,96
6111,note_off,3,0,0,,,,,6,,,,,,,42,0
6112,note_on,1,0,0,,,,,6,,,,,,,39,96
6117,note_off,5,0,0,,,,,0,,,,,,,75,0
6117,note_off,0,0,0,,,,,1,,,,,,,71,0
6117,note_off,0,0,0,,,,,2,,,,,,,66,0
6119,note_off,2,0,0,,,,,6,,,,,,,39,0
6120,note_on,1,0,0,,,,,0,,,,,,,78,80
6120,note_on,0,0,0,,,,,1,,,,,,,75,80
6120,note_on,0,0,0,,,,,2,,,,,,,71,80
6120,note_on,0,0,0,,,,,6,,,,,,,35,96
6129,note_off,9,0,0,,,,,5,,,,,,,81,0
6132,note_on,3,0,0,,,,,5,,,,,,,78,96
6141,note_off,9,0,0,,,,,0,,,,,,,78,0
6141,note_off,0,0,0,,,,,1,,,,,,,75,0
6141,note_off,0,0,0,,,,,2,,,,,,,71,0
6141,note_off,0,0,0,,,,,6,,,,,,,35,0
6142,note_off,1,0,0,,,,,5,,,,,,,78,0
6144,note_on,2,0,0,,,,,0,,,,,,,80,80
6144,note_on,0,0,0,,,,,1,,,,,,,71,80
6144,note_on,0,0,0,,,,,2,,,,,,,64,80
6144,note_on,0,0,0,,,,,3,,,,,,,59,80
6144,note_on,0,0,0,,,,,4,,,,,,,47,80
6144,note_on,0,0,0,,,,,5,,,,,,,76,96
6154,note_off,10,0,0,,,,,0,,,,,,,80,0
6154,note_off,0,0,0,,,,,5,,,,,,,76,0
6156,note_on,2,0,0,,,,,0,,,,,,,78,80
6156,note_on,0,0,0,,,,,5,,,,,,,75,96
6165,note_off,9,0,0,,,,,1,,,,,,,71,0
6165,note_off,0,0,0,,,,,2,,,,,,,64,0
6165,note_off,0,0,0,,,,,3,,,,,,,59,0
6165,note_off,0,0,0,,,,,4,,,,,,,47,0
6166,note_off,1,0,0,,,,,0,,,,,,,78,0
6166,note_off,0,0,0,,,,,5,,,,,,,75,0
6168,note_on,2,0,0,,,,,0,,,,,,,76,80
6168,note_on,0,0,0,,,,,1,,,,,,,71,80
6168,note_on,0,0,0,,,,,2,,,,,,,66,80
6168,note_on,0,0,0,,,,,3,,,,,,,47,80
6168,note_on,0,0,0,,,,,4,,,,,,,35,80
6168,note_on,0,0,0,,,,,5,,,,,,,73,96
6168,note_on,0,0,0,,,,,6,,,,,,,59,96
6178,note_off,10,0,0,,,,,0,,,,,,,76,0
6178,note_off,0,0,0,,,,,5,,,,,,,73,0
6180,note_on,2,0,0,,,,,0,,,,,,,75,80
6180,note_on,0,0,0,,,,,5,,,,,,,71,96
6189,note_off,9,0,0,,,,,1,,,,,,,71,0
6189,note_off,0,0,0,,,,,2,,,,,,,66,0
6189,note_off,0,0,0,,,,,3,,,,,,,47,0
6189,note_off,0,0,0,,,,,4,,,,,,,35,0
6189,note_off,0,0,0,,,,,6,,,,,,,59,0
6190,note_off,1,0,0,,,,,0,,,,,,,75,0
6190,note_off,0,0,0,,,,,5,,,,,,,71,0
6192,note_on,2,0,0,,,,,0,,,,,,,76,80
6192,note_on,0,0,0,,,,,1,,,,,,,71,80
6192,note_on,0,0,0,,,,,2,,,,,,,64,80
6192,note_on,0,0,0,,,,,3,,,,,,,52,80
6192,note_on,0,0,0,,,,,4,,,,,,,40,80
6192,note_on,0,0,0,,,,,5,,,,,,,80,96
6192,note_on,0,0,0,,,,,6,,,,,,,64,96
6199,note_off,7,0,0,,,,,5,,,,,,,80,0
6200,note_on,1,0,0,,,,,5,,,,,,,83,96
6207,note_off,7,0,0,,,,,5,,,,,,,83,0
6208,note_on,1,0,0,,,,,5,,,,,,,81,96
6213,note_off,5,0,0,,,,,0,,,,,,,76,0
6213,note_off,0,0,0,,,,,1,,,,,,,71,0
6213,note_off,0,0,0,,,,,2,,,,,,,64,0
6213,note_off,0,0,0,,,,,3,,,,,,,52,0
6213,note_off,0,0,0,,,,,4,,,,,,,40,0
6213,note_off,0,0,0,,,,,6,,,,,,,64,0
6215,note_off,2,0,0,,,,,5,,,,,,,81,0
6216,note_on,1,0,0,,,,,0,,,,,,,64,80
6216,note_on,0,0,0,,,,,3,,,,,,,50,80
6216,note_on,0,0,0,,,,,4,,,,,,,38,80
6216,note_on,0,0,0,,,,,5,,,,,,,80,96
6216,note_on,0,0,0,,,,,6,,,,,,,62,96
6223,note_off,7,0,0,,,,,5,,,,,,,80,0
6224,note_on,1,0,0,,,,,5,,,,,,,78,96
6226,note_off,2,0,0,,,,,6,,,,,,,62,0
6228,note_off,2,0,0,,,,,3,,,,,,,50,0
6228,note_on,0,0,0,,,,,3,,,,,,,49,80
6228,note_off,0,0,0,,,,,4,,,,,,,38,0
6228,note_on,0,0,0,,,,,4,,,,,,,37,80
6228,note_on,0,0,0,,,,,6,,,,,,,61,96
6231,note_off,3,0,0,,,,,5,,,,,,,78,0
6232,note_on,1,0,0,,,,,5,,,,,,,76,96
6237,note_off,5,0,0,,,,,0,,,,,,,64,0
6238,note_off,1,0,0,,,,,6,,,,,,,61,0
6239,note_off,1,0,0,,,,,5,,,,,,,76,0
6240,note_on,1,0,0,,,,,0,,,,,,,68,80
6240,note_off,0,0,0,,,,,3,,,,,,,49,0
6240,note_on,0,0,0,,,,,3,,,,,,,47,80
6240,note_off,0,0,0,,,,,4,,,,,,,37,0
6240,note_on,0,0,0,,,,,4,,,,,,,35,80
6240,note_on,0,0,0,,,,,5,,,,,,,74,96
6240,note_on,0,0,0,,,,,6,,,,,,,59,96
6247,note_off,7,0,0,,,,,5,,,,,,,74,0
6248,note_on,1,0,0,,,,,5,,,,,,,73,96
6250,note_off,2,0,0,,,,,6,,,,,,,59,0
6252,note_off,2,0,0,,,,,3,,,,,,,47,0
6252,note_on,0,0,0,,,,,3,,,,,,,45,80
6252,note_off,0,0,0,,,,,4,,,,,,,35,0
6252,note_on,0,0,0,,,,,4,,,,,,,33,80
6252,note_on,0,0,0,,,,,6,,,,,,,57,96
6255,note_off,3,0,0,,,,,5,,,,,,,73,0
6256,note_on,1,0,0,,,,,5,,,,,,,74,96
6261,note_off,5,0,0,,,,,0,,,,,,,68,0
6262,note_off,1,0,0,,,,,3,,,,,,,45,0
6262,note_off,0,0,0,,,,,4,,,,,,,33,0
6262,note_off,0,0,0,,,,,6,,,,,,,57,0
6263,note_off,1,0,0,,,,,5,,,,,,,74,0
6264,note_on,1,0,0,,,,,0,,,,,,,71,80
6264,note_on,0,0,0,,,,,1,,,,,,,64,80
6264,note_on,0,0,0,,,,,3,,,,,,,44,80
6264,note_on,0,0,0,,,,,4,,,,,,,32,80
6264,note_on,0,0,0,,,,,5,,,,,,,76,96
6264,note_on,0,0,0,,,,,6,,,,,,,56,96
6268,note_off,4,0,0,,,,,5,,,,,,,76,0
6268,note_on,0,0,0,,,,,5,,,,,,,74,96
6272,note_off,4,0,0,,,,,5,,,,,,,74,0
6272,note_on,0,0,0,,,,,5,,,,,,,76,96
6274,note_off,2,0,0,,,,,6,,,,,,,56,0
6276,note_off,2,0,0,,,,,3,,,,,,,44,0
6276,note_on,0,0,0,,,,,3,,,,,,,45,80
6276,note_off,0,0,0,,,,,4,,,,,,,32,0
6276,note_on,0,0,0,,,,,4,,,,,,,33,80
6276,note_off,0,0,0,,,,,5,,,,,,,76,0
6276,note_on,0,0,0,,,,,5,,,,,,,74,96
6276,note_on,0,0,0,,,,,6,,,,,,,57,96
6280,note_off,4,0,0,,,,,5,,,,,,,74,0
6280,note_on,0,0,0,,,,,5,,,,,,,76,96
6284,note_off,4,0,0,,,,,5,,,,,,,76,0
6284,note_on,0,0,0,,,,,5,,,,,,,74,96
6285,note_off,1,0,0,,,,,0,,,,,,,71,0
6285,note_off,0,0,0,,,,,1,,,,,,,64,0
6286,note_off,1,0,0,,,,,6,,,,,,,57,0
6288,note_on,2,0,0,,,,,0,,,,,,,64,80
6288,note_on,0,0,0,,,,,1,,,,,,,68,80
6288,note_off,0,0,0,,,,,3,,,,,,,45,0
6288,note_on,0,0,0,,,,,3,,,,,,,47,80
6288,note_off,0,0,0,,,,,4,,,,,,,33,0
6288,note_on,0,0,0,,,,,4,,,,,,,35,80
6288,note_off,0,0,0,,,,,5,,,,,,,74,0
6288,note_on,0,0,0,,,,,5,,,,,,,76,96
6288,note_on,0,0,0,,,,,6,,,,,,,59,96
6292,note_off,4,0,0,,,,,5,,,,,,,76,0
6292,note_on,0,0,0,,,,,5,,,,,,,74,96
6296,note_off,4,0,0,,,,,5,,,,,,,74,0
6296,note_on,0,0,0,,,,,5,,,,,,,76,96
6298,note_off,2,0,0,,,,,0,,,,,,,64,0
6298,note_off,0,0,0,,,,,6,,,,,,,59,0
6300,note_on,2,0,0,,,,,0,,,,,,,66,80
6300,note_off,0,0,0,,,,,3,,,,,,,47,0
6300,note_on,0,0,0,,,,,3,,,,,,,45,80
6300,note_off,0,0,0,,,,,4,,,,,,,35,0
6300,note_on,0,0,0,,,,,4,,,,,,,33,80
6300,note_off,0,0,0,,,,,5,,,,,,,76,0
6300,note_on,0,0,0,,,,,5,,,,,,,74,96
6300,note_on,0,0,0,,,,,6,,,,,,,57,96
6304,note_off,4,0,0,,,,,5,,,,,,,74,0
6304,note_on,0,0,0,,,,,5,,,,,,,76,96
6308,note_off,4,0,0,,,,,5,,,,,,,76,0
6308,note_on,0,0,0,,,,,5,,,,,,,74,96
6309,note_off,1,0,0,,,,,1,,,,,,,68,0
6310,note_off,1,0,0,,,,,0,,,,,,,66,0
6310,note_off,0,0,0,,,,,6,,,,,,,57,0
6312,note_on,2,0,0,,,,,0,,,,,,,68,80
6312,note_on,0,0,0,,,,,1,,,,,,,71,80
6312,note_off,0,0,0,,,,,3,,,,,,,45,0
6312,note_on,0,0,0,,,,,3,,,,,,,44,80
6312,note_off,0,0,0,,,,,4,,,,,,,33,0
6312,note_on,0,0,0,,,,,4,,,,,,,32,80
6312,note_off,0,0,0,,,,,5,,,,,,,74,0
6312,note_on,0,0,0,,,,,5,,,,,,,76,96
6312,note_on,0,0,0,,,,,6,,,,,,,56,96
6316,note_off,4,0,0,,,,,5,,,,,,,76,0
6316,note_on,0,0,0,,,,,5,,,,,,,74,96
6320,note_off,4,0,0,,,,,5,,,,,,,74,0
6320,note_on,0,0,0,,,,,5,,,,,,,76,96
6322,note_off,2,0,0,,,,,0,,,,,,,68,0
6322,note_off,0,0,0,,,,,6,,,,,,,56,0
6324,note_on,2,0,0,,,,,0,,,,,,,69,80
6324,note_off,0,0,0,,,,,3,,,,,,,44,0
6324,note_on,0,0,0,,,,,3,,,,,,,42,80
6324,note_off,0,0,0,,,,,4,,,,,,,32,0
6324,note_on,0,0,0,,,,,4,,,,,,,30,80
6324,note_off,0,0,0,,,,,5,,,,,,,76,0
6324,note_on,0,0,0,,,,,5,,,,,,,74,96
6324,note_on,0,0,0,,,,,6,,,,,,,54,96
6328,note_off,4,0,0,,,,,5,,,,,,,74,0
6328,note_on,0,0,0,,,,,5,,,,,,,76,96
6332,note_off,4,0,0,,,,,5,,,,,,,76,0
6332,note_on,0,0,0,,,,,5,,,,,,,74,96
6333,note_off,1,0,0,,,,,1,,,,,,,71,0
6334,note_off,1,0,0,,,,,0,,,,,,,69,0
6334,note_off,0,0,0,,,,,3,,,,,,,42,0
6334,note_off,0,0,0,,,,,4,,,,,,,30,0
6334,note_off,0,0,0,,,,,6,,,,,,,54,0
6336,note_on,2,0,0,,,,,0,,,,,,,71,80
6336,note_on,0,0,0,,,,,1,,,,,,,68,80
6336,note_on,0,0,0,,,,,2,,,,,,,64,80
6336,note_on,0,0,0,,,,,3,,,,,,,40,80
6336,note_on,0,0,0,,,,,4,,,,,,,28,80
6336,note_off,0,0,0,,,,,5,,,,,,,74,0
6336,note_on,0,0,0,,,,,5,,,,,,,76,96
6336,note_on,0,0,0,,,,,6,,,,,,,52,96
6340,note_off,4,0,0,,,,,5,,,,,,,76,0
6340,note_on,0,0,0,,,,,5,,,,,,,74,96
6343,note_off,3,0,0,,,,,6,,,,,,,52,0
6344,note_off,1,0,0,,,,,5,,,,,,,74,0
6344,note_on,0,0,0,,,,,5,,,,,,,76,96
6344,note_on,0,0,0,,,,,6,,,,,,,56,96
6348,note_off,4,0,0,,,,,5,,,,,,,76,0
6348,note_on,0,0,0,,,,,5,,,,,,,74,96
6351,note_off,3,0,0,,,,,6,,,,,,,56,0
6352,note_off,1,0,0,,,,,5,,,,,,,74,0
6352,note_on,0,0,0,,,,,5,,,,,,,76,96
6352,note_on,0,0,0,,,,,6,,,,,,,52,96
6356,note_off,4,0,0,,,,,5,,,,,,,76,0
6356,note_on,0,0,0,,,,,5,,,,,,,74,96
6357,note_off,1,0,0,,,,,0,,,,,,,71,0
6357,note_off,0,0,0,,,,,1,,,,,,,68,0
6357,note_off,0,0,0,,,,,2,,,,,,,64,0
6357,note_off,0,0,0,,,,,3,,,,,,,40,0
6357,note_off,0,0,0,,,,,4,,,,,,,28,0
6359,note_off,2,0,0,,,,,6,,,,,,,52,0
6360,note_on,1,0,0,,,,,0,,,,,,,76,80
6360,note_on,0,0,0,,,,,1,,,,,,,71,80
6360,note_on,0,0,0,,,,,2,,,,,,,68,80
6360,note_on,0,0,0,,,,,3,,,,,,,52,80
6360,note_on,0,0,0,,,,,4,,,,,,,40,80
6360,note_off,0,0,0,,,,,5,,,,,,,74,0
6360,note_on,0,0,0,,,,,5,,,,,,,76,96
6360,note_on,0,0,0,,,,,6,,,,,,,47,96
6364,note_off,4,0,0,,,,,5,,,,,,,76,0
6364,note_on,0,0,0,,,,,5,,,,,,,74,96
6367,note_off,3,0,0,,,,,6,,,,,,,47,0
6368,note_off,1,0,0,,,,,5,,,,,,,74,0
6368,note_on,0,0,0,,,,,5,,,,,,,76,96
6368,note_on,0,0,0,,,,,6,,,,,,,52,96
6372,note_off,4,0,0,,,,,5,,,,,,,76,0
6372,note_on,0,0,0,,,,,5,,,,,,,74,96
6375,note_off,3,0,0,,,,,6,,,,,,,52,0
6376,note_off,1,0,0,,,,,5,,,,,,,74,0
6376,note_on,0,0,0,,,,,5,,,,,,,76,96
6376,note_on,0,0,0,,,,,6,,,,,,,47,96
6380,note_off,4,0,0,,,,,5,,,,,,,76,0
6380,note_on,0,0,0,,,,,5,,,,,,,74,96
6381,note_off,1,0,0,,,,,0,,,,,,,76,0
6381,note_off,0,0,0,,,,,1,,,,,,,71,0
6381,note_off,0,0,0,,,,,2,,,,,,,68,0
6381,note_off,0,0,0,,,,,3,,,,,,,52,0
6381,note_off,0,0,0,,,,,4,,,,,,,40,0
6383,note_off,2,0,0,,,,,6,,,,,,,47,0
6384,note_on,1,0,0,,,,,0,,,,,,,80,80
6384,note_on,0,0,0,,,,,1,,,,,,,76,80
6384,note_on,0,0,0,,,,,2,,,,,,,71,80
6384,note_off,0,0,0,,,,,5,,,,,,,74,0
6384,note_on,0,0,0,,,,,5,,,,,,,76,96
6384,note_on,0,0,0,,,,,6,,,,,,,44,96
6388,note_off,4,0,0,,,,,5,,,,,,,76,0
6388,note_on,0,0,0,,,,,5,,,,,,,74,96
6391,note_off,3,0,0,,,,,6,,,,,,,44,0
6392,note_off,1,0,0,,,,,5,,,,,,,74,0
6392,note_on,0,0,0,,,,,5,,,,,,,76,96
6392,note_on,0,0,0,,,,,6,,,,,,,47,96
6396,note_off,4,0,0,,,,,5,,,,,,,76,0
6396,note_on,0,0,0,,,,,5,,,,,,,74,96
6399,note_off,3,0,0,,,,,6,,,,,,,47,0
6400,note_on,1,0,0,,,,,6,,,,,,,44,96
6405,note_off,5,0,0,,,,,0,,,,,,,80,0
6405,note_off,0,0,0,,,,,1,,,,,,,76,0
6405,note_off,0,0,0,,,,,2,,,,,,,71,0
6407,note_off,2,0,0,,,,,6,,,,,,,44,0
6408,note_on,1,0,0,,,,,0,,,,,,,83,80
6408,note_on,0,0,0,,,,,1,,,,,,,80,80
6408,note_on,0,0,0,,,,,2,,,,,,,71,80
6408,note_on,0,0,0,,,,,6,,,,,,,40,96
6417,note_off,9,0,0,,,,,5,,,,,,,74,0
6420,note_on,3,0,0,,,,,5,,,,,,,71,96
6429,note_off,9,0,0,,,,,1,,,,,,,80,0
6429,note_off,0,0,0,,,,,2,,,,,,,71,0
6429,note_off,0,0,0,,,,,6,,,,,,,40,0
6430,note_off,1,0,0,,,,,5,,,,,,,71,0
6432,note_on,2,0,0,,,,,1,,,,,,,76,80
6432,note_on,0,0,0,,,,,2,,,,,,,71,80
6432,note_on,0,0,0,,,,,3,,,,,,,52,80
6432,note_on,0,0,0,,,,,4,,,,,,,40,80
6432,note_on,0,0,0,,,,,5,,,,,,,69,96
6442,note_off,10,0,0,,,,,5,,,,,,,69,0
6444,note_on,2,0,0,,,,,5,,,,,,,68,96
6453,note_off,9,0,0,,,,,1,,,,,,,76,0
6453,note_off,0,0,0,,,,,2,,,,,,,71,0
6453,note_off,0,0,0,,,,,3,,,,,,,52,0
6453,note_off,0,0,0,,,,,4,,,,,,,40,0
6454,note_off,1,0,0,,,,,5,,,,,,,68,0
6456,note_on,2,0,0,,,,,1,,,,,,,76,80
6456,note_on,0,0,0,,,,,2,,,,,,,68,80
6456,note_on,0,0,0,,,,,3,,,,,,,40,80
6456,note_on,0,0,0,,,,,4,,,,,,,28,80
6456,note_on,0,0,0,,,,,5,,,,,,,66,96
6456,note_on,0,0,0,,,,,6,,,,,,,52,96
6466,note_off,10,0,0,,,,,5,,,,,,,66,0
6468,note_on,2,0,0,,,,,5,,,,,,,64,96
6477,note_off,9,0,0,,,,,1,,,,,,,76,0
6477,note_off,0,0,0,,,,,2,,,,,,,68,0
6477,note_off,0,0,0,,,,,3,,,,,,,40,0
6477,note_off,0,0,0,,,,,4,,,,,,,28,0
6477,note_off,0,0,0,,,,,6,,,,,,,52,0
6478,note_off,1,0,0,,,,,5,,,,,,,64,0
6480,note_on,2,0,0,,,,,1,,,,,,,76,80
6480,note_on,0,0,0,,,,,2,,,,,,,68,80
6480,note_on,0,0,0,,,,,3,,,,,,,45,80
6480,note_on,0,0,0,,,,,4,,,,,,,33,80
6480,note_on,0,0,0,,,,,5,,,,,,,73,96
6480,note_on,0,0,0,,,,,6,,,,,,,45,96
6481,note_off,1,0,0,,,,,0,,,,,,,83,0
6492,note_on,11,0,0,,,,,0,,,,,,,80,80
6501,note_off,9,0,0,,,,,3,,,,,,,45,0
6501,note_off,0,0,0,,,,,4,,,,,,,33,0
6501,note_off,0,0,0,,,,,6,,,,,,,45,0
6504,note_off,3,0,0,,,,,0,,,,,,,80,0
6504,note_on,0,0,0,,,,,0,,,,,,,78,80
6504,note_on,0,0,0,,,,,3,,,,,,,47,80
6504,note_on,0,0,0,,,,,4,,,,,,,35,80
6504,note_on,0,0,0,,,,,6,,,,,,,47,96
6516,note_off,12,0,0,,,,,0,,,,,,,78,0
6516,note_on,0,0,0,,,,,0,,,,,,,76,80
6525,note_off,9,0,0,,,,,3,,,,,,,47,0
6525,note_off,0,0,0,,,,,4,,,,,,,35,0
6525,note_off,0,0,0,,,,,6,,,,,,,47,0
6528,note_off,3,0,0,,,,,0,,,,,,,76,0
6528,note_on,0,0,0,,,,,0,,,,,,,75,80
6528,note_on,0,0,0,,,,,3,,,,,,,49,80
6528,note_on,0,0,0,,,,,4,,,,,,,37,80
6528,note_on,0,0,0,,,,,6,,,,,,,49,96
6540,note_off,12,0,0,,,,,0,,,,,,,75,0
6540,note_on,0,0,0,,,,,0,,,,,,,73,80
6543,note_off,3,0,0,,,,,1,,,,,,,76,0
6543,note_off,0,0,0,,,,,2,,,,,,,68,0
6549,note_off,6,0,0,,,,,3,,,,,,,49,0
6549,note_off,0,0,0,,,,,4,,,,,,,37,0
6549,note_off,0,0,0,,,,,6,,,,,,,49,0
6550,note_off,1,0,0,,,,,0,,,,,,,73,0
6552,note_on,2,0,0,,,,,0,,,,,,,81,80
6552,note_on,0,0,0,,,,,1,,,,,,,75,80
6552,note_on,0,0,0,,,,,2,,,,,,,66,80
6552,note_on,0,0,0,,,,,3,,,,,,,42,80
6552,note_on,0,0,0,,,,,4,,,,,,,30,80
6552,note_on,0,0,0,,,,,6,,,,,,,42,96
6553,note_off,1,0,0,,,,,5,,,,,,,73,0
6564,note_on,11,0,0,,,,,5,,,,,,,69,96
6573,note_off,9,0,0,,,,,3,,,,,,,42,0
6573,note_off,0,0,0,,,,,4,,,,,,,30,0
6573,note_off,0,0,0,,,,,6,,,,,,,42,0
6574,note_off,1,0,0,,,,,5,,,,,,,69,0
6576,note_on,2,0,0,,,,,3,,,,,,,54,80
6576,note_on,0,0,0,,,,,4,,,,,,,42,80
6576,note_on,0,0,0,,,,,5,,,,,,,68,96
6576,note_on,0,0,0,,,,,6,,,,,,,54,96
6586,note_off,10,0,0,,,,,5,,,,,,,68,0
6588,note_on,2,0,0,,,,,5,,,,,,,66,96
6597,note_off,9,0,0,,,,,3,,,,,,,54,0
6597,note_off,0,0,0,,,,,4,,,,,,,42,0
6597,note_off,0,0,0,,,,,6,,,,,,,54,0
6598,note_off,1,0,0,,,,,5,,,,,,,66,0
6600,note_on,2,0,0,,,,,5,,,,,,,64,96
6610,note_off,10,0,0,,,,,5,,,,,,,64,0
6612,note_on,2,0,0,,,,,5,,,,,,,63,96
6622,note_off,10,0,0,,,,,5,,,,,,,63,0
6624,note_on,2,0,0,,,,,3,,,,,,,44,80
6624,note_on,0,0,0,,,,,4,,,,,,,32,80
6624,note_on,0,0,0,,,,,5,,,,,,,71,96
6624,note_on,0,0,0,,,,,6,,,,,,,44,96
6625,note_off,1,0,0,,,,,0,,,,,,,81,0
6636,note_on,11,0,0,,,,,0,,,,,,,78,80
6645,note_off,9,0,0,,,,,3,,,,,,,44,0
6645,note_off,0,0,0,,,,,4,,,,,,,32,0
6645,note_off,0,0,0,,,,,6,,,,,,,44,0
6648,note_off,3,0,0,,,,,0,,,,,,,78,0
6648,note_on,0,0,0,,,,,0,,,,,,,76,80
6648,note_on,0,0,0,,,,,3,,,,,,,45,80
6648,note_on,0,0,0,,,,,4,,,,,,,33,80
6648,note_on,0,0,0,,,,,6,,,,,,,45,96
6660,note_off,12,0,0,,,,,0,,,,,,,76,0
6660,note_on,0,0,0,,,,,0,,,,,,,75,80
6669,note_off,9,0,0,,,,,3,,,,,,,45,0
6669,note_off,0,0,0,,,,,4,,,,,,,33,0
6669,note_off,0,0,0,,,,,6,,,,,,,45,0
6672,note_off,3,0,0,,,,,0,,,,,,,75,0
6672,note_on,0,0,0,,,,,0,,,,,,,73,80
6672,note_on,0,0,0,,,,,3,,,,,,,47,80
6672,note_on,0,0,0,,,,,4,,,,,,,35,80
6672,note_on,0,0,0,,,,,6,,,,,,,47,96
6684,note_off,12,0,0,,,,,0,,,,,,,73,0
6684,note_on,0,0,0,,,,,0,,,,,,,71,80
6684,note_off,0,0,0,,,,,1,,,,,,,75,0
6684,note_off,0,0,0,,,,,2,,,,,,,66,0
6693,note_off,9,0,0,,,,,3,,,,,,,47,0
6693,note_off,0,0,0,,,,,4,,,,,,,35,0
6693,note_off,0,0,0,,,,,6,,,,,,,47,0
6694,note_off,1,0,0,,,,,0,,,,,,,71,0
6696,note_on,2,0,0,,,,,0,,,,,,,80,80
6696,note_on,0,0,0,,,,,1,,,,,,,73,80
6696,note_on,0,0,0,,,,,2,,,,,,,64,80
6696,note_on,0,0,0,,,,,3,,,,,,,40,80
6696,note_on,0,0,0,,,,,4,,,,,,,28,80
6696,note_on,0,0,0,,,,,6,,,,,,,40,96
6697,note_off,1,0,0,,,,,5,,,,,,,71,0
6708,note_on,11,0,0,,,,,5,,,,,,,68,96
6717,note_off,9,0,0,,,,,3,,,,,,,40,0
6717,note_off,0,0,0,,,,,4,,,,,,,28,0
6717,note_off,0,0,0,,,,,6,,,,,,,40,0
6718,note_off,1,0,0,,,,,5,,,,,,,68,0
6720,note_on,2,0,0,,,,,3,,,,,,,52,80
6720,note_on,0,0,0,,,,,4,,,,,,,40,80
6720,note_on,0,0,0,,,,,5,,,,,,,66,96
6720,note_on,0,0,0,,,,,6,,,,,,,52,96
6730,note_off,10,0,0,,,,,5,,,,,,,66,0
6732,note_on,2,0,0,,,,,5,,,,,,,64,96
6741,note_off,9,0,0,,,,,3,,,,,,,52,0
6741,note_off,0,0,0,,,,,4,,,,,,,40,0
6741,note_off,0,0,0,,,,,6,,,,,,,52,0
6742,note_off,1,0,0,,,,,5,,,,,,,64,0
6744,note_on,2,0,0,,,,,5,,,,,,,63,96
6754,note_off,10,0,0,,,,,5,,,,,,,63,0
6756,note_on,2,0,0,,,,,5,,,,,,,61,96
6766,note_off,10,0,0,,,,,5,,,,,,,61,0
6768,note_on,2,0,0,,,,,3,,,,,,,42,80
6768,note_on,0,0,0,,,,,4,,,,,,,30,80
6768,note_on,0,0,0,,,,,5,,,,,,,69,96
6768,note_on,0,0,0,,,,,6,,,,,,,54,96
6778,note_off,10,0,0,,,,,5,,,,,,,69,0
6778,note_off,0,0,0,,,,,6,,,,,,,54,0
6780,note_off,2,0,0,,,,,0,,,,,,,80,0
6780,note_off,0,0,0,,,,,2,,,,,,,64,0
6780,note_on,0,0,0,,,,,5,,,,,,,68,96
6780,note_on,0,0,0,,,,,6,,,,,,,52,96
6789,note_off,9,0,0,,,,,3,,,,,,,42,0
6789,note_off,0,0,0,,,,,4,,,,,,,30,0
6790,note_off,1,0,0,,,,,5,,,,,,,68,0
6790,note_off,0,0,0,,,,,6,,,,,,,52,0
6792,note_on,2,0,0,,,,,0,,,,,,,76,80
6792,note_on,0,0,0,,,,,2,,,,,,,69,80
6792,note_on,0,0,0,,,,,5,,,,,,,69,96
6792,note_on,0,0,0,,,,,6,,,,,,,54,96
6802,note_off,10,0,0,,,,,5,,,,,,,69,0
6802,note_off,0,0,0,,,,,6,,,,,,,54,0
6804,note_on,2,0,0,,,,,5,,,,,,,73,96
6804,note_on,0,0,0,,,,,6,,,,,,,57,96
6813,note_off,9,0,0,,,,,0,,,,,,,76,0
6813,note_off,0,0,0,,,,,2,,,,,,,69,0
6814,note_off,1,0,0,,,,,5,,,,,,,73,0
6814,note_off,0,0,0,,,,,6,,,,,,,57,0
6816,note_on,2,0,0,,,,,0,,,,,,,73,80
6816,note_on,0,0,0,,,,,2,,,,,,,64,80
6816,note_on,0,0,0,,,,,5,,,,,,,71,96
6816,note_on,0,0,0,,,,,6,,,,,,,56,96
6826,note_off,10,0,0,,,,,5,,,,,,,71,0
6826,note_off,0,0,0,,,,,6,,,,,,,56,0
6828,note_off,2,0,0,,,,,1,,,,,,,73,0
6828,note_on,0,0,0,,,,,5,,,,,,,68,96
6828,note_on,0,0,0,,,,,6,,,,,,,52,96
6837,note_off,9,0,0,,,,,0,,,,,,,73,0
6837,note_off,0,0,0,,,,,2,,,,,,,64,0
6838,note_off,1,0,0,,,,,5,,,,,,,68,0
6838,note_off,0,0,0,,,,,6,,,,,,,52,0
6840,note_on,2,0,0,,,,,0,,,,,,,78,80
6840,note_on,0,0,0,,,,,1,,,,,,,71,80
6840,note_on,0,0,0,,,,,2,,,,,,,66,80
6840,note_on,0,0,0,,,,,3,,,,,,,39,80
6840,note_on,0,0,0,,,,,4,,,,,,,27,80
6840,note_on,0,0,0,,,,,5,,,,,,,69,96
6840,note_on,0,0,0,,,,,6,,,,,,,51,96
6850,note_off,10,0,0,,,,,5,,,,,,,69,0
6850,note_off,0,0,0,,,,,6,,,,,,,51,0
6852,note_on,2,0,0,,,,,5,,,,,,,73,96
6852,note_on,0,0,0,,,,,6,,,,,,,57,96
6861,note_off,9,0,0,,,,,2,,,,,,,66,0
6861,note_off,0,0,0,,,,,3,,,,,,,39,0
6861,note_off,0,0,0,,,,,4,,,,,,,27,0
6862,note_off,1,0,0,,,,,5,,,,,,,73,0
6862,note_off,0,0,0,,,,,6,,,,,,,57,0
6864,note_on,2,0,0,,,,,2,,,,,,,59,80
6864,note_on,0,0,0,,,,,5,,,,,,,71,96
6864,note_on,0,0,0,,,,,6,,,,,,,56,96
6874,note_off,10,0,0,,,,,5,,,,,,,71,0
6874,note_off,0,0,0,,,,,6,,,,,,,56,0
6876,note_on,2,0,0,,,,,5,,,,,,,69,96
6876,note_on,0,0,0,,,,,6,,,,,,,54,96
6885,note_off,9,0,0,,,,,2,,,,,,,59,0
6886,note_off,1,0,0,,,,,5,,,,,,,69,0
6886,note_off,0,0,0,,,,,6,,,,,,,54,0
6888,note_on,2,0,0,,,,,2,,,,,,,69,80
6888,note_on,0,0,0,,,,,5,,,,,,,68,96
6888,note_on,0,0,0,,,,,6,,,,,,,52,96
6898,note_off,10,0,0,,,,,5,,,,,,,68,0
6898,note_off,0,0,0,,,,,6,,,,,,,52,0
6900,note_on,2,0,0,,,,,5,,,,,,,66,96
6900,note_on,0,0,0,,,,,6,,,,,,,51,96
6909,note_off,9,0,0,,,,,2,,,,,,,69,0
6910,note_off,1,0,0,,,,,5,,,,,,,66,0
6910,note_off,0,0,0,,,,,6,,,,,,,51,0
6912,note_on,2,0,0,,,,,2,,,,,,,68,80
6912,note_on,0,0,0,,,,,3,,,,,,,40,80
6912,note_on,0,0,0,,,,,4,,,,,,,28,80
6912,note_on,0,0,0,,,,,5,,,,,,,68,96
6912,note_on,0,0,0,,,,,6,,,,,,,52,96
6922,note_off,10,0,0,,,,,5,,,,,,,68,0
6922,note_off,0,0,0,,,,,6,,,,,,,52,0
6924,note_off,2,0,0,,,,,0,,,,,,,78,0
6924,note_on,0,0,0,,,,,5,,,,,,,66,96
6924,note_on,0,0,0,,,,,6,,,,,,,51,96
6933,note_off,9,0,0,,,,,3,,,,,,,40,0
6933,note_off,0,0,0,,,,,4,,,,,,,28,0
6934,note_off,1,0,0,,,,,5,,,,,,,66,0
6934,note_off,0,0,0,,,,,6,,,,,,,51,0
6936,note_on,2,0,0,,,,,0,,,,,,,75,80
6936,note_on,0,0,0,,,,,5,,,,,,,68,96
6936,note_on,0,0,0,,,,,6,,,,,,,52,96
6946,note_off,10,0,0,,,,,5,,,,,,,68,0
6946,note_off,0,0,0,,,,,6,,,,,,,52,0
6948,note_on,2,0,0,,,,,5,,,,,,,71,96
6948,note_on,0,0,0,,,,,6,,,,,,,56,96
6957,note_off,9,0,0,,,,,0,,,,,,,75,0
6958,note_off,1,0,0,,,,,5,,,,,,,71,0
6958,note_off,0,0,0,,,,,6,,,,,,,56,0
6960,note_on,2,0,0,,,,,0,,,,,,,71,80
6960,note_on,0,0,0,,,,,5,,,,,,,69,96
6960,note_on,0,0,0,,,,,6,,,,,,,54,96
6970,note_off,10,0,0,,,,,5,,,,,,,69,0
6970,note_off,0,0,0,,,,,6,,,,,,,54,0
6972,note_on,2,0,0,,,,,5,,,,,,,66,96
6972,note_on,0,0,0,,,,,6,,,,,,,51,96
6981,note_off,9,0,0,,,,,0,,,,,,,71,0
6982,note_off,1,0,0,,,,,5,,,,,,,66,0
6982,note_off,0,0,0,,,,,6,,,,,,,51,0
6984,note_on,2,0,0,,,,,0,,,,,,,76,80
6984,note_on,0,0,0,,,,,3,,,,,,,52,80
6984,note_on,0,0,0,,,,,4,,,,,,,40,80
6984,note_on,0,0,0,,,,,5,,,,,,,68,96
6984,note_on,0,0,0,,,,,6,,,,,,,52,96
6994,note_off,10,0,0,,,,,5,,,,,,,68,0
6996,note_on,2,0,0,,,,,5,,,,,,,71,96
7005,note_off,9,0,0,,,,,3,,,,,,,52,0
7005,note_off,0,0,0,,,,,4,,,,,,,40,0
7005,note_off,0,0,0,,,,,6,,,,,,,52,0
7006,note_off,1,0,0,,,,,5,,,,,,,71,0
7008,note_on,2,0,0,,,,,3,,,,,,,54,80
7008,note_on,0,0,0,,,,,4,,,,,,,42,80
7008,note_on,0,0,0,,,,,5,,,,,,,69,96
7008,note_on,0,0,0,,,,,6,,,,,,,54,96
7018,note_off,10,0,0,,,,,5,,,,,,,69,0
7020,note_on,2,0,0,,,,,5,,,,,,,68,96
7029,note_off,9,0,0,,,,,3,,,,,,,54,0
7029,note_off,0,0,0,,,,,4,,,,,,,42,0
7029,note_off,0,0,0,,,,,6,,,,,,,54,0
7030,note_off,1,0,0,,,,,5,,,,,,,68,0
7032,note_on,2,0,0,,,,,3,,,,,,,56,80
7032,note_on,0,0,0,,,,,4,,,,,,,44,80
7032,note_on,0,0,0,,,,,5,,,,,,,66,96
7032,note_on,0,0,0,,,,,6,,,,,,,56,96
7042,note_off,10,0,0,,,,,5,,,,,,,66,0
7044,note_off,2,0,0,,,,,1,,,,,,,71,0
7044,note_off,0,0,0,,,,,2,,,,,,,68,0
7044,note_on,0,0,0,,,,,5,,,,,,,64,96
7053,note_off,9,0,0,,,,,3,,,,,,,56,0
7053,note_off,0,0,0,,,,,4,,,,,,,44,0
7053,note_off,0,0,0,,,,,6,,,,,,,56,0
7054,note_off,1,0,0,,,,,5,,,,,,,64,0
7056,note_on,2,0,0,,,,,1,,,,,,,69,80
7056,note_on,0,0,0,,,,,2,,,,,,,66,80
7056,note_on,0,0,0,,,,,3,,,,,,,45,80
7056,note_on,0,0,0,,,,,4,,,,,,,33,80
7056,note_on,0,0,0,,,,,5,,,,,,,73,96
7056,note_on,0,0,0,,,,,6,,,,,,,45,96
7066,note_off,10,0,0,,,,,5,,,,,,,73,0
7068,note_off,2,0,0,,,,,0,,,,,,,76,0
7068,note_on,0,0,0,,,,,5,,,,,,,71,96
7077,note_off,9,0,0,,,,,1,,,,,,,69,0
7077,note_off,0,0,0,,,,,2,,,,,,,66,0
7077,note_off,0,0,0,,,,,3,,,,,,,45,0
7077,note_off,0,0,0,,,,,4,,,,,,,33,0
7077,note_off,0,0,0,,,,,6,,,,,,,45,0
7078,note_off,1,0,0,,,,,5,,,,,,,71,0
7080,note_on,2,0,0,,,,,0,,,,,,,73,80
7080,note_on,0,0,0,,,,,5,,,,,,,69,96
7080,note_on,0,0,0,,,,,6,,,,,,,49,96
7090,note_off,10,0,0,,,,,5,,,,,,,69,0
7092,note_on,2,0,0,,,,,5,,,,,,,68,96
7101,note_off,9,0,0,,,,,0,,,,,,,73,0
7101,note_off,0,0,0,,,,,6,,,,,,,49,0
7102,note_off,1,0,0,,,,,5,,,,,,,68,0
7104,note_on,2,0,0,,,,,0,,,,,,,69,80
7104,note_on,0,0,0,,,,,5,,,,,,,66,96
7104,note_on,0,0,0,,,,,6,,,,,,,54,96
7114,note_off,10,0,0,,,,,5,,,,,,,66,0
7116,note_on,2,0,0,,,,,5,,,,,,,64,96
7125,note_off,9,0,0,,,,,0,,,,,,,69,0
7125,note_off,0,0,0,,,,,6,,,,,,,54,0
7126,note_off,1,0,0,,,,,5,,,,,,,64,0
7128,note_on,2,0,0,,,,,0,,,,,,,66,80
7128,note_on,0,0,0,,,,,1,,,,,,,69,80
7128,note_on,0,0,0,,,,,2,,,,,,,66,80
7128,note_on,0,0,0,,,,,3,,,,,,,47,80
7128,note_on,0,0,0,,,,,4,,,,,,,35,80
7128,note_on,0,0,0,,,,,5,,,,,,,75,96
7128,note_on,0,0,0,,,,,6,,,,,,,47,96
7138,note_off,10,0,0,,,,,5,,,,,,,75,0
7140,note_on,2,0,0,,,,,5,,,,,,,71,96
7149,note_off,9,0,0,,,,,0,,,,,,,66,0
7149,note_off,0,0,0,,,,,1,,,,,,,69,0
7149,note_off,0,0,0,,,,,2,,,,,,,66,0
7149,note_off,0,0,0,,,,,3,,,,,,,47,0
7149,note_off,0,0,0,,,,,4,,,,,,,35,0
7149,note_off,0,0,0,,,,,6,,,,,,,47,0
7150,note_off,1,0,0,,,,,5,,,,,,,71,0
7152,note_on,2,0,0,,,,,5,,,,,,,69,96
7152,note_on,0,0,0,,,,,6,,,,,,,54,96
7162,note_off,10,0,0,,,,,5,,,,,,,69,0
7164,note_on,2,0,0,,,,,5,,,,,,,68,96
7173,note_off,9,0,0,,,,,6,,,,,,,54,0
7174,note_off,1,0,0,,,,,5,,,,,,,68,0
7176,note_on,2,0,0,,,,,5,,,,,,,66,96
7176,note_on,0,0,0,,,,,6,,,,,,,59,96
7186,note_off,10,0,0,,,,,5,,,,,,,66,0
7188,note_on,2,0,0,,,,,5,,,,,,,64,96
7197,note_off,9,0,0,,,,,6,,,,,,,59,0
7198,note_off,1,0,0,,,,,5,,,,,,,64,0
7200,note_on,2,0,0,,,,,0,,,,,,,76,80
7200,note_on,0,0,0,,,,,1,,,,,,,68,80
7200,note_on,0,0,0,,,,,2,,,,,,,61,80
7200,note_on,0,0,0,,,,,3,,,,,,,49,80
7200,note_on,0,0,0,,,,,4,,,,,,,37,80
7200,note_on,0,0,0,,,,,5,,,,,,,76,96
7200,note_on,0,0,0,,,,,6,,,,,,,49,96
7210,note_off,10,0,0,,,,,6,,,,,,,49,0
7212,note_on,2,0,0,,,,,6,,,,,,,51,96
7221,note_off,9,0,0,,,,,3,,,,,,,49,0
7221,note_off,0,0,0,,,,,4,,,,,,,37,0
7221,note_off,0,0,0,,,,,5,,,,,,,76,0
7222,note_off,1,0,0,,,,,6,,,,,,,51,0
7224,note_on,2,0,0,,,,,3,,,,,,,49,80
7224,note_on,0,0,0,,,,,4,,,,,,,37,80
7224,note_on,0,0,0,,,,,5,,,,,,,61,96
7224,note_on,0,0,0,,,,,6,,,,,,,52,96
7234,note_off,10,0,0,,,,,5,,,,,,,61,0
7234,note_off,0,0,0,,,,,6,,,,,,,52,0
7236,note_on,2,0,0,,,,,5,,,,,,,63,96
7236,note_on,0,0,0,,,,,6,,,,,,,54,96
7245,note_off,9,0,0,,,,,3,,,,,,,49,0
7245,note_off,0,0,0,,,,,4,,,,,,,37,0
7246,note_off,1,0,0,,,,,5,,,,,,,63,0
7246,note_off,0,0,0,,,,,6,,,,,,,54,0
7248,note_on,2,0,0,,,,,3,,,,,,,49,80
7248,note_on,0,0,0,,,,,4,,,,,,,37,80
7248,note_on,0,0,0,,,,,5,,,,,,,64,96
7248,note_on,0,0,0,,,,,6,,,,,,,56,96
7258,note_off,10,0,0,,,,,5,,,,,,,64,0
7258,note_off,0,0,0,,,,,6,,,,,,,56,0
7260,note_on,2,0,0,,,,,5,,,,,,,66,96
7260,note_on,0,0,0,,,,,6,,,,,,,58,96
7269,note_off,9,0,0,,,,,3,,,,,,,49,0
7269,note_off,0,0,0,,,,,4,,,,,,,37,0
7270,note_off,1,0,0,,,,,5,,,,,,,66,0
7270,note_off,0,0,0,,,,,6,,,,,,,58,0
7272,note_on,2,0,0,,,,,3,,,,,,,47,80
7272,note_on,0,0,0,,,,,4,,,,,,,35,80
7272,note_on,0,0,0,,,,,5,,,,,,,68,96
7272,note_on,0,0,0,,,,,6,,,,,,,59,96
7282,note_off,10,0,0,,,,,5,,,,,,,68,0
7282,note_off,0,0,0,,,,,6,,,,,,,59,0
7284,note_on,2,0,0,,,,,5,,,,,,,66,96
7284,note_on,0,0,0,,,,,6,,,,,,,58,96
7293,note_off,9,0,0,,,,,3,,,,,,,47,0
7293,note_off,0,0,0,,,,,4,,,,,,,35,0
7294,note_off,1,0,0,,,,,5,,,,,,,66,0
7294,note_off,0,0,0,,,,,6,,,,,,,58,0
7296,note_on,2,0,0,,,,,3,,,,,,,47,80
7296,note_on,0,0,0,,,,,4,,,,,,,35,80
7296,note_on,0,0,0,,,,,5,,,,,,,68,96
7296,note_on,0,0,0,,,,,6,,,,,,,59,96
7306,note_off,10,0,0,,,,,5,,,,,,,68,0
7306,note_off,0,0,0,,,,,6,,,,,,,59,0
7308,note_on,2,0,0,,,,,5,,,,,,,71,96
7308,note_on,0,0,0,,,,,6,,,,,,,63,96
7317,note_off,9,0,0,,,,,3,,,,,,,47,0
7317,note_off,0,0,0,,,,,4,,,,,,,35,0
7318,note_off,1,0,0,,,,,5,,,,,,,71,0
7318,note_off,0,0,0,,,,,6,,,,,,,63,0
7320,note_on,2,0,0,,,,,3,,,,,,,47,80
7320,note_on,0,0,0,,,,,4,,,,,,,35,80
7320,note_on,0,0,0,,,,,5,,,,,,,70,96
7320,note_on,0,0,0,,,,,6,,,,,,,61,96
7330,note_off,10,0,0,,,,,5,,,,,,,70,0
7330,note_off,0,0,0,,,,,6,,,,,,,61,0
7332,note_off,2,0,0,,,,,1,,,,,,,68,0
7332,note_off,0,0,0,,,,,2,,,,,,,61,0
7332,note_on,0,0,0,,,,,5,,,,,,,68,96
7332,note_on,0,0,0,,,,,6,,,,,,,59,96
7341,note_off,9,0,0,,,,,3,,,,,,,47,0
7341,note_off,0,0,0,,,,,4,,,,,,,35,0
7342,note_off,1,0,0,,,,,5,,,,,,,68,0
7342,note_off,0,0,0,,,,,6,,,,,,,59,0
7344,note_on,2,0,0,,,,,1,,,,,,,73,80
7344,note_on,0,0,0,,,,,2,,,,,,,54,80
7344,note_on,0,0,0,,,,,3,,,,,,,46,80
7344,note_on,0,0,0,,,,,4,,,,,,,34,80
7344,note_on,0,0,0,,,,,5,,,,,,,66,96
7344,note_on,0,0,0,,,,,6,,,,,,,58,96
7354,note_off,10,0,0,,,,,5,,,,,,,66,0
7354,note_off,0,0,0,,,,,6,,,,,,,58,0
7356,note_on,2,0,0,,,,,5,,,,,,,68,96
7356,note_on,0,0,0,,,,,6,,,,,,,59,96
7365,note_off,9,0,0,,,,,3,,,,,,,46,0
7365,note_off,0,0,0,,,,,4,,,,,,,34,0
7366,note_off,1,0,0,,,,,5,,,,,,,68,0
7366,note_off,0,0,0,,,,,6,,,,,,,59,0
7368,note_on,2,0,0,,,,,3,,,,,,,46,80
7368,note_on,0,0,0,,,,,4,,,,,,,34,80
7368,note_on,0,0,0,,,,,5,,,,,,,70,96
7368,note_on,0,0,0,,,,,6,,,,,,,61,96
7378,note_off,10,0,0,,,,,5,,,,,,,70,0
7378,note_off,0,0,0,,,,,6,,,,,,,61,0
7380,note_on,2,0,0,,,,,5,,,,,,,71,96
7380,note_on,0,0,0,,,,,6,,,,,,,59,96
7389,note_off,9,0,0,,,,,3,,,,,,,46,0
7389,note_off,0,0,0,,,,,4,,,,,,,34,0
7390,note_off,1,0,0,,,,,5,,,,,,,71,0
7390,note_off,0,0,0,,,,,6,,,,,,,59,0
7392,note_on,2,0,0,,,,,3,,,,,,,46,80
7392,note_on,0,0,0,,,,,4,,,,,,,34,80
7392,note_on,0,0,0,,,,,5,,,,,,,73,96
7392,note_on,0,0,0,,,,,6,,,,,,,58,96
7402,note_off,10,0,0,,,,,5,,,,,,,73,0
7402,note_off,0,0,0,,,,,6,,,,,,,58,0
7404,note_on,2,0,0,,,,,5,,,,,,,75,96
7404,note_on,0,0,0,,,,,6,,,,,,,56,96
7413,note_off,9,0,0,,,,,3,,,,,,,46,0
7413,note_off,0,0,0,,,,,4,,,,,,,34,0
7414,note_off,1,0,0,,,,,5,,,,,,,75,0
7414,note_off,0,0,0,,,,,6,,,,,,,56,0
7416,note_on,2,0,0,,,,,3,,,,,,,42,80
7416,note_on,0,0,0,,,,,4,,,,,,,30,80
7416,note_on,0,0,0,,,,,5,,,,,,,76,96
7416,note_on,0,0,0,,,,,6,,,,,,,54,96
7426,note_off,10,0,0,,,,,5,,,,,,,76,0
7426,note_off,0,0,0,,,,,6,,,,,,,54,0
7428,note_off,2,0,0,,,,,0,,,,,,,76,0
7428,note_off,0,0,0,,,,,1,,,,,,,73,0
7428,note_off,0,0,0,,,,,2,,,,,,,54,0
7428,note_on,0,0,0,,,,,5,,,,,,,75,96
7428,note_on,0,0,0,,,,,6,,,,,,,56,96
7437,note_off,9,0,0,,,,,3,,,,,,,42,0
7437,note_off,0,0,0,,,,,4,,,,,,,30,0
7438,note_off,1,0,0,,,,,5,,,,,,,75,0
7438,note_off,0,0,0,,,,,6,,,,,,,56,0
7440,note_on,2,0,0,,,,,0,,,,,,,75,80
7440,note_on,0,0,0,,,,,1,,,,,,,70,80
7440,note_on,0,0,0,,,,,2,,,,,,,66,80
7440,note_on,0,0,0,,,,,3,,,,,,,42,80
7440,note_on,0,0,0,,,,,4,,,,,,,30,80
7440,note_on,0,0,0,,,,,5,,,,,,,76,96
7440,note_on,0,0,0,,,,,6,,,,,,,54,96
7444,note_off,4,0,0,,,,,0,,,,,,,75,0
7444,note_on,0,0,0,,,,,0,,,,,,,73,80
7448,note_off,4,0,0,,,,,0,,,,,,,73,0
7448,note_on,0,0,0,,,,,0,,,,,,,75,80
7450,note_off,2,0,0,,,,,5,,,,,,,76,0
7450,note_off,0,0,0,,,,,6,,,,,,,54,0
7452,note_off,2,0,0,,,,,0,,,,,,,75,0
7452,note_on,0,0,0,,,,,0,,,,,,,73,80
7452,note_on,0,0,0,,,,,5,,,,,,,80,96
7452,note_on,0,0,0,,,,,6,,,,,,,52,96
7456,note_off,4,0,0,,,,,0,,,,,,,73,0
7456,note_on,0,0,0,,,,,0,,,,,,,75,80
7460,note_off,4,0,0,,,,,0,,,,,,,75,0
7460,note_on,0,0,0,,,,,0,,,,,,,73,80
7461,note_off,1,0,0,,,,,3,,,,,,,42,0
7461,note_off,0,0,0,,,,,4,,,,,,,30,0
7462,note_off,1,0,0,,,,,5,,,,,,,80,0
7462,note_off,0,0,0,,,,,6,,,,,,,52,0
7464,note_off,2,0,0,,,,,0,,,,,,,73,0
7464,note_on,0,0,0,,,,,0,,,,,,,75,80
7464,note_on,0,0,0,,,,,3,,,,,,,42,80
7464,note_on,0,0,0,,,,,4,,,,,,,30,80
7464,note_on,0,0,0,,,,,5,,,,,,,78,96
7464,note_on,0,0,0,,,,,6,,,,,,,51,96
7468,note_off,4,0,0,,,,,0,,,,,,,75,0
7468,note_on,0,0,0,,,,,0,,,,,,,73,80
7472,note_off,4,0,0,,,,,0,,,,,,,73,0
7472,note_on,0,0,0,,,,,0,,,,,,,75,80
7474,note_off,2,0,0,,,,,5,,,,,,,78,0
7474,note_off,0,0,0,,,,,6,,,,,,,51,0
7476,note_off,2,0,0,,,,,0,,,,,,,75,0
7476,note_on,0,0,0,,,,,0,,,,,,,73,80
7476,note_on,0,0,0,,,,,5,,,,,,,76,96
7476,note_on,0,0,0,,,,,6,,,,,,,49,96
7482,note_off,6,0,0,,,,,1,,,,,,,70,0
7485,note_off,3,0,0,,,,,3,,,,,,,42,0
7485,note_off,0,0,0,,,,,4,,,,,,,30,0
7486,note_off,1,0,0,,,,,0,,,,,,,73,0
7486,note_off,0,0,0,,,,,5,,,,,,,76,0
7486,note_off,0,0,0,,,,,6,,,,,,,49,0
7488,note_on,2,0,0,,,,,0,,,,,,,75,80
7488,note_on,0,0,0,,,,,1,,,,,,,71,80
7488,note_on,0,0,0,,,,,3,,,,,,,59,80
7488,note_on,0,0,0,,,,,4,,,,,,,47,80
7488,note_on,0,0,0,,,,,5,,,,,,,75,96
7488,note_on,0,0,0,,,,,6,,,,,,,47,96
7498,note_off,10,0,0,,,,,5,,,,,,,75,0
7498,note_off,0,0,0,,,,,6,,,,,,,47,0
7500,note_on,2,0,0,,,,,5,,,,,,,78,96
7500,note_on,0,0,0,,,,,6,,,,,,,49,96
7509,note_off,9,0,0,,,,,3,,,,,,,59,0
7509,note_off,0,0,0,,,,,4,,,,,,,47,0
7510,note_off,1,0,0,,,,,5,,,,,,,78,0
7510,note_off,0,0,0,,,,,6,,,,,,,49,0
7512,note_on,2,0,0,,,,,3,,,,,,,57,80
7512,note_on,0,0,0,,,,,4,,,,,,,45,80
7512,note_on,0,0,0,,,,,5,,,,,,,71,96
7512,note_on,0,0,0,,,,,6,,,,,,,51,96
7522,note_off,10,0,0,,,,,3,,,,,,,57,0
7522,note_off,0,0,0,,,,,4,,,,,,,45,0
7522,note_off,0,0,0,,,,,5,,,,,,,71,0
7522,note_off,0,0,0,,,,,6,,,,,,,51,0
7524,note_on,2,0,0,,,,,3,,,,,,,56,80
7524,note_on,0,0,0,,,,,4,,,,,,,44,80
7524,note_on,0,0,0,,,,,5,,,,,,,73,96
7524,note_on,0,0,0,,,,,6,,,,,,,52,96
7534,note_off,10,0,0,,,,,3,,,,,,,56,0
7534,note_off,0,0,0,,,,,4,,,,,,,44,0
7534,note_off,0,0,0,,,,,5,,,,,,,73,0
7534,note_off,0,0,0,,,,,6,,,,,,,52,0
7536,note_on,2,0,0,,,,,3,,,,,,,54,80
7536,note_on,0,0,0,,,,,4,,,,,,,42,80
7536,note_on,0,0,0,,,,,5,,,,,,,75,96
7536,note_on,0,0,0,,,,,6,,,,,,,54,96
7546,note_off,10,0,0,,,,,3,,,,,,,54,0
7546,note_off,0,0,0,,,,,4,,,,,,,42,0
7546,note_off,0,0,0,,,,,5,,,,,,,75,0
7546,note_off,0,0,0,,,,,6,,,,,,,54,0
7548,note_on,2,0,0,,,,,3,,,,,,,52,80
7548,note_on,0,0,0,,,,,4,,,,,,,40,80
7548,note_on,0,0,0,,,,,5,,,,,,,76,96
7548,note_on,0,0,0,,,,,6,,,,,,,56,96
7558,note_off,10,0,0,,,,,3,,,,,,,52,0
7558,note_off,0,0,0,,,,,4,,,,,,,40,0
7558,note_off,0,0,0,,,,,5,,,,,,,76,0
7558,note_off,0,0,0,,,,,6,,,,,,,56,0
7560,note_on,2,0,0,,,,,3,,,,,,,51,80
7560,note_on,0,0,0,,,,,4,,,,,,,39,80
7560,note_on,0,0,0,,,,,5,,,,,,,78,96
7560,note_on,0,0,0,,,,,6,,,,,,,57,96
7570,note_off,10,0,0,,,,,5,,,,,,,78,0
7570,note_off,0,0,0,,,,,6,,,,,,,57,0
7572,note_on,2,0,0,,,,,5,,,,,,,80,96
7572,note_on,0,0,0,,,,,6,,,,,,,59,96
7581,note_off,9,0,0,,,,,3,,,,,,,51,0
7581,note_off,0,0,0,,,,,4,,,,,,,39,0
7582,note_off,1,0,0,,,,,5,,,,,,,80,0
7582,note_off,0,0,0,,,,,6,,,,,,,59,0
7584,note_on,2,0,0,,,,,3,,,,,,,59,80
7584,note_on,0,0,0,,,,,4,,,,,,,47,80
7584,note_on,0,0,0,,,,,5,,,,,,,81,96
7584,note_on,0,0,0,,,,,6,,,,,,,61,96
7594,note_off,10,0,0,,,,,5,,,,,,,81,0
7594,note_off,0,0,0,,,,,6,,,,,,,61,0
7596,note_on,2,0,0,,,,,5,,,,,,,85,96
7596,note_on,0,0,0,,,,,6,,,,,,,59,96
7605,note_off,9,0,0,,,,,3,,,,,,,59,0
7605,note_off,0,0,0,,,,,4,,,,,,,47,0
7606,note_off,1,0,0,,,,,5,,,,,,,85,0
7606,note_off,0,0,0,,,,,6,,,,,,,59,0
7608,note_on,2,0,0,,,,,3,,,,,,,47,80
7608,note_on,0,0,0,,,,,4,,,,,,,35,80
7608,note_on,0,0,0,,,,,5,,,,,,,83,96
7608,note_on,0,0,0,,,,,6,,,,,,,61,96
7618,note_off,10,0,0,,,,,5,,,,,,,83,0
7618,note_off,0,0,0,,,,,6,,,,,,,61,0
7620,note_off,2,0,0,,,,,0,,,,,,,75,0
7620,note_off,0,0,0,,,,,1,,,,,,,71,0
7620,note_off,0,0,0,,,,,2,,,,,,,66,0
7620,note_on,0,0,0,,,,,5,,,,,,,81,96
7620,note_on,0,0,0,,,,,6,,,,,,,63,96
7629,note_off,9,0,0,,,,,3,,,,,,,47,0
7629,note_off,0,0,0,,,,,4,,,,,,,35,0
7630,note_off,1,0,0,,,,,5,,,,,,,81,0
7630,note_off,0,0,0,,,,,6,,,,,,,63,0
7632,note_on,2,0,0,,,,,3,,,,,,,52,80
7632,note_on,0,0,0,,,,,4,,,,,,,40,80
7632,note_on,0,0,0,,,,,5,,,,,,,80,96
7632,note_on,0,0,0,,,,,6,,,,,,,64,96
7642,note_off,10,0,0,,,,,5,,,,,,,80,0
7644,note_on,2,0,0,,,,,5,,,,,,,76,96
7653,note_off,9,0,0,,,,,3,,,,,,,52,0
7653,note_off,0,0,0,,,,,4,,,,,,,40,0
7653,note_off,0,0,0,,,,,6,,,,,,,64,0
7654,note_off,1,0,0,,,,,5,,,,,,,76,0
7656,note_on,2,0,0,,,,,0,,,,,,,64,80
7656,note_on,0,0,0,,,,,1,,,,,,,59,80
7656,note_on,0,0,0,,,,,2,,,,,,,56,80
7656,note_on,0,0,0,,,,,3,,,,,,,52,80
7656,note_on,0,0,0,,,,,4,,,,,,,40,80
7656,note_on,0,0,0,,,,,5,,,,,,,83,96
7656,note_on,0,0,0,,,,,6,,,,,,,52,96
7666,note_off,10,0,0,,,,,5,,,,,,,83,0
7668,note_on,2,0,0,,,,,5,,,,,,,81,96
7677,note_off,9,0,0,,,,,0,,,,,,,64,0
7677,note_off,0,0,0,,,,,1,,,,,,,59,0
7677,note_off,0,0,0,,,,,2,,,,,,,56,0
7677,note_off,0,0,0,,,,,3,,,,,,,52,0
7677,note_off,0,0,0,,,,,4,,,,,,,40,0
7677,note_off,0,0,0,,,,,6,,,,,,,52,0
7678,note_off,1,0,0,,,,,5,,,,,,,81,0
7680,note_on,2,0,0,,,,,0,,,,,,,68,80
7680,note_on,0,0,0,,,,,1,,,,,,,64,80
7680,note_on,0,0,0,,,,,2,,,,,,,59,80
7680,note_on,0,0,0,,,,,3,,,,,,,52,80
7680,note_on,0,0,0,,,,,4,,,,,,,40,80
7680,note_on,0,0,0,,,,,5,,,,,,,80,96
7690,note_off,10,0,0,,,,,5,,,,,,,80,0
7692,note_on,2,0,0,,,,,5,,,,,,,78,96
7701,note_off,9,0,0,,,,,0,,,,,,,68,0
7701,note_off,0,0,0,,,,,1,,,,,,,64,0
7701,note_off,0,0,0,,,,,2,,,,,,,59,0
7701,note_off,0,0,0,,,,,3,,,,,,,52,0
7701,note_off,0,0,0,,,,,4,,,,,,,40,0
7702,note_off,1,0,0,,,,,5,,,,,,,78,0
7704,note_on,2,0,0,,,,,0,,,,,,,71,80
7704,note_on,0,0,0,,,,,1,,,,,,,68,80
7704,note_on,0,0,0,,,,,2,,,,,,,64,80
7704,note_on,0,0,0,,,,,3,,,,,,,52,80
7704,note_on,0,0,0,,,,,4,,,,,,,40,80
7704,note_on,0,0,0,,,,,5,,,,,,,80,96
7714,note_off,10,0,0,,,,,5,,,,,,,80,0
7716,note_on,2,0,0,,,,,5,,,,,,,76,96
7725,note_off,9,0,0,,,,,0,,,,,,,71,0
7725,note_off,0,0,0,,,,,1,,,,,,,68,0
7725,note_off,0,0,0,,,,,2,,,,,,,64,0
7725,note_off,0,0,0,,,,,3,,,,,,,52,0
7725,note_off,0,0,0,,,,,4,,,,,,,40,0
7726,note_off,1,0,0,,,,,5,,,,,,,76,0
7728,note_on,2,0,0,,,,,0,,,,,,,64,80
7728,note_on,0,0,0,,,,,1,,,,,,,71,80
7728,note_on,0,0,0,,,,,2,,,,,,,68,80
7728,note_on,0,0,0,,,,,3,,,,,,,52,80
7728,note_on,0,0,0,,,,,4,,,,,,,40,80
7728,note_on,0,0,0,,,,,5,,,,,,,80,96
7728,note_on,0,0,0,,,,,6,,,,,,,71,96
7738,note_off,10,0,0,,,,,0,,,,,,,64,0
7738,note_off,0,0,0,,,,,5,,,,,,,80,0
7738,note_off,0,0,0,,,,,6,,,,,,,71,0
7740,note_on,2,0,0,,,,,0,,,,,,,66,80
7740,note_on,0,0,0,,,,,5,,,,,,,78,96
7740,note_on,0,0,0,,,,,6,,,,,,,69,96
7749,note_off,9,0,0,,,,,1,,,,,,,71,0
7749,note_off,0,0,0,,,,,2,,,,,,,68,0
7749,note_off,0,0,0,,,,,3,,,,,,,52,0
7749,note_off,0,0,0,,,,,4,,,,,,,40,0
7750,note_off,1,0,0,,,,,0,,,,,,,66,0
7750,note_off,0,0,0,,,,,5,,,,,,,78,0
7750,note_off,0,0,0,,,,,6,,,,,,,69,0
7752,note_on,2,0,0,,,,,0,,,,,,,68,80
7752,note_on,0,0,0,,,,,1,,,,,,,64,80
7752,note_on,0,0,0,,,,,2,,,,,,,71,80
7752,note_on,0,0,0,,,,,3,,,,,,,52,80
7752,note_on,0,0,0,,,,,4,,,,,,,40,80
7752,note_on,0,0,0,,,,,5,,,,,,,76,96
7752,note_on,0,0,0,,,,,6,,,,,,,68,96
7762,note_off,10,0,0,,,,,0,,,,,,,68,0
7762,note_off,0,0,0,,,,,1,,,,,,,64,0
7762,note_off,0,0,0,,,,,5,,,,,,,76,0
7762,note_off,0,0,0,,,,,6,,,,,,,68,0
7764,note_on,2,0,0,,,,,0,,,,,,,69,80
7764,note_on,0,0,0,,,,,1,,,,,,,66,80
7764,note_on,0,0,0,,,,,5,,,,,,,75,96
7764,note_on,0,0,0,,,,,6,,,,,,,66,96
7773,note_off,9,0,0,,,,,2,,,,,,,71,0
7773,note_off,0,0,0,,,,,3,,,,,,,52,0
7773,note_off,0,0,0,,,,,4,,,,,,,40,0
7774,note_off,1,0,0,,,,,0,,,,,,,69,0
7774,note_off,0,0,0,,,,,1,,,,,,,66,0
7774,note_off,0,0,0,,,,,5,,,,,,,75,0
7774,note_off,0,0,0,,,,,6,,,,,,,66,0
7776,note_on,2,0,0,,,,,0,,,,,,,71,80
7776,note_on,0,0,0,,,,,1,,,,,,,68,80
7776,note_on,0,0,0,,,,,2,,,,,,,64,80
7776,note_on,0,0,0,,,,,3,,,,,,,52,80
7776,note_on,0,0,0,,,,,4,,,,,,,40,80
7776,note_on,0,0,0,,,,,5,,,,,,,76,96
7776,note_on,0,0,0,,,,,6,,,,,,,64,96
7786,note_off,10,0,0,,,,,1,,,,,,,68,0
7786,note_off,0,0,0,,,,,2,,,,,,,64,0
7786,note_off,0,0,0,,,,,5,,,,,,,76,0
7786,note_off,0,0,0,,,,,6,,,,,,,64,0
7788,note_on,2,0,0,,,,,1,,,,,,,69,80
7788,note_on,0,0,0,,,,,2,,,,,,,66,80
7788,note_on,0,0,0,,,,,5,,,,,,,71,96
7788,note_on,0,0,0,,,,,6,,,,,,,68,96
7797,note_off,9,0,0,,,,,0,,,,,,,71,0
7797,note_off,0,0,0,,,,,3,,,,,,,52,0
7797,note_off,0,0,0,,,,,4,,,,,,,40,0
7798,note_off,1,0,0,,,,,1,,,,,,,69,0
7798,note_off,0,0,0,,,,,2,,,,,,,66,0
7798,note_off,0,0,0,,,,,5,,,,,,,71,0
7798,note_off,0,0,0,,,,,6,,,,,,,68,0
7800,note_on,2,0,0,,,,,0,,,,,,,76,80
7800,note_on,0,0,0,,,,,1,,,,,,,71,80
7800,note_on,0,0,0,,,,,2,,,,,,,68,80
7800,note_on,0,0,0,,,,,3,,,,,,,52,80
7800,note_on,0,0,0,,,,,4,,,,,,,40,80
7800,note_on,0,0,0,,,,,5,,,,,,,69,96
7800,note_on,0,0,0,,,,,6,,,,,,,66,96
7810,note_off,10,0,0,,,,,1,,,,,,,71,0
7810,note_off,0,0,0,,,,,2,,,,,,,68,0
7810,note_off,0,0,0,,,,,5,,,,,,,69,0
7810,note_off,0,0,0,,,,,6,,,,,,,66,0
7812,note_on,2,0,0,,,,,1,,,,,,,73,80
7812,note_on,0,0,0,,,,,2,,,,,,,69,80
7812,note_on,0,0,0,,,,,5,,,,,,,68,96
7812,note_on,0,0,0,,,,,6,,,,,,,64,96
7821,note_off,9,0,0,,,,,0,,,,,,,76,0
7821,note_off,0,0,0,,,,,3,,,,,,,52,0
7821,note_off,0,0,0,,,,,4,,,,,,,40,0
7822,note_off,1,0,0,,,,,1,,,,,,,73,0
7822,note_off,0,0,0,,,,,2,,,,,,,69,0
7822,note_off,0,0,0,,,,,5,,,,,,,68,0
7822,note_off,0,0,0,,,,,6,,,,,,,64,0
7824,note_on,2,0,0,,,,,0,,,,,,,80,80
7824,note_on,0,0,0,,,,,1,,,,,,,75,80
7824,note_on,0,0,0,,,,,2,,,,,,,71,80
7824,note_on,0,0,0,,,,,3,,,,,,,52,80
7824,note_on,0,0,0,,,,,4,,,,,,,40,80
7824,note_on,0,0,0,,,,,5,,,,,,,66,96
7824,note_on,0,0,0,,,,,6,,,,,,,63,96
7834,note_off,10,0,0,,,,,1,,,,,,,75,0
7834,note_off,0,0,0,,,,,2,,,,,,,71,0
7834,note_off,0,0,0,,,,,5,,,,,,,66,0
7834,note_off,0,0,0,,,,,6,,,,,,,63,0
7836,note_on,2,0,0,,,,,1,,,,,,,76,80
7836,note_on,0,0,0,,,,,2,,,,,,,73,80
7836,note_on,0,0,0,,,,,5,,,,,,,64,96
7836,note_on,0,0,0,,,,,6,,,,,,,61,96
7845,note_off,9,0,0,,,,,0,,,,,,,80,0
7845,note_off,0,0,0,,,,,3,,,,,,,52,0
7845,note_off,0,0,0,,,,,4,,,,,,,40,0
7846,note_off,1,0,0,,,,,1,,,,,,,76,0
7846,note_off,0,0,0,,,,,2,,,,,,,73,0
7846,note_off,0,0,0,,,,,5,,,,,,,64,0
7846,note_off,0,0,0,,,,,6,,,,,,,61,0
7848,note_on,2,0,0,,,,,0,,,,,,,83,80
7848,note_on,0,0,0,,,,,1,,,,,,,78,80
7848,note_on,0,0,0,,,,,2,,,,,,,75,80
7848,note_on,0,0,0,,,,,3,,,,,,,52,80
7848,note_on,0,0,0,,,,,4,,,,,,,40,80
7848,note_on,0,0,0,,,,,5,,,,,,,75,96
7848,note_on,0,0,0,,,,,6,,,,,,,59,96
7858,note_off,10,0,0,,,,,5,,,,,,,75,0
7858,note_off,0,0,0,,,,,6,,,,,,,59,0
7860,note_on,2,0,0,,,,,5,,,,,,,76,96
7860,note_on,0,0,0,,,,,6,,,,,,,61,96
7869,note_off,9,0,0,,,,,0,,,,,,,83,0
7869,note_off,0,0,0,,,,,1,,,,,,,78,0
7869,note_off,0,0,0,,,,,2,,,,,,,75,0
7869,note_off,0,0,0,,,,,3,,,,,,,52,0
7869,note_off,0,0,0,,,,,4,,,,,,,40,0
7870,note_off,1,0,0,,,,,5,,,,,,,76,0
7870,note_off,0,0,0,,,,,6,,,,,,,61,0
7872,note_on,2,0,0,,,,,0,,,,,,,81,80
7872,note_on,0,0,0,,,,,1,,,,,,,71,80
7872,note_on,0,0,0,,,,,2,,,,,,,76,80
7872,note_on,0,0,0,,,,,3,,,,,,,64,80
7872,note_on,0,0,0,,,,,4,,,,,,,52,80
7872,note_on,0,0,0,,,,,5,,,,,,,78,96
7872,note_on,0,0,0,,,,,6,,,,,,,63,96
7876,note_off,4,0,0,,,,,5,,,,,,,78,0
7876,note_on,0,0,0,,,,,5,,,,,,,76,96
7876,note_off,0,0,0,,,,,6,,,,,,,63,0
7876,note_on,0,0,0,,,,,6,,,,,,,61,96
7880,note_off,4,0,0,,,,,5,,,,,,,76,0
7880,note_on,0,0,0,,,,,5,,,,,,,78,96
7880,note_off,0,0,0,,,,,6,,,,,,,61,0
7880,note_on,0,0,0,,,,,6,,,,,,,63,96
7882,note_off,2,0,0,,,,,0,,,,,,,81,0
7884,note_on,2,0,0,,,,,0,,,,,,,80,80
7884,note_off,0,0,0,,,,,5,,,,,,,78,0
7884,note_on,0,0,0,,,,,5,,,,,,,76,96
7884,note_off,0,0,0,,,,,6,,,,,,,63,0
7884,note_on,0,0,0,,,,,6,,,,,,,61,96
7888,note_off,4,0,0,,,,,5,,,,,,,76,0
7888,note_on,0,0,0,,,,,5,,,,,,,78,96
7888,note_off,0,0,0,,,,,6,,,,,,,61,0
7888,note_on,0,0,0,,,,,6,,,,,,,63,96
7892,note_off,4,0,0,,,,,5,,,,,,,78,0
7892,note_on,0,0,0,,,,,5,,,,,,,76,96
7892,note_off,0,0,0,,,,,6,,,,,,,63,0
7892,note_on,0,0,0,,,,,6,,,,,,,61,96
7893,note_off,1,0,0,,,,,1,,,,,,,71,0
7893,note_off,0,0,0,,,,,2,,,,,,,76,0
7893,note_off,0,0,0,,,,,3,,,,,,,64,0
7893,note_off,0,0,0,,,,,4,,,,,,,52,0
7894,note_off,1,0,0,,,,,0,,,,,,,80,0
7896,note_on,2,0,0,,,,,0,,,,,,,78,80
7896,note_on,0,0,0,,,,,1,,,,,,,70,80
7896,note_on,0,0,0,,,,,2,,,,,,,64,80
7896,note_on,0,0,0,,,,,3,,,,,,,61,80
7896,note_on,0,0,0,,,,,4,,,,,,,49,80
7896,note_off,0,0,0,,,,,5,,,,,,,76,0
7896,note_on,0,0,0,,,,,5,,,,,,,78,96
7896,note_off,0,0,0,,,,,6,,,,,,,61,0
7896,note_on,0,0,0,,,,,6,,,,,,,63,96
7900,note_off,4,0,0,,,,,5,,,,,,,78,0
7900,note_on,0,0,0,,,,,5,,,,,,,76,96
7900,note_off,0,0,0,,,,,6,,,,,,,63,0
7900,note_on,0,0,0,,,,,6,,,,,,,61,96
7906,note_off,6,0,0,,,,,0,,,,,,,78,0
7907,note_off,1,0,0,,,,,5,,,,,,,76,0
7907,note_off,0,0,0,,,,,6,,,,,,,61,0
7908,note_on,1,0,0,,,,,0,,,,,,,76,80
7908,note_on,0,0,0,,,,,5,,,,,,,75,96
7908,note_on,0,0,0,,,,,6,,,,,,,59,96
7913,note_off,5,0,0,,,,,5,,,,,,,75,0
7913,note_off,0,0,0,,,,,6,,,,,,,59,0
7914,note_on,1,0,0,,,,,5,,,,,,,76,96
7914,note_on,0,0,0,,,,,6,,,,,,,61,96
7917,note_off,3,0,0,,,,,1,,,,,,,70,0
7917,note_off,0,0,0,,,,,2,,,,,,,64,0
7917,note_off,0,0,0,,,,,3,,,,,,,61,0
7917,note_off,0,0,0,,,,,4,,,,,,,49,0
7918,note_off,1,0,0,,,,,0,,,,,,,76,0
7919,note_off,1,0,0,,,,,5,,,,,,,76,0
7919,note_off,0,0,0,,,,,6,,,,,,,61,0
7920,note_on,1,0,0,,,,,0,,,,,,,75,80
7920,note_on,0,0,0,,,,,1,,,,,,,71,80
7920,note_on,0,0,0,,,,,2,,,,,,,71,80
7920,note_on,0,0,0,,,,,3,,,,,,,59,80
7920,note_on,0,0,0,,,,,4,,,,,,,47,80
7920,note_on,0,0,0,,,,,5,,,,,,,78,96
7920,note_on,0,0,0,,,,,6,,,,,,,63,96
7930,note_off,10,0,0,,,,,0,,,,,,,75,0
7930,note_off,0,0,0,,,,,3,,,,,,,59,0
7930,note_off,0,0,0,,,,,4,,,,,,,47,0
7930,note_off,0,0,0,,,,,6,,,,,,,63,0
7932,note_on,2,0,0,,,,,0,,,,,,,71,80
7932,note_on,0,0,0,,,,,3,,,,,,,58,80
7932,note_on,0,0,0,,,,,4,,,,,,,46,80
7932,note_on,0,0,0,,,,,6,,,,,,,64,96
7941,note_off,9,0,0,,,,,1,,,,,,,71,0
7941,note_off,0,0,0,,,,,2,,,,,,,71,0
7941,note_off,0,0,0,,,,,5,,,,,,,78,0
7942,note_off,1,0,0,,,,,0,,,,,,,71,0
7942,note_off,0,0,0,,,,,3,,,,,,,58,0
7942,note_off,0,0,0,,,,,4,,,,,,,46,0
7942,note_off,0,0,0,,,,,6,,,,,,,64,0
7944,note_on,2,0,0,,,,,0,,,,,,,78,80
7944,note_on,0,0,0,,,,,1,,,,,,,75,80
7944,note_on,0,0,0,,,,,2,,,,,,,71,80
7944,note_on,0,0,0,,,,,3,,,,,,,59,80
7944,note_on,0,0,0,,,,,4,,,,,,,47,80
7944,note_on,0,0,0,,,,,5,,,,,,,71,96
7944,note_on,0,0,0,,,,,6,,,,,,,63,96
7954,note_off,10,0,0,,,,,3,,,,,,,59,0
7954,note_off,0,0,0,,,,,4,,,,,,,47,0
7954,note_off,0,0,0,,,,,6,,,,,,,63,0
7956,note_on,2,0,0,,,,,3,,,,,,,61,80
7956,note_on,0,0,0,,,,,4,,,,,,,49,80
7956,note_on,0,0,0,,,,,6,,,,,,,61,96
7965,note_off,9,0,0,,,,,0,,,,,,,78,0
7965,note_off,0,0,0,,,,,1,,,,,,,75,0
7965,note_off,0,0,0,,,,,2,,,,,,,71,0
7965,note_off,0,0,0,,,,,5,,,,,,,71,0
7966,note_off,1,0,0,,,,,3,,,,,,,61,0
7966,note_off,0,0,0,,,,,4,,,,,,,49,0
7966,note_off,0,0,0,,,,,6,,,,,,,61,0
7968,note_on,2,0,0,,,,,0,,,,,,,78,80
7968,note_on,0,0,0,,,,,1,,,,,,,75,80
7968,note_on,0,0,0,,,,,2,,,,,,,71,80
7968,note_on,0,0,0,,,,,3,,,,,,,59,80
7968,note_on,0,0,0,,,,,4,,,,,,,47,80
7968,note_on,0,0,0,,,,,6,,,,,,,59,96
7978,note_off,10,0,0,,,,,3,,,,,,,59,0
7978,note_off,0,0,0,,,,,4,,,,,,,47,0
7978,note_off,0,0,0,,,,,6,,,,,,,59,0
7980,note_on,2,0,0,,,,,3,,,,,,,57,80
7980,note_on,0,0,0,,,,,4,,,,,,,45,80
7980,note_on,0,0,0,,,,,6,,,,,,,57,96
7989,note_off,9,0,0,,,,,0,,,,,,,78,0
7989,note_off,0,0,0,,,,,1,,,,,,,75,0
7989,note_off,0,0,0,,,,,2,,,,,,,71,0
7990,note_off,1,0,0,,,,,3,,,,,,,57,0
7990,note_off,0,0,0,,,,,4,,,,,,,45,0
7990,note_off,0,0,0,,,,,6,,,,,,,57,0
7992,note_on,2,0,0,,,,,0,,,,,,,78,80
7992,note_on,0,0,0,,,,,1,,,,,,,75,80
7992,note_on,0,0,0,,,,,2,,,,,,,71,80
7992,note_on,0,0,0,,,,,3,,,,,,,56,80
7992,note_on,0,0,0,,,,,4,,,,,,,44,80
7992,note_on,0,0,0,,,,,6,,,,,,,56,96
8002,note_off,10,0,0,,,,,6,,,,,,,56,0
8004,note_on,2,0,0,,,,,6,,,,,,,57,96
8013,note_off,9,0,0,,,,,0,,,,,,,78,0
8013,note_off,0,0,0,,,,,1,,,,,,,75,0
8013,note_off,0,0,0,,,,,2,,,,,,,71,0
8013,note_off,0,0,0,,,,,3,,,,,,,56,0
8013,note_off,0,0,0,,,,,4,,,,,,,44,0
8014,note_off,1,0,0,,,,,6,,,,,,,57,0
8016,note_on,2,0,0,,,,,0,,,,,,,80,80
8016,note_on,0,0,0,,,,,5,,,,,,,83,96
8016,note_on,0,0,0,,,,,6,,,,,,,56,96
8026,note_off,10,0,0,,,,,0,,,,,,,80,0
8026,note_off,0,0,0,,,,,6,,,,,,,56,0
8028,note_on,2,0,0,,,,,0,,,,,,,81,80
8028,note_on,0,0,0,,,,,6,,,,,,,54,96
8037,note_off,9,0,0,,,,,5,,,,,,,83,0
8038,note_off,1,0,0,,,,,0,,,,,,,81,0
8038,note_off,0,0,0,,,,,6,,,,,,,54,0
8040,note_on,2,0,0,,,,,0,,,,,,,83,80
8040,note_on,0,0,0,,,,,5,,,,,,,83,96
8040,note_on,0,0,0,,,,,6,,,,,,,52,96
8050,note_off,10,0,0,,,,,0,,,,,,,83,0
8050,note_off,0,0,0,,,,,6,,,,,,,52,0
8052,note_on,2,0,0,,,,,0,,,,,,,80,80
8052,note_on,0,0,0,,,,,6,,,,,,,51,96
8061,note_off,9,0,0,,,,,5,,,,,,,83,0
8062,note_off,1,0,0,,,,,0,,,,,,,80,0
8062,note_off,0,0,0,,,,,6,,,,,,,51,0
8064,note_on,2,0,0,,,,,0,,,,,,,76,80
8064,note_on,0,0,0,,,,,5,,,,,,,83,96
8064,note_on,0,0,0,,,,,6,,,,,,,49,96
8072,note_off,8,0,0,,,,,0,,,,,,,76,0
8072,note_on,0,0,0,,,,,0,,,,,,,75,80
8074,note_off,2,0,0,,,,,5,,,,,,,83,0
8076,note_on,2,0,0,,,,,5,,,,,,,81,96
8080,note_off,4,0,0,,,,,0,,,,,,,75,0
8080,note_on,0,0,0,,,,,0,,,,,,,73,80
8085,note_off,5,0,0,,,,,6,,,,,,,49,0
8086,note_off,1,0,0,,,,,5,,,,,,,81,0
8087,note_off,1,0,0,,,,,0,,,,,,,73,0
8088,note_on,1,0,0,,,,,0,,,,,,,76,80
8088,note_on,0,0,0,,,,,1,,,,,,,73,80
8088,note_on,0,0,0,,,,,2,,,,,,,68,80
8088,note_on,0,0,0,,,,,3,,,,,,,61,80
8088,note_on,0,0,0,,,,,4,,,,,,,49,80
8088,note_on,0,0,0,,,,,5,,,,,,,80,96
8088,note_on,0,0,0,,,,,6,,,,,,,61,96
8098,note_off,10,0,0,,,,,5,,,,,,,80,0
8098,note_off,0,0,0,,,,,6,,,,,,,61,0
8100,note_on,2,0,0,,,,,5,,,,,,,78,96
8100,note_on,0,0,0,,,,,6,,,,,,,63,96
8109,note_off,9,0,0,,,,,0,,,,,,,76,0
8109,note_off,0,0,0,,,,,1,,,,,,,73,0
8109,note_off,0,0,0,,,,,2,,,,,,,68,0
8109,note_off,0,0,0,,,,,3,,,,,,,61,0
8109,note_off,0,0,0,,,,,4,,,,,,,49,0
8110,note_off,1,0,0,,,,,5,,,,,,,78,0
8110,note_off,0,0,0,,,,,6,,,,,,,63,0
8112,note_on,2,0,0,,,,,0,,,,,,,76,80
8112,note_on,0,0,0,,,,,1,,,,,,,73,80
8112,note_on,0,0,0,,,,,2,,,,,,,68,80
8112,note_on,0,0,0,,,,,3,,,,,,,49,80
8112,note_on,0,0,0,,,,,4,,,,,,,37,80
8112,note_on,0,0,0,,,,,5,,,,,,,76,96
8112,note_on,0,0,0,,,,,6,,,,,,,61,96
8122,note_off,10,0,0,,,,,5,,,,,,,76,0
8122,note_off,0,0,0,,,,,6,,,,,,,61,0
8124,note_on,2,0,0,,,,,5,,,,,,,75,96
8124,note_on,0,0,0,,,,,6,,,,,,,59,96
8133,note_off,9,0,0,,,,,0,,,,,,,76,0
8133,note_off,0,0,0,,,,,1,,,,,,,73,0
8133,note_off,0,0,0,,,,,2,,,,,,,68,0
8133,note_off,0,0,0,,,,,3,,,,,,,49,0
8133,note_off,0,0,0,,,,,4,,,,,,,37,0
8134,note_off,1,0,0,,,,,5,,,,,,,75,0
8134,note_off,0,0,0,,,,,6,,,,,,,59,0
8136,note_on,2,0,0,,,,,0,,,,,,,76,80
8136,note_on,0,0,0,,,,,1,,,,,,,73,80
8136,note_on,0,0,0,,,,,2,,,,,,,69,80
8136,note_on,0,0,0,,,,,3,,,,,,,54,80
8136,note_on,0,0,0,,,,,4,,,,,,,42,80
8136,note_on,0,0,0,,,,,5,,,,,,,73,96
8136,note_on,0,0,0,,,,,6,,,,,,,57,96
8146,note_off,10,0,0,,,,,5,,,,,,,73,0
8146,note_off,0,0,0,,,,,6,,,,,,,57,0
8148,note_on,2,0,0,,,,,5,,,,,,,76,96
8148,note_on,0,0,0,,,,,6,,,,,,,56,96
8157,note_off,9,0,0,,,,,0,,,,,,,76,0
8157,note_off,0,0,0,,,,,1,,,,,,,73,0
8157,note_off,0,0,0,,,,,2,,,,,,,69,0
8157,note_off,0,0,0,,,,,3,,,,,,,54,0
8157,note_off,0,0,0,,,,,4,,,,,,,42,0
8158,note_off,1,0,0,,,,,5,,,,,,,76,0
8158,note_off,0,0,0,,,,,6,,,,,,,56,0
8160,note_on,2,0,0,,,,,0,,,,,,,78,80
8160,note_on,0,0,0,,,,,5,,,,,,,81,96
8160,note_on,0,0,0,,,,,6,,,,,,,54,96
8170,note_off,10,0,0,,,,,0,,,,,,,78,0
8170,note_off,0,0,0,,,,,6,,,,,,,54,0
8172,note_on,2,0,0,,,,,0,,,,,,,80,80
8172,note_on,0,0,0,,,,,6,,,,,,,52,96
8181,note_off,9,0,0,,,,,5,,,,,,,81,0
8182,note_off,1,0,0,,,,,0,,,,,,,80,0
8182,note_off,0,0,0,,,,,6,,,,,,,52,0
8184,note_on,2,0,0,,,,,0,,,,,,,81,80
8184,note_on,0,0,0,,,,,5,,,,,,,81,96
8184,note_on,0,0,0,,,,,6,,,,,,,51,96
8194,note_off,10,0,0,,,,,0,,,,,,,81,0
8194,note_off,0,0,0,,,,,6,,,,,,,51,0
8196,note_on,2,0,0,,,,,0,,,,,,,78,80
8196,note_on,0,0,0,,,,,6,,,,,,,49,96
8205,note_off,9,0,0,,,,,5,,,,,,,81,0
8206,note_off,1,0,0,,,,,0,,,,,,,78,0
8206,note_off,0,0,0,,,,,6,,,,,,,49,0
8208,note_on,2,0,0,,,,,0,,,,,,,75,80
8208,note_on,0,0,0,,,,,5,,,,,,,81,96
8208,note_on,0,0,0,,,,,6,,,,,,,47,96
8218,note_off,10,0,0,,,,,5,,,,,,,81,0
8218,note_off,0,0,0,,,,,6,,,,,,,47,0
8220,note_on,2,0,0,,,,,5,,,,,,,80,96
8220,note_on,0,0,0,,,,,6,,,,,,,59,96
8229,note_off,9,0,0,,,,,0,,,,,,,75,0
8230,note_off,1,0,0,,,,,5,,,,,,,80,0
8230,note_off,0,0,0,,,,,6,,,,,,,59,0
8232,note_on,2,0,0,,,,,0,,,,,,,78,80
8232,note_on,0,0,0,,,,,1,,,,,,,75,80
8232,note_on,0,0,0,,,,,2,,,,,,,59,80
8232,note_on,0,0,0,,,,,3,,,,,,,47,80
8232,note_on,0,0,0,,,,,4,,,,,,,35,80
8232,note_on,0,0,0,,,,,5,,,,,,,78,96
8232,note_on,0,0,0,,,,,6,,,,,,,57,96
8242,note_off,10,0,0,,,,,2,,,,,,,59,0
8242,note_off,0,0,0,,,,,5,,,,,,,78,0
8242,note_off,0,0,0,,,,,6,,,,,,,57,0
8244,note_on,2,0,0,,,,,2,,,,,,,61,80
8244,note_on,0,0,0,,,,,5,,,,,,,76,96
8244,note_on,0,0,0,,,,,6,,,,,,,56,96
8253,note_off,9,0,0,,,,,0,,,,,,,78,0
8253,note_off,0,0,0,,,,,1,,,,,,,75,0
8253,note_off,0,0,0,,,,,3,,,,,,,47,0
8253,note_off,0,0,0,,,,,4,,,,,,,35,0
8254,note_off,1,0,0,,,,,2,,,,,,,61,0
8254,note_off,0,0,0,,,,,5,,,,,,,76,0
8254,note_off,0,0,0,,,,,6,,,,,,,56,0
8256,note_on,2,0,0,,,,,0,,,,,,,75,80
8256,note_on,0,0,0,,,,,1,,,,,,,71,80
8256,note_on,0,0,0,,,,,2,,,,,,,63,80
8256,note_on,0,0,0,,,,,3,,,,,,,47,80
8256,note_on,0,0,0,,,,,4,,,,,,,35,80
8256,note_on,0,0,0,,,,,5,,,,,,,75,96
8256,note_on,0,0,0,,,,,6,,,,,,,54,96
8266,note_off,10,0,0,,,,,2,,,,,,,63,0
8266,note_off,0,0,0,,,,,5,,,,,,,75,0
8266,note_off,0,0,0,,,,,6,,,,,,,54,0
8268,note_on,2,0,0,,,,,2,,,,,,,64,80
8268,note_on,0,0,0,,,,,5,,,,,,,73,96
8268,note_on,0,0,0,,,,,6,,,,,,,52,96
8277,note_off,9,0,0,,,,,0,,,,,,,75,0
8277,note_off,0,0,0,,,,,1,,,,,,,71,0
8277,note_off,0,0,0,,,,,3,,,,,,,47,0
8277,note_off,0,0,0,,,,,4,,,,,,,35,0
8278,note_off,1,0,0,,,,,2,,,,,,,64,0
8278,note_off,0,0,0,,,,,5,,,,,,,73,0
8278,note_off,0,0,0,,,,,6,,,,,,,52,0
8280,note_on,2,0,0,,,,,0,,,,,,,71,80
8280,note_on,0,0,0,,,,,1,,,,,,,66,80
8280,note_on,0,0,0,,,,,2,,,,,,,66,80
8280,note_on,0,0,0,,,,,3,,,,,,,47,80
8280,note_on,0,0,0,,,,,4,,,,,,,35,80
8280,note_on,0,0,0,,,,,5,,,,,,,71,96
8280,note_on,0,0,0,,,,,6,,,,,,,51,96
8290,note_off,10,0,0,,,,,2,,,,,,,66,0
8290,note_off,0,0,0,,,,,5,,,,,,,71,0
8292,note_on,2,0,0,,,,,2,,,,,,,68,80
8292,note_on,0,0,0,,,,,5,,,,,,,73,96
8301,note_off,9,0,0,,,,,0,,,,,,,71,0
8301,note_off,0,0,0,,,,,1,,,,,,,66,0
8301,note_off,0,0,0,,,,,3,,,,,,,47,0
8301,note_off,0,0,0,,,,,4,,,,,,,35,0
8301,note_off,0,0,0,,,,,6,,,,,,,51,0
8302,note_off,1,0,0,,,,,2,,,,,,,68,0
8302,note_off,0,0,0,,,,,5,,,,,,,73,0
8304,note_on,2,0,0,,,,,0,,,,,,,75,80
8304,note_on,0,0,0,,,,,1,,,,,,,71,80
8304,note_on,0,0,0,,,,,2,,,,,,,66,80
8304,note_on,0,0,0,,,,,3,,,,,,,47,80
8304,note_on,0,0,0,,,,,4,,,,,,,35,80
8304,note_on,0,0,0,,,,,5,,,,,,,75,96
8304,note_on,0,0,0,,,,,6,,,,,,,59,96
8314,note_off,10,0,0,,,,,0,,,,,,,75,0
8314,note_off,0,0,0,,,,,2,,,,,,,66,0
8314,note_off,0,0,0,,,,,5,,,,,,,75,0
8316,note_on,2,0,0,,,,,0,,,,,,,73,80
8316,note_on,0,0,0,,,,,2,,,,,,,64,80
8316,note_on,0,0,0,,,,,5,,,,,,,76,96
8325,note_off,9,0,0,,,,,1,,,,,,,71,0
8325,note_off,0,0,0,,,,,3,,,,,,,47,0
8325,note_off,0,0,0,,,,,4,,,,,,,35,0
8325,note_off,0,0,0,,,,,6,,,,,,,59,0
8326,note_off,1,0,0,,,,,0,,,,,,,73,0
8326,note_off,0,0,0,,,,,2,,,,,,,64,0
8326,note_off,0,0,0,,,,,5,,,,,,,76,0
8328,note_on,2,0,0,,,,,0,,,,,,,71,80
8328,note_on,0,0,0,,,,,1,,,,,,,66,80
8328,note_on,0,0,0,,,,,2,,,,,,,63,80
8328,note_on,0,0,0,,,,,3,,,,,,,47,80
8328,note_on,0,0,0,,,,,4,,,,,,,35,80
8328,note_on,0,0,0,,,,,5,,,,,,,78,96
8328,note_on,0,0,0,,,,,6,,,,,,,47,96
8338,note_off,10,0,0,,,,,0,,,,,,,71,0
8338,note_off,0,0,0,,,,,2,,,,,,,63,0
8338,note_off,0,0,0,,,,,5,,,,,,,78,0
8340,note_on,2,0,0,,,,,0,,,,,,,69,80
8340,note_on,0,0,0,,,,,2,,,,,,,61,80
8340,note_on,0,0,0,,,,,5,,,,,,,69,96
8349,note_off,9,0,0,,,,,1,,,,,,,66,0
8349,note_off,0,0,0,,,,,3,,,,,,,47,0
8349,note_off,0,0,0,,,,,4,,,,,,,35,0
8349,note_off,0,0,0,,,,,6,,,,,,,47,0
8350,note_off,1,0,0,,,,,0,,,,,,,69,0
8350,note_off,0,0,0,,,,,2,,,,,,,61,0
8350,note_off,0,0,0,,,,,5,,,,,,,69,0
8352,note_on,2,0,0,,,,,0,,,,,,,68,80
8352,note_on,0,0,0,,,,,1,,,,,,,64,80
8352,note_on,0,0,0,,,,,2,,,,,,,59,80
8352,note_on,0,0,0,,,,,3,,,,,,,52,80
8352,note_on,0,0,0,,,,,4,,,,,,,40,80
8352,note_on,0,0,0,,,,,5,,,,,,,68,96
8352,note_on,0,0,0,,,,,6,,,,,,,40,96
8362,note_off,10,0,0,,,,,1,,,,,,,64,0
8362,note_off,0,0,0,,,,,5,,,,,,,68,0
8362,note_off,0,0,0,,,,,6,,,,,,,40,0
8364,note_on,2,0,0,,,,,1,,,,,,,63,80
8364,note_on,0,0,0,,,,,5,,,,,,,71,96
8364,note_on,0,0,0,,,,,6,,,,,,,52,96
8373,note_off,9,0,0,,,,,0,,,,,,,68,0
8373,note_off,0,0,0,,,,,2,,,,,,,59,0
8373,note_off,0,0,0,,,,,3,,,,,,,52,0
8373,note_off,0,0,0,,,,,4,,,,,,,40,0
8374,note_off,1,0,0,,,,,1,,,,,,,63,0
8374,note_off,0,0,0,,,,,5,,,,,,,71,0
8374,note_off,0,0,0,,,,,6,,,,,,,52,0
8376,note_on,2,0,0,,,,,0,,,,,,,83,80
8376,note_on,0,0,0,,,,,1,,,,,,,64,80
8376,note_on,0,0,0,,,,,2,,,,,,,68,80
8376,note_on,0,0,0,,,,,3,,,,,,,40,80
8376,note_on,0,0,0,,,,,4,,,,,,,28,80
8376,note_on,0,0,0,,,,,5,,,,,,,64,96
8376,note_on,0,0,0,,,,,6,,,,,,,50,96
8386,note_off,10,0,0,,,,,1,,,,,,,64,0
8386,note_off,0,0,0,,,,,5,,,,,,,64,0
8386,note_off,0,0,0,,,,,6,,,,,,,50,0
8388,note_on,2,0,0,,,,,1,,,,,,,66,80
8388,note_on,0,0,0,,,,,5,,,,,,,66,96
8388,note_on,0,0,0,,,,,6,,,,,,,49,96
8397,note_off,9,0,0,,,,,0,,,,,,,83,0
8397,note_off,0,0,0,,,,,2,,,,,,,68,0
8397,note_off,0,0,0,,,,,3,,,,,,,40,0
8397,note_off,0,0,0,,,,,4,,,,,,,28,0
8398,note_off,1,0,0,,,,,1,,,,,,,66,0
8398,note_off,0,0,0,,,,,5,,,,,,,66,0
8398,note_off,0,0,0,,,,,6,,,,,,,49,0
8400,note_on,2,0,0,,,,,0,,,,,,,80,80
8400,note_on,0,0,0,,,,,1,,,,,,,68,80
8400,note_on,0,0,0,,,,,2,,,,,,,64,80
8400,note_on,0,0,0,,,,,3,,,,,,,40,80
8400,note_on,0,0,0,,,,,4,,,,,,,28,80
8400,note_on,0,0,0,,,,,5,,,,,,,68,96
8400,note_on,0,0,0,,,,,6,,,,,,,47,96
8410,note_off,10,0,0,,,,,1,,,,,,,68,0
8410,note_off,0,0,0,,,,,5,,,,,,,68,0
8410,note_off,0,0,0,,,,,6,,,,,,,47,0
8412,note_on,2,0,0,,,,,1,,,,,,,69,80
8412,note_on,0,0,0,,,,,5,,,,,,,69,96
8412,note_on,0,0,0,,,,,6,,,,,,,45,96
8421,note_off,9,0,0,,,,,0,,,,,,,80,0
8421,note_off,0,0,0,,,,,2,,,,,,,64,0
8421,note_off,0,0,0,,,,,3,,,,,,,40,0
8421,note_off,0,0,0,,,,,4,,,,,,,28,0
8422,note_off,1,0,0,,,,,1,,,,,,,69,0
8422,note_off,0,0,0,,,,,5,,,,,,,69,0
8422,note_off,0,0,0,,,,,6,,,,,,,45,0
8424,note_on,2,0,0,,,,,0,,,,,,,76,80
8424,note_on,0,0,0,,,,,1,,,,,,,71,80
8424,note_on,0,0,0,,,,,2,,,,,,,59,80
8424,note_on,0,0,0,,,,,3,,,,,,,40,80
8424,note_on,0,0,0,,,,,4,,,,,,,28,80
8424,note_on,0,0,0,,,,,5,,,,,,,71,96
8424,note_on,0,0,0,,,,,6,,,,,,,44,96
8434,note_off,10,0,0,,,,,1,,,,,,,71,0
8434,note_off,0,0,0,,,,,5,,,,,,,71,0
8436,note_on,2,0,0,,,,,1,,,,,,,73,80
8436,note_on,0,0,0,,,,,5,,,,,,,73,96
8445,note_off,9,0,0,,,,,0,,,,,,,76,0
8445,note_off,0,0,0,,,,,2,,,,,,,59,0
8445,note_off,0,0,0,,,,,3,,,,,,,40,0
8445,note_off,0,0,0,,,,,4,,,,,,,28,0
8445,note_off,0,0,0,,,,,6,,,,,,,44,0
8446,note_off,1,0,0,,,,,1,,,,,,,73,0
8446,note_off,0,0,0,,,,,5,,,,,,,73,0
8448,note_on,2,0,0,,,,,0,,,,,,,80,80
8448,note_on,0,0,0,,,,,1,,,,,,,71,80
8448,note_on,0,0,0,,,,,2,,,,,,,64,80
8448,note_on,0,0,0,,,,,3,,,,,,,40,80
8448,note_on,0,0,0,,,,,4,,,,,,,28,80
8448,note_on,0,0,0,,,,,5,,,,,,,74,96
8448,note_on,0,0,0,,,,,6,,,,,,,52,96
8458,note_off,10,0,0,,,,,0,,,,,,,80,0
8458,note_off,0,0,0,,,,,1,,,,,,,71,0
8458,note_off,0,0,0,,,,,5,,,,,,,74,0
8460,note_on,2,0,0,,,,,0,,,,,,,78,80
8460,note_on,0,0,0,,,,,1,,,,,,,69,80
8460,note_on,0,0,0,,,,,5,,,,,,,78,96
8469,note_off,9,0,0,,,,,2,,,,,,,64,0
8469,note_off,0,0,0,,,,,3,,,,,,,40,0
8469,note_off,0,0,0,,,,,4,,,,,,,28,0
8469,note_off,0,0,0,,,,,6,,,,,,,52,0
8470,note_off,1,0,0,,,,,0,,,,,,,78,0
8470,note_off,0,0,0,,,,,1,,,,,,,69,0
8470,note_off,0,0,0,,,,,5,,,,,,,78,0
8472,note_on,2,0,0,,,,,0,,,,,,,76,80
8472,note_on,0,0,0,,,,,1,,,,,,,68,80
8472,note_on,0,0,0,,,,,2,,,,,,,59,80
8472,note_on,0,0,0,,,,,3,,,,,,,40,80
8472,note_on,0,0,0,,,,,4,,,,,,,28,80
8472,note_on,0,0,0,,,,,5,,,,,,,76,96
8472,note_on,0,0,0,,,,,6,,,,,,,40,96
8482,note_off,10,0,0,,,,,0,,,,,,,76,0
8482,note_off,0,0,0,,,,,1,,,,,,,68,0
8482,note_off,0,0,0,,,,,5,,,,,,,76,0
8484,note_on,2,0,0,,,,,0,,,,,,,74,80
8484,note_on,0,0,0,,,,,1,,,,,,,66,80
8484,note_on,0,0,0,,,,,5,,,,,,,74,96
8493,note_off,9,0,0,,,,,2,,,,,,,59,0
8493,note_off,0,0,0,,,,,3,,,,,,,40,0
8493,note_off,0,0,0,,,,,4,,,,,,,28,0
8493,note_off,0,0,0,,,,,6,,,,,,,40,0
8494,note_off,1,0,0,,,,,0,,,,,,,74,0
8494,note_off,0,0,0,,,,,1,,,,,,,66,0
8494,note_off,0,0,0,,,,,5,,,,,,,74,0
8496,note_on,2,0,0,,,,,0,,,,,,,73,80
8496,note_on,0,0,0,,,,,1,,,,,,,64,80
8496,note_on,0,0,0,,,,,2,,,,,,,61,80
8496,note_on,0,0,0,,,,,3,,,,,,,45,80
8496,note_on,0,0,0,,,,,4,,,,,,,33,80
8496,note_on,0,0,0,,,,,5,,,,,,,73,96
8496,note_on,0,0,0,,,,,6,,,,,,,45,96
8506,note_off,10,0,0,,,,,0,,,,,,,73,0
8506,note_off,0,0,0,,,,,5,,,,,,,73,0
8506,note_off,0,0,0,,,,,6,,,,,,,45,0
8508,note_on,2,0,0,,,,,0,,,,,,,76,80
8508,note_on,0,0,0,,,,,5,,,,,,,76,96
8508,note_on,0,0,0,,,,,6,,,,,,,49,96
8517,note_off,9,0,0,,,,,1,,,,,,,64,0
8517,note_off,0,0,0,,,,,2,,,,,,,61,0
8517,note_off,0,0,0,,,,,3,,,,,,,45,0
8517,note_off,0,0,0,,,,,4,,,,,,,33,0
8518,note_off,1,0,0,,,,,0,,,,,,,76,0
8518,note_off,0,0,0,,,,,5,,,,,,,76,0
8518,note_off,0,0,0,,,,,6,,,,,,,49,0
8520,note_on,2,0,0,,,,,0,,,,,,,81,80
8520,note_on,0,0,0,,,,,1,,,,,,,63,80
8520,note_on,0,0,0,,,,,2,,,,,,,59,80
8520,note_on,0,0,0,,,,,3,,,,,,,54,80
8520,note_on,0,0,0,,,,,4,,,,,,,42,80
8520,note_on,0,0,0,,,,,5,,,,,,,81,96
8520,note_on,0,0,0,,,,,6,,,,,,,54,96
8530,note_off,10,0,0,,,,,0,,,,,,,81,0
8530,note_off,0,0,0,,,,,6,,,,,,,54,0
8532,note_on,2,0,0,,,,,0,,,,,,,80,80
8532,note_on,0,0,0,,,,,6,,,,,,,56,96
8541,note_off,9,0,0,,,,,1,,,,,,,63,0
8541,note_off,0,0,0,,,,,2,,,,,,,59,0
8541,note_off,0,0,0,,,,,3,,,,,,,54,0
8541,note_off,0,0,0,,,,,4,,,,,,,42,0
8541,note_off,0,0,0,,,,,5,,,,,,,81,0
8542,note_off,1,0,0,,,,,0,,,,,,,80,0
8542,note_off,0,0,0,,,,,6,,,,,,,56,0
8544,note_on,2,0,0,,,,,0,,,,,,,78,80
8544,note_on,0,0,0,,,,,6,,,,,,,57,96
8554,note_off,10,0,0,,,,,0,,,,,,,78,0
8554,note_off,0,0,0,,,,,6,,,,,,,57,0
8556,note_on,2,0,0,,,,,0,,,,,,,81,80
8556,note_on,0,0,0,,,,,6,,,,,,,54,96
8566,note_off,10,0,0,,,,,0,,,,,,,81,0
8566,note_off,0,0,0,,,,,6,,,,,,,54,0
8568,note_on,2,0,0,,,,,0,,,,,,,71,80
8568,note_on,0,0,0,,,,,1,,,,,,,64,80
8568,note_on,0,0,0,,,,,2,,,,,,,59,80
8568,note_on,0,0,0,,,,,3,,,,,,,44,80
8568,note_on,0,0,0,,,,,4,,,,,,,32,80
8568,note_on,0,0,0,,,,,5,,,,,,,71,96
8568,note_on,0,0,0,,,,,6,,,,,,,56,96
8578,note_off,10,0,0,,,,,0,,,,,,,71,0
8578,note_off,0,0,0,,,,,5,,,,,,,71,0
8578,note_off,0,0,0,,,,,6,,,,,,,56,0
8580,note_on,2,0,0,,,,,0,,,,,,,76,80
8580,note_on,0,0,0,,,,,5,,,,,,,76,96
8580,note_on,0,0,0,,,,,6,,,,,,,59,96
8589,note_off,9,0,0,,,,,1,,,,,,,64,0
8589,note_off,0,0,0,,,,,2,,,,,,,59,0
8589,note_off,0,0,0,,,,,3,,,,,,,44,0
8589,note_off,0,0,0,,,,,4,,,,,,,32,0
8590,note_off,1,0,0,,,,,0,,,,,,,76,0
8590,note_off,0,0,0,,,,,5,,,,,,,76,0
8590,note_off,0,0,0,,,,,6,,,,,,,59,0
8592,note_on,2,0,0,,,,,0,,,,,,,80,80
8592,note_on,0,0,0,,,,,1,,,,,,,64,80
8592,note_on,0,0,0,,,,,2,,,,,,,59,80
8592,note_on,0,0,0,,,,,3,,,,,,,52,80
8592,note_on,0,0,0,,,,,4,,,,,,,40,80
8592,note_on,0,0,0,,,,,5,,,,,,,80,96
8592,note_on,0,0,0,,,,,6,,,,,,,64,96
8602,note_off,10,0,0,,,,,0,,,,,,,80,0
8602,note_off,0,0,0,,,,,6,,,,,,,64,0
8604,note_on,2,0,0,,,,,0,,,,,,,78,80
8604,note_on,0,0,0,,,,,6,,,,,,,66,96
8613,note_off,9,0,0,,,,,1,,,,,,,64,0
8613,note_off,0,0,0,,,,,2,,,,,,,59,0
8613,note_off,0,0,0,,,,,3,,,,,,,52,0
8613,note_off,0,0,0,,,,,4,,,,,,,40,0
8613,note_off,0,0,0,,,,,5,,,,,,,80,0
8614,note_off,1,0,0,,,,,0,,,,,,,78,0
8614,note_off,0,0,0,,,,,6,,,,,,,66,0
8616,note_on,2,0,0,,,,,0,,,,,,,76,80
8616,note_on,0,0,0,,,,,6,,,,,,,68,96
8626,note_off,10,0,0,,,,,0,,,,,,,76,0
8626,note_off,0,0,0,,,,,6,,,,,,,68,0
8628,note_on,2,0,0,,,,,0,,,,,,,80,80
8628,note_on,0,0,0,,,,,6,,,,,,,64,96
8638,note_off,10,0,0,,,,,0,,,,,,,80,0
8638,note_off,0,0,0,,,,,6,,,,,,,64,0
8640,note_on,2,0,0,,,,,0,,,,,,,69,80
8640,note_on,0,0,0,,,,,3,,,,,,,42,80
8640,note_on,0,0,0,,,,,4,,,,,,,30,80
8640,note_on,0,0,0,,,,,5,,,,,,,69,96
8640,note_on,0,0,0,,,,,6,,,,,,,66,96
8650,note_off,10,0,0,,,,,5,,,,,,,69,0
8652,note_on,2,0,0,,,,,5,,,,,,,73,96
8661,note_off,9,0,0,,,,,0,,,,,,,69,0
8661,note_off,0,0,0,,,,,3,,,,,,,42,0
8661,note_off,0,0,0,,,,,4,,,,,,,30,0
8661,note_off,0,0,0,,,,,6,,,,,,,66,0
8662,note_off,1,0,0,,,,,5,,,,,,,73,0
8664,note_on,2,0,0,,,,,0,,,,,,,78,80
8664,note_on,0,0,0,,,,,1,,,,,,,69,80
8664,note_on,0,0,0,,,,,2,,,,,,,61,80
8664,note_on,0,0,0,,,,,3,,,,,,,54,80
8664,note_on,0,0,0,,,,,4,,,,,,,42,80
8664,note_on,0,0,0,,,,,5,,,,,,,69,96
8664,note_on,0,0,0,,,,,6,,,,,,,61,96
8674,note_off,10,0,0,,,,,3,,,,,,,54,0
8674,note_off,0,0,0,,,,,4,,,,,,,42,0
8674,note_off,0,0,0,,,,,5,,,,,,,69,0
8674,note_off,0,0,0,,,,,6,,,,,,,61,0
8676,note_on,2,0,0,,,,,3,,,,,,,52,80
8676,note_on,0,0,0,,,,,4,,,,,,,40,80
8676,note_on,0,0,0,,,,,5,,,,,,,68,96
8676,note_on,0,0,0,,,,,6,,,,,,,59,96
8685,note_off,9,0,0,,,,,0,,,,,,,78,0
8685,note_off,0,0,0,,,,,1,,,,,,,69,0
8685,note_off,0,0,0,,,,,2,,,,,,,61,0
8686,note_off,1,0,0,,,,,3,,,,,,,52,0
8686,note_off,0,0,0,,,,,4,,,,,,,40,0
8686,note_off,0,0,0,,,,,5,,,,,,,68,0
8686,note_off,0,0,0,,,,,6,,,,,,,59,0
8688,note_on,2,0,0,,,,,0,,,,,,,78,80
8688,note_on,0,0,0,,,,,1,,,,,,,69,80
8688,note_on,0,0,0,,,,,2,,,,,,,61,80
8688,note_on,0,0,0,,,,,3,,,,,,,54,80
8688,note_on,0,0,0,,,,,4,,,,,,,42,80
8688,note_on,0,0,0,,,,,5,,,,,,,66,96
8688,note_on,0,0,0,,,,,6,,,,,,,57,96
8698,note_off,10,0,0,,,,,3,,,,,,,54,0
8698,note_off,0,0,0,,,,,4,,,,,,,42,0
8698,note_off,0,0,0,,,,,5,,,,,,,66,0
8698,note_off,0,0,0,,,,,6,,,,,,,57,0
8700,note_on,2,0,0,,,,,3,,,,,,,56,80
8700,note_on,0,0,0,,,,,4,,,,,,,44,80
8700,note_on,0,0,0,,,,,5,,,,,,,64,96
8700,note_on,0,0,0,,,,,6,,,,,,,56,96
8709,note_off,9,0,0,,,,,0,,,,,,,78,0
8709,note_off,0,0,0,,,,,1,,,,,,,69,0
8709,note_off,0,0,0,,,,,2,,,,,,,61,0
8710,note_off,1,0,0,,,,,3,,,,,,,56,0
8710,note_off,0,0,0,,,,,4,,,,,,,44,0
8710,note_off,0,0,0,,,,,5,,,,,,,64,0
8710,note_off,0,0,0,,,,,6,,,,,,,56,0
8712,note_on,2,0,0,,,,,0,,,,,,,71,80
8712,note_on,0,0,0,,,,,1,,,,,,,66,80
8712,note_on,0,0,0,,,,,2,,,,,,,63,80
8712,note_on,0,0,0,,,,,3,,,,,,,57,80
8712,note_on,0,0,0,,,,,4,,,,,,,45,80
8712,note_on,0,0,0,,,,,5,,,,,,,63,96
8712,note_on,0,0,0,,,,,6,,,,,,,54,96
8722,note_off,10,0,0,,,,,0,,,,,,,71,0
8722,note_off,0,0,0,,,,,5,,,,,,,63,0
8722,note_off,0,0,0,,,,,6,,,,,,,54,0
8724,note_on,2,0,0,,,,,0,,,,,,,73,80
8724,note_on,0,0,0,,,,,5,,,,,,,64,96
8724,note_on,0,0,0,,,,,6,,,,,,,56,96
8733,note_off,9,0,0,,,,,1,,,,,,,66,0
8733,note_off,0,0,0,,,,,2,,,,,,,63,0
8733,note_off,0,0,0,,,,,3,,,,,,,57,0
8733,note_off,0,0,0,,,,,4,,,,,,,45,0
8734,note_off,1,0,0,,,,,0,,,,,,,73,0
8734,note_off,0,0,0,,,,,5,,,,,,,64,0
8734,note_off,0,0,0,,,,,6,,,,,,,56,0
8736,note_on,2,0,0,,,,,0,,,,,,,75,80
8736,note_on,0,0,0,,,,,1,,,,,,,66,80
8736,note_on,0,0,0,,,,,2,,,,,,,63,80
8736,note_on,0,0,0,,,,,3,,,,,,,57,80
8736,note_on,0,0,0,,,,,4,,,,,,,45,80
8736,note_on,0,0,0,,,,,5,,,,,,,66,96
8736,note_on,0,0,0,,,,,6,,,,,,,54,96
8746,note_off,10,0,0,,,,,0,,,,,,,75,0
8746,note_off,0,0,0,,,,,5,,,,,,,66,0
8746,note_off,0,0,0,,,,,6,,,,,,,54,0
8748,note_on,2,0,0,,,,,0,,,,,,,76,80
8748,note_on,0,0,0,,,,,5,,,,,,,68,96
8748,note_on,0,0,0,,,,,6,,,,,,,52,96
8757,note_off,9,0,0,,,,,1,,,,,,,66,0
8757,note_off,0,0,0,,,,,2,,,,,,,63,0
8757,note_off,0,0,0,,,,,3,,,,,,,57,0
8757,note_off,0,0,0,,,,,4,,,,,,,45,0
8758,note_off,1,0,0,,,,,0,,,,,,,76,0
8758,note_off,0,0,0,,,,,5,,,,,,,68,0
8758,note_off,0,0,0,,,,,6,,,,,,,52,0
8760,note_on,2,0,0,,,,,0,,,,,,,78,80
8760,note_on,0,0,0,,,,,1,,,,,,,66,80
8760,note_on,0,0,0,,,,,2,,,,,,,63,80
8760,note_on,0,0,0,,,,,3,,,,,,,57,80
8760,note_on,0,0,0,,,,,4,,,,,,,45,80
8760,note_on,0,0,0,,,,,5,,,,,,,69,96
8760,note_on,0,0,0,,,,,6,,,,,,,51,96
8770,note_off,10,0,0,,,,,0,,,,,,,78,0
8770,note_off,0,0,0,,,,,5,,,,,,,69,0
8770,note_off,0,0,0,,,,,6,,,,,,,51,0
8772,note_on,2,0,0,,,,,0,,,,,,,80,80
8772,note_on,0,0,0,,,,,5,,,,,,,71,96
8772,note_on,0,0,0,,,,,6,,,,,,,49,96
8781,note_off,9,0,0,,,,,1,,,,,,,66,0
8781,note_off,0,0,0,,,,,2,,,,,,,63,0
8781,note_off,0,0,0,,,,,3,,,,,,,57,0
8781,note_off,0,0,0,,,,,4,,,,,,,45,0
8782,note_off,1,0,0,,,,,0,,,,,,,80,0
8782,note_off,0,0,0,,,,,5,,,,,,,71,0
8782,note_off,0,0,0,,,,,6,,,,,,,49,0
8784,note_on,2,0,0,,,,,0,,,,,,,81,80
8784,note_on,0,0,0,,,,,1,,,,,,,66,80
8784,note_on,0,0,0,,,,,2,,,,,,,63,80
8784,note_on,0,0,0,,,,,3,,,,,,,47,80
8784,note_on,0,0,0,,,,,4,,,,,,,35,80
8784,note_on,0,0,0,,,,,5,,,,,,,73,96
8784,note_on,0,0,0,,,,,6,,,,,,,47,96
8792,note_off,8,0,0,,,,,0,,,,,,,81,0
8792,note_on,0,0,0,,,,,0,,,,,,,80,80
8794,note_off,2,0,0,,,,,5,,,,,,,73,0
8796,note_on,2,0,0,,,,,5,,,,,,,75,96
8800,note_off,4,0,0,,,,,0,,,,,,,80,0
8800,note_on,0,0,0,,,,,0,,,,,,,78,80
8805,note_off,5,0,0,,,,,1,,,,,,,66,0
8805,note_off,0,0,0,,,,,2,,,,,,,63,0
8805,note_off,0,0,0,,,,,3,,,,,,,47,0
8805,note_off,0,0,0,,,,,4,,,,,,,35,0
8805,note_off,0,0,0,,,,,6,,,,,,,47,0
8806,note_off,1,0,0,,,,,5,,,,,,,75,0
8807,note_off,1,0,0,,,,,0,,,,,,,78,0
8808,note_on,1,0,0,,,,,0,,,,,,,80,80
8808,note_on,0,0,0,,,,,5,,,,,,,76,96
8808,note_on,0,0,0,,,,,6,,,,,,,59,96
8815,note_off,7,0,0,,,,,0,,,,,,,80,0
8815,note_off,0,0,0,,,,,5,,,,,,,76,0
8816,note_on,1,0,0,,,,,0,,,,,,,78,80
8816,note_on,0,0,0,,,,,5,,,,,,,75,96
8823,note_off,7,0,0,,,,,0,,,,,,,78,0
8823,note_off,0,0,0,,,,,5,,,,,,,75,0
8824,note_on,1,0,0,,,,,0,,,,,,,76,80
8824,note_on,0,0,0,,,,,5,,,,,,,73,96
8829,note_off,5,0,0,,,,,6,,,,,,,59,0
8831,note_off,2,0,0,,,,,0,,,,,,,76,0
8831,note_off,0,0,0,,,,,5,,,,,,,73,0
8832,note_on,1,0,0,,,,,0,,,,,,,83,80
8832,note_on,0,0,0,,,,,5,,,,,,,75,96
8832,note_on,0,0,0,,,,,6,,,,,,,57,96
8839,note_off,7,0,0,,,,,5,,,,,,,75,0
8840,note_on,1,0,0,,,,,5,,,,,,,73,96
8847,note_off,7,0,0,,,,,5,,,,,,,73,0
8848,note_on,1,0,0,,,,,5,,,,,,,71,96
8853,note_off,5,0,0,,,,,0,,,,,,,83,0
8853,note_off,0,0,0,,,,,6,,,,,,,57,0
8855,note_off,2,0,0,,,,,5,,,,,,,71,0
8856,note_on,1,0,0,,,,,5,,,,,,,76,96
8856,note_on,0,0,0,,,,,6,,,,,,,56,96
8868,note_on,12,0,0,,,,,0,,,,,,,76,80
8877,note_off,9,0,0,,,,,5,,,,,,,76,0
8877,note_off,0,0,0,,,,,6,,,,,,,56,0
8878,note_off,1,0,0,,,,,0,,,,,,,76,0
8880,note_on,2,0,0,,,,,0,,,,,,,80,80
8880,note_on,0,0,0,,,,,5,,,,,,,71,96
8880,note_on,0,0,0,,,,,6,,,,,,,57,96
8890,note_off,10,0,0,,,,,0,,,,,,,80,0
8890,note_off,0,0,0,,,,,5,,,,,,,71,0
8892,note_on,2,0,0,,,,,0,,,,,,,78,80
8892,note_on,0,0,0,,,,,5,,,,,,,69,96
8901,note_off,9,0,0,,,,,6,,,,,,,57,0
8902,note_off,1,0,0,,,,,0,,,,,,,78,0
8902,note_off,0,0,0,,,,,5,,,,,,,69,0
8904,note_on,2,0,0,,,,,0,,,,,,,76,80
8904,note_on,0,0,0,,,,,5,,,,,,,68,96
8904,note_on,0,0,0,,,,,6,,,,,,,59,96
8914,note_off,10,0,0,,,,,0,,,,,,,76,0
8914,note_off,0,0,0,,,,,5,,,,,,,68,0
8916,note_on,2,0,0,,,,,0,,,,,,,75,80
8916,note_on,0,0,0,,,,,5,,,,,,,66,96
8925,note_off,9,0,0,,,,,6,,,,,,,59,0
8926,note_off,1,0,0,,,,,0,,,,,,,75,0
8926,note_off,0,0,0,,,,,5,,,,,,,66,0
8928,note_on,2,0,0,,,,,0,,,,,,,76,80
8928,note_on,0,0,0,,,,,5,,,,,,,64,96
8928,note_on,0,0,0,,,,,6,,,,,,,52,96
8949,note_off,21,0,0,,,,,0,,,,,,,76,0
8949,note_off,0,0,0,,,,,6,,,,,,,52,0
8952,note_on,3,0,0,,,,,0,,,,,,,71,96
8952,note_on,0,0,0,,,,,1,,,,,,,68,96
8952,note_on,0,0,0,,,,,2,,,,,,,64,96
8952,note_on,0,0,0,,,,,3,,,,,,,56,96
8952,note_on,0,0,0,,,,,4,,,,,,,44,96
8952,note_on,0,0,0,,,,,6,,,,,,,56,96
8962,note_off,10,0,0,,,,,1,,,,,,,68,0
8962,note_off,0,0,0,,,,,3,,,,,,,56,0
8962,note_off,0,0,0,,,,,4,,,,,,,44,0
8962,note_off,0,0,0,,,,,6,,,,,,,56,0
8964,note_on,2,0,0,,,,,1,,,,,,,69,96
8964,note_on,0,0,0,,,,,3,,,,,,,54,96
8964,note_on,0,0,0,,,,,4,,,,,,,42,96
8964,note_on,0,0,0,,,,,6,,,,,,,54,96
8970,note_off,6,0,0,,,,,5,,,,,,,64,0
8973,note_off,3,0,0,,,,,0,,,,,,,71,0
8973,note_off,0,0,0,,,,,2,,,,,,,64,0
8974,note_off,1,0,0,,,,,1,,,,,,,69,0
8974,note_off,0,0,0,,,,,3,,,,,,,54,0
8974,note_off,0,0,0,,,,,4,,,,,,,42,0
8974,note_off,0,0,0,,,,,6,,,,,,,54,0
8976,note_on,2,0,0,,,,,0,,,,,,,71,96
8976,note_on,0,0,0,,,,,1,,,,,,,71,96
8976,note_on,0,0,0,,,,,2,,,,,,,68,96
8976,note_on,0,0,0,,,,,3,,,,,,,52,96
8976,note_on,0,0,0,,,,,4,,,,,,,40,96
8976,note_on,0,0,0,,,,,6,,,,,,,52,96
8986,note_off,10,0,0,,,,,1,,,,,,,71,0
8986,note_off,0,0,0,,,,,3,,,,,,,52,0
8986,note_off,0,0,0,,,,,4,,,,,,,40,0
8986,note_off,0,0,0,,,,,6,,,,,,,52,0
8988,note_on,2,0,0,,,,,1,,,,,,,68,96
8988,note_on,0,0,0,,,,,3,,,,,,,51,96
8988,note_on,0,0,0,,,,,4,,,,,,,39,96
8988,note_on,0,0,0,,,,,6,,,,,,,51,96
8997,note_off,9,0,0,,,,,0,,,,,,,71,0
8997,note_off,0,0,0,,,,,2,,,,,,,68,0
8998,note_off,1,0,0,,,,,1,,,,,,,68,0
8998,note_off,0,0,0,,,,,3,,,,,,,51,0
8998,note_off,0,0,0,,,,,4,,,,,,,39,0
8998,note_off,0,0,0,,,,,6,,,,,,,51,0
9000,note_on,2,0,0,,,,,0,,,,,,,71,96
9000,note_on,0,0,0,,,,,1,,,,,,,64,96
9000,note_on,0,0,0,,,,,2,,,,,,,68,96
9000,note_on,0,0,0,,,,,3,,,,,,,49,96
9000,note_on,0,0,0,,,,,4,,,,,,,37,96
9000,note_on,0,0,0,,,,,6,,,,,,,49,96
9008,note_on,8,0,0,,,,,5,,,,,,,80,96
9015,note_off,7,0,0,,,,,5,,,,,,,80,0
9016,note_on,1,0,0,,,,,5,,,,,,,78,96
9021,note_off,5,0,0,,,,,0,,,,,,,71,0
9021,note_off,0,0,0,,,,,1,,,,,,,64,0
9021,note_off,0,0,0,,,,,2,,,,,,,68,0
9021,note_off,0,0,0,,,,,3,,,,,,,49,0
9021,note_off,0,0,0,,,,,4,,,,,,,37,0
9021,note_off,0,0,0,,,,,6,,,,,,,49,0
9023,note_off,2,0,0,,,,,5,,,,,,,78,0
9024,note_on,1,0,0,,,,,0,,,,,,,73,96
9024,note_on,0,0,0,,,,,1,,,,,,,68,96
9024,note_on,0,0,0,,,,,2,,,,,,,64,96
9024,note_on,0,0,0,,,,,3,,,,,,,61,96
9024,note_on,0,0,0,,,,,4,,,,,,,49,96
9024,note_on,0,0,0,,,,,5,,,,,,,76,96
9024,note_on,0,0,0,,,,,6,,,,,,,61,96
9031,note_off,7,0,0,,,,,5,,,,,,,76,0
9031,note_off,0,0,0,,,,,6,,,,,,,61,0
9032,note_on,1,0,0,,,,,5,,,,,,,75,96
9032,note_on,0,0,0,,,,,6,,,,,,,59,96
9034,note_off,2,0,0,,,,,0,,,,,,,73,0
9036,note_on,2,0,0,,,,,0,,,,,,,75,96
9039,note_off,3,0,0,,,,,5,,,,,,,75,0
9039,note_off,0,0,0,,,,,6,,,,,,,59,0
9040,note_on,1,0,0,,,,,5,,,,,,,73,96
9040,note_on,0,0,0,,,,,6,,,,,,,57,96
9045,note_off,5,0,0,,,,,1,,,,,,,68,0
9045,note_off,0,0,0,,,,,2,,,,,,,64,0
9045,note_off,0,0,0,,,,,3,,,,,,,61,0
9045,note_off,0,0,0,,,,,4,,,,,,,49,0
9046,note_off,1,0,0,,,,,0,,,,,,,75,0
9047,note_off,1,0,0,,,,,5,,,,,,,73,0
9047,note_off,0,0,0,,,,,6,,,,,,,57,0
9048,note_on,1,0,0,,,,,0,,,,,,,76,96
9048,note_on,0,0,0,,,,,5,,,,,,,71,96
9048,note_on,0,0,0,,,,,6,,,,,,,56,96
9055,note_off,7,0,0,,,,,5,,,,,,,71,0
9055,note_off,0,0,0,,,,,6,,,,,,,56,0
9056,note_on,1,0,0,,,,,5,,,,,,,69,96
9056,note_on,0,0,0,,,,,6,,,,,,,54,96
9058,note_off,2,0,0,,,,,0,,,,,,,76,0
9060,note_on,2,0,0,,,,,0,,,,,,,73,96
9063,note_off,3,0,0,,,,,5,,,,,,,69,0
9063,note_off,0,0,0,,,,,6,,,,,,,54,0
9064,note_on,1,0,0,,,,,5,,,,,,,68,96
9064,note_on,0,0,0,,,,,6,,,,,,,53,96
9070,note_off,6,0,0,,,,,0,,,,,,,73,0
9071,note_off,1,0,0,,,,,5,,,,,,,68,0
9071,note_off,0,0,0,,,,,6,,,,,,,53,0
9072,note_on,1,0,0,,,,,0,,,,,,,69,96
9072,note_on,0,0,0,,,,,5,,,,,,,69,96
9072,note_on,0,0,0,,,,,6,,,,,,,66,96
9072,note_on,0,0,0,,,,,6,,,,,,,54,96
9082,note_off,10,0,0,,,,,0,,,,,,,69,0
9082,note_off,0,0,0,,,,,6,,,,,,,54,0
9084,note_on,2,0,0,,,,,0,,,,,,,66,96
9084,note_on,0,0,0,,,,,6,,,,,,,42,96
9093,note_off,9,0,0,,,,,5,,,,,,,69,0
9093,note_off,0,0,0,,,,,6,,,,,,,66,0
9094,note_off,1,0,0,,,,,0,,,,,,,66,0
9094,note_off,0,0,0,,,,,6,,,,,,,42,0
9096,note_on,2,0,0,,,,,0,,,,,,,69,96
9096,note_on,0,0,0,,,,,1,,,,,,,66,96
9096,note_on,0,0,0,,,,,2,,,,,,,61,96
9096,note_on,0,0,0,,,,,3,,,,,,,54,96
9096,note_on,0,0,0,,,,,4,,,,,,,42,96
9096,note_on,0,0,0,,,,,6,,,,,,,54,96
9106,note_off,10,0,0,,,,,1,,,,,,,66,0
9106,note_off,0,0,0,,,,,3,,,,,,,54,0
9106,note_off,0,0,0,,,,,4,,,,,,,42,0
9106,note_off,0,0,0,,,,,6,,,,,,,54,0
9108,note_on,2,0,0,,,,,1,,,,,,,68,96
9108,note_on,0,0,0,,,,,3,,,,,,,52,96
9108,note_on,0,0,0,,,,,4,,,,,,,40,96
9108,note_on,0,0,0,,,,,6,,,,,,,52,96
9117,note_off,9,0,0,,,,,0,,,,,,,69,0
9117,note_off,0,0,0,,,,,2,,,,,,,61,0
9118,note_off,1,0,0,,,,,1,,,,,,,68,0
9118,note_off,0,0,0,,,,,3,,,,,,,52,0
9118,note_off,0,0,0,,,,,4,,,,,,,40,0
9118,note_off,0,0,0,,,,,6,,,,,,,52,0
9120,note_on,2,0,0,,,,,0,,,,,,,69,96
9120,note_on,0,0,0,,,,,1,,,,,,,69,96
9120,note_on,0,0,0,,,,,2,,,,,,,66,96
9120,note_on,0,0,0,,,,,3,,,,,,,51,96
9120,note_on,0,0,0,,,,,4,,,,,,,39,96
9120,note_on,0,0,0,,,,,6,,,,,,,50,96
9130,note_off,10,0,0,,,,,1,,,,,,,69,0
9130,note_off,0,0,0,,,,,3,,,,,,,51,0
9130,note_off,0,0,0,,,,,4,,,,,,,39,0
9130,note_off,0,0,0,,,,,6,,,,,,,50,0
9132,note_on,2,0,0,,,,,1,,,,,,,66,96
9132,note_on,0,0,0,,,,,3,,,,,,,49,96
9132,note_on,0,0,0,,,,,4,,,,,,,37,96
9132,note_on,0,0,0,,,,,6,,,,,,,49,96
9141,note_off,9,0,0,,,,,0,,,,,,,69,0
9141,note_off,0,0,0,,,,,2,,,,,,,66,0
9142,note_off,1,0,0,,,,,1,,,,,,,66,0
9142,note_off,0,0,0,,,,,3,,,,,,,49,0
9142,note_off,0,0,0,,,,,4,,,,,,,37,0
9142,note_off,0,0,0,,,,,6,,,,,,,49,0
9144,note_on,2,0,0,,,,,0,,,,,,,69,96
9144,note_on,0,0,0,,,,,1,,,,,,,63,96
9144,note_on,0,0,0,,,,,2,,,,,,,66,96
9144,note_on,0,0,0,,,,,3,,,,,,,47,96
9144,note_on,0,0,0,,,,,4,,,,,,,35,96
9144,note_on,0,0,0,,,,,6,,,,,,,47,96
9152,note_on,8,0,0,,,,,5,,,,,,,78,96
9159,note_off,7,0,0,,,,,5,,,,,,,78,0
9160,note_on,1,0,0,,,,,5,,,,,,,76,96
9165,note_off,5,0,0,,,,,0,,,,,,,69,0
9165,note_off,0,0,0,,,,,1,,,,,,,63,0
9165,note_off,0,0,0,,,,,2,,,,,,,66,0
9165,note_off,0,0,0,,,,,3,,,,,,,47,0
9165,note_off,0,0,0,,,,,4,,,,,,,35,0
9165,note_off,0,0,0,,,,,6,,,,,,,47,0
9167,note_off,2,0,0,,,,,5,,,,,,,76,0
9168,note_on,1,0,0,,,,,0,,,,,,,71,96
9168,note_on,0,0,0,,,,,1,,,,,,,66,96
9168,note_on,0,0,0,,,,,2,,,,,,,63,96
9168,note_on,0,0,0,,,,,3,,,,,,,59,96
9168,note_on,0,0,0,,,,,4,,,,,,,47,96
9168,note_on,0,0,0,,,,,5,,,,,,,75,96
9168,note_on,0,0,0,,,,,6,,,,,,,59,96
9175,note_off,7,0,0,,,,,5,,,,,,,75,0
9175,note_off,0,0,0,,,,,6,,,,,,,59,0
9176,note_on,1,0,0,,,,,5,,,,,,,73,96
9176,note_on,0,0,0,,,,,6,,,,,,,57,96
9178,note_off,2,0,0,,,,,0,,,,,,,71,0
9180,note_on,2,0,0,,,,,0,,,,,,,73,96
9183,note_off,3,0,0,,,,,5,,,,,,,73,0
9183,note_off,0,0,0,,,,,6,,,,,,,57,0
9184,note_on,1,0,0,,,,,5,,,,,,,71,96
9184,note_on,0,0,0,,,,,6,,,,,,,56,96
9189,note_off,5,0,0,,,,,1,,,,,,,66,0
9189,note_off,0,0,0,,,,,2,,,,,,,63,0
9189,note_off,0,0,0,,,,,3,,,,,,,59,0
9189,note_off,0,0,0,,,,,4,,,,,,,47,0
9190,note_off,1,0,0,,,,,0,,,,,,,73,0
9191,note_off,1,0,0,,,,,5,,,,,,,71,0
9191,note_off,0,0,0,,,,,6,,,,,,,56,0
9192,note_on,1,0,0,,,,,0,,,,,,,75,96
9192,note_on,0,0,0,,,,,5,,,,,,,69,96
9192,note_on,0,0,0,,,,,6,,,,,,,54,96
9199,note_off,7,0,0,,,,,5,,,,,,,69,0
9199,note_off,0,0,0,,,,,6,,,,,,,54,0
9200,note_on,1,0,0,,,,,5,,,,,,,68,96
9200,note_on,0,0,0,,,,,6,,,,,,,52,96
9202,note_off,2,0,0,,,,,0,,,,,,,75,0
9204,note_on,2,0,0,,,,,0,,,,,,,71,96
9207,note_off,3,0,0,,,,,5,,,,,,,68,0
9207,note_off,0,0,0,,,,,6,,,,,,,52,0
9208,note_on,1,0,0,,,,,5,,,,,,,66,96
9208,note_on,0,0,0,,,,,6,,,,,,,51,96
9214,note_off,6,0,0,,,,,0,,,,,,,71,0
9215,note_off,1,0,0,,,,,5,,,,,,,66,0
9215,note_off,0,0,0,,,,,6,,,,,,,51,0
9216,note_on,1,0,0,,,,,0,,,,,,,68,96
9216,note_on,0,0,0,,,,,5,,,,,,,68,96
9216,note_on,0,0,0,,,,,6,,,,,,,64,96
9216,note_on,0,0,0,,,,,6,,,,,,,52,96
9226,note_off,10,0,0,,,,,6,,,,,,,52,0
9228,note_on,2,0,0,,,,,6,,,,,,,40,96
9237,note_off,9,0,0,,,,,0,,,,,,,68,0
9237,note_off,0,0,0,,,,,5,,,,,,,68,0
9237,note_off,0,0,0,,,,,6,,,,,,,64,0
9238,note_off,1,0,0,,,,,6,,,,,,,40,0
9240,note_on,2,0,0,,,,,0,,,,,,,83,96
9240,note_on,0,0,0,,,,,1,,,,,,,64,96
9240,note_on,0,0,0,,,,,2,,,,,,,68,96
9240,note_on,0,0,0,,,,,3,,,,,,,52,96
9240,note_on,0,0,0,,,,,4,,,,,,,40,96
9240,note_on,0,0,0,,,,,5,,,,,,,83,96
9240,note_on,0,0,0,,,,,6,,,,,,,52,96
9250,note_off,10,0,0,,,,,1,,,,,,,64,0
9250,note_off,0,0,0,,,,,3,,,,,,,52,0
9250,note_off,0,0,0,,,,,4,,,,,,,40,0
9250,note_off,0,0,0,,,,,6,,,,,,,52,0
9252,note_on,2,0,0,,,,,1,,,,,,,66,96
9252,note_on,0,0,0,,,,,3,,,,,,,51,96
9252,note_on,0,0,0,,,,,4,,,,,,,39,96
9252,note_on,0,0,0,,,,,6,,,,,,,51,96
9261,note_off,9,0,0,,,,,0,,,,,,,83,0
9261,note_off,0,0,0,,,,,2,,,,,,,68,0
9261,note_off,0,0,0,,,,,5,,,,,,,83,0
9262,note_off,1,0,0,,,,,1,,,,,,,66,0
9262,note_off,0,0,0,,,,,3,,,,,,,51,0
9262,note_off,0,0,0,,,,,4,,,,,,,39,0
9262,note_off,0,0,0,,,,,6,,,,,,,51,0
9264,note_on,2,0,0,,,,,0,,,,,,,80,96
9264,note_on,0,0,0,,,,,1,,,,,,,68,96
9264,note_on,0,0,0,,,,,2,,,,,,,71,96
9264,note_on,0,0,0,,,,,3,,,,,,,52,96
9264,note_on,0,0,0,,,,,4,,,,,,,40,96
9264,note_on,0,0,0,,,,,5,,,,,,,80,96
9264,note_on,0,0,0,,,,,6,,,,,,,52,96
9274,note_off,10,0,0,,,,,1,,,,,,,68,0
9274,note_off,0,0,0,,,,,3,,,,,,,52,0
9274,note_off,0,0,0,,,,,4,,,,,,,40,0
9274,note_off,0,0,0,,,,,6,,,,,,,52,0
9276,note_on,2,0,0,,,,,1,,,,,,,69,96
9276,note_on,0,0,0,,,,,3,,,,,,,54,96
9276,note_on,0,0,0,,,,,4,,,,,,,42,96
9276,note_on,0,0,0,,,,,6,,,,,,,54,96
9285,note_off,9,0,0,,,,,0,,,,,,,80,0
9285,note_off,0,0,0,,,,,2,,,,,,,71,0
9285,note_off,0,0,0,,,,,5,,,,,,,80,0
9286,note_off,1,0,0,,,,,1,,,,,,,69,0
9286,note_off,0,0,0,,,,,3,,,,,,,54,0
9286,note_off,0,0,0,,,,,4,,,,,,,42,0
9286,note_off,0,0,0,,,,,6,,,,,,,54,0
9288,note_on,2,0,0,,,,,0,,,,,,,76,96
9288,note_on,0,0,0,,,,,1,,,,,,,71,96
9288,note_on,0,0,0,,,,,2,,,,,,,59,96
9288,note_on,0,0,0,,,,,3,,,,,,,56,96
9288,note_on,0,0,0,,,,,4,,,,,,,44,96
9288,note_on,0,0,0,,,,,5,,,,,,,76,96
9288,note_on,0,0,0,,,,,6,,,,,,,56,96
9298,note_off,10,0,0,,,,,1,,,,,,,71,0
9300,note_on,2,0,0,,,,,1,,,,,,,73,96
9309,note_off,9,0,0,,,,,0,,,,,,,76,0
9309,note_off,0,0,0,,,,,2,,,,,,,59,0
9309,note_off,0,0,0,,,,,3,,,,,,,56,0
9309,note_off,0,0,0,,,,,4,,,,,,,44,0
9309,note_off,0,0,0,,,,,5,,,,,,,76,0
9309,note_off,0,0,0,,,,,6,,,,,,,56,0
9310,note_off,1,0,0,,,,,1,,,,,,,73,0
9312,note_on,2,0,0,,,,,0,,,,,,,80,96
9312,note_on,0,0,0,,,,,1,,,,,,,71,96
9312,note_on,0,0,0,,,,,2,,,,,,,64,96
9312,note_on,0,0,0,,,,,3,,,,,,,52,96
9312,note_on,0,0,0,,,,,4,,,,,,,40,96
9312,note_on,0,0,0,,,,,5,,,,,,,80,96
9312,note_on,0,0,0,,,,,6,,,,,,,52,96
9322,note_off,10,0,0,,,,,0,,,,,,,80,0
9322,note_off,0,0,0,,,,,1,,,,,,,71,0
9322,note_off,0,0,0,,,,,5,,,,,,,80,0
9324,note_on,2,0,0,,,,,0,,,,,,,78,96
9324,note_on,0,0,0,,,,,1,,,,,,,69,96
9324,note_on,0,0,0,,,,,5,,,,,,,78,96
9333,note_off,9,0,0,,,,,2,,,,,,,64,0
9333,note_off,0,0,0,,,,,3,,,,,,,52,0
9333,note_off,0,0,0,,,,,4,,,,,,,40,0
9333,note_off,0,0,0,,,,,6,,,,,,,52,0
9334,note_off,1,0,0,,,,,0,,,,,,,78,0
9334,note_off,0,0,0,,,,,1,,,,,,,69,0
9334,note_off,0,0,0,,,,,5,,,,,,,78,0
9336,note_on,2,0,0,,,,,0,,,,,,,76,96
9336,note_on,0,0,0,,,,,1,,,,,,,68,96
9336,note_on,0,0,0,,,,,2,,,,,,,59,96
9336,note_on,0,0,0,,,,,3,,,,,,,56,96
9336,note_on,0,0,0,,,,,4,,,,,,,44,96
9336,note_on,0,0,0,,,,,5,,,,,,,76,96
9336,note_on,0,0,0,,,,,6,,,,,,,56,96
9346,note_off,10,0,0,,,,,0,,,,,,,76,0
9346,note_off,0,0,0,,,,,1,,,,,,,68,0
9346,note_off,0,0,0,,,,,5,,,,,,,76,0
9348,note_on,2,0,0,,,,,0,,,,,,,74,96
9348,note_on,0,0,0,,,,,1,,,,,,,66,96
9348,note_on,0,0,0,,,,,5,,,,,,,74,96
9357,note_off,9,0,0,,,,,2,,,,,,,59,0
9357,note_off,0,0,0,,,,,3,,,,,,,56,0
9357,note_off,0,0,0,,,,,4,,,,,,,44,0
9357,note_off,0,0,0,,,,,6,,,,,,,56,0
9358,note_off,1,0,0,,,,,0,,,,,,,74,0
9358,note_off,0,0,0,,,,,1,,,,,,,66,0
9358,note_off,0,0,0,,,,,5,,,,,,,74,0
9360,note_on,2,0,0,,,,,0,,,,,,,73,96
9360,note_on,0,0,0,,,,,1,,,,,,,64,96
9360,note_on,0,0,0,,,,,2,,,,,,,61,96
9360,note_on,0,0,0,,,,,3,,,,,,,57,96
9360,note_on,0,0,0,,,,,4,,,,,,,45,96
9360,note_on,0,0,0,,,,,5,,,,,,,73,96
9360,note_on,0,0,0,,,,,6,,,,,,,57,96
9370,note_off,10,0,0,,,,,3,,,,,,,57,0
9370,note_off,0,0,0,,,,,4,,,,,,,45,0
9370,note_off,0,0,0,,,,,6,,,,,,,57,0
9372,note_on,2,0,0,,,,,3,,,,,,,56,96
9372,note_on,0,0,0,,,,,4,,,,,,,44,96
9372,note_on,0,0,0,,,,,6,,,,,,,56,96
9381,note_off,9,0,0,,,,,0,,,,,,,73,0
9381,note_off,0,0,0,,,,,1,,,,,,,64,0
9381,note_off,0,0,0,,,,,2,,,,,,,61,0
9381,note_off,0,0,0,,,,,5,,,,,,,73,0
9382,note_off,1,0,0,,,,,3,,,,,,,56,0
9382,note_off,0,0,0,,,,,4,,,,,,,44,0
9382,note_off,0,0,0,,,,,6,,,,,,,56,0
9384,note_on,2,0,0,,,,,0,,,,,,,85,96
9384,note_on,0,0,0,,,,,1,,,,,,,66,96
9384,note_on,0,0,0,,,,,2,,,,,,,69,96
9384,note_on,0,0,0,,,,,3,,,,,,,54,96
9384,note_on,0,0,0,,,,,4,,,,,,,42,96
9384,note_on,0,0,0,,,,,5,,,,,,,85,96
9384,note_on,0,0,0,,,,,6,,,,,,,54,96
9394,note_off,10,0,0,,,,,1,,,,,,,66,0
9394,note_off,0,0,0,,,,,3,,,,,,,54,0
9394,note_off,0,0,0,,,,,4,,,,,,,42,0
9394,note_off,0,0,0,,,,,6,,,,,,,54,0
9396,note_on,2,0,0,,,,,1,,,,,,,68,96
9396,note_on,0,0,0,,,,,3,,,,,,,53,96
9396,note_on,0,0,0,,,,,4,,,,,,,41,96
9396,note_on,0,0,0,,,,,6,,,,,,,53,96
9405,note_off,9,0,0,,,,,0,,,,,,,85,0
9405,note_off,0,0,0,,,,,2,,,,,,,69,0
9405,note_off,0,0,0,,,,,5,,,,,,,85,0
9406,note_off,1,0,0,,,,,1,,,,,,,68,0
9406,note_off,0,0,0,,,,,3,,,,,,,53,0
9406,note_off,0,0,0,,,,,4,,,,,,,41,0
9406,note_off,0,0,0,,,,,6,,,,,,,53,0
9408,note_on,2,0,0,,,,,0,,,,,,,81,96
9408,note_on,0,0,0,,,,,1,,,,,,,69,96
9408,note_on,0,0,0,,,,,2,,,,,,,73,96
9408,note_on,0,0,0,,,,,3,,,,,,,54,96
9408,note_on,0,0,0,,,,,4,,,,,,,42,96
9408,note_on,0,0,0,,,,,5,,,,,,,81,96
9408,note_on,0,0,0,,,,,6,,,,,,,54,96
9418,note_off,10,0,0,,,,,1,,,,,,,69,0
9418,note_off,0,0,0,,,,,3,,,,,,,54,0
9418,note_off,0,0,0,,,,,4,,,,,,,42,0
9418,note_off,0,0,0,,,,,6,,,,,,,54,0
9420,note_on,2,0,0,,,,,1,,,,,,,71,96
9420,note_on,0,0,0,,,,,3,,,,,,,56,96
9420,note_on,0,0,0,,,,,4,,,,,,,44,96
9420,note_on,0,0,0,,,,,6,,,,,,,56,96
9429,note_off,9,0,0,,,,,0,,,,,,,81,0
9429,note_off,0,0,0,,,,,2,,,,,,,73,0
9429,note_off,0,0,0,,,,,5,,,,,,,81,0
9430,note_off,1,0,0,,,,,1,,,,,,,71,0
9430,note_off,0,0,0,,,,,3,,,,,,,56,0
9430,note_off,0,0,0,,,,,4,,,,,,,44,0
9430,note_off,0,0,0,,,,,6,,,,,,,56,0
9432,note_on,2,0,0,,,,,0,,,,,,,78,96
9432,note_on,0,0,0,,,,,1,,,,,,,73,96
9432,note_on,0,0,0,,,,,2,,,,,,,61,96
9432,note_on,0,0,0,,,,,3,,,,,,,57,96
9432,note_on,0,0,0,,,,,4,,,,,,,45,96
9432,note_on,0,0,0,,,,,5,,,,,,,78,96
9432,note_on,0,0,0,,,,,6,,,,,,,57,96
9442,note_off,10,0,0,,,,,1,,,,,,,73,0
9444,note_on,2,0,0,,,,,1,,,,,,,74,96
9453,note_off,9,0,0,,,,,0,,,,,,,78,0
9453,note_off,0,0,0,,,,,2,,,,,,,61,0
9453,note_off,0,0,0,,,,,3,,,,,,,57,0
9453,note_off,0,0,0,,,,,4,,,,,,,45,0
9453,note_off,0,0,0,,,,,5,,,,,,,78,0
9453,note_off,0,0,0,,,,,6,,,,,,,57,0
9454,note_off,1,0,0,,,,,1,,,,,,,74,0
9456,note_on,2,0,0,,,,,0,,,,,,,81,96
9456,note_on,0,0,0,,,,,1,,,,,,,73,96
9456,note_on,0,0,0,,,,,2,,,,,,,66,96
9456,note_on,0,0,0,,,,,3,,,,,,,54,96
9456,note_on,0,0,0,,,,,4,,,,,,,42,96
9456,note_on,0,0,0,,,,,5,,,,,,,81,96
9456,note_on,0,0,0,,,,,6,,,,,,,54,96
9466,note_off,10,0,0,,,,,0,,,,,,,81,0
9466,note_off,0,0,0,,,,,1,,,,,,,73,0
9466,note_off,0,0,0,,,,,5,,,,,,,81,0
9468,note_on,2,0,0,,,,,0,,,,,,,80,96
9468,note_on,0,0,0,,,,,1,,,,,,,71,96
9468,note_on,0,0,0,,,,,5,,,,,,,80,96
9477,note_off,9,0,0,,,,,2,,,,,,,66,0
9477,note_off,0,0,0,,,,,3,,,,,,,54,0
9477,note_off,0,0,0,,,,,4,,,,,,,42,0
9477,note_off,0,0,0,,,,,6,,,,,,,54,0
9478,note_off,1,0,0,,,,,0,,,,,,,80,0
9478,note_off,0,0,0,,,,,1,,,,,,,71,0
9478,note_off,0,0,0,,,,,5,,,,,,,80,0
9480,note_on,2,0,0,,,,,0,,,,,,,78,96
9480,note_on,0,0,0,,,,,1,,,,,,,69,96
9480,note_on,0,0,0,,,,,2,,,,,,,61,96
9480,note_on,0,0,0,,,,,3,,,,,,,57,96
9480,note_on,0,0,0,,,,,4,,,,,,,45,96
9480,note_on,0,0,0,,,,,5,,,,,,,78,96
9480,note_on,0,0,0,,,,,6,,,,,,,57,96
9490,note_off,10,0,0,,,,,0,,,,,,,78,0
9490,note_off,0,0,0,,,,,1,,,,,,,69,0
9490,note_off,0,0,0,,,,,5,,,,,,,78,0
9492,note_on,2,0,0,,,,,0,,,,,,,76,96
9492,note_on,0,0,0,,,,,1,,,,,,,68,96
9492,note_on,0,0,0,,,,,5,,,,,,,76,96
9501,note_off,9,0,0,,,,,2,,,,,,,61,0
9501,note_off,0,0,0,,,,,3,,,,,,,57,0
9501,note_off,0,0,0,,,,,4,,,,,,,45,0
9501,note_off,0,0,0,,,,,6,,,,,,,57,0
9502,note_off,1,0,0,,,,,0,,,,,,,76,0
9502,note_off,0,0,0,,,,,1,,,,,,,68,0
9502,note_off,0,0,0,,,,,5,,,,,,,76,0
9504,note_on,2,0,0,,,,,0,,,,,,,75,96
9504,note_on,0,0,0,,,,,1,,,,,,,66,96
9504,note_on,0,0,0,,,,,2,,,,,,,63,96
9504,note_on,0,0,0,,,,,3,,,,,,,59,96
9504,note_on,0,0,0,,,,,4,,,,,,,47,96
9504,note_on,0,0,0,,,,,5,,,,,,,75,96
9504,note_on,0,0,0,,,,,6,,,,,,,59,96
9514,note_off,10,0,0,,,,,0,,,,,,,75,0
9514,note_off,0,0,0,,,,,1,,,,,,,66,0
9514,note_off,0,0,0,,,,,5,,,,,,,75,0
9516,note_on,2,0,0,,,,,0,,,,,,,73,96
9516,note_on,0,0,0,,,,,1,,,,,,,64,96
9516,note_on,0,0,0,,,,,5,,,,,,,73,96
9525,note_off,9,0,0,,,,,2,,,,,,,63,0
9525,note_off,0,0,0,,,,,3,,,,,,,59,0
9525,note_off,0,0,0,,,,,4,,,,,,,47,0
9525,note_off,0,0,0,,,,,6,,,,,,,59,0
9526,note_off,1,0,0,,,,,0,,,,,,,73,0
9526,note_off,0,0,0,,,,,1,,,,,,,64,0
9526,note_off,0,0,0,,,,,5,,,,,,,73,0
9528,note_on,2,0,0,,,,,0,,,,,,,71,96
9528,note_on,0,0,0,,,,,1,,,,,,,63,96
9528,note_on,0,0,0,,,,,2,,,,,,,66,96
9528,note_on,0,0,0,,,,,3,,,,,,,57,96
9528,note_on,0,0,0,,,,,4,,,,,,,45,96
9528,note_on,0,0,0,,,,,5,,,,,,,71,96
9528,note_on,0,0,0,,,,,6,,,,,,,57,96
9538,note_off,10,0,0,,,,,0,,,,,,,71,0
9538,note_off,0,0,0,,,,,1,,,,,,,63,0
9538,note_off,0,0,0,,,,,2,,,,,,,66,0
9538,note_off,0,0,0,,,,,3,,,,,,,57,0
9538,note_off,0,0,0,,,,,4,,,,,,,45,0
9538,note_off,0,0,0,,,,,5,,,,,,,71,0
9538,note_off,0,0,0,,,,,6,,,,,,,57,0
9540,note_on,2,0,0,,,,,0,,,,,,,73,96
9540,note_on,0,0,0,,,,,1,,,,,,,64,96
9540,note_on,0,0,0,,,,,2,,,,,,,64,96
9540,note_on,0,0,0,,,,,3,,,,,,,56,96
9540,note_on,0,0,0,,,,,4,,,,,,,44,96
9540,note_on,0,0,0,,,,,5,,,,,,,73,96
9540,note_on,0,0,0,,,,,6,,,,,,,56,96
9550,note_off,10,0,0,,,,,0,,,,,,,73,0
9550,note_off,0,0,0,,,,,1,,,,,,,64,0
9550,note_off,0,0,0,,,,,2,,,,,,,64,0
9550,note_off,0,0,0,,,,,3,,,,,,,56,0
9550,note_off,0,0,0,,,,,4,,,,,,,44,0
9550,note_off,0,0,0,,,,,5,,,,,,,73,0
9550,note_off,0,0,0,,,,,6,,,,,,,56,0
9552,note_on,2,0,0,,,,,0,,,,,,,75,96
9552,note_on,0,0,0,,,,,1,,,,,,,66,96
9552,note_on,0,0,0,,,,,2,,,,,,,63,96
9552,note_on,0,0,0,,,,,3,,,,,,,54,96
9552,note_on,0,0,0,,,,,4,,,,,,,42,96
9552,note_on,0,0,0,,,,,5,,,,,,,75,96
9552,note_on,0,0,0,,,,,6,,,,,,,54,96
9562,note_off,10,0,0,,,,,0,,,,,,,75,0
9562,note_off,0,0,0,,,,,1,,,,,,,66,0
9562,note_off,0,0,0,,,,,2,,,,,,,63,0
9562,note_off,0,0,0,,,,,3,,,,,,,54,0
9562,note_off,0,0,0,,,,,4,,,,,,,42,0
9562,note_off,0,0,0,,,,,5,,,,,,,75,0
9562,note_off,0,0,0,,,,,6,,,,,,,54,0
9564,note_on,2,0,0,,,,,0,,,,,,,76,96
9564,note_on,0,0,0,,,,,1,,,,,,,68,96
9564,note_on,0,0,0,,,,,2,,,,,,,61,96
9564,note_on,0,0,0,,,,,3,,,,,,,52,96
9564,note_on,0,0,0,,,,,4,,,,,,,40,96
9564,note_on,0,0,0,,,,,5,,,,,,,76,96
9564,note_on,0,0,0,,,,,6,,,,,,,52,96
9574,note_off,10,0,0,,,,,0,,,,,,,76,0
9574,note_off,0,0,0,,,,,1,,,,,,,68,0
9574,note_off,0,0,0,,,,,2,,,,,,,61,0
9574,note_off,0,0,0,,,,,3,,,,,,,52,0
9574,note_off,0,0,0,,,,,4,,,,,,,40,0
9574,note_off,0,0,0,,,,,5,,,,,,,76,0
9574,note_off,0,0,0,,,,,6,,,,,,,52,0
9576,note_on,2,0,0,,,,,0,,,,,,,78,96
9576,note_on,0,0,0,,,,,1,,,,,,,69,96
9576,note_on,0,0,0,,,,,2,,,,,,,59,96
9576,note_on,0,0,0,,,,,3,,,,,,,51,96
9576,note_on,0,0,0,,,,,4,,,,,,,39,96
9576,note_on,0,0,0,,,,,5,,,,,,,78,96
9576,note_on,0,0,0,,,,,6,,,,,,,51,96
9586,note_off,10,0,0,,,,,0,,,,,,,78,0
9586,note_off,0,0,0,,,,,1,,,,,,,69,0
9586,note_off,0,0,0,,,,,3,,,,,,,51,0
9586,note_off,0,0,0,,,,,4,,,,,,,39,0
9586,note_off,0,0,0,,,,,5,,,,,,,78,0
9586,note_off,0,0,0,,,,,6,,,,,,,51,0
9588,note_on,2,0,0,,,,,0,,,,,,,76,96
9588,note_on,0,0,0,,,,,1,,,,,,,68,96
9588,note_on,0,0,0,,,,,3,,,,,,,52,96
9588,note_on,0,0,0,,,,,4,,,,,,,40,96
9588,note_on,0,0,0,,,,,5,,,,,,,76,96
9588,note_on,0,0,0,,,,,6,,,,,,,52,96
9597,note_off,9,0,0,,,,,2,,,,,,,59,0
9598,note_off,1,0,0,,,,,0,,,,,,,76,0
9598,note_off,0,0,0,,,,,1,,,,,,,68,0
9598,note_off,0,0,0,,,,,3,,,,,,,52,0
9598,note_off,0,0,0,,,,,4,,,,,,,40,0
9598,note_off,0,0,0,,,,,5,,,,,,,76,0
9598,note_off,0,0,0,,,,,6,,,,,,,52,0
9600,note_on,2,0,0,,,,,0,,,,,,,75,96
9600,note_on,0,0,0,,,,,1,,,,,,,66,96
9600,note_on,0,0,0,,,,,2,,,,,,,69,96
9600,note_on,0,0,0,,,,,3,,,,,,,54,96
9600,note_on,0,0,0,,,,,4,,,,,,,42,96
9600,note_on,0,0,0,,,,,5,,,,,,,75,96
9600,note_on,0,0,0,,,,,6,,,,,,,54,96
9610,note_off,10,0,0,,,,,0,,,,,,,75,0
9610,note_off,0,0,0,,,,,1,,,,,,,66,0
9610,note_off,0,0,0,,,,,2,,,,,,,69,0
9610,note_off,0,0,0,,,,,3,,,,,,,54,0
9610,note_off,0,0,0,,,,,4,,,,,,,42,0
9610,note_off,0,0,0,,,,,5,,,,,,,75,0
9610,note_off,0,0,0,,,,,6,,,,,,,54,0
9612,note_on,2,0,0,,,,,0,,,,,,,76,96
9612,note_on,0,0,0,,,,,1,,,,,,,68,96
9612,note_on,0,0,0,,,,,2,,,,,,,68,96
9612,note_on,0,0,0,,,,,3,,,,,,,52,96
9612,note_on,0,0,0,,,,,4,,,,,,,40,96
9612,note_on,0,0,0,,,,,5,,,,,,,76,96
9612,note_on,0,0,0,,,,,6,,,,,,,52,96
9622,note_off,10,0,0,,,,,0,,,,,,,76,0
9622,note_off,0,0,0,,,,,1,,,,,,,68,0
9622,note_off,0,0,0,,,,,2,,,,,,,68,0
9622,note_off,0,0,0,,,,,3,,,,,,,52,0
9622,note_off,0,0,0,,,,,4,,,,,,,40,0
9622,note_off,0,0,0,,,,,5,,,,,,,76,0
9622,note_off,0,0,0,,,,,6,,,,,,,52,0
9624,note_on,2,0,0,,,,,0,,,,,,,78,96
9624,note_on,0,0,0,,,,,1,,,,,,,69,96
9624,note_on,0,0,0,,,,,2,,,,,,,66,96
9624,note_on,0,0,0,,,,,3,,,,,,,51,96
9624,note_on,0,0,0,,,,,4,,,,,,,39,96
9624,note_on,0,0,0,,,,,5,,,,,,,78,96
9624,note_on,0,0,0,,,,,6,,,,,,,51,96
9634,note_off,10,0,0,,,,,0,,,,,,,78,0
9634,note_off,0,0,0,,,,,1,,,,,,,69,0
9634,note_off,0,0,0,,,,,2,,,,,,,66,0
9634,note_off,0,0,0,,,,,3,,,,,,,51,0
9634,note_off,0,0,0,,,,,4,,,,,,,39,0
9634,note_off,0,0,0,,,,,5,,,,,,,78,0
9634,note_off,0,0,0,,,,,6,,,,,,,51,0
9636,note_on,2,0,0,,,,,0,,,,,,,80,96
9636,note_on,0,0,0,,,,,1,,,,,,,71,96
9636,note_on,0,0,0,,,,,2,,,,,,,64,96
9636,note_on,0,0,0,,,,,3,,,,,,,49,96
9636,note_on,0,0,0,,,,,4,,,,,,,37,96
9636,note_on,0,0,0,,,,,5,,,,,,,80,96
9636,note_on,0,0,0,,,,,6,,,,,,,49,96
9646,note_off,10,0,0,,,,,0,,,,,,,80,0
9646,note_off,0,0,0,,,,,1,,,,,,,71,0
9646,note_off,0,0,0,,,,,2,,,,,,,64,0
9646,note_off,0,0,0,,,,,3,,,,,,,49,0
9646,note_off,0,0,0,,,,,4,,,,,,,37,0
9646,note_off,0,0,0,,,,,5,,,,,,,80,0
9646,note_off,0,0,0,,,,,6,,,,,,,49,0
9648,note_on,2,0,0,,,,,0,,,,,,,81,96
9648,note_on,0,0,0,,,,,1,,,,,,,73,96
9648,note_on,0,0,0,,,,,2,,,,,,,63,96
9648,note_on,0,0,0,,,,,3,,,,,,,47,96
9648,note_on,0,0,0,,,,,4,,,,,,,35,96
9648,note_on,0,0,0,,,,,5,,,,,,,81,96
9648,note_on,0,0,0,,,,,6,,,,,,,47,96
9655,note_off,7,0,0,,,,,5,,,,,,,81,0
9656,note_off,1,0,0,,,,,0,,,,,,,81,0
9656,note_on,0,0,0,,,,,0,,,,,,,80,96
9656,note_on,0,0,0,,,,,5,,,,,,,80,96
9658,note_off,2,0,0,,,,,1,,,,,,,73,0
9660,note_on,2,0,0,,,,,1,,,,,,,75,96
9663,note_off,3,0,0,,,,,5,,,,,,,80,0
9664,note_off,1,0,0,,,,,0,,,,,,,80,0
9664,note_on,0,0,0,,,,,0,,,,,,,78,96
9664,note_on,0,0,0,,,,,5,,,,,,,78,96
9669,note_off,5,0,0,,,,,2,,,,,,,63,0
9670,note_off,1,0,0,,,,,1,,,,,,,75,0
9671,note_off,1,0,0,,,,,0,,,,,,,78,0
9671,note_off,0,0,0,,,,,5,,,,,,,78,0
9672,note_on,1,0,0,,,,,0,,,,,,,80,96
9672,note_on,0,0,0,,,,,1,,,,,,,76,96
9672,note_on,0,0,0,,,,,2,,,,,,,59,96
9672,note_on,0,0,0,,,,,5,,,,,,,80,96
9679,note_off,7,0,0,,,,,5,,,,,,,80,0
9680,note_off,1,0,0,,,,,0,,,,,,,80,0
9680,note_on,0,0,0,,,,,0,,,,,,,78,96
9680,note_on,0,0,0,,,,,5,,,,,,,78,96
9682,note_off,2,0,0,,,,,1,,,,,,,76,0
9684,note_on,2,0,0,,,,,1,,,,,,,73,96
9687,note_off,3,0,0,,,,,5,,,,,,,78,0
9688,note_off,1,0,0,,,,,0,,,,,,,78,0
9688,note_on,0,0,0,,,,,0,,,,,,,76,96
9688,note_on,0,0,0,,,,,5,,,,,,,76,96
9690,note_off,2,0,0,,,,,3,,,,,,,47,0
9690,note_off,0,0,0,,,,,4,,,,,,,35,0
9690,note_off,0,0,0,,,,,6,,,,,,,47,0
9693,note_off,3,0,0,,,,,2,,,,,,,59,0
9694,note_off,1,0,0,,,,,1,,,,,,,73,0
9695,note_off,1,0,0,,,,,0,,,,,,,76,0
9695,note_off,0,0,0,,,,,5,,,,,,,76,0
9696,note_on,1,0,0,,,,,0,,,,,,,83,96
9696,note_on,0,0,0,,,,,1,,,,,,,75,96
9696,note_on,0,0,0,,,,,2,,,,,,,66,96
9696,note_on,0,0,0,,,,,3,,,,,,,45,96
9696,note_on,0,0,0,,,,,4,,,,,,,33,96
9696,note_on,0,0,0,,,,,5,,,,,,,83,96
9696,note_on,0,0,0,,,,,6,,,,,,,45,96
9717,note_off,21,0,0,,,,,0,,,,,,,83,0
9717,note_off,0,0,0,,,,,1,,,,,,,75,0
9717,note_off,0,0,0,,,,,2,,,,,,,66,0
9717,note_off,0,0,0,,,,,3,,,,,,,45,0
9717,note_off,0,0,0,,,,,4,,,,,,,33,0
9717,note_off,0,0,0,,,,,5,,,,,,,83,0
9717,note_off,0,0,0,,,,,6,,,,,,,45,0
9720,note_on,3,0,0,,,,,3,,,,,,,44,96
9720,note_on,0,0,0,,,,,4,,,,,,,32,96
9720,note_on,0,0,0,,,,,6,,,,,,,44,96
9732,note_on,12,0,0,,,,,0,,,,,,,76,96
9732,note_on,0,0,0,,,,,1,,,,,,,71,96
9732,note_on,0,0,0,,,,,2,,,,,,,64,96
9732,note_on,0,0,0,,,,,5,,,,,,,76,96
9741,note_off,9,0,0,,,,,3,,,,,,,44,0
9741,note_off,0,0,0,,,,,4,,,,,,,32,0
9741,note_off,0,0,0,,,,,6,,,,,,,44,0
9742,note_off,1,0,0,,,,,0,,,,,,,76,0
9742,note_off,0,0,0,,,,,1,,,,,,,71,0
9742,note_off,0,0,0,,,,,2,,,,,,,64,0
9742,note_off,0,0,0,,,,,5,,,,,,,76,0
9744,note_on,2,0,0,,,,,0,,,,,,,78,96
9744,note_on,0,0,0,,,,,1,,,,,,,73,96
9744,note_on,0,0,0,,,,,2,,,,,,,69,96
9744,note_on,0,0,0,,,,,3,,,,,,,45,96
9744,note_on,0,0,0,,,,,4,,,,,,,33,96
9744,note_on,0,0,0,,,,,5,,,,,,,78,96
9744,note_on,0,0,0,,,,,6,,,,,,,45,96
9765,note_off,21,0,0,,,,,0,,,,,,,78,0
9765,note_off,0,0,0,,,,,1,,,,,,,73,0
9765,note_off,0,0,0,,,,,2,,,,,,,69,0
9765,note_off,0,0,0,,,,,3,,,,,,,45,0
9765,note_off,0,0,0,,,,,4,,,,,,,33,0
9765,note_off,0,0,0,,,,,5,,,,,,,78,0
9765,note_off,0,0,0,,,,,6,,,,,,,45,0
9768,note_on,3,0,0,,,,,0,,,,,,,75,96
9768,note_on,0,0,0,,,,,1,,,,,,,71,96
9768,note_on,0,0,0,,,,,2,,,,,,,66,96
9768,note_on,0,0,0,,,,,3,,,,,,,47,96
9768,note_on,0,0,0,,,,,4,,,,,,,35,96
9768,note_on,0,0,0,,,,,5,,,,,,,75,96
9768,note_on,0,0,0,,,,,6,,,,,,,47,96
9789,note_off,21,0,0,,,,,0,,,,,,,75,0
9789,note_off,0,0,0,,,,,1,,,,,,,71,0
9789,note_off,0,0,0,,,,,2,,,,,,,66,0
9789,note_off,0,0,0,,,,,3,,,,,,,47,0
9789,note_off,0,0,0,,,,,4,,,,,,,35,0
9789,note_off,0,0,0,,,,,5,,,,,,,75,0
9789,note_off,0,0,0,,,,,6,,,,,,,47,0
9792,note_on,3,0,0,,,,,0,,,,,,,76,96
9792,note_on,0,0,0,,,,,1,,,,,,,71,96
9792,note_on,0,0,0,,,,,2,,,,,,,68,96
9792,note_on,0,0,0,,,,,3,,,,,,,40,96
9792,note_on,0,0,0,,,,,4,,,,,,,28,96
9792,note_on,0,0,0,,,,,5,,,,,,,76,96
9792,note_on,0,0,0,,,,,6,,,,,,,40,96
9813,note_off,21,0,0,,,,,5,,,,,,,76,0
9816,note_on,3,0,0,,,,,5,,,,,,,68,96
9834,note_off,18,0,0,,,,,0,,,,,,,76,0
9834,note_off,0,0,0,,,,,1,,,,,,,71,0
9834,note_off,0,0,0,,,,,2,,,,,,,68,0
9834,note_off,0,0,0,,,,,3,,,,,,,40,0
9834,note_off,0,0,0,,,,,4,,,,,,,28,0
9834,note_off,0,0,0,,,,,6,,,,,,,40,0
9837,note_off,3,0,0,,,,,5,,,,,,,68,0
9840,note_on,3,0,0,,,,,5,,,,,,,70,96
9861,note_off,21,0,0,,,,,5,,,,,,,70,0
9864,note_on,3,0,0,,,,,5,,,,,,,71,96
9876,note_on,12,0,0,,,,,6,,,,,,,56,96
9885,note_off,9,0,0,,,,,5,,,,,,,71,0
9886,note_off,1,0,0,,,,,6,,,,,,,56,0
9888,note_on,2,0,0,,,,,5,,,,,,,72,96
9888,note_on,0,0,0,,,,,6,,,,,,,54,96
9898,note_off,10,0,0,,,,,6,,,,,,,54,0
9900,note_on,2,0,0,,,,,6,,,,,,,56,96
9909,note_off,9,0,0,,,,,5,,,,,,,72,0
9910,note_off,1,0,0,,,,,6,,,,,,,56,0
9912,note_on,2,0,0,,,,,5,,,,,,,73,96
9912,note_on,0,0,0,,,,,6,,,,,,,52,96
9922,note_off,10,0,0,,,,,6,,,,,,,52,0
9924,note_on,2,0,0,,,,,6,,,,,,,56,96
9933,note_off,9,0,0,,,,,5,,,,,,,73,0
9934,note_off,1,0,0,,,,,6,,,,,,,56,0
9936,note_on,2,0,0,,,,,5,,,,,,,75,96
9936,note_on,0,0,0,,,,,6,,,,,,,51,96
9946,note_off,10,0,0,,,,,6,,,,,,,51,0
9948,note_on,2,0,0,,,,,6,,,,,,,56,96
9957,note_off,9,0,0,,,,,5,,,,,,,75,0
9958,note_off,1,0,0,,,,,6,,,,,,,56,0
9960,note_on,2,0,0,,,,,5,,,,,,,76,96
9960,note_on,0,0,0,,,,,6,,,,,,,49,96
9970,note_off,10,0,0,,,,,6,,,,,,,49,0
9972,note_on,2,0,0,,,,,6,,,,,,,56,96
9981,note_off,9,0,0,,,,,5,,,,,,,76,0
9982,note_off,1,0,0,,,,,6,,,,,,,56,0
9984,note_on,2,0,0,,,,,5,,,,,,,77,96
9984,note_on,0,0,0,,,,,6,,,,,,,47,96
9994,note_off,10,0,0,,,,,6,,,,,,,47,0
9996,note_on,2,0,0,,,,,6,,,,,,,56,96
10005,note_off,9,0,0,,,,,5,,,,,,,77,0
10006,note_off,1,0,0,,,,,6,,,,,,,56,0
10008,note_on,2,0,0,,,,,5,,,,,,,78,96
10008,note_on,0,0,0,,,,,6,,,,,,,45,96
10018,note_off,10,0,0,,,,,6,,,,,,,45,0
10020,note_on,2,0,0,,,,,6,,,,,,,54,96
10029,note_off,9,0,0,,,,,5,,,,,,,78,0
10030,note_off,1,0,0,,,,,6,,,,,,,54,0
10032,note_on,2,0,0,,,,,0,,,,,,,73,80
10032,note_on,0,0,0,,,,,1,,,,,,,73,80
10032,note_on,0,0,0,,,,,2,,,,,,,73,80
10032,note_on,0,0,0,,,,,3,,,,,,,49,80
10032,note_on,0,0,0,,,,,4,,,,,,,37,80
10032,note_on,0,0,0,,,,,5,,,,,,,81,96
10032,note_on,0,0,0,,,,,6,,,,,,,49,96
10042,note_off,10,0,0,,,,,5,,,,,,,81,0
10042,note_off,0,0,0,,,,,6,,,,,,,49,0
10044,note_off,2,0,0,,,,,0,,,,,,,73,0
10044,note_on,0,0,0,,,,,0,,,,,,,71,80
10044,note_off,0,0,0,,,,,1,,,,,,,73,0
10044,note_on,0,0,0,,,,,1,,,,,,,71,80
10044,note_off,0,0,0,,,,,2,,,,,,,73,0
10044,note_on,0,0,0,,,,,2,,,,,,,71,80
10044,note_off,0,0,0,,,,,3,,,,,,,49,0
10044,note_on,0,0,0,,,,,3,,,,,,,47,80
10044,note_off,0,0,0,,,,,4,,,,,,,37,0
10044,note_on,0,0,0,,,,,4,,,,,,,35,80
10044,note_on,0,0,0,,,,,5,,,,,,,80,96
10044,note_on,0,0,0,,,,,6,,,,,,,47,96
10054,note_off,10,0,0,,,,,5,,,,,,,80,0
10054,note_off,0,0,0,,,,,6,,,,,,,47,0
10056,note_off,2,0,0,,,,,0,,,,,,,71,0
10056,note_on,0,0,0,,,,,0,,,,,,,69,80
10056,note_off,0,0,0,,,,,1,,,,,,,71,0
10056,note_on,0,0,0,,,,,1,,,,,,,69,80
10056,note_off,0,0,0,,,,,2,,,,,,,71,0
10056,note_on,0,0,0,,,,,2,,,,,,,69,80
10056,note_off,0,0,0,,,,,3,,,,,,,47,0
10056,note_on,0,0,0,,,,,3,,,,,,,45,80
10056,note_off,0,0,0,,,,,4,,,,,,,35,0
10056,note_on,0,0,0,,,,,4,,,,,,,33,80
10056,note_on,0,0,0,,,,,5,,,,,,,81,96
10056,note_on,0,0,0,,,,,6,,,,,,,45,96
10066,note_off,10,0,0,,,,,6,,,,,,,45,0
10068,note_off,2,0,0,,,,,0,,,,,,,69,0
10068,note_on,0,0,0,,,,,0,,,,,,,68,80
10068,note_off,0,0,0,,,,,1,,,,,,,69,0
10068,note_on,0,0,0,,,,,1,,,,,,,68,80
10068,note_off,0,0,0,,,,,2,,,,,,,69,0
10068,note_on,0,0,0,,,,,2,,,,,,,68,80
10068,note_off,0,0,0,,,,,3,,,,,,,45,0
10068,note_on,0,0,0,,,,,3,,,,,,,44,80
10068,note_off,0,0,0,,,,,4,,,,,,,33,0
10068,note_on,0,0,0,,,,,4,,,,,,,32,80
10068,note_on,0,0,0,,,,,6,,,,,,,44,96
10077,note_off,9,0,0,,,,,5,,,,,,,81,0
10078,note_off,1,0,0,,,,,0,,,,,,,68,0
10078,note_off,0,0,0,,,,,1,,,,,,,68,0
10078,note_off,0,0,0,,,,,2,,,,,,,68,0
10078,note_off,0,0,0,,,,,3,,,,,,,44,0
10078,note_off,0,0,0,,,,,4,,,,,,,32,0
10078,note_off,0,0,0,,,,,6,,,,,,,44,0
10080,note_on,2,0,0,,,,,0,,,,,,,66,80
10080,note_on,0,0,0,,,,,1,,,,,,,66,80
10080,note_on,0,0,0,,,,,2,,,,,,,66,80
10080,note_on,0,0,0,,,,,3,,,,,,,42,80
10080,note_on,0,0,0,,,,,4,,,,,,,30,80
10080,note_on,0,0,0,,,,,6,,,,,,,42,96
10090,note_off,10,0,0,,,,,6,,,,,,,42,0
10092,note_on,2,0,0,,,,,6,,,,,,,54,96
10101,note_off,9,0,0,,,,,0,,,,,,,66,0
10101,note_off,0,0,0,,,,,1,,,,,,,66,0
10101,note_off,0,0,0,,,,,2,,,,,,,66,0
10101,note_off,0,0,0,,,,,3,,,,,,,42,0
10101,note_off,0,0,0,,,,,4,,,,,,,30,0
10102,note_off,1,0,0,,,,,6,,,,,,,54,0
10104,note_on,2,0,0,,,,,5,,,,,,,66,96
10104,note_on,0,0,0,,,,,6,,,,,,,45,96
10114,note_off,10,0,0,,,,,6,,,,,,,45,0
10116,note_on,2,0,0,,,,,6,,,,,,,54,96
10125,note_off,9,0,0,,,,,5,,,,,,,66,0
10126,note_off,1,0,0,,,,,6,,,,,,,54,0
10128,note_on,2,0,0,,,,,5,,,,,,,68,96
10128,note_on,0,0,0,,,,,6,,,,,,,49,96
10138,note_off,10,0,0,,,,,6,,,,,,,49,0
10140,note_on,2,0,0,,,,,6,,,,,,,53,96
10149,note_off,9,0,0,,,,,5,,,,,,,68,0
10150,note_off,1,0,0,,,,,6,,,,,,,53,0
10152,note_on,2,0,0,,,,,5,,,,,,,69,96
10152,note_on,0,0,0,,,,,6,,,,,,,42,96
10162,note_off,10,0,0,,,,,6,,,,,,,42,0
10164,note_on,2,0,0,,,,,6,,,,,,,54,96
10173,note_off,9,0,0,,,,,5,,,,,,,69,0
10174,note_off,1,0,0,,,,,6,,,,,,,54,0
10176,note_on,2,0,0,,,,,5,,,,,,,70,96
10176,note_on,0,0,0,,,,,6,,,,,,,52,96
10186,note_off,10,0,0,,,,,6,,,,,,,52,0
10188,note_on,2,0,0,,,,,6,,,,,,,54,96
10197,note_off,9,0,0,,,,,5,,,,,,,70,0
10198,note_off,1,0,0,,,,,6,,,,,,,54,0
10200,note_on,2,0,0,,,,,5,,,,,,,71,96
10200,note_on,0,0,0,,,,,6,,,,,,,50,96
10210,note_off,10,0,0,,,,,6,,,,,,,50,0
10212,note_on,2,0,0,,,,,6,,,,,,,54,96
10221,note_off,9,0,0,,,,,5,,,,,,,71,0
10222,note_off,1,0,0,,,,,6,,,,,,,54,0
10224,note_on,2,0,0,,,,,5,,,,,,,73,96
10224,note_on,0,0,0,,,,,6,,,,,,,49,96
10234,note_off,10,0,0,,,,,6,,,,,,,49,0
10236,note_on,2,0,0,,,,,6,,,,,,,54,96
10245,note_off,9,0,0,,,,,5,,,,,,,73,0
10246,note_off,1,0,0,,,,,6,,,,,,,54,0
10248,note_on,2,0,0,,,,,5,,,,,,,74,96
10248,note_on,0,0,0,,,,,6,,,,,,,47,96
10258,note_off,10,0,0,,,,,6,,,,,,,47,0
10260,note_on,2,0,0,,,,,6,,,,,,,54,96
10269,note_off,9,0,0,,,,,5,,,,,,,74,0
10270,note_off,1,0,0,,,,,6,,,,,,,54,0
10272,note_on,2,0,0,,,,,5,,,,,,,75,96
10272,note_on,0,0,0,,,,,6,,,,,,,45,96
10282,note_off,10,0,0,,,,,6,,,,,,,45,0
10284,note_on,2,0,0,,,,,6,,,,,,,54,96
10293,note_off,9,0,0,,,,,5,,,,,,,75,0
10294,note_off,1,0,0,,,,,6,,,,,,,54,0
10296,note_on,2,0,0,,,,,5,,,,,,,76,96
10296,note_on,0,0,0,,,,,6,,,,,,,44,96
10306,note_off,10,0,0,,,,,6,,,,,,,44,0
10308,note_on,2,0,0,,,,,6,,,,,,,52,96
10317,note_off,9,0,0,,,,,5,,,,,,,76,0
10318,note_off,1,0,0,,,,,6,,,,,,,52,0
10320,note_on,2,0,0,,,,,0,,,,,,,71,80
10320,note_on,0,0,0,,,,,1,,,,,,,71,80
10320,note_on,0,0,0,,,,,2,,,,,,,71,80
10320,note_on,0,0,0,,,,,3,,,,,,,47,80
10320,note_on,0,0,0,,,,,4,,,,,,,35,80
10320,note_on,0,0,0,,,,,5,,,,,,,80,96
10320,note_on,0,0,0,,,,,6,,,,,,,47,96
10330,note_off,10,0,0,,,,,5,,,,,,,80,0
10330,note_off,0,0,0,,,,,6,,,,,,,47,0
10332,note_off,2,0,0,,,,,0,,,,,,,71,0
10332,note_on,0,0,0,,,,,0,,,,,,,69,80
10332,note_off,0,0,0,,,,,1,,,,,,,71,0
10332,note_on,0,0,0,,,,,1,,,,,,,69,80
10332,note_off,0,0,0,,,,,2,,,,,,,71,0
10332,note_on,0,0,0,,,,,2,,,,,,,69,80
10332,note_off,0,0,0,,,,,3,,,,,,,47,0
10332,note_on,0,0,0,,,,,3,,,,,,,45,80
10332,note_off,0,0,0,,,,,4,,,,,,,35,0
10332,note_on,0,0,0,,,,,4,,,,,,,33,80
10332,note_on,0,0,0,,,,,5,,,,,,,78,96
10332,note_on,0,0,0,,,,,6,,,,,,,45,96
10342,note_off,10,0,0,,,,,5,,,,,,,78,0
10342,note_off,0,0,0,,,,,6,,,,,,,45,0
10344,note_off,2,0,0,,,,,0,,,,,,,69,0
10344,note_on,0,0,0,,,,,0,,,,,,,68,80
10344,note_off,0,0,0,,,,,1,,,,,,,69,0
10344,note_on,0,0,0,,,,,1,,,,,,,68,80
10344,note_off,0,0,0,,,,,2,,,,,,,69,0
10344,note_on,0,0,0,,,,,2,,,,,,,68,80
10344,note_off,0,0,0,,,,,3,,,,,,,45,0
10344,note_on,0,0,0,,,,,3,,,,,,,44,80
10344,note_off,0,0,0,,,,,4,,,,,,,33,0
10344,note_on,0,0,0,,,,,4,,,,,,,32,80
10344,note_on,0,0,0,,,,,5,,,,,,,80,96
10344,note_on,0,0,0,,,,,6,,,,,,,44,96
10354,note_off,10,0,0,,,,,6,,,,,,,44,0
10356,note_off,2,0,0,,,,,0,,,,,,,68,0
10356,note_on,0,0,0,,,,,0,,,,,,,66,80
10356,note_off,0,0,0,,,,,1,,,,,,,68,0
10356,note_on,0,0,0,,,,,1,,,,,,,66,80
10356,note_off,0,0,0,,,,,2,,,,,,,68,0
10356,note_on,0,0,0,,,,,2,,,,,,,66,80
10356,note_off,0,0,0,,,,,3,,,,,,,44,0
10356,note_on,0,0,0,,,,,3,,,,,,,42,80
10356,note_off,0,0,0,,,,,4,,,,,,,32,0
10356,note_on,0,0,0,,,,,4,,,,,,,30,80
10356,note_on,0,0,0,,,,,6,,,,,,,42,96
10365,note_off,9,0,0,,,,,5,,,,,,,80,0
10366,note_off,1,0,0,,,,,0,,,,,,,66,0
10366,note_off,0,0,0,,,,,1,,,,,,,66,0
10366,note_off,0,0,0,,,,,2,,,,,,,66,0
10366,note_off,0,0,0,,,,,3,,,,,,,42,0
10366,note_off,0,0,0,,,,,4,,,,,,,30,0
10366,note_off,0,0,0,,,,,6,,,,,,,42,0
10368,note_on,2,0,0,,,,,0,,,,,,,64,80
10368,note_on,0,0,0,,,,,1,,,,,,,64,80
10368,note_on,0,0,0,,,,,2,,,,,,,64,80
10368,note_on,0,0,0,,,,,3,,,,,,,40,80
10368,note_on,0,0,0,,,,,4,,,,,,,28,80
10368,note_on,0,0,0,,,,,6,,,,,,,40,96
10380,note_on,12,0,0,,,,,5,,,,,,,80,96
10389,note_off,9,0,0,,,,,0,,,,,,,64,0
10389,note_off,0,0,0,,,,,1,,,,,,,64,0
10389,note_off,0,0,0,,,,,2,,,,,,,64,0
10389,note_off,0,0,0,,,,,3,,,,,,,40,0
10389,note_off,0,0,0,,,,,4,,,,,,,28,0
10389,note_off,0,0,0,,,,,6,,,,,,,40,0
10392,note_on,3,0,0,,,,,3,,,,,,,45,80
10392,note_on,0,0,0,,,,,4,,,,,,,33,80
10392,note_off,0,0,0,,,,,5,,,,,,,80,0
10392,note_on,0,0,0,,,,,5,,,,,,,78,96
10392,note_on,0,0,0,,,,,6,,,,,,,45,96
10404,note_off,12,0,0,,,,,5,,,,,,,78,0
10404,note_on,0,0,0,,,,,5,,,,,,,76,96
10413,note_off,9,0,0,,,,,3,,,,,,,45,0
10413,note_off,0,0,0,,,,,4,,,,,,,33,0
10413,note_off,0,0,0,,,,,6,,,,,,,45,0
10416,note_on,3,0,0,,,,,3,,,,,,,42,80
10416,note_on,0,0,0,,,,,4,,,,,,,30,80
10416,note_off,0,0,0,,,,,5,,,,,,,76,0
10416,note_on,0,0,0,,,,,5,,,,,,,75,96
10416,note_on,0,0,0,,,,,6,,,,,,,42,96
10428,note_off,12,0,0,,,,,5,,,,,,,75,0
10428,note_on,0,0,0,,,,,5,,,,,,,73,96
10437,note_off,9,0,0,,,,,3,,,,,,,42,0
10437,note_off,0,0,0,,,,,4,,,,,,,30,0
10437,note_off,0,0,0,,,,,6,,,,,,,42,0
10438,note_off,1,0,0,,,,,5,,,,,,,73,0
10440,note_on,2,0,0,,,,,3,,,,,,,44,80
10440,note_on,0,0,0,,,,,4,,,,,,,32,80
10440,note_on,0,0,0,,,,,5,,,,,,,72,96
10440,note_on,0,0,0,,,,,6,,,,,,,44,96
10450,note_off,10,0,0,,,,,5,,,,,,,72,0
10452,note_on,2,0,0,,,,,5,,,,,,,80,96
10461,note_off,9,0,0,,,,,3,,,,,,,44,0
10461,note_off,0,0,0,,,,,4,,,,,,,32,0
10461,note_off,0,0,0,,,,,6,,,,,,,44,0
10462,note_off,1,0,0,,,,,5,,,,,,,80,0
10464,note_on,2,0,0,,,,,0,,,,,,,69,80
10464,note_on,0,0,0,,,,,1,,,,,,,66,80
10464,note_on,0,0,0,,,,,2,,,,,,,60,80
10464,note_on,0,0,0,,,,,5,,,,,,,75,96
10464,note_on,0,0,0,,,,,6,,,,,,,56,96
10474,note_off,10,0,0,,,,,5,,,,,,,75,0
10476,note_off,2,0,0,,,,,0,,,,,,,69,0
10476,note_on,0,0,0,,,,,0,,,,,,,68,80
10476,note_off,0,0,0,,,,,1,,,,,,,66,0
10476,note_on,0,0,0,,,,,1,,,,,,,64,80
10476,note_off,0,0,0,,,,,2,,,,,,,60,0
10476,note_on,0,0,0,,,,,2,,,,,,,61,80
10476,note_on,0,0,0,,,,,5,,,,,,,76,96
10485,note_off,9,0,0,,,,,6,,,,,,,56,0
10486,note_off,1,0,0,,,,,5,,,,,,,76,0
10488,note_off,2,0,0,,,,,0,,,,,,,68,0
10488,note_on,0,0,0,,,,,0,,,,,,,66,80
10488,note_off,0,0,0,,,,,1,,,,,,,64,0
10488,note_on,0,0,0,,,,,1,,,,,,,63,80
10488,note_off,0,0,0,,,,,2,,,,,,,61,0
10488,note_on,0,0,0,,,,,2,,,,,,,63,80
10488,note_on,0,0,0,,,,,5,,,,,,,72,96
10498,note_off,10,0,0,,,,,5,,,,,,,72,0
10500,note_off,2,0,0,,,,,0,,,,,,,66,0
10500,note_on,0,0,0,,,,,0,,,,,,,64,80
10500,note_off,0,0,0,,,,,1,,,,,,,63,0
10500,note_on,0,0,0,,,,,1,,,,,,,61,80
10500,note_off,0,0,0,,,,,2,,,,,,,63,0
10500,note_on,0,0,0,,,,,2,,,,,,,64,80
10500,note_on,0,0,0,,,,,5,,,,,,,73,96
10510,note_off,10,0,0,,,,,0,,,,,,,64,0
10510,note_off,0,0,0,,,,,1,,,,,,,61,0
10510,note_off,0,0,0,,,,,2,,,,,,,64,0
10510,note_off,0,0,0,,,,,5,,,,,,,73,0
10512,note_on,2,0,0,,,,,0,,,,,,,63,80
10512,note_on,0,0,0,,,,,1,,,,,,,60,80
10512,note_on,0,0,0,,,,,2,,,,,,,66,80
10512,note_on,0,0,0,,,,,5,,,,,,,68,96
10522,note_off,10,0,0,,,,,5,,,,,,,68,0
10524,note_on,2,0,0,,,,,5,,,,,,,80,96
10533,note_off,9,0,0,,,,,0,,,,,,,63,0
10533,note_off,0,0,0,,,,,1,,,,,,,60,0
10533,note_off,0,0,0,,,,,2,,,,,,,66,0
10534,note_off,1,0,0,,,,,5,,,,,,,80,0
10536,note_on,2,0,0,,,,,0,,,,,,,64,80
10536,note_on,0,0,0,,,,,1,,,,,,,61,80
10536,note_on,0,0,0,,,,,2,,,,,,,69,80
10536,note_on,0,0,0,,,,,3,,,,,,,49,80
10536,note_on,0,0,0,,,,,4,,,,,,,37,80
10536,note_on,0,0,0,,,,,5,,,,,,,78,96
10536,note_on,0,0,0,,,,,6,,,,,,,49,96
10546,note_off,10,0,0,,,,,5,,,,,,,78,0
10548,note_on,2,0,0,,,,,5,,,,,,,76,96
10557,note_off,9,0,0,,,,,0,,,,,,,64,0
10557,note_off,0,0,0,,,,,1,,,,,,,61,0
10557,note_off,0,0,0,,,,,2,,,,,,,69,0
10557,note_off,0,0,0,,,,,3,,,,,,,49,0
10557,note_off,0,0,0,,,,,4,,,,,,,37,0
10557,note_off,0,0,0,,,,,6,,,,,,,49,0
10558,note_off,1,0,0,,,,,5,,,,,,,76,0
10560,note_on,2,0,0,,,,,0,,,,,,,66,80
10560,note_on,0,0,0,,,,,1,,,,,,,61,80
10560,note_on,0,0,0,,,,,2,,,,,,,66,80
10560,note_on,0,0,0,,,,,3,,,,,,,45,80
10560,note_on,0,0,0,,,,,4,,,,,,,33,80
10560,note_on,0,0,0,,,,,5,,,,,,,75,96
10560,note_on,0,0,0,,,,,6,,,,,,,45,96
10570,note_off,10,0,0,,,,,5,,,,,,,75,0
10572,note_on,2,0,0,,,,,5,,,,,,,73,96
10581,note_off,9,0,0,,,,,0,,,,,,,66,0
10581,note_off,0,0,0,,,,,1,,,,,,,61,0
10581,note_off,0,0,0,,,,,2,,,,,,,66,0
10581,note_off,0,0,0,,,,,3,,,,,,,45,0
10581,note_off,0,0,0,,,,,4,,,,,,,33,0
10581,note_off,0,0,0,,,,,6,,,,,,,45,0
10582,note_off,1,0,0,,,,,5,,,,,,,73,0
10584,note_on,2,0,0,,,,,0,,,,,,,56,80
10584,note_on,0,0,0,,,,,1,,,,,,,62,80
10584,note_on,0,0,0,,,,,2,,,,,,,65,80
10584,note_on,0,0,0,,,,,3,,,,,,,44,80
10584,note_on,0,0,0,,,,,4,,,,,,,32,80
10584,note_on,0,0,0,,,,,5,,,,,,,71,96
10584,note_on,0,0,0,,,,,6,,,,,,,44,96
10594,note_off,10,0,0,,,,,5,,,,,,,71,0
10596,note_on,2,0,0,,,,,5,,,,,,,80,96
10605,note_off,9,0,0,,,,,0,,,,,,,56,0
10605,note_off,0,0,0,,,,,1,,,,,,,62,0
10605,note_off,0,0,0,,,,,2,,,,,,,65,0
10605,note_off,0,0,0,,,,,3,,,,,,,44,0
10605,note_off,0,0,0,,,,,4,,,,,,,32,0
10605,note_off,0,0,0,,,,,6,,,,,,,44,0
10606,note_off,1,0,0,,,,,5,,,,,,,80,0
10608,note_on,2,0,0,,,,,5,,,,,,,77,96
10608,note_on,0,0,0,,,,,6,,,,,,,47,96
10618,note_off,10,0,0,,,,,5,,,,,,,77,0
10620,note_on,2,0,0,,,,,5,,,,,,,78,96
10629,note_off,9,0,0,,,,,6,,,,,,,47,0
10630,note_off,1,0,0,,,,,5,,,,,,,78,0
10632,note_on,2,0,0,,,,,5,,,,,,,74,96
10632,note_on,0,0,0,,,,,6,,,,,,,53,96
10642,note_off,10,0,0,,,,,5,,,,,,,74,0
10644,note_on,2,0,0,,,,,5,,,,,,,73,96
10653,note_off,9,0,0,,,,,6,,,,,,,53,0
10654,note_off,1,0,0,,,,,5,,,,,,,73,0
10656,note_on,2,0,0,,,,,5,,,,,,,81,96
10656,note_on,0,0,0,,,,,6,,,,,,,54,96
10666,note_off,10,0,0,,,,,5,,,,,,,81,0
10668,note_on,2,0,0,,,,,5,,,,,,,83,96
10677,note_off,9,0,0,,,,,6,,,,,,,54,0
10678,note_off,1,0,0,,,,,5,,,,,,,83,0
10680,note_on,2,0,0,,,,,5,,,,,,,74,96
10680,note_on,0,0,0,,,,,6,,,,,,,57,96
10690,note_off,10,0,0,,,,,5,,,,,,,74,0
10692,note_on,2,0,0,,,,,5,,,,,,,73,96
10701,note_off,9,0,0,,,,,6,,,,,,,57,0
10702,note_off,1,0,0,,,,,5,,,,,,,73,0
10704,note_on,2,0,0,,,,,5,,,,,,,71,96
10704,note_on,0,0,0,,,,,6,,,,,,,62,96
10714,note_off,10,0,0,,,,,5,,,,,,,71,0
10716,note_on,2,0,0,,,,,5,,,,,,,81,96
10725,note_off,9,0,0,,,,,6,,,,,,,62,0
10726,note_off,1,0,0,,,,,5,,,,,,,81,0
10728,note_on,2,0,0,,,,,5,,,,,,,80,96
10728,note_on,0,0,0,,,,,6,,,,,,,52,96
10738,note_off,10,0,0,,,,,5,,,,,,,80,0
10740,note_on,2,0,0,,,,,5,,,,,,,81,96
10749,note_off,9,0,0,,,,,6,,,,,,,52,0
10750,note_off,1,0,0,,,,,5,,,,,,,81,0
10752,note_on,2,0,0,,,,,5,,,,,,,73,96
10752,note_on,0,0,0,,,,,6,,,,,,,56,96
10762,note_off,10,0,0,,,,,5,,,,,,,73,0
10764,note_on,2,0,0,,,,,5,,,,,,,71,96
10773,note_off,9,0,0,,,,,6,,,,,,,56,0
10774,note_off,1,0,0,,,,,5,,,,,,,71,0
10776,note_on,2,0,0,,,,,5,,,,,,,69,96
10776,note_on,0,0,0,,,,,6,,,,,,,61,96
10786,note_off,10,0,0,,,,,5,,,,,,,69,0
10788,note_on,2,0,0,,,,,5,,,,,,,80,96
10797,note_off,9,0,0,,,,,6,,,,,,,61,0
10798,note_off,1,0,0,,,,,5,,,,,,,80,0
10800,note_on,2,0,0,,,,,5,,,,,,,78,96
10800,note_on,0,0,0,,,,,6,,,,,,,50,96
10810,note_off,10,0,0,,,,,5,,,,,,,78,0
10812,note_on,2,0,0,,,,,5,,,,,,,80,96
10821,note_off,9,0,0,,,,,6,,,,,,,50,0
10822,note_off,1,0,0,,,,,5,,,,,,,80,0
10824,note_on,2,0,0,,,,,5,,,,,,,71,96
10824,note_on,0,0,0,,,,,6,,,,,,,54,96
10834,note_off,10,0,0,,,,,5,,,,,,,71,0
10836,note_on,2,0,0,,,,,5,,,,,,,69,96
10845,note_off,9,0,0,,,,,6,,,,,,,54,0
10846,note_off,1,0,0,,,,,5,,,,,,,69,0
10848,note_on,2,0,0,,,,,5,,,,,,,68,96
10848,note_on,0,0,0,,,,,6,,,,,,,59,96
10858,note_off,10,0,0,,,,,5,,,,,,,68,0
10860,note_on,2,0,0,,,,,5,,,,,,,78,96
10869,note_off,9,0,0,,,,,6,,,,,,,59,0
10870,note_off,1,0,0,,,,,5,,,,,,,78,0
10872,note_on,2,0,0,,,,,5,,,,,,,77,96
10872,note_on,0,0,0,,,,,6,,,,,,,49,96
10882,note_off,10,0,0,,,,,5,,,,,,,77,0
10884,note_on,2,0,0,,,,,5,,,,,,,80,96
10893,note_off,9,0,0,,,,,6,,,,,,,49,0
10894,note_off,1,0,0,,,,,5,,,,,,,80,0
10896,note_on,2,0,0,,,,,5,,,,,,,78,96
10896,note_on,0,0,0,,,,,6,,,,,,,61,96
10906,note_off,10,0,0,,,,,5,,,,,,,78,0
10908,note_on,2,0,0,,,,,5,,,,,,,77,96
10917,note_off,9,0,0,,,,,6,,,,,,,61,0
10918,note_off,1,0,0,,,,,5,,,,,,,77,0
10920,note_on,2,0,0,,,,,5,,,,,,,75,96
10920,note_on,0,0,0,,,,,6,,,,,,,59,96
10930,note_off,10,0,0,,,,,5,,,,,,,75,0
10932,note_on,2,0,0,,,,,5,,,,,,,73,96
10941,note_off,9,0,0,,,,,6,,,,,,,59,0
10942,note_off,1,0,0,,,,,5,,,,,,,73,0
10944,note_on,2,0,0,,,,,6,,,,,,,57,96
10954,note_off,10,0,0,,,,,6,,,,,,,57,0
10956,note_on,2,0,0,,,,,6,,,,,,,61,96
10966,note_off,10,0,0,,,,,6,,,,,,,61,0
10968,note_on,2,0,0,,,,,5,,,,,,,61,96
10968,note_on,0,0,0,,,,,6,,,,,,,59,96
10978,note_off,10,0,0,,,,,6,,,,,,,59,0
10980,note_on,2,0,0,,,,,6,,,,,,,57,96
10989,note_off,9,0,0,,,,,5,,,,,,,61,0
10990,note_off,1,0,0,,,,,6,,,,,,,57,0
10992,note_on,2,0,0,,,,,5,,,,,,,63,96
10992,note_on,0,0,0,,,,,6,,,,,,,56,96
11002,note_off,10,0,0,,,,,6,,,,,,,56,0
11004,note_on,2,0,0,,,,,6,,,,,,,54,96
11013,note_off,9,0,0,,,,,5,,,,,,,63,0
11014,note_off,1,0,0,,,,,6,,,,,,,54,0
11016,note_on,2,0,0,,,,,5,,,,,,,64,96
11016,note_on,0,0,0,,,,,6,,,,,,,49,96
11026,note_off,10,0,0,,,,,6,,,,,,,49,0
11028,note_on,2,0,0,,,,,6,,,,,,,61,96
11037,note_off,9,0,0,,,,,5,,,,,,,64,0
11038,note_off,1,0,0,,,,,6,,,,,,,61,0
11040,note_on,2,0,0,,,,,5,,,,,,,65,96
11040,note_on,0,0,0,,,,,6,,,,,,,59,96
11050,note_off,10,0,0,,,,,6,,,,,,,59,0
11052,note_on,2,0,0,,,,,6,,,,,,,61,96
11061,note_off,9,0,0,,,,,5,,,,,,,65,0
11062,note_off,1,0,0,,,,,6,,,,,,,61,0
11064,note_on,2,0,0,,,,,5,,,,,,,66,96
11064,note_on,0,0,0,,,,,6,,,,,,,57,96
11074,note_off,10,0,0,,,,,6,,,,,,,57,0
11076,note_on,2,0,0,,,,,6,,,,,,,61,96
11085,note_off,9,0,0,,,,,5,,,,,,,66,0
11086,note_off,1,0,0,,,,,6,,,,,,,61,0
11088,note_on,2,0,0,,,,,5,,,,,,,68,96
11088,note_on,0,0,0,,,,,6,,,,,,,56,96
11098,note_off,10,0,0,,,,,6,,,,,,,56,0
11100,note_on,2,0,0,,,,,6,,,,,,,61,96
11109,note_off,9,0,0,,,,,5,,,,,,,68,0
11110,note_off,1,0,0,,,,,6,,,,,,,61,0
11112,note_on,2,0,0,,,,,5,,,,,,,69,96
11112,note_on,0,0,0,,,,,6,,,,,,,54,96
11122,note_off,10,0,0,,,,,6,,,,,,,54,0
11124,note_on,2,0,0,,,,,6,,,,,,,61,96
11133,note_off,9,0,0,,,,,5,,,,,,,69,0
11134,note_off,1,0,0,,,,,6,,,,,,,61,0
11136,note_on,2,0,0,,,,,5,,,,,,,70,96
11136,note_on,0,0,0,,,,,6,,,,,,,52,96
11146,note_off,10,0,0,,,,,6,,,,,,,52,0
11148,note_on,2,0,0,,,,,6,,,,,,,61,96
11157,note_off,9,0,0,,,,,5,,,,,,,70,0
11158,note_off,1,0,0,,,,,6,,,,,,,61,0
11160,note_on,2,0,0,,,,,5,,,,,,,71,96
11160,note_on,0,0,0,,,,,6,,,,,,,50,96
11170,note_off,10,0,0,,,,,6,,,,,,,50,0
11172,note_on,2,0,0,,,,,6,,,,,,,59,96
11181,note_off,9,0,0,,,,,5,,,,,,,71,0
11182,note_off,1,0,0,,,,,6,,,,,,,59,0
11184,note_on,2,0,0,,,,,0,,,,,,,66,80
11184,note_on,0,0,0,,,,,1,,,,,,,66,80
11184,note_on,0,0,0,,,,,2,,,,,,,66,80
11184,note_on,0,0,0,,,,,3,,,,,,,54,80
11184,note_on,0,0,0,,,,,4,,,,,,,42,80
11184,note_on,0,0,0,,,,,5,,,,,,,74,96
11184,note_on,0,0,0,,,,,6,,,,,,,54,96
11194,note_off,10,0,0,,,,,5,,,,,,,74,0
11194,note_off,0,0,0,,,,,6,,,,,,,54,0
11196,note_off,2,0,0,,,,,0,,,,,,,66,0
11196,note_on,0,0,0,,,,,0,,,,,,,64,80
11196,note_off,0,0,0,,,,,1,,,,,,,66,0
11196,note_on,0,0,0,,,,,1,,,,,,,64,80
11196,note_off,0,0,0,,,,,2,,,,,,,66,0
11196,note_on,0,0,0,,,,,2,,,,,,,64,80
11196,note_off,0,0,0,,,,,3,,,,,,,54,0
11196,note_on,0,0,0,,,,,3,,,,,,,52,80
11196,note_off,0,0,0,,,,,4,,,,,,,42,0
11196,note_on,0,0,0,,,,,4,,,,,,,40,80
11196,note_on,0,0,0,,,,,5,,,,,,,73,96
11196,note_on,0,0,0,,,,,6,,,,,,,52,96
11206,note_off,10,0,0,,,,,5,,,,,,,73,0
11206,note_off,0,0,0,,,,,6,,,,,,,52,0
11208,note_off,2,0,0,,,,,0,,,,,,,64,0
11208,note_on,0,0,0,,,,,0,,,,,,,62,80
11208,note_off,0,0,0,,,,,1,,,,,,,64,0
11208,note_on,0,0,0,,,,,1,,,,,,,62,80
11208,note_off,0,0,0,,,,,2,,,,,,,64,0
11208,note_on,0,0,0,,,,,2,,,,,,,62,80
11208,note_off,0,0,0,,,,,3,,,,,,,52,0
11208,note_on,0,0,0,,,,,3,,,,,,,50,80
11208,note_off,0,0,0,,,,,4,,,,,,,40,0
11208,note_on,0,0,0,,,,,4,,,,,,,38,80
11208,note_on,0,0,0,,,,,5,,,,,,,74,96
11208,note_on,0,0,0,,,,,6,,,,,,,50,96
11218,note_off,10,0,0,,,,,6,,,,,,,50,0
11220,note_off,2,0,0,,,,,0,,,,,,,62,0
11220,note_on,0,0,0,,,,,0,,,,,,,61,80
11220,note_off,0,0,0,,,,,1,,,,,,,62,0
11220,note_on,0,0,0,,,,,1,,,,,,,61,80
11220,note_off,0,0,0,,,,,2,,,,,,,62,0
11220,note_on,0,0,0,,,,,2,,,,,,,61,80
11220,note_off,0,0,0,,,,,3,,,,,,,50,0
11220,note_on,0,0,0,,,,,3,,,,,,,49,80
11220,note_off,0,0,0,,,,,4,,,,,,,38,0
11220,note_on,0,0,0,,,,,4,,,,,,,37,80
11220,note_on,0,0,0,,,,,6,,,,,,,49,96
11229,note_off,9,0,0,,,,,5,,,,,,,74,0
11230,note_off,1,0,0,,,,,0,,,,,,,61,0
11230,note_off,0,0,0,,,,,1,,,,,,,61,0
11230,note_off,0,0,0,,,,,2,,,,,,,61,0
11230,note_off,0,0,0,,,,,3,,,,,,,49,0
11230,note_off,0,0,0,,,,,4,,,,,,,37,0
11230,note_off,0,0,0,,,,,6,,,,,,,49,0
11232,note_on,2,0,0,,,,,0,,,,,,,59,80
11232,note_on,0,0,0,,,,,1,,,,,,,59,80
11232,note_on,0,0,0,,,,,2,,,,,,,59,80
11232,note_on,0,0,0,,,,,3,,,,,,,47,80
11232,note_on,0,0,0,,,,,4,,,,,,,35,80
11232,note_on,0,0,0,,,,,6,,,,,,,47,96
11242,note_off,10,0,0,,,,,6,,,,,,,47,0
11244,note_on,2,0,0,,,,,6,,,,,,,59,96
11253,note_off,9,0,0,,,,,0,,,,,,,59,0
11253,note_off,0,0,0,,,,,1,,,,,,,59,0
11253,note_off,0,0,0,,,,,2,,,,,,,59,0
11253,note_off,0,0,0,,,,,3,,,,,,,47,0
11253,note_off,0,0,0,,,,,4,,,,,,,35,0
11254,note_off,1,0,0,,,,,6,,,,,,,59,0
11256,note_on,2,0,0,,,,,5,,,,,,,71,96
11256,note_on,0,0,0,,,,,6,,,,,,,50,96
11266,note_off,10,0,0,,,,,6,,,,,,,50,0
11268,note_on,2,0,0,,,,,6,,,,,,,59,96
11277,note_off,9,0,0,,,,,5,,,,,,,71,0
11278,note_off,1,0,0,,,,,6,,,,,,,59,0
11280,note_on,2,0,0,,,,,5,,,,,,,73,96
11280,note_on,0,0,0,,,,,6,,,,,,,54,96
11290,note_off,10,0,0,,,,,6,,,,,,,54,0
11292,note_on,2,0,0,,,,,6,,,,,,,58,96
11301,note_off,9,0,0,,,,,5,,,,,,,73,0
11302,note_off,1,0,0,,,,,6,,,,,,,58,0
11304,note_on,2,0,0,,,,,5,,,,,,,74,96
11304,note_on,0,0,0,,,,,6,,,,,,,47,96
11314,note_off,10,0,0,,,,,6,,,,,,,47,0
11316,note_on,2,0,0,,,,,6,,,,,,,59,96
11325,note_off,9,0,0,,,,,5,,,,,,,74,0
11326,note_off,1,0,0,,,,,6,,,,,,,59,0
11328,note_on,2,0,0,,,,,5,,,,,,,75,96
11328,note_on,0,0,0,,,,,6,,,,,,,57,96
11338,note_off,10,0,0,,,,,6,,,,,,,57,0
11340,note_on,2,0,0,,,,,6,,,,,,,59,96
11349,note_off,9,0,0,,,,,5,,,,,,,75,0
11350,note_off,1,0,0,,,,,6,,,,,,,59,0
11352,note_on,2,0,0,,,,,5,,,,,,,76,96
11352,note_on,0,0,0,,,,,6,,,,,,,55,96
11362,note_off,10,0,0,,,,,6,,,,,,,55,0
11364,note_on,2,0,0,,,,,6,,,,,,,59,96
11373,note_off,9,0,0,,,,,5,,,,,,,76,0
11374,note_off,1,0,0,,,,,6,,,,,,,59,0
11376,note_on,2,0,0,,,,,5,,,,,,,78,96
11376,note_on,0,0,0,,,,,6,,,,,,,54,96
11386,note_off,10,0,0,,,,,6,,,,,,,54,0
11388,note_on,2,0,0,,,,,6,,,,,,,59,96
11397,note_off,9,0,0,,,,,5,,,,,,,78,0
11398,note_off,1,0,0,,,,,6,,,,,,,59,0
11400,note_on,2,0,0,,,,,5,,,,,,,79,96
11400,note_on,0,0,0,,,,,6,,,,,,,52,96
11410,note_off,10,0,0,,,,,6,,,,,,,52,0
11412,note_on,2,0,0,,,,,6,,,,,,,59,96
11421,note_off,9,0,0,,,,,5,,,,,,,79,0
11422,note_off,1,0,0,,,,,6,,,,,,,59,0
11424,note_on,2,0,0,,,,,5,,,,,,,80,96
11424,note_on,0,0,0,,,,,6,,,,,,,50,96
11434,note_off,10,0,0,,,,,6,,,,,,,50,0
11436,note_on,2,0,0,,,,,6,,,,,,,59,96
11445,note_off,9,0,0,,,,,5,,,,,,,80,0
11446,note_off,1,0,0,,,,,6,,,,,,,59,0
11448,note_on,2,0,0,,,,,5,,,,,,,81,96
11448,note_on,0,0,0,,,,,6,,,,,,,49,96
11458,note_off,10,0,0,,,,,6,,,,,,,49,0
11460,note_on,2,0,0,,,,,6,,,,,,,57,96
11469,note_off,9,0,0,,,,,5,,,,,,,81,0
11470,note_off,1,0,0,,,,,6,,,,,,,57,0
11472,note_on,2,0,0,,,,,0,,,,,,,64,80
11472,note_on,0,0,0,,,,,1,,,,,,,64,80
11472,note_on,0,0,0,,,,,2,,,,,,,64,80
11472,note_on,0,0,0,,,,,3,,,,,,,52,80
11472,note_on,0,0,0,,,,,4,,,,,,,40,80
11472,note_on,0,0,0,,,,,5,,,,,,,85,96
11472,note_on,0,0,0,,,,,6,,,,,,,52,96
11482,note_off,10,0,0,,,,,5,,,,,,,85,0
11482,note_off,0,0,0,,,,,6,,,,,,,52,0
11484,note_off,2,0,0,,,,,0,,,,,,,64,0
11484,note_on,0,0,0,,,,,0,,,,,,,62,80
11484,note_off,0,0,0,,,,,1,,,,,,,64,0
11484,note_on,0,0,0,,,,,1,,,,,,,62,80
11484,note_off,0,0,0,,,,,2,,,,,,,64,0
11484,note_on,0,0,0,,,,,2,,,,,,,62,80
11484,note_off,0,0,0,,,,,3,,,,,,,52,0
11484,note_on,0,0,0,,,,,3,,,,,,,50,80
11484,note_off,0,0,0,,,,,4,,,,,,,40,0
11484,note_on,0,0,0,,,,,4,,,,,,,38,80
11484,note_on,0,0,0,,,,,5,,,,,,,83,96
11484,note_on,0,0,0,,,,,6,,,,,,,50,96
11494,note_off,10,0,0,,,,,5,,,,,,,83,0
11494,note_off,0,0,0,,,,,6,,,,,,,50,0
11496,note_off,2,0,0,,,,,0,,,,,,,62,0
11496,note_on,0,0,0,,,,,0,,,,,,,61,80
11496,note_off,0,0,0,,,,,1,,,,,,,62,0
11496,note_on,0,0,0,,,,,1,,,,,,,61,80
11496,note_off,0,0,0,,,,,2,,,,,,,62,0
11496,note_on,0,0,0,,,,,2,,,,,,,61,80
11496,note_off,0,0,0,,,,,3,,,,,,,50,0
11496,note_on,0,0,0,,,,,3,,,,,,,49,80
11496,note_off,0,0,0,,,,,4,,,,,,,38,0
11496,note_on,0,0,0,,,,,4,,,,,,,37,80
11496,note_on,0,0,0,,,,,5,,,,,,,85,96
11496,note_on,0,0,0,,,,,6,,,,,,,49,96
11506,note_off,10,0,0,,,,,6,,,,,,,49,0
11508,note_off,2,0,0,,,,,0,,,,,,,61,0
11508,note_on,0,0,0,,,,,0,,,,,,,59,80
11508,note_off,0,0,0,,,,,1,,,,,,,61,0
11508,note_on,0,0,0,,,,,1,,,,,,,59,80
11508,note_off,0,0,0,,,,,2,,,,,,,61,0
11508,note_on,0,0,0,,,,,2,,,,,,,59,80
11508,note_off,0,0,0,,,,,3,,,,,,,49,0
11508,note_on,0,0,0,,,,,3,,,,,,,47,80
11508,note_off,0,0,0,,,,,4,,,,,,,37,0
11508,note_on,0,0,0,,,,,4,,,,,,,35,80
11508,note_on,0,0,0,,,,,6,,,,,,,47,96
11517,note_off,9,0,0,,,,,5,,,,,,,85,0
11518,note_off,1,0,0,,,,,0,,,,,,,59,0
11518,note_off,0,0,0,,,,,1,,,,,,,59,0
11518,note_off,0,0,0,,,,,2,,,,,,,59,0
11518,note_off,0,0,0,,,,,3,,,,,,,47,0
11518,note_off,0,0,0,,,,,4,,,,,,,35,0
11518,note_off,0,0,0,,,,,6,,,,,,,47,0
11520,note_on,2,0,0,,,,,0,,,,,,,57,80
11520,note_on,0,0,0,,,,,1,,,,,,,57,80
11520,note_on,0,0,0,,,,,2,,,,,,,57,80
11520,note_on,0,0,0,,,,,3,,,,,,,45,80
11520,note_on,0,0,0,,,,,4,,,,,,,33,80
11520,note_on,0,0,0,,,,,6,,,,,,,45,96
11532,note_on,12,0,0,,,,,5,,,,,,,73,96
11541,note_off,9,0,0,,,,,0,,,,,,,57,0
11541,note_off,0,0,0,,,,,1,,,,,,,57,0
11541,note_off,0,0,0,,,,,2,,,,,,,57,0
11541,note_off,0,0,0,,,,,3,,,,,,,45,0
11541,note_off,0,0,0,,,,,4,,,,,,,33,0
11541,note_off,0,0,0,,,,,6,,,,,,,45,0
11542,note_off,1,0,0,,,,,5,,,,,,,73,0
11544,note_on,2,0,0,,,,,3,,,,,,,50,80
11544,note_on,0,0,0,,,,,4,,,,,,,38,80
11544,note_on,0,0,0,,,,,5,,,,,,,71,96
11544,note_on,0,0,0,,,,,6,,,,,,,50,96
11554,note_off,10,0,0,,,,,5,,,,,,,71,0
11556,note_on,2,0,0,,,,,5,,,,,,,69,96
11565,note_off,9,0,0,,,,,3,,,,,,,50,0
11565,note_off,0,0,0,,,,,4,,,,,,,38,0
11565,note_off,0,0,0,,,,,6,,,,,,,50,0
11566,note_off,1,0,0,,,,,5,,,,,,,69,0
11568,note_on,2,0,0,,,,,3,,,,,,,47,80
11568,note_on,0,0,0,,,,,4,,,,,,,35,80
11568,note_on,0,0,0,,,,,5,,,,,,,68,96
11568,note_on,0,0,0,,,,,6,,,,,,,47,96
11578,note_off,10,0,0,,,,,5,,,,,,,68,0
11580,note_on,2,0,0,,,,,5,,,,,,,66,96
11589,note_off,9,0,0,,,,,3,,,,,,,47,0
11589,note_off,0,0,0,,,,,4,,,,,,,35,0
11589,note_off,0,0,0,,,,,6,,,,,,,47,0
11590,note_off,1,0,0,,,,,5,,,,,,,66,0
11592,note_on,2,0,0,,,,,3,,,,,,,49,80
11592,note_on,0,0,0,,,,,4,,,,,,,37,80
11592,note_on,0,0,0,,,,,5,,,,,,,65,96
11592,note_on,0,0,0,,,,,6,,,,,,,49,96
11602,note_off,10,0,0,,,,,5,,,,,,,65,0
11604,note_on,2,0,0,,,,,5,,,,,,,73,96
11613,note_off,9,0,0,,,,,3,,,,,,,49,0
11613,note_off,0,0,0,,,,,4,,,,,,,37,0
11613,note_off,0,0,0,,,,,6,,,,,,,49,0
11614,note_off,1,0,0,,,,,5,,,,,,,73,0
11616,note_on,2,0,0,,,,,0,,,,,,,74,80
11616,note_on,0,0,0,,,,,1,,,,,,,71,80
11616,note_on,0,0,0,,,,,2,,,,,,,65,80
11616,note_on,0,0,0,,,,,5,,,,,,,68,96
11616,note_on,0,0,0,,,,,6,,,,,,,61,96
11626,note_off,10,0,0,,,,,5,,,,,,,68,0
11628,note_off,2,0,0,,,,,0,,,,,,,74,0
11628,note_on,0,0,0,,,,,0,,,,,,,73,80
11628,note_off,0,0,0,,,,,1,,,,,,,71,0
11628,note_on,0,0,0,,,,,1,,,,,,,69,80
11628,note_off,0,0,0,,,,,2,,,,,,,65,0
11628,note_on,0,0,0,,,,,2,,,,,,,66,80
11628,note_on,0,0,0,,,,,5,,,,,,,69,96
11637,note_off,9,0,0,,,,,6,,,,,,,61,0
11638,note_off,1,0,0,,,,,5,,,,,,,69,0
11640,note_off,2,0,0,,,,,0,,,,,,,73,0
11640,note_on,0,0,0,,,,,0,,,,,,,71,80
11640,note_off,0,0,0,,,,,1,,,,,,,69,0
11640,note_on,0,0,0,,,,,1,,,,,,,68,80
11640,note_off,0,0,0,,,,,2,,,,,,,66,0
11640,note_on,0,0,0,,,,,2,,,,,,,68,80
11640,note_on,0,0,0,,,,,5,,,,,,,65,96
11650,note_off,10,0,0,,,,,5,,,,,,,65,0
11652,note_off,2,0,0,,,,,0,,,,,,,71,0
11652,note_on,0,0,0,,,,,0,,,,,,,69,80
11652,note_off,0,0,0,,,,,1,,,,,,,68,0
11652,note_on,0,0,0,,,,,1,,,,,,,66,80
11652,note_off,0,0,0,,,,,2,,,,,,,68,0
11652,note_on,0,0,0,,,,,2,,,,,,,69,80
11652,note_on,0,0,0,,,,,5,,,,,,,66,96
11662,note_off,10,0,0,,,,,0,,,,,,,69,0
11662,note_off,0,0,0,,,,,1,,,,,,,66,0
11662,note_off,0,0,0,,,,,2,,,,,,,69,0
11662,note_off,0,0,0,,,,,5,,,,,,,66,0
11664,note_on,2,0,0,,,,,0,,,,,,,68,80
11664,note_on,0,0,0,,,,,1,,,,,,,65,80
11664,note_on,0,0,0,,,,,2,,,,,,,71,80
11664,note_on,0,0,0,,,,,5,,,,,,,61,96
11674,note_off,10,0,0,,,,,5,,,,,,,61,0
11676,note_on,2,0,0,,,,,5,,,,,,,73,96
11685,note_off,9,0,0,,,,,0,,,,,,,68,0
11685,note_off,0,0,0,,,,,1,,,,,,,65,0
11685,note_off,0,0,0,,,,,2,,,,,,,71,0
11686,note_off,1,0,0,,,,,5,,,,,,,73,0
11688,note_on,2,0,0,,,,,0,,,,,,,69,80
11688,note_on,0,0,0,,,,,1,,,,,,,66,80
11688,note_on,0,0,0,,,,,2,,,,,,,74,80
11688,note_on,0,0,0,,,,,3,,,,,,,54,80
11688,note_on,0,0,0,,,,,4,,,,,,,42,80
11688,note_on,0,0,0,,,,,5,,,,,,,71,96
11688,note_on,0,0,0,,,,,6,,,,,,,54,96
11698,note_off,10,0,0,,,,,5,,,,,,,71,0
11700,note_on,2,0,0,,,,,5,,,,,,,69,96
11709,note_off,9,0,0,,,,,0,,,,,,,69,0
11709,note_off,0,0,0,,,,,1,,,,,,,66,0
11709,note_off,0,0,0,,,,,2,,,,,,,74,0
11709,note_off,0,0,0,,,,,3,,,,,,,54,0
11709,note_off,0,0,0,,,,,4,,,,,,,42,0
11709,note_off,0,0,0,,,,,6,,,,,,,54,0
11710,note_off,1,0,0,,,,,5,,,,,,,69,0
11712,note_on,2,0,0,,,,,0,,,,,,,71,80
11712,note_on,0,0,0,,,,,1,,,,,,,66,80
11712,note_on,0,0,0,,,,,2,,,,,,,71,80
11712,note_on,0,0,0,,,,,3,,,,,,,50,80
11712,note_on,0,0,0,,,,,4,,,,,,,38,80
11712,note_on,0,0,0,,,,,5,,,,,,,68,96
11712,note_on,0,0,0,,,,,6,,,,,,,50,96
11722,note_off,10,0,0,,,,,5,,,,,,,68,0
11724,note_on,2,0,0,,,,,5,,,,,,,66,96
11733,note_off,9,0,0,,,,,0,,,,,,,71,0
11733,note_off,0,0,0,,,,,1,,,,,,,66,0
11733,note_off,0,0,0,,,,,2,,,,,,,71,0
11733,note_off,0,0,0,,,,,3,,,,,,,50,0
11733,note_off,0,0,0,,,,,4,,,,,,,38,0
11733,note_off,0,0,0,,,,,6,,,,,,,50,0
11734,note_off,1,0,0,,,,,5,,,,,,,66,0
11736,note_on,2,0,0,,,,,0,,,,,,,61,80
11736,note_on,0,0,0,,,,,1,,,,,,,67,80
11736,note_on,0,0,0,,,,,2,,,,,,,70,80
11736,note_on,0,0,0,,,,,3,,,,,,,49,80
11736,note_on,0,0,0,,,,,4,,,,,,,37,80
11736,note_on,0,0,0,,,,,5,,,,,,,64,96
11736,note_on,0,0,0,,,,,6,,,,,,,49,96
11746,note_off,10,0,0,,,,,5,,,,,,,64,0
11748,note_on,2,0,0,,,,,5,,,,,,,73,96
11757,note_off,9,0,0,,,,,0,,,,,,,61,0
11757,note_off,0,0,0,,,,,1,,,,,,,67,0
11757,note_off,0,0,0,,,,,2,,,,,,,70,0
11757,note_off,0,0,0,,,,,3,,,,,,,49,0
11757,note_off,0,0,0,,,,,4,,,,,,,37,0
11757,note_off,0,0,0,,,,,6,,,,,,,49,0
11760,note_off,3,0,0,,,,,5,,,,,,,73,0
11760,note_on,0,0,0,,,,,5,,,,,,,70,96
11760,note_on,0,0,0,,,,,6,,,,,,,52,96
11772,note_off,12,0,0,,,,,5,,,,,,,70,0
11772,note_on,0,0,0,,,,,5,,,,,,,71,96
11781,note_off,9,0,0,,,,,6,,,,,,,52,0
11782,note_off,1,0,0,,,,,5,,,,,,,71,0
11784,note_on,2,0,0,,,,,5,,,,,,,79,96
11784,note_on,0,0,0,,,,,6,,,,,,,58,96
11794,note_off,10,0,0,,,,,5,,,,,,,79,0
11796,note_on,2,0,0,,,,,5,,,,,,,78,96
11805,note_off,9,0,0,,,,,6,,,,,,,58,0
11806,note_off,1,0,0,,,,,5,,,,,,,78,0
11808,note_on,2,0,0,,,,,5,,,,,,,76,96
11808,note_on,0,0,0,,,,,6,,,,,,,59,96
11818,note_off,10,0,0,,,,,5,,,,,,,76,0
11820,note_on,2,0,0,,,,,5,,,,,,,74,96
11829,note_off,9,0,0,,,,,6,,,,,,,59,0
11830,note_off,1,0,0,,,,,5,,,,,,,74,0
11832,note_on,2,0,0,,,,,5,,,,,,,70,96
11832,note_on,0,0,0,,,,,6,,,,,,,62,96
11842,note_off,10,0,0,,,,,5,,,,,,,70,0
11844,note_on,2,0,0,,,,,5,,,,,,,71,96
11853,note_off,9,0,0,,,,,6,,,,,,,62,0
11854,note_off,1,0,0,,,,,5,,,,,,,71,0
11856,note_on,2,0,0,,,,,5,,,,,,,79,96
11856,note_on,0,0,0,,,,,6,,,,,,,52,96
11866,note_off,10,0,0,,,,,5,,,,,,,79,0
11868,note_on,2,0,0,,,,,5,,,,,,,76,96
11877,note_off,9,0,0,,,,,6,,,,,,,52,0
11878,note_off,1,0,0,,,,,5,,,,,,,76,0
11880,note_on,2,0,0,,,,,5,,,,,,,74,96
11880,note_on,0,0,0,,,,,6,,,,,,,57,96
11890,note_off,10,0,0,,,,,5,,,,,,,74,0
11892,note_on,2,0,0,,,,,5,,,,,,,73,96
11901,note_off,9,0,0,,,,,6,,,,,,,57,0
11902,note_off,1,0,0,,,,,5,,,,,,,73,0
11904,note_on,2,0,0,,,,,5,,,,,,,68,96
11904,note_on,0,0,0,,,,,6,,,,,,,61,96
11914,note_off,10,0,0,,,,,5,,,,,,,68,0
11916,note_on,2,0,0,,,,,5,,,,,,,69,96
11925,note_off,9,0,0,,,,,6,,,,,,,61,0
11926,note_off,1,0,0,,,,,5,,,,,,,69,0
11928,note_on,2,0,0,,,,,5,,,,,,,78,96
11928,note_on,0,0,0,,,,,6,,,,,,,50,96
11938,note_off,10,0,0,,,,,5,,,,,,,78,0
11940,note_on,2,0,0,,,,,5,,,,,,,74,96
11949,note_off,9,0,0,,,,,6,,,,,,,50,0
11950,note_off,1,0,0,,,,,5,,,,,,,74,0
11952,note_on,2,0,0,,,,,5,,,,,,,73,96
11952,note_on,0,0,0,,,,,6,,,,,,,55,96
11962,note_off,10,0,0,,,,,5,,,,,,,73,0
11964,note_on,2,0,0,,,,,5,,,,,,,71,96
11973,note_off,9,0,0,,,,,6,,,,,,,55,0
11974,note_off,1,0,0,,,,,5,,,,,,,71,0
11976,note_on,2,0,0,,,,,5,,,,,,,66,96
11976,note_on,0,0,0,,,,,6,,,,,,,59,96
11986,note_off,10,0,0,,,,,5,,,,,,,66,0
11988,note_on,2,0,0,,,,,5,,,,,,,67,96
11997,note_off,9,0,0,,,,,6,,,,,,,59,0
11998,note_off,1,0,0,,,,,5,,,,,,,67,0
12000,note_on,2,0,0,,,,,5,,,,,,,76,96
12000,note_on,0,0,0,,,,,6,,,,,,,49,96
12010,note_off,10,0,0,,,,,5,,,,,,,76,0
12012,note_on,2,0,0,,,,,5,,,,,,,73,96
12021,note_off,9,0,0,,,,,6,,,,,,,49,0
12022,note_off,1,0,0,,,,,5,,,,,,,73,0
12024,note_on,2,0,0,,,,,5,,,,,,,71,96
12024,note_on,0,0,0,,,,,6,,,,,,,54,96
12034,note_off,10,0,0,,,,,5,,,,,,,71,0
12036,note_on,2,0,0,,,,,5,,,,,,,70,96
12045,note_off,9,0,0,,,,,6,,,,,,,54,0
12046,note_off,1,0,0,,,,,5,,,,,,,70,0
12048,note_on,2,0,0,,,,,5,,,,,,,65,96
12048,note_on,0,0,0,,,,,6,,,,,,,58,96
12058,note_off,10,0,0,,,,,5,,,,,,,65,0
12060,note_on,2,0,0,,,,,5,,,,,,,66,96
12069,note_off,9,0,0,,,,,6,,,,,,,58,0
12070,note_off,1,0,0,,,,,5,,,,,,,66,0
12072,note_on,2,0,0,,,,,5,,,,,,,70,96
12072,note_on,0,0,0,,,,,6,,,,,,,54,96
12082,note_off,10,0,0,,,,,5,,,,,,,70,0
12084,note_on,2,0,0,,,,,5,,,,,,,64,96
12093,note_off,9,0,0,,,,,6,,,,,,,54,0
12094,note_off,1,0,0,,,,,5,,,,,,,64,0
12096,note_on,2,0,0,,,,,5,,,,,,,63,96
12096,note_on,0,0,0,,,,,6,,,,,,,59,96
12106,note_off,10,0,0,,,,,5,,,,,,,63,0
12108,note_on,2,0,0,,,,,5,,,,,,,66,96
12117,note_off,9,0,0,,,,,6,,,,,,,59,0
12118,note_off,1,0,0,,,,,5,,,,,,,66,0
12120,note_on,2,0,0,,,,,5,,,,,,,69,96
12120,note_on,0,0,0,,,,,6,,,,,,,54,96
12130,note_off,10,0,0,,,,,5,,,,,,,69,0
12132,note_on,2,0,0,,,,,5,,,,,,,72,96
12141,note_off,9,0,0,,,,,6,,,,,,,54,0
12142,note_off,1,0,0,,,,,5,,,,,,,72,0
12144,note_on,2,0,0,,,,,5,,,,,,,71,96
12144,note_on,0,0,0,,,,,6,,,,,,,57,96
12154,note_off,10,0,0,,,,,5,,,,,,,71,0
12156,note_on,2,0,0,,,,,5,,,,,,,75,96
12165,note_off,9,0,0,,,,,6,,,,,,,57,0
12166,note_off,1,0,0,,,,,5,,,,,,,75,0
12168,note_on,2,0,0,,,,,5,,,,,,,76,96
12168,note_on,0,0,0,,,,,6,,,,,,,55,96
12178,note_off,10,0,0,,,,,5,,,,,,,76,0
12180,note_on,2,0,0,,,,,5,,,,,,,78,96
12189,note_off,9,0,0,,,,,6,,,,,,,55,0
12190,note_off,1,0,0,,,,,5,,,,,,,78,0
12192,note_on,2,0,0,,,,,5,,,,,,,79,96
12192,note_on,0,0,0,,,,,6,,,,,,,49,96
12202,note_off,10,0,0,,,,,5,,,,,,,79,0
12204,note_on,2,0,0,,,,,5,,,,,,,76,96
12213,note_off,9,0,0,,,,,6,,,,,,,49,0
12214,note_off,1,0,0,,,,,5,,,,,,,76,0
12216,note_on,2,0,0,,,,,5,,,,,,,74,96
12216,note_on,0,0,0,,,,,6,,,,,,,52,96
12226,note_off,10,0,0,,,,,5,,,,,,,74,0
12228,note_on,2,0,0,,,,,5,,,,,,,73,96
12237,note_off,9,0,0,,,,,6,,,,,,,52,0
12238,note_off,1,0,0,,,,,5,,,,,,,73,0
12240,note_on,2,0,0,,,,,5,,,,,,,82,96
12240,note_on,0,0,0,,,,,6,,,,,,,54,96
12250,note_off,10,0,0,,,,,5,,,,,,,82,0
12252,note_on,2,0,0,,,,,5,,,,,,,83,96
12261,note_off,9,0,0,,,,,6,,,,,,,54,0
12262,note_off,1,0,0,,,,,5,,,,,,,83,0
12264,note_on,2,0,0,,,,,5,,,,,,,85,96
12264,note_on,0,0,0,,,,,6,,,,,,,42,96
12274,note_off,10,0,0,,,,,5,,,,,,,85,0
12276,note_on,2,0,0,,,,,5,,,,,,,79,96
12285,note_off,9,0,0,,,,,6,,,,,,,42,0
12286,note_off,1,0,0,,,,,5,,,,,,,79,0
12288,note_on,2,0,0,,,,,5,,,,,,,78,96
12288,note_on,0,0,0,,,,,6,,,,,,,46,96
12298,note_off,10,0,0,,,,,5,,,,,,,78,0
12300,note_on,2,0,0,,,,,5,,,,,,,76,96
12309,note_off,9,0,0,,,,,6,,,,,,,46,0
12310,note_off,1,0,0,,,,,5,,,,,,,76,0
12312,note_on,2,0,0,,,,,5,,,,,,,74,96
12312,note_on,0,0,0,,,,,6,,,,,,,47,96
12322,note_off,10,0,0,,,,,5,,,,,,,74,0
12324,note_on,2,0,0,,,,,5,,,,,,,73,96
12333,note_off,9,0,0,,,,,6,,,,,,,47,0
12334,note_off,1,0,0,,,,,5,,,,,,,73,0
12336,note_on,2,0,0,,,,,5,,,,,,,71,96
12336,note_on,0,0,0,,,,,6,,,,,,,49,96
12346,note_off,10,0,0,,,,,5,,,,,,,71,0
12348,note_on,2,0,0,,,,,5,,,,,,,69,96
12357,note_off,9,0,0,,,,,6,,,,,,,49,0
12358,note_off,1,0,0,,,,,5,,,,,,,69,0
12360,note_on,2,0,0,,,,,5,,,,,,,68,96
12360,note_on,0,0,0,,,,,6,,,,,,,50,96
12370,note_off,10,0,0,,,,,5,,,,,,,68,0
12372,note_on,2,0,0,,,,,5,,,,,,,78,96
12382,note_off,10,0,0,,,,,5,,,,,,,78,0
12384,note_on,2,0,0,,,,,5,,,,,,,77,96
12391,note_off,7,0,0,,,,,6,,,,,,,50,0
12396,note_on,5,0,0,,,,,6,,,,,,,62,96
12405,note_off,9,0,0,,,,,5,,,,,,,77,0
12406,note_off,1,0,0,,,,,6,,,,,,,62,0
12408,note_on,2,0,0,,,,,6,,,,,,,61,96
12418,note_off,10,0,0,,,,,6,,,,,,,61,0
12420,note_on,2,0,0,,,,,5,,,,,,,73,96
12420,note_on,0,0,0,,,,,6,,,,,,,59,96
12430,note_off,10,0,0,,,,,5,,,,,,,73,0
12430,note_off,0,0,0,,,,,6,,,,,,,59,0
12432,note_on,2,0,0,,,,,5,,,,,,,78,96
12432,note_on,0,0,0,,,,,6,,,,,,,57,96
12442,note_off,10,0,0,,,,,6,,,,,,,57,0
12444,note_on,2,0,0,,,,,6,,,,,,,56,96
12453,note_off,9,0,0,,,,,5,,,,,,,78,0
12454,note_off,1,0,0,,,,,6,,,,,,,56,0
12456,note_on,2,0,0,,,,,6,,,,,,,54,96
12466,note_off,10,0,0,,,,,6,,,,,,,54,0
12468,note_on,2,0,0,,,,,5,,,,,,,80,96
12468,note_on,0,0,0,,,,,6,,,,,,,59,96
12478,note_off,10,0,0,,,,,5,,,,,,,80,0
12478,note_off,0,0,0,,,,,6,,,,,,,59,0
12480,note_on,2,0,0,,,,,5,,,,,,,80,96
12480,note_on,0,0,0,,,,,6,,,,,,,61,96
12501,note_off,21,0,0,,,,,6,,,,,,,61,0
12504,note_on,3,0,0,,,,,6,,,,,,,49,96
12511,note_off,7,0,0,,,,,5,,,,,,,80,0
12516,note_on,5,0,0,,,,,5,,,,,,,78,96
12525,note_off,9,0,0,,,,,6,,,,,,,49,0
12526,note_off,1,0,0,,,,,5,,,,,,,78,0
12528,note_on,2,0,0,,,,,5,,,,,,,78,96
12528,note_on,0,0,0,,,,,6,,,,,,,54,96
12535,note_off,7,0,0,,,,,5,,,,,,,78,0
12536,note_on,1,0,0,,,,,5,,,,,,,73,96
12543,note_off,7,0,0,,,,,5,,,,,,,73,0
12544,note_on,1,0,0,,,,,5,,,,,,,69,96
12549,note_off,5,0,0,,,,,6,,,,,,,54,0
12551,note_off,2,0,0,,,,,5,,,,,,,69,0
12552,note_on,1,0,0,,,,,0,,,,,,,66,96
12552,note_on,0,0,0,,,,,1,,,,,,,61,96
12552,note_on,0,0,0,,,,,2,,,,,,,57,96
12552,note_on,0,0,0,,,,,3,,,,,,,42,96
12552,note_on,0,0,0,,,,,4,,,,,,,30,96
12552,note_on,0,0,0,,,,,5,,,,,,,66,96
12559,note_off,7,0,0,,,,,5,,,,,,,66,0
12560,note_on,1,0,0,,,,,5,,,,,,,61,96
12567,note_off,7,0,0,,,,,5,,,,,,,61,0
12568,note_on,1,0,0,,,,,5,,,,,,,57,96
12573,note_off,5,0,0,,,,,0,,,,,,,66,0
12573,note_off,0,0,0,,,,,1,,,,,,,61,0
12573,note_off,0,0,0,,,,,2,,,,,,,57,0
12573,note_off,0,0,0,,,,,3,,,,,,,42,0
12573,note_off,0,0,0,,,,,4,,,,,,,30,0
12575,note_off,2,0,0,,,,,5,,,,,,,57,0
12576,note_on,1,0,0,,,,,0,,,,,,,69,96
12576,note_on,0,0,0,,,,,1,,,,,,,66,96
12576,note_on,0,0,0,,,,,2,,,,,,,61,96
12576,note_on,0,0,0,,,,,3,,,,,,,42,96
12576,note_on,0,0,0,,,,,4,,,,,,,30,96
12576,note_on,0,0,0,,,,,6,,,,,,,54,96
12583,note_off,7,0,0,,,,,6,,,,,,,54,0
12584,note_on,1,0,0,,,,,6,,,,,,,49,96
12591,note_off,7,0,0,,,,,6,,,,,,,49,0
12592,note_on,1,0,0,,,,,6,,,,,,,45,96
12597,note_off,5,0,0,,,,,0,,,,,,,69,0
12597,note_off,0,0,0,,,,,1,,,,,,,66,0
12597,note_off,0,0,0,,,,,2,,,,,,,61,0
12597,note_off,0,0,0,,,,,3,,,,,,,42,0
12597,note_off,0,0,0,,,,,4,,,,,,,30,0
12599,note_off,2,0,0,,,,,6,,,,,,,45,0
12600,note_on,1,0,0,,,,,0,,,,,,,73,96
12600,note_on,0,0,0,,,,,1,,,,,,,69,96
12600,note_on,0,0,0,,,,,2,,,,,,,66,96
12600,note_on,0,0,0,,,,,3,,,,,,,42,96
12600,note_on,0,0,0,,,,,4,,,,,,,30,96
12600,note_on,0,0,0,,,,,6,,,,,,,42,96
12607,note_off,7,0,0,,,,,6,,,,,,,42,0
12608,note_on,1,0,0,,,,,6,,,,,,,45,96
12615,note_off,7,0,0,,,,,6,,,,,,,45,0
12616,note_on,1,0,0,,,,,6,,,,,,,49,96
12621,note_off,5,0,0,,,,,0,,,,,,,73,0
12621,note_off,0,0,0,,,,,1,,,,,,,69,0
12621,note_off,0,0,0,,,,,2,,,,,,,66,0
12621,note_off,0,0,0,,,,,3,,,,,,,42,0
12621,note_off,0,0,0,,,,,4,,,,,,,30,0
12623,note_off,2,0,0,,,,,6,,,,,,,49,0
12624,note_on,1,0,0,,,,,0,,,,,,,66,96
12624,note_on,0,0,0,,,,,1,,,,,,,73,96
12624,note_on,0,0,0,,,,,2,,,,,,,69,96
12624,note_on,0,0,0,,,,,3,,,,,,,42,96
12624,note_on,0,0,0,,,,,4,,,,,,,30,96
12624,note_on,0,0,0,,,,,6,,,,,,,54,96
12631,note_off,7,0,0,,,,,6,,,,,,,54,0
12632,note_on,1,0,0,,,,,6,,,,,,,57,96
12634,note_off,2,0,0,,,,,0,,,,,,,66,0
12636,note_on,2,0,0,,,,,0,,,,,,,68,96
12639,note_off,3,0,0,,,,,6,,,,,,,57,0
12640,note_on,1,0,0,,,,,6,,,,,,,61,96
12645,note_off,5,0,0,,,,,1,,,,,,,73,0
12645,note_off,0,0,0,,,,,2,,,,,,,69,0
12645,note_off,0,0,0,,,,,3,,,,,,,42,0
12645,note_off,0,0,0,,,,,4,,,,,,,30,0
12646,note_off,1,0,0,,,,,0,,,,,,,68,0
12647,note_off,1,0,0,,,,,6,,,,,,,61,0
12648,note_on,1,0,0,,,,,0,,,,,,,69,96
12648,note_on,0,0,0,,,,,1,,,,,,,66,96
12648,note_on,0,0,0,,,,,2,,,,,,,73,96
12648,note_on,0,0,0,,,,,3,,,,,,,42,96
12648,note_on,0,0,0,,,,,4,,,,,,,30,96
12648,note_on,0,0,0,,,,,5,,,,,,,66,96
12655,note_off,7,0,0,,,,,5,,,,,,,66,0
12656,note_on,1,0,0,,,,,5,,,,,,,69,96
12658,note_off,2,0,0,,,,,0,,,,,,,69,0
12658,note_off,0,0,0,,,,,1,,,,,,,66,0
12660,note_on,2,0,0,,,,,0,,,,,,,71,96
12660,note_on,0,0,0,,,,,1,,,,,,,68,96
12663,note_off,3,0,0,,,,,5,,,,,,,69,0
12664,note_on,1,0,0,,,,,5,,,,,,,73,96
12669,note_off,5,0,0,,,,,2,,,,,,,73,0
12669,note_off,0,0,0,,,,,3,,,,,,,42,0
12669,note_off,0,0,0,,,,,4,,,,,,,30,0
12670,note_off,1,0,0,,,,,0,,,,,,,71,0
12670,note_off,0,0,0,,,,,1,,,,,,,68,0
12671,note_off,1,0,0,,,,,5,,,,,,,73,0
12672,note_on,1,0,0,,,,,0,,,,,,,73,96
12672,note_on,0,0,0,,,,,1,,,,,,,69,96
12672,note_on,0,0,0,,,,,2,,,,,,,66,96
12672,note_on,0,0,0,,,,,3,,,,,,,42,96
12672,note_on,0,0,0,,,,,4,,,,,,,30,96
12672,note_on,0,0,0,,,,,5,,,,,,,78,96
12679,note_off,7,0,0,,,,,5,,,,,,,78,0
12680,note_on,1,0,0,,,,,5,,,,,,,73,96
12682,note_off,2,0,0,,,,,1,,,,,,,69,0
12682,note_off,0,0,0,,,,,2,,,,,,,66,0
12684,note_on,2,0,0,,,,,1,,,,,,,71,96
12684,note_on,0,0,0,,,,,2,,,,,,,68,96
12687,note_off,3,0,0,,,,,5,,,,,,,73,0
12688,note_on,1,0,0,,,,,5,,,,,,,77,96
12693,note_off,5,0,0,,,,,0,,,,,,,73,0
12693,note_off,0,0,0,,,,,3,,,,,,,42,0
12693,note_off,0,0,0,,,,,4,,,,,,,30,0
12694,note_off,1,0,0,,,,,1,,,,,,,71,0
12694,note_off,0,0,0,,,,,2,,,,,,,68,0
12695,note_off,1,0,0,,,,,5,,,,,,,77,0
12696,note_on,1,0,0,,,,,0,,,,,,,78,96
12696,note_on,0,0,0,,,,,1,,,,,,,73,96
12696,note_on,0,0,0,,,,,2,,,,,,,69,96
12696,note_on,0,0,0,,,,,3,,,,,,,42,96
12696,note_on,0,0,0,,,,,4,,,,,,,30,96
12696,note_on,0,0,0,,,,,5,,,,,,,78,96
12696,note_on,0,0,0,,,,,6,,,,,,,61,96
12696,note_on,0,0,0,,,,,6,,,,,,,57,96
12696,note_on,0,0,0,,,,,6,,,,,,,54,96
12703,note_off,7,0,0,,,,,5,,,,,,,78,0
12704,note_on,1,0,0,,,,,5,,,,,,,73,96
12706,note_off,2,0,0,,,,,2,,,,,,,69,0
12708,note_on,2,0,0,,,,,2,,,,,,,71,96
12711,note_off,3,0,0,,,,,5,,,,,,,73,0
12712,note_on,1,0,0,,,,,5,,,,,,,78,96
12717,note_off,5,0,0,,,,,0,,,,,,,78,0
12717,note_off,0,0,0,,,,,1,,,,,,,73,0
12717,note_off,0,0,0,,,,,3,,,,,,,42,0
12717,note_off,0,0,0,,,,,4,,,,,,,30,0
12717,note_off,0,0,0,,,,,6,,,,,,,61,0
12717,note_off,0,0,0,,,,,6,,,,,,,57,0
12717,note_off,0,0,0,,,,,6,,,,,,,54,0
12718,note_off,1,0,0,,,,,2,,,,,,,71,0
12719,note_off,1,0,0,,,,,5,,,,,,,78,0
12720,note_on,1,0,0,,,,,0,,,,,,,81,96
12720,note_on,0,0,0,,,,,1,,,,,,,78,96
12720,note_on,0,0,0,,,,,2,,,,,,,73,96
12720,note_on,0,0,0,,,,,3,,,,,,,42,96
12720,note_on,0,0,0,,,,,4,,,,,,,30,96
12720,note_on,0,0,0,,,,,5,,,,,,,81,96
12720,note_on,0,0,0,,,,,6,,,,,,,61,96
12720,note_on,0,0,0,,,,,6,,,,,,,57,96
12720,note_on,0,0,0,,,,,6,,,,,,,54,96
12727,note_off,7,0,0,,,,,5,,,,,,,81,0
12728,note_on,1,0,0,,,,,5,,,,,,,78,96
12735,note_off,7,0,0,,,,,5,,,,,,,78,0
12736,note_on,1,0,0,,,,,5,,,,,,,81,96
12741,note_off,5,0,0,,,,,0,,,,,,,81,0
12741,note_off,0,0,0,,,,,1,,,,,,,78,0
12741,note_off,0,0,0,,,,,2,,,,,,,73,0
12741,note_off,0,0,0,,,,,3,,,,,,,42,0
12741,note_off,0,0,0,,,,,4,,,,,,,30,0
12741,note_off,0,0,0,,,,,6,,,,,,,61,0
12741,note_off,0,0,0,,,,,6,,,,,,,57,0
12741,note_off,0,0,0,,,,,6,,,,,,,54,0
12743,note_off,2,0,0,,,,,5,,,,,,,81,0
12744,note_on,1,0,0,,,,,0,,,,,,,85,96
12744,note_on,0,0,0,,,,,1,,,,,,,81,96
12744,note_on,0,0,0,,,,,2,,,,,,,66,96
12744,note_on,0,0,0,,,,,3,,,,,,,42,96
12744,note_on,0,0,0,,,,,4,,,,,,,30,96
12744,note_on,0,0,0,,,,,5,,,,,,,85,96
12744,note_on,0,0,0,,,,,6,,,,,,,61,96
12744,note_on,0,0,0,,,,,6,,,,,,,57,96
12744,note_on,0,0,0,,,,,6,,,,,,,54,96
12765,note_off,21,0,0,,,,,0,,,,,,,85,0
12765,note_off,0,0,0,,,,,1,,,,,,,81,0
12765,note_off,0,0,0,,,,,2,,,,,,,66,0
12765,note_off,0,0,0,,,,,3,,,,,,,42,0
12765,note_off,0,0,0,,,,,4,,,,,,,30,0
12765,note_off,0,0,0,,,,,5,,,,,,,85,0
12765,note_off,0,0,0,,,,,6,,,,,,,61,0
12765,note_off,0,0,0,,,,,6,,,,,,,57,0
12765,note_off,0,0,0,,,,,6,,,,,,,54,0
12768,note_on,3,0,0,,,,,0,,,,,,,83,96
12768,note_on,0,0,0,,,,,1,,,,,,,78,96
12768,note_on,0,0,0,,,,,2,,,,,,,66,96
12768,note_on,0,0,0,,,,,3,,,,,,,50,96
12768,note_on,0,0,0,,,,,4,,,,,,,38,96
12768,note_on,0,0,0,,,,,5,,,,,,,83,96
12768,note_on,0,0,0,,,,,6,,,,,,,50,96
12778,note_off,10,0,0,,,,,0,,,,,,,83,0
12778,note_off,0,0,0,,,,,5,,,,,,,83,0
12780,note_on,2,0,0,,,,,0,,,,,,,81,96
12780,note_on,0,0,0,,,,,5,,,,,,,81,96
12789,note_off,9,0,0,,,,,1,,,,,,,78,0
12789,note_off,0,0,0,,,,,2,,,,,,,66,0
12789,note_off,0,0,0,,,,,3,,,,,,,50,0
12789,note_off,0,0,0,,,,,4,,,,,,,38,0
12789,note_off,0,0,0,,,,,6,,,,,,,50,0
12790,note_off,1,0,0,,,,,0,,,,,,,81,0
12790,note_off,0,0,0,,,,,5,,,,,,,81,0
12792,note_on,2,0,0,,,,,0,,,,,,,80,96
12792,note_on,0,0,0,,,,,1,,,,,,,74,96
12792,note_on,0,0,0,,,,,2,,,,,,,71,96
12792,note_on,0,0,0,,,,,3,,,,,,,47,96
12792,note_on,0,0,0,,,,,4,,,,,,,35,96
12792,note_on,0,0,0,,,,,5,,,,,,,80,96
12792,note_on,0,0,0,,,,,6,,,,,,,47,96
12802,note_off,10,0,0,,,,,0,,,,,,,80,0
12802,note_off,0,0,0,,,,,5,,,,,,,80,0
12804,note_on,2,0,0,,,,,0,,,,,,,78,96
12804,note_on,0,0,0,,,,,5,,,,,,,78,96
12813,note_off,9,0,0,,,,,1,,,,,,,74,0
12813,note_off,0,0,0,,,,,2,,,,,,,71,0
12813,note_off,0,0,0,,,,,3,,,,,,,47,0
12813,note_off,0,0,0,,,,,4,,,,,,,35,0
12813,note_off,0,0,0,,,,,6,,,,,,,47,0
12814,note_off,1,0,0,,,,,0,,,,,,,78,0
12814,note_off,0,0,0,,,,,5,,,,,,,78,0
12816,note_on,2,0,0,,,,,0,,,,,,,77,96
12816,note_on,0,0,0,,,,,1,,,,,,,73,96
12816,note_on,0,0,0,,,,,2,,,,,,,68,96
12816,note_on,0,0,0,,,,,3,,,,,,,49,96
12816,note_on,0,0,0,,,,,4,,,,,,,37,96
12816,note_on,0,0,0,,,,,5,,,,,,,77,96
12816,note_on,0,0,0,,,,,6,,,,,,,49,96
12826,note_off,10,0,0,,,,,5,,,,,,,77,0
12828,note_on,2,0,0,,,,,5,,,,,,,73,96
12837,note_off,9,0,0,,,,,0,,,,,,,77,0
12837,note_off,0,0,0,,,,,1,,,,,,,73,0
12837,note_off,0,0,0,,,,,2,,,,,,,68,0
12837,note_off,0,0,0,,,,,3,,,,,,,49,0
12837,note_off,0,0,0,,,,,4,,,,,,,37,0
12837,note_off,0,0,0,,,,,6,,,,,,,49,0
12840,note_on,3,0,0,,,,,0,,,,,,,77,80
12840,note_on,0,0,0,,,,,1,,,,,,,68,80
12840,note_on,0,0,0,,,,,2,,,,,,,61,80
12840,note_on,0,0,0,,,,,3,,,,,,,61,80
12840,note_on,0,0,0,,,,,4,,,,,,,49,80
12840,note_off,0,0,0,,,,,5,,,,,,,73,0
12840,note_on,0,0,0,,,,,5,,,,,,,72,96
12840,note_on,0,0,0,,,,,6,,,,,,,37,96
12852,note_off,12,0,0,,,,,5,,,,,,,72,0
12852,note_on,0,0,0,,,,,5,,,,,,,73,96
12861,note_off,9,0,0,,,,,0,,,,,,,77,0
12861,note_off,0,0,0,,,,,1,,,,,,,68,0
12861,note_off,0,0,0,,,,,2,,,,,,,61,0
12861,note_off,0,0,0,,,,,3,,,,,,,61,0
12861,note_off,0,0,0,,,,,4,,,,,,,49,0
12861,note_off,0,0,0,,,,,6,,,,,,,37,0
12864,note_on,3,0,0,,,,,0,,,,,,,78,80
12864,note_on,0,0,0,,,,,1,,,,,,,69,80
12864,note_off,0,0,0,,,,,5,,,,,,,73,0
12864,note_on,0,0,0,,,,,5,,,,,,,75,96
12876,note_off,12,0,0,,,,,5,,,,,,,75,0
12876,note_on,0,0,0,,,,,5,,,,,,,73,96
12885,note_off,9,0,0,,,,,0,,,,,,,78,0
12885,note_off,0,0,0,,,,,1,,,,,,,69,0
12886,note_off,1,0,0,,,,,5,,,,,,,73,0
12888,note_on,2,0,0,,,,,2,,,,,,,68,80
12888,note_on,0,0,0,,,,,3,,,,,,,49,80
12888,note_on,0,0,0,,,,,4,,,,,,,37,80
12888,note_on,0,0,0,,,,,5,,,,,,,77,96
12888,note_on,0,0,0,,,,,6,,,,,,,49,96
12898,note_off,10,0,0,,,,,5,,,,,,,77,0
12900,note_on,2,0,0,,,,,5,,,,,,,73,96
12909,note_off,9,0,0,,,,,2,,,,,,,68,0
12909,note_off,0,0,0,,,,,3,,,,,,,49,0
12909,note_off,0,0,0,,,,,4,,,,,,,37,0
12909,note_off,0,0,0,,,,,6,,,,,,,49,0
12912,note_on,3,0,0,,,,,0,,,,,,,80,80
12912,note_on,0,0,0,,,,,1,,,,,,,65,80
12912,note_on,0,0,0,,,,,2,,,,,,,61,80
12912,note_on,0,0,0,,,,,3,,,,,,,61,80
12912,note_on,0,0,0,,,,,4,,,,,,,49,80
12912,note_off,0,0,0,,,,,5,,,,,,,73,0
12912,note_on,0,0,0,,,,,5,,,,,,,72,96
12912,note_on,0,0,0,,,,,6,,,,,,,37,96
12924,note_off,12,0,0,,,,,5,,,,,,,72,0
12924,note_on,0,0,0,,,,,5,,,,,,,73,96
12933,note_off,9,0,0,,,,,0,,,,,,,80,0
12933,note_off,0,0,0,,,,,1,,,,,,,65,0
12933,note_off,0,0,0,,,,,2,,,,,,,61,0
12933,note_off,0,0,0,,,,,3,,,,,,,61,0
12933,note_off,0,0,0,,,,,4,,,,,,,49,0
12933,note_off,0,0,0,,,,,6,,,,,,,37,0
12936,note_on,3,0,0,,,,,0,,,,,,,81,80
12936,note_on,0,0,0,,,,,1,,,,,,,73,80
12936,note_off,0,0,0,,,,,5,,,,,,,73,0
12936,note_on,0,0,0,,,,,5,,,,,,,78,96
12948,note_off,12,0,0,,,,,5,,,,,,,78,0
12948,note_on,0,0,0,,,,,5,,,,,,,73,96
12957,note_off,9,0,0,,,,,0,,,,,,,81,0
12957,note_off,0,0,0,,,,,1,,,,,,,73,0
12958,note_off,1,0,0,,,,,5,,,,,,,73,0
12960,note_on,2,0,0,,,,,2,,,,,,,65,80
12960,note_on,0,0,0,,,,,3,,,,,,,49,80
12960,note_on,0,0,0,,,,,4,,,,,,,37,80
12960,note_on,0,0,0,,,,,5,,,,,,,80,96
12960,note_on,0,0,0,,,,,6,,,,,,,49,96
12970,note_off,10,0,0,,,,,5,,,,,,,80,0
12972,note_on,2,0,0,,,,,5,,,,,,,73,96
12981,note_off,9,0,0,,,,,2,,,,,,,65,0
12981,note_off,0,0,0,,,,,3,,,,,,,49,0
12981,note_off,0,0,0,,,,,4,,,,,,,37,0
12981,note_off,0,0,0,,,,,6,,,,,,,49,0
12984,note_on,3,0,0,,,,,0,,,,,,,77,80
12984,note_on,0,0,0,,,,,1,,,,,,,68,80
12984,note_on,0,0,0,,,,,2,,,,,,,68,80
12984,note_on,0,0,0,,,,,3,,,,,,,61,80
12984,note_on,0,0,0,,,,,4,,,,,,,49,80
12984,note_off,0,0,0,,,,,5,,,,,,,73,0
12984,note_on,0,0,0,,,,,5,,,,,,,72,96
12984,note_on,0,0,0,,,,,6,,,,,,,37,96
12996,note_off,12,0,0,,,,,5,,,,,,,72,0
12996,note_on,0,0,0,,,,,5,,,,,,,73,96
13005,note_off,9,0,0,,,,,0,,,,,,,77,0
13005,note_off,0,0,0,,,,,1,,,,,,,68,0
13005,note_off,0,0,0,,,,,2,,,,,,,68,0
13005,note_off,0,0,0,,,,,3,,,,,,,61,0
13005,note_off,0,0,0,,,,,4,,,,,,,49,0
13005,note_off,0,0,0,,,,,6,,,,,,,37,0
13008,note_on,3,0,0,,,,,0,,,,,,,78,80
13008,note_on,0,0,0,,,,,1,,,,,,,73,80
13008,note_off,0,0,0,,,,,5,,,,,,,73,0
13008,note_on,0,0,0,,,,,5,,,,,,,81,96
13020,note_off,12,0,0,,,,,5,,,,,,,81,0
13020,note_on,0,0,0,,,,,5,,,,,,,73,96
13029,note_off,9,0,0,,,,,0,,,,,,,78,0
13029,note_off,0,0,0,,,,,1,,,,,,,73,0
13030,note_off,1,0,0,,,,,5,,,,,,,73,0
13032,note_on,2,0,0,,,,,2,,,,,,,65,80
13032,note_on,0,0,0,,,,,3,,,,,,,49,80
13032,note_on,0,0,0,,,,,4,,,,,,,37,80
13032,note_on,0,0,0,,,,,5,,,,,,,83,96
13032,note_on,0,0,0,,,,,6,,,,,,,49,96
13042,note_off,10,0,0,,,,,5,,,,,,,83,0
13044,note_on,2,0,0,,,,,5,,,,,,,73,96
13053,note_off,9,0,0,,,,,2,,,,,,,65,0
13053,note_off,0,0,0,,,,,3,,,,,,,49,0
13053,note_off,0,0,0,,,,,4,,,,,,,37,0
13053,note_off,0,0,0,,,,,6,,,,,,,49,0
13054,note_off,1,0,0,,,,,5,,,,,,,73,0
13056,note_on,2,0,0,,,,,0,,,,,,,78,80
13056,note_on,0,0,0,,,,,1,,,,,,,73,80
13056,note_on,0,0,0,,,,,2,,,,,,,61,80
13056,note_on,0,0,0,,,,,3,,,,,,,61,80
13056,note_on,0,0,0,,,,,4,,,,,,,49,80
13056,note_on,0,0,0,,,,,5,,,,,,,81,96
13056,note_on,0,0,0,,,,,6,,,,,,,61,96
13066,note_off,10,0,0,,,,,5,,,,,,,81,0
13068,note_on,2,0,0,,,,,5,,,,,,,73,96
13077,note_off,9,0,0,,,,,0,,,,,,,78,0
13077,note_off,0,0,0,,,,,1,,,,,,,73,0
13077,note_off,0,0,0,,,,,2,,,,,,,61,0
13077,note_off,0,0,0,,,,,3,,,,,,,61,0
13077,note_off,0,0,0,,,,,4,,,,,,,49,0
13077,note_off,0,0,0,,,,,6,,,,,,,61,0
13078,note_off,1,0,0,,,,,5,,,,,,,73,0
13080,note_on,2,0,0,,,,,0,,,,,,,77,80
13080,note_on,0,0,0,,,,,1,,,,,,,73,80
13080,note_on,0,0,0,,,,,5,,,,,,,80,96
13090,note_off,10,0,0,,,,,5,,,,,,,80,0
13092,note_on,2,0,0,,,,,5,,,,,,,73,96
13101,note_off,9,0,0,,,,,0,,,,,,,77,0
13101,note_off,0,0,0,,,,,1,,,,,,,73,0
13102,note_off,1,0,0,,,,,5,,,,,,,73,0
13104,note_on,2,0,0,,,,,0,,,,,,,78,80
13104,note_on,0,0,0,,,,,1,,,,,,,73,80
13104,note_on,0,0,0,,,,,5,,,,,,,81,96
13104,note_on,0,0,0,,,,,6,,,,,,,54,96
13114,note_off,10,0,0,,,,,0,,,,,,,78,0
13114,note_off,0,0,0,,,,,6,,,,,,,54,0
13116,note_on,2,0,0,,,,,0,,,,,,,73,80
13116,note_on,0,0,0,,,,,6,,,,,,,53,96
13125,note_off,9,0,0,,,,,1,,,,,,,73,0
13126,note_off,1,0,0,,,,,0,,,,,,,73,0
13126,note_off,0,0,0,,,,,6,,,,,,,53,0
13128,note_on,2,0,0,,,,,0,,,,,,,78,96
13128,note_on,0,0,0,,,,,1,,,,,,,73,96
13128,note_on,0,0,0,,,,,2,,,,,,,69,96
13128,note_on,0,0,0,,,,,3,,,,,,,54,96
13128,note_on,0,0,0,,,,,4,,,,,,,42,96
13128,note_on,0,0,0,,,,,6,,,,,,,54,96
13138,note_off,10,0,0,,,,,2,,,,,,,69,0
13138,note_off,0,0,0,,,,,3,,,,,,,54,0
13138,note_off,0,0,0,,,,,4,,,,,,,42,0
13138,note_off,0,0,0,,,,,6,,,,,,,54,0
13140,note_on,2,0,0,,,,,2,,,,,,,68,96
13140,note_on,0,0,0,,,,,3,,,,,,,56,96
13140,note_on,0,0,0,,,,,4,,,,,,,44,96
13140,note_on,0,0,0,,,,,6,,,,,,,56,96
13149,note_off,9,0,0,,,,,0,,,,,,,78,0
13149,note_off,0,0,0,,,,,1,,,,,,,73,0
13150,note_off,1,0,0,,,,,2,,,,,,,68,0
13150,note_off,0,0,0,,,,,3,,,,,,,56,0
13150,note_off,0,0,0,,,,,4,,,,,,,44,0
13150,note_off,0,0,0,,,,,6,,,,,,,56,0
13152,note_on,2,0,0,,,,,0,,,,,,,78,96
13152,note_on,0,0,0,,,,,1,,,,,,,73,96
13152,note_on,0,0,0,,,,,2,,,,,,,66,96
13152,note_on,0,0,0,,,,,3,,,,,,,57,96
13152,note_on,0,0,0,,,,,4,,,,,,,45,96
13152,note_on,0,0,0,,,,,6,,,,,,,57,96
13162,note_off,10,0,0,,,,,2,,,,,,,66,0
13162,note_off,0,0,0,,,,,3,,,,,,,57,0
13162,note_off,0,0,0,,,,,4,,,,,,,45,0
13162,note_off,0,0,0,,,,,6,,,,,,,57,0
13164,note_on,2,0,0,,,,,2,,,,,,,64,96
13164,note_on,0,0,0,,,,,3,,,,,,,54,96
13164,note_on,0,0,0,,,,,4,,,,,,,42,96
13164,note_on,0,0,0,,,,,6,,,,,,,54,96
13173,note_off,9,0,0,,,,,0,,,,,,,78,0
13173,note_off,0,0,0,,,,,1,,,,,,,73,0
13174,note_off,1,0,0,,,,,2,,,,,,,64,0
13174,note_off,0,0,0,,,,,3,,,,,,,54,0
13174,note_off,0,0,0,,,,,4,,,,,,,42,0
13174,note_off,0,0,0,,,,,5,,,,,,,81,0
13174,note_off,0,0,0,,,,,6,,,,,,,54,0
13176,note_on,2,0,0,,,,,0,,,,,,,78,96
13176,note_on,0,0,0,,,,,1,,,,,,,71,96
13176,note_on,0,0,0,,,,,2,,,,,,,63,96
13176,note_on,0,0,0,,,,,3,,,,,,,56,96
13176,note_on,0,0,0,,,,,4,,,,,,,44,96
13176,note_on,0,0,0,,,,,6,,,,,,,56,96
13184,note_on,8,0,0,,,,,5,,,,,,,80,96
13186,note_off,2,0,0,,,,,1,,,,,,,71,0
13188,note_on,2,0,0,,,,,1,,,,,,,69,96
13191,note_off,3,0,0,,,,,5,,,,,,,80,0
13192,note_on,1,0,0,,,,,5,,,,,,,78,96
13197,note_off,5,0,0,,,,,0,,,,,,,78,0
13197,note_off,0,0,0,,,,,2,,,,,,,63,0
13197,note_off,0,0,0,,,,,3,,,,,,,56,0
13197,note_off,0,0,0,,,,,4,,,,,,,44,0
13197,note_off,0,0,0,,,,,6,,,,,,,56,0
13198,note_off,1,0,0,,,,,1,,,,,,,69,0
13199,note_off,1,0,0,,,,,5,,,,,,,78,0
13200,note_on,1,0,0,,,,,0,,,,,,,80,96
13200,note_on,0,0,0,,,,,1,,,,,,,71,96
13200,note_on,0,0,0,,,,,2,,,,,,,63,96
13200,note_on,0,0,0,,,,,3,,,,,,,47,96
13200,note_on,0,0,0,,,,,4,,,,,,,35,96
13200,note_on,0,0,0,,,,,5,,,,,,,76,96
13200,note_on,0,0,0,,,,,6,,,,,,,47,96
13207,note_off,7,0,0,,,,,5,,,,,,,76,0
13208,note_on,1,0,0,,,,,5,,,,,,,75,96
13210,note_off,2,0,0,,,,,0,,,,,,,80,0
13210,note_off,0,0,0,,,,,1,,,,,,,71,0
13212,note_on,2,0,0,,,,,0,,,,,,,81,96
13212,note_on,0,0,0,,,,,1,,,,,,,73,96
13215,note_off,3,0,0,,,,,5,,,,,,,75,0
13216,note_on,1,0,0,,,,,5,,,,,,,73,96
13221,note_off,5,0,0,,,,,2,,,,,,,63,0
13221,note_off,0,0,0,,,,,3,,,,,,,47,0
13221,note_off,0,0,0,,,,,4,,,,,,,35,0
13221,note_off,0,0,0,,,,,6,,,,,,,47,0
13222,note_off,1,0,0,,,,,0,,,,,,,81,0
13222,note_off,0,0,0,,,,,1,,,,,,,73,0
13223,note_off,1,0,0,,,,,5,,,,,,,73,0
13224,note_on,1,0,0,,,,,0,,,,,,,83,96
13224,note_on,0,0,0,,,,,1,,,,,,,75,96
13224,note_on,0,0,0,,,,,2,,,,,,,63,96
13224,note_on,0,0,0,,,,,3,,,,,,,44,96
13224,note_on,0,0,0,,,,,4,,,,,,,32,96
13224,note_on,0,0,0,,,,,5,,,,,,,71,96
13224,note_on,0,0,0,,,,,6,,,,,,,44,96
13231,note_off,7,0,0,,,,,5,,,,,,,71,0
13232,note_on,1,0,0,,,,,5,,,,,,,73,96
13234,note_off,2,0,0,,,,,0,,,,,,,83,0
13234,note_off,0,0,0,,,,,1,,,,,,,75,0
13236,note_on,2,0,0,,,,,0,,,,,,,80,96
13236,note_on,0,0,0,,,,,1,,,,,,,71,96
13239,note_off,3,0,0,,,,,5,,,,,,,73,0
13240,note_on,1,0,0,,,,,5,,,,,,,75,96
13245,note_off,5,0,0,,,,,2,,,,,,,63,0
13245,note_off,0,0,0,,,,,3,,,,,,,44,0
13245,note_off,0,0,0,,,,,4,,,,,,,32,0
13245,note_off,0,0,0,,,,,6,,,,,,,44,0
13246,note_off,1,0,0,,,,,0,,,,,,,80,0
13246,note_off,0,0,0,,,,,1,,,,,,,71,0
13247,note_off,1,0,0,,,,,5,,,,,,,75,0
13248,note_on,1,0,0,,,,,0,,,,,,,76,96
13248,note_on,0,0,0,,,,,1,,,,,,,68,96
13248,note_on,0,0,0,,,,,2,,,,,,,64,96
13248,note_on,0,0,0,,,,,3,,,,,,,49,96
13248,note_on,0,0,0,,,,,4,,,,,,,37,96
13248,note_on,0,0,0,,,,,5,,,,,,,76,96
13248,note_on,0,0,0,,,,,6,,,,,,,49,96
13255,note_off,7,0,0,,,,,0,,,,,,,76,0
13255,note_off,0,0,0,,,,,5,,,,,,,76,0
13256,note_on,1,0,0,,,,,0,,,,,,,75,96
13256,note_on,0,0,0,,,,,5,,,,,,,75,96
13258,note_off,2,0,0,,,,,3,,,,,,,49,0
13258,note_off,0,0,0,,,,,4,,,,,,,37,0
13258,note_off,0,0,0,,,,,6,,,,,,,49,0
13260,note_on,2,0,0,,,,,3,,,,,,,47,96
13260,note_on,0,0,0,,,,,4,,,,,,,35,96
13260,note_on,0,0,0,,,,,6,,,,,,,47,96
13263,note_off,3,0,0,,,,,0,,,,,,,75,0
13263,note_off,0,0,0,,,,,5,,,,,,,75,0
13264,note_on,1,0,0,,,,,0,,,,,,,73,96
13264,note_on,0,0,0,,,,,5,,,,,,,73,96
13269,note_off,5,0,0,,,,,1,,,,,,,68,0
13269,note_off,0,0,0,,,,,2,,,,,,,64,0
13270,note_off,1,0,0,,,,,3,,,,,,,47,0
13270,note_off,0,0,0,,,,,4,,,,,,,35,0
13270,note_off,0,0,0,,,,,6,,,,,,,47,0
13271,note_off,1,0,0,,,,,0,,,,,,,73,0
13271,note_off,0,0,0,,,,,5,,,,,,,73,0
13272,note_on,1,0,0,,,,,0,,,,,,,76,96
13272,note_on,0,0,0,,,,,1,,,,,,,73,96
13272,note_on,0,0,0,,,,,2,,,,,,,68,96
13272,note_on,0,0,0,,,,,3,,,,,,,49,96
13272,note_on,0,0,0,,,,,4,,,,,,,37,96
13272,note_on,0,0,0,,,,,5,,,,,,,76,96
13272,note_on,0,0,0,,,,,6,,,,,,,49,96
13282,note_off,10,0,0,,,,,2,,,,,,,68,0
13282,note_off,0,0,0,,,,,3,,,,,,,49,0
13282,note_off,0,0,0,,,,,4,,,,,,,37,0
13282,note_off,0,0,0,,,,,6,,,,,,,49,0
13284,note_on,2,0,0,,,,,2,,,,,,,66,96
13284,note_on,0,0,0,,,,,3,,,,,,,51,96
13284,note_on,0,0,0,,,,,4,,,,,,,39,96
13284,note_on,0,0,0,,,,,6,,,,,,,51,96
13293,note_off,9,0,0,,,,,0,,,,,,,76,0
13293,note_off,0,0,0,,,,,1,,,,,,,73,0
13293,note_off,0,0,0,,,,,5,,,,,,,76,0
13294,note_off,1,0,0,,,,,2,,,,,,,66,0
13294,note_off,0,0,0,,,,,3,,,,,,,51,0
13294,note_off,0,0,0,,,,,4,,,,,,,39,0
13294,note_off,0,0,0,,,,,6,,,,,,,51,0
13296,note_on,2,0,0,,,,,0,,,,,,,76,96
13296,note_on,0,0,0,,,,,1,,,,,,,73,96
13296,note_on,0,0,0,,,,,2,,,,,,,68,96
13296,note_on,0,0,0,,,,,3,,,,,,,52,96
13296,note_on,0,0,0,,,,,4,,,,,,,40,96
13296,note_on,0,0,0,,,,,5,,,,,,,76,96
13296,note_on,0,0,0,,,,,6,,,,,,,52,96
13306,note_off,10,0,0,,,,,2,,,,,,,68,0
13306,note_off,0,0,0,,,,,3,,,,,,,52,0
13306,note_off,0,0,0,,,,,4,,,,,,,40,0
13306,note_off,0,0,0,,,,,6,,,,,,,52,0
13308,note_on,2,0,0,,,,,2,,,,,,,64,96
13308,note_on,0,0,0,,,,,3,,,,,,,49,96
13308,note_on,0,0,0,,,,,4,,,,,,,37,96
13308,note_on,0,0,0,,,,,6,,,,,,,49,96
13317,note_off,9,0,0,,,,,0,,,,,,,76,0
13317,note_off,0,0,0,,,,,1,,,,,,,73,0
13317,note_off,0,0,0,,,,,5,,,,,,,76,0
13318,note_off,1,0,0,,,,,2,,,,,,,64,0
13318,note_off,0,0,0,,,,,3,,,,,,,49,0
13318,note_off,0,0,0,,,,,4,,,,,,,37,0
13318,note_off,0,0,0,,,,,6,,,,,,,49,0
13320,note_on,2,0,0,,,,,0,,,,,,,76,96
13320,note_on,0,0,0,,,,,1,,,,,,,69,96
13320,note_on,0,0,0,,,,,2,,,,,,,61,96
13320,note_on,0,0,0,,,,,3,,,,,,,54,96
13320,note_on,0,0,0,,,,,4,,,,,,,42,96
13320,note_on,0,0,0,,,,,5,,,,,,,76,96
13320,note_on,0,0,0,,,,,6,,,,,,,54,96
13330,note_off,10,0,0,,,,,1,,,,,,,69,0
13332,note_on,2,0,0,,,,,1,,,,,,,68,96
13341,note_off,9,0,0,,,,,0,,,,,,,76,0
13341,note_off,0,0,0,,,,,2,,,,,,,61,0
13341,note_off,0,0,0,,,,,3,,,,,,,54,0
13341,note_off,0,0,0,,,,,4,,,,,,,42,0
13341,note_off,0,0,0,,,,,5,,,,,,,76,0
13341,note_off,0,0,0,,,,,6,,,,,,,54,0
13342,note_off,1,0,0,,,,,1,,,,,,,68,0
13344,note_on,2,0,0,,,,,0,,,,,,,78,96
13344,note_on,0,0,0,,,,,1,,,,,,,69,96
13344,note_on,0,0,0,,,,,2,,,,,,,61,96
13344,note_on,0,0,0,,,,,3,,,,,,,45,96
13344,note_on,0,0,0,,,,,4,,,,,,,33,96
13344,note_on,0,0,0,,,,,5,,,,,,,78,96
13344,note_on,0,0,0,,,,,6,,,,,,,45,96
13354,note_off,10,0,0,,,,,0,,,,,,,78,0
13354,note_off,0,0,0,,,,,1,,,,,,,69,0
13354,note_off,0,0,0,,,,,5,,,,,,,78,0
13356,note_on,2,0,0,,,,,0,,,,,,,80,96
13356,note_on,0,0,0,,,,,1,,,,,,,71,96
13356,note_on,0,0,0,,,,,5,,,,,,,80,96
13365,note_off,9,0,0,,,,,2,,,,,,,61,0
13365,note_off,0,0,0,,,,,3,,,,,,,45,0
13365,note_off,0,0,0,,,,,4,,,,,,,33,0
13365,note_off,0,0,0,,,,,6,,,,,,,45,0
13366,note_off,1,0,0,,,,,0,,,,,,,80,0
13366,note_off,0,0,0,,,,,1,,,,,,,71,0
13366,note_off,0,0,0,,,,,5,,,,,,,80,0
13368,note_on,2,0,0,,,,,0,,,,,,,81,96
13368,note_on,0,0,0,,,,,1,,,,,,,73,96
13368,note_on,0,0,0,,,,,2,,,,,,,66,96
13368,note_on,0,0,0,,,,,3,,,,,,,42,96
13368,note_on,0,0,0,,,,,4,,,,,,,30,96
13368,note_on,0,0,0,,,,,5,,,,,,,81,96
13368,note_on,0,0,0,,,,,6,,,,,,,42,96
13378,note_off,10,0,0,,,,,0,,,,,,,81,0
13378,note_off,0,0,0,,,,,1,,,,,,,73,0
13378,note_off,0,0,0,,,,,5,,,,,,,81,0
13380,note_on,2,0,0,,,,,0,,,,,,,78,96
13380,note_on,0,0,0,,,,,1,,,,,,,69,96
13380,note_on,0,0,0,,,,,5,,,,,,,78,96
13389,note_off,9,0,0,,,,,2,,,,,,,66,0
13389,note_off,0,0,0,,,,,3,,,,,,,42,0
13389,note_off,0,0,0,,,,,4,,,,,,,30,0
13389,note_off,0,0,0,,,,,6,,,,,,,42,0
13390,note_off,1,0,0,,,,,0,,,,,,,78,0
13390,note_off,0,0,0,,,,,1,,,,,,,69,0
13390,note_off,0,0,0,,,,,5,,,,,,,78,0
13392,note_on,2,0,0,,,,,0,,,,,,,75,96
13392,note_on,0,0,0,,,,,1,,,,,,,66,96
13392,note_on,0,0,0,,,,,2,,,,,,,66,96
13392,note_on,0,0,0,,,,,3,,,,,,,47,96
13392,note_on,0,0,0,,,,,4,,,,,,,35,96
13392,note_on,0,0,0,,,,,5,,,,,,,75,96
13392,note_on,0,0,0,,,,,6,,,,,,,47,96
13402,note_off,10,0,0,,,,,5,,,,,,,75,0
13404,note_on,2,0,0,,,,,5,,,,,,,71,96
13413,note_off,9,0,0,,,,,0,,,,,,,75,0
13413,note_off,0,0,0,,,,,1,,,,,,,66,0
13413,note_off,0,0,0,,,,,2,,,,,,,66,0
13413,note_off,0,0,0,,,,,3,,,,,,,47,0
13413,note_off,0,0,0,,,,,4,,,,,,,35,0
13413,note_off,0,0,0,,,,,6,,,,,,,47,0
13416,note_on,3,0,0,,,,,0,,,,,,,75,80
13416,note_on,0,0,0,,,,,1,,,,,,,66,80
13416,note_on,0,0,0,,,,,2,,,,,,,59,80
13416,note_on,0,0,0,,,,,3,,,,,,,59,80
13416,note_on,0,0,0,,,,,4,,,,,,,47,80
13416,note_off,0,0,0,,,,,5,,,,,,,71,0
13416,note_on,0,0,0,,,,,5,,,,,,,70,96
13416,note_on,0,0,0,,,,,6,,,,,,,59,96
13428,note_off,12,0,0,,,,,5,,,,,,,70,0
13428,note_on,0,0,0,,,,,5,,,,,,,71,96
13437,note_off,9,0,0,,,,,0,,,,,,,75,0
13437,note_off,0,0,0,,,,,1,,,,,,,66,0
13437,note_off,0,0,0,,,,,2,,,,,,,59,0
13437,note_off,0,0,0,,,,,3,,,,,,,59,0
13437,note_off,0,0,0,,,,,4,,,,,,,47,0
13437,note_off,0,0,0,,,,,6,,,,,,,59,0
13440,note_on,3,0,0,,,,,0,,,,,,,76,80
13440,note_on,0,0,0,,,,,1,,,,,,,68,80
13440,note_off,0,0,0,,,,,5,,,,,,,71,0
13440,note_on,0,0,0,,,,,5,,,,,,,73,96
13452,note_off,12,0,0,,,,,5,,,,,,,73,0
13452,note_on,0,0,0,,,,,5,,,,,,,71,96
13461,note_off,9,0,0,,,,,0,,,,,,,76,0
13461,note_off,0,0,0,,,,,1,,,,,,,68,0
13462,note_off,1,0,0,,,,,5,,,,,,,71,0
13464,note_on,2,0,0,,,,,2,,,,,,,66,80
13464,note_on,0,0,0,,,,,3,,,,,,,47,80
13464,note_on,0,0,0,,,,,4,,,,,,,35,80
13464,note_on,0,0,0,,,,,5,,,,,,,75,96
13464,note_on,0,0,0,,,,,6,,,,,,,47,96
13474,note_off,10,0,0,,,,,5,,,,,,,75,0
13476,note_on,2,0,0,,,,,5,,,,,,,71,96
13485,note_off,9,0,0,,,,,2,,,,,,,66,0
13485,note_off,0,0,0,,,,,3,,,,,,,47,0
13485,note_off,0,0,0,,,,,4,,,,,,,35,0
13485,note_off,0,0,0,,,,,6,,,,,,,47,0
13488,note_on,3,0,0,,,,,0,,,,,,,78,80
13488,note_on,0,0,0,,,,,1,,,,,,,63,80
13488,note_on,0,0,0,,,,,2,,,,,,,59,80
13488,note_on,0,0,0,,,,,3,,,,,,,59,80
13488,note_on,0,0,0,,,,,4,,,,,,,47,80
13488,note_off,0,0,0,,,,,5,,,,,,,71,0
13488,note_on,0,0,0,,,,,5,,,,,,,70,96
13488,note_on,0,0,0,,,,,6,,,,,,,59,96
13500,note_off,12,0,0,,,,,5,,,,,,,70,0
13500,note_on,0,0,0,,,,,5,,,,,,,71,96
13509,note_off,9,0,0,,,,,0,,,,,,,78,0
13509,note_off,0,0,0,,,,,1,,,,,,,63,0
13509,note_off,0,0,0,,,,,2,,,,,,,59,0
13509,note_off,0,0,0,,,,,3,,,,,,,59,0
13509,note_off,0,0,0,,,,,4,,,,,,,47,0
13509,note_off,0,0,0,,,,,6,,,,,,,59,0
13512,note_on,3,0,0,,,,,0,,,,,,,80,80
13512,note_on,0,0,0,,,,,1,,,,,,,71,80
13512,note_off,0,0,0,,,,,5,,,,,,,71,0
13512,note_on,0,0,0,,,,,5,,,,,,,76,96
13524,note_off,12,0,0,,,,,5,,,,,,,76,0
13524,note_on,0,0,0,,,,,5,,,,,,,71,96
13533,note_off,9,0,0,,,,,0,,,,,,,80,0
13533,note_off,0,0,0,,,,,1,,,,,,,71,0
13534,note_off,1,0,0,,,,,5,,,,,,,71,0
13536,note_on,2,0,0,,,,,2,,,,,,,63,80
13536,note_on,0,0,0,,,,,3,,,,,,,47,80
13536,note_on,0,0,0,,,,,4,,,,,,,35,80
13536,note_on,0,0,0,,,,,5,,,,,,,78,96
13536,note_on,0,0,0,,,,,6,,,,,,,47,96
13546,note_off,10,0,0,,,,,5,,,,,,,78,0
13548,note_on,2,0,0,,,,,5,,,,,,,71,96
13557,note_off,9,0,0,,,,,2,,,,,,,63,0
13557,note_off,0,0,0,,,,,3,,,,,,,47,0
13557,note_off,0,0,0,,,,,4,,,,,,,35,0
13557,note_off,0,0,0,,,,,6,,,,,,,47,0
13560,note_on,3,0,0,,,,,0,,,,,,,75,80
13560,note_on,0,0,0,,,,,1,,,,,,,66,80
13560,note_on,0,0,0,,,,,2,,,,,,,66,80
13560,note_on,0,0,0,,,,,3,,,,,,,59,80
13560,note_on,0,0,0,,,,,4,,,,,,,47,80
13560,note_off,0,0,0,,,,,5,,,,,,,71,0
13560,note_on,0,0,0,,,,,5,,,,,,,70,96
13560,note_on,0,0,0,,,,,6,,,,,,,59,96
13572,note_off,12,0,0,,,,,5,,,,,,,70,0
13572,note_on,0,0,0,,,,,5,,,,,,,71,96
13581,note_off,9,0,0,,,,,0,,,,,,,75,0
13581,note_off,0,0,0,,,,,1,,,,,,,66,0
13581,note_off,0,0,0,,,,,2,,,,,,,66,0
13581,note_off,0,0,0,,,,,3,,,,,,,59,0
13581,note_off,0,0,0,,,,,4,,,,,,,47,0
13581,note_off,0,0,0,,,,,6,,,,,,,59,0
13584,note_on,3,0,0,,,,,0,,,,,,,76,80
13584,note_on,0,0,0,,,,,1,,,,,,,71,80
13584,note_off,0,0,0,,,,,5,,,,,,,71,0
13584,note_on,0,0,0,,,,,5,,,,,,,80,96
13596,note_off,12,0,0,,,,,5,,,,,,,80,0
13596,note_on,0,0,0,,,,,5,,,,,,,71,96
13605,note_off,9,0,0,,,,,0,,,,,,,76,0
13605,note_off,0,0,0,,,,,1,,,,,,,71,0
13606,note_off,1,0,0,,,,,5,,,,,,,71,0
13608,note_on,2,0,0,,,,,2,,,,,,,63,80
13608,note_on,0,0,0,,,,,3,,,,,,,47,80
13608,note_on,0,0,0,,,,,4,,,,,,,35,80
13608,note_on,0,0,0,,,,,5,,,,,,,81,96
13608,note_on,0,0,0,,,,,6,,,,,,,47,96
13618,note_off,10,0,0,,,,,5,,,,,,,81,0
13620,note_on,2,0,0,,,,,5,,,,,,,71,96
13629,note_off,9,0,0,,,,,2,,,,,,,63,0
13629,note_off,0,0,0,,,,,3,,,,,,,47,0
13629,note_off,0,0,0,,,,,4,,,,,,,35,0
13629,note_off,0,0,0,,,,,6,,,,,,,47,0
13630,note_off,1,0,0,,,,,5,,,,,,,71,0
13632,note_on,2,0,0,,,,,0,,,,,,,76,80
13632,note_on,0,0,0,,,,,1,,,,,,,71,80
13632,note_on,0,0,0,,,,,2,,,,,,,59,80
13632,note_on,0,0,0,,,,,3,,,,,,,59,80
13632,note_on,0,0,0,,,,,4,,,,,,,47,80
13632,note_on,0,0,0,,,,,5,,,,,,,80,96
13632,note_on,0,0,0,,,,,6,,,,,,,59,96
13642,note_off,10,0,0,,,,,5,,,,,,,80,0
13644,note_on,2,0,0,,,,,5,,,,,,,71,96
13653,note_off,9,0,0,,,,,0,,,,,,,76,0
13653,note_off,0,0,0,,,,,1,,,,,,,71,0
13653,note_off,0,0,0,,,,,2,,,,,,,59,0
13653,note_off,0,0,0,,,,,3,,,,,,,59,0
13653,note_off,0,0,0,,,,,4,,,,,,,47,0
13653,note_off,0,0,0,,,,,6,,,,,,,59,0
13654,note_off,1,0,0,,,,,5,,,,,,,71,0
13656,note_on,2,0,0,,,,,0,,,,,,,75,80
13656,note_on,0,0,0,,,,,1,,,,,,,71,80
13656,note_on,0,0,0,,,,,5,,,,,,,78,96
13666,note_off,10,0,0,,,,,5,,,,,,,78,0
13668,note_on,2,0,0,,,,,5,,,,,,,71,96
13677,note_off,9,0,0,,,,,0,,,,,,,75,0
13677,note_off,0,0,0,,,,,1,,,,,,,71,0
13678,note_off,1,0,0,,,,,5,,,,,,,71,0
13680,note_on,2,0,0,,,,,0,,,,,,,76,80
13680,note_on,0,0,0,,,,,1,,,,,,,71,80
13680,note_on,0,0,0,,,,,5,,,,,,,80,96
13680,note_on,0,0,0,,,,,6,,,,,,,52,96
13687,note_off,7,0,0,,,,,5,,,,,,,80,0
13688,note_on,1,0,0,,,,,5,,,,,,,83,96
13695,note_off,7,0,0,,,,,5,,,,,,,83,0
13696,note_on,1,0,0,,,,,5,,,,,,,80,96
13701,note_off,5,0,0,,,,,0,,,,,,,76,0
13701,note_off,0,0,0,,,,,1,,,,,,,71,0
13701,note_off,0,0,0,,,,,6,,,,,,,52,0
13703,note_off,2,0,0,,,,,5,,,,,,,80,0
13704,note_on,1,0,0,,,,,0,,,,,,,64,96
13704,note_on,0,0,0,,,,,1,,,,,,,59,96
13704,note_on,0,0,0,,,,,2,,,,,,,56,96
13704,note_on,0,0,0,,,,,3,,,,,,,52,96
13704,note_on,0,0,0,,,,,4,,,,,,,40,96
13704,note_on,0,0,0,,,,,5,,,,,,,76,96
13711,note_off,7,0,0,,,,,5,,,,,,,76,0
13712,note_on,1,0,0,,,,,5,,,,,,,71,96
13719,note_off,7,0,0,,,,,5,,,,,,,71,0
13720,note_on,1,0,0,,,,,5,,,,,,,68,96
13725,note_off,5,0,0,,,,,0,,,,,,,64,0
13725,note_off,0,0,0,,,,,1,,,,,,,59,0
13725,note_off,0,0,0,,,,,2,,,,,,,56,0
13725,note_off,0,0,0,,,,,3,,,,,,,52,0
13725,note_off,0,0,0,,,,,4,,,,,,,40,0
13727,note_off,2,0,0,,,,,5,,,,,,,68,0
13728,note_on,1,0,0,,,,,0,,,,,,,68,96
13728,note_on,0,0,0,,,,,1,,,,,,,64,96
13728,note_on,0,0,0,,,,,2,,,,,,,59,96
13728,note_on,0,0,0,,,,,3,,,,,,,52,96
13728,note_on,0,0,0,,,,,4,,,,,,,40,96
13728,note_on,0,0,0,,,,,5,,,,,,,64,96
13735,note_off,7,0,0,,,,,5,,,,,,,64,0
13736,note_on,1,0,0,,,,,5,,,,,,,59,96
13743,note_off,7,0,0,,,,,5,,,,,,,59,0
13744,note_on,1,0,0,,,,,5,,,,,,,56,96
13749,note_off,5,0,0,,,,,0,,,,,,,68,0
13749,note_off,0,0,0,,,,,1,,,,,,,64,0
13749,note_off,0,0,0,,,,,2,,,,,,,59,0
13749,note_off,0,0,0,,,,,3,,,,,,,52,0
13749,note_off,0,0,0,,,,,4,,,,,,,40,0
13751,note_off,2,0,0,,,,,5,,,,,,,56,0
13752,note_on,1,0,0,,,,,0,,,,,,,71,96
13752,note_on,0,0,0,,,,,1,,,,,,,68,96
13752,note_on,0,0,0,,,,,2,,,,,,,64,96
13752,note_on,0,0,0,,,,,3,,,,,,,52,96
13752,note_on,0,0,0,,,,,4,,,,,,,40,96
13752,note_on,0,0,0,,,,,6,,,,,,,52,96
13759,note_off,7,0,0,,,,,6,,,,,,,52,0
13760,note_on,1,0,0,,,,,6,,,,,,,76,96
13767,note_off,7,0,0,,,,,6,,,,,,,76,0
13768,note_on,1,0,0,,,,,6,,,,,,,71,96
13773,note_off,5,0,0,,,,,0,,,,,,,71,0
13773,note_off,0,0,0,,,,,1,,,,,,,68,0
13773,note_off,0,0,0,,,,,2,,,,,,,64,0
13773,note_off,0,0,0,,,,,3,,,,,,,52,0
13773,note_off,0,0,0,,,,,4,,,,,,,40,0
13775,note_off,2,0,0,,,,,6,,,,,,,71,0
13776,note_on,1,0,0,,,,,0,,,,,,,64,96
13776,note_on,0,0,0,,,,,1,,,,,,,71,96
13776,note_on,0,0,0,,,,,2,,,,,,,68,96
13776,note_on,0,0,0,,,,,3,,,,,,,52,96
13776,note_on,0,0,0,,,,,4,,,,,,,40,96
13776,note_on,0,0,0,,,,,6,,,,,,,68,96
13783,note_off,7,0,0,,,,,6,,,,,,,68,0
13784,note_on,1,0,0,,,,,6,,,,,,,64,96
13786,note_off,2,0,0,,,,,0,,,,,,,64,0
13788,note_on,2,0,0,,,,,0,,,,,,,66,96
13791,note_off,3,0,0,,,,,6,,,,,,,64,0
13792,note_on,1,0,0,,,,,6,,,,,,,59,96
13797,note_off,5,0,0,,,,,1,,,,,,,71,0
13797,note_off,0,0,0,,,,,2,,,,,,,68,0
13797,note_off,0,0,0,,,,,3,,,,,,,52,0
13797,note_off,0,0,0,,,,,4,,,,,,,40,0
13798,note_off,1,0,0,,,,,0,,,,,,,66,0
13799,note_off,1,0,0,,,,,6,,,,,,,59,0
13800,note_on,1,0,0,,,,,0,,,,,,,68,96
13800,note_on,0,0,0,,,,,1,,,,,,,64,96
13800,note_on,0,0,0,,,,,2,,,,,,,71,96
13800,note_on,0,0,0,,,,,3,,,,,,,52,96
13800,note_on,0,0,0,,,,,4,,,,,,,40,96
13800,note_on,0,0,0,,,,,6,,,,,,,56,96
13807,note_off,7,0,0,,,,,6,,,,,,,56,0
13808,note_on,1,0,0,,,,,6,,,,,,,52,96
13810,note_off,2,0,0,,,,,0,,,,,,,68,0
13810,note_off,0,0,0,,,,,1,,,,,,,64,0
13812,note_on,2,0,0,,,,,0,,,,,,,69,96
13812,note_on,0,0,0,,,,,1,,,,,,,66,96
13815,note_off,3,0,0,,,,,6,,,,,,,52,0
13816,note_on,1,0,0,,,,,6,,,,,,,47,96
13821,note_off,5,0,0,,,,,2,,,,,,,71,0
13821,note_off,0,0,0,,,,,3,,,,,,,52,0
13821,note_off,0,0,0,,,,,4,,,,,,,40,0
13822,note_off,1,0,0,,,,,0,,,,,,,69,0
13822,note_off,0,0,0,,,,,1,,,,,,,66,0
13823,note_off,1,0,0,,,,,6,,,,,,,47,0
13824,note_on,1,0,0,,,,,0,,,,,,,71,96
13824,note_on,0,0,0,,,,,1,,,,,,,68,96
13824,note_on,0,0,0,,,,,2,,,,,,,64,96
13824,note_on,0,0,0,,,,,3,,,,,,,52,96
13824,note_on,0,0,0,,,,,4,,,,,,,40,96
13824,note_on,0,0,0,,,,,6,,,,,,,40,96
13832,note_on,8,0,0,,,,,5,,,,,,,68,96
13834,note_off,2,0,0,,,,,1,,,,,,,68,0
13834,note_off,0,0,0,,,,,2,,,,,,,64,0
13836,note_on,2,0,0,,,,,1,,,,,,,69,96
13836,note_on,0,0,0,,,,,2,,,,,,,66,96
13839,note_off,3,0,0,,,,,5,,,,,,,68,0
13840,note_on,1,0,0,,,,,5,,,,,,,71,96
13845,note_off,5,0,0,,,,,0,,,,,,,71,0
13845,note_off,0,0,0,,,,,3,,,,,,,52,0
13845,note_off,0,0,0,,,,,4,,,,,,,40,0
13845,note_off,0,0,0,,,,,6,,,,,,,40,0
13846,note_off,1,0,0,,,,,1,,,,,,,69,0
13846,note_off,0,0,0,,,,,2,,,,,,,66,0
13847,note_off,1,0,0,,,,,5,,,,,,,71,0
13848,note_on,1,0,0,,,,,0,,,,,,,76,96
13848,note_on,0,0,0,,,,,1,,,,,,,71,96
13848,note_on,0,0,0,,,,,2,,,,,,,68,96
13848,note_on,0,0,0,,,,,3,,,,,,,52,96
13848,note_on,0,0,0,,,,,4,,,,,,,40,96
13848,note_on,0,0,0,,,,,5,,,,,,,76,96
13848,note_on,0,0,0,,,,,6,,,,,,,59,96
13848,note_on,0,0,0,,,,,6,,,,,,,56,96
13848,note_on,0,0,0,,,,,6,,,,,,,52,96
13855,note_off,7,0,0,,,,,5,,,,,,,76,0
13856,note_on,1,0,0,,,,,5,,,,,,,71,96
13858,note_off,2,0,0,,,,,2,,,,,,,68,0
13860,note_on,2,0,0,,,,,2,,,,,,,69,96
13863,note_off,3,0,0,,,,,5,,,,,,,71,0
13864,note_on,1,0,0,,,,,5,,,,,,,76,96
13869,note_off,5,0,0,,,,,0,,,,,,,76,0
13869,note_off,0,0,0,,,,,1,,,,,,,71,0
13869,note_off,0,0,0,,,,,3,,,,,,,52,0
13869,note_off,0,0,0,,,,,4,,,,,,,40,0
13869,note_off,0,0,0,,,,,6,,,,,,,59,0
13869,note_off,0,0,0,,,,,6,,,,,,,56,0
13869,note_off,0,0,0,,,,,6,,,,,,,52,0
13870,note_off,1,0,0,,,,,2,,,,,,,69,0
13871,note_off,1,0,0,,,,,5,,,,,,,76,0
13872,note_on,1,0,0,,,,,0,,,,,,,80,96
13872,note_on,0,0,0,,,,,1,,,,,,,76,96
13872,note_on,0,0,0,,,,,2,,,,,,,71,96
13872,note_on,0,0,0,,,,,3,,,,,,,52,96
13872,note_on,0,0,0,,,,,4,,,,,,,40,96
13872,note_on,0,0,0,,,,,5,,,,,,,80,96
13872,note_on,0,0,0,,,,,6,,,,,,,59,96
13872,note_on,0,0,0,,,,,6,,,,,,,56,96
13872,note_on,0,0,0,,,,,6,,,,,,,52,96
13879,note_off,7,0,0,,,,,5,,,,,,,80,0
13880,note_on,1,0,0,,,,,5,,,,,,,76,96
13887,note_off,7,0,0,,,,,5,,,,,,,76,0
13888,note_on,1,0,0,,,,,5,,,,,,,80,96
13893,note_off,5,0,0,,,,,0,,,,,,,80,0
13893,note_off,0,0,0,,,,,1,,,,,,,76,0
13893,note_off,0,0,0,,,,,2,,,,,,,71,0
13893,note_off,0,0,0,,,,,3,,,,,,,52,0
13893,note_off,0,0,0,,,,,4,,,,,,,40,0
13893,note_off,0,0,0,,,,,6,,,,,,,59,0
13893,note_off,0,0,0,,,,,6,,,,,,,56,0
13893,note_off,0,0,0,,,,,6,,,,,,,52,0
13895,note_off,2,0,0,,,,,5,,,,,,,80,0
13896,note_on,1,0,0,,,,,0,,,,,,,83,96
13896,note_on,0,0,0,,,,,1,,,,,,,80,96
13896,note_on,0,0,0,,,,,2,,,,,,,76,96
13896,note_on,0,0,0,,,,,3,,,,,,,52,96
13896,note_on,0,0,0,,,,,4,,,,,,,40,96
13896,note_on,0,0,0,,,,,5,,,,,,,83,96
13896,note_on,0,0,0,,,,,6,,,,,,,59,96
13896,note_on,0,0,0,,,,,6,,,,,,,56,96
13896,note_on,0,0,0,,,,,6,,,,,,,52,96
13917,note_off,21,0,0,,,,,0,,,,,,,83,0
13917,note_off,0,0,0,,,,,1,,,,,,,80,0
13917,note_off,0,0,0,,,,,2,,,,,,,76,0
13917,note_off,0,0,0,,,,,3,,,,,,,52,0
13917,note_off,0,0,0,,,,,4,,,,,,,40,0
13917,note_off,0,0,0,,,,,5,,,,,,,83,0
13917,note_off,0,0,0,,,,,6,,,,,,,59,0
13917,note_off,0,0,0,,,,,6,,,,,,,56,0
13917,note_off,0,0,0,,,,,6,,,,,,,52,0
13920,note_on,3,0,0,,,,,0,,,,,,,81,96
13920,note_on,0,0,0,,,,,1,,,,,,,76,96
13920,note_on,0,0,0,,,,,2,,,,,,,64,96
13920,note_on,0,0,0,,,,,3,,,,,,,49,96
13920,note_on,0,0,0,,,,,4,,,,,,,37,96
13920,note_on,0,0,0,,,,,5,,,,,,,81,96
13920,note_on,0,0,0,,,,,6,,,,,,,49,96
13930,note_off,10,0,0,,,,,0,,,,,,,81,0
13930,note_off,0,0,0,,,,,5,,,,,,,81,0
13932,note_on,2,0,0,,,,,0,,,,,,,80,96
13932,note_on,0,0,0,,,,,5,,,,,,,80,96
13941,note_off,9,0,0,,,,,1,,,,,,,76,0
13941,note_off,0,0,0,,,,,2,,,,,,,64,0
13941,note_off,0,0,0,,,,,3,,,,,,,49,0
13941,note_off,0,0,0,,,,,4,,,,,,,37,0
13941,note_off,0,0,0,,,,,6,,,,,,,49,0
13942,note_off,1,0,0,,,,,0,,,,,,,80,0
13942,note_off,0,0,0,,,,,5,,,,,,,80,0
13944,note_on,2,0,0,,,,,0,,,,,,,78,96
13944,note_on,0,0,0,,,,,1,,,,,,,73,96
13944,note_on,0,0,0,,,,,2,,,,,,,69,96
13944,note_on,0,0,0,,,,,3,,,,,,,45,96
13944,note_on,0,0,0,,,,,4,,,,,,,33,96
13944,note_on,0,0,0,,,,,5,,,,,,,78,96
13944,note_on,0,0,0,,,,,6,,,,,,,45,96
13954,note_off,10,0,0,,,,,0,,,,,,,78,0
13954,note_off,0,0,0,,,,,5,,,,,,,78,0
13956,note_on,2,0,0,,,,,0,,,,,,,76,96
13956,note_on,0,0,0,,,,,5,,,,,,,76,96
13965,note_off,9,0,0,,,,,1,,,,,,,73,0
13965,note_off,0,0,0,,,,,2,,,,,,,69,0
13965,note_off,0,0,0,,,,,3,,,,,,,45,0
13965,note_off,0,0,0,,,,,4,,,,,,,33,0
13965,note_off,0,0,0,,,,,6,,,,,,,45,0
13966,note_off,1,0,0,,,,,0,,,,,,,76,0
13966,note_off,0,0,0,,,,,5,,,,,,,76,0
13968,note_on,2,0,0,,,,,0,,,,,,,75,96
13968,note_on,0,0,0,,,,,1,,,,,,,71,96
13968,note_on,0,0,0,,,,,2,,,,,,,66,96
13968,note_on,0,0,0,,,,,3,,,,,,,47,96
13968,note_on,0,0,0,,,,,4,,,,,,,35,96
13968,note_on,0,0,0,,,,,5,,,,,,,75,96
13968,note_on,0,0,0,,,,,6,,,,,,,47,96
13978,note_off,10,0,0,,,,,5,,,,,,,75,0
13980,note_on,2,0,0,,,,,5,,,,,,,71,96
13985,note_off,5,0,0,,,,,5,,,,,,,71,0
13986,note_on,1,0,0,,,,,5,,,,,,,73,96
13989,note_off,3,0,0,,,,,0,,,,,,,75,0
13989,note_off,0,0,0,,,,,1,,,,,,,71,0
13989,note_off,0,0,0,,,,,2,,,,,,,66,0
13989,note_off,0,0,0,,,,,3,,,,,,,47,0
13989,note_off,0,0,0,,,,,4,,,,,,,35,0
13991,note_off,2,0,0,,,,,5,,,,,,,73,0
13992,note_on,1,0,0,,,,,5,,,,,,,75,96
13999,note_off,7,0,0,,,,,6,,,,,,,47,0
14002,note_off,3,0,0,,,,,5,,,,,,,75,0
14004,note_on,2,0,0,,,,,5,,,,,,,76,96
14004,note_on,0,0,0,,,,,6,,,,,,,49,96
14014,note_off,10,0,0,,,,,5,,,,,,,76,0
14014,note_off,0,0,0,,,,,6,,,,,,,49,0
14016,note_on,2,0,0,,,,,5,,,,,,,78,96
14016,note_on,0,0,0,,,,,6,,,,,,,51,96
14026,note_off,10,0,0,,,,,5,,,,,,,78,0
14026,note_off,0,0,0,,,,,6,,,,,,,51,0
14028,note_on,2,0,0,,,,,5,,,,,,,80,96
14028,note_on,0,0,0,,,,,6,,,,,,,52,96
14038,note_off,10,0,0,,,,,5,,,,,,,80,0
14038,note_off,0,0,0,,,,,6,,,,,,,52,0
14040,note_on,2,0,0,,,,,5,,,,,,,69,96
14040,note_on,0,0,0,,,,,6,,,,,,,54,96
14050,note_off,10,0,0,,,,,5,,,,,,,69,0
14050,note_off,0,0,0,,,,,6,,,,,,,54,0
14052,note_on,2,0,0,,,,,5,,,,,,,68,96
14052,note_on,0,0,0,,,,,6,,,,,,,52,96
14062,note_off,10,0,0,,,,,5,,,,,,,68,0
14062,note_off,0,0,0,,,,,6,,,,,,,52,0
14064,note_on,2,0,0,,,,,5,,,,,,,69,96
14064,note_on,0,0,0,,,,,6,,,,,,,54,96
14074,note_off,10,0,0,,,,,5,,,,,,,69,0
14074,note_off,0,0,0,,,,,6,,,,,,,54,0
14076,note_on,2,0,0,,,,,5,,,,,,,73,96
14076,note_on,0,0,0,,,,,6,,,,,,,56,96
14086,note_off,10,0,0,,,,,5,,,,,,,73,0
14086,note_off,0,0,0,,,,,6,,,,,,,56,0
14088,note_on,2,0,0,,,,,5,,,,,,,78,96
14088,note_on,0,0,0,,,,,6,,,,,,,57,96
14098,note_off,10,0,0,,,,,6,,,,,,,57,0
14100,note_on,2,0,0,,,,,6,,,,,,,54,96
14110,note_off,10,0,0,,,,,6,,,,,,,54,0
14112,note_on,2,0,0,,,,,6,,,,,,,59,96
14119,note_off,7,0,0,,,,,5,,,,,,,78,0
14122,note_off,3,0,0,,,,,6,,,,,,,59,0
14124,note_on,2,0,0,,,,,5,,,,,,,76,96
14124,note_on,0,0,0,,,,,6,,,,,,,58,96
14134,note_off,10,0,0,,,,,5,,,,,,,76,0
14134,note_off,0,0,0,,,,,6,,,,,,,58,0
14136,note_on,2,0,0,,,,,5,,,,,,,75,96
14136,note_on,0,0,0,,,,,6,,,,,,,59,96
14146,note_off,10,0,0,,,,,5,,,,,,,75,0
14146,note_off,0,0,0,,,,,6,,,,,,,59,0
14148,note_on,2,0,0,,,,,5,,,,,,,73,96
14148,note_on,0,0,0,,,,,6,,,,,,,61,96
14158,note_off,10,0,0,,,,,5,,,,,,,73,0
14158,note_off,0,0,0,,,,,6,,,,,,,61,0
14160,note_on,2,0,0,,,,,5,,,,,,,71,96
14160,note_on,0,0,0,,,,,6,,,,,,,63,96
14170,note_off,10,0,0,,,,,5,,,,,,,71,0
14170,note_off,0,0,0,,,,,6,,,,,,,63,0
14172,note_on,2,0,0,,,,,5,,,,,,,69,96
14172,note_on,0,0,0,,,,,6,,,,,,,59,96
14182,note_off,10,0,0,,,,,5,,,,,,,69,0
14182,note_off,0,0,0,,,,,6,,,,,,,59,0
14184,note_on,2,0,0,,,,,5,,,,,,,68,96
14184,note_on,0,0,0,,,,,6,,,,,,,64,96
14192,note_off,8,0,0,,,,,5,,,,,,,68,0
14192,note_on,0,0,0,,,,,5,,,,,,,66,96
14200,note_off,8,0,0,,,,,5,,,,,,,66,0
14200,note_on,0,0,0,,,,,5,,,,,,,64,96
14205,note_off,5,0,0,,,,,6,,,,,,,64,0
14207,note_off,2,0,0,,,,,5,,,,,,,64,0
14208,note_on,1,0,0,,,,,0,,,,,,,83,96
14208,note_on,0,0,0,,,,,1,,,,,,,64,96
14208,note_on,0,0,0,,,,,2,,,,,,,68,96
14208,note_on,0,0,0,,,,,3,,,,,,,52,96
14208,note_on,0,0,0,,,,,4,,,,,,,40,96
14208,note_on,0,0,0,,,,,5,,,,,,,83,96
14208,note_on,0,0,0,,,,,6,,,,,,,52,96
14218,note_off,10,0,0,,,,,1,,,,,,,64,0
14218,note_off,0,0,0,,,,,3,,,,,,,52,0
14218,note_off,0,0,0,,,,,4,,,,,,,40,0
14218,note_off,0,0,0,,,,,6,,,,,,,52,0
14220,note_on,2,0,0,,,,,1,,,,,,,66,96
14220,note_on,0,0,0,,,,,3,,,,,,,51,96
14220,note_on,0,0,0,,,,,4,,,,,,,39,96
14220,note_on,0,0,0,,,,,6,,,,,,,51,96
14229,note_off,9,0,0,,,,,0,,,,,,,83,0
14229,note_off,0,0,0,,,,,2,,,,,,,68,0
14229,note_off,0,0,0,,,,,5,,,,,,,83,0
14230,note_off,1,0,0,,,,,1,,,,,,,66,0
14230,note_off,0,0,0,,,,,3,,,,,,,51,0
14230,note_off,0,0,0,,,,,4,,,,,,,39,0
14230,note_off,0,0,0,,,,,6,,,,,,,51,0
14232,note_on,2,0,0,,,,,0,,,,,,,80,96
14232,note_on,0,0,0,,,,,1,,,,,,,68,96
14232,note_on,0,0,0,,,,,2,,,,,,,64,96
14232,note_on,0,0,0,,,,,3,,,,,,,52,96
14232,note_on,0,0,0,,,,,4,,,,,,,40,96
14232,note_on,0,0,0,,,,,5,,,,,,,80,96
14232,note_on,0,0,0,,,,,6,,,,,,,52,96
14242,note_off,10,0,0,,,,,1,,,,,,,68,0
14242,note_off,0,0,0,,,,,3,,,,,,,52,0
14242,note_off,0,0,0,,,,,4,,,,,,,40,0
14242,note_off,0,0,0,,,,,6,,,,,,,52,0
14244,note_on,2,0,0,,,,,1,,,,,,,69,96
14244,note_on,0,0,0,,,,,3,,,,,,,54,96
14244,note_on,0,0,0,,,,,4,,,,,,,42,96
14244,note_on,0,0,0,,,,,6,,,,,,,54,96
14253,note_off,9,0,0,,,,,0,,,,,,,80,0
14253,note_off,0,0,0,,,,,2,,,,,,,64,0
14253,note_off,0,0,0,,,,,5,,,,,,,80,0
14254,note_off,1,0,0,,,,,1,,,,,,,69,0
14254,note_off,0,0,0,,,,,3,,,,,,,54,0
14254,note_off,0,0,0,,,,,4,,,,,,,42,0
14254,note_off,0,0,0,,,,,6,,,,,,,54,0
14256,note_on,2,0,0,,,,,0,,,,,,,76,96
14256,note_on,0,0,0,,,,,1,,,,,,,71,96
14256,note_on,0,0,0,,,,,2,,,,,,,59,96
14256,note_on,0,0,0,,,,,3,,,,,,,56,96
14256,note_on,0,0,0,,,,,4,,,,,,,44,96
14256,note_on,0,0,0,,,,,5,,,,,,,76,96
14256,note_on,0,0,0,,,,,6,,,,,,,56,96
14266,note_off,10,0,0,,,,,1,,,,,,,71,0
14268,note_on,2,0,0,,,,,1,,,,,,,73,96
14277,note_off,9,0,0,,,,,0,,,,,,,76,0
14277,note_off,0,0,0,,,,,2,,,,,,,59,0
14277,note_off,0,0,0,,,,,3,,,,,,,56,0
14277,note_off,0,0,0,,,,,4,,,,,,,44,0
14277,note_off,0,0,0,,,,,5,,,,,,,76,0
14277,note_off,0,0,0,,,,,6,,,,,,,56,0
14278,note_off,1,0,0,,,,,1,,,,,,,73,0
14280,note_on,2,0,0,,,,,0,,,,,,,80,96
14280,note_on,0,0,0,,,,,1,,,,,,,71,96
14280,note_on,0,0,0,,,,,2,,,,,,,64,96
14280,note_on,0,0,0,,,,,3,,,,,,,52,96
14280,note_on,0,0,0,,,,,4,,,,,,,40,96
14280,note_on,0,0,0,,,,,5,,,,,,,80,96
14280,note_on,0,0,0,,,,,6,,,,,,,52,96
14290,note_off,10,0,0,,,,,0,,,,,,,80,0
14290,note_off,0,0,0,,,,,1,,,,,,,71,0
14290,note_off,0,0,0,,,,,5,,,,,,,80,0
14292,note_on,2,0,0,,,,,0,,,,,,,78,96
14292,note_on,0,0,0,,,,,1,,,,,,,69,96
14292,note_on,0,0,0,,,,,5,,,,,,,78,96
14301,note_off,9,0,0,,,,,2,,,,,,,64,0
14301,note_off,0,0,0,,,,,3,,,,,,,52,0
14301,note_off,0,0,0,,,,,4,,,,,,,40,0
14301,note_off,0,0,0,,,,,6,,,,,,,52,0
14302,note_off,1,0,0,,,,,0,,,,,,,78,0
14302,note_off,0,0,0,,,,,1,,,,,,,69,0
14302,note_off,0,0,0,,,,,5,,,,,,,78,0
14304,note_on,2,0,0,,,,,0,,,,,,,76,96
14304,note_on,0,0,0,,,,,1,,,,,,,68,96
14304,note_on,0,0,0,,,,,2,,,,,,,59,96
14304,note_on,0,0,0,,,,,3,,,,,,,56,96
14304,note_on,0,0,0,,,,,4,,,,,,,44,96
14304,note_on,0,0,0,,,,,5,,,,,,,76,96
14304,note_on,0,0,0,,,,,6,,,,,,,56,96
14314,note_off,10,0,0,,,,,0,,,,,,,76,0
14314,note_off,0,0,0,,,,,1,,,,,,,68,0
14314,note_off,0,0,0,,,,,5,,,,,,,76,0
14316,note_on,2,0,0,,,,,0,,,,,,,75,96
14316,note_on,0,0,0,,,,,1,,,,,,,66,96
14316,note_on,0,0,0,,,,,5,,,,,,,75,96
14325,note_off,9,0,0,,,,,2,,,,,,,59,0
14325,note_off,0,0,0,,,,,3,,,,,,,56,0
14325,note_off,0,0,0,,,,,4,,,,,,,44,0
14325,note_off,0,0,0,,,,,6,,,,,,,56,0
14326,note_off,1,0,0,,,,,0,,,,,,,75,0
14326,note_off,0,0,0,,,,,1,,,,,,,66,0
14326,note_off,0,0,0,,,,,5,,,,,,,75,0
14328,note_on,2,0,0,,,,,0,,,,,,,73,96
14328,note_on,0,0,0,,,,,1,,,,,,,64,96
14328,note_on,0,0,0,,,,,2,,,,,,,61,96
14328,note_on,0,0,0,,,,,3,,,,,,,57,96
14328,note_on,0,0,0,,,,,4,,,,,,,45,96
14328,note_on,0,0,0,,,,,5,,,,,,,73,96
14328,note_on,0,0,0,,,,,6,,,,,,,57,96
14338,note_off,10,0,0,,,,,5,,,,,,,73,0
14340,note_on,2,0,0,,,,,5,,,,,,,75,96
14349,note_off,9,0,0,,,,,0,,,,,,,73,0
14349,note_off,0,0,0,,,,,1,,,,,,,64,0
14349,note_off,0,0,0,,,,,2,,,,,,,61,0
14349,note_off,0,0,0,,,,,3,,,,,,,57,0
14349,note_off,0,0,0,,,,,4,,,,,,,45,0
14349,note_off,0,0,0,,,,,6,,,,,,,57,0
14350,note_off,1,0,0,,,,,5,,,,,,,75,0
14352,note_on,2,0,0,,,,,5,,,,,,,77,96
14352,note_on,0,0,0,,,,,6,,,,,,,56,96
14362,note_off,10,0,0,,,,,5,,,,,,,77,0
14364,note_on,2,0,0,,,,,5,,,,,,,78,96
14373,note_off,9,0,0,,,,,6,,,,,,,56,0
14374,note_off,1,0,0,,,,,5,,,,,,,78,0
14376,note_on,2,0,0,,,,,5,,,,,,,80,96
14376,note_on,0,0,0,,,,,6,,,,,,,54,96
14386,note_off,10,0,0,,,,,5,,,,,,,80,0
14388,note_on,2,0,0,,,,,5,,,,,,,81,96
14397,note_off,9,0,0,,,,,6,,,,,,,54,0
14398,note_off,1,0,0,,,,,5,,,,,,,81,0
14400,note_on,2,0,0,,,,,5,,,,,,,71,96
14400,note_on,0,0,0,,,,,6,,,,,,,62,96
14410,note_off,10,0,0,,,,,5,,,,,,,71,0
14410,note_off,0,0,0,,,,,6,,,,,,,62,0
14412,note_on,2,0,0,,,,,5,,,,,,,69,96
14412,note_on,0,0,0,,,,,6,,,,,,,61,96
14422,note_off,10,0,0,,,,,5,,,,,,,69,0
14422,note_off,0,0,0,,,,,6,,,,,,,61,0
14424,note_on,2,0,0,,,,,5,,,,,,,71,96
14424,note_on,0,0,0,,,,,6,,,,,,,59,96
14434,note_off,10,0,0,,,,,5,,,,,,,71,0
14434,note_off,0,0,0,,,,,6,,,,,,,59,0
14436,note_on,2,0,0,,,,,5,,,,,,,74,96
14436,note_on,0,0,0,,,,,6,,,,,,,57,96
14446,note_off,10,0,0,,,,,5,,,,,,,74,0
14446,note_off,0,0,0,,,,,6,,,,,,,57,0
14448,note_on,2,0,0,,,,,5,,,,,,,80,96
14448,note_on,0,0,0,,,,,6,,,,,,,56,96
14458,note_off,10,0,0,,,,,6,,,,,,,56,0
14460,note_on,2,0,0,,,,,6,,,,,,,54,96
14470,note_off,10,0,0,,,,,6,,,,,,,54,0
14472,note_on,2,0,0,,,,,6,,,,,,,53,96
14479,note_off,7,0,0,,,,,5,,,,,,,80,0
14482,note_off,3,0,0,,,,,6,,,,,,,53,0
14484,note_on,2,0,0,,,,,5,,,,,,,78,96
14484,note_on,0,0,0,,,,,6,,,,,,,51,96
14494,note_off,10,0,0,,,,,5,,,,,,,78,0
14494,note_off,0,0,0,,,,,6,,,,,,,51,0
14496,note_on,2,0,0,,,,,5,,,,,,,77,96
14496,note_on,0,0,0,,,,,6,,,,,,,49,96
14506,note_off,10,0,0,,,,,5,,,,,,,77,0
14506,note_off,0,0,0,,,,,6,,,,,,,49,0
14508,note_on,2,0,0,,,,,5,,,,,,,80,96
14508,note_on,0,0,0,,,,,6,,,,,,,51,96
14518,note_off,10,0,0,,,,,5,,,,,,,80,0
14518,note_off,0,0,0,,,,,6,,,,,,,51,0
14520,note_on,2,0,0,,,,,5,,,,,,,73,96
14520,note_on,0,0,0,,,,,6,,,,,,,53,96
14530,note_off,10,0,0,,,,,5,,,,,,,73,0
14530,note_off,0,0,0,,,,,6,,,,,,,53,0
14532,note_on,2,0,0,,,,,5,,,,,,,71,96
14532,note_on,0,0,0,,,,,6,,,,,,,49,96
14542,note_off,10,0,0,,,,,5,,,,,,,71,0
14542,note_off,0,0,0,,,,,6,,,,,,,49,0
14544,note_on,2,0,0,,,,,5,,,,,,,69,96
14544,note_on,0,0,0,,,,,6,,,,,,,54,96
14552,note_off,8,0,0,,,,,5,,,,,,,69,0
14552,note_on,0,0,0,,,,,5,,,,,,,68,96
14560,note_off,8,0,0,,,,,5,,,,,,,68,0
14560,note_on,0,0,0,,,,,5,,,,,,,66,96
14567,note_off,7,0,0,,,,,5,,,,,,,66,0
14568,note_on,1,0,0,,,,,0,,,,,,,85,96
14568,note_on,0,0,0,,,,,1,,,,,,,66,96
14568,note_on,0,0,0,,,,,2,,,,,,,69,96
14568,note_on,0,0,0,,,,,3,,,,,,,54,96
14568,note_on,0,0,0,,,,,4,,,,,,,42,96
14568,note_on,0,0,0,,,,,5,,,,,,,85,96
14575,note_off,7,0,0,,,,,6,,,,,,,54,0
14578,note_off,3,0,0,,,,,1,,,,,,,66,0
14578,note_off,0,0,0,,,,,3,,,,,,,54,0
14578,note_off,0,0,0,,,,,4,,,,,,,42,0
14580,note_on,2,0,0,,,,,1,,,,,,,68,96
14580,note_on,0,0,0,,,,,3,,,,,,,53,96
14580,note_on,0,0,0,,,,,4,,,,,,,41,96
14580,note_on,0,0,0,,,,,6,,,,,,,53,96
14589,note_off,9,0,0,,,,,0,,,,,,,85,0
14589,note_off,0,0,0,,,,,2,,,,,,,69,0
14589,note_off,0,0,0,,,,,5,,,,,,,85,0
14590,note_off,1,0,0,,,,,1,,,,,,,68,0
14590,note_off,0,0,0,,,,,3,,,,,,,53,0
14590,note_off,0,0,0,,,,,4,,,,,,,41,0
14590,note_off,0,0,0,,,,,6,,,,,,,53,0
14592,note_on,2,0,0,,,,,0,,,,,,,81,96
14592,note_on,0,0,0,,,,,1,,,,,,,69,96
14592,note_on,0,0,0,,,,,2,,,,,,,66,96
14592,note_on,0,0,0,,,,,3,,,,,,,54,96
14592,note_on,0,0,0,,,,,4,,,,,,,42,96
14592,note_on,0,0,0,,,,,5,,,,,,,81,96
14592,note_on,0,0,0,,,,,6,,,,,,,54,96
14602,note_off,10,0,0,,,,,1,,,,,,,69,0
14602,note_off,0,0,0,,,,,3,,,,,,,54,0
14602,note_off,0,0,0,,,,,4,,,,,,,42,0
14602,note_off,0,0,0,,,,,6,,,,,,,54,0
14604,note_on,2,0,0,,,,,1,,,,,,,71,96
14604,note_on,0,0,0,,,,,3,,,,,,,56,96
14604,note_on,0,0,0,,,,,4,,,,,,,44,96
14604,note_on,0,0,0,,,,,6,,,,,,,56,96
14613,note_off,9,0,0,,,,,0,,,,,,,81,0
14613,note_off,0,0,0,,,,,2,,,,,,,66,0
14613,note_off,0,0,0,,,,,5,,,,,,,81,0
14614,note_off,1,0,0,,,,,1,,,,,,,71,0
14614,note_off,0,0,0,,,,,3,,,,,,,56,0
14614,note_off,0,0,0,,,,,4,,,,,,,44,0
14614,note_off,0,0,0,,,,,6,,,,,,,56,0
14616,note_on,2,0,0,,,,,0,,,,,,,78,96
14616,note_on,0,0,0,,,,,1,,,,,,,73,96
14616,note_on,0,0,0,,,,,2,,,,,,,61,96
14616,note_on,0,0,0,,,,,3,,,,,,,57,96
14616,note_on,0,0,0,,,,,4,,,,,,,45,96
14616,note_on,0,0,0,,,,,5,,,,,,,78,96
14616,note_on,0,0,0,,,,,6,,,,,,,57,96
14626,note_off,10,0,0,,,,,1,,,,,,,73,0
14628,note_on,2,0,0,,,,,1,,,,,,,74,96
14637,note_off,9,0,0,,,,,0,,,,,,,78,0
14637,note_off,0,0,0,,,,,2,,,,,,,61,0
14637,note_off,0,0,0,,,,,3,,,,,,,57,0
14637,note_off,0,0,0,,,,,4,,,,,,,45,0
14637,note_off,0,0,0,,,,,5,,,,,,,78,0
14637,note_off,0,0,0,,,,,6,,,,,,,57,0
14638,note_off,1,0,0,,,,,1,,,,,,,74,0
14640,note_on,2,0,0,,,,,0,,,,,,,81,96
14640,note_on,0,0,0,,,,,1,,,,,,,73,96
14640,note_on,0,0,0,,,,,2,,,,,,,66,96
14640,note_on,0,0,0,,,,,3,,,,,,,54,96
14640,note_on,0,0,0,,,,,4,,,,,,,42,96
14640,note_on,0,0,0,,,,,5,,,,,,,81,96
14640,note_on,0,0,0,,,,,6,,,,,,,54,96
14650,note_off,10,0,0,,,,,0,,,,,,,81,0
14650,note_off,0,0,0,,,,,1,,,,,,,73,0
14650,note_off,0,0,0,,,,,5,,,,,,,81,0
14652,note_on,2,0,0,,,,,0,,,,,,,80,96
14652,note_on,0,0,0,,,,,1,,,,,,,71,96
14652,note_on,0,0,0,,,,,5,,,,,,,80,96
14661,note_off,9,0,0,,,,,2,,,,,,,66,0
14661,note_off,0,0,0,,,,,3,,,,,,,54,0
14661,note_off,0,0,0,,,,,4,,,,,,,42,0
14661,note_off,0,0,0,,,,,6,,,,,,,54,0
14662,note_off,1,0,0,,,,,0,,,,,,,80,0
14662,note_off,0,0,0,,,,,1,,,,,,,71,0
14662,note_off,0,0,0,,,,,5,,,,,,,80,0
14664,note_on,2,0,0,,,,,0,,,,,,,78,96
14664,note_on,0,0,0,,,,,1,,,,,,,69,96
14664,note_on,0,0,0,,,,,2,,,,,,,61,96
14664,note_on,0,0,0,,,,,3,,,,,,,57,96
14664,note_on,0,0,0,,,,,4,,,,,,,45,96
14664,note_on,0,0,0,,,,,5,,,,,,,78,96
14664,note_on,0,0,0,,,,,6,,,,,,,57,96
14674,note_off,10,0,0,,,,,0,,,,,,,78,0
14674,note_off,0,0,0,,,,,1,,,,,,,69,0
14674,note_off,0,0,0,,,,,5,,,,,,,78,0
14676,note_on,2,0,0,,,,,0,,,,,,,76,96
14676,note_on,0,0,0,,,,,1,,,,,,,68,96
14676,note_on,0,0,0,,,,,5,,,,,,,76,96
14685,note_off,9,0,0,,,,,2,,,,,,,61,0
14685,note_off,0,0,0,,,,,3,,,,,,,57,0
14685,note_off,0,0,0,,,,,4,,,,,,,45,0
14685,note_off,0,0,0,,,,,6,,,,,,,57,0
14686,note_off,1,0,0,,,,,0,,,,,,,76,0
14686,note_off,0,0,0,,,,,1,,,,,,,68,0
14686,note_off,0,0,0,,,,,5,,,,,,,76,0
14688,note_on,2,0,0,,,,,0,,,,,,,75,96
14688,note_on,0,0,0,,,,,1,,,,,,,66,96
14688,note_on,0,0,0,,,,,2,,,,,,,63,96
14688,note_on,0,0,0,,,,,3,,,,,,,59,96
14688,note_on,0,0,0,,,,,4,,,,,,,47,96
14688,note_on,0,0,0,,,,,5,,,,,,,75,96
14688,note_on,0,0,0,,,,,6,,,,,,,59,96
14698,note_off,10,0,0,,,,,2,,,,,,,63,0
14700,note_on,2,0,0,,,,,2,,,,,,,61,96
14709,note_off,9,0,0,,,,,0,,,,,,,75,0
14709,note_off,0,0,0,,,,,1,,,,,,,66,0
14709,note_off,0,0,0,,,,,3,,,,,,,59,0
14709,note_off,0,0,0,,,,,4,,,,,,,47,0
14709,note_off,0,0,0,,,,,5,,,,,,,75,0
14709,note_off,0,0,0,,,,,6,,,,,,,59,0
14710,note_off,1,0,0,,,,,2,,,,,,,61,0
14712,note_on,2,0,0,,,,,0,,,,,,,78,96
14712,note_on,0,0,0,,,,,1,,,,,,,75,96
14712,note_on,0,0,0,,,,,2,,,,,,,59,96
14712,note_on,0,0,0,,,,,3,,,,,,,47,96
14712,note_on,0,0,0,,,,,4,,,,,,,35,96
14712,note_on,0,0,0,,,,,5,,,,,,,78,96
14712,note_on,0,0,0,,,,,6,,,,,,,47,96
14722,note_off,10,0,0,,,,,2,,,,,,,59,0
14722,note_off,0,0,0,,,,,3,,,,,,,47,0
14722,note_off,0,0,0,,,,,4,,,,,,,35,0
14722,note_off,0,0,0,,,,,6,,,,,,,47,0
14724,note_on,2,0,0,,,,,2,,,,,,,61,96
14724,note_on,0,0,0,,,,,3,,,,,,,46,96
14724,note_on,0,0,0,,,,,4,,,,,,,34,96
14724,note_on,0,0,0,,,,,6,,,,,,,46,96
14733,note_off,9,0,0,,,,,0,,,,,,,78,0
14733,note_off,0,0,0,,,,,1,,,,,,,75,0
14733,note_off,0,0,0,,,,,5,,,,,,,78,0
14734,note_off,1,0,0,,,,,2,,,,,,,61,0
14734,note_off,0,0,0,,,,,3,,,,,,,46,0
14734,note_off,0,0,0,,,,,4,,,,,,,34,0
14734,note_off,0,0,0,,,,,6,,,,,,,46,0
14736,note_on,2,0,0,,,,,0,,,,,,,75,96
14736,note_on,0,0,0,,,,,1,,,,,,,71,96
14736,note_on,0,0,0,,,,,2,,,,,,,63,96
14736,note_on,0,0,0,,,,,3,,,,,,,47,96
14736,note_on,0,0,0,,,,,4,,,,,,,35,96
14736,note_on,0,0,0,,,,,5,,,,,,,75,96
14736,note_on,0,0,0,,,,,6,,,,,,,47,96
14746,note_off,10,0,0,,,,,2,,,,,,,63,0
14746,note_off,0,0,0,,,,,3,,,,,,,47,0
14746,note_off,0,0,0,,,,,4,,,,,,,35,0
14746,note_off,0,0,0,,,,,6,,,,,,,47,0
14748,note_on,2,0,0,,,,,2,,,,,,,64,96
14748,note_on,0,0,0,,,,,3,,,,,,,49,96
14748,note_on,0,0,0,,,,,4,,,,,,,37,96
14748,note_on,0,0,0,,,,,6,,,,,,,49,96
14757,note_off,9,0,0,,,,,0,,,,,,,75,0
14757,note_off,0,0,0,,,,,1,,,,,,,71,0
14757,note_off,0,0,0,,,,,5,,,,,,,75,0
14758,note_off,1,0,0,,,,,2,,,,,,,64,0
14758,note_off,0,0,0,,,,,3,,,,,,,49,0
14758,note_off,0,0,0,,,,,4,,,,,,,37,0
14758,note_off,0,0,0,,,,,6,,,,,,,49,0
14760,note_on,2,0,0,,,,,0,,,,,,,71,96
14760,note_on,0,0,0,,,,,1,,,,,,,66,96
14760,note_on,0,0,0,,,,,2,,,,,,,66,96
14760,note_on,0,0,0,,,,,3,,,,,,,51,96
14760,note_on,0,0,0,,,,,4,,,,,,,39,96
14760,note_on,0,0,0,,,,,5,,,,,,,71,96
14760,note_on,0,0,0,,,,,6,,,,,,,51,96
14770,note_off,10,0,0,,,,,2,,,,,,,66,0
14772,note_on,2,0,0,,,,,2,,,,,,,68,96
14781,note_off,9,0,0,,,,,0,,,,,,,71,0
14781,note_off,0,0,0,,,,,1,,,,,,,66,0
14781,note_off,0,0,0,,,,,3,,,,,,,51,0
14781,note_off,0,0,0,,,,,4,,,,,,,39,0
14781,note_off,0,0,0,,,,,5,,,,,,,71,0
14781,note_off,0,0,0,,,,,6,,,,,,,51,0
14782,note_off,1,0,0,,,,,2,,,,,,,68,0
14784,note_on,2,0,0,,,,,0,,,,,,,75,96
14784,note_on,0,0,0,,,,,1,,,,,,,71,96
14784,note_on,0,0,0,,,,,2,,,,,,,66,96
14784,note_on,0,0,0,,,,,3,,,,,,,47,96
14784,note_on,0,0,0,,,,,4,,,,,,,35,96
14784,note_on,0,0,0,,,,,5,,,,,,,75,96
14784,note_on,0,0,0,,,,,6,,,,,,,47,96
14794,note_off,10,0,0,,,,,0,,,,,,,75,0
14794,note_off,0,0,0,,,,,2,,,,,,,66,0
14794,note_off,0,0,0,,,,,5,,,,,,,75,0
14796,note_on,2,0,0,,,,,0,,,,,,,73,96
14796,note_on,0,0,0,,,,,2,,,,,,,64,96
14796,note_on,0,0,0,,,,,5,,,,,,,73,96
14805,note_off,9,0,0,,,,,1,,,,,,,71,0
14805,note_off,0,0,0,,,,,3,,,,,,,47,0
14805,note_off,0,0,0,,,,,4,,,,,,,35,0
14805,note_off,0,0,0,,,,,6,,,,,,,47,0
14806,note_off,1,0,0,,,,,0,,,,,,,73,0
14806,note_off,0,0,0,,,,,2,,,,,,,64,0
14806,note_off,0,0,0,,,,,5,,,,,,,73,0
14808,note_on,2,0,0,,,,,0,,,,,,,71,96
14808,note_on,0,0,0,,,,,1,,,,,,,66,96
14808,note_on,0,0,0,,,,,2,,,,,,,63,96
14808,note_on,0,0,0,,,,,3,,,,,,,51,96
14808,note_on,0,0,0,,,,,4,,,,,,,39,96
14808,note_on,0,0,0,,,,,5,,,,,,,71,96
14808,note_on,0,0,0,,,,,6,,,,,,,51,96
14818,note_off,10,0,0,,,,,0,,,,,,,71,0
14818,note_off,0,0,0,,,,,2,,,,,,,63,0
14818,note_off,0,0,0,,,,,5,,,,,,,71,0
14820,note_on,2,0,0,,,,,0,,,,,,,69,96
14820,note_on,0,0,0,,,,,2,,,,,,,61,96
14820,note_on,0,0,0,,,,,5,,,,,,,69,96
14829,note_off,9,0,0,,,,,1,,,,,,,66,0
14829,note_off,0,0,0,,,,,3,,,,,,,51,0
14829,note_off,0,0,0,,,,,4,,,,,,,39,0
14829,note_off,0,0,0,,,,,6,,,,,,,51,0
14830,note_off,1,0,0,,,,,0,,,,,,,69,0
14830,note_off,0,0,0,,,,,2,,,,,,,61,0
14830,note_off,0,0,0,,,,,5,,,,,,,69,0
14832,note_on,2,0,0,,,,,0,,,,,,,68,96
14832,note_on,0,0,0,,,,,1,,,,,,,64,96
14832,note_on,0,0,0,,,,,2,,,,,,,59,96
14832,note_on,0,0,0,,,,,3,,,,,,,52,96
14832,note_on,0,0,0,,,,,4,,,,,,,40,96
14832,note_on,0,0,0,,,,,5,,,,,,,68,96
14832,note_on,0,0,0,,,,,6,,,,,,,52,96
14842,note_off,10,0,0,,,,,5,,,,,,,68,0
14844,note_on,2,0,0,,,,,5,,,,,,,64,96
14853,note_off,9,0,0,,,,,0,,,,,,,68,0
14853,note_off,0,0,0,,,,,1,,,,,,,64,0
14853,note_off,0,0,0,,,,,2,,,,,,,59,0
14853,note_off,0,0,0,,,,,3,,,,,,,52,0
14853,note_off,0,0,0,,,,,4,,,,,,,40,0
14853,note_off,0,0,0,,,,,6,,,,,,,52,0
14854,note_off,1,0,0,,,,,5,,,,,,,64,0
14856,note_on,2,0,0,,,,,0,,,,,,,71,80
14856,note_on,0,0,0,,,,,1,,,,,,,71,80
14856,note_on,0,0,0,,,,,5,,,,,,,68,96
14856,note_on,0,0,0,,,,,6,,,,,,,40,96
14866,note_off,10,0,0,,,,,5,,,,,,,68,0
14868,note_off,2,0,0,,,,,0,,,,,,,71,0
14868,note_on,0,0,0,,,,,0,,,,,,,69,80
14868,note_off,0,0,0,,,,,1,,,,,,,71,0
14868,note_on,0,0,0,,,,,1,,,,,,,69,80
14868,note_on,0,0,0,,,,,5,,,,,,,71,96
14877,note_off,9,0,0,,,,,6,,,,,,,40,0
14878,note_off,1,0,0,,,,,5,,,,,,,71,0
14880,note_off,2,0,0,,,,,0,,,,,,,69,0
14880,note_on,0,0,0,,,,,0,,,,,,,71,80
14880,note_off,0,0,0,,,,,1,,,,,,,69,0
14880,note_on,0,0,0,,,,,1,,,,,,,68,80
14880,note_on,0,0,0,,,,,5,,,,,,,76,96
14892,note_off,12,0,0,,,,,0,,,,,,,71,0
14892,note_on,0,0,0,,,,,0,,,,,,,69,80
14892,note_off,0,0,0,,,,,1,,,,,,,68,0
14892,note_on,0,0,0,,,,,1,,,,,,,66,80
14902,note_off,10,0,0,,,,,0,,,,,,,69,0
14902,note_off,0,0,0,,,,,1,,,,,,,66,0
14904,note_on,2,0,0,,,,,0,,,,,,,68,80
14904,note_on,0,0,0,,,,,1,,,,,,,64,80
14904,note_on,0,0,0,,,,,2,,,,,,,59,80
14904,note_on,0,0,0,,,,,3,,,,,,,40,80
14904,note_on,0,0,0,,,,,4,,,,,,,28,80
14904,note_on,0,0,0,,,,,6,,,,,,,56,96
14911,note_off,7,0,0,,,,,5,,,,,,,76,0
14916,note_on,5,0,0,,,,,5,,,,,,,78,96
14925,note_off,9,0,0,,,,,0,,,,,,,68,0
14925,note_off,0,0,0,,,,,1,,,,,,,64,0
14925,note_off,0,0,0,,,,,2,,,,,,,59,0
14925,note_off,0,0,0,,,,,3,,,,,,,40,0
14925,note_off,0,0,0,,,,,4,,,,,,,28,0
14925,note_off,0,0,0,,,,,6,,,,,,,56,0
14926,note_off,1,0,0,,,,,5,,,,,,,78,0
14928,note_on,2,0,0,,,,,5,,,,,,,80,96
14928,note_on,0,0,0,,,,,6,,,,,,,52,96
14938,note_off,10,0,0,,,,,5,,,,,,,80,0
14940,note_on,2,0,0,,,,,5,,,,,,,76,96
14949,note_off,9,0,0,,,,,6,,,,,,,52,0
14950,note_off,1,0,0,,,,,5,,,,,,,76,0
14952,note_on,2,0,0,,,,,5,,,,,,,71,96
14952,note_on,0,0,0,,,,,6,,,,,,,56,96
14962,note_off,10,0,0,,,,,5,,,,,,,71,0
14964,note_on,2,0,0,,,,,5,,,,,,,74,96
14973,note_off,9,0,0,,,,,6,,,,,,,56,0
14974,note_off,1,0,0,,,,,5,,,,,,,74,0
14976,note_on,2,0,0,,,,,2,,,,,,,57,80
14976,note_on,0,0,0,,,,,3,,,,,,,45,80
14976,note_on,0,0,0,,,,,4,,,,,,,33,80
14976,note_on,0,0,0,,,,,5,,,,,,,73,96
14976,note_on,0,0,0,,,,,6,,,,,,,57,96
14983,note_off,7,0,0,,,,,5,,,,,,,73,0
14984,note_on,1,0,0,,,,,5,,,,,,,69,96
14991,note_off,7,0,0,,,,,5,,,,,,,69,0
14992,note_on,1,0,0,,,,,5,,,,,,,71,96
14997,note_off,5,0,0,,,,,2,,,,,,,57,0
14997,note_off,0,0,0,,,,,3,,,,,,,45,0
14997,note_off,0,0,0,,,,,4,,,,,,,33,0
14997,note_off,0,0,0,,,,,6,,,,,,,57,0
14999,note_off,2,0,0,,,,,5,,,,,,,71,0
15000,note_on,1,0,0,,,,,0,,,,,,,76,80
15000,note_on,0,0,0,,,,,1,,,,,,,73,80
15000,note_on,0,0,0,,,,,5,,,,,,,73,96
15000,note_on,0,0,0,,,,,6,,,,,,,45,96
15007,note_off,7,0,0,,,,,5,,,,,,,73,0
15008,note_on,1,0,0,,,,,5,,,,,,,75,96
15012,note_off,4,0,0,,,,,0,,,,,,,76,0
15012,note_on,0,0,0,,,,,0,,,,,,,74,80
15012,note_off,0,0,0,,,,,1,,,,,,,73,0
15012,note_on,0,0,0,,,,,1,,,,,,,71,80
15015,note_off,3,0,0,,,,,5,,,,,,,75,0
15016,note_on,1,0,0,,,,,5,,,,,,,77,96
15021,note_off,5,0,0,,,,,6,,,,,,,45,0
15023,note_off,2,0,0,,,,,5,,,,,,,77,0
15024,note_off,1,0,0,,,,,0,,,,,,,74,0
15024,note_on,0,0,0,,,,,0,,,,,,,73,80
15024,note_off,0,0,0,,,,,1,,,,,,,71,0
15024,note_on,0,0,0,,,,,1,,,,,,,69,80
15024,note_on,0,0,0,,,,,5,,,,,,,78,96
15036,note_off,12,0,0,,,,,0,,,,,,,73,0
15036,note_on,0,0,0,,,,,0,,,,,,,71,80
15036,note_off,0,0,0,,,,,1,,,,,,,69,0
15036,note_on,0,0,0,,,,,1,,,,,,,68,80
15046,note_off,10,0,0,,,,,0,,,,,,,71,0
15046,note_off,0,0,0,,,,,1,,,,,,,68,0
15048,note_on,2,0,0,,,,,0,,,,,,,69,80
15048,note_on,0,0,0,,,,,1,,,,,,,66,80
15048,note_on,0,0,0,,,,,2,,,,,,,61,80
15048,note_on,0,0,0,,,,,3,,,,,,,57,80
15048,note_on,0,0,0,,,,,4,,,,,,,45,80
15048,note_on,0,0,0,,,,,6,,,,,,,57,96
15055,note_off,7,0,0,,,,,5,,,,,,,78,0
15060,note_on,5,0,0,,,,,5,,,,,,,80,96
15069,note_off,9,0,0,,,,,0,,,,,,,69,0
15069,note_off,0,0,0,,,,,1,,,,,,,66,0
15069,note_off,0,0,0,,,,,2,,,,,,,61,0
15069,note_off,0,0,0,,,,,3,,,,,,,57,0
15069,note_off,0,0,0,,,,,4,,,,,,,45,0
15069,note_off,0,0,0,,,,,6,,,,,,,57,0
15070,note_off,1,0,0,,,,,5,,,,,,,80,0
15072,note_on,2,0,0,,,,,5,,,,,,,81,96
15072,note_on,0,0,0,,,,,6,,,,,,,54,96
15082,note_off,10,0,0,,,,,5,,,,,,,81,0
15084,note_on,2,0,0,,,,,5,,,,,,,78,96
15093,note_off,9,0,0,,,,,6,,,,,,,54,0
15094,note_off,1,0,0,,,,,5,,,,,,,78,0
15096,note_on,2,0,0,,,,,5,,,,,,,73,96
15096,note_on,0,0,0,,,,,6,,,,,,,57,96
15106,note_off,10,0,0,,,,,5,,,,,,,73,0
15108,note_on,2,0,0,,,,,5,,,,,,,76,96
15117,note_off,9,0,0,,,,,6,,,,,,,57,0
15118,note_off,1,0,0,,,,,5,,,,,,,76,0
15120,note_on,2,0,0,,,,,2,,,,,,,66,80
15120,note_on,0,0,0,,,,,3,,,,,,,59,80
15120,note_on,0,0,0,,,,,4,,,,,,,47,80
15120,note_on,0,0,0,,,,,5,,,,,,,75,96
15120,note_on,0,0,0,,,,,6,,,,,,,59,96
15127,note_off,7,0,0,,,,,5,,,,,,,75,0
15128,note_on,1,0,0,,,,,5,,,,,,,71,96
15135,note_off,7,0,0,,,,,5,,,,,,,71,0
15136,note_on,1,0,0,,,,,5,,,,,,,73,96
15141,note_off,5,0,0,,,,,2,,,,,,,66,0
15141,note_off,0,0,0,,,,,3,,,,,,,59,0
15141,note_off,0,0,0,,,,,4,,,,,,,47,0
15141,note_off,0,0,0,,,,,6,,,,,,,59,0
15143,note_off,2,0,0,,,,,5,,,,,,,73,0
15144,note_on,1,0,0,,,,,0,,,,,,,78,80
15144,note_on,0,0,0,,,,,1,,,,,,,75,80
15144,note_on,0,0,0,,,,,5,,,,,,,75,96
15144,note_on,0,0,0,,,,,6,,,,,,,47,96
15151,note_off,7,0,0,,,,,5,,,,,,,75,0
15152,note_on,1,0,0,,,,,5,,,,,,,76,96
15156,note_off,4,0,0,,,,,0,,,,,,,78,0
15156,note_on,0,0,0,,,,,0,,,,,,,76,80
15156,note_off,0,0,0,,,,,1,,,,,,,75,0
15156,note_on,0,0,0,,,,,1,,,,,,,73,80
15159,note_off,3,0,0,,,,,5,,,,,,,76,0
15160,note_on,1,0,0,,,,,5,,,,,,,78,96
15165,note_off,5,0,0,,,,,6,,,,,,,47,0
15167,note_off,2,0,0,,,,,5,,,,,,,78,0
15168,note_off,1,0,0,,,,,0,,,,,,,76,0
15168,note_on,0,0,0,,,,,0,,,,,,,75,80
15168,note_off,0,0,0,,,,,1,,,,,,,73,0
15168,note_on,0,0,0,,,,,1,,,,,,,71,80
15168,note_on,0,0,0,,,,,5,,,,,,,80,96
15180,note_off,12,0,0,,,,,0,,,,,,,75,0
15180,note_on,0,0,0,,,,,0,,,,,,,73,80
15180,note_off,0,0,0,,,,,1,,,,,,,71,0
15180,note_on,0,0,0,,,,,1,,,,,,,69,80
15190,note_off,10,0,0,,,,,0,,,,,,,73,0
15190,note_off,0,0,0,,,,,1,,,,,,,69,0
15192,note_on,2,0,0,,,,,0,,,,,,,71,80
15192,note_on,0,0,0,,,,,1,,,,,,,68,80
15192,note_on,0,0,0,,,,,2,,,,,,,63,80
15192,note_on,0,0,0,,,,,3,,,,,,,47,80
15192,note_on,0,0,0,,,,,4,,,,,,,35,80
15192,note_on,0,0,0,,,,,6,,,,,,,59,96
15199,note_off,7,0,0,,,,,5,,,,,,,80,0
15204,note_on,5,0,0,,,,,5,,,,,,,81,96
15213,note_off,9,0,0,,,,,0,,,,,,,71,0
15213,note_off,0,0,0,,,,,1,,,,,,,68,0
15213,note_off,0,0,0,,,,,2,,,,,,,63,0
15213,note_off,0,0,0,,,,,3,,,,,,,47,0
15213,note_off,0,0,0,,,,,4,,,,,,,35,0
15213,note_off,0,0,0,,,,,6,,,,,,,59,0
15214,note_off,1,0,0,,,,,5,,,,,,,81,0
15216,note_on,2,0,0,,,,,5,,,,,,,83,96
15216,note_on,0,0,0,,,,,6,,,,,,,56,96
15226,note_off,10,0,0,,,,,5,,,,,,,83,0
15228,note_on,2,0,0,,,,,5,,,,,,,80,96
15237,note_off,9,0,0,,,,,6,,,,,,,56,0
15238,note_off,1,0,0,,,,,5,,,,,,,80,0
15240,note_on,2,0,0,,,,,5,,,,,,,75,96
15240,note_on,0,0,0,,,,,6,,,,,,,59,96
15250,note_off,10,0,0,,,,,5,,,,,,,75,0
15252,note_on,2,0,0,,,,,5,,,,,,,78,96
15261,note_off,9,0,0,,,,,6,,,,,,,59,0
15262,note_off,1,0,0,,,,,5,,,,,,,78,0
15264,note_on,2,0,0,,,,,2,,,,,,,61,80
15264,note_on,0,0,0,,,,,3,,,,,,,49,80
15264,note_on,0,0,0,,,,,4,,,,,,,37,80
15264,note_on,0,0,0,,,,,5,,,,,,,76,96
15264,note_on,0,0,0,,,,,6,,,,,,,61,96
15274,note_off,10,0,0,,,,,5,,,,,,,76,0
15276,note_on,2,0,0,,,,,5,,,,,,,81,96
15285,note_off,9,0,0,,,,,2,,,,,,,61,0
15285,note_off,0,0,0,,,,,3,,,,,,,49,0
15285,note_off,0,0,0,,,,,4,,,,,,,37,0
15285,note_off,0,0,0,,,,,6,,,,,,,61,0
15286,note_off,1,0,0,,,,,5,,,,,,,81,0
15288,note_on,2,0,0,,,,,5,,,,,,,83,96
15288,note_on,0,0,0,,,,,6,,,,,,,49,96
15298,note_off,10,0,0,,,,,5,,,,,,,83,0
15300,note_on,2,0,0,,,,,5,,,,,,,85,96
15309,note_off,9,0,0,,,,,6,,,,,,,49,0
15310,note_off,1,0,0,,,,,5,,,,,,,85,0
15312,note_on,2,0,0,,,,,5,,,,,,,80,96
15312,note_on,0,0,0,,,,,6,,,,,,,61,96
15322,note_off,10,0,0,,,,,5,,,,,,,80,0
15324,note_on,2,0,0,,,,,5,,,,,,,81,96
15333,note_off,9,0,0,,,,,6,,,,,,,61,0
15334,note_off,1,0,0,,,,,5,,,,,,,81,0
15336,note_on,2,0,0,,,,,5,,,,,,,75,96
15336,note_on,0,0,0,,,,,6,,,,,,,59,96
15346,note_off,10,0,0,,,,,5,,,,,,,75,0
15348,note_on,2,0,0,,,,,5,,,,,,,80,96
15357,note_off,9,0,0,,,,,6,,,,,,,59,0
15358,note_off,1,0,0,,,,,5,,,,,,,80,0
15360,note_on,2,0,0,,,,,5,,,,,,,82,96
15360,note_on,0,0,0,,,,,6,,,,,,,47,96
15370,note_off,10,0,0,,,,,5,,,,,,,82,0
15372,note_on,2,0,0,,,,,5,,,,,,,83,96
15381,note_off,9,0,0,,,,,6,,,,,,,47,0
15382,note_off,1,0,0,,,,,5,,,,,,,83,0
15384,note_on,2,0,0,,,,,5,,,,,,,79,96
15384,note_on,0,0,0,,,,,6,,,,,,,59,96
15394,note_off,10,0,0,,,,,5,,,,,,,79,0
15396,note_on,2,0,0,,,,,5,,,,,,,80,96
15405,note_off,9,0,0,,,,,6,,,,,,,59,0
15406,note_off,1,0,0,,,,,5,,,,,,,80,0
15408,note_on,2,0,0,,,,,5,,,,,,,73,96
15408,note_on,0,0,0,,,,,6,,,,,,,58,96
15418,note_off,10,0,0,,,,,5,,,,,,,73,0
15420,note_on,2,0,0,,,,,5,,,,,,,79,96
15429,note_off,9,0,0,,,,,6,,,,,,,58,0
15430,note_off,1,0,0,,,,,5,,,,,,,79,0
15432,note_on,2,0,0,,,,,5,,,,,,,80,96
15432,note_on,0,0,0,,,,,6,,,,,,,46,96
15442,note_off,10,0,0,,,,,5,,,,,,,80,0
15444,note_on,2,0,0,,,,,5,,,,,,,82,96
15453,note_off,9,0,0,,,,,6,,,,,,,46,0
15454,note_off,1,0,0,,,,,5,,,,,,,82,0
15456,note_on,2,0,0,,,,,5,,,,,,,76,96
15456,note_on,0,0,0,,,,,6,,,,,,,56,96
15466,note_off,10,0,0,,,,,5,,,,,,,76,0
15468,note_on,2,0,0,,,,,5,,,,,,,75,96
15477,note_off,9,0,0,,,,,6,,,,,,,56,0
15478,note_off,1,0,0,,,,,5,,,,,,,75,0
15480,note_on,2,0,0,,,,,5,,,,,,,73,96
15480,note_on,0,0,0,,,,,6,,,,,,,55,96
15490,note_off,10,0,0,,,,,5,,,,,,,73,0
15492,note_on,2,0,0,,,,,5,,,,,,,82,96
15501,note_off,9,0,0,,,,,6,,,,,,,55,0
15502,note_off,1,0,0,,,,,5,,,,,,,82,0
15504,note_on,2,0,0,,,,,5,,,,,,,80,96
15504,note_on,0,0,0,,,,,6,,,,,,,51,96
15514,note_off,10,0,0,,,,,5,,,,,,,80,0
15516,note_on,2,0,0,,,,,5,,,,,,,79,96
15525,note_off,9,0,0,,,,,6,,,,,,,51,0
15526,note_off,1,0,0,,,,,5,,,,,,,79,0
15528,note_on,2,0,0,,,,,5,,,,,,,77,96
15528,note_on,0,0,0,,,,,6,,,,,,,55,96
15538,note_off,10,0,0,,,,,5,,,,,,,77,0
15540,note_on,2,0,0,,,,,5,,,,,,,75,96
15549,note_off,9,0,0,,,,,6,,,,,,,55,0
15550,note_off,1,0,0,,,,,5,,,,,,,75,0
15552,note_on,2,0,0,,,,,5,,,,,,,83,96
15552,note_on,0,0,0,,,,,6,,,,,,,56,96
15562,note_off,10,0,0,,,,,5,,,,,,,83,0
15562,note_off,0,0,0,,,,,6,,,,,,,56,0
15564,note_on,2,0,0,,,,,5,,,,,,,82,96
15564,note_on,0,0,0,,,,,6,,,,,,,55,96
15574,note_off,10,0,0,,,,,5,,,,,,,82,0
15574,note_off,0,0,0,,,,,6,,,,,,,55,0
15576,note_on,2,0,0,,,,,5,,,,,,,80,96
15576,note_on,0,0,0,,,,,6,,,,,,,56,96
15586,note_off,10,0,0,,,,,5,,,,,,,80,0
15586,note_off,0,0,0,,,,,6,,,,,,,56,0
15588,note_on,2,0,0,,,,,5,,,,,,,79,96
15588,note_on,0,0,0,,,,,6,,,,,,,58,96
15598,note_off,10,0,0,,,,,5,,,,,,,79,0
15598,note_off,0,0,0,,,,,6,,,,,,,58,0
15600,note_on,2,0,0,,,,,5,,,,,,,80,96
15600,note_on,0,0,0,,,,,6,,,,,,,59,96
15610,note_off,10,0,0,,,,,6,,,,,,,59,0
15612,note_on,2,0,0,,,,,6,,,,,,,56,96
15622,note_off,10,0,0,,,,,6,,,,,,,56,0
15624,note_on,2,0,0,,,,,6,,,,,,,61,96
15631,note_off,7,0,0,,,,,5,,,,,,,80,0
15634,note_off,3,0,0,,,,,6,,,,,,,61,0
15636,note_on,2,0,0,,,,,5,,,,,,,83,96
15636,note_on,0,0,0,,,,,6,,,,,,,59,96
15646,note_off,10,0,0,,,,,5,,,,,,,83,0
15646,note_off,0,0,0,,,,,6,,,,,,,59,0
15648,note_on,2,0,0,,,,,5,,,,,,,82,96
15648,note_on,0,0,0,,,,,6,,,,,,,61,96
15658,note_off,10,0,0,,,,,5,,,,,,,82,0
15658,note_off,0,0,0,,,,,6,,,,,,,61,0
15660,note_on,2,0,0,,,,,5,,,,,,,80,96
15660,note_on,0,0,0,,,,,6,,,,,,,63,96
15670,note_off,10,0,0,,,,,5,,,,,,,80,0
15670,note_off,0,0,0,,,,,6,,,,,,,63,0
15672,note_on,2,0,0,,,,,5,,,,,,,79,96
15672,note_on,0,0,0,,,,,6,,,,,,,64,96
15682,note_off,10,0,0,,,,,5,,,,,,,79,0
15682,note_off,0,0,0,,,,,6,,,,,,,64,0
15684,note_on,2,0,0,,,,,5,,,,,,,80,96
15684,note_on,0,0,0,,,,,6,,,,,,,61,96
15694,note_off,10,0,0,,,,,5,,,,,,,80,0
15694,note_off,0,0,0,,,,,6,,,,,,,61,0
15696,note_on,2,0,0,,,,,5,,,,,,,79,96
15696,note_on,0,0,0,,,,,6,,,,,,,63,96
15703,note_off,7,0,0,,,,,5,,,,,,,79,0
15704,note_on,1,0,0,,,,,5,,,,,,,82,96
15708,note_on,4,0,0,,,,,3,,,,,,,63,80
15708,note_on,0,0,0,,,,,4,,,,,,,51,80
15711,note_off,3,0,0,,,,,5,,,,,,,82,0
15712,note_on,1,0,0,,,,,5,,,,,,,80,96
15717,note_off,5,0,0,,,,,6,,,,,,,63,0
15719,note_off,2,0,0,,,,,5,,,,,,,80,0
15720,note_on,1,0,0,,,,,0,,,,,,,63,80
15720,note_off,0,0,0,,,,,3,,,,,,,63,0
15720,note_on,0,0,0,,,,,3,,,,,,,61,80
15720,note_off,0,0,0,,,,,4,,,,,,,51,0
15720,note_on,0,0,0,,,,,4,,,,,,,49,80
15720,note_on,0,0,0,,,,,5,,,,,,,79,96
15720,note_on,0,0,0,,,,,6,,,,,,,61,96
15727,note_off,7,0,0,,,,,5,,,,,,,79,0
15728,note_on,1,0,0,,,,,5,,,,,,,77,96
15730,note_off,2,0,0,,,,,6,,,,,,,61,0
15732,note_off,2,0,0,,,,,3,,,,,,,61,0
15732,note_on,0,0,0,,,,,3,,,,,,,59,80
15732,note_off,0,0,0,,,,,4,,,,,,,49,0
15732,note_on,0,0,0,,,,,4,,,,,,,47,80
15732,note_on,0,0,0,,,,,6,,,,,,,59,96
15735,note_off,3,0,0,,,,,5,,,,,,,77,0
15736,note_on,1,0,0,,,,,5,,,,,,,75,96
15741,note_off,5,0,0,,,,,0,,,,,,,63,0
15742,note_off,1,0,0,,,,,6,,,,,,,59,0
15743,note_off,1,0,0,,,,,5,,,,,,,75,0
15744,note_on,1,0,0,,,,,0,,,,,,,67,80
15744,note_off,0,0,0,,,,,3,,,,,,,59,0
15744,note_on,0,0,0,,,,,3,,,,,,,58,80
15744,note_off,0,0,0,,,,,4,,,,,,,47,0
15744,note_on,0,0,0,,,,,4,,,,,,,46,80
15744,note_on,0,0,0,,,,,5,,,,,,,73,96
15744,note_on,0,0,0,,,,,6,,,,,,,58,96
15751,note_off,7,0,0,,,,,5,,,,,,,73,0
15752,note_on,1,0,0,,,,,5,,,,,,,71,96
15754,note_off,2,0,0,,,,,6,,,,,,,58,0
15756,note_off,2,0,0,,,,,3,,,,,,,58,0
15756,note_on,0,0,0,,,,,3,,,,,,,56,80
15756,note_off,0,0,0,,,,,4,,,,,,,46,0
15756,note_on,0,0,0,,,,,4,,,,,,,44,80
15756,note_on,0,0,0,,,,,6,,,,,,,56,96
15759,note_off,3,0,0,,,,,5,,,,,,,71,0
15760,note_on,1,0,0,,,,,5,,,,,,,73,96
15765,note_off,5,0,0,,,,,0,,,,,,,67,0
15766,note_off,1,0,0,,,,,3,,,,,,,56,0
15766,note_off,0,0,0,,,,,4,,,,,,,44,0
15766,note_off,0,0,0,,,,,6,,,,,,,56,0
15767,note_off,1,0,0,,,,,5,,,,,,,73,0
15768,note_on,1,0,0,,,,,0,,,,,,,70,80
15768,note_on,0,0,0,,,,,1,,,,,,,63,80
15768,note_on,0,0,0,,,,,3,,,,,,,55,80
15768,note_on,0,0,0,,,,,4,,,,,,,43,80
15768,note_on,0,0,0,,,,,5,,,,,,,75,96
15768,note_on,0,0,0,,,,,6,,,,,,,55,96
15772,note_off,4,0,0,,,,,5,,,,,,,75,0
15772,note_on,0,0,0,,,,,5,,,,,,,73,96
15776,note_off,4,0,0,,,,,5,,,,,,,73,0
15776,note_on,0,0,0,,,,,5,,,,,,,75,96
15778,note_off,2,0,0,,,,,6,,,,,,,55,0
15780,note_off,2,0,0,,,,,3,,,,,,,55,0
15780,note_on,0,0,0,,,,,3,,,,,,,56,80
15780,note_off,0,0,0,,,,,4,,,,,,,43,0
15780,note_on,0,0,0,,,,,4,,,,,,,44,80
15780,note_off,0,0,0,,,,,5,,,,,,,75,0
15780,note_on,0,0,0,,,,,5,,,,,,,73,96
15780,note_on,0,0,0,,,,,6,,,,,,,56,96
15784,note_off,4,0,0,,,,,5,,,,,,,73,0
15784,note_on,0,0,0,,,,,5,,,,,,,75,96
15788,note_off,4,0,0,,,,,5,,,,,,,75,0
15788,note_on,0,0,0,,,,,5,,,,,,,73,96
15789,note_off,1,0,0,,,,,0,,,,,,,70,0
15789,note_off,0,0,0,,,,,1,,,,,,,63,0
15790,note_off,1,0,0,,,,,6,,,,,,,56,0
15792,note_on,2,0,0,,,,,0,,,,,,,63,80
15792,note_on,0,0,0,,,,,1,,,,,,,67,80
15792,note_off,0,0,0,,,,,3,,,,,,,56,0
15792,note_on,0,0,0,,,,,3,,,,,,,58,80
15792,note_off,0,0,0,,,,,4,,,,,,,44,0
15792,note_on,0,0,0,,,,,4,,,,,,,46,80
15792,note_off,0,0,0,,,,,5,,,,,,,73,0
15792,note_on,0,0,0,,,,,5,,,,,,,75,96
15792,note_on,0,0,0,,,,,6,,,,,,,58,96
15796,note_off,4,0,0,,,,,5,,,,,,,75,0
15796,note_on,0,0,0,,,,,5,,,,,,,73,96
15800,note_off,4,0,0,,,,,5,,,,,,,73,0
15800,note_on,0,0,0,,,,,5,,,,,,,75,96
15802,note_off,2,0,0,,,,,0,,,,,,,63,0
15802,note_off,0,0,0,,,,,6,,,,,,,58,0
15804,note_on,2,0,0,,,,,0,,,,,,,65,80
15804,note_off,0,0,0,,,,,3,,,,,,,58,0
15804,note_on,0,0,0,,,,,3,,,,,,,56,80
15804,note_off,0,0,0,,,,,4,,,,,,,46,0
15804,note_on,0,0,0,,,,,4,,,,,,,44,80
15804,note_off,0,0,0,,,,,5,,,,,,,75,0
15804,note_on,0,0,0,,,,,5,,,,,,,73,96
15804,note_on,0,0,0,,,,,6,,,,,,,56,96
15808,note_off,4,0,0,,,,,5,,,,,,,73,0
15808,note_on,0,0,0,,,,,5,,,,,,,75,96
15812,note_off,4,0,0,,,,,5,,,,,,,75,0
15812,note_on,0,0,0,,,,,5,,,,,,,73,96
15813,note_off,1,0,0,,,,,1,,,,,,,67,0
15814,note_off,1,0,0,,,,,0,,,,,,,65,0
15814,note_off,0,0,0,,,,,6,,,,,,,56,0
15816,note_on,2,0,0,,,,,0,,,,,,,67,80
15816,note_on,0,0,0,,,,,1,,,,,,,70,80
15816,note_off,0,0,0,,,,,3,,,,,,,56,0
15816,note_on,0,0,0,,,,,3,,,,,,,55,80
15816,note_off,0,0,0,,,,,4,,,,,,,44,0
15816,note_on,0,0,0,,,,,4,,,,,,,43,80
15816,note_off,0,0,0,,,,,5,,,,,,,73,0
15816,note_on,0,0,0,,,,,5,,,,,,,75,96
15816,note_on,0,0,0,,,,,6,,,,,,,55,96
15820,note_off,4,0,0,,,,,5,,,,,,,75,0
15820,note_on,0,0,0,,,,,5,,,,,,,73,96
15824,note_off,4,0,0,,,,,5,,,,,,,73,0
15824,note_on,0,0,0,,,,,5,,,,,,,75,96
15826,note_off,2,0,0,,,,,0,,,,,,,67,0
15826,note_off,0,0,0,,,,,6,,,,,,,55,0
15828,note_on,2,0,0,,,,,0,,,,,,,68,80
15828,note_off,0,0,0,,,,,3,,,,,,,55,0
15828,note_on,0,0,0,,,,,3,,,,,,,53,80
15828,note_off,0,0,0,,,,,4,,,,,,,43,0
15828,note_on,0,0,0,,,,,4,,,,,,,41,80
15828,note_off,0,0,0,,,,,5,,,,,,,75,0
15828,note_on,0,0,0,,,,,5,,,,,,,73,96
15828,note_on,0,0,0,,,,,6,,,,,,,53,96
15832,note_off,4,0,0,,,,,5,,,,,,,73,0
15832,note_on,0,0,0,,,,,5,,,,,,,75,96
15836,note_off,4,0,0,,,,,5,,,,,,,75,0
15836,note_on,0,0,0,,,,,5,,,,,,,73,96
15837,note_off,1,0,0,,,,,1,,,,,,,70,0
15838,note_off,1,0,0,,,,,0,,,,,,,68,0
15838,note_off,0,0,0,,,,,3,,,,,,,53,0
15838,note_off,0,0,0,,,,,4,,,,,,,41,0
15838,note_off,0,0,0,,,,,6,,,,,,,53,0
15840,note_on,2,0,0,,,,,0,,,,,,,70,80
15840,note_on,0,0,0,,,,,1,,,,,,,67,80
15840,note_on,0,0,0,,,,,2,,,,,,,63,80
15840,note_on,0,0,0,,,,,3,,,,,,,51,80
15840,note_on,0,0,0,,,,,4,,,,,,,39,80
15840,note_off,0,0,0,,,,,5,,,,,,,73,0
15840,note_on,0,0,0,,,,,5,,,,,,,75,96
15840,note_on,0,0,0,,,,,6,,,,,,,51,96
15844,note_off,4,0,0,,,,,5,,,,,,,75,0
15844,note_on,0,0,0,,,,,5,,,,,,,73,96
15847,note_off,3,0,0,,,,,6,,,,,,,51,0
15848,note_off,1,0,0,,,,,5,,,,,,,73,0
15848,note_on,0,0,0,,,,,5,,,,,,,75,96
15848,note_on,0,0,0,,,,,6,,,,,,,55,96
15852,note_off,4,0,0,,,,,5,,,,,,,75,0
15852,note_on,0,0,0,,,,,5,,,,,,,73,96
15855,note_off,3,0,0,,,,,6,,,,,,,55,0
15856,note_off,1,0,0,,,,,5,,,,,,,73,0
15856,note_on,0,0,0,,,,,5,,,,,,,75,96
15856,note_on,0,0,0,,,,,6,,,,,,,51,96
15860,note_off,4,0,0,,,,,5,,,,,,,75,0
15860,note_on,0,0,0,,,,,5,,,,,,,73,96
15861,note_off,1,0,0,,,,,0,,,,,,,70,0
15861,note_off,0,0,0,,,,,1,,,,,,,67,0
15861,note_off,0,0,0,,,,,2,,,,,,,63,0
15861,note_off,0,0,0,,,,,3,,,,,,,51,0
15861,note_off,0,0,0,,,,,4,,,,,,,39,0
15863,note_off,2,0,0,,,,,6,,,,,,,51,0
15864,note_on,1,0,0,,,,,0,,,,,,,75,80
15864,note_on,0,0,0,,,,,1,,,,,,,70,80
15864,note_on,0,0,0,,,,,2,,,,,,,67,80
15864,note_on,0,0,0,,,,,3,,,,,,,63,80
15864,note_on,0,0,0,,,,,4,,,,,,,51,80
15864,note_off,0,0,0,,,,,5,,,,,,,73,0
15864,note_on,0,0,0,,,,,5,,,,,,,75,96
15864,note_on,0,0,0,,,,,6,,,,,,,46,96
15868,note_off,4,0,0,,,,,5,,,,,,,75,0
15868,note_on,0,0,0,,,,,5,,,,,,,73,96
15871,note_off,3,0,0,,,,,6,,,,,,,46,0
15872,note_off,1,0,0,,,,,5,,,,,,,73,0
15872,note_on,0,0,0,,,,,5,,,,,,,75,96
15872,note_on,0,0,0,,,,,6,,,,,,,51,96
15876,note_off,4,0,0,,,,,5,,,,,,,75,0
15876,note_on,0,0,0,,,,,5,,,,,,,73,96
15879,note_off,3,0,0,,,,,6,,,,,,,51,0
15880,note_off,1,0,0,,,,,5,,,,,,,73,0
15880,note_on,0,0,0,,,,,5,,,,,,,75,96
15880,note_on,0,0,0,,,,,6,,,,,,,46,96
15884,note_off,4,0,0,,,,,5,,,,,,,75,0
15884,note_on,0,0,0,,,,,5,,,,,,,73,96
15885,note_off,1,0,0,,,,,0,,,,,,,75,0
15885,note_off,0,0,0,,,,,1,,,,,,,70,0
15885,note_off,0,0,0,,,,,2,,,,,,,67,0
15885,note_off,0,0,0,,,,,3,,,,,,,63,0
15885,note_off,0,0,0,,,,,4,,,,,,,51,0
15887,note_off,2,0,0,,,,,6,,,,,,,46,0
15888,note_on,1,0,0,,,,,0,,,,,,,79,80
15888,note_on,0,0,0,,,,,1,,,,,,,75,80
15888,note_on,0,0,0,,,,,2,,,,,,,70,80
15888,note_off,0,0,0,,,,,5,,,,,,,73,0
15888,note_on,0,0,0,,,,,5,,,,,,,75,96
15888,note_on,0,0,0,,,,,6,,,,,,,43,96
15892,note_off,4,0,0,,,,,5,,,,,,,75,0
15892,note_on,0,0,0,,,,,5,,,,,,,73,96
15895,note_off,3,0,0,,,,,6,,,,,,,43,0
15896,note_off,1,0,0,,,,,5,,,,,,,73,0
15896,note_on,0,0,0,,,,,5,,,,,,,75,96
15896,note_on,0,0,0,,,,,6,,,,,,,46,96
15900,note_off,4,0,0,,,,,5,,,,,,,75,0
15900,note_on,0,0,0,,,,,5,,,,,,,73,96
15903,note_off,3,0,0,,,,,6,,,,,,,46,0
15904,note_on,1,0,0,,,,,6,,,,,,,43,96
15909,note_off,5,0,0,,,,,0,,,,,,,79,0
15909,note_off,0,0,0,,,,,1,,,,,,,75,0
15909,note_off,0,0,0,,,,,2,,,,,,,70,0
15911,note_off,2,0,0,,,,,6,,,,,,,43,0
15912,note_on,1,0,0,,,,,0,,,,,,,82,80
15912,note_on,0,0,0,,,,,1,,,,,,,79,80
15912,note_on,0,0,0,,,,,2,,,,,,,75,80
15912,note_on,0,0,0,,,,,6,,,,,,,39,96
15921,note_off,9,0,0,,,,,5,,,,,,,73,0
15924,note_on,3,0,0,,,,,5,,,,,,,70,96
15933,note_off,9,0,0,,,,,0,,,,,,,82,0
15933,note_off,0,0,0,,,,,1,,,,,,,79,0
15933,note_off,0,0,0,,,,,2,,,,,,,75,0
15933,note_off,0,0,0,,,,,6,,,,,,,39,0
15934,note_off,1,0,0,,,,,5,,,,,,,70,0
15936,note_on,2,0,0,,,,,0,,,,,,,83,80
15936,note_on,0,0,0,,,,,1,,,,,,,75,80
15936,note_on,0,0,0,,,,,2,,,,,,,68,80
15936,note_on,0,0,0,,,,,3,,,,,,,51,80
15936,note_on,0,0,0,,,,,4,,,,,,,39,80
15936,note_on,0,0,0,,,,,5,,,,,,,68,96
15946,note_off,10,0,0,,,,,0,,,,,,,83,0
15946,note_off,0,0,0,,,,,5,,,,,,,68,0
15948,note_on,2,0,0,,,,,0,,,,,,,82,80
15948,note_on,0,0,0,,,,,5,,,,,,,67,96
15957,note_off,9,0,0,,,,,1,,,,,,,75,0
15957,note_off,0,0,0,,,,,2,,,,,,,68,0
15957,note_off,0,0,0,,,,,3,,,,,,,51,0
15957,note_off,0,0,0,,,,,4,,,,,,,39,0
15958,note_off,1,0,0,,,,,0,,,,,,,82,0
15958,note_off,0,0,0,,,,,5,,,,,,,67,0
15960,note_on,2,0,0,,,,,0,,,,,,,80,80
15960,note_on,0,0,0,,,,,1,,,,,,,75,80
15960,note_on,0,0,0,,,,,2,,,,,,,70,80
15960,note_on,0,0,0,,,,,3,,,,,,,39,80
15960,note_on,0,0,0,,,,,4,,,,,,,27,80
15960,note_on,0,0,0,,,,,5,,,,,,,65,96
15960,note_on,0,0,0,,,,,6,,,,,,,51,96
15970,note_off,10,0,0,,,,,0,,,,,,,80,0
15970,note_off,0,0,0,,,,,5,,,,,,,65,0
15972,note_on,2,0,0,,,,,0,,,,,,,79,80
15972,note_on,0,0,0,,,,,5,,,,,,,63,96
15981,note_off,9,0,0,,,,,1,,,,,,,75,0
15981,note_off,0,0,0,,,,,2,,,,,,,70,0
15981,note_off,0,0,0,,,,,3,,,,,,,39,0
15981,note_off,0,0,0,,,,,4,,,,,,,27,0
15981,note_off,0,0,0,,,,,6,,,,,,,51,0
15982,note_off,1,0,0,,,,,0,,,,,,,79,0
15982,note_off,0,0,0,,,,,5,,,,,,,63,0
15984,note_on,2,0,0,,,,,0,,,,,,,80,80
15984,note_on,0,0,0,,,,,1,,,,,,,75,80
15984,note_on,0,0,0,,,,,2,,,,,,,68,80
15984,note_on,0,0,0,,,,,3,,,,,,,44,80
15984,note_on,0,0,0,,,,,4,,,,,,,32,80
15984,note_on,0,0,0,,,,,5,,,,,,,71,96
15984,note_on,0,0,0,,,,,6,,,,,,,56,96
15991,note_off,7,0,0,,,,,5,,,,,,,71,0
15992,note_on,1,0,0,,,,,5,,,,,,,75,96
15994,note_off,2,0,0,,,,,3,,,,,,,44,0
15994,note_off,0,0,0,,,,,4,,,,,,,32,0
15996,note_on,2,0,0,,,,,3,,,,,,,56,80
15996,note_on,0,0,0,,,,,4,,,,,,,44,80
15999,note_off,3,0,0,,,,,5,,,,,,,75,0
16000,note_on,1,0,0,,,,,5,,,,,,,73,96
16005,note_off,5,0,0,,,,,0,,,,,,,80,0
16005,note_off,0,0,0,,,,,1,,,,,,,75,0
16005,note_off,0,0,0,,,,,2,,,,,,,68,0
16005,note_off,0,0,0,,,,,6,,,,,,,56,0
16007,note_off,2,0,0,,,,,5,,,,,,,73,0
16008,note_on,1,0,0,,,,,0,,,,,,,56,80
16008,note_off,0,0,0,,,,,3,,,,,,,56,0
16008,note_on,0,0,0,,,,,3,,,,,,,54,80
16008,note_off,0,0,0,,,,,4,,,,,,,44,0
16008,note_on,0,0,0,,,,,4,,,,,,,42,80
16008,note_on,0,0,0,,,,,5,,,,,,,71,96
16008,note_on,0,0,0,,,,,6,,,,,,,54,96
16015,note_off,7,0,0,,,,,5,,,,,,,71,0
16016,note_on,1,0,0,,,,,5,,,,,,,70,96
16020,note_off,4,0,0,,,,,3,,,,,,,54,0
16020,note_on,0,0,0,,,,,3,,,,,,,52,80
16020,note_off,0,0,0,,,,,4,,,,,,,42,0
16020,note_on,0,0,0,,,,,4,,,,,,,40,80
16020,note_off,0,0,0,,,,,6,,,,,,,54,0
16020,note_on,0,0,0,,,,,6,,,,,,,52,96
16023,note_off,3,0,0,,,,,5,,,,,,,70,0
16024,note_on,1,0,0,,,,,5,,,,,,,68,96
16029,note_off,5,0,0,,,,,0,,,,,,,56,0
16031,note_off,2,0,0,,,,,5,,,,,,,68,0
16032,note_on,1,0,0,,,,,0,,,,,,,60,80
16032,note_off,0,0,0,,,,,3,,,,,,,52,0
16032,note_on,0,0,0,,,,,3,,,,,,,51,80
16032,note_off,0,0,0,,,,,4,,,,,,,40,0
16032,note_on,0,0,0,,,,,4,,,,,,,39,80
16032,note_on,0,0,0,,,,,5,,,,,,,78,96
16032,note_off,0,0,0,,,,,6,,,,,,,52,0
16032,note_on,0,0,0,,,,,6,,,,,,,51,96
16039,note_off,7,0,0,,,,,5,,,,,,,78,0
16040,note_on,1,0,0,,,,,5,,,,,,,76,96
16044,note_off,4,0,0,,,,,3,,,,,,,51,0
16044,note_on,0,0,0,,,,,3,,,,,,,49,80
16044,note_off,0,0,0,,,,,4,,,,,,,39,0
16044,note_on,0,0,0,,,,,4,,,,,,,37,80
16044,note_off,0,0,0,,,,,6,,,,,,,51,0
16044,note_on,0,0,0,,,,,6,,,,,,,49,96
16047,note_off,3,0,0,,,,,5,,,,,,,76,0
16048,note_on,1,0,0,,,,,5,,,,,,,78,96
16053,note_off,5,0,0,,,,,0,,,,,,,60,0
16054,note_off,1,0,0,,,,,3,,,,,,,49,0
16054,note_off,0,0,0,,,,,4,,,,,,,37,0
16054,note_off,0,0,0,,,,,6,,,,,,,49,0
16055,note_off,1,0,0,,,,,5,,,,,,,78,0
16056,note_on,1,0,0,,,,,0,,,,,,,63,80
16056,note_on,0,0,0,,,,,1,,,,,,,56,80
16056,note_on,0,0,0,,,,,3,,,,,,,48,80
16056,note_on,0,0,0,,,,,4,,,,,,,36,80
16056,note_on,0,0,0,,,,,5,,,,,,,80,96
16056,note_on,0,0,0,,,,,6,,,,,,,48,96
16060,note_off,4,0,0,,,,,5,,,,,,,80,0
16060,note_on,0,0,0,,,,,5,,,,,,,78,96
16064,note_off,4,0,0,,,,,5,,,,,,,78,0
16064,note_on,0,0,0,,,,,5,,,,,,,80,96
16066,note_off,2,0,0,,,,,3,,,,,,,48,0
16066,note_off,0,0,0,,,,,4,,,,,,,36,0
16066,note_off,0,0,0,,,,,6,,,,,,,48,0
16068,note_on,2,0,0,,,,,3,,,,,,,49,80
16068,note_on,0,0,0,,,,,4,,,,,,,37,80
16068,note_off,0,0,0,,,,,5,,,,,,,80,0
16068,note_on,0,0,0,,,,,5,,,,,,,78,96
16068,note_on,0,0,0,,,,,6,,,,,,,49,96
16072,note_off,4,0,0,,,,,5,,,,,,,78,0
16072,note_on,0,0,0,,,,,5,,,,,,,80,96
16076,note_off,4,0,0,,,,,5,,,,,,,80,0
16076,note_on,0,0,0,,,,,5,,,,,,,78,96
16077,note_off,1,0,0,,,,,0,,,,,,,63,0
16077,note_off,0,0,0,,,,,1,,,,,,,56,0
16078,note_off,1,0,0,,,,,3,,,,,,,49,0
16078,note_off,0,0,0,,,,,4,,,,,,,37,0
16078,note_off,0,0,0,,,,,6,,,,,,,49,0
16080,note_on,2,0,0,,,,,0,,,,,,,56,80
16080,note_on,0,0,0,,,,,1,,,,,,,60,80
16080,note_on,0,0,0,,,,,3,,,,,,,51,80
16080,note_on,0,0,0,,,,,4,,,,,,,39,80
16080,note_off,0,0,0,,,,,5,,,,,,,78,0
16080,note_on,0,0,0,,,,,5,,,,,,,80,96
16080,note_on,0,0,0,,,,,6,,,,,,,51,96
16084,note_off,4,0,0,,,,,5,,,,,,,80,0
16084,note_on,0,0,0,,,,,5,,,,,,,78,96
16088,note_off,4,0,0,,,,,5,,,,,,,78,0
16088,note_on,0,0,0,,,,,5,,,,,,,80,96
16090,note_off,2,0,0,,,,,0,,,,,,,56,0
16090,note_off,0,0,0,,,,,3,,,,,,,51,0
16090,note_off,0,0,0,,,,,4,,,,,,,39,0
16090,note_off,0,0,0,,,,,6,,,,,,,51,0
16092,note_on,2,0,0,,,,,0,,,,,,,58,80
16092,note_on,0,0,0,,,,,3,,,,,,,49,80
16092,note_on,0,0,0,,,,,4,,,,,,,37,80
16092,note_off,0,0,0,,,,,5,,,,,,,80,0
16092,note_on,0,0,0,,,,,5,,,,,,,78,96
16092,note_on,0,0,0,,,,,6,,,,,,,49,96
16096,note_off,4,0,0,,,,,5,,,,,,,78,0
16096,note_on,0,0,0,,,,,5,,,,,,,80,96
16100,note_off,4,0,0,,,,,5,,,,,,,80,0
16100,note_on,0,0,0,,,,,5,,,,,,,78,96
16101,note_off,1,0,0,,,,,1,,,,,,,60,0
16102,note_off,1,0,0,,,,,0,,,,,,,58,0
16102,note_off,0,0,0,,,,,3,,,,,,,49,0
16102,note_off,0,0,0,,,,,4,,,,,,,37,0
16102,note_off,0,0,0,,,,,6,,,,,,,49,0
16104,note_on,2,0,0,,,,,0,,,,,,,60,80
16104,note_on,0,0,0,,,,,1,,,,,,,63,80
16104,note_on,0,0,0,,,,,3,,,,,,,48,80
16104,note_on,0,0,0,,,,,4,,,,,,,36,80
16104,note_off,0,0,0,,,,,5,,,,,,,78,0
16104,note_on,0,0,0,,,,,5,,,,,,,80,96
16104,note_on,0,0,0,,,,,6,,,,,,,48,96
16108,note_off,4,0,0,,,,,5,,,,,,,80,0
16108,note_on,0,0,0,,,,,5,,,,,,,78,96
16112,note_off,4,0,0,,,,,5,,,,,,,78,0
16112,note_on,0,0,0,,,,,5,,,,,,,80,96
16114,note_off,2,0,0,,,,,0,,,,,,,60,0
16114,note_off,0,0,0,,,,,3,,,,,,,48,0
16114,note_off,0,0,0,,,,,4,,,,,,,36,0
16114,note_off,0,0,0,,,,,6,,,,,,,48,0
16116,note_on,2,0,0,,,,,0,,,,,,,61,80
16116,note_on,0,0,0,,,,,3,,,,,,,46,80
16116,note_on,0,0,0,,,,,4,,,,,,,34,80
16116,note_off,0,0,0,,,,,5,,,,,,,80,0
16116,note_on,0,0,0,,,,,5,,,,,,,78,96
16116,note_on,0,0,0,,,,,6,,,,,,,46,96
16120,note_off,4,0,0,,,,,5,,,,,,,78,0
16120,note_on,0,0,0,,,,,5,,,,,,,80,96
16124,note_off,4,0,0,,,,,5,,,,,,,80,0
16124,note_on,0,0,0,,,,,5,,,,,,,78,96
16125,note_off,1,0,0,,,,,1,,,,,,,63,0
16126,note_off,1,0,0,,,,,0,,,,,,,61,0
16126,note_off,0,0,0,,,,,3,,,,,,,46,0
16126,note_off,0,0,0,,,,,4,,,,,,,34,0
16126,note_off,0,0,0,,,,,6,,,,,,,46,0
16128,note_on,2,0,0,,,,,0,,,,,,,63,80
16128,note_on,0,0,0,,,,,1,,,,,,,60,80
16128,note_on,0,0,0,,,,,2,,,,,,,56,80
16128,note_on,0,0,0,,,,,3,,,,,,,44,80
16128,note_on,0,0,0,,,,,4,,,,,,,32,80
16128,note_off,0,0,0,,,,,5,,,,,,,78,0
16128,note_on,0,0,0,,,,,5,,,,,,,80,96
16128,note_on,0,0,0,,,,,6,,,,,,,44,96
16132,note_off,4,0,0,,,,,5,,,,,,,80,0
16132,note_on,0,0,0,,,,,5,,,,,,,78,96
16135,note_off,3,0,0,,,,,6,,,,,,,44,0
16136,note_off,1,0,0,,,,,5,,,,,,,78,0
16136,note_on,0,0,0,,,,,5,,,,,,,80,96
16136,note_on,0,0,0,,,,,6,,,,,,,48,96
16140,note_off,4,0,0,,,,,5,,,,,,,80,0
16140,note_on,0,0,0,,,,,5,,,,,,,78,96
16143,note_off,3,0,0,,,,,6,,,,,,,48,0
16144,note_off,1,0,0,,,,,5,,,,,,,78,0
16144,note_on,0,0,0,,,,,5,,,,,,,80,96
16144,note_on,0,0,0,,,,,6,,,,,,,44,96
16148,note_off,4,0,0,,,,,5,,,,,,,80,0
16148,note_on,0,0,0,,,,,5,,,,,,,78,96
16149,note_off,1,0,0,,,,,0,,,,,,,63,0
16149,note_off,0,0,0,,,,,1,,,,,,,60,0
16149,note_off,0,0,0,,,,,2,,,,,,,56,0
16149,note_off,0,0,0,,,,,3,,,,,,,44,0
16149,note_off,0,0,0,,,,,4,,,,,,,32,0
16151,note_off,2,0,0,,,,,6,,,,,,,44,0
16152,note_on,1,0,0,,,,,0,,,,,,,68,80
16152,note_on,0,0,0,,,,,1,,,,,,,63,80
16152,note_on,0,0,0,,,,,2,,,,,,,60,80
16152,note_on,0,0,0,,,,,3,,,,,,,56,80
16152,note_on,0,0,0,,,,,4,,,,,,,44,80
16152,note_off,0,0,0,,,,,5,,,,,,,78,0
16152,note_on,0,0,0,,,,,5,,,,,,,80,96
16152,note_on,0,0,0,,,,,6,,,,,,,39,96
16156,note_off,4,0,0,,,,,5,,,,,,,80,0
16156,note_on,0,0,0,,,,,5,,,,,,,78,96
16159,note_off,3,0,0,,,,,6,,,,,,,39,0
16160,note_off,1,0,0,,,,,5,,,,,,,78,0
16160,note_on,0,0,0,,,,,5,,,,,,,80,96
16160,note_on,0,0,0,,,,,6,,,,,,,44,96
16164,note_off,4,0,0,,,,,5,,,,,,,80,0
16164,note_on,0,0,0,,,,,5,,,,,,,78,96
16167,note_off,3,0,0,,,,,6,,,,,,,44,0
16168,note_off,1,0,0,,,,,5,,,,,,,78,0
16168,note_on,0,0,0,,,,,5,,,,,,,80,96
16168,note_on,0,0,0,,,,,6,,,,,,,39,96
16172,note_off,4,0,0,,,,,5,,,,,,,80,0
16172,note_on,0,0,0,,,,,5,,,,,,,78,96
16173,note_off,1,0,0,,,,,0,,,,,,,68,0
16173,note_off,0,0,0,,,,,1,,,,,,,63,0
16173,note_off,0,0,0,,,,,2,,,,,,,60,0
16173,note_off,0,0,0,,,,,3,,,,,,,56,0
16173,note_off,0,0,0,,,,,4,,,,,,,44,0
16175,note_off,2,0,0,,,,,6,,,,,,,39,0
16176,note_on,1,0,0,,,,,0,,,,,,,72,80
16176,note_on,0,0,0,,,,,1,,,,,,,68,80
16176,note_on,0,0,0,,,,,2,,,,,,,63,80
16176,note_off,0,0,0,,,,,5,,,,,,,78,0
16176,note_on,0,0,0,,,,,5,,,,,,,80,96
16176,note_on,0,0,0,,,,,6,,,,,,,36,96
16180,note_off,4,0,0,,,,,5,,,,,,,80,0
16180,note_on,0,0,0,,,,,5,,,,,,,78,96
16183,note_off,3,0,0,,,,,6,,,,,,,36,0
16184,note_off,1,0,0,,,,,5,,,,,,,78,0
16184,note_on,0,0,0,,,,,5,,,,,,,80,96
16184,note_on,0,0,0,,,,,6,,,,,,,39,96
16188,note_off,4,0,0,,,,,5,,,,,,,80,0
16188,note_on,0,0,0,,,,,5,,,,,,,78,96
16191,note_off,3,0,0,,,,,6,,,,,,,39,0
16192,note_on,1,0,0,,,,,6,,,,,,,36,96
16197,note_off,5,0,0,,,,,0,,,,,,,72,0
16197,note_off,0,0,0,,,,,1,,,,,,,68,0
16197,note_off,0,0,0,,,,,2,,,,,,,63,0
16199,note_off,2,0,0,,,,,6,,,,,,,36,0
16200,note_on,1,0,0,,,,,0,,,,,,,75,80
16200,note_on,0,0,0,,,,,1,,,,,,,72,80
16200,note_on,0,0,0,,,,,2,,,,,,,68,80
16200,note_on,0,0,0,,,,,6,,,,,,,32,96
16209,note_off,9,0,0,,,,,5,,,,,,,78,0
16212,note_on,3,0,0,,,,,5,,,,,,,75,96
16221,note_off,9,0,0,,,,,0,,,,,,,75,0
16221,note_off,0,0,0,,,,,1,,,,,,,72,0
16221,note_off,0,0,0,,,,,2,,,,,,,68,0
16221,note_off,0,0,0,,,,,6,,,,,,,32,0
16222,note_off,1,0,0,,,,,5,,,,,,,75,0
16224,note_on,2,0,0,,,,,0,,,,,,,76,80
16224,note_on,0,0,0,,,,,1,,,,,,,68,80
16224,note_on,0,0,0,,,,,2,,,,,,,61,80
16224,note_on,0,0,0,,,,,3,,,,,,,56,80
16224,note_on,0,0,0,,,,,4,,,,,,,44,80
16224,note_on,0,0,0,,,,,5,,,,,,,73,96
16234,note_off,10,0,0,,,,,0,,,,,,,76,0
16234,note_off,0,0,0,,,,,5,,,,,,,73,0
16236,note_on,2,0,0,,,,,0,,,,,,,75,80
16236,note_on,0,0,0,,,,,5,,,,,,,72,96
16245,note_off,9,0,0,,,,,1,,,,,,,68,0
16245,note_off,0,0,0,,,,,2,,,,,,,61,0
16245,note_off,0,0,0,,,,,3,,,,,,,56,0
16245,note_off,0,0,0,,,,,4,,,,,,,44,0
16246,note_off,1,0,0,,,,,0,,,,,,,75,0
16246,note_off,0,0,0,,,,,5,,,,,,,72,0
16248,note_on,2,0,0,,,,,0,,,,,,,73,80
16248,note_on,0,0,0,,,,,1,,,,,,,68,80
16248,note_on,0,0,0,,,,,2,,,,,,,63,80
16248,note_on,0,0,0,,,,,3,,,,,,,44,80
16248,note_on,0,0,0,,,,,4,,,,,,,32,80
16248,note_on,0,0,0,,,,,5,,,,,,,70,96
16248,note_on,0,0,0,,,,,6,,,,,,,44,96
16258,note_off,10,0,0,,,,,0,,,,,,,73,0
16258,note_off,0,0,0,,,,,5,,,,,,,70,0
16260,note_on,2,0,0,,,,,0,,,,,,,72,80
16260,note_on,0,0,0,,,,,5,,,,,,,68,96
16269,note_off,9,0,0,,,,,1,,,,,,,68,0
16269,note_off,0,0,0,,,,,2,,,,,,,63,0
16269,note_off,0,0,0,,,,,3,,,,,,,44,0
16269,note_off,0,0,0,,,,,4,,,,,,,32,0
16269,note_off,0,0,0,,,,,6,,,,,,,44,0
16270,note_off,1,0,0,,,,,0,,,,,,,72,0
16270,note_off,0,0,0,,,,,5,,,,,,,68,0
16272,note_on,2,0,0,,,,,0,,,,,,,73,80
16272,note_on,0,0,0,,,,,1,,,,,,,68,80
16272,note_on,0,0,0,,,,,2,,,,,,,61,80
16272,note_on,0,0,0,,,,,3,,,,,,,49,80
16272,note_on,0,0,0,,,,,4,,,,,,,37,80
16272,note_on,0,0,0,,,,,5,,,,,,,76,96
16272,note_on,0,0,0,,,,,6,,,,,,,49,96
16282,note_off,10,0,0,,,,,0,,,,,,,73,0
16284,note_on,2,0,0,,,,,0,,,,,,,68,80
16293,note_off,9,0,0,,,,,3,,,,,,,49,0
16293,note_off,0,0,0,,,,,4,,,,,,,37,0
16293,note_off,0,0,0,,,,,6,,,,,,,49,0
16294,note_off,1,0,0,,,,,0,,,,,,,68,0
16296,note_on,2,0,0,,,,,0,,,,,,,66,80
16296,note_on,0,0,0,,,,,3,,,,,,,51,80
16296,note_on,0,0,0,,,,,4,,,,,,,39,80
16296,note_on,0,0,0,,,,,6,,,,,,,51,96
16306,note_off,10,0,0,,,,,0,,,,,,,66,0
16308,note_on,2,0,0,,,,,0,,,,,,,64,80
16317,note_off,9,0,0,,,,,3,,,,,,,51,0
16317,note_off,0,0,0,,,,,4,,,,,,,39,0
16317,note_off,0,0,0,,,,,6,,,,,,,51,0
16318,note_off,1,0,0,,,,,0,,,,,,,64,0
16320,note_on,2,0,0,,,,,0,,,,,,,63,80
16320,note_on,0,0,0,,,,,3,,,,,,,52,80
16320,note_on,0,0,0,,,,,4,,,,,,,40,80
16320,note_on,0,0,0,,,,,6,,,,,,,52,96
16330,note_off,10,0,0,,,,,0,,,,,,,63,0
16332,note_on,2,0,0,,,,,0,,,,,,,61,80
16335,note_off,3,0,0,,,,,1,,,,,,,68,0
16341,note_off,6,0,0,,,,,3,,,,,,,52,0
16341,note_off,0,0,0,,,,,4,,,,,,,40,0
16341,note_off,0,0,0,,,,,6,,,,,,,52,0
16342,note_off,1,0,0,,,,,0,,,,,,,61,0
16344,note_on,2,0,0,,,,,0,,,,,,,69,80
16344,note_on,0,0,0,,,,,1,,,,,,,66,80
16344,note_on,0,0,0,,,,,3,,,,,,,42,80
16344,note_on,0,0,0,,,,,4,,,,,,,30,80
16344,note_on,0,0,0,,,,,6,,,,,,,42,96
16345,note_off,1,0,0,,,,,5,,,,,,,76,0
16356,note_on,11,0,0,,,,,5,,,,,,,73,96
16365,note_off,9,0,0,,,,,3,,,,,,,42,0
16365,note_off,0,0,0,,,,,4,,,,,,,30,0
16365,note_off,0,0,0,,,,,6,,,,,,,42,0
16366,note_off,1,0,0,,,,,5,,,,,,,73,0
16368,note_on,2,0,0,,,,,3,,,,,,,54,80
16368,note_on,0,0,0,,,,,4,,,,,,,42,80
16368,note_on,0,0,0,,,,,5,,,,,,,71,96
16368,note_on,0,0,0,,,,,6,,,,,,,54,96
16378,note_off,10,0,0,,,,,5,,,,,,,71,0
16380,note_on,2,0,0,,,,,5,,,,,,,69,96
16389,note_off,9,0,0,,,,,3,,,,,,,54,0
16389,note_off,0,0,0,,,,,4,,,,,,,42,0
16389,note_off,0,0,0,,,,,6,,,,,,,54,0
16390,note_off,1,0,0,,,,,5,,,,,,,69,0
16392,note_on,2,0,0,,,,,5,,,,,,,68,96
16402,note_off,10,0,0,,,,,5,,,,,,,68,0
16404,note_off,2,0,0,,,,,2,,,,,,,61,0
16404,note_on,0,0,0,,,,,5,,,,,,,66,96
16414,note_off,10,0,0,,,,,5,,,,,,,66,0
16416,note_on,2,0,0,,,,,2,,,,,,,59,80
16416,note_on,0,0,0,,,,,3,,,,,,,47,80
16416,note_on,0,0,0,,,,,4,,,,,,,35,80
16416,note_on,0,0,0,,,,,5,,,,,,,74,96
16416,note_on,0,0,0,,,,,6,,,,,,,47,96
16417,note_off,1,0,0,,,,,0,,,,,,,69,0
16428,note_on,11,0,0,,,,,0,,,,,,,66,80
16437,note_off,9,0,0,,,,,3,,,,,,,47,0
16437,note_off,0,0,0,,,,,4,,,,,,,35,0
16437,note_off,0,0,0,,,,,6,,,,,,,47,0
16438,note_off,1,0,0,,,,,0,,,,,,,66,0
16440,note_on,2,0,0,,,,,0,,,,,,,64,80
16440,note_on,0,0,0,,,,,3,,,,,,,49,80
16440,note_on,0,0,0,,,,,4,,,,,,,37,80
16440,note_on,0,0,0,,,,,6,,,,,,,49,96
16450,note_off,10,0,0,,,,,0,,,,,,,64,0
16452,note_on,2,0,0,,,,,0,,,,,,,62,80
16461,note_off,9,0,0,,,,,3,,,,,,,49,0
16461,note_off,0,0,0,,,,,4,,,,,,,37,0
16461,note_off,0,0,0,,,,,6,,,,,,,49,0
16462,note_off,1,0,0,,,,,0,,,,,,,62,0
16464,note_on,2,0,0,,,,,0,,,,,,,61,80
16464,note_on,0,0,0,,,,,3,,,,,,,50,80
16464,note_on,0,0,0,,,,,4,,,,,,,38,80
16464,note_on,0,0,0,,,,,6,,,,,,,50,96
16474,note_off,10,0,0,,,,,0,,,,,,,61,0
16476,note_on,2,0,0,,,,,0,,,,,,,59,80
16476,note_off,0,0,0,,,,,1,,,,,,,66,0
16485,note_off,9,0,0,,,,,3,,,,,,,50,0
16485,note_off,0,0,0,,,,,4,,,,,,,38,0
16485,note_off,0,0,0,,,,,6,,,,,,,50,0
16486,note_off,1,0,0,,,,,0,,,,,,,59,0
16488,note_on,2,0,0,,,,,0,,,,,,,68,80
16488,note_on,0,0,0,,,,,1,,,,,,,64,80
16488,note_on,0,0,0,,,,,3,,,,,,,40,80
16488,note_on,0,0,0,,,,,4,,,,,,,28,80
16488,note_on,0,0,0,,,,,6,,,,,,,40,96
16489,note_off,1,0,0,,,,,5,,,,,,,74,0
16500,note_on,11,0,0,,,,,5,,,,,,,71,96
16509,note_off,9,0,0,,,,,3,,,,,,,40,0
16509,note_off,0,0,0,,,,,4,,,,,,,28,0
16509,note_off,0,0,0,,,,,6,,,,,,,40,0
16510,note_off,1,0,0,,,,,5,,,,,,,71,0
16512,note_on,2,0,0,,,,,3,,,,,,,52,80
16512,note_on,0,0,0,,,,,4,,,,,,,40,80
16512,note_on,0,0,0,,,,,5,,,,,,,69,96
16512,note_on,0,0,0,,,,,6,,,,,,,52,96
16522,note_off,10,0,0,,,,,5,,,,,,,69,0
16524,note_on,2,0,0,,,,,5,,,,,,,68,96
16533,note_off,9,0,0,,,,,3,,,,,,,52,0
16533,note_off,0,0,0,,,,,4,,,,,,,40,0
16533,note_off,0,0,0,,,,,6,,,,,,,52,0
16534,note_off,1,0,0,,,,,5,,,,,,,68,0
16536,note_on,2,0,0,,,,,5,,,,,,,66,96
16546,note_off,10,0,0,,,,,5,,,,,,,66,0
16548,note_off,2,0,0,,,,,2,,,,,,,59,0
16548,note_on,0,0,0,,,,,5,,,,,,,64,96
16558,note_off,10,0,0,,,,,5,,,,,,,64,0
16560,note_on,2,0,0,,,,,2,,,,,,,57,80
16560,note_on,0,0,0,,,,,3,,,,,,,45,80
16560,note_on,0,0,0,,,,,4,,,,,,,33,80
16560,note_on,0,0,0,,,,,5,,,,,,,73,96
16560,note_on,0,0,0,,,,,6,,,,,,,45,96
16570,note_off,10,0,0,,,,,5,,,,,,,73,0
16572,note_off,2,0,0,,,,,0,,,,,,,68,0
16572,note_on,0,0,0,,,,,5,,,,,,,72,96
16581,note_off,9,0,0,,,,,3,,,,,,,45,0
16581,note_off,0,0,0,,,,,4,,,,,,,33,0
16581,note_off,0,0,0,,,,,6,,,,,,,45,0
16582,note_off,1,0,0,,,,,5,,,,,,,72,0
16584,note_on,2,0,0,,,,,0,,,,,,,64,80
16584,note_on,0,0,0,,,,,3,,,,,,,57,80
16584,note_on,0,0,0,,,,,4,,,,,,,45,80
16584,note_on,0,0,0,,,,,5,,,,,,,73,96
16584,note_on,0,0,0,,,,,6,,,,,,,57,96
16594,note_off,10,0,0,,,,,5,,,,,,,73,0
16594,note_off,0,0,0,,,,,6,,,,,,,57,0
16596,note_off,2,0,0,,,,,1,,,,,,,64,0
16596,note_on,0,0,0,,,,,5,,,,,,,76,96
16596,note_on,0,0,0,,,,,6,,,,,,,56,96
16605,note_off,9,0,0,,,,,0,,,,,,,64,0
16605,note_off,0,0,0,,,,,3,,,,,,,57,0
16605,note_off,0,0,0,,,,,4,,,,,,,45,0
16606,note_off,1,0,0,,,,,5,,,,,,,76,0
16606,note_off,0,0,0,,,,,6,,,,,,,56,0
16608,note_on,2,0,0,,,,,0,,,,,,,69,80
16608,note_on,0,0,0,,,,,1,,,,,,,66,80
16608,note_on,0,0,0,,,,,3,,,,,,,54,80
16608,note_on,0,0,0,,,,,4,,,,,,,42,80
16608,note_on,0,0,0,,,,,5,,,,,,,75,96
16608,note_on,0,0,0,,,,,6,,,,,,,54,96
16618,note_off,10,0,0,,,,,5,,,,,,,75,0
16618,note_off,0,0,0,,,,,6,,,,,,,54,0
16620,note_on,2,0,0,,,,,5,,,,,,,72,96
16620,note_on,0,0,0,,,,,6,,,,,,,52,96
16629,note_off,9,0,0,,,,,0,,,,,,,69,0
16629,note_off,0,0,0,,,,,1,,,,,,,66,0
16629,note_off,0,0,0,,,,,3,,,,,,,54,0
16629,note_off,0,0,0,,,,,4,,,,,,,42,0
16630,note_off,1,0,0,,,,,5,,,,,,,72,0
16630,note_off,0,0,0,,,,,6,,,,,,,52,0
16632,note_on,2,0,0,,,,,0,,,,,,,66,80
16632,note_on,0,0,0,,,,,1,,,,,,,69,80
16632,note_on,0,0,0,,,,,3,,,,,,,51,80
16632,note_on,0,0,0,,,,,4,,,,,,,39,80
16632,note_on,0,0,0,,,,,5,,,,,,,73,96
16632,note_on,0,0,0,,,,,6,,,,,,,51,96
16642,note_off,10,0,0,,,,,5,,,,,,,73,0
16642,note_off,0,0,0,,,,,6,,,,,,,51,0
16644,note_off,2,0,0,,,,,2,,,,,,,57,0
16644,note_on,0,0,0,,,,,5,,,,,,,78,96
16644,note_on,0,0,0,,,,,6,,,,,,,48,96
16653,note_off,9,0,0,,,,,1,,,,,,,69,0
16653,note_off,0,0,0,,,,,3,,,,,,,51,0
16653,note_off,0,0,0,,,,,4,,,,,,,39,0
16654,note_off,1,0,0,,,,,5,,,,,,,78,0
16654,note_off,0,0,0,,,,,6,,,,,,,48,0
16656,note_on,2,0,0,,,,,1,,,,,,,68,80
16656,note_on,0,0,0,,,,,2,,,,,,,61,80
16656,note_on,0,0,0,,,,,3,,,,,,,52,80
16656,note_on,0,0,0,,,,,4,,,,,,,40,80
16656,note_on,0,0,0,,,,,5,,,,,,,80,96
16656,note_on,0,0,0,,,,,6,,,,,,,52,96
16666,note_off,10,0,0,,,,,5,,,,,,,80,0
16666,note_off,0,0,0,,,,,6,,,,,,,52,0
16668,note_on,2,0,0,,,,,5,,,,,,,81,96
16668,note_on,0,0,0,,,,,6,,,,,,,49,96
16677,note_off,9,0,0,,,,,1,,,,,,,68,0
16677,note_off,0,0,0,,,,,2,,,,,,,61,0
16677,note_off,0,0,0,,,,,3,,,,,,,52,0
16677,note_off,0,0,0,,,,,4,,,,,,,40,0
16678,note_off,1,0,0,,,,,5,,,,,,,81,0
16678,note_off,0,0,0,,,,,6,,,,,,,49,0
16680,note_on,2,0,0,,,,,1,,,,,,,66,80
16680,note_on,0,0,0,,,,,2,,,,,,,63,80
16680,note_on,0,0,0,,,,,3,,,,,,,54,80
16680,note_on,0,0,0,,,,,4,,,,,,,42,80
16680,note_on,0,0,0,,,,,5,,,,,,,75,96
16680,note_on,0,0,0,,,,,6,,,,,,,54,96
16690,note_off,10,0,0,,,,,5,,,,,,,75,0
16690,note_off,0,0,0,,,,,6,,,,,,,54,0
16692,note_on,2,0,0,,,,,5,,,,,,,78,96
16692,note_on,0,0,0,,,,,6,,,,,,,51,96
16701,note_off,9,0,0,,,,,1,,,,,,,66,0
16701,note_off,0,0,0,,,,,2,,,,,,,63,0
16701,note_off,0,0,0,,,,,3,,,,,,,54,0
16701,note_off,0,0,0,,,,,4,,,,,,,42,0
16702,note_off,1,0,0,,,,,5,,,,,,,78,0
16702,note_off,0,0,0,,,,,6,,,,,,,51,0
16704,note_on,2,0,0,,,,,1,,,,,,,72,80
16704,note_on,0,0,0,,,,,2,,,,,,,63,80
16704,note_on,0,0,0,,,,,3,,,,,,,44,80
16704,note_on,0,0,0,,,,,4,,,,,,,32,80
16704,note_on,0,0,0,,,,,5,,,,,,,72,96
16704,note_on,0,0,0,,,,,6,,,,,,,56,96
16714,note_off,10,0,0,,,,,5,,,,,,,72,0
16716,note_on,2,0,0,,,,,5,,,,,,,75,96
16725,note_off,9,0,0,,,,,3,,,,,,,44,0
16725,note_off,0,0,0,,,,,4,,,,,,,32,0
16725,note_off,0,0,0,,,,,6,,,,,,,56,0
16726,note_off,1,0,0,,,,,5,,,,,,,75,0
16728,note_on,2,0,0,,,,,3,,,,,,,56,80
16728,note_on,0,0,0,,,,,4,,,,,,,44,80
16728,note_on,0,0,0,,,,,5,,,,,,,76,96
16728,note_on,0,0,0,,,,,6,,,,,,,44,96
16738,note_off,10,0,0,,,,,5,,,,,,,76,0
16740,note_on,2,0,0,,,,,5,,,,,,,78,96
16749,note_off,9,0,0,,,,,3,,,,,,,56,0
16749,note_off,0,0,0,,,,,4,,,,,,,44,0
16749,note_off,0,0,0,,,,,6,,,,,,,44,0
16750,note_off,1,0,0,,,,,5,,,,,,,78,0
16752,note_on,2,0,0,,,,,5,,,,,,,72,96
16762,note_off,10,0,0,,,,,5,,,,,,,72,0
16764,note_on,2,0,0,,,,,5,,,,,,,75,96
16774,note_off,10,0,0,,,,,5,,,,,,,75,0
16776,note_on,2,0,0,,,,,3,,,,,,,57,80
16776,note_on,0,0,0,,,,,4,,,,,,,45,80
16776,note_on,0,0,0,,,,,5,,,,,,,66,96
16776,note_on,0,0,0,,,,,6,,,,,,,57,96
16786,note_off,10,0,0,,,,,5,,,,,,,66,0
16788,note_on,2,0,0,,,,,5,,,,,,,72,96
16797,note_off,9,0,0,,,,,3,,,,,,,57,0
16797,note_off,0,0,0,,,,,4,,,,,,,45,0
16797,note_off,0,0,0,,,,,6,,,,,,,57,0
16798,note_off,1,0,0,,,,,5,,,,,,,72,0
16800,note_on,2,0,0,,,,,3,,,,,,,54,80
16800,note_on,0,0,0,,,,,4,,,,,,,42,80
16800,note_on,0,0,0,,,,,5,,,,,,,73,96
16800,note_on,0,0,0,,,,,6,,,,,,,54,96
16810,note_off,10,0,0,,,,,5,,,,,,,73,0
16812,note_on,2,0,0,,,,,5,,,,,,,75,96
16821,note_off,9,0,0,,,,,3,,,,,,,54,0
16821,note_off,0,0,0,,,,,4,,,,,,,42,0
16821,note_off,0,0,0,,,,,6,,,,,,,54,0
16822,note_off,1,0,0,,,,,5,,,,,,,75,0
16824,note_on,2,0,0,,,,,3,,,,,,,51,80
16824,note_on,0,0,0,,,,,4,,,,,,,39,80
16824,note_on,0,0,0,,,,,5,,,,,,,66,96
16824,note_on,0,0,0,,,,,6,,,,,,,51,96
16834,note_off,10,0,0,,,,,5,,,,,,,66,0
16836,note_on,2,0,0,,,,,5,,,,,,,69,96
16845,note_off,9,0,0,,,,,3,,,,,,,51,0
16845,note_off,0,0,0,,,,,4,,,,,,,39,0
16845,note_off,0,0,0,,,,,6,,,,,,,51,0
16846,note_off,1,0,0,,,,,5,,,,,,,69,0
16848,note_on,2,0,0,,,,,3,,,,,,,44,80
16848,note_on,0,0,0,,,,,4,,,,,,,32,80
16848,note_on,0,0,0,,,,,5,,,,,,,63,96
16848,note_on,0,0,0,,,,,6,,,,,,,56,96
16858,note_off,10,0,0,,,,,6,,,,,,,56,0
16860,note_on,2,0,0,,,,,6,,,,,,,54,96
16869,note_off,9,0,0,,,,,5,,,,,,,63,0
16870,note_off,1,0,0,,,,,6,,,,,,,54,0
16872,note_off,2,0,0,,,,,0,,,,,,,66,0
16872,note_off,0,0,0,,,,,1,,,,,,,72,0
16872,note_off,0,0,0,,,,,2,,,,,,,63,0
16872,note_on,0,0,0,,,,,5,,,,,,,64,96
16872,note_on,0,0,0,,,,,5,,,,,,,61,96
16872,note_on,0,0,0,,,,,6,,,,,,,56,96
16882,note_off,10,0,0,,,,,6,,,,,,,56,0
16884,note_on,2,0,0,,,,,6,,,,,,,58,96
16893,note_off,9,0,0,,,,,5,,,,,,,64,0
16893,note_off,0,0,0,,,,,5,,,,,,,61,0
16894,note_off,1,0,0,,,,,6,,,,,,,58,0
16896,note_on,2,0,0,,,,,5,,,,,,,65,96
16896,note_on,0,0,0,,,,,5,,,,,,,62,96
16896,note_on,0,0,0,,,,,6,,,,,,,59,96
16906,note_off,10,0,0,,,,,6,,,,,,,59,0
16908,note_on,2,0,0,,,,,6,,,,,,,56,96
16917,note_off,9,0,0,,,,,5,,,,,,,65,0
16917,note_off,0,0,0,,,,,5,,,,,,,62,0
16918,note_off,1,0,0,,,,,6,,,,,,,56,0
16920,note_on,2,0,0,,,,,5,,,,,,,66,96
16920,note_on,0,0,0,,,,,5,,,,,,,61,96
16920,note_on,0,0,0,,,,,6,,,,,,,58,96
16930,note_off,10,0,0,,,,,6,,,,,,,58,0
16932,note_on,2,0,0,,,,,6,,,,,,,59,96
16941,note_off,9,0,0,,,,,5,,,,,,,66,0
16941,note_off,0,0,0,,,,,5,,,,,,,61,0
16942,note_off,1,0,0,,,,,6,,,,,,,59,0
16944,note_on,2,0,0,,,,,5,,,,,,,67,96
16944,note_on,0,0,0,,,,,5,,,,,,,64,96
16944,note_on,0,0,0,,,,,6,,,,,,,61,96
16954,note_off,10,0,0,,,,,6,,,,,,,61,0
16956,note_on,2,0,0,,,,,6,,,,,,,58,96
16965,note_off,9,0,0,,,,,5,,,,,,,67,0
16965,note_off,0,0,0,,,,,5,,,,,,,64,0
16966,note_off,1,0,0,,,,,6,,,,,,,58,0
16968,note_on,2,0,0,,,,,5,,,,,,,68,96
16968,note_on,0,0,0,,,,,5,,,,,,,63,96
16968,note_on,0,0,0,,,,,6,,,,,,,59,96
16978,note_off,10,0,0,,,,,6,,,,,,,59,0
16980,note_on,2,0,0,,,,,6,,,,,,,56,96
16989,note_off,9,0,0,,,,,5,,,,,,,68,0
16989,note_off,0,0,0,,,,,5,,,,,,,63,0
16990,note_off,1,0,0,,,,,6,,,,,,,56,0
16992,note_on,2,0,0,,,,,5,,,,,,,70,96
16992,note_on,0,0,0,,,,,5,,,,,,,67,96
16992,note_on,0,0,0,,,,,6,,,,,,,61,96
17002,note_off,10,0,0,,,,,6,,,,,,,61,0
17004,note_on,2,0,0,,,,,6,,,,,,,56,96
17013,note_off,9,0,0,,,,,5,,,,,,,70,0
17013,note_off,0,0,0,,,,,5,,,,,,,67,0
17014,note_off,1,0,0,,,,,6,,,,,,,56,0
17016,note_on,2,0,0,,,,,5,,,,,,,71,96
17016,note_on,0,0,0,,,,,5,,,,,,,68,96
17016,note_on,0,0,0,,,,,6,,,,,,,63,96
17026,note_off,10,0,0,,,,,6,,,,,,,63,0
17028,note_on,2,0,0,,,,,6,,,,,,,56,96
17037,note_off,9,0,0,,,,,5,,,,,,,71,0
17037,note_off,0,0,0,,,,,5,,,,,,,68,0
17038,note_off,1,0,0,,,,,6,,,,,,,56,0
17040,note_off,2,0,0,,,,,3,,,,,,,44,0
17040,note_off,0,0,0,,,,,4,,,,,,,32,0
17040,note_on,0,0,0,,,,,5,,,,,,,72,96
17040,note_on,0,0,0,,,,,5,,,,,,,68,96
17040,note_on,0,0,0,,,,,6,,,,,,,63,96
17040,note_on,0,0,0,,,,,6,,,,,,,54,96
17050,note_off,10,0,0,,,,,6,,,,,,,54,0
17052,note_on,2,0,0,,,,,6,,,,,,,56,96
17061,note_off,9,0,0,,,,,5,,,,,,,72,0
17061,note_off,0,0,0,,,,,5,,,,,,,68,0
17061,note_off,0,0,0,,,,,6,,,,,,,63,0
17062,note_off,1,0,0,,,,,6,,,,,,,56,0
17064,note_on,2,0,0,,,,,5,,,,,,,73,96
17064,note_on,0,0,0,,,,,6,,,,,,,68,96
17064,note_on,0,0,0,,,,,6,,,,,,,64,96
17064,note_on,0,0,0,,,,,6,,,,,,,52,96
17074,note_off,10,0,0,,,,,6,,,,,,,52,0
17076,note_on,2,0,0,,,,,6,,,,,,,61,96
17085,note_off,9,0,0,,,,,5,,,,,,,73,0
17085,note_off,0,0,0,,,,,6,,,,,,,68,0
17085,note_off,0,0,0,,,,,6,,,,,,,64,0
17086,note_off,1,0,0,,,,,6,,,,,,,61,0
17088,note_on,2,0,0,,,,,0,,,,,,,68,80
17088,note_on,0,0,0,,,,,1,,,,,,,68,80
17088,note_on,0,0,0,,,,,2,,,,,,,68,80
17088,note_on,0,0,0,,,,,3,,,,,,,56,80
17088,note_on,0,0,0,,,,,4,,,,,,,44,80
17088,note_on,0,0,0,,,,,5,,,,,,,76,96
17088,note_on,0,0,0,,,,,6,,,,,,,56,96
17098,note_off,10,0,0,,,,,5,,,,,,,76,0
17098,note_off,0,0,0,,,,,6,,,,,,,56,0
17100,note_off,2,0,0,,,,,0,,,,,,,68,0
17100,note_on,0,0,0,,,,,0,,,,,,,66,80
17100,note_off,0,0,0,,,,,1,,,,,,,68,0
17100,note_on,0,0,0,,,,,1,,,,,,,66,80
17100,note_off,0,0,0,,,,,2,,,,,,,68,0
17100,note_on,0,0,0,,,,,2,,,,,,,66,80
17100,note_off,0,0,0,,,,,3,,,,,,,56,0
17100,note_on,0,0,0,,,,,3,,,,,,,54,80
17100,note_off,0,0,0,,,,,4,,,,,,,44,0
17100,note_on,0,0,0,,,,,4,,,,,,,42,80
17100,note_on,0,0,0,,,,,5,,,,,,,75,96
17100,note_on,0,0,0,,,,,6,,,,,,,54,96
17110,note_off,10,0,0,,,,,5,,,,,,,75,0
17110,note_off,0,0,0,,,,,6,,,,,,,54,0
17112,note_off,2,0,0,,,,,0,,,,,,,66,0
17112,note_on,0,0,0,,,,,0,,,,,,,64,80
17112,note_off,0,0,0,,,,,1,,,,,,,66,0
17112,note_on,0,0,0,,,,,1,,,,,,,64,80
17112,note_off,0,0,0,,,,,2,,,,,,,66,0
17112,note_on,0,0,0,,,,,2,,,,,,,64,80
17112,note_off,0,0,0,,,,,3,,,,,,,54,0
17112,note_on,0,0,0,,,,,3,,,,,,,52,80
17112,note_off,0,0,0,,,,,4,,,,,,,42,0
17112,note_on,0,0,0,,,,,4,,,,,,,40,80
17112,note_on,0,0,0,,,,,5,,,,,,,76,96
17112,note_on,0,0,0,,,,,6,,,,,,,52,96
17122,note_off,10,0,0,,,,,6,,,,,,,52,0
17124,note_off,2,0,0,,,,,0,,,,,,,64,0
17124,note_on,0,0,0,,,,,0,,,,,,,63,80
17124,note_off,0,0,0,,,,,1,,,,,,,64,0
17124,note_on,0,0,0,,,,,1,,,,,,,63,80
17124,note_off,0,0,0,,,,,2,,,,,,,64,0
17124,note_on,0,0,0,,,,,2,,,,,,,63,80
17124,note_off,0,0,0,,,,,3,,,,,,,52,0
17124,note_on,0,0,0,,,,,3,,,,,,,51,80
17124,note_off,0,0,0,,,,,4,,,,,,,40,0
17124,note_on,0,0,0,,,,,4,,,,,,,39,80
17124,note_on,0,0,0,,,,,6,,,,,,,51,96
17133,note_off,9,0,0,,,,,5,,,,,,,76,0
17134,note_off,1,0,0,,,,,0,,,,,,,63,0
17134,note_off,0,0,0,,,,,1,,,,,,,63,0
17134,note_off,0,0,0,,,,,2,,,,,,,63,0
17134,note_off,0,0,0,,,,,3,,,,,,,51,0
17134,note_off,0,0,0,,,,,4,,,,,,,39,0
17134,note_off,0,0,0,,,,,6,,,,,,,51,0
17136,note_on,2,0,0,,,,,0,,,,,,,61,80
17136,note_on,0,0,0,,,,,1,,,,,,,61,80
17136,note_on,0,0,0,,,,,2,,,,,,,61,80
17136,note_on,0,0,0,,,,,3,,,,,,,49,80
17136,note_on,0,0,0,,,,,4,,,,,,,37,80
17136,note_on,0,0,0,,,,,6,,,,,,,49,96
17146,note_off,10,0,0,,,,,6,,,,,,,49,0
17148,note_on,2,0,0,,,,,6,,,,,,,48,96
17157,note_off,9,0,0,,,,,0,,,,,,,61,0
17157,note_off,0,0,0,,,,,1,,,,,,,61,0
17157,note_off,0,0,0,,,,,2,,,,,,,61,0
17158,note_off,1,0,0,,,,,6,,,,,,,48,0
17160,note_on,2,0,0,,,,,5,,,,,,,68,96
17160,note_on,0,0,0,,,,,5,,,,,,,64,96
17160,note_on,0,0,0,,,,,6,,,,,,,49,96
17170,note_off,10,0,0,,,,,6,,,,,,,49,0
17172,note_on,2,0,0,,,,,6,,,,,,,51,96
17181,note_off,9,0,0,,,,,5,,,,,,,68,0
17181,note_off,0,0,0,,,,,5,,,,,,,64,0
17182,note_off,1,0,0,,,,,6,,,,,,,51,0
17184,note_on,2,0,0,,,,,5,,,,,,,70,96
17184,note_on,0,0,0,,,,,5,,,,,,,61,96
17184,note_on,0,0,0,,,,,6,,,,,,,52,96
17194,note_off,10,0,0,,,,,6,,,,,,,52,0
17196,note_on,2,0,0,,,,,6,,,,,,,49,96
17205,note_off,9,0,0,,,,,5,,,,,,,70,0
17205,note_off,0,0,0,,,,,5,,,,,,,61,0
17206,note_off,1,0,0,,,,,6,,,,,,,49,0
17208,note_on,2,0,0,,,,,5,,,,,,,71,96
17208,note_on,0,0,0,,,,,5,,,,,,,66,96
17208,note_on,0,0,0,,,,,6,,,,,,,51,96
17218,note_off,10,0,0,,,,,6,,,,,,,51,0
17220,note_on,2,0,0,,,,,6,,,,,,,52,96
17229,note_off,9,0,0,,,,,5,,,,,,,71,0
17229,note_off,0,0,0,,,,,5,,,,,,,66,0
17230,note_off,1,0,0,,,,,6,,,,,,,52,0
17232,note_on,2,0,0,,,,,5,,,,,,,72,96
17232,note_on,0,0,0,,,,,5,,,,,,,63,96
17232,note_on,0,0,0,,,,,6,,,,,,,54,96
17242,note_off,10,0,0,,,,,6,,,,,,,54,0
17244,note_on,2,0,0,,,,,6,,,,,,,51,96
17253,note_off,9,0,0,,,,,5,,,,,,,72,0
17253,note_off,0,0,0,,,,,5,,,,,,,63,0
17254,note_off,1,0,0,,,,,6,,,,,,,51,0
17256,note_on,2,0,0,,,,,5,,,,,,,73,96
17256,note_on,0,0,0,,,,,5,,,,,,,68,96
17256,note_on,0,0,0,,,,,6,,,,,,,52,96
17266,note_off,10,0,0,,,,,6,,,,,,,52,0
17268,note_on,2,0,0,,,,,6,,,,,,,56,96
17277,note_off,9,0,0,,,,,5,,,,,,,73,0
17277,note_off,0,0,0,,,,,5,,,,,,,68,0
17278,note_off,1,0,0,,,,,6,,,,,,,56,0
17280,note_on,2,0,0,,,,,5,,,,,,,75,96
17280,note_on,0,0,0,,,,,5,,,,,,,72,96
17280,note_on,0,0,0,,,,,6,,,,,,,54,96
17290,note_off,10,0,0,,,,,6,,,,,,,54,0
17292,note_on,2,0,0,,,,,6,,,,,,,57,96
17301,note_off,9,0,0,,,,,5,,,,,,,75,0
17301,note_off,0,0,0,,,,,5,,,,,,,72,0
17302,note_off,1,0,0,,,,,6,,,,,,,57,0
17304,note_on,2,0,0,,,,,5,,,,,,,76,96
17304,note_on,0,0,0,,,,,5,,,,,,,73,96
17304,note_on,0,0,0,,,,,6,,,,,,,56,96
17314,note_off,10,0,0,,,,,6,,,,,,,56,0
17316,note_on,2,0,0,,,,,6,,,,,,,61,96
17325,note_off,9,0,0,,,,,5,,,,,,,76,0
17325,note_off,0,0,0,,,,,5,,,,,,,73,0
17326,note_off,1,0,0,,,,,6,,,,,,,61,0
17328,note_off,2,0,0,,,,,3,,,,,,,49,0
17328,note_off,0,0,0,,,,,4,,,,,,,37,0
17328,note_on,0,0,0,,,,,5,,,,,,,77,96
17328,note_on,0,0,0,,,,,5,,,,,,,73,96
17328,note_on,0,0,0,,,,,6,,,,,,,68,96
17328,note_on,0,0,0,,,,,6,,,,,,,59,96
17338,note_off,10,0,0,,,,,6,,,,,,,59,0
17340,note_on,2,0,0,,,,,6,,,,,,,61,96
17349,note_off,9,0,0,,,,,5,,,,,,,77,0
17349,note_off,0,0,0,,,,,5,,,,,,,73,0
17349,note_off,0,0,0,,,,,6,,,,,,,68,0
17350,note_off,1,0,0,,,,,6,,,,,,,61,0
17352,note_on,2,0,0,,,,,5,,,,,,,78,96
17352,note_on,0,0,0,,,,,6,,,,,,,73,96
17352,note_on,0,0,0,,,,,6,,,,,,,69,96
17352,note_on,0,0,0,,,,,6,,,,,,,57,96
17362,note_off,10,0,0,,,,,6,,,,,,,57,0
17364,note_on,2,0,0,,,,,6,,,,,,,66,96
17373,note_off,9,0,0,,,,,5,,,,,,,78,0
17373,note_off,0,0,0,,,,,6,,,,,,,73,0
17373,note_off,0,0,0,,,,,6,,,,,,,69,0
17374,note_off,1,0,0,,,,,6,,,,,,,66,0
17376,note_on,2,0,0,,,,,0,,,,,,,73,80
17376,note_on,0,0,0,,,,,1,,,,,,,73,80
17376,note_on,0,0,0,,,,,2,,,,,,,73,80
17376,note_on,0,0,0,,,,,3,,,,,,,61,80
17376,note_on,0,0,0,,,,,4,,,,,,,49,80
17376,note_on,0,0,0,,,,,5,,,,,,,81,96
17376,note_on,0,0,0,,,,,6,,,,,,,61,96
17386,note_off,10,0,0,,,,,5,,,,,,,81,0
17386,note_off,0,0,0,,,,,6,,,,,,,61,0
17388,note_off,2,0,0,,,,,0,,,,,,,73,0
17388,note_on,0,0,0,,,,,0,,,,,,,71,80
17388,note_off,0,0,0,,,,,1,,,,,,,73,0
17388,note_on,0,0,0,,,,,1,,,,,,,71,80
17388,note_off,0,0,0,,,,,2,,,,,,,73,0
17388,note_on,0,0,0,,,,,2,,,,,,,71,80
17388,note_off,0,0,0,,,,,3,,,,,,,61,0
17388,note_on,0,0,0,,,,,3,,,,,,,59,80
17388,note_off,0,0,0,,,,,4,,,,,,,49,0
17388,note_on,0,0,0,,,,,4,,,,,,,47,80
17388,note_on,0,0,0,,,,,5,,,,,,,80,96
17388,note_on,0,0,0,,,,,6,,,,,,,59,96
17398,note_off,10,0,0,,,,,5,,,,,,,80,0
17398,note_off,0,0,0,,,,,6,,,,,,,59,0
17400,note_off,2,0,0,,,,,0,,,,,,,71,0
17400,note_on,0,0,0,,,,,0,,,,,,,69,80
17400,note_off,0,0,0,,,,,1,,,,,,,71,0
17400,note_on,0,0,0,,,,,1,,,,,,,69,80
17400,note_off,0,0,0,,,,,2,,,,,,,71,0
17400,note_on,0,0,0,,,,,2,,,,,,,69,80
17400,note_off,0,0,0,,,,,3,,,,,,,59,0
17400,note_on,0,0,0,,,,,3,,,,,,,57,80
17400,note_off,0,0,0,,,,,4,,,,,,,47,0
17400,note_on,0,0,0,,,,,4,,,,,,,45,80
17400,note_on,0,0,0,,,,,5,,,,,,,81,96
17400,note_on,0,0,0,,,,,6,,,,,,,57,96
17410,note_off,10,0,0,,,,,6,,,,,,,57,0
17412,note_off,2,0,0,,,,,0,,,,,,,69,0
17412,note_on,0,0,0,,,,,0,,,,,,,68,80
17412,note_off,0,0,0,,,,,1,,,,,,,69,0
17412,note_on,0,0,0,,,,,1,,,,,,,68,80
17412,note_off,0,0,0,,,,,2,,,,,,,69,0
17412,note_on,0,0,0,,,,,2,,,,,,,68,80
17412,note_off,0,0,0,,,,,3,,,,,,,57,0
17412,note_on,0,0,0,,,,,3,,,,,,,56,80
17412,note_off,0,0,0,,,,,4,,,,,,,45,0
17412,note_on,0,0,0,,,,,4,,,,,,,44,80
17412,note_on,0,0,0,,,,,6,,,,,,,56,96
17421,note_off,9,0,0,,,,,5,,,,,,,81,0
17422,note_off,1,0,0,,,,,0,,,,,,,68,0
17422,note_off,0,0,0,,,,,1,,,,,,,68,0
17422,note_off,0,0,0,,,,,2,,,,,,,68,0
17422,note_off,0,0,0,,,,,3,,,,,,,56,0
17422,note_off,0,0,0,,,,,4,,,,,,,44,0
17422,note_off,0,0,0,,,,,6,,,,,,,56,0
17424,note_on,2,0,0,,,,,0,,,,,,,66,80
17424,note_on,0,0,0,,,,,1,,,,,,,66,80
17424,note_on,0,0,0,,,,,2,,,,,,,66,80
17424,note_on,0,0,0,,,,,3,,,,,,,54,80
17424,note_on,0,0,0,,,,,4,,,,,,,42,80
17424,note_on,0,0,0,,,,,6,,,,,,,54,96
17436,note_on,12,0,0,,,,,5,,,,,,,80,96
17445,note_off,9,0,0,,,,,0,,,,,,,66,0
17445,note_off,0,0,0,,,,,1,,,,,,,66,0
17445,note_off,0,0,0,,,,,2,,,,,,,66,0
17445,note_off,0,0,0,,,,,3,,,,,,,54,0
17445,note_off,0,0,0,,,,,4,,,,,,,42,0
17445,note_off,0,0,0,,,,,6,,,,,,,54,0
17446,note_off,1,0,0,,,,,5,,,,,,,80,0
17448,note_on,2,0,0,,,,,3,,,,,,,57,80
17448,note_on,0,0,0,,,,,4,,,,,,,45,80
17448,note_on,0,0,0,,,,,5,,,,,,,78,96
17448,note_on,0,0,0,,,,,6,,,,,,,57,96
17458,note_off,10,0,0,,,,,5,,,,,,,78,0
17460,note_on,2,0,0,,,,,5,,,,,,,76,96
17469,note_off,9,0,0,,,,,3,,,,,,,57,0
17469,note_off,0,0,0,,,,,4,,,,,,,45,0
17469,note_off,0,0,0,,,,,6,,,,,,,57,0
17470,note_off,1,0,0,,,,,5,,,,,,,76,0
17472,note_on,2,0,0,,,,,3,,,,,,,54,80
17472,note_on,0,0,0,,,,,4,,,,,,,42,80
17472,note_on,0,0,0,,,,,5,,,,,,,75,96
17472,note_on,0,0,0,,,,,6,,,,,,,54,96
17482,note_off,10,0,0,,,,,5,,,,,,,75,0
17484,note_on,2,0,0,,,,,5,,,,,,,73,96
17493,note_off,9,0,0,,,,,3,,,,,,,54,0
17493,note_off,0,0,0,,,,,4,,,,,,,42,0
17493,note_off,0,0,0,,,,,6,,,,,,,54,0
17494,note_off,1,0,0,,,,,5,,,,,,,73,0
17496,note_on,2,0,0,,,,,3,,,,,,,56,80
17496,note_on,0,0,0,,,,,4,,,,,,,44,80
17496,note_on,0,0,0,,,,,5,,,,,,,72,96
17496,note_on,0,0,0,,,,,6,,,,,,,56,96
17506,note_off,10,0,0,,,,,5,,,,,,,72,0
17508,note_on,2,0,0,,,,,5,,,,,,,80,96
17517,note_off,9,0,0,,,,,3,,,,,,,56,0
17517,note_off,0,0,0,,,,,4,,,,,,,44,0
17517,note_off,0,0,0,,,,,6,,,,,,,56,0
17518,note_off,1,0,0,,,,,5,,,,,,,80,0
17520,note_on,2,0,0,,,,,0,,,,,,,69,80
17520,note_on,0,0,0,,,,,1,,,,,,,66,80
17520,note_on,0,0,0,,,,,2,,,,,,,60,80
17520,note_on,0,0,0,,,,,5,,,,,,,75,96
17530,note_off,10,0,0,,,,,5,,,,,,,75,0
17532,note_off,2,0,0,,,,,0,,,,,,,69,0
17532,note_on,0,0,0,,,,,0,,,,,,,68,80
17532,note_off,0,0,0,,,,,1,,,,,,,66,0
17532,note_on,0,0,0,,,,,1,,,,,,,64,80
17532,note_off,0,0,0,,,,,2,,,,,,,60,0
17532,note_on,0,0,0,,,,,2,,,,,,,61,80
17532,note_on,0,0,0,,,,,5,,,,,,,76,96
17542,note_off,10,0,0,,,,,5,,,,,,,76,0
17544,note_off,2,0,0,,,,,0,,,,,,,68,0
17544,note_on,0,0,0,,,,,0,,,,,,,66,80
17544,note_off,0,0,0,,,,,1,,,,,,,64,0
17544,note_on,0,0,0,,,,,1,,,,,,,63,80
17544,note_off,0,0,0,,,,,2,,,,,,,61,0
17544,note_on,0,0,0,,,,,2,,,,,,,63,80
17544,note_on,0,0,0,,,,,5,,,,,,,72,96
17554,note_off,10,0,0,,,,,5,,,,,,,72,0
17556,note_off,2,0,0,,,,,0,,,,,,,66,0
17556,note_on,0,0,0,,,,,0,,,,,,,64,80
17556,note_off,0,0,0,,,,,1,,,,,,,63,0
17556,note_on,0,0,0,,,,,1,,,,,,,61,80
17556,note_off,0,0,0,,,,,2,,,,,,,63,0
17556,note_on,0,0,0,,,,,2,,,,,,,64,80
17556,note_on,0,0,0,,,,,5,,,,,,,73,96
17566,note_off,10,0,0,,,,,0,,,,,,,64,0
17566,note_off,0,0,0,,,,,1,,,,,,,61,0
17566,note_off,0,0,0,,,,,2,,,,,,,64,0
17566,note_off,0,0,0,,,,,5,,,,,,,73,0
17568,note_on,2,0,0,,,,,0,,,,,,,63,80
17568,note_on,0,0,0,,,,,1,,,,,,,60,80
17568,note_on,0,0,0,,,,,2,,,,,,,66,80
17568,note_on,0,0,0,,,,,5,,,,,,,68,96
17578,note_off,10,0,0,,,,,5,,,,,,,68,0
17580,note_on,2,0,0,,,,,5,,,,,,,80,96
17589,note_off,9,0,0,,,,,0,,,,,,,63,0
17589,note_off,0,0,0,,,,,1,,,,,,,60,0
17589,note_off,0,0,0,,,,,2,,,,,,,66,0
17590,note_off,1,0,0,,,,,5,,,,,,,80,0
17592,note_on,2,0,0,,,,,0,,,,,,,64,80
17592,note_on,0,0,0,,,,,1,,,,,,,61,80
17592,note_on,0,0,0,,,,,2,,,,,,,69,80
17592,note_on,0,0,0,,,,,3,,,,,,,49,80
17592,note_on,0,0,0,,,,,4,,,,,,,37,80
17592,note_on,0,0,0,,,,,5,,,,,,,78,96
17592,note_on,0,0,0,,,,,6,,,,,,,49,96
17602,note_off,10,0,0,,,,,5,,,,,,,78,0
17604,note_on,2,0,0,,,,,5,,,,,,,76,96
17613,note_off,9,0,0,,,,,0,,,,,,,64,0
17613,note_off,0,0,0,,,,,1,,,,,,,61,0
17613,note_off,0,0,0,,,,,2,,,,,,,69,0
17613,note_off,0,0,0,,,,,3,,,,,,,49,0
17613,note_off,0,0,0,,,,,4,,,,,,,37,0
17613,note_off,0,0,0,,,,,6,,,,,,,49,0
17614,note_off,1,0,0,,,,,5,,,,,,,76,0
17616,note_on,2,0,0,,,,,0,,,,,,,66,80
17616,note_on,0,0,0,,,,,1,,,,,,,61,80
17616,note_on,0,0,0,,,,,2,,,,,,,66,80
17616,note_on,0,0,0,,,,,3,,,,,,,45,80
17616,note_on,0,0,0,,,,,4,,,,,,,33,80
17616,note_on,0,0,0,,,,,5,,,,,,,75,96
17616,note_on,0,0,0,,,,,6,,,,,,,45,96
17626,note_off,10,0,0,,,,,5,,,,,,,75,0
17628,note_on,2,0,0,,,,,5,,,,,,,73,96
17637,note_off,9,0,0,,,,,0,,,,,,,66,0
17637,note_off,0,0,0,,,,,1,,,,,,,61,0
17637,note_off,0,0,0,,,,,2,,,,,,,66,0
17637,note_off,0,0,0,,,,,3,,,,,,,45,0
17637,note_off,0,0,0,,,,,4,,,,,,,33,0
17637,note_off,0,0,0,,,,,6,,,,,,,45,0
17638,note_off,1,0,0,,,,,5,,,,,,,73,0
17640,note_on,2,0,0,,,,,0,,,,,,,56,80
17640,note_on,0,0,0,,,,,1,,,,,,,62,80
17640,note_on,0,0,0,,,,,2,,,,,,,65,80
17640,note_on,0,0,0,,,,,3,,,,,,,44,80
17640,note_on,0,0,0,,,,,4,,,,,,,32,80
17640,note_on,0,0,0,,,,,5,,,,,,,71,96
17640,note_on,0,0,0,,,,,6,,,,,,,44,96
17650,note_off,10,0,0,,,,,5,,,,,,,71,0
17652,note_on,2,0,0,,,,,5,,,,,,,80,96
17661,note_off,9,0,0,,,,,0,,,,,,,56,0
17661,note_off,0,0,0,,,,,1,,,,,,,62,0
17661,note_off,0,0,0,,,,,2,,,,,,,65,0
17661,note_off,0,0,0,,,,,3,,,,,,,44,0
17661,note_off,0,0,0,,,,,4,,,,,,,32,0
17661,note_off,0,0,0,,,,,6,,,,,,,44,0
17662,note_off,1,0,0,,,,,5,,,,,,,80,0
17664,note_on,2,0,0,,,,,5,,,,,,,77,96
17664,note_on,0,0,0,,,,,6,,,,,,,47,96
17674,note_off,10,0,0,,,,,5,,,,,,,77,0
17676,note_on,2,0,0,,,,,5,,,,,,,78,96
17685,note_off,9,0,0,,,,,6,,,,,,,47,0
17686,note_off,1,0,0,,,,,5,,,,,,,78,0
17688,note_on,2,0,0,,,,,5,,,,,,,74,96
17688,note_on,0,0,0,,,,,6,,,,,,,53,96
17698,note_off,10,0,0,,,,,5,,,,,,,74,0
17700,note_on,2,0,0,,,,,5,,,,,,,73,96
17709,note_off,9,0,0,,,,,6,,,,,,,53,0
17710,note_off,1,0,0,,,,,5,,,,,,,73,0
17712,note_on,2,0,0,,,,,5,,,,,,,81,96
17712,note_on,0,0,0,,,,,6,,,,,,,54,96
17724,note_off,12,0,0,,,,,5,,,,,,,81,0
17724,note_on,0,0,0,,,,,5,,,,,,,78,96
17733,note_off,9,0,0,,,,,6,,,,,,,54,0
17736,note_off,3,0,0,,,,,5,,,,,,,78,0
17736,note_on,0,0,0,,,,,5,,,,,,,75,96
17736,note_on,0,0,0,,,,,6,,,,,,,57,96
17748,note_off,12,0,0,,,,,5,,,,,,,75,0
17748,note_on,0,0,0,,,,,5,,,,,,,76,96
17757,note_off,9,0,0,,,,,6,,,,,,,57,0
17760,note_off,3,0,0,,,,,5,,,,,,,76,0
17760,note_on,0,0,0,,,,,5,,,,,,,73,96
17760,note_on,0,0,0,,,,,6,,,,,,,63,96
17772,note_off,12,0,0,,,,,5,,,,,,,73,0
17772,note_on,0,0,0,,,,,5,,,,,,,71,96
17781,note_off,9,0,0,,,,,6,,,,,,,63,0
17782,note_off,1,0,0,,,,,5,,,,,,,71,0
17784,note_on,2,0,0,,,,,5,,,,,,,80,96
17784,note_on,0,0,0,,,,,6,,,,,,,52,96
17796,note_off,12,0,0,,,,,5,,,,,,,80,0
17796,note_on,0,0,0,,,,,5,,,,,,,76,96
17805,note_off,9,0,0,,,,,6,,,,,,,52,0
17808,note_off,3,0,0,,,,,5,,,,,,,76,0
17808,note_on,0,0,0,,,,,5,,,,,,,73,96
17808,note_on,0,0,0,,,,,6,,,,,,,56,96
17820,note_off,12,0,0,,,,,5,,,,,,,73,0
17820,note_on,0,0,0,,,,,5,,,,,,,75,96
17829,note_off,9,0,0,,,,,6,,,,,,,56,0
17832,note_off,3,0,0,,,,,5,,,,,,,75,0
17832,note_on,0,0,0,,,,,5,,,,,,,71,96
17832,note_on,0,0,0,,,,,6,,,,,,,61,96
17844,note_off,12,0,0,,,,,5,,,,,,,71,0
17844,note_on,0,0,0,,,,,5,,,,,,,70,96
17853,note_off,9,0,0,,,,,6,,,,,,,61,0
17854,note_off,1,0,0,,,,,5,,,,,,,70,0
17856,note_on,2,0,0,,,,,5,,,,,,,79,96
17856,note_on,0,0,0,,,,,6,,,,,,,51,96
17868,note_off,12,0,0,,,,,5,,,,,,,79,0
17868,note_on,0,0,0,,,,,5,,,,,,,76,96
17877,note_off,9,0,0,,,,,6,,,,,,,51,0
17880,note_off,3,0,0,,,,,5,,,,,,,76,0
17880,note_on,0,0,0,,,,,5,,,,,,,75,96
17880,note_on,0,0,0,,,,,6,,,,,,,53,96
17892,note_off,12,0,0,,,,,5,,,,,,,75,0
17892,note_on,0,0,0,,,,,5,,,,,,,73,96
17901,note_off,9,0,0,,,,,6,,,,,,,53,0
17904,note_off,3,0,0,,,,,5,,,,,,,73,0
17904,note_on,0,0,0,,,,,5,,,,,,,71,96
17904,note_on,0,0,0,,,,,6,,,,,,,55,96
17916,note_off,12,0,0,,,,,5,,,,,,,71,0
17916,note_on,0,0,0,,,,,5,,,,,,,70,96
17926,note_off,10,0,0,,,,,5,,,,,,,70,0
17928,note_on,2,0,0,,,,,5,,,,,,,76,96
17940,note_off,12,0,0,,,,,5,,,,,,,76,0
17940,note_on,0,0,0,,,,,5,,,,,,,73,96
17946,note_off,6,0,0,,,,,6,,,,,,,55,0
17952,note_off,6,0,0,,,,,5,,,,,,,73,0
17952,note_on,0,0,0,,,,,5,,,,,,,71,96
17952,note_on,0,0,0,,,,,6,,,,,,,56,96
17964,note_off,12,0,0,,,,,5,,,,,,,71,0
17964,note_on,0,0,0,,,,,5,,,,,,,70,96
17973,note_off,9,0,0,,,,,6,,,,,,,56,0
17976,note_off,3,0,0,,,,,5,,,,,,,70,0
17976,note_on,0,0,0,,,,,5,,,,,,,68,96
17976,note_on,0,0,0,,,,,6,,,,,,,58,96
17988,note_off,12,0,0,,,,,5,,,,,,,68,0
17988,note_on,0,0,0,,,,,5,,,,,,,67,96
17998,note_off,10,0,0,,,,,5,,,,,,,67,0
18000,note_on,2,0,0,,,,,5,,,,,,,73,96
18012,note_off,12,0,0,,,,,5,,,,,,,73,0
18012,note_on,0,0,0,,,,,5,,,,,,,70,96
18018,note_off,6,0,0,,,,,6,,,,,,,58,0
18024,note_off,6,0,0,,,,,5,,,,,,,70,0
18024,note_on,0,0,0,,,,,5,,,,,,,68,96
18024,note_on,0,0,0,,,,,6,,,,,,,59,96
18036,note_off,12,0,0,,,,,5,,,,,,,68,0
18036,note_on,0,0,0,,,,,5,,,,,,,67,96
18045,note_off,9,0,0,,,,,6,,,,,,,59,0
18048,note_off,3,0,0,,,,,5,,,,,,,67,0
18048,note_on,0,0,0,,,,,5,,,,,,,65,96
18048,note_on,0,0,0,,,,,6,,,,,,,61,96
18060,note_off,12,0,0,,,,,5,,,,,,,65,0
18060,note_on,0,0,0,,,,,5,,,,,,,63,96
18070,note_off,10,0,0,,,,,5,,,,,,,63,0
18072,note_on,2,0,0,,,,,5,,,,,,,70,96
18076,note_off,4,0,0,,,,,6,,,,,,,61,0
18079,note_off,3,0,0,,,,,5,,,,,,,70,0
18080,note_on,1,0,0,,,,,5,,,,,,,68,96
18080,note_on,0,0,0,,,,,6,,,,,,,63,96
18087,note_off,7,0,0,,,,,5,,,,,,,68,0
18087,note_off,0,0,0,,,,,6,,,,,,,63,0
18088,note_on,1,0,0,,,,,5,,,,,,,67,96
18088,note_on,0,0,0,,,,,6,,,,,,,64,96
18095,note_off,7,0,0,,,,,5,,,,,,,67,0
18095,note_off,0,0,0,,,,,6,,,,,,,64,0
18096,note_on,1,0,0,,,,,5,,,,,,,73,96
18096,note_on,0,0,0,,,,,6,,,,,,,58,96
18103,note_off,7,0,0,,,,,5,,,,,,,73,0
18103,note_off,0,0,0,,,,,6,,,,,,,58,0
18104,note_on,1,0,0,,,,,5,,,,,,,71,96
18104,note_on,0,0,0,,,,,6,,,,,,,59,96
18111,note_off,7,0,0,,,,,5,,,,,,,71,0
18111,note_off,0,0,0,,,,,6,,,,,,,59,0
18112,note_on,1,0,0,,,,,5,,,,,,,70,96
18112,note_on,0,0,0,,,,,6,,,,,,,61,96
18119,note_off,7,0,0,,,,,5,,,,,,,70,0
18119,note_off,0,0,0,,,,,6,,,,,,,61,0
18120,note_on,1,0,0,,,,,5,,,,,,,76,96
18120,note_on,0,0,0,,,,,6,,,,,,,55,96
18127,note_off,7,0,0,,,,,6,,,,,,,55,0
18128,note_on,1,0,0,,,,,6,,,,,,,56,96
18135,note_off,7,0,0,,,,,6,,,,,,,56,0
18136,note_on,1,0,0,,,,,6,,,,,,,58,96
18143,note_off,7,0,0,,,,,6,,,,,,,58,0
18144,note_on,1,0,0,,,,,6,,,,,,,51,96
18151,note_off,7,0,0,,,,,5,,,,,,,76,0
18156,note_on,5,0,0,,,,,5,,,,,,,75,96
18165,note_off,9,0,0,,,,,6,,,,,,,51,0
18166,note_off,1,0,0,,,,,5,,,,,,,75,0
18168,note_on,2,0,0,,,,,5,,,,,,,73,96
18168,note_on,0,0,0,,,,,6,,,,,,,63,96
18178,note_off,10,0,0,,,,,5,,,,,,,73,0
18180,note_on,2,0,0,,,,,5,,,,,,,71,96
18189,note_off,9,0,0,,,,,6,,,,,,,63,0
18190,note_off,1,0,0,,,,,5,,,,,,,71,0
18192,note_on,2,0,0,,,,,5,,,,,,,70,96
18202,note_off,10,0,0,,,,,5,,,,,,,70,0
18204,note_on,2,0,0,,,,,5,,,,,,,68,96
18214,note_off,10,0,0,,,,,5,,,,,,,68,0
18216,note_on,2,0,0,,,,,5,,,,,,,80,96
18216,note_on,0,0,0,,,,,6,,,,,,,59,96
18223,note_off,7,0,0,,,,,5,,,,,,,80,0
18223,note_off,0,0,0,,,,,6,,,,,,,59,0
18224,note_on,1,0,0,,,,,5,,,,,,,77,96
18224,note_on,0,0,0,,,,,6,,,,,,,56,96
18231,note_off,7,0,0,,,,,5,,,,,,,77,0
18231,note_off,0,0,0,,,,,6,,,,,,,56,0
18232,note_on,1,0,0,,,,,5,,,,,,,78,96
18232,note_on,0,0,0,,,,,6,,,,,,,54,96
18239,note_off,7,0,0,,,,,5,,,,,,,78,0
18239,note_off,0,0,0,,,,,6,,,,,,,54,0
18240,note_on,1,0,0,,,,,5,,,,,,,80,96
18240,note_on,0,0,0,,,,,6,,,,,,,53,96
18247,note_off,7,0,0,,,,,5,,,,,,,80,0
18247,note_off,0,0,0,,,,,6,,,,,,,53,0
18248,note_on,1,0,0,,,,,5,,,,,,,77,96
18248,note_on,0,0,0,,,,,6,,,,,,,56,96
18255,note_off,7,0,0,,,,,5,,,,,,,77,0
18255,note_off,0,0,0,,,,,6,,,,,,,56,0
18256,note_on,1,0,0,,,,,5,,,,,,,74,96
18256,note_on,0,0,0,,,,,6,,,,,,,59,96
18263,note_off,7,0,0,,,,,5,,,,,,,74,0
18263,note_off,0,0,0,,,,,6,,,,,,,59,0
18264,note_on,1,0,0,,,,,5,,,,,,,83,96
18264,note_on,0,0,0,,,,,6,,,,,,,56,96
18271,note_off,7,0,0,,,,,6,,,,,,,56,0
18272,note_on,1,0,0,,,,,6,,,,,,,53,96
18279,note_off,7,0,0,,,,,6,,,,,,,53,0
18280,note_on,1,0,0,,,,,6,,,,,,,56,96
18287,note_off,7,0,0,,,,,6,,,,,,,56,0
18288,note_on,1,0,0,,,,,6,,,,,,,50,96
18295,note_off,7,0,0,,,,,5,,,,,,,83,0
18300,note_on,5,0,0,,,,,5,,,,,,,82,96
18309,note_off,9,0,0,,,,,6,,,,,,,50,0
18310,note_off,1,0,0,,,,,5,,,,,,,82,0
18312,note_on,2,0,0,,,,,5,,,,,,,80,96
18312,note_on,0,0,0,,,,,6,,,,,,,59,96
18322,note_off,10,0,0,,,,,5,,,,,,,80,0
18324,note_on,2,0,0,,,,,5,,,,,,,79,96
18333,note_off,9,0,0,,,,,6,,,,,,,59,0
18334,note_off,1,0,0,,,,,5,,,,,,,79,0
18336,note_on,2,0,0,,,,,5,,,,,,,80,96
18346,note_off,10,0,0,,,,,5,,,,,,,80,0
18348,note_on,2,0,0,,,,,5,,,,,,,82,96
18358,note_off,10,0,0,,,,,5,,,,,,,82,0
18360,note_on,2,0,0,,,,,5,,,,,,,73,96
18360,note_on,0,0,0,,,,,6,,,,,,,64,96
18367,note_off,7,0,0,,,,,6,,,,,,,64,0
18368,note_on,1,0,0,,,,,6,,,,,,,61,96
18375,note_off,7,0,0,,,,,6,,,,,,,61,0
18376,note_on,1,0,0,,,,,6,,,,,,,58,96
18381,note_off,5,0,0,,,,,5,,,,,,,73,0
18383,note_off,2,0,0,,,,,6,,,,,,,58,0
18384,note_on,1,0,0,,,,,6,,,,,,,55,96
18391,note_off,7,0,0,,,,,6,,,,,,,55,0
18392,note_on,1,0,0,,,,,6,,,,,,,58,96
18396,note_on,4,0,0,,,,,5,,,,,,,75,96
18399,note_off,3,0,0,,,,,6,,,,,,,58,0
18400,note_on,1,0,0,,,,,6,,,,,,,51,96
18406,note_off,6,0,0,,,,,5,,,,,,,75,0
18407,note_off,1,0,0,,,,,6,,,,,,,51,0
18408,note_on,1,0,0,,,,,5,,,,,,,71,96
18408,note_on,0,0,0,,,,,6,,,,,,,56,96
18415,note_off,7,0,0,,,,,6,,,,,,,56,0
18416,note_on,1,0,0,,,,,6,,,,,,,59,96
18423,note_off,7,0,0,,,,,6,,,,,,,59,0
18424,note_on,1,0,0,,,,,6,,,,,,,51,96
18429,note_off,5,0,0,,,,,5,,,,,,,71,0
18431,note_off,2,0,0,,,,,6,,,,,,,51,0
18432,note_on,1,0,0,,,,,6,,,,,,,52,96
18439,note_off,7,0,0,,,,,6,,,,,,,52,0
18440,note_on,1,0,0,,,,,6,,,,,,,51,96
18444,note_on,4,0,0,,,,,5,,,,,,,82,96
18447,note_off,3,0,0,,,,,6,,,,,,,51,0
18448,note_on,1,0,0,,,,,6,,,,,,,49,96
18454,note_off,6,0,0,,,,,5,,,,,,,82,0
18455,note_off,1,0,0,,,,,6,,,,,,,49,0
18456,note_on,1,0,0,,,,,5,,,,,,,79,96
18456,note_on,0,0,0,,,,,6,,,,,,,51,96
18477,note_off,21,0,0,,,,,6,,,,,,,51,0
18480,note_on,3,0,0,,,,,6,,,,,,,39,96
18487,note_off,7,0,0,,,,,5,,,,,,,79,0
18492,note_on,5,0,0,,,,,5,,,,,,,80,96
18501,note_off,9,0,0,,,,,6,,,,,,,39,0
18502,note_off,1,0,0,,,,,5,,,,,,,80,0
18504,note_on,2,0,0,,,,,5,,,,,,,80,96
18504,note_on,0,0,0,,,,,6,,,,,,,44,96
18567,note_off,63,0,0,,,,,5,,,,,,,80,0
18567,note_off,0,0,0,,,,,6,,,,,,,44,0
18576,note_on,9,0,0,,,,,5,,,,,,,76,96
18583,note_off,7,0,0,,,,,5,,,,,,,76,0
18584,note_on,1,0,0,,,,,5,,,,,,,71,96
18591,note_off,7,0,0,,,,,5,,,,,,,71,0
18592,note_on,1,0,0,,,,,5,,,,,,,68,96
18599,note_off,7,0,0,,,,,5,,,,,,,68,0
18600,note_on,1,0,0,,,,,0,,,,,,,64,96
18600,note_on,0,0,0,,,,,1,,,,,,,59,96
18600,note_on,0,0,0,,,,,2,,,,,,,56,96
18600,note_on,0,0,0,,,,,3,,,,,,,52,96
18600,note_on,0,0,0,,,,,4,,,,,,,40,96
18600,note_on,0,0,0,,,,,6,,,,,,,64,96
18607,note_off,7,0,0,,,,,6,,,,,,,64,0
18608,note_on,1,0,0,,,,,6,,,,,,,59,96
18615,note_off,7,0,0,,,,,6,,,,,,,59,0
18616,note_on,1,0,0,,,,,6,,,,,,,56,96
18621,note_off,5,0,0,,,,,0,,,,,,,64,0
18621,note_off,0,0,0,,,,,1,,,,,,,59,0
18621,note_off,0,0,0,,,,,2,,,,,,,56,0
18621,note_off,0,0,0,,,,,3,,,,,,,52,0
18621,note_off,0,0,0,,,,,4,,,,,,,40,0
18623,note_off,2,0,0,,,,,6,,,,,,,56,0
18624,note_on,1,0,0,,,,,0,,,,,,,68,96
18624,note_on,0,0,0,,,,,1,,,,,,,64,96
18624,note_on,0,0,0,,,,,2,,,,,,,59,96
18624,note_on,0,0,0,,,,,3,,,,,,,52,96
18624,note_on,0,0,0,,,,,4,,,,,,,40,96
18624,note_on,0,0,0,,,,,6,,,,,,,52,96
18631,note_off,7,0,0,,,,,6,,,,,,,52,0
18632,note_on,1,0,0,,,,,6,,,,,,,47,96
18639,note_off,7,0,0,,,,,6,,,,,,,47,0
18640,note_on,1,0,0,,,,,6,,,,,,,44,96
18645,note_off,5,0,0,,,,,0,,,,,,,68,0
18645,note_off,0,0,0,,,,,1,,,,,,,64,0
18645,note_off,0,0,0,,,,,2,,,,,,,59,0
18645,note_off,0,0,0,,,,,3,,,,,,,52,0
18645,note_off,0,0,0,,,,,4,,,,,,,40,0
18647,note_off,2,0,0,,,,,6,,,,,,,44,0
18648,note_on,1,0,0,,,,,0,,,,,,,71,96
18648,note_on,0,0,0,,,,,1,,,,,,,68,96
18648,note_on,0,0,0,,,,,2,,,,,,,64,96
18648,note_on,0,0,0,,,,,3,,,,,,,52,96
18648,note_on,0,0,0,,,,,4,,,,,,,40,96
18648,note_on,0,0,0,,,,,6,,,,,,,40,96
18655,note_off,7,0,0,,,,,6,,,,,,,40,0
18656,note_on,1,0,0,,,,,6,,,,,,,44,96
18663,note_off,7,0,0,,,,,6,,,,,,,44,0
18664,note_on,1,0,0,,,,,6,,,,,,,47,96
18669,note_off,5,0,0,,,,,0,,,,,,,71,0
18669,note_off,0,0,0,,,,,1,,,,,,,68,0
18669,note_off,0,0,0,,,,,2,,,,,,,64,0
18669,note_off,0,0,0,,,,,3,,,,,,,52,0
18669,note_off,0,0,0,,,,,4,,,,,,,40,0
18671,note_off,2,0,0,,,,,6,,,,,,,47,0
18672,note_on,1,0,0,,,,,0,,,,,,,64,96
18672,note_on,0,0,0,,,,,1,,,,,,,71,96
18672,note_on,0,0,0,,,,,2,,,,,,,68,96
18672,note_on,0,0,0,,,,,3,,,,,,,52,96
18672,note_on,0,0,0,,,,,4,,,,,,,40,96
18672,note_on,0,0,0,,,,,6,,,,,,,52,96
18679,note_off,7,0,0,,,,,6,,,,,,,52,0
18680,note_on,1,0,0,,,,,6,,,,,,,56,96
18682,note_off,2,0,0,,,,,0,,,,,,,64,0
18684,note_on,2,0,0,,,,,0,,,,,,,66,96
18687,note_off,3,0,0,,,,,6,,,,,,,56,0
18688,note_on,1,0,0,,,,,6,,,,,,,59,96
18693,note_off,5,0,0,,,,,1,,,,,,,71,0
18693,note_off,0,0,0,,,,,2,,,,,,,68,0
18693,note_off,0,0,0,,,,,3,,,,,,,52,0
18693,note_off,0,0,0,,,,,4,,,,,,,40,0
18694,note_off,1,0,0,,,,,0,,,,,,,66,0
18695,note_off,1,0,0,,,,,6,,,,,,,59,0
18696,note_on,1,0,0,,,,,0,,,,,,,68,96
18696,note_on,0,0,0,,,,,1,,,,,,,64,96
18696,note_on,0,0,0,,,,,2,,,,,,,71,96
18696,note_on,0,0,0,,,,,3,,,,,,,52,96
18696,note_on,0,0,0,,,,,4,,,,,,,40,96
18696,note_on,0,0,0,,,,,5,,,,,,,64,96
18703,note_off,7,0,0,,,,,5,,,,,,,64,0
18704,note_on,1,0,0,,,,,5,,,,,,,68,96
18706,note_off,2,0,0,,,,,0,,,,,,,68,0
18706,note_off,0,0,0,,,,,1,,,,,,,64,0
18708,note_on,2,0,0,,,,,0,,,,,,,69,96
18708,note_on,0,0,0,,,,,1,,,,,,,66,96
18711,note_off,3,0,0,,,,,5,,,,,,,68,0
18712,note_on,1,0,0,,,,,5,,,,,,,71,96
18717,note_off,5,0,0,,,,,2,,,,,,,71,0
18717,note_off,0,0,0,,,,,3,,,,,,,52,0
18717,note_off,0,0,0,,,,,4,,,,,,,40,0
18718,note_off,1,0,0,,,,,0,,,,,,,69,0
18718,note_off,0,0,0,,,,,1,,,,,,,66,0
18719,note_off,1,0,0,,,,,5,,,,,,,71,0
18720,note_on,1,0,0,,,,,0,,,,,,,71,96
18720,note_on,0,0,0,,,,,1,,,,,,,68,96
18720,note_on,0,0,0,,,,,2,,,,,,,64,96
18720,note_on,0,0,0,,,,,3,,,,,,,52,96
18720,note_on,0,0,0,,,,,4,,,,,,,40,96
18720,note_on,0,0,0,,,,,5,,,,,,,76,96
18727,note_off,7,0,0,,,,,5,,,,,,,76,0
18728,note_on,1,0,0,,,,,5,,,,,,,71,96
18730,note_off,2,0,0,,,,,1,,,,,,,68,0
18730,note_off,0,0,0,,,,,2,,,,,,,64,0
18732,note_on,2,0,0,,,,,1,,,,,,,69,96
18732,note_on,0,0,0,,,,,2,,,,,,,66,96
18735,note_off,3,0,0,,,,,5,,,,,,,71,0
18736,note_on,1,0,0,,,,,5,,,,,,,75,96
18741,note_off,5,0,0,,,,,0,,,,,,,71,0
18741,note_off,0,0,0,,,,,3,,,,,,,52,0
18741,note_off,0,0,0,,,,,4,,,,,,,40,0
18742,note_off,1,0,0,,,,,1,,,,,,,69,0
18742,note_off,0,0,0,,,,,2,,,,,,,66,0
18743,note_off,1,0,0,,,,,5,,,,,,,75,0
18744,note_on,1,0,0,,,,,0,,,,,,,76,96
18744,note_on,0,0,0,,,,,1,,,,,,,71,96
18744,note_on,0,0,0,,,,,2,,,,,,,68,96
18744,note_on,0,0,0,,,,,3,,,,,,,52,96
18744,note_on,0,0,0,,,,,4,,,,,,,40,96
18744,note_on,0,0,0,,,,,5,,,,,,,76,96
18744,note_on,0,0,0,,,,,6,,,,,,,59,96
18744,note_on,0,0,0,,,,,6,,,,,,,56,96
18744,note_on,0,0,0,,,,,6,,,,,,,52,96
18751,note_off,7,0,0,,,,,5,,,,,,,76,0
18752,note_on,1,0,0,,,,,5,,,,,,,71,96
18754,note_off,2,0,0,,,,,2,,,,,,,68,0
18756,note_on,2,0,0,,,,,2,,,,,,,69,96
18759,note_off,3,0,0,,,,,5,,,,,,,71,0
18760,note_on,1,0,0,,,,,5,,,,,,,76,96
18765,note_off,5,0,0,,,,,0,,,,,,,76,0
18765,note_off,0,0,0,,,,,1,,,,,,,71,0
18765,note_off,0,0,0,,,,,3,,,,,,,52,0
18765,note_off,0,0,0,,,,,4,,,,,,,40,0
18765,note_off,0,0,0,,,,,6,,,,,,,59,0
18765,note_off,0,0,0,,,,,6,,,,,,,56,0
18765,note_off,0,0,0,,,,,6,,,,,,,52,0
18766,note_off,1,0,0,,,,,2,,,,,,,69,0
18767,note_off,1,0,0,,,,,5,,,,,,,76,0
18768,note_on,1,0,0,,,,,0,,,,,,,80,96
18768,note_on,0,0,0,,,,,1,,,,,,,76,96
18768,note_on,0,0,0,,,,,2,,,,,,,71,96
18768,note_on,0,0,0,,,,,3,,,,,,,52,96
18768,note_on,0,0,0,,,,,4,,,,,,,40,96
18768,note_on,0,0,0,,,,,5,,,,,,,80,96
18768,note_on,0,0,0,,,,,6,,,,,,,59,96
18768,note_on,0,0,0,,,,,6,,,,,,,56,96
18768,note_on,0,0,0,,,,,6,,,,,,,52,96
18775,note_off,7,0,0,,,,,5,,,,,,,80,0
18776,note_on,1,0,0,,,,,5,,,,,,,76,96
18783,note_off,7,0,0,,,,,5,,,,,,,76,0
18784,note_on,1,0,0,,,,,5,,,,,,,80,96
18789,note_off,5,0,0,,,,,0,,,,,,,80,0
18789,note_off,0,0,0,,,,,1,,,,,,,76,0
18789,note_off,0,0,0,,,,,2,,,,,,,71,0
18789,note_off,0,0,0,,,,,3,,,,,,,52,0
18789,note_off,0,0,0,,,,,4,,,,,,,40,0
18789,note_off,0,0,0,,,,,6,,,,,,,59,0
18789,note_off,0,0,0,,,,,6,,,,,,,56,0
18789,note_off,0,0,0,,,,,6,,,,,,,52,0
18791,note_off,2,0,0,,,,,5,,,,,,,80,0
18792,note_on,1,0,0,,,,,0,,,,,,,83,96
18792,note_on,0,0,0,,,,,1,,,,,,,80,96
18792,note_on,0,0,0,,,,,2,,,,,,,76,96
18792,note_on,0,0,0,,,,,3,,,,,,,52,96
18792,note_on,0,0,0,,,,,4,,,,,,,40,96
18792,note_on,0,0,0,,,,,5,,,,,,,83,96
18792,note_on,0,0,0,,,,,6,,,,,,,59,96
18792,note_on,0,0,0,,,,,6,,,,,,,56,96
18792,note_on,0,0,0,,,,,6,,,,,,,52,96
18813,note_off,21,0,0,,,,,0,,,,,,,83,0
18813,note_off,0,0,0,,,,,1,,,,,,,80,0
18813,note_off,0,0,0,,,,,2,,,,,,,76,0
18813,note_off,0,0,0,,,,,3,,,,,,,52,0
18813,note_off,0,0,0,,,,,4,,,,,,,40,0
18813,note_off,0,0,0,,,,,5,,,,,,,83,0
18813,note_off,0,0,0,,,,,6,,,,,,,59,0
18813,note_off,0,0,0,,,,,6,,,,,,,56,0
18813,note_off,0,0,0,,,,,6,,,,,,,52,0
18816,note_on,3,0,0,,,,,0,,,,,,,81,96
18816,note_on,0,0,0,,,,,1,,,,,,,76,96
18816,note_on,0,0,0,,,,,2,,,,,,,64,96
18816,note_on,0,0,0,,,,,3,,,,,,,49,96
18816,note_on,0,0,0,,,,,4,,,,,,,37,96
18816,note_on,0,0,0,,,,,5,,,,,,,81,96
18816,note_on,0,0,0,,,,,6,,,,,,,49,96
18826,note_off,10,0,0,,,,,0,,,,,,,81,0
18826,note_off,0,0,0,,,,,5,,,,,,,81,0
18828,note_on,2,0,0,,,,,0,,,,,,,80,96
18828,note_on,0,0,0,,,,,5,,,,,,,80,96
18837,note_off,9,0,0,,,,,1,,,,,,,76,0
18837,note_off,0,0,0,,,,,2,,,,,,,64,0
18837,note_off,0,0,0,,,,,3,,,,,,,49,0
18837,note_off,0,0,0,,,,,4,,,,,,,37,0
18837,note_off,0,0,0,,,,,6,,,,,,,49,0
18838,note_off,1,0,0,,,,,0,,,,,,,80,0
18838,note_off,0,0,0,,,,,5,,,,,,,80,0
18840,note_on,2,0,0,,,,,0,,,,,,,78,96
18840,note_on,0,0,0,,,,,1,,,,,,,73,96
18840,note_on,0,0,0,,,,,2,,,,,,,69,96
18840,note_on,0,0,0,,,,,3,,,,,,,45,96
18840,note_on,0,0,0,,,,,4,,,,,,,33,96
18840,note_on,0,0,0,,,,,5,,,,,,,78,96
18840,note_on,0,0,0,,,,,6,,,,,,,45,96
18850,note_off,10,0,0,,,,,0,,,,,,,78,0
18850,note_off,0,0,0,,,,,5,,,,,,,78,0
18852,note_on,2,0,0,,,,,0,,,,,,,76,96
18852,note_on,0,0,0,,,,,5,,,,,,,76,96
18861,note_off,9,0,0,,,,,1,,,,,,,73,0
18861,note_off,0,0,0,,,,,2,,,,,,,69,0
18861,note_off,0,0,0,,,,,3,,,,,,,45,0
18861,note_off,0,0,0,,,,,4,,,,,,,33,0
18861,note_off,0,0,0,,,,,6,,,,,,,45,0
18862,note_off,1,0,0,,,,,0,,,,,,,76,0
18862,note_off,0,0,0,,,,,5,,,,,,,76,0
18864,note_on,2,0,0,,,,,0,,,,,,,75,96
18864,note_on,0,0,0,,,,,1,,,,,,,71,96
18864,note_on,0,0,0,,,,,2,,,,,,,66,96
18864,note_on,0,0,0,,,,,3,,,,,,,47,96
18864,note_on,0,0,0,,,,,4,,,,,,,35,96
18864,note_on,0,0,0,,,,,5,,,,,,,75,96
18864,note_on,0,0,0,,,,,6,,,,,,,47,96
18874,note_off,10,0,0,,,,,0,,,,,,,75,0
18874,note_off,0,0,0,,,,,5,,,,,,,75,0
18876,note_on,2,0,0,,,,,0,,,,,,,71,96
18876,note_on,0,0,0,,,,,5,,,,,,,71,96
18885,note_off,9,0,0,,,,,1,,,,,,,71,0
18885,note_off,0,0,0,,,,,2,,,,,,,66,0
18885,note_off,0,0,0,,,,,3,,,,,,,47,0
18885,note_off,0,0,0,,,,,4,,,,,,,35,0
18885,note_off,0,0,0,,,,,6,,,,,,,47,0
18886,note_off,1,0,0,,,,,0,,,,,,,71,0
18886,note_off,0,0,0,,,,,5,,,,,,,71,0
18888,note_on,2,0,0,,,,,0,,,,,,,78,96
18888,note_on,0,0,0,,,,,1,,,,,,,75,96
18888,note_on,0,0,0,,,,,2,,,,,,,59,96
18888,note_on,0,0,0,,,,,3,,,,,,,59,96
18888,note_on,0,0,0,,,,,4,,,,,,,47,96
18888,note_on,0,0,0,,,,,5,,,,,,,78,96
18888,note_on,0,0,0,,,,,6,,,,,,,59,96
18898,note_off,10,0,0,,,,,1,,,,,,,75,0
18900,note_on,2,0,0,,,,,1,,,,,,,76,96
18909,note_off,9,0,0,,,,,0,,,,,,,78,0
18909,note_off,0,0,0,,,,,2,,,,,,,59,0
18909,note_off,0,0,0,,,,,3,,,,,,,59,0
18909,note_off,0,0,0,,,,,4,,,,,,,47,0
18909,note_off,0,0,0,,,,,5,,,,,,,78,0
18909,note_off,0,0,0,,,,,6,,,,,,,59,0
18910,note_off,1,0,0,,,,,1,,,,,,,76,0
18912,note_on,2,0,0,,,,,0,,,,,,,78,96
18912,note_on,0,0,0,,,,,1,,,,,,,78,96
18912,note_on,0,0,0,,,,,2,,,,,,,63,96
18912,note_on,0,0,0,,,,,3,,,,,,,57,96
18912,note_on,0,0,0,,,,,4,,,,,,,45,96
18912,note_on,0,0,0,,,,,5,,,,,,,78,96
18912,note_on,0,0,0,,,,,6,,,,,,,57,96
18922,note_off,10,0,0,,,,,1,,,,,,,78,0
18924,note_on,2,0,0,,,,,1,,,,,,,75,96
18933,note_off,9,0,0,,,,,0,,,,,,,78,0
18933,note_off,0,0,0,,,,,2,,,,,,,63,0
18933,note_off,0,0,0,,,,,3,,,,,,,57,0
18933,note_off,0,0,0,,,,,4,,,,,,,45,0
18933,note_off,0,0,0,,,,,5,,,,,,,78,0
18933,note_off,0,0,0,,,,,6,,,,,,,57,0
18934,note_off,1,0,0,,,,,1,,,,,,,75,0
18936,note_on,2,0,0,,,,,0,,,,,,,78,96
18936,note_on,0,0,0,,,,,1,,,,,,,71,96
18936,note_on,0,0,0,,,,,2,,,,,,,63,96
18936,note_on,0,0,0,,,,,3,,,,,,,56,96
18936,note_on,0,0,0,,,,,4,,,,,,,44,96
18936,note_on,0,0,0,,,,,5,,,,,,,78,96
18936,note_on,0,0,0,,,,,6,,,,,,,56,96
18957,note_off,21,0,0,,,,,0,,,,,,,78,0
18957,note_off,0,0,0,,,,,1,,,,,,,71,0
18957,note_off,0,0,0,,,,,2,,,,,,,63,0
18957,note_off,0,0,0,,,,,3,,,,,,,56,0
18957,note_off,0,0,0,,,,,4,,,,,,,44,0
18957,note_off,0,0,0,,,,,5,,,,,,,78,0
18957,note_off,0,0,0,,,,,6,,,,,,,56,0
18960,note_on,3,0,0,,,,,0,,,,,,,80,96
18960,note_on,0,0,0,,,,,1,,,,,,,75,96
18960,note_on,0,0,0,,,,,2,,,,,,,68,96
18960,note_on,0,0,0,,,,,3,,,,,,,59,96
18960,note_on,0,0,0,,,,,4,,,,,,,47,96
18960,note_on,0,0,0,,,,,5,,,,,,,80,96
18960,note_on,0,0,0,,,,,6,,,,,,,59,96
18970,note_off,10,0,0,,,,,0,,,,,,,80,0
18970,note_off,0,0,0,,,,,5,,,,,,,80,0
18972,note_on,2,0,0,,,,,0,,,,,,,81,96
18972,note_on,0,0,0,,,,,5,,,,,,,81,96
18981,note_off,9,0,0,,,,,1,,,,,,,75,0
18981,note_off,0,0,0,,,,,2,,,,,,,68,0
18981,note_off,0,0,0,,,,,3,,,,,,,59,0
18981,note_off,0,0,0,,,,,4,,,,,,,47,0
18981,note_off,0,0,0,,,,,6,,,,,,,59,0
18982,note_off,1,0,0,,,,,0,,,,,,,81,0
18982,note_off,0,0,0,,,,,5,,,,,,,81,0
18984,note_on,2,0,0,,,,,0,,,,,,,83,96
18984,note_on,0,0,0,,,,,1,,,,,,,71,96
18984,note_on,0,0,0,,,,,2,,,,,,,63,96
18984,note_on,0,0,0,,,,,3,,,,,,,56,96
18984,note_on,0,0,0,,,,,4,,,,,,,44,96
18984,note_on,0,0,0,,,,,5,,,,,,,83,96
18984,note_on,0,0,0,,,,,6,,,,,,,56,96
18994,note_off,10,0,0,,,,,0,,,,,,,83,0
18994,note_off,0,0,0,,,,,5,,,,,,,83,0
18996,note_on,2,0,0,,,,,0,,,,,,,80,96
18996,note_on,0,0,0,,,,,5,,,,,,,80,96
19005,note_off,9,0,0,,,,,1,,,,,,,71,0
19005,note_off,0,0,0,,,,,2,,,,,,,63,0
19005,note_off,0,0,0,,,,,3,,,,,,,56,0
19005,note_off,0,0,0,,,,,4,,,,,,,44,0
19005,note_off,0,0,0,,,,,6,,,,,,,56,0
19006,note_off,1,0,0,,,,,0,,,,,,,80,0
19006,note_off,0,0,0,,,,,5,,,,,,,80,0
19008,note_on,2,0,0,,,,,0,,,,,,,76,96
19008,note_on,0,0,0,,,,,1,,,,,,,68,96
19008,note_on,0,0,0,,,,,2,,,,,,,61,96
19008,note_on,0,0,0,,,,,3,,,,,,,49,96
19008,note_on,0,0,0,,,,,4,,,,,,,37,96
19008,note_on,0,0,0,,,,,5,,,,,,,76,96
19008,note_on,0,0,0,,,,,6,,,,,,,49,96
19016,note_off,8,0,0,,,,,0,,,,,,,76,0
19016,note_on,0,0,0,,,,,0,,,,,,,75,96
19016,note_off,0,0,0,,,,,5,,,,,,,76,0
19016,note_on,0,0,0,,,,,5,,,,,,,75,96
19024,note_off,8,0,0,,,,,0,,,,,,,75,0
19024,note_on,0,0,0,,,,,0,,,,,,,73,96
19024,note_off,0,0,0,,,,,5,,,,,,,75,0
19024,note_on,0,0,0,,,,,5,,,,,,,73,96
19029,note_off,5,0,0,,,,,1,,,,,,,68,0
19029,note_off,0,0,0,,,,,2,,,,,,,61,0
19029,note_off,0,0,0,,,,,3,,,,,,,49,0
19029,note_off,0,0,0,,,,,4,,,,,,,37,0
19029,note_off,0,0,0,,,,,6,,,,,,,49,0
19031,note_off,2,0,0,,,,,0,,,,,,,73,0
19031,note_off,0,0,0,,,,,5,,,,,,,73,0
19032,note_on,1,0,0,,,,,0,,,,,,,76,96
19032,note_on,0,0,0,,,,,1,,,,,,,73,96
19032,note_on,0,0,0,,,,,2,,,,,,,68,96
19032,note_on,0,0,0,,,,,3,,,,,,,61,96
19032,note_on,0,0,0,,,,,4,,,,,,,49,96
19032,note_on,0,0,0,,,,,5,,,,,,,76,96
19032,note_on,0,0,0,,,,,6,,,,,,,61,96
19042,note_off,10,0,0,,,,,1,,,,,,,73,0
19044,note_on,2,0,0,,,,,1,,,,,,,75,96
19053,note_off,9,0,0,,,,,0,,,,,,,76,0
19053,note_off,0,0,0,,,,,2,,,,,,,68,0
19053,note_off,0,0,0,,,,,3,,,,,,,61,0
19053,note_off,0,0,0,,,,,4,,,,,,,49,0
19053,note_off,0,0,0,,,,,5,,,,,,,76,0
19053,note_off,0,0,0,,,,,6,,,,,,,61,0
19054,note_off,1,0,0,,,,,1,,,,,,,75,0
19056,note_on,2,0,0,,,,,0,,,,,,,76,96
19056,note_on,0,0,0,,,,,1,,,,,,,76,96
19056,note_on,0,0,0,,,,,2,,,,,,,61,96
19056,note_on,0,0,0,,,,,3,,,,,,,57,96
19056,note_on,0,0,0,,,,,4,,,,,,,45,96
19056,note_on,0,0,0,,,,,5,,,,,,,76,96
19056,note_on,0,0,0,,,,,6,,,,,,,57,96
19066,note_off,10,0,0,,,,,1,,,,,,,76,0
19068,note_on,2,0,0,,,,,1,,,,,,,73,96
19077,note_off,9,0,0,,,,,0,,,,,,,76,0
19077,note_off,0,0,0,,,,,2,,,,,,,61,0
19077,note_off,0,0,0,,,,,3,,,,,,,57,0
19077,note_off,0,0,0,,,,,4,,,,,,,45,0
19077,note_off,0,0,0,,,,,5,,,,,,,76,0
19077,note_off,0,0,0,,,,,6,,,,,,,57,0
19078,note_off,1,0,0,,,,,1,,,,,,,73,0
19080,note_on,2,0,0,,,,,0,,,,,,,76,96
19080,note_on,0,0,0,,,,,1,,,,,,,69,96
19080,note_on,0,0,0,,,,,2,,,,,,,61,96
19080,note_on,0,0,0,,,,,3,,,,,,,54,96
19080,note_on,0,0,0,,,,,4,,,,,,,42,96
19080,note_on,0,0,0,,,,,5,,,,,,,76,96
19080,note_on,0,0,0,,,,,6,,,,,,,54,96
19101,note_off,21,0,0,,,,,0,,,,,,,76,0
19101,note_off,0,0,0,,,,,1,,,,,,,69,0
19101,note_off,0,0,0,,,,,2,,,,,,,61,0
19101,note_off,0,0,0,,,,,3,,,,,,,54,0
19101,note_off,0,0,0,,,,,4,,,,,,,42,0
19101,note_off,0,0,0,,,,,5,,,,,,,76,0
19101,note_off,0,0,0,,,,,6,,,,,,,54,0
19104,note_on,3,0,0,,,,,0,,,,,,,78,96
19104,note_on,0,0,0,,,,,1,,,,,,,73,96
19104,note_on,0,0,0,,,,,2,,,,,,,66,96
19104,note_on,0,0,0,,,,,3,,,,,,,57,96
19104,note_on,0,0,0,,,,,4,,,,,,,45,96
19104,note_on,0,0,0,,,,,5,,,,,,,78,96
19104,note_on,0,0,0,,,,,6,,,,,,,57,96
19114,note_off,10,0,0,,,,,0,,,,,,,78,0
19114,note_off,0,0,0,,,,,5,,,,,,,78,0
19116,note_on,2,0,0,,,,,0,,,,,,,80,96
19116,note_on,0,0,0,,,,,5,,,,,,,80,96
19125,note_off,9,0,0,,,,,1,,,,,,,73,0
19125,note_off,0,0,0,,,,,2,,,,,,,66,0
19125,note_off,0,0,0,,,,,3,,,,,,,57,0
19125,note_off,0,0,0,,,,,4,,,,,,,45,0
19125,note_off,0,0,0,,,,,6,,,,,,,57,0
19126,note_off,1,0,0,,,,,0,,,,,,,80,0
19126,note_off,0,0,0,,,,,5,,,,,,,80,0
19128,note_on,2,0,0,,,,,0,,,,,,,81,96
19128,note_on,0,0,0,,,,,1,,,,,,,69,96
19128,note_on,0,0,0,,,,,2,,,,,,,61,96
19128,note_on,0,0,0,,,,,3,,,,,,,54,96
19128,note_on,0,0,0,,,,,4,,,,,,,42,96
19128,note_on,0,0,0,,,,,5,,,,,,,81,96
19128,note_on,0,0,0,,,,,6,,,,,,,54,96
19138,note_off,10,0,0,,,,,0,,,,,,,81,0
19138,note_off,0,0,0,,,,,5,,,,,,,81,0
19140,note_on,2,0,0,,,,,0,,,,,,,78,96
19140,note_on,0,0,0,,,,,5,,,,,,,78,96
19149,note_off,9,0,0,,,,,1,,,,,,,69,0
19149,note_off,0,0,0,,,,,2,,,,,,,61,0
19149,note_off,0,0,0,,,,,3,,,,,,,54,0
19149,note_off,0,0,0,,,,,4,,,,,,,42,0
19149,note_off,0,0,0,,,,,6,,,,,,,54,0
19150,note_off,1,0,0,,,,,0,,,,,,,78,0
19150,note_off,0,0,0,,,,,5,,,,,,,78,0
19152,note_on,2,0,0,,,,,0,,,,,,,75,96
19152,note_on,0,0,0,,,,,1,,,,,,,66,96
19152,note_on,0,0,0,,,,,2,,,,,,,59,96
19152,note_on,0,0,0,,,,,3,,,,,,,59,96
19152,note_on,0,0,0,,,,,4,,,,,,,47,96
19152,note_on,0,0,0,,,,,5,,,,,,,75,96
19152,note_on,0,0,0,,,,,6,,,,,,,59,96
19162,note_off,10,0,0,,,,,2,,,,,,,59,0
19164,note_on,2,0,0,,,,,2,,,,,,,58,96
19173,note_off,9,0,0,,,,,0,,,,,,,75,0
19173,note_off,0,0,0,,,,,1,,,,,,,66,0
19173,note_off,0,0,0,,,,,3,,,,,,,59,0
19173,note_off,0,0,0,,,,,4,,,,,,,47,0
19173,note_off,0,0,0,,,,,5,,,,,,,75,0
19173,note_off,0,0,0,,,,,6,,,,,,,59,0
19174,note_off,1,0,0,,,,,2,,,,,,,58,0
19176,note_on,2,0,0,,,,,0,,,,,,,78,96
19176,note_on,0,0,0,,,,,1,,,,,,,75,96
19176,note_on,0,0,0,,,,,2,,,,,,,59,96
19176,note_on,0,0,0,,,,,3,,,,,,,47,96
19176,note_on,0,0,0,,,,,4,,,,,,,35,96
19176,note_on,0,0,0,,,,,5,,,,,,,78,96
19176,note_on,0,0,0,,,,,6,,,,,,,47,96
19186,note_off,10,0,0,,,,,2,,,,,,,59,0
19186,note_off,0,0,0,,,,,3,,,,,,,47,0
19186,note_off,0,0,0,,,,,4,,,,,,,35,0
19186,note_off,0,0,0,,,,,6,,,,,,,47,0
19188,note_on,2,0,0,,,,,2,,,,,,,61,96
19188,note_on,0,0,0,,,,,3,,,,,,,46,96
19188,note_on,0,0,0,,,,,4,,,,,,,34,96
19188,note_on,0,0,0,,,,,6,,,,,,,46,96
19197,note_off,9,0,0,,,,,0,,,,,,,78,0
19197,note_off,0,0,0,,,,,1,,,,,,,75,0
19197,note_off,0,0,0,,,,,5,,,,,,,78,0
19198,note_off,1,0,0,,,,,2,,,,,,,61,0
19198,note_off,0,0,0,,,,,3,,,,,,,46,0
19198,note_off,0,0,0,,,,,4,,,,,,,34,0
19198,note_off,0,0,0,,,,,6,,,,,,,46,0
19200,note_on,2,0,0,,,,,0,,,,,,,75,96
19200,note_on,0,0,0,,,,,1,,,,,,,71,96
19200,note_on,0,0,0,,,,,2,,,,,,,63,96
19200,note_on,0,0,0,,,,,3,,,,,,,47,96
19200,note_on,0,0,0,,,,,4,,,,,,,35,96
19200,note_on,0,0,0,,,,,5,,,,,,,75,96
19200,note_on,0,0,0,,,,,6,,,,,,,47,96
19210,note_off,10,0,0,,,,,2,,,,,,,63,0
19210,note_off,0,0,0,,,,,3,,,,,,,47,0
19210,note_off,0,0,0,,,,,4,,,,,,,35,0
19210,note_off,0,0,0,,,,,6,,,,,,,47,0
19212,note_on,2,0,0,,,,,2,,,,,,,64,96
19212,note_on,0,0,0,,,,,3,,,,,,,49,96
19212,note_on,0,0,0,,,,,4,,,,,,,37,96
19212,note_on,0,0,0,,,,,6,,,,,,,49,96
19221,note_off,9,0,0,,,,,0,,,,,,,75,0
19221,note_off,0,0,0,,,,,1,,,,,,,71,0
19221,note_off,0,0,0,,,,,5,,,,,,,75,0
19222,note_off,1,0,0,,,,,2,,,,,,,64,0
19222,note_off,0,0,0,,,,,3,,,,,,,49,0
19222,note_off,0,0,0,,,,,4,,,,,,,37,0
19222,note_off,0,0,0,,,,,6,,,,,,,49,0
19224,note_on,2,0,0,,,,,0,,,,,,,71,96
19224,note_on,0,0,0,,,,,1,,,,,,,66,96
19224,note_on,0,0,0,,,,,2,,,,,,,66,96
19224,note_on,0,0,0,,,,,3,,,,,,,51,96
19224,note_on,0,0,0,,,,,4,,,,,,,39,96
19224,note_on,0,0,0,,,,,5,,,,,,,71,96
19224,note_on,0,0,0,,,,,6,,,,,,,51,96
19234,note_off,10,0,0,,,,,2,,,,,,,66,0
19236,note_on,2,0,0,,,,,2,,,,,,,68,96
19245,note_off,9,0,0,,,,,0,,,,,,,71,0
19245,note_off,0,0,0,,,,,1,,,,,,,66,0
19245,note_off,0,0,0,,,,,3,,,,,,,51,0
19245,note_off,0,0,0,,,,,4,,,,,,,39,0
19245,note_off,0,0,0,,,,,5,,,,,,,71,0
19245,note_off,0,0,0,,,,,6,,,,,,,51,0
19246,note_off,1,0,0,,,,,2,,,,,,,68,0
19248,note_on,2,0,0,,,,,0,,,,,,,75,96
19248,note_on,0,0,0,,,,,1,,,,,,,71,96
19248,note_on,0,0,0,,,,,2,,,,,,,66,96
19248,note_on,0,0,0,,,,,3,,,,,,,47,96
19248,note_on,0,0,0,,,,,4,,,,,,,35,96
19248,note_on,0,0,0,,,,,5,,,,,,,75,96
19248,note_on,0,0,0,,,,,6,,,,,,,47,96
19258,note_off,10,0,0,,,,,0,,,,,,,75,0
19258,note_off,0,0,0,,,,,2,,,,,,,66,0
19258,note_off,0,0,0,,,,,5,,,,,,,75,0
19260,note_on,2,0,0,,,,,0,,,,,,,73,96
19260,note_on,0,0,0,,,,,2,,,,,,,64,96
19260,note_on,0,0,0,,,,,5,,,,,,,73,96
19269,note_off,9,0,0,,,,,1,,,,,,,71,0
19269,note_off,0,0,0,,,,,3,,,,,,,47,0
19269,note_off,0,0,0,,,,,4,,,,,,,35,0
19269,note_off,0,0,0,,,,,6,,,,,,,47,0
19270,note_off,1,0,0,,,,,0,,,,,,,73,0
19270,note_off,0,0,0,,,,,2,,,,,,,64,0
19270,note_off,0,0,0,,,,,5,,,,,,,73,0
19272,note_on,2,0,0,,,,,0,,,,,,,71,96
19272,note_on,0,0,0,,,,,1,,,,,,,66,96
19272,note_on,0,0,0,,,,,2,,,,,,,63,96
19272,note_on,0,0,0,,,,,3,,,,,,,51,96
19272,note_on,0,0,0,,,,,4,,,,,,,39,96
19272,note_on,0,0,0,,,,,5,,,,,,,71,96
19272,note_on,0,0,0,,,,,6,,,,,,,51,96
19282,note_off,10,0,0,,,,,0,,,,,,,71,0
19282,note_off,0,0,0,,,,,2,,,,,,,63,0
19282,note_off,0,0,0,,,,,5,,,,,,,71,0
19284,note_on,2,0,0,,,,,0,,,,,,,69,96
19284,note_on,0,0,0,,,,,2,,,,,,,61,96
19284,note_on,0,0,0,,,,,5,,,,,,,69,96
19293,note_off,9,0,0,,,,,1,,,,,,,66,0
19293,note_off,0,0,0,,,,,3,,,,,,,51,0
19293,note_off,0,0,0,,,,,4,,,,,,,39,0
19293,note_off,0,0,0,,,,,6,,,,,,,51,0
19294,note_off,1,0,0,,,,,0,,,,,,,69,0
19294,note_off,0,0,0,,,,,2,,,,,,,61,0
19294,note_off,0,0,0,,,,,5,,,,,,,69,0
19296,note_on,2,0,0,,,,,0,,,,,,,68,96
19296,note_on,0,0,0,,,,,1,,,,,,,64,96
19296,note_on,0,0,0,,,,,2,,,,,,,59,96
19296,note_on,0,0,0,,,,,3,,,,,,,52,96
19296,note_on,0,0,0,,,,,4,,,,,,,40,96
19296,note_on,0,0,0,,,,,5,,,,,,,68,96
19296,note_on,0,0,0,,,,,6,,,,,,,52,96
19306,note_off,10,0,0,,,,,1,,,,,,,64,0
19308,note_on,2,0,0,,,,,1,,,,,,,63,96
19317,note_off,9,0,0,,,,,0,,,,,,,68,0
19317,note_off,0,0,0,,,,,2,,,,,,,59,0
19317,note_off,0,0,0,,,,,3,,,,,,,52,0
19317,note_off,0,0,0,,,,,4,,,,,,,40,0
19317,note_off,0,0,0,,,,,5,,,,,,,68,0
19317,note_off,0,0,0,,,,,6,,,,,,,52,0
19318,note_off,1,0,0,,,,,1,,,,,,,63,0
19320,note_on,2,0,0,,,,,0,,,,,,,83,96
19320,note_on,0,0,0,,,,,1,,,,,,,64,96
19320,note_on,0,0,0,,,,,2,,,,,,,68,96
19320,note_on,0,0,0,,,,,3,,,,,,,40,96
19320,note_on,0,0,0,,,,,4,,,,,,,28,96
19320,note_on,0,0,0,,,,,5,,,,,,,83,96
19320,note_on,0,0,0,,,,,6,,,,,,,40,96
19330,note_off,10,0,0,,,,,1,,,,,,,64,0
19330,note_off,0,0,0,,,,,3,,,,,,,40,0
19330,note_off,0,0,0,,,,,4,,,,,,,28,0
19330,note_off,0,0,0,,,,,6,,,,,,,40,0
19332,note_on,2,0,0,,,,,1,,,,,,,66,96
19332,note_on,0,0,0,,,,,3,,,,,,,39,96
19332,note_on,0,0,0,,,,,4,,,,,,,27,96
19332,note_on,0,0,0,,,,,6,,,,,,,39,96
19341,note_off,9,0,0,,,,,0,,,,,,,83,0
19341,note_off,0,0,0,,,,,2,,,,,,,68,0
19341,note_off,0,0,0,,,,,5,,,,,,,83,0
19342,note_off,1,0,0,,,,,1,,,,,,,66,0
19342,note_off,0,0,0,,,,,3,,,,,,,39,0
19342,note_off,0,0,0,,,,,4,,,,,,,27,0
19342,note_off,0,0,0,,,,,6,,,,,,,39,0
19344,note_on,2,0,0,,,,,0,,,,,,,80,96
19344,note_on,0,0,0,,,,,1,,,,,,,68,96
19344,note_on,0,0,0,,,,,2,,,,,,,64,96
19344,note_on,0,0,0,,,,,3,,,,,,,40,96
19344,note_on,0,0,0,,,,,4,,,,,,,28,96
19344,note_on,0,0,0,,,,,5,,,,,,,80,96
19344,note_on,0,0,0,,,,,6,,,,,,,40,96
19354,note_off,10,0,0,,,,,1,,,,,,,68,0
19354,note_off,0,0,0,,,,,3,,,,,,,40,0
19354,note_off,0,0,0,,,,,4,,,,,,,28,0
19354,note_off,0,0,0,,,,,6,,,,,,,40,0
19356,note_on,2,0,0,,,,,1,,,,,,,69,96
19356,note_on,0,0,0,,,,,3,,,,,,,42,96
19356,note_on,0,0,0,,,,,4,,,,,,,30,96
19356,note_on,0,0,0,,,,,6,,,,,,,42,96
19365,note_off,9,0,0,,,,,0,,,,,,,80,0
19365,note_off,0,0,0,,,,,2,,,,,,,64,0
19365,note_off,0,0,0,,,,,5,,,,,,,80,0
19366,note_off,1,0,0,,,,,1,,,,,,,69,0
19366,note_off,0,0,0,,,,,3,,,,,,,42,0
19366,note_off,0,0,0,,,,,4,,,,,,,30,0
19366,note_off,0,0,0,,,,,6,,,,,,,42,0
19368,note_on,2,0,0,,,,,0,,,,,,,76,96
19368,note_on,0,0,0,,,,,1,,,,,,,71,96
19368,note_on,0,0,0,,,,,2,,,,,,,59,96
19368,note_on,0,0,0,,,,,3,,,,,,,44,96
19368,note_on,0,0,0,,,,,4,,,,,,,32,96
19368,note_on,0,0,0,,,,,5,,,,,,,76,96
19368,note_on,0,0,0,,,,,6,,,,,,,44,96
19378,note_off,10,0,0,,,,,1,,,,,,,71,0
19380,note_on,2,0,0,,,,,1,,,,,,,73,96
19389,note_off,9,0,0,,,,,0,,,,,,,76,0
19389,note_off,0,0,0,,,,,2,,,,,,,59,0
19389,note_off,0,0,0,,,,,3,,,,,,,44,0
19389,note_off,0,0,0,,,,,4,,,,,,,32,0
19389,note_off,0,0,0,,,,,5,,,,,,,76,0
19389,note_off,0,0,0,,,,,6,,,,,,,44,0
19390,note_off,1,0,0,,,,,1,,,,,,,73,0
19392,note_on,2,0,0,,,,,0,,,,,,,80,96
19392,note_on,0,0,0,,,,,1,,,,,,,71,96
19392,note_on,0,0,0,,,,,2,,,,,,,64,96
19392,note_on,0,0,0,,,,,3,,,,,,,40,96
19392,note_on,0,0,0,,,,,4,,,,,,,28,96
19392,note_on,0,0,0,,,,,5,,,,,,,80,96
19392,note_on,0,0,0,,,,,6,,,,,,,40,96
19402,note_off,10,0,0,,,,,0,,,,,,,80,0
19402,note_off,0,0,0,,,,,1,,,,,,,71,0
19402,note_off,0,0,0,,,,,5,,,,,,,80,0
19404,note_on,2,0,0,,,,,0,,,,,,,78,96
19404,note_on,0,0,0,,,,,1,,,,,,,69,96
19404,note_on,0,0,0,,,,,5,,,,,,,78,96
19413,note_off,9,0,0,,,,,2,,,,,,,64,0
19413,note_off,0,0,0,,,,,3,,,,,,,40,0
19413,note_off,0,0,0,,,,,4,,,,,,,28,0
19413,note_off,0,0,0,,,,,6,,,,,,,40,0
19414,note_off,1,0,0,,,,,0,,,,,,,78,0
19414,note_off,0,0,0,,,,,1,,,,,,,69,0
19414,note_off,0,0,0,,,,,5,,,,,,,78,0
19416,note_on,2,0,0,,,,,0,,,,,,,76,96
19416,note_on,0,0,0,,,,,1,,,,,,,68,96
19416,note_on,0,0,0,,,,,2,,,,,,,59,96
19416,note_on,0,0,0,,,,,3,,,,,,,44,96
19416,note_on,0,0,0,,,,,4,,,,,,,32,96
19416,note_on,0,0,0,,,,,5,,,,,,,76,96
19416,note_on,0,0,0,,,,,6,,,,,,,44,96
19426,note_off,10,0,0,,,,,0,,,,,,,76,0
19426,note_off,0,0,0,,,,,1,,,,,,,68,0
19426,note_off,0,0,0,,,,,5,,,,,,,76,0
19428,note_on,2,0,0,,,,,0,,,,,,,75,96
19428,note_on,0,0,0,,,,,1,,,,,,,66,96
19428,note_on,0,0,0,,,,,5,,,,,,,75,96
19437,note_off,9,0,0,,,,,2,,,,,,,59,0
19437,note_off,0,0,0,,,,,3,,,,,,,44,0
19437,note_off,0,0,0,,,,,4,,,,,,,32,0
19437,note_off,0,0,0,,,,,6,,,,,,,44,0
19438,note_off,1,0,0,,,,,0,,,,,,,75,0
19438,note_off,0,0,0,,,,,1,,,,,,,66,0
19438,note_off,0,0,0,,,,,5,,,,,,,75,0
19440,note_on,2,0,0,,,,,0,,,,,,,73,96
19440,note_on,0,0,0,,,,,1,,,,,,,64,96
19440,note_on,0,0,0,,,,,2,,,,,,,61,96
19440,note_on,0,0,0,,,,,3,,,,,,,45,96
19440,note_on,0,0,0,,,,,4,,,,,,,33,96
19440,note_on,0,0,0,,,,,5,,,,,,,73,96
19440,note_on,0,0,0,,,,,6,,,,,,,45,96
19450,note_off,10,0,0,,,,,0,,,,,,,73,0
19450,note_off,0,0,0,,,,,5,,,,,,,73,0
19450,note_off,0,0,0,,,,,6,,,,,,,45,0
19452,note_on,2,0,0,,,,,0,,,,,,,76,96
19452,note_on,0,0,0,,,,,5,,,,,,,76,96
19452,note_on,0,0,0,,,,,6,,,,,,,49,96
19461,note_off,9,0,0,,,,,1,,,,,,,64,0
19461,note_off,0,0,0,,,,,2,,,,,,,61,0
19461,note_off,0,0,0,,,,,3,,,,,,,45,0
19461,note_off,0,0,0,,,,,4,,,,,,,33,0
19462,note_off,1,0,0,,,,,0,,,,,,,76,0
19462,note_off,0,0,0,,,,,5,,,,,,,76,0
19462,note_off,0,0,0,,,,,6,,,,,,,49,0
19464,note_on,2,0,0,,,,,0,,,,,,,81,96
19464,note_on,0,0,0,,,,,1,,,,,,,63,96
19464,note_on,0,0,0,,,,,2,,,,,,,57,96
19464,note_on,0,0,0,,,,,3,,,,,,,54,96
19464,note_on,0,0,0,,,,,4,,,,,,,42,96
19464,note_on,0,0,0,,,,,5,,,,,,,81,96
19464,note_on,0,0,0,,,,,6,,,,,,,54,96
19474,note_off,10,0,0,,,,,0,,,,,,,81,0
19474,note_off,0,0,0,,,,,5,,,,,,,81,0
19476,note_on,2,0,0,,,,,0,,,,,,,80,96
19476,note_on,0,0,0,,,,,5,,,,,,,80,96
19485,note_off,9,0,0,,,,,1,,,,,,,63,0
19485,note_off,0,0,0,,,,,2,,,,,,,57,0
19485,note_off,0,0,0,,,,,3,,,,,,,54,0
19485,note_off,0,0,0,,,,,4,,,,,,,42,0
19485,note_off,0,0,0,,,,,6,,,,,,,54,0
19486,note_off,1,0,0,,,,,0,,,,,,,80,0
19486,note_off,0,0,0,,,,,5,,,,,,,80,0
19488,note_on,2,0,0,,,,,0,,,,,,,78,96
19488,note_on,0,0,0,,,,,5,,,,,,,78,96
19498,note_off,10,0,0,,,,,0,,,,,,,78,0
19498,note_off,0,0,0,,,,,5,,,,,,,78,0
19500,note_on,2,0,0,,,,,0,,,,,,,81,96
19500,note_on,0,0,0,,,,,5,,,,,,,81,96
19510,note_off,10,0,0,,,,,0,,,,,,,81,0
19510,note_off,0,0,0,,,,,5,,,,,,,81,0
19512,note_on,2,0,0,,,,,0,,,,,,,71,96
19512,note_on,0,0,0,,,,,1,,,,,,,64,96
19512,note_on,0,0,0,,,,,2,,,,,,,59,96
19512,note_on,0,0,0,,,,,3,,,,,,,44,96
19512,note_on,0,0,0,,,,,4,,,,,,,32,96
19512,note_on,0,0,0,,,,,5,,,,,,,71,96
19512,note_on,0,0,0,,,,,6,,,,,,,44,96
19522,note_off,10,0,0,,,,,0,,,,,,,71,0
19522,note_off,0,0,0,,,,,5,,,,,,,71,0
19522,note_off,0,0,0,,,,,6,,,,,,,44,0
19524,note_on,2,0,0,,,,,0,,,,,,,76,96
19524,note_on,0,0,0,,,,,5,,,,,,,76,96
19524,note_on,0,0,0,,,,,6,,,,,,,47,96
19533,note_off,9,0,0,,,,,1,,,,,,,64,0
19533,note_off,0,0,0,,,,,2,,,,,,,59,0
19533,note_off,0,0,0,,,,,3,,,,,,,44,0
19533,note_off,0,0,0,,,,,4,,,,,,,32,0
19534,note_off,1,0,0,,,,,0,,,,,,,76,0
19534,note_off,0,0,0,,,,,5,,,,,,,76,0
19534,note_off,0,0,0,,,,,6,,,,,,,47,0
19536,note_on,2,0,0,,,,,0,,,,,,,80,96
19536,note_on,0,0,0,,,,,1,,,,,,,71,96
19536,note_on,0,0,0,,,,,2,,,,,,,64,96
19536,note_on,0,0,0,,,,,3,,,,,,,52,96
19536,note_on,0,0,0,,,,,4,,,,,,,40,96
19536,note_on,0,0,0,,,,,5,,,,,,,80,96
19536,note_on,0,0,0,,,,,6,,,,,,,52,96
19546,note_off,10,0,0,,,,,0,,,,,,,80,0
19546,note_off,0,0,0,,,,,5,,,,,,,80,0
19548,note_on,2,0,0,,,,,0,,,,,,,78,96
19548,note_on,0,0,0,,,,,5,,,,,,,78,96
19557,note_off,9,0,0,,,,,1,,,,,,,71,0
19557,note_off,0,0,0,,,,,2,,,,,,,64,0
19557,note_off,0,0,0,,,,,3,,,,,,,52,0
19557,note_off,0,0,0,,,,,4,,,,,,,40,0
19557,note_off,0,0,0,,,,,6,,,,,,,52,0
19558,note_off,1,0,0,,,,,0,,,,,,,78,0
19558,note_off,0,0,0,,,,,5,,,,,,,78,0
19560,note_on,2,0,0,,,,,0,,,,,,,76,96
19560,note_on,0,0,0,,,,,5,,,,,,,76,96
19570,note_off,10,0,0,,,,,0,,,,,,,76,0
19570,note_off,0,0,0,,,,,5,,,,,,,76,0
19572,note_on,2,0,0,,,,,0,,,,,,,80,96
19572,note_on,0,0,0,,,,,5,,,,,,,80,96
19582,note_off,10,0,0,,,,,0,,,,,,,80,0
19582,note_off,0,0,0,,,,,5,,,,,,,80,0
19584,note_on,2,0,0,,,,,0,,,,,,,69,96
19584,note_on,0,0,0,,,,,1,,,,,,,66,96
19584,note_on,0,0,0,,,,,2,,,,,,,61,96
19584,note_on,0,0,0,,,,,3,,,,,,,54,96
19584,note_on,0,0,0,,,,,4,,,,,,,42,96
19584,note_on,0,0,0,,,,,5,,,,,,,69,96
19584,note_on,0,0,0,,,,,6,,,,,,,54,96
19594,note_off,10,0,0,,,,,3,,,,,,,54,0
19594,note_off,0,0,0,,,,,4,,,,,,,42,0
19594,note_off,0,0,0,,,,,6,,,,,,,54,0
19596,note_on,2,0,0,,,,,3,,,,,,,56,96
19596,note_on,0,0,0,,,,,4,,,,,,,44,96
19596,note_on,0,0,0,,,,,6,,,,,,,56,96
19605,note_off,9,0,0,,,,,0,,,,,,,69,0
19605,note_off,0,0,0,,,,,1,,,,,,,66,0
19605,note_off,0,0,0,,,,,2,,,,,,,61,0
19605,note_off,0,0,0,,,,,5,,,,,,,69,0
19606,note_off,1,0,0,,,,,3,,,,,,,56,0
19606,note_off,0,0,0,,,,,4,,,,,,,44,0
19606,note_off,0,0,0,,,,,6,,,,,,,56,0
19608,note_on,2,0,0,,,,,0,,,,,,,78,96
19608,note_on,0,0,0,,,,,1,,,,,,,73,96
19608,note_on,0,0,0,,,,,2,,,,,,,61,96
19608,note_on,0,0,0,,,,,3,,,,,,,57,96
19608,note_on,0,0,0,,,,,4,,,,,,,45,96
19608,note_on,0,0,0,,,,,5,,,,,,,78,96
19608,note_on,0,0,0,,,,,6,,,,,,,57,96
19618,note_off,10,0,0,,,,,3,,,,,,,57,0
19618,note_off,0,0,0,,,,,4,,,,,,,45,0
19618,note_off,0,0,0,,,,,6,,,,,,,57,0
19620,note_on,2,0,0,,,,,3,,,,,,,56,96
19620,note_on,0,0,0,,,,,4,,,,,,,44,96
19620,note_on,0,0,0,,,,,6,,,,,,,56,96
19629,note_off,9,0,0,,,,,0,,,,,,,78,0
19629,note_off,0,0,0,,,,,1,,,,,,,73,0
19629,note_off,0,0,0,,,,,2,,,,,,,61,0
19629,note_off,0,0,0,,,,,5,,,,,,,78,0
19630,note_off,1,0,0,,,,,3,,,,,,,56,0
19630,note_off,0,0,0,,,,,4,,,,,,,44,0
19630,note_off,0,0,0,,,,,6,,,,,,,56,0
19632,note_on,2,0,0,,,,,0,,,,,,,78,96
19632,note_on,0,0,0,,,,,1,,,,,,,69,96
19632,note_on,0,0,0,,,,,2,,,,,,,66,96
19632,note_on,0,0,0,,,,,3,,,,,,,54,96
19632,note_on,0,0,0,,,,,4,,,,,,,42,96
19632,note_on,0,0,0,,,,,5,,,,,,,78,96
19632,note_on,0,0,0,,,,,6,,,,,,,54,96
19642,note_off,10,0,0,,,,,3,,,,,,,54,0
19642,note_off,0,0,0,,,,,4,,,,,,,42,0
19642,note_off,0,0,0,,,,,6,,,,,,,54,0
19644,note_on,2,0,0,,,,,3,,,,,,,52,96
19644,note_on,0,0,0,,,,,4,,,,,,,40,96
19644,note_on,0,0,0,,,,,6,,,,,,,52,96
19653,note_off,9,0,0,,,,,0,,,,,,,78,0
19653,note_off,0,0,0,,,,,1,,,,,,,69,0
19653,note_off,0,0,0,,,,,2,,,,,,,66,0
19653,note_off,0,0,0,,,,,5,,,,,,,78,0
19654,note_off,1,0,0,,,,,3,,,,,,,52,0
19654,note_off,0,0,0,,,,,4,,,,,,,40,0
19654,note_off,0,0,0,,,,,6,,,,,,,52,0
19656,note_on,2,0,0,,,,,0,,,,,,,71,96
19656,note_on,0,0,0,,,,,1,,,,,,,71,96
19656,note_on,0,0,0,,,,,2,,,,,,,69,96
19656,note_on,0,0,0,,,,,3,,,,,,,51,96
19656,note_on,0,0,0,,,,,4,,,,,,,39,96
19656,note_on,0,0,0,,,,,5,,,,,,,71,96
19656,note_on,0,0,0,,,,,6,,,,,,,51,96
19666,note_off,10,0,0,,,,,0,,,,,,,71,0
19666,note_off,0,0,0,,,,,3,,,,,,,51,0
19666,note_off,0,0,0,,,,,4,,,,,,,39,0
19666,note_off,0,0,0,,,,,5,,,,,,,71,0
19666,note_off,0,0,0,,,,,6,,,,,,,51,0
19668,note_on,2,0,0,,,,,0,,,,,,,73,96
19668,note_on,0,0,0,,,,,3,,,,,,,52,96
19668,note_on,0,0,0,,,,,4,,,,,,,40,96
19668,note_on,0,0,0,,,,,5,,,,,,,73,96
19668,note_on,0,0,0,,,,,6,,,,,,,52,96
19678,note_off,10,0,0,,,,,0,,,,,,,73,0
19678,note_off,0,0,0,,,,,3,,,,,,,52,0
19678,note_off,0,0,0,,,,,4,,,,,,,40,0
19678,note_off,0,0,0,,,,,5,,,,,,,73,0
19678,note_off,0,0,0,,,,,6,,,,,,,52,0
19680,note_on,2,0,0,,,,,0,,,,,,,75,96
19680,note_on,0,0,0,,,,,3,,,,,,,54,96
19680,note_on,0,0,0,,,,,4,,,,,,,42,96
19680,note_on,0,0,0,,,,,5,,,,,,,75,96
19680,note_on,0,0,0,,,,,6,,,,,,,54,96
19687,note_off,7,0,0,,,,,1,,,,,,,71,0
19687,note_off,0,0,0,,,,,2,,,,,,,69,0
19690,note_off,3,0,0,,,,,0,,,,,,,75,0
19690,note_off,0,0,0,,,,,3,,,,,,,54,0
19690,note_off,0,0,0,,,,,4,,,,,,,42,0
19690,note_off,0,0,0,,,,,5,,,,,,,75,0
19690,note_off,0,0,0,,,,,6,,,,,,,54,0
19692,note_on,2,0,0,,,,,0,,,,,,,76,96
19692,note_on,0,0,0,,,,,1,,,,,,,73,96
19692,note_on,0,0,0,,,,,2,,,,,,,68,96
19692,note_on,0,0,0,,,,,3,,,,,,,52,96
19692,note_on,0,0,0,,,,,4,,,,,,,40,96
19692,note_on,0,0,0,,,,,5,,,,,,,76,96
19692,note_on,0,0,0,,,,,6,,,,,,,52,96
19702,note_off,10,0,0,,,,,0,,,,,,,76,0
19702,note_off,0,0,0,,,,,1,,,,,,,73,0
19702,note_off,0,0,0,,,,,2,,,,,,,68,0
19702,note_off,0,0,0,,,,,3,,,,,,,52,0
19702,note_off,0,0,0,,,,,4,,,,,,,40,0
19702,note_off,0,0,0,,,,,5,,,,,,,76,0
19702,note_off,0,0,0,,,,,6,,,,,,,52,0
19704,note_on,2,0,0,,,,,0,,,,,,,78,96
19704,note_on,0,0,0,,,,,1,,,,,,,75,96
19704,note_on,0,0,0,,,,,2,,,,,,,66,96
19704,note_on,0,0,0,,,,,3,,,,,,,51,96
19704,note_on,0,0,0,,,,,4,,,,,,,39,96
19704,note_on,0,0,0,,,,,5,,,,,,,78,96
19704,note_on,0,0,0,,,,,6,,,,,,,51,96
19714,note_off,10,0,0,,,,,0,,,,,,,78,0
19714,note_off,0,0,0,,,,,1,,,,,,,75,0
19714,note_off,0,0,0,,,,,2,,,,,,,66,0
19714,note_off,0,0,0,,,,,3,,,,,,,51,0
19714,note_off,0,0,0,,,,,4,,,,,,,39,0
19714,note_off,0,0,0,,,,,5,,,,,,,78,0
19714,note_off,0,0,0,,,,,6,,,,,,,51,0
19716,note_on,2,0,0,,,,,0,,,,,,,80,96
19716,note_on,0,0,0,,,,,1,,,,,,,76,96
19716,note_on,0,0,0,,,,,2,,,,,,,64,96
19716,note_on,0,0,0,,,,,3,,,,,,,49,96
19716,note_on,0,0,0,,,,,4,,,,,,,37,96
19716,note_on,0,0,0,,,,,5,,,,,,,80,96
19716,note_on,0,0,0,,,,,6,,,,,,,49,96
19726,note_off,10,0,0,,,,,0,,,,,,,80,0
19726,note_off,0,0,0,,,,,1,,,,,,,76,0
19726,note_off,0,0,0,,,,,2,,,,,,,64,0
19726,note_off,0,0,0,,,,,3,,,,,,,49,0
19726,note_off,0,0,0,,,,,4,,,,,,,37,0
19726,note_off,0,0,0,,,,,5,,,,,,,80,0
19726,note_off,0,0,0,,,,,6,,,,,,,49,0
19728,note_on,2,0,0,,,,,0,,,,,,,81,96
19728,note_on,0,0,0,,,,,1,,,,,,,78,96
19728,note_on,0,0,0,,,,,2,,,,,,,63,96
19728,note_on,0,0,0,,,,,3,,,,,,,47,96
19728,note_on,0,0,0,,,,,4,,,,,,,35,96
19728,note_on,0,0,0,,,,,5,,,,,,,81,96
19728,note_on,0,0,0,,,,,6,,,,,,,47,96
19735,note_off,7,0,0,,,,,0,,,,,,,81,0
19735,note_off,0,0,0,,,,,1,,,,,,,78,0
19735,note_off,0,0,0,,,,,5,,,,,,,81,0
19736,note_on,1,0,0,,,,,0,,,,,,,80,96
19736,note_on,0,0,0,,,,,1,,,,,,,76,96
19736,note_on,0,0,0,,,,,5,,,,,,,80,96
19743,note_off,7,0,0,,,,,0,,,,,,,80,0
19743,note_off,0,0,0,,,,,1,,,,,,,76,0
19743,note_off,0,0,0,,,,,5,,,,,,,80,0
19744,note_on,1,0,0,,,,,0,,,,,,,78,96
19744,note_on,0,0,0,,,,,1,,,,,,,75,96
19744,note_on,0,0,0,,,,,5,,,,,,,78,96
19749,note_off,5,0,0,,,,,2,,,,,,,63,0
19751,note_off,2,0,0,,,,,0,,,,,,,78,0
19751,note_off,0,0,0,,,,,1,,,,,,,75,0
19751,note_off,0,0,0,,,,,5,,,,,,,78,0
19752,note_on,1,0,0,,,,,0,,,,,,,80,96
19752,note_on,0,0,0,,,,,1,,,,,,,76,96
19752,note_on,0,0,0,,,,,2,,,,,,,59,96
19752,note_on,0,0,0,,,,,5,,,,,,,80,96
19759,note_off,7,0,0,,,,,0,,,,,,,80,0
19759,note_off,0,0,0,,,,,1,,,,,,,76,0
19759,note_off,0,0,0,,,,,5,,,,,,,80,0
19760,note_on,1,0,0,,,,,0,,,,,,,78,96
19760,note_on,0,0,0,,,,,1,,,,,,,75,96
19760,note_on,0,0,0,,,,,5,,,,,,,78,96
19767,note_off,7,0,0,,,,,0,,,,,,,78,0
19767,note_off,0,0,0,,,,,1,,,,,,,75,0
19767,note_off,0,0,0,,,,,5,,,,,,,78,0
19768,note_on,1,0,0,,,,,0,,,,,,,76,96
19768,note_on,0,0,0,,,,,1,,,,,,,73,96
19768,note_on,0,0,0,,,,,5,,,,,,,76,96
19770,note_off,2,0,0,,,,,3,,,,,,,47,0
19770,note_off,0,0,0,,,,,4,,,,,,,35,0
19770,note_off,0,0,0,,,,,6,,,,,,,47,0
19773,note_off,3,0,0,,,,,2,,,,,,,59,0
19775,note_off,2,0,0,,,,,0,,,,,,,76,0
19775,note_off,0,0,0,,,,,1,,,,,,,73,0
19775,note_off,0,0,0,,,,,5,,,,,,,76,0
19776,note_on,1,0,0,,,,,0,,,,,,,83,96
19776,note_on,0,0,0,,,,,1,,,,,,,75,96
19776,note_on,0,0,0,,,,,2,,,,,,,66,96
19776,note_on,0,0,0,,,,,3,,,,,,,45,96
19776,note_on,0,0,0,,,,,4,,,,,,,33,96
19776,note_on,0,0,0,,,,,5,,,,,,,83,96
19776,note_on,0,0,0,,,,,6,,,,,,,45,96
19797,note_off,21,0,0,,,,,0,,,,,,,83,0
19797,note_off,0,0,0,,,,,1,,,,,,,75,0
19797,note_off,0,0,0,,,,,2,,,,,,,66,0
19797,note_off,0,0,0,,,,,3,,,,,,,45,0
19797,note_off,0,0,0,,,,,4,,,,,,,33,0
19797,note_off,0,0,0,,,,,5,,,,,,,83,0
19797,note_off,0,0,0,,,,,6,,,,,,,45,0
19800,note_on,3,0,0,,,,,3,,,,,,,44,96
19800,note_on,0,0,0,,,,,4,,,,,,,32,96
19800,note_on,0,0,0,,,,,6,,,,,,,44,96
19812,note_on,12,0,0,,,,,0,,,,,,,76,96
19812,note_on,0,0,0,,,,,1,,,,,,,71,96
19812,note_on,0,0,0,,,,,2,,,,,,,64,96
19812,note_on,0,0,0,,,,,5,,,,,,,76,96
19821,note_off,9,0,0,,,,,3,,,,,,,44,0
19821,note_off,0,0,0,,,,,4,,,,,,,32,0
19821,note_off,0,0,0,,,,,6,,,,,,,44,0
19822,note_off,1,0,0,,,,,0,,,,,,,76,0
19822,note_off,0,0,0,,,,,1,,,,,,,71,0
19822,note_off,0,0,0,,,,,2,,,,,,,64,0
19822,note_off,0,0,0,,,,,5,,,,,,,76,0
19824,note_on,2,0,0,,,,,0,,,,,,,78,96
19824,note_on,0,0,0,,,,,1,,,,,,,73,96
19824,note_on,0,0,0,,,,,2,,,,,,,69,96
19824,note_on,0,0,0,,,,,3,,,,,,,45,96
19824,note_on,0,0,0,,,,,4,,,,,,,33,96
19824,note_on,0,0,0,,,,,5,,,,,,,78,96
19824,note_on,0,0,0,,,,,6,,,,,,,45,96
19845,note_off,21,0,0,,,,,0,,,,,,,78,0
19845,note_off,0,0,0,,,,,1,,,,,,,73,0
19845,note_off,0,0,0,,,,,2,,,,,,,69,0
19845,note_off,0,0,0,,,,,3,,,,,,,45,0
19845,note_off,0,0,0,,,,,4,,,,,,,33,0
19845,note_off,0,0,0,,,,,5,,,,,,,78,0
19845,note_off,0,0,0,,,,,6,,,,,,,45,0
19848,note_on,3,0,0,,,,,0,,,,,,,75,96
19848,note_on,0,0,0,,,,,1,,,,,,,69,96
19848,note_on,0,0,0,,,,,2,,,,,,,66,96
19848,note_on,0,0,0,,,,,3,,,,,,,47,96
19848,note_on,0,0,0,,,,,4,,,,,,,35,96
19848,note_on,0,0,0,,,,,5,,,,,,,75,96
19848,note_on,0,0,0,,,,,6,,,,,,,47,96
19869,note_off,21,0,0,,,,,0,,,,,,,75,0
19869,note_off,0,0,0,,,,,1,,,,,,,69,0
19869,note_off,0,0,0,,,,,2,,,,,,,66,0
19869,note_off,0,0,0,,,,,3,,,,,,,47,0
19869,note_off,0,0,0,,,,,4,,,,,,,35,0
19869,note_off,0,0,0,,,,,5,,,,,,,75,0
19869,note_off,0,0,0,,,,,6,,,,,,,47,0
19872,note_on,3,0,0,,,,,0,,,,,,,76,96
19872,note_on,0,0,0,,,,,1,,,,,,,71,96
19872,note_on,0,0,0,,,,,2,,,,,,,68,96
19872,note_on,0,0,0,,,,,3,,,,,,,40,96
19872,note_on,0,0,0,,,,,4,,,,,,,28,96
19872,note_on,0,0,0,,,,,5,,,,,,,76,96
19872,note_on,0,0,0,,,,,6,,,,,,,40,96
19882,note_off,10,0,0,,,,,5,,,,,,,76,0
19884,note_on,2,0,0,,,,,5,,,,,,,71,96
19889,note_off,5,0,0,,,,,5,,,,,,,71,0
19890,note_on,1,0,0,,,,,5,,,,,,,73,96
19893,note_off,3,0,0,,,,,0,,,,,,,76,0
19893,note_off,0,0,0,,,,,1,,,,,,,71,0
19893,note_off,0,0,0,,,,,2,,,,,,,68,0
19893,note_off,0,0,0,,,,,3,,,,,,,40,0
19893,note_off,0,0,0,,,,,4,,,,,,,28,0
19893,note_off,0,0,0,,,,,6,,,,,,,40,0
19895,note_off,2,0,0,,,,,5,,,,,,,73,0
19896,note_on,1,0,0,,,,,5,,,,,,,75,96
19896,note_on,0,0,0,,,,,6,,,,,,,47,96
19906,note_off,10,0,0,,,,,5,,,,,,,75,0
19908,note_on,2,0,0,,,,,5,,,,,,,76,96
19917,note_off,9,0,0,,,,,6,,,,,,,47,0
19918,note_off,1,0,0,,,,,5,,,,,,,76,0
19920,note_on,2,0,0,,,,,5,,,,,,,78,96
19920,note_on,0,0,0,,,,,6,,,,,,,52,96
19930,note_off,10,0,0,,,,,5,,,,,,,78,0
19932,note_on,2,0,0,,,,,5,,,,,,,80,96
19942,note_off,10,0,0,,,,,5,,,,,,,80,0
19944,note_on,2,0,0,,,,,5,,,,,,,69,96
19951,note_off,7,0,0,,,,,6,,,,,,,52,0
19954,note_off,3,0,0,,,,,5,,,,,,,69,0
19956,note_on,2,0,0,,,,,5,,,,,,,68,96
19956,note_on,0,0,0,,,,,6,,,,,,,56,96
19966,note_off,10,0,0,,,,,5,,,,,,,68,0
19966,note_off,0,0,0,,,,,6,,,,,,,56,0
19968,note_on,2,0,0,,,,,5,,,,,,,69,96
19968,note_on,0,0,0,,,,,6,,,,,,,54,96
19978,note_off,10,0,0,,,,,5,,,,,,,69,0
19978,note_off,0,0,0,,,,,6,,,,,,,54,0
19980,note_on,2,0,0,,,,,5,,,,,,,73,96
19980,note_on,0,0,0,,,,,6,,,,,,,52,96
19990,note_off,10,0,0,,,,,5,,,,,,,73,0
19990,note_off,0,0,0,,,,,6,,,,,,,52,0
19992,note_on,2,0,0,,,,,5,,,,,,,78,96
19992,note_on,0,0,0,,,,,6,,,,,,,51,96
20002,note_off,10,0,0,,,,,6,,,,,,,51,0
20004,note_on,2,0,0,,,,,6,,,,,,,49,96
20014,note_off,10,0,0,,,,,6,,,,,,,49,0
20016,note_on,2,0,0,,,,,6,,,,,,,51,96
20023,note_off,7,0,0,,,,,5,,,,,,,78,0
20026,note_off,3,0,0,,,,,6,,,,,,,51,0
20028,note_on,2,0,0,,,,,5,,,,,,,76,96
20028,note_on,0,0,0,,,,,6,,,,,,,54,96
20038,note_off,10,0,0,,,,,5,,,,,,,76,0
20038,note_off,0,0,0,,,,,6,,,,,,,54,0
20040,note_on,2,0,0,,,,,5,,,,,,,75,96
20040,note_on,0,0,0,,,,,6,,,,,,,59,96
20050,note_off,10,0,0,,,,,5,,,,,,,75,0
20052,note_on,2,0,0,,,,,5,,,,,,,73,96
20061,note_off,9,0,0,,,,,6,,,,,,,59,0
20062,note_off,1,0,0,,,,,5,,,,,,,73,0
20064,note_on,2,0,0,,,,,5,,,,,,,71,96
20064,note_on,0,0,0,,,,,6,,,,,,,47,96
20074,note_off,10,0,0,,,,,5,,,,,,,71,0
20076,note_on,2,0,0,,,,,5,,,,,,,69,96
20085,note_off,9,0,0,,,,,6,,,,,,,47,0
20086,note_off,1,0,0,,,,,5,,,,,,,69,0
20088,note_on,2,0,0,,,,,5,,,,,,,68,96
20088,note_on,0,0,0,,,,,6,,,,,,,52,96
20098,note_off,10,0,0,,,,,5,,,,,,,68,0
20100,note_on,2,0,0,,,,,5,,,,,,,66,96
20109,note_off,9,0,0,,,,,6,,,,,,,52,0
20110,note_off,1,0,0,,,,,5,,,,,,,66,0
20112,note_on,2,0,0,,,,,5,,,,,,,64,96
20112,note_on,0,0,0,,,,,6,,,,,,,44,96
20122,note_off,10,0,0,,,,,5,,,,,,,64,0
20124,note_on,2,0,0,,,,,5,,,,,,,66,96
20133,note_off,9,0,0,,,,,6,,,,,,,44,0
20134,note_off,1,0,0,,,,,5,,,,,,,66,0
20136,note_on,2,0,0,,,,,5,,,,,,,68,96
20136,note_on,0,0,0,,,,,6,,,,,,,47,96
20146,note_off,10,0,0,,,,,5,,,,,,,68,0
20148,note_on,2,0,0,,,,,5,,,,,,,69,96
20157,note_off,9,0,0,,,,,6,,,,,,,47,0
20158,note_off,1,0,0,,,,,5,,,,,,,69,0
20160,note_on,2,0,0,,,,,5,,,,,,,71,96
20160,note_on,0,0,0,,,,,6,,,,,,,40,96
20164,note_off,4,0,0,,,,,5,,,,,,,71,0
20164,note_on,0,0,0,,,,,5,,,,,,,73,96
20167,note_off,3,0,0,,,,,6,,,,,,,40,0
20168,note_off,1,0,0,,,,,5,,,,,,,73,0
20168,note_on,0,0,0,,,,,5,,,,,,,71,96
20168,note_on,0,0,0,,,,,6,,,,,,,44,96
20172,note_off,4,0,0,,,,,5,,,,,,,71,0
20172,note_on,0,0,0,,,,,5,,,,,,,73,96
20175,note_off,3,0,0,,,,,6,,,,,,,44,0
20176,note_off,1,0,0,,,,,5,,,,,,,73,0
20176,note_on,0,0,0,,,,,5,,,,,,,71,96
20176,note_on,0,0,0,,,,,6,,,,,,,47,96
20180,note_off,4,0,0,,,,,5,,,,,,,71,0
20180,note_on,0,0,0,,,,,5,,,,,,,73,96
20183,note_off,3,0,0,,,,,6,,,,,,,47,0
20184,note_on,1,0,0,,,,,0,,,,,,,64,96
20184,note_on,0,0,0,,,,,1,,,,,,,59,96
20184,note_on,0,0,0,,,,,2,,,,,,,56,96
20184,note_on,0,0,0,,,,,3,,,,,,,52,96
20184,note_on,0,0,0,,,,,4,,,,,,,40,96
20184,note_off,0,0,0,,,,,5,,,,,,,73,0
20184,note_on,0,0,0,,,,,5,,,,,,,71,96
20184,note_on,0,0,0,,,,,6,,,,,,,52,96
20188,note_off,4,0,0,,,,,5,,,,,,,71,0
20188,note_on,0,0,0,,,,,5,,,,,,,73,96
20191,note_off,3,0,0,,,,,6,,,,,,,52,0
20192,note_off,1,0,0,,,,,5,,,,,,,73,0
20192,note_on,0,0,0,,,,,5,,,,,,,71,96
20192,note_on,0,0,0,,,,,6,,,,,,,56,96
20196,note_off,4,0,0,,,,,5,,,,,,,71,0
20196,note_on,0,0,0,,,,,5,,,,,,,73,96
20199,note_off,3,0,0,,,,,6,,,,,,,56,0
20200,note_off,1,0,0,,,,,5,,,,,,,73,0
20200,note_on,0,0,0,,,,,5,,,,,,,71,96
20200,note_on,0,0,0,,,,,6,,,,,,,52,96
20204,note_off,4,0,0,,,,,5,,,,,,,71,0
20204,note_on,0,0,0,,,,,5,,,,,,,73,96
20205,note_off,1,0,0,,,,,0,,,,,,,64,0
20205,note_off,0,0,0,,,,,1,,,,,,,59,0
20205,note_off,0,0,0,,,,,2,,,,,,,56,0
20205,note_off,0,0,0,,,,,3,,,,,,,52,0
20205,note_off,0,0,0,,,,,4,,,,,,,40,0
20207,note_off,2,0,0,,,,,6,,,,,,,52,0
20208,note_on,1,0,0,,,,,0,,,,,,,68,96
20208,note_on,0,0,0,,,,,1,,,,,,,64,96
20208,note_on,0,0,0,,,,,2,,,,,,,59,96
20208,note_on,0,0,0,,,,,3,,,,,,,52,96
20208,note_on,0,0,0,,,,,4,,,,,,,40,96
20208,note_off,0,0,0,,,,,5,,,,,,,73,0
20208,note_on,0,0,0,,,,,5,,,,,,,71,96
20208,note_on,0,0,0,,,,,6,,,,,,,47,96
20212,note_off,4,0,0,,,,,5,,,,,,,71,0
20212,note_on,0,0,0,,,,,5,,,,,,,73,96
20215,note_off,3,0,0,,,,,6,,,,,,,47,0
20216,note_off,1,0,0,,,,,5,,,,,,,73,0
20216,note_on,0,0,0,,,,,5,,,,,,,71,96
20216,note_on,0,0,0,,,,,6,,,,,,,44,96
20220,note_off,4,0,0,,,,,5,,,,,,,71,0
20220,note_on,0,0,0,,,,,5,,,,,,,73,96
20223,note_off,3,0,0,,,,,6,,,,,,,44,0
20224,note_off,1,0,0,,,,,5,,,,,,,73,0
20224,note_on,0,0,0,,,,,5,,,,,,,71,96
20224,note_on,0,0,0,,,,,6,,,,,,,40,96
20228,note_off,4,0,0,,,,,5,,,,,,,71,0
20228,note_on,0,0,0,,,,,5,,,,,,,73,96
20229,note_off,1,0,0,,,,,0,,,,,,,68,0
20229,note_off,0,0,0,,,,,1,,,,,,,64,0
20229,note_off,0,0,0,,,,,2,,,,,,,59,0
20229,note_off,0,0,0,,,,,3,,,,,,,52,0
20229,note_off,0,0,0,,,,,4,,,,,,,40,0
20231,note_off,2,0,0,,,,,6,,,,,,,40,0
20232,note_on,1,0,0,,,,,0,,,,,,,71,96
20232,note_on,0,0,0,,,,,1,,,,,,,68,96
20232,note_on,0,0,0,,,,,2,,,,,,,64,96
20232,note_on,0,0,0,,,,,3,,,,,,,52,96
20232,note_on,0,0,0,,,,,4,,,,,,,40,96
20232,note_off,0,0,0,,,,,5,,,,,,,73,0
20232,note_on,0,0,0,,,,,5,,,,,,,71,96
20232,note_on,0,0,0,,,,,6,,,,,,,52,96
20236,note_off,4,0,0,,,,,5,,,,,,,71,0
20236,note_on,0,0,0,,,,,5,,,,,,,73,96
20240,note_off,4,0,0,,,,,5,,,,,,,73,0
20240,note_on,0,0,0,,,,,5,,,,,,,71,96
20244,note_off,4,0,0,,,,,5,,,,,,,71,0
20244,note_on,0,0,0,,,,,5,,,,,,,73,96
20248,note_off,4,0,0,,,,,5,,,,,,,73,0
20248,note_on,0,0,0,,,,,5,,,,,,,71,96
20252,note_off,4,0,0,,,,,5,,,,,,,71,0
20252,note_on,0,0,0,,,,,5,,,,,,,73,96
20253,note_off,1,0,0,,,,,0,,,,,,,71,0
20253,note_off,0,0,0,,,,,1,,,,,,,68,0
20253,note_off,0,0,0,,,,,2,,,,,,,64,0
20253,note_off,0,0,0,,,,,3,,,,,,,52,0
20253,note_off,0,0,0,,,,,4,,,,,,,40,0
20253,note_off,0,0,0,,,,,6,,,,,,,52,0
20256,note_on,3,0,0,,,,,0,,,,,,,64,96
20256,note_on,0,0,0,,,,,1,,,,,,,71,96
20256,note_on,0,0,0,,,,,2,,,,,,,68,96
20256,note_on,0,0,0,,,,,3,,,,,,,52,96
20256,note_on,0,0,0,,,,,4,,,,,,,40,96
20256,note_off,0,0,0,,,,,5,,,,,,,73,0
20256,note_on,0,0,0,,,,,5,,,,,,,71,96
20260,note_off,4,0,0,,,,,5,,,,,,,71,0
20260,note_on,0,0,0,,,,,5,,,,,,,73,96
20264,note_off,4,0,0,,,,,5,,,,,,,73,0
20264,note_on,0,0,0,,,,,5,,,,,,,71,96
20266,note_off,2,0,0,,,,,0,,,,,,,64,0
20268,note_on,2,0,0,,,,,0,,,,,,,66,96
20268,note_off,0,0,0,,,,,5,,,,,,,71,0
20268,note_on,0,0,0,,,,,5,,,,,,,73,96
20272,note_off,4,0,0,,,,,5,,,,,,,73,0
20272,note_on,0,0,0,,,,,5,,,,,,,71,96
20276,note_off,4,0,0,,,,,5,,,,,,,71,0
20276,note_on,0,0,0,,,,,5,,,,,,,73,96
20277,note_off,1,0,0,,,,,1,,,,,,,71,0
20277,note_off,0,0,0,,,,,2,,,,,,,68,0
20277,note_off,0,0,0,,,,,3,,,,,,,52,0
20277,note_off,0,0,0,,,,,4,,,,,,,40,0
20278,note_off,1,0,0,,,,,0,,,,,,,66,0
20280,note_on,2,0,0,,,,,0,,,,,,,68,96
20280,note_on,0,0,0,,,,,1,,,,,,,64,96
20280,note_on,0,0,0,,,,,2,,,,,,,71,96
20280,note_on,0,0,0,,,,,3,,,,,,,52,96
20280,note_on,0,0,0,,,,,4,,,,,,,40,96
20280,note_off,0,0,0,,,,,5,,,,,,,73,0
20280,note_on,0,0,0,,,,,5,,,,,,,71,96
20284,note_off,4,0,0,,,,,5,,,,,,,71,0
20284,note_on,0,0,0,,,,,5,,,,,,,73,96
20288,note_off,4,0,0,,,,,5,,,,,,,73,0
20288,note_on,0,0,0,,,,,5,,,,,,,71,96
20290,note_off,2,0,0,,,,,0,,,,,,,68,0
20290,note_off,0,0,0,,,,,1,,,,,,,64,0
20292,note_on,2,0,0,,,,,0,,,,,,,69,96
20292,note_on,0,0,0,,,,,1,,,,,,,66,96
20292,note_off,0,0,0,,,,,5,,,,,,,71,0
20292,note_on,0,0,0,,,,,5,,,,,,,73,96
20296,note_off,4,0,0,,,,,5,,,,,,,73,0
20296,note_on,0,0,0,,,,,5,,,,,,,71,96
20300,note_off,4,0,0,,,,,5,,,,,,,71,0
20300,note_on,0,0,0,,,,,5,,,,,,,73,96
20301,note_off,1,0,0,,,,,2,,,,,,,71,0
20301,note_off,0,0,0,,,,,3,,,,,,,52,0
20301,note_off,0,0,0,,,,,4,,,,,,,40,0
20302,note_off,1,0,0,,,,,0,,,,,,,69,0
20302,note_off,0,0,0,,,,,1,,,,,,,66,0
20304,note_on,2,0,0,,,,,0,,,,,,,71,96
20304,note_on,0,0,0,,,,,1,,,,,,,68,96
20304,note_on,0,0,0,,,,,2,,,,,,,64,96
20304,note_on,0,0,0,,,,,3,,,,,,,52,96
20304,note_on,0,0,0,,,,,4,,,,,,,40,96
20304,note_off,0,0,0,,,,,5,,,,,,,73,0
20304,note_on,0,0,0,,,,,5,,,,,,,71,96
20304,note_on,0,0,0,,,,,6,,,,,,,52,96
20308,note_off,4,0,0,,,,,5,,,,,,,71,0
20308,note_on,0,0,0,,,,,5,,,,,,,73,96
20311,note_off,3,0,0,,,,,6,,,,,,,52,0
20312,note_off,1,0,0,,,,,5,,,,,,,73,0
20312,note_on,0,0,0,,,,,5,,,,,,,71,96
20312,note_on,0,0,0,,,,,6,,,,,,,56,96
20314,note_off,2,0,0,,,,,1,,,,,,,68,0
20314,note_off,0,0,0,,,,,2,,,,,,,64,0
20316,note_on,2,0,0,,,,,1,,,,,,,69,96
20316,note_on,0,0,0,,,,,2,,,,,,,66,96
20316,note_off,0,0,0,,,,,5,,,,,,,71,0
20316,note_on,0,0,0,,,,,5,,,,,,,73,96
20319,note_off,3,0,0,,,,,6,,,,,,,56,0
20320,note_off,1,0,0,,,,,5,,,,,,,73,0
20320,note_on,0,0,0,,,,,5,,,,,,,71,96
20320,note_on,0,0,0,,,,,6,,,,,,,59,96
20324,note_off,4,0,0,,,,,5,,,,,,,71,0
20324,note_on,0,0,0,,,,,5,,,,,,,73,96
20325,note_off,1,0,0,,,,,0,,,,,,,71,0
20325,note_off,0,0,0,,,,,3,,,,,,,52,0
20325,note_off,0,0,0,,,,,4,,,,,,,40,0
20326,note_off,1,0,0,,,,,1,,,,,,,69,0
20326,note_off,0,0,0,,,,,2,,,,,,,66,0
20327,note_off,1,0,0,,,,,6,,,,,,,59,0
20328,note_on,1,0,0,,,,,0,,,,,,,76,96
20328,note_on,0,0,0,,,,,1,,,,,,,71,96
20328,note_on,0,0,0,,,,,2,,,,,,,68,96
20328,note_on,0,0,0,,,,,3,,,,,,,52,96
20328,note_on,0,0,0,,,,,4,,,,,,,40,96
20328,note_off,0,0,0,,,,,5,,,,,,,73,0
20328,note_on,0,0,0,,,,,5,,,,,,,71,96
20328,note_on,0,0,0,,,,,6,,,,,,,64,96
20332,note_off,4,0,0,,,,,5,,,,,,,71,0
20332,note_on,0,0,0,,,,,5,,,,,,,73,96
20335,note_off,3,0,0,,,,,6,,,,,,,64,0
20336,note_off,1,0,0,,,,,5,,,,,,,73,0
20336,note_on,0,0,0,,,,,5,,,,,,,71,96
20336,note_on,0,0,0,,,,,6,,,,,,,68,96
20338,note_off,2,0,0,,,,,2,,,,,,,68,0
20340,note_on,2,0,0,,,,,2,,,,,,,69,96
20340,note_off,0,0,0,,,,,5,,,,,,,71,0
20340,note_on,0,0,0,,,,,5,,,,,,,73,96
20343,note_off,3,0,0,,,,,6,,,,,,,68,0
20344,note_off,1,0,0,,,,,5,,,,,,,73,0
20344,note_on,0,0,0,,,,,5,,,,,,,71,96
20344,note_on,0,0,0,,,,,6,,,,,,,64,96
20348,note_off,4,0,0,,,,,5,,,,,,,71,0
20348,note_on,0,0,0,,,,,5,,,,,,,73,96
20349,note_off,1,0,0,,,,,0,,,,,,,76,0
20349,note_off,0,0,0,,,,,1,,,,,,,71,0
20349,note_off,0,0,0,,,,,3,,,,,,,52,0
20349,note_off,0,0,0,,,,,4,,,,,,,40,0
20350,note_off,1,0,0,,,,,2,,,,,,,69,0
20351,note_off,1,0,0,,,,,6,,,,,,,64,0
20352,note_on,1,0,0,,,,,0,,,,,,,80,96
20352,note_on,0,0,0,,,,,1,,,,,,,76,96
20352,note_on,0,0,0,,,,,2,,,,,,,71,96
20352,note_on,0,0,0,,,,,3,,,,,,,52,96
20352,note_on,0,0,0,,,,,4,,,,,,,40,96
20352,note_off,0,0,0,,,,,5,,,,,,,73,0
20352,note_on,0,0,0,,,,,5,,,,,,,71,96
20352,note_on,0,0,0,,,,,6,,,,,,,59,96
20359,note_off,7,0,0,,,,,6,,,,,,,59,0
20360,note_on,1,0,0,,,,,6,,,,,,,56,96
20367,note_off,7,0,0,,,,,6,,,,,,,56,0
20368,note_on,1,0,0,,,,,6,,,,,,,52,96
20373,note_off,5,0,0,,,,,0,,,,,,,80,0
20373,note_off,0,0,0,,,,,1,,,,,,,76,0
20373,note_off,0,0,0,,,,,2,,,,,,,71,0
20373,note_off,0,0,0,,,,,3,,,,,,,52,0
20373,note_off,0,0,0,,,,,4,,,,,,,40,0
20375,note_off,2,0,0,,,,,6,,,,,,,52,0
20376,note_on,1,0,0,,,,,0,,,,,,,83,96
20376,note_on,0,0,0,,,,,1,,,,,,,80,96
20376,note_on,0,0,0,,,,,2,,,,,,,76,96
20376,note_on,0,0,0,,,,,3,,,,,,,52,96
20376,note_on,0,0,0,,,,,4,,,,,,,40,96
20376,note_on,0,0,0,,,,,6,,,,,,,64,96
20383,note_off,7,0,0,,,,,5,,,,,,,71,0
20388,note_on,5,0,0,,,,,5,,,,,,,83,96
20397,note_off,9,0,0,,,,,0,,,,,,,83,0
20397,note_off,0,0,0,,,,,1,,,,,,,80,0
20397,note_off,0,0,0,,,,,2,,,,,,,76,0
20397,note_off,0,0,0,,,,,3,,,,,,,52,0
20397,note_off,0,0,0,,,,,4,,,,,,,40,0
20397,note_off,0,0,0,,,,,6,,,,,,,64,0
20398,note_off,1,0,0,,,,,5,,,,,,,83,0
20400,note_on,2,0,0,,,,,0,,,,,,,81,96
20400,note_on,0,0,0,,,,,1,,,,,,,76,96
20400,note_on,0,0,0,,,,,2,,,,,,,64,96
20400,note_on,0,0,0,,,,,3,,,,,,,49,96
20400,note_on,0,0,0,,,,,4,,,,,,,37,96
20400,note_on,0,0,0,,,,,5,,,,,,,81,96
20400,note_on,0,0,0,,,,,6,,,,,,,61,96
20410,note_off,10,0,0,,,,,0,,,,,,,81,0
20410,note_off,0,0,0,,,,,5,,,,,,,81,0
20412,note_on,2,0,0,,,,,0,,,,,,,80,96
20412,note_on,0,0,0,,,,,5,,,,,,,80,96
20421,note_off,9,0,0,,,,,1,,,,,,,76,0
20421,note_off,0,0,0,,,,,2,,,,,,,64,0
20421,note_off,0,0,0,,,,,3,,,,,,,49,0
20421,note_off,0,0,0,,,,,4,,,,,,,37,0
20421,note_off,0,0,0,,,,,6,,,,,,,61,0
20422,note_off,1,0,0,,,,,0,,,,,,,80,0
20422,note_off,0,0,0,,,,,5,,,,,,,80,0
20424,note_on,2,0,0,,,,,0,,,,,,,78,96
20424,note_on,0,0,0,,,,,1,,,,,,,73,96
20424,note_on,0,0,0,,,,,2,,,,,,,69,96
20424,note_on,0,0,0,,,,,3,,,,,,,45,96
20424,note_on,0,0,0,,,,,4,,,,,,,33,96
20424,note_on,0,0,0,,,,,5,,,,,,,78,96
20424,note_on,0,0,0,,,,,6,,,,,,,57,96
20434,note_off,10,0,0,,,,,0,,,,,,,78,0
20434,note_off,0,0,0,,,,,5,,,,,,,78,0
20436,note_on,2,0,0,,,,,0,,,,,,,76,96
20436,note_on,0,0,0,,,,,5,,,,,,,76,96
20445,note_off,9,0,0,,,,,1,,,,,,,73,0
20445,note_off,0,0,0,,,,,2,,,,,,,69,0
20445,note_off,0,0,0,,,,,3,,,,,,,45,0
20445,note_off,0,0,0,,,,,4,,,,,,,33,0
20445,note_off,0,0,0,,,,,6,,,,,,,57,0
20446,note_off,1,0,0,,,,,0,,,,,,,76,0
20446,note_off,0,0,0,,,,,5,,,,,,,76,0
20448,note_on,2,0,0,,,,,0,,,,,,,75,80
20448,note_on,0,0,0,,,,,1,,,,,,,71,80
20448,note_on,0,0,0,,,,,2,,,,,,,66,80
20448,note_on,0,0,0,,,,,3,,,,,,,47,80
20448,note_on,0,0,0,,,,,4,,,,,,,35,80
20448,note_on,0,0,0,,,,,5,,,,,,,75,96
20448,note_on,0,0,0,,,,,6,,,,,,,59,96
20458,note_off,10,0,0,,,,,5,,,,,,,75,0
20460,note_on,2,0,0,,,,,5,,,,,,,71,96
20465,note_off,5,0,0,,,,,5,,,,,,,71,0
20466,note_on,1,0,0,,,,,5,,,,,,,73,96
20469,note_off,3,0,0,,,,,0,,,,,,,75,0
20469,note_off,0,0,0,,,,,1,,,,,,,71,0
20469,note_off,0,0,0,,,,,2,,,,,,,66,0
20469,note_off,0,0,0,,,,,3,,,,,,,47,0
20469,note_off,0,0,0,,,,,4,,,,,,,35,0
20469,note_off,0,0,0,,,,,6,,,,,,,59,0
20471,note_off,2,0,0,,,,,5,,,,,,,73,0
20472,note_on,1,0,0,,,,,3,,,,,,,47,80
20472,note_on,0,0,0,,,,,4,,,,,,,35,80
20472,note_on,0,0,0,,,,,5,,,,,,,75,96
20472,note_on,0,0,0,,,,,6,,,,,,,47,96
20482,note_off,10,0,0,,,,,5,,,,,,,75,0
20482,note_off,0,0,0,,,,,6,,,,,,,47,0
20484,note_on,2,0,0,,,,,5,,,,,,,76,96
20484,note_on,0,0,0,,,,,6,,,,,,,49,96
20493,note_off,9,0,0,,,,,3,,,,,,,47,0
20493,note_off,0,0,0,,,,,4,,,,,,,35,0
20494,note_off,1,0,0,,,,,5,,,,,,,76,0
20494,note_off,0,0,0,,,,,6,,,,,,,49,0
20496,note_on,2,0,0,,,,,3,,,,,,,47,80
20496,note_on,0,0,0,,,,,4,,,,,,,35,80
20496,note_on,0,0,0,,,,,5,,,,,,,78,96
20496,note_on,0,0,0,,,,,6,,,,,,,51,96
20506,note_off,10,0,0,,,,,5,,,,,,,78,0
20506,note_off,0,0,0,,,,,6,,,,,,,51,0
20508,note_on,2,0,0,,,,,5,,,,,,,80,96
20508,note_on,0,0,0,,,,,6,,,,,,,52,96
20517,note_off,9,0,0,,,,,3,,,,,,,47,0
20517,note_off,0,0,0,,,,,4,,,,,,,35,0
20518,note_off,1,0,0,,,,,5,,,,,,,80,0
20518,note_off,0,0,0,,,,,6,,,,,,,52,0
20520,note_on,2,0,0,,,,,0,,,,,,,78,80
20520,note_on,0,0,0,,,,,1,,,,,,,75,80
20520,note_on,0,0,0,,,,,2,,,,,,,71,80
20520,note_on,0,0,0,,,,,3,,,,,,,47,80
20520,note_on,0,0,0,,,,,4,,,,,,,35,80
20520,note_on,0,0,0,,,,,5,,,,,,,69,96
20520,note_on,0,0,0,,,,,6,,,,,,,54,96
20530,note_off,10,0,0,,,,,5,,,,,,,69,0
20530,note_off,0,0,0,,,,,6,,,,,,,54,0
20532,note_on,2,0,0,,,,,5,,,,,,,68,96
20532,note_on,0,0,0,,,,,6,,,,,,,52,96
20541,note_off,9,0,0,,,,,0,,,,,,,78,0
20541,note_off,0,0,0,,,,,1,,,,,,,75,0
20541,note_off,0,0,0,,,,,2,,,,,,,71,0
20541,note_off,0,0,0,,,,,3,,,,,,,47,0
20541,note_off,0,0,0,,,,,4,,,,,,,35,0
20542,note_off,1,0,0,,,,,5,,,,,,,68,0
20542,note_off,0,0,0,,,,,6,,,,,,,52,0
20544,note_on,2,0,0,,,,,3,,,,,,,47,80
20544,note_on,0,0,0,,,,,4,,,,,,,35,80
20544,note_on,0,0,0,,,,,5,,,,,,,69,96
20544,note_on,0,0,0,,,,,6,,,,,,,54,96
20554,note_off,10,0,0,,,,,5,,,,,,,69,0
20554,note_off,0,0,0,,,,,6,,,,,,,54,0
20556,note_on,2,0,0,,,,,5,,,,,,,75,96
20556,note_on,0,0,0,,,,,6,,,,,,,56,96
20565,note_off,9,0,0,,,,,3,,,,,,,47,0
20565,note_off,0,0,0,,,,,4,,,,,,,35,0
20566,note_off,1,0,0,,,,,5,,,,,,,75,0
20566,note_off,0,0,0,,,,,6,,,,,,,56,0
20568,note_on,2,0,0,,,,,3,,,,,,,47,80
20568,note_on,0,0,0,,,,,4,,,,,,,35,80
20568,note_on,0,0,0,,,,,5,,,,,,,78,96
20568,note_on,0,0,0,,,,,6,,,,,,,57,96
20578,note_off,10,0,0,,,,,6,,,,,,,57,0
20580,note_on,2,0,0,,,,,6,,,,,,,54,96
20589,note_off,9,0,0,,,,,3,,,,,,,47,0
20589,note_off,0,0,0,,,,,4,,,,,,,35,0
20590,note_off,1,0,0,,,,,6,,,,,,,54,0
20592,note_on,2,0,0,,,,,0,,,,,,,81,80
20592,note_on,0,0,0,,,,,1,,,,,,,78,80
20592,note_on,0,0,0,,,,,2,,,,,,,63,80
20592,note_on,0,0,0,,,,,3,,,,,,,47,80
20592,note_on,0,0,0,,,,,4,,,,,,,35,80
20592,note_on,0,0,0,,,,,6,,,,,,,59,96
20599,note_off,7,0,0,,,,,5,,,,,,,78,0
20602,note_off,3,0,0,,,,,6,,,,,,,59,0
20604,note_on,2,0,0,,,,,5,,,,,,,76,96
20604,note_on,0,0,0,,,,,6,,,,,,,58,96
20613,note_off,9,0,0,,,,,0,,,,,,,81,0
20613,note_off,0,0,0,,,,,1,,,,,,,78,0
20613,note_off,0,0,0,,,,,2,,,,,,,63,0
20613,note_off,0,0,0,,,,,3,,,,,,,47,0
20613,note_off,0,0,0,,,,,4,,,,,,,35,0
20614,note_off,1,0,0,,,,,5,,,,,,,76,0
20614,note_off,0,0,0,,,,,6,,,,,,,58,0
20616,note_on,2,0,0,,,,,3,,,,,,,47,80
20616,note_on,0,0,0,,,,,4,,,,,,,35,80
20616,note_on,0,0,0,,,,,5,,,,,,,75,96
20616,note_on,0,0,0,,,,,6,,,,,,,59,96
20626,note_off,10,0,0,,,,,5,,,,,,,75,0
20626,note_off,0,0,0,,,,,6,,,,,,,59,0
20628,note_on,2,0,0,,,,,5,,,,,,,73,96
20628,note_on,0,0,0,,,,,6,,,,,,,61,96
20637,note_off,9,0,0,,,,,3,,,,,,,47,0
20637,note_off,0,0,0,,,,,4,,,,,,,35,0
20638,note_off,1,0,0,,,,,5,,,,,,,73,0
20638,note_off,0,0,0,,,,,6,,,,,,,61,0
20640,note_on,2,0,0,,,,,3,,,,,,,47,80
20640,note_on,0,0,0,,,,,4,,,,,,,35,80
20640,note_on,0,0,0,,,,,5,,,,,,,71,96
20640,note_on,0,0,0,,,,,6,,,,,,,63,96
20650,note_off,10,0,0,,,,,5,,,,,,,71,0
20650,note_off,0,0,0,,,,,6,,,,,,,63,0
20652,note_on,2,0,0,,,,,5,,,,,,,69,96
20652,note_on,0,0,0,,,,,6,,,,,,,59,96
20661,note_off,9,0,0,,,,,3,,,,,,,47,0
20661,note_off,0,0,0,,,,,4,,,,,,,35,0
20662,note_off,1,0,0,,,,,5,,,,,,,69,0
20662,note_off,0,0,0,,,,,6,,,,,,,59,0
20664,note_on,2,0,0,,,,,2,,,,,,,59,80
20664,note_on,0,0,0,,,,,3,,,,,,,40,80
20664,note_on,0,0,0,,,,,4,,,,,,,28,80
20664,note_on,0,0,0,,,,,5,,,,,,,68,96
20664,note_on,0,0,0,,,,,6,,,,,,,64,96
20671,note_off,7,0,0,,,,,5,,,,,,,68,0
20672,note_on,1,0,0,,,,,5,,,,,,,64,96
20679,note_off,7,0,0,,,,,5,,,,,,,64,0
20680,note_on,1,0,0,,,,,5,,,,,,,66,96
20685,note_off,5,0,0,,,,,2,,,,,,,59,0
20685,note_off,0,0,0,,,,,3,,,,,,,40,0
20685,note_off,0,0,0,,,,,4,,,,,,,28,0
20685,note_off,0,0,0,,,,,6,,,,,,,64,0
20687,note_off,2,0,0,,,,,5,,,,,,,66,0
20688,note_on,1,0,0,,,,,0,,,,,,,71,80
20688,note_on,0,0,0,,,,,1,,,,,,,68,80
20688,note_on,0,0,0,,,,,5,,,,,,,68,96
20688,note_on,0,0,0,,,,,6,,,,,,,52,96
20695,note_off,7,0,0,,,,,5,,,,,,,68,0
20696,note_on,1,0,0,,,,,5,,,,,,,69,96
20700,note_off,4,0,0,,,,,0,,,,,,,71,0
20700,note_on,0,0,0,,,,,0,,,,,,,69,80
20700,note_off,0,0,0,,,,,1,,,,,,,68,0
20700,note_on,0,0,0,,,,,1,,,,,,,66,80
20703,note_off,3,0,0,,,,,5,,,,,,,69,0
20704,note_on,1,0,0,,,,,5,,,,,,,71,96
20709,note_off,5,0,0,,,,,6,,,,,,,52,0
20711,note_off,2,0,0,,,,,5,,,,,,,71,0
20712,note_off,1,0,0,,,,,0,,,,,,,69,0
20712,note_on,0,0,0,,,,,0,,,,,,,68,80
20712,note_off,0,0,0,,,,,1,,,,,,,66,0
20712,note_on,0,0,0,,,,,1,,,,,,,64,80
20712,note_on,0,0,0,,,,,5,,,,,,,73,96
20724,note_off,12,0,0,,,,,0,,,,,,,68,0
20724,note_on,0,0,0,,,,,0,,,,,,,66,80
20724,note_off,0,0,0,,,,,1,,,,,,,64,0
20724,note_on,0,0,0,,,,,1,,,,,,,63,80
20734,note_off,10,0,0,,,,,0,,,,,,,66,0
20734,note_off,0,0,0,,,,,1,,,,,,,63,0
20736,note_on,2,0,0,,,,,0,,,,,,,64,80
20736,note_on,0,0,0,,,,,1,,,,,,,61,80
20736,note_on,0,0,0,,,,,2,,,,,,,68,80
20736,note_on,0,0,0,,,,,3,,,,,,,52,80
20736,note_on,0,0,0,,,,,4,,,,,,,40,80
20736,note_on,0,0,0,,,,,6,,,,,,,52,96
20743,note_off,7,0,0,,,,,5,,,,,,,73,0
20748,note_on,5,0,0,,,,,5,,,,,,,75,96
20757,note_off,9,0,0,,,,,0,,,,,,,64,0
20757,note_off,0,0,0,,,,,1,,,,,,,61,0
20757,note_off,0,0,0,,,,,2,,,,,,,68,0
20757,note_off,0,0,0,,,,,3,,,,,,,52,0
20757,note_off,0,0,0,,,,,4,,,,,,,40,0
20757,note_off,0,0,0,,,,,6,,,,,,,52,0
20758,note_off,1,0,0,,,,,5,,,,,,,75,0
20760,note_on,2,0,0,,,,,5,,,,,,,76,96
20760,note_on,0,0,0,,,,,6,,,,,,,49,96
20770,note_off,10,0,0,,,,,5,,,,,,,76,0
20772,note_on,2,0,0,,,,,5,,,,,,,73,96
20781,note_off,9,0,0,,,,,6,,,,,,,49,0
20782,note_off,1,0,0,,,,,5,,,,,,,73,0
20784,note_on,2,0,0,,,,,5,,,,,,,68,96
20784,note_on,0,0,0,,,,,6,,,,,,,52,96
20794,note_off,10,0,0,,,,,5,,,,,,,68,0
20796,note_on,2,0,0,,,,,5,,,,,,,71,96
20805,note_off,9,0,0,,,,,6,,,,,,,52,0
20806,note_off,1,0,0,,,,,5,,,,,,,71,0
20808,note_on,2,0,0,,,,,2,,,,,,,61,80
20808,note_on,0,0,0,,,,,3,,,,,,,54,80
20808,note_on,0,0,0,,,,,4,,,,,,,42,80
20808,note_on,0,0,0,,,,,5,,,,,,,70,96
20808,note_on,0,0,0,,,,,6,,,,,,,54,96
20815,note_off,7,0,0,,,,,5,,,,,,,70,0
20816,note_on,1,0,0,,,,,5,,,,,,,66,96
20823,note_off,7,0,0,,,,,5,,,,,,,66,0
20824,note_on,1,0,0,,,,,5,,,,,,,68,96
20829,note_off,5,0,0,,,,,2,,,,,,,61,0
20829,note_off,0,0,0,,,,,3,,,,,,,54,0
20829,note_off,0,0,0,,,,,4,,,,,,,42,0
20829,note_off,0,0,0,,,,,6,,,,,,,54,0
20831,note_off,2,0,0,,,,,5,,,,,,,68,0
20832,note_on,1,0,0,,,,,0,,,,,,,73,80
20832,note_on,0,0,0,,,,,1,,,,,,,70,80
20832,note_on,0,0,0,,,,,5,,,,,,,70,96
20832,note_on,0,0,0,,,,,6,,,,,,,42,96
20839,note_off,7,0,0,,,,,5,,,,,,,70,0
20840,note_on,1,0,0,,,,,5,,,,,,,71,96
20844,note_off,4,0,0,,,,,0,,,,,,,73,0
20844,note_on,0,0,0,,,,,0,,,,,,,71,80
20844,note_off,0,0,0,,,,,1,,,,,,,70,0
20844,note_on,0,0,0,,,,,1,,,,,,,68,80
20847,note_off,3,0,0,,,,,5,,,,,,,71,0
20848,note_on,1,0,0,,,,,5,,,,,,,73,96
20853,note_off,5,0,0,,,,,6,,,,,,,42,0
20855,note_off,2,0,0,,,,,5,,,,,,,73,0
20856,note_off,1,0,0,,,,,0,,,,,,,71,0
20856,note_on,0,0,0,,,,,0,,,,,,,70,80
20856,note_off,0,0,0,,,,,1,,,,,,,68,0
20856,note_on,0,0,0,,,,,1,,,,,,,66,80
20856,note_on,0,0,0,,,,,5,,,,,,,75,96
20868,note_off,12,0,0,,,,,0,,,,,,,70,0
20868,note_on,0,0,0,,,,,0,,,,,,,68,80
20868,note_off,0,0,0,,,,,1,,,,,,,66,0
20868,note_on,0,0,0,,,,,1,,,,,,,64,80
20878,note_off,10,0,0,,,,,0,,,,,,,68,0
20878,note_off,0,0,0,,,,,1,,,,,,,64,0
20880,note_on,2,0,0,,,,,0,,,,,,,66,80
20880,note_on,0,0,0,,,,,1,,,,,,,63,80
20880,note_on,0,0,0,,,,,2,,,,,,,70,80
20880,note_on,0,0,0,,,,,3,,,,,,,42,80
20880,note_on,0,0,0,,,,,4,,,,,,,30,80
20880,note_on,0,0,0,,,,,6,,,,,,,54,96
20887,note_off,7,0,0,,,,,5,,,,,,,75,0
20892,note_on,5,0,0,,,,,5,,,,,,,76,96
20901,note_off,9,0,0,,,,,0,,,,,,,66,0
20901,note_off,0,0,0,,,,,1,,,,,,,63,0
20901,note_off,0,0,0,,,,,2,,,,,,,70,0
20901,note_off,0,0,0,,,,,3,,,,,,,42,0
20901,note_off,0,0,0,,,,,4,,,,,,,30,0
20901,note_off,0,0,0,,,,,6,,,,,,,54,0
20902,note_off,1,0,0,,,,,5,,,,,,,76,0
20904,note_on,2,0,0,,,,,5,,,,,,,78,96
20904,note_on,0,0,0,,,,,6,,,,,,,51,96
20914,note_off,10,0,0,,,,,5,,,,,,,78,0
20916,note_on,2,0,0,,,,,5,,,,,,,75,96
20925,note_off,9,0,0,,,,,6,,,,,,,51,0
20926,note_off,1,0,0,,,,,5,,,,,,,75,0
20928,note_on,2,0,0,,,,,5,,,,,,,70,96
20928,note_on,0,0,0,,,,,6,,,,,,,54,96
20938,note_off,10,0,0,,,,,5,,,,,,,70,0
20940,note_on,2,0,0,,,,,5,,,,,,,73,96
20949,note_off,9,0,0,,,,,6,,,,,,,54,0
20950,note_off,1,0,0,,,,,5,,,,,,,73,0
20952,note_on,2,0,0,,,,,2,,,,,,,63,80
20952,note_on,0,0,0,,,,,3,,,,,,,44,80
20952,note_on,0,0,0,,,,,4,,,,,,,32,80
20952,note_on,0,0,0,,,,,5,,,,,,,71,96
20952,note_on,0,0,0,,,,,6,,,,,,,56,96
20959,note_off,7,0,0,,,,,5,,,,,,,71,0
20960,note_on,1,0,0,,,,,5,,,,,,,68,96
20967,note_off,7,0,0,,,,,5,,,,,,,68,0
20968,note_on,1,0,0,,,,,5,,,,,,,70,96
20973,note_off,5,0,0,,,,,2,,,,,,,63,0
20973,note_off,0,0,0,,,,,3,,,,,,,44,0
20973,note_off,0,0,0,,,,,4,,,,,,,32,0
20973,note_off,0,0,0,,,,,6,,,,,,,56,0
20975,note_off,2,0,0,,,,,5,,,,,,,70,0
20976,note_on,1,0,0,,,,,0,,,,,,,75,80
20976,note_on,0,0,0,,,,,1,,,,,,,71,80
20976,note_on,0,0,0,,,,,5,,,,,,,71,96
20976,note_on,0,0,0,,,,,6,,,,,,,44,96
20983,note_off,7,0,0,,,,,5,,,,,,,71,0
20984,note_on,1,0,0,,,,,5,,,,,,,73,96
20988,note_off,4,0,0,,,,,0,,,,,,,75,0
20988,note_on,0,0,0,,,,,0,,,,,,,73,80
20988,note_off,0,0,0,,,,,1,,,,,,,71,0
20988,note_on,0,0,0,,,,,1,,,,,,,69,80
20991,note_off,3,0,0,,,,,5,,,,,,,73,0
20992,note_on,1,0,0,,,,,5,,,,,,,75,96
20997,note_off,5,0,0,,,,,6,,,,,,,44,0
20999,note_off,2,0,0,,,,,5,,,,,,,75,0
21000,note_off,1,0,0,,,,,0,,,,,,,73,0
21000,note_on,0,0,0,,,,,0,,,,,,,71,80
21000,note_off,0,0,0,,,,,1,,,,,,,69,0
21000,note_on,0,0,0,,,,,1,,,,,,,68,80
21000,note_on,0,0,0,,,,,5,,,,,,,76,96
21012,note_off,12,0,0,,,,,0,,,,,,,71,0
21012,note_on,0,0,0,,,,,0,,,,,,,69,80
21012,note_off,0,0,0,,,,,1,,,,,,,68,0
21012,note_on,0,0,0,,,,,1,,,,,,,66,80
21022,note_off,10,0,0,,,,,0,,,,,,,69,0
21022,note_off,0,0,0,,,,,1,,,,,,,66,0
21024,note_on,2,0,0,,,,,0,,,,,,,68,80
21024,note_on,0,0,0,,,,,1,,,,,,,64,80
21024,note_on,0,0,0,,,,,2,,,,,,,71,80
21024,note_on,0,0,0,,,,,3,,,,,,,56,80
21024,note_on,0,0,0,,,,,4,,,,,,,44,80
21024,note_on,0,0,0,,,,,6,,,,,,,56,96
21031,note_off,7,0,0,,,,,5,,,,,,,76,0
21036,note_on,5,0,0,,,,,5,,,,,,,78,96
21045,note_off,9,0,0,,,,,0,,,,,,,68,0
21045,note_off,0,0,0,,,,,1,,,,,,,64,0
21045,note_off,0,0,0,,,,,2,,,,,,,71,0
21045,note_off,0,0,0,,,,,3,,,,,,,56,0
21045,note_off,0,0,0,,,,,4,,,,,,,44,0
21045,note_off,0,0,0,,,,,6,,,,,,,56,0
21046,note_off,1,0,0,,,,,5,,,,,,,78,0
21048,note_on,2,0,0,,,,,5,,,,,,,80,96
21048,note_on,0,0,0,,,,,6,,,,,,,52,96
21058,note_off,10,0,0,,,,,5,,,,,,,80,0
21060,note_on,2,0,0,,,,,5,,,,,,,76,96
21069,note_off,9,0,0,,,,,6,,,,,,,52,0
21070,note_off,1,0,0,,,,,5,,,,,,,76,0
21072,note_on,2,0,0,,,,,5,,,,,,,71,96
21072,note_on,0,0,0,,,,,6,,,,,,,56,96
21082,note_off,10,0,0,,,,,5,,,,,,,71,0
21084,note_on,2,0,0,,,,,5,,,,,,,75,96
21093,note_off,9,0,0,,,,,6,,,,,,,56,0
21094,note_off,1,0,0,,,,,5,,,,,,,75,0
21096,note_on,2,0,0,,,,,2,,,,,,,66,80
21096,note_on,0,0,0,,,,,3,,,,,,,58,80
21096,note_on,0,0,0,,,,,4,,,,,,,46,80
21096,note_on,0,0,0,,,,,5,,,,,,,73,96
21096,note_on,0,0,0,,,,,6,,,,,,,58,96
21103,note_off,7,0,0,,,,,5,,,,,,,73,0
21104,note_on,1,0,0,,,,,5,,,,,,,70,96
21111,note_off,7,0,0,,,,,5,,,,,,,70,0
21112,note_on,1,0,0,,,,,5,,,,,,,71,96
21117,note_off,5,0,0,,,,,2,,,,,,,66,0
21117,note_off,0,0,0,,,,,3,,,,,,,58,0
21117,note_off,0,0,0,,,,,4,,,,,,,46,0
21117,note_off,0,0,0,,,,,6,,,,,,,58,0
21119,note_off,2,0,0,,,,,5,,,,,,,71,0
21120,note_on,1,0,0,,,,,0,,,,,,,76,80
21120,note_on,0,0,0,,,,,1,,,,,,,73,80
21120,note_on,0,0,0,,,,,5,,,,,,,73,96
21120,note_on,0,0,0,,,,,6,,,,,,,46,96
21127,note_off,7,0,0,,,,,5,,,,,,,73,0
21128,note_on,1,0,0,,,,,5,,,,,,,75,96
21132,note_off,4,0,0,,,,,0,,,,,,,76,0
21132,note_on,0,0,0,,,,,0,,,,,,,75,80
21132,note_off,0,0,0,,,,,1,,,,,,,73,0
21132,note_on,0,0,0,,,,,1,,,,,,,71,80
21135,note_off,3,0,0,,,,,5,,,,,,,75,0
21136,note_on,1,0,0,,,,,5,,,,,,,76,96
21141,note_off,5,0,0,,,,,6,,,,,,,46,0
21143,note_off,2,0,0,,,,,5,,,,,,,76,0
21144,note_off,1,0,0,,,,,0,,,,,,,75,0
21144,note_on,0,0,0,,,,,0,,,,,,,73,80
21144,note_off,0,0,0,,,,,1,,,,,,,71,0
21144,note_on,0,0,0,,,,,1,,,,,,,70,80
21144,note_on,0,0,0,,,,,5,,,,,,,78,96
21156,note_off,12,0,0,,,,,0,,,,,,,73,0
21156,note_on,0,0,0,,,,,0,,,,,,,71,80
21156,note_off,0,0,0,,,,,1,,,,,,,70,0
21156,note_on,0,0,0,,,,,1,,,,,,,68,80
21166,note_off,10,0,0,,,,,0,,,,,,,71,0
21166,note_off,0,0,0,,,,,1,,,,,,,68,0
21168,note_on,2,0,0,,,,,0,,,,,,,70,80
21168,note_on,0,0,0,,,,,1,,,,,,,66,80
21168,note_on,0,0,0,,,,,2,,,,,,,73,80
21168,note_on,0,0,0,,,,,3,,,,,,,54,80
21168,note_on,0,0,0,,,,,4,,,,,,,42,80
21168,note_on,0,0,0,,,,,6,,,,,,,54,96
21175,note_off,7,0,0,,,,,5,,,,,,,78,0
21180,note_on,5,0,0,,,,,5,,,,,,,75,96
21189,note_off,9,0,0,,,,,0,,,,,,,70,0
21189,note_off,0,0,0,,,,,1,,,,,,,66,0
21189,note_off,0,0,0,,,,,2,,,,,,,73,0
21189,note_off,0,0,0,,,,,3,,,,,,,54,0
21189,note_off,0,0,0,,,,,4,,,,,,,42,0
21189,note_off,0,0,0,,,,,6,,,,,,,54,0
21190,note_off,1,0,0,,,,,5,,,,,,,75,0
21192,note_on,2,0,0,,,,,5,,,,,,,76,96
21192,note_on,0,0,0,,,,,6,,,,,,,56,96
21202,note_off,10,0,0,,,,,5,,,,,,,76,0
21204,note_on,2,0,0,,,,,5,,,,,,,80,96
21213,note_off,9,0,0,,,,,6,,,,,,,56,0
21214,note_off,1,0,0,,,,,5,,,,,,,80,0
21216,note_on,2,0,0,,,,,5,,,,,,,78,96
21216,note_on,0,0,0,,,,,6,,,,,,,58,96
21226,note_off,10,0,0,,,,,5,,,,,,,78,0
21228,note_on,2,0,0,,,,,5,,,,,,,76,96
21237,note_off,9,0,0,,,,,6,,,,,,,58,0
21238,note_off,1,0,0,,,,,5,,,,,,,76,0
21240,note_on,2,0,0,,,,,2,,,,,,,66,80
21240,note_on,0,0,0,,,,,3,,,,,,,59,80
21240,note_on,0,0,0,,,,,4,,,,,,,47,80
21240,note_on,0,0,0,,,,,5,,,,,,,75,96
21240,note_on,0,0,0,,,,,6,,,,,,,59,96
21250,note_off,10,0,0,,,,,5,,,,,,,75,0
21252,note_on,2,0,0,,,,,5,,,,,,,71,96
21261,note_off,9,0,0,,,,,2,,,,,,,66,0
21261,note_off,0,0,0,,,,,3,,,,,,,59,0
21261,note_off,0,0,0,,,,,4,,,,,,,47,0
21261,note_off,0,0,0,,,,,6,,,,,,,59,0
21262,note_off,1,0,0,,,,,5,,,,,,,71,0
21264,note_on,2,0,0,,,,,5,,,,,,,73,96
21264,note_on,0,0,0,,,,,6,,,,,,,58,96
21274,note_off,10,0,0,,,,,5,,,,,,,73,0
21276,note_on,2,0,0,,,,,5,,,,,,,76,96
21285,note_off,9,0,0,,,,,6,,,,,,,58,0
21286,note_off,1,0,0,,,,,5,,,,,,,76,0
21288,note_on,2,0,0,,,,,5,,,,,,,75,96
21288,note_on,0,0,0,,,,,6,,,,,,,55,96
21298,note_off,10,0,0,,,,,5,,,,,,,75,0
21300,note_on,2,0,0,,,,,5,,,,,,,73,96
21309,note_off,9,0,0,,,,,6,,,,,,,55,0
21310,note_off,1,0,0,,,,,5,,,,,,,73,0
21312,note_on,2,0,0,,,,,5,,,,,,,71,96
21312,note_on,0,0,0,,,,,6,,,,,,,56,96
21322,note_off,10,0,0,,,,,5,,,,,,,71,0
21324,note_on,2,0,0,,,,,5,,,,,,,68,96
21333,note_off,9,0,0,,,,,6,,,,,,,56,0
21334,note_off,1,0,0,,,,,5,,,,,,,68,0
21336,note_on,2,0,0,,,,,5,,,,,,,69,96
21336,note_on,0,0,0,,,,,6,,,,,,,49,96
21346,note_off,10,0,0,,,,,5,,,,,,,69,0
21348,note_on,2,0,0,,,,,5,,,,,,,73,96
21357,note_off,9,0,0,,,,,6,,,,,,,49,0
21358,note_off,1,0,0,,,,,5,,,,,,,73,0
21360,note_on,2,0,0,,,,,5,,,,,,,71,96
21360,note_on,0,0,0,,,,,6,,,,,,,51,96
21370,note_off,10,0,0,,,,,5,,,,,,,71,0
21372,note_on,2,0,0,,,,,5,,,,,,,69,96
21381,note_off,9,0,0,,,,,6,,,,,,,51,0
21382,note_off,1,0,0,,,,,5,,,,,,,69,0
21384,note_on,2,0,0,,,,,5,,,,,,,68,96
21384,note_on,0,0,0,,,,,6,,,,,,,52,96
21394,note_off,10,0,0,,,,,5,,,,,,,68,0
21396,note_on,2,0,0,,,,,5,,,,,,,70,96
21405,note_off,9,0,0,,,,,6,,,,,,,52,0
21406,note_off,1,0,0,,,,,5,,,,,,,70,0
21408,note_on,2,0,0,,,,,5,,,,,,,71,96
21408,note_on,0,0,0,,,,,6,,,,,,,56,96
21418,note_off,10,0,0,,,,,5,,,,,,,71,0
21420,note_on,2,0,0,,,,,5,,,,,,,73,96
21429,note_off,9,0,0,,,,,6,,,,,,,56,0
21430,note_off,1,0,0,,,,,5,,,,,,,73,0
21432,note_on,2,0,0,,,,,5,,,,,,,75,96
21432,note_on,0,0,0,,,,,6,,,,,,,59,96
21442,note_off,10,0,0,,,,,5,,,,,,,75,0
21444,note_on,2,0,0,,,,,5,,,,,,,76,96
21453,note_off,9,0,0,,,,,6,,,,,,,59,0
21454,note_off,1,0,0,,,,,5,,,,,,,76,0
21456,note_on,2,0,0,,,,,5,,,,,,,70,96
21456,note_on,0,0,0,,,,,6,,,,,,,64,96
21466,note_off,10,0,0,,,,,5,,,,,,,70,0
21468,note_on,2,0,0,,,,,5,,,,,,,66,96
21478,note_off,10,0,0,,,,,5,,,,,,,66,0
21480,note_on,2,0,0,,,,,5,,,,,,,70,96
21487,note_off,7,0,0,,,,,6,,,,,,,64,0
21490,note_off,3,0,0,,,,,5,,,,,,,70,0
21492,note_on,2,0,0,,,,,5,,,,,,,73,96
21492,note_on,0,0,0,,,,,6,,,,,,,52,96
21502,note_off,10,0,0,,,,,5,,,,,,,73,0
21502,note_off,0,0,0,,,,,6,,,,,,,52,0
21504,note_on,2,0,0,,,,,5,,,,,,,78,96
21504,note_on,0,0,0,,,,,6,,,,,,,51,96
21514,note_off,10,0,0,,,,,6,,,,,,,51,0
21516,note_on,2,0,0,,,,,6,,,,,,,49,96
21525,note_off,9,0,0,,,,,5,,,,,,,78,0
21526,note_off,1,0,0,,,,,6,,,,,,,49,0
21528,note_on,2,0,0,,,,,6,,,,,,,51,96
21540,note_on,12,0,0,,,,,5,,,,,,,71,96
21549,note_off,9,0,0,,,,,6,,,,,,,51,0
21550,note_off,1,0,0,,,,,5,,,,,,,71,0
21552,note_on,2,0,0,,,,,5,,,,,,,75,96
21552,note_on,0,0,0,,,,,6,,,,,,,52,96
21562,note_off,10,0,0,,,,,5,,,,,,,75,0
21564,note_on,2,0,0,,,,,5,,,,,,,73,96
21573,note_off,9,0,0,,,,,6,,,,,,,52,0
21574,note_off,1,0,0,,,,,5,,,,,,,73,0
21576,note_on,2,0,0,,,,,5,,,,,,,71,96
21576,note_on,0,0,0,,,,,6,,,,,,,54,96
21586,note_off,10,0,0,,,,,5,,,,,,,71,0
21588,note_on,2,0,0,,,,,5,,,,,,,70,96
21597,note_off,9,0,0,,,,,6,,,,,,,54,0
21598,note_off,1,0,0,,,,,5,,,,,,,70,0
21600,note_on,2,0,0,,,,,5,,,,,,,71,96
21600,note_on,0,0,0,,,,,6,,,,,,,47,96
21607,note_off,7,0,0,,,,,5,,,,,,,71,0
21608,note_on,1,0,0,,,,,5,,,,,,,66,96
21615,note_off,7,0,0,,,,,5,,,,,,,66,0
21616,note_on,1,0,0,,,,,5,,,,,,,63,96
21621,note_off,5,0,0,,,,,6,,,,,,,47,0
21623,note_off,2,0,0,,,,,5,,,,,,,63,0
21624,note_on,1,0,0,,,,,0,,,,,,,59,96
21624,note_on,0,0,0,,,,,1,,,,,,,66,96
21624,note_on,0,0,0,,,,,2,,,,,,,63,96
21624,note_on,0,0,0,,,,,3,,,,,,,47,96
21624,note_on,0,0,0,,,,,4,,,,,,,35,96
21624,note_on,0,0,0,,,,,6,,,,,,,59,96
21631,note_off,7,0,0,,,,,6,,,,,,,59,0
21632,note_on,1,0,0,,,,,6,,,,,,,54,96
21639,note_off,7,0,0,,,,,6,,,,,,,54,0
21640,note_on,1,0,0,,,,,6,,,,,,,51,96
21645,note_off,5,0,0,,,,,0,,,,,,,59,0
21645,note_off,0,0,0,,,,,1,,,,,,,66,0
21645,note_off,0,0,0,,,,,2,,,,,,,63,0
21645,note_off,0,0,0,,,,,3,,,,,,,47,0
21645,note_off,0,0,0,,,,,4,,,,,,,35,0
21647,note_off,2,0,0,,,,,6,,,,,,,51,0
21648,note_on,1,0,0,,,,,0,,,,,,,63,96
21648,note_on,0,0,0,,,,,1,,,,,,,59,96
21648,note_on,0,0,0,,,,,2,,,,,,,66,96
21648,note_on,0,0,0,,,,,3,,,,,,,47,96
21648,note_on,0,0,0,,,,,4,,,,,,,35,96
21648,note_on,0,0,0,,,,,6,,,,,,,47,96
21655,note_off,7,0,0,,,,,6,,,,,,,47,0
21656,note_on,1,0,0,,,,,6,,,,,,,42,96
21663,note_off,7,0,0,,,,,6,,,,,,,42,0
21664,note_on,1,0,0,,,,,6,,,,,,,39,96
21669,note_off,5,0,0,,,,,0,,,,,,,63,0
21669,note_off,0,0,0,,,,,1,,,,,,,59,0
21669,note_off,0,0,0,,,,,2,,,,,,,66,0
21669,note_off,0,0,0,,,,,3,,,,,,,47,0
21669,note_off,0,0,0,,,,,4,,,,,,,35,0
21671,note_off,2,0,0,,,,,6,,,,,,,39,0
21672,note_on,1,0,0,,,,,0,,,,,,,66,96
21672,note_on,0,0,0,,,,,1,,,,,,,63,96
21672,note_on,0,0,0,,,,,2,,,,,,,59,96
21672,note_on,0,0,0,,,,,3,,,,,,,47,96
21672,note_on,0,0,0,,,,,4,,,,,,,35,96
21672,note_on,0,0,0,,,,,6,,,,,,,35,96
21679,note_off,7,0,0,,,,,6,,,,,,,35,0
21680,note_on,1,0,0,,,,,6,,,,,,,39,96
21687,note_off,7,0,0,,,,,6,,,,,,,39,0
21688,note_on,1,0,0,,,,,6,,,,,,,42,96
21693,note_off,5,0,0,,,,,0,,,,,,,66,0
21693,note_off,0,0,0,,,,,1,,,,,,,63,0
21693,note_off,0,0,0,,,,,2,,,,,,,59,0
21693,note_off,0,0,0,,,,,3,,,,,,,47,0
21693,note_off,0,0,0,,,,,4,,,,,,,35,0
21695,note_off,2,0,0,,,,,6,,,,,,,42,0
21696,note_on,1,0,0,,,,,0,,,,,,,59,96
21696,note_on,0,0,0,,,,,1,,,,,,,66,96
21696,note_on,0,0,0,,,,,2,,,,,,,63,96
21696,note_on,0,0,0,,,,,3,,,,,,,47,96
21696,note_on,0,0,0,,,,,4,,,,,,,35,96
21696,note_on,0,0,0,,,,,6,,,,,,,47,96
21703,note_off,7,0,0,,,,,6,,,,,,,47,0
21704,note_on,1,0,0,,,,,6,,,,,,,51,96
21706,note_off,2,0,0,,,,,0,,,,,,,59,0
21708,note_on,2,0,0,,,,,0,,,,,,,61,96
21711,note_off,3,0,0,,,,,6,,,,,,,51,0
21712,note_on,1,0,0,,,,,6,,,,,,,54,96
21717,note_off,5,0,0,,,,,1,,,,,,,66,0
21717,note_off,0,0,0,,,,,2,,,,,,,63,0
21717,note_off,0,0,0,,,,,3,,,,,,,47,0
21717,note_off,0,0,0,,,,,4,,,,,,,35,0
21718,note_off,1,0,0,,,,,0,,,,,,,61,0
21719,note_off,1,0,0,,,,,6,,,,,,,54,0
21720,note_on,1,0,0,,,,,0,,,,,,,63,96
21720,note_on,0,0,0,,,,,1,,,,,,,59,96
21720,note_on,0,0,0,,,,,2,,,,,,,66,96
21720,note_on,0,0,0,,,,,3,,,,,,,47,96
21720,note_on,0,0,0,,,,,4,,,,,,,35,96
21720,note_on,0,0,0,,,,,5,,,,,,,59,96
21727,note_off,7,0,0,,,,,5,,,,,,,59,0
21728,note_on,1,0,0,,,,,5,,,,,,,63,96
21730,note_off,2,0,0,,,,,0,,,,,,,63,0
21730,note_off,0,0,0,,,,,1,,,,,,,59,0
21732,note_on,2,0,0,,,,,0,,,,,,,64,96
21732,note_on,0,0,0,,,,,1,,,,,,,61,96
21735,note_off,3,0,0,,,,,5,,,,,,,63,0
21736,note_on,1,0,0,,,,,5,,,,,,,66,96
21741,note_off,5,0,0,,,,,2,,,,,,,66,0
21741,note_off,0,0,0,,,,,3,,,,,,,47,0
21741,note_off,0,0,0,,,,,4,,,,,,,35,0
21742,note_off,1,0,0,,,,,0,,,,,,,64,0
21742,note_off,0,0,0,,,,,1,,,,,,,61,0
21743,note_off,1,0,0,,,,,5,,,,,,,66,0
21744,note_on,1,0,0,,,,,0,,,,,,,66,96
21744,note_on,0,0,0,,,,,1,,,,,,,63,96
21744,note_on,0,0,0,,,,,2,,,,,,,59,96
21744,note_on,0,0,0,,,,,3,,,,,,,47,96
21744,note_on,0,0,0,,,,,4,,,,,,,35,96
21744,note_on,0,0,0,,,,,5,,,,,,,71,96
21751,note_off,7,0,0,,,,,5,,,,,,,71,0
21752,note_on,1,0,0,,,,,5,,,,,,,66,96
21754,note_off,2,0,0,,,,,1,,,,,,,63,0
21754,note_off,0,0,0,,,,,2,,,,,,,59,0
21756,note_on,2,0,0,,,,,1,,,,,,,64,96
21756,note_on,0,0,0,,,,,2,,,,,,,61,96
21759,note_off,3,0,0,,,,,5,,,,,,,66,0
21760,note_on,1,0,0,,,,,5,,,,,,,70,96
21765,note_off,5,0,0,,,,,0,,,,,,,66,0
21765,note_off,0,0,0,,,,,3,,,,,,,47,0
21765,note_off,0,0,0,,,,,4,,,,,,,35,0
21766,note_off,1,0,0,,,,,1,,,,,,,64,0
21766,note_off,0,0,0,,,,,2,,,,,,,61,0
21767,note_off,1,0,0,,,,,5,,,,,,,70,0
21768,note_on,1,0,0,,,,,0,,,,,,,71,96
21768,note_on,0,0,0,,,,,1,,,,,,,66,96
21768,note_on,0,0,0,,,,,2,,,,,,,63,96
21768,note_on,0,0,0,,,,,3,,,,,,,47,96
21768,note_on,0,0,0,,,,,4,,,,,,,35,96
21768,note_on,0,0,0,,,,,5,,,,,,,71,96
21768,note_on,0,0,0,,,,,6,,,,,,,54,96
21768,note_on,0,0,0,,,,,6,,,,,,,51,96
21768,note_on,0,0,0,,,,,6,,,,,,,47,96
21775,note_off,7,0,0,,,,,5,,,,,,,71,0
21776,note_on,1,0,0,,,,,5,,,,,,,66,96
21778,note_off,2,0,0,,,,,2,,,,,,,63,0
21780,note_on,2,0,0,,,,,2,,,,,,,64,96
21783,note_off,3,0,0,,,,,5,,,,,,,66,0
21784,note_on,1,0,0,,,,,5,,,,,,,71,96
21789,note_off,5,0,0,,,,,0,,,,,,,71,0
21789,note_off,0,0,0,,,,,1,,,,,,,66,0
21789,note_off,0,0,0,,,,,3,,,,,,,47,0
21789,note_off,0,0,0,,,,,4,,,,,,,35,0
21789,note_off,0,0,0,,,,,6,,,,,,,54,0
21789,note_off,0,0,0,,,,,6,,,,,,,51,0
21789,note_off,0,0,0,,,,,6,,,,,,,47,0
21790,note_off,1,0,0,,,,,2,,,,,,,64,0
21791,note_off,1,0,0,,,,,5,,,,,,,71,0
21792,note_on,1,0,0,,,,,0,,,,,,,75,96
21792,note_on,0,0,0,,,,,1,,,,,,,71,96
21792,note_on,0,0,0,,,,,2,,,,,,,66,96
21792,note_on,0,0,0,,,,,3,,,,,,,47,96
21792,note_on,0,0,0,,,,,4,,,,,,,35,96
21792,note_on,0,0,0,,,,,5,,,,,,,75,96
21792,note_on,0,0,0,,,,,6,,,,,,,54,96
21792,note_on,0,0,0,,,,,6,,,,,,,51,96
21792,note_on,0,0,0,,,,,6,,,,,,,47,96
21799,note_off,7,0,0,,,,,5,,,,,,,75,0
21800,note_on,1,0,0,,,,,5,,,,,,,71,96
21807,note_off,7,0,0,,,,,5,,,,,,,71,0
21808,note_on,1,0,0,,,,,5,,,,,,,75,96
21813,note_off,5,0,0,,,,,0,,,,,,,75,0
21813,note_off,0,0,0,,,,,1,,,,,,,71,0
21813,note_off,0,0,0,,,,,2,,,,,,,66,0
21813,note_off,0,0,0,,,,,3,,,,,,,47,0
21813,note_off,0,0,0,,,,,4,,,,,,,35,0
21813,note_off,0,0,0,,,,,6,,,,,,,54,0
21813,note_off,0,0,0,,,,,6,,,,,,,51,0
21813,note_off,0,0,0,,,,,6,,,,,,,47,0
21815,note_off,2,0,0,,,,,5,,,,,,,75,0
21816,note_on,1,0,0,,,,,0,,,,,,,78,96
21816,note_on,0,0,0,,,,,1,,,,,,,75,96
21816,note_on,0,0,0,,,,,2,,,,,,,71,96
21816,note_on,0,0,0,,,,,3,,,,,,,47,96
21816,note_on,0,0,0,,,,,4,,,,,,,35,96
21816,note_on,0,0,0,,,,,5,,,,,,,78,96
21816,note_on,0,0,0,,,,,6,,,,,,,54,96
21816,note_on,0,0,0,,,,,6,,,,,,,51,96
21816,note_on,0,0,0,,,,,6,,,,,,,47,96
21837,note_off,21,0,0,,,,,0,,,,,,,78,0
21837,note_off,0,0,0,,,,,1,,,,,,,75,0
21837,note_off,0,0,0,,,,,2,,,,,,,71,0
21837,note_off,0,0,0,,,,,3,,,,,,,47,0
21837,note_off,0,0,0,,,,,4,,,,,,,35,0
21837,note_off,0,0,0,,,,,5,,,,,,,78,0
21837,note_off,0,0,0,,,,,6,,,,,,,54,0
21837,note_off,0,0,0,,,,,6,,,,,,,51,0
21837,note_off,0,0,0,,,,,6,,,,,,,47,0
21840,note_on,3,0,0,,,,,0,,,,,,,76,96
21840,note_on,0,0,0,,,,,1,,,,,,,71,96
21840,note_on,0,0,0,,,,,2,,,,,,,59,96
21840,note_on,0,0,0,,,,,3,,,,,,,56,96
21840,note_on,0,0,0,,,,,4,,,,,,,44,96
21840,note_on,0,0,0,,,,,5,,,,,,,76,96
21840,note_on,0,0,0,,,,,6,,,,,,,56,96
21850,note_off,10,0,0,,,,,0,,,,,,,76,0
21850,note_off,0,0,0,,,,,5,,,,,,,76,0
21852,note_on,2,0,0,,,,,0,,,,,,,75,96
21852,note_on,0,0,0,,,,,5,,,,,,,75,96
21861,note_off,9,0,0,,,,,1,,,,,,,71,0
21861,note_off,0,0,0,,,,,2,,,,,,,59,0
21861,note_off,0,0,0,,,,,3,,,,,,,56,0
21861,note_off,0,0,0,,,,,4,,,,,,,44,0
21861,note_off,0,0,0,,,,,6,,,,,,,56,0
21862,note_off,1,0,0,,,,,0,,,,,,,75,0
21862,note_off,0,0,0,,,,,5,,,,,,,75,0
21864,note_on,2,0,0,,,,,0,,,,,,,73,96
21864,note_on,0,0,0,,,,,1,,,,,,,68,96
21864,note_on,0,0,0,,,,,2,,,,,,,64,96
21864,note_on,0,0,0,,,,,3,,,,,,,52,96
21864,note_on,0,0,0,,,,,4,,,,,,,40,96
21864,note_on,0,0,0,,,,,5,,,,,,,73,96
21864,note_on,0,0,0,,,,,6,,,,,,,52,96
21874,note_off,10,0,0,,,,,0,,,,,,,73,0
21874,note_off,0,0,0,,,,,5,,,,,,,73,0
21876,note_on,2,0,0,,,,,0,,,,,,,71,96
21876,note_on,0,0,0,,,,,5,,,,,,,71,96
21885,note_off,9,0,0,,,,,1,,,,,,,68,0
21885,note_off,0,0,0,,,,,2,,,,,,,64,0
21885,note_off,0,0,0,,,,,3,,,,,,,52,0
21885,note_off,0,0,0,,,,,4,,,,,,,40,0
21885,note_off,0,0,0,,,,,6,,,,,,,52,0
21886,note_off,1,0,0,,,,,0,,,,,,,71,0
21886,note_off,0,0,0,,,,,5,,,,,,,71,0
21888,note_on,2,0,0,,,,,0,,,,,,,70,96
21888,note_on,0,0,0,,,,,1,,,,,,,66,96
21888,note_on,0,0,0,,,,,2,,,,,,,61,96
21888,note_on,0,0,0,,,,,3,,,,,,,42,96
21888,note_on,0,0,0,,,,,4,,,,,,,30,96
21888,note_on,0,0,0,,,,,5,,,,,,,70,96
21888,note_on,0,0,0,,,,,6,,,,,,,54,96
21898,note_off,10,0,0,,,,,0,,,,,,,70,0
21898,note_off,0,0,0,,,,,6,,,,,,,54,0
21900,note_on,2,0,0,,,,,0,,,,,,,66,96
21900,note_on,0,0,0,,,,,6,,,,,,,56,96
21909,note_off,9,0,0,,,,,1,,,,,,,66,0
21909,note_off,0,0,0,,,,,2,,,,,,,61,0
21909,note_off,0,0,0,,,,,3,,,,,,,42,0
21909,note_off,0,0,0,,,,,4,,,,,,,30,0
21909,note_off,0,0,0,,,,,5,,,,,,,70,0
21910,note_off,1,0,0,,,,,0,,,,,,,66,0
21910,note_off,0,0,0,,,,,6,,,,,,,56,0
21912,note_on,2,0,0,,,,,0,,,,,,,73,96
21912,note_on,0,0,0,,,,,3,,,,,,,46,96
21912,note_on,0,0,0,,,,,4,,,,,,,34,96
21912,note_on,0,0,0,,,,,5,,,,,,,78,96
21912,note_on,0,0,0,,,,,6,,,,,,,58,96
21922,note_off,10,0,0,,,,,5,,,,,,,78,0
21922,note_off,0,0,0,,,,,6,,,,,,,58,0
21924,note_on,2,0,0,,,,,5,,,,,,,80,96
21924,note_on,0,0,0,,,,,6,,,,,,,59,96
21933,note_off,9,0,0,,,,,0,,,,,,,73,0
21933,note_off,0,0,0,,,,,3,,,,,,,46,0
21933,note_off,0,0,0,,,,,4,,,,,,,34,0
21934,note_off,1,0,0,,,,,5,,,,,,,80,0
21934,note_off,0,0,0,,,,,6,,,,,,,59,0
21936,note_on,2,0,0,,,,,0,,,,,,,73,80
21936,note_on,0,0,0,,,,,3,,,,,,,49,96
21936,note_on,0,0,0,,,,,4,,,,,,,37,96
21936,note_on,0,0,0,,,,,5,,,,,,,82,96
21936,note_on,0,0,0,,,,,6,,,,,,,61,96
21946,note_off,10,0,0,,,,,5,,,,,,,82,0
21946,note_off,0,0,0,,,,,6,,,,,,,61,0
21948,note_on,2,0,0,,,,,5,,,,,,,78,96
21948,note_on,0,0,0,,,,,6,,,,,,,58,96
21957,note_off,9,0,0,,,,,0,,,,,,,73,0
21957,note_off,0,0,0,,,,,3,,,,,,,49,0
21957,note_off,0,0,0,,,,,4,,,,,,,37,0
21958,note_off,1,0,0,,,,,5,,,,,,,78,0
21958,note_off,0,0,0,,,,,6,,,,,,,58,0
21960,note_on,2,0,0,,,,,0,,,,,,,73,80
21960,note_on,0,0,0,,,,,1,,,,,,,70,80
21960,note_on,0,0,0,,,,,2,,,,,,,66,80
21960,note_on,0,0,0,,,,,3,,,,,,,54,80
21960,note_on,0,0,0,,,,,4,,,,,,,42,80
21960,note_on,0,0,0,,,,,5,,,,,,,75,96
21960,note_on,0,0,0,,,,,6,,,,,,,54,96
21970,note_off,10,0,0,,,,,6,,,,,,,54,0
21972,note_on,2,0,0,,,,,6,,,,,,,58,96
21981,note_off,9,0,0,,,,,0,,,,,,,73,0
21981,note_off,0,0,0,,,,,3,,,,,,,54,0
21981,note_off,0,0,0,,,,,4,,,,,,,42,0
21981,note_off,0,0,0,,,,,5,,,,,,,75,0
21982,note_off,1,0,0,,,,,6,,,,,,,58,0
21984,note_on,2,0,0,,,,,0,,,,,,,75,80
21984,note_on,0,0,0,,,,,3,,,,,,,52,80
21984,note_on,0,0,0,,,,,4,,,,,,,40,80
21984,note_on,0,0,0,,,,,5,,,,,,,75,96
21984,note_on,0,0,0,,,,,6,,,,,,,52,96
21994,note_off,10,0,0,,,,,0,,,,,,,75,0
21994,note_off,0,0,0,,,,,6,,,,,,,52,0
21996,note_on,2,0,0,,,,,0,,,,,,,76,80
21996,note_on,0,0,0,,,,,6,,,,,,,58,96
22005,note_off,9,0,0,,,,,3,,,,,,,52,0
22005,note_off,0,0,0,,,,,4,,,,,,,40,0
22005,note_off,0,0,0,,,,,5,,,,,,,75,0
22006,note_off,1,0,0,,,,,0,,,,,,,76,0
22006,note_off,0,0,0,,,,,6,,,,,,,58,0
22008,note_on,2,0,0,,,,,0,,,,,,,78,80
22008,note_on,0,0,0,,,,,3,,,,,,,51,80
22008,note_on,0,0,0,,,,,4,,,,,,,39,80
22008,note_on,0,0,0,,,,,5,,,,,,,75,96
22008,note_on,0,0,0,,,,,6,,,,,,,51,96
22018,note_off,10,0,0,,,,,0,,,,,,,78,0
22018,note_off,0,0,0,,,,,6,,,,,,,51,0
22020,note_on,2,0,0,,,,,0,,,,,,,75,80
22020,note_on,0,0,0,,,,,6,,,,,,,54,96
22023,note_off,3,0,0,,,,,1,,,,,,,70,0
22023,note_off,0,0,0,,,,,2,,,,,,,66,0
22029,note_off,6,0,0,,,,,3,,,,,,,51,0
22029,note_off,0,0,0,,,,,4,,,,,,,39,0
22029,note_off,0,0,0,,,,,5,,,,,,,75,0
22030,note_off,1,0,0,,,,,0,,,,,,,75,0
22030,note_off,0,0,0,,,,,6,,,,,,,54,0
22032,note_on,2,0,0,,,,,0,,,,,,,71,80
22032,note_on,0,0,0,,,,,1,,,,,,,68,80
22032,note_on,0,0,0,,,,,2,,,,,,,63,80
22032,note_on,0,0,0,,,,,3,,,,,,,44,80
22032,note_on,0,0,0,,,,,4,,,,,,,32,80
22032,note_on,0,0,0,,,,,5,,,,,,,75,96
22032,note_on,0,0,0,,,,,6,,,,,,,44,96
22040,note_off,8,0,0,,,,,0,,,,,,,71,0
22040,note_on,0,0,0,,,,,0,,,,,,,70,80
22042,note_off,2,0,0,,,,,6,,,,,,,44,0
22044,note_on,2,0,0,,,,,6,,,,,,,51,96
22048,note_off,4,0,0,,,,,0,,,,,,,70,0
22048,note_on,0,0,0,,,,,0,,,,,,,68,80
22053,note_off,5,0,0,,,,,1,,,,,,,68,0
22053,note_off,0,0,0,,,,,2,,,,,,,63,0
22053,note_off,0,0,0,,,,,3,,,,,,,44,0
22053,note_off,0,0,0,,,,,4,,,,,,,32,0
22053,note_off,0,0,0,,,,,5,,,,,,,75,0
22054,note_off,1,0,0,,,,,6,,,,,,,51,0
22055,note_off,1,0,0,,,,,0,,,,,,,68,0
22056,note_on,1,0,0,,,,,0,,,,,,,71,80
22056,note_on,0,0,0,,,,,3,,,,,,,56,80
22056,note_on,0,0,0,,,,,4,,,,,,,44,80
22056,note_on,0,0,0,,,,,5,,,,,,,76,96
22056,note_on,0,0,0,,,,,6,,,,,,,56,96
22066,note_off,10,0,0,,,,,5,,,,,,,76,0
22066,note_off,0,0,0,,,,,6,,,,,,,56,0
22068,note_on,2,0,0,,,,,5,,,,,,,78,96
22068,note_on,0,0,0,,,,,6,,,,,,,58,96
22077,note_off,9,0,0,,,,,0,,,,,,,71,0
22077,note_off,0,0,0,,,,,3,,,,,,,56,0
22077,note_off,0,0,0,,,,,4,,,,,,,44,0
22078,note_off,1,0,0,,,,,5,,,,,,,78,0
22078,note_off,0,0,0,,,,,6,,,,,,,58,0
22080,note_on,2,0,0,,,,,0,,,,,,,71,80
22080,note_on,0,0,0,,,,,3,,,,,,,54,80
22080,note_on,0,0,0,,,,,4,,,,,,,42,80
22080,note_on,0,0,0,,,,,5,,,,,,,80,96
22080,note_on,0,0,0,,,,,6,,,,,,,59,96
22090,note_off,10,0,0,,,,,5,,,,,,,80,0
22090,note_off,0,0,0,,,,,6,,,,,,,59,0
22092,note_on,2,0,0,,,,,5,,,,,,,76,96
22092,note_on,0,0,0,,,,,6,,,,,,,56,96
22101,note_off,9,0,0,,,,,0,,,,,,,71,0
22101,note_off,0,0,0,,,,,3,,,,,,,54,0
22101,note_off,0,0,0,,,,,4,,,,,,,42,0
22102,note_off,1,0,0,,,,,5,,,,,,,76,0
22102,note_off,0,0,0,,,,,6,,,,,,,56,0
22104,note_on,2,0,0,,,,,0,,,,,,,71,80
22104,note_on,0,0,0,,,,,1,,,,,,,68,80
22104,note_on,0,0,0,,,,,2,,,,,,,64,80
22104,note_on,0,0,0,,,,,3,,,,,,,52,80
22104,note_on,0,0,0,,,,,4,,,,,,,40,80
22104,note_on,0,0,0,,,,,5,,,,,,,73,96
22104,note_on,0,0,0,,,,,6,,,,,,,52,96
22114,note_off,10,0,0,,,,,6,,,,,,,52,0
22116,note_on,2,0,0,,,,,6,,,,,,,56,96
22125,note_off,9,0,0,,,,,0,,,,,,,71,0
22125,note_off,0,0,0,,,,,3,,,,,,,52,0
22125,note_off,0,0,0,,,,,4,,,,,,,40,0
22125,note_off,0,0,0,,,,,5,,,,,,,73,0
22126,note_off,1,0,0,,,,,6,,,,,,,56,0
22128,note_on,2,0,0,,,,,0,,,,,,,73,80
22128,note_on,0,0,0,,,,,3,,,,,,,51,80
22128,note_on,0,0,0,,,,,4,,,,,,,39,80
22128,note_on,0,0,0,,,,,5,,,,,,,73,96
22128,note_on,0,0,0,,,,,6,,,,,,,51,96
22138,note_off,10,0,0,,,,,0,,,,,,,73,0
22138,note_off,0,0,0,,,,,6,,,,,,,51,0
22140,note_on,2,0,0,,,,,0,,,,,,,75,80
22140,note_on,0,0,0,,,,,6,,,,,,,56,96
22149,note_off,9,0,0,,,,,3,,,,,,,51,0
22149,note_off,0,0,0,,,,,4,,,,,,,39,0
22149,note_off,0,0,0,,,,,5,,,,,,,73,0
22150,note_off,1,0,0,,,,,0,,,,,,,75,0
22150,note_off,0,0,0,,,,,6,,,,,,,56,0
22152,note_on,2,0,0,,,,,0,,,,,,,76,80
22152,note_on,0,0,0,,,,,3,,,,,,,49,80
22152,note_on,0,0,0,,,,,4,,,,,,,37,80
22152,note_on,0,0,0,,,,,5,,,,,,,73,96
22152,note_on,0,0,0,,,,,6,,,,,,,49,96
22162,note_off,10,0,0,,,,,0,,,,,,,76,0
22162,note_off,0,0,0,,,,,6,,,,,,,49,0
22164,note_on,2,0,0,,,,,0,,,,,,,73,80
22164,note_on,0,0,0,,,,,6,,,,,,,52,96
22167,note_off,3,0,0,,,,,1,,,,,,,68,0
22167,note_off,0,0,0,,,,,2,,,,,,,64,0
22173,note_off,6,0,0,,,,,3,,,,,,,49,0
22173,note_off,0,0,0,,,,,4,,,,,,,37,0
22173,note_off,0,0,0,,,,,5,,,,,,,73,0
22174,note_off,1,0,0,,,,,0,,,,,,,73,0
22174,note_off,0,0,0,,,,,6,,,,,,,52,0
22176,note_on,2,0,0,,,,,0,,,,,,,70,80
22176,note_on,0,0,0,,,,,1,,,,,,,66,80
22176,note_on,0,0,0,,,,,2,,,,,,,61,80
22176,note_on,0,0,0,,,,,3,,,,,,,42,80
22176,note_on,0,0,0,,,,,4,,,,,,,30,80
22176,note_on,0,0,0,,,,,5,,,,,,,73,96
22176,note_on,0,0,0,,,,,6,,,,,,,42,96
22186,note_off,10,0,0,,,,,5,,,,,,,73,0
22186,note_off,0,0,0,,,,,6,,,,,,,42,0
22188,note_on,2,0,0,,,,,5,,,,,,,71,96
22188,note_on,0,0,0,,,,,6,,,,,,,49,96
22197,note_off,9,0,0,,,,,0,,,,,,,70,0
22197,note_off,0,0,0,,,,,1,,,,,,,66,0
22197,note_off,0,0,0,,,,,2,,,,,,,61,0
22197,note_off,0,0,0,,,,,3,,,,,,,42,0
22197,note_off,0,0,0,,,,,4,,,,,,,30,0
22198,note_off,1,0,0,,,,,5,,,,,,,71,0
22198,note_off,0,0,0,,,,,6,,,,,,,49,0
22200,note_on,2,0,0,,,,,0,,,,,,,73,80
22200,note_on,0,0,0,,,,,3,,,,,,,54,80
22200,note_on,0,0,0,,,,,4,,,,,,,42,80
22200,note_on,0,0,0,,,,,5,,,,,,,70,96
22200,note_on,0,0,0,,,,,6,,,,,,,54,96
22210,note_off,10,0,0,,,,,5,,,,,,,70,0
22210,note_off,0,0,0,,,,,6,,,,,,,54,0
22212,note_on,2,0,0,,,,,5,,,,,,,71,96
22212,note_on,0,0,0,,,,,6,,,,,,,56,96
22221,note_off,9,0,0,,,,,0,,,,,,,73,0
22221,note_off,0,0,0,,,,,3,,,,,,,54,0
22221,note_off,0,0,0,,,,,4,,,,,,,42,0
22222,note_off,1,0,0,,,,,5,,,,,,,71,0
22222,note_off,0,0,0,,,,,6,,,,,,,56,0
22224,note_on,2,0,0,,,,,0,,,,,,,70,80
22224,note_on,0,0,0,,,,,3,,,,,,,54,80
22224,note_on,0,0,0,,,,,4,,,,,,,42,80
22224,note_on,0,0,0,,,,,5,,,,,,,73,96
22224,note_on,0,0,0,,,,,6,,,,,,,58,96
22234,note_off,10,0,0,,,,,5,,,,,,,73,0
22234,note_off,0,0,0,,,,,6,,,,,,,58,0
22236,note_on,2,0,0,,,,,5,,,,,,,75,96
22236,note_on,0,0,0,,,,,6,,,,,,,59,96
22245,note_off,9,0,0,,,,,0,,,,,,,70,0
22245,note_off,0,0,0,,,,,3,,,,,,,54,0
22245,note_off,0,0,0,,,,,4,,,,,,,42,0
22246,note_off,1,0,0,,,,,5,,,,,,,75,0
22246,note_off,0,0,0,,,,,6,,,,,,,59,0
22248,note_on,2,0,0,,,,,0,,,,,,,66,80
22248,note_on,0,0,0,,,,,1,,,,,,,73,80
22248,note_on,0,0,0,,,,,2,,,,,,,70,80
22248,note_on,0,0,0,,,,,3,,,,,,,54,80
22248,note_on,0,0,0,,,,,4,,,,,,,42,80
22248,note_on,0,0,0,,,,,5,,,,,,,76,96
22248,note_on,0,0,0,,,,,6,,,,,,,61,96
22252,note_off,4,0,0,,,,,5,,,,,,,76,0
22252,note_on,0,0,0,,,,,5,,,,,,,78,96
22256,note_off,4,0,0,,,,,5,,,,,,,78,0
22256,note_on,0,0,0,,,,,5,,,,,,,76,96
22258,note_off,2,0,0,,,,,6,,,,,,,61,0
22260,note_off,2,0,0,,,,,5,,,,,,,76,0
22260,note_on,0,0,0,,,,,5,,,,,,,78,96
22260,note_on,0,0,0,,,,,6,,,,,,,54,96
22264,note_off,4,0,0,,,,,5,,,,,,,78,0
22264,note_on,0,0,0,,,,,5,,,,,,,76,96
22268,note_off,4,0,0,,,,,5,,,,,,,76,0
22268,note_on,0,0,0,,,,,5,,,,,,,78,96
22269,note_off,1,0,0,,,,,0,,,,,,,66,0
22269,note_off,0,0,0,,,,,2,,,,,,,70,0
22269,note_off,0,0,0,,,,,3,,,,,,,54,0
22269,note_off,0,0,0,,,,,4,,,,,,,42,0
22270,note_off,1,0,0,,,,,6,,,,,,,54,0
22272,note_on,2,0,0,,,,,0,,,,,,,70,80
22272,note_on,0,0,0,,,,,2,,,,,,,61,80
22272,note_on,0,0,0,,,,,3,,,,,,,56,80
22272,note_on,0,0,0,,,,,4,,,,,,,44,80
22272,note_off,0,0,0,,,,,5,,,,,,,78,0
22272,note_on,0,0,0,,,,,5,,,,,,,76,96
22272,note_on,0,0,0,,,,,6,,,,,,,66,96
22276,note_off,4,0,0,,,,,5,,,,,,,76,0
22276,note_on,0,0,0,,,,,5,,,,,,,78,96
22280,note_off,4,0,0,,,,,5,,,,,,,78,0
22280,note_on,0,0,0,,,,,5,,,,,,,76,96
22282,note_off,2,0,0,,,,,0,,,,,,,70,0
22282,note_off,0,0,0,,,,,6,,,,,,,66,0
22284,note_on,2,0,0,,,,,0,,,,,,,68,80
22284,note_off,0,0,0,,,,,5,,,,,,,76,0
22284,note_on,0,0,0,,,,,5,,,,,,,78,96
22284,note_on,0,0,0,,,,,6,,,,,,,64,96
22288,note_off,4,0,0,,,,,5,,,,,,,78,0
22288,note_on,0,0,0,,,,,5,,,,,,,76,96
22292,note_off,4,0,0,,,,,5,,,,,,,76,0
22292,note_on,0,0,0,,,,,5,,,,,,,78,96
22293,note_off,1,0,0,,,,,2,,,,,,,61,0
22293,note_off,0,0,0,,,,,3,,,,,,,56,0
22293,note_off,0,0,0,,,,,4,,,,,,,44,0
22294,note_off,1,0,0,,,,,0,,,,,,,68,0
22294,note_off,0,0,0,,,,,6,,,,,,,64,0
22296,note_on,2,0,0,,,,,0,,,,,,,66,80
22296,note_on,0,0,0,,,,,2,,,,,,,66,80
22296,note_on,0,0,0,,,,,3,,,,,,,58,80
22296,note_on,0,0,0,,,,,4,,,,,,,46,80
22296,note_off,0,0,0,,,,,5,,,,,,,78,0
22296,note_on,0,0,0,,,,,5,,,,,,,76,96
22296,note_on,0,0,0,,,,,6,,,,,,,63,96
22300,note_off,4,0,0,,,,,5,,,,,,,76,0
22300,note_on,0,0,0,,,,,5,,,,,,,78,96
22304,note_off,4,0,0,,,,,5,,,,,,,78,0
22304,note_on,0,0,0,,,,,5,,,,,,,76,96
22306,note_off,2,0,0,,,,,0,,,,,,,66,0
22306,note_off,0,0,0,,,,,6,,,,,,,63,0
22308,note_on,2,0,0,,,,,0,,,,,,,64,80
22308,note_on,0,0,0,,,,,6,,,,,,,61,96
22317,note_off,9,0,0,,,,,2,,,,,,,66,0
22317,note_off,0,0,0,,,,,3,,,,,,,58,0
22317,note_off,0,0,0,,,,,4,,,,,,,46,0
22318,note_off,1,0,0,,,,,0,,,,,,,64,0
22318,note_off,0,0,0,,,,,5,,,,,,,76,0
22318,note_off,0,0,0,,,,,6,,,,,,,61,0
22320,note_on,2,0,0,,,,,0,,,,,,,63,80
22320,note_on,0,0,0,,,,,2,,,,,,,66,80
22320,note_on,0,0,0,,,,,3,,,,,,,59,80
22320,note_on,0,0,0,,,,,4,,,,,,,47,80
22320,note_on,0,0,0,,,,,6,,,,,,,59,96
22330,note_off,10,0,0,,,,,6,,,,,,,59,0
22332,note_off,2,0,0,,,,,1,,,,,,,73,0
22332,note_on,0,0,0,,,,,5,,,,,,,78,96
22332,note_on,0,0,0,,,,,6,,,,,,,58,96
22337,note_off,5,0,0,,,,,5,,,,,,,78,0
22338,note_on,1,0,0,,,,,5,,,,,,,76,96
22341,note_off,3,0,0,,,,,0,,,,,,,63,0
22341,note_off,0,0,0,,,,,3,,,,,,,59,0
22341,note_off,0,0,0,,,,,4,,,,,,,47,0
22342,note_off,1,0,0,,,,,6,,,,,,,58,0
22343,note_off,1,0,0,,,,,5,,,,,,,76,0
22344,note_on,1,0,0,,,,,0,,,,,,,78,80
22344,note_on,0,0,0,,,,,1,,,,,,,71,80
22344,note_on,0,0,0,,,,,3,,,,,,,47,80
22344,note_on,0,0,0,,,,,4,,,,,,,35,80
22344,note_on,0,0,0,,,,,5,,,,,,,75,96
22344,note_on,0,0,0,,,,,6,,,,,,,59,96
22354,note_off,10,0,0,,,,,5,,,,,,,75,0
22354,note_off,0,0,0,,,,,6,,,,,,,59,0
22356,note_on,2,0,0,,,,,5,,,,,,,76,96
22356,note_on,0,0,0,,,,,6,,,,,,,61,96
22362,note_off,6,0,0,,,,,2,,,,,,,66,0
22365,note_off,3,0,0,,,,,0,,,,,,,78,0
22365,note_off,0,0,0,,,,,1,,,,,,,71,0
22365,note_off,0,0,0,,,,,3,,,,,,,47,0
22365,note_off,0,0,0,,,,,4,,,,,,,35,0
22366,note_off,1,0,0,,,,,5,,,,,,,76,0
22366,note_off,0,0,0,,,,,6,,,,,,,61,0
22368,note_on,2,0,0,,,,,0,,,,,,,75,80
22368,note_on,0,0,0,,,,,3,,,,,,,47,80
22368,note_on,0,0,0,,,,,4,,,,,,,35,80
22368,note_on,0,0,0,,,,,5,,,,,,,78,96
22368,note_on,0,0,0,,,,,6,,,,,,,63,96
22378,note_off,10,0,0,,,,,5,,,,,,,78,0
22378,note_off,0,0,0,,,,,6,,,,,,,63,0
22380,note_on,2,0,0,,,,,5,,,,,,,80,96
22380,note_on,0,0,0,,,,,6,,,,,,,64,96
22389,note_off,9,0,0,,,,,0,,,,,,,75,0
22389,note_off,0,0,0,,,,,3,,,,,,,47,0
22389,note_off,0,0,0,,,,,4,,,,,,,35,0
22390,note_off,1,0,0,,,,,5,,,,,,,80,0
22390,note_off,0,0,0,,,,,6,,,,,,,64,0
22392,note_on,2,0,0,,,,,0,,,,,,,71,80
22392,note_on,0,0,0,,,,,1,,,,,,,78,80
22392,note_on,0,0,0,,,,,2,,,,,,,75,80
22392,note_on,0,0,0,,,,,3,,,,,,,47,80
22392,note_on,0,0,0,,,,,4,,,,,,,35,80
22392,note_on,0,0,0,,,,,5,,,,,,,81,96
22392,note_on,0,0,0,,,,,6,,,,,,,66,96
22396,note_off,4,0,0,,,,,5,,,,,,,81,0
22396,note_on,0,0,0,,,,,5,,,,,,,83,96
22400,note_off,4,0,0,,,,,5,,,,,,,83,0
22400,note_on,0,0,0,,,,,5,,,,,,,81,96
22402,note_off,2,0,0,,,,,6,,,,,,,66,0
22404,note_off,2,0,0,,,,,5,,,,,,,81,0
22404,note_on,0,0,0,,,,,5,,,,,,,83,96
22404,note_on,0,0,0,,,,,6,,,,,,,59,96
22408,note_off,4,0,0,,,,,5,,,,,,,83,0
22408,note_on,0,0,0,,,,,5,,,,,,,81,96
22412,note_off,4,0,0,,,,,5,,,,,,,81,0
22412,note_on,0,0,0,,,,,5,,,,,,,83,96
22413,note_off,1,0,0,,,,,0,,,,,,,71,0
22413,note_off,0,0,0,,,,,2,,,,,,,75,0
22413,note_off,0,0,0,,,,,3,,,,,,,47,0
22413,note_off,0,0,0,,,,,4,,,,,,,35,0
22414,note_off,1,0,0,,,,,6,,,,,,,59,0
22416,note_on,2,0,0,,,,,0,,,,,,,75,80
22416,note_on,0,0,0,,,,,2,,,,,,,66,80
22416,note_on,0,0,0,,,,,3,,,,,,,49,80
22416,note_on,0,0,0,,,,,4,,,,,,,37,80
22416,note_off,0,0,0,,,,,5,,,,,,,83,0
22416,note_on,0,0,0,,,,,5,,,,,,,81,96
22416,note_on,0,0,0,,,,,6,,,,,,,71,96
22420,note_off,4,0,0,,,,,5,,,,,,,81,0
22420,note_on,0,0,0,,,,,5,,,,,,,83,96
22424,note_off,4,0,0,,,,,5,,,,,,,83,0
22424,note_on,0,0,0,,,,,5,,,,,,,81,96
22426,note_off,2,0,0,,,,,0,,,,,,,75,0
22426,note_off,0,0,0,,,,,6,,,,,,,71,0
22428,note_on,2,0,0,,,,,0,,,,,,,73,80
22428,note_off,0,0,0,,,,,5,,,,,,,81,0
22428,note_on,0,0,0,,,,,5,,,,,,,83,96
22428,note_on,0,0,0,,,,,6,,,,,,,69,96
22432,note_off,4,0,0,,,,,5,,,,,,,83,0
22432,note_on,0,0,0,,,,,5,,,,,,,81,96
22436,note_off,4,0,0,,,,,5,,,,,,,81,0
22436,note_on,0,0,0,,,,,5,,,,,,,83,96
22437,note_off,1,0,0,,,,,2,,,,,,,66,0
22437,note_off,0,0,0,,,,,3,,,,,,,49,0
22437,note_off,0,0,0,,,,,4,,,,,,,37,0
22438,note_off,1,0,0,,,,,0,,,,,,,73,0
22438,note_off,0,0,0,,,,,6,,,,,,,69,0
22440,note_on,2,0,0,,,,,0,,,,,,,71,80
22440,note_on,0,0,0,,,,,2,,,,,,,71,80
22440,note_on,0,0,0,,,,,3,,,,,,,51,80
22440,note_on,0,0,0,,,,,4,,,,,,,39,80
22440,note_off,0,0,0,,,,,5,,,,,,,83,0
22440,note_on,0,0,0,,,,,5,,,,,,,81,96
22440,note_on,0,0,0,,,,,6,,,,,,,68,96
22444,note_off,4,0,0,,,,,5,,,,,,,81,0
22444,note_on,0,0,0,,,,,5,,,,,,,83,96
22448,note_off,4,0,0,,,,,5,,,,,,,83,0
22448,note_on,0,0,0,,,,,5,,,,,,,81,96
22450,note_off,2,0,0,,,,,0,,,,,,,71,0
22450,note_off,0,0,0,,,,,6,,,,,,,68,0
22452,note_on,2,0,0,,,,,0,,,,,,,69,80
22452,note_on,0,0,0,,,,,6,,,,,,,66,96
22461,note_off,9,0,0,,,,,2,,,,,,,71,0
22461,note_off,0,0,0,,,,,3,,,,,,,51,0
22461,note_off,0,0,0,,,,,4,,,,,,,39,0
22462,note_off,1,0,0,,,,,0,,,,,,,69,0
22462,note_off,0,0,0,,,,,5,,,,,,,81,0
22462,note_off,0,0,0,,,,,6,,,,,,,66,0
22464,note_on,2,0,0,,,,,0,,,,,,,68,80
22464,note_on,0,0,0,,,,,2,,,,,,,71,80
22464,note_on,0,0,0,,,,,3,,,,,,,40,80
22464,note_on,0,0,0,,,,,4,,,,,,,28,80
22464,note_on,0,0,0,,,,,6,,,,,,,64,96
22474,note_off,10,0,0,,,,,0,,,,,,,68,0
22476,note_on,2,0,0,,,,,0,,,,,,,71,80
22476,note_off,0,0,0,,,,,1,,,,,,,78,0
22485,note_off,9,0,0,,,,,2,,,,,,,71,0
22485,note_off,0,0,0,,,,,3,,,,,,,40,0
22485,note_off,0,0,0,,,,,4,,,,,,,28,0
22485,note_off,0,0,0,,,,,6,,,,,,,64,0
22486,note_off,1,0,0,,,,,0,,,,,,,71,0
22488,note_on,2,0,0,,,,,0,,,,,,,76,80
22488,note_on,0,0,0,,,,,1,,,,,,,76,80
22488,note_on,0,0,0,,,,,2,,,,,,,59,80
22488,note_on,0,0,0,,,,,3,,,,,,,52,80
22488,note_on,0,0,0,,,,,4,,,,,,,40,80
22488,note_on,0,0,0,,,,,5,,,,,,,80,96
22488,note_on,0,0,0,,,,,6,,,,,,,52,96
22498,note_off,10,0,0,,,,,0,,,,,,,76,0
22498,note_off,0,0,0,,,,,5,,,,,,,80,0
22500,note_on,2,0,0,,,,,0,,,,,,,75,80
22500,note_on,0,0,0,,,,,5,,,,,,,78,96
22509,note_off,9,0,0,,,,,1,,,,,,,76,0
22509,note_off,0,0,0,,,,,2,,,,,,,59,0
22509,note_off,0,0,0,,,,,3,,,,,,,52,0
22509,note_off,0,0,0,,,,,4,,,,,,,40,0
22509,note_off,0,0,0,,,,,6,,,,,,,52,0
22510,note_off,1,0,0,,,,,0,,,,,,,75,0
22510,note_off,0,0,0,,,,,5,,,,,,,78,0
22512,note_on,2,0,0,,,,,0,,,,,,,73,80
22512,note_on,0,0,0,,,,,1,,,,,,,80,80
22512,note_on,0,0,0,,,,,2,,,,,,,64,80
22512,note_on,0,0,0,,,,,3,,,,,,,52,80
22512,note_on,0,0,0,,,,,4,,,,,,,40,80
22512,note_on,0,0,0,,,,,5,,,,,,,80,96
22512,note_on,0,0,0,,,,,6,,,,,,,64,96
22522,note_off,10,0,0,,,,,0,,,,,,,73,0
22522,note_off,0,0,0,,,,,6,,,,,,,64,0
22524,note_on,2,0,0,,,,,0,,,,,,,76,80
22524,note_on,0,0,0,,,,,6,,,,,,,63,96
22533,note_off,9,0,0,,,,,1,,,,,,,80,0
22533,note_off,0,0,0,,,,,2,,,,,,,64,0
22533,note_off,0,0,0,,,,,3,,,,,,,52,0
22533,note_off,0,0,0,,,,,4,,,,,,,40,0
22533,note_off,0,0,0,,,,,5,,,,,,,80,0
22534,note_off,1,0,0,,,,,0,,,,,,,76,0
22534,note_off,0,0,0,,,,,6,,,,,,,63,0
22536,note_on,2,0,0,,,,,0,,,,,,,66,80
22536,note_on,0,0,0,,,,,1,,,,,,,70,80
22536,note_on,0,0,0,,,,,2,,,,,,,61,80
22536,note_on,0,0,0,,,,,3,,,,,,,52,80
22536,note_on,0,0,0,,,,,4,,,,,,,40,80
22536,note_on,0,0,0,,,,,6,,,,,,,64,96
22546,note_off,10,0,0,,,,,0,,,,,,,66,0
22548,note_on,2,0,0,,,,,0,,,,,,,70,80
22557,note_off,9,0,0,,,,,1,,,,,,,70,0
22557,note_off,0,0,0,,,,,2,,,,,,,61,0
22557,note_off,0,0,0,,,,,3,,,,,,,52,0
22557,note_off,0,0,0,,,,,4,,,,,,,40,0
22557,note_off,0,0,0,,,,,6,,,,,,,64,0
22558,note_off,1,0,0,,,,,0,,,,,,,70,0
22560,note_on,2,0,0,,,,,0,,,,,,,75,80
22560,note_on,0,0,0,,,,,1,,,,,,,71,80
22560,note_on,0,0,0,,,,,2,,,,,,,66,80
22560,note_on,0,0,0,,,,,3,,,,,,,51,80
22560,note_on,0,0,0,,,,,4,,,,,,,39,80
22560,note_on,0,0,0,,,,,5,,,,,,,78,96
22560,note_on,0,0,0,,,,,6,,,,,,,51,96
22570,note_off,10,0,0,,,,,0,,,,,,,75,0
22570,note_off,0,0,0,,,,,5,,,,,,,78,0
22572,note_on,2,0,0,,,,,0,,,,,,,73,80
22572,note_on,0,0,0,,,,,5,,,,,,,76,96
22581,note_off,9,0,0,,,,,1,,,,,,,71,0
22581,note_off,0,0,0,,,,,2,,,,,,,66,0
22581,note_off,0,0,0,,,,,3,,,,,,,51,0
22581,note_off,0,0,0,,,,,4,,,,,,,39,0
22581,note_off,0,0,0,,,,,6,,,,,,,51,0
22582,note_off,1,0,0,,,,,0,,,,,,,73,0
22582,note_off,0,0,0,,,,,5,,,,,,,76,0
22584,note_on,2,0,0,,,,,0,,,,,,,71,80
22584,note_on,0,0,0,,,,,1,,,,,,,75,80
22584,note_on,0,0,0,,,,,2,,,,,,,59,80
22584,note_on,0,0,0,,,,,3,,,,,,,51,80
22584,note_on,0,0,0,,,,,4,,,,,,,39,80
22584,note_on,0,0,0,,,,,5,,,,,,,78,96
22584,note_on,0,0,0,,,,,6,,,,,,,63,96
22594,note_off,10,0,0,,,,,0,,,,,,,71,0
22594,note_off,0,0,0,,,,,6,,,,,,,63,0
22596,note_on,2,0,0,,,,,0,,,,,,,75,80
22596,note_on,0,0,0,,,,,6,,,,,,,61,96
22605,note_off,9,0,0,,,,,1,,,,,,,75,0
22605,note_off,0,0,0,,,,,2,,,,,,,59,0
22605,note_off,0,0,0,,,,,3,,,,,,,51,0
22605,note_off,0,0,0,,,,,4,,,,,,,39,0
22605,note_off,0,0,0,,,,,5,,,,,,,78,0
22606,note_off,1,0,0,,,,,0,,,,,,,75,0
22606,note_off,0,0,0,,,,,6,,,,,,,61,0
22608,note_on,2,0,0,,,,,0,,,,,,,64,80
22608,note_on,0,0,0,,,,,1,,,,,,,68,80
22608,note_on,0,0,0,,,,,2,,,,,,,59,80
22608,note_on,0,0,0,,,,,3,,,,,,,51,80
22608,note_on,0,0,0,,,,,4,,,,,,,39,80
22608,note_on,0,0,0,,,,,6,,,,,,,63,96
22629,note_off,21,0,0,,,,,0,,,,,,,64,0
22629,note_off,0,0,0,,,,,1,,,,,,,68,0
22629,note_off,0,0,0,,,,,2,,,,,,,59,0
22629,note_off,0,0,0,,,,,3,,,,,,,51,0
22629,note_off,0,0,0,,,,,4,,,,,,,39,0
22629,note_off,0,0,0,,,,,6,,,,,,,63,0
22632,note_on,3,0,0,,,,,0,,,,,,,73,80
22632,note_on,0,0,0,,,,,1,,,,,,,68,80
22632,note_on,0,0,0,,,,,2,,,,,,,61,80
22632,note_on,0,0,0,,,,,3,,,,,,,49,80
22632,note_on,0,0,0,,,,,4,,,,,,,37,80
22632,note_on,0,0,0,,,,,5,,,,,,,76,96
22632,note_on,0,0,0,,,,,6,,,,,,,49,96
22642,note_off,10,0,0,,,,,3,,,,,,,49,0
22642,note_off,0,0,0,,,,,4,,,,,,,37,0
22642,note_off,0,0,0,,,,,5,,,,,,,76,0
22644,note_on,2,0,0,,,,,3,,,,,,,47,80
22644,note_on,0,0,0,,,,,4,,,,,,,35,80
22644,note_on,0,0,0,,,,,5,,,,,,,75,96
22653,note_off,9,0,0,,,,,0,,,,,,,73,0
22653,note_off,0,0,0,,,,,1,,,,,,,68,0
22653,note_off,0,0,0,,,,,2,,,,,,,61,0
22653,note_off,0,0,0,,,,,6,,,,,,,49,0
22654,note_off,1,0,0,,,,,3,,,,,,,47,0
22654,note_off,0,0,0,,,,,4,,,,,,,35,0
22654,note_off,0,0,0,,,,,5,,,,,,,75,0
22656,note_on,2,0,0,,,,,0,,,,,,,73,80
22656,note_on,0,0,0,,,,,1,,,,,,,68,80
22656,note_on,0,0,0,,,,,2,,,,,,,64,80
22656,note_on,0,0,0,,,,,3,,,,,,,49,80
22656,note_on,0,0,0,,,,,4,,,,,,,37,80
22656,note_on,0,0,0,,,,,5,,,,,,,73,96
22656,note_on,0,0,0,,,,,6,,,,,,,61,96
22666,note_off,10,0,0,,,,,3,,,,,,,49,0
22666,note_off,0,0,0,,,,,4,,,,,,,37,0
22666,note_off,0,0,0,,,,,5,,,,,,,73,0
22666,note_off,0,0,0,,,,,6,,,,,,,61,0
22668,note_on,2,0,0,,,,,3,,,,,,,51,80
22668,note_on,0,0,0,,,,,4,,,,,,,39,80
22668,note_on,0,0,0,,,,,5,,,,,,,71,96
22668,note_on,0,0,0,,,,,6,,,,,,,63,96
22677,note_off,9,0,0,,,,,0,,,,,,,73,0
22677,note_off,0,0,0,,,,,1,,,,,,,68,0
22677,note_off,0,0,0,,,,,2,,,,,,,64,0
22678,note_off,1,0,0,,,,,3,,,,,,,51,0
22678,note_off,0,0,0,,,,,4,,,,,,,39,0
22678,note_off,0,0,0,,,,,5,,,,,,,71,0
22678,note_off,0,0,0,,,,,6,,,,,,,63,0
22680,note_on,2,0,0,,,,,0,,,,,,,66,80
22680,note_on,0,0,0,,,,,1,,,,,,,73,80
22680,note_on,0,0,0,,,,,2,,,,,,,66,80
22680,note_on,0,0,0,,,,,3,,,,,,,52,80
22680,note_on,0,0,0,,,,,4,,,,,,,40,80
22680,note_on,0,0,0,,,,,5,,,,,,,70,96
22680,note_on,0,0,0,,,,,6,,,,,,,64,96
22690,note_off,10,0,0,,,,,0,,,,,,,66,0
22690,note_off,0,0,0,,,,,5,,,,,,,70,0
22690,note_off,0,0,0,,,,,6,,,,,,,64,0
22692,note_on,2,0,0,,,,,0,,,,,,,68,80
22692,note_on,0,0,0,,,,,5,,,,,,,71,96
22692,note_on,0,0,0,,,,,6,,,,,,,63,96
22701,note_off,9,0,0,,,,,1,,,,,,,73,0
22701,note_off,0,0,0,,,,,2,,,,,,,66,0
22701,note_off,0,0,0,,,,,3,,,,,,,52,0
22701,note_off,0,0,0,,,,,4,,,,,,,40,0
22702,note_off,1,0,0,,,,,0,,,,,,,68,0
22702,note_off,0,0,0,,,,,5,,,,,,,71,0
22702,note_off,0,0,0,,,,,6,,,,,,,63,0
22704,note_on,2,0,0,,,,,0,,,,,,,70,80
22704,note_on,0,0,0,,,,,1,,,,,,,73,80
22704,note_on,0,0,0,,,,,2,,,,,,,66,80
22704,note_on,0,0,0,,,,,3,,,,,,,52,80
22704,note_on,0,0,0,,,,,4,,,,,,,40,80
22704,note_on,0,0,0,,,,,5,,,,,,,73,96
22704,note_on,0,0,0,,,,,6,,,,,,,64,96
22714,note_off,10,0,0,,,,,0,,,,,,,70,0
22714,note_off,0,0,0,,,,,5,,,,,,,73,0
22716,note_on,2,0,0,,,,,0,,,,,,,71,80
22716,note_on,0,0,0,,,,,5,,,,,,,75,96
22725,note_off,9,0,0,,,,,1,,,,,,,73,0
22725,note_off,0,0,0,,,,,2,,,,,,,66,0
22725,note_off,0,0,0,,,,,3,,,,,,,52,0
22725,note_off,0,0,0,,,,,4,,,,,,,40,0
22725,note_off,0,0,0,,,,,6,,,,,,,64,0
22726,note_off,1,0,0,,,,,0,,,,,,,71,0
22726,note_off,0,0,0,,,,,5,,,,,,,75,0
22728,note_on,2,0,0,,,,,0,,,,,,,73,80
22728,note_on,0,0,0,,,,,1,,,,,,,73,80
22728,note_on,0,0,0,,,,,2,,,,,,,66,80
22728,note_on,0,0,0,,,,,3,,,,,,,52,80
22728,note_on,0,0,0,,,,,4,,,,,,,40,80
22728,note_on,0,0,0,,,,,5,,,,,,,76,96
22728,note_on,0,0,0,,,,,6,,,,,,,52,96
22738,note_off,10,0,0,,,,,0,,,,,,,73,0
22738,note_off,0,0,0,,,,,5,,,,,,,76,0
22740,note_on,2,0,0,,,,,0,,,,,,,75,80
22740,note_on,0,0,0,,,,,5,,,,,,,78,96
22749,note_off,9,0,0,,,,,1,,,,,,,73,0
22749,note_off,0,0,0,,,,,2,,,,,,,66,0
22749,note_off,0,0,0,,,,,3,,,,,,,52,0
22749,note_off,0,0,0,,,,,4,,,,,,,40,0
22750,note_off,1,0,0,,,,,0,,,,,,,75,0
22750,note_off,0,0,0,,,,,5,,,,,,,78,0
22752,note_on,2,0,0,,,,,0,,,,,,,76,80
22752,note_on,0,0,0,,,,,1,,,,,,,73,80
22752,note_on,0,0,0,,,,,2,,,,,,,64,80
22752,note_on,0,0,0,,,,,3,,,,,,,52,80
22752,note_on,0,0,0,,,,,4,,,,,,,40,80
22752,note_on,0,0,0,,,,,5,,,,,,,80,96
22760,note_off,8,0,0,,,,,0,,,,,,,76,0
22760,note_on,0,0,0,,,,,0,,,,,,,75,80
22762,note_off,2,0,0,,,,,5,,,,,,,80,0
22764,note_on,2,0,0,,,,,5,,,,,,,82,96
22768,note_off,4,0,0,,,,,0,,,,,,,75,0
22768,note_on,0,0,0,,,,,0,,,,,,,73,80
22770,note_off,2,0,0,,,,,6,,,,,,,52,0
22773,note_off,3,0,0,,,,,1,,,,,,,73,0
22773,note_off,0,0,0,,,,,2,,,,,,,64,0
22773,note_off,0,0,0,,,,,3,,,,,,,52,0
22773,note_off,0,0,0,,,,,4,,,,,,,40,0
22774,note_off,1,0,0,,,,,5,,,,,,,82,0
22775,note_off,1,0,0,,,,,0,,,,,,,73,0
22776,note_on,1,0,0,,,,,0,,,,,,,75,80
22776,note_on,0,0,0,,,,,1,,,,,,,71,80
22776,note_on,0,0,0,,,,,2,,,,,,,68,80
22776,note_on,0,0,0,,,,,3,,,,,,,40,80
22776,note_on,0,0,0,,,,,4,,,,,,,28,80
22776,note_on,0,0,0,,,,,5,,,,,,,83,96
22776,note_on,0,0,0,,,,,6,,,,,,,64,96
22784,note_off,8,0,0,,,,,0,,,,,,,75,0
22784,note_on,0,0,0,,,,,0,,,,,,,73,80
22784,note_off,0,0,0,,,,,5,,,,,,,83,0
22784,note_on,0,0,0,,,,,5,,,,,,,82,96
22786,note_off,2,0,0,,,,,6,,,,,,,64,0
22788,note_on,2,0,0,,,,,6,,,,,,,63,96
22792,note_off,4,0,0,,,,,0,,,,,,,73,0
22792,note_on,0,0,0,,,,,0,,,,,,,71,80
22792,note_off,0,0,0,,,,,5,,,,,,,82,0
22792,note_on,0,0,0,,,,,5,,,,,,,80,96
22797,note_off,5,0,0,,,,,1,,,,,,,71,0
22797,note_off,0,0,0,,,,,2,,,,,,,68,0
22797,note_off,0,0,0,,,,,3,,,,,,,40,0
22797,note_off,0,0,0,,,,,4,,,,,,,28,0
22798,note_off,1,0,0,,,,,6,,,,,,,63,0
22799,note_off,1,0,0,,,,,0,,,,,,,71,0
22799,note_off,0,0,0,,,,,5,,,,,,,80,0
22800,note_on,1,0,0,,,,,0,,,,,,,78,80
22800,note_on,0,0,0,,,,,1,,,,,,,73,80
22800,note_on,0,0,0,,,,,2,,,,,,,66,80
22800,note_on,0,0,0,,,,,3,,,,,,,52,80
22800,note_on,0,0,0,,,,,4,,,,,,,40,80
22800,note_on,0,0,0,,,,,5,,,,,,,82,96
22800,note_on,0,0,0,,,,,6,,,,,,,64,96
22808,note_off,8,0,0,,,,,5,,,,,,,82,0
22808,note_on,0,0,0,,,,,5,,,,,,,80,96
22816,note_off,8,0,0,,,,,5,,,,,,,80,0
22816,note_on,0,0,0,,,,,5,,,,,,,78,96
22821,note_off,5,0,0,,,,,0,,,,,,,78,0
22821,note_off,0,0,0,,,,,1,,,,,,,73,0
22821,note_off,0,0,0,,,,,2,,,,,,,66,0
22821,note_off,0,0,0,,,,,3,,,,,,,52,0
22821,note_off,0,0,0,,,,,4,,,,,,,40,0
22821,note_off,0,0,0,,,,,6,,,,,,,64,0
22823,note_off,2,0,0,,,,,5,,,,,,,78,0
22824,note_on,1,0,0,,,,,3,,,,,,,51,80
22824,note_on,0,0,0,,,,,4,,,,,,,39,80
22824,note_on,0,0,0,,,,,5,,,,,,,83,96
22824,note_on,0,0,0,,,,,6,,,,,,,63,96
22836,note_on,12,0,0,,,,,0,,,,,,,71,96
22836,note_on,0,0,0,,,,,1,,,,,,,66,96
22836,note_on,0,0,0,,,,,2,,,,,,,66,96
22845,note_off,9,0,0,,,,,3,,,,,,,51,0
22845,note_off,0,0,0,,,,,4,,,,,,,39,0
22845,note_off,0,0,0,,,,,5,,,,,,,83,0
22845,note_off,0,0,0,,,,,6,,,,,,,63,0
22846,note_off,1,0,0,,,,,0,,,,,,,71,0
22846,note_off,0,0,0,,,,,1,,,,,,,66,0
22846,note_off,0,0,0,,,,,2,,,,,,,66,0
22848,note_on,2,0,0,,,,,0,,,,,,,73,96
22848,note_on,0,0,0,,,,,1,,,,,,,68,96
22848,note_on,0,0,0,,,,,2,,,,,,,61,96
22848,note_on,0,0,0,,,,,3,,,,,,,52,96
22848,note_on,0,0,0,,,,,4,,,,,,,40,96
22848,note_on,0,0,0,,,,,5,,,,,,,78,96
22848,note_on,0,0,0,,,,,6,,,,,,,64,96
22858,note_off,10,0,0,,,,,5,,,,,,,78,0
22860,note_on,2,0,0,,,,,5,,,,,,,76,96
22869,note_off,9,0,0,,,,,0,,,,,,,73,0
22869,note_off,0,0,0,,,,,1,,,,,,,68,0
22869,note_off,0,0,0,,,,,2,,,,,,,61,0
22869,note_off,0,0,0,,,,,3,,,,,,,52,0
22869,note_off,0,0,0,,,,,4,,,,,,,40,0
22869,note_off,0,0,0,,,,,6,,,,,,,64,0
22870,note_off,1,0,0,,,,,5,,,,,,,76,0
22872,note_on,2,0,0,,,,,0,,,,,,,70,96
22872,note_on,0,0,0,,,,,1,,,,,,,66,96
22872,note_on,0,0,0,,,,,2,,,,,,,64,96
22872,note_on,0,0,0,,,,,3,,,,,,,54,96
22872,note_on,0,0,0,,,,,4,,,,,,,42,96
22872,note_on,0,0,0,,,,,5,,,,,,,75,96
22872,note_on,0,0,0,,,,,6,,,,,,,66,96
22882,note_off,10,0,0,,,,,5,,,,,,,75,0
22884,note_on,2,0,0,,,,,5,,,,,,,73,96
22893,note_off,9,0,0,,,,,0,,,,,,,70,0
22893,note_off,0,0,0,,,,,1,,,,,,,66,0
22893,note_off,0,0,0,,,,,2,,,,,,,64,0
22893,note_off,0,0,0,,,,,3,,,,,,,54,0
22893,note_off,0,0,0,,,,,4,,,,,,,42,0
22893,note_off,0,0,0,,,,,6,,,,,,,66,0
22894,note_off,1,0,0,,,,,5,,,,,,,73,0
22896,note_on,2,0,0,,,,,0,,,,,,,71,96
22896,note_on,0,0,0,,,,,1,,,,,,,66,96
22896,note_on,0,0,0,,,,,2,,,,,,,63,96
22896,note_on,0,0,0,,,,,3,,,,,,,47,96
22896,note_on,0,0,0,,,,,4,,,,,,,35,96
22896,note_on,0,0,0,,,,,5,,,,,,,71,96
22896,note_on,0,0,0,,,,,6,,,,,,,59,96
22906,note_off,10,0,0,,,,,6,,,,,,,59,0
22908,note_on,2,0,0,,,,,6,,,,,,,58,96
22917,note_off,9,0,0,,,,,0,,,,,,,71,0
22917,note_off,0,0,0,,,,,1,,,,,,,66,0
22917,note_off,0,0,0,,,,,2,,,,,,,63,0
22917,note_off,0,0,0,,,,,3,,,,,,,47,0
22917,note_off,0,0,0,,,,,4,,,,,,,35,0
22917,note_off,0,0,0,,,,,5,,,,,,,71,0
22918,note_off,1,0,0,,,,,6,,,,,,,58,0
22920,note_on,2,0,0,,,,,0,,,,,,,75,80
22920,note_on,0,0,0,,,,,5,,,,,,,78,96
22920,note_on,0,0,0,,,,,6,,,,,,,59,96
22930,note_off,10,0,0,,,,,0,,,,,,,75,0
22930,note_off,0,0,0,,,,,6,,,,,,,59,0
22932,note_on,2,0,0,,,,,0,,,,,,,76,80
22932,note_on,0,0,0,,,,,6,,,,,,,61,96
22941,note_off,9,0,0,,,,,5,,,,,,,78,0
22942,note_off,1,0,0,,,,,0,,,,,,,76,0
22942,note_off,0,0,0,,,,,6,,,,,,,61,0
22944,note_on,2,0,0,,,,,0,,,,,,,78,80
22944,note_on,0,0,0,,,,,5,,,,,,,78,96
22944,note_on,0,0,0,,,,,6,,,,,,,57,96
22954,note_off,10,0,0,,,,,0,,,,,,,78,0
22954,note_off,0,0,0,,,,,6,,,,,,,57,0
22956,note_on,2,0,0,,,,,0,,,,,,,75,80
22956,note_on,0,0,0,,,,,6,,,,,,,59,96
22965,note_off,9,0,0,,,,,5,,,,,,,78,0
22966,note_off,1,0,0,,,,,0,,,,,,,75,0
22966,note_off,0,0,0,,,,,6,,,,,,,59,0
22968,note_on,2,0,0,,,,,0,,,,,,,71,80
22968,note_on,0,0,0,,,,,5,,,,,,,78,96
22968,note_on,0,0,0,,,,,6,,,,,,,56,96
22978,note_off,10,0,0,,,,,0,,,,,,,71,0
22980,note_on,2,0,0,,,,,0,,,,,,,69,80
22989,note_off,9,0,0,,,,,5,,,,,,,78,0
22989,note_off,0,0,0,,,,,6,,,,,,,56,0
22990,note_off,1,0,0,,,,,0,,,,,,,69,0
22992,note_on,2,0,0,,,,,0,,,,,,,71,80
22992,note_on,0,0,0,,,,,5,,,,,,,80,96
22992,note_on,0,0,0,,,,,6,,,,,,,44,96
23002,note_off,10,0,0,,,,,0,,,,,,,71,0
23002,note_off,0,0,0,,,,,5,,,,,,,80,0
23004,note_on,2,0,0,,,,,0,,,,,,,73,80
23004,note_on,0,0,0,,,,,5,,,,,,,81,96
23013,note_off,9,0,0,,,,,6,,,,,,,44,0
23014,note_off,1,0,0,,,,,0,,,,,,,73,0
23014,note_off,0,0,0,,,,,5,,,,,,,81,0
23016,note_on,2,0,0,,,,,0,,,,,,,75,80
23016,note_on,0,0,0,,,,,5,,,,,,,83,96
23016,note_on,0,0,0,,,,,6,,,,,,,56,96
23026,note_off,10,0,0,,,,,0,,,,,,,75,0
23026,note_off,0,0,0,,,,,5,,,,,,,83,0
23028,note_on,2,0,0,,,,,0,,,,,,,71,80
23028,note_on,0,0,0,,,,,5,,,,,,,80,96
23037,note_off,9,0,0,,,,,6,,,,,,,56,0
23038,note_off,1,0,0,,,,,0,,,,,,,71,0
23038,note_off,0,0,0,,,,,5,,,,,,,80,0
23040,note_on,2,0,0,,,,,0,,,,,,,68,80
23040,note_on,0,0,0,,,,,5,,,,,,,76,96
23040,note_on,0,0,0,,,,,6,,,,,,,61,96
23048,note_off,8,0,0,,,,,5,,,,,,,76,0
23048,note_on,0,0,0,,,,,5,,,,,,,75,96
23050,note_off,2,0,0,,,,,6,,,,,,,61,0
23052,note_on,2,0,0,,,,,6,,,,,,,59,96
23056,note_off,4,0,0,,,,,5,,,,,,,75,0
23056,note_on,0,0,0,,,,,5,,,,,,,73,96
23061,note_off,5,0,0,,,,,0,,,,,,,68,0
23062,note_off,1,0,0,,,,,6,,,,,,,59,0
23063,note_off,1,0,0,,,,,5,,,,,,,73,0
23064,note_on,1,0,0,,,,,0,,,,,,,73,80
23064,note_on,0,0,0,,,,,5,,,,,,,76,96
23064,note_on,0,0,0,,,,,6,,,,,,,57,96
23074,note_off,10,0,0,,,,,0,,,,,,,73,0
23074,note_off,0,0,0,,,,,6,,,,,,,57,0
23076,note_on,2,0,0,,,,,0,,,,,,,75,80
23076,note_on,0,0,0,,,,,6,,,,,,,59,96
23085,note_off,9,0,0,,,,,5,,,,,,,76,0
23086,note_off,1,0,0,,,,,0,,,,,,,75,0
23086,note_off,0,0,0,,,,,6,,,,,,,59,0
23088,note_on,2,0,0,,,,,0,,,,,,,76,80
23088,note_on,0,0,0,,,,,5,,,,,,,76,96
23088,note_on,0,0,0,,,,,6,,,,,,,56,96
23098,note_off,10,0,0,,,,,0,,,,,,,76,0
23098,note_off,0,0,0,,,,,6,,,,,,,56,0
23100,note_on,2,0,0,,,,,0,,,,,,,73,80
23100,note_on,0,0,0,,,,,6,,,,,,,57,96
23109,note_off,9,0,0,,,,,5,,,,,,,76,0
23110,note_off,1,0,0,,,,,0,,,,,,,73,0
23110,note_off,0,0,0,,,,,6,,,,,,,57,0
23112,note_on,2,0,0,,,,,0,,,,,,,69,80
23112,note_on,0,0,0,,,,,5,,,,,,,76,96
23112,note_on,0,0,0,,,,,6,,,,,,,54,96
23122,note_off,10,0,0,,,,,0,,,,,,,69,0
23124,note_on,2,0,0,,,,,0,,,,,,,68,80
23133,note_off,9,0,0,,,,,5,,,,,,,76,0
23133,note_off,0,0,0,,,,,6,,,,,,,54,0
23134,note_off,1,0,0,,,,,0,,,,,,,68,0
23136,note_on,2,0,0,,,,,0,,,,,,,69,80
23136,note_on,0,0,0,,,,,5,,,,,,,78,96
23136,note_on,0,0,0,,,,,6,,,,,,,42,96
23146,note_off,10,0,0,,,,,0,,,,,,,69,0
23146,note_off,0,0,0,,,,,5,,,,,,,78,0
23148,note_on,2,0,0,,,,,0,,,,,,,71,80
23148,note_on,0,0,0,,,,,5,,,,,,,80,96
23157,note_off,9,0,0,,,,,6,,,,,,,42,0
23158,note_off,1,0,0,,,,,0,,,,,,,71,0
23158,note_off,0,0,0,,,,,5,,,,,,,80,0
23160,note_on,2,0,0,,,,,0,,,,,,,73,80
23160,note_on,0,0,0,,,,,5,,,,,,,81,96
23160,note_on,0,0,0,,,,,6,,,,,,,54,96
23170,note_off,10,0,0,,,,,0,,,,,,,73,0
23170,note_off,0,0,0,,,,,5,,,,,,,81,0
23172,note_on,2,0,0,,,,,0,,,,,,,69,80
23172,note_on,0,0,0,,,,,5,,,,,,,78,96
23181,note_off,9,0,0,,,,,6,,,,,,,54,0
23182,note_off,1,0,0,,,,,0,,,,,,,69,0
23182,note_off,0,0,0,,,,,5,,,,,,,78,0
23184,note_on,2,0,0,,,,,0,,,,,,,66,80
23184,note_on,0,0,0,,,,,5,,,,,,,75,96
23184,note_on,0,0,0,,,,,6,,,,,,,59,96
23191,note_off,7,0,0,,,,,5,,,,,,,75,0
23192,note_on,1,0,0,,,,,5,,,,,,,73,96
23199,note_off,7,0,0,,,,,5,,,,,,,73,0
23200,note_on,1,0,0,,,,,5,,,,,,,71,96
23205,note_off,5,0,0,,,,,0,,,,,,,66,0
23205,note_off,0,0,0,,,,,6,,,,,,,59,0
23207,note_off,2,0,0,,,,,5,,,,,,,71,0
23208,note_on,1,0,0,,,,,5,,,,,,,66,96
23208,note_on,0,0,0,,,,,6,,,,,,,57,96
23215,note_off,7,0,0,,,,,5,,,,,,,66,0
23216,note_on,1,0,0,,,,,5,,,,,,,71,96
23223,note_off,7,0,0,,,,,5,,,,,,,71,0
23224,note_on,1,0,0,,,,,5,,,,,,,73,96
23229,note_off,5,0,0,,,,,6,,,,,,,57,0
23231,note_off,2,0,0,,,,,5,,,,,,,73,0
23232,note_on,1,0,0,,,,,5,,,,,,,75,96
23232,note_on,0,0,0,,,,,6,,,,,,,54,96
23239,note_off,7,0,0,,,,,5,,,,,,,75,0
23240,note_on,1,0,0,,,,,5,,,,,,,73,96
23247,note_off,7,0,0,,,,,5,,,,,,,73,0
23248,note_on,1,0,0,,,,,5,,,,,,,71,96
23253,note_off,5,0,0,,,,,6,,,,,,,54,0
23255,note_off,2,0,0,,,,,5,,,,,,,71,0
23256,note_on,1,0,0,,,,,5,,,,,,,78,96
23256,note_on,0,0,0,,,,,6,,,,,,,51,96
23266,note_off,10,0,0,,,,,5,,,,,,,78,0
23268,note_on,2,0,0,,,,,5,,,,,,,76,96
23277,note_off,9,0,0,,,,,6,,,,,,,51,0
23278,note_off,1,0,0,,,,,5,,,,,,,76,0
23280,note_on,2,0,0,,,,,0,,,,,,,81,80
23280,note_on,0,0,0,,,,,1,,,,,,,78,80
23280,note_on,0,0,0,,,,,2,,,,,,,75,80
23280,note_on,0,0,0,,,,,3,,,,,,,59,80
23280,note_on,0,0,0,,,,,4,,,,,,,47,80
23280,note_on,0,0,0,,,,,5,,,,,,,75,96
23280,note_on,0,0,0,,,,,6,,,,,,,59,96
23290,note_off,10,0,0,,,,,5,,,,,,,75,0
23292,note_on,2,0,0,,,,,5,,,,,,,73,96
23301,note_off,9,0,0,,,,,0,,,,,,,81,0
23301,note_off,0,0,0,,,,,1,,,,,,,78,0
23301,note_off,0,0,0,,,,,2,,,,,,,75,0
23301,note_off,0,0,0,,,,,3,,,,,,,59,0
23301,note_off,0,0,0,,,,,4,,,,,,,47,0
23301,note_off,0,0,0,,,,,6,,,,,,,59,0
23302,note_off,1,0,0,,,,,5,,,,,,,73,0
23304,note_on,2,0,0,,,,,0,,,,,,,81,80
23304,note_on,0,0,0,,,,,1,,,,,,,78,80
23304,note_on,0,0,0,,,,,2,,,,,,,75,80
23304,note_on,0,0,0,,,,,3,,,,,,,47,80
23304,note_on,0,0,0,,,,,4,,,,,,,35,80
23304,note_on,0,0,0,,,,,5,,,,,,,71,96
23304,note_on,0,0,0,,,,,6,,,,,,,47,96
23314,note_off,10,0,0,,,,,5,,,,,,,71,0
23316,note_on,2,0,0,,,,,5,,,,,,,81,96
23325,note_off,9,0,0,,,,,0,,,,,,,81,0
23325,note_off,0,0,0,,,,,1,,,,,,,78,0
23325,note_off,0,0,0,,,,,2,,,,,,,75,0
23325,note_off,0,0,0,,,,,3,,,,,,,47,0
23325,note_off,0,0,0,,,,,4,,,,,,,35,0
23325,note_off,0,0,0,,,,,6,,,,,,,47,0
23326,note_off,1,0,0,,,,,5,,,,,,,81,0
23328,note_on,2,0,0,,,,,0,,,,,,,80,80
23328,note_on,0,0,0,,,,,1,,,,,,,76,80
23328,note_on,0,0,0,,,,,2,,,,,,,71,80
23328,note_on,0,0,0,,,,,3,,,,,,,52,80
23328,note_on,0,0,0,,,,,4,,,,,,,40,80
23328,note_on,0,0,0,,,,,5,,,,,,,80,96
23328,note_on,0,0,0,,,,,6,,,,,,,52,96
23335,note_off,7,0,0,,,,,5,,,,,,,80,0
23336,note_on,1,0,0,,,,,5,,,,,,,78,96
23343,note_off,7,0,0,,,,,5,,,,,,,78,0
23344,note_on,1,0,0,,,,,5,,,,,,,76,96
23349,note_off,5,0,0,,,,,0,,,,,,,80,0
23349,note_off,0,0,0,,,,,1,,,,,,,76,0
23349,note_off,0,0,0,,,,,2,,,,,,,71,0
23349,note_off,0,0,0,,,,,3,,,,,,,52,0
23349,note_off,0,0,0,,,,,4,,,,,,,40,0
23349,note_off,0,0,0,,,,,6,,,,,,,52,0
23351,note_off,2,0,0,,,,,5,,,,,,,76,0
23352,note_on,1,0,0,,,,,5,,,,,,,71,96
23352,note_on,0,0,0,,,,,6,,,,,,,50,96
23359,note_off,7,0,0,,,,,5,,,,,,,71,0
23360,note_on,1,0,0,,,,,5,,,,,,,76,96
23367,note_off,7,0,0,,,,,5,,,,,,,76,0
23368,note_on,1,0,0,,,,,5,,,,,,,78,96
23373,note_off,5,0,0,,,,,6,,,,,,,50,0
23375,note_off,2,0,0,,,,,5,,,,,,,78,0
23376,note_on,1,0,0,,,,,5,,,,,,,80,96
23376,note_on,0,0,0,,,,,6,,,,,,,47,96
23383,note_off,7,0,0,,,,,5,,,,,,,80,0
23384,note_on,1,0,0,,,,,5,,,,,,,78,96
23391,note_off,7,0,0,,,,,5,,,,,,,78,0
23392,note_on,1,0,0,,,,,5,,,,,,,76,96
23397,note_off,5,0,0,,,,,6,,,,,,,47,0
23399,note_off,2,0,0,,,,,5,,,,,,,76,0
23400,note_on,1,0,0,,,,,5,,,,,,,83,96
23400,note_on,0,0,0,,,,,6,,,,,,,44,96
23410,note_off,10,0,0,,,,,5,,,,,,,83,0
23412,note_on,2,0,0,,,,,5,,,,,,,81,96
23421,note_off,9,0,0,,,,,6,,,,,,,44,0
23422,note_off,1,0,0,,,,,5,,,,,,,81,0
23424,note_on,2,0,0,,,,,0,,,,,,,80,80
23424,note_on,0,0,0,,,,,1,,,,,,,76,80
23424,note_on,0,0,0,,,,,2,,,,,,,71,80
23424,note_on,0,0,0,,,,,3,,,,,,,52,80
23424,note_on,0,0,0,,,,,4,,,,,,,40,80
23424,note_on,0,0,0,,,,,5,,,,,,,80,96
23424,note_on,0,0,0,,,,,6,,,,,,,52,96
23434,note_off,10,0,0,,,,,5,,,,,,,80,0
23436,note_on,2,0,0,,,,,5,,,,,,,78,96
23445,note_off,9,0,0,,,,,0,,,,,,,80,0
23445,note_off,0,0,0,,,,,1,,,,,,,76,0
23445,note_off,0,0,0,,,,,2,,,,,,,71,0
23445,note_off,0,0,0,,,,,3,,,,,,,52,0
23445,note_off,0,0,0,,,,,4,,,,,,,40,0
23445,note_off,0,0,0,,,,,6,,,,,,,52,0
23446,note_off,1,0,0,,,,,5,,,,,,,78,0
23448,note_on,2,0,0,,,,,0,,,,,,,80,80
23448,note_on,0,0,0,,,,,1,,,,,,,76,80
23448,note_on,0,0,0,,,,,2,,,,,,,71,80
23448,note_on,0,0,0,,,,,3,,,,,,,40,80
23448,note_on,0,0,0,,,,,4,,,,,,,28,80
23448,note_on,0,0,0,,,,,5,,,,,,,76,96
23448,note_on,0,0,0,,,,,6,,,,,,,40,96
23458,note_off,10,0,0,,,,,5,,,,,,,76,0
23460,note_on,2,0,0,,,,,5,,,,,,,74,96
23469,note_off,9,0,0,,,,,1,,,,,,,76,0
23469,note_off,0,0,0,,,,,2,,,,,,,71,0
23469,note_off,0,0,0,,,,,3,,,,,,,40,0
23469,note_off,0,0,0,,,,,4,,,,,,,28,0
23469,note_off,0,0,0,,,,,6,,,,,,,40,0
23470,note_off,1,0,0,,,,,5,,,,,,,74,0
23472,note_on,2,0,0,,,,,1,,,,,,,76,80
23472,note_on,0,0,0,,,,,2,,,,,,,73,80
23472,note_on,0,0,0,,,,,3,,,,,,,45,80
23472,note_on,0,0,0,,,,,4,,,,,,,33,80
23472,note_on,0,0,0,,,,,5,,,,,,,73,96
23472,note_on,0,0,0,,,,,6,,,,,,,45,96
23482,note_off,10,0,0,,,,,5,,,,,,,73,0
23482,note_off,0,0,0,,,,,6,,,,,,,45,0
23484,note_on,2,0,0,,,,,5,,,,,,,76,96
23484,note_on,0,0,0,,,,,6,,,,,,,49,96
23490,note_off,6,0,0,,,,,0,,,,,,,80,0
23493,note_off,3,0,0,,,,,1,,,,,,,76,0
23493,note_off,0,0,0,,,,,2,,,,,,,73,0
23493,note_off,0,0,0,,,,,3,,,,,,,45,0
23493,note_off,0,0,0,,,,,4,,,,,,,33,0
23494,note_off,1,0,0,,,,,5,,,,,,,76,0
23494,note_off,0,0,0,,,,,6,,,,,,,49,0
23496,note_on,2,0,0,,,,,0,,,,,,,78,80
23496,note_on,0,0,0,,,,,1,,,,,,,75,80
23496,note_on,0,0,0,,,,,2,,,,,,,73,80
23496,note_on,0,0,0,,,,,3,,,,,,,54,80
23496,note_on,0,0,0,,,,,4,,,,,,,42,80
23496,note_on,0,0,0,,,,,5,,,,,,,81,96
23496,note_on,0,0,0,,,,,6,,,,,,,54,96
23506,note_off,10,0,0,,,,,0,,,,,,,78,0
23506,note_off,0,0,0,,,,,5,,,,,,,81,0
23508,note_on,2,0,0,,,,,0,,,,,,,76,80
23508,note_on,0,0,0,,,,,5,,,,,,,80,96
23517,note_off,9,0,0,,,,,1,,,,,,,75,0
23517,note_off,0,0,0,,,,,2,,,,,,,73,0
23517,note_off,0,0,0,,,,,3,,,,,,,54,0
23517,note_off,0,0,0,,,,,4,,,,,,,42,0
23517,note_off,0,0,0,,,,,6,,,,,,,54,0
23518,note_off,1,0,0,,,,,0,,,,,,,76,0
23518,note_off,0,0,0,,,,,5,,,,,,,80,0
23520,note_on,2,0,0,,,,,0,,,,,,,78,80
23520,note_on,0,0,0,,,,,5,,,,,,,78,96
23530,note_off,10,0,0,,,,,5,,,,,,,78,0
23532,note_on,2,0,0,,,,,5,,,,,,,81,96
23542,note_off,10,0,0,,,,,5,,,,,,,81,0
23544,note_on,2,0,0,,,,,1,,,,,,,75,80
23544,note_on,0,0,0,,,,,2,,,,,,,71,80
23544,note_on,0,0,0,,,,,3,,,,,,,44,80
23544,note_on,0,0,0,,,,,4,,,,,,,32,80
23544,note_on,0,0,0,,,,,5,,,,,,,71,96
23544,note_on,0,0,0,,,,,6,,,,,,,44,96
23554,note_off,10,0,0,,,,,5,,,,,,,71,0
23554,note_off,0,0,0,,,,,6,,,,,,,44,0
23556,note_on,2,0,0,,,,,5,,,,,,,75,96
23556,note_on,0,0,0,,,,,6,,,,,,,47,96
23562,note_off,6,0,0,,,,,0,,,,,,,78,0
23565,note_off,3,0,0,,,,,1,,,,,,,75,0
23565,note_off,0,0,0,,,,,2,,,,,,,71,0
23565,note_off,0,0,0,,,,,3,,,,,,,44,0
23565,note_off,0,0,0,,,,,4,,,,,,,32,0
23566,note_off,1,0,0,,,,,5,,,,,,,75,0
23566,note_off,0,0,0,,,,,6,,,,,,,47,0
23568,note_on,2,0,0,,,,,0,,,,,,,76,80
23568,note_on,0,0,0,,,,,1,,,,,,,73,80
23568,note_on,0,0,0,,,,,2,,,,,,,71,80
23568,note_on,0,0,0,,,,,3,,,,,,,52,80
23568,note_on,0,0,0,,,,,4,,,,,,,40,80
23568,note_on,0,0,0,,,,,5,,,,,,,80,96
23568,note_on,0,0,0,,,,,6,,,,,,,52,96
23578,note_off,10,0,0,,,,,0,,,,,,,76,0
23578,note_off,0,0,0,,,,,5,,,,,,,80,0
23580,note_on,2,0,0,,,,,0,,,,,,,75,80
23580,note_on,0,0,0,,,,,5,,,,,,,78,96
23589,note_off,9,0,0,,,,,1,,,,,,,73,0
23589,note_off,0,0,0,,,,,2,,,,,,,71,0
23589,note_off,0,0,0,,,,,3,,,,,,,52,0
23589,note_off,0,0,0,,,,,4,,,,,,,40,0
23589,note_off,0,0,0,,,,,6,,,,,,,52,0
23590,note_off,1,0,0,,,,,0,,,,,,,75,0
23590,note_off,0,0,0,,,,,5,,,,,,,78,0
23592,note_on,2,0,0,,,,,0,,,,,,,76,80
23592,note_on,0,0,0,,,,,5,,,,,,,76,96
23602,note_off,10,0,0,,,,,5,,,,,,,76,0
23604,note_on,2,0,0,,,,,5,,,,,,,80,96
23614,note_off,10,0,0,,,,,5,,,,,,,80,0
23616,note_on,2,0,0,,,,,2,,,,,,,69,96
23616,note_on,0,0,0,,,,,3,,,,,,,42,96
23616,note_on,0,0,0,,,,,4,,,,,,,30,96
23616,note_on,0,0,0,,,,,5,,,,,,,71,96
23616,note_on,0,0,0,,,,,6,,,,,,,42,96
23620,note_off,4,0,0,,,,,5,,,,,,,71,0
23620,note_on,0,0,0,,,,,5,,,,,,,69,96
23623,note_off,3,0,0,,,,,0,,,,,,,76,0
23624,note_off,1,0,0,,,,,5,,,,,,,69,0
23624,note_on,0,0,0,,,,,5,,,,,,,71,96
23628,note_on,4,0,0,,,,,0,,,,,,,83,96
23628,note_off,0,0,0,,,,,5,,,,,,,71,0
23628,note_on,0,0,0,,,,,5,,,,,,,69,96
23632,note_off,4,0,0,,,,,5,,,,,,,69,0
23632,note_on,0,0,0,,,,,5,,,,,,,71,96
23636,note_off,4,0,0,,,,,5,,,,,,,71,0
23636,note_on,0,0,0,,,,,5,,,,,,,69,96
23637,note_off,1,0,0,,,,,2,,,,,,,69,0
23637,note_off,0,0,0,,,,,3,,,,,,,42,0
23637,note_off,0,0,0,,,,,4,,,,,,,30,0
23637,note_off,0,0,0,,,,,6,,,,,,,42,0
23640,note_off,3,0,0,,,,,0,,,,,,,83,0
23640,note_on,0,0,0,,,,,0,,,,,,,81,96
23640,note_on,0,0,0,,,,,1,,,,,,,73,96
23640,note_on,0,0,0,,,,,2,,,,,,,61,96
23640,note_on,0,0,0,,,,,3,,,,,,,44,96
23640,note_on,0,0,0,,,,,4,,,,,,,32,96
23640,note_off,0,0,0,,,,,5,,,,,,,69,0
23640,note_on,0,0,0,,,,,5,,,,,,,71,96
23640,note_on,0,0,0,,,,,6,,,,,,,44,96
23644,note_off,4,0,0,,,,,5,,,,,,,71,0
23644,note_on,0,0,0,,,,,5,,,,,,,69,96
23648,note_off,4,0,0,,,,,5,,,,,,,69,0
23648,note_on,0,0,0,,,,,5,,,,,,,71,96
23652,note_off,4,0,0,,,,,0,,,,,,,81,0
23652,note_on,0,0,0,,,,,0,,,,,,,80,96
23652,note_off,0,0,0,,,,,1,,,,,,,73,0
23652,note_on,0,0,0,,,,,1,,,,,,,71,96
23652,note_off,0,0,0,,,,,5,,,,,,,71,0
23652,note_on,0,0,0,,,,,5,,,,,,,69,96
23656,note_off,4,0,0,,,,,5,,,,,,,69,0
23656,note_on,0,0,0,,,,,5,,,,,,,71,96
23660,note_off,4,0,0,,,,,5,,,,,,,71,0
23660,note_on,0,0,0,,,,,5,,,,,,,69,96
23661,note_off,1,0,0,,,,,2,,,,,,,61,0
23661,note_off,0,0,0,,,,,3,,,,,,,44,0
23661,note_off,0,0,0,,,,,4,,,,,,,32,0
23661,note_off,0,0,0,,,,,6,,,,,,,44,0
23664,note_off,3,0,0,,,,,0,,,,,,,80,0
23664,note_on,0,0,0,,,,,0,,,,,,,78,96
23664,note_off,0,0,0,,,,,1,,,,,,,71,0
23664,note_on,0,0,0,,,,,1,,,,,,,69,96
23664,note_on,0,0,0,,,,,2,,,,,,,66,96
23664,note_on,0,0,0,,,,,3,,,,,,,45,96
23664,note_on,0,0,0,,,,,4,,,,,,,33,96
23664,note_off,0,0,0,,,,,5,,,,,,,69,0
23664,note_on,0,0,0,,,,,5,,,,,,,71,96
23664,note_on,0,0,0,,,,,6,,,,,,,45,96
23668,note_off,4,0,0,,,,,5,,,,,,,71,0
23668,note_on,0,0,0,,,,,5,,,,,,,69,96
23672,note_off,4,0,0,,,,,5,,,,,,,69,0
23672,note_on,0,0,0,,,,,5,,,,,,,71,96
23676,note_off,4,0,0,,,,,0,,,,,,,78,0
23676,note_on,0,0,0,,,,,0,,,,,,,76,96
23676,note_off,0,0,0,,,,,1,,,,,,,69,0
23676,note_on,0,0,0,,,,,1,,,,,,,68,96
23676,note_off,0,0,0,,,,,5,,,,,,,71,0
23676,note_on,0,0,0,,,,,5,,,,,,,69,96
23680,note_off,4,0,0,,,,,5,,,,,,,69,0
23680,note_on,0,0,0,,,,,5,,,,,,,71,96
23684,note_off,4,0,0,,,,,5,,,,,,,71,0
23684,note_on,0,0,0,,,,,5,,,,,,,69,96
23685,note_off,1,0,0,,,,,2,,,,,,,66,0
23685,note_off,0,0,0,,,,,3,,,,,,,45,0
23685,note_off,0,0,0,,,,,4,,,,,,,33,0
23685,note_off,0,0,0,,,,,6,,,,,,,45,0
23686,note_off,1,0,0,,,,,0,,,,,,,76,0
23686,note_off,0,0,0,,,,,1,,,,,,,68,0
23688,note_on,2,0,0,,,,,0,,,,,,,75,96
23688,note_on,0,0,0,,,,,1,,,,,,,66,96
23688,note_on,0,0,0,,,,,2,,,,,,,59,96
23688,note_on,0,0,0,,,,,3,,,,,,,47,96
23688,note_on,0,0,0,,,,,4,,,,,,,35,96
23688,note_off,0,0,0,,,,,5,,,,,,,69,0
23688,note_on,0,0,0,,,,,5,,,,,,,71,96
23688,note_on,0,0,0,,,,,6,,,,,,,47,96
23692,note_off,4,0,0,,,,,5,,,,,,,71,0
23692,note_on,0,0,0,,,,,5,,,,,,,69,96
23696,note_off,4,0,0,,,,,5,,,,,,,69,0
23696,note_on,0,0,0,,,,,5,,,,,,,71,96
23700,note_off,4,0,0,,,,,0,,,,,,,75,0
23700,note_on,0,0,0,,,,,0,,,,,,,73,96
23700,note_off,0,0,0,,,,,1,,,,,,,66,0
23700,note_on,0,0,0,,,,,1,,,,,,,64,96
23700,note_off,0,0,0,,,,,5,,,,,,,71,0
23700,note_on,0,0,0,,,,,5,,,,,,,69,96
23704,note_off,4,0,0,,,,,5,,,,,,,69,0
23704,note_on,0,0,0,,,,,5,,,,,,,71,96
23708,note_off,4,0,0,,,,,5,,,,,,,71,0
23708,note_on,0,0,0,,,,,5,,,,,,,69,96
23709,note_off,1,0,0,,,,,3,,,,,,,47,0
23709,note_off,0,0,0,,,,,4,,,,,,,35,0
23709,note_off,0,0,0,,,,,6,,,,,,,47,0
23712,note_off,3,0,0,,,,,0,,,,,,,73,0
23712,note_on,0,0,0,,,,,0,,,,,,,71,96
23712,note_off,0,0,0,,,,,1,,,,,,,64,0
23712,note_on,0,0,0,,,,,1,,,,,,,63,96
23712,note_on,0,0,0,,,,,3,,,,,,,49,96
23712,note_on,0,0,0,,,,,4,,,,,,,37,96
23712,note_off,0,0,0,,,,,5,,,,,,,69,0
23712,note_on,0,0,0,,,,,5,,,,,,,71,96
23712,note_on,0,0,0,,,,,6,,,,,,,49,96
23716,note_off,4,0,0,,,,,5,,,,,,,71,0
23716,note_on,0,0,0,,,,,5,,,,,,,69,96
23720,note_off,4,0,0,,,,,5,,,,,,,69,0
23720,note_on,0,0,0,,,,,5,,,,,,,71,96
23724,note_off,4,0,0,,,,,0,,,,,,,71,0
23724,note_on,0,0,0,,,,,0,,,,,,,69,96
23724,note_off,0,0,0,,,,,1,,,,,,,63,0
23724,note_on,0,0,0,,,,,1,,,,,,,61,96
23724,note_off,0,0,0,,,,,5,,,,,,,71,0
23724,note_on,0,0,0,,,,,5,,,,,,,69,96
23728,note_off,4,0,0,,,,,5,,,,,,,69,0
23728,note_on,0,0,0,,,,,5,,,,,,,71,96
23732,note_off,4,0,0,,,,,5,,,,,,,71,0
23732,note_on,0,0,0,,,,,5,,,,,,,69,96
23733,note_off,1,0,0,,,,,3,,,,,,,49,0
23733,note_off,0,0,0,,,,,4,,,,,,,37,0
23733,note_off,0,0,0,,,,,6,,,,,,,49,0
23734,note_off,1,0,0,,,,,1,,,,,,,61,0
23736,note_off,2,0,0,,,,,0,,,,,,,69,0
23736,note_on,0,0,0,,,,,0,,,,,,,68,96
23736,note_on,0,0,0,,,,,1,,,,,,,59,96
23736,note_on,0,0,0,,,,,3,,,,,,,51,96
23736,note_on,0,0,0,,,,,4,,,,,,,39,96
23736,note_off,0,0,0,,,,,5,,,,,,,69,0
23736,note_on,0,0,0,,,,,5,,,,,,,71,96
23736,note_on,0,0,0,,,,,6,,,,,,,51,96
23740,note_off,4,0,0,,,,,5,,,,,,,71,0
23740,note_on,0,0,0,,,,,5,,,,,,,69,96
23744,note_off,4,0,0,,,,,5,,,,,,,69,0
23744,note_on,0,0,0,,,,,5,,,,,,,71,96
23748,note_off,4,0,0,,,,,0,,,,,,,68,0
23748,note_on,0,0,0,,,,,0,,,,,,,66,96
23748,note_off,0,0,0,,,,,5,,,,,,,71,0
23748,note_on,0,0,0,,,,,5,,,,,,,69,96
23757,note_off,9,0,0,,,,,1,,,,,,,59,0
23757,note_off,0,0,0,,,,,3,,,,,,,51,0
23757,note_off,0,0,0,,,,,4,,,,,,,39,0
23757,note_off,0,0,0,,,,,6,,,,,,,51,0
23758,note_off,1,0,0,,,,,0,,,,,,,66,0
23760,note_on,2,0,0,,,,,0,,,,,,,64,96
23760,note_on,0,0,0,,,,,1,,,,,,,64,96
23760,note_on,0,0,0,,,,,3,,,,,,,52,96
23760,note_on,0,0,0,,,,,4,,,,,,,40,96
23760,note_on,0,0,0,,,,,6,,,,,,,52,96
23769,note_off,9,0,0,,,,,5,,,,,,,69,0
23772,note_off,3,0,0,,,,,2,,,,,,,59,0
23772,note_on,0,0,0,,,,,5,,,,,,,73,96
23781,note_off,9,0,0,,,,,0,,,,,,,64,0
23781,note_off,0,0,0,,,,,1,,,,,,,64,0
23781,note_off,0,0,0,,,,,3,,,,,,,52,0
23781,note_off,0,0,0,,,,,4,,,,,,,40,0
23781,note_off,0,0,0,,,,,6,,,,,,,52,0
23782,note_off,1,0,0,,,,,5,,,,,,,73,0
23784,note_on,2,0,0,,,,,5,,,,,,,71,96
23784,note_on,0,0,0,,,,,6,,,,,,,56,96
23794,note_off,10,0,0,,,,,5,,,,,,,71,0
23796,note_on,2,0,0,,,,,5,,,,,,,69,96
23805,note_off,9,0,0,,,,,6,,,,,,,56,0
23806,note_off,1,0,0,,,,,5,,,,,,,69,0
23808,note_on,2,0,0,,,,,5,,,,,,,68,96
23808,note_on,0,0,0,,,,,6,,,,,,,52,96
23818,note_off,10,0,0,,,,,5,,,,,,,68,0
23820,note_on,2,0,0,,,,,5,,,,,,,74,96
23829,note_off,9,0,0,,,,,6,,,,,,,52,0
23830,note_off,1,0,0,,,,,5,,,,,,,74,0
23832,note_on,2,0,0,,,,,5,,,,,,,73,96
23832,note_on,0,0,0,,,,,6,,,,,,,57,96
23842,note_off,10,0,0,,,,,5,,,,,,,73,0
23844,note_on,2,0,0,,,,,5,,,,,,,71,96
23853,note_off,9,0,0,,,,,6,,,,,,,57,0
23854,note_off,1,0,0,,,,,5,,,,,,,71,0
23856,note_on,2,0,0,,,,,5,,,,,,,69,96
23856,note_on,0,0,0,,,,,6,,,,,,,54,96
23866,note_off,10,0,0,,,,,5,,,,,,,69,0
23868,note_on,2,0,0,,,,,5,,,,,,,76,96
23877,note_off,9,0,0,,,,,6,,,,,,,54,0
23878,note_off,1,0,0,,,,,5,,,,,,,76,0
23880,note_on,2,0,0,,,,,5,,,,,,,75,96
23880,note_on,0,0,0,,,,,6,,,,,,,59,96
23890,note_off,10,0,0,,,,,5,,,,,,,75,0
23892,note_on,2,0,0,,,,,5,,,,,,,73,96
23901,note_off,9,0,0,,,,,6,,,,,,,59,0
23902,note_off,1,0,0,,,,,5,,,,,,,73,0
23904,note_on,2,0,0,,,,,5,,,,,,,71,96
23904,note_on,0,0,0,,,,,6,,,,,,,56,96
23914,note_off,10,0,0,,,,,5,,,,,,,71,0
23916,note_on,2,0,0,,,,,5,,,,,,,78,96
23925,note_off,9,0,0,,,,,6,,,,,,,56,0
23926,note_off,1,0,0,,,,,5,,,,,,,78,0
23928,note_on,2,0,0,,,,,5,,,,,,,76,96
23928,note_on,0,0,0,,,,,6,,,,,,,61,96
23938,note_off,10,0,0,,,,,5,,,,,,,76,0
23940,note_on,2,0,0,,,,,5,,,,,,,75,96
23949,note_off,9,0,0,,,,,6,,,,,,,61,0
23950,note_off,1,0,0,,,,,5,,,,,,,75,0
23952,note_on,2,0,0,,,,,5,,,,,,,73,96
23952,note_on,0,0,0,,,,,6,,,,,,,57,96
23962,note_off,10,0,0,,,,,5,,,,,,,73,0
23964,note_on,2,0,0,,,,,5,,,,,,,80,96
23973,note_off,9,0,0,,,,,6,,,,,,,57,0
23974,note_off,1,0,0,,,,,5,,,,,,,80,0
23976,note_on,2,0,0,,,,,5,,,,,,,78,96
23976,note_on,0,0,0,,,,,6,,,,,,,63,96
23986,note_off,10,0,0,,,,,5,,,,,,,78,0
23988,note_on,2,0,0,,,,,5,,,,,,,76,96
23997,note_off,9,0,0,,,,,6,,,,,,,63,0
23998,note_off,1,0,0,,,,,5,,,,,,,76,0
24000,note_on,2,0,0,,,,,5,,,,,,,75,96
24000,note_on,0,0,0,,,,,6,,,,,,,61,96
24010,note_off,10,0,0,,,,,5,,,,,,,75,0
24012,note_on,2,0,0,,,,,5,,,,,,,81,96
24021,note_off,9,0,0,,,,,6,,,,,,,61,0
24022,note_off,1,0,0,,,,,5,,,,,,,81,0
24024,note_on,2,0,0,,,,,5,,,,,,,80,96
24024,note_on,0,0,0,,,,,6,,,,,,,60,96
24034,note_off,10,0,0,,,,,5,,,,,,,80,0
24036,note_on,2,0,0,,,,,5,,,,,,,78,96
24045,note_off,9,0,0,,,,,6,,,,,,,60,0
24046,note_off,1,0,0,,,,,5,,,,,,,78,0
24048,note_on,2,0,0,,,,,5,,,,,,,76,96
24048,note_on,0,0,0,,,,,6,,,,,,,61,96
24058,note_off,10,0,0,,,,,5,,,,,,,76,0
24060,note_on,2,0,0,,,,,5,,,,,,,83,96
24069,note_off,9,0,0,,,,,6,,,,,,,61,0
24070,note_off,1,0,0,,,,,5,,,,,,,83,0
24072,note_on,2,0,0,,,,,5,,,,,,,81,96
24072,note_on,0,0,0,,,,,6,,,,,,,54,96
24082,note_off,10,0,0,,,,,5,,,,,,,81,0
24082,note_off,0,0,0,,,,,6,,,,,,,54,0
24084,note_on,2,0,0,,,,,5,,,,,,,80,96
24084,note_on,0,0,0,,,,,6,,,,,,,56,96
24094,note_off,10,0,0,,,,,5,,,,,,,80,0
24094,note_off,0,0,0,,,,,6,,,,,,,56,0
24096,note_on,2,0,0,,,,,5,,,,,,,78,96
24096,note_on,0,0,0,,,,,6,,,,,,,57,96
24106,note_off,10,0,0,,,,,5,,,,,,,78,0
24106,note_off,0,0,0,,,,,6,,,,,,,57,0
24108,note_on,2,0,0,,,,,5,,,,,,,76,96
24108,note_on,0,0,0,,,,,6,,,,,,,54,96
24118,note_off,10,0,0,,,,,5,,,,,,,76,0
24118,note_off,0,0,0,,,,,6,,,,,,,54,0
24120,note_on,2,0,0,,,,,5,,,,,,,75,96
24120,note_on,0,0,0,,,,,6,,,,,,,59,96
24130,note_off,10,0,0,,,,,5,,,,,,,75,0
24132,note_on,2,0,0,,,,,5,,,,,,,73,96
24141,note_off,9,0,0,,,,,6,,,,,,,59,0
24142,note_off,1,0,0,,,,,5,,,,,,,73,0
24144,note_on,2,0,0,,,,,5,,,,,,,71,96
24144,note_on,0,0,0,,,,,6,,,,,,,51,96
24154,note_off,10,0,0,,,,,5,,,,,,,71,0
24156,note_on,2,0,0,,,,,5,,,,,,,69,96
24165,note_off,9,0,0,,,,,6,,,,,,,51,0
24166,note_off,1,0,0,,,,,5,,,,,,,69,0
24168,note_on,2,0,0,,,,,5,,,,,,,68,96
24168,note_on,0,0,0,,,,,6,,,,,,,47,96
24178,note_off,10,0,0,,,,,5,,,,,,,68,0
24180,note_on,2,0,0,,,,,5,,,,,,,66,96
24189,note_off,9,0,0,,,,,6,,,,,,,47,0
24190,note_off,1,0,0,,,,,5,,,,,,,66,0
24192,note_on,2,0,0,,,,,5,,,,,,,68,96
24192,note_on,0,0,0,,,,,6,,,,,,,52,96
24199,note_off,7,0,0,,,,,5,,,,,,,68,0
24200,note_on,1,0,0,,,,,5,,,,,,,71,96
24207,note_off,7,0,0,,,,,5,,,,,,,71,0
24208,note_on,1,0,0,,,,,5,,,,,,,68,96
24213,note_off,5,0,0,,,,,6,,,,,,,52,0
24215,note_off,2,0,0,,,,,5,,,,,,,68,0
24216,note_on,1,0,0,,,,,0,,,,,,,64,96
24216,note_on,0,0,0,,,,,1,,,,,,,59,96
24216,note_on,0,0,0,,,,,2,,,,,,,56,96
24216,note_on,0,0,0,,,,,3,,,,,,,52,96
24216,note_on,0,0,0,,,,,4,,,,,,,40,96
24216,note_on,0,0,0,,,,,5,,,,,,,64,96
24223,note_off,7,0,0,,,,,5,,,,,,,64,0
24224,note_on,1,0,0,,,,,5,,,,,,,59,96
24231,note_off,7,0,0,,,,,5,,,,,,,59,0
24232,note_on,1,0,0,,,,,5,,,,,,,56,96
24237,note_off,5,0,0,,,,,0,,,,,,,64,0
24237,note_off,0,0,0,,,,,1,,,,,,,59,0
24237,note_off,0,0,0,,,,,2,,,,,,,56,0
24237,note_off,0,0,0,,,,,3,,,,,,,52,0
24237,note_off,0,0,0,,,,,4,,,,,,,40,0
24239,note_off,2,0,0,,,,,5,,,,,,,56,0
24240,note_on,1,0,0,,,,,0,,,,,,,68,96
24240,note_on,0,0,0,,,,,1,,,,,,,64,96
24240,note_on,0,0,0,,,,,2,,,,,,,59,96
24240,note_on,0,0,0,,,,,3,,,,,,,52,96
24240,note_on,0,0,0,,,,,4,,,,,,,40,96
24240,note_on,0,0,0,,,,,5,,,,,,,52,96
24247,note_off,7,0,0,,,,,5,,,,,,,52,0
24248,note_on,1,0,0,,,,,5,,,,,,,47,96
24255,note_off,7,0,0,,,,,5,,,,,,,47,0
24256,note_on,1,0,0,,,,,5,,,,,,,44,96
24261,note_off,5,0,0,,,,,0,,,,,,,68,0
24261,note_off,0,0,0,,,,,1,,,,,,,64,0
24261,note_off,0,0,0,,,,,2,,,,,,,59,0
24261,note_off,0,0,0,,,,,3,,,,,,,52,0
24261,note_off,0,0,0,,,,,4,,,,,,,40,0
24263,note_off,2,0,0,,,,,5,,,,,,,44,0
24264,note_on,1,0,0,,,,,0,,,,,,,71,96
24264,note_on,0,0,0,,,,,1,,,,,,,68,96
24264,note_on,0,0,0,,,,,2,,,,,,,64,96
24264,note_on,0,0,0,,,,,3,,,,,,,52,96
24264,note_on,0,0,0,,,,,4,,,,,,,40,96
24264,note_on,0,0,0,,,,,6,,,,,,,40,96
24271,note_off,7,0,0,,,,,6,,,,,,,40,0
24272,note_on,1,0,0,,,,,6,,,,,,,44,96
24279,note_off,7,0,0,,,,,6,,,,,,,44,0
24280,note_on,1,0,0,,,,,6,,,,,,,47,96
24285,note_off,5,0,0,,,,,0,,,,,,,71,0
24285,note_off,0,0,0,,,,,1,,,,,,,68,0
24285,note_off,0,0,0,,,,,2,,,,,,,64,0
24285,note_off,0,0,0,,,,,3,,,,,,,52,0
24285,note_off,0,0,0,,,,,4,,,,,,,40,0
24287,note_off,2,0,0,,,,,6,,,,,,,47,0
24288,note_on,1,0,0,,,,,0,,,,,,,64,96
24288,note_on,0,0,0,,,,,1,,,,,,,71,96
24288,note_on,0,0,0,,,,,2,,,,,,,68,96
24288,note_on,0,0,0,,,,,3,,,,,,,52,96
24288,note_on,0,0,0,,,,,4,,,,,,,40,96
24288,note_on,0,0,0,,,,,6,,,,,,,52,96
24295,note_off,7,0,0,,,,,6,,,,,,,52,0
24296,note_on,1,0,0,,,,,6,,,,,,,56,96
24298,note_off,2,0,0,,,,,0,,,,,,,64,0
24300,note_on,2,0,0,,,,,0,,,,,,,66,96
24303,note_off,3,0,0,,,,,6,,,,,,,56,0
24304,note_on,1,0,0,,,,,6,,,,,,,59,96
24309,note_off,5,0,0,,,,,1,,,,,,,71,0
24309,note_off,0,0,0,,,,,2,,,,,,,68,0
24309,note_off,0,0,0,,,,,3,,,,,,,52,0
24309,note_off,0,0,0,,,,,4,,,,,,,40,0
24310,note_off,1,0,0,,,,,0,,,,,,,66,0
24311,note_off,1,0,0,,,,,6,,,,,,,59,0
24312,note_on,1,0,0,,,,,0,,,,,,,68,96
24312,note_on,0,0,0,,,,,1,,,,,,,64,96
24312,note_on,0,0,0,,,,,2,,,,,,,71,96
24312,note_on,0,0,0,,,,,3,,,,,,,52,96
24312,note_on,0,0,0,,,,,4,,,,,,,40,96
24312,note_on,0,0,0,,,,,5,,,,,,,64,96
24319,note_off,7,0,0,,,,,5,,,,,,,64,0
24320,note_on,1,0,0,,,,,5,,,,,,,68,96
24322,note_off,2,0,0,,,,,0,,,,,,,68,0
24322,note_off,0,0,0,,,,,1,,,,,,,64,0
24324,note_on,2,0,0,,,,,0,,,,,,,69,96
24324,note_on,0,0,0,,,,,1,,,,,,,66,96
24327,note_off,3,0,0,,,,,5,,,,,,,68,0
24328,note_on,1,0,0,,,,,5,,,,,,,71,96
24333,note_off,5,0,0,,,,,2,,,,,,,71,0
24333,note_off,0,0,0,,,,,3,,,,,,,52,0
24333,note_off,0,0,0,,,,,4,,,,,,,40,0
24334,note_off,1,0,0,,,,,0,,,,,,,69,0
24334,note_off,0,0,0,,,,,1,,,,,,,66,0
24335,note_off,1,0,0,,,,,5,,,,,,,71,0
24336,note_on,1,0,0,,,,,0,,,,,,,71,96
24336,note_on,0,0,0,,,,,1,,,,,,,68,96
24336,note_on,0,0,0,,,,,2,,,,,,,64,96
24336,note_on,0,0,0,,,,,3,,,,,,,52,96
24336,note_on,0,0,0,,,,,4,,,,,,,40,96
24336,note_on,0,0,0,,,,,5,,,,,,,76,96
24343,note_off,7,0,0,,,,,5,,,,,,,76,0
24344,note_on,1,0,0,,,,,5,,,,,,,71,96
24346,note_off,2,0,0,,,,,1,,,,,,,68,0
24346,note_off,0,0,0,,,,,2,,,,,,,64,0
24348,note_on,2,0,0,,,,,1,,,,,,,69,96
24348,note_on,0,0,0,,,,,2,,,,,,,66,96
24351,note_off,3,0,0,,,,,5,,,,,,,71,0
24352,note_on,1,0,0,,,,,5,,,,,,,75,96
24357,note_off,5,0,0,,,,,0,,,,,,,71,0
24357,note_off,0,0,0,,,,,3,,,,,,,52,0
24357,note_off,0,0,0,,,,,4,,,,,,,40,0
24358,note_off,1,0,0,,,,,1,,,,,,,69,0
24358,note_off,0,0,0,,,,,2,,,,,,,66,0
24359,note_off,1,0,0,,,,,5,,,,,,,75,0
24360,note_on,1,0,0,,,,,0,,,,,,,76,96
24360,note_on,0,0,0,,,,,1,,,,,,,71,96
24360,note_on,0,0,0,,,,,2,,,,,,,68,96
24360,note_on,0,0,0,,,,,3,,,,,,,52,96
24360,note_on,0,0,0,,,,,4,,,,,,,40,96
24360,note_on,0,0,0,,,,,5,,,,,,,76,96
24360,note_on,0,0,0,,,,,6,,,,,,,59,96
24360,note_on,0,0,0,,,,,6,,,,,,,56,96
24360,note_on,0,0,0,,,,,6,,,,,,,52,96
24367,note_off,7,0,0,,,,,5,,,,,,,76,0
24368,note_on,1,0,0,,,,,5,,,,,,,71,96
24370,note_off,2,0,0,,,,,2,,,,,,,68,0
24372,note_on,2,0,0,,,,,2,,,,,,,69,96
24375,note_off,3,0,0,,,,,5,,,,,,,71,0
24376,note_on,1,0,0,,,,,5,,,,,,,76,96
24381,note_off,5,0,0,,,,,0,,,,,,,76,0
24381,note_off,0,0,0,,,,,1,,,,,,,71,0
24381,note_off,0,0,0,,,,,3,,,,,,,52,0
24381,note_off,0,0,0,,,,,4,,,,,,,40,0
24381,note_off,0,0,0,,,,,6,,,,,,,59,0
24381,note_off,0,0,0,,,,,6,,,,,,,56,0
24381,note_off,0,0,0,,,,,6,,,,,,,52,0
24382,note_off,1,0,0,,,,,2,,,,,,,69,0
24383,note_off,1,0,0,,,,,5,,,,,,,76,0
24384,note_on,1,0,0,,,,,0,,,,,,,80,96
24384,note_on,0,0,0,,,,,1,,,,,,,76,96
24384,note_on,0,0,0,,,,,2,,,,,,,71,96
24384,note_on,0,0,0,,,,,3,,,,,,,52,96
24384,note_on,0,0,0,,,,,4,,,,,,,40,96
24384,note_on,0,0,0,,,,,5,,,,,,,80,96
24384,note_on,0,0,0,,,,,6,,,,,,,59,96
24384,note_on,0,0,0,,,,,6,,,,,,,56,96
24384,note_on,0,0,0,,,,,6,,,,,,,52,96
24391,note_off,7,0,0,,,,,5,,,,,,,80,0
24392,note_on,1,0,0,,,,,5,,,,,,,76,96
24399,note_off,7,0,0,,,,,5,,,,,,,76,0
24400,note_on,1,0,0,,,,,5,,,,,,,80,96
24405,note_off,5,0,0,,,,,0,,,,,,,80,0
24405,note_off,0,0,0,,,,,1,,,,,,,76,0
24405,note_off,0,0,0,,,,,2,,,,,,,71,0
24405,note_off,0,0,0,,,,,3,,,,,,,52,0
24405,note_off,0,0,0,,,,,4,,,,,,,40,0
24405,note_off,0,0,0,,,,,6,,,,,,,59,0
24405,note_off,0,0,0,,,,,6,,,,,,,56,0
24405,note_off,0,0,0,,,,,6,,,,,,,52,0
24407,note_off,2,0,0,,,,,5,,,,,,,80,0
24408,note_on,1,0,0,,,,,0,,,,,,,83,96
24408,note_on,0,0,0,,,,,1,,,,,,,80,96
24408,note_on,0,0,0,,,,,2,,,,,,,76,96
24408,note_on,0,0,0,,,,,3,,,,,,,52,96
24408,note_on,0,0,0,,,,,4,,,,,,,40,96
24408,note_on,0,0,0,,,,,5,,,,,,,83,96
24408,note_on,0,0,0,,,,,6,,,,,,,59,96
24408,note_on,0,0,0,,,,,6,,,,,,,56,96
24408,note_on,0,0,0,,,,,6,,,,,,,52,96
24429,note_off,21,0,0,,,,,0,,,,,,,83,0
24429,note_off,0,0,0,,,,,1,,,,,,,80,0
24429,note_off,0,0,0,,,,,2,,,,,,,76,0
24429,note_off,0,0,0,,,,,3,,,,,,,52,0
24429,note_off,0,0,0,,,,,4,,,,,,,40,0
24429,note_off,0,0,0,,,,,5,,,,,,,83,0
24429,note_off,0,0,0,,,,,6,,,,,,,59,0
24429,note_off,0,0,0,,,,,6,,,,,,,56,0
24429,note_off,0,0,0,,,,,6,,,,,,,52,0
24432,note_on,3,0,0,,,,,0,,,,,,,81,96
24432,note_on,0,0,0,,,,,1,,,,,,,76,96
24432,note_on,0,0,0,,,,,2,,,,,,,64,96
24432,note_on,0,0,0,,,,,3,,,,,,,61,96
24432,note_on,0,0,0,,,,,4,,,,,,,49,96
24432,note_on,0,0,0,,,,,5,,,,,,,81,96
24432,note_on,0,0,0,,,,,6,,,,,,,61,96
24442,note_off,10,0,0,,,,,0,,,,,,,81,0
24442,note_off,0,0,0,,,,,5,,,,,,,81,0
24444,note_on,2,0,0,,,,,0,,,,,,,80,96
24444,note_on,0,0,0,,,,,5,,,,,,,80,96
24453,note_off,9,0,0,,,,,1,,,,,,,76,0
24453,note_off,0,0,0,,,,,2,,,,,,,64,0
24453,note_off,0,0,0,,,,,3,,,,,,,61,0
24453,note_off,0,0,0,,,,,4,,,,,,,49,0
24453,note_off,0,0,0,,,,,6,,,,,,,61,0
24454,note_off,1,0,0,,,,,0,,,,,,,80,0
24454,note_off,0,0,0,,,,,5,,,,,,,80,0
24456,note_on,2,0,0,,,,,0,,,,,,,78,96
24456,note_on,0,0,0,,,,,1,,,,,,,73,96
24456,note_on,0,0,0,,,,,2,,,,,,,69,96
24456,note_on,0,0,0,,,,,3,,,,,,,57,96
24456,note_on,0,0,0,,,,,4,,,,,,,45,96
24456,note_on,0,0,0,,,,,5,,,,,,,78,96
24456,note_on,0,0,0,,,,,6,,,,,,,57,96
24466,note_off,10,0,0,,,,,0,,,,,,,78,0
24466,note_off,0,0,0,,,,,5,,,,,,,78,0
24468,note_on,2,0,0,,,,,0,,,,,,,76,96
24468,note_on,0,0,0,,,,,5,,,,,,,76,96
24477,note_off,9,0,0,,,,,1,,,,,,,73,0
24477,note_off,0,0,0,,,,,2,,,,,,,69,0
24477,note_off,0,0,0,,,,,3,,,,,,,57,0
24477,note_off,0,0,0,,,,,4,,,,,,,45,0
24477,note_off,0,0,0,,,,,6,,,,,,,57,0
24478,note_off,1,0,0,,,,,0,,,,,,,76,0
24478,note_off,0,0,0,,,,,5,,,,,,,76,0
24480,note_on,2,0,0,,,,,0,,,,,,,75,96
24480,note_on,0,0,0,,,,,1,,,,,,,71,96
24480,note_on,0,0,0,,,,,2,,,,,,,66,96
24480,note_on,0,0,0,,,,,3,,,,,,,59,80
24480,note_on,0,0,0,,,,,4,,,,,,,47,80
24480,note_on,0,0,0,,,,,5,,,,,,,75,96
24480,note_on,0,0,0,,,,,6,,,,,,,59,96
24487,note_off,7,0,0,,,,,5,,,,,,,75,0
24488,note_on,1,0,0,,,,,5,,,,,,,78,96
24495,note_off,7,0,0,,,,,5,,,,,,,78,0
24496,note_on,1,0,0,,,,,5,,,,,,,76,96
24501,note_off,5,0,0,,,,,0,,,,,,,75,0
24501,note_off,0,0,0,,,,,1,,,,,,,71,0
24501,note_off,0,0,0,,,,,2,,,,,,,66,0
24501,note_off,0,0,0,,,,,3,,,,,,,59,0
24501,note_off,0,0,0,,,,,4,,,,,,,47,0
24501,note_off,0,0,0,,,,,6,,,,,,,59,0
24503,note_off,2,0,0,,,,,5,,,,,,,76,0
24504,note_on,1,0,0,,,,,0,,,,,,,59,80
24504,note_on,0,0,0,,,,,3,,,,,,,57,80
24504,note_on,0,0,0,,,,,4,,,,,,,45,80
24504,note_on,0,0,0,,,,,5,,,,,,,75,96
24504,note_on,0,0,0,,,,,6,,,,,,,57,96
24511,note_off,7,0,0,,,,,5,,,,,,,75,0
24512,note_on,1,0,0,,,,,5,,,,,,,73,96
24514,note_off,2,0,0,,,,,6,,,,,,,57,0
24516,note_off,2,0,0,,,,,3,,,,,,,57,0
24516,note_on,0,0,0,,,,,3,,,,,,,56,80
24516,note_off,0,0,0,,,,,4,,,,,,,45,0
24516,note_on,0,0,0,,,,,4,,,,,,,44,80
24516,note_on,0,0,0,,,,,6,,,,,,,56,96
24519,note_off,3,0,0,,,,,5,,,,,,,73,0
24520,note_on,1,0,0,,,,,5,,,,,,,71,96
24525,note_off,5,0,0,,,,,0,,,,,,,59,0
24526,note_off,1,0,0,,,,,6,,,,,,,56,0
24527,note_off,1,0,0,,,,,5,,,,,,,71,0
24528,note_on,1,0,0,,,,,0,,,,,,,63,80
24528,note_off,0,0,0,,,,,3,,,,,,,56,0
24528,note_on,0,0,0,,,,,3,,,,,,,54,80
24528,note_off,0,0,0,,,,,4,,,,,,,44,0
24528,note_on,0,0,0,,,,,4,,,,,,,42,80
24528,note_on,0,0,0,,,,,5,,,,,,,81,96
24528,note_on,0,0,0,,,,,6,,,,,,,54,96
24535,note_off,7,0,0,,,,,5,,,,,,,81,0
24536,note_on,1,0,0,,,,,5,,,,,,,80,96
24538,note_off,2,0,0,,,,,6,,,,,,,54,0
24540,note_off,2,0,0,,,,,3,,,,,,,54,0
24540,note_on,0,0,0,,,,,3,,,,,,,52,80
24540,note_off,0,0,0,,,,,4,,,,,,,42,0
24540,note_on,0,0,0,,,,,4,,,,,,,40,80
24540,note_on,0,0,0,,,,,6,,,,,,,52,96
24543,note_off,3,0,0,,,,,5,,,,,,,80,0
24544,note_on,1,0,0,,,,,5,,,,,,,81,96
24549,note_off,5,0,0,,,,,0,,,,,,,63,0
24550,note_off,1,0,0,,,,,3,,,,,,,52,0
24550,note_off,0,0,0,,,,,4,,,,,,,40,0
24550,note_off,0,0,0,,,,,6,,,,,,,52,0
24551,note_off,1,0,0,,,,,5,,,,,,,81,0
24552,note_on,1,0,0,,,,,0,,,,,,,66,80
24552,note_on,0,0,0,,,,,1,,,,,,,59,80
24552,note_on,0,0,0,,,,,3,,,,,,,51,80
24552,note_on,0,0,0,,,,,4,,,,,,,39,80
24552,note_on,0,0,0,,,,,5,,,,,,,83,96
24552,note_on,0,0,0,,,,,6,,,,,,,51,96
24556,note_off,4,0,0,,,,,5,,,,,,,83,0
24556,note_on,0,0,0,,,,,5,,,,,,,81,96
24560,note_off,4,0,0,,,,,5,,,,,,,81,0
24560,note_on,0,0,0,,,,,5,,,,,,,83,96
24562,note_off,2,0,0,,,,,6,,,,,,,51,0
24564,note_off,2,0,0,,,,,3,,,,,,,51,0
24564,note_on,0,0,0,,,,,3,,,,,,,52,80
24564,note_off,0,0,0,,,,,4,,,,,,,39,0
24564,note_on,0,0,0,,,,,4,,,,,,,40,80
24564,note_off,0,0,0,,,,,5,,,,,,,83,0
24564,note_on,0,0,0,,,,,5,,,,,,,81,96
24564,note_on,0,0,0,,,,,6,,,,,,,52,96
24568,note_off,4,0,0,,,,,5,,,,,,,81,0
24568,note_on,0,0,0,,,,,5,,,,,,,83,96
24572,note_off,4,0,0,,,,,5,,,,,,,83,0
24572,note_on,0,0,0,,,,,5,,,,,,,81,96
24573,note_off,1,0,0,,,,,0,,,,,,,66,0
24573,note_off,0,0,0,,,,,1,,,,,,,59,0
24574,note_off,1,0,0,,,,,6,,,,,,,52,0
24576,note_on,2,0,0,,,,,0,,,,,,,59,80
24576,note_on,0,0,0,,,,,1,,,,,,,63,80
24576,note_off,0,0,0,,,,,3,,,,,,,52,0
24576,note_on,0,0,0,,,,,3,,,,,,,54,80
24576,note_off,0,0,0,,,,,4,,,,,,,40,0
24576,note_on,0,0,0,,,,,4,,,,,,,42,80
24576,note_off,0,0,0,,,,,5,,,,,,,81,0
24576,note_on,0,0,0,,,,,5,,,,,,,83,96
24576,note_on,0,0,0,,,,,6,,,,,,,54,96
24580,note_off,4,0,0,,,,,5,,,,,,,83,0
24580,note_on,0,0,0,,,,,5,,,,,,,81,96
24584,note_off,4,0,0,,,,,5,,,,,,,81,0
24584,note_on,0,0,0,,,,,5,,,,,,,83,96
24586,note_off,2,0,0,,,,,0,,,,,,,59,0
24586,note_off,0,0,0,,,,,6,,,,,,,54,0
24588,note_on,2,0,0,,,,,0,,,,,,,61,80
24588,note_off,0,0,0,,,,,3,,,,,,,54,0
24588,note_on,0,0,0,,,,,3,,,,,,,52,80
24588,note_off,0,0,0,,,,,4,,,,,,,42,0
24588,note_on,0,0,0,,,,,4,,,,,,,40,80
24588,note_off,0,0,0,,,,,5,,,,,,,83,0
24588,note_on,0,0,0,,,,,5,,,,,,,81,96
24588,note_on,0,0,0,,,,,6,,,,,,,52,96
24592,note_off,4,0,0,,,,,5,,,,,,,81,0
24592,note_on,0,0,0,,,,,5,,,,,,,83,96
24596,note_off,4,0,0,,,,,5,,,,,,,83,0
24596,note_on,0,0,0,,,,,5,,,,,,,81,96
24597,note_off,1,0,0,,,,,1,,,,,,,63,0
24598,note_off,1,0,0,,,,,0,,,,,,,61,0
24598,note_off,0,0,0,,,,,6,,,,,,,52,0
24600,note_on,2,0,0,,,,,0,,,,,,,63,80
24600,note_on,0,0,0,,,,,1,,,,,,,66,80
24600,note_off,0,0,0,,,,,3,,,,,,,52,0
24600,note_on,0,0,0,,,,,3,,,,,,,51,80
24600,note_off,0,0,0,,,,,4,,,,,,,40,0
24600,note_on,0,0,0,,,,,4,,,,,,,39,80
24600,note_off,0,0,0,,,,,5,,,,,,,81,0
24600,note_on,0,0,0,,,,,5,,,,,,,83,96
24600,note_on,0,0,0,,,,,6,,,,,,,51,96
24604,note_off,4,0,0,,,,,5,,,,,,,83,0
24604,note_on,0,0,0,,,,,5,,,,,,,81,96
24608,note_off,4,0,0,,,,,5,,,,,,,81,0
24608,note_on,0,0,0,,,,,5,,,,,,,83,96
24610,note_off,2,0,0,,,,,0,,,,,,,63,0
24610,note_off,0,0,0,,,,,6,,,,,,,51,0
24612,note_on,2,0,0,,,,,0,,,,,,,64,80
24612,note_off,0,0,0,,,,,3,,,,,,,51,0
24612,note_on,0,0,0,,,,,3,,,,,,,49,80
24612,note_off,0,0,0,,,,,4,,,,,,,39,0
24612,note_on,0,0,0,,,,,4,,,,,,,37,80
24612,note_off,0,0,0,,,,,5,,,,,,,83,0
24612,note_on,0,0,0,,,,,5,,,,,,,81,96
24612,note_on,0,0,0,,,,,6,,,,,,,49,96
24616,note_off,4,0,0,,,,,5,,,,,,,81,0
24616,note_on,0,0,0,,,,,5,,,,,,,83,96
24620,note_off,4,0,0,,,,,5,,,,,,,83,0
24620,note_on,0,0,0,,,,,5,,,,,,,81,96
24621,note_off,1,0,0,,,,,1,,,,,,,66,0
24622,note_off,1,0,0,,,,,0,,,,,,,64,0
24622,note_off,0,0,0,,,,,3,,,,,,,49,0
24622,note_off,0,0,0,,,,,4,,,,,,,37,0
24622,note_off,0,0,0,,,,,6,,,,,,,49,0
24624,note_on,2,0,0,,,,,0,,,,,,,66,80
24624,note_on,0,0,0,,,,,1,,,,,,,63,80
24624,note_on,0,0,0,,,,,2,,,,,,,59,80
24624,note_on,0,0,0,,,,,3,,,,,,,47,80
24624,note_on,0,0,0,,,,,4,,,,,,,35,80
24624,note_off,0,0,0,,,,,5,,,,,,,81,0
24624,note_on,0,0,0,,,,,5,,,,,,,83,96
24624,note_on,0,0,0,,,,,6,,,,,,,47,96
24628,note_off,4,0,0,,,,,5,,,,,,,83,0
24628,note_on,0,0,0,,,,,5,,,,,,,81,96
24631,note_off,3,0,0,,,,,6,,,,,,,47,0
24632,note_off,1,0,0,,,,,5,,,,,,,81,0
24632,note_on,0,0,0,,,,,5,,,,,,,83,96
24632,note_on,0,0,0,,,,,6,,,,,,,51,96
24636,note_off,4,0,0,,,,,5,,,,,,,83,0
24636,note_on,0,0,0,,,,,5,,,,,,,81,96
24639,note_off,3,0,0,,,,,6,,,,,,,51,0
24640,note_off,1,0,0,,,,,5,,,,,,,81,0
24640,note_on,0,0,0,,,,,5,,,,,,,83,96
24640,note_on,0,0,0,,,,,6,,,,,,,47,96
24644,note_off,4,0,0,,,,,5,,,,,,,83,0
24644,note_on,0,0,0,,,,,5,,,,,,,81,96
24645,note_off,1,0,0,,,,,0,,,,,,,66,0
24645,note_off,0,0,0,,,,,1,,,,,,,63,0
24645,note_off,0,0,0,,,,,2,,,,,,,59,0
24645,note_off,0,0,0,,,,,3,,,,,,,47,0
24645,note_off,0,0,0,,,,,4,,,,,,,35,0
24647,note_off,2,0,0,,,,,6,,,,,,,47,0
24648,note_on,1,0,0,,,,,0,,,,,,,71,80
24648,note_on,0,0,0,,,,,1,,,,,,,66,80
24648,note_on,0,0,0,,,,,2,,,,,,,63,80
24648,note_on,0,0,0,,,,,3,,,,,,,59,80
24648,note_on,0,0,0,,,,,4,,,,,,,47,80
24648,note_off,0,0,0,,,,,5,,,,,,,81,0
24648,note_on,0,0,0,,,,,5,,,,,,,83,96
24648,note_on,0,0,0,,,,,6,,,,,,,42,96
24652,note_off,4,0,0,,,,,5,,,,,,,83,0
24652,note_on,0,0,0,,,,,5,,,,,,,81,96
24655,note_off,3,0,0,,,,,6,,,,,,,42,0
24656,note_off,1,0,0,,,,,5,,,,,,,81,0
24656,note_on,0,0,0,,,,,5,,,,,,,83,96
24656,note_on,0,0,0,,,,,6,,,,,,,47,96
24660,note_off,4,0,0,,,,,5,,,,,,,83,0
24660,note_on,0,0,0,,,,,5,,,,,,,81,96
24663,note_off,3,0,0,,,,,6,,,,,,,47,0
24664,note_off,1,0,0,,,,,5,,,,,,,81,0
24664,note_on,0,0,0,,,,,5,,,,,,,83,96
24664,note_on,0,0,0,,,,,6,,,,,,,42,96
24668,note_off,4,0,0,,,,,5,,,,,,,83,0
24668,note_on,0,0,0,,,,,5,,,,,,,81,96
24669,note_off,1,0,0,,,,,0,,,,,,,71,0
24669,note_off,0,0,0,,,,,1,,,,,,,66,0
24669,note_off,0,0,0,,,,,2,,,,,,,63,0
24669,note_off,0,0,0,,,,,3,,,,,,,59,0
24669,note_off,0,0,0,,,,,4,,,,,,,47,0
24671,note_off,2,0,0,,,,,6,,,,,,,42,0
24672,note_on,1,0,0,,,,,0,,,,,,,75,80
24672,note_on,0,0,0,,,,,1,,,,,,,71,80
24672,note_on,0,0,0,,,,,2,,,,,,,66,80
24672,note_off,0,0,0,,,,,5,,,,,,,81,0
24672,note_on,0,0,0,,,,,5,,,,,,,83,96
24672,note_on,0,0,0,,,,,6,,,,,,,39,96
24676,note_off,4,0,0,,,,,5,,,,,,,83,0
24676,note_on,0,0,0,,,,,5,,,,,,,81,96
24679,note_off,3,0,0,,,,,6,,,,,,,39,0
24680,note_off,1,0,0,,,,,5,,,,,,,81,0
24680,note_on,0,0,0,,,,,5,,,,,,,83,96
24680,note_on,0,0,0,,,,,6,,,,,,,42,96
24684,note_off,4,0,0,,,,,5,,,,,,,83,0
24684,note_on,0,0,0,,,,,5,,,,,,,81,96
24687,note_off,3,0,0,,,,,6,,,,,,,42,0
24688,note_on,1,0,0,,,,,6,,,,,,,39,96
24693,note_off,5,0,0,,,,,0,,,,,,,75,0
24693,note_off,0,0,0,,,,,1,,,,,,,71,0
24693,note_off,0,0,0,,,,,2,,,,,,,66,0
24695,note_off,2,0,0,,,,,6,,,,,,,39,0
24696,note_on,1,0,0,,,,,0,,,,,,,78,80
24696,note_on,0,0,0,,,,,1,,,,,,,75,80
24696,note_on,0,0,0,,,,,2,,,,,,,71,80
24696,note_on,0,0,0,,,,,6,,,,,,,35,96
24705,note_off,9,0,0,,,,,5,,,,,,,81,0
24708,note_on,3,0,0,,,,,5,,,,,,,78,96
24717,note_off,9,0,0,,,,,0,,,,,,,78,0
24717,note_off,0,0,0,,,,,1,,,,,,,75,0
24717,note_off,0,0,0,,,,,2,,,,,,,71,0
24717,note_off,0,0,0,,,,,6,,,,,,,35,0
24718,note_off,1,0,0,,,,,5,,,,,,,78,0
24720,note_on,2,0,0,,,,,0,,,,,,,80,80
24720,note_on,0,0,0,,,,,1,,,,,,,71,80
24720,note_on,0,0,0,,,,,2,,,,,,,64,80
24720,note_on,0,0,0,,,,,3,,,,,,,59,80
24720,note_on,0,0,0,,,,,4,,,,,,,47,80
24720,note_on,0,0,0,,,,,5,,,,,,,76,96
24730,note_off,10,0,0,,,,,0,,,,,,,80,0
24730,note_off,0,0,0,,,,,5,,,,,,,76,0
24732,note_on,2,0,0,,,,,0,,,,,,,78,80
24732,note_on,0,0,0,,,,,5,,,,,,,75,96
24741,note_off,9,0,0,,,,,1,,,,,,,71,0
24741,note_off,0,0,0,,,,,2,,,,,,,64,0
24741,note_off,0,0,0,,,,,3,,,,,,,59,0
24741,note_off,0,0,0,,,,,4,,,,,,,47,0
24742,note_off,1,0,0,,,,,0,,,,,,,78,0
24742,note_off,0,0,0,,,,,5,,,,,,,75,0
24744,note_on,2,0,0,,,,,0,,,,,,,76,80
24744,note_on,0,0,0,,,,,1,,,,,,,71,80
24744,note_on,0,0,0,,,,,2,,,,,,,66,80
24744,note_on,0,0,0,,,,,3,,,,,,,47,80
24744,note_on,0,0,0,,,,,4,,,,,,,35,80
24744,note_on,0,0,0,,,,,5,,,,,,,73,96
24744,note_on,0,0,0,,,,,6,,,,,,,59,96
24754,note_off,10,0,0,,,,,0,,,,,,,76,0
24754,note_off,0,0,0,,,,,5,,,,,,,73,0
24756,note_on,2,0,0,,,,,0,,,,,,,75,80
24756,note_on,0,0,0,,,,,5,,,,,,,71,96
24765,note_off,9,0,0,,,,,1,,,,,,,71,0
24765,note_off,0,0,0,,,,,2,,,,,,,66,0
24765,note_off,0,0,0,,,,,3,,,,,,,47,0
24765,note_off,0,0,0,,,,,4,,,,,,,35,0
24765,note_off,0,0,0,,,,,6,,,,,,,59,0
24766,note_off,1,0,0,,,,,0,,,,,,,75,0
24766,note_off,0,0,0,,,,,5,,,,,,,71,0
24768,note_on,2,0,0,,,,,0,,,,,,,76,80
24768,note_on,0,0,0,,,,,1,,,,,,,71,80
24768,note_on,0,0,0,,,,,2,,,,,,,64,80
24768,note_on,0,0,0,,,,,3,,,,,,,52,80
24768,note_on,0,0,0,,,,,4,,,,,,,40,80
24768,note_on,0,0,0,,,,,5,,,,,,,80,96
24768,note_on,0,0,0,,,,,6,,,,,,,64,96
24775,note_off,7,0,0,,,,,5,,,,,,,80,0
24776,note_on,1,0,0,,,,,5,,,,,,,83,96
24783,note_off,7,0,0,,,,,5,,,,,,,83,0
24784,note_on,1,0,0,,,,,5,,,,,,,81,96
24789,note_off,5,0,0,,,,,0,,,,,,,76,0
24789,note_off,0,0,0,,,,,1,,,,,,,71,0
24789,note_off,0,0,0,,,,,2,,,,,,,64,0
24789,note_off,0,0,0,,,,,3,,,,,,,52,0
24789,note_off,0,0,0,,,,,4,,,,,,,40,0
24789,note_off,0,0,0,,,,,6,,,,,,,64,0
24791,note_off,2,0,0,,,,,5,,,,,,,81,0
24792,note_on,1,0,0,,,,,0,,,,,,,64,80
24792,note_on,0,0,0,,,,,3,,,,,,,50,80
24792,note_on,0,0,0,,,,,4,,,,,,,38,80
24792,note_on,0,0,0,,,,,5,,,,,,,80,96
24792,note_on,0,0,0,,,,,6,,,,,,,62,96
24799,note_off,7,0,0,,,,,5,,,,,,,80,0
24800,note_on,1,0,0,,,,,5,,,,,,,78,96
24802,note_off,2,0,0,,,,,6,,,,,,,62,0
24804,note_off,2,0,0,,,,,3,,,,,,,50,0
24804,note_on,0,0,0,,,,,3,,,,,,,49,80
24804,note_off,0,0,0,,,,,4,,,,,,,38,0
24804,note_on,0,0,0,,,,,4,,,,,,,37,80
24804,note_on,0,0,0,,,,,6,,,,,,,61,96
24807,note_off,3,0,0,,,,,5,,,,,,,78,0
24808,note_on,1,0,0,,,,,5,,,,,,,76,96
24813,note_off,5,0,0,,,,,0,,,,,,,64,0
24814,note_off,1,0,0,,,,,6,,,,,,,61,0
24815,note_off,1,0,0,,,,,5,,,,,,,76,0
24816,note_on,1,0,0,,,,,0,,,,,,,68,80
24816,note_off,0,0,0,,,,,3,,,,,,,49,0
24816,note_on,0,0,0,,,,,3,,,,,,,47,80
24816,note_off,0,0,0,,,,,4,,,,,,,37,0
24816,note_on,0,0,0,,,,,4,,,,,,,35,80
24816,note_on,0,0,0,,,,,5,,,,,,,74,96
24816,note_on,0,0,0,,,,,6,,,,,,,59,96
24823,note_off,7,0,0,,,,,5,,,,,,,74,0
24824,note_on,1,0,0,,,,,5,,,,,,,73,96
24826,note_off,2,0,0,,,,,6,,,,,,,59,0
24828,note_off,2,0,0,,,,,3,,,,,,,47,0
24828,note_on,0,0,0,,,,,3,,,,,,,45,80
24828,note_off,0,0,0,,,,,4,,,,,,,35,0
24828,note_on,0,0,0,,,,,4,,,,,,,33,80
24828,note_on,0,0,0,,,,,6,,,,,,,57,96
24831,note_off,3,0,0,,,,,5,,,,,,,73,0
24832,note_on,1,0,0,,,,,5,,,,,,,74,96
24837,note_off,5,0,0,,,,,0,,,,,,,68,0
24838,note_off,1,0,0,,,,,3,,,,,,,45,0
24838,note_off,0,0,0,,,,,4,,,,,,,33,0
24838,note_off,0,0,0,,,,,6,,,,,,,57,0
24839,note_off,1,0,0,,,,,5,,,,,,,74,0
24840,note_on,1,0,0,,,,,0,,,,,,,71,80
24840,note_on,0,0,0,,,,,1,,,,,,,64,80
24840,note_on,0,0,0,,,,,3,,,,,,,44,80
24840,note_on,0,0,0,,,,,4,,,,,,,32,80
24840,note_on,0,0,0,,,,,5,,,,,,,76,96
24840,note_on,0,0,0,,,,,6,,,,,,,56,96
24844,note_off,4,0,0,,,,,5,,,,,,,76,0
24844,note_on,0,0,0,,,,,5,,,,,,,74,96
24848,note_off,4,0,0,,,,,5,,,,,,,74,0
24848,note_on,0,0,0,,,,,5,,,,,,,76,96
24850,note_off,2,0,0,,,,,6,,,,,,,56,0
24852,note_off,2,0,0,,,,,3,,,,,,,44,0
24852,note_on,0,0,0,,,,,3,,,,,,,45,80
24852,note_off,0,0,0,,,,,4,,,,,,,32,0
24852,note_on,0,0,0,,,,,4,,,,,,,33,80
24852,note_off,0,0,0,,,,,5,,,,,,,76,0
24852,note_on,0,0,0,,,,,5,,,,,,,74,96
24852,note_on,0,0,0,,,,,6,,,,,,,57,96
24856,note_off,4,0,0,,,,,5,,,,,,,74,0
24856,note_on,0,0,0,,,,,5,,,,,,,76,96
24860,note_off,4,0,0,,,,,5,,,,,,,76,0
24860,note_on,0,0,0,,,,,5,,,,,,,74,96
24861,note_off,1,0,0,,,,,0,,,,,,,71,0
24861,note_off,0,0,0,,,,,1,,,,,,,64,0
24862,note_off,1,0,0,,,,,6,,,,,,,57,0
24864,note_on,2,0,0,,,,,0,,,,,,,64,80
24864,note_on,0,0,0,,,,,1,,,,,,,68,80
24864,note_off,0,0,0,,,,,3,,,,,,,45,0
24864,note_on,0,0,0,,,,,3,,,,,,,47,80
24864,note_off,0,0,0,,,,,4,,,,,,,33,0
24864,note_on,0,0,0,,,,,4,,,,,,,35,80
24864,note_off,0,0,0,,,,,5,,,,,,,74,0
24864,note_on,0,0,0,,,,,5,,,,,,,76,96
24864,note_on,0,0,0,,,,,6,,,,,,,59,96
24868,note_off,4,0,0,,,,,5,,,,,,,76,0
24868,note_on,0,0,0,,,,,5,,,,,,,74,96
24872,note_off,4,0,0,,,,,5,,,,,,,74,0
24872,note_on,0,0,0,,,,,5,,,,,,,76,96
24874,note_off,2,0,0,,,,,0,,,,,,,64,0
24874,note_off,0,0,0,,,,,6,,,,,,,59,0
24876,note_on,2,0,0,,,,,0,,,,,,,66,80
24876,note_off,0,0,0,,,,,3,,,,,,,47,0
24876,note_on,0,0,0,,,,,3,,,,,,,45,80
24876,note_off,0,0,0,,,,,4,,,,,,,35,0
24876,note_on,0,0,0,,,,,4,,,,,,,33,80
24876,note_off,0,0,0,,,,,5,,,,,,,76,0
24876,note_on,0,0,0,,,,,5,,,,,,,74,96
24876,note_on,0,0,0,,,,,6,,,,,,,57,96
24880,note_off,4,0,0,,,,,5,,,,,,,74,0
24880,note_on,0,0,0,,,,,5,,,,,,,76,96
24884,note_off,4,0,0,,,,,5,,,,,,,76,0
24884,note_on,0,0,0,,,,,5,,,,,,,74,96
24885,note_off,1,0,0,,,,,1,,,,,,,68,0
24886,note_off,1,0,0,,,,,0,,,,,,,66,0
24886,note_off,0,0,0,,,,,6,,,,,,,57,0
24888,note_on,2,0,0,,,,,0,,,,,,,68,80
24888,note_on,0,0,0,,,,,1,,,,,,,71,80
24888,note_off,0,0,0,,,,,3,,,,,,,45,0
24888,note_on,0,0,0,,,,,3,,,,,,,44,80
24888,note_off,0,0,0,,,,,4,,,,,,,33,0
24888,note_on,0,0,0,,,,,4,,,,,,,32,80
24888,note_off,0,0,0,,,,,5,,,,,,,74,0
24888,note_on,0,0,0,,,,,5,,,,,,,76,96
24888,note_on,0,0,0,,,,,6,,,,,,,56,96
24892,note_off,4,0,0,,,,,5,,,,,,,76,0
24892,note_on,0,0,0,,,,,5,,,,,,,74,96
24896,note_off,4,0,0,,,,,5,,,,,,,74,0
24896,note_on,0,0,0,,,,,5,,,,,,,76,96
24898,note_off,2,0,0,,,,,0,,,,,,,68,0
24898,note_off,0,0,0,,,,,6,,,,,,,56,0
24900,note_on,2,0,0,,,,,0,,,,,,,69,80
24900,note_off,0,0,0,,,,,3,,,,,,,44,0
24900,note_on,0,0,0,,,,,3,,,,,,,42,80
24900,note_off,0,0,0,,,,,4,,,,,,,32,0
24900,note_on,0,0,0,,,,,4,,,,,,,30,80
24900,note_off,0,0,0,,,,,5,,,,,,,76,0
24900,note_on,0,0,0,,,,,5,,,,,,,74,96
24900,note_on,0,0,0,,,,,6,,,,,,,54,96
24904,note_off,4,0,0,,,,,5,,,,,,,74,0
24904,note_on,0,0,0,,,,,5,,,,,,,76,96
24908,note_off,4,0,0,,,,,5,,,,,,,76,0
24908,note_on,0,0,0,,,,,5,,,,,,,74,96
24909,note_off,1,0,0,,,,,1,,,,,,,71,0
24910,note_off,1,0,0,,,,,0,,,,,,,69,0
24910,note_off,0,0,0,,,,,3,,,,,,,42,0
24910,note_off,0,0,0,,,,,4,,,,,,,30,0
24910,note_off,0,0,0,,,,,6,,,,,,,54,0
24912,note_on,2,0,0,,,,,0,,,,,,,71,80
24912,note_on,0,0,0,,,,,1,,,,,,,68,80
24912,note_on,0,0,0,,,,,2,,,,,,,64,80
24912,note_on,0,0,0,,,,,3,,,,,,,40,80
24912,note_on,0,0,0,,,,,4,,,,,,,28,80
24912,note_off,0,0,0,,,,,5,,,,,,,74,0
24912,note_on,0,0,0,,,,,5,,,,,,,76,96
24912,note_on,0,0,0,,,,,6,,,,,,,52,96
24916,note_off,4,0,0,,,,,5,,,,,,,76,0
24916,note_on,0,0,0,,,,,5,,,,,,,74,96
24919,note_off,3,0,0,,,,,6,,,,,,,52,0
24920,note_off,1,0,0,,,,,5,,,,,,,74,0
24920,note_on,0,0,0,,,,,5,,,,,,,76,96
24920,note_on,0,0,0,,,,,6,,,,,,,56,96
24924,note_off,4,0,0,,,,,5,,,,,,,76,0
24924,note_on,0,0,0,,,,,5,,,,,,,74,96
24927,note_off,3,0,0,,,,,6,,,,,,,56,0
24928,note_off,1,0,0,,,,,5,,,,,,,74,0
24928,note_on,0,0,0,,,,,5,,,,,,,76,96
24928,note_on,0,0,0,,,,,6,,,,,,,52,96
24932,note_off,4,0,0,,,,,5,,,,,,,76,0
24932,note_on,0,0,0,,,,,5,,,,,,,74,96
24933,note_off,1,0,0,,,,,0,,,,,,,71,0
24933,note_off,0,0,0,,,,,1,,,,,,,68,0
24933,note_off,0,0,0,,,,,2,,,,,,,64,0
24933,note_off,0,0,0,,,,,3,,,,,,,40,0
24933,note_off,0,0,0,,,,,4,,,,,,,28,0
24935,note_off,2,0,0,,,,,6,,,,,,,52,0
24936,note_on,1,0,0,,,,,0,,,,,,,76,80
24936,note_on,0,0,0,,,,,1,,,,,,,71,80
24936,note_on,0,0,0,,,,,2,,,,,,,68,80
24936,note_on,0,0,0,,,,,3,,,,,,,52,80
24936,note_on,0,0,0,,,,,4,,,,,,,40,80
24936,note_off,0,0,0,,,,,5,,,,,,,74,0
24936,note_on,0,0,0,,,,,5,,,,,,,76,96
24936,note_on,0,0,0,,,,,6,,,,,,,47,96
24940,note_off,4,0,0,,,,,5,,,,,,,76,0
24940,note_on,0,0,0,,,,,5,,,,,,,74,96
24943,note_off,3,0,0,,,,,6,,,,,,,47,0
24944,note_off,1,0,0,,,,,5,,,,,,,74,0
24944,note_on,0,0,0,,,,,5,,,,,,,76,96
24944,note_on,0,0,0,,,,,6,,,,,,,52,96
24948,note_off,4,0,0,,,,,5,,,,,,,76,0
24948,note_on,0,0,0,,,,,5,,,,,,,74,96
24951,note_off,3,0,0,,,,,6,,,,,,,52,0
24952,note_off,1,0,0,,,,,5,,,,,,,74,0
24952,note_on,0,0,0,,,,,5,,,,,,,76,96
24952,note_on,0,0,0,,,,,6,,,,,,,47,96
24956,note_off,4,0,0,,,,,5,,,,,,,76,0
24956,note_on,0,0,0,,,,,5,,,,,,,74,96
24957,note_off,1,0,0,,,,,0,,,,,,,76,0
24957,note_off,0,0,0,,,,,1,,,,,,,71,0
24957,note_off,0,0,0,,,,,2,,,,,,,68,0
24957,note_off,0,0,0,,,,,3,,,,,,,52,0
24957,note_off,0,0,0,,,,,4,,,,,,,40,0
24959,note_off,2,0,0,,,,,6,,,,,,,47,0
24960,note_on,1,0,0,,,,,0,,,,,,,80,80
24960,note_on,0,0,0,,,,,1,,,,,,,76,80
24960,note_on,0,0,0,,,,,2,,,,,,,71,80
24960,note_off,0,0,0,,,,,5,,,,,,,74,0
24960,note_on,0,0,0,,,,,5,,,,,,,76,96
24960,note_on,0,0,0,,,,,6,,,,,,,44,96
24964,note_off,4,0,0,,,,,5,,,,,,,76,0
24964,note_on,0,0,0,,,,,5,,,,,,,74,96
24967,note_off,3,0,0,,,,,6,,,,,,,44,0
24968,note_off,1,0,0,,,,,5,,,,,,,74,0
24968,note_on,0,0,0,,,,,5,,,,,,,76,96
24968,note_on,0,0,0,,,,,6,,,,,,,47,96
24972,note_off,4,0,0,,,,,5,,,,,,,76,0
24972,note_on,0,0,0,,,,,5,,,,,,,74,96
24975,note_off,3,0,0,,,,,6,,,,,,,47,0
24976,note_on,1,0,0,,,,,6,,,,,,,44,96
24981,note_off,5,0,0,,,,,0,,,,,,,80,0
24981,note_off,0,0,0,,,,,1,,,,,,,76,0
24981,note_off,0,0,0,,,,,2,,,,,,,71,0
24983,note_off,2,0,0,,,,,6,,,,,,,44,0
24984,note_on,1,0,0,,,,,0,,,,,,,83,80
24984,note_on,0,0,0,,,,,1,,,,,,,80,80
24984,note_on,0,0,0,,,,,2,,,,,,,71,80
24984,note_on,0,0,0,,,,,6,,,,,,,40,96
24993,note_off,9,0,0,,,,,5,,,,,,,74,0
24996,note_on,3,0,0,,,,,5,,,,,,,71,96
25005,note_off,9,0,0,,,,,1,,,,,,,80,0
25005,note_off,0,0,0,,,,,2,,,,,,,71,0
25005,note_off,0,0,0,,,,,6,,,,,,,40,0
25006,note_off,1,0,0,,,,,5,,,,,,,71,0
25008,note_on,2,0,0,,,,,1,,,,,,,76,80
25008,note_on,0,0,0,,,,,2,,,,,,,71,80
25008,note_on,0,0,0,,,,,3,,,,,,,52,80
25008,note_on,0,0,0,,,,,4,,,,,,,40,80
25008,note_on,0,0,0,,,,,5,,,,,,,69,96
25018,note_off,10,0,0,,,,,5,,,,,,,69,0
25020,note_on,2,0,0,,,,,5,,,,,,,68,96
25029,note_off,9,0,0,,,,,1,,,,,,,76,0
25029,note_off,0,0,0,,,,,2,,,,,,,71,0
25029,note_off,0,0,0,,,,,3,,,,,,,52,0
25029,note_off,0,0,0,,,,,4,,,,,,,40,0
25030,note_off,1,0,0,,,,,5,,,,,,,68,0
25032,note_on,2,0,0,,,,,1,,,,,,,76,80
25032,note_on,0,0,0,,,,,2,,,,,,,68,80
25032,note_on,0,0,0,,,,,3,,,,,,,40,80
25032,note_on,0,0,0,,,,,4,,,,,,,28,80
25032,note_on,0,0,0,,,,,5,,,,,,,66,96
25032,note_on,0,0,0,,,,,6,,,,,,,52,96
25042,note_off,10,0,0,,,,,5,,,,,,,66,0
25044,note_on,2,0,0,,,,,5,,,,,,,64,96
25053,note_off,9,0,0,,,,,1,,,,,,,76,0
25053,note_off,0,0,0,,,,,2,,,,,,,68,0
25053,note_off,0,0,0,,,,,3,,,,,,,40,0
25053,note_off,0,0,0,,,,,4,,,,,,,28,0
25053,note_off,0,0,0,,,,,6,,,,,,,52,0
25054,note_off,1,0,0,,,,,5,,,,,,,64,0
25056,note_on,2,0,0,,,,,1,,,,,,,76,80
25056,note_on,0,0,0,,,,,2,,,,,,,68,80
25056,note_on,0,0,0,,,,,3,,,,,,,45,80
25056,note_on,0,0,0,,,,,4,,,,,,,33,80
25056,note_on,0,0,0,,,,,5,,,,,,,73,96
25056,note_on,0,0,0,,,,,6,,,,,,,45,96
25057,note_off,1,0,0,,,,,0,,,,,,,83,0
25068,note_on,11,0,0,,,,,0,,,,,,,80,80
25077,note_off,9,0,0,,,,,3,,,,,,,45,0
25077,note_off,0,0,0,,,,,4,,,,,,,33,0
25077,note_off,0,0,0,,,,,6,,,,,,,45,0
25080,note_off,3,0,0,,,,,0,,,,,,,80,0
25080,note_on,0,0,0,,,,,0,,,,,,,78,80
25080,note_on,0,0,0,,,,,3,,,,,,,47,80
25080,note_on,0,0,0,,,,,4,,,,,,,35,80
25080,note_on,0,0,0,,,,,6,,,,,,,47,96
25092,note_off,12,0,0,,,,,0,,,,,,,78,0
25092,note_on,0,0,0,,,,,0,,,,,,,76,80
25101,note_off,9,0,0,,,,,3,,,,,,,47,0
25101,note_off,0,0,0,,,,,4,,,,,,,35,0
25101,note_off,0,0,0,,,,,6,,,,,,,47,0
25104,note_off,3,0,0,,,,,0,,,,,,,76,0
25104,note_on,0,0,0,,,,,0,,,,,,,75,80
25104,note_on,0,0,0,,,,,3,,,,,,,49,80
25104,note_on,0,0,0,,,,,4,,,,,,,37,80
25104,note_on,0,0,0,,,,,6,,,,,,,49,96
25116,note_off,12,0,0,,,,,0,,,,,,,75,0
25116,note_on,0,0,0,,,,,0,,,,,,,73,80
25119,note_off,3,0,0,,,,,1,,,,,,,76,0
25119,note_off,0,0,0,,,,,2,,,,,,,68,0
25125,note_off,6,0,0,,,,,3,,,,,,,49,0
25125,note_off,0,0,0,,,,,4,,,,,,,37,0
25125,note_off,0,0,0,,,,,6,,,,,,,49,0
25126,note_off,1,0,0,,,,,0,,,,,,,73,0
25128,note_on,2,0,0,,,,,0,,,,,,,81,80
25128,note_on,0,0,0,,,,,1,,,,,,,75,80
25128,note_on,0,0,0,,,,,2,,,,,,,66,80
25128,note_on,0,0,0,,,,,3,,,,,,,42,80
25128,note_on,0,0,0,,,,,4,,,,,,,30,80
25128,note_on,0,0,0,,,,,6,,,,,,,42,96
25129,note_off,1,0,0,,,,,5,,,,,,,73,0
25140,note_on,11,0,0,,,,,5,,,,,,,69,96
25149,note_off,9,0,0,,,,,3,,,,,,,42,0
25149,note_off,0,0,0,,,,,4,,,,,,,30,0
25149,note_off,0,0,0,,,,,6,,,,,,,42,0
25150,note_off,1,0,0,,,,,5,,,,,,,69,0
25152,note_on,2,0,0,,,,,3,,,,,,,54,80
25152,note_on,0,0,0,,,,,4,,,,,,,42,80
25152,note_on,0,0,0,,,,,5,,,,,,,68,96
25152,note_on,0,0,0,,,,,6,,,,,,,54,96
25162,note_off,10,0,0,,,,,5,,,,,,,68,0
25164,note_on,2,0,0,,,,,5,,,,,,,66,96
25173,note_off,9,0,0,,,,,3,,,,,,,54,0
25173,note_off,0,0,0,,,,,4,,,,,,,42,0
25173,note_off,0,0,0,,,,,6,,,,,,,54,0
25174,note_off,1,0,0,,,,,5,,,,,,,66,0
25176,note_on,2,0,0,,,,,5,,,,,,,64,96
25186,note_off,10,0,0,,,,,5,,,,,,,64,0
25188,note_on,2,0,0,,,,,5,,,,,,,63,96
25198,note_off,10,0,0,,,,,5,,,,,,,63,0
25200,note_on,2,0,0,,,,,3,,,,,,,44,80
25200,note_on,0,0,0,,,,,4,,,,,,,32,80
25200,note_on,0,0,0,,,,,5,,,,,,,71,96
25200,note_on,0,0,0,,,,,6,,,,,,,44,96
25201,note_off,1,0,0,,,,,0,,,,,,,81,0
25212,note_on,11,0,0,,,,,0,,,,,,,78,80
25221,note_off,9,0,0,,,,,3,,,,,,,44,0
25221,note_off,0,0,0,,,,,4,,,,,,,32,0
25221,note_off,0,0,0,,,,,6,,,,,,,44,0
25224,note_off,3,0,0,,,,,0,,,,,,,78,0
25224,note_on,0,0,0,,,,,0,,,,,,,76,80
25224,note_on,0,0,0,,,,,3,,,,,,,45,80
25224,note_on,0,0,0,,,,,4,,,,,,,33,80
25224,note_on,0,0,0,,,,,6,,,,,,,45,96
25236,note_off,12,0,0,,,,,0,,,,,,,76,0
25236,note_on,0,0,0,,,,,0,,,,,,,75,80
25245,note_off,9,0,0,,,,,3,,,,,,,45,0
25245,note_off,0,0,0,,,,,4,,,,,,,33,0
25245,note_off,0,0,0,,,,,6,,,,,,,45,0
25248,note_off,3,0,0,,,,,0,,,,,,,75,0
25248,note_on,0,0,0,,,,,0,,,,,,,73,80
25248,note_on,0,0,0,,,,,3,,,,,,,47,80
25248,note_on,0,0,0,,,,,4,,,,,,,35,80
25248,note_on,0,0,0,,,,,6,,,,,,,47,96
25260,note_off,12,0,0,,,,,0,,,,,,,73,0
25260,note_on,0,0,0,,,,,0,,,,,,,71,80
25260,note_off,0,0,0,,,,,1,,,,,,,75,0
25260,note_off,0,0,0,,,,,2,,,,,,,66,0
25269,note_off,9,0,0,,,,,3,,,,,,,47,0
25269,note_off,0,0,0,,,,,4,,,,,,,35,0
25269,note_off,0,0,0,,,,,6,,,,,,,47,0
25270,note_off,1,0,0,,,,,0,,,,,,,71,0
25272,note_on,2,0,0,,,,,0,,,,,,,80,80
25272,note_on,0,0,0,,,,,1,,,,,,,73,80
25272,note_on,0,0,0,,,,,2,,,,,,,64,80
25272,note_on,0,0,0,,,,,3,,,,,,,40,80
25272,note_on,0,0,0,,,,,4,,,,,,,28,80
25272,note_on,0,0,0,,,,,6,,,,,,,40,96
25273,note_off,1,0,0,,,,,5,,,,,,,71,0
25284,note_on,11,0,0,,,,,5,,,,,,,68,96
25293,note_off,9,0,0,,,,,3,,,,,,,40,0
25293,note_off,0,0,0,,,,,4,,,,,,,28,0
25293,note_off,0,0,0,,,,,6,,,,,,,40,0
25294,note_off,1,0,0,,,,,5,,,,,,,68,0
25296,note_on,2,0,0,,,,,3,,,,,,,52,80
25296,note_on,0,0,0,,,,,4,,,,,,,40,80
25296,note_on,0,0,0,,,,,5,,,,,,,66,96
25296,note_on,0,0,0,,,,,6,,,,,,,52,96
25306,note_off,10,0,0,,,,,5,,,,,,,66,0
25308,note_on,2,0,0,,,,,5,,,,,,,64,96
25317,note_off,9,0,0,,,,,3,,,,,,,52,0
25317,note_off,0,0,0,,,,,4,,,,,,,40,0
25317,note_off,0,0,0,,,,,6,,,,,,,52,0
25318,note_off,1,0,0,,,,,5,,,,,,,64,0
25320,note_on,2,0,0,,,,,5,,,,,,,63,96
25330,note_off,10,0,0,,,,,5,,,,,,,63,0
25332,note_on,2,0,0,,,,,5,,,,,,,61,96
25342,note_off,10,0,0,,,,,5,,,,,,,61,0
25344,note_on,2,0,0,,,,,3,,,,,,,42,80
25344,note_on,0,0,0,,,,,4,,,,,,,30,80
25344,note_on,0,0,0,,,,,5,,,,,,,69,96
25344,note_on,0,0,0,,,,,6,,,,,,,54,96
25354,note_off,10,0,0,,,,,5,,,,,,,69,0
25354,note_off,0,0,0,,,,,6,,,,,,,54,0
25356,note_off,2,0,0,,,,,0,,,,,,,80,0
25356,note_off,0,0,0,,,,,2,,,,,,,64,0
25356,note_on,0,0,0,,,,,5,,,,,,,68,96
25356,note_on,0,0,0,,,,,6,,,,,,,52,96
25365,note_off,9,0,0,,,,,3,,,,,,,42,0
25365,note_off,0,0,0,,,,,4,,,,,,,30,0
25366,note_off,1,0,0,,,,,5,,,,,,,68,0
25366,note_off,0,0,0,,,,,6,,,,,,,52,0
25368,note_on,2,0,0,,,,,0,,,,,,,76,80
25368,note_on,0,0,0,,,,,2,,,,,,,69,80
25368,note_on,0,0,0,,,,,5,,,,,,,69,96
25368,note_on,0,0,0,,,,,6,,,,,,,54,96
25378,note_off,10,0,0,,,,,5,,,,,,,69,0
25378,note_off,0,0,0,,,,,6,,,,,,,54,0
25380,note_on,2,0,0,,,,,5,,,,,,,73,96
25380,note_on,0,0,0,,,,,6,,,,,,,57,96
25389,note_off,9,0,0,,,,,0,,,,,,,76,0
25389,note_off,0,0,0,,,,,2,,,,,,,69,0
25390,note_off,1,0,0,,,,,5,,,,,,,73,0
25390,note_off,0,0,0,,,,,6,,,,,,,57,0
25392,note_on,2,0,0,,,,,0,,,,,,,73,80
25392,note_on,0,0,0,,,,,2,,,,,,,64,80
25392,note_on,0,0,0,,,,,5,,,,,,,71,96
25392,note_on,0,0,0,,,,,6,,,,,,,56,96
25402,note_off,10,0,0,,,,,5,,,,,,,71,0
25402,note_off,0,0,0,,,,,6,,,,,,,56,0
25404,note_off,2,0,0,,,,,1,,,,,,,73,0
25404,note_on,0,0,0,,,,,5,,,,,,,68,96
25404,note_on,0,0,0,,,,,6,,,,,,,52,96
25413,note_off,9,0,0,,,,,0,,,,,,,73,0
25413,note_off,0,0,0,,,,,2,,,,,,,64,0
25414,note_off,1,0,0,,,,,5,,,,,,,68,0
25414,note_off,0,0,0,,,,,6,,,,,,,52,0
25416,note_on,2,0,0,,,,,0,,,,,,,78,80
25416,note_on,0,0,0,,,,,1,,,,,,,71,80
25416,note_on,0,0,0,,,,,2,,,,,,,66,80
25416,note_on,0,0,0,,,,,3,,,,,,,39,80
25416,note_on,0,0,0,,,,,4,,,,,,,27,80
25416,note_on,0,0,0,,,,,5,,,,,,,69,96
25416,note_on,0,0,0,,,,,6,,,,,,,51,96
25426,note_off,10,0,0,,,,,5,,,,,,,69,0
25426,note_off,0,0,0,,,,,6,,,,,,,51,0
25428,note_on,2,0,0,,,,,5,,,,,,,73,96
25428,note_on,0,0,0,,,,,6,,,,,,,57,96
25437,note_off,9,0,0,,,,,2,,,,,,,66,0
25437,note_off,0,0,0,,,,,3,,,,,,,39,0
25437,note_off,0,0,0,,,,,4,,,,,,,27,0
25438,note_off,1,0,0,,,,,5,,,,,,,73,0
25438,note_off,0,0,0,,,,,6,,,,,,,57,0
25440,note_on,2,0,0,,,,,2,,,,,,,59,80
25440,note_on,0,0,0,,,,,5,,,,,,,71,96
25440,note_on,0,0,0,,,,,6,,,,,,,56,96
25450,note_off,10,0,0,,,,,5,,,,,,,71,0
25450,note_off,0,0,0,,,,,6,,,,,,,56,0
25452,note_on,2,0,0,,,,,5,,,,,,,69,96
25452,note_on,0,0,0,,,,,6,,,,,,,54,96
25461,note_off,9,0,0,,,,,2,,,,,,,59,0
25462,note_off,1,0,0,,,,,5,,,,,,,69,0
25462,note_off,0,0,0,,,,,6,,,,,,,54,0
25464,note_on,2,0,0,,,,,2,,,,,,,69,80
25464,note_on,0,0,0,,,,,5,,,,,,,68,96
25464,note_on,0,0,0,,,,,6,,,,,,,52,96
25474,note_off,10,0,0,,,,,5,,,,,,,68,0
25474,note_off,0,0,0,,,,,6,,,,,,,52,0
25476,note_on,2,0,0,,,,,5,,,,,,,66,96
25476,note_on,0,0,0,,,,,6,,,,,,,51,96
25485,note_off,9,0,0,,,,,2,,,,,,,69,0
25486,note_off,1,0,0,,,,,5,,,,,,,66,0
25486,note_off,0,0,0,,,,,6,,,,,,,51,0
25488,note_on,2,0,0,,,,,2,,,,,,,68,80
25488,note_on,0,0,0,,,,,3,,,,,,,40,80
25488,note_on,0,0,0,,,,,4,,,,,,,28,80
25488,note_on,0,0,0,,,,,5,,,,,,,68,96
25488,note_on,0,0,0,,,,,6,,,,,,,52,96
25498,note_off,10,0,0,,,,,5,,,,,,,68,0
25498,note_off,0,0,0,,,,,6,,,,,,,52,0
25500,note_off,2,0,0,,,,,0,,,,,,,78,0
25500,note_on,0,0,0,,,,,5,,,,,,,66,96
25500,note_on,0,0,0,,,,,6,,,,,,,51,96
25509,note_off,9,0,0,,,,,3,,,,,,,40,0
25509,note_off,0,0,0,,,,,4,,,,,,,28,0
25510,note_off,1,0,0,,,,,5,,,,,,,66,0
25510,note_off,0,0,0,,,,,6,,,,,,,51,0
25512,note_on,2,0,0,,,,,0,,,,,,,75,80
25512,note_on,0,0,0,,,,,5,,,,,,,68,96
25512,note_on,0,0,0,,,,,6,,,,,,,52,96
25522,note_off,10,0,0,,,,,5,,,,,,,68,0
25522,note_off,0,0,0,,,,,6,,,,,,,52,0
25524,note_on,2,0,0,,,,,5,,,,,,,71,96
25524,note_on,0,0,0,,,,,6,,,,,,,56,96
25533,note_off,9,0,0,,,,,0,,,,,,,75,0
25534,note_off,1,0,0,,,,,5,,,,,,,71,0
25534,note_off,0,0,0,,,,,6,,,,,,,56,0
25536,note_on,2,0,0,,,,,0,,,,,,,71,80
25536,note_on,0,0,0,,,,,5,,,,,,,69,96
25536,note_on,0,0,0,,,,,6,,,,,,,54,96
25546,note_off,10,0,0,,,,,5,,,,,,,69,0
25546,note_off,0,0,0,,,,,6,,,,,,,54,0
25548,note_on,2,0,0,,,,,5,,,,,,,66,96
25548,note_on,0,0,0,,,,,6,,,,,,,51,96
25557,note_off,9,0,0,,,,,0,,,,,,,71,0
25558,note_off,1,0,0,,,,,5,,,,,,,66,0
25558,note_off,0,0,0,,,,,6,,,,,,,51,0
25560,note_on,2,0,0,,,,,0,,,,,,,76,80
25560,note_on,0,0,0,,,,,3,,,,,,,52,80
25560,note_on,0,0,0,,,,,4,,,,,,,40,80
25560,note_on,0,0,0,,,,,5,,,,,,,68,96
25560,note_on,0,0,0,,,,,6,,,,,,,52,96
25570,note_off,10,0,0,,,,,5,,,,,,,68,0
25572,note_on,2,0,0,,,,,5,,,,,,,71,96
25581,note_off,9,0,0,,,,,3,,,,,,,52,0
25581,note_off,0,0,0,,,,,4,,,,,,,40,0
25581,note_off,0,0,0,,,,,6,,,,,,,52,0
25582,note_off,1,0,0,,,,,5,,,,,,,71,0
25584,note_on,2,0,0,,,,,3,,,,,,,54,80
25584,note_on,0,0,0,,,,,4,,,,,,,42,80
25584,note_on,0,0,0,,,,,5,,,,,,,69,96
25584,note_on,0,0,0,,,,,6,,,,,,,54,96
25594,note_off,10,0,0,,,,,5,,,,,,,69,0
25596,note_on,2,0,0,,,,,5,,,,,,,68,96
25605,note_off,9,0,0,,,,,3,,,,,,,54,0
25605,note_off,0,0,0,,,,,4,,,,,,,42,0
25605,note_off,0,0,0,,,,,6,,,,,,,54,0
25606,note_off,1,0,0,,,,,5,,,,,,,68,0
25608,note_on,2,0,0,,,,,3,,,,,,,56,80
25608,note_on,0,0,0,,,,,4,,,,,,,44,80
25608,note_on,0,0,0,,,,,5,,,,,,,66,96
25608,note_on,0,0,0,,,,,6,,,,,,,56,96
25618,note_off,10,0,0,,,,,5,,,,,,,66,0
25620,note_off,2,0,0,,,,,1,,,,,,,71,0
25620,note_off,0,0,0,,,,,2,,,,,,,68,0
25620,note_on,0,0,0,,,,,5,,,,,,,64,96
25629,note_off,9,0,0,,,,,3,,,,,,,56,0
25629,note_off,0,0,0,,,,,4,,,,,,,44,0
25629,note_off,0,0,0,,,,,6,,,,,,,56,0
25630,note_off,1,0,0,,,,,5,,,,,,,64,0
25632,note_on,2,0,0,,,,,1,,,,,,,69,80
25632,note_on,0,0,0,,,,,2,,,,,,,66,80
25632,note_on,0,0,0,,,,,3,,,,,,,45,80
25632,note_on,0,0,0,,,,,4,,,,,,,33,80
25632,note_on,0,0,0,,,,,5,,,,,,,73,96
25632,note_on,0,0,0,,,,,6,,,,,,,45,96
25642,note_off,10,0,0,,,,,5,,,,,,,73,0
25644,note_off,2,0,0,,,,,0,,,,,,,76,0
25644,note_on,0,0,0,,,,,5,,,,,,,71,96
25653,note_off,9,0,0,,,,,1,,,,,,,69,0
25653,note_off,0,0,0,,,,,2,,,,,,,66,0
25653,note_off,0,0,0,,,,,3,,,,,,,45,0
25653,note_off,0,0,0,,,,,4,,,,,,,33,0
25653,note_off,0,0,0,,,,,6,,,,,,,45,0
25654,note_off,1,0,0,,,,,5,,,,,,,71,0
25656,note_on,2,0,0,,,,,0,,,,,,,73,80
25656,note_on,0,0,0,,,,,5,,,,,,,69,96
25656,note_on,0,0,0,,,,,6,,,,,,,49,96
25666,note_off,10,0,0,,,,,5,,,,,,,69,0
25668,note_on,2,0,0,,,,,5,,,,,,,68,96
25677,note_off,9,0,0,,,,,0,,,,,,,73,0
25677,note_off,0,0,0,,,,,6,,,,,,,49,0
25678,note_off,1,0,0,,,,,5,,,,,,,68,0
25680,note_on,2,0,0,,,,,0,,,,,,,69,80
25680,note_on,0,0,0,,,,,5,,,,,,,66,96
25680,note_on,0,0,0,,,,,6,,,,,,,54,96
25690,note_off,10,0,0,,,,,5,,,,,,,66,0
25692,note_on,2,0,0,,,,,5,,,,,,,64,96
25701,note_off,9,0,0,,,,,0,,,,,,,69,0
25701,note_off,0,0,0,,,,,6,,,,,,,54,0
25702,note_off,1,0,0,,,,,5,,,,,,,64,0
25704,note_on,2,0,0,,,,,0,,,,,,,66,80
25704,note_on,0,0,0,,,,,1,,,,,,,69,80
25704,note_on,0,0,0,,,,,2,,,,,,,66,80
25704,note_on,0,0,0,,,,,3,,,,,,,47,80
25704,note_on,0,0,0,,,,,4,,,,,,,35,80
25704,note_on,0,0,0,,,,,5,,,,,,,75,96
25704,note_on,0,0,0,,,,,6,,,,,,,47,96
25714,note_off,10,0,0,,,,,5,,,,,,,75,0
25716,note_on,2,0,0,,,,,5,,,,,,,71,96
25725,note_off,9,0,0,,,,,0,,,,,,,66,0
25725,note_off,0,0,0,,,,,1,,,,,,,69,0
25725,note_off,0,0,0,,,,,2,,,,,,,66,0
25725,note_off,0,0,0,,,,,3,,,,,,,47,0
25725,note_off,0,0,0,,,,,4,,,,,,,35,0
25725,note_off,0,0,0,,,,,6,,,,,,,47,0
25726,note_off,1,0,0,,,,,5,,,,,,,71,0
25728,note_on,2,0,0,,,,,5,,,,,,,69,96
25728,note_on,0,0,0,,,,,6,,,,,,,54,96
25738,note_off,10,0,0,,,,,5,,,,,,,69,0
25740,note_on,2,0,0,,,,,5,,,,,,,68,96
25749,note_off,9,0,0,,,,,6,,,,,,,54,0
25750,note_off,1,0,0,,,,,5,,,,,,,68,0
25752,note_on,2,0,0,,,,,5,,,,,,,66,96
25752,note_on,0,0,0,,,,,6,,,,,,,59,96
25762,note_off,10,0,0,,,,,5,,,,,,,66,0
25764,note_on,2,0,0,,,,,5,,,,,,,64,96
25773,note_off,9,0,0,,,,,6,,,,,,,59,0
25774,note_off,1,0,0,,,,,5,,,,,,,64,0
25776,note_on,2,0,0,,,,,0,,,,,,,76,80
25776,note_on,0,0,0,,,,,1,,,,,,,68,80
25776,note_on,0,0,0,,,,,2,,,,,,,61,80
25776,note_on,0,0,0,,,,,3,,,,,,,49,80
25776,note_on,0,0,0,,,,,4,,,,,,,37,80
25776,note_on,0,0,0,,,,,5,,,,,,,76,96
25776,note_on,0,0,0,,,,,6,,,,,,,49,96
25786,note_off,10,0,0,,,,,6,,,,,,,49,0
25788,note_on,2,0,0,,,,,6,,,,,,,51,96
25797,note_off,9,0,0,,,,,3,,,,,,,49,0
25797,note_off,0,0,0,,,,,4,,,,,,,37,0
25797,note_off,0,0,0,,,,,5,,,,,,,76,0
25798,note_off,1,0,0,,,,,6,,,,,,,51,0
25800,note_on,2,0,0,,,,,3,,,,,,,49,80
25800,note_on,0,0,0,,,,,4,,,,,,,37,80
25800,note_on,0,0,0,,,,,5,,,,,,,61,96
25800,note_on,0,0,0,,,,,6,,,,,,,52,96
25810,note_off,10,0,0,,,,,5,,,,,,,61,0
25810,note_off,0,0,0,,,,,6,,,,,,,52,0
25812,note_on,2,0,0,,,,,5,,,,,,,63,96
25812,note_on,0,0,0,,,,,6,,,,,,,54,96
25821,note_off,9,0,0,,,,,3,,,,,,,49,0
25821,note_off,0,0,0,,,,,4,,,,,,,37,0
25822,note_off,1,0,0,,,,,5,,,,,,,63,0
25822,note_off,0,0,0,,,,,6,,,,,,,54,0
25824,note_on,2,0,0,,,,,3,,,,,,,49,80
25824,note_on,0,0,0,,,,,4,,,,,,,37,80
25824,note_on,0,0,0,,,,,5,,,,,,,64,96
25824,note_on,0,0,0,,,,,6,,,,,,,56,96
25834,note_off,10,0,0,,,,,5,,,,,,,64,0
25834,note_off,0,0,0,,,,,6,,,,,,,56,0
25836,note_on,2,0,0,,,,,5,,,,,,,66,96
25836,note_on,0,0,0,,,,,6,,,,,,,58,96
25845,note_off,9,0,0,,,,,3,,,,,,,49,0
25845,note_off,0,0,0,,,,,4,,,,,,,37,0
25846,note_off,1,0,0,,,,,5,,,,,,,66,0
25846,note_off,0,0,0,,,,,6,,,,,,,58,0
25848,note_on,2,0,0,,,,,3,,,,,,,47,80
25848,note_on,0,0,0,,,,,4,,,,,,,35,80
25848,note_on,0,0,0,,,,,5,,,,,,,68,96
25848,note_on,0,0,0,,,,,6,,,,,,,59,96
25858,note_off,10,0,0,,,,,5,,,,,,,68,0
25858,note_off,0,0,0,,,,,6,,,,,,,59,0
25860,note_on,2,0,0,,,,,5,,,,,,,66,96
25860,note_on,0,0,0,,,,,6,,,,,,,58,96
25869,note_off,9,0,0,,,,,3,,,,,,,47,0
25869,note_off,0,0,0,,,,,4,,,,,,,35,0
25870,note_off,1,0,0,,,,,5,,,,,,,66,0
25870,note_off,0,0,0,,,,,6,,,,,,,58,0
25872,note_on,2,0,0,,,,,3,,,,,,,47,80
25872,note_on,0,0,0,,,,,4,,,,,,,35,80
25872,note_on,0,0,0,,,,,5,,,,,,,68,96
25872,note_on,0,0,0,,,,,6,,,,,,,59,96
25882,note_off,10,0,0,,,,,5,,,,,,,68,0
25882,note_off,0,0,0,,,,,6,,,,,,,59,0
25884,note_on,2,0,0,,,,,5,,,,,,,71,96
25884,note_on,0,0,0,,,,,6,,,,,,,63,96
25893,note_off,9,0,0,,,,,3,,,,,,,47,0
25893,note_off,0,0,0,,,,,4,,,,,,,35,0
25894,note_off,1,0,0,,,,,5,,,,,,,71,0
25894,note_off,0,0,0,,,,,6,,,,,,,63,0
25896,note_on,2,0,0,,,,,3,,,,,,,47,80
25896,note_on,0,0,0,,,,,4,,,,,,,35,80
25896,note_on,0,0,0,,,,,5,,,,,,,70,96
25896,note_on,0,0,0,,,,,6,,,,,,,61,96
25906,note_off,10,0,0,,,,,5,,,,,,,70,0
25906,note_off,0,0,0,,,,,6,,,,,,,61,0
25908,note_off,2,0,0,,,,,1,,,,,,,68,0
25908,note_off,0,0,0,,,,,2,,,,,,,61,0
25908,note_on,0,0,0,,,,,5,,,,,,,68,96
25908,note_on,0,0,0,,,,,6,,,,,,,59,96
25917,note_off,9,0,0,,,,,3,,,,,,,47,0
25917,note_off,0,0,0,,,,,4,,,,,,,35,0
25918,note_off,1,0,0,,,,,5,,,,,,,68,0
25918,note_off,0,0,0,,,,,6,,,,,,,59,0
25920,note_on,2,0,0,,,,,1,,,,,,,73,80
25920,note_on,0,0,0,,,,,2,,,,,,,54,80
25920,note_on,0,0,0,,,,,3,,,,,,,46,80
25920,note_on,0,0,0,,,,,4,,,,,,,34,80
25920,note_on,0,0,0,,,,,5,,,,,,,66,96
25920,note_on,0,0,0,,,,,6,,,,,,,58,96
25930,note_off,10,0,0,,,,,5,,,,,,,66,0
25930,note_off,0,0,0,,,,,6,,,,,,,58,0
25932,note_on,2,0,0,,,,,5,,,,,,,68,96
25932,note_on,0,0,0,,,,,6,,,,,,,59,96
25941,note_off,9,0,0,,,,,3,,,,,,,46,0
25941,note_off,0,0,0,,,,,4,,,,,,,34,0
25942,note_off,1,0,0,,,,,5,,,,,,,68,0
25942,note_off,0,0,0,,,,,6,,,,,,,59,0
25944,note_on,2,0,0,,,,,3,,,,,,,46,80
25944,note_on,0,0,0,,,,,4,,,,,,,34,80
25944,note_on,0,0,0,,,,,5,,,,,,,70,96
25944,note_on,0,0,0,,,,,6,,,,,,,61,96
25954,note_off,10,0,0,,,,,5,,,,,,,70,0
25954,note_off,0,0,0,,,,,6,,,,,,,61,0
25956,note_on,2,0,0,,,,,5,,,,,,,71,96
25956,note_on,0,0,0,,,,,6,,,,,,,59,96
25965,note_off,9,0,0,,,,,3,,,,,,,46,0
25965,note_off,0,0,0,,,,,4,,,,,,,34,0
25966,note_off,1,0,0,,,,,5,,,,,,,71,0
25966,note_off,0,0,0,,,,,6,,,,,,,59,0
25968,note_on,2,0,0,,,,,3,,,,,,,46,80
25968,note_on,0,0,0,,,,,4,,,,,,,34,80
25968,note_on,0,0,0,,,,,5,,,,,,,73,96
25968,note_on,0,0,0,,,,,6,,,,,,,58,96
25978,note_off,10,0,0,,,,,5,,,,,,,73,0
25978,note_off,0,0,0,,,,,6,,,,,,,58,0
25980,note_on,2,0,0,,,,,5,,,,,,,75,96
25980,note_on,0,0,0,,,,,6,,,,,,,56,96
25989,note_off,9,0,0,,,,,3,,,,,,,46,0
25989,note_off,0,0,0,,,,,4,,,,,,,34,0
25990,note_off,1,0,0,,,,,5,,,,,,,75,0
25990,note_off,0,0,0,,,,,6,,,,,,,56,0
25992,note_on,2,0,0,,,,,3,,,,,,,42,80
25992,note_on,0,0,0,,,,,4,,,,,,,30,80
25992,note_on,0,0,0,,,,,5,,,,,,,76,96
25992,note_on,0,0,0,,,,,6,,,,,,,54,96
26002,note_off,10,0,0,,,,,5,,,,,,,76,0
26002,note_off,0,0,0,,,,,6,,,,,,,54,0
26004,note_off,2,0,0,,,,,0,,,,,,,76,0
26004,note_off,0,0,0,,,,,1,,,,,,,73,0
26004,note_off,0,0,0,,,,,2,,,,,,,54,0
26004,note_on,0,0,0,,,,,5,,,,,,,75,96
26004,note_on,0,0,0,,,,,6,,,,,,,56,96
26013,note_off,9,0,0,,,,,3,,,,,,,42,0
26013,note_off,0,0,0,,,,,4,,,,,,,30,0
26014,note_off,1,0,0,,,,,5,,,,,,,75,0
26014,note_off,0,0,0,,,,,6,,,,,,,56,0
26016,note_on,2,0,0,,,,,0,,,,,,,75,80
26016,note_on,0,0,0,,,,,1,,,,,,,70,80
26016,note_on,0,0,0,,,,,2,,,,,,,66,80
26016,note_on,0,0,0,,,,,3,,,,,,,42,80
26016,note_on,0,0,0,,,,,4,,,,,,,30,80
26016,note_on,0,0,0,,,,,5,,,,,,,76,96
26016,note_on,0,0,0,,,,,6,,,,,,,54,96
26020,note_off,4,0,0,,,,,0,,,,,,,75,0
26020,note_on,0,0,0,,,,,0,,,,,,,73,80
26024,note_off,4,0,0,,,,,0,,,,,,,73,0
26024,note_on,0,0,0,,,,,0,,,,,,,75,80
26026,note_off,2,0,0,,,,,5,,,,,,,76,0
26026,note_off,0,0,0,,,,,6,,,,,,,54,0
26028,note_off,2,0,0,,,,,0,,,,,,,75,0
26028,note_on,0,0,0,,,,,0,,,,,,,73,80
26028,note_on,0,0,0,,,,,5,,,,,,,80,96
26028,note_on,0,0,0,,,,,6,,,,,,,52,96
26032,note_off,4,0,0,,,,,0,,,,,,,73,0
26032,note_on,0,0,0,,,,,0,,,,,,,75,80
26036,note_off,4,0,0,,,,,0,,,,,,,75,0
26036,note_on,0,0,0,,,,,0,,,,,,,73,80
26037,note_off,1,0,0,,,,,3,,,,,,,42,0
26037,note_off,0,0,0,,,,,4,,,,,,,30,0
26038,note_off,1,0,0,,,,,5,,,,,,,80,0
26038,note_off,0,0,0,,,,,6,,,,,,,52,0
26040,note_off,2,0,0,,,,,0,,,,,,,73,0
26040,note_on,0,0,0,,,,,0,,,,,,,75,80
26040,note_on,0,0,0,,,,,3,,,,,,,42,80
26040,note_on,0,0,0,,,,,4,,,,,,,30,80
26040,note_on,0,0,0,,,,,5,,,,,,,78,96
26040,note_on,0,0,0,,,,,6,,,,,,,51,96
26044,note_off,4,0,0,,,,,0,,,,,,,75,0
26044,note_on,0,0,0,,,,,0,,,,,,,73,80
26048,note_off,4,0,0,,,,,0,,,,,,,73,0
26048,note_on,0,0,0,,,,,0,,,,,,,75,80
26050,note_off,2,0,0,,,,,5,,,,,,,78,0
26050,note_off,0,0,0,,,,,6,,,,,,,51,0
26052,note_off,2,0,0,,,,,0,,,,,,,75,0
26052,note_on,0,0,0,,,,,0,,,,,,,73,80
26052,note_on,0,0,0,,,,,5,,,,,,,76,96
26052,note_on,0,0,0,,,,,6,,,,,,,49,96
26058,note_off,6,0,0,,,,,1,,,,,,,70,0
26061,note_off,3,0,0,,,,,3,,,,,,,42,0
26061,note_off,0,0,0,,,,,4,,,,,,,30,0
26062,note_off,1,0,0,,,,,0,,,,,,,73,0
26062,note_off,0,0,0,,,,,5,,,,,,,76,0
26062,note_off,0,0,0,,,,,6,,,,,,,49,0
26064,note_on,2,0,0,,,,,0,,,,,,,75,80
26064,note_on,0,0,0,,,,,1,,,,,,,71,80
26064,note_on,0,0,0,,,,,3,,,,,,,59,80
26064,note_on,0,0,0,,,,,4,,,,,,,47,80
26064,note_on,0,0,0,,,,,5,,,,,,,75,96
26064,note_on,0,0,0,,,,,6,,,,,,,47,96
26074,note_off,10,0,0,,,,,5,,,,,,,75,0
26074,note_off,0,0,0,,,,,6,,,,,,,47,0
26076,note_on,2,0,0,,,,,5,,,,,,,78,96
26076,note_on,0,0,0,,,,,6,,,,,,,49,96
26085,note_off,9,0,0,,,,,3,,,,,,,59,0
26085,note_off,0,0,0,,,,,4,,,,,,,47,0
26086,note_off,1,0,0,,,,,5,,,,,,,78,0
26086,note_off,0,0,0,,,,,6,,,,,,,49,0
26088,note_on,2,0,0,,,,,3,,,,,,,57,80
26088,note_on,0,0,0,,,,,4,,,,,,,45,80
26088,note_on,0,0,0,,,,,5,,,,,,,71,96
26088,note_on,0,0,0,,,,,6,,,,,,,51,96
26098,note_off,10,0,0,,,,,3,,,,,,,57,0
26098,note_off,0,0,0,,,,,4,,,,,,,45,0
26098,note_off,0,0,0,,,,,5,,,,,,,71,0
26098,note_off,0,0,0,,,,,6,,,,,,,51,0
26100,note_on,2,0,0,,,,,3,,,,,,,56,80
26100,note_on,0,0,0,,,,,4,,,,,,,44,80
26100,note_on,0,0,0,,,,,5,,,,,,,73,96
26100,note_on,0,0,0,,,,,6,,,,,,,52,96
26110,note_off,10,0,0,,,,,3,,,,,,,56,0
26110,note_off,0,0,0,,,,,4,,,,,,,44,0
26110,note_off,0,0,0,,,,,5,,,,,,,73,0
26110,note_off,0,0,0,,,,,6,,,,,,,52,0
26112,note_on,2,0,0,,,,,3,,,,,,,54,80
26112,note_on,0,0,0,,,,,4,,,,,,,42,80
26112,note_on,0,0,0,,,,,5,,,,,,,75,96
26112,note_on,0,0,0,,,,,6,,,,,,,54,96
26122,note_off,10,0,0,,,,,3,,,,,,,54,0
26122,note_off,0,0,0,,,,,4,,,,,,,42,0
26122,note_off,0,0,0,,,,,5,,,,,,,75,0
26122,note_off,0,0,0,,,,,6,,,,,,,54,0
26124,note_on,2,0,0,,,,,3,,,,,,,52,80
26124,note_on,0,0,0,,,,,4,,,,,,,40,80
26124,note_on,0,0,0,,,,,5,,,,,,,76,96
26124,note_on,0,0,0,,,,,6,,,,,,,56,96
26134,note_off,10,0,0,,,,,3,,,,,,,52,0
26134,note_off,0,0,0,,,,,4,,,,,,,40,0
26134,note_off,0,0,0,,,,,5,,,,,,,76,0
26134,note_off,0,0,0,,,,,6,,,,,,,56,0
26136,note_on,2,0,0,,,,,3,,,,,,,51,80
26136,note_on,0,0,0,,,,,4,,,,,,,39,80
26136,note_on,0,0,0,,,,,5,,,,,,,78,96
26136,note_on,0,0,0,,,,,6,,,,,,,57,96
26146,note_off,10,0,0,,,,,5,,,,,,,78,0
26146,note_off,0,0,0,,,,,6,,,,,,,57,0
26148,note_on,2,0,0,,,,,5,,,,,,,80,96
26148,note_on,0,0,0,,,,,6,,,,,,,59,96
26157,note_off,9,0,0,,,,,3,,,,,,,51,0
26157,note_off,0,0,0,,,,,4,,,,,,,39,0
26158,note_off,1,0,0,,,,,5,,,,,,,80,0
26158,note_off,0,0,0,,,,,6,,,,,,,59,0
26160,note_on,2,0,0,,,,,3,,,,,,,59,80
26160,note_on,0,0,0,,,,,4,,,,,,,47,80
26160,note_on,0,0,0,,,,,5,,,,,,,81,96
26160,note_on,0,0,0,,,,,6,,,,,,,61,96
26170,note_off,10,0,0,,,,,5,,,,,,,81,0
26170,note_off,0,0,0,,,,,6,,,,,,,61,0
26172,note_on,2,0,0,,,,,5,,,,,,,85,96
26172,note_on,0,0,0,,,,,6,,,,,,,59,96
26181,note_off,9,0,0,,,,,3,,,,,,,59,0
26181,note_off,0,0,0,,,,,4,,,,,,,47,0
26182,note_off,1,0,0,,,,,5,,,,,,,85,0
26182,note_off,0,0,0,,,,,6,,,,,,,59,0
26184,note_on,2,0,0,,,,,3,,,,,,,47,80
26184,note_on,0,0,0,,,,,4,,,,,,,35,80
26184,note_on,0,0,0,,,,,5,,,,,,,83,96
26184,note_on,0,0,0,,,,,6,,,,,,,61,96
26194,note_off,10,0,0,,,,,5,,,,,,,83,0
26194,note_off,0,0,0,,,,,6,,,,,,,61,0
26196,note_off,2,0,0,,,,,0,,,,,,,75,0
26196,note_off,0,0,0,,,,,1,,,,,,,71,0
26196,note_off,0,0,0,,,,,2,,,,,,,66,0
26196,note_on,0,0,0,,,,,5,,,,,,,81,96
26196,note_on,0,0,0,,,,,6,,,,,,,63,96
26205,note_off,9,0,0,,,,,3,,,,,,,47,0
26205,note_off,0,0,0,,,,,4,,,,,,,35,0
26206,note_off,1,0,0,,,,,5,,,,,,,81,0
26206,note_off,0,0,0,,,,,6,,,,,,,63,0
26208,note_on,2,0,0,,,,,3,,,,,,,52,80
26208,note_on,0,0,0,,,,,4,,,,,,,40,80
26208,note_on,0,0,0,,,,,5,,,,,,,80,96
26208,note_on,0,0,0,,,,,6,,,,,,,64,96
26218,note_off,10,0,0,,,,,5,,,,,,,80,0
26220,note_on,2,0,0,,,,,5,,,,,,,76,96
26229,note_off,9,0,0,,,,,3,,,,,,,52,0
26229,note_off,0,0,0,,,,,4,,,,,,,40,0
26229,note_off,0,0,0,,,,,6,,,,,,,64,0
26230,note_off,1,0,0,,,,,5,,,,,,,76,0
26232,note_on,2,0,0,,,,,0,,,,,,,64,80
26232,note_on,0,0,0,,,,,1,,,,,,,59,80
26232,note_on,0,0,0,,,,,2,,,,,,,56,80
26232,note_on,0,0,0,,,,,3,,,,,,,52,80
26232,note_on,0,0,0,,,,,4,,,,,,,40,80
26232,note_on,0,0,0,,,,,5,,,,,,,83,96
26232,note_on,0,0,0,,,,,6,,,,,,,52,96
26242,note_off,10,0,0,,,,,5,,,,,,,83,0
26244,note_on,2,0,0,,,,,5,,,,,,,81,96
26253,note_off,9,0,0,,,,,0,,,,,,,64,0
26253,note_off,0,0,0,,,,,1,,,,,,,59,0
26253,note_off,0,0,0,,,,,2,,,,,,,56,0
26253,note_off,0,0,0,,,,,3,,,,,,,52,0
26253,note_off,0,0,0,,,,,4,,,,,,,40,0
26253,note_off,0,0,0,,,,,6,,,,,,,52,0
26254,note_off,1,0,0,,,,,5,,,,,,,81,0
26256,note_on,2,0,0,,,,,0,,,,,,,68,80
26256,note_on,0,0,0,,,,,1,,,,,,,64,80
26256,note_on,0,0,0,,,,,2,,,,,,,59,80
26256,note_on,0,0,0,,,,,3,,,,,,,52,80
26256,note_on,0,0,0,,,,,4,,,,,,,40,80
26256,note_on,0,0,0,,,,,5,,,,,,,80,96
26266,note_off,10,0,0,,,,,5,,,,,,,80,0
26268,note_on,2,0,0,,,,,5,,,,,,,78,96
26277,note_off,9,0,0,,,,,0,,,,,,,68,0
26277,note_off,0,0,0,,,,,1,,,,,,,64,0
26277,note_off,0,0,0,,,,,2,,,,,,,59,0
26277,note_off,0,0,0,,,,,3,,,,,,,52,0
26277,note_off,0,0,0,,,,,4,,,,,,,40,0
26278,note_off,1,0,0,,,,,5,,,,,,,78,0
26280,note_on,2,0,0,,,,,0,,,,,,,71,80
26280,note_on,0,0,0,,,,,1,,,,,,,68,80
26280,note_on,0,0,0,,,,,2,,,,,,,64,80
26280,note_on,0,0,0,,,,,3,,,,,,,52,80
26280,note_on,0,0,0,,,,,4,,,,,,,40,80
26280,note_on,0,0,0,,,,,5,,,,,,,80,96
26290,note_off,10,0,0,,,,,5,,,,,,,80,0
26292,note_on,2,0,0,,,,,5,,,,,,,76,96
26301,note_off,9,0,0,,,,,0,,,,,,,71,0
26301,note_off,0,0,0,,,,,1,,,,,,,68,0
26301,note_off,0,0,0,,,,,2,,,,,,,64,0
26301,note_off,0,0,0,,,,,3,,,,,,,52,0
26301,note_off,0,0,0,,,,,4,,,,,,,40,0
26302,note_off,1,0,0,,,,,5,,,,,,,76,0
26304,note_on,2,0,0,,,,,0,,,,,,,64,80
26304,note_on,0,0,0,,,,,1,,,,,,,71,80
26304,note_on,0,0,0,,,,,2,,,,,,,68,80
26304,note_on,0,0,0,,,,,3,,,,,,,52,80
26304,note_on,0,0,0,,,,,4,,,,,,,40,80
26304,note_on,0,0,0,,,,,5,,,,,,,80,96
26304,note_on,0,0,0,,,,,6,,,,,,,71,96
26314,note_off,10,0,0,,,,,0,,,,,,,64,0
26314,note_off,0,0,0,,,,,5,,,,,,,80,0
26314,note_off,0,0,0,,,,,6,,,,,,,71,0
26316,note_on,2,0,0,,,,,0,,,,,,,66,80
26316,note_on,0,0,0,,,,,5,,,,,,,78,96
26316,note_on,0,0,0,,,,,6,,,,,,,69,96
26325,note_off,9,0,0,,,,,1,,,,,,,71,0
26325,note_off,0,0,0,,,,,2,,,,,,,68,0
26325,note_off,0,0,0,,,,,3,,,,,,,52,0
26325,note_off,0,0,0,,,,,4,,,,,,,40,0
26326,note_off,1,0,0,,,,,0,,,,,,,66,0
26326,note_off,0,0,0,,,,,5,,,,,,,78,0
26326,note_off,0,0,0,,,,,6,,,,,,,69,0
26328,note_on,2,0,0,,,,,0,,,,,,,68,80
26328,note_on,0,0,0,,,,,1,,,,,,,64,80
26328,note_on,0,0,0,,,,,2,,,,,,,71,80
26328,note_on,0,0,0,,,,,3,,,,,,,52,80
26328,note_on,0,0,0,,,,,4,,,,,,,40,80
26328,note_on,0,0,0,,,,,5,,,,,,,76,96
26328,note_on,0,0,0,,,,,6,,,,,,,68,96
26338,note_off,10,0,0,,,,,0,,,,,,,68,0
26338,note_off,0,0,0,,,,,1,,,,,,,64,0
26338,note_off,0,0,0,,,,,5,,,,,,,76,0
26338,note_off,0,0,0,,,,,6,,,,,,,68,0
26340,note_on,2,0,0,,,,,0,,,,,,,69,80
26340,note_on,0,0,0,,,,,1,,,,,,,66,80
26340,note_on,0,0,0,,,,,5,,,,,,,75,96
26340,note_on,0,0,0,,,,,6,,,,,,,66,96
26349,note_off,9,0,0,,,,,2,,,,,,,71,0
26349,note_off,0,0,0,,,,,3,,,,,,,52,0
26349,note_off,0,0,0,,,,,4,,,,,,,40,0
26350,note_off,1,0,0,,,,,0,,,,,,,69,0
26350,note_off,0,0,0,,,,,1,,,,,,,66,0
26350,note_off,0,0,0,,,,,5,,,,,,,75,0
26350,note_off,0,0,0,,,,,6,,,,,,,66,0
26352,note_on,2,0,0,,,,,0,,,,,,,71,80
26352,note_on,0,0,0,,,,,1,,,,,,,68,80
26352,note_on,0,0,0,,,,,2,,,,,,,64,80
26352,note_on,0,0,0,,,,,3,,,,,,,52,80
26352,note_on,0,0,0,,,,,4,,,,,,,40,80
26352,note_on,0,0,0,,,,,5,,,,,,,76,96
26352,note_on,0,0,0,,,,,6,,,,,,,64,96
26362,note_off,10,0,0,,,,,1,,,,,,,68,0
26362,note_off,0,0,0,,,,,2,,,,,,,64,0
26362,note_off,0,0,0,,,,,5,,,,,,,76,0
26362,note_off,0,0,0,,,,,6,,,,,,,64,0
26364,note_on,2,0,0,,,,,1,,,,,,,69,80
26364,note_on,0,0,0,,,,,2,,,,,,,66,80
26364,note_on,0,0,0,,,,,5,,,,,,,71,96
26364,note_on,0,0,0,,,,,6,,,,,,,68,96
26373,note_off,9,0,0,,,,,0,,,,,,,71,0
26373,note_off,0,0,0,,,,,3,,,,,,,52,0
26373,note_off,0,0,0,,,,,4,,,,,,,40,0
26374,note_off,1,0,0,,,,,1,,,,,,,69,0
26374,note_off,0,0,0,,,,,2,,,,,,,66,0
26374,note_off,0,0,0,,,,,5,,,,,,,71,0
26374,note_off,0,0,0,,,,,6,,,,,,,68,0
26376,note_on,2,0,0,,,,,0,,,,,,,76,80
26376,note_on,0,0,0,,,,,1,,,,,,,71,80
26376,note_on,0,0,0,,,,,2,,,,,,,68,80
26376,note_on,0,0,0,,,,,3,,,,,,,52,80
26376,note_on,0,0,0,,,,,4,,,,,,,40,80
26376,note_on,0,0,0,,,,,5,,,,,,,69,96
26376,note_on,0,0,0,,,,,6,,,,,,,66,96
26386,note_off,10,0,0,,,,,1,,,,,,,71,0
26386,note_off,0,0,0,,,,,2,,,,,,,68,0
26386,note_off,0,0,0,,,,,5,,,,,,,69,0
26386,note_off,0,0,0,,,,,6,,,,,,,66,0
26388,note_on,2,0,0,,,,,1,,,,,,,73,80
26388,note_on,0,0,0,,,,,2,,,,,,,69,80
26388,note_on,0,0,0,,,,,5,,,,,,,68,96
26388,note_on,0,0,0,,,,,6,,,,,,,64,96
26397,note_off,9,0,0,,,,,0,,,,,,,76,0
26397,note_off,0,0,0,,,,,3,,,,,,,52,0
26397,note_off,0,0,0,,,,,4,,,,,,,40,0
26398,note_off,1,0,0,,,,,1,,,,,,,73,0
26398,note_off,0,0,0,,,,,2,,,,,,,69,0
26398,note_off,0,0,0,,,,,5,,,,,,,68,0
26398,note_off,0,0,0,,,,,6,,,,,,,64,0
26400,note_on,2,0,0,,,,,0,,,,,,,80,80
26400,note_on,0,0,0,,,,,1,,,,,,,75,80
26400,note_on,0,0,0,,,,,2,,,,,,,71,80
26400,note_on,0,0,0,,,,,3,,,,,,,52,80
26400,note_on,0,0,0,,,,,4,,,,,,,40,80
26400,note_on,0,0,0,,,,,5,,,,,,,66,96
26400,note_on,0,0,0,,,,,6,,,,,,,63,96
26410,note_off,10,0,0,,,,,1,,,,,,,75,0
26410,note_off,0,0,0,,,,,2,,,,,,,71,0
26410,note_off,0,0,0,,,,,5,,,,,,,66,0
26410,note_off,0,0,0,,,,,6,,,,,,,63,0
26412,note_on,2,0,0,,,,,1,,,,,,,76,80
26412,note_on,0,0,0,,,,,2,,,,,,,73,80
26412,note_on,0,0,0,,,,,5,,,,,,,64,96
26412,note_on,0,0,0,,,,,6,,,,,,,61,96
26421,note_off,9,0,0,,,,,0,,,,,,,80,0
26421,note_off,0,0,0,,,,,3,,,,,,,52,0
26421,note_off,0,0,0,,,,,4,,,,,,,40,0
26422,note_off,1,0,0,,,,,1,,,,,,,76,0
26422,note_off,0,0,0,,,,,2,,,,,,,73,0
26422,note_off,0,0,0,,,,,5,,,,,,,64,0
26422,note_off,0,0,0,,,,,6,,,,,,,61,0
26424,note_on,2,0,0,,,,,0,,,,,,,83,80
26424,note_on,0,0,0,,,,,1,,,,,,,78,80
26424,note_on,0,0,0,,,,,2,,,,,,,75,80
26424,note_on,0,0,0,,,,,3,,,,,,,52,80
26424,note_on,0,0,0,,,,,4,,,,,,,40,80
26424,note_on,0,0,0,,,,,5,,,,,,,75,96
26424,note_on,0,0,0,,,,,6,,,,,,,59,96
26434,note_off,10,0,0,,,,,5,,,,,,,75,0
26434,note_off,0,0,0,,,,,6,,,,,,,59,0
26436,note_on,2,0,0,,,,,5,,,,,,,76,96
26436,note_on,0,0,0,,,,,6,,,,,,,61,96
26445,note_off,9,0,0,,,,,0,,,,,,,83,0
26445,note_off,0,0,0,,,,,1,,,,,,,78,0
26445,note_off,0,0,0,,,,,2,,,,,,,75,0
26445,note_off,0,0,0,,,,,3,,,,,,,52,0
26445,note_off,0,0,0,,,,,4,,,,,,,40,0
26446,note_off,1,0,0,,,,,5,,,,,,,76,0
26446,note_off,0,0,0,,,,,6,,,,,,,61,0
26448,note_on,2,0,0,,,,,0,,,,,,,81,80
26448,note_on,0,0,0,,,,,1,,,,,,,71,80
26448,note_on,0,0,0,,,,,2,,,,,,,76,80
26448,note_on,0,0,0,,,,,3,,,,,,,64,80
26448,note_on,0,0,0,,,,,4,,,,,,,52,80
26448,note_on,0,0,0,,,,,5,,,,,,,78,96
26448,note_on,0,0,0,,,,,6,,,,,,,63,96
26452,note_off,4,0,0,,,,,5,,,,,,,78,0
26452,note_on,0,0,0,,,,,5,,,,,,,76,96
26452,note_off,0,0,0,,,,,6,,,,,,,63,0
26452,note_on,0,0,0,,,,,6,,,,,,,61,96
26456,note_off,4,0,0,,,,,5,,,,,,,76,0
26456,note_on,0,0,0,,,,,5,,,,,,,78,96
26456,note_off,0,0,0,,,,,6,,,,,,,61,0
26456,note_on,0,0,0,,,,,6,,,,,,,63,96
26458,note_off,2,0,0,,,,,0,,,,,,,81,0
26460,note_on,2,0,0,,,,,0,,,,,,,80,80
26460,note_off,0,0,0,,,,,5,,,,,,,78,0
26460,note_on,0,0,0,,,,,5,,,,,,,76,96
26460,note_off,0,0,0,,,,,6,,,,,,,63,0
26460,note_on,0,0,0,,,,,6,,,,,,,61,96
26464,note_off,4,0,0,,,,,5,,,,,,,76,0
26464,note_on,0,0,0,,,,,5,,,,,,,78,96
26464,note_off,0,0,0,,,,,6,,,,,,,61,0
26464,note_on,0,0,0,,,,,6,,,,,,,63,96
26468,note_off,4,0,0,,,,,5,,,,,,,78,0
26468,note_on,0,0,0,,,,,5,,,,,,,76,96
26468,note_off,0,0,0,,,,,6,,,,,,,63,0
26468,note_on,0,0,0,,,,,6,,,,,,,61,96
26469,note_off,1,0,0,,,,,1,,,,,,,71,0
26469,note_off,0,0,0,,,,,2,,,,,,,76,0
26469,note_off,0,0,0,,,,,3,,,,,,,64,0
26469,note_off,0,0,0,,,,,4,,,,,,,52,0
26470,note_off,1,0,0,,,,,0,,,,,,,80,0
26472,note_on,2,0,0,,,,,0,,,,,,,78,80
26472,note_on,0,0,0,,,,,1,,,,,,,70,80
26472,note_on,0,0,0,,,,,2,,,,,,,64,80
26472,note_on,0,0,0,,,,,3,,,,,,,61,80
26472,note_on,0,0,0,,,,,4,,,,,,,49,80
26472,note_off,0,0,0,,,,,5,,,,,,,76,0
26472,note_on,0,0,0,,,,,5,,,,,,,78,96
26472,note_off,0,0,0,,,,,6,,,,,,,61,0
26472,note_on,0,0,0,,,,,6,,,,,,,63,96
26476,note_off,4,0,0,,,,,5,,,,,,,78,0
26476,note_on,0,0,0,,,,,5,,,,,,,76,96
26476,note_off,0,0,0,,,,,6,,,,,,,63,0
26476,note_on,0,0,0,,,,,6,,,,,,,61,96
26482,note_off,6,0,0,,,,,0,,,,,,,78,0
26483,note_off,1,0,0,,,,,5,,,,,,,76,0
26483,note_off,0,0,0,,,,,6,,,,,,,61,0
26484,note_on,1,0,0,,,,,0,,,,,,,76,80
26484,note_on,0,0,0,,,,,5,,,,,,,75,96
26484,note_on,0,0,0,,,,,6,,,,,,,59,96
26489,note_off,5,0,0,,,,,5,,,,,,,75,0
26489,note_off,0,0,0,,,,,6,,,,,,,59,0
26490,note_on,1,0,0,,,,,5,,,,,,,76,96
26490,note_on,0,0,0,,,,,6,,,,,,,61,96
26493,note_off,3,0,0,,,,,1,,,,,,,70,0
26493,note_off,0,0,0,,,,,2,,,,,,,64,0
26493,note_off,0,0,0,,,,,3,,,,,,,61,0
26493,note_off,0,0,0,,,,,4,,,,,,,49,0
26494,note_off,1,0,0,,,,,0,,,,,,,76,0
26495,note_off,1,0,0,,,,,5,,,,,,,76,0
26495,note_off,0,0,0,,,,,6,,,,,,,61,0
26496,note_on,1,0,0,,,,,0,,,,,,,75,80
26496,note_on,0,0,0,,,,,1,,,,,,,71,80
26496,note_on,0,0,0,,,,,2,,,,,,,71,80
26496,note_on,0,0,0,,,,,3,,,,,,,59,80
26496,note_on,0,0,0,,,,,4,,,,,,,47,80
26496,note_on,0,0,0,,,,,5,,,,,,,78,96
26496,note_on,0,0,0,,,,,6,,,,,,,63,96
26506,note_off,10,0,0,,,,,0,,,,,,,75,0
26506,note_off,0,0,0,,,,,3,,,,,,,59,0
26506,note_off,0,0,0,,,,,4,,,,,,,47,0
26506,note_off,0,0,0,,,,,6,,,,,,,63,0
26508,note_on,2,0,0,,,,,0,,,,,,,71,80
26508,note_on,0,0,0,,,,,3,,,,,,,58,80
26508,note_on,0,0,0,,,,,4,,,,,,,46,80
26508,note_on,0,0,0,,,,,6,,,,,,,64,96
26517,note_off,9,0,0,,,,,1,,,,,,,71,0
26517,note_off,0,0,0,,,,,2,,,,,,,71,0
26517,note_off,0,0,0,,,,,5,,,,,,,78,0
26518,note_off,1,0,0,,,,,0,,,,,,,71,0
26518,note_off,0,0,0,,,,,3,,,,,,,58,0
26518,note_off,0,0,0,,,,,4,,,,,,,46,0
26518,note_off,0,0,0,,,,,6,,,,,,,64,0
26520,note_on,2,0,0,,,,,0,,,,,,,78,80
26520,note_on,0,0,0,,,,,1,,,,,,,75,80
26520,note_on,0,0,0,,,,,2,,,,,,,71,80
26520,note_on,0,0,0,,,,,3,,,,,,,59,80
26520,note_on,0,0,0,,,,,4,,,,,,,47,80
26520,note_on,0,0,0,,,,,5,,,,,,,71,96
26520,note_on,0,0,0,,,,,6,,,,,,,63,96
26530,note_off,10,0,0,,,,,3,,,,,,,59,0
26530,note_off,0,0,0,,,,,4,,,,,,,47,0
26530,note_off,0,0,0,,,,,6,,,,,,,63,0
26532,note_on,2,0,0,,,,,3,,,,,,,61,80
26532,note_on,0,0,0,,,,,4,,,,,,,49,80
26532,note_on,0,0,0,,,,,6,,,,,,,61,96
26541,note_off,9,0,0,,,,,0,,,,,,,78,0
26541,note_off,0,0,0,,,,,1,,,,,,,75,0
26541,note_off,0,0,0,,,,,2,,,,,,,71,0
26541,note_off,0,0,0,,,,,5,,,,,,,71,0
26542,note_off,1,0,0,,,,,3,,,,,,,61,0
26542,note_off,0,0,0,,,,,4,,,,,,,49,0
26542,note_off,0,0,0,,,,,6,,,,,,,61,0
26544,note_on,2,0,0,,,,,0,,,,,,,78,80
26544,note_on,0,0,0,,,,,1,,,,,,,75,80
26544,note_on,0,0,0,,,,,2,,,,,,,71,80
26544,note_on,0,0,0,,,,,3,,,,,,,59,80
26544,note_on,0,0,0,,,,,4,,,,,,,47,80
26544,note_on,0,0,0,,,,,6,,,,,,,59,96
26554,note_off,10,0,0,,,,,3,,,,,,,59,0
26554,note_off,0,0,0,,,,,4,,,,,,,47,0
26554,note_off,0,0,0,,,,,6,,,,,,,59,0
26556,note_on,2,0,0,,,,,3,,,,,,,57,80
26556,note_on,0,0,0,,,,,4,,,,,,,45,80
26556,note_on,0,0,0,,,,,6,,,,,,,57,96
26565,note_off,9,0,0,,,,,0,,,,,,,78,0
26565,note_off,0,0,0,,,,,1,,,,,,,75,0
26565,note_off,0,0,0,,,,,2,,,,,,,71,0
26566,note_off,1,0,0,,,,,3,,,,,,,57,0
26566,note_off,0,0,0,,,,,4,,,,,,,45,0
26566,note_off,0,0,0,,,,,6,,,,,,,57,0
26568,note_on,2,0,0,,,,,0,,,,,,,78,80
26568,note_on,0,0,0,,,,,1,,,,,,,75,80
26568,note_on,0,0,0,,,,,2,,,,,,,71,80
26568,note_on,0,0,0,,,,,3,,,,,,,56,80
26568,note_on,0,0,0,,,,,4,,,,,,,44,80
26568,note_on,0,0,0,,,,,6,,,,,,,56,96
26578,note_off,10,0,0,,,,,6,,,,,,,56,0
26580,note_on,2,0,0,,,,,6,,,,,,,57,96
26589,note_off,9,0,0,,,,,0,,,,,,,78,0
26589,note_off,0,0,0,,,,,1,,,,,,,75,0
26589,note_off,0,0,0,,,,,2,,,,,,,71,0
26589,note_off,0,0,0,,,,,3,,,,,,,56,0
26589,note_off,0,0,0,,,,,4,,,,,,,44,0
26590,note_off,1,0,0,,,,,6,,,,,,,57,0
26592,note_on,2,0,0,,,,,0,,,,,,,80,80
26592,note_on,0,0,0,,,,,5,,,,,,,83,96
26592,note_on,0,0,0,,,,,6,,,,,,,56,96
26602,note_off,10,0,0,,,,,0,,,,,,,80,0
26602,note_off,0,0,0,,,,,6,,,,,,,56,0
26604,note_on,2,0,0,,,,,0,,,,,,,81,80
26604,note_on,0,0,0,,,,,6,,,,,,,54,96
26613,note_off,9,0,0,,,,,5,,,,,,,83,0
26614,note_off,1,0,0,,,,,0,,,,,,,81,0
26614,note_off,0,0,0,,,,,6,,,,,,,54,0
26616,note_on,2,0,0,,,,,0,,,,,,,83,80
26616,note_on,0,0,0,,,,,5,,,,,,,83,96
26616,note_on,0,0,0,,,,,6,,,,,,,52,96
26626,note_off,10,0,0,,,,,0,,,,,,,83,0
26626,note_off,0,0,0,,,,,6,,,,,,,52,0
26628,note_on,2,0,0,,,,,0,,,,,,,80,80
26628,note_on,0,0,0,,,,,6,,,,,,,51,96
26637,note_off,9,0,0,,,,,5,,,,,,,83,0
26638,note_off,1,0,0,,,,,0,,,,,,,80,0
26638,note_off,0,0,0,,,,,6,,,,,,,51,0
26640,note_on,2,0,0,,,,,0,,,,,,,76,80
26640,note_on,0,0,0,,,,,5,,,,,,,83,96
26640,note_on,0,0,0,,,,,6,,,,,,,49,96
26648,note_off,8,0,0,,,,,0,,,,,,,76,0
26648,note_on,0,0,0,,,,,0,,,,,,,75,80
26650,note_off,2,0,0,,,,,5,,,,,,,83,0
26652,note_on,2,0,0,,,,,5,,,,,,,81,96
26656,note_off,4,0,0,,,,,0,,,,,,,75,0
26656,note_on,0,0,0,,,,,0,,,,,,,73,80
26661,note_off,5,0,0,,,,,6,,,,,,,49,0
26662,note_off,1,0,0,,,,,5,,,,,,,81,0
26663,note_off,1,0,0,,,,,0,,,,,,,73,0
26664,note_on,1,0,0,,,,,0,,,,,,,76,80
26664,note_on,0,0,0,,,,,1,,,,,,,73,80
26664,note_on,0,0,0,,,,,2,,,,,,,68,80
26664,note_on,0,0,0,,,,,3,,,,,,,61,80
26664,note_on,0,0,0,,,,,4,,,,,,,49,80
26664,note_on,0,0,0,,,,,5,,,,,,,80,96
26664,note_on,0,0,0,,,,,6,,,,,,,61,96
26674,note_off,10,0,0,,,,,5,,,,,,,80,0
26674,note_off,0,0,0,,,,,6,,,,,,,61,0
26676,note_on,2,0,0,,,,,5,,,,,,,78,96
26676,note_on,0,0,0,,,,,6,,,,,,,63,96
26685,note_off,9,0,0,,,,,0,,,,,,,76,0
26685,note_off,0,0,0,,,,,1,,,,,,,73,0
26685,note_off,0,0,0,,,,,2,,,,,,,68,0
26685,note_off,0,0,0,,,,,3,,,,,,,61,0
26685,note_off,0,0,0,,,,,4,,,,,,,49,0
26686,note_off,1,0,0,,,,,5,,,,,,,78,0
26686,note_off,0,0,0,,,,,6,,,,,,,63,0
26688,note_on,2,0,0,,,,,0,,,,,,,76,80
26688,note_on,0,0,0,,,,,1,,,,,,,73,80
26688,note_on,0,0,0,,,,,2,,,,,,,68,80
26688,note_on,0,0,0,,,,,3,,,,,,,49,80
26688,note_on,0,0,0,,,,,4,,,,,,,37,80
26688,note_on,0,0,0,,,,,5,,,,,,,76,96
26688,note_on,0,0,0,,,,,6,,,,,,,61,96
26698,note_off,10,0,0,,,,,5,,,,,,,76,0
26698,note_off,0,0,0,,,,,6,,,,,,,61,0
26700,note_on,2,0,0,,,,,5,,,,,,,75,96
26700,note_on,0,0,0,,,,,6,,,,,,,59,96
26709,note_off,9,0,0,,,,,0,,,,,,,76,0
26709,note_off,0,0,0,,,,,1,,,,,,,73,0
26709,note_off,0,0,0,,,,,2,,,,,,,68,0
26709,note_off,0,0,0,,,,,3,,,,,,,49,0
26709,note_off,0,0,0,,,,,4,,,,,,,37,0
26710,note_off,1,0,0,,,,,5,,,,,,,75,0
26710,note_off,0,0,0,,,,,6,,,,,,,59,0
26712,note_on,2,0,0,,,,,0,,,,,,,76,80
26712,note_on,0,0,0,,,,,1,,,,,,,73,80
26712,note_on,0,0,0,,,,,2,,,,,,,69,80
26712,note_on,0,0,0,,,,,3,,,,,,,54,80
26712,note_on,0,0,0,,,,,4,,,,,,,42,80
26712,note_on,0,0,0,,,,,5,,,,,,,73,96
26712,note_on,0,0,0,,,,,6,,,,,,,57,96
26722,note_off,10,0,0,,,,,5,,,,,,,73,0
26722,note_off,0,0,0,,,,,6,,,,,,,57,0
26724,note_on,2,0,0,,,,,5,,,,,,,76,96
26724,note_on,0,0,0,,,,,6,,,,,,,56,96
26733,note_off,9,0,0,,,,,0,,,,,,,76,0
26733,note_off,0,0,0,,,,,1,,,,,,,73,0
26733,note_off,0,0,0,,,,,2,,,,,,,69,0
26733,note_off,0,0,0,,,,,3,,,,,,,54,0
26733,note_off,0,0,0,,,,,4,,,,,,,42,0
26734,note_off,1,0,0,,,,,5,,,,,,,76,0
26734,note_off,0,0,0,,,,,6,,,,,,,56,0
26736,note_on,2,0,0,,,,,0,,,,,,,78,80
26736,note_on,0,0,0,,,,,5,,,,,,,81,96
26736,note_on,0,0,0,,,,,6,,,,,,,54,96
26746,note_off,10,0,0,,,,,0,,,,,,,78,0
26746,note_off,0,0,0,,,,,6,,,,,,,54,0
26748,note_on,2,0,0,,,,,0,,,,,,,80,80
26748,note_on,0,0,0,,,,,6,,,,,,,52,96
26757,note_off,9,0,0,,,,,5,,,,,,,81,0
26758,note_off,1,0,0,,,,,0,,,,,,,80,0
26758,note_off,0,0,0,,,,,6,,,,,,,52,0
26760,note_on,2,0,0,,,,,0,,,,,,,81,80
26760,note_on,0,0,0,,,,,5,,,,,,,81,96
26760,note_on,0,0,0,,,,,6,,,,,,,51,96
26770,note_off,10,0,0,,,,,0,,,,,,,81,0
26770,note_off,0,0,0,,,,,6,,,,,,,51,0
26772,note_on,2,0,0,,,,,0,,,,,,,78,80
26772,note_on,0,0,0,,,,,6,,,,,,,49,96
26781,note_off,9,0,0,,,,,5,,,,,,,81,0
26782,note_off,1,0,0,,,,,0,,,,,,,78,0
26782,note_off,0,0,0,,,,,6,,,,,,,49,0
26784,note_on,2,0,0,,,,,0,,,,,,,75,80
26784,note_on,0,0,0,,,,,5,,,,,,,81,96
26784,note_on,0,0,0,,,,,6,,,,,,,47,96
26794,note_off,10,0,0,,,,,5,,,,,,,81,0
26794,note_off,0,0,0,,,,,6,,,,,,,47,0
26796,note_on,2,0,0,,,,,5,,,,,,,80,96
26796,note_on,0,0,0,,,,,6,,,,,,,59,96
26805,note_off,9,0,0,,,,,0,,,,,,,75,0
26806,note_off,1,0,0,,,,,5,,,,,,,80,0
26806,note_off,0,0,0,,,,,6,,,,,,,59,0
26808,note_on,2,0,0,,,,,0,,,,,,,78,80
26808,note_on,0,0,0,,,,,1,,,,,,,75,80
26808,note_on,0,0,0,,,,,2,,,,,,,59,80
26808,note_on,0,0,0,,,,,3,,,,,,,47,80
26808,note_on,0,0,0,,,,,4,,,,,,,35,80
26808,note_on,0,0,0,,,,,5,,,,,,,78,96
26808,note_on,0,0,0,,,,,6,,,,,,,57,96
26818,note_off,10,0,0,,,,,2,,,,,,,59,0
26818,note_off,0,0,0,,,,,5,,,,,,,78,0
26818,note_off,0,0,0,,,,,6,,,,,,,57,0
26820,note_on,2,0,0,,,,,2,,,,,,,61,80
26820,note_on,0,0,0,,,,,5,,,,,,,76,96
26820,note_on,0,0,0,,,,,6,,,,,,,56,96
26829,note_off,9,0,0,,,,,0,,,,,,,78,0
26829,note_off,0,0,0,,,,,1,,,,,,,75,0
26829,note_off,0,0,0,,,,,3,,,,,,,47,0
26829,note_off,0,0,0,,,,,4,,,,,,,35,0
26830,note_off,1,0,0,,,,,2,,,,,,,61,0
26830,note_off,0,0,0,,,,,5,,,,,,,76,0
26830,note_off,0,0,0,,,,,6,,,,,,,56,0
26832,note_on,2,0,0,,,,,0,,,,,,,75,80
26832,note_on,0,0,0,,,,,1,,,,,,,71,80
26832,note_on,0,0,0,,,,,2,,,,,,,63,80
26832,note_on,0,0,0,,,,,3,,,,,,,47,80
26832,note_on,0,0,0,,,,,4,,,,,,,35,80
26832,note_on,0,0,0,,,,,5,,,,,,,75,96
26832,note_on,0,0,0,,,,,6,,,,,,,54,96
26842,note_off,10,0,0,,,,,2,,,,,,,63,0
26842,note_off,0,0,0,,,,,5,,,,,,,75,0
26842,note_off,0,0,0,,,,,6,,,,,,,54,0
26844,note_on,2,0,0,,,,,2,,,,,,,64,80
26844,note_on,0,0,0,,,,,5,,,,,,,73,96
26844,note_on,0,0,0,,,,,6,,,,,,,52,96
26853,note_off,9,0,0,,,,,0,,,,,,,75,0
26853,note_off,0,0,0,,,,,1,,,,,,,71,0
26853,note_off,0,0,0,,,,,3,,,,,,,47,0
26853,note_off,0,0,0,,,,,4,,,,,,,35,0
26854,note_off,1,0,0,,,,,2,,,,,,,64,0
26854,note_off,0,0,0,,,,,5,,,,,,,73,0
26854,note_off,0,0,0,,,,,6,,,,,,,52,0
26856,note_on,2,0,0,,,,,0,,,,,,,71,80
26856,note_on,0,0,0,,,,,1,,,,,,,66,80
26856,note_on,0,0,0,,,,,2,,,,,,,66,80
26856,note_on,0,0,0,,,,,3,,,,,,,47,80
26856,note_on,0,0,0,,,,,4,,,,,,,35,80
26856,note_on,0,0,0,,,,,5,,,,,,,71,96
26856,note_on,0,0,0,,,,,6,,,,,,,51,96
26866,note_off,10,0,0,,,,,2,,,,,,,66,0
26866,note_off,0,0,0,,,,,5,,,,,,,71,0
26868,note_on,2,0,0,,,,,2,,,,,,,68,80
26868,note_on,0,0,0,,,,,5,,,,,,,73,96
26877,note_off,9,0,0,,,,,0,,,,,,,71,0
26877,note_off,0,0,0,,,,,1,,,,,,,66,0
26877,note_off,0,0,0,,,,,3,,,,,,,47,0
26877,note_off,0,0,0,,,,,4,,,,,,,35,0
26877,note_off,0,0,0,,,,,6,,,,,,,51,0
26878,note_off,1,0,0,,,,,2,,,,,,,68,0
26878,note_off,0,0,0,,,,,5,,,,,,,73,0
26880,note_on,2,0,0,,,,,0,,,,,,,75,80
26880,note_on,0,0,0,,,,,1,,,,,,,71,80
26880,note_on,0,0,0,,,,,2,,,,,,,66,80
26880,note_on,0,0,0,,,,,3,,,,,,,47,80
26880,note_on,0,0,0,,,,,4,,,,,,,35,80
26880,note_on,0,0,0,,,,,5,,,,,,,75,96
26880,note_on,0,0,0,,,,,6,,,,,,,59,96
26890,note_off,10,0,0,,,,,0,,,,,,,75,0
26890,note_off,0,0,0,,,,,2,,,,,,,66,0
26890,note_off,0,0,0,,,,,5,,,,,,,75,0
26892,note_on,2,0,0,,,,,0,,,,,,,73,80
26892,note_on,0,0,0,,,,,2,,,,,,,64,80
26892,note_on,0,0,0,,,,,5,,,,,,,76,96
26901,note_off,9,0,0,,,,,1,,,,,,,71,0
26901,note_off,0,0,0,,,,,3,,,,,,,47,0
26901,note_off,0,0,0,,,,,4,,,,,,,35,0
26901,note_off,0,0,0,,,,,6,,,,,,,59,0
26902,note_off,1,0,0,,,,,0,,,,,,,73,0
26902,note_off,0,0,0,,,,,2,,,,,,,64,0
26902,note_off,0,0,0,,,,,5,,,,,,,76,0
26904,note_on,2,0,0,,,,,0,,,,,,,71,80
26904,note_on,0,0,0,,,,,1,,,,,,,66,80
26904,note_on,0,0,0,,,,,2,,,,,,,63,80
26904,note_on,0,0,0,,,,,3,,,,,,,47,80
26904,note_on,0,0,0,,,,,4,,,,,,,35,80
26904,note_on,0,0,0,,,,,5,,,,,,,78,96
26904,note_on,0,0,0,,,,,6,,,,,,,47,96
26914,note_off,10,0,0,,,,,0,,,,,,,71,0
26914,note_off,0,0,0,,,,,2,,,,,,,63,0
26914,note_off,0,0,0,,,,,5,,,,,,,78,0
26916,note_on,2,0,0,,,,,0,,,,,,,69,80
26916,note_on,0,0,0,,,,,2,,,,,,,61,80
26916,note_on,0,0,0,,,,,5,,,,,,,69,96
26925,note_off,9,0,0,,,,,1,,,,,,,66,0
26925,note_off,0,0,0,,,,,3,,,,,,,47,0
26925,note_off,0,0,0,,,,,4,,,,,,,35,0
26925,note_off,0,0,0,,,,,6,,,,,,,47,0
26926,note_off,1,0,0,,,,,0,,,,,,,69,0
26926,note_off,0,0,0,,,,,2,,,,,,,61,0
26926,note_off,0,0,0,,,,,5,,,,,,,69,0
26928,note_on,2,0,0,,,,,0,,,,,,,68,80
26928,note_on,0,0,0,,,,,1,,,,,,,64,80
26928,note_on,0,0,0,,,,,2,,,,,,,59,80
26928,note_on,0,0,0,,,,,3,,,,,,,52,80
26928,note_on,0,0,0,,,,,4,,,,,,,40,80
26928,note_on,0,0,0,,,,,5,,,,,,,68,96
26928,note_on,0,0,0,,,,,6,,,,,,,40,96
26938,note_off,10,0,0,,,,,1,,,,,,,64,0
26938,note_off,0,0,0,,,,,5,,,,,,,68,0
26938,note_off,0,0,0,,,,,6,,,,,,,40,0
26940,note_on,2,0,0,,,,,1,,,,,,,63,80
26940,note_on,0,0,0,,,,,5,,,,,,,71,96
26940,note_on,0,0,0,,,,,6,,,,,,,52,96
26949,note_off,9,0,0,,,,,0,,,,,,,68,0
26949,note_off,0,0,0,,,,,2,,,,,,,59,0
26949,note_off,0,0,0,,,,,3,,,,,,,52,0
26949,note_off,0,0,0,,,,,4,,,,,,,40,0
26950,note_off,1,0,0,,,,,1,,,,,,,63,0
26950,note_off,0,0,0,,,,,5,,,,,,,71,0
26950,note_off,0,0,0,,,,,6,,,,,,,52,0
26952,note_on,2,0,0,,,,,0,,,,,,,83,80
26952,note_on,0,0,0,,,,,1,,,,,,,64,80
26952,note_on,0,0,0,,,,,2,,,,,,,68,80
26952,note_on,0,0,0,,,,,3,,,,,,,40,80
26952,note_on,0,0,0,,,,,4,,,,,,,28,80
26952,note_on,0,0,0,,,,,5,,,,,,,64,96
26952,note_on,0,0,0,,,,,6,,,,,,,50,96
26962,note_off,10,0,0,,,,,1,,,,,,,64,0
26962,note_off,0,0,0,,,,,5,,,,,,,64,0
26962,note_off,0,0,0,,,,,6,,,,,,,50,0
26964,note_on,2,0,0,,,,,1,,,,,,,66,80
26964,note_on,0,0,0,,,,,5,,,,,,,66,96
26964,note_on,0,0,0,,,,,6,,,,,,,49,96
26973,note_off,9,0,0,,,,,0,,,,,,,83,0
26973,note_off,0,0,0,,,,,2,,,,,,,68,0
26973,note_off,0,0,0,,,,,3,,,,,,,40,0
26973,note_off,0,0,0,,,,,4,,,,,,,28,0
26974,note_off,1,0,0,,,,,1,,,,,,,66,0
26974,note_off,0,0,0,,,,,5,,,,,,,66,0
26974,note_off,0,0,0,,,,,6,,,,,,,49,0
26976,note_on,2,0,0,,,,,0,,,,,,,80,80
26976,note_on,0,0,0,,,,,1,,,,,,,68,80
26976,note_on,0,0,0,,,,,2,,,,,,,64,80
26976,note_on,0,0,0,,,,,3,,,,,,,40,80
26976,note_on,0,0,0,,,,,4,,,,,,,28,80
26976,note_on,0,0,0,,,,,5,,,,,,,68,96
26976,note_on,0,0,0,,,,,6,,,,,,,47,96
26986,note_off,10,0,0,,,,,1,,,,,,,68,0
26986,note_off,0,0,0,,,,,5,,,,,,,68,0
26986,note_off,0,0,0,,,,,6,,,,,,,47,0
26988,note_on,2,0,0,,,,,1,,,,,,,69,80
26988,note_on,0,0,0,,,,,5,,,,,,,69,96
26988,note_on,0,0,0,,,,,6,,,,,,,45,96
26997,note_off,9,0,0,,,,,0,,,,,,,80,0
26997,note_off,0,0,0,,,,,2,,,,,,,64,0
26997,note_off,0,0,0,,,,,3,,,,,,,40,0
26997,note_off,0,0,0,,,,,4,,,,,,,28,0
26998,note_off,1,0,0,,,,,1,,,,,,,69,0
26998,note_off,0,0,0,,,,,5,,,,,,,69,0
26998,note_off,0,0,0,,,,,6,,,,,,,45,0
27000,note_on,2,0,0,,,,,0,,,,,,,76,80
27000,note_on,0,0,0,,,,,1,,,,,,,71,80
27000,note_on,0,0,0,,,,,2,,,,,,,59,80
27000,note_on,0,0,0,,,,,3,,,,,,,40,80
27000,note_on,0,0,0,,,,,4,,,,,,,28,80
27000,note_on,0,0,0,,,,,5,,,,,,,71,96
27000,note_on,0,0,0,,,,,6,,,,,,,44,96
27010,note_off,10,0,0,,,,,1,,,,,,,71,0
27010,note_off,0,0,0,,,,,5,,,,,,,71,0
27012,note_on,2,0,0,,,,,1,,,,,,,73,80
27012,note_on,0,0,0,,,,,5,,,,,,,73,96
27021,note_off,9,0,0,,,,,0,,,,,,,76,0
27021,note_off,0,0,0,,,,,2,,,,,,,59,0
27021,note_off,0,0,0,,,,,3,,,,,,,40,0
27021,note_off,0,0,0,,,,,4,,,,,,,28,0
27021,note_off,0,0,0,,,,,6,,,,,,,44,0
27022,note_off,1,0,0,,,,,1,,,,,,,73,0
27022,note_off,0,0,0,,,,,5,,,,,,,73,0
27024,note_on,2,0,0,,,,,0,,,,,,,80,80
27024,note_on,0,0,0,,,,,1,,,,,,,71,80
27024,note_on,0,0,0,,,,,2,,,,,,,64,80
27024,note_on,0,0,0,,,,,3,,,,,,,40,80
27024,note_on,0,0,0,,,,,4,,,,,,,28,80
27024,note_on,0,0,0,,,,,5,,,,,,,74,96
27024,note_on,0,0,0,,,,,6,,,,,,,52,96
27034,note_off,10,0,0,,,,,0,,,,,,,80,0
27034,note_off,0,0,0,,,,,1,,,,,,,71,0
27034,note_off,0,0,0,,,,,5,,,,,,,74,0
27036,note_on,2,0,0,,,,,0,,,,,,,78,80
27036,note_on,0,0,0,,,,,1,,,,,,,69,80
27036,note_on,0,0,0,,,,,5,,,,,,,78,96
27045,note_off,9,0,0,,,,,2,,,,,,,64,0
27045,note_off,0,0,0,,,,,3,,,,,,,40,0
27045,note_off,0,0,0,,,,,4,,,,,,,28,0
27045,note_off,0,0,0,,,,,6,,,,,,,52,0
27046,note_off,1,0,0,,,,,0,,,,,,,78,0
27046,note_off,0,0,0,,,,,1,,,,,,,69,0
27046,note_off,0,0,0,,,,,5,,,,,,,78,0
27048,note_on,2,0,0,,,,,0,,,,,,,76,80
27048,note_on,0,0,0,,,,,1,,,,,,,68,80
27048,note_on,0,0,0,,,,,2,,,,,,,59,80
27048,note_on,0,0,0,,,,,3,,,,,,,40,80
27048,note_on,0,0,0,,,,,4,,,,,,,28,80
27048,note_on,0,0,0,,,,,5,,,,,,,76,96
27048,note_on,0,0,0,,,,,6,,,,,,,40,96
27058,note_off,10,0,0,,,,,0,,,,,,,76,0
27058,note_off,0,0,0,,,,,1,,,,,,,68,0
27058,note_off,0,0,0,,,,,5,,,,,,,76,0
27060,note_on,2,0,0,,,,,0,,,,,,,74,80
27060,note_on,0,0,0,,,,,1,,,,,,,66,80
27060,note_on,0,0,0,,,,,5,,,,,,,74,96
27069,note_off,9,0,0,,,,,2,,,,,,,59,0
27069,note_off,0,0,0,,,,,3,,,,,,,40,0
27069,note_off,0,0,0,,,,,4,,,,,,,28,0
27069,note_off,0,0,0,,,,,6,,,,,,,40,0
27070,note_off,1,0,0,,,,,0,,,,,,,74,0
27070,note_off,0,0,0,,,,,1,,,,,,,66,0
27070,note_off,0,0,0,,,,,5,,,,,,,74,0
27072,note_on,2,0,0,,,,,0,,,,,,,73,80
27072,note_on,0,0,0,,,,,1,,,,,,,64,80
27072,note_on,0,0,0,,,,,2,,,,,,,61,80
27072,note_on,0,0,0,,,,,3,,,,,,,45,80
27072,note_on,0,0,0,,,,,4,,,,,,,33,80
27072,note_on,0,0,0,,,,,5,,,,,,,73,96
27072,note_on,0,0,0,,,,,6,,,,,,,45,96
27082,note_off,10,0,0,,,,,0,,,,,,,73,0
27082,note_off,0,0,0,,,,,5,,,,,,,73,0
27082,note_off,0,0,0,,,,,6,,,,,,,45,0
27084,note_on,2,0,0,,,,,0,,,,,,,76,80
27084,note_on,0,0,0,,,,,5,,,,,,,76,96
27084,note_on,0,0,0,,,,,6,,,,,,,49,96
27093,note_off,9,0,0,,,,,1,,,,,,,64,0
27093,note_off,0,0,0,,,,,2,,,,,,,61,0
27093,note_off,0,0,0,,,,,3,,,,,,,45,0
27093,note_off,0,0,0,,,,,4,,,,,,,33,0
27094,note_off,1,0,0,,,,,0,,,,,,,76,0
27094,note_off,0,0,0,,,,,5,,,,,,,76,0
27094,note_off,0,0,0,,,,,6,,,,,,,49,0
27096,note_on,2,0,0,,,,,0,,,,,,,81,80
27096,note_on,0,0,0,,,,,1,,,,,,,63,80
27096,note_on,0,0,0,,,,,2,,,,,,,59,80
27096,note_on,0,0,0,,,,,3,,,,,,,54,80
27096,note_on,0,0,0,,,,,4,,,,,,,42,80
27096,note_on,0,0,0,,,,,5,,,,,,,81,96
27096,note_on,0,0,0,,,,,6,,,,,,,54,96
27106,note_off,10,0,0,,,,,0,,,,,,,81,0
27106,note_off,0,0,0,,,,,6,,,,,,,54,0
27108,note_on,2,0,0,,,,,0,,,,,,,80,80
27108,note_on,0,0,0,,,,,6,,,,,,,56,96
27117,note_off,9,0,0,,,,,1,,,,,,,63,0
27117,note_off,0,0,0,,,,,2,,,,,,,59,0
27117,note_off,0,0,0,,,,,3,,,,,,,54,0
27117,note_off,0,0,0,,,,,4,,,,,,,42,0
27117,note_off,0,0,0,,,,,5,,,,,,,81,0
27118,note_off,1,0,0,,,,,0,,,,,,,80,0
27118,note_off,0,0,0,,,,,6,,,,,,,56,0
27120,note_on,2,0,0,,,,,0,,,,,,,78,80
27120,note_on,0,0,0,,,,,6,,,,,,,57,96
27130,note_off,10,0,0,,,,,0,,,,,,,78,0
27130,note_off,0,0,0,,,,,6,,,,,,,57,0
27132,note_on,2,0,0,,,,,0,,,,,,,81,80
27132,note_on,0,0,0,,,,,6,,,,,,,54,96
27142,note_off,10,0,0,,,,,0,,,,,,,81,0
27142,note_off,0,0,0,,,,,6,,,,,,,54,0
27144,note_on,2,0,0,,,,,0,,,,,,,71,80
27144,note_on,0,0,0,,,,,1,,,,,,,64,80
27144,note_on,0,0,0,,,,,2,,,,,,,59,80
27144,note_on,0,0,0,,,,,3,,,,,,,44,80
27144,note_on,0,0,0,,,,,4,,,,,,,32,80
27144,note_on,0,0,0,,,,,5,,,,,,,71,96
27144,note_on,0,0,0,,,,,6,,,,,,,56,96
27154,note_off,10,0,0,,,,,0,,,,,,,71,0
27154,note_off,0,0,0,,,,,5,,,,,,,71,0
27154,note_off,0,0,0,,,,,6,,,,,,,56,0
27156,note_on,2,0,0,,,,,0,,,,,,,76,80
27156,note_on,0,0,0,,,,,5,,,,,,,76,96
27156,note_on,0,0,0,,,,,6,,,,,,,59,96
27165,note_off,9,0,0,,,,,1,,,,,,,64,0
27165,note_off,0,0,0,,,,,2,,,,,,,59,0
27165,note_off,0,0,0,,,,,3,,,,,,,44,0
27165,note_off,0,0,0,,,,,4,,,,,,,32,0
27166,note_off,1,0,0,,,,,0,,,,,,,76,0
27166,note_off,0,0,0,,,,,5,,,,,,,76,0
27166,note_off,0,0,0,,,,,6,,,,,,,59,0
27168,note_on,2,0,0,,,,,0,,,,,,,80,80
27168,note_on,0,0,0,,,,,1,,,,,,,64,80
27168,note_on,0,0,0,,,,,2,,,,,,,59,80
27168,note_on,0,0,0,,,,,3,,,,,,,52,80
27168,note_on,0,0,0,,,,,4,,,,,,,40,80
27168,note_on,0,0,0,,,,,5,,,,,,,80,96
27168,note_on,0,0,0,,,,,6,,,,,,,64,96
27178,note_off,10,0,0,,,,,0,,,,,,,80,0
27178,note_off,0,0,0,,,,,6,,,,,,,64,0
27180,note_on,2,0,0,,,,,0,,,,,,,78,80
27180,note_on,0,0,0,,,,,6,,,,,,,66,96
27189,note_off,9,0,0,,,,,1,,,,,,,64,0
27189,note_off,0,0,0,,,,,2,,,,,,,59,0
27189,note_off,0,0,0,,,,,3,,,,,,,52,0
27189,note_off,0,0,0,,,,,4,,,,,,,40,0
27189,note_off,0,0,0,,,,,5,,,,,,,80,0
27190,note_off,1,0,0,,,,,0,,,,,,,78,0
27190,note_off,0,0,0,,,,,6,,,,,,,66,0
27192,note_on,2,0,0,,,,,0,,,,,,,76,80
27192,note_on,0,0,0,,,,,6,,,,,,,68,96
27202,note_off,10,0,0,,,,,0,,,,,,,76,0
27202,note_off,0,0,0,,,,,6,,,,,,,68,0
27204,note_on,2,0,0,,,,,0,,,,,,,80,80
27204,note_on,0,0,0,,,,,6,,,,,,,64,96
27214,note_off,10,0,0,,,,,0,,,,,,,80,0
27214,note_off,0,0,0,,,,,6,,,,,,,64,0
27216,note_on,2,0,0,,,,,0,,,,,,,69,80
27216,note_on,0,0,0,,,,,3,,,,,,,42,80
27216,note_on,0,0,0,,,,,4,,,,,,,30,80
27216,note_on,0,0,0,,,,,5,,,,,,,69,96
27216,note_on,0,0,0,,,,,6,,,,,,,66,96
27226,note_off,10,0,0,,,,,5,,,,,,,69,0
27228,note_on,2,0,0,,,,,5,,,,,,,73,96
27237,note_off,9,0,0,,,,,0,,,,,,,69,0
27237,note_off,0,0,0,,,,,3,,,,,,,42,0
27237,note_off,0,0,0,,,,,4,,,,,,,30,0
27237,note_off,0,0,0,,,,,6,,,,,,,66,0
27238,note_off,1,0,0,,,,,5,,,,,,,73,0
27240,note_on,2,0,0,,,,,0,,,,,,,78,80
27240,note_on,0,0,0,,,,,1,,,,,,,69,80
27240,note_on,0,0,0,,,,,2,,,,,,,61,80
27240,note_on,0,0,0,,,,,3,,,,,,,54,80
27240,note_on,0,0,0,,,,,4,,,,,,,42,80
27240,note_on,0,0,0,,,,,5,,,,,,,69,96
27240,note_on,0,0,0,,,,,6,,,,,,,61,96
27250,note_off,10,0,0,,,,,3,,,,,,,54,0
27250,note_off,0,0,0,,,,,4,,,,,,,42,0
27250,note_off,0,0,0,,,,,5,,,,,,,69,0
27250,note_off,0,0,0,,,,,6,,,,,,,61,0
27252,note_on,2,0,0,,,,,3,,,,,,,52,80
27252,note_on,0,0,0,,,,,4,,,,,,,40,80
27252,note_on,0,0,0,,,,,5,,,,,,,68,96
27252,note_on,0,0,0,,,,,6,,,,,,,59,96
27261,note_off,9,0,0,,,,,0,,,,,,,78,0
27261,note_off,0,0,0,,,,,1,,,,,,,69,0
27261,note_off,0,0,0,,,,,2,,,,,,,61,0
27262,note_off,1,0,0,,,,,3,,,,,,,52,0
27262,note_off,0,0,0,,,,,4,,,,,,,40,0
27262,note_off,0,0,0,,,,,5,,,,,,,68,0
27262,note_off,0,0,0,,,,,6,,,,,,,59,0
27264,note_on,2,0,0,,,,,0,,,,,,,78,80
27264,note_on,0,0,0,,,,,1,,,,,,,69,80
27264,note_on,0,0,0,,,,,2,,,,,,,61,80
27264,note_on,0,0,0,,,,,3,,,,,,,54,80
27264,note_on,0,0,0,,,,,4,,,,,,,42,80
27264,note_on,0,0,0,,,,,5,,,,,,,66,96
27264,note_on,0,0,0,,,,,6,,,,,,,57,96
27274,note_off,10,0,0,,,,,3,,,,,,,54,0
27274,note_off,0,0,0,,,,,4,,,,,,,42,0
27274,note_off,0,0,0,,,,,5,,,,,,,66,0
27274,note_off,0,0,0,,,,,6,,,,,,,57,0
27276,note_on,2,0,0,,,,,3,,,,,,,56,80
27276,note_on,0,0,0,,,,,4,,,,,,,44,80
27276,note_on,0,0,0,,,,,5,,,,,,,64,96
27276,note_on,0,0,0,,,,,6,,,,,,,56,96
27285,note_off,9,0,0,,,,,0,,,,,,,78,0
27285,note_off,0,0,0,,,,,1,,,,,,,69,0
27285,note_off,0,0,0,,,,,2,,,,,,,61,0
27286,note_off,1,0,0,,,,,3,,,,,,,56,0
27286,note_off,0,0,0,,,,,4,,,,,,,44,0
27286,note_off,0,0,0,,,,,5,,,,,,,64,0
27286,note_off,0,0,0,,,,,6,,,,,,,56,0
27288,note_on,2,0,0,,,,,0,,,,,,,71,80
27288,note_on,0,0,0,,,,,1,,,,,,,66,80
27288,note_on,0,0,0,,,,,2,,,,,,,63,80
27288,note_on,0,0,0,,,,,3,,,,,,,57,80
27288,note_on,0,0,0,,,,,4,,,,,,,45,80
27288,note_on,0,0,0,,,,,5,,,,,,,63,96
27288,note_on,0,0,0,,,,,6,,,,,,,54,96
27298,note_off,10,0,0,,,,,0,,,,,,,71,0
27298,note_off,0,0,0,,,,,5,,,,,,,63,0
27298,note_off,0,0,0,,,,,6,,,,,,,54,0
27300,note_on,2,0,0,,,,,0,,,,,,,73,80
27300,note_on,0,0,0,,,,,5,,,,,,,64,96
27300,note_on,0,0,0,,,,,6,,,,,,,56,96
27309,note_off,9,0,0,,,,,1,,,,,,,66,0
27309,note_off,0,0,0,,,,,2,,,,,,,63,0
27309,note_off,0,0,0,,,,,3,,,,,,,57,0
27309,note_off,0,0,0,,,,,4,,,,,,,45,0
27310,note_off,1,0,0,,,,,0,,,,,,,73,0
27310,note_off,0,0,0,,,,,5,,,,,,,64,0
27310,note_off,0,0,0,,,,,6,,,,,,,56,0
27312,note_on,2,0,0,,,,,0,,,,,,,75,80
27312,note_on,0,0,0,,,,,1,,,,,,,66,80
27312,note_on,0,0,0,,,,,2,,,,,,,63,80
27312,note_on,0,0,0,,,,,3,,,,,,,57,80
27312,note_on,0,0,0,,,,,4,,,,,,,45,80
27312,note_on,0,0,0,,,,,5,,,,,,,66,96
27312,note_on,0,0,0,,,,,6,,,,,,,54,96
27322,note_off,10,0,0,,,,,0,,,,,,,75,0
27322,note_off,0,0,0,,,,,5,,,,,,,66,0
27322,note_off,0,0,0,,,,,6,,,,,,,54,0
27324,note_on,2,0,0,,,,,0,,,,,,,76,80
27324,note_on,0,0,0,,,,,5,,,,,,,68,96
27324,note_on,0,0,0,,,,,6,,,,,,,52,96
27333,note_off,9,0,0,,,,,1,,,,,,,66,0
27333,note_off,0,0,0,,,,,2,,,,,,,63,0
27333,note_off,0,0,0,,,,,3,,,,,,,57,0
27333,note_off,0,0,0,,,,,4,,,,,,,45,0
27334,note_off,1,0,0,,,,,0,,,,,,,76,0
27334,note_off,0,0,0,,,,,5,,,,,,,68,0
27334,note_off,0,0,0,,,,,6,,,,,,,52,0
27336,note_on,2,0,0,,,,,0,,,,,,,78,80
27336,note_on,0,0,0,,,,,1,,,,,,,66,80
27336,note_on,0,0,0,,,,,2,,,,,,,63,80
27336,note_on,0,0,0,,,,,3,,,,,,,57,80
27336,note_on,0,0,0,,,,,4,,,,,,,45,80
27336,note_on,0,0,0,,,,,5,,,,,,,69,96
27336,note_on,0,0,0,,,,,6,,,,,,,51,96
27346,note_off,10,0,0,,,,,0,,,,,,,78,0
27346,note_off,0,0,0,,,,,5,,,,,,,69,0
27346,note_off,0,0,0,,,,,6,,,,,,,51,0
27348,note_on,2,0,0,,,,,0,,,,,,,80,80
27348,note_on,0,0,0,,,,,5,,,,,,,71,96
27348,note_on,0,0,0,,,,,6,,,,,,,49,96
27357,note_off,9,0,0,,,,,1,,,,,,,66,0
27357,note_off,0,0,0,,,,,2,,,,,,,63,0
27357,note_off,0,0,0,,,,,3,,,,,,,57,0
27357,note_off,0,0,0,,,,,4,,,,,,,45,0
27358,note_off,1,0,0,,,,,0,,,,,,,80,0
27358,note_off,0,0,0,,,,,5,,,,,,,71,0
27358,note_off,0,0,0,,,,,6,,,,,,,49,0
27360,note_on,2,0,0,,,,,0,,,,,,,81,80
27360,note_on,0,0,0,,,,,1,,,,,,,66,80
27360,note_on,0,0,0,,,,,2,,,,,,,63,80
27360,note_on,0,0,0,,,,,3,,,,,,,47,80
27360,note_on,0,0,0,,,,,4,,,,,,,35,80
27360,note_on,0,0,0,,,,,5,,,,,,,73,96
27360,note_on,0,0,0,,,,,6,,,,,,,47,96
27368,note_off,8,0,0,,,,,0,,,,,,,81,0
27368,note_on,0,0,0,,,,,0,,,,,,,80,80
27370,note_off,2,0,0,,,,,5,,,,,,,73,0
27372,note_on,2,0,0,,,,,5,,,,,,,75,96
27376,note_off,4,0,0,,,,,0,,,,,,,80,0
27376,note_on,0,0,0,,,,,0,,,,,,,78,80
27381,note_off,5,0,0,,,,,1,,,,,,,66,0
27381,note_off,0,0,0,,,,,2,,,,,,,63,0
27381,note_off,0,0,0,,,,,3,,,,,,,47,0
27381,note_off,0,0,0,,,,,4,,,,,,,35,0
27381,note_off,0,0,0,,,,,6,,,,,,,47,0
27382,note_off,1,0,0,,,,,5,,,,,,,75,0
27383,note_off,1,0,0,,,,,0,,,,,,,78,0
27384,note_on,1,0,0,,,,,0,,,,,,,80,80
27384,note_on,0,0,0,,,,,5,,,,,,,76,96
27384,note_on,0,0,0,,,,,6,,,,,,,59,96
27391,note_off,7,0,0,,,,,0,,,,,,,80,0
27391,note_off,0,0,0,,,,,5,,,,,,,76,0
27392,note_on,1,0,0,,,,,0,,,,,,,78,80
27392,note_on,0,0,0,,,,,5,,,,,,,75,96
27399,note_off,7,0,0,,,,,0,,,,,,,78,0
27399,note_off,0,0,0,,,,,5,,,,,,,75,0
27400,note_on,1,0,0,,,,,0,,,,,,,76,80
27400,note_on,0,0,0,,,,,5,,,,,,,73,96
27405,note_off,5,0,0,,,,,6,,,,,,,59,0
27407,note_off,2,0,0,,,,,0,,,,,,,76,0
27407,note_off,0,0,0,,,,,5,,,,,,,73,0
27408,note_on,1,0,0,,,,,0,,,,,,,83,80
27408,note_on,0,0,0,,,,,5,,,,,,,75,96
27408,note_on,0,0,0,,,,,6,,,,,,,57,96
27415,note_off,7,0,0,,,,,5,,,,,,,75,0
27416,note_on,1,0,0,,,,,5,,,,,,,73,96
27423,note_off,7,0,0,,,,,5,,,,,,,73,0
27424,note_on,1,0,0,,,,,5,,,,,,,71,96
27429,note_off,5,0,0,,,,,0,,,,,,,83,0
27429,note_off,0,0,0,,,,,6,,,,,,,57,0
27431,note_off,2,0,0,,,,,5,,,,,,,71,0
27432,note_on,1,0,0,,,,,5,,,,,,,76,96
27432,note_on,0,0,0,,,,,6,,,,,,,56,96
27444,note_on,12,0,0,,,,,0,,,,,,,76,80
27453,note_off,9,0,0,,,,,5,,,,,,,76,0
27453,note_off,0,0,0,,,,,6,,,,,,,56,0
27454,note_off,1,0,0,,,,,0,,,,,,,76,0
27456,note_on,2,0,0,,,,,0,,,,,,,80,80
27456,note_on,0,0,0,,,,,5,,,,,,,71,96
27456,note_on,0,0,0,,,,,6,,,,,,,57,96
27466,note_off,10,0,0,,,,,0,,,,,,,80,0
27466,note_off,0,0,0,,,,,5,,,,,,,71,0
27468,note_on,2,0,0,,,,,0,,,,,,,78,80
27468,note_on,0,0,0,,,,,5,,,,,,,69,96
27477,note_off,9,0,0,,,,,6,,,,,,,57,0
27478,note_off,1,0,0,,,,,0,,,,,,,78,0
27478,note_off,0,0,0,,,,,5,,,,,,,69,0
27480,note_on,2,0,0,,,,,0,,,,,,,76,80
27480,note_on,0,0,0,,,,,5,,,,,,,68,96
27480,note_on,0,0,0,,,,,6,,,,,,,59,96
27490,note_off,10,0,0,,,,,0,,,,,,,76,0
27490,note_off,0,0,0,,,,,5,,,,,,,68,0
27492,note_on,2,0,0,,,,,0,,,,,,,75,80
27492,note_on,0,0,0,,,,,5,,,,,,,66,96
27501,note_off,9,0,0,,,,,6,,,,,,,59,0
27502,note_off,1,0,0,,,,,0,,,,,,,75,0
27502,note_off,0,0,0,,,,,5,,,,,,,66,0
27504,note_on,2,0,0,,,,,0,,,,,,,76,80
27504,note_on,0,0,0,,,,,5,,,,,,,64,96
27504,note_on,0,0,0,,,,,6,,,,,,,52,96
27525,note_off,21,0,0,,,,,0,,,,,,,76,0
27525,note_off,0,0,0,,,,,6,,,,,,,52,0
27528,note_on,3,0,0,,,,,0,,,,,,,71,96
27528,note_on,0,0,0,,,,,1,,,,,,,68,96
27528,note_on,0,0,0,,,,,2,,,,,,,64,96
27528,note_on,0,0,0,,,,,3,,,,,,,56,96
27528,note_on,0,0,0,,,,,4,,,,,,,44,96
27528,note_on,0,0,0,,,,,6,,,,,,,56,96
27538,note_off,10,0,0,,,,,1,,,,,,,68,0
27538,note_off,0,0,0,,,,,3,,,,,,,56,0
27538,note_off,0,0,0,,,,,4,,,,,,,44,0
27538,note_off,0,0,0,,,,,6,,,,,,,56,0
27540,note_on,2,0,0,,,,,1,,,,,,,69,96
27540,note_on,0,0,0,,,,,3,,,,,,,54,96
27540,note_on,0,0,0,,,,,4,,,,,,,42,96
27540,note_on,0,0,0,,,,,6,,,,,,,54,96
27546,note_off,6,0,0,,,,,5,,,,,,,64,0
27549,note_off,3,0,0,,,,,0,,,,,,,71,0
27549,note_off,0,0,0,,,,,2,,,,,,,64,0
27550,note_off,1,0,0,,,,,1,,,,,,,69,0
27550,note_off,0,0,0,,,,,3,,,,,,,54,0
27550,note_off,0,0,0,,,,,4,,,,,,,42,0
27550,note_off,0,0,0,,,,,6,,,,,,,54,0
27552,note_on,2,0,0,,,,,0,,,,,,,71,96
27552,note_on,0,0,0,,,,,1,,,,,,,71,96
27552,note_on,0,0,0,,,,,2,,,,,,,68,96
27552,note_on,0,0,0,,,,,3,,,,,,,52,96
27552,note_on,0,0,0,,,,,4,,,,,,,40,96
27552,note_on,0,0,0,,,,,6,,,,,,,52,96
27562,note_off,10,0,0,,,,,1,,,,,,,71,0
27562,note_off,0,0,0,,,,,3,,,,,,,52,0
27562,note_off,0,0,0,,,,,4,,,,,,,40,0
27562,note_off,0,0,0,,,,,6,,,,,,,52,0
27564,note_on,2,0,0,,,,,1,,,,,,,68,96
27564,note_on,0,0,0,,,,,3,,,,,,,51,96
27564,note_on,0,0,0,,,,,4,,,,,,,39,96
27564,note_on,0,0,0,,,,,6,,,,,,,51,96
27573,note_off,9,0,0,,,,,0,,,,,,,71,0
27573,note_off,0,0,0,,,,,2,,,,,,,68,0
27574,note_off,1,0,0,,,,,1,,,,,,,68,0
27574,note_off,0,0,0,,,,,3,,,,,,,51,0
27574,note_off,0,0,0,,,,,4,,,,,,,39,0
27574,note_off,0,0,0,,,,,6,,,,,,,51,0
27576,note_on,2,0,0,,,,,0,,,,,,,71,96
27576,note_on,0,0,0,,,,,1,,,,,,,64,96
27576,note_on,0,0,0,,,,,2,,,,,,,68,96
27576,note_on,0,0,0,,,,,3,,,,,,,49,96
27576,note_on,0,0,0,,,,,4,,,,,,,37,96
27576,note_on,0,0,0,,,,,6,,,,,,,49,96
27584,note_on,8,0,0,,,,,5,,,,,,,80,96
27591,note_off,7,0,0,,,,,5,,,,,,,80,0
27592,note_on,1,0,0,,,,,5,,,,,,,78,96
27597,note_off,5,0,0,,,,,0,,,,,,,71,0
27597,note_off,0,0,0,,,,,1,,,,,,,64,0
27597,note_off,0,0,0,,,,,2,,,,,,,68,0
27597,note_off,0,0,0,,,,,3,,,,,,,49,0
27597,note_off,0,0,0,,,,,4,,,,,,,37,0
27597,note_off,0,0,0,,,,,6,,,,,,,49,0
27599,note_off,2,0,0,,,,,5,,,,,,,78,0
27600,note_on,1,0,0,,,,,0,,,,,,,73,96
27600,note_on,0,0,0,,,,,1,,,,,,,68,96
27600,note_on,0,0,0,,,,,2,,,,,,,64,96
27600,note_on,0,0,0,,,,,3,,,,,,,61,96
27600,note_on,0,0,0,,,,,4,,,,,,,49,96
27600,note_on,0,0,0,,,,,5,,,,,,,76,96
27600,note_on,0,0,0,,,,,6,,,,,,,61,96
27607,note_off,7,0,0,,,,,5,,,,,,,76,0
27607,note_off,0,0,0,,,,,6,,,,,,,61,0
27608,note_on,1,0,0,,,,,5,,,,,,,75,96
27608,note_on,0,0,0,,,,,6,,,,,,,59,96
27610,note_off,2,0,0,,,,,0,,,,,,,73,0
27612,note_on,2,0,0,,,,,0,,,,,,,75,96
27615,note_off,3,0,0,,,,,5,,,,,,,75,0
27615,note_off,0,0,0,,,,,6,,,,,,,59,0
27616,note_on,1,0,0,,,,,5,,,,,,,73,96
27616,note_on,0,0,0,,,,,6,,,,,,,57,96
27621,note_off,5,0,0,,,,,1,,,,,,,68,0
27621,note_off,0,0,0,,,,,2,,,,,,,64,0
27621,note_off,0,0,0,,,,,3,,,,,,,61,0
27621,note_off,0,0,0,,,,,4,,,,,,,49,0
27622,note_off,1,0,0,,,,,0,,,,,,,75,0
27623,note_off,1,0,0,,,,,5,,,,,,,73,0
27623,note_off,0,0,0,,,,,6,,,,,,,57,0
27624,note_on,1,0,0,,,,,0,,,,,,,76,96
27624,note_on,0,0,0,,,,,5,,,,,,,71,96
27624,note_on,0,0,0,,,,,6,,,,,,,56,96
27631,note_off,7,0,0,,,,,5,,,,,,,71,0
27631,note_off,0,0,0,,,,,6,,,,,,,56,0
27632,note_on,1,0,0,,,,,5,,,,,,,69,96
27632,note_on,0,0,0,,,,,6,,,,,,,54,96
27634,note_off,2,0,0,,,,,0,,,,,,,76,0
27636,note_on,2,0,0,,,,,0,,,,,,,73,96
27639,note_off,3,0,0,,,,,5,,,,,,,69,0
27639,note_off,0,0,0,,,,,6,,,,,,,54,0
27640,note_on,1,0,0,,,,,5,,,,,,,68,96
27640,note_on,0,0,0,,,,,6,,,,,,,53,96
27646,note_off,6,0,0,,,,,0,,,,,,,73,0
27647,note_off,1,0,0,,,,,5,,,,,,,68,0
27647,note_off,0,0,0,,,,,6,,,,,,,53,0
27648,note_on,1,0,0,,,,,0,,,,,,,69,96
27648,note_on,0,0,0,,,,,5,,,,,,,69,96
27648,note_on,0,0,0,,,,,6,,,,,,,66,96
27648,note_on,0,0,0,,,,,6,,,,,,,54,96
27658,note_off,10,0,0,,,,,0,,,,,,,69,0
27658,note_off,0,0,0,,,,,6,,,,,,,54,0
27660,note_on,2,0,0,,,,,0,,,,,,,66,96
27660,note_on,0,0,0,,,,,6,,,,,,,42,96
27669,note_off,9,0,0,,,,,5,,,,,,,69,0
27669,note_off,0,0,0,,,,,6,,,,,,,66,0
27670,note_off,1,0,0,,,,,0,,,,,,,66,0
27670,note_off,0,0,0,,,,,6,,,,,,,42,0
27672,note_on,2,0,0,,,,,0,,,,,,,69,96
27672,note_on,0,0,0,,,,,1,,,,,,,66,96
27672,note_on,0,0,0,,,,,2,,,,,,,61,96
27672,note_on,0,0,0,,,,,3,,,,,,,54,96
27672,note_on,0,0,0,,,,,4,,,,,,,42,96
27672,note_on,0,0,0,,,,,6,,,,,,,54,96
27682,note_off,10,0,0,,,,,1,,,,,,,66,0
27682,note_off,0,0,0,,,,,3,,,,,,,54,0
27682,note_off,0,0,0,,,,,4,,,,,,,42,0
27682,note_off,0,0,0,,,,,6,,,,,,,54,0
27684,note_on,2,0,0,,,,,1,,,,,,,68,96
27684,note_on,0,0,0,,,,,3,,,,,,,52,96
27684,note_on,0,0,0,,,,,4,,,,,,,40,96
27684,note_on,0,0,0,,,,,6,,,,,,,52,96
27693,note_off,9,0,0,,,,,0,,,,,,,69,0
27693,note_off,0,0,0,,,,,2,,,,,,,61,0
27694,note_off,1,0,0,,,,,1,,,,,,,68,0
27694,note_off,0,0,0,,,,,3,,,,,,,52,0
27694,note_off,0,0,0,,,,,4,,,,,,,40,0
27694,note_off,0,0,0,,,,,6,,,,,,,52,0
27696,note_on,2,0,0,,,,,0,,,,,,,69,96
27696,note_on,0,0,0,,,,,1,,,,,,,69,96
27696,note_on,0,0,0,,,,,2,,,,,,,66,96
27696,note_on,0,0,0,,,,,3,,,,,,,51,96
27696,note_on,0,0,0,,,,,4,,,,,,,39,96
27696,note_on,0,0,0,,,,,6,,,,,,,50,96
27706,note_off,10,0,0,,,,,1,,,,,,,69,0
27706,note_off,0,0,0,,,,,3,,,,,,,51,0
27706,note_off,0,0,0,,,,,4,,,,,,,39,0
27706,note_off,0,0,0,,,,,6,,,,,,,50,0
27708,note_on,2,0,0,,,,,1,,,,,,,66,96
27708,note_on,0,0,0,,,,,3,,,,,,,49,96
27708,note_on,0,0,0,,,,,4,,,,,,,37,96
27708,note_on,0,0,0,,,,,6,,,,,,,49,96
27717,note_off,9,0,0,,,,,0,,,,,,,69,0
27717,note_off,0,0,0,,,,,2,,,,,,,66,0
27718,note_off,1,0,0,,,,,1,,,,,,,66,0
27718,note_off,0,0,0,,,,,3,,,,,,,49,0
27718,note_off,0,0,0,,,,,4,,,,,,,37,0
27718,note_off,0,0,0,,,,,6,,,,,,,49,0
27720,note_on,2,0,0,,,,,0,,,,,,,69,96
27720,note_on,0,0,0,,,,,1,,,,,,,63,96
27720,note_on,0,0,0,,,,,2,,,,,,,66,96
27720,note_on,0,0,0,,,,,3,,,,,,,47,96
27720,note_on,0,0,0,,,,,4,,,,,,,35,96
27720,note_on,0,0,0,,,,,6,,,,,,,47,96
27728,note_on,8,0,0,,,,,5,,,,,,,78,96
27735,note_off,7,0,0,,,,,5,,,,,,,78,0
27736,note_on,1,0,0,,,,,5,,,,,,,76,96
27741,note_off,5,0,0,,,,,0,,,,,,,69,0
27741,note_off,0,0,0,,,,,1,,,,,,,63,0
27741,note_off,0,0,0,,,,,2,,,,,,,66,0
27741,note_off,0,0,0,,,,,3,,,,,,,47,0
27741,note_off,0,0,0,,,,,4,,,,,,,35,0
27741,note_off,0,0,0,,,,,6,,,,,,,47,0
27743,note_off,2,0,0,,,,,5,,,,,,,76,0
27744,note_on,1,0,0,,,,,0,,,,,,,71,96
27744,note_on,0,0,0,,,,,1,,,,,,,66,96
27744,note_on,0,0,0,,,,,2,,,,,,,63,96
27744,note_on,0,0,0,,,,,3,,,,,,,59,96
27744,note_on,0,0,0,,,,,4,,,,,,,47,96
27744,note_on,0,0,0,,,,,5,,,,,,,75,96
27744,note_on,0,0,0,,,,,6,,,,,,,59,96
27751,note_off,7,0,0,,,,,5,,,,,,,75,0
27751,note_off,0,0,0,,,,,6,,,,,,,59,0
27752,note_on,1,0,0,,,,,5,,,,,,,73,96
27752,note_on,0,0,0,,,,,6,,,,,,,57,96
27754,note_off,2,0,0,,,,,0,,,,,,,71,0
27756,note_on,2,0,0,,,,,0,,,,,,,73,96
27759,note_off,3,0,0,,,,,5,,,,,,,73,0
27759,note_off,0,0,0,,,,,6,,,,,,,57,0
27760,note_on,1,0,0,,,,,5,,,,,,,71,96
27760,note_on,0,0,0,,,,,6,,,,,,,56,96
27765,note_off,5,0,0,,,,,1,,,,,,,66,0
27765,note_off,0,0,0,,,,,2,,,,,,,63,0
27765,note_off,0,0,0,,,,,3,,,,,,,59,0
27765,note_off,0,0,0,,,,,4,,,,,,,47,0
27766,note_off,1,0,0,,,,,0,,,,,,,73,0
27767,note_off,1,0,0,,,,,5,,,,,,,71,0
27767,note_off,0,0,0,,,,,6,,,,,,,56,0
27768,note_on,1,0,0,,,,,0,,,,,,,75,96
27768,note_on,0,0,0,,,,,5,,,,,,,69,96
27768,note_on,0,0,0,,,,,6,,,,,,,54,96
27775,note_off,7,0,0,,,,,5,,,,,,,69,0
27775,note_off,0,0,0,,,,,6,,,,,,,54,0
27776,note_on,1,0,0,,,,,5,,,,,,,68,96
27776,note_on,0,0,0,,,,,6,,,,,,,52,96
27778,note_off,2,0,0,,,,,0,,,,,,,75,0
27780,note_on,2,0,0,,,,,0,,,,,,,71,96
27783,note_off,3,0,0,,,,,5,,,,,,,68,0
27783,note_off,0,0,0,,,,,6,,,,,,,52,0
27784,note_on,1,0,0,,,,,5,,,,,,,66,96
27784,note_on,0,0,0,,,,,6,,,,,,,51,96
27790,note_off,6,0,0,,,,,0,,,,,,,71,0
27791,note_off,1,0,0,,,,,5,,,,,,,66,0
27791,note_off,0,0,0,,,,,6,,,,,,,51,0
27792,note_on,1,0,0,,,,,0,,,,,,,68,96
27792,note_on,0,0,0,,,,,5,,,,,,,68,96
27792,note_on,0,0,0,,,,,6,,,,,,,64,96
27792,note_on,0,0,0,,,,,6,,,,,,,52,96
27802,note_off,10,0,0,,,,,6,,,,,,,52,0
27804,note_on,2,0,0,,,,,6,,,,,,,40,96
27813,note_off,9,0,0,,,,,0,,,,,,,68,0
27813,note_off,0,0,0,,,,,5,,,,,,,68,0
27813,note_off,0,0,0,,,,,6,,,,,,,64,0
27814,note_off,1,0,0,,,,,6,,,,,,,40,0
27816,note_on,2,0,0,,,,,0,,,,,,,83,96
27816,note_on,0,0,0,,,,,1,,,,,,,64,96
27816,note_on,0,0,0,,,,,2,,,,,,,68,96
27816,note_on,0,0,0,,,,,3,,,,,,,52,96
27816,note_on,0,0,0,,,,,4,,,,,,,40,96
27816,note_on,0,0,0,,,,,5,,,,,,,83,96
27816,note_on,0,0,0,,,,,6,,,,,,,52,96
27826,note_off,10,0,0,,,,,1,,,,,,,64,0
27826,note_off,0,0,0,,,,,3,,,,,,,52,0
27826,note_off,0,0,0,,,,,4,,,,,,,40,0
27826,note_off,0,0,0,,,,,6,,,,,,,52,0
27828,note_on,2,0,0,,,,,1,,,,,,,66,96
27828,note_on,0,0,0,,,,,3,,,,,,,51,96
27828,note_on,0,0,0,,,,,4,,,,,,,39,96
27828,note_on,0,0,0,,,,,6,,,,,,,51,96
27837,note_off,9,0,0,,,,,0,,,,,,,83,0
27837,note_off,0,0,0,,,,,2,,,,,,,68,0
27837,note_off,0,0,0,,,,,5,,,,,,,83,0
27838,note_off,1,0,0,,,,,1,,,,,,,66,0
27838,note_off,0,0,0,,,,,3,,,,,,,51,0
27838,note_off,0,0,0,,,,,4,,,,,,,39,0
27838,note_off,0,0,0,,,,,6,,,,,,,51,0
27840,note_on,2,0,0,,,,,0,,,,,,,80,96
27840,note_on,0,0,0,,,,,1,,,,,,,68,96
27840,note_on,0,0,0,,,,,2,,,,,,,71,96
27840,note_on,0,0,0,,,,,3,,,,,,,52,96
27840,note_on,0,0,0,,,,,4,,,,,,,40,96
27840,note_on,0,0,0,,,,,5,,,,,,,80,96
27840,note_on,0,0,0,,,,,6,,,,,,,52,96
27850,note_off,10,0,0,,,,,1,,,,,,,68,0
27850,note_off,0,0,0,,,,,3,,,,,,,52,0
27850,note_off,0,0,0,,,,,4,,,,,,,40,0
27850,note_off,0,0,0,,,,,6,,,,,,,52,0
27852,note_on,2,0,0,,,,,1,,,,,,,69,96
27852,note_on,0,0,0,,,,,3,,,,,,,54,96
27852,note_on,0,0,0,,,,,4,,,,,,,42,96
27852,note_on,0,0,0,,,,,6,,,,,,,54,96
27861,note_off,9,0,0,,,,,0,,,,,,,80,0
27861,note_off,0,0,0,,,,,2,,,,,,,71,0
27861,note_off,0,0,0,,,,,5,,,,,,,80,0
27862,note_off,1,0,0,,,,,1,,,,,,,69,0
27862,note_off,0,0,0,,,,,3,,,,,,,54,0
27862,note_off,0,0,0,,,,,4,,,,,,,42,0
27862,note_off,0,0,0,,,,,6,,,,,,,54,0
27864,note_on,2,0,0,,,,,0,,,,,,,76,96
27864,note_on,0,0,0,,,,,1,,,,,,,71,96
27864,note_on,0,0,0,,,,,2,,,,,,,59,96
27864,note_on,0,0,0,,,,,3,,,,,,,56,96
27864,note_on,0,0,0,,,,,4,,,,,,,44,96
27864,note_on,0,0,0,,,,,5,,,,,,,76,96
27864,note_on,0,0,0,,,,,6,,,,,,,56,96
27874,note_off,10,0,0,,,,,1,,,,,,,71,0
27876,note_on,2,0,0,,,,,1,,,,,,,73,96
27885,note_off,9,0,0,,,,,0,,,,,,,76,0
27885,note_off,0,0,0,,,,,2,,,,,,,59,0
27885,note_off,0,0,0,,,,,3,,,,,,,56,0
27885,note_off,0,0,0,,,,,4,,,,,,,44,0
27885,note_off,0,0,0,,,,,5,,,,,,,76,0
27885,note_off,0,0,0,,,,,6,,,,,,,56,0
27886,note_off,1,0,0,,,,,1,,,,,,,73,0
27888,note_on,2,0,0,,,,,0,,,,,,,80,96
27888,note_on,0,0,0,,,,,1,,,,,,,71,96
27888,note_on,0,0,0,,,,,2,,,,,,,64,96
27888,note_on,0,0,0,,,,,3,,,,,,,52,96
27888,note_on,0,0,0,,,,,4,,,,,,,40,96
27888,note_on,0,0,0,,,,,5,,,,,,,80,96
27888,note_on,0,0,0,,,,,6,,,,,,,52,96
27898,note_off,10,0,0,,,,,0,,,,,,,80,0
27898,note_off,0,0,0,,,,,1,,,,,,,71,0
27898,note_off,0,0,0,,,,,5,,,,,,,80,0
27900,note_on,2,0,0,,,,,0,,,,,,,78,96
27900,note_on,0,0,0,,,,,1,,,,,,,69,96
27900,note_on,0,0,0,,,,,5,,,,,,,78,96
27909,note_off,9,0,0,,,,,2,,,,,,,64,0
27909,note_off,0,0,0,,,,,3,,,,,,,52,0
27909,note_off,0,0,0,,,,,4,,,,,,,40,0
27909,note_off,0,0,0,,,,,6,,,,,,,52,0
27910,note_off,1,0,0,,,,,0,,,,,,,78,0
27910,note_off,0,0,0,,,,,1,,,,,,,69,0
27910,note_off,0,0,0,,,,,5,,,,,,,78,0
27912,note_on,2,0,0,,,,,0,,,,,,,76,96
27912,note_on,0,0,0,,,,,1,,,,,,,68,96
27912,note_on,0,0,0,,,,,2,,,,,,,59,96
27912,note_on,0,0,0,,,,,3,,,,,,,56,96
27912,note_on,0,0,0,,,,,4,,,,,,,44,96
27912,note_on,0,0,0,,,,,5,,,,,,,76,96
27912,note_on,0,0,0,,,,,6,,,,,,,56,96
27922,note_off,10,0,0,,,,,0,,,,,,,76,0
27922,note_off,0,0,0,,,,,1,,,,,,,68,0
27922,note_off,0,0,0,,,,,5,,,,,,,76,0
27924,note_on,2,0,0,,,,,0,,,,,,,74,96
27924,note_on,0,0,0,,,,,1,,,,,,,66,96
27924,note_on,0,0,0,,,,,5,,,,,,,74,96
27933,note_off,9,0,0,,,,,2,,,,,,,59,0
27933,note_off,0,0,0,,,,,3,,,,,,,56,0
27933,note_off,0,0,0,,,,,4,,,,,,,44,0
27933,note_off,0,0,0,,,,,6,,,,,,,56,0
27934,note_off,1,0,0,,,,,0,,,,,,,74,0
27934,note_off,0,0,0,,,,,1,,,,,,,66,0
27934,note_off,0,0,0,,,,,5,,,,,,,74,0
27936,note_on,2,0,0,,,,,0,,,,,,,73,96
27936,note_on,0,0,0,,,,,1,,,,,,,64,96
27936,note_on,0,0,0,,,,,2,,,,,,,61,96
27936,note_on,0,0,0,,,,,3,,,,,,,57,96
27936,note_on,0,0,0,,,,,4,,,,,,,45,96
27936,note_on,0,0,0,,,,,5,,,,,,,73,96
27936,note_on,0,0,0,,,,,6,,,,,,,57,96
27946,note_off,10,0,0,,,,,3,,,,,,,57,0
27946,note_off,0,0,0,,,,,4,,,,,,,45,0
27946,note_off,0,0,0,,,,,6,,,,,,,57,0
27948,note_on,2,0,0,,,,,3,,,,,,,56,96
27948,note_on,0,0,0,,,,,4,,,,,,,44,96
27948,note_on,0,0,0,,,,,6,,,,,,,56,96
27957,note_off,9,0,0,,,,,0,,,,,,,73,0
27957,note_off,0,0,0,,,,,1,,,,,,,64,0
27957,note_off,0,0,0,,,,,2,,,,,,,61,0
27957,note_off,0,0,0,,,,,5,,,,,,,73,0
27958,note_off,1,0,0,,,,,3,,,,,,,56,0
27958,note_off,0,0,0,,,,,4,,,,,,,44,0
27958,note_off,0,0,0,,,,,6,,,,,,,56,0
27960,note_on,2,0,0,,,,,0,,,,,,,85,96
27960,note_on,0,0,0,,,,,1,,,,,,,66,96
27960,note_on,0,0,0,,,,,2,,,,,,,69,96
27960,note_on,0,0,0,,,,,3,,,,,,,54,96
27960,note_on,0,0,0,,,,,4,,,,,,,42,96
27960,note_on,0,0,0,,,,,5,,,,,,,85,96
27960,note_on,0,0,0,,,,,6,,,,,,,54,96
27970,note_off,10,0,0,,,,,1,,,,,,,66,0
27970,note_off,0,0,0,,,,,3,,,,,,,54,0
27970,note_off,0,0,0,,,,,4,,,,,,,42,0
27970,note_off,0,0,0,,,,,6,,,,,,,54,0
27972,note_on,2,0,0,,,,,1,,,,,,,68,96
27972,note_on,0,0,0,,,,,3,,,,,,,53,96
27972,note_on,0,0,0,,,,,4,,,,,,,41,96
27972,note_on,0,0,0,,,,,6,,,,,,,53,96
27981,note_off,9,0,0,,,,,0,,,,,,,85,0
27981,note_off,0,0,0,,,,,2,,,,,,,69,0
27981,note_off,0,0,0,,,,,5,,,,,,,85,0
27982,note_off,1,0,0,,,,,1,,,,,,,68,0
27982,note_off,0,0,0,,,,,3,,,,,,,53,0
27982,note_off,0,0,0,,,,,4,,,,,,,41,0
27982,note_off,0,0,0,,,,,6,,,,,,,53,0
27984,note_on,2,0,0,,,,,0,,,,,,,81,96
27984,note_on,0,0,0,,,,,1,,,,,,,69,96
27984,note_on,0,0,0,,,,,2,,,,,,,73,96
27984,note_on,0,0,0,,,,,3,,,,,,,54,96
27984,note_on,0,0,0,,,,,4,,,,,,,42,96
27984,note_on,0,0,0,,,,,5,,,,,,,81,96
27984,note_on,0,0,0,,,,,6,,,,,,,54,96
27994,note_off,10,0,0,,,,,1,,,,,,,69,0
27994,note_off,0,0,0,,,,,3,,,,,,,54,0
27994,note_off,0,0,0,,,,,4,,,,,,,42,0
27994,note_off,0,0,0,,,,,6,,,,,,,54,0
27996,note_on,2,0,0,,,,,1,,,,,,,71,96
27996,note_on,0,0,0,,,,,3,,,,,,,56,96
27996,note_on,0,0,0,,,,,4,,,,,,,44,96
27996,note_on,0,0,0,,,,,6,,,,,,,56,96
28005,note_off,9,0,0,,,,,0,,,,,,,81,0
28005,note_off,0,0,0,,,,,2,,,,,,,73,0
28005,note_off,0,0,0,,,,,5,,,,,,,81,0
28006,note_off,1,0,0,,,,,1,,,,,,,71,0
28006,note_off,0,0,0,,,,,3,,,,,,,56,0
28006,note_off,0,0,0,,,,,4,,,,,,,44,0
28006,note_off,0,0,0,,,,,6,,,,,,,56,0
28008,note_on,2,0,0,,,,,0,,,,,,,78,96
28008,note_on,0,0,0,,,,,1,,,,,,,73,96
28008,note_on,0,0,0,,,,,2,,,,,,,61,96
28008,note_on,0,0,0,,,,,3,,,,,,,57,96
28008,note_on,0,0,0,,,,,4,,,,,,,45,96
28008,note_on,0,0,0,,,,,5,,,,,,,78,96
28008,note_on,0,0,0,,,,,6,,,,,,,57,96
28018,note_off,10,0,0,,,,,1,,,,,,,73,0
28020,note_on,2,0,0,,,,,1,,,,,,,74,96
28029,note_off,9,0,0,,,,,0,,,,,,,78,0
28029,note_off,0,0,0,,,,,2,,,,,,,61,0
28029,note_off,0,0,0,,,,,3,,,,,,,57,0
28029,note_off,0,0,0,,,,,4,,,,,,,45,0
28029,note_off,0,0,0,,,,,5,,,,,,,78,0
28029,note_off,0,0,0,,,,,6,,,,,,,57,0
28030,note_off,1,0,0,,,,,1,,,,,,,74,0
28032,note_on,2,0,0,,,,,0,,,,,,,81,96
28032,note_on,0,0,0,,,,,1,,,,,,,73,96
28032,note_on,0,0,0,,,,,2,,,,,,,66,96
28032,note_on,0,0,0,,,,,3,,,,,,,54,96
28032,note_on,0,0,0,,,,,4,,,,,,,42,96
28032,note_on,0,0,0,,,,,5,,,,,,,81,96
28032,note_on,0,0,0,,,,,6,,,,,,,54,96
28042,note_off,10,0,0,,,,,0,,,,,,,81,0
28042,note_off,0,0,0,,,,,1,,,,,,,73,0
28042,note_off,0,0,0,,,,,5,,,,,,,81,0
28044,note_on,2,0,0,,,,,0,,,,,,,80,96
28044,note_on,0,0,0,,,,,1,,,,,,,71,96
28044,note_on,0,0,0,,,,,5,,,,,,,80,96
28053,note_off,9,0,0,,,,,2,,,,,,,66,0
28053,note_off,0,0,0,,,,,3,,,,,,,54,0
28053,note_off,0,0,0,,,,,4,,,,,,,42,0
28053,note_off,0,0,0,,,,,6,,,,,,,54,0
28054,note_off,1,0,0,,,,,0,,,,,,,80,0
28054,note_off,0,0,0,,,,,1,,,,,,,71,0
28054,note_off,0,0,0,,,,,5,,,,,,,80,0
28056,note_on,2,0,0,,,,,0,,,,,,,78,96
28056,note_on,0,0,0,,,,,1,,,,,,,69,96
28056,note_on,0,0,0,,,,,2,,,,,,,61,96
28056,note_on,0,0,0,,,,,3,,,,,,,57,96
28056,note_on,0,0,0,,,,,4,,,,,,,45,96
28056,note_on,0,0,0,,,,,5,,,,,,,78,96
28056,note_on,0,0,0,,,,,6,,,,,,,57,96
28066,note_off,10,0,0,,,,,0,,,,,,,78,0
28066,note_off,0,0,0,,,,,1,,,,,,,69,0
28066,note_off,0,0,0,,,,,5,,,,,,,78,0
28068,note_on,2,0,0,,,,,0,,,,,,,76,96
28068,note_on,0,0,0,,,,,1,,,,,,,68,96
28068,note_on,0,0,0,,,,,5,,,,,,,76,96
28077,note_off,9,0,0,,,,,2,,,,,,,61,0
28077,note_off,0,0,0,,,,,3,,,,,,,57,0
28077,note_off,0,0,0,,,,,4,,,,,,,45,0
28077,note_off,0,0,0,,,,,6,,,,,,,57,0
28078,note_off,1,0,0,,,,,0,,,,,,,76,0
28078,note_off,0,0,0,,,,,1,,,,,,,68,0
28078,note_off,0,0,0,,,,,5,,,,,,,76,0
28080,note_on,2,0,0,,,,,0,,,,,,,75,96
28080,note_on,0,0,0,,,,,1,,,,,,,66,96
28080,note_on,0,0,0,,,,,2,,,,,,,63,96
28080,note_on,0,0,0,,,,,3,,,,,,,59,96
28080,note_on,0,0,0,,,,,4,,,,,,,47,96
28080,note_on,0,0,0,,,,,5,,,,,,,75,96
28080,note_on,0,0,0,,,,,6,,,,,,,59,96
28090,note_off,10,0,0,,,,,0,,,,,,,75,0
28090,note_off,0,0,0,,,,,1,,,,,,,66,0
28090,note_off,0,0,0,,,,,5,,,,,,,75,0
28092,note_on,2,0,0,,,,,0,,,,,,,73,96
28092,note_on,0,0,0,,,,,1,,,,,,,64,96
28092,note_on,0,0,0,,,,,5,,,,,,,73,96
28101,note_off,9,0,0,,,,,2,,,,,,,63,0
28101,note_off,0,0,0,,,,,3,,,,,,,59,0
28101,note_off,0,0,0,,,,,4,,,,,,,47,0
28101,note_off,0,0,0,,,,,6,,,,,,,59,0
28102,note_off,1,0,0,,,,,0,,,,,,,73,0
28102,note_off,0,0,0,,,,,1,,,,,,,64,0
28102,note_off,0,0,0,,,,,5,,,,,,,73,0
28104,note_on,2,0,0,,,,,0,,,,,,,71,96
28104,note_on,0,0,0,,,,,1,,,,,,,63,96
28104,note_on,0,0,0,,,,,2,,,,,,,66,96
28104,note_on,0,0,0,,,,,3,,,,,,,57,96
28104,note_on,0,0,0,,,,,4,,,,,,,45,96
28104,note_on,0,0,0,,,,,5,,,,,,,71,96
28104,note_on,0,0,0,,,,,6,,,,,,,57,96
28114,note_off,10,0,0,,,,,0,,,,,,,71,0
28114,note_off,0,0,0,,,,,1,,,,,,,63,0
28114,note_off,0,0,0,,,,,2,,,,,,,66,0
28114,note_off,0,0,0,,,,,3,,,,,,,57,0
28114,note_off,0,0,0,,,,,4,,,,,,,45,0
28114,note_off,0,0,0,,,,,5,,,,,,,71,0
28114,note_off,0,0,0,,,,,6,,,,,,,57,0
28116,note_on,2,0,0,,,,,0,,,,,,,73,96
28116,note_on,0,0,0,,,,,1,,,,,,,64,96
28116,note_on,0,0,0,,,,,2,,,,,,,64,96
28116,note_on,0,0,0,,,,,3,,,,,,,56,96
28116,note_on,0,0,0,,,,,4,,,,,,,44,96
28116,note_on,0,0,0,,,,,5,,,,,,,73,96
28116,note_on,0,0,0,,,,,6,,,,,,,56,96
28126,note_off,10,0,0,,,,,0,,,,,,,73,0
28126,note_off,0,0,0,,,,,1,,,,,,,64,0
28126,note_off,0,0,0,,,,,2,,,,,,,64,0
28126,note_off,0,0,0,,,,,3,,,,,,,56,0
28126,note_off,0,0,0,,,,,4,,,,,,,44,0
28126,note_off,0,0,0,,,,,5,,,,,,,73,0
28126,note_off,0,0,0,,,,,6,,,,,,,56,0
28128,note_on,2,0,0,,,,,0,,,,,,,75,96
28128,note_on,0,0,0,,,,,1,,,,,,,66,96
28128,note_on,0,0,0,,,,,2,,,,,,,63,96
28128,note_on,0,0,0,,,,,3,,,,,,,54,96
28128,note_on,0,0,0,,,,,4,,,,,,,42,96
28128,note_on,0,0,0,,,,,5,,,,,,,75,96
28128,note_on,0,0,0,,,,,6,,,,,,,54,96
28138,note_off,10,0,0,,,,,0,,,,,,,75,0
28138,note_off,0,0,0,,,,,1,,,,,,,66,0
28138,note_off,0,0,0,,,,,2,,,,,,,63,0
28138,note_off,0,0,0,,,,,3,,,,,,,54,0
28138,note_off,0,0,0,,,,,4,,,,,,,42,0
28138,note_off,0,0,0,,,,,5,,,,,,,75,0
28138,note_off,0,0,0,,,,,6,,,,,,,54,0
28140,note_on,2,0,0,,,,,0,,,,,,,76,96
28140,note_on,0,0,0,,,,,1,,,,,,,68,96
28140,note_on,0,0,0,,,,,2,,,,,,,61,96
28140,note_on,0,0,0,,,,,3,,,,,,,52,96
28140,note_on,0,0,0,,,,,4,,,,,,,40,96
28140,note_on,0,0,0,,,,,5,,,,,,,76,96
28140,note_on,0,0,0,,,,,6,,,,,,,52,96
28150,note_off,10,0,0,,,,,0,,,,,,,76,0
28150,note_off,0,0,0,,,,,1,,,,,,,68,0
28150,note_off,0,0,0,,,,,2,,,,,,,61,0
28150,note_off,0,0,0,,,,,3,,,,,,,52,0
28150,note_off,0,0,0,,,,,4,,,,,,,40,0
28150,note_off,0,0,0,,,,,5,,,,,,,76,0
28150,note_off,0,0,0,,,,,6,,,,,,,52,0
28152,note_on,2,0,0,,,,,0,,,,,,,78,96
28152,note_on,0,0,0,,,,,1,,,,,,,69,96
28152,note_on,0,0,0,,,,,2,,,,,,,59,96
28152,note_on,0,0,0,,,,,3,,,,,,,51,96
28152,note_on,0,0,0,,,,,4,,,,,,,39,96
28152,note_on,0,0,0,,,,,5,,,,,,,78,96
28152,note_on,0,0,0,,,,,6,,,,,,,51,96
28162,note_off,10,0,0,,,,,0,,,,,,,78,0
28162,note_off,0,0,0,,,,,1,,,,,,,69,0
28162,note_off,0,0,0,,,,,3,,,,,,,51,0
28162,note_off,0,0,0,,,,,4,,,,,,,39,0
28162,note_off,0,0,0,,,,,5,,,,,,,78,0
28162,note_off,0,0,0,,,,,6,,,,,,,51,0
28164,note_on,2,0,0,,,,,0,,,,,,,76,96
28164,note_on,0,0,0,,,,,1,,,,,,,68,96
28164,note_on,0,0,0,,,,,3,,,,,,,52,96
28164,note_on,0,0,0,,,,,4,,,,,,,40,96
28164,note_on,0,0,0,,,,,5,,,,,,,76,96
28164,note_on,0,0,0,,,,,6,,,,,,,52,96
28173,note_off,9,0,0,,,,,2,,,,,,,59,0
28174,note_off,1,0,0,,,,,0,,,,,,,76,0
28174,note_off,0,0,0,,,,,1,,,,,,,68,0
28174,note_off,0,0,0,,,,,3,,,,,,,52,0
28174,note_off,0,0,0,,,,,4,,,,,,,40,0
28174,note_off,0,0,0,,,,,5,,,,,,,76,0
28174,note_off,0,0,0,,,,,6,,,,,,,52,0
28176,note_on,2,0,0,,,,,0,,,,,,,75,96
28176,note_on,0,0,0,,,,,1,,,,,,,66,96
28176,note_on,0,0,0,,,,,2,,,,,,,69,96
28176,note_on,0,0,0,,,,,3,,,,,,,54,96
28176,note_on,0,0,0,,,,,4,,,,,,,42,96
28176,note_on,0,0,0,,,,,5,,,,,,,75,96
28176,note_on,0,0,0,,,,,6,,,,,,,54,96
28186,note_off,10,0,0,,,,,0,,,,,,,75,0
28186,note_off,0,0,0,,,,,1,,,,,,,66,0
28186,note_off,0,0,0,,,,,2,,,,,,,69,0
28186,note_off,0,0,0,,,,,3,,,,,,,54,0
28186,note_off,0,0,0,,,,,4,,,,,,,42,0
28186,note_off,0,0,0,,,,,5,,,,,,,75,0
28186,note_off,0,0,0,,,,,6,,,,,,,54,0
28188,note_on,2,0,0,,,,,0,,,,,,,76,96
28188,note_on,0,0,0,,,,,1,,,,,,,68,96
28188,note_on,0,0,0,,,,,2,,,,,,,68,96
28188,note_on,0,0,0,,,,,3,,,,,,,52,96
28188,note_on,0,0,0,,,,,4,,,,,,,40,96
28188,note_on,0,0,0,,,,,5,,,,,,,76,96
28188,note_on,0,0,0,,,,,6,,,,,,,52,96
28198,note_off,10,0,0,,,,,0,,,,,,,76,0
28198,note_off,0,0,0,,,,,1,,,,,,,68,0
28198,note_off,0,0,0,,,,,2,,,,,,,68,0
28198,note_off,0,0,0,,,,,3,,,,,,,52,0
28198,note_off,0,0,0,,,,,4,,,,,,,40,0
28198,note_off,0,0,0,,,,,5,,,,,,,76,0
28198,note_off,0,0,0,,,,,6,,,,,,,52,0
28200,note_on,2,0,0,,,,,0,,,,,,,78,96
28200,note_on,0,0,0,,,,,1,,,,,,,69,96
28200,note_on,0,0,0,,,,,2,,,,,,,66,96
28200,note_on,0,0,0,,,,,3,,,,,,,51,96
28200,note_on,0,0,0,,,,,4,,,,,,,39,96
28200,note_on,0,0,0,,,,,5,,,,,,,78,96
28200,note_on,0,0,0,,,,,6,,,,,,,51,96
28210,note_off,10,0,0,,,,,0,,,,,,,78,0
28210,note_off,0,0,0,,,,,1,,,,,,,69,0
28210,note_off,0,0,0,,,,,2,,,,,,,66,0
28210,note_off,0,0,0,,,,,3,,,,,,,51,0
28210,note_off,0,0,0,,,,,4,,,,,,,39,0
28210,note_off,0,0,0,,,,,5,,,,,,,78,0
28210,note_off,0,0,0,,,,,6,,,,,,,51,0
28212,note_on,2,0,0,,,,,0,,,,,,,80,96
28212,note_on,0,0,0,,,,,1,,,,,,,71,96
28212,note_on,0,0,0,,,,,2,,,,,,,64,96
28212,note_on,0,0,0,,,,,3,,,,,,,49,96
28212,note_on,0,0,0,,,,,4,,,,,,,37,96
28212,note_on,0,0,0,,,,,5,,,,,,,80,96
28212,note_on,0,0,0,,,,,6,,,,,,,49,96
28222,note_off,10,0,0,,,,,0,,,,,,,80,0
28222,note_off,0,0,0,,,,,1,,,,,,,71,0
28222,note_off,0,0,0,,,,,2,,,,,,,64,0
28222,note_off,0,0,0,,,,,3,,,,,,,49,0
28222,note_off,0,0,0,,,,,4,,,,,,,37,0
28222,note_off,0,0,0,,,,,5,,,,,,,80,0
28222,note_off,0,0,0,,,,,6,,,,,,,49,0
28224,note_on,2,0,0,,,,,0,,,,,,,81,96
28224,note_on,0,0,0,,,,,1,,,,,,,73,96
28224,note_on,0,0,0,,,,,2,,,,,,,63,96
28224,note_on,0,0,0,,,,,3,,,,,,,47,96
28224,note_on,0,0,0,,,,,4,,,,,,,35,96
28224,note_on,0,0,0,,,,,5,,,,,,,81,96
28224,note_on,0,0,0,,,,,6,,,,,,,47,96
28231,note_off,7,0,0,,,,,5,,,,,,,81,0
28232,note_off,1,0,0,,,,,0,,,,,,,81,0
28232,note_on,0,0,0,,,,,0,,,,,,,80,96
28232,note_on,0,0,0,,,,,5,,,,,,,80,96
28234,note_off,2,0,0,,,,,1,,,,,,,73,0
28236,note_on,2,0,0,,,,,1,,,,,,,75,96
28239,note_off,3,0,0,,,,,5,,,,,,,80,0
28240,note_off,1,0,0,,,,,0,,,,,,,80,0
28240,note_on,0,0,0,,,,,0,,,,,,,78,96
28240,note_on,0,0,0,,,,,5,,,,,,,78,96
28245,note_off,5,0,0,,,,,2,,,,,,,63,0
28246,note_off,1,0,0,,,,,1,,,,,,,75,0
28247,note_off,1,0,0,,,,,0,,,,,,,78,0
28247,note_off,0,0,0,,,,,5,,,,,,,78,0
28248,note_on,1,0,0,,,,,0,,,,,,,80,96
28248,note_on,0,0,0,,,,,1,,,,,,,76,96
28248,note_on,0,0,0,,,,,2,,,,,,,59,96
28248,note_on,0,0,0,,,,,5,,,,,,,80,96
28255,note_off,7,0,0,,,,,5,,,,,,,80,0
28256,note_off,1,0,0,,,,,0,,,,,,,80,0
28256,note_on,0,0,0,,,,,0,,,,,,,78,96
28256,note_on,0,0,0,,,,,5,,,,,,,78,96
28258,note_off,2,0,0,,,,,1,,,,,,,76,0
28260,note_on,2,0,0,,,,,1,,,,,,,73,96
28263,note_off,3,0,0,,,,,5,,,,,,,78,0
28264,note_off,1,0,0,,,,,0,,,,,,,78,0
28264,note_on,0,0,0,,,,,0,,,,,,,76,96
28264,note_on,0,0,0,,,,,5,,,,,,,76,96
28266,note_off,2,0,0,,,,,3,,,,,,,47,0
28266,note_off,0,0,0,,,,,4,,,,,,,35,0
28266,note_off,0,0,0,,,,,6,,,,,,,47,0
28269,note_off,3,0,0,,,,,2,,,,,,,59,0
28270,note_off,1,0,0,,,,,1,,,,,,,73,0
28271,note_off,1,0,0,,,,,0,,,,,,,76,0
28271,note_off,0,0,0,,,,,5,,,,,,,76,0
28272,note_on,1,0,0,,,,,0,,,,,,,83,96
28272,note_on,0,0,0,,,,,1,,,,,,,75,96
28272,note_on,0,0,0,,,,,2,,,,,,,66,96
28272,note_on,0,0,0,,,,,3,,,,,,,45,96
28272,note_on,0,0,0,,,,,4,,,,,,,33,96
28272,note_on,0,0,0,,,,,5,,,,,,,83,96
28272,note_on,0,0,0,,,,,6,,,,,,,45,96
28293,note_off,21,0,0,,,,,0,,,,,,,83,0
28293,note_off,0,0,0,,,,,1,,,,,,,75,0
28293,note_off,0,0,0,,,,,2,,,,,,,66,0
28293,note_off,0,0,0,,,,,3,,,,,,,45,0
28293,note_off,0,0,0,,,,,4,,,,,,,33,0
28293,note_off,0,0,0,,,,,5,,,,,,,83,0
28293,note_off,0,0,0,,,,,6,,,,,,,45,0
28296,note_on,3,0,0,,,,,3,,,,,,,44,96
28296,note_on,0,0,0,,,,,4,,,,,,,32,96
28296,note_on,0,0,0,,,,,6,,,,,,,44,96
28308,note_on,12,0,0,,,,,0,,,,,,,76,96
28308,note_on,0,0,0,,,,,1,,,,,,,71,96
28308,note_on,0,0,0,,,,,2,,,,,,,64,96
28308,note_on,0,0,0,,,,,5,,,,,,,76,96
28317,note_off,9,0,0,,,,,3,,,,,,,44,0
28317,note_off,0,0,0,,,,,4,,,,,,,32,0
28317,note_off,0,0,0,,,,,6,,,,,,,44,0
28318,note_off,1,0,0,,,,,0,,,,,,,76,0
28318,note_off,0,0,0,,,,,1,,,,,,,71,0
28318,note_off,0,0,0,,,,,2,,,,,,,64,0
28318,note_off,0,0,0,,,,,5,,,,,,,76,0
28320,note_on,2,0,0,,,,,0,,,,,,,78,96
28320,note_on,0,0,0,,,,,1,,,,,,,73,96
28320,note_on,0,0,0,,,,,2,,,,,,,69,96
28320,note_on,0,0,0,,,,,3,,,,,,,45,96
28320,note_on,0,0,0,,,,,4,,,,,,,33,96
28320,note_on,0,0,0,,,,,5,,,,,,,78,96
28320,note_on,0,0,0,,,,,6,,,,,,,45,96
28341,note_off,21,0,0,,,,,0,,,,,,,78,0
28341,note_off,0,0,0,,,,,1,,,,,,,73,0
28341,note_off,0,0,0,,,,,2,,,,,,,69,0
28341,note_off,0,0,0,,,,,3,,,,,,,45,0
28341,note_off,0,0,0,,,,,4,,,,,,,33,0
28341,note_off,0,0,0,,,,,5,,,,,,,78,0
28341,note_off,0,0,0,,,,,6,,,,,,,45,0
28344,note_on,3,0,0,,,,,0,,,,,,,75,96
28344,note_on,0,0,0,,,,,1,,,,,,,71,96
28344,note_on,0,0,0,,,,,2,,,,,,,66,96
28344,note_on,0,0,0,,,,,3,,,,,,,47,96
28344,note_on,0,0,0,,,,,4,,,,,,,35,96
28344,note_on,0,0,0,,,,,5,,,,,,,75,96
28344,note_on,0,0,0,,,,,6,,,,,,,47,96
28365,note_off,21,0,0,,,,,0,,,,,,,75,0
28365,note_off,0,0,0,,,,,1,,,,,,,71,0
28365,note_off,0,0,0,,,,,2,,,,,,,66,0
28365,note_off,0,0,0,,,,,3,,,,,,,47,0
28365,note_off,0,0,0,,,,,4,,,,,,,35,0
28365,note_off,0,0,0,,,,,5,,,,,,,75,0
28365,note_off,0,0,0,,,,,6,,,,,,,47,0
28368,note_on,3,0,0,,,,,0,,,,,,,76,96
28368,note_on,0,0,0,,,,,1,,,,,,,71,96
28368,note_on,0,0,0,,,,,2,,,,,,,68,96
28368,note_on,0,0,0,,,,,3,,,,,,,40,96
28368,note_on,0,0,0,,,,,4,,,,,,,28,96
28368,note_on,0,0,0,,,,,5,,,,,,,76,96
28368,note_on,0,0,0,,,,,6,,,,,,,40,96
28416,note_off,48,0,0,,,,,0,,,,,,,76,0
28416,note_off,0,0,0,,,,,1,,,,,,,71,0
28416,note_off,0,0,0,,,,,2,,,,,,,68,0
28416,note_off,0,0,0,,,,,3,,,,,,,40,0
28416,note_off,0,0,0,,,,,4,,,,,,,28,0
28416,note_off,0,0,0,,,,,5,,,,,,,76,0
28416,note_off,0,0,0,,,,,6,,,,,,,40,0
28728,end_of_track,312,1,0,,,,,,,,,,,,,
