tick,type,port,time,meta,track,data,numerator,denominator,clocks_per_click,notated_32nd_notes_per_beat,key,tempo,program,channel,control,value,note,velocity
0,midi_port,0,0,1,0,,,,,,,,,,,,,
0,note_on,,0,0,7,,,,,,,,,6,,,50,95
0,control_change,,0,0,7,,,,,,,,,6,93,0,,
0,control_change,,0,0,7,,,,,,,,,6,91,127,,
0,control_change,,0,0,7,,,,,,,,,6,121,0,,
0,control_change,,0,0,7,,,,,,,,,6,10,112,,
0,control_change,,0,0,7,,,,,,,,,6,7,112,,
0,program_change,,0,0,7,,,,,,,,42,6,,,,
0,track_name,,0,1,7,,,,,,,,,,,,,
0,midi_port,0,0,1,7,,,,,,,,,,,,,
0,note_on,,0,0,6,,,,,,,,,5,,,66,95
0,control_change,,0,0,6,,,,,,,,,5,93,0,,
0,control_change,,0,0,6,,,,,,,,,5,91,127,,
0,control_change,,0,0,6,,,,,,,,,5,121,0,,
0,control_change,,0,0,6,,,,,,,,,5,10,64,,
0,control_change,,0,0,6,,,,,,,,,5,7,127,,
0,midi_port,0,0,1,8,,,,,,,,,,,,,
0,program_change,,0,0,6,,,,,,,,41,5,,,,
0,track_name,,0,1,8,,,,,,,,,,,,,
0,control_change,,0,0,8,,,,,,,,,7,7,112,,
0,program_change,,0,0,1,,,,,,,,6,0,,,,
0,control_change,,0,0,1,,,,,,,,,0,7,112,,
0,control_change,,0,0,1,,,,,,,,,0,10,72,,
0,control_change,,0,0,1,,,,,,,,,0,121,0,,
0,control_change,,0,0,1,,,,,,,,,0,91,127,,
0,control_change,,0,0,1,,,,,,,,,0,93,0,,
0,note_on,,0,0,1,,,,,,,,,0,,,69,79
0,note_on,,0,0,1,,,,,,,,,0,,,62,79
0,note_on,,0,0,1,,,,,,,,,0,,,66,79
0,note_on,,0,0,1,,,,,,,,,0,,,74,79
0,note_on,,0,0,8,,,,,,,,,7,,,38,95
0,control_change,,0,0,8,,,,,,,,,7,93,0,,
0,control_change,,0,0,8,,,,,,,,,7,91,127,,
0,control_change,,0,0,8,,,,,,,,,7,121,0,,
0,control_change,,0,0,8,,,,,,,,,7,10,127,,
0,program_change,,0,0,8,,,,,,,,43,7,,,,
0,track_name,,0,1,6,,,,,,,,,,,,,
0,midi_port,0,0,1,6,,,,,,,,,,,,,
0,track_name,,0,1,2,,,,,,,,,,,,,
0,control_change,,0,0,3,,,,,,,,,2,121,0,,
0,control_change,,0,0,3,,,,,,,,,2,10,96,,
0,control_change,,0,0,3,,,,,,,,,2,7,127,,
0,program_change,,0,0,3,,,,,,,,73,2,,,,
0,track_name,,0,1,3,,,,,,,,,,,,,
0,midi_port,0,0,1,3,,,,,,,,,,,,,
0,note_on,,0,0,2,,,,,,,,,1,,,54,79
0,note_on,,0,0,2,,,,,,,,,1,,,50,79
0,note_on,,0,0,2,,,,,,,,,1,,,57,79
0,control_change,,0,0,2,,,,,,,,,1,93,0,,
0,control_change,,0,0,2,,,,,,,,,1,91,127,,
0,control_change,,0,0,2,,,,,,,,,1,121,0,,
0,control_change,,0,0,2,,,,,,,,,1,10,88,,
0,control_change,,0,0,2,,,,,,,,,1,7,112,,
0,program_change,,0,0,2,,,,,,,,6,1,,,,
0,control_change,,0,0,3,,,,,,,,,2,91,127,,
0,control_change,,0,0,3,,,,,,,,,2,93,0,,
0,midi_port,0,0,1,4,,,,,,,,,,,,,
0,track_name,,0,1,4,,,,,,,,,,,,,
0,note_on,,0,0,5,,,,,,,,,4,,,62,95
0,control_change,,0,0,5,,,,,,,,,4,93,0,,
0,control_change,,0,0,5,,,,,,,,,4,91,127,,
0,control_change,,0,0,5,,,,,,,,,4,121,0,,
0,control_change,,0,0,5,,,,,,,,,4,10,48,,
0,control_change,,0,0,5,,,,,,,,,4,7,127,,
0,program_change,,0,0,5,,,,,,,,40,4,,,,
0,track_name,,0,1,1,,,,,,,,,,,,,
0,track_name,,0,1,5,,,,,,,,,,,,,
0,note_on,,0,0,4,,,,,,,,,3,,,62,95
0,control_change,,0,0,4,,,,,,,,,3,93,0,,
0,control_change,,0,0,4,,,,,,,,,3,91,127,,
0,control_change,,0,0,4,,,,,,,,,3,121,0,,
0,control_change,,0,0,4,,,,,,,,,3,10,0,,
0,control_change,,0,0,4,,,,,,,,,3,7,127,,
0,program_change,,0,0,4,,,,,,,,40,3,,,,
0,midi_port,0,0,1,5,,,,,,,,,,,,,
0,midi_port,0,0,1,1,,,,,,,,,,,,,
0,midi_port,0,0,1,2,,,,,,,,,,,,,
0,midi_port,0,0,1,0,,,,,,,,,,,,,
0,sysex,,0,0,0,"(126, 127, 9, 1)",,,,,,,,,,,,
0,time_signature,,0,1,0,,4,4,24,8,,,,,,,,
0,key_signature,,0,1,0,,,,,,C,,,,,,,
0,set_tempo,,0,1,0,,,,,,,697674,,,,,,
0,marker,,0,1,0,,,,,,,,,,,,,
8,note_on,,8,0,5,,,,,,,,,4,,,62,0
8,note_on,,8,0,4,,,,,,,,,3,,,62,0
12,note_on,,4,0,4,,,,,,,,,3,,,62,95
12,note_on,,4,0,5,,,,,,,,,4,,,62,95
20,note_on,,8,0,4,,,,,,,,,3,,,62,0
20,note_on,,8,0,5,,,,,,,,,4,,,62,0
24,note_on,,4,0,4,,,,,,,,,3,,,66,95
24,note_on,,4,0,5,,,,,,,,,4,,,66,95
32,note_on,,8,0,5,,,,,,,,,4,,,66,0
32,note_on,,8,0,4,,,,,,,,,3,,,66,0
36,note_on,,4,0,5,,,,,,,,,4,,,66,95
36,note_on,,4,0,4,,,,,,,,,3,,,66,95
44,note_on,,8,0,5,,,,,,,,,4,,,66,0
44,note_on,,8,0,4,,,,,,,,,3,,,66,0
48,note_on,,0,0,1,,,,,,,,,0,,,66,0
48,note_on,,0,0,1,,,,,,,,,0,,,69,0
48,note_on,,48,0,1,,,,,,,,,0,,,74,0
48,note_on,,4,0,5,,,,,,,,,4,,,69,95
48,note_on,,4,0,4,,,,,,,,,3,,,69,95
48,note_on,,0,0,1,,,,,,,,,0,,,62,0
48,note_on,,48,0,8,,,,,,,,,7,,,38,0
48,note_on,,48,0,2,,,,,,,,,1,,,54,0
48,note_on,,0,0,2,,,,,,,,,1,,,50,0
48,note_on,,48,0,7,,,,,,,,,6,,,50,0
48,note_on,,48,0,6,,,,,,,,,5,,,66,0
48,note_on,,0,0,2,,,,,,,,,1,,,57,0
56,note_on,,8,0,4,,,,,,,,,3,,,69,0
56,note_on,,8,0,5,,,,,,,,,4,,,69,0
60,note_on,,4,0,5,,,,,,,,,4,,,69,95
60,note_on,,4,0,4,,,,,,,,,3,,,69,95
68,note_on,,8,0,5,,,,,,,,,4,,,69,0
68,note_on,,8,0,4,,,,,,,,,3,,,69,0
72,note_on,,24,0,2,,,,,,,,,1,,,50,79
72,note_on,,4,0,4,,,,,,,,,3,,,74,95
72,note_on,,4,0,5,,,,,,,,,4,,,74,95
72,note_on,,24,0,8,,,,,,,,,7,,,38,95
72,note_on,,24,0,7,,,,,,,,,6,,,50,95
72,note_on,,24,0,6,,,,,,,,,5,,,66,95
80,note_on,,8,0,5,,,,,,,,,4,,,74,0
80,note_on,,8,0,4,,,,,,,,,3,,,74,0
84,note_on,,4,0,4,,,,,,,,,3,,,74,95
84,note_on,,4,0,5,,,,,,,,,4,,,74,95
88,note_on,,16,0,2,,,,,,,,,1,,,50,0
92,note_on,,8,0,4,,,,,,,,,3,,,74,0
92,note_on,,8,0,5,,,,,,,,,4,,,74,0
96,note_on,,0,0,7,,,,,,,,,6,,,57,95
96,note_on,,24,0,7,,,,,,,,,6,,,50,0
96,note_on,,24,0,6,,,,,,,,,5,,,66,0
96,note_on,,24,0,8,,,,,,,,,7,,,38,0
96,note_on,,0,0,8,,,,,,,,,7,,,45,95
96,note_on,,0,0,6,,,,,,,,,5,,,64,95
96,note_on,,4,0,5,,,,,,,,,4,,,73,95
96,note_on,,8,0,2,,,,,,,,,1,,,57,79
96,note_on,,4,0,4,,,,,,,,,3,,,73,95
104,note_on,,8,0,5,,,,,,,,,4,,,73,0
104,note_on,,8,0,4,,,,,,,,,3,,,73,0
108,note_on,,4,0,5,,,,,,,,,4,,,74,95
108,note_on,,4,0,4,,,,,,,,,3,,,74,95
112,note_on,,16,0,2,,,,,,,,,1,,,57,0
116,note_on,,8,0,4,,,,,,,,,3,,,74,0
116,note_on,,8,0,5,,,,,,,,,4,,,74,0
120,note_on,,4,0,4,,,,,,,,,3,,,73,95
120,note_on,,24,0,8,,,,,,,,,7,,,45,0
120,note_on,,0,0,7,,,,,,,,,6,,,59,95
120,note_on,,24,0,7,,,,,,,,,6,,,57,0
120,note_on,,24,0,6,,,,,,,,,5,,,64,0
120,note_on,,0,0,6,,,,,,,,,5,,,62,95
120,note_on,,0,0,8,,,,,,,,,7,,,47,95
120,note_on,,4,0,5,,,,,,,,,4,,,73,95
120,note_on,,8,0,2,,,,,,,,,1,,,59,79
128,note_on,,8,0,4,,,,,,,,,3,,,73,0
128,note_on,,8,0,5,,,,,,,,,4,,,73,0
132,note_on,,4,0,5,,,,,,,,,4,,,71,95
132,note_on,,4,0,4,,,,,,,,,3,,,71,95
136,note_on,,16,0,2,,,,,,,,,1,,,59,0
140,note_on,,8,0,5,,,,,,,,,4,,,71,0
140,note_on,,8,0,4,,,,,,,,,3,,,71,0
144,note_on,,4,0,4,,,,,,,,,3,,,69,95
144,note_on,,24,0,8,,,,,,,,,7,,,47,0
144,note_on,,0,0,8,,,,,,,,,7,,,49,95
144,note_on,,24,0,6,,,,,,,,,5,,,62,0
144,note_on,,8,0,2,,,,,,,,,1,,,61,79
144,note_on,,0,0,6,,,,,,,,,5,,,64,95
144,note_on,,24,0,7,,,,,,,,,6,,,59,0
144,note_on,,0,0,7,,,,,,,,,6,,,61,95
144,note_on,,4,0,5,,,,,,,,,4,,,69,95
152,note_on,,8,0,5,,,,,,,,,4,,,69,0
152,note_on,,8,0,4,,,,,,,,,3,,,69,0
156,note_on,,4,0,4,,,,,,,,,3,,,67,95
156,note_on,,4,0,5,,,,,,,,,4,,,67,95
160,note_on,,16,0,2,,,,,,,,,1,,,61,0
164,note_on,,8,0,4,,,,,,,,,3,,,67,0
164,note_on,,8,0,5,,,,,,,,,4,,,67,0
168,note_on,,8,0,2,,,,,,,,,1,,,57,79
168,note_on,,4,0,4,,,,,,,,,3,,,66,95
168,note_on,,4,0,5,,,,,,,,,4,,,66,95
168,note_on,,24,0,8,,,,,,,,,7,,,49,0
168,note_on,,0,0,8,,,,,,,,,7,,,45,95
168,note_on,,0,0,6,,,,,,,,,5,,,61,95
168,note_on,,24,0,6,,,,,,,,,5,,,64,0
168,note_on,,0,0,7,,,,,,,,,6,,,57,95
168,note_on,,24,0,7,,,,,,,,,6,,,61,0
176,note_on,,8,0,4,,,,,,,,,3,,,66,0
176,note_on,,8,0,5,,,,,,,,,4,,,66,0
180,note_on,,4,0,5,,,,,,,,,4,,,64,95
180,note_on,,4,0,4,,,,,,,,,3,,,64,95
184,note_on,,16,0,2,,,,,,,,,1,,,57,0
188,note_on,,8,0,4,,,,,,,,,3,,,64,0
188,note_on,,8,0,5,,,,,,,,,4,,,64,0
192,note_on,,4,0,4,,,,,,,,,3,,,62,95
192,note_on,,4,0,5,,,,,,,,,4,,,62,95
192,note_on,,0,0,6,,,,,,,,,5,,,62,95
192,note_on,,24,0,6,,,,,,,,,5,,,61,0
192,note_on,,24,0,8,,,,,,,,,7,,,45,0
192,note_on,,0,0,8,,,,,,,,,7,,,42,95
192,note_on,,0,0,7,,,,,,,,,6,,,54,95
192,note_on,,24,0,7,,,,,,,,,6,,,57,0
192,note_on,,8,0,2,,,,,,,,,1,,,54,79
200,note_on,,8,0,5,,,,,,,,,4,,,62,0
200,note_on,,8,0,4,,,,,,,,,3,,,62,0
204,note_on,,4,0,5,,,,,,,,,4,,,62,95
204,note_on,,4,0,4,,,,,,,,,3,,,62,95
208,note_on,,16,0,2,,,,,,,,,1,,,54,0
212,note_on,,8,0,5,,,,,,,,,4,,,62,0
212,note_on,,8,0,4,,,,,,,,,3,,,62,0
216,note_on,,4,0,4,,,,,,,,,3,,,66,95
216,note_on,,0,0,8,,,,,,,,,7,,,40,95
216,note_on,,0,0,7,,,,,,,,,6,,,52,95
216,note_on,,0,0,6,,,,,,,,,5,,,57,95
216,note_on,,24,0,7,,,,,,,,,6,,,54,0
216,note_on,,4,0,5,,,,,,,,,4,,,66,95
216,note_on,,24,0,6,,,,,,,,,5,,,62,0
216,note_on,,8,0,2,,,,,,,,,1,,,52,79
216,note_on,,24,0,8,,,,,,,,,7,,,42,0
224,note_on,,8,0,4,,,,,,,,,3,,,66,0
224,note_on,,8,0,5,,,,,,,,,4,,,66,0
228,note_on,,4,0,5,,,,,,,,,4,,,66,95
228,note_on,,4,0,4,,,,,,,,,3,,,66,95
232,note_on,,16,0,2,,,,,,,,,1,,,52,0
236,note_on,,8,0,4,,,,,,,,,3,,,66,0
236,note_on,,8,0,5,,,,,,,,,4,,,66,0
240,note_on,,4,0,5,,,,,,,,,4,,,69,95
240,note_on,,24,0,7,,,,,,,,,6,,,52,0
240,note_on,,8,0,2,,,,,,,,,1,,,54,79
240,note_on,,0,0,8,,,,,,,,,7,,,42,95
240,note_on,,24,0,8,,,,,,,,,7,,,40,0
240,note_on,,24,0,6,,,,,,,,,5,,,57,0
240,note_on,,0,0,6,,,,,,,,,5,,,62,95
240,note_on,,4,0,4,,,,,,,,,3,,,69,95
240,note_on,,0,0,7,,,,,,,,,6,,,54,95
248,note_on,,8,0,4,,,,,,,,,3,,,69,0
248,note_on,,8,0,5,,,,,,,,,4,,,69,0
252,note_on,,4,0,5,,,,,,,,,4,,,69,95
252,note_on,,4,0,4,,,,,,,,,3,,,69,95
256,note_on,,16,0,2,,,,,,,,,1,,,54,0
260,note_on,,8,0,5,,,,,,,,,4,,,69,0
260,note_on,,8,0,4,,,,,,,,,3,,,69,0
264,note_on,,0,0,8,,,,,,,,,7,,,38,95
264,note_on,,24,0,8,,,,,,,,,7,,,42,0
264,note_on,,24,0,6,,,,,,,,,5,,,62,0
264,note_on,,0,0,7,,,,,,,,,6,,,50,95
264,note_on,,4,0,4,,,,,,,,,3,,,74,95
264,note_on,,24,0,7,,,,,,,,,6,,,54,0
264,note_on,,4,0,5,,,,,,,,,4,,,74,95
264,note_on,,8,0,2,,,,,,,,,1,,,50,79
264,note_on,,0,0,6,,,,,,,,,5,,,66,95
272,note_on,,8,0,5,,,,,,,,,4,,,74,0
272,note_on,,8,0,4,,,,,,,,,3,,,74,0
276,note_on,,4,0,5,,,,,,,,,4,,,74,95
276,note_on,,4,0,4,,,,,,,,,3,,,74,95
280,note_on,,16,0,2,,,,,,,,,1,,,50,0
284,note_on,,8,0,4,,,,,,,,,3,,,74,0
284,note_on,,8,0,5,,,,,,,,,4,,,74,0
288,note_on,,0,0,8,,,,,,,,,7,,,45,95
288,note_on,,24,0,7,,,,,,,,,6,,,50,0
288,note_on,,0,0,7,,,,,,,,,6,,,57,95
288,note_on,,0,0,6,,,,,,,,,5,,,61,95
288,note_on,,4,0,4,,,,,,,,,3,,,76,95
288,note_on,,24,0,8,,,,,,,,,7,,,38,0
288,note_on,,4,0,5,,,,,,,,,4,,,76,95
288,note_on,,24,0,6,,,,,,,,,5,,,66,0
288,note_on,,8,0,2,,,,,,,,,1,,,57,79
304,note_on,,16,0,5,,,,,,,,,4,,,76,0
304,note_on,,16,0,2,,,,,,,,,1,,,57,0
304,note_on,,16,0,4,,,,,,,,,3,,,76,0
312,note_on,,0,0,7,,,,,,,,,6,,,59,95
312,note_on,,8,0,2,,,,,,,,,1,,,59,79
312,note_on,,24,0,7,,,,,,,,,6,,,57,0
312,note_on,,8,0,4,,,,,,,,,3,,,69,95
312,note_on,,0,0,8,,,,,,,,,7,,,47,95
312,note_on,,24,0,8,,,,,,,,,7,,,45,0
312,note_on,,24,0,6,,,,,,,,,5,,,61,0
312,note_on,,0,0,6,,,,,,,,,5,,,62,95
312,note_on,,8,0,5,,,,,,,,,4,,,69,95
328,note_on,,16,0,4,,,,,,,,,3,,,69,0
328,note_on,,16,0,2,,,,,,,,,1,,,59,0
328,note_on,,16,0,5,,,,,,,,,4,,,69,0
336,note_on,,0,0,8,,,,,,,,,7,,,49,95
336,note_on,,24,0,8,,,,,,,,,7,,,47,0
336,note_on,,0,0,7,,,,,,,,,6,,,61,95
336,note_on,,0,0,6,,,,,,,,,5,,,64,95
336,note_on,,24,0,6,,,,,,,,,5,,,62,0
336,note_on,,8,0,2,,,,,,,,,1,,,61,79
336,note_on,,24,0,7,,,,,,,,,6,,,59,0
352,note_on,,16,0,2,,,,,,,,,1,,,61,0
360,note_on,,24,0,6,,,,,,,,,5,,,64,0
360,note_on,,0,0,7,,,,,,,,,6,,,57,95
360,note_on,,0,0,6,,,,,,,,,5,,,61,95
360,note_on,,8,0,2,,,,,,,,,1,,,57,79
360,note_on,,32,0,5,,,,,,,,,4,,,76,95
360,note_on,,24,0,7,,,,,,,,,6,,,61,0
360,note_on,,32,0,4,,,,,,,,,3,,,76,95
360,note_on,,24,0,8,,,,,,,,,7,,,49,0
360,note_on,,0,0,8,,,,,,,,,7,,,45,95
376,note_on,,16,0,5,,,,,,,,,4,,,76,0
376,note_on,,16,0,4,,,,,,,,,3,,,76,0
376,note_on,,16,0,2,,,,,,,,,1,,,57,0
384,note_on,,0,0,8,,,,,,,,,7,,,50,95
384,note_on,,8,0,5,,,,,,,,,4,,,78,95
384,note_on,,24,0,6,,,,,,,,,5,,,61,0
384,note_on,,8,0,2,,,,,,,,,1,,,62,79
384,note_on,,0,0,7,,,,,,,,,6,,,62,95
384,note_on,,24,0,7,,,,,,,,,6,,,57,0
384,note_on,,24,0,8,,,,,,,,,7,,,45,0
384,note_on,,8,0,4,,,,,,,,,3,,,78,95
384,note_on,,0,0,6,,,,,,,,,5,,,62,95
392,note_on,,8,0,4,,,,,,,,,3,,,78,0
392,note_on,,8,0,5,,,,,,,,,4,,,78,0
396,note_on,,4,0,5,,,,,,,,,4,,,78,95
396,note_on,,4,0,4,,,,,,,,,3,,,78,95
400,note_on,,16,0,2,,,,,,,,,1,,,62,0
404,note_on,,8,0,5,,,,,,,,,4,,,78,0
404,note_on,,8,0,4,,,,,,,,,3,,,78,0
408,note_on,,4,0,4,,,,,,,,,3,,,76,95
408,note_on,,0,0,6,,,,,,,,,5,,,69,95
408,note_on,,4,0,5,,,,,,,,,4,,,76,95
408,note_on,,8,0,2,,,,,,,,,1,,,61,79
408,note_on,,24,0,7,,,,,,,,,6,,,62,0
408,note_on,,0,0,7,,,,,,,,,6,,,61,95
408,note_on,,24,0,8,,,,,,,,,7,,,50,0
408,note_on,,0,0,8,,,,,,,,,7,,,49,95
408,note_on,,24,0,6,,,,,,,,,5,,,62,0
416,note_on,,8,0,5,,,,,,,,,4,,,76,0
416,note_on,,8,0,4,,,,,,,,,3,,,76,0
420,note_on,,4,0,4,,,,,,,,,3,,,76,95
420,note_on,,4,0,5,,,,,,,,,4,,,76,95
424,note_on,,16,0,2,,,,,,,,,1,,,61,0
428,note_on,,8,0,4,,,,,,,,,3,,,76,0
428,note_on,,8,0,5,,,,,,,,,4,,,76,0
432,note_on,,4,0,4,,,,,,,,,3,,,79,95
432,note_on,,24,0,7,,,,,,,,,6,,,61,0
432,note_on,,4,0,5,,,,,,,,,4,,,79,95
432,note_on,,24,0,6,,,,,,,,,5,,,69,0
432,note_on,,0,0,6,,,,,,,,,5,,,74,95
432,note_on,,8,0,2,,,,,,,,,1,,,59,79
432,note_on,,0,0,8,,,,,,,,,7,,,47,95
432,note_on,,0,0,7,,,,,,,,,6,,,59,95
432,note_on,,24,0,8,,,,,,,,,7,,,49,0
440,note_on,,8,0,5,,,,,,,,,4,,,79,0
440,note_on,,8,0,4,,,,,,,,,3,,,79,0
444,note_on,,4,0,5,,,,,,,,,4,,,79,95
444,note_on,,4,0,4,,,,,,,,,3,,,79,95
448,note_on,,16,0,2,,,,,,,,,1,,,59,0
452,note_on,,8,0,4,,,,,,,,,3,,,79,0
452,note_on,,8,0,5,,,,,,,,,4,,,79,0
456,note_on,,0,0,6,,,,,,,,,5,,,73,95
456,note_on,,0,0,7,,,,,,,,,6,,,57,95
456,note_on,,24,0,7,,,,,,,,,6,,,59,0
456,note_on,,8,0,2,,,,,,,,,1,,,57,79
456,note_on,,24,0,6,,,,,,,,,5,,,74,0
456,note_on,,24,0,8,,,,,,,,,7,,,47,0
456,note_on,,0,0,8,,,,,,,,,7,,,45,95
456,note_on,,4,0,4,,,,,,,,,3,,,78,95
456,note_on,,4,0,5,,,,,,,,,4,,,78,95
464,note_on,,8,0,5,,,,,,,,,4,,,78,0
464,note_on,,8,0,4,,,,,,,,,3,,,78,0
468,note_on,,4,0,5,,,,,,,,,4,,,78,95
468,note_on,,4,0,4,,,,,,,,,3,,,78,95
472,note_on,,16,0,2,,,,,,,,,1,,,57,0
476,note_on,,8,0,5,,,,,,,,,4,,,78,0
476,note_on,,8,0,4,,,,,,,,,3,,,78,0
480,note_on,,24,0,7,,,,,,,,,6,,,57,0
480,note_on,,0,0,7,,,,,,,,,6,,,55,95
480,note_on,,24,0,6,,,,,,,,,5,,,73,0
480,note_on,,0,0,6,,,,,,,,,5,,,74,95
480,note_on,,8,0,2,,,,,,,,,1,,,55,79
480,note_on,,4,0,5,,,,,,,,,4,,,83,95
480,note_on,,24,0,8,,,,,,,,,7,,,45,0
480,note_on,,4,0,4,,,,,,,,,3,,,83,95
480,note_on,,0,0,8,,,,,,,,,7,,,43,95
488,note_on,,8,0,5,,,,,,,,,4,,,83,0
488,note_on,,8,0,4,,,,,,,,,3,,,83,0
492,note_on,,4,0,4,,,,,,,,,3,,,83,95
492,note_on,,4,0,5,,,,,,,,,4,,,83,95
496,note_on,,16,0,2,,,,,,,,,1,,,55,0
500,note_on,,8,0,5,,,,,,,,,4,,,83,0
500,note_on,,8,0,4,,,,,,,,,3,,,83,0
504,note_on,,24,0,8,,,,,,,,,7,,,43,0
504,note_on,,0,0,8,,,,,,,,,7,,,42,95
504,note_on,,24,0,7,,,,,,,,,6,,,55,0
504,note_on,,0,0,7,,,,,,,,,6,,,54,95
504,note_on,,24,0,6,,,,,,,,,5,,,74,0
504,note_on,,0,0,6,,,,,,,,,5,,,62,95
504,note_on,,8,0,2,,,,,,,,,1,,,54,79
504,note_on,,4,0,4,,,,,,,,,3,,,81,95
504,note_on,,4,0,5,,,,,,,,,4,,,81,95
512,note_on,,8,0,4,,,,,,,,,3,,,81,0
512,note_on,,8,0,5,,,,,,,,,4,,,81,0
516,note_on,,4,0,4,,,,,,,,,3,,,81,95
516,note_on,,4,0,5,,,,,,,,,4,,,81,95
520,note_on,,16,0,2,,,,,,,,,1,,,54,0
524,note_on,,8,0,5,,,,,,,,,4,,,81,0
524,note_on,,8,0,4,,,,,,,,,3,,,81,0
528,note_on,,0,0,6,,,,,,,,,5,,,67,95
528,note_on,,24,0,6,,,,,,,,,5,,,62,0
528,note_on,,0,0,7,,,,,,,,,6,,,52,95
528,note_on,,8,0,2,,,,,,,,,1,,,52,79
528,note_on,,4,0,4,,,,,,,,,3,,,73,95
528,note_on,,24,0,8,,,,,,,,,7,,,42,0
528,note_on,,4,0,5,,,,,,,,,4,,,73,95
528,note_on,,24,0,7,,,,,,,,,6,,,54,0
528,note_on,,0,0,8,,,,,,,,,7,,,40,95
536,note_on,,8,0,5,,,,,,,,,4,,,73,0
536,note_on,,8,0,4,,,,,,,,,3,,,73,0
540,note_on,,4,0,5,,,,,,,,,4,,,73,95
540,note_on,,4,0,4,,,,,,,,,3,,,73,95
544,note_on,,16,0,2,,,,,,,,,1,,,52,0
548,note_on,,8,0,5,,,,,,,,,4,,,73,0
548,note_on,,8,0,4,,,,,,,,,3,,,73,0
552,note_on,,0,0,7,,,,,,,,,6,,,50,95
552,note_on,,8,0,2,,,,,,,,,1,,,50,79
552,note_on,,24,0,7,,,,,,,,,6,,,52,0
552,note_on,,0,0,6,,,,,,,,,5,,,66,95
552,note_on,,24,0,8,,,,,,,,,7,,,40,0
552,note_on,,0,0,8,,,,,,,,,7,,,38,95
552,note_on,,4,0,4,,,,,,,,,3,,,74,95
552,note_on,,4,0,5,,,,,,,,,4,,,74,95
552,note_on,,24,0,6,,,,,,,,,5,,,67,0
560,note_on,,8,0,4,,,,,,,,,3,,,74,0
560,note_on,,8,0,5,,,,,,,,,4,,,74,0
564,note_on,,4,0,5,,,,,,,,,4,,,74,95
564,note_on,,4,0,4,,,,,,,,,3,,,74,95
568,note_on,,16,0,2,,,,,,,,,1,,,50,0
572,note_on,,8,0,5,,,,,,,,,4,,,74,0
572,note_on,,8,0,4,,,,,,,,,3,,,74,0
576,note_on,,4,0,5,,,,,,,,,4,,,67,95
576,note_on,,24,0,7,,,,,,,,,6,,,50,0
576,note_on,,8,0,2,,,,,,,,,1,,,49,79
576,note_on,,0,0,7,,,,,,,,,6,,,49,95
576,note_on,,4,0,4,,,,,,,,,3,,,67,95
576,note_on,,0,0,6,,,,,,,,,5,,,64,95
576,note_on,,24,0,6,,,,,,,,,5,,,66,0
576,note_on,,24,0,8,,,,,,,,,7,,,38,0
576,note_on,,0,0,8,,,,,,,,,7,,,37,95
584,note_on,,8,0,5,,,,,,,,,4,,,67,0
584,note_on,,8,0,4,,,,,,,,,3,,,67,0
588,note_on,,4,0,5,,,,,,,,,4,,,67,95
588,note_on,,4,0,4,,,,,,,,,3,,,67,95
592,note_on,,16,0,2,,,,,,,,,1,,,49,0
596,note_on,,8,0,5,,,,,,,,,4,,,67,0
596,note_on,,8,0,4,,,,,,,,,3,,,67,0
600,note_on,,0,0,6,,,,,,,,,5,,,62,95
600,note_on,,0,0,7,,,,,,,,,6,,,50,95
600,note_on,,24,0,8,,,,,,,,,7,,,37,0
600,note_on,,4,0,5,,,,,,,,,4,,,66,95
600,note_on,,24,0,6,,,,,,,,,5,,,64,0
600,note_on,,24,0,7,,,,,,,,,6,,,49,0
600,note_on,,4,0,4,,,,,,,,,3,,,66,95
600,note_on,,8,0,2,,,,,,,,,1,,,50,79
600,note_on,,0,0,8,,,,,,,,,7,,,38,95
608,note_on,,8,0,5,,,,,,,,,4,,,66,0
608,note_on,,8,0,4,,,,,,,,,3,,,66,0
612,note_on,,4,0,4,,,,,,,,,3,,,66,95
612,note_on,,4,0,5,,,,,,,,,4,,,66,95
616,note_on,,16,0,2,,,,,,,,,1,,,50,0
620,note_on,,8,0,5,,,,,,,,,4,,,66,0
620,note_on,,8,0,4,,,,,,,,,3,,,66,0
624,note_on,,4,0,5,,,,,,,,,4,,,71,95
624,note_on,,8,0,2,,,,,,,,,1,,,43,79
624,note_on,,4,0,4,,,,,,,,,3,,,71,95
624,note_on,,0,0,8,,,,,,,,,7,,,43,95
624,note_on,,24,0,6,,,,,,,,,5,,,62,0
624,note_on,,24,0,8,,,,,,,,,7,,,38,0
624,note_on,,24,0,7,,,,,,,,,6,,,50,0
624,note_on,,0,0,7,,,,,,,,,6,,,43,95
624,note_on,,0,0,6,,,,,,,,,5,,,62,95
632,note_on,,8,0,4,,,,,,,,,3,,,71,0
632,note_on,,8,0,5,,,,,,,,,4,,,71,0
636,note_on,,4,0,5,,,,,,,,,4,,,71,95
636,note_on,,4,0,4,,,,,,,,,3,,,71,95
640,note_on,,16,0,2,,,,,,,,,1,,,43,0
644,note_on,,8,0,4,,,,,,,,,3,,,71,0
644,note_on,,8,0,5,,,,,,,,,4,,,71,0
648,note_on,,8,0,2,,,,,,,,,1,,,42,79
648,note_on,,24,0,6,,,,,,,,,5,,,62,0
648,note_on,,24,0,8,,,,,,,,,7,,,43,0
648,note_on,,0,0,8,,,,,,,,,7,,,42,95
648,note_on,,4,0,4,,,,,,,,,3,,,69,95
648,note_on,,0,0,6,,,,,,,,,5,,,62,95
648,note_on,,0,0,7,,,,,,,,,6,,,42,95
648,note_on,,24,0,7,,,,,,,,,6,,,43,0
648,note_on,,4,0,5,,,,,,,,,4,,,69,95
656,note_on,,8,0,5,,,,,,,,,4,,,69,0
656,note_on,,8,0,4,,,,,,,,,3,,,69,0
660,note_on,,4,0,4,,,,,,,,,3,,,69,95
660,note_on,,4,0,5,,,,,,,,,4,,,69,95
664,note_on,,16,0,2,,,,,,,,,1,,,42,0
668,note_on,,8,0,4,,,,,,,,,3,,,69,0
668,note_on,,8,0,5,,,,,,,,,4,,,69,0
672,note_on,,8,0,2,,,,,,,,,1,,,40,79
672,note_on,,4,0,4,,,,,,,,,3,,,61,95
672,note_on,,0,0,7,,,,,,,,,6,,,40,95
672,note_on,,24,0,7,,,,,,,,,6,,,42,0
672,note_on,,0,0,6,,,,,,,,,5,,,67,95
672,note_on,,24,0,6,,,,,,,,,5,,,62,0
672,note_on,,24,0,8,,,,,,,,,7,,,42,0
672,note_on,,4,0,5,,,,,,,,,4,,,61,95
672,note_on,,0,0,8,,,,,,,,,7,,,40,95
680,note_on,,8,0,5,,,,,,,,,4,,,61,0
680,note_on,,8,0,4,,,,,,,,,3,,,61,0
684,note_on,,4,0,5,,,,,,,,,4,,,61,95
684,note_on,,4,0,4,,,,,,,,,3,,,61,95
688,note_on,,16,0,2,,,,,,,,,1,,,40,0
692,note_on,,8,0,5,,,,,,,,,4,,,61,0
692,note_on,,8,0,4,,,,,,,,,3,,,61,0
696,note_on,,0,0,8,,,,,,,,,7,,,38,95
696,note_on,,24,0,8,,,,,,,,,7,,,40,0
696,note_on,,24,0,7,,,,,,,,,6,,,40,0
696,note_on,,0,0,7,,,,,,,,,6,,,38,95
696,note_on,,4,0,5,,,,,,,,,4,,,62,95
696,note_on,,0,0,6,,,,,,,,,5,,,66,95
696,note_on,,24,0,6,,,,,,,,,5,,,67,0
696,note_on,,8,0,2,,,,,,,,,1,,,38,79
696,note_on,,4,0,4,,,,,,,,,3,,,62,95
704,note_on,,8,0,5,,,,,,,,,4,,,62,0
704,note_on,,8,0,4,,,,,,,,,3,,,62,0
708,note_on,,4,0,4,,,,,,,,,3,,,62,95
708,note_on,,4,0,5,,,,,,,,,4,,,62,95
712,note_on,,16,0,2,,,,,,,,,1,,,38,0
716,note_on,,8,0,5,,,,,,,,,4,,,62,0
716,note_on,,8,0,4,,,,,,,,,3,,,62,0
720,note_on,,24,0,6,,,,,,,,,5,,,66,0
720,note_on,,24,0,8,,,,,,,,,7,,,38,0
720,note_on,,8,0,2,,,,,,,,,1,,,37,79
720,note_on,,0,0,6,,,,,,,,,5,,,64,95
720,note_on,,4,0,4,,,,,,,,,3,,,57,95
720,note_on,,0,0,7,,,,,,,,,6,,,37,95
720,note_on,,24,0,7,,,,,,,,,6,,,38,0
720,note_on,,0,0,8,,,,,,,,,7,,,37,95
720,note_on,,4,0,5,,,,,,,,,4,,,57,95
728,note_on,,8,0,5,,,,,,,,,4,,,57,0
728,note_on,,8,0,4,,,,,,,,,3,,,57,0
732,note_on,,4,0,4,,,,,,,,,3,,,57,95
732,note_on,,4,0,5,,,,,,,,,4,,,57,95
736,note_on,,16,0,2,,,,,,,,,1,,,37,0
740,note_on,,8,0,4,,,,,,,,,3,,,57,0
740,note_on,,8,0,5,,,,,,,,,4,,,57,0
744,note_on,,4,0,5,,,,,,,,,4,,,67,95
744,note_on,,0,0,8,,,,,,,,,7,,,33,95
744,note_on,,0,0,6,,,,,,,,,5,,,57,95
744,note_on,,24,0,7,,,,,,,,,6,,,37,0
744,note_on,,24,0,6,,,,,,,,,5,,,64,0
744,note_on,,0,0,7,,,,,,,,,6,,,49,95
744,note_on,,4,0,4,,,,,,,,,3,,,67,95
744,note_on,,8,0,2,,,,,,,,,1,,,49,79
744,note_on,,24,0,8,,,,,,,,,7,,,37,0
752,note_on,,8,0,5,,,,,,,,,4,,,67,0
752,note_on,,8,0,4,,,,,,,,,3,,,67,0
756,note_on,,4,0,4,,,,,,,,,3,,,67,95
756,note_on,,4,0,5,,,,,,,,,4,,,67,95
760,note_on,,16,0,2,,,,,,,,,1,,,49,0
764,note_on,,8,0,4,,,,,,,,,3,,,67,0
764,note_on,,8,0,5,,,,,,,,,4,,,67,0
768,note_on,,4,0,5,,,,,,,,,4,,,66,95
768,note_on,,24,0,8,,,,,,,,,7,,,33,0
768,note_on,,0,0,8,,,,,,,,,7,,,38,95
768,note_on,,24,0,6,,,,,,,,,5,,,57,0
768,note_on,,0,0,6,,,,,,,,,5,,,57,95
768,note_on,,24,0,7,,,,,,,,,6,,,49,0
768,note_on,,0,0,7,,,,,,,,,6,,,50,95
768,note_on,,4,0,4,,,,,,,,,3,,,66,95
768,note_on,,8,0,2,,,,,,,,,1,,,50,79
776,note_on,,8,0,4,,,,,,,,,3,,,66,0
776,note_on,,8,0,5,,,,,,,,,4,,,66,0
780,note_on,,4,0,5,,,,,,,,,4,,,64,95
780,note_on,,4,0,4,,,,,,,,,3,,,64,95
784,note_on,,16,0,2,,,,,,,,,1,,,50,0
788,note_on,,8,0,5,,,,,,,,,4,,,64,0
788,note_on,,8,0,4,,,,,,,,,3,,,64,0
792,note_on,,8,0,2,,,,,,,,,1,,,47,79
792,note_on,,4,0,4,,,,,,,,,3,,,66,95
792,note_on,,24,0,6,,,,,,,,,5,,,57,0
792,note_on,,0,0,6,,,,,,,,,5,,,62,95
792,note_on,,4,0,5,,,,,,,,,4,,,66,95
792,note_on,,24,0,8,,,,,,,,,7,,,38,0
792,note_on,,0,0,8,,,,,,,,,7,,,35,95
792,note_on,,24,0,7,,,,,,,,,6,,,50,0
792,note_on,,0,0,7,,,,,,,,,6,,,47,95
800,note_on,,8,0,4,,,,,,,,,3,,,66,0
800,note_on,,8,0,5,,,,,,,,,4,,,66,0
804,note_on,,4,0,5,,,,,,,,,4,,,62,95
804,note_on,,4,0,4,,,,,,,,,3,,,62,95
808,note_on,,16,0,2,,,,,,,,,1,,,47,0
812,note_on,,8,0,4,,,,,,,,,3,,,62,0
812,note_on,,8,0,5,,,,,,,,,4,,,62,0
816,note_on,,4,0,5,,,,,,,,,4,,,64,95
816,note_on,,24,0,7,,,,,,,,,6,,,47,0
816,note_on,,0,0,7,,,,,,,,,6,,,43,95
816,note_on,,4,0,4,,,,,,,,,3,,,64,95
816,note_on,,8,0,2,,,,,,,,,1,,,43,79
816,note_on,,24,0,6,,,,,,,,,5,,,62,0
816,note_on,,24,0,8,,,,,,,,,7,,,35,0
816,note_on,,0,0,8,,,,,,,,,7,,,31,95
816,note_on,,0,0,6,,,,,,,,,5,,,59,95
824,note_on,,8,0,4,,,,,,,,,3,,,64,0
824,note_on,,8,0,5,,,,,,,,,4,,,64,0
828,note_on,,4,0,5,,,,,,,,,4,,,64,95
828,note_on,,4,0,4,,,,,,,,,3,,,64,95
832,note_on,,16,0,2,,,,,,,,,1,,,43,0
836,note_on,,8,0,4,,,,,,,,,3,,,64,0
836,note_on,,8,0,5,,,,,,,,,4,,,64,0
840,note_on,,24,0,7,,,,,,,,,6,,,43,0
840,note_on,,4,0,5,,,,,,,,,4,,,57,95
840,note_on,,0,0,7,,,,,,,,,6,,,45,95
840,note_on,,0,0,8,,,,,,,,,7,,,33,95
840,note_on,,8,0,2,,,,,,,,,1,,,45,79
840,note_on,,0,0,6,,,,,,,,,5,,,61,95
840,note_on,,4,0,4,,,,,,,,,3,,,57,95
840,note_on,,24,0,8,,,,,,,,,7,,,31,0
840,note_on,,24,0,6,,,,,,,,,5,,,59,0
848,note_on,,8,0,4,,,,,,,,,3,,,57,0
848,note_on,,8,0,5,,,,,,,,,4,,,57,0
852,note_on,,4,0,4,,,,,,,,,3,,,57,95
852,note_on,,4,0,5,,,,,,,,,4,,,57,95
856,note_on,,16,0,2,,,,,,,,,1,,,45,0
860,note_on,,8,0,5,,,,,,,,,4,,,57,0
860,note_on,,8,0,4,,,,,,,,,3,,,57,0
864,note_on,,4,0,4,,,,,,,,,3,,,62,95
864,note_on,,24,0,8,,,,,,,,,7,,,33,0
864,note_on,,24,0,7,,,,,,,,,6,,,45,0
864,note_on,,0,0,7,,,,,,,,,6,,,47,95
864,note_on,,0,0,8,,,,,,,,,7,,,35,95
864,note_on,,4,0,5,,,,,,,,,4,,,62,95
864,note_on,,8,0,2,,,,,,,,,1,,,47,79
864,note_on,,24,0,6,,,,,,,,,5,,,61,0
864,note_on,,0,0,6,,,,,,,,,5,,,62,95
872,note_on,,8,0,5,,,,,,,,,4,,,62,0
872,note_on,,8,0,4,,,,,,,,,3,,,62,0
872,note_on,,8,0,2,,,,,,,,,1,,,47,0
876,note_on,,0,0,7,,,,,,,,,6,,,49,95
876,note_on,,12,0,7,,,,,,,,,6,,,47,0
876,note_on,,12,0,6,,,,,,,,,5,,,62,0
876,note_on,,0,0,6,,,,,,,,,5,,,64,95
876,note_on,,4,0,2,,,,,,,,,1,,,49,79
876,note_on,,4,0,4,,,,,,,,,3,,,64,95
876,note_on,,0,0,8,,,,,,,,,7,,,37,95
876,note_on,,12,0,8,,,,,,,,,7,,,35,0
876,note_on,,4,0,5,,,,,,,,,4,,,64,95
884,note_on,,8,0,2,,,,,,,,,1,,,49,0
884,note_on,,8,0,4,,,,,,,,,3,,,64,0
884,note_on,,8,0,5,,,,,,,,,4,,,64,0
888,note_on,,0,0,6,,,,,,,,,5,,,66,95
888,note_on,,12,0,7,,,,,,,,,6,,,49,0
888,note_on,,0,0,7,,,,,,,,,6,,,50,95
888,note_on,,4,0,5,,,,,,,,,4,,,66,95
888,note_on,,12,0,6,,,,,,,,,5,,,64,0
888,note_on,,4,0,2,,,,,,,,,1,,,50,79
888,note_on,,0,0,8,,,,,,,,,7,,,38,95
888,note_on,,12,0,8,,,,,,,,,7,,,37,0
888,note_on,,4,0,4,,,,,,,,,3,,,66,95
896,note_on,,8,0,5,,,,,,,,,4,,,66,0
896,note_on,,8,0,2,,,,,,,,,1,,,50,0
896,note_on,,8,0,4,,,,,,,,,3,,,66,0
900,note_on,,0,0,7,,,,,,,,,6,,,52,95
900,note_on,,4,0,4,,,,,,,,,3,,,67,95
900,note_on,,12,0,8,,,,,,,,,7,,,38,0
900,note_on,,4,0,5,,,,,,,,,4,,,67,95
900,note_on,,4,0,2,,,,,,,,,1,,,52,79
900,note_on,,12,0,6,,,,,,,,,5,,,66,0
900,note_on,,0,0,6,,,,,,,,,5,,,67,95
900,note_on,,12,0,7,,,,,,,,,6,,,50,0
900,note_on,,0,0,8,,,,,,,,,7,,,40,95
908,note_on,,8,0,4,,,,,,,,,3,,,67,0
908,note_on,,8,0,5,,,,,,,,,4,,,67,0
908,note_on,,8,0,2,,,,,,,,,1,,,52,0
912,note_on,,0,0,7,,,,,,,,,6,,,54,95
912,note_on,,12,0,6,,,,,,,,,5,,,67,0
912,note_on,,4,0,4,,,,,,,,,3,,,69,95
912,note_on,,12,0,8,,,,,,,,,7,,,40,0
912,note_on,,0,0,6,,,,,,,,,5,,,69,95
912,note_on,,0,0,8,,,,,,,,,7,,,42,95
912,note_on,,12,0,7,,,,,,,,,6,,,52,0
912,note_on,,4,0,5,,,,,,,,,4,,,69,95
912,note_on,,4,0,2,,,,,,,,,1,,,54,79
920,note_on,,8,0,5,,,,,,,,,4,,,69,0
920,note_on,,8,0,2,,,,,,,,,1,,,54,0
920,note_on,,8,0,4,,,,,,,,,3,,,69,0
924,note_on,,12,0,7,,,,,,,,,6,,,54,0
924,note_on,,12,0,8,,,,,,,,,7,,,42,0
924,note_on,,0,0,8,,,,,,,,,7,,,43,95
924,note_on,,0,0,7,,,,,,,,,6,,,55,95
924,note_on,,4,0,4,,,,,,,,,3,,,71,95
924,note_on,,4,0,5,,,,,,,,,4,,,71,95
924,note_on,,4,0,2,,,,,,,,,1,,,55,79
924,note_on,,0,0,6,,,,,,,,,5,,,71,95
924,note_on,,12,0,6,,,,,,,,,5,,,69,0
932,note_on,,8,0,4,,,,,,,,,3,,,71,0
932,note_on,,8,0,5,,,,,,,,,4,,,71,0
932,note_on,,8,0,2,,,,,,,,,1,,,55,0
936,note_on,,4,0,4,,,,,,,,,3,,,73,95
936,note_on,,12,0,7,,,,,,,,,6,,,55,0
936,note_on,,12,0,8,,,,,,,,,7,,,43,0
936,note_on,,0,0,8,,,,,,,,,7,,,45,95
936,note_on,,4,0,2,,,,,,,,,1,,,57,79
936,note_on,,12,0,6,,,,,,,,,5,,,71,0
936,note_on,,0,0,6,,,,,,,,,5,,,73,95
936,note_on,,0,0,7,,,,,,,,,6,,,57,95
936,note_on,,4,0,5,,,,,,,,,4,,,73,95
944,note_on,,8,0,2,,,,,,,,,1,,,57,0
944,note_on,,8,0,5,,,,,,,,,4,,,73,0
944,note_on,,8,0,4,,,,,,,,,3,,,73,0
948,note_on,,4,0,4,,,,,,,,,3,,,69,95
948,note_on,,0,0,7,,,,,,,,,6,,,54,95
948,note_on,,12,0,7,,,,,,,,,6,,,57,0
948,note_on,,4,0,2,,,,,,,,,1,,,54,79
948,note_on,,0,0,6,,,,,,,,,5,,,69,95
948,note_on,,4,0,5,,,,,,,,,4,,,69,95
948,note_on,,12,0,8,,,,,,,,,7,,,45,0
948,note_on,,0,0,8,,,,,,,,,7,,,42,95
948,note_on,,12,0,6,,,,,,,,,5,,,73,0
956,note_on,,8,0,2,,,,,,,,,1,,,54,0
956,note_on,,8,0,5,,,,,,,,,4,,,69,0
956,note_on,,8,0,4,,,,,,,,,3,,,69,0
960,note_on,,4,0,2,,,,,,,,,1,,,59,79
960,note_on,,12,0,7,,,,,,,,,6,,,54,0
960,note_on,,0,0,7,,,,,,,,,6,,,59,95
960,note_on,,12,0,8,,,,,,,,,7,,,42,0
960,note_on,,12,0,6,,,,,,,,,5,,,69,0
960,note_on,,0,0,6,,,,,,,,,5,,,74,95
960,note_on,,4,0,4,,,,,,,,,3,,,74,95
960,note_on,,0,0,8,,,,,,,,,7,,,47,95
960,note_on,,4,0,5,,,,,,,,,4,,,74,95
968,note_on,,8,0,4,,,,,,,,,3,,,74,0
968,note_on,,8,0,5,,,,,,,,,4,,,74,0
972,note_on,,4,0,4,,,,,,,,,3,,,74,95
972,note_on,,4,0,5,,,,,,,,,4,,,74,95
976,note_on,,16,0,2,,,,,,,,,1,,,59,0
980,note_on,,8,0,4,,,,,,,,,3,,,74,0
980,note_on,,8,0,5,,,,,,,,,4,,,74,0
984,note_on,,0,0,7,,,,,,,,,6,,,57,95
984,note_on,,0,0,6,,,,,,,,,5,,,66,95
984,note_on,,24,0,6,,,,,,,,,5,,,74,0
984,note_on,,4,0,5,,,,,,,,,4,,,73,95
984,note_on,,24,0,7,,,,,,,,,6,,,59,0
984,note_on,,8,0,2,,,,,,,,,1,,,57,79
984,note_on,,24,0,8,,,,,,,,,7,,,47,0
984,note_on,,0,0,8,,,,,,,,,7,,,45,95
984,note_on,,4,0,4,,,,,,,,,3,,,73,95
992,note_on,,8,0,4,,,,,,,,,3,,,73,0
992,note_on,,8,0,5,,,,,,,,,4,,,73,0
996,note_on,,4,0,4,,,,,,,,,3,,,73,95
996,note_on,,4,0,5,,,,,,,,,4,,,73,95
1000,note_on,,16,0,2,,,,,,,,,1,,,57,0
1004,note_on,,8,0,4,,,,,,,,,3,,,73,0
1004,note_on,,8,0,5,,,,,,,,,4,,,73,0
1008,note_on,,0,0,7,,,,,,,,,6,,,55,95
1008,note_on,,4,0,4,,,,,,,,,3,,,76,95
1008,note_on,,4,0,5,,,,,,,,,4,,,76,95
1008,note_on,,0,0,6,,,,,,,,,5,,,71,95
1008,note_on,,24,0,6,,,,,,,,,5,,,66,0
1008,note_on,,0,0,8,,,,,,,,,7,,,43,95
1008,note_on,,8,0,2,,,,,,,,,1,,,55,79
1008,note_on,,24,0,8,,,,,,,,,7,,,45,0
1008,note_on,,24,0,7,,,,,,,,,6,,,57,0
1016,note_on,,8,0,4,,,,,,,,,3,,,76,0
1016,note_on,,8,0,5,,,,,,,,,4,,,76,0
1020,note_on,,4,0,4,,,,,,,,,3,,,76,95
1020,note_on,,4,0,5,,,,,,,,,4,,,76,95
1024,note_on,,16,0,2,,,,,,,,,1,,,55,0
1028,note_on,,8,0,5,,,,,,,,,4,,,76,0
1028,note_on,,8,0,4,,,,,,,,,3,,,76,0
1032,note_on,,4,0,4,,,,,,,,,3,,,74,95
1032,note_on,,0,0,8,,,,,,,,,7,,,42,95
1032,note_on,,24,0,8,,,,,,,,,7,,,43,0
1032,note_on,,8,0,2,,,,,,,,,1,,,54,79
1032,note_on,,0,0,6,,,,,,,,,5,,,69,95
1032,note_on,,24,0,7,,,,,,,,,6,,,55,0
1032,note_on,,0,0,7,,,,,,,,,6,,,54,95
1032,note_on,,24,0,6,,,,,,,,,5,,,71,0
1032,note_on,,4,0,5,,,,,,,,,4,,,74,95
1040,note_on,,8,0,4,,,,,,,,,3,,,74,0
1040,note_on,,8,0,5,,,,,,,,,4,,,74,0
1044,note_on,,4,0,5,,,,,,,,,4,,,74,95
1044,note_on,,4,0,4,,,,,,,,,3,,,74,95
1048,note_on,,16,0,2,,,,,,,,,1,,,54,0
1052,note_on,,8,0,5,,,,,,,,,4,,,74,0
1052,note_on,,8,0,4,,,,,,,,,3,,,74,0
1056,note_on,,0,0,8,,,,,,,,,7,,,40,95
1056,note_on,,4,0,5,,,,,,,,,4,,,79,95
1056,note_on,,24,0,8,,,,,,,,,7,,,42,0
1056,note_on,,0,0,6,,,,,,,,,5,,,64,95
1056,note_on,,24,0,6,,,,,,,,,5,,,69,0
1056,note_on,,4,0,4,,,,,,,,,3,,,79,95
1056,note_on,,0,0,7,,,,,,,,,6,,,52,95
1056,note_on,,24,0,7,,,,,,,,,6,,,54,0
1056,note_on,,8,0,2,,,,,,,,,1,,,52,79
1064,note_on,,8,0,5,,,,,,,,,4,,,79,0
1064,note_on,,8,0,4,,,,,,,,,3,,,79,0
1068,note_on,,4,0,5,,,,,,,,,4,,,79,95
1068,note_on,,4,0,4,,,,,,,,,3,,,79,95
1072,note_on,,16,0,2,,,,,,,,,1,,,52,0
1076,note_on,,8,0,5,,,,,,,,,4,,,79,0
1076,note_on,,8,0,4,,,,,,,,,3,,,79,0
1080,note_on,,4,0,4,,,,,,,,,3,,,78,95
1080,note_on,,24,0,8,,,,,,,,,7,,,40,0
1080,note_on,,8,0,2,,,,,,,,,1,,,50,79
1080,note_on,,24,0,7,,,,,,,,,6,,,52,0
1080,note_on,,0,0,7,,,,,,,,,6,,,50,95
1080,note_on,,0,0,6,,,,,,,,,5,,,66,95
1080,note_on,,24,0,6,,,,,,,,,5,,,64,0
1080,note_on,,4,0,5,,,,,,,,,4,,,78,95
1080,note_on,,0,0,8,,,,,,,,,7,,,38,95
1088,note_on,,8,0,4,,,,,,,,,3,,,78,0
1088,note_on,,8,0,5,,,,,,,,,4,,,78,0
1092,note_on,,4,0,4,,,,,,,,,3,,,78,95
1092,note_on,,4,0,5,,,,,,,,,4,,,78,95
1096,note_on,,16,0,2,,,,,,,,,1,,,50,0
1100,note_on,,8,0,5,,,,,,,,,4,,,78,0
1100,note_on,,8,0,4,,,,,,,,,3,,,78,0
1104,note_on,,4,0,4,,,,,,,,,3,,,83,95
1104,note_on,,0,0,7,,,,,,,,,6,,,49,95
1104,note_on,,24,0,7,,,,,,,,,6,,,50,0
1104,note_on,,8,0,2,,,,,,,,,1,,,49,79
1104,note_on,,24,0,8,,,,,,,,,7,,,38,0
1104,note_on,,0,0,8,,,,,,,,,7,,,37,95
1104,note_on,,24,0,6,,,,,,,,,5,,,66,0
1104,note_on,,0,0,6,,,,,,,,,5,,,67,95
1104,note_on,,4,0,5,,,,,,,,,4,,,83,95
1112,note_on,,8,0,4,,,,,,,,,3,,,83,0
1112,note_on,,8,0,5,,,,,,,,,4,,,83,0
1116,note_on,,4,0,5,,,,,,,,,4,,,83,95
1116,note_on,,4,0,4,,,,,,,,,3,,,83,95
1120,note_on,,16,0,2,,,,,,,,,1,,,49,0
1124,note_on,,8,0,4,,,,,,,,,3,,,83,0
1124,note_on,,8,0,5,,,,,,,,,4,,,83,0
1128,note_on,,0,0,7,,,,,,,,,6,,,45,95
1128,note_on,,24,0,7,,,,,,,,,6,,,49,0
1128,note_on,,4,0,4,,,,,,,,,3,,,81,95
1128,note_on,,0,0,8,,,,,,,,,7,,,33,95
1128,note_on,,4,0,5,,,,,,,,,4,,,81,95
1128,note_on,,8,0,2,,,,,,,,,1,,,45,79
1128,note_on,,24,0,6,,,,,,,,,5,,,67,0
1128,note_on,,0,0,6,,,,,,,,,5,,,64,95
1128,note_on,,24,0,8,,,,,,,,,7,,,37,0
1136,note_on,,8,0,4,,,,,,,,,3,,,81,0
1136,note_on,,8,0,5,,,,,,,,,4,,,81,0
1140,note_on,,4,0,4,,,,,,,,,3,,,81,95
1140,note_on,,4,0,5,,,,,,,,,4,,,81,95
1144,note_on,,16,0,2,,,,,,,,,1,,,45,0
1148,note_on,,8,0,4,,,,,,,,,3,,,81,0
1148,note_on,,8,0,5,,,,,,,,,4,,,81,0
1152,note_on,,24,0,8,,,,,,,,,7,,,33,0
1152,note_on,,0,0,8,,,,,,,,,7,,,38,95
1152,note_on,,4,0,4,,,,,,,,,3,,,79,95
1152,note_on,,0,0,6,,,,,,,,,5,,,62,95
1152,note_on,,24,0,6,,,,,,,,,5,,,64,0
1152,note_on,,24,0,7,,,,,,,,,6,,,45,0
1152,note_on,,0,0,7,,,,,,,,,6,,,50,95
1152,note_on,,8,0,2,,,,,,,,,1,,,50,79
1152,note_on,,4,0,5,,,,,,,,,4,,,79,95
1160,note_on,,8,0,5,,,,,,,,,4,,,79,0
1160,note_on,,8,0,4,,,,,,,,,3,,,79,0
1164,note_on,,4,0,4,,,,,,,,,3,,,78,95
1164,note_on,,4,0,5,,,,,,,,,4,,,78,95
1168,note_on,,16,0,2,,,,,,,,,1,,,50,0
1172,note_on,,8,0,4,,,,,,,,,3,,,78,0
1172,note_on,,8,0,5,,,,,,,,,4,,,78,0
1176,note_on,,0,0,6,,,,,,,,,5,,,69,95
1176,note_on,,24,0,6,,,,,,,,,5,,,62,0
1176,note_on,,4,0,4,,,,,,,,,3,,,76,95
1176,note_on,,24,0,8,,,,,,,,,7,,,38,0
1176,note_on,,4,0,5,,,,,,,,,4,,,76,95
1176,note_on,,8,0,2,,,,,,,,,1,,,54,79
1176,note_on,,24,0,7,,,,,,,,,6,,,50,0
1176,note_on,,0,0,7,,,,,,,,,6,,,54,95
1176,note_on,,0,0,8,,,,,,,,,7,,,42,95
1184,note_on,,8,0,5,,,,,,,,,4,,,76,0
1184,note_on,,8,0,4,,,,,,,,,3,,,76,0
1188,note_on,,4,0,4,,,,,,,,,3,,,74,95
1188,note_on,,4,0,5,,,,,,,,,4,,,74,95
1192,note_on,,16,0,2,,,,,,,,,1,,,54,0
1196,note_on,,8,0,5,,,,,,,,,4,,,74,0
1196,note_on,,8,0,4,,,,,,,,,3,,,74,0
1200,note_on,,0,0,7,,,,,,,,,6,,,55,95
1200,note_on,,0,0,8,,,,,,,,,7,,,43,95
1200,note_on,,24,0,7,,,,,,,,,6,,,54,0
1200,note_on,,4,0,5,,,,,,,,,4,,,76,95
1200,note_on,,8,0,2,,,,,,,,,1,,,55,79
1200,note_on,,24,0,6,,,,,,,,,5,,,69,0
1200,note_on,,0,0,6,,,,,,,,,5,,,71,95
1200,note_on,,24,0,8,,,,,,,,,7,,,42,0
1200,note_on,,4,0,4,,,,,,,,,3,,,76,95
1216,note_on,,16,0,5,,,,,,,,,4,,,76,0
1216,note_on,,16,0,2,,,,,,,,,1,,,55,0
1216,note_on,,16,0,4,,,,,,,,,3,,,76,0
1224,note_on,,0,0,8,,,,,,,,,7,,,45,95
1224,note_on,,8,0,2,,,,,,,,,1,,,57,79
1224,note_on,,8,0,4,,,,,,,,,3,,,69,95
1224,note_on,,24,0,8,,,,,,,,,7,,,43,0
1224,note_on,,24,0,7,,,,,,,,,6,,,55,0
1224,note_on,,0,0,7,,,,,,,,,6,,,57,95
1224,note_on,,8,0,5,,,,,,,,,4,,,69,95
1224,note_on,,0,0,6,,,,,,,,,5,,,73,95
1224,note_on,,24,0,6,,,,,,,,,5,,,71,0
1232,note_on,,8,0,4,,,,,,,,,3,,,69,0
1232,note_on,,8,0,5,,,,,,,,,4,,,69,0
1232,note_on,,8,0,2,,,,,,,,,1,,,57,0
1236,note_on,,4,0,4,,,,,,,,,3,,,71,95
1236,note_on,,12,0,7,,,,,,,,,6,,,57,0
1236,note_on,,0,0,7,,,,,,,,,6,,,55,95
1236,note_on,,4,0,5,,,,,,,,,4,,,71,95
1236,note_on,,12,0,8,,,,,,,,,7,,,45,0
1236,note_on,,0,0,8,,,,,,,,,7,,,43,95
1236,note_on,,4,0,2,,,,,,,,,1,,,55,79
1244,note_on,,8,0,4,,,,,,,,,3,,,71,0
1244,note_on,,8,0,2,,,,,,,,,1,,,55,0
1244,note_on,,8,0,5,,,,,,,,,4,,,71,0
1248,note_on,,12,0,7,,,,,,,,,6,,,55,0
1248,note_on,,0,0,8,,,,,,,,,7,,,42,95
1248,note_on,,12,0,8,,,,,,,,,7,,,43,0
1248,note_on,,0,0,6,,,,,,,,,5,,,69,95
1248,note_on,,0,0,7,,,,,,,,,6,,,54,95
1248,note_on,,4,0,2,,,,,,,,,1,,,54,79
1248,note_on,,24,0,6,,,,,,,,,5,,,73,0
1248,note_on,,4,0,4,,,,,,,,,3,,,72,95
1248,note_on,,4,0,5,,,,,,,,,4,,,72,95
1256,note_on,,8,0,5,,,,,,,,,4,,,72,0
1256,note_on,,8,0,4,,,,,,,,,3,,,72,0
1260,note_on,,4,0,5,,,,,,,,,4,,,69,95
1260,note_on,,4,0,4,,,,,,,,,3,,,69,95
1264,note_on,,16,0,2,,,,,,,,,1,,,54,0
1268,note_on,,8,0,4,,,,,,,,,3,,,69,0
1268,note_on,,8,0,5,,,,,,,,,4,,,69,0
1272,note_on,,24,0,8,,,,,,,,,7,,,42,0
1272,note_on,,24,0,6,,,,,,,,,5,,,69,0
1272,note_on,,4,0,4,,,,,,,,,3,,,71,95
1272,note_on,,8,0,2,,,,,,,,,1,,,55,79
1272,note_on,,0,0,7,,,,,,,,,6,,,55,95
1272,note_on,,24,0,7,,,,,,,,,6,,,54,0
1272,note_on,,0,0,8,,,,,,,,,7,,,43,95
1272,note_on,,4,0,5,,,,,,,,,4,,,71,95
1272,note_on,,0,0,6,,,,,,,,,5,,,67,95
1280,note_on,,8,0,5,,,,,,,,,4,,,71,0
1280,note_on,,8,0,4,,,,,,,,,3,,,71,0
1284,note_on,,0,0,6,,,,,,,,,5,,,66,95
1284,note_on,,4,0,5,,,,,,,,,4,,,74,95
1284,note_on,,12,0,6,,,,,,,,,5,,,67,0
1284,note_on,,4,0,4,,,,,,,,,3,,,74,95
1288,note_on,,16,0,2,,,,,,,,,1,,,55,0
1292,note_on,,8,0,5,,,,,,,,,4,,,74,0
1292,note_on,,8,0,4,,,,,,,,,3,,,74,0
1296,note_on,,24,0,7,,,,,,,,,6,,,55,0
1296,note_on,,24,0,8,,,,,,,,,7,,,43,0
1296,note_on,,0,0,6,,,,,,,,,5,,,64,95
1296,note_on,,12,0,6,,,,,,,,,5,,,66,0
1296,note_on,,4,0,5,,,,,,,,,4,,,73,95
1296,note_on,,4,0,4,,,,,,,,,3,,,73,95
1304,note_on,,8,0,5,,,,,,,,,4,,,73,0
1304,note_on,,8,0,4,,,,,,,,,3,,,73,0
1308,note_on,,4,0,5,,,,,,,,,4,,,76,95
1308,note_on,,4,0,4,,,,,,,,,3,,,76,95
1316,note_on,,8,0,4,,,,,,,,,3,,,76,0
1316,note_on,,8,0,5,,,,,,,,,4,,,76,0
1320,note_on,,24,0,8,,,,,,,,,7,,,37,95
1320,note_on,,32,0,2,,,,,,,,,1,,,49,79
1320,note_on,,4,0,5,,,,,,,,,4,,,69,95
1320,note_on,,24,0,6,,,,,,,,,5,,,64,0
1320,note_on,,24,0,7,,,,,,,,,6,,,49,95
1320,note_on,,0,0,6,,,,,,,,,5,,,64,95
1320,note_on,,4,0,4,,,,,,,,,3,,,69,95
1328,note_on,,8,0,2,,,,,,,,,1,,,49,0
1328,note_on,,8,0,4,,,,,,,,,3,,,69,0
1328,note_on,,8,0,5,,,,,,,,,4,,,69,0
1332,note_on,,4,0,4,,,,,,,,,3,,,67,95
1332,note_on,,0,0,8,,,,,,,,,7,,,37,95
1332,note_on,,12,0,8,,,,,,,,,7,,,37,0
1332,note_on,,0,0,7,,,,,,,,,6,,,49,95
1332,note_on,,12,0,7,,,,,,,,,6,,,49,0
1332,note_on,,4,0,2,,,,,,,,,1,,,49,79
1332,note_on,,4,0,5,,,,,,,,,4,,,67,95
1340,note_on,,8,0,4,,,,,,,,,3,,,67,0
1340,note_on,,8,0,2,,,,,,,,,1,,,49,0
1340,note_on,,8,0,5,,,,,,,,,4,,,67,0
1344,note_on,,0,0,7,,,,,,,,,6,,,50,95
1344,note_on,,4,0,2,,,,,,,,,1,,,50,79
1344,note_on,,4,0,5,,,,,,,,,4,,,66,95
1344,note_on,,0,0,6,,,,,,,,,5,,,57,95
1344,note_on,,4,0,4,,,,,,,,,3,,,66,95
1344,note_on,,12,0,7,,,,,,,,,6,,,49,0
1344,note_on,,12,0,8,,,,,,,,,7,,,37,0
1344,note_on,,0,0,8,,,,,,,,,7,,,38,95
1344,note_on,,24,0,6,,,,,,,,,5,,,64,0
1352,note_on,,8,0,2,,,,,,,,,1,,,50,0
1352,note_on,,8,0,4,,,,,,,,,3,,,66,0
1352,note_on,,8,0,5,,,,,,,,,4,,,66,0
1356,note_on,,12,0,7,,,,,,,,,6,,,50,0
1356,note_on,,0,0,7,,,,,,,,,6,,,50,95
1356,note_on,,4,0,2,,,,,,,,,1,,,50,79
1356,note_on,,4,0,5,,,,,,,,,4,,,62,95
1356,note_on,,12,0,8,,,,,,,,,7,,,38,0
1356,note_on,,4,0,4,,,,,,,,,3,,,62,95
1356,note_on,,0,0,8,,,,,,,,,7,,,38,95
1364,note_on,,8,0,5,,,,,,,,,4,,,62,0
1364,note_on,,8,0,2,,,,,,,,,1,,,50,0
1364,note_on,,8,0,4,,,,,,,,,3,,,62,0
1368,note_on,,12,0,7,,,,,,,,,6,,,50,0
1368,note_on,,4,0,4,,,,,,,,,3,,,64,95
1368,note_on,,4,0,5,,,,,,,,,4,,,64,95
1368,note_on,,0,0,7,,,,,,,,,6,,,49,95
1368,note_on,,24,0,6,,,,,,,,,5,,,57,0
1368,note_on,,0,0,6,,,,,,,,,5,,,57,95
1368,note_on,,4,0,2,,,,,,,,,1,,,49,79
1368,note_on,,12,0,8,,,,,,,,,7,,,38,0
1368,note_on,,0,0,8,,,,,,,,,7,,,37,95
1376,note_on,,8,0,5,,,,,,,,,4,,,64,0
1376,note_on,,8,0,4,,,,,,,,,3,,,64,0
1376,note_on,,8,0,2,,,,,,,,,1,,,49,0
1380,note_on,,12,0,8,,,,,,,,,7,,,37,0
1380,note_on,,4,0,4,,,,,,,,,3,,,67,95
1380,note_on,,4,0,5,,,,,,,,,4,,,67,95
1380,note_on,,4,0,2,,,,,,,,,1,,,49,79
1380,note_on,,12,0,7,,,,,,,,,6,,,49,0
1380,note_on,,0,0,7,,,,,,,,,6,,,49,95
1380,note_on,,0,0,8,,,,,,,,,7,,,37,95
1388,note_on,,8,0,4,,,,,,,,,3,,,67,0
1388,note_on,,8,0,5,,,,,,,,,4,,,67,0
1388,note_on,,8,0,2,,,,,,,,,1,,,49,0
1392,note_on,,0,0,8,,,,,,,,,7,,,38,95
1392,note_on,,24,0,6,,,,,,,,,5,,,57,0
1392,note_on,,0,0,6,,,,,,,,,5,,,57,95
1392,note_on,,4,0,2,,,,,,,,,1,,,50,79
1392,note_on,,4,0,5,,,,,,,,,4,,,66,95
1392,note_on,,12,0,8,,,,,,,,,7,,,37,0
1392,note_on,,0,0,7,,,,,,,,,6,,,50,95
1392,note_on,,4,0,4,,,,,,,,,3,,,66,95
1392,note_on,,12,0,7,,,,,,,,,6,,,49,0
1400,note_on,,8,0,4,,,,,,,,,3,,,66,0
1400,note_on,,8,0,2,,,,,,,,,1,,,50,0
1400,note_on,,8,0,5,,,,,,,,,4,,,66,0
1404,note_on,,4,0,5,,,,,,,,,4,,,69,95
1404,note_on,,12,0,7,,,,,,,,,6,,,50,0
1404,note_on,,0,0,8,,,,,,,,,7,,,38,95
1404,note_on,,12,0,8,,,,,,,,,7,,,38,0
1404,note_on,,0,0,7,,,,,,,,,6,,,50,95
1404,note_on,,4,0,4,,,,,,,,,3,,,69,95
1404,note_on,,4,0,2,,,,,,,,,1,,,50,79
1412,note_on,,8,0,2,,,,,,,,,1,,,50,0
1412,note_on,,8,0,5,,,,,,,,,4,,,69,0
1412,note_on,,8,0,4,,,,,,,,,3,,,69,0
1416,note_on,,4,0,2,,,,,,,,,1,,,42,79
1416,note_on,,0,0,7,,,,,,,,,6,,,42,95
1416,note_on,,0,0,8,,,,,,,,,7,,,30,95
1416,note_on,,4,0,4,,,,,,,,,3,,,62,95
1416,note_on,,12,0,7,,,,,,,,,6,,,50,0
1416,note_on,,0,0,6,,,,,,,,,5,,,57,95
1416,note_on,,4,0,5,,,,,,,,,4,,,62,95
1416,note_on,,24,0,6,,,,,,,,,5,,,57,0
1416,note_on,,12,0,8,,,,,,,,,7,,,38,0
1424,note_on,,8,0,2,,,,,,,,,1,,,42,0
1424,note_on,,8,0,4,,,,,,,,,3,,,62,0
1424,note_on,,8,0,5,,,,,,,,,4,,,62,0
1428,note_on,,4,0,2,,,,,,,,,1,,,42,79
1428,note_on,,4,0,4,,,,,,,,,3,,,61,95
1428,note_on,,12,0,7,,,,,,,,,6,,,42,0
1428,note_on,,4,0,5,,,,,,,,,4,,,61,95
1428,note_on,,0,0,7,,,,,,,,,6,,,42,95
1428,note_on,,12,0,8,,,,,,,,,7,,,30,0
1428,note_on,,0,0,8,,,,,,,,,7,,,30,95
1436,note_on,,8,0,4,,,,,,,,,3,,,61,0
1436,note_on,,8,0,2,,,,,,,,,1,,,42,0
1436,note_on,,8,0,5,,,,,,,,,4,,,61,0
1440,note_on,,0,0,8,,,,,,,,,7,,,31,95
1440,note_on,,4,0,5,,,,,,,,,4,,,59,95
1440,note_on,,4,0,4,,,,,,,,,3,,,59,95
1440,note_on,,24,0,6,,,,,,,,,5,,,57,0
1440,note_on,,12,0,7,,,,,,,,,6,,,42,0
1440,note_on,,4,0,2,,,,,,,,,1,,,43,79
1440,note_on,,12,0,8,,,,,,,,,7,,,30,0
1440,note_on,,0,0,7,,,,,,,,,6,,,43,95
1440,note_on,,0,0,6,,,,,,,,,5,,,50,95
1448,note_on,,8,0,5,,,,,,,,,4,,,59,0
1448,note_on,,8,0,4,,,,,,,,,3,,,59,0
1452,note_on,,4,0,4,,,,,,,,,3,,,67,95
1452,note_on,,4,0,5,,,,,,,,,4,,,67,95
1456,note_on,,16,0,2,,,,,,,,,1,,,43,0
1460,note_on,,8,0,5,,,,,,,,,4,,,67,0
1460,note_on,,8,0,4,,,,,,,,,3,,,67,0
1464,note_on,,0,0,7,,,,,,,,,6,,,55,95
1464,note_on,,0,0,6,,,,,,,,,5,,,61,95
1464,note_on,,4,0,4,,,,,,,,,3,,,66,95
1464,note_on,,24,0,7,,,,,,,,,6,,,43,0
1464,note_on,,24,0,6,,,,,,,,,5,,,50,0
1464,note_on,,0,0,8,,,,,,,,,7,,,43,95
1464,note_on,,4,0,5,,,,,,,,,4,,,66,95
1464,note_on,,8,0,2,,,,,,,,,1,,,55,79
1464,note_on,,24,0,8,,,,,,,,,7,,,31,0
1472,note_on,,8,0,4,,,,,,,,,3,,,66,0
1472,note_on,,8,0,5,,,,,,,,,4,,,66,0
1476,note_on,,4,0,4,,,,,,,,,3,,,64,95
1476,note_on,,4,0,5,,,,,,,,,4,,,64,95
1480,note_on,,16,0,2,,,,,,,,,1,,,55,0
1484,note_on,,8,0,4,,,,,,,,,3,,,64,0
1484,note_on,,8,0,5,,,,,,,,,4,,,64,0
1488,note_on,,4,0,4,,,,,,,,,3,,,64,95
1488,note_on,,0,0,8,,,,,,,,,7,,,45,95
1488,note_on,,0,0,6,,,,,,,,,5,,,61,95
1488,note_on,,24,0,6,,,,,,,,,5,,,61,0
1488,note_on,,4,0,5,,,,,,,,,4,,,64,95
1488,note_on,,0,0,7,,,,,,,,,6,,,57,95
1488,note_on,,24,0,7,,,,,,,,,6,,,55,0
1488,note_on,,24,0,8,,,,,,,,,7,,,43,0
1488,note_on,,8,0,2,,,,,,,,,1,,,57,79
1504,note_on,,16,0,2,,,,,,,,,1,,,57,0
1512,note_on,,24,0,6,,,,,,,,,5,,,61,0
1512,note_on,,0,0,6,,,,,,,,,5,,,67,95
1512,note_on,,24,0,7,,,,,,,,,6,,,57,0
1512,note_on,,8,0,2,,,,,,,,,1,,,45,79
1512,note_on,,24,0,4,,,,,,,,,3,,,64,0
1512,note_on,,24,0,8,,,,,,,,,7,,,45,0
1512,note_on,,0,0,8,,,,,,,,,7,,,33,95
1512,note_on,,0,0,7,,,,,,,,,6,,,45,95
1512,note_on,,24,0,5,,,,,,,,,4,,,64,0
1524,note_on,,12,0,5,,,,,,,,,4,,,62,95
1524,note_on,,12,0,4,,,,,,,,,3,,,62,95
1528,note_on,,16,0,2,,,,,,,,,1,,,45,0
1532,note_on,,8,0,4,,,,,,,,,3,,,62,0
1532,note_on,,8,0,5,,,,,,,,,4,,,62,0
1536,note_on,,0,0,8,,,,,,,,,7,,,38,95
1536,note_on,,4,0,4,,,,,,,,,3,,,62,95
1536,note_on,,4,0,5,,,,,,,,,4,,,62,95
1536,note_on,,8,0,2,,,,,,,,,1,,,54,79
1536,note_on,,24,0,7,,,,,,,,,6,,,45,0
1536,note_on,,24,0,8,,,,,,,,,7,,,33,0
1536,note_on,,24,0,6,,,,,,,,,5,,,67,0
1536,note_on,,0,0,6,,,,,,,,,5,,,66,95
1536,note_on,,0,0,7,,,,,,,,,6,,,50,95
1548,note_on,,1500,0,1,,,,,,,,,0,,,81,79
1552,note_on,,16,0,5,,,,,,,,,4,,,62,0
1552,note_on,,16,0,4,,,,,,,,,3,,,62,0
1552,note_on,,4,0,1,,,,,,,,,0,,,81,0
1554,note_on,,2,0,1,,,,,,,,,0,,,79,79
1558,note_on,,4,0,1,,,,,,,,,0,,,79,0
1560,note_on,,1560,0,3,,,,,,,,,2,,,74,95
1560,note_on,,2,0,1,,,,,,,,,0,,,78,79
1560,note_on,,24,0,6,,,,,,,,,5,,,66,0
1568,note_on,,8,0,1,,,,,,,,,0,,,78,0
1568,note_on,,32,0,2,,,,,,,,,1,,,54,0
1572,note_on,,4,0,1,,,,,,,,,0,,,81,79
1580,note_on,,8,0,1,,,,,,,,,0,,,81,0
1584,note_on,,0,0,3,,,,,,,,,2,,,73,95
1584,note_on,,24,0,3,,,,,,,,,2,,,74,0
1584,note_on,,4,0,1,,,,,,,,,0,,,76,79
1584,note_on,,48,0,7,,,,,,,,,6,,,50,0
1584,note_on,,48,0,8,,,,,,,,,7,,,38,0
1592,note_on,,8,0,1,,,,,,,,,0,,,76,0
1596,note_on,,4,0,1,,,,,,,,,0,,,81,79
1604,note_on,,8,0,1,,,,,,,,,0,,,81,0
1608,note_on,,24,0,3,,,,,,,,,2,,,73,0
1608,note_on,,4,0,1,,,,,,,,,0,,,74,79
1608,note_on,,0,0,3,,,,,,,,,2,,,71,95
1616,note_on,,8,0,1,,,,,,,,,0,,,74,0
1620,note_on,,4,0,1,,,,,,,,,0,,,81,79
1628,note_on,,8,0,1,,,,,,,,,0,,,81,0
1632,note_on,,4,0,1,,,,,,,,,0,,,73,79
1632,note_on,,24,0,3,,,,,,,,,2,,,71,0
1632,note_on,,0,0,3,,,,,,,,,2,,,69,95
1640,note_on,,8,0,1,,,,,,,,,0,,,73,0
1644,note_on,,4,0,1,,,,,,,,,0,,,81,79
1652,note_on,,8,0,1,,,,,,,,,0,,,81,0
1656,note_on,,4,0,1,,,,,,,,,0,,,74,79
1656,note_on,,104,0,4,,,,,,,,,3,,,78,95
1664,note_on,,8,0,1,,,,,,,,,0,,,74,0
1668,note_on,,4,0,1,,,,,,,,,0,,,81,79
1672,note_on,,16,0,4,,,,,,,,,3,,,78,0
1676,note_on,,8,0,1,,,,,,,,,0,,,81,0
1680,note_on,,4,0,1,,,,,,,,,0,,,73,79
1680,note_on,,8,0,4,,,,,,,,,3,,,76,95
1688,note_on,,8,0,1,,,,,,,,,0,,,73,0
1692,note_on,,4,0,1,,,,,,,,,0,,,81,79
1696,note_on,,16,0,4,,,,,,,,,3,,,76,0
1700,note_on,,8,0,1,,,,,,,,,0,,,81,0
1704,note_on,,8,0,4,,,,,,,,,3,,,74,95
1704,note_on,,4,0,1,,,,,,,,,0,,,71,79
1712,note_on,,8,0,1,,,,,,,,,0,,,71,0
1716,note_on,,4,0,1,,,,,,,,,0,,,81,79
1720,note_on,,16,0,4,,,,,,,,,3,,,74,0
1724,note_on,,8,0,1,,,,,,,,,0,,,81,0
1728,note_on,,96,0,3,,,,,,,,,2,,,69,0
1728,note_on,,8,0,4,,,,,,,,,3,,,73,95
1728,note_on,,4,0,1,,,,,,,,,0,,,69,79
1740,note_on,,172,0,2,,,,,,,,,1,,,57,79
1744,note_on,,16,0,1,,,,,,,,,0,,,69,0
1748,note_on,,8,0,2,,,,,,,,,1,,,57,0
1752,note_on,,24,0,3,,,,,,,,,2,,,83,95
1752,note_on,,4,0,2,,,,,,,,,1,,,55,79
1752,note_on,,8,0,1,,,,,,,,,0,,,73,79
1757,note_on,,5,0,1,,,,,,,,,0,,,73,0
1760,note_on,,8,0,2,,,,,,,,,1,,,55,0
1760,note_on,,32,0,4,,,,,,,,,3,,,73,0
1760,note_on,,3,0,1,,,,,,,,,0,,,71,79
1764,note_on,,4,0,2,,,,,,,,,1,,,57,79
1765,note_on,,5,0,1,,,,,,,,,0,,,71,0
1768,note_on,,3,0,1,,,,,,,,,0,,,73,79
1768,note_on,,16,0,3,,,,,,,,,2,,,83,0
1772,note_on,,8,0,2,,,,,,,,,1,,,57,0
1773,note_on,,5,0,1,,,,,,,,,0,,,73,0
1776,note_on,,3,0,1,,,,,,,,,0,,,74,79
1776,note_on,,4,0,2,,,,,,,,,1,,,54,79
1776,note_on,,8,0,3,,,,,,,,,2,,,81,95
1781,note_on,,5,0,1,,,,,,,,,0,,,74,0
1784,note_on,,8,0,2,,,,,,,,,1,,,54,0
1784,note_on,,3,0,1,,,,,,,,,0,,,73,79
1788,note_on,,4,0,2,,,,,,,,,1,,,57,79
1789,note_on,,5,0,1,,,,,,,,,0,,,73,0
1792,note_on,,3,0,1,,,,,,,,,0,,,74,79
1792,note_on,,16,0,3,,,,,,,,,2,,,81,0
1796,note_on,,8,0,2,,,,,,,,,1,,,57,0
1797,note_on,,5,0,1,,,,,,,,,0,,,74,0
1800,note_on,,4,0,2,,,,,,,,,1,,,52,79
1800,note_on,,40,0,4,,,,,,,,,3,,,73,95
1800,note_on,,8,0,3,,,,,,,,,2,,,79,95
1800,note_on,,3,0,1,,,,,,,,,0,,,76,79
1805,note_on,,5,0,1,,,,,,,,,0,,,76,0
1808,note_on,,3,0,1,,,,,,,,,0,,,74,79
1808,note_on,,8,0,2,,,,,,,,,1,,,52,0
1812,note_on,,4,0,2,,,,,,,,,1,,,57,79
1813,note_on,,5,0,1,,,,,,,,,0,,,74,0
1816,note_on,,3,0,1,,,,,,,,,0,,,76,79
1816,note_on,,16,0,3,,,,,,,,,2,,,79,0
1816,note_on,,16,0,4,,,,,,,,,3,,,73,0
1820,note_on,,8,0,2,,,,,,,,,1,,,57,0
1821,note_on,,5,0,1,,,,,,,,,0,,,76,0
1824,note_on,,8,0,3,,,,,,,,,2,,,78,95
1824,note_on,,240,0,8,,,,,,,,,7,,,38,56
1824,note_on,,240,0,7,,,,,,,,,6,,,50,56
1824,note_on,,8,0,4,,,,,,,,,3,,,74,95
1824,note_on,,4,0,2,,,,,,,,,1,,,50,79
1824,note_on,,264,0,6,,,,,,,,,5,,,69,56
1824,note_on,,3,0,1,,,,,,,,,0,,,78,79
1824,note_on,,272,0,5,,,,,,,,,4,,,62,56
1832,note_on,,8,0,3,,,,,,,,,2,,,78,0
1832,note_on,,8,0,1,,,,,,,,,0,,,78,0
1832,note_on,,8,0,5,,,,,,,,,4,,,62,0
1836,note_on,,4,0,1,,,,,,,,,0,,,76,79
1836,note_on,,12,0,6,,,,,,,,,5,,,69,0
1836,note_on,,0,0,6,,,,,,,,,5,,,67,56
1836,note_on,,4,0,5,,,,,,,,,4,,,62,56
1836,note_on,,4,0,3,,,,,,,,,2,,,79,95
1840,note_on,,16,0,2,,,,,,,,,1,,,50,0
1840,note_on,,16,0,4,,,,,,,,,3,,,74,0
1844,note_on,,8,0,5,,,,,,,,,4,,,62,0
1844,note_on,,8,0,3,,,,,,,,,2,,,79,0
1844,note_on,,8,0,1,,,,,,,,,0,,,76,0
1848,note_on,,0,0,6,,,,,,,,,5,,,66,56
1848,note_on,,12,0,6,,,,,,,,,5,,,67,0
1848,note_on,,4,0,1,,,,,,,,,0,,,74,79
1848,note_on,,8,0,2,,,,,,,,,1,,,62,79
1848,note_on,,4,0,3,,,,,,,,,2,,,81,95
1848,note_on,,8,0,4,,,,,,,,,3,,,69,95
1848,note_on,,4,0,5,,,,,,,,,4,,,66,56
1856,note_on,,32,0,8,,,,,,,,,7,,,38,0
1856,note_on,,8,0,5,,,,,,,,,4,,,66,0
1856,note_on,,8,0,1,,,,,,,,,0,,,74,0
1856,note_on,,32,0,7,,,,,,,,,6,,,50,0
1856,note_on,,8,0,2,,,,,,,,,1,,,62,0
1860,note_on,,4,0,2,,,,,,,,,1,,,61,79
1860,note_on,,4,0,1,,,,,,,,,0,,,76,79
1860,note_on,,4,0,5,,,,,,,,,4,,,66,56
1860,note_on,,12,0,6,,,,,,,,,5,,,66,0
1860,note_on,,0,0,6,,,,,,,,,5,,,64,56
1864,note_on,,16,0,4,,,,,,,,,3,,,69,0
1868,note_on,,8,0,5,,,,,,,,,4,,,66,0
1868,note_on,,8,0,2,,,,,,,,,1,,,61,0
1868,note_on,,8,0,1,,,,,,,,,0,,,76,0
1872,note_on,,4,0,5,,,,,,,,,4,,,69,56
1872,note_on,,4,0,1,,,,,,,,,0,,,78,79
1872,note_on,,0,0,6,,,,,,,,,5,,,62,56
1872,note_on,,16,0,8,,,,,,,,,7,,,38,56
1872,note_on,,16,0,7,,,,,,,,,6,,,50,56
1872,note_on,,8,0,4,,,,,,,,,3,,,74,95
1872,note_on,,12,0,6,,,,,,,,,5,,,64,0
1872,note_on,,4,0,2,,,,,,,,,1,,,62,79
1880,note_on,,32,0,3,,,,,,,,,2,,,81,0
1880,note_on,,8,0,4,,,,,,,,,3,,,74,0
1880,note_on,,8,0,5,,,,,,,,,4,,,69,0
1880,note_on,,8,0,1,,,,,,,,,0,,,78,0
1884,note_on,,4,0,1,,,,,,,,,0,,,79,79
1884,note_on,,4,0,5,,,,,,,,,4,,,69,56
1884,note_on,,4,0,4,,,,,,,,,3,,,76,95
1888,note_on,,16,0,2,,,,,,,,,1,,,62,0
1888,note_on,,16,0,8,,,,,,,,,7,,,38,0
1888,note_on,,16,0,7,,,,,,,,,6,,,50,0
1892,note_on,,8,0,4,,,,,,,,,3,,,76,0
1892,note_on,,8,0,5,,,,,,,,,4,,,69,0
1892,note_on,,8,0,1,,,,,,,,,0,,,79,0
1896,note_on,,0,0,6,,,,,,,,,5,,,57,56
1896,note_on,,4,0,4,,,,,,,,,3,,,78,95
1896,note_on,,8,0,2,,,,,,,,,1,,,50,79
1896,note_on,,4,0,1,,,,,,,,,0,,,81,79
1896,note_on,,16,0,3,,,,,,,,,2,,,79,95
1896,note_on,,24,0,6,,,,,,,,,5,,,62,0
1896,note_on,,4,0,5,,,,,,,,,4,,,74,56
1904,note_on,,8,0,5,,,,,,,,,4,,,74,0
1904,note_on,,8,0,3,,,,,,,,,2,,,79,0
1904,note_on,,8,0,1,,,,,,,,,0,,,81,0
1904,note_on,,8,0,4,,,,,,,,,3,,,78,0
1908,note_on,,4,0,5,,,,,,,,,4,,,74,56
1908,note_on,,4,0,4,,,,,,,,,3,,,79,95
1908,note_on,,4,0,3,,,,,,,,,2,,,78,95
1908,note_on,,4,0,1,,,,,,,,,0,,,83,79
1912,note_on,,16,0,2,,,,,,,,,1,,,50,0
1916,note_on,,8,0,4,,,,,,,,,3,,,79,0
1916,note_on,,8,0,3,,,,,,,,,2,,,78,0
1916,note_on,,8,0,1,,,,,,,,,0,,,83,0
1916,note_on,,8,0,5,,,,,,,,,4,,,74,0
1920,note_on,,0,0,6,,,,,,,,,5,,,57,56
1920,note_on,,4,0,5,,,,,,,,,4,,,73,56
1920,note_on,,4,0,1,,,,,,,,,0,,,76,79
1920,note_on,,32,0,7,,,,,,,,,6,,,57,56
1920,note_on,,32,0,8,,,,,,,,,7,,,45,56
1920,note_on,,8,0,2,,,,,,,,,1,,,57,79
1920,note_on,,24,0,6,,,,,,,,,5,,,57,0
1920,note_on,,4,0,4,,,,,,,,,3,,,81,95
1920,note_on,,4,0,3,,,,,,,,,2,,,76,95
1928,note_on,,8,0,1,,,,,,,,,0,,,76,0
1928,note_on,,8,0,5,,,,,,,,,4,,,73,0
1932,note_on,,4,0,5,,,,,,,,,4,,,74,56
1932,note_on,,4,0,1,,,,,,,,,0,,,78,79
1936,note_on,,16,0,2,,,,,,,,,1,,,57,0
1936,note_on,,16,0,8,,,,,,,,,7,,,45,0
1936,note_on,,16,0,3,,,,,,,,,2,,,76,0
1936,note_on,,16,0,7,,,,,,,,,6,,,57,0
1936,note_on,,16,0,4,,,,,,,,,3,,,81,0
1940,note_on,,8,0,1,,,,,,,,,0,,,78,0
1940,note_on,,8,0,5,,,,,,,,,4,,,74,0
1944,note_on,,4,0,1,,,,,,,,,0,,,76,79
1944,note_on,,8,0,4,,,,,,,,,3,,,73,95
1944,note_on,,8,0,7,,,,,,,,,6,,,45,56
1944,note_on,,8,0,3,,,,,,,,,2,,,69,95
1944,note_on,,8,0,8,,,,,,,,,7,,,33,56
1944,note_on,,4,0,5,,,,,,,,,4,,,73,56
1944,note_on,,0,0,6,,,,,,,,,5,,,61,56
1944,note_on,,8,0,2,,,,,,,,,1,,,45,79
1944,note_on,,24,0,6,,,,,,,,,5,,,57,0
1952,note_on,,8,0,1,,,,,,,,,0,,,76,0
1952,note_on,,8,0,5,,,,,,,,,4,,,73,0
1956,note_on,,4,0,1,,,,,,,,,0,,,74,79
1956,note_on,,4,0,5,,,,,,,,,4,,,71,56
1960,note_on,,16,0,7,,,,,,,,,6,,,45,0
1960,note_on,,16,0,3,,,,,,,,,2,,,69,0
1960,note_on,,16,0,8,,,,,,,,,7,,,33,0
1960,note_on,,16,0,4,,,,,,,,,3,,,73,0
1960,note_on,,16,0,2,,,,,,,,,1,,,45,0
1964,note_on,,8,0,5,,,,,,,,,4,,,71,0
1964,note_on,,8,0,1,,,,,,,,,0,,,74,0
1968,note_on,,8,0,7,,,,,,,,,6,,,47,56
1968,note_on,,4,0,5,,,,,,,,,4,,,69,56
1968,note_on,,4,0,1,,,,,,,,,0,,,73,79
1968,note_on,,24,0,6,,,,,,,,,5,,,61,0
1968,note_on,,8,0,8,,,,,,,,,7,,,35,56
1968,note_on,,8,0,2,,,,,,,,,1,,,47,79
1968,note_on,,0,0,6,,,,,,,,,5,,,62,56
1968,note_on,,8,0,4,,,,,,,,,3,,,74,95
1976,note_on,,8,0,1,,,,,,,,,0,,,73,0
1976,note_on,,8,0,5,,,,,,,,,4,,,69,0
1980,note_on,,4,0,1,,,,,,,,,0,,,71,79
1980,note_on,,4,0,5,,,,,,,,,4,,,67,56
1984,note_on,,16,0,8,,,,,,,,,7,,,35,0
1984,note_on,,16,0,2,,,,,,,,,1,,,47,0
1984,note_on,,16,0,7,,,,,,,,,6,,,47,0
1984,note_on,,16,0,4,,,,,,,,,3,,,74,0
1988,note_on,,8,0,5,,,,,,,,,4,,,67,0
1988,note_on,,8,0,1,,,,,,,,,0,,,71,0
1992,note_on,,4,0,5,,,,,,,,,4,,,66,56
1992,note_on,,8,0,8,,,,,,,,,7,,,37,56
1992,note_on,,8,0,2,,,,,,,,,1,,,49,79
1992,note_on,,4,0,1,,,,,,,,,0,,,69,79
1992,note_on,,0,0,6,,,,,,,,,5,,,64,56
1992,note_on,,24,0,6,,,,,,,,,5,,,62,0
1992,note_on,,8,0,4,,,,,,,,,3,,,76,95
1992,note_on,,8,0,7,,,,,,,,,6,,,49,56
2000,note_on,,8,0,1,,,,,,,,,0,,,69,0
2000,note_on,,8,0,5,,,,,,,,,4,,,66,0
2004,note_on,,4,0,5,,,,,,,,,4,,,64,56
2004,note_on,,4,0,1,,,,,,,,,0,,,67,79
2008,note_on,,16,0,7,,,,,,,,,6,,,49,0
2008,note_on,,16,0,8,,,,,,,,,7,,,37,0
2008,note_on,,16,0,2,,,,,,,,,1,,,49,0
2008,note_on,,16,0,4,,,,,,,,,3,,,76,0
2012,note_on,,8,0,5,,,,,,,,,4,,,64,0
2012,note_on,,8,0,1,,,,,,,,,0,,,67,0
2016,note_on,,4,0,1,,,,,,,,,0,,,66,79
2016,note_on,,8,0,7,,,,,,,,,6,,,50,56
2016,note_on,,24,0,6,,,,,,,,,5,,,64,0
2016,note_on,,8,0,8,,,,,,,,,7,,,38,56
2016,note_on,,0,0,6,,,,,,,,,5,,,57,56
2016,note_on,,8,0,4,,,,,,,,,3,,,78,95
2016,note_on,,4,0,5,,,,,,,,,4,,,62,56
2016,note_on,,8,0,2,,,,,,,,,1,,,50,79
2024,note_on,,8,0,1,,,,,,,,,0,,,66,0
2028,note_on,,4,0,1,,,,,,,,,0,,,64,79
2032,note_on,,16,0,4,,,,,,,,,3,,,78,0
2032,note_on,,16,0,5,,,,,,,,,4,,,62,0
2036,note_on,,8,0,1,,,,,,,,,0,,,64,0
2040,note_on,,4,0,1,,,,,,,,,0,,,66,79
2040,note_on,,8,0,4,,,,,,,,,3,,,74,95
2040,note_on,,24,0,6,,,,,,,,,5,,,57,0
2048,note_on,,32,0,2,,,,,,,,,1,,,50,0
2048,note_on,,8,0,1,,,,,,,,,0,,,66,0
2048,note_on,,32,0,7,,,,,,,,,6,,,50,0
2048,note_on,,32,0,8,,,,,,,,,7,,,38,0
2052,note_on,,4,0,1,,,,,,,,,0,,,69,79
2056,note_on,,16,0,4,,,,,,,,,3,,,74,0
2060,note_on,,8,0,1,,,,,,,,,0,,,69,0
2064,note_on,,8,0,4,,,,,,,,,3,,,73,95
2064,note_on,,4,0,1,,,,,,,,,0,,,64,79
2072,note_on,,8,0,1,,,,,,,,,0,,,64,0
2076,note_on,,4,0,1,,,,,,,,,0,,,69,79
2080,note_on,,16,0,4,,,,,,,,,3,,,73,0
2084,note_on,,8,0,1,,,,,,,,,0,,,69,0
2088,note_on,,4,0,1,,,,,,,,,0,,,62,79
2088,note_on,,8,0,4,,,,,,,,,3,,,71,95
2096,note_on,,8,0,1,,,,,,,,,0,,,62,0
2100,note_on,,4,0,1,,,,,,,,,0,,,69,79
2104,note_on,,16,0,4,,,,,,,,,3,,,71,0
2108,note_on,,8,0,1,,,,,,,,,0,,,69,0
2112,note_on,,8,0,4,,,,,,,,,3,,,69,95
2112,note_on,,4,0,1,,,,,,,,,0,,,61,79
2120,note_on,,8,0,1,,,,,,,,,0,,,61,0
2124,note_on,,4,0,1,,,,,,,,,0,,,69,79
2132,note_on,,8,0,1,,,,,,,,,0,,,69,0
2136,note_on,,176,0,3,,,,,,,,,2,,,78,95
2136,note_on,,4,0,1,,,,,,,,,0,,,62,79
2144,note_on,,8,0,1,,,,,,,,,0,,,62,0
2148,note_on,,4,0,1,,,,,,,,,0,,,69,79
2152,note_on,,16,0,3,,,,,,,,,2,,,78,0
2156,note_on,,8,0,1,,,,,,,,,0,,,69,0
2160,note_on,,8,0,3,,,,,,,,,2,,,76,95
2160,note_on,,4,0,1,,,,,,,,,0,,,61,79
2168,note_on,,8,0,1,,,,,,,,,0,,,61,0
2172,note_on,,4,0,1,,,,,,,,,0,,,69,79
2175,note_on,,63,0,4,,,,,,,,,3,,,69,0
2176,note_on,,16,0,3,,,,,,,,,2,,,76,0
2180,note_on,,8,0,1,,,,,,,,,0,,,69,0
2184,note_on,,4,0,1,,,,,,,,,0,,,59,79
2184,note_on,,8,0,3,,,,,,,,,2,,,74,95
2192,note_on,,8,0,1,,,,,,,,,0,,,59,0
2196,note_on,,4,0,1,,,,,,,,,0,,,69,79
2200,note_on,,16,0,3,,,,,,,,,2,,,74,0
2204,note_on,,8,0,1,,,,,,,,,0,,,69,0
2208,note_on,,4,0,1,,,,,,,,,0,,,57,79
2208,note_on,,8,0,3,,,,,,,,,2,,,73,95
2220,note_on,,172,0,2,,,,,,,,,1,,,45,79
2224,note_on,,16,0,1,,,,,,,,,0,,,57,0
2228,note_on,,8,0,2,,,,,,,,,1,,,45,0
2232,note_on,,4,0,2,,,,,,,,,1,,,43,79
2232,note_on,,8,0,1,,,,,,,,,0,,,61,79
2232,note_on,,57,0,4,,,,,,,,,3,,,83,95
2237,note_on,,5,0,1,,,,,,,,,0,,,61,0
2240,note_on,,32,0,3,,,,,,,,,2,,,73,0
2240,note_on,,8,0,2,,,,,,,,,1,,,43,0
2240,note_on,,3,0,1,,,,,,,,,0,,,59,79
2244,note_on,,4,0,2,,,,,,,,,1,,,45,79
2245,note_on,,5,0,1,,,,,,,,,0,,,59,0
2248,note_on,,16,0,4,,,,,,,,,3,,,83,0
2248,note_on,,3,0,1,,,,,,,,,0,,,61,79
2252,note_on,,8,0,2,,,,,,,,,1,,,45,0
2253,note_on,,5,0,1,,,,,,,,,0,,,61,0
2256,note_on,,4,0,2,,,,,,,,,1,,,42,79
2256,note_on,,3,0,1,,,,,,,,,0,,,62,79
2256,note_on,,8,0,4,,,,,,,,,3,,,81,95
2261,note_on,,5,0,1,,,,,,,,,0,,,62,0
2264,note_on,,8,0,2,,,,,,,,,1,,,42,0
2264,note_on,,3,0,1,,,,,,,,,0,,,61,79
2268,note_on,,4,0,2,,,,,,,,,1,,,45,79
2269,note_on,,5,0,1,,,,,,,,,0,,,61,0
2272,note_on,,3,0,1,,,,,,,,,0,,,62,79
2272,note_on,,16,0,4,,,,,,,,,3,,,81,0
2276,note_on,,8,0,2,,,,,,,,,1,,,45,0
2277,note_on,,5,0,1,,,,,,,,,0,,,62,0
2280,note_on,,3,0,1,,,,,,,,,0,,,64,79
2280,note_on,,4,0,2,,,,,,,,,1,,,40,79
2280,note_on,,8,0,4,,,,,,,,,3,,,79,95
2280,note_on,,40,0,3,,,,,,,,,2,,,73,95
2285,note_on,,5,0,1,,,,,,,,,0,,,64,0
2288,note_on,,3,0,1,,,,,,,,,0,,,62,79
2288,note_on,,8,0,2,,,,,,,,,1,,,40,0
2292,note_on,,4,0,2,,,,,,,,,1,,,45,79
2293,note_on,,5,0,1,,,,,,,,,0,,,62,0
2296,note_on,,3,0,1,,,,,,,,,0,,,64,79
2296,note_on,,16,0,3,,,,,,,,,2,,,73,0
2296,note_on,,16,0,4,,,,,,,,,3,,,79,0
2300,note_on,,8,0,2,,,,,,,,,1,,,45,0
2301,note_on,,5,0,1,,,,,,,,,0,,,64,0
2304,note_on,,264,0,6,,,,,,,,,5,,,69,56
2304,note_on,,3,0,1,,,,,,,,,0,,,66,79
2304,note_on,,4,0,2,,,,,,,,,1,,,38,79
2304,note_on,,272,0,5,,,,,,,,,4,,,62,56
2304,note_on,,256,0,7,,,,,,,,,6,,,50,56
2304,note_on,,256,0,8,,,,,,,,,7,,,38,56
2304,note_on,,8,0,4,,,,,,,,,3,,,78,95
2304,note_on,,8,0,3,,,,,,,,,2,,,78,95
2312,note_on,,8,0,5,,,,,,,,,4,,,62,0
2312,note_on,,8,0,4,,,,,,,,,3,,,78,0
2312,note_on,,8,0,1,,,,,,,,,0,,,66,0
2316,note_on,,4,0,4,,,,,,,,,3,,,79,95
2316,note_on,,4,0,5,,,,,,,,,4,,,62,56
2316,note_on,,12,0,6,,,,,,,,,5,,,69,0
2316,note_on,,0,0,6,,,,,,,,,5,,,67,56
2316,note_on,,4,0,1,,,,,,,,,0,,,64,79
2320,note_on,,16,0,2,,,,,,,,,1,,,38,0
2320,note_on,,16,0,3,,,,,,,,,2,,,78,0
2324,note_on,,8,0,4,,,,,,,,,3,,,79,0
2324,note_on,,8,0,5,,,,,,,,,4,,,62,0
2324,note_on,,8,0,1,,,,,,,,,0,,,64,0
2328,note_on,,4,0,4,,,,,,,,,3,,,81,95
2328,note_on,,8,0,2,,,,,,,,,1,,,50,79
2328,note_on,,4,0,1,,,,,,,,,0,,,62,79
2328,note_on,,8,0,3,,,,,,,,,2,,,69,95
2328,note_on,,4,0,5,,,,,,,,,4,,,66,56
2328,note_on,,0,0,6,,,,,,,,,5,,,66,56
2328,note_on,,12,0,6,,,,,,,,,5,,,67,0
2336,note_on,,8,0,1,,,,,,,,,0,,,62,0
2336,note_on,,8,0,2,,,,,,,,,1,,,50,0
2336,note_on,,8,0,5,,,,,,,,,4,,,66,0
2336,note_on,,32,0,8,,,,,,,,,7,,,38,0
2336,note_on,,32,0,7,,,,,,,,,6,,,50,0
2340,note_on,,4,0,1,,,,,,,,,0,,,64,79
2340,note_on,,4,0,2,,,,,,,,,1,,,49,79
2340,note_on,,0,0,6,,,,,,,,,5,,,64,56
2340,note_on,,4,0,5,,,,,,,,,4,,,66,56
2340,note_on,,12,0,6,,,,,,,,,5,,,66,0
2344,note_on,,16,0,3,,,,,,,,,2,,,69,0
2348,note_on,,8,0,2,,,,,,,,,1,,,49,0
2348,note_on,,8,0,1,,,,,,,,,0,,,64,0
2348,note_on,,8,0,5,,,,,,,,,4,,,66,0
2352,note_on,,4,0,5,,,,,,,,,4,,,69,56
2352,note_on,,8,0,3,,,,,,,,,2,,,74,95
2352,note_on,,12,0,6,,,,,,,,,5,,,64,0
2352,note_on,,0,0,6,,,,,,,,,5,,,62,56
2352,note_on,,4,0,1,,,,,,,,,0,,,66,79
2352,note_on,,4,0,2,,,,,,,,,1,,,50,79
2360,note_on,,8,0,3,,,,,,,,,2,,,74,0
2360,note_on,,8,0,5,,,,,,,,,4,,,69,0
2360,note_on,,32,0,4,,,,,,,,,3,,,81,0
2360,note_on,,8,0,1,,,,,,,,,0,,,66,0
2364,note_on,,4,0,1,,,,,,,,,0,,,67,79
2364,note_on,,4,0,3,,,,,,,,,2,,,76,95
2364,note_on,,4,0,5,,,,,,,,,4,,,69,56
2368,note_on,,16,0,2,,,,,,,,,1,,,50,0
2372,note_on,,8,0,1,,,,,,,,,0,,,67,0
2372,note_on,,8,0,3,,,,,,,,,2,,,76,0
2372,note_on,,8,0,5,,,,,,,,,4,,,69,0
2376,note_on,,8,0,2,,,,,,,,,1,,,38,79
2376,note_on,,40,0,7,,,,,,,,,6,,,38,56
2376,note_on,,16,0,4,,,,,,,,,3,,,79,95
2376,note_on,,4,0,3,,,,,,,,,2,,,78,95
2376,note_on,,4,0,5,,,,,,,,,4,,,74,56
2376,note_on,,40,0,8,,,,,,,,,7,,,26,56
2376,note_on,,0,0,6,,,,,,,,,5,,,57,56
2376,note_on,,4,0,1,,,,,,,,,0,,,69,79
2376,note_on,,24,0,6,,,,,,,,,5,,,62,0
2384,note_on,,8,0,5,,,,,,,,,4,,,74,0
2384,note_on,,8,0,1,,,,,,,,,0,,,69,0
2384,note_on,,8,0,3,,,,,,,,,2,,,78,0
2384,note_on,,8,0,4,,,,,,,,,3,,,79,0
2388,note_on,,4,0,5,,,,,,,,,4,,,74,56
2388,note_on,,4,0,1,,,,,,,,,0,,,71,79
2388,note_on,,4,0,3,,,,,,,,,2,,,79,95
2388,note_on,,4,0,4,,,,,,,,,3,,,78,95
2392,note_on,,16,0,2,,,,,,,,,1,,,38,0
2392,note_on,,16,0,7,,,,,,,,,6,,,38,0
2392,note_on,,16,0,8,,,,,,,,,7,,,26,0
2396,note_on,,8,0,5,,,,,,,,,4,,,74,0
2396,note_on,,8,0,3,,,,,,,,,2,,,79,0
2396,note_on,,8,0,1,,,,,,,,,0,,,71,0
2396,note_on,,8,0,4,,,,,,,,,3,,,78,0
2400,note_on,,8,0,2,,,,,,,,,1,,,45,79
2400,note_on,,4,0,1,,,,,,,,,0,,,73,79
2400,note_on,,4,0,4,,,,,,,,,3,,,76,95
2400,note_on,,4,0,3,,,,,,,,,2,,,81,95
2400,note_on,,8,0,8,,,,,,,,,7,,,33,56
2400,note_on,,4,0,5,,,,,,,,,4,,,76,56
2400,note_on,,8,0,7,,,,,,,,,6,,,45,56
2400,note_on,,24,0,6,,,,,,,,,5,,,57,0
2400,note_on,,0,0,6,,,,,,,,,5,,,69,56
2408,note_on,,8,0,1,,,,,,,,,0,,,73,0
2412,note_on,,4,0,1,,,,,,,,,0,,,74,79
2416,note_on,,16,0,4,,,,,,,,,3,,,76,0
2416,note_on,,16,0,5,,,,,,,,,4,,,76,0
2416,note_on,,16,0,2,,,,,,,,,1,,,45,0
2416,note_on,,16,0,3,,,,,,,,,2,,,81,0
2420,note_on,,8,0,1,,,,,,,,,0,,,74,0
2424,note_on,,4,0,1,,,,,,,,,0,,,73,79
2424,note_on,,8,0,4,,,,,,,,,3,,,73,95
2424,note_on,,24,0,6,,,,,,,,,5,,,69,0
2424,note_on,,8,0,3,,,,,,,,,2,,,69,95
2424,note_on,,0,0,6,,,,,,,,,5,,,61,56
2424,note_on,,8,0,2,,,,,,,,,1,,,57,79
2424,note_on,,8,0,5,,,,,,,,,4,,,69,56
2429,note_on,,5,0,4,,,,,,,,,3,,,73,0
2432,note_on,,3,0,4,,,,,,,,,3,,,71,95
2432,note_on,,32,0,8,,,,,,,,,7,,,33,0
2432,note_on,,8,0,1,,,,,,,,,0,,,73,0
2432,note_on,,32,0,7,,,,,,,,,6,,,45,0
2436,note_on,,4,0,1,,,,,,,,,0,,,71,79
2437,note_on,,5,0,4,,,,,,,,,3,,,71,0
2440,note_on,,16,0,3,,,,,,,,,2,,,69,0
2440,note_on,,3,0,4,,,,,,,,,3,,,73,95
2440,note_on,,16,0,5,,,,,,,,,4,,,69,0
2440,note_on,,16,0,2,,,,,,,,,1,,,57,0
2444,note_on,,8,0,1,,,,,,,,,0,,,71,0
2445,note_on,,5,0,4,,,,,,,,,3,,,73,0
2448,note_on,,8,0,2,,,,,,,,,1,,,59,79
2448,note_on,,24,0,6,,,,,,,,,5,,,61,0
2448,note_on,,4,0,1,,,,,,,,,0,,,69,79
2448,note_on,,3,0,4,,,,,,,,,3,,,74,95
2453,note_on,,5,0,4,,,,,,,,,3,,,74,0
2456,note_on,,3,0,4,,,,,,,,,3,,,73,95
2456,note_on,,8,0,1,,,,,,,,,0,,,69,0
2460,note_on,,4,0,1,,,,,,,,,0,,,67,79
2461,note_on,,5,0,4,,,,,,,,,3,,,73,0
2464,note_on,,3,0,4,,,,,,,,,3,,,74,95
2464,note_on,,16,0,2,,,,,,,,,1,,,59,0
2468,note_on,,8,0,1,,,,,,,,,0,,,67,0
2469,note_on,,5,0,4,,,,,,,,,3,,,74,0
2472,note_on,,4,0,1,,,,,,,,,0,,,66,79
2472,note_on,,3,0,4,,,,,,,,,3,,,76,95
2472,note_on,,8,0,2,,,,,,,,,1,,,61,79
2477,note_on,,5,0,4,,,,,,,,,3,,,76,0
2480,note_on,,3,0,4,,,,,,,,,3,,,74,95
2480,note_on,,8,0,1,,,,,,,,,0,,,66,0
2484,note_on,,4,0,1,,,,,,,,,0,,,64,79
2485,note_on,,5,0,4,,,,,,,,,3,,,74,0
2488,note_on,,3,0,4,,,,,,,,,3,,,76,95
2488,note_on,,16,0,2,,,,,,,,,1,,,61,0
2492,note_on,,8,0,1,,,,,,,,,0,,,64,0
2493,note_on,,5,0,4,,,,,,,,,3,,,76,0
2496,note_on,,8,0,2,,,,,,,,,1,,,50,79
2496,note_on,,4,0,1,,,,,,,,,0,,,62,79
2496,note_on,,3,0,4,,,,,,,,,3,,,78,95
2504,note_on,,8,0,1,,,,,,,,,0,,,62,0
2504,note_on,,8,0,2,,,,,,,,,1,,,50,0
2508,note_on,,4,0,1,,,,,,,,,0,,,78,79
2508,note_on,,4,0,2,,,,,,,,,1,,,62,79
2516,note_on,,8,0,2,,,,,,,,,1,,,62,0
2516,note_on,,8,0,1,,,,,,,,,0,,,78,0
2520,note_on,,4,0,2,,,,,,,,,1,,,61,79
2520,note_on,,4,0,1,,,,,,,,,0,,,76,79
2520,note_on,,80,0,3,,,,,,,,,2,,,78,95
2525,note_on,,5,0,3,,,,,,,,,2,,,78,0
2528,note_on,,8,0,1,,,,,,,,,0,,,76,0
2528,note_on,,8,0,2,,,,,,,,,1,,,61,0
2528,note_on,,3,0,3,,,,,,,,,2,,,76,95
2532,note_on,,4,0,1,,,,,,,,,0,,,78,79
2532,note_on,,4,0,2,,,,,,,,,1,,,62,79
2533,note_on,,5,0,3,,,,,,,,,2,,,76,0
2536,note_on,,3,0,3,,,,,,,,,2,,,78,95
2540,note_on,,8,0,1,,,,,,,,,0,,,78,0
2540,note_on,,8,0,2,,,,,,,,,1,,,62,0
2541,note_on,,5,0,3,,,,,,,,,2,,,78,0
2544,note_on,,4,0,1,,,,,,,,,0,,,74,79
2544,note_on,,3,0,3,,,,,,,,,2,,,80,95
2544,note_on,,4,0,2,,,,,,,,,1,,,59,79
2549,note_on,,5,0,3,,,,,,,,,2,,,80,0
2552,note_on,,3,0,3,,,,,,,,,2,,,78,95
2552,note_on,,8,0,1,,,,,,,,,0,,,74,0
2552,note_on,,8,0,2,,,,,,,,,1,,,59,0
2556,note_on,,4,0,1,,,,,,,,,0,,,78,79
2556,note_on,,4,0,2,,,,,,,,,1,,,62,79
2557,note_on,,5,0,3,,,,,,,,,2,,,78,0
2559,note_on,,63,0,4,,,,,,,,,3,,,78,0
2560,note_on,,3,0,3,,,,,,,,,2,,,80,95
2564,note_on,,8,0,1,,,,,,,,,0,,,78,0
2564,note_on,,8,0,2,,,,,,,,,1,,,62,0
2565,note_on,,5,0,3,,,,,,,,,2,,,80,0
2568,note_on,,4,0,2,,,,,,,,,1,,,57,79
2568,note_on,,4,0,1,,,,,,,,,0,,,73,79
2568,note_on,,3,0,3,,,,,,,,,2,,,81,95
2573,note_on,,5,0,3,,,,,,,,,2,,,81,0
2576,note_on,,8,0,2,,,,,,,,,1,,,57,0
2576,note_on,,3,0,3,,,,,,,,,2,,,80,95
2576,note_on,,8,0,1,,,,,,,,,0,,,73,0
2580,note_on,,4,0,2,,,,,,,,,1,,,62,79
2580,note_on,,4,0,1,,,,,,,,,0,,,78,79
2581,note_on,,5,0,3,,,,,,,,,2,,,80,0
2584,note_on,,3,0,3,,,,,,,,,2,,,81,95
2588,note_on,,8,0,1,,,,,,,,,0,,,78,0
2588,note_on,,8,0,2,,,,,,,,,1,,,62,0
2589,note_on,,5,0,3,,,,,,,,,2,,,81,0
2592,note_on,,4,0,1,,,,,,,,,0,,,71,79
2592,note_on,,4,0,2,,,,,,,,,1,,,56,79
2592,note_on,,3,0,3,,,,,,,,,2,,,83,95
2600,note_on,,8,0,2,,,,,,,,,1,,,56,0
2600,note_on,,8,0,1,,,,,,,,,0,,,71,0
2604,note_on,,4,0,2,,,,,,,,,1,,,62,79
2604,note_on,,4,0,1,,,,,,,,,0,,,78,79
2612,note_on,,8,0,2,,,,,,,,,1,,,62,0
2612,note_on,,8,0,1,,,,,,,,,0,,,78,0
2616,note_on,,4,0,1,,,,,,,,,0,,,69,79
2616,note_on,,57,0,4,,,,,,,,,3,,,71,95
2616,note_on,,4,0,2,,,,,,,,,1,,,54,79
2621,note_on,,5,0,4,,,,,,,,,3,,,71,0
2624,note_on,,3,0,4,,,,,,,,,3,,,69,95
2624,note_on,,8,0,1,,,,,,,,,0,,,69,0
2624,note_on,,8,0,2,,,,,,,,,1,,,54,0
2628,note_on,,4,0,1,,,,,,,,,0,,,78,79
2628,note_on,,4,0,2,,,,,,,,,1,,,62,79
2629,note_on,,5,0,4,,,,,,,,,3,,,69,0
2632,note_on,,3,0,4,,,,,,,,,3,,,71,95
2636,note_on,,8,0,1,,,,,,,,,0,,,78,0
2636,note_on,,8,0,2,,,,,,,,,1,,,62,0
2637,note_on,,5,0,4,,,,,,,,,3,,,71,0
2640,note_on,,4,0,2,,,,,,,,,1,,,52,79
2640,note_on,,4,0,1,,,,,,,,,0,,,68,79
2640,note_on,,3,0,4,,,,,,,,,3,,,73,95
2645,note_on,,5,0,4,,,,,,,,,3,,,73,0
2648,note_on,,8,0,1,,,,,,,,,0,,,68,0
2648,note_on,,8,0,2,,,,,,,,,1,,,52,0
2648,note_on,,3,0,4,,,,,,,,,3,,,71,95
2652,note_on,,4,0,2,,,,,,,,,1,,,62,79
2652,note_on,,4,0,1,,,,,,,,,0,,,78,79
2653,note_on,,5,0,4,,,,,,,,,3,,,71,0
2655,note_on,,63,0,3,,,,,,,,,2,,,83,0
2656,note_on,,3,0,4,,,,,,,,,3,,,73,95
2660,note_on,,8,0,2,,,,,,,,,1,,,62,0
2660,note_on,,8,0,1,,,,,,,,,0,,,78,0
2661,note_on,,5,0,4,,,,,,,,,3,,,73,0
2664,note_on,,3,0,4,,,,,,,,,3,,,74,95
2664,note_on,,4,0,2,,,,,,,,,1,,,50,79
2664,note_on,,4,0,1,,,,,,,,,0,,,66,79
2669,note_on,,5,0,4,,,,,,,,,3,,,74,0
2672,note_on,,3,0,4,,,,,,,,,3,,,73,95
2672,note_on,,8,0,1,,,,,,,,,0,,,66,0
2672,note_on,,8,0,2,,,,,,,,,1,,,50,0
2676,note_on,,4,0,1,,,,,,,,,0,,,78,79
2676,note_on,,4,0,2,,,,,,,,,1,,,62,79
2677,note_on,,5,0,4,,,,,,,,,3,,,73,0
2680,note_on,,3,0,4,,,,,,,,,3,,,74,95
2684,note_on,,8,0,1,,,,,,,,,0,,,78,0
2684,note_on,,8,0,2,,,,,,,,,1,,,62,0
2685,note_on,,5,0,4,,,,,,,,,3,,,74,0
2688,note_on,,3,0,4,,,,,,,,,3,,,76,95
2688,note_on,,4,0,1,,,,,,,,,0,,,64,79
2688,note_on,,4,0,2,,,,,,,,,1,,,49,79
2696,note_on,,8,0,2,,,,,,,,,1,,,49,0
2696,note_on,,8,0,1,,,,,,,,,0,,,64,0
2700,note_on,,4,0,2,,,,,,,,,1,,,61,79
2700,note_on,,4,0,1,,,,,,,,,0,,,76,79
2708,note_on,,8,0,2,,,,,,,,,1,,,61,0
2708,note_on,,8,0,1,,,,,,,,,0,,,76,0
2712,note_on,,4,0,1,,,,,,,,,0,,,74,79
2712,note_on,,57,0,3,,,,,,,,,2,,,76,95
2712,note_on,,4,0,2,,,,,,,,,1,,,59,79
2720,note_on,,8,0,1,,,,,,,,,0,,,74,0
2720,note_on,,0,0,3,,,,,,,,,2,,,74,95
2720,note_on,,8,0,3,,,,,,,,,2,,,76,0
2720,note_on,,8,0,2,,,,,,,,,1,,,59,0
2724,note_on,,4,0,2,,,,,,,,,1,,,61,79
2724,note_on,,4,0,1,,,,,,,,,0,,,76,79
2725,note_on,,5,0,3,,,,,,,,,2,,,74,0
2728,note_on,,3,0,3,,,,,,,,,2,,,76,95
2732,note_on,,8,0,2,,,,,,,,,1,,,61,0
2732,note_on,,8,0,1,,,,,,,,,0,,,76,0
2733,note_on,,5,0,3,,,,,,,,,2,,,76,0
2736,note_on,,4,0,2,,,,,,,,,1,,,57,79
2736,note_on,,3,0,3,,,,,,,,,2,,,78,95
2736,note_on,,4,0,1,,,,,,,,,0,,,73,79
2741,note_on,,5,0,3,,,,,,,,,2,,,78,0
2744,note_on,,3,0,3,,,,,,,,,2,,,76,95
2744,note_on,,8,0,1,,,,,,,,,0,,,73,0
2744,note_on,,8,0,2,,,,,,,,,1,,,57,0
2748,note_on,,4,0,1,,,,,,,,,0,,,76,79
2748,note_on,,4,0,2,,,,,,,,,1,,,61,79
2749,note_on,,5,0,3,,,,,,,,,2,,,76,0
2750,note_on,,62,0,4,,,,,,,,,3,,,76,0
2752,note_on,,3,0,3,,,,,,,,,2,,,78,95
2756,note_on,,8,0,1,,,,,,,,,0,,,76,0
2756,note_on,,8,0,2,,,,,,,,,1,,,61,0
2757,note_on,,5,0,3,,,,,,,,,2,,,78,0
2760,note_on,,3,0,3,,,,,,,,,2,,,80,95
2760,note_on,,4,0,1,,,,,,,,,0,,,71,79
2760,note_on,,4,0,2,,,,,,,,,1,,,56,79
2765,note_on,,5,0,3,,,,,,,,,2,,,80,0
2768,note_on,,8,0,1,,,,,,,,,0,,,71,0
2768,note_on,,8,0,2,,,,,,,,,1,,,56,0
2768,note_on,,3,0,3,,,,,,,,,2,,,78,95
2772,note_on,,4,0,1,,,,,,,,,0,,,76,79
2772,note_on,,4,0,2,,,,,,,,,1,,,61,79
2773,note_on,,5,0,3,,,,,,,,,2,,,78,0
2776,note_on,,3,0,3,,,,,,,,,2,,,80,95
2780,note_on,,8,0,1,,,,,,,,,0,,,76,0
2780,note_on,,8,0,2,,,,,,,,,1,,,61,0
2781,note_on,,5,0,3,,,,,,,,,2,,,80,0
2784,note_on,,4,0,2,,,,,,,,,1,,,54,79
2784,note_on,,3,0,3,,,,,,,,,2,,,81,95
2784,note_on,,4,0,1,,,,,,,,,0,,,69,79
2792,note_on,,8,0,1,,,,,,,,,0,,,69,0
2792,note_on,,8,0,2,,,,,,,,,1,,,54,0
2796,note_on,,4,0,2,,,,,,,,,1,,,61,79
2796,note_on,,4,0,1,,,,,,,,,0,,,76,79
2804,note_on,,8,0,1,,,,,,,,,0,,,76,0
2804,note_on,,8,0,2,,,,,,,,,1,,,61,0
2808,note_on,,4,0,1,,,,,,,,,0,,,68,79
2808,note_on,,58,0,4,,,,,,,,,3,,,69,95
2808,note_on,,4,0,2,,,,,,,,,1,,,52,79
2813,note_on,,5,0,4,,,,,,,,,3,,,69,0
2816,note_on,,8,0,1,,,,,,,,,0,,,68,0
2816,note_on,,8,0,2,,,,,,,,,1,,,52,0
2816,note_on,,3,0,4,,,,,,,,,3,,,68,95
2820,note_on,,4,0,2,,,,,,,,,1,,,61,79
2820,note_on,,4,0,1,,,,,,,,,0,,,76,79
2821,note_on,,5,0,4,,,,,,,,,3,,,68,0
2824,note_on,,3,0,4,,,,,,,,,3,,,69,95
2828,note_on,,8,0,1,,,,,,,,,0,,,76,0
2828,note_on,,8,0,2,,,,,,,,,1,,,61,0
2829,note_on,,5,0,4,,,,,,,,,3,,,69,0
2832,note_on,,4,0,1,,,,,,,,,0,,,66,79
2832,note_on,,3,0,4,,,,,,,,,3,,,71,95
2832,note_on,,4,0,2,,,,,,,,,1,,,50,79
2837,note_on,,5,0,4,,,,,,,,,3,,,71,0
2840,note_on,,8,0,2,,,,,,,,,1,,,50,0
2840,note_on,,8,0,1,,,,,,,,,0,,,66,0
2840,note_on,,3,0,4,,,,,,,,,3,,,69,95
2844,note_on,,4,0,2,,,,,,,,,1,,,61,79
2844,note_on,,4,0,1,,,,,,,,,0,,,76,79
2845,note_on,,5,0,4,,,,,,,,,3,,,69,0
2847,note_on,,63,0,3,,,,,,,,,2,,,81,0
2848,note_on,,3,0,4,,,,,,,,,3,,,71,95
2852,note_on,,8,0,2,,,,,,,,,1,,,61,0
2852,note_on,,8,0,1,,,,,,,,,0,,,76,0
2853,note_on,,5,0,4,,,,,,,,,3,,,71,0
2856,note_on,,4,0,2,,,,,,,,,1,,,49,79
2856,note_on,,3,0,4,,,,,,,,,3,,,73,95
2856,note_on,,4,0,1,,,,,,,,,0,,,64,79
2861,note_on,,5,0,4,,,,,,,,,3,,,73,0
2864,note_on,,8,0,2,,,,,,,,,1,,,49,0
2864,note_on,,3,0,4,,,,,,,,,3,,,71,95
2864,note_on,,8,0,1,,,,,,,,,0,,,64,0
2868,note_on,,4,0,2,,,,,,,,,1,,,61,79
2868,note_on,,4,0,1,,,,,,,,,0,,,76,79
2869,note_on,,5,0,4,,,,,,,,,3,,,71,0
2872,note_on,,3,0,4,,,,,,,,,3,,,73,95
2876,note_on,,8,0,1,,,,,,,,,0,,,76,0
2876,note_on,,8,0,2,,,,,,,,,1,,,61,0
2877,note_on,,5,0,4,,,,,,,,,3,,,73,0
2880,note_on,,4,0,2,,,,,,,,,1,,,47,79
2880,note_on,,4,0,1,,,,,,,,,0,,,62,79
2880,note_on,,3,0,4,,,,,,,,,3,,,74,95
2888,note_on,,8,0,2,,,,,,,,,1,,,47,0
2888,note_on,,8,0,1,,,,,,,,,0,,,62,0
2892,note_on,,4,0,2,,,,,,,,,1,,,59,79
2892,note_on,,4,0,1,,,,,,,,,0,,,74,79
2900,note_on,,8,0,2,,,,,,,,,1,,,59,0
2900,note_on,,8,0,1,,,,,,,,,0,,,74,0
2904,note_on,,4,0,2,,,,,,,,,1,,,57,79
2904,note_on,,4,0,1,,,,,,,,,0,,,73,79
2904,note_on,,57,0,3,,,,,,,,,2,,,74,95
2909,note_on,,5,0,3,,,,,,,,,2,,,74,0
2912,note_on,,3,0,3,,,,,,,,,2,,,73,95
2912,note_on,,8,0,1,,,,,,,,,0,,,73,0
2912,note_on,,8,0,2,,,,,,,,,1,,,57,0
2916,note_on,,4,0,2,,,,,,,,,1,,,59,79
2916,note_on,,4,0,1,,,,,,,,,0,,,74,79
2917,note_on,,5,0,3,,,,,,,,,2,,,73,0
2920,note_on,,3,0,3,,,,,,,,,2,,,74,95
2924,note_on,,8,0,1,,,,,,,,,0,,,74,0
2924,note_on,,8,0,2,,,,,,,,,1,,,59,0
2925,note_on,,5,0,3,,,,,,,,,2,,,74,0
2928,note_on,,3,0,3,,,,,,,,,2,,,76,95
2928,note_on,,4,0,1,,,,,,,,,0,,,71,79
2928,note_on,,4,0,2,,,,,,,,,1,,,56,79
2933,note_on,,5,0,3,,,,,,,,,2,,,76,0
2936,note_on,,3,0,3,,,,,,,,,2,,,74,95
2936,note_on,,8,0,2,,,,,,,,,1,,,56,0
2936,note_on,,8,0,1,,,,,,,,,0,,,71,0
2940,note_on,,4,0,2,,,,,,,,,1,,,59,79
2940,note_on,,4,0,1,,,,,,,,,0,,,74,79
2941,note_on,,5,0,3,,,,,,,,,2,,,74,0
2943,note_on,,63,0,4,,,,,,,,,3,,,74,0
2944,note_on,,3,0,3,,,,,,,,,2,,,76,95
2948,note_on,,8,0,1,,,,,,,,,0,,,74,0
2948,note_on,,8,0,2,,,,,,,,,1,,,59,0
2949,note_on,,5,0,3,,,,,,,,,2,,,76,0
2952,note_on,,4,0,2,,,,,,,,,1,,,54,79
2952,note_on,,3,0,3,,,,,,,,,2,,,78,95
2952,note_on,,4,0,1,,,,,,,,,0,,,69,79
2957,note_on,,5,0,3,,,,,,,,,2,,,78,0
2960,note_on,,8,0,1,,,,,,,,,0,,,69,0
2960,note_on,,8,0,2,,,,,,,,,1,,,54,0
2960,note_on,,3,0,3,,,,,,,,,2,,,76,95
2964,note_on,,4,0,2,,,,,,,,,1,,,59,79
2964,note_on,,4,0,1,,,,,,,,,0,,,74,79
2965,note_on,,5,0,3,,,,,,,,,2,,,76,0
2968,note_on,,3,0,3,,,,,,,,,2,,,78,95
2972,note_on,,8,0,2,,,,,,,,,1,,,59,0
2972,note_on,,8,0,1,,,,,,,,,0,,,74,0
2973,note_on,,5,0,3,,,,,,,,,2,,,78,0
2976,note_on,,4,0,2,,,,,,,,,1,,,52,79
2976,note_on,,3,0,3,,,,,,,,,2,,,68,95
2976,note_on,,4,0,1,,,,,,,,,0,,,68,79
2984,note_on,,8,0,2,,,,,,,,,1,,,52,0
2984,note_on,,8,0,1,,,,,,,,,0,,,68,0
2988,note_on,,4,0,2,,,,,,,,,1,,,59,79
2988,note_on,,4,0,1,,,,,,,,,0,,,74,79
2992,note_on,,16,0,3,,,,,,,,,2,,,68,0
2996,note_on,,8,0,1,,,,,,,,,0,,,74,0
2996,note_on,,8,0,2,,,,,,,,,1,,,59,0
3000,note_on,,57,0,4,,,,,,,,,3,,,68,95
3000,note_on,,8,0,3,,,,,,,,,2,,,78,95
3000,note_on,,4,0,2,,,,,,,,,1,,,50,79
3000,note_on,,4,0,1,,,,,,,,,0,,,66,79
3005,note_on,,5,0,4,,,,,,,,,3,,,68,0
3008,note_on,,8,0,1,,,,,,,,,0,,,66,0
3008,note_on,,8,0,2,,,,,,,,,1,,,50,0
3008,note_on,,3,0,4,,,,,,,,,3,,,66,95
3012,note_on,,4,0,1,,,,,,,,,0,,,74,79
3012,note_on,,4,0,2,,,,,,,,,1,,,59,79
3013,note_on,,5,0,4,,,,,,,,,3,,,66,0
3016,note_on,,3,0,4,,,,,,,,,3,,,68,95
3016,note_on,,16,0,3,,,,,,,,,2,,,78,0
3020,note_on,,8,0,2,,,,,,,,,1,,,59,0
3020,note_on,,8,0,1,,,,,,,,,0,,,74,0
3021,note_on,,5,0,4,,,,,,,,,3,,,68,0
3024,note_on,,8,0,3,,,,,,,,,2,,,76,95
3024,note_on,,4,0,2,,,,,,,,,1,,,49,79
3024,note_on,,3,0,4,,,,,,,,,3,,,69,95
3024,note_on,,4,0,1,,,,,,,,,0,,,64,79
3029,note_on,,5,0,4,,,,,,,,,3,,,69,0
3032,note_on,,8,0,2,,,,,,,,,1,,,49,0
3032,note_on,,8,0,1,,,,,,,,,0,,,64,0
3032,note_on,,3,0,4,,,,,,,,,3,,,68,95
3036,note_on,,4,0,1,,,,,,,,,0,,,74,79
3036,note_on,,4,0,2,,,,,,,,,1,,,59,79
3037,note_on,,5,0,4,,,,,,,,,3,,,68,0
3040,note_on,,16,0,3,,,,,,,,,2,,,76,0
3040,note_on,,3,0,4,,,,,,,,,3,,,69,95
3044,note_on,,8,0,2,,,,,,,,,1,,,59,0
3044,note_on,,8,0,1,,,,,,,,,0,,,74,0
3045,note_on,,5,0,4,,,,,,,,,3,,,69,0
3048,note_on,,4,0,2,,,,,,,,,1,,,47,79
3048,note_on,,4,0,1,,,,,,,,,0,,,68,79
3048,note_on,,8,0,3,,,,,,,,,2,,,74,95
3048,note_on,,3,0,4,,,,,,,,,3,,,71,95
3053,note_on,,5,0,4,,,,,,,,,3,,,71,0
3056,note_on,,8,0,1,,,,,,,,,0,,,68,0
3056,note_on,,8,0,2,,,,,,,,,1,,,47,0
3056,note_on,,3,0,4,,,,,,,,,3,,,69,95
3060,note_on,,4,0,1,,,,,,,,,0,,,74,79
3060,note_on,,4,0,2,,,,,,,,,1,,,59,79
3061,note_on,,5,0,4,,,,,,,,,3,,,69,0
3064,note_on,,16,0,3,,,,,,,,,2,,,74,0
3064,note_on,,3,0,4,,,,,,,,,3,,,71,95
3068,note_on,,8,0,1,,,,,,,,,0,,,74,0
3068,note_on,,8,0,2,,,,,,,,,1,,,59,0
3069,note_on,,5,0,4,,,,,,,,,3,,,71,0
3072,note_on,,3,0,4,,,,,,,,,3,,,64,95
3072,note_on,,8,0,3,,,,,,,,,2,,,73,95
3072,note_on,,4,0,1,,,,,,,,,0,,,73,79
3072,note_on,,4,0,2,,,,,,,,,1,,,45,79
3080,note_on,,8,0,1,,,,,,,,,0,,,73,0
3080,note_on,,8,0,2,,,,,,,,,1,,,45,0
3084,note_on,,4,0,2,,,,,,,,,1,,,57,79
3084,note_on,,4,0,1,,,,,,,,,0,,,69,79
3088,note_on,,16,0,3,,,,,,,,,2,,,73,0
3092,note_on,,8,0,2,,,,,,,,,1,,,57,0
3092,note_on,,8,0,1,,,,,,,,,0,,,69,0
3096,note_on,,8,0,3,,,,,,,,,2,,,71,95
3096,note_on,,4,0,2,,,,,,,,,1,,,47,79
3096,note_on,,4,0,1,,,,,,,,,0,,,74,79
3103,note_on,,31,0,4,,,,,,,,,3,,,64,0
3104,note_on,,8,0,1,,,,,,,,,0,,,74,0
3104,note_on,,8,0,3,,,,,,,,,2,,,71,0
3104,note_on,,8,0,2,,,,,,,,,1,,,47,0
3108,note_on,,4,0,2,,,,,,,,,1,,,57,79
3108,note_on,,4,0,1,,,,,,,,,0,,,69,79
3108,note_on,,4,0,3,,,,,,,,,2,,,69,95
3116,note_on,,8,0,3,,,,,,,,,2,,,69,0
3116,note_on,,8,0,2,,,,,,,,,1,,,57,0
3116,note_on,,8,0,1,,,,,,,,,0,,,69,0
3120,note_on,,4,0,3,,,,,,,,,2,,,76,95
3120,note_on,,4,0,2,,,,,,,,,1,,,49,79
3120,note_on,,4,0,1,,,,,,,,,0,,,76,79
3128,note_on,,8,0,2,,,,,,,,,1,,,49,0
3128,note_on,,8,0,1,,,,,,,,,0,,,76,0
3132,note_on,,4,0,2,,,,,,,,,1,,,57,79
3132,note_on,,4,0,1,,,,,,,,,0,,,69,79
3140,note_on,,8,0,2,,,,,,,,,1,,,57,0
3140,note_on,,8,0,1,,,,,,,,,0,,,69,0
3144,note_on,,41,0,4,,,,,,,,,3,,,69,95
3144,note_on,,4,0,1,,,,,,,,,0,,,73,79
3144,note_on,,4,0,2,,,,,,,,,1,,,45,79
3152,note_on,,32,0,3,,,,,,,,,2,,,76,0
3152,note_on,,8,0,1,,,,,,,,,0,,,73,0
3152,note_on,,8,0,2,,,,,,,,,1,,,45,0
3156,note_on,,4,0,1,,,,,,,,,0,,,76,79
3156,note_on,,4,0,2,,,,,,,,,1,,,57,79
3160,note_on,,16,0,4,,,,,,,,,3,,,69,0
3164,note_on,,8,0,2,,,,,,,,,1,,,57,0
3164,note_on,,8,0,1,,,,,,,,,0,,,76,0
3168,note_on,,4,0,2,,,,,,,,,1,,,50,79
3168,note_on,,4,0,1,,,,,,,,,0,,,78,79
3168,note_on,,8,0,4,,,,,,,,,3,,,78,95
3176,note_on,,8,0,2,,,,,,,,,1,,,50,0
3176,note_on,,8,0,1,,,,,,,,,0,,,78,0
3180,note_on,,28,0,3,,,,,,,,,2,,,74,95
3180,note_on,,4,0,2,,,,,,,,,1,,,57,79
3180,note_on,,4,0,1,,,,,,,,,0,,,74,79
3184,note_on,,16,0,4,,,,,,,,,3,,,78,0
3188,note_on,,8,0,2,,,,,,,,,1,,,57,0
3188,note_on,,8,0,3,,,,,,,,,2,,,74,0
3188,note_on,,8,0,1,,,,,,,,,0,,,74,0
3192,note_on,,4,0,1,,,,,,,,,0,,,81,79
3192,note_on,,4,0,3,,,,,,,,,2,,,73,95
3192,note_on,,4,0,2,,,,,,,,,1,,,52,79
3192,note_on,,8,0,4,,,,,,,,,3,,,76,95
3200,note_on,,8,0,1,,,,,,,,,0,,,81,0
3200,note_on,,8,0,3,,,,,,,,,2,,,73,0
3200,note_on,,8,0,2,,,,,,,,,1,,,52,0
3204,note_on,,4,0,3,,,,,,,,,2,,,74,95
3204,note_on,,4,0,2,,,,,,,,,1,,,57,79
3204,note_on,,4,0,1,,,,,,,,,0,,,73,79
3208,note_on,,16,0,4,,,,,,,,,3,,,76,0
3212,note_on,,8,0,2,,,,,,,,,1,,,57,0
3212,note_on,,8,0,1,,,,,,,,,0,,,73,0
3212,note_on,,8,0,3,,,,,,,,,2,,,74,0
3216,note_on,,4,0,3,,,,,,,,,2,,,83,95
3216,note_on,,4,0,2,,,,,,,,,1,,,54,79
3216,note_on,,4,0,1,,,,,,,,,0,,,74,79
3216,note_on,,8,0,4,,,,,,,,,3,,,74,95
3224,note_on,,8,0,1,,,,,,,,,0,,,74,0
3224,note_on,,8,0,4,,,,,,,,,3,,,74,0
3224,note_on,,8,0,2,,,,,,,,,1,,,54,0
3228,note_on,,4,0,1,,,,,,,,,0,,,76,79
3228,note_on,,4,0,2,,,,,,,,,1,,,57,79
3228,note_on,,4,0,4,,,,,,,,,3,,,73,95
3232,note_on,,16,0,3,,,,,,,,,2,,,83,0
3236,note_on,,8,0,2,,,,,,,,,1,,,57,0
3236,note_on,,8,0,1,,,,,,,,,0,,,76,0
3236,note_on,,8,0,4,,,,,,,,,3,,,73,0
3240,note_on,,4,0,1,,,,,,,,,0,,,78,79
3240,note_on,,4,0,4,,,,,,,,,3,,,74,95
3240,note_on,,8,0,3,,,,,,,,,2,,,81,95
3240,note_on,,4,0,2,,,,,,,,,1,,,50,79
3248,note_on,,8,0,1,,,,,,,,,0,,,78,0
3248,note_on,,8,0,2,,,,,,,,,1,,,50,0
3252,note_on,,4,0,2,,,,,,,,,1,,,57,79
3252,note_on,,4,0,1,,,,,,,,,0,,,74,79
3256,note_on,,16,0,3,,,,,,,,,2,,,81,0
3260,note_on,,8,0,2,,,,,,,,,1,,,57,0
3260,note_on,,8,0,1,,,,,,,,,0,,,74,0
3264,note_on,,4,0,2,,,,,,,,,1,,,52,79
3264,note_on,,24,0,4,,,,,,,,,3,,,74,0
3264,note_on,,4,0,1,,,,,,,,,0,,,71,79
3264,note_on,,8,0,3,,,,,,,,,2,,,80,95
3272,note_on,,8,0,1,,,,,,,,,0,,,71,0
3276,note_on,,12,0,4,,,,,,,,,3,,,73,95
3276,note_on,,4,0,1,,,,,,,,,0,,,76,79
3280,note_on,,16,0,2,,,,,,,,,1,,,52,0
3280,note_on,,16,0,3,,,,,,,,,2,,,80,0
3284,note_on,,8,0,4,,,,,,,,,3,,,73,0
3284,note_on,,8,0,1,,,,,,,,,0,,,76,0
3288,note_on,,8,0,3,,,,,,,,,2,,,78,95
3288,note_on,,4,0,4,,,,,,,,,3,,,74,95
3288,note_on,,8,0,2,,,,,,,,,1,,,40,79
3288,note_on,,4,0,1,,,,,,,,,0,,,74,79
3296,note_on,,8,0,3,,,,,,,,,2,,,78,0
3296,note_on,,8,0,4,,,,,,,,,3,,,74,0
3296,note_on,,8,0,1,,,,,,,,,0,,,74,0
3300,note_on,,4,0,1,,,,,,,,,0,,,76,79
3300,note_on,,4,0,4,,,,,,,,,3,,,71,95
3300,note_on,,4,0,3,,,,,,,,,2,,,76,95
3304,note_on,,16,0,2,,,,,,,,,1,,,40,0
3308,note_on,,8,0,4,,,,,,,,,3,,,71,0
3308,note_on,,8,0,1,,,,,,,,,0,,,76,0
3308,note_on,,8,0,3,,,,,,,,,2,,,76,0
3312,note_on,,4,0,3,,,,,,,,,2,,,81,95
3312,note_on,,4,0,1,,,,,,,,,0,,,69,79
3312,note_on,,4,0,4,,,,,,,,,3,,,73,95
3320,note_on,,8,0,1,,,,,,,,,0,,,69,0
3324,note_on,,20,0,2,,,,,,,,,1,,,54,79
3324,note_on,,4,0,1,,,,,,,,,0,,,81,79
3328,note_on,,16,0,4,,,,,,,,,3,,,73,0
3332,note_on,,8,0,1,,,,,,,,,0,,,81,0
3332,note_on,,8,0,2,,,,,,,,,1,,,54,0
3336,note_on,,8,0,4,,,,,,,,,3,,,74,95
3336,note_on,,4,0,1,,,,,,,,,0,,,80,79
3336,note_on,,4,0,2,,,,,,,,,1,,,52,79
3344,note_on,,8,0,2,,,,,,,,,1,,,52,0
3344,note_on,,8,0,1,,,,,,,,,0,,,80,0
3348,note_on,,4,0,2,,,,,,,,,1,,,50,79
3348,note_on,,4,0,1,,,,,,,,,0,,,78,79
3352,note_on,,16,0,4,,,,,,,,,3,,,74,0
3356,note_on,,8,0,1,,,,,,,,,0,,,78,0
3356,note_on,,8,0,2,,,,,,,,,1,,,50,0
3360,note_on,,4,0,2,,,,,,,,,1,,,49,79
3360,note_on,,48,0,3,,,,,,,,,2,,,81,0
3360,note_on,,8,0,4,,,,,,,,,3,,,76,95
3360,note_on,,4,0,1,,,,,,,,,0,,,76,79
3368,note_on,,8,0,1,,,,,,,,,0,,,76,0
3372,note_on,,4,0,1,,,,,,,,,0,,,74,79
3376,note_on,,16,0,2,,,,,,,,,1,,,49,0
3380,note_on,,8,0,1,,,,,,,,,0,,,74,0
3384,note_on,,8,0,2,,,,,,,,,1,,,50,79
3384,note_on,,24,0,4,,,,,,,,,3,,,76,0
3384,note_on,,4,0,1,,,,,,,,,0,,,73,79
3392,note_on,,8,0,1,,,,,,,,,0,,,73,0
3396,note_on,,12,0,4,,,,,,,,,3,,,78,95
3396,note_on,,36,0,3,,,,,,,,,2,,,83,95
3396,note_on,,4,0,1,,,,,,,,,0,,,76,79
3400,note_on,,16,0,2,,,,,,,,,1,,,50,0
3404,note_on,,8,0,4,,,,,,,,,3,,,78,0
3404,note_on,,8,0,3,,,,,,,,,2,,,83,0
3404,note_on,,8,0,1,,,,,,,,,0,,,76,0
3408,note_on,,4,0,3,,,,,,,,,2,,,80,95
3408,note_on,,4,0,4,,,,,,,,,3,,,71,95
3408,note_on,,8,0,2,,,,,,,,,1,,,52,79
3408,note_on,,4,0,1,,,,,,,,,0,,,74,79
3416,note_on,,8,0,1,,,,,,,,,0,,,74,0
3420,note_on,,4,0,1,,,,,,,,,0,,,73,79
3424,note_on,,16,0,2,,,,,,,,,1,,,52,0
3428,note_on,,8,0,1,,,,,,,,,0,,,73,0
3432,note_on,,4,0,1,,,,,,,,,0,,,71,79
3432,note_on,,24,0,3,,,,,,,,,2,,,80,0
3432,note_on,,8,0,2,,,,,,,,,1,,,40,79
3432,note_on,,24,0,4,,,,,,,,,3,,,71,0
3440,note_on,,8,0,1,,,,,,,,,0,,,71,0
3444,note_on,,4,0,1,,,,,,,,,0,,,74,79
3444,note_on,,12,0,3,,,,,,,,,2,,,81,95
3444,note_on,,12,0,4,,,,,,,,,3,,,69,95
3448,note_on,,16,0,2,,,,,,,,,1,,,40,0
3452,note_on,,8,0,1,,,,,,,,,0,,,74,0
3452,note_on,,8,0,4,,,,,,,,,3,,,69,0
3452,note_on,,8,0,3,,,,,,,,,2,,,81,0
3456,note_on,,4,0,4,,,,,,,,,3,,,69,95
3456,note_on,,1016,0,5,,,,,,,,,4,,,57,95
3456,note_on,,1024,0,7,,,,,,,,,6,,,57,95
3456,note_on,,1024,0,8,,,,,,,,,7,,,45,95
3456,note_on,,8,0,2,,,,,,,,,1,,,45,63
3456,note_on,,4,0,1,,,,,,,,,0,,,76,79
3456,note_on,,1008,0,6,,,,,,,,,5,,,61,56
3456,note_on,,4,0,3,,,,,,,,,2,,,81,95
3464,note_on,,8,0,5,,,,,,,,,4,,,57,0
3468,note_on,,4,0,5,,,,,,,,,4,,,57,95
3472,note_on,,16,0,1,,,,,,,,,0,,,76,0
3476,note_on,,8,0,5,,,,,,,,,4,,,57,0
3480,note_on,,4,0,5,,,,,,,,,4,,,61,95
3480,note_on,,8,0,1,,,,,,,,,0,,,73,79
3488,note_on,,8,0,5,,,,,,,,,4,,,61,0
3488,note_on,,32,0,3,,,,,,,,,2,,,81,0
3488,note_on,,32,0,2,,,,,,,,,1,,,45,0
3488,note_on,,32,0,4,,,,,,,,,3,,,69,0
3492,note_on,,4,0,5,,,,,,,,,4,,,61,95
3496,note_on,,16,0,1,,,,,,,,,0,,,73,0
3500,note_on,,8,0,5,,,,,,,,,4,,,61,0
3504,note_on,,48,0,7,,,,,,,,,6,,,57,0
3504,note_on,,4,0,5,,,,,,,,,4,,,64,95
3504,note_on,,48,0,6,,,,,,,,,5,,,61,0
3504,note_on,,48,0,8,,,,,,,,,7,,,45,0
3512,note_on,,8,0,5,,,,,,,,,4,,,64,0
3516,note_on,,4,0,5,,,,,,,,,4,,,64,95
3524,note_on,,8,0,5,,,,,,,,,4,,,64,0
3528,note_on,,40,0,2,,,,,,,,,1,,,45,63
3528,note_on,,24,0,7,,,,,,,,,6,,,45,95
3528,note_on,,4,0,5,,,,,,,,,4,,,69,95
3528,note_on,,24,0,6,,,,,,,,,5,,,61,56
3528,note_on,,24,0,8,,,,,,,,,7,,,33,79
3536,note_on,,8,0,5,,,,,,,,,4,,,69,0
3540,note_on,,4,0,5,,,,,,,,,4,,,69,95
3548,note_on,,8,0,5,,,,,,,,,4,,,69,0
3552,note_on,,24,0,8,,,,,,,,,7,,,33,0
3552,note_on,,0,0,7,,,,,,,,,6,,,52,95
3552,note_on,,0,0,8,,,,,,,,,7,,,40,79
3552,note_on,,24,0,6,,,,,,,,,5,,,61,0
3552,note_on,,0,0,6,,,,,,,,,5,,,59,56
3552,note_on,,4,0,5,,,,,,,,,4,,,68,95
3552,note_on,,24,0,7,,,,,,,,,6,,,45,0
3552,note_on,,24,0,2,,,,,,,,,1,,,45,0
3552,note_on,,0,0,2,,,,,,,,,1,,,52,63
3560,note_on,,8,0,5,,,,,,,,,4,,,68,0
3564,note_on,,4,0,5,,,,,,,,,4,,,69,95
3572,note_on,,8,0,5,,,,,,,,,4,,,69,0
3576,note_on,,0,0,6,,,,,,,,,5,,,57,56
3576,note_on,,24,0,8,,,,,,,,,7,,,40,0
3576,note_on,,0,0,8,,,,,,,,,7,,,42,79
3576,note_on,,24,0,7,,,,,,,,,6,,,52,0
3576,note_on,,0,0,7,,,,,,,,,6,,,54,95
3576,note_on,,4,0,5,,,,,,,,,4,,,68,95
3576,note_on,,24,0,2,,,,,,,,,1,,,52,0
3576,note_on,,24,0,6,,,,,,,,,5,,,59,0
3576,note_on,,0,0,2,,,,,,,,,1,,,54,63
3584,note_on,,8,0,5,,,,,,,,,4,,,68,0
3588,note_on,,4,0,5,,,,,,,,,4,,,66,95
3596,note_on,,8,0,5,,,,,,,,,4,,,66,0
3600,note_on,,0,0,7,,,,,,,,,6,,,56,95
3600,note_on,,4,0,5,,,,,,,,,4,,,64,95
3600,note_on,,24,0,6,,,,,,,,,5,,,57,0
3600,note_on,,0,0,6,,,,,,,,,5,,,59,56
3600,note_on,,24,0,8,,,,,,,,,7,,,42,0
3600,note_on,,0,0,8,,,,,,,,,7,,,44,79
3600,note_on,,0,0,2,,,,,,,,,1,,,56,63
3600,note_on,,24,0,2,,,,,,,,,1,,,54,0
3600,note_on,,24,0,7,,,,,,,,,6,,,54,0
3608,note_on,,8,0,5,,,,,,,,,4,,,64,0
3612,note_on,,4,0,5,,,,,,,,,4,,,62,95
3620,note_on,,8,0,5,,,,,,,,,4,,,62,0
3624,note_on,,0,0,8,,,,,,,,,7,,,40,79
3624,note_on,,24,0,8,,,,,,,,,7,,,44,0
3624,note_on,,0,0,6,,,,,,,,,5,,,56,56
3624,note_on,,4,0,5,,,,,,,,,4,,,61,95
3624,note_on,,24,0,6,,,,,,,,,5,,,59,0
3624,note_on,,24,0,2,,,,,,,,,1,,,56,0
3624,note_on,,0,0,7,,,,,,,,,6,,,52,95
3624,note_on,,0,0,2,,,,,,,,,1,,,52,63
3624,note_on,,24,0,7,,,,,,,,,6,,,56,0
3632,note_on,,8,0,5,,,,,,,,,4,,,61,0
3636,note_on,,4,0,5,,,,,,,,,4,,,59,95
3644,note_on,,8,0,5,,,,,,,,,4,,,59,0
3648,note_on,,0,0,6,,,,,,,,,5,,,52,56
3648,note_on,,0,0,7,,,,,,,,,6,,,49,95
3648,note_on,,24,0,7,,,,,,,,,6,,,52,0
3648,note_on,,24,0,2,,,,,,,,,1,,,52,0
3648,note_on,,24,0,6,,,,,,,,,5,,,56,0
3648,note_on,,0,0,2,,,,,,,,,1,,,49,63
3648,note_on,,4,0,5,,,,,,,,,4,,,57,95
3648,note_on,,24,0,8,,,,,,,,,7,,,40,0
3648,note_on,,0,0,8,,,,,,,,,7,,,37,79
3656,note_on,,8,0,5,,,,,,,,,4,,,57,0
3660,note_on,,4,0,5,,,,,,,,,4,,,57,95
3668,note_on,,8,0,5,,,,,,,,,4,,,57,0
3672,note_on,,0,0,2,,,,,,,,,1,,,47,63
3672,note_on,,4,0,5,,,,,,,,,4,,,61,95
3672,note_on,,24,0,8,,,,,,,,,7,,,37,0
3672,note_on,,0,0,8,,,,,,,,,7,,,35,79
3672,note_on,,24,0,6,,,,,,,,,5,,,52,0
3672,note_on,,0,0,6,,,,,,,,,5,,,64,56
3672,note_on,,0,0,7,,,,,,,,,6,,,47,95
3672,note_on,,24,0,2,,,,,,,,,1,,,49,0
3672,note_on,,24,0,7,,,,,,,,,6,,,49,0
3680,note_on,,8,0,5,,,,,,,,,4,,,61,0
3684,note_on,,4,0,5,,,,,,,,,4,,,61,95
3692,note_on,,8,0,5,,,,,,,,,4,,,61,0
3696,note_on,,24,0,7,,,,,,,,,6,,,47,0
3696,note_on,,0,0,7,,,,,,,,,6,,,49,95
3696,note_on,,0,0,8,,,,,,,,,7,,,37,79
3696,note_on,,24,0,8,,,,,,,,,7,,,35,0
3696,note_on,,24,0,6,,,,,,,,,5,,,64,0
3696,note_on,,0,0,6,,,,,,,,,5,,,57,56
3696,note_on,,4,0,5,,,,,,,,,4,,,64,95
3696,note_on,,24,0,2,,,,,,,,,1,,,47,0
3696,note_on,,0,0,2,,,,,,,,,1,,,49,63
3704,note_on,,8,0,5,,,,,,,,,4,,,64,0
3708,note_on,,4,0,5,,,,,,,,,4,,,64,95
3716,note_on,,8,0,5,,,,,,,,,4,,,64,0
3720,note_on,,24,0,8,,,,,,,,,7,,,37,0
3720,note_on,,24,0,2,,,,,,,,,1,,,49,0
3720,note_on,,0,0,7,,,,,,,,,6,,,45,95
3720,note_on,,24,0,7,,,,,,,,,6,,,49,0
3720,note_on,,0,0,2,,,,,,,,,1,,,45,63
3720,note_on,,4,0,5,,,,,,,,,4,,,69,95
3720,note_on,,24,0,6,,,,,,,,,5,,,57,0
3720,note_on,,0,0,8,,,,,,,,,7,,,33,79
3720,note_on,,0,0,6,,,,,,,,,5,,,61,56
3728,note_on,,8,0,5,,,,,,,,,4,,,69,0
3732,note_on,,4,0,5,,,,,,,,,4,,,69,95
3740,note_on,,8,0,5,,,,,,,,,4,,,69,0
3744,note_on,,0,0,6,,,,,,,,,5,,,56,56
3744,note_on,,24,0,6,,,,,,,,,5,,,61,0
3744,note_on,,4,0,5,,,,,,,,,4,,,71,95
3744,note_on,,0,0,7,,,,,,,,,6,,,52,95
3744,note_on,,24,0,8,,,,,,,,,7,,,33,0
3744,note_on,,0,0,8,,,,,,,,,7,,,40,79
3744,note_on,,24,0,2,,,,,,,,,1,,,45,0
3744,note_on,,0,0,2,,,,,,,,,1,,,52,63
3744,note_on,,24,0,7,,,,,,,,,6,,,45,0
3756,note_on,,0,0,2,,,,,,,,,1,,,64,63
3756,note_on,,12,0,2,,,,,,,,,1,,,52,0
3760,note_on,,16,0,5,,,,,,,,,4,,,71,0
3768,note_on,,8,0,5,,,,,,,,,4,,,64,95
3768,note_on,,280,0,4,,,,,,,,,3,,,71,95
3768,note_on,,12,0,2,,,,,,,,,1,,,64,0
3768,note_on,,0,0,2,,,,,,,,,1,,,62,63
3780,note_on,,12,0,2,,,,,,,,,1,,,62,0
3780,note_on,,0,0,2,,,,,,,,,1,,,64,63
3784,note_on,,16,0,5,,,,,,,,,4,,,64,0
3784,note_on,,16,0,4,,,,,,,,,3,,,71,0
3792,note_on,,48,0,7,,,,,,,,,6,,,52,0
3792,note_on,,12,0,2,,,,,,,,,1,,,64,0
3792,note_on,,48,0,8,,,,,,,,,7,,,40,0
3792,note_on,,8,0,4,,,,,,,,,3,,,76,95
3792,note_on,,48,0,6,,,,,,,,,5,,,56,0
3792,note_on,,0,0,2,,,,,,,,,1,,,61,95
3804,note_on,,308,0,1,,,,,,,,,0,,,76,95
3804,note_on,,0,0,2,,,,,,,,,1,,,64,95
3804,note_on,,12,0,2,,,,,,,,,1,,,61,0
3816,note_on,,0,0,1,,,,,,,,,0,,,68,95
3816,note_on,,12,0,1,,,,,,,,,0,,,76,0
3816,note_on,,24,0,6,,,,,,,,,5,,,68,56
3816,note_on,,0,0,1,,,,,,,,,0,,,74,95
3816,note_on,,32,0,5,,,,,,,,,4,,,76,56
3816,note_on,,0,0,2,,,,,,,,,1,,,59,95
3816,note_on,,12,0,2,,,,,,,,,1,,,64,0
3816,note_on,,328,0,3,,,,,,,,,2,,,71,79
3816,note_on,,24,0,7,,,,,,,,,6,,,52,95
3828,note_on,,0,0,2,,,,,,,,,1,,,64,95
3828,note_on,,12,0,1,,,,,,,,,0,,,74,0
3828,note_on,,0,0,1,,,,,,,,,0,,,76,95
3828,note_on,,12,0,2,,,,,,,,,1,,,59,0
3832,note_on,,16,0,3,,,,,,,,,2,,,71,0
3832,note_on,,16,0,5,,,,,,,,,4,,,76,0
3840,note_on,,12,0,1,,,,,,,,,0,,,76,0
3840,note_on,,12,0,2,,,,,,,,,1,,,64,0
3840,note_on,,0,0,1,,,,,,,,,0,,,73,95
3840,note_on,,0,0,1,,,,,,,,,0,,,69,95
3840,note_on,,0,0,1,,,,,,,,,0,,,68,0
3840,note_on,,0,0,7,,,,,,,,,6,,,57,56
3840,note_on,,24,0,7,,,,,,,,,6,,,52,0
3840,note_on,,0,0,2,,,,,,,,,1,,,57,95
3840,note_on,,8,0,3,,,,,,,,,2,,,73,79
3840,note_on,,24,0,6,,,,,,,,,5,,,68,0
3840,note_on,,0,0,6,,,,,,,,,5,,,69,56
3840,note_on,,8,0,5,,,,,,,,,4,,,73,56
3852,note_on,,0,0,1,,,,,,,,,0,,,76,95
3852,note_on,,12,0,1,,,,,,,,,0,,,73,0
3856,note_on,,16,0,3,,,,,,,,,2,,,73,0
3856,note_on,,16,0,5,,,,,,,,,4,,,73,0
3864,note_on,,0,0,1,,,,,,,,,0,,,76,95
3864,note_on,,0,0,1,,,,,,,,,0,,,71,95
3864,note_on,,8,0,3,,,,,,,,,2,,,71,79
3864,note_on,,0,0,1,,,,,,,,,0,,,67,95
3864,note_on,,0,0,1,,,,,,,,,0,,,69,0
3864,note_on,,12,0,1,,,,,,,,,0,,,76,0
3864,note_on,,24,0,6,,,,,,,,,5,,,69,0
3876,note_on,,12,0,1,,,,,,,,,0,,,76,0
3876,note_on,,0,0,1,,,,,,,,,0,,,71,0
3876,note_on,,0,0,1,,,,,,,,,0,,,69,95
3876,note_on,,0,0,1,,,,,,,,,0,,,76,95
3880,note_on,,16,0,3,,,,,,,,,2,,,71,0
3887,note_on,,95,0,4,,,,,,,,,3,,,76,0
3888,note_on,,0,0,1,,,,,,,,,0,,,66,95
3888,note_on,,48,0,7,,,,,,,,,6,,,57,0
3888,note_on,,0,0,1,,,,,,,,,0,,,69,95
3888,note_on,,48,0,2,,,,,,,,,1,,,57,0
3888,note_on,,8,0,3,,,,,,,,,2,,,74,79
3888,note_on,,12,0,1,,,,,,,,,0,,,76,0
3888,note_on,,0,0,1,,,,,,,,,0,,,67,0
3888,note_on,,0,0,1,,,,,,,,,0,,,69,0
3900,note_on,,0,0,1,,,,,,,,,0,,,74,95
3900,note_on,,12,0,1,,,,,,,,,0,,,69,0
3904,note_on,,16,0,3,,,,,,,,,2,,,74,0
3912,note_on,,48,0,6,,,,,,,,,5,,,73,56
3912,note_on,,56,0,5,,,,,,,,,4,,,81,56
3912,note_on,,8,0,3,,,,,,,,,2,,,73,79
3912,note_on,,12,0,1,,,,,,,,,0,,,74,0
3912,note_on,,0,0,1,,,,,,,,,0,,,66,0
3912,note_on,,0,0,1,,,,,,,,,0,,,64,95
3912,note_on,,24,0,7,,,,,,,,,6,,,45,56
3912,note_on,,0,0,1,,,,,,,,,0,,,67,95
3912,note_on,,24,0,2,,,,,,,,,1,,,45,95
3924,note_on,,12,0,1,,,,,,,,,0,,,67,0
3924,note_on,,0,0,1,,,,,,,,,0,,,73,95
3928,note_on,,16,0,5,,,,,,,,,4,,,81,0
3928,note_on,,16,0,3,,,,,,,,,2,,,73,0
3936,note_on,,0,0,2,,,,,,,,,1,,,50,95
3936,note_on,,24,0,6,,,,,,,,,5,,,73,0
3936,note_on,,24,0,7,,,,,,,,,6,,,45,0
3936,note_on,,0,0,7,,,,,,,,,6,,,50,56
3936,note_on,,24,0,2,,,,,,,,,1,,,45,0
3936,note_on,,0,0,1,,,,,,,,,0,,,74,95
3936,note_on,,0,0,1,,,,,,,,,0,,,69,95
3936,note_on,,0,0,6,,,,,,,,,5,,,69,56
3936,note_on,,0,0,1,,,,,,,,,0,,,66,95
3936,note_on,,8,0,3,,,,,,,,,2,,,78,79
3936,note_on,,8,0,5,,,,,,,,,4,,,78,56
3936,note_on,,0,0,1,,,,,,,,,0,,,64,0
3936,note_on,,12,0,1,,,,,,,,,0,,,73,0
3936,note_on,,0,0,1,,,,,,,,,0,,,62,95
3948,note_on,,0,0,2,,,,,,,,,1,,,57,95
3948,note_on,,12,0,2,,,,,,,,,1,,,50,0
3952,note_on,,16,0,5,,,,,,,,,4,,,78,0
3960,note_on,,0,0,2,,,,,,,,,1,,,55,95
3960,note_on,,24,0,6,,,,,,,,,5,,,69,0
3960,note_on,,73,0,4,,,,,,,,,3,,,69,95
3960,note_on,,12,0,2,,,,,,,,,1,,,57,0
3968,note_on,,32,0,3,,,,,,,,,2,,,78,0
3972,note_on,,12,0,2,,,,,,,,,1,,,55,0
3972,note_on,,0,0,2,,,,,,,,,1,,,57,95
3976,note_on,,16,0,4,,,,,,,,,3,,,69,0
3984,note_on,,0,0,1,,,,,,,,,0,,,62,0
3984,note_on,,0,0,1,,,,,,,,,0,,,66,0
3984,note_on,,0,0,1,,,,,,,,,0,,,69,0
3984,note_on,,48,0,1,,,,,,,,,0,,,74,0
3984,note_on,,0,0,2,,,,,,,,,1,,,54,95
3984,note_on,,8,0,4,,,,,,,,,3,,,74,95
3984,note_on,,12,0,2,,,,,,,,,1,,,57,0
3984,note_on,,48,0,7,,,,,,,,,6,,,50,0
3996,note_on,,12,0,2,,,,,,,,,1,,,54,0
3996,note_on,,0,0,2,,,,,,,,,1,,,57,95
4008,note_on,,40,0,3,,,,,,,,,2,,,78,79
4008,note_on,,12,0,2,,,,,,,,,1,,,57,0
4008,note_on,,48,0,6,,,,,,,,,5,,,69,56
4008,note_on,,56,0,5,,,,,,,,,4,,,78,56
4008,note_on,,0,0,2,,,,,,,,,1,,,50,95
4008,note_on,,24,0,7,,,,,,,,,6,,,50,56
4020,note_on,,0,0,2,,,,,,,,,1,,,54,95
4020,note_on,,12,0,2,,,,,,,,,1,,,50,0
4024,note_on,,16,0,3,,,,,,,,,2,,,78,0
4024,note_on,,16,0,5,,,,,,,,,4,,,78,0
4032,note_on,,0,0,7,,,,,,,,,6,,,47,56
4032,note_on,,0,0,6,,,,,,,,,5,,,71,56
4032,note_on,,24,0,6,,,,,,,,,5,,,69,0
4032,note_on,,8,0,5,,,,,,,,,4,,,74,56
4032,note_on,,0,0,2,,,,,,,,,1,,,47,95
4032,note_on,,12,0,2,,,,,,,,,1,,,54,0
4032,note_on,,8,0,3,,,,,,,,,2,,,80,79
4032,note_on,,24,0,7,,,,,,,,,6,,,50,0
4044,note_on,,60,0,1,,,,,,,,,0,,,74,95
4048,note_on,,16,0,5,,,,,,,,,4,,,74,0
4048,note_on,,16,0,3,,,,,,,,,2,,,80,0
4056,note_on,,8,0,3,,,,,,,,,2,,,78,79
4056,note_on,,0,0,1,,,,,,,,,0,,,78,95
4056,note_on,,12,0,1,,,,,,,,,0,,,74,0
4056,note_on,,24,0,6,,,,,,,,,5,,,71,0
4068,note_on,,0,0,1,,,,,,,,,0,,,76,95
4068,note_on,,12,0,1,,,,,,,,,0,,,78,0
4072,note_on,,16,0,3,,,,,,,,,2,,,78,0
4079,note_on,,95,0,4,,,,,,,,,3,,,74,0
4080,note_on,,48,0,2,,,,,,,,,1,,,47,0
4080,note_on,,12,0,1,,,,,,,,,0,,,76,0
4080,note_on,,0,0,1,,,,,,,,,0,,,74,95
4080,note_on,,48,0,7,,,,,,,,,6,,,47,0
4080,note_on,,8,0,3,,,,,,,,,2,,,81,79
4092,note_on,,12,0,1,,,,,,,,,0,,,74,0
4092,note_on,,0,0,1,,,,,,,,,0,,,73,95
4096,note_on,,16,0,3,,,,,,,,,2,,,81,0
4104,note_on,,8,0,3,,,,,,,,,2,,,80,79
4104,note_on,,12,0,1,,,,,,,,,0,,,73,0
4104,note_on,,0,0,1,,,,,,,,,0,,,71,95
4116,note_on,,0,0,1,,,,,,,,,0,,,69,95
4116,note_on,,12,0,1,,,,,,,,,0,,,71,0
4120,note_on,,16,0,3,,,,,,,,,2,,,80,0
4128,note_on,,0,0,1,,,,,,,,,0,,,68,95
4128,note_on,,12,0,1,,,,,,,,,0,,,69,0
4128,note_on,,8,0,3,,,,,,,,,2,,,83,79
4128,note_on,,49,0,4,,,,,,,,,3,,,74,95
4136,note_on,,8,0,4,,,,,,,,,3,,,74,0
4140,note_on,,0,0,1,,,,,,,,,0,,,74,95
4140,note_on,,4,0,4,,,,,,,,,3,,,78,95
4140,note_on,,12,0,1,,,,,,,,,0,,,68,0
4144,note_on,,16,0,3,,,,,,,,,2,,,83,0
4148,note_on,,8,0,4,,,,,,,,,3,,,78,0
4152,note_on,,12,0,1,,,,,,,,,0,,,74,0
4152,note_on,,0,0,1,,,,,,,,,0,,,73,95
4152,note_on,,72,0,2,,,,,,,,,1,,,52,95
4152,note_on,,96,0,6,,,,,,,,,5,,,64,56
4152,note_on,,72,0,7,,,,,,,,,6,,,52,56
4152,note_on,,8,0,3,,,,,,,,,2,,,68,79
4152,note_on,,104,0,5,,,,,,,,,4,,,71,56
4152,note_on,,4,0,4,,,,,,,,,3,,,76,95
4160,note_on,,8,0,4,,,,,,,,,3,,,76,0
4164,note_on,,4,0,4,,,,,,,,,3,,,74,95
4164,note_on,,12,0,1,,,,,,,,,0,,,73,0
4164,note_on,,0,0,1,,,,,,,,,0,,,71,95
4168,note_on,,16,0,5,,,,,,,,,4,,,71,0
4168,note_on,,16,0,3,,,,,,,,,2,,,68,0
4172,note_on,,8,0,4,,,,,,,,,3,,,74,0
4176,note_on,,0,0,6,,,,,,,,,5,,,64,56
4176,note_on,,24,0,6,,,,,,,,,5,,,64,0
4176,note_on,,8,0,5,,,,,,,,,4,,,73,56
4176,note_on,,4,0,4,,,,,,,,,3,,,73,95
4176,note_on,,24,0,7,,,,,,,,,6,,,52,0
4176,note_on,,12,0,1,,,,,,,,,0,,,71,0
4176,note_on,,0,0,1,,,,,,,,,0,,,69,95
4176,note_on,,0,0,7,,,,,,,,,6,,,57,56
4176,note_on,,8,0,3,,,,,,,,,2,,,73,79
4176,note_on,,24,0,2,,,,,,,,,1,,,52,0
4176,note_on,,0,0,2,,,,,,,,,1,,,57,95
4184,note_on,,8,0,4,,,,,,,,,3,,,73,0
4188,note_on,,12,0,1,,,,,,,,,0,,,69,0
4188,note_on,,4,0,4,,,,,,,,,3,,,71,95
4188,note_on,,0,0,1,,,,,,,,,0,,,68,95
4192,note_on,,16,0,5,,,,,,,,,4,,,73,0
4196,note_on,,8,0,4,,,,,,,,,3,,,71,0
4200,note_on,,24,0,7,,,,,,,,,6,,,57,0
4200,note_on,,0,0,7,,,,,,,,,6,,,49,56
4200,note_on,,0,0,6,,,,,,,,,5,,,61,56
4200,note_on,,24,0,6,,,,,,,,,5,,,64,0
4200,note_on,,24,0,2,,,,,,,,,1,,,57,0
4200,note_on,,8,0,5,,,,,,,,,4,,,71,56
4200,note_on,,4,0,4,,,,,,,,,3,,,69,95
4200,note_on,,0,0,1,,,,,,,,,0,,,66,95
4200,note_on,,12,0,1,,,,,,,,,0,,,68,0
4200,note_on,,0,0,2,,,,,,,,,1,,,49,95
4208,note_on,,8,0,4,,,,,,,,,3,,,69,0
4212,note_on,,0,0,1,,,,,,,,,0,,,65,95
4212,note_on,,12,0,1,,,,,,,,,0,,,66,0
4212,note_on,,4,0,4,,,,,,,,,3,,,68,95
4216,note_on,,16,0,5,,,,,,,,,4,,,71,0
4220,note_on,,8,0,4,,,,,,,,,3,,,68,0
4224,note_on,,24,0,6,,,,,,,,,5,,,61,0
4224,note_on,,24,0,7,,,,,,,,,6,,,49,0
4224,note_on,,8,0,5,,,,,,,,,4,,,69,56
4224,note_on,,0,0,1,,,,,,,,,0,,,69,95
4224,note_on,,0,0,1,,,,,,,,,0,,,66,95
4224,note_on,,12,0,1,,,,,,,,,0,,,65,0
4224,note_on,,0,0,2,,,,,,,,,1,,,54,95
4224,note_on,,24,0,2,,,,,,,,,1,,,49,0
4224,note_on,,0,0,6,,,,,,,,,5,,,61,56
4224,note_on,,4,0,4,,,,,,,,,3,,,69,95
4224,note_on,,0,0,7,,,,,,,,,6,,,54,56
4236,note_on,,0,0,1,,,,,,,,,0,,,73,95
4236,note_on,,12,0,1,,,,,,,,,0,,,69,0
4240,note_on,,16,0,5,,,,,,,,,4,,,69,0
4240,note_on,,16,0,4,,,,,,,,,3,,,69,0
4248,note_on,,0,0,1,,,,,,,,,0,,,68,95
4248,note_on,,0,0,1,,,,,,,,,0,,,64,95
4248,note_on,,12,0,1,,,,,,,,,0,,,73,0
4248,note_on,,24,0,6,,,,,,,,,5,,,61,0
4248,note_on,,0,0,1,,,,,,,,,0,,,66,0
4248,note_on,,8,0,4,,,,,,,,,3,,,68,95
4260,note_on,,0,0,1,,,,,,,,,0,,,73,95
4260,note_on,,12,0,1,,,,,,,,,0,,,68,0
4264,note_on,,16,0,4,,,,,,,,,3,,,68,0
4271,note_on,,95,0,3,,,,,,,,,2,,,73,0
4272,note_on,,48,0,7,,,,,,,,,6,,,54,0
4272,note_on,,12,0,1,,,,,,,,,0,,,73,0
4272,note_on,,0,0,1,,,,,,,,,0,,,62,95
4272,note_on,,0,0,1,,,,,,,,,0,,,64,0
4272,note_on,,48,0,2,,,,,,,,,1,,,54,0
4272,note_on,,0,0,1,,,,,,,,,0,,,66,95
4272,note_on,,8,0,4,,,,,,,,,3,,,71,95
4284,note_on,,12,0,1,,,,,,,,,0,,,66,0
4284,note_on,,0,0,1,,,,,,,,,0,,,71,95
4288,note_on,,16,0,4,,,,,,,,,3,,,71,0
4296,note_on,,24,0,2,,,,,,,,,1,,,42,95
4296,note_on,,12,0,1,,,,,,,,,0,,,71,0
4296,note_on,,0,0,1,,,,,,,,,0,,,61,95
4296,note_on,,0,0,1,,,,,,,,,0,,,64,95
4296,note_on,,0,0,1,,,,,,,,,0,,,62,0
4296,note_on,,8,0,4,,,,,,,,,3,,,70,95
4296,note_on,,24,0,7,,,,,,,,,6,,,42,56
4296,note_on,,48,0,6,,,,,,,,,5,,,70,56
4296,note_on,,56,0,5,,,,,,,,,4,,,78,56
4308,note_on,,12,0,1,,,,,,,,,0,,,64,0
4308,note_on,,0,0,1,,,,,,,,,0,,,70,95
4312,note_on,,16,0,5,,,,,,,,,4,,,78,0
4312,note_on,,16,0,4,,,,,,,,,3,,,70,0
4320,note_on,,8,0,5,,,,,,,,,4,,,74,56
4320,note_on,,8,0,4,,,,,,,,,3,,,74,95
4320,note_on,,0,0,1,,,,,,,,,0,,,71,95
4320,note_on,,0,0,1,,,,,,,,,0,,,59,95
4320,note_on,,0,0,1,,,,,,,,,0,,,62,95
4320,note_on,,0,0,1,,,,,,,,,0,,,66,95
4320,note_on,,0,0,1,,,,,,,,,0,,,61,0
4320,note_on,,12,0,1,,,,,,,,,0,,,70,0
4320,note_on,,0,0,2,,,,,,,,,1,,,47,95
4320,note_on,,24,0,6,,,,,,,,,5,,,70,0
4320,note_on,,0,0,6,,,,,,,,,5,,,66,56
4320,note_on,,49,0,3,,,,,,,,,2,,,73,79
4320,note_on,,0,0,7,,,,,,,,,6,,,47,56
4320,note_on,,24,0,7,,,,,,,,,6,,,42,0
4320,note_on,,24,0,2,,,,,,,,,1,,,42,0
4332,note_on,,0,0,2,,,,,,,,,1,,,54,95
4332,note_on,,12,0,2,,,,,,,,,1,,,47,0
4336,note_on,,16,0,3,,,,,,,,,2,,,73,0
4336,note_on,,16,0,5,,,,,,,,,4,,,74,0
4344,note_on,,24,0,6,,,,,,,,,5,,,66,0
4344,note_on,,8,0,3,,,,,,,,,2,,,66,79
4344,note_on,,12,0,2,,,,,,,,,1,,,54,0
4344,note_on,,0,0,2,,,,,,,,,1,,,52,95
4352,note_on,,32,0,4,,,,,,,,,3,,,74,0
4356,note_on,,12,0,2,,,,,,,,,1,,,52,0
4356,note_on,,0,0,2,,,,,,,,,1,,,54,95
4360,note_on,,16,0,3,,,,,,,,,2,,,66,0
4368,note_on,,0,0,1,,,,,,,,,0,,,66,0
4368,note_on,,12,0,2,,,,,,,,,1,,,54,0
4368,note_on,,0,0,2,,,,,,,,,1,,,50,95
4368,note_on,,48,0,7,,,,,,,,,6,,,47,0
4368,note_on,,48,0,1,,,,,,,,,0,,,71,0
4368,note_on,,8,0,3,,,,,,,,,2,,,71,79
4368,note_on,,0,0,1,,,,,,,,,0,,,59,0
4368,note_on,,0,0,1,,,,,,,,,0,,,62,0
4380,note_on,,12,0,2,,,,,,,,,1,,,50,0
4380,note_on,,0,0,2,,,,,,,,,1,,,54,95
4392,note_on,,0,0,2,,,,,,,,,1,,,47,95
4392,note_on,,24,0,7,,,,,,,,,6,,,47,56
4392,note_on,,48,0,6,,,,,,,,,5,,,71,56
4392,note_on,,56,0,5,,,,,,,,,4,,,78,56
4392,note_on,,40,0,4,,,,,,,,,3,,,75,95
4392,note_on,,12,0,2,,,,,,,,,1,,,54,0
4404,note_on,,12,0,2,,,,,,,,,1,,,47,0
4404,note_on,,0,0,2,,,,,,,,,1,,,50,95
4408,note_on,,16,0,4,,,,,,,,,3,,,75,0
4408,note_on,,16,0,5,,,,,,,,,4,,,78,0
4416,note_on,,8,0,4,,,,,,,,,3,,,77,95
4416,note_on,,12,0,2,,,,,,,,,1,,,50,0
4416,note_on,,24,0,6,,,,,,,,,5,,,71,0
4416,note_on,,0,0,2,,,,,,,,,1,,,44,95
4416,note_on,,8,0,5,,,,,,,,,4,,,71,56
4416,note_on,,0,0,6,,,,,,,,,5,,,74,56
4416,note_on,,24,0,7,,,,,,,,,6,,,47,0
4416,note_on,,0,0,7,,,,,,,,,6,,,44,56
4428,note_on,,60,0,1,,,,,,,,,0,,,68,95
4432,note_on,,16,0,4,,,,,,,,,3,,,77,0
4432,note_on,,16,0,5,,,,,,,,,4,,,71,0
4440,note_on,,12,0,1,,,,,,,,,0,,,68,0
4440,note_on,,24,0,6,,,,,,,,,5,,,74,0
4440,note_on,,8,0,4,,,,,,,,,3,,,75,95
4440,note_on,,0,0,1,,,,,,,,,0,,,69,95
4452,note_on,,12,0,1,,,,,,,,,0,,,69,0
4452,note_on,,0,0,1,,,,,,,,,0,,,73,95
4456,note_on,,16,0,4,,,,,,,,,3,,,75,0
4463,note_on,,95,0,3,,,,,,,,,2,,,71,0
4464,note_on,,12,0,1,,,,,,,,,0,,,73,0
4464,note_on,,0,0,1,,,,,,,,,0,,,71,95
4464,note_on,,48,0,2,,,,,,,,,1,,,44,0
4464,note_on,,48,0,7,,,,,,,,,6,,,44,0
4464,note_on,,8,0,4,,,,,,,,,3,,,78,95
4476,note_on,,0,0,1,,,,,,,,,0,,,69,95
4476,note_on,,12,0,1,,,,,,,,,0,,,71,0
4480,note_on,,16,0,4,,,,,,,,,3,,,78,0
4488,note_on,,12,0,1,,,,,,,,,0,,,69,0
4488,note_on,,0,0,1,,,,,,,,,0,,,68,95
4488,note_on,,8,0,4,,,,,,,,,3,,,77,95
4500,note_on,,0,0,1,,,,,,,,,0,,,66,95
4500,note_on,,12,0,1,,,,,,,,,0,,,68,0
4504,note_on,,16,0,4,,,,,,,,,3,,,77,0
4512,note_on,,8,0,4,,,,,,,,,3,,,80,95
4512,note_on,,12,0,1,,,,,,,,,0,,,66,0
4512,note_on,,0,0,1,,,,,,,,,0,,,65,95
4524,note_on,,61,0,3,,,,,,,,,2,,,74,79
4524,note_on,,12,0,1,,,,,,,,,0,,,65,0
4524,note_on,,0,0,1,,,,,,,,,0,,,71,95
4528,note_on,,16,0,4,,,,,,,,,3,,,80,0
4532,note_on,,8,0,3,,,,,,,,,2,,,74,0
4536,note_on,,104,0,5,,,,,,,,,4,,,68,56
4536,note_on,,72,0,2,,,,,,,,,1,,,49,95
4536,note_on,,72,0,7,,,,,,,,,6,,,49,56
4536,note_on,,0,0,1,,,,,,,,,0,,,69,95
4536,note_on,,4,0,3,,,,,,,,,2,,,73,79
4536,note_on,,12,0,1,,,,,,,,,0,,,71,0
4536,note_on,,96,0,6,,,,,,,,,5,,,61,56
4536,note_on,,8,0,4,,,,,,,,,3,,,65,95
4544,note_on,,8,0,3,,,,,,,,,2,,,73,0
4548,note_on,,4,0,3,,,,,,,,,2,,,71,79
4548,note_on,,12,0,1,,,,,,,,,0,,,69,0
4548,note_on,,0,0,1,,,,,,,,,0,,,68,95
4552,note_on,,16,0,5,,,,,,,,,4,,,68,0
4552,note_on,,16,0,4,,,,,,,,,3,,,65,0
4556,note_on,,8,0,3,,,,,,,,,2,,,71,0
4560,note_on,,0,0,1,,,,,,,,,0,,,66,95
4560,note_on,,24,0,6,,,,,,,,,5,,,61,0
4560,note_on,,0,0,6,,,,,,,,,5,,,61,56
4560,note_on,,0,0,7,,,,,,,,,6,,,54,56
4560,note_on,,24,0,7,,,,,,,,,6,,,49,0
4560,note_on,,8,0,4,,,,,,,,,3,,,69,95
4560,note_on,,0,0,2,,,,,,,,,1,,,54,95
4560,note_on,,24,0,2,,,,,,,,,1,,,49,0
4560,note_on,,4,0,3,,,,,,,,,2,,,69,79
4560,note_on,,8,0,5,,,,,,,,,4,,,69,56
4560,note_on,,12,0,1,,,,,,,,,0,,,68,0
4568,note_on,,8,0,3,,,,,,,,,2,,,69,0
4572,note_on,,4,0,3,,,,,,,,,2,,,67,79
4572,note_on,,0,0,1,,,,,,,,,0,,,64,95
4572,note_on,,12,0,1,,,,,,,,,0,,,66,0
4576,note_on,,16,0,5,,,,,,,,,4,,,69,0
4580,note_on,,8,0,3,,,,,,,,,2,,,67,0
4584,note_on,,24,0,2,,,,,,,,,1,,,54,0
4584,note_on,,0,0,7,,,,,,,,,6,,,45,56
4584,note_on,,0,0,2,,,,,,,,,1,,,45,95
4584,note_on,,4,0,3,,,,,,,,,2,,,66,79
4584,note_on,,0,0,6,,,,,,,,,5,,,57,56
4584,note_on,,0,0,1,,,,,,,,,0,,,62,95
4584,note_on,,12,0,1,,,,,,,,,0,,,64,0
4584,note_on,,24,0,6,,,,,,,,,5,,,61,0
4584,note_on,,24,0,7,,,,,,,,,6,,,54,0
4584,note_on,,8,0,5,,,,,,,,,4,,,67,56
4592,note_on,,8,0,3,,,,,,,,,2,,,66,0
4596,note_on,,0,0,1,,,,,,,,,0,,,61,95
4596,note_on,,12,0,1,,,,,,,,,0,,,62,0
4596,note_on,,4,0,3,,,,,,,,,2,,,64,79
4600,note_on,,16,0,5,,,,,,,,,4,,,67,0
4604,note_on,,8,0,3,,,,,,,,,2,,,64,0
4608,note_on,,0,0,6,,,,,,,,,5,,,57,56
4608,note_on,,24,0,6,,,,,,,,,5,,,57,0
4608,note_on,,12,0,1,,,,,,,,,0,,,61,0
4608,note_on,,0,0,2,,,,,,,,,1,,,50,95
4608,note_on,,24,0,2,,,,,,,,,1,,,45,0
4608,note_on,,8,0,5,,,,,,,,,4,,,66,56
4608,note_on,,4,0,3,,,,,,,,,2,,,66,79
4608,note_on,,0,0,7,,,,,,,,,6,,,50,56
4608,note_on,,24,0,7,,,,,,,,,6,,,45,0
4608,note_on,,0,0,1,,,,,,,,,0,,,62,95
4620,note_on,,12,0,1,,,,,,,,,0,,,62,0
4620,note_on,,0,0,1,,,,,,,,,0,,,74,95
4624,note_on,,16,0,3,,,,,,,,,2,,,66,0
4624,note_on,,16,0,5,,,,,,,,,4,,,66,0
4632,note_on,,24,0,6,,,,,,,,,5,,,57,0
4632,note_on,,8,0,3,,,,,,,,,2,,,64,79
4632,note_on,,0,0,1,,,,,,,,,0,,,72,95
4632,note_on,,12,0,1,,,,,,,,,0,,,74,0
4644,note_on,,0,0,1,,,,,,,,,0,,,74,95
4644,note_on,,12,0,1,,,,,,,,,0,,,72,0
4648,note_on,,16,0,3,,,,,,,,,2,,,64,0
4655,note_on,,95,0,4,,,,,,,,,3,,,69,0
4656,note_on,,48,0,7,,,,,,,,,6,,,50,0
4656,note_on,,48,0,2,,,,,,,,,1,,,50,0
4656,note_on,,8,0,3,,,,,,,,,2,,,67,79
4656,note_on,,12,0,1,,,,,,,,,0,,,74,0
4656,note_on,,0,0,1,,,,,,,,,0,,,71,95
4668,note_on,,12,0,1,,,,,,,,,0,,,71,0
4668,note_on,,0,0,1,,,,,,,,,0,,,74,95
4672,note_on,,16,0,3,,,,,,,,,2,,,67,0
4680,note_on,,56,0,5,,,,,,,,,4,,,74,56
4680,note_on,,24,0,2,,,,,,,,,1,,,50,95
4680,note_on,,0,0,1,,,,,,,,,0,,,78,95
4680,note_on,,0,0,1,,,,,,,,,0,,,69,95
4680,note_on,,12,0,1,,,,,,,,,0,,,74,0
4680,note_on,,8,0,3,,,,,,,,,2,,,66,79
4680,note_on,,48,0,6,,,,,,,,,5,,,66,56
4680,note_on,,24,0,7,,,,,,,,,6,,,50,56
4692,note_on,,12,0,1,,,,,,,,,0,,,69,0
4692,note_on,,0,0,1,,,,,,,,,0,,,72,95
4696,note_on,,16,0,3,,,,,,,,,2,,,66,0
4696,note_on,,16,0,5,,,,,,,,,4,,,74,0
4704,note_on,,0,0,1,,,,,,,,,0,,,67,95
4704,note_on,,0,0,1,,,,,,,,,0,,,78,0
4704,note_on,,12,0,1,,,,,,,,,0,,,72,0
4704,note_on,,24,0,6,,,,,,,,,5,,,66,0
4704,note_on,,0,0,1,,,,,,,,,0,,,79,95
4704,note_on,,0,0,6,,,,,,,,,5,,,62,56
4704,note_on,,0,0,2,,,,,,,,,1,,,55,95
4704,note_on,,0,0,7,,,,,,,,,6,,,55,56
4704,note_on,,24,0,2,,,,,,,,,1,,,50,0
4704,note_on,,0,0,1,,,,,,,,,0,,,74,95
4704,note_on,,8,0,5,,,,,,,,,4,,,71,56
4704,note_on,,8,0,3,,,,,,,,,2,,,71,79
4704,note_on,,24,0,7,,,,,,,,,6,,,50,0
4704,note_on,,0,0,1,,,,,,,,,0,,,71,95
4716,note_on,,0,0,2,,,,,,,,,1,,,62,95
4716,note_on,,12,0,2,,,,,,,,,1,,,55,0
4720,note_on,,16,0,5,,,,,,,,,4,,,71,0
4728,note_on,,24,0,6,,,,,,,,,5,,,62,0
4728,note_on,,12,0,2,,,,,,,,,1,,,62,0
4728,note_on,,0,0,2,,,,,,,,,1,,,60,95
4728,note_on,,73,0,4,,,,,,,,,3,,,62,95
4736,note_on,,32,0,3,,,,,,,,,2,,,71,0
4740,note_on,,12,0,2,,,,,,,,,1,,,60,0
4740,note_on,,0,0,2,,,,,,,,,1,,,62,95
4744,note_on,,16,0,4,,,,,,,,,3,,,62,0
4752,note_on,,0,0,1,,,,,,,,,0,,,67,0
4752,note_on,,0,0,2,,,,,,,,,1,,,59,95
4752,note_on,,12,0,2,,,,,,,,,1,,,62,0
4752,note_on,,48,0,7,,,,,,,,,6,,,55,0
4752,note_on,,8,0,4,,,,,,,,,3,,,67,95
4752,note_on,,0,0,1,,,,,,,,,0,,,71,0
4752,note_on,,48,0,1,,,,,,,,,0,,,79,0
4752,note_on,,0,0,1,,,,,,,,,0,,,74,0
4764,note_on,,12,0,2,,,,,,,,,1,,,59,0
4764,note_on,,0,0,2,,,,,,,,,1,,,62,95
4776,note_on,,48,0,6,,,,,,,,,5,,,71,56
4776,note_on,,56,0,5,,,,,,,,,4,,,74,56
4776,note_on,,12,0,2,,,,,,,,,1,,,62,0
4776,note_on,,40,0,3,,,,,,,,,2,,,71,79
4776,note_on,,0,0,2,,,,,,,,,1,,,55,95
4776,note_on,,24,0,7,,,,,,,,,6,,,55,56
4788,note_on,,12,0,2,,,,,,,,,1,,,55,0
4788,note_on,,0,0,2,,,,,,,,,1,,,59,95
4792,note_on,,16,0,5,,,,,,,,,4,,,74,0
4792,note_on,,16,0,3,,,,,,,,,2,,,71,0
4800,note_on,,0,0,2,,,,,,,,,1,,,52,95
4800,note_on,,24,0,6,,,,,,,,,5,,,71,0
4800,note_on,,0,0,6,,,,,,,,,5,,,67,56
4800,note_on,,0,0,7,,,,,,,,,6,,,52,56
4800,note_on,,8,0,3,,,,,,,,,2,,,73,79
4800,note_on,,8,0,5,,,,,,,,,4,,,73,56
4800,note_on,,24,0,7,,,,,,,,,6,,,55,0
4800,note_on,,12,0,2,,,,,,,,,1,,,59,0
4812,note_on,,60,0,1,,,,,,,,,0,,,79,95
4816,note_on,,16,0,3,,,,,,,,,2,,,73,0
4816,note_on,,16,0,5,,,,,,,,,4,,,73,0
4824,note_on,,12,0,1,,,,,,,,,0,,,79,0
4824,note_on,,0,0,1,,,,,,,,,0,,,83,95
4824,note_on,,24,0,6,,,,,,,,,5,,,67,0
4824,note_on,,8,0,3,,,,,,,,,2,,,71,79
4836,note_on,,12,0,1,,,,,,,,,0,,,83,0
4836,note_on,,0,0,1,,,,,,,,,0,,,81,95
4840,note_on,,16,0,3,,,,,,,,,2,,,71,0
4847,note_on,,95,0,4,,,,,,,,,3,,,67,0
4848,note_on,,48,0,2,,,,,,,,,1,,,52,0
4848,note_on,,48,0,7,,,,,,,,,6,,,52,0
4848,note_on,,8,0,3,,,,,,,,,2,,,74,79
4848,note_on,,12,0,1,,,,,,,,,0,,,81,0
4848,note_on,,0,0,1,,,,,,,,,0,,,79,95
4860,note_on,,12,0,1,,,,,,,,,0,,,79,0
4860,note_on,,0,0,1,,,,,,,,,0,,,78,95
4864,note_on,,16,0,3,,,,,,,,,2,,,74,0
4872,note_on,,12,0,1,,,,,,,,,0,,,78,0
4872,note_on,,0,0,1,,,,,,,,,0,,,76,95
4872,note_on,,8,0,3,,,,,,,,,2,,,73,79
4884,note_on,,12,0,1,,,,,,,,,0,,,76,0
4884,note_on,,0,0,1,,,,,,,,,0,,,74,95
4888,note_on,,16,0,3,,,,,,,,,2,,,73,0
4896,note_on,,8,0,3,,,,,,,,,2,,,76,79
4896,note_on,,0,0,1,,,,,,,,,0,,,73,95
4896,note_on,,12,0,1,,,,,,,,,0,,,74,0
4908,note_on,,0,0,1,,,,,,,,,0,,,74,95
4908,note_on,,61,0,4,,,,,,,,,3,,,71,95
4908,note_on,,12,0,1,,,,,,,,,0,,,73,0
4916,note_on,,8,0,4,,,,,,,,,3,,,71,0
4920,note_on,,12,0,1,,,,,,,,,0,,,74,0
4920,note_on,,0,0,1,,,,,,,,,0,,,73,95
4920,note_on,,4,0,4,,,,,,,,,3,,,69,95
4920,note_on,,96,0,6,,,,,,,,,5,,,61,56
4920,note_on,,72,0,7,,,,,,,,,6,,,52,56
4920,note_on,,104,0,5,,,,,,,,,4,,,76,56
4920,note_on,,72,0,2,,,,,,,,,1,,,52,95
4928,note_on,,32,0,3,,,,,,,,,2,,,76,0
4928,note_on,,8,0,4,,,,,,,,,3,,,69,0
4932,note_on,,0,0,1,,,,,,,,,0,,,71,95
4932,note_on,,12,0,1,,,,,,,,,0,,,73,0
4932,note_on,,4,0,4,,,,,,,,,3,,,67,95
4936,note_on,,16,0,5,,,,,,,,,4,,,76,0
4940,note_on,,8,0,4,,,,,,,,,3,,,67,0
4944,note_on,,8,0,5,,,,,,,,,4,,,78,56
4944,note_on,,4,0,4,,,,,,,,,3,,,66,95
4944,note_on,,0,0,1,,,,,,,,,0,,,69,95
4944,note_on,,0,0,6,,,,,,,,,5,,,62,56
4944,note_on,,24,0,6,,,,,,,,,5,,,61,0
4944,note_on,,12,0,1,,,,,,,,,0,,,71,0
4944,note_on,,0,0,2,,,,,,,,,1,,,57,95
4944,note_on,,24,0,2,,,,,,,,,1,,,52,0
4944,note_on,,0,0,7,,,,,,,,,6,,,57,56
4944,note_on,,24,0,7,,,,,,,,,6,,,52,0
4952,note_on,,8,0,4,,,,,,,,,3,,,66,0
4956,note_on,,12,0,1,,,,,,,,,0,,,69,0
4956,note_on,,0,0,1,,,,,,,,,0,,,67,95
4956,note_on,,4,0,4,,,,,,,,,3,,,64,95
4960,note_on,,16,0,5,,,,,,,,,4,,,78,0
4964,note_on,,8,0,4,,,,,,,,,3,,,64,0
4968,note_on,,8,0,5,,,,,,,,,4,,,79,56
4968,note_on,,4,0,4,,,,,,,,,3,,,62,95
4968,note_on,,0,0,6,,,,,,,,,5,,,64,56
4968,note_on,,0,0,1,,,,,,,,,0,,,66,95
4968,note_on,,0,0,2,,,,,,,,,1,,,45,95
4968,note_on,,24,0,2,,,,,,,,,1,,,57,0
4968,note_on,,12,0,1,,,,,,,,,0,,,67,0
4968,note_on,,24,0,7,,,,,,,,,6,,,57,0
4968,note_on,,0,0,7,,,,,,,,,6,,,45,56
4968,note_on,,40,0,3,,,,,,,,,2,,,76,79
4968,note_on,,24,0,6,,,,,,,,,5,,,62,0
4976,note_on,,8,0,4,,,,,,,,,3,,,62,0
4980,note_on,,0,0,1,,,,,,,,,0,,,64,95
4980,note_on,,4,0,4,,,,,,,,,3,,,61,95
4980,note_on,,12,0,1,,,,,,,,,0,,,66,0
4984,note_on,,16,0,3,,,,,,,,,2,,,76,0
4984,note_on,,16,0,5,,,,,,,,,4,,,79,0
4988,note_on,,8,0,4,,,,,,,,,3,,,61,0
4992,note_on,,8,0,5,,,,,,,,,4,,,78,56
4992,note_on,,12,0,1,,,,,,,,,0,,,64,0
4992,note_on,,0,0,7,,,,,,,,,6,,,50,56
4992,note_on,,0,0,2,,,,,,,,,1,,,38,95
4992,note_on,,24,0,2,,,,,,,,,1,,,45,0
4992,note_on,,8,0,3,,,,,,,,,2,,,78,79
4992,note_on,,24,0,7,,,,,,,,,6,,,45,0
4992,note_on,,0,0,6,,,,,,,,,5,,,57,56
4992,note_on,,24,0,6,,,,,,,,,5,,,64,0
4992,note_on,,4,0,4,,,,,,,,,3,,,62,95
4992,note_on,,0,0,1,,,,,,,,,0,,,62,95
5004,note_on,,12,0,2,,,,,,,,,1,,,38,0
5004,note_on,,0,0,2,,,,,,,,,1,,,50,95
5008,note_on,,16,0,3,,,,,,,,,2,,,78,0
5008,note_on,,16,0,5,,,,,,,,,4,,,78,0
5016,note_on,,8,0,3,,,,,,,,,2,,,76,79
5016,note_on,,12,0,2,,,,,,,,,1,,,50,0
5016,note_on,,0,0,2,,,,,,,,,1,,,48,95
5016,note_on,,24,0,1,,,,,,,,,0,,,62,0
5016,note_on,,24,0,7,,,,,,,,,6,,,50,0
5016,note_on,,24,0,6,,,,,,,,,5,,,57,0
5028,note_on,,0,0,2,,,,,,,,,1,,,50,95
5028,note_on,,12,0,2,,,,,,,,,1,,,48,0
5032,note_on,,16,0,3,,,,,,,,,2,,,76,0
5040,note_on,,24,0,1,,,,,,,,,0,,,64,95
5040,note_on,,12,0,2,,,,,,,,,1,,,50,0
5040,note_on,,0,0,2,,,,,,,,,1,,,47,95
5040,note_on,,8,0,3,,,,,,,,,2,,,79,79
5048,note_on,,8,0,1,,,,,,,,,0,,,64,0
5048,note_on,,0,0,1,,,,,,,,,0,,,62,95
5052,note_on,,0,0,2,,,,,,,,,1,,,50,95
5052,note_on,,12,0,2,,,,,,,,,1,,,47,0
5056,note_on,,16,0,3,,,,,,,,,2,,,79,0
5056,note_on,,8,0,1,,,,,,,,,0,,,62,0
5056,note_on,,0,0,1,,,,,,,,,0,,,64,95
5064,note_on,,8,0,3,,,,,,,,,2,,,78,79
5064,note_on,,8,0,1,,,,,,,,,0,,,64,0
5064,note_on,,0,0,1,,,,,,,,,0,,,66,95
5064,note_on,,12,0,2,,,,,,,,,1,,,50,0
5064,note_on,,0,0,2,,,,,,,,,1,,,45,95
5072,note_on,,0,0,1,,,,,,,,,0,,,64,95
5072,note_on,,8,0,1,,,,,,,,,0,,,66,0
5076,note_on,,12,0,2,,,,,,,,,1,,,45,0
5076,note_on,,0,0,2,,,,,,,,,1,,,50,95
5080,note_on,,16,0,3,,,,,,,,,2,,,78,0
5080,note_on,,0,0,1,,,,,,,,,0,,,66,95
5080,note_on,,8,0,1,,,,,,,,,0,,,64,0
5088,note_on,,12,0,2,,,,,,,,,1,,,50,0
5088,note_on,,0,0,2,,,,,,,,,1,,,43,95
5088,note_on,,8,0,1,,,,,,,,,0,,,66,0
5088,note_on,,0,0,1,,,,,,,,,0,,,67,95
5088,note_on,,8,0,3,,,,,,,,,2,,,83,79
5096,note_on,,8,0,1,,,,,,,,,0,,,67,0
5096,note_on,,0,0,1,,,,,,,,,0,,,66,95
5100,note_on,,12,0,2,,,,,,,,,1,,,43,0
5100,note_on,,0,0,2,,,,,,,,,1,,,50,95
5104,note_on,,0,0,1,,,,,,,,,0,,,67,95
5104,note_on,,8,0,1,,,,,,,,,0,,,66,0
5104,note_on,,16,0,3,,,,,,,,,2,,,83,0
5112,note_on,,0,0,1,,,,,,,,,0,,,69,95
5112,note_on,,8,0,1,,,,,,,,,0,,,67,0
5112,note_on,,8,0,3,,,,,,,,,2,,,81,79
5112,note_on,,0,0,2,,,,,,,,,1,,,42,95
5112,note_on,,12,0,2,,,,,,,,,1,,,50,0
5119,note_on,,127,0,4,,,,,,,,,3,,,62,0
5120,note_on,,0,0,1,,,,,,,,,0,,,71,95
5120,note_on,,8,0,1,,,,,,,,,0,,,69,0
5124,note_on,,12,0,2,,,,,,,,,1,,,42,0
5124,note_on,,0,0,2,,,,,,,,,1,,,50,95
5128,note_on,,8,0,1,,,,,,,,,0,,,71,0
5128,note_on,,16,0,3,,,,,,,,,2,,,81,0
5128,note_on,,0,0,1,,,,,,,,,0,,,69,95
5136,note_on,,0,0,1,,,,,,,,,0,,,67,95
5136,note_on,,8,0,3,,,,,,,,,2,,,73,79
5136,note_on,,0,0,2,,,,,,,,,1,,,40,95
5136,note_on,,8,0,1,,,,,,,,,0,,,69,0
5136,note_on,,12,0,2,,,,,,,,,1,,,50,0
5144,note_on,,8,0,1,,,,,,,,,0,,,67,0
5144,note_on,,0,0,1,,,,,,,,,0,,,69,95
5148,note_on,,12,0,2,,,,,,,,,1,,,40,0
5148,note_on,,0,0,2,,,,,,,,,1,,,50,95
5152,note_on,,16,0,3,,,,,,,,,2,,,73,0
5152,note_on,,0,0,1,,,,,,,,,0,,,67,95
5152,note_on,,8,0,1,,,,,,,,,0,,,69,0
5160,note_on,,12,0,2,,,,,,,,,1,,,50,0
5160,note_on,,0,0,2,,,,,,,,,1,,,38,95
5160,note_on,,8,0,1,,,,,,,,,0,,,67,0
5160,note_on,,0,0,1,,,,,,,,,0,,,66,95
5160,note_on,,8,0,3,,,,,,,,,2,,,74,79
5168,note_on,,8,0,1,,,,,,,,,0,,,66,0
5168,note_on,,0,0,1,,,,,,,,,0,,,67,95
5172,note_on,,0,0,2,,,,,,,,,1,,,50,95
5172,note_on,,12,0,2,,,,,,,,,1,,,38,0
5176,note_on,,0,0,1,,,,,,,,,0,,,66,95
5176,note_on,,8,0,1,,,,,,,,,0,,,67,0
5176,note_on,,16,0,3,,,,,,,,,2,,,74,0
5184,note_on,,8,0,1,,,,,,,,,0,,,66,0
5184,note_on,,8,0,3,,,,,,,,,2,,,68,79
5184,note_on,,12,0,2,,,,,,,,,1,,,50,0
5184,note_on,,0,0,2,,,,,,,,,1,,,47,95
5184,note_on,,0,0,1,,,,,,,,,0,,,74,95
5184,note_on,,65,0,4,,,,,,,,,3,,,62,95
5196,note_on,,0,0,1,,,,,,,,,0,,,71,95
5196,note_on,,12,0,1,,,,,,,,,0,,,74,0
5200,note_on,,16,0,3,,,,,,,,,2,,,68,0
5200,note_on,,16,0,4,,,,,,,,,3,,,62,0
5208,note_on,,12,0,1,,,,,,,,,0,,,71,0
5208,note_on,,0,0,1,,,,,,,,,0,,,69,95
5208,note_on,,8,0,3,,,,,,,,,2,,,69,79
5208,note_on,,8,0,4,,,,,,,,,3,,,61,95
5220,note_on,,12,0,1,,,,,,,,,0,,,69,0
5220,note_on,,0,0,1,,,,,,,,,0,,,71,95
5224,note_on,,16,0,3,,,,,,,,,2,,,69,0
5224,note_on,,16,0,4,,,,,,,,,3,,,61,0
5232,note_on,,8,0,3,,,,,,,,,2,,,71,79
5232,note_on,,8,0,4,,,,,,,,,3,,,59,95
5232,note_on,,0,0,1,,,,,,,,,0,,,68,95
5232,note_on,,12,0,1,,,,,,,,,0,,,71,0
5232,note_on,,48,0,2,,,,,,,,,1,,,47,0
5244,note_on,,12,0,1,,,,,,,,,0,,,68,0
5244,note_on,,0,0,1,,,,,,,,,0,,,71,95
5248,note_on,,16,0,4,,,,,,,,,3,,,59,0
5248,note_on,,16,0,3,,,,,,,,,2,,,71,0
5256,note_on,,8,0,4,,,,,,,,,3,,,57,95
5256,note_on,,0,0,1,,,,,,,,,0,,,66,95
5256,note_on,,12,0,1,,,,,,,,,0,,,71,0
5256,note_on,,8,0,3,,,,,,,,,2,,,73,79
5268,note_on,,0,0,1,,,,,,,,,0,,,71,95
5268,note_on,,12,0,1,,,,,,,,,0,,,66,0
5272,note_on,,16,0,4,,,,,,,,,3,,,57,0
5272,note_on,,16,0,3,,,,,,,,,2,,,73,0
5280,note_on,,8,0,4,,,,,,,,,3,,,56,95
5280,note_on,,8,0,3,,,,,,,,,2,,,74,79
5280,note_on,,12,0,1,,,,,,,,,0,,,71,0
5280,note_on,,0,0,1,,,,,,,,,0,,,64,95
5288,note_on,,8,0,3,,,,,,,,,2,,,74,0
5292,note_on,,4,0,3,,,,,,,,,2,,,73,79
5292,note_on,,12,0,1,,,,,,,,,0,,,64,0
5292,note_on,,0,0,1,,,,,,,,,0,,,71,95
5300,note_on,,8,0,3,,,,,,,,,2,,,73,0
5304,note_on,,4,0,3,,,,,,,,,2,,,74,79
5304,note_on,,72,0,2,,,,,,,,,1,,,47,95
5304,note_on,,0,0,1,,,,,,,,,0,,,62,95
5304,note_on,,12,0,1,,,,,,,,,0,,,71,0
5312,note_on,,8,0,3,,,,,,,,,2,,,74,0
5312,note_on,,32,0,4,,,,,,,,,3,,,56,0
5316,note_on,,12,0,1,,,,,,,,,0,,,62,0
5316,note_on,,0,0,1,,,,,,,,,0,,,71,95
5316,note_on,,4,0,3,,,,,,,,,2,,,76,79
5324,note_on,,8,0,3,,,,,,,,,2,,,76,0
5328,note_on,,24,0,2,,,,,,,,,1,,,47,0
5328,note_on,,4,0,3,,,,,,,,,2,,,74,79
5328,note_on,,0,0,1,,,,,,,,,0,,,61,95
5328,note_on,,0,0,2,,,,,,,,,1,,,52,95
5328,note_on,,12,0,1,,,,,,,,,0,,,71,0
5336,note_on,,8,0,3,,,,,,,,,2,,,74,0
5340,note_on,,0,0,1,,,,,,,,,0,,,69,95
5340,note_on,,12,0,1,,,,,,,,,0,,,61,0
5340,note_on,,4,0,3,,,,,,,,,2,,,78,79
5348,note_on,,8,0,3,,,,,,,,,2,,,78,0
5352,note_on,,40,0,4,,,,,,,,,3,,,71,95
5352,note_on,,1560,0,8,,,,,,,,,7,,,40,95
5352,note_on,,0,0,2,,,,,,,,,1,,,40,95
5352,note_on,,336,0,7,,,,,,,,,6,,,52,95
5352,note_on,,336,0,6,,,,,,,,,5,,,68,95
5352,note_on,,4,0,3,,,,,,,,,2,,,76,79
5352,note_on,,24,0,2,,,,,,,,,1,,,52,0
5352,note_on,,12,0,1,,,,,,,,,0,,,69,0
5352,note_on,,344,0,5,,,,,,,,,4,,,71,95
5352,note_on,,0,0,1,,,,,,,,,0,,,59,95
5360,note_on,,8,0,3,,,,,,,,,2,,,76,0
5364,note_on,,0,0,1,,,,,,,,,0,,,68,95
5364,note_on,,4,0,3,,,,,,,,,2,,,74,79
5364,note_on,,12,0,1,,,,,,,,,0,,,59,0
5368,note_on,,16,0,5,,,,,,,,,4,,,71,0
5368,note_on,,16,0,4,,,,,,,,,3,,,71,0
5372,note_on,,8,0,3,,,,,,,,,2,,,74,0
5376,note_on,,12,0,1,,,,,,,,,0,,,68,0
5376,note_on,,0,0,1,,,,,,,,,0,,,61,47
5376,note_on,,0,0,1,,,,,,,,,0,,,64,47
5376,note_on,,8,0,4,,,,,,,,,3,,,73,95
5376,note_on,,24,0,7,,,,,,,,,6,,,52,0
5376,note_on,,0,0,1,,,,,,,,,0,,,69,47
5376,note_on,,0,0,7,,,,,,,,,6,,,57,95
5376,note_on,,4,0,3,,,,,,,,,2,,,73,79
5376,note_on,,24,0,6,,,,,,,,,5,,,68,0
5376,note_on,,0,0,6,,,,,,,,,5,,,69,95
5376,note_on,,0,0,2,,,,,,,,,1,,,57,47
5376,note_on,,24,0,8,,,,,,,,,7,,,40,0
5376,note_on,,24,0,2,,,,,,,,,1,,,40,0
5376,note_on,,8,0,5,,,,,,,,,4,,,73,95
5376,note_on,,0,0,8,,,,,,,,,7,,,45,95
5388,note_on,,12,0,5,,,,,,,,,4,,,73,0
5388,note_on,,0,0,4,,,,,,,,,3,,,73,95
5388,note_on,,12,0,4,,,,,,,,,3,,,73,0
5388,note_on,,0,0,5,,,,,,,,,4,,,73,95
5392,note_on,,16,0,7,,,,,,,,,6,,,57,0
5392,note_on,,16,0,3,,,,,,,,,2,,,73,0
5392,note_on,,16,0,8,,,,,,,,,7,,,45,0
5392,note_on,,16,0,6,,,,,,,,,5,,,69,0
5400,note_on,,8,0,8,,,,,,,,,7,,,44,95
5400,note_on,,8,0,6,,,,,,,,,5,,,64,95
5400,note_on,,0,0,5,,,,,,,,,4,,,71,95
5400,note_on,,24,0,1,,,,,,,,,0,,,69,0
5400,note_on,,0,0,1,,,,,,,,,0,,,64,0
5400,note_on,,0,0,1,,,,,,,,,0,,,61,0
5400,note_on,,12,0,4,,,,,,,,,3,,,73,0
5400,note_on,,8,0,7,,,,,,,,,6,,,56,95
5400,note_on,,24,0,2,,,,,,,,,1,,,57,0
5400,note_on,,0,0,2,,,,,,,,,1,,,56,47
5400,note_on,,12,0,5,,,,,,,,,4,,,73,0
5400,note_on,,0,0,4,,,,,,,,,3,,,71,95
5412,note_on,,12,0,4,,,,,,,,,3,,,71,0
5412,note_on,,0,0,4,,,,,,,,,3,,,71,95
5412,note_on,,12,0,5,,,,,,,,,4,,,71,0
5412,note_on,,0,0,5,,,,,,,,,4,,,71,95
5416,note_on,,16,0,6,,,,,,,,,5,,,64,0
5416,note_on,,16,0,7,,,,,,,,,6,,,56,0
5416,note_on,,16,0,8,,,,,,,,,7,,,44,0
5424,note_on,,8,0,6,,,,,,,,,5,,,69,95
5424,note_on,,0,0,2,,,,,,,,,1,,,54,47
5424,note_on,,12,0,4,,,,,,,,,3,,,71,0
5424,note_on,,0,0,4,,,,,,,,,3,,,74,95
5424,note_on,,0,0,5,,,,,,,,,4,,,74,95
5424,note_on,,12,0,5,,,,,,,,,4,,,71,0
5424,note_on,,8,0,8,,,,,,,,,7,,,42,95
5424,note_on,,24,0,2,,,,,,,,,1,,,56,0
5424,note_on,,8,0,7,,,,,,,,,6,,,54,95
5436,note_on,,0,0,5,,,,,,,,,4,,,74,95
5436,note_on,,12,0,5,,,,,,,,,4,,,74,0
5436,note_on,,12,0,4,,,,,,,,,3,,,74,0
5436,note_on,,0,0,4,,,,,,,,,3,,,74,95
5440,note_on,,16,0,8,,,,,,,,,7,,,42,0
5440,note_on,,16,0,6,,,,,,,,,5,,,69,0
5440,note_on,,16,0,7,,,,,,,,,6,,,54,0
5448,note_on,,8,0,8,,,,,,,,,7,,,40,95
5448,note_on,,0,0,4,,,,,,,,,3,,,73,95
5448,note_on,,12,0,4,,,,,,,,,3,,,74,0
5448,note_on,,8,0,6,,,,,,,,,5,,,68,95
5448,note_on,,24,0,2,,,,,,,,,1,,,54,0
5448,note_on,,0,0,2,,,,,,,,,1,,,52,47
5448,note_on,,12,0,5,,,,,,,,,4,,,74,0
5448,note_on,,8,0,7,,,,,,,,,6,,,52,95
5448,note_on,,0,0,5,,,,,,,,,4,,,73,95
5460,note_on,,12,0,5,,,,,,,,,4,,,73,0
5460,note_on,,12,0,4,,,,,,,,,3,,,73,0
5460,note_on,,0,0,5,,,,,,,,,4,,,73,95
5460,note_on,,0,0,4,,,,,,,,,3,,,73,95
5464,note_on,,16,0,8,,,,,,,,,7,,,40,0
5464,note_on,,16,0,7,,,,,,,,,6,,,52,0
5464,note_on,,16,0,6,,,,,,,,,5,,,68,0
5472,note_on,,8,0,8,,,,,,,,,7,,,38,95
5472,note_on,,24,0,2,,,,,,,,,1,,,52,0
5472,note_on,,12,0,4,,,,,,,,,3,,,73,0
5472,note_on,,0,0,4,,,,,,,,,3,,,78,95
5472,note_on,,0,0,2,,,,,,,,,1,,,50,47
5472,note_on,,12,0,5,,,,,,,,,4,,,73,0
5472,note_on,,0,0,5,,,,,,,,,4,,,78,95
5472,note_on,,8,0,7,,,,,,,,,6,,,50,95
5472,note_on,,8,0,6,,,,,,,,,5,,,69,95
5484,note_on,,12,0,5,,,,,,,,,4,,,78,0
5484,note_on,,12,0,4,,,,,,,,,3,,,78,0
5484,note_on,,0,0,4,,,,,,,,,3,,,78,95
5484,note_on,,0,0,5,,,,,,,,,4,,,78,95
5488,note_on,,16,0,6,,,,,,,,,5,,,69,0
5488,note_on,,16,0,7,,,,,,,,,6,,,50,0
5488,note_on,,16,0,8,,,,,,,,,7,,,38,0
5496,note_on,,0,0,2,,,,,,,,,1,,,49,47
5496,note_on,,0,0,5,,,,,,,,,4,,,76,95
5496,note_on,,12,0,5,,,,,,,,,4,,,78,0
5496,note_on,,12,0,4,,,,,,,,,3,,,78,0
5496,note_on,,24,0,2,,,,,,,,,1,,,50,0
5496,note_on,,0,0,4,,,,,,,,,3,,,76,95
5496,note_on,,8,0,7,,,,,,,,,6,,,49,95
5496,note_on,,8,0,6,,,,,,,,,5,,,57,95
5496,note_on,,8,0,8,,,,,,,,,7,,,37,95
5508,note_on,,0,0,5,,,,,,,,,4,,,76,95
5508,note_on,,0,0,4,,,,,,,,,3,,,76,95
5508,note_on,,12,0,4,,,,,,,,,3,,,76,0
5508,note_on,,12,0,5,,,,,,,,,4,,,76,0
5512,note_on,,16,0,6,,,,,,,,,5,,,57,0
5512,note_on,,16,0,8,,,,,,,,,7,,,37,0
5512,note_on,,16,0,7,,,,,,,,,6,,,49,0
5520,note_on,,12,0,5,,,,,,,,,4,,,76,0
5520,note_on,,0,0,5,,,,,,,,,4,,,68,95
5520,note_on,,12,0,4,,,,,,,,,3,,,76,0
5520,note_on,,24,0,2,,,,,,,,,1,,,49,0
5520,note_on,,0,0,2,,,,,,,,,1,,,47,47
5520,note_on,,8,0,8,,,,,,,,,7,,,35,95
5520,note_on,,8,0,7,,,,,,,,,6,,,47,95
5520,note_on,,8,0,6,,,,,,,,,5,,,62,95
5520,note_on,,0,0,4,,,,,,,,,3,,,68,95
5532,note_on,,0,0,4,,,,,,,,,3,,,68,95
5532,note_on,,0,0,5,,,,,,,,,4,,,68,95
5532,note_on,,12,0,5,,,,,,,,,4,,,68,0
5532,note_on,,12,0,4,,,,,,,,,3,,,68,0
5536,note_on,,16,0,7,,,,,,,,,6,,,47,0
5536,note_on,,16,0,6,,,,,,,,,5,,,62,0
5536,note_on,,16,0,8,,,,,,,,,7,,,35,0
5544,note_on,,0,0,2,,,,,,,,,1,,,45,47
5544,note_on,,8,0,7,,,,,,,,,6,,,45,95
5544,note_on,,8,0,6,,,,,,,,,5,,,61,95
5544,note_on,,24,0,2,,,,,,,,,1,,,47,0
5544,note_on,,0,0,5,,,,,,,,,4,,,69,95
5544,note_on,,8,0,8,,,,,,,,,7,,,33,95
5544,note_on,,12,0,5,,,,,,,,,4,,,68,0
5544,note_on,,12,0,4,,,,,,,,,3,,,68,0
5544,note_on,,0,0,4,,,,,,,,,3,,,69,95
5556,note_on,,12,0,5,,,,,,,,,4,,,69,0
5556,note_on,,0,0,5,,,,,,,,,4,,,69,95
5556,note_on,,12,0,4,,,,,,,,,3,,,69,0
5556,note_on,,0,0,4,,,,,,,,,3,,,69,95
5560,note_on,,16,0,8,,,,,,,,,7,,,33,0
5560,note_on,,16,0,7,,,,,,,,,6,,,45,0
5560,note_on,,16,0,6,,,,,,,,,5,,,61,0
5568,note_on,,8,0,7,,,,,,,,,6,,,44,95
5568,note_on,,8,0,8,,,,,,,,,7,,,32,95
5568,note_on,,0,0,4,,,,,,,,,3,,,62,95
5568,note_on,,12,0,4,,,,,,,,,3,,,69,0
5568,note_on,,24,0,2,,,,,,,,,1,,,45,0
5568,note_on,,0,0,2,,,,,,,,,1,,,44,47
5568,note_on,,0,0,5,,,,,,,,,4,,,62,95
5568,note_on,,12,0,5,,,,,,,,,4,,,69,0
5568,note_on,,8,0,6,,,,,,,,,5,,,59,95
5580,note_on,,0,0,4,,,,,,,,,3,,,62,95
5580,note_on,,12,0,5,,,,,,,,,4,,,62,0
5580,note_on,,0,0,5,,,,,,,,,4,,,62,95
5580,note_on,,12,0,4,,,,,,,,,3,,,62,0
5584,note_on,,16,0,7,,,,,,,,,6,,,44,0
5584,note_on,,16,0,6,,,,,,,,,5,,,59,0
5584,note_on,,16,0,8,,,,,,,,,7,,,32,0
5592,note_on,,0,0,2,,,,,,,,,1,,,45,47
5592,note_on,,8,0,8,,,,,,,,,7,,,33,95
5592,note_on,,12,0,4,,,,,,,,,3,,,62,0
5592,note_on,,0,0,4,,,,,,,,,3,,,61,95
5592,note_on,,8,0,6,,,,,,,,,5,,,57,95
5592,note_on,,24,0,2,,,,,,,,,1,,,44,0
5592,note_on,,0,0,5,,,,,,,,,4,,,61,95
5592,note_on,,12,0,5,,,,,,,,,4,,,62,0
5592,note_on,,8,0,7,,,,,,,,,6,,,45,95
5604,note_on,,12,0,4,,,,,,,,,3,,,61,0
5604,note_on,,0,0,5,,,,,,,,,4,,,61,95
5604,note_on,,12,0,5,,,,,,,,,4,,,61,0
5604,note_on,,0,0,4,,,,,,,,,3,,,61,95
5608,note_on,,16,0,8,,,,,,,,,7,,,33,0
5608,note_on,,16,0,7,,,,,,,,,6,,,45,0
5608,note_on,,16,0,6,,,,,,,,,5,,,57,0
5616,note_on,,8,0,8,,,,,,,,,7,,,38,95
5616,note_on,,8,0,6,,,,,,,,,5,,,57,95
5616,note_on,,24,0,2,,,,,,,,,1,,,45,0
5616,note_on,,12,0,4,,,,,,,,,3,,,61,0
5616,note_on,,0,0,4,,,,,,,,,3,,,66,95
5616,note_on,,8,0,7,,,,,,,,,6,,,50,95
5616,note_on,,0,0,5,,,,,,,,,4,,,66,95
5616,note_on,,12,0,5,,,,,,,,,4,,,61,0
5616,note_on,,0,0,2,,,,,,,,,1,,,50,47
5628,note_on,,0,0,5,,,,,,,,,4,,,66,95
5628,note_on,,12,0,4,,,,,,,,,3,,,66,0
5628,note_on,,12,0,5,,,,,,,,,4,,,66,0
5628,note_on,,0,0,4,,,,,,,,,3,,,66,95
5632,note_on,,16,0,8,,,,,,,,,7,,,38,0
5632,note_on,,16,0,7,,,,,,,,,6,,,50,0
5632,note_on,,16,0,6,,,,,,,,,5,,,57,0
5640,note_on,,12,0,5,,,,,,,,,4,,,66,0
5640,note_on,,12,0,4,,,,,,,,,3,,,66,0
5640,note_on,,0,0,5,,,,,,,,,4,,,64,95
5640,note_on,,0,0,2,,,,,,,,,1,,,49,47
5640,note_on,,24,0,2,,,,,,,,,1,,,50,0
5640,note_on,,0,0,4,,,,,,,,,3,,,64,95
5640,note_on,,8,0,7,,,,,,,,,6,,,49,95
5640,note_on,,8,0,8,,,,,,,,,7,,,37,95
5640,note_on,,8,0,6,,,,,,,,,5,,,57,95
5652,note_on,,12,0,5,,,,,,,,,4,,,64,0
5652,note_on,,0,0,5,,,,,,,,,4,,,64,95
5652,note_on,,12,0,4,,,,,,,,,3,,,64,0
5652,note_on,,0,0,4,,,,,,,,,3,,,64,95
5656,note_on,,16,0,6,,,,,,,,,5,,,57,0
5656,note_on,,16,0,7,,,,,,,,,6,,,49,0
5656,note_on,,16,0,8,,,,,,,,,7,,,37,0
5664,note_on,,12,0,4,,,,,,,,,3,,,64,0
5664,note_on,,0,0,4,,,,,,,,,3,,,56,95
5664,note_on,,24,0,2,,,,,,,,,1,,,49,0
5664,note_on,,0,0,2,,,,,,,,,1,,,47,47
5664,note_on,,8,0,6,,,,,,,,,5,,,62,95
5664,note_on,,8,0,7,,,,,,,,,6,,,47,95
5664,note_on,,8,0,8,,,,,,,,,7,,,35,95
5664,note_on,,12,0,5,,,,,,,,,4,,,64,0
5664,note_on,,0,0,5,,,,,,,,,4,,,56,95
5676,note_on,,12,0,5,,,,,,,,,4,,,56,0
5676,note_on,,0,0,5,,,,,,,,,4,,,56,95
5676,note_on,,12,0,4,,,,,,,,,3,,,56,0
5676,note_on,,0,0,4,,,,,,,,,3,,,56,95
5680,note_on,,16,0,7,,,,,,,,,6,,,47,0
5680,note_on,,16,0,6,,,,,,,,,5,,,62,0
5680,note_on,,16,0,8,,,,,,,,,7,,,35,0
5688,note_on,,12,0,4,,,,,,,,,3,,,56,0
5688,note_on,,8,0,7,,,,,,,,,6,,,45,95
5688,note_on,,0,0,5,,,,,,,,,4,,,57,95
5688,note_on,,12,0,5,,,,,,,,,4,,,56,0
5688,note_on,,0,0,4,,,,,,,,,3,,,57,95
5688,note_on,,8,0,6,,,,,,,,,5,,,61,95
5688,note_on,,24,0,2,,,,,,,,,1,,,47,0
5688,note_on,,0,0,2,,,,,,,,,1,,,45,47
5688,note_on,,8,0,8,,,,,,,,,7,,,33,95
5700,note_on,,0,0,5,,,,,,,,,4,,,57,95
5700,note_on,,12,0,5,,,,,,,,,4,,,57,0
5700,note_on,,12,0,4,,,,,,,,,3,,,57,0
5700,note_on,,0,0,4,,,,,,,,,3,,,57,95
5704,note_on,,16,0,8,,,,,,,,,7,,,33,0
5704,note_on,,16,0,6,,,,,,,,,5,,,61,0
5704,note_on,,16,0,7,,,,,,,,,6,,,45,0
5712,note_on,,8,0,8,,,,,,,,,7,,,32,95
5712,note_on,,0,0,5,,,,,,,,,4,,,62,95
5712,note_on,,24,0,2,,,,,,,,,1,,,45,0
5712,note_on,,8,0,6,,,,,,,,,5,,,59,95
5712,note_on,,12,0,5,,,,,,,,,4,,,57,0
5712,note_on,,12,0,4,,,,,,,,,3,,,57,0
5712,note_on,,0,0,4,,,,,,,,,3,,,62,95
5712,note_on,,8,0,7,,,,,,,,,6,,,44,95
5712,note_on,,0,0,2,,,,,,,,,1,,,44,47
5724,note_on,,12,0,5,,,,,,,,,4,,,62,0
5724,note_on,,0,0,5,,,,,,,,,4,,,62,95
5724,note_on,,0,0,4,,,,,,,,,3,,,62,95
5724,note_on,,12,0,4,,,,,,,,,3,,,62,0
5728,note_on,,16,0,8,,,,,,,,,7,,,32,0
5728,note_on,,16,0,7,,,,,,,,,6,,,44,0
5728,note_on,,16,0,6,,,,,,,,,5,,,59,0
5736,note_on,,12,0,5,,,,,,,,,4,,,62,0
5736,note_on,,24,0,2,,,,,,,,,1,,,44,0
5736,note_on,,0,0,2,,,,,,,,,1,,,56,47
5736,note_on,,8,0,7,,,,,,,,,6,,,56,95
5736,note_on,,8,0,6,,,,,,,,,5,,,64,95
5736,note_on,,0,0,5,,,,,,,,,4,,,71,95
5736,note_on,,8,0,8,,,,,,,,,7,,,44,95
5736,note_on,,12,0,4,,,,,,,,,3,,,62,0
5736,note_on,,0,0,4,,,,,,,,,3,,,71,95
5748,note_on,,0,0,4,,,,,,,,,3,,,71,95
5748,note_on,,12,0,5,,,,,,,,,4,,,71,0
5748,note_on,,12,0,4,,,,,,,,,3,,,71,0
5748,note_on,,0,0,5,,,,,,,,,4,,,71,95
5752,note_on,,16,0,6,,,,,,,,,5,,,64,0
5752,note_on,,16,0,7,,,,,,,,,6,,,56,0
5752,note_on,,16,0,8,,,,,,,,,7,,,44,0
5760,note_on,,0,0,5,,,,,,,,,4,,,61,95
5760,note_on,,8,0,7,,,,,,,,,6,,,57,95
5760,note_on,,8,0,8,,,,,,,,,7,,,45,95
5760,note_on,,12,0,4,,,,,,,,,3,,,71,0
5760,note_on,,0,0,4,,,,,,,,,3,,,61,95
5760,note_on,,24,0,2,,,,,,,,,1,,,56,0
5760,note_on,,12,0,5,,,,,,,,,4,,,71,0
5760,note_on,,0,0,2,,,,,,,,,1,,,57,47
5760,note_on,,8,0,6,,,,,,,,,5,,,64,95
5772,note_on,,0,0,4,,,,,,,,,3,,,61,95
5772,note_on,,12,0,5,,,,,,,,,4,,,61,0
5772,note_on,,0,0,5,,,,,,,,,4,,,61,95
5772,note_on,,12,0,4,,,,,,,,,3,,,61,0
5776,note_on,,16,0,7,,,,,,,,,6,,,57,0
5776,note_on,,16,0,6,,,,,,,,,5,,,64,0
5776,note_on,,16,0,8,,,,,,,,,7,,,45,0
5784,note_on,,8,0,7,,,,,,,,,6,,,54,95
5784,note_on,,8,0,8,,,,,,,,,7,,,42,95
5784,note_on,,0,0,5,,,,,,,,,4,,,69,95
5784,note_on,,12,0,4,,,,,,,,,3,,,61,0
5784,note_on,,8,0,6,,,,,,,,,5,,,66,95
5784,note_on,,24,0,2,,,,,,,,,1,,,57,0
5784,note_on,,0,0,2,,,,,,,,,1,,,54,47
5784,note_on,,12,0,5,,,,,,,,,4,,,61,0
5784,note_on,,0,0,4,,,,,,,,,3,,,69,95
5796,note_on,,12,0,4,,,,,,,,,3,,,69,0
5796,note_on,,0,0,4,,,,,,,,,3,,,69,95
5796,note_on,,0,0,5,,,,,,,,,4,,,69,95
5796,note_on,,12,0,5,,,,,,,,,4,,,69,0
5800,note_on,,16,0,6,,,,,,,,,5,,,66,0
5800,note_on,,16,0,8,,,,,,,,,7,,,42,0
5800,note_on,,16,0,7,,,,,,,,,6,,,54,0
5808,note_on,,0,0,2,,,,,,,,,1,,,50,47
5808,note_on,,12,0,4,,,,,,,,,3,,,69,0
5808,note_on,,0,0,4,,,,,,,,,3,,,59,95
5808,note_on,,24,0,2,,,,,,,,,1,,,54,0
5808,note_on,,8,0,8,,,,,,,,,7,,,38,95
5808,note_on,,0,0,5,,,,,,,,,4,,,59,95
5808,note_on,,12,0,5,,,,,,,,,4,,,69,0
5808,note_on,,8,0,6,,,,,,,,,5,,,66,95
5808,note_on,,8,0,7,,,,,,,,,6,,,50,95
5820,note_on,,12,0,4,,,,,,,,,3,,,59,0
5820,note_on,,0,0,4,,,,,,,,,3,,,59,95
5820,note_on,,12,0,5,,,,,,,,,4,,,59,0
5820,note_on,,0,0,5,,,,,,,,,4,,,59,95
5824,note_on,,16,0,7,,,,,,,,,6,,,50,0
5824,note_on,,16,0,8,,,,,,,,,7,,,38,0
5824,note_on,,16,0,6,,,,,,,,,5,,,66,0
5832,note_on,,12,0,4,,,,,,,,,3,,,59,0
5832,note_on,,0,0,4,,,,,,,,,3,,,68,95
5832,note_on,,12,0,5,,,,,,,,,4,,,59,0
5832,note_on,,8,0,7,,,,,,,,,6,,,52,95
5832,note_on,,8,0,6,,,,,,,,,5,,,64,95
5832,note_on,,432,0,1,,,,,,,,,0,,,71,47
5832,note_on,,24,0,2,,,,,,,,,1,,,50,0
5832,note_on,,0,0,2,,,,,,,,,1,,,52,47
5832,note_on,,8,0,8,,,,,,,,,7,,,40,95
5832,note_on,,0,0,5,,,,,,,,,4,,,68,95
5844,note_on,,12,0,5,,,,,,,,,4,,,68,0
5844,note_on,,0,0,5,,,,,,,,,4,,,68,95
5844,note_on,,0,0,4,,,,,,,,,3,,,68,95
5844,note_on,,12,0,4,,,,,,,,,3,,,68,0
5848,note_on,,16,0,8,,,,,,,,,7,,,40,0
5848,note_on,,16,0,7,,,,,,,,,6,,,52,0
5848,note_on,,16,0,6,,,,,,,,,5,,,64,0
5856,note_on,,0,0,4,,,,,,,,,3,,,69,95
5856,note_on,,0,0,1,,,,,,,,,0,,,73,47
5856,note_on,,24,0,1,,,,,,,,,0,,,71,0
5856,note_on,,8,0,8,,,,,,,,,7,,,45,95
5856,note_on,,8,0,7,,,,,,,,,6,,,57,95
5856,note_on,,0,0,2,,,,,,,,,1,,,57,47
5856,note_on,,24,0,2,,,,,,,,,1,,,52,0
5856,note_on,,12,0,4,,,,,,,,,3,,,68,0
5856,note_on,,0,0,5,,,,,,,,,4,,,69,95
5856,note_on,,12,0,5,,,,,,,,,4,,,68,0
5856,note_on,,8,0,6,,,,,,,,,5,,,64,95
5868,note_on,,12,0,1,,,,,,,,,0,,,73,0
5868,note_on,,0,0,1,,,,,,,,,0,,,69,47
5872,note_on,,16,0,6,,,,,,,,,5,,,64,0
5872,note_on,,16,0,7,,,,,,,,,6,,,57,0
5872,note_on,,16,0,8,,,,,,,,,7,,,45,0
5880,note_on,,0,0,1,,,,,,,,,0,,,71,47
5880,note_on,,12,0,1,,,,,,,,,0,,,69,0
5880,note_on,,8,0,7,,,,,,,,,6,,,52,56
5880,note_on,,24,0,4,,,,,,,,,3,,,69,0
5880,note_on,,0,0,2,,,,,,,,,1,,,52,47
5880,note_on,,24,0,2,,,,,,,,,1,,,57,0
5880,note_on,,24,0,5,,,,,,,,,4,,,69,0
5892,note_on,,12,0,1,,,,,,,,,0,,,71,0
5892,note_on,,0,0,1,,,,,,,,,0,,,74,47
5896,note_on,,16,0,7,,,,,,,,,6,,,52,0
5904,note_on,,24,0,4,,,,,,,,,3,,,76,95
5904,note_on,,0,0,1,,,,,,,,,0,,,73,47
5904,note_on,,0,0,2,,,,,,,,,1,,,45,47
5904,note_on,,24,0,2,,,,,,,,,1,,,52,0
5904,note_on,,12,0,1,,,,,,,,,0,,,74,0
5904,note_on,,8,0,7,,,,,,,,,6,,,45,56
5916,note_on,,0,0,1,,,,,,,,,0,,,76,47
5916,note_on,,12,0,1,,,,,,,,,0,,,73,0
5920,note_on,,16,0,7,,,,,,,,,6,,,45,0
5928,note_on,,8,0,7,,,,,,,,,6,,,49,56
5928,note_on,,12,0,1,,,,,,,,,0,,,76,0
5928,note_on,,0,0,1,,,,,,,,,0,,,69,47
5928,note_on,,56,0,6,,,,,,,,,5,,,64,56
5928,note_on,,0,0,2,,,,,,,,,1,,,49,47
5928,note_on,,24,0,2,,,,,,,,,1,,,45,0
5940,note_on,,12,0,1,,,,,,,,,0,,,69,0
5940,note_on,,0,0,1,,,,,,,,,0,,,67,47
5944,note_on,,16,0,6,,,,,,,,,5,,,64,0
5944,note_on,,16,0,7,,,,,,,,,6,,,49,0
5952,note_on,,24,0,2,,,,,,,,,1,,,49,0
5952,note_on,,12,0,1,,,,,,,,,0,,,67,0
5952,note_on,,0,0,1,,,,,,,,,0,,,66,47
5952,note_on,,8,0,6,,,,,,,,,5,,,66,56
5952,note_on,,0,0,2,,,,,,,,,1,,,50,47
5952,note_on,,8,0,7,,,,,,,,,6,,,50,56
5964,note_on,,12,0,1,,,,,,,,,0,,,66,0
5964,note_on,,0,0,1,,,,,,,,,0,,,62,47
5968,note_on,,16,0,7,,,,,,,,,6,,,50,0
5968,note_on,,16,0,6,,,,,,,,,5,,,66,0
5976,note_on,,8,0,7,,,,,,,,,6,,,57,56
5976,note_on,,0,0,2,,,,,,,,,1,,,57,47
5976,note_on,,24,0,2,,,,,,,,,1,,,50,0
5976,note_on,,8,0,6,,,,,,,,,5,,,67,56
5976,note_on,,12,0,1,,,,,,,,,0,,,62,0
5976,note_on,,0,0,1,,,,,,,,,0,,,64,47
5988,note_on,,0,0,1,,,,,,,,,0,,,67,47
5988,note_on,,12,0,1,,,,,,,,,0,,,64,0
5992,note_on,,16,0,7,,,,,,,,,6,,,57,0
5992,note_on,,16,0,6,,,,,,,,,5,,,67,0
6000,note_on,,0,0,1,,,,,,,,,0,,,66,47
6000,note_on,,0,0,4,,,,,,,,,3,,,74,95
6000,note_on,,96,0,4,,,,,,,,,3,,,76,0
6000,note_on,,12,0,1,,,,,,,,,0,,,67,0
6000,note_on,,0,0,2,,,,,,,,,1,,,62,47
6000,note_on,,608,0,3,,,,,,,,,2,,,81,95
6000,note_on,,24,0,2,,,,,,,,,1,,,57,0
6000,note_on,,8,0,7,,,,,,,,,6,,,62,56
6000,note_on,,8,0,6,,,,,,,,,5,,,69,56
6012,note_on,,0,0,1,,,,,,,,,0,,,69,47
6012,note_on,,12,0,1,,,,,,,,,0,,,66,0
6016,note_on,,16,0,7,,,,,,,,,6,,,62,0
6016,note_on,,16,0,6,,,,,,,,,5,,,69,0
6024,note_on,,0,0,2,,,,,,,,,1,,,54,47
6024,note_on,,144,0,5,,,,,,,,,4,,,69,56
6024,note_on,,0,0,1,,,,,,,,,0,,,62,47
6024,note_on,,12,0,1,,,,,,,,,0,,,69,0
6024,note_on,,8,0,7,,,,,,,,,6,,,54,56
6024,note_on,,24,0,2,,,,,,,,,1,,,62,0
6036,note_on,,12,0,1,,,,,,,,,0,,,62,0
6036,note_on,,0,0,1,,,,,,,,,0,,,72,47
6040,note_on,,16,0,7,,,,,,,,,6,,,54,0
6040,note_on,,16,0,5,,,,,,,,,4,,,69,0
6048,note_on,,0,0,2,,,,,,,,,1,,,55,47
6048,note_on,,8,0,7,,,,,,,,,6,,,55,56
6048,note_on,,8,0,5,,,,,,,,,4,,,71,56
6048,note_on,,24,0,2,,,,,,,,,1,,,54,0
6048,note_on,,0,0,1,,,,,,,,,0,,,71,47
6048,note_on,,48,0,4,,,,,,,,,3,,,74,0
6048,note_on,,12,0,1,,,,,,,,,0,,,72,0
6060,note_on,,12,0,1,,,,,,,,,0,,,71,0
6060,note_on,,0,0,1,,,,,,,,,0,,,67,47
6064,note_on,,16,0,7,,,,,,,,,6,,,55,0
6064,note_on,,16,0,5,,,,,,,,,4,,,71,0
6072,note_on,,12,0,1,,,,,,,,,0,,,67,0
6072,note_on,,0,0,1,,,,,,,,,0,,,69,47
6072,note_on,,24,0,2,,,,,,,,,1,,,55,0
6072,note_on,,0,0,2,,,,,,,,,1,,,50,47
6072,note_on,,8,0,5,,,,,,,,,4,,,72,56
6072,note_on,,8,0,7,,,,,,,,,6,,,50,56
6084,note_on,,0,0,1,,,,,,,,,0,,,72,47
6084,note_on,,12,0,1,,,,,,,,,0,,,69,0
6088,note_on,,16,0,7,,,,,,,,,6,,,50,0
6088,note_on,,16,0,5,,,,,,,,,4,,,72,0
6096,note_on,,48,0,4,,,,,,,,,3,,,74,95
6096,note_on,,8,0,5,,,,,,,,,4,,,74,56
6096,note_on,,0,0,3,,,,,,,,,2,,,79,95
6096,note_on,,12,0,1,,,,,,,,,0,,,72,0
6096,note_on,,0,0,1,,,,,,,,,0,,,71,47
6096,note_on,,0,0,2,,,,,,,,,1,,,43,47
6096,note_on,,24,0,2,,,,,,,,,1,,,50,0
6096,note_on,,8,0,7,,,,,,,,,6,,,43,56
6096,note_on,,96,0,3,,,,,,,,,2,,,81,0
6108,note_on,,0,0,1,,,,,,,,,0,,,74,47
6108,note_on,,12,0,1,,,,,,,,,0,,,71,0
6112,note_on,,16,0,5,,,,,,,,,4,,,74,0
6112,note_on,,16,0,7,,,,,,,,,6,,,43,0
6120,note_on,,0,0,1,,,,,,,,,0,,,67,47
6120,note_on,,104,0,6,,,,,,,,,5,,,71,56
6120,note_on,,8,0,7,,,,,,,,,6,,,47,56
6120,note_on,,12,0,1,,,,,,,,,0,,,74,0
6120,note_on,,24,0,2,,,,,,,,,1,,,43,0
6120,note_on,,0,0,2,,,,,,,,,1,,,47,47
6132,note_on,,0,0,1,,,,,,,,,0,,,66,47
6132,note_on,,12,0,1,,,,,,,,,0,,,67,0
6136,note_on,,16,0,7,,,,,,,,,6,,,47,0
6136,note_on,,16,0,6,,,,,,,,,5,,,71,0
6144,note_on,,0,0,2,,,,,,,,,1,,,49,47
6144,note_on,,8,0,7,,,,,,,,,6,,,49,56
6144,note_on,,48,0,3,,,,,,,,,2,,,79,0
6144,note_on,,8,0,6,,,,,,,,,5,,,64,56
6144,note_on,,24,0,2,,,,,,,,,1,,,47,0
6144,note_on,,0,0,1,,,,,,,,,0,,,64,47
6144,note_on,,12,0,1,,,,,,,,,0,,,66,0
6156,note_on,,0,0,1,,,,,,,,,0,,,61,47
6156,note_on,,12,0,1,,,,,,,,,0,,,64,0
6160,note_on,,16,0,6,,,,,,,,,5,,,64,0
6160,note_on,,16,0,7,,,,,,,,,6,,,49,0
6168,note_on,,0,0,1,,,,,,,,,0,,,62,47
6168,note_on,,0,0,2,,,,,,,,,1,,,47,47
6168,note_on,,8,0,6,,,,,,,,,5,,,67,56
6168,note_on,,8,0,7,,,,,,,,,6,,,47,56
6168,note_on,,24,0,2,,,,,,,,,1,,,49,0
6168,note_on,,12,0,1,,,,,,,,,0,,,61,0
6176,note_on,,8,0,6,,,,,,,,,5,,,67,0
6180,note_on,,4,0,6,,,,,,,,,5,,,66,56
6180,note_on,,0,0,1,,,,,,,,,0,,,66,47
6180,note_on,,12,0,1,,,,,,,,,0,,,62,0
6184,note_on,,16,0,7,,,,,,,,,6,,,47,0
6188,note_on,,8,0,6,,,,,,,,,5,,,66,0
6192,note_on,,12,0,1,,,,,,,,,0,,,66,0
6192,note_on,,4,0,6,,,,,,,,,5,,,67,56
6192,note_on,,0,0,1,,,,,,,,,0,,,64,47
6192,note_on,,24,0,2,,,,,,,,,1,,,47,0
6192,note_on,,8,0,7,,,,,,,,,6,,,49,56
6192,note_on,,48,0,3,,,,,,,,,2,,,79,95
6192,note_on,,0,0,2,,,,,,,,,1,,,49,47
6192,note_on,,0,0,4,,,,,,,,,3,,,73,95
6192,note_on,,96,0,4,,,,,,,,,3,,,74,0
6204,note_on,,0,0,1,,,,,,,,,0,,,67,47
6204,note_on,,12,0,1,,,,,,,,,0,,,64,0
6208,note_on,,16,0,7,,,,,,,,,6,,,49,0
6208,note_on,,16,0,6,,,,,,,,,5,,,67,0
6216,note_on,,104,0,5,,,,,,,,,4,,,76,56
6216,note_on,,0,0,1,,,,,,,,,0,,,61,47
6216,note_on,,24,0,2,,,,,,,,,1,,,49,0
6216,note_on,,0,0,2,,,,,,,,,1,,,52,47
6216,note_on,,12,0,1,,,,,,,,,0,,,67,0
6216,note_on,,8,0,7,,,,,,,,,6,,,52,56
6228,note_on,,12,0,1,,,,,,,,,0,,,61,0
6228,note_on,,0,0,1,,,,,,,,,0,,,71,47
6232,note_on,,16,0,5,,,,,,,,,4,,,76,0
6232,note_on,,16,0,7,,,,,,,,,6,,,52,0
6240,note_on,,24,0,2,,,,,,,,,1,,,52,0
6240,note_on,,48,0,4,,,,,,,,,3,,,73,0
6240,note_on,,12,0,1,,,,,,,,,0,,,71,0
6240,note_on,,8,0,7,,,,,,,,,6,,,54,56
6240,note_on,,0,0,1,,,,,,,,,0,,,70,47
6240,note_on,,0,0,2,,,,,,,,,1,,,54,47
6240,note_on,,8,0,5,,,,,,,,,4,,,70,56
6252,note_on,,0,0,1,,,,,,,,,0,,,66,47
6252,note_on,,12,0,1,,,,,,,,,0,,,70,0
6256,note_on,,16,0,7,,,,,,,,,6,,,54,0
6256,note_on,,16,0,5,,,,,,,,,4,,,70,0
6264,note_on,,0,0,1,,,,,,,,,0,,,68,47
6264,note_on,,12,0,1,,,,,,,,,0,,,66,0
6264,note_on,,0,0,2,,,,,,,,,1,,,49,47
6264,note_on,,8,0,7,,,,,,,,,6,,,52,56
6264,note_on,,24,0,2,,,,,,,,,1,,,54,0
6264,note_on,,8,0,5,,,,,,,,,4,,,73,56
6272,note_on,,8,0,5,,,,,,,,,4,,,73,0
6276,note_on,,4,0,5,,,,,,,,,4,,,71,56
6276,note_on,,0,0,1,,,,,,,,,0,,,71,47
6276,note_on,,12,0,1,,,,,,,,,0,,,68,0
6280,note_on,,16,0,7,,,,,,,,,6,,,52,0
6284,note_on,,8,0,5,,,,,,,,,4,,,71,0
6288,note_on,,48,0,4,,,,,,,,,3,,,73,95
6288,note_on,,0,0,3,,,,,,,,,2,,,78,95
6288,note_on,,8,0,7,,,,,,,,,6,,,42,56
6288,note_on,,96,0,3,,,,,,,,,2,,,79,0
6288,note_on,,12,0,1,,,,,,,,,0,,,71,0
6288,note_on,,0,0,2,,,,,,,,,1,,,42,47
6288,note_on,,24,0,2,,,,,,,,,1,,,49,0
6288,note_on,,4,0,5,,,,,,,,,4,,,73,56
6288,note_on,,0,0,1,,,,,,,,,0,,,70,47
6300,note_on,,12,0,1,,,,,,,,,0,,,70,0
6300,note_on,,0,0,1,,,,,,,,,0,,,73,47
6304,note_on,,16,0,7,,,,,,,,,6,,,42,0
6304,note_on,,16,0,5,,,,,,,,,4,,,73,0
6312,note_on,,104,0,6,,,,,,,,,5,,,61,56
6312,note_on,,8,0,7,,,,,,,,,6,,,46,56
6312,note_on,,24,0,2,,,,,,,,,1,,,42,0
6312,note_on,,0,0,2,,,,,,,,,1,,,46,47
6312,note_on,,0,0,1,,,,,,,,,0,,,66,47
6312,note_on,,12,0,1,,,,,,,,,0,,,73,0
6324,note_on,,12,0,1,,,,,,,,,0,,,66,0
6324,note_on,,0,0,1,,,,,,,,,0,,,64,47
6328,note_on,,16,0,6,,,,,,,,,5,,,61,0
6328,note_on,,16,0,7,,,,,,,,,6,,,46,0
6336,note_on,,8,0,7,,,,,,,,,6,,,47,56
6336,note_on,,48,0,3,,,,,,,,,2,,,78,0
6336,note_on,,8,0,6,,,,,,,,,5,,,62,56
6336,note_on,,12,0,1,,,,,,,,,0,,,64,0
6336,note_on,,0,0,1,,,,,,,,,0,,,62,47
6336,note_on,,24,0,2,,,,,,,,,1,,,46,0
6336,note_on,,0,0,2,,,,,,,,,1,,,47,47
6348,note_on,,0,0,1,,,,,,,,,0,,,59,47
6348,note_on,,12,0,1,,,,,,,,,0,,,62,0
6352,note_on,,16,0,7,,,,,,,,,6,,,47,0
6352,note_on,,16,0,6,,,,,,,,,5,,,62,0
6360,note_on,,8,0,6,,,,,,,,,5,,,64,56
6360,note_on,,24,0,2,,,,,,,,,1,,,47,0
6360,note_on,,12,0,1,,,,,,,,,0,,,59,0
6360,note_on,,0,0,1,,,,,,,,,0,,,61,47
6360,note_on,,0,0,2,,,,,,,,,1,,,54,47
6360,note_on,,8,0,7,,,,,,,,,6,,,54,56
6372,note_on,,12,0,1,,,,,,,,,0,,,61,0
6372,note_on,,0,0,1,,,,,,,,,0,,,64,47
6376,note_on,,16,0,6,,,,,,,,,5,,,64,0
6376,note_on,,16,0,7,,,,,,,,,6,,,54,0
6384,note_on,,12,0,1,,,,,,,,,0,,,64,0
6384,note_on,,0,0,1,,,,,,,,,0,,,62,47
6384,note_on,,96,0,4,,,,,,,,,3,,,73,0
6384,note_on,,0,0,4,,,,,,,,,3,,,71,95
6384,note_on,,8,0,6,,,,,,,,,5,,,66,56
6384,note_on,,48,0,3,,,,,,,,,2,,,78,95
6384,note_on,,8,0,7,,,,,,,,,6,,,59,56
6384,note_on,,24,0,2,,,,,,,,,1,,,54,0
6384,note_on,,0,0,2,,,,,,,,,1,,,59,47
6396,note_on,,12,0,1,,,,,,,,,0,,,62,0
6396,note_on,,0,0,1,,,,,,,,,0,,,66,47
6400,note_on,,16,0,6,,,,,,,,,5,,,66,0
6400,note_on,,16,0,7,,,,,,,,,6,,,59,0
6408,note_on,,8,0,6,,,,,,,,,5,,,62,56
6408,note_on,,8,0,7,,,,,,,,,6,,,50,56
6408,note_on,,104,0,5,,,,,,,,,4,,,66,56
6408,note_on,,24,0,2,,,,,,,,,1,,,59,0
6408,note_on,,0,0,2,,,,,,,,,1,,,50,47
6408,note_on,,12,0,1,,,,,,,,,0,,,66,0
6408,note_on,,0,0,1,,,,,,,,,0,,,59,47
6420,note_on,,12,0,1,,,,,,,,,0,,,59,0
6420,note_on,,0,0,1,,,,,,,,,0,,,69,47
6424,note_on,,16,0,7,,,,,,,,,6,,,50,0
6424,note_on,,16,0,5,,,,,,,,,4,,,66,0
6424,note_on,,16,0,6,,,,,,,,,5,,,62,0
6432,note_on,,0,0,1,,,,,,,,,0,,,67,47
6432,note_on,,24,0,2,,,,,,,,,1,,,50,0
6432,note_on,,0,0,2,,,,,,,,,1,,,52,47
6432,note_on,,8,0,5,,,,,,,,,4,,,67,56
6432,note_on,,8,0,6,,,,,,,,,5,,,59,56
6432,note_on,,48,0,4,,,,,,,,,3,,,71,0
6432,note_on,,8,0,7,,,,,,,,,6,,,52,56
6432,note_on,,12,0,1,,,,,,,,,0,,,69,0
6444,note_on,,12,0,1,,,,,,,,,0,,,67,0
6444,note_on,,0,0,1,,,,,,,,,0,,,71,47
6448,note_on,,16,0,5,,,,,,,,,4,,,67,0
6448,note_on,,16,0,7,,,,,,,,,6,,,52,0
6456,note_on,,8,0,7,,,,,,,,,6,,,54,56
6456,note_on,,8,0,5,,,,,,,,,4,,,71,56
6456,note_on,,0,0,1,,,,,,,,,0,,,64,47
6456,note_on,,24,0,2,,,,,,,,,1,,,52,0
6456,note_on,,0,0,2,,,,,,,,,1,,,54,47
6456,note_on,,12,0,1,,,,,,,,,0,,,71,0
6464,note_on,,32,0,6,,,,,,,,,5,,,59,0
6468,note_on,,12,0,1,,,,,,,,,0,,,64,0
6468,note_on,,0,0,1,,,,,,,,,0,,,74,47
6472,note_on,,16,0,7,,,,,,,,,6,,,54,0
6472,note_on,,16,0,5,,,,,,,,,4,,,71,0
6480,note_on,,0,0,2,,,,,,,,,1,,,55,47
6480,note_on,,0,0,3,,,,,,,,,2,,,76,95
6480,note_on,,8,0,7,,,,,,,,,6,,,55,56
6480,note_on,,8,0,5,,,,,,,,,4,,,64,56
6480,note_on,,48,0,4,,,,,,,,,3,,,79,95
6480,note_on,,96,0,3,,,,,,,,,2,,,78,0
6480,note_on,,12,0,1,,,,,,,,,0,,,74,0
6480,note_on,,0,0,1,,,,,,,,,0,,,73,47
6480,note_on,,24,0,2,,,,,,,,,1,,,54,0
6492,note_on,,12,0,1,,,,,,,,,0,,,73,0
6492,note_on,,0,0,1,,,,,,,,,0,,,76,47
6496,note_on,,16,0,7,,,,,,,,,6,,,55,0
6504,note_on,,40,0,6,,,,,,,,,5,,,67,56
6504,note_on,,24,0,2,,,,,,,,,1,,,55,0
6504,note_on,,8,0,7,,,,,,,,,6,,,52,56
6504,note_on,,0,0,2,,,,,,,,,1,,,52,47
6504,note_on,,24,0,3,,,,,,,,,2,,,76,0
6504,note_on,,0,0,3,,,,,,,,,2,,,74,95
6504,note_on,,0,0,1,,,,,,,,,0,,,79,47
6504,note_on,,12,0,1,,,,,,,,,0,,,76,0
6512,note_on,,32,0,5,,,,,,,,,4,,,64,0
6516,note_on,,0,0,1,,,,,,,,,0,,,71,47
6516,note_on,,12,0,1,,,,,,,,,0,,,79,0
6520,note_on,,16,0,6,,,,,,,,,5,,,67,0
6520,note_on,,16,0,7,,,,,,,,,6,,,52,0
6528,note_on,,0,0,3,,,,,,,,,2,,,73,95
6528,note_on,,12,0,1,,,,,,,,,0,,,71,0
6528,note_on,,24,0,2,,,,,,,,,1,,,52,0
6528,note_on,,24,0,3,,,,,,,,,2,,,74,0
6528,note_on,,0,0,1,,,,,,,,,0,,,70,47
6528,note_on,,8,0,7,,,,,,,,,6,,,54,56
6528,note_on,,16,0,5,,,,,,,,,4,,,64,56
6528,note_on,,8,0,6,,,,,,,,,5,,,61,56
6528,note_on,,0,0,2,,,,,,,,,1,,,54,47
6536,note_on,,8,0,6,,,,,,,,,5,,,61,0
6536,note_on,,8,0,5,,,,,,,,,4,,,64,0
6540,note_on,,4,0,6,,,,,,,,,5,,,61,56
6540,note_on,,4,0,5,,,,,,,,,4,,,64,56
6544,note_on,,16,0,7,,,,,,,,,6,,,54,0
6548,note_on,,8,0,5,,,,,,,,,4,,,64,0
6548,note_on,,8,0,6,,,,,,,,,5,,,61,0
6552,note_on,,8,0,7,,,,,,,,,6,,,61,56
6552,note_on,,0,0,2,,,,,,,,,1,,,49,47
6552,note_on,,4,0,6,,,,,,,,,5,,,64,56
6552,note_on,,24,0,2,,,,,,,,,1,,,54,0
6552,note_on,,4,0,5,,,,,,,,,4,,,70,56
6560,note_on,,8,0,6,,,,,,,,,5,,,64,0
6560,note_on,,8,0,5,,,,,,,,,4,,,70,0
6564,note_on,,4,0,5,,,,,,,,,4,,,70,56
6564,note_on,,4,0,6,,,,,,,,,5,,,64,56
6568,note_on,,16,0,7,,,,,,,,,6,,,61,0
6572,note_on,,8,0,6,,,,,,,,,5,,,64,0
6572,note_on,,8,0,5,,,,,,,,,4,,,70,0
6576,note_on,,0,0,4,,,,,,,,,3,,,78,95
6576,note_on,,0,0,2,,,,,,,,,1,,,46,47
6576,note_on,,48,0,1,,,,,,,,,0,,,70,0
6576,note_on,,24,0,2,,,,,,,,,1,,,49,0
6576,note_on,,0,0,3,,,,,,,,,2,,,85,95
6576,note_on,,48,0,3,,,,,,,,,2,,,73,0
6576,note_on,,4,0,5,,,,,,,,,4,,,73,56
6576,note_on,,96,0,4,,,,,,,,,3,,,79,0
6576,note_on,,4,0,6,,,,,,,,,5,,,66,56
6576,note_on,,8,0,7,,,,,,,,,6,,,58,56
6584,note_on,,8,0,5,,,,,,,,,4,,,73,0
6584,note_on,,8,0,6,,,,,,,,,5,,,66,0
6588,note_on,,4,0,6,,,,,,,,,5,,,66,56
6588,note_on,,4,0,5,,,,,,,,,4,,,73,56
6592,note_on,,16,0,7,,,,,,,,,6,,,58,0
6596,note_on,,8,0,5,,,,,,,,,4,,,73,0
6596,note_on,,8,0,6,,,,,,,,,5,,,66,0
6600,note_on,,24,0,2,,,,,,,,,1,,,46,0
6600,note_on,,24,0,1,,,,,,,,,0,,,73,47
6600,note_on,,0,0,4,,,,,,,,,3,,,76,95
6600,note_on,,24,0,4,,,,,,,,,3,,,78,0
6600,note_on,,0,0,2,,,,,,,,,1,,,42,47
6600,note_on,,8,0,7,,,,,,,,,6,,,54,56
6600,note_on,,4,0,6,,,,,,,,,5,,,70,56
6600,note_on,,4,0,5,,,,,,,,,4,,,78,56
6608,note_on,,8,0,6,,,,,,,,,5,,,70,0
6608,note_on,,8,0,5,,,,,,,,,4,,,78,0
6612,note_on,,4,0,5,,,,,,,,,4,,,78,56
6612,note_on,,4,0,6,,,,,,,,,5,,,70,56
6616,note_on,,16,0,7,,,,,,,,,6,,,54,0
6620,note_on,,8,0,5,,,,,,,,,4,,,78,0
6620,note_on,,8,0,6,,,,,,,,,5,,,70,0
6624,note_on,,752,0,8,,,,,,,,,7,,,35,56
6624,note_on,,0,0,2,,,,,,,,,1,,,47,47
6624,note_on,,24,0,2,,,,,,,,,1,,,42,0
6624,note_on,,4,0,6,,,,,,,,,5,,,66,56
6624,note_on,,4,0,5,,,,,,,,,4,,,74,56
6624,note_on,,0,0,4,,,,,,,,,3,,,74,95
6624,note_on,,24,0,4,,,,,,,,,3,,,76,0
6624,note_on,,8,0,7,,,,,,,,,6,,,47,56
6624,note_on,,0,0,1,,,,,,,,,0,,,74,47
6624,note_on,,24,0,1,,,,,,,,,0,,,73,0
6632,note_on,,8,0,8,,,,,,,,,7,,,35,0
6632,note_on,,8,0,7,,,,,,,,,6,,,47,0
6636,note_on,,0,0,1,,,,,,,,,0,,,76,47
6636,note_on,,12,0,2,,,,,,,,,1,,,47,0
6636,note_on,,12,0,1,,,,,,,,,0,,,74,0
6636,note_on,,0,0,2,,,,,,,,,1,,,47,47
6636,note_on,,4,0,7,,,,,,,,,6,,,47,56
6636,note_on,,4,0,8,,,,,,,,,7,,,35,56
6640,note_on,,16,0,6,,,,,,,,,5,,,66,0
6640,note_on,,16,0,5,,,,,,,,,4,,,74,0
6644,note_on,,8,0,8,,,,,,,,,7,,,35,0
6644,note_on,,8,0,7,,,,,,,,,6,,,47,0
6648,note_on,,0,0,1,,,,,,,,,0,,,78,47
6648,note_on,,8,0,6,,,,,,,,,5,,,62,56
6648,note_on,,0,0,2,,,,,,,,,1,,,50,47
6648,note_on,,12,0,1,,,,,,,,,0,,,76,0
6648,note_on,,8,0,5,,,,,,,,,4,,,71,56
6648,note_on,,12,0,2,,,,,,,,,1,,,47,0
6648,note_on,,4,0,8,,,,,,,,,7,,,38,56
6648,note_on,,4,0,7,,,,,,,,,6,,,50,56
6656,note_on,,8,0,8,,,,,,,,,7,,,38,0
6656,note_on,,8,0,7,,,,,,,,,6,,,50,0
6660,note_on,,4,0,8,,,,,,,,,7,,,38,56
6660,note_on,,0,0,2,,,,,,,,,1,,,50,47
6660,note_on,,12,0,2,,,,,,,,,1,,,50,0
6660,note_on,,0,0,1,,,,,,,,,0,,,76,47
6660,note_on,,4,0,7,,,,,,,,,6,,,50,56
6660,note_on,,12,0,1,,,,,,,,,0,,,78,0
6664,note_on,,16,0,5,,,,,,,,,4,,,71,0
6664,note_on,,16,0,6,,,,,,,,,5,,,62,0
6668,note_on,,8,0,7,,,,,,,,,6,,,50,0
6668,note_on,,8,0,8,,,,,,,,,7,,,38,0
6672,note_on,,0,0,2,,,,,,,,,1,,,54,47
6672,note_on,,96,0,3,,,,,,,,,2,,,85,0
6672,note_on,,0,0,3,,,,,,,,,2,,,83,95
6672,note_on,,12,0,2,,,,,,,,,1,,,50,0
6672,note_on,,4,0,8,,,,,,,,,7,,,42,56
6672,note_on,,12,0,1,,,,,,,,,0,,,76,0
6672,note_on,,4,0,7,,,,,,,,,6,,,54,56
6672,note_on,,0,0,1,,,,,,,,,0,,,74,47
6680,note_on,,8,0,7,,,,,,,,,6,,,54,0
6680,note_on,,8,0,8,,,,,,,,,7,,,42,0
6684,note_on,,4,0,8,,,,,,,,,7,,,42,56
6684,note_on,,0,0,2,,,,,,,,,1,,,54,47
6684,note_on,,12,0,2,,,,,,,,,1,,,54,0
6684,note_on,,4,0,7,,,,,,,,,6,,,54,56
6684,note_on,,0,0,1,,,,,,,,,0,,,73,47
6684,note_on,,12,0,1,,,,,,,,,0,,,74,0
6692,note_on,,8,0,8,,,,,,,,,7,,,42,0
6692,note_on,,8,0,7,,,,,,,,,6,,,54,0
6696,note_on,,12,0,2,,,,,,,,,1,,,54,0
6696,note_on,,0,0,1,,,,,,,,,0,,,74,47
6696,note_on,,0,0,2,,,,,,,,,1,,,59,47
6696,note_on,,24,0,3,,,,,,,,,2,,,83,0
6696,note_on,,0,0,3,,,,,,,,,2,,,81,95
6696,note_on,,4,0,8,,,,,,,,,7,,,47,56
6696,note_on,,12,0,1,,,,,,,,,0,,,73,0
6696,note_on,,4,0,7,,,,,,,,,6,,,59,56
6704,note_on,,8,0,8,,,,,,,,,7,,,47,0
6704,note_on,,8,0,7,,,,,,,,,6,,,59,0
6708,note_on,,12,0,2,,,,,,,,,1,,,59,0
6708,note_on,,12,0,1,,,,,,,,,0,,,74,0
6708,note_on,,0,0,1,,,,,,,,,0,,,71,47
6708,note_on,,4,0,7,,,,,,,,,6,,,59,56
6708,note_on,,0,0,2,,,,,,,,,1,,,59,47
6708,note_on,,4,0,8,,,,,,,,,7,,,47,56
6716,note_on,,8,0,7,,,,,,,,,6,,,59,0
6716,note_on,,8,0,8,,,,,,,,,7,,,47,0
6720,note_on,,56,0,5,,,,,,,,,4,,,64,56
6720,note_on,,0,0,2,,,,,,,,,1,,,52,47
6720,note_on,,12,0,2,,,,,,,,,1,,,59,0
6720,note_on,,56,0,6,,,,,,,,,5,,,59,56
6720,note_on,,0,0,1,,,,,,,,,0,,,79,47
6720,note_on,,12,0,1,,,,,,,,,0,,,71,0
6720,note_on,,4,0,8,,,,,,,,,7,,,40,56
6720,note_on,,4,0,7,,,,,,,,,6,,,64,56
6720,note_on,,24,0,3,,,,,,,,,2,,,81,0
6720,note_on,,0,0,3,,,,,,,,,2,,,79,95
6728,note_on,,8,0,6,,,,,,,,,5,,,59,0
6728,note_on,,8,0,5,,,,,,,,,4,,,64,0
6732,note_on,,4,0,5,,,,,,,,,4,,,64,56
6732,note_on,,4,0,6,,,,,,,,,5,,,59,56
6736,note_on,,16,0,8,,,,,,,,,7,,,40,0
6736,note_on,,16,0,7,,,,,,,,,6,,,64,0
6740,note_on,,8,0,6,,,,,,,,,5,,,59,0
6740,note_on,,8,0,5,,,,,,,,,4,,,64,0
6744,note_on,,4,0,5,,,,,,,,,4,,,67,56
6744,note_on,,24,0,1,,,,,,,,,0,,,79,0
6744,note_on,,4,0,6,,,,,,,,,5,,,64,56
6744,note_on,,24,0,2,,,,,,,,,1,,,52,0
6744,note_on,,0,0,2,,,,,,,,,1,,,47,47
6744,note_on,,8,0,7,,,,,,,,,6,,,59,56
6752,note_on,,8,0,6,,,,,,,,,5,,,64,0
6752,note_on,,8,0,5,,,,,,,,,4,,,67,0
6756,note_on,,4,0,6,,,,,,,,,5,,,64,56
6756,note_on,,4,0,5,,,,,,,,,4,,,67,56
6760,note_on,,16,0,7,,,,,,,,,6,,,59,0
6764,note_on,,8,0,5,,,,,,,,,4,,,67,0
6764,note_on,,8,0,6,,,,,,,,,5,,,64,0
6768,note_on,,144,0,4,,,,,,,,,3,,,74,0
6768,note_on,,24,0,2,,,,,,,,,1,,,47,0
6768,note_on,,0,0,2,,,,,,,,,1,,,43,47
6768,note_on,,4,0,6,,,,,,,,,5,,,67,56
6768,note_on,,8,0,7,,,,,,,,,6,,,55,56
6768,note_on,,0,0,4,,,,,,,,,3,,,73,95
6768,note_on,,4,0,5,,,,,,,,,4,,,71,56
6776,note_on,,8,0,6,,,,,,,,,5,,,67,0
6776,note_on,,8,0,5,,,,,,,,,4,,,71,0
6780,note_on,,36,0,1,,,,,,,,,0,,,81,47
6780,note_on,,4,0,5,,,,,,,,,4,,,71,56
6780,note_on,,4,0,6,,,,,,,,,5,,,67,56
6784,note_on,,16,0,7,,,,,,,,,6,,,55,0
6788,note_on,,8,0,5,,,,,,,,,4,,,71,0
6788,note_on,,8,0,6,,,,,,,,,5,,,67,0
6792,note_on,,24,0,2,,,,,,,,,1,,,43,0
6792,note_on,,0,0,2,,,,,,,,,1,,,40,47
6792,note_on,,4,0,6,,,,,,,,,5,,,71,56
6792,note_on,,12,0,1,,,,,,,,,0,,,81,0
6792,note_on,,4,0,5,,,,,,,,,4,,,76,56
6792,note_on,,0,0,4,,,,,,,,,3,,,71,95
6792,note_on,,8,0,7,,,,,,,,,6,,,52,56
6792,note_on,,0,0,1,,,,,,,,,0,,,79,47
6792,note_on,,24,0,4,,,,,,,,,3,,,73,0
6800,note_on,,8,0,5,,,,,,,,,4,,,76,0
6800,note_on,,8,0,6,,,,,,,,,5,,,71,0
6804,note_on,,12,0,1,,,,,,,,,0,,,79,0
6804,note_on,,4,0,6,,,,,,,,,5,,,71,56
6804,note_on,,0,0,1,,,,,,,,,0,,,78,47
6804,note_on,,4,0,5,,,,,,,,,4,,,76,56
6808,note_on,,16,0,7,,,,,,,,,6,,,52,0
6812,note_on,,8,0,5,,,,,,,,,4,,,76,0
6812,note_on,,8,0,6,,,,,,,,,5,,,71,0
6816,note_on,,12,0,1,,,,,,,,,0,,,78,0
6816,note_on,,8,0,7,,,,,,,,,6,,,42,56
6816,note_on,,0,0,2,,,,,,,,,1,,,42,47
6816,note_on,,24,0,2,,,,,,,,,1,,,40,0
6816,note_on,,0,0,4,,,,,,,,,3,,,70,95
6816,note_on,,24,0,4,,,,,,,,,3,,,71,0
6816,note_on,,4,0,6,,,,,,,,,5,,,66,56
6816,note_on,,4,0,5,,,,,,,,,4,,,73,56
6816,note_on,,0,0,1,,,,,,,,,0,,,76,47
6816,note_on,,80,0,8,,,,,,,,,7,,,30,56
6822,note_on,,6,0,4,,,,,,,,,3,,,70,0
6822,note_on,,0,0,4,,,,,,,,,3,,,71,95
6824,note_on,,8,0,7,,,,,,,,,6,,,42,0
6824,note_on,,8,0,8,,,,,,,,,7,,,30,0
6828,note_on,,12,0,2,,,,,,,,,1,,,42,0
6828,note_on,,6,0,4,,,,,,,,,3,,,71,0
6828,note_on,,0,0,4,,,,,,,,,3,,,70,95
6828,note_on,,0,0,1,,,,,,,,,0,,,74,47
6828,note_on,,12,0,1,,,,,,,,,0,,,76,0
6828,note_on,,4,0,8,,,,,,,,,7,,,30,56
6828,note_on,,0,0,2,,,,,,,,,1,,,42,47
6828,note_on,,4,0,7,,,,,,,,,6,,,42,56
6832,note_on,,16,0,5,,,,,,,,,4,,,73,0
6832,note_on,,16,0,6,,,,,,,,,5,,,66,0
6834,note_on,,6,0,4,,,,,,,,,3,,,70,0
6834,note_on,,0,0,4,,,,,,,,,3,,,71,95
6836,note_on,,8,0,8,,,,,,,,,7,,,30,0
6836,note_on,,8,0,7,,,,,,,,,6,,,42,0
6840,note_on,,4,0,8,,,,,,,,,7,,,34,56
6840,note_on,,6,0,4,,,,,,,,,3,,,71,0
6840,note_on,,0,0,4,,,,,,,,,3,,,70,95
6840,note_on,,0,0,1,,,,,,,,,0,,,73,47
6840,note_on,,8,0,5,,,,,,,,,4,,,64,56
6840,note_on,,0,0,2,,,,,,,,,1,,,46,47
6840,note_on,,12,0,2,,,,,,,,,1,,,42,0
6840,note_on,,12,0,1,,,,,,,,,0,,,74,0
6840,note_on,,4,0,7,,,,,,,,,6,,,46,56
6840,note_on,,8,0,6,,,,,,,,,5,,,61,56
6846,note_on,,6,0,4,,,,,,,,,3,,,70,0
6846,note_on,,0,0,4,,,,,,,,,3,,,71,95
6848,note_on,,8,0,8,,,,,,,,,7,,,34,0
6848,note_on,,8,0,7,,,,,,,,,6,,,46,0
6852,note_on,,0,0,2,,,,,,,,,1,,,46,47
6852,note_on,,12,0,2,,,,,,,,,1,,,46,0
6852,note_on,,6,0,4,,,,,,,,,3,,,71,0
6852,note_on,,4,0,7,,,,,,,,,6,,,46,56
6852,note_on,,12,0,1,,,,,,,,,0,,,73,0
6852,note_on,,4,0,8,,,,,,,,,7,,,34,56
6852,note_on,,0,0,1,,,,,,,,,0,,,71,47
6852,note_on,,0,0,4,,,,,,,,,3,,,70,95
6856,note_on,,16,0,6,,,,,,,,,5,,,61,0
6856,note_on,,16,0,5,,,,,,,,,4,,,64,0
6858,note_on,,6,0,4,,,,,,,,,3,,,70,0
6858,note_on,,0,0,4,,,,,,,,,3,,,71,95
6860,note_on,,8,0,7,,,,,,,,,6,,,46,0
6860,note_on,,8,0,8,,,,,,,,,7,,,34,0
6864,note_on,,4,0,7,,,,,,,,,6,,,49,56
6864,note_on,,0,0,1,,,,,,,,,0,,,70,47
6864,note_on,,12,0,1,,,,,,,,,0,,,71,0
6864,note_on,,144,0,3,,,,,,,,,2,,,79,0
6864,note_on,,12,0,2,,,,,,,,,1,,,46,0
6864,note_on,,0,0,3,,,,,,,,,2,,,78,95
6864,note_on,,0,0,2,,,,,,,,,1,,,49,47
6864,note_on,,0,0,4,,,,,,,,,3,,,70,95
6864,note_on,,6,0,4,,,,,,,,,3,,,71,0
6864,note_on,,4,0,8,,,,,,,,,7,,,37,56
6870,note_on,,0,0,4,,,,,,,,,3,,,71,95
6870,note_on,,6,0,4,,,,,,,,,3,,,70,0
6872,note_on,,8,0,8,,,,,,,,,7,,,37,0
6872,note_on,,8,0,7,,,,,,,,,6,,,49,0
6876,note_on,,4,0,7,,,,,,,,,6,,,49,56
6876,note_on,,4,0,8,,,,,,,,,7,,,37,56
6876,note_on,,12,0,2,,,,,,,,,1,,,49,0
6876,note_on,,0,0,2,,,,,,,,,1,,,49,47
6876,note_on,,0,0,4,,,,,,,,,3,,,70,95
6876,note_on,,0,0,1,,,,,,,,,0,,,68,47
6876,note_on,,6,0,4,,,,,,,,,3,,,71,0
6876,note_on,,12,0,1,,,,,,,,,0,,,70,0
6882,note_on,,0,0,4,,,,,,,,,3,,,71,95
6882,note_on,,6,0,4,,,,,,,,,3,,,70,0
6884,note_on,,8,0,7,,,,,,,,,6,,,49,0
6884,note_on,,8,0,8,,,,,,,,,7,,,37,0
6888,note_on,,0,0,4,,,,,,,,,3,,,70,95
6888,note_on,,4,0,7,,,,,,,,,6,,,54,56
6888,note_on,,12,0,1,,,,,,,,,0,,,68,0
6888,note_on,,12,0,2,,,,,,,,,1,,,49,0
6888,note_on,,0,0,2,,,,,,,,,1,,,54,47
6888,note_on,,4,0,8,,,,,,,,,7,,,42,56
6888,note_on,,24,0,3,,,,,,,,,2,,,78,0
6888,note_on,,0,0,3,,,,,,,,,2,,,76,95
6888,note_on,,6,0,4,,,,,,,,,3,,,71,0
6888,note_on,,0,0,1,,,,,,,,,0,,,70,47
6894,note_on,,0,0,4,,,,,,,,,3,,,71,95
6894,note_on,,6,0,4,,,,,,,,,3,,,70,0
6896,note_on,,8,0,8,,,,,,,,,7,,,42,0
6896,note_on,,8,0,7,,,,,,,,,6,,,54,0
6900,note_on,,12,0,1,,,,,,,,,0,,,70,0
6900,note_on,,0,0,4,,,,,,,,,3,,,70,95
6900,note_on,,0,0,2,,,,,,,,,1,,,54,47
6900,note_on,,6,0,4,,,,,,,,,3,,,71,0
6900,note_on,,0,0,1,,,,,,,,,0,,,66,47
6900,note_on,,4,0,7,,,,,,,,,6,,,54,56
6900,note_on,,4,0,8,,,,,,,,,7,,,42,56
6900,note_on,,12,0,2,,,,,,,,,1,,,54,0
6906,note_on,,0,0,4,,,,,,,,,3,,,71,95
6906,note_on,,6,0,4,,,,,,,,,3,,,70,0
6908,note_on,,8,0,8,,,,,,,,,7,,,42,0
6908,note_on,,8,0,7,,,,,,,,,6,,,54,0
6912,note_on,,4,0,7,,,,,,,,,6,,,47,56
6912,note_on,,0,0,2,,,,,,,,,1,,,47,47
6912,note_on,,56,0,5,,,,,,,,,4,,,59,56
6912,note_on,,12,0,2,,,,,,,,,1,,,54,0
6912,note_on,,0,0,3,,,,,,,,,2,,,74,95
6912,note_on,,0,0,1,,,,,,,,,0,,,74,47
6912,note_on,,24,0,3,,,,,,,,,2,,,76,0
6912,note_on,,56,0,6,,,,,,,,,5,,,59,56
6912,note_on,,12,0,1,,,,,,,,,0,,,66,0
6912,note_on,,6,0,4,,,,,,,,,3,,,71,0
6912,note_on,,0,0,4,,,,,,,,,3,,,71,95
6912,note_on,,4,0,8,,,,,,,,,7,,,35,56
6920,note_on,,8,0,5,,,,,,,,,4,,,59,0
6920,note_on,,8,0,7,,,,,,,,,6,,,47,0
6920,note_on,,8,0,8,,,,,,,,,7,,,35,0
6920,note_on,,8,0,6,,,,,,,,,5,,,59,0
6924,note_on,,4,0,6,,,,,,,,,5,,,59,56
6924,note_on,,4,0,7,,,,,,,,,6,,,47,56
6924,note_on,,12,0,1,,,,,,,,,0,,,74,0
6924,note_on,,0,0,1,,,,,,,,,0,,,73,47
6924,note_on,,4,0,5,,,,,,,,,4,,,59,56
6924,note_on,,4,0,8,,,,,,,,,7,,,35,56
6924,note_on,,0,0,2,,,,,,,,,1,,,47,47
6924,note_on,,12,0,2,,,,,,,,,1,,,47,0
6932,note_on,,8,0,8,,,,,,,,,7,,,35,0
6932,note_on,,8,0,7,,,,,,,,,6,,,47,0
6932,note_on,,8,0,6,,,,,,,,,5,,,59,0
6932,note_on,,8,0,5,,,,,,,,,4,,,59,0
6936,note_on,,0,0,4,,,,,,,,,3,,,78,95
6936,note_on,,4,0,5,,,,,,,,,4,,,62,56
6936,note_on,,12,0,2,,,,,,,,,1,,,47,0
6936,note_on,,0,0,1,,,,,,,,,0,,,71,47
6936,note_on,,12,0,1,,,,,,,,,0,,,73,0
6936,note_on,,4,0,6,,,,,,,,,5,,,62,56
6936,note_on,,0,0,2,,,,,,,,,1,,,50,47
6936,note_on,,4,0,8,,,,,,,,,7,,,38,56
6936,note_on,,24,0,4,,,,,,,,,3,,,71,0
6936,note_on,,4,0,7,,,,,,,,,6,,,50,56
6944,note_on,,8,0,7,,,,,,,,,6,,,50,0
6944,note_on,,8,0,8,,,,,,,,,7,,,38,0
6944,note_on,,8,0,6,,,,,,,,,5,,,62,0
6944,note_on,,8,0,5,,,,,,,,,4,,,62,0
6948,note_on,,4,0,6,,,,,,,,,5,,,62,56
6948,note_on,,4,0,7,,,,,,,,,6,,,50,56
6948,note_on,,4,0,5,,,,,,,,,4,,,62,56
6948,note_on,,0,0,1,,,,,,,,,0,,,73,47
6948,note_on,,12,0,1,,,,,,,,,0,,,71,0
6948,note_on,,12,0,2,,,,,,,,,1,,,50,0
6948,note_on,,4,0,8,,,,,,,,,7,,,38,56
6948,note_on,,0,0,2,,,,,,,,,1,,,50,47
6956,note_on,,8,0,5,,,,,,,,,4,,,62,0
6956,note_on,,8,0,6,,,,,,,,,5,,,62,0
6956,note_on,,8,0,8,,,,,,,,,7,,,38,0
6956,note_on,,8,0,7,,,,,,,,,6,,,50,0
6960,note_on,,24,0,4,,,,,,,,,3,,,78,0
6960,note_on,,4,0,6,,,,,,,,,5,,,66,56
6960,note_on,,0,0,1,,,,,,,,,0,,,74,47
6960,note_on,,12,0,1,,,,,,,,,0,,,73,0
6960,note_on,,0,0,4,,,,,,,,,3,,,83,95
6960,note_on,,0,0,2,,,,,,,,,1,,,54,47
6960,note_on,,4,0,7,,,,,,,,,6,,,54,56
6960,note_on,,4,0,8,,,,,,,,,7,,,42,56
6960,note_on,,4,0,5,,,,,,,,,4,,,66,56
6960,note_on,,12,0,2,,,,,,,,,1,,,50,0
6968,note_on,,8,0,5,,,,,,,,,4,,,66,0
6968,note_on,,8,0,8,,,,,,,,,7,,,42,0
6968,note_on,,8,0,6,,,,,,,,,5,,,66,0
6968,note_on,,8,0,7,,,,,,,,,6,,,54,0
6972,note_on,,4,0,7,,,,,,,,,6,,,54,56
6972,note_on,,4,0,5,,,,,,,,,4,,,66,56
6972,note_on,,12,0,1,,,,,,,,,0,,,74,0
6972,note_on,,0,0,1,,,,,,,,,0,,,76,47
6972,note_on,,4,0,6,,,,,,,,,5,,,66,56
6972,note_on,,4,0,8,,,,,,,,,7,,,42,56
6972,note_on,,0,0,2,,,,,,,,,1,,,54,47
6972,note_on,,12,0,2,,,,,,,,,1,,,54,0
6980,note_on,,8,0,6,,,,,,,,,5,,,66,0
6980,note_on,,8,0,8,,,,,,,,,7,,,42,0
6980,note_on,,8,0,7,,,,,,,,,6,,,54,0
6980,note_on,,8,0,5,,,,,,,,,4,,,66,0
6984,note_on,,4,0,8,,,,,,,,,7,,,47,56
6984,note_on,,4,0,7,,,,,,,,,6,,,59,56
6984,note_on,,0,0,2,,,,,,,,,1,,,59,47
6984,note_on,,12,0,1,,,,,,,,,0,,,76,0
6984,note_on,,0,0,1,,,,,,,,,0,,,78,47
6984,note_on,,0,0,4,,,,,,,,,3,,,81,95
6984,note_on,,24,0,4,,,,,,,,,3,,,83,0
6984,note_on,,4,0,6,,,,,,,,,5,,,71,56
6984,note_on,,12,0,2,,,,,,,,,1,,,54,0
6984,note_on,,4,0,5,,,,,,,,,4,,,71,56
6992,note_on,,8,0,8,,,,,,,,,7,,,47,0
6992,note_on,,8,0,7,,,,,,,,,6,,,59,0
6992,note_on,,8,0,5,,,,,,,,,4,,,71,0
6992,note_on,,8,0,6,,,,,,,,,5,,,71,0
6996,note_on,,4,0,7,,,,,,,,,6,,,59,56
6996,note_on,,4,0,8,,,,,,,,,7,,,47,56
6996,note_on,,0,0,1,,,,,,,,,0,,,74,47
6996,note_on,,0,0,2,,,,,,,,,1,,,59,47
6996,note_on,,4,0,5,,,,,,,,,4,,,71,56
6996,note_on,,12,0,2,,,,,,,,,1,,,59,0
6996,note_on,,4,0,6,,,,,,,,,5,,,71,56
6996,note_on,,12,0,1,,,,,,,,,0,,,78,0
7004,note_on,,8,0,8,,,,,,,,,7,,,47,0
7004,note_on,,8,0,6,,,,,,,,,5,,,71,0
7004,note_on,,8,0,7,,,,,,,,,6,,,59,0
7004,note_on,,8,0,5,,,,,,,,,4,,,71,0
7008,note_on,,0,0,1,,,,,,,,,0,,,79,47
7008,note_on,,0,0,4,,,,,,,,,3,,,79,95
7008,note_on,,24,0,4,,,,,,,,,3,,,81,0
7008,note_on,,4,0,7,,,,,,,,,6,,,52,56
7008,note_on,,96,0,3,,,,,,,,,2,,,74,0
7008,note_on,,4,0,8,,,,,,,,,7,,,40,56
7008,note_on,,4,0,5,,,,,,,,,4,,,64,56
7008,note_on,,4,0,6,,,,,,,,,5,,,64,56
7008,note_on,,12,0,1,,,,,,,,,0,,,74,0
7008,note_on,,0,0,2,,,,,,,,,1,,,52,47
7008,note_on,,12,0,2,,,,,,,,,1,,,59,0
7016,note_on,,8,0,8,,,,,,,,,7,,,40,0
7016,note_on,,8,0,5,,,,,,,,,4,,,64,0
7016,note_on,,8,0,7,,,,,,,,,6,,,52,0
7016,note_on,,8,0,6,,,,,,,,,5,,,64,0
7020,note_on,,4,0,7,,,,,,,,,6,,,52,56
7020,note_on,,4,0,6,,,,,,,,,5,,,64,56
7020,note_on,,4,0,8,,,,,,,,,7,,,40,56
7020,note_on,,4,0,5,,,,,,,,,4,,,64,56
7020,note_on,,0,0,1,,,,,,,,,0,,,81,47
7020,note_on,,12,0,1,,,,,,,,,0,,,79,0
7020,note_on,,12,0,2,,,,,,,,,1,,,52,0
7020,note_on,,0,0,2,,,,,,,,,1,,,52,47
7028,note_on,,8,0,6,,,,,,,,,5,,,64,0
7028,note_on,,8,0,5,,,,,,,,,4,,,64,0
7028,note_on,,8,0,7,,,,,,,,,6,,,52,0
7028,note_on,,8,0,8,,,,,,,,,7,,,40,0
7032,note_on,,0,0,1,,,,,,,,,0,,,83,47
7032,note_on,,12,0,1,,,,,,,,,0,,,81,0
7032,note_on,,4,0,5,,,,,,,,,4,,,67,56
7032,note_on,,24,0,3,,,,,,,,,2,,,71,95
7032,note_on,,4,0,7,,,,,,,,,6,,,55,56
7032,note_on,,4,0,8,,,,,,,,,7,,,43,56
7032,note_on,,0,0,2,,,,,,,,,1,,,55,47
7032,note_on,,12,0,2,,,,,,,,,1,,,52,0
7032,note_on,,4,0,6,,,,,,,,,5,,,67,56
7040,note_on,,8,0,6,,,,,,,,,5,,,67,0
7040,note_on,,8,0,7,,,,,,,,,6,,,55,0
7040,note_on,,8,0,8,,,,,,,,,7,,,43,0
7040,note_on,,8,0,5,,,,,,,,,4,,,67,0
7044,note_on,,4,0,8,,,,,,,,,7,,,43,56
7044,note_on,,4,0,5,,,,,,,,,4,,,67,56
7044,note_on,,4,0,6,,,,,,,,,5,,,67,56
7044,note_on,,0,0,1,,,,,,,,,0,,,81,47
7044,note_on,,12,0,2,,,,,,,,,1,,,55,0
7044,note_on,,0,0,2,,,,,,,,,1,,,55,47
7044,note_on,,12,0,1,,,,,,,,,0,,,83,0
7044,note_on,,4,0,7,,,,,,,,,6,,,55,56
7052,note_on,,8,0,6,,,,,,,,,5,,,67,0
7052,note_on,,8,0,8,,,,,,,,,7,,,43,0
7052,note_on,,8,0,5,,,,,,,,,4,,,67,0
7052,note_on,,8,0,7,,,,,,,,,6,,,55,0
7056,note_on,,4,0,6,,,,,,,,,5,,,71,56
7056,note_on,,12,0,2,,,,,,,,,1,,,55,0
7056,note_on,,0,0,2,,,,,,,,,1,,,59,47
7056,note_on,,4,0,7,,,,,,,,,6,,,59,56
7056,note_on,,12,0,1,,,,,,,,,0,,,81,0
7056,note_on,,4,0,8,,,,,,,,,7,,,47,56
7056,note_on,,0,0,1,,,,,,,,,0,,,79,47
7056,note_on,,24,0,3,,,,,,,,,2,,,71,0
7056,note_on,,4,0,5,,,,,,,,,4,,,71,56
7056,note_on,,0,0,3,,,,,,,,,2,,,76,95
7064,note_on,,8,0,8,,,,,,,,,7,,,47,0
7064,note_on,,8,0,6,,,,,,,,,5,,,71,0
7064,note_on,,8,0,5,,,,,,,,,4,,,71,0
7064,note_on,,8,0,7,,,,,,,,,6,,,59,0
7068,note_on,,0,0,3,,,,,,,,,2,,,74,95
7068,note_on,,0,0,2,,,,,,,,,1,,,59,47
7068,note_on,,12,0,2,,,,,,,,,1,,,59,0
7068,note_on,,12,0,3,,,,,,,,,2,,,76,0
7068,note_on,,4,0,7,,,,,,,,,6,,,59,56
7068,note_on,,12,0,1,,,,,,,,,0,,,79,0
7068,note_on,,0,0,1,,,,,,,,,0,,,78,47
7068,note_on,,4,0,5,,,,,,,,,4,,,71,56
7068,note_on,,4,0,6,,,,,,,,,5,,,71,56
7068,note_on,,4,0,8,,,,,,,,,7,,,47,56
7076,note_on,,8,0,8,,,,,,,,,7,,,47,0
7076,note_on,,8,0,5,,,,,,,,,4,,,71,0
7076,note_on,,8,0,6,,,,,,,,,5,,,71,0
7076,note_on,,8,0,7,,,,,,,,,6,,,59,0
7080,note_on,,4,0,6,,,,,,,,,5,,,76,56
7080,note_on,,4,0,5,,,,,,,,,4,,,76,56
7080,note_on,,4,0,7,,,,,,,,,6,,,64,56
7080,note_on,,12,0,1,,,,,,,,,0,,,78,0
7080,note_on,,0,0,1,,,,,,,,,0,,,76,47
7080,note_on,,0,0,2,,,,,,,,,1,,,64,47
7080,note_on,,12,0,3,,,,,,,,,2,,,74,0
7080,note_on,,12,0,2,,,,,,,,,1,,,59,0
7080,note_on,,0,0,3,,,,,,,,,2,,,73,95
7080,note_on,,4,0,8,,,,,,,,,7,,,52,56
7088,note_on,,8,0,8,,,,,,,,,7,,,52,0
7088,note_on,,8,0,6,,,,,,,,,5,,,76,0
7088,note_on,,8,0,5,,,,,,,,,4,,,76,0
7088,note_on,,8,0,7,,,,,,,,,6,,,64,0
7092,note_on,,4,0,6,,,,,,,,,5,,,76,56
7092,note_on,,4,0,7,,,,,,,,,6,,,64,56
7092,note_on,,12,0,1,,,,,,,,,0,,,76,0
7092,note_on,,0,0,1,,,,,,,,,0,,,74,47
7092,note_on,,4,0,5,,,,,,,,,4,,,76,56
7092,note_on,,12,0,2,,,,,,,,,1,,,64,0
7092,note_on,,4,0,8,,,,,,,,,7,,,52,56
7092,note_on,,0,0,2,,,,,,,,,1,,,64,47
7092,note_on,,0,0,3,,,,,,,,,2,,,71,95
7092,note_on,,12,0,3,,,,,,,,,2,,,73,0
7100,note_on,,8,0,5,,,,,,,,,4,,,76,0
7100,note_on,,8,0,7,,,,,,,,,6,,,64,0
7100,note_on,,8,0,8,,,,,,,,,7,,,52,0
7100,note_on,,8,0,6,,,,,,,,,5,,,76,0
7104,note_on,,4,0,8,,,,,,,,,7,,,42,56
7104,note_on,,12,0,2,,,,,,,,,1,,,64,0
7104,note_on,,4,0,5,,,,,,,,,4,,,61,56
7104,note_on,,4,0,7,,,,,,,,,6,,,54,56
7104,note_on,,0,0,2,,,,,,,,,1,,,54,47
7104,note_on,,96,0,4,,,,,,,,,3,,,79,0
7104,note_on,,0,0,3,,,,,,,,,2,,,70,95
7104,note_on,,12,0,3,,,,,,,,,2,,,71,0
7104,note_on,,4,0,6,,,,,,,,,5,,,64,56
7104,note_on,,12,0,1,,,,,,,,,0,,,74,0
7104,note_on,,0,0,1,,,,,,,,,0,,,73,47
7116,note_on,,12,0,1,,,,,,,,,0,,,73,0
7116,note_on,,0,0,1,,,,,,,,,0,,,79,47
7128,note_on,,12,0,1,,,,,,,,,0,,,79,0
7128,note_on,,0,0,1,,,,,,,,,0,,,78,47
7128,note_on,,24,0,3,,,,,,,,,2,,,70,0
7128,note_on,,0,0,3,,,,,,,,,2,,,71,95
7128,note_on,,24,0,4,,,,,,,,,3,,,79,95
7134,note_on,,6,0,3,,,,,,,,,2,,,71,0
7134,note_on,,0,0,3,,,,,,,,,2,,,73,95
7136,note_on,,32,0,5,,,,,,,,,4,,,61,0
7136,note_on,,32,0,7,,,,,,,,,6,,,54,0
7136,note_on,,32,0,8,,,,,,,,,7,,,42,0
7136,note_on,,32,0,6,,,,,,,,,5,,,64,0
7140,note_on,,0,0,1,,,,,,,,,0,,,76,47
7140,note_on,,12,0,1,,,,,,,,,0,,,78,0
7140,note_on,,0,0,3,,,,,,,,,2,,,70,95
7140,note_on,,6,0,3,,,,,,,,,2,,,73,0
7146,note_on,,6,0,3,,,,,,,,,2,,,70,0
7146,note_on,,0,0,3,,,,,,,,,2,,,73,95
7152,note_on,,24,0,4,,,,,,,,,3,,,79,0
7152,note_on,,48,0,2,,,,,,,,,1,,,54,0
7152,note_on,,12,0,1,,,,,,,,,0,,,76,0
7152,note_on,,0,0,1,,,,,,,,,0,,,74,47
7152,note_on,,6,0,3,,,,,,,,,2,,,73,0
7152,note_on,,0,0,4,,,,,,,,,3,,,78,95
7152,note_on,,0,0,3,,,,,,,,,2,,,73,95
7164,note_on,,12,0,1,,,,,,,,,0,,,74,0
7164,note_on,,0,0,1,,,,,,,,,0,,,73,47
7176,note_on,,24,0,4,,,,,,,,,3,,,78,0
7176,note_on,,0,0,4,,,,,,,,,3,,,76,95
7176,note_on,,24,0,2,,,,,,,,,1,,,54,47
7176,note_on,,12,0,1,,,,,,,,,0,,,73,0
7176,note_on,,0,0,1,,,,,,,,,0,,,71,47
7188,note_on,,12,0,1,,,,,,,,,0,,,71,0
7188,note_on,,0,0,1,,,,,,,,,0,,,70,47
7200,note_on,,24,0,4,,,,,,,,,3,,,76,0
7200,note_on,,24,0,2,,,,,,,,,1,,,54,0
7200,note_on,,0,0,2,,,,,,,,,1,,,47,47
7200,note_on,,0,0,4,,,,,,,,,3,,,74,95
7200,note_on,,12,0,1,,,,,,,,,0,,,70,0
7200,note_on,,0,0,1,,,,,,,,,0,,,71,47
7212,note_on,,12,0,1,,,,,,,,,0,,,71,0
7212,note_on,,0,0,1,,,,,,,,,0,,,67,47
7224,note_on,,0,0,3,,,,,,,,,2,,,71,95
7224,note_on,,12,0,1,,,,,,,,,0,,,67,0
7224,note_on,,0,0,1,,,,,,,,,0,,,66,47
7224,note_on,,0,0,2,,,,,,,,,1,,,49,47
7224,note_on,,24,0,2,,,,,,,,,1,,,47,0
7224,note_on,,24,0,4,,,,,,,,,3,,,74,0
7224,note_on,,0,0,4,,,,,,,,,3,,,76,95
7224,note_on,,72,0,3,,,,,,,,,2,,,73,0
7236,note_on,,12,0,1,,,,,,,,,0,,,66,0
7236,note_on,,0,0,1,,,,,,,,,0,,,64,47
7236,note_on,,12,0,3,,,,,,,,,2,,,71,0
7236,note_on,,0,0,3,,,,,,,,,2,,,70,95
7248,note_on,,12,0,3,,,,,,,,,2,,,70,0
7248,note_on,,0,0,2,,,,,,,,,1,,,50,47
7248,note_on,,24,0,2,,,,,,,,,1,,,49,0
7248,note_on,,12,0,1,,,,,,,,,0,,,64,0
7248,note_on,,0,0,3,,,,,,,,,2,,,71,95
7248,note_on,,0,0,4,,,,,,,,,3,,,78,95
7248,note_on,,24,0,4,,,,,,,,,3,,,76,0
7248,note_on,,0,0,1,,,,,,,,,0,,,62,47
7260,note_on,,0,0,1,,,,,,,,,0,,,61,47
7260,note_on,,12,0,1,,,,,,,,,0,,,62,0
7272,note_on,,0,0,1,,,,,,,,,0,,,59,47
7272,note_on,,24,0,4,,,,,,,,,3,,,78,0
7272,note_on,,24,0,2,,,,,,,,,1,,,50,0
7272,note_on,,0,0,2,,,,,,,,,1,,,52,47
7272,note_on,,0,0,4,,,,,,,,,3,,,79,95
7272,note_on,,12,0,1,,,,,,,,,0,,,61,0
7284,note_on,,12,0,1,,,,,,,,,0,,,59,0
7284,note_on,,0,0,1,,,,,,,,,0,,,61,47
7296,note_on,,24,0,4,,,,,,,,,3,,,79,0
7296,note_on,,0,0,4,,,,,,,,,3,,,74,95
7296,note_on,,12,0,1,,,,,,,,,0,,,61,0
7296,note_on,,0,0,2,,,,,,,,,1,,,54,47
7296,note_on,,24,0,2,,,,,,,,,1,,,52,0
7296,note_on,,48,0,3,,,,,,,,,2,,,71,0
7296,note_on,,0,0,1,,,,,,,,,0,,,62,47
7308,note_on,,12,0,1,,,,,,,,,0,,,62,0
7308,note_on,,0,0,1,,,,,,,,,0,,,64,47
7320,note_on,,0,0,2,,,,,,,,,1,,,52,47
7320,note_on,,0,0,1,,,,,,,,,0,,,66,47
7320,note_on,,12,0,1,,,,,,,,,0,,,64,0
7320,note_on,,24,0,2,,,,,,,,,1,,,54,0
7332,note_on,,0,0,1,,,,,,,,,0,,,67,47
7332,note_on,,0,0,4,,,,,,,,,3,,,76,95
7332,note_on,,36,0,4,,,,,,,,,3,,,74,0
7332,note_on,,36,0,3,,,,,,,,,2,,,73,95
7332,note_on,,12,0,1,,,,,,,,,0,,,66,0
7344,note_on,,24,0,2,,,,,,,,,1,,,52,0
7344,note_on,,0,0,2,,,,,,,,,1,,,54,47
7344,note_on,,12,0,1,,,,,,,,,0,,,67,0
7344,note_on,,0,0,1,,,,,,,,,0,,,66,47
7344,note_on,,12,0,4,,,,,,,,,3,,,76,0
7344,note_on,,0,0,3,,,,,,,,,2,,,70,95
7344,note_on,,12,0,3,,,,,,,,,2,,,73,0
7344,note_on,,0,0,4,,,,,,,,,3,,,73,95
7356,note_on,,0,0,1,,,,,,,,,0,,,64,47
7356,note_on,,12,0,1,,,,,,,,,0,,,66,0
7368,note_on,,0,0,2,,,,,,,,,1,,,42,47
7368,note_on,,0,0,1,,,,,,,,,0,,,62,47
7368,note_on,,12,0,1,,,,,,,,,0,,,64,0
7368,note_on,,24,0,2,,,,,,,,,1,,,54,0
7380,note_on,,0,0,4,,,,,,,,,3,,,71,95
7380,note_on,,0,0,3,,,,,,,,,2,,,71,95
7380,note_on,,36,0,3,,,,,,,,,2,,,70,0
7380,note_on,,12,0,1,,,,,,,,,0,,,62,0
7380,note_on,,0,0,1,,,,,,,,,0,,,61,47
7380,note_on,,36,0,4,,,,,,,,,3,,,73,0
7392,note_on,,0,0,1,,,,,,,,,0,,,62,47
7392,note_on,,12,0,1,,,,,,,,,0,,,61,0
7392,note_on,,12,0,4,,,,,,,,,3,,,71,0
7392,note_on,,0,0,4,,,,,,,,,3,,,71,95
7392,note_on,,12,0,3,,,,,,,,,2,,,71,0
7392,note_on,,24,0,2,,,,,,,,,1,,,42,0
7392,note_on,,0,0,2,,,,,,,,,1,,,47,47
7392,note_on,,256,0,5,,,,,,,,,4,,,59,95
7392,note_on,,0,0,3,,,,,,,,,2,,,71,95
7400,note_on,,8,0,5,,,,,,,,,4,,,59,0
7404,note_on,,4,0,5,,,,,,,,,4,,,61,95
7404,note_on,,12,0,1,,,,,,,,,0,,,62,0
7404,note_on,,0,0,1,,,,,,,,,0,,,64,47
7412,note_on,,8,0,5,,,,,,,,,4,,,61,0
7416,note_on,,4,0,5,,,,,,,,,4,,,62,95
7416,note_on,,0,0,1,,,,,,,,,0,,,66,47
7416,note_on,,0,0,4,,,,,,,,,3,,,62,95
7416,note_on,,24,0,4,,,,,,,,,3,,,71,0
7416,note_on,,12,0,1,,,,,,,,,0,,,64,0
7424,note_on,,32,0,3,,,,,,,,,2,,,71,0
7424,note_on,,8,0,5,,,,,,,,,4,,,62,0
7428,note_on,,0,0,4,,,,,,,,,3,,,64,95
7428,note_on,,0,0,1,,,,,,,,,0,,,68,47
7428,note_on,,12,0,4,,,,,,,,,3,,,62,0
7428,note_on,,12,0,1,,,,,,,,,0,,,66,0
7428,note_on,,4,0,5,,,,,,,,,4,,,64,95
7436,note_on,,8,0,5,,,,,,,,,4,,,64,0
7440,note_on,,0,0,4,,,,,,,,,3,,,66,95
7440,note_on,,12,0,4,,,,,,,,,3,,,64,0
7440,note_on,,48,0,2,,,,,,,,,1,,,47,0
7440,note_on,,4,0,5,,,,,,,,,4,,,66,95
7440,note_on,,12,0,1,,,,,,,,,0,,,68,0
7440,note_on,,0,0,1,,,,,,,,,0,,,70,47
7448,note_on,,8,0,5,,,,,,,,,4,,,66,0
7452,note_on,,0,0,1,,,,,,,,,0,,,71,47
7452,note_on,,0,0,4,,,,,,,,,3,,,68,95
7452,note_on,,4,0,5,,,,,,,,,4,,,68,95
7452,note_on,,12,0,1,,,,,,,,,0,,,70,0
7452,note_on,,12,0,4,,,,,,,,,3,,,66,0
7460,note_on,,8,0,5,,,,,,,,,4,,,68,0
7464,note_on,,4,0,5,,,,,,,,,4,,,70,95
7464,note_on,,0,0,4,,,,,,,,,3,,,70,95
7464,note_on,,24,0,2,,,,,,,,,1,,,50,47
7464,note_on,,12,0,4,,,,,,,,,3,,,68,0
7464,note_on,,12,0,1,,,,,,,,,0,,,71,0
7464,note_on,,0,0,1,,,,,,,,,0,,,73,47
7472,note_on,,8,0,5,,,,,,,,,4,,,70,0
7476,note_on,,12,0,4,,,,,,,,,3,,,70,0
7476,note_on,,4,0,5,,,,,,,,,4,,,66,95
7476,note_on,,0,0,4,,,,,,,,,3,,,66,95
7476,note_on,,0,0,1,,,,,,,,,0,,,70,47
7476,note_on,,12,0,1,,,,,,,,,0,,,73,0
7484,note_on,,8,0,5,,,,,,,,,4,,,66,0
7488,note_on,,12,0,4,,,,,,,,,3,,,66,0
7488,note_on,,0,0,4,,,,,,,,,3,,,71,95
7488,note_on,,0,0,1,,,,,,,,,0,,,71,47
7488,note_on,,0,0,1,,,,,,,,,0,,,66,47
7488,note_on,,0,0,1,,,,,,,,,0,,,78,47
7488,note_on,,24,0,2,,,,,,,,,1,,,50,0
7488,note_on,,0,0,2,,,,,,,,,1,,,62,47
7488,note_on,,12,0,1,,,,,,,,,0,,,70,0
7488,note_on,,352,0,6,,,,,,,,,5,,,66,95
7488,note_on,,352,0,8,,,,,,,,,7,,,50,95
7488,note_on,,4,0,5,,,,,,,,,4,,,71,95
7488,note_on,,352,0,7,,,,,,,,,6,,,62,95
7496,note_on,,8,0,5,,,,,,,,,4,,,71,0
7500,note_on,,4,0,5,,,,,,,,,4,,,71,95
7500,note_on,,12,0,4,,,,,,,,,3,,,71,0
7500,note_on,,0,0,4,,,,,,,,,3,,,71,95
7504,note_on,,16,0,7,,,,,,,,,6,,,62,0
7504,note_on,,16,0,6,,,,,,,,,5,,,66,0
7504,note_on,,16,0,8,,,,,,,,,7,,,50,0
7508,note_on,,8,0,5,,,,,,,,,4,,,71,0
7512,note_on,,0,0,2,,,,,,,,,1,,,61,47
7512,note_on,,24,0,2,,,,,,,,,1,,,62,0
7512,note_on,,0,0,1,,,,,,,,,0,,,71,0
7512,note_on,,0,0,1,,,,,,,,,0,,,66,0
7512,note_on,,24,0,1,,,,,,,,,0,,,78,0
7512,note_on,,4,0,5,,,,,,,,,4,,,70,95
7512,note_on,,8,0,8,,,,,,,,,7,,,49,95
7512,note_on,,8,0,6,,,,,,,,,5,,,64,95
7512,note_on,,0,0,4,,,,,,,,,3,,,70,95
7512,note_on,,12,0,4,,,,,,,,,3,,,71,0
7512,note_on,,8,0,7,,,,,,,,,6,,,61,95
7520,note_on,,8,0,5,,,,,,,,,4,,,70,0
7524,note_on,,12,0,4,,,,,,,,,3,,,70,0
7524,note_on,,4,0,5,,,,,,,,,4,,,70,95
7524,note_on,,0,0,4,,,,,,,,,3,,,70,95
7528,note_on,,16,0,8,,,,,,,,,7,,,49,0
7528,note_on,,16,0,6,,,,,,,,,5,,,64,0
7528,note_on,,16,0,7,,,,,,,,,6,,,61,0
7532,note_on,,8,0,5,,,,,,,,,4,,,70,0
7536,note_on,,8,0,6,,,,,,,,,5,,,66,95
7536,note_on,,24,0,2,,,,,,,,,1,,,61,0
7536,note_on,,12,0,4,,,,,,,,,3,,,70,0
7536,note_on,,8,0,7,,,,,,,,,6,,,59,95
7536,note_on,,8,0,8,,,,,,,,,7,,,47,95
7536,note_on,,4,0,5,,,,,,,,,4,,,74,95
7536,note_on,,0,0,4,,,,,,,,,3,,,74,95
7536,note_on,,0,0,2,,,,,,,,,1,,,59,47
7544,note_on,,8,0,5,,,,,,,,,4,,,74,0
7548,note_on,,12,0,4,,,,,,,,,3,,,74,0
7548,note_on,,0,0,4,,,,,,,,,3,,,74,95
7548,note_on,,4,0,5,,,,,,,,,4,,,74,95
7552,note_on,,16,0,8,,,,,,,,,7,,,47,0
7552,note_on,,16,0,7,,,,,,,,,6,,,59,0
7552,note_on,,16,0,6,,,,,,,,,5,,,66,0
7556,note_on,,8,0,5,,,,,,,,,4,,,74,0
7560,note_on,,0,0,4,,,,,,,,,3,,,73,95
7560,note_on,,8,0,8,,,,,,,,,7,,,45,95
7560,note_on,,4,0,5,,,,,,,,,4,,,73,95
7560,note_on,,24,0,2,,,,,,,,,1,,,59,0
7560,note_on,,8,0,7,,,,,,,,,6,,,57,95
7560,note_on,,8,0,6,,,,,,,,,5,,,66,95
7560,note_on,,0,0,2,,,,,,,,,1,,,57,47
7560,note_on,,12,0,4,,,,,,,,,3,,,74,0
7568,note_on,,8,0,5,,,,,,,,,4,,,73,0
7572,note_on,,4,0,5,,,,,,,,,4,,,73,95
7572,note_on,,0,0,4,,,,,,,,,3,,,73,95
7572,note_on,,12,0,4,,,,,,,,,3,,,73,0
7576,note_on,,16,0,6,,,,,,,,,5,,,66,0
7576,note_on,,16,0,7,,,,,,,,,6,,,57,0
7576,note_on,,16,0,8,,,,,,,,,7,,,45,0
7580,note_on,,8,0,5,,,,,,,,,4,,,73,0
7584,note_on,,8,0,6,,,,,,,,,5,,,71,95
7584,note_on,,0,0,2,,,,,,,,,1,,,55,47
7584,note_on,,24,0,2,,,,,,,,,1,,,57,0
7584,note_on,,12,0,4,,,,,,,,,3,,,73,0
7584,note_on,,0,0,4,,,,,,,,,3,,,76,95
7584,note_on,,8,0,7,,,,,,,,,6,,,55,95
7584,note_on,,8,0,8,,,,,,,,,7,,,43,95
7584,note_on,,4,0,5,,,,,,,,,4,,,76,95
7592,note_on,,8,0,5,,,,,,,,,4,,,76,0
7596,note_on,,12,0,4,,,,,,,,,3,,,76,0
7596,note_on,,0,0,4,,,,,,,,,3,,,76,95
7596,note_on,,4,0,5,,,,,,,,,4,,,76,95
7600,note_on,,16,0,7,,,,,,,,,6,,,55,0
7600,note_on,,16,0,8,,,,,,,,,7,,,43,0
7600,note_on,,16,0,6,,,,,,,,,5,,,71,0
7604,note_on,,8,0,5,,,,,,,,,4,,,76,0
7608,note_on,,8,0,7,,,,,,,,,6,,,54,95
7608,note_on,,8,0,8,,,,,,,,,7,,,42,95
7608,note_on,,0,0,2,,,,,,,,,1,,,54,47
7608,note_on,,24,0,2,,,,,,,,,1,,,55,0
7608,note_on,,12,0,4,,,,,,,,,3,,,76,0
7608,note_on,,0,0,4,,,,,,,,,3,,,75,95
7608,note_on,,8,0,6,,,,,,,,,5,,,69,95
7608,note_on,,4,0,5,,,,,,,,,4,,,75,95
7616,note_on,,8,0,5,,,,,,,,,4,,,75,0
7620,note_on,,4,0,5,,,,,,,,,4,,,75,95
7620,note_on,,12,0,4,,,,,,,,,3,,,75,0
7620,note_on,,0,0,4,,,,,,,,,3,,,75,95
7624,note_on,,16,0,8,,,,,,,,,7,,,42,0
7624,note_on,,16,0,6,,,,,,,,,5,,,69,0
7624,note_on,,16,0,7,,,,,,,,,6,,,54,0
7628,note_on,,8,0,5,,,,,,,,,4,,,75,0
7632,note_on,,4,0,5,,,,,,,,,4,,,79,95
7632,note_on,,24,0,2,,,,,,,,,1,,,54,0
7632,note_on,,12,0,4,,,,,,,,,3,,,75,0
7632,note_on,,8,0,8,,,,,,,,,7,,,40,95
7632,note_on,,8,0,6,,,,,,,,,5,,,71,95
7632,note_on,,8,0,7,,,,,,,,,6,,,52,95
7632,note_on,,0,0,4,,,,,,,,,3,,,79,95
7632,note_on,,0,0,2,,,,,,,,,1,,,52,47
7640,note_on,,8,0,5,,,,,,,,,4,,,79,0
7644,note_on,,12,0,4,,,,,,,,,3,,,79,0
7644,note_on,,0,0,4,,,,,,,,,3,,,79,95
7644,note_on,,4,0,5,,,,,,,,,4,,,79,95
7648,note_on,,16,0,6,,,,,,,,,5,,,71,0
7648,note_on,,16,0,8,,,,,,,,,7,,,40,0
7648,note_on,,16,0,7,,,,,,,,,6,,,52,0
7652,note_on,,8,0,5,,,,,,,,,4,,,79,0
7656,note_on,,4,0,5,,,,,,,,,4,,,78,95
7656,note_on,,24,0,2,,,,,,,,,1,,,52,0
7656,note_on,,8,0,8,,,,,,,,,7,,,38,95
7656,note_on,,12,0,4,,,,,,,,,3,,,79,0
7656,note_on,,0,0,4,,,,,,,,,3,,,78,95
7656,note_on,,8,0,6,,,,,,,,,5,,,59,95
7656,note_on,,8,0,7,,,,,,,,,6,,,50,95
7656,note_on,,0,0,2,,,,,,,,,1,,,50,47
7664,note_on,,8,0,5,,,,,,,,,4,,,78,0
7668,note_on,,4,0,5,,,,,,,,,4,,,78,95
7668,note_on,,12,0,4,,,,,,,,,3,,,78,0
7668,note_on,,0,0,4,,,,,,,,,3,,,78,95
7672,note_on,,16,0,8,,,,,,,,,7,,,38,0
7672,note_on,,16,0,7,,,,,,,,,6,,,50,0
7672,note_on,,16,0,6,,,,,,,,,5,,,59,0
7676,note_on,,8,0,5,,,,,,,,,4,,,78,0
7680,note_on,,0,0,2,,,,,,,,,1,,,49,47
7680,note_on,,24,0,2,,,,,,,,,1,,,50,0
7680,note_on,,8,0,8,,,,,,,,,7,,,37,95
7680,note_on,,0,0,4,,,,,,,,,3,,,82,95
7680,note_on,,12,0,4,,,,,,,,,3,,,78,0
7680,note_on,,8,0,7,,,,,,,,,6,,,49,95
7680,note_on,,8,0,6,,,,,,,,,5,,,64,95
7680,note_on,,4,0,5,,,,,,,,,4,,,82,95
7692,note_on,,12,0,5,,,,,,,,,4,,,82,0
7692,note_on,,0,0,5,,,,,,,,,4,,,82,95
7692,note_on,,0,0,4,,,,,,,,,3,,,82,95
7692,note_on,,12,0,4,,,,,,,,,3,,,82,0
7696,note_on,,16,0,6,,,,,,,,,5,,,64,0
7696,note_on,,16,0,7,,,,,,,,,6,,,49,0
7696,note_on,,16,0,8,,,,,,,,,7,,,37,0
7704,note_on,,8,0,7,,,,,,,,,6,,,47,95
7704,note_on,,12,0,5,,,,,,,,,4,,,82,0
7704,note_on,,0,0,5,,,,,,,,,4,,,83,95
7704,note_on,,8,0,6,,,,,,,,,5,,,62,95
7704,note_on,,24,0,2,,,,,,,,,1,,,49,0
7704,note_on,,0,0,4,,,,,,,,,3,,,83,95
7704,note_on,,8,0,8,,,,,,,,,7,,,35,95
7704,note_on,,0,0,2,,,,,,,,,1,,,47,47
7704,note_on,,12,0,4,,,,,,,,,3,,,82,0
7716,note_on,,0,0,5,,,,,,,,,4,,,83,95
7716,note_on,,0,0,4,,,,,,,,,3,,,83,95
7716,note_on,,12,0,4,,,,,,,,,3,,,83,0
7716,note_on,,12,0,5,,,,,,,,,4,,,83,0
7720,note_on,,16,0,7,,,,,,,,,6,,,47,0
7720,note_on,,16,0,8,,,,,,,,,7,,,35,0
7720,note_on,,16,0,6,,,,,,,,,5,,,62,0
7728,note_on,,12,0,4,,,,,,,,,3,,,83,0
7728,note_on,,12,0,5,,,,,,,,,4,,,83,0
7728,note_on,,0,0,5,,,,,,,,,4,,,77,95
7728,note_on,,8,0,7,,,,,,,,,6,,,47,95
7728,note_on,,8,0,6,,,,,,,,,5,,,61,95
7728,note_on,,0,0,4,,,,,,,,,3,,,77,95
7728,note_on,,8,0,8,,,,,,,,,7,,,35,95
7728,note_on,,0,0,2,,,,,,,,,1,,,47,47
7728,note_on,,24,0,2,,,,,,,,,1,,,47,0
7740,note_on,,0,0,4,,,,,,,,,3,,,77,95
7740,note_on,,12,0,4,,,,,,,,,3,,,77,0
7740,note_on,,12,0,5,,,,,,,,,4,,,77,0
7740,note_on,,0,0,5,,,,,,,,,4,,,77,95
7744,note_on,,16,0,6,,,,,,,,,5,,,61,0
7744,note_on,,16,0,8,,,,,,,,,7,,,35,0
7744,note_on,,16,0,7,,,,,,,,,6,,,47,0
7752,note_on,,0,0,2,,,,,,,,,1,,,46,47
7752,note_on,,24,0,2,,,,,,,,,1,,,47,0
7752,note_on,,8,0,6,,,,,,,,,5,,,73,95
7752,note_on,,8,0,8,,,,,,,,,7,,,34,95
7752,note_on,,12,0,4,,,,,,,,,3,,,77,0
7752,note_on,,0,0,4,,,,,,,,,3,,,78,95
7752,note_on,,0,0,5,,,,,,,,,4,,,78,95
7752,note_on,,12,0,5,,,,,,,,,4,,,77,0
7752,note_on,,8,0,7,,,,,,,,,6,,,46,95
7764,note_on,,12,0,5,,,,,,,,,4,,,78,0
7764,note_on,,0,0,5,,,,,,,,,4,,,78,95
7764,note_on,,12,0,4,,,,,,,,,3,,,78,0
7764,note_on,,0,0,4,,,,,,,,,3,,,78,95
7768,note_on,,16,0,7,,,,,,,,,6,,,46,0
7768,note_on,,16,0,6,,,,,,,,,5,,,73,0
7768,note_on,,16,0,8,,,,,,,,,7,,,34,0
7776,note_on,,0,0,2,,,,,,,,,1,,,47,47
7776,note_on,,8,0,7,,,,,,,,,6,,,47,95
7776,note_on,,8,0,6,,,,,,,,,5,,,71,95
7776,note_on,,8,0,8,,,,,,,,,7,,,35,95
7776,note_on,,12,0,5,,,,,,,,,4,,,78,0
7776,note_on,,0,0,5,,,,,,,,,4,,,76,95
7776,note_on,,12,0,4,,,,,,,,,3,,,78,0
7776,note_on,,24,0,2,,,,,,,,,1,,,46,0
7776,note_on,,0,0,4,,,,,,,,,3,,,76,95
7788,note_on,,0,0,5,,,,,,,,,4,,,74,95
7788,note_on,,12,0,5,,,,,,,,,4,,,76,0
7788,note_on,,0,0,4,,,,,,,,,3,,,74,95
7788,note_on,,12,0,4,,,,,,,,,3,,,76,0
7792,note_on,,16,0,6,,,,,,,,,5,,,71,0
7792,note_on,,16,0,8,,,,,,,,,7,,,35,0
7792,note_on,,16,0,7,,,,,,,,,6,,,47,0
7800,note_on,,24,0,2,,,,,,,,,1,,,47,0
7800,note_on,,0,0,5,,,,,,,,,4,,,73,95
7800,note_on,,12,0,5,,,,,,,,,4,,,74,0
7800,note_on,,12,0,4,,,,,,,,,3,,,74,0
7800,note_on,,0,0,4,,,,,,,,,3,,,73,95
7800,note_on,,0,0,2,,,,,,,,,1,,,43,47
7800,note_on,,8,0,6,,,,,,,,,5,,,62,95
7800,note_on,,8,0,8,,,,,,,,,7,,,31,95
7800,note_on,,8,0,7,,,,,,,,,6,,,43,95
7812,note_on,,0,0,5,,,,,,,,,4,,,71,95
7812,note_on,,12,0,5,,,,,,,,,4,,,73,0
7812,note_on,,0,0,4,,,,,,,,,3,,,71,95
7812,note_on,,12,0,4,,,,,,,,,3,,,73,0
7816,note_on,,16,0,6,,,,,,,,,5,,,62,0
7816,note_on,,16,0,7,,,,,,,,,6,,,43,0
7816,note_on,,16,0,8,,,,,,,,,7,,,31,0
7824,note_on,,12,0,5,,,,,,,,,4,,,71,0
7824,note_on,,8,0,6,,,,,,,,,5,,,67,95
7824,note_on,,12,0,4,,,,,,,,,3,,,71,0
7824,note_on,,8,0,7,,,,,,,,,6,,,40,95
7824,note_on,,0,0,5,,,,,,,,,4,,,74,95
7824,note_on,,0,0,2,,,,,,,,,1,,,40,47
7824,note_on,,24,0,2,,,,,,,,,1,,,43,0
7824,note_on,,8,0,8,,,,,,,,,7,,,28,95
7824,note_on,,0,0,4,,,,,,,,,3,,,74,95
7836,note_on,,0,0,5,,,,,,,,,4,,,73,95
7836,note_on,,0,0,4,,,,,,,,,3,,,73,95
7836,note_on,,12,0,5,,,,,,,,,4,,,74,0
7836,note_on,,12,0,4,,,,,,,,,3,,,74,0
7840,note_on,,16,0,6,,,,,,,,,5,,,67,0
7840,note_on,,16,0,8,,,,,,,,,7,,,28,0
7840,note_on,,16,0,7,,,,,,,,,6,,,40,0
7848,note_on,,12,0,5,,,,,,,,,4,,,73,0
7848,note_on,,8,0,6,,,,,,,,,5,,,61,95
7848,note_on,,8,0,7,,,,,,,,,6,,,42,95
7848,note_on,,0,0,5,,,,,,,,,4,,,71,95
7848,note_on,,8,0,8,,,,,,,,,7,,,30,95
7848,note_on,,0,0,4,,,,,,,,,3,,,71,95
7848,note_on,,0,0,2,,,,,,,,,1,,,42,47
7848,note_on,,24,0,2,,,,,,,,,1,,,40,0
7848,note_on,,12,0,4,,,,,,,,,3,,,73,0
7860,note_on,,12,0,4,,,,,,,,,3,,,71,0
7860,note_on,,12,0,5,,,,,,,,,4,,,71,0
7860,note_on,,0,0,5,,,,,,,,,4,,,70,95
7860,note_on,,0,0,4,,,,,,,,,3,,,70,95
7864,note_on,,16,0,8,,,,,,,,,7,,,30,0
7864,note_on,,16,0,7,,,,,,,,,6,,,42,0
7864,note_on,,16,0,6,,,,,,,,,5,,,61,0
7872,note_on,,8,0,7,,,,,,,,,6,,,47,95
7872,note_on,,8,0,6,,,,,,,,,5,,,62,95
7872,note_on,,12,0,5,,,,,,,,,4,,,70,0
7872,note_on,,24,0,2,,,,,,,,,1,,,42,0
7872,note_on,,0,0,4,,,,,,,,,3,,,71,95
7872,note_on,,12,0,4,,,,,,,,,3,,,70,0
7872,note_on,,0,0,5,,,,,,,,,4,,,71,95
7872,note_on,,8,0,8,,,,,,,,,7,,,35,95
7872,note_on,,0,0,2,,,,,,,,,1,,,47,95
7884,note_on,,372,0,1,,,,,,,,,0,,,74,95
7888,note_on,,16,0,7,,,,,,,,,6,,,47,0
7888,note_on,,16,0,8,,,,,,,,,7,,,35,0
7892,note_on,,8,0,1,,,,,,,,,0,,,74,0
7896,note_on,,0,0,2,,,,,,,,,1,,,62,95
7896,note_on,,4,0,1,,,,,,,,,0,,,78,95
7896,note_on,,24,0,2,,,,,,,,,1,,,47,0
7904,note_on,,32,0,6,,,,,,,,,5,,,62,0
7904,note_on,,8,0,1,,,,,,,,,0,,,78,0
7908,note_on,,4,0,1,,,,,,,,,0,,,83,95
7916,note_on,,8,0,1,,,,,,,,,0,,,83,0
7920,note_on,,48,0,4,,,,,,,,,3,,,71,0
7920,note_on,,4,0,1,,,,,,,,,0,,,76,95
7920,note_on,,24,0,2,,,,,,,,,1,,,62,0
7920,note_on,,0,0,2,,,,,,,,,1,,,61,95
7920,note_on,,48,0,5,,,,,,,,,4,,,71,0
7928,note_on,,8,0,2,,,,,,,,,1,,,61,0
7928,note_on,,8,0,1,,,,,,,,,0,,,76,0
7928,note_on,,0,0,2,,,,,,,,,1,,,62,95
7932,note_on,,4,0,1,,,,,,,,,0,,,81,95
7936,note_on,,8,0,2,,,,,,,,,1,,,62,0
7936,note_on,,0,0,2,,,,,,,,,1,,,61,95
7940,note_on,,8,0,1,,,,,,,,,0,,,81,0
7944,note_on,,8,0,2,,,,,,,,,1,,,61,0
7944,note_on,,0,0,2,,,,,,,,,1,,,59,95
7944,note_on,,4,0,1,,,,,,,,,0,,,74,95
7952,note_on,,0,0,2,,,,,,,,,1,,,61,95
7952,note_on,,8,0,1,,,,,,,,,0,,,74,0
7952,note_on,,8,0,2,,,,,,,,,1,,,59,0
7956,note_on,,4,0,1,,,,,,,,,0,,,79,95
7960,note_on,,8,0,2,,,,,,,,,1,,,61,0
7960,note_on,,0,0,2,,,,,,,,,1,,,59,95
7964,note_on,,8,0,1,,,,,,,,,0,,,79,0
7968,note_on,,8,0,2,,,,,,,,,1,,,59,0
7968,note_on,,4,0,1,,,,,,,,,0,,,73,95
7968,note_on,,0,0,2,,,,,,,,,1,,,58,95
7976,note_on,,8,0,1,,,,,,,,,0,,,73,0
7980,note_on,,4,0,1,,,,,,,,,0,,,78,95
7988,note_on,,8,0,1,,,,,,,,,0,,,78,0
7992,note_on,,4,0,1,,,,,,,,,0,,,74,95
7992,note_on,,72,0,4,,,,,,,,,3,,,71,79
7992,note_on,,24,0,2,,,,,,,,,1,,,58,0
8000,note_on,,8,0,1,,,,,,,,,0,,,74,0
8004,note_on,,4,0,1,,,,,,,,,0,,,78,95
8012,note_on,,20,0,4,,,,,,,,,3,,,71,0
8012,note_on,,8,0,1,,,,,,,,,0,,,78,0
8016,note_on,,4,0,1,,,,,,,,,0,,,73,95
8016,note_on,,4,0,4,,,,,,,,,3,,,70,79
8024,note_on,,8,0,1,,,,,,,,,0,,,73,0
8028,note_on,,4,0,1,,,,,,,,,0,,,78,95
8036,note_on,,20,0,4,,,,,,,,,3,,,70,0
8036,note_on,,8,0,1,,,,,,,,,0,,,78,0
8040,note_on,,4,0,4,,,,,,,,,3,,,68,79
8040,note_on,,4,0,1,,,,,,,,,0,,,71,95
8048,note_on,,8,0,1,,,,,,,,,0,,,71,0
8052,note_on,,4,0,1,,,,,,,,,0,,,78,95
8060,note_on,,20,0,4,,,,,,,,,3,,,68,0
8060,note_on,,8,0,1,,,,,,,,,0,,,78,0
8064,note_on,,4,0,4,,,,,,,,,3,,,66,79
8064,note_on,,4,0,1,,,,,,,,,0,,,70,95
8072,note_on,,8,0,1,,,,,,,,,0,,,70,0
8076,note_on,,4,0,1,,,,,,,,,0,,,78,95
8084,note_on,,8,0,1,,,,,,,,,0,,,78,0
8088,note_on,,4,0,1,,,,,,,,,0,,,71,95
8088,note_on,,664,0,3,,,,,,,,,2,,,74,95
8096,note_on,,8,0,1,,,,,,,,,0,,,71,0
8100,note_on,,4,0,1,,,,,,,,,0,,,78,95
8108,note_on,,8,0,1,,,,,,,,,0,,,78,0
8112,note_on,,24,0,3,,,,,,,,,2,,,74,0
8112,note_on,,0,0,3,,,,,,,,,2,,,73,95
8112,note_on,,4,0,1,,,,,,,,,0,,,70,95
8120,note_on,,8,0,1,,,,,,,,,0,,,70,0
8124,note_on,,4,0,1,,,,,,,,,0,,,78,95
8132,note_on,,8,0,1,,,,,,,,,0,,,78,0
8136,note_on,,24,0,3,,,,,,,,,2,,,73,0
8136,note_on,,0,0,3,,,,,,,,,2,,,71,95
8136,note_on,,4,0,1,,,,,,,,,0,,,68,95
8144,note_on,,8,0,1,,,,,,,,,0,,,68,0
8144,note_on,,80,0,4,,,,,,,,,3,,,66,0
8148,note_on,,4,0,1,,,,,,,,,0,,,78,95
8156,note_on,,8,0,1,,,,,,,,,0,,,78,0
8160,note_on,,4,0,1,,,,,,,,,0,,,66,95
8160,note_on,,0,0,3,,,,,,,,,2,,,70,95
8160,note_on,,24,0,3,,,,,,,,,2,,,71,0
8172,note_on,,180,0,2,,,,,,,,,1,,,54,95
8176,note_on,,16,0,1,,,,,,,,,0,,,66,0
8184,note_on,,0,0,2,,,,,,,,,1,,,52,95
8184,note_on,,12,0,2,,,,,,,,,1,,,54,0
8184,note_on,,40,0,4,,,,,,,,,3,,,79,79
8184,note_on,,8,0,1,,,,,,,,,0,,,70,95
8189,note_on,,5,0,1,,,,,,,,,0,,,70,0
8192,note_on,,3,0,1,,,,,,,,,0,,,68,95
8196,note_on,,0,0,2,,,,,,,,,1,,,54,95
8196,note_on,,12,0,2,,,,,,,,,1,,,52,0
8197,note_on,,5,0,1,,,,,,,,,0,,,68,0
8200,note_on,,3,0,1,,,,,,,,,0,,,70,95
8204,note_on,,20,0,4,,,,,,,,,3,,,79,0
8205,note_on,,5,0,1,,,,,,,,,0,,,70,0
8208,note_on,,4,0,4,,,,,,,,,3,,,78,79
8208,note_on,,0,0,2,,,,,,,,,1,,,50,95
8208,note_on,,12,0,2,,,,,,,,,1,,,54,0
8208,note_on,,3,0,1,,,,,,,,,0,,,71,95
8208,note_on,,48,0,3,,,,,,,,,2,,,70,0
8213,note_on,,5,0,1,,,,,,,,,0,,,71,0
8216,note_on,,3,0,1,,,,,,,,,0,,,70,95
8220,note_on,,0,0,2,,,,,,,,,1,,,54,95
8220,note_on,,12,0,2,,,,,,,,,1,,,50,0
8221,note_on,,5,0,1,,,,,,,,,0,,,70,0
8224,note_on,,3,0,1,,,,,,,,,0,,,71,95
8228,note_on,,20,0,4,,,,,,,,,3,,,78,0
8229,note_on,,5,0,1,,,,,,,,,0,,,71,0
8232,note_on,,3,0,1,,,,,,,,,0,,,73,95
8232,note_on,,24,0,3,,,,,,,,,2,,,70,95
8232,note_on,,4,0,4,,,,,,,,,3,,,76,79
8232,note_on,,12,0,2,,,,,,,,,1,,,54,0
8232,note_on,,0,0,2,,,,,,,,,1,,,49,95
8237,note_on,,5,0,1,,,,,,,,,0,,,73,0
8240,note_on,,3,0,1,,,,,,,,,0,,,71,95
8244,note_on,,12,0,2,,,,,,,,,1,,,49,0
8244,note_on,,0,0,2,,,,,,,,,1,,,54,95
8245,note_on,,5,0,1,,,,,,,,,0,,,71,0
8248,note_on,,3,0,1,,,,,,,,,0,,,73,95
8252,note_on,,20,0,4,,,,,,,,,3,,,76,0
8253,note_on,,5,0,1,,,,,,,,,0,,,73,0
8256,note_on,,4,0,4,,,,,,,,,3,,,74,79
8256,note_on,,3,0,1,,,,,,,,,0,,,74,95
8256,note_on,,24,0,3,,,,,,,,,2,,,70,0
8256,note_on,,12,0,2,,,,,,,,,1,,,54,0
8256,note_on,,0,0,2,,,,,,,,,1,,,47,95
8256,note_on,,0,0,3,,,,,,,,,2,,,71,95
8264,note_on,,8,0,1,,,,,,,,,0,,,74,0
8266,note_on,,10,0,4,,,,,,,,,3,,,74,0
8268,note_on,,12,0,2,,,,,,,,,1,,,47,0
8268,note_on,,4,0,1,,,,,,,,,0,,,73,95
8268,note_on,,12,0,3,,,,,,,,,2,,,71,0
8268,note_on,,0,0,3,,,,,,,,,2,,,73,95
8268,note_on,,2,0,4,,,,,,,,,3,,,76,79
8268,note_on,,0,0,2,,,,,,,,,1,,,54,95
8276,note_on,,8,0,1,,,,,,,,,0,,,73,0
8278,note_on,,10,0,4,,,,,,,,,3,,,76,0
8280,note_on,,0,0,3,,,,,,,,,2,,,74,95
8280,note_on,,12,0,3,,,,,,,,,2,,,73,0
8280,note_on,,0,0,2,,,,,,,,,1,,,45,95
8280,note_on,,12,0,2,,,,,,,,,1,,,54,0
8280,note_on,,2,0,4,,,,,,,,,3,,,78,79
8280,note_on,,4,0,1,,,,,,,,,0,,,71,95
8288,note_on,,8,0,1,,,,,,,,,0,,,71,0
8292,note_on,,4,0,1,,,,,,,,,0,,,78,95
8292,note_on,,12,0,2,,,,,,,,,1,,,45,0
8292,note_on,,0,0,2,,,,,,,,,1,,,54,95
8300,note_on,,8,0,1,,,,,,,,,0,,,78,0
8304,note_on,,12,0,2,,,,,,,,,1,,,54,0
8304,note_on,,4,0,1,,,,,,,,,0,,,83,95
8304,note_on,,0,0,2,,,,,,,,,1,,,43,95
8309,note_on,,5,0,1,,,,,,,,,0,,,83,0
8310,note_on,,30,0,4,,,,,,,,,3,,,78,0
8312,note_on,,3,0,1,,,,,,,,,0,,,84,95
8316,note_on,,36,0,3,,,,,,,,,2,,,74,0
8316,note_on,,0,0,2,,,,,,,,,1,,,54,95
8316,note_on,,12,0,2,,,,,,,,,1,,,43,0
8316,note_on,,0,0,3,,,,,,,,,2,,,71,95
8316,note_on,,6,0,4,,,,,,,,,3,,,74,95
8317,note_on,,5,0,1,,,,,,,,,0,,,84,0
8320,note_on,,3,0,1,,,,,,,,,0,,,83,95
8325,note_on,,5,0,1,,,,,,,,,0,,,83,0
8326,note_on,,10,0,4,,,,,,,,,3,,,74,0
8328,note_on,,0,0,3,,,,,,,,,2,,,73,95
8328,note_on,,3,0,1,,,,,,,,,0,,,81,95
8328,note_on,,12,0,2,,,,,,,,,1,,,54,0
8328,note_on,,0,0,2,,,,,,,,,1,,,42,95
8328,note_on,,2,0,4,,,,,,,,,3,,,76,95
8328,note_on,,12,0,3,,,,,,,,,2,,,71,0
8333,note_on,,5,0,1,,,,,,,,,0,,,81,0
8336,note_on,,3,0,1,,,,,,,,,0,,,83,95
8338,note_on,,10,0,4,,,,,,,,,3,,,76,0
8340,note_on,,0,0,2,,,,,,,,,1,,,54,95
8340,note_on,,12,0,2,,,,,,,,,1,,,42,0
8340,note_on,,2,0,4,,,,,,,,,3,,,78,95
8340,note_on,,0,0,3,,,,,,,,,2,,,74,95
8340,note_on,,12,0,3,,,,,,,,,2,,,73,0
8341,note_on,,5,0,1,,,,,,,,,0,,,83,0
8344,note_on,,3,0,1,,,,,,,,,0,,,81,95
8349,note_on,,5,0,1,,,,,,,,,0,,,81,0
8350,note_on,,10,0,4,,,,,,,,,3,,,78,0
8352,note_on,,464,0,7,,,,,,,,,6,,,40,63
8352,note_on,,0,0,3,,,,,,,,,2,,,76,95
8352,note_on,,12,0,3,,,,,,,,,2,,,74,0
8352,note_on,,3,0,1,,,,,,,,,0,,,79,95
8352,note_on,,12,0,2,,,,,,,,,1,,,54,0
8352,note_on,,464,0,8,,,,,,,,,7,,,28,63
8352,note_on,,2,0,4,,,,,,,,,3,,,79,95
8352,note_on,,432,0,5,,,,,,,,,4,,,64,79
8352,note_on,,0,0,2,,,,,,,,,1,,,40,95
8360,note_on,,8,0,1,,,,,,,,,0,,,79,0
8362,note_on,,10,0,5,,,,,,,,,4,,,64,0
8364,note_on,,4,0,1,,,,,,,,,0,,,78,95
8364,note_on,,2,0,5,,,,,,,,,4,,,64,79
8372,note_on,,8,0,1,,,,,,,,,0,,,78,0
8374,note_on,,10,0,5,,,,,,,,,4,,,64,0
8376,note_on,,2,0,5,,,,,,,,,4,,,67,79
8376,note_on,,4,0,1,,,,,,,,,0,,,76,95
8384,note_on,,8,0,1,,,,,,,,,0,,,76,0
8386,note_on,,10,0,5,,,,,,,,,4,,,67,0
8388,note_on,,4,0,1,,,,,,,,,0,,,78,95
8388,note_on,,2,0,5,,,,,,,,,4,,,67,79
8392,note_on,,40,0,7,,,,,,,,,6,,,40,0
8392,note_on,,40,0,4,,,,,,,,,3,,,79,0
8392,note_on,,40,0,8,,,,,,,,,7,,,28,0
8396,note_on,,8,0,1,,,,,,,,,0,,,78,0
8398,note_on,,10,0,5,,,,,,,,,4,,,67,0
8400,note_on,,2,0,5,,,,,,,,,4,,,71,79
8400,note_on,,4,0,1,,,,,,,,,0,,,79,95
8400,note_on,,48,0,2,,,,,,,,,1,,,40,0
8400,note_on,,48,0,3,,,,,,,,,2,,,76,0
8408,note_on,,8,0,1,,,,,,,,,0,,,79,0
8410,note_on,,10,0,5,,,,,,,,,4,,,71,0
8412,note_on,,4,0,1,,,,,,,,,0,,,81,95
8412,note_on,,2,0,5,,,,,,,,,4,,,71,79
8412,note_on,,12,0,3,,,,,,,,,2,,,74,95
8412,note_on,,20,0,4,,,,,,,,,3,,,78,95
8420,note_on,,8,0,1,,,,,,,,,0,,,81,0
8422,note_on,,10,0,4,,,,,,,,,3,,,78,0
8422,note_on,,10,0,5,,,,,,,,,4,,,71,0
8424,note_on,,0,0,3,,,,,,,,,2,,,73,95
8424,note_on,,4,0,1,,,,,,,,,0,,,83,95
8424,note_on,,2,0,5,,,,,,,,,4,,,76,79
8424,note_on,,2,0,4,,,,,,,,,3,,,76,95
8424,note_on,,12,0,3,,,,,,,,,2,,,74,0
8432,note_on,,8,0,1,,,,,,,,,0,,,83,0
8434,note_on,,10,0,5,,,,,,,,,4,,,76,0
8434,note_on,,10,0,4,,,,,,,,,3,,,76,0
8436,note_on,,4,0,1,,,,,,,,,0,,,81,95
8436,note_on,,2,0,4,,,,,,,,,3,,,78,95
8436,note_on,,2,0,5,,,,,,,,,4,,,76,79
8436,note_on,,0,0,3,,,,,,,,,2,,,74,95
8436,note_on,,12,0,3,,,,,,,,,2,,,73,0
8444,note_on,,8,0,1,,,,,,,,,0,,,81,0
8446,note_on,,10,0,5,,,,,,,,,4,,,76,0
8446,note_on,,10,0,4,,,,,,,,,3,,,78,0
8448,note_on,,0,0,3,,,,,,,,,2,,,76,95
8448,note_on,,12,0,3,,,,,,,,,2,,,74,0
8448,note_on,,48,0,2,,,,,,,,,1,,,45,95
8448,note_on,,56,0,8,,,,,,,,,7,,,33,63
8448,note_on,,56,0,7,,,,,,,,,6,,,45,63
8448,note_on,,4,0,1,,,,,,,,,0,,,79,95
8448,note_on,,2,0,5,,,,,,,,,4,,,73,79
8448,note_on,,2,0,4,,,,,,,,,3,,,79,95
8453,note_on,,5,0,1,,,,,,,,,0,,,79,0
8456,note_on,,3,0,1,,,,,,,,,0,,,81,95
8461,note_on,,5,0,1,,,,,,,,,0,,,81,0
8464,note_on,,3,0,1,,,,,,,,,0,,,79,95
8468,note_on,,20,0,5,,,,,,,,,4,,,73,0
8469,note_on,,5,0,1,,,,,,,,,0,,,79,0
8472,note_on,,24,0,3,,,,,,,,,2,,,76,0
8472,note_on,,3,0,1,,,,,,,,,0,,,78,95
8472,note_on,,4,0,5,,,,,,,,,4,,,69,79
8472,note_on,,0,0,3,,,,,,,,,2,,,74,95
8477,note_on,,5,0,1,,,,,,,,,0,,,78,0
8480,note_on,,3,0,1,,,,,,,,,0,,,79,95
8485,note_on,,5,0,1,,,,,,,,,0,,,79,0
8488,note_on,,3,0,1,,,,,,,,,0,,,78,95
8488,note_on,,40,0,7,,,,,,,,,6,,,45,0
8488,note_on,,40,0,8,,,,,,,,,7,,,33,0
8492,note_on,,20,0,5,,,,,,,,,4,,,69,0
8493,note_on,,5,0,1,,,,,,,,,0,,,78,0
8496,note_on,,0,0,3,,,,,,,,,2,,,73,95
8496,note_on,,48,0,2,,,,,,,,,1,,,45,0
8496,note_on,,3,0,1,,,,,,,,,0,,,76,95
8496,note_on,,24,0,3,,,,,,,,,2,,,74,0
8501,note_on,,5,0,1,,,,,,,,,0,,,76,0
8504,note_on,,3,0,1,,,,,,,,,0,,,79,95
8509,note_on,,5,0,1,,,,,,,,,0,,,79,0
8512,note_on,,3,0,1,,,,,,,,,0,,,76,95
8517,note_on,,5,0,1,,,,,,,,,0,,,76,0
8520,note_on,,24,0,3,,,,,,,,,2,,,73,0
8520,note_on,,0,0,3,,,,,,,,,2,,,71,95
8520,note_on,,3,0,1,,,,,,,,,0,,,74,95
8525,note_on,,5,0,1,,,,,,,,,0,,,74,0
8528,note_on,,3,0,1,,,,,,,,,0,,,79,95
8528,note_on,,80,0,4,,,,,,,,,3,,,79,0
8533,note_on,,5,0,1,,,,,,,,,0,,,79,0
8536,note_on,,3,0,1,,,,,,,,,0,,,74,95
8541,note_on,,5,0,1,,,,,,,,,0,,,74,0
8544,note_on,,3,0,1,,,,,,,,,0,,,73,95
8544,note_on,,24,0,3,,,,,,,,,2,,,71,0
8544,note_on,,0,0,3,,,,,,,,,2,,,69,95
8544,note_on,,640,0,6,,,,,,,,,5,,,55,63
8552,note_on,,8,0,1,,,,,,,,,0,,,73,0
8554,note_on,,10,0,6,,,,,,,,,5,,,55,0
8556,note_on,,4,0,1,,,,,,,,,0,,,79,95
8556,note_on,,2,0,6,,,,,,,,,5,,,55,63
8564,note_on,,8,0,1,,,,,,,,,0,,,79,0
8566,note_on,,10,0,6,,,,,,,,,5,,,55,0
8568,note_on,,2,0,6,,,,,,,,,5,,,59,63
8568,note_on,,40,0,4,,,,,,,,,3,,,78,95
8568,note_on,,4,0,1,,,,,,,,,0,,,74,95
8576,note_on,,8,0,1,,,,,,,,,0,,,74,0
8578,note_on,,10,0,6,,,,,,,,,5,,,59,0
8580,note_on,,4,0,1,,,,,,,,,0,,,79,95
8580,note_on,,2,0,6,,,,,,,,,5,,,59,63
8588,note_on,,8,0,1,,,,,,,,,0,,,79,0
8588,note_on,,20,0,4,,,,,,,,,3,,,78,0
8590,note_on,,10,0,6,,,,,,,,,5,,,59,0
8592,note_on,,2,0,6,,,,,,,,,5,,,64,63
8592,note_on,,4,0,4,,,,,,,,,3,,,76,95
8592,note_on,,4,0,1,,,,,,,,,0,,,73,95
8600,note_on,,8,0,1,,,,,,,,,0,,,73,0
8602,note_on,,10,0,6,,,,,,,,,5,,,64,0
8604,note_on,,2,0,6,,,,,,,,,5,,,64,63
8604,note_on,,4,0,1,,,,,,,,,0,,,79,95
8612,note_on,,8,0,1,,,,,,,,,0,,,79,0
8612,note_on,,20,0,4,,,,,,,,,3,,,76,0
8614,note_on,,10,0,6,,,,,,,,,5,,,64,0
8616,note_on,,4,0,1,,,,,,,,,0,,,71,95
8616,note_on,,2,0,6,,,,,,,,,5,,,67,63
8616,note_on,,4,0,4,,,,,,,,,3,,,74,95
8624,note_on,,8,0,1,,,,,,,,,0,,,71,0
8626,note_on,,10,0,6,,,,,,,,,5,,,67,0
8628,note_on,,2,0,6,,,,,,,,,5,,,67,63
8628,note_on,,4,0,1,,,,,,,,,0,,,79,95
8636,note_on,,8,0,1,,,,,,,,,0,,,79,0
8636,note_on,,20,0,4,,,,,,,,,3,,,74,0
8638,note_on,,10,0,6,,,,,,,,,5,,,67,0
8640,note_on,,4,0,1,,,,,,,,,0,,,69,95
8640,note_on,,2,0,6,,,,,,,,,5,,,64,63
8640,note_on,,96,0,3,,,,,,,,,2,,,69,0
8640,note_on,,4,0,4,,,,,,,,,3,,,73,95
8652,note_on,,156,0,2,,,,,,,,,1,,,57,95
8656,note_on,,16,0,1,,,,,,,,,0,,,69,0
8660,note_on,,20,0,6,,,,,,,,,5,,,64,0
8664,note_on,,8,0,1,,,,,,,,,0,,,73,95
8664,note_on,,24,0,3,,,,,,,,,2,,,83,95
8664,note_on,,12,0,2,,,,,,,,,1,,,57,0
8664,note_on,,4,0,6,,,,,,,,,5,,,57,63
8664,note_on,,0,0,2,,,,,,,,,1,,,55,95
8669,note_on,,5,0,1,,,,,,,,,0,,,73,0
8672,note_on,,3,0,1,,,,,,,,,0,,,71,95
8676,note_on,,0,0,2,,,,,,,,,1,,,57,95
8676,note_on,,12,0,2,,,,,,,,,1,,,55,0
8677,note_on,,5,0,1,,,,,,,,,0,,,71,0
8680,note_on,,3,0,1,,,,,,,,,0,,,73,95
8680,note_on,,40,0,4,,,,,,,,,3,,,73,0
8684,note_on,,20,0,6,,,,,,,,,5,,,57,0
8685,note_on,,5,0,1,,,,,,,,,0,,,73,0
8688,note_on,,0,0,3,,,,,,,,,2,,,81,95
8688,note_on,,0,0,2,,,,,,,,,1,,,54,95
8688,note_on,,12,0,2,,,,,,,,,1,,,57,0
8688,note_on,,3,0,1,,,,,,,,,0,,,74,95
8688,note_on,,24,0,3,,,,,,,,,2,,,83,0
8693,note_on,,5,0,1,,,,,,,,,0,,,74,0
8696,note_on,,3,0,1,,,,,,,,,0,,,73,95
8700,note_on,,0,0,2,,,,,,,,,1,,,57,95
8700,note_on,,12,0,2,,,,,,,,,1,,,54,0
8701,note_on,,5,0,1,,,,,,,,,0,,,73,0
8704,note_on,,3,0,1,,,,,,,,,0,,,74,95
8709,note_on,,5,0,1,,,,,,,,,0,,,74,0
8712,note_on,,12,0,2,,,,,,,,,1,,,57,0
8712,note_on,,0,0,2,,,,,,,,,1,,,52,95
8712,note_on,,0,0,3,,,,,,,,,2,,,79,95
8712,note_on,,32,0,4,,,,,,,,,3,,,73,95
8712,note_on,,24,0,3,,,,,,,,,2,,,81,0
8712,note_on,,3,0,1,,,,,,,,,0,,,76,95
8717,note_on,,5,0,1,,,,,,,,,0,,,76,0
8720,note_on,,3,0,1,,,,,,,,,0,,,74,95
8724,note_on,,12,0,2,,,,,,,,,1,,,52,0
8724,note_on,,0,0,2,,,,,,,,,1,,,57,95
8725,note_on,,5,0,1,,,,,,,,,0,,,74,0
8728,note_on,,3,0,1,,,,,,,,,0,,,76,95
8732,note_on,,20,0,4,,,,,,,,,3,,,73,0
8733,note_on,,5,0,1,,,,,,,,,0,,,76,0
8736,note_on,,0,0,2,,,,,,,,,1,,,50,95
8736,note_on,,3,0,1,,,,,,,,,0,,,78,95
8736,note_on,,248,0,8,,,,,,,,,7,,,26,63
8736,note_on,,248,0,7,,,,,,,,,6,,,38,63
8736,note_on,,4,0,4,,,,,,,,,3,,,74,95
8736,note_on,,12,0,2,,,,,,,,,1,,,57,0
8736,note_on,,24,0,3,,,,,,,,,2,,,79,0
8736,note_on,,0,0,3,,,,,,,,,2,,,78,95
8744,note_on,,8,0,1,,,,,,,,,0,,,78,0
8746,note_on,,10,0,4,,,,,,,,,3,,,74,0
8748,note_on,,0,0,3,,,,,,,,,2,,,79,95
8748,note_on,,12,0,3,,,,,,,,,2,,,78,0
8748,note_on,,4,0,1,,,,,,,,,0,,,76,95
8748,note_on,,0,0,2,,,,,,,,,1,,,57,95
8748,note_on,,12,0,2,,,,,,,,,1,,,50,0
8748,note_on,,2,0,4,,,,,,,,,3,,,76,95
8756,note_on,,8,0,1,,,,,,,,,0,,,76,0
8758,note_on,,10,0,4,,,,,,,,,3,,,76,0
8760,note_on,,4,0,1,,,,,,,,,0,,,74,95
8760,note_on,,0,0,2,,,,,,,,,1,,,48,95
8760,note_on,,12,0,3,,,,,,,,,2,,,79,0
8760,note_on,,0,0,3,,,,,,,,,2,,,81,95
8760,note_on,,2,0,4,,,,,,,,,3,,,78,95
8760,note_on,,12,0,2,,,,,,,,,1,,,57,0
8768,note_on,,8,0,1,,,,,,,,,0,,,74,0
8772,note_on,,4,0,1,,,,,,,,,0,,,69,95
8772,note_on,,0,0,2,,,,,,,,,1,,,57,95
8772,note_on,,12,0,2,,,,,,,,,1,,,48,0
8776,note_on,,40,0,8,,,,,,,,,7,,,26,0
8776,note_on,,40,0,7,,,,,,,,,6,,,38,0
8780,note_on,,8,0,1,,,,,,,,,0,,,69,0
8784,note_on,,4,0,1,,,,,,,,,0,,,74,95
8784,note_on,,12,0,2,,,,,,,,,1,,,57,0
8784,note_on,,0,0,2,,,,,,,,,1,,,47,95
8789,note_on,,5,0,1,,,,,,,,,0,,,74,0
8792,note_on,,3,0,1,,,,,,,,,0,,,76,95
8794,note_on,,34,0,4,,,,,,,,,3,,,78,0
8796,note_on,,0,0,3,,,,,,,,,2,,,78,95
8796,note_on,,12,0,2,,,,,,,,,1,,,47,0
8796,note_on,,0,0,2,,,,,,,,,1,,,57,95
8796,note_on,,2,0,4,,,,,,,,,3,,,74,95
8796,note_on,,36,0,3,,,,,,,,,2,,,81,0
8797,note_on,,5,0,1,,,,,,,,,0,,,76,0
8800,note_on,,3,0,1,,,,,,,,,0,,,74,95
8805,note_on,,5,0,1,,,,,,,,,0,,,74,0
8806,note_on,,10,0,4,,,,,,,,,3,,,74,0
8808,note_on,,12,0,2,,,,,,,,,1,,,57,0
8808,note_on,,0,0,2,,,,,,,,,1,,,45,95
8808,note_on,,3,0,1,,,,,,,,,0,,,72,95
8808,note_on,,12,0,3,,,,,,,,,2,,,78,0
8808,note_on,,0,0,3,,,,,,,,,2,,,79,95
8808,note_on,,2,0,4,,,,,,,,,3,,,76,95
8813,note_on,,5,0,1,,,,,,,,,0,,,72,0
8816,note_on,,3,0,1,,,,,,,,,0,,,74,95
8818,note_on,,10,0,4,,,,,,,,,3,,,76,0
8820,note_on,,12,0,3,,,,,,,,,2,,,79,0
8820,note_on,,0,0,3,,,,,,,,,2,,,81,95
8820,note_on,,2,0,4,,,,,,,,,3,,,78,95
8820,note_on,,12,0,2,,,,,,,,,1,,,45,0
8820,note_on,,0,0,2,,,,,,,,,1,,,57,95
8821,note_on,,5,0,1,,,,,,,,,0,,,74,0
8824,note_on,,3,0,1,,,,,,,,,0,,,72,95
8829,note_on,,5,0,1,,,,,,,,,0,,,72,0
8830,note_on,,10,0,4,,,,,,,,,3,,,78,0
8832,note_on,,3,0,1,,,,,,,,,0,,,74,95
8832,note_on,,0,0,2,,,,,,,,,1,,,43,95
8832,note_on,,56,0,7,,,,,,,,,6,,,43,63
8832,note_on,,12,0,2,,,,,,,,,1,,,57,0
8832,note_on,,12,0,3,,,,,,,,,2,,,81,0
8832,note_on,,0,0,3,,,,,,,,,2,,,83,95
8832,note_on,,2,0,4,,,,,,,,,3,,,79,95
8832,note_on,,56,0,8,,,,,,,,,7,,,31,63
8836,note_on,,4,0,1,,,,,,,,,0,,,74,0
8838,note_on,,2,0,1,,,,,,,,,0,,,67,95
8842,note_on,,4,0,1,,,,,,,,,0,,,67,0
8844,note_on,,2,0,1,,,,,,,,,0,,,69,95
8848,note_on,,4,0,1,,,,,,,,,0,,,69,0
8850,note_on,,2,0,1,,,,,,,,,0,,,71,95
8854,note_on,,4,0,1,,,,,,,,,0,,,71,0
8856,note_on,,364,0,5,,,,,,,,,4,,,71,79
8856,note_on,,24,0,2,,,,,,,,,1,,,43,0
8856,note_on,,2,0,1,,,,,,,,,0,,,73,95
8860,note_on,,4,0,1,,,,,,,,,0,,,73,0
8862,note_on,,2,0,1,,,,,,,,,0,,,74,95
8864,note_on,,8,0,5,,,,,,,,,4,,,71,0
8866,note_on,,4,0,1,,,,,,,,,0,,,74,0
8868,note_on,,2,0,1,,,,,,,,,0,,,76,95
8872,note_on,,40,0,7,,,,,,,,,6,,,43,0
8872,note_on,,4,0,1,,,,,,,,,0,,,76,0
8872,note_on,,40,0,8,,,,,,,,,7,,,31,0
8872,note_on,,40,0,4,,,,,,,,,3,,,79,0
8874,note_on,,2,0,1,,,,,,,,,0,,,78,95
8878,note_on,,4,0,1,,,,,,,,,0,,,78,0
8880,note_on,,16,0,5,,,,,,,,,4,,,61,79
8880,note_on,,48,0,3,,,,,,,,,2,,,83,0
8880,note_on,,2,0,1,,,,,,,,,0,,,76,95
8884,note_on,,4,0,1,,,,,,,,,0,,,76,0
8886,note_on,,2,0,1,,,,,,,,,0,,,61,95
8888,note_on,,8,0,5,,,,,,,,,4,,,61,0
8890,note_on,,4,0,1,,,,,,,,,0,,,61,0
8892,note_on,,2,0,1,,,,,,,,,0,,,62,95
8896,note_on,,4,0,1,,,,,,,,,0,,,62,0
8898,note_on,,2,0,1,,,,,,,,,0,,,64,95
8902,note_on,,4,0,1,,,,,,,,,0,,,64,0
8904,note_on,,16,0,5,,,,,,,,,4,,,64,79
8904,note_on,,24,0,3,,,,,,,,,2,,,83,95
8904,note_on,,2,0,1,,,,,,,,,0,,,66,95
8904,note_on,,32,0,4,,,,,,,,,3,,,79,95
8908,note_on,,4,0,1,,,,,,,,,0,,,66,0
8910,note_on,,2,0,1,,,,,,,,,0,,,67,95
8912,note_on,,8,0,5,,,,,,,,,4,,,64,0
8914,note_on,,4,0,1,,,,,,,,,0,,,67,0
8916,note_on,,2,0,1,,,,,,,,,0,,,69,95
8920,note_on,,4,0,1,,,,,,,,,0,,,69,0
8922,note_on,,2,0,1,,,,,,,,,0,,,71,95
8924,note_on,,20,0,4,,,,,,,,,3,,,79,0
8926,note_on,,4,0,1,,,,,,,,,0,,,71,0
8928,note_on,,4,0,4,,,,,,,,,3,,,79,95
8928,note_on,,16,0,5,,,,,,,,,4,,,66,79
8928,note_on,,24,0,3,,,,,,,,,2,,,83,0
8928,note_on,,0,0,3,,,,,,,,,2,,,83,95
8928,note_on,,2,0,1,,,,,,,,,0,,,69,95
8932,note_on,,4,0,1,,,,,,,,,0,,,69,0
8934,note_on,,2,0,1,,,,,,,,,0,,,66,95
8936,note_on,,8,0,5,,,,,,,,,4,,,66,0
8938,note_on,,10,0,4,,,,,,,,,3,,,79,0
8938,note_on,,4,0,1,,,,,,,,,0,,,66,0
8940,note_on,,2,0,4,,,,,,,,,3,,,76,95
8940,note_on,,0,0,3,,,,,,,,,2,,,79,95
8940,note_on,,2,0,1,,,,,,,,,0,,,67,95
8940,note_on,,12,0,3,,,,,,,,,2,,,83,0
8944,note_on,,4,0,1,,,,,,,,,0,,,67,0
8946,note_on,,2,0,1,,,,,,,,,0,,,69,95
8950,note_on,,10,0,4,,,,,,,,,3,,,76,0
8950,note_on,,4,0,1,,,,,,,,,0,,,69,0
8952,note_on,,2,0,1,,,,,,,,,0,,,71,95
8952,note_on,,16,0,5,,,,,,,,,4,,,69,79
8952,note_on,,2,0,4,,,,,,,,,3,,,78,95
8952,note_on,,0,0,3,,,,,,,,,2,,,81,95
8952,note_on,,12,0,3,,,,,,,,,2,,,79,0
8956,note_on,,4,0,1,,,,,,,,,0,,,71,0
8958,note_on,,2,0,1,,,,,,,,,0,,,73,95
8960,note_on,,8,0,5,,,,,,,,,4,,,69,0
8960,note_on,,8,0,3,,,,,,,,,2,,,81,0
8962,note_on,,4,0,1,,,,,,,,,0,,,73,0
8964,note_on,,2,0,1,,,,,,,,,0,,,74,95
8968,note_on,,4,0,1,,,,,,,,,0,,,74,0
8970,note_on,,2,0,1,,,,,,,,,0,,,76,95
8972,note_on,,20,0,4,,,,,,,,,3,,,78,0
8974,note_on,,4,0,1,,,,,,,,,0,,,76,0
8976,note_on,,16,0,5,,,,,,,,,4,,,59,79
8976,note_on,,2,0,1,,,,,,,,,0,,,74,95
8980,note_on,,4,0,1,,,,,,,,,0,,,74,0
8982,note_on,,2,0,1,,,,,,,,,0,,,59,95
8984,note_on,,8,0,5,,,,,,,,,4,,,59,0
8986,note_on,,4,0,1,,,,,,,,,0,,,59,0
8988,note_on,,2,0,1,,,,,,,,,0,,,61,95
8992,note_on,,4,0,1,,,,,,,,,0,,,61,0
8994,note_on,,2,0,1,,,,,,,,,0,,,62,95
8998,note_on,,4,0,1,,,,,,,,,0,,,62,0
9000,note_on,,28,0,4,,,,,,,,,3,,,78,95
9000,note_on,,40,0,3,,,,,,,,,2,,,81,95
9000,note_on,,2,0,1,,,,,,,,,0,,,64,95
9000,note_on,,16,0,5,,,,,,,,,4,,,62,79
9004,note_on,,4,0,1,,,,,,,,,0,,,64,0
9006,note_on,,2,0,1,,,,,,,,,0,,,66,95
9008,note_on,,8,0,5,,,,,,,,,4,,,62,0
9010,note_on,,4,0,1,,,,,,,,,0,,,66,0
9012,note_on,,2,0,1,,,,,,,,,0,,,67,95
9016,note_on,,4,0,1,,,,,,,,,0,,,67,0
9018,note_on,,2,0,1,,,,,,,,,0,,,69,95
9020,note_on,,20,0,4,,,,,,,,,3,,,78,0
9022,note_on,,4,0,1,,,,,,,,,0,,,69,0
9024,note_on,,4,0,4,,,,,,,,,3,,,78,95
9024,note_on,,16,0,5,,,,,,,,,4,,,64,79
9024,note_on,,0,0,3,,,,,,,,,2,,,81,95
9024,note_on,,24,0,3,,,,,,,,,2,,,81,0
9024,note_on,,2,0,1,,,,,,,,,0,,,67,95
9028,note_on,,4,0,1,,,,,,,,,0,,,67,0
9030,note_on,,2,0,1,,,,,,,,,0,,,64,95
9034,note_on,,4,0,1,,,,,,,,,0,,,64,0
9034,note_on,,10,0,4,,,,,,,,,3,,,78,0
9036,note_on,,2,0,1,,,,,,,,,0,,,66,95
9036,note_on,,0,0,3,,,,,,,,,2,,,78,95
9036,note_on,,12,0,3,,,,,,,,,2,,,81,0
9036,note_on,,2,0,4,,,,,,,,,3,,,74,95
9040,note_on,,4,0,1,,,,,,,,,0,,,66,0
9042,note_on,,2,0,1,,,,,,,,,0,,,67,95
9044,note_on,,20,0,5,,,,,,,,,4,,,64,0
9046,note_on,,10,0,4,,,,,,,,,3,,,74,0
9046,note_on,,4,0,1,,,,,,,,,0,,,67,0
9048,note_on,,12,0,3,,,,,,,,,2,,,78,0
9048,note_on,,364,0,6,,,,,,,,,5,,,71,63
9048,note_on,,4,0,5,,,,,,,,,4,,,67,79
9048,note_on,,0,0,3,,,,,,,,,2,,,79,95
9048,note_on,,2,0,1,,,,,,,,,0,,,69,95
9048,note_on,,2,0,4,,,,,,,,,3,,,76,95
9052,note_on,,4,0,1,,,,,,,,,0,,,69,0
9054,note_on,,2,0,1,,,,,,,,,0,,,71,95
9056,note_on,,8,0,3,,,,,,,,,2,,,79,0
9056,note_on,,8,0,6,,,,,,,,,5,,,71,0
9058,note_on,,4,0,1,,,,,,,,,0,,,71,0
9060,note_on,,2,0,1,,,,,,,,,0,,,73,95
9064,note_on,,4,0,1,,,,,,,,,0,,,73,0
9066,note_on,,2,0,1,,,,,,,,,0,,,74,95
9068,note_on,,20,0,5,,,,,,,,,4,,,67,0
9068,note_on,,20,0,4,,,,,,,,,3,,,76,0
9070,note_on,,4,0,1,,,,,,,,,0,,,74,0
9072,note_on,,4,0,5,,,,,,,,,4,,,57,79
9072,note_on,,16,0,6,,,,,,,,,5,,,61,63
9072,note_on,,2,0,1,,,,,,,,,0,,,73,95
9076,note_on,,4,0,1,,,,,,,,,0,,,73,0
9078,note_on,,2,0,1,,,,,,,,,0,,,57,95
9080,note_on,,8,0,6,,,,,,,,,5,,,61,0
9082,note_on,,4,0,1,,,,,,,,,0,,,57,0
9084,note_on,,2,0,1,,,,,,,,,0,,,59,95
9088,note_on,,4,0,1,,,,,,,,,0,,,59,0
9090,note_on,,2,0,1,,,,,,,,,0,,,61,95
9092,note_on,,20,0,5,,,,,,,,,4,,,57,0
9094,note_on,,4,0,1,,,,,,,,,0,,,61,0
9096,note_on,,4,0,5,,,,,,,,,4,,,61,79
9096,note_on,,28,0,4,,,,,,,,,3,,,76,95
9096,note_on,,16,0,6,,,,,,,,,5,,,64,63
9096,note_on,,40,0,3,,,,,,,,,2,,,79,95
9096,note_on,,2,0,1,,,,,,,,,0,,,62,95
9100,note_on,,4,0,1,,,,,,,,,0,,,62,0
9102,note_on,,2,0,1,,,,,,,,,0,,,64,95
9104,note_on,,8,0,6,,,,,,,,,5,,,64,0
9106,note_on,,4,0,1,,,,,,,,,0,,,64,0
9108,note_on,,2,0,1,,,,,,,,,0,,,66,95
9112,note_on,,4,0,1,,,,,,,,,0,,,66,0
9114,note_on,,2,0,1,,,,,,,,,0,,,67,95
9116,note_on,,20,0,5,,,,,,,,,4,,,61,0
9116,note_on,,20,0,4,,,,,,,,,3,,,76,0
9118,note_on,,4,0,1,,,,,,,,,0,,,67,0
9120,note_on,,2,0,1,,,,,,,,,0,,,66,95
9120,note_on,,24,0,3,,,,,,,,,2,,,79,0
9120,note_on,,16,0,6,,,,,,,,,5,,,66,63
9120,note_on,,4,0,5,,,,,,,,,4,,,62,79
9120,note_on,,4,0,4,,,,,,,,,3,,,76,95
9120,note_on,,0,0,3,,,,,,,,,2,,,79,95
9124,note_on,,4,0,1,,,,,,,,,0,,,66,0
9126,note_on,,2,0,1,,,,,,,,,0,,,62,95
9128,note_on,,8,0,6,,,,,,,,,5,,,66,0
9130,note_on,,10,0,4,,,,,,,,,3,,,76,0
9130,note_on,,4,0,1,,,,,,,,,0,,,62,0
9132,note_on,,12,0,3,,,,,,,,,2,,,79,0
9132,note_on,,2,0,4,,,,,,,,,3,,,73,95
9132,note_on,,0,0,3,,,,,,,,,2,,,76,95
9132,note_on,,2,0,1,,,,,,,,,0,,,64,95
9136,note_on,,4,0,1,,,,,,,,,0,,,64,0
9138,note_on,,2,0,1,,,,,,,,,0,,,66,95
9140,note_on,,20,0,5,,,,,,,,,4,,,62,0
9142,note_on,,4,0,1,,,,,,,,,0,,,66,0
9142,note_on,,10,0,4,,,,,,,,,3,,,73,0
9144,note_on,,4,0,5,,,,,,,,,4,,,69,79
9144,note_on,,12,0,3,,,,,,,,,2,,,76,0
9144,note_on,,0,0,3,,,,,,,,,2,,,78,95
9144,note_on,,2,0,1,,,,,,,,,0,,,67,95
9144,note_on,,16,0,6,,,,,,,,,5,,,69,63
9144,note_on,,2,0,4,,,,,,,,,3,,,74,95
9148,note_on,,4,0,1,,,,,,,,,0,,,67,0
9150,note_on,,2,0,1,,,,,,,,,0,,,69,95
9152,note_on,,8,0,6,,,,,,,,,5,,,69,0
9154,note_on,,10,0,4,,,,,,,,,3,,,74,0
9154,note_on,,4,0,1,,,,,,,,,0,,,69,0
9156,note_on,,0,0,3,,,,,,,,,2,,,79,95
9156,note_on,,2,0,4,,,,,,,,,3,,,76,95
9156,note_on,,2,0,1,,,,,,,,,0,,,71,95
9156,note_on,,12,0,3,,,,,,,,,2,,,78,0
9160,note_on,,4,0,1,,,,,,,,,0,,,71,0
9162,note_on,,2,0,1,,,,,,,,,0,,,73,95
9164,note_on,,20,0,5,,,,,,,,,4,,,69,0
9166,note_on,,4,0,1,,,,,,,,,0,,,73,0
9166,note_on,,10,0,4,,,,,,,,,3,,,76,0
9168,note_on,,2,0,1,,,,,,,,,0,,,74,95
9168,note_on,,12,0,3,,,,,,,,,2,,,79,0
9168,note_on,,16,0,6,,,,,,,,,5,,,59,63
9168,note_on,,0,0,3,,,,,,,,,2,,,78,95
9168,note_on,,4,0,5,,,,,,,,,4,,,66,79
9168,note_on,,2,0,4,,,,,,,,,3,,,74,95
9172,note_on,,4,0,1,,,,,,,,,0,,,74,0
9174,note_on,,2,0,1,,,,,,,,,0,,,69,95
9176,note_on,,8,0,6,,,,,,,,,5,,,59,0
9178,note_on,,10,0,4,,,,,,,,,3,,,74,0
9178,note_on,,4,0,1,,,,,,,,,0,,,69,0
9180,note_on,,2,0,4,,,,,,,,,3,,,78,95
9180,note_on,,2,0,1,,,,,,,,,0,,,71,95
9180,note_on,,12,0,3,,,,,,,,,2,,,78,0
9180,note_on,,0,0,3,,,,,,,,,2,,,81,95
9184,note_on,,4,0,1,,,,,,,,,0,,,71,0
9186,note_on,,2,0,1,,,,,,,,,0,,,73,95
9188,note_on,,20,0,5,,,,,,,,,4,,,66,0
9190,note_on,,4,0,1,,,,,,,,,0,,,73,0
9190,note_on,,10,0,4,,,,,,,,,3,,,78,0
9192,note_on,,0,0,3,,,,,,,,,2,,,79,95
9192,note_on,,16,0,6,,,,,,,,,5,,,62,63
9192,note_on,,12,0,3,,,,,,,,,2,,,81,0
9192,note_on,,4,0,5,,,,,,,,,4,,,62,79
9192,note_on,,2,0,4,,,,,,,,,3,,,76,95
9192,note_on,,2,0,1,,,,,,,,,0,,,74,95
9196,note_on,,4,0,1,,,,,,,,,0,,,74,0
9198,note_on,,2,0,1,,,,,,,,,0,,,76,95
9200,note_on,,8,0,6,,,,,,,,,5,,,62,0
9202,note_on,,4,0,1,,,,,,,,,0,,,76,0
9202,note_on,,10,0,4,,,,,,,,,3,,,76,0
9204,note_on,,2,0,1,,,,,,,,,0,,,78,95
9204,note_on,,0,0,3,,,,,,,,,2,,,78,95
9204,note_on,,12,0,3,,,,,,,,,2,,,79,0
9204,note_on,,2,0,4,,,,,,,,,3,,,74,95
9208,note_on,,4,0,1,,,,,,,,,0,,,78,0
9210,note_on,,2,0,1,,,,,,,,,0,,,79,95
9212,note_on,,20,0,5,,,,,,,,,4,,,62,0
9214,note_on,,10,0,4,,,,,,,,,3,,,74,0
9214,note_on,,4,0,1,,,,,,,,,0,,,79,0
9216,note_on,,2,0,4,,,,,,,,,3,,,73,95
9216,note_on,,2,0,1,,,,,,,,,0,,,81,95
9216,note_on,,0,0,3,,,,,,,,,2,,,76,95
9216,note_on,,16,0,6,,,,,,,,,5,,,64,63
9216,note_on,,12,0,3,,,,,,,,,2,,,78,0
9216,note_on,,4,0,5,,,,,,,,,4,,,57,79
9220,note_on,,4,0,1,,,,,,,,,0,,,81,0
9222,note_on,,2,0,1,,,,,,,,,0,,,79,95
9226,note_on,,10,0,5,,,,,,,,,4,,,57,0
9226,note_on,,4,0,1,,,,,,,,,0,,,79,0
9228,note_on,,2,0,5,,,,,,,,,4,,,57,79
9228,note_on,,2,0,1,,,,,,,,,0,,,78,95
9232,note_on,,4,0,1,,,,,,,,,0,,,78,0
9234,note_on,,2,0,1,,,,,,,,,0,,,76,95
9236,note_on,,20,0,4,,,,,,,,,3,,,73,0
9236,note_on,,20,0,6,,,,,,,,,5,,,64,0
9238,note_on,,4,0,1,,,,,,,,,0,,,76,0
9238,note_on,,10,0,5,,,,,,,,,4,,,57,0
9240,note_on,,4,0,4,,,,,,,,,3,,,69,95
9240,note_on,,0,0,3,,,,,,,,,2,,,81,95
9240,note_on,,24,0,3,,,,,,,,,2,,,76,0
9240,note_on,,2,0,1,,,,,,,,,0,,,74,95
9240,note_on,,2,0,5,,,,,,,,,4,,,61,79
9240,note_on,,4,0,6,,,,,,,,,5,,,67,63
9244,note_on,,4,0,1,,,,,,,,,0,,,74,0
9246,note_on,,2,0,1,,,,,,,,,0,,,73,95
9250,note_on,,10,0,5,,,,,,,,,4,,,61,0
9250,note_on,,4,0,1,,,,,,,,,0,,,73,0
9252,note_on,,2,0,1,,,,,,,,,0,,,71,95
9252,note_on,,2,0,5,,,,,,,,,4,,,61,79
9256,note_on,,4,0,1,,,,,,,,,0,,,71,0
9258,note_on,,2,0,1,,,,,,,,,0,,,69,95
9260,note_on,,20,0,6,,,,,,,,,5,,,67,0
9260,note_on,,20,0,4,,,,,,,,,3,,,69,0
9262,note_on,,4,0,1,,,,,,,,,0,,,69,0
9262,note_on,,10,0,5,,,,,,,,,4,,,61,0
9264,note_on,,2,0,1,,,,,,,,,0,,,67,95
9264,note_on,,24,0,3,,,,,,,,,2,,,81,0
9264,note_on,,2,0,5,,,,,,,,,4,,,64,79
9264,note_on,,4,0,6,,,,,,,,,5,,,57,63
9268,note_on,,4,0,1,,,,,,,,,0,,,67,0
9270,note_on,,2,0,1,,,,,,,,,0,,,66,95
9274,note_on,,10,0,5,,,,,,,,,4,,,64,0
9274,note_on,,4,0,1,,,,,,,,,0,,,66,0
9276,note_on,,2,0,1,,,,,,,,,0,,,64,95
9276,note_on,,2,0,5,,,,,,,,,4,,,64,79
9280,note_on,,4,0,1,,,,,,,,,0,,,64,0
9282,note_on,,2,0,1,,,,,,,,,0,,,62,95
9284,note_on,,20,0,6,,,,,,,,,5,,,57,0
9286,note_on,,4,0,1,,,,,,,,,0,,,62,0
9286,note_on,,10,0,5,,,,,,,,,4,,,64,0
9288,note_on,,4,0,6,,,,,,,,,5,,,61,63
9288,note_on,,28,0,4,,,,,,,,,3,,,64,95
9288,note_on,,2,0,5,,,,,,,,,4,,,69,79
9288,note_on,,2,0,1,,,,,,,,,0,,,61,95
9288,note_on,,24,0,3,,,,,,,,,2,,,73,95
9292,note_on,,4,0,1,,,,,,,,,0,,,61,0
9294,note_on,,2,0,1,,,,,,,,,0,,,59,95
9298,note_on,,4,0,1,,,,,,,,,0,,,59,0
9298,note_on,,10,0,5,,,,,,,,,4,,,69,0
9300,note_on,,2,0,1,,,,,,,,,0,,,57,95
9300,note_on,,2,0,5,,,,,,,,,4,,,69,79
9304,note_on,,4,0,1,,,,,,,,,0,,,57,0
9306,note_on,,2,0,1,,,,,,,,,0,,,55,95
9308,note_on,,20,0,4,,,,,,,,,3,,,64,0
9308,note_on,,20,0,6,,,,,,,,,5,,,61,0
9310,note_on,,10,0,5,,,,,,,,,4,,,69,0
9310,note_on,,4,0,1,,,,,,,,,0,,,55,0
9312,note_on,,2,0,1,,,,,,,,,0,,,54,95
9312,note_on,,24,0,3,,,,,,,,,2,,,73,0
9312,note_on,,0,0,3,,,,,,,,,2,,,74,95
9312,note_on,,2,0,5,,,,,,,,,4,,,62,79
9312,note_on,,4,0,6,,,,,,,,,5,,,62,63
9312,note_on,,4,0,4,,,,,,,,,3,,,66,95
9316,note_on,,4,0,1,,,,,,,,,0,,,54,0
9318,note_on,,2,0,1,,,,,,,,,0,,,50,95
9322,note_on,,4,0,1,,,,,,,,,0,,,50,0
9322,note_on,,10,0,5,,,,,,,,,4,,,62,0
9322,note_on,,10,0,4,,,,,,,,,3,,,66,0
9324,note_on,,2,0,4,,,,,,,,,3,,,64,95
9324,note_on,,2,0,1,,,,,,,,,0,,,52,95
9324,note_on,,12,0,3,,,,,,,,,2,,,74,0
9324,note_on,,2,0,5,,,,,,,,,4,,,62,79
9324,note_on,,0,0,3,,,,,,,,,2,,,73,95
9328,note_on,,4,0,1,,,,,,,,,0,,,52,0
9330,note_on,,2,0,1,,,,,,,,,0,,,54,95
9332,note_on,,20,0,6,,,,,,,,,5,,,62,0
9334,note_on,,10,0,4,,,,,,,,,3,,,64,0
9334,note_on,,10,0,5,,,,,,,,,4,,,62,0
9334,note_on,,4,0,1,,,,,,,,,0,,,54,0
9336,note_on,,12,0,3,,,,,,,,,2,,,73,0
9336,note_on,,0,0,3,,,,,,,,,2,,,74,95
9336,note_on,,2,0,4,,,,,,,,,3,,,66,95
9336,note_on,,2,0,1,,,,,,,,,0,,,55,95
9336,note_on,,2,0,5,,,,,,,,,4,,,66,79
9336,note_on,,4,0,6,,,,,,,,,5,,,57,63
9340,note_on,,4,0,1,,,,,,,,,0,,,55,0
9342,note_on,,2,0,1,,,,,,,,,0,,,57,95
9346,note_on,,10,0,4,,,,,,,,,3,,,66,0
9346,note_on,,10,0,5,,,,,,,,,4,,,66,0
9346,note_on,,4,0,1,,,,,,,,,0,,,57,0
9348,note_on,,2,0,1,,,,,,,,,0,,,59,95
9348,note_on,,0,0,3,,,,,,,,,2,,,76,95
9348,note_on,,2,0,4,,,,,,,,,3,,,67,95
9348,note_on,,12,0,3,,,,,,,,,2,,,74,0
9348,note_on,,2,0,5,,,,,,,,,4,,,66,79
9352,note_on,,4,0,1,,,,,,,,,0,,,59,0
9354,note_on,,2,0,1,,,,,,,,,0,,,61,95
9356,note_on,,20,0,6,,,,,,,,,5,,,57,0
9358,note_on,,10,0,5,,,,,,,,,4,,,66,0
9358,note_on,,10,0,4,,,,,,,,,3,,,67,0
9358,note_on,,4,0,1,,,,,,,,,0,,,61,0
9360,note_on,,2,0,5,,,,,,,,,4,,,69,79
9360,note_on,,0,0,3,,,,,,,,,2,,,74,95
9360,note_on,,12,0,3,,,,,,,,,2,,,76,0
9360,note_on,,2,0,4,,,,,,,,,3,,,66,95
9360,note_on,,2,0,1,,,,,,,,,0,,,62,95
9360,note_on,,4,0,6,,,,,,,,,5,,,54,63
9364,note_on,,4,0,1,,,,,,,,,0,,,62,0
9366,note_on,,2,0,1,,,,,,,,,0,,,64,95
9370,note_on,,4,0,1,,,,,,,,,0,,,64,0
9370,note_on,,10,0,5,,,,,,,,,4,,,69,0
9370,note_on,,10,0,4,,,,,,,,,3,,,66,0
9372,note_on,,12,0,3,,,,,,,,,2,,,74,0
9372,note_on,,0,0,3,,,,,,,,,2,,,78,95
9372,note_on,,2,0,1,,,,,,,,,0,,,66,95
9372,note_on,,2,0,5,,,,,,,,,4,,,69,79
9372,note_on,,2,0,4,,,,,,,,,3,,,69,95
9376,note_on,,4,0,1,,,,,,,,,0,,,66,0
9378,note_on,,2,0,1,,,,,,,,,0,,,67,95
9380,note_on,,20,0,6,,,,,,,,,5,,,54,0
9382,note_on,,10,0,5,,,,,,,,,4,,,69,0
9382,note_on,,4,0,1,,,,,,,,,0,,,67,0
9382,note_on,,10,0,4,,,,,,,,,3,,,69,0
9384,note_on,,12,0,3,,,,,,,,,2,,,78,0
9384,note_on,,2,0,4,,,,,,,,,3,,,67,95
9384,note_on,,2,0,1,,,,,,,,,0,,,69,95
9384,note_on,,0,0,3,,,,,,,,,2,,,76,95
9384,note_on,,2,0,5,,,,,,,,,4,,,74,79
9384,note_on,,4,0,6,,,,,,,,,5,,,50,63
9388,note_on,,4,0,1,,,,,,,,,0,,,69,0
9390,note_on,,2,0,1,,,,,,,,,0,,,71,95
9394,note_on,,10,0,5,,,,,,,,,4,,,74,0
9394,note_on,,10,0,4,,,,,,,,,3,,,67,0
9394,note_on,,4,0,1,,,,,,,,,0,,,71,0
9396,note_on,,2,0,5,,,,,,,,,4,,,74,79
9396,note_on,,2,0,4,,,,,,,,,3,,,66,95
9396,note_on,,12,0,3,,,,,,,,,2,,,76,0
9396,note_on,,2,0,1,,,,,,,,,0,,,73,95
9396,note_on,,0,0,3,,,,,,,,,2,,,74,95
9400,note_on,,4,0,1,,,,,,,,,0,,,73,0
9402,note_on,,2,0,1,,,,,,,,,0,,,74,95
9404,note_on,,20,0,6,,,,,,,,,5,,,50,0
9406,note_on,,10,0,5,,,,,,,,,4,,,74,0
9406,note_on,,10,0,4,,,,,,,,,3,,,66,0
9406,note_on,,4,0,1,,,,,,,,,0,,,74,0
9408,note_on,,4,0,6,,,,,,,,,5,,,57,63
9408,note_on,,2,0,4,,,,,,,,,3,,,64,95
9408,note_on,,536,0,7,,,,,,,,,6,,,45,63
9408,note_on,,12,0,3,,,,,,,,,2,,,74,0
9408,note_on,,2,0,5,,,,,,,,,4,,,76,79
9408,note_on,,0,0,3,,,,,,,,,2,,,73,95
9408,note_on,,2,0,1,,,,,,,,,0,,,76,95
9408,note_on,,536,0,8,,,,,,,,,7,,,33,63
9418,note_on,,10,0,6,,,,,,,,,5,,,57,0
9420,note_on,,564,0,2,,,,,,,,,1,,,57,95
9420,note_on,,2,0,6,,,,,,,,,5,,,57,63
9424,note_on,,16,0,1,,,,,,,,,0,,,76,0
9428,note_on,,20,0,5,,,,,,,,,4,,,76,0
9430,note_on,,10,0,6,,,,,,,,,5,,,57,0
9432,note_on,,0,0,3,,,,,,,,,2,,,76,95
9432,note_on,,4,0,5,,,,,,,,,4,,,69,79
9432,note_on,,24,0,3,,,,,,,,,2,,,73,0
9432,note_on,,2,0,6,,,,,,,,,5,,,61,63
9432,note_on,,0,0,2,,,,,,,,,1,,,55,95
9432,note_on,,12,0,2,,,,,,,,,1,,,57,0
9442,note_on,,10,0,6,,,,,,,,,5,,,61,0
9444,note_on,,2,0,6,,,,,,,,,5,,,61,63
9444,note_on,,0,0,2,,,,,,,,,1,,,57,95
9444,note_on,,12,0,2,,,,,,,,,1,,,55,0
9448,note_on,,40,0,7,,,,,,,,,6,,,45,0
9448,note_on,,40,0,8,,,,,,,,,7,,,33,0
9448,note_on,,40,0,4,,,,,,,,,3,,,64,0
9452,note_on,,20,0,5,,,,,,,,,4,,,69,0
9454,note_on,,10,0,6,,,,,,,,,5,,,61,0
9456,note_on,,12,0,2,,,,,,,,,1,,,57,0
9456,note_on,,24,0,3,,,,,,,,,2,,,76,0
9456,note_on,,0,0,3,,,,,,,,,2,,,81,95
9456,note_on,,8,0,7,,,,,,,,,6,,,45,63
9456,note_on,,2,0,6,,,,,,,,,5,,,64,63
9456,note_on,,0,0,2,,,,,,,,,1,,,54,95
9466,note_on,,10,0,6,,,,,,,,,5,,,64,0
9468,note_on,,2,0,6,,,,,,,,,5,,,64,63
9468,note_on,,44,0,1,,,,,,,,,0,,,69,95
9468,note_on,,12,0,2,,,,,,,,,1,,,54,0
9468,note_on,,0,0,2,,,,,,,,,1,,,57,95
9476,note_on,,8,0,1,,,,,,,,,0,,,69,0
9476,note_on,,20,0,7,,,,,,,,,6,,,45,0
9478,note_on,,10,0,6,,,,,,,,,5,,,64,0
9480,note_on,,2,0,6,,,,,,,,,5,,,69,63
9480,note_on,,28,0,5,,,,,,,,,4,,,69,79
9480,note_on,,4,0,7,,,,,,,,,6,,,50,63
9480,note_on,,0,0,2,,,,,,,,,1,,,52,95
9480,note_on,,0,0,1,,,,,,,,,0,,,67,95
9480,note_on,,32,0,4,,,,,,,,,3,,,64,95
9480,note_on,,4,0,1,,,,,,,,,0,,,61,95
9480,note_on,,12,0,2,,,,,,,,,1,,,57,0
9488,note_on,,8,0,1,,,,,,,,,0,,,67,0
9490,note_on,,10,0,6,,,,,,,,,5,,,69,0
9492,note_on,,4,0,1,,,,,,,,,0,,,69,95
9492,note_on,,2,0,6,,,,,,,,,5,,,69,63
9492,note_on,,0,0,2,,,,,,,,,1,,,57,95
9492,note_on,,12,0,2,,,,,,,,,1,,,52,0
9496,note_on,,4,0,1,,,,,,,,,0,,,61,0
9500,note_on,,20,0,5,,,,,,,,,4,,,69,0
9500,note_on,,4,0,1,,,,,,,,,0,,,69,0
9500,note_on,,20,0,4,,,,,,,,,3,,,64,0
9502,note_on,,10,0,6,,,,,,,,,5,,,69,0
9504,note_on,,0,0,1,,,,,,,,,0,,,66,95
9504,note_on,,2,0,6,,,,,,,,,5,,,62,63
9504,note_on,,4,0,1,,,,,,,,,0,,,62,95
9504,note_on,,0,0,2,,,,,,,,,1,,,50,95
9504,note_on,,12,0,2,,,,,,,,,1,,,57,0
9504,note_on,,4,0,5,,,,,,,,,4,,,66,79
9504,note_on,,4,0,4,,,,,,,,,3,,,66,95
9512,note_on,,8,0,1,,,,,,,,,0,,,66,0
9514,note_on,,10,0,6,,,,,,,,,5,,,62,0
9516,note_on,,4,0,1,,,,,,,,,0,,,69,95
9516,note_on,,2,0,6,,,,,,,,,5,,,62,63
9520,note_on,,4,0,1,,,,,,,,,0,,,62,0
9520,note_on,,40,0,7,,,,,,,,,6,,,50,0
9524,note_on,,20,0,5,,,,,,,,,4,,,66,0
9524,note_on,,4,0,1,,,,,,,,,0,,,69,0
9524,note_on,,20,0,4,,,,,,,,,3,,,66,0
9526,note_on,,10,0,6,,,,,,,,,5,,,62,0
9528,note_on,,0,0,1,,,,,,,,,0,,,64,95
9528,note_on,,4,0,1,,,,,,,,,0,,,60,95
9528,note_on,,2,0,6,,,,,,,,,5,,,66,63
9528,note_on,,4,0,4,,,,,,,,,3,,,64,95
9536,note_on,,8,0,1,,,,,,,,,0,,,64,0
9538,note_on,,10,0,6,,,,,,,,,5,,,66,0
9540,note_on,,4,0,1,,,,,,,,,0,,,69,95
9540,note_on,,2,0,6,,,,,,,,,5,,,66,63
9544,note_on,,4,0,1,,,,,,,,,0,,,60,0
9548,note_on,,20,0,4,,,,,,,,,3,,,64,0
9548,note_on,,4,0,1,,,,,,,,,0,,,69,0
9550,note_on,,10,0,6,,,,,,,,,5,,,66,0
9552,note_on,,0,0,1,,,,,,,,,0,,,62,95
9552,note_on,,48,0,2,,,,,,,,,1,,,50,0
9552,note_on,,4,0,4,,,,,,,,,3,,,67,95
9552,note_on,,4,0,1,,,,,,,,,0,,,59,95
9552,note_on,,2,0,6,,,,,,,,,5,,,69,63
9560,note_on,,8,0,1,,,,,,,,,0,,,62,0
9562,note_on,,10,0,6,,,,,,,,,5,,,69,0
9564,note_on,,2,0,6,,,,,,,,,5,,,69,63
9564,note_on,,4,0,1,,,,,,,,,0,,,67,95
9568,note_on,,4,0,1,,,,,,,,,0,,,59,0
9572,note_on,,4,0,1,,,,,,,,,0,,,67,0
9572,note_on,,20,0,4,,,,,,,,,3,,,67,0
9574,note_on,,10,0,6,,,,,,,,,5,,,69,0
9576,note_on,,2,0,6,,,,,,,,,5,,,74,63
9576,note_on,,24,0,2,,,,,,,,,1,,,38,95
9576,note_on,,56,0,7,,,,,,,,,6,,,38,63
9576,note_on,,0,0,1,,,,,,,,,0,,,60,95
9576,note_on,,4,0,1,,,,,,,,,0,,,57,95
9576,note_on,,4,0,4,,,,,,,,,3,,,66,95
9576,note_on,,52,0,5,,,,,,,,,4,,,74,79
9584,note_on,,8,0,1,,,,,,,,,0,,,60,0
9586,note_on,,10,0,6,,,,,,,,,5,,,74,0
9588,note_on,,2,0,6,,,,,,,,,5,,,74,63
9588,note_on,,4,0,1,,,,,,,,,0,,,66,95
9592,note_on,,4,0,1,,,,,,,,,0,,,57,0
9596,note_on,,20,0,7,,,,,,,,,6,,,38,0
9596,note_on,,20,0,4,,,,,,,,,3,,,66,0
9596,note_on,,20,0,5,,,,,,,,,4,,,74,0
9596,note_on,,4,0,1,,,,,,,,,0,,,66,0
9598,note_on,,10,0,6,,,,,,,,,5,,,74,0
9600,note_on,,0,0,1,,,,,,,,,0,,,59,95
9600,note_on,,0,0,1,,,,,,,,,0,,,55,95
9600,note_on,,0,0,1,,,,,,,,,0,,,67,95
9600,note_on,,4,0,1,,,,,,,,,0,,,62,95
9600,note_on,,0,0,2,,,,,,,,,1,,,43,95
9600,note_on,,0,0,3,,,,,,,,,2,,,81,95
9600,note_on,,4,0,5,,,,,,,,,4,,,71,79
9600,note_on,,4,0,4,,,,,,,,,3,,,71,95
9600,note_on,,2,0,6,,,,,,,,,5,,,76,63
9600,note_on,,24,0,2,,,,,,,,,1,,,38,0
9600,note_on,,144,0,3,,,,,,,,,2,,,81,0
9600,note_on,,4,0,7,,,,,,,,,6,,,43,63
9612,note_on,,12,0,2,,,,,,,,,1,,,43,0
9612,note_on,,0,0,2,,,,,,,,,1,,,50,95
9620,note_on,,20,0,5,,,,,,,,,4,,,71,0
9620,note_on,,20,0,6,,,,,,,,,5,,,76,0
9624,note_on,,0,0,3,,,,,,,,,2,,,74,95
9624,note_on,,24,0,3,,,,,,,,,2,,,81,0
9624,note_on,,0,0,2,,,,,,,,,1,,,48,95
9624,note_on,,4,0,6,,,,,,,,,5,,,69,63
9624,note_on,,12,0,2,,,,,,,,,1,,,50,0
9632,note_on,,32,0,1,,,,,,,,,0,,,67,0
9632,note_on,,0,0,1,,,,,,,,,0,,,59,0
9632,note_on,,0,0,1,,,,,,,,,0,,,55,0
9632,note_on,,0,0,1,,,,,,,,,0,,,62,0
9636,note_on,,12,0,2,,,,,,,,,1,,,48,0
9636,note_on,,0,0,2,,,,,,,,,1,,,50,95
9640,note_on,,40,0,7,,,,,,,,,6,,,43,0
9640,note_on,,40,0,4,,,,,,,,,3,,,71,0
9644,note_on,,20,0,6,,,,,,,,,5,,,69,0
9648,note_on,,12,0,2,,,,,,,,,1,,,50,0
9648,note_on,,0,0,3,,,,,,,,,2,,,79,95
9648,note_on,,0,0,2,,,,,,,,,1,,,47,95
9648,note_on,,24,0,3,,,,,,,,,2,,,74,0
9660,note_on,,12,0,2,,,,,,,,,1,,,47,0
9660,note_on,,0,0,2,,,,,,,,,1,,,50,95
9672,note_on,,12,0,2,,,,,,,,,1,,,50,0
9672,note_on,,28,0,6,,,,,,,,,5,,,61,56
9672,note_on,,32,0,4,,,,,,,,,3,,,71,95
9672,note_on,,52,0,5,,,,,,,,,4,,,71,79
9672,note_on,,32,0,7,,,,,,,,,6,,,43,63
9672,note_on,,0,0,2,,,,,,,,,1,,,43,95
9684,note_on,,0,0,2,,,,,,,,,1,,,47,95
9684,note_on,,12,0,2,,,,,,,,,1,,,43,0
9692,note_on,,20,0,7,,,,,,,,,6,,,43,0
9692,note_on,,20,0,4,,,,,,,,,3,,,71,0
9692,note_on,,20,0,6,,,,,,,,,5,,,61,0
9692,note_on,,20,0,5,,,,,,,,,4,,,71,0
9696,note_on,,0,0,2,,,,,,,,,1,,,40,95
9696,note_on,,12,0,2,,,,,,,,,1,,,47,0
9696,note_on,,4,0,5,,,,,,,,,4,,,67,79
9696,note_on,,4,0,6,,,,,,,,,5,,,57,56
9696,note_on,,4,0,4,,,,,,,,,3,,,73,95
9696,note_on,,4,0,7,,,,,,,,,6,,,40,63
9708,note_on,,76,0,1,,,,,,,,,0,,,79,95
9716,note_on,,20,0,4,,,,,,,,,3,,,73,0
9716,note_on,,20,0,6,,,,,,,,,5,,,57,0
9716,note_on,,20,0,5,,,,,,,,,4,,,67,0
9720,note_on,,4,0,4,,,,,,,,,3,,,71,95
9720,note_on,,12,0,1,,,,,,,,,0,,,79,0
9720,note_on,,0,0,1,,,,,,,,,0,,,83,95
9732,note_on,,12,0,1,,,,,,,,,0,,,83,0
9732,note_on,,0,0,1,,,,,,,,,0,,,81,95
9736,note_on,,40,0,7,,,,,,,,,6,,,40,0
9740,note_on,,20,0,4,,,,,,,,,3,,,71,0
9744,note_on,,4,0,4,,,,,,,,,3,,,74,95
9744,note_on,,12,0,1,,,,,,,,,0,,,81,0
9744,note_on,,0,0,1,,,,,,,,,0,,,79,95
9744,note_on,,48,0,2,,,,,,,,,1,,,40,0
9756,note_on,,0,0,1,,,,,,,,,0,,,78,95
9756,note_on,,12,0,1,,,,,,,,,0,,,79,0
9764,note_on,,20,0,4,,,,,,,,,3,,,74,0
9768,note_on,,4,0,4,,,,,,,,,3,,,73,95
9768,note_on,,52,0,6,,,,,,,,,5,,,66,56
9768,note_on,,0,0,1,,,,,,,,,0,,,76,95
9768,note_on,,12,0,1,,,,,,,,,0,,,78,0
9780,note_on,,0,0,1,,,,,,,,,0,,,74,95
9780,note_on,,12,0,1,,,,,,,,,0,,,76,0
9788,note_on,,20,0,6,,,,,,,,,5,,,66,0
9788,note_on,,20,0,4,,,,,,,,,3,,,73,0
9792,note_on,,0,0,1,,,,,,,,,0,,,73,95
9792,note_on,,4,0,4,,,,,,,,,3,,,76,95
9792,note_on,,4,0,6,,,,,,,,,5,,,62,56
9792,note_on,,12,0,1,,,,,,,,,0,,,74,0
9792,note_on,,144,0,3,,,,,,,,,2,,,79,0
9792,note_on,,0,0,3,,,,,,,,,2,,,79,95
9804,note_on,,0,0,1,,,,,,,,,0,,,79,95
9804,note_on,,0,0,3,,,,,,,,,2,,,83,95
9804,note_on,,12,0,3,,,,,,,,,2,,,79,0
9804,note_on,,12,0,1,,,,,,,,,0,,,73,0
9812,note_on,,20,0,4,,,,,,,,,3,,,76,0
9812,note_on,,20,0,6,,,,,,,,,5,,,62,0
9816,note_on,,4,0,4,,,,,,,,,3,,,69,95
9816,note_on,,72,0,2,,,,,,,,,1,,,45,95
9816,note_on,,0,0,1,,,,,,,,,0,,,78,95
9816,note_on,,12,0,1,,,,,,,,,0,,,79,0
9816,note_on,,80,0,7,,,,,,,,,6,,,45,63
9816,note_on,,0,0,3,,,,,,,,,2,,,81,95
9816,note_on,,12,0,3,,,,,,,,,2,,,83,0
9816,note_on,,100,0,5,,,,,,,,,4,,,73,79
9828,note_on,,0,0,3,,,,,,,,,2,,,79,95
9828,note_on,,12,0,3,,,,,,,,,2,,,81,0
9828,note_on,,12,0,1,,,,,,,,,0,,,78,0
9828,note_on,,0,0,1,,,,,,,,,0,,,76,95
9836,note_on,,20,0,4,,,,,,,,,3,,,69,0
9836,note_on,,20,0,7,,,,,,,,,6,,,45,0
9836,note_on,,20,0,5,,,,,,,,,4,,,73,0
9840,note_on,,24,0,2,,,,,,,,,1,,,45,0
9840,note_on,,0,0,3,,,,,,,,,2,,,78,95
9840,note_on,,12,0,3,,,,,,,,,2,,,79,0
9840,note_on,,4,0,4,,,,,,,,,3,,,78,95
9840,note_on,,0,0,2,,,,,,,,,1,,,50,95
9840,note_on,,12,0,1,,,,,,,,,0,,,76,0
9840,note_on,,4,0,7,,,,,,,,,6,,,50,63
9840,note_on,,4,0,5,,,,,,,,,4,,,74,79
9840,note_on,,0,0,1,,,,,,,,,0,,,74,95
9852,note_on,,0,0,1,,,,,,,,,0,,,73,95
9852,note_on,,12,0,1,,,,,,,,,0,,,74,0
9852,note_on,,12,0,3,,,,,,,,,2,,,78,0
9852,note_on,,0,0,3,,,,,,,,,2,,,76,95
9860,note_on,,20,0,7,,,,,,,,,6,,,50,0
9860,note_on,,20,0,5,,,,,,,,,4,,,74,0
9864,note_on,,24,0,2,,,,,,,,,1,,,50,0
9864,note_on,,0,0,2,,,,,,,,,1,,,42,95
9864,note_on,,0,0,3,,,,,,,,,2,,,74,95
9864,note_on,,12,0,3,,,,,,,,,2,,,76,0
9864,note_on,,4,0,5,,,,,,,,,4,,,76,79
9864,note_on,,52,0,6,,,,,,,,,5,,,62,56
9864,note_on,,12,0,1,,,,,,,,,0,,,73,0
9864,note_on,,4,0,7,,,,,,,,,6,,,42,63
9864,note_on,,0,0,1,,,,,,,,,0,,,71,95
9876,note_on,,0,0,3,,,,,,,,,2,,,73,95
9876,note_on,,12,0,3,,,,,,,,,2,,,74,0
9876,note_on,,0,0,1,,,,,,,,,0,,,70,95
9876,note_on,,12,0,1,,,,,,,,,0,,,71,0
9884,note_on,,20,0,6,,,,,,,,,5,,,62,0
9884,note_on,,20,0,5,,,,,,,,,4,,,76,0
9884,note_on,,20,0,7,,,,,,,,,6,,,42,0
9888,note_on,,12,0,1,,,,,,,,,0,,,70,0
9888,note_on,,24,0,2,,,,,,,,,1,,,42,0
9888,note_on,,0,0,2,,,,,,,,,1,,,47,95
9888,note_on,,4,0,5,,,,,,,,,4,,,74,79
9888,note_on,,0,0,3,,,,,,,,,2,,,74,95
9888,note_on,,0,0,1,,,,,,,,,0,,,71,95
9888,note_on,,12,0,3,,,,,,,,,2,,,73,0
9888,note_on,,0,0,1,,,,,,,,,0,,,74,95
9888,note_on,,4,0,6,,,,,,,,,5,,,64,56
9888,note_on,,4,0,7,,,,,,,,,6,,,47,63
9900,note_on,,12,0,1,,,,,,,,,0,,,74,0
9900,note_on,,0,0,1,,,,,,,,,0,,,78,95
9908,note_on,,20,0,5,,,,,,,,,4,,,74,0
9908,note_on,,20,0,6,,,,,,,,,5,,,64,0
9912,note_on,,0,0,1,,,,,,,,,0,,,71,0
9912,note_on,,0,0,1,,,,,,,,,0,,,69,95
9912,note_on,,0,0,1,,,,,,,,,0,,,73,95
9912,note_on,,24,0,3,,,,,,,,,2,,,74,0
9912,note_on,,0,0,3,,,,,,,,,2,,,73,95
9912,note_on,,12,0,1,,,,,,,,,0,,,78,0
9924,note_on,,0,0,1,,,,,,,,,0,,,78,95
9924,note_on,,12,0,1,,,,,,,,,0,,,73,0
9928,note_on,,40,0,7,,,,,,,,,6,,,47,0
9936,note_on,,12,0,1,,,,,,,,,0,,,78,0
9936,note_on,,0,0,1,,,,,,,,,0,,,69,0
9936,note_on,,0,0,1,,,,,,,,,0,,,67,95
9936,note_on,,0,0,1,,,,,,,,,0,,,71,95
9936,note_on,,0,0,3,,,,,,,,,2,,,76,95
9936,note_on,,24,0,3,,,,,,,,,2,,,73,0
9936,note_on,,48,0,2,,,,,,,,,1,,,47,0
9948,note_on,,0,0,1,,,,,,,,,0,,,76,95
9948,note_on,,12,0,1,,,,,,,,,0,,,71,0
9960,note_on,,0,0,1,,,,,,,,,0,,,67,0
9960,note_on,,32,0,7,,,,,,,,,6,,,47,63
9960,note_on,,52,0,5,,,,,,,,,4,,,83,79
9960,note_on,,0,0,1,,,,,,,,,0,,,69,95
9960,note_on,,24,0,2,,,,,,,,,1,,,47,95
9960,note_on,,0,0,1,,,,,,,,,0,,,66,95
9960,note_on,,24,0,3,,,,,,,,,2,,,76,0
9960,note_on,,0,0,3,,,,,,,,,2,,,75,95
9960,note_on,,12,0,1,,,,,,,,,0,,,76,0
9968,note_on,,128,0,4,,,,,,,,,3,,,78,0
9972,note_on,,0,0,1,,,,,,,,,0,,,75,95
9972,note_on,,12,0,1,,,,,,,,,0,,,69,0
9980,note_on,,20,0,7,,,,,,,,,6,,,47,0
9980,note_on,,20,0,5,,,,,,,,,4,,,83,0
9984,note_on,,0,0,1,,,,,,,,,0,,,76,95
9984,note_on,,4,0,5,,,,,,,,,4,,,79,79
9984,note_on,,4,0,7,,,,,,,,,6,,,52,63
9984,note_on,,0,0,1,,,,,,,,,0,,,64,95
9984,note_on,,0,0,1,,,,,,,,,0,,,66,0
9984,note_on,,12,0,1,,,,,,,,,0,,,75,0
9984,note_on,,0,0,3,,,,,,,,,2,,,79,95
9984,note_on,,16,0,4,,,,,,,,,3,,,78,95
9984,note_on,,24,0,3,,,,,,,,,2,,,75,0
9984,note_on,,24,0,2,,,,,,,,,1,,,47,0
9984,note_on,,0,0,2,,,,,,,,,1,,,52,95
9984,note_on,,0,0,1,,,,,,,,,0,,,71,95
9984,note_on,,0,0,1,,,,,,,,,0,,,67,95
9996,note_on,,12,0,2,,,,,,,,,1,,,52,0
9996,note_on,,0,0,2,,,,,,,,,1,,,59,95
10004,note_on,,20,0,4,,,,,,,,,3,,,78,0
10004,note_on,,20,0,5,,,,,,,,,4,,,79,0
10008,note_on,,100,0,6,,,,,,,,,5,,,69,56
10008,note_on,,4,0,4,,,,,,,,,3,,,71,95
10008,note_on,,12,0,2,,,,,,,,,1,,,59,0
10008,note_on,,0,0,2,,,,,,,,,1,,,57,95
10020,note_on,,12,0,2,,,,,,,,,1,,,57,0
10020,note_on,,0,0,2,,,,,,,,,1,,,59,95
10024,note_on,,40,0,7,,,,,,,,,6,,,52,0
10028,note_on,,20,0,4,,,,,,,,,3,,,71,0
10028,note_on,,20,0,6,,,,,,,,,5,,,69,0
10032,note_on,,48,0,3,,,,,,,,,2,,,79,0
10032,note_on,,4,0,4,,,,,,,,,3,,,76,95
10032,note_on,,4,0,6,,,,,,,,,5,,,69,56
10032,note_on,,12,0,2,,,,,,,,,1,,,59,0
10032,note_on,,0,0,1,,,,,,,,,0,,,64,0
10032,note_on,,0,0,1,,,,,,,,,0,,,67,0
10032,note_on,,0,0,1,,,,,,,,,0,,,71,0
10032,note_on,,0,0,2,,,,,,,,,1,,,55,95
10032,note_on,,48,0,1,,,,,,,,,0,,,76,0
10044,note_on,,0,0,2,,,,,,,,,1,,,59,95
10044,note_on,,12,0,2,,,,,,,,,1,,,55,0
10052,note_on,,20,0,6,,,,,,,,,5,,,69,0
10056,note_on,,4,0,6,,,,,,,,,5,,,66,56
10056,note_on,,0,0,2,,,,,,,,,1,,,52,95
10056,note_on,,12,0,2,,,,,,,,,1,,,59,0
10056,note_on,,32,0,7,,,,,,,,,6,,,52,63
10056,note_on,,52,0,5,,,,,,,,,4,,,83,79
10056,note_on,,24,0,3,,,,,,,,,2,,,80,95
10068,note_on,,0,0,2,,,,,,,,,1,,,55,95
10068,note_on,,12,0,2,,,,,,,,,1,,,52,0
10076,note_on,,20,0,5,,,,,,,,,4,,,83,0
10076,note_on,,20,0,6,,,,,,,,,5,,,66,0
10076,note_on,,20,0,7,,,,,,,,,6,,,52,0
10080,note_on,,12,0,2,,,,,,,,,1,,,55,0
10080,note_on,,4,0,5,,,,,,,,,4,,,76,79
10080,note_on,,0,0,2,,,,,,,,,1,,,49,95
10080,note_on,,0,0,3,,,,,,,,,2,,,82,95
10080,note_on,,24,0,3,,,,,,,,,2,,,80,0
10080,note_on,,4,0,6,,,,,,,,,5,,,66,56
10080,note_on,,4,0,7,,,,,,,,,6,,,49,63
10092,note_on,,60,0,1,,,,,,,,,0,,,73,95
10100,note_on,,20,0,6,,,,,,,,,5,,,66,0
10100,note_on,,20,0,5,,,,,,,,,4,,,76,0
10104,note_on,,0,0,1,,,,,,,,,0,,,74,95
10104,note_on,,0,0,3,,,,,,,,,2,,,80,95
10104,note_on,,24,0,3,,,,,,,,,2,,,82,0
10104,note_on,,12,0,1,,,,,,,,,0,,,73,0
10116,note_on,,12,0,1,,,,,,,,,0,,,74,0
10116,note_on,,0,0,1,,,,,,,,,0,,,78,95
10120,note_on,,40,0,7,,,,,,,,,6,,,49,0
10128,note_on,,28,0,6,,,,,,,,,5,,,75,56
10128,note_on,,24,0,3,,,,,,,,,2,,,80,0
10128,note_on,,0,0,3,,,,,,,,,2,,,83,95
10128,note_on,,48,0,2,,,,,,,,,1,,,49,0
10128,note_on,,0,0,1,,,,,,,,,0,,,76,95
10128,note_on,,12,0,1,,,,,,,,,0,,,78,0
10140,note_on,,12,0,1,,,,,,,,,0,,,76,0
10140,note_on,,0,0,1,,,,,,,,,0,,,74,95
10148,note_on,,20,0,6,,,,,,,,,5,,,75,0
10152,note_on,,12,0,1,,,,,,,,,0,,,74,0
10152,note_on,,0,0,3,,,,,,,,,2,,,82,95
10152,note_on,,0,0,1,,,,,,,,,0,,,73,95
10152,note_on,,24,0,3,,,,,,,,,2,,,83,0
10160,note_on,,128,0,4,,,,,,,,,3,,,76,0
10164,note_on,,12,0,1,,,,,,,,,0,,,73,0
10164,note_on,,0,0,1,,,,,,,,,0,,,71,95
10176,note_on,,28,0,6,,,,,,,,,5,,,71,56
10176,note_on,,16,0,4,,,,,,,,,3,,,76,95
10176,note_on,,24,0,3,,,,,,,,,2,,,82,0
10176,note_on,,0,0,1,,,,,,,,,0,,,70,95
10176,note_on,,12,0,1,,,,,,,,,0,,,71,0
10176,note_on,,0,0,3,,,,,,,,,2,,,85,95
10186,note_on,,10,0,4,,,,,,,,,3,,,76,0
10188,note_on,,0,0,1,,,,,,,,,0,,,76,95
10188,note_on,,12,0,1,,,,,,,,,0,,,70,0
10188,note_on,,2,0,4,,,,,,,,,3,,,79,95
10196,note_on,,20,0,6,,,,,,,,,5,,,71,0
10198,note_on,,10,0,4,,,,,,,,,3,,,79,0
10200,note_on,,72,0,2,,,,,,,,,1,,,50,95
10200,note_on,,2,0,4,,,,,,,,,3,,,78,95
10200,note_on,,24,0,3,,,,,,,,,2,,,85,0
10200,note_on,,0,0,3,,,,,,,,,2,,,70,95
10200,note_on,,100,0,5,,,,,,,,,4,,,73,79
10200,note_on,,0,0,1,,,,,,,,,0,,,74,95
10200,note_on,,12,0,1,,,,,,,,,0,,,76,0
10200,note_on,,80,0,7,,,,,,,,,6,,,54,63
10210,note_on,,10,0,4,,,,,,,,,3,,,78,0
10212,note_on,,0,0,1,,,,,,,,,0,,,73,95
10212,note_on,,12,0,1,,,,,,,,,0,,,74,0
10212,note_on,,2,0,4,,,,,,,,,3,,,76,95
10220,note_on,,20,0,5,,,,,,,,,4,,,73,0
10220,note_on,,20,0,7,,,,,,,,,6,,,54,0
10222,note_on,,10,0,4,,,,,,,,,3,,,76,0
10224,note_on,,4,0,5,,,,,,,,,4,,,74,79
10224,note_on,,0,0,1,,,,,,,,,0,,,71,95
10224,note_on,,12,0,1,,,,,,,,,0,,,73,0
10224,note_on,,24,0,3,,,,,,,,,2,,,70,0
10224,note_on,,0,0,3,,,,,,,,,2,,,74,95
10224,note_on,,0,0,2,,,,,,,,,1,,,59,95
10224,note_on,,2,0,4,,,,,,,,,3,,,74,95
10224,note_on,,4,0,7,,,,,,,,,6,,,59,63
10224,note_on,,24,0,2,,,,,,,,,1,,,50,0
10234,note_on,,10,0,4,,,,,,,,,3,,,74,0
10236,note_on,,2,0,4,,,,,,,,,3,,,72,95
10236,note_on,,12,0,1,,,,,,,,,0,,,71,0
10236,note_on,,0,0,1,,,,,,,,,0,,,69,95
10244,note_on,,20,0,7,,,,,,,,,6,,,59,0
10244,note_on,,20,0,5,,,,,,,,,4,,,74,0
10246,note_on,,10,0,4,,,,,,,,,3,,,72,0
10248,note_on,,0,0,1,,,,,,,,,0,,,67,95
10248,note_on,,2,0,4,,,,,,,,,3,,,71,95
10248,note_on,,12,0,1,,,,,,,,,0,,,69,0
10248,note_on,,4,0,5,,,,,,,,,4,,,72,79
10248,note_on,,24,0,2,,,,,,,,,1,,,59,0
10248,note_on,,4,0,7,,,,,,,,,6,,,50,63
10248,note_on,,52,0,6,,,,,,,,,5,,,64,56
10248,note_on,,0,0,2,,,,,,,,,1,,,47,95
10258,note_on,,10,0,4,,,,,,,,,3,,,71,0
10260,note_on,,12,0,1,,,,,,,,,0,,,67,0
10260,note_on,,0,0,1,,,,,,,,,0,,,66,95
10260,note_on,,2,0,4,,,,,,,,,3,,,69,95
10268,note_on,,20,0,7,,,,,,,,,6,,,50,0
10268,note_on,,20,0,6,,,,,,,,,5,,,64,0
10268,note_on,,20,0,5,,,,,,,,,4,,,72,0
10270,note_on,,10,0,4,,,,,,,,,3,,,69,0
10272,note_on,,0,0,1,,,,,,,,,0,,,67,95
10272,note_on,,12,0,1,,,,,,,,,0,,,66,0
10272,note_on,,24,0,2,,,,,,,,,1,,,47,0
10272,note_on,,0,0,2,,,,,,,,,1,,,55,95
10272,note_on,,4,0,7,,,,,,,,,6,,,55,63
10272,note_on,,0,0,1,,,,,,,,,0,,,71,95
10272,note_on,,2,0,4,,,,,,,,,3,,,71,95
10272,note_on,,4,0,6,,,,,,,,,5,,,67,56
10272,note_on,,4,0,5,,,,,,,,,4,,,71,79
10284,note_on,,0,0,1,,,,,,,,,0,,,74,95
10284,note_on,,12,0,1,,,,,,,,,0,,,71,0
10292,note_on,,20,0,7,,,,,,,,,6,,,55,0
10292,note_on,,20,0,5,,,,,,,,,4,,,71,0
10292,note_on,,20,0,4,,,,,,,,,3,,,71,0
10292,note_on,,20,0,6,,,,,,,,,5,,,67,0
10296,note_on,,12,0,1,,,,,,,,,0,,,74,0
10296,note_on,,0,0,1,,,,,,,,,0,,,67,0
10296,note_on,,0,0,1,,,,,,,,,0,,,65,95
10296,note_on,,4,0,4,,,,,,,,,3,,,69,95
10296,note_on,,0,0,1,,,,,,,,,0,,,69,95
10308,note_on,,0,0,1,,,,,,,,,0,,,74,95
10308,note_on,,12,0,1,,,,,,,,,0,,,69,0
10316,note_on,,20,0,4,,,,,,,,,3,,,69,0
10320,note_on,,0,0,1,,,,,,,,,0,,,67,95
10320,note_on,,0,0,1,,,,,,,,,0,,,64,95
10320,note_on,,12,0,1,,,,,,,,,0,,,74,0
10320,note_on,,0,0,1,,,,,,,,,0,,,65,0
10320,note_on,,4,0,4,,,,,,,,,3,,,72,95
10320,note_on,,48,0,2,,,,,,,,,1,,,55,0
10332,note_on,,12,0,1,,,,,,,,,0,,,67,0
10332,note_on,,0,0,1,,,,,,,,,0,,,72,95
10340,note_on,,20,0,4,,,,,,,,,3,,,72,0
10344,note_on,,4,0,4,,,,,,,,,3,,,71,95
10344,note_on,,52,0,7,,,,,,,,,6,,,43,63
10344,note_on,,52,0,5,,,,,,,,,4,,,79,79
10344,note_on,,24,0,2,,,,,,,,,1,,,43,95
10344,note_on,,12,0,1,,,,,,,,,0,,,72,0
10344,note_on,,0,0,1,,,,,,,,,0,,,64,0
10344,note_on,,0,0,1,,,,,,,,,0,,,62,95
10344,note_on,,0,0,1,,,,,,,,,0,,,65,95
10356,note_on,,0,0,1,,,,,,,,,0,,,71,95
10356,note_on,,12,0,1,,,,,,,,,0,,,65,0
10364,note_on,,20,0,5,,,,,,,,,4,,,79,0
10364,note_on,,20,0,4,,,,,,,,,3,,,71,0
10364,note_on,,20,0,7,,,,,,,,,6,,,43,0
10368,note_on,,144,0,3,,,,,,,,,2,,,74,0
10368,note_on,,0,0,2,,,,,,,,,1,,,48,95
10368,note_on,,12,0,1,,,,,,,,,0,,,71,0
10368,note_on,,0,0,1,,,,,,,,,0,,,62,0
10368,note_on,,0,0,1,,,,,,,,,0,,,60,95
10368,note_on,,0,0,1,,,,,,,,,0,,,67,95
10368,note_on,,0,0,1,,,,,,,,,0,,,72,95
10368,note_on,,0,0,1,,,,,,,,,0,,,64,95
10368,note_on,,24,0,2,,,,,,,,,1,,,43,0
10368,note_on,,4,0,5,,,,,,,,,4,,,76,79
10368,note_on,,4,0,7,,,,,,,,,6,,,48,63
10368,note_on,,0,0,3,,,,,,,,,2,,,74,95
10368,note_on,,4,0,4,,,,,,,,,3,,,76,95
10380,note_on,,12,0,2,,,,,,,,,1,,,48,0
10380,note_on,,0,0,2,,,,,,,,,1,,,55,95
10388,note_on,,20,0,5,,,,,,,,,4,,,76,0
10392,note_on,,0,0,3,,,,,,,,,2,,,67,95
10392,note_on,,100,0,6,,,,,,,,,5,,,66,56
10392,note_on,,12,0,2,,,,,,,,,1,,,55,0
10392,note_on,,0,0,2,,,,,,,,,1,,,53,95
10392,note_on,,24,0,3,,,,,,,,,2,,,74,0
10404,note_on,,0,0,2,,,,,,,,,1,,,55,95
10404,note_on,,12,0,2,,,,,,,,,1,,,53,0
10408,note_on,,40,0,4,,,,,,,,,3,,,76,0
10408,note_on,,40,0,7,,,,,,,,,6,,,48,0
10412,note_on,,20,0,6,,,,,,,,,5,,,66,0
10416,note_on,,0,0,1,,,,,,,,,0,,,67,0
10416,note_on,,0,0,2,,,,,,,,,1,,,52,95
10416,note_on,,48,0,1,,,,,,,,,0,,,72,0
10416,note_on,,0,0,1,,,,,,,,,0,,,60,0
10416,note_on,,0,0,1,,,,,,,,,0,,,64,0
10416,note_on,,12,0,2,,,,,,,,,1,,,55,0
10416,note_on,,24,0,3,,,,,,,,,2,,,67,0
10416,note_on,,0,0,3,,,,,,,,,2,,,72,95
10416,note_on,,4,0,6,,,,,,,,,5,,,66,56
10428,note_on,,0,0,2,,,,,,,,,1,,,55,95
10428,note_on,,12,0,2,,,,,,,,,1,,,52,0
10436,note_on,,20,0,6,,,,,,,,,5,,,66,0
10440,note_on,,32,0,7,,,,,,,,,6,,,48,63
10440,note_on,,12,0,2,,,,,,,,,1,,,55,0
10440,note_on,,0,0,2,,,,,,,,,1,,,48,95
10440,note_on,,32,0,4,,,,,,,,,3,,,76,95
10440,note_on,,4,0,6,,,,,,,,,5,,,62,56
10452,note_on,,12,0,2,,,,,,,,,1,,,48,0
10452,note_on,,0,0,2,,,,,,,,,1,,,52,95
10460,note_on,,20,0,4,,,,,,,,,3,,,76,0
10460,note_on,,20,0,7,,,,,,,,,6,,,48,0
10460,note_on,,20,0,6,,,,,,,,,5,,,62,0
10464,note_on,,4,0,4,,,,,,,,,3,,,78,95
10464,note_on,,4,0,7,,,,,,,,,6,,,45,63
10464,note_on,,4,0,6,,,,,,,,,5,,,62,56
10464,note_on,,76,0,5,,,,,,,,,4,,,79,56
10464,note_on,,0,0,2,,,,,,,,,1,,,45,95
10464,note_on,,12,0,2,,,,,,,,,1,,,52,0
10476,note_on,,60,0,1,,,,,,,,,0,,,72,95
10484,note_on,,20,0,6,,,,,,,,,5,,,62,0
10484,note_on,,20,0,4,,,,,,,,,3,,,78,0
10484,note_on,,20,0,5,,,,,,,,,4,,,79,0
10488,note_on,,4,0,5,,,,,,,,,4,,,78,56
10488,note_on,,12,0,1,,,,,,,,,0,,,72,0
10488,note_on,,4,0,4,,,,,,,,,3,,,76,95
10488,note_on,,0,0,1,,,,,,,,,0,,,76,95
10500,note_on,,12,0,1,,,,,,,,,0,,,76,0
10500,note_on,,0,0,1,,,,,,,,,0,,,74,95
10504,note_on,,40,0,7,,,,,,,,,6,,,45,0
10508,note_on,,20,0,5,,,,,,,,,4,,,78,0
10508,note_on,,20,0,4,,,,,,,,,3,,,76,0
10512,note_on,,12,0,1,,,,,,,,,0,,,74,0
10512,note_on,,0,0,1,,,,,,,,,0,,,72,95
10512,note_on,,4,0,4,,,,,,,,,3,,,79,95
10512,note_on,,48,0,2,,,,,,,,,1,,,45,0
10524,note_on,,0,0,1,,,,,,,,,0,,,71,95
10524,note_on,,12,0,1,,,,,,,,,0,,,72,0
10532,note_on,,20,0,4,,,,,,,,,3,,,79,0
10536,note_on,,0,0,1,,,,,,,,,0,,,69,95
10536,note_on,,4,0,4,,,,,,,,,3,,,78,95
10536,note_on,,12,0,1,,,,,,,,,0,,,71,0
10536,note_on,,52,0,6,,,,,,,,,5,,,71,56
10548,note_on,,0,0,1,,,,,,,,,0,,,67,95
10548,note_on,,12,0,1,,,,,,,,,0,,,69,0
10556,note_on,,20,0,4,,,,,,,,,3,,,78,0
10556,note_on,,20,0,6,,,,,,,,,5,,,71,0
10560,note_on,,0,0,3,,,,,,,,,2,,,72,95
10560,note_on,,0,0,1,,,,,,,,,0,,,66,95
10560,note_on,,12,0,1,,,,,,,,,0,,,67,0
10560,note_on,,4,0,4,,,,,,,,,3,,,81,95
10560,note_on,,4,0,6,,,,,,,,,5,,,67,56
10560,note_on,,144,0,3,,,,,,,,,2,,,72,0
10572,note_on,,12,0,1,,,,,,,,,0,,,66,0
10572,note_on,,0,0,1,,,,,,,,,0,,,67,95
10572,note_on,,12,0,3,,,,,,,,,2,,,72,0
10572,note_on,,0,0,3,,,,,,,,,2,,,76,95
10580,note_on,,20,0,6,,,,,,,,,5,,,67,0
10584,note_on,,72,0,2,,,,,,,,,1,,,45,95
10584,note_on,,76,0,5,,,,,,,,,4,,,69,79
10584,note_on,,80,0,7,,,,,,,,,6,,,45,63
10584,note_on,,12,0,1,,,,,,,,,0,,,67,0
10584,note_on,,0,0,1,,,,,,,,,0,,,66,95
10584,note_on,,0,0,3,,,,,,,,,2,,,74,95
10584,note_on,,12,0,3,,,,,,,,,2,,,76,0
10596,note_on,,0,0,3,,,,,,,,,2,,,72,95
10596,note_on,,12,0,3,,,,,,,,,2,,,74,0
10596,note_on,,0,0,1,,,,,,,,,0,,,64,95
10596,note_on,,12,0,1,,,,,,,,,0,,,66,0
10600,note_on,,40,0,4,,,,,,,,,3,,,81,0
10604,note_on,,20,0,5,,,,,,,,,4,,,69,0
10604,note_on,,20,0,7,,,,,,,,,6,,,45,0
10608,note_on,,12,0,1,,,,,,,,,0,,,64,0
10608,note_on,,24,0,2,,,,,,,,,1,,,45,0
10608,note_on,,0,0,2,,,,,,,,,1,,,47,95
10608,note_on,,0,0,3,,,,,,,,,2,,,71,95
10608,note_on,,4,0,5,,,,,,,,,4,,,71,79
10608,note_on,,4,0,7,,,,,,,,,6,,,50,63
10608,note_on,,0,0,1,,,,,,,,,0,,,62,95
10608,note_on,,12,0,3,,,,,,,,,2,,,72,0
10620,note_on,,12,0,1,,,,,,,,,0,,,62,0
10620,note_on,,12,0,3,,,,,,,,,2,,,71,0
10620,note_on,,0,0,3,,,,,,,,,2,,,69,95
10620,note_on,,0,0,1,,,,,,,,,0,,,60,95
10628,note_on,,20,0,7,,,,,,,,,6,,,50,0
10628,note_on,,20,0,5,,,,,,,,,4,,,71,0
10632,note_on,,0,0,2,,,,,,,,,1,,,38,95
10632,note_on,,24,0,2,,,,,,,,,1,,,47,0
10632,note_on,,4,0,7,,,,,,,,,6,,,38,63
10632,note_on,,52,0,6,,,,,,,,,5,,,64,56
10632,note_on,,12,0,1,,,,,,,,,0,,,60,0
10632,note_on,,0,0,3,,,,,,,,,2,,,67,95
10632,note_on,,12,0,3,,,,,,,,,2,,,69,0
10632,note_on,,4,0,5,,,,,,,,,4,,,72,79
10632,note_on,,0,0,1,,,,,,,,,0,,,59,95
10632,note_on,,32,0,4,,,,,,,,,3,,,69,95
10644,note_on,,12,0,3,,,,,,,,,2,,,67,0
10644,note_on,,0,0,1,,,,,,,,,0,,,57,95
10644,note_on,,12,0,1,,,,,,,,,0,,,59,0
10644,note_on,,0,0,3,,,,,,,,,2,,,66,95
10652,note_on,,20,0,4,,,,,,,,,3,,,69,0
10652,note_on,,20,0,7,,,,,,,,,6,,,38,0
10652,note_on,,20,0,5,,,,,,,,,4,,,72,0
10652,note_on,,20,0,6,,,,,,,,,5,,,64,0
10656,note_on,,4,0,7,,,,,,,,,6,,,43,63
10656,note_on,,0,0,2,,,,,,,,,1,,,43,95
10656,note_on,,4,0,4,,,,,,,,,3,,,71,95
10656,note_on,,4,0,6,,,,,,,,,5,,,69,56
10656,note_on,,4,0,5,,,,,,,,,4,,,71,79
10656,note_on,,24,0,2,,,,,,,,,1,,,38,0
10656,note_on,,0,0,3,,,,,,,,,2,,,67,95
10656,note_on,,12,0,3,,,,,,,,,2,,,66,0
10656,note_on,,12,0,1,,,,,,,,,0,,,57,0
10656,note_on,,0,0,1,,,,,,,,,0,,,55,95
10668,note_on,,0,0,2,,,,,,,,,1,,,55,95
10668,note_on,,12,0,2,,,,,,,,,1,,,43,0
10668,note_on,,12,0,1,,,,,,,,,0,,,55,0
10676,note_on,,20,0,4,,,,,,,,,3,,,71,0
10676,note_on,,20,0,6,,,,,,,,,5,,,69,0
10676,note_on,,20,0,7,,,,,,,,,6,,,43,0
10676,note_on,,20,0,5,,,,,,,,,4,,,71,0
10680,note_on,,4,0,4,,,,,,,,,3,,,69,95
10680,note_on,,12,0,2,,,,,,,,,1,,,55,0
10680,note_on,,0,0,2,,,,,,,,,1,,,54,95
10692,note_on,,12,0,2,,,,,,,,,1,,,54,0
10692,note_on,,0,0,2,,,,,,,,,1,,,55,95
10700,note_on,,20,0,4,,,,,,,,,3,,,69,0
10704,note_on,,4,0,4,,,,,,,,,3,,,72,95
10704,note_on,,12,0,2,,,,,,,,,1,,,55,0
10704,note_on,,36,0,1,,,,,,,,,0,,,69,95
10704,note_on,,0,0,2,,,,,,,,,1,,,52,95
10712,note_on,,0,0,1,,,,,,,,,0,,,67,95
10712,note_on,,8,0,1,,,,,,,,,0,,,69,0
10716,note_on,,12,0,2,,,,,,,,,1,,,52,0
10716,note_on,,0,0,2,,,,,,,,,1,,,55,95
10720,note_on,,0,0,1,,,,,,,,,0,,,69,95
10720,note_on,,8,0,1,,,,,,,,,0,,,67,0
10724,note_on,,20,0,4,,,,,,,,,3,,,72,0
10728,note_on,,0,0,1,,,,,,,,,0,,,71,95
10728,note_on,,8,0,1,,,,,,,,,0,,,69,0
10728,note_on,,0,0,2,,,,,,,,,1,,,50,95
10728,note_on,,12,0,2,,,,,,,,,1,,,55,0
10728,note_on,,4,0,4,,,,,,,,,3,,,71,95
10736,note_on,,0,0,1,,,,,,,,,0,,,69,95
10736,note_on,,8,0,1,,,,,,,,,0,,,71,0
10740,note_on,,12,0,2,,,,,,,,,1,,,50,0
10740,note_on,,0,0,2,,,,,,,,,1,,,55,95
10744,note_on,,8,0,1,,,,,,,,,0,,,69,0
10744,note_on,,0,0,1,,,,,,,,,0,,,71,95
10748,note_on,,20,0,4,,,,,,,,,3,,,71,0
10752,note_on,,8,0,1,,,,,,,,,0,,,71,0
10752,note_on,,4,0,4,,,,,,,,,3,,,76,95
10752,note_on,,0,0,2,,,,,,,,,1,,,48,95
10752,note_on,,12,0,2,,,,,,,,,1,,,55,0
10752,note_on,,0,0,1,,,,,,,,,0,,,72,95
10760,note_on,,0,0,1,,,,,,,,,0,,,71,95
10760,note_on,,8,0,1,,,,,,,,,0,,,72,0
10764,note_on,,0,0,2,,,,,,,,,1,,,55,95
10764,note_on,,12,0,2,,,,,,,,,1,,,48,0
10768,note_on,,0,0,1,,,,,,,,,0,,,72,95
10768,note_on,,8,0,1,,,,,,,,,0,,,71,0
10772,note_on,,20,0,4,,,,,,,,,3,,,76,0
10776,note_on,,0,0,1,,,,,,,,,0,,,74,95
10776,note_on,,4,0,4,,,,,,,,,3,,,74,95
10776,note_on,,0,0,2,,,,,,,,,1,,,47,95
10776,note_on,,100,0,6,,,,,,,,,5,,,66,56
10776,note_on,,12,0,2,,,,,,,,,1,,,55,0
10776,note_on,,8,0,1,,,,,,,,,0,,,72,0
10784,note_on,,8,0,1,,,,,,,,,0,,,74,0
10784,note_on,,0,0,1,,,,,,,,,0,,,76,95
10788,note_on,,12,0,2,,,,,,,,,1,,,47,0
10788,note_on,,0,0,2,,,,,,,,,1,,,55,95
10792,note_on,,0,0,1,,,,,,,,,0,,,74,95
10792,note_on,,8,0,1,,,,,,,,,0,,,76,0
10796,note_on,,20,0,6,,,,,,,,,5,,,66,0
10796,note_on,,20,0,4,,,,,,,,,3,,,74,0
10800,note_on,,4,0,6,,,,,,,,,5,,,67,56
10800,note_on,,0,0,1,,,,,,,,,0,,,72,95
10800,note_on,,4,0,4,,,,,,,,,3,,,66,95
10800,note_on,,8,0,1,,,,,,,,,0,,,74,0
10800,note_on,,12,0,2,,,,,,,,,1,,,55,0
10800,note_on,,0,0,2,,,,,,,,,1,,,45,95
10808,note_on,,8,0,1,,,,,,,,,0,,,72,0
10808,note_on,,0,0,1,,,,,,,,,0,,,74,95
10812,note_on,,0,0,2,,,,,,,,,1,,,55,95
10812,note_on,,12,0,2,,,,,,,,,1,,,45,0
10816,note_on,,0,0,1,,,,,,,,,0,,,72,95
10816,note_on,,8,0,1,,,,,,,,,0,,,74,0
10820,note_on,,20,0,6,,,,,,,,,5,,,67,0
10820,note_on,,20,0,4,,,,,,,,,3,,,66,0
10824,note_on,,4,0,6,,,,,,,,,5,,,69,56
10824,note_on,,0,0,1,,,,,,,,,0,,,71,95
10824,note_on,,12,0,2,,,,,,,,,1,,,55,0
10824,note_on,,0,0,2,,,,,,,,,1,,,43,95
10824,note_on,,8,0,1,,,,,,,,,0,,,72,0
10824,note_on,,4,0,4,,,,,,,,,3,,,67,95
10832,note_on,,8,0,1,,,,,,,,,0,,,71,0
10832,note_on,,0,0,1,,,,,,,,,0,,,72,95
10836,note_on,,12,0,2,,,,,,,,,1,,,43,0
10836,note_on,,0,0,2,,,,,,,,,1,,,55,95
10840,note_on,,8,0,1,,,,,,,,,0,,,72,0
10840,note_on,,0,0,1,,,,,,,,,0,,,71,95
10844,note_on,,20,0,6,,,,,,,,,5,,,69,0
10844,note_on,,20,0,4,,,,,,,,,3,,,67,0
10848,note_on,,8,0,1,,,,,,,,,0,,,71,0
10848,note_on,,4,0,6,,,,,,,,,5,,,62,56
10848,note_on,,0,0,1,,,,,,,,,0,,,79,95
10848,note_on,,12,0,2,,,,,,,,,1,,,55,0
10848,note_on,,4,0,4,,,,,,,,,3,,,61,95
10848,note_on,,192,0,3,,,,,,,,,2,,,67,0
10848,note_on,,0,0,3,,,,,,,,,2,,,67,95
10848,note_on,,0,0,2,,,,,,,,,1,,,52,95
10860,note_on,,0,0,1,,,,,,,,,0,,,76,95
10860,note_on,,12,0,1,,,,,,,,,0,,,79,0
10868,note_on,,20,0,4,,,,,,,,,3,,,61,0
10868,note_on,,20,0,6,,,,,,,,,5,,,62,0
10872,note_on,,0,0,1,,,,,,,,,0,,,74,95
10872,note_on,,4,0,4,,,,,,,,,3,,,62,95
10872,note_on,,24,0,3,,,,,,,,,2,,,67,0
10872,note_on,,0,0,3,,,,,,,,,2,,,66,95
10872,note_on,,12,0,1,,,,,,,,,0,,,76,0
10884,note_on,,0,0,1,,,,,,,,,0,,,76,95
10884,note_on,,12,0,1,,,,,,,,,0,,,74,0
10892,note_on,,20,0,4,,,,,,,,,3,,,62,0
10896,note_on,,48,0,2,,,,,,,,,1,,,52,0
10896,note_on,,4,0,4,,,,,,,,,3,,,64,95
10896,note_on,,0,0,3,,,,,,,,,2,,,64,95
10896,note_on,,24,0,3,,,,,,,,,2,,,66,0
10896,note_on,,0,0,1,,,,,,,,,0,,,73,95
10896,note_on,,12,0,1,,,,,,,,,0,,,76,0
10908,note_on,,0,0,1,,,,,,,,,0,,,76,95
10908,note_on,,12,0,1,,,,,,,,,0,,,73,0
10916,note_on,,20,0,4,,,,,,,,,3,,,64,0
10920,note_on,,0,0,3,,,,,,,,,2,,,62,95
10920,note_on,,12,0,1,,,,,,,,,0,,,76,0
10920,note_on,,0,0,1,,,,,,,,,0,,,71,95
10920,note_on,,4,0,4,,,,,,,,,3,,,66,95
10920,note_on,,24,0,3,,,,,,,,,2,,,64,0
10932,note_on,,12,0,1,,,,,,,,,0,,,71,0
10932,note_on,,0,0,1,,,,,,,,,0,,,76,95
10940,note_on,,20,0,4,,,,,,,,,3,,,66,0
10944,note_on,,4,0,4,,,,,,,,,3,,,67,95
10944,note_on,,0,0,1,,,,,,,,,0,,,69,95
10944,note_on,,24,0,3,,,,,,,,,2,,,62,0
10944,note_on,,0,0,3,,,,,,,,,2,,,73,95
10944,note_on,,12,0,1,,,,,,,,,0,,,76,0
10950,note_on,,6,0,3,,,,,,,,,2,,,73,0
10950,note_on,,0,0,3,,,,,,,,,2,,,74,95
10954,note_on,,10,0,4,,,,,,,,,3,,,67,0
10956,note_on,,12,0,1,,,,,,,,,0,,,69,0
10956,note_on,,0,0,1,,,,,,,,,0,,,76,95
10956,note_on,,0,0,3,,,,,,,,,2,,,73,95
10956,note_on,,6,0,3,,,,,,,,,2,,,74,0
10956,note_on,,2,0,4,,,,,,,,,3,,,66,95
10962,note_on,,6,0,3,,,,,,,,,2,,,73,0
10962,note_on,,0,0,3,,,,,,,,,2,,,74,95
10966,note_on,,10,0,4,,,,,,,,,3,,,66,0
10968,note_on,,12,0,1,,,,,,,,,0,,,76,0
10968,note_on,,72,0,2,,,,,,,,,1,,,52,95
10968,note_on,,6,0,3,,,,,,,,,2,,,74,0
10968,note_on,,0,0,3,,,,,,,,,2,,,73,95
10968,note_on,,0,0,1,,,,,,,,,0,,,67,95
10968,note_on,,2,0,4,,,,,,,,,3,,,64,95
10974,note_on,,6,0,3,,,,,,,,,2,,,73,0
10974,note_on,,0,0,3,,,,,,,,,2,,,74,95
10978,note_on,,10,0,4,,,,,,,,,3,,,64,0
10980,note_on,,0,0,1,,,,,,,,,0,,,76,95
10980,note_on,,12,0,1,,,,,,,,,0,,,67,0
10980,note_on,,2,0,4,,,,,,,,,3,,,66,95
10980,note_on,,0,0,3,,,,,,,,,2,,,73,95
10980,note_on,,6,0,3,,,,,,,,,2,,,74,0
10986,note_on,,6,0,3,,,,,,,,,2,,,73,0
10986,note_on,,0,0,3,,,,,,,,,2,,,74,95
10990,note_on,,10,0,4,,,,,,,,,3,,,66,0
10992,note_on,,24,0,2,,,,,,,,,1,,,52,0
10992,note_on,,0,0,2,,,,,,,,,1,,,57,95
10992,note_on,,0,0,1,,,,,,,,,0,,,66,95
10992,note_on,,12,0,1,,,,,,,,,0,,,76,0
10992,note_on,,2,0,4,,,,,,,,,3,,,67,95
10992,note_on,,6,0,3,,,,,,,,,2,,,74,0
11002,note_on,,10,0,4,,,,,,,,,3,,,67,0
11004,note_on,,2,0,4,,,,,,,,,3,,,71,95
11004,note_on,,12,0,1,,,,,,,,,0,,,66,0
11004,note_on,,0,0,1,,,,,,,,,0,,,76,95
11014,note_on,,10,0,4,,,,,,,,,3,,,71,0
11016,note_on,,148,0,6,,,,,,,,,5,,,69,95
11016,note_on,,24,0,2,,,,,,,,,1,,,57,0
11016,note_on,,2,0,4,,,,,,,,,3,,,69,95
11016,note_on,,0,0,2,,,,,,,,,1,,,45,95
11016,note_on,,0,0,1,,,,,,,,,0,,,64,95
11016,note_on,,340,0,7,,,,,,,,,6,,,57,95
11016,note_on,,340,0,5,,,,,,,,,4,,,76,95
11016,note_on,,1568,0,8,,,,,,,,,7,,,45,95
11016,note_on,,12,0,1,,,,,,,,,0,,,76,0
11026,note_on,,10,0,4,,,,,,,,,3,,,69,0
11028,note_on,,12,0,1,,,,,,,,,0,,,64,0
11028,note_on,,0,0,1,,,,,,,,,0,,,73,95
11028,note_on,,2,0,4,,,,,,,,,3,,,67,95
11036,note_on,,20,0,6,,,,,,,,,5,,,69,0
11036,note_on,,20,0,7,,,,,,,,,6,,,57,0
11036,note_on,,20,0,8,,,,,,,,,7,,,45,0
11036,note_on,,20,0,5,,,,,,,,,4,,,76,0
11038,note_on,,10,0,4,,,,,,,,,3,,,67,0
11040,note_on,,4,0,5,,,,,,,,,4,,,78,95
11040,note_on,,24,0,2,,,,,,,,,1,,,45,0
11040,note_on,,0,0,2,,,,,,,,,1,,,62,95
11040,note_on,,4,0,7,,,,,,,,,6,,,62,95
11040,note_on,,2,0,4,,,,,,,,,3,,,66,95
11040,note_on,,4,0,8,,,,,,,,,7,,,50,95
11040,note_on,,0,0,1,,,,,,,,,0,,,74,95
11040,note_on,,12,0,1,,,,,,,,,0,,,73,0
11040,note_on,,4,0,6,,,,,,,,,5,,,69,95
11050,note_on,,10,0,5,,,,,,,,,4,,,78,0
11050,note_on,,10,0,4,,,,,,,,,3,,,66,0
11052,note_on,,2,0,5,,,,,,,,,4,,,78,95
11052,note_on,,2,0,4,,,,,,,,,3,,,66,95
11060,note_on,,20,0,7,,,,,,,,,6,,,62,0
11060,note_on,,20,0,8,,,,,,,,,7,,,50,0
11060,note_on,,20,0,2,,,,,,,,,1,,,62,0
11060,note_on,,20,0,6,,,,,,,,,5,,,69,0
11062,note_on,,10,0,4,,,,,,,,,3,,,66,0
11062,note_on,,10,0,5,,,,,,,,,4,,,78,0
11064,note_on,,4,0,2,,,,,,,,,1,,,61,95
11064,note_on,,4,0,6,,,,,,,,,5,,,69,95
11064,note_on,,24,0,1,,,,,,,,,0,,,74,0
11064,note_on,,2,0,5,,,,,,,,,4,,,76,95
11064,note_on,,4,0,8,,,,,,,,,7,,,49,95
11064,note_on,,4,0,7,,,,,,,,,6,,,61,95
11064,note_on,,2,0,4,,,,,,,,,3,,,69,95
11074,note_on,,10,0,5,,,,,,,,,4,,,76,0
11074,note_on,,10,0,4,,,,,,,,,3,,,69,0
11076,note_on,,2,0,5,,,,,,,,,4,,,76,95
11076,note_on,,2,0,4,,,,,,,,,3,,,69,95
11084,note_on,,20,0,2,,,,,,,,,1,,,61,0
11084,note_on,,20,0,7,,,,,,,,,6,,,61,0
11084,note_on,,20,0,6,,,,,,,,,5,,,69,0
11084,note_on,,20,0,8,,,,,,,,,7,,,49,0
11086,note_on,,10,0,4,,,,,,,,,3,,,69,0
11086,note_on,,10,0,5,,,,,,,,,4,,,76,0
11088,note_on,,2,0,4,,,,,,,,,3,,,74,95
11088,note_on,,4,0,7,,,,,,,,,6,,,59,95
11088,note_on,,4,0,2,,,,,,,,,1,,,59,95
11088,note_on,,4,0,6,,,,,,,,,5,,,74,95
11088,note_on,,2,0,5,,,,,,,,,4,,,79,95
11088,note_on,,4,0,8,,,,,,,,,7,,,47,95
11098,note_on,,10,0,4,,,,,,,,,3,,,74,0
11098,note_on,,10,0,5,,,,,,,,,4,,,79,0
11100,note_on,,2,0,5,,,,,,,,,4,,,79,95
11100,note_on,,2,0,4,,,,,,,,,3,,,74,95
11108,note_on,,20,0,2,,,,,,,,,1,,,59,0
11108,note_on,,20,0,8,,,,,,,,,7,,,47,0
11108,note_on,,20,0,7,,,,,,,,,6,,,59,0
11108,note_on,,20,0,6,,,,,,,,,5,,,74,0
11110,note_on,,10,0,5,,,,,,,,,4,,,79,0
11110,note_on,,10,0,4,,,,,,,,,3,,,74,0
11112,note_on,,4,0,7,,,,,,,,,6,,,57,95
11112,note_on,,2,0,4,,,,,,,,,3,,,78,95
11112,note_on,,4,0,8,,,,,,,,,7,,,45,95
11112,note_on,,4,0,2,,,,,,,,,1,,,57,95
11112,note_on,,2,0,5,,,,,,,,,4,,,78,95
11112,note_on,,4,0,6,,,,,,,,,5,,,73,95
11122,note_on,,10,0,5,,,,,,,,,4,,,78,0
11122,note_on,,10,0,4,,,,,,,,,3,,,78,0
11124,note_on,,2,0,5,,,,,,,,,4,,,78,95
11124,note_on,,2,0,4,,,,,,,,,3,,,78,95
11132,note_on,,20,0,2,,,,,,,,,1,,,57,0
11132,note_on,,20,0,8,,,,,,,,,7,,,45,0
11132,note_on,,20,0,7,,,,,,,,,6,,,57,0
11132,note_on,,20,0,6,,,,,,,,,5,,,73,0
11134,note_on,,10,0,5,,,,,,,,,4,,,78,0
11134,note_on,,10,0,4,,,,,,,,,3,,,78,0
11136,note_on,,4,0,6,,,,,,,,,5,,,74,95
11136,note_on,,4,0,7,,,,,,,,,6,,,55,95
11136,note_on,,4,0,2,,,,,,,,,1,,,55,95
11136,note_on,,4,0,8,,,,,,,,,7,,,43,95
11136,note_on,,2,0,4,,,,,,,,,3,,,83,95
11136,note_on,,2,0,5,,,,,,,,,4,,,83,95
11146,note_on,,10,0,5,,,,,,,,,4,,,83,0
11146,note_on,,10,0,4,,,,,,,,,3,,,83,0
11148,note_on,,2,0,5,,,,,,,,,4,,,83,95
11148,note_on,,2,0,4,,,,,,,,,3,,,83,95
11156,note_on,,20,0,2,,,,,,,,,1,,,55,0
11156,note_on,,20,0,7,,,,,,,,,6,,,55,0
11156,note_on,,20,0,6,,,,,,,,,5,,,74,0
11156,note_on,,20,0,8,,,,,,,,,7,,,43,0
11158,note_on,,10,0,4,,,,,,,,,3,,,83,0
11158,note_on,,10,0,5,,,,,,,,,4,,,83,0
11160,note_on,,4,0,2,,,,,,,,,1,,,54,95
11160,note_on,,4,0,6,,,,,,,,,5,,,62,95
11160,note_on,,4,0,7,,,,,,,,,6,,,54,95
11160,note_on,,2,0,4,,,,,,,,,3,,,81,95
11160,note_on,,4,0,8,,,,,,,,,7,,,42,95
11160,note_on,,2,0,5,,,,,,,,,4,,,81,95
11170,note_on,,10,0,4,,,,,,,,,3,,,81,0
11170,note_on,,10,0,5,,,,,,,,,4,,,81,0
11172,note_on,,2,0,5,,,,,,,,,4,,,81,95
11172,note_on,,2,0,4,,,,,,,,,3,,,81,95
11180,note_on,,20,0,2,,,,,,,,,1,,,54,0
11180,note_on,,20,0,8,,,,,,,,,7,,,42,0
11180,note_on,,20,0,6,,,,,,,,,5,,,62,0
11180,note_on,,20,0,7,,,,,,,,,6,,,54,0
11182,note_on,,10,0,5,,,,,,,,,4,,,81,0
11182,note_on,,10,0,4,,,,,,,,,3,,,81,0
11184,note_on,,2,0,5,,,,,,,,,4,,,73,95
11184,note_on,,4,0,2,,,,,,,,,1,,,52,95
11184,note_on,,4,0,6,,,,,,,,,5,,,67,95
11184,note_on,,2,0,4,,,,,,,,,3,,,73,95
11184,note_on,,4,0,8,,,,,,,,,7,,,40,95
11184,note_on,,4,0,7,,,,,,,,,6,,,52,95
11194,note_on,,10,0,4,,,,,,,,,3,,,73,0
11194,note_on,,10,0,5,,,,,,,,,4,,,73,0
11196,note_on,,2,0,5,,,,,,,,,4,,,73,95
11196,note_on,,2,0,4,,,,,,,,,3,,,73,95
11204,note_on,,20,0,8,,,,,,,,,7,,,40,0
11204,note_on,,20,0,2,,,,,,,,,1,,,52,0
11204,note_on,,20,0,7,,,,,,,,,6,,,52,0
11204,note_on,,20,0,6,,,,,,,,,5,,,67,0
11206,note_on,,10,0,5,,,,,,,,,4,,,73,0
11206,note_on,,10,0,4,,,,,,,,,3,,,73,0
11208,note_on,,4,0,6,,,,,,,,,5,,,66,95
11208,note_on,,4,0,2,,,,,,,,,1,,,50,95
11208,note_on,,2,0,4,,,,,,,,,3,,,74,95
11208,note_on,,2,0,5,,,,,,,,,4,,,74,95
11208,note_on,,4,0,7,,,,,,,,,6,,,50,95
11208,note_on,,4,0,8,,,,,,,,,7,,,38,95
11218,note_on,,10,0,5,,,,,,,,,4,,,74,0
11218,note_on,,10,0,4,,,,,,,,,3,,,74,0
11220,note_on,,2,0,4,,,,,,,,,3,,,74,95
11220,note_on,,2,0,5,,,,,,,,,4,,,74,95
11228,note_on,,20,0,7,,,,,,,,,6,,,50,0
11228,note_on,,20,0,8,,,,,,,,,7,,,38,0
11228,note_on,,20,0,2,,,,,,,,,1,,,50,0
11228,note_on,,20,0,6,,,,,,,,,5,,,66,0
11230,note_on,,10,0,5,,,,,,,,,4,,,74,0
11230,note_on,,10,0,4,,,,,,,,,3,,,74,0
11232,note_on,,4,0,7,,,,,,,,,6,,,49,95
11232,note_on,,4,0,6,,,,,,,,,5,,,64,95
11232,note_on,,4,0,8,,,,,,,,,7,,,37,95
11232,note_on,,2,0,5,,,,,,,,,4,,,67,95
11232,note_on,,2,0,4,,,,,,,,,3,,,67,95
11232,note_on,,4,0,2,,,,,,,,,1,,,49,95
11242,note_on,,10,0,4,,,,,,,,,3,,,67,0
11242,note_on,,10,0,5,,,,,,,,,4,,,67,0
11244,note_on,,2,0,5,,,,,,,,,4,,,67,95
11244,note_on,,2,0,4,,,,,,,,,3,,,67,95
11252,note_on,,20,0,8,,,,,,,,,7,,,37,0
11252,note_on,,20,0,7,,,,,,,,,6,,,49,0
11252,note_on,,20,0,2,,,,,,,,,1,,,49,0
11252,note_on,,20,0,6,,,,,,,,,5,,,64,0
11254,note_on,,10,0,5,,,,,,,,,4,,,67,0
11254,note_on,,10,0,4,,,,,,,,,3,,,67,0
11256,note_on,,2,0,4,,,,,,,,,3,,,66,95
11256,note_on,,2,0,5,,,,,,,,,4,,,66,95
11256,note_on,,4,0,2,,,,,,,,,1,,,50,95
11256,note_on,,4,0,7,,,,,,,,,6,,,50,95
11256,note_on,,4,0,6,,,,,,,,,5,,,62,95
11256,note_on,,4,0,8,,,,,,,,,7,,,38,95
11266,note_on,,10,0,5,,,,,,,,,4,,,66,0
11266,note_on,,10,0,4,,,,,,,,,3,,,66,0
11268,note_on,,2,0,5,,,,,,,,,4,,,66,95
11268,note_on,,2,0,4,,,,,,,,,3,,,66,95
11276,note_on,,20,0,8,,,,,,,,,7,,,38,0
11276,note_on,,20,0,7,,,,,,,,,6,,,50,0
11276,note_on,,20,0,2,,,,,,,,,1,,,50,0
11276,note_on,,20,0,6,,,,,,,,,5,,,62,0
11278,note_on,,10,0,5,,,,,,,,,4,,,66,0
11278,note_on,,10,0,4,,,,,,,,,3,,,66,0
11280,note_on,,4,0,2,,,,,,,,,1,,,55,95
11280,note_on,,2,0,5,,,,,,,,,4,,,71,95
11280,note_on,,4,0,6,,,,,,,,,5,,,62,95
11280,note_on,,4,0,7,,,,,,,,,6,,,55,95
11280,note_on,,2,0,4,,,,,,,,,3,,,71,95
11280,note_on,,4,0,8,,,,,,,,,7,,,43,95
11290,note_on,,10,0,5,,,,,,,,,4,,,71,0
11290,note_on,,10,0,4,,,,,,,,,3,,,71,0
11292,note_on,,2,0,4,,,,,,,,,3,,,71,95
11292,note_on,,2,0,5,,,,,,,,,4,,,71,95
11300,note_on,,20,0,6,,,,,,,,,5,,,62,0
11300,note_on,,20,0,2,,,,,,,,,1,,,55,0
11300,note_on,,20,0,7,,,,,,,,,6,,,55,0
11300,note_on,,20,0,8,,,,,,,,,7,,,43,0
11302,note_on,,10,0,5,,,,,,,,,4,,,71,0
11302,note_on,,10,0,4,,,,,,,,,3,,,71,0
11304,note_on,,4,0,2,,,,,,,,,1,,,54,95
11304,note_on,,4,0,8,,,,,,,,,7,,,42,95
11304,note_on,,4,0,6,,,,,,,,,5,,,62,95
11304,note_on,,2,0,4,,,,,,,,,3,,,69,95
11304,note_on,,4,0,7,,,,,,,,,6,,,54,95
11304,note_on,,2,0,5,,,,,,,,,4,,,69,95
11314,note_on,,10,0,4,,,,,,,,,3,,,69,0
11314,note_on,,10,0,5,,,,,,,,,4,,,69,0
11316,note_on,,2,0,5,,,,,,,,,4,,,69,95
11316,note_on,,2,0,4,,,,,,,,,3,,,69,95
11324,note_on,,20,0,6,,,,,,,,,5,,,62,0
11324,note_on,,20,0,2,,,,,,,,,1,,,54,0
11324,note_on,,20,0,8,,,,,,,,,7,,,42,0
11324,note_on,,20,0,7,,,,,,,,,6,,,54,0
11326,note_on,,10,0,5,,,,,,,,,4,,,69,0
11326,note_on,,10,0,4,,,,,,,,,3,,,69,0
11328,note_on,,2,0,4,,,,,,,,,3,,,61,95
11328,note_on,,2,0,5,,,,,,,,,4,,,61,95
11328,note_on,,4,0,6,,,,,,,,,5,,,67,95
11328,note_on,,4,0,8,,,,,,,,,7,,,40,95
11328,note_on,,4,0,7,,,,,,,,,6,,,52,95
11328,note_on,,4,0,2,,,,,,,,,1,,,52,95
11338,note_on,,10,0,4,,,,,,,,,3,,,61,0
11338,note_on,,10,0,5,,,,,,,,,4,,,61,0
11340,note_on,,2,0,4,,,,,,,,,3,,,61,95
11340,note_on,,2,0,5,,,,,,,,,4,,,61,95
11348,note_on,,20,0,8,,,,,,,,,7,,,40,0
11348,note_on,,20,0,6,,,,,,,,,5,,,67,0
11348,note_on,,20,0,2,,,,,,,,,1,,,52,0
11348,note_on,,20,0,7,,,,,,,,,6,,,52,0
11350,note_on,,10,0,5,,,,,,,,,4,,,61,0
11350,note_on,,10,0,4,,,,,,,,,3,,,61,0
11352,note_on,,4,0,6,,,,,,,,,5,,,66,95
11352,note_on,,4,0,8,,,,,,,,,7,,,38,95
11352,note_on,,2,0,4,,,,,,,,,3,,,62,95
11352,note_on,,4,0,7,,,,,,,,,6,,,50,95
11352,note_on,,4,0,2,,,,,,,,,1,,,50,95
11352,note_on,,2,0,5,,,,,,,,,4,,,62,95
11362,note_on,,10,0,4,,,,,,,,,3,,,62,0
11362,note_on,,10,0,5,,,,,,,,,4,,,62,0
11364,note_on,,2,0,5,,,,,,,,,4,,,62,95
11364,note_on,,2,0,4,,,,,,,,,3,,,62,95
11372,note_on,,20,0,7,,,,,,,,,6,,,50,0
11372,note_on,,20,0,6,,,,,,,,,5,,,66,0
11372,note_on,,20,0,2,,,,,,,,,1,,,50,0
11372,note_on,,20,0,8,,,,,,,,,7,,,38,0
11374,note_on,,10,0,5,,,,,,,,,4,,,62,0
11374,note_on,,10,0,4,,,,,,,,,3,,,62,0
11376,note_on,,4,0,2,,,,,,,,,1,,,49,95
11376,note_on,,4,0,8,,,,,,,,,7,,,37,95
11376,note_on,,2,0,4,,,,,,,,,3,,,57,95
11376,note_on,,2,0,5,,,,,,,,,4,,,57,95
11376,note_on,,4,0,6,,,,,,,,,5,,,64,95
11376,note_on,,4,0,7,,,,,,,,,6,,,49,95
11386,note_on,,10,0,4,,,,,,,,,3,,,57,0
11386,note_on,,10,0,5,,,,,,,,,4,,,57,0
11388,note_on,,2,0,4,,,,,,,,,3,,,57,95
11388,note_on,,2,0,5,,,,,,,,,4,,,57,95
11396,note_on,,20,0,8,,,,,,,,,7,,,37,0
11396,note_on,,20,0,7,,,,,,,,,6,,,49,0
11396,note_on,,20,0,2,,,,,,,,,1,,,49,0
11396,note_on,,20,0,6,,,,,,,,,5,,,64,0
11398,note_on,,10,0,4,,,,,,,,,3,,,57,0
11398,note_on,,10,0,5,,,,,,,,,4,,,57,0
11400,note_on,,2,0,4,,,,,,,,,3,,,67,95
11400,note_on,,4,0,8,,,,,,,,,7,,,33,95
11400,note_on,,2,0,5,,,,,,,,,4,,,67,95
11400,note_on,,4,0,2,,,,,,,,,1,,,45,95
11400,note_on,,4,0,7,,,,,,,,,6,,,45,95
11400,note_on,,4,0,6,,,,,,,,,5,,,61,95
11410,note_on,,10,0,4,,,,,,,,,3,,,67,0
11410,note_on,,10,0,5,,,,,,,,,4,,,67,0
11412,note_on,,2,0,5,,,,,,,,,4,,,67,95
11412,note_on,,2,0,4,,,,,,,,,3,,,67,95
11420,note_on,,20,0,8,,,,,,,,,7,,,33,0
11420,note_on,,20,0,2,,,,,,,,,1,,,45,0
11420,note_on,,20,0,6,,,,,,,,,5,,,61,0
11420,note_on,,20,0,7,,,,,,,,,6,,,45,0
11422,note_on,,10,0,4,,,,,,,,,3,,,67,0
11422,note_on,,10,0,5,,,,,,,,,4,,,67,0
11424,note_on,,2,0,4,,,,,,,,,3,,,66,95
11424,note_on,,4,0,8,,,,,,,,,7,,,38,95
11424,note_on,,2,0,5,,,,,,,,,4,,,66,95
11424,note_on,,4,0,6,,,,,,,,,5,,,62,95
11424,note_on,,4,0,2,,,,,,,,,1,,,50,95
11424,note_on,,4,0,7,,,,,,,,,6,,,50,95
11434,note_on,,10,0,4,,,,,,,,,3,,,66,0
11434,note_on,,10,0,5,,,,,,,,,4,,,66,0
11436,note_on,,2,0,5,,,,,,,,,4,,,64,95
11436,note_on,,2,0,4,,,,,,,,,3,,,64,95
11444,note_on,,20,0,6,,,,,,,,,5,,,62,0
11444,note_on,,20,0,2,,,,,,,,,1,,,50,0
11444,note_on,,20,0,7,,,,,,,,,6,,,50,0
11444,note_on,,20,0,8,,,,,,,,,7,,,38,0
11446,note_on,,10,0,4,,,,,,,,,3,,,64,0
11446,note_on,,10,0,5,,,,,,,,,4,,,64,0
11448,note_on,,4,0,2,,,,,,,,,1,,,47,95
11448,note_on,,4,0,7,,,,,,,,,6,,,47,95
11448,note_on,,2,0,4,,,,,,,,,3,,,66,95
11448,note_on,,4,0,8,,,,,,,,,7,,,35,95
11448,note_on,,2,0,5,,,,,,,,,4,,,66,95
11448,note_on,,4,0,6,,,,,,,,,5,,,62,95
11458,note_on,,10,0,5,,,,,,,,,4,,,66,0
11458,note_on,,10,0,4,,,,,,,,,3,,,66,0
11460,note_on,,2,0,4,,,,,,,,,3,,,62,95
11460,note_on,,2,0,5,,,,,,,,,4,,,62,95
11468,note_on,,20,0,8,,,,,,,,,7,,,35,0
11468,note_on,,20,0,7,,,,,,,,,6,,,47,0
11468,note_on,,20,0,6,,,,,,,,,5,,,62,0
11468,note_on,,20,0,2,,,,,,,,,1,,,47,0
11470,note_on,,10,0,4,,,,,,,,,3,,,62,0
11470,note_on,,10,0,5,,,,,,,,,4,,,62,0
11472,note_on,,4,0,7,,,,,,,,,6,,,43,95
11472,note_on,,2,0,5,,,,,,,,,4,,,64,95
11472,note_on,,4,0,6,,,,,,,,,5,,,59,95
11472,note_on,,4,0,8,,,,,,,,,7,,,31,95
11472,note_on,,2,0,4,,,,,,,,,3,,,64,95
11472,note_on,,4,0,2,,,,,,,,,1,,,43,95
11482,note_on,,10,0,4,,,,,,,,,3,,,64,0
11482,note_on,,10,0,5,,,,,,,,,4,,,64,0
11484,note_on,,2,0,5,,,,,,,,,4,,,64,95
11484,note_on,,2,0,4,,,,,,,,,3,,,64,95
11492,note_on,,20,0,6,,,,,,,,,5,,,59,0
11492,note_on,,20,0,7,,,,,,,,,6,,,43,0
11492,note_on,,20,0,2,,,,,,,,,1,,,43,0
11492,note_on,,20,0,8,,,,,,,,,7,,,31,0
11494,note_on,,10,0,4,,,,,,,,,3,,,64,0
11494,note_on,,10,0,5,,,,,,,,,4,,,64,0
11496,note_on,,2,0,4,,,,,,,,,3,,,57,95
11496,note_on,,4,0,2,,,,,,,,,1,,,45,95
11496,note_on,,2,0,5,,,,,,,,,4,,,57,95
11496,note_on,,504,0,3,,,,,,,,,2,,,69,95
11496,note_on,,4,0,6,,,,,,,,,5,,,61,95
11496,note_on,,4,0,8,,,,,,,,,7,,,33,95
11496,note_on,,4,0,7,,,,,,,,,6,,,45,95
11506,note_on,,10,0,5,,,,,,,,,4,,,57,0
11506,note_on,,10,0,4,,,,,,,,,3,,,57,0
11508,note_on,,0,0,3,,,,,,,,,2,,,71,95
11508,note_on,,12,0,3,,,,,,,,,2,,,69,0
11508,note_on,,2,0,4,,,,,,,,,3,,,57,95
11508,note_on,,2,0,5,,,,,,,,,4,,,57,95
11516,note_on,,20,0,8,,,,,,,,,7,,,33,0
11516,note_on,,20,0,2,,,,,,,,,1,,,45,0
11516,note_on,,20,0,7,,,,,,,,,6,,,45,0
11516,note_on,,20,0,6,,,,,,,,,5,,,61,0
11518,note_on,,10,0,4,,,,,,,,,3,,,57,0
11518,note_on,,10,0,5,,,,,,,,,4,,,57,0
11520,note_on,,4,0,2,,,,,,,,,1,,,42,79
11520,note_on,,4,0,6,,,,,,,,,5,,,57,95
11520,note_on,,4,0,7,,,,,,,,,6,,,42,95
11520,note_on,,2,0,4,,,,,,,,,3,,,62,95
11520,note_on,,0,0,3,,,,,,,,,2,,,72,95
11520,note_on,,4,0,8,,,,,,,,,7,,,30,95
11520,note_on,,2,0,5,,,,,,,,,4,,,62,95
11520,note_on,,12,0,3,,,,,,,,,2,,,71,0
11528,note_on,,8,0,3,,,,,,,,,2,,,72,0
11532,note_on,,4,0,3,,,,,,,,,2,,,69,95
11540,note_on,,20,0,7,,,,,,,,,6,,,42,0
11540,note_on,,8,0,3,,,,,,,,,2,,,69,0
11540,note_on,,20,0,8,,,,,,,,,7,,,30,0
11540,note_on,,20,0,4,,,,,,,,,3,,,62,0
11540,note_on,,20,0,5,,,,,,,,,4,,,62,0
11540,note_on,,20,0,6,,,,,,,,,5,,,57,0
11540,note_on,,20,0,2,,,,,,,,,1,,,42,0
11544,note_on,,480,0,1,,,,,,,,,0,,,74,79
11544,note_on,,4,0,3,,,,,,,,,2,,,71,95
11544,note_on,,4,0,2,,,,,,,,,1,,,43,79
11552,note_on,,8,0,3,,,,,,,,,2,,,71,0
11554,note_on,,10,0,1,,,,,,,,,0,,,74,0
11556,note_on,,2,0,1,,,,,,,,,0,,,78,79
11556,note_on,,4,0,3,,,,,,,,,2,,,74,95
11564,note_on,,20,0,2,,,,,,,,,1,,,43,0
11564,note_on,,8,0,3,,,,,,,,,2,,,74,0
11566,note_on,,10,0,1,,,,,,,,,0,,,78,0
11568,note_on,,2,0,1,,,,,,,,,0,,,76,79
11568,note_on,,4,0,3,,,,,,,,,2,,,73,95
11576,note_on,,8,0,3,,,,,,,,,2,,,73,0
11578,note_on,,10,0,1,,,,,,,,,0,,,76,0
11580,note_on,,2,0,1,,,,,,,,,0,,,73,79
11580,note_on,,4,0,3,,,,,,,,,2,,,69,95
11588,note_on,,8,0,3,,,,,,,,,2,,,69,0
11590,note_on,,10,0,1,,,,,,,,,0,,,73,0
11592,note_on,,2,0,1,,,,,,,,,0,,,74,79
11592,note_on,,4,0,3,,,,,,,,,2,,,71,95
11592,note_on,,28,0,2,,,,,,,,,1,,,43,79
11600,note_on,,8,0,3,,,,,,,,,2,,,71,0
11602,note_on,,10,0,1,,,,,,,,,0,,,74,0
11604,note_on,,4,0,3,,,,,,,,,2,,,73,95
11604,note_on,,2,0,1,,,,,,,,,0,,,76,79
11612,note_on,,20,0,2,,,,,,,,,1,,,43,0
11612,note_on,,8,0,3,,,,,,,,,2,,,73,0
11614,note_on,,10,0,1,,,,,,,,,0,,,76,0
11616,note_on,,4,0,3,,,,,,,,,2,,,74,95
11616,note_on,,2,0,1,,,,,,,,,0,,,78,79
11616,note_on,,4,0,2,,,,,,,,,1,,,44,79
11621,note_on,,5,0,1,,,,,,,,,0,,,78,0
11622,note_on,,1,0,1,,,,,,,,,0,,,79,79
11624,note_on,,8,0,3,,,,,,,,,2,,,74,0
11627,note_on,,5,0,1,,,,,,,,,0,,,79,0
11628,note_on,,4,0,3,,,,,,,,,2,,,71,95
11628,note_on,,1,0,1,,,,,,,,,0,,,78,79
11633,note_on,,5,0,1,,,,,,,,,0,,,78,0
11634,note_on,,1,0,1,,,,,,,,,0,,,79,79
11636,note_on,,8,0,3,,,,,,,,,2,,,71,0
11636,note_on,,20,0,2,,,,,,,,,1,,,44,0
11639,note_on,,5,0,1,,,,,,,,,0,,,79,0
11640,note_on,,4,0,2,,,,,,,,,1,,,45,79
11640,note_on,,100,0,4,,,,,,,,,3,,,64,79
11640,note_on,,1,0,1,,,,,,,,,0,,,76,79
11640,note_on,,4,0,3,,,,,,,,,2,,,73,95
11648,note_on,,8,0,3,,,,,,,,,2,,,73,0
11652,note_on,,4,0,3,,,,,,,,,2,,,76,95
11660,note_on,,20,0,1,,,,,,,,,0,,,76,0
11660,note_on,,8,0,3,,,,,,,,,2,,,76,0
11660,note_on,,20,0,2,,,,,,,,,1,,,45,0
11664,note_on,,0,0,4,,,,,,,,,3,,,66,79
11664,note_on,,4,0,3,,,,,,,,,2,,,74,95
11664,note_on,,24,0,4,,,,,,,,,3,,,64,0
11672,note_on,,8,0,3,,,,,,,,,2,,,74,0
11676,note_on,,4,0,3,,,,,,,,,2,,,71,95
11684,note_on,,8,0,3,,,,,,,,,2,,,71,0
11688,note_on,,24,0,4,,,,,,,,,3,,,66,0
11688,note_on,,0,0,4,,,,,,,,,3,,,64,79
11688,note_on,,28,0,2,,,,,,,,,1,,,45,79
11688,note_on,,4,0,3,,,,,,,,,2,,,73,95
11696,note_on,,8,0,3,,,,,,,,,2,,,73,0
11700,note_on,,4,0,3,,,,,,,,,2,,,74,95
11708,note_on,,20,0,2,,,,,,,,,1,,,45,0
11708,note_on,,8,0,3,,,,,,,,,2,,,74,0
11712,note_on,,4,0,2,,,,,,,,,1,,,46,79
11712,note_on,,0,0,4,,,,,,,,,3,,,67,79
11712,note_on,,24,0,4,,,,,,,,,3,,,64,0
11712,note_on,,4,0,3,,,,,,,,,2,,,76,95
11720,note_on,,8,0,3,,,,,,,,,2,,,76,0
11724,note_on,,4,0,3,,,,,,,,,2,,,73,95
11732,note_on,,8,0,3,,,,,,,,,2,,,73,0
11732,note_on,,20,0,2,,,,,,,,,1,,,46,0
11736,note_on,,4,0,2,,,,,,,,,1,,,47,79
11736,note_on,,0,0,4,,,,,,,,,3,,,66,79
11736,note_on,,24,0,4,,,,,,,,,3,,,67,0
11736,note_on,,4,0,3,,,,,,,,,2,,,74,95
11744,note_on,,8,0,3,,,,,,,,,2,,,74,0
11748,note_on,,4,0,3,,,,,,,,,2,,,78,95
11756,note_on,,20,0,2,,,,,,,,,1,,,47,0
11756,note_on,,8,0,3,,,,,,,,,2,,,78,0
11760,note_on,,4,0,2,,,,,,,,,1,,,49,79
11760,note_on,,24,0,4,,,,,,,,,3,,,66,0
11760,note_on,,0,0,4,,,,,,,,,3,,,71,79
11760,note_on,,4,0,3,,,,,,,,,2,,,76,95
11768,note_on,,8,0,3,,,,,,,,,2,,,76,0
11770,note_on,,10,0,2,,,,,,,,,1,,,49,0
11772,note_on,,4,0,3,,,,,,,,,2,,,73,95
11772,note_on,,2,0,2,,,,,,,,,1,,,57,79
11780,note_on,,8,0,3,,,,,,,,,2,,,73,0
11782,note_on,,10,0,2,,,,,,,,,1,,,57,0
11784,note_on,,0,0,4,,,,,,,,,3,,,69,79
11784,note_on,,24,0,4,,,,,,,,,3,,,71,0
11784,note_on,,2,0,2,,,,,,,,,1,,,59,79
11784,note_on,,4,0,3,,,,,,,,,2,,,74,95
11792,note_on,,8,0,3,,,,,,,,,2,,,74,0
11794,note_on,,10,0,2,,,,,,,,,1,,,59,0
11796,note_on,,4,0,3,,,,,,,,,2,,,76,95
11796,note_on,,2,0,2,,,,,,,,,1,,,61,79
11804,note_on,,8,0,3,,,,,,,,,2,,,76,0
11806,note_on,,10,0,2,,,,,,,,,1,,,61,0
11808,note_on,,0,0,4,,,,,,,,,3,,,74,79
11808,note_on,,24,0,4,,,,,,,,,3,,,69,0
11808,note_on,,4,0,3,,,,,,,,,2,,,78,95
11808,note_on,,2,0,2,,,,,,,,,1,,,62,79
11820,note_on,,160,0,1,,,,,,,,,0,,,69,79
11828,note_on,,20,0,2,,,,,,,,,1,,,62,0
11830,note_on,,10,0,1,,,,,,,,,0,,,69,0
11832,note_on,,2,0,1,,,,,,,,,0,,,71,79
11832,note_on,,0,0,3,,,,,,,,,2,,,76,95
11832,note_on,,4,0,2,,,,,,,,,1,,,61,79
11832,note_on,,24,0,3,,,,,,,,,2,,,78,0
11842,note_on,,10,0,1,,,,,,,,,0,,,71,0
11844,note_on,,2,0,1,,,,,,,,,0,,,73,79
11852,note_on,,20,0,2,,,,,,,,,1,,,61,0
11854,note_on,,10,0,1,,,,,,,,,0,,,73,0
11856,note_on,,4,0,2,,,,,,,,,1,,,59,79
11856,note_on,,0,0,3,,,,,,,,,2,,,79,95
11856,note_on,,24,0,3,,,,,,,,,2,,,76,0
11856,note_on,,2,0,1,,,,,,,,,0,,,74,79
11866,note_on,,10,0,1,,,,,,,,,0,,,74,0
11868,note_on,,2,0,1,,,,,,,,,0,,,76,79
11876,note_on,,20,0,2,,,,,,,,,1,,,59,0
11878,note_on,,10,0,1,,,,,,,,,0,,,76,0
11880,note_on,,4,0,2,,,,,,,,,1,,,57,79
11880,note_on,,24,0,3,,,,,,,,,2,,,79,0
11880,note_on,,2,0,1,,,,,,,,,0,,,78,79
11880,note_on,,0,0,3,,,,,,,,,2,,,78,95
11890,note_on,,10,0,1,,,,,,,,,0,,,78,0
11892,note_on,,2,0,1,,,,,,,,,0,,,79,79
11900,note_on,,20,0,2,,,,,,,,,1,,,57,0
11902,note_on,,10,0,1,,,,,,,,,0,,,79,0
11904,note_on,,4,0,2,,,,,,,,,1,,,55,79
11904,note_on,,2,0,1,,,,,,,,,0,,,78,79
11904,note_on,,0,0,3,,,,,,,,,2,,,83,95
11904,note_on,,96,0,4,,,,,,,,,3,,,74,0
11904,note_on,,24,0,3,,,,,,,,,2,,,78,0
11914,note_on,,10,0,1,,,,,,,,,0,,,78,0
11916,note_on,,2,0,1,,,,,,,,,0,,,76,79
11926,note_on,,10,0,1,,,,,,,,,0,,,76,0
11928,note_on,,2,0,1,,,,,,,,,0,,,69,79
11928,note_on,,24,0,3,,,,,,,,,2,,,83,0
11928,note_on,,0,0,3,,,,,,,,,2,,,81,95
11928,note_on,,24,0,4,,,,,,,,,3,,,73,79
11938,note_on,,10,0,1,,,,,,,,,0,,,69,0
11940,note_on,,2,0,1,,,,,,,,,0,,,71,79
11944,note_on,,40,0,2,,,,,,,,,1,,,55,0
11950,note_on,,10,0,1,,,,,,,,,0,,,71,0
11952,note_on,,2,0,1,,,,,,,,,0,,,73,79
11952,note_on,,24,0,3,,,,,,,,,2,,,81,0
11952,note_on,,0,0,4,,,,,,,,,3,,,76,79
11952,note_on,,0,0,3,,,,,,,,,2,,,81,95
11952,note_on,,24,0,4,,,,,,,,,3,,,73,0
11962,note_on,,10,0,1,,,,,,,,,0,,,73,0
11964,note_on,,2,0,1,,,,,,,,,0,,,69,79
11974,note_on,,10,0,1,,,,,,,,,0,,,69,0
11976,note_on,,0,0,4,,,,,,,,,3,,,74,79
11976,note_on,,24,0,4,,,,,,,,,3,,,76,0
11976,note_on,,32,0,2,,,,,,,,,1,,,54,79
11976,note_on,,2,0,1,,,,,,,,,0,,,71,79
11986,note_on,,10,0,1,,,,,,,,,0,,,71,0
11988,note_on,,2,0,1,,,,,,,,,0,,,74,79
11996,note_on,,20,0,2,,,,,,,,,1,,,54,0
11998,note_on,,10,0,1,,,,,,,,,0,,,74,0
12000,note_on,,2,0,1,,,,,,,,,0,,,73,79
12000,note_on,,4,0,2,,,,,,,,,1,,,52,79
12000,note_on,,24,0,4,,,,,,,,,3,,,74,0
12000,note_on,,0,0,4,,,,,,,,,3,,,79,79
12010,note_on,,10,0,1,,,,,,,,,0,,,73,0
12012,note_on,,2,0,1,,,,,,,,,0,,,76,79
12020,note_on,,20,0,2,,,,,,,,,1,,,52,0
12022,note_on,,10,0,1,,,,,,,,,0,,,76,0
12024,note_on,,0,0,4,,,,,,,,,3,,,78,79
12024,note_on,,2,0,1,,,,,,,,,0,,,78,79
12024,note_on,,24,0,4,,,,,,,,,3,,,79,0
12024,note_on,,4,0,2,,,,,,,,,1,,,50,79
12034,note_on,,10,0,1,,,,,,,,,0,,,78,0
12036,note_on,,2,0,1,,,,,,,,,0,,,74,79
12044,note_on,,20,0,2,,,,,,,,,1,,,50,0
12046,note_on,,10,0,1,,,,,,,,,0,,,74,0
12048,note_on,,4,0,2,,,,,,,,,1,,,49,79
12048,note_on,,0,0,4,,,,,,,,,3,,,76,79
12048,note_on,,24,0,4,,,,,,,,,3,,,78,0
12048,note_on,,2,0,1,,,,,,,,,0,,,76,79
12058,note_on,,10,0,1,,,,,,,,,0,,,76,0
12060,note_on,,2,0,1,,,,,,,,,0,,,79,79
12068,note_on,,20,0,2,,,,,,,,,1,,,49,0
12070,note_on,,10,0,1,,,,,,,,,0,,,79,0
12072,note_on,,0,0,4,,,,,,,,,3,,,74,79
12072,note_on,,24,0,4,,,,,,,,,3,,,76,0
12072,note_on,,2,0,1,,,,,,,,,0,,,78,79
12072,note_on,,4,0,2,,,,,,,,,1,,,50,79
12082,note_on,,10,0,1,,,,,,,,,0,,,78,0
12084,note_on,,0,0,4,,,,,,,,,3,,,73,79
12084,note_on,,2,0,1,,,,,,,,,0,,,76,79
12084,note_on,,12,0,4,,,,,,,,,3,,,74,0
12092,note_on,,20,0,2,,,,,,,,,1,,,50,0
12094,note_on,,10,0,1,,,,,,,,,0,,,76,0
12096,note_on,,4,0,2,,,,,,,,,1,,,47,79
12096,note_on,,12,0,4,,,,,,,,,3,,,73,0
12096,note_on,,0,0,4,,,,,,,,,3,,,74,79
12096,note_on,,0,0,3,,,,,,,,,2,,,81,95
12096,note_on,,144,0,3,,,,,,,,,2,,,81,0
12096,note_on,,2,0,1,,,,,,,,,0,,,74,79
12106,note_on,,10,0,1,,,,,,,,,0,,,74,0
12106,note_on,,10,0,3,,,,,,,,,2,,,81,0
12108,note_on,,0,0,4,,,,,,,,,3,,,76,79
12108,note_on,,12,0,4,,,,,,,,,3,,,74,0
12108,note_on,,2,0,1,,,,,,,,,0,,,71,79
12108,note_on,,2,0,3,,,,,,,,,2,,,80,95
12116,note_on,,20,0,2,,,,,,,,,1,,,47,0
12118,note_on,,10,0,3,,,,,,,,,2,,,80,0
12118,note_on,,10,0,1,,,,,,,,,0,,,71,0
12120,note_on,,4,0,2,,,,,,,,,1,,,45,79
12120,note_on,,12,0,4,,,,,,,,,3,,,76,0
12120,note_on,,0,0,4,,,,,,,,,3,,,73,79
12120,note_on,,2,0,1,,,,,,,,,0,,,76,79
12120,note_on,,580,0,7,,,,,,,,,6,,,45,63
12120,note_on,,2,0,3,,,,,,,,,2,,,81,95
12120,note_on,,580,0,8,,,,,,,,,7,,,33,63
12120,note_on,,580,0,5,,,,,,,,,4,,,76,63
12130,note_on,,10,0,3,,,,,,,,,2,,,81,0
12130,note_on,,10,0,1,,,,,,,,,0,,,76,0
12132,note_on,,12,0,4,,,,,,,,,3,,,73,0
12132,note_on,,2,0,3,,,,,,,,,2,,,83,95
12132,note_on,,2,0,1,,,,,,,,,0,,,78,79
12132,note_on,,0,0,4,,,,,,,,,3,,,74,79
12140,note_on,,20,0,8,,,,,,,,,7,,,33,0
12140,note_on,,20,0,5,,,,,,,,,4,,,76,0
12140,note_on,,20,0,7,,,,,,,,,6,,,45,0
12140,note_on,,20,0,2,,,,,,,,,1,,,45,0
12142,note_on,,10,0,1,,,,,,,,,0,,,78,0
12142,note_on,,10,0,3,,,,,,,,,2,,,83,0
12144,note_on,,0,0,4,,,,,,,,,3,,,71,79
12144,note_on,,4,0,2,,,,,,,,,1,,,52,79
12144,note_on,,604,0,6,,,,,,,,,5,,,69,63
12144,note_on,,4,0,5,,,,,,,,,4,,,76,63
12144,note_on,,2,0,1,,,,,,,,,0,,,80,79
12144,note_on,,4,0,7,,,,,,,,,6,,,52,63
12144,note_on,,12,0,4,,,,,,,,,3,,,74,0
12144,note_on,,4,0,8,,,,,,,,,7,,,40,63
12144,note_on,,2,0,3,,,,,,,,,2,,,80,95
12149,note_on,,5,0,3,,,,,,,,,2,,,80,0
12150,note_on,,1,0,3,,,,,,,,,2,,,81,95
12150,note_on,,6,0,4,,,,,,,,,3,,,71,0
12150,note_on,,0,0,4,,,,,,,,,3,,,73,79
12154,note_on,,10,0,1,,,,,,,,,0,,,80,0
12155,note_on,,5,0,3,,,,,,,,,2,,,81,0
12156,note_on,,1,0,3,,,,,,,,,2,,,80,95
12156,note_on,,2,0,1,,,,,,,,,0,,,81,79
12156,note_on,,0,0,4,,,,,,,,,3,,,71,79
12156,note_on,,6,0,4,,,,,,,,,3,,,73,0
12161,note_on,,5,0,3,,,,,,,,,2,,,80,0
12162,note_on,,6,0,4,,,,,,,,,3,,,71,0
12162,note_on,,0,0,4,,,,,,,,,3,,,73,79
12162,note_on,,1,0,3,,,,,,,,,2,,,81,95
12164,note_on,,20,0,8,,,,,,,,,7,,,40,0
12164,note_on,,20,0,2,,,,,,,,,1,,,52,0
12164,note_on,,20,0,5,,,,,,,,,4,,,76,0
12164,note_on,,20,0,7,,,,,,,,,6,,,52,0
12164,note_on,,20,0,6,,,,,,,,,5,,,69,0
12166,note_on,,10,0,1,,,,,,,,,0,,,81,0
12167,note_on,,5,0,3,,,,,,,,,2,,,81,0
12168,note_on,,4,0,5,,,,,,,,,4,,,76,63
12168,note_on,,2,0,1,,,,,,,,,0,,,83,79
12168,note_on,,4,0,6,,,,,,,,,5,,,71,63
12168,note_on,,4,0,7,,,,,,,,,6,,,50,63
12168,note_on,,1,0,3,,,,,,,,,2,,,80,95
12168,note_on,,0,0,4,,,,,,,,,3,,,64,79
12168,note_on,,6,0,4,,,,,,,,,3,,,73,0
12168,note_on,,4,0,8,,,,,,,,,7,,,38,63
12168,note_on,,4,0,2,,,,,,,,,1,,,50,79
12173,note_on,,5,0,3,,,,,,,,,2,,,80,0
12174,note_on,,1,0,3,,,,,,,,,2,,,81,95
12178,note_on,,10,0,1,,,,,,,,,0,,,83,0
12179,note_on,,5,0,3,,,,,,,,,2,,,81,0
12180,note_on,,0,0,4,,,,,,,,,3,,,66,79
12180,note_on,,12,0,4,,,,,,,,,3,,,64,0
12180,note_on,,1,0,3,,,,,,,,,2,,,81,95
12180,note_on,,2,0,1,,,,,,,,,0,,,80,79
12188,note_on,,20,0,5,,,,,,,,,4,,,76,0
12188,note_on,,20,0,7,,,,,,,,,6,,,50,0
12188,note_on,,20,0,8,,,,,,,,,7,,,38,0
12188,note_on,,20,0,2,,,,,,,,,1,,,50,0
12188,note_on,,20,0,6,,,,,,,,,5,,,71,0
12190,note_on,,10,0,1,,,,,,,,,0,,,80,0
12190,note_on,,10,0,3,,,,,,,,,2,,,81,0
12192,note_on,,4,0,7,,,,,,,,,6,,,49,63
12192,note_on,,12,0,4,,,,,,,,,3,,,66,0
12192,note_on,,4,0,6,,,,,,,,,5,,,71,63
12192,note_on,,4,0,2,,,,,,,,,1,,,49,79
12192,note_on,,4,0,5,,,,,,,,,4,,,76,63
12192,note_on,,4,0,8,,,,,,,,,7,,,37,63
12192,note_on,,2,0,3,,,,,,,,,2,,,81,95
12192,note_on,,2,0,1,,,,,,,,,0,,,76,79
12192,note_on,,0,0,4,,,,,,,,,3,,,67,79
12202,note_on,,10,0,1,,,,,,,,,0,,,76,0
12204,note_on,,2,0,1,,,,,,,,,0,,,81,79
12204,note_on,,0,0,4,,,,,,,,,3,,,64,79
12204,note_on,,12,0,4,,,,,,,,,3,,,67,0
12212,note_on,,20,0,8,,,,,,,,,7,,,37,0
12212,note_on,,20,0,5,,,,,,,,,4,,,76,0
12212,note_on,,20,0,7,,,,,,,,,6,,,49,0
12212,note_on,,20,0,2,,,,,,,,,1,,,49,0
12212,note_on,,20,0,6,,,,,,,,,5,,,71,0
12214,note_on,,10,0,1,,,,,,,,,0,,,81,0
12216,note_on,,12,0,4,,,,,,,,,3,,,64,0
12216,note_on,,0,0,4,,,,,,,,,3,,,66,79
12216,note_on,,4,0,2,,,,,,,,,1,,,50,79
12216,note_on,,4,0,6,,,,,,,,,5,,,69,63
12216,note_on,,2,0,1,,,,,,,,,0,,,69,79
12226,note_on,,10,0,1,,,,,,,,,0,,,69,0
12228,note_on,,12,0,4,,,,,,,,,3,,,66,0
12228,note_on,,2,0,1,,,,,,,,,0,,,73,79
12228,note_on,,0,0,4,,,,,,,,,3,,,69,79
12232,note_on,,40,0,3,,,,,,,,,2,,,81,0
12236,note_on,,20,0,2,,,,,,,,,1,,,50,0
12236,note_on,,20,0,6,,,,,,,,,5,,,69,0
12238,note_on,,10,0,1,,,,,,,,,0,,,73,0
12240,note_on,,2,0,1,,,,,,,,,0,,,71,79
12240,note_on,,12,0,4,,,,,,,,,3,,,69,0
12240,note_on,,0,0,4,,,,,,,,,3,,,68,79
12250,note_on,,10,0,1,,,,,,,,,0,,,71,0
12252,note_on,,12,0,4,,,,,,,,,3,,,68,0
12252,note_on,,0,0,4,,,,,,,,,3,,,64,79
12252,note_on,,2,0,1,,,,,,,,,0,,,68,79
12262,note_on,,10,0,1,,,,,,,,,0,,,68,0
12264,note_on,,28,0,2,,,,,,,,,1,,,50,79
12264,note_on,,12,0,4,,,,,,,,,3,,,64,0
12264,note_on,,0,0,4,,,,,,,,,3,,,66,79
12264,note_on,,2,0,1,,,,,,,,,0,,,69,79
12274,note_on,,10,0,1,,,,,,,,,0,,,69,0
12276,note_on,,2,0,1,,,,,,,,,0,,,71,79
12276,note_on,,0,0,4,,,,,,,,,3,,,68,79
12276,note_on,,12,0,4,,,,,,,,,3,,,66,0
12284,note_on,,20,0,2,,,,,,,,,1,,,50,0
12286,note_on,,10,0,1,,,,,,,,,0,,,71,0
12288,note_on,,12,0,4,,,,,,,,,3,,,68,0
12288,note_on,,4,0,2,,,,,,,,,1,,,51,79
12288,note_on,,2,0,1,,,,,,,,,0,,,71,79
12288,note_on,,0,0,4,,,,,,,,,3,,,69,79
12294,note_on,,6,0,1,,,,,,,,,0,,,73,79
12298,note_on,,4,0,1,,,,,,,,,0,,,71,0
12300,note_on,,12,0,4,,,,,,,,,3,,,69,0
12300,note_on,,0,0,4,,,,,,,,,3,,,66,79
12308,note_on,,20,0,2,,,,,,,,,1,,,51,0
12312,note_on,,12,0,4,,,,,,,,,3,,,66,0
12312,note_on,,0,0,4,,,,,,,,,3,,,68,79
12312,note_on,,80,0,3,,,,,,,,,2,,,71,95
12312,note_on,,4,0,2,,,,,,,,,1,,,52,79
12312,note_on,,14,0,1,,,,,,,,,0,,,71,79
12314,note_on,,2,0,1,,,,,,,,,0,,,73,0
12324,note_on,,12,0,4,,,,,,,,,3,,,68,0
12324,note_on,,0,0,4,,,,,,,,,3,,,71,79
12332,note_on,,20,0,2,,,,,,,,,1,,,52,0
12332,note_on,,18,0,1,,,,,,,,,0,,,71,0
12332,note_on,,20,0,3,,,,,,,,,2,,,71,0
12336,note_on,,12,0,4,,,,,,,,,3,,,71,0
12336,note_on,,0,0,4,,,,,,,,,3,,,69,79
12336,note_on,,4,0,3,,,,,,,,,2,,,73,95
12348,note_on,,0,0,4,,,,,,,,,3,,,66,79
12348,note_on,,12,0,4,,,,,,,,,3,,,69,0
12360,note_on,,28,0,2,,,,,,,,,1,,,52,79
12360,note_on,,24,0,3,,,,,,,,,2,,,73,0
12360,note_on,,0,0,3,,,,,,,,,2,,,71,95
12360,note_on,,0,0,4,,,,,,,,,3,,,68,79
12360,note_on,,12,0,4,,,,,,,,,3,,,66,0
12372,note_on,,0,0,4,,,,,,,,,3,,,69,79
12372,note_on,,12,0,4,,,,,,,,,3,,,68,0
12380,note_on,,20,0,2,,,,,,,,,1,,,52,0
12384,note_on,,4,0,2,,,,,,,,,1,,,53,79
12384,note_on,,24,0,3,,,,,,,,,2,,,71,0
12384,note_on,,12,0,4,,,,,,,,,3,,,69,0
12384,note_on,,0,0,4,,,,,,,,,3,,,71,79
12384,note_on,,0,0,3,,,,,,,,,2,,,74,95
12396,note_on,,12,0,4,,,,,,,,,3,,,71,0
12396,note_on,,0,0,4,,,,,,,,,3,,,68,79
12404,note_on,,20,0,2,,,,,,,,,1,,,53,0
12408,note_on,,4,0,2,,,,,,,,,1,,,54,79
12408,note_on,,12,0,4,,,,,,,,,3,,,68,0
12408,note_on,,24,0,3,,,,,,,,,2,,,74,0
12408,note_on,,0,0,3,,,,,,,,,2,,,73,95
12408,note_on,,0,0,4,,,,,,,,,3,,,69,79
12420,note_on,,12,0,4,,,,,,,,,3,,,69,0
12420,note_on,,0,0,4,,,,,,,,,3,,,73,79
12428,note_on,,20,0,2,,,,,,,,,1,,,54,0
12432,note_on,,12,0,4,,,,,,,,,3,,,73,0
12432,note_on,,24,0,3,,,,,,,,,2,,,73,0
12432,note_on,,0,0,3,,,,,,,,,2,,,78,95
12432,note_on,,4,0,2,,,,,,,,,1,,,56,79
12432,note_on,,0,0,4,,,,,,,,,3,,,71,79
12442,note_on,,10,0,2,,,,,,,,,1,,,56,0
12444,note_on,,12,0,4,,,,,,,,,3,,,71,0
12444,note_on,,0,0,4,,,,,,,,,3,,,68,79
12444,note_on,,2,0,2,,,,,,,,,1,,,52,79
12454,note_on,,10,0,2,,,,,,,,,1,,,52,0
12456,note_on,,12,0,4,,,,,,,,,3,,,68,0
12456,note_on,,0,0,4,,,,,,,,,3,,,69,79
12456,note_on,,2,0,2,,,,,,,,,1,,,54,79
12456,note_on,,0,0,3,,,,,,,,,2,,,76,95
12456,note_on,,24,0,3,,,,,,,,,2,,,78,0
12466,note_on,,10,0,2,,,,,,,,,1,,,54,0
12468,note_on,,0,0,4,,,,,,,,,3,,,71,79
12468,note_on,,12,0,4,,,,,,,,,3,,,69,0
12468,note_on,,2,0,2,,,,,,,,,1,,,56,79
12478,note_on,,10,0,2,,,,,,,,,1,,,56,0
12480,note_on,,0,0,3,,,,,,,,,2,,,81,95
12480,note_on,,2,0,2,,,,,,,,,1,,,57,79
12480,note_on,,24,0,3,,,,,,,,,2,,,76,0
12480,note_on,,0,0,4,,,,,,,,,3,,,73,79
12480,note_on,,12,0,4,,,,,,,,,3,,,71,0
12492,note_on,,160,0,1,,,,,,,,,0,,,64,79
12500,note_on,,20,0,2,,,,,,,,,1,,,57,0
12502,note_on,,10,0,1,,,,,,,,,0,,,64,0
12504,note_on,,0,0,4,,,,,,,,,3,,,71,79
12504,note_on,,4,0,2,,,,,,,,,1,,,56,79
12504,note_on,,24,0,4,,,,,,,,,3,,,73,0
12504,note_on,,2,0,1,,,,,,,,,0,,,66,79
12514,note_on,,10,0,1,,,,,,,,,0,,,66,0
12516,note_on,,2,0,1,,,,,,,,,0,,,68,79
12524,note_on,,20,0,2,,,,,,,,,1,,,56,0
12526,note_on,,10,0,1,,,,,,,,,0,,,68,0
12528,note_on,,4,0,2,,,,,,,,,1,,,54,79
12528,note_on,,0,0,4,,,,,,,,,3,,,74,79
12528,note_on,,2,0,1,,,,,,,,,0,,,69,79
12528,note_on,,24,0,4,,,,,,,,,3,,,71,0
12538,note_on,,10,0,1,,,,,,,,,0,,,69,0
12540,note_on,,2,0,1,,,,,,,,,0,,,71,79
12548,note_on,,20,0,2,,,,,,,,,1,,,54,0
12550,note_on,,10,0,1,,,,,,,,,0,,,71,0
12552,note_on,,4,0,2,,,,,,,,,1,,,52,79
12552,note_on,,2,0,1,,,,,,,,,0,,,73,79
12552,note_on,,0,0,4,,,,,,,,,3,,,73,79
12552,note_on,,24,0,4,,,,,,,,,3,,,74,0
12562,note_on,,10,0,1,,,,,,,,,0,,,73,0
12564,note_on,,2,0,1,,,,,,,,,0,,,74,79
12572,note_on,,20,0,2,,,,,,,,,1,,,52,0
12574,note_on,,10,0,1,,,,,,,,,0,,,74,0
12576,note_on,,24,0,4,,,,,,,,,3,,,73,0
12576,note_on,,0,0,4,,,,,,,,,3,,,78,79
12576,note_on,,2,0,1,,,,,,,,,0,,,73,79
12576,note_on,,0,0,3,,,,,,,,,2,,,81,95
12576,note_on,,4,0,2,,,,,,,,,1,,,50,79
12576,note_on,,96,0,3,,,,,,,,,2,,,81,0
12586,note_on,,10,0,1,,,,,,,,,0,,,73,0
12588,note_on,,2,0,1,,,,,,,,,0,,,71,79
12598,note_on,,10,0,1,,,,,,,,,0,,,71,0
12600,note_on,,0,0,4,,,,,,,,,3,,,76,79
12600,note_on,,2,0,1,,,,,,,,,0,,,64,79
12600,note_on,,24,0,4,,,,,,,,,3,,,78,0
12600,note_on,,24,0,3,,,,,,,,,2,,,81,0
12600,note_on,,0,0,3,,,,,,,,,2,,,80,95
12610,note_on,,10,0,1,,,,,,,,,0,,,64,0
12612,note_on,,2,0,1,,,,,,,,,0,,,66,79
12616,note_on,,40,0,2,,,,,,,,,1,,,50,0
12622,note_on,,10,0,1,,,,,,,,,0,,,66,0
12624,note_on,,2,0,1,,,,,,,,,0,,,68,79
12624,note_on,,24,0,3,,,,,,,,,2,,,80,0
12624,note_on,,0,0,3,,,,,,,,,2,,,83,95
12624,note_on,,24,0,4,,,,,,,,,3,,,76,0
12624,note_on,,0,0,4,,,,,,,,,3,,,76,79
12634,note_on,,10,0,1,,,,,,,,,0,,,68,0
12636,note_on,,2,0,1,,,,,,,,,0,,,64,79
12646,note_on,,10,0,1,,,,,,,,,0,,,64,0
12648,note_on,,2,0,1,,,,,,,,,0,,,66,79
12648,note_on,,32,0,2,,,,,,,,,1,,,49,79
12648,note_on,,0,0,3,,,,,,,,,2,,,81,95
12648,note_on,,24,0,3,,,,,,,,,2,,,83,0
12658,note_on,,10,0,1,,,,,,,,,0,,,66,0
12660,note_on,,2,0,1,,,,,,,,,0,,,69,79
12668,note_on,,20,0,2,,,,,,,,,1,,,49,0
12670,note_on,,10,0,1,,,,,,,,,0,,,69,0
12672,note_on,,2,0,1,,,,,,,,,0,,,68,79
12672,note_on,,24,0,3,,,,,,,,,2,,,81,0
12672,note_on,,0,0,3,,,,,,,,,2,,,86,95
12672,note_on,,4,0,2,,,,,,,,,1,,,47,79
12682,note_on,,10,0,1,,,,,,,,,0,,,68,0
12684,note_on,,2,0,1,,,,,,,,,0,,,71,79
12692,note_on,,20,0,2,,,,,,,,,1,,,47,0
12694,note_on,,10,0,1,,,,,,,,,0,,,71,0
12696,note_on,,0,0,3,,,,,,,,,2,,,85,95
12696,note_on,,2,0,1,,,,,,,,,0,,,73,79
12696,note_on,,4,0,2,,,,,,,,,1,,,45,79
12696,note_on,,24,0,3,,,,,,,,,2,,,86,0
12706,note_on,,10,0,1,,,,,,,,,0,,,73,0
12708,note_on,,2,0,1,,,,,,,,,0,,,69,79
12716,note_on,,20,0,2,,,,,,,,,1,,,45,0
12718,note_on,,10,0,1,,,,,,,,,0,,,69,0
12720,note_on,,2,0,1,,,,,,,,,0,,,71,79
12720,note_on,,4,0,2,,,,,,,,,1,,,44,79
12720,note_on,,24,0,3,,,,,,,,,2,,,85,0
12720,note_on,,0,0,3,,,,,,,,,2,,,83,95
12730,note_on,,10,0,1,,,,,,,,,0,,,71,0
12732,note_on,,2,0,1,,,,,,,,,0,,,74,79
12740,note_on,,20,0,2,,,,,,,,,1,,,44,0
12742,note_on,,10,0,1,,,,,,,,,0,,,74,0
12744,note_on,,2,0,1,,,,,,,,,0,,,73,79
12744,note_on,,0,0,3,,,,,,,,,2,,,81,95
12744,note_on,,4,0,2,,,,,,,,,1,,,45,79
12744,note_on,,24,0,3,,,,,,,,,2,,,83,0
12754,note_on,,10,0,1,,,,,,,,,0,,,73,0
12754,note_on,,10,0,3,,,,,,,,,2,,,81,0
12756,note_on,,2,0,3,,,,,,,,,2,,,80,95
12756,note_on,,2,0,1,,,,,,,,,0,,,71,79
12764,note_on,,20,0,2,,,,,,,,,1,,,45,0
12766,note_on,,10,0,3,,,,,,,,,2,,,80,0
12766,note_on,,10,0,1,,,,,,,,,0,,,71,0
12768,note_on,,2,0,3,,,,,,,,,2,,,81,95
12768,note_on,,2,0,1,,,,,,,,,0,,,69,79
12768,note_on,,4,0,2,,,,,,,,,1,,,42,79
12768,note_on,,144,0,4,,,,,,,,,3,,,76,0
12778,note_on,,10,0,1,,,,,,,,,0,,,69,0
12778,note_on,,10,0,3,,,,,,,,,2,,,81,0
12780,note_on,,2,0,1,,,,,,,,,0,,,66,79
12780,note_on,,12,0,4,,,,,,,,,3,,,75,79
12780,note_on,,2,0,3,,,,,,,,,2,,,78,95
12788,note_on,,20,0,2,,,,,,,,,1,,,42,0
12790,note_on,,10,0,3,,,,,,,,,2,,,78,0
12790,note_on,,10,0,1,,,,,,,,,0,,,66,0
12792,note_on,,2,0,3,,,,,,,,,2,,,80,95
12792,note_on,,580,0,8,,,,,,,,,7,,,40,63
12792,note_on,,12,0,4,,,,,,,,,3,,,75,0
12792,note_on,,0,0,4,,,,,,,,,3,,,76,79
12792,note_on,,580,0,5,,,,,,,,,4,,,71,63
12792,note_on,,4,0,2,,,,,,,,,1,,,40,79
12792,note_on,,2,0,1,,,,,,,,,0,,,71,79
12792,note_on,,580,0,7,,,,,,,,,6,,,52,63
12792,note_on,,556,0,6,,,,,,,,,5,,,64,63
12802,note_on,,10,0,3,,,,,,,,,2,,,80,0
12802,note_on,,10,0,1,,,,,,,,,0,,,71,0
12804,note_on,,2,0,3,,,,,,,,,2,,,81,95
12804,note_on,,2,0,1,,,,,,,,,0,,,73,79
12804,note_on,,12,0,4,,,,,,,,,3,,,76,0
12804,note_on,,0,0,4,,,,,,,,,3,,,78,79
12812,note_on,,20,0,8,,,,,,,,,7,,,40,0
12812,note_on,,20,0,5,,,,,,,,,4,,,71,0
12812,note_on,,20,0,6,,,,,,,,,5,,,64,0
12812,note_on,,20,0,7,,,,,,,,,6,,,52,0
12812,note_on,,20,0,2,,,,,,,,,1,,,40,0
12814,note_on,,10,0,3,,,,,,,,,2,,,81,0
12814,note_on,,10,0,1,,,,,,,,,0,,,73,0
12816,note_on,,4,0,8,,,,,,,,,7,,,47,63
12816,note_on,,4,0,7,,,,,,,,,6,,,59,63
12816,note_on,,2,0,1,,,,,,,,,0,,,75,79
12816,note_on,,4,0,6,,,,,,,,,5,,,66,63
12816,note_on,,2,0,3,,,,,,,,,2,,,78,95
12816,note_on,,4,0,5,,,,,,,,,4,,,71,63
12816,note_on,,4,0,2,,,,,,,,,1,,,47,79
12816,note_on,,12,0,4,,,,,,,,,3,,,78,0
12816,note_on,,0,0,4,,,,,,,,,3,,,75,79
12826,note_on,,10,0,1,,,,,,,,,0,,,75,0
12828,note_on,,2,0,1,,,,,,,,,0,,,69,79
12828,note_on,,12,0,4,,,,,,,,,3,,,75,0
12828,note_on,,0,0,4,,,,,,,,,3,,,78,79
12836,note_on,,20,0,6,,,,,,,,,5,,,66,0
12836,note_on,,20,0,8,,,,,,,,,7,,,47,0
12836,note_on,,20,0,2,,,,,,,,,1,,,47,0
12836,note_on,,20,0,7,,,,,,,,,6,,,59,0
12836,note_on,,20,0,5,,,,,,,,,4,,,71,0
12838,note_on,,10,0,1,,,,,,,,,0,,,69,0
12840,note_on,,4,0,7,,,,,,,,,6,,,47,63
12840,note_on,,4,0,6,,,,,,,,,5,,,66,63
12840,note_on,,4,0,8,,,,,,,,,7,,,35,63
12840,note_on,,12,0,4,,,,,,,,,3,,,78,0
12840,note_on,,0,0,4,,,,,,,,,3,,,76,79
12840,note_on,,2,0,1,,,,,,,,,0,,,68,79
12840,note_on,,4,0,5,,,,,,,,,4,,,71,63
12840,note_on,,4,0,2,,,,,,,,,1,,,59,79
12850,note_on,,10,0,1,,,,,,,,,0,,,68,0
12852,note_on,,12,0,4,,,,,,,,,3,,,76,0
12852,note_on,,0,0,4,,,,,,,,,3,,,78,79
12852,note_on,,2,0,1,,,,,,,,,0,,,69,79
12856,note_on,,40,0,3,,,,,,,,,2,,,78,0
12860,note_on,,20,0,7,,,,,,,,,6,,,47,0
12860,note_on,,20,0,5,,,,,,,,,4,,,71,0
12860,note_on,,20,0,2,,,,,,,,,1,,,59,0
12860,note_on,,20,0,6,,,,,,,,,5,,,66,0
12860,note_on,,20,0,8,,,,,,,,,7,,,35,0
12862,note_on,,10,0,1,,,,,,,,,0,,,69,0
12864,note_on,,4,0,8,,,,,,,,,7,,,40,63
12864,note_on,,12,0,4,,,,,,,,,3,,,78,0
12864,note_on,,4,0,2,,,,,,,,,1,,,64,79
12864,note_on,,4,0,7,,,,,,,,,6,,,52,63
12864,note_on,,2,0,1,,,,,,,,,0,,,68,79
12864,note_on,,4,0,5,,,,,,,,,4,,,71,63
12864,note_on,,4,0,6,,,,,,,,,5,,,64,63
12864,note_on,,0,0,4,,,,,,,,,3,,,80,79
12874,note_on,,10,0,1,,,,,,,,,0,,,68,0
12876,note_on,,2,0,1,,,,,,,,,0,,,76,79
12876,note_on,,20,0,3,,,,,,,,,2,,,76,95
12884,note_on,,20,0,7,,,,,,,,,6,,,52,0
12884,note_on,,20,0,5,,,,,,,,,4,,,71,0
12884,note_on,,20,0,6,,,,,,,,,5,,,64,0
12884,note_on,,20,0,8,,,,,,,,,7,,,40,0
12884,note_on,,20,0,2,,,,,,,,,1,,,64,0
12886,note_on,,10,0,1,,,,,,,,,0,,,76,0
12886,note_on,,10,0,3,,,,,,,,,2,,,76,0
12888,note_on,,4,0,2,,,,,,,,,1,,,52,79
12888,note_on,,2,0,3,,,,,,,,,2,,,78,95
12888,note_on,,2,0,1,,,,,,,,,0,,,75,79
12898,note_on,,10,0,3,,,,,,,,,2,,,78,0
12898,note_on,,10,0,1,,,,,,,,,0,,,75,0
12900,note_on,,2,0,3,,,,,,,,,2,,,80,95
12900,note_on,,2,0,1,,,,,,,,,0,,,76,79
12908,note_on,,20,0,2,,,,,,,,,1,,,52,0
12910,note_on,,10,0,1,,,,,,,,,0,,,76,0
12910,note_on,,10,0,3,,,,,,,,,2,,,80,0
12912,note_on,,2,0,1,,,,,,,,,0,,,71,79
12912,note_on,,2,0,3,,,,,,,,,2,,,76,95
12912,note_on,,4,0,2,,,,,,,,,1,,,56,79
12922,note_on,,10,0,1,,,,,,,,,0,,,71,0
12922,note_on,,10,0,3,,,,,,,,,2,,,76,0
12924,note_on,,2,0,1,,,,,,,,,0,,,76,79
12924,note_on,,2,0,3,,,,,,,,,2,,,80,95
12932,note_on,,20,0,2,,,,,,,,,1,,,56,0
12934,note_on,,10,0,3,,,,,,,,,2,,,80,0
12934,note_on,,10,0,1,,,,,,,,,0,,,76,0
12936,note_on,,2,0,3,,,,,,,,,2,,,78,95
12936,note_on,,2,0,1,,,,,,,,,0,,,74,79
12936,note_on,,4,0,2,,,,,,,,,1,,,52,79
12946,note_on,,10,0,3,,,,,,,,,2,,,78,0
12946,note_on,,10,0,1,,,,,,,,,0,,,74,0
12948,note_on,,2,0,1,,,,,,,,,0,,,76,79
12948,note_on,,2,0,3,,,,,,,,,2,,,80,95
12956,note_on,,20,0,2,,,,,,,,,1,,,52,0
12958,note_on,,10,0,1,,,,,,,,,0,,,76,0
12958,note_on,,10,0,3,,,,,,,,,2,,,80,0
12960,note_on,,2,0,1,,,,,,,,,0,,,73,79
12960,note_on,,2,0,3,,,,,,,,,2,,,81,95
12960,note_on,,96,0,4,,,,,,,,,3,,,80,0
12970,note_on,,10,0,1,,,,,,,,,0,,,73,0
12972,note_on,,2,0,1,,,,,,,,,0,,,78,79
12972,note_on,,12,0,4,,,,,,,,,3,,,78,79
12982,note_on,,10,0,1,,,,,,,,,0,,,78,0
12984,note_on,,2,0,1,,,,,,,,,0,,,77,79
12984,note_on,,12,0,4,,,,,,,,,3,,,78,0
12984,note_on,,0,0,4,,,,,,,,,3,,,80,79
12984,note_on,,28,0,2,,,,,,,,,1,,,54,79
12994,note_on,,10,0,1,,,,,,,,,0,,,77,0
12996,note_on,,2,0,1,,,,,,,,,0,,,78,79
12996,note_on,,12,0,4,,,,,,,,,3,,,80,0
12996,note_on,,0,0,4,,,,,,,,,3,,,81,79
13004,note_on,,20,0,2,,,,,,,,,1,,,54,0
13006,note_on,,10,0,1,,,,,,,,,0,,,78,0
13008,note_on,,2,0,1,,,,,,,,,0,,,66,79
13008,note_on,,12,0,4,,,,,,,,,3,,,81,0
13008,note_on,,0,0,4,,,,,,,,,3,,,78,79
13008,note_on,,4,0,2,,,,,,,,,1,,,57,79
13018,note_on,,10,0,1,,,,,,,,,0,,,66,0
13020,note_on,,2,0,1,,,,,,,,,0,,,78,79
13020,note_on,,12,0,4,,,,,,,,,3,,,78,0
13020,note_on,,0,0,4,,,,,,,,,3,,,81,79
13028,note_on,,20,0,2,,,,,,,,,1,,,57,0
13030,note_on,,10,0,1,,,,,,,,,0,,,78,0
13032,note_on,,2,0,1,,,,,,,,,0,,,76,79
13032,note_on,,4,0,2,,,,,,,,,1,,,54,79
13032,note_on,,0,0,4,,,,,,,,,3,,,80,79
13032,note_on,,12,0,4,,,,,,,,,3,,,81,0
13042,note_on,,10,0,1,,,,,,,,,0,,,76,0
13044,note_on,,2,0,1,,,,,,,,,0,,,78,79
13044,note_on,,0,0,4,,,,,,,,,3,,,81,79
13044,note_on,,12,0,4,,,,,,,,,3,,,80,0
13052,note_on,,20,0,2,,,,,,,,,1,,,54,0
13054,note_on,,10,0,1,,,,,,,,,0,,,78,0
13056,note_on,,12,0,4,,,,,,,,,3,,,81,0
13056,note_on,,0,0,4,,,,,,,,,3,,,83,79
13056,note_on,,2,0,1,,,,,,,,,0,,,74,79
13056,note_on,,96,0,3,,,,,,,,,2,,,81,0
13066,note_on,,10,0,1,,,,,,,,,0,,,74,0
13068,note_on,,12,0,3,,,,,,,,,2,,,85,95
13068,note_on,,2,0,1,,,,,,,,,0,,,76,79
13078,note_on,,10,0,1,,,,,,,,,0,,,76,0
13078,note_on,,10,0,3,,,,,,,,,2,,,85,0
13080,note_on,,2,0,3,,,,,,,,,2,,,83,95
13080,note_on,,28,0,2,,,,,,,,,1,,,56,79
13080,note_on,,2,0,1,,,,,,,,,0,,,74,79
13090,note_on,,10,0,3,,,,,,,,,2,,,83,0
13090,note_on,,10,0,1,,,,,,,,,0,,,74,0
13092,note_on,,2,0,3,,,,,,,,,2,,,81,95
13092,note_on,,2,0,1,,,,,,,,,0,,,73,79
13100,note_on,,20,0,2,,,,,,,,,1,,,56,0
13102,note_on,,10,0,3,,,,,,,,,2,,,81,0
13102,note_on,,10,0,1,,,,,,,,,0,,,73,0
13104,note_on,,2,0,3,,,,,,,,,2,,,80,95
13104,note_on,,2,0,1,,,,,,,,,0,,,71,79
13104,note_on,,4,0,2,,,,,,,,,1,,,59,79
13114,note_on,,10,0,1,,,,,,,,,0,,,71,0
13114,note_on,,10,0,3,,,,,,,,,2,,,80,0
13116,note_on,,2,0,1,,,,,,,,,0,,,73,79
13116,note_on,,2,0,3,,,,,,,,,2,,,78,95
13124,note_on,,20,0,2,,,,,,,,,1,,,59,0
13126,note_on,,10,0,1,,,,,,,,,0,,,73,0
13126,note_on,,10,0,3,,,,,,,,,2,,,78,0
13128,note_on,,4,0,2,,,,,,,,,1,,,56,79
13128,note_on,,2,0,1,,,,,,,,,0,,,74,79
13128,note_on,,2,0,3,,,,,,,,,2,,,77,95
13138,note_on,,10,0,1,,,,,,,,,0,,,74,0
13138,note_on,,10,0,3,,,,,,,,,2,,,77,0
13140,note_on,,2,0,1,,,,,,,,,0,,,71,79
13140,note_on,,2,0,3,,,,,,,,,2,,,80,95
13148,note_on,,20,0,2,,,,,,,,,1,,,56,0
13150,note_on,,10,0,3,,,,,,,,,2,,,80,0
13150,note_on,,10,0,1,,,,,,,,,0,,,71,0
13152,note_on,,2,0,3,,,,,,,,,2,,,73,95
13152,note_on,,2,0,1,,,,,,,,,0,,,77,79
13152,note_on,,96,0,4,,,,,,,,,3,,,83,0
13162,note_on,,10,0,1,,,,,,,,,0,,,77,0
13164,note_on,,12,0,4,,,,,,,,,3,,,86,79
13164,note_on,,2,0,1,,,,,,,,,0,,,71,79
13174,note_on,,10,0,1,,,,,,,,,0,,,71,0
13176,note_on,,28,0,2,,,,,,,,,1,,,57,79
13176,note_on,,12,0,4,,,,,,,,,3,,,86,0
13176,note_on,,0,0,4,,,,,,,,,3,,,85,79
13176,note_on,,2,0,1,,,,,,,,,0,,,69,79
13186,note_on,,10,0,1,,,,,,,,,0,,,69,0
13188,note_on,,0,0,4,,,,,,,,,3,,,83,79
13188,note_on,,12,0,4,,,,,,,,,3,,,85,0
13188,note_on,,2,0,1,,,,,,,,,0,,,68,79
13196,note_on,,20,0,2,,,,,,,,,1,,,57,0
13198,note_on,,10,0,1,,,,,,,,,0,,,68,0
13200,note_on,,0,0,4,,,,,,,,,3,,,81,79
13200,note_on,,12,0,4,,,,,,,,,3,,,83,0
13200,note_on,,2,0,1,,,,,,,,,0,,,66,79
13200,note_on,,4,0,2,,,,,,,,,1,,,61,79
13210,note_on,,10,0,1,,,,,,,,,0,,,66,0
13212,note_on,,12,0,4,,,,,,,,,3,,,81,0
13212,note_on,,0,0,4,,,,,,,,,3,,,80,79
13212,note_on,,2,0,1,,,,,,,,,0,,,73,79
13220,note_on,,20,0,2,,,,,,,,,1,,,61,0
13222,note_on,,10,0,1,,,,,,,,,0,,,73,0
13224,note_on,,4,0,2,,,,,,,,,1,,,57,79
13224,note_on,,12,0,4,,,,,,,,,3,,,80,0
13224,note_on,,2,0,1,,,,,,,,,0,,,78,79
13224,note_on,,0,0,4,,,,,,,,,3,,,78,79
13232,note_on,,80,0,3,,,,,,,,,2,,,73,0
13234,note_on,,10,0,1,,,,,,,,,0,,,78,0
13236,note_on,,0,0,4,,,,,,,,,3,,,81,79
13236,note_on,,12,0,4,,,,,,,,,3,,,78,0
13236,note_on,,2,0,1,,,,,,,,,0,,,76,79
13244,note_on,,20,0,2,,,,,,,,,1,,,57,0
13246,note_on,,10,0,1,,,,,,,,,0,,,76,0
13248,note_on,,0,0,4,,,,,,,,,3,,,74,79
13248,note_on,,2,0,1,,,,,,,,,0,,,74,79
13248,note_on,,12,0,4,,,,,,,,,3,,,81,0
13258,note_on,,10,0,1,,,,,,,,,0,,,74,0
13260,note_on,,2,0,1,,,,,,,,,0,,,73,79
13260,note_on,,28,0,3,,,,,,,,,2,,,76,95
13270,note_on,,10,0,1,,,,,,,,,0,,,73,0
13270,note_on,,10,0,3,,,,,,,,,2,,,76,0
13272,note_on,,2,0,3,,,,,,,,,2,,,74,95
13272,note_on,,28,0,2,,,,,,,,,1,,,59,79
13272,note_on,,2,0,1,,,,,,,,,0,,,71,79
13282,note_on,,10,0,3,,,,,,,,,2,,,74,0
13282,note_on,,10,0,1,,,,,,,,,0,,,71,0
13284,note_on,,2,0,1,,,,,,,,,0,,,69,79
13284,note_on,,2,0,3,,,,,,,,,2,,,73,95
13292,note_on,,20,0,2,,,,,,,,,1,,,59,0
13294,note_on,,10,0,1,,,,,,,,,0,,,69,0
13294,note_on,,10,0,3,,,,,,,,,2,,,73,0
13296,note_on,,4,0,2,,,,,,,,,1,,,62,79
13296,note_on,,2,0,1,,,,,,,,,0,,,68,79
13296,note_on,,2,0,3,,,,,,,,,2,,,71,95
13306,note_on,,10,0,1,,,,,,,,,0,,,68,0
13306,note_on,,10,0,3,,,,,,,,,2,,,71,0
13308,note_on,,2,0,3,,,,,,,,,2,,,69,95
13308,note_on,,2,0,1,,,,,,,,,0,,,66,79
13316,note_on,,20,0,2,,,,,,,,,1,,,62,0
13318,note_on,,10,0,1,,,,,,,,,0,,,66,0
13318,note_on,,10,0,3,,,,,,,,,2,,,69,0
13320,note_on,,4,0,2,,,,,,,,,1,,,59,79
13320,note_on,,2,0,1,,,,,,,,,0,,,65,79
13320,note_on,,2,0,3,,,,,,,,,2,,,68,95
13330,note_on,,10,0,3,,,,,,,,,2,,,68,0
13330,note_on,,10,0,1,,,,,,,,,0,,,65,0
13332,note_on,,2,0,1,,,,,,,,,0,,,66,79
13332,note_on,,2,0,3,,,,,,,,,2,,,71,95
13340,note_on,,20,0,2,,,,,,,,,1,,,59,0
13342,note_on,,10,0,1,,,,,,,,,0,,,66,0
13342,note_on,,10,0,3,,,,,,,,,2,,,71,0
13344,note_on,,2,0,1,,,,,,,,,0,,,68,79
13344,note_on,,96,0,4,,,,,,,,,3,,,74,0
13344,note_on,,2,0,3,,,,,,,,,2,,,65,95
13354,note_on,,10,0,1,,,,,,,,,0,,,68,0
13356,note_on,,2,0,1,,,,,,,,,0,,,71,79
13356,note_on,,12,0,4,,,,,,,,,3,,,73,79
13366,note_on,,10,0,1,,,,,,,,,0,,,71,0
13368,note_on,,12,0,4,,,,,,,,,3,,,73,0
13368,note_on,,28,0,2,,,,,,,,,1,,,61,79
13368,note_on,,2,0,1,,,,,,,,,0,,,74,79
13368,note_on,,0,0,4,,,,,,,,,3,,,71,79
13378,note_on,,10,0,1,,,,,,,,,0,,,74,0
13380,note_on,,2,0,1,,,,,,,,,0,,,77,79
13380,note_on,,0,0,4,,,,,,,,,3,,,74,79
13380,note_on,,12,0,4,,,,,,,,,3,,,71,0
13384,note_on,,40,0,3,,,,,,,,,2,,,65,0
13388,note_on,,20,0,2,,,,,,,,,1,,,61,0
13390,note_on,,10,0,1,,,,,,,,,0,,,77,0
13392,note_on,,0,0,4,,,,,,,,,3,,,73,79
13392,note_on,,4,0,2,,,,,,,,,1,,,65,79
13392,note_on,,2,0,1,,,,,,,,,0,,,80,79
13392,note_on,,12,0,4,,,,,,,,,3,,,74,0
13402,note_on,,10,0,1,,,,,,,,,0,,,80,0
13404,note_on,,2,0,1,,,,,,,,,0,,,68,79
13404,note_on,,12,0,4,,,,,,,,,3,,,73,0
13404,note_on,,0,0,4,,,,,,,,,3,,,71,79
13412,note_on,,20,0,2,,,,,,,,,1,,,65,0
13414,note_on,,10,0,1,,,,,,,,,0,,,68,0
13416,note_on,,2,0,1,,,,,,,,,0,,,66,79
13416,note_on,,0,0,4,,,,,,,,,3,,,69,79
13416,note_on,,12,0,4,,,,,,,,,3,,,71,0
13416,note_on,,4,0,2,,,,,,,,,1,,,61,79
13416,note_on,,32,0,3,,,,,,,,,2,,,73,63
13426,note_on,,10,0,1,,,,,,,,,0,,,66,0
13428,note_on,,12,0,4,,,,,,,,,3,,,69,0
13428,note_on,,0,0,4,,,,,,,,,3,,,68,79
13428,note_on,,2,0,1,,,,,,,,,0,,,65,79
13436,note_on,,20,0,2,,,,,,,,,1,,,61,0
13436,note_on,,20,0,3,,,,,,,,,2,,,73,0
13438,note_on,,10,0,1,,,,,,,,,0,,,65,0
13440,note_on,,556,0,6,,,,,,,,,5,,,61,56
13440,note_on,,12,0,4,,,,,,,,,3,,,68,0
13440,note_on,,0,0,4,,,,,,,,,3,,,69,79
13440,note_on,,556,0,8,,,,,,,,,7,,,42,63
13440,note_on,,556,0,7,,,,,,,,,6,,,54,63
13440,note_on,,556,0,5,,,,,,,,,4,,,69,56
13440,note_on,,4,0,2,,,,,,,,,1,,,54,63
13440,note_on,,2,0,1,,,,,,,,,0,,,66,79
13440,note_on,,4,0,3,,,,,,,,,2,,,73,63
13450,note_on,,10,0,1,,,,,,,,,0,,,66,0
13452,note_on,,2,0,1,,,,,,,,,0,,,69,79
13460,note_on,,20,0,7,,,,,,,,,6,,,54,0
13460,note_on,,20,0,6,,,,,,,,,5,,,61,0
13460,note_on,,20,0,2,,,,,,,,,1,,,54,0
13462,note_on,,10,0,1,,,,,,,,,0,,,69,0
13464,note_on,,2,0,1,,,,,,,,,0,,,73,79
13464,note_on,,0,0,5,,,,,,,,,4,,,69,56
13464,note_on,,24,0,5,,,,,,,,,4,,,69,0
13464,note_on,,4,0,7,,,,,,,,,6,,,56,63
13464,note_on,,24,0,4,,,,,,,,,3,,,69,0
13464,note_on,,4,0,2,,,,,,,,,1,,,56,63
13464,note_on,,4,0,6,,,,,,,,,5,,,61,56
13474,note_on,,10,0,1,,,,,,,,,0,,,73,0
13476,note_on,,0,0,3,,,,,,,,,2,,,74,63
13476,note_on,,2,0,1,,,,,,,,,0,,,65,79
13476,note_on,,36,0,3,,,,,,,,,2,,,73,0
13480,note_on,,40,0,8,,,,,,,,,7,,,42,0
13484,note_on,,20,0,2,,,,,,,,,1,,,56,0
13484,note_on,,20,0,7,,,,,,,,,6,,,56,0
13484,note_on,,20,0,6,,,,,,,,,5,,,61,0
13486,note_on,,10,0,1,,,,,,,,,0,,,65,0
13488,note_on,,12,0,3,,,,,,,,,2,,,74,0
13488,note_on,,24,0,5,,,,,,,,,4,,,69,0
13488,note_on,,0,0,5,,,,,,,,,4,,,69,56
13488,note_on,,4,0,2,,,,,,,,,1,,,57,63
13488,note_on,,0,0,3,,,,,,,,,2,,,73,63
13488,note_on,,24,0,4,,,,,,,,,3,,,78,63
13488,note_on,,4,0,6,,,,,,,,,5,,,61,56
13488,note_on,,2,0,1,,,,,,,,,0,,,66,79
13488,note_on,,4,0,7,,,,,,,,,6,,,57,63
13498,note_on,,10,0,1,,,,,,,,,0,,,66,0
13500,note_on,,12,0,3,,,,,,,,,2,,,73,0
13500,note_on,,0,0,3,,,,,,,,,2,,,78,63
13500,note_on,,2,0,1,,,,,,,,,0,,,69,79
13508,note_on,,20,0,6,,,,,,,,,5,,,61,0
13508,note_on,,20,0,2,,,,,,,,,1,,,57,0
13508,note_on,,20,0,7,,,,,,,,,6,,,57,0
13510,note_on,,10,0,1,,,,,,,,,0,,,69,0
13512,note_on,,0,0,5,,,,,,,,,4,,,69,56
13512,note_on,,4,0,7,,,,,,,,,6,,,59,63
13512,note_on,,4,0,2,,,,,,,,,1,,,59,63
13512,note_on,,24,0,4,,,,,,,,,3,,,78,0
13512,note_on,,12,0,3,,,,,,,,,2,,,78,0
13512,note_on,,0,0,3,,,,,,,,,2,,,77,63
13512,note_on,,2,0,1,,,,,,,,,0,,,73,79
13512,note_on,,24,0,5,,,,,,,,,4,,,69,0
13512,note_on,,4,0,6,,,,,,,,,5,,,61,56
13522,note_on,,10,0,1,,,,,,,,,0,,,73,0
13524,note_on,,12,0,3,,,,,,,,,2,,,77,0
13524,note_on,,0,0,3,,,,,,,,,2,,,78,63
13524,note_on,,2,0,1,,,,,,,,,0,,,61,79
13532,note_on,,20,0,6,,,,,,,,,5,,,61,0
13532,note_on,,20,0,7,,,,,,,,,6,,,59,0
13532,note_on,,20,0,2,,,,,,,,,1,,,59,0
13534,note_on,,10,0,1,,,,,,,,,0,,,61,0
13536,note_on,,12,0,3,,,,,,,,,2,,,78,0
13536,note_on,,0,0,3,,,,,,,,,2,,,73,63
13536,note_on,,2,0,1,,,,,,,,,0,,,66,79
13536,note_on,,4,0,7,,,,,,,,,6,,,57,63
13536,note_on,,4,0,6,,,,,,,,,5,,,61,56
13536,note_on,,4,0,2,,,,,,,,,1,,,57,63
13536,note_on,,0,0,5,,,,,,,,,4,,,69,56
13536,note_on,,24,0,5,,,,,,,,,4,,,69,0
13536,note_on,,24,0,4,,,,,,,,,3,,,78,63
13546,note_on,,10,0,1,,,,,,,,,0,,,66,0
13548,note_on,,2,0,1,,,,,,,,,0,,,69,79
13556,note_on,,20,0,7,,,,,,,,,6,,,57,0
13556,note_on,,20,0,6,,,,,,,,,5,,,61,0
13556,note_on,,20,0,2,,,,,,,,,1,,,57,0
13558,note_on,,10,0,1,,,,,,,,,0,,,69,0
13560,note_on,,4,0,7,,,,,,,,,6,,,59,63
13560,note_on,,2,0,1,,,,,,,,,0,,,73,79
13560,note_on,,0,0,5,,,,,,,,,4,,,69,56
13560,note_on,,24,0,5,,,,,,,,,4,,,69,0
13560,note_on,,4,0,2,,,,,,,,,1,,,59,63
13560,note_on,,24,0,4,,,,,,,,,3,,,78,0
13560,note_on,,4,0,6,,,,,,,,,5,,,61,56
13570,note_on,,10,0,1,,,,,,,,,0,,,73,0
13572,note_on,,36,0,3,,,,,,,,,2,,,73,0
13572,note_on,,0,0,3,,,,,,,,,2,,,74,63
13572,note_on,,2,0,1,,,,,,,,,0,,,65,79
13580,note_on,,20,0,2,,,,,,,,,1,,,59,0
13580,note_on,,20,0,7,,,,,,,,,6,,,59,0
13580,note_on,,20,0,6,,,,,,,,,5,,,61,0
13582,note_on,,10,0,1,,,,,,,,,0,,,65,0
13584,note_on,,12,0,3,,,,,,,,,2,,,74,0
13584,note_on,,2,0,1,,,,,,,,,0,,,66,79
13584,note_on,,24,0,4,,,,,,,,,3,,,78,63
13584,note_on,,0,0,3,,,,,,,,,2,,,73,63
13584,note_on,,4,0,6,,,,,,,,,5,,,61,56
13584,note_on,,24,0,5,,,,,,,,,4,,,69,0
13584,note_on,,0,0,5,,,,,,,,,4,,,69,56
13584,note_on,,4,0,7,,,,,,,,,6,,,57,63
13584,note_on,,4,0,2,,,,,,,,,1,,,57,63
13594,note_on,,10,0,1,,,,,,,,,0,,,66,0
13596,note_on,,0,0,3,,,,,,,,,2,,,78,63
13596,note_on,,12,0,3,,,,,,,,,2,,,73,0
13596,note_on,,2,0,1,,,,,,,,,0,,,69,79
13604,note_on,,20,0,7,,,,,,,,,6,,,57,0
13604,note_on,,20,0,6,,,,,,,,,5,,,61,0
13604,note_on,,20,0,2,,,,,,,,,1,,,57,0
13606,note_on,,10,0,1,,,,,,,,,0,,,69,0
13608,note_on,,12,0,3,,,,,,,,,2,,,78,0
13608,note_on,,24,0,5,,,,,,,,,4,,,69,0
13608,note_on,,0,0,5,,,,,,,,,4,,,69,56
13608,note_on,,0,0,3,,,,,,,,,2,,,77,63
13608,note_on,,4,0,2,,,,,,,,,1,,,56,63
13608,note_on,,24,0,4,,,,,,,,,3,,,78,0
13608,note_on,,2,0,1,,,,,,,,,0,,,73,79
13608,note_on,,4,0,6,,,,,,,,,5,,,61,56
13608,note_on,,4,0,7,,,,,,,,,6,,,56,63
13618,note_on,,10,0,1,,,,,,,,,0,,,73,0
13620,note_on,,2,0,1,,,,,,,,,0,,,61,79
13620,note_on,,0,0,3,,,,,,,,,2,,,78,63
13620,note_on,,12,0,3,,,,,,,,,2,,,77,0
13628,note_on,,20,0,7,,,,,,,,,6,,,56,0
13628,note_on,,20,0,2,,,,,,,,,1,,,56,0
13628,note_on,,20,0,6,,,,,,,,,5,,,61,0
13630,note_on,,10,0,1,,,,,,,,,0,,,61,0
13632,note_on,,152,0,8,,,,,,,,,7,,,42,63
13632,note_on,,24,0,4,,,,,,,,,3,,,69,63
13632,note_on,,4,0,2,,,,,,,,,1,,,54,63
13632,note_on,,24,0,5,,,,,,,,,4,,,69,0
13632,note_on,,2,0,1,,,,,,,,,0,,,66,79
13632,note_on,,12,0,3,,,,,,,,,2,,,78,0
13632,note_on,,0,0,3,,,,,,,,,2,,,74,63
13632,note_on,,4,0,7,,,,,,,,,6,,,54,63
13632,note_on,,4,0,6,,,,,,,,,5,,,66,56
13632,note_on,,0,0,5,,,,,,,,,4,,,69,56
13642,note_on,,10,0,1,,,,,,,,,0,,,66,0
13644,note_on,,2,0,1,,,,,,,,,0,,,69,79
13652,note_on,,20,0,6,,,,,,,,,5,,,66,0
13652,note_on,,20,0,2,,,,,,,,,1,,,54,0
13652,note_on,,20,0,7,,,,,,,,,6,,,54,0
13654,note_on,,10,0,1,,,,,,,,,0,,,69,0
13656,note_on,,24,0,3,,,,,,,,,2,,,74,0
13656,note_on,,4,0,6,,,,,,,,,5,,,66,56
13656,note_on,,24,0,5,,,,,,,,,4,,,69,0
13656,note_on,,0,0,5,,,,,,,,,4,,,69,56
13656,note_on,,4,0,2,,,,,,,,,1,,,53,63
13656,note_on,,2,0,1,,,,,,,,,0,,,74,79
13656,note_on,,4,0,7,,,,,,,,,6,,,53,63
13666,note_on,,10,0,1,,,,,,,,,0,,,74,0
13668,note_on,,2,0,1,,,,,,,,,0,,,65,79
13668,note_on,,36,0,4,,,,,,,,,3,,,69,0
13668,note_on,,0,0,4,,,,,,,,,3,,,71,63
13672,note_on,,40,0,8,,,,,,,,,7,,,42,0
13676,note_on,,20,0,7,,,,,,,,,6,,,53,0
13676,note_on,,20,0,2,,,,,,,,,1,,,53,0
13676,note_on,,20,0,6,,,,,,,,,5,,,66,0
13678,note_on,,10,0,1,,,,,,,,,0,,,65,0
13680,note_on,,4,0,7,,,,,,,,,6,,,54,63
13680,note_on,,0,0,5,,,,,,,,,4,,,69,56
13680,note_on,,0,0,4,,,,,,,,,3,,,69,63
13680,note_on,,12,0,4,,,,,,,,,3,,,71,0
13680,note_on,,4,0,2,,,,,,,,,1,,,54,63
13680,note_on,,4,0,6,,,,,,,,,5,,,66,56
13680,note_on,,24,0,5,,,,,,,,,4,,,69,0
13680,note_on,,24,0,3,,,,,,,,,2,,,74,63
13680,note_on,,2,0,1,,,,,,,,,0,,,66,79
13690,note_on,,10,0,1,,,,,,,,,0,,,66,0
13692,note_on,,2,0,1,,,,,,,,,0,,,69,79
13692,note_on,,0,0,4,,,,,,,,,3,,,74,63
13692,note_on,,12,0,4,,,,,,,,,3,,,69,0
13700,note_on,,20,0,7,,,,,,,,,6,,,54,0
13700,note_on,,20,0,6,,,,,,,,,5,,,66,0
13700,note_on,,20,0,2,,,,,,,,,1,,,54,0
13702,note_on,,10,0,1,,,,,,,,,0,,,69,0
13704,note_on,,24,0,3,,,,,,,,,2,,,74,0
13704,note_on,,0,0,5,,,,,,,,,4,,,69,56
13704,note_on,,24,0,5,,,,,,,,,4,,,69,0
13704,note_on,,12,0,4,,,,,,,,,3,,,74,0
13704,note_on,,0,0,4,,,,,,,,,3,,,73,63
13704,note_on,,2,0,1,,,,,,,,,0,,,74,79
13704,note_on,,4,0,6,,,,,,,,,5,,,66,56
13704,note_on,,4,0,7,,,,,,,,,6,,,56,63
13704,note_on,,4,0,2,,,,,,,,,1,,,56,63
13714,note_on,,10,0,1,,,,,,,,,0,,,74,0
13716,note_on,,2,0,1,,,,,,,,,0,,,62,79
13716,note_on,,12,0,4,,,,,,,,,3,,,73,0
13716,note_on,,0,0,4,,,,,,,,,3,,,74,63
13724,note_on,,20,0,7,,,,,,,,,6,,,56,0
13724,note_on,,20,0,6,,,,,,,,,5,,,66,0
13724,note_on,,20,0,2,,,,,,,,,1,,,56,0
13726,note_on,,10,0,1,,,,,,,,,0,,,62,0
13728,note_on,,0,0,4,,,,,,,,,3,,,69,63
13728,note_on,,12,0,4,,,,,,,,,3,,,74,0
13728,note_on,,24,0,5,,,,,,,,,4,,,69,0
13728,note_on,,24,0,3,,,,,,,,,2,,,74,63
13728,note_on,,4,0,6,,,,,,,,,5,,,66,56
13728,note_on,,2,0,1,,,,,,,,,0,,,66,79
13728,note_on,,4,0,2,,,,,,,,,1,,,57,63
13728,note_on,,4,0,7,,,,,,,,,6,,,57,63
13728,note_on,,0,0,5,,,,,,,,,4,,,69,56
13738,note_on,,10,0,1,,,,,,,,,0,,,66,0
13740,note_on,,2,0,1,,,,,,,,,0,,,69,79
13748,note_on,,20,0,6,,,,,,,,,5,,,66,0
13748,note_on,,20,0,2,,,,,,,,,1,,,57,0
13748,note_on,,20,0,7,,,,,,,,,6,,,57,0
13750,note_on,,10,0,1,,,,,,,,,0,,,69,0
13752,note_on,,2,0,1,,,,,,,,,0,,,74,79
13752,note_on,,24,0,3,,,,,,,,,2,,,74,0
13752,note_on,,4,0,7,,,,,,,,,6,,,56,63
13752,note_on,,4,0,6,,,,,,,,,5,,,66,56
13752,note_on,,0,0,5,,,,,,,,,4,,,69,56
13752,note_on,,24,0,5,,,,,,,,,4,,,69,0
13752,note_on,,4,0,2,,,,,,,,,1,,,56,63
13762,note_on,,10,0,1,,,,,,,,,0,,,74,0
13764,note_on,,0,0,4,,,,,,,,,3,,,71,63
13764,note_on,,2,0,1,,,,,,,,,0,,,65,79
13764,note_on,,36,0,4,,,,,,,,,3,,,69,0
13772,note_on,,20,0,7,,,,,,,,,6,,,56,0
13772,note_on,,20,0,6,,,,,,,,,5,,,66,0
13772,note_on,,20,0,2,,,,,,,,,1,,,56,0
13774,note_on,,10,0,1,,,,,,,,,0,,,65,0
13776,note_on,,4,0,7,,,,,,,,,6,,,57,63
13776,note_on,,24,0,3,,,,,,,,,2,,,74,63
13776,note_on,,4,0,2,,,,,,,,,1,,,57,63
13776,note_on,,4,0,6,,,,,,,,,5,,,66,56
13776,note_on,,0,0,4,,,,,,,,,3,,,69,63
13776,note_on,,24,0,5,,,,,,,,,4,,,69,0
13776,note_on,,12,0,4,,,,,,,,,3,,,71,0
13776,note_on,,2,0,1,,,,,,,,,0,,,66,79
13776,note_on,,0,0,5,,,,,,,,,4,,,69,56
13786,note_on,,10,0,1,,,,,,,,,0,,,66,0
13788,note_on,,0,0,4,,,,,,,,,3,,,74,63
13788,note_on,,2,0,1,,,,,,,,,0,,,69,79
13788,note_on,,12,0,4,,,,,,,,,3,,,69,0
13796,note_on,,20,0,7,,,,,,,,,6,,,57,0
13796,note_on,,20,0,2,,,,,,,,,1,,,57,0
13796,note_on,,20,0,6,,,,,,,,,5,,,66,0
13798,note_on,,10,0,1,,,,,,,,,0,,,69,0
13800,note_on,,4,0,6,,,,,,,,,5,,,66,56
13800,note_on,,12,0,4,,,,,,,,,3,,,74,0
13800,note_on,,24,0,5,,,,,,,,,4,,,69,0
13800,note_on,,24,0,3,,,,,,,,,2,,,74,0
13800,note_on,,0,0,5,,,,,,,,,4,,,69,56
13800,note_on,,2,0,1,,,,,,,,,0,,,74,79
13800,note_on,,4,0,7,,,,,,,,,6,,,54,63
13800,note_on,,4,0,2,,,,,,,,,1,,,54,63
13800,note_on,,0,0,4,,,,,,,,,3,,,73,63
13810,note_on,,10,0,1,,,,,,,,,0,,,74,0
13812,note_on,,12,0,4,,,,,,,,,3,,,73,0
13812,note_on,,2,0,1,,,,,,,,,0,,,62,79
13812,note_on,,0,0,4,,,,,,,,,3,,,74,63
13820,note_on,,20,0,2,,,,,,,,,1,,,54,0
13820,note_on,,20,0,7,,,,,,,,,6,,,54,0
13820,note_on,,20,0,6,,,,,,,,,5,,,66,0
13822,note_on,,10,0,1,,,,,,,,,0,,,62,0
13824,note_on,,4,0,2,,,,,,,,,1,,,56,63
13824,note_on,,24,0,3,,,,,,,,,2,,,71,63
13824,note_on,,2,0,1,,,,,,,,,0,,,65,79
13824,note_on,,4,0,6,,,,,,,,,5,,,61,56
13824,note_on,,0,0,5,,,,,,,,,4,,,71,56
13824,note_on,,4,0,7,,,,,,,,,6,,,56,63
13824,note_on,,24,0,5,,,,,,,,,4,,,69,0
13824,note_on,,152,0,8,,,,,,,,,7,,,44,63
13824,note_on,,12,0,4,,,,,,,,,3,,,74,0
13824,note_on,,0,0,4,,,,,,,,,3,,,65,63
13834,note_on,,10,0,1,,,,,,,,,0,,,65,0
13836,note_on,,2,0,1,,,,,,,,,0,,,68,79
13844,note_on,,20,0,2,,,,,,,,,1,,,56,0
13844,note_on,,20,0,7,,,,,,,,,6,,,56,0
13844,note_on,,20,0,6,,,,,,,,,5,,,61,0
13846,note_on,,10,0,1,,,,,,,,,0,,,68,0
13848,note_on,,24,0,5,,,,,,,,,4,,,71,0
13848,note_on,,4,0,2,,,,,,,,,1,,,57,63
13848,note_on,,4,0,7,,,,,,,,,6,,,57,63
13848,note_on,,24,0,4,,,,,,,,,3,,,65,0
13848,note_on,,2,0,1,,,,,,,,,0,,,71,79
13848,note_on,,4,0,6,,,,,,,,,5,,,61,56
13848,note_on,,0,0,5,,,,,,,,,4,,,71,56
13858,note_on,,10,0,1,,,,,,,,,0,,,71,0
13860,note_on,,2,0,1,,,,,,,,,0,,,63,79
13860,note_on,,36,0,3,,,,,,,,,2,,,71,0
13860,note_on,,0,0,3,,,,,,,,,2,,,73,63
13864,note_on,,40,0,8,,,,,,,,,7,,,44,0
13868,note_on,,20,0,7,,,,,,,,,6,,,57,0
13868,note_on,,20,0,2,,,,,,,,,1,,,57,0
13868,note_on,,20,0,6,,,,,,,,,5,,,61,0
13870,note_on,,10,0,1,,,,,,,,,0,,,63,0
13872,note_on,,24,0,5,,,,,,,,,4,,,71,0
13872,note_on,,4,0,6,,,,,,,,,5,,,61,56
13872,note_on,,24,0,4,,,,,,,,,3,,,65,63
13872,note_on,,0,0,5,,,,,,,,,4,,,71,56
13872,note_on,,4,0,2,,,,,,,,,1,,,59,63
13872,note_on,,2,0,1,,,,,,,,,0,,,65,79
13872,note_on,,4,0,7,,,,,,,,,6,,,59,63
13872,note_on,,0,0,3,,,,,,,,,2,,,71,63
13872,note_on,,12,0,3,,,,,,,,,2,,,73,0
13882,note_on,,10,0,1,,,,,,,,,0,,,65,0
13884,note_on,,2,0,1,,,,,,,,,0,,,68,79
13884,note_on,,0,0,3,,,,,,,,,2,,,78,63
13884,note_on,,12,0,3,,,,,,,,,2,,,71,0
13892,note_on,,20,0,7,,,,,,,,,6,,,59,0
13892,note_on,,20,0,2,,,,,,,,,1,,,59,0
13892,note_on,,20,0,6,,,,,,,,,5,,,61,0
13894,note_on,,10,0,1,,,,,,,,,0,,,68,0
13896,note_on,,4,0,6,,,,,,,,,5,,,61,56
13896,note_on,,12,0,3,,,,,,,,,2,,,78,0
13896,note_on,,24,0,4,,,,,,,,,3,,,65,0
13896,note_on,,4,0,2,,,,,,,,,1,,,57,63
13896,note_on,,24,0,5,,,,,,,,,4,,,71,0
13896,note_on,,0,0,5,,,,,,,,,4,,,71,56
13896,note_on,,2,0,1,,,,,,,,,0,,,71,79
13896,note_on,,4,0,7,,,,,,,,,6,,,57,63
13896,note_on,,0,0,3,,,,,,,,,2,,,77,63
13906,note_on,,10,0,1,,,,,,,,,0,,,71,0
13908,note_on,,12,0,3,,,,,,,,,2,,,77,0
13908,note_on,,0,0,3,,,,,,,,,2,,,78,63
13908,note_on,,2,0,1,,,,,,,,,0,,,61,79
13916,note_on,,20,0,7,,,,,,,,,6,,,57,0
13916,note_on,,20,0,2,,,,,,,,,1,,,57,0
13916,note_on,,20,0,6,,,,,,,,,5,,,61,0
13918,note_on,,10,0,1,,,,,,,,,0,,,61,0
13920,note_on,,4,0,6,,,,,,,,,5,,,61,56
13920,note_on,,0,0,5,,,,,,,,,4,,,71,56
13920,note_on,,24,0,5,,,,,,,,,4,,,71,0
13920,note_on,,56,0,8,,,,,,,,,7,,,37,63
13920,note_on,,4,0,2,,,,,,,,,1,,,56,63
13920,note_on,,0,0,3,,,,,,,,,2,,,71,63
13920,note_on,,4,0,7,,,,,,,,,6,,,56,63
13920,note_on,,12,0,3,,,,,,,,,2,,,78,0
13920,note_on,,24,0,4,,,,,,,,,3,,,65,63
13920,note_on,,2,0,1,,,,,,,,,0,,,65,79
13930,note_on,,10,0,1,,,,,,,,,0,,,65,0
13932,note_on,,2,0,1,,,,,,,,,0,,,68,79
13940,note_on,,20,0,2,,,,,,,,,1,,,56,0
13940,note_on,,20,0,6,,,,,,,,,5,,,61,0
13940,note_on,,20,0,7,,,,,,,,,6,,,56,0
13942,note_on,,10,0,1,,,,,,,,,0,,,68,0
13944,note_on,,4,0,6,,,,,,,,,5,,,61,56
13944,note_on,,2,0,1,,,,,,,,,0,,,71,79
13944,note_on,,24,0,5,,,,,,,,,4,,,71,0
13944,note_on,,4,0,2,,,,,,,,,1,,,54,63
13944,note_on,,4,0,7,,,,,,,,,6,,,54,63
13944,note_on,,24,0,4,,,,,,,,,3,,,65,0
13944,note_on,,0,0,5,,,,,,,,,4,,,71,56
13954,note_on,,10,0,1,,,,,,,,,0,,,71,0
13956,note_on,,2,0,1,,,,,,,,,0,,,63,79
13956,note_on,,0,0,3,,,,,,,,,2,,,73,63
13956,note_on,,36,0,3,,,,,,,,,2,,,71,0
13960,note_on,,40,0,8,,,,,,,,,7,,,37,0
13964,note_on,,20,0,2,,,,,,,,,1,,,54,0
13964,note_on,,20,0,7,,,,,,,,,6,,,54,0
13964,note_on,,20,0,6,,,,,,,,,5,,,61,0
13966,note_on,,10,0,1,,,,,,,,,0,,,63,0
13968,note_on,,24,0,4,,,,,,,,,3,,,65,63
13968,note_on,,4,0,7,,,,,,,,,6,,,56,63
13968,note_on,,2,0,1,,,,,,,,,0,,,65,79
13968,note_on,,4,0,2,,,,,,,,,1,,,56,63
13968,note_on,,24,0,5,,,,,,,,,4,,,71,0
13968,note_on,,0,0,5,,,,,,,,,4,,,71,56
13968,note_on,,0,0,3,,,,,,,,,2,,,71,63
13968,note_on,,12,0,3,,,,,,,,,2,,,73,0
13968,note_on,,4,0,6,,,,,,,,,5,,,61,56
13978,note_on,,10,0,1,,,,,,,,,0,,,65,0
13980,note_on,,12,0,3,,,,,,,,,2,,,71,0
13980,note_on,,0,0,3,,,,,,,,,2,,,78,63
13980,note_on,,2,0,1,,,,,,,,,0,,,68,79
13988,note_on,,20,0,2,,,,,,,,,1,,,56,0
13988,note_on,,20,0,6,,,,,,,,,5,,,61,0
13988,note_on,,20,0,7,,,,,,,,,6,,,56,0
13990,note_on,,10,0,1,,,,,,,,,0,,,68,0
13992,note_on,,4,0,6,,,,,,,,,5,,,61,56
13992,note_on,,2,0,1,,,,,,,,,0,,,71,79
13992,note_on,,24,0,5,,,,,,,,,4,,,71,0
13992,note_on,,0,0,5,,,,,,,,,4,,,71,56
13992,note_on,,4,0,2,,,,,,,,,1,,,49,63
13992,note_on,,24,0,4,,,,,,,,,3,,,65,0
13992,note_on,,0,0,3,,,,,,,,,2,,,77,63
13992,note_on,,4,0,7,,,,,,,,,6,,,49,63
13992,note_on,,12,0,3,,,,,,,,,2,,,78,0
14002,note_on,,10,0,1,,,,,,,,,0,,,71,0
14004,note_on,,12,0,3,,,,,,,,,2,,,77,0
14004,note_on,,0,0,3,,,,,,,,,2,,,78,63
14004,note_on,,2,0,1,,,,,,,,,0,,,61,79
14012,note_on,,20,0,2,,,,,,,,,1,,,49,0
14012,note_on,,20,0,7,,,,,,,,,6,,,49,0
14012,note_on,,20,0,6,,,,,,,,,5,,,61,0
14014,note_on,,10,0,1,,,,,,,,,0,,,61,0
14016,note_on,,4,0,6,,,,,,,,,5,,,61,56
14016,note_on,,2,0,1,,,,,,,,,0,,,66,79
14016,note_on,,4,0,2,,,,,,,,,1,,,54,63
14016,note_on,,0,0,3,,,,,,,,,2,,,69,63
14016,note_on,,4,0,7,,,,,,,,,6,,,54,63
14016,note_on,,12,0,3,,,,,,,,,2,,,78,0
14016,note_on,,0,0,5,,,,,,,,,4,,,69,56
14016,note_on,,24,0,5,,,,,,,,,4,,,71,0
14016,note_on,,56,0,8,,,,,,,,,7,,,42,63
14016,note_on,,24,0,4,,,,,,,,,3,,,69,63
14026,note_on,,10,0,1,,,,,,,,,0,,,66,0
14028,note_on,,2,0,1,,,,,,,,,0,,,68,79
14036,note_on,,20,0,6,,,,,,,,,5,,,61,0
14036,note_on,,20,0,2,,,,,,,,,1,,,54,0
14036,note_on,,20,0,7,,,,,,,,,6,,,54,0
14038,note_on,,10,0,1,,,,,,,,,0,,,68,0
14040,note_on,,2,0,1,,,,,,,,,0,,,69,79
14040,note_on,,4,0,7,,,,,,,,,6,,,56,63
14040,note_on,,0,0,5,,,,,,,,,4,,,69,56
14040,note_on,,4,0,2,,,,,,,,,1,,,56,63
14040,note_on,,4,0,6,,,,,,,,,5,,,61,56
14040,note_on,,24,0,5,,,,,,,,,4,,,69,0
14040,note_on,,24,0,3,,,,,,,,,2,,,69,0
14050,note_on,,10,0,1,,,,,,,,,0,,,69,0
14052,note_on,,0,0,4,,,,,,,,,3,,,71,63
14052,note_on,,2,0,1,,,,,,,,,0,,,65,79
14052,note_on,,36,0,4,,,,,,,,,3,,,69,0
14056,note_on,,40,0,8,,,,,,,,,7,,,42,0
14060,note_on,,20,0,7,,,,,,,,,6,,,56,0
14060,note_on,,20,0,6,,,,,,,,,5,,,61,0
14060,note_on,,20,0,2,,,,,,,,,1,,,56,0
14062,note_on,,10,0,1,,,,,,,,,0,,,65,0
14064,note_on,,0,0,5,,,,,,,,,4,,,69,56
14064,note_on,,4,0,7,,,,,,,,,6,,,57,63
14064,note_on,,24,0,5,,,,,,,,,4,,,69,0
14064,note_on,,4,0,2,,,,,,,,,1,,,57,63
14064,note_on,,24,0,3,,,,,,,,,2,,,73,63
14064,note_on,,4,0,6,,,,,,,,,5,,,61,56
14064,note_on,,12,0,4,,,,,,,,,3,,,71,0
14064,note_on,,0,0,4,,,,,,,,,3,,,69,63
14064,note_on,,2,0,1,,,,,,,,,0,,,66,79
14074,note_on,,10,0,1,,,,,,,,,0,,,66,0
14076,note_on,,2,0,1,,,,,,,,,0,,,68,79
14076,note_on,,0,0,4,,,,,,,,,3,,,78,63
14076,note_on,,12,0,4,,,,,,,,,3,,,69,0
14084,note_on,,20,0,6,,,,,,,,,5,,,61,0
14084,note_on,,20,0,2,,,,,,,,,1,,,57,0
14084,note_on,,20,0,7,,,,,,,,,6,,,57,0
14086,note_on,,10,0,1,,,,,,,,,0,,,68,0
14088,note_on,,0,0,4,,,,,,,,,3,,,77,63
14088,note_on,,12,0,4,,,,,,,,,3,,,78,0
14088,note_on,,4,0,2,,,,,,,,,1,,,59,63
14088,note_on,,0,0,5,,,,,,,,,4,,,69,56
14088,note_on,,24,0,5,,,,,,,,,4,,,69,0
14088,note_on,,2,0,1,,,,,,,,,0,,,69,79
14088,note_on,,4,0,7,,,,,,,,,6,,,59,63
14088,note_on,,4,0,6,,,,,,,,,5,,,61,56
14088,note_on,,24,0,3,,,,,,,,,2,,,73,0
14098,note_on,,10,0,1,,,,,,,,,0,,,69,0
14100,note_on,,2,0,1,,,,,,,,,0,,,61,79
14100,note_on,,0,0,4,,,,,,,,,3,,,78,63
14100,note_on,,12,0,4,,,,,,,,,3,,,77,0
14108,note_on,,20,0,2,,,,,,,,,1,,,59,0
14108,note_on,,20,0,7,,,,,,,,,6,,,59,0
14108,note_on,,20,0,6,,,,,,,,,5,,,61,0
14110,note_on,,10,0,1,,,,,,,,,0,,,61,0
14112,note_on,,24,0,5,,,,,,,,,4,,,69,0
14112,note_on,,12,0,4,,,,,,,,,3,,,78,0
14112,note_on,,0,0,4,,,,,,,,,3,,,69,63
14112,note_on,,24,0,3,,,,,,,,,2,,,73,63
14112,note_on,,2,0,1,,,,,,,,,0,,,66,79
14112,note_on,,4,0,7,,,,,,,,,6,,,57,63
14112,note_on,,4,0,2,,,,,,,,,1,,,57,63
14112,note_on,,0,0,5,,,,,,,,,4,,,69,56
14112,note_on,,4,0,6,,,,,,,,,5,,,61,56
14122,note_on,,10,0,1,,,,,,,,,0,,,66,0
14124,note_on,,2,0,1,,,,,,,,,0,,,68,79
14132,note_on,,20,0,2,,,,,,,,,1,,,57,0
14132,note_on,,20,0,6,,,,,,,,,5,,,61,0
14132,note_on,,20,0,7,,,,,,,,,6,,,57,0
14134,note_on,,10,0,1,,,,,,,,,0,,,68,0
14136,note_on,,2,0,1,,,,,,,,,0,,,69,79
14136,note_on,,24,0,5,,,,,,,,,4,,,69,0
14136,note_on,,0,0,5,,,,,,,,,4,,,69,56
14136,note_on,,4,0,2,,,,,,,,,1,,,59,63
14136,note_on,,4,0,7,,,,,,,,,6,,,59,63
14136,note_on,,24,0,3,,,,,,,,,2,,,73,0
14136,note_on,,4,0,6,,,,,,,,,5,,,61,56
14146,note_on,,10,0,1,,,,,,,,,0,,,69,0
14148,note_on,,0,0,4,,,,,,,,,3,,,71,63
14148,note_on,,2,0,1,,,,,,,,,0,,,65,79
14148,note_on,,36,0,4,,,,,,,,,3,,,69,0
14156,note_on,,20,0,7,,,,,,,,,6,,,59,0
14156,note_on,,20,0,6,,,,,,,,,5,,,61,0
14156,note_on,,20,0,2,,,,,,,,,1,,,59,0
14158,note_on,,10,0,1,,,,,,,,,0,,,65,0
14160,note_on,,12,0,4,,,,,,,,,3,,,71,0
14160,note_on,,2,0,1,,,,,,,,,0,,,66,79
14160,note_on,,4,0,6,,,,,,,,,5,,,61,56
14160,note_on,,4,0,7,,,,,,,,,6,,,57,63
14160,note_on,,0,0,5,,,,,,,,,4,,,69,56
14160,note_on,,24,0,5,,,,,,,,,4,,,69,0
14160,note_on,,24,0,3,,,,,,,,,2,,,73,63
14160,note_on,,4,0,2,,,,,,,,,1,,,57,63
14160,note_on,,0,0,4,,,,,,,,,3,,,69,63
14170,note_on,,10,0,1,,,,,,,,,0,,,66,0
14172,note_on,,0,0,4,,,,,,,,,3,,,78,63
14172,note_on,,12,0,4,,,,,,,,,3,,,69,0
14172,note_on,,2,0,1,,,,,,,,,0,,,68,79
14180,note_on,,20,0,2,,,,,,,,,1,,,57,0
14180,note_on,,20,0,7,,,,,,,,,6,,,57,0
14180,note_on,,20,0,6,,,,,,,,,5,,,61,0
14182,note_on,,10,0,1,,,,,,,,,0,,,68,0
14184,note_on,,24,0,5,,,,,,,,,4,,,69,0
14184,note_on,,4,0,2,,,,,,,,,1,,,56,63
14184,note_on,,0,0,4,,,,,,,,,3,,,77,63
14184,note_on,,24,0,3,,,,,,,,,2,,,73,0
14184,note_on,,2,0,1,,,,,,,,,0,,,69,79
14184,note_on,,0,0,5,,,,,,,,,4,,,69,56
14184,note_on,,12,0,4,,,,,,,,,3,,,78,0
14184,note_on,,4,0,6,,,,,,,,,5,,,61,56
14184,note_on,,4,0,7,,,,,,,,,6,,,56,63
14194,note_on,,10,0,1,,,,,,,,,0,,,69,0
14196,note_on,,0,0,4,,,,,,,,,3,,,78,63
14196,note_on,,12,0,4,,,,,,,,,3,,,77,0
14196,note_on,,2,0,1,,,,,,,,,0,,,61,79
14204,note_on,,20,0,2,,,,,,,,,1,,,56,0
14204,note_on,,20,0,6,,,,,,,,,5,,,61,0
14204,note_on,,20,0,7,,,,,,,,,6,,,56,0
14206,note_on,,10,0,1,,,,,,,,,0,,,61,0
14208,note_on,,24,0,3,,,,,,,,,2,,,69,63
14208,note_on,,2,0,1,,,,,,,,,0,,,66,79
14208,note_on,,4,0,7,,,,,,,,,6,,,54,63
14208,note_on,,152,0,8,,,,,,,,,7,,,42,63
14208,note_on,,4,0,2,,,,,,,,,1,,,54,63
14208,note_on,,24,0,5,,,,,,,,,4,,,69,0
14208,note_on,,0,0,5,,,,,,,,,4,,,69,56
14208,note_on,,12,0,4,,,,,,,,,3,,,78,0
14208,note_on,,0,0,4,,,,,,,,,3,,,74,63
14208,note_on,,4,0,6,,,,,,,,,5,,,66,56
14218,note_on,,10,0,1,,,,,,,,,0,,,66,0
14220,note_on,,2,0,1,,,,,,,,,0,,,69,79
14228,note_on,,20,0,7,,,,,,,,,6,,,54,0
14228,note_on,,20,0,2,,,,,,,,,1,,,54,0
14228,note_on,,20,0,6,,,,,,,,,5,,,66,0
14230,note_on,,10,0,1,,,,,,,,,0,,,69,0
14232,note_on,,4,0,6,,,,,,,,,5,,,66,56
14232,note_on,,2,0,1,,,,,,,,,0,,,74,79
14232,note_on,,0,0,5,,,,,,,,,4,,,69,56
14232,note_on,,24,0,5,,,,,,,,,4,,,69,0
14232,note_on,,24,0,4,,,,,,,,,3,,,74,0
14232,note_on,,4,0,2,,,,,,,,,1,,,56,63
14232,note_on,,4,0,7,,,,,,,,,6,,,56,63
14242,note_on,,10,0,1,,,,,,,,,0,,,74,0
14244,note_on,,36,0,3,,,,,,,,,2,,,69,0
14244,note_on,,0,0,3,,,,,,,,,2,,,71,63
14244,note_on,,2,0,1,,,,,,,,,0,,,65,79
14248,note_on,,40,0,8,,,,,,,,,7,,,42,0
14252,note_on,,20,0,6,,,,,,,,,5,,,66,0
14252,note_on,,20,0,2,,,,,,,,,1,,,56,0
14252,note_on,,20,0,7,,,,,,,,,6,,,56,0
14254,note_on,,10,0,1,,,,,,,,,0,,,65,0
14256,note_on,,2,0,1,,,,,,,,,0,,,66,79
14256,note_on,,4,0,7,,,,,,,,,6,,,57,63
14256,note_on,,4,0,6,,,,,,,,,5,,,66,56
14256,note_on,,0,0,5,,,,,,,,,4,,,69,56
14256,note_on,,24,0,5,,,,,,,,,4,,,69,0
14256,note_on,,12,0,3,,,,,,,,,2,,,71,0
14256,note_on,,0,0,3,,,,,,,,,2,,,69,63
14256,note_on,,24,0,4,,,,,,,,,3,,,74,63
14256,note_on,,4,0,2,,,,,,,,,1,,,57,63
14266,note_on,,10,0,1,,,,,,,,,0,,,66,0
14268,note_on,,12,0,3,,,,,,,,,2,,,69,0
14268,note_on,,0,0,3,,,,,,,,,2,,,78,63
14268,note_on,,2,0,1,,,,,,,,,0,,,69,79
14276,note_on,,20,0,7,,,,,,,,,6,,,57,0
14276,note_on,,20,0,6,,,,,,,,,5,,,66,0
14276,note_on,,20,0,2,,,,,,,,,1,,,57,0
14278,note_on,,10,0,1,,,,,,,,,0,,,69,0
14280,note_on,,4,0,7,,,,,,,,,6,,,56,63
14280,note_on,,24,0,5,,,,,,,,,4,,,69,0
14280,note_on,,0,0,5,,,,,,,,,4,,,69,56
14280,note_on,,4,0,2,,,,,,,,,1,,,56,63
14280,note_on,,4,0,6,,,,,,,,,5,,,66,56
14280,note_on,,24,0,4,,,,,,,,,3,,,74,0
14280,note_on,,2,0,1,,,,,,,,,0,,,74,79
14280,note_on,,0,0,3,,,,,,,,,2,,,77,63
14280,note_on,,12,0,3,,,,,,,,,2,,,78,0
14290,note_on,,10,0,1,,,,,,,,,0,,,74,0
14292,note_on,,2,0,1,,,,,,,,,0,,,62,79
14292,note_on,,0,0,3,,,,,,,,,2,,,78,63
14292,note_on,,12,0,3,,,,,,,,,2,,,77,0
14300,note_on,,20,0,2,,,,,,,,,1,,,56,0
14300,note_on,,20,0,6,,,,,,,,,5,,,66,0
14300,note_on,,20,0,7,,,,,,,,,6,,,56,0
14302,note_on,,10,0,1,,,,,,,,,0,,,62,0
14304,note_on,,0,0,3,,,,,,,,,2,,,69,63
14304,note_on,,12,0,3,,,,,,,,,2,,,78,0
14304,note_on,,24,0,4,,,,,,,,,3,,,74,63
14304,note_on,,2,0,1,,,,,,,,,0,,,66,79
14304,note_on,,4,0,2,,,,,,,,,1,,,54,63
14304,note_on,,24,0,5,,,,,,,,,4,,,69,0
14304,note_on,,0,0,5,,,,,,,,,4,,,69,56
14304,note_on,,4,0,6,,,,,,,,,5,,,66,56
14304,note_on,,4,0,7,,,,,,,,,6,,,54,63
14314,note_on,,10,0,1,,,,,,,,,0,,,66,0
14316,note_on,,2,0,1,,,,,,,,,0,,,69,79
14324,note_on,,20,0,7,,,,,,,,,6,,,54,0
14324,note_on,,20,0,6,,,,,,,,,5,,,66,0
14324,note_on,,20,0,2,,,,,,,,,1,,,54,0
14326,note_on,,10,0,1,,,,,,,,,0,,,69,0
14328,note_on,,4,0,6,,,,,,,,,5,,,66,56
14328,note_on,,0,0,5,,,,,,,,,4,,,69,56
14328,note_on,,24,0,4,,,,,,,,,3,,,74,0
14328,note_on,,2,0,1,,,,,,,,,0,,,74,79
14328,note_on,,4,0,7,,,,,,,,,6,,,52,63
14328,note_on,,24,0,5,,,,,,,,,4,,,69,0
14328,note_on,,4,0,2,,,,,,,,,1,,,52,63
14338,note_on,,10,0,1,,,,,,,,,0,,,74,0
14340,note_on,,2,0,1,,,,,,,,,0,,,65,79
14340,note_on,,36,0,3,,,,,,,,,2,,,69,0
14340,note_on,,0,0,3,,,,,,,,,2,,,71,63
14348,note_on,,20,0,2,,,,,,,,,1,,,52,0
14348,note_on,,20,0,7,,,,,,,,,6,,,52,0
14348,note_on,,20,0,6,,,,,,,,,5,,,66,0
14350,note_on,,10,0,1,,,,,,,,,0,,,65,0
14352,note_on,,0,0,5,,,,,,,,,4,,,69,56
14352,note_on,,4,0,6,,,,,,,,,5,,,66,56
14352,note_on,,4,0,7,,,,,,,,,6,,,50,63
14352,note_on,,0,0,3,,,,,,,,,2,,,69,63
14352,note_on,,24,0,4,,,,,,,,,3,,,74,63
14352,note_on,,12,0,3,,,,,,,,,2,,,71,0
14352,note_on,,4,0,2,,,,,,,,,1,,,50,63
14352,note_on,,24,0,5,,,,,,,,,4,,,69,0
14352,note_on,,2,0,1,,,,,,,,,0,,,66,79
14362,note_on,,10,0,1,,,,,,,,,0,,,66,0
14364,note_on,,0,0,3,,,,,,,,,2,,,78,63
14364,note_on,,12,0,3,,,,,,,,,2,,,69,0
14364,note_on,,2,0,1,,,,,,,,,0,,,69,79
14372,note_on,,20,0,2,,,,,,,,,1,,,50,0
14372,note_on,,20,0,7,,,,,,,,,6,,,50,0
14372,note_on,,20,0,6,,,,,,,,,5,,,66,0
14374,note_on,,10,0,1,,,,,,,,,0,,,69,0
14376,note_on,,0,0,3,,,,,,,,,2,,,77,63
14376,note_on,,24,0,5,,,,,,,,,4,,,69,0
14376,note_on,,0,0,5,,,,,,,,,4,,,69,56
14376,note_on,,2,0,1,,,,,,,,,0,,,74,79
14376,note_on,,24,0,4,,,,,,,,,3,,,74,0
14376,note_on,,4,0,2,,,,,,,,,1,,,49,63
14376,note_on,,12,0,3,,,,,,,,,2,,,78,0
14376,note_on,,4,0,6,,,,,,,,,5,,,66,56
14376,note_on,,4,0,7,,,,,,,,,6,,,49,63
14386,note_on,,10,0,1,,,,,,,,,0,,,74,0
14388,note_on,,0,0,3,,,,,,,,,2,,,78,63
14388,note_on,,12,0,3,,,,,,,,,2,,,77,0
14388,note_on,,2,0,1,,,,,,,,,0,,,62,79
14396,note_on,,20,0,6,,,,,,,,,5,,,66,0
14396,note_on,,20,0,7,,,,,,,,,6,,,49,0
14396,note_on,,20,0,2,,,,,,,,,1,,,49,0
14398,note_on,,10,0,1,,,,,,,,,0,,,62,0
14400,note_on,,4,0,6,,,,,,,,,5,,,64,56
14400,note_on,,2,0,1,,,,,,,,,0,,,68,79
14400,note_on,,4,0,2,,,,,,,,,1,,,47,63
14400,note_on,,4,0,7,,,,,,,,,6,,,47,63
14400,note_on,,24,0,4,,,,,,,,,3,,,74,63
14400,note_on,,152,0,8,,,,,,,,,7,,,47,63
14400,note_on,,0,0,3,,,,,,,,,2,,,68,63
14400,note_on,,0,0,5,,,,,,,,,4,,,71,56
14400,note_on,,24,0,5,,,,,,,,,4,,,69,0
14400,note_on,,12,0,3,,,,,,,,,2,,,78,0
14410,note_on,,10,0,1,,,,,,,,,0,,,68,0
14412,note_on,,2,0,1,,,,,,,,,0,,,71,79
14420,note_on,,20,0,7,,,,,,,,,6,,,47,0
14420,note_on,,20,0,2,,,,,,,,,1,,,47,0
14420,note_on,,20,0,6,,,,,,,,,5,,,64,0
14422,note_on,,10,0,1,,,,,,,,,0,,,71,0
14424,note_on,,4,0,6,,,,,,,,,5,,,64,56
14424,note_on,,4,0,2,,,,,,,,,1,,,45,63
14424,note_on,,4,0,7,,,,,,,,,6,,,45,63
14424,note_on,,2,0,1,,,,,,,,,0,,,74,79
14424,note_on,,24,0,3,,,,,,,,,2,,,68,0
14424,note_on,,0,0,5,,,,,,,,,4,,,71,56
14424,note_on,,24,0,5,,,,,,,,,4,,,71,0
14434,note_on,,10,0,1,,,,,,,,,0,,,74,0
14436,note_on,,0,0,4,,,,,,,,,3,,,76,63
14436,note_on,,36,0,4,,,,,,,,,3,,,74,0
14436,note_on,,2,0,1,,,,,,,,,0,,,66,79
14440,note_on,,40,0,8,,,,,,,,,7,,,47,0
14444,note_on,,20,0,6,,,,,,,,,5,,,64,0
14444,note_on,,20,0,2,,,,,,,,,1,,,45,0
14444,note_on,,20,0,7,,,,,,,,,6,,,45,0
14446,note_on,,10,0,1,,,,,,,,,0,,,66,0
14448,note_on,,24,0,5,,,,,,,,,4,,,71,0
14448,note_on,,0,0,5,,,,,,,,,4,,,71,56
14448,note_on,,4,0,7,,,,,,,,,6,,,44,63
14448,note_on,,12,0,4,,,,,,,,,3,,,76,0
14448,note_on,,0,0,4,,,,,,,,,3,,,74,63
14448,note_on,,4,0,2,,,,,,,,,1,,,44,63
14448,note_on,,2,0,1,,,,,,,,,0,,,68,79
14448,note_on,,24,0,3,,,,,,,,,2,,,68,63
14448,note_on,,4,0,6,,,,,,,,,5,,,64,56
14458,note_on,,10,0,1,,,,,,,,,0,,,68,0
14460,note_on,,12,0,4,,,,,,,,,3,,,74,0
14460,note_on,,2,0,1,,,,,,,,,0,,,71,79
14460,note_on,,0,0,4,,,,,,,,,3,,,83,63
14468,note_on,,20,0,6,,,,,,,,,5,,,64,0
14468,note_on,,20,0,2,,,,,,,,,1,,,44,0
14468,note_on,,20,0,7,,,,,,,,,6,,,44,0
14470,note_on,,10,0,1,,,,,,,,,0,,,71,0
14472,note_on,,4,0,2,,,,,,,,,1,,,42,63
14472,note_on,,0,0,5,,,,,,,,,4,,,71,56
14472,note_on,,24,0,5,,,,,,,,,4,,,71,0
14472,note_on,,4,0,7,,,,,,,,,6,,,42,63
14472,note_on,,12,0,4,,,,,,,,,3,,,83,0
14472,note_on,,4,0,6,,,,,,,,,5,,,64,56
14472,note_on,,24,0,3,,,,,,,,,2,,,68,0
14472,note_on,,0,0,4,,,,,,,,,3,,,81,63
14472,note_on,,2,0,1,,,,,,,,,0,,,74,79
14482,note_on,,10,0,1,,,,,,,,,0,,,74,0
14484,note_on,,2,0,1,,,,,,,,,0,,,64,79
14484,note_on,,12,0,4,,,,,,,,,3,,,81,0
14484,note_on,,0,0,4,,,,,,,,,3,,,83,63
14492,note_on,,20,0,2,,,,,,,,,1,,,42,0
14492,note_on,,20,0,6,,,,,,,,,5,,,64,0
14492,note_on,,20,0,7,,,,,,,,,6,,,42,0
14494,note_on,,10,0,1,,,,,,,,,0,,,64,0
14496,note_on,,0,0,4,,,,,,,,,3,,,74,63
14496,note_on,,24,0,3,,,,,,,,,2,,,68,63
14496,note_on,,2,0,1,,,,,,,,,0,,,68,79
14496,note_on,,4,0,7,,,,,,,,,6,,,40,63
14496,note_on,,12,0,4,,,,,,,,,3,,,83,0
14496,note_on,,24,0,5,,,,,,,,,4,,,71,0
14496,note_on,,0,0,5,,,,,,,,,4,,,71,56
14496,note_on,,4,0,2,,,,,,,,,1,,,40,63
14496,note_on,,4,0,6,,,,,,,,,5,,,64,56
14496,note_on,,56,0,8,,,,,,,,,7,,,40,63
14506,note_on,,10,0,1,,,,,,,,,0,,,68,0
14508,note_on,,2,0,1,,,,,,,,,0,,,71,79
14516,note_on,,20,0,6,,,,,,,,,5,,,64,0
14516,note_on,,20,0,7,,,,,,,,,6,,,40,0
14516,note_on,,20,0,2,,,,,,,,,1,,,40,0
14518,note_on,,10,0,1,,,,,,,,,0,,,71,0
14520,note_on,,4,0,2,,,,,,,,,1,,,50,63
14520,note_on,,24,0,3,,,,,,,,,2,,,68,0
14520,note_on,,4,0,7,,,,,,,,,6,,,50,63
14520,note_on,,24,0,5,,,,,,,,,4,,,71,0
14520,note_on,,0,0,5,,,,,,,,,4,,,71,56
14520,note_on,,4,0,6,,,,,,,,,5,,,64,56
14520,note_on,,2,0,1,,,,,,,,,0,,,74,79
14530,note_on,,10,0,1,,,,,,,,,0,,,74,0
14532,note_on,,0,0,4,,,,,,,,,3,,,76,63
14532,note_on,,36,0,4,,,,,,,,,3,,,74,0
14532,note_on,,2,0,1,,,,,,,,,0,,,66,79
14536,note_on,,40,0,8,,,,,,,,,7,,,40,0
14540,note_on,,20,0,6,,,,,,,,,5,,,64,0
14540,note_on,,20,0,7,,,,,,,,,6,,,50,0
14540,note_on,,20,0,2,,,,,,,,,1,,,50,0
14542,note_on,,10,0,1,,,,,,,,,0,,,66,0
14544,note_on,,12,0,4,,,,,,,,,3,,,76,0
14544,note_on,,4,0,6,,,,,,,,,5,,,64,56
14544,note_on,,0,0,5,,,,,,,,,4,,,71,56
14544,note_on,,24,0,5,,,,,,,,,4,,,71,0
14544,note_on,,24,0,3,,,,,,,,,2,,,68,63
14544,note_on,,4,0,7,,,,,,,,,6,,,49,63
14544,note_on,,0,0,4,,,,,,,,,3,,,74,63
14544,note_on,,4,0,2,,,,,,,,,1,,,49,63
14544,note_on,,2,0,1,,,,,,,,,0,,,68,79
14554,note_on,,10,0,1,,,,,,,,,0,,,68,0
14556,note_on,,12,0,4,,,,,,,,,3,,,74,0
14556,note_on,,2,0,1,,,,,,,,,0,,,71,79
14556,note_on,,0,0,4,,,,,,,,,3,,,83,63
14564,note_on,,20,0,2,,,,,,,,,1,,,49,0
14564,note_on,,20,0,7,,,,,,,,,6,,,49,0
14564,note_on,,20,0,6,,,,,,,,,5,,,64,0
14566,note_on,,10,0,1,,,,,,,,,0,,,71,0
14568,note_on,,0,0,4,,,,,,,,,3,,,81,63
14568,note_on,,12,0,4,,,,,,,,,3,,,83,0
14568,note_on,,4,0,6,,,,,,,,,5,,,64,56
14568,note_on,,4,0,2,,,,,,,,,1,,,47,63
14568,note_on,,24,0,5,,,,,,,,,4,,,71,0
14568,note_on,,4,0,7,,,,,,,,,6,,,47,63
14568,note_on,,24,0,3,,,,,,,,,2,,,68,0
14568,note_on,,2,0,1,,,,,,,,,0,,,74,79
14568,note_on,,0,0,5,,,,,,,,,4,,,71,56
14578,note_on,,10,0,1,,,,,,,,,0,,,74,0
14580,note_on,,2,0,1,,,,,,,,,0,,,64,79
14580,note_on,,12,0,4,,,,,,,,,3,,,81,0
14580,note_on,,0,0,4,,,,,,,,,3,,,83,63
14588,note_on,,20,0,2,,,,,,,,,1,,,47,0
14588,note_on,,20,0,6,,,,,,,,,5,,,64,0
14588,note_on,,20,0,7,,,,,,,,,6,,,47,0
14590,note_on,,10,0,1,,,,,,,,,0,,,64,0
14592,note_on,,12,0,4,,,,,,,,,3,,,83,0
14592,note_on,,0,0,4,,,,,,,,,3,,,73,63
14592,note_on,,24,0,3,,,,,,,,,2,,,76,63
14592,note_on,,4,0,6,,,,,,,,,5,,,64,56
14592,note_on,,4,0,2,,,,,,,,,1,,,45,63
14592,note_on,,2,0,1,,,,,,,,,0,,,69,79
14592,note_on,,56,0,8,,,,,,,,,7,,,45,63
14592,note_on,,24,0,5,,,,,,,,,4,,,71,0
14592,note_on,,4,0,7,,,,,,,,,6,,,45,63
14592,note_on,,0,0,5,,,,,,,,,4,,,73,56
14602,note_on,,10,0,1,,,,,,,,,0,,,69,0
14604,note_on,,2,0,1,,,,,,,,,0,,,73,79
14612,note_on,,20,0,6,,,,,,,,,5,,,64,0
14612,note_on,,20,0,7,,,,,,,,,6,,,45,0
14612,note_on,,20,0,2,,,,,,,,,1,,,45,0
14614,note_on,,10,0,1,,,,,,,,,0,,,73,0
14616,note_on,,4,0,2,,,,,,,,,1,,,47,63
14616,note_on,,0,0,5,,,,,,,,,4,,,73,56
14616,note_on,,4,0,6,,,,,,,,,5,,,64,56
14616,note_on,,24,0,5,,,,,,,,,4,,,73,0
14616,note_on,,24,0,4,,,,,,,,,3,,,73,0
14616,note_on,,2,0,1,,,,,,,,,0,,,76,79
14616,note_on,,4,0,7,,,,,,,,,6,,,47,63
14626,note_on,,10,0,1,,,,,,,,,0,,,76,0
14628,note_on,,2,0,1,,,,,,,,,0,,,68,79
14628,note_on,,0,0,3,,,,,,,,,2,,,78,63
14628,note_on,,36,0,3,,,,,,,,,2,,,76,0
14632,note_on,,40,0,8,,,,,,,,,7,,,45,0
14636,note_on,,20,0,6,,,,,,,,,5,,,64,0
14636,note_on,,20,0,7,,,,,,,,,6,,,47,0
14636,note_on,,20,0,2,,,,,,,,,1,,,47,0
14638,note_on,,10,0,1,,,,,,,,,0,,,68,0
14640,note_on,,4,0,7,,,,,,,,,6,,,49,63
14640,note_on,,2,0,1,,,,,,,,,0,,,69,79
14640,note_on,,0,0,5,,,,,,,,,4,,,73,56
14640,note_on,,4,0,2,,,,,,,,,1,,,49,63
14640,note_on,,24,0,4,,,,,,,,,3,,,81,63
14640,note_on,,12,0,3,,,,,,,,,2,,,78,0
14640,note_on,,0,0,3,,,,,,,,,2,,,76,63
14640,note_on,,4,0,6,,,,,,,,,5,,,64,56
14640,note_on,,24,0,5,,,,,,,,,4,,,73,0
14650,note_on,,10,0,1,,,,,,,,,0,,,69,0
14652,note_on,,12,0,3,,,,,,,,,2,,,76,0
14652,note_on,,0,0,3,,,,,,,,,2,,,81,63
14652,note_on,,2,0,1,,,,,,,,,0,,,73,79
14660,note_on,,20,0,6,,,,,,,,,5,,,64,0
14660,note_on,,20,0,7,,,,,,,,,6,,,49,0
14660,note_on,,20,0,2,,,,,,,,,1,,,49,0
14662,note_on,,10,0,1,,,,,,,,,0,,,73,0
14664,note_on,,4,0,6,,,,,,,,,5,,,64,56
14664,note_on,,0,0,3,,,,,,,,,2,,,80,63
14664,note_on,,12,0,3,,,,,,,,,2,,,81,0
14664,note_on,,2,0,1,,,,,,,,,0,,,76,79
14664,note_on,,0,0,5,,,,,,,,,4,,,73,56
14664,note_on,,4,0,2,,,,,,,,,1,,,50,63
14664,note_on,,24,0,4,,,,,,,,,3,,,81,0
14664,note_on,,4,0,7,,,,,,,,,6,,,50,63
14664,note_on,,24,0,5,,,,,,,,,4,,,73,0
14674,note_on,,10,0,1,,,,,,,,,0,,,76,0
14676,note_on,,0,0,3,,,,,,,,,2,,,81,63
14676,note_on,,12,0,3,,,,,,,,,2,,,80,0
14676,note_on,,2,0,1,,,,,,,,,0,,,64,79
14684,note_on,,20,0,6,,,,,,,,,5,,,64,0
14684,note_on,,20,0,2,,,,,,,,,1,,,50,0
14684,note_on,,20,0,7,,,,,,,,,6,,,50,0
14686,note_on,,10,0,1,,,,,,,,,0,,,64,0
14688,note_on,,2,0,1,,,,,,,,,0,,,69,79
14688,note_on,,0,0,3,,,,,,,,,2,,,76,63
14688,note_on,,4,0,7,,,,,,,,,6,,,49,63
14688,note_on,,24,0,5,,,,,,,,,4,,,73,0
14688,note_on,,4,0,6,,,,,,,,,5,,,64,56
14688,note_on,,4,0,2,,,,,,,,,1,,,49,63
14688,note_on,,24,0,4,,,,,,,,,3,,,81,63
14688,note_on,,12,0,3,,,,,,,,,2,,,81,0
14688,note_on,,0,0,5,,,,,,,,,4,,,73,56
14698,note_on,,10,0,1,,,,,,,,,0,,,69,0
14700,note_on,,2,0,1,,,,,,,,,0,,,73,79
14708,note_on,,20,0,7,,,,,,,,,6,,,49,0
14708,note_on,,20,0,6,,,,,,,,,5,,,64,0
14708,note_on,,20,0,2,,,,,,,,,1,,,49,0
14710,note_on,,10,0,1,,,,,,,,,0,,,73,0
14712,note_on,,2,0,1,,,,,,,,,0,,,76,79
14712,note_on,,4,0,6,,,,,,,,,5,,,64,56
14712,note_on,,4,0,2,,,,,,,,,1,,,50,63
14712,note_on,,4,0,7,,,,,,,,,6,,,50,63
14712,note_on,,0,0,5,,,,,,,,,4,,,73,56
14712,note_on,,24,0,5,,,,,,,,,4,,,73,0
14712,note_on,,24,0,4,,,,,,,,,3,,,81,0
14722,note_on,,10,0,1,,,,,,,,,0,,,76,0
14724,note_on,,2,0,1,,,,,,,,,0,,,68,79
14724,note_on,,36,0,3,,,,,,,,,2,,,76,0
14724,note_on,,0,0,3,,,,,,,,,2,,,78,63
14732,note_on,,20,0,6,,,,,,,,,5,,,64,0
14732,note_on,,20,0,7,,,,,,,,,6,,,50,0
14732,note_on,,20,0,2,,,,,,,,,1,,,50,0
14734,note_on,,10,0,1,,,,,,,,,0,,,68,0
14736,note_on,,0,0,3,,,,,,,,,2,,,76,63
14736,note_on,,24,0,4,,,,,,,,,3,,,81,63
14736,note_on,,24,0,5,,,,,,,,,4,,,73,0
14736,note_on,,0,0,5,,,,,,,,,4,,,73,56
14736,note_on,,4,0,7,,,,,,,,,6,,,49,63
14736,note_on,,4,0,6,,,,,,,,,5,,,64,56
14736,note_on,,4,0,2,,,,,,,,,1,,,49,63
14736,note_on,,12,0,3,,,,,,,,,2,,,78,0
14736,note_on,,2,0,1,,,,,,,,,0,,,69,79
14746,note_on,,10,0,1,,,,,,,,,0,,,69,0
14748,note_on,,2,0,1,,,,,,,,,0,,,73,79
14748,note_on,,0,0,3,,,,,,,,,2,,,81,63
14748,note_on,,12,0,3,,,,,,,,,2,,,76,0
14756,note_on,,20,0,6,,,,,,,,,5,,,64,0
14756,note_on,,20,0,2,,,,,,,,,1,,,49,0
14756,note_on,,20,0,7,,,,,,,,,6,,,49,0
14758,note_on,,10,0,1,,,,,,,,,0,,,73,0
14760,note_on,,12,0,3,,,,,,,,,2,,,81,0
14760,note_on,,4,0,2,,,,,,,,,1,,,47,63
14760,note_on,,0,0,3,,,,,,,,,2,,,80,63
14760,note_on,,24,0,4,,,,,,,,,3,,,81,0
14760,note_on,,24,0,5,,,,,,,,,4,,,73,0
14760,note_on,,0,0,5,,,,,,,,,4,,,73,56
14760,note_on,,4,0,6,,,,,,,,,5,,,64,56
14760,note_on,,2,0,1,,,,,,,,,0,,,76,79
14760,note_on,,4,0,7,,,,,,,,,6,,,47,63
14770,note_on,,10,0,1,,,,,,,,,0,,,76,0
14772,note_on,,0,0,3,,,,,,,,,2,,,81,63
14772,note_on,,12,0,3,,,,,,,,,2,,,80,0
14772,note_on,,2,0,1,,,,,,,,,0,,,64,79
14780,note_on,,20,0,2,,,,,,,,,1,,,47,0
14780,note_on,,20,0,6,,,,,,,,,5,,,64,0
14780,note_on,,20,0,7,,,,,,,,,6,,,47,0
14782,note_on,,10,0,1,,,,,,,,,0,,,64,0
14784,note_on,,4,0,2,,,,,,,,,1,,,45,63
14784,note_on,,152,0,8,,,,,,,,,7,,,33,63
14784,note_on,,4,0,6,,,,,,,,,5,,,69,56
14784,note_on,,12,0,3,,,,,,,,,2,,,81,0
14784,note_on,,0,0,3,,,,,,,,,2,,,78,63
14784,note_on,,24,0,5,,,,,,,,,4,,,73,0
14784,note_on,,4,0,7,,,,,,,,,6,,,45,63
14784,note_on,,0,0,5,,,,,,,,,4,,,74,56
14784,note_on,,24,0,4,,,,,,,,,3,,,74,63
14784,note_on,,2,0,1,,,,,,,,,0,,,69,79
14794,note_on,,10,0,1,,,,,,,,,0,,,69,0
14796,note_on,,2,0,1,,,,,,,,,0,,,74,79
14804,note_on,,20,0,6,,,,,,,,,5,,,69,0
14804,note_on,,20,0,2,,,,,,,,,1,,,45,0
14804,note_on,,20,0,7,,,,,,,,,6,,,45,0
14806,note_on,,10,0,1,,,,,,,,,0,,,74,0
14808,note_on,,4,0,2,,,,,,,,,1,,,57,63
14808,note_on,,2,0,1,,,,,,,,,0,,,78,79
14808,note_on,,4,0,7,,,,,,,,,6,,,57,63
14808,note_on,,24,0,3,,,,,,,,,2,,,78,0
14808,note_on,,4,0,6,,,,,,,,,5,,,69,56
14808,note_on,,24,0,5,,,,,,,,,4,,,74,0
14808,note_on,,0,0,5,,,,,,,,,4,,,74,56
14818,note_on,,10,0,1,,,,,,,,,0,,,78,0
14820,note_on,,36,0,4,,,,,,,,,3,,,74,0
14820,note_on,,0,0,4,,,,,,,,,3,,,76,63
14820,note_on,,2,0,1,,,,,,,,,0,,,68,79
14824,note_on,,40,0,8,,,,,,,,,7,,,33,0
14828,note_on,,20,0,6,,,,,,,,,5,,,69,0
14828,note_on,,20,0,7,,,,,,,,,6,,,57,0
14828,note_on,,20,0,2,,,,,,,,,1,,,57,0
14830,note_on,,10,0,1,,,,,,,,,0,,,68,0
14832,note_on,,0,0,5,,,,,,,,,4,,,74,56
14832,note_on,,24,0,5,,,,,,,,,4,,,74,0
14832,note_on,,24,0,3,,,,,,,,,2,,,78,63
14832,note_on,,4,0,6,,,,,,,,,5,,,69,56
14832,note_on,,12,0,4,,,,,,,,,3,,,76,0
14832,note_on,,4,0,7,,,,,,,,,6,,,54,63
14832,note_on,,0,0,4,,,,,,,,,3,,,74,63
14832,note_on,,2,0,1,,,,,,,,,0,,,69,79
14832,note_on,,4,0,2,,,,,,,,,1,,,54,63
14842,note_on,,10,0,1,,,,,,,,,0,,,69,0
14844,note_on,,2,0,1,,,,,,,,,0,,,74,79
14844,note_on,,0,0,4,,,,,,,,,3,,,78,63
14844,note_on,,12,0,4,,,,,,,,,3,,,74,0
14852,note_on,,20,0,7,,,,,,,,,6,,,54,0
14852,note_on,,20,0,2,,,,,,,,,1,,,54,0
14852,note_on,,20,0,6,,,,,,,,,5,,,69,0
14854,note_on,,10,0,1,,,,,,,,,0,,,74,0
14856,note_on,,4,0,7,,,,,,,,,6,,,50,63
14856,note_on,,0,0,5,,,,,,,,,4,,,74,56
14856,note_on,,24,0,5,,,,,,,,,4,,,74,0
14856,note_on,,12,0,4,,,,,,,,,3,,,78,0
14856,note_on,,0,0,4,,,,,,,,,3,,,76,63
14856,note_on,,2,0,1,,,,,,,,,0,,,78,79
14856,note_on,,24,0,3,,,,,,,,,2,,,78,0
14856,note_on,,4,0,2,,,,,,,,,1,,,50,63
14856,note_on,,4,0,6,,,,,,,,,5,,,69,56
14866,note_on,,10,0,1,,,,,,,,,0,,,78,0
14868,note_on,,12,0,4,,,,,,,,,3,,,76,0
14868,note_on,,0,0,4,,,,,,,,,3,,,78,63
14868,note_on,,2,0,1,,,,,,,,,0,,,66,79
14876,note_on,,20,0,6,,,,,,,,,5,,,69,0
14876,note_on,,20,0,7,,,,,,,,,6,,,50,0
14876,note_on,,20,0,2,,,,,,,,,1,,,50,0
14878,note_on,,10,0,1,,,,,,,,,0,,,66,0
14880,note_on,,4,0,2,,,,,,,,,1,,,45,63
14880,note_on,,4,0,6,,,,,,,,,5,,,69,56
14880,note_on,,4,0,7,,,,,,,,,6,,,45,63
14880,note_on,,24,0,3,,,,,,,,,2,,,78,63
14880,note_on,,2,0,1,,,,,,,,,0,,,69,79
14880,note_on,,24,0,5,,,,,,,,,4,,,74,0
14880,note_on,,0,0,5,,,,,,,,,4,,,74,56
14880,note_on,,0,0,4,,,,,,,,,3,,,74,63
14880,note_on,,12,0,4,,,,,,,,,3,,,78,0
14890,note_on,,10,0,1,,,,,,,,,0,,,69,0
14892,note_on,,2,0,1,,,,,,,,,0,,,74,79
14900,note_on,,20,0,7,,,,,,,,,6,,,45,0
14900,note_on,,20,0,6,,,,,,,,,5,,,69,0
14900,note_on,,20,0,2,,,,,,,,,1,,,45,0
14902,note_on,,10,0,1,,,,,,,,,0,,,74,0
14904,note_on,,4,0,7,,,,,,,,,6,,,57,63
14904,note_on,,4,0,2,,,,,,,,,1,,,57,63
14904,note_on,,4,0,6,,,,,,,,,5,,,69,56
14904,note_on,,2,0,1,,,,,,,,,0,,,78,79
14904,note_on,,24,0,3,,,,,,,,,2,,,78,0
14904,note_on,,24,0,5,,,,,,,,,4,,,74,0
14904,note_on,,0,0,5,,,,,,,,,4,,,74,56
14914,note_on,,10,0,1,,,,,,,,,0,,,78,0
14916,note_on,,36,0,4,,,,,,,,,3,,,74,0
14916,note_on,,0,0,4,,,,,,,,,3,,,76,63
14916,note_on,,2,0,1,,,,,,,,,0,,,68,79
14924,note_on,,20,0,7,,,,,,,,,6,,,57,0
14924,note_on,,20,0,2,,,,,,,,,1,,,57,0
14924,note_on,,20,0,6,,,,,,,,,5,,,69,0
14926,note_on,,10,0,1,,,,,,,,,0,,,68,0
14928,note_on,,2,0,1,,,,,,,,,0,,,69,79
14928,note_on,,4,0,6,,,,,,,,,5,,,69,56
14928,note_on,,24,0,3,,,,,,,,,2,,,78,63
14928,note_on,,4,0,2,,,,,,,,,1,,,54,63
14928,note_on,,4,0,7,,,,,,,,,6,,,54,63
14928,note_on,,24,0,5,,,,,,,,,4,,,74,0
14928,note_on,,0,0,4,,,,,,,,,3,,,74,63
14928,note_on,,0,0,5,,,,,,,,,4,,,74,56
14928,note_on,,12,0,4,,,,,,,,,3,,,76,0
14938,note_on,,10,0,1,,,,,,,,,0,,,69,0
14940,note_on,,2,0,1,,,,,,,,,0,,,74,79
14940,note_on,,0,0,4,,,,,,,,,3,,,78,63
14940,note_on,,12,0,4,,,,,,,,,3,,,74,0
14948,note_on,,20,0,2,,,,,,,,,1,,,54,0
14948,note_on,,20,0,6,,,,,,,,,5,,,69,0
14948,note_on,,20,0,7,,,,,,,,,6,,,54,0
14950,note_on,,10,0,1,,,,,,,,,0,,,74,0
14952,note_on,,4,0,2,,,,,,,,,1,,,50,63
14952,note_on,,2,0,1,,,,,,,,,0,,,78,79
14952,note_on,,4,0,6,,,,,,,,,5,,,69,56
14952,note_on,,24,0,5,,,,,,,,,4,,,74,0
14952,note_on,,4,0,7,,,,,,,,,6,,,50,63
14952,note_on,,0,0,5,,,,,,,,,4,,,74,56
14952,note_on,,0,0,4,,,,,,,,,3,,,76,63
14952,note_on,,12,0,4,,,,,,,,,3,,,78,0
14952,note_on,,24,0,3,,,,,,,,,2,,,78,0
14962,note_on,,10,0,1,,,,,,,,,0,,,78,0
14964,note_on,,0,0,4,,,,,,,,,3,,,78,63
14964,note_on,,2,0,1,,,,,,,,,0,,,66,79
14964,note_on,,12,0,4,,,,,,,,,3,,,76,0
14972,note_on,,20,0,2,,,,,,,,,1,,,50,0
14972,note_on,,20,0,7,,,,,,,,,6,,,50,0
14972,note_on,,20,0,6,,,,,,,,,5,,,69,0
14974,note_on,,10,0,1,,,,,,,,,0,,,66,0
14976,note_on,,4,0,6,,,,,,,,,5,,,68,56
14976,note_on,,24,0,3,,,,,,,,,2,,,74,63
14976,note_on,,4,0,7,,,,,,,,,6,,,45,63
14976,note_on,,4,0,2,,,,,,,,,1,,,45,63
14976,note_on,,0,0,5,,,,,,,,,4,,,71,56
14976,note_on,,2,0,1,,,,,,,,,0,,,68,79
14976,note_on,,152,0,8,,,,,,,,,7,,,33,63
14976,note_on,,0,0,4,,,,,,,,,3,,,71,63
14976,note_on,,12,0,4,,,,,,,,,3,,,78,0
14976,note_on,,24,0,5,,,,,,,,,4,,,74,0
14986,note_on,,10,0,1,,,,,,,,,0,,,68,0
14988,note_on,,2,0,1,,,,,,,,,0,,,71,79
14996,note_on,,20,0,7,,,,,,,,,6,,,45,0
14996,note_on,,20,0,2,,,,,,,,,1,,,45,0
14996,note_on,,20,0,6,,,,,,,,,5,,,68,0
14998,note_on,,10,0,1,,,,,,,,,0,,,71,0
15000,note_on,,24,0,5,,,,,,,,,4,,,71,0
15000,note_on,,0,0,5,,,,,,,,,4,,,71,56
15000,note_on,,2,0,1,,,,,,,,,0,,,74,79
15000,note_on,,4,0,6,,,,,,,,,5,,,68,56
15000,note_on,,24,0,4,,,,,,,,,3,,,71,0
15000,note_on,,4,0,2,,,,,,,,,1,,,62,63
15000,note_on,,4,0,7,,,,,,,,,6,,,62,63
15010,note_on,,10,0,1,,,,,,,,,0,,,74,0
15012,note_on,,2,0,1,,,,,,,,,0,,,66,79
15012,note_on,,0,0,3,,,,,,,,,2,,,76,63
15012,note_on,,36,0,3,,,,,,,,,2,,,74,0
15016,note_on,,40,0,8,,,,,,,,,7,,,33,0
15020,note_on,,20,0,6,,,,,,,,,5,,,68,0
15020,note_on,,20,0,2,,,,,,,,,1,,,62,0
15020,note_on,,20,0,7,,,,,,,,,6,,,62,0
15022,note_on,,10,0,1,,,,,,,,,0,,,66,0
15024,note_on,,12,0,3,,,,,,,,,2,,,76,0
15024,note_on,,24,0,4,,,,,,,,,3,,,71,63
15024,note_on,,4,0,2,,,,,,,,,1,,,59,63
15024,note_on,,4,0,6,,,,,,,,,5,,,68,56
15024,note_on,,4,0,7,,,,,,,,,6,,,59,63
15024,note_on,,2,0,1,,,,,,,,,0,,,68,79
15024,note_on,,0,0,5,,,,,,,,,4,,,71,56
15024,note_on,,24,0,5,,,,,,,,,4,,,71,0
15024,note_on,,0,0,3,,,,,,,,,2,,,74,63
15034,note_on,,10,0,1,,,,,,,,,0,,,68,0
15036,note_on,,2,0,1,,,,,,,,,0,,,71,79
15036,note_on,,0,0,3,,,,,,,,,2,,,83,63
15036,note_on,,12,0,3,,,,,,,,,2,,,74,0
15044,note_on,,20,0,7,,,,,,,,,6,,,59,0
15044,note_on,,20,0,6,,,,,,,,,5,,,68,0
15044,note_on,,20,0,2,,,,,,,,,1,,,59,0
15046,note_on,,10,0,1,,,,,,,,,0,,,71,0
15048,note_on,,12,0,3,,,,,,,,,2,,,83,0
15048,note_on,,24,0,4,,,,,,,,,3,,,71,0
15048,note_on,,4,0,7,,,,,,,,,6,,,56,63
15048,note_on,,0,0,3,,,,,,,,,2,,,81,63
15048,note_on,,0,0,5,,,,,,,,,4,,,71,56
15048,note_on,,4,0,6,,,,,,,,,5,,,68,56
15048,note_on,,2,0,1,,,,,,,,,0,,,74,79
15048,note_on,,4,0,2,,,,,,,,,1,,,56,63
15048,note_on,,24,0,5,,,,,,,,,4,,,71,0
15058,note_on,,10,0,1,,,,,,,,,0,,,74,0
15060,note_on,,2,0,1,,,,,,,,,0,,,64,79
15060,note_on,,0,0,3,,,,,,,,,2,,,83,63
15060,note_on,,12,0,3,,,,,,,,,2,,,81,0
15068,note_on,,20,0,7,,,,,,,,,6,,,56,0
15068,note_on,,20,0,2,,,,,,,,,1,,,56,0
15068,note_on,,20,0,6,,,,,,,,,5,,,68,0
15070,note_on,,10,0,1,,,,,,,,,0,,,64,0
15072,note_on,,0,0,3,,,,,,,,,2,,,74,63
15072,note_on,,24,0,4,,,,,,,,,3,,,71,63
15072,note_on,,4,0,7,,,,,,,,,6,,,52,63
15072,note_on,,4,0,6,,,,,,,,,5,,,68,56
15072,note_on,,4,0,2,,,,,,,,,1,,,52,63
15072,note_on,,12,0,3,,,,,,,,,2,,,83,0
15072,note_on,,0,0,5,,,,,,,,,4,,,71,56
15072,note_on,,2,0,1,,,,,,,,,0,,,68,79
15072,note_on,,24,0,5,,,,,,,,,4,,,71,0
15082,note_on,,10,0,1,,,,,,,,,0,,,68,0
15084,note_on,,2,0,1,,,,,,,,,0,,,71,79
15092,note_on,,20,0,7,,,,,,,,,6,,,52,0
15092,note_on,,20,0,2,,,,,,,,,1,,,52,0
15092,note_on,,20,0,6,,,,,,,,,5,,,68,0
15094,note_on,,10,0,1,,,,,,,,,0,,,71,0
15096,note_on,,24,0,5,,,,,,,,,4,,,71,0
15096,note_on,,4,0,6,,,,,,,,,5,,,68,56
15096,note_on,,0,0,5,,,,,,,,,4,,,71,56
15096,note_on,,4,0,7,,,,,,,,,6,,,59,63
15096,note_on,,24,0,4,,,,,,,,,3,,,71,0
15096,note_on,,4,0,2,,,,,,,,,1,,,59,63
15096,note_on,,2,0,1,,,,,,,,,0,,,74,79
15106,note_on,,10,0,1,,,,,,,,,0,,,74,0
15108,note_on,,2,0,1,,,,,,,,,0,,,66,79
15108,note_on,,0,0,3,,,,,,,,,2,,,76,63
15108,note_on,,36,0,3,,,,,,,,,2,,,74,0
15116,note_on,,20,0,7,,,,,,,,,6,,,59,0
15116,note_on,,20,0,6,,,,,,,,,5,,,68,0
15116,note_on,,20,0,2,,,,,,,,,1,,,59,0
15118,note_on,,10,0,1,,,,,,,,,0,,,66,0
15120,note_on,,4,0,6,,,,,,,,,5,,,68,56
15120,note_on,,0,0,5,,,,,,,,,4,,,71,56
15120,note_on,,24,0,4,,,,,,,,,3,,,71,63
15120,note_on,,24,0,5,,,,,,,,,4,,,71,0
15120,note_on,,4,0,7,,,,,,,,,6,,,56,63
15120,note_on,,0,0,3,,,,,,,,,2,,,74,63
15120,note_on,,2,0,1,,,,,,,,,0,,,68,79
15120,note_on,,4,0,2,,,,,,,,,1,,,56,63
15120,note_on,,12,0,3,,,,,,,,,2,,,76,0
15130,note_on,,10,0,1,,,,,,,,,0,,,68,0
15132,note_on,,12,0,3,,,,,,,,,2,,,74,0
15132,note_on,,2,0,1,,,,,,,,,0,,,71,79
15132,note_on,,0,0,3,,,,,,,,,2,,,83,63
15140,note_on,,20,0,2,,,,,,,,,1,,,56,0
15140,note_on,,20,0,6,,,,,,,,,5,,,68,0
15140,note_on,,20,0,7,,,,,,,,,6,,,56,0
15142,note_on,,10,0,1,,,,,,,,,0,,,71,0
15144,note_on,,0,0,3,,,,,,,,,2,,,81,63
15144,note_on,,4,0,6,,,,,,,,,5,,,68,56
15144,note_on,,24,0,5,,,,,,,,,4,,,71,0
15144,note_on,,0,0,5,,,,,,,,,4,,,71,56
15144,note_on,,24,0,4,,,,,,,,,3,,,71,0
15144,note_on,,4,0,7,,,,,,,,,6,,,52,63
15144,note_on,,2,0,1,,,,,,,,,0,,,74,79
15144,note_on,,4,0,2,,,,,,,,,1,,,52,63
15144,note_on,,12,0,3,,,,,,,,,2,,,83,0
15154,note_on,,10,0,1,,,,,,,,,0,,,74,0
15156,note_on,,12,0,3,,,,,,,,,2,,,81,0
15156,note_on,,0,0,3,,,,,,,,,2,,,83,63
15156,note_on,,2,0,1,,,,,,,,,0,,,64,79
15164,note_on,,20,0,6,,,,,,,,,5,,,68,0
15164,note_on,,20,0,2,,,,,,,,,1,,,52,0
15164,note_on,,20,0,7,,,,,,,,,6,,,52,0
15166,note_on,,10,0,1,,,,,,,,,0,,,64,0
15168,note_on,,0,0,3,,,,,,,,,2,,,73,63
15168,note_on,,4,0,6,,,,,,,,,5,,,64,56
15168,note_on,,24,0,4,,,,,,,,,3,,,76,63
15168,note_on,,2,0,1,,,,,,,,,0,,,69,79
15168,note_on,,4,0,2,,,,,,,,,1,,,45,63
15168,note_on,,4,0,7,,,,,,,,,6,,,45,63
15168,note_on,,152,0,8,,,,,,,,,7,,,33,63
15168,note_on,,12,0,3,,,,,,,,,2,,,83,0
15168,note_on,,24,0,5,,,,,,,,,4,,,71,0
15168,note_on,,0,0,5,,,,,,,,,4,,,69,56
15178,note_on,,10,0,1,,,,,,,,,0,,,69,0
15180,note_on,,2,0,1,,,,,,,,,0,,,71,79
15188,note_on,,20,0,6,,,,,,,,,5,,,64,0
15190,note_on,,10,0,1,,,,,,,,,0,,,71,0
15192,note_on,,24,0,5,,,,,,,,,4,,,69,0
15192,note_on,,24,0,3,,,,,,,,,2,,,73,0
15192,note_on,,4,0,6,,,,,,,,,5,,,64,56
15192,note_on,,0,0,5,,,,,,,,,4,,,69,56
15192,note_on,,2,0,1,,,,,,,,,0,,,73,79
15202,note_on,,10,0,1,,,,,,,,,0,,,73,0
15204,note_on,,0,0,4,,,,,,,,,3,,,78,63
15204,note_on,,2,0,1,,,,,,,,,0,,,68,79
15204,note_on,,36,0,4,,,,,,,,,3,,,76,0
15208,note_on,,40,0,8,,,,,,,,,7,,,33,0
15208,note_on,,40,0,7,,,,,,,,,6,,,45,0
15208,note_on,,40,0,2,,,,,,,,,1,,,45,0
15212,note_on,,20,0,6,,,,,,,,,5,,,64,0
15214,note_on,,10,0,1,,,,,,,,,0,,,68,0
15216,note_on,,4,0,6,,,,,,,,,5,,,64,56
15216,note_on,,12,0,4,,,,,,,,,3,,,78,0
15216,note_on,,24,0,3,,,,,,,,,2,,,73,63
15216,note_on,,0,0,5,,,,,,,,,4,,,69,56
15216,note_on,,24,0,5,,,,,,,,,4,,,69,0
15216,note_on,,2,0,1,,,,,,,,,0,,,69,79
15216,note_on,,0,0,4,,,,,,,,,3,,,76,63
15226,note_on,,10,0,1,,,,,,,,,0,,,69,0
15228,note_on,,12,0,4,,,,,,,,,3,,,76,0
15228,note_on,,0,0,4,,,,,,,,,3,,,81,63
15228,note_on,,2,0,1,,,,,,,,,0,,,71,79
15236,note_on,,20,0,6,,,,,,,,,5,,,64,0
15238,note_on,,10,0,1,,,,,,,,,0,,,71,0
15240,note_on,,12,0,4,,,,,,,,,3,,,81,0
15240,note_on,,4,0,6,,,,,,,,,5,,,64,56
15240,note_on,,2,0,1,,,,,,,,,0,,,73,79
15240,note_on,,24,0,5,,,,,,,,,4,,,69,0
15240,note_on,,0,0,5,,,,,,,,,4,,,69,56
15240,note_on,,24,0,3,,,,,,,,,2,,,73,0
15240,note_on,,0,0,4,,,,,,,,,3,,,80,63
15250,note_on,,10,0,1,,,,,,,,,0,,,73,0
15252,note_on,,2,0,1,,,,,,,,,0,,,64,79
15252,note_on,,0,0,4,,,,,,,,,3,,,81,63
15252,note_on,,12,0,4,,,,,,,,,3,,,80,0
15260,note_on,,20,0,6,,,,,,,,,5,,,64,0
15262,note_on,,10,0,1,,,,,,,,,0,,,64,0
15264,note_on,,4,0,6,,,,,,,,,5,,,64,56
15264,note_on,,0,0,5,,,,,,,,,4,,,69,56
15264,note_on,,0,0,4,,,,,,,,,3,,,76,63
15264,note_on,,12,0,4,,,,,,,,,3,,,81,0
15264,note_on,,2,0,1,,,,,,,,,0,,,69,79
15264,note_on,,24,0,5,,,,,,,,,4,,,69,0
15264,note_on,,24,0,3,,,,,,,,,2,,,73,63
15274,note_on,,10,0,1,,,,,,,,,0,,,69,0
15276,note_on,,2,0,1,,,,,,,,,0,,,71,79
15284,note_on,,20,0,6,,,,,,,,,5,,,64,0
15286,note_on,,10,0,1,,,,,,,,,0,,,71,0
15288,note_on,,2,0,1,,,,,,,,,0,,,73,79
15288,note_on,,4,0,6,,,,,,,,,5,,,64,56
15288,note_on,,0,0,5,,,,,,,,,4,,,69,56
15288,note_on,,24,0,3,,,,,,,,,2,,,73,0
15288,note_on,,24,0,5,,,,,,,,,4,,,69,0
15298,note_on,,10,0,1,,,,,,,,,0,,,73,0
15300,note_on,,2,0,1,,,,,,,,,0,,,68,79
15300,note_on,,0,0,4,,,,,,,,,3,,,78,63
15300,note_on,,36,0,4,,,,,,,,,3,,,76,0
15308,note_on,,20,0,6,,,,,,,,,5,,,64,0
15310,note_on,,10,0,1,,,,,,,,,0,,,68,0
15312,note_on,,0,0,4,,,,,,,,,3,,,76,63
15312,note_on,,12,0,4,,,,,,,,,3,,,78,0
15312,note_on,,24,0,3,,,,,,,,,2,,,73,63
15312,note_on,,0,0,5,,,,,,,,,4,,,69,56
15312,note_on,,24,0,5,,,,,,,,,4,,,69,0
15312,note_on,,4,0,6,,,,,,,,,5,,,64,56
15312,note_on,,2,0,1,,,,,,,,,0,,,69,79
15322,note_on,,10,0,1,,,,,,,,,0,,,69,0
15324,note_on,,0,0,4,,,,,,,,,3,,,81,63
15324,note_on,,12,0,4,,,,,,,,,3,,,76,0
15324,note_on,,2,0,1,,,,,,,,,0,,,71,79
15332,note_on,,20,0,6,,,,,,,,,5,,,64,0
15334,note_on,,10,0,1,,,,,,,,,0,,,71,0
15336,note_on,,0,0,4,,,,,,,,,3,,,80,63
15336,note_on,,24,0,5,,,,,,,,,4,,,69,0
15336,note_on,,0,0,5,,,,,,,,,4,,,69,56
15336,note_on,,4,0,6,,,,,,,,,5,,,64,56
15336,note_on,,2,0,1,,,,,,,,,0,,,73,79
15336,note_on,,24,0,3,,,,,,,,,2,,,73,0
15336,note_on,,12,0,4,,,,,,,,,3,,,81,0
15346,note_on,,10,0,1,,,,,,,,,0,,,73,0
15348,note_on,,2,0,1,,,,,,,,,0,,,64,79
15348,note_on,,12,0,4,,,,,,,,,3,,,80,0
15348,note_on,,0,0,4,,,,,,,,,3,,,81,63
15356,note_on,,20,0,6,,,,,,,,,5,,,64,0
15358,note_on,,10,0,1,,,,,,,,,0,,,64,0
15360,note_on,,4,0,6,,,,,,,,,5,,,69,56
15360,note_on,,0,0,5,,,,,,,,,4,,,73,56
15360,note_on,,2,0,1,,,,,,,,,0,,,69,79
15360,note_on,,152,0,8,,,,,,,,,7,,,45,63
15360,note_on,,152,0,2,,,,,,,,,1,,,57,63
15360,note_on,,24,0,5,,,,,,,,,4,,,69,0
15360,note_on,,152,0,7,,,,,,,,,6,,,57,63
15360,note_on,,12,0,4,,,,,,,,,3,,,81,0
15360,note_on,,0,0,4,,,,,,,,,3,,,73,63
15370,note_on,,10,0,1,,,,,,,,,0,,,69,0
15372,note_on,,2,0,1,,,,,,,,,0,,,73,79
15380,note_on,,20,0,7,,,,,,,,,6,,,57,0
15380,note_on,,20,0,2,,,,,,,,,1,,,57,0
15382,note_on,,10,0,1,,,,,,,,,0,,,73,0
15384,note_on,,4,0,7,,,,,,,,,6,,,61,63
15384,note_on,,4,0,2,,,,,,,,,1,,,61,63
15384,note_on,,2,0,1,,,,,,,,,0,,,78,79
15384,note_on,,48,0,3,,,,,,,,,2,,,73,63
15384,note_on,,24,0,4,,,,,,,,,3,,,73,0
15384,note_on,,0,0,4,,,,,,,,,3,,,69,63
15394,note_on,,10,0,1,,,,,,,,,0,,,78,0
15396,note_on,,2,0,1,,,,,,,,,0,,,68,79
15400,note_on,,40,0,8,,,,,,,,,7,,,45,0
15400,note_on,,40,0,6,,,,,,,,,5,,,69,0
15404,note_on,,20,0,7,,,,,,,,,6,,,61,0
15404,note_on,,20,0,2,,,,,,,,,1,,,61,0
15406,note_on,,10,0,1,,,,,,,,,0,,,68,0
15408,note_on,,4,0,2,,,,,,,,,1,,,66,63
15408,note_on,,2,0,1,,,,,,,,,0,,,69,79
15408,note_on,,0,0,3,,,,,,,,,2,,,69,63
15408,note_on,,24,0,3,,,,,,,,,2,,,73,0
15408,note_on,,24,0,4,,,,,,,,,3,,,69,0
15408,note_on,,4,0,7,,,,,,,,,6,,,66,63
15408,note_on,,48,0,5,,,,,,,,,4,,,73,0
15418,note_on,,10,0,1,,,,,,,,,0,,,69,0
15420,note_on,,2,0,1,,,,,,,,,0,,,73,79
15428,note_on,,20,0,2,,,,,,,,,1,,,66,0
15428,note_on,,20,0,7,,,,,,,,,6,,,66,0
15430,note_on,,10,0,1,,,,,,,,,0,,,73,0
15432,note_on,,4,0,2,,,,,,,,,1,,,61,63
15432,note_on,,24,0,4,,,,,,,,,3,,,81,63
15432,note_on,,0,0,3,,,,,,,,,2,,,66,63
15432,note_on,,2,0,1,,,,,,,,,0,,,78,79
15432,note_on,,24,0,3,,,,,,,,,2,,,69,0
15432,note_on,,4,0,7,,,,,,,,,6,,,61,63
15442,note_on,,10,0,1,,,,,,,,,0,,,78,0
15444,note_on,,2,0,1,,,,,,,,,0,,,66,79
15452,note_on,,20,0,7,,,,,,,,,6,,,61,0
15452,note_on,,20,0,2,,,,,,,,,1,,,61,0
15454,note_on,,10,0,1,,,,,,,,,0,,,66,0
15456,note_on,,0,0,4,,,,,,,,,3,,,78,63
15456,note_on,,24,0,3,,,,,,,,,2,,,66,0
15456,note_on,,4,0,2,,,,,,,,,1,,,57,63
15456,note_on,,2,0,1,,,,,,,,,0,,,69,79
15456,note_on,,24,0,4,,,,,,,,,3,,,81,0
15456,note_on,,4,0,7,,,,,,,,,6,,,57,63
15466,note_on,,10,0,1,,,,,,,,,0,,,69,0
15468,note_on,,2,0,1,,,,,,,,,0,,,73,79
15476,note_on,,20,0,7,,,,,,,,,6,,,57,0
15476,note_on,,20,0,2,,,,,,,,,1,,,57,0
15478,note_on,,10,0,1,,,,,,,,,0,,,73,0
15480,note_on,,2,0,1,,,,,,,,,0,,,78,79
15480,note_on,,4,0,2,,,,,,,,,1,,,54,63
15480,note_on,,0,0,4,,,,,,,,,3,,,75,63
15480,note_on,,24,0,4,,,,,,,,,3,,,78,0
15480,note_on,,4,0,7,,,,,,,,,6,,,54,63
15480,note_on,,24,0,3,,,,,,,,,2,,,81,63
15490,note_on,,10,0,1,,,,,,,,,0,,,78,0
15492,note_on,,2,0,1,,,,,,,,,0,,,68,79
15500,note_on,,20,0,7,,,,,,,,,6,,,54,0
15500,note_on,,20,0,2,,,,,,,,,1,,,54,0
15502,note_on,,10,0,1,,,,,,,,,0,,,68,0
15504,note_on,,24,0,3,,,,,,,,,2,,,81,0
15504,note_on,,4,0,7,,,,,,,,,6,,,51,63
15504,note_on,,4,0,2,,,,,,,,,1,,,51,63
15504,note_on,,2,0,1,,,,,,,,,0,,,69,79
15504,note_on,,24,0,4,,,,,,,,,3,,,75,0
15504,note_on,,0,0,3,,,,,,,,,2,,,78,63
15514,note_on,,10,0,1,,,,,,,,,0,,,69,0
15516,note_on,,2,0,1,,,,,,,,,0,,,73,79
15524,note_on,,20,0,2,,,,,,,,,1,,,51,0
15524,note_on,,20,0,7,,,,,,,,,6,,,51,0
15526,note_on,,10,0,1,,,,,,,,,0,,,73,0
15528,note_on,,24,0,3,,,,,,,,,2,,,78,0
15528,note_on,,0,0,3,,,,,,,,,2,,,75,63
15528,note_on,,4,0,2,,,,,,,,,1,,,54,63
15528,note_on,,4,0,7,,,,,,,,,6,,,54,63
15528,note_on,,24,0,4,,,,,,,,,3,,,78,63
15528,note_on,,2,0,1,,,,,,,,,0,,,78,79
15538,note_on,,10,0,1,,,,,,,,,0,,,78,0
15540,note_on,,2,0,1,,,,,,,,,0,,,66,79
15548,note_on,,20,0,7,,,,,,,,,6,,,54,0
15548,note_on,,20,0,2,,,,,,,,,1,,,54,0
15550,note_on,,10,0,1,,,,,,,,,0,,,66,0
15552,note_on,,24,0,4,,,,,,,,,3,,,78,0
15552,note_on,,0,0,4,,,,,,,,,3,,,75,63
15552,note_on,,144,0,5,,,,,,,,,4,,,71,56
15552,note_on,,24,0,3,,,,,,,,,2,,,75,0
15552,note_on,,4,0,2,,,,,,,,,1,,,44,63
15552,note_on,,4,0,7,,,,,,,,,6,,,44,63
15552,note_on,,152,0,6,,,,,,,,,5,,,68,56
15552,note_on,,2,0,1,,,,,,,,,0,,,71,79
15552,note_on,,152,0,8,,,,,,,,,7,,,44,63
15562,note_on,,10,0,1,,,,,,,,,0,,,71,0
15564,note_on,,2,0,1,,,,,,,,,0,,,75,79
15572,note_on,,20,0,6,,,,,,,,,5,,,68,0
15574,note_on,,10,0,1,,,,,,,,,0,,,75,0
15576,note_on,,4,0,6,,,,,,,,,5,,,68,56
15576,note_on,,0,0,5,,,,,,,,,4,,,71,56
15576,note_on,,24,0,5,,,,,,,,,4,,,71,0
15576,note_on,,24,0,4,,,,,,,,,3,,,75,0
15576,note_on,,0,0,4,,,,,,,,,3,,,71,63
15576,note_on,,2,0,1,,,,,,,,,0,,,78,79
15576,note_on,,24,0,3,,,,,,,,,2,,,78,63
15586,note_on,,10,0,1,,,,,,,,,0,,,78,0
15588,note_on,,2,0,1,,,,,,,,,0,,,69,79
15592,note_on,,40,0,8,,,,,,,,,7,,,44,0
15592,note_on,,40,0,7,,,,,,,,,6,,,44,0
15592,note_on,,40,0,2,,,,,,,,,1,,,44,0
15596,note_on,,20,0,6,,,,,,,,,5,,,68,0
15598,note_on,,10,0,1,,,,,,,,,0,,,69,0
15600,note_on,,0,0,5,,,,,,,,,4,,,71,56
15600,note_on,,24,0,5,,,,,,,,,4,,,71,0
15600,note_on,,24,0,4,,,,,,,,,3,,,71,0
15600,note_on,,24,0,3,,,,,,,,,2,,,78,0
15600,note_on,,0,0,3,,,,,,,,,2,,,75,63
15600,note_on,,2,0,1,,,,,,,,,0,,,71,79
15600,note_on,,4,0,6,,,,,,,,,5,,,68,56
15610,note_on,,10,0,1,,,,,,,,,0,,,71,0
15612,note_on,,2,0,1,,,,,,,,,0,,,75,79
15620,note_on,,20,0,6,,,,,,,,,5,,,68,0
15622,note_on,,10,0,1,,,,,,,,,0,,,75,0
15624,note_on,,2,0,1,,,,,,,,,0,,,78,79
15624,note_on,,24,0,4,,,,,,,,,3,,,75,63
15624,note_on,,4,0,6,,,,,,,,,5,,,68,56
15624,note_on,,0,0,3,,,,,,,,,2,,,71,63
15624,note_on,,0,0,5,,,,,,,,,4,,,71,56
15624,note_on,,24,0,5,,,,,,,,,4,,,71,0
15624,note_on,,24,0,3,,,,,,,,,2,,,75,0
15634,note_on,,10,0,1,,,,,,,,,0,,,78,0
15636,note_on,,2,0,1,,,,,,,,,0,,,68,79
15644,note_on,,20,0,6,,,,,,,,,5,,,68,0
15646,note_on,,10,0,1,,,,,,,,,0,,,68,0
15648,note_on,,2,0,1,,,,,,,,,0,,,71,79
15648,note_on,,24,0,3,,,,,,,,,2,,,71,0
15648,note_on,,4,0,6,,,,,,,,,5,,,68,56
15648,note_on,,24,0,5,,,,,,,,,4,,,71,0
15648,note_on,,0,0,4,,,,,,,,,3,,,71,63
15648,note_on,,0,0,5,,,,,,,,,4,,,71,56
15648,note_on,,24,0,4,,,,,,,,,3,,,75,0
15658,note_on,,10,0,1,,,,,,,,,0,,,71,0
15660,note_on,,2,0,1,,,,,,,,,0,,,75,79
15668,note_on,,20,0,6,,,,,,,,,5,,,68,0
15670,note_on,,10,0,1,,,,,,,,,0,,,75,0
15672,note_on,,4,0,6,,,,,,,,,5,,,68,56
15672,note_on,,24,0,5,,,,,,,,,4,,,71,0
15672,note_on,,2,0,1,,,,,,,,,0,,,78,79
15672,note_on,,0,0,5,,,,,,,,,4,,,71,56
15672,note_on,,24,0,4,,,,,,,,,3,,,71,0
15672,note_on,,0,0,4,,,,,,,,,3,,,68,63
15672,note_on,,24,0,3,,,,,,,,,2,,,75,63
15682,note_on,,10,0,1,,,,,,,,,0,,,78,0
15684,note_on,,2,0,1,,,,,,,,,0,,,69,79
15692,note_on,,20,0,6,,,,,,,,,5,,,68,0
15694,note_on,,10,0,1,,,,,,,,,0,,,69,0
15696,note_on,,2,0,1,,,,,,,,,0,,,71,79
15696,note_on,,4,0,6,,,,,,,,,5,,,68,56
15696,note_on,,24,0,4,,,,,,,,,3,,,68,0
15696,note_on,,0,0,5,,,,,,,,,4,,,71,56
15696,note_on,,24,0,3,,,,,,,,,2,,,75,0
15696,note_on,,0,0,3,,,,,,,,,2,,,71,63
15696,note_on,,24,0,5,,,,,,,,,4,,,71,0
15706,note_on,,10,0,1,,,,,,,,,0,,,71,0
15708,note_on,,2,0,1,,,,,,,,,0,,,75,79
15716,note_on,,20,0,6,,,,,,,,,5,,,68,0
15718,note_on,,10,0,1,,,,,,,,,0,,,75,0
15720,note_on,,24,0,3,,,,,,,,,2,,,71,0
15720,note_on,,0,0,5,,,,,,,,,4,,,71,56
15720,note_on,,24,0,5,,,,,,,,,4,,,71,0
15720,note_on,,4,0,6,,,,,,,,,5,,,68,56
15720,note_on,,24,0,4,,,,,,,,,3,,,71,63
15720,note_on,,0,0,3,,,,,,,,,2,,,68,63
15720,note_on,,2,0,1,,,,,,,,,0,,,78,79
15730,note_on,,10,0,1,,,,,,,,,0,,,78,0
15732,note_on,,2,0,1,,,,,,,,,0,,,68,79
15740,note_on,,20,0,6,,,,,,,,,5,,,68,0
15742,note_on,,10,0,1,,,,,,,,,0,,,68,0
15744,note_on,,152,0,8,,,,,,,,,7,,,44,63
15744,note_on,,0,0,5,,,,,,,,,4,,,71,56
15744,note_on,,24,0,5,,,,,,,,,4,,,71,0
15744,note_on,,2,0,1,,,,,,,,,0,,,68,79
15744,note_on,,152,0,7,,,,,,,,,6,,,56,63
15744,note_on,,152,0,2,,,,,,,,,1,,,56,63
15744,note_on,,0,0,4,,,,,,,,,3,,,68,63
15744,note_on,,24,0,4,,,,,,,,,3,,,71,0
15744,note_on,,24,0,3,,,,,,,,,2,,,68,0
15744,note_on,,4,0,6,,,,,,,,,5,,,68,56
15754,note_on,,10,0,1,,,,,,,,,0,,,68,0
15756,note_on,,2,0,1,,,,,,,,,0,,,71,79
15764,note_on,,20,0,7,,,,,,,,,6,,,56,0
15764,note_on,,20,0,2,,,,,,,,,1,,,56,0
15766,note_on,,10,0,1,,,,,,,,,0,,,71,0
15768,note_on,,4,0,2,,,,,,,,,1,,,59,63
15768,note_on,,2,0,1,,,,,,,,,0,,,76,79
15768,note_on,,0,0,4,,,,,,,,,3,,,64,63
15768,note_on,,4,0,7,,,,,,,,,6,,,59,63
15768,note_on,,24,0,3,,,,,,,,,2,,,71,63
15768,note_on,,24,0,4,,,,,,,,,3,,,68,0
15778,note_on,,10,0,1,,,,,,,,,0,,,76,0
15780,note_on,,2,0,1,,,,,,,,,0,,,66,79
15784,note_on,,40,0,6,,,,,,,,,5,,,68,0
15784,note_on,,40,0,8,,,,,,,,,7,,,44,0
15788,note_on,,20,0,2,,,,,,,,,1,,,59,0
15788,note_on,,20,0,7,,,,,,,,,6,,,59,0
15790,note_on,,10,0,1,,,,,,,,,0,,,66,0
15792,note_on,,4,0,2,,,,,,,,,1,,,64,63
15792,note_on,,48,0,5,,,,,,,,,4,,,71,0
15792,note_on,,24,0,3,,,,,,,,,2,,,71,0
15792,note_on,,0,0,3,,,,,,,,,2,,,68,63
15792,note_on,,24,0,4,,,,,,,,,3,,,64,0
15792,note_on,,2,0,1,,,,,,,,,0,,,68,79
15792,note_on,,4,0,7,,,,,,,,,6,,,64,63
15802,note_on,,10,0,1,,,,,,,,,0,,,68,0
15804,note_on,,2,0,1,,,,,,,,,0,,,71,79
15812,note_on,,20,0,7,,,,,,,,,6,,,64,0
15812,note_on,,20,0,2,,,,,,,,,1,,,64,0
15814,note_on,,10,0,1,,,,,,,,,0,,,71,0
15816,note_on,,4,0,7,,,,,,,,,6,,,59,63
15816,note_on,,4,0,2,,,,,,,,,1,,,59,63
15816,note_on,,24,0,4,,,,,,,,,3,,,80,63
15816,note_on,,24,0,3,,,,,,,,,2,,,68,0
15816,note_on,,0,0,3,,,,,,,,,2,,,64,63
15816,note_on,,2,0,1,,,,,,,,,0,,,76,79
15826,note_on,,10,0,1,,,,,,,,,0,,,76,0
15828,note_on,,2,0,1,,,,,,,,,0,,,64,79
15836,note_on,,20,0,7,,,,,,,,,6,,,59,0
15836,note_on,,20,0,2,,,,,,,,,1,,,59,0
15838,note_on,,10,0,1,,,,,,,,,0,,,64,0
15840,note_on,,0,0,4,,,,,,,,,3,,,76,63
15840,note_on,,24,0,4,,,,,,,,,3,,,80,0
15840,note_on,,4,0,7,,,,,,,,,6,,,56,63
15840,note_on,,2,0,1,,,,,,,,,0,,,68,79
15840,note_on,,24,0,3,,,,,,,,,2,,,64,0
15840,note_on,,4,0,2,,,,,,,,,1,,,56,63
15850,note_on,,10,0,1,,,,,,,,,0,,,68,0
15852,note_on,,2,0,1,,,,,,,,,0,,,71,79
15860,note_on,,20,0,7,,,,,,,,,6,,,56,0
15860,note_on,,20,0,2,,,,,,,,,1,,,56,0
15862,note_on,,10,0,1,,,,,,,,,0,,,71,0
15864,note_on,,24,0,4,,,,,,,,,3,,,76,0
15864,note_on,,0,0,4,,,,,,,,,3,,,73,63
15864,note_on,,24,0,3,,,,,,,,,2,,,80,63
15864,note_on,,4,0,2,,,,,,,,,1,,,52,63
15864,note_on,,2,0,1,,,,,,,,,0,,,76,79
15864,note_on,,4,0,7,,,,,,,,,6,,,52,63
15874,note_on,,10,0,1,,,,,,,,,0,,,76,0
15876,note_on,,2,0,1,,,,,,,,,0,,,66,79
15884,note_on,,20,0,2,,,,,,,,,1,,,52,0
15884,note_on,,20,0,7,,,,,,,,,6,,,52,0
15886,note_on,,10,0,1,,,,,,,,,0,,,66,0
15888,note_on,,2,0,1,,,,,,,,,0,,,68,79
15888,note_on,,24,0,4,,,,,,,,,3,,,73,0
15888,note_on,,4,0,2,,,,,,,,,1,,,49,63
15888,note_on,,0,0,3,,,,,,,,,2,,,76,63
15888,note_on,,24,0,3,,,,,,,,,2,,,80,0
15888,note_on,,4,0,7,,,,,,,,,6,,,49,63
15898,note_on,,10,0,1,,,,,,,,,0,,,68,0
15900,note_on,,2,0,1,,,,,,,,,0,,,71,79
15908,note_on,,20,0,7,,,,,,,,,6,,,49,0
15908,note_on,,20,0,2,,,,,,,,,1,,,49,0
15910,note_on,,10,0,1,,,,,,,,,0,,,71,0
15912,note_on,,4,0,2,,,,,,,,,1,,,52,63
15912,note_on,,24,0,4,,,,,,,,,3,,,76,63
15912,note_on,,4,0,7,,,,,,,,,6,,,52,63
15912,note_on,,2,0,1,,,,,,,,,0,,,76,79
15912,note_on,,24,0,3,,,,,,,,,2,,,76,0
15912,note_on,,0,0,3,,,,,,,,,2,,,73,63
15922,note_on,,10,0,1,,,,,,,,,0,,,76,0
15924,note_on,,2,0,1,,,,,,,,,0,,,64,79
15932,note_on,,20,0,2,,,,,,,,,1,,,52,0
15932,note_on,,20,0,7,,,,,,,,,6,,,52,0
15934,note_on,,10,0,1,,,,,,,,,0,,,64,0
15936,note_on,,152,0,8,,,,,,,,,7,,,42,63
15936,note_on,,0,0,4,,,,,,,,,3,,,73,63
15936,note_on,,4,0,7,,,,,,,,,6,,,42,63
15936,note_on,,24,0,4,,,,,,,,,3,,,76,0
15936,note_on,,24,0,3,,,,,,,,,2,,,73,0
15936,note_on,,4,0,2,,,,,,,,,1,,,42,63
15936,note_on,,152,0,6,,,,,,,,,5,,,66,56
15936,note_on,,2,0,1,,,,,,,,,0,,,69,79
15936,note_on,,144,0,5,,,,,,,,,4,,,69,56
15946,note_on,,10,0,1,,,,,,,,,0,,,69,0
15948,note_on,,2,0,1,,,,,,,,,0,,,73,79
15956,note_on,,20,0,6,,,,,,,,,5,,,66,0
15958,note_on,,10,0,1,,,,,,,,,0,,,73,0
15960,note_on,,0,0,4,,,,,,,,,3,,,69,63
15960,note_on,,24,0,5,,,,,,,,,4,,,69,0
15960,note_on,,0,0,5,,,,,,,,,4,,,69,56
15960,note_on,,24,0,4,,,,,,,,,3,,,73,0
15960,note_on,,2,0,1,,,,,,,,,0,,,76,79
15960,note_on,,24,0,3,,,,,,,,,2,,,76,63
15960,note_on,,4,0,6,,,,,,,,,5,,,66,56
15970,note_on,,10,0,1,,,,,,,,,0,,,76,0
15972,note_on,,2,0,1,,,,,,,,,0,,,68,79
15976,note_on,,40,0,8,,,,,,,,,7,,,42,0
15976,note_on,,40,0,2,,,,,,,,,1,,,42,0
15976,note_on,,40,0,7,,,,,,,,,6,,,42,0
15980,note_on,,20,0,6,,,,,,,,,5,,,66,0
15982,note_on,,10,0,1,,,,,,,,,0,,,68,0
15984,note_on,,24,0,3,,,,,,,,,2,,,76,0
15984,note_on,,24,0,5,,,,,,,,,4,,,69,0
15984,note_on,,4,0,6,,,,,,,,,5,,,66,56
15984,note_on,,0,0,3,,,,,,,,,2,,,73,63
15984,note_on,,0,0,5,,,,,,,,,4,,,69,56
15984,note_on,,24,0,4,,,,,,,,,3,,,69,0
15984,note_on,,2,0,1,,,,,,,,,0,,,69,79
15994,note_on,,10,0,1,,,,,,,,,0,,,69,0
15996,note_on,,2,0,1,,,,,,,,,0,,,73,79
16004,note_on,,20,0,6,,,,,,,,,5,,,66,0
16006,note_on,,10,0,1,,,,,,,,,0,,,73,0
16008,note_on,,4,0,6,,,,,,,,,5,,,66,56
16008,note_on,,24,0,5,,,,,,,,,4,,,69,0
16008,note_on,,0,0,5,,,,,,,,,4,,,69,56
16008,note_on,,0,0,3,,,,,,,,,2,,,69,63
16008,note_on,,2,0,1,,,,,,,,,0,,,76,79
16008,note_on,,24,0,3,,,,,,,,,2,,,73,0
16008,note_on,,24,0,4,,,,,,,,,3,,,73,63
16018,note_on,,10,0,1,,,,,,,,,0,,,76,0
16020,note_on,,2,0,1,,,,,,,,,0,,,66,79
16028,note_on,,20,0,6,,,,,,,,,5,,,66,0
16030,note_on,,10,0,1,,,,,,,,,0,,,66,0
16032,note_on,,4,0,6,,,,,,,,,5,,,66,56
16032,note_on,,24,0,3,,,,,,,,,2,,,69,0
16032,note_on,,24,0,5,,,,,,,,,4,,,69,0
16032,note_on,,24,0,4,,,,,,,,,3,,,73,0
16032,note_on,,0,0,4,,,,,,,,,3,,,69,63
16032,note_on,,2,0,1,,,,,,,,,0,,,69,79
16032,note_on,,0,0,5,,,,,,,,,4,,,69,56
16042,note_on,,10,0,1,,,,,,,,,0,,,69,0
16044,note_on,,2,0,1,,,,,,,,,0,,,73,79
16052,note_on,,20,0,6,,,,,,,,,5,,,66,0
16054,note_on,,10,0,1,,,,,,,,,0,,,73,0
16056,note_on,,4,0,6,,,,,,,,,5,,,66,56
16056,note_on,,0,0,4,,,,,,,,,3,,,66,63
16056,note_on,,0,0,5,,,,,,,,,4,,,69,56
16056,note_on,,24,0,5,,,,,,,,,4,,,69,0
16056,note_on,,2,0,1,,,,,,,,,0,,,76,79
16056,note_on,,24,0,3,,,,,,,,,2,,,73,63
16056,note_on,,24,0,4,,,,,,,,,3,,,69,0
16066,note_on,,10,0,1,,,,,,,,,0,,,76,0
16068,note_on,,2,0,1,,,,,,,,,0,,,68,79
16076,note_on,,20,0,6,,,,,,,,,5,,,66,0
16078,note_on,,10,0,1,,,,,,,,,0,,,68,0
16080,note_on,,4,0,6,,,,,,,,,5,,,66,56
16080,note_on,,2,0,1,,,,,,,,,0,,,69,79
16080,note_on,,24,0,4,,,,,,,,,3,,,66,0
16080,note_on,,24,0,5,,,,,,,,,4,,,69,0
16080,note_on,,0,0,5,,,,,,,,,4,,,69,56
16080,note_on,,24,0,3,,,,,,,,,2,,,73,0
16080,note_on,,0,0,3,,,,,,,,,2,,,69,63
16090,note_on,,10,0,1,,,,,,,,,0,,,69,0
16092,note_on,,2,0,1,,,,,,,,,0,,,73,79
16100,note_on,,20,0,6,,,,,,,,,5,,,66,0
16102,note_on,,10,0,1,,,,,,,,,0,,,73,0
16104,note_on,,0,0,3,,,,,,,,,2,,,66,63
16104,note_on,,24,0,4,,,,,,,,,3,,,69,63
16104,note_on,,24,0,3,,,,,,,,,2,,,69,0
16104,note_on,,4,0,6,,,,,,,,,5,,,66,56
16104,note_on,,2,0,1,,,,,,,,,0,,,76,79
16104,note_on,,0,0,5,,,,,,,,,4,,,69,56
16104,note_on,,24,0,5,,,,,,,,,4,,,69,0
16114,note_on,,10,0,1,,,,,,,,,0,,,76,0
16116,note_on,,2,0,1,,,,,,,,,0,,,66,79
16124,note_on,,20,0,6,,,,,,,,,5,,,66,0
16126,note_on,,10,0,1,,,,,,,,,0,,,66,0
16128,note_on,,152,0,2,,,,,,,,,1,,,54,63
16128,note_on,,24,0,4,,,,,,,,,3,,,69,0
16128,note_on,,0,0,4,,,,,,,,,3,,,66,63
16128,note_on,,152,0,7,,,,,,,,,6,,,54,63
16128,note_on,,4,0,6,,,,,,,,,5,,,66,56
16128,note_on,,152,0,8,,,,,,,,,7,,,42,63
16128,note_on,,24,0,3,,,,,,,,,2,,,66,0
16128,note_on,,24,0,5,,,,,,,,,4,,,69,0
16128,note_on,,0,0,5,,,,,,,,,4,,,69,56
16128,note_on,,2,0,1,,,,,,,,,0,,,66,79
16138,note_on,,10,0,1,,,,,,,,,0,,,66,0
16140,note_on,,2,0,1,,,,,,,,,0,,,69,79
16148,note_on,,20,0,7,,,,,,,,,6,,,54,0
16148,note_on,,20,0,2,,,,,,,,,1,,,54,0
16150,note_on,,10,0,1,,,,,,,,,0,,,69,0
16152,note_on,,4,0,7,,,,,,,,,6,,,57,63
16152,note_on,,2,0,1,,,,,,,,,0,,,74,79
16152,note_on,,0,0,4,,,,,,,,,3,,,62,63
16152,note_on,,24,0,4,,,,,,,,,3,,,66,0
16152,note_on,,24,0,3,,,,,,,,,2,,,69,63
16152,note_on,,4,0,2,,,,,,,,,1,,,57,63
16162,note_on,,10,0,1,,,,,,,,,0,,,74,0
16164,note_on,,2,0,1,,,,,,,,,0,,,64,79
16168,note_on,,40,0,8,,,,,,,,,7,,,42,0
16168,note_on,,40,0,6,,,,,,,,,5,,,66,0
16172,note_on,,20,0,7,,,,,,,,,6,,,57,0
16172,note_on,,20,0,2,,,,,,,,,1,,,57,0
16174,note_on,,10,0,1,,,,,,,,,0,,,64,0
16176,note_on,,24,0,4,,,,,,,,,3,,,62,0
16176,note_on,,4,0,7,,,,,,,,,6,,,62,63
16176,note_on,,48,0,5,,,,,,,,,4,,,69,0
16176,note_on,,4,0,2,,,,,,,,,1,,,62,63
16176,note_on,,2,0,1,,,,,,,,,0,,,66,79
16176,note_on,,0,0,3,,,,,,,,,2,,,66,63
16176,note_on,,24,0,3,,,,,,,,,2,,,69,0
16186,note_on,,10,0,1,,,,,,,,,0,,,66,0
16188,note_on,,2,0,1,,,,,,,,,0,,,69,79
16196,note_on,,20,0,7,,,,,,,,,6,,,62,0
16196,note_on,,20,0,2,,,,,,,,,1,,,62,0
16198,note_on,,10,0,1,,,,,,,,,0,,,69,0
16200,note_on,,2,0,1,,,,,,,,,0,,,74,79
16200,note_on,,24,0,4,,,,,,,,,3,,,78,63
16200,note_on,,4,0,2,,,,,,,,,1,,,57,63
16200,note_on,,4,0,7,,,,,,,,,6,,,57,63
16200,note_on,,24,0,3,,,,,,,,,2,,,66,0
16200,note_on,,0,0,3,,,,,,,,,2,,,62,63
16210,note_on,,10,0,1,,,,,,,,,0,,,74,0
16212,note_on,,2,0,1,,,,,,,,,0,,,62,79
16220,note_on,,20,0,7,,,,,,,,,6,,,57,0
16220,note_on,,20,0,2,,,,,,,,,1,,,57,0
16222,note_on,,10,0,1,,,,,,,,,0,,,62,0
16224,note_on,,4,0,7,,,,,,,,,6,,,54,63
16224,note_on,,24,0,4,,,,,,,,,3,,,78,0
16224,note_on,,24,0,3,,,,,,,,,2,,,62,0
16224,note_on,,4,0,2,,,,,,,,,1,,,54,63
16224,note_on,,2,0,1,,,,,,,,,0,,,66,79
16224,note_on,,0,0,4,,,,,,,,,3,,,74,63
16234,note_on,,10,0,1,,,,,,,,,0,,,66,0
16236,note_on,,2,0,1,,,,,,,,,0,,,69,79
16244,note_on,,20,0,2,,,,,,,,,1,,,54,0
16244,note_on,,20,0,7,,,,,,,,,6,,,54,0
16246,note_on,,10,0,1,,,,,,,,,0,,,69,0
16248,note_on,,24,0,3,,,,,,,,,2,,,78,63
16248,note_on,,2,0,1,,,,,,,,,0,,,74,79
16248,note_on,,4,0,2,,,,,,,,,1,,,50,63
16248,note_on,,4,0,7,,,,,,,,,6,,,50,63
16248,note_on,,0,0,4,,,,,,,,,3,,,71,63
16248,note_on,,24,0,4,,,,,,,,,3,,,74,0
16258,note_on,,10,0,1,,,,,,,,,0,,,74,0
16260,note_on,,2,0,1,,,,,,,,,0,,,64,79
16268,note_on,,20,0,2,,,,,,,,,1,,,50,0
16268,note_on,,20,0,7,,,,,,,,,6,,,50,0
16270,note_on,,10,0,1,,,,,,,,,0,,,64,0
16272,note_on,,24,0,4,,,,,,,,,3,,,71,0
16272,note_on,,2,0,1,,,,,,,,,0,,,66,79
16272,note_on,,24,0,3,,,,,,,,,2,,,78,0
16272,note_on,,4,0,2,,,,,,,,,1,,,47,63
16272,note_on,,4,0,7,,,,,,,,,6,,,47,63
16272,note_on,,0,0,3,,,,,,,,,2,,,74,63
16282,note_on,,10,0,1,,,,,,,,,0,,,66,0
16284,note_on,,2,0,1,,,,,,,,,0,,,69,79
16292,note_on,,20,0,7,,,,,,,,,6,,,47,0
16292,note_on,,20,0,2,,,,,,,,,1,,,47,0
16294,note_on,,10,0,1,,,,,,,,,0,,,69,0
16296,note_on,,2,0,1,,,,,,,,,0,,,74,79
16296,note_on,,24,0,3,,,,,,,,,2,,,74,0
16296,note_on,,4,0,7,,,,,,,,,6,,,50,63
16296,note_on,,0,0,3,,,,,,,,,2,,,71,63
16296,note_on,,24,0,4,,,,,,,,,3,,,74,63
16296,note_on,,4,0,2,,,,,,,,,1,,,50,63
16306,note_on,,10,0,1,,,,,,,,,0,,,74,0
16308,note_on,,2,0,1,,,,,,,,,0,,,62,79
16316,note_on,,20,0,7,,,,,,,,,6,,,50,0
16316,note_on,,20,0,2,,,,,,,,,1,,,50,0
16318,note_on,,10,0,1,,,,,,,,,0,,,62,0
16320,note_on,,152,0,6,,,,,,,,,5,,,61,56
16320,note_on,,144,0,5,,,,,,,,,4,,,68,56
16320,note_on,,0,0,4,,,,,,,,,3,,,71,63
16320,note_on,,4,0,7,,,,,,,,,6,,,40,63
16320,note_on,,24,0,4,,,,,,,,,3,,,74,0
16320,note_on,,24,0,3,,,,,,,,,2,,,71,0
16320,note_on,,152,0,8,,,,,,,,,7,,,40,63
16320,note_on,,2,0,1,,,,,,,,,0,,,68,79
16320,note_on,,4,0,2,,,,,,,,,1,,,40,63
16330,note_on,,10,0,1,,,,,,,,,0,,,68,0
16332,note_on,,2,0,1,,,,,,,,,0,,,71,79
16340,note_on,,20,0,6,,,,,,,,,5,,,61,0
16342,note_on,,10,0,1,,,,,,,,,0,,,71,0
16344,note_on,,0,0,4,,,,,,,,,3,,,68,63
16344,note_on,,24,0,3,,,,,,,,,2,,,74,63
16344,note_on,,4,0,6,,,,,,,,,5,,,61,56
16344,note_on,,2,0,1,,,,,,,,,0,,,74,79
16344,note_on,,24,0,5,,,,,,,,,4,,,68,0
16344,note_on,,24,0,4,,,,,,,,,3,,,71,0
16344,note_on,,0,0,5,,,,,,,,,4,,,68,56
16354,note_on,,10,0,1,,,,,,,,,0,,,74,0
16356,note_on,,2,0,1,,,,,,,,,0,,,66,79
16360,note_on,,40,0,8,,,,,,,,,7,,,40,0
16360,note_on,,40,0,7,,,,,,,,,6,,,40,0
16360,note_on,,40,0,2,,,,,,,,,1,,,40,0
16364,note_on,,20,0,6,,,,,,,,,5,,,61,0
16366,note_on,,10,0,1,,,,,,,,,0,,,66,0
16368,note_on,,24,0,4,,,,,,,,,3,,,68,0
16368,note_on,,24,0,3,,,,,,,,,2,,,74,0
16368,note_on,,24,0,5,,,,,,,,,4,,,68,0
16368,note_on,,0,0,3,,,,,,,,,2,,,71,63
16368,note_on,,4,0,6,,,,,,,,,5,,,61,56
16368,note_on,,0,0,5,,,,,,,,,4,,,68,56
16368,note_on,,2,0,1,,,,,,,,,0,,,68,79
16378,note_on,,10,0,1,,,,,,,,,0,,,68,0
16380,note_on,,2,0,1,,,,,,,,,0,,,71,79
16388,note_on,,20,0,6,,,,,,,,,5,,,61,0
16390,note_on,,10,0,1,,,,,,,,,0,,,71,0
16392,note_on,,0,0,3,,,,,,,,,2,,,68,63
16392,note_on,,24,0,3,,,,,,,,,2,,,71,0
16392,note_on,,24,0,5,,,,,,,,,4,,,68,0
16392,note_on,,0,0,5,,,,,,,,,4,,,68,56
16392,note_on,,4,0,6,,,,,,,,,5,,,61,56
16392,note_on,,24,0,4,,,,,,,,,3,,,71,63
16392,note_on,,2,0,1,,,,,,,,,0,,,74,79
16402,note_on,,10,0,1,,,,,,,,,0,,,74,0
16404,note_on,,2,0,1,,,,,,,,,0,,,64,79
16412,note_on,,20,0,6,,,,,,,,,5,,,61,0
16414,note_on,,10,0,1,,,,,,,,,0,,,64,0
16416,note_on,,0,0,4,,,,,,,,,3,,,68,63
16416,note_on,,24,0,4,,,,,,,,,3,,,71,0
16416,note_on,,2,0,1,,,,,,,,,0,,,68,79
16416,note_on,,24,0,3,,,,,,,,,2,,,68,0
16416,note_on,,4,0,6,,,,,,,,,5,,,61,56
16416,note_on,,24,0,5,,,,,,,,,4,,,68,0
16416,note_on,,0,0,5,,,,,,,,,4,,,68,56
16426,note_on,,10,0,1,,,,,,,,,0,,,68,0
16428,note_on,,2,0,1,,,,,,,,,0,,,71,79
16436,note_on,,20,0,6,,,,,,,,,5,,,61,0
16438,note_on,,10,0,1,,,,,,,,,0,,,71,0
16440,note_on,,0,0,5,,,,,,,,,4,,,68,56
16440,note_on,,4,0,6,,,,,,,,,5,,,61,56
16440,note_on,,24,0,5,,,,,,,,,4,,,68,0
16440,note_on,,24,0,3,,,,,,,,,2,,,71,63
16440,note_on,,2,0,1,,,,,,,,,0,,,74,79
16440,note_on,,24,0,4,,,,,,,,,3,,,68,0
16440,note_on,,0,0,4,,,,,,,,,3,,,64,63
16450,note_on,,10,0,1,,,,,,,,,0,,,74,0
16452,note_on,,2,0,1,,,,,,,,,0,,,66,79
16460,note_on,,20,0,6,,,,,,,,,5,,,61,0
16462,note_on,,10,0,1,,,,,,,,,0,,,66,0
16464,note_on,,2,0,1,,,,,,,,,0,,,68,79
16464,note_on,,0,0,3,,,,,,,,,2,,,68,63
16464,note_on,,4,0,6,,,,,,,,,5,,,61,56
16464,note_on,,24,0,3,,,,,,,,,2,,,71,0
16464,note_on,,24,0,5,,,,,,,,,4,,,68,0
16464,note_on,,0,0,5,,,,,,,,,4,,,68,56
16464,note_on,,24,0,4,,,,,,,,,3,,,64,0
16474,note_on,,10,0,1,,,,,,,,,0,,,68,0
16476,note_on,,2,0,1,,,,,,,,,0,,,71,79
16484,note_on,,20,0,6,,,,,,,,,5,,,61,0
16486,note_on,,10,0,1,,,,,,,,,0,,,71,0
16488,note_on,,24,0,4,,,,,,,,,3,,,68,63
16488,note_on,,0,0,3,,,,,,,,,2,,,64,63
16488,note_on,,24,0,3,,,,,,,,,2,,,68,0
16488,note_on,,2,0,1,,,,,,,,,0,,,74,79
16488,note_on,,24,0,5,,,,,,,,,4,,,68,0
16488,note_on,,4,0,6,,,,,,,,,5,,,61,56
16488,note_on,,0,0,5,,,,,,,,,4,,,68,56
16498,note_on,,10,0,1,,,,,,,,,0,,,74,0
16500,note_on,,2,0,1,,,,,,,,,0,,,62,79
16508,note_on,,20,0,6,,,,,,,,,5,,,61,0
16510,note_on,,10,0,1,,,,,,,,,0,,,62,0
16512,note_on,,152,0,7,,,,,,,,,6,,,52,63
16512,note_on,,24,0,3,,,,,,,,,2,,,64,0
16512,note_on,,152,0,2,,,,,,,,,1,,,52,63
16512,note_on,,4,0,6,,,,,,,,,5,,,61,56
16512,note_on,,24,0,5,,,,,,,,,4,,,68,0
16512,note_on,,2,0,1,,,,,,,,,0,,,64,79
16512,note_on,,152,0,8,,,,,,,,,7,,,40,63
16512,note_on,,0,0,4,,,,,,,,,3,,,64,63
16512,note_on,,24,0,4,,,,,,,,,3,,,68,0
16512,note_on,,0,0,5,,,,,,,,,4,,,68,56
16522,note_on,,10,0,1,,,,,,,,,0,,,64,0
16524,note_on,,2,0,1,,,,,,,,,0,,,68,79
16532,note_on,,20,0,2,,,,,,,,,1,,,52,0
16532,note_on,,20,0,7,,,,,,,,,6,,,52,0
16534,note_on,,10,0,1,,,,,,,,,0,,,68,0
16536,note_on,,2,0,1,,,,,,,,,0,,,73,79
16536,note_on,,24,0,3,,,,,,,,,2,,,80,63
16536,note_on,,4,0,7,,,,,,,,,6,,,56,63
16536,note_on,,4,0,2,,,,,,,,,1,,,56,63
16536,note_on,,24,0,4,,,,,,,,,3,,,64,0
16536,note_on,,0,0,4,,,,,,,,,3,,,61,63
16546,note_on,,10,0,1,,,,,,,,,0,,,73,0
16548,note_on,,2,0,1,,,,,,,,,0,,,62,79
16552,note_on,,40,0,6,,,,,,,,,5,,,61,0
16552,note_on,,40,0,8,,,,,,,,,7,,,40,0
16556,note_on,,20,0,2,,,,,,,,,1,,,56,0
16556,note_on,,20,0,7,,,,,,,,,6,,,56,0
16558,note_on,,10,0,1,,,,,,,,,0,,,62,0
16560,note_on,,4,0,7,,,,,,,,,6,,,61,63
16560,note_on,,0,0,3,,,,,,,,,2,,,76,63
16560,note_on,,24,0,3,,,,,,,,,2,,,80,0
16560,note_on,,4,0,2,,,,,,,,,1,,,61,63
16560,note_on,,48,0,5,,,,,,,,,4,,,68,0
16560,note_on,,2,0,1,,,,,,,,,0,,,64,79
16560,note_on,,24,0,4,,,,,,,,,3,,,61,0
16570,note_on,,10,0,1,,,,,,,,,0,,,64,0
16572,note_on,,2,0,1,,,,,,,,,0,,,68,79
16580,note_on,,20,0,7,,,,,,,,,6,,,61,0
16580,note_on,,20,0,2,,,,,,,,,1,,,61,0
16582,note_on,,10,0,1,,,,,,,,,0,,,68,0
16584,note_on,,2,0,1,,,,,,,,,0,,,73,79
16584,note_on,,24,0,4,,,,,,,,,3,,,76,63
16584,note_on,,24,0,3,,,,,,,,,2,,,76,0
16584,note_on,,4,0,7,,,,,,,,,6,,,56,63
16584,note_on,,0,0,3,,,,,,,,,2,,,73,63
16584,note_on,,4,0,2,,,,,,,,,1,,,56,63
16594,note_on,,10,0,1,,,,,,,,,0,,,73,0
16596,note_on,,2,0,1,,,,,,,,,0,,,61,79
16604,note_on,,20,0,2,,,,,,,,,1,,,56,0
16604,note_on,,20,0,7,,,,,,,,,6,,,56,0
16606,note_on,,10,0,1,,,,,,,,,0,,,61,0
16608,note_on,,24,0,4,,,,,,,,,3,,,76,0
16608,note_on,,4,0,7,,,,,,,,,6,,,52,63
16608,note_on,,2,0,1,,,,,,,,,0,,,64,79
16608,note_on,,4,0,2,,,,,,,,,1,,,52,63
16608,note_on,,0,0,4,,,,,,,,,3,,,73,63
16608,note_on,,24,0,3,,,,,,,,,2,,,73,0
16618,note_on,,10,0,1,,,,,,,,,0,,,64,0
16620,note_on,,2,0,1,,,,,,,,,0,,,68,79
16628,note_on,,20,0,7,,,,,,,,,6,,,52,0
16628,note_on,,20,0,2,,,,,,,,,1,,,52,0
16630,note_on,,10,0,1,,,,,,,,,0,,,68,0
16632,note_on,,0,0,4,,,,,,,,,3,,,69,63
16632,note_on,,4,0,7,,,,,,,,,6,,,49,63
16632,note_on,,24,0,3,,,,,,,,,2,,,76,63
16632,note_on,,2,0,1,,,,,,,,,0,,,73,79
16632,note_on,,24,0,4,,,,,,,,,3,,,73,0
16632,note_on,,4,0,2,,,,,,,,,1,,,49,63
16642,note_on,,10,0,1,,,,,,,,,0,,,73,0
16644,note_on,,2,0,1,,,,,,,,,0,,,62,79
16652,note_on,,20,0,7,,,,,,,,,6,,,49,0
16652,note_on,,20,0,2,,,,,,,,,1,,,49,0
16654,note_on,,10,0,1,,,,,,,,,0,,,62,0
16656,note_on,,24,0,4,,,,,,,,,3,,,69,0
16656,note_on,,4,0,2,,,,,,,,,1,,,45,63
16656,note_on,,2,0,1,,,,,,,,,0,,,64,79
16656,note_on,,24,0,3,,,,,,,,,2,,,76,0
16656,note_on,,0,0,3,,,,,,,,,2,,,73,63
16656,note_on,,4,0,7,,,,,,,,,6,,,45,63
16666,note_on,,10,0,1,,,,,,,,,0,,,64,0
16668,note_on,,2,0,1,,,,,,,,,0,,,68,79
16676,note_on,,20,0,7,,,,,,,,,6,,,45,0
16676,note_on,,20,0,2,,,,,,,,,1,,,45,0
16678,note_on,,10,0,1,,,,,,,,,0,,,68,0
16680,note_on,,2,0,1,,,,,,,,,0,,,73,79
16680,note_on,,0,0,3,,,,,,,,,2,,,69,63
16680,note_on,,24,0,3,,,,,,,,,2,,,73,0
16680,note_on,,4,0,2,,,,,,,,,1,,,49,63
16680,note_on,,4,0,7,,,,,,,,,6,,,49,63
16680,note_on,,24,0,4,,,,,,,,,3,,,73,63
16690,note_on,,10,0,1,,,,,,,,,0,,,73,0
16692,note_on,,2,0,1,,,,,,,,,0,,,61,79
16700,note_on,,20,0,7,,,,,,,,,6,,,49,0
16700,note_on,,20,0,2,,,,,,,,,1,,,49,0
16702,note_on,,10,0,1,,,,,,,,,0,,,61,0
16704,note_on,,4,0,7,,,,,,,,,6,,,38,63
16704,note_on,,24,0,3,,,,,,,,,2,,,69,0
16704,note_on,,4,0,2,,,,,,,,,1,,,38,63
16704,note_on,,152,0,6,,,,,,,,,5,,,62,56
16704,note_on,,2,0,1,,,,,,,,,0,,,66,79
16704,note_on,,152,0,8,,,,,,,,,7,,,38,63
16704,note_on,,144,0,5,,,,,,,,,4,,,66,56
16704,note_on,,24,0,4,,,,,,,,,3,,,73,0
16704,note_on,,0,0,4,,,,,,,,,3,,,69,63
16714,note_on,,10,0,1,,,,,,,,,0,,,66,0
16716,note_on,,2,0,1,,,,,,,,,0,,,69,79
16724,note_on,,20,0,6,,,,,,,,,5,,,62,0
16726,note_on,,10,0,1,,,,,,,,,0,,,69,0
16728,note_on,,0,0,4,,,,,,,,,3,,,66,63
16728,note_on,,24,0,3,,,,,,,,,2,,,73,63
16728,note_on,,4,0,6,,,,,,,,,5,,,62,56
16728,note_on,,2,0,1,,,,,,,,,0,,,73,79
16728,note_on,,24,0,5,,,,,,,,,4,,,66,0
16728,note_on,,0,0,5,,,,,,,,,4,,,66,56
16728,note_on,,24,0,4,,,,,,,,,3,,,69,0
16738,note_on,,10,0,1,,,,,,,,,0,,,73,0
16740,note_on,,2,0,1,,,,,,,,,0,,,64,79
16744,note_on,,40,0,7,,,,,,,,,6,,,38,0
16744,note_on,,40,0,8,,,,,,,,,7,,,38,0
16744,note_on,,40,0,2,,,,,,,,,1,,,38,0
16748,note_on,,20,0,6,,,,,,,,,5,,,62,0
16750,note_on,,10,0,1,,,,,,,,,0,,,64,0
16752,note_on,,4,0,6,,,,,,,,,5,,,62,56
16752,note_on,,24,0,5,,,,,,,,,4,,,66,0
16752,note_on,,0,0,5,,,,,,,,,4,,,66,56
16752,note_on,,0,0,3,,,,,,,,,2,,,69,63
16752,note_on,,2,0,1,,,,,,,,,0,,,66,79
16752,note_on,,24,0,4,,,,,,,,,3,,,66,0
16752,note_on,,24,0,3,,,,,,,,,2,,,73,0
16762,note_on,,10,0,1,,,,,,,,,0,,,66,0
16764,note_on,,2,0,1,,,,,,,,,0,,,69,79
16772,note_on,,20,0,6,,,,,,,,,5,,,62,0
16774,note_on,,10,0,1,,,,,,,,,0,,,69,0
16776,note_on,,24,0,3,,,,,,,,,2,,,69,0
16776,note_on,,2,0,1,,,,,,,,,0,,,73,79
16776,note_on,,4,0,6,,,,,,,,,5,,,62,56
16776,note_on,,0,0,5,,,,,,,,,4,,,66,56
16776,note_on,,24,0,5,,,,,,,,,4,,,66,0
16776,note_on,,24,0,4,,,,,,,,,3,,,69,63
16776,note_on,,0,0,3,,,,,,,,,2,,,66,63
16786,note_on,,10,0,1,,,,,,,,,0,,,73,0
16788,note_on,,2,0,1,,,,,,,,,0,,,62,79
16796,note_on,,20,0,6,,,,,,,,,5,,,62,0
16798,note_on,,10,0,1,,,,,,,,,0,,,62,0
16800,note_on,,4,0,6,,,,,,,,,5,,,62,56
16800,note_on,,0,0,4,,,,,,,,,3,,,66,63
16800,note_on,,24,0,4,,,,,,,,,3,,,69,0
16800,note_on,,2,0,1,,,,,,,,,0,,,66,79
16800,note_on,,24,0,5,,,,,,,,,4,,,66,0
16800,note_on,,24,0,3,,,,,,,,,2,,,66,0
16800,note_on,,0,0,5,,,,,,,,,4,,,66,56
16810,note_on,,10,0,1,,,,,,,,,0,,,66,0
16812,note_on,,2,0,1,,,,,,,,,0,,,69,79
16820,note_on,,20,0,6,,,,,,,,,5,,,62,0
16822,note_on,,10,0,1,,,,,,,,,0,,,69,0
16824,note_on,,4,0,6,,,,,,,,,5,,,62,56
16824,note_on,,24,0,5,,,,,,,,,4,,,66,0
16824,note_on,,0,0,4,,,,,,,,,3,,,62,63
16824,note_on,,24,0,3,,,,,,,,,2,,,69,63
16824,note_on,,2,0,1,,,,,,,,,0,,,73,79
16824,note_on,,0,0,5,,,,,,,,,4,,,66,56
16824,note_on,,24,0,4,,,,,,,,,3,,,66,0
16834,note_on,,10,0,1,,,,,,,,,0,,,73,0
16836,note_on,,2,0,1,,,,,,,,,0,,,64,79
16844,note_on,,20,0,6,,,,,,,,,5,,,62,0
16846,note_on,,10,0,1,,,,,,,,,0,,,64,0
16848,note_on,,4,0,6,,,,,,,,,5,,,62,56
16848,note_on,,2,0,1,,,,,,,,,0,,,66,79
16848,note_on,,24,0,4,,,,,,,,,3,,,62,0
16848,note_on,,0,0,5,,,,,,,,,4,,,66,56
16848,note_on,,24,0,5,,,,,,,,,4,,,66,0
16848,note_on,,0,0,3,,,,,,,,,2,,,66,63
16848,note_on,,24,0,3,,,,,,,,,2,,,69,0
16858,note_on,,10,0,1,,,,,,,,,0,,,66,0
16860,note_on,,2,0,1,,,,,,,,,0,,,69,79
16868,note_on,,20,0,6,,,,,,,,,5,,,62,0
16870,note_on,,10,0,1,,,,,,,,,0,,,69,0
16872,note_on,,24,0,4,,,,,,,,,3,,,66,63
16872,note_on,,4,0,6,,,,,,,,,5,,,62,56
16872,note_on,,2,0,1,,,,,,,,,0,,,73,79
16872,note_on,,0,0,5,,,,,,,,,4,,,66,56
16872,note_on,,24,0,3,,,,,,,,,2,,,66,0
16872,note_on,,24,0,5,,,,,,,,,4,,,66,0
16872,note_on,,0,0,3,,,,,,,,,2,,,62,63
16882,note_on,,10,0,1,,,,,,,,,0,,,73,0
16884,note_on,,2,0,1,,,,,,,,,0,,,61,79
16892,note_on,,20,0,6,,,,,,,,,5,,,62,0
16894,note_on,,10,0,1,,,,,,,,,0,,,61,0
16896,note_on,,0,0,4,,,,,,,,,3,,,62,63
16896,note_on,,24,0,4,,,,,,,,,3,,,66,0
16896,note_on,,24,0,3,,,,,,,,,2,,,62,0
16896,note_on,,152,0,2,,,,,,,,,1,,,50,63
16896,note_on,,24,0,5,,,,,,,,,4,,,66,0
16896,note_on,,0,0,5,,,,,,,,,4,,,66,56
16896,note_on,,152,0,7,,,,,,,,,6,,,50,63
16896,note_on,,2,0,1,,,,,,,,,0,,,62,79
16896,note_on,,152,0,8,,,,,,,,,7,,,38,63
16896,note_on,,4,0,6,,,,,,,,,5,,,62,56
16906,note_on,,10,0,1,,,,,,,,,0,,,62,0
16908,note_on,,2,0,1,,,,,,,,,0,,,66,79
16916,note_on,,20,0,2,,,,,,,,,1,,,50,0
16916,note_on,,20,0,7,,,,,,,,,6,,,50,0
16918,note_on,,10,0,1,,,,,,,,,0,,,66,0
16920,note_on,,0,0,4,,,,,,,,,3,,,59,63
16920,note_on,,4,0,2,,,,,,,,,1,,,54,63
16920,note_on,,24,0,3,,,,,,,,,2,,,78,63
16920,note_on,,24,0,4,,,,,,,,,3,,,62,0
16920,note_on,,2,0,1,,,,,,,,,0,,,71,79
16920,note_on,,4,0,7,,,,,,,,,6,,,54,63
16930,note_on,,10,0,1,,,,,,,,,0,,,71,0
16932,note_on,,2,0,1,,,,,,,,,0,,,61,79
16936,note_on,,40,0,6,,,,,,,,,5,,,62,0
16936,note_on,,40,0,8,,,,,,,,,7,,,38,0
16940,note_on,,20,0,7,,,,,,,,,6,,,54,0
16940,note_on,,20,0,2,,,,,,,,,1,,,54,0
16942,note_on,,10,0,1,,,,,,,,,0,,,61,0
16944,note_on,,48,0,5,,,,,,,,,4,,,66,0
16944,note_on,,4,0,7,,,,,,,,,6,,,59,63
16944,note_on,,4,0,2,,,,,,,,,1,,,59,63
16944,note_on,,24,0,4,,,,,,,,,3,,,59,0
16944,note_on,,24,0,3,,,,,,,,,2,,,78,0
16944,note_on,,0,0,3,,,,,,,,,2,,,74,63
16944,note_on,,2,0,1,,,,,,,,,0,,,62,79
16954,note_on,,10,0,1,,,,,,,,,0,,,62,0
16956,note_on,,2,0,1,,,,,,,,,0,,,66,79
16964,note_on,,20,0,2,,,,,,,,,1,,,59,0
16964,note_on,,20,0,7,,,,,,,,,6,,,59,0
16966,note_on,,10,0,1,,,,,,,,,0,,,66,0
16968,note_on,,2,0,1,,,,,,,,,0,,,71,79
16968,note_on,,24,0,4,,,,,,,,,3,,,74,63
16968,note_on,,0,0,3,,,,,,,,,2,,,71,63
16968,note_on,,24,0,3,,,,,,,,,2,,,74,0
16968,note_on,,4,0,2,,,,,,,,,1,,,54,63
16968,note_on,,4,0,7,,,,,,,,,6,,,54,63
16978,note_on,,10,0,1,,,,,,,,,0,,,71,0
16980,note_on,,2,0,1,,,,,,,,,0,,,59,79
16988,note_on,,20,0,7,,,,,,,,,6,,,54,0
16988,note_on,,20,0,2,,,,,,,,,1,,,54,0
16990,note_on,,10,0,1,,,,,,,,,0,,,59,0
16992,note_on,,24,0,3,,,,,,,,,2,,,71,0
16992,note_on,,2,0,1,,,,,,,,,0,,,62,79
16992,note_on,,4,0,2,,,,,,,,,1,,,50,63
16992,note_on,,0,0,4,,,,,,,,,3,,,71,63
16992,note_on,,24,0,4,,,,,,,,,3,,,74,0
16992,note_on,,4,0,7,,,,,,,,,6,,,50,63
17002,note_on,,10,0,1,,,,,,,,,0,,,62,0
17004,note_on,,2,0,1,,,,,,,,,0,,,66,79
17012,note_on,,20,0,2,,,,,,,,,1,,,50,0
17012,note_on,,20,0,7,,,,,,,,,6,,,50,0
17014,note_on,,10,0,1,,,,,,,,,0,,,66,0
17016,note_on,,24,0,3,,,,,,,,,2,,,74,63
17016,note_on,,2,0,1,,,,,,,,,0,,,71,79
17016,note_on,,0,0,4,,,,,,,,,3,,,68,63
17016,note_on,,24,0,4,,,,,,,,,3,,,71,0
17016,note_on,,4,0,7,,,,,,,,,6,,,47,63
17016,note_on,,4,0,2,,,,,,,,,1,,,47,63
17026,note_on,,10,0,1,,,,,,,,,0,,,71,0
17028,note_on,,2,0,1,,,,,,,,,0,,,61,79
17036,note_on,,20,0,7,,,,,,,,,6,,,47,0
17036,note_on,,20,0,2,,,,,,,,,1,,,47,0
17038,note_on,,10,0,1,,,,,,,,,0,,,61,0
17040,note_on,,4,0,2,,,,,,,,,1,,,44,63
17040,note_on,,24,0,3,,,,,,,,,2,,,74,0
17040,note_on,,0,0,3,,,,,,,,,2,,,71,63
17040,note_on,,24,0,4,,,,,,,,,3,,,68,0
17040,note_on,,2,0,1,,,,,,,,,0,,,62,79
17040,note_on,,4,0,7,,,,,,,,,6,,,44,63
17050,note_on,,10,0,1,,,,,,,,,0,,,62,0
17052,note_on,,2,0,1,,,,,,,,,0,,,66,79
17060,note_on,,20,0,7,,,,,,,,,6,,,44,0
17060,note_on,,20,0,2,,,,,,,,,1,,,44,0
17062,note_on,,10,0,1,,,,,,,,,0,,,66,0
17064,note_on,,24,0,4,,,,,,,,,3,,,71,63
17064,note_on,,4,0,7,,,,,,,,,6,,,47,63
17064,note_on,,0,0,3,,,,,,,,,2,,,68,63
17064,note_on,,24,0,3,,,,,,,,,2,,,71,0
17064,note_on,,4,0,2,,,,,,,,,1,,,47,63
17064,note_on,,2,0,1,,,,,,,,,0,,,71,79
17074,note_on,,10,0,1,,,,,,,,,0,,,71,0
17076,note_on,,2,0,1,,,,,,,,,0,,,59,79
17084,note_on,,20,0,7,,,,,,,,,6,,,47,0
17084,note_on,,20,0,2,,,,,,,,,1,,,47,0
17086,note_on,,10,0,1,,,,,,,,,0,,,59,0
17088,note_on,,2,0,1,,,,,,,,,0,,,64,79
17088,note_on,,4,0,2,,,,,,,,,1,,,37,63
17088,note_on,,144,0,5,,,,,,,,,4,,,64,56
17088,note_on,,24,0,4,,,,,,,,,3,,,71,0
17088,note_on,,24,0,3,,,,,,,,,2,,,68,0
17088,note_on,,4,0,7,,,,,,,,,6,,,37,63
17088,note_on,,152,0,6,,,,,,,,,5,,,61,56
17088,note_on,,152,0,8,,,,,,,,,7,,,37,63
17088,note_on,,0,0,4,,,,,,,,,3,,,68,63
17098,note_on,,10,0,1,,,,,,,,,0,,,64,0
17100,note_on,,2,0,1,,,,,,,,,0,,,68,79
17108,note_on,,20,0,6,,,,,,,,,5,,,61,0
17110,note_on,,10,0,1,,,,,,,,,0,,,68,0
17112,note_on,,24,0,3,,,,,,,,,2,,,71,63
17112,note_on,,2,0,1,,,,,,,,,0,,,71,79
17112,note_on,,0,0,4,,,,,,,,,3,,,64,63
17112,note_on,,0,0,5,,,,,,,,,4,,,64,56
17112,note_on,,4,0,6,,,,,,,,,5,,,61,56
17112,note_on,,24,0,4,,,,,,,,,3,,,68,0
17112,note_on,,24,0,5,,,,,,,,,4,,,64,0
17122,note_on,,10,0,1,,,,,,,,,0,,,71,0
17124,note_on,,2,0,1,,,,,,,,,0,,,62,79
17128,note_on,,40,0,7,,,,,,,,,6,,,37,0
17128,note_on,,40,0,2,,,,,,,,,1,,,37,0
17128,note_on,,40,0,8,,,,,,,,,7,,,37,0
17132,note_on,,20,0,6,,,,,,,,,5,,,61,0
17134,note_on,,10,0,1,,,,,,,,,0,,,62,0
17136,note_on,,24,0,3,,,,,,,,,2,,,71,0
17136,note_on,,0,0,3,,,,,,,,,2,,,68,63
17136,note_on,,24,0,5,,,,,,,,,4,,,64,0
17136,note_on,,2,0,1,,,,,,,,,0,,,64,79
17136,note_on,,0,0,5,,,,,,,,,4,,,64,56
17136,note_on,,24,0,4,,,,,,,,,3,,,64,0
17136,note_on,,4,0,6,,,,,,,,,5,,,61,56
17146,note_on,,10,0,1,,,,,,,,,0,,,64,0
17148,note_on,,2,0,1,,,,,,,,,0,,,68,79
17156,note_on,,20,0,6,,,,,,,,,5,,,61,0
17158,note_on,,10,0,1,,,,,,,,,0,,,68,0
17160,note_on,,0,0,3,,,,,,,,,2,,,64,63
17160,note_on,,0,0,5,,,,,,,,,4,,,64,56
17160,note_on,,2,0,1,,,,,,,,,0,,,71,79
17160,note_on,,24,0,5,,,,,,,,,4,,,64,0
17160,note_on,,4,0,6,,,,,,,,,5,,,61,56
17160,note_on,,24,0,4,,,,,,,,,3,,,68,63
17160,note_on,,24,0,3,,,,,,,,,2,,,68,0
17170,note_on,,10,0,1,,,,,,,,,0,,,71,0
17172,note_on,,2,0,1,,,,,,,,,0,,,61,79
17180,note_on,,20,0,6,,,,,,,,,5,,,61,0
17182,note_on,,10,0,1,,,,,,,,,0,,,61,0
17184,note_on,,2,0,1,,,,,,,,,0,,,64,79
17184,note_on,,4,0,6,,,,,,,,,5,,,61,56
17184,note_on,,24,0,5,,,,,,,,,4,,,64,0
17184,note_on,,0,0,5,,,,,,,,,4,,,64,56
17184,note_on,,24,0,4,,,,,,,,,3,,,68,0
17184,note_on,,0,0,4,,,,,,,,,3,,,64,63
17184,note_on,,24,0,3,,,,,,,,,2,,,64,0
17194,note_on,,10,0,1,,,,,,,,,0,,,64,0
17196,note_on,,2,0,1,,,,,,,,,0,,,68,79
17204,note_on,,20,0,6,,,,,,,,,5,,,61,0
17206,note_on,,10,0,1,,,,,,,,,0,,,68,0
17208,note_on,,24,0,3,,,,,,,,,2,,,80,63
17208,note_on,,24,0,5,,,,,,,,,4,,,64,0
17208,note_on,,0,0,5,,,,,,,,,4,,,64,56
17208,note_on,,24,0,4,,,,,,,,,3,,,64,0
17208,note_on,,2,0,1,,,,,,,,,0,,,71,79
17208,note_on,,0,0,4,,,,,,,,,3,,,61,63
17208,note_on,,4,0,6,,,,,,,,,5,,,61,56
17218,note_on,,10,0,1,,,,,,,,,0,,,71,0
17220,note_on,,2,0,1,,,,,,,,,0,,,62,79
17228,note_on,,20,0,6,,,,,,,,,5,,,61,0
17230,note_on,,10,0,1,,,,,,,,,0,,,62,0
17232,note_on,,4,0,6,,,,,,,,,5,,,61,56
17232,note_on,,24,0,5,,,,,,,,,4,,,64,0
17232,note_on,,0,0,5,,,,,,,,,4,,,64,56
17232,note_on,,24,0,3,,,,,,,,,2,,,80,0
17232,note_on,,24,0,4,,,,,,,,,3,,,61,0
17232,note_on,,0,0,3,,,,,,,,,2,,,76,63
17232,note_on,,2,0,1,,,,,,,,,0,,,64,79
17242,note_on,,10,0,1,,,,,,,,,0,,,64,0
17244,note_on,,2,0,1,,,,,,,,,0,,,68,79
17252,note_on,,20,0,6,,,,,,,,,5,,,61,0
17254,note_on,,10,0,1,,,,,,,,,0,,,68,0
17256,note_on,,2,0,1,,,,,,,,,0,,,71,79
17256,note_on,,24,0,5,,,,,,,,,4,,,64,0
17256,note_on,,0,0,5,,,,,,,,,4,,,64,56
17256,note_on,,24,0,4,,,,,,,,,3,,,64,63
17256,note_on,,0,0,3,,,,,,,,,2,,,73,63
17256,note_on,,24,0,3,,,,,,,,,2,,,76,0
17256,note_on,,4,0,6,,,,,,,,,5,,,61,56
17266,note_on,,10,0,1,,,,,,,,,0,,,71,0
17268,note_on,,2,0,1,,,,,,,,,0,,,59,79
17276,note_on,,20,0,6,,,,,,,,,5,,,61,0
17278,note_on,,10,0,1,,,,,,,,,0,,,59,0
17280,note_on,,4,0,6,,,,,,,,,5,,,61,56
17280,note_on,,24,0,5,,,,,,,,,4,,,64,0
17280,note_on,,152,0,8,,,,,,,,,7,,,37,63
17280,note_on,,0,0,4,,,,,,,,,3,,,61,63
17280,note_on,,24,0,4,,,,,,,,,3,,,64,0
17280,note_on,,0,0,5,,,,,,,,,4,,,64,56
17280,note_on,,2,0,1,,,,,,,,,0,,,61,79
17280,note_on,,152,0,2,,,,,,,,,1,,,49,63
17280,note_on,,152,0,7,,,,,,,,,6,,,49,63
17280,note_on,,24,0,3,,,,,,,,,2,,,73,0
17290,note_on,,10,0,1,,,,,,,,,0,,,61,0
17292,note_on,,2,0,1,,,,,,,,,0,,,64,79
17300,note_on,,20,0,7,,,,,,,,,6,,,49,0
17300,note_on,,20,0,2,,,,,,,,,1,,,49,0
17302,note_on,,10,0,1,,,,,,,,,0,,,64,0
17304,note_on,,4,0,7,,,,,,,,,6,,,52,63
17304,note_on,,24,0,4,,,,,,,,,3,,,61,0
17304,note_on,,0,0,4,,,,,,,,,3,,,57,63
17304,note_on,,2,0,1,,,,,,,,,0,,,73,79
17304,note_on,,4,0,2,,,,,,,,,1,,,52,63
17304,note_on,,24,0,3,,,,,,,,,2,,,76,63
17314,note_on,,10,0,1,,,,,,,,,0,,,73,0
17316,note_on,,2,0,1,,,,,,,,,0,,,59,79
17320,note_on,,40,0,8,,,,,,,,,7,,,37,0
17320,note_on,,40,0,6,,,,,,,,,5,,,61,0
17324,note_on,,20,0,2,,,,,,,,,1,,,52,0
17324,note_on,,20,0,7,,,,,,,,,6,,,52,0
17326,note_on,,10,0,1,,,,,,,,,0,,,59,0
17328,note_on,,4,0,7,,,,,,,,,6,,,57,63
17328,note_on,,48,0,5,,,,,,,,,4,,,64,0
17328,note_on,,0,0,3,,,,,,,,,2,,,73,63
17328,note_on,,24,0,3,,,,,,,,,2,,,76,0
17328,note_on,,24,0,4,,,,,,,,,3,,,57,0
17328,note_on,,4,0,2,,,,,,,,,1,,,57,63
17328,note_on,,2,0,1,,,,,,,,,0,,,61,79
17338,note_on,,10,0,1,,,,,,,,,0,,,61,0
17340,note_on,,2,0,1,,,,,,,,,0,,,64,79
17348,note_on,,20,0,7,,,,,,,,,6,,,57,0
17348,note_on,,20,0,2,,,,,,,,,1,,,57,0
17350,note_on,,10,0,1,,,,,,,,,0,,,64,0
17352,note_on,,0,0,3,,,,,,,,,2,,,69,63
17352,note_on,,24,0,3,,,,,,,,,2,,,73,0
17352,note_on,,4,0,2,,,,,,,,,1,,,52,63
17352,note_on,,2,0,1,,,,,,,,,0,,,73,79
17352,note_on,,4,0,7,,,,,,,,,6,,,52,63
17352,note_on,,24,0,4,,,,,,,,,3,,,73,63
17362,note_on,,10,0,1,,,,,,,,,0,,,73,0
17364,note_on,,2,0,1,,,,,,,,,0,,,57,79
17372,note_on,,20,0,7,,,,,,,,,6,,,52,0
17372,note_on,,20,0,2,,,,,,,,,1,,,52,0
17374,note_on,,10,0,1,,,,,,,,,0,,,57,0
17376,note_on,,2,0,1,,,,,,,,,0,,,61,79
17376,note_on,,4,0,7,,,,,,,,,6,,,49,63
17376,note_on,,4,0,2,,,,,,,,,1,,,49,63
17376,note_on,,24,0,4,,,,,,,,,3,,,73,0
17376,note_on,,0,0,4,,,,,,,,,3,,,69,63
17376,note_on,,24,0,3,,,,,,,,,2,,,69,0
17386,note_on,,10,0,1,,,,,,,,,0,,,61,0
17388,note_on,,2,0,1,,,,,,,,,0,,,64,79
17396,note_on,,20,0,7,,,,,,,,,6,,,49,0
17396,note_on,,20,0,2,,,,,,,,,1,,,49,0
17398,note_on,,10,0,1,,,,,,,,,0,,,64,0
17400,note_on,,24,0,3,,,,,,,,,2,,,73,63
17400,note_on,,2,0,1,,,,,,,,,0,,,73,79
17400,note_on,,0,0,4,,,,,,,,,3,,,66,63
17400,note_on,,24,0,4,,,,,,,,,3,,,69,0
17400,note_on,,4,0,7,,,,,,,,,6,,,45,63
17400,note_on,,4,0,2,,,,,,,,,1,,,45,63
17410,note_on,,10,0,1,,,,,,,,,0,,,73,0
17412,note_on,,2,0,1,,,,,,,,,0,,,59,79
17420,note_on,,20,0,2,,,,,,,,,1,,,45,0
17420,note_on,,20,0,7,,,,,,,,,6,,,45,0
17422,note_on,,10,0,1,,,,,,,,,0,,,59,0
17424,note_on,,4,0,2,,,,,,,,,1,,,42,63
17424,note_on,,0,0,3,,,,,,,,,2,,,69,63
17424,note_on,,4,0,7,,,,,,,,,6,,,42,63
17424,note_on,,24,0,3,,,,,,,,,2,,,73,0
17424,note_on,,2,0,1,,,,,,,,,0,,,61,79
17424,note_on,,24,0,4,,,,,,,,,3,,,66,0
17434,note_on,,10,0,1,,,,,,,,,0,,,61,0
17436,note_on,,2,0,1,,,,,,,,,0,,,64,79
17444,note_on,,20,0,2,,,,,,,,,1,,,42,0
17444,note_on,,20,0,7,,,,,,,,,6,,,42,0
17446,note_on,,10,0,1,,,,,,,,,0,,,64,0
17448,note_on,,4,0,7,,,,,,,,,6,,,45,63
17448,note_on,,2,0,1,,,,,,,,,0,,,73,79
17448,note_on,,0,0,3,,,,,,,,,2,,,66,63
17448,note_on,,24,0,3,,,,,,,,,2,,,69,0
17448,note_on,,24,0,4,,,,,,,,,3,,,69,63
17448,note_on,,4,0,2,,,,,,,,,1,,,45,63
17458,note_on,,10,0,1,,,,,,,,,0,,,73,0
17460,note_on,,2,0,1,,,,,,,,,0,,,57,79
17468,note_on,,20,0,2,,,,,,,,,1,,,45,0
17468,note_on,,20,0,7,,,,,,,,,6,,,45,0
17470,note_on,,10,0,1,,,,,,,,,0,,,57,0
17472,note_on,,144,0,5,,,,,,,,,4,,,62,56
17472,note_on,,152,0,8,,,,,,,,,7,,,35,63
17472,note_on,,152,0,6,,,,,,,,,5,,,59,56
17472,note_on,,4,0,7,,,,,,,,,6,,,47,63
17472,note_on,,2,0,1,,,,,,,,,0,,,62,79
17472,note_on,,24,0,4,,,,,,,,,3,,,69,0
17472,note_on,,0,0,4,,,,,,,,,3,,,66,63
17472,note_on,,24,0,3,,,,,,,,,2,,,66,0
17472,note_on,,4,0,2,,,,,,,,,1,,,47,63
17482,note_on,,10,0,1,,,,,,,,,0,,,62,0
17484,note_on,,2,0,1,,,,,,,,,0,,,66,79
17492,note_on,,20,0,6,,,,,,,,,5,,,59,0
17494,note_on,,10,0,1,,,,,,,,,0,,,66,0
17496,note_on,,24,0,5,,,,,,,,,4,,,62,0
17496,note_on,,24,0,3,,,,,,,,,2,,,69,63
17496,note_on,,2,0,1,,,,,,,,,0,,,69,79
17496,note_on,,0,0,4,,,,,,,,,3,,,62,63
17496,note_on,,24,0,4,,,,,,,,,3,,,66,0
17496,note_on,,4,0,6,,,,,,,,,5,,,59,56
17496,note_on,,0,0,5,,,,,,,,,4,,,62,56
17506,note_on,,10,0,1,,,,,,,,,0,,,69,0
17508,note_on,,2,0,1,,,,,,,,,0,,,61,79
17512,note_on,,40,0,2,,,,,,,,,1,,,47,0
17512,note_on,,40,0,8,,,,,,,,,7,,,35,0
17512,note_on,,40,0,7,,,,,,,,,6,,,47,0
17516,note_on,,20,0,6,,,,,,,,,5,,,59,0
17518,note_on,,10,0,1,,,,,,,,,0,,,61,0
17520,note_on,,2,0,1,,,,,,,,,0,,,62,79
17520,note_on,,24,0,4,,,,,,,,,3,,,62,0
17520,note_on,,0,0,5,,,,,,,,,4,,,62,56
17520,note_on,,0,0,3,,,,,,,,,2,,,66,63
17520,note_on,,24,0,3,,,,,,,,,2,,,69,0
17520,note_on,,24,0,5,,,,,,,,,4,,,62,0
17520,note_on,,4,0,6,,,,,,,,,5,,,59,56
17530,note_on,,10,0,1,,,,,,,,,0,,,62,0
17532,note_on,,2,0,1,,,,,,,,,0,,,66,79
17540,note_on,,20,0,6,,,,,,,,,5,,,59,0
17542,note_on,,10,0,1,,,,,,,,,0,,,66,0
17544,note_on,,0,0,3,,,,,,,,,2,,,62,63
17544,note_on,,24,0,3,,,,,,,,,2,,,66,0
17544,note_on,,24,0,4,,,,,,,,,3,,,66,63
17544,note_on,,4,0,6,,,,,,,,,5,,,59,56
17544,note_on,,2,0,1,,,,,,,,,0,,,69,79
17544,note_on,,0,0,5,,,,,,,,,4,,,62,56
17544,note_on,,24,0,5,,,,,,,,,4,,,62,0
17554,note_on,,10,0,1,,,,,,,,,0,,,69,0
17556,note_on,,2,0,1,,,,,,,,,0,,,59,79
17564,note_on,,20,0,6,,,,,,,,,5,,,59,0
17566,note_on,,10,0,1,,,,,,,,,0,,,59,0
17568,note_on,,24,0,5,,,,,,,,,4,,,62,0
17568,note_on,,2,0,1,,,,,,,,,0,,,62,79
17568,note_on,,0,0,4,,,,,,,,,3,,,62,63
17568,note_on,,24,0,4,,,,,,,,,3,,,66,0
17568,note_on,,24,0,3,,,,,,,,,2,,,62,0
17568,note_on,,4,0,6,,,,,,,,,5,,,59,56
17568,note_on,,0,0,5,,,,,,,,,4,,,62,56
17578,note_on,,10,0,1,,,,,,,,,0,,,62,0
17580,note_on,,2,0,1,,,,,,,,,0,,,66,79
17588,note_on,,20,0,6,,,,,,,,,5,,,59,0
17590,note_on,,10,0,1,,,,,,,,,0,,,66,0
17592,note_on,,24,0,5,,,,,,,,,4,,,62,0
17592,note_on,,2,0,1,,,,,,,,,0,,,69,79
17592,note_on,,0,0,5,,,,,,,,,4,,,62,56
17592,note_on,,24,0,3,,,,,,,,,2,,,78,63
17592,note_on,,0,0,4,,,,,,,,,3,,,59,63
17592,note_on,,24,0,4,,,,,,,,,3,,,62,0
17592,note_on,,4,0,6,,,,,,,,,5,,,59,56
17602,note_on,,10,0,1,,,,,,,,,0,,,69,0
17604,note_on,,2,0,1,,,,,,,,,0,,,61,79
17612,note_on,,20,0,6,,,,,,,,,5,,,59,0
17614,note_on,,10,0,1,,,,,,,,,0,,,61,0
17616,note_on,,0,0,5,,,,,,,,,4,,,62,56
17616,note_on,,24,0,3,,,,,,,,,2,,,78,0
17616,note_on,,24,0,4,,,,,,,,,3,,,59,0
17616,note_on,,0,0,3,,,,,,,,,2,,,74,63
17616,note_on,,4,0,6,,,,,,,,,5,,,59,56
17616,note_on,,24,0,5,,,,,,,,,4,,,62,0
17616,note_on,,2,0,1,,,,,,,,,0,,,62,79
17626,note_on,,10,0,1,,,,,,,,,0,,,62,0
17628,note_on,,2,0,1,,,,,,,,,0,,,66,79
17636,note_on,,20,0,6,,,,,,,,,5,,,59,0
17638,note_on,,10,0,1,,,,,,,,,0,,,66,0
17640,note_on,,0,0,3,,,,,,,,,2,,,71,63
17640,note_on,,24,0,3,,,,,,,,,2,,,74,0
17640,note_on,,0,0,5,,,,,,,,,4,,,62,56
17640,note_on,,2,0,1,,,,,,,,,0,,,69,79
17640,note_on,,24,0,4,,,,,,,,,3,,,62,63
17640,note_on,,24,0,5,,,,,,,,,4,,,62,0
17640,note_on,,4,0,6,,,,,,,,,5,,,59,56
17650,note_on,,10,0,1,,,,,,,,,0,,,69,0
17652,note_on,,2,0,1,,,,,,,,,0,,,59,79
17660,note_on,,20,0,6,,,,,,,,,5,,,59,0
17662,note_on,,10,0,1,,,,,,,,,0,,,59,0
17664,note_on,,24,0,3,,,,,,,,,2,,,71,0
17664,note_on,,0,0,3,,,,,,,,,2,,,68,63
17664,note_on,,152,0,8,,,,,,,,,7,,,28,63
17664,note_on,,152,0,2,,,,,,,,,1,,,40,63
17664,note_on,,4,0,6,,,,,,,,,5,,,52,56
17664,note_on,,0,0,5,,,,,,,,,4,,,59,56
17664,note_on,,152,0,7,,,,,,,,,6,,,40,63
17664,note_on,,0,0,4,,,,,,,,,3,,,62,63
17664,note_on,,2,0,1,,,,,,,,,0,,,62,79
17664,note_on,,24,0,5,,,,,,,,,4,,,62,0
17664,note_on,,24,0,4,,,,,,,,,3,,,62,0
17674,note_on,,10,0,1,,,,,,,,,0,,,62,0
17676,note_on,,2,0,1,,,,,,,,,0,,,64,79
17684,note_on,,20,0,2,,,,,,,,,1,,,40,0
17684,note_on,,20,0,7,,,,,,,,,6,,,40,0
17686,note_on,,10,0,1,,,,,,,,,0,,,64,0
17688,note_on,,4,0,7,,,,,,,,,6,,,59,63
17688,note_on,,4,0,2,,,,,,,,,1,,,59,63
17688,note_on,,2,0,1,,,,,,,,,0,,,68,79
17698,note_on,,10,0,1,,,,,,,,,0,,,68,0
17700,note_on,,2,0,1,,,,,,,,,0,,,61,79
17704,note_on,,40,0,3,,,,,,,,,2,,,68,0
17704,note_on,,40,0,6,,,,,,,,,5,,,52,0
17704,note_on,,40,0,8,,,,,,,,,7,,,28,0
17708,note_on,,20,0,7,,,,,,,,,6,,,59,0
17708,note_on,,20,0,2,,,,,,,,,1,,,59,0
17710,note_on,,10,0,1,,,,,,,,,0,,,61,0
17712,note_on,,4,0,2,,,,,,,,,1,,,56,63
17712,note_on,,48,0,4,,,,,,,,,3,,,62,0
17712,note_on,,4,0,7,,,,,,,,,6,,,56,63
17712,note_on,,2,0,1,,,,,,,,,0,,,62,79
17712,note_on,,48,0,5,,,,,,,,,4,,,59,0
17722,note_on,,10,0,1,,,,,,,,,0,,,62,0
17724,note_on,,2,0,1,,,,,,,,,0,,,64,79
17732,note_on,,20,0,2,,,,,,,,,1,,,56,0
17732,note_on,,20,0,7,,,,,,,,,6,,,56,0
17734,note_on,,10,0,1,,,,,,,,,0,,,64,0
17736,note_on,,4,0,2,,,,,,,,,1,,,52,63
17736,note_on,,2,0,1,,,,,,,,,0,,,68,79
17736,note_on,,4,0,7,,,,,,,,,6,,,52,63
17746,note_on,,10,0,1,,,,,,,,,0,,,68,0
17748,note_on,,2,0,1,,,,,,,,,0,,,59,79
17756,note_on,,20,0,7,,,,,,,,,6,,,52,0
17756,note_on,,20,0,2,,,,,,,,,1,,,52,0
17758,note_on,,10,0,1,,,,,,,,,0,,,59,0
17760,note_on,,4,0,7,,,,,,,,,6,,,47,63
17760,note_on,,2,0,1,,,,,,,,,0,,,62,79
17760,note_on,,4,0,2,,,,,,,,,1,,,47,63
17770,note_on,,10,0,1,,,,,,,,,0,,,62,0
17772,note_on,,2,0,1,,,,,,,,,0,,,64,79
17780,note_on,,20,0,7,,,,,,,,,6,,,47,0
17780,note_on,,20,0,2,,,,,,,,,1,,,47,0
17782,note_on,,10,0,1,,,,,,,,,0,,,64,0
17784,note_on,,4,0,2,,,,,,,,,1,,,52,63
17784,note_on,,2,0,1,,,,,,,,,0,,,68,79
17784,note_on,,4,0,7,,,,,,,,,6,,,52,63
17794,note_on,,10,0,1,,,,,,,,,0,,,68,0
17796,note_on,,2,0,1,,,,,,,,,0,,,61,79
17804,note_on,,20,0,7,,,,,,,,,6,,,52,0
17804,note_on,,20,0,2,,,,,,,,,1,,,52,0
17806,note_on,,10,0,1,,,,,,,,,0,,,61,0
17808,note_on,,4,0,2,,,,,,,,,1,,,47,63
17808,note_on,,4,0,7,,,,,,,,,6,,,47,63
17808,note_on,,2,0,1,,,,,,,,,0,,,62,79
17818,note_on,,10,0,1,,,,,,,,,0,,,62,0
17820,note_on,,2,0,1,,,,,,,,,0,,,64,79
17828,note_on,,20,0,7,,,,,,,,,6,,,47,0
17828,note_on,,20,0,2,,,,,,,,,1,,,47,0
17830,note_on,,10,0,1,,,,,,,,,0,,,64,0
17832,note_on,,4,0,7,,,,,,,,,6,,,44,63
17832,note_on,,4,0,2,,,,,,,,,1,,,44,63
17832,note_on,,2,0,1,,,,,,,,,0,,,68,79
17842,note_on,,10,0,1,,,,,,,,,0,,,68,0
17844,note_on,,2,0,1,,,,,,,,,0,,,59,79
17852,note_on,,20,0,7,,,,,,,,,6,,,44,0
17852,note_on,,20,0,2,,,,,,,,,1,,,44,0
17854,note_on,,10,0,1,,,,,,,,,0,,,59,0
17856,note_on,,2,0,1,,,,,,,,,0,,,61,79
17856,note_on,,4,0,7,,,,,,,,,6,,,40,63
17856,note_on,,152,0,3,,,,,,,,,2,,,69,63
17856,note_on,,144,0,4,,,,,,,,,3,,,61,63
17856,note_on,,152,0,6,,,,,,,,,5,,,54,56
17856,note_on,,152,0,8,,,,,,,,,7,,,28,63
17856,note_on,,144,0,5,,,,,,,,,4,,,64,56
17856,note_on,,4,0,2,,,,,,,,,1,,,40,63
17866,note_on,,10,0,1,,,,,,,,,0,,,61,0
17868,note_on,,2,0,1,,,,,,,,,0,,,64,79
17876,note_on,,20,0,2,,,,,,,,,1,,,40,0
17876,note_on,,20,0,7,,,,,,,,,6,,,40,0
17878,note_on,,10,0,1,,,,,,,,,0,,,64,0
17880,note_on,,4,0,7,,,,,,,,,6,,,57,63
17880,note_on,,2,0,1,,,,,,,,,0,,,69,79
17880,note_on,,4,0,2,,,,,,,,,1,,,57,63
17890,note_on,,10,0,1,,,,,,,,,0,,,69,0
17892,note_on,,2,0,1,,,,,,,,,0,,,61,79
17896,note_on,,40,0,3,,,,,,,,,2,,,69,0
17896,note_on,,40,0,8,,,,,,,,,7,,,28,0
17896,note_on,,40,0,6,,,,,,,,,5,,,54,0
17900,note_on,,20,0,2,,,,,,,,,1,,,57,0
17900,note_on,,20,0,7,,,,,,,,,6,,,57,0
17902,note_on,,10,0,1,,,,,,,,,0,,,61,0
17904,note_on,,2,0,1,,,,,,,,,0,,,62,79
17904,note_on,,48,0,4,,,,,,,,,3,,,61,0
17904,note_on,,4,0,7,,,,,,,,,6,,,52,63
17904,note_on,,48,0,5,,,,,,,,,4,,,64,0
17904,note_on,,4,0,2,,,,,,,,,1,,,52,63
17914,note_on,,10,0,1,,,,,,,,,0,,,62,0
17916,note_on,,2,0,1,,,,,,,,,0,,,68,79
17924,note_on,,20,0,7,,,,,,,,,6,,,52,0
17924,note_on,,20,0,2,,,,,,,,,1,,,52,0
17926,note_on,,10,0,1,,,,,,,,,0,,,68,0
17928,note_on,,2,0,1,,,,,,,,,0,,,71,79
17928,note_on,,4,0,7,,,,,,,,,6,,,49,63
17928,note_on,,4,0,2,,,,,,,,,1,,,49,63
17938,note_on,,10,0,1,,,,,,,,,0,,,71,0
17940,note_on,,2,0,1,,,,,,,,,0,,,62,79
17948,note_on,,20,0,2,,,,,,,,,1,,,49,0
17948,note_on,,20,0,7,,,,,,,,,6,,,49,0
17950,note_on,,10,0,1,,,,,,,,,0,,,62,0
17952,note_on,,4,0,2,,,,,,,,,1,,,45,63
17952,note_on,,4,0,7,,,,,,,,,6,,,45,63
17952,note_on,,2,0,1,,,,,,,,,0,,,64,79
17962,note_on,,10,0,1,,,,,,,,,0,,,64,0
17964,note_on,,2,0,1,,,,,,,,,0,,,69,79
17972,note_on,,20,0,2,,,,,,,,,1,,,45,0
17972,note_on,,20,0,7,,,,,,,,,6,,,45,0
17974,note_on,,10,0,1,,,,,,,,,0,,,69,0
17976,note_on,,4,0,7,,,,,,,,,6,,,52,63
17976,note_on,,4,0,2,,,,,,,,,1,,,52,63
17976,note_on,,2,0,1,,,,,,,,,0,,,73,79
17986,note_on,,10,0,1,,,,,,,,,0,,,73,0
17988,note_on,,2,0,1,,,,,,,,,0,,,64,79
17996,note_on,,20,0,2,,,,,,,,,1,,,52,0
17996,note_on,,20,0,7,,,,,,,,,6,,,52,0
17998,note_on,,10,0,1,,,,,,,,,0,,,64,0
18000,note_on,,2,0,1,,,,,,,,,0,,,66,79
18000,note_on,,4,0,2,,,,,,,,,1,,,49,63
18000,note_on,,4,0,7,,,,,,,,,6,,,49,63
18010,note_on,,10,0,1,,,,,,,,,0,,,66,0
18012,note_on,,2,0,1,,,,,,,,,0,,,69,79
18020,note_on,,20,0,2,,,,,,,,,1,,,49,0
18020,note_on,,20,0,7,,,,,,,,,6,,,49,0
18022,note_on,,10,0,1,,,,,,,,,0,,,69,0
18024,note_on,,4,0,2,,,,,,,,,1,,,45,63
18024,note_on,,2,0,1,,,,,,,,,0,,,74,79
18024,note_on,,4,0,7,,,,,,,,,6,,,45,63
18034,note_on,,10,0,1,,,,,,,,,0,,,74,0
18036,note_on,,2,0,1,,,,,,,,,0,,,66,79
18044,note_on,,20,0,7,,,,,,,,,6,,,45,0
18044,note_on,,20,0,2,,,,,,,,,1,,,45,0
18046,note_on,,10,0,1,,,,,,,,,0,,,66,0
18048,note_on,,152,0,8,,,,,,,,,7,,,28,63
18048,note_on,,4,0,2,,,,,,,,,1,,,40,63
18048,note_on,,2,0,1,,,,,,,,,0,,,68,79
18048,note_on,,4,0,7,,,,,,,,,6,,,40,63
18048,note_on,,152,0,3,,,,,,,,,2,,,77,63
18048,note_on,,144,0,4,,,,,,,,,3,,,74,63
18053,note_on,,5,0,3,,,,,,,,,2,,,77,0
18054,note_on,,6,0,4,,,,,,,,,3,,,74,0
18054,note_on,,0,0,4,,,,,,,,,3,,,76,63
18054,note_on,,1,0,3,,,,,,,,,2,,,79,63
18058,note_on,,10,0,1,,,,,,,,,0,,,68,0
18059,note_on,,5,0,3,,,,,,,,,2,,,79,0
18060,note_on,,0,0,4,,,,,,,,,3,,,74,63
18060,note_on,,2,0,1,,,,,,,,,0,,,71,79
18060,note_on,,1,0,3,,,,,,,,,2,,,77,63
18060,note_on,,6,0,4,,,,,,,,,3,,,76,0
18065,note_on,,5,0,3,,,,,,,,,2,,,77,0
18066,note_on,,6,0,4,,,,,,,,,3,,,74,0
18066,note_on,,0,0,4,,,,,,,,,3,,,76,63
18066,note_on,,1,0,3,,,,,,,,,2,,,79,63
18068,note_on,,20,0,7,,,,,,,,,6,,,40,0
18068,note_on,,20,0,2,,,,,,,,,1,,,40,0
18070,note_on,,10,0,1,,,,,,,,,0,,,71,0
18071,note_on,,5,0,3,,,,,,,,,2,,,79,0
18072,note_on,,176,0,6,,,,,,,,,5,,,68,56
18072,note_on,,6,0,4,,,,,,,,,3,,,76,0
18072,note_on,,0,0,4,,,,,,,,,3,,,74,63
18072,note_on,,1,0,3,,,,,,,,,2,,,77,63
18072,note_on,,4,0,7,,,,,,,,,6,,,56,63
18072,note_on,,168,0,5,,,,,,,,,4,,,71,56
18072,note_on,,2,0,1,,,,,,,,,0,,,74,79
18072,note_on,,4,0,2,,,,,,,,,1,,,56,63
18077,note_on,,5,0,3,,,,,,,,,2,,,77,0
18078,note_on,,1,0,3,,,,,,,,,2,,,79,63
18078,note_on,,0,0,4,,,,,,,,,3,,,76,63
18078,note_on,,6,0,4,,,,,,,,,3,,,74,0
18082,note_on,,10,0,1,,,,,,,,,0,,,74,0
18083,note_on,,5,0,3,,,,,,,,,2,,,79,0
18084,note_on,,1,0,3,,,,,,,,,2,,,77,63
18084,note_on,,0,0,4,,,,,,,,,3,,,74,63
18084,note_on,,2,0,1,,,,,,,,,0,,,66,79
18084,note_on,,6,0,4,,,,,,,,,3,,,76,0
18088,note_on,,40,0,8,,,,,,,,,7,,,28,0
18089,note_on,,5,0,3,,,,,,,,,2,,,77,0
18090,note_on,,0,0,4,,,,,,,,,3,,,76,63
18090,note_on,,1,0,3,,,,,,,,,2,,,79,63
18090,note_on,,6,0,4,,,,,,,,,3,,,74,0
18092,note_on,,20,0,2,,,,,,,,,1,,,56,0
18092,note_on,,20,0,7,,,,,,,,,6,,,56,0
18092,note_on,,20,0,6,,,,,,,,,5,,,68,0
18094,note_on,,10,0,1,,,,,,,,,0,,,66,0
18095,note_on,,5,0,3,,,,,,,,,2,,,79,0
18096,note_on,,1,0,3,,,,,,,,,2,,,77,63
18096,note_on,,2,0,1,,,,,,,,,0,,,68,79
18096,note_on,,4,0,7,,,,,,,,,6,,,52,63
18096,note_on,,24,0,5,,,,,,,,,4,,,71,0
18096,note_on,,0,0,5,,,,,,,,,4,,,71,56
18096,note_on,,4,0,6,,,,,,,,,5,,,68,56
18096,note_on,,6,0,4,,,,,,,,,3,,,76,0
18096,note_on,,0,0,4,,,,,,,,,3,,,74,63
18096,note_on,,4,0,2,,,,,,,,,1,,,52,63
18101,note_on,,5,0,3,,,,,,,,,2,,,77,0
18102,note_on,,1,0,3,,,,,,,,,2,,,79,63
18102,note_on,,6,0,4,,,,,,,,,3,,,74,0
18102,note_on,,0,0,4,,,,,,,,,3,,,76,63
18106,note_on,,10,0,1,,,,,,,,,0,,,68,0
18107,note_on,,5,0,3,,,,,,,,,2,,,79,0
18108,note_on,,0,0,4,,,,,,,,,3,,,74,63
18108,note_on,,6,0,4,,,,,,,,,3,,,76,0
18108,note_on,,1,0,3,,,,,,,,,2,,,77,63
18108,note_on,,2,0,1,,,,,,,,,0,,,71,79
18113,note_on,,5,0,3,,,,,,,,,2,,,77,0
18114,note_on,,1,0,3,,,,,,,,,2,,,79,63
18114,note_on,,6,0,4,,,,,,,,,3,,,74,0
18114,note_on,,0,0,4,,,,,,,,,3,,,76,63
18116,note_on,,20,0,6,,,,,,,,,5,,,68,0
18116,note_on,,20,0,2,,,,,,,,,1,,,52,0
18116,note_on,,20,0,7,,,,,,,,,6,,,52,0
18118,note_on,,10,0,1,,,,,,,,,0,,,71,0
18119,note_on,,5,0,3,,,,,,,,,2,,,79,0
18120,note_on,,6,0,4,,,,,,,,,3,,,76,0
18120,note_on,,0,0,5,,,,,,,,,4,,,71,56
18120,note_on,,24,0,5,,,,,,,,,4,,,71,0
18120,note_on,,4,0,6,,,,,,,,,5,,,68,56
18120,note_on,,2,0,1,,,,,,,,,0,,,74,79
18120,note_on,,4,0,7,,,,,,,,,6,,,47,63
18120,note_on,,0,0,4,,,,,,,,,3,,,74,63
18120,note_on,,4,0,2,,,,,,,,,1,,,47,63
18120,note_on,,1,0,3,,,,,,,,,2,,,77,63
18125,note_on,,5,0,3,,,,,,,,,2,,,77,0
18126,note_on,,0,0,4,,,,,,,,,3,,,76,63
18126,note_on,,1,0,3,,,,,,,,,2,,,79,63
18126,note_on,,6,0,4,,,,,,,,,3,,,74,0
18130,note_on,,10,0,1,,,,,,,,,0,,,74,0
18131,note_on,,5,0,3,,,,,,,,,2,,,79,0
18132,note_on,,1,0,3,,,,,,,,,2,,,77,63
18132,note_on,,0,0,4,,,,,,,,,3,,,74,63
18132,note_on,,2,0,1,,,,,,,,,0,,,64,79
18132,note_on,,6,0,4,,,,,,,,,3,,,76,0
18137,note_on,,5,0,3,,,,,,,,,2,,,77,0
18138,note_on,,6,0,4,,,,,,,,,3,,,74,0
18138,note_on,,0,0,4,,,,,,,,,3,,,76,63
18138,note_on,,1,0,3,,,,,,,,,2,,,79,63
18140,note_on,,20,0,7,,,,,,,,,6,,,47,0
18140,note_on,,20,0,2,,,,,,,,,1,,,47,0
18140,note_on,,20,0,6,,,,,,,,,5,,,68,0
18142,note_on,,10,0,1,,,,,,,,,0,,,64,0
18143,note_on,,5,0,3,,,,,,,,,2,,,79,0
18144,note_on,,1,0,3,,,,,,,,,2,,,77,63
18144,note_on,,4,0,2,,,,,,,,,1,,,44,63
18144,note_on,,24,0,5,,,,,,,,,4,,,71,0
18144,note_on,,4,0,7,,,,,,,,,6,,,44,63
18144,note_on,,2,0,1,,,,,,,,,0,,,68,79
18144,note_on,,6,0,4,,,,,,,,,3,,,76,0
18144,note_on,,0,0,4,,,,,,,,,3,,,74,63
18149,note_on,,5,0,3,,,,,,,,,2,,,77,0
18150,note_on,,1,0,3,,,,,,,,,2,,,79,63
18150,note_on,,0,0,4,,,,,,,,,3,,,76,63
18150,note_on,,6,0,4,,,,,,,,,3,,,74,0
18154,note_on,,10,0,1,,,,,,,,,0,,,68,0
18155,note_on,,5,0,3,,,,,,,,,2,,,79,0
18156,note_on,,2,0,1,,,,,,,,,0,,,71,79
18156,note_on,,6,0,4,,,,,,,,,3,,,76,0
18156,note_on,,1,0,3,,,,,,,,,2,,,77,63
18156,note_on,,0,0,4,,,,,,,,,3,,,74,63
18161,note_on,,5,0,3,,,,,,,,,2,,,77,0
18162,note_on,,6,0,4,,,,,,,,,3,,,74,0
18162,note_on,,1,0,3,,,,,,,,,2,,,79,63
18162,note_on,,0,0,4,,,,,,,,,3,,,76,63
18164,note_on,,20,0,7,,,,,,,,,6,,,44,0
18164,note_on,,20,0,2,,,,,,,,,1,,,44,0
18166,note_on,,10,0,1,,,,,,,,,0,,,71,0
18167,note_on,,5,0,3,,,,,,,,,2,,,79,0
18168,note_on,,4,0,7,,,,,,,,,6,,,52,63
18168,note_on,,28,0,6,,,,,,,,,5,,,68,56
18168,note_on,,4,0,2,,,,,,,,,1,,,52,63
18168,note_on,,2,0,1,,,,,,,,,0,,,74,79
18168,note_on,,24,0,5,,,,,,,,,4,,,71,56
18168,note_on,,1,0,3,,,,,,,,,2,,,77,63
18168,note_on,,6,0,4,,,,,,,,,3,,,76,0
18168,note_on,,0,0,4,,,,,,,,,3,,,74,63
18173,note_on,,5,0,3,,,,,,,,,2,,,77,0
18174,note_on,,1,0,3,,,,,,,,,2,,,79,63
18174,note_on,,0,0,4,,,,,,,,,3,,,76,63
18174,note_on,,6,0,4,,,,,,,,,3,,,74,0
18178,note_on,,10,0,1,,,,,,,,,0,,,74,0
18179,note_on,,5,0,3,,,,,,,,,2,,,79,0
18180,note_on,,6,0,4,,,,,,,,,3,,,76,0
18180,note_on,,0,0,4,,,,,,,,,3,,,74,63
18180,note_on,,1,0,3,,,,,,,,,2,,,77,63
18180,note_on,,2,0,1,,,,,,,,,0,,,66,79
18185,note_on,,5,0,3,,,,,,,,,2,,,77,0
18186,note_on,,6,0,4,,,,,,,,,3,,,74,0
18186,note_on,,0,0,4,,,,,,,,,3,,,76,63
18186,note_on,,1,0,3,,,,,,,,,2,,,79,63
18188,note_on,,20,0,6,,,,,,,,,5,,,68,0
18188,note_on,,20,0,7,,,,,,,,,6,,,52,0
18188,note_on,,20,0,2,,,,,,,,,1,,,52,0
18190,note_on,,10,0,1,,,,,,,,,0,,,66,0
18191,note_on,,5,0,3,,,,,,,,,2,,,79,0
18192,note_on,,2,0,1,,,,,,,,,0,,,68,79
18192,note_on,,0,0,5,,,,,,,,,4,,,71,56
18192,note_on,,4,0,2,,,,,,,,,1,,,47,63
18192,note_on,,4,0,6,,,,,,,,,5,,,68,56
18192,note_on,,6,0,4,,,,,,,,,3,,,76,0
18192,note_on,,0,0,4,,,,,,,,,3,,,74,63
18192,note_on,,4,0,7,,,,,,,,,6,,,47,63
18192,note_on,,24,0,5,,,,,,,,,4,,,71,0
18192,note_on,,1,0,3,,,,,,,,,2,,,77,63
18197,note_on,,5,0,3,,,,,,,,,2,,,77,0
18198,note_on,,0,0,4,,,,,,,,,3,,,76,63
18198,note_on,,1,0,3,,,,,,,,,2,,,79,63
18198,note_on,,6,0,4,,,,,,,,,3,,,74,0
18202,note_on,,10,0,1,,,,,,,,,0,,,68,0
18203,note_on,,5,0,3,,,,,,,,,2,,,79,0
18204,note_on,,6,0,4,,,,,,,,,3,,,76,0
18204,note_on,,1,0,3,,,,,,,,,2,,,77,63
18204,note_on,,0,0,4,,,,,,,,,3,,,74,63
18204,note_on,,2,0,1,,,,,,,,,0,,,71,79
18209,note_on,,5,0,3,,,,,,,,,2,,,77,0
18210,note_on,,6,0,4,,,,,,,,,3,,,74,0
18210,note_on,,1,0,3,,,,,,,,,2,,,79,63
18210,note_on,,0,0,4,,,,,,,,,3,,,76,63
18212,note_on,,20,0,2,,,,,,,,,1,,,47,0
18212,note_on,,20,0,6,,,,,,,,,5,,,68,0
18212,note_on,,20,0,7,,,,,,,,,6,,,47,0
18214,note_on,,10,0,1,,,,,,,,,0,,,71,0
18215,note_on,,5,0,3,,,,,,,,,2,,,79,0
18216,note_on,,4,0,6,,,,,,,,,5,,,68,56
18216,note_on,,24,0,5,,,,,,,,,4,,,71,0
18216,note_on,,0,0,4,,,,,,,,,3,,,74,63
18216,note_on,,6,0,4,,,,,,,,,3,,,76,0
18216,note_on,,0,0,5,,,,,,,,,4,,,71,56
18216,note_on,,2,0,1,,,,,,,,,0,,,74,79
18216,note_on,,4,0,2,,,,,,,,,1,,,44,63
18216,note_on,,1,0,3,,,,,,,,,2,,,77,63
18216,note_on,,4,0,7,,,,,,,,,6,,,44,63
18221,note_on,,5,0,3,,,,,,,,,2,,,77,0
18222,note_on,,1,0,3,,,,,,,,,2,,,79,63
18222,note_on,,0,0,4,,,,,,,,,3,,,76,63
18222,note_on,,6,0,4,,,,,,,,,3,,,74,0
18226,note_on,,10,0,1,,,,,,,,,0,,,74,0
18227,note_on,,5,0,3,,,,,,,,,2,,,79,0
18228,note_on,,1,0,3,,,,,,,,,2,,,77,63
18228,note_on,,0,0,4,,,,,,,,,3,,,74,63
18228,note_on,,6,0,4,,,,,,,,,3,,,76,0
18228,note_on,,2,0,1,,,,,,,,,0,,,64,79
18233,note_on,,5,0,3,,,,,,,,,2,,,77,0
18234,note_on,,1,0,3,,,,,,,,,2,,,79,63
18234,note_on,,6,0,4,,,,,,,,,3,,,74,0
18234,note_on,,0,0,4,,,,,,,,,3,,,76,63
18236,note_on,,20,0,2,,,,,,,,,1,,,44,0
18236,note_on,,20,0,7,,,,,,,,,6,,,44,0
18236,note_on,,20,0,6,,,,,,,,,5,,,68,0
18238,note_on,,10,0,1,,,,,,,,,0,,,64,0
18239,note_on,,5,0,3,,,,,,,,,2,,,79,0
18240,note_on,,0,0,4,,,,,,,,,3,,,75,63
18240,note_on,,2,0,1,,,,,,,,,0,,,69,79
18240,note_on,,4,0,2,,,,,,,,,1,,,40,63
18240,note_on,,1,0,3,,,,,,,,,2,,,78,63
18240,note_on,,152,0,8,,,,,,,,,7,,,28,63
18240,note_on,,6,0,4,,,,,,,,,3,,,76,0
18240,note_on,,24,0,5,,,,,,,,,4,,,71,0
18240,note_on,,4,0,7,,,,,,,,,6,,,40,63
18245,note_on,,5,0,3,,,,,,,,,2,,,78,0
18246,note_on,,1,0,3,,,,,,,,,2,,,79,63
18246,note_on,,0,0,4,,,,,,,,,3,,,76,63
18246,note_on,,6,0,4,,,,,,,,,3,,,75,0
18250,note_on,,10,0,1,,,,,,,,,0,,,69,0
18251,note_on,,5,0,3,,,,,,,,,2,,,79,0
18252,note_on,,1,0,3,,,,,,,,,2,,,78,63
18252,note_on,,0,0,4,,,,,,,,,3,,,75,63
18252,note_on,,6,0,4,,,,,,,,,3,,,76,0
18252,note_on,,2,0,1,,,,,,,,,0,,,71,79
18257,note_on,,5,0,3,,,,,,,,,2,,,78,0
18258,note_on,,1,0,3,,,,,,,,,2,,,79,63
18258,note_on,,6,0,4,,,,,,,,,3,,,75,0
18258,note_on,,0,0,4,,,,,,,,,3,,,76,63
18260,note_on,,20,0,7,,,,,,,,,6,,,40,0
18260,note_on,,20,0,2,,,,,,,,,1,,,40,0
18262,note_on,,10,0,1,,,,,,,,,0,,,71,0
18263,note_on,,5,0,3,,,,,,,,,2,,,79,0
18264,note_on,,1,0,3,,,,,,,,,2,,,78,63
18264,note_on,,4,0,2,,,,,,,,,1,,,57,63
18264,note_on,,2,0,1,,,,,,,,,0,,,72,79
18264,note_on,,28,0,6,,,,,,,,,5,,,69,56
18264,note_on,,6,0,4,,,,,,,,,3,,,76,0
18264,note_on,,24,0,5,,,,,,,,,4,,,72,56
18264,note_on,,4,0,7,,,,,,,,,6,,,57,63
18264,note_on,,0,0,4,,,,,,,,,3,,,75,63
18269,note_on,,5,0,3,,,,,,,,,2,,,78,0
18270,note_on,,1,0,3,,,,,,,,,2,,,79,63
18270,note_on,,0,0,4,,,,,,,,,3,,,76,63
18270,note_on,,6,0,4,,,,,,,,,3,,,75,0
18274,note_on,,10,0,1,,,,,,,,,0,,,72,0
18275,note_on,,5,0,3,,,,,,,,,2,,,79,0
18276,note_on,,0,0,4,,,,,,,,,3,,,75,63
18276,note_on,,1,0,3,,,,,,,,,2,,,78,63
18276,note_on,,2,0,1,,,,,,,,,0,,,68,79
18276,note_on,,6,0,4,,,,,,,,,3,,,76,0
18280,note_on,,40,0,8,,,,,,,,,7,,,28,0
18281,note_on,,5,0,3,,,,,,,,,2,,,78,0
18282,note_on,,6,0,4,,,,,,,,,3,,,75,0
18282,note_on,,0,0,4,,,,,,,,,3,,,76,63
18282,note_on,,1,0,3,,,,,,,,,2,,,79,63
18284,note_on,,20,0,2,,,,,,,,,1,,,57,0
18284,note_on,,20,0,6,,,,,,,,,5,,,69,0
18284,note_on,,20,0,7,,,,,,,,,6,,,57,0
18286,note_on,,10,0,1,,,,,,,,,0,,,68,0
18287,note_on,,5,0,3,,,,,,,,,2,,,79,0
18288,note_on,,0,0,4,,,,,,,,,3,,,75,63
18288,note_on,,0,0,5,,,,,,,,,4,,,72,56
18288,note_on,,24,0,5,,,,,,,,,4,,,72,0
18288,note_on,,4,0,2,,,,,,,,,1,,,54,63
18288,note_on,,6,0,4,,,,,,,,,3,,,76,0
18288,note_on,,2,0,1,,,,,,,,,0,,,69,79
18288,note_on,,4,0,7,,,,,,,,,6,,,54,63
18288,note_on,,1,0,3,,,,,,,,,2,,,78,63
18288,note_on,,4,0,6,,,,,,,,,5,,,69,56
18293,note_on,,5,0,3,,,,,,,,,2,,,78,0
18294,note_on,,6,0,4,,,,,,,,,3,,,75,0
18294,note_on,,0,0,4,,,,,,,,,3,,,76,63
18294,note_on,,1,0,3,,,,,,,,,2,,,79,63
18298,note_on,,10,0,1,,,,,,,,,0,,,69,0
18299,note_on,,5,0,3,,,,,,,,,2,,,79,0
18300,note_on,,6,0,4,,,,,,,,,3,,,76,0
18300,note_on,,2,0,1,,,,,,,,,0,,,71,79
18300,note_on,,1,0,3,,,,,,,,,2,,,78,63
18300,note_on,,0,0,4,,,,,,,,,3,,,75,63
18305,note_on,,5,0,3,,,,,,,,,2,,,78,0
18306,note_on,,6,0,4,,,,,,,,,3,,,75,0
18306,note_on,,0,0,4,,,,,,,,,3,,,76,63
18306,note_on,,1,0,3,,,,,,,,,2,,,79,63
18308,note_on,,20,0,6,,,,,,,,,5,,,69,0
18308,note_on,,20,0,2,,,,,,,,,1,,,54,0
18308,note_on,,20,0,7,,,,,,,,,6,,,54,0
18310,note_on,,10,0,1,,,,,,,,,0,,,71,0
18311,note_on,,5,0,3,,,,,,,,,2,,,79,0
18312,note_on,,4,0,2,,,,,,,,,1,,,51,63
18312,note_on,,2,0,1,,,,,,,,,0,,,72,79
18312,note_on,,4,0,7,,,,,,,,,6,,,51,63
18312,note_on,,1,0,3,,,,,,,,,2,,,78,63
18312,note_on,,4,0,6,,,,,,,,,5,,,69,56
18312,note_on,,0,0,5,,,,,,,,,4,,,72,56
18312,note_on,,24,0,5,,,,,,,,,4,,,72,0
18312,note_on,,0,0,4,,,,,,,,,3,,,75,63
18312,note_on,,6,0,4,,,,,,,,,3,,,76,0
18317,note_on,,5,0,3,,,,,,,,,2,,,78,0
18318,note_on,,1,0,3,,,,,,,,,2,,,79,63
18318,note_on,,6,0,4,,,,,,,,,3,,,75,0
18318,note_on,,0,0,4,,,,,,,,,3,,,76,63
18322,note_on,,10,0,1,,,,,,,,,0,,,72,0
18323,note_on,,5,0,3,,,,,,,,,2,,,79,0
18324,note_on,,6,0,4,,,,,,,,,3,,,76,0
18324,note_on,,0,0,4,,,,,,,,,3,,,75,63
18324,note_on,,1,0,3,,,,,,,,,2,,,78,63
18324,note_on,,2,0,1,,,,,,,,,0,,,63,79
18329,note_on,,5,0,3,,,,,,,,,2,,,78,0
18330,note_on,,6,0,4,,,,,,,,,3,,,75,0
18330,note_on,,1,0,3,,,,,,,,,2,,,79,63
18330,note_on,,0,0,4,,,,,,,,,3,,,76,63
18332,note_on,,20,0,7,,,,,,,,,6,,,51,0
18332,note_on,,20,0,6,,,,,,,,,5,,,69,0
18332,note_on,,20,0,2,,,,,,,,,1,,,51,0
18334,note_on,,10,0,1,,,,,,,,,0,,,63,0
18335,note_on,,5,0,3,,,,,,,,,2,,,79,0
18336,note_on,,24,0,5,,,,,,,,,4,,,72,0
18336,note_on,,6,0,4,,,,,,,,,3,,,76,0
18336,note_on,,0,0,4,,,,,,,,,3,,,75,63
18336,note_on,,4,0,7,,,,,,,,,6,,,48,63
18336,note_on,,2,0,1,,,,,,,,,0,,,69,79
18336,note_on,,1,0,3,,,,,,,,,2,,,78,63
18336,note_on,,4,0,2,,,,,,,,,1,,,48,63
18341,note_on,,5,0,3,,,,,,,,,2,,,78,0
18342,note_on,,1,0,3,,,,,,,,,2,,,79,63
18342,note_on,,6,0,4,,,,,,,,,3,,,75,0
18342,note_on,,0,0,4,,,,,,,,,3,,,76,63
18346,note_on,,10,0,1,,,,,,,,,0,,,69,0
18347,note_on,,5,0,3,,,,,,,,,2,,,79,0
18348,note_on,,6,0,4,,,,,,,,,3,,,76,0
18348,note_on,,0,0,4,,,,,,,,,3,,,75,63
18348,note_on,,2,0,1,,,,,,,,,0,,,71,79
18348,note_on,,1,0,3,,,,,,,,,2,,,78,63
18353,note_on,,5,0,3,,,,,,,,,2,,,78,0
18354,note_on,,0,0,4,,,,,,,,,3,,,76,63
18354,note_on,,6,0,4,,,,,,,,,3,,,75,0
18354,note_on,,1,0,3,,,,,,,,,2,,,79,63
18356,note_on,,20,0,7,,,,,,,,,6,,,48,0
18356,note_on,,20,0,2,,,,,,,,,1,,,48,0
18358,note_on,,10,0,1,,,,,,,,,0,,,71,0
18359,note_on,,5,0,3,,,,,,,,,2,,,79,0
18360,note_on,,4,0,7,,,,,,,,,6,,,51,63
18360,note_on,,2,0,1,,,,,,,,,0,,,72,79
18360,note_on,,28,0,6,,,,,,,,,5,,,69,56
18360,note_on,,1,0,3,,,,,,,,,2,,,78,63
18360,note_on,,24,0,5,,,,,,,,,4,,,72,56
18360,note_on,,6,0,4,,,,,,,,,3,,,76,0
18360,note_on,,0,0,4,,,,,,,,,3,,,75,63
18360,note_on,,4,0,2,,,,,,,,,1,,,51,63
18365,note_on,,5,0,3,,,,,,,,,2,,,78,0
18366,note_on,,6,0,4,,,,,,,,,3,,,75,0
18366,note_on,,0,0,4,,,,,,,,,3,,,76,63
18366,note_on,,1,0,3,,,,,,,,,2,,,79,63
18370,note_on,,10,0,1,,,,,,,,,0,,,72,0
18371,note_on,,5,0,3,,,,,,,,,2,,,79,0
18372,note_on,,1,0,3,,,,,,,,,2,,,78,63
18372,note_on,,6,0,4,,,,,,,,,3,,,76,0
18372,note_on,,2,0,1,,,,,,,,,0,,,68,79
18372,note_on,,0,0,4,,,,,,,,,3,,,75,63
18377,note_on,,5,0,3,,,,,,,,,2,,,78,0
18378,note_on,,0,0,4,,,,,,,,,3,,,76,63
18378,note_on,,1,0,3,,,,,,,,,2,,,79,63
18378,note_on,,6,0,4,,,,,,,,,3,,,75,0
18380,note_on,,20,0,2,,,,,,,,,1,,,51,0
18380,note_on,,20,0,7,,,,,,,,,6,,,51,0
18380,note_on,,20,0,6,,,,,,,,,5,,,69,0
18382,note_on,,10,0,1,,,,,,,,,0,,,68,0
18383,note_on,,5,0,3,,,,,,,,,2,,,79,0
18384,note_on,,0,0,5,,,,,,,,,4,,,72,56
18384,note_on,,4,0,7,,,,,,,,,6,,,48,63
18384,note_on,,6,0,4,,,,,,,,,3,,,76,0
18384,note_on,,24,0,5,,,,,,,,,4,,,72,0
18384,note_on,,4,0,6,,,,,,,,,5,,,69,56
18384,note_on,,0,0,4,,,,,,,,,3,,,75,63
18384,note_on,,2,0,1,,,,,,,,,0,,,69,79
18384,note_on,,1,0,3,,,,,,,,,2,,,78,63
18384,note_on,,4,0,2,,,,,,,,,1,,,48,63
18389,note_on,,5,0,3,,,,,,,,,2,,,78,0
18390,note_on,,0,0,4,,,,,,,,,3,,,76,63
18390,note_on,,6,0,4,,,,,,,,,3,,,75,0
18390,note_on,,1,0,3,,,,,,,,,2,,,79,63
18394,note_on,,10,0,1,,,,,,,,,0,,,69,0
18395,note_on,,5,0,3,,,,,,,,,2,,,79,0
18396,note_on,,2,0,1,,,,,,,,,0,,,71,79
18396,note_on,,0,0,4,,,,,,,,,3,,,75,63
18396,note_on,,6,0,4,,,,,,,,,3,,,76,0
18396,note_on,,1,0,3,,,,,,,,,2,,,78,63
18401,note_on,,5,0,3,,,,,,,,,2,,,78,0
18402,note_on,,1,0,3,,,,,,,,,2,,,79,63
18402,note_on,,6,0,4,,,,,,,,,3,,,75,0
18402,note_on,,0,0,4,,,,,,,,,3,,,76,63
18404,note_on,,20,0,6,,,,,,,,,5,,,69,0
18404,note_on,,20,0,2,,,,,,,,,1,,,48,0
18404,note_on,,20,0,7,,,,,,,,,6,,,48,0
18406,note_on,,10,0,1,,,,,,,,,0,,,71,0
18407,note_on,,5,0,3,,,,,,,,,2,,,79,0
18408,note_on,,4,0,6,,,,,,,,,5,,,69,56
18408,note_on,,0,0,5,,,,,,,,,4,,,72,56
18408,note_on,,4,0,7,,,,,,,,,6,,,45,63
18408,note_on,,4,0,2,,,,,,,,,1,,,45,63
18408,note_on,,6,0,4,,,,,,,,,3,,,76,0
18408,note_on,,0,0,4,,,,,,,,,3,,,75,63
18408,note_on,,1,0,3,,,,,,,,,2,,,78,63
18408,note_on,,2,0,1,,,,,,,,,0,,,72,79
18408,note_on,,24,0,5,,,,,,,,,4,,,72,0
18413,note_on,,5,0,3,,,,,,,,,2,,,78,0
18414,note_on,,6,0,4,,,,,,,,,3,,,75,0
18414,note_on,,0,0,4,,,,,,,,,3,,,76,63
18414,note_on,,1,0,3,,,,,,,,,2,,,79,63
18418,note_on,,10,0,1,,,,,,,,,0,,,72,0
18419,note_on,,5,0,3,,,,,,,,,2,,,79,0
18420,note_on,,6,0,4,,,,,,,,,3,,,76,0
18420,note_on,,0,0,4,,,,,,,,,3,,,75,63
18420,note_on,,2,0,1,,,,,,,,,0,,,63,79
18420,note_on,,1,0,3,,,,,,,,,2,,,78,63
18425,note_on,,5,0,3,,,,,,,,,2,,,78,0
18426,note_on,,1,0,3,,,,,,,,,2,,,79,63
18426,note_on,,6,0,4,,,,,,,,,3,,,75,0
18426,note_on,,0,0,4,,,,,,,,,3,,,76,63
18428,note_on,,20,0,2,,,,,,,,,1,,,45,0
18428,note_on,,20,0,7,,,,,,,,,6,,,45,0
18428,note_on,,20,0,6,,,,,,,,,5,,,69,0
18430,note_on,,10,0,1,,,,,,,,,0,,,63,0
18431,note_on,,5,0,3,,,,,,,,,2,,,79,0
18432,note_on,,1,0,3,,,,,,,,,2,,,80,63
18432,note_on,,0,0,4,,,,,,,,,3,,,74,63
18432,note_on,,6,0,4,,,,,,,,,3,,,76,0
18432,note_on,,4,0,2,,,,,,,,,1,,,40,63
18432,note_on,,152,0,8,,,,,,,,,7,,,28,63
18432,note_on,,24,0,5,,,,,,,,,4,,,72,0
18432,note_on,,2,0,1,,,,,,,,,0,,,65,79
18432,note_on,,4,0,7,,,,,,,,,6,,,40,63
18437,note_on,,5,0,3,,,,,,,,,2,,,80,0
18438,note_on,,1,0,3,,,,,,,,,2,,,81,63
18438,note_on,,6,0,4,,,,,,,,,3,,,74,0
18438,note_on,,0,0,4,,,,,,,,,3,,,76,63
18442,note_on,,10,0,1,,,,,,,,,0,,,65,0
18443,note_on,,5,0,3,,,,,,,,,2,,,81,0
18444,note_on,,0,0,4,,,,,,,,,3,,,74,63
18444,note_on,,2,0,1,,,,,,,,,0,,,68,79
18444,note_on,,1,0,3,,,,,,,,,2,,,80,63
18444,note_on,,6,0,4,,,,,,,,,3,,,76,0
18449,note_on,,5,0,3,,,,,,,,,2,,,80,0
18450,note_on,,0,0,4,,,,,,,,,3,,,76,63
18450,note_on,,1,0,3,,,,,,,,,2,,,81,63
18450,note_on,,6,0,4,,,,,,,,,3,,,74,0
18452,note_on,,20,0,7,,,,,,,,,6,,,40,0
18452,note_on,,20,0,2,,,,,,,,,1,,,40,0
18454,note_on,,10,0,1,,,,,,,,,0,,,68,0
18455,note_on,,5,0,3,,,,,,,,,2,,,81,0
18456,note_on,,28,0,6,,,,,,,,,5,,,65,56
18456,note_on,,4,0,2,,,,,,,,,1,,,59,63
18456,note_on,,4,0,7,,,,,,,,,6,,,59,63
18456,note_on,,24,0,5,,,,,,,,,4,,,71,56
18456,note_on,,6,0,4,,,,,,,,,3,,,76,0
18456,note_on,,0,0,4,,,,,,,,,3,,,74,63
18456,note_on,,1,0,3,,,,,,,,,2,,,80,63
18456,note_on,,2,0,1,,,,,,,,,0,,,71,79
18461,note_on,,5,0,3,,,,,,,,,2,,,80,0
18462,note_on,,1,0,3,,,,,,,,,2,,,81,63
18462,note_on,,6,0,4,,,,,,,,,3,,,74,0
18462,note_on,,0,0,4,,,,,,,,,3,,,76,63
18466,note_on,,10,0,1,,,,,,,,,0,,,71,0
18467,note_on,,5,0,3,,,,,,,,,2,,,81,0
18468,note_on,,1,0,3,,,,,,,,,2,,,80,63
18468,note_on,,0,0,4,,,,,,,,,3,,,74,63
18468,note_on,,2,0,1,,,,,,,,,0,,,64,79
18468,note_on,,6,0,4,,,,,,,,,3,,,76,0
18472,note_on,,40,0,8,,,,,,,,,7,,,28,0
18473,note_on,,5,0,3,,,,,,,,,2,,,80,0
18474,note_on,,1,0,3,,,,,,,,,2,,,81,63
18474,note_on,,6,0,4,,,,,,,,,3,,,74,0
18474,note_on,,0,0,4,,,,,,,,,3,,,76,63
18476,note_on,,20,0,6,,,,,,,,,5,,,65,0
18476,note_on,,20,0,7,,,,,,,,,6,,,59,0
18476,note_on,,20,0,2,,,,,,,,,1,,,59,0
18478,note_on,,10,0,1,,,,,,,,,0,,,64,0
18479,note_on,,5,0,3,,,,,,,,,2,,,81,0
18480,note_on,,6,0,4,,,,,,,,,3,,,76,0
18480,note_on,,4,0,6,,,,,,,,,5,,,65,56
18480,note_on,,1,0,3,,,,,,,,,2,,,80,63
18480,note_on,,0,0,5,,,,,,,,,4,,,71,56
18480,note_on,,24,0,5,,,,,,,,,4,,,71,0
18480,note_on,,4,0,2,,,,,,,,,1,,,56,63
18480,note_on,,0,0,4,,,,,,,,,3,,,74,63
18480,note_on,,2,0,1,,,,,,,,,0,,,65,79
18480,note_on,,4,0,7,,,,,,,,,6,,,56,63
18485,note_on,,5,0,3,,,,,,,,,2,,,80,0
18486,note_on,,1,0,3,,,,,,,,,2,,,81,63
18486,note_on,,0,0,4,,,,,,,,,3,,,76,63
18486,note_on,,6,0,4,,,,,,,,,3,,,74,0
18490,note_on,,10,0,1,,,,,,,,,0,,,65,0
18491,note_on,,5,0,3,,,,,,,,,2,,,81,0
18492,note_on,,6,0,4,,,,,,,,,3,,,76,0
18492,note_on,,1,0,3,,,,,,,,,2,,,80,63
18492,note_on,,2,0,1,,,,,,,,,0,,,68,79
18492,note_on,,0,0,4,,,,,,,,,3,,,74,63
18497,note_on,,5,0,3,,,,,,,,,2,,,80,0
18498,note_on,,1,0,3,,,,,,,,,2,,,81,63
18498,note_on,,0,0,4,,,,,,,,,3,,,76,63
18498,note_on,,6,0,4,,,,,,,,,3,,,74,0
18500,note_on,,20,0,7,,,,,,,,,6,,,56,0
18500,note_on,,20,0,2,,,,,,,,,1,,,56,0
18500,note_on,,20,0,6,,,,,,,,,5,,,65,0
18502,note_on,,10,0,1,,,,,,,,,0,,,68,0
18503,note_on,,5,0,3,,,,,,,,,2,,,81,0
18504,note_on,,4,0,6,,,,,,,,,5,,,65,56
18504,note_on,,4,0,7,,,,,,,,,6,,,53,63
18504,note_on,,4,0,2,,,,,,,,,1,,,53,63
18504,note_on,,0,0,4,,,,,,,,,3,,,74,63
18504,note_on,,6,0,4,,,,,,,,,3,,,76,0
18504,note_on,,24,0,5,,,,,,,,,4,,,71,0
18504,note_on,,1,0,3,,,,,,,,,2,,,80,63
18504,note_on,,0,0,5,,,,,,,,,4,,,71,56
18504,note_on,,2,0,1,,,,,,,,,0,,,71,79
18509,note_on,,5,0,3,,,,,,,,,2,,,80,0
18510,note_on,,6,0,4,,,,,,,,,3,,,74,0
18510,note_on,,1,0,3,,,,,,,,,2,,,81,63
18510,note_on,,0,0,4,,,,,,,,,3,,,76,63
18514,note_on,,10,0,1,,,,,,,,,0,,,71,0
18515,note_on,,5,0,3,,,,,,,,,2,,,81,0
18516,note_on,,1,0,3,,,,,,,,,2,,,80,63
18516,note_on,,2,0,1,,,,,,,,,0,,,62,79
18516,note_on,,6,0,4,,,,,,,,,3,,,76,0
18516,note_on,,0,0,4,,,,,,,,,3,,,74,63
18521,note_on,,5,0,3,,,,,,,,,2,,,80,0
18522,note_on,,1,0,3,,,,,,,,,2,,,81,63
18522,note_on,,6,0,4,,,,,,,,,3,,,74,0
18522,note_on,,0,0,4,,,,,,,,,3,,,76,63
18524,note_on,,20,0,7,,,,,,,,,6,,,53,0
18524,note_on,,20,0,2,,,,,,,,,1,,,53,0
18524,note_on,,20,0,6,,,,,,,,,5,,,65,0
18526,note_on,,10,0,1,,,,,,,,,0,,,62,0
18527,note_on,,5,0,3,,,,,,,,,2,,,81,0
18528,note_on,,4,0,7,,,,,,,,,6,,,50,63
18528,note_on,,4,0,2,,,,,,,,,1,,,50,63
18528,note_on,,1,0,3,,,,,,,,,2,,,80,63
18528,note_on,,24,0,5,,,,,,,,,4,,,71,0
18528,note_on,,0,0,4,,,,,,,,,3,,,74,63
18528,note_on,,2,0,1,,,,,,,,,0,,,65,79
18528,note_on,,6,0,4,,,,,,,,,3,,,76,0
18533,note_on,,5,0,3,,,,,,,,,2,,,80,0
18534,note_on,,0,0,4,,,,,,,,,3,,,76,63
18534,note_on,,1,0,3,,,,,,,,,2,,,81,63
18534,note_on,,6,0,4,,,,,,,,,3,,,74,0
18538,note_on,,10,0,1,,,,,,,,,0,,,65,0
18539,note_on,,5,0,3,,,,,,,,,2,,,81,0
18540,note_on,,6,0,4,,,,,,,,,3,,,76,0
18540,note_on,,0,0,4,,,,,,,,,3,,,74,63
18540,note_on,,1,0,3,,,,,,,,,2,,,80,63
18540,note_on,,2,0,1,,,,,,,,,0,,,68,79
18545,note_on,,5,0,3,,,,,,,,,2,,,80,0
18546,note_on,,0,0,4,,,,,,,,,3,,,76,63
18546,note_on,,1,0,3,,,,,,,,,2,,,81,63
18546,note_on,,6,0,4,,,,,,,,,3,,,74,0
18548,note_on,,20,0,7,,,,,,,,,6,,,50,0
18548,note_on,,20,0,2,,,,,,,,,1,,,50,0
18550,note_on,,10,0,1,,,,,,,,,0,,,68,0
18551,note_on,,5,0,3,,,,,,,,,2,,,81,0
18552,note_on,,2,0,1,,,,,,,,,0,,,71,79
18552,note_on,,24,0,5,,,,,,,,,4,,,71,56
18552,note_on,,4,0,7,,,,,,,,,6,,,53,63
18552,note_on,,4,0,2,,,,,,,,,1,,,53,63
18552,note_on,,1,0,3,,,,,,,,,2,,,80,63
18552,note_on,,0,0,4,,,,,,,,,3,,,74,63
18552,note_on,,6,0,4,,,,,,,,,3,,,76,0
18552,note_on,,28,0,6,,,,,,,,,5,,,65,56
18557,note_on,,5,0,3,,,,,,,,,2,,,80,0
18558,note_on,,1,0,3,,,,,,,,,2,,,81,63
18558,note_on,,0,0,4,,,,,,,,,3,,,76,63
18558,note_on,,6,0,4,,,,,,,,,3,,,74,0
18562,note_on,,10,0,1,,,,,,,,,0,,,71,0
18563,note_on,,5,0,3,,,,,,,,,2,,,81,0
18564,note_on,,6,0,4,,,,,,,,,3,,,76,0
18564,note_on,,0,0,4,,,,,,,,,3,,,74,63
18564,note_on,,1,0,3,,,,,,,,,2,,,80,63
18564,note_on,,2,0,1,,,,,,,,,0,,,64,79
18569,note_on,,5,0,3,,,,,,,,,2,,,80,0
18570,note_on,,6,0,4,,,,,,,,,3,,,74,0
18570,note_on,,0,0,4,,,,,,,,,3,,,76,63
18570,note_on,,1,0,3,,,,,,,,,2,,,81,63
18572,note_on,,20,0,6,,,,,,,,,5,,,65,0
18572,note_on,,20,0,7,,,,,,,,,6,,,53,0
18572,note_on,,20,0,2,,,,,,,,,1,,,53,0
18574,note_on,,10,0,1,,,,,,,,,0,,,64,0
18575,note_on,,5,0,3,,,,,,,,,2,,,81,0
18576,note_on,,4,0,6,,,,,,,,,5,,,65,56
18576,note_on,,2,0,1,,,,,,,,,0,,,65,79
18576,note_on,,24,0,5,,,,,,,,,4,,,71,0
18576,note_on,,0,0,5,,,,,,,,,4,,,71,56
18576,note_on,,4,0,2,,,,,,,,,1,,,50,63
18576,note_on,,4,0,7,,,,,,,,,6,,,50,63
18576,note_on,,6,0,4,,,,,,,,,3,,,76,0
18576,note_on,,0,0,4,,,,,,,,,3,,,74,63
18576,note_on,,1,0,3,,,,,,,,,2,,,80,63
18581,note_on,,5,0,3,,,,,,,,,2,,,80,0
18582,note_on,,1,0,3,,,,,,,,,2,,,81,63
18582,note_on,,6,0,4,,,,,,,,,3,,,74,0
18582,note_on,,0,0,4,,,,,,,,,3,,,76,63
18586,note_on,,10,0,1,,,,,,,,,0,,,65,0
18587,note_on,,5,0,3,,,,,,,,,2,,,81,0
18588,note_on,,2,0,1,,,,,,,,,0,,,68,79
18588,note_on,,0,0,4,,,,,,,,,3,,,74,63
18588,note_on,,1,0,3,,,,,,,,,2,,,80,63
18588,note_on,,6,0,4,,,,,,,,,3,,,76,0
18593,note_on,,5,0,3,,,,,,,,,2,,,80,0
18594,note_on,,6,0,4,,,,,,,,,3,,,74,0
18594,note_on,,1,0,3,,,,,,,,,2,,,81,63
18594,note_on,,0,0,4,,,,,,,,,3,,,76,63
18596,note_on,,20,0,7,,,,,,,,,6,,,50,0
18596,note_on,,20,0,2,,,,,,,,,1,,,50,0
18596,note_on,,20,0,6,,,,,,,,,5,,,65,0
18598,note_on,,10,0,1,,,,,,,,,0,,,68,0
18599,note_on,,5,0,3,,,,,,,,,2,,,81,0
18600,note_on,,6,0,4,,,,,,,,,3,,,76,0
18600,note_on,,4,0,6,,,,,,,,,5,,,65,56
18600,note_on,,2,0,1,,,,,,,,,0,,,71,79
18600,note_on,,1,0,3,,,,,,,,,2,,,80,63
18600,note_on,,0,0,5,,,,,,,,,4,,,71,56
18600,note_on,,24,0,5,,,,,,,,,4,,,71,0
18600,note_on,,0,0,4,,,,,,,,,3,,,74,63
18600,note_on,,4,0,2,,,,,,,,,1,,,47,63
18600,note_on,,4,0,7,,,,,,,,,6,,,47,63
18605,note_on,,5,0,3,,,,,,,,,2,,,80,0
18606,note_on,,0,0,4,,,,,,,,,3,,,76,63
18606,note_on,,6,0,4,,,,,,,,,3,,,74,0
18606,note_on,,1,0,3,,,,,,,,,2,,,81,63
18610,note_on,,10,0,1,,,,,,,,,0,,,71,0
18611,note_on,,5,0,3,,,,,,,,,2,,,81,0
18612,note_on,,2,0,1,,,,,,,,,0,,,62,79
18612,note_on,,6,0,4,,,,,,,,,3,,,76,0
18612,note_on,,0,0,4,,,,,,,,,3,,,74,63
18612,note_on,,1,0,3,,,,,,,,,2,,,80,63
18617,note_on,,5,0,3,,,,,,,,,2,,,80,0
18618,note_on,,6,0,4,,,,,,,,,3,,,74,0
18618,note_on,,0,0,4,,,,,,,,,3,,,76,63
18618,note_on,,1,0,3,,,,,,,,,2,,,81,63
18620,note_on,,20,0,7,,,,,,,,,6,,,47,0
18620,note_on,,20,0,6,,,,,,,,,5,,,65,0
18620,note_on,,20,0,2,,,,,,,,,1,,,47,0
18622,note_on,,10,0,1,,,,,,,,,0,,,62,0
18623,note_on,,5,0,3,,,,,,,,,2,,,81,0
18624,note_on,,1,0,3,,,,,,,,,2,,,81,63
18624,note_on,,2,0,1,,,,,,,,,0,,,64,79
18624,note_on,,24,0,5,,,,,,,,,4,,,71,0
18624,note_on,,6,0,4,,,,,,,,,3,,,76,0
18624,note_on,,0,0,4,,,,,,,,,3,,,73,63
18624,note_on,,4,0,2,,,,,,,,,1,,,40,63
18624,note_on,,4,0,7,,,,,,,,,6,,,40,63
18624,note_on,,152,0,8,,,,,,,,,7,,,28,63
18630,note_on,,6,0,3,,,,,,,,,2,,,81,0
18630,note_on,,6,0,4,,,,,,,,,3,,,73,0
18630,note_on,,0,0,4,,,,,,,,,3,,,74,63
18630,note_on,,0,0,3,,,,,,,,,2,,,83,63
18634,note_on,,10,0,1,,,,,,,,,0,,,64,0
18636,note_on,,2,0,1,,,,,,,,,0,,,68,79
18636,note_on,,6,0,3,,,,,,,,,2,,,83,0
18636,note_on,,0,0,3,,,,,,,,,2,,,81,63
18636,note_on,,6,0,4,,,,,,,,,3,,,74,0
18636,note_on,,0,0,4,,,,,,,,,3,,,73,63
18642,note_on,,0,0,3,,,,,,,,,2,,,83,63
18642,note_on,,6,0,4,,,,,,,,,3,,,73,0
18642,note_on,,0,0,4,,,,,,,,,3,,,74,63
18642,note_on,,6,0,3,,,,,,,,,2,,,81,0
18644,note_on,,20,0,7,,,,,,,,,6,,,40,0
18644,note_on,,20,0,2,,,,,,,,,1,,,40,0
18646,note_on,,10,0,1,,,,,,,,,0,,,68,0
18648,note_on,,4,0,7,,,,,,,,,6,,,60,63
18648,note_on,,2,0,1,,,,,,,,,0,,,69,79
18648,note_on,,6,0,4,,,,,,,,,3,,,74,0
18648,note_on,,0,0,4,,,,,,,,,3,,,73,63
18648,note_on,,6,0,3,,,,,,,,,2,,,83,0
18648,note_on,,24,0,5,,,,,,,,,4,,,69,56
18648,note_on,,28,0,6,,,,,,,,,5,,,64,56
18648,note_on,,4,0,2,,,,,,,,,1,,,60,63
18648,note_on,,0,0,3,,,,,,,,,2,,,81,63
18654,note_on,,6,0,4,,,,,,,,,3,,,73,0
18654,note_on,,0,0,4,,,,,,,,,3,,,74,63
18654,note_on,,0,0,3,,,,,,,,,2,,,83,63
18654,note_on,,6,0,3,,,,,,,,,2,,,81,0
18658,note_on,,10,0,1,,,,,,,,,0,,,69,0
18660,note_on,,0,0,3,,,,,,,,,2,,,81,63
18660,note_on,,2,0,1,,,,,,,,,0,,,63,79
18660,note_on,,0,0,4,,,,,,,,,3,,,73,63
18660,note_on,,6,0,4,,,,,,,,,3,,,74,0
18660,note_on,,6,0,3,,,,,,,,,2,,,83,0
18664,note_on,,40,0,8,,,,,,,,,7,,,28,0
18666,note_on,,6,0,3,,,,,,,,,2,,,81,0
18666,note_on,,6,0,4,,,,,,,,,3,,,73,0
18666,note_on,,0,0,3,,,,,,,,,2,,,83,63
18666,note_on,,0,0,4,,,,,,,,,3,,,74,63
18668,note_on,,20,0,6,,,,,,,,,5,,,64,0
18668,note_on,,20,0,7,,,,,,,,,6,,,60,0
18668,note_on,,20,0,2,,,,,,,,,1,,,60,0
18670,note_on,,10,0,1,,,,,,,,,0,,,63,0
18672,note_on,,24,0,5,,,,,,,,,4,,,69,0
18672,note_on,,2,0,1,,,,,,,,,0,,,64,79
18672,note_on,,0,0,5,,,,,,,,,4,,,69,56
18672,note_on,,0,0,3,,,,,,,,,2,,,81,63
18672,note_on,,6,0,3,,,,,,,,,2,,,83,0
18672,note_on,,4,0,7,,,,,,,,,6,,,57,63
18672,note_on,,6,0,4,,,,,,,,,3,,,74,0
18672,note_on,,4,0,6,,,,,,,,,5,,,64,56
18672,note_on,,4,0,2,,,,,,,,,1,,,57,63
18672,note_on,,0,0,4,,,,,,,,,3,,,73,63
18678,note_on,,6,0,4,,,,,,,,,3,,,73,0
18678,note_on,,0,0,4,,,,,,,,,3,,,74,63
18678,note_on,,6,0,3,,,,,,,,,2,,,81,0
18678,note_on,,0,0,3,,,,,,,,,2,,,83,63
18682,note_on,,10,0,1,,,,,,,,,0,,,64,0
18684,note_on,,2,0,1,,,,,,,,,0,,,68,79
18684,note_on,,6,0,3,,,,,,,,,2,,,83,0
18684,note_on,,0,0,3,,,,,,,,,2,,,81,63
18684,note_on,,6,0,4,,,,,,,,,3,,,74,0
18684,note_on,,0,0,4,,,,,,,,,3,,,73,63
18690,note_on,,0,0,4,,,,,,,,,3,,,74,63
18690,note_on,,0,0,3,,,,,,,,,2,,,83,63
18690,note_on,,6,0,3,,,,,,,,,2,,,81,0
18690,note_on,,6,0,4,,,,,,,,,3,,,73,0
18692,note_on,,20,0,2,,,,,,,,,1,,,57,0
18692,note_on,,20,0,6,,,,,,,,,5,,,64,0
18692,note_on,,20,0,7,,,,,,,,,6,,,57,0
18694,note_on,,10,0,1,,,,,,,,,0,,,68,0
18696,note_on,,4,0,6,,,,,,,,,5,,,64,56
18696,note_on,,4,0,7,,,,,,,,,6,,,52,63
18696,note_on,,0,0,3,,,,,,,,,2,,,81,63
18696,note_on,,6,0,3,,,,,,,,,2,,,83,0
18696,note_on,,2,0,1,,,,,,,,,0,,,69,79
18696,note_on,,0,0,5,,,,,,,,,4,,,69,56
18696,note_on,,24,0,5,,,,,,,,,4,,,69,0
18696,note_on,,4,0,2,,,,,,,,,1,,,52,63
18696,note_on,,0,0,4,,,,,,,,,3,,,73,63
18696,note_on,,6,0,4,,,,,,,,,3,,,74,0
18702,note_on,,0,0,4,,,,,,,,,3,,,74,63
18702,note_on,,6,0,3,,,,,,,,,2,,,81,0
18702,note_on,,0,0,3,,,,,,,,,2,,,83,63
18702,note_on,,6,0,4,,,,,,,,,3,,,73,0
18706,note_on,,10,0,1,,,,,,,,,0,,,69,0
18708,note_on,,2,0,1,,,,,,,,,0,,,60,79
18708,note_on,,6,0,4,,,,,,,,,3,,,74,0
18708,note_on,,0,0,4,,,,,,,,,3,,,73,63
18708,note_on,,0,0,3,,,,,,,,,2,,,81,63
18708,note_on,,6,0,3,,,,,,,,,2,,,83,0
18714,note_on,,6,0,4,,,,,,,,,3,,,73,0
18714,note_on,,0,0,3,,,,,,,,,2,,,83,63
18714,note_on,,6,0,3,,,,,,,,,2,,,81,0
18714,note_on,,0,0,4,,,,,,,,,3,,,74,63
18716,note_on,,20,0,6,,,,,,,,,5,,,64,0
18716,note_on,,20,0,2,,,,,,,,,1,,,52,0
18716,note_on,,20,0,7,,,,,,,,,6,,,52,0
18718,note_on,,10,0,1,,,,,,,,,0,,,60,0
18720,note_on,,24,0,5,,,,,,,,,4,,,69,0
18720,note_on,,6,0,4,,,,,,,,,3,,,74,0
18720,note_on,,4,0,2,,,,,,,,,1,,,48,63
18720,note_on,,0,0,4,,,,,,,,,3,,,73,63
18720,note_on,,4,0,7,,,,,,,,,6,,,48,63
18720,note_on,,0,0,3,,,,,,,,,2,,,81,63
18720,note_on,,6,0,3,,,,,,,,,2,,,83,0
18720,note_on,,2,0,1,,,,,,,,,0,,,64,79
18726,note_on,,6,0,3,,,,,,,,,2,,,81,0
18726,note_on,,0,0,3,,,,,,,,,2,,,83,63
18726,note_on,,0,0,4,,,,,,,,,3,,,74,63
18726,note_on,,6,0,4,,,,,,,,,3,,,73,0
18730,note_on,,10,0,1,,,,,,,,,0,,,64,0
18732,note_on,,0,0,3,,,,,,,,,2,,,81,63
18732,note_on,,6,0,3,,,,,,,,,2,,,83,0
18732,note_on,,2,0,1,,,,,,,,,0,,,68,79
18732,note_on,,0,0,4,,,,,,,,,3,,,73,63
18732,note_on,,6,0,4,,,,,,,,,3,,,74,0
18738,note_on,,6,0,4,,,,,,,,,3,,,73,0
18738,note_on,,0,0,4,,,,,,,,,3,,,74,63
18738,note_on,,6,0,3,,,,,,,,,2,,,81,0
18738,note_on,,0,0,3,,,,,,,,,2,,,83,63
18740,note_on,,20,0,2,,,,,,,,,1,,,48,0
18740,note_on,,20,0,7,,,,,,,,,6,,,48,0
18742,note_on,,10,0,1,,,,,,,,,0,,,68,0
18744,note_on,,6,0,4,,,,,,,,,3,,,74,0
18744,note_on,,4,0,2,,,,,,,,,1,,,52,63
18744,note_on,,28,0,6,,,,,,,,,5,,,64,56
18744,note_on,,4,0,7,,,,,,,,,6,,,52,63
18744,note_on,,0,0,4,,,,,,,,,3,,,73,63
18744,note_on,,2,0,1,,,,,,,,,0,,,69,79
18744,note_on,,24,0,5,,,,,,,,,4,,,69,56
18744,note_on,,0,0,3,,,,,,,,,2,,,81,63
18744,note_on,,6,0,3,,,,,,,,,2,,,83,0
18750,note_on,,6,0,3,,,,,,,,,2,,,81,0
18750,note_on,,0,0,3,,,,,,,,,2,,,83,63
18750,note_on,,6,0,4,,,,,,,,,3,,,73,0
18750,note_on,,0,0,4,,,,,,,,,3,,,74,63
18754,note_on,,10,0,1,,,,,,,,,0,,,69,0
18756,note_on,,6,0,3,,,,,,,,,2,,,83,0
18756,note_on,,0,0,3,,,,,,,,,2,,,81,63
18756,note_on,,6,0,4,,,,,,,,,3,,,74,0
18756,note_on,,0,0,4,,,,,,,,,3,,,73,63
18756,note_on,,2,0,1,,,,,,,,,0,,,63,79
18762,note_on,,6,0,3,,,,,,,,,2,,,81,0
18762,note_on,,0,0,3,,,,,,,,,2,,,83,63
18762,note_on,,0,0,4,,,,,,,,,3,,,74,63
18762,note_on,,6,0,4,,,,,,,,,3,,,73,0
18764,note_on,,20,0,7,,,,,,,,,6,,,52,0
18764,note_on,,20,0,2,,,,,,,,,1,,,52,0
18764,note_on,,20,0,6,,,,,,,,,5,,,64,0
18766,note_on,,10,0,1,,,,,,,,,0,,,63,0
18768,note_on,,0,0,4,,,,,,,,,3,,,73,63
18768,note_on,,4,0,2,,,,,,,,,1,,,48,63
18768,note_on,,0,0,3,,,,,,,,,2,,,81,63
18768,note_on,,6,0,3,,,,,,,,,2,,,83,0
18768,note_on,,0,0,5,,,,,,,,,4,,,69,56
18768,note_on,,24,0,5,,,,,,,,,4,,,69,0
18768,note_on,,6,0,4,,,,,,,,,3,,,74,0
18768,note_on,,4,0,7,,,,,,,,,6,,,48,63
18768,note_on,,2,0,1,,,,,,,,,0,,,64,79
18768,note_on,,4,0,6,,,,,,,,,5,,,64,56
18774,note_on,,6,0,4,,,,,,,,,3,,,73,0
18774,note_on,,0,0,3,,,,,,,,,2,,,83,63
18774,note_on,,6,0,3,,,,,,,,,2,,,81,0
18774,note_on,,0,0,4,,,,,,,,,3,,,74,63
18778,note_on,,10,0,1,,,,,,,,,0,,,64,0
18780,note_on,,6,0,3,,,,,,,,,2,,,83,0
18780,note_on,,0,0,4,,,,,,,,,3,,,73,63
18780,note_on,,6,0,4,,,,,,,,,3,,,74,0
18780,note_on,,2,0,1,,,,,,,,,0,,,68,79
18780,note_on,,0,0,3,,,,,,,,,2,,,81,63
18786,note_on,,0,0,4,,,,,,,,,3,,,74,63
18786,note_on,,6,0,4,,,,,,,,,3,,,73,0
18786,note_on,,6,0,3,,,,,,,,,2,,,81,0
18786,note_on,,0,0,3,,,,,,,,,2,,,83,63
18788,note_on,,20,0,2,,,,,,,,,1,,,48,0
18788,note_on,,20,0,6,,,,,,,,,5,,,64,0
18788,note_on,,20,0,7,,,,,,,,,6,,,48,0
18790,note_on,,10,0,1,,,,,,,,,0,,,68,0
18792,note_on,,4,0,6,,,,,,,,,5,,,64,56
18792,note_on,,0,0,5,,,,,,,,,4,,,69,56
18792,note_on,,24,0,5,,,,,,,,,4,,,69,0
18792,note_on,,6,0,4,,,,,,,,,3,,,74,0
18792,note_on,,0,0,4,,,,,,,,,3,,,73,63
18792,note_on,,2,0,1,,,,,,,,,0,,,69,79
18792,note_on,,4,0,2,,,,,,,,,1,,,45,63
18792,note_on,,4,0,7,,,,,,,,,6,,,45,63
18792,note_on,,0,0,3,,,,,,,,,2,,,81,63
18792,note_on,,6,0,3,,,,,,,,,2,,,83,0
18798,note_on,,0,0,3,,,,,,,,,2,,,83,63
18798,note_on,,6,0,3,,,,,,,,,2,,,81,0
18798,note_on,,6,0,4,,,,,,,,,3,,,73,0
18798,note_on,,0,0,4,,,,,,,,,3,,,74,63
18802,note_on,,10,0,1,,,,,,,,,0,,,69,0
18804,note_on,,0,0,3,,,,,,,,,2,,,81,63
18804,note_on,,6,0,3,,,,,,,,,2,,,83,0
18804,note_on,,6,0,4,,,,,,,,,3,,,74,0
18804,note_on,,0,0,4,,,,,,,,,3,,,73,63
18804,note_on,,2,0,1,,,,,,,,,0,,,60,79
18810,note_on,,0,0,4,,,,,,,,,3,,,74,63
18810,note_on,,6,0,4,,,,,,,,,3,,,73,0
18810,note_on,,6,0,3,,,,,,,,,2,,,81,0
18810,note_on,,0,0,3,,,,,,,,,2,,,83,63
18812,note_on,,20,0,2,,,,,,,,,1,,,45,0
18812,note_on,,20,0,7,,,,,,,,,6,,,45,0
18812,note_on,,20,0,6,,,,,,,,,5,,,64,0
18814,note_on,,10,0,1,,,,,,,,,0,,,60,0
18816,note_on,,6,0,4,,,,,,,,,3,,,74,0
18816,note_on,,0,0,4,,,,,,,,,3,,,71,63
18816,note_on,,4,0,2,,,,,,,,,1,,,40,63
18816,note_on,,24,0,5,,,,,,,,,4,,,69,0
18816,note_on,,2,0,1,,,,,,,,,0,,,62,79
18816,note_on,,0,0,3,,,,,,,,,2,,,81,63
18816,note_on,,6,0,3,,,,,,,,,2,,,83,0
18816,note_on,,152,0,8,,,,,,,,,7,,,28,63
18816,note_on,,4,0,7,,,,,,,,,6,,,40,63
18822,note_on,,6,0,3,,,,,,,,,2,,,81,0
18822,note_on,,0,0,3,,,,,,,,,2,,,83,63
18822,note_on,,6,0,4,,,,,,,,,3,,,71,0
18822,note_on,,0,0,4,,,,,,,,,3,,,73,63
18826,note_on,,10,0,1,,,,,,,,,0,,,62,0
18828,note_on,,6,0,4,,,,,,,,,3,,,73,0
18828,note_on,,0,0,4,,,,,,,,,3,,,71,63
18828,note_on,,0,0,3,,,,,,,,,2,,,81,63
18828,note_on,,6,0,3,,,,,,,,,2,,,83,0
18828,note_on,,2,0,1,,,,,,,,,0,,,68,79
18834,note_on,,6,0,3,,,,,,,,,2,,,81,0
18834,note_on,,0,0,3,,,,,,,,,2,,,83,63
18834,note_on,,6,0,4,,,,,,,,,3,,,71,0
18834,note_on,,0,0,4,,,,,,,,,3,,,73,63
18836,note_on,,20,0,2,,,,,,,,,1,,,40,0
18836,note_on,,20,0,7,,,,,,,,,6,,,40,0
18838,note_on,,10,0,1,,,,,,,,,0,,,68,0
18840,note_on,,6,0,4,,,,,,,,,3,,,73,0
18840,note_on,,0,0,3,,,,,,,,,2,,,81,63
18840,note_on,,4,0,2,,,,,,,,,1,,,62,63
18840,note_on,,4,0,7,,,,,,,,,6,,,62,63
18840,note_on,,2,0,1,,,,,,,,,0,,,69,79
18840,note_on,,28,0,6,,,,,,,,,5,,,62,56
18840,note_on,,0,0,4,,,,,,,,,3,,,71,63
18840,note_on,,6,0,3,,,,,,,,,2,,,83,0
18840,note_on,,24,0,5,,,,,,,,,4,,,65,56
18846,note_on,,0,0,3,,,,,,,,,2,,,83,63
18846,note_on,,0,0,4,,,,,,,,,3,,,73,63
18846,note_on,,6,0,4,,,,,,,,,3,,,71,0
18846,note_on,,6,0,3,,,,,,,,,2,,,81,0
18850,note_on,,10,0,1,,,,,,,,,0,,,69,0
18852,note_on,,0,0,3,,,,,,,,,2,,,81,63
18852,note_on,,6,0,3,,,,,,,,,2,,,83,0
18852,note_on,,2,0,1,,,,,,,,,0,,,60,79
18852,note_on,,6,0,4,,,,,,,,,3,,,73,0
18852,note_on,,0,0,4,,,,,,,,,3,,,71,63
18856,note_on,,40,0,8,,,,,,,,,7,,,28,0
18858,note_on,,6,0,3,,,,,,,,,2,,,81,0
18858,note_on,,6,0,4,,,,,,,,,3,,,71,0
18858,note_on,,0,0,4,,,,,,,,,3,,,73,63
18858,note_on,,0,0,3,,,,,,,,,2,,,83,63
18860,note_on,,20,0,6,,,,,,,,,5,,,62,0
18860,note_on,,20,0,7,,,,,,,,,6,,,62,0
18860,note_on,,20,0,2,,,,,,,,,1,,,62,0
18862,note_on,,10,0,1,,,,,,,,,0,,,60,0
18864,note_on,,6,0,4,,,,,,,,,3,,,73,0
18864,note_on,,0,0,3,,,,,,,,,2,,,81,63
18864,note_on,,0,0,4,,,,,,,,,3,,,71,63
18864,note_on,,4,0,7,,,,,,,,,6,,,59,63
18864,note_on,,24,0,5,,,,,,,,,4,,,65,0
18864,note_on,,0,0,5,,,,,,,,,4,,,65,56
18864,note_on,,2,0,1,,,,,,,,,0,,,62,79
18864,note_on,,6,0,3,,,,,,,,,2,,,83,0
18864,note_on,,4,0,6,,,,,,,,,5,,,62,56
18864,note_on,,4,0,2,,,,,,,,,1,,,59,63
18870,note_on,,6,0,4,,,,,,,,,3,,,71,0
18870,note_on,,0,0,3,,,,,,,,,2,,,83,63
18870,note_on,,6,0,3,,,,,,,,,2,,,81,0
18870,note_on,,0,0,4,,,,,,,,,3,,,73,63
18874,note_on,,10,0,1,,,,,,,,,0,,,62,0
18876,note_on,,6,0,4,,,,,,,,,3,,,73,0
18876,note_on,,0,0,3,,,,,,,,,2,,,81,63
18876,note_on,,6,0,3,,,,,,,,,2,,,83,0
18876,note_on,,0,0,4,,,,,,,,,3,,,71,63
18876,note_on,,2,0,1,,,,,,,,,0,,,68,79
18882,note_on,,6,0,3,,,,,,,,,2,,,81,0
18882,note_on,,6,0,4,,,,,,,,,3,,,71,0
18882,note_on,,0,0,3,,,,,,,,,2,,,83,63
18882,note_on,,0,0,4,,,,,,,,,3,,,73,63
18884,note_on,,20,0,7,,,,,,,,,6,,,59,0
18884,note_on,,20,0,2,,,,,,,,,1,,,59,0
18884,note_on,,20,0,6,,,,,,,,,5,,,62,0
18886,note_on,,10,0,1,,,,,,,,,0,,,68,0
18888,note_on,,6,0,3,,,,,,,,,2,,,83,0
18888,note_on,,4,0,6,,,,,,,,,5,,,62,56
18888,note_on,,0,0,5,,,,,,,,,4,,,65,56
18888,note_on,,0,0,4,,,,,,,,,3,,,71,63
18888,note_on,,4,0,2,,,,,,,,,1,,,53,63
18888,note_on,,4,0,7,,,,,,,,,6,,,53,63
18888,note_on,,0,0,3,,,,,,,,,2,,,81,63
18888,note_on,,6,0,4,,,,,,,,,3,,,73,0
18888,note_on,,2,0,1,,,,,,,,,0,,,69,79
18888,note_on,,24,0,5,,,,,,,,,4,,,65,0
18894,note_on,,6,0,3,,,,,,,,,2,,,81,0
18894,note_on,,6,0,4,,,,,,,,,3,,,71,0
18894,note_on,,0,0,3,,,,,,,,,2,,,83,63
18894,note_on,,0,0,4,,,,,,,,,3,,,73,63
18898,note_on,,10,0,1,,,,,,,,,0,,,69,0
18900,note_on,,2,0,1,,,,,,,,,0,,,59,79
18900,note_on,,6,0,3,,,,,,,,,2,,,83,0
18900,note_on,,6,0,4,,,,,,,,,3,,,73,0
18900,note_on,,0,0,3,,,,,,,,,2,,,81,63
18900,note_on,,0,0,4,,,,,,,,,3,,,71,63
18906,note_on,,0,0,3,,,,,,,,,2,,,83,63
18906,note_on,,6,0,3,,,,,,,,,2,,,81,0
18906,note_on,,6,0,4,,,,,,,,,3,,,71,0
18906,note_on,,0,0,4,,,,,,,,,3,,,73,63
18908,note_on,,20,0,2,,,,,,,,,1,,,53,0
18908,note_on,,20,0,6,,,,,,,,,5,,,62,0
18908,note_on,,20,0,7,,,,,,,,,6,,,53,0
18910,note_on,,10,0,1,,,,,,,,,0,,,59,0
18912,note_on,,4,0,7,,,,,,,,,6,,,50,63
18912,note_on,,0,0,4,,,,,,,,,3,,,71,63
18912,note_on,,6,0,3,,,,,,,,,2,,,83,0
18912,note_on,,2,0,1,,,,,,,,,0,,,62,79
18912,note_on,,4,0,2,,,,,,,,,1,,,50,63
18912,note_on,,0,0,3,,,,,,,,,2,,,81,63
18912,note_on,,24,0,5,,,,,,,,,4,,,65,0
18912,note_on,,6,0,4,,,,,,,,,3,,,73,0
18918,note_on,,0,0,3,,,,,,,,,2,,,83,63
18918,note_on,,6,0,4,,,,,,,,,3,,,71,0
18918,note_on,,6,0,3,,,,,,,,,2,,,81,0
18918,note_on,,0,0,4,,,,,,,,,3,,,73,63
18922,note_on,,10,0,1,,,,,,,,,0,,,62,0
18924,note_on,,0,0,3,,,,,,,,,2,,,81,63
18924,note_on,,2,0,1,,,,,,,,,0,,,68,79
18924,note_on,,0,0,4,,,,,,,,,3,,,71,63
18924,note_on,,6,0,4,,,,,,,,,3,,,73,0
18924,note_on,,6,0,3,,,,,,,,,2,,,83,0
18930,note_on,,6,0,3,,,,,,,,,2,,,81,0
18930,note_on,,0,0,3,,,,,,,,,2,,,83,63
18930,note_on,,0,0,4,,,,,,,,,3,,,73,63
18930,note_on,,6,0,4,,,,,,,,,3,,,71,0
18932,note_on,,20,0,2,,,,,,,,,1,,,50,0
18932,note_on,,20,0,7,,,,,,,,,6,,,50,0
18934,note_on,,10,0,1,,,,,,,,,0,,,68,0
18936,note_on,,2,0,1,,,,,,,,,0,,,69,79
18936,note_on,,4,0,2,,,,,,,,,1,,,53,63
18936,note_on,,4,0,7,,,,,,,,,6,,,53,63
18936,note_on,,24,0,5,,,,,,,,,4,,,65,56
18936,note_on,,0,0,4,,,,,,,,,3,,,71,63
18936,note_on,,6,0,4,,,,,,,,,3,,,73,0
18936,note_on,,28,0,6,,,,,,,,,5,,,62,56
18936,note_on,,6,0,3,,,,,,,,,2,,,83,0
18936,note_on,,0,0,3,,,,,,,,,2,,,81,63
18942,note_on,,6,0,3,,,,,,,,,2,,,81,0
18942,note_on,,6,0,4,,,,,,,,,3,,,71,0
18942,note_on,,0,0,4,,,,,,,,,3,,,73,63
18942,note_on,,0,0,3,,,,,,,,,2,,,83,63
18946,note_on,,10,0,1,,,,,,,,,0,,,69,0
18948,note_on,,6,0,4,,,,,,,,,3,,,73,0
18948,note_on,,2,0,1,,,,,,,,,0,,,60,79
18948,note_on,,0,0,4,,,,,,,,,3,,,71,63
18948,note_on,,0,0,3,,,,,,,,,2,,,81,63
18948,note_on,,6,0,3,,,,,,,,,2,,,83,0
18954,note_on,,6,0,4,,,,,,,,,3,,,71,0
18954,note_on,,0,0,4,,,,,,,,,3,,,73,63
18954,note_on,,6,0,3,,,,,,,,,2,,,81,0
18954,note_on,,0,0,3,,,,,,,,,2,,,83,63
18956,note_on,,20,0,6,,,,,,,,,5,,,62,0
18956,note_on,,20,0,7,,,,,,,,,6,,,53,0
18956,note_on,,20,0,2,,,,,,,,,1,,,53,0
18958,note_on,,10,0,1,,,,,,,,,0,,,60,0
18960,note_on,,24,0,5,,,,,,,,,4,,,65,0
18960,note_on,,2,0,1,,,,,,,,,0,,,62,79
18960,note_on,,0,0,5,,,,,,,,,4,,,65,56
18960,note_on,,4,0,6,,,,,,,,,5,,,62,56
18960,note_on,,4,0,2,,,,,,,,,1,,,50,63
18960,note_on,,6,0,4,,,,,,,,,3,,,73,0
18960,note_on,,0,0,4,,,,,,,,,3,,,71,63
18960,note_on,,0,0,3,,,,,,,,,2,,,81,63
18960,note_on,,6,0,3,,,,,,,,,2,,,83,0
18960,note_on,,4,0,7,,,,,,,,,6,,,50,63
18966,note_on,,6,0,4,,,,,,,,,3,,,71,0
18966,note_on,,0,0,4,,,,,,,,,3,,,73,63
18966,note_on,,6,0,3,,,,,,,,,2,,,81,0
18966,note_on,,0,0,3,,,,,,,,,2,,,83,63
18970,note_on,,10,0,1,,,,,,,,,0,,,62,0
18972,note_on,,2,0,1,,,,,,,,,0,,,68,79
18972,note_on,,6,0,4,,,,,,,,,3,,,73,0
18972,note_on,,6,0,3,,,,,,,,,2,,,83,0
18972,note_on,,0,0,3,,,,,,,,,2,,,81,63
18972,note_on,,0,0,4,,,,,,,,,3,,,71,63
18978,note_on,,6,0,4,,,,,,,,,3,,,71,0
18978,note_on,,0,0,4,,,,,,,,,3,,,73,63
18978,note_on,,6,0,3,,,,,,,,,2,,,81,0
18978,note_on,,0,0,3,,,,,,,,,2,,,83,63
18980,note_on,,20,0,2,,,,,,,,,1,,,50,0
18980,note_on,,20,0,6,,,,,,,,,5,,,62,0
18980,note_on,,20,0,7,,,,,,,,,6,,,50,0
18982,note_on,,10,0,1,,,,,,,,,0,,,68,0
18984,note_on,,0,0,3,,,,,,,,,2,,,81,63
18984,note_on,,24,0,5,,,,,,,,,4,,,65,0
18984,note_on,,6,0,4,,,,,,,,,3,,,73,0
18984,note_on,,0,0,4,,,,,,,,,3,,,71,63
18984,note_on,,4,0,6,,,,,,,,,5,,,62,56
18984,note_on,,4,0,7,,,,,,,,,6,,,47,63
18984,note_on,,2,0,1,,,,,,,,,0,,,69,79
18984,note_on,,0,0,5,,,,,,,,,4,,,65,56
18984,note_on,,6,0,3,,,,,,,,,2,,,83,0
18984,note_on,,4,0,2,,,,,,,,,1,,,47,63
18990,note_on,,6,0,3,,,,,,,,,2,,,81,0
18990,note_on,,0,0,3,,,,,,,,,2,,,83,63
18990,note_on,,6,0,4,,,,,,,,,3,,,71,0
18990,note_on,,0,0,4,,,,,,,,,3,,,73,63
18994,note_on,,10,0,1,,,,,,,,,0,,,69,0
18996,note_on,,6,0,3,,,,,,,,,2,,,83,0
18996,note_on,,0,0,3,,,,,,,,,2,,,81,63
18996,note_on,,2,0,1,,,,,,,,,0,,,59,79
18996,note_on,,0,0,4,,,,,,,,,3,,,71,63
18996,note_on,,6,0,4,,,,,,,,,3,,,73,0
19002,note_on,,6,0,3,,,,,,,,,2,,,81,0
19002,note_on,,0,0,3,,,,,,,,,2,,,83,63
19002,note_on,,0,0,4,,,,,,,,,3,,,73,63
19002,note_on,,6,0,4,,,,,,,,,3,,,71,0
19004,note_on,,20,0,7,,,,,,,,,6,,,47,0
19004,note_on,,20,0,2,,,,,,,,,1,,,47,0
19004,note_on,,20,0,6,,,,,,,,,5,,,62,0
19006,note_on,,10,0,1,,,,,,,,,0,,,59,0
19008,note_on,,6,0,3,,,,,,,,,2,,,83,0
19008,note_on,,2,0,1,,,,,,,,,0,,,62,79
19008,note_on,,0,0,3,,,,,,,,,2,,,80,63
19008,note_on,,4,0,7,,,,,,,,,6,,,40,63
19008,note_on,,6,0,4,,,,,,,,,3,,,73,0
19008,note_on,,152,0,8,,,,,,,,,7,,,28,63
19008,note_on,,24,0,5,,,,,,,,,4,,,65,0
19008,note_on,,0,0,4,,,,,,,,,3,,,71,63
19008,note_on,,4,0,2,,,,,,,,,1,,,40,63
19014,note_on,,6,0,4,,,,,,,,,3,,,71,0
19014,note_on,,6,0,3,,,,,,,,,2,,,80,0
19014,note_on,,0,0,3,,,,,,,,,2,,,81,63
19014,note_on,,0,0,4,,,,,,,,,3,,,73,63
19018,note_on,,10,0,1,,,,,,,,,0,,,62,0
19020,note_on,,6,0,3,,,,,,,,,2,,,81,0
19020,note_on,,6,0,4,,,,,,,,,3,,,73,0
19020,note_on,,0,0,4,,,,,,,,,3,,,71,63
19020,note_on,,2,0,1,,,,,,,,,0,,,64,79
19020,note_on,,0,0,3,,,,,,,,,2,,,80,63
19026,note_on,,0,0,3,,,,,,,,,2,,,81,63
19026,note_on,,6,0,4,,,,,,,,,3,,,71,0
19026,note_on,,0,0,4,,,,,,,,,3,,,73,63
19026,note_on,,6,0,3,,,,,,,,,2,,,80,0
19028,note_on,,20,0,2,,,,,,,,,1,,,40,0
19028,note_on,,20,0,7,,,,,,,,,6,,,40,0
19030,note_on,,10,0,1,,,,,,,,,0,,,64,0
19032,note_on,,0,0,3,,,,,,,,,2,,,80,63
19032,note_on,,4,0,7,,,,,,,,,6,,,64,63
19032,note_on,,2,0,1,,,,,,,,,0,,,68,79
19032,note_on,,28,0,6,,,,,,,,,5,,,62,56
19032,note_on,,6,0,4,,,,,,,,,3,,,73,0
19032,note_on,,0,0,4,,,,,,,,,3,,,71,63
19032,note_on,,6,0,3,,,,,,,,,2,,,81,0
19032,note_on,,4,0,2,,,,,,,,,1,,,64,63
19032,note_on,,24,0,5,,,,,,,,,4,,,64,56
19038,note_on,,0,0,3,,,,,,,,,2,,,81,63
19038,note_on,,0,0,4,,,,,,,,,3,,,73,63
19038,note_on,,6,0,4,,,,,,,,,3,,,71,0
19038,note_on,,6,0,3,,,,,,,,,2,,,80,0
19042,note_on,,10,0,1,,,,,,,,,0,,,68,0
19044,note_on,,0,0,4,,,,,,,,,3,,,71,63
19044,note_on,,6,0,4,,,,,,,,,3,,,73,0
19044,note_on,,2,0,1,,,,,,,,,0,,,60,79
19044,note_on,,0,0,3,,,,,,,,,2,,,80,63
19044,note_on,,6,0,3,,,,,,,,,2,,,81,0
19048,note_on,,40,0,8,,,,,,,,,7,,,28,0
19050,note_on,,0,0,4,,,,,,,,,3,,,73,63
19050,note_on,,6,0,3,,,,,,,,,2,,,80,0
19050,note_on,,0,0,3,,,,,,,,,2,,,81,63
19050,note_on,,6,0,4,,,,,,,,,3,,,71,0
19052,note_on,,20,0,2,,,,,,,,,1,,,64,0
19052,note_on,,20,0,6,,,,,,,,,5,,,62,0
19052,note_on,,20,0,7,,,,,,,,,6,,,64,0
19054,note_on,,10,0,1,,,,,,,,,0,,,60,0
19056,note_on,,0,0,5,,,,,,,,,4,,,64,56
19056,note_on,,4,0,7,,,,,,,,,6,,,59,63
19056,note_on,,0,0,3,,,,,,,,,2,,,80,63
19056,note_on,,4,0,6,,,,,,,,,5,,,62,56
19056,note_on,,6,0,3,,,,,,,,,2,,,81,0
19056,note_on,,0,0,4,,,,,,,,,3,,,71,63
19056,note_on,,4,0,2,,,,,,,,,1,,,59,63
19056,note_on,,6,0,4,,,,,,,,,3,,,73,0
19056,note_on,,2,0,1,,,,,,,,,0,,,62,79
19056,note_on,,24,0,5,,,,,,,,,4,,,64,0
19062,note_on,,6,0,3,,,,,,,,,2,,,80,0
19062,note_on,,6,0,4,,,,,,,,,3,,,71,0
19062,note_on,,0,0,3,,,,,,,,,2,,,81,63
19062,note_on,,0,0,4,,,,,,,,,3,,,73,63
19066,note_on,,10,0,1,,,,,,,,,0,,,62,0
19068,note_on,,2,0,1,,,,,,,,,0,,,64,79
19068,note_on,,6,0,3,,,,,,,,,2,,,81,0
19068,note_on,,0,0,3,,,,,,,,,2,,,80,63
19068,note_on,,0,0,4,,,,,,,,,3,,,71,63
19068,note_on,,6,0,4,,,,,,,,,3,,,73,0
19074,note_on,,6,0,3,,,,,,,,,2,,,80,0
19074,note_on,,0,0,3,,,,,,,,,2,,,81,63
19074,note_on,,6,0,4,,,,,,,,,3,,,71,0
19074,note_on,,0,0,4,,,,,,,,,3,,,73,63
19076,note_on,,20,0,7,,,,,,,,,6,,,59,0
19076,note_on,,20,0,2,,,,,,,,,1,,,59,0
19076,note_on,,20,0,6,,,,,,,,,5,,,62,0
19078,note_on,,10,0,1,,,,,,,,,0,,,64,0
19080,note_on,,4,0,7,,,,,,,,,6,,,56,63
19080,note_on,,4,0,2,,,,,,,,,1,,,56,63
19080,note_on,,4,0,6,,,,,,,,,5,,,62,56
19080,note_on,,24,0,5,,,,,,,,,4,,,64,0
19080,note_on,,0,0,5,,,,,,,,,4,,,64,56
19080,note_on,,0,0,3,,,,,,,,,2,,,80,63
19080,note_on,,6,0,4,,,,,,,,,3,,,73,0
19080,note_on,,6,0,3,,,,,,,,,2,,,81,0
19080,note_on,,0,0,4,,,,,,,,,3,,,71,63
19080,note_on,,2,0,1,,,,,,,,,0,,,68,79
19086,note_on,,6,0,4,,,,,,,,,3,,,71,0
19086,note_on,,0,0,3,,,,,,,,,2,,,81,63
19086,note_on,,6,0,3,,,,,,,,,2,,,80,0
19086,note_on,,0,0,4,,,,,,,,,3,,,73,63
19090,note_on,,10,0,1,,,,,,,,,0,,,68,0
19092,note_on,,6,0,4,,,,,,,,,3,,,73,0
19092,note_on,,2,0,1,,,,,,,,,0,,,59,79
19092,note_on,,6,0,3,,,,,,,,,2,,,81,0
19092,note_on,,0,0,4,,,,,,,,,3,,,71,63
19092,note_on,,0,0,3,,,,,,,,,2,,,80,63
19098,note_on,,0,0,4,,,,,,,,,3,,,73,63
19098,note_on,,6,0,4,,,,,,,,,3,,,71,0
19098,note_on,,6,0,3,,,,,,,,,2,,,80,0
19098,note_on,,0,0,3,,,,,,,,,2,,,81,63
19100,note_on,,20,0,2,,,,,,,,,1,,,56,0
19100,note_on,,20,0,7,,,,,,,,,6,,,56,0
19100,note_on,,20,0,6,,,,,,,,,5,,,62,0
19102,note_on,,10,0,1,,,,,,,,,0,,,59,0
19104,note_on,,0,0,4,,,,,,,,,3,,,71,63
19104,note_on,,2,0,1,,,,,,,,,0,,,62,79
19104,note_on,,24,0,5,,,,,,,,,4,,,64,0
19104,note_on,,6,0,3,,,,,,,,,2,,,81,0
19104,note_on,,0,0,3,,,,,,,,,2,,,80,63
19104,note_on,,4,0,2,,,,,,,,,1,,,52,63
19104,note_on,,6,0,4,,,,,,,,,3,,,73,0
19104,note_on,,4,0,7,,,,,,,,,6,,,52,63
19110,note_on,,6,0,3,,,,,,,,,2,,,80,0
19110,note_on,,0,0,3,,,,,,,,,2,,,81,63
19110,note_on,,0,0,4,,,,,,,,,3,,,73,63
19110,note_on,,6,0,4,,,,,,,,,3,,,71,0
19114,note_on,,10,0,1,,,,,,,,,0,,,62,0
19116,note_on,,2,0,1,,,,,,,,,0,,,64,79
19116,note_on,,6,0,4,,,,,,,,,3,,,73,0
19116,note_on,,0,0,4,,,,,,,,,3,,,71,63
19116,note_on,,6,0,3,,,,,,,,,2,,,81,0
19116,note_on,,0,0,3,,,,,,,,,2,,,80,63
19122,note_on,,6,0,4,,,,,,,,,3,,,71,0
19122,note_on,,0,0,4,,,,,,,,,3,,,73,63
19122,note_on,,0,0,3,,,,,,,,,2,,,81,63
19122,note_on,,6,0,3,,,,,,,,,2,,,80,0
19124,note_on,,20,0,7,,,,,,,,,6,,,52,0
19124,note_on,,20,0,2,,,,,,,,,1,,,52,0
19126,note_on,,10,0,1,,,,,,,,,0,,,64,0
19128,note_on,,28,0,6,,,,,,,,,5,,,62,56
19128,note_on,,4,0,7,,,,,,,,,6,,,47,63
19128,note_on,,0,0,3,,,,,,,,,2,,,80,63
19128,note_on,,4,0,2,,,,,,,,,1,,,47,63
19128,note_on,,6,0,3,,,,,,,,,2,,,81,0
19128,note_on,,6,0,4,,,,,,,,,3,,,73,0
19128,note_on,,24,0,5,,,,,,,,,4,,,64,56
19128,note_on,,2,0,1,,,,,,,,,0,,,68,79
19128,note_on,,0,0,4,,,,,,,,,3,,,71,63
19134,note_on,,6,0,4,,,,,,,,,3,,,71,0
19134,note_on,,0,0,4,,,,,,,,,3,,,73,63
19134,note_on,,0,0,3,,,,,,,,,2,,,81,63
19134,note_on,,6,0,3,,,,,,,,,2,,,80,0
19138,note_on,,10,0,1,,,,,,,,,0,,,68,0
19140,note_on,,6,0,3,,,,,,,,,2,,,81,0
19140,note_on,,6,0,4,,,,,,,,,3,,,73,0
19140,note_on,,0,0,4,,,,,,,,,3,,,71,63
19140,note_on,,2,0,1,,,,,,,,,0,,,60,79
19140,note_on,,0,0,3,,,,,,,,,2,,,80,63
19146,note_on,,6,0,3,,,,,,,,,2,,,80,0
19146,note_on,,6,0,4,,,,,,,,,3,,,71,0
19146,note_on,,0,0,4,,,,,,,,,3,,,73,63
19146,note_on,,0,0,3,,,,,,,,,2,,,81,63
19148,note_on,,20,0,2,,,,,,,,,1,,,47,0
19148,note_on,,20,0,7,,,,,,,,,6,,,47,0
19148,note_on,,20,0,6,,,,,,,,,5,,,62,0
19150,note_on,,10,0,1,,,,,,,,,0,,,60,0
19152,note_on,,6,0,3,,,,,,,,,2,,,81,0
19152,note_on,,4,0,2,,,,,,,,,1,,,44,63
19152,note_on,,2,0,1,,,,,,,,,0,,,62,79
19152,note_on,,24,0,5,,,,,,,,,4,,,64,0
19152,note_on,,0,0,5,,,,,,,,,4,,,64,56
19152,note_on,,6,0,4,,,,,,,,,3,,,73,0
19152,note_on,,0,0,4,,,,,,,,,3,,,71,63
19152,note_on,,4,0,6,,,,,,,,,5,,,62,56
19152,note_on,,0,0,3,,,,,,,,,2,,,80,63
19152,note_on,,4,0,7,,,,,,,,,6,,,44,63
19158,note_on,,0,0,3,,,,,,,,,2,,,81,63
19158,note_on,,6,0,3,,,,,,,,,2,,,80,0
19158,note_on,,6,0,4,,,,,,,,,3,,,71,0
19158,note_on,,0,0,4,,,,,,,,,3,,,73,63
19162,note_on,,10,0,1,,,,,,,,,0,,,62,0
19164,note_on,,0,0,3,,,,,,,,,2,,,80,63
19164,note_on,,2,0,1,,,,,,,,,0,,,64,79
19164,note_on,,6,0,3,,,,,,,,,2,,,81,0
19164,note_on,,6,0,4,,,,,,,,,3,,,73,0
19164,note_on,,0,0,4,,,,,,,,,3,,,71,63
19170,note_on,,0,0,3,,,,,,,,,2,,,81,63
19170,note_on,,6,0,4,,,,,,,,,3,,,71,0
19170,note_on,,0,0,4,,,,,,,,,3,,,73,63
19170,note_on,,6,0,3,,,,,,,,,2,,,80,0
19172,note_on,,20,0,6,,,,,,,,,5,,,62,0
19172,note_on,,20,0,2,,,,,,,,,1,,,44,0
19172,note_on,,20,0,7,,,,,,,,,6,,,44,0
19174,note_on,,10,0,1,,,,,,,,,0,,,64,0
19176,note_on,,6,0,3,,,,,,,,,2,,,81,0
19176,note_on,,0,0,3,,,,,,,,,2,,,80,63
19176,note_on,,4,0,2,,,,,,,,,1,,,40,63
19176,note_on,,0,0,5,,,,,,,,,4,,,64,56
19176,note_on,,24,0,5,,,,,,,,,4,,,64,0
19176,note_on,,2,0,1,,,,,,,,,0,,,68,79
19176,note_on,,4,0,7,,,,,,,,,6,,,40,63
19176,note_on,,4,0,6,,,,,,,,,5,,,62,56
19176,note_on,,0,0,4,,,,,,,,,3,,,71,63
19176,note_on,,6,0,4,,,,,,,,,3,,,73,0
19182,note_on,,6,0,3,,,,,,,,,2,,,80,0
19182,note_on,,0,0,4,,,,,,,,,3,,,73,63
19182,note_on,,6,0,4,,,,,,,,,3,,,71,0
19182,note_on,,0,0,3,,,,,,,,,2,,,81,63
19186,note_on,,10,0,1,,,,,,,,,0,,,68,0
19188,note_on,,6,0,3,,,,,,,,,2,,,81,0
19188,note_on,,0,0,3,,,,,,,,,2,,,80,63
19188,note_on,,2,0,1,,,,,,,,,0,,,59,79
19188,note_on,,6,0,4,,,,,,,,,3,,,73,0
19188,note_on,,0,0,4,,,,,,,,,3,,,71,63
19194,note_on,,6,0,4,,,,,,,,,3,,,71,0
19194,note_on,,0,0,3,,,,,,,,,2,,,81,63
19194,note_on,,6,0,3,,,,,,,,,2,,,80,0
19194,note_on,,0,0,4,,,,,,,,,3,,,73,63
19196,note_on,,20,0,6,,,,,,,,,5,,,62,0
19196,note_on,,20,0,2,,,,,,,,,1,,,40,0
19196,note_on,,20,0,7,,,,,,,,,6,,,40,0
19198,note_on,,10,0,1,,,,,,,,,0,,,59,0
19200,note_on,,0,0,4,,,,,,,,,3,,,69,95
19200,note_on,,6,0,4,,,,,,,,,3,,,73,0
19200,note_on,,4,0,6,,,,,,,,,5,,,61,95
19200,note_on,,6,0,3,,,,,,,,,2,,,81,0
19200,note_on,,0,0,1,,,,,,,,,0,,,64,79
19200,note_on,,0,0,3,,,,,,,,,2,,,81,63
19200,note_on,,0,0,1,,,,,,,,,0,,,69,79
19200,note_on,,152,0,8,,,,,,,,,7,,,33,95
19200,note_on,,4,0,7,,,,,,,,,6,,,45,95
19200,note_on,,2,0,1,,,,,,,,,0,,,61,79
19200,note_on,,24,0,5,,,,,,,,,4,,,64,0
19200,note_on,,4,0,2,,,,,,,,,1,,,45,79
19200,note_on,,0,0,5,,,,,,,,,4,,,64,95
19210,note_on,,10,0,4,,,,,,,,,3,,,69,0
19212,note_on,,12,0,5,,,,,,,,,4,,,64,0
19212,note_on,,0,0,5,,,,,,,,,4,,,69,95
19212,note_on,,2,0,4,,,,,,,,,3,,,69,95
19222,note_on,,10,0,4,,,,,,,,,3,,,69,0
19224,note_on,,12,0,5,,,,,,,,,4,,,69,0
19224,note_on,,0,0,5,,,,,,,,,4,,,73,95
19224,note_on,,2,0,4,,,,,,,,,3,,,73,95
19234,note_on,,10,0,4,,,,,,,,,3,,,73,0
19236,note_on,,12,0,5,,,,,,,,,4,,,73,0
19236,note_on,,2,0,4,,,,,,,,,3,,,73,95
19236,note_on,,0,0,5,,,,,,,,,4,,,73,95
19240,note_on,,40,0,1,,,,,,,,,0,,,69,0
19240,note_on,,40,0,6,,,,,,,,,5,,,61,0
19240,note_on,,40,0,7,,,,,,,,,6,,,45,0
19240,note_on,,0,0,1,,,,,,,,,0,,,61,0
19240,note_on,,40,0,8,,,,,,,,,7,,,33,0
19240,note_on,,0,0,1,,,,,,,,,0,,,64,0
19240,note_on,,40,0,2,,,,,,,,,1,,,45,0
19246,note_on,,10,0,4,,,,,,,,,3,,,73,0
19248,note_on,,2,0,4,,,,,,,,,3,,,76,95
19248,note_on,,0,0,5,,,,,,,,,4,,,76,95
19248,note_on,,12,0,5,,,,,,,,,4,,,73,0
19258,note_on,,10,0,5,,,,,,,,,4,,,76,0
19258,note_on,,10,0,4,,,,,,,,,3,,,76,0
19260,note_on,,2,0,4,,,,,,,,,3,,,76,95
19260,note_on,,2,0,5,,,,,,,,,4,,,76,95
19270,note_on,,10,0,4,,,,,,,,,3,,,76,0
19270,note_on,,10,0,5,,,,,,,,,4,,,76,0
19272,note_on,,32,0,6,,,,,,,,,5,,,73,95
19272,note_on,,32,0,8,,,,,,,,,7,,,33,95
19272,note_on,,2,0,4,,,,,,,,,3,,,81,95
19272,note_on,,2,0,5,,,,,,,,,4,,,81,95
19272,note_on,,32,0,2,,,,,,,,,1,,,45,79
19272,note_on,,32,0,7,,,,,,,,,6,,,45,95
19282,note_on,,10,0,4,,,,,,,,,3,,,81,0
19282,note_on,,10,0,5,,,,,,,,,4,,,81,0
19284,note_on,,2,0,5,,,,,,,,,4,,,81,95
19284,note_on,,2,0,4,,,,,,,,,3,,,81,95
19292,note_on,,20,0,2,,,,,,,,,1,,,45,0
19293,note_on,,21,0,8,,,,,,,,,7,,,33,0
19293,note_on,,21,0,7,,,,,,,,,6,,,45,0
19293,note_on,,21,0,6,,,,,,,,,5,,,73,0
19294,note_on,,10,0,4,,,,,,,,,3,,,81,0
19294,note_on,,10,0,5,,,,,,,,,4,,,81,0
19296,note_on,,3,0,7,,,,,,,,,6,,,52,95
19296,note_on,,96,0,3,,,,,,,,,2,,,81,0
19296,note_on,,2,0,5,,,,,,,,,4,,,80,95
19296,note_on,,4,0,2,,,,,,,,,1,,,52,79
19296,note_on,,2,0,4,,,,,,,,,3,,,80,95
19296,note_on,,3,0,8,,,,,,,,,7,,,40,95
19296,note_on,,3,0,6,,,,,,,,,5,,,71,95
19306,note_on,,10,0,5,,,,,,,,,4,,,80,0
19306,note_on,,10,0,4,,,,,,,,,3,,,80,0
19308,note_on,,2,0,5,,,,,,,,,4,,,81,95
19308,note_on,,2,0,4,,,,,,,,,3,,,81,95
19316,note_on,,20,0,2,,,,,,,,,1,,,52,0
19317,note_on,,21,0,8,,,,,,,,,7,,,40,0
19317,note_on,,21,0,6,,,,,,,,,5,,,71,0
19317,note_on,,21,0,7,,,,,,,,,6,,,52,0
19318,note_on,,10,0,5,,,,,,,,,4,,,81,0
19318,note_on,,10,0,4,,,,,,,,,3,,,81,0
19320,note_on,,3,0,7,,,,,,,,,6,,,54,95
19320,note_on,,2,0,5,,,,,,,,,4,,,80,95
19320,note_on,,3,0,6,,,,,,,,,5,,,69,95
19320,note_on,,4,0,2,,,,,,,,,1,,,54,79
19320,note_on,,2,0,4,,,,,,,,,3,,,80,95
19320,note_on,,3,0,8,,,,,,,,,7,,,42,95
19330,note_on,,10,0,5,,,,,,,,,4,,,80,0
19330,note_on,,10,0,4,,,,,,,,,3,,,80,0
19332,note_on,,2,0,5,,,,,,,,,4,,,78,95
19332,note_on,,2,0,4,,,,,,,,,3,,,78,95
19340,note_on,,20,0,2,,,,,,,,,1,,,54,0
19341,note_on,,21,0,7,,,,,,,,,6,,,54,0
19341,note_on,,21,0,6,,,,,,,,,5,,,69,0
19341,note_on,,21,0,8,,,,,,,,,7,,,42,0
19342,note_on,,10,0,5,,,,,,,,,4,,,78,0
19342,note_on,,10,0,4,,,,,,,,,3,,,78,0
19344,note_on,,2,0,4,,,,,,,,,3,,,76,95
19344,note_on,,4,0,2,,,,,,,,,1,,,56,79
19344,note_on,,2,0,5,,,,,,,,,4,,,76,95
19344,note_on,,3,0,6,,,,,,,,,5,,,71,95
19344,note_on,,3,0,7,,,,,,,,,6,,,56,95
19344,note_on,,3,0,8,,,,,,,,,7,,,44,95
19354,note_on,,10,0,5,,,,,,,,,4,,,76,0
19354,note_on,,10,0,4,,,,,,,,,3,,,76,0
19356,note_on,,2,0,5,,,,,,,,,4,,,74,95
19356,note_on,,2,0,4,,,,,,,,,3,,,74,95
19364,note_on,,20,0,2,,,,,,,,,1,,,56,0
19365,note_on,,21,0,8,,,,,,,,,7,,,44,0
19365,note_on,,21,0,7,,,,,,,,,6,,,56,0
19365,note_on,,21,0,6,,,,,,,,,5,,,71,0
19366,note_on,,10,0,5,,,,,,,,,4,,,74,0
19366,note_on,,10,0,4,,,,,,,,,3,,,74,0
19368,note_on,,3,0,7,,,,,,,,,6,,,52,95
19368,note_on,,2,0,5,,,,,,,,,4,,,73,95
19368,note_on,,3,0,6,,,,,,,,,5,,,68,95
19368,note_on,,4,0,2,,,,,,,,,1,,,52,79
19368,note_on,,3,0,8,,,,,,,,,7,,,40,95
19368,note_on,,2,0,4,,,,,,,,,3,,,73,95
19378,note_on,,10,0,4,,,,,,,,,3,,,73,0
19378,note_on,,10,0,5,,,,,,,,,4,,,73,0
19380,note_on,,2,0,4,,,,,,,,,3,,,71,95
19380,note_on,,2,0,5,,,,,,,,,4,,,71,95
19388,note_on,,20,0,2,,,,,,,,,1,,,52,0
19389,note_on,,21,0,8,,,,,,,,,7,,,40,0
19389,note_on,,21,0,7,,,,,,,,,6,,,52,0
19389,note_on,,21,0,6,,,,,,,,,5,,,68,0
19390,note_on,,10,0,5,,,,,,,,,4,,,71,0
19390,note_on,,10,0,4,,,,,,,,,3,,,71,0
19392,note_on,,2,0,5,,,,,,,,,4,,,69,95
19392,note_on,,4,0,2,,,,,,,,,1,,,49,79
19392,note_on,,3,0,8,,,,,,,,,7,,,37,95
19392,note_on,,3,0,6,,,,,,,,,5,,,64,95
19392,note_on,,2,0,4,,,,,,,,,3,,,69,95
19392,note_on,,3,0,7,,,,,,,,,6,,,49,95
19402,note_on,,10,0,4,,,,,,,,,3,,,69,0
19402,note_on,,10,0,5,,,,,,,,,4,,,69,0
19404,note_on,,2,0,4,,,,,,,,,3,,,69,95
19404,note_on,,2,0,5,,,,,,,,,4,,,69,95
19412,note_on,,20,0,2,,,,,,,,,1,,,49,0
19413,note_on,,21,0,8,,,,,,,,,7,,,37,0
19413,note_on,,21,0,6,,,,,,,,,5,,,64,0
19413,note_on,,21,0,7,,,,,,,,,6,,,49,0
19414,note_on,,10,0,4,,,,,,,,,3,,,69,0
19414,note_on,,10,0,5,,,,,,,,,4,,,69,0
19416,note_on,,3,0,6,,,,,,,,,5,,,64,95
19416,note_on,,4,0,2,,,,,,,,,1,,,47,79
19416,note_on,,2,0,4,,,,,,,,,3,,,73,95
19416,note_on,,2,0,5,,,,,,,,,4,,,73,95
19416,note_on,,3,0,8,,,,,,,,,7,,,35,95
19416,note_on,,3,0,7,,,,,,,,,6,,,47,95
19426,note_on,,10,0,5,,,,,,,,,4,,,73,0
19426,note_on,,10,0,4,,,,,,,,,3,,,73,0
19428,note_on,,2,0,4,,,,,,,,,3,,,73,95
19428,note_on,,2,0,5,,,,,,,,,4,,,73,95
19436,note_on,,20,0,2,,,,,,,,,1,,,47,0
19437,note_on,,21,0,7,,,,,,,,,6,,,47,0
19437,note_on,,21,0,8,,,,,,,,,7,,,35,0
19437,note_on,,21,0,6,,,,,,,,,5,,,64,0
19438,note_on,,10,0,5,,,,,,,,,4,,,73,0
19438,note_on,,10,0,4,,,,,,,,,3,,,73,0
19440,note_on,,2,0,5,,,,,,,,,4,,,76,95
19440,note_on,,4,0,2,,,,,,,,,1,,,49,79
19440,note_on,,3,0,6,,,,,,,,,5,,,69,95
19440,note_on,,2,0,4,,,,,,,,,3,,,76,95
19440,note_on,,3,0,7,,,,,,,,,6,,,49,95
19440,note_on,,3,0,8,,,,,,,,,7,,,37,95
19450,note_on,,10,0,5,,,,,,,,,4,,,76,0
19450,note_on,,10,0,4,,,,,,,,,3,,,76,0
19452,note_on,,2,0,4,,,,,,,,,3,,,76,95
19452,note_on,,2,0,5,,,,,,,,,4,,,76,95
19460,note_on,,20,0,2,,,,,,,,,1,,,49,0
19461,note_on,,21,0,7,,,,,,,,,6,,,49,0
19461,note_on,,21,0,6,,,,,,,,,5,,,69,0
19461,note_on,,21,0,8,,,,,,,,,7,,,37,0
19462,note_on,,10,0,4,,,,,,,,,3,,,76,0
19462,note_on,,10,0,5,,,,,,,,,4,,,76,0
19464,note_on,,2,0,4,,,,,,,,,3,,,81,95
19464,note_on,,2,0,5,,,,,,,,,4,,,81,95
19464,note_on,,3,0,8,,,,,,,,,7,,,33,95
19464,note_on,,3,0,6,,,,,,,,,5,,,73,95
19464,note_on,,3,0,7,,,,,,,,,6,,,45,95
19464,note_on,,4,0,2,,,,,,,,,1,,,45,79
19474,note_on,,10,0,4,,,,,,,,,3,,,81,0
19474,note_on,,10,0,5,,,,,,,,,4,,,81,0
19476,note_on,,2,0,5,,,,,,,,,4,,,81,95
19476,note_on,,2,0,4,,,,,,,,,3,,,81,95
19484,note_on,,20,0,2,,,,,,,,,1,,,45,0
19485,note_on,,21,0,7,,,,,,,,,6,,,45,0
19485,note_on,,21,0,8,,,,,,,,,7,,,33,0
19485,note_on,,21,0,6,,,,,,,,,5,,,73,0
19486,note_on,,10,0,5,,,,,,,,,4,,,81,0
19486,note_on,,10,0,4,,,,,,,,,3,,,81,0
19488,note_on,,2,0,4,,,,,,,,,3,,,83,95
19488,note_on,,3,0,7,,,,,,,,,6,,,52,95
19488,note_on,,2,0,5,,,,,,,,,4,,,83,95
19488,note_on,,4,0,2,,,,,,,,,1,,,52,79
19488,note_on,,3,0,6,,,,,,,,,5,,,68,95
19488,note_on,,3,0,8,,,,,,,,,7,,,40,95
19500,note_on,,204,0,3,,,,,,,,,2,,,71,95
19508,note_on,,20,0,5,,,,,,,,,4,,,83,0
19508,note_on,,20,0,2,,,,,,,,,1,,,52,0
19508,note_on,,20,0,4,,,,,,,,,3,,,83,0
19509,note_on,,21,0,7,,,,,,,,,6,,,52,0
19509,note_on,,21,0,6,,,,,,,,,5,,,68,0
19509,note_on,,21,0,8,,,,,,,,,7,,,40,0
19510,note_on,,10,0,3,,,,,,,,,2,,,71,0
19512,note_on,,4,0,2,,,,,,,,,1,,,50,79
19512,note_on,,2,0,3,,,,,,,,,2,,,73,95
19512,note_on,,3,0,7,,,,,,,,,6,,,50,63
19512,note_on,,4,0,4,,,,,,,,,3,,,76,95
19512,note_on,,4,0,5,,,,,,,,,4,,,76,95
19522,note_on,,10,0,3,,,,,,,,,2,,,73,0
19524,note_on,,2,0,3,,,,,,,,,2,,,74,95
19532,note_on,,20,0,2,,,,,,,,,1,,,50,0
19532,note_on,,20,0,4,,,,,,,,,3,,,76,0
19532,note_on,,20,0,5,,,,,,,,,4,,,76,0
19533,note_on,,21,0,7,,,,,,,,,6,,,50,0
19534,note_on,,10,0,3,,,,,,,,,2,,,74,0
19536,note_on,,3,0,7,,,,,,,,,6,,,49,63
19536,note_on,,2,0,3,,,,,,,,,2,,,76,95
19536,note_on,,4,0,2,,,,,,,,,1,,,49,79
19548,note_on,,16,0,4,,,,,,,,,3,,,76,95
19556,note_on,,20,0,2,,,,,,,,,1,,,49,0
19557,note_on,,21,0,7,,,,,,,,,6,,,49,0
19558,note_on,,10,0,4,,,,,,,,,3,,,76,0
19560,note_on,,3,0,7,,,,,,,,,6,,,50,63
19560,note_on,,4,0,2,,,,,,,,,1,,,50,79
19560,note_on,,2,0,4,,,,,,,,,3,,,78,95
19570,note_on,,10,0,4,,,,,,,,,3,,,78,0
19570,note_on,,10,0,7,,,,,,,,,6,,,50,0
19570,note_on,,10,0,2,,,,,,,,,1,,,50,0
19572,note_on,,2,0,7,,,,,,,,,6,,,52,63
19572,note_on,,2,0,2,,,,,,,,,1,,,52,79
19572,note_on,,2,0,4,,,,,,,,,3,,,80,95
19582,note_on,,10,0,7,,,,,,,,,6,,,52,0
19582,note_on,,10,0,2,,,,,,,,,1,,,52,0
19582,note_on,,10,0,4,,,,,,,,,3,,,80,0
19584,note_on,,2,0,4,,,,,,,,,3,,,81,95
19584,note_on,,2,0,7,,,,,,,,,6,,,54,63
19584,note_on,,2,0,2,,,,,,,,,1,,,54,79
19594,note_on,,10,0,4,,,,,,,,,3,,,81,0
19596,note_on,,2,0,4,,,,,,,,,3,,,69,95
19604,note_on,,20,0,2,,,,,,,,,1,,,54,0
19605,note_on,,21,0,7,,,,,,,,,6,,,54,0
19606,note_on,,10,0,4,,,,,,,,,3,,,69,0
19608,note_on,,3,0,7,,,,,,,,,6,,,56,63
19608,note_on,,4,0,2,,,,,,,,,1,,,56,79
19608,note_on,,2,0,4,,,,,,,,,3,,,71,95
19616,note_on,,80,0,3,,,,,,,,,2,,,76,0
19618,note_on,,10,0,2,,,,,,,,,1,,,56,0
19618,note_on,,10,0,7,,,,,,,,,6,,,56,0
19618,note_on,,10,0,4,,,,,,,,,3,,,71,0
19620,note_on,,2,0,7,,,,,,,,,6,,,57,63
19620,note_on,,2,0,4,,,,,,,,,3,,,73,95
19620,note_on,,2,0,2,,,,,,,,,1,,,57,79
19630,note_on,,10,0,4,,,,,,,,,3,,,73,0
19630,note_on,,10,0,2,,,,,,,,,1,,,57,0
19630,note_on,,10,0,7,,,,,,,,,6,,,57,0
19632,note_on,,2,0,4,,,,,,,,,3,,,74,95
19632,note_on,,2,0,2,,,,,,,,,1,,,59,79
19632,note_on,,16,0,3,,,,,,,,,2,,,74,95
19632,note_on,,2,0,7,,,,,,,,,6,,,59,63
19642,note_on,,10,0,4,,,,,,,,,3,,,74,0
19644,note_on,,2,0,4,,,,,,,,,3,,,76,95
19652,note_on,,20,0,2,,,,,,,,,1,,,59,0
19653,note_on,,21,0,7,,,,,,,,,6,,,59,0
19654,note_on,,10,0,4,,,,,,,,,3,,,76,0
19656,note_on,,4,0,2,,,,,,,,,1,,,47,79
19656,note_on,,3,0,7,,,,,,,,,6,,,47,63
19656,note_on,,2,0,4,,,,,,,,,3,,,78,95
19666,note_on,,10,0,4,,,,,,,,,3,,,78,0
19668,note_on,,2,0,4,,,,,,,,,3,,,74,95
19676,note_on,,20,0,2,,,,,,,,,1,,,47,0
19677,note_on,,21,0,7,,,,,,,,,6,,,47,0
19678,note_on,,10,0,4,,,,,,,,,3,,,74,0
19680,note_on,,2,0,4,,,,,,,,,3,,,80,95
19680,note_on,,3,0,7,,,,,,,,,6,,,52,63
19680,note_on,,4,0,2,,,,,,,,,1,,,52,79
19690,note_on,,10,0,4,,,,,,,,,3,,,80,0
19692,note_on,,2,0,4,,,,,,,,,3,,,68,95
19700,note_on,,20,0,2,,,,,,,,,1,,,52,0
19701,note_on,,21,0,7,,,,,,,,,6,,,52,0
19702,note_on,,10,0,4,,,,,,,,,3,,,68,0
19704,note_on,,3,0,7,,,,,,,,,6,,,54,63
19704,note_on,,2,0,4,,,,,,,,,3,,,69,95
19704,note_on,,4,0,2,,,,,,,,,1,,,54,79
19712,note_on,,80,0,3,,,,,,,,,2,,,74,0
19714,note_on,,10,0,2,,,,,,,,,1,,,54,0
19714,note_on,,10,0,7,,,,,,,,,6,,,54,0
19714,note_on,,10,0,4,,,,,,,,,3,,,69,0
19716,note_on,,2,0,4,,,,,,,,,3,,,71,95
19716,note_on,,2,0,7,,,,,,,,,6,,,56,63
19716,note_on,,2,0,2,,,,,,,,,1,,,56,79
19726,note_on,,10,0,4,,,,,,,,,3,,,71,0
19726,note_on,,10,0,7,,,,,,,,,6,,,56,0
19726,note_on,,10,0,2,,,,,,,,,1,,,56,0
19728,note_on,,2,0,2,,,,,,,,,1,,,57,79
19728,note_on,,2,0,4,,,,,,,,,3,,,73,95
19728,note_on,,2,0,7,,,,,,,,,6,,,57,63
19740,note_on,,28,0,3,,,,,,,,,2,,,73,95
19748,note_on,,20,0,2,,,,,,,,,1,,,57,0
19749,note_on,,21,0,7,,,,,,,,,6,,,57,0
19750,note_on,,10,0,3,,,,,,,,,2,,,73,0
19752,note_on,,3,0,7,,,,,,,,,6,,,45,63
19752,note_on,,2,0,3,,,,,,,,,2,,,74,95
19752,note_on,,4,0,2,,,,,,,,,1,,,45,79
19762,note_on,,10,0,3,,,,,,,,,2,,,74,0
19764,note_on,,2,0,3,,,,,,,,,2,,,76,95
19772,note_on,,20,0,2,,,,,,,,,1,,,45,0
19773,note_on,,21,0,7,,,,,,,,,6,,,45,0
19774,note_on,,10,0,3,,,,,,,,,2,,,76,0
19776,note_on,,2,0,3,,,,,,,,,2,,,78,95
19776,note_on,,3,0,7,,,,,,,,,6,,,50,63
19776,note_on,,4,0,2,,,,,,,,,1,,,50,79
19786,note_on,,10,0,3,,,,,,,,,2,,,78,0
19788,note_on,,2,0,3,,,,,,,,,2,,,66,95
19796,note_on,,20,0,2,,,,,,,,,1,,,50,0
19797,note_on,,21,0,7,,,,,,,,,6,,,50,0
19798,note_on,,10,0,3,,,,,,,,,2,,,66,0
19800,note_on,,4,0,2,,,,,,,,,1,,,52,79
19800,note_on,,3,0,7,,,,,,,,,6,,,52,63
19800,note_on,,2,0,3,,,,,,,,,2,,,68,95
19808,note_on,,80,0,4,,,,,,,,,3,,,73,0
19810,note_on,,10,0,2,,,,,,,,,1,,,52,0
19810,note_on,,10,0,7,,,,,,,,,6,,,52,0
19810,note_on,,10,0,3,,,,,,,,,2,,,68,0
19812,note_on,,2,0,2,,,,,,,,,1,,,54,79
19812,note_on,,2,0,3,,,,,,,,,2,,,69,95
19812,note_on,,2,0,7,,,,,,,,,6,,,54,63
19822,note_on,,10,0,7,,,,,,,,,6,,,54,0
19822,note_on,,10,0,2,,,,,,,,,1,,,54,0
19822,note_on,,10,0,3,,,,,,,,,2,,,69,0
19824,note_on,,2,0,7,,,,,,,,,6,,,44,63
19824,note_on,,2,0,2,,,,,,,,,1,,,44,79
19824,note_on,,2,0,3,,,,,,,,,2,,,71,95
19824,note_on,,16,0,4,,,,,,,,,3,,,71,95
19834,note_on,,10,0,3,,,,,,,,,2,,,71,0
19836,note_on,,2,0,3,,,,,,,,,2,,,73,95
19844,note_on,,20,0,2,,,,,,,,,1,,,44,0
19845,note_on,,21,0,7,,,,,,,,,6,,,44,0
19846,note_on,,10,0,3,,,,,,,,,2,,,73,0
19848,note_on,,3,0,7,,,,,,,,,6,,,56,63
19848,note_on,,4,0,2,,,,,,,,,1,,,56,79
19848,note_on,,2,0,3,,,,,,,,,2,,,74,95
19858,note_on,,10,0,3,,,,,,,,,2,,,74,0
19860,note_on,,2,0,3,,,,,,,,,2,,,71,95
19868,note_on,,20,0,2,,,,,,,,,1,,,56,0
19869,note_on,,21,0,7,,,,,,,,,6,,,56,0
19870,note_on,,10,0,3,,,,,,,,,2,,,71,0
19872,note_on,,2,0,3,,,,,,,,,2,,,76,95
19872,note_on,,3,0,7,,,,,,,,,6,,,49,63
19872,note_on,,4,0,2,,,,,,,,,1,,,49,79
19882,note_on,,10,0,3,,,,,,,,,2,,,76,0
19884,note_on,,2,0,3,,,,,,,,,2,,,64,95
19892,note_on,,20,0,2,,,,,,,,,1,,,49,0
19893,note_on,,21,0,7,,,,,,,,,6,,,49,0
19894,note_on,,10,0,3,,,,,,,,,2,,,64,0
19896,note_on,,4,0,2,,,,,,,,,1,,,50,79
19896,note_on,,2,0,3,,,,,,,,,2,,,66,95
19896,note_on,,3,0,7,,,,,,,,,6,,,50,63
19904,note_on,,80,0,4,,,,,,,,,3,,,71,0
19906,note_on,,10,0,2,,,,,,,,,1,,,50,0
19906,note_on,,10,0,7,,,,,,,,,6,,,50,0
19906,note_on,,10,0,3,,,,,,,,,2,,,66,0
19908,note_on,,2,0,3,,,,,,,,,2,,,68,95
19908,note_on,,2,0,7,,,,,,,,,6,,,52,63
19908,note_on,,2,0,2,,,,,,,,,1,,,52,79
19918,note_on,,10,0,3,,,,,,,,,2,,,68,0
19918,note_on,,10,0,2,,,,,,,,,1,,,52,0
19918,note_on,,10,0,7,,,,,,,,,6,,,52,0
19920,note_on,,2,0,3,,,,,,,,,2,,,69,95
19920,note_on,,2,0,7,,,,,,,,,6,,,42,63
19920,note_on,,2,0,2,,,,,,,,,1,,,42,79
19932,note_on,,28,0,4,,,,,,,,,3,,,69,95
19940,note_on,,20,0,2,,,,,,,,,1,,,42,0
19941,note_on,,21,0,7,,,,,,,,,6,,,42,0
19942,note_on,,10,0,4,,,,,,,,,3,,,69,0
19944,note_on,,2,0,4,,,,,,,,,3,,,71,95
19944,note_on,,3,0,7,,,,,,,,,6,,,54,63
19944,note_on,,4,0,2,,,,,,,,,1,,,54,79
19954,note_on,,10,0,4,,,,,,,,,3,,,71,0
19956,note_on,,2,0,4,,,,,,,,,3,,,73,95
19964,note_on,,20,0,2,,,,,,,,,1,,,54,0
19965,note_on,,21,0,7,,,,,,,,,6,,,54,0
19966,note_on,,10,0,4,,,,,,,,,3,,,73,0
19968,note_on,,3,0,7,,,,,,,,,6,,,47,63
19968,note_on,,2,0,4,,,,,,,,,3,,,74,95
19968,note_on,,4,0,2,,,,,,,,,1,,,47,79
19978,note_on,,10,0,4,,,,,,,,,3,,,74,0
19980,note_on,,2,0,4,,,,,,,,,3,,,71,95
19988,note_on,,20,0,2,,,,,,,,,1,,,47,0
19989,note_on,,21,0,7,,,,,,,,,6,,,47,0
19990,note_on,,10,0,4,,,,,,,,,3,,,71,0
19992,note_on,,3,0,7,,,,,,,,,6,,,45,63
19992,note_on,,2,0,4,,,,,,,,,3,,,73,95
19992,note_on,,4,0,2,,,,,,,,,1,,,45,79
20000,note_on,,80,0,3,,,,,,,,,2,,,69,0
20002,note_on,,10,0,4,,,,,,,,,3,,,73,0
20004,note_on,,2,0,4,,,,,,,,,3,,,76,95
20012,note_on,,20,0,2,,,,,,,,,1,,,45,0
20013,note_on,,21,0,7,,,,,,,,,6,,,45,0
20014,note_on,,10,0,4,,,,,,,,,3,,,76,0
20016,note_on,,16,0,3,,,,,,,,,2,,,68,95
20016,note_on,,2,0,4,,,,,,,,,3,,,74,95
20016,note_on,,4,0,2,,,,,,,,,1,,,47,79
20016,note_on,,3,0,7,,,,,,,,,6,,,47,63
20026,note_on,,10,0,4,,,,,,,,,3,,,74,0
20028,note_on,,2,0,4,,,,,,,,,3,,,78,95
20036,note_on,,20,0,2,,,,,,,,,1,,,47,0
20037,note_on,,21,0,7,,,,,,,,,6,,,47,0
20038,note_on,,10,0,4,,,,,,,,,3,,,78,0
20040,note_on,,2,0,4,,,,,,,,,3,,,76,95
20040,note_on,,531,0,6,,,,,,,,,5,,,68,56
20040,note_on,,4,0,2,,,,,,,,,1,,,52,79
20040,note_on,,508,0,5,,,,,,,,,4,,,71,63
20040,note_on,,3,0,7,,,,,,,,,6,,,40,63
20050,note_on,,10,0,4,,,,,,,,,3,,,76,0
20052,note_on,,2,0,4,,,,,,,,,3,,,74,95
20056,note_on,,40,0,3,,,,,,,,,2,,,68,0
20060,note_on,,20,0,5,,,,,,,,,4,,,71,0
20060,note_on,,20,0,2,,,,,,,,,1,,,52,0
20061,note_on,,21,0,6,,,,,,,,,5,,,68,0
20061,note_on,,21,0,7,,,,,,,,,6,,,40,0
20062,note_on,,10,0,4,,,,,,,,,3,,,74,0
20064,note_on,,4,0,2,,,,,,,,,1,,,45,79
20064,note_on,,4,0,5,,,,,,,,,4,,,73,63
20064,note_on,,3,0,7,,,,,,,,,6,,,45,63
20064,note_on,,2,0,4,,,,,,,,,3,,,73,95
20064,note_on,,3,0,6,,,,,,,,,5,,,64,56
20064,note_on,,8,0,3,,,,,,,,,2,,,69,95
20064,note_on,,555,0,8,,,,,,,,,7,,,28,56
20074,note_on,,10,0,4,,,,,,,,,3,,,73,0
20076,note_on,,2,0,4,,,,,,,,,3,,,76,95
20084,note_on,,20,0,5,,,,,,,,,4,,,73,0
20084,note_on,,20,0,2,,,,,,,,,1,,,45,0
20084,note_on,,20,0,8,,,,,,,,,7,,,28,0
20085,note_on,,21,0,6,,,,,,,,,5,,,64,0
20085,note_on,,21,0,7,,,,,,,,,6,,,45,0
20086,note_on,,10,0,4,,,,,,,,,3,,,76,0
20088,note_on,,4,0,8,,,,,,,,,7,,,33,56
20088,note_on,,3,0,6,,,,,,,,,5,,,61,56
20088,note_on,,2,0,4,,,,,,,,,3,,,78,95
20088,note_on,,4,0,5,,,,,,,,,4,,,69,63
20088,note_on,,3,0,7,,,,,,,,,6,,,57,63
20088,note_on,,4,0,2,,,,,,,,,1,,,57,79
20098,note_on,,10,0,4,,,,,,,,,3,,,78,0
20100,note_on,,2,0,4,,,,,,,,,3,,,79,95
20104,note_on,,40,0,3,,,,,,,,,2,,,69,0
20108,note_on,,20,0,5,,,,,,,,,4,,,69,0
20108,note_on,,20,0,2,,,,,,,,,1,,,57,0
20109,note_on,,21,0,7,,,,,,,,,6,,,57,0
20109,note_on,,21,0,6,,,,,,,,,5,,,61,0
20110,note_on,,10,0,4,,,,,,,,,3,,,79,0
20112,note_on,,2,0,4,,,,,,,,,3,,,81,95
20124,note_on,,15,0,7,,,,,,,,,6,,,42,63
20124,note_on,,20,0,3,,,,,,,,,2,,,69,95
20124,note_on,,16,0,2,,,,,,,,,1,,,54,79
20128,note_on,,40,0,8,,,,,,,,,7,,,33,0
20134,note_on,,10,0,2,,,,,,,,,1,,,54,0
20134,note_on,,10,0,3,,,,,,,,,2,,,69,0
20134,note_on,,10,0,7,,,,,,,,,6,,,42,0
20136,note_on,,2,0,3,,,,,,,,,2,,,71,95
20136,note_on,,2,0,2,,,,,,,,,1,,,55,79
20136,note_on,,2,0,7,,,,,,,,,6,,,43,63
20146,note_on,,10,0,7,,,,,,,,,6,,,43,0
20146,note_on,,10,0,3,,,,,,,,,2,,,71,0
20146,note_on,,10,0,2,,,,,,,,,1,,,55,0
20148,note_on,,2,0,7,,,,,,,,,6,,,45,63
20148,note_on,,2,0,2,,,,,,,,,1,,,57,79
20148,note_on,,2,0,3,,,,,,,,,2,,,73,95
20158,note_on,,10,0,3,,,,,,,,,2,,,73,0
20158,note_on,,10,0,7,,,,,,,,,6,,,45,0
20158,note_on,,10,0,2,,,,,,,,,1,,,57,0
20160,note_on,,2,0,7,,,,,,,,,6,,,47,63
20160,note_on,,2,0,2,,,,,,,,,1,,,59,79
20160,note_on,,2,0,3,,,,,,,,,2,,,74,95
20170,note_on,,10,0,3,,,,,,,,,2,,,74,0
20172,note_on,,2,0,3,,,,,,,,,2,,,69,95
20180,note_on,,20,0,2,,,,,,,,,1,,,59,0
20181,note_on,,21,0,7,,,,,,,,,6,,,47,0
20182,note_on,,10,0,3,,,,,,,,,2,,,69,0
20184,note_on,,4,0,2,,,,,,,,,1,,,57,79
20184,note_on,,3,0,7,,,,,,,,,6,,,45,63
20184,note_on,,2,0,3,,,,,,,,,2,,,71,95
20192,note_on,,80,0,4,,,,,,,,,3,,,81,0
20194,note_on,,10,0,3,,,,,,,,,2,,,71,0
20196,note_on,,2,0,3,,,,,,,,,2,,,76,95
20204,note_on,,20,0,2,,,,,,,,,1,,,57,0
20205,note_on,,21,0,7,,,,,,,,,6,,,45,0
20206,note_on,,10,0,3,,,,,,,,,2,,,76,0
20208,note_on,,4,0,2,,,,,,,,,1,,,59,79
20208,note_on,,16,0,4,,,,,,,,,3,,,79,95
20208,note_on,,3,0,7,,,,,,,,,6,,,47,63
20208,note_on,,2,0,3,,,,,,,,,2,,,74,95
20218,note_on,,10,0,3,,,,,,,,,2,,,74,0
20220,note_on,,2,0,3,,,,,,,,,2,,,78,95
20228,note_on,,20,0,2,,,,,,,,,1,,,59,0
20229,note_on,,21,0,7,,,,,,,,,6,,,47,0
20230,note_on,,10,0,3,,,,,,,,,2,,,78,0
20232,note_on,,4,0,2,,,,,,,,,1,,,55,79
20232,note_on,,2,0,3,,,,,,,,,2,,,76,95
20232,note_on,,3,0,7,,,,,,,,,6,,,52,63
20242,note_on,,10,0,3,,,,,,,,,2,,,76,0
20244,note_on,,2,0,3,,,,,,,,,2,,,74,95
20252,note_on,,20,0,2,,,,,,,,,1,,,55,0
20253,note_on,,21,0,7,,,,,,,,,6,,,52,0
20254,note_on,,10,0,3,,,,,,,,,2,,,74,0
20256,note_on,,2,0,3,,,,,,,,,2,,,73,95
20256,note_on,,4,0,2,,,,,,,,,1,,,57,79
20256,note_on,,3,0,7,,,,,,,,,6,,,45,63
20266,note_on,,10,0,3,,,,,,,,,2,,,73,0
20268,note_on,,2,0,3,,,,,,,,,2,,,69,95
20276,note_on,,20,0,2,,,,,,,,,1,,,57,0
20277,note_on,,21,0,7,,,,,,,,,6,,,45,0
20278,note_on,,10,0,3,,,,,,,,,2,,,69,0
20280,note_on,,3,0,7,,,,,,,,,6,,,43,63
20280,note_on,,2,0,3,,,,,,,,,2,,,71,95
20280,note_on,,4,0,2,,,,,,,,,1,,,55,79
20288,note_on,,80,0,4,,,,,,,,,3,,,79,0
20290,note_on,,10,0,3,,,,,,,,,2,,,71,0
20292,note_on,,2,0,3,,,,,,,,,2,,,74,95
20300,note_on,,20,0,2,,,,,,,,,1,,,55,0
20301,note_on,,21,0,7,,,,,,,,,6,,,43,0
20302,note_on,,10,0,3,,,,,,,,,2,,,74,0
20304,note_on,,16,0,4,,,,,,,,,3,,,78,95
20304,note_on,,3,0,7,,,,,,,,,6,,,45,63
20304,note_on,,4,0,2,,,,,,,,,1,,,57,79
20304,note_on,,2,0,3,,,,,,,,,2,,,73,95
20314,note_on,,10,0,3,,,,,,,,,2,,,73,0
20316,note_on,,2,0,3,,,,,,,,,2,,,76,95
20324,note_on,,20,0,2,,,,,,,,,1,,,57,0
20325,note_on,,21,0,7,,,,,,,,,6,,,45,0
20326,note_on,,10,0,3,,,,,,,,,2,,,76,0
20328,note_on,,3,0,7,,,,,,,,,6,,,50,63
20328,note_on,,2,0,3,,,,,,,,,2,,,74,95
20328,note_on,,4,0,2,,,,,,,,,1,,,50,79
20338,note_on,,10,0,3,,,,,,,,,2,,,74,0
20340,note_on,,2,0,3,,,,,,,,,2,,,73,95
20348,note_on,,20,0,2,,,,,,,,,1,,,50,0
20349,note_on,,21,0,7,,,,,,,,,6,,,50,0
20350,note_on,,10,0,3,,,,,,,,,2,,,73,0
20352,note_on,,2,0,3,,,,,,,,,2,,,71,95
20352,note_on,,4,0,2,,,,,,,,,1,,,55,79
20352,note_on,,3,0,7,,,,,,,,,6,,,43,63
20362,note_on,,10,0,3,,,,,,,,,2,,,71,0
20364,note_on,,2,0,3,,,,,,,,,2,,,67,95
20372,note_on,,20,0,2,,,,,,,,,1,,,55,0
20373,note_on,,21,0,7,,,,,,,,,6,,,43,0
20374,note_on,,10,0,3,,,,,,,,,2,,,67,0
20376,note_on,,2,0,3,,,,,,,,,2,,,69,95
20376,note_on,,3,0,7,,,,,,,,,6,,,42,63
20376,note_on,,4,0,2,,,,,,,,,1,,,54,79
20384,note_on,,80,0,4,,,,,,,,,3,,,78,0
20386,note_on,,10,0,3,,,,,,,,,2,,,69,0
20388,note_on,,2,0,3,,,,,,,,,2,,,72,95
20396,note_on,,20,0,2,,,,,,,,,1,,,54,0
20397,note_on,,21,0,7,,,,,,,,,6,,,42,0
20398,note_on,,10,0,3,,,,,,,,,2,,,72,0
20400,note_on,,4,0,2,,,,,,,,,1,,,55,79
20400,note_on,,16,0,4,,,,,,,,,3,,,76,95
20400,note_on,,3,0,7,,,,,,,,,6,,,43,63
20400,note_on,,2,0,3,,,,,,,,,2,,,71,95
20410,note_on,,10,0,3,,,,,,,,,2,,,71,0
20412,note_on,,2,0,3,,,,,,,,,2,,,74,95
20420,note_on,,20,0,2,,,,,,,,,1,,,55,0
20421,note_on,,21,0,7,,,,,,,,,6,,,43,0
20422,note_on,,10,0,3,,,,,,,,,2,,,74,0
20424,note_on,,4,0,2,,,,,,,,,1,,,49,79
20424,note_on,,3,0,7,,,,,,,,,6,,,55,63
20424,note_on,,2,0,3,,,,,,,,,2,,,73,95
20434,note_on,,10,0,3,,,,,,,,,2,,,73,0
20436,note_on,,2,0,3,,,,,,,,,2,,,71,95
20444,note_on,,20,0,2,,,,,,,,,1,,,49,0
20445,note_on,,21,0,7,,,,,,,,,6,,,55,0
20446,note_on,,10,0,3,,,,,,,,,2,,,71,0
20448,note_on,,2,0,3,,,,,,,,,2,,,69,95
20448,note_on,,3,0,7,,,,,,,,,6,,,54,63
20448,note_on,,4,0,2,,,,,,,,,1,,,54,79
20458,note_on,,10,0,3,,,,,,,,,2,,,69,0
20460,note_on,,2,0,3,,,,,,,,,2,,,66,95
20468,note_on,,20,0,2,,,,,,,,,1,,,54,0
20469,note_on,,21,0,7,,,,,,,,,6,,,54,0
20470,note_on,,10,0,3,,,,,,,,,2,,,66,0
20472,note_on,,3,0,7,,,,,,,,,6,,,52,63
20472,note_on,,2,0,3,,,,,,,,,2,,,67,95
20472,note_on,,4,0,2,,,,,,,,,1,,,52,79
20480,note_on,,80,0,4,,,,,,,,,3,,,76,0
20482,note_on,,10,0,3,,,,,,,,,2,,,67,0
20484,note_on,,2,0,3,,,,,,,,,2,,,71,95
20492,note_on,,20,0,2,,,,,,,,,1,,,52,0
20493,note_on,,21,0,7,,,,,,,,,6,,,52,0
20494,note_on,,10,0,3,,,,,,,,,2,,,71,0
20496,note_on,,3,0,7,,,,,,,,,6,,,54,63
20496,note_on,,16,0,4,,,,,,,,,3,,,74,95
20496,note_on,,4,0,2,,,,,,,,,1,,,54,79
20496,note_on,,2,0,3,,,,,,,,,2,,,69,95
20506,note_on,,10,0,3,,,,,,,,,2,,,69,0
20508,note_on,,2,0,3,,,,,,,,,2,,,73,95
20516,note_on,,20,0,2,,,,,,,,,1,,,54,0
20517,note_on,,21,0,7,,,,,,,,,6,,,54,0
20518,note_on,,10,0,3,,,,,,,,,2,,,73,0
20520,note_on,,4,0,2,,,,,,,,,1,,,47,79
20520,note_on,,3,0,7,,,,,,,,,6,,,59,63
20520,note_on,,2,0,3,,,,,,,,,2,,,71,95
20530,note_on,,10,0,3,,,,,,,,,2,,,71,0
20532,note_on,,2,0,3,,,,,,,,,2,,,69,95
20540,note_on,,20,0,2,,,,,,,,,1,,,47,0
20541,note_on,,21,0,7,,,,,,,,,6,,,59,0
20542,note_on,,10,0,3,,,,,,,,,2,,,69,0
20544,note_on,,4,0,2,,,,,,,,,1,,,52,79
20544,note_on,,2,0,3,,,,,,,,,2,,,67,95
20544,note_on,,3,0,7,,,,,,,,,6,,,52,63
20554,note_on,,10,0,3,,,,,,,,,2,,,67,0
20556,note_on,,2,0,3,,,,,,,,,2,,,64,95
20564,note_on,,20,0,2,,,,,,,,,1,,,52,0
20565,note_on,,21,0,7,,,,,,,,,6,,,52,0
20566,note_on,,10,0,3,,,,,,,,,2,,,64,0
20568,note_on,,3,0,7,,,,,,,,,6,,,50,63
20568,note_on,,4,0,2,,,,,,,,,1,,,50,79
20568,note_on,,2,0,3,,,,,,,,,2,,,66,95
20576,note_on,,80,0,4,,,,,,,,,3,,,74,0
20578,note_on,,10,0,3,,,,,,,,,2,,,66,0
20580,note_on,,2,0,3,,,,,,,,,2,,,69,95
20588,note_on,,20,0,2,,,,,,,,,1,,,50,0
20589,note_on,,21,0,7,,,,,,,,,6,,,50,0
20590,note_on,,10,0,3,,,,,,,,,2,,,69,0
20592,note_on,,3,0,7,,,,,,,,,6,,,52,63
20592,note_on,,2,0,3,,,,,,,,,2,,,67,95
20592,note_on,,4,0,2,,,,,,,,,1,,,52,79
20592,note_on,,16,0,4,,,,,,,,,3,,,73,95
20597,note_on,,5,0,4,,,,,,,,,3,,,73,0
20598,note_on,,1,0,4,,,,,,,,,3,,,74,95
20602,note_on,,10,0,3,,,,,,,,,2,,,67,0
20603,note_on,,5,0,4,,,,,,,,,3,,,74,0
20604,note_on,,2,0,3,,,,,,,,,2,,,71,95
20604,note_on,,1,0,4,,,,,,,,,3,,,73,95
20609,note_on,,5,0,4,,,,,,,,,3,,,73,0
20610,note_on,,1,0,4,,,,,,,,,3,,,74,95
20612,note_on,,20,0,2,,,,,,,,,1,,,52,0
20613,note_on,,21,0,7,,,,,,,,,6,,,52,0
20614,note_on,,10,0,3,,,,,,,,,2,,,71,0
20615,note_on,,5,0,4,,,,,,,,,3,,,74,0
20616,note_on,,3,0,7,,,,,,,,,6,,,57,63
20616,note_on,,508,0,5,,,,,,,,,4,,,73,63
20616,note_on,,507,0,6,,,,,,,,,5,,,64,56
20616,note_on,,488,0,8,,,,,,,,,7,,,33,56
20616,note_on,,2,0,3,,,,,,,,,2,,,69,95
20616,note_on,,1,0,4,,,,,,,,,3,,,73,95
20616,note_on,,4,0,2,,,,,,,,,1,,,45,79
20621,note_on,,5,0,4,,,,,,,,,3,,,73,0
20622,note_on,,1,0,4,,,,,,,,,3,,,74,95
20626,note_on,,10,0,3,,,,,,,,,2,,,69,0
20627,note_on,,5,0,4,,,,,,,,,3,,,74,0
20628,note_on,,1,0,4,,,,,,,,,3,,,71,95
20628,note_on,,2,0,3,,,,,,,,,2,,,67,95
20633,note_on,,5,0,4,,,,,,,,,3,,,71,0
20634,note_on,,1,0,4,,,,,,,,,3,,,73,95
20636,note_on,,20,0,5,,,,,,,,,4,,,73,0
20636,note_on,,20,0,2,,,,,,,,,1,,,45,0
20636,note_on,,20,0,8,,,,,,,,,7,,,33,0
20637,note_on,,21,0,7,,,,,,,,,6,,,57,0
20637,note_on,,21,0,6,,,,,,,,,5,,,64,0
20638,note_on,,10,0,3,,,,,,,,,2,,,67,0
20639,note_on,,5,0,4,,,,,,,,,3,,,73,0
20640,note_on,,4,0,2,,,,,,,,,1,,,50,79
20640,note_on,,4,0,8,,,,,,,,,7,,,38,56
20640,note_on,,4,0,5,,,,,,,,,4,,,74,63
20640,note_on,,3,0,7,,,,,,,,,6,,,50,63
20640,note_on,,3,0,6,,,,,,,,,5,,,66,56
20640,note_on,,2,0,3,,,,,,,,,2,,,66,95
20640,note_on,,1,0,4,,,,,,,,,3,,,74,95
20650,note_on,,10,0,4,,,,,,,,,3,,,74,0
20650,note_on,,10,0,3,,,,,,,,,2,,,66,0
20652,note_on,,2,0,4,,,,,,,,,3,,,71,95
20652,note_on,,2,0,3,,,,,,,,,2,,,62,95
20660,note_on,,20,0,2,,,,,,,,,1,,,50,0
20660,note_on,,20,0,5,,,,,,,,,4,,,74,0
20661,note_on,,21,0,7,,,,,,,,,6,,,50,0
20662,note_on,,10,0,3,,,,,,,,,2,,,62,0
20662,note_on,,10,0,4,,,,,,,,,3,,,71,0
20664,note_on,,3,0,7,,,,,,,,,6,,,62,63
20664,note_on,,2,0,3,,,,,,,,,2,,,64,95
20664,note_on,,4,0,2,,,,,,,,,1,,,62,79
20664,note_on,,4,0,5,,,,,,,,,4,,,69,63
20664,note_on,,2,0,4,,,,,,,,,3,,,73,95
20674,note_on,,10,0,3,,,,,,,,,2,,,64,0
20674,note_on,,10,0,4,,,,,,,,,3,,,73,0
20676,note_on,,2,0,3,,,,,,,,,2,,,67,95
20676,note_on,,2,0,4,,,,,,,,,3,,,76,95
20680,note_on,,40,0,8,,,,,,,,,7,,,38,0
20682,note_on,,42,0,6,,,,,,,,,5,,,66,0
20684,note_on,,20,0,2,,,,,,,,,1,,,62,0
20684,note_on,,20,0,5,,,,,,,,,4,,,69,0
20685,note_on,,21,0,7,,,,,,,,,6,,,62,0
20686,note_on,,10,0,3,,,,,,,,,2,,,67,0
20686,note_on,,10,0,4,,,,,,,,,3,,,76,0
20688,note_on,,2,0,3,,,,,,,,,2,,,66,95
20688,note_on,,2,0,4,,,,,,,,,3,,,74,95
20688,note_on,,4,0,5,,,,,,,,,4,,,74,63
20698,note_on,,10,0,4,,,,,,,,,3,,,74,0
20698,note_on,,10,0,3,,,,,,,,,2,,,66,0
20700,note_on,,2,0,3,,,,,,,,,2,,,69,95
20700,note_on,,2,0,4,,,,,,,,,3,,,78,95
20708,note_on,,20,0,5,,,,,,,,,4,,,74,0
20710,note_on,,10,0,3,,,,,,,,,2,,,69,0
20710,note_on,,10,0,4,,,,,,,,,3,,,78,0
20712,note_on,,2,0,4,,,,,,,,,3,,,76,95
20712,note_on,,30,0,6,,,,,,,,,5,,,66,56
20712,note_on,,2,0,3,,,,,,,,,2,,,67,95
20712,note_on,,28,0,2,,,,,,,,,1,,,62,79
20712,note_on,,4,0,5,,,,,,,,,4,,,69,63
20712,note_on,,27,0,7,,,,,,,,,6,,,62,63
20722,note_on,,10,0,3,,,,,,,,,2,,,67,0
20722,note_on,,10,0,4,,,,,,,,,3,,,76,0
20724,note_on,,2,0,4,,,,,,,,,3,,,74,95
20724,note_on,,2,0,3,,,,,,,,,2,,,66,95
20732,note_on,,20,0,2,,,,,,,,,1,,,62,0
20732,note_on,,20,0,5,,,,,,,,,4,,,69,0
20733,note_on,,21,0,7,,,,,,,,,6,,,62,0
20733,note_on,,21,0,6,,,,,,,,,5,,,66,0
20734,note_on,,10,0,4,,,,,,,,,3,,,74,0
20734,note_on,,10,0,3,,,,,,,,,2,,,66,0
20736,note_on,,4,0,2,,,,,,,,,1,,,61,79
20736,note_on,,2,0,3,,,,,,,,,2,,,67,95
20736,note_on,,3,0,7,,,,,,,,,6,,,61,63
20736,note_on,,3,0,6,,,,,,,,,5,,,64,56
20736,note_on,,2,0,4,,,,,,,,,3,,,76,95
20746,note_on,,10,0,3,,,,,,,,,2,,,67,0
20746,note_on,,10,0,4,,,,,,,,,3,,,76,0
20748,note_on,,2,0,4,,,,,,,,,3,,,73,95
20748,note_on,,2,0,3,,,,,,,,,2,,,64,95
20756,note_on,,20,0,2,,,,,,,,,1,,,61,0
20757,note_on,,21,0,7,,,,,,,,,6,,,61,0
20757,note_on,,21,0,6,,,,,,,,,5,,,64,0
20758,note_on,,10,0,3,,,,,,,,,2,,,64,0
20758,note_on,,10,0,4,,,,,,,,,3,,,73,0
20760,note_on,,2,0,3,,,,,,,,,2,,,66,95
20760,note_on,,3,0,7,,,,,,,,,6,,,57,63
20760,note_on,,2,0,4,,,,,,,,,3,,,74,95
20760,note_on,,3,0,6,,,,,,,,,5,,,69,56
20760,note_on,,28,0,5,,,,,,,,,4,,,69,63
20760,note_on,,4,0,2,,,,,,,,,1,,,57,79
20770,note_on,,10,0,3,,,,,,,,,2,,,66,0
20770,note_on,,10,0,4,,,,,,,,,3,,,74,0
20772,note_on,,2,0,4,,,,,,,,,3,,,78,95
20772,note_on,,2,0,3,,,,,,,,,2,,,69,95
20780,note_on,,20,0,5,,,,,,,,,4,,,69,0
20780,note_on,,20,0,2,,,,,,,,,1,,,57,0
20781,note_on,,21,0,7,,,,,,,,,6,,,57,0
20781,note_on,,21,0,6,,,,,,,,,5,,,69,0
20782,note_on,,10,0,4,,,,,,,,,3,,,78,0
20782,note_on,,10,0,3,,,,,,,,,2,,,69,0
20784,note_on,,2,0,4,,,,,,,,,3,,,76,95
20784,note_on,,4,0,5,,,,,,,,,4,,,76,63
20784,note_on,,2,0,3,,,,,,,,,2,,,67,95
20794,note_on,,10,0,4,,,,,,,,,3,,,76,0
20794,note_on,,10,0,3,,,,,,,,,2,,,67,0
20796,note_on,,2,0,3,,,,,,,,,2,,,71,95
20796,note_on,,2,0,4,,,,,,,,,3,,,79,95
20804,note_on,,20,0,5,,,,,,,,,4,,,76,0
20806,note_on,,10,0,4,,,,,,,,,3,,,79,0
20806,note_on,,10,0,3,,,,,,,,,2,,,71,0
20808,note_on,,2,0,4,,,,,,,,,3,,,78,95
20808,note_on,,2,0,3,,,,,,,,,2,,,69,95
20808,note_on,,4,0,5,,,,,,,,,4,,,69,63
20808,note_on,,27,0,6,,,,,,,,,5,,,61,56
20808,note_on,,28,0,2,,,,,,,,,1,,,57,79
20808,note_on,,27,0,7,,,,,,,,,6,,,57,63
20818,note_on,,10,0,4,,,,,,,,,3,,,78,0
20818,note_on,,10,0,3,,,,,,,,,2,,,69,0
20820,note_on,,2,0,4,,,,,,,,,3,,,76,95
20820,note_on,,2,0,3,,,,,,,,,2,,,67,95
20828,note_on,,20,0,2,,,,,,,,,1,,,57,0
20828,note_on,,20,0,5,,,,,,,,,4,,,69,0
20829,note_on,,21,0,6,,,,,,,,,5,,,61,0
20829,note_on,,21,0,7,,,,,,,,,6,,,57,0
20830,note_on,,10,0,4,,,,,,,,,3,,,76,0
20830,note_on,,10,0,3,,,,,,,,,2,,,67,0
20832,note_on,,152,0,8,,,,,,,,,7,,,50,63
20832,note_on,,2,0,4,,,,,,,,,3,,,74,95
20832,note_on,,3,0,6,,,,,,,,,5,,,69,56
20832,note_on,,2,0,3,,,,,,,,,2,,,66,95
20832,note_on,,3,0,7,,,,,,,,,6,,,62,63
20832,note_on,,4,0,2,,,,,,,,,1,,,62,79
20842,note_on,,10,0,4,,,,,,,,,3,,,74,0
20842,note_on,,10,0,8,,,,,,,,,7,,,50,0
20842,note_on,,10,0,7,,,,,,,,,6,,,62,0
20842,note_on,,10,0,3,,,,,,,,,2,,,66,0
20842,note_on,,10,0,2,,,,,,,,,1,,,62,0
20844,note_on,,2,0,2,,,,,,,,,1,,,62,79
20844,note_on,,2,0,3,,,,,,,,,2,,,62,95
20844,note_on,,2,0,7,,,,,,,,,6,,,62,63
20844,note_on,,2,0,4,,,,,,,,,3,,,71,95
20844,note_on,,2,0,8,,,,,,,,,7,,,50,63
20853,note_on,,21,0,6,,,,,,,,,5,,,69,0
20854,note_on,,10,0,8,,,,,,,,,7,,,50,0
20854,note_on,,10,0,4,,,,,,,,,3,,,71,0
20854,note_on,,10,0,2,,,,,,,,,1,,,62,0
20854,note_on,,10,0,3,,,,,,,,,2,,,62,0
20854,note_on,,10,0,7,,,,,,,,,6,,,62,0
20856,note_on,,2,0,3,,,,,,,,,2,,,64,95
20856,note_on,,2,0,7,,,,,,,,,6,,,57,63
20856,note_on,,3,0,6,,,,,,,,,5,,,61,56
20856,note_on,,2,0,4,,,,,,,,,3,,,73,95
20856,note_on,,2,0,8,,,,,,,,,7,,,45,63
20856,note_on,,2,0,2,,,,,,,,,1,,,57,79
20856,note_on,,28,0,5,,,,,,,,,4,,,69,63
20866,note_on,,10,0,2,,,,,,,,,1,,,57,0
20866,note_on,,10,0,8,,,,,,,,,7,,,45,0
20866,note_on,,10,0,3,,,,,,,,,2,,,64,0
20866,note_on,,10,0,7,,,,,,,,,6,,,57,0
20866,note_on,,10,0,4,,,,,,,,,3,,,73,0
20868,note_on,,2,0,8,,,,,,,,,7,,,45,63
20868,note_on,,2,0,7,,,,,,,,,6,,,57,63
20868,note_on,,2,0,3,,,,,,,,,2,,,67,95
20868,note_on,,2,0,4,,,,,,,,,3,,,76,95
20868,note_on,,2,0,2,,,,,,,,,1,,,57,79
20876,note_on,,20,0,5,,,,,,,,,4,,,69,0
20877,note_on,,21,0,6,,,,,,,,,5,,,61,0
20878,note_on,,10,0,7,,,,,,,,,6,,,57,0
20878,note_on,,10,0,2,,,,,,,,,1,,,57,0
20878,note_on,,10,0,4,,,,,,,,,3,,,76,0
20878,note_on,,10,0,8,,,,,,,,,7,,,45,0
20878,note_on,,10,0,3,,,,,,,,,2,,,67,0
20880,note_on,,2,0,7,,,,,,,,,6,,,54,63
20880,note_on,,3,0,6,,,,,,,,,5,,,69,56
20880,note_on,,2,0,3,,,,,,,,,2,,,66,95
20880,note_on,,2,0,4,,,,,,,,,3,,,74,95
20880,note_on,,4,0,5,,,,,,,,,4,,,78,63
20880,note_on,,2,0,2,,,,,,,,,1,,,54,79
20880,note_on,,2,0,8,,,,,,,,,7,,,42,63
20890,note_on,,10,0,2,,,,,,,,,1,,,54,0
20890,note_on,,10,0,7,,,,,,,,,6,,,54,0
20890,note_on,,10,0,4,,,,,,,,,3,,,74,0
20890,note_on,,10,0,3,,,,,,,,,2,,,66,0
20890,note_on,,10,0,8,,,,,,,,,7,,,42,0
20892,note_on,,2,0,8,,,,,,,,,7,,,42,63
20892,note_on,,2,0,2,,,,,,,,,1,,,54,79
20892,note_on,,2,0,7,,,,,,,,,6,,,54,63
20892,note_on,,2,0,3,,,,,,,,,2,,,69,95
20892,note_on,,2,0,4,,,,,,,,,3,,,78,95
20900,note_on,,20,0,5,,,,,,,,,4,,,78,0
20901,note_on,,21,0,6,,,,,,,,,5,,,69,0
20902,note_on,,10,0,4,,,,,,,,,3,,,78,0
20902,note_on,,10,0,3,,,,,,,,,2,,,69,0
20902,note_on,,10,0,2,,,,,,,,,1,,,54,0
20902,note_on,,10,0,8,,,,,,,,,7,,,42,0
20902,note_on,,10,0,7,,,,,,,,,6,,,54,0
20904,note_on,,2,0,7,,,,,,,,,6,,,50,63
20904,note_on,,4,0,5,,,,,,,,,4,,,69,63
20904,note_on,,2,0,2,,,,,,,,,1,,,50,79
20904,note_on,,2,0,8,,,,,,,,,7,,,38,63
20904,note_on,,2,0,3,,,,,,,,,2,,,67,95
20904,note_on,,3,0,6,,,,,,,,,5,,,57,56
20904,note_on,,2,0,4,,,,,,,,,3,,,76,95
20914,note_on,,10,0,7,,,,,,,,,6,,,50,0
20914,note_on,,10,0,4,,,,,,,,,3,,,76,0
20914,note_on,,10,0,2,,,,,,,,,1,,,50,0
20914,note_on,,10,0,8,,,,,,,,,7,,,38,0
20914,note_on,,10,0,3,,,,,,,,,2,,,67,0
20916,note_on,,2,0,3,,,,,,,,,2,,,66,95
20916,note_on,,2,0,2,,,,,,,,,1,,,50,79
20916,note_on,,2,0,7,,,,,,,,,6,,,50,63
20916,note_on,,2,0,8,,,,,,,,,7,,,38,63
20916,note_on,,2,0,4,,,,,,,,,3,,,74,95
20924,note_on,,20,0,5,,,,,,,,,4,,,69,0
20925,note_on,,21,0,6,,,,,,,,,5,,,57,0
20926,note_on,,10,0,7,,,,,,,,,6,,,50,0
20926,note_on,,10,0,2,,,,,,,,,1,,,50,0
20926,note_on,,10,0,3,,,,,,,,,2,,,66,0
20926,note_on,,10,0,8,,,,,,,,,7,,,38,0
20926,note_on,,10,0,4,,,,,,,,,3,,,74,0
20928,note_on,,2,0,3,,,,,,,,,2,,,64,95
20928,note_on,,4,0,5,,,,,,,,,4,,,69,63
20928,note_on,,3,0,6,,,,,,,,,5,,,61,56
20928,note_on,,2,0,4,,,,,,,,,3,,,73,95
20928,note_on,,2,0,8,,,,,,,,,7,,,45,63
20928,note_on,,2,0,2,,,,,,,,,1,,,57,79
20928,note_on,,2,0,7,,,,,,,,,6,,,57,63
20938,note_on,,10,0,2,,,,,,,,,1,,,57,0
20938,note_on,,10,0,8,,,,,,,,,7,,,45,0
20938,note_on,,10,0,7,,,,,,,,,6,,,57,0
20938,note_on,,10,0,5,,,,,,,,,4,,,69,0
20938,note_on,,10,0,6,,,,,,,,,5,,,61,0
20940,note_on,,2,0,6,,,,,,,,,5,,,61,56
20940,note_on,,2,0,8,,,,,,,,,7,,,45,63
20940,note_on,,2,0,7,,,,,,,,,6,,,57,63
20940,note_on,,2,0,5,,,,,,,,,4,,,69,63
20940,note_on,,2,0,2,,,,,,,,,1,,,57,79
20948,note_on,,20,0,3,,,,,,,,,2,,,64,0
20948,note_on,,20,0,4,,,,,,,,,3,,,73,0
20950,note_on,,10,0,7,,,,,,,,,6,,,57,0
20950,note_on,,10,0,8,,,,,,,,,7,,,45,0
20950,note_on,,10,0,5,,,,,,,,,4,,,69,0
20950,note_on,,10,0,6,,,,,,,,,5,,,61,0
20950,note_on,,10,0,2,,,,,,,,,1,,,57,0
20952,note_on,,2,0,6,,,,,,,,,5,,,64,56
20952,note_on,,2,0,5,,,,,,,,,4,,,73,63
20952,note_on,,2,0,8,,,,,,,,,7,,,40,63
20952,note_on,,2,0,7,,,,,,,,,6,,,52,63
20952,note_on,,2,0,2,,,,,,,,,1,,,52,79
20952,note_on,,4,0,4,,,,,,,,,3,,,69,95
20962,note_on,,10,0,6,,,,,,,,,5,,,64,0
20962,note_on,,10,0,2,,,,,,,,,1,,,52,0
20962,note_on,,10,0,5,,,,,,,,,4,,,73,0
20962,note_on,,10,0,7,,,,,,,,,6,,,52,0
20962,note_on,,10,0,8,,,,,,,,,7,,,40,0
20964,note_on,,2,0,7,,,,,,,,,6,,,52,63
20964,note_on,,2,0,6,,,,,,,,,5,,,64,56
20964,note_on,,2,0,2,,,,,,,,,1,,,52,79
20964,note_on,,2,0,5,,,,,,,,,4,,,73,63
20964,note_on,,2,0,8,,,,,,,,,7,,,40,63
20972,note_on,,20,0,4,,,,,,,,,3,,,69,0
20974,note_on,,10,0,7,,,,,,,,,6,,,52,0
20974,note_on,,10,0,8,,,,,,,,,7,,,40,0
20974,note_on,,10,0,5,,,,,,,,,4,,,73,0
20974,note_on,,10,0,6,,,,,,,,,5,,,64,0
20974,note_on,,10,0,2,,,,,,,,,1,,,52,0
20976,note_on,,2,0,7,,,,,,,,,6,,,49,63
20976,note_on,,2,0,6,,,,,,,,,5,,,69,56
20976,note_on,,2,0,8,,,,,,,,,7,,,37,63
20976,note_on,,2,0,2,,,,,,,,,1,,,49,79
20976,note_on,,2,0,5,,,,,,,,,4,,,76,63
20986,note_on,,10,0,5,,,,,,,,,4,,,76,0
20986,note_on,,10,0,8,,,,,,,,,7,,,37,0
20986,note_on,,10,0,6,,,,,,,,,5,,,69,0
20986,note_on,,10,0,2,,,,,,,,,1,,,49,0
20986,note_on,,10,0,7,,,,,,,,,6,,,49,0
20988,note_on,,2,0,2,,,,,,,,,1,,,49,79
20988,note_on,,2,0,5,,,,,,,,,4,,,76,63
20988,note_on,,2,0,8,,,,,,,,,7,,,37,63
20988,note_on,,2,0,6,,,,,,,,,5,,,69,56
20988,note_on,,2,0,7,,,,,,,,,6,,,49,63
20998,note_on,,10,0,7,,,,,,,,,6,,,49,0
20998,note_on,,10,0,2,,,,,,,,,1,,,49,0
20998,note_on,,10,0,8,,,,,,,,,7,,,37,0
20998,note_on,,10,0,5,,,,,,,,,4,,,76,0
20998,note_on,,10,0,6,,,,,,,,,5,,,69,0
21000,note_on,,2,0,8,,,,,,,,,7,,,33,63
21000,note_on,,2,0,7,,,,,,,,,6,,,45,63
21000,note_on,,2,0,6,,,,,,,,,5,,,73,56
21000,note_on,,2,0,5,,,,,,,,,4,,,81,63
21000,note_on,,2,0,2,,,,,,,,,1,,,45,79
21010,note_on,,10,0,8,,,,,,,,,7,,,33,0
21010,note_on,,10,0,6,,,,,,,,,5,,,73,0
21010,note_on,,10,0,7,,,,,,,,,6,,,45,0
21010,note_on,,10,0,2,,,,,,,,,1,,,45,0
21010,note_on,,10,0,5,,,,,,,,,4,,,81,0
21012,note_on,,2,0,2,,,,,,,,,1,,,45,79
21012,note_on,,2,0,8,,,,,,,,,7,,,33,63
21012,note_on,,2,0,7,,,,,,,,,6,,,45,63
21012,note_on,,2,0,6,,,,,,,,,5,,,73,56
21012,note_on,,2,0,5,,,,,,,,,4,,,81,63
21022,note_on,,10,0,8,,,,,,,,,7,,,33,0
21022,note_on,,10,0,7,,,,,,,,,6,,,45,0
21022,note_on,,10,0,2,,,,,,,,,1,,,45,0
21022,note_on,,10,0,5,,,,,,,,,4,,,81,0
21022,note_on,,10,0,6,,,,,,,,,5,,,73,0
21024,note_on,,2,0,5,,,,,,,,,4,,,78,63
21024,note_on,,2,0,2,,,,,,,,,1,,,50,79
21024,note_on,,2,0,7,,,,,,,,,6,,,50,63
21024,note_on,,2,0,8,,,,,,,,,7,,,38,63
21024,note_on,,2,0,6,,,,,,,,,5,,,69,56
21036,note_on,,1796,0,1,,,,,,,,,0,,,81,79
21041,note_on,,5,0,1,,,,,,,,,0,,,81,0
21042,note_on,,1,0,1,,,,,,,,,0,,,79,79
21044,note_on,,20,0,5,,,,,,,,,4,,,78,0
21045,note_on,,21,0,6,,,,,,,,,5,,,69,0
21047,note_on,,5,0,1,,,,,,,,,0,,,79,0
21048,note_on,,76,0,4,,,,,,,,,3,,,74,95
21048,note_on,,1,0,1,,,,,,,,,0,,,78,79
21048,note_on,,4,0,5,,,,,,,,,4,,,74,63
21058,note_on,,10,0,1,,,,,,,,,0,,,78,0
21060,note_on,,2,0,1,,,,,,,,,0,,,81,79
21064,note_on,,40,0,2,,,,,,,,,1,,,50,0
21064,note_on,,40,0,8,,,,,,,,,7,,,38,0
21064,note_on,,40,0,7,,,,,,,,,6,,,50,0
21068,note_on,,20,0,4,,,,,,,,,3,,,74,0
21068,note_on,,20,0,5,,,,,,,,,4,,,74,0
21070,note_on,,10,0,1,,,,,,,,,0,,,81,0
21072,note_on,,2,0,1,,,,,,,,,0,,,76,79
21072,note_on,,4,0,4,,,,,,,,,3,,,73,95
21082,note_on,,10,0,1,,,,,,,,,0,,,76,0
21084,note_on,,2,0,1,,,,,,,,,0,,,81,79
21092,note_on,,20,0,4,,,,,,,,,3,,,73,0
21094,note_on,,10,0,1,,,,,,,,,0,,,81,0
21096,note_on,,4,0,4,,,,,,,,,3,,,71,95
21096,note_on,,2,0,1,,,,,,,,,0,,,74,79
21106,note_on,,10,0,1,,,,,,,,,0,,,74,0
21108,note_on,,2,0,1,,,,,,,,,0,,,81,79
21116,note_on,,20,0,4,,,,,,,,,3,,,71,0
21118,note_on,,10,0,1,,,,,,,,,0,,,81,0
21120,note_on,,4,0,4,,,,,,,,,3,,,69,95
21120,note_on,,2,0,1,,,,,,,,,0,,,73,79
21130,note_on,,10,0,1,,,,,,,,,0,,,73,0
21132,note_on,,2,0,1,,,,,,,,,0,,,81,79
21142,note_on,,10,0,1,,,,,,,,,0,,,81,0
21144,note_on,,2,0,1,,,,,,,,,0,,,74,79
21144,note_on,,196,0,3,,,,,,,,,2,,,78,95
21154,note_on,,10,0,1,,,,,,,,,0,,,74,0
21156,note_on,,2,0,1,,,,,,,,,0,,,81,79
21164,note_on,,20,0,3,,,,,,,,,2,,,78,0
21166,note_on,,10,0,1,,,,,,,,,0,,,81,0
21168,note_on,,2,0,1,,,,,,,,,0,,,73,79
21168,note_on,,4,0,3,,,,,,,,,2,,,76,95
21178,note_on,,10,0,1,,,,,,,,,0,,,73,0
21180,note_on,,2,0,1,,,,,,,,,0,,,81,79
21188,note_on,,20,0,3,,,,,,,,,2,,,76,0
21190,note_on,,10,0,1,,,,,,,,,0,,,81,0
21192,note_on,,2,0,1,,,,,,,,,0,,,71,79
21192,note_on,,4,0,3,,,,,,,,,2,,,74,95
21200,note_on,,80,0,4,,,,,,,,,3,,,69,0
21202,note_on,,10,0,1,,,,,,,,,0,,,71,0
21204,note_on,,2,0,1,,,,,,,,,0,,,81,79
21212,note_on,,20,0,3,,,,,,,,,2,,,74,0
21214,note_on,,10,0,1,,,,,,,,,0,,,81,0
21216,note_on,,2,0,1,,,,,,,,,0,,,69,79
21216,note_on,,4,0,3,,,,,,,,,2,,,73,95
21228,note_on,,164,0,2,,,,,,,,,1,,,57,79
21236,note_on,,20,0,1,,,,,,,,,0,,,69,0
21238,note_on,,10,0,2,,,,,,,,,1,,,57,0
21240,note_on,,2,0,2,,,,,,,,,1,,,55,79
21240,note_on,,4,0,1,,,,,,,,,0,,,73,79
21240,note_on,,40,0,4,,,,,,,,,3,,,83,95
21247,note_on,,7,0,1,,,,,,,,,0,,,73,0
21248,note_on,,1,0,1,,,,,,,,,0,,,71,79
21250,note_on,,10,0,2,,,,,,,,,1,,,55,0
21252,note_on,,2,0,2,,,,,,,,,1,,,57,79
21255,note_on,,7,0,1,,,,,,,,,0,,,71,0
21256,note_on,,1,0,1,,,,,,,,,0,,,73,79
21256,note_on,,40,0,3,,,,,,,,,2,,,73,0
21260,note_on,,20,0,4,,,,,,,,,3,,,83,0
21262,note_on,,10,0,2,,,,,,,,,1,,,57,0
21263,note_on,,7,0,1,,,,,,,,,0,,,73,0
21264,note_on,,2,0,2,,,,,,,,,1,,,54,79
21264,note_on,,4,0,4,,,,,,,,,3,,,81,95
21264,note_on,,1,0,1,,,,,,,,,0,,,74,79
21271,note_on,,7,0,1,,,,,,,,,0,,,74,0
21272,note_on,,1,0,1,,,,,,,,,0,,,73,79
21274,note_on,,10,0,2,,,,,,,,,1,,,54,0
21276,note_on,,2,0,2,,,,,,,,,1,,,57,79
21279,note_on,,7,0,1,,,,,,,,,0,,,73,0
21280,note_on,,1,0,1,,,,,,,,,0,,,74,79
21284,note_on,,20,0,4,,,,,,,,,3,,,81,0
21286,note_on,,10,0,2,,,,,,,,,1,,,57,0
21287,note_on,,7,0,1,,,,,,,,,0,,,74,0
21288,note_on,,4,0,4,,,,,,,,,3,,,79,95
21288,note_on,,2,0,2,,,,,,,,,1,,,52,79
21288,note_on,,1,0,1,,,,,,,,,0,,,76,79
21288,note_on,,32,0,3,,,,,,,,,2,,,73,95
21295,note_on,,7,0,1,,,,,,,,,0,,,76,0
21296,note_on,,1,0,1,,,,,,,,,0,,,74,79
21298,note_on,,10,0,2,,,,,,,,,1,,,52,0
21300,note_on,,2,0,2,,,,,,,,,1,,,57,79
21303,note_on,,7,0,1,,,,,,,,,0,,,74,0
21304,note_on,,1,0,1,,,,,,,,,0,,,76,79
21308,note_on,,20,0,3,,,,,,,,,2,,,73,0
21308,note_on,,20,0,4,,,,,,,,,3,,,79,0
21310,note_on,,10,0,2,,,,,,,,,1,,,57,0
21311,note_on,,7,0,1,,,,,,,,,0,,,76,0
21312,note_on,,2,0,2,,,,,,,,,1,,,50,79
21312,note_on,,267,0,6,,,,,,,,,5,,,69,56
21312,note_on,,248,0,7,,,,,,,,,6,,,50,63
21312,note_on,,4,0,4,,,,,,,,,3,,,78,95
21312,note_on,,248,0,8,,,,,,,,,7,,,38,63
21312,note_on,,1,0,1,,,,,,,,,0,,,78,79
21312,note_on,,4,0,3,,,,,,,,,2,,,74,95
21312,note_on,,244,0,5,,,,,,,,,4,,,62,56
21322,note_on,,10,0,4,,,,,,,,,3,,,78,0
21322,note_on,,10,0,5,,,,,,,,,4,,,62,0
21322,note_on,,10,0,6,,,,,,,,,5,,,69,0
21322,note_on,,10,0,1,,,,,,,,,0,,,78,0
21324,note_on,,2,0,4,,,,,,,,,3,,,79,95
21324,note_on,,2,0,1,,,,,,,,,0,,,76,79
21324,note_on,,2,0,5,,,,,,,,,4,,,62,56
21324,note_on,,2,0,6,,,,,,,,,5,,,67,56
21332,note_on,,20,0,2,,,,,,,,,1,,,50,0
21332,note_on,,20,0,3,,,,,,,,,2,,,74,0
21334,note_on,,10,0,1,,,,,,,,,0,,,76,0
21334,note_on,,10,0,4,,,,,,,,,3,,,79,0
21334,note_on,,10,0,6,,,,,,,,,5,,,67,0
21334,note_on,,10,0,5,,,,,,,,,4,,,62,0
21336,note_on,,2,0,5,,,,,,,,,4,,,66,56
21336,note_on,,4,0,3,,,,,,,,,2,,,69,95
21336,note_on,,2,0,1,,,,,,,,,0,,,74,79
21336,note_on,,2,0,4,,,,,,,,,3,,,81,95
21336,note_on,,2,0,6,,,,,,,,,5,,,66,56
21336,note_on,,4,0,2,,,,,,,,,1,,,62,79
21346,note_on,,10,0,2,,,,,,,,,1,,,62,0
21346,note_on,,10,0,5,,,,,,,,,4,,,66,0
21346,note_on,,10,0,1,,,,,,,,,0,,,74,0
21346,note_on,,10,0,6,,,,,,,,,5,,,66,0
21348,note_on,,2,0,6,,,,,,,,,5,,,64,56
21348,note_on,,2,0,5,,,,,,,,,4,,,66,56
21348,note_on,,2,0,1,,,,,,,,,0,,,76,79
21348,note_on,,2,0,2,,,,,,,,,1,,,61,79
21352,note_on,,40,0,8,,,,,,,,,7,,,38,0
21352,note_on,,40,0,7,,,,,,,,,6,,,50,0
21356,note_on,,20,0,3,,,,,,,,,2,,,69,0
21358,note_on,,10,0,5,,,,,,,,,4,,,66,0
21358,note_on,,10,0,2,,,,,,,,,1,,,61,0
21358,note_on,,10,0,1,,,,,,,,,0,,,76,0
21358,note_on,,10,0,6,,,,,,,,,5,,,64,0
21360,note_on,,2,0,2,,,,,,,,,1,,,62,79
21360,note_on,,4,0,3,,,,,,,,,2,,,74,95
21360,note_on,,2,0,6,,,,,,,,,5,,,62,56
21360,note_on,,2,0,1,,,,,,,,,0,,,78,79
21360,note_on,,2,0,5,,,,,,,,,4,,,69,56
21370,note_on,,10,0,5,,,,,,,,,4,,,69,0
21370,note_on,,10,0,1,,,,,,,,,0,,,78,0
21370,note_on,,10,0,3,,,,,,,,,2,,,74,0
21372,note_on,,2,0,1,,,,,,,,,0,,,79,79
21372,note_on,,2,0,3,,,,,,,,,2,,,76,95
21372,note_on,,2,0,5,,,,,,,,,4,,,69,56
21376,note_on,,40,0,4,,,,,,,,,3,,,81,0
21380,note_on,,20,0,2,,,,,,,,,1,,,62,0
21381,note_on,,21,0,6,,,,,,,,,5,,,62,0
21382,note_on,,10,0,1,,,,,,,,,0,,,79,0
21382,note_on,,10,0,3,,,,,,,,,2,,,76,0
21382,note_on,,10,0,5,,,,,,,,,4,,,69,0
21384,note_on,,8,0,4,,,,,,,,,3,,,79,95
21384,note_on,,2,0,5,,,,,,,,,4,,,74,56
21384,note_on,,3,0,6,,,,,,,,,5,,,57,56
21384,note_on,,4,0,2,,,,,,,,,1,,,50,79
21384,note_on,,32,0,7,,,,,,,,,6,,,50,63
21384,note_on,,32,0,8,,,,,,,,,7,,,38,63
21384,note_on,,2,0,1,,,,,,,,,0,,,81,79
21384,note_on,,2,0,3,,,,,,,,,2,,,78,95
21394,note_on,,10,0,3,,,,,,,,,2,,,78,0
21394,note_on,,10,0,1,,,,,,,,,0,,,81,0
21394,note_on,,10,0,4,,,,,,,,,3,,,79,0
21394,note_on,,10,0,5,,,,,,,,,4,,,74,0
21396,note_on,,2,0,5,,,,,,,,,4,,,74,56
21396,note_on,,2,0,3,,,,,,,,,2,,,79,95
21396,note_on,,2,0,4,,,,,,,,,3,,,78,95
21396,note_on,,2,0,1,,,,,,,,,0,,,83,79
21404,note_on,,20,0,8,,,,,,,,,7,,,38,0
21404,note_on,,20,0,7,,,,,,,,,6,,,50,0
21404,note_on,,20,0,2,,,,,,,,,1,,,50,0
21405,note_on,,21,0,6,,,,,,,,,5,,,57,0
21406,note_on,,10,0,1,,,,,,,,,0,,,83,0
21406,note_on,,10,0,4,,,,,,,,,3,,,78,0
21406,note_on,,10,0,5,,,,,,,,,4,,,74,0
21406,note_on,,10,0,3,,,,,,,,,2,,,79,0
21408,note_on,,2,0,1,,,,,,,,,0,,,76,79
21408,note_on,,4,0,7,,,,,,,,,6,,,57,63
21408,note_on,,2,0,5,,,,,,,,,4,,,73,56
21408,note_on,,2,0,4,,,,,,,,,3,,,76,95
21408,note_on,,4,0,2,,,,,,,,,1,,,57,79
21408,note_on,,3,0,6,,,,,,,,,5,,,57,56
21408,note_on,,2,0,3,,,,,,,,,2,,,81,95
21408,note_on,,4,0,8,,,,,,,,,7,,,45,63
21418,note_on,,10,0,5,,,,,,,,,4,,,73,0
21418,note_on,,10,0,1,,,,,,,,,0,,,76,0
21420,note_on,,2,0,5,,,,,,,,,4,,,74,56
21420,note_on,,2,0,1,,,,,,,,,0,,,78,79
21428,note_on,,20,0,7,,,,,,,,,6,,,57,0
21428,note_on,,20,0,4,,,,,,,,,3,,,76,0
21428,note_on,,20,0,8,,,,,,,,,7,,,45,0
21428,note_on,,20,0,2,,,,,,,,,1,,,57,0
21428,note_on,,20,0,3,,,,,,,,,2,,,81,0
21429,note_on,,21,0,6,,,,,,,,,5,,,57,0
21430,note_on,,10,0,5,,,,,,,,,4,,,74,0
21430,note_on,,10,0,1,,,,,,,,,0,,,78,0
21432,note_on,,4,0,2,,,,,,,,,1,,,45,79
21432,note_on,,4,0,4,,,,,,,,,3,,,69,95
21432,note_on,,2,0,1,,,,,,,,,0,,,76,79
21432,note_on,,4,0,7,,,,,,,,,6,,,45,63
21432,note_on,,3,0,6,,,,,,,,,5,,,61,56
21432,note_on,,2,0,5,,,,,,,,,4,,,73,56
21432,note_on,,4,0,8,,,,,,,,,7,,,33,63
21432,note_on,,4,0,3,,,,,,,,,2,,,73,95
21442,note_on,,10,0,5,,,,,,,,,4,,,73,0
21442,note_on,,10,0,1,,,,,,,,,0,,,76,0
21444,note_on,,2,0,1,,,,,,,,,0,,,74,79
21444,note_on,,2,0,5,,,,,,,,,4,,,71,56
21452,note_on,,20,0,3,,,,,,,,,2,,,73,0
21452,note_on,,20,0,7,,,,,,,,,6,,,45,0
21452,note_on,,20,0,8,,,,,,,,,7,,,33,0
21452,note_on,,20,0,4,,,,,,,,,3,,,69,0
21452,note_on,,20,0,2,,,,,,,,,1,,,45,0
21453,note_on,,21,0,6,,,,,,,,,5,,,61,0
21454,note_on,,10,0,5,,,,,,,,,4,,,71,0
21454,note_on,,10,0,1,,,,,,,,,0,,,74,0
21456,note_on,,4,0,7,,,,,,,,,6,,,47,63
21456,note_on,,2,0,1,,,,,,,,,0,,,73,79
21456,note_on,,3,0,6,,,,,,,,,5,,,64,56
21456,note_on,,4,0,8,,,,,,,,,7,,,35,63
21456,note_on,,2,0,5,,,,,,,,,4,,,69,56
21456,note_on,,4,0,3,,,,,,,,,2,,,74,95
21456,note_on,,4,0,2,,,,,,,,,1,,,47,79
21466,note_on,,10,0,1,,,,,,,,,0,,,73,0
21466,note_on,,10,0,5,,,,,,,,,4,,,69,0
21468,note_on,,2,0,1,,,,,,,,,0,,,71,79
21468,note_on,,2,0,5,,,,,,,,,4,,,67,56
21476,note_on,,20,0,7,,,,,,,,,6,,,47,0
21476,note_on,,20,0,8,,,,,,,,,7,,,35,0
21476,note_on,,20,0,2,,,,,,,,,1,,,47,0
21476,note_on,,20,0,3,,,,,,,,,2,,,74,0
21477,note_on,,21,0,6,,,,,,,,,5,,,64,0
21478,note_on,,10,0,1,,,,,,,,,0,,,71,0
21478,note_on,,10,0,5,,,,,,,,,4,,,67,0
21480,note_on,,2,0,5,,,,,,,,,4,,,66,56
21480,note_on,,4,0,2,,,,,,,,,1,,,49,79
21480,note_on,,4,0,3,,,,,,,,,2,,,76,95
21480,note_on,,4,0,8,,,,,,,,,7,,,37,63
21480,note_on,,2,0,1,,,,,,,,,0,,,69,79
21480,note_on,,3,0,6,,,,,,,,,5,,,69,56
21480,note_on,,4,0,7,,,,,,,,,6,,,49,63
21490,note_on,,10,0,5,,,,,,,,,4,,,66,0
21490,note_on,,10,0,1,,,,,,,,,0,,,69,0
21492,note_on,,2,0,5,,,,,,,,,4,,,64,56
21492,note_on,,2,0,1,,,,,,,,,0,,,67,79
21500,note_on,,20,0,3,,,,,,,,,2,,,76,0
21500,note_on,,20,0,7,,,,,,,,,6,,,49,0
21500,note_on,,20,0,2,,,,,,,,,1,,,49,0
21500,note_on,,20,0,8,,,,,,,,,7,,,37,0
21501,note_on,,21,0,6,,,,,,,,,5,,,69,0
21502,note_on,,10,0,1,,,,,,,,,0,,,67,0
21502,note_on,,10,0,5,,,,,,,,,4,,,64,0
21504,note_on,,4,0,2,,,,,,,,,1,,,50,79
21504,note_on,,3,0,6,,,,,,,,,5,,,69,56
21504,note_on,,2,0,5,,,,,,,,,4,,,62,63
21504,note_on,,2,0,1,,,,,,,,,0,,,66,79
21504,note_on,,4,0,8,,,,,,,,,7,,,38,63
21504,note_on,,4,0,7,,,,,,,,,6,,,50,63
21504,note_on,,4,0,3,,,,,,,,,2,,,78,95
21514,note_on,,10,0,1,,,,,,,,,0,,,66,0
21516,note_on,,2,0,1,,,,,,,,,0,,,64,79
21524,note_on,,20,0,3,,,,,,,,,2,,,78,0
21524,note_on,,20,0,5,,,,,,,,,4,,,62,0
21525,note_on,,21,0,6,,,,,,,,,5,,,69,0
21526,note_on,,10,0,1,,,,,,,,,0,,,64,0
21528,note_on,,4,0,3,,,,,,,,,2,,,74,95
21528,note_on,,2,0,1,,,,,,,,,0,,,66,79
21538,note_on,,10,0,1,,,,,,,,,0,,,66,0
21540,note_on,,2,0,1,,,,,,,,,0,,,69,79
21544,note_on,,40,0,7,,,,,,,,,6,,,50,0
21544,note_on,,40,0,2,,,,,,,,,1,,,50,0
21544,note_on,,40,0,8,,,,,,,,,7,,,38,0
21548,note_on,,20,0,3,,,,,,,,,2,,,74,0
21550,note_on,,10,0,1,,,,,,,,,0,,,69,0
21552,note_on,,2,0,1,,,,,,,,,0,,,64,79
21552,note_on,,4,0,3,,,,,,,,,2,,,73,95
21562,note_on,,10,0,1,,,,,,,,,0,,,64,0
21564,note_on,,2,0,1,,,,,,,,,0,,,69,79
21572,note_on,,20,0,3,,,,,,,,,2,,,73,0
21574,note_on,,10,0,1,,,,,,,,,0,,,69,0
21576,note_on,,4,0,3,,,,,,,,,2,,,71,95
21576,note_on,,2,0,1,,,,,,,,,0,,,62,79
21586,note_on,,10,0,1,,,,,,,,,0,,,62,0
21588,note_on,,2,0,1,,,,,,,,,0,,,69,79
21596,note_on,,20,0,3,,,,,,,,,2,,,71,0
21598,note_on,,10,0,1,,,,,,,,,0,,,69,0
21600,note_on,,2,0,1,,,,,,,,,0,,,61,79
21600,note_on,,4,0,3,,,,,,,,,2,,,69,95
21610,note_on,,10,0,1,,,,,,,,,0,,,61,0
21612,note_on,,2,0,1,,,,,,,,,0,,,69,79
21622,note_on,,10,0,1,,,,,,,,,0,,,69,0
21624,note_on,,2,0,1,,,,,,,,,0,,,62,79
21624,note_on,,172,0,4,,,,,,,,,3,,,78,95
21634,note_on,,10,0,1,,,,,,,,,0,,,62,0
21636,note_on,,2,0,1,,,,,,,,,0,,,69,79
21644,note_on,,20,0,4,,,,,,,,,3,,,78,0
21646,note_on,,10,0,1,,,,,,,,,0,,,69,0
21648,note_on,,2,0,1,,,,,,,,,0,,,61,79
21648,note_on,,4,0,4,,,,,,,,,3,,,76,95
21658,note_on,,10,0,1,,,,,,,,,0,,,61,0
21660,note_on,,2,0,1,,,,,,,,,0,,,69,79
21668,note_on,,20,0,4,,,,,,,,,3,,,76,0
21670,note_on,,10,0,1,,,,,,,,,0,,,69,0
21672,note_on,,4,0,4,,,,,,,,,3,,,74,95
21672,note_on,,2,0,1,,,,,,,,,0,,,59,79
21680,note_on,,80,0,3,,,,,,,,,2,,,69,0
21682,note_on,,10,0,1,,,,,,,,,0,,,59,0
21684,note_on,,2,0,1,,,,,,,,,0,,,69,79
21692,note_on,,20,0,4,,,,,,,,,3,,,74,0
21694,note_on,,10,0,1,,,,,,,,,0,,,69,0
21696,note_on,,2,0,1,,,,,,,,,0,,,57,79
21696,note_on,,4,0,4,,,,,,,,,3,,,73,95
21708,note_on,,164,0,2,,,,,,,,,1,,,45,79
21716,note_on,,20,0,1,,,,,,,,,0,,,57,0
21718,note_on,,10,0,2,,,,,,,,,1,,,45,0
21720,note_on,,4,0,1,,,,,,,,,0,,,61,79
21720,note_on,,2,0,2,,,,,,,,,1,,,43,79
21720,note_on,,40,0,3,,,,,,,,,2,,,83,95
21727,note_on,,7,0,1,,,,,,,,,0,,,61,0
21728,note_on,,1,0,1,,,,,,,,,0,,,59,79
21730,note_on,,10,0,2,,,,,,,,,1,,,43,0
21732,note_on,,2,0,2,,,,,,,,,1,,,45,79
21735,note_on,,7,0,1,,,,,,,,,0,,,59,0
21736,note_on,,1,0,1,,,,,,,,,0,,,61,79
21736,note_on,,40,0,4,,,,,,,,,3,,,73,0
21740,note_on,,20,0,3,,,,,,,,,2,,,83,0
21742,note_on,,10,0,2,,,,,,,,,1,,,45,0
21743,note_on,,7,0,1,,,,,,,,,0,,,61,0
21744,note_on,,4,0,3,,,,,,,,,2,,,81,95
21744,note_on,,2,0,2,,,,,,,,,1,,,42,79
21744,note_on,,1,0,1,,,,,,,,,0,,,62,79
21751,note_on,,7,0,1,,,,,,,,,0,,,62,0
21752,note_on,,1,0,1,,,,,,,,,0,,,61,79
21754,note_on,,10,0,2,,,,,,,,,1,,,42,0
21756,note_on,,2,0,2,,,,,,,,,1,,,45,79
21759,note_on,,7,0,1,,,,,,,,,0,,,61,0
21760,note_on,,1,0,1,,,,,,,,,0,,,62,79
21764,note_on,,20,0,3,,,,,,,,,2,,,81,0
21766,note_on,,10,0,2,,,,,,,,,1,,,45,0
21767,note_on,,7,0,1,,,,,,,,,0,,,62,0
21768,note_on,,1,0,1,,,,,,,,,0,,,64,79
21768,note_on,,32,0,4,,,,,,,,,3,,,73,95
21768,note_on,,2,0,2,,,,,,,,,1,,,40,79
21768,note_on,,4,0,3,,,,,,,,,2,,,79,95
21775,note_on,,7,0,1,,,,,,,,,0,,,64,0
21776,note_on,,1,0,1,,,,,,,,,0,,,62,79
21778,note_on,,10,0,2,,,,,,,,,1,,,40,0
21780,note_on,,2,0,2,,,,,,,,,1,,,45,79
21783,note_on,,7,0,1,,,,,,,,,0,,,62,0
21784,note_on,,1,0,1,,,,,,,,,0,,,64,79
21788,note_on,,20,0,4,,,,,,,,,3,,,73,0
21788,note_on,,20,0,3,,,,,,,,,2,,,79,0
21790,note_on,,10,0,2,,,,,,,,,1,,,45,0
21791,note_on,,7,0,1,,,,,,,,,0,,,64,0
21792,note_on,,4,0,4,,,,,,,,,3,,,74,95
21792,note_on,,268,0,5,,,,,,,,,4,,,62,56
21792,note_on,,267,0,6,,,,,,,,,5,,,69,56
21792,note_on,,2,0,2,,,,,,,,,1,,,38,79
21792,note_on,,248,0,8,,,,,,,,,7,,,38,63
21792,note_on,,248,0,7,,,,,,,,,6,,,50,63
21792,note_on,,4,0,3,,,,,,,,,2,,,78,95
21792,note_on,,1,0,1,,,,,,,,,0,,,66,79
21802,note_on,,10,0,6,,,,,,,,,5,,,69,0
21802,note_on,,10,0,5,,,,,,,,,4,,,62,0
21802,note_on,,10,0,3,,,,,,,,,2,,,78,0
21802,note_on,,10,0,1,,,,,,,,,0,,,66,0
21804,note_on,,2,0,3,,,,,,,,,2,,,79,95
21804,note_on,,2,0,6,,,,,,,,,5,,,67,56
21804,note_on,,2,0,1,,,,,,,,,0,,,64,79
21804,note_on,,2,0,5,,,,,,,,,4,,,62,56
21812,note_on,,20,0,2,,,,,,,,,1,,,38,0
21812,note_on,,20,0,4,,,,,,,,,3,,,74,0
21814,note_on,,10,0,1,,,,,,,,,0,,,64,0
21814,note_on,,10,0,6,,,,,,,,,5,,,67,0
21814,note_on,,10,0,5,,,,,,,,,4,,,62,0
21814,note_on,,10,0,3,,,,,,,,,2,,,79,0
21816,note_on,,4,0,4,,,,,,,,,3,,,69,95
21816,note_on,,2,0,3,,,,,,,,,2,,,81,95
21816,note_on,,2,0,1,,,,,,,,,0,,,62,79
21816,note_on,,2,0,5,,,,,,,,,4,,,66,56
21816,note_on,,2,0,6,,,,,,,,,5,,,66,56
21816,note_on,,4,0,2,,,,,,,,,1,,,50,79
21826,note_on,,10,0,1,,,,,,,,,0,,,62,0
21826,note_on,,10,0,2,,,,,,,,,1,,,50,0
21826,note_on,,10,0,5,,,,,,,,,4,,,66,0
21826,note_on,,10,0,6,,,,,,,,,5,,,66,0
21828,note_on,,2,0,5,,,,,,,,,4,,,66,56
21828,note_on,,2,0,2,,,,,,,,,1,,,49,79
21828,note_on,,2,0,6,,,,,,,,,5,,,64,56
21828,note_on,,2,0,1,,,,,,,,,0,,,64,79
21832,note_on,,40,0,7,,,,,,,,,6,,,50,0
21832,note_on,,40,0,8,,,,,,,,,7,,,38,0
21836,note_on,,20,0,4,,,,,,,,,3,,,69,0
21838,note_on,,10,0,5,,,,,,,,,4,,,66,0
21838,note_on,,10,0,2,,,,,,,,,1,,,49,0
21838,note_on,,10,0,6,,,,,,,,,5,,,64,0
21838,note_on,,10,0,1,,,,,,,,,0,,,64,0
21840,note_on,,2,0,1,,,,,,,,,0,,,66,79
21840,note_on,,2,0,5,,,,,,,,,4,,,69,56
21840,note_on,,2,0,6,,,,,,,,,5,,,62,56
21840,note_on,,4,0,4,,,,,,,,,3,,,74,95
21840,note_on,,2,0,2,,,,,,,,,1,,,50,79
21850,note_on,,10,0,1,,,,,,,,,0,,,66,0
21850,note_on,,10,0,5,,,,,,,,,4,,,69,0
21850,note_on,,10,0,4,,,,,,,,,3,,,74,0
21852,note_on,,2,0,1,,,,,,,,,0,,,67,79
21852,note_on,,2,0,5,,,,,,,,,4,,,69,56
21852,note_on,,2,0,4,,,,,,,,,3,,,76,95
21856,note_on,,40,0,3,,,,,,,,,2,,,81,0
21860,note_on,,20,0,2,,,,,,,,,1,,,50,0
21861,note_on,,21,0,6,,,,,,,,,5,,,62,0
21862,note_on,,10,0,5,,,,,,,,,4,,,69,0
21862,note_on,,10,0,1,,,,,,,,,0,,,67,0
21862,note_on,,10,0,4,,,,,,,,,3,,,76,0
21864,note_on,,4,0,2,,,,,,,,,1,,,38,79
21864,note_on,,3,0,6,,,,,,,,,5,,,57,56
21864,note_on,,2,0,5,,,,,,,,,4,,,74,56
21864,note_on,,32,0,8,,,,,,,,,7,,,26,63
21864,note_on,,2,0,1,,,,,,,,,0,,,69,79
21864,note_on,,32,0,7,,,,,,,,,6,,,38,63
21864,note_on,,8,0,3,,,,,,,,,2,,,79,95
21864,note_on,,2,0,4,,,,,,,,,3,,,78,95
21874,note_on,,10,0,1,,,,,,,,,0,,,69,0
21874,note_on,,10,0,3,,,,,,,,,2,,,79,0
21874,note_on,,10,0,4,,,,,,,,,3,,,78,0
21874,note_on,,10,0,5,,,,,,,,,4,,,74,0
21876,note_on,,2,0,1,,,,,,,,,0,,,71,79
21876,note_on,,2,0,5,,,,,,,,,4,,,74,56
21876,note_on,,2,0,3,,,,,,,,,2,,,78,95
21876,note_on,,2,0,4,,,,,,,,,3,,,79,95
21884,note_on,,20,0,8,,,,,,,,,7,,,26,0
21884,note_on,,20,0,2,,,,,,,,,1,,,38,0
21884,note_on,,20,0,7,,,,,,,,,6,,,38,0
21885,note_on,,21,0,6,,,,,,,,,5,,,57,0
21886,note_on,,10,0,5,,,,,,,,,4,,,74,0
21886,note_on,,10,0,1,,,,,,,,,0,,,71,0
21886,note_on,,10,0,4,,,,,,,,,3,,,79,0
21886,note_on,,10,0,3,,,,,,,,,2,,,78,0
21888,note_on,,2,0,4,,,,,,,,,3,,,81,95
21888,note_on,,2,0,1,,,,,,,,,0,,,73,79
21888,note_on,,2,0,3,,,,,,,,,2,,,76,95
21888,note_on,,4,0,8,,,,,,,,,7,,,33,63
21888,note_on,,4,0,2,,,,,,,,,1,,,45,79
21888,note_on,,3,0,6,,,,,,,,,5,,,69,56
21888,note_on,,4,0,7,,,,,,,,,6,,,45,63
21888,note_on,,2,0,5,,,,,,,,,4,,,76,63
21898,note_on,,10,0,1,,,,,,,,,0,,,73,0
21900,note_on,,2,0,1,,,,,,,,,0,,,74,79
21908,note_on,,20,0,5,,,,,,,,,4,,,76,0
21908,note_on,,20,0,3,,,,,,,,,2,,,76,0
21908,note_on,,20,0,2,,,,,,,,,1,,,45,0
21908,note_on,,20,0,4,,,,,,,,,3,,,81,0
21910,note_on,,10,0,1,,,,,,,,,0,,,74,0
21912,note_on,,4,0,4,,,,,,,,,3,,,73,95
21912,note_on,,2,0,1,,,,,,,,,0,,,73,79
21912,note_on,,4,0,3,,,,,,,,,2,,,69,95
21912,note_on,,4,0,5,,,,,,,,,4,,,64,63
21912,note_on,,4,0,2,,,,,,,,,1,,,57,79
21919,note_on,,7,0,4,,,,,,,,,3,,,73,0
21920,note_on,,1,0,4,,,,,,,,,3,,,71,95
21922,note_on,,10,0,1,,,,,,,,,0,,,73,0
21924,note_on,,2,0,1,,,,,,,,,0,,,71,79
21927,note_on,,7,0,4,,,,,,,,,3,,,71,0
21928,note_on,,40,0,8,,,,,,,,,7,,,33,0
21928,note_on,,40,0,7,,,,,,,,,6,,,45,0
21928,note_on,,1,0,4,,,,,,,,,3,,,73,95
21930,note_on,,42,0,6,,,,,,,,,5,,,69,0
21932,note_on,,20,0,3,,,,,,,,,2,,,69,0
21932,note_on,,20,0,2,,,,,,,,,1,,,57,0
21932,note_on,,20,0,5,,,,,,,,,4,,,64,0
21934,note_on,,10,0,1,,,,,,,,,0,,,71,0
21935,note_on,,7,0,4,,,,,,,,,3,,,73,0
21936,note_on,,2,0,1,,,,,,,,,0,,,69,79
21936,note_on,,1,0,4,,,,,,,,,3,,,74,95
21936,note_on,,4,0,2,,,,,,,,,1,,,59,79
21943,note_on,,7,0,4,,,,,,,,,3,,,74,0
21944,note_on,,1,0,4,,,,,,,,,3,,,73,95
21946,note_on,,10,0,1,,,,,,,,,0,,,69,0
21948,note_on,,2,0,1,,,,,,,,,0,,,67,79
21951,note_on,,7,0,4,,,,,,,,,3,,,73,0
21952,note_on,,1,0,4,,,,,,,,,3,,,74,95
21956,note_on,,20,0,2,,,,,,,,,1,,,59,0
21958,note_on,,10,0,1,,,,,,,,,0,,,67,0
21959,note_on,,7,0,4,,,,,,,,,3,,,74,0
21960,note_on,,1,0,4,,,,,,,,,3,,,76,95
21960,note_on,,4,0,2,,,,,,,,,1,,,61,79
21960,note_on,,2,0,1,,,,,,,,,0,,,66,79
21967,note_on,,7,0,4,,,,,,,,,3,,,76,0
21968,note_on,,1,0,4,,,,,,,,,3,,,74,95
21970,note_on,,10,0,1,,,,,,,,,0,,,66,0
21972,note_on,,2,0,1,,,,,,,,,0,,,64,79
21975,note_on,,7,0,4,,,,,,,,,3,,,74,0
21976,note_on,,1,0,4,,,,,,,,,3,,,76,95
21980,note_on,,20,0,2,,,,,,,,,1,,,61,0
21982,note_on,,10,0,1,,,,,,,,,0,,,64,0
21983,note_on,,7,0,4,,,,,,,,,3,,,76,0
21984,note_on,,2,0,1,,,,,,,,,0,,,62,79
21984,note_on,,4,0,2,,,,,,,,,1,,,62,79
21984,note_on,,1,0,4,,,,,,,,,3,,,78,95
21994,note_on,,10,0,1,,,,,,,,,0,,,62,0
21994,note_on,,10,0,2,,,,,,,,,1,,,62,0
21996,note_on,,2,0,1,,,,,,,,,0,,,79,79
21996,note_on,,2,0,2,,,,,,,,,1,,,64,79
22006,note_on,,10,0,2,,,,,,,,,1,,,64,0
22006,note_on,,10,0,1,,,,,,,,,0,,,79,0
22008,note_on,,2,0,1,,,,,,,,,0,,,78,79
22008,note_on,,2,0,2,,,,,,,,,1,,,62,79
22008,note_on,,76,0,3,,,,,,,,,2,,,78,95
22015,note_on,,7,0,3,,,,,,,,,2,,,78,0
22016,note_on,,1,0,3,,,,,,,,,2,,,76,95
22018,note_on,,10,0,1,,,,,,,,,0,,,78,0
22018,note_on,,10,0,2,,,,,,,,,1,,,62,0
22020,note_on,,2,0,1,,,,,,,,,0,,,76,79
22020,note_on,,2,0,2,,,,,,,,,1,,,60,79
22023,note_on,,7,0,3,,,,,,,,,2,,,76,0
22024,note_on,,1,0,3,,,,,,,,,2,,,78,95
22030,note_on,,10,0,2,,,,,,,,,1,,,60,0
22030,note_on,,10,0,1,,,,,,,,,0,,,76,0
22031,note_on,,7,0,3,,,,,,,,,2,,,78,0
22032,note_on,,2,0,2,,,,,,,,,1,,,59,79
22032,note_on,,2,0,1,,,,,,,,,0,,,74,79
22032,note_on,,1,0,3,,,,,,,,,2,,,79,95
22039,note_on,,7,0,3,,,,,,,,,2,,,79,0
22040,note_on,,1,0,3,,,,,,,,,2,,,78,95
22042,note_on,,10,0,2,,,,,,,,,1,,,59,0
22042,note_on,,10,0,1,,,,,,,,,0,,,74,0
22044,note_on,,2,0,1,,,,,,,,,0,,,72,79
22044,note_on,,2,0,2,,,,,,,,,1,,,57,79
22047,note_on,,7,0,3,,,,,,,,,2,,,78,0
22048,note_on,,1,0,3,,,,,,,,,2,,,79,95
22054,note_on,,10,0,1,,,,,,,,,0,,,72,0
22054,note_on,,10,0,2,,,,,,,,,1,,,57,0
22055,note_on,,7,0,3,,,,,,,,,2,,,79,0
22056,note_on,,1,0,3,,,,,,,,,2,,,81,95
22056,note_on,,2,0,2,,,,,,,,,1,,,55,79
22056,note_on,,2,0,1,,,,,,,,,0,,,71,79
22063,note_on,,7,0,3,,,,,,,,,2,,,81,0
22064,note_on,,1,0,3,,,,,,,,,2,,,79,95
22064,note_on,,80,0,4,,,,,,,,,3,,,78,0
22066,note_on,,10,0,1,,,,,,,,,0,,,71,0
22066,note_on,,10,0,2,,,,,,,,,1,,,55,0
22068,note_on,,2,0,1,,,,,,,,,0,,,69,79
22068,note_on,,2,0,2,,,,,,,,,1,,,54,79
22071,note_on,,7,0,3,,,,,,,,,2,,,79,0
22072,note_on,,1,0,3,,,,,,,,,2,,,81,95
22078,note_on,,10,0,2,,,,,,,,,1,,,54,0
22078,note_on,,10,0,1,,,,,,,,,0,,,69,0
22079,note_on,,7,0,3,,,,,,,,,2,,,81,0
22080,note_on,,1,0,3,,,,,,,,,2,,,83,95
22080,note_on,,2,0,1,,,,,,,,,0,,,67,79
22080,note_on,,2,0,2,,,,,,,,,1,,,55,79
22090,note_on,,10,0,1,,,,,,,,,0,,,67,0
22090,note_on,,10,0,2,,,,,,,,,1,,,55,0
22092,note_on,,2,0,1,,,,,,,,,0,,,83,79
22092,note_on,,2,0,2,,,,,,,,,1,,,67,79
22102,note_on,,10,0,2,,,,,,,,,1,,,67,0
22102,note_on,,10,0,1,,,,,,,,,0,,,83,0
22104,note_on,,2,0,1,,,,,,,,,0,,,81,79
22104,note_on,,40,0,4,,,,,,,,,3,,,71,95
22104,note_on,,2,0,2,,,,,,,,,1,,,66,79
22111,note_on,,7,0,4,,,,,,,,,3,,,71,0
22112,note_on,,1,0,4,,,,,,,,,3,,,69,95
22114,note_on,,10,0,1,,,,,,,,,0,,,81,0
22114,note_on,,10,0,2,,,,,,,,,1,,,66,0
22116,note_on,,2,0,1,,,,,,,,,0,,,83,79
22116,note_on,,2,0,2,,,,,,,,,1,,,67,79
22119,note_on,,7,0,4,,,,,,,,,3,,,69,0
22120,note_on,,1,0,4,,,,,,,,,3,,,71,95
22126,note_on,,10,0,1,,,,,,,,,0,,,83,0
22126,note_on,,10,0,2,,,,,,,,,1,,,67,0
22127,note_on,,7,0,4,,,,,,,,,3,,,71,0
22128,note_on,,2,0,1,,,,,,,,,0,,,79,79
22128,note_on,,1,0,4,,,,,,,,,3,,,73,95
22128,note_on,,2,0,2,,,,,,,,,1,,,64,79
22135,note_on,,7,0,4,,,,,,,,,3,,,73,0
22136,note_on,,1,0,4,,,,,,,,,3,,,71,95
22138,note_on,,10,0,2,,,,,,,,,1,,,64,0
22138,note_on,,10,0,1,,,,,,,,,0,,,79,0
22140,note_on,,2,0,2,,,,,,,,,1,,,67,79
22140,note_on,,2,0,1,,,,,,,,,0,,,83,79
22143,note_on,,7,0,4,,,,,,,,,3,,,71,0
22144,note_on,,1,0,4,,,,,,,,,3,,,73,95
22150,note_on,,10,0,1,,,,,,,,,0,,,83,0
22150,note_on,,10,0,2,,,,,,,,,1,,,67,0
22151,note_on,,7,0,4,,,,,,,,,3,,,73,0
22152,note_on,,2,0,1,,,,,,,,,0,,,78,79
22152,note_on,,1,0,4,,,,,,,,,3,,,74,95
22152,note_on,,2,0,2,,,,,,,,,1,,,62,79
22159,note_on,,7,0,4,,,,,,,,,3,,,74,0
22160,note_on,,1,0,4,,,,,,,,,3,,,73,95
22160,note_on,,80,0,3,,,,,,,,,2,,,83,0
22162,note_on,,10,0,2,,,,,,,,,1,,,62,0
22162,note_on,,10,0,1,,,,,,,,,0,,,78,0
22164,note_on,,2,0,1,,,,,,,,,0,,,83,79
22164,note_on,,2,0,2,,,,,,,,,1,,,67,79
22167,note_on,,7,0,4,,,,,,,,,3,,,73,0
22168,note_on,,1,0,4,,,,,,,,,3,,,74,95
22174,note_on,,10,0,1,,,,,,,,,0,,,83,0
22174,note_on,,10,0,2,,,,,,,,,1,,,67,0
22175,note_on,,7,0,4,,,,,,,,,3,,,74,0
22176,note_on,,2,0,2,,,,,,,,,1,,,61,79
22176,note_on,,1,0,4,,,,,,,,,3,,,76,95
22176,note_on,,2,0,1,,,,,,,,,0,,,76,79
22186,note_on,,10,0,2,,,,,,,,,1,,,61,0
22186,note_on,,10,0,1,,,,,,,,,0,,,76,0
22188,note_on,,2,0,1,,,,,,,,,0,,,83,79
22188,note_on,,2,0,2,,,,,,,,,1,,,67,79
22198,note_on,,10,0,1,,,,,,,,,0,,,83,0
22198,note_on,,10,0,2,,,,,,,,,1,,,67,0
22200,note_on,,2,0,2,,,,,,,,,1,,,59,79
22200,note_on,,40,0,3,,,,,,,,,2,,,76,95
22200,note_on,,2,0,1,,,,,,,,,0,,,74,79
22207,note_on,,7,0,3,,,,,,,,,2,,,76,0
22208,note_on,,1,0,3,,,,,,,,,2,,,74,95
22210,note_on,,10,0,1,,,,,,,,,0,,,74,0
22210,note_on,,10,0,2,,,,,,,,,1,,,59,0
22212,note_on,,2,0,1,,,,,,,,,0,,,83,79
22212,note_on,,2,0,2,,,,,,,,,1,,,67,79
22215,note_on,,7,0,3,,,,,,,,,2,,,74,0
22216,note_on,,1,0,3,,,,,,,,,2,,,76,95
22222,note_on,,10,0,1,,,,,,,,,0,,,83,0
22222,note_on,,10,0,2,,,,,,,,,1,,,67,0
22223,note_on,,7,0,3,,,,,,,,,2,,,76,0
22224,note_on,,2,0,2,,,,,,,,,1,,,57,79
22224,note_on,,1,0,3,,,,,,,,,2,,,78,95
22224,note_on,,2,0,1,,,,,,,,,0,,,73,79
22231,note_on,,7,0,3,,,,,,,,,2,,,78,0
22232,note_on,,1,0,3,,,,,,,,,2,,,76,95
22234,note_on,,10,0,2,,,,,,,,,1,,,57,0
22234,note_on,,10,0,1,,,,,,,,,0,,,73,0
22236,note_on,,2,0,1,,,,,,,,,0,,,83,79
22236,note_on,,2,0,2,,,,,,,,,1,,,67,79
22239,note_on,,7,0,3,,,,,,,,,2,,,76,0
22240,note_on,,1,0,3,,,,,,,,,2,,,78,95
22246,note_on,,10,0,2,,,,,,,,,1,,,67,0
22246,note_on,,10,0,1,,,,,,,,,0,,,83,0
22247,note_on,,7,0,3,,,,,,,,,2,,,78,0
22248,note_on,,1,0,3,,,,,,,,,2,,,79,95
22248,note_on,,2,0,2,,,,,,,,,1,,,55,79
22248,note_on,,2,0,1,,,,,,,,,0,,,71,79
22255,note_on,,7,0,3,,,,,,,,,2,,,79,0
22256,note_on,,1,0,3,,,,,,,,,2,,,78,95
22256,note_on,,80,0,4,,,,,,,,,3,,,76,0
22258,note_on,,10,0,1,,,,,,,,,0,,,71,0
22258,note_on,,10,0,2,,,,,,,,,1,,,55,0
22260,note_on,,2,0,2,,,,,,,,,1,,,67,79
22260,note_on,,2,0,1,,,,,,,,,0,,,83,79
22263,note_on,,7,0,3,,,,,,,,,2,,,78,0
22264,note_on,,1,0,3,,,,,,,,,2,,,79,95
22270,note_on,,10,0,1,,,,,,,,,0,,,83,0
22270,note_on,,10,0,2,,,,,,,,,1,,,67,0
22271,note_on,,7,0,3,,,,,,,,,2,,,79,0
22272,note_on,,1,0,3,,,,,,,,,2,,,81,95
22272,note_on,,2,0,1,,,,,,,,,0,,,69,79
22272,note_on,,2,0,2,,,,,,,,,1,,,54,79
22282,note_on,,10,0,2,,,,,,,,,1,,,54,0
22282,note_on,,10,0,1,,,,,,,,,0,,,69,0
22284,note_on,,2,0,1,,,,,,,,,0,,,81,79
22284,note_on,,2,0,2,,,,,,,,,1,,,66,79
22294,note_on,,10,0,2,,,,,,,,,1,,,66,0
22294,note_on,,10,0,1,,,,,,,,,0,,,81,0
22296,note_on,,40,0,4,,,,,,,,,3,,,69,95
22296,note_on,,2,0,2,,,,,,,,,1,,,64,79
22296,note_on,,2,0,1,,,,,,,,,0,,,79,79
22303,note_on,,7,0,4,,,,,,,,,3,,,69,0
22304,note_on,,1,0,4,,,,,,,,,3,,,67,95
22306,note_on,,10,0,1,,,,,,,,,0,,,79,0
22306,note_on,,10,0,2,,,,,,,,,1,,,64,0
22308,note_on,,2,0,1,,,,,,,,,0,,,81,79
22308,note_on,,2,0,2,,,,,,,,,1,,,66,79
22311,note_on,,7,0,4,,,,,,,,,3,,,67,0
22312,note_on,,1,0,4,,,,,,,,,3,,,69,95
22318,note_on,,10,0,1,,,,,,,,,0,,,81,0
22318,note_on,,10,0,2,,,,,,,,,1,,,66,0
22319,note_on,,7,0,4,,,,,,,,,3,,,69,0
22320,note_on,,1,0,4,,,,,,,,,3,,,71,95
22320,note_on,,2,0,2,,,,,,,,,1,,,62,79
22320,note_on,,2,0,1,,,,,,,,,0,,,78,79
22327,note_on,,7,0,4,,,,,,,,,3,,,71,0
22328,note_on,,1,0,4,,,,,,,,,3,,,69,95
22328,note_on,,56,0,3,,,,,,,,,2,,,81,0
22330,note_on,,10,0,2,,,,,,,,,1,,,62,0
22330,note_on,,10,0,1,,,,,,,,,0,,,78,0
22332,note_on,,2,0,2,,,,,,,,,1,,,66,79
22332,note_on,,2,0,1,,,,,,,,,0,,,81,79
22335,note_on,,7,0,4,,,,,,,,,3,,,69,0
22336,note_on,,1,0,4,,,,,,,,,3,,,71,95
22342,note_on,,10,0,2,,,,,,,,,1,,,66,0
22342,note_on,,10,0,1,,,,,,,,,0,,,81,0
22343,note_on,,7,0,4,,,,,,,,,3,,,71,0
22344,note_on,,1,0,4,,,,,,,,,3,,,73,95
22344,note_on,,2,0,2,,,,,,,,,1,,,61,79
22344,note_on,,2,0,1,,,,,,,,,0,,,76,79
22351,note_on,,7,0,4,,,,,,,,,3,,,73,0
22352,note_on,,1,0,4,,,,,,,,,3,,,71,95
22354,note_on,,10,0,2,,,,,,,,,1,,,61,0
22354,note_on,,10,0,1,,,,,,,,,0,,,76,0
22356,note_on,,2,0,2,,,,,,,,,1,,,66,79
22356,note_on,,2,0,1,,,,,,,,,0,,,81,79
22359,note_on,,7,0,4,,,,,,,,,3,,,71,0
22360,note_on,,1,0,4,,,,,,,,,3,,,73,95
22366,note_on,,10,0,1,,,,,,,,,0,,,81,0
22366,note_on,,10,0,2,,,,,,,,,1,,,66,0
22367,note_on,,7,0,4,,,,,,,,,3,,,73,0
22368,note_on,,1,0,4,,,,,,,,,3,,,74,95
22368,note_on,,2,0,1,,,,,,,,,0,,,74,79
22368,note_on,,2,0,2,,,,,,,,,1,,,59,79
22378,note_on,,10,0,1,,,,,,,,,0,,,74,0
22378,note_on,,10,0,2,,,,,,,,,1,,,59,0
22380,note_on,,2,0,2,,,,,,,,,1,,,66,79
22380,note_on,,2,0,1,,,,,,,,,0,,,81,79
22390,note_on,,10,0,2,,,,,,,,,1,,,66,0
22390,note_on,,10,0,1,,,,,,,,,0,,,81,0
22392,note_on,,2,0,1,,,,,,,,,0,,,73,79
22392,note_on,,2,0,2,,,,,,,,,1,,,57,79
22392,note_on,,64,0,3,,,,,,,,,2,,,74,95
22399,note_on,,7,0,3,,,,,,,,,2,,,74,0
22400,note_on,,1,0,3,,,,,,,,,2,,,73,95
22402,note_on,,10,0,2,,,,,,,,,1,,,57,0
22402,note_on,,10,0,1,,,,,,,,,0,,,73,0
22404,note_on,,2,0,2,,,,,,,,,1,,,66,79
22404,note_on,,2,0,1,,,,,,,,,0,,,81,79
22407,note_on,,7,0,3,,,,,,,,,2,,,73,0
22408,note_on,,1,0,3,,,,,,,,,2,,,74,95
22414,note_on,,10,0,1,,,,,,,,,0,,,81,0
22414,note_on,,10,0,2,,,,,,,,,1,,,66,0
22415,note_on,,7,0,3,,,,,,,,,2,,,74,0
22416,note_on,,2,0,1,,,,,,,,,0,,,71,79
22416,note_on,,2,0,2,,,,,,,,,1,,,55,79
22416,note_on,,1,0,3,,,,,,,,,2,,,76,95
22421,note_on,,53,0,4,,,,,,,,,3,,,74,0
22423,note_on,,7,0,3,,,,,,,,,2,,,76,0
22424,note_on,,1,0,3,,,,,,,,,2,,,74,95
22426,note_on,,10,0,2,,,,,,,,,1,,,55,0
22426,note_on,,10,0,1,,,,,,,,,0,,,71,0
22428,note_on,,2,0,1,,,,,,,,,0,,,81,79
22428,note_on,,2,0,2,,,,,,,,,1,,,66,79
22431,note_on,,7,0,3,,,,,,,,,2,,,74,0
22432,note_on,,1,0,3,,,,,,,,,2,,,76,95
22438,note_on,,10,0,2,,,,,,,,,1,,,66,0
22438,note_on,,10,0,1,,,,,,,,,0,,,81,0
22439,note_on,,7,0,3,,,,,,,,,2,,,76,0
22440,note_on,,1,0,3,,,,,,,,,2,,,78,95
22440,note_on,,2,0,1,,,,,,,,,0,,,69,79
22440,note_on,,2,0,2,,,,,,,,,1,,,54,79
22447,note_on,,7,0,3,,,,,,,,,2,,,78,0
22448,note_on,,1,0,3,,,,,,,,,2,,,76,95
22450,note_on,,10,0,1,,,,,,,,,0,,,69,0
22450,note_on,,10,0,2,,,,,,,,,1,,,54,0
22452,note_on,,2,0,1,,,,,,,,,0,,,81,79
22452,note_on,,2,0,2,,,,,,,,,1,,,66,79
22455,note_on,,7,0,3,,,,,,,,,2,,,76,0
22456,note_on,,1,0,3,,,,,,,,,2,,,78,95
22462,note_on,,10,0,2,,,,,,,,,1,,,66,0
22462,note_on,,10,0,1,,,,,,,,,0,,,81,0
22463,note_on,,7,0,3,,,,,,,,,2,,,78,0
22464,note_on,,2,0,2,,,,,,,,,1,,,52,79
22464,note_on,,1,0,3,,,,,,,,,2,,,79,95
22464,note_on,,2,0,1,,,,,,,,,0,,,67,79
22474,note_on,,10,0,2,,,,,,,,,1,,,52,0
22474,note_on,,10,0,1,,,,,,,,,0,,,67,0
22476,note_on,,2,0,2,,,,,,,,,1,,,64,79
22476,note_on,,2,0,1,,,,,,,,,0,,,79,79
22486,note_on,,10,0,2,,,,,,,,,1,,,64,0
22486,note_on,,10,0,1,,,,,,,,,0,,,79,0
22488,note_on,,2,0,2,,,,,,,,,1,,,62,79
22488,note_on,,2,0,1,,,,,,,,,0,,,78,79
22488,note_on,,67,0,4,,,,,,,,,3,,,67,95
22495,note_on,,7,0,4,,,,,,,,,3,,,67,0
22496,note_on,,1,0,4,,,,,,,,,3,,,66,95
22498,note_on,,10,0,1,,,,,,,,,0,,,78,0
22498,note_on,,10,0,2,,,,,,,,,1,,,62,0
22500,note_on,,2,0,1,,,,,,,,,0,,,79,79
22500,note_on,,2,0,2,,,,,,,,,1,,,64,79
22503,note_on,,7,0,4,,,,,,,,,3,,,66,0
22504,note_on,,1,0,4,,,,,,,,,3,,,67,95
22510,note_on,,10,0,1,,,,,,,,,0,,,79,0
22510,note_on,,10,0,2,,,,,,,,,1,,,64,0
22511,note_on,,7,0,4,,,,,,,,,3,,,67,0
22512,note_on,,1,0,4,,,,,,,,,3,,,69,95
22512,note_on,,2,0,2,,,,,,,,,1,,,61,79
22512,note_on,,2,0,1,,,,,,,,,0,,,76,79
22519,note_on,,7,0,4,,,,,,,,,3,,,69,0
22520,note_on,,56,0,3,,,,,,,,,2,,,79,0
22520,note_on,,1,0,4,,,,,,,,,3,,,67,95
22522,note_on,,10,0,2,,,,,,,,,1,,,61,0
22522,note_on,,10,0,1,,,,,,,,,0,,,76,0
22524,note_on,,2,0,1,,,,,,,,,0,,,79,79
22524,note_on,,2,0,2,,,,,,,,,1,,,64,79
22527,note_on,,7,0,4,,,,,,,,,3,,,67,0
22528,note_on,,1,0,4,,,,,,,,,3,,,69,95
22534,note_on,,10,0,2,,,,,,,,,1,,,64,0
22534,note_on,,10,0,1,,,,,,,,,0,,,79,0
22535,note_on,,7,0,4,,,,,,,,,3,,,69,0
22536,note_on,,1,0,4,,,,,,,,,3,,,71,95
22536,note_on,,2,0,1,,,,,,,,,0,,,74,79
22536,note_on,,2,0,2,,,,,,,,,1,,,59,79
22543,note_on,,7,0,4,,,,,,,,,3,,,71,0
22544,note_on,,1,0,4,,,,,,,,,3,,,69,95
22546,note_on,,10,0,2,,,,,,,,,1,,,59,0
22546,note_on,,10,0,1,,,,,,,,,0,,,74,0
22548,note_on,,2,0,2,,,,,,,,,1,,,64,79
22548,note_on,,2,0,1,,,,,,,,,0,,,79,79
22551,note_on,,7,0,4,,,,,,,,,3,,,69,0
22552,note_on,,1,0,4,,,,,,,,,3,,,71,95
22558,note_on,,10,0,2,,,,,,,,,1,,,64,0
22558,note_on,,10,0,1,,,,,,,,,0,,,79,0
22559,note_on,,7,0,4,,,,,,,,,3,,,71,0
22560,note_on,,2,0,1,,,,,,,,,0,,,73,79
22560,note_on,,2,0,2,,,,,,,,,1,,,57,79
22560,note_on,,1,0,4,,,,,,,,,3,,,61,95
22570,note_on,,10,0,1,,,,,,,,,0,,,73,0
22570,note_on,,10,0,2,,,,,,,,,1,,,57,0
22572,note_on,,2,0,1,,,,,,,,,0,,,74,79
22572,note_on,,2,0,2,,,,,,,,,1,,,64,79
22580,note_on,,20,0,4,,,,,,,,,3,,,61,0
22582,note_on,,10,0,1,,,,,,,,,0,,,74,0
22582,note_on,,10,0,2,,,,,,,,,1,,,64,0
22584,note_on,,4,0,4,,,,,,,,,3,,,71,95
22584,note_on,,2,0,2,,,,,,,,,1,,,55,79
22584,note_on,,64,0,3,,,,,,,,,2,,,73,95
22584,note_on,,2,0,1,,,,,,,,,0,,,76,79
22591,note_on,,7,0,3,,,,,,,,,2,,,73,0
22592,note_on,,1,0,3,,,,,,,,,2,,,71,95
22594,note_on,,10,0,2,,,,,,,,,1,,,55,0
22594,note_on,,10,0,1,,,,,,,,,0,,,76,0
22596,note_on,,2,0,2,,,,,,,,,1,,,64,79
22596,note_on,,2,0,1,,,,,,,,,0,,,73,79
22599,note_on,,7,0,3,,,,,,,,,2,,,71,0
22600,note_on,,1,0,3,,,,,,,,,2,,,73,95
22604,note_on,,20,0,4,,,,,,,,,3,,,71,0
22606,note_on,,10,0,1,,,,,,,,,0,,,73,0
22606,note_on,,10,0,2,,,,,,,,,1,,,64,0
22607,note_on,,7,0,3,,,,,,,,,2,,,73,0
22608,note_on,,4,0,4,,,,,,,,,3,,,69,95
22608,note_on,,1,0,3,,,,,,,,,2,,,74,95
22608,note_on,,2,0,2,,,,,,,,,1,,,54,79
22608,note_on,,2,0,1,,,,,,,,,0,,,69,79
22615,note_on,,7,0,3,,,,,,,,,2,,,74,0
22616,note_on,,1,0,3,,,,,,,,,2,,,73,95
22618,note_on,,10,0,2,,,,,,,,,1,,,54,0
22618,note_on,,10,0,1,,,,,,,,,0,,,69,0
22620,note_on,,2,0,1,,,,,,,,,0,,,71,79
22620,note_on,,2,0,2,,,,,,,,,1,,,64,79
22623,note_on,,7,0,3,,,,,,,,,2,,,73,0
22624,note_on,,1,0,3,,,,,,,,,2,,,74,95
22628,note_on,,20,0,4,,,,,,,,,3,,,69,0
22630,note_on,,10,0,1,,,,,,,,,0,,,71,0
22630,note_on,,10,0,2,,,,,,,,,1,,,64,0
22631,note_on,,7,0,3,,,,,,,,,2,,,74,0
22632,note_on,,1,0,3,,,,,,,,,2,,,76,95
22632,note_on,,2,0,1,,,,,,,,,0,,,73,79
22632,note_on,,2,0,2,,,,,,,,,1,,,52,79
22632,note_on,,4,0,4,,,,,,,,,3,,,67,95
22639,note_on,,7,0,3,,,,,,,,,2,,,76,0
22640,note_on,,1,0,3,,,,,,,,,2,,,74,95
22642,note_on,,10,0,2,,,,,,,,,1,,,52,0
22642,note_on,,10,0,1,,,,,,,,,0,,,73,0
22644,note_on,,2,0,2,,,,,,,,,1,,,64,79
22644,note_on,,2,0,1,,,,,,,,,0,,,69,79
22647,note_on,,7,0,3,,,,,,,,,2,,,74,0
22648,note_on,,1,0,3,,,,,,,,,2,,,76,95
22652,note_on,,20,0,4,,,,,,,,,3,,,67,0
22654,note_on,,10,0,1,,,,,,,,,0,,,69,0
22654,note_on,,10,0,2,,,,,,,,,1,,,64,0
22655,note_on,,7,0,3,,,,,,,,,2,,,76,0
22656,note_on,,1,0,3,,,,,,,,,2,,,78,95
22656,note_on,,4,0,4,,,,,,,,,3,,,66,95
22656,note_on,,2,0,1,,,,,,,,,0,,,78,79
22656,note_on,,2,0,2,,,,,,,,,1,,,50,79
22666,note_on,,10,0,3,,,,,,,,,2,,,78,0
22666,note_on,,10,0,1,,,,,,,,,0,,,78,0
22666,note_on,,10,0,2,,,,,,,,,1,,,50,0
22668,note_on,,2,0,3,,,,,,,,,2,,,79,95
22668,note_on,,2,0,1,,,,,,,,,0,,,74,79
22668,note_on,,2,0,2,,,,,,,,,1,,,62,79
22676,note_on,,20,0,4,,,,,,,,,3,,,66,0
22678,note_on,,10,0,2,,,,,,,,,1,,,62,0
22678,note_on,,10,0,1,,,,,,,,,0,,,74,0
22678,note_on,,10,0,3,,,,,,,,,2,,,79,0
22680,note_on,,2,0,2,,,,,,,,,1,,,52,79
22680,note_on,,2,0,1,,,,,,,,,0,,,73,79
22680,note_on,,4,0,4,,,,,,,,,3,,,64,95
22680,note_on,,2,0,3,,,,,,,,,2,,,81,95
22690,note_on,,10,0,1,,,,,,,,,0,,,73,0
22690,note_on,,10,0,2,,,,,,,,,1,,,52,0
22690,note_on,,10,0,4,,,,,,,,,3,,,64,0
22692,note_on,,2,0,4,,,,,,,,,3,,,62,95
22692,note_on,,2,0,2,,,,,,,,,1,,,62,79
22692,note_on,,2,0,1,,,,,,,,,0,,,71,79
22701,note_on,,21,0,3,,,,,,,,,2,,,81,0
22702,note_on,,10,0,1,,,,,,,,,0,,,71,0
22702,note_on,,10,0,4,,,,,,,,,3,,,62,0
22702,note_on,,10,0,2,,,,,,,,,1,,,62,0
22704,note_on,,2,0,1,,,,,,,,,0,,,69,79
22704,note_on,,2,0,4,,,,,,,,,3,,,69,95
22704,note_on,,2,0,2,,,,,,,,,1,,,54,79
22714,note_on,,10,0,1,,,,,,,,,0,,,69,0
22714,note_on,,10,0,2,,,,,,,,,1,,,54,0
22716,note_on,,2,0,2,,,,,,,,,1,,,62,79
22716,note_on,,2,0,1,,,,,,,,,0,,,71,79
22726,note_on,,10,0,2,,,,,,,,,1,,,62,0
22726,note_on,,10,0,1,,,,,,,,,0,,,71,0
22728,note_on,,2,0,1,,,,,,,,,0,,,72,79
22728,note_on,,27,0,3,,,,,,,,,2,,,74,95
22728,note_on,,2,0,2,,,,,,,,,1,,,50,79
22738,note_on,,10,0,1,,,,,,,,,0,,,72,0
22738,note_on,,10,0,2,,,,,,,,,1,,,50,0
22740,note_on,,2,0,2,,,,,,,,,1,,,62,79
22740,note_on,,2,0,1,,,,,,,,,0,,,69,79
22744,note_on,,40,0,4,,,,,,,,,3,,,69,0
22749,note_on,,21,0,3,,,,,,,,,2,,,74,0
22750,note_on,,10,0,2,,,,,,,,,1,,,62,0
22750,note_on,,10,0,1,,,,,,,,,0,,,69,0
22752,note_on,,3,0,3,,,,,,,,,2,,,83,95
22752,note_on,,2,0,2,,,,,,,,,1,,,55,79
22752,note_on,,2,0,1,,,,,,,,,0,,,71,79
22762,note_on,,10,0,2,,,,,,,,,1,,,55,0
22762,note_on,,10,0,1,,,,,,,,,0,,,71,0
22764,note_on,,2,0,2,,,,,,,,,1,,,62,79
22764,note_on,,20,0,4,,,,,,,,,3,,,67,95
22764,note_on,,2,0,1,,,,,,,,,0,,,67,79
22773,note_on,,21,0,3,,,,,,,,,2,,,83,0
22774,note_on,,10,0,2,,,,,,,,,1,,,62,0
22774,note_on,,10,0,1,,,,,,,,,0,,,67,0
22774,note_on,,10,0,4,,,,,,,,,3,,,67,0
22776,note_on,,3,0,3,,,,,,,,,2,,,81,95
22776,note_on,,2,0,2,,,,,,,,,1,,,57,79
22776,note_on,,2,0,1,,,,,,,,,0,,,74,79
22776,note_on,,2,0,4,,,,,,,,,3,,,66,95
22786,note_on,,10,0,1,,,,,,,,,0,,,74,0
22786,note_on,,10,0,4,,,,,,,,,3,,,66,0
22786,note_on,,10,0,2,,,,,,,,,1,,,57,0
22788,note_on,,2,0,2,,,,,,,,,1,,,62,79
22788,note_on,,2,0,4,,,,,,,,,3,,,67,95
22788,note_on,,2,0,1,,,,,,,,,0,,,66,79
22797,note_on,,21,0,3,,,,,,,,,2,,,81,0
22798,note_on,,10,0,1,,,,,,,,,0,,,66,0
22798,note_on,,10,0,4,,,,,,,,,3,,,67,0
22798,note_on,,10,0,2,,,,,,,,,1,,,62,0
22800,note_on,,2,0,2,,,,,,,,,1,,,59,79
22800,note_on,,2,0,1,,,,,,,,,0,,,67,79
22800,note_on,,3,0,3,,,,,,,,,2,,,79,95
22800,note_on,,2,0,4,,,,,,,,,3,,,76,95
22810,note_on,,10,0,3,,,,,,,,,2,,,79,0
22810,note_on,,10,0,1,,,,,,,,,0,,,67,0
22810,note_on,,10,0,2,,,,,,,,,1,,,59,0
22812,note_on,,2,0,1,,,,,,,,,0,,,69,79
22812,note_on,,12,0,4,,,,,,,,,3,,,76,0
22812,note_on,,2,0,3,,,,,,,,,2,,,78,95
22812,note_on,,2,0,2,,,,,,,,,1,,,62,79
22822,note_on,,10,0,3,,,,,,,,,2,,,78,0
22822,note_on,,10,0,2,,,,,,,,,1,,,62,0
22822,note_on,,10,0,1,,,,,,,,,0,,,69,0
22824,note_on,,12,0,4,,,,,,,,,3,,,74,95
22824,note_on,,2,0,1,,,,,,,,,0,,,71,79
22824,note_on,,2,0,3,,,,,,,,,2,,,79,95
22824,note_on,,2,0,2,,,,,,,,,1,,,55,79
22834,note_on,,10,0,2,,,,,,,,,1,,,55,0
22834,note_on,,10,0,1,,,,,,,,,0,,,71,0
22836,note_on,,2,0,2,,,,,,,,,1,,,62,79
22836,note_on,,2,0,1,,,,,,,,,0,,,67,79
22836,note_on,,12,0,4,,,,,,,,,3,,,74,0
22846,note_on,,10,0,1,,,,,,,,,0,,,67,0
22846,note_on,,10,0,2,,,,,,,,,1,,,62,0
22848,note_on,,2,0,1,,,,,,,,,0,,,64,79
22848,note_on,,2,0,2,,,,,,,,,1,,,57,79
22848,note_on,,12,0,4,,,,,,,,,3,,,73,95
22855,note_on,,31,0,3,,,,,,,,,2,,,79,0
22858,note_on,,10,0,1,,,,,,,,,0,,,64,0
22860,note_on,,2,0,1,,,,,,,,,0,,,69,79
22860,note_on,,5,0,3,,,,,,,,,2,,,78,95
22868,note_on,,20,0,4,,,,,,,,,3,,,73,0
22868,note_on,,20,0,2,,,,,,,,,1,,,57,0
22870,note_on,,10,0,3,,,,,,,,,2,,,78,0
22870,note_on,,10,0,1,,,,,,,,,0,,,69,0
22872,note_on,,4,0,2,,,,,,,,,1,,,45,79
22872,note_on,,4,0,4,,,,,,,,,3,,,71,95
22872,note_on,,2,0,1,,,,,,,,,0,,,67,79
22872,note_on,,2,0,3,,,,,,,,,2,,,79,95
22882,note_on,,10,0,3,,,,,,,,,2,,,79,0
22882,note_on,,10,0,4,,,,,,,,,3,,,71,0
22882,note_on,,10,0,1,,,,,,,,,0,,,67,0
22884,note_on,,2,0,3,,,,,,,,,2,,,76,95
22884,note_on,,2,0,4,,,,,,,,,3,,,69,95
22884,note_on,,2,0,1,,,,,,,,,0,,,69,79
22892,note_on,,20,0,2,,,,,,,,,1,,,45,0
22894,note_on,,10,0,1,,,,,,,,,0,,,69,0
22894,note_on,,10,0,4,,,,,,,,,3,,,69,0
22894,note_on,,10,0,3,,,,,,,,,2,,,76,0
22896,note_on,,2,0,4,,,,,,,,,3,,,74,95
22896,note_on,,2,0,3,,,,,,,,,2,,,78,95
22896,note_on,,2,0,1,,,,,,,,,0,,,62,79
22906,note_on,,10,0,1,,,,,,,,,0,,,62,0
22908,note_on,,16,0,2,,,,,,,,,1,,,59,79
22908,note_on,,2,0,1,,,,,,,,,0,,,74,79
22917,note_on,,21,0,3,,,,,,,,,2,,,78,0
22918,note_on,,10,0,1,,,,,,,,,0,,,74,0
22918,note_on,,10,0,2,,,,,,,,,1,,,59,0
22920,note_on,,2,0,1,,,,,,,,,0,,,73,79
22920,note_on,,3,0,3,,,,,,,,,2,,,79,95
22920,note_on,,2,0,2,,,,,,,,,1,,,57,79
22925,note_on,,5,0,3,,,,,,,,,2,,,79,0
22926,note_on,,1,0,3,,,,,,,,,2,,,81,95
22930,note_on,,10,0,2,,,,,,,,,1,,,57,0
22930,note_on,,10,0,1,,,,,,,,,0,,,73,0
22931,note_on,,5,0,3,,,,,,,,,2,,,81,0
22932,note_on,,1,0,3,,,,,,,,,2,,,79,95
22932,note_on,,2,0,1,,,,,,,,,0,,,71,79
22932,note_on,,2,0,2,,,,,,,,,1,,,55,79
22937,note_on,,5,0,3,,,,,,,,,2,,,79,0
22938,note_on,,1,0,3,,,,,,,,,2,,,81,95
22942,note_on,,10,0,2,,,,,,,,,1,,,55,0
22942,note_on,,10,0,1,,,,,,,,,0,,,71,0
22943,note_on,,5,0,3,,,,,,,,,2,,,81,0
22944,note_on,,2,0,2,,,,,,,,,1,,,54,79
22944,note_on,,1,0,3,,,,,,,,,2,,,81,95
22944,note_on,,2,0,1,,,,,,,,,0,,,69,79
22954,note_on,,10,0,1,,,,,,,,,0,,,69,0
22956,note_on,,2,0,1,,,,,,,,,0,,,67,79
22956,note_on,,60,0,4,,,,,,,,,3,,,74,0
22964,note_on,,20,0,2,,,,,,,,,1,,,54,0
22965,note_on,,21,0,3,,,,,,,,,2,,,81,0
22966,note_on,,10,0,1,,,,,,,,,0,,,67,0
22968,note_on,,4,0,2,,,,,,,,,1,,,55,79
22968,note_on,,3,0,3,,,,,,,,,2,,,83,95
22968,note_on,,2,0,1,,,,,,,,,0,,,66,79
22978,note_on,,10,0,1,,,,,,,,,0,,,66,0
22980,note_on,,2,0,1,,,,,,,,,0,,,69,79
22980,note_on,,24,0,4,,,,,,,,,3,,,76,95
22988,note_on,,20,0,2,,,,,,,,,1,,,55,0
22989,note_on,,21,0,3,,,,,,,,,2,,,83,0
22990,note_on,,10,0,4,,,,,,,,,3,,,76,0
22990,note_on,,10,0,1,,,,,,,,,0,,,69,0
22992,note_on,,3,0,3,,,,,,,,,2,,,76,95
22992,note_on,,4,0,2,,,,,,,,,1,,,57,79
22992,note_on,,2,0,4,,,,,,,,,3,,,73,95
22992,note_on,,2,0,1,,,,,,,,,0,,,67,79
22997,note_on,,5,0,4,,,,,,,,,3,,,73,0
22998,note_on,,1,0,4,,,,,,,,,3,,,74,95
23002,note_on,,10,0,1,,,,,,,,,0,,,67,0
23003,note_on,,5,0,4,,,,,,,,,3,,,74,0
23004,note_on,,1,0,4,,,,,,,,,3,,,73,95
23004,note_on,,2,0,1,,,,,,,,,0,,,66,79
23009,note_on,,5,0,4,,,,,,,,,3,,,73,0
23010,note_on,,1,0,4,,,,,,,,,3,,,74,95
23012,note_on,,20,0,2,,,,,,,,,1,,,57,0
23014,note_on,,10,0,1,,,,,,,,,0,,,66,0
23015,note_on,,5,0,4,,,,,,,,,3,,,74,0
23016,note_on,,1,0,4,,,,,,,,,3,,,73,95
23016,note_on,,4,0,2,,,,,,,,,1,,,45,79
23016,note_on,,2,0,1,,,,,,,,,0,,,64,79
23021,note_on,,5,0,4,,,,,,,,,3,,,73,0
23022,note_on,,1,0,4,,,,,,,,,3,,,74,95
23023,note_on,,31,0,3,,,,,,,,,2,,,76,0
23026,note_on,,10,0,1,,,,,,,,,0,,,64,0
23027,note_on,,5,0,4,,,,,,,,,3,,,74,0
23028,note_on,,5,0,3,,,,,,,,,2,,,74,95
23028,note_on,,2,0,1,,,,,,,,,0,,,67,79
23028,note_on,,1,0,4,,,,,,,,,3,,,74,95
23036,note_on,,20,0,2,,,,,,,,,1,,,45,0
23038,note_on,,10,0,1,,,,,,,,,0,,,67,0
23038,note_on,,10,0,3,,,,,,,,,2,,,74,0
23038,note_on,,10,0,4,,,,,,,,,3,,,74,0
23040,note_on,,2,0,4,,,,,,,,,3,,,74,95
23040,note_on,,4,0,2,,,,,,,,,1,,,50,79
23040,note_on,,1112,0,8,,,,,,,,,7,,,38,95
23040,note_on,,1110,0,6,,,,,,,,,5,,,66,95
23040,note_on,,2,0,3,,,,,,,,,2,,,74,95
23040,note_on,,1108,0,5,,,,,,,,,4,,,62,95
23040,note_on,,2,0,1,,,,,,,,,0,,,66,79
23040,note_on,,1112,0,7,,,,,,,,,6,,,50,95
23050,note_on,,10,0,5,,,,,,,,,4,,,62,0
23050,note_on,,10,0,4,,,,,,,,,3,,,74,0
23052,note_on,,2,0,4,,,,,,,,,3,,,62,95
23052,note_on,,2,0,5,,,,,,,,,4,,,62,95
23060,note_on,,20,0,1,,,,,,,,,0,,,66,0
23062,note_on,,10,0,5,,,,,,,,,4,,,62,0
23062,note_on,,10,0,4,,,,,,,,,3,,,62,0
23064,note_on,,2,0,5,,,,,,,,,4,,,66,95
23064,note_on,,4,0,1,,,,,,,,,0,,,62,79
23064,note_on,,2,0,4,,,,,,,,,3,,,66,95
23074,note_on,,10,0,5,,,,,,,,,4,,,66,0
23074,note_on,,10,0,4,,,,,,,,,3,,,66,0
23076,note_on,,2,0,5,,,,,,,,,4,,,66,95
23076,note_on,,2,0,4,,,,,,,,,3,,,66,95
23080,note_on,,40,0,7,,,,,,,,,6,,,50,0
23080,note_on,,40,0,2,,,,,,,,,1,,,50,0
23080,note_on,,40,0,8,,,,,,,,,7,,,38,0
23082,note_on,,42,0,3,,,,,,,,,2,,,74,0
23082,note_on,,42,0,6,,,,,,,,,5,,,66,0
23084,note_on,,20,0,1,,,,,,,,,0,,,62,0
23086,note_on,,10,0,4,,,,,,,,,3,,,66,0
23086,note_on,,10,0,5,,,,,,,,,4,,,66,0
23088,note_on,,2,0,5,,,,,,,,,4,,,69,95
23088,note_on,,2,0,4,,,,,,,,,3,,,69,95
23098,note_on,,10,0,4,,,,,,,,,3,,,69,0
23098,note_on,,10,0,5,,,,,,,,,4,,,69,0
23100,note_on,,2,0,5,,,,,,,,,4,,,69,95
23100,note_on,,2,0,4,,,,,,,,,3,,,69,95
23110,note_on,,10,0,5,,,,,,,,,4,,,69,0
23110,note_on,,10,0,4,,,,,,,,,3,,,69,0
23112,note_on,,32,0,2,,,,,,,,,1,,,50,79
23112,note_on,,2,0,5,,,,,,,,,4,,,74,95
23112,note_on,,30,0,6,,,,,,,,,5,,,66,95
23112,note_on,,32,0,8,,,,,,,,,7,,,38,95
23112,note_on,,32,0,7,,,,,,,,,6,,,50,95
23112,note_on,,2,0,4,,,,,,,,,3,,,74,95
23122,note_on,,10,0,4,,,,,,,,,3,,,74,0
23122,note_on,,10,0,5,,,,,,,,,4,,,74,0
23124,note_on,,2,0,4,,,,,,,,,3,,,74,95
23124,note_on,,2,0,5,,,,,,,,,4,,,74,95
23132,note_on,,20,0,8,,,,,,,,,7,,,38,0
23132,note_on,,20,0,2,,,,,,,,,1,,,50,0
23132,note_on,,20,0,7,,,,,,,,,6,,,50,0
23133,note_on,,21,0,6,,,,,,,,,5,,,66,0
23134,note_on,,10,0,5,,,,,,,,,4,,,74,0
23134,note_on,,10,0,4,,,,,,,,,3,,,74,0
23136,note_on,,3,0,6,,,,,,,,,5,,,64,95
23136,note_on,,4,0,2,,,,,,,,,1,,,57,79
23136,note_on,,2,0,5,,,,,,,,,4,,,73,95
23136,note_on,,2,0,4,,,,,,,,,3,,,73,95
23136,note_on,,4,0,8,,,,,,,,,7,,,45,95
23136,note_on,,4,0,7,,,,,,,,,6,,,57,95
23146,note_on,,10,0,5,,,,,,,,,4,,,73,0
23146,note_on,,10,0,4,,,,,,,,,3,,,73,0
23148,note_on,,2,0,4,,,,,,,,,3,,,74,95
23148,note_on,,2,0,5,,,,,,,,,4,,,74,95
23156,note_on,,20,0,2,,,,,,,,,1,,,57,0
23156,note_on,,20,0,7,,,,,,,,,6,,,57,0
23156,note_on,,20,0,8,,,,,,,,,7,,,45,0
23157,note_on,,21,0,6,,,,,,,,,5,,,64,0
23158,note_on,,10,0,4,,,,,,,,,3,,,74,0
23158,note_on,,10,0,5,,,,,,,,,4,,,74,0
23160,note_on,,3,0,6,,,,,,,,,5,,,62,95
23160,note_on,,2,0,5,,,,,,,,,4,,,73,95
23160,note_on,,4,0,2,,,,,,,,,1,,,59,79
23160,note_on,,2,0,4,,,,,,,,,3,,,73,95
23160,note_on,,4,0,8,,,,,,,,,7,,,47,95
23160,note_on,,4,0,7,,,,,,,,,6,,,59,95
23170,note_on,,10,0,4,,,,,,,,,3,,,73,0
23170,note_on,,10,0,5,,,,,,,,,4,,,73,0
23172,note_on,,2,0,4,,,,,,,,,3,,,71,95
23172,note_on,,2,0,5,,,,,,,,,4,,,71,95
23180,note_on,,20,0,7,,,,,,,,,6,,,59,0
23180,note_on,,20,0,8,,,,,,,,,7,,,47,0
23180,note_on,,20,0,2,,,,,,,,,1,,,59,0
23181,note_on,,21,0,6,,,,,,,,,5,,,62,0
23182,note_on,,10,0,5,,,,,,,,,4,,,71,0
23182,note_on,,10,0,4,,,,,,,,,3,,,71,0
23184,note_on,,4,0,8,,,,,,,,,7,,,49,95
23184,note_on,,4,0,2,,,,,,,,,1,,,61,79
23184,note_on,,3,0,6,,,,,,,,,5,,,64,95
23184,note_on,,2,0,5,,,,,,,,,4,,,69,95
23184,note_on,,4,0,7,,,,,,,,,6,,,61,95
23184,note_on,,2,0,4,,,,,,,,,3,,,69,95
23194,note_on,,10,0,5,,,,,,,,,4,,,69,0
23194,note_on,,10,0,4,,,,,,,,,3,,,69,0
23196,note_on,,2,0,5,,,,,,,,,4,,,67,95
23196,note_on,,2,0,4,,,,,,,,,3,,,67,95
23204,note_on,,20,0,2,,,,,,,,,1,,,61,0
23204,note_on,,20,0,8,,,,,,,,,7,,,49,0
23204,note_on,,20,0,7,,,,,,,,,6,,,61,0
23205,note_on,,21,0,6,,,,,,,,,5,,,64,0
23206,note_on,,10,0,4,,,,,,,,,3,,,67,0
23206,note_on,,10,0,5,,,,,,,,,4,,,67,0
23208,note_on,,2,0,4,,,,,,,,,3,,,66,95
23208,note_on,,4,0,2,,,,,,,,,1,,,57,79
23208,note_on,,4,0,7,,,,,,,,,6,,,57,95
23208,note_on,,4,0,8,,,,,,,,,7,,,45,95
23208,note_on,,2,0,5,,,,,,,,,4,,,66,95
23208,note_on,,3,0,6,,,,,,,,,5,,,61,95
23218,note_on,,10,0,5,,,,,,,,,4,,,66,0
23218,note_on,,10,0,4,,,,,,,,,3,,,66,0
23220,note_on,,2,0,4,,,,,,,,,3,,,64,95
23220,note_on,,2,0,5,,,,,,,,,4,,,64,95
23228,note_on,,20,0,2,,,,,,,,,1,,,57,0
23228,note_on,,20,0,7,,,,,,,,,6,,,57,0
23228,note_on,,20,0,8,,,,,,,,,7,,,45,0
23229,note_on,,21,0,6,,,,,,,,,5,,,61,0
23230,note_on,,10,0,5,,,,,,,,,4,,,64,0
23230,note_on,,10,0,4,,,,,,,,,3,,,64,0
23232,note_on,,4,0,8,,,,,,,,,7,,,42,95
23232,note_on,,2,0,4,,,,,,,,,3,,,62,95
23232,note_on,,4,0,2,,,,,,,,,1,,,54,79
23232,note_on,,2,0,5,,,,,,,,,4,,,62,95
23232,note_on,,3,0,6,,,,,,,,,5,,,57,95
23232,note_on,,4,0,7,,,,,,,,,6,,,54,95
23242,note_on,,10,0,4,,,,,,,,,3,,,62,0
23242,note_on,,10,0,5,,,,,,,,,4,,,62,0
23244,note_on,,2,0,4,,,,,,,,,3,,,62,95
23244,note_on,,2,0,5,,,,,,,,,4,,,62,95
23252,note_on,,20,0,6,,,,,,,,,5,,,57,0
23252,note_on,,20,0,2,,,,,,,,,1,,,54,0
23252,note_on,,20,0,8,,,,,,,,,7,,,42,0
23252,note_on,,20,0,7,,,,,,,,,6,,,54,0
23254,note_on,,10,0,4,,,,,,,,,3,,,62,0
23254,note_on,,10,0,5,,,,,,,,,4,,,62,0
23256,note_on,,4,0,2,,,,,,,,,1,,,52,79
23256,note_on,,2,0,5,,,,,,,,,4,,,66,95
23256,note_on,,4,0,6,,,,,,,,,5,,,69,95
23256,note_on,,2,0,4,,,,,,,,,3,,,66,95
23256,note_on,,4,0,7,,,,,,,,,6,,,52,95
23256,note_on,,4,0,8,,,,,,,,,7,,,40,95
23266,note_on,,10,0,5,,,,,,,,,4,,,66,0
23266,note_on,,10,0,4,,,,,,,,,3,,,66,0
23268,note_on,,2,0,5,,,,,,,,,4,,,66,95
23268,note_on,,2,0,4,,,,,,,,,3,,,66,95
23276,note_on,,20,0,7,,,,,,,,,6,,,52,0
23276,note_on,,20,0,2,,,,,,,,,1,,,52,0
23276,note_on,,20,0,6,,,,,,,,,5,,,69,0
23276,note_on,,20,0,8,,,,,,,,,7,,,40,0
23278,note_on,,10,0,4,,,,,,,,,3,,,66,0
23278,note_on,,10,0,5,,,,,,,,,4,,,66,0
23280,note_on,,4,0,6,,,,,,,,,5,,,62,95
23280,note_on,,4,0,2,,,,,,,,,1,,,54,79
23280,note_on,,2,0,5,,,,,,,,,4,,,69,95
23280,note_on,,2,0,4,,,,,,,,,3,,,69,95
23280,note_on,,4,0,8,,,,,,,,,7,,,42,95
23280,note_on,,4,0,7,,,,,,,,,6,,,54,95
23290,note_on,,10,0,4,,,,,,,,,3,,,69,0
23290,note_on,,10,0,5,,,,,,,,,4,,,69,0
23292,note_on,,2,0,4,,,,,,,,,3,,,69,95
23292,note_on,,2,0,5,,,,,,,,,4,,,69,95
23300,note_on,,20,0,6,,,,,,,,,5,,,62,0
23300,note_on,,20,0,2,,,,,,,,,1,,,54,0
23300,note_on,,20,0,8,,,,,,,,,7,,,42,0
23300,note_on,,20,0,7,,,,,,,,,6,,,54,0
23302,note_on,,10,0,4,,,,,,,,,3,,,69,0
23302,note_on,,10,0,5,,,,,,,,,4,,,69,0
23304,note_on,,2,0,4,,,,,,,,,3,,,74,95
23304,note_on,,4,0,8,,,,,,,,,7,,,38,95
23304,note_on,,4,0,6,,,,,,,,,5,,,66,95
23304,note_on,,2,0,5,,,,,,,,,4,,,74,95
23304,note_on,,4,0,7,,,,,,,,,6,,,50,95
23304,note_on,,4,0,2,,,,,,,,,1,,,50,79
23314,note_on,,10,0,4,,,,,,,,,3,,,74,0
23314,note_on,,10,0,5,,,,,,,,,4,,,74,0
23316,note_on,,2,0,5,,,,,,,,,4,,,74,95
23316,note_on,,2,0,4,,,,,,,,,3,,,74,95
23324,note_on,,20,0,7,,,,,,,,,6,,,50,0
23324,note_on,,20,0,2,,,,,,,,,1,,,50,0
23324,note_on,,20,0,8,,,,,,,,,7,,,38,0
23324,note_on,,20,0,6,,,,,,,,,5,,,66,0
23326,note_on,,10,0,5,,,,,,,,,4,,,74,0
23326,note_on,,10,0,4,,,,,,,,,3,,,74,0
23328,note_on,,4,0,6,,,,,,,,,5,,,61,95
23328,note_on,,4,0,2,,,,,,,,,1,,,57,79
23328,note_on,,2,0,4,,,,,,,,,3,,,76,95
23328,note_on,,4,0,7,,,,,,,,,6,,,57,95
23328,note_on,,2,0,5,,,,,,,,,4,,,76,95
23328,note_on,,4,0,8,,,,,,,,,7,,,45,95
23348,note_on,,20,0,4,,,,,,,,,3,,,76,0
23348,note_on,,20,0,7,,,,,,,,,6,,,57,0
23348,note_on,,20,0,6,,,,,,,,,5,,,61,0
23348,note_on,,20,0,2,,,,,,,,,1,,,57,0
23348,note_on,,20,0,5,,,,,,,,,4,,,76,0
23348,note_on,,20,0,8,,,,,,,,,7,,,45,0
23352,note_on,,4,0,8,,,,,,,,,7,,,47,95
23352,note_on,,4,0,6,,,,,,,,,5,,,62,95
23352,note_on,,4,0,7,,,,,,,,,6,,,59,95
23352,note_on,,4,0,5,,,,,,,,,4,,,69,95
23352,note_on,,4,0,4,,,,,,,,,3,,,69,95
23352,note_on,,4,0,2,,,,,,,,,1,,,59,79
23372,note_on,,20,0,7,,,,,,,,,6,,,59,0
23372,note_on,,20,0,8,,,,,,,,,7,,,47,0
23372,note_on,,20,0,5,,,,,,,,,4,,,69,0
23372,note_on,,20,0,2,,,,,,,,,1,,,59,0
23372,note_on,,20,0,6,,,,,,,,,5,,,62,0
23372,note_on,,20,0,4,,,,,,,,,3,,,69,0
23376,note_on,,4,0,8,,,,,,,,,7,,,49,95
23376,note_on,,4,0,6,,,,,,,,,5,,,64,95
23376,note_on,,4,0,2,,,,,,,,,1,,,61,79
23376,note_on,,4,0,7,,,,,,,,,6,,,61,95
23396,note_on,,20,0,8,,,,,,,,,7,,,49,0
23396,note_on,,20,0,2,,,,,,,,,1,,,61,0
23396,note_on,,20,0,7,,,,,,,,,6,,,61,0
23396,note_on,,20,0,6,,,,,,,,,5,,,64,0
23400,note_on,,28,0,5,,,,,,,,,4,,,76,95
23400,note_on,,4,0,8,,,,,,,,,7,,,45,95
23400,note_on,,4,0,7,,,,,,,,,6,,,57,95
23400,note_on,,4,0,2,,,,,,,,,1,,,57,79
23400,note_on,,4,0,6,,,,,,,,,5,,,61,95
23400,note_on,,28,0,4,,,,,,,,,3,,,76,95
23420,note_on,,20,0,7,,,,,,,,,6,,,57,0
23420,note_on,,20,0,5,,,,,,,,,4,,,76,0
23420,note_on,,20,0,6,,,,,,,,,5,,,61,0
23420,note_on,,20,0,2,,,,,,,,,1,,,57,0
23420,note_on,,20,0,8,,,,,,,,,7,,,45,0
23420,note_on,,20,0,4,,,,,,,,,3,,,76,0
23424,note_on,,4,0,4,,,,,,,,,3,,,78,95
23424,note_on,,4,0,2,,,,,,,,,1,,,62,79
23424,note_on,,4,0,8,,,,,,,,,7,,,50,95
23424,note_on,,4,0,6,,,,,,,,,5,,,62,95
23424,note_on,,4,0,5,,,,,,,,,4,,,78,95
23424,note_on,,4,0,7,,,,,,,,,6,,,62,95
23434,note_on,,10,0,4,,,,,,,,,3,,,78,0
23434,note_on,,10,0,5,,,,,,,,,4,,,78,0
23436,note_on,,2,0,4,,,,,,,,,3,,,78,95
23436,note_on,,2,0,5,,,,,,,,,4,,,78,95
23444,note_on,,20,0,2,,,,,,,,,1,,,62,0
23444,note_on,,20,0,8,,,,,,,,,7,,,50,0
23444,note_on,,20,0,6,,,,,,,,,5,,,62,0
23444,note_on,,20,0,7,,,,,,,,,6,,,62,0
23446,note_on,,10,0,5,,,,,,,,,4,,,78,0
23446,note_on,,10,0,4,,,,,,,,,3,,,78,0
23448,note_on,,4,0,7,,,,,,,,,6,,,61,95
23448,note_on,,2,0,4,,,,,,,,,3,,,76,95
23448,note_on,,4,0,2,,,,,,,,,1,,,61,79
23448,note_on,,4,0,8,,,,,,,,,7,,,49,95
23448,note_on,,4,0,6,,,,,,,,,5,,,69,95
23448,note_on,,2,0,5,,,,,,,,,4,,,76,95
23458,note_on,,10,0,4,,,,,,,,,3,,,76,0
23458,note_on,,10,0,5,,,,,,,,,4,,,76,0
23460,note_on,,2,0,4,,,,,,,,,3,,,76,95
23460,note_on,,2,0,5,,,,,,,,,4,,,76,95
23468,note_on,,20,0,6,,,,,,,,,5,,,69,0
23468,note_on,,20,0,2,,,,,,,,,1,,,61,0
23468,note_on,,20,0,8,,,,,,,,,7,,,49,0
23468,note_on,,20,0,7,,,,,,,,,6,,,61,0
23470,note_on,,10,0,4,,,,,,,,,3,,,76,0
23470,note_on,,10,0,5,,,,,,,,,4,,,76,0
23472,note_on,,2,0,4,,,,,,,,,3,,,79,95
23472,note_on,,4,0,2,,,,,,,,,1,,,59,79
23472,note_on,,2,0,5,,,,,,,,,4,,,79,95
23472,note_on,,4,0,8,,,,,,,,,7,,,47,95
23472,note_on,,4,0,6,,,,,,,,,5,,,74,95
23472,note_on,,4,0,7,,,,,,,,,6,,,59,95
23482,note_on,,10,0,5,,,,,,,,,4,,,79,0
23482,note_on,,10,0,4,,,,,,,,,3,,,79,0
23484,note_on,,2,0,4,,,,,,,,,3,,,79,95
23484,note_on,,2,0,5,,,,,,,,,4,,,79,95
23492,note_on,,20,0,8,,,,,,,,,7,,,47,0
23492,note_on,,20,0,7,,,,,,,,,6,,,59,0
23492,note_on,,20,0,2,,,,,,,,,1,,,59,0
23492,note_on,,20,0,6,,,,,,,,,5,,,74,0
23494,note_on,,10,0,4,,,,,,,,,3,,,79,0
23494,note_on,,10,0,5,,,,,,,,,4,,,79,0
23496,note_on,,4,0,8,,,,,,,,,7,,,45,95
23496,note_on,,4,0,6,,,,,,,,,5,,,73,95
23496,note_on,,4,0,2,,,,,,,,,1,,,57,79
23496,note_on,,2,0,4,,,,,,,,,3,,,78,95
23496,note_on,,4,0,7,,,,,,,,,6,,,57,95
23496,note_on,,2,0,5,,,,,,,,,4,,,78,95
23506,note_on,,10,0,4,,,,,,,,,3,,,78,0
23506,note_on,,10,0,5,,,,,,,,,4,,,78,0
23508,note_on,,2,0,5,,,,,,,,,4,,,78,95
23508,note_on,,2,0,4,,,,,,,,,3,,,78,95
23516,note_on,,20,0,6,,,,,,,,,5,,,73,0
23516,note_on,,20,0,8,,,,,,,,,7,,,45,0
23516,note_on,,20,0,2,,,,,,,,,1,,,57,0
23516,note_on,,20,0,7,,,,,,,,,6,,,57,0
23518,note_on,,10,0,4,,,,,,,,,3,,,78,0
23518,note_on,,10,0,5,,,,,,,,,4,,,78,0
23520,note_on,,2,0,4,,,,,,,,,3,,,83,95
23520,note_on,,4,0,8,,,,,,,,,7,,,43,95
23520,note_on,,4,0,7,,,,,,,,,6,,,55,95
23520,note_on,,4,0,6,,,,,,,,,5,,,74,95
23520,note_on,,4,0,2,,,,,,,,,1,,,55,79
23520,note_on,,2,0,5,,,,,,,,,4,,,83,95
23530,note_on,,10,0,5,,,,,,,,,4,,,83,0
23530,note_on,,10,0,4,,,,,,,,,3,,,83,0
23532,note_on,,2,0,5,,,,,,,,,4,,,83,95
23532,note_on,,2,0,4,,,,,,,,,3,,,83,95
23540,note_on,,20,0,8,,,,,,,,,7,,,43,0
23540,note_on,,20,0,2,,,,,,,,,1,,,55,0
23540,note_on,,20,0,6,,,,,,,,,5,,,74,0
23540,note_on,,20,0,7,,,,,,,,,6,,,55,0
23542,note_on,,10,0,5,,,,,,,,,4,,,83,0
23542,note_on,,10,0,4,,,,,,,,,3,,,83,0
23544,note_on,,2,0,5,,,,,,,,,4,,,81,95
23544,note_on,,4,0,7,,,,,,,,,6,,,54,95
23544,note_on,,4,0,6,,,,,,,,,5,,,62,95
23544,note_on,,2,0,4,,,,,,,,,3,,,81,95
23544,note_on,,4,0,2,,,,,,,,,1,,,54,79
23544,note_on,,4,0,8,,,,,,,,,7,,,42,95
23554,note_on,,10,0,4,,,,,,,,,3,,,81,0
23554,note_on,,10,0,5,,,,,,,,,4,,,81,0
23556,note_on,,2,0,5,,,,,,,,,4,,,81,95
23556,note_on,,2,0,4,,,,,,,,,3,,,81,95
23564,note_on,,20,0,7,,,,,,,,,6,,,54,0
23564,note_on,,20,0,6,,,,,,,,,5,,,62,0
23564,note_on,,20,0,8,,,,,,,,,7,,,42,0
23564,note_on,,20,0,2,,,,,,,,,1,,,54,0
23566,note_on,,10,0,5,,,,,,,,,4,,,81,0
23566,note_on,,10,0,4,,,,,,,,,3,,,81,0
23568,note_on,,4,0,7,,,,,,,,,6,,,52,95
23568,note_on,,2,0,5,,,,,,,,,4,,,73,95
23568,note_on,,4,0,6,,,,,,,,,5,,,67,95
23568,note_on,,2,0,4,,,,,,,,,3,,,73,95
23568,note_on,,4,0,2,,,,,,,,,1,,,52,79
23568,note_on,,4,0,8,,,,,,,,,7,,,40,95
23578,note_on,,10,0,4,,,,,,,,,3,,,73,0
23578,note_on,,10,0,5,,,,,,,,,4,,,73,0
23580,note_on,,2,0,5,,,,,,,,,4,,,73,95
23580,note_on,,2,0,4,,,,,,,,,3,,,73,95
23588,note_on,,20,0,2,,,,,,,,,1,,,52,0
23588,note_on,,20,0,6,,,,,,,,,5,,,67,0
23588,note_on,,20,0,8,,,,,,,,,7,,,40,0
23588,note_on,,20,0,7,,,,,,,,,6,,,52,0
23590,note_on,,10,0,4,,,,,,,,,3,,,73,0
23590,note_on,,10,0,5,,,,,,,,,4,,,73,0
23592,note_on,,4,0,6,,,,,,,,,5,,,66,95
23592,note_on,,2,0,4,,,,,,,,,3,,,74,95
23592,note_on,,4,0,8,,,,,,,,,7,,,38,95
23592,note_on,,2,0,5,,,,,,,,,4,,,74,95
23592,note_on,,4,0,7,,,,,,,,,6,,,50,95
23592,note_on,,4,0,2,,,,,,,,,1,,,50,79
23602,note_on,,10,0,4,,,,,,,,,3,,,74,0
23602,note_on,,10,0,5,,,,,,,,,4,,,74,0
23604,note_on,,2,0,4,,,,,,,,,3,,,74,95
23604,note_on,,2,0,5,,,,,,,,,4,,,74,95
23612,note_on,,20,0,8,,,,,,,,,7,,,38,0
23612,note_on,,20,0,2,,,,,,,,,1,,,50,0
23612,note_on,,20,0,6,,,,,,,,,5,,,66,0
23612,note_on,,20,0,7,,,,,,,,,6,,,50,0
23614,note_on,,10,0,5,,,,,,,,,4,,,74,0
23614,note_on,,10,0,4,,,,,,,,,3,,,74,0
23616,note_on,,4,0,8,,,,,,,,,7,,,37,95
23616,note_on,,2,0,5,,,,,,,,,4,,,67,95
23616,note_on,,2,0,4,,,,,,,,,3,,,67,95
23616,note_on,,4,0,2,,,,,,,,,1,,,49,79
23616,note_on,,4,0,6,,,,,,,,,5,,,64,95
23616,note_on,,4,0,7,,,,,,,,,6,,,49,95
23626,note_on,,10,0,5,,,,,,,,,4,,,67,0
23626,note_on,,10,0,4,,,,,,,,,3,,,67,0
23628,note_on,,2,0,5,,,,,,,,,4,,,67,95
23628,note_on,,2,0,4,,,,,,,,,3,,,67,95
23636,note_on,,20,0,8,,,,,,,,,7,,,37,0
23636,note_on,,20,0,6,,,,,,,,,5,,,64,0
23636,note_on,,20,0,7,,,,,,,,,6,,,49,0
23636,note_on,,20,0,2,,,,,,,,,1,,,49,0
23638,note_on,,10,0,4,,,,,,,,,3,,,67,0
23638,note_on,,10,0,5,,,,,,,,,4,,,67,0
23640,note_on,,4,0,2,,,,,,,,,1,,,50,79
23640,note_on,,4,0,6,,,,,,,,,5,,,62,95
23640,note_on,,4,0,7,,,,,,,,,6,,,50,95
23640,note_on,,4,0,8,,,,,,,,,7,,,38,95
23640,note_on,,2,0,5,,,,,,,,,4,,,66,95
23640,note_on,,2,0,4,,,,,,,,,3,,,66,95
23650,note_on,,10,0,4,,,,,,,,,3,,,66,0
23650,note_on,,10,0,5,,,,,,,,,4,,,66,0
23652,note_on,,2,0,4,,,,,,,,,3,,,66,95
23652,note_on,,2,0,5,,,,,,,,,4,,,66,95
23660,note_on,,20,0,2,,,,,,,,,1,,,50,0
23660,note_on,,20,0,8,,,,,,,,,7,,,38,0
23660,note_on,,20,0,7,,,,,,,,,6,,,50,0
23660,note_on,,20,0,6,,,,,,,,,5,,,62,0
23662,note_on,,10,0,5,,,,,,,,,4,,,66,0
23662,note_on,,10,0,4,,,,,,,,,3,,,66,0
23664,note_on,,4,0,8,,,,,,,,,7,,,43,95
23664,note_on,,2,0,5,,,,,,,,,4,,,71,95
23664,note_on,,2,0,4,,,,,,,,,3,,,71,95
23664,note_on,,4,0,2,,,,,,,,,1,,,43,79
23664,note_on,,4,0,6,,,,,,,,,5,,,62,95
23664,note_on,,4,0,7,,,,,,,,,6,,,43,95
23674,note_on,,10,0,5,,,,,,,,,4,,,71,0
23674,note_on,,10,0,4,,,,,,,,,3,,,71,0
23676,note_on,,2,0,5,,,,,,,,,4,,,71,95
23676,note_on,,2,0,4,,,,,,,,,3,,,71,95
23684,note_on,,20,0,8,,,,,,,,,7,,,43,0
23684,note_on,,20,0,7,,,,,,,,,6,,,43,0
23684,note_on,,20,0,6,,,,,,,,,5,,,62,0
23684,note_on,,20,0,2,,,,,,,,,1,,,43,0
23686,note_on,,10,0,4,,,,,,,,,3,,,71,0
23686,note_on,,10,0,5,,,,,,,,,4,,,71,0
23688,note_on,,2,0,4,,,,,,,,,3,,,69,95
23688,note_on,,2,0,5,,,,,,,,,4,,,69,95
23688,note_on,,4,0,6,,,,,,,,,5,,,62,95
23688,note_on,,4,0,2,,,,,,,,,1,,,42,79
23688,note_on,,4,0,7,,,,,,,,,6,,,42,95
23688,note_on,,4,0,8,,,,,,,,,7,,,42,95
23698,note_on,,10,0,5,,,,,,,,,4,,,69,0
23698,note_on,,10,0,4,,,,,,,,,3,,,69,0
23700,note_on,,2,0,5,,,,,,,,,4,,,69,95
23700,note_on,,2,0,4,,,,,,,,,3,,,69,95
23708,note_on,,20,0,7,,,,,,,,,6,,,42,0
23708,note_on,,20,0,6,,,,,,,,,5,,,62,0
23708,note_on,,20,0,8,,,,,,,,,7,,,42,0
23708,note_on,,20,0,2,,,,,,,,,1,,,42,0
23710,note_on,,10,0,5,,,,,,,,,4,,,69,0
23710,note_on,,10,0,4,,,,,,,,,3,,,69,0
23712,note_on,,4,0,8,,,,,,,,,7,,,40,95
23712,note_on,,2,0,5,,,,,,,,,4,,,61,95
23712,note_on,,4,0,2,,,,,,,,,1,,,40,79
23712,note_on,,4,0,6,,,,,,,,,5,,,67,95
23712,note_on,,4,0,7,,,,,,,,,6,,,40,95
23712,note_on,,2,0,4,,,,,,,,,3,,,61,95
23722,note_on,,10,0,4,,,,,,,,,3,,,61,0
23722,note_on,,10,0,5,,,,,,,,,4,,,61,0
23724,note_on,,2,0,4,,,,,,,,,3,,,61,95
23724,note_on,,2,0,5,,,,,,,,,4,,,61,95
23732,note_on,,20,0,8,,,,,,,,,7,,,40,0
23732,note_on,,20,0,6,,,,,,,,,5,,,67,0
23732,note_on,,20,0,7,,,,,,,,,6,,,40,0
23732,note_on,,20,0,2,,,,,,,,,1,,,40,0
23734,note_on,,10,0,5,,,,,,,,,4,,,61,0
23734,note_on,,10,0,4,,,,,,,,,3,,,61,0
23736,note_on,,2,0,4,,,,,,,,,3,,,62,95
23736,note_on,,4,0,7,,,,,,,,,6,,,38,95
23736,note_on,,4,0,6,,,,,,,,,5,,,66,95
23736,note_on,,2,0,5,,,,,,,,,4,,,62,95
23736,note_on,,4,0,2,,,,,,,,,1,,,38,79
23736,note_on,,4,0,8,,,,,,,,,7,,,38,95
23746,note_on,,10,0,4,,,,,,,,,3,,,62,0
23746,note_on,,10,0,5,,,,,,,,,4,,,62,0
23748,note_on,,2,0,4,,,,,,,,,3,,,62,95
23748,note_on,,2,0,5,,,,,,,,,4,,,62,95
23756,note_on,,20,0,2,,,,,,,,,1,,,38,0
23756,note_on,,20,0,7,,,,,,,,,6,,,38,0
23756,note_on,,20,0,6,,,,,,,,,5,,,66,0
23756,note_on,,20,0,8,,,,,,,,,7,,,38,0
23758,note_on,,10,0,5,,,,,,,,,4,,,62,0
23758,note_on,,10,0,4,,,,,,,,,3,,,62,0
23760,note_on,,2,0,5,,,,,,,,,4,,,57,95
23760,note_on,,4,0,8,,,,,,,,,7,,,37,95
23760,note_on,,4,0,6,,,,,,,,,5,,,64,95
23760,note_on,,4,0,2,,,,,,,,,1,,,37,79
23760,note_on,,2,0,4,,,,,,,,,3,,,57,95
23760,note_on,,4,0,7,,,,,,,,,6,,,37,95
23770,note_on,,10,0,5,,,,,,,,,4,,,57,0
23770,note_on,,10,0,4,,,,,,,,,3,,,57,0
23772,note_on,,2,0,4,,,,,,,,,3,,,57,95
23772,note_on,,2,0,5,,,,,,,,,4,,,57,95
23780,note_on,,20,0,8,,,,,,,,,7,,,37,0
23780,note_on,,20,0,2,,,,,,,,,1,,,37,0
23780,note_on,,20,0,6,,,,,,,,,5,,,64,0
23780,note_on,,20,0,7,,,,,,,,,6,,,37,0
23782,note_on,,10,0,4,,,,,,,,,3,,,57,0
23782,note_on,,10,0,5,,,,,,,,,4,,,57,0
23784,note_on,,4,0,8,,,,,,,,,7,,,33,95
23784,note_on,,4,0,2,,,,,,,,,1,,,49,79
23784,note_on,,4,0,6,,,,,,,,,5,,,64,95
23784,note_on,,2,0,5,,,,,,,,,4,,,67,95
23784,note_on,,2,0,4,,,,,,,,,3,,,67,95
23784,note_on,,4,0,7,,,,,,,,,6,,,49,95
23794,note_on,,10,0,4,,,,,,,,,3,,,67,0
23794,note_on,,10,0,5,,,,,,,,,4,,,67,0
23796,note_on,,2,0,4,,,,,,,,,3,,,67,95
23796,note_on,,2,0,5,,,,,,,,,4,,,67,95
23804,note_on,,20,0,2,,,,,,,,,1,,,49,0
23804,note_on,,20,0,8,,,,,,,,,7,,,33,0
23804,note_on,,20,0,6,,,,,,,,,5,,,64,0
23804,note_on,,20,0,7,,,,,,,,,6,,,49,0
23806,note_on,,10,0,5,,,,,,,,,4,,,67,0
23806,note_on,,10,0,4,,,,,,,,,3,,,67,0
23808,note_on,,2,0,5,,,,,,,,,4,,,66,95
23808,note_on,,2,0,4,,,,,,,,,3,,,66,95
23808,note_on,,4,0,8,,,,,,,,,7,,,38,95
23808,note_on,,4,0,2,,,,,,,,,1,,,50,79
23808,note_on,,4,0,7,,,,,,,,,6,,,50,95
23808,note_on,,4,0,6,,,,,,,,,5,,,57,95
23818,note_on,,10,0,4,,,,,,,,,3,,,66,0
23818,note_on,,10,0,5,,,,,,,,,4,,,66,0
23820,note_on,,2,0,4,,,,,,,,,3,,,64,95
23820,note_on,,2,0,5,,,,,,,,,4,,,64,95
23828,note_on,,20,0,8,,,,,,,,,7,,,38,0
23828,note_on,,20,0,2,,,,,,,,,1,,,50,0
23828,note_on,,20,0,6,,,,,,,,,5,,,57,0
23828,note_on,,20,0,7,,,,,,,,,6,,,50,0
23830,note_on,,10,0,5,,,,,,,,,4,,,64,0
23830,note_on,,10,0,4,,,,,,,,,3,,,64,0
23832,note_on,,2,0,4,,,,,,,,,3,,,66,95
23832,note_on,,2,0,5,,,,,,,,,4,,,66,95
23832,note_on,,4,0,7,,,,,,,,,6,,,47,95
23832,note_on,,4,0,6,,,,,,,,,5,,,62,95
23832,note_on,,4,0,2,,,,,,,,,1,,,47,79
23832,note_on,,4,0,8,,,,,,,,,7,,,35,95
23842,note_on,,10,0,5,,,,,,,,,4,,,66,0
23842,note_on,,10,0,4,,,,,,,,,3,,,66,0
23844,note_on,,2,0,5,,,,,,,,,4,,,62,95
23844,note_on,,2,0,4,,,,,,,,,3,,,62,95
23852,note_on,,20,0,6,,,,,,,,,5,,,62,0
23852,note_on,,20,0,7,,,,,,,,,6,,,47,0
23852,note_on,,20,0,8,,,,,,,,,7,,,35,0
23852,note_on,,20,0,2,,,,,,,,,1,,,47,0
23854,note_on,,10,0,5,,,,,,,,,4,,,62,0
23854,note_on,,10,0,4,,,,,,,,,3,,,62,0
23856,note_on,,4,0,7,,,,,,,,,6,,,43,95
23856,note_on,,4,0,2,,,,,,,,,1,,,43,79
23856,note_on,,2,0,5,,,,,,,,,4,,,64,95
23856,note_on,,4,0,8,,,,,,,,,7,,,31,95
23856,note_on,,2,0,4,,,,,,,,,3,,,64,95
23856,note_on,,4,0,6,,,,,,,,,5,,,67,95
23866,note_on,,10,0,5,,,,,,,,,4,,,64,0
23868,note_on,,2,0,5,,,,,,,,,4,,,64,95
23868,note_on,,784,0,1,,,,,,,,,0,,,74,95
23876,note_on,,20,0,7,,,,,,,,,6,,,43,0
23876,note_on,,20,0,2,,,,,,,,,1,,,43,0
23876,note_on,,20,0,8,,,,,,,,,7,,,31,0
23876,note_on,,20,0,6,,,,,,,,,5,,,67,0
23876,note_on,,20,0,4,,,,,,,,,3,,,64,0
23878,note_on,,10,0,1,,,,,,,,,0,,,74,0
23878,note_on,,10,0,5,,,,,,,,,4,,,64,0
23880,note_on,,4,0,8,,,,,,,,,7,,,33,95
23880,note_on,,4,0,4,,,,,,,,,3,,,64,95
23880,note_on,,4,0,7,,,,,,,,,6,,,45,95
23880,note_on,,4,0,6,,,,,,,,,5,,,67,95
23880,note_on,,2,0,1,,,,,,,,,0,,,73,95
23880,note_on,,2,0,5,,,,,,,,,4,,,57,95
23880,note_on,,4,0,2,,,,,,,,,1,,,45,79
23885,note_on,,5,0,4,,,,,,,,,3,,,64,0
23886,note_on,,1,0,4,,,,,,,,,3,,,66,95
23890,note_on,,10,0,1,,,,,,,,,0,,,73,0
23890,note_on,,10,0,5,,,,,,,,,4,,,57,0
23891,note_on,,5,0,4,,,,,,,,,3,,,66,0
23892,note_on,,2,0,5,,,,,,,,,4,,,57,95
23892,note_on,,1,0,4,,,,,,,,,3,,,64,95
23892,note_on,,2,0,1,,,,,,,,,0,,,71,95
23897,note_on,,5,0,4,,,,,,,,,3,,,64,0
23898,note_on,,1,0,4,,,,,,,,,3,,,66,95
23900,note_on,,20,0,6,,,,,,,,,5,,,67,0
23900,note_on,,20,0,2,,,,,,,,,1,,,45,0
23900,note_on,,20,0,8,,,,,,,,,7,,,33,0
23900,note_on,,20,0,7,,,,,,,,,6,,,45,0
23902,note_on,,10,0,1,,,,,,,,,0,,,71,0
23902,note_on,,10,0,5,,,,,,,,,4,,,57,0
23903,note_on,,5,0,4,,,,,,,,,3,,,66,0
23904,note_on,,1,0,4,,,,,,,,,3,,,66,95
23904,note_on,,0,0,2,,,,,,,,,1,,,48,79
23904,note_on,,4,0,2,,,,,,,,,1,,,36,79
23904,note_on,,2,0,5,,,,,,,,,4,,,62,95
23904,note_on,,4,0,6,,,,,,,,,5,,,66,95
23904,note_on,,2,0,1,,,,,,,,,0,,,69,95
23904,note_on,,4,0,8,,,,,,,,,7,,,36,95
23904,note_on,,4,0,7,,,,,,,,,6,,,36,95
23914,note_on,,10,0,1,,,,,,,,,0,,,69,0
23914,note_on,,10,0,4,,,,,,,,,3,,,66,0
23916,note_on,,2,0,4,,,,,,,,,3,,,62,95
23916,note_on,,2,0,1,,,,,,,,,0,,,66,95
23926,note_on,,10,0,4,,,,,,,,,3,,,62,0
23926,note_on,,10,0,1,,,,,,,,,0,,,66,0
23928,note_on,,2,0,4,,,,,,,,,3,,,64,95
23928,note_on,,2,0,1,,,,,,,,,0,,,67,95
23938,note_on,,10,0,1,,,,,,,,,0,,,67,0
23938,note_on,,10,0,4,,,,,,,,,3,,,64,0
23940,note_on,,2,0,4,,,,,,,,,3,,,67,95
23940,note_on,,2,0,1,,,,,,,,,0,,,71,95
23944,note_on,,40,0,2,,,,,,,,,1,,,48,0
23944,note_on,,0,0,2,,,,,,,,,1,,,36,0
23944,note_on,,40,0,6,,,,,,,,,5,,,66,0
23944,note_on,,40,0,5,,,,,,,,,4,,,62,0
23944,note_on,,40,0,8,,,,,,,,,7,,,36,0
23944,note_on,,40,0,7,,,,,,,,,6,,,36,0
23950,note_on,,10,0,1,,,,,,,,,0,,,71,0
23950,note_on,,10,0,4,,,,,,,,,3,,,67,0
23952,note_on,,2,0,1,,,,,,,,,0,,,69,95
23952,note_on,,2,0,4,,,,,,,,,3,,,66,95
23962,note_on,,10,0,1,,,,,,,,,0,,,69,0
23962,note_on,,10,0,4,,,,,,,,,3,,,66,0
23964,note_on,,2,0,4,,,,,,,,,3,,,62,95
23964,note_on,,2,0,1,,,,,,,,,0,,,66,95
23974,note_on,,10,0,4,,,,,,,,,3,,,62,0
23974,note_on,,10,0,1,,,,,,,,,0,,,66,0
23976,note_on,,2,0,1,,,,,,,,,0,,,67,95
23976,note_on,,32,0,2,,,,,,,,,1,,,48,79
23976,note_on,,2,0,4,,,,,,,,,3,,,64,95
23986,note_on,,10,0,4,,,,,,,,,3,,,64,0
23986,note_on,,10,0,1,,,,,,,,,0,,,67,0
23988,note_on,,2,0,4,,,,,,,,,3,,,66,95
23988,note_on,,2,0,1,,,,,,,,,0,,,69,95
23996,note_on,,20,0,2,,,,,,,,,1,,,48,0
23998,note_on,,10,0,1,,,,,,,,,0,,,69,0
23998,note_on,,10,0,4,,,,,,,,,3,,,66,0
24000,note_on,,4,0,2,,,,,,,,,1,,,49,79
24000,note_on,,2,0,1,,,,,,,,,0,,,71,95
24000,note_on,,2,0,4,,,,,,,,,3,,,67,95
24010,note_on,,10,0,4,,,,,,,,,3,,,67,0
24012,note_on,,2,0,4,,,,,,,,,3,,,64,95
24020,note_on,,20,0,1,,,,,,,,,0,,,71,0
24020,note_on,,20,0,2,,,,,,,,,1,,,49,0
24022,note_on,,10,0,4,,,,,,,,,3,,,64,0
24024,note_on,,4,0,1,,,,,,,,,0,,,69,95
24024,note_on,,4,0,2,,,,,,,,,1,,,50,79
24024,note_on,,2,0,4,,,,,,,,,3,,,66,95
24024,note_on,,942,0,3,,,,,,,,,2,,,69,95
24034,note_on,,10,0,4,,,,,,,,,3,,,66,0
24036,note_on,,2,0,4,,,,,,,,,3,,,69,95
24044,note_on,,20,0,1,,,,,,,,,0,,,69,0
24044,note_on,,20,0,3,,,,,,,,,2,,,69,0
24044,note_on,,20,0,2,,,,,,,,,1,,,50,0
24046,note_on,,10,0,4,,,,,,,,,3,,,69,0
24048,note_on,,4,0,3,,,,,,,,,2,,,71,95
24048,note_on,,2,0,4,,,,,,,,,3,,,67,95
24058,note_on,,10,0,4,,,,,,,,,3,,,67,0
24060,note_on,,2,0,4,,,,,,,,,3,,,64,95
24068,note_on,,20,0,3,,,,,,,,,2,,,71,0
24070,note_on,,10,0,4,,,,,,,,,3,,,64,0
24072,note_on,,4,0,3,,,,,,,,,2,,,69,95
24072,note_on,,28,0,2,,,,,,,,,1,,,50,79
24072,note_on,,2,0,4,,,,,,,,,3,,,66,95
24082,note_on,,10,0,4,,,,,,,,,3,,,66,0
24084,note_on,,2,0,4,,,,,,,,,3,,,67,95
24092,note_on,,20,0,2,,,,,,,,,1,,,50,0
24092,note_on,,20,0,3,,,,,,,,,2,,,69,0
24094,note_on,,10,0,4,,,,,,,,,3,,,67,0
24096,note_on,,2,0,4,,,,,,,,,3,,,69,95
24096,note_on,,4,0,3,,,,,,,,,2,,,72,95
24096,note_on,,4,0,2,,,,,,,,,1,,,51,79
24106,note_on,,10,0,4,,,,,,,,,3,,,69,0
24108,note_on,,2,0,4,,,,,,,,,3,,,66,95
24116,note_on,,20,0,3,,,,,,,,,2,,,72,0
24116,note_on,,20,0,2,,,,,,,,,1,,,51,0
24118,note_on,,10,0,4,,,,,,,,,3,,,66,0
24120,note_on,,4,0,3,,,,,,,,,2,,,71,95
24120,note_on,,2,0,4,,,,,,,,,3,,,67,95
24120,note_on,,4,0,2,,,,,,,,,1,,,52,79
24130,note_on,,10,0,4,,,,,,,,,3,,,67,0
24132,note_on,,2,0,4,,,,,,,,,3,,,71,95
24140,note_on,,20,0,2,,,,,,,,,1,,,52,0
24140,note_on,,20,0,3,,,,,,,,,2,,,71,0
24142,note_on,,10,0,4,,,,,,,,,3,,,71,0
24144,note_on,,4,0,3,,,,,,,,,2,,,76,95
24144,note_on,,2,0,4,,,,,,,,,3,,,69,95
24144,note_on,,4,0,2,,,,,,,,,1,,,54,79
24154,note_on,,10,0,2,,,,,,,,,1,,,54,0
24154,note_on,,10,0,4,,,,,,,,,3,,,69,0
24156,note_on,,2,0,2,,,,,,,,,1,,,50,79
24156,note_on,,2,0,4,,,,,,,,,3,,,66,95
24164,note_on,,20,0,3,,,,,,,,,2,,,76,0
24166,note_on,,10,0,4,,,,,,,,,3,,,66,0
24166,note_on,,10,0,2,,,,,,,,,1,,,50,0
24168,note_on,,4,0,3,,,,,,,,,2,,,74,95
24168,note_on,,2,0,2,,,,,,,,,1,,,52,79
24168,note_on,,2,0,4,,,,,,,,,3,,,67,95
24178,note_on,,10,0,4,,,,,,,,,3,,,67,0
24178,note_on,,10,0,2,,,,,,,,,1,,,52,0
24180,note_on,,2,0,4,,,,,,,,,3,,,69,95
24180,note_on,,2,0,2,,,,,,,,,1,,,54,79
24188,note_on,,20,0,3,,,,,,,,,2,,,74,0
24190,note_on,,10,0,4,,,,,,,,,3,,,69,0
24190,note_on,,10,0,2,,,,,,,,,1,,,54,0
24192,note_on,,4,0,3,,,,,,,,,2,,,79,95
24192,note_on,,2,0,2,,,,,,,,,1,,,55,79
24192,note_on,,2,0,4,,,,,,,,,3,,,71,95
24204,note_on,,160,0,1,,,,,,,,,0,,,62,95
24212,note_on,,20,0,4,,,,,,,,,3,,,71,0
24212,note_on,,20,0,2,,,,,,,,,1,,,55,0
24214,note_on,,10,0,1,,,,,,,,,0,,,62,0
24216,note_on,,4,0,4,,,,,,,,,3,,,69,95
24216,note_on,,4,0,2,,,,,,,,,1,,,54,79
24216,note_on,,2,0,1,,,,,,,,,0,,,64,95
24226,note_on,,10,0,1,,,,,,,,,0,,,64,0
24228,note_on,,2,0,1,,,,,,,,,0,,,66,95
24236,note_on,,20,0,4,,,,,,,,,3,,,69,0
24236,note_on,,20,0,2,,,,,,,,,1,,,54,0
24238,note_on,,10,0,1,,,,,,,,,0,,,66,0
24240,note_on,,4,0,4,,,,,,,,,3,,,72,95
24240,note_on,,2,0,1,,,,,,,,,0,,,67,95
24240,note_on,,4,0,2,,,,,,,,,1,,,52,79
24250,note_on,,10,0,1,,,,,,,,,0,,,67,0
24252,note_on,,2,0,1,,,,,,,,,0,,,69,95
24260,note_on,,20,0,4,,,,,,,,,3,,,72,0
24260,note_on,,20,0,2,,,,,,,,,1,,,52,0
24262,note_on,,10,0,1,,,,,,,,,0,,,69,0
24264,note_on,,4,0,4,,,,,,,,,3,,,71,95
24264,note_on,,4,0,2,,,,,,,,,1,,,50,79
24264,note_on,,2,0,1,,,,,,,,,0,,,71,95
24272,note_on,,80,0,3,,,,,,,,,2,,,79,0
24274,note_on,,10,0,1,,,,,,,,,0,,,71,0
24276,note_on,,2,0,1,,,,,,,,,0,,,72,95
24284,note_on,,20,0,4,,,,,,,,,3,,,71,0
24284,note_on,,20,0,2,,,,,,,,,1,,,50,0
24286,note_on,,10,0,1,,,,,,,,,0,,,72,0
24288,note_on,,2,0,1,,,,,,,,,0,,,71,95
24288,note_on,,4,0,4,,,,,,,,,3,,,76,95
24288,note_on,,4,0,2,,,,,,,,,1,,,48,79
24298,note_on,,10,0,1,,,,,,,,,0,,,71,0
24300,note_on,,2,0,1,,,,,,,,,0,,,69,95
24308,note_on,,20,0,4,,,,,,,,,3,,,76,0
24310,note_on,,10,0,1,,,,,,,,,0,,,69,0
24312,note_on,,4,0,4,,,,,,,,,3,,,74,95
24312,note_on,,40,0,3,,,,,,,,,2,,,78,95
24312,note_on,,2,0,1,,,,,,,,,0,,,62,95
24322,note_on,,10,0,1,,,,,,,,,0,,,62,0
24324,note_on,,2,0,1,,,,,,,,,0,,,64,95
24328,note_on,,40,0,2,,,,,,,,,1,,,48,0
24332,note_on,,20,0,3,,,,,,,,,2,,,78,0
24332,note_on,,20,0,4,,,,,,,,,3,,,74,0
24334,note_on,,10,0,1,,,,,,,,,0,,,64,0
24336,note_on,,4,0,4,,,,,,,,,3,,,74,95
24336,note_on,,4,0,3,,,,,,,,,2,,,81,95
24336,note_on,,2,0,1,,,,,,,,,0,,,66,95
24346,note_on,,10,0,1,,,,,,,,,0,,,66,0
24348,note_on,,2,0,1,,,,,,,,,0,,,62,95
24356,note_on,,20,0,3,,,,,,,,,2,,,81,0
24358,note_on,,10,0,1,,,,,,,,,0,,,62,0
24360,note_on,,32,0,2,,,,,,,,,1,,,47,79
24360,note_on,,2,0,1,,,,,,,,,0,,,64,95
24360,note_on,,4,0,3,,,,,,,,,2,,,79,95
24370,note_on,,10,0,1,,,,,,,,,0,,,64,0
24372,note_on,,2,0,1,,,,,,,,,0,,,67,95
24380,note_on,,20,0,2,,,,,,,,,1,,,47,0
24380,note_on,,20,0,3,,,,,,,,,2,,,79,0
24382,note_on,,10,0,1,,,,,,,,,0,,,67,0
24384,note_on,,4,0,2,,,,,,,,,1,,,45,79
24384,note_on,,2,0,1,,,,,,,,,0,,,66,95
24384,note_on,,4,0,3,,,,,,,,,2,,,84,95
24394,note_on,,10,0,1,,,,,,,,,0,,,66,0
24396,note_on,,2,0,1,,,,,,,,,0,,,69,95
24404,note_on,,20,0,2,,,,,,,,,1,,,45,0
24404,note_on,,20,0,3,,,,,,,,,2,,,84,0
24406,note_on,,10,0,1,,,,,,,,,0,,,69,0
24408,note_on,,2,0,1,,,,,,,,,0,,,71,95
24408,note_on,,4,0,3,,,,,,,,,2,,,83,95
24408,note_on,,4,0,2,,,,,,,,,1,,,43,79
24418,note_on,,10,0,1,,,,,,,,,0,,,71,0
24420,note_on,,2,0,1,,,,,,,,,0,,,67,95
24428,note_on,,20,0,3,,,,,,,,,2,,,83,0
24428,note_on,,20,0,2,,,,,,,,,1,,,43,0
24430,note_on,,10,0,1,,,,,,,,,0,,,67,0
24432,note_on,,2,0,1,,,,,,,,,0,,,69,95
24432,note_on,,4,0,3,,,,,,,,,2,,,81,95
24432,note_on,,4,0,2,,,,,,,,,1,,,42,79
24442,note_on,,10,0,1,,,,,,,,,0,,,69,0
24444,note_on,,2,0,1,,,,,,,,,0,,,72,95
24452,note_on,,20,0,2,,,,,,,,,1,,,42,0
24452,note_on,,20,0,3,,,,,,,,,2,,,81,0
24454,note_on,,10,0,1,,,,,,,,,0,,,72,0
24456,note_on,,2,0,1,,,,,,,,,0,,,71,95
24456,note_on,,120,0,4,,,,,,,,,3,,,74,0
24456,note_on,,4,0,2,,,,,,,,,1,,,43,79
24456,note_on,,4,0,3,,,,,,,,,2,,,79,95
24466,note_on,,10,0,1,,,,,,,,,0,,,71,0
24466,note_on,,10,0,3,,,,,,,,,2,,,79,0
24468,note_on,,2,0,1,,,,,,,,,0,,,69,95
24468,note_on,,2,0,3,,,,,,,,,2,,,78,95
24476,note_on,,20,0,2,,,,,,,,,1,,,43,0
24478,note_on,,10,0,3,,,,,,,,,2,,,78,0
24478,note_on,,10,0,1,,,,,,,,,0,,,69,0
24480,note_on,,2,0,1,,,,,,,,,0,,,67,95
24480,note_on,,2,0,3,,,,,,,,,2,,,79,95
24480,note_on,,4,0,2,,,,,,,,,1,,,40,79
24490,note_on,,10,0,1,,,,,,,,,0,,,67,0
24490,note_on,,10,0,3,,,,,,,,,2,,,79,0
24492,note_on,,2,0,3,,,,,,,,,2,,,81,95
24492,note_on,,36,0,4,,,,,,,,,3,,,73,95
24492,note_on,,2,0,1,,,,,,,,,0,,,64,95
24500,note_on,,20,0,2,,,,,,,,,1,,,40,0
24502,note_on,,10,0,4,,,,,,,,,3,,,73,0
24502,note_on,,10,0,3,,,,,,,,,2,,,81,0
24502,note_on,,10,0,1,,,,,,,,,0,,,64,0
24504,note_on,,2,0,4,,,,,,,,,3,,,74,95
24504,note_on,,4,0,2,,,,,,,,,1,,,38,79
24504,note_on,,2,0,1,,,,,,,,,0,,,69,95
24504,note_on,,2,0,3,,,,,,,,,2,,,78,95
24504,note_on,,560,0,6,,,,,,,,,5,,,62,63
24504,note_on,,560,0,7,,,,,,,,,6,,,50,63
24504,note_on,,560,0,8,,,,,,,,,7,,,38,63
24504,note_on,,560,0,5,,,,,,,,,4,,,69,63
24514,note_on,,10,0,3,,,,,,,,,2,,,78,0
24514,note_on,,10,0,4,,,,,,,,,3,,,74,0
24514,note_on,,10,0,1,,,,,,,,,0,,,69,0
24516,note_on,,2,0,1,,,,,,,,,0,,,71,95
24516,note_on,,2,0,4,,,,,,,,,3,,,76,95
24516,note_on,,2,0,3,,,,,,,,,2,,,79,95
24524,note_on,,20,0,2,,,,,,,,,1,,,38,0
24524,note_on,,20,0,6,,,,,,,,,5,,,62,0
24524,note_on,,20,0,7,,,,,,,,,6,,,50,0
24524,note_on,,20,0,5,,,,,,,,,4,,,69,0
24524,note_on,,20,0,8,,,,,,,,,7,,,38,0
24526,note_on,,10,0,1,,,,,,,,,0,,,71,0
24526,note_on,,10,0,4,,,,,,,,,3,,,76,0
24526,note_on,,10,0,3,,,,,,,,,2,,,79,0
24528,note_on,,4,0,6,,,,,,,,,5,,,64,63
24528,note_on,,4,0,2,,,,,,,,,1,,,45,79
24528,note_on,,2,0,3,,,,,,,,,2,,,76,95
24528,note_on,,4,0,7,,,,,,,,,6,,,57,63
24528,note_on,,2,0,1,,,,,,,,,0,,,73,95
24528,note_on,,2,0,4,,,,,,,,,3,,,73,95
24528,note_on,,4,0,5,,,,,,,,,4,,,69,63
24528,note_on,,4,0,8,,,,,,,,,7,,,45,63
24533,note_on,,5,0,3,,,,,,,,,2,,,76,0
24534,note_on,,1,0,3,,,,,,,,,2,,,78,95
24538,note_on,,10,0,1,,,,,,,,,0,,,73,0
24539,note_on,,5,0,3,,,,,,,,,2,,,78,0
24540,note_on,,2,0,1,,,,,,,,,0,,,74,95
24540,note_on,,1,0,3,,,,,,,,,2,,,76,95
24545,note_on,,5,0,3,,,,,,,,,2,,,76,0
24546,note_on,,1,0,3,,,,,,,,,2,,,78,95
24548,note_on,,20,0,8,,,,,,,,,7,,,45,0
24548,note_on,,20,0,6,,,,,,,,,5,,,64,0
24548,note_on,,20,0,2,,,,,,,,,1,,,45,0
24548,note_on,,20,0,5,,,,,,,,,4,,,69,0
24548,note_on,,20,0,7,,,,,,,,,6,,,57,0
24550,note_on,,10,0,1,,,,,,,,,0,,,74,0
24551,note_on,,5,0,3,,,,,,,,,2,,,78,0
24552,note_on,,4,0,2,,,,,,,,,1,,,43,79
24552,note_on,,2,0,1,,,,,,,,,0,,,76,95
24552,note_on,,1,0,3,,,,,,,,,2,,,69,95
24552,note_on,,4,0,5,,,,,,,,,4,,,69,63
24552,note_on,,4,0,7,,,,,,,,,6,,,55,63
24552,note_on,,4,0,6,,,,,,,,,5,,,64,63
24552,note_on,,4,0,8,,,,,,,,,7,,,43,63
24558,note_on,,30,0,4,,,,,,,,,3,,,73,0
24562,note_on,,10,0,1,,,,,,,,,0,,,76,0
24562,note_on,,10,0,3,,,,,,,,,2,,,69,0
24564,note_on,,2,0,1,,,,,,,,,0,,,73,95
24564,note_on,,6,0,4,,,,,,,,,3,,,74,95
24564,note_on,,2,0,3,,,,,,,,,2,,,71,95
24572,note_on,,20,0,5,,,,,,,,,4,,,69,0
24572,note_on,,20,0,8,,,,,,,,,7,,,43,0
24572,note_on,,20,0,2,,,,,,,,,1,,,43,0
24572,note_on,,20,0,7,,,,,,,,,6,,,55,0
24572,note_on,,20,0,6,,,,,,,,,5,,,64,0
24574,note_on,,10,0,3,,,,,,,,,2,,,71,0
24574,note_on,,10,0,4,,,,,,,,,3,,,74,0
24574,note_on,,10,0,1,,,,,,,,,0,,,73,0
24576,note_on,,2,0,1,,,,,,,,,0,,,69,95
24576,note_on,,2,0,3,,,,,,,,,2,,,72,95
24576,note_on,,4,0,5,,,,,,,,,4,,,69,63
24576,note_on,,2,0,4,,,,,,,,,3,,,74,95
24576,note_on,,4,0,2,,,,,,,,,1,,,42,79
24576,note_on,,4,0,8,,,,,,,,,7,,,42,63
24576,note_on,,4,0,6,,,,,,,,,5,,,62,63
24576,note_on,,4,0,7,,,,,,,,,6,,,54,63
24586,note_on,,10,0,3,,,,,,,,,2,,,72,0
24586,note_on,,10,0,1,,,,,,,,,0,,,69,0
24588,note_on,,2,0,3,,,,,,,,,2,,,69,95
24588,note_on,,2,0,1,,,,,,,,,0,,,74,95
24596,note_on,,20,0,8,,,,,,,,,7,,,42,0
24596,note_on,,20,0,2,,,,,,,,,1,,,42,0
24596,note_on,,20,0,6,,,,,,,,,5,,,62,0
24596,note_on,,20,0,7,,,,,,,,,6,,,54,0
24596,note_on,,20,0,5,,,,,,,,,4,,,69,0
24598,note_on,,10,0,1,,,,,,,,,0,,,74,0
24598,note_on,,10,0,3,,,,,,,,,2,,,69,0
24600,note_on,,4,0,2,,,,,,,,,1,,,43,79
24600,note_on,,2,0,1,,,,,,,,,0,,,62,95
24600,note_on,,2,0,3,,,,,,,,,2,,,71,95
24610,note_on,,10,0,3,,,,,,,,,2,,,71,0
24610,note_on,,10,0,1,,,,,,,,,0,,,62,0
24612,note_on,,2,0,3,,,,,,,,,2,,,74,95
24612,note_on,,2,0,1,,,,,,,,,0,,,66,95
24616,note_on,,40,0,4,,,,,,,,,3,,,74,0
24620,note_on,,20,0,2,,,,,,,,,1,,,43,0
24622,note_on,,10,0,3,,,,,,,,,2,,,74,0
24622,note_on,,10,0,1,,,,,,,,,0,,,66,0
24624,note_on,,2,0,3,,,,,,,,,2,,,73,95
24624,note_on,,2,0,1,,,,,,,,,0,,,64,95
24634,note_on,,10,0,1,,,,,,,,,0,,,64,0
24634,note_on,,10,0,3,,,,,,,,,2,,,73,0
24636,note_on,,2,0,1,,,,,,,,,0,,,61,95
24636,note_on,,2,0,3,,,,,,,,,2,,,69,95
24646,note_on,,10,0,1,,,,,,,,,0,,,61,0
24646,note_on,,10,0,3,,,,,,,,,2,,,69,0
24648,note_on,,2,0,3,,,,,,,,,2,,,71,95
24648,note_on,,28,0,2,,,,,,,,,1,,,43,79
24648,note_on,,2,0,1,,,,,,,,,0,,,62,95
24658,note_on,,10,0,3,,,,,,,,,2,,,71,0
24658,note_on,,10,0,1,,,,,,,,,0,,,62,0
24660,note_on,,2,0,1,,,,,,,,,0,,,64,95
24660,note_on,,2,0,3,,,,,,,,,2,,,73,95
24668,note_on,,20,0,2,,,,,,,,,1,,,43,0
24670,note_on,,10,0,1,,,,,,,,,0,,,64,0
24670,note_on,,10,0,3,,,,,,,,,2,,,73,0
24672,note_on,,4,0,2,,,,,,,,,1,,,44,79
24672,note_on,,2,0,1,,,,,,,,,0,,,66,95
24672,note_on,,2,0,3,,,,,,,,,2,,,74,95
24682,note_on,,10,0,3,,,,,,,,,2,,,74,0
24684,note_on,,2,0,3,,,,,,,,,2,,,71,95
24692,note_on,,20,0,1,,,,,,,,,0,,,66,0
24692,note_on,,20,0,2,,,,,,,,,1,,,44,0
24694,note_on,,10,0,3,,,,,,,,,2,,,71,0
24696,note_on,,80,0,4,,,,,,,,,3,,,64,95
24696,note_on,,4,0,2,,,,,,,,,1,,,45,79
24696,note_on,,2,0,3,,,,,,,,,2,,,73,95
24696,note_on,,4,0,1,,,,,,,,,0,,,64,95
24706,note_on,,10,0,3,,,,,,,,,2,,,73,0
24708,note_on,,2,0,3,,,,,,,,,2,,,76,95
24716,note_on,,20,0,1,,,,,,,,,0,,,64,0
24716,note_on,,20,0,4,,,,,,,,,3,,,64,0
24716,note_on,,20,0,2,,,,,,,,,1,,,45,0
24718,note_on,,10,0,3,,,,,,,,,2,,,76,0
24720,note_on,,2,0,3,,,,,,,,,2,,,74,95
24720,note_on,,4,0,4,,,,,,,,,3,,,66,95
24730,note_on,,10,0,3,,,,,,,,,2,,,74,0
24732,note_on,,2,0,3,,,,,,,,,2,,,71,95
24740,note_on,,20,0,4,,,,,,,,,3,,,66,0
24742,note_on,,10,0,3,,,,,,,,,2,,,71,0
24744,note_on,,4,0,4,,,,,,,,,3,,,64,95
24744,note_on,,2,0,3,,,,,,,,,2,,,73,95
24744,note_on,,28,0,2,,,,,,,,,1,,,45,79
24754,note_on,,10,0,3,,,,,,,,,2,,,73,0
24756,note_on,,2,0,3,,,,,,,,,2,,,74,95
24764,note_on,,20,0,2,,,,,,,,,1,,,45,0
24764,note_on,,20,0,4,,,,,,,,,3,,,64,0
24766,note_on,,10,0,3,,,,,,,,,2,,,74,0
24768,note_on,,2,0,3,,,,,,,,,2,,,76,95
24768,note_on,,4,0,4,,,,,,,,,3,,,67,95
24768,note_on,,4,0,2,,,,,,,,,1,,,46,79
24778,note_on,,10,0,3,,,,,,,,,2,,,76,0
24780,note_on,,2,0,3,,,,,,,,,2,,,73,95
24788,note_on,,20,0,4,,,,,,,,,3,,,67,0
24788,note_on,,20,0,2,,,,,,,,,1,,,46,0
24790,note_on,,10,0,3,,,,,,,,,2,,,73,0
24792,note_on,,4,0,2,,,,,,,,,1,,,47,79
24792,note_on,,2,0,3,,,,,,,,,2,,,74,95
24792,note_on,,4,0,4,,,,,,,,,3,,,66,95
24802,note_on,,10,0,3,,,,,,,,,2,,,74,0
24804,note_on,,2,0,3,,,,,,,,,2,,,78,95
24812,note_on,,20,0,2,,,,,,,,,1,,,47,0
24812,note_on,,20,0,4,,,,,,,,,3,,,66,0
24814,note_on,,10,0,3,,,,,,,,,2,,,78,0
24816,note_on,,2,0,3,,,,,,,,,2,,,76,95
24816,note_on,,4,0,2,,,,,,,,,1,,,49,79
24816,note_on,,4,0,4,,,,,,,,,3,,,71,95
24826,note_on,,10,0,3,,,,,,,,,2,,,76,0
24826,note_on,,10,0,2,,,,,,,,,1,,,49,0
24828,note_on,,2,0,3,,,,,,,,,2,,,73,95
24828,note_on,,2,0,2,,,,,,,,,1,,,45,79
24836,note_on,,20,0,4,,,,,,,,,3,,,71,0
24838,note_on,,10,0,2,,,,,,,,,1,,,45,0
24838,note_on,,10,0,3,,,,,,,,,2,,,73,0
24840,note_on,,4,0,4,,,,,,,,,3,,,69,95
24840,note_on,,2,0,2,,,,,,,,,1,,,47,79
24840,note_on,,2,0,3,,,,,,,,,2,,,74,95
24850,note_on,,10,0,2,,,,,,,,,1,,,47,0
24850,note_on,,10,0,3,,,,,,,,,2,,,74,0
24852,note_on,,2,0,2,,,,,,,,,1,,,49,79
24852,note_on,,2,0,3,,,,,,,,,2,,,76,95
24860,note_on,,20,0,4,,,,,,,,,3,,,69,0
24862,note_on,,10,0,2,,,,,,,,,1,,,49,0
24862,note_on,,10,0,3,,,,,,,,,2,,,76,0
24864,note_on,,4,0,4,,,,,,,,,3,,,74,95
24864,note_on,,2,0,2,,,,,,,,,1,,,50,79
24864,note_on,,2,0,3,,,,,,,,,2,,,78,95
24876,note_on,,160,0,1,,,,,,,,,0,,,69,95
24884,note_on,,20,0,3,,,,,,,,,2,,,78,0
24884,note_on,,20,0,2,,,,,,,,,1,,,50,0
24886,note_on,,10,0,1,,,,,,,,,0,,,69,0
24888,note_on,,2,0,1,,,,,,,,,0,,,71,95
24888,note_on,,4,0,2,,,,,,,,,1,,,49,79
24888,note_on,,4,0,3,,,,,,,,,2,,,76,95
24898,note_on,,10,0,1,,,,,,,,,0,,,71,0
24900,note_on,,2,0,1,,,,,,,,,0,,,73,95
24908,note_on,,20,0,2,,,,,,,,,1,,,49,0
24908,note_on,,20,0,3,,,,,,,,,2,,,76,0
24910,note_on,,10,0,1,,,,,,,,,0,,,73,0
24912,note_on,,4,0,2,,,,,,,,,1,,,47,79
24912,note_on,,4,0,3,,,,,,,,,2,,,79,95
24912,note_on,,2,0,1,,,,,,,,,0,,,74,95
24922,note_on,,10,0,1,,,,,,,,,0,,,74,0
24924,note_on,,2,0,1,,,,,,,,,0,,,76,95
24932,note_on,,20,0,2,,,,,,,,,1,,,47,0
24932,note_on,,20,0,3,,,,,,,,,2,,,79,0
24934,note_on,,10,0,1,,,,,,,,,0,,,76,0
24936,note_on,,4,0,2,,,,,,,,,1,,,45,79
24936,note_on,,2,0,1,,,,,,,,,0,,,78,95
24936,note_on,,4,0,3,,,,,,,,,2,,,78,95
24946,note_on,,10,0,1,,,,,,,,,0,,,78,0
24948,note_on,,2,0,1,,,,,,,,,0,,,79,95
24956,note_on,,20,0,3,,,,,,,,,2,,,78,0
24956,note_on,,20,0,2,,,,,,,,,1,,,45,0
24958,note_on,,10,0,1,,,,,,,,,0,,,79,0
24960,note_on,,4,0,2,,,,,,,,,1,,,43,79
24960,note_on,,2,0,1,,,,,,,,,0,,,78,95
24960,note_on,,4,0,3,,,,,,,,,2,,,83,95
24970,note_on,,10,0,1,,,,,,,,,0,,,78,0
24972,note_on,,2,0,1,,,,,,,,,0,,,76,95
24980,note_on,,20,0,3,,,,,,,,,2,,,83,0
24982,note_on,,10,0,1,,,,,,,,,0,,,76,0
24984,note_on,,120,0,4,,,,,,,,,3,,,74,0
24984,note_on,,4,0,3,,,,,,,,,2,,,81,95
24984,note_on,,0,0,4,,,,,,,,,3,,,73,95
24984,note_on,,2,0,1,,,,,,,,,0,,,57,95
24994,note_on,,10,0,1,,,,,,,,,0,,,57,0
24996,note_on,,2,0,1,,,,,,,,,0,,,59,95
25000,note_on,,40,0,2,,,,,,,,,1,,,43,0
25004,note_on,,20,0,4,,,,,,,,,3,,,73,0
25004,note_on,,20,0,3,,,,,,,,,2,,,81,0
25006,note_on,,10,0,1,,,,,,,,,0,,,59,0
25008,note_on,,4,0,4,,,,,,,,,3,,,76,95
25008,note_on,,8,0,2,,,,,,,,,1,,,54,79
25008,note_on,,4,0,3,,,,,,,,,2,,,81,95
25008,note_on,,2,0,1,,,,,,,,,0,,,61,95
25018,note_on,,10,0,1,,,,,,,,,0,,,61,0
25020,note_on,,2,0,1,,,,,,,,,0,,,57,95
25028,note_on,,20,0,4,,,,,,,,,3,,,76,0
25028,note_on,,20,0,2,,,,,,,,,1,,,54,0
25030,note_on,,10,0,1,,,,,,,,,0,,,57,0
25032,note_on,,2,0,1,,,,,,,,,0,,,59,95
25032,note_on,,4,0,4,,,,,,,,,3,,,74,95
25032,note_on,,4,0,2,,,,,,,,,1,,,52,79
25042,note_on,,10,0,1,,,,,,,,,0,,,59,0
25044,note_on,,2,0,1,,,,,,,,,0,,,62,95
25052,note_on,,20,0,4,,,,,,,,,3,,,74,0
25052,note_on,,20,0,2,,,,,,,,,1,,,52,0
25054,note_on,,10,0,1,,,,,,,,,0,,,62,0
25056,note_on,,2,0,1,,,,,,,,,0,,,61,95
25056,note_on,,4,0,2,,,,,,,,,1,,,50,79
25056,note_on,,4,0,4,,,,,,,,,3,,,79,95
25066,note_on,,10,0,1,,,,,,,,,0,,,61,0
25068,note_on,,2,0,1,,,,,,,,,0,,,64,95
25076,note_on,,20,0,2,,,,,,,,,1,,,50,0
25076,note_on,,20,0,4,,,,,,,,,3,,,79,0
25078,note_on,,10,0,1,,,,,,,,,0,,,64,0
25080,note_on,,2,0,1,,,,,,,,,0,,,66,95
25080,note_on,,4,0,2,,,,,,,,,1,,,49,79
25080,note_on,,4,0,4,,,,,,,,,3,,,78,95
25090,note_on,,10,0,1,,,,,,,,,0,,,66,0
25092,note_on,,2,0,1,,,,,,,,,0,,,62,95
25100,note_on,,20,0,4,,,,,,,,,3,,,78,0
25100,note_on,,20,0,2,,,,,,,,,1,,,49,0
25102,note_on,,10,0,1,,,,,,,,,0,,,62,0
25104,note_on,,2,0,1,,,,,,,,,0,,,64,95
25104,note_on,,4,0,2,,,,,,,,,1,,,50,79
25104,note_on,,4,0,4,,,,,,,,,3,,,76,95
25114,note_on,,10,0,1,,,,,,,,,0,,,64,0
25116,note_on,,2,0,1,,,,,,,,,0,,,67,95
25124,note_on,,20,0,2,,,,,,,,,1,,,50,0
25124,note_on,,20,0,4,,,,,,,,,3,,,76,0
25126,note_on,,10,0,1,,,,,,,,,0,,,67,0
25128,note_on,,2,0,1,,,,,,,,,0,,,66,95
25128,note_on,,4,0,4,,,,,,,,,3,,,74,95
25138,note_on,,10,0,4,,,,,,,,,3,,,74,0
25138,note_on,,10,0,1,,,,,,,,,0,,,66,0
25140,note_on,,2,0,1,,,,,,,,,0,,,64,95
25140,note_on,,2,0,4,,,,,,,,,3,,,73,95
25150,note_on,,10,0,1,,,,,,,,,0,,,64,0
25150,note_on,,10,0,4,,,,,,,,,3,,,73,0
25152,note_on,,2,0,4,,,,,,,,,3,,,74,95
25152,note_on,,28,0,2,,,,,,,,,1,,,47,79
25152,note_on,,2,0,1,,,,,,,,,0,,,62,95
25162,note_on,,10,0,4,,,,,,,,,3,,,74,0
25162,note_on,,10,0,1,,,,,,,,,0,,,62,0
25164,note_on,,2,0,4,,,,,,,,,3,,,76,95
25164,note_on,,2,0,1,,,,,,,,,0,,,59,95
25167,note_on,,159,0,3,,,,,,,,,2,,,81,0
25172,note_on,,20,0,2,,,,,,,,,1,,,47,0
25174,note_on,,10,0,1,,,,,,,,,0,,,59,0
25174,note_on,,10,0,4,,,,,,,,,3,,,76,0
25176,note_on,,2,0,4,,,,,,,,,3,,,73,95
25176,note_on,,580,0,6,,,,,,,,,5,,,69,63
25176,note_on,,580,0,8,,,,,,,,,7,,,33,63
25176,note_on,,4,0,2,,,,,,,,,1,,,45,79
25176,note_on,,2,0,1,,,,,,,,,0,,,64,95
25176,note_on,,580,0,5,,,,,,,,,4,,,76,63
25176,note_on,,580,0,7,,,,,,,,,6,,,45,63
25186,note_on,,10,0,4,,,,,,,,,3,,,73,0
25186,note_on,,10,0,1,,,,,,,,,0,,,64,0
25188,note_on,,2,0,4,,,,,,,,,3,,,74,95
25188,note_on,,2,0,1,,,,,,,,,0,,,66,95
25196,note_on,,20,0,2,,,,,,,,,1,,,45,0
25196,note_on,,20,0,5,,,,,,,,,4,,,76,0
25196,note_on,,20,0,7,,,,,,,,,6,,,45,0
25196,note_on,,20,0,8,,,,,,,,,7,,,33,0
25196,note_on,,20,0,6,,,,,,,,,5,,,69,0
25198,note_on,,10,0,4,,,,,,,,,3,,,74,0
25198,note_on,,10,0,1,,,,,,,,,0,,,66,0
25200,note_on,,2,0,4,,,,,,,,,3,,,71,95
25200,note_on,,4,0,5,,,,,,,,,4,,,76,63
25200,note_on,,4,0,8,,,,,,,,,7,,,40,63
25200,note_on,,4,0,2,,,,,,,,,1,,,52,79
25200,note_on,,2,0,1,,,,,,,,,0,,,67,95
25200,note_on,,33,0,3,,,,,,,,,2,,,79,95
25200,note_on,,4,0,7,,,,,,,,,6,,,52,63
25200,note_on,,4,0,6,,,,,,,,,5,,,71,63
25210,note_on,,10,0,4,,,,,,,,,3,,,71,0
25210,note_on,,10,0,1,,,,,,,,,0,,,67,0
25212,note_on,,2,0,1,,,,,,,,,0,,,69,95
25212,note_on,,2,0,4,,,,,,,,,3,,,76,95
25220,note_on,,20,0,2,,,,,,,,,1,,,52,0
25220,note_on,,20,0,5,,,,,,,,,4,,,76,0
25220,note_on,,20,0,6,,,,,,,,,5,,,71,0
25220,note_on,,20,0,7,,,,,,,,,6,,,52,0
25220,note_on,,20,0,8,,,,,,,,,7,,,40,0
25222,note_on,,10,0,1,,,,,,,,,0,,,69,0
25222,note_on,,10,0,4,,,,,,,,,3,,,76,0
25224,note_on,,2,0,1,,,,,,,,,0,,,67,95
25224,note_on,,2,0,4,,,,,,,,,3,,,78,95
25224,note_on,,4,0,8,,,,,,,,,7,,,38,63
25224,note_on,,4,0,5,,,,,,,,,4,,,76,63
25224,note_on,,4,0,7,,,,,,,,,6,,,50,63
25224,note_on,,4,0,2,,,,,,,,,1,,,50,79
25224,note_on,,4,0,6,,,,,,,,,5,,,71,63
25234,note_on,,10,0,1,,,,,,,,,0,,,67,0
25234,note_on,,10,0,4,,,,,,,,,3,,,78,0
25236,note_on,,2,0,1,,,,,,,,,0,,,66,95
25236,note_on,,2,0,4,,,,,,,,,3,,,79,95
25244,note_on,,20,0,2,,,,,,,,,1,,,50,0
25244,note_on,,20,0,5,,,,,,,,,4,,,76,0
25244,note_on,,20,0,7,,,,,,,,,6,,,50,0
25244,note_on,,20,0,8,,,,,,,,,7,,,38,0
25244,note_on,,20,0,6,,,,,,,,,5,,,71,0
25246,note_on,,10,0,4,,,,,,,,,3,,,79,0
25246,note_on,,10,0,1,,,,,,,,,0,,,66,0
25248,note_on,,4,0,2,,,,,,,,,1,,,49,79
25248,note_on,,4,0,5,,,,,,,,,4,,,76,63
25248,note_on,,4,0,8,,,,,,,,,7,,,37,63
25248,note_on,,2,0,4,,,,,,,,,3,,,81,95
25248,note_on,,2,0,1,,,,,,,,,0,,,64,95
25248,note_on,,4,0,6,,,,,,,,,5,,,69,63
25248,note_on,,4,0,7,,,,,,,,,6,,,49,63
25258,note_on,,10,0,1,,,,,,,,,0,,,64,0
25258,note_on,,10,0,4,,,,,,,,,3,,,81,0
25260,note_on,,2,0,1,,,,,,,,,0,,,61,95
25260,note_on,,2,0,4,,,,,,,,,3,,,69,95
25268,note_on,,20,0,5,,,,,,,,,4,,,76,0
25268,note_on,,20,0,2,,,,,,,,,1,,,49,0
25268,note_on,,20,0,7,,,,,,,,,6,,,49,0
25268,note_on,,20,0,6,,,,,,,,,5,,,69,0
25268,note_on,,20,0,8,,,,,,,,,7,,,37,0
25270,note_on,,10,0,4,,,,,,,,,3,,,69,0
25270,note_on,,10,0,1,,,,,,,,,0,,,61,0
25272,note_on,,4,0,2,,,,,,,,,1,,,45,79
25272,note_on,,2,0,4,,,,,,,,,3,,,71,95
25272,note_on,,2,0,1,,,,,,,,,0,,,62,95
25280,note_on,,80,0,3,,,,,,,,,2,,,79,0
25282,note_on,,10,0,1,,,,,,,,,0,,,62,0
25282,note_on,,10,0,4,,,,,,,,,3,,,71,0
25284,note_on,,2,0,1,,,,,,,,,0,,,64,95
25284,note_on,,2,0,4,,,,,,,,,3,,,73,95
25292,note_on,,20,0,2,,,,,,,,,1,,,45,0
25294,note_on,,10,0,1,,,,,,,,,0,,,64,0
25294,note_on,,10,0,4,,,,,,,,,3,,,73,0
25296,note_on,,4,0,2,,,,,,,,,1,,,50,79
25296,note_on,,16,0,3,,,,,,,,,2,,,78,95
25296,note_on,,2,0,1,,,,,,,,,0,,,66,95
25296,note_on,,2,0,4,,,,,,,,,3,,,74,95
25306,note_on,,10,0,1,,,,,,,,,0,,,66,0
25306,note_on,,10,0,4,,,,,,,,,3,,,74,0
25308,note_on,,2,0,1,,,,,,,,,0,,,62,95
25308,note_on,,2,0,4,,,,,,,,,3,,,78,95
25316,note_on,,20,0,2,,,,,,,,,1,,,50,0
25318,note_on,,10,0,1,,,,,,,,,0,,,62,0
25318,note_on,,10,0,4,,,,,,,,,3,,,78,0
25320,note_on,,2,0,1,,,,,,,,,0,,,64,95
25320,note_on,,52,0,8,,,,,,,,,7,,,38,63
25320,note_on,,52,0,6,,,,,,,,,5,,,69,63
25320,note_on,,2,0,4,,,,,,,,,3,,,79,95
25320,note_on,,4,0,2,,,,,,,,,1,,,38,79
25320,note_on,,52,0,5,,,,,,,,,4,,,74,63
25320,note_on,,52,0,7,,,,,,,,,6,,,50,63
25330,note_on,,10,0,4,,,,,,,,,3,,,79,0
25330,note_on,,10,0,1,,,,,,,,,0,,,64,0
25332,note_on,,2,0,4,,,,,,,,,3,,,81,95
25332,note_on,,2,0,1,,,,,,,,,0,,,66,95
25340,note_on,,20,0,8,,,,,,,,,7,,,38,0
25340,note_on,,20,0,2,,,,,,,,,1,,,38,0
25340,note_on,,20,0,5,,,,,,,,,4,,,74,0
25340,note_on,,20,0,6,,,,,,,,,5,,,69,0
25340,note_on,,20,0,7,,,,,,,,,6,,,50,0
25342,note_on,,10,0,4,,,,,,,,,3,,,81,0
25342,note_on,,10,0,1,,,,,,,,,0,,,66,0
25344,note_on,,4,0,8,,,,,,,,,7,,,31,63
25344,note_on,,4,0,7,,,,,,,,,6,,,43,63
25344,note_on,,4,0,2,,,,,,,,,1,,,43,79
25344,note_on,,2,0,4,,,,,,,,,3,,,83,95
25344,note_on,,4,0,6,,,,,,,,,5,,,67,63
25344,note_on,,4,0,5,,,,,,,,,4,,,74,63
25344,note_on,,2,0,1,,,,,,,,,0,,,62,95
25354,note_on,,10,0,4,,,,,,,,,3,,,83,0
25356,note_on,,2,0,4,,,,,,,,,3,,,71,95
25364,note_on,,20,0,8,,,,,,,,,7,,,31,0
25364,note_on,,20,0,1,,,,,,,,,0,,,62,0
25364,note_on,,20,0,5,,,,,,,,,4,,,74,0
25364,note_on,,20,0,6,,,,,,,,,5,,,67,0
25364,note_on,,20,0,2,,,,,,,,,1,,,43,0
25364,note_on,,20,0,7,,,,,,,,,6,,,43,0
25366,note_on,,10,0,4,,,,,,,,,3,,,71,0
25368,note_on,,2,0,4,,,,,,,,,3,,,73,95
25368,note_on,,4,0,1,,,,,,,,,0,,,74,95
25368,note_on,,0,0,1,,,,,,,,,0,,,79,95
25368,note_on,,0,0,1,,,,,,,,,0,,,83,95
25376,note_on,,80,0,3,,,,,,,,,2,,,78,0
25378,note_on,,10,0,4,,,,,,,,,3,,,73,0
25380,note_on,,2,0,4,,,,,,,,,3,,,74,95
25388,note_on,,0,0,1,,,,,,,,,0,,,79,0
25388,note_on,,0,0,1,,,,,,,,,0,,,74,0
25388,note_on,,20,0,1,,,,,,,,,0,,,83,0
25390,note_on,,10,0,4,,,,,,,,,3,,,74,0
25392,note_on,,16,0,3,,,,,,,,,2,,,76,95
25392,note_on,,2,0,4,,,,,,,,,3,,,76,95
25392,note_on,,4,0,1,,,,,,,,,0,,,76,95
25392,note_on,,0,0,1,,,,,,,,,0,,,71,95
25392,note_on,,0,0,1,,,,,,,,,0,,,79,95
25402,note_on,,10,0,4,,,,,,,,,3,,,76,0
25404,note_on,,2,0,4,,,,,,,,,3,,,78,95
25412,note_on,,20,0,1,,,,,,,,,0,,,79,0
25412,note_on,,0,0,1,,,,,,,,,0,,,71,0
25412,note_on,,0,0,1,,,,,,,,,0,,,76,0
25414,note_on,,10,0,4,,,,,,,,,3,,,78,0
25416,note_on,,52,0,6,,,,,,,,,5,,,67,63
25416,note_on,,52,0,8,,,,,,,,,7,,,43,63
25416,note_on,,2,0,4,,,,,,,,,3,,,79,95
25416,note_on,,0,0,1,,,,,,,,,0,,,76,95
25416,note_on,,52,0,7,,,,,,,,,6,,,55,63
25416,note_on,,0,0,1,,,,,,,,,0,,,67,95
25416,note_on,,4,0,1,,,,,,,,,0,,,71,95
25416,note_on,,52,0,5,,,,,,,,,4,,,71,63
25416,note_on,,52,0,2,,,,,,,,,1,,,55,79
25426,note_on,,10,0,4,,,,,,,,,3,,,79,0
25428,note_on,,2,0,4,,,,,,,,,3,,,76,95
25436,note_on,,20,0,7,,,,,,,,,6,,,55,0
25436,note_on,,20,0,6,,,,,,,,,5,,,67,0
25436,note_on,,20,0,8,,,,,,,,,7,,,43,0
25436,note_on,,20,0,2,,,,,,,,,1,,,55,0
25436,note_on,,20,0,1,,,,,,,,,0,,,76,0
25436,note_on,,0,0,1,,,,,,,,,0,,,67,0
25436,note_on,,20,0,5,,,,,,,,,4,,,71,0
25436,note_on,,0,0,1,,,,,,,,,0,,,71,0
25438,note_on,,10,0,4,,,,,,,,,3,,,76,0
25440,note_on,,2,0,4,,,,,,,,,3,,,81,95
25440,note_on,,4,0,7,,,,,,,,,6,,,54,63
25440,note_on,,4,0,8,,,,,,,,,7,,,42,63
25440,note_on,,4,0,6,,,,,,,,,5,,,69,63
25440,note_on,,4,0,2,,,,,,,,,1,,,54,79
25440,note_on,,4,0,5,,,,,,,,,4,,,73,63
25450,note_on,,10,0,4,,,,,,,,,3,,,81,0
25452,note_on,,2,0,4,,,,,,,,,3,,,69,95
25460,note_on,,20,0,6,,,,,,,,,5,,,69,0
25460,note_on,,20,0,8,,,,,,,,,7,,,42,0
25460,note_on,,20,0,7,,,,,,,,,6,,,54,0
25460,note_on,,20,0,5,,,,,,,,,4,,,73,0
25460,note_on,,20,0,2,,,,,,,,,1,,,54,0
25462,note_on,,10,0,4,,,,,,,,,3,,,69,0
25464,note_on,,2,0,4,,,,,,,,,3,,,71,95
25464,note_on,,0,0,1,,,,,,,,,0,,,73,95
25464,note_on,,28,0,1,,,,,,,,,0,,,78,95
25464,note_on,,0,0,1,,,,,,,,,0,,,81,95
25472,note_on,,80,0,3,,,,,,,,,2,,,76,0
25474,note_on,,10,0,4,,,,,,,,,3,,,71,0
25476,note_on,,2,0,4,,,,,,,,,3,,,73,95
25484,note_on,,0,0,1,,,,,,,,,0,,,73,0
25484,note_on,,20,0,1,,,,,,,,,0,,,81,0
25484,note_on,,0,0,1,,,,,,,,,0,,,78,0
25486,note_on,,10,0,4,,,,,,,,,3,,,73,0
25488,note_on,,0,0,1,,,,,,,,,0,,,78,95
25488,note_on,,0,0,1,,,,,,,,,0,,,69,95
25488,note_on,,2,0,4,,,,,,,,,3,,,74,95
25488,note_on,,28,0,5,,,,,,,,,4,,,74,63
25488,note_on,,4,0,1,,,,,,,,,0,,,74,95
25500,note_on,,28,0,3,,,,,,,,,2,,,74,95
25508,note_on,,0,0,1,,,,,,,,,0,,,69,0
25508,note_on,,20,0,1,,,,,,,,,0,,,78,0
25508,note_on,,20,0,5,,,,,,,,,4,,,74,0
25508,note_on,,0,0,1,,,,,,,,,0,,,74,0
25510,note_on,,10,0,3,,,,,,,,,2,,,74,0
25512,note_on,,52,0,6,,,,,,,,,5,,,71,63
25512,note_on,,52,0,7,,,,,,,,,6,,,47,63
25512,note_on,,0,0,1,,,,,,,,,0,,,74,95
25512,note_on,,2,0,3,,,,,,,,,2,,,76,95
25512,note_on,,52,0,8,,,,,,,,,7,,,35,63
25512,note_on,,4,0,1,,,,,,,,,0,,,69,95
25512,note_on,,0,0,1,,,,,,,,,0,,,66,95
25512,note_on,,52,0,2,,,,,,,,,1,,,47,79
25522,note_on,,10,0,3,,,,,,,,,2,,,76,0
25524,note_on,,2,0,3,,,,,,,,,2,,,78,95
25532,note_on,,20,0,7,,,,,,,,,6,,,47,0
25532,note_on,,20,0,1,,,,,,,,,0,,,74,0
25532,note_on,,20,0,6,,,,,,,,,5,,,71,0
25532,note_on,,20,0,8,,,,,,,,,7,,,35,0
25532,note_on,,0,0,1,,,,,,,,,0,,,69,0
25532,note_on,,0,0,1,,,,,,,,,0,,,66,0
25532,note_on,,20,0,2,,,,,,,,,1,,,47,0
25534,note_on,,10,0,3,,,,,,,,,2,,,78,0
25536,note_on,,4,0,2,,,,,,,,,1,,,52,79
25536,note_on,,4,0,7,,,,,,,,,6,,,52,63
25536,note_on,,28,0,5,,,,,,,,,4,,,76,63
25536,note_on,,2,0,3,,,,,,,,,2,,,79,95
25536,note_on,,4,0,8,,,,,,,,,7,,,40,63
25536,note_on,,4,0,6,,,,,,,,,5,,,71,63
25546,note_on,,10,0,3,,,,,,,,,2,,,79,0
25548,note_on,,2,0,3,,,,,,,,,2,,,76,95
25556,note_on,,20,0,8,,,,,,,,,7,,,40,0
25556,note_on,,20,0,5,,,,,,,,,4,,,76,0
25556,note_on,,20,0,7,,,,,,,,,6,,,52,0
25556,note_on,,20,0,6,,,,,,,,,5,,,71,0
25556,note_on,,20,0,2,,,,,,,,,1,,,52,0
25558,note_on,,10,0,3,,,,,,,,,2,,,76,0
25560,note_on,,2,0,3,,,,,,,,,2,,,78,95
25560,note_on,,28,0,1,,,,,,,,,0,,,76,95
25560,note_on,,0,0,1,,,,,,,,,0,,,71,95
25560,note_on,,0,0,1,,,,,,,,,0,,,79,95
25568,note_on,,80,0,4,,,,,,,,,3,,,74,0
25570,note_on,,10,0,3,,,,,,,,,2,,,78,0
25572,note_on,,2,0,3,,,,,,,,,2,,,81,95
25580,note_on,,20,0,1,,,,,,,,,0,,,79,0
25580,note_on,,0,0,1,,,,,,,,,0,,,71,0
25580,note_on,,0,0,1,,,,,,,,,0,,,76,0
25582,note_on,,10,0,3,,,,,,,,,2,,,81,0
25584,note_on,,0,0,1,,,,,,,,,0,,,67,95
25584,note_on,,16,0,4,,,,,,,,,3,,,73,95
25584,note_on,,0,0,1,,,,,,,,,0,,,76,95
25584,note_on,,2,0,3,,,,,,,,,2,,,79,95
25584,note_on,,4,0,1,,,,,,,,,0,,,73,95
25594,note_on,,10,0,3,,,,,,,,,2,,,79,0
25596,note_on,,2,0,3,,,,,,,,,2,,,83,95
25604,note_on,,20,0,1,,,,,,,,,0,,,76,0
25604,note_on,,0,0,1,,,,,,,,,0,,,67,0
25604,note_on,,0,0,1,,,,,,,,,0,,,73,0
25606,note_on,,10,0,3,,,,,,,,,2,,,83,0
25608,note_on,,52,0,8,,,,,,,,,7,,,33,63
25608,note_on,,52,0,6,,,,,,,,,5,,,73,63
25608,note_on,,4,0,1,,,,,,,,,0,,,69,95
25608,note_on,,0,0,1,,,,,,,,,0,,,73,95
25608,note_on,,52,0,5,,,,,,,,,4,,,76,63
25608,note_on,,0,0,1,,,,,,,,,0,,,64,95
25608,note_on,,52,0,7,,,,,,,,,6,,,45,63
25608,note_on,,2,0,3,,,,,,,,,2,,,81,95
25608,note_on,,52,0,2,,,,,,,,,1,,,45,79
25618,note_on,,10,0,3,,,,,,,,,2,,,81,0
25620,note_on,,2,0,3,,,,,,,,,2,,,79,95
25624,note_on,,40,0,4,,,,,,,,,3,,,73,0
25628,note_on,,0,0,1,,,,,,,,,0,,,64,0
25628,note_on,,20,0,8,,,,,,,,,7,,,33,0
25628,note_on,,20,0,2,,,,,,,,,1,,,45,0
25628,note_on,,0,0,1,,,,,,,,,0,,,69,0
25628,note_on,,20,0,6,,,,,,,,,5,,,73,0
25628,note_on,,20,0,7,,,,,,,,,6,,,45,0
25628,note_on,,20,0,1,,,,,,,,,0,,,73,0
25628,note_on,,20,0,5,,,,,,,,,4,,,76,0
25630,note_on,,10,0,3,,,,,,,,,2,,,79,0
25632,note_on,,4,0,5,,,,,,,,,4,,,78,63
25632,note_on,,0,0,1,,,,,,,,,0,,,66,95
25632,note_on,,0,0,1,,,,,,,,,0,,,62,95
25632,note_on,,4,0,1,,,,,,,,,0,,,69,95
25632,note_on,,0,0,1,,,,,,,,,0,,,74,95
25632,note_on,,4,0,7,,,,,,,,,6,,,50,63
25632,note_on,,4,0,6,,,,,,,,,5,,,69,63
25632,note_on,,2,0,3,,,,,,,,,2,,,78,95
25632,note_on,,4,0,8,,,,,,,,,7,,,38,63
25632,note_on,,8,0,4,,,,,,,,,3,,,74,95
25632,note_on,,4,0,2,,,,,,,,,1,,,50,79
25642,note_on,,10,0,3,,,,,,,,,2,,,78,0
25644,note_on,,2,0,3,,,,,,,,,2,,,74,95
25652,note_on,,20,0,4,,,,,,,,,3,,,74,0
25652,note_on,,20,0,5,,,,,,,,,4,,,78,0
25652,note_on,,20,0,2,,,,,,,,,1,,,50,0
25652,note_on,,20,0,8,,,,,,,,,7,,,38,0
25652,note_on,,20,0,7,,,,,,,,,6,,,50,0
25654,note_on,,10,0,3,,,,,,,,,2,,,74,0
25656,note_on,,2,0,3,,,,,,,,,2,,,76,95
25656,note_on,,4,0,5,,,,,,,,,4,,,69,63
25656,note_on,,4,0,2,,,,,,,,,1,,,62,79
25656,note_on,,4,0,4,,,,,,,,,3,,,69,95
25666,note_on,,10,0,3,,,,,,,,,2,,,76,0
25668,note_on,,2,0,3,,,,,,,,,2,,,79,95
25672,note_on,,40,0,6,,,,,,,,,5,,,69,0
25672,note_on,,0,0,1,,,,,,,,,0,,,69,0
25672,note_on,,0,0,1,,,,,,,,,0,,,66,0
25672,note_on,,0,0,1,,,,,,,,,0,,,62,0
25672,note_on,,40,0,1,,,,,,,,,0,,,74,0
25676,note_on,,20,0,5,,,,,,,,,4,,,69,0
25676,note_on,,20,0,4,,,,,,,,,3,,,69,0
25676,note_on,,20,0,2,,,,,,,,,1,,,62,0
25678,note_on,,10,0,3,,,,,,,,,2,,,79,0
25680,note_on,,2,0,3,,,,,,,,,2,,,78,95
25680,note_on,,4,0,4,,,,,,,,,3,,,74,95
25680,note_on,,4,0,5,,,,,,,,,4,,,74,63
25690,note_on,,10,0,3,,,,,,,,,2,,,78,0
25690,note_on,,10,0,4,,,,,,,,,3,,,74,0
25692,note_on,,2,0,3,,,,,,,,,2,,,81,95
25692,note_on,,2,0,4,,,,,,,,,3,,,78,95
25700,note_on,,20,0,5,,,,,,,,,4,,,74,0
25702,note_on,,10,0,3,,,,,,,,,2,,,81,0
25702,note_on,,10,0,4,,,,,,,,,3,,,78,0
25704,note_on,,28,0,2,,,,,,,,,1,,,62,79
25704,note_on,,52,0,7,,,,,,,,,6,,,62,63
25704,note_on,,4,0,5,,,,,,,,,4,,,69,63
25704,note_on,,2,0,3,,,,,,,,,2,,,79,95
25704,note_on,,32,0,6,,,,,,,,,5,,,66,63
25704,note_on,,52,0,8,,,,,,,,,7,,,38,63
25704,note_on,,2,0,4,,,,,,,,,3,,,76,95
25714,note_on,,10,0,3,,,,,,,,,2,,,79,0
25714,note_on,,10,0,4,,,,,,,,,3,,,76,0
25716,note_on,,2,0,3,,,,,,,,,2,,,78,95
25716,note_on,,2,0,4,,,,,,,,,3,,,74,95
25724,note_on,,20,0,6,,,,,,,,,5,,,66,0
25724,note_on,,20,0,8,,,,,,,,,7,,,38,0
25724,note_on,,20,0,5,,,,,,,,,4,,,69,0
25724,note_on,,20,0,2,,,,,,,,,1,,,62,0
25724,note_on,,20,0,7,,,,,,,,,6,,,62,0
25726,note_on,,10,0,4,,,,,,,,,3,,,74,0
25726,note_on,,10,0,3,,,,,,,,,2,,,78,0
25728,note_on,,4,0,2,,,,,,,,,1,,,61,79
25728,note_on,,2,0,3,,,,,,,,,2,,,76,95
25728,note_on,,2,0,4,,,,,,,,,3,,,76,95
25728,note_on,,4,0,7,,,,,,,,,6,,,61,63
25728,note_on,,4,0,8,,,,,,,,,7,,,45,63
25728,note_on,,4,0,6,,,,,,,,,5,,,64,63
25738,note_on,,10,0,4,,,,,,,,,3,,,76,0
25738,note_on,,10,0,3,,,,,,,,,2,,,76,0
25740,note_on,,2,0,3,,,,,,,,,2,,,73,95
25740,note_on,,2,0,4,,,,,,,,,3,,,69,95
25748,note_on,,20,0,6,,,,,,,,,5,,,64,0
25748,note_on,,20,0,2,,,,,,,,,1,,,61,0
25748,note_on,,20,0,7,,,,,,,,,6,,,61,0
25750,note_on,,10,0,4,,,,,,,,,3,,,69,0
25750,note_on,,10,0,3,,,,,,,,,2,,,73,0
25752,note_on,,28,0,5,,,,,,,,,4,,,69,63
25752,note_on,,2,0,4,,,,,,,,,3,,,71,95
25752,note_on,,4,0,2,,,,,,,,,1,,,57,79
25752,note_on,,4,0,6,,,,,,,,,5,,,69,63
25752,note_on,,4,0,7,,,,,,,,,6,,,57,63
25752,note_on,,2,0,3,,,,,,,,,2,,,74,95
25762,note_on,,10,0,3,,,,,,,,,2,,,74,0
25762,note_on,,10,0,4,,,,,,,,,3,,,71,0
25764,note_on,,2,0,3,,,,,,,,,2,,,78,95
25764,note_on,,2,0,4,,,,,,,,,3,,,74,95
25772,note_on,,20,0,6,,,,,,,,,5,,,69,0
25772,note_on,,20,0,5,,,,,,,,,4,,,69,0
25772,note_on,,20,0,2,,,,,,,,,1,,,57,0
25772,note_on,,20,0,7,,,,,,,,,6,,,57,0
25774,note_on,,10,0,4,,,,,,,,,3,,,74,0
25774,note_on,,10,0,3,,,,,,,,,2,,,78,0
25776,note_on,,2,0,4,,,,,,,,,3,,,73,95
25776,note_on,,4,0,5,,,,,,,,,4,,,76,63
25776,note_on,,2,0,3,,,,,,,,,2,,,76,95
25786,note_on,,10,0,3,,,,,,,,,2,,,76,0
25786,note_on,,10,0,4,,,,,,,,,3,,,73,0
25788,note_on,,2,0,3,,,,,,,,,2,,,79,95
25788,note_on,,2,0,4,,,,,,,,,3,,,76,95
25796,note_on,,20,0,5,,,,,,,,,4,,,76,0
25798,note_on,,10,0,3,,,,,,,,,2,,,79,0
25798,note_on,,10,0,4,,,,,,,,,3,,,76,0
25800,note_on,,28,0,7,,,,,,,,,6,,,57,63
25800,note_on,,4,0,5,,,,,,,,,4,,,69,63
25800,note_on,,2,0,4,,,,,,,,,3,,,74,95
25800,note_on,,28,0,6,,,,,,,,,5,,,69,63
25800,note_on,,2,0,3,,,,,,,,,2,,,78,95
25800,note_on,,28,0,2,,,,,,,,,1,,,57,79
25810,note_on,,10,0,3,,,,,,,,,2,,,78,0
25810,note_on,,10,0,4,,,,,,,,,3,,,74,0
25812,note_on,,2,0,3,,,,,,,,,2,,,76,95
25812,note_on,,2,0,4,,,,,,,,,3,,,73,95
25820,note_on,,20,0,7,,,,,,,,,6,,,57,0
25820,note_on,,20,0,6,,,,,,,,,5,,,69,0
25820,note_on,,20,0,2,,,,,,,,,1,,,57,0
25820,note_on,,20,0,5,,,,,,,,,4,,,69,0
25822,note_on,,10,0,3,,,,,,,,,2,,,76,0
25822,note_on,,10,0,4,,,,,,,,,3,,,73,0
25824,note_on,,4,0,6,,,,,,,,,5,,,62,63
25824,note_on,,2,0,3,,,,,,,,,2,,,78,95
25824,note_on,,4,0,7,,,,,,,,,6,,,54,63
25824,note_on,,4,0,2,,,,,,,,,1,,,54,79
25824,note_on,,2,0,4,,,,,,,,,3,,,74,95
25834,note_on,,10,0,3,,,,,,,,,2,,,78,0
25834,note_on,,10,0,4,,,,,,,,,3,,,74,0
25836,note_on,,2,0,3,,,,,,,,,2,,,74,95
25836,note_on,,2,0,4,,,,,,,,,3,,,71,95
25844,note_on,,20,0,6,,,,,,,,,5,,,62,0
25844,note_on,,20,0,2,,,,,,,,,1,,,54,0
25844,note_on,,20,0,7,,,,,,,,,6,,,54,0
25846,note_on,,10,0,3,,,,,,,,,2,,,74,0
25846,note_on,,10,0,4,,,,,,,,,3,,,71,0
25848,note_on,,2,0,3,,,,,,,,,2,,,76,95
25848,note_on,,4,0,2,,,,,,,,,1,,,50,79
25848,note_on,,4,0,7,,,,,,,,,6,,,50,63
25848,note_on,,28,0,5,,,,,,,,,4,,,69,63
25848,note_on,,2,0,4,,,,,,,,,3,,,73,95
25848,note_on,,4,0,6,,,,,,,,,5,,,69,63
25858,note_on,,10,0,3,,,,,,,,,2,,,76,0
25858,note_on,,10,0,4,,,,,,,,,3,,,73,0
25860,note_on,,2,0,3,,,,,,,,,2,,,79,95
25860,note_on,,2,0,4,,,,,,,,,3,,,76,95
25868,note_on,,20,0,2,,,,,,,,,1,,,50,0
25868,note_on,,20,0,5,,,,,,,,,4,,,69,0
25868,note_on,,20,0,7,,,,,,,,,6,,,50,0
25868,note_on,,20,0,6,,,,,,,,,5,,,69,0
25870,note_on,,10,0,3,,,,,,,,,2,,,79,0
25870,note_on,,10,0,4,,,,,,,,,3,,,76,0
25872,note_on,,4,0,5,,,,,,,,,4,,,78,63
25872,note_on,,2,0,3,,,,,,,,,2,,,78,95
25872,note_on,,2,0,4,,,,,,,,,3,,,74,95
25882,note_on,,10,0,3,,,,,,,,,2,,,78,0
25882,note_on,,10,0,4,,,,,,,,,3,,,74,0
25884,note_on,,2,0,3,,,,,,,,,2,,,81,95
25884,note_on,,2,0,4,,,,,,,,,3,,,73,95
25887,note_on,,159,0,8,,,,,,,,,7,,,45,0
25892,note_on,,20,0,5,,,,,,,,,4,,,78,0
25894,note_on,,10,0,4,,,,,,,,,3,,,73,0
25894,note_on,,10,0,3,,,,,,,,,2,,,81,0
25896,note_on,,28,0,7,,,,,,,,,6,,,50,63
25896,note_on,,4,0,5,,,,,,,,,4,,,69,63
25896,note_on,,2,0,3,,,,,,,,,2,,,79,95
25896,note_on,,28,0,2,,,,,,,,,1,,,50,79
25896,note_on,,28,0,6,,,,,,,,,5,,,69,63
25896,note_on,,2,0,4,,,,,,,,,3,,,71,95
25906,note_on,,10,0,3,,,,,,,,,2,,,79,0
25906,note_on,,10,0,4,,,,,,,,,3,,,71,0
25908,note_on,,2,0,3,,,,,,,,,2,,,78,95
25908,note_on,,2,0,4,,,,,,,,,3,,,69,95
25916,note_on,,20,0,6,,,,,,,,,5,,,69,0
25916,note_on,,20,0,2,,,,,,,,,1,,,50,0
25916,note_on,,20,0,5,,,,,,,,,4,,,69,0
25916,note_on,,20,0,7,,,,,,,,,6,,,50,0
25918,note_on,,10,0,3,,,,,,,,,2,,,78,0
25918,note_on,,10,0,4,,,,,,,,,3,,,69,0
25920,note_on,,2,0,3,,,,,,,,,2,,,80,95
25920,note_on,,2,0,4,,,,,,,,,3,,,71,95
25920,note_on,,4,0,7,,,,,,,,,6,,,47,63
25920,note_on,,33,0,8,,,,,,,,,7,,,45,63
25920,note_on,,4,0,2,,,,,,,,,1,,,47,79
25920,note_on,,4,0,6,,,,,,,,,5,,,62,63
25930,note_on,,10,0,4,,,,,,,,,3,,,71,0
25930,note_on,,10,0,3,,,,,,,,,2,,,80,0
25932,note_on,,2,0,3,,,,,,,,,2,,,76,95
25932,note_on,,2,0,4,,,,,,,,,3,,,68,95
25940,note_on,,20,0,2,,,,,,,,,1,,,47,0
25940,note_on,,20,0,7,,,,,,,,,6,,,47,0
25940,note_on,,20,0,6,,,,,,,,,5,,,62,0
25942,note_on,,10,0,4,,,,,,,,,3,,,68,0
25942,note_on,,10,0,3,,,,,,,,,2,,,76,0
25944,note_on,,4,0,2,,,,,,,,,1,,,52,79
25944,note_on,,2,0,3,,,,,,,,,2,,,78,95
25944,note_on,,4,0,6,,,,,,,,,5,,,64,63
25944,note_on,,28,0,5,,,,,,,,,4,,,69,63
25944,note_on,,2,0,4,,,,,,,,,3,,,69,95
25944,note_on,,4,0,7,,,,,,,,,6,,,52,63
25954,note_on,,10,0,4,,,,,,,,,3,,,69,0
25954,note_on,,10,0,3,,,,,,,,,2,,,78,0
25956,note_on,,2,0,3,,,,,,,,,2,,,81,95
25956,note_on,,2,0,4,,,,,,,,,3,,,73,95
25964,note_on,,20,0,5,,,,,,,,,4,,,69,0
25964,note_on,,20,0,2,,,,,,,,,1,,,52,0
25964,note_on,,20,0,6,,,,,,,,,5,,,64,0
25964,note_on,,20,0,7,,,,,,,,,6,,,52,0
25966,note_on,,10,0,4,,,,,,,,,3,,,73,0
25966,note_on,,10,0,3,,,,,,,,,2,,,81,0
25968,note_on,,2,0,3,,,,,,,,,2,,,80,95
25968,note_on,,2,0,4,,,,,,,,,3,,,71,95
25968,note_on,,4,0,2,,,,,,,,,1,,,50,79
25968,note_on,,4,0,5,,,,,,,,,4,,,80,63
25968,note_on,,4,0,7,,,,,,,,,6,,,50,63
25978,note_on,,10,0,3,,,,,,,,,2,,,80,0
25978,note_on,,10,0,4,,,,,,,,,3,,,71,0
25980,note_on,,2,0,3,,,,,,,,,2,,,83,95
25980,note_on,,2,0,4,,,,,,,,,3,,,74,95
25988,note_on,,20,0,7,,,,,,,,,6,,,50,0
25988,note_on,,20,0,5,,,,,,,,,4,,,80,0
25988,note_on,,20,0,2,,,,,,,,,1,,,50,0
25990,note_on,,10,0,4,,,,,,,,,3,,,74,0
25990,note_on,,10,0,3,,,,,,,,,2,,,83,0
25992,note_on,,4,0,2,,,,,,,,,1,,,52,79
25992,note_on,,2,0,4,,,,,,,,,3,,,73,95
25992,note_on,,2,0,3,,,,,,,,,2,,,81,95
25992,note_on,,28,0,6,,,,,,,,,5,,,64,63
25992,note_on,,4,0,7,,,,,,,,,6,,,52,63
25992,note_on,,4,0,5,,,,,,,,,4,,,69,63
26000,note_on,,80,0,8,,,,,,,,,7,,,45,0
26002,note_on,,10,0,4,,,,,,,,,3,,,73,0
26002,note_on,,10,0,3,,,,,,,,,2,,,81,0
26004,note_on,,2,0,3,,,,,,,,,2,,,80,95
26004,note_on,,2,0,4,,,,,,,,,3,,,71,95
26012,note_on,,20,0,6,,,,,,,,,5,,,64,0
26012,note_on,,20,0,7,,,,,,,,,6,,,52,0
26012,note_on,,20,0,2,,,,,,,,,1,,,52,0
26012,note_on,,20,0,5,,,,,,,,,4,,,69,0
26014,note_on,,10,0,3,,,,,,,,,2,,,80,0
26014,note_on,,10,0,4,,,,,,,,,3,,,71,0
26016,note_on,,4,0,5,,,,,,,,,4,,,73,95
26016,note_on,,4,0,6,,,,,,,,,5,,,64,95
26016,note_on,,16,0,8,,,,,,,,,7,,,33,63
26016,note_on,,2,0,4,,,,,,,,,3,,,73,95
26016,note_on,,4,0,2,,,,,,,,,1,,,45,79
26016,note_on,,2,0,3,,,,,,,,,2,,,81,95
26016,note_on,,4,0,7,,,,,,,,,6,,,45,63
26026,note_on,,10,0,5,,,,,,,,,4,,,73,0
26026,note_on,,10,0,6,,,,,,,,,5,,,64,0
26026,note_on,,10,0,4,,,,,,,,,3,,,73,0
26028,note_on,,2,0,6,,,,,,,,,5,,,66,95
26028,note_on,,2,0,5,,,,,,,,,4,,,71,95
26028,note_on,,2,0,4,,,,,,,,,3,,,71,95
26036,note_on,,20,0,7,,,,,,,,,6,,,45,0
26036,note_on,,20,0,2,,,,,,,,,1,,,45,0
26036,note_on,,20,0,8,,,,,,,,,7,,,33,0
26038,note_on,,10,0,4,,,,,,,,,3,,,71,0
26038,note_on,,10,0,5,,,,,,,,,4,,,71,0
26038,note_on,,10,0,6,,,,,,,,,5,,,66,0
26040,note_on,,2,0,5,,,,,,,,,4,,,73,95
26040,note_on,,2,0,4,,,,,,,,,3,,,73,95
26040,note_on,,4,0,8,,,,,,,,,7,,,45,95
26040,note_on,,4,0,2,,,,,,,,,1,,,57,79
26040,note_on,,4,0,7,,,,,,,,,6,,,57,95
26040,note_on,,2,0,6,,,,,,,,,5,,,67,95
26050,note_on,,10,0,8,,,,,,,,,7,,,45,0
26050,note_on,,10,0,2,,,,,,,,,1,,,57,0
26050,note_on,,10,0,4,,,,,,,,,3,,,73,0
26050,note_on,,10,0,7,,,,,,,,,6,,,57,0
26050,note_on,,10,0,6,,,,,,,,,5,,,67,0
26050,note_on,,10,0,5,,,,,,,,,4,,,73,0
26052,note_on,,2,0,2,,,,,,,,,1,,,59,79
26052,note_on,,2,0,8,,,,,,,,,7,,,47,95
26052,note_on,,2,0,5,,,,,,,,,4,,,74,95
26052,note_on,,2,0,4,,,,,,,,,3,,,74,95
26052,note_on,,2,0,6,,,,,,,,,5,,,66,95
26052,note_on,,2,0,7,,,,,,,,,6,,,59,95
26056,note_on,,40,0,3,,,,,,,,,2,,,81,0
26062,note_on,,10,0,5,,,,,,,,,4,,,74,0
26062,note_on,,10,0,4,,,,,,,,,3,,,74,0
26062,note_on,,10,0,6,,,,,,,,,5,,,66,0
26062,note_on,,10,0,7,,,,,,,,,6,,,59,0
26062,note_on,,10,0,8,,,,,,,,,7,,,47,0
26062,note_on,,10,0,2,,,,,,,,,1,,,59,0
26064,note_on,,2,0,6,,,,,,,,,5,,,64,95
26064,note_on,,2,0,7,,,,,,,,,6,,,61,95
26064,note_on,,2,0,4,,,,,,,,,3,,,76,95
26064,note_on,,2,0,2,,,,,,,,,1,,,61,79
26064,note_on,,2,0,8,,,,,,,,,7,,,49,95
26064,note_on,,2,0,5,,,,,,,,,4,,,76,95
26074,note_on,,10,0,4,,,,,,,,,3,,,76,0
26074,note_on,,10,0,2,,,,,,,,,1,,,61,0
26074,note_on,,10,0,6,,,,,,,,,5,,,64,0
26074,note_on,,10,0,8,,,,,,,,,7,,,49,0
26074,note_on,,10,0,5,,,,,,,,,4,,,76,0
26074,note_on,,10,0,7,,,,,,,,,6,,,61,0
26076,note_on,,2,0,6,,,,,,,,,5,,,62,95
26076,note_on,,2,0,8,,,,,,,,,7,,,50,95
26076,note_on,,2,0,5,,,,,,,,,4,,,78,95
26076,note_on,,2,0,7,,,,,,,,,6,,,62,95
26076,note_on,,2,0,4,,,,,,,,,3,,,78,95
26076,note_on,,2,0,2,,,,,,,,,1,,,62,79
26086,note_on,,10,0,7,,,,,,,,,6,,,62,0
26086,note_on,,10,0,4,,,,,,,,,3,,,78,0
26086,note_on,,10,0,8,,,,,,,,,7,,,50,0
26086,note_on,,10,0,5,,,,,,,,,4,,,78,0
26086,note_on,,10,0,6,,,,,,,,,5,,,62,0
26086,note_on,,10,0,2,,,,,,,,,1,,,62,0
26088,note_on,,2,0,6,,,,,,,,,5,,,61,95
26088,note_on,,2,0,5,,,,,,,,,4,,,79,95
26088,note_on,,2,0,7,,,,,,,,,6,,,64,95
26088,note_on,,2,0,8,,,,,,,,,7,,,52,95
26088,note_on,,2,0,4,,,,,,,,,3,,,79,95
26088,note_on,,2,0,2,,,,,,,,,1,,,64,79
26098,note_on,,10,0,2,,,,,,,,,1,,,64,0
26098,note_on,,10,0,6,,,,,,,,,5,,,61,0
26098,note_on,,10,0,8,,,,,,,,,7,,,52,0
26098,note_on,,10,0,4,,,,,,,,,3,,,79,0
26098,note_on,,10,0,7,,,,,,,,,6,,,64,0
26098,note_on,,10,0,5,,,,,,,,,4,,,79,0
26100,note_on,,2,0,6,,,,,,,,,5,,,64,95
26100,note_on,,2,0,8,,,,,,,,,7,,,49,95
26100,note_on,,2,0,4,,,,,,,,,3,,,76,95
26100,note_on,,2,0,5,,,,,,,,,4,,,76,95
26100,note_on,,2,0,2,,,,,,,,,1,,,61,79
26100,note_on,,2,0,7,,,,,,,,,6,,,61,95
26110,note_on,,10,0,2,,,,,,,,,1,,,61,0
26110,note_on,,10,0,6,,,,,,,,,5,,,64,0
26110,note_on,,10,0,4,,,,,,,,,3,,,76,0
26110,note_on,,10,0,8,,,,,,,,,7,,,49,0
26110,note_on,,10,0,7,,,,,,,,,6,,,61,0
26110,note_on,,10,0,5,,,,,,,,,4,,,76,0
26112,note_on,,2,0,7,,,,,,,,,6,,,62,95
26112,note_on,,2,0,6,,,,,,,,,5,,,62,95
26112,note_on,,2,0,2,,,,,,,,,1,,,62,79
26112,note_on,,2,0,5,,,,,,,,,4,,,78,95
26112,note_on,,2,0,8,,,,,,,,,7,,,50,95
26112,note_on,,2,0,4,,,,,,,,,3,,,78,95
26122,note_on,,10,0,5,,,,,,,,,4,,,78,0
26122,note_on,,10,0,4,,,,,,,,,3,,,78,0
26124,note_on,,2,0,5,,,,,,,,,4,,,78,95
26124,note_on,,2,0,4,,,,,,,,,3,,,78,95
26132,note_on,,20,0,7,,,,,,,,,6,,,62,0
26132,note_on,,20,0,6,,,,,,,,,5,,,62,0
26132,note_on,,20,0,2,,,,,,,,,1,,,62,0
26132,note_on,,20,0,8,,,,,,,,,7,,,50,0
26134,note_on,,10,0,5,,,,,,,,,4,,,78,0
26134,note_on,,10,0,4,,,,,,,,,3,,,78,0
26136,note_on,,2,0,4,,,,,,,,,3,,,76,95
26136,note_on,,4,0,6,,,,,,,,,5,,,69,95
26136,note_on,,2,0,5,,,,,,,,,4,,,76,95
26136,note_on,,4,0,2,,,,,,,,,1,,,61,79
26136,note_on,,4,0,7,,,,,,,,,6,,,61,95
26136,note_on,,4,0,8,,,,,,,,,7,,,49,95
26146,note_on,,10,0,4,,,,,,,,,3,,,76,0
26146,note_on,,10,0,5,,,,,,,,,4,,,76,0
26148,note_on,,2,0,5,,,,,,,,,4,,,76,95
26148,note_on,,2,0,4,,,,,,,,,3,,,76,95
26156,note_on,,20,0,2,,,,,,,,,1,,,61,0
26156,note_on,,20,0,7,,,,,,,,,6,,,61,0
26156,note_on,,20,0,6,,,,,,,,,5,,,69,0
26156,note_on,,20,0,8,,,,,,,,,7,,,49,0
26158,note_on,,10,0,5,,,,,,,,,4,,,76,0
26158,note_on,,10,0,4,,,,,,,,,3,,,76,0
26160,note_on,,4,0,6,,,,,,,,,5,,,74,95
26160,note_on,,4,0,7,,,,,,,,,6,,,59,95
26160,note_on,,2,0,4,,,,,,,,,3,,,79,95
26160,note_on,,4,0,2,,,,,,,,,1,,,59,79
26160,note_on,,2,0,5,,,,,,,,,4,,,79,95
26160,note_on,,4,0,8,,,,,,,,,7,,,47,95
26170,note_on,,10,0,4,,,,,,,,,3,,,79,0
26170,note_on,,10,0,5,,,,,,,,,4,,,79,0
26172,note_on,,2,0,4,,,,,,,,,3,,,79,95
26172,note_on,,2,0,5,,,,,,,,,4,,,79,95
26180,note_on,,20,0,2,,,,,,,,,1,,,59,0
26180,note_on,,20,0,6,,,,,,,,,5,,,74,0
26180,note_on,,20,0,7,,,,,,,,,6,,,59,0
26180,note_on,,20,0,8,,,,,,,,,7,,,47,0
26182,note_on,,10,0,5,,,,,,,,,4,,,79,0
26182,note_on,,10,0,4,,,,,,,,,3,,,79,0
26184,note_on,,2,0,5,,,,,,,,,4,,,78,95
26184,note_on,,4,0,7,,,,,,,,,6,,,57,95
26184,note_on,,2,0,4,,,,,,,,,3,,,78,95
26184,note_on,,4,0,2,,,,,,,,,1,,,57,79
26184,note_on,,4,0,6,,,,,,,,,5,,,73,95
26184,note_on,,4,0,8,,,,,,,,,7,,,45,95
26194,note_on,,10,0,5,,,,,,,,,4,,,78,0
26194,note_on,,10,0,4,,,,,,,,,3,,,78,0
26196,note_on,,2,0,5,,,,,,,,,4,,,78,95
26196,note_on,,2,0,4,,,,,,,,,3,,,78,95
26204,note_on,,20,0,8,,,,,,,,,7,,,45,0
26204,note_on,,20,0,2,,,,,,,,,1,,,57,0
26204,note_on,,20,0,6,,,,,,,,,5,,,73,0
26204,note_on,,20,0,7,,,,,,,,,6,,,57,0
26206,note_on,,10,0,4,,,,,,,,,3,,,78,0
26206,note_on,,10,0,5,,,,,,,,,4,,,78,0
26208,note_on,,2,0,4,,,,,,,,,3,,,83,95
26208,note_on,,2,0,5,,,,,,,,,4,,,83,95
26208,note_on,,4,0,6,,,,,,,,,5,,,74,95
26208,note_on,,4,0,2,,,,,,,,,1,,,55,79
26208,note_on,,4,0,8,,,,,,,,,7,,,43,95
26208,note_on,,4,0,7,,,,,,,,,6,,,55,95
26218,note_on,,10,0,4,,,,,,,,,3,,,83,0
26218,note_on,,10,0,5,,,,,,,,,4,,,83,0
26220,note_on,,2,0,4,,,,,,,,,3,,,83,95
26220,note_on,,2,0,5,,,,,,,,,4,,,83,95
26228,note_on,,20,0,2,,,,,,,,,1,,,55,0
26228,note_on,,20,0,8,,,,,,,,,7,,,43,0
26228,note_on,,20,0,6,,,,,,,,,5,,,74,0
26228,note_on,,20,0,7,,,,,,,,,6,,,55,0
26230,note_on,,10,0,4,,,,,,,,,3,,,83,0
26230,note_on,,10,0,5,,,,,,,,,4,,,83,0
26232,note_on,,4,0,8,,,,,,,,,7,,,42,95
26232,note_on,,4,0,6,,,,,,,,,5,,,62,95
26232,note_on,,2,0,5,,,,,,,,,4,,,81,95
26232,note_on,,4,0,2,,,,,,,,,1,,,54,79
26232,note_on,,4,0,7,,,,,,,,,6,,,54,95
26232,note_on,,2,0,4,,,,,,,,,3,,,81,95
26242,note_on,,10,0,5,,,,,,,,,4,,,81,0
26242,note_on,,10,0,4,,,,,,,,,3,,,81,0
26244,note_on,,2,0,5,,,,,,,,,4,,,81,95
26244,note_on,,2,0,4,,,,,,,,,3,,,81,95
26252,note_on,,20,0,7,,,,,,,,,6,,,54,0
26252,note_on,,20,0,6,,,,,,,,,5,,,62,0
26252,note_on,,20,0,8,,,,,,,,,7,,,42,0
26252,note_on,,20,0,2,,,,,,,,,1,,,54,0
26254,note_on,,10,0,5,,,,,,,,,4,,,81,0
26254,note_on,,10,0,4,,,,,,,,,3,,,81,0
26256,note_on,,2,0,5,,,,,,,,,4,,,73,95
26256,note_on,,4,0,8,,,,,,,,,7,,,40,95
26256,note_on,,4,0,7,,,,,,,,,6,,,52,95
26256,note_on,,4,0,2,,,,,,,,,1,,,52,79
26256,note_on,,2,0,4,,,,,,,,,3,,,73,95
26256,note_on,,4,0,6,,,,,,,,,5,,,67,95
26266,note_on,,10,0,4,,,,,,,,,3,,,73,0
26266,note_on,,10,0,5,,,,,,,,,4,,,73,0
26268,note_on,,2,0,4,,,,,,,,,3,,,73,95
26268,note_on,,2,0,5,,,,,,,,,4,,,73,95
26276,note_on,,20,0,8,,,,,,,,,7,,,40,0
26276,note_on,,20,0,2,,,,,,,,,1,,,52,0
26276,note_on,,20,0,6,,,,,,,,,5,,,67,0
26276,note_on,,20,0,7,,,,,,,,,6,,,52,0
26278,note_on,,10,0,5,,,,,,,,,4,,,73,0
26278,note_on,,10,0,4,,,,,,,,,3,,,73,0
26280,note_on,,4,0,2,,,,,,,,,1,,,50,79
26280,note_on,,4,0,7,,,,,,,,,6,,,50,95
26280,note_on,,4,0,6,,,,,,,,,5,,,66,95
26280,note_on,,2,0,4,,,,,,,,,3,,,74,95
26280,note_on,,2,0,5,,,,,,,,,4,,,74,95
26280,note_on,,4,0,8,,,,,,,,,7,,,38,95
26290,note_on,,10,0,5,,,,,,,,,4,,,74,0
26290,note_on,,10,0,4,,,,,,,,,3,,,74,0
26292,note_on,,2,0,5,,,,,,,,,4,,,74,95
26292,note_on,,2,0,4,,,,,,,,,3,,,74,95
26300,note_on,,20,0,6,,,,,,,,,5,,,66,0
26300,note_on,,20,0,8,,,,,,,,,7,,,38,0
26300,note_on,,20,0,7,,,,,,,,,6,,,50,0
26300,note_on,,20,0,2,,,,,,,,,1,,,50,0
26302,note_on,,10,0,5,,,,,,,,,4,,,74,0
26302,note_on,,10,0,4,,,,,,,,,3,,,74,0
26304,note_on,,4,0,2,,,,,,,,,1,,,49,79
26304,note_on,,4,0,7,,,,,,,,,6,,,49,95
26304,note_on,,4,0,8,,,,,,,,,7,,,49,95
26304,note_on,,2,0,5,,,,,,,,,4,,,67,95
26304,note_on,,2,0,4,,,,,,,,,3,,,67,95
26304,note_on,,4,0,6,,,,,,,,,5,,,64,95
26314,note_on,,10,0,4,,,,,,,,,3,,,67,0
26314,note_on,,10,0,5,,,,,,,,,4,,,67,0
26316,note_on,,2,0,5,,,,,,,,,4,,,67,95
26316,note_on,,2,0,4,,,,,,,,,3,,,67,95
26324,note_on,,20,0,7,,,,,,,,,6,,,49,0
26324,note_on,,20,0,6,,,,,,,,,5,,,64,0
26324,note_on,,20,0,8,,,,,,,,,7,,,49,0
26324,note_on,,20,0,2,,,,,,,,,1,,,49,0
26326,note_on,,10,0,5,,,,,,,,,4,,,67,0
26326,note_on,,10,0,4,,,,,,,,,3,,,67,0
26328,note_on,,4,0,2,,,,,,,,,1,,,50,79
26328,note_on,,2,0,4,,,,,,,,,3,,,66,95
26328,note_on,,4,0,7,,,,,,,,,6,,,50,95
26328,note_on,,4,0,6,,,,,,,,,5,,,62,95
26328,note_on,,4,0,8,,,,,,,,,7,,,50,95
26328,note_on,,2,0,5,,,,,,,,,4,,,66,95
26338,note_on,,10,0,4,,,,,,,,,3,,,66,0
26338,note_on,,10,0,5,,,,,,,,,4,,,66,0
26340,note_on,,2,0,5,,,,,,,,,4,,,66,95
26340,note_on,,2,0,4,,,,,,,,,3,,,66,95
26348,note_on,,20,0,6,,,,,,,,,5,,,62,0
26348,note_on,,20,0,7,,,,,,,,,6,,,50,0
26348,note_on,,20,0,2,,,,,,,,,1,,,50,0
26348,note_on,,20,0,8,,,,,,,,,7,,,50,0
26350,note_on,,10,0,4,,,,,,,,,3,,,66,0
26350,note_on,,10,0,5,,,,,,,,,4,,,66,0
26352,note_on,,4,0,6,,,,,,,,,5,,,62,95
26352,note_on,,4,0,2,,,,,,,,,1,,,43,79
26352,note_on,,4,0,8,,,,,,,,,7,,,43,95
26352,note_on,,2,0,5,,,,,,,,,4,,,71,95
26352,note_on,,4,0,7,,,,,,,,,6,,,43,95
26352,note_on,,2,0,4,,,,,,,,,3,,,71,95
26362,note_on,,10,0,5,,,,,,,,,4,,,71,0
26362,note_on,,10,0,4,,,,,,,,,3,,,71,0
26364,note_on,,2,0,4,,,,,,,,,3,,,71,95
26364,note_on,,2,0,5,,,,,,,,,4,,,71,95
26372,note_on,,20,0,6,,,,,,,,,5,,,62,0
26372,note_on,,20,0,7,,,,,,,,,6,,,43,0
26372,note_on,,20,0,2,,,,,,,,,1,,,43,0
26372,note_on,,20,0,8,,,,,,,,,7,,,43,0
26374,note_on,,10,0,5,,,,,,,,,4,,,71,0
26374,note_on,,10,0,4,,,,,,,,,3,,,71,0
26376,note_on,,4,0,2,,,,,,,,,1,,,42,79
26376,note_on,,4,0,8,,,,,,,,,7,,,42,95
26376,note_on,,2,0,5,,,,,,,,,4,,,69,95
26376,note_on,,4,0,7,,,,,,,,,6,,,42,95
26376,note_on,,2,0,4,,,,,,,,,3,,,69,95
26376,note_on,,4,0,6,,,,,,,,,5,,,62,95
26386,note_on,,10,0,5,,,,,,,,,4,,,69,0
26386,note_on,,10,0,4,,,,,,,,,3,,,69,0
26388,note_on,,2,0,5,,,,,,,,,4,,,69,95
26388,note_on,,2,0,4,,,,,,,,,3,,,69,95
26396,note_on,,20,0,2,,,,,,,,,1,,,42,0
26396,note_on,,20,0,8,,,,,,,,,7,,,42,0
26396,note_on,,20,0,6,,,,,,,,,5,,,62,0
26396,note_on,,20,0,7,,,,,,,,,6,,,42,0
26398,note_on,,10,0,4,,,,,,,,,3,,,69,0
26398,note_on,,10,0,5,,,,,,,,,4,,,69,0
26400,note_on,,4,0,6,,,,,,,,,5,,,67,95
26400,note_on,,2,0,4,,,,,,,,,3,,,61,95
26400,note_on,,4,0,7,,,,,,,,,6,,,40,95
26400,note_on,,4,0,2,,,,,,,,,1,,,40,79
26400,note_on,,2,0,5,,,,,,,,,4,,,61,95
26400,note_on,,4,0,8,,,,,,,,,7,,,40,95
26410,note_on,,10,0,5,,,,,,,,,4,,,61,0
26410,note_on,,10,0,4,,,,,,,,,3,,,61,0
26412,note_on,,2,0,4,,,,,,,,,3,,,61,95
26412,note_on,,2,0,5,,,,,,,,,4,,,61,95
26420,note_on,,20,0,2,,,,,,,,,1,,,40,0
26420,note_on,,20,0,7,,,,,,,,,6,,,40,0
26420,note_on,,20,0,8,,,,,,,,,7,,,40,0
26420,note_on,,20,0,6,,,,,,,,,5,,,67,0
26422,note_on,,10,0,4,,,,,,,,,3,,,61,0
26422,note_on,,10,0,5,,,,,,,,,4,,,61,0
26424,note_on,,4,0,6,,,,,,,,,5,,,66,95
26424,note_on,,4,0,7,,,,,,,,,6,,,38,95
26424,note_on,,2,0,4,,,,,,,,,3,,,62,95
26424,note_on,,4,0,8,,,,,,,,,7,,,38,95
26424,note_on,,2,0,5,,,,,,,,,4,,,62,95
26424,note_on,,4,0,2,,,,,,,,,1,,,38,79
26434,note_on,,10,0,4,,,,,,,,,3,,,62,0
26434,note_on,,10,0,5,,,,,,,,,4,,,62,0
26436,note_on,,2,0,5,,,,,,,,,4,,,62,95
26436,note_on,,2,0,4,,,,,,,,,3,,,62,95
26444,note_on,,20,0,8,,,,,,,,,7,,,38,0
26444,note_on,,20,0,7,,,,,,,,,6,,,38,0
26444,note_on,,20,0,6,,,,,,,,,5,,,66,0
26444,note_on,,20,0,2,,,,,,,,,1,,,38,0
26446,note_on,,10,0,4,,,,,,,,,3,,,62,0
26446,note_on,,10,0,5,,,,,,,,,4,,,62,0
26448,note_on,,2,0,4,,,,,,,,,3,,,57,95
26448,note_on,,2,0,5,,,,,,,,,4,,,57,95
26448,note_on,,4,0,2,,,,,,,,,1,,,37,79
26448,note_on,,4,0,8,,,,,,,,,7,,,37,95
26448,note_on,,4,0,7,,,,,,,,,6,,,37,95
26448,note_on,,4,0,6,,,,,,,,,5,,,64,95
26458,note_on,,10,0,4,,,,,,,,,3,,,57,0
26458,note_on,,10,0,5,,,,,,,,,4,,,57,0
26460,note_on,,2,0,5,,,,,,,,,4,,,57,95
26460,note_on,,2,0,4,,,,,,,,,3,,,57,95
26468,note_on,,20,0,8,,,,,,,,,7,,,37,0
26468,note_on,,20,0,6,,,,,,,,,5,,,64,0
26468,note_on,,20,0,2,,,,,,,,,1,,,37,0
26468,note_on,,20,0,7,,,,,,,,,6,,,37,0
26470,note_on,,10,0,4,,,,,,,,,3,,,57,0
26470,note_on,,10,0,5,,,,,,,,,4,,,57,0
26472,note_on,,2,0,4,,,,,,,,,3,,,67,95
26472,note_on,,2,0,5,,,,,,,,,4,,,67,95
26472,note_on,,4,0,6,,,,,,,,,5,,,64,95
26472,note_on,,4,0,8,,,,,,,,,7,,,49,95
26472,note_on,,4,0,7,,,,,,,,,6,,,49,95
26472,note_on,,4,0,2,,,,,,,,,1,,,49,79
26482,note_on,,10,0,5,,,,,,,,,4,,,67,0
26482,note_on,,10,0,4,,,,,,,,,3,,,67,0
26484,note_on,,2,0,4,,,,,,,,,3,,,67,95
26484,note_on,,2,0,5,,,,,,,,,4,,,67,95
26492,note_on,,20,0,6,,,,,,,,,5,,,64,0
26492,note_on,,20,0,2,,,,,,,,,1,,,49,0
26492,note_on,,20,0,8,,,,,,,,,7,,,49,0
26492,note_on,,20,0,7,,,,,,,,,6,,,49,0
26494,note_on,,10,0,5,,,,,,,,,4,,,67,0
26494,note_on,,10,0,4,,,,,,,,,3,,,67,0
26496,note_on,,4,0,7,,,,,,,,,6,,,50,95
26496,note_on,,4,0,6,,,,,,,,,5,,,57,95
26496,note_on,,2,0,5,,,,,,,,,4,,,66,95
26496,note_on,,2,0,4,,,,,,,,,3,,,66,95
26496,note_on,,4,0,8,,,,,,,,,7,,,50,95
26496,note_on,,4,0,2,,,,,,,,,1,,,50,79
26506,note_on,,10,0,5,,,,,,,,,4,,,66,0
26506,note_on,,10,0,4,,,,,,,,,3,,,66,0
26508,note_on,,2,0,5,,,,,,,,,4,,,64,95
26508,note_on,,2,0,4,,,,,,,,,3,,,64,95
26516,note_on,,20,0,8,,,,,,,,,7,,,50,0
26516,note_on,,20,0,2,,,,,,,,,1,,,50,0
26516,note_on,,20,0,7,,,,,,,,,6,,,50,0
26516,note_on,,20,0,6,,,,,,,,,5,,,57,0
26518,note_on,,10,0,5,,,,,,,,,4,,,64,0
26518,note_on,,10,0,4,,,,,,,,,3,,,64,0
26520,note_on,,4,0,7,,,,,,,,,6,,,47,95
26520,note_on,,4,0,6,,,,,,,,,5,,,62,95
26520,note_on,,4,0,2,,,,,,,,,1,,,47,79
26520,note_on,,4,0,8,,,,,,,,,7,,,47,95
26520,note_on,,2,0,5,,,,,,,,,4,,,66,95
26520,note_on,,2,0,4,,,,,,,,,3,,,66,95
26530,note_on,,10,0,5,,,,,,,,,4,,,66,0
26530,note_on,,10,0,4,,,,,,,,,3,,,66,0
26532,note_on,,2,0,5,,,,,,,,,4,,,62,95
26532,note_on,,2,0,4,,,,,,,,,3,,,62,95
26540,note_on,,20,0,6,,,,,,,,,5,,,62,0
26540,note_on,,20,0,8,,,,,,,,,7,,,47,0
26540,note_on,,20,0,7,,,,,,,,,6,,,47,0
26540,note_on,,20,0,2,,,,,,,,,1,,,47,0
26542,note_on,,10,0,4,,,,,,,,,3,,,62,0
26542,note_on,,10,0,5,,,,,,,,,4,,,62,0
26544,note_on,,4,0,6,,,,,,,,,5,,,62,95
26544,note_on,,4,0,7,,,,,,,,,6,,,43,95
26544,note_on,,4,0,2,,,,,,,,,1,,,43,79
26544,note_on,,2,0,5,,,,,,,,,4,,,64,95
26544,note_on,,2,0,4,,,,,,,,,3,,,64,95
26544,note_on,,4,0,8,,,,,,,,,7,,,43,95
26554,note_on,,10,0,5,,,,,,,,,4,,,64,0
26554,note_on,,10,0,4,,,,,,,,,3,,,64,0
26556,note_on,,2,0,5,,,,,,,,,4,,,64,95
26556,note_on,,2,0,4,,,,,,,,,3,,,64,95
26564,note_on,,20,0,6,,,,,,,,,5,,,62,0
26564,note_on,,20,0,7,,,,,,,,,6,,,43,0
26564,note_on,,20,0,8,,,,,,,,,7,,,43,0
26564,note_on,,20,0,2,,,,,,,,,1,,,43,0
26566,note_on,,10,0,5,,,,,,,,,4,,,64,0
26566,note_on,,10,0,4,,,,,,,,,3,,,64,0
26568,note_on,,4,0,7,,,,,,,,,6,,,45,95
26568,note_on,,2,0,5,,,,,,,,,4,,,57,95
26568,note_on,,4,0,8,,,,,,,,,7,,,45,95
26568,note_on,,4,0,2,,,,,,,,,1,,,45,79
26568,note_on,,4,0,6,,,,,,,,,5,,,61,95
26568,note_on,,2,0,4,,,,,,,,,3,,,57,95
26578,note_on,,10,0,5,,,,,,,,,4,,,57,0
26578,note_on,,10,0,4,,,,,,,,,3,,,57,0
26580,note_on,,2,0,5,,,,,,,,,4,,,57,95
26580,note_on,,2,0,4,,,,,,,,,3,,,57,95
26588,note_on,,20,0,7,,,,,,,,,6,,,45,0
26588,note_on,,20,0,2,,,,,,,,,1,,,45,0
26588,note_on,,20,0,8,,,,,,,,,7,,,45,0
26588,note_on,,20,0,6,,,,,,,,,5,,,61,0
26590,note_on,,10,0,4,,,,,,,,,3,,,57,0
26590,note_on,,10,0,5,,,,,,,,,4,,,57,0
26592,note_on,,2,0,4,,,,,,,,,3,,,62,95
26592,note_on,,4,0,6,,,,,,,,,5,,,57,95
26592,note_on,,2,0,5,,,,,,,,,4,,,62,95
26592,note_on,,4,0,2,,,,,,,,,1,,,42,79
26592,note_on,,4,0,8,,,,,,,,,7,,,42,95
26592,note_on,,4,0,7,,,,,,,,,6,,,42,95
26597,note_on,,5,0,2,,,,,,,,,1,,,42,0
26598,note_on,,1,0,2,,,,,,,,,1,,,50,79
26603,note_on,,5,0,2,,,,,,,,,1,,,50,0
26604,note_on,,1,0,2,,,,,,,,,1,,,52,79
26609,note_on,,5,0,2,,,,,,,,,1,,,52,0
26610,note_on,,1,0,2,,,,,,,,,1,,,54,79
26612,note_on,,20,0,4,,,,,,,,,3,,,62,0
26612,note_on,,20,0,8,,,,,,,,,7,,,42,0
26612,note_on,,20,0,7,,,,,,,,,6,,,42,0
26612,note_on,,20,0,5,,,,,,,,,4,,,62,0
26612,note_on,,20,0,6,,,,,,,,,5,,,57,0
26615,note_on,,5,0,2,,,,,,,,,1,,,54,0
26616,note_on,,4,0,4,,,,,,,,,3,,,74,95
26616,note_on,,4,0,5,,,,,,,,,4,,,57,56
26616,note_on,,4,0,6,,,,,,,,,5,,,54,63
26616,note_on,,1,0,2,,,,,,,,,1,,,55,79
26621,note_on,,5,0,2,,,,,,,,,1,,,55,0
26622,note_on,,1,0,2,,,,,,,,,1,,,57,79
26626,note_on,,10,0,4,,,,,,,,,3,,,74,0
26627,note_on,,5,0,2,,,,,,,,,1,,,57,0
26628,note_on,,1,0,2,,,,,,,,,1,,,59,79
26628,note_on,,2,0,4,,,,,,,,,3,,,76,95
26633,note_on,,5,0,2,,,,,,,,,1,,,59,0
26634,note_on,,1,0,2,,,,,,,,,1,,,61,79
26636,note_on,,20,0,6,,,,,,,,,5,,,54,0
26636,note_on,,20,0,5,,,,,,,,,4,,,57,0
26638,note_on,,10,0,4,,,,,,,,,3,,,76,0
26639,note_on,,5,0,2,,,,,,,,,1,,,61,0
26640,note_on,,2,0,4,,,,,,,,,3,,,74,95
26640,note_on,,4,0,6,,,,,,,,,5,,,54,63
26640,note_on,,968,0,1,,,,,,,,,0,,,62,95
26640,note_on,,4,0,5,,,,,,,,,4,,,57,56
26645,note_on,,5,0,1,,,,,,,,,0,,,62,0
26646,note_on,,1,0,1,,,,,,,,,0,,,64,95
26651,note_on,,5,0,1,,,,,,,,,0,,,64,0
26652,note_on,,1,0,1,,,,,,,,,0,,,66,95
26657,note_on,,5,0,1,,,,,,,,,0,,,66,0
26658,note_on,,1,0,1,,,,,,,,,0,,,67,95
26660,note_on,,20,0,5,,,,,,,,,4,,,57,0
26660,note_on,,20,0,6,,,,,,,,,5,,,54,0
26660,note_on,,20,0,4,,,,,,,,,3,,,74,0
26663,note_on,,5,0,1,,,,,,,,,0,,,67,0
26664,note_on,,1,0,1,,,,,,,,,0,,,69,95
26664,note_on,,608,0,3,,,,,,,,,2,,,74,95
26664,note_on,,52,0,8,,,,,,,,,7,,,50,63
26664,note_on,,4,0,6,,,,,,,,,5,,,54,63
26664,note_on,,4,0,5,,,,,,,,,4,,,57,56
26664,note_on,,52,0,7,,,,,,,,,6,,,50,63
26669,note_on,,5,0,1,,,,,,,,,0,,,69,0
26670,note_on,,1,0,1,,,,,,,,,0,,,71,95
26674,note_on,,10,0,3,,,,,,,,,2,,,74,0
26675,note_on,,5,0,1,,,,,,,,,0,,,71,0
26676,note_on,,1,0,1,,,,,,,,,0,,,72,95
26676,note_on,,2,0,3,,,,,,,,,2,,,76,95
26681,note_on,,5,0,1,,,,,,,,,0,,,72,0
26682,note_on,,1,0,1,,,,,,,,,0,,,69,95
26684,note_on,,20,0,5,,,,,,,,,4,,,57,0
26684,note_on,,20,0,8,,,,,,,,,7,,,50,0
26684,note_on,,20,0,7,,,,,,,,,6,,,50,0
26684,note_on,,20,0,6,,,,,,,,,5,,,54,0
26686,note_on,,10,0,3,,,,,,,,,2,,,76,0
26687,note_on,,5,0,1,,,,,,,,,0,,,69,0
26688,note_on,,4,0,7,,,,,,,,,6,,,43,63
26688,note_on,,2,0,3,,,,,,,,,2,,,74,95
26688,note_on,,4,0,8,,,,,,,,,7,,,31,63
26688,note_on,,1,0,1,,,,,,,,,0,,,71,95
26688,note_on,,4,0,6,,,,,,,,,5,,,55,63
26688,note_on,,4,0,5,,,,,,,,,4,,,59,56
26693,note_on,,5,0,1,,,,,,,,,0,,,71,0
26694,note_on,,1,0,1,,,,,,,,,0,,,67,95
26699,note_on,,5,0,1,,,,,,,,,0,,,67,0
26700,note_on,,1,0,1,,,,,,,,,0,,,66,95
26705,note_on,,5,0,1,,,,,,,,,0,,,66,0
26706,note_on,,1,0,1,,,,,,,,,0,,,64,95
26708,note_on,,20,0,8,,,,,,,,,7,,,31,0
26708,note_on,,20,0,3,,,,,,,,,2,,,74,0
26708,note_on,,20,0,7,,,,,,,,,6,,,43,0
26708,note_on,,20,0,6,,,,,,,,,5,,,55,0
26708,note_on,,20,0,5,,,,,,,,,4,,,59,0
26711,note_on,,5,0,1,,,,,,,,,0,,,64,0
26712,note_on,,4,0,5,,,,,,,,,4,,,59,56
26712,note_on,,52,0,4,,,,,,,,,3,,,74,95
26712,note_on,,1,0,1,,,,,,,,,0,,,62,95
26712,note_on,,4,0,6,,,,,,,,,5,,,55,63
26717,note_on,,5,0,1,,,,,,,,,0,,,62,0
26718,note_on,,1,0,1,,,,,,,,,0,,,60,95
26722,note_on,,10,0,4,,,,,,,,,3,,,74,0
26723,note_on,,5,0,1,,,,,,,,,0,,,60,0
26724,note_on,,1,0,1,,,,,,,,,0,,,59,95
26724,note_on,,2,0,4,,,,,,,,,3,,,76,95
26729,note_on,,5,0,1,,,,,,,,,0,,,59,0
26730,note_on,,1,0,1,,,,,,,,,0,,,57,95
26732,note_on,,20,0,5,,,,,,,,,4,,,59,0
26732,note_on,,20,0,6,,,,,,,,,5,,,55,0
26734,note_on,,10,0,4,,,,,,,,,3,,,76,0
26735,note_on,,5,0,1,,,,,,,,,0,,,57,0
26736,note_on,,2,0,4,,,,,,,,,3,,,74,95
26736,note_on,,4,0,5,,,,,,,,,4,,,59,56
26736,note_on,,97,0,2,,,,,,,,,1,,,55,95
26736,note_on,,4,0,6,,,,,,,,,5,,,55,63
26741,note_on,,5,0,2,,,,,,,,,1,,,55,0
26742,note_on,,1,0,2,,,,,,,,,1,,,54,95
26747,note_on,,5,0,2,,,,,,,,,1,,,54,0
26748,note_on,,1,0,2,,,,,,,,,1,,,52,95
26753,note_on,,5,0,2,,,,,,,,,1,,,52,0
26754,note_on,,1,0,2,,,,,,,,,1,,,50,95
26756,note_on,,20,0,5,,,,,,,,,4,,,59,0
26756,note_on,,20,0,6,,,,,,,,,5,,,55,0
26756,note_on,,20,0,4,,,,,,,,,3,,,74,0
26759,note_on,,5,0,2,,,,,,,,,1,,,50,0
26760,note_on,,4,0,5,,,,,,,,,4,,,59,56
26760,note_on,,52,0,8,,,,,,,,,7,,,31,63
26760,note_on,,1,0,2,,,,,,,,,1,,,48,95
26760,note_on,,4,0,4,,,,,,,,,3,,,71,95
26760,note_on,,4,0,6,,,,,,,,,5,,,55,63
26760,note_on,,52,0,7,,,,,,,,,6,,,43,63
26765,note_on,,5,0,2,,,,,,,,,1,,,48,0
26766,note_on,,1,0,2,,,,,,,,,1,,,47,95
26771,note_on,,5,0,2,,,,,,,,,1,,,47,0
26772,note_on,,1,0,2,,,,,,,,,1,,,45,95
26777,note_on,,5,0,2,,,,,,,,,1,,,45,0
26778,note_on,,1,0,2,,,,,,,,,1,,,43,95
26780,note_on,,20,0,6,,,,,,,,,5,,,55,0
26780,note_on,,20,0,4,,,,,,,,,3,,,71,0
26780,note_on,,20,0,8,,,,,,,,,7,,,31,0
26780,note_on,,20,0,5,,,,,,,,,4,,,59,0
26780,note_on,,20,0,7,,,,,,,,,6,,,43,0
26783,note_on,,5,0,2,,,,,,,,,1,,,43,0
26784,note_on,,1,0,2,,,,,,,,,1,,,44,95
26784,note_on,,4,0,4,,,,,,,,,3,,,76,95
26784,note_on,,4,0,8,,,,,,,,,7,,,28,63
26784,note_on,,4,0,5,,,,,,,,,4,,,59,56
26784,note_on,,4,0,7,,,,,,,,,6,,,40,63
26784,note_on,,4,0,6,,,,,,,,,5,,,56,63
26789,note_on,,5,0,2,,,,,,,,,1,,,44,0
26790,note_on,,1,0,2,,,,,,,,,1,,,52,95
26795,note_on,,5,0,2,,,,,,,,,1,,,52,0
26796,note_on,,1,0,2,,,,,,,,,1,,,54,95
26801,note_on,,5,0,2,,,,,,,,,1,,,54,0
26802,note_on,,1,0,2,,,,,,,,,1,,,56,95
26804,note_on,,20,0,4,,,,,,,,,3,,,76,0
26804,note_on,,20,0,8,,,,,,,,,7,,,28,0
26804,note_on,,20,0,7,,,,,,,,,6,,,40,0
26804,note_on,,20,0,5,,,,,,,,,4,,,59,0
26804,note_on,,20,0,6,,,,,,,,,5,,,56,0
26807,note_on,,5,0,2,,,,,,,,,1,,,56,0
26808,note_on,,4,0,5,,,,,,,,,4,,,59,56
26808,note_on,,1,0,2,,,,,,,,,1,,,57,95
26808,note_on,,100,0,3,,,,,,,,,2,,,76,95
26808,note_on,,4,0,6,,,,,,,,,5,,,56,63
26813,note_on,,5,0,2,,,,,,,,,1,,,57,0
26814,note_on,,1,0,2,,,,,,,,,1,,,59,95
26818,note_on,,10,0,3,,,,,,,,,2,,,76,0
26819,note_on,,5,0,2,,,,,,,,,1,,,59,0
26820,note_on,,1,0,2,,,,,,,,,1,,,61,95
26820,note_on,,2,0,3,,,,,,,,,2,,,78,95
26825,note_on,,5,0,2,,,,,,,,,1,,,61,0
26826,note_on,,1,0,2,,,,,,,,,1,,,62,95
26828,note_on,,20,0,5,,,,,,,,,4,,,59,0
26828,note_on,,20,0,6,,,,,,,,,5,,,56,0
26830,note_on,,10,0,3,,,,,,,,,2,,,78,0
26831,note_on,,5,0,2,,,,,,,,,1,,,62,0
26832,note_on,,2,0,3,,,,,,,,,2,,,76,95
26832,note_on,,97,0,1,,,,,,,,,0,,,64,95
26832,note_on,,4,0,6,,,,,,,,,5,,,56,63
26832,note_on,,4,0,5,,,,,,,,,4,,,59,56
26837,note_on,,5,0,1,,,,,,,,,0,,,64,0
26838,note_on,,1,0,1,,,,,,,,,0,,,66,95
26843,note_on,,5,0,1,,,,,,,,,0,,,66,0
26844,note_on,,1,0,1,,,,,,,,,0,,,68,95
26849,note_on,,5,0,1,,,,,,,,,0,,,68,0
26850,note_on,,1,0,1,,,,,,,,,0,,,69,95
26852,note_on,,20,0,5,,,,,,,,,4,,,59,0
26852,note_on,,20,0,6,,,,,,,,,5,,,56,0
26852,note_on,,20,0,3,,,,,,,,,2,,,76,0
26855,note_on,,5,0,1,,,,,,,,,0,,,69,0
26856,note_on,,4,0,6,,,,,,,,,5,,,56,63
26856,note_on,,52,0,8,,,,,,,,,7,,,40,63
26856,note_on,,4,0,5,,,,,,,,,4,,,59,56
26856,note_on,,52,0,4,,,,,,,,,3,,,76,95
26856,note_on,,1,0,1,,,,,,,,,0,,,71,95
26856,note_on,,52,0,7,,,,,,,,,6,,,52,63
26861,note_on,,5,0,1,,,,,,,,,0,,,71,0
26862,note_on,,1,0,1,,,,,,,,,0,,,73,95
26866,note_on,,10,0,4,,,,,,,,,3,,,76,0
26867,note_on,,5,0,1,,,,,,,,,0,,,73,0
26868,note_on,,2,0,4,,,,,,,,,3,,,78,95
26868,note_on,,1,0,1,,,,,,,,,0,,,74,95
26873,note_on,,5,0,1,,,,,,,,,0,,,74,0
26874,note_on,,1,0,1,,,,,,,,,0,,,71,95
26876,note_on,,20,0,8,,,,,,,,,7,,,40,0
26876,note_on,,20,0,7,,,,,,,,,6,,,52,0
26876,note_on,,20,0,5,,,,,,,,,4,,,59,0
26876,note_on,,20,0,6,,,,,,,,,5,,,56,0
26878,note_on,,10,0,4,,,,,,,,,3,,,78,0
26879,note_on,,5,0,1,,,,,,,,,0,,,71,0
26880,note_on,,4,0,5,,,,,,,,,4,,,61,56
26880,note_on,,2,0,4,,,,,,,,,3,,,76,95
26880,note_on,,4,0,7,,,,,,,,,6,,,45,63
26880,note_on,,4,0,6,,,,,,,,,5,,,57,63
26880,note_on,,4,0,8,,,,,,,,,7,,,33,63
26880,note_on,,1,0,1,,,,,,,,,0,,,73,95
26885,note_on,,5,0,1,,,,,,,,,0,,,73,0
26886,note_on,,1,0,1,,,,,,,,,0,,,69,95
26891,note_on,,5,0,1,,,,,,,,,0,,,69,0
26892,note_on,,1,0,1,,,,,,,,,0,,,68,95
26897,note_on,,5,0,1,,,,,,,,,0,,,68,0
26898,note_on,,1,0,1,,,,,,,,,0,,,66,95
26900,note_on,,20,0,8,,,,,,,,,7,,,33,0
26900,note_on,,20,0,7,,,,,,,,,6,,,45,0
26900,note_on,,20,0,5,,,,,,,,,4,,,61,0
26900,note_on,,20,0,4,,,,,,,,,3,,,76,0
26900,note_on,,20,0,6,,,,,,,,,5,,,57,0
26903,note_on,,5,0,1,,,,,,,,,0,,,66,0
26904,note_on,,4,0,5,,,,,,,,,4,,,61,56
26904,note_on,,1,0,1,,,,,,,,,0,,,64,95
26904,note_on,,52,0,3,,,,,,,,,2,,,76,95
26904,note_on,,4,0,6,,,,,,,,,5,,,57,63
26909,note_on,,5,0,1,,,,,,,,,0,,,64,0
26910,note_on,,1,0,1,,,,,,,,,0,,,62,95
26914,note_on,,10,0,3,,,,,,,,,2,,,76,0
26915,note_on,,5,0,1,,,,,,,,,0,,,62,0
26916,note_on,,1,0,1,,,,,,,,,0,,,61,95
26916,note_on,,2,0,3,,,,,,,,,2,,,78,95
26921,note_on,,5,0,1,,,,,,,,,0,,,61,0
26922,note_on,,1,0,1,,,,,,,,,0,,,59,95
26924,note_on,,20,0,6,,,,,,,,,5,,,57,0
26924,note_on,,20,0,5,,,,,,,,,4,,,61,0
26926,note_on,,10,0,3,,,,,,,,,2,,,78,0
26927,note_on,,5,0,1,,,,,,,,,0,,,59,0
26928,note_on,,2,0,3,,,,,,,,,2,,,76,95
26928,note_on,,4,0,6,,,,,,,,,5,,,57,63
26928,note_on,,97,0,2,,,,,,,,,1,,,57,95
26928,note_on,,4,0,5,,,,,,,,,4,,,61,56
26933,note_on,,5,0,2,,,,,,,,,1,,,57,0
26934,note_on,,1,0,2,,,,,,,,,1,,,56,95
26939,note_on,,5,0,2,,,,,,,,,1,,,56,0
26940,note_on,,1,0,2,,,,,,,,,1,,,54,95
26945,note_on,,5,0,2,,,,,,,,,1,,,54,0
26946,note_on,,1,0,2,,,,,,,,,1,,,52,95
26948,note_on,,20,0,5,,,,,,,,,4,,,61,0
26948,note_on,,20,0,3,,,,,,,,,2,,,76,0
26948,note_on,,20,0,6,,,,,,,,,5,,,57,0
26951,note_on,,5,0,2,,,,,,,,,1,,,52,0
26952,note_on,,1,0,2,,,,,,,,,1,,,50,95
26952,note_on,,4,0,3,,,,,,,,,2,,,73,95
26952,note_on,,4,0,6,,,,,,,,,5,,,57,63
26952,note_on,,52,0,8,,,,,,,,,7,,,33,63
26952,note_on,,52,0,7,,,,,,,,,6,,,45,63
26952,note_on,,4,0,5,,,,,,,,,4,,,61,56
26957,note_on,,5,0,2,,,,,,,,,1,,,50,0
26958,note_on,,1,0,2,,,,,,,,,1,,,49,95
26963,note_on,,5,0,2,,,,,,,,,1,,,49,0
26964,note_on,,1,0,2,,,,,,,,,1,,,47,95
26969,note_on,,5,0,2,,,,,,,,,1,,,47,0
26970,note_on,,1,0,2,,,,,,,,,1,,,45,95
26972,note_on,,20,0,6,,,,,,,,,5,,,57,0
26972,note_on,,20,0,7,,,,,,,,,6,,,45,0
26972,note_on,,20,0,8,,,,,,,,,7,,,33,0
26972,note_on,,20,0,5,,,,,,,,,4,,,61,0
26972,note_on,,20,0,3,,,,,,,,,2,,,73,0
26975,note_on,,5,0,2,,,,,,,,,1,,,45,0
26976,note_on,,4,0,8,,,,,,,,,7,,,30,63
26976,note_on,,4,0,5,,,,,,,,,4,,,61,56
26976,note_on,,4,0,3,,,,,,,,,2,,,78,95
26976,note_on,,4,0,7,,,,,,,,,6,,,42,63
26976,note_on,,1,0,2,,,,,,,,,1,,,46,95
26976,note_on,,4,0,6,,,,,,,,,5,,,58,63
26981,note_on,,5,0,2,,,,,,,,,1,,,46,0
26982,note_on,,1,0,2,,,,,,,,,1,,,54,95
26987,note_on,,5,0,2,,,,,,,,,1,,,54,0
26988,note_on,,1,0,2,,,,,,,,,1,,,56,95
26993,note_on,,5,0,2,,,,,,,,,1,,,56,0
26994,note_on,,1,0,2,,,,,,,,,1,,,58,95
26996,note_on,,20,0,8,,,,,,,,,7,,,30,0
26996,note_on,,20,0,5,,,,,,,,,4,,,61,0
26996,note_on,,20,0,7,,,,,,,,,6,,,42,0
26996,note_on,,20,0,6,,,,,,,,,5,,,58,0
26996,note_on,,20,0,3,,,,,,,,,2,,,78,0
26999,note_on,,5,0,2,,,,,,,,,1,,,58,0
27000,note_on,,4,0,6,,,,,,,,,5,,,58,63
27000,note_on,,1,0,2,,,,,,,,,1,,,59,95
27000,note_on,,100,0,4,,,,,,,,,3,,,78,95
27000,note_on,,4,0,5,,,,,,,,,4,,,61,56
27005,note_on,,5,0,2,,,,,,,,,1,,,59,0
27006,note_on,,1,0,2,,,,,,,,,1,,,61,95
27010,note_on,,10,0,4,,,,,,,,,3,,,78,0
27011,note_on,,5,0,2,,,,,,,,,1,,,61,0
27012,note_on,,2,0,4,,,,,,,,,3,,,79,95
27012,note_on,,1,0,2,,,,,,,,,1,,,62,95
27017,note_on,,5,0,2,,,,,,,,,1,,,62,0
27018,note_on,,1,0,2,,,,,,,,,1,,,64,95
27020,note_on,,20,0,5,,,,,,,,,4,,,61,0
27020,note_on,,20,0,6,,,,,,,,,5,,,58,0
27022,note_on,,10,0,4,,,,,,,,,3,,,79,0
27023,note_on,,5,0,2,,,,,,,,,1,,,64,0
27024,note_on,,4,0,6,,,,,,,,,5,,,58,63
27024,note_on,,4,0,5,,,,,,,,,4,,,61,56
27024,note_on,,2,0,4,,,,,,,,,3,,,78,95
27024,note_on,,97,0,1,,,,,,,,,0,,,66,95
27029,note_on,,5,0,1,,,,,,,,,0,,,66,0
27030,note_on,,1,0,1,,,,,,,,,0,,,68,95
27035,note_on,,5,0,1,,,,,,,,,0,,,68,0
27036,note_on,,1,0,1,,,,,,,,,0,,,70,95
27041,note_on,,5,0,1,,,,,,,,,0,,,70,0
27042,note_on,,1,0,1,,,,,,,,,0,,,71,95
27044,note_on,,20,0,5,,,,,,,,,4,,,61,0
27044,note_on,,20,0,4,,,,,,,,,3,,,78,0
27044,note_on,,20,0,6,,,,,,,,,5,,,58,0
27047,note_on,,5,0,1,,,,,,,,,0,,,71,0
27048,note_on,,4,0,5,,,,,,,,,4,,,61,56
27048,note_on,,4,0,6,,,,,,,,,5,,,58,63
27048,note_on,,52,0,3,,,,,,,,,2,,,78,95
27048,note_on,,52,0,8,,,,,,,,,7,,,42,63
27048,note_on,,52,0,7,,,,,,,,,6,,,54,63
27048,note_on,,1,0,1,,,,,,,,,0,,,73,95
27053,note_on,,5,0,1,,,,,,,,,0,,,73,0
27054,note_on,,1,0,1,,,,,,,,,0,,,74,95
27058,note_on,,10,0,3,,,,,,,,,2,,,78,0
27059,note_on,,5,0,1,,,,,,,,,0,,,74,0
27060,note_on,,2,0,3,,,,,,,,,2,,,79,95
27060,note_on,,1,0,1,,,,,,,,,0,,,76,95
27065,note_on,,5,0,1,,,,,,,,,0,,,76,0
27066,note_on,,1,0,1,,,,,,,,,0,,,73,95
27068,note_on,,20,0,7,,,,,,,,,6,,,54,0
27068,note_on,,20,0,5,,,,,,,,,4,,,61,0
27068,note_on,,20,0,8,,,,,,,,,7,,,42,0
27068,note_on,,20,0,6,,,,,,,,,5,,,58,0
27070,note_on,,10,0,3,,,,,,,,,2,,,79,0
27071,note_on,,5,0,1,,,,,,,,,0,,,73,0
27072,note_on,,2,0,3,,,,,,,,,2,,,78,95
27072,note_on,,4,0,6,,,,,,,,,5,,,59,63
27072,note_on,,4,0,5,,,,,,,,,4,,,62,56
27072,note_on,,4,0,8,,,,,,,,,7,,,35,63
27072,note_on,,1,0,1,,,,,,,,,0,,,74,95
27072,note_on,,4,0,7,,,,,,,,,6,,,47,63
27077,note_on,,5,0,1,,,,,,,,,0,,,74,0
27078,note_on,,1,0,1,,,,,,,,,0,,,71,95
27083,note_on,,5,0,1,,,,,,,,,0,,,71,0
27084,note_on,,1,0,1,,,,,,,,,0,,,69,95
27089,note_on,,5,0,1,,,,,,,,,0,,,69,0
27090,note_on,,1,0,1,,,,,,,,,0,,,67,95
27092,note_on,,20,0,5,,,,,,,,,4,,,62,0
27092,note_on,,20,0,6,,,,,,,,,5,,,59,0
27092,note_on,,20,0,8,,,,,,,,,7,,,35,0
27092,note_on,,20,0,3,,,,,,,,,2,,,78,0
27092,note_on,,20,0,7,,,,,,,,,6,,,47,0
27095,note_on,,5,0,1,,,,,,,,,0,,,67,0
27096,note_on,,52,0,4,,,,,,,,,3,,,78,95
27096,note_on,,4,0,5,,,,,,,,,4,,,62,56
27096,note_on,,1,0,1,,,,,,,,,0,,,66,95
27096,note_on,,4,0,6,,,,,,,,,5,,,59,63
27101,note_on,,5,0,1,,,,,,,,,0,,,66,0
27102,note_on,,1,0,1,,,,,,,,,0,,,64,95
27106,note_on,,10,0,4,,,,,,,,,3,,,78,0
27107,note_on,,5,0,1,,,,,,,,,0,,,64,0
27108,note_on,,2,0,4,,,,,,,,,3,,,79,95
27108,note_on,,1,0,1,,,,,,,,,0,,,62,95
27113,note_on,,5,0,1,,,,,,,,,0,,,62,0
27114,note_on,,1,0,1,,,,,,,,,0,,,61,95
27116,note_on,,20,0,5,,,,,,,,,4,,,62,0
27116,note_on,,20,0,6,,,,,,,,,5,,,59,0
27118,note_on,,10,0,4,,,,,,,,,3,,,79,0
27119,note_on,,5,0,1,,,,,,,,,0,,,61,0
27120,note_on,,2,0,4,,,,,,,,,3,,,78,95
27120,note_on,,97,0,2,,,,,,,,,1,,,59,95
27120,note_on,,4,0,5,,,,,,,,,4,,,62,56
27120,note_on,,4,0,6,,,,,,,,,5,,,59,63
27125,note_on,,5,0,2,,,,,,,,,1,,,59,0
27126,note_on,,1,0,2,,,,,,,,,1,,,57,95
27131,note_on,,5,0,2,,,,,,,,,1,,,57,0
27132,note_on,,1,0,2,,,,,,,,,1,,,55,95
27137,note_on,,5,0,2,,,,,,,,,1,,,55,0
27138,note_on,,1,0,2,,,,,,,,,1,,,54,95
27140,note_on,,20,0,4,,,,,,,,,3,,,78,0
27140,note_on,,20,0,6,,,,,,,,,5,,,59,0
27140,note_on,,20,0,5,,,,,,,,,4,,,62,0
27143,note_on,,5,0,2,,,,,,,,,1,,,54,0
27144,note_on,,1,0,2,,,,,,,,,1,,,52,95
27144,note_on,,4,0,4,,,,,,,,,3,,,74,95
27144,note_on,,52,0,7,,,,,,,,,6,,,47,63
27144,note_on,,4,0,5,,,,,,,,,4,,,62,56
27144,note_on,,4,0,6,,,,,,,,,5,,,59,63
27144,note_on,,52,0,8,,,,,,,,,7,,,35,63
27149,note_on,,5,0,2,,,,,,,,,1,,,52,0
27150,note_on,,1,0,2,,,,,,,,,1,,,50,95
27155,note_on,,5,0,2,,,,,,,,,1,,,50,0
27156,note_on,,1,0,2,,,,,,,,,1,,,49,95
27161,note_on,,5,0,2,,,,,,,,,1,,,49,0
27162,note_on,,1,0,2,,,,,,,,,1,,,47,95
27164,note_on,,20,0,6,,,,,,,,,5,,,59,0
27164,note_on,,20,0,4,,,,,,,,,3,,,74,0
27164,note_on,,20,0,7,,,,,,,,,6,,,47,0
27164,note_on,,20,0,5,,,,,,,,,4,,,62,0
27164,note_on,,20,0,8,,,,,,,,,7,,,35,0
27167,note_on,,5,0,2,,,,,,,,,1,,,47,0
27168,note_on,,1,0,2,,,,,,,,,1,,,49,95
27168,note_on,,4,0,4,,,,,,,,,3,,,81,95
27168,note_on,,4,0,6,,,,,,,,,5,,,61,63
27168,note_on,,4,0,7,,,,,,,,,6,,,45,63
27168,note_on,,4,0,8,,,,,,,,,7,,,33,63
27168,note_on,,4,0,5,,,,,,,,,4,,,64,56
27173,note_on,,5,0,2,,,,,,,,,1,,,49,0
27174,note_on,,1,0,2,,,,,,,,,1,,,57,95
27179,note_on,,5,0,2,,,,,,,,,1,,,57,0
27180,note_on,,1,0,2,,,,,,,,,1,,,59,95
27185,note_on,,5,0,2,,,,,,,,,1,,,59,0
27186,note_on,,1,0,2,,,,,,,,,1,,,61,95
27188,note_on,,20,0,8,,,,,,,,,7,,,33,0
27188,note_on,,20,0,7,,,,,,,,,6,,,45,0
27188,note_on,,20,0,5,,,,,,,,,4,,,64,0
27188,note_on,,20,0,6,,,,,,,,,5,,,61,0
27188,note_on,,20,0,4,,,,,,,,,3,,,81,0
27191,note_on,,5,0,2,,,,,,,,,1,,,61,0
27192,note_on,,4,0,5,,,,,,,,,4,,,64,56
27192,note_on,,100,0,3,,,,,,,,,2,,,81,95
27192,note_on,,4,0,6,,,,,,,,,5,,,61,63
27192,note_on,,1,0,2,,,,,,,,,1,,,62,95
27197,note_on,,5,0,2,,,,,,,,,1,,,62,0
27198,note_on,,1,0,2,,,,,,,,,1,,,64,95
27202,note_on,,10,0,3,,,,,,,,,2,,,81,0
27203,note_on,,5,0,2,,,,,,,,,1,,,64,0
27204,note_on,,2,0,3,,,,,,,,,2,,,83,95
27204,note_on,,1,0,2,,,,,,,,,1,,,66,95
27209,note_on,,5,0,2,,,,,,,,,1,,,66,0
27210,note_on,,1,0,2,,,,,,,,,1,,,67,95
27212,note_on,,20,0,6,,,,,,,,,5,,,61,0
27212,note_on,,20,0,5,,,,,,,,,4,,,64,0
27214,note_on,,10,0,3,,,,,,,,,2,,,83,0
27215,note_on,,5,0,2,,,,,,,,,1,,,67,0
27216,note_on,,97,0,1,,,,,,,,,0,,,69,95
27216,note_on,,4,0,5,,,,,,,,,4,,,64,56
27216,note_on,,4,0,6,,,,,,,,,5,,,61,63
27216,note_on,,2,0,3,,,,,,,,,2,,,81,95
27221,note_on,,5,0,1,,,,,,,,,0,,,69,0
27222,note_on,,1,0,1,,,,,,,,,0,,,71,95
27227,note_on,,5,0,1,,,,,,,,,0,,,71,0
27228,note_on,,1,0,1,,,,,,,,,0,,,73,95
27233,note_on,,5,0,1,,,,,,,,,0,,,73,0
27234,note_on,,1,0,1,,,,,,,,,0,,,74,95
27236,note_on,,20,0,6,,,,,,,,,5,,,61,0
27236,note_on,,20,0,5,,,,,,,,,4,,,64,0
27236,note_on,,20,0,3,,,,,,,,,2,,,81,0
27239,note_on,,5,0,1,,,,,,,,,0,,,74,0
27240,note_on,,52,0,4,,,,,,,,,3,,,81,95
27240,note_on,,1,0,1,,,,,,,,,0,,,76,95
27240,note_on,,52,0,7,,,,,,,,,6,,,57,63
27240,note_on,,4,0,6,,,,,,,,,5,,,61,63
27240,note_on,,4,0,5,,,,,,,,,4,,,64,56
27240,note_on,,52,0,8,,,,,,,,,7,,,45,63
27245,note_on,,5,0,1,,,,,,,,,0,,,76,0
27246,note_on,,1,0,1,,,,,,,,,0,,,78,95
27250,note_on,,10,0,4,,,,,,,,,3,,,81,0
27251,note_on,,5,0,1,,,,,,,,,0,,,78,0
27252,note_on,,1,0,1,,,,,,,,,0,,,79,95
27252,note_on,,2,0,4,,,,,,,,,3,,,83,95
27257,note_on,,5,0,1,,,,,,,,,0,,,79,0
27258,note_on,,1,0,1,,,,,,,,,0,,,76,95
27260,note_on,,20,0,7,,,,,,,,,6,,,57,0
27260,note_on,,20,0,5,,,,,,,,,4,,,64,0
27260,note_on,,20,0,8,,,,,,,,,7,,,45,0
27260,note_on,,20,0,6,,,,,,,,,5,,,61,0
27262,note_on,,10,0,4,,,,,,,,,3,,,83,0
27263,note_on,,5,0,1,,,,,,,,,0,,,76,0
27264,note_on,,4,0,6,,,,,,,,,5,,,62,63
27264,note_on,,2,0,4,,,,,,,,,3,,,81,95
27264,note_on,,4,0,7,,,,,,,,,6,,,50,63
27264,note_on,,4,0,8,,,,,,,,,7,,,38,63
27264,note_on,,1,0,1,,,,,,,,,0,,,78,95
27264,note_on,,4,0,5,,,,,,,,,4,,,66,56
27269,note_on,,5,0,1,,,,,,,,,0,,,78,0
27270,note_on,,1,0,1,,,,,,,,,0,,,74,95
27275,note_on,,5,0,1,,,,,,,,,0,,,74,0
27276,note_on,,1,0,1,,,,,,,,,0,,,73,95
27281,note_on,,5,0,1,,,,,,,,,0,,,73,0
27282,note_on,,1,0,1,,,,,,,,,0,,,71,95
27284,note_on,,20,0,7,,,,,,,,,6,,,50,0
27284,note_on,,20,0,8,,,,,,,,,7,,,38,0
27284,note_on,,20,0,6,,,,,,,,,5,,,62,0
27284,note_on,,20,0,4,,,,,,,,,3,,,81,0
27284,note_on,,20,0,5,,,,,,,,,4,,,66,0
27287,note_on,,5,0,1,,,,,,,,,0,,,71,0
27288,note_on,,52,0,3,,,,,,,,,2,,,81,95
27288,note_on,,4,0,6,,,,,,,,,5,,,62,63
27288,note_on,,4,0,5,,,,,,,,,4,,,66,56
27288,note_on,,1,0,1,,,,,,,,,0,,,69,95
27293,note_on,,5,0,1,,,,,,,,,0,,,69,0
27294,note_on,,1,0,1,,,,,,,,,0,,,67,95
27298,note_on,,10,0,3,,,,,,,,,2,,,81,0
27299,note_on,,5,0,1,,,,,,,,,0,,,67,0
27300,note_on,,1,0,1,,,,,,,,,0,,,66,95
27300,note_on,,2,0,3,,,,,,,,,2,,,83,95
27305,note_on,,5,0,1,,,,,,,,,0,,,66,0
27306,note_on,,1,0,1,,,,,,,,,0,,,64,95
27308,note_on,,20,0,5,,,,,,,,,4,,,66,0
27308,note_on,,20,0,6,,,,,,,,,5,,,62,0
27310,note_on,,10,0,3,,,,,,,,,2,,,83,0
27311,note_on,,5,0,1,,,,,,,,,0,,,64,0
27312,note_on,,1,0,1,,,,,,,,,0,,,62,95
27312,note_on,,4,0,6,,,,,,,,,5,,,62,63
27312,note_on,,4,0,5,,,,,,,,,4,,,66,56
27312,note_on,,2,0,3,,,,,,,,,2,,,81,95
27317,note_on,,5,0,1,,,,,,,,,0,,,62,0
27318,note_on,,1,0,1,,,,,,,,,0,,,64,95
27323,note_on,,5,0,1,,,,,,,,,0,,,64,0
27324,note_on,,1,0,1,,,,,,,,,0,,,66,95
27329,note_on,,5,0,1,,,,,,,,,0,,,66,0
27330,note_on,,1,0,1,,,,,,,,,0,,,67,95
27332,note_on,,20,0,6,,,,,,,,,5,,,62,0
27332,note_on,,20,0,5,,,,,,,,,4,,,66,0
27332,note_on,,20,0,3,,,,,,,,,2,,,81,0
27335,note_on,,5,0,1,,,,,,,,,0,,,67,0
27336,note_on,,1,0,1,,,,,,,,,0,,,69,95
27336,note_on,,4,0,3,,,,,,,,,2,,,84,95
27336,note_on,,4,0,6,,,,,,,,,5,,,62,63
27336,note_on,,52,0,4,,,,,,,,,3,,,81,95
27336,note_on,,4,0,5,,,,,,,,,4,,,66,56
27341,note_on,,5,0,1,,,,,,,,,0,,,69,0
27342,note_on,,1,0,1,,,,,,,,,0,,,71,95
27347,note_on,,5,0,1,,,,,,,,,0,,,71,0
27348,note_on,,1,0,1,,,,,,,,,0,,,72,95
27353,note_on,,5,0,1,,,,,,,,,0,,,72,0
27354,note_on,,1,0,1,,,,,,,,,0,,,69,95
27356,note_on,,20,0,6,,,,,,,,,5,,,62,0
27356,note_on,,20,0,5,,,,,,,,,4,,,66,0
27356,note_on,,20,0,4,,,,,,,,,3,,,81,0
27356,note_on,,20,0,3,,,,,,,,,2,,,84,0
27359,note_on,,5,0,1,,,,,,,,,0,,,69,0
27360,note_on,,4,0,3,,,,,,,,,2,,,84,95
27360,note_on,,1,0,1,,,,,,,,,0,,,71,95
27360,note_on,,4,0,4,,,,,,,,,3,,,81,95
27360,note_on,,4,0,6,,,,,,,,,5,,,67,63
27360,note_on,,4,0,5,,,,,,,,,4,,,67,56
27365,note_on,,5,0,1,,,,,,,,,0,,,71,0
27366,note_on,,1,0,1,,,,,,,,,0,,,67,95
27370,note_on,,10,0,4,,,,,,,,,3,,,81,0
27370,note_on,,10,0,3,,,,,,,,,2,,,84,0
27371,note_on,,5,0,1,,,,,,,,,0,,,67,0
27372,note_on,,2,0,4,,,,,,,,,3,,,78,95
27372,note_on,,2,0,3,,,,,,,,,2,,,81,95
27372,note_on,,1,0,1,,,,,,,,,0,,,69,95
27377,note_on,,5,0,1,,,,,,,,,0,,,69,0
27378,note_on,,1,0,1,,,,,,,,,0,,,71,95
27380,note_on,,20,0,5,,,,,,,,,4,,,67,0
27380,note_on,,20,0,6,,,,,,,,,5,,,67,0
27382,note_on,,10,0,3,,,,,,,,,2,,,81,0
27382,note_on,,10,0,4,,,,,,,,,3,,,78,0
27383,note_on,,5,0,1,,,,,,,,,0,,,71,0
27384,note_on,,4,0,5,,,,,,,,,4,,,71,56
27384,note_on,,4,0,6,,,,,,,,,5,,,74,63
27384,note_on,,2,0,3,,,,,,,,,2,,,83,95
27384,note_on,,2,0,4,,,,,,,,,3,,,79,95
27384,note_on,,1,0,1,,,,,,,,,0,,,73,95
27389,note_on,,5,0,1,,,,,,,,,0,,,73,0
27390,note_on,,1,0,1,,,,,,,,,0,,,74,95
27392,note_on,,8,0,3,,,,,,,,,2,,,83,0
27392,note_on,,8,0,4,,,,,,,,,3,,,79,0
27395,note_on,,5,0,1,,,,,,,,,0,,,74,0
27396,note_on,,1,0,1,,,,,,,,,0,,,76,95
27401,note_on,,5,0,1,,,,,,,,,0,,,76,0
27402,note_on,,1,0,1,,,,,,,,,0,,,78,95
27404,note_on,,20,0,6,,,,,,,,,5,,,74,0
27404,note_on,,20,0,5,,,,,,,,,4,,,71,0
27407,note_on,,5,0,1,,,,,,,,,0,,,78,0
27408,note_on,,4,0,5,,,,,,,,,4,,,61,56
27408,note_on,,1,0,1,,,,,,,,,0,,,76,95
27408,note_on,,4,0,6,,,,,,,,,5,,,61,63
27413,note_on,,5,0,1,,,,,,,,,0,,,76,0
27414,note_on,,1,0,1,,,,,,,,,0,,,61,95
27419,note_on,,5,0,1,,,,,,,,,0,,,61,0
27420,note_on,,1,0,1,,,,,,,,,0,,,62,95
27425,note_on,,5,0,1,,,,,,,,,0,,,62,0
27426,note_on,,1,0,1,,,,,,,,,0,,,64,95
27428,note_on,,20,0,6,,,,,,,,,5,,,61,0
27428,note_on,,20,0,5,,,,,,,,,4,,,61,0
27431,note_on,,5,0,1,,,,,,,,,0,,,64,0
27432,note_on,,1,0,1,,,,,,,,,0,,,66,95
27432,note_on,,4,0,5,,,,,,,,,4,,,64,56
27432,note_on,,40,0,3,,,,,,,,,2,,,83,95
27432,note_on,,40,0,4,,,,,,,,,3,,,79,95
27432,note_on,,4,0,6,,,,,,,,,5,,,64,63
27437,note_on,,5,0,1,,,,,,,,,0,,,66,0
27438,note_on,,1,0,1,,,,,,,,,0,,,67,95
27443,note_on,,5,0,1,,,,,,,,,0,,,67,0
27444,note_on,,1,0,1,,,,,,,,,0,,,69,95
27449,note_on,,5,0,1,,,,,,,,,0,,,69,0
27450,note_on,,1,0,1,,,,,,,,,0,,,71,95
27452,note_on,,20,0,4,,,,,,,,,3,,,79,0
27452,note_on,,20,0,5,,,,,,,,,4,,,64,0
27452,note_on,,20,0,3,,,,,,,,,2,,,83,0
27452,note_on,,20,0,6,,,,,,,,,5,,,64,0
27455,note_on,,5,0,1,,,,,,,,,0,,,71,0
27456,note_on,,1,0,1,,,,,,,,,0,,,69,95
27456,note_on,,4,0,4,,,,,,,,,3,,,79,95
27456,note_on,,4,0,3,,,,,,,,,2,,,83,95
27456,note_on,,4,0,5,,,,,,,,,4,,,66,56
27456,note_on,,4,0,6,,,,,,,,,5,,,66,63
27461,note_on,,5,0,1,,,,,,,,,0,,,69,0
27462,note_on,,1,0,1,,,,,,,,,0,,,66,95
27466,note_on,,10,0,4,,,,,,,,,3,,,79,0
27466,note_on,,10,0,3,,,,,,,,,2,,,83,0
27467,note_on,,5,0,1,,,,,,,,,0,,,66,0
27468,note_on,,1,0,1,,,,,,,,,0,,,67,95
27468,note_on,,2,0,4,,,,,,,,,3,,,76,95
27468,note_on,,2,0,3,,,,,,,,,2,,,79,95
27473,note_on,,5,0,1,,,,,,,,,0,,,67,0
27474,note_on,,1,0,1,,,,,,,,,0,,,69,95
27476,note_on,,20,0,5,,,,,,,,,4,,,66,0
27476,note_on,,20,0,6,,,,,,,,,5,,,66,0
27478,note_on,,10,0,4,,,,,,,,,3,,,76,0
27478,note_on,,10,0,3,,,,,,,,,2,,,79,0
27479,note_on,,5,0,1,,,,,,,,,0,,,69,0
27480,note_on,,1,0,1,,,,,,,,,0,,,71,95
27480,note_on,,2,0,4,,,,,,,,,3,,,78,95
27480,note_on,,2,0,3,,,,,,,,,2,,,81,95
27480,note_on,,4,0,6,,,,,,,,,5,,,69,63
27480,note_on,,4,0,5,,,,,,,,,4,,,69,56
27485,note_on,,5,0,1,,,,,,,,,0,,,71,0
27486,note_on,,1,0,1,,,,,,,,,0,,,73,95
27488,note_on,,8,0,4,,,,,,,,,3,,,78,0
27488,note_on,,8,0,3,,,,,,,,,2,,,81,0
27491,note_on,,5,0,1,,,,,,,,,0,,,73,0
27492,note_on,,1,0,1,,,,,,,,,0,,,74,95
27497,note_on,,5,0,1,,,,,,,,,0,,,74,0
27498,note_on,,1,0,1,,,,,,,,,0,,,76,95
27500,note_on,,20,0,6,,,,,,,,,5,,,69,0
27500,note_on,,20,0,5,,,,,,,,,4,,,69,0
27503,note_on,,5,0,1,,,,,,,,,0,,,76,0
27504,note_on,,4,0,6,,,,,,,,,5,,,59,63
27504,note_on,,1,0,1,,,,,,,,,0,,,74,95
27504,note_on,,4,0,5,,,,,,,,,4,,,59,56
27509,note_on,,5,0,1,,,,,,,,,0,,,74,0
27510,note_on,,1,0,1,,,,,,,,,0,,,59,95
27515,note_on,,5,0,1,,,,,,,,,0,,,59,0
27516,note_on,,1,0,1,,,,,,,,,0,,,61,95
27521,note_on,,5,0,1,,,,,,,,,0,,,61,0
27522,note_on,,1,0,1,,,,,,,,,0,,,62,95
27524,note_on,,20,0,6,,,,,,,,,5,,,59,0
27524,note_on,,20,0,5,,,,,,,,,4,,,59,0
27527,note_on,,5,0,1,,,,,,,,,0,,,62,0
27528,note_on,,40,0,4,,,,,,,,,3,,,78,95
27528,note_on,,1,0,1,,,,,,,,,0,,,64,95
27528,note_on,,4,0,6,,,,,,,,,5,,,62,63
27528,note_on,,40,0,3,,,,,,,,,2,,,81,95
27528,note_on,,4,0,5,,,,,,,,,4,,,62,56
27533,note_on,,5,0,1,,,,,,,,,0,,,64,0
27534,note_on,,1,0,1,,,,,,,,,0,,,66,95
27539,note_on,,5,0,1,,,,,,,,,0,,,66,0
27540,note_on,,1,0,1,,,,,,,,,0,,,67,95
27545,note_on,,5,0,1,,,,,,,,,0,,,67,0
27546,note_on,,1,0,1,,,,,,,,,0,,,69,95
27548,note_on,,20,0,3,,,,,,,,,2,,,81,0
27548,note_on,,20,0,6,,,,,,,,,5,,,62,0
27548,note_on,,20,0,5,,,,,,,,,4,,,62,0
27548,note_on,,20,0,4,,,,,,,,,3,,,78,0
27551,note_on,,5,0,1,,,,,,,,,0,,,69,0
27552,note_on,,1,0,1,,,,,,,,,0,,,67,95
27552,note_on,,4,0,3,,,,,,,,,2,,,81,95
27552,note_on,,4,0,4,,,,,,,,,3,,,78,95
27552,note_on,,4,0,5,,,,,,,,,4,,,64,56
27552,note_on,,4,0,6,,,,,,,,,5,,,64,63
27557,note_on,,5,0,1,,,,,,,,,0,,,67,0
27558,note_on,,1,0,1,,,,,,,,,0,,,64,95
27562,note_on,,10,0,4,,,,,,,,,3,,,78,0
27562,note_on,,10,0,3,,,,,,,,,2,,,81,0
27563,note_on,,5,0,1,,,,,,,,,0,,,64,0
27564,note_on,,1,0,1,,,,,,,,,0,,,66,95
27564,note_on,,2,0,4,,,,,,,,,3,,,74,95
27564,note_on,,2,0,3,,,,,,,,,2,,,78,95
27569,note_on,,5,0,1,,,,,,,,,0,,,66,0
27570,note_on,,1,0,1,,,,,,,,,0,,,67,95
27572,note_on,,20,0,6,,,,,,,,,5,,,64,0
27572,note_on,,20,0,5,,,,,,,,,4,,,64,0
27574,note_on,,10,0,3,,,,,,,,,2,,,78,0
27574,note_on,,10,0,4,,,,,,,,,3,,,74,0
27575,note_on,,5,0,1,,,,,,,,,0,,,67,0
27576,note_on,,1,0,1,,,,,,,,,0,,,69,95
27576,note_on,,2,0,3,,,,,,,,,2,,,79,95
27576,note_on,,4,0,6,,,,,,,,,5,,,67,63
27576,note_on,,2,0,4,,,,,,,,,3,,,76,95
27576,note_on,,4,0,5,,,,,,,,,4,,,67,56
27581,note_on,,5,0,1,,,,,,,,,0,,,69,0
27582,note_on,,1,0,1,,,,,,,,,0,,,71,95
27584,note_on,,8,0,4,,,,,,,,,3,,,76,0
27584,note_on,,8,0,3,,,,,,,,,2,,,79,0
27587,note_on,,5,0,1,,,,,,,,,0,,,71,0
27588,note_on,,1,0,1,,,,,,,,,0,,,73,95
27593,note_on,,5,0,1,,,,,,,,,0,,,73,0
27594,note_on,,1,0,1,,,,,,,,,0,,,74,95
27596,note_on,,20,0,6,,,,,,,,,5,,,67,0
27596,note_on,,20,0,5,,,,,,,,,4,,,67,0
27599,note_on,,5,0,1,,,,,,,,,0,,,74,0
27600,note_on,,1,0,1,,,,,,,,,0,,,73,95
27600,note_on,,4,0,5,,,,,,,,,4,,,57,56
27600,note_on,,4,0,6,,,,,,,,,5,,,57,63
27605,note_on,,5,0,1,,,,,,,,,0,,,73,0
27606,note_on,,1,0,1,,,,,,,,,0,,,57,95
27611,note_on,,5,0,1,,,,,,,,,0,,,57,0
27612,note_on,,1,0,1,,,,,,,,,0,,,59,95
27617,note_on,,5,0,1,,,,,,,,,0,,,59,0
27618,note_on,,1,0,1,,,,,,,,,0,,,61,95
27620,note_on,,20,0,6,,,,,,,,,5,,,57,0
27620,note_on,,20,0,5,,,,,,,,,4,,,57,0
27623,note_on,,5,0,1,,,,,,,,,0,,,61,0
27624,note_on,,1,0,1,,,,,,,,,0,,,62,95
27624,note_on,,4,0,5,,,,,,,,,4,,,61,56
27624,note_on,,40,0,4,,,,,,,,,3,,,76,95
27624,note_on,,4,0,6,,,,,,,,,5,,,61,63
27624,note_on,,40,0,3,,,,,,,,,2,,,79,95
27629,note_on,,5,0,1,,,,,,,,,0,,,62,0
27630,note_on,,1,0,1,,,,,,,,,0,,,64,95
27635,note_on,,5,0,1,,,,,,,,,0,,,64,0
27636,note_on,,1,0,1,,,,,,,,,0,,,66,95
27641,note_on,,5,0,1,,,,,,,,,0,,,66,0
27642,note_on,,1,0,1,,,,,,,,,0,,,67,95
27644,note_on,,20,0,6,,,,,,,,,5,,,61,0
27644,note_on,,20,0,3,,,,,,,,,2,,,79,0
27644,note_on,,20,0,5,,,,,,,,,4,,,61,0
27644,note_on,,20,0,4,,,,,,,,,3,,,76,0
27647,note_on,,5,0,1,,,,,,,,,0,,,67,0
27648,note_on,,1,0,1,,,,,,,,,0,,,66,95
27648,note_on,,4,0,3,,,,,,,,,2,,,79,95
27648,note_on,,4,0,4,,,,,,,,,3,,,76,95
27648,note_on,,4,0,5,,,,,,,,,4,,,62,56
27648,note_on,,4,0,6,,,,,,,,,5,,,62,63
27653,note_on,,5,0,1,,,,,,,,,0,,,66,0
27654,note_on,,439,0,2,,,,,,,,,1,,,38,95
27658,note_on,,10,0,4,,,,,,,,,3,,,76,0
27658,note_on,,10,0,3,,,,,,,,,2,,,79,0
27659,note_on,,5,0,2,,,,,,,,,1,,,38,0
27660,note_on,,1,0,2,,,,,,,,,1,,,40,95
27660,note_on,,2,0,3,,,,,,,,,2,,,76,95
27660,note_on,,2,0,4,,,,,,,,,3,,,73,95
27665,note_on,,5,0,2,,,,,,,,,1,,,40,0
27666,note_on,,1,0,2,,,,,,,,,1,,,42,95
27668,note_on,,20,0,6,,,,,,,,,5,,,62,0
27668,note_on,,20,0,5,,,,,,,,,4,,,62,0
27670,note_on,,10,0,3,,,,,,,,,2,,,76,0
27670,note_on,,10,0,4,,,,,,,,,3,,,73,0
27671,note_on,,5,0,2,,,,,,,,,1,,,42,0
27672,note_on,,4,0,6,,,,,,,,,5,,,57,63
27672,note_on,,2,0,3,,,,,,,,,2,,,78,95
27672,note_on,,1,0,2,,,,,,,,,1,,,43,95
27672,note_on,,2,0,4,,,,,,,,,3,,,74,95
27672,note_on,,4,0,5,,,,,,,,,4,,,69,56
27677,note_on,,5,0,2,,,,,,,,,1,,,43,0
27678,note_on,,1,0,2,,,,,,,,,1,,,45,95
27682,note_on,,10,0,3,,,,,,,,,2,,,78,0
27682,note_on,,10,0,4,,,,,,,,,3,,,74,0
27683,note_on,,5,0,2,,,,,,,,,1,,,45,0
27684,note_on,,1,0,2,,,,,,,,,1,,,47,95
27684,note_on,,2,0,3,,,,,,,,,2,,,79,95
27684,note_on,,2,0,4,,,,,,,,,3,,,76,95
27689,note_on,,5,0,2,,,,,,,,,1,,,47,0
27690,note_on,,1,0,2,,,,,,,,,1,,,49,95
27692,note_on,,20,0,5,,,,,,,,,4,,,69,0
27692,note_on,,20,0,6,,,,,,,,,5,,,57,0
27694,note_on,,10,0,3,,,,,,,,,2,,,79,0
27694,note_on,,10,0,4,,,,,,,,,3,,,76,0
27695,note_on,,5,0,2,,,,,,,,,1,,,49,0
27696,note_on,,4,0,5,,,,,,,,,4,,,66,56
27696,note_on,,2,0,4,,,,,,,,,3,,,74,95
27696,note_on,,2,0,3,,,,,,,,,2,,,78,95
27696,note_on,,1,0,2,,,,,,,,,1,,,50,95
27696,note_on,,4,0,6,,,,,,,,,5,,,54,63
27701,note_on,,5,0,2,,,,,,,,,1,,,50,0
27702,note_on,,1,0,2,,,,,,,,,1,,,52,95
27706,note_on,,10,0,4,,,,,,,,,3,,,74,0
27706,note_on,,10,0,3,,,,,,,,,2,,,78,0
27707,note_on,,5,0,2,,,,,,,,,1,,,52,0
27708,note_on,,2,0,4,,,,,,,,,3,,,78,95
27708,note_on,,2,0,3,,,,,,,,,2,,,81,95
27708,note_on,,1,0,2,,,,,,,,,1,,,54,95
27713,note_on,,5,0,2,,,,,,,,,1,,,54,0
27714,note_on,,1,0,2,,,,,,,,,1,,,55,95
27716,note_on,,20,0,6,,,,,,,,,5,,,54,0
27716,note_on,,20,0,5,,,,,,,,,4,,,66,0
27718,note_on,,10,0,4,,,,,,,,,3,,,78,0
27718,note_on,,10,0,3,,,,,,,,,2,,,81,0
27719,note_on,,5,0,2,,,,,,,,,1,,,55,0
27720,note_on,,4,0,5,,,,,,,,,4,,,62,56
27720,note_on,,2,0,3,,,,,,,,,2,,,79,95
27720,note_on,,1,0,2,,,,,,,,,1,,,57,95
27720,note_on,,4,0,6,,,,,,,,,5,,,50,63
27720,note_on,,2,0,4,,,,,,,,,3,,,76,95
27725,note_on,,5,0,2,,,,,,,,,1,,,57,0
27726,note_on,,1,0,2,,,,,,,,,1,,,59,95
27730,note_on,,10,0,3,,,,,,,,,2,,,79,0
27730,note_on,,10,0,4,,,,,,,,,3,,,76,0
27731,note_on,,5,0,2,,,,,,,,,1,,,59,0
27732,note_on,,2,0,4,,,,,,,,,3,,,74,95
27732,note_on,,1,0,2,,,,,,,,,1,,,61,95
27732,note_on,,2,0,3,,,,,,,,,2,,,78,95
27737,note_on,,5,0,2,,,,,,,,,1,,,61,0
27738,note_on,,1,0,2,,,,,,,,,1,,,62,95
27740,note_on,,20,0,5,,,,,,,,,4,,,62,0
27740,note_on,,20,0,6,,,,,,,,,5,,,50,0
27742,note_on,,10,0,3,,,,,,,,,2,,,78,0
27742,note_on,,10,0,4,,,,,,,,,3,,,74,0
27743,note_on,,5,0,2,,,,,,,,,1,,,62,0
27744,note_on,,2,0,3,,,,,,,,,2,,,76,95
27744,note_on,,1,0,2,,,,,,,,,1,,,61,95
27744,note_on,,4,0,6,,,,,,,,,5,,,57,63
27744,note_on,,2,0,4,,,,,,,,,3,,,73,95
27744,note_on,,4,0,5,,,,,,,,,4,,,57,56
27749,note_on,,5,0,2,,,,,,,,,1,,,61,0
27750,note_on,,1,0,2,,,,,,,,,1,,,45,95
27754,note_on,,10,0,5,,,,,,,,,4,,,57,0
27754,note_on,,10,0,6,,,,,,,,,5,,,57,0
27755,note_on,,5,0,2,,,,,,,,,1,,,45,0
27756,note_on,,2,0,5,,,,,,,,,4,,,57,56
27756,note_on,,1,0,2,,,,,,,,,1,,,47,95
27756,note_on,,2,0,6,,,,,,,,,5,,,57,63
27761,note_on,,5,0,2,,,,,,,,,1,,,47,0
27762,note_on,,1,0,2,,,,,,,,,1,,,49,95
27764,note_on,,20,0,3,,,,,,,,,2,,,76,0
27764,note_on,,20,0,4,,,,,,,,,3,,,73,0
27766,note_on,,10,0,6,,,,,,,,,5,,,57,0
27766,note_on,,10,0,5,,,,,,,,,4,,,57,0
27767,note_on,,5,0,2,,,,,,,,,1,,,49,0
27768,note_on,,2,0,5,,,,,,,,,4,,,61,56
27768,note_on,,4,0,3,,,,,,,,,2,,,79,95
27768,note_on,,1,0,2,,,,,,,,,1,,,50,95
27768,note_on,,2,0,6,,,,,,,,,5,,,61,63
27768,note_on,,4,0,4,,,,,,,,,3,,,76,95
27773,note_on,,5,0,2,,,,,,,,,1,,,50,0
27774,note_on,,1,0,2,,,,,,,,,1,,,52,95
27778,note_on,,10,0,5,,,,,,,,,4,,,61,0
27778,note_on,,10,0,6,,,,,,,,,5,,,61,0
27779,note_on,,5,0,2,,,,,,,,,1,,,52,0
27780,note_on,,2,0,5,,,,,,,,,4,,,61,56
27780,note_on,,1,0,2,,,,,,,,,1,,,54,95
27780,note_on,,2,0,6,,,,,,,,,5,,,61,63
27785,note_on,,5,0,2,,,,,,,,,1,,,54,0
27786,note_on,,1,0,2,,,,,,,,,1,,,55,95
27788,note_on,,20,0,3,,,,,,,,,2,,,79,0
27788,note_on,,20,0,4,,,,,,,,,3,,,76,0
27790,note_on,,10,0,5,,,,,,,,,4,,,61,0
27790,note_on,,10,0,6,,,,,,,,,5,,,61,0
27791,note_on,,5,0,2,,,,,,,,,1,,,55,0
27792,note_on,,2,0,5,,,,,,,,,4,,,64,56
27792,note_on,,2,0,6,,,,,,,,,5,,,64,63
27792,note_on,,1,0,2,,,,,,,,,1,,,57,95
27797,note_on,,5,0,2,,,,,,,,,1,,,57,0
27798,note_on,,1,0,2,,,,,,,,,1,,,59,95
27802,note_on,,10,0,6,,,,,,,,,5,,,64,0
27802,note_on,,10,0,5,,,,,,,,,4,,,64,0
27803,note_on,,5,0,2,,,,,,,,,1,,,59,0
27804,note_on,,2,0,5,,,,,,,,,4,,,64,56
27804,note_on,,2,0,6,,,,,,,,,5,,,64,63
27804,note_on,,1,0,2,,,,,,,,,1,,,61,95
27809,note_on,,5,0,2,,,,,,,,,1,,,61,0
27810,note_on,,1,0,2,,,,,,,,,1,,,62,95
27814,note_on,,10,0,5,,,,,,,,,4,,,64,0
27814,note_on,,10,0,6,,,,,,,,,5,,,64,0
27815,note_on,,5,0,2,,,,,,,,,1,,,62,0
27816,note_on,,2,0,6,,,,,,,,,5,,,69,63
27816,note_on,,28,0,3,,,,,,,,,2,,,73,95
27816,note_on,,28,0,4,,,,,,,,,3,,,64,95
27816,note_on,,1,0,2,,,,,,,,,1,,,64,95
27816,note_on,,2,0,5,,,,,,,,,4,,,69,56
27821,note_on,,5,0,2,,,,,,,,,1,,,64,0
27822,note_on,,1,0,2,,,,,,,,,1,,,66,95
27826,note_on,,10,0,6,,,,,,,,,5,,,69,0
27826,note_on,,10,0,5,,,,,,,,,4,,,69,0
27827,note_on,,5,0,2,,,,,,,,,1,,,66,0
27828,note_on,,2,0,5,,,,,,,,,4,,,69,56
27828,note_on,,2,0,6,,,,,,,,,5,,,69,63
27828,note_on,,1,0,2,,,,,,,,,1,,,67,95
27833,note_on,,5,0,2,,,,,,,,,1,,,67,0
27834,note_on,,1,0,2,,,,,,,,,1,,,64,95
27836,note_on,,20,0,4,,,,,,,,,3,,,64,0
27836,note_on,,20,0,3,,,,,,,,,2,,,73,0
27838,note_on,,10,0,6,,,,,,,,,5,,,69,0
27838,note_on,,10,0,5,,,,,,,,,4,,,69,0
27839,note_on,,5,0,2,,,,,,,,,1,,,64,0
27840,note_on,,1,0,2,,,,,,,,,1,,,66,95
27840,note_on,,4,0,4,,,,,,,,,3,,,66,95
27840,note_on,,2,0,5,,,,,,,,,4,,,73,56
27840,note_on,,2,0,6,,,,,,,,,5,,,62,63
27840,note_on,,4,0,3,,,,,,,,,2,,,74,95
27845,note_on,,5,0,2,,,,,,,,,1,,,66,0
27846,note_on,,1,0,2,,,,,,,,,1,,,50,95
27850,note_on,,10,0,3,,,,,,,,,2,,,74,0
27850,note_on,,10,0,5,,,,,,,,,4,,,73,0
27850,note_on,,10,0,4,,,,,,,,,3,,,66,0
27850,note_on,,10,0,6,,,,,,,,,5,,,62,0
27851,note_on,,5,0,2,,,,,,,,,1,,,50,0
27852,note_on,,2,0,5,,,,,,,,,4,,,73,56
27852,note_on,,2,0,3,,,,,,,,,2,,,73,95
27852,note_on,,2,0,4,,,,,,,,,3,,,64,95
27852,note_on,,1,0,2,,,,,,,,,1,,,52,95
27852,note_on,,2,0,6,,,,,,,,,5,,,62,63
27857,note_on,,5,0,2,,,,,,,,,1,,,52,0
27858,note_on,,1,0,2,,,,,,,,,1,,,54,95
27862,note_on,,10,0,4,,,,,,,,,3,,,64,0
27862,note_on,,10,0,6,,,,,,,,,5,,,62,0
27862,note_on,,10,0,3,,,,,,,,,2,,,73,0
27862,note_on,,10,0,5,,,,,,,,,4,,,73,0
27863,note_on,,5,0,2,,,,,,,,,1,,,54,0
27864,note_on,,2,0,6,,,,,,,,,5,,,66,63
27864,note_on,,1,0,2,,,,,,,,,1,,,55,95
27864,note_on,,2,0,5,,,,,,,,,4,,,76,56
27864,note_on,,2,0,4,,,,,,,,,3,,,66,95
27864,note_on,,2,0,3,,,,,,,,,2,,,74,95
27869,note_on,,5,0,2,,,,,,,,,1,,,55,0
27870,note_on,,1,0,2,,,,,,,,,1,,,57,95
27874,note_on,,10,0,5,,,,,,,,,4,,,76,0
27874,note_on,,10,0,3,,,,,,,,,2,,,74,0
27874,note_on,,10,0,4,,,,,,,,,3,,,66,0
27874,note_on,,10,0,6,,,,,,,,,5,,,66,0
27875,note_on,,5,0,2,,,,,,,,,1,,,57,0
27876,note_on,,1,0,2,,,,,,,,,1,,,59,95
27876,note_on,,2,0,4,,,,,,,,,3,,,67,95
27876,note_on,,2,0,3,,,,,,,,,2,,,76,95
27876,note_on,,2,0,5,,,,,,,,,4,,,76,56
27876,note_on,,2,0,6,,,,,,,,,5,,,66,63
27881,note_on,,5,0,2,,,,,,,,,1,,,59,0
27882,note_on,,1,0,2,,,,,,,,,1,,,61,95
27886,note_on,,10,0,3,,,,,,,,,2,,,76,0
27886,note_on,,10,0,6,,,,,,,,,5,,,66,0
27886,note_on,,10,0,4,,,,,,,,,3,,,67,0
27886,note_on,,10,0,5,,,,,,,,,4,,,76,0
27887,note_on,,5,0,2,,,,,,,,,1,,,61,0
27888,note_on,,235,0,1,,,,,,,,,0,,,62,95
27888,note_on,,2,0,3,,,,,,,,,2,,,74,95
27888,note_on,,2,0,5,,,,,,,,,4,,,79,56
27888,note_on,,2,0,6,,,,,,,,,5,,,69,63
27888,note_on,,2,0,4,,,,,,,,,3,,,66,95
27893,note_on,,5,0,1,,,,,,,,,0,,,62,0
27894,note_on,,1,0,1,,,,,,,,,0,,,64,95
27898,note_on,,10,0,5,,,,,,,,,4,,,79,0
27898,note_on,,10,0,4,,,,,,,,,3,,,66,0
27898,note_on,,10,0,6,,,,,,,,,5,,,69,0
27898,note_on,,10,0,3,,,,,,,,,2,,,74,0
27899,note_on,,5,0,1,,,,,,,,,0,,,64,0
27900,note_on,,2,0,5,,,,,,,,,4,,,79,56
27900,note_on,,2,0,4,,,,,,,,,3,,,69,95
27900,note_on,,2,0,3,,,,,,,,,2,,,78,95
27900,note_on,,2,0,6,,,,,,,,,5,,,69,63
27900,note_on,,1,0,1,,,,,,,,,0,,,66,95
27905,note_on,,5,0,1,,,,,,,,,0,,,66,0
27906,note_on,,1,0,1,,,,,,,,,0,,,67,95
27910,note_on,,10,0,4,,,,,,,,,3,,,69,0
27910,note_on,,10,0,3,,,,,,,,,2,,,78,0
27910,note_on,,10,0,6,,,,,,,,,5,,,69,0
27910,note_on,,10,0,5,,,,,,,,,4,,,79,0
27911,note_on,,5,0,1,,,,,,,,,0,,,67,0
27912,note_on,,1,0,1,,,,,,,,,0,,,69,95
27912,note_on,,2,0,5,,,,,,,,,4,,,85,56
27912,note_on,,2,0,6,,,,,,,,,5,,,74,63
27912,note_on,,2,0,4,,,,,,,,,3,,,67,95
27912,note_on,,2,0,3,,,,,,,,,2,,,76,95
27917,note_on,,5,0,1,,,,,,,,,0,,,69,0
27918,note_on,,1,0,1,,,,,,,,,0,,,71,95
27922,note_on,,10,0,6,,,,,,,,,5,,,74,0
27922,note_on,,10,0,4,,,,,,,,,3,,,67,0
27922,note_on,,10,0,3,,,,,,,,,2,,,76,0
27922,note_on,,10,0,5,,,,,,,,,4,,,85,0
27923,note_on,,5,0,1,,,,,,,,,0,,,71,0
27924,note_on,,2,0,5,,,,,,,,,4,,,85,56
27924,note_on,,2,0,3,,,,,,,,,2,,,74,95
27924,note_on,,2,0,4,,,,,,,,,3,,,66,95
27924,note_on,,1,0,1,,,,,,,,,0,,,73,95
27924,note_on,,2,0,6,,,,,,,,,5,,,74,63
27929,note_on,,5,0,1,,,,,,,,,0,,,73,0
27930,note_on,,1,0,1,,,,,,,,,0,,,74,95
27934,note_on,,10,0,6,,,,,,,,,5,,,74,0
27934,note_on,,10,0,3,,,,,,,,,2,,,74,0
27934,note_on,,10,0,4,,,,,,,,,3,,,66,0
27934,note_on,,10,0,5,,,,,,,,,4,,,85,0
27935,note_on,,5,0,1,,,,,,,,,0,,,74,0
27936,note_on,,2,0,6,,,,,,,,,5,,,76,63
27936,note_on,,2,0,4,,,,,,,,,3,,,64,95
27936,note_on,,2,0,3,,,,,,,,,2,,,73,95
27936,note_on,,2,0,5,,,,,,,,,4,,,86,56
27936,note_on,,1,0,1,,,,,,,,,0,,,73,95
27941,note_on,,5,0,1,,,,,,,,,0,,,73,0
27942,note_on,,1,0,1,,,,,,,,,0,,,57,95
27947,note_on,,5,0,1,,,,,,,,,0,,,57,0
27948,note_on,,1,0,1,,,,,,,,,0,,,59,95
27953,note_on,,5,0,1,,,,,,,,,0,,,59,0
27954,note_on,,1,0,1,,,,,,,,,0,,,61,95
27956,note_on,,20,0,4,,,,,,,,,3,,,64,0
27956,note_on,,20,0,3,,,,,,,,,2,,,73,0
27956,note_on,,20,0,5,,,,,,,,,4,,,86,0
27956,note_on,,20,0,6,,,,,,,,,5,,,76,0
27959,note_on,,5,0,1,,,,,,,,,0,,,61,0
27960,note_on,,4,0,4,,,,,,,,,3,,,76,95
27960,note_on,,4,0,3,,,,,,,,,2,,,69,95
27960,note_on,,4,0,5,,,,,,,,,4,,,79,56
27960,note_on,,1,0,1,,,,,,,,,0,,,62,95
27960,note_on,,4,0,6,,,,,,,,,5,,,69,63
27965,note_on,,5,0,1,,,,,,,,,0,,,62,0
27966,note_on,,1,0,1,,,,,,,,,0,,,64,95
27971,note_on,,5,0,1,,,,,,,,,0,,,64,0
27972,note_on,,1,0,1,,,,,,,,,0,,,66,95
27977,note_on,,5,0,1,,,,,,,,,0,,,66,0
27978,note_on,,1,0,1,,,,,,,,,0,,,67,95
27980,note_on,,20,0,3,,,,,,,,,2,,,69,0
27980,note_on,,20,0,5,,,,,,,,,4,,,79,0
27980,note_on,,20,0,6,,,,,,,,,5,,,69,0
27980,note_on,,20,0,4,,,,,,,,,3,,,76,0
27983,note_on,,5,0,1,,,,,,,,,0,,,67,0
27984,note_on,,1,0,1,,,,,,,,,0,,,69,95
27984,note_on,,4,0,4,,,,,,,,,3,,,73,95
27984,note_on,,4,0,3,,,,,,,,,2,,,76,95
27989,note_on,,5,0,1,,,,,,,,,0,,,69,0
27990,note_on,,1,0,1,,,,,,,,,0,,,71,95
27995,note_on,,5,0,1,,,,,,,,,0,,,71,0
27996,note_on,,1,0,1,,,,,,,,,0,,,73,95
28001,note_on,,5,0,1,,,,,,,,,0,,,73,0
28002,note_on,,1,0,1,,,,,,,,,0,,,74,95
28004,note_on,,20,0,4,,,,,,,,,3,,,73,0
28004,note_on,,20,0,3,,,,,,,,,2,,,76,0
28007,note_on,,5,0,1,,,,,,,,,0,,,74,0
28008,note_on,,1,0,1,,,,,,,,,0,,,76,95
28008,note_on,,4,0,4,,,,,,,,,3,,,69,95
28008,note_on,,4,0,3,,,,,,,,,2,,,73,95
28013,note_on,,5,0,1,,,,,,,,,0,,,76,0
28014,note_on,,1,0,1,,,,,,,,,0,,,78,95
28019,note_on,,5,0,1,,,,,,,,,0,,,78,0
28020,note_on,,1,0,1,,,,,,,,,0,,,79,95
28025,note_on,,5,0,1,,,,,,,,,0,,,79,0
28026,note_on,,1,0,1,,,,,,,,,0,,,73,95
28028,note_on,,20,0,4,,,,,,,,,3,,,69,0
28028,note_on,,20,0,3,,,,,,,,,2,,,73,0
28031,note_on,,5,0,1,,,,,,,,,0,,,73,0
28032,note_on,,4,0,4,,,,,,,,,3,,,78,63
28032,note_on,,52,0,6,,,,,,,,,5,,,57,56
28032,note_on,,145,0,2,,,,,,,,,1,,,74,79
28038,note_on,,7,0,1,,,,,,,,,0,,,81,79
28042,note_on,,4,0,1,,,,,,,,,0,,,81,0
28044,note_on,,2,0,1,,,,,,,,,0,,,79,79
28048,note_on,,4,0,1,,,,,,,,,0,,,79,0
28048,note_on,,16,0,2,,,,,,,,,1,,,74,0
28050,note_on,,2,0,1,,,,,,,,,0,,,78,79
28052,note_on,,20,0,4,,,,,,,,,3,,,78,0
28054,note_on,,4,0,1,,,,,,,,,0,,,78,0
28056,note_on,,8,0,2,,,,,,,,,1,,,69,79
28056,note_on,,4,0,4,,,,,,,,,3,,,74,63
28062,note_on,,8,0,1,,,,,,,,,0,,,78,79
28066,note_on,,4,0,1,,,,,,,,,0,,,78,0
28068,note_on,,2,0,1,,,,,,,,,0,,,76,79
28072,note_on,,4,0,1,,,,,,,,,0,,,76,0
28072,note_on,,16,0,2,,,,,,,,,1,,,69,0
28074,note_on,,2,0,1,,,,,,,,,0,,,74,79
28076,note_on,,20,0,4,,,,,,,,,3,,,74,0
28078,note_on,,4,0,1,,,,,,,,,0,,,74,0
28080,note_on,,8,0,2,,,,,,,,,1,,,74,79
28080,note_on,,100,0,5,,,,,,,,,4,,,57,63
28080,note_on,,48,0,6,,,,,,,,,5,,,57,0
28080,note_on,,52,0,3,,,,,,,,,2,,,78,56
28086,note_on,,8,0,1,,,,,,,,,0,,,81,79
28090,note_on,,4,0,1,,,,,,,,,0,,,81,0
28092,note_on,,2,0,1,,,,,,,,,0,,,79,79
28096,note_on,,16,0,2,,,,,,,,,1,,,74,0
28096,note_on,,4,0,1,,,,,,,,,0,,,79,0
28098,note_on,,2,0,1,,,,,,,,,0,,,78,79
28102,note_on,,4,0,1,,,,,,,,,0,,,78,0
28104,note_on,,0,0,3,,,,,,,,,2,,,74,56
28104,note_on,,24,0,3,,,,,,,,,2,,,78,0
28104,note_on,,8,0,2,,,,,,,,,1,,,69,79
28110,note_on,,8,0,1,,,,,,,,,0,,,78,79
28114,note_on,,4,0,1,,,,,,,,,0,,,78,0
28116,note_on,,2,0,1,,,,,,,,,0,,,76,79
28120,note_on,,4,0,1,,,,,,,,,0,,,76,0
28120,note_on,,16,0,2,,,,,,,,,1,,,69,0
28122,note_on,,2,0,1,,,,,,,,,0,,,74,79
28126,note_on,,4,0,1,,,,,,,,,0,,,74,0
28128,note_on,,24,0,3,,,,,,,,,2,,,74,0
28128,note_on,,48,0,6,,,,,,,,,5,,,57,56
28128,note_on,,52,0,4,,,,,,,,,3,,,78,63
28128,note_on,,8,0,2,,,,,,,,,1,,,74,79
28128,note_on,,48,0,5,,,,,,,,,4,,,57,0
28134,note_on,,8,0,1,,,,,,,,,0,,,81,79
28138,note_on,,4,0,1,,,,,,,,,0,,,81,0
28140,note_on,,2,0,1,,,,,,,,,0,,,79,79
28144,note_on,,16,0,2,,,,,,,,,1,,,74,0
28144,note_on,,4,0,1,,,,,,,,,0,,,79,0
28146,note_on,,2,0,1,,,,,,,,,0,,,78,79
28148,note_on,,20,0,4,,,,,,,,,3,,,78,0
28150,note_on,,4,0,1,,,,,,,,,0,,,78,0
28152,note_on,,8,0,2,,,,,,,,,1,,,69,79
28152,note_on,,4,0,4,,,,,,,,,3,,,81,63
28158,note_on,,8,0,1,,,,,,,,,0,,,78,79
28162,note_on,,4,0,1,,,,,,,,,0,,,78,0
28164,note_on,,2,0,1,,,,,,,,,0,,,76,79
28168,note_on,,4,0,1,,,,,,,,,0,,,76,0
28168,note_on,,16,0,2,,,,,,,,,1,,,69,0
28170,note_on,,2,0,1,,,,,,,,,0,,,74,79
28172,note_on,,20,0,4,,,,,,,,,3,,,81,0
28174,note_on,,4,0,1,,,,,,,,,0,,,74,0
28176,note_on,,48,0,5,,,,,,,,,4,,,57,63
28176,note_on,,48,0,3,,,,,,,,,2,,,78,56
28176,note_on,,8,0,2,,,,,,,,,1,,,74,79
28176,note_on,,48,0,6,,,,,,,,,5,,,57,0
28182,note_on,,8,0,1,,,,,,,,,0,,,81,79
28186,note_on,,4,0,1,,,,,,,,,0,,,81,0
28188,note_on,,2,0,1,,,,,,,,,0,,,79,79
28192,note_on,,16,0,2,,,,,,,,,1,,,74,0
28192,note_on,,4,0,1,,,,,,,,,0,,,79,0
28194,note_on,,2,0,1,,,,,,,,,0,,,78,79
28198,note_on,,4,0,1,,,,,,,,,0,,,78,0
28200,note_on,,8,0,2,,,,,,,,,1,,,69,79
28200,note_on,,24,0,3,,,,,,,,,2,,,78,0
28200,note_on,,0,0,3,,,,,,,,,2,,,81,56
28206,note_on,,8,0,1,,,,,,,,,0,,,78,79
28210,note_on,,4,0,1,,,,,,,,,0,,,78,0
28212,note_on,,2,0,1,,,,,,,,,0,,,76,79
28216,note_on,,4,0,1,,,,,,,,,0,,,76,0
28216,note_on,,16,0,2,,,,,,,,,1,,,69,0
28218,note_on,,2,0,1,,,,,,,,,0,,,74,79
28222,note_on,,4,0,1,,,,,,,,,0,,,74,0
28224,note_on,,24,0,3,,,,,,,,,2,,,81,0
28224,note_on,,48,0,6,,,,,,,,,5,,,57,56
28224,note_on,,48,0,5,,,,,,,,,4,,,57,0
28224,note_on,,52,0,4,,,,,,,,,3,,,76,63
28224,note_on,,8,0,2,,,,,,,,,1,,,73,79
28230,note_on,,8,0,1,,,,,,,,,0,,,79,79
28234,note_on,,4,0,1,,,,,,,,,0,,,79,0
28236,note_on,,2,0,1,,,,,,,,,0,,,78,79
28240,note_on,,4,0,1,,,,,,,,,0,,,78,0
28240,note_on,,16,0,2,,,,,,,,,1,,,73,0
28242,note_on,,2,0,1,,,,,,,,,0,,,76,79
28244,note_on,,20,0,4,,,,,,,,,3,,,76,0
28246,note_on,,4,0,1,,,,,,,,,0,,,76,0
28248,note_on,,8,0,2,,,,,,,,,1,,,69,79
28248,note_on,,4,0,4,,,,,,,,,3,,,73,63
28254,note_on,,8,0,1,,,,,,,,,0,,,76,79
28258,note_on,,4,0,1,,,,,,,,,0,,,76,0
28260,note_on,,2,0,1,,,,,,,,,0,,,74,79
28264,note_on,,16,0,2,,,,,,,,,1,,,69,0
28264,note_on,,4,0,1,,,,,,,,,0,,,74,0
28266,note_on,,2,0,1,,,,,,,,,0,,,73,79
28268,note_on,,20,0,4,,,,,,,,,3,,,73,0
28270,note_on,,4,0,1,,,,,,,,,0,,,73,0
28272,note_on,,48,0,6,,,,,,,,,5,,,57,0
28272,note_on,,48,0,5,,,,,,,,,4,,,57,63
28272,note_on,,8,0,2,,,,,,,,,1,,,73,79
28272,note_on,,48,0,3,,,,,,,,,2,,,76,56
28278,note_on,,8,0,1,,,,,,,,,0,,,79,79
28282,note_on,,4,0,1,,,,,,,,,0,,,79,0
28284,note_on,,2,0,1,,,,,,,,,0,,,78,79
28288,note_on,,4,0,1,,,,,,,,,0,,,78,0
28288,note_on,,16,0,2,,,,,,,,,1,,,73,0
28290,note_on,,2,0,1,,,,,,,,,0,,,76,79
28294,note_on,,4,0,1,,,,,,,,,0,,,76,0
28296,note_on,,24,0,3,,,,,,,,,2,,,76,0
28296,note_on,,0,0,3,,,,,,,,,2,,,73,56
28296,note_on,,8,0,2,,,,,,,,,1,,,69,79
28302,note_on,,8,0,1,,,,,,,,,0,,,76,79
28306,note_on,,4,0,1,,,,,,,,,0,,,76,0
28308,note_on,,2,0,1,,,,,,,,,0,,,74,79
28312,note_on,,16,0,2,,,,,,,,,1,,,69,0
28312,note_on,,4,0,1,,,,,,,,,0,,,74,0
28314,note_on,,2,0,1,,,,,,,,,0,,,73,79
28318,note_on,,4,0,1,,,,,,,,,0,,,73,0
28320,note_on,,24,0,3,,,,,,,,,2,,,73,0
28320,note_on,,8,0,2,,,,,,,,,1,,,73,79
28320,note_on,,48,0,5,,,,,,,,,4,,,57,0
28320,note_on,,52,0,4,,,,,,,,,3,,,76,63
28320,note_on,,48,0,6,,,,,,,,,5,,,57,56
28326,note_on,,8,0,1,,,,,,,,,0,,,79,79
28330,note_on,,4,0,1,,,,,,,,,0,,,79,0
28332,note_on,,2,0,1,,,,,,,,,0,,,78,79
28336,note_on,,16,0,2,,,,,,,,,1,,,73,0
28336,note_on,,4,0,1,,,,,,,,,0,,,78,0
28338,note_on,,2,0,1,,,,,,,,,0,,,76,79
28340,note_on,,20,0,4,,,,,,,,,3,,,76,0
28342,note_on,,4,0,1,,,,,,,,,0,,,76,0
28344,note_on,,8,0,2,,,,,,,,,1,,,69,79
28344,note_on,,4,0,4,,,,,,,,,3,,,81,63
28350,note_on,,8,0,1,,,,,,,,,0,,,76,79
28354,note_on,,4,0,1,,,,,,,,,0,,,76,0
28356,note_on,,2,0,1,,,,,,,,,0,,,74,79
28360,note_on,,4,0,1,,,,,,,,,0,,,74,0
28360,note_on,,16,0,2,,,,,,,,,1,,,69,0
28362,note_on,,2,0,1,,,,,,,,,0,,,73,79
28364,note_on,,20,0,4,,,,,,,,,3,,,81,0
28366,note_on,,4,0,1,,,,,,,,,0,,,73,0
28368,note_on,,48,0,5,,,,,,,,,4,,,57,63
28368,note_on,,48,0,6,,,,,,,,,5,,,57,0
28368,note_on,,48,0,3,,,,,,,,,2,,,76,56
28368,note_on,,8,0,2,,,,,,,,,1,,,73,79
28374,note_on,,8,0,1,,,,,,,,,0,,,79,79
28378,note_on,,4,0,1,,,,,,,,,0,,,79,0
28380,note_on,,2,0,1,,,,,,,,,0,,,78,79
28384,note_on,,16,0,2,,,,,,,,,1,,,73,0
28384,note_on,,4,0,1,,,,,,,,,0,,,78,0
28386,note_on,,2,0,1,,,,,,,,,0,,,76,79
28390,note_on,,4,0,1,,,,,,,,,0,,,76,0
28392,note_on,,0,0,3,,,,,,,,,2,,,81,56
28392,note_on,,8,0,2,,,,,,,,,1,,,69,79
28392,note_on,,24,0,3,,,,,,,,,2,,,76,0
28398,note_on,,8,0,1,,,,,,,,,0,,,76,79
28402,note_on,,4,0,1,,,,,,,,,0,,,76,0
28404,note_on,,2,0,1,,,,,,,,,0,,,74,79
28408,note_on,,16,0,2,,,,,,,,,1,,,69,0
28408,note_on,,4,0,1,,,,,,,,,0,,,74,0
28410,note_on,,2,0,1,,,,,,,,,0,,,73,79
28414,note_on,,4,0,1,,,,,,,,,0,,,73,0
28416,note_on,,8,0,2,,,,,,,,,1,,,71,79
28416,note_on,,48,0,5,,,,,,,,,4,,,57,0
28416,note_on,,24,0,3,,,,,,,,,2,,,81,0
28416,note_on,,52,0,4,,,,,,,,,3,,,74,63
28416,note_on,,48,0,6,,,,,,,,,5,,,57,56
28422,note_on,,8,0,1,,,,,,,,,0,,,78,79
28426,note_on,,4,0,1,,,,,,,,,0,,,78,0
28428,note_on,,2,0,1,,,,,,,,,0,,,76,79
28432,note_on,,16,0,2,,,,,,,,,1,,,71,0
28432,note_on,,4,0,1,,,,,,,,,0,,,76,0
28434,note_on,,2,0,1,,,,,,,,,0,,,74,79
28436,note_on,,20,0,4,,,,,,,,,3,,,74,0
28438,note_on,,4,0,1,,,,,,,,,0,,,74,0
28440,note_on,,4,0,4,,,,,,,,,3,,,71,63
28440,note_on,,8,0,2,,,,,,,,,1,,,69,79
28446,note_on,,8,0,1,,,,,,,,,0,,,74,79
28450,note_on,,4,0,1,,,,,,,,,0,,,74,0
28452,note_on,,2,0,1,,,,,,,,,0,,,73,79
28456,note_on,,16,0,2,,,,,,,,,1,,,69,0
28456,note_on,,4,0,1,,,,,,,,,0,,,73,0
28458,note_on,,2,0,1,,,,,,,,,0,,,71,79
28460,note_on,,20,0,4,,,,,,,,,3,,,71,0
28462,note_on,,4,0,1,,,,,,,,,0,,,71,0
28464,note_on,,8,0,2,,,,,,,,,1,,,71,79
28464,note_on,,48,0,5,,,,,,,,,4,,,57,63
28464,note_on,,48,0,6,,,,,,,,,5,,,57,0
28464,note_on,,48,0,3,,,,,,,,,2,,,74,56
28470,note_on,,8,0,1,,,,,,,,,0,,,78,79
28474,note_on,,4,0,1,,,,,,,,,0,,,78,0
28476,note_on,,2,0,1,,,,,,,,,0,,,76,79
28480,note_on,,4,0,1,,,,,,,,,0,,,76,0
28480,note_on,,16,0,2,,,,,,,,,1,,,71,0
28482,note_on,,2,0,1,,,,,,,,,0,,,74,79
28486,note_on,,4,0,1,,,,,,,,,0,,,74,0
28488,note_on,,8,0,2,,,,,,,,,1,,,69,79
28488,note_on,,0,0,3,,,,,,,,,2,,,71,56
28488,note_on,,24,0,3,,,,,,,,,2,,,74,0
28494,note_on,,8,0,1,,,,,,,,,0,,,74,79
28498,note_on,,4,0,1,,,,,,,,,0,,,74,0
28500,note_on,,2,0,1,,,,,,,,,0,,,73,79
28504,note_on,,16,0,2,,,,,,,,,1,,,69,0
28504,note_on,,4,0,1,,,,,,,,,0,,,73,0
28506,note_on,,2,0,1,,,,,,,,,0,,,71,79
28510,note_on,,4,0,1,,,,,,,,,0,,,71,0
28512,note_on,,52,0,4,,,,,,,,,3,,,74,63
28512,note_on,,48,0,5,,,,,,,,,4,,,57,0
28512,note_on,,8,0,2,,,,,,,,,1,,,71,79
28512,note_on,,24,0,3,,,,,,,,,2,,,71,0
28512,note_on,,48,0,6,,,,,,,,,5,,,57,56
28518,note_on,,8,0,1,,,,,,,,,0,,,78,79
28522,note_on,,4,0,1,,,,,,,,,0,,,78,0
28524,note_on,,2,0,1,,,,,,,,,0,,,76,79
28528,note_on,,4,0,1,,,,,,,,,0,,,76,0
28528,note_on,,16,0,2,,,,,,,,,1,,,71,0
28530,note_on,,2,0,1,,,,,,,,,0,,,74,79
28532,note_on,,20,0,4,,,,,,,,,3,,,74,0
28534,note_on,,4,0,1,,,,,,,,,0,,,74,0
28536,note_on,,4,0,4,,,,,,,,,3,,,83,63
28536,note_on,,8,0,2,,,,,,,,,1,,,69,79
28542,note_on,,8,0,1,,,,,,,,,0,,,74,79
28546,note_on,,4,0,1,,,,,,,,,0,,,74,0
28548,note_on,,2,0,1,,,,,,,,,0,,,73,79
28552,note_on,,4,0,1,,,,,,,,,0,,,73,0
28552,note_on,,16,0,2,,,,,,,,,1,,,69,0
28554,note_on,,2,0,1,,,,,,,,,0,,,71,79
28556,note_on,,20,0,4,,,,,,,,,3,,,83,0
28558,note_on,,4,0,1,,,,,,,,,0,,,71,0
28560,note_on,,48,0,5,,,,,,,,,4,,,57,63
28560,note_on,,8,0,2,,,,,,,,,1,,,71,79
28560,note_on,,48,0,3,,,,,,,,,2,,,74,56
28560,note_on,,48,0,6,,,,,,,,,5,,,57,0
28566,note_on,,8,0,1,,,,,,,,,0,,,78,79
28570,note_on,,4,0,1,,,,,,,,,0,,,78,0
28572,note_on,,2,0,1,,,,,,,,,0,,,76,79
28576,note_on,,4,0,1,,,,,,,,,0,,,76,0
28576,note_on,,16,0,2,,,,,,,,,1,,,71,0
28578,note_on,,2,0,1,,,,,,,,,0,,,74,79
28582,note_on,,4,0,1,,,,,,,,,0,,,74,0
28584,note_on,,0,0,3,,,,,,,,,2,,,83,56
28584,note_on,,24,0,3,,,,,,,,,2,,,74,0
28584,note_on,,8,0,2,,,,,,,,,1,,,69,79
28590,note_on,,8,0,1,,,,,,,,,0,,,74,79
28594,note_on,,4,0,1,,,,,,,,,0,,,74,0
28596,note_on,,2,0,1,,,,,,,,,0,,,73,79
28600,note_on,,4,0,1,,,,,,,,,0,,,73,0
28600,note_on,,16,0,2,,,,,,,,,1,,,69,0
28602,note_on,,2,0,1,,,,,,,,,0,,,71,79
28606,note_on,,4,0,1,,,,,,,,,0,,,71,0
28608,note_on,,24,0,3,,,,,,,,,2,,,83,0
28608,note_on,,52,0,4,,,,,,,,,3,,,74,63
28608,note_on,,48,0,6,,,,,,,,,5,,,57,56
28608,note_on,,8,0,2,,,,,,,,,1,,,71,79
28608,note_on,,48,0,5,,,,,,,,,4,,,57,0
28614,note_on,,8,0,1,,,,,,,,,0,,,76,79
28618,note_on,,4,0,1,,,,,,,,,0,,,76,0
28620,note_on,,2,0,1,,,,,,,,,0,,,74,79
28624,note_on,,16,0,2,,,,,,,,,1,,,71,0
28624,note_on,,4,0,1,,,,,,,,,0,,,74,0
28626,note_on,,2,0,1,,,,,,,,,0,,,73,79
28628,note_on,,20,0,4,,,,,,,,,3,,,74,0
28630,note_on,,4,0,1,,,,,,,,,0,,,73,0
28632,note_on,,8,0,2,,,,,,,,,1,,,68,79
28632,note_on,,4,0,4,,,,,,,,,3,,,71,63
28638,note_on,,8,0,1,,,,,,,,,0,,,73,79
28642,note_on,,4,0,1,,,,,,,,,0,,,73,0
28644,note_on,,2,0,1,,,,,,,,,0,,,71,79
28648,note_on,,16,0,2,,,,,,,,,1,,,68,0
28648,note_on,,4,0,1,,,,,,,,,0,,,71,0
28650,note_on,,2,0,1,,,,,,,,,0,,,69,79
28652,note_on,,20,0,4,,,,,,,,,3,,,71,0
28654,note_on,,4,0,1,,,,,,,,,0,,,69,0
28656,note_on,,48,0,5,,,,,,,,,4,,,57,63
28656,note_on,,48,0,3,,,,,,,,,2,,,74,56
28656,note_on,,8,0,2,,,,,,,,,1,,,71,79
28656,note_on,,48,0,6,,,,,,,,,5,,,57,0
28662,note_on,,8,0,1,,,,,,,,,0,,,76,79
28666,note_on,,4,0,1,,,,,,,,,0,,,76,0
28668,note_on,,2,0,1,,,,,,,,,0,,,74,79
28672,note_on,,16,0,2,,,,,,,,,1,,,71,0
28672,note_on,,4,0,1,,,,,,,,,0,,,74,0
28674,note_on,,2,0,1,,,,,,,,,0,,,73,79
28678,note_on,,4,0,1,,,,,,,,,0,,,73,0
28680,note_on,,8,0,2,,,,,,,,,1,,,68,79
28680,note_on,,0,0,3,,,,,,,,,2,,,71,56
28680,note_on,,24,0,3,,,,,,,,,2,,,74,0
28686,note_on,,8,0,1,,,,,,,,,0,,,73,79
28690,note_on,,4,0,1,,,,,,,,,0,,,73,0
28692,note_on,,2,0,1,,,,,,,,,0,,,71,79
28696,note_on,,4,0,1,,,,,,,,,0,,,71,0
28696,note_on,,16,0,2,,,,,,,,,1,,,68,0
28698,note_on,,2,0,1,,,,,,,,,0,,,69,79
28702,note_on,,4,0,1,,,,,,,,,0,,,69,0
28704,note_on,,24,0,3,,,,,,,,,2,,,71,0
28704,note_on,,48,0,5,,,,,,,,,4,,,57,0
28704,note_on,,8,0,2,,,,,,,,,1,,,71,79
28704,note_on,,48,0,6,,,,,,,,,5,,,57,56
28704,note_on,,52,0,4,,,,,,,,,3,,,74,63
28710,note_on,,8,0,1,,,,,,,,,0,,,76,79
28714,note_on,,4,0,1,,,,,,,,,0,,,76,0
28716,note_on,,2,0,1,,,,,,,,,0,,,74,79
28720,note_on,,16,0,2,,,,,,,,,1,,,71,0
28720,note_on,,4,0,1,,,,,,,,,0,,,74,0
28722,note_on,,2,0,1,,,,,,,,,0,,,73,79
28724,note_on,,20,0,4,,,,,,,,,3,,,74,0
28726,note_on,,4,0,1,,,,,,,,,0,,,73,0
28728,note_on,,8,0,2,,,,,,,,,1,,,68,79
28728,note_on,,4,0,4,,,,,,,,,3,,,83,63
28734,note_on,,8,0,1,,,,,,,,,0,,,73,79
28738,note_on,,4,0,1,,,,,,,,,0,,,73,0
28740,note_on,,2,0,1,,,,,,,,,0,,,71,79
28744,note_on,,16,0,2,,,,,,,,,1,,,68,0
28744,note_on,,4,0,1,,,,,,,,,0,,,71,0
28746,note_on,,2,0,1,,,,,,,,,0,,,69,79
28748,note_on,,20,0,4,,,,,,,,,3,,,83,0
28750,note_on,,4,0,1,,,,,,,,,0,,,69,0
28752,note_on,,48,0,3,,,,,,,,,2,,,74,56
28752,note_on,,48,0,6,,,,,,,,,5,,,57,0
28752,note_on,,48,0,5,,,,,,,,,4,,,57,63
28752,note_on,,8,0,2,,,,,,,,,1,,,71,79
28758,note_on,,8,0,1,,,,,,,,,0,,,76,79
28762,note_on,,4,0,1,,,,,,,,,0,,,76,0
28764,note_on,,2,0,1,,,,,,,,,0,,,74,79
28768,note_on,,16,0,2,,,,,,,,,1,,,71,0
28768,note_on,,4,0,1,,,,,,,,,0,,,74,0
28770,note_on,,2,0,1,,,,,,,,,0,,,73,79
28774,note_on,,4,0,1,,,,,,,,,0,,,73,0
28776,note_on,,0,0,3,,,,,,,,,2,,,83,56
28776,note_on,,8,0,2,,,,,,,,,1,,,68,79
28776,note_on,,24,0,3,,,,,,,,,2,,,74,0
28782,note_on,,8,0,1,,,,,,,,,0,,,73,79
28786,note_on,,4,0,1,,,,,,,,,0,,,73,0
28788,note_on,,2,0,1,,,,,,,,,0,,,71,79
28792,note_on,,16,0,2,,,,,,,,,1,,,68,0
28792,note_on,,4,0,1,,,,,,,,,0,,,71,0
28794,note_on,,2,0,1,,,,,,,,,0,,,69,79
28798,note_on,,4,0,1,,,,,,,,,0,,,69,0
28800,note_on,,0,0,3,,,,,,,,,2,,,69,56
28800,note_on,,48,0,6,,,,,,,,,5,,,57,56
28800,note_on,,48,0,5,,,,,,,,,4,,,57,0
28800,note_on,,0,0,5,,,,,,,,,4,,,61,63
28800,note_on,,52,0,4,,,,,,,,,3,,,64,63
28800,note_on,,24,0,3,,,,,,,,,2,,,83,0
28800,note_on,,8,0,2,,,,,,,,,1,,,69,79
28804,note_on,,4,0,2,,,,,,,,,1,,,69,0
28806,note_on,,8,0,1,,,,,,,,,0,,,73,79
28810,note_on,,4,0,1,,,,,,,,,0,,,73,0
28812,note_on,,2,0,1,,,,,,,,,0,,,76,79
28816,note_on,,4,0,1,,,,,,,,,0,,,76,0
28818,note_on,,2,0,1,,,,,,,,,0,,,81,79
28822,note_on,,4,0,1,,,,,,,,,0,,,81,0
28824,note_on,,0,0,4,,,,,,,,,3,,,67,63
28824,note_on,,24,0,4,,,,,,,,,3,,,64,0
28824,note_on,,0,0,5,,,,,,,,,4,,,64,63
28824,note_on,,24,0,5,,,,,,,,,4,,,61,0
28824,note_on,,0,0,3,,,,,,,,,2,,,73,56
28824,note_on,,24,0,3,,,,,,,,,2,,,69,0
28824,note_on,,2,0,1,,,,,,,,,0,,,76,79
28828,note_on,,4,0,1,,,,,,,,,0,,,76,0
28830,note_on,,2,0,1,,,,,,,,,0,,,73,79
28834,note_on,,4,0,1,,,,,,,,,0,,,73,0
28836,note_on,,2,0,1,,,,,,,,,0,,,69,79
28840,note_on,,4,0,1,,,,,,,,,0,,,69,0
28842,note_on,,38,0,2,,,,,,,,,1,,,67,79
28846,note_on,,4,0,2,,,,,,,,,1,,,67,0
28848,note_on,,2,0,2,,,,,,,,,1,,,66,79
28848,note_on,,0,0,4,,,,,,,,,3,,,69,63
28848,note_on,,24,0,4,,,,,,,,,3,,,67,0
28848,note_on,,24,0,3,,,,,,,,,2,,,73,0
28848,note_on,,0,0,3,,,,,,,,,2,,,74,56
28848,note_on,,0,0,5,,,,,,,,,4,,,66,63
28848,note_on,,24,0,5,,,,,,,,,4,,,64,0
28852,note_on,,4,0,2,,,,,,,,,1,,,66,0
28854,note_on,,14,0,1,,,,,,,,,0,,,74,79
28858,note_on,,4,0,1,,,,,,,,,0,,,74,0
28860,note_on,,2,0,1,,,,,,,,,0,,,78,79
28864,note_on,,4,0,1,,,,,,,,,0,,,78,0
28866,note_on,,2,0,1,,,,,,,,,0,,,81,79
28870,note_on,,4,0,1,,,,,,,,,0,,,81,0
28872,note_on,,0,0,3,,,,,,,,,2,,,78,56
28872,note_on,,24,0,3,,,,,,,,,2,,,74,0
28872,note_on,,2,0,1,,,,,,,,,0,,,78,79
28872,note_on,,24,0,5,,,,,,,,,4,,,66,0
28872,note_on,,0,0,4,,,,,,,,,3,,,74,63
28872,note_on,,0,0,5,,,,,,,,,4,,,69,63
28872,note_on,,24,0,4,,,,,,,,,3,,,69,0
28876,note_on,,4,0,1,,,,,,,,,0,,,78,0
28878,note_on,,2,0,1,,,,,,,,,0,,,74,79
28882,note_on,,4,0,1,,,,,,,,,0,,,74,0
28884,note_on,,2,0,1,,,,,,,,,0,,,69,79
28888,note_on,,4,0,1,,,,,,,,,0,,,69,0
28890,note_on,,38,0,2,,,,,,,,,1,,,62,79
28894,note_on,,4,0,2,,,,,,,,,1,,,62,0
28896,note_on,,24,0,3,,,,,,,,,2,,,78,0
28896,note_on,,24,0,5,,,,,,,,,4,,,69,0
28896,note_on,,24,0,4,,,,,,,,,3,,,74,0
28896,note_on,,0,0,4,,,,,,,,,3,,,64,63
28896,note_on,,0,0,3,,,,,,,,,2,,,69,56
28896,note_on,,2,0,2,,,,,,,,,1,,,66,79
28896,note_on,,0,0,5,,,,,,,,,4,,,61,63
28900,note_on,,4,0,2,,,,,,,,,1,,,66,0
28902,note_on,,14,0,1,,,,,,,,,0,,,73,79
28906,note_on,,4,0,1,,,,,,,,,0,,,73,0
28908,note_on,,2,0,1,,,,,,,,,0,,,76,79
28912,note_on,,4,0,1,,,,,,,,,0,,,76,0
28914,note_on,,2,0,1,,,,,,,,,0,,,81,79
28918,note_on,,4,0,1,,,,,,,,,0,,,81,0
28920,note_on,,24,0,3,,,,,,,,,2,,,69,0
28920,note_on,,0,0,5,,,,,,,,,4,,,64,63
28920,note_on,,0,0,4,,,,,,,,,3,,,67,63
28920,note_on,,24,0,5,,,,,,,,,4,,,61,0
28920,note_on,,0,0,3,,,,,,,,,2,,,73,56
28920,note_on,,24,0,4,,,,,,,,,3,,,64,0
28920,note_on,,2,0,1,,,,,,,,,0,,,76,79
28924,note_on,,4,0,1,,,,,,,,,0,,,76,0
28926,note_on,,2,0,1,,,,,,,,,0,,,73,79
28930,note_on,,4,0,1,,,,,,,,,0,,,73,0
28932,note_on,,2,0,1,,,,,,,,,0,,,69,79
28936,note_on,,4,0,1,,,,,,,,,0,,,69,0
28938,note_on,,38,0,2,,,,,,,,,1,,,67,79
28942,note_on,,4,0,2,,,,,,,,,1,,,67,0
28944,note_on,,0,0,5,,,,,,,,,4,,,66,63
28944,note_on,,24,0,5,,,,,,,,,4,,,64,0
28944,note_on,,24,0,3,,,,,,,,,2,,,73,0
28944,note_on,,0,0,4,,,,,,,,,3,,,69,63
28944,note_on,,2,0,2,,,,,,,,,1,,,66,79
28944,note_on,,0,0,3,,,,,,,,,2,,,74,56
28944,note_on,,24,0,4,,,,,,,,,3,,,67,0
28948,note_on,,4,0,2,,,,,,,,,1,,,66,0
28950,note_on,,14,0,1,,,,,,,,,0,,,74,79
28954,note_on,,4,0,1,,,,,,,,,0,,,74,0
28956,note_on,,2,0,1,,,,,,,,,0,,,78,79
28960,note_on,,4,0,1,,,,,,,,,0,,,78,0
28962,note_on,,2,0,1,,,,,,,,,0,,,81,79
28966,note_on,,4,0,1,,,,,,,,,0,,,81,0
28968,note_on,,24,0,3,,,,,,,,,2,,,74,0
28968,note_on,,0,0,3,,,,,,,,,2,,,78,56
28968,note_on,,0,0,4,,,,,,,,,3,,,74,63
28968,note_on,,0,0,5,,,,,,,,,4,,,69,63
28968,note_on,,2,0,1,,,,,,,,,0,,,78,79
28968,note_on,,24,0,5,,,,,,,,,4,,,66,0
28968,note_on,,24,0,4,,,,,,,,,3,,,69,0
28972,note_on,,4,0,1,,,,,,,,,0,,,78,0
28974,note_on,,2,0,1,,,,,,,,,0,,,74,79
28978,note_on,,4,0,1,,,,,,,,,0,,,74,0
28980,note_on,,2,0,1,,,,,,,,,0,,,69,79
28984,note_on,,4,0,1,,,,,,,,,0,,,69,0
28986,note_on,,38,0,2,,,,,,,,,1,,,62,79
28990,note_on,,4,0,2,,,,,,,,,1,,,62,0
28992,note_on,,2,0,2,,,,,,,,,1,,,68,79
28992,note_on,,24,0,3,,,,,,,,,2,,,78,0
28992,note_on,,24,0,4,,,,,,,,,3,,,74,0
28992,note_on,,192,0,6,,,,,,,,,5,,,57,0
28992,note_on,,0,0,6,,,,,,,,,5,,,57,56
28992,note_on,,24,0,5,,,,,,,,,4,,,69,0
28992,note_on,,0,0,5,,,,,,,,,4,,,59,63
28996,note_on,,4,0,2,,,,,,,,,1,,,68,0
28998,note_on,,14,0,1,,,,,,,,,0,,,74,79
29002,note_on,,4,0,1,,,,,,,,,0,,,74,0
29004,note_on,,2,0,1,,,,,,,,,0,,,77,79
29008,note_on,,4,0,1,,,,,,,,,0,,,77,0
29010,note_on,,2,0,1,,,,,,,,,0,,,83,79
29014,note_on,,4,0,1,,,,,,,,,0,,,83,0
29016,note_on,,2,0,1,,,,,,,,,0,,,77,79
29020,note_on,,4,0,1,,,,,,,,,0,,,77,0
29022,note_on,,2,0,1,,,,,,,,,0,,,74,79
29026,note_on,,4,0,1,,,,,,,,,0,,,74,0
29028,note_on,,2,0,1,,,,,,,,,0,,,71,79
29032,note_on,,4,0,1,,,,,,,,,0,,,71,0
29034,note_on,,38,0,2,,,,,,,,,1,,,69,79
29038,note_on,,4,0,2,,,,,,,,,1,,,69,0
29040,note_on,,2,0,2,,,,,,,,,1,,,68,79
29044,note_on,,4,0,2,,,,,,,,,1,,,68,0
29046,note_on,,14,0,1,,,,,,,,,0,,,74,79
29050,note_on,,4,0,1,,,,,,,,,0,,,74,0
29052,note_on,,2,0,1,,,,,,,,,0,,,77,79
29056,note_on,,4,0,1,,,,,,,,,0,,,77,0
29058,note_on,,2,0,1,,,,,,,,,0,,,83,79
29062,note_on,,4,0,1,,,,,,,,,0,,,83,0
29064,note_on,,2,0,1,,,,,,,,,0,,,77,79
29068,note_on,,4,0,1,,,,,,,,,0,,,77,0
29070,note_on,,2,0,1,,,,,,,,,0,,,74,79
29074,note_on,,4,0,1,,,,,,,,,0,,,74,0
29076,note_on,,2,0,1,,,,,,,,,0,,,71,79
29080,note_on,,4,0,1,,,,,,,,,0,,,71,0
29082,note_on,,38,0,2,,,,,,,,,1,,,69,79
29086,note_on,,4,0,2,,,,,,,,,1,,,69,0
29088,note_on,,2,0,2,,,,,,,,,1,,,67,79
29088,note_on,,96,0,4,,,,,,,,,3,,,64,63
29088,note_on,,96,0,5,,,,,,,,,4,,,59,0
29088,note_on,,0,0,5,,,,,,,,,4,,,61,63
29092,note_on,,4,0,2,,,,,,,,,1,,,67,0
29094,note_on,,14,0,1,,,,,,,,,0,,,76,79
29098,note_on,,4,0,1,,,,,,,,,0,,,76,0
29100,note_on,,2,0,1,,,,,,,,,0,,,79,79
29104,note_on,,4,0,1,,,,,,,,,0,,,79,0
29106,note_on,,2,0,1,,,,,,,,,0,,,82,79
29110,note_on,,4,0,1,,,,,,,,,0,,,82,0
29112,note_on,,2,0,1,,,,,,,,,0,,,79,79
29116,note_on,,4,0,1,,,,,,,,,0,,,79,0
29118,note_on,,2,0,1,,,,,,,,,0,,,76,79
29122,note_on,,4,0,1,,,,,,,,,0,,,76,0
29124,note_on,,2,0,1,,,,,,,,,0,,,73,79
29128,note_on,,4,0,1,,,,,,,,,0,,,73,0
29130,note_on,,38,0,2,,,,,,,,,1,,,69,79
29134,note_on,,4,0,2,,,,,,,,,1,,,69,0
29136,note_on,,2,0,2,,,,,,,,,1,,,67,79
29140,note_on,,4,0,2,,,,,,,,,1,,,67,0
29142,note_on,,14,0,1,,,,,,,,,0,,,76,79
29146,note_on,,4,0,1,,,,,,,,,0,,,76,0
29148,note_on,,2,0,1,,,,,,,,,0,,,79,79
29152,note_on,,4,0,1,,,,,,,,,0,,,79,0
29154,note_on,,2,0,1,,,,,,,,,0,,,82,79
29158,note_on,,4,0,1,,,,,,,,,0,,,82,0
29160,note_on,,2,0,1,,,,,,,,,0,,,79,79
29164,note_on,,4,0,1,,,,,,,,,0,,,79,0
29166,note_on,,2,0,1,,,,,,,,,0,,,76,79
29170,note_on,,4,0,1,,,,,,,,,0,,,76,0
29172,note_on,,2,0,1,,,,,,,,,0,,,73,79
29176,note_on,,4,0,1,,,,,,,,,0,,,73,0
29178,note_on,,38,0,2,,,,,,,,,1,,,69,79
29182,note_on,,4,0,2,,,,,,,,,1,,,69,0
29184,note_on,,2,0,2,,,,,,,,,1,,,66,79
29184,set_tempo,,29184,1,0,,,,,,,697674,,,,,,
29184,note_on,,0,0,6,,,,,,,,,5,,,57,56
29184,note_on,,0,0,4,,,,,,,,,3,,,66,63
29184,note_on,,96,0,4,,,,,,,,,3,,,64,0
29184,note_on,,192,0,6,,,,,,,,,5,,,57,0
29184,note_on,,96,0,5,,,,,,,,,4,,,61,0
29184,note_on,,0,0,5,,,,,,,,,4,,,62,63
29188,note_on,,4,0,2,,,,,,,,,1,,,66,0
29190,note_on,,14,0,1,,,,,,,,,0,,,74,79
29194,note_on,,4,0,1,,,,,,,,,0,,,74,0
29196,note_on,,2,0,1,,,,,,,,,0,,,78,79
29200,note_on,,4,0,1,,,,,,,,,0,,,78,0
29202,note_on,,2,0,1,,,,,,,,,0,,,81,79
29206,note_on,,4,0,1,,,,,,,,,0,,,81,0
29208,note_on,,2,0,1,,,,,,,,,0,,,78,79
29212,note_on,,4,0,1,,,,,,,,,0,,,78,0
29214,note_on,,2,0,1,,,,,,,,,0,,,74,79
29218,note_on,,4,0,1,,,,,,,,,0,,,74,0
29220,note_on,,2,0,1,,,,,,,,,0,,,69,79
29224,note_on,,4,0,1,,,,,,,,,0,,,69,0
29226,note_on,,38,0,2,,,,,,,,,1,,,67,79
29230,note_on,,4,0,2,,,,,,,,,1,,,67,0
29232,set_tempo,,48,1,0,,,,,,,714286,,,,,,
29232,note_on,,2,0,2,,,,,,,,,1,,,66,79
29236,note_on,,4,0,2,,,,,,,,,1,,,66,0
29238,note_on,,14,0,1,,,,,,,,,0,,,74,79
29242,note_on,,4,0,1,,,,,,,,,0,,,74,0
29244,note_on,,2,0,1,,,,,,,,,0,,,78,79
29248,note_on,,4,0,1,,,,,,,,,0,,,78,0
29250,note_on,,2,0,1,,,,,,,,,0,,,81,79
29254,note_on,,4,0,1,,,,,,,,,0,,,81,0
29256,set_tempo,,24,1,0,,,,,,,731707,,,,,,
29256,note_on,,2,0,1,,,,,,,,,0,,,78,79
29260,note_on,,4,0,1,,,,,,,,,0,,,78,0
29262,note_on,,2,0,1,,,,,,,,,0,,,74,79
29266,note_on,,4,0,1,,,,,,,,,0,,,74,0
29268,note_on,,2,0,1,,,,,,,,,0,,,69,79
29272,note_on,,4,0,1,,,,,,,,,0,,,69,0
29274,note_on,,38,0,2,,,,,,,,,1,,,67,79
29278,note_on,,4,0,2,,,,,,,,,1,,,67,0
29280,set_tempo,,24,1,0,,,,,,,750000,,,,,,
29280,note_on,,288,0,3,,,,,,,,,2,,,74,56
29280,note_on,,2,0,2,,,,,,,,,1,,,65,79
29280,note_on,,96,0,4,,,,,,,,,3,,,66,0
29280,note_on,,0,0,4,,,,,,,,,3,,,68,63
29284,note_on,,4,0,2,,,,,,,,,1,,,65,0
29286,note_on,,14,0,1,,,,,,,,,0,,,74,79
29290,note_on,,4,0,1,,,,,,,,,0,,,74,0
29292,note_on,,2,0,1,,,,,,,,,0,,,77,79
29292,set_tempo,,12,1,0,,,,,,,769231,,,,,,
29296,note_on,,4,0,1,,,,,,,,,0,,,77,0
29298,note_on,,2,0,1,,,,,,,,,0,,,80,79
29302,note_on,,4,0,1,,,,,,,,,0,,,80,0
29304,note_on,,2,0,1,,,,,,,,,0,,,77,79
29308,note_on,,4,0,1,,,,,,,,,0,,,77,0
29310,note_on,,2,0,1,,,,,,,,,0,,,74,79
29314,note_on,,4,0,1,,,,,,,,,0,,,74,0
29316,note_on,,2,0,1,,,,,,,,,0,,,71,79
29316,set_tempo,,24,1,0,,,,,,,800000,,,,,,
29320,note_on,,4,0,1,,,,,,,,,0,,,71,0
29322,note_on,,38,0,2,,,,,,,,,1,,,64,79
29326,note_on,,4,0,2,,,,,,,,,1,,,64,0
29328,note_on,,2,0,2,,,,,,,,,1,,,65,79
29332,note_on,,4,0,2,,,,,,,,,1,,,65,0
29334,note_on,,14,0,1,,,,,,,,,0,,,74,79
29338,note_on,,4,0,1,,,,,,,,,0,,,74,0
29340,note_on,,2,0,1,,,,,,,,,0,,,77,79
29340,set_tempo,,24,1,0,,,,,,,845070,,,,,,
29344,note_on,,4,0,1,,,,,,,,,0,,,77,0
29346,note_on,,2,0,1,,,,,,,,,0,,,80,79
29350,note_on,,4,0,1,,,,,,,,,0,,,80,0
29352,set_tempo,,12,1,0,,,,,,,895522,,,,,,
29352,note_on,,2,0,1,,,,,,,,,0,,,77,79
29356,note_on,,4,0,1,,,,,,,,,0,,,77,0
29358,note_on,,2,0,1,,,,,,,,,0,,,74,79
29362,note_on,,4,0,1,,,,,,,,,0,,,74,0
29364,set_tempo,,12,1,0,,,,,,,1395349,,,,,,
29364,note_on,,2,0,1,,,,,,,,,0,,,71,79
29368,note_on,,4,0,1,,,,,,,,,0,,,71,0
29370,note_on,,38,0,2,,,,,,,,,1,,,62,79
29374,note_on,,4,0,2,,,,,,,,,1,,,62,0
29376,note_on,,8,0,1,,,,,,,,,0,,,73,95
29376,note_on,,0,0,1,,,,,,,,,0,,,81,95
29376,note_on,,2,0,2,,,,,,,,,1,,,64,95
29376,note_on,,96,0,3,,,,,,,,,2,,,74,0
29376,note_on,,0,0,3,,,,,,,,,2,,,73,56
29376,note_on,,0,0,4,,,,,,,,,3,,,69,63
29376,note_on,,96,0,4,,,,,,,,,3,,,68,0
29376,note_on,,0,0,5,,,,,,,,,4,,,64,63
29376,note_on,,192,0,5,,,,,,,,,4,,,62,0
29376,note_on,,192,0,6,,,,,,,,,5,,,57,0
29376,note_on,,0,0,6,,,,,,,,,5,,,57,56
29376,set_tempo,,12,1,0,,,,,,,1200000,,,,,,
29386,note_on,,10,0,2,,,,,,,,,1,,,64,0
29388,note_on,,2,0,2,,,,,,,,,1,,,69,95
29388,set_tempo,,12,1,0,,,,,,,869565,,,,,,
29393,note_on,,5,0,2,,,,,,,,,1,,,69,0
29394,note_on,,1,0,2,,,,,,,,,1,,,67,95
29396,note_on,,20,0,1,,,,,,,,,0,,,73,0
29399,note_on,,5,0,2,,,,,,,,,1,,,67,0
29400,note_on,,24,0,5,,,,,,,,,4,,,64,0
29400,note_on,,24,0,6,,,,,,,,,5,,,57,0
29400,note_on,,1,0,2,,,,,,,,,1,,,66,95
29400,note_on,,4,0,1,,,,,,,,,0,,,74,95
29400,note_on,,24,0,3,,,,,,,,,2,,,73,0
29400,note_on,,24,0,4,,,,,,,,,3,,,69,0
29400,set_tempo,,12,1,0,,,,,,,800000,,,,,,
29410,note_on,,10,0,2,,,,,,,,,1,,,66,0
29412,set_tempo,,12,1,0,,,,,,,789474,,,,,,
29412,note_on,,2,0,2,,,,,,,,,1,,,69,95
29420,note_on,,20,0,1,,,,,,,,,0,,,74,0
29422,note_on,,10,0,2,,,,,,,,,1,,,69,0
29424,note_on,,2,0,2,,,,,,,,,1,,,64,95
29424,set_tempo,,12,1,0,,,,,,,750000,,,,,,
29424,note_on,,4,0,1,,,,,,,,,0,,,73,95
29434,note_on,,10,0,2,,,,,,,,,1,,,64,0
29436,note_on,,2,0,2,,,,,,,,,1,,,69,95
29436,set_tempo,,12,1,0,,,,,,,731707,,,,,,
29444,note_on,,20,0,1,,,,,,,,,0,,,73,0
29446,note_on,,10,0,2,,,,,,,,,1,,,69,0
29448,note_on,,2,0,2,,,,,,,,,1,,,62,95
29448,note_on,,4,0,1,,,,,,,,,0,,,71,95
29458,note_on,,10,0,2,,,,,,,,,1,,,62,0
29460,set_tempo,,24,1,0,,,,,,,697674,,,,,,
29460,note_on,,2,0,2,,,,,,,,,1,,,69,95
29468,note_on,,20,0,1,,,,,,,,,0,,,71,0
29470,note_on,,10,0,2,,,,,,,,,1,,,69,0
29472,set_tempo,,12,1,0,,,,,,,697674,,,,,,
29472,note_on,,2,0,2,,,,,,,,,1,,,61,95
29472,note_on,,4,0,1,,,,,,,,,0,,,69,95
29482,note_on,,10,0,2,,,,,,,,,1,,,61,0
29484,note_on,,2,0,2,,,,,,,,,1,,,69,95
29492,note_on,,20,0,1,,,,,,,,,0,,,69,0
29494,note_on,,10,0,2,,,,,,,,,1,,,69,0
29496,note_on,,4,0,1,,,,,,,,,0,,,78,95
29496,note_on,,2,0,2,,,,,,,,,1,,,62,95
29506,note_on,,10,0,2,,,,,,,,,1,,,62,0
29508,note_on,,2,0,2,,,,,,,,,1,,,69,95
29516,note_on,,20,0,1,,,,,,,,,0,,,78,0
29518,note_on,,10,0,2,,,,,,,,,1,,,69,0
29520,note_on,,4,0,1,,,,,,,,,0,,,76,95
29520,note_on,,2,0,2,,,,,,,,,1,,,61,95
29530,note_on,,10,0,2,,,,,,,,,1,,,61,0
29532,note_on,,2,0,2,,,,,,,,,1,,,69,95
29540,note_on,,20,0,1,,,,,,,,,0,,,76,0
29542,note_on,,10,0,2,,,,,,,,,1,,,69,0
29544,note_on,,4,0,1,,,,,,,,,0,,,74,95
29544,note_on,,2,0,2,,,,,,,,,1,,,59,95
29554,note_on,,10,0,2,,,,,,,,,1,,,59,0
29556,note_on,,2,0,2,,,,,,,,,1,,,69,95
29564,note_on,,20,0,1,,,,,,,,,0,,,74,0
29566,note_on,,10,0,2,,,,,,,,,1,,,69,0
29568,note_on,,4,0,1,,,,,,,,,0,,,81,0
29568,note_on,,2,0,2,,,,,,,,,1,,,57,95
29568,note_on,,0,0,1,,,,,,,,,0,,,73,95
29578,note_on,,10,0,2,,,,,,,,,1,,,57,0
29580,note_on,,2,0,2,,,,,,,,,1,,,61,95
29590,note_on,,10,0,2,,,,,,,,,1,,,61,0
29592,note_on,,24,0,1,,,,,,,,,0,,,83,95
29592,note_on,,2,0,2,,,,,,,,,1,,,55,95
29602,note_on,,10,0,2,,,,,,,,,1,,,55,0
29604,note_on,,2,0,2,,,,,,,,,1,,,61,95
29612,note_on,,20,0,1,,,,,,,,,0,,,83,0
29614,note_on,,10,0,2,,,,,,,,,1,,,61,0
29616,note_on,,2,0,2,,,,,,,,,1,,,54,95
29616,note_on,,4,0,1,,,,,,,,,0,,,81,95
29626,note_on,,10,0,2,,,,,,,,,1,,,54,0
29628,note_on,,2,0,2,,,,,,,,,1,,,61,95
29636,note_on,,20,0,1,,,,,,,,,0,,,81,0
29638,note_on,,10,0,2,,,,,,,,,1,,,61,0
29640,note_on,,2,0,2,,,,,,,,,1,,,52,95
29640,note_on,,4,0,1,,,,,,,,,0,,,79,95
29648,note_on,,8,0,1,,,,,,,,,0,,,73,0
29650,note_on,,10,0,2,,,,,,,,,1,,,52,0
29652,note_on,,2,0,2,,,,,,,,,1,,,61,95
29660,note_on,,12,0,1,,,,,,,,,0,,,79,0
29662,note_on,,10,0,2,,,,,,,,,1,,,61,0
29664,note_on,,0,0,1,,,,,,,,,0,,,78,95
29664,note_on,,4,0,1,,,,,,,,,0,,,74,95
29664,note_on,,2,0,2,,,,,,,,,1,,,50,95
29674,note_on,,10,0,1,,,,,,,,,0,,,78,0
29674,note_on,,10,0,2,,,,,,,,,1,,,50,0
29676,note_on,,2,0,1,,,,,,,,,0,,,79,95
29676,note_on,,2,0,2,,,,,,,,,1,,,62,95
29686,note_on,,10,0,2,,,,,,,,,1,,,62,0
29686,note_on,,10,0,1,,,,,,,,,0,,,79,0
29688,note_on,,2,0,2,,,,,,,,,1,,,52,95
29688,note_on,,2,0,1,,,,,,,,,0,,,79,95
29693,note_on,,5,0,1,,,,,,,,,0,,,79,0
29694,note_on,,1,0,1,,,,,,,,,0,,,81,95
29698,note_on,,10,0,2,,,,,,,,,1,,,52,0
29699,note_on,,5,0,1,,,,,,,,,0,,,81,0
29700,note_on,,2,0,2,,,,,,,,,1,,,62,95
29700,note_on,,1,0,1,,,,,,,,,0,,,78,95
29705,note_on,,5,0,1,,,,,,,,,0,,,78,0
29706,note_on,,1,0,1,,,,,,,,,0,,,79,95
29710,note_on,,10,0,2,,,,,,,,,1,,,62,0
29711,note_on,,5,0,1,,,,,,,,,0,,,79,0
29712,note_on,,2,0,2,,,,,,,,,1,,,54,95
29712,note_on,,1,0,1,,,,,,,,,0,,,81,95
29722,note_on,,10,0,2,,,,,,,,,1,,,54,0
29724,note_on,,2,0,2,,,,,,,,,1,,,62,95
29732,note_on,,20,0,1,,,,,,,,,0,,,81,0
29734,note_on,,10,0,2,,,,,,,,,1,,,62,0
29736,note_on,,2,0,2,,,,,,,,,1,,,55,95
29736,note_on,,4,0,1,,,,,,,,,0,,,79,95
29744,note_on,,8,0,1,,,,,,,,,0,,,74,0
29746,note_on,,2,0,1,,,,,,,,,0,,,79,0
29746,note_on,,10,0,2,,,,,,,,,1,,,55,0
29748,note_on,,2,0,1,,,,,,,,,0,,,78,95
29748,note_on,,2,0,2,,,,,,,,,1,,,62,95
29758,note_on,,10,0,1,,,,,,,,,0,,,78,0
29758,note_on,,10,0,2,,,,,,,,,1,,,62,0
29760,set_tempo,,288,1,0,,,,,,,1304348,,,,,,
29760,note_on,,2,0,2,,,,,,,,,1,,,57,95
29760,note_on,,0,0,1,,,,,,,,,0,,,76,95
29760,note_on,,2,0,1,,,,,,,,,0,,,73,95
29770,note_on,,10,0,1,,,,,,,,,0,,,76,0
29770,note_on,,0,0,1,,,,,,,,,0,,,73,0
29772,note_on,,2,0,1,,,,,,,,,0,,,81,95
29772,set_tempo,,12,1,0,,,,,,,697674,,,,,,
29777,note_on,,5,0,1,,,,,,,,,0,,,81,0
29778,note_on,,1,0,1,,,,,,,,,0,,,79,95
29780,note_on,,20,0,2,,,,,,,,,1,,,57,0
29783,note_on,,5,0,1,,,,,,,,,0,,,79,0
29784,set_tempo,,12,1,0,,,,,,,697674,,,,,,
29784,note_on,,1,0,1,,,,,,,,,0,,,78,95
29784,note_on,,4,0,2,,,,,,,,,1,,,62,95
29794,note_on,,10,0,1,,,,,,,,,0,,,78,0
29796,note_on,,2,0,1,,,,,,,,,0,,,81,95
29804,note_on,,20,0,2,,,,,,,,,1,,,62,0
29806,note_on,,10,0,1,,,,,,,,,0,,,81,0
29808,note_on,,2,0,1,,,,,,,,,0,,,76,95
29808,note_on,,4,0,2,,,,,,,,,1,,,61,95
29818,note_on,,10,0,1,,,,,,,,,0,,,76,0
29820,note_on,,2,0,1,,,,,,,,,0,,,81,95
29828,note_on,,20,0,2,,,,,,,,,1,,,61,0
29830,note_on,,10,0,1,,,,,,,,,0,,,81,0
29832,note_on,,4,0,2,,,,,,,,,1,,,59,95
29832,note_on,,2,0,1,,,,,,,,,0,,,74,95
29842,note_on,,10,0,1,,,,,,,,,0,,,74,0
29844,note_on,,2,0,1,,,,,,,,,0,,,81,95
29852,note_on,,20,0,2,,,,,,,,,1,,,59,0
29854,note_on,,10,0,1,,,,,,,,,0,,,81,0
29856,note_on,,2,0,1,,,,,,,,,0,,,73,95
29856,note_on,,4,0,2,,,,,,,,,1,,,57,95
29866,note_on,,10,0,1,,,,,,,,,0,,,73,0
29868,note_on,,2,0,1,,,,,,,,,0,,,81,95
29878,note_on,,10,0,1,,,,,,,,,0,,,81,0
29880,note_on,,24,0,2,,,,,,,,,1,,,54,95
29880,note_on,,2,0,1,,,,,,,,,0,,,74,95
29890,note_on,,10,0,1,,,,,,,,,0,,,74,0
29892,note_on,,2,0,1,,,,,,,,,0,,,81,95
29900,note_on,,20,0,2,,,,,,,,,1,,,54,0
29902,note_on,,10,0,1,,,,,,,,,0,,,81,0
29904,note_on,,2,0,1,,,,,,,,,0,,,73,95
29904,note_on,,4,0,2,,,,,,,,,1,,,52,95
29914,note_on,,10,0,1,,,,,,,,,0,,,73,0
29916,note_on,,2,0,1,,,,,,,,,0,,,81,95
29924,note_on,,20,0,2,,,,,,,,,1,,,52,0
29926,note_on,,10,0,1,,,,,,,,,0,,,81,0
29928,note_on,,2,0,1,,,,,,,,,0,,,71,95
29928,note_on,,4,0,2,,,,,,,,,1,,,50,95
29936,note_on,,8,0,2,,,,,,,,,1,,,57,0
29938,note_on,,10,0,1,,,,,,,,,0,,,71,0
29940,note_on,,2,0,1,,,,,,,,,0,,,81,95
29948,note_on,,12,0,2,,,,,,,,,1,,,50,0
29950,note_on,,10,0,1,,,,,,,,,0,,,81,0
29952,note_on,,2,0,1,,,,,,,,,0,,,69,95
29952,note_on,,4,0,2,,,,,,,,,1,,,49,95
29962,note_on,,10,0,1,,,,,,,,,0,,,69,0
29964,note_on,,2,0,1,,,,,,,,,0,,,73,95
29974,note_on,,10,0,1,,,,,,,,,0,,,73,0
29976,note_on,,24,0,2,,,,,,,,,1,,,59,95
29976,note_on,,2,0,1,,,,,,,,,0,,,67,95
29986,note_on,,10,0,1,,,,,,,,,0,,,67,0
29988,note_on,,2,0,1,,,,,,,,,0,,,73,95
29992,note_on,,16,0,2,,,,,,,,,1,,,49,0
29996,note_on,,4,0,2,,,,,,,,,1,,,59,0
29998,note_on,,10,0,1,,,,,,,,,0,,,73,0
30000,note_on,,2,0,1,,,,,,,,,0,,,66,95
30000,note_on,,4,0,2,,,,,,,,,1,,,57,95
30010,note_on,,10,0,1,,,,,,,,,0,,,66,0
30012,note_on,,2,0,1,,,,,,,,,0,,,73,95
30020,note_on,,20,0,2,,,,,,,,,1,,,57,0
30022,note_on,,10,0,1,,,,,,,,,0,,,73,0
30024,note_on,,0,0,2,,,,,,,,,1,,,55,95
30024,note_on,,4,0,2,,,,,,,,,1,,,45,95
30024,note_on,,2,0,1,,,,,,,,,0,,,64,95
30034,note_on,,10,0,1,,,,,,,,,0,,,64,0
30036,note_on,,2,0,1,,,,,,,,,0,,,73,95
30044,note_on,,20,0,2,,,,,,,,,1,,,55,0
30044,note_on,,0,0,2,,,,,,,,,1,,,45,0
30046,note_on,,10,0,1,,,,,,,,,0,,,73,0
30048,note_on,,2,0,1,,,,,,,,,0,,,62,95
30048,note_on,,4,0,2,,,,,,,,,1,,,50,95
30048,note_on,,0,0,2,,,,,,,,,1,,,54,95
30058,note_on,,10,0,1,,,,,,,,,0,,,62,0
30060,note_on,,2,0,1,,,,,,,,,0,,,74,95
30068,note_on,,20,0,2,,,,,,,,,1,,,54,0
30070,note_on,,10,0,1,,,,,,,,,0,,,74,0
30072,note_on,,2,0,1,,,,,,,,,0,,,64,95
30072,note_on,,4,0,2,,,,,,,,,1,,,55,95
30082,note_on,,10,0,1,,,,,,,,,0,,,64,0
30084,note_on,,2,0,1,,,,,,,,,0,,,74,95
30088,note_on,,16,0,2,,,,,,,,,1,,,50,0
30092,note_on,,4,0,2,,,,,,,,,1,,,55,0
30094,note_on,,10,0,1,,,,,,,,,0,,,74,0
30096,note_on,,4,0,2,,,,,,,,,1,,,57,95
30096,note_on,,2,0,1,,,,,,,,,0,,,66,95
30106,note_on,,10,0,1,,,,,,,,,0,,,66,0
30108,note_on,,2,0,1,,,,,,,,,0,,,74,95
30116,note_on,,20,0,2,,,,,,,,,1,,,57,0
30118,note_on,,10,0,1,,,,,,,,,0,,,74,0
30120,note_on,,2,0,1,,,,,,,,,0,,,64,95
30120,note_on,,4,0,2,,,,,,,,,1,,,55,95
30130,note_on,,10,0,2,,,,,,,,,1,,,55,0
30130,note_on,,10,0,1,,,,,,,,,0,,,64,0
30132,note_on,,2,0,2,,,,,,,,,1,,,54,95
30132,note_on,,2,0,1,,,,,,,,,0,,,62,95
30142,note_on,,10,0,1,,,,,,,,,0,,,62,0
30142,note_on,,10,0,2,,,,,,,,,1,,,54,0
30144,note_on,,2,0,1,,,,,,,,,0,,,64,95
30144,note_on,,0,0,2,,,,,,,,,1,,,55,95
30144,note_on,,2,0,2,,,,,,,,,1,,,45,95
30154,note_on,,10,0,1,,,,,,,,,0,,,64,0
30156,note_on,,2,0,1,,,,,,,,,0,,,73,95
30164,note_on,,20,0,2,,,,,,,,,1,,,55,0
30166,note_on,,10,0,1,,,,,,,,,0,,,73,0
30168,note_on,,2,0,1,,,,,,,,,0,,,66,95
30168,note_on,,4,0,2,,,,,,,,,1,,,57,95
30178,note_on,,10,0,1,,,,,,,,,0,,,66,0
30180,note_on,,2,0,1,,,,,,,,,0,,,73,95
30184,note_on,,16,0,2,,,,,,,,,1,,,45,0
30188,note_on,,4,0,2,,,,,,,,,1,,,57,0
30190,note_on,,10,0,1,,,,,,,,,0,,,73,0
30192,note_on,,2,0,1,,,,,,,,,0,,,67,95
30192,note_on,,4,0,2,,,,,,,,,1,,,59,95
30202,note_on,,10,0,1,,,,,,,,,0,,,67,0
30204,note_on,,2,0,1,,,,,,,,,0,,,73,95
30212,note_on,,20,0,2,,,,,,,,,1,,,59,0
30214,note_on,,10,0,1,,,,,,,,,0,,,73,0
30216,note_on,,2,0,1,,,,,,,,,0,,,66,95
30216,note_on,,4,0,2,,,,,,,,,1,,,57,95
30226,note_on,,10,0,2,,,,,,,,,1,,,57,0
30226,note_on,,10,0,1,,,,,,,,,0,,,66,0
30228,note_on,,2,0,1,,,,,,,,,0,,,64,95
30228,note_on,,2,0,2,,,,,,,,,1,,,55,95
30238,note_on,,10,0,1,,,,,,,,,0,,,64,0
30238,note_on,,10,0,2,,,,,,,,,1,,,55,0
30240,note_on,,2,0,1,,,,,,,,,0,,,62,95
30240,note_on,,2,0,2,,,,,,,,,1,,,45,95
30240,note_on,,0,0,2,,,,,,,,,1,,,54,95
30250,note_on,,10,0,1,,,,,,,,,0,,,62,0
30252,note_on,,2,0,1,,,,,,,,,0,,,74,95
30260,note_on,,20,0,2,,,,,,,,,1,,,54,0
30262,note_on,,10,0,1,,,,,,,,,0,,,74,0
30264,note_on,,4,0,2,,,,,,,,,1,,,55,95
30264,note_on,,2,0,1,,,,,,,,,0,,,64,95
30274,note_on,,10,0,1,,,,,,,,,0,,,64,0
30276,note_on,,2,0,1,,,,,,,,,0,,,74,95
30280,note_on,,16,0,2,,,,,,,,,1,,,45,0
30284,note_on,,4,0,2,,,,,,,,,1,,,55,0
30286,note_on,,10,0,1,,,,,,,,,0,,,74,0
30288,note_on,,2,0,1,,,,,,,,,0,,,66,95
30288,note_on,,4,0,2,,,,,,,,,1,,,57,95
30298,note_on,,10,0,1,,,,,,,,,0,,,66,0
30300,note_on,,2,0,1,,,,,,,,,0,,,74,95
30308,note_on,,20,0,2,,,,,,,,,1,,,57,0
30310,note_on,,10,0,1,,,,,,,,,0,,,74,0
30312,note_on,,4,0,2,,,,,,,,,1,,,55,95
30312,note_on,,2,0,1,,,,,,,,,0,,,64,95
30322,note_on,,10,0,1,,,,,,,,,0,,,64,0
30322,note_on,,10,0,2,,,,,,,,,1,,,55,0
30324,note_on,,2,0,1,,,,,,,,,0,,,62,95
30324,note_on,,2,0,2,,,,,,,,,1,,,54,95
30334,note_on,,10,0,1,,,,,,,,,0,,,62,0
30334,note_on,,10,0,2,,,,,,,,,1,,,54,0
30336,note_on,,2,0,1,,,,,,,,,0,,,64,95
30336,note_on,,2,0,2,,,,,,,,,1,,,45,95
30336,note_on,,0,0,2,,,,,,,,,1,,,55,95
30346,note_on,,10,0,1,,,,,,,,,0,,,64,0
30348,note_on,,2,0,1,,,,,,,,,0,,,73,95
30356,note_on,,20,0,2,,,,,,,,,1,,,55,0
30358,note_on,,10,0,1,,,,,,,,,0,,,73,0
30360,note_on,,2,0,1,,,,,,,,,0,,,66,95
30360,note_on,,4,0,2,,,,,,,,,1,,,54,95
30370,note_on,,10,0,1,,,,,,,,,0,,,66,0
30372,note_on,,2,0,1,,,,,,,,,0,,,73,95
30376,note_on,,16,0,2,,,,,,,,,1,,,45,0
30380,note_on,,4,0,2,,,,,,,,,1,,,54,0
30382,note_on,,10,0,1,,,,,,,,,0,,,73,0
30384,note_on,,4,0,2,,,,,,,,,1,,,52,95
30384,note_on,,2,0,1,,,,,,,,,0,,,67,95
30394,note_on,,10,0,1,,,,,,,,,0,,,67,0
30396,note_on,,2,0,1,,,,,,,,,0,,,73,95
30404,note_on,,20,0,2,,,,,,,,,1,,,52,0
30406,note_on,,10,0,1,,,,,,,,,0,,,73,0
30408,note_on,,4,0,2,,,,,,,,,1,,,45,95
30408,note_on,,2,0,1,,,,,,,,,0,,,66,95
30418,note_on,,10,0,1,,,,,,,,,0,,,66,0
30420,note_on,,2,0,1,,,,,,,,,0,,,64,95
30428,note_on,,20,0,2,,,,,,,,,1,,,45,0
30430,note_on,,10,0,1,,,,,,,,,0,,,64,0
30432,note_on,,4,0,2,,,,,,,,,1,,,50,95
30432,note_on,,2,0,1,,,,,,,,,0,,,66,95
30442,note_on,,10,0,1,,,,,,,,,0,,,66,0
30444,note_on,,2,0,1,,,,,,,,,0,,,72,95
30452,note_on,,20,0,2,,,,,,,,,1,,,50,0
30454,note_on,,10,0,1,,,,,,,,,0,,,72,0
30456,note_on,,2,0,1,,,,,,,,,0,,,67,95
30456,note_on,,4,0,2,,,,,,,,,1,,,52,95
30466,note_on,,10,0,1,,,,,,,,,0,,,67,0
30468,note_on,,2,0,1,,,,,,,,,0,,,72,95
30476,note_on,,20,0,2,,,,,,,,,1,,,52,0
30478,note_on,,10,0,1,,,,,,,,,0,,,72,0
30480,note_on,,2,0,1,,,,,,,,,0,,,69,95
30480,note_on,,4,0,2,,,,,,,,,1,,,54,95
30490,note_on,,10,0,1,,,,,,,,,0,,,69,0
30492,note_on,,2,0,1,,,,,,,,,0,,,72,95
30500,note_on,,20,0,2,,,,,,,,,1,,,54,0
30502,note_on,,10,0,1,,,,,,,,,0,,,72,0
30504,note_on,,4,0,2,,,,,,,,,1,,,52,95
30504,note_on,,2,0,1,,,,,,,,,0,,,67,95
30514,note_on,,10,0,1,,,,,,,,,0,,,67,0
30514,note_on,,10,0,2,,,,,,,,,1,,,52,0
30516,note_on,,2,0,2,,,,,,,,,1,,,50,95
30516,note_on,,2,0,1,,,,,,,,,0,,,66,95
30526,note_on,,10,0,1,,,,,,,,,0,,,66,0
30526,note_on,,10,0,2,,,,,,,,,1,,,50,0
30528,note_on,,2,0,1,,,,,,,,,0,,,71,95
30528,note_on,,2,0,2,,,,,,,,,1,,,55,95
30538,note_on,,10,0,2,,,,,,,,,1,,,55,0
30540,note_on,,2,0,2,,,,,,,,,1,,,62,95
30550,note_on,,10,0,2,,,,,,,,,1,,,62,0
30552,note_on,,2,0,2,,,,,,,,,1,,,57,95
30552,note_on,,24,0,1,,,,,,,,,0,,,69,95
30562,note_on,,10,0,2,,,,,,,,,1,,,57,0
30564,note_on,,2,0,2,,,,,,,,,1,,,62,95
30572,note_on,,20,0,1,,,,,,,,,0,,,69,0
30574,note_on,,10,0,2,,,,,,,,,1,,,62,0
30576,note_on,,2,0,2,,,,,,,,,1,,,59,95
30576,note_on,,4,0,1,,,,,,,,,0,,,67,95
30586,note_on,,10,0,2,,,,,,,,,1,,,59,0
30588,note_on,,2,0,2,,,,,,,,,1,,,62,95
30596,note_on,,20,0,1,,,,,,,,,0,,,67,0
30598,note_on,,10,0,2,,,,,,,,,1,,,62,0
30600,note_on,,2,0,2,,,,,,,,,1,,,57,95
30600,note_on,,4,0,1,,,,,,,,,0,,,66,95
30608,note_on,,8,0,1,,,,,,,,,0,,,71,0
30610,note_on,,10,0,2,,,,,,,,,1,,,57,0
30612,note_on,,2,0,2,,,,,,,,,1,,,55,95
30620,note_on,,12,0,1,,,,,,,,,0,,,66,0
30622,note_on,,10,0,2,,,,,,,,,1,,,55,0
30624,note_on,,4,0,1,,,,,,,,,0,,,64,95
30624,note_on,,2,0,2,,,,,,,,,1,,,61,95
30634,note_on,,10,0,1,,,,,,,,,0,,,64,0
30636,note_on,,2,0,1,,,,,,,,,0,,,71,95
30644,note_on,,20,0,2,,,,,,,,,1,,,61,0
30646,note_on,,10,0,1,,,,,,,,,0,,,71,0
30648,note_on,,4,0,2,,,,,,,,,1,,,50,95
30648,note_on,,2,0,1,,,,,,,,,0,,,66,95
30658,note_on,,10,0,1,,,,,,,,,0,,,66,0
30660,note_on,,2,0,1,,,,,,,,,0,,,71,95
30668,note_on,,20,0,2,,,,,,,,,1,,,50,0
30670,note_on,,10,0,1,,,,,,,,,0,,,71,0
30672,note_on,,4,0,2,,,,,,,,,1,,,52,95
30672,note_on,,2,0,1,,,,,,,,,0,,,67,95
30682,note_on,,10,0,1,,,,,,,,,0,,,67,0
30684,note_on,,2,0,1,,,,,,,,,0,,,71,95
30692,note_on,,20,0,2,,,,,,,,,1,,,52,0
30694,note_on,,10,0,1,,,,,,,,,0,,,71,0
30696,note_on,,2,0,1,,,,,,,,,0,,,66,95
30696,note_on,,4,0,2,,,,,,,,,1,,,50,95
30706,note_on,,10,0,2,,,,,,,,,1,,,50,0
30706,note_on,,10,0,1,,,,,,,,,0,,,66,0
30708,note_on,,2,0,1,,,,,,,,,0,,,64,95
30708,note_on,,2,0,2,,,,,,,,,1,,,49,95
30718,note_on,,10,0,1,,,,,,,,,0,,,64,0
30718,note_on,,10,0,2,,,,,,,,,1,,,49,0
30720,note_on,,2,0,1,,,,,,,,,0,,,69,95
30720,note_on,,2,0,2,,,,,,,,,1,,,54,95
30730,note_on,,10,0,2,,,,,,,,,1,,,54,0
30732,note_on,,2,0,2,,,,,,,,,1,,,61,95
30742,note_on,,10,0,2,,,,,,,,,1,,,61,0
30744,note_on,,2,0,2,,,,,,,,,1,,,55,95
30744,note_on,,24,0,1,,,,,,,,,0,,,67,95
30754,note_on,,10,0,2,,,,,,,,,1,,,55,0
30756,note_on,,2,0,2,,,,,,,,,1,,,61,95
30764,note_on,,20,0,1,,,,,,,,,0,,,67,0
30766,note_on,,10,0,2,,,,,,,,,1,,,61,0
30768,note_on,,2,0,2,,,,,,,,,1,,,57,95
30768,note_on,,4,0,1,,,,,,,,,0,,,66,95
30778,note_on,,10,0,2,,,,,,,,,1,,,57,0
30780,note_on,,2,0,2,,,,,,,,,1,,,61,95
30788,note_on,,20,0,1,,,,,,,,,0,,,66,0
30790,note_on,,10,0,2,,,,,,,,,1,,,61,0
30792,note_on,,2,0,2,,,,,,,,,1,,,55,95
30792,note_on,,4,0,1,,,,,,,,,0,,,64,95
30800,note_on,,8,0,1,,,,,,,,,0,,,69,0
30802,note_on,,10,0,2,,,,,,,,,1,,,55,0
30804,note_on,,2,0,2,,,,,,,,,1,,,54,95
30812,note_on,,12,0,1,,,,,,,,,0,,,64,0
30814,note_on,,10,0,2,,,,,,,,,1,,,54,0
30816,note_on,,2,0,2,,,,,,,,,1,,,59,95
30816,note_on,,4,0,1,,,,,,,,,0,,,62,95
30826,note_on,,10,0,1,,,,,,,,,0,,,62,0
30828,note_on,,2,0,1,,,,,,,,,0,,,69,95
30836,note_on,,20,0,2,,,,,,,,,1,,,59,0
30838,note_on,,10,0,1,,,,,,,,,0,,,69,0
30840,note_on,,4,0,2,,,,,,,,,1,,,49,95
30840,note_on,,2,0,1,,,,,,,,,0,,,64,95
30850,note_on,,10,0,1,,,,,,,,,0,,,64,0
30852,note_on,,2,0,1,,,,,,,,,0,,,69,95
30860,note_on,,20,0,2,,,,,,,,,1,,,49,0
30862,note_on,,10,0,1,,,,,,,,,0,,,69,0
30864,note_on,,2,0,1,,,,,,,,,0,,,66,95
30864,note_on,,4,0,2,,,,,,,,,1,,,50,95
30874,note_on,,10,0,1,,,,,,,,,0,,,66,0
30876,note_on,,2,0,1,,,,,,,,,0,,,69,95
30884,note_on,,20,0,2,,,,,,,,,1,,,50,0
30886,note_on,,10,0,1,,,,,,,,,0,,,69,0
30888,note_on,,4,0,2,,,,,,,,,1,,,49,95
30888,note_on,,2,0,1,,,,,,,,,0,,,64,95
30898,note_on,,10,0,1,,,,,,,,,0,,,64,0
30898,note_on,,10,0,2,,,,,,,,,1,,,49,0
30900,note_on,,2,0,1,,,,,,,,,0,,,62,95
30900,note_on,,2,0,2,,,,,,,,,1,,,47,95
30910,note_on,,10,0,2,,,,,,,,,1,,,47,0
30910,note_on,,10,0,1,,,,,,,,,0,,,62,0
30912,note_on,,2,0,2,,,,,,,,,1,,,52,95
30912,note_on,,2,0,1,,,,,,,,,0,,,67,95
30922,note_on,,10,0,2,,,,,,,,,1,,,52,0
30924,note_on,,2,0,2,,,,,,,,,1,,,59,95
30934,note_on,,10,0,2,,,,,,,,,1,,,59,0
30936,note_on,,24,0,1,,,,,,,,,0,,,66,95
30936,note_on,,2,0,2,,,,,,,,,1,,,54,95
30946,note_on,,10,0,2,,,,,,,,,1,,,54,0
30948,note_on,,2,0,2,,,,,,,,,1,,,59,95
30956,note_on,,20,0,1,,,,,,,,,0,,,66,0
30958,note_on,,10,0,2,,,,,,,,,1,,,59,0
30960,note_on,,2,0,2,,,,,,,,,1,,,55,95
30960,note_on,,4,0,1,,,,,,,,,0,,,64,95
30970,note_on,,10,0,2,,,,,,,,,1,,,55,0
30972,note_on,,2,0,2,,,,,,,,,1,,,59,95
30980,note_on,,20,0,1,,,,,,,,,0,,,64,0
30982,note_on,,10,0,2,,,,,,,,,1,,,59,0
30984,note_on,,4,0,1,,,,,,,,,0,,,62,95
30984,note_on,,2,0,2,,,,,,,,,1,,,54,95
30992,note_on,,8,0,1,,,,,,,,,0,,,67,0
30994,note_on,,10,0,2,,,,,,,,,1,,,54,0
30996,note_on,,2,0,2,,,,,,,,,1,,,52,95
31004,note_on,,12,0,1,,,,,,,,,0,,,62,0
31006,note_on,,10,0,2,,,,,,,,,1,,,52,0
31008,note_on,,4,0,1,,,,,,,,,0,,,61,95
31008,note_on,,2,0,2,,,,,,,,,1,,,57,95
31018,note_on,,10,0,1,,,,,,,,,0,,,61,0
31020,note_on,,2,0,1,,,,,,,,,0,,,67,95
31028,note_on,,20,0,2,,,,,,,,,1,,,57,0
31030,note_on,,10,0,1,,,,,,,,,0,,,67,0
31032,note_on,,2,0,1,,,,,,,,,0,,,62,95
31032,note_on,,4,0,2,,,,,,,,,1,,,47,95
31042,note_on,,10,0,1,,,,,,,,,0,,,62,0
31044,note_on,,2,0,1,,,,,,,,,0,,,67,95
31052,note_on,,20,0,2,,,,,,,,,1,,,47,0
31054,note_on,,10,0,1,,,,,,,,,0,,,67,0
31056,note_on,,4,0,2,,,,,,,,,1,,,49,95
31056,note_on,,2,0,1,,,,,,,,,0,,,64,95
31066,note_on,,10,0,1,,,,,,,,,0,,,64,0
31068,note_on,,2,0,1,,,,,,,,,0,,,67,95
31076,note_on,,20,0,2,,,,,,,,,1,,,49,0
31078,note_on,,10,0,1,,,,,,,,,0,,,67,0
31080,note_on,,2,0,1,,,,,,,,,0,,,62,95
31080,note_on,,4,0,2,,,,,,,,,1,,,47,95
31090,note_on,,10,0,1,,,,,,,,,0,,,62,0
31090,note_on,,10,0,2,,,,,,,,,1,,,47,0
31092,note_on,,2,0,1,,,,,,,,,0,,,61,95
31092,note_on,,2,0,2,,,,,,,,,1,,,45,95
31102,note_on,,10,0,2,,,,,,,,,1,,,45,0
31102,note_on,,10,0,1,,,,,,,,,0,,,61,0
31104,note_on,,2,0,2,,,,,,,,,1,,,50,95
31104,note_on,,2,0,1,,,,,,,,,0,,,62,95
31114,note_on,,10,0,1,,,,,,,,,0,,,62,0
31116,note_on,,2,0,1,,,,,,,,,0,,,66,95
31124,note_on,,20,0,2,,,,,,,,,1,,,50,0
31126,note_on,,10,0,1,,,,,,,,,0,,,66,0
31128,note_on,,2,0,1,,,,,,,,,0,,,69,95
31128,note_on,,4,0,2,,,,,,,,,1,,,52,95
31138,note_on,,10,0,1,,,,,,,,,0,,,69,0
31140,note_on,,2,0,1,,,,,,,,,0,,,61,95
31148,note_on,,20,0,2,,,,,,,,,1,,,52,0
31150,note_on,,10,0,1,,,,,,,,,0,,,61,0
31152,note_on,,4,0,2,,,,,,,,,1,,,54,95
31152,note_on,,2,0,1,,,,,,,,,0,,,62,95
31162,note_on,,10,0,1,,,,,,,,,0,,,62,0
31164,note_on,,2,0,1,,,,,,,,,0,,,66,95
31172,note_on,,20,0,2,,,,,,,,,1,,,54,0
31174,note_on,,10,0,1,,,,,,,,,0,,,66,0
31176,note_on,,2,0,1,,,,,,,,,0,,,69,95
31176,note_on,,4,0,2,,,,,,,,,1,,,55,95
31186,note_on,,10,0,1,,,,,,,,,0,,,69,0
31188,note_on,,2,0,1,,,,,,,,,0,,,57,95
31196,note_on,,20,0,2,,,,,,,,,1,,,55,0
31198,note_on,,10,0,1,,,,,,,,,0,,,57,0
31200,note_on,,2,0,1,,,,,,,,,0,,,62,95
31200,note_on,,4,0,2,,,,,,,,,1,,,54,95
31210,note_on,,10,0,1,,,,,,,,,0,,,62,0
31212,note_on,,2,0,1,,,,,,,,,0,,,66,95
31220,note_on,,20,0,2,,,,,,,,,1,,,54,0
31222,note_on,,10,0,1,,,,,,,,,0,,,66,0
31224,note_on,,2,0,1,,,,,,,,,0,,,69,95
31224,note_on,,4,0,2,,,,,,,,,1,,,52,95
31234,note_on,,10,0,1,,,,,,,,,0,,,69,0
31236,note_on,,2,0,1,,,,,,,,,0,,,61,95
31244,note_on,,20,0,2,,,,,,,,,1,,,52,0
31246,note_on,,10,0,1,,,,,,,,,0,,,61,0
31248,note_on,,4,0,2,,,,,,,,,1,,,50,95
31248,note_on,,2,0,1,,,,,,,,,0,,,62,95
31258,note_on,,10,0,1,,,,,,,,,0,,,62,0
31260,note_on,,2,0,1,,,,,,,,,0,,,66,95
31268,note_on,,20,0,2,,,,,,,,,1,,,50,0
31270,note_on,,10,0,1,,,,,,,,,0,,,66,0
31272,note_on,,2,0,1,,,,,,,,,0,,,69,95
31272,note_on,,4,0,2,,,,,,,,,1,,,49,95
31282,note_on,,10,0,1,,,,,,,,,0,,,69,0
31284,note_on,,2,0,1,,,,,,,,,0,,,57,95
31292,note_on,,20,0,2,,,,,,,,,1,,,49,0
31294,note_on,,10,0,1,,,,,,,,,0,,,57,0
31296,note_on,,2,0,1,,,,,,,,,0,,,62,95
31296,note_on,,4,0,2,,,,,,,,,1,,,47,95
31306,note_on,,10,0,1,,,,,,,,,0,,,62,0
31308,note_on,,2,0,1,,,,,,,,,0,,,66,95
31316,note_on,,20,0,2,,,,,,,,,1,,,47,0
31318,note_on,,10,0,1,,,,,,,,,0,,,66,0
31320,note_on,,4,0,2,,,,,,,,,1,,,59,95
31320,note_on,,2,0,1,,,,,,,,,0,,,69,95
31330,note_on,,10,0,1,,,,,,,,,0,,,69,0
31330,note_on,,10,0,2,,,,,,,,,1,,,59,0
31332,note_on,,2,0,1,,,,,,,,,0,,,61,95
31332,note_on,,2,0,2,,,,,,,,,1,,,57,95
31342,note_on,,10,0,1,,,,,,,,,0,,,61,0
31342,note_on,,10,0,2,,,,,,,,,1,,,57,0
31344,note_on,,2,0,1,,,,,,,,,0,,,62,95
31344,note_on,,2,0,2,,,,,,,,,1,,,59,95
31354,note_on,,10,0,1,,,,,,,,,0,,,62,0
31356,note_on,,2,0,1,,,,,,,,,0,,,66,95
31364,note_on,,20,0,2,,,,,,,,,1,,,59,0
31366,note_on,,10,0,1,,,,,,,,,0,,,66,0
31368,note_on,,2,0,1,,,,,,,,,0,,,69,95
31368,note_on,,4,0,2,,,,,,,,,1,,,54,95
31378,note_on,,10,0,1,,,,,,,,,0,,,69,0
31380,note_on,,2,0,1,,,,,,,,,0,,,59,95
31388,note_on,,20,0,2,,,,,,,,,1,,,54,0
31390,note_on,,10,0,1,,,,,,,,,0,,,59,0
31392,note_on,,4,0,2,,,,,,,,,1,,,50,95
31392,note_on,,2,0,1,,,,,,,,,0,,,62,95
31402,note_on,,10,0,1,,,,,,,,,0,,,62,0
31404,note_on,,2,0,1,,,,,,,,,0,,,66,95
31412,note_on,,20,0,2,,,,,,,,,1,,,50,0
31414,note_on,,10,0,1,,,,,,,,,0,,,66,0
31416,note_on,,4,0,2,,,,,,,,,1,,,54,95
31416,note_on,,2,0,1,,,,,,,,,0,,,69,95
31426,note_on,,10,0,1,,,,,,,,,0,,,69,0
31426,note_on,,10,0,2,,,,,,,,,1,,,54,0
31428,note_on,,2,0,1,,,,,,,,,0,,,61,95
31428,note_on,,2,0,2,,,,,,,,,1,,,52,95
31438,note_on,,10,0,1,,,,,,,,,0,,,61,0
31438,note_on,,10,0,2,,,,,,,,,1,,,52,0
31440,note_on,,2,0,1,,,,,,,,,0,,,62,95
31440,note_on,,2,0,2,,,,,,,,,1,,,54,95
31450,note_on,,10,0,1,,,,,,,,,0,,,62,0
31452,note_on,,2,0,1,,,,,,,,,0,,,66,95
31460,note_on,,20,0,2,,,,,,,,,1,,,54,0
31462,note_on,,10,0,1,,,,,,,,,0,,,66,0
31464,note_on,,2,0,1,,,,,,,,,0,,,69,95
31464,note_on,,4,0,2,,,,,,,,,1,,,47,95
31474,note_on,,10,0,1,,,,,,,,,0,,,69,0
31476,note_on,,2,0,1,,,,,,,,,0,,,59,95
31484,note_on,,20,0,2,,,,,,,,,1,,,47,0
31486,note_on,,10,0,1,,,,,,,,,0,,,59,0
31488,note_on,,4,0,2,,,,,,,,,1,,,52,95
31488,note_on,,2,0,1,,,,,,,,,0,,,62,95
31498,note_on,,10,0,1,,,,,,,,,0,,,62,0
31500,note_on,,2,0,1,,,,,,,,,0,,,64,95
31508,note_on,,20,0,2,,,,,,,,,1,,,52,0
31510,note_on,,10,0,1,,,,,,,,,0,,,64,0
31512,note_on,,2,0,1,,,,,,,,,0,,,68,95
31512,note_on,,4,0,2,,,,,,,,,1,,,59,95
31522,note_on,,10,0,2,,,,,,,,,1,,,59,0
31522,note_on,,10,0,1,,,,,,,,,0,,,68,0
31524,note_on,,2,0,2,,,,,,,,,1,,,57,95
31524,note_on,,2,0,1,,,,,,,,,0,,,61,95
31534,note_on,,10,0,1,,,,,,,,,0,,,61,0
31534,note_on,,10,0,2,,,,,,,,,1,,,57,0
31536,note_on,,2,0,1,,,,,,,,,0,,,62,95
31536,note_on,,2,0,2,,,,,,,,,1,,,56,95
31546,note_on,,10,0,1,,,,,,,,,0,,,62,0
31548,note_on,,2,0,1,,,,,,,,,0,,,64,95
31556,note_on,,20,0,2,,,,,,,,,1,,,56,0
31558,note_on,,10,0,1,,,,,,,,,0,,,64,0
31560,note_on,,2,0,1,,,,,,,,,0,,,68,95
31560,note_on,,4,0,2,,,,,,,,,1,,,54,95
31570,note_on,,10,0,1,,,,,,,,,0,,,68,0
31572,note_on,,2,0,1,,,,,,,,,0,,,59,95
31580,note_on,,20,0,2,,,,,,,,,1,,,54,0
31582,note_on,,10,0,1,,,,,,,,,0,,,59,0
31584,note_on,,4,0,2,,,,,,,,,1,,,52,95
31584,note_on,,2,0,1,,,,,,,,,0,,,62,95
31594,note_on,,10,0,1,,,,,,,,,0,,,62,0
31596,note_on,,2,0,1,,,,,,,,,0,,,64,95
31604,note_on,,20,0,2,,,,,,,,,1,,,52,0
31606,note_on,,10,0,1,,,,,,,,,0,,,64,0
31608,note_on,,4,0,2,,,,,,,,,1,,,50,95
31608,note_on,,2,0,1,,,,,,,,,0,,,68,95
31618,note_on,,10,0,1,,,,,,,,,0,,,68,0
31620,note_on,,2,0,1,,,,,,,,,0,,,61,95
31628,note_on,,20,0,2,,,,,,,,,1,,,50,0
31630,note_on,,10,0,1,,,,,,,,,0,,,61,0
31632,note_on,,4,0,2,,,,,,,,,1,,,49,95
31632,note_on,,2,0,1,,,,,,,,,0,,,62,95
31642,note_on,,10,0,1,,,,,,,,,0,,,62,0
31644,note_on,,2,0,1,,,,,,,,,0,,,64,95
31652,note_on,,20,0,2,,,,,,,,,1,,,49,0
31654,note_on,,10,0,1,,,,,,,,,0,,,64,0
31656,note_on,,2,0,1,,,,,,,,,0,,,68,95
31656,note_on,,4,0,2,,,,,,,,,1,,,47,95
31666,note_on,,10,0,1,,,,,,,,,0,,,68,0
31668,note_on,,2,0,1,,,,,,,,,0,,,59,95
31676,note_on,,20,0,2,,,,,,,,,1,,,47,0
31678,note_on,,10,0,1,,,,,,,,,0,,,59,0
31680,note_on,,2,0,1,,,,,,,,,0,,,61,95
31680,set_tempo,,1896,1,0,,,,,,,983607,,,,,,
31680,note_on,,4,0,2,,,,,,,,,1,,,45,95
31690,note_on,,10,0,1,,,,,,,,,0,,,61,0
31692,note_on,,2,0,1,,,,,,,,,0,,,76,95
31692,set_tempo,,12,1,0,,,,,,,697674,,,,,,
31697,note_on,,5,0,1,,,,,,,,,0,,,76,0
31698,note_on,,1,0,1,,,,,,,,,0,,,74,95
31700,note_on,,20,0,2,,,,,,,,,1,,,45,0
31703,note_on,,5,0,1,,,,,,,,,0,,,74,0
31704,note_on,,4,0,2,,,,,,,,,1,,,57,95
31704,note_on,,1,0,1,,,,,,,,,0,,,73,95
31704,set_tempo,,12,1,0,,,,,,,697674,,,,,,
31714,note_on,,10,0,1,,,,,,,,,0,,,73,0
31716,note_on,,2,0,1,,,,,,,,,0,,,76,95
31724,note_on,,20,0,2,,,,,,,,,1,,,57,0
31726,note_on,,10,0,1,,,,,,,,,0,,,76,0
31728,note_on,,2,0,1,,,,,,,,,0,,,71,95
31728,note_on,,4,0,2,,,,,,,,,1,,,56,95
31738,note_on,,10,0,1,,,,,,,,,0,,,71,0
31740,note_on,,2,0,1,,,,,,,,,0,,,76,95
31748,note_on,,20,0,2,,,,,,,,,1,,,56,0
31750,note_on,,10,0,1,,,,,,,,,0,,,76,0
31752,note_on,,4,0,2,,,,,,,,,1,,,54,95
31752,note_on,,2,0,1,,,,,,,,,0,,,69,95
31762,note_on,,10,0,1,,,,,,,,,0,,,69,0
31764,note_on,,2,0,1,,,,,,,,,0,,,76,95
31772,note_on,,20,0,2,,,,,,,,,1,,,54,0
31774,note_on,,10,0,1,,,,,,,,,0,,,76,0
31776,note_on,,2,0,1,,,,,,,,,0,,,68,95
31776,note_on,,4,0,2,,,,,,,,,1,,,52,95
31786,note_on,,10,0,1,,,,,,,,,0,,,68,0
31788,note_on,,2,0,1,,,,,,,,,0,,,76,95
31798,note_on,,10,0,1,,,,,,,,,0,,,76,0
31800,note_on,,24,0,2,,,,,,,,,1,,,61,95
31800,note_on,,2,0,1,,,,,,,,,0,,,69,95
31810,note_on,,10,0,1,,,,,,,,,0,,,69,0
31812,note_on,,2,0,1,,,,,,,,,0,,,76,95
31820,note_on,,20,0,2,,,,,,,,,1,,,61,0
31822,note_on,,10,0,1,,,,,,,,,0,,,76,0
31824,note_on,,2,0,1,,,,,,,,,0,,,68,95
31824,note_on,,4,0,2,,,,,,,,,1,,,59,95
31834,note_on,,10,0,1,,,,,,,,,0,,,68,0
31836,note_on,,2,0,1,,,,,,,,,0,,,76,95
31844,note_on,,20,0,2,,,,,,,,,1,,,59,0
31846,note_on,,10,0,1,,,,,,,,,0,,,76,0
31848,note_on,,4,0,2,,,,,,,,,1,,,57,95
31848,note_on,,2,0,1,,,,,,,,,0,,,66,95
31856,note_on,,8,0,2,,,,,,,,,1,,,52,0
31858,note_on,,10,0,1,,,,,,,,,0,,,66,0
31860,note_on,,2,0,1,,,,,,,,,0,,,76,95
31868,note_on,,12,0,2,,,,,,,,,1,,,57,0
31870,note_on,,10,0,1,,,,,,,,,0,,,76,0
31872,note_on,,4,0,2,,,,,,,,,1,,,56,95
31872,note_on,,2,0,1,,,,,,,,,0,,,64,95
31882,note_on,,10,0,2,,,,,,,,,1,,,56,0
31884,note_on,,2,0,2,,,,,,,,,1,,,52,95
31892,note_on,,20,0,1,,,,,,,,,0,,,64,0
31894,note_on,,10,0,2,,,,,,,,,1,,,52,0
31896,note_on,,4,0,1,,,,,,,,,0,,,78,95
31896,note_on,,2,0,2,,,,,,,,,1,,,50,95
31906,note_on,,10,0,2,,,,,,,,,1,,,50,0
31908,note_on,,2,0,2,,,,,,,,,1,,,56,95
31916,note_on,,20,0,1,,,,,,,,,0,,,78,0
31918,note_on,,10,0,2,,,,,,,,,1,,,56,0
31920,note_on,,4,0,1,,,,,,,,,0,,,76,95
31920,note_on,,2,0,2,,,,,,,,,1,,,49,95
31930,note_on,,10,0,2,,,,,,,,,1,,,49,0
31932,note_on,,2,0,2,,,,,,,,,1,,,56,95
31940,note_on,,20,0,1,,,,,,,,,0,,,76,0
31942,note_on,,10,0,2,,,,,,,,,1,,,56,0
31944,note_on,,4,0,1,,,,,,,,,0,,,74,95
31944,note_on,,2,0,2,,,,,,,,,1,,,47,95
31954,note_on,,10,0,2,,,,,,,,,1,,,47,0
31956,note_on,,2,0,2,,,,,,,,,1,,,56,95
31964,note_on,,20,0,1,,,,,,,,,0,,,74,0
31966,note_on,,10,0,2,,,,,,,,,1,,,56,0
31968,note_on,,4,0,1,,,,,,,,,0,,,73,95
31968,note_on,,2,0,2,,,,,,,,,1,,,45,95
31978,note_on,,10,0,1,,,,,,,,,0,,,73,0
31978,note_on,,10,0,2,,,,,,,,,1,,,45,0
31980,note_on,,2,0,2,,,,,,,,,1,,,57,95
31980,note_on,,2,0,1,,,,,,,,,0,,,74,95
31990,note_on,,10,0,1,,,,,,,,,0,,,74,0
31990,note_on,,10,0,2,,,,,,,,,1,,,57,0
31992,note_on,,2,0,2,,,,,,,,,1,,,47,95
31992,note_on,,2,0,1,,,,,,,,,0,,,74,95
31997,note_on,,5,0,1,,,,,,,,,0,,,74,0
31998,note_on,,1,0,1,,,,,,,,,0,,,76,95
32002,note_on,,10,0,2,,,,,,,,,1,,,47,0
32003,note_on,,5,0,1,,,,,,,,,0,,,76,0
32004,note_on,,1,0,1,,,,,,,,,0,,,73,95
32004,note_on,,2,0,2,,,,,,,,,1,,,57,95
32009,note_on,,5,0,1,,,,,,,,,0,,,73,0
32010,note_on,,1,0,1,,,,,,,,,0,,,74,95
32014,note_on,,10,0,2,,,,,,,,,1,,,57,0
32015,note_on,,5,0,1,,,,,,,,,0,,,74,0
32016,note_on,,2,0,2,,,,,,,,,1,,,49,95
32016,note_on,,1,0,1,,,,,,,,,0,,,76,95
32026,note_on,,10,0,2,,,,,,,,,1,,,49,0
32028,note_on,,2,0,2,,,,,,,,,1,,,57,95
32036,note_on,,20,0,1,,,,,,,,,0,,,76,0
32038,note_on,,10,0,2,,,,,,,,,1,,,57,0
32040,note_on,,4,0,1,,,,,,,,,0,,,74,95
32040,note_on,,2,0,2,,,,,,,,,1,,,45,95
32050,note_on,,10,0,2,,,,,,,,,1,,,45,0
32050,note_on,,10,0,1,,,,,,,,,0,,,74,0
32052,note_on,,2,0,1,,,,,,,,,0,,,73,95
32052,note_on,,2,0,2,,,,,,,,,1,,,57,95
32062,note_on,,10,0,2,,,,,,,,,1,,,57,0
32062,note_on,,10,0,1,,,,,,,,,0,,,73,0
32064,note_on,,2,0,1,,,,,,,,,0,,,78,95
32064,note_on,,2,0,2,,,,,,,,,1,,,50,95
32074,note_on,,10,0,1,,,,,,,,,0,,,78,0
32074,note_on,,10,0,2,,,,,,,,,1,,,50,0
32076,note_on,,2,0,2,,,,,,,,,1,,,57,95
32076,note_on,,2,0,1,,,,,,,,,0,,,79,95
32086,note_on,,10,0,1,,,,,,,,,0,,,79,0
32086,note_on,,10,0,2,,,,,,,,,1,,,57,0
32088,note_on,,2,0,2,,,,,,,,,1,,,52,95
32088,note_on,,2,0,1,,,,,,,,,0,,,78,95
32098,note_on,,10,0,1,,,,,,,,,0,,,78,0
32098,note_on,,10,0,2,,,,,,,,,1,,,52,0
32100,note_on,,2,0,2,,,,,,,,,1,,,57,95
32100,note_on,,2,0,1,,,,,,,,,0,,,76,95
32110,note_on,,10,0,2,,,,,,,,,1,,,57,0
32110,note_on,,10,0,1,,,,,,,,,0,,,76,0
32112,note_on,,2,0,1,,,,,,,,,0,,,74,95
32112,note_on,,2,0,2,,,,,,,,,1,,,54,95
32122,note_on,,10,0,2,,,,,,,,,1,,,54,0
32122,note_on,,10,0,1,,,,,,,,,0,,,74,0
32124,note_on,,2,0,2,,,,,,,,,1,,,57,95
32124,note_on,,2,0,1,,,,,,,,,0,,,73,95
32134,note_on,,10,0,2,,,,,,,,,1,,,57,0
32134,note_on,,10,0,1,,,,,,,,,0,,,73,0
32136,note_on,,2,0,2,,,,,,,,,1,,,50,95
32136,note_on,,2,0,1,,,,,,,,,0,,,71,95
32146,note_on,,10,0,2,,,,,,,,,1,,,50,0
32146,note_on,,10,0,1,,,,,,,,,0,,,71,0
32148,note_on,,2,0,2,,,,,,,,,1,,,57,95
32148,note_on,,2,0,1,,,,,,,,,0,,,69,95
32158,note_on,,10,0,1,,,,,,,,,0,,,69,0
32158,note_on,,10,0,2,,,,,,,,,1,,,57,0
32160,note_on,,2,0,1,,,,,,,,,0,,,71,95
32160,note_on,,2,0,2,,,,,,,,,1,,,44,95
32170,note_on,,10,0,1,,,,,,,,,0,,,71,0
32170,note_on,,10,0,2,,,,,,,,,1,,,44,0
32172,note_on,,2,0,2,,,,,,,,,1,,,56,95
32172,note_on,,2,0,1,,,,,,,,,0,,,74,95
32182,note_on,,10,0,1,,,,,,,,,0,,,74,0
32182,note_on,,10,0,2,,,,,,,,,1,,,56,0
32184,note_on,,2,0,2,,,,,,,,,1,,,45,95
32184,note_on,,2,0,1,,,,,,,,,0,,,73,95
32194,note_on,,10,0,2,,,,,,,,,1,,,45,0
32194,note_on,,10,0,1,,,,,,,,,0,,,73,0
32196,note_on,,2,0,1,,,,,,,,,0,,,76,95
32196,note_on,,2,0,2,,,,,,,,,1,,,56,95
32206,note_on,,10,0,1,,,,,,,,,0,,,76,0
32206,note_on,,10,0,2,,,,,,,,,1,,,56,0
32208,note_on,,2,0,1,,,,,,,,,0,,,74,95
32208,note_on,,2,0,2,,,,,,,,,1,,,47,95
32218,note_on,,10,0,2,,,,,,,,,1,,,47,0
32218,note_on,,10,0,1,,,,,,,,,0,,,74,0
32220,note_on,,2,0,1,,,,,,,,,0,,,73,95
32220,note_on,,2,0,2,,,,,,,,,1,,,56,95
32230,note_on,,10,0,2,,,,,,,,,1,,,56,0
32230,note_on,,10,0,1,,,,,,,,,0,,,73,0
32232,note_on,,2,0,1,,,,,,,,,0,,,74,95
32232,note_on,,2,0,2,,,,,,,,,1,,,44,95
32242,note_on,,10,0,2,,,,,,,,,1,,,44,0
32242,note_on,,10,0,1,,,,,,,,,0,,,74,0
32244,note_on,,2,0,1,,,,,,,,,0,,,71,95
32244,note_on,,2,0,2,,,,,,,,,1,,,56,95
32254,note_on,,10,0,1,,,,,,,,,0,,,71,0
32254,note_on,,10,0,2,,,,,,,,,1,,,56,0
32256,note_on,,2,0,1,,,,,,,,,0,,,76,95
32256,note_on,,2,0,2,,,,,,,,,1,,,49,95
32266,note_on,,10,0,2,,,,,,,,,1,,,49,0
32268,note_on,,2,0,2,,,,,,,,,1,,,56,95
32278,note_on,,10,0,2,,,,,,,,,1,,,56,0
32280,note_on,,2,0,2,,,,,,,,,1,,,50,95
32286,note_on,,30,0,1,,,,,,,,,0,,,76,0
32290,note_on,,10,0,2,,,,,,,,,1,,,50,0
32292,note_on,,6,0,1,,,,,,,,,0,,,74,95
32292,note_on,,2,0,2,,,,,,,,,1,,,56,95
32302,note_on,,10,0,1,,,,,,,,,0,,,74,0
32302,note_on,,10,0,2,,,,,,,,,1,,,56,0
32304,note_on,,2,0,2,,,,,,,,,1,,,52,95
32304,note_on,,2,0,1,,,,,,,,,0,,,73,95
32314,note_on,,10,0,1,,,,,,,,,0,,,73,0
32314,note_on,,10,0,2,,,,,,,,,1,,,52,0
32316,note_on,,2,0,2,,,,,,,,,1,,,56,95
32316,note_on,,2,0,1,,,,,,,,,0,,,71,95
32326,note_on,,10,0,1,,,,,,,,,0,,,71,0
32326,note_on,,10,0,2,,,,,,,,,1,,,56,0
32328,note_on,,2,0,2,,,,,,,,,1,,,49,95
32328,note_on,,2,0,1,,,,,,,,,0,,,69,95
32338,note_on,,10,0,1,,,,,,,,,0,,,69,0
32338,note_on,,10,0,2,,,,,,,,,1,,,49,0
32340,note_on,,2,0,2,,,,,,,,,1,,,56,95
32340,note_on,,2,0,1,,,,,,,,,0,,,68,95
32350,note_on,,10,0,2,,,,,,,,,1,,,56,0
32350,note_on,,10,0,1,,,,,,,,,0,,,68,0
32352,note_on,,2,0,2,,,,,,,,,1,,,42,95
32352,note_on,,2,0,1,,,,,,,,,0,,,69,95
32362,note_on,,10,0,2,,,,,,,,,1,,,42,0
32362,note_on,,10,0,1,,,,,,,,,0,,,69,0
32364,note_on,,2,0,2,,,,,,,,,1,,,54,95
32364,note_on,,2,0,1,,,,,,,,,0,,,68,95
32374,note_on,,10,0,1,,,,,,,,,0,,,68,0
32374,note_on,,10,0,2,,,,,,,,,1,,,54,0
32376,note_on,,2,0,1,,,,,,,,,0,,,66,95
32376,note_on,,2,0,2,,,,,,,,,1,,,44,95
32386,note_on,,10,0,1,,,,,,,,,0,,,66,0
32386,note_on,,10,0,2,,,,,,,,,1,,,44,0
32388,note_on,,2,0,2,,,,,,,,,1,,,54,95
32388,note_on,,2,0,1,,,,,,,,,0,,,69,95
32398,note_on,,10,0,1,,,,,,,,,0,,,69,0
32398,note_on,,10,0,2,,,,,,,,,1,,,54,0
32400,note_on,,2,0,2,,,,,,,,,1,,,45,95
32400,note_on,,2,0,1,,,,,,,,,0,,,73,95
32410,note_on,,10,0,2,,,,,,,,,1,,,45,0
32410,note_on,,10,0,1,,,,,,,,,0,,,73,0
32412,note_on,,2,0,1,,,,,,,,,0,,,76,95
32412,note_on,,2,0,2,,,,,,,,,1,,,54,95
32422,note_on,,10,0,1,,,,,,,,,0,,,76,0
32422,note_on,,10,0,2,,,,,,,,,1,,,54,0
32424,note_on,,2,0,1,,,,,,,,,0,,,74,95
32424,note_on,,2,0,2,,,,,,,,,1,,,42,95
32434,note_on,,10,0,1,,,,,,,,,0,,,74,0
32434,note_on,,10,0,2,,,,,,,,,1,,,42,0
32436,note_on,,2,0,1,,,,,,,,,0,,,73,95
32436,note_on,,2,0,2,,,,,,,,,1,,,54,95
32446,note_on,,10,0,2,,,,,,,,,1,,,54,0
32446,note_on,,10,0,1,,,,,,,,,0,,,73,0
32448,note_on,,2,0,2,,,,,,,,,1,,,47,95
32448,note_on,,2,0,1,,,,,,,,,0,,,74,95
32458,note_on,,10,0,2,,,,,,,,,1,,,47,0
32458,note_on,,10,0,1,,,,,,,,,0,,,74,0
32460,note_on,,2,0,2,,,,,,,,,1,,,54,95
32460,note_on,,2,0,1,,,,,,,,,0,,,73,95
32470,note_on,,10,0,2,,,,,,,,,1,,,54,0
32470,note_on,,10,0,1,,,,,,,,,0,,,73,0
32472,note_on,,2,0,2,,,,,,,,,1,,,49,95
32472,note_on,,2,0,1,,,,,,,,,0,,,71,95
32482,note_on,,10,0,2,,,,,,,,,1,,,49,0
32482,note_on,,10,0,1,,,,,,,,,0,,,71,0
32484,note_on,,2,0,1,,,,,,,,,0,,,74,95
32484,note_on,,2,0,2,,,,,,,,,1,,,54,95
32494,note_on,,10,0,2,,,,,,,,,1,,,54,0
32494,note_on,,10,0,1,,,,,,,,,0,,,74,0
32496,note_on,,2,0,2,,,,,,,,,1,,,50,95
32496,note_on,,2,0,1,,,,,,,,,0,,,78,95
32506,note_on,,10,0,1,,,,,,,,,0,,,78,0
32506,note_on,,10,0,2,,,,,,,,,1,,,50,0
32508,note_on,,2,0,1,,,,,,,,,0,,,81,95
32508,note_on,,2,0,2,,,,,,,,,1,,,54,95
32518,note_on,,10,0,2,,,,,,,,,1,,,54,0
32518,note_on,,10,0,1,,,,,,,,,0,,,81,0
32520,note_on,,2,0,1,,,,,,,,,0,,,80,95
32520,note_on,,2,0,2,,,,,,,,,1,,,47,95
32530,note_on,,10,0,1,,,,,,,,,0,,,80,0
32530,note_on,,10,0,2,,,,,,,,,1,,,47,0
32532,note_on,,2,0,1,,,,,,,,,0,,,78,95
32532,note_on,,2,0,2,,,,,,,,,1,,,54,95
32542,note_on,,10,0,1,,,,,,,,,0,,,78,0
32542,note_on,,10,0,2,,,,,,,,,1,,,54,0
32544,note_on,,2,0,1,,,,,,,,,0,,,80,95
32544,note_on,,2,0,2,,,,,,,,,1,,,40,95
32554,note_on,,10,0,1,,,,,,,,,0,,,80,0
32554,note_on,,10,0,2,,,,,,,,,1,,,40,0
32556,note_on,,2,0,2,,,,,,,,,1,,,52,95
32556,note_on,,2,0,1,,,,,,,,,0,,,81,95
32566,note_on,,10,0,2,,,,,,,,,1,,,52,0
32566,note_on,,10,0,1,,,,,,,,,0,,,81,0
32568,note_on,,2,0,2,,,,,,,,,1,,,42,95
32568,note_on,,2,0,1,,,,,,,,,0,,,83,95
32578,note_on,,10,0,2,,,,,,,,,1,,,42,0
32578,note_on,,10,0,1,,,,,,,,,0,,,83,0
32580,note_on,,2,0,1,,,,,,,,,0,,,80,95
32580,note_on,,2,0,2,,,,,,,,,1,,,52,95
32590,note_on,,10,0,1,,,,,,,,,0,,,80,0
32590,note_on,,10,0,2,,,,,,,,,1,,,52,0
32592,note_on,,2,0,2,,,,,,,,,1,,,44,95
32592,note_on,,2,0,1,,,,,,,,,0,,,74,95
32602,note_on,,10,0,1,,,,,,,,,0,,,74,0
32602,note_on,,10,0,2,,,,,,,,,1,,,44,0
32604,note_on,,2,0,1,,,,,,,,,0,,,78,95
32604,note_on,,2,0,2,,,,,,,,,1,,,52,95
32614,note_on,,10,0,1,,,,,,,,,0,,,78,0
32614,note_on,,10,0,2,,,,,,,,,1,,,52,0
32616,note_on,,2,0,1,,,,,,,,,0,,,76,95
32616,note_on,,2,0,2,,,,,,,,,1,,,40,95
32626,note_on,,10,0,1,,,,,,,,,0,,,76,0
32626,note_on,,10,0,2,,,,,,,,,1,,,40,0
32628,note_on,,2,0,1,,,,,,,,,0,,,74,95
32628,note_on,,2,0,2,,,,,,,,,1,,,52,95
32638,note_on,,10,0,1,,,,,,,,,0,,,74,0
32638,note_on,,10,0,2,,,,,,,,,1,,,52,0
32640,note_on,,2,0,1,,,,,,,,,0,,,73,95
32640,note_on,,2,0,2,,,,,,,,,1,,,45,95
32650,note_on,,10,0,1,,,,,,,,,0,,,73,0
32650,note_on,,10,0,2,,,,,,,,,1,,,45,0
32652,note_on,,2,0,2,,,,,,,,,1,,,57,95
32652,note_on,,2,0,1,,,,,,,,,0,,,81,95
32662,note_on,,10,0,2,,,,,,,,,1,,,57,0
32662,note_on,,10,0,1,,,,,,,,,0,,,81,0
32664,note_on,,2,0,2,,,,,,,,,1,,,47,95
32664,note_on,,2,0,1,,,,,,,,,0,,,80,95
32674,note_on,,10,0,2,,,,,,,,,1,,,47,0
32674,note_on,,10,0,1,,,,,,,,,0,,,80,0
32676,note_on,,2,0,1,,,,,,,,,0,,,78,95
32676,note_on,,2,0,2,,,,,,,,,1,,,57,95
32686,note_on,,10,0,2,,,,,,,,,1,,,57,0
32686,note_on,,10,0,1,,,,,,,,,0,,,78,0
32688,note_on,,2,0,2,,,,,,,,,1,,,49,95
32688,note_on,,2,0,1,,,,,,,,,0,,,76,95
32698,note_on,,10,0,1,,,,,,,,,0,,,76,0
32698,note_on,,10,0,2,,,,,,,,,1,,,49,0
32700,note_on,,2,0,1,,,,,,,,,0,,,74,95
32700,note_on,,2,0,2,,,,,,,,,1,,,57,95
32710,note_on,,10,0,2,,,,,,,,,1,,,57,0
32710,note_on,,10,0,1,,,,,,,,,0,,,74,0
32712,note_on,,2,0,2,,,,,,,,,1,,,47,95
32712,note_on,,2,0,1,,,,,,,,,0,,,73,95
32722,note_on,,10,0,2,,,,,,,,,1,,,47,0
32722,note_on,,10,0,1,,,,,,,,,0,,,73,0
32724,note_on,,2,0,1,,,,,,,,,0,,,74,95
32724,note_on,,2,0,2,,,,,,,,,1,,,57,95
32734,note_on,,10,0,2,,,,,,,,,1,,,57,0
32734,note_on,,10,0,1,,,,,,,,,0,,,74,0
32736,note_on,,2,0,1,,,,,,,,,0,,,76,95
32736,note_on,,2,0,2,,,,,,,,,1,,,49,95
32746,note_on,,10,0,1,,,,,,,,,0,,,76,0
32746,note_on,,10,0,2,,,,,,,,,1,,,49,0
32748,note_on,,2,0,2,,,,,,,,,1,,,57,95
32748,note_on,,2,0,1,,,,,,,,,0,,,74,95
32758,note_on,,10,0,2,,,,,,,,,1,,,57,0
32758,note_on,,10,0,1,,,,,,,,,0,,,74,0
32760,note_on,,2,0,2,,,,,,,,,1,,,50,95
32760,note_on,,2,0,1,,,,,,,,,0,,,76,95
32770,note_on,,10,0,2,,,,,,,,,1,,,50,0
32770,note_on,,10,0,1,,,,,,,,,0,,,76,0
32772,note_on,,2,0,1,,,,,,,,,0,,,78,95
32772,note_on,,2,0,2,,,,,,,,,1,,,57,95
32782,note_on,,10,0,1,,,,,,,,,0,,,78,0
32782,note_on,,10,0,2,,,,,,,,,1,,,57,0
32784,note_on,,2,0,2,,,,,,,,,1,,,52,95
32784,note_on,,2,0,1,,,,,,,,,0,,,71,95
32794,note_on,,10,0,2,,,,,,,,,1,,,52,0
32796,note_on,,2,0,2,,,,,,,,,1,,,57,95
32806,note_on,,10,0,2,,,,,,,,,1,,,57,0
32808,note_on,,2,0,2,,,,,,,,,1,,,52,95
32814,note_on,,30,0,1,,,,,,,,,0,,,71,0
32818,note_on,,10,0,2,,,,,,,,,1,,,52,0
32820,note_on,,6,0,1,,,,,,,,,0,,,69,95
32820,note_on,,2,0,2,,,,,,,,,1,,,56,95
32830,note_on,,10,0,2,,,,,,,,,1,,,56,0
32830,note_on,,10,0,1,,,,,,,,,0,,,69,0
32832,set_tempo,,1128,1,0,,,,,,,1250000,,,,,,
32832,note_on,,2,0,1,,,,,,,,,0,,,69,95
32832,note_on,,2,0,2,,,,,,,,,1,,,45,95
32837,note_on,,5,0,1,,,,,,,,,0,,,69,0
32838,note_on,,1,0,1,,,,,,,,,0,,,71,95
32842,note_on,,10,0,2,,,,,,,,,1,,,45,0
32843,note_on,,5,0,1,,,,,,,,,0,,,71,0
32844,note_on,,1,0,1,,,,,,,,,0,,,69,95
32844,set_tempo,,12,1,0,,,,,,,697674,,,,,,
32844,note_on,,2,0,2,,,,,,,,,1,,,57,95
32849,note_on,,5,0,1,,,,,,,,,0,,,69,0
32849,note_on,,5,0,2,,,,,,,,,1,,,57,0
32850,note_on,,1,0,2,,,,,,,,,1,,,55,95
32850,note_on,,1,0,1,,,,,,,,,0,,,71,95
32855,note_on,,5,0,2,,,,,,,,,1,,,55,0
32855,note_on,,5,0,1,,,,,,,,,0,,,71,0
32856,note_on,,1,0,2,,,,,,,,,1,,,54,95
32856,note_on,,1,0,1,,,,,,,,,0,,,69,95
32856,set_tempo,,12,1,0,,,,,,,697674,,,,,,
32861,note_on,,5,0,1,,,,,,,,,0,,,69,0
32862,note_on,,1,0,1,,,,,,,,,0,,,71,95
32866,note_on,,10,0,2,,,,,,,,,1,,,54,0
32867,note_on,,5,0,1,,,,,,,,,0,,,71,0
32868,note_on,,2,0,2,,,,,,,,,1,,,57,95
32868,note_on,,1,0,1,,,,,,,,,0,,,69,95
32873,note_on,,5,0,1,,,,,,,,,0,,,69,0
32874,note_on,,1,0,1,,,,,,,,,0,,,71,95
32878,note_on,,10,0,2,,,,,,,,,1,,,57,0
32879,note_on,,5,0,1,,,,,,,,,0,,,71,0
32880,note_on,,2,0,2,,,,,,,,,1,,,52,95
32880,note_on,,1,0,1,,,,,,,,,0,,,69,95
32885,note_on,,5,0,1,,,,,,,,,0,,,69,0
32886,note_on,,1,0,1,,,,,,,,,0,,,71,95
32890,note_on,,10,0,2,,,,,,,,,1,,,52,0
32891,note_on,,5,0,1,,,,,,,,,0,,,71,0
32892,note_on,,1,0,1,,,,,,,,,0,,,69,95
32892,note_on,,2,0,2,,,,,,,,,1,,,57,95
32897,note_on,,5,0,1,,,,,,,,,0,,,69,0
32898,note_on,,1,0,1,,,,,,,,,0,,,71,95
32902,note_on,,10,0,2,,,,,,,,,1,,,57,0
32903,note_on,,5,0,1,,,,,,,,,0,,,71,0
32904,note_on,,1,0,1,,,,,,,,,0,,,69,95
32904,note_on,,2,0,2,,,,,,,,,1,,,50,95
32909,note_on,,5,0,1,,,,,,,,,0,,,69,0
32910,note_on,,1,0,1,,,,,,,,,0,,,71,95
32914,note_on,,10,0,2,,,,,,,,,1,,,50,0
32915,note_on,,5,0,1,,,,,,,,,0,,,71,0
32916,note_on,,1,0,1,,,,,,,,,0,,,69,95
32916,note_on,,2,0,2,,,,,,,,,1,,,57,95
32921,note_on,,5,0,1,,,,,,,,,0,,,69,0
32922,note_on,,1,0,1,,,,,,,,,0,,,71,95
32926,note_on,,10,0,2,,,,,,,,,1,,,57,0
32927,note_on,,5,0,1,,,,,,,,,0,,,71,0
32928,note_on,,2,0,2,,,,,,,,,1,,,49,95
32928,note_on,,1,0,1,,,,,,,,,0,,,69,95
32933,note_on,,5,0,1,,,,,,,,,0,,,69,0
32934,note_on,,1,0,1,,,,,,,,,0,,,71,95
32939,note_on,,5,0,1,,,,,,,,,0,,,71,0
32940,note_on,,1,0,1,,,,,,,,,0,,,69,95
32940,note_on,,12,0,2,,,,,,,,,1,,,55,95
32945,note_on,,5,0,1,,,,,,,,,0,,,69,0
32946,note_on,,1,0,1,,,,,,,,,0,,,71,95
32948,note_on,,8,0,2,,,,,,,,,1,,,49,0
32950,note_on,,2,0,2,,,,,,,,,1,,,55,0
32951,note_on,,5,0,1,,,,,,,,,0,,,71,0
32952,note_on,,2,0,2,,,,,,,,,1,,,50,95
32952,note_on,,0,0,2,,,,,,,,,1,,,54,95
32952,note_on,,1,0,1,,,,,,,,,0,,,69,95
32957,note_on,,5,0,1,,,,,,,,,0,,,69,0
32958,note_on,,1,0,1,,,,,,,,,0,,,71,95
32962,note_on,,10,0,2,,,,,,,,,1,,,54,0
32963,note_on,,5,0,1,,,,,,,,,0,,,71,0
32964,note_on,,1,0,1,,,,,,,,,0,,,69,95
32964,note_on,,2,0,2,,,,,,,,,1,,,57,95
32969,note_on,,5,0,1,,,,,,,,,0,,,69,0
32970,note_on,,1,0,1,,,,,,,,,0,,,71,95
32972,note_on,,8,0,2,,,,,,,,,1,,,50,0
32974,note_on,,2,0,2,,,,,,,,,1,,,57,0
32975,note_on,,5,0,1,,,,,,,,,0,,,71,0
32976,note_on,,1,0,1,,,,,,,,,0,,,69,95
32976,note_on,,0,0,2,,,,,,,,,1,,,52,95
32976,note_on,,2,0,2,,,,,,,,,1,,,49,95
32981,note_on,,5,0,1,,,,,,,,,0,,,69,0
32982,note_on,,1,0,1,,,,,,,,,0,,,71,95
32986,note_on,,10,0,2,,,,,,,,,1,,,52,0
32987,note_on,,5,0,1,,,,,,,,,0,,,71,0
32988,note_on,,1,0,1,,,,,,,,,0,,,69,95
32988,note_on,,2,0,2,,,,,,,,,1,,,57,95
32993,note_on,,5,0,1,,,,,,,,,0,,,69,0
32994,note_on,,1,0,1,,,,,,,,,0,,,71,95
32996,note_on,,8,0,2,,,,,,,,,1,,,49,0
32998,note_on,,2,0,2,,,,,,,,,1,,,57,0
32999,note_on,,5,0,1,,,,,,,,,0,,,71,0
33000,note_on,,0,0,2,,,,,,,,,1,,,50,95
33000,note_on,,2,0,2,,,,,,,,,1,,,47,95
33000,note_on,,1,0,1,,,,,,,,,0,,,69,95
33005,note_on,,5,0,1,,,,,,,,,0,,,69,0
33006,note_on,,1,0,1,,,,,,,,,0,,,71,95
33010,note_on,,10,0,2,,,,,,,,,1,,,50,0
33011,note_on,,5,0,1,,,,,,,,,0,,,71,0
33012,note_on,,1,0,1,,,,,,,,,0,,,69,95
33012,note_on,,2,0,2,,,,,,,,,1,,,57,95
33017,note_on,,5,0,1,,,,,,,,,0,,,69,0
33018,note_on,,1,0,1,,,,,,,,,0,,,71,95
33020,note_on,,8,0,2,,,,,,,,,1,,,47,0
33022,note_on,,2,0,2,,,,,,,,,1,,,57,0
33023,note_on,,5,0,1,,,,,,,,,0,,,71,0
33024,note_on,,2,0,2,,,,,,,,,1,,,45,95
33024,note_on,,0,0,2,,,,,,,,,1,,,49,95
33024,note_on,,1,0,1,,,,,,,,,0,,,69,95
33034,note_on,,10,0,1,,,,,,,,,0,,,69,0
33036,note_on,,2,0,1,,,,,,,,,0,,,67,95
33044,note_on,,20,0,2,,,,,,,,,1,,,49,0
33046,note_on,,10,0,1,,,,,,,,,0,,,67,0
33048,note_on,,4,0,2,,,,,,,,,1,,,50,95
33048,note_on,,2,0,1,,,,,,,,,0,,,66,95
33058,note_on,,10,0,1,,,,,,,,,0,,,66,0
33060,note_on,,2,0,1,,,,,,,,,0,,,69,95
33068,note_on,,20,0,2,,,,,,,,,1,,,50,0
33070,note_on,,10,0,1,,,,,,,,,0,,,69,0
33072,note_on,,4,0,2,,,,,,,,,1,,,49,95
33072,note_on,,2,0,1,,,,,,,,,0,,,64,95
33082,note_on,,10,0,1,,,,,,,,,0,,,64,0
33084,note_on,,2,0,1,,,,,,,,,0,,,69,95
33092,note_on,,20,0,2,,,,,,,,,1,,,49,0
33094,note_on,,10,0,1,,,,,,,,,0,,,69,0
33096,note_on,,2,0,1,,,,,,,,,0,,,62,95
33096,note_on,,4,0,2,,,,,,,,,1,,,47,95
33103,note_on,,7,0,2,,,,,,,,,1,,,45,0
33106,note_on,,10,0,1,,,,,,,,,0,,,62,0
33108,note_on,,2,0,1,,,,,,,,,0,,,69,95
33116,note_on,,13,0,2,,,,,,,,,1,,,47,0
33118,note_on,,10,0,1,,,,,,,,,0,,,69,0
33120,note_on,,4,0,2,,,,,,,,,1,,,45,95
33120,note_on,,2,0,1,,,,,,,,,0,,,61,95
33132,note_on,,12,0,1,,,,,,,,,0,,,67,95
33140,note_on,,8,0,1,,,,,,,,,0,,,61,0
33142,note_on,,2,0,1,,,,,,,,,0,,,67,0
33144,note_on,,2,0,1,,,,,,,,,0,,,62,95
33144,note_on,,0,0,1,,,,,,,,,0,,,66,95
33154,note_on,,10,0,1,,,,,,,,,0,,,66,0
33156,note_on,,2,0,1,,,,,,,,,0,,,69,95
33164,note_on,,8,0,1,,,,,,,,,0,,,62,0
33166,note_on,,2,0,1,,,,,,,,,0,,,69,0
33168,note_on,,2,0,1,,,,,,,,,0,,,61,95
33168,note_on,,0,0,1,,,,,,,,,0,,,64,95
33178,note_on,,10,0,1,,,,,,,,,0,,,64,0
33180,note_on,,2,0,1,,,,,,,,,0,,,69,95
33188,note_on,,8,0,1,,,,,,,,,0,,,61,0
33190,note_on,,2,0,1,,,,,,,,,0,,,69,0
33192,note_on,,2,0,1,,,,,,,,,0,,,59,95
33192,note_on,,0,0,1,,,,,,,,,0,,,62,95
33199,note_on,,79,0,2,,,,,,,,,1,,,45,0
33202,note_on,,10,0,1,,,,,,,,,0,,,62,0
33204,note_on,,2,0,1,,,,,,,,,0,,,69,95
33212,note_on,,8,0,1,,,,,,,,,0,,,59,0
33214,note_on,,2,0,1,,,,,,,,,0,,,69,0
33216,note_on,,2,0,1,,,,,,,,,0,,,57,95
33216,note_on,,0,0,1,,,,,,,,,0,,,61,95
33226,note_on,,10,0,1,,,,,,,,,0,,,61,0
33228,note_on,,2,0,1,,,,,,,,,0,,,67,95
33236,note_on,,8,0,1,,,,,,,,,0,,,57,0
33238,note_on,,2,0,1,,,,,,,,,0,,,67,0
33240,note_on,,2,0,1,,,,,,,,,0,,,66,95
33240,note_on,,41,0,2,,,,,,,,,1,,,50,95
33250,note_on,,10,0,1,,,,,,,,,0,,,66,0
33252,note_on,,2,0,1,,,,,,,,,0,,,57,95
33260,note_on,,20,0,2,,,,,,,,,1,,,50,0
33262,note_on,,10,0,1,,,,,,,,,0,,,57,0
33264,note_on,,2,0,1,,,,,,,,,0,,,64,95
33264,note_on,,4,0,2,,,,,,,,,1,,,49,95
33274,note_on,,10,0,1,,,,,,,,,0,,,64,0
33276,note_on,,2,0,1,,,,,,,,,0,,,57,95
33284,note_on,,20,0,2,,,,,,,,,1,,,49,0
33286,note_on,,10,0,1,,,,,,,,,0,,,57,0
33288,note_on,,2,0,1,,,,,,,,,0,,,62,95
33288,note_on,,4,0,2,,,,,,,,,1,,,47,95
33298,note_on,,10,0,1,,,,,,,,,0,,,62,0
33300,note_on,,2,0,1,,,,,,,,,0,,,57,95
33308,note_on,,20,0,2,,,,,,,,,1,,,47,0
33310,note_on,,10,0,1,,,,,,,,,0,,,57,0
33312,note_on,,4,0,2,,,,,,,,,1,,,45,95
33312,note_on,,2,0,1,,,,,,,,,0,,,61,95
33322,note_on,,10,0,1,,,,,,,,,0,,,61,0
33324,note_on,,2,0,1,,,,,,,,,0,,,57,95
33332,note_on,,20,0,2,,,,,,,,,1,,,45,0
33334,note_on,,10,0,1,,,,,,,,,0,,,57,0
33336,note_on,,4,0,2,,,,,,,,,1,,,47,95
33336,note_on,,2,0,1,,,,,,,,,0,,,62,95
33346,note_on,,10,0,1,,,,,,,,,0,,,62,0
33348,note_on,,2,0,1,,,,,,,,,0,,,67,95
33356,note_on,,20,0,2,,,,,,,,,1,,,47,0
33358,note_on,,10,0,1,,,,,,,,,0,,,67,0
33360,note_on,,2,0,1,,,,,,,,,0,,,61,95
33360,note_on,,4,0,2,,,,,,,,,1,,,45,95
33370,note_on,,10,0,1,,,,,,,,,0,,,61,0
33372,note_on,,2,0,1,,,,,,,,,0,,,66,95
33380,note_on,,20,0,2,,,,,,,,,1,,,45,0
33382,note_on,,10,0,1,,,,,,,,,0,,,66,0
33384,note_on,,2,0,1,,,,,,,,,0,,,59,95
33384,note_on,,4,0,2,,,,,,,,,1,,,43,95
33394,note_on,,10,0,1,,,,,,,,,0,,,59,0
33396,note_on,,2,0,1,,,,,,,,,0,,,64,95
33404,note_on,,20,0,2,,,,,,,,,1,,,43,0
33406,note_on,,10,0,1,,,,,,,,,0,,,64,0
33408,note_on,,4,0,2,,,,,,,,,1,,,42,95
33408,note_on,,2,0,1,,,,,,,,,0,,,57,95
33418,note_on,,10,0,1,,,,,,,,,0,,,57,0
33420,note_on,,2,0,1,,,,,,,,,0,,,62,95
33428,note_on,,20,0,2,,,,,,,,,1,,,42,0
33430,note_on,,10,0,1,,,,,,,,,0,,,62,0
33432,note_on,,4,0,2,,,,,,,,,1,,,47,95
33432,note_on,,2,0,1,,,,,,,,,0,,,57,95
33432,note_on,,0,0,1,,,,,,,,,0,,,61,95
33442,note_on,,10,0,1,,,,,,,,,0,,,61,0
33444,note_on,,2,0,1,,,,,,,,,0,,,69,95
33452,note_on,,20,0,2,,,,,,,,,1,,,47,0
33452,note_on,,8,0,1,,,,,,,,,0,,,57,0
33454,note_on,,2,0,1,,,,,,,,,0,,,69,0
33456,note_on,,4,0,2,,,,,,,,,1,,,45,95
33456,note_on,,2,0,1,,,,,,,,,0,,,59,95
33456,note_on,,0,0,1,,,,,,,,,0,,,62,95
33466,note_on,,10,0,1,,,,,,,,,0,,,62,0
33468,note_on,,2,0,1,,,,,,,,,0,,,69,95
33476,note_on,,20,0,2,,,,,,,,,1,,,45,0
33476,note_on,,8,0,1,,,,,,,,,0,,,59,0
33478,note_on,,2,0,1,,,,,,,,,0,,,69,0
33480,note_on,,0,0,1,,,,,,,,,0,,,64,95
33480,note_on,,4,0,2,,,,,,,,,1,,,43,95
33480,note_on,,2,0,1,,,,,,,,,0,,,61,95
33490,note_on,,10,0,1,,,,,,,,,0,,,64,0
33492,note_on,,2,0,1,,,,,,,,,0,,,69,95
33500,note_on,,8,0,1,,,,,,,,,0,,,61,0
33500,note_on,,20,0,2,,,,,,,,,1,,,43,0
33502,note_on,,2,0,1,,,,,,,,,0,,,69,0
33504,note_on,,2,0,1,,,,,,,,,0,,,62,95
33504,note_on,,0,0,1,,,,,,,,,0,,,66,95
33504,note_on,,4,0,2,,,,,,,,,1,,,42,95
33514,note_on,,10,0,1,,,,,,,,,0,,,66,0
33516,note_on,,2,0,1,,,,,,,,,0,,,69,95
33524,note_on,,8,0,1,,,,,,,,,0,,,62,0
33524,note_on,,20,0,2,,,,,,,,,1,,,42,0
33526,note_on,,2,0,1,,,,,,,,,0,,,69,0
33528,note_on,,4,0,2,,,,,,,,,1,,,43,95
33528,note_on,,2,0,1,,,,,,,,,0,,,61,95
33528,note_on,,0,0,1,,,,,,,,,0,,,64,95
33538,note_on,,10,0,1,,,,,,,,,0,,,64,0
33540,note_on,,2,0,1,,,,,,,,,0,,,69,95
33548,note_on,,20,0,2,,,,,,,,,1,,,43,0
33548,note_on,,8,0,1,,,,,,,,,0,,,61,0
33550,note_on,,2,0,1,,,,,,,,,0,,,69,0
33552,note_on,,0,0,1,,,,,,,,,0,,,66,95
33552,note_on,,2,0,1,,,,,,,,,0,,,62,95
33552,note_on,,4,0,2,,,,,,,,,1,,,42,95
33562,note_on,,10,0,1,,,,,,,,,0,,,66,0
33564,note_on,,2,0,1,,,,,,,,,0,,,71,95
33572,note_on,,20,0,2,,,,,,,,,1,,,42,0
33572,note_on,,8,0,1,,,,,,,,,0,,,62,0
33574,note_on,,2,0,1,,,,,,,,,0,,,71,0
33576,note_on,,4,0,2,,,,,,,,,1,,,40,95
33576,note_on,,0,0,1,,,,,,,,,0,,,67,95
33576,note_on,,2,0,1,,,,,,,,,0,,,64,95
33586,note_on,,10,0,1,,,,,,,,,0,,,67,0
33588,note_on,,2,0,1,,,,,,,,,0,,,73,95
33596,note_on,,20,0,2,,,,,,,,,1,,,40,0
33596,note_on,,8,0,1,,,,,,,,,0,,,64,0
33598,note_on,,2,0,1,,,,,,,,,0,,,73,0
33600,note_on,,2,0,1,,,,,,,,,0,,,66,95
33600,note_on,,4,0,2,,,,,,,,,1,,,38,95
33600,note_on,,0,0,1,,,,,,,,,0,,,74,95
33600,set_tempo,,744,1,0,,,,,,,1071429,,,,,,
33605,note_on,,5,0,1,,,,,,,,,0,,,74,0
33606,note_on,,1,0,1,,,,,,,,,0,,,76,95
33610,note_on,,10,0,2,,,,,,,,,1,,,38,0
33611,note_on,,5,0,1,,,,,,,,,0,,,76,0
33612,note_on,,1,0,1,,,,,,,,,0,,,74,95
33612,note_on,,2,0,2,,,,,,,,,1,,,62,95
33612,set_tempo,,12,1,0,,,,,,,697674,,,,,,
33617,note_on,,5,0,1,,,,,,,,,0,,,74,0
33617,note_on,,5,0,2,,,,,,,,,1,,,62,0
33618,note_on,,1,0,1,,,,,,,,,0,,,76,95
33618,note_on,,1,0,2,,,,,,,,,1,,,61,95
33620,note_on,,2,0,1,,,,,,,,,0,,,66,0
33623,note_on,,3,0,1,,,,,,,,,0,,,76,0
33623,note_on,,5,0,2,,,,,,,,,1,,,61,0
33624,set_tempo,,12,1,0,,,,,,,697674,,,,,,
33624,note_on,,1,0,1,,,,,,,,,0,,,74,95
33624,note_on,,1,0,2,,,,,,,,,1,,,59,95
33629,note_on,,5,0,1,,,,,,,,,0,,,74,0
33630,note_on,,1,0,1,,,,,,,,,0,,,76,95
33634,note_on,,10,0,2,,,,,,,,,1,,,59,0
33635,note_on,,5,0,1,,,,,,,,,0,,,76,0
33636,note_on,,2,0,2,,,,,,,,,1,,,62,95
33636,note_on,,1,0,1,,,,,,,,,0,,,74,95
33641,note_on,,5,0,1,,,,,,,,,0,,,74,0
33642,note_on,,1,0,1,,,,,,,,,0,,,76,95
33646,note_on,,10,0,2,,,,,,,,,1,,,62,0
33647,note_on,,5,0,1,,,,,,,,,0,,,76,0
33648,note_on,,1,0,1,,,,,,,,,0,,,74,95
33648,note_on,,2,0,2,,,,,,,,,1,,,57,95
33653,note_on,,5,0,1,,,,,,,,,0,,,74,0
33654,note_on,,1,0,1,,,,,,,,,0,,,76,95
33658,note_on,,10,0,2,,,,,,,,,1,,,57,0
33659,note_on,,5,0,1,,,,,,,,,0,,,76,0
33660,note_on,,2,0,2,,,,,,,,,1,,,62,95
33660,note_on,,1,0,1,,,,,,,,,0,,,74,95
33665,note_on,,5,0,1,,,,,,,,,0,,,74,0
33666,note_on,,1,0,1,,,,,,,,,0,,,76,95
33670,note_on,,10,0,2,,,,,,,,,1,,,62,0
33671,note_on,,5,0,1,,,,,,,,,0,,,76,0
33672,note_on,,1,0,1,,,,,,,,,0,,,74,95
33672,note_on,,2,0,2,,,,,,,,,1,,,55,95
33677,note_on,,5,0,1,,,,,,,,,0,,,74,0
33678,note_on,,1,0,1,,,,,,,,,0,,,76,95
33682,note_on,,10,0,2,,,,,,,,,1,,,55,0
33683,note_on,,5,0,1,,,,,,,,,0,,,76,0
33684,note_on,,2,0,2,,,,,,,,,1,,,62,95
33684,note_on,,1,0,1,,,,,,,,,0,,,74,95
33689,note_on,,5,0,1,,,,,,,,,0,,,74,0
33690,note_on,,1,0,1,,,,,,,,,0,,,76,95
33694,note_on,,10,0,2,,,,,,,,,1,,,62,0
33695,note_on,,5,0,1,,,,,,,,,0,,,76,0
33696,note_on,,2,0,2,,,,,,,,,1,,,54,95
33696,note_on,,1,0,1,,,,,,,,,0,,,74,95
33701,note_on,,5,0,1,,,,,,,,,0,,,74,0
33702,note_on,,1,0,1,,,,,,,,,0,,,76,95
33707,note_on,,5,0,1,,,,,,,,,0,,,76,0
33708,note_on,,1,0,1,,,,,,,,,0,,,74,95
33708,note_on,,12,0,2,,,,,,,,,1,,,60,95
33713,note_on,,5,0,1,,,,,,,,,0,,,74,0
33714,note_on,,1,0,1,,,,,,,,,0,,,76,95
33716,note_on,,8,0,2,,,,,,,,,1,,,54,0
33718,note_on,,2,0,2,,,,,,,,,1,,,60,0
33719,note_on,,5,0,1,,,,,,,,,0,,,76,0
33720,note_on,,1,0,1,,,,,,,,,0,,,74,95
33720,note_on,,2,0,2,,,,,,,,,1,,,55,95
33720,note_on,,0,0,2,,,,,,,,,1,,,59,95
33725,note_on,,5,0,1,,,,,,,,,0,,,74,0
33726,note_on,,1,0,1,,,,,,,,,0,,,76,95
33730,note_on,,10,0,2,,,,,,,,,1,,,59,0
33731,note_on,,5,0,1,,,,,,,,,0,,,76,0
33732,note_on,,1,0,1,,,,,,,,,0,,,74,95
33732,note_on,,2,0,2,,,,,,,,,1,,,62,95
33737,note_on,,5,0,1,,,,,,,,,0,,,74,0
33738,note_on,,1,0,1,,,,,,,,,0,,,76,95
33740,note_on,,8,0,2,,,,,,,,,1,,,55,0
33742,note_on,,2,0,2,,,,,,,,,1,,,62,0
33743,note_on,,5,0,1,,,,,,,,,0,,,76,0
33744,note_on,,1,0,1,,,,,,,,,0,,,74,95
33744,note_on,,0,0,2,,,,,,,,,1,,,57,95
33744,note_on,,2,0,2,,,,,,,,,1,,,54,95
33749,note_on,,5,0,1,,,,,,,,,0,,,74,0
33750,note_on,,1,0,1,,,,,,,,,0,,,76,95
33754,note_on,,10,0,2,,,,,,,,,1,,,57,0
33755,note_on,,5,0,1,,,,,,,,,0,,,76,0
33756,note_on,,2,0,2,,,,,,,,,1,,,62,95
33756,note_on,,1,0,1,,,,,,,,,0,,,74,95
33761,note_on,,5,0,1,,,,,,,,,0,,,74,0
33762,note_on,,1,0,1,,,,,,,,,0,,,76,95
33764,note_on,,8,0,2,,,,,,,,,1,,,54,0
33766,note_on,,2,0,2,,,,,,,,,1,,,62,0
33767,note_on,,5,0,1,,,,,,,,,0,,,76,0
33768,note_on,,1,0,1,,,,,,,,,0,,,74,95
33768,note_on,,2,0,2,,,,,,,,,1,,,52,95
33768,note_on,,0,0,2,,,,,,,,,1,,,55,95
33773,note_on,,5,0,1,,,,,,,,,0,,,74,0
33774,note_on,,1,0,1,,,,,,,,,0,,,76,95
33778,note_on,,10,0,2,,,,,,,,,1,,,55,0
33779,note_on,,5,0,1,,,,,,,,,0,,,76,0
33780,note_on,,2,0,2,,,,,,,,,1,,,62,95
33780,note_on,,1,0,1,,,,,,,,,0,,,74,95
33785,note_on,,5,0,1,,,,,,,,,0,,,74,0
33786,note_on,,1,0,1,,,,,,,,,0,,,76,95
33788,note_on,,8,0,2,,,,,,,,,1,,,52,0
33790,note_on,,2,0,2,,,,,,,,,1,,,62,0
33791,note_on,,5,0,1,,,,,,,,,0,,,76,0
33792,note_on,,1,0,1,,,,,,,,,0,,,74,95
33792,note_on,,2,0,2,,,,,,,,,1,,,50,95
33792,note_on,,0,0,2,,,,,,,,,1,,,54,95
33802,note_on,,10,0,1,,,,,,,,,0,,,74,0
33804,note_on,,2,0,1,,,,,,,,,0,,,72,95
33812,note_on,,20,0,2,,,,,,,,,1,,,54,0
33814,note_on,,10,0,1,,,,,,,,,0,,,72,0
33816,note_on,,4,0,2,,,,,,,,,1,,,55,95
33816,note_on,,2,0,1,,,,,,,,,0,,,71,95
33826,note_on,,10,0,1,,,,,,,,,0,,,71,0
33828,note_on,,2,0,1,,,,,,,,,0,,,74,95
33836,note_on,,20,0,2,,,,,,,,,1,,,55,0
33838,note_on,,10,0,1,,,,,,,,,0,,,74,0
33840,note_on,,4,0,2,,,,,,,,,1,,,54,95
33840,note_on,,2,0,1,,,,,,,,,0,,,69,95
33850,note_on,,10,0,1,,,,,,,,,0,,,69,0
33852,note_on,,2,0,1,,,,,,,,,0,,,74,95
33860,note_on,,20,0,2,,,,,,,,,1,,,54,0
33862,note_on,,10,0,1,,,,,,,,,0,,,74,0
33864,note_on,,2,0,1,,,,,,,,,0,,,67,95
33864,note_on,,4,0,2,,,,,,,,,1,,,52,95
33871,note_on,,7,0,2,,,,,,,,,1,,,50,0
33874,note_on,,10,0,1,,,,,,,,,0,,,67,0
33876,note_on,,2,0,1,,,,,,,,,0,,,74,95
33884,note_on,,13,0,2,,,,,,,,,1,,,52,0
33886,note_on,,10,0,1,,,,,,,,,0,,,74,0
33888,note_on,,4,0,2,,,,,,,,,1,,,50,95
33888,note_on,,2,0,1,,,,,,,,,0,,,66,95
33898,note_on,,10,0,1,,,,,,,,,0,,,66,0
33900,note_on,,2,0,1,,,,,,,,,0,,,72,95
33910,note_on,,10,0,1,,,,,,,,,0,,,72,0
33912,note_on,,2,0,1,,,,,,,,,0,,,67,95
33912,note_on,,0,0,1,,,,,,,,,0,,,71,95
33922,note_on,,10,0,1,,,,,,,,,0,,,71,0
33924,note_on,,2,0,1,,,,,,,,,0,,,74,95
33932,note_on,,8,0,1,,,,,,,,,0,,,67,0
33934,note_on,,2,0,1,,,,,,,,,0,,,74,0
33936,note_on,,2,0,1,,,,,,,,,0,,,66,95
33936,note_on,,0,0,1,,,,,,,,,0,,,69,95
33946,note_on,,10,0,1,,,,,,,,,0,,,69,0
33948,note_on,,2,0,1,,,,,,,,,0,,,74,95
33956,note_on,,8,0,1,,,,,,,,,0,,,66,0
33958,note_on,,2,0,1,,,,,,,,,0,,,74,0
33960,note_on,,0,0,1,,,,,,,,,0,,,67,95
33960,note_on,,2,0,1,,,,,,,,,0,,,64,95
33970,note_on,,10,0,1,,,,,,,,,0,,,67,0
33972,note_on,,2,0,1,,,,,,,,,0,,,74,95
33980,note_on,,8,0,1,,,,,,,,,0,,,64,0
33982,note_on,,2,0,1,,,,,,,,,0,,,74,0
33984,note_on,,2,0,1,,,,,,,,,0,,,62,95
33984,note_on,,0,0,1,,,,,,,,,0,,,66,95
33984,note_on,,96,0,2,,,,,,,,,1,,,50,0
33994,note_on,,10,0,1,,,,,,,,,0,,,66,0
33994,note_on,,0,0,1,,,,,,,,,0,,,62,0
33996,note_on,,2,0,1,,,,,,,,,0,,,72,95
34006,note_on,,10,0,1,,,,,,,,,0,,,72,0
34008,note_on,,2,0,1,,,,,,,,,0,,,71,95
34008,note_on,,24,0,2,,,,,,,,,1,,,55,95
34018,note_on,,10,0,1,,,,,,,,,0,,,71,0
34020,note_on,,2,0,1,,,,,,,,,0,,,62,95
34028,note_on,,20,0,2,,,,,,,,,1,,,55,0
34030,note_on,,10,0,1,,,,,,,,,0,,,62,0
34032,note_on,,4,0,2,,,,,,,,,1,,,54,95
34032,note_on,,2,0,1,,,,,,,,,0,,,69,95
34042,note_on,,10,0,1,,,,,,,,,0,,,69,0
34044,note_on,,2,0,1,,,,,,,,,0,,,62,95
34052,note_on,,20,0,2,,,,,,,,,1,,,54,0
34054,note_on,,10,0,1,,,,,,,,,0,,,62,0
34056,note_on,,2,0,1,,,,,,,,,0,,,67,95
34056,note_on,,4,0,2,,,,,,,,,1,,,52,95
34066,note_on,,10,0,1,,,,,,,,,0,,,67,0
34068,note_on,,2,0,1,,,,,,,,,0,,,62,95
34076,note_on,,20,0,2,,,,,,,,,1,,,52,0
34078,note_on,,10,0,1,,,,,,,,,0,,,62,0
34080,note_on,,4,0,2,,,,,,,,,1,,,50,95
34080,note_on,,2,0,1,,,,,,,,,0,,,66,95
34090,note_on,,10,0,1,,,,,,,,,0,,,66,0
34092,note_on,,2,0,1,,,,,,,,,0,,,62,95
34100,note_on,,20,0,2,,,,,,,,,1,,,50,0
34102,note_on,,10,0,1,,,,,,,,,0,,,62,0
34104,note_on,,4,0,2,,,,,,,,,1,,,52,95
34104,note_on,,2,0,1,,,,,,,,,0,,,67,95
34114,note_on,,10,0,1,,,,,,,,,0,,,67,0
34116,note_on,,2,0,1,,,,,,,,,0,,,72,95
34124,note_on,,20,0,2,,,,,,,,,1,,,52,0
34126,note_on,,10,0,1,,,,,,,,,0,,,72,0
34128,note_on,,2,0,1,,,,,,,,,0,,,66,95
34128,note_on,,4,0,2,,,,,,,,,1,,,50,95
34138,note_on,,10,0,1,,,,,,,,,0,,,66,0
34140,note_on,,2,0,1,,,,,,,,,0,,,71,95
34148,note_on,,20,0,2,,,,,,,,,1,,,50,0
34150,note_on,,10,0,1,,,,,,,,,0,,,71,0
34152,note_on,,2,0,1,,,,,,,,,0,,,64,95
34152,note_on,,4,0,2,,,,,,,,,1,,,48,95
34162,note_on,,10,0,1,,,,,,,,,0,,,64,0
34164,note_on,,2,0,1,,,,,,,,,0,,,69,95
34172,note_on,,20,0,2,,,,,,,,,1,,,48,0
34174,note_on,,10,0,1,,,,,,,,,0,,,69,0
34176,note_on,,2,0,1,,,,,,,,,0,,,62,95
34176,note_on,,4,0,2,,,,,,,,,1,,,47,95
34186,note_on,,10,0,1,,,,,,,,,0,,,62,0
34188,note_on,,2,0,1,,,,,,,,,0,,,67,95
34196,note_on,,20,0,2,,,,,,,,,1,,,47,0
34198,note_on,,10,0,1,,,,,,,,,0,,,67,0
34200,note_on,,2,0,1,,,,,,,,,0,,,62,95
34200,note_on,,0,0,1,,,,,,,,,0,,,66,95
34200,note_on,,4,0,2,,,,,,,,,1,,,52,95
34210,note_on,,10,0,1,,,,,,,,,0,,,66,0
34212,note_on,,2,0,1,,,,,,,,,0,,,74,95
34220,note_on,,20,0,2,,,,,,,,,1,,,52,0
34220,note_on,,8,0,1,,,,,,,,,0,,,62,0
34222,note_on,,2,0,1,,,,,,,,,0,,,74,0
34224,note_on,,4,0,2,,,,,,,,,1,,,50,95
34224,note_on,,0,0,1,,,,,,,,,0,,,67,95
34224,note_on,,2,0,1,,,,,,,,,0,,,64,95
34234,note_on,,10,0,1,,,,,,,,,0,,,67,0
34236,note_on,,2,0,1,,,,,,,,,0,,,74,95
34244,note_on,,8,0,1,,,,,,,,,0,,,64,0
34244,note_on,,20,0,2,,,,,,,,,1,,,50,0
34246,note_on,,2,0,1,,,,,,,,,0,,,74,0
34248,note_on,,0,0,1,,,,,,,,,0,,,69,95
34248,note_on,,2,0,1,,,,,,,,,0,,,66,95
34248,note_on,,4,0,2,,,,,,,,,1,,,48,95
34258,note_on,,10,0,1,,,,,,,,,0,,,69,0
34260,note_on,,2,0,1,,,,,,,,,0,,,74,95
34268,note_on,,8,0,1,,,,,,,,,0,,,66,0
34268,note_on,,20,0,2,,,,,,,,,1,,,48,0
34270,note_on,,2,0,1,,,,,,,,,0,,,74,0
34272,note_on,,4,0,2,,,,,,,,,1,,,47,95
34272,note_on,,0,0,1,,,,,,,,,0,,,71,95
34272,note_on,,2,0,1,,,,,,,,,0,,,67,95
34282,note_on,,10,0,1,,,,,,,,,0,,,71,0
34284,note_on,,2,0,1,,,,,,,,,0,,,74,95
34292,note_on,,20,0,2,,,,,,,,,1,,,47,0
34292,note_on,,8,0,1,,,,,,,,,0,,,67,0
34294,note_on,,2,0,1,,,,,,,,,0,,,74,0
34296,note_on,,4,0,2,,,,,,,,,1,,,48,95
34296,note_on,,2,0,1,,,,,,,,,0,,,66,95
34296,note_on,,0,0,1,,,,,,,,,0,,,69,95
34306,note_on,,10,0,1,,,,,,,,,0,,,69,0
34308,note_on,,2,0,1,,,,,,,,,0,,,74,95
34316,note_on,,20,0,2,,,,,,,,,1,,,48,0
34316,note_on,,8,0,1,,,,,,,,,0,,,66,0
34318,note_on,,2,0,1,,,,,,,,,0,,,74,0
34320,note_on,,2,0,1,,,,,,,,,0,,,67,95
34320,note_on,,4,0,2,,,,,,,,,1,,,47,95
34320,note_on,,0,0,1,,,,,,,,,0,,,71,95
34330,note_on,,10,0,1,,,,,,,,,0,,,71,0
34332,note_on,,2,0,1,,,,,,,,,0,,,76,95
34340,note_on,,20,0,2,,,,,,,,,1,,,47,0
34340,note_on,,8,0,1,,,,,,,,,0,,,67,0
34342,note_on,,2,0,1,,,,,,,,,0,,,76,0
34344,note_on,,2,0,1,,,,,,,,,0,,,69,95
34344,note_on,,0,0,1,,,,,,,,,0,,,72,95
34344,note_on,,4,0,2,,,,,,,,,1,,,45,95
34354,note_on,,10,0,1,,,,,,,,,0,,,72,0
34356,note_on,,2,0,1,,,,,,,,,0,,,78,95
34364,note_on,,8,0,1,,,,,,,,,0,,,69,0
34364,note_on,,20,0,2,,,,,,,,,1,,,45,0
34366,note_on,,2,0,1,,,,,,,,,0,,,78,0
34368,note_on,,0,0,1,,,,,,,,,0,,,74,95
34368,note_on,,4,0,2,,,,,,,,,1,,,43,95
34368,note_on,,2,0,1,,,,,,,,,0,,,71,95
34373,note_on,,5,0,2,,,,,,,,,1,,,43,0
34374,note_on,,1,0,2,,,,,,,,,1,,,45,95
34378,note_on,,10,0,1,,,,,,,,,0,,,74,0
34379,note_on,,5,0,2,,,,,,,,,1,,,45,0
34380,note_on,,2,0,1,,,,,,,,,0,,,79,95
34380,note_on,,1,0,2,,,,,,,,,1,,,43,95
34385,note_on,,5,0,2,,,,,,,,,1,,,43,0
34386,note_on,,1,0,2,,,,,,,,,1,,,45,95
34388,note_on,,8,0,1,,,,,,,,,0,,,71,0
34390,note_on,,2,0,1,,,,,,,,,0,,,79,0
34391,note_on,,5,0,2,,,,,,,,,1,,,45,0
34392,note_on,,1,0,2,,,,,,,,,1,,,43,95
34392,note_on,,0,0,1,,,,,,,,,0,,,69,95
34392,note_on,,2,0,1,,,,,,,,,0,,,66,95
34397,note_on,,5,0,2,,,,,,,,,1,,,43,0
34398,note_on,,1,0,2,,,,,,,,,1,,,45,95
34402,note_on,,10,0,1,,,,,,,,,0,,,69,0
34403,note_on,,5,0,2,,,,,,,,,1,,,45,0
34404,note_on,,1,0,2,,,,,,,,,1,,,43,95
34404,note_on,,2,0,1,,,,,,,,,0,,,74,95
34409,note_on,,5,0,2,,,,,,,,,1,,,43,0
34410,note_on,,1,0,2,,,,,,,,,1,,,45,95
34412,note_on,,8,0,1,,,,,,,,,0,,,66,0
34414,note_on,,2,0,1,,,,,,,,,0,,,74,0
34415,note_on,,5,0,2,,,,,,,,,1,,,45,0
34416,note_on,,0,0,1,,,,,,,,,0,,,71,95
34416,note_on,,2,0,1,,,,,,,,,0,,,67,95
34416,note_on,,1,0,2,,,,,,,,,1,,,43,95
34421,note_on,,5,0,2,,,,,,,,,1,,,43,0
34422,note_on,,1,0,2,,,,,,,,,1,,,45,95
34426,note_on,,10,0,1,,,,,,,,,0,,,71,0
34427,note_on,,5,0,2,,,,,,,,,1,,,45,0
34428,note_on,,2,0,1,,,,,,,,,0,,,76,95
34428,note_on,,1,0,2,,,,,,,,,1,,,43,95
34433,note_on,,5,0,2,,,,,,,,,1,,,43,0
34434,note_on,,1,0,2,,,,,,,,,1,,,45,95
34436,note_on,,8,0,1,,,,,,,,,0,,,67,0
34438,note_on,,2,0,1,,,,,,,,,0,,,76,0
34439,note_on,,5,0,2,,,,,,,,,1,,,45,0
34440,note_on,,2,0,1,,,,,,,,,0,,,69,95
34440,note_on,,0,0,1,,,,,,,,,0,,,72,95
34440,note_on,,1,0,2,,,,,,,,,1,,,43,95
34445,note_on,,5,0,2,,,,,,,,,1,,,43,0
34446,note_on,,1,0,2,,,,,,,,,1,,,45,95
34450,note_on,,10,0,1,,,,,,,,,0,,,72,0
34451,note_on,,5,0,2,,,,,,,,,1,,,45,0
34452,note_on,,1,0,2,,,,,,,,,1,,,43,95
34452,note_on,,2,0,1,,,,,,,,,0,,,78,95
34457,note_on,,5,0,2,,,,,,,,,1,,,43,0
34458,note_on,,1,0,2,,,,,,,,,1,,,45,95
34460,note_on,,8,0,1,,,,,,,,,0,,,69,0
34462,note_on,,2,0,1,,,,,,,,,0,,,78,0
34463,note_on,,5,0,2,,,,,,,,,1,,,45,0
34464,note_on,,2,0,1,,,,,,,,,0,,,71,95
34464,note_on,,1,0,2,,,,,,,,,1,,,43,95
34464,note_on,,0,0,1,,,,,,,,,0,,,74,95
34469,note_on,,5,0,2,,,,,,,,,1,,,43,0
34470,note_on,,1,0,2,,,,,,,,,1,,,45,95
34474,note_on,,10,0,1,,,,,,,,,0,,,74,0
34475,note_on,,5,0,2,,,,,,,,,1,,,45,0
34476,note_on,,1,0,2,,,,,,,,,1,,,43,95
34476,note_on,,2,0,1,,,,,,,,,0,,,79,95
34481,note_on,,5,0,2,,,,,,,,,1,,,43,0
34482,note_on,,1,0,2,,,,,,,,,1,,,45,95
34484,note_on,,8,0,1,,,,,,,,,0,,,71,0
34486,note_on,,2,0,1,,,,,,,,,0,,,79,0
34487,note_on,,5,0,2,,,,,,,,,1,,,45,0
34488,note_on,,2,0,1,,,,,,,,,0,,,69,95
34488,note_on,,1,0,2,,,,,,,,,1,,,43,95
34488,note_on,,0,0,1,,,,,,,,,0,,,74,95
34493,note_on,,5,0,2,,,,,,,,,1,,,43,0
34494,note_on,,1,0,2,,,,,,,,,1,,,45,95
34498,note_on,,10,0,1,,,,,,,,,0,,,74,0
34499,note_on,,5,0,2,,,,,,,,,1,,,45,0
34500,note_on,,2,0,1,,,,,,,,,0,,,78,95
34500,note_on,,1,0,2,,,,,,,,,1,,,43,95
34505,note_on,,5,0,2,,,,,,,,,1,,,43,0
34506,note_on,,1,0,2,,,,,,,,,1,,,45,95
34508,note_on,,8,0,1,,,,,,,,,0,,,69,0
34510,note_on,,2,0,1,,,,,,,,,0,,,78,0
34511,note_on,,5,0,2,,,,,,,,,1,,,45,0
34512,note_on,,1,0,2,,,,,,,,,1,,,43,95
34512,note_on,,2,0,1,,,,,,,,,0,,,71,95
34512,note_on,,0,0,1,,,,,,,,,0,,,76,95
34517,note_on,,5,0,2,,,,,,,,,1,,,43,0
34518,note_on,,1,0,2,,,,,,,,,1,,,45,95
34522,note_on,,10,0,1,,,,,,,,,0,,,76,0
34523,note_on,,5,0,2,,,,,,,,,1,,,45,0
34524,note_on,,1,0,2,,,,,,,,,1,,,43,95
34524,note_on,,2,0,1,,,,,,,,,0,,,79,95
34529,note_on,,5,0,2,,,,,,,,,1,,,43,0
34530,note_on,,1,0,2,,,,,,,,,1,,,45,95
34532,note_on,,8,0,1,,,,,,,,,0,,,71,0
34534,note_on,,2,0,1,,,,,,,,,0,,,79,0
34535,note_on,,5,0,2,,,,,,,,,1,,,45,0
34536,note_on,,2,0,1,,,,,,,,,0,,,72,95
34536,note_on,,0,0,1,,,,,,,,,0,,,78,95
34536,note_on,,1,0,2,,,,,,,,,1,,,43,95
34541,note_on,,5,0,2,,,,,,,,,1,,,43,0
34542,note_on,,1,0,2,,,,,,,,,1,,,45,95
34546,note_on,,10,0,1,,,,,,,,,0,,,78,0
34547,note_on,,5,0,2,,,,,,,,,1,,,45,0
34548,note_on,,1,0,2,,,,,,,,,1,,,43,95
34548,note_on,,2,0,1,,,,,,,,,0,,,81,95
34553,note_on,,5,0,2,,,,,,,,,1,,,43,0
34554,note_on,,1,0,2,,,,,,,,,1,,,45,95
34556,note_on,,8,0,1,,,,,,,,,0,,,72,0
34558,note_on,,2,0,1,,,,,,,,,0,,,81,0
34559,note_on,,5,0,2,,,,,,,,,1,,,45,0
34560,note_on,,0,0,1,,,,,,,,,0,,,79,95
34560,note_on,,2,0,1,,,,,,,,,0,,,74,95
34560,note_on,,1,0,2,,,,,,,,,1,,,43,95
34570,note_on,,0,0,1,,,,,,,,,0,,,74,0
34570,note_on,,10,0,2,,,,,,,,,1,,,43,0
34570,note_on,,10,0,1,,,,,,,,,0,,,79,0
34572,note_on,,2,0,1,,,,,,,,,0,,,83,95
34572,note_on,,2,0,2,,,,,,,,,1,,,67,95
34582,note_on,,10,0,2,,,,,,,,,1,,,67,0
34582,note_on,,10,0,1,,,,,,,,,0,,,83,0
34584,note_on,,2,0,2,,,,,,,,,1,,,66,95
34584,note_on,,2,0,1,,,,,,,,,0,,,81,95
34594,note_on,,10,0,2,,,,,,,,,1,,,66,0
34594,note_on,,10,0,1,,,,,,,,,0,,,81,0
34596,note_on,,2,0,1,,,,,,,,,0,,,83,95
34596,note_on,,2,0,2,,,,,,,,,1,,,67,95
34606,note_on,,10,0,1,,,,,,,,,0,,,83,0
34606,note_on,,10,0,2,,,,,,,,,1,,,67,0
34608,note_on,,2,0,2,,,,,,,,,1,,,64,95
34608,note_on,,2,0,1,,,,,,,,,0,,,79,95
34618,note_on,,10,0,1,,,,,,,,,0,,,79,0
34618,note_on,,10,0,2,,,,,,,,,1,,,64,0
34620,note_on,,2,0,2,,,,,,,,,1,,,67,95
34620,note_on,,2,0,1,,,,,,,,,0,,,83,95
34630,note_on,,10,0,2,,,,,,,,,1,,,67,0
34630,note_on,,10,0,1,,,,,,,,,0,,,83,0
34632,note_on,,2,0,1,,,,,,,,,0,,,78,95
34632,note_on,,2,0,2,,,,,,,,,1,,,62,95
34642,note_on,,10,0,1,,,,,,,,,0,,,78,0
34642,note_on,,10,0,2,,,,,,,,,1,,,62,0
34644,note_on,,2,0,2,,,,,,,,,1,,,67,95
34644,note_on,,2,0,1,,,,,,,,,0,,,83,95
34654,note_on,,10,0,1,,,,,,,,,0,,,83,0
34654,note_on,,10,0,2,,,,,,,,,1,,,67,0
34656,note_on,,2,0,1,,,,,,,,,0,,,76,95
34656,note_on,,2,0,2,,,,,,,,,1,,,61,95
34666,note_on,,10,0,1,,,,,,,,,0,,,76,0
34666,note_on,,10,0,2,,,,,,,,,1,,,61,0
34668,note_on,,2,0,1,,,,,,,,,0,,,83,95
34668,note_on,,2,0,2,,,,,,,,,1,,,67,95
34678,note_on,,10,0,1,,,,,,,,,0,,,83,0
34678,note_on,,10,0,2,,,,,,,,,1,,,67,0
34680,note_on,,2,0,1,,,,,,,,,0,,,74,95
34680,note_on,,2,0,2,,,,,,,,,1,,,59,95
34690,note_on,,10,0,2,,,,,,,,,1,,,59,0
34690,note_on,,10,0,1,,,,,,,,,0,,,74,0
34692,note_on,,2,0,2,,,,,,,,,1,,,67,95
34692,note_on,,2,0,1,,,,,,,,,0,,,83,95
34702,note_on,,10,0,2,,,,,,,,,1,,,67,0
34702,note_on,,10,0,1,,,,,,,,,0,,,83,0
34704,note_on,,2,0,2,,,,,,,,,1,,,57,95
34704,note_on,,2,0,1,,,,,,,,,0,,,73,95
34714,note_on,,10,0,2,,,,,,,,,1,,,57,0
34714,note_on,,10,0,1,,,,,,,,,0,,,73,0
34716,note_on,,2,0,2,,,,,,,,,1,,,67,95
34716,note_on,,2,0,1,,,,,,,,,0,,,83,95
34726,note_on,,10,0,1,,,,,,,,,0,,,83,0
34726,note_on,,10,0,2,,,,,,,,,1,,,67,0
34728,note_on,,2,0,1,,,,,,,,,0,,,71,95
34728,note_on,,2,0,2,,,,,,,,,1,,,55,95
34738,note_on,,10,0,1,,,,,,,,,0,,,71,0
34738,note_on,,10,0,2,,,,,,,,,1,,,55,0
34740,note_on,,2,0,2,,,,,,,,,1,,,67,95
34740,note_on,,2,0,1,,,,,,,,,0,,,83,95
34750,note_on,,10,0,2,,,,,,,,,1,,,67,0
34750,note_on,,10,0,1,,,,,,,,,0,,,83,0
34752,note_on,,2,0,1,,,,,,,,,0,,,69,95
34752,note_on,,2,0,2,,,,,,,,,1,,,54,95
34762,note_on,,10,0,1,,,,,,,,,0,,,69,0
34764,note_on,,2,0,1,,,,,,,,,0,,,81,95
34772,note_on,,20,0,2,,,,,,,,,1,,,54,0
34774,note_on,,10,0,1,,,,,,,,,0,,,81,0
34776,note_on,,4,0,2,,,,,,,,,1,,,55,95
34776,note_on,,2,0,1,,,,,,,,,0,,,79,95
34786,note_on,,10,0,1,,,,,,,,,0,,,79,0
34788,note_on,,2,0,1,,,,,,,,,0,,,81,95
34796,note_on,,20,0,2,,,,,,,,,1,,,55,0
34798,note_on,,10,0,1,,,,,,,,,0,,,81,0
34800,note_on,,2,0,1,,,,,,,,,0,,,78,95
34800,note_on,,4,0,2,,,,,,,,,1,,,57,95
34810,note_on,,10,0,1,,,,,,,,,0,,,78,0
34812,note_on,,2,0,1,,,,,,,,,0,,,81,95
34820,note_on,,20,0,2,,,,,,,,,1,,,57,0
34822,note_on,,10,0,1,,,,,,,,,0,,,81,0
34824,note_on,,4,0,2,,,,,,,,,1,,,55,95
34824,note_on,,2,0,1,,,,,,,,,0,,,76,95
34834,note_on,,10,0,2,,,,,,,,,1,,,55,0
34834,note_on,,10,0,1,,,,,,,,,0,,,76,0
34836,note_on,,2,0,2,,,,,,,,,1,,,54,95
34836,note_on,,2,0,1,,,,,,,,,0,,,81,95
34846,note_on,,10,0,2,,,,,,,,,1,,,54,0
34846,note_on,,10,0,1,,,,,,,,,0,,,81,0
34848,note_on,,2,0,1,,,,,,,,,0,,,74,95
34848,note_on,,2,0,2,,,,,,,,,1,,,59,95
34858,note_on,,10,0,2,,,,,,,,,1,,,59,0
34860,note_on,,2,0,2,,,,,,,,,1,,,66,95
34870,note_on,,10,0,2,,,,,,,,,1,,,66,0
34872,note_on,,2,0,2,,,,,,,,,1,,,61,95
34872,note_on,,24,0,1,,,,,,,,,0,,,73,95
34882,note_on,,10,0,2,,,,,,,,,1,,,61,0
34884,note_on,,2,0,2,,,,,,,,,1,,,66,95
34892,note_on,,20,0,1,,,,,,,,,0,,,73,0
34894,note_on,,10,0,2,,,,,,,,,1,,,66,0
34896,note_on,,4,0,1,,,,,,,,,0,,,71,95
34896,note_on,,2,0,2,,,,,,,,,1,,,62,95
34906,note_on,,10,0,2,,,,,,,,,1,,,62,0
34908,note_on,,2,0,2,,,,,,,,,1,,,66,95
34916,note_on,,20,0,1,,,,,,,,,0,,,71,0
34918,note_on,,10,0,2,,,,,,,,,1,,,66,0
34920,note_on,,2,0,2,,,,,,,,,1,,,61,95
34920,note_on,,4,0,1,,,,,,,,,0,,,69,95
34928,note_on,,8,0,1,,,,,,,,,0,,,74,0
34930,note_on,,10,0,2,,,,,,,,,1,,,61,0
34932,note_on,,2,0,2,,,,,,,,,1,,,59,95
34940,note_on,,12,0,1,,,,,,,,,0,,,69,0
34942,note_on,,10,0,2,,,,,,,,,1,,,59,0
34944,note_on,,2,0,2,,,,,,,,,1,,,64,95
34944,note_on,,4,0,1,,,,,,,,,0,,,67,95
34954,note_on,,10,0,1,,,,,,,,,0,,,67,0
34956,note_on,,2,0,1,,,,,,,,,0,,,79,95
34964,note_on,,20,0,2,,,,,,,,,1,,,64,0
34966,note_on,,10,0,1,,,,,,,,,0,,,79,0
34968,note_on,,2,0,1,,,,,,,,,0,,,78,95
34968,note_on,,4,0,2,,,,,,,,,1,,,54,95
34978,note_on,,10,0,1,,,,,,,,,0,,,78,0
34980,note_on,,2,0,1,,,,,,,,,0,,,79,95
34988,note_on,,20,0,2,,,,,,,,,1,,,54,0
34990,note_on,,10,0,1,,,,,,,,,0,,,79,0
34992,note_on,,4,0,2,,,,,,,,,1,,,55,95
34992,note_on,,2,0,1,,,,,,,,,0,,,76,95
35002,note_on,,10,0,1,,,,,,,,,0,,,76,0
35004,note_on,,2,0,1,,,,,,,,,0,,,79,95
35012,note_on,,20,0,2,,,,,,,,,1,,,55,0
35014,note_on,,10,0,1,,,,,,,,,0,,,79,0
35016,note_on,,4,0,2,,,,,,,,,1,,,54,95
35016,note_on,,2,0,1,,,,,,,,,0,,,74,95
35026,note_on,,10,0,2,,,,,,,,,1,,,54,0
35026,note_on,,10,0,1,,,,,,,,,0,,,74,0
35028,note_on,,2,0,1,,,,,,,,,0,,,79,95
35028,note_on,,2,0,2,,,,,,,,,1,,,52,95
35038,note_on,,10,0,1,,,,,,,,,0,,,79,0
35038,note_on,,10,0,2,,,,,,,,,1,,,52,0
35040,note_on,,2,0,2,,,,,,,,,1,,,57,95
35040,note_on,,2,0,1,,,,,,,,,0,,,73,95
35050,note_on,,10,0,2,,,,,,,,,1,,,57,0
35052,note_on,,2,0,2,,,,,,,,,1,,,64,95
35062,note_on,,10,0,2,,,,,,,,,1,,,64,0
35064,note_on,,2,0,2,,,,,,,,,1,,,59,95
35064,note_on,,24,0,1,,,,,,,,,0,,,83,95
35074,note_on,,10,0,2,,,,,,,,,1,,,59,0
35076,note_on,,2,0,2,,,,,,,,,1,,,64,95
35084,note_on,,20,0,1,,,,,,,,,0,,,83,0
35086,note_on,,10,0,2,,,,,,,,,1,,,64,0
35088,note_on,,4,0,1,,,,,,,,,0,,,81,95
35088,note_on,,2,0,2,,,,,,,,,1,,,61,95
35098,note_on,,10,0,2,,,,,,,,,1,,,61,0
35100,note_on,,2,0,2,,,,,,,,,1,,,64,95
35108,note_on,,20,0,1,,,,,,,,,0,,,81,0
35110,note_on,,10,0,2,,,,,,,,,1,,,64,0
35112,note_on,,2,0,2,,,,,,,,,1,,,59,95
35112,note_on,,4,0,1,,,,,,,,,0,,,79,95
35120,note_on,,8,0,1,,,,,,,,,0,,,73,0
35122,note_on,,10,0,2,,,,,,,,,1,,,59,0
35124,note_on,,2,0,2,,,,,,,,,1,,,57,95
35132,note_on,,12,0,1,,,,,,,,,0,,,79,0
35134,note_on,,10,0,2,,,,,,,,,1,,,57,0
35136,note_on,,4,0,1,,,,,,,,,0,,,78,95
35136,note_on,,2,0,2,,,,,,,,,1,,,62,95
35146,note_on,,10,0,1,,,,,,,,,0,,,78,0
35148,note_on,,2,0,1,,,,,,,,,0,,,69,95
35156,note_on,,20,0,2,,,,,,,,,1,,,62,0
35158,note_on,,10,0,1,,,,,,,,,0,,,69,0
35160,note_on,,4,0,2,,,,,,,,,1,,,64,95
35160,note_on,,2,0,1,,,,,,,,,0,,,74,95
35170,note_on,,10,0,1,,,,,,,,,0,,,74,0
35172,note_on,,2,0,1,,,,,,,,,0,,,76,95
35180,note_on,,20,0,2,,,,,,,,,1,,,64,0
35182,note_on,,10,0,1,,,,,,,,,0,,,76,0
35184,note_on,,4,0,2,,,,,,,,,1,,,62,95
35184,note_on,,2,0,1,,,,,,,,,0,,,78,95
35194,note_on,,10,0,1,,,,,,,,,0,,,78,0
35196,note_on,,2,0,1,,,,,,,,,0,,,69,95
35204,note_on,,20,0,2,,,,,,,,,1,,,62,0
35206,note_on,,10,0,1,,,,,,,,,0,,,69,0
35208,note_on,,2,0,1,,,,,,,,,0,,,74,95
35208,note_on,,4,0,2,,,,,,,,,1,,,60,95
35218,note_on,,10,0,1,,,,,,,,,0,,,74,0
35220,note_on,,2,0,1,,,,,,,,,0,,,76,95
35228,note_on,,20,0,2,,,,,,,,,1,,,60,0
35230,note_on,,10,0,1,,,,,,,,,0,,,76,0
35232,note_on,,4,0,2,,,,,,,,,1,,,59,95
35232,note_on,,2,0,1,,,,,,,,,0,,,78,95
35242,note_on,,10,0,1,,,,,,,,,0,,,78,0
35244,note_on,,2,0,1,,,,,,,,,0,,,69,95
35252,note_on,,20,0,2,,,,,,,,,1,,,59,0
35254,note_on,,10,0,1,,,,,,,,,0,,,69,0
35256,note_on,,4,0,2,,,,,,,,,1,,,57,95
35256,note_on,,2,0,1,,,,,,,,,0,,,74,95
35266,note_on,,10,0,1,,,,,,,,,0,,,74,0
35268,note_on,,2,0,1,,,,,,,,,0,,,76,95
35276,note_on,,20,0,2,,,,,,,,,1,,,57,0
35278,note_on,,10,0,1,,,,,,,,,0,,,76,0
35280,note_on,,2,0,1,,,,,,,,,0,,,78,95
35280,note_on,,4,0,2,,,,,,,,,1,,,55,95
35290,note_on,,10,0,1,,,,,,,,,0,,,78,0
35292,note_on,,2,0,1,,,,,,,,,0,,,69,95
35300,note_on,,20,0,2,,,,,,,,,1,,,55,0
35302,note_on,,10,0,1,,,,,,,,,0,,,69,0
35304,note_on,,2,0,1,,,,,,,,,0,,,74,95
35304,note_on,,4,0,2,,,,,,,,,1,,,54,95
35314,note_on,,10,0,1,,,,,,,,,0,,,74,0
35316,note_on,,2,0,1,,,,,,,,,0,,,76,95
35324,note_on,,20,0,2,,,,,,,,,1,,,54,0
35326,note_on,,10,0,1,,,,,,,,,0,,,76,0
35328,note_on,,2,0,1,,,,,,,,,0,,,71,95
35328,note_on,,4,0,2,,,,,,,,,1,,,55,95
35338,note_on,,10,0,1,,,,,,,,,0,,,71,0
35340,note_on,,2,0,1,,,,,,,,,0,,,74,95
35348,note_on,,20,0,2,,,,,,,,,1,,,55,0
35350,note_on,,10,0,1,,,,,,,,,0,,,74,0
35352,note_on,,2,0,1,,,,,,,,,0,,,78,95
35352,note_on,,4,0,2,,,,,,,,,1,,,57,95
35362,note_on,,10,0,1,,,,,,,,,0,,,78,0
35364,note_on,,2,0,1,,,,,,,,,0,,,69,95
35372,note_on,,20,0,2,,,,,,,,,1,,,57,0
35374,note_on,,10,0,1,,,,,,,,,0,,,69,0
35376,note_on,,2,0,1,,,,,,,,,0,,,71,95
35376,note_on,,4,0,2,,,,,,,,,1,,,55,95
35386,note_on,,10,0,1,,,,,,,,,0,,,71,0
35388,note_on,,2,0,1,,,,,,,,,0,,,74,95
35396,note_on,,20,0,2,,,,,,,,,1,,,55,0
35398,note_on,,10,0,1,,,,,,,,,0,,,74,0
35400,note_on,,4,0,2,,,,,,,,,1,,,54,95
35400,note_on,,2,0,1,,,,,,,,,0,,,78,95
35410,note_on,,10,0,1,,,,,,,,,0,,,78,0
35412,note_on,,2,0,1,,,,,,,,,0,,,69,95
35420,note_on,,20,0,2,,,,,,,,,1,,,54,0
35422,note_on,,10,0,1,,,,,,,,,0,,,69,0
35424,note_on,,2,0,1,,,,,,,,,0,,,67,95
35424,note_on,,4,0,2,,,,,,,,,1,,,52,95
35434,note_on,,10,0,1,,,,,,,,,0,,,67,0
35436,note_on,,2,0,1,,,,,,,,,0,,,71,95
35444,note_on,,20,0,2,,,,,,,,,1,,,52,0
35446,note_on,,10,0,1,,,,,,,,,0,,,71,0
35448,note_on,,2,0,1,,,,,,,,,0,,,76,95
35448,note_on,,4,0,2,,,,,,,,,1,,,50,95
35458,note_on,,10,0,1,,,,,,,,,0,,,76,0
35460,note_on,,2,0,1,,,,,,,,,0,,,66,95
35468,note_on,,20,0,2,,,,,,,,,1,,,50,0
35470,note_on,,10,0,1,,,,,,,,,0,,,66,0
35472,note_on,,4,0,2,,,,,,,,,1,,,49,95
35472,note_on,,2,0,1,,,,,,,,,0,,,67,95
35482,note_on,,10,0,1,,,,,,,,,0,,,67,0
35484,note_on,,2,0,1,,,,,,,,,0,,,71,95
35492,note_on,,20,0,2,,,,,,,,,1,,,49,0
35494,note_on,,10,0,1,,,,,,,,,0,,,71,0
35496,note_on,,2,0,1,,,,,,,,,0,,,74,95
35496,note_on,,4,0,2,,,,,,,,,1,,,47,95
35506,note_on,,10,0,1,,,,,,,,,0,,,74,0
35508,note_on,,2,0,1,,,,,,,,,0,,,64,95
35516,note_on,,20,0,2,,,,,,,,,1,,,47,0
35518,note_on,,10,0,1,,,,,,,,,0,,,64,0
35520,note_on,,2,0,1,,,,,,,,,0,,,67,95
35520,note_on,,4,0,2,,,,,,,,,1,,,45,95
35530,note_on,,10,0,1,,,,,,,,,0,,,67,0
35532,note_on,,2,0,1,,,,,,,,,0,,,69,95
35540,note_on,,20,0,2,,,,,,,,,1,,,45,0
35542,note_on,,10,0,1,,,,,,,,,0,,,69,0
35544,note_on,,4,0,2,,,,,,,,,1,,,59,95
35544,note_on,,2,0,1,,,,,,,,,0,,,73,95
35554,note_on,,10,0,1,,,,,,,,,0,,,73,0
35556,note_on,,2,0,1,,,,,,,,,0,,,66,95
35564,note_on,,20,0,2,,,,,,,,,1,,,59,0
35566,note_on,,10,0,1,,,,,,,,,0,,,66,0
35568,note_on,,4,0,2,,,,,,,,,1,,,57,95
35568,note_on,,2,0,1,,,,,,,,,0,,,67,95
35578,note_on,,10,0,1,,,,,,,,,0,,,67,0
35580,note_on,,2,0,1,,,,,,,,,0,,,69,95
35588,note_on,,20,0,2,,,,,,,,,1,,,57,0
35590,note_on,,10,0,1,,,,,,,,,0,,,69,0
35592,note_on,,4,0,2,,,,,,,,,1,,,55,95
35592,note_on,,2,0,1,,,,,,,,,0,,,73,95
35602,note_on,,10,0,1,,,,,,,,,0,,,73,0
35604,note_on,,2,0,1,,,,,,,,,0,,,66,95
35612,note_on,,20,0,2,,,,,,,,,1,,,55,0
35614,note_on,,10,0,1,,,,,,,,,0,,,66,0
35616,note_on,,4,0,2,,,,,,,,,1,,,54,95
35616,note_on,,2,0,1,,,,,,,,,0,,,67,95
35626,note_on,,10,0,1,,,,,,,,,0,,,67,0
35628,note_on,,2,0,1,,,,,,,,,0,,,69,95
35636,note_on,,20,0,2,,,,,,,,,1,,,54,0
35638,note_on,,10,0,1,,,,,,,,,0,,,69,0
35640,note_on,,4,0,2,,,,,,,,,1,,,52,95
35640,note_on,,2,0,1,,,,,,,,,0,,,73,95
35650,note_on,,10,0,1,,,,,,,,,0,,,73,0
35652,note_on,,2,0,1,,,,,,,,,0,,,66,95
35660,note_on,,20,0,2,,,,,,,,,1,,,52,0
35662,note_on,,10,0,1,,,,,,,,,0,,,66,0
35664,note_on,,2,0,1,,,,,,,,,0,,,67,95
35664,note_on,,4,0,2,,,,,,,,,1,,,50,95
35674,note_on,,10,0,1,,,,,,,,,0,,,67,0
35676,note_on,,2,0,1,,,,,,,,,0,,,69,95
35684,note_on,,20,0,2,,,,,,,,,1,,,50,0
35686,note_on,,10,0,1,,,,,,,,,0,,,69,0
35688,note_on,,4,0,2,,,,,,,,,1,,,49,95
35688,note_on,,2,0,1,,,,,,,,,0,,,73,95
35698,note_on,,10,0,1,,,,,,,,,0,,,73,0
35700,note_on,,2,0,1,,,,,,,,,0,,,64,95
35708,note_on,,20,0,2,,,,,,,,,1,,,49,0
35710,note_on,,10,0,1,,,,,,,,,0,,,64,0
35712,note_on,,2,0,1,,,,,,,,,0,,,66,95
35712,note_on,,4,0,2,,,,,,,,,1,,,47,95
35722,note_on,,10,0,1,,,,,,,,,0,,,66,0
35724,note_on,,2,0,1,,,,,,,,,0,,,69,95
35732,note_on,,20,0,2,,,,,,,,,1,,,47,0
35734,note_on,,10,0,1,,,,,,,,,0,,,69,0
35736,note_on,,4,0,2,,,,,,,,,1,,,49,95
35736,note_on,,2,0,1,,,,,,,,,0,,,74,95
35746,note_on,,10,0,1,,,,,,,,,0,,,74,0
35748,note_on,,2,0,1,,,,,,,,,0,,,64,95
35756,note_on,,20,0,2,,,,,,,,,1,,,49,0
35758,note_on,,10,0,1,,,,,,,,,0,,,64,0
35760,note_on,,2,0,1,,,,,,,,,0,,,66,95
35760,note_on,,4,0,2,,,,,,,,,1,,,50,95
35770,note_on,,10,0,1,,,,,,,,,0,,,66,0
35772,note_on,,2,0,1,,,,,,,,,0,,,69,95
35780,note_on,,20,0,2,,,,,,,,,1,,,50,0
35782,note_on,,10,0,1,,,,,,,,,0,,,69,0
35784,note_on,,4,0,2,,,,,,,,,1,,,49,95
35784,note_on,,2,0,1,,,,,,,,,0,,,74,95
35794,note_on,,10,0,1,,,,,,,,,0,,,74,0
35796,note_on,,2,0,1,,,,,,,,,0,,,62,95
35804,note_on,,20,0,2,,,,,,,,,1,,,49,0
35806,note_on,,10,0,1,,,,,,,,,0,,,62,0
35808,note_on,,2,0,1,,,,,,,,,0,,,66,95
35808,note_on,,4,0,2,,,,,,,,,1,,,47,95
35818,note_on,,10,0,1,,,,,,,,,0,,,66,0
35820,note_on,,2,0,1,,,,,,,,,0,,,69,95
35828,note_on,,20,0,2,,,,,,,,,1,,,47,0
35830,note_on,,10,0,1,,,,,,,,,0,,,69,0
35832,note_on,,2,0,1,,,,,,,,,0,,,74,95
35832,note_on,,4,0,2,,,,,,,,,1,,,45,95
35842,note_on,,10,0,1,,,,,,,,,0,,,74,0
35844,note_on,,2,0,1,,,,,,,,,0,,,64,95
35852,note_on,,20,0,2,,,,,,,,,1,,,45,0
35854,note_on,,10,0,1,,,,,,,,,0,,,64,0
35856,note_on,,4,0,2,,,,,,,,,1,,,44,95
35856,note_on,,2,0,1,,,,,,,,,0,,,66,95
35866,note_on,,10,0,1,,,,,,,,,0,,,66,0
35868,note_on,,2,0,1,,,,,,,,,0,,,69,95
35876,note_on,,20,0,2,,,,,,,,,1,,,44,0
35878,note_on,,10,0,1,,,,,,,,,0,,,69,0
35880,note_on,,4,0,2,,,,,,,,,1,,,42,95
35880,note_on,,2,0,1,,,,,,,,,0,,,74,95
35890,note_on,,10,0,1,,,,,,,,,0,,,74,0
35892,note_on,,2,0,1,,,,,,,,,0,,,62,95
35900,note_on,,20,0,2,,,,,,,,,1,,,42,0
35902,note_on,,10,0,1,,,,,,,,,0,,,62,0
35904,note_on,,2,0,1,,,,,,,,,0,,,68,95
35904,note_on,,4,0,2,,,,,,,,,1,,,40,95
35914,note_on,,10,0,1,,,,,,,,,0,,,68,0
35916,note_on,,2,0,1,,,,,,,,,0,,,71,95
35924,note_on,,20,0,2,,,,,,,,,1,,,40,0
35926,note_on,,10,0,1,,,,,,,,,0,,,71,0
35928,note_on,,2,0,1,,,,,,,,,0,,,74,95
35928,note_on,,4,0,2,,,,,,,,,1,,,57,95
35938,note_on,,10,0,1,,,,,,,,,0,,,74,0
35940,note_on,,2,0,1,,,,,,,,,0,,,66,95
35948,note_on,,20,0,2,,,,,,,,,1,,,57,0
35950,note_on,,10,0,1,,,,,,,,,0,,,66,0
35952,note_on,,2,0,1,,,,,,,,,0,,,68,95
35952,note_on,,4,0,2,,,,,,,,,1,,,56,95
35962,note_on,,10,0,1,,,,,,,,,0,,,68,0
35964,note_on,,2,0,1,,,,,,,,,0,,,71,95
35972,note_on,,20,0,2,,,,,,,,,1,,,56,0
35974,note_on,,10,0,1,,,,,,,,,0,,,71,0
35976,note_on,,2,0,1,,,,,,,,,0,,,74,95
35976,note_on,,4,0,2,,,,,,,,,1,,,54,95
35986,note_on,,10,0,1,,,,,,,,,0,,,74,0
35988,note_on,,2,0,1,,,,,,,,,0,,,64,95
35996,note_on,,20,0,2,,,,,,,,,1,,,54,0
35998,note_on,,10,0,1,,,,,,,,,0,,,64,0
36000,note_on,,2,0,1,,,,,,,,,0,,,68,95
36000,note_on,,4,0,2,,,,,,,,,1,,,52,95
36010,note_on,,10,0,1,,,,,,,,,0,,,68,0
36012,note_on,,2,0,1,,,,,,,,,0,,,71,95
36020,note_on,,20,0,2,,,,,,,,,1,,,52,0
36022,note_on,,10,0,1,,,,,,,,,0,,,71,0
36024,note_on,,4,0,2,,,,,,,,,1,,,50,95
36024,note_on,,2,0,1,,,,,,,,,0,,,74,95
36034,note_on,,10,0,1,,,,,,,,,0,,,74,0
36036,note_on,,2,0,1,,,,,,,,,0,,,66,95
36044,note_on,,20,0,2,,,,,,,,,1,,,50,0
36046,note_on,,10,0,1,,,,,,,,,0,,,66,0
36048,note_on,,2,0,1,,,,,,,,,0,,,68,95
36048,note_on,,4,0,2,,,,,,,,,1,,,49,95
36058,note_on,,10,0,1,,,,,,,,,0,,,68,0
36060,note_on,,2,0,1,,,,,,,,,0,,,71,95
36068,note_on,,20,0,2,,,,,,,,,1,,,49,0
36070,note_on,,10,0,1,,,,,,,,,0,,,71,0
36072,note_on,,2,0,1,,,,,,,,,0,,,74,95
36072,note_on,,4,0,2,,,,,,,,,1,,,47,95
36082,note_on,,10,0,1,,,,,,,,,0,,,74,0
36084,note_on,,2,0,1,,,,,,,,,0,,,64,95
36092,note_on,,20,0,2,,,,,,,,,1,,,47,0
36094,note_on,,10,0,1,,,,,,,,,0,,,64,0
36096,note_on,,2,0,1,,,,,,,,,0,,,69,95
36096,note_on,,4,0,2,,,,,,,,,1,,,45,95
36106,note_on,,10,0,1,,,,,,,,,0,,,69,0
36108,note_on,,2,0,1,,,,,,,,,0,,,71,95
36118,note_on,,10,0,1,,,,,,,,,0,,,71,0
36120,note_on,,2,0,1,,,,,,,,,0,,,73,95
36120,note_on,,24,0,2,,,,,,,,,1,,,52,95
36130,note_on,,10,0,1,,,,,,,,,0,,,73,0
36132,note_on,,2,0,1,,,,,,,,,0,,,67,95
36140,note_on,,20,0,2,,,,,,,,,1,,,52,0
36142,note_on,,10,0,1,,,,,,,,,0,,,67,0
36144,note_on,,4,0,2,,,,,,,,,1,,,50,95
36144,note_on,,2,0,1,,,,,,,,,0,,,66,95
36154,note_on,,10,0,1,,,,,,,,,0,,,66,0
36156,note_on,,2,0,1,,,,,,,,,0,,,69,95
36164,note_on,,20,0,2,,,,,,,,,1,,,50,0
36166,note_on,,10,0,1,,,,,,,,,0,,,69,0
36168,note_on,,2,0,1,,,,,,,,,0,,,74,95
36168,note_on,,4,0,2,,,,,,,,,1,,,54,95
36176,note_on,,8,0,2,,,,,,,,,1,,,45,0
36178,note_on,,10,0,1,,,,,,,,,0,,,74,0
36180,note_on,,2,0,1,,,,,,,,,0,,,62,95
36188,note_on,,12,0,2,,,,,,,,,1,,,54,0
36190,note_on,,10,0,1,,,,,,,,,0,,,62,0
36192,note_on,,2,0,1,,,,,,,,,0,,,69,95
36192,note_on,,4,0,2,,,,,,,,,1,,,45,95
36202,note_on,,10,0,1,,,,,,,,,0,,,69,0
36204,note_on,,2,0,1,,,,,,,,,0,,,71,95
36214,note_on,,10,0,1,,,,,,,,,0,,,71,0
36216,note_on,,2,0,1,,,,,,,,,0,,,73,95
36216,note_on,,24,0,2,,,,,,,,,1,,,52,95
36226,note_on,,10,0,1,,,,,,,,,0,,,73,0
36228,note_on,,2,0,1,,,,,,,,,0,,,67,95
36236,note_on,,20,0,2,,,,,,,,,1,,,52,0
36238,note_on,,10,0,1,,,,,,,,,0,,,67,0
36240,note_on,,2,0,1,,,,,,,,,0,,,66,95
36240,note_on,,4,0,2,,,,,,,,,1,,,50,95
36250,note_on,,10,0,1,,,,,,,,,0,,,66,0
36252,note_on,,2,0,1,,,,,,,,,0,,,69,95
36260,note_on,,20,0,2,,,,,,,,,1,,,50,0
36262,note_on,,10,0,1,,,,,,,,,0,,,69,0
36264,note_on,,2,0,1,,,,,,,,,0,,,74,95
36264,note_on,,4,0,2,,,,,,,,,1,,,54,95
36272,note_on,,8,0,2,,,,,,,,,1,,,45,0
36274,note_on,,10,0,1,,,,,,,,,0,,,74,0
36276,note_on,,2,0,1,,,,,,,,,0,,,62,95
36284,note_on,,12,0,2,,,,,,,,,1,,,54,0
36286,note_on,,10,0,1,,,,,,,,,0,,,62,0
36288,note_on,,2,0,1,,,,,,,,,0,,,69,95
36288,note_on,,4,0,2,,,,,,,,,1,,,45,95
36298,note_on,,10,0,1,,,,,,,,,0,,,69,0
36300,note_on,,2,0,1,,,,,,,,,0,,,71,95
36310,note_on,,10,0,1,,,,,,,,,0,,,71,0
36312,note_on,,24,0,2,,,,,,,,,1,,,52,95
36312,note_on,,2,0,1,,,,,,,,,0,,,73,95
36322,note_on,,10,0,1,,,,,,,,,0,,,73,0
36324,note_on,,2,0,1,,,,,,,,,0,,,67,95
36332,note_on,,20,0,2,,,,,,,,,1,,,52,0
36334,note_on,,10,0,1,,,,,,,,,0,,,67,0
36336,note_on,,2,0,1,,,,,,,,,0,,,66,95
36336,note_on,,4,0,2,,,,,,,,,1,,,50,95
36346,note_on,,10,0,1,,,,,,,,,0,,,66,0
36348,note_on,,2,0,1,,,,,,,,,0,,,69,95
36356,note_on,,20,0,2,,,,,,,,,1,,,50,0
36358,note_on,,10,0,1,,,,,,,,,0,,,69,0
36360,note_on,,2,0,1,,,,,,,,,0,,,74,95
36360,note_on,,4,0,2,,,,,,,,,1,,,55,95
36368,note_on,,8,0,2,,,,,,,,,1,,,45,0
36370,note_on,,10,0,1,,,,,,,,,0,,,74,0
36372,note_on,,2,0,1,,,,,,,,,0,,,73,95
36380,note_on,,12,0,2,,,,,,,,,1,,,55,0
36382,note_on,,10,0,1,,,,,,,,,0,,,73,0
36384,note_on,,4,0,2,,,,,,,,,1,,,45,95
36384,note_on,,2,0,1,,,,,,,,,0,,,71,95
36394,note_on,,10,0,1,,,,,,,,,0,,,71,0
36396,note_on,,2,0,1,,,,,,,,,0,,,73,95
36406,note_on,,10,0,1,,,,,,,,,0,,,73,0
36408,note_on,,24,0,2,,,,,,,,,1,,,54,95
36408,note_on,,2,0,1,,,,,,,,,0,,,74,95
36418,note_on,,10,0,1,,,,,,,,,0,,,74,0
36420,note_on,,2,0,1,,,,,,,,,0,,,69,95
36428,note_on,,20,0,2,,,,,,,,,1,,,54,0
36430,note_on,,10,0,1,,,,,,,,,0,,,69,0
36432,note_on,,4,0,2,,,,,,,,,1,,,52,95
36432,note_on,,2,0,1,,,,,,,,,0,,,67,95
36442,note_on,,10,0,1,,,,,,,,,0,,,67,0
36444,note_on,,2,0,1,,,,,,,,,0,,,71,95
36452,note_on,,20,0,2,,,,,,,,,1,,,52,0
36454,note_on,,10,0,1,,,,,,,,,0,,,71,0
36456,note_on,,2,0,1,,,,,,,,,0,,,76,95
36456,note_on,,4,0,2,,,,,,,,,1,,,55,95
36464,note_on,,8,0,2,,,,,,,,,1,,,45,0
36466,note_on,,10,0,1,,,,,,,,,0,,,76,0
36468,note_on,,2,0,1,,,,,,,,,0,,,74,95
36476,note_on,,12,0,2,,,,,,,,,1,,,55,0
36478,note_on,,10,0,1,,,,,,,,,0,,,74,0
36480,note_on,,2,0,1,,,,,,,,,0,,,73,95
36480,note_on,,4,0,2,,,,,,,,,1,,,45,95
36490,note_on,,10,0,1,,,,,,,,,0,,,73,0
36492,note_on,,2,0,1,,,,,,,,,0,,,74,95
36502,note_on,,10,0,1,,,,,,,,,0,,,74,0
36504,note_on,,2,0,1,,,,,,,,,0,,,76,95
36504,note_on,,24,0,2,,,,,,,,,1,,,55,95
36514,note_on,,10,0,1,,,,,,,,,0,,,76,0
36516,note_on,,2,0,1,,,,,,,,,0,,,71,95
36524,note_on,,20,0,2,,,,,,,,,1,,,55,0
36526,note_on,,10,0,1,,,,,,,,,0,,,71,0
36528,note_on,,4,0,2,,,,,,,,,1,,,54,95
36528,note_on,,2,0,1,,,,,,,,,0,,,69,95
36538,note_on,,10,0,1,,,,,,,,,0,,,69,0
36540,note_on,,2,0,1,,,,,,,,,0,,,73,95
36548,note_on,,20,0,2,,,,,,,,,1,,,54,0
36550,note_on,,10,0,1,,,,,,,,,0,,,73,0
36552,note_on,,4,0,2,,,,,,,,,1,,,57,95
36552,note_on,,2,0,1,,,,,,,,,0,,,78,95
36560,note_on,,8,0,2,,,,,,,,,1,,,45,0
36562,note_on,,10,0,1,,,,,,,,,0,,,78,0
36564,note_on,,2,0,1,,,,,,,,,0,,,76,95
36572,note_on,,12,0,2,,,,,,,,,1,,,57,0
36574,note_on,,10,0,1,,,,,,,,,0,,,76,0
36576,note_on,,4,0,2,,,,,,,,,1,,,45,95
36576,note_on,,2,0,1,,,,,,,,,0,,,74,95
36586,note_on,,10,0,1,,,,,,,,,0,,,74,0
36588,note_on,,2,0,1,,,,,,,,,0,,,76,95
36598,note_on,,10,0,1,,,,,,,,,0,,,76,0
36600,note_on,,24,0,2,,,,,,,,,1,,,57,95
36600,note_on,,2,0,1,,,,,,,,,0,,,78,95
36610,note_on,,10,0,1,,,,,,,,,0,,,78,0
36612,note_on,,2,0,1,,,,,,,,,0,,,73,95
36620,note_on,,20,0,2,,,,,,,,,1,,,57,0
36622,note_on,,10,0,1,,,,,,,,,0,,,73,0
36624,note_on,,4,0,2,,,,,,,,,1,,,55,95
36624,note_on,,2,0,1,,,,,,,,,0,,,71,95
36634,note_on,,10,0,1,,,,,,,,,0,,,71,0
36636,note_on,,2,0,1,,,,,,,,,0,,,74,95
36644,note_on,,20,0,2,,,,,,,,,1,,,55,0
36646,note_on,,10,0,1,,,,,,,,,0,,,74,0
36648,note_on,,4,0,2,,,,,,,,,1,,,59,95
36648,note_on,,2,0,1,,,,,,,,,0,,,79,95
36656,note_on,,8,0,2,,,,,,,,,1,,,45,0
36658,note_on,,10,0,1,,,,,,,,,0,,,79,0
36660,note_on,,2,0,1,,,,,,,,,0,,,78,95
36668,note_on,,12,0,2,,,,,,,,,1,,,59,0
36670,note_on,,10,0,1,,,,,,,,,0,,,78,0
36672,note_on,,4,0,2,,,,,,,,,1,,,45,95
36672,note_on,,2,0,1,,,,,,,,,0,,,76,95
36682,note_on,,10,0,1,,,,,,,,,0,,,76,0
36684,note_on,,2,0,1,,,,,,,,,0,,,78,95
36694,note_on,,10,0,1,,,,,,,,,0,,,78,0
36696,note_on,,2,0,1,,,,,,,,,0,,,79,95
36696,note_on,,24,0,2,,,,,,,,,1,,,59,95
36706,note_on,,10,0,1,,,,,,,,,0,,,79,0
36708,note_on,,2,0,1,,,,,,,,,0,,,74,95
36716,note_on,,20,0,2,,,,,,,,,1,,,59,0
36718,note_on,,10,0,1,,,,,,,,,0,,,74,0
36720,note_on,,2,0,1,,,,,,,,,0,,,73,95
36720,note_on,,4,0,2,,,,,,,,,1,,,57,95
36730,note_on,,10,0,1,,,,,,,,,0,,,73,0
36732,note_on,,2,0,1,,,,,,,,,0,,,76,95
36740,note_on,,20,0,2,,,,,,,,,1,,,57,0
36742,note_on,,10,0,1,,,,,,,,,0,,,76,0
36744,note_on,,2,0,1,,,,,,,,,0,,,81,95
36744,note_on,,4,0,2,,,,,,,,,1,,,61,95
36752,note_on,,8,0,2,,,,,,,,,1,,,45,0
36754,note_on,,10,0,1,,,,,,,,,0,,,81,0
36756,note_on,,2,0,1,,,,,,,,,0,,,79,95
36764,note_on,,12,0,2,,,,,,,,,1,,,61,0
36766,note_on,,10,0,1,,,,,,,,,0,,,79,0
36768,note_on,,2,0,1,,,,,,,,,0,,,78,95
36768,note_on,,4,0,2,,,,,,,,,1,,,45,95
36778,note_on,,10,0,1,,,,,,,,,0,,,78,0
36780,note_on,,2,0,1,,,,,,,,,0,,,79,95
36790,note_on,,10,0,1,,,,,,,,,0,,,79,0
36792,note_on,,24,0,2,,,,,,,,,1,,,61,95
36792,note_on,,2,0,1,,,,,,,,,0,,,81,95
36802,note_on,,10,0,1,,,,,,,,,0,,,81,0
36804,note_on,,2,0,1,,,,,,,,,0,,,76,95
36812,note_on,,20,0,2,,,,,,,,,1,,,61,0
36814,note_on,,10,0,1,,,,,,,,,0,,,76,0
36816,note_on,,2,0,1,,,,,,,,,0,,,74,95
36816,note_on,,4,0,2,,,,,,,,,1,,,59,95
36826,note_on,,10,0,1,,,,,,,,,0,,,74,0
36828,note_on,,2,0,1,,,,,,,,,0,,,78,95
36836,note_on,,20,0,2,,,,,,,,,1,,,59,0
36838,note_on,,10,0,1,,,,,,,,,0,,,78,0
36840,note_on,,2,0,1,,,,,,,,,0,,,83,95
36840,note_on,,4,0,2,,,,,,,,,1,,,62,95
36848,note_on,,8,0,2,,,,,,,,,1,,,45,0
36850,note_on,,10,0,1,,,,,,,,,0,,,83,0
36852,note_on,,2,0,1,,,,,,,,,0,,,81,95
36860,note_on,,12,0,2,,,,,,,,,1,,,62,0
36862,note_on,,10,0,1,,,,,,,,,0,,,81,0
36864,note_on,,2,0,1,,,,,,,,,0,,,76,95
36864,note_on,,4,0,2,,,,,,,,,1,,,45,95
36874,note_on,,10,0,1,,,,,,,,,0,,,76,0
36876,note_on,,2,0,1,,,,,,,,,0,,,78,95
36886,note_on,,10,0,1,,,,,,,,,0,,,78,0
36888,note_on,,2,0,1,,,,,,,,,0,,,79,95
36888,note_on,,24,0,2,,,,,,,,,1,,,59,95
36898,note_on,,10,0,1,,,,,,,,,0,,,79,0
36900,note_on,,2,0,1,,,,,,,,,0,,,74,95
36908,note_on,,20,0,2,,,,,,,,,1,,,59,0
36910,note_on,,10,0,1,,,,,,,,,0,,,74,0
36912,note_on,,4,0,2,,,,,,,,,1,,,57,95
36912,note_on,,2,0,1,,,,,,,,,0,,,73,95
36922,note_on,,10,0,1,,,,,,,,,0,,,73,0
36924,note_on,,2,0,1,,,,,,,,,0,,,76,95
36932,note_on,,20,0,2,,,,,,,,,1,,,57,0
36934,note_on,,10,0,1,,,,,,,,,0,,,76,0
36936,note_on,,2,0,1,,,,,,,,,0,,,81,95
36936,note_on,,4,0,2,,,,,,,,,1,,,61,95
36944,note_on,,8,0,2,,,,,,,,,1,,,45,0
36946,note_on,,10,0,1,,,,,,,,,0,,,81,0
36948,note_on,,2,0,1,,,,,,,,,0,,,79,95
36956,note_on,,12,0,2,,,,,,,,,1,,,61,0
36958,note_on,,10,0,1,,,,,,,,,0,,,79,0
36960,note_on,,2,0,1,,,,,,,,,0,,,74,95
36960,note_on,,4,0,2,,,,,,,,,1,,,45,95
36970,note_on,,10,0,1,,,,,,,,,0,,,74,0
36972,note_on,,2,0,1,,,,,,,,,0,,,76,95
36982,note_on,,10,0,1,,,,,,,,,0,,,76,0
36984,note_on,,24,0,2,,,,,,,,,1,,,57,95
36984,note_on,,2,0,1,,,,,,,,,0,,,78,95
36994,note_on,,10,0,1,,,,,,,,,0,,,78,0
36996,note_on,,2,0,1,,,,,,,,,0,,,73,95
37004,note_on,,20,0,2,,,,,,,,,1,,,57,0
37006,note_on,,10,0,1,,,,,,,,,0,,,73,0
37008,note_on,,2,0,1,,,,,,,,,0,,,71,95
37008,note_on,,4,0,2,,,,,,,,,1,,,55,95
37018,note_on,,10,0,1,,,,,,,,,0,,,71,0
37020,note_on,,2,0,1,,,,,,,,,0,,,74,95
37028,note_on,,20,0,2,,,,,,,,,1,,,55,0
37030,note_on,,10,0,1,,,,,,,,,0,,,74,0
37032,note_on,,2,0,1,,,,,,,,,0,,,79,95
37032,note_on,,4,0,2,,,,,,,,,1,,,59,95
37040,note_on,,8,0,2,,,,,,,,,1,,,45,0
37042,note_on,,10,0,1,,,,,,,,,0,,,79,0
37044,note_on,,2,0,1,,,,,,,,,0,,,78,95
37052,note_on,,12,0,2,,,,,,,,,1,,,59,0
37054,note_on,,10,0,1,,,,,,,,,0,,,78,0
37056,note_on,,4,0,2,,,,,,,,,1,,,45,95
37056,note_on,,2,0,1,,,,,,,,,0,,,73,95
37056,set_tempo,,3432,1,0,,,,,,,697674,,,,,,
37066,note_on,,10,0,1,,,,,,,,,0,,,73,0
37068,note_on,,2,0,1,,,,,,,,,0,,,74,95
37078,note_on,,10,0,1,,,,,,,,,0,,,74,0
37080,note_on,,24,0,2,,,,,,,,,1,,,55,95
37080,note_on,,2,0,1,,,,,,,,,0,,,76,95
37090,note_on,,10,0,1,,,,,,,,,0,,,76,0
37092,note_on,,2,0,1,,,,,,,,,0,,,71,95
37100,note_on,,20,0,2,,,,,,,,,1,,,55,0
37102,note_on,,10,0,1,,,,,,,,,0,,,71,0
37104,set_tempo,,48,1,0,,,,,,,714286,,,,,,
37104,note_on,,2,0,1,,,,,,,,,0,,,69,95
37104,note_on,,4,0,2,,,,,,,,,1,,,54,95
37114,note_on,,10,0,1,,,,,,,,,0,,,69,0
37116,note_on,,2,0,1,,,,,,,,,0,,,73,95
37124,note_on,,20,0,2,,,,,,,,,1,,,54,0
37126,note_on,,10,0,1,,,,,,,,,0,,,73,0
37128,note_on,,4,0,2,,,,,,,,,1,,,57,95
37128,note_on,,2,0,1,,,,,,,,,0,,,78,95
37136,note_on,,8,0,2,,,,,,,,,1,,,45,0
37138,note_on,,10,0,1,,,,,,,,,0,,,78,0
37140,set_tempo,,36,1,0,,,,,,,731707,,,,,,
37140,note_on,,2,0,1,,,,,,,,,0,,,76,95
37148,note_on,,12,0,2,,,,,,,,,1,,,57,0
37150,note_on,,10,0,1,,,,,,,,,0,,,76,0
37152,note_on,,4,0,2,,,,,,,,,1,,,45,95
37152,note_on,,2,0,1,,,,,,,,,0,,,71,95
37162,note_on,,10,0,1,,,,,,,,,0,,,71,0
37164,set_tempo,,24,1,0,,,,,,,750000,,,,,,
37164,note_on,,2,0,1,,,,,,,,,0,,,73,95
37174,note_on,,10,0,1,,,,,,,,,0,,,73,0
37176,note_on,,24,0,2,,,,,,,,,1,,,54,95
37176,note_on,,2,0,1,,,,,,,,,0,,,74,95
37186,note_on,,10,0,1,,,,,,,,,0,,,74,0
37188,note_on,,2,0,1,,,,,,,,,0,,,69,95
37188,set_tempo,,24,1,0,,,,,,,769231,,,,,,
37196,note_on,,20,0,2,,,,,,,,,1,,,54,0
37198,note_on,,10,0,1,,,,,,,,,0,,,69,0
37200,set_tempo,,12,1,0,,,,,,,789474,,,,,,
37200,note_on,,2,0,1,,,,,,,,,0,,,67,95
37200,note_on,,4,0,2,,,,,,,,,1,,,52,95
37210,note_on,,10,0,1,,,,,,,,,0,,,67,0
37212,set_tempo,,12,1,0,,,,,,,800000,,,,,,
37212,note_on,,2,0,1,,,,,,,,,0,,,71,95
37220,note_on,,20,0,2,,,,,,,,,1,,,52,0
37222,note_on,,10,0,1,,,,,,,,,0,,,71,0
37224,note_on,,4,0,2,,,,,,,,,1,,,55,95
37224,set_tempo,,12,1,0,,,,,,,821918,,,,,,
37224,note_on,,2,0,1,,,,,,,,,0,,,76,95
37232,note_on,,8,0,2,,,,,,,,,1,,,45,0
37234,note_on,,10,0,1,,,,,,,,,0,,,76,0
37236,set_tempo,,12,1,0,,,,,,,1111111,,,,,,
37236,note_on,,2,0,1,,,,,,,,,0,,,74,95
37244,note_on,,12,0,2,,,,,,,,,1,,,55,0
37246,note_on,,10,0,1,,,,,,,,,0,,,74,0
37248,set_tempo,,12,1,0,,,,,,,1111111,,,,,,
37248,note_on,,4,0,2,,,,,,,,,1,,,45,95
37248,note_on,,2,0,1,,,,,,,,,0,,,73,95
37253,note_on,,5,0,2,,,,,,,,,1,,,45,0
37253,note_on,,5,0,1,,,,,,,,,0,,,73,0
37254,note_on,,1,0,1,,,,,,,,,0,,,81,95
37259,note_on,,5,0,1,,,,,,,,,0,,,81,0
37260,note_on,,1,0,1,,,,,,,,,0,,,79,95
37260,set_tempo,,12,1,0,,,,,,,697674,,,,,,
37265,note_on,,5,0,1,,,,,,,,,0,,,79,0
37266,note_on,,1,0,1,,,,,,,,,0,,,78,95
37271,note_on,,5,0,1,,,,,,,,,0,,,78,0
37272,set_tempo,,12,1,0,,,,,,,697674,,,,,,
37272,note_on,,1,0,1,,,,,,,,,0,,,76,95
37277,note_on,,5,0,1,,,,,,,,,0,,,76,0
37278,note_on,,1,0,1,,,,,,,,,0,,,81,95
37283,note_on,,5,0,1,,,,,,,,,0,,,81,0
37284,note_on,,1,0,1,,,,,,,,,0,,,79,95
37289,note_on,,5,0,1,,,,,,,,,0,,,79,0
37290,note_on,,1,0,1,,,,,,,,,0,,,78,95
37295,note_on,,5,0,1,,,,,,,,,0,,,78,0
37296,note_on,,1,0,1,,,,,,,,,0,,,76,95
37301,note_on,,5,0,1,,,,,,,,,0,,,76,0
37302,note_on,,1,0,1,,,,,,,,,0,,,74,95
37307,note_on,,5,0,1,,,,,,,,,0,,,74,0
37308,note_on,,1,0,1,,,,,,,,,0,,,73,95
37313,note_on,,5,0,1,,,,,,,,,0,,,73,0
37314,note_on,,1,0,1,,,,,,,,,0,,,71,95
37319,note_on,,5,0,1,,,,,,,,,0,,,71,0
37320,note_on,,1,0,1,,,,,,,,,0,,,69,95
37325,note_on,,5,0,1,,,,,,,,,0,,,69,0
37326,note_on,,1,0,1,,,,,,,,,0,,,67,95
37331,note_on,,5,0,1,,,,,,,,,0,,,67,0
37332,note_on,,1,0,1,,,,,,,,,0,,,66,95
37337,note_on,,5,0,1,,,,,,,,,0,,,66,0
37338,note_on,,1,0,1,,,,,,,,,0,,,64,95
37343,note_on,,5,0,1,,,,,,,,,0,,,64,0
37344,note_on,,1,0,1,,,,,,,,,0,,,66,95
37349,note_on,,5,0,1,,,,,,,,,0,,,66,0
37350,note_on,,1,0,1,,,,,,,,,0,,,74,95
37355,note_on,,5,0,1,,,,,,,,,0,,,74,0
37356,note_on,,1,0,1,,,,,,,,,0,,,73,95
37361,note_on,,5,0,1,,,,,,,,,0,,,73,0
37362,note_on,,1,0,1,,,,,,,,,0,,,71,95
37367,note_on,,5,0,1,,,,,,,,,0,,,71,0
37368,note_on,,1,0,1,,,,,,,,,0,,,69,95
37373,note_on,,5,0,1,,,,,,,,,0,,,69,0
37374,note_on,,1,0,1,,,,,,,,,0,,,74,95
37379,note_on,,5,0,1,,,,,,,,,0,,,74,0
37380,note_on,,1,0,1,,,,,,,,,0,,,73,95
37385,note_on,,5,0,1,,,,,,,,,0,,,73,0
37386,note_on,,1,0,1,,,,,,,,,0,,,71,95
37391,note_on,,5,0,1,,,,,,,,,0,,,71,0
37392,note_on,,1,0,1,,,,,,,,,0,,,69,95
37397,note_on,,5,0,1,,,,,,,,,0,,,69,0
37398,note_on,,1,0,1,,,,,,,,,0,,,67,95
37403,note_on,,5,0,1,,,,,,,,,0,,,67,0
37404,note_on,,1,0,1,,,,,,,,,0,,,66,95
37409,note_on,,5,0,1,,,,,,,,,0,,,66,0
37410,note_on,,1,0,1,,,,,,,,,0,,,64,95
37415,note_on,,5,0,1,,,,,,,,,0,,,64,0
37416,note_on,,1,0,1,,,,,,,,,0,,,62,95
37421,note_on,,5,0,1,,,,,,,,,0,,,62,0
37422,note_on,,1,0,1,,,,,,,,,0,,,61,95
37427,note_on,,5,0,1,,,,,,,,,0,,,61,0
37428,note_on,,1,0,1,,,,,,,,,0,,,59,95
37433,note_on,,5,0,1,,,,,,,,,0,,,59,0
37434,note_on,,1,0,1,,,,,,,,,0,,,57,95
37439,note_on,,5,0,1,,,,,,,,,0,,,57,0
37440,note_on,,1,0,1,,,,,,,,,0,,,59,95
37445,note_on,,5,0,1,,,,,,,,,0,,,59,0
37446,note_on,,1,0,1,,,,,,,,,0,,,61,95
37451,note_on,,5,0,1,,,,,,,,,0,,,61,0
37452,note_on,,1,0,1,,,,,,,,,0,,,62,95
37457,note_on,,5,0,1,,,,,,,,,0,,,62,0
37458,note_on,,1,0,1,,,,,,,,,0,,,64,95
37463,note_on,,5,0,1,,,,,,,,,0,,,64,0
37464,note_on,,1,0,1,,,,,,,,,0,,,66,95
37469,note_on,,5,0,1,,,,,,,,,0,,,66,0
37470,note_on,,1,0,1,,,,,,,,,0,,,68,95
37475,note_on,,5,0,1,,,,,,,,,0,,,68,0
37476,note_on,,1,0,1,,,,,,,,,0,,,69,95
37481,note_on,,5,0,1,,,,,,,,,0,,,69,0
37482,note_on,,1,0,1,,,,,,,,,0,,,66,95
37487,note_on,,5,0,1,,,,,,,,,0,,,66,0
37488,note_on,,1,0,1,,,,,,,,,0,,,68,95
37493,note_on,,5,0,1,,,,,,,,,0,,,68,0
37494,note_on,,1,0,1,,,,,,,,,0,,,71,95
37499,note_on,,5,0,1,,,,,,,,,0,,,71,0
37500,note_on,,1,0,1,,,,,,,,,0,,,64,95
37505,note_on,,5,0,1,,,,,,,,,0,,,64,0
37506,note_on,,1,0,1,,,,,,,,,0,,,66,95
37511,note_on,,5,0,1,,,,,,,,,0,,,66,0
37512,note_on,,1,0,1,,,,,,,,,0,,,68,95
37517,note_on,,5,0,1,,,,,,,,,0,,,68,0
37518,note_on,,1,0,1,,,,,,,,,0,,,69,95
37523,note_on,,5,0,1,,,,,,,,,0,,,69,0
37524,note_on,,1,0,1,,,,,,,,,0,,,71,95
37529,note_on,,5,0,1,,,,,,,,,0,,,71,0
37530,note_on,,1,0,1,,,,,,,,,0,,,73,95
37535,note_on,,5,0,1,,,,,,,,,0,,,73,0
37536,note_on,,1,0,1,,,,,,,,,0,,,74,95
37541,note_on,,5,0,1,,,,,,,,,0,,,74,0
37542,note_on,,1,0,1,,,,,,,,,0,,,71,95
37547,note_on,,5,0,1,,,,,,,,,0,,,71,0
37548,note_on,,1,0,1,,,,,,,,,0,,,73,95
37553,note_on,,5,0,1,,,,,,,,,0,,,73,0
37554,note_on,,1,0,1,,,,,,,,,0,,,74,95
37559,note_on,,5,0,1,,,,,,,,,0,,,74,0
37560,note_on,,1,0,1,,,,,,,,,0,,,76,95
37565,note_on,,5,0,1,,,,,,,,,0,,,76,0
37566,note_on,,1,0,1,,,,,,,,,0,,,78,95
37571,note_on,,5,0,1,,,,,,,,,0,,,78,0
37572,note_on,,1,0,1,,,,,,,,,0,,,80,95
37577,note_on,,5,0,1,,,,,,,,,0,,,80,0
37578,note_on,,1,0,1,,,,,,,,,0,,,81,95
37583,note_on,,5,0,1,,,,,,,,,0,,,81,0
37584,note_on,,1,0,1,,,,,,,,,0,,,83,95
37589,note_on,,5,0,1,,,,,,,,,0,,,83,0
37590,note_on,,1,0,1,,,,,,,,,0,,,81,95
37595,note_on,,5,0,1,,,,,,,,,0,,,81,0
37596,note_on,,1,0,1,,,,,,,,,0,,,80,95
37601,note_on,,5,0,1,,,,,,,,,0,,,80,0
37602,note_on,,1,0,1,,,,,,,,,0,,,78,95
37607,note_on,,5,0,1,,,,,,,,,0,,,78,0
37608,note_on,,1,0,1,,,,,,,,,0,,,76,95
37613,note_on,,5,0,1,,,,,,,,,0,,,76,0
37614,note_on,,1,0,1,,,,,,,,,0,,,74,95
37619,note_on,,5,0,1,,,,,,,,,0,,,74,0
37620,note_on,,1,0,1,,,,,,,,,0,,,73,95
37625,note_on,,5,0,1,,,,,,,,,0,,,73,0
37626,note_on,,1,0,1,,,,,,,,,0,,,71,95
37631,note_on,,5,0,1,,,,,,,,,0,,,71,0
37632,note_on,,1,0,1,,,,,,,,,0,,,73,95
37637,note_on,,5,0,1,,,,,,,,,0,,,73,0
37638,note_on,,1,0,1,,,,,,,,,0,,,69,95
37643,note_on,,5,0,1,,,,,,,,,0,,,69,0
37644,note_on,,1,0,1,,,,,,,,,0,,,73,95
37649,note_on,,5,0,1,,,,,,,,,0,,,73,0
37650,note_on,,1,0,1,,,,,,,,,0,,,76,95
37655,note_on,,5,0,1,,,,,,,,,0,,,76,0
37656,note_on,,1,0,1,,,,,,,,,0,,,81,95
37661,note_on,,5,0,1,,,,,,,,,0,,,81,0
37662,note_on,,1,0,1,,,,,,,,,0,,,76,95
37667,note_on,,5,0,1,,,,,,,,,0,,,76,0
37668,note_on,,1,0,1,,,,,,,,,0,,,73,95
37673,note_on,,5,0,1,,,,,,,,,0,,,73,0
37674,note_on,,1,0,1,,,,,,,,,0,,,69,95
37679,note_on,,5,0,1,,,,,,,,,0,,,69,0
37680,note_on,,1,0,1,,,,,,,,,0,,,64,95
37685,note_on,,5,0,1,,,,,,,,,0,,,64,0
37686,note_on,,1,0,1,,,,,,,,,0,,,61,95
37691,note_on,,5,0,1,,,,,,,,,0,,,61,0
37692,note_on,,1,0,1,,,,,,,,,0,,,57,95
37697,note_on,,5,0,1,,,,,,,,,0,,,57,0
37698,note_on,,1,0,1,,,,,,,,,0,,,61,95
37703,note_on,,5,0,1,,,,,,,,,0,,,61,0
37704,note_on,,1,0,1,,,,,,,,,0,,,64,95
37709,note_on,,5,0,1,,,,,,,,,0,,,64,0
37710,note_on,,1,0,1,,,,,,,,,0,,,67,95
37715,note_on,,5,0,1,,,,,,,,,0,,,67,0
37716,note_on,,1,0,1,,,,,,,,,0,,,64,95
37721,note_on,,5,0,1,,,,,,,,,0,,,64,0
37722,note_on,,1,0,1,,,,,,,,,0,,,61,95
37727,note_on,,5,0,1,,,,,,,,,0,,,61,0
37728,note_on,,1,0,1,,,,,,,,,0,,,57,95
37733,note_on,,5,0,1,,,,,,,,,0,,,57,0
37734,note_on,,1,0,1,,,,,,,,,0,,,52,95
37739,note_on,,5,0,1,,,,,,,,,0,,,52,0
37740,note_on,,1,0,1,,,,,,,,,0,,,49,95
37745,note_on,,5,0,1,,,,,,,,,0,,,49,0
37746,note_on,,1,0,1,,,,,,,,,0,,,45,95
37751,note_on,,5,0,1,,,,,,,,,0,,,45,0
37752,note_on,,1,0,1,,,,,,,,,0,,,49,95
37757,note_on,,5,0,1,,,,,,,,,0,,,49,0
37758,note_on,,1,0,1,,,,,,,,,0,,,52,95
37763,note_on,,5,0,1,,,,,,,,,0,,,52,0
37764,note_on,,1,0,1,,,,,,,,,0,,,55,95
37769,note_on,,5,0,1,,,,,,,,,0,,,55,0
37770,note_on,,1,0,1,,,,,,,,,0,,,58,95
37775,note_on,,5,0,1,,,,,,,,,0,,,58,0
37776,note_on,,1,0,1,,,,,,,,,0,,,61,95
37781,note_on,,5,0,1,,,,,,,,,0,,,61,0
37782,note_on,,1,0,1,,,,,,,,,0,,,64,95
37787,note_on,,5,0,1,,,,,,,,,0,,,64,0
37788,note_on,,1,0,1,,,,,,,,,0,,,67,95
37793,note_on,,5,0,1,,,,,,,,,0,,,67,0
37794,note_on,,1,0,1,,,,,,,,,0,,,70,95
37799,note_on,,5,0,1,,,,,,,,,0,,,70,0
37800,note_on,,1,0,1,,,,,,,,,0,,,67,95
37805,note_on,,5,0,1,,,,,,,,,0,,,67,0
37806,note_on,,1,0,1,,,,,,,,,0,,,64,95
37811,note_on,,5,0,1,,,,,,,,,0,,,64,0
37812,note_on,,1,0,1,,,,,,,,,0,,,61,95
37817,note_on,,5,0,1,,,,,,,,,0,,,61,0
37818,note_on,,1,0,1,,,,,,,,,0,,,55,95
37823,note_on,,5,0,1,,,,,,,,,0,,,55,0
37824,note_on,,571,0,2,,,,,,,,,1,,,53,95
37829,note_on,,5,0,2,,,,,,,,,1,,,53,0
37830,note_on,,7,0,1,,,,,,,,,0,,,69,95
37835,note_on,,5,0,1,,,,,,,,,0,,,69,0
37836,note_on,,1,0,1,,,,,,,,,0,,,65,95
37841,note_on,,5,0,1,,,,,,,,,0,,,65,0
37842,note_on,,1,0,1,,,,,,,,,0,,,62,95
37847,note_on,,5,0,1,,,,,,,,,0,,,62,0
37848,note_on,,19,0,2,,,,,,,,,1,,,58,95
37853,note_on,,5,0,2,,,,,,,,,1,,,58,0
37854,note_on,,7,0,1,,,,,,,,,0,,,67,95
37859,note_on,,5,0,1,,,,,,,,,0,,,67,0
37860,note_on,,1,0,1,,,,,,,,,0,,,64,95
37865,note_on,,5,0,1,,,,,,,,,0,,,64,0
37866,note_on,,1,0,1,,,,,,,,,0,,,61,95
37871,note_on,,5,0,1,,,,,,,,,0,,,61,0
37872,note_on,,19,0,2,,,,,,,,,1,,,57,95
37877,note_on,,5,0,2,,,,,,,,,1,,,57,0
37878,note_on,,7,0,1,,,,,,,,,0,,,69,95
37883,note_on,,5,0,1,,,,,,,,,0,,,69,0
37884,note_on,,1,0,1,,,,,,,,,0,,,65,95
37889,note_on,,5,0,1,,,,,,,,,0,,,65,0
37890,note_on,,1,0,1,,,,,,,,,0,,,62,95
37895,note_on,,5,0,1,,,,,,,,,0,,,62,0
37896,note_on,,19,0,2,,,,,,,,,1,,,55,95
37901,note_on,,5,0,2,,,,,,,,,1,,,55,0
37902,note_on,,7,0,1,,,,,,,,,0,,,70,95
37907,note_on,,5,0,1,,,,,,,,,0,,,70,0
37908,note_on,,1,0,1,,,,,,,,,0,,,67,95
37913,note_on,,5,0,1,,,,,,,,,0,,,67,0
37914,note_on,,1,0,1,,,,,,,,,0,,,64,95
37919,note_on,,5,0,1,,,,,,,,,0,,,64,0
37920,note_on,,19,0,2,,,,,,,,,1,,,57,95
37925,note_on,,5,0,2,,,,,,,,,1,,,57,0
37926,note_on,,7,0,1,,,,,,,,,0,,,69,95
37931,note_on,,5,0,1,,,,,,,,,0,,,69,0
37932,note_on,,1,0,1,,,,,,,,,0,,,65,95
37937,note_on,,5,0,1,,,,,,,,,0,,,65,0
37938,note_on,,1,0,1,,,,,,,,,0,,,62,95
37943,note_on,,5,0,1,,,,,,,,,0,,,62,0
37944,note_on,,19,0,2,,,,,,,,,1,,,58,95
37949,note_on,,5,0,2,,,,,,,,,1,,,58,0
37950,note_on,,7,0,1,,,,,,,,,0,,,67,95
37955,note_on,,5,0,1,,,,,,,,,0,,,67,0
37956,note_on,,1,0,1,,,,,,,,,0,,,64,95
37961,note_on,,5,0,1,,,,,,,,,0,,,64,0
37962,note_on,,1,0,1,,,,,,,,,0,,,61,95
37967,note_on,,5,0,1,,,,,,,,,0,,,61,0
37968,note_on,,19,0,2,,,,,,,,,1,,,57,95
37973,note_on,,5,0,2,,,,,,,,,1,,,57,0
37974,note_on,,7,0,1,,,,,,,,,0,,,69,95
37979,note_on,,5,0,1,,,,,,,,,0,,,69,0
37980,note_on,,1,0,1,,,,,,,,,0,,,65,95
37985,note_on,,5,0,1,,,,,,,,,0,,,65,0
37986,note_on,,1,0,1,,,,,,,,,0,,,62,95
37991,note_on,,5,0,1,,,,,,,,,0,,,62,0
37992,note_on,,19,0,2,,,,,,,,,1,,,55,95
37997,note_on,,5,0,2,,,,,,,,,1,,,55,0
37998,note_on,,7,0,1,,,,,,,,,0,,,70,95
38003,note_on,,5,0,1,,,,,,,,,0,,,70,0
38004,note_on,,1,0,1,,,,,,,,,0,,,67,95
38009,note_on,,5,0,1,,,,,,,,,0,,,67,0
38010,note_on,,1,0,1,,,,,,,,,0,,,64,95
38015,note_on,,5,0,1,,,,,,,,,0,,,64,0
38016,note_on,,19,0,2,,,,,,,,,1,,,57,95
38021,note_on,,5,0,2,,,,,,,,,1,,,57,0
38022,note_on,,7,0,1,,,,,,,,,0,,,69,95
38027,note_on,,5,0,1,,,,,,,,,0,,,69,0
38028,note_on,,1,0,1,,,,,,,,,0,,,65,95
38033,note_on,,5,0,1,,,,,,,,,0,,,65,0
38034,note_on,,1,0,1,,,,,,,,,0,,,64,95
38039,note_on,,5,0,1,,,,,,,,,0,,,64,0
38040,note_on,,19,0,2,,,,,,,,,1,,,62,95
38045,note_on,,5,0,2,,,,,,,,,1,,,62,0
38046,note_on,,7,0,1,,,,,,,,,0,,,65,95
38051,note_on,,5,0,1,,,,,,,,,0,,,65,0
38052,note_on,,1,0,1,,,,,,,,,0,,,70,95
38057,note_on,,5,0,1,,,,,,,,,0,,,70,0
38058,note_on,,1,0,1,,,,,,,,,0,,,77,95
38063,note_on,,5,0,1,,,,,,,,,0,,,77,0
38064,note_on,,19,0,2,,,,,,,,,1,,,61,95
38069,note_on,,5,0,2,,,,,,,,,1,,,61,0
38070,note_on,,7,0,1,,,,,,,,,0,,,67,95
38075,note_on,,5,0,1,,,,,,,,,0,,,67,0
38076,note_on,,1,0,1,,,,,,,,,0,,,64,95
38081,note_on,,5,0,1,,,,,,,,,0,,,64,0
38082,note_on,,1,0,1,,,,,,,,,0,,,62,95
38087,note_on,,5,0,1,,,,,,,,,0,,,62,0
38088,note_on,,19,0,2,,,,,,,,,1,,,60,95
38093,note_on,,5,0,2,,,,,,,,,1,,,60,0
38094,note_on,,7,0,1,,,,,,,,,0,,,64,95
38099,note_on,,5,0,1,,,,,,,,,0,,,64,0
38100,note_on,,1,0,1,,,,,,,,,0,,,69,95
38105,note_on,,5,0,1,,,,,,,,,0,,,69,0
38106,note_on,,1,0,1,,,,,,,,,0,,,76,95
38111,note_on,,5,0,1,,,,,,,,,0,,,76,0
38112,note_on,,19,0,2,,,,,,,,,1,,,59,95
38117,note_on,,5,0,2,,,,,,,,,1,,,59,0
38118,note_on,,7,0,1,,,,,,,,,0,,,65,95
38123,note_on,,5,0,1,,,,,,,,,0,,,65,0
38124,note_on,,1,0,1,,,,,,,,,0,,,62,95
38129,note_on,,5,0,1,,,,,,,,,0,,,62,0
38130,note_on,,1,0,1,,,,,,,,,0,,,60,95
38135,note_on,,5,0,1,,,,,,,,,0,,,60,0
38136,note_on,,19,0,2,,,,,,,,,1,,,58,95
38141,note_on,,5,0,2,,,,,,,,,1,,,58,0
38142,note_on,,7,0,1,,,,,,,,,0,,,62,95
38147,note_on,,5,0,1,,,,,,,,,0,,,62,0
38148,note_on,,1,0,1,,,,,,,,,0,,,67,95
38153,note_on,,5,0,1,,,,,,,,,0,,,67,0
38154,note_on,,1,0,1,,,,,,,,,0,,,74,95
38159,note_on,,5,0,1,,,,,,,,,0,,,74,0
38160,note_on,,19,0,2,,,,,,,,,1,,,57,95
38165,note_on,,5,0,2,,,,,,,,,1,,,57,0
38166,note_on,,7,0,1,,,,,,,,,0,,,64,95
38171,note_on,,5,0,1,,,,,,,,,0,,,64,0
38172,note_on,,1,0,1,,,,,,,,,0,,,67,95
38177,note_on,,5,0,1,,,,,,,,,0,,,67,0
38178,note_on,,1,0,1,,,,,,,,,0,,,73,95
38183,note_on,,5,0,1,,,,,,,,,0,,,73,0
38184,note_on,,19,0,2,,,,,,,,,1,,,56,95
38189,note_on,,5,0,2,,,,,,,,,1,,,56,0
38190,note_on,,7,0,1,,,,,,,,,0,,,65,95
38195,note_on,,5,0,1,,,,,,,,,0,,,65,0
38196,note_on,,1,0,1,,,,,,,,,0,,,62,95
38201,note_on,,5,0,1,,,,,,,,,0,,,62,0
38202,note_on,,1,0,1,,,,,,,,,0,,,59,95
38207,note_on,,5,0,1,,,,,,,,,0,,,59,0
38208,note_on,,19,0,2,,,,,,,,,1,,,55,95
38213,note_on,,5,0,2,,,,,,,,,1,,,55,0
38214,note_on,,7,0,1,,,,,,,,,0,,,64,95
38219,note_on,,5,0,1,,,,,,,,,0,,,64,0
38220,note_on,,1,0,1,,,,,,,,,0,,,61,95
38225,note_on,,5,0,1,,,,,,,,,0,,,61,0
38226,note_on,,1,0,1,,,,,,,,,0,,,58,95
38231,note_on,,5,0,1,,,,,,,,,0,,,58,0
38232,note_on,,19,0,2,,,,,,,,,1,,,54,95
38237,note_on,,5,0,2,,,,,,,,,1,,,54,0
38238,note_on,,7,0,1,,,,,,,,,0,,,63,95
38243,note_on,,5,0,1,,,,,,,,,0,,,63,0
38244,note_on,,1,0,1,,,,,,,,,0,,,60,95
38249,note_on,,5,0,1,,,,,,,,,0,,,60,0
38250,note_on,,1,0,1,,,,,,,,,0,,,57,95
38255,note_on,,5,0,1,,,,,,,,,0,,,57,0
38256,note_on,,19,0,2,,,,,,,,,1,,,53,95
38261,note_on,,5,0,2,,,,,,,,,1,,,53,0
38262,note_on,,7,0,1,,,,,,,,,0,,,62,95
38267,note_on,,5,0,1,,,,,,,,,0,,,62,0
38268,note_on,,1,0,1,,,,,,,,,0,,,59,95
38273,note_on,,5,0,1,,,,,,,,,0,,,59,0
38274,note_on,,1,0,1,,,,,,,,,0,,,56,95
38279,note_on,,5,0,1,,,,,,,,,0,,,56,0
38280,note_on,,19,0,2,,,,,,,,,1,,,52,95
38285,note_on,,5,0,2,,,,,,,,,1,,,52,0
38286,note_on,,7,0,1,,,,,,,,,0,,,61,95
38291,note_on,,5,0,1,,,,,,,,,0,,,61,0
38292,note_on,,1,0,1,,,,,,,,,0,,,58,95
38297,note_on,,5,0,1,,,,,,,,,0,,,58,0
38298,note_on,,1,0,1,,,,,,,,,0,,,55,95
38303,note_on,,5,0,1,,,,,,,,,0,,,55,0
38304,note_on,,19,0,2,,,,,,,,,1,,,51,95
38309,note_on,,5,0,2,,,,,,,,,1,,,51,0
38310,note_on,,7,0,1,,,,,,,,,0,,,60,95
38315,note_on,,5,0,1,,,,,,,,,0,,,60,0
38316,note_on,,1,0,1,,,,,,,,,0,,,57,95
38321,note_on,,5,0,1,,,,,,,,,0,,,57,0
38322,note_on,,1,0,1,,,,,,,,,0,,,54,95
38327,note_on,,5,0,1,,,,,,,,,0,,,54,0
38328,note_on,,19,0,2,,,,,,,,,1,,,50,95
38333,note_on,,5,0,2,,,,,,,,,1,,,50,0
38334,note_on,,7,0,1,,,,,,,,,0,,,59,95
38339,note_on,,5,0,1,,,,,,,,,0,,,59,0
38340,note_on,,1,0,1,,,,,,,,,0,,,56,95
38345,note_on,,5,0,1,,,,,,,,,0,,,56,0
38346,note_on,,1,0,1,,,,,,,,,0,,,53,95
38351,note_on,,5,0,1,,,,,,,,,0,,,53,0
38352,note_on,,19,0,2,,,,,,,,,1,,,49,95
38357,note_on,,5,0,2,,,,,,,,,1,,,49,0
38358,note_on,,7,0,1,,,,,,,,,0,,,58,95
38363,note_on,,5,0,1,,,,,,,,,0,,,58,0
38364,note_on,,1,0,1,,,,,,,,,0,,,55,95
38369,note_on,,5,0,1,,,,,,,,,0,,,55,0
38370,note_on,,1,0,1,,,,,,,,,0,,,52,95
38375,note_on,,5,0,1,,,,,,,,,0,,,52,0
38376,note_on,,19,0,2,,,,,,,,,1,,,48,95
38381,note_on,,5,0,2,,,,,,,,,1,,,48,0
38382,note_on,,7,0,1,,,,,,,,,0,,,57,95
38387,note_on,,5,0,1,,,,,,,,,0,,,57,0
38388,note_on,,1,0,1,,,,,,,,,0,,,54,95
38393,note_on,,5,0,1,,,,,,,,,0,,,54,0
38394,note_on,,1,0,1,,,,,,,,,0,,,51,95
38399,note_on,,5,0,1,,,,,,,,,0,,,51,0
38400,note_on,,19,0,2,,,,,,,,,1,,,47,95
38405,note_on,,5,0,2,,,,,,,,,1,,,47,0
38406,note_on,,7,0,1,,,,,,,,,0,,,56,95
38411,note_on,,5,0,1,,,,,,,,,0,,,56,0
38412,note_on,,1,0,1,,,,,,,,,0,,,53,95
38417,note_on,,5,0,1,,,,,,,,,0,,,53,0
38418,note_on,,1,0,1,,,,,,,,,0,,,50,95
38423,note_on,,5,0,1,,,,,,,,,0,,,50,0
38424,note_on,,19,0,2,,,,,,,,,1,,,46,95
38429,note_on,,5,0,2,,,,,,,,,1,,,46,0
38430,note_on,,7,0,1,,,,,,,,,0,,,55,95
38435,note_on,,5,0,1,,,,,,,,,0,,,55,0
38436,note_on,,1,0,1,,,,,,,,,0,,,52,95
38441,note_on,,5,0,1,,,,,,,,,0,,,52,0
38442,note_on,,1,0,1,,,,,,,,,0,,,49,95
38447,note_on,,5,0,1,,,,,,,,,0,,,49,0
38448,note_on,,19,0,2,,,,,,,,,1,,,45,95
38453,note_on,,5,0,2,,,,,,,,,1,,,45,0
38454,note_on,,7,0,1,,,,,,,,,0,,,54,95
38459,note_on,,5,0,1,,,,,,,,,0,,,54,0
38460,note_on,,1,0,1,,,,,,,,,0,,,51,95
38465,note_on,,5,0,1,,,,,,,,,0,,,51,0
38466,note_on,,1,0,1,,,,,,,,,0,,,48,95
38471,note_on,,5,0,1,,,,,,,,,0,,,48,0
38472,note_on,,19,0,2,,,,,,,,,1,,,44,95
38477,note_on,,5,0,2,,,,,,,,,1,,,44,0
38478,note_on,,7,0,1,,,,,,,,,0,,,53,95
38483,note_on,,5,0,1,,,,,,,,,0,,,53,0
38484,note_on,,1,0,1,,,,,,,,,0,,,50,95
38489,note_on,,5,0,1,,,,,,,,,0,,,50,0
38490,note_on,,1,0,1,,,,,,,,,0,,,47,95
38495,note_on,,5,0,1,,,,,,,,,0,,,47,0
38496,note_on,,19,0,2,,,,,,,,,1,,,45,95
38501,note_on,,5,0,2,,,,,,,,,1,,,45,0
38502,note_on,,1,0,2,,,,,,,,,1,,,46,95
38507,note_on,,5,0,2,,,,,,,,,1,,,46,0
38508,note_on,,1,0,2,,,,,,,,,1,,,49,95
38513,note_on,,5,0,2,,,,,,,,,1,,,49,0
38514,note_on,,1,0,2,,,,,,,,,1,,,50,95
38519,note_on,,5,0,2,,,,,,,,,1,,,50,0
38520,note_on,,25,0,1,,,,,,,,,0,,,52,95
38525,note_on,,5,0,1,,,,,,,,,0,,,52,0
38526,note_on,,1,0,1,,,,,,,,,0,,,53,95
38531,note_on,,5,0,1,,,,,,,,,0,,,53,0
38532,note_on,,1,0,1,,,,,,,,,0,,,55,95
38537,note_on,,5,0,1,,,,,,,,,0,,,55,0
38538,note_on,,1,0,1,,,,,,,,,0,,,52,95
38543,note_on,,5,0,1,,,,,,,,,0,,,52,0
38544,note_on,,25,0,2,,,,,,,,,1,,,45,95
38549,note_on,,5,0,2,,,,,,,,,1,,,45,0
38550,note_on,,1,0,2,,,,,,,,,1,,,49,95
38555,note_on,,5,0,2,,,,,,,,,1,,,49,0
38556,note_on,,1,0,2,,,,,,,,,1,,,50,95
38561,note_on,,5,0,2,,,,,,,,,1,,,50,0
38562,note_on,,1,0,2,,,,,,,,,1,,,52,95
38567,note_on,,5,0,2,,,,,,,,,1,,,52,0
38568,note_on,,25,0,1,,,,,,,,,0,,,53,95
38573,note_on,,5,0,1,,,,,,,,,0,,,53,0
38574,note_on,,1,0,1,,,,,,,,,0,,,55,95
38579,note_on,,5,0,1,,,,,,,,,0,,,55,0
38580,note_on,,1,0,1,,,,,,,,,0,,,57,95
38585,note_on,,5,0,1,,,,,,,,,0,,,57,0
38586,note_on,,1,0,1,,,,,,,,,0,,,53,95
38591,note_on,,5,0,1,,,,,,,,,0,,,53,0
38592,note_on,,1,0,1,,,,,,,,,0,,,45,95
38597,note_on,,5,0,1,,,,,,,,,0,,,45,0
38598,note_on,,1,0,1,,,,,,,,,0,,,50,95
38603,note_on,,5,0,1,,,,,,,,,0,,,50,0
38604,note_on,,1,0,1,,,,,,,,,0,,,52,95
38609,note_on,,5,0,1,,,,,,,,,0,,,52,0
38610,note_on,,1,0,1,,,,,,,,,0,,,53,95
38615,note_on,,5,0,1,,,,,,,,,0,,,53,0
38616,note_on,,1,0,1,,,,,,,,,0,,,55,95
38621,note_on,,5,0,1,,,,,,,,,0,,,55,0
38622,note_on,,1,0,1,,,,,,,,,0,,,57,95
38627,note_on,,5,0,1,,,,,,,,,0,,,57,0
38628,note_on,,1,0,1,,,,,,,,,0,,,58,95
38633,note_on,,5,0,1,,,,,,,,,0,,,58,0
38634,note_on,,1,0,1,,,,,,,,,0,,,55,95
38639,note_on,,5,0,1,,,,,,,,,0,,,55,0
38640,note_on,,1,0,1,,,,,,,,,0,,,45,95
38645,note_on,,5,0,1,,,,,,,,,0,,,45,0
38646,note_on,,1,0,1,,,,,,,,,0,,,49,95
38651,note_on,,5,0,1,,,,,,,,,0,,,49,0
38652,note_on,,1,0,1,,,,,,,,,0,,,50,95
38657,note_on,,5,0,1,,,,,,,,,0,,,50,0
38658,note_on,,1,0,1,,,,,,,,,0,,,52,95
38663,note_on,,5,0,1,,,,,,,,,0,,,52,0
38664,note_on,,1,0,1,,,,,,,,,0,,,53,95
38669,note_on,,5,0,1,,,,,,,,,0,,,53,0
38670,note_on,,1,0,1,,,,,,,,,0,,,55,95
38675,note_on,,5,0,1,,,,,,,,,0,,,55,0
38676,note_on,,1,0,1,,,,,,,,,0,,,57,95
38681,note_on,,5,0,1,,,,,,,,,0,,,57,0
38682,note_on,,1,0,1,,,,,,,,,0,,,53,95
38687,note_on,,5,0,1,,,,,,,,,0,,,53,0
38688,note_on,,1,0,1,,,,,,,,,0,,,45,95
38688,set_tempo,,1416,1,0,,,,,,,410959,,,,,,
38695,note_on,,7,0,1,,,,,,,,,0,,,45,0
38696,note_on,,1,0,1,,,,,,,,,0,,,49,95
38703,note_on,,7,0,1,,,,,,,,,0,,,49,0
38704,note_on,,1,0,1,,,,,,,,,0,,,50,95
38711,note_on,,7,0,1,,,,,,,,,0,,,50,0
38712,note_on,,1,0,1,,,,,,,,,0,,,52,95
38719,note_on,,7,0,1,,,,,,,,,0,,,52,0
38720,note_on,,1,0,1,,,,,,,,,0,,,53,95
38723,note_on,,3,0,1,,,,,,,,,0,,,53,0
38724,note_on,,1,0,1,,,,,,,,,0,,,52,95
38727,note_on,,3,0,1,,,,,,,,,0,,,52,0
38728,note_on,,1,0,1,,,,,,,,,0,,,53,95
38735,note_on,,7,0,1,,,,,,,,,0,,,53,0
38736,note_on,,1,0,1,,,,,,,,,0,,,45,95
38743,note_on,,7,0,1,,,,,,,,,0,,,45,0
38744,note_on,,1,0,1,,,,,,,,,0,,,50,95
38751,note_on,,7,0,1,,,,,,,,,0,,,50,0
38752,note_on,,1,0,1,,,,,,,,,0,,,52,95
38759,note_on,,7,0,1,,,,,,,,,0,,,52,0
38760,note_on,,1,0,1,,,,,,,,,0,,,53,95
38767,note_on,,7,0,1,,,,,,,,,0,,,53,0
38768,note_on,,1,0,1,,,,,,,,,0,,,55,95
38771,note_on,,3,0,1,,,,,,,,,0,,,55,0
38772,note_on,,1,0,1,,,,,,,,,0,,,53,95
38775,note_on,,3,0,1,,,,,,,,,0,,,53,0
38776,note_on,,1,0,1,,,,,,,,,0,,,55,95
38783,note_on,,7,0,1,,,,,,,,,0,,,55,0
38784,time_signature,,96,1,0,,2,4,24,8,,,,,,,,
38784,note_on,,1,0,1,,,,,,,,,0,,,45,95
38791,note_on,,7,0,1,,,,,,,,,0,,,45,0
38792,note_on,,1,0,1,,,,,,,,,0,,,52,95
38799,note_on,,7,0,1,,,,,,,,,0,,,52,0
38800,note_on,,1,0,1,,,,,,,,,0,,,54,95
38807,note_on,,7,0,1,,,,,,,,,0,,,54,0
38808,note_on,,1,0,1,,,,,,,,,0,,,55,95
38815,note_on,,7,0,1,,,,,,,,,0,,,55,0
38816,note_on,,1,0,1,,,,,,,,,0,,,57,95
38819,note_on,,3,0,1,,,,,,,,,0,,,57,0
38820,note_on,,1,0,1,,,,,,,,,0,,,55,95
38823,note_on,,3,0,1,,,,,,,,,0,,,55,0
38824,note_on,,1,0,1,,,,,,,,,0,,,57,95
38831,note_on,,7,0,1,,,,,,,,,0,,,57,0
38832,note_on,,1,0,1,,,,,,,,,0,,,45,95
38839,note_on,,7,0,1,,,,,,,,,0,,,45,0
38840,note_on,,1,0,1,,,,,,,,,0,,,54,95
38847,note_on,,7,0,1,,,,,,,,,0,,,54,0
38848,note_on,,1,0,1,,,,,,,,,0,,,55,95
38855,note_on,,7,0,1,,,,,,,,,0,,,55,0
38856,note_on,,1,0,1,,,,,,,,,0,,,57,95
38863,note_on,,7,0,1,,,,,,,,,0,,,57,0
38864,note_on,,1,0,1,,,,,,,,,0,,,59,95
38867,note_on,,3,0,1,,,,,,,,,0,,,59,0
38868,note_on,,1,0,1,,,,,,,,,0,,,57,95
38871,note_on,,3,0,1,,,,,,,,,0,,,57,0
38872,note_on,,1,0,1,,,,,,,,,0,,,59,95
38879,note_on,,7,0,1,,,,,,,,,0,,,59,0
38880,set_tempo,,0,1,0,,,,,,,1395349,,,,,,
38880,time_signature,,96,1,0,,4,4,24,8,,,,,,,,
38880,note_on,,313,0,2,,,,,,,,,1,,,45,95
38880,note_on,,1,0,1,,,,,,,,,0,,,61,95
38885,note_on,,5,0,1,,,,,,,,,0,,,61,0
38886,note_on,,1,0,1,,,,,,,,,0,,,58,95
38891,note_on,,5,0,1,,,,,,,,,0,,,58,0
38892,set_tempo,,12,1,0,,,,,,,697674,,,,,,
38892,note_on,,1,0,1,,,,,,,,,0,,,57,95
38897,note_on,,5,0,1,,,,,,,,,0,,,57,0
38898,note_on,,1,0,1,,,,,,,,,0,,,58,95
38901,note_on,,21,0,2,,,,,,,,,1,,,45,0
38903,note_on,,5,0,1,,,,,,,,,0,,,58,0
38904,note_on,,1,0,1,,,,,,,,,0,,,61,95
38904,note_on,,3,0,2,,,,,,,,,1,,,55,95
38909,note_on,,5,0,1,,,,,,,,,0,,,61,0
38910,note_on,,1,0,1,,,,,,,,,0,,,58,95
38915,note_on,,5,0,1,,,,,,,,,0,,,58,0
38916,note_on,,1,0,1,,,,,,,,,0,,,57,95
38921,note_on,,5,0,1,,,,,,,,,0,,,57,0
38922,note_on,,1,0,1,,,,,,,,,0,,,58,95
38925,note_on,,21,0,2,,,,,,,,,1,,,55,0
38927,note_on,,5,0,1,,,,,,,,,0,,,58,0
38928,note_on,,1,0,1,,,,,,,,,0,,,61,95
38928,note_on,,3,0,2,,,,,,,,,1,,,52,95
38933,note_on,,5,0,1,,,,,,,,,0,,,61,0
38934,note_on,,1,0,1,,,,,,,,,0,,,58,95
38939,note_on,,5,0,1,,,,,,,,,0,,,58,0
38940,note_on,,1,0,1,,,,,,,,,0,,,57,95
38945,note_on,,5,0,1,,,,,,,,,0,,,57,0
38946,note_on,,1,0,1,,,,,,,,,0,,,58,95
38949,note_on,,21,0,2,,,,,,,,,1,,,52,0
38951,note_on,,5,0,1,,,,,,,,,0,,,58,0
38952,note_on,,1,0,1,,,,,,,,,0,,,61,95
38952,note_on,,3,0,2,,,,,,,,,1,,,49,95
38957,note_on,,5,0,1,,,,,,,,,0,,,61,0
38958,note_on,,1,0,1,,,,,,,,,0,,,58,95
38963,note_on,,5,0,1,,,,,,,,,0,,,58,0
38964,note_on,,1,0,1,,,,,,,,,0,,,57,95
38969,note_on,,5,0,1,,,,,,,,,0,,,57,0
38970,note_on,,1,0,1,,,,,,,,,0,,,58,95
38973,note_on,,21,0,2,,,,,,,,,1,,,49,0
38975,note_on,,5,0,1,,,,,,,,,0,,,58,0
38976,note_on,,3,0,2,,,,,,,,,1,,,45,95
38976,note_on,,1,0,1,,,,,,,,,0,,,61,95
38981,note_on,,5,0,1,,,,,,,,,0,,,61,0
38982,note_on,,1,0,1,,,,,,,,,0,,,58,95
38987,note_on,,5,0,1,,,,,,,,,0,,,58,0
38988,note_on,,1,0,1,,,,,,,,,0,,,57,95
38993,note_on,,5,0,1,,,,,,,,,0,,,57,0
38994,note_on,,1,0,1,,,,,,,,,0,,,58,95
38997,note_on,,21,0,2,,,,,,,,,1,,,45,0
38999,note_on,,5,0,1,,,,,,,,,0,,,58,0
39000,note_on,,3,0,2,,,,,,,,,1,,,55,95
39000,note_on,,1,0,1,,,,,,,,,0,,,61,95
39005,note_on,,5,0,1,,,,,,,,,0,,,61,0
39006,note_on,,1,0,1,,,,,,,,,0,,,58,95
39011,note_on,,5,0,1,,,,,,,,,0,,,58,0
39012,note_on,,1,0,1,,,,,,,,,0,,,57,95
39017,note_on,,5,0,1,,,,,,,,,0,,,57,0
39018,note_on,,1,0,1,,,,,,,,,0,,,58,95
39021,note_on,,21,0,2,,,,,,,,,1,,,55,0
39023,note_on,,5,0,1,,,,,,,,,0,,,58,0
39024,note_on,,3,0,2,,,,,,,,,1,,,52,95
39024,note_on,,1,0,1,,,,,,,,,0,,,61,95
39029,note_on,,5,0,1,,,,,,,,,0,,,61,0
39030,note_on,,1,0,1,,,,,,,,,0,,,58,95
39035,note_on,,5,0,1,,,,,,,,,0,,,58,0
39036,note_on,,1,0,1,,,,,,,,,0,,,57,95
39041,note_on,,5,0,1,,,,,,,,,0,,,57,0
39042,note_on,,1,0,1,,,,,,,,,0,,,58,95
39045,note_on,,21,0,2,,,,,,,,,1,,,52,0
39047,note_on,,5,0,1,,,,,,,,,0,,,58,0
39048,note_on,,1,0,1,,,,,,,,,0,,,61,95
39048,note_on,,3,0,2,,,,,,,,,1,,,49,95
39053,note_on,,5,0,1,,,,,,,,,0,,,61,0
39054,note_on,,1,0,1,,,,,,,,,0,,,58,95
39059,note_on,,5,0,1,,,,,,,,,0,,,58,0
39060,note_on,,1,0,1,,,,,,,,,0,,,57,95
39065,note_on,,5,0,1,,,,,,,,,0,,,57,0
39066,note_on,,1,0,1,,,,,,,,,0,,,58,95
39069,note_on,,21,0,2,,,,,,,,,1,,,49,0
39071,note_on,,5,0,1,,,,,,,,,0,,,58,0
39072,note_on,,3,0,2,,,,,,,,,1,,,45,95
39072,note_on,,1,0,1,,,,,,,,,0,,,62,95
39077,note_on,,5,0,1,,,,,,,,,0,,,62,0
39078,note_on,,1,0,1,,,,,,,,,0,,,59,95
39083,note_on,,5,0,1,,,,,,,,,0,,,59,0
39084,note_on,,1,0,1,,,,,,,,,0,,,57,95
39089,note_on,,5,0,1,,,,,,,,,0,,,57,0
39090,note_on,,1,0,1,,,,,,,,,0,,,59,95
39093,note_on,,21,0,2,,,,,,,,,1,,,45,0
39095,note_on,,5,0,1,,,,,,,,,0,,,59,0
39096,note_on,,1,0,1,,,,,,,,,0,,,62,95
39096,note_on,,3,0,2,,,,,,,,,1,,,56,95
39101,note_on,,5,0,1,,,,,,,,,0,,,62,0
39102,note_on,,1,0,1,,,,,,,,,0,,,59,95
39107,note_on,,5,0,1,,,,,,,,,0,,,59,0
39108,note_on,,1,0,1,,,,,,,,,0,,,57,95
39113,note_on,,5,0,1,,,,,,,,,0,,,57,0
39114,note_on,,1,0,1,,,,,,,,,0,,,59,95
39117,note_on,,21,0,2,,,,,,,,,1,,,56,0
39119,note_on,,5,0,1,,,,,,,,,0,,,59,0
39120,note_on,,1,0,1,,,,,,,,,0,,,62,95
39120,note_on,,3,0,2,,,,,,,,,1,,,53,95
39125,note_on,,5,0,1,,,,,,,,,0,,,62,0
39126,note_on,,1,0,1,,,,,,,,,0,,,59,95
39131,note_on,,5,0,1,,,,,,,,,0,,,59,0
39132,note_on,,1,0,1,,,,,,,,,0,,,57,95
39137,note_on,,5,0,1,,,,,,,,,0,,,57,0
39138,note_on,,1,0,1,,,,,,,,,0,,,59,95
39141,note_on,,21,0,2,,,,,,,,,1,,,53,0
39143,note_on,,5,0,1,,,,,,,,,0,,,59,0
39144,note_on,,3,0,2,,,,,,,,,1,,,50,95
39144,note_on,,1,0,1,,,,,,,,,0,,,62,95
39149,note_on,,5,0,1,,,,,,,,,0,,,62,0
39150,note_on,,1,0,1,,,,,,,,,0,,,59,95
39155,note_on,,5,0,1,,,,,,,,,0,,,59,0
39156,note_on,,1,0,1,,,,,,,,,0,,,57,95
39161,note_on,,5,0,1,,,,,,,,,0,,,57,0
39162,note_on,,1,0,1,,,,,,,,,0,,,59,95
39165,note_on,,21,0,2,,,,,,,,,1,,,50,0
39167,note_on,,5,0,1,,,,,,,,,0,,,59,0
39168,note_on,,1,0,1,,,,,,,,,0,,,62,95
39168,note_on,,3,0,2,,,,,,,,,1,,,45,95
39173,note_on,,5,0,1,,,,,,,,,0,,,62,0
39174,note_on,,1,0,1,,,,,,,,,0,,,59,95
39179,note_on,,5,0,1,,,,,,,,,0,,,59,0
39180,note_on,,1,0,1,,,,,,,,,0,,,57,95
39185,note_on,,5,0,1,,,,,,,,,0,,,57,0
39186,note_on,,1,0,1,,,,,,,,,0,,,59,95
39189,note_on,,21,0,2,,,,,,,,,1,,,45,0
39191,note_on,,5,0,1,,,,,,,,,0,,,59,0
39192,note_on,,1,0,1,,,,,,,,,0,,,62,95
39192,note_on,,3,0,2,,,,,,,,,1,,,56,95
39197,note_on,,5,0,1,,,,,,,,,0,,,62,0
39198,note_on,,1,0,1,,,,,,,,,0,,,59,95
39203,note_on,,5,0,1,,,,,,,,,0,,,59,0
39204,note_on,,1,0,1,,,,,,,,,0,,,57,95
39209,note_on,,5,0,1,,,,,,,,,0,,,57,0
39210,note_on,,1,0,1,,,,,,,,,0,,,59,95
39213,note_on,,21,0,2,,,,,,,,,1,,,56,0
39215,note_on,,5,0,1,,,,,,,,,0,,,59,0
39216,note_on,,3,0,2,,,,,,,,,1,,,53,95
39216,note_on,,1,0,1,,,,,,,,,0,,,62,95
39221,note_on,,5,0,1,,,,,,,,,0,,,62,0
39222,note_on,,1,0,1,,,,,,,,,0,,,59,95
39227,note_on,,5,0,1,,,,,,,,,0,,,59,0
39228,note_on,,1,0,1,,,,,,,,,0,,,57,95
39233,note_on,,5,0,1,,,,,,,,,0,,,57,0
39234,note_on,,1,0,1,,,,,,,,,0,,,59,95
39237,note_on,,21,0,2,,,,,,,,,1,,,53,0
39239,note_on,,5,0,1,,,,,,,,,0,,,59,0
39240,note_on,,1,0,1,,,,,,,,,0,,,62,95
39240,note_on,,3,0,2,,,,,,,,,1,,,50,95
39245,note_on,,5,0,1,,,,,,,,,0,,,62,0
39246,note_on,,1,0,1,,,,,,,,,0,,,59,95
39251,note_on,,5,0,1,,,,,,,,,0,,,59,0
39252,note_on,,1,0,1,,,,,,,,,0,,,57,95
39257,note_on,,5,0,1,,,,,,,,,0,,,57,0
39258,note_on,,1,0,1,,,,,,,,,0,,,59,95
39261,note_on,,21,0,2,,,,,,,,,1,,,50,0
39263,note_on,,5,0,1,,,,,,,,,0,,,59,0
39264,note_on,,1,0,1,,,,,,,,,0,,,64,95
39264,note_on,,3,0,2,,,,,,,,,1,,,45,95
39269,note_on,,5,0,1,,,,,,,,,0,,,64,0
39270,note_on,,1,0,1,,,,,,,,,0,,,61,95
39275,note_on,,5,0,1,,,,,,,,,0,,,61,0
39276,note_on,,1,0,1,,,,,,,,,0,,,59,95
39281,note_on,,5,0,1,,,,,,,,,0,,,59,0
39282,note_on,,1,0,1,,,,,,,,,0,,,61,95
39285,note_on,,21,0,2,,,,,,,,,1,,,45,0
39287,note_on,,5,0,1,,,,,,,,,0,,,61,0
39288,note_on,,1,0,1,,,,,,,,,0,,,64,95
39288,note_on,,3,0,2,,,,,,,,,1,,,58,95
39293,note_on,,5,0,1,,,,,,,,,0,,,64,0
39294,note_on,,1,0,1,,,,,,,,,0,,,61,95
39299,note_on,,5,0,1,,,,,,,,,0,,,61,0
39300,note_on,,1,0,1,,,,,,,,,0,,,59,95
39305,note_on,,5,0,1,,,,,,,,,0,,,59,0
39306,note_on,,1,0,1,,,,,,,,,0,,,61,95
39309,note_on,,21,0,2,,,,,,,,,1,,,58,0
39311,note_on,,5,0,1,,,,,,,,,0,,,61,0
39312,note_on,,1,0,1,,,,,,,,,0,,,64,95
39312,note_on,,3,0,2,,,,,,,,,1,,,55,95
39317,note_on,,5,0,1,,,,,,,,,0,,,64,0
39318,note_on,,1,0,1,,,,,,,,,0,,,61,95
39323,note_on,,5,0,1,,,,,,,,,0,,,61,0
39324,note_on,,1,0,1,,,,,,,,,0,,,59,95
39329,note_on,,5,0,1,,,,,,,,,0,,,59,0
39330,note_on,,1,0,1,,,,,,,,,0,,,61,95
39333,note_on,,21,0,2,,,,,,,,,1,,,55,0
39335,note_on,,5,0,1,,,,,,,,,0,,,61,0
39336,note_on,,1,0,1,,,,,,,,,0,,,64,95
39336,note_on,,3,0,2,,,,,,,,,1,,,52,95
39341,note_on,,5,0,1,,,,,,,,,0,,,64,0
39342,note_on,,1,0,1,,,,,,,,,0,,,61,95
39347,note_on,,5,0,1,,,,,,,,,0,,,61,0
39348,note_on,,1,0,1,,,,,,,,,0,,,59,95
39353,note_on,,5,0,1,,,,,,,,,0,,,59,0
39354,note_on,,1,0,1,,,,,,,,,0,,,61,95
39357,note_on,,21,0,2,,,,,,,,,1,,,52,0
39359,note_on,,5,0,1,,,,,,,,,0,,,61,0
39360,note_on,,3,0,2,,,,,,,,,1,,,45,95
39360,note_on,,1,0,1,,,,,,,,,0,,,64,95
39365,note_on,,5,0,1,,,,,,,,,0,,,64,0
39366,note_on,,1,0,1,,,,,,,,,0,,,61,95
39371,note_on,,5,0,1,,,,,,,,,0,,,61,0
39372,note_on,,1,0,1,,,,,,,,,0,,,59,95
39377,note_on,,5,0,1,,,,,,,,,0,,,59,0
39378,note_on,,1,0,1,,,,,,,,,0,,,61,95
39381,note_on,,21,0,2,,,,,,,,,1,,,45,0
39383,note_on,,5,0,1,,,,,,,,,0,,,61,0
39384,note_on,,3,0,2,,,,,,,,,1,,,58,95
39384,note_on,,1,0,1,,,,,,,,,0,,,64,95
39389,note_on,,5,0,1,,,,,,,,,0,,,64,0
39390,note_on,,1,0,1,,,,,,,,,0,,,61,95
39395,note_on,,5,0,1,,,,,,,,,0,,,61,0
39396,note_on,,1,0,1,,,,,,,,,0,,,59,95
39401,note_on,,5,0,1,,,,,,,,,0,,,59,0
39402,note_on,,1,0,1,,,,,,,,,0,,,61,95
39405,note_on,,21,0,2,,,,,,,,,1,,,58,0
39407,note_on,,5,0,1,,,,,,,,,0,,,61,0
39408,note_on,,3,0,2,,,,,,,,,1,,,55,95
39408,note_on,,1,0,1,,,,,,,,,0,,,64,95
39413,note_on,,5,0,1,,,,,,,,,0,,,64,0
39414,note_on,,1,0,1,,,,,,,,,0,,,61,95
39419,note_on,,5,0,1,,,,,,,,,0,,,61,0
39420,note_on,,1,0,1,,,,,,,,,0,,,59,95
39425,note_on,,5,0,1,,,,,,,,,0,,,59,0
39426,note_on,,1,0,1,,,,,,,,,0,,,61,95
39429,note_on,,21,0,2,,,,,,,,,1,,,55,0
39431,note_on,,5,0,1,,,,,,,,,0,,,61,0
39432,note_on,,1,0,1,,,,,,,,,0,,,64,95
39432,note_on,,3,0,2,,,,,,,,,1,,,52,95
39437,note_on,,5,0,1,,,,,,,,,0,,,64,0
39438,note_on,,1,0,1,,,,,,,,,0,,,61,95
39443,note_on,,5,0,1,,,,,,,,,0,,,61,0
39444,note_on,,1,0,1,,,,,,,,,0,,,59,95
39449,note_on,,5,0,1,,,,,,,,,0,,,59,0
39450,note_on,,1,0,1,,,,,,,,,0,,,61,95
39453,note_on,,21,0,2,,,,,,,,,1,,,52,0
39455,note_on,,5,0,1,,,,,,,,,0,,,61,0
39456,note_on,,3,0,2,,,,,,,,,1,,,45,95
39456,note_on,,1,0,1,,,,,,,,,0,,,65,95
39461,note_on,,5,0,1,,,,,,,,,0,,,65,0
39462,note_on,,1,0,1,,,,,,,,,0,,,62,95
39467,note_on,,5,0,1,,,,,,,,,0,,,62,0
39468,note_on,,1,0,1,,,,,,,,,0,,,61,95
39473,note_on,,5,0,1,,,,,,,,,0,,,61,0
39474,note_on,,1,0,1,,,,,,,,,0,,,62,95
39477,note_on,,21,0,2,,,,,,,,,1,,,45,0
39479,note_on,,5,0,1,,,,,,,,,0,,,62,0
39480,note_on,,3,0,2,,,,,,,,,1,,,59,95
39480,note_on,,1,0,1,,,,,,,,,0,,,65,95
39485,note_on,,5,0,1,,,,,,,,,0,,,65,0
39486,note_on,,1,0,1,,,,,,,,,0,,,62,95
39491,note_on,,5,0,1,,,,,,,,,0,,,62,0
39492,note_on,,1,0,1,,,,,,,,,0,,,61,95
39497,note_on,,5,0,1,,,,,,,,,0,,,61,0
39498,note_on,,1,0,1,,,,,,,,,0,,,62,95
39501,note_on,,21,0,2,,,,,,,,,1,,,59,0
39503,note_on,,5,0,1,,,,,,,,,0,,,62,0
39504,note_on,,1,0,1,,,,,,,,,0,,,65,95
39504,note_on,,3,0,2,,,,,,,,,1,,,56,95
39509,note_on,,5,0,1,,,,,,,,,0,,,65,0
39510,note_on,,1,0,1,,,,,,,,,0,,,62,95
39515,note_on,,5,0,1,,,,,,,,,0,,,62,0
39516,note_on,,1,0,1,,,,,,,,,0,,,61,95
39521,note_on,,5,0,1,,,,,,,,,0,,,61,0
39522,note_on,,1,0,1,,,,,,,,,0,,,62,95
39525,note_on,,21,0,2,,,,,,,,,1,,,56,0
39527,note_on,,5,0,1,,,,,,,,,0,,,62,0
39528,note_on,,3,0,2,,,,,,,,,1,,,53,95
39528,note_on,,1,0,1,,,,,,,,,0,,,65,95
39533,note_on,,5,0,1,,,,,,,,,0,,,65,0
39534,note_on,,1,0,1,,,,,,,,,0,,,62,95
39539,note_on,,5,0,1,,,,,,,,,0,,,62,0
39540,note_on,,1,0,1,,,,,,,,,0,,,61,95
39545,note_on,,5,0,1,,,,,,,,,0,,,61,0
39546,note_on,,1,0,1,,,,,,,,,0,,,62,95
39549,note_on,,21,0,2,,,,,,,,,1,,,53,0
39551,note_on,,5,0,1,,,,,,,,,0,,,62,0
39552,note_on,,3,0,2,,,,,,,,,1,,,45,95
39552,note_on,,1,0,1,,,,,,,,,0,,,65,95
39557,note_on,,5,0,1,,,,,,,,,0,,,65,0
39558,note_on,,1,0,1,,,,,,,,,0,,,62,95
39563,note_on,,5,0,1,,,,,,,,,0,,,62,0
39564,note_on,,1,0,1,,,,,,,,,0,,,61,95
39569,note_on,,5,0,1,,,,,,,,,0,,,61,0
39570,note_on,,1,0,1,,,,,,,,,0,,,62,95
39573,note_on,,21,0,2,,,,,,,,,1,,,45,0
39575,note_on,,5,0,1,,,,,,,,,0,,,62,0
39576,note_on,,1,0,1,,,,,,,,,0,,,65,95
39576,note_on,,3,0,2,,,,,,,,,1,,,59,95
39581,note_on,,5,0,1,,,,,,,,,0,,,65,0
39582,note_on,,1,0,1,,,,,,,,,0,,,62,95
39587,note_on,,5,0,1,,,,,,,,,0,,,62,0
39588,note_on,,1,0,1,,,,,,,,,0,,,61,95
39593,note_on,,5,0,1,,,,,,,,,0,,,61,0
39594,note_on,,1,0,1,,,,,,,,,0,,,62,95
39597,note_on,,21,0,2,,,,,,,,,1,,,59,0
39599,note_on,,5,0,1,,,,,,,,,0,,,62,0
39600,note_on,,1,0,1,,,,,,,,,0,,,65,95
39600,note_on,,3,0,2,,,,,,,,,1,,,56,95
39605,note_on,,5,0,1,,,,,,,,,0,,,65,0
39606,note_on,,1,0,1,,,,,,,,,0,,,62,95
39611,note_on,,5,0,1,,,,,,,,,0,,,62,0
39612,note_on,,1,0,1,,,,,,,,,0,,,61,95
39617,note_on,,5,0,1,,,,,,,,,0,,,61,0
39618,note_on,,1,0,1,,,,,,,,,0,,,62,95
39621,note_on,,21,0,2,,,,,,,,,1,,,56,0
39623,note_on,,5,0,1,,,,,,,,,0,,,62,0
39624,note_on,,1,0,1,,,,,,,,,0,,,65,95
39624,note_on,,3,0,2,,,,,,,,,1,,,53,95
39629,note_on,,5,0,1,,,,,,,,,0,,,65,0
39630,note_on,,1,0,1,,,,,,,,,0,,,62,95
39635,note_on,,5,0,1,,,,,,,,,0,,,62,0
39636,note_on,,1,0,1,,,,,,,,,0,,,61,95
39641,note_on,,5,0,1,,,,,,,,,0,,,61,0
39642,note_on,,1,0,1,,,,,,,,,0,,,62,95
39645,note_on,,21,0,2,,,,,,,,,1,,,53,0
39647,note_on,,5,0,1,,,,,,,,,0,,,62,0
39648,note_on,,1,0,1,,,,,,,,,0,,,67,95
39648,note_on,,3,0,2,,,,,,,,,1,,,45,95
39653,note_on,,5,0,1,,,,,,,,,0,,,67,0
39654,note_on,,1,0,1,,,,,,,,,0,,,64,95
39659,note_on,,5,0,1,,,,,,,,,0,,,64,0
39660,note_on,,1,0,1,,,,,,,,,0,,,63,95
39665,note_on,,5,0,1,,,,,,,,,0,,,63,0
39666,note_on,,1,0,1,,,,,,,,,0,,,64,95
39669,note_on,,21,0,2,,,,,,,,,1,,,45,0
39671,note_on,,5,0,1,,,,,,,,,0,,,64,0
39672,note_on,,3,0,2,,,,,,,,,1,,,61,95
39672,note_on,,1,0,1,,,,,,,,,0,,,67,95
39677,note_on,,5,0,1,,,,,,,,,0,,,67,0
39678,note_on,,1,0,1,,,,,,,,,0,,,64,95
39683,note_on,,5,0,1,,,,,,,,,0,,,64,0
39684,note_on,,1,0,1,,,,,,,,,0,,,63,95
39689,note_on,,5,0,1,,,,,,,,,0,,,63,0
39690,note_on,,1,0,1,,,,,,,,,0,,,64,95
39693,note_on,,21,0,2,,,,,,,,,1,,,61,0
39695,note_on,,5,0,1,,,,,,,,,0,,,64,0
39696,note_on,,3,0,2,,,,,,,,,1,,,58,95
39696,note_on,,1,0,1,,,,,,,,,0,,,67,95
39701,note_on,,5,0,1,,,,,,,,,0,,,67,0
39702,note_on,,1,0,1,,,,,,,,,0,,,64,95
39707,note_on,,5,0,1,,,,,,,,,0,,,64,0
39708,note_on,,1,0,1,,,,,,,,,0,,,63,95
39713,note_on,,5,0,1,,,,,,,,,0,,,63,0
39714,note_on,,1,0,1,,,,,,,,,0,,,64,95
39717,note_on,,21,0,2,,,,,,,,,1,,,58,0
39719,note_on,,5,0,1,,,,,,,,,0,,,64,0
39720,note_on,,1,0,1,,,,,,,,,0,,,67,95
39720,note_on,,3,0,2,,,,,,,,,1,,,55,95
39725,note_on,,5,0,1,,,,,,,,,0,,,67,0
39726,note_on,,1,0,1,,,,,,,,,0,,,64,95
39731,note_on,,5,0,1,,,,,,,,,0,,,64,0
39732,note_on,,1,0,1,,,,,,,,,0,,,63,95
39737,note_on,,5,0,1,,,,,,,,,0,,,63,0
39738,note_on,,1,0,1,,,,,,,,,0,,,64,95
39741,note_on,,21,0,2,,,,,,,,,1,,,55,0
39743,note_on,,5,0,1,,,,,,,,,0,,,64,0
39744,note_on,,3,0,2,,,,,,,,,1,,,45,95
39744,note_on,,1,0,1,,,,,,,,,0,,,67,95
39749,note_on,,5,0,1,,,,,,,,,0,,,67,0
39750,note_on,,1,0,1,,,,,,,,,0,,,64,95
39755,note_on,,5,0,1,,,,,,,,,0,,,64,0
39756,note_on,,1,0,1,,,,,,,,,0,,,63,95
39761,note_on,,5,0,1,,,,,,,,,0,,,63,0
39762,note_on,,1,0,1,,,,,,,,,0,,,64,95
39765,note_on,,21,0,2,,,,,,,,,1,,,45,0
39767,note_on,,5,0,1,,,,,,,,,0,,,64,0
39768,note_on,,1,0,1,,,,,,,,,0,,,67,95
39768,note_on,,3,0,2,,,,,,,,,1,,,61,95
39773,note_on,,5,0,1,,,,,,,,,0,,,67,0
39774,note_on,,1,0,1,,,,,,,,,0,,,64,95
39779,note_on,,5,0,1,,,,,,,,,0,,,64,0
39780,note_on,,1,0,1,,,,,,,,,0,,,63,95
39785,note_on,,5,0,1,,,,,,,,,0,,,63,0
39786,note_on,,1,0,1,,,,,,,,,0,,,64,95
39789,note_on,,21,0,2,,,,,,,,,1,,,61,0
39791,note_on,,5,0,1,,,,,,,,,0,,,64,0
39792,note_on,,1,0,1,,,,,,,,,0,,,67,95
39792,note_on,,3,0,2,,,,,,,,,1,,,58,95
39797,note_on,,5,0,1,,,,,,,,,0,,,67,0
39798,note_on,,1,0,1,,,,,,,,,0,,,64,95
39803,note_on,,5,0,1,,,,,,,,,0,,,64,0
39804,note_on,,1,0,1,,,,,,,,,0,,,63,95
39809,note_on,,5,0,1,,,,,,,,,0,,,63,0
39810,note_on,,1,0,1,,,,,,,,,0,,,64,95
39813,note_on,,21,0,2,,,,,,,,,1,,,58,0
39815,note_on,,5,0,1,,,,,,,,,0,,,64,0
39816,note_on,,1,0,1,,,,,,,,,0,,,67,95
39816,note_on,,3,0,2,,,,,,,,,1,,,55,95
39821,note_on,,5,0,1,,,,,,,,,0,,,67,0
39822,note_on,,1,0,1,,,,,,,,,0,,,64,95
39827,note_on,,5,0,1,,,,,,,,,0,,,64,0
39828,note_on,,1,0,1,,,,,,,,,0,,,63,95
39833,note_on,,5,0,1,,,,,,,,,0,,,63,0
39834,note_on,,1,0,1,,,,,,,,,0,,,64,95
39837,note_on,,21,0,2,,,,,,,,,1,,,55,0
39839,note_on,,5,0,1,,,,,,,,,0,,,64,0
39840,note_on,,3,0,2,,,,,,,,,1,,,45,95
39840,note_on,,1,0,1,,,,,,,,,0,,,69,95
39845,note_on,,5,0,1,,,,,,,,,0,,,69,0
39846,note_on,,1,0,1,,,,,,,,,0,,,65,95
39851,note_on,,5,0,1,,,,,,,,,0,,,65,0
39852,note_on,,1,0,1,,,,,,,,,0,,,64,95
39857,note_on,,5,0,1,,,,,,,,,0,,,64,0
39858,note_on,,1,0,1,,,,,,,,,0,,,65,95
39861,note_on,,21,0,2,,,,,,,,,1,,,45,0
39863,note_on,,5,0,1,,,,,,,,,0,,,65,0
39864,note_on,,1,0,1,,,,,,,,,0,,,69,95
39864,note_on,,3,0,2,,,,,,,,,1,,,62,95
39869,note_on,,5,0,1,,,,,,,,,0,,,69,0
39870,note_on,,1,0,1,,,,,,,,,0,,,65,95
39875,note_on,,5,0,1,,,,,,,,,0,,,65,0
39876,note_on,,1,0,1,,,,,,,,,0,,,64,95
39881,note_on,,5,0,1,,,,,,,,,0,,,64,0
39882,note_on,,1,0,1,,,,,,,,,0,,,65,95
39885,note_on,,21,0,2,,,,,,,,,1,,,62,0
39887,note_on,,5,0,1,,,,,,,,,0,,,65,0
39888,note_on,,1,0,1,,,,,,,,,0,,,69,95
39888,note_on,,3,0,2,,,,,,,,,1,,,57,95
39893,note_on,,5,0,1,,,,,,,,,0,,,69,0
39894,note_on,,1,0,1,,,,,,,,,0,,,65,95
39899,note_on,,5,0,1,,,,,,,,,0,,,65,0
39900,note_on,,1,0,1,,,,,,,,,0,,,64,95
39905,note_on,,5,0,1,,,,,,,,,0,,,64,0
39906,note_on,,1,0,1,,,,,,,,,0,,,65,95
39909,note_on,,21,0,2,,,,,,,,,1,,,57,0
39911,note_on,,5,0,1,,,,,,,,,0,,,65,0
39912,note_on,,3,0,2,,,,,,,,,1,,,53,95
39912,note_on,,1,0,1,,,,,,,,,0,,,69,95
39917,note_on,,5,0,1,,,,,,,,,0,,,69,0
39918,note_on,,1,0,1,,,,,,,,,0,,,65,95
39923,note_on,,5,0,1,,,,,,,,,0,,,65,0
39924,note_on,,1,0,1,,,,,,,,,0,,,64,95
39929,note_on,,5,0,1,,,,,,,,,0,,,64,0
39930,note_on,,1,0,1,,,,,,,,,0,,,65,95
39933,note_on,,21,0,2,,,,,,,,,1,,,53,0
39935,note_on,,5,0,1,,,,,,,,,0,,,65,0
39936,note_on,,1,0,1,,,,,,,,,0,,,69,95
39936,note_on,,3,0,2,,,,,,,,,1,,,45,95
39941,note_on,,5,0,1,,,,,,,,,0,,,69,0
39942,note_on,,1,0,1,,,,,,,,,0,,,65,95
39947,note_on,,5,0,1,,,,,,,,,0,,,65,0
39948,note_on,,1,0,1,,,,,,,,,0,,,64,95
39953,note_on,,5,0,1,,,,,,,,,0,,,64,0
39954,note_on,,1,0,1,,,,,,,,,0,,,65,95
39957,note_on,,21,0,2,,,,,,,,,1,,,45,0
39959,note_on,,5,0,1,,,,,,,,,0,,,65,0
39960,note_on,,3,0,2,,,,,,,,,1,,,57,95
39960,note_on,,1,0,1,,,,,,,,,0,,,69,95
39965,note_on,,5,0,1,,,,,,,,,0,,,69,0
39966,note_on,,1,0,1,,,,,,,,,0,,,65,95
39971,note_on,,5,0,1,,,,,,,,,0,,,65,0
39972,note_on,,1,0,1,,,,,,,,,0,,,64,95
39977,note_on,,5,0,1,,,,,,,,,0,,,64,0
39978,note_on,,1,0,1,,,,,,,,,0,,,65,95
39981,note_on,,21,0,2,,,,,,,,,1,,,57,0
39983,note_on,,5,0,1,,,,,,,,,0,,,65,0
39984,note_on,,3,0,2,,,,,,,,,1,,,53,95
39984,note_on,,1,0,1,,,,,,,,,0,,,69,95
39989,note_on,,5,0,1,,,,,,,,,0,,,69,0
39990,note_on,,1,0,1,,,,,,,,,0,,,65,95
39995,note_on,,5,0,1,,,,,,,,,0,,,65,0
39996,note_on,,1,0,1,,,,,,,,,0,,,64,95
40001,note_on,,5,0,1,,,,,,,,,0,,,64,0
40002,note_on,,1,0,1,,,,,,,,,0,,,65,95
40005,note_on,,21,0,2,,,,,,,,,1,,,53,0
40007,note_on,,5,0,1,,,,,,,,,0,,,65,0
40008,note_on,,1,0,1,,,,,,,,,0,,,69,95
40008,note_on,,3,0,2,,,,,,,,,1,,,50,95
40013,note_on,,5,0,1,,,,,,,,,0,,,69,0
40014,note_on,,1,0,1,,,,,,,,,0,,,65,95
40019,note_on,,5,0,1,,,,,,,,,0,,,65,0
40020,note_on,,1,0,1,,,,,,,,,0,,,64,95
40025,note_on,,5,0,1,,,,,,,,,0,,,64,0
40026,note_on,,1,0,1,,,,,,,,,0,,,65,95
40029,note_on,,21,0,2,,,,,,,,,1,,,50,0
40031,note_on,,5,0,1,,,,,,,,,0,,,65,0
40032,note_on,,1,0,1,,,,,,,,,0,,,70,95
40032,note_on,,3,0,2,,,,,,,,,1,,,45,95
40039,note_on,,7,0,1,,,,,,,,,0,,,70,0
40040,note_on,,1,0,1,,,,,,,,,0,,,67,95
40047,note_on,,7,0,1,,,,,,,,,0,,,67,0
40048,note_on,,1,0,1,,,,,,,,,0,,,65,95
40053,note_on,,21,0,2,,,,,,,,,1,,,45,0
40055,note_on,,7,0,1,,,,,,,,,0,,,65,0
40056,note_on,,1,0,1,,,,,,,,,0,,,64,95
40056,note_on,,3,0,2,,,,,,,,,1,,,61,95
40063,note_on,,7,0,1,,,,,,,,,0,,,64,0
40064,note_on,,1,0,1,,,,,,,,,0,,,65,95
40071,note_on,,7,0,1,,,,,,,,,0,,,65,0
40072,note_on,,1,0,1,,,,,,,,,0,,,67,95
40077,note_on,,21,0,2,,,,,,,,,1,,,61,0
40079,note_on,,7,0,1,,,,,,,,,0,,,67,0
40080,note_on,,1,0,1,,,,,,,,,0,,,70,95
40080,note_on,,3,0,2,,,,,,,,,1,,,45,95
40087,note_on,,7,0,1,,,,,,,,,0,,,70,0
40088,note_on,,1,0,1,,,,,,,,,0,,,67,95
40095,note_on,,7,0,1,,,,,,,,,0,,,67,0
40096,note_on,,1,0,1,,,,,,,,,0,,,65,95
40101,note_on,,21,0,2,,,,,,,,,1,,,45,0
40103,note_on,,7,0,1,,,,,,,,,0,,,65,0
40104,note_on,,3,0,2,,,,,,,,,1,,,61,95
40104,note_on,,1,0,1,,,,,,,,,0,,,64,95
40111,note_on,,7,0,1,,,,,,,,,0,,,64,0
40112,note_on,,1,0,1,,,,,,,,,0,,,65,95
40119,note_on,,7,0,1,,,,,,,,,0,,,65,0
40120,note_on,,1,0,1,,,,,,,,,0,,,67,95
40125,note_on,,21,0,2,,,,,,,,,1,,,61,0
40127,note_on,,7,0,1,,,,,,,,,0,,,67,0
40128,note_on,,1,0,1,,,,,,,,,0,,,70,95
40128,note_on,,3,0,2,,,,,,,,,1,,,45,95
40135,note_on,,7,0,1,,,,,,,,,0,,,70,0
40136,note_on,,1,0,1,,,,,,,,,0,,,67,95
40143,note_on,,7,0,1,,,,,,,,,0,,,67,0
40144,note_on,,1,0,1,,,,,,,,,0,,,65,95
40149,note_on,,21,0,2,,,,,,,,,1,,,45,0
40151,note_on,,7,0,1,,,,,,,,,0,,,65,0
40152,note_on,,3,0,2,,,,,,,,,1,,,61,95
40152,note_on,,1,0,1,,,,,,,,,0,,,64,95
40159,note_on,,7,0,1,,,,,,,,,0,,,64,0
40160,note_on,,1,0,1,,,,,,,,,0,,,65,95
40167,note_on,,7,0,1,,,,,,,,,0,,,65,0
40168,note_on,,1,0,1,,,,,,,,,0,,,67,95
40173,note_on,,21,0,2,,,,,,,,,1,,,61,0
40175,note_on,,7,0,1,,,,,,,,,0,,,67,0
40176,note_on,,1,0,1,,,,,,,,,0,,,70,95
40176,note_on,,3,0,2,,,,,,,,,1,,,45,95
40183,note_on,,7,0,1,,,,,,,,,0,,,70,0
40184,note_on,,1,0,1,,,,,,,,,0,,,67,95
40191,note_on,,7,0,1,,,,,,,,,0,,,67,0
40192,note_on,,1,0,1,,,,,,,,,0,,,65,95
40197,note_on,,21,0,2,,,,,,,,,1,,,45,0
40199,note_on,,7,0,1,,,,,,,,,0,,,65,0
40200,note_on,,1,0,1,,,,,,,,,0,,,64,95
40200,note_on,,3,0,2,,,,,,,,,1,,,61,95
40207,note_on,,7,0,1,,,,,,,,,0,,,64,0
40208,note_on,,1,0,1,,,,,,,,,0,,,65,95
40215,note_on,,7,0,1,,,,,,,,,0,,,65,0
40216,note_on,,1,0,1,,,,,,,,,0,,,67,95
40221,note_on,,21,0,2,,,,,,,,,1,,,61,0
40223,note_on,,7,0,1,,,,,,,,,0,,,67,0
40224,note_on,,3,0,2,,,,,,,,,1,,,45,95
40224,note_on,,1,0,1,,,,,,,,,0,,,69,95
40231,note_on,,7,0,1,,,,,,,,,0,,,69,0
40232,note_on,,1,0,1,,,,,,,,,0,,,65,95
40239,note_on,,7,0,1,,,,,,,,,0,,,65,0
40240,note_on,,1,0,1,,,,,,,,,0,,,64,95
40245,note_on,,21,0,2,,,,,,,,,1,,,45,0
40247,note_on,,7,0,1,,,,,,,,,0,,,64,0
40248,note_on,,1,0,1,,,,,,,,,0,,,65,95
40248,note_on,,3,0,2,,,,,,,,,1,,,62,95
40255,note_on,,7,0,1,,,,,,,,,0,,,65,0
40256,note_on,,1,0,1,,,,,,,,,0,,,67,95
40263,note_on,,7,0,1,,,,,,,,,0,,,67,0
40264,note_on,,1,0,1,,,,,,,,,0,,,69,95
40269,note_on,,21,0,2,,,,,,,,,1,,,62,0
40271,note_on,,7,0,1,,,,,,,,,0,,,69,0
40272,note_on,,3,0,2,,,,,,,,,1,,,45,95
40272,note_on,,1,0,1,,,,,,,,,0,,,74,95
40279,note_on,,7,0,1,,,,,,,,,0,,,74,0
40280,note_on,,1,0,1,,,,,,,,,0,,,69,95
40287,note_on,,7,0,1,,,,,,,,,0,,,69,0
40288,note_on,,1,0,1,,,,,,,,,0,,,67,95
40293,note_on,,21,0,2,,,,,,,,,1,,,45,0
40295,note_on,,7,0,1,,,,,,,,,0,,,67,0
40296,note_on,,3,0,2,,,,,,,,,1,,,62,95
40296,note_on,,1,0,1,,,,,,,,,0,,,65,95
40303,note_on,,7,0,1,,,,,,,,,0,,,65,0
40304,note_on,,1,0,1,,,,,,,,,0,,,67,95
40311,note_on,,7,0,1,,,,,,,,,0,,,67,0
40312,note_on,,1,0,1,,,,,,,,,0,,,69,95
40317,note_on,,21,0,2,,,,,,,,,1,,,62,0
40319,note_on,,7,0,1,,,,,,,,,0,,,69,0
40320,note_on,,1,0,1,,,,,,,,,0,,,74,95
40320,note_on,,3,0,2,,,,,,,,,1,,,45,95
40327,note_on,,7,0,1,,,,,,,,,0,,,74,0
40328,note_on,,1,0,1,,,,,,,,,0,,,69,95
40335,note_on,,7,0,1,,,,,,,,,0,,,69,0
40336,note_on,,1,0,1,,,,,,,,,0,,,67,95
40341,note_on,,21,0,2,,,,,,,,,1,,,45,0
40343,note_on,,7,0,1,,,,,,,,,0,,,67,0
40344,note_on,,1,0,1,,,,,,,,,0,,,65,95
40344,note_on,,3,0,2,,,,,,,,,1,,,62,95
40351,note_on,,7,0,1,,,,,,,,,0,,,65,0
40352,note_on,,1,0,1,,,,,,,,,0,,,67,95
40359,note_on,,7,0,1,,,,,,,,,0,,,67,0
40360,note_on,,1,0,1,,,,,,,,,0,,,69,95
40365,note_on,,21,0,2,,,,,,,,,1,,,62,0
40367,note_on,,7,0,1,,,,,,,,,0,,,69,0
40368,note_on,,1,0,1,,,,,,,,,0,,,74,95
40368,note_on,,3,0,2,,,,,,,,,1,,,45,95
40375,note_on,,7,0,1,,,,,,,,,0,,,74,0
40376,note_on,,1,0,1,,,,,,,,,0,,,69,95
40383,note_on,,7,0,1,,,,,,,,,0,,,69,0
40384,note_on,,1,0,1,,,,,,,,,0,,,67,95
40389,note_on,,21,0,2,,,,,,,,,1,,,45,0
40391,note_on,,7,0,1,,,,,,,,,0,,,67,0
40392,note_on,,1,0,1,,,,,,,,,0,,,65,95
40392,note_on,,3,0,2,,,,,,,,,1,,,62,95
40399,note_on,,7,0,1,,,,,,,,,0,,,65,0
40400,note_on,,1,0,1,,,,,,,,,0,,,67,95
40407,note_on,,7,0,1,,,,,,,,,0,,,67,0
40408,note_on,,1,0,1,,,,,,,,,0,,,69,95
40413,note_on,,21,0,2,,,,,,,,,1,,,62,0
40415,note_on,,7,0,1,,,,,,,,,0,,,69,0
40416,note_on,,3,0,2,,,,,,,,,1,,,45,95
40416,note_on,,1,0,1,,,,,,,,,0,,,74,95
40423,note_on,,7,0,1,,,,,,,,,0,,,74,0
40424,note_on,,1,0,1,,,,,,,,,0,,,65,95
40431,note_on,,7,0,1,,,,,,,,,0,,,65,0
40432,note_on,,1,0,1,,,,,,,,,0,,,64,95
40437,note_on,,21,0,2,,,,,,,,,1,,,45,0
40439,note_on,,7,0,1,,,,,,,,,0,,,64,0
40440,note_on,,1,0,1,,,,,,,,,0,,,62,95
40440,note_on,,3,0,2,,,,,,,,,1,,,56,95
40447,note_on,,7,0,1,,,,,,,,,0,,,62,0
40448,note_on,,1,0,1,,,,,,,,,0,,,64,95
40455,note_on,,7,0,1,,,,,,,,,0,,,64,0
40456,note_on,,1,0,1,,,,,,,,,0,,,65,95
40461,note_on,,21,0,2,,,,,,,,,1,,,56,0
40463,note_on,,7,0,1,,,,,,,,,0,,,65,0
40464,note_on,,3,0,2,,,,,,,,,1,,,45,95
40464,note_on,,1,0,1,,,,,,,,,0,,,74,95
40471,note_on,,7,0,1,,,,,,,,,0,,,74,0
40472,note_on,,1,0,1,,,,,,,,,0,,,65,95
40479,note_on,,7,0,1,,,,,,,,,0,,,65,0
40480,note_on,,1,0,1,,,,,,,,,0,,,64,95
40485,note_on,,21,0,2,,,,,,,,,1,,,45,0
40487,note_on,,7,0,1,,,,,,,,,0,,,64,0
40488,note_on,,1,0,1,,,,,,,,,0,,,62,95
40488,note_on,,3,0,2,,,,,,,,,1,,,56,95
40495,note_on,,7,0,1,,,,,,,,,0,,,62,0
40496,note_on,,1,0,1,,,,,,,,,0,,,64,95
40503,note_on,,7,0,1,,,,,,,,,0,,,64,0
40504,note_on,,1,0,1,,,,,,,,,0,,,65,95
40509,note_on,,21,0,2,,,,,,,,,1,,,56,0
40511,note_on,,7,0,1,,,,,,,,,0,,,65,0
40512,note_on,,3,0,2,,,,,,,,,1,,,45,95
40512,note_on,,1,0,1,,,,,,,,,0,,,74,95
40519,note_on,,7,0,1,,,,,,,,,0,,,74,0
40520,note_on,,1,0,1,,,,,,,,,0,,,65,95
40527,note_on,,7,0,1,,,,,,,,,0,,,65,0
40528,note_on,,1,0,1,,,,,,,,,0,,,64,95
40533,note_on,,21,0,2,,,,,,,,,1,,,45,0
40535,note_on,,7,0,1,,,,,,,,,0,,,64,0
40536,note_on,,3,0,2,,,,,,,,,1,,,56,95
40536,note_on,,1,0,1,,,,,,,,,0,,,62,95
40543,note_on,,7,0,1,,,,,,,,,0,,,62,0
40544,note_on,,1,0,1,,,,,,,,,0,,,64,95
40551,note_on,,7,0,1,,,,,,,,,0,,,64,0
40552,note_on,,1,0,1,,,,,,,,,0,,,65,95
40557,note_on,,21,0,2,,,,,,,,,1,,,56,0
40559,note_on,,7,0,1,,,,,,,,,0,,,65,0
40560,note_on,,3,0,2,,,,,,,,,1,,,45,95
40560,note_on,,1,0,1,,,,,,,,,0,,,74,95
40567,note_on,,7,0,1,,,,,,,,,0,,,74,0
40568,note_on,,1,0,1,,,,,,,,,0,,,65,95
40575,note_on,,7,0,1,,,,,,,,,0,,,65,0
40576,note_on,,1,0,1,,,,,,,,,0,,,64,95
40581,note_on,,21,0,2,,,,,,,,,1,,,45,0
40583,note_on,,7,0,1,,,,,,,,,0,,,64,0
40584,note_on,,1,0,1,,,,,,,,,0,,,62,95
40584,note_on,,3,0,2,,,,,,,,,1,,,56,95
40591,note_on,,7,0,1,,,,,,,,,0,,,62,0
40592,note_on,,1,0,1,,,,,,,,,0,,,64,95
40599,note_on,,7,0,1,,,,,,,,,0,,,64,0
40600,note_on,,1,0,1,,,,,,,,,0,,,65,95
40605,note_on,,21,0,2,,,,,,,,,1,,,56,0
40607,note_on,,7,0,1,,,,,,,,,0,,,65,0
40608,note_on,,1,0,1,,,,,,,,,0,,,74,95
40608,note_on,,3,0,2,,,,,,,,,1,,,45,95
40615,note_on,,7,0,1,,,,,,,,,0,,,74,0
40616,note_on,,1,0,1,,,,,,,,,0,,,67,95
40623,note_on,,7,0,1,,,,,,,,,0,,,67,0
40624,note_on,,1,0,1,,,,,,,,,0,,,66,95
40629,note_on,,21,0,2,,,,,,,,,1,,,45,0
40631,note_on,,7,0,1,,,,,,,,,0,,,66,0
40632,note_on,,1,0,1,,,,,,,,,0,,,64,95
40632,note_on,,3,0,2,,,,,,,,,1,,,55,95
40639,note_on,,7,0,1,,,,,,,,,0,,,64,0
40640,note_on,,1,0,1,,,,,,,,,0,,,66,95
40647,note_on,,7,0,1,,,,,,,,,0,,,66,0
40648,note_on,,1,0,1,,,,,,,,,0,,,67,95
40653,note_on,,21,0,2,,,,,,,,,1,,,55,0
40655,note_on,,7,0,1,,,,,,,,,0,,,67,0
40656,note_on,,1,0,1,,,,,,,,,0,,,74,95
40656,note_on,,3,0,2,,,,,,,,,1,,,45,95
40663,note_on,,7,0,1,,,,,,,,,0,,,74,0
40664,note_on,,1,0,1,,,,,,,,,0,,,67,95
40671,note_on,,7,0,1,,,,,,,,,0,,,67,0
40672,note_on,,1,0,1,,,,,,,,,0,,,66,95
40677,note_on,,21,0,2,,,,,,,,,1,,,45,0
40679,note_on,,7,0,1,,,,,,,,,0,,,66,0
40680,note_on,,3,0,2,,,,,,,,,1,,,55,95
40680,note_on,,1,0,1,,,,,,,,,0,,,64,95
40687,note_on,,7,0,1,,,,,,,,,0,,,64,0
40688,note_on,,1,0,1,,,,,,,,,0,,,66,95
40695,note_on,,7,0,1,,,,,,,,,0,,,66,0
40696,note_on,,1,0,1,,,,,,,,,0,,,67,95
40701,note_on,,21,0,2,,,,,,,,,1,,,55,0
40703,note_on,,7,0,1,,,,,,,,,0,,,67,0
40704,note_on,,1,0,1,,,,,,,,,0,,,74,95
40704,note_on,,3,0,2,,,,,,,,,1,,,45,95
40711,note_on,,7,0,1,,,,,,,,,0,,,74,0
40712,note_on,,1,0,1,,,,,,,,,0,,,67,95
40719,note_on,,7,0,1,,,,,,,,,0,,,67,0
40720,note_on,,1,0,1,,,,,,,,,0,,,66,95
40725,note_on,,21,0,2,,,,,,,,,1,,,45,0
40727,note_on,,7,0,1,,,,,,,,,0,,,66,0
40728,note_on,,1,0,1,,,,,,,,,0,,,64,95
40728,note_on,,3,0,2,,,,,,,,,1,,,55,95
40735,note_on,,7,0,1,,,,,,,,,0,,,64,0
40736,note_on,,1,0,1,,,,,,,,,0,,,66,95
40743,note_on,,7,0,1,,,,,,,,,0,,,66,0
40744,note_on,,1,0,1,,,,,,,,,0,,,67,95
40749,note_on,,21,0,2,,,,,,,,,1,,,55,0
40751,note_on,,7,0,1,,,,,,,,,0,,,67,0
40752,note_on,,3,0,2,,,,,,,,,1,,,45,95
40752,note_on,,1,0,1,,,,,,,,,0,,,74,95
40759,note_on,,7,0,1,,,,,,,,,0,,,74,0
40760,note_on,,1,0,1,,,,,,,,,0,,,67,95
40767,note_on,,7,0,1,,,,,,,,,0,,,67,0
40768,note_on,,1,0,1,,,,,,,,,0,,,66,95
40773,note_on,,21,0,2,,,,,,,,,1,,,45,0
40775,note_on,,7,0,1,,,,,,,,,0,,,66,0
40776,note_on,,3,0,2,,,,,,,,,1,,,55,95
40776,note_on,,1,0,1,,,,,,,,,0,,,64,95
40783,note_on,,7,0,1,,,,,,,,,0,,,64,0
40784,note_on,,1,0,1,,,,,,,,,0,,,66,95
40791,note_on,,7,0,1,,,,,,,,,0,,,66,0
40792,note_on,,1,0,1,,,,,,,,,0,,,67,95
40797,note_on,,21,0,2,,,,,,,,,1,,,55,0
40799,note_on,,7,0,1,,,,,,,,,0,,,67,0
40800,note_on,,1,0,1,,,,,,,,,0,,,73,95
40800,note_on,,3,0,2,,,,,,,,,1,,,45,95
40807,note_on,,7,0,1,,,,,,,,,0,,,73,0
40808,note_on,,1,0,1,,,,,,,,,0,,,67,95
40815,note_on,,7,0,1,,,,,,,,,0,,,67,0
40816,note_on,,1,0,1,,,,,,,,,0,,,66,95
40821,note_on,,21,0,2,,,,,,,,,1,,,45,0
40823,note_on,,7,0,1,,,,,,,,,0,,,66,0
40824,note_on,,1,0,1,,,,,,,,,0,,,64,95
40824,note_on,,3,0,2,,,,,,,,,1,,,55,95
40831,note_on,,7,0,1,,,,,,,,,0,,,64,0
40832,note_on,,1,0,1,,,,,,,,,0,,,66,95
40839,note_on,,7,0,1,,,,,,,,,0,,,66,0
40840,note_on,,1,0,1,,,,,,,,,0,,,67,95
40845,note_on,,21,0,2,,,,,,,,,1,,,55,0
40847,note_on,,7,0,1,,,,,,,,,0,,,67,0
40848,note_on,,3,0,2,,,,,,,,,1,,,45,95
40848,note_on,,1,0,1,,,,,,,,,0,,,73,95
40855,note_on,,7,0,1,,,,,,,,,0,,,73,0
40856,note_on,,1,0,1,,,,,,,,,0,,,67,95
40863,note_on,,7,0,1,,,,,,,,,0,,,67,0
40864,note_on,,1,0,1,,,,,,,,,0,,,66,95
40869,note_on,,21,0,2,,,,,,,,,1,,,45,0
40871,note_on,,7,0,1,,,,,,,,,0,,,66,0
40872,note_on,,3,0,2,,,,,,,,,1,,,55,95
40872,note_on,,1,0,1,,,,,,,,,0,,,64,95
40879,note_on,,7,0,1,,,,,,,,,0,,,64,0
40880,note_on,,1,0,1,,,,,,,,,0,,,66,95
40887,note_on,,7,0,1,,,,,,,,,0,,,66,0
40888,note_on,,1,0,1,,,,,,,,,0,,,67,95
40893,note_on,,21,0,2,,,,,,,,,1,,,55,0
40895,note_on,,7,0,1,,,,,,,,,0,,,67,0
40896,note_on,,1,0,1,,,,,,,,,0,,,73,95
40896,note_on,,3,0,2,,,,,,,,,1,,,46,95
40903,note_on,,7,0,1,,,,,,,,,0,,,73,0
40904,note_on,,1,0,1,,,,,,,,,0,,,67,95
40911,note_on,,7,0,1,,,,,,,,,0,,,67,0
40912,note_on,,1,0,1,,,,,,,,,0,,,66,95
40917,note_on,,21,0,2,,,,,,,,,1,,,46,0
40919,note_on,,7,0,1,,,,,,,,,0,,,66,0
40920,note_on,,3,0,2,,,,,,,,,1,,,55,95
40920,note_on,,1,0,1,,,,,,,,,0,,,64,95
40927,note_on,,7,0,1,,,,,,,,,0,,,64,0
40928,note_on,,1,0,1,,,,,,,,,0,,,66,95
40935,note_on,,7,0,1,,,,,,,,,0,,,66,0
40936,note_on,,1,0,1,,,,,,,,,0,,,67,95
40941,note_on,,21,0,2,,,,,,,,,1,,,55,0
40943,note_on,,7,0,1,,,,,,,,,0,,,67,0
40944,note_on,,1,0,1,,,,,,,,,0,,,73,95
40944,note_on,,3,0,2,,,,,,,,,1,,,46,95
40951,note_on,,7,0,1,,,,,,,,,0,,,73,0
40952,note_on,,1,0,1,,,,,,,,,0,,,67,95
40959,note_on,,7,0,1,,,,,,,,,0,,,67,0
40960,note_on,,1,0,1,,,,,,,,,0,,,66,95
40965,note_on,,21,0,2,,,,,,,,,1,,,46,0
40967,note_on,,7,0,1,,,,,,,,,0,,,66,0
40968,note_on,,1,0,1,,,,,,,,,0,,,64,95
40968,note_on,,3,0,2,,,,,,,,,1,,,55,95
40975,note_on,,7,0,1,,,,,,,,,0,,,64,0
40976,note_on,,1,0,1,,,,,,,,,0,,,66,95
40983,note_on,,7,0,1,,,,,,,,,0,,,66,0
40984,note_on,,1,0,1,,,,,,,,,0,,,67,95
40989,note_on,,21,0,2,,,,,,,,,1,,,55,0
40991,note_on,,7,0,1,,,,,,,,,0,,,67,0
40992,note_on,,3,0,2,,,,,,,,,1,,,47,95
40992,note_on,,1,0,1,,,,,,,,,0,,,74,95
40999,note_on,,7,0,1,,,,,,,,,0,,,74,0
40999,note_on,,7,0,2,,,,,,,,,1,,,47,0
41000,note_on,,1,0,1,,,,,,,,,0,,,66,95
41000,note_on,,1,0,2,,,,,,,,,1,,,50,95
41007,note_on,,7,0,1,,,,,,,,,0,,,66,0
41007,note_on,,7,0,2,,,,,,,,,1,,,50,0
41008,note_on,,1,0,1,,,,,,,,,0,,,64,95
41008,note_on,,1,0,2,,,,,,,,,1,,,49,95
41015,note_on,,7,0,2,,,,,,,,,1,,,49,0
41015,note_on,,7,0,1,,,,,,,,,0,,,64,0
41016,note_on,,1,0,1,,,,,,,,,0,,,62,95
41016,note_on,,0,0,2,,,,,,,,,1,,,47,95
41016,note_on,,1,0,2,,,,,,,,,1,,,47,95
41023,note_on,,7,0,1,,,,,,,,,0,,,62,0
41023,note_on,,7,0,2,,,,,,,,,1,,,47,0
41024,note_on,,1,0,1,,,,,,,,,0,,,64,95
41024,note_on,,1,0,2,,,,,,,,,1,,,49,95
41030,note_on,,6,0,2,,,,,,,,,1,,,47,0
41031,note_on,,7,0,1,,,,,,,,,0,,,64,0
41031,note_on,,1,0,2,,,,,,,,,1,,,49,0
41032,note_on,,1,0,1,,,,,,,,,0,,,66,95
41032,note_on,,1,0,2,,,,,,,,,1,,,50,95
41039,note_on,,7,0,2,,,,,,,,,1,,,50,0
41039,note_on,,7,0,1,,,,,,,,,0,,,66,0
41040,note_on,,1,0,1,,,,,,,,,0,,,67,95
41040,note_on,,1,0,2,,,,,,,,,1,,,47,95
41040,note_on,,0,0,2,,,,,,,,,1,,,52,95
41047,note_on,,7,0,1,,,,,,,,,0,,,67,0
41047,note_on,,7,0,2,,,,,,,,,1,,,52,0
41048,note_on,,1,0,1,,,,,,,,,0,,,66,95
41048,note_on,,1,0,2,,,,,,,,,1,,,50,95
41054,note_on,,6,0,2,,,,,,,,,1,,,47,0
41055,note_on,,7,0,1,,,,,,,,,0,,,66,0
41055,note_on,,1,0,2,,,,,,,,,1,,,50,0
41056,note_on,,1,0,1,,,,,,,,,0,,,67,95
41056,note_on,,1,0,2,,,,,,,,,1,,,52,95
41063,note_on,,7,0,1,,,,,,,,,0,,,67,0
41063,note_on,,7,0,2,,,,,,,,,1,,,52,0
41064,note_on,,1,0,1,,,,,,,,,0,,,69,95
41064,note_on,,1,0,2,,,,,,,,,1,,,45,95
41064,note_on,,0,0,2,,,,,,,,,1,,,54,95
41071,note_on,,7,0,1,,,,,,,,,0,,,69,0
41071,note_on,,7,0,2,,,,,,,,,1,,,54,0
41072,note_on,,1,0,1,,,,,,,,,0,,,67,95
41072,note_on,,1,0,2,,,,,,,,,1,,,52,95
41078,note_on,,6,0,2,,,,,,,,,1,,,45,0
41079,note_on,,1,0,2,,,,,,,,,1,,,52,0
41079,note_on,,7,0,1,,,,,,,,,0,,,67,0
41080,note_on,,1,0,1,,,,,,,,,0,,,69,95
41080,note_on,,1,0,2,,,,,,,,,1,,,54,95
41087,note_on,,7,0,1,,,,,,,,,0,,,69,0
41087,note_on,,7,0,2,,,,,,,,,1,,,54,0
41088,note_on,,1,0,1,,,,,,,,,0,,,71,95
41088,note_on,,1,0,2,,,,,,,,,1,,,43,95
41098,note_on,,10,0,2,,,,,,,,,1,,,43,0
41098,note_on,,10,0,1,,,,,,,,,0,,,71,0
41100,note_on,,2,0,1,,,,,,,,,0,,,72,95
41100,note_on,,2,0,2,,,,,,,,,1,,,55,95
41110,note_on,,10,0,1,,,,,,,,,0,,,72,0
41110,note_on,,10,0,2,,,,,,,,,1,,,55,0
41112,note_on,,2,0,1,,,,,,,,,0,,,71,95
41112,note_on,,2,0,2,,,,,,,,,1,,,45,95
41122,note_on,,10,0,1,,,,,,,,,0,,,71,0
41122,note_on,,10,0,2,,,,,,,,,1,,,45,0
41124,note_on,,2,0,1,,,,,,,,,0,,,69,95
41124,note_on,,2,0,2,,,,,,,,,1,,,55,95
41134,note_on,,10,0,1,,,,,,,,,0,,,69,0
41134,note_on,,10,0,2,,,,,,,,,1,,,55,0
41136,note_on,,2,0,2,,,,,,,,,1,,,47,95
41136,note_on,,2,0,1,,,,,,,,,0,,,67,95
41146,note_on,,10,0,1,,,,,,,,,0,,,67,0
41146,note_on,,10,0,2,,,,,,,,,1,,,47,0
41148,note_on,,2,0,1,,,,,,,,,0,,,66,95
41148,note_on,,2,0,2,,,,,,,,,1,,,55,95
41158,note_on,,10,0,2,,,,,,,,,1,,,55,0
41158,note_on,,10,0,1,,,,,,,,,0,,,66,0
41160,note_on,,2,0,1,,,,,,,,,0,,,64,95
41160,note_on,,2,0,2,,,,,,,,,1,,,43,95
41170,note_on,,10,0,1,,,,,,,,,0,,,64,0
41170,note_on,,10,0,2,,,,,,,,,1,,,43,0
41172,note_on,,2,0,1,,,,,,,,,0,,,62,95
41172,note_on,,2,0,2,,,,,,,,,1,,,55,95
41182,note_on,,10,0,2,,,,,,,,,1,,,55,0
41182,note_on,,10,0,1,,,,,,,,,0,,,62,0
41184,note_on,,2,0,2,,,,,,,,,1,,,49,95
41184,note_on,,2,0,1,,,,,,,,,0,,,64,95
41194,note_on,,10,0,2,,,,,,,,,1,,,49,0
41194,note_on,,10,0,1,,,,,,,,,0,,,64,0
41196,note_on,,2,0,2,,,,,,,,,1,,,55,95
41196,note_on,,2,0,1,,,,,,,,,0,,,67,95
41206,note_on,,10,0,1,,,,,,,,,0,,,67,0
41206,note_on,,10,0,2,,,,,,,,,1,,,55,0
41208,note_on,,2,0,1,,,,,,,,,0,,,66,95
41208,note_on,,2,0,2,,,,,,,,,1,,,50,95
41218,note_on,,10,0,2,,,,,,,,,1,,,50,0
41218,note_on,,10,0,1,,,,,,,,,0,,,66,0
41220,note_on,,2,0,2,,,,,,,,,1,,,55,95
41220,note_on,,2,0,1,,,,,,,,,0,,,69,95
41230,note_on,,10,0,1,,,,,,,,,0,,,69,0
41230,note_on,,10,0,2,,,,,,,,,1,,,55,0
41232,note_on,,2,0,2,,,,,,,,,1,,,52,95
41232,note_on,,2,0,1,,,,,,,,,0,,,67,95
41242,note_on,,10,0,1,,,,,,,,,0,,,67,0
41242,note_on,,10,0,2,,,,,,,,,1,,,52,0
41244,note_on,,2,0,2,,,,,,,,,1,,,55,95
41244,note_on,,2,0,1,,,,,,,,,0,,,66,95
41254,note_on,,10,0,2,,,,,,,,,1,,,55,0
41254,note_on,,10,0,1,,,,,,,,,0,,,66,0
41256,note_on,,2,0,2,,,,,,,,,1,,,49,95
41256,note_on,,2,0,1,,,,,,,,,0,,,67,95
41266,note_on,,10,0,2,,,,,,,,,1,,,49,0
41266,note_on,,10,0,1,,,,,,,,,0,,,67,0
41268,note_on,,2,0,2,,,,,,,,,1,,,55,95
41268,note_on,,2,0,1,,,,,,,,,0,,,64,95
41278,note_on,,10,0,2,,,,,,,,,1,,,55,0
41278,note_on,,10,0,1,,,,,,,,,0,,,64,0
41280,note_on,,2,0,2,,,,,,,,,1,,,42,95
41280,note_on,,2,0,1,,,,,,,,,0,,,69,95
41290,note_on,,10,0,2,,,,,,,,,1,,,42,0
41292,note_on,,2,0,2,,,,,,,,,1,,,54,95
41302,note_on,,10,0,2,,,,,,,,,1,,,54,0
41304,note_on,,2,0,2,,,,,,,,,1,,,43,95
41311,note_on,,31,0,1,,,,,,,,,0,,,69,0
41314,note_on,,10,0,2,,,,,,,,,1,,,43,0
41316,note_on,,5,0,1,,,,,,,,,0,,,67,95
41316,note_on,,2,0,2,,,,,,,,,1,,,54,95
41326,note_on,,10,0,1,,,,,,,,,0,,,67,0
41326,note_on,,10,0,2,,,,,,,,,1,,,54,0
41328,note_on,,2,0,1,,,,,,,,,0,,,66,95
41328,note_on,,2,0,2,,,,,,,,,1,,,45,95
41338,note_on,,10,0,1,,,,,,,,,0,,,66,0
41338,note_on,,10,0,2,,,,,,,,,1,,,45,0
41340,note_on,,2,0,1,,,,,,,,,0,,,64,95
41340,note_on,,2,0,2,,,,,,,,,1,,,54,95
41350,note_on,,10,0,2,,,,,,,,,1,,,54,0
41350,note_on,,10,0,1,,,,,,,,,0,,,64,0
41352,note_on,,2,0,2,,,,,,,,,1,,,42,95
41352,note_on,,2,0,1,,,,,,,,,0,,,62,95
41362,note_on,,10,0,1,,,,,,,,,0,,,62,0
41362,note_on,,10,0,2,,,,,,,,,1,,,42,0
41364,note_on,,2,0,2,,,,,,,,,1,,,54,95
41364,note_on,,2,0,1,,,,,,,,,0,,,61,95
41374,note_on,,10,0,2,,,,,,,,,1,,,54,0
41374,note_on,,10,0,1,,,,,,,,,0,,,61,0
41376,note_on,,2,0,2,,,,,,,,,1,,,47,95
41376,note_on,,2,0,1,,,,,,,,,0,,,62,95
41386,note_on,,10,0,2,,,,,,,,,1,,,47,0
41386,note_on,,10,0,1,,,,,,,,,0,,,62,0
41388,note_on,,2,0,2,,,,,,,,,1,,,54,95
41388,note_on,,2,0,1,,,,,,,,,0,,,61,95
41398,note_on,,10,0,1,,,,,,,,,0,,,61,0
41398,note_on,,10,0,2,,,,,,,,,1,,,54,0
41400,note_on,,2,0,1,,,,,,,,,0,,,59,95
41400,note_on,,2,0,2,,,,,,,,,1,,,49,95
41410,note_on,,10,0,1,,,,,,,,,0,,,59,0
41410,note_on,,10,0,2,,,,,,,,,1,,,49,0
41412,note_on,,2,0,2,,,,,,,,,1,,,54,95
41412,note_on,,2,0,1,,,,,,,,,0,,,62,95
41422,note_on,,10,0,1,,,,,,,,,0,,,62,0
41422,note_on,,10,0,2,,,,,,,,,1,,,54,0
41424,note_on,,2,0,2,,,,,,,,,1,,,50,95
41424,note_on,,2,0,1,,,,,,,,,0,,,66,95
41434,note_on,,10,0,2,,,,,,,,,1,,,50,0
41434,note_on,,10,0,1,,,,,,,,,0,,,66,0
41436,note_on,,2,0,2,,,,,,,,,1,,,54,95
41436,note_on,,2,0,1,,,,,,,,,0,,,69,95
41446,note_on,,10,0,2,,,,,,,,,1,,,54,0
41446,note_on,,10,0,1,,,,,,,,,0,,,69,0
41448,note_on,,2,0,2,,,,,,,,,1,,,47,95
41448,note_on,,2,0,1,,,,,,,,,0,,,67,95
41458,note_on,,10,0,1,,,,,,,,,0,,,67,0
41458,note_on,,10,0,2,,,,,,,,,1,,,47,0
41460,note_on,,2,0,1,,,,,,,,,0,,,66,95
41460,note_on,,2,0,2,,,,,,,,,1,,,54,95
41470,note_on,,10,0,2,,,,,,,,,1,,,54,0
41470,note_on,,10,0,1,,,,,,,,,0,,,66,0
41472,note_on,,2,0,1,,,,,,,,,0,,,67,95
41472,note_on,,2,0,2,,,,,,,,,1,,,40,95
41482,note_on,,10,0,1,,,,,,,,,0,,,67,0
41482,note_on,,10,0,2,,,,,,,,,1,,,40,0
41484,note_on,,2,0,2,,,,,,,,,1,,,52,95
41484,note_on,,2,0,1,,,,,,,,,0,,,66,95
41494,note_on,,10,0,1,,,,,,,,,0,,,66,0
41494,note_on,,10,0,2,,,,,,,,,1,,,52,0
41496,note_on,,2,0,2,,,,,,,,,1,,,42,95
41496,note_on,,2,0,1,,,,,,,,,0,,,64,95
41506,note_on,,10,0,2,,,,,,,,,1,,,42,0
41506,note_on,,10,0,1,,,,,,,,,0,,,64,0
41508,note_on,,2,0,1,,,,,,,,,0,,,67,95
41508,note_on,,2,0,2,,,,,,,,,1,,,52,95
41518,note_on,,10,0,1,,,,,,,,,0,,,67,0
41518,note_on,,10,0,2,,,,,,,,,1,,,52,0
41520,note_on,,2,0,1,,,,,,,,,0,,,71,95
41520,note_on,,2,0,2,,,,,,,,,1,,,43,95
41530,note_on,,10,0,1,,,,,,,,,0,,,71,0
41530,note_on,,10,0,2,,,,,,,,,1,,,43,0
41532,note_on,,2,0,1,,,,,,,,,0,,,74,95
41532,note_on,,2,0,2,,,,,,,,,1,,,52,95
41542,note_on,,10,0,2,,,,,,,,,1,,,52,0
41542,note_on,,10,0,1,,,,,,,,,0,,,74,0
41544,note_on,,2,0,2,,,,,,,,,1,,,40,95
41544,note_on,,2,0,1,,,,,,,,,0,,,73,95
41554,note_on,,10,0,2,,,,,,,,,1,,,40,0
41554,note_on,,10,0,1,,,,,,,,,0,,,73,0
41556,note_on,,2,0,2,,,,,,,,,1,,,52,95
41556,note_on,,2,0,1,,,,,,,,,0,,,71,95
41566,note_on,,10,0,1,,,,,,,,,0,,,71,0
41566,note_on,,10,0,2,,,,,,,,,1,,,52,0
41568,note_on,,2,0,2,,,,,,,,,1,,,45,95
41568,note_on,,2,0,1,,,,,,,,,0,,,73,95
41578,note_on,,10,0,2,,,,,,,,,1,,,45,0
41578,note_on,,10,0,1,,,,,,,,,0,,,73,0
41580,note_on,,2,0,2,,,,,,,,,1,,,52,95
41580,note_on,,2,0,1,,,,,,,,,0,,,74,95
41590,note_on,,10,0,1,,,,,,,,,0,,,74,0
41590,note_on,,10,0,2,,,,,,,,,1,,,52,0
41592,note_on,,2,0,1,,,,,,,,,0,,,76,95
41592,note_on,,2,0,2,,,,,,,,,1,,,47,95
41602,note_on,,10,0,1,,,,,,,,,0,,,76,0
41602,note_on,,10,0,2,,,,,,,,,1,,,47,0
41604,note_on,,2,0,1,,,,,,,,,0,,,73,95
41604,note_on,,2,0,2,,,,,,,,,1,,,52,95
41614,note_on,,10,0,2,,,,,,,,,1,,,52,0
41614,note_on,,10,0,1,,,,,,,,,0,,,73,0
41616,note_on,,2,0,2,,,,,,,,,1,,,49,95
41616,note_on,,2,0,1,,,,,,,,,0,,,67,95
41626,note_on,,10,0,2,,,,,,,,,1,,,49,0
41626,note_on,,10,0,1,,,,,,,,,0,,,67,0
41628,note_on,,2,0,2,,,,,,,,,1,,,52,95
41628,note_on,,2,0,1,,,,,,,,,0,,,71,95
41638,note_on,,10,0,1,,,,,,,,,0,,,71,0
41638,note_on,,10,0,2,,,,,,,,,1,,,52,0
41640,note_on,,2,0,1,,,,,,,,,0,,,69,95
41640,note_on,,2,0,2,,,,,,,,,1,,,45,95
41650,note_on,,10,0,2,,,,,,,,,1,,,45,0
41650,note_on,,10,0,1,,,,,,,,,0,,,69,0
41652,note_on,,2,0,1,,,,,,,,,0,,,67,95
41652,note_on,,2,0,2,,,,,,,,,1,,,52,95
41662,note_on,,10,0,2,,,,,,,,,1,,,52,0
41662,note_on,,10,0,1,,,,,,,,,0,,,67,0
41664,note_on,,2,0,2,,,,,,,,,1,,,38,95
41664,note_on,,2,0,1,,,,,,,,,0,,,66,95
41674,note_on,,10,0,2,,,,,,,,,1,,,38,0
41674,note_on,,10,0,1,,,,,,,,,0,,,66,0
41676,note_on,,2,0,1,,,,,,,,,0,,,74,95
41676,note_on,,2,0,2,,,,,,,,,1,,,50,95
41686,note_on,,10,0,2,,,,,,,,,1,,,50,0
41686,note_on,,10,0,1,,,,,,,,,0,,,74,0
41688,note_on,,2,0,1,,,,,,,,,0,,,73,95
41688,note_on,,2,0,2,,,,,,,,,1,,,40,95
41698,note_on,,10,0,1,,,,,,,,,0,,,73,0
41698,note_on,,10,0,2,,,,,,,,,1,,,40,0
41700,note_on,,2,0,1,,,,,,,,,0,,,71,95
41700,note_on,,2,0,2,,,,,,,,,1,,,50,95
41710,note_on,,10,0,1,,,,,,,,,0,,,71,0
41710,note_on,,10,0,2,,,,,,,,,1,,,50,0
41712,note_on,,2,0,1,,,,,,,,,0,,,69,95
41712,note_on,,2,0,2,,,,,,,,,1,,,42,95
41722,note_on,,10,0,2,,,,,,,,,1,,,42,0
41722,note_on,,10,0,1,,,,,,,,,0,,,69,0
41724,note_on,,2,0,2,,,,,,,,,1,,,50,95
41724,note_on,,2,0,1,,,,,,,,,0,,,67,95
41734,note_on,,10,0,2,,,,,,,,,1,,,50,0
41734,note_on,,10,0,1,,,,,,,,,0,,,67,0
41736,note_on,,2,0,2,,,,,,,,,1,,,40,95
41736,note_on,,2,0,1,,,,,,,,,0,,,66,95
41746,note_on,,10,0,2,,,,,,,,,1,,,40,0
41746,note_on,,10,0,1,,,,,,,,,0,,,66,0
41748,note_on,,2,0,2,,,,,,,,,1,,,50,95
41748,note_on,,2,0,1,,,,,,,,,0,,,67,95
41758,note_on,,10,0,1,,,,,,,,,0,,,67,0
41758,note_on,,10,0,2,,,,,,,,,1,,,50,0
41760,note_on,,2,0,2,,,,,,,,,1,,,42,95
41760,note_on,,2,0,1,,,,,,,,,0,,,69,95
41770,note_on,,10,0,1,,,,,,,,,0,,,69,0
41770,note_on,,10,0,2,,,,,,,,,1,,,42,0
41772,note_on,,2,0,2,,,,,,,,,1,,,50,95
41772,note_on,,2,0,1,,,,,,,,,0,,,67,95
41782,note_on,,10,0,2,,,,,,,,,1,,,50,0
41782,note_on,,10,0,1,,,,,,,,,0,,,67,0
41784,note_on,,2,0,1,,,,,,,,,0,,,69,95
41784,note_on,,2,0,2,,,,,,,,,1,,,43,95
41794,note_on,,10,0,1,,,,,,,,,0,,,69,0
41794,note_on,,10,0,2,,,,,,,,,1,,,43,0
41796,note_on,,2,0,1,,,,,,,,,0,,,71,95
41796,note_on,,2,0,2,,,,,,,,,1,,,50,95
41806,note_on,,10,0,1,,,,,,,,,0,,,71,0
41806,note_on,,10,0,2,,,,,,,,,1,,,50,0
41808,note_on,,2,0,1,,,,,,,,,0,,,73,95
41808,note_on,,2,0,2,,,,,,,,,1,,,45,95
41818,note_on,,10,0,1,,,,,,,,,0,,,73,0
41818,note_on,,10,0,2,,,,,,,,,1,,,45,0
41820,note_on,,2,0,2,,,,,,,,,1,,,50,95
41820,note_on,,2,0,1,,,,,,,,,0,,,74,95
41830,note_on,,10,0,1,,,,,,,,,0,,,74,0
41830,note_on,,10,0,2,,,,,,,,,1,,,50,0
41832,note_on,,2,0,1,,,,,,,,,0,,,76,95
41832,note_on,,2,0,2,,,,,,,,,1,,,46,95
41842,note_on,,10,0,2,,,,,,,,,1,,,46,0
41842,note_on,,10,0,1,,,,,,,,,0,,,76,0
41844,note_on,,2,0,2,,,,,,,,,1,,,49,95
41844,note_on,,2,0,1,,,,,,,,,0,,,73,95
41854,note_on,,10,0,1,,,,,,,,,0,,,73,0
41854,note_on,,10,0,2,,,,,,,,,1,,,49,0
41856,set_tempo,,2964,1,0,,,,,,,697674,,,,,,
41856,note_on,,2,0,2,,,,,,,,,1,,,47,95
41856,note_on,,2,0,1,,,,,,,,,0,,,74,95
41866,note_on,,10,0,2,,,,,,,,,1,,,47,0
41868,set_tempo,,12,1,0,,,,,,,769231,,,,,,
41868,note_on,,2,0,2,,,,,,,,,1,,,54,95
41878,note_on,,10,0,2,,,,,,,,,1,,,54,0
41880,set_tempo,,12,1,0,,,,,,,769231,,,,,,
41880,note_on,,2,0,2,,,,,,,,,1,,,59,95
41887,note_on,,31,0,1,,,,,,,,,0,,,74,0
41890,note_on,,10,0,2,,,,,,,,,1,,,59,0
41892,note_on,,5,0,1,,,,,,,,,0,,,76,95
41892,note_on,,2,0,2,,,,,,,,,1,,,55,95
41902,note_on,,10,0,1,,,,,,,,,0,,,76,0
41902,note_on,,10,0,2,,,,,,,,,1,,,55,0
41904,note_on,,2,0,1,,,,,,,,,0,,,76,95
41904,note_on,,2,0,2,,,,,,,,,1,,,57,95
41924,note_on,,20,0,2,,,,,,,,,1,,,57,0
41928,note_on,,4,0,2,,,,,,,,,1,,,45,95
41935,note_on,,31,0,1,,,,,,,,,0,,,76,0
41940,note_on,,5,0,1,,,,,,,,,0,,,74,95
41948,note_on,,20,0,2,,,,,,,,,1,,,45,0
41950,note_on,,10,0,1,,,,,,,,,0,,,74,0
41952,note_on,,4,0,2,,,,,,,,,1,,,57,79
41952,note_on,,14668,0,8,,,,,,,,,7,,,38,95
41952,note_on,,12552,0,6,,,,,,,,,5,,,66,95
41952,note_on,,0,0,2,,,,,,,,,1,,,54,79
41952,note_on,,0,0,2,,,,,,,,,1,,,50,79
41952,set_tempo,,72,1,0,,,,,,,697674,,,,,,
41952,note_on,,12552,0,4,,,,,,,,,3,,,62,95
41952,note_on,,0,0,1,,,,,,,,,0,,,66,79
41952,note_on,,0,0,1,,,,,,,,,0,,,62,79
41952,note_on,,14668,0,7,,,,,,,,,6,,,50,95
41952,note_on,,2,0,1,,,,,,,,,0,,,69,79
41952,note_on,,12552,0,5,,,,,,,,,4,,,62,95
41952,note_on,,0,0,1,,,,,,,,,0,,,74,79
41960,note_on,,8,0,4,,,,,,,,,3,,,62,0
41960,note_on,,8,0,5,,,,,,,,,4,,,62,0
41964,note_on,,4,0,5,,,,,,,,,4,,,62,95
41964,note_on,,4,0,4,,,,,,,,,3,,,62,95
41972,note_on,,8,0,5,,,,,,,,,4,,,62,0
41972,note_on,,8,0,4,,,,,,,,,3,,,62,0
41976,note_on,,4,0,5,,,,,,,,,4,,,66,95
41976,note_on,,4,0,4,,,,,,,,,3,,,66,95
41984,note_on,,8,0,4,,,,,,,,,3,,,66,0
41984,note_on,,8,0,5,,,,,,,,,4,,,66,0
41988,note_on,,4,0,4,,,,,,,,,3,,,66,95
41988,note_on,,4,0,5,,,,,,,,,4,,,66,95
41996,note_on,,8,0,4,,,,,,,,,3,,,66,0
41996,note_on,,8,0,5,,,,,,,,,4,,,66,0
42000,note_on,,48,0,8,,,,,,,,,7,,,38,0
42000,note_on,,0,0,1,,,,,,,,,0,,,66,0
42000,note_on,,4,0,4,,,,,,,,,3,,,69,95
42000,note_on,,0,0,2,,,,,,,,,1,,,57,0
42000,note_on,,0,0,2,,,,,,,,,1,,,50,0
42000,note_on,,48,0,2,,,,,,,,,1,,,54,0
42000,note_on,,48,0,1,,,,,,,,,0,,,74,0
42000,note_on,,48,0,7,,,,,,,,,6,,,50,0
42000,note_on,,4,0,5,,,,,,,,,4,,,69,95
42000,note_on,,48,0,6,,,,,,,,,5,,,66,0
42000,note_on,,0,0,1,,,,,,,,,0,,,62,0
42000,note_on,,0,0,1,,,,,,,,,0,,,69,0
42008,note_on,,8,0,5,,,,,,,,,4,,,69,0
42008,note_on,,8,0,4,,,,,,,,,3,,,69,0
42012,note_on,,4,0,5,,,,,,,,,4,,,69,95
42012,note_on,,4,0,4,,,,,,,,,3,,,69,95
42020,note_on,,8,0,5,,,,,,,,,4,,,69,0
42020,note_on,,8,0,4,,,,,,,,,3,,,69,0
42024,note_on,,24,0,6,,,,,,,,,5,,,66,95
42024,note_on,,24,0,8,,,,,,,,,7,,,38,95
42024,note_on,,24,0,7,,,,,,,,,6,,,50,95
42024,note_on,,4,0,5,,,,,,,,,4,,,74,95
42024,note_on,,24,0,2,,,,,,,,,1,,,50,79
42024,note_on,,4,0,4,,,,,,,,,3,,,74,95
42032,note_on,,8,0,4,,,,,,,,,3,,,74,0
42032,note_on,,8,0,5,,,,,,,,,4,,,74,0
42036,note_on,,4,0,4,,,,,,,,,3,,,74,95
42036,note_on,,4,0,5,,,,,,,,,4,,,74,95
42040,note_on,,16,0,2,,,,,,,,,1,,,50,0
42044,note_on,,8,0,5,,,,,,,,,4,,,74,0
42044,note_on,,8,0,4,,,,,,,,,3,,,74,0
42048,note_on,,8,0,2,,,,,,,,,1,,,57,79
42048,note_on,,24,0,7,,,,,,,,,6,,,50,0
42048,note_on,,0,0,7,,,,,,,,,6,,,57,95
42048,note_on,,0,0,6,,,,,,,,,5,,,64,95
42048,note_on,,24,0,6,,,,,,,,,5,,,66,0
42048,note_on,,4,0,5,,,,,,,,,4,,,73,95
42048,note_on,,24,0,8,,,,,,,,,7,,,38,0
42048,note_on,,4,0,4,,,,,,,,,3,,,73,95
42048,note_on,,0,0,8,,,,,,,,,7,,,45,95
42056,note_on,,8,0,5,,,,,,,,,4,,,73,0
42056,note_on,,8,0,4,,,,,,,,,3,,,73,0
42060,note_on,,4,0,5,,,,,,,,,4,,,74,95
42060,note_on,,4,0,4,,,,,,,,,3,,,74,95
42064,note_on,,16,0,2,,,,,,,,,1,,,57,0
42068,note_on,,8,0,5,,,,,,,,,4,,,74,0
42068,note_on,,8,0,4,,,,,,,,,3,,,74,0
42072,note_on,,4,0,5,,,,,,,,,4,,,73,95
42072,note_on,,24,0,6,,,,,,,,,5,,,64,0
42072,note_on,,0,0,6,,,,,,,,,5,,,62,95
42072,note_on,,24,0,7,,,,,,,,,6,,,57,0
42072,note_on,,8,0,2,,,,,,,,,1,,,59,79
42072,note_on,,24,0,8,,,,,,,,,7,,,45,0
42072,note_on,,0,0,8,,,,,,,,,7,,,47,95
42072,note_on,,0,0,7,,,,,,,,,6,,,59,95
42072,note_on,,4,0,4,,,,,,,,,3,,,73,95
42080,note_on,,8,0,4,,,,,,,,,3,,,73,0
42080,note_on,,8,0,5,,,,,,,,,4,,,73,0
42084,note_on,,4,0,4,,,,,,,,,3,,,71,95
42084,note_on,,4,0,5,,,,,,,,,4,,,71,95
42088,note_on,,16,0,2,,,,,,,,,1,,,59,0
42092,note_on,,8,0,5,,,,,,,,,4,,,71,0
42092,note_on,,8,0,4,,,,,,,,,3,,,71,0
42096,note_on,,4,0,4,,,,,,,,,3,,,69,95
42096,note_on,,4,0,5,,,,,,,,,4,,,69,95
42096,note_on,,24,0,6,,,,,,,,,5,,,62,0
42096,note_on,,0,0,6,,,,,,,,,5,,,64,95
42096,note_on,,0,0,7,,,,,,,,,6,,,61,95
42096,note_on,,0,0,8,,,,,,,,,7,,,49,95
42096,note_on,,24,0,7,,,,,,,,,6,,,59,0
42096,note_on,,8,0,2,,,,,,,,,1,,,61,79
42096,note_on,,24,0,8,,,,,,,,,7,,,47,0
42104,note_on,,8,0,4,,,,,,,,,3,,,69,0
42104,note_on,,8,0,5,,,,,,,,,4,,,69,0
42108,note_on,,4,0,5,,,,,,,,,4,,,67,95
42108,note_on,,4,0,4,,,,,,,,,3,,,67,95
42112,note_on,,16,0,2,,,,,,,,,1,,,61,0
42116,note_on,,8,0,4,,,,,,,,,3,,,67,0
42116,note_on,,8,0,5,,,,,,,,,4,,,67,0
42120,note_on,,0,0,8,,,,,,,,,7,,,45,95
42120,note_on,,8,0,2,,,,,,,,,1,,,57,79
42120,note_on,,24,0,7,,,,,,,,,6,,,61,0
42120,note_on,,0,0,7,,,,,,,,,6,,,57,95
42120,note_on,,4,0,4,,,,,,,,,3,,,66,95
42120,note_on,,24,0,8,,,,,,,,,7,,,49,0
42120,note_on,,24,0,6,,,,,,,,,5,,,64,0
42120,note_on,,0,0,6,,,,,,,,,5,,,61,95
42120,note_on,,4,0,5,,,,,,,,,4,,,66,95
42128,note_on,,8,0,4,,,,,,,,,3,,,66,0
42128,note_on,,8,0,5,,,,,,,,,4,,,66,0
42132,note_on,,4,0,4,,,,,,,,,3,,,64,95
42132,note_on,,4,0,5,,,,,,,,,4,,,64,95
42136,note_on,,16,0,2,,,,,,,,,1,,,57,0
42140,note_on,,8,0,5,,,,,,,,,4,,,64,0
42140,note_on,,8,0,4,,,,,,,,,3,,,64,0
42144,note_on,,0,0,6,,,,,,,,,5,,,62,95
42144,note_on,,24,0,6,,,,,,,,,5,,,61,0
42144,note_on,,4,0,4,,,,,,,,,3,,,62,95
42144,note_on,,8,0,2,,,,,,,,,1,,,54,79
42144,note_on,,4,0,5,,,,,,,,,4,,,62,95
42144,note_on,,24,0,8,,,,,,,,,7,,,45,0
42144,note_on,,0,0,7,,,,,,,,,6,,,54,95
42144,note_on,,24,0,7,,,,,,,,,6,,,57,0
42144,note_on,,0,0,8,,,,,,,,,7,,,42,95
42152,note_on,,8,0,5,,,,,,,,,4,,,62,0
42152,note_on,,8,0,4,,,,,,,,,3,,,62,0
42156,note_on,,4,0,5,,,,,,,,,4,,,62,95
42156,note_on,,4,0,4,,,,,,,,,3,,,62,95
42160,note_on,,16,0,2,,,,,,,,,1,,,54,0
42164,note_on,,8,0,5,,,,,,,,,4,,,62,0
42164,note_on,,8,0,4,,,,,,,,,3,,,62,0
42168,note_on,,4,0,5,,,,,,,,,4,,,66,95
42168,note_on,,24,0,6,,,,,,,,,5,,,62,0
42168,note_on,,24,0,8,,,,,,,,,7,,,42,0
42168,note_on,,0,0,7,,,,,,,,,6,,,52,95
42168,note_on,,24,0,7,,,,,,,,,6,,,54,0
42168,note_on,,4,0,4,,,,,,,,,3,,,66,95
42168,note_on,,0,0,6,,,,,,,,,5,,,57,95
42168,note_on,,0,0,8,,,,,,,,,7,,,40,95
42168,note_on,,8,0,2,,,,,,,,,1,,,52,79
42176,note_on,,8,0,4,,,,,,,,,3,,,66,0
42176,note_on,,8,0,5,,,,,,,,,4,,,66,0
42180,note_on,,4,0,5,,,,,,,,,4,,,66,95
42180,note_on,,4,0,4,,,,,,,,,3,,,66,95
42184,note_on,,16,0,2,,,,,,,,,1,,,52,0
42188,note_on,,8,0,5,,,,,,,,,4,,,66,0
42188,note_on,,8,0,4,,,,,,,,,3,,,66,0
42192,note_on,,4,0,5,,,,,,,,,4,,,69,95
42192,note_on,,8,0,2,,,,,,,,,1,,,54,79
42192,note_on,,24,0,8,,,,,,,,,7,,,40,0
42192,note_on,,0,0,7,,,,,,,,,6,,,54,95
42192,note_on,,24,0,6,,,,,,,,,5,,,57,0
42192,note_on,,4,0,4,,,,,,,,,3,,,69,95
42192,note_on,,0,0,8,,,,,,,,,7,,,42,95
42192,note_on,,24,0,7,,,,,,,,,6,,,52,0
42192,note_on,,0,0,6,,,,,,,,,5,,,62,95
42200,note_on,,8,0,4,,,,,,,,,3,,,69,0
42200,note_on,,8,0,5,,,,,,,,,4,,,69,0
42204,note_on,,4,0,4,,,,,,,,,3,,,69,95
42204,note_on,,4,0,5,,,,,,,,,4,,,69,95
42208,note_on,,16,0,2,,,,,,,,,1,,,54,0
42212,note_on,,8,0,5,,,,,,,,,4,,,69,0
42212,note_on,,8,0,4,,,,,,,,,3,,,69,0
42216,note_on,,8,0,2,,,,,,,,,1,,,50,79
42216,note_on,,0,0,8,,,,,,,,,7,,,38,95
42216,note_on,,24,0,8,,,,,,,,,7,,,42,0
42216,note_on,,0,0,7,,,,,,,,,6,,,50,95
42216,note_on,,24,0,7,,,,,,,,,6,,,54,0
42216,note_on,,4,0,5,,,,,,,,,4,,,74,95
42216,note_on,,4,0,4,,,,,,,,,3,,,74,95
42216,note_on,,0,0,6,,,,,,,,,5,,,66,95
42216,note_on,,24,0,6,,,,,,,,,5,,,62,0
42224,note_on,,8,0,4,,,,,,,,,3,,,74,0
42224,note_on,,8,0,5,,,,,,,,,4,,,74,0
42228,note_on,,4,0,5,,,,,,,,,4,,,74,95
42228,note_on,,4,0,4,,,,,,,,,3,,,74,95
42232,note_on,,16,0,2,,,,,,,,,1,,,50,0
42236,note_on,,8,0,5,,,,,,,,,4,,,74,0
42236,note_on,,8,0,4,,,,,,,,,3,,,74,0
42240,note_on,,24,0,6,,,,,,,,,5,,,66,0
42240,note_on,,0,0,6,,,,,,,,,5,,,61,95
42240,note_on,,24,0,7,,,,,,,,,6,,,50,0
42240,note_on,,0,0,7,,,,,,,,,6,,,57,95
42240,note_on,,24,0,8,,,,,,,,,7,,,38,0
42240,note_on,,0,0,8,,,,,,,,,7,,,45,95
42240,note_on,,8,0,2,,,,,,,,,1,,,57,79
42240,note_on,,4,0,4,,,,,,,,,3,,,76,95
42240,note_on,,4,0,5,,,,,,,,,4,,,76,95
42256,note_on,,16,0,5,,,,,,,,,4,,,76,0
42256,note_on,,16,0,4,,,,,,,,,3,,,76,0
42256,note_on,,16,0,2,,,,,,,,,1,,,57,0
42264,note_on,,24,0,6,,,,,,,,,5,,,61,0
42264,note_on,,24,0,8,,,,,,,,,7,,,45,0
42264,note_on,,0,0,8,,,,,,,,,7,,,47,95
42264,note_on,,8,0,5,,,,,,,,,4,,,69,95
42264,note_on,,8,0,2,,,,,,,,,1,,,59,79
42264,note_on,,0,0,6,,,,,,,,,5,,,62,95
42264,note_on,,0,0,7,,,,,,,,,6,,,59,95
42264,note_on,,8,0,4,,,,,,,,,3,,,69,95
42264,note_on,,24,0,7,,,,,,,,,6,,,57,0
42280,note_on,,16,0,2,,,,,,,,,1,,,59,0
42280,note_on,,16,0,4,,,,,,,,,3,,,69,0
42280,note_on,,16,0,5,,,,,,,,,4,,,69,0
42288,note_on,,0,0,6,,,,,,,,,5,,,64,95
42288,note_on,,24,0,8,,,,,,,,,7,,,47,0
42288,note_on,,0,0,8,,,,,,,,,7,,,49,95
42288,note_on,,24,0,7,,,,,,,,,6,,,59,0
42288,note_on,,24,0,6,,,,,,,,,5,,,62,0
42288,note_on,,0,0,7,,,,,,,,,6,,,61,95
42288,note_on,,8,0,2,,,,,,,,,1,,,61,79
42304,note_on,,16,0,2,,,,,,,,,1,,,61,0
42312,note_on,,0,0,8,,,,,,,,,7,,,45,95
42312,note_on,,24,0,8,,,,,,,,,7,,,49,0
42312,note_on,,32,0,4,,,,,,,,,3,,,76,95
42312,note_on,,0,0,7,,,,,,,,,6,,,57,95
42312,note_on,,24,0,7,,,,,,,,,6,,,61,0
42312,note_on,,0,0,6,,,,,,,,,5,,,61,95
42312,note_on,,24,0,6,,,,,,,,,5,,,64,0
42312,note_on,,32,0,5,,,,,,,,,4,,,76,95
42312,note_on,,8,0,2,,,,,,,,,1,,,57,79
42328,note_on,,16,0,2,,,,,,,,,1,,,57,0
42328,note_on,,16,0,4,,,,,,,,,3,,,76,0
42328,note_on,,16,0,5,,,,,,,,,4,,,76,0
42336,note_on,,8,0,5,,,,,,,,,4,,,78,95
42336,note_on,,24,0,8,,,,,,,,,7,,,45,0
42336,note_on,,24,0,7,,,,,,,,,6,,,57,0
42336,note_on,,8,0,2,,,,,,,,,1,,,62,79
42336,note_on,,24,0,6,,,,,,,,,5,,,61,0
42336,note_on,,0,0,6,,,,,,,,,5,,,62,95
42336,note_on,,8,0,4,,,,,,,,,3,,,78,95
42336,note_on,,0,0,8,,,,,,,,,7,,,50,95
42336,note_on,,0,0,7,,,,,,,,,6,,,62,95
42344,note_on,,8,0,4,,,,,,,,,3,,,78,0
42344,note_on,,8,0,5,,,,,,,,,4,,,78,0
42348,note_on,,4,0,4,,,,,,,,,3,,,78,95
42348,note_on,,4,0,5,,,,,,,,,4,,,78,95
42352,note_on,,16,0,2,,,,,,,,,1,,,62,0
42356,note_on,,8,0,5,,,,,,,,,4,,,78,0
42356,note_on,,8,0,4,,,,,,,,,3,,,78,0
42360,note_on,,4,0,5,,,,,,,,,4,,,76,95
42360,note_on,,24,0,8,,,,,,,,,7,,,50,0
42360,note_on,,8,0,2,,,,,,,,,1,,,61,79
42360,note_on,,24,0,7,,,,,,,,,6,,,62,0
42360,note_on,,0,0,7,,,,,,,,,6,,,61,95
42360,note_on,,24,0,6,,,,,,,,,5,,,62,0
42360,note_on,,0,0,6,,,,,,,,,5,,,69,95
42360,note_on,,0,0,8,,,,,,,,,7,,,49,95
42360,note_on,,4,0,4,,,,,,,,,3,,,76,95
42368,note_on,,8,0,5,,,,,,,,,4,,,76,0
42368,note_on,,8,0,4,,,,,,,,,3,,,76,0
42372,note_on,,4,0,5,,,,,,,,,4,,,76,95
42372,note_on,,4,0,4,,,,,,,,,3,,,76,95
42376,note_on,,16,0,2,,,,,,,,,1,,,61,0
42380,note_on,,8,0,4,,,,,,,,,3,,,76,0
42380,note_on,,8,0,5,,,,,,,,,4,,,76,0
42384,note_on,,24,0,8,,,,,,,,,7,,,49,0
42384,note_on,,24,0,6,,,,,,,,,5,,,69,0
42384,note_on,,0,0,8,,,,,,,,,7,,,47,95
42384,note_on,,0,0,6,,,,,,,,,5,,,74,95
42384,note_on,,4,0,4,,,,,,,,,3,,,79,95
42384,note_on,,4,0,5,,,,,,,,,4,,,79,95
42384,note_on,,24,0,7,,,,,,,,,6,,,61,0
42384,note_on,,8,0,2,,,,,,,,,1,,,59,79
42384,note_on,,0,0,7,,,,,,,,,6,,,59,95
42392,note_on,,8,0,4,,,,,,,,,3,,,79,0
42392,note_on,,8,0,5,,,,,,,,,4,,,79,0
42396,note_on,,4,0,5,,,,,,,,,4,,,79,95
42396,note_on,,4,0,4,,,,,,,,,3,,,79,95
42400,note_on,,16,0,2,,,,,,,,,1,,,59,0
42404,note_on,,8,0,4,,,,,,,,,3,,,79,0
42404,note_on,,8,0,5,,,,,,,,,4,,,79,0
42408,note_on,,4,0,4,,,,,,,,,3,,,78,95
42408,note_on,,4,0,5,,,,,,,,,4,,,78,95
42408,note_on,,8,0,2,,,,,,,,,1,,,57,79
42408,note_on,,0,0,6,,,,,,,,,5,,,73,95
42408,note_on,,0,0,7,,,,,,,,,6,,,57,95
42408,note_on,,24,0,8,,,,,,,,,7,,,47,0
42408,note_on,,0,0,8,,,,,,,,,7,,,45,95
42408,note_on,,24,0,6,,,,,,,,,5,,,74,0
42408,note_on,,24,0,7,,,,,,,,,6,,,59,0
42416,note_on,,8,0,4,,,,,,,,,3,,,78,0
42416,note_on,,8,0,5,,,,,,,,,4,,,78,0
42420,note_on,,4,0,5,,,,,,,,,4,,,78,95
42420,note_on,,4,0,4,,,,,,,,,3,,,78,95
42424,note_on,,16,0,2,,,,,,,,,1,,,57,0
42428,note_on,,8,0,5,,,,,,,,,4,,,78,0
42428,note_on,,8,0,4,,,,,,,,,3,,,78,0
42432,note_on,,8,0,2,,,,,,,,,1,,,55,79
42432,note_on,,0,0,7,,,,,,,,,6,,,55,95
42432,note_on,,24,0,6,,,,,,,,,5,,,73,0
42432,note_on,,0,0,6,,,,,,,,,5,,,74,95
42432,note_on,,4,0,5,,,,,,,,,4,,,83,95
42432,note_on,,24,0,7,,,,,,,,,6,,,57,0
42432,note_on,,4,0,4,,,,,,,,,3,,,83,95
42432,note_on,,0,0,8,,,,,,,,,7,,,43,95
42432,note_on,,24,0,8,,,,,,,,,7,,,45,0
42440,note_on,,8,0,5,,,,,,,,,4,,,83,0
42440,note_on,,8,0,4,,,,,,,,,3,,,83,0
42444,note_on,,4,0,5,,,,,,,,,4,,,83,95
42444,note_on,,4,0,4,,,,,,,,,3,,,83,95
42448,note_on,,16,0,2,,,,,,,,,1,,,55,0
42452,note_on,,8,0,5,,,,,,,,,4,,,83,0
42452,note_on,,8,0,4,,,,,,,,,3,,,83,0
42456,note_on,,4,0,5,,,,,,,,,4,,,81,95
42456,note_on,,0,0,6,,,,,,,,,5,,,62,95
42456,note_on,,24,0,6,,,,,,,,,5,,,74,0
42456,note_on,,24,0,7,,,,,,,,,6,,,55,0
42456,note_on,,0,0,7,,,,,,,,,6,,,54,95
42456,note_on,,24,0,8,,,,,,,,,7,,,43,0
42456,note_on,,0,0,8,,,,,,,,,7,,,42,95
42456,note_on,,8,0,2,,,,,,,,,1,,,54,79
42456,note_on,,4,0,4,,,,,,,,,3,,,81,95
42464,note_on,,8,0,5,,,,,,,,,4,,,81,0
42464,note_on,,8,0,4,,,,,,,,,3,,,81,0
42468,note_on,,4,0,4,,,,,,,,,3,,,81,95
42468,note_on,,4,0,5,,,,,,,,,4,,,81,95
42472,note_on,,16,0,2,,,,,,,,,1,,,54,0
42476,note_on,,8,0,4,,,,,,,,,3,,,81,0
42476,note_on,,8,0,5,,,,,,,,,4,,,81,0
42480,note_on,,0,0,8,,,,,,,,,7,,,40,95
42480,note_on,,24,0,6,,,,,,,,,5,,,62,0
42480,note_on,,0,0,6,,,,,,,,,5,,,67,95
42480,note_on,,24,0,8,,,,,,,,,7,,,42,0
42480,note_on,,24,0,7,,,,,,,,,6,,,54,0
42480,note_on,,8,0,2,,,,,,,,,1,,,52,79
42480,note_on,,0,0,7,,,,,,,,,6,,,52,95
42480,note_on,,4,0,4,,,,,,,,,3,,,73,95
42480,note_on,,4,0,5,,,,,,,,,4,,,73,95
42488,note_on,,8,0,5,,,,,,,,,4,,,73,0
42488,note_on,,8,0,4,,,,,,,,,3,,,73,0
42492,note_on,,4,0,4,,,,,,,,,3,,,73,95
42492,note_on,,4,0,5,,,,,,,,,4,,,73,95
42496,note_on,,16,0,2,,,,,,,,,1,,,52,0
42500,note_on,,8,0,4,,,,,,,,,3,,,73,0
42500,note_on,,8,0,5,,,,,,,,,4,,,73,0
42504,note_on,,8,0,2,,,,,,,,,1,,,50,79
42504,note_on,,24,0,6,,,,,,,,,5,,,67,0
42504,note_on,,0,0,6,,,,,,,,,5,,,66,95
42504,note_on,,0,0,8,,,,,,,,,7,,,38,95
42504,note_on,,4,0,5,,,,,,,,,4,,,74,95
42504,note_on,,0,0,7,,,,,,,,,6,,,50,95
42504,note_on,,24,0,7,,,,,,,,,6,,,52,0
42504,note_on,,24,0,8,,,,,,,,,7,,,40,0
42504,note_on,,4,0,4,,,,,,,,,3,,,74,95
42512,note_on,,8,0,5,,,,,,,,,4,,,74,0
42512,note_on,,8,0,4,,,,,,,,,3,,,74,0
42516,note_on,,4,0,5,,,,,,,,,4,,,74,95
42516,note_on,,4,0,4,,,,,,,,,3,,,74,95
42520,note_on,,16,0,2,,,,,,,,,1,,,50,0
42524,note_on,,8,0,4,,,,,,,,,3,,,74,0
42524,note_on,,8,0,5,,,,,,,,,4,,,74,0
42528,note_on,,8,0,2,,,,,,,,,1,,,49,79
42528,note_on,,24,0,8,,,,,,,,,7,,,38,0
42528,note_on,,24,0,6,,,,,,,,,5,,,66,0
42528,note_on,,0,0,6,,,,,,,,,5,,,64,95
42528,note_on,,0,0,8,,,,,,,,,7,,,37,95
42528,note_on,,24,0,7,,,,,,,,,6,,,50,0
42528,note_on,,4,0,5,,,,,,,,,4,,,67,95
42528,note_on,,0,0,7,,,,,,,,,6,,,49,95
42528,note_on,,4,0,4,,,,,,,,,3,,,67,95
42536,note_on,,8,0,5,,,,,,,,,4,,,67,0
42536,note_on,,8,0,4,,,,,,,,,3,,,67,0
42540,note_on,,4,0,5,,,,,,,,,4,,,67,95
42540,note_on,,4,0,4,,,,,,,,,3,,,67,95
42544,note_on,,16,0,2,,,,,,,,,1,,,49,0
42548,note_on,,8,0,4,,,,,,,,,3,,,67,0
42548,note_on,,8,0,5,,,,,,,,,4,,,67,0
42552,note_on,,4,0,4,,,,,,,,,3,,,66,95
42552,note_on,,24,0,7,,,,,,,,,6,,,49,0
42552,note_on,,0,0,7,,,,,,,,,6,,,50,95
42552,note_on,,4,0,5,,,,,,,,,4,,,66,95
42552,note_on,,0,0,6,,,,,,,,,5,,,62,95
42552,note_on,,0,0,8,,,,,,,,,7,,,38,95
42552,note_on,,24,0,8,,,,,,,,,7,,,37,0
42552,note_on,,24,0,6,,,,,,,,,5,,,64,0
42552,note_on,,8,0,2,,,,,,,,,1,,,50,79
42560,note_on,,8,0,4,,,,,,,,,3,,,66,0
42560,note_on,,8,0,5,,,,,,,,,4,,,66,0
42564,note_on,,4,0,4,,,,,,,,,3,,,66,95
42564,note_on,,4,0,5,,,,,,,,,4,,,66,95
42568,note_on,,16,0,2,,,,,,,,,1,,,50,0
42572,note_on,,8,0,5,,,,,,,,,4,,,66,0
42572,note_on,,8,0,4,,,,,,,,,3,,,66,0
42576,note_on,,0,0,6,,,,,,,,,5,,,62,95
42576,note_on,,24,0,6,,,,,,,,,5,,,62,0
42576,note_on,,24,0,7,,,,,,,,,6,,,50,0
42576,note_on,,0,0,7,,,,,,,,,6,,,43,95
42576,note_on,,24,0,8,,,,,,,,,7,,,38,0
42576,note_on,,0,0,8,,,,,,,,,7,,,43,95
42576,note_on,,8,0,2,,,,,,,,,1,,,43,79
42576,note_on,,4,0,5,,,,,,,,,4,,,71,95
42576,note_on,,4,0,4,,,,,,,,,3,,,71,95
42584,note_on,,8,0,5,,,,,,,,,4,,,71,0
42584,note_on,,8,0,4,,,,,,,,,3,,,71,0
42588,note_on,,4,0,4,,,,,,,,,3,,,71,95
42588,note_on,,4,0,5,,,,,,,,,4,,,71,95
42592,note_on,,16,0,2,,,,,,,,,1,,,43,0
42596,note_on,,8,0,4,,,,,,,,,3,,,71,0
42596,note_on,,8,0,5,,,,,,,,,4,,,71,0
42600,note_on,,0,0,6,,,,,,,,,5,,,62,95
42600,note_on,,24,0,6,,,,,,,,,5,,,62,0
42600,note_on,,4,0,5,,,,,,,,,4,,,69,95
42600,note_on,,24,0,7,,,,,,,,,6,,,43,0
42600,note_on,,0,0,7,,,,,,,,,6,,,42,95
42600,note_on,,0,0,8,,,,,,,,,7,,,42,95
42600,note_on,,24,0,8,,,,,,,,,7,,,43,0
42600,note_on,,8,0,2,,,,,,,,,1,,,42,79
42600,note_on,,4,0,4,,,,,,,,,3,,,69,95
42608,note_on,,8,0,5,,,,,,,,,4,,,69,0
42608,note_on,,8,0,4,,,,,,,,,3,,,69,0
42612,note_on,,4,0,5,,,,,,,,,4,,,69,95
42612,note_on,,4,0,4,,,,,,,,,3,,,69,95
42616,note_on,,16,0,2,,,,,,,,,1,,,42,0
42620,note_on,,8,0,4,,,,,,,,,3,,,69,0
42620,note_on,,8,0,5,,,,,,,,,4,,,69,0
42624,note_on,,0,0,6,,,,,,,,,5,,,67,95
42624,note_on,,24,0,6,,,,,,,,,5,,,62,0
42624,note_on,,4,0,4,,,,,,,,,3,,,61,95
42624,note_on,,0,0,8,,,,,,,,,7,,,40,95
42624,note_on,,24,0,8,,,,,,,,,7,,,42,0
42624,note_on,,24,0,7,,,,,,,,,6,,,42,0
42624,note_on,,0,0,7,,,,,,,,,6,,,40,95
42624,note_on,,4,0,5,,,,,,,,,4,,,61,95
42624,note_on,,8,0,2,,,,,,,,,1,,,40,79
42632,note_on,,8,0,4,,,,,,,,,3,,,61,0
42632,note_on,,8,0,5,,,,,,,,,4,,,61,0
42636,note_on,,4,0,5,,,,,,,,,4,,,61,95
42636,note_on,,4,0,4,,,,,,,,,3,,,61,95
42640,note_on,,16,0,2,,,,,,,,,1,,,40,0
42644,note_on,,8,0,4,,,,,,,,,3,,,61,0
42644,note_on,,8,0,5,,,,,,,,,4,,,61,0
42648,note_on,,4,0,4,,,,,,,,,3,,,62,95
42648,note_on,,4,0,5,,,,,,,,,4,,,62,95
42648,note_on,,24,0,7,,,,,,,,,6,,,40,0
42648,note_on,,8,0,2,,,,,,,,,1,,,38,79
42648,note_on,,0,0,8,,,,,,,,,7,,,38,95
42648,note_on,,24,0,8,,,,,,,,,7,,,40,0
42648,note_on,,0,0,7,,,,,,,,,6,,,38,95
42648,note_on,,0,0,6,,,,,,,,,5,,,66,95
42648,note_on,,24,0,6,,,,,,,,,5,,,67,0
42656,note_on,,8,0,4,,,,,,,,,3,,,62,0
42656,note_on,,8,0,5,,,,,,,,,4,,,62,0
42660,note_on,,4,0,4,,,,,,,,,3,,,62,95
42660,note_on,,4,0,5,,,,,,,,,4,,,62,95
42664,note_on,,16,0,2,,,,,,,,,1,,,38,0
42668,note_on,,8,0,5,,,,,,,,,4,,,62,0
42668,note_on,,8,0,4,,,,,,,,,3,,,62,0
42672,note_on,,4,0,4,,,,,,,,,3,,,57,95
42672,note_on,,24,0,6,,,,,,,,,5,,,66,0
42672,note_on,,0,0,8,,,,,,,,,7,,,37,95
42672,note_on,,8,0,2,,,,,,,,,1,,,37,79
42672,note_on,,24,0,8,,,,,,,,,7,,,38,0
42672,note_on,,0,0,6,,,,,,,,,5,,,64,95
42672,note_on,,24,0,7,,,,,,,,,6,,,38,0
42672,note_on,,4,0,5,,,,,,,,,4,,,57,95
42672,note_on,,0,0,7,,,,,,,,,6,,,37,95
42680,note_on,,8,0,5,,,,,,,,,4,,,57,0
42680,note_on,,8,0,4,,,,,,,,,3,,,57,0
42684,note_on,,4,0,4,,,,,,,,,3,,,57,95
42684,note_on,,4,0,5,,,,,,,,,4,,,57,95
42688,note_on,,16,0,2,,,,,,,,,1,,,37,0
42692,note_on,,8,0,5,,,,,,,,,4,,,57,0
42692,note_on,,8,0,4,,,,,,,,,3,,,57,0
42696,note_on,,24,0,6,,,,,,,,,5,,,64,0
42696,note_on,,24,0,8,,,,,,,,,7,,,37,0
42696,note_on,,0,0,7,,,,,,,,,6,,,49,95
42696,note_on,,24,0,7,,,,,,,,,6,,,37,0
42696,note_on,,8,0,2,,,,,,,,,1,,,49,79
42696,note_on,,4,0,5,,,,,,,,,4,,,67,95
42696,note_on,,4,0,4,,,,,,,,,3,,,67,95
42696,note_on,,0,0,6,,,,,,,,,5,,,57,95
42696,note_on,,0,0,8,,,,,,,,,7,,,33,95
42704,note_on,,8,0,5,,,,,,,,,4,,,67,0
42704,note_on,,8,0,4,,,,,,,,,3,,,67,0
42708,note_on,,4,0,5,,,,,,,,,4,,,67,95
42708,note_on,,4,0,4,,,,,,,,,3,,,67,95
42712,note_on,,16,0,2,,,,,,,,,1,,,49,0
42716,note_on,,8,0,5,,,,,,,,,4,,,67,0
42716,note_on,,8,0,4,,,,,,,,,3,,,67,0
42720,note_on,,24,0,6,,,,,,,,,5,,,57,0
42720,note_on,,24,0,7,,,,,,,,,6,,,49,0
42720,note_on,,4,0,5,,,,,,,,,4,,,66,95
42720,note_on,,0,0,7,,,,,,,,,6,,,50,95
42720,note_on,,8,0,2,,,,,,,,,1,,,50,79
42720,note_on,,0,0,8,,,,,,,,,7,,,38,95
42720,note_on,,24,0,8,,,,,,,,,7,,,33,0
42720,note_on,,0,0,6,,,,,,,,,5,,,57,95
42720,note_on,,4,0,4,,,,,,,,,3,,,66,95
42728,note_on,,8,0,4,,,,,,,,,3,,,66,0
42728,note_on,,8,0,5,,,,,,,,,4,,,66,0
42732,note_on,,4,0,5,,,,,,,,,4,,,64,95
42732,note_on,,4,0,4,,,,,,,,,3,,,64,95
42736,note_on,,16,0,2,,,,,,,,,1,,,50,0
42740,note_on,,8,0,4,,,,,,,,,3,,,64,0
42740,note_on,,8,0,5,,,,,,,,,4,,,64,0
42744,note_on,,24,0,7,,,,,,,,,6,,,50,0
42744,note_on,,4,0,5,,,,,,,,,4,,,66,95
42744,note_on,,8,0,2,,,,,,,,,1,,,47,79
42744,note_on,,0,0,7,,,,,,,,,6,,,47,95
42744,note_on,,4,0,4,,,,,,,,,3,,,66,95
42744,note_on,,0,0,6,,,,,,,,,5,,,62,95
42744,note_on,,24,0,6,,,,,,,,,5,,,57,0
42744,note_on,,24,0,8,,,,,,,,,7,,,38,0
42744,note_on,,0,0,8,,,,,,,,,7,,,35,95
42752,note_on,,8,0,5,,,,,,,,,4,,,66,0
42752,note_on,,8,0,4,,,,,,,,,3,,,66,0
42756,note_on,,4,0,4,,,,,,,,,3,,,62,95
42756,note_on,,4,0,5,,,,,,,,,4,,,62,95
42760,note_on,,16,0,2,,,,,,,,,1,,,47,0
42764,note_on,,8,0,5,,,,,,,,,4,,,62,0
42764,note_on,,8,0,4,,,,,,,,,3,,,62,0
42768,note_on,,0,0,6,,,,,,,,,5,,,59,95
42768,note_on,,24,0,6,,,,,,,,,5,,,62,0
42768,note_on,,4,0,4,,,,,,,,,3,,,64,95
42768,note_on,,24,0,7,,,,,,,,,6,,,47,0
42768,note_on,,24,0,8,,,,,,,,,7,,,35,0
42768,note_on,,0,0,8,,,,,,,,,7,,,31,95
42768,note_on,,8,0,2,,,,,,,,,1,,,43,79
42768,note_on,,0,0,7,,,,,,,,,6,,,43,95
42768,note_on,,4,0,5,,,,,,,,,4,,,64,95
42776,note_on,,8,0,5,,,,,,,,,4,,,64,0
42776,note_on,,8,0,4,,,,,,,,,3,,,64,0
42780,note_on,,4,0,4,,,,,,,,,3,,,64,95
42780,note_on,,4,0,5,,,,,,,,,4,,,64,95
42784,note_on,,16,0,2,,,,,,,,,1,,,43,0
42788,note_on,,8,0,4,,,,,,,,,3,,,64,0
42788,note_on,,8,0,5,,,,,,,,,4,,,64,0
42792,note_on,,24,0,6,,,,,,,,,5,,,59,0
42792,note_on,,0,0,7,,,,,,,,,6,,,45,95
42792,note_on,,24,0,7,,,,,,,,,6,,,43,0
42792,note_on,,4,0,5,,,,,,,,,4,,,57,95
42792,note_on,,24,0,8,,,,,,,,,7,,,31,0
42792,note_on,,0,0,8,,,,,,,,,7,,,33,95
42792,note_on,,8,0,2,,,,,,,,,1,,,45,79
42792,note_on,,4,0,4,,,,,,,,,3,,,57,95
42792,note_on,,0,0,6,,,,,,,,,5,,,61,95
42800,note_on,,8,0,5,,,,,,,,,4,,,57,0
42800,note_on,,8,0,4,,,,,,,,,3,,,57,0
42804,note_on,,4,0,5,,,,,,,,,4,,,57,95
42804,note_on,,4,0,4,,,,,,,,,3,,,57,95
42808,note_on,,16,0,2,,,,,,,,,1,,,45,0
42812,note_on,,8,0,4,,,,,,,,,3,,,57,0
42812,note_on,,8,0,5,,,,,,,,,4,,,57,0
42816,note_on,,0,0,8,,,,,,,,,7,,,35,95
42816,note_on,,4,0,4,,,,,,,,,3,,,62,95
42816,note_on,,8,0,2,,,,,,,,,1,,,47,79
42816,note_on,,4,0,5,,,,,,,,,4,,,62,95
42816,note_on,,24,0,6,,,,,,,,,5,,,61,0
42816,note_on,,0,0,6,,,,,,,,,5,,,62,95
42816,note_on,,0,0,7,,,,,,,,,6,,,47,95
42816,note_on,,24,0,7,,,,,,,,,6,,,45,0
42816,note_on,,24,0,8,,,,,,,,,7,,,33,0
42824,note_on,,8,0,5,,,,,,,,,4,,,62,0
42824,note_on,,8,0,2,,,,,,,,,1,,,47,0
42824,note_on,,8,0,4,,,,,,,,,3,,,62,0
42828,note_on,,4,0,2,,,,,,,,,1,,,49,79
42828,note_on,,4,0,4,,,,,,,,,3,,,64,95
42828,note_on,,0,0,6,,,,,,,,,5,,,64,95
42828,note_on,,4,0,5,,,,,,,,,4,,,64,95
42828,note_on,,12,0,8,,,,,,,,,7,,,35,0
42828,note_on,,12,0,6,,,,,,,,,5,,,62,0
42828,note_on,,0,0,8,,,,,,,,,7,,,37,95
42828,note_on,,12,0,7,,,,,,,,,6,,,47,0
42828,note_on,,0,0,7,,,,,,,,,6,,,49,95
42836,note_on,,8,0,4,,,,,,,,,3,,,64,0
42836,note_on,,8,0,2,,,,,,,,,1,,,49,0
42836,note_on,,8,0,5,,,,,,,,,4,,,64,0
42840,note_on,,12,0,8,,,,,,,,,7,,,37,0
42840,note_on,,0,0,8,,,,,,,,,7,,,38,95
42840,note_on,,4,0,4,,,,,,,,,3,,,66,95
42840,note_on,,4,0,2,,,,,,,,,1,,,50,79
42840,note_on,,12,0,6,,,,,,,,,5,,,64,0
42840,note_on,,4,0,5,,,,,,,,,4,,,66,95
42840,note_on,,0,0,6,,,,,,,,,5,,,66,95
42840,note_on,,0,0,7,,,,,,,,,6,,,50,95
42840,note_on,,12,0,7,,,,,,,,,6,,,49,0
42848,note_on,,8,0,2,,,,,,,,,1,,,50,0
42848,note_on,,8,0,5,,,,,,,,,4,,,66,0
42848,note_on,,8,0,4,,,,,,,,,3,,,66,0
42852,note_on,,0,0,7,,,,,,,,,6,,,52,95
42852,note_on,,4,0,2,,,,,,,,,1,,,52,79
42852,note_on,,12,0,8,,,,,,,,,7,,,38,0
42852,note_on,,4,0,4,,,,,,,,,3,,,67,95
42852,note_on,,12,0,7,,,,,,,,,6,,,50,0
42852,note_on,,0,0,8,,,,,,,,,7,,,40,95
42852,note_on,,0,0,6,,,,,,,,,5,,,67,95
42852,note_on,,4,0,5,,,,,,,,,4,,,67,95
42852,note_on,,12,0,6,,,,,,,,,5,,,66,0
42860,note_on,,8,0,5,,,,,,,,,4,,,67,0
42860,note_on,,8,0,2,,,,,,,,,1,,,52,0
42860,note_on,,8,0,4,,,,,,,,,3,,,67,0
42864,note_on,,4,0,4,,,,,,,,,3,,,69,95
42864,note_on,,0,0,7,,,,,,,,,6,,,54,95
42864,note_on,,4,0,5,,,,,,,,,4,,,69,95
42864,note_on,,0,0,6,,,,,,,,,5,,,69,95
42864,note_on,,12,0,6,,,,,,,,,5,,,67,0
42864,note_on,,4,0,2,,,,,,,,,1,,,54,79
42864,note_on,,0,0,8,,,,,,,,,7,,,42,95
42864,note_on,,12,0,7,,,,,,,,,6,,,52,0
42864,note_on,,12,0,8,,,,,,,,,7,,,40,0
42872,note_on,,8,0,4,,,,,,,,,3,,,69,0
42872,note_on,,8,0,2,,,,,,,,,1,,,54,0
42872,note_on,,8,0,5,,,,,,,,,4,,,69,0
42876,note_on,,12,0,6,,,,,,,,,5,,,69,0
42876,note_on,,0,0,8,,,,,,,,,7,,,43,95
42876,note_on,,0,0,6,,,,,,,,,5,,,71,95
42876,note_on,,4,0,5,,,,,,,,,4,,,71,95
42876,note_on,,4,0,4,,,,,,,,,3,,,71,95
42876,note_on,,12,0,7,,,,,,,,,6,,,54,0
42876,note_on,,0,0,7,,,,,,,,,6,,,55,95
42876,note_on,,4,0,2,,,,,,,,,1,,,55,79
42876,note_on,,12,0,8,,,,,,,,,7,,,42,0
42884,note_on,,8,0,2,,,,,,,,,1,,,55,0
42884,note_on,,8,0,4,,,,,,,,,3,,,71,0
42884,note_on,,8,0,5,,,,,,,,,4,,,71,0
42888,note_on,,12,0,6,,,,,,,,,5,,,71,0
42888,note_on,,0,0,8,,,,,,,,,7,,,45,95
42888,note_on,,12,0,8,,,,,,,,,7,,,43,0
42888,note_on,,4,0,4,,,,,,,,,3,,,73,95
42888,note_on,,0,0,6,,,,,,,,,5,,,73,95
42888,note_on,,4,0,2,,,,,,,,,1,,,57,79
42888,note_on,,4,0,5,,,,,,,,,4,,,73,95
42888,note_on,,0,0,7,,,,,,,,,6,,,57,95
42888,note_on,,12,0,7,,,,,,,,,6,,,55,0
42896,note_on,,8,0,2,,,,,,,,,1,,,57,0
42896,note_on,,8,0,5,,,,,,,,,4,,,73,0
42896,note_on,,8,0,4,,,,,,,,,3,,,73,0
42900,note_on,,4,0,2,,,,,,,,,1,,,54,79
42900,note_on,,0,0,8,,,,,,,,,7,,,42,95
42900,note_on,,12,0,8,,,,,,,,,7,,,45,0
42900,note_on,,4,0,5,,,,,,,,,4,,,69,95
42900,note_on,,4,0,4,,,,,,,,,3,,,69,95
42900,note_on,,0,0,7,,,,,,,,,6,,,54,95
42900,note_on,,12,0,7,,,,,,,,,6,,,57,0
42900,note_on,,0,0,6,,,,,,,,,5,,,69,95
42900,note_on,,12,0,6,,,,,,,,,5,,,73,0
42908,note_on,,8,0,5,,,,,,,,,4,,,69,0
42908,note_on,,8,0,2,,,,,,,,,1,,,54,0
42908,note_on,,8,0,4,,,,,,,,,3,,,69,0
42912,note_on,,12,0,6,,,,,,,,,5,,,69,0
42912,note_on,,0,0,6,,,,,,,,,5,,,74,95
42912,note_on,,12,0,8,,,,,,,,,7,,,42,0
42912,note_on,,0,0,8,,,,,,,,,7,,,47,95
42912,note_on,,4,0,2,,,,,,,,,1,,,59,79
42912,note_on,,0,0,7,,,,,,,,,6,,,59,95
42912,note_on,,4,0,5,,,,,,,,,4,,,74,95
42912,note_on,,12,0,7,,,,,,,,,6,,,54,0
42912,note_on,,4,0,4,,,,,,,,,3,,,74,95
42920,note_on,,8,0,4,,,,,,,,,3,,,74,0
42920,note_on,,8,0,5,,,,,,,,,4,,,74,0
42924,note_on,,4,0,5,,,,,,,,,4,,,74,95
42924,note_on,,4,0,4,,,,,,,,,3,,,74,95
42928,note_on,,16,0,2,,,,,,,,,1,,,59,0
42932,note_on,,8,0,4,,,,,,,,,3,,,74,0
42932,note_on,,8,0,5,,,,,,,,,4,,,74,0
42936,note_on,,0,0,8,,,,,,,,,7,,,45,95
42936,note_on,,4,0,5,,,,,,,,,4,,,73,95
42936,note_on,,8,0,2,,,,,,,,,1,,,57,79
42936,note_on,,0,0,7,,,,,,,,,6,,,57,95
42936,note_on,,24,0,7,,,,,,,,,6,,,59,0
42936,note_on,,0,0,6,,,,,,,,,5,,,66,95
42936,note_on,,24,0,6,,,,,,,,,5,,,74,0
42936,note_on,,4,0,4,,,,,,,,,3,,,73,95
42936,note_on,,24,0,8,,,,,,,,,7,,,47,0
42944,note_on,,8,0,5,,,,,,,,,4,,,73,0
42944,note_on,,8,0,4,,,,,,,,,3,,,73,0
42948,note_on,,4,0,5,,,,,,,,,4,,,73,95
42948,note_on,,4,0,4,,,,,,,,,3,,,73,95
42952,note_on,,16,0,2,,,,,,,,,1,,,57,0
42956,note_on,,8,0,4,,,,,,,,,3,,,73,0
42956,note_on,,8,0,5,,,,,,,,,4,,,73,0
42960,note_on,,0,0,7,,,,,,,,,6,,,55,95
42960,note_on,,24,0,8,,,,,,,,,7,,,45,0
42960,note_on,,4,0,5,,,,,,,,,4,,,76,95
42960,note_on,,24,0,7,,,,,,,,,6,,,57,0
42960,note_on,,4,0,4,,,,,,,,,3,,,76,95
42960,note_on,,24,0,6,,,,,,,,,5,,,66,0
42960,note_on,,0,0,6,,,,,,,,,5,,,71,95
42960,note_on,,0,0,8,,,,,,,,,7,,,43,95
42960,note_on,,8,0,2,,,,,,,,,1,,,55,79
42968,note_on,,8,0,5,,,,,,,,,4,,,76,0
42968,note_on,,8,0,4,,,,,,,,,3,,,76,0
42972,note_on,,4,0,5,,,,,,,,,4,,,76,95
42972,note_on,,4,0,4,,,,,,,,,3,,,76,95
42976,note_on,,16,0,2,,,,,,,,,1,,,55,0
42980,note_on,,8,0,4,,,,,,,,,3,,,76,0
42980,note_on,,8,0,5,,,,,,,,,4,,,76,0
42984,note_on,,8,0,2,,,,,,,,,1,,,54,79
42984,note_on,,4,0,4,,,,,,,,,3,,,74,95
42984,note_on,,0,0,7,,,,,,,,,6,,,54,95
42984,note_on,,24,0,8,,,,,,,,,7,,,43,0
42984,note_on,,0,0,8,,,,,,,,,7,,,42,95
42984,note_on,,24,0,7,,,,,,,,,6,,,55,0
42984,note_on,,4,0,5,,,,,,,,,4,,,74,95
42984,note_on,,24,0,6,,,,,,,,,5,,,71,0
42984,note_on,,0,0,6,,,,,,,,,5,,,69,95
42992,note_on,,8,0,5,,,,,,,,,4,,,74,0
42992,note_on,,8,0,4,,,,,,,,,3,,,74,0
42996,note_on,,4,0,4,,,,,,,,,3,,,74,95
42996,note_on,,4,0,5,,,,,,,,,4,,,74,95
43000,note_on,,16,0,2,,,,,,,,,1,,,54,0
43004,note_on,,8,0,5,,,,,,,,,4,,,74,0
43004,note_on,,8,0,4,,,,,,,,,3,,,74,0
43008,note_on,,4,0,5,,,,,,,,,4,,,79,95
43008,note_on,,24,0,6,,,,,,,,,5,,,69,0
43008,note_on,,0,0,6,,,,,,,,,5,,,64,95
43008,note_on,,0,0,7,,,,,,,,,6,,,52,95
43008,note_on,,24,0,7,,,,,,,,,6,,,54,0
43008,note_on,,24,0,8,,,,,,,,,7,,,42,0
43008,note_on,,8,0,2,,,,,,,,,1,,,52,79
43008,note_on,,0,0,8,,,,,,,,,7,,,40,95
43008,note_on,,4,0,4,,,,,,,,,3,,,79,95
43016,note_on,,8,0,4,,,,,,,,,3,,,79,0
43016,note_on,,8,0,5,,,,,,,,,4,,,79,0
43020,note_on,,4,0,5,,,,,,,,,4,,,79,95
43020,note_on,,4,0,4,,,,,,,,,3,,,79,95
43024,note_on,,16,0,2,,,,,,,,,1,,,52,0
43028,note_on,,8,0,5,,,,,,,,,4,,,79,0
43028,note_on,,8,0,4,,,,,,,,,3,,,79,0
43032,note_on,,4,0,4,,,,,,,,,3,,,78,95
43032,note_on,,0,0,7,,,,,,,,,6,,,50,95
43032,note_on,,0,0,8,,,,,,,,,7,,,38,95
43032,note_on,,24,0,8,,,,,,,,,7,,,40,0
43032,note_on,,8,0,2,,,,,,,,,1,,,50,79
43032,note_on,,24,0,7,,,,,,,,,6,,,52,0
43032,note_on,,4,0,5,,,,,,,,,4,,,78,95
43032,note_on,,24,0,6,,,,,,,,,5,,,64,0
43032,note_on,,0,0,6,,,,,,,,,5,,,66,95
43040,note_on,,8,0,5,,,,,,,,,4,,,78,0
43040,note_on,,8,0,4,,,,,,,,,3,,,78,0
43044,note_on,,4,0,5,,,,,,,,,4,,,78,95
43044,note_on,,4,0,4,,,,,,,,,3,,,78,95
43048,note_on,,16,0,2,,,,,,,,,1,,,50,0
43052,note_on,,8,0,4,,,,,,,,,3,,,78,0
43052,note_on,,8,0,5,,,,,,,,,4,,,78,0
43056,note_on,,0,0,6,,,,,,,,,5,,,67,95
43056,note_on,,0,0,7,,,,,,,,,6,,,49,95
43056,note_on,,24,0,7,,,,,,,,,6,,,50,0
43056,note_on,,0,0,8,,,,,,,,,7,,,37,95
43056,note_on,,24,0,8,,,,,,,,,7,,,38,0
43056,note_on,,4,0,4,,,,,,,,,3,,,83,95
43056,note_on,,8,0,2,,,,,,,,,1,,,49,79
43056,note_on,,24,0,6,,,,,,,,,5,,,66,0
43056,note_on,,4,0,5,,,,,,,,,4,,,83,95
43064,note_on,,8,0,4,,,,,,,,,3,,,83,0
43064,note_on,,8,0,5,,,,,,,,,4,,,83,0
43068,note_on,,4,0,4,,,,,,,,,3,,,83,95
43068,note_on,,4,0,5,,,,,,,,,4,,,83,95
43072,note_on,,16,0,2,,,,,,,,,1,,,49,0
43076,note_on,,8,0,4,,,,,,,,,3,,,83,0
43076,note_on,,8,0,5,,,,,,,,,4,,,83,0
43080,note_on,,4,0,4,,,,,,,,,3,,,81,95
43080,note_on,,0,0,6,,,,,,,,,5,,,64,95
43080,note_on,,24,0,7,,,,,,,,,6,,,49,0
43080,note_on,,4,0,5,,,,,,,,,4,,,81,95
43080,note_on,,8,0,2,,,,,,,,,1,,,45,79
43080,note_on,,24,0,8,,,,,,,,,7,,,37,0
43080,note_on,,0,0,8,,,,,,,,,7,,,33,95
43080,note_on,,0,0,7,,,,,,,,,6,,,45,95
43080,note_on,,24,0,6,,,,,,,,,5,,,67,0
43088,note_on,,8,0,4,,,,,,,,,3,,,81,0
43088,note_on,,8,0,5,,,,,,,,,4,,,81,0
43092,note_on,,4,0,4,,,,,,,,,3,,,81,95
43092,note_on,,4,0,5,,,,,,,,,4,,,81,95
43096,note_on,,16,0,2,,,,,,,,,1,,,45,0
43100,note_on,,8,0,4,,,,,,,,,3,,,81,0
43100,note_on,,8,0,5,,,,,,,,,4,,,81,0
43104,note_on,,4,0,5,,,,,,,,,4,,,79,95
43104,note_on,,8,0,2,,,,,,,,,1,,,50,79
43104,note_on,,0,0,7,,,,,,,,,6,,,50,95
43104,note_on,,0,0,6,,,,,,,,,5,,,62,95
43104,note_on,,24,0,6,,,,,,,,,5,,,64,0
43104,note_on,,24,0,7,,,,,,,,,6,,,45,0
43104,note_on,,24,0,8,,,,,,,,,7,,,33,0
43104,note_on,,4,0,4,,,,,,,,,3,,,79,95
43104,note_on,,0,0,8,,,,,,,,,7,,,38,95
43112,note_on,,8,0,5,,,,,,,,,4,,,79,0
43112,note_on,,8,0,4,,,,,,,,,3,,,79,0
43116,note_on,,4,0,4,,,,,,,,,3,,,78,95
43116,note_on,,4,0,5,,,,,,,,,4,,,78,95
43120,note_on,,16,0,2,,,,,,,,,1,,,50,0
43124,note_on,,8,0,5,,,,,,,,,4,,,78,0
43124,note_on,,8,0,4,,,,,,,,,3,,,78,0
43128,note_on,,0,0,7,,,,,,,,,6,,,54,95
43128,note_on,,8,0,2,,,,,,,,,1,,,54,79
43128,note_on,,24,0,8,,,,,,,,,7,,,38,0
43128,note_on,,4,0,4,,,,,,,,,3,,,76,95
43128,note_on,,0,0,6,,,,,,,,,5,,,69,95
43128,note_on,,24,0,6,,,,,,,,,5,,,62,0
43128,note_on,,4,0,5,,,,,,,,,4,,,76,95
43128,note_on,,24,0,7,,,,,,,,,6,,,50,0
43128,note_on,,0,0,8,,,,,,,,,7,,,42,95
43136,note_on,,8,0,4,,,,,,,,,3,,,76,0
43136,note_on,,8,0,5,,,,,,,,,4,,,76,0
43140,note_on,,4,0,4,,,,,,,,,3,,,74,95
43140,note_on,,4,0,5,,,,,,,,,4,,,74,95
43144,note_on,,16,0,2,,,,,,,,,1,,,54,0
43148,note_on,,8,0,4,,,,,,,,,3,,,74,0
43148,note_on,,8,0,5,,,,,,,,,4,,,74,0
43152,note_on,,24,0,7,,,,,,,,,6,,,54,0
43152,note_on,,0,0,7,,,,,,,,,6,,,55,95
43152,note_on,,4,0,5,,,,,,,,,4,,,76,95
43152,note_on,,0,0,8,,,,,,,,,7,,,43,95
43152,note_on,,8,0,2,,,,,,,,,1,,,55,79
43152,note_on,,4,0,4,,,,,,,,,3,,,76,95
43152,note_on,,0,0,6,,,,,,,,,5,,,71,95
43152,note_on,,24,0,8,,,,,,,,,7,,,42,0
43152,note_on,,24,0,6,,,,,,,,,5,,,69,0
43168,note_on,,16,0,2,,,,,,,,,1,,,55,0
43168,note_on,,16,0,5,,,,,,,,,4,,,76,0
43168,note_on,,16,0,4,,,,,,,,,3,,,76,0
43176,note_on,,24,0,7,,,,,,,,,6,,,55,0
43176,note_on,,8,0,5,,,,,,,,,4,,,69,95
43176,note_on,,0,0,7,,,,,,,,,6,,,57,95
43176,note_on,,24,0,8,,,,,,,,,7,,,43,0
43176,note_on,,0,0,8,,,,,,,,,7,,,45,95
43176,note_on,,8,0,4,,,,,,,,,3,,,69,95
43176,note_on,,24,0,6,,,,,,,,,5,,,71,0
43176,note_on,,0,0,6,,,,,,,,,5,,,73,95
43176,note_on,,8,0,2,,,,,,,,,1,,,57,79
43184,note_on,,8,0,5,,,,,,,,,4,,,69,0
43184,note_on,,8,0,4,,,,,,,,,3,,,69,0
43184,note_on,,8,0,2,,,,,,,,,1,,,57,0
43188,note_on,,4,0,4,,,,,,,,,3,,,71,95
43188,note_on,,12,0,7,,,,,,,,,6,,,57,0
43188,note_on,,4,0,2,,,,,,,,,1,,,55,79
43188,note_on,,4,0,5,,,,,,,,,4,,,71,95
43188,note_on,,0,0,7,,,,,,,,,6,,,55,95
43188,note_on,,12,0,8,,,,,,,,,7,,,45,0
43188,note_on,,0,0,8,,,,,,,,,7,,,43,95
43196,note_on,,8,0,2,,,,,,,,,1,,,55,0
43196,note_on,,8,0,5,,,,,,,,,4,,,71,0
43196,note_on,,8,0,4,,,,,,,,,3,,,71,0
43200,note_on,,4,0,5,,,,,,,,,4,,,72,95
43200,note_on,,0,0,7,,,,,,,,,6,,,54,95
43200,note_on,,4,0,4,,,,,,,,,3,,,72,95
43200,note_on,,12,0,8,,,,,,,,,7,,,43,0
43200,note_on,,0,0,8,,,,,,,,,7,,,42,95
43200,note_on,,24,0,6,,,,,,,,,5,,,73,0
43200,note_on,,4,0,2,,,,,,,,,1,,,54,79
43200,note_on,,12,0,7,,,,,,,,,6,,,55,0
43200,note_on,,0,0,6,,,,,,,,,5,,,69,95
43208,note_on,,8,0,4,,,,,,,,,3,,,72,0
43208,note_on,,8,0,5,,,,,,,,,4,,,72,0
43212,note_on,,4,0,4,,,,,,,,,3,,,69,95
43212,note_on,,4,0,5,,,,,,,,,4,,,69,95
43216,note_on,,16,0,2,,,,,,,,,1,,,54,0
43220,note_on,,8,0,4,,,,,,,,,3,,,69,0
43220,note_on,,8,0,5,,,,,,,,,4,,,69,0
43224,note_on,,24,0,6,,,,,,,,,5,,,69,0
43224,note_on,,4,0,4,,,,,,,,,3,,,71,95
43224,note_on,,8,0,2,,,,,,,,,1,,,55,79
43224,note_on,,0,0,8,,,,,,,,,7,,,43,95
43224,note_on,,24,0,8,,,,,,,,,7,,,42,0
43224,note_on,,0,0,7,,,,,,,,,6,,,55,95
43224,note_on,,4,0,5,,,,,,,,,4,,,71,95
43224,note_on,,24,0,7,,,,,,,,,6,,,54,0
43224,note_on,,0,0,6,,,,,,,,,5,,,67,95
43232,note_on,,8,0,5,,,,,,,,,4,,,71,0
43232,note_on,,8,0,4,,,,,,,,,3,,,71,0
43236,note_on,,4,0,4,,,,,,,,,3,,,74,95
43236,note_on,,12,0,6,,,,,,,,,5,,,67,0
43236,note_on,,0,0,6,,,,,,,,,5,,,66,95
43236,note_on,,4,0,5,,,,,,,,,4,,,74,95
43240,note_on,,16,0,2,,,,,,,,,1,,,55,0
43244,note_on,,8,0,5,,,,,,,,,4,,,74,0
43244,note_on,,8,0,4,,,,,,,,,3,,,74,0
43248,note_on,,12,0,6,,,,,,,,,5,,,66,0
43248,note_on,,4,0,5,,,,,,,,,4,,,73,95
43248,note_on,,24,0,7,,,,,,,,,6,,,55,0
43248,note_on,,0,0,6,,,,,,,,,5,,,64,95
43248,note_on,,24,0,8,,,,,,,,,7,,,43,0
43248,note_on,,4,0,4,,,,,,,,,3,,,73,95
43256,note_on,,8,0,5,,,,,,,,,4,,,73,0
43256,note_on,,8,0,4,,,,,,,,,3,,,73,0
43260,note_on,,4,0,4,,,,,,,,,3,,,76,95
43260,note_on,,4,0,5,,,,,,,,,4,,,76,95
43268,note_on,,8,0,5,,,,,,,,,4,,,76,0
43268,note_on,,8,0,4,,,,,,,,,3,,,76,0
43272,note_on,,4,0,4,,,,,,,,,3,,,69,95
43272,note_on,,0,0,6,,,,,,,,,5,,,64,95
43272,note_on,,24,0,7,,,,,,,,,6,,,49,95
43272,note_on,,24,0,8,,,,,,,,,7,,,37,95
43272,note_on,,4,0,5,,,,,,,,,4,,,69,95
43272,note_on,,32,0,2,,,,,,,,,1,,,49,79
43272,note_on,,24,0,6,,,,,,,,,5,,,64,0
43280,note_on,,8,0,5,,,,,,,,,4,,,69,0
43280,note_on,,8,0,2,,,,,,,,,1,,,49,0
43280,note_on,,8,0,4,,,,,,,,,3,,,69,0
43284,note_on,,4,0,2,,,,,,,,,1,,,49,79
43284,note_on,,0,0,8,,,,,,,,,7,,,37,95
43284,note_on,,12,0,8,,,,,,,,,7,,,37,0
43284,note_on,,0,0,7,,,,,,,,,6,,,49,95
43284,note_on,,4,0,4,,,,,,,,,3,,,67,95
43284,note_on,,4,0,5,,,,,,,,,4,,,67,95
43284,note_on,,12,0,7,,,,,,,,,6,,,49,0
43292,note_on,,8,0,4,,,,,,,,,3,,,67,0
43292,note_on,,8,0,2,,,,,,,,,1,,,49,0
43292,note_on,,8,0,5,,,,,,,,,4,,,67,0
43296,note_on,,24,0,6,,,,,,,,,5,,,64,0
43296,note_on,,4,0,4,,,,,,,,,3,,,66,95
43296,note_on,,12,0,7,,,,,,,,,6,,,49,0
43296,note_on,,0,0,7,,,,,,,,,6,,,50,95
43296,note_on,,12,0,8,,,,,,,,,7,,,37,0
43296,note_on,,0,0,8,,,,,,,,,7,,,38,95
43296,note_on,,4,0,5,,,,,,,,,4,,,66,95
43296,note_on,,0,0,6,,,,,,,,,5,,,57,95
43296,note_on,,4,0,2,,,,,,,,,1,,,50,79
43304,note_on,,8,0,5,,,,,,,,,4,,,66,0
43304,note_on,,8,0,2,,,,,,,,,1,,,50,0
43304,note_on,,8,0,4,,,,,,,,,3,,,66,0
43308,note_on,,4,0,5,,,,,,,,,4,,,62,95
43308,note_on,,0,0,7,,,,,,,,,6,,,50,95
43308,note_on,,12,0,7,,,,,,,,,6,,,50,0
43308,note_on,,4,0,2,,,,,,,,,1,,,50,79
43308,note_on,,4,0,4,,,,,,,,,3,,,62,95
43308,note_on,,12,0,8,,,,,,,,,7,,,38,0
43308,note_on,,0,0,8,,,,,,,,,7,,,38,95
43316,note_on,,8,0,2,,,,,,,,,1,,,50,0
43316,note_on,,8,0,4,,,,,,,,,3,,,62,0
43316,note_on,,8,0,5,,,,,,,,,4,,,62,0
43320,note_on,,0,0,6,,,,,,,,,5,,,57,95
43320,note_on,,24,0,6,,,,,,,,,5,,,57,0
43320,note_on,,0,0,8,,,,,,,,,7,,,37,95
43320,note_on,,4,0,2,,,,,,,,,1,,,49,79
43320,note_on,,0,0,7,,,,,,,,,6,,,49,95
43320,note_on,,4,0,5,,,,,,,,,4,,,64,95
43320,note_on,,12,0,7,,,,,,,,,6,,,50,0
43320,note_on,,12,0,8,,,,,,,,,7,,,38,0
43320,note_on,,4,0,4,,,,,,,,,3,,,64,95
43328,note_on,,8,0,4,,,,,,,,,3,,,64,0
43328,note_on,,8,0,2,,,,,,,,,1,,,49,0
43328,note_on,,8,0,5,,,,,,,,,4,,,64,0
43332,note_on,,4,0,4,,,,,,,,,3,,,67,95
43332,note_on,,12,0,8,,,,,,,,,7,,,37,0
43332,note_on,,0,0,8,,,,,,,,,7,,,37,95
43332,note_on,,12,0,7,,,,,,,,,6,,,49,0
43332,note_on,,0,0,7,,,,,,,,,6,,,49,95
43332,note_on,,4,0,5,,,,,,,,,4,,,67,95
43332,note_on,,4,0,2,,,,,,,,,1,,,49,79
43340,note_on,,8,0,4,,,,,,,,,3,,,67,0
43340,note_on,,8,0,5,,,,,,,,,4,,,67,0
43340,note_on,,8,0,2,,,,,,,,,1,,,49,0
43344,note_on,,0,0,8,,,,,,,,,7,,,38,95
43344,note_on,,4,0,4,,,,,,,,,3,,,66,95
43344,note_on,,12,0,8,,,,,,,,,7,,,37,0
43344,note_on,,0,0,6,,,,,,,,,5,,,57,95
43344,note_on,,24,0,6,,,,,,,,,5,,,57,0
43344,note_on,,0,0,7,,,,,,,,,6,,,50,95
43344,note_on,,12,0,7,,,,,,,,,6,,,49,0
43344,note_on,,4,0,2,,,,,,,,,1,,,50,79
43344,note_on,,4,0,5,,,,,,,,,4,,,66,95
43352,note_on,,8,0,2,,,,,,,,,1,,,50,0
43352,note_on,,8,0,4,,,,,,,,,3,,,66,0
43352,note_on,,8,0,5,,,,,,,,,4,,,66,0
43356,note_on,,12,0,7,,,,,,,,,6,,,50,0
43356,note_on,,4,0,4,,,,,,,,,3,,,69,95
43356,note_on,,0,0,7,,,,,,,,,6,,,50,95
43356,note_on,,12,0,8,,,,,,,,,7,,,38,0
43356,note_on,,0,0,8,,,,,,,,,7,,,38,95
43356,note_on,,4,0,5,,,,,,,,,4,,,69,95
43356,note_on,,4,0,2,,,,,,,,,1,,,50,79
43364,note_on,,8,0,5,,,,,,,,,4,,,69,0
43364,note_on,,8,0,4,,,,,,,,,3,,,69,0
43364,note_on,,8,0,2,,,,,,,,,1,,,50,0
43368,note_on,,12,0,8,,,,,,,,,7,,,38,0
43368,note_on,,0,0,6,,,,,,,,,5,,,57,95
43368,note_on,,0,0,8,,,,,,,,,7,,,30,95
43368,note_on,,4,0,5,,,,,,,,,4,,,62,95
43368,note_on,,0,0,7,,,,,,,,,6,,,42,95
43368,note_on,,24,0,6,,,,,,,,,5,,,57,0
43368,note_on,,4,0,4,,,,,,,,,3,,,62,95
43368,note_on,,12,0,7,,,,,,,,,6,,,50,0
43368,note_on,,4,0,2,,,,,,,,,1,,,42,79
43376,note_on,,8,0,2,,,,,,,,,1,,,42,0
43376,note_on,,8,0,5,,,,,,,,,4,,,62,0
43376,note_on,,8,0,4,,,,,,,,,3,,,62,0
43380,note_on,,4,0,5,,,,,,,,,4,,,61,95
43380,note_on,,4,0,4,,,,,,,,,3,,,61,95
43380,note_on,,12,0,7,,,,,,,,,6,,,42,0
43380,note_on,,0,0,8,,,,,,,,,7,,,30,95
43380,note_on,,12,0,8,,,,,,,,,7,,,30,0
43380,note_on,,0,0,7,,,,,,,,,6,,,42,95
43380,note_on,,4,0,2,,,,,,,,,1,,,42,79
43388,note_on,,8,0,4,,,,,,,,,3,,,61,0
43388,note_on,,8,0,5,,,,,,,,,4,,,61,0
43388,note_on,,8,0,2,,,,,,,,,1,,,42,0
43392,note_on,,0,0,8,,,,,,,,,7,,,31,95
43392,note_on,,12,0,8,,,,,,,,,7,,,30,0
43392,note_on,,0,0,6,,,,,,,,,5,,,50,95
43392,note_on,,24,0,6,,,,,,,,,5,,,57,0
43392,note_on,,4,0,2,,,,,,,,,1,,,43,79
43392,note_on,,4,0,5,,,,,,,,,4,,,59,95
43392,note_on,,4,0,4,,,,,,,,,3,,,59,95
43392,note_on,,12,0,7,,,,,,,,,6,,,42,0
43392,note_on,,0,0,7,,,,,,,,,6,,,43,95
43400,note_on,,8,0,5,,,,,,,,,4,,,59,0
43400,note_on,,8,0,4,,,,,,,,,3,,,59,0
43404,note_on,,4,0,4,,,,,,,,,3,,,67,95
43404,note_on,,4,0,5,,,,,,,,,4,,,67,95
43408,note_on,,16,0,2,,,,,,,,,1,,,43,0
43412,note_on,,8,0,4,,,,,,,,,3,,,67,0
43412,note_on,,8,0,5,,,,,,,,,4,,,67,0
43416,note_on,,0,0,7,,,,,,,,,6,,,55,95
43416,note_on,,0,0,6,,,,,,,,,5,,,61,95
43416,note_on,,4,0,4,,,,,,,,,3,,,66,95
43416,note_on,,0,0,1,,,,,,,,,0,,,74,79
43416,note_on,,1416,0,1,,,,,,,,,0,,,66,79
43416,note_on,,0,0,1,,,,,,,,,0,,,71,79
43416,note_on,,24,0,7,,,,,,,,,6,,,43,0
43416,note_on,,24,0,6,,,,,,,,,5,,,50,0
43416,note_on,,8,0,2,,,,,,,,,1,,,55,79
43416,note_on,,0,0,8,,,,,,,,,7,,,43,95
43416,note_on,,24,0,8,,,,,,,,,7,,,31,0
43416,note_on,,4,0,5,,,,,,,,,4,,,66,95
43424,note_on,,8,0,4,,,,,,,,,3,,,66,0
43424,note_on,,8,0,5,,,,,,,,,4,,,66,0
43428,note_on,,4,0,5,,,,,,,,,4,,,64,95
43428,note_on,,4,0,4,,,,,,,,,3,,,64,95
43432,note_on,,16,0,2,,,,,,,,,1,,,55,0
43436,note_on,,8,0,4,,,,,,,,,3,,,64,0
43436,note_on,,8,0,5,,,,,,,,,4,,,64,0
43440,note_on,,0,0,1,,,,,,,,,0,,,74,79
43440,note_on,,0,0,1,,,,,,,,,0,,,69,79
43440,note_on,,24,0,1,,,,,,,,,0,,,74,0
43440,note_on,,0,0,1,,,,,,,,,0,,,66,0
43440,note_on,,0,0,1,,,,,,,,,0,,,71,0
43440,note_on,,24,0,8,,,,,,,,,7,,,43,0
43440,note_on,,0,0,8,,,,,,,,,7,,,45,95
43440,note_on,,0,0,1,,,,,,,,,0,,,64,79
43440,note_on,,4,0,4,,,,,,,,,3,,,64,95
43440,note_on,,4,0,5,,,,,,,,,4,,,64,95
43440,note_on,,0,0,7,,,,,,,,,6,,,57,95
43440,note_on,,24,0,7,,,,,,,,,6,,,55,0
43440,note_on,,24,0,6,,,,,,,,,5,,,61,0
43440,note_on,,8,0,2,,,,,,,,,1,,,57,79
43440,note_on,,0,0,6,,,,,,,,,5,,,61,95
43456,note_on,,16,0,2,,,,,,,,,1,,,57,0
43464,note_on,,24,0,1,,,,,,,,,0,,,74,0
43464,note_on,,8,0,2,,,,,,,,,1,,,45,79
43464,note_on,,0,0,1,,,,,,,,,0,,,69,0
43464,note_on,,0,0,1,,,,,,,,,0,,,64,0
43464,note_on,,0,0,1,,,,,,,,,0,,,67,79
43464,note_on,,0,0,1,,,,,,,,,0,,,69,79
43464,note_on,,0,0,6,,,,,,,,,5,,,67,95
43464,note_on,,24,0,7,,,,,,,,,6,,,57,0
43464,note_on,,24,0,5,,,,,,,,,4,,,64,0
43464,note_on,,24,0,6,,,,,,,,,5,,,61,0
43464,note_on,,24,0,4,,,,,,,,,3,,,64,0
43464,note_on,,24,0,8,,,,,,,,,7,,,45,0
43464,note_on,,0,0,8,,,,,,,,,7,,,33,95
43464,note_on,,0,0,1,,,,,,,,,0,,,73,79
43464,note_on,,0,0,7,,,,,,,,,6,,,45,95
43476,note_on,,12,0,4,,,,,,,,,3,,,62,95
43476,note_on,,12,0,5,,,,,,,,,4,,,62,95
43480,note_on,,16,0,2,,,,,,,,,1,,,45,0
43484,note_on,,8,0,5,,,,,,,,,4,,,62,0
43484,note_on,,8,0,4,,,,,,,,,3,,,62,0
43488,note_on,,0,0,7,,,,,,,,,6,,,50,95
43488,note_on,,8,0,2,,,,,,,,,1,,,50,79
43488,note_on,,0,0,6,,,,,,,,,5,,,66,95
43488,note_on,,24,0,6,,,,,,,,,5,,,67,0
43488,note_on,,4,0,5,,,,,,,,,4,,,62,95
43488,note_on,,0,0,8,,,,,,,,,7,,,38,95
43488,note_on,,4,0,4,,,,,,,,,3,,,62,95
43488,note_on,,24,0,8,,,,,,,,,7,,,33,0
43488,note_on,,24,0,7,,,,,,,,,6,,,45,0
43488,set_tempo,,1536,1,0,,,,,,,1621622,,,,,,
43488,note_on,,0,0,1,,,,,,,,,0,,,66,79
43488,note_on,,0,0,1,,,,,,,,,0,,,69,79
43488,note_on,,24,0,1,,,,,,,,,0,,,73,0
43488,note_on,,0,0,1,,,,,,,,,0,,,69,0
43488,note_on,,0,0,1,,,,,,,,,0,,,74,79
43488,note_on,,0,0,1,,,,,,,,,0,,,67,0
43512,set_tempo,,24,1,0,,,,,,,1621622,,,,,,
43520,note_on,,32,0,2,,,,,,,,,1,,,50,0
43536,note_on,,48,0,8,,,,,,,,,7,,,38,0
43536,note_on,,48,0,7,,,,,,,,,6,,,50,0
43536,note_on,,48,0,4,,,,,,,,,3,,,62,0
43536,note_on,,48,0,1,,,,,,,,,0,,,74,0
43536,note_on,,48,0,6,,,,,,,,,5,,,66,0
43536,note_on,,0,0,1,,,,,,,,,0,,,66,0
43536,note_on,,0,0,1,,,,,,,,,0,,,69,0
43536,note_on,,48,0,5,,,,,,,,,4,,,62,0
43680,note_on,,0,0,1,,,,,,,,,0,,,66,95
43680,note_on,,160,0,2,,,,,,,,,1,,,59,95
43680,note_on,,144,0,1,,,,,,,,,0,,,62,95
43680,marker,,0,1,0,,,,,,,,,,,,,
43680,set_tempo,,168,1,0,,,,,,,845070,,,,,,
43728,note_on,,0,0,1,,,,,,,,,0,,,62,0
43728,note_on,,0,0,2,,,,,,,,,1,,,57,95
43728,note_on,,192,0,4,,,,,,,,,3,,,66,95
43728,note_on,,0,0,1,,,,,,,,,0,,,66,95
43728,note_on,,48,0,1,,,,,,,,,0,,,66,0
43728,note_on,,48,0,2,,,,,,,,,1,,,59,0
43728,note_on,,0,0,1,,,,,,,,,0,,,61,95
43776,note_on,,48,0,4,,,,,,,,,3,,,66,0
43776,note_on,,0,0,1,,,,,,,,,0,,,64,95
43776,note_on,,48,0,1,,,,,,,,,0,,,66,0
43776,note_on,,0,0,4,,,,,,,,,3,,,71,95
43776,note_on,,0,0,1,,,,,,,,,0,,,59,95
43776,note_on,,0,0,2,,,,,,,,,1,,,55,95
43776,note_on,,48,0,2,,,,,,,,,1,,,57,0
43776,note_on,,0,0,1,,,,,,,,,0,,,61,0
43824,note_on,,0,0,2,,,,,,,,,1,,,52,95
43824,note_on,,48,0,2,,,,,,,,,1,,,55,0
43824,note_on,,0,0,4,,,,,,,,,3,,,73,95
43824,note_on,,0,0,1,,,,,,,,,0,,,59,95
43824,note_on,,0,0,1,,,,,,,,,0,,,55,95
43824,note_on,,0,0,1,,,,,,,,,0,,,59,0
43824,note_on,,48,0,1,,,,,,,,,0,,,64,0
43824,note_on,,48,0,4,,,,,,,,,3,,,71,0
43860,note_on,,36,0,4,,,,,,,,,3,,,73,0
43860,note_on,,0,0,4,,,,,,,,,3,,,74,95
43872,note_on,,12,0,4,,,,,,,,,3,,,74,0
43872,note_on,,0,0,4,,,,,,,,,3,,,70,95
43872,note_on,,0,0,1,,,,,,,,,0,,,55,0
43872,note_on,,48,0,2,,,,,,,,,1,,,52,0
43872,note_on,,0,0,2,,,,,,,,,1,,,54,95
43872,note_on,,48,0,1,,,,,,,,,0,,,59,0
43872,note_on,,0,0,1,,,,,,,,,0,,,58,95
43872,note_on,,0,0,1,,,,,,,,,0,,,61,95
43920,note_on,,0,0,1,,,,,,,,,0,,,61,95
43920,note_on,,48,0,2,,,,,,,,,1,,,54,0
43920,note_on,,0,0,2,,,,,,,,,1,,,52,95
43920,note_on,,0,0,4,,,,,,,,,3,,,71,95
43920,note_on,,14520,0,3,,,,,,,,,2,,,66,95
43920,note_on,,48,0,1,,,,,,,,,0,,,61,0
43920,note_on,,0,0,1,,,,,,,,,0,,,58,0
43920,note_on,,48,0,4,,,,,,,,,3,,,70,0
43956,note_on,,36,0,4,,,,,,,,,3,,,71,0
43956,note_on,,0,0,4,,,,,,,,,3,,,73,95
43968,note_on,,0,0,1,,,,,,,,,0,,,59,95
43968,note_on,,12,0,4,,,,,,,,,3,,,73,0
43968,note_on,,0,0,4,,,,,,,,,3,,,74,95
43968,note_on,,48,0,1,,,,,,,,,0,,,61,0
43968,note_on,,48,0,2,,,,,,,,,1,,,52,0
43968,note_on,,0,0,2,,,,,,,,,1,,,50,95
43968,note_on,,0,0,3,,,,,,,,,2,,,71,95
43968,note_on,,48,0,3,,,,,,,,,2,,,66,0
43968,note_on,,0,0,1,,,,,,,,,0,,,62,95
44016,note_on,,0,0,2,,,,,,,,,1,,,49,95
44016,note_on,,0,0,1,,,,,,,,,0,,,59,95
44016,note_on,,48,0,3,,,,,,,,,2,,,71,0
44016,note_on,,0,0,4,,,,,,,,,3,,,76,95
44016,note_on,,48,0,4,,,,,,,,,3,,,74,0
44016,note_on,,0,0,1,,,,,,,,,0,,,64,95
44016,note_on,,0,0,1,,,,,,,,,0,,,59,0
44016,note_on,,48,0,1,,,,,,,,,0,,,62,0
44016,note_on,,0,0,3,,,,,,,,,2,,,73,95
44016,note_on,,48,0,2,,,,,,,,,1,,,50,0
44052,note_on,,0,0,4,,,,,,,,,3,,,78,95
44052,note_on,,0,0,2,,,,,,,,,1,,,47,95
44052,note_on,,36,0,3,,,,,,,,,2,,,73,0
44052,note_on,,0,0,3,,,,,,,,,2,,,74,95
44052,note_on,,36,0,4,,,,,,,,,3,,,76,0
44052,note_on,,36,0,2,,,,,,,,,1,,,49,0
44064,note_on,,0,0,1,,,,,,,,,0,,,58,95
44064,note_on,,0,0,1,,,,,,,,,0,,,66,95
44064,note_on,,12,0,3,,,,,,,,,2,,,74,0
44064,note_on,,12,0,4,,,,,,,,,3,,,78,0
44064,note_on,,48,0,1,,,,,,,,,0,,,64,0
44064,note_on,,0,0,3,,,,,,,,,2,,,70,95
44064,note_on,,0,0,2,,,,,,,,,1,,,54,95
44064,note_on,,12,0,2,,,,,,,,,1,,,47,0
44064,note_on,,0,0,4,,,,,,,,,3,,,73,95
44064,note_on,,0,0,1,,,,,,,,,0,,,59,0
44112,note_on,,48,0,4,,,,,,,,,3,,,73,0
44112,note_on,,0,0,4,,,,,,,,,3,,,66,95
44112,note_on,,0,0,2,,,,,,,,,1,,,56,95
44112,note_on,,48,0,2,,,,,,,,,1,,,54,0
44112,note_on,,0,0,1,,,,,,,,,0,,,59,95
44112,note_on,,0,0,1,,,,,,,,,0,,,58,0
44112,note_on,,48,0,1,,,,,,,,,0,,,66,0
44112,note_on,,0,0,1,,,,,,,,,0,,,66,95
44112,note_on,,0,0,3,,,,,,,,,2,,,71,95
44112,note_on,,48,0,3,,,,,,,,,2,,,70,0
44136,note_on,,0,0,1,,,,,,,,,0,,,61,95
44136,note_on,,24,0,1,,,,,,,,,0,,,59,0
44148,note_on,,0,0,2,,,,,,,,,1,,,58,95
44148,note_on,,0,0,3,,,,,,,,,2,,,73,95
44148,note_on,,36,0,3,,,,,,,,,2,,,71,0
44148,note_on,,36,0,2,,,,,,,,,1,,,56,0
44160,note_on,,0,0,1,,,,,,,,,0,,,66,0
44160,note_on,,24,0,1,,,,,,,,,0,,,61,0
44160,note_on,,0,0,4,,,,,,,,,3,,,78,95
44160,note_on,,12,0,3,,,,,,,,,2,,,73,0
44160,note_on,,48,0,4,,,,,,,,,3,,,66,0
44160,note_on,,0,0,3,,,,,,,,,2,,,74,95
44160,note_on,,0,0,2,,,,,,,,,1,,,59,95
44160,note_on,,12,0,2,,,,,,,,,1,,,58,0
44208,note_on,,48,0,2,,,,,,,,,1,,,59,0
44208,note_on,,0,0,2,,,,,,,,,1,,,61,95
44208,note_on,,0,0,3,,,,,,,,,2,,,76,95
44208,note_on,,48,0,3,,,,,,,,,2,,,74,0
44244,note_on,,36,0,3,,,,,,,,,2,,,76,0
44244,note_on,,0,0,3,,,,,,,,,2,,,78,95
44244,note_on,,36,0,2,,,,,,,,,1,,,61,0
44244,note_on,,0,0,2,,,,,,,,,1,,,62,95
44256,note_on,,0,0,2,,,,,,,,,1,,,52,95
44256,note_on,,12,0,3,,,,,,,,,2,,,78,0
44256,note_on,,0,0,3,,,,,,,,,2,,,79,95
44256,note_on,,12,0,2,,,,,,,,,1,,,62,0
44304,note_on,,0,0,3,,,,,,,,,2,,,81,95
44304,note_on,,48,0,3,,,,,,,,,2,,,79,0
44304,note_on,,0,0,2,,,,,,,,,1,,,54,95
44304,note_on,,48,0,2,,,,,,,,,1,,,52,0
44304,note_on,,0,0,4,,,,,,,,,3,,,76,95
44304,note_on,,144,0,4,,,,,,,,,3,,,78,0
44340,note_on,,36,0,3,,,,,,,,,2,,,81,0
44340,note_on,,0,0,3,,,,,,,,,2,,,83,95
44340,note_on,,0,0,2,,,,,,,,,1,,,55,95
44340,note_on,,36,0,2,,,,,,,,,1,,,54,0
44340,note_on,,0,0,4,,,,,,,,,3,,,74,95
44340,note_on,,36,0,4,,,,,,,,,3,,,76,0
44352,note_on,,0,0,4,,,,,,,,,3,,,73,95
44352,note_on,,12,0,4,,,,,,,,,3,,,74,0
44352,note_on,,0,0,2,,,,,,,,,1,,,57,95
44352,note_on,,12,0,2,,,,,,,,,1,,,55,0
44352,note_on,,12,0,3,,,,,,,,,2,,,83,0
44352,note_on,,0,0,3,,,,,,,,,2,,,81,95
44358,note_on,,0,0,4,,,,,,,,,3,,,74,95
44358,note_on,,6,0,4,,,,,,,,,3,,,73,0
44364,note_on,,6,0,4,,,,,,,,,3,,,74,0
44364,note_on,,0,0,4,,,,,,,,,3,,,73,95
44370,note_on,,6,0,4,,,,,,,,,3,,,73,0
44370,note_on,,0,0,4,,,,,,,,,3,,,74,95
44376,note_on,,6,0,4,,,,,,,,,3,,,74,0
44376,note_on,,0,0,4,,,,,,,,,3,,,73,95
44382,note_on,,0,0,4,,,,,,,,,3,,,74,95
44382,note_on,,6,0,4,,,,,,,,,3,,,73,0
44388,note_on,,6,0,4,,,,,,,,,3,,,74,0
44388,note_on,,0,0,4,,,,,,,,,3,,,73,95
44394,note_on,,6,0,4,,,,,,,,,3,,,73,0
44394,note_on,,0,0,4,,,,,,,,,3,,,71,95
44400,note_on,,48,0,2,,,,,,,,,1,,,57,0
44400,note_on,,48,0,3,,,,,,,,,2,,,81,0
44400,note_on,,0,0,3,,,,,,,,,2,,,79,95
44400,note_on,,6,0,4,,,,,,,,,3,,,71,0
44400,note_on,,0,0,2,,,,,,,,,1,,,45,95
44400,note_on,,0,0,4,,,,,,,,,3,,,73,95
44406,note_on,,6,0,3,,,,,,,,,2,,,79,0
44406,note_on,,0,0,3,,,,,,,,,2,,,81,95
44412,note_on,,6,0,3,,,,,,,,,2,,,81,0
44412,note_on,,0,0,3,,,,,,,,,2,,,79,95
44418,note_on,,0,0,3,,,,,,,,,2,,,78,95
44418,note_on,,6,0,3,,,,,,,,,2,,,79,0
44424,note_on,,0,0,3,,,,,,,,,2,,,79,95
44424,note_on,,6,0,3,,,,,,,,,2,,,78,0
44448,note_on,,0,0,4,,,,,,,,,3,,,74,95
44448,note_on,,24,0,3,,,,,,,,,2,,,79,0
44448,note_on,,0,0,2,,,,,,,,,1,,,50,95
44448,note_on,,48,0,2,,,,,,,,,1,,,45,0
44448,note_on,,48,0,4,,,,,,,,,3,,,73,0
44448,note_on,,0,0,3,,,,,,,,,2,,,78,95
44496,note_on,,48,0,2,,,,,,,,,1,,,50,0
44496,note_on,,0,0,2,,,,,,,,,1,,,55,95
44496,note_on,,0,0,3,,,,,,,,,2,,,71,95
44496,note_on,,48,0,3,,,,,,,,,2,,,78,0
44544,note_on,,0,0,2,,,,,,,,,1,,,49,95
44544,note_on,,48,0,3,,,,,,,,,2,,,71,0
44544,note_on,,0,0,3,,,,,,,,,2,,,76,95
44544,note_on,,48,0,2,,,,,,,,,1,,,55,0
44592,note_on,,0,0,4,,,,,,,,,3,,,73,95
44592,note_on,,48,0,2,,,,,,,,,1,,,49,0
44592,note_on,,0,0,2,,,,,,,,,1,,,50,95
44592,note_on,,144,0,4,,,,,,,,,3,,,74,0
44628,note_on,,0,0,2,,,,,,,,,1,,,52,95
44628,note_on,,0,0,4,,,,,,,,,3,,,71,95
44628,note_on,,36,0,4,,,,,,,,,3,,,73,0
44628,note_on,,36,0,2,,,,,,,,,1,,,50,0
44640,note_on,,12,0,2,,,,,,,,,1,,,52,0
44640,note_on,,12,0,4,,,,,,,,,3,,,71,0
44640,note_on,,0,0,2,,,,,,,,,1,,,54,95
44640,note_on,,0,0,4,,,,,,,,,3,,,70,95
44688,note_on,,48,0,2,,,,,,,,,1,,,54,0
44688,note_on,,0,0,2,,,,,,,,,1,,,52,95
44688,note_on,,144,0,3,,,,,,,,,2,,,76,0
44688,note_on,,0,0,3,,,,,,,,,2,,,78,95
44724,note_on,,36,0,3,,,,,,,,,2,,,78,0
44724,note_on,,0,0,3,,,,,,,,,2,,,79,95
44736,note_on,,96,0,4,,,,,,,,,3,,,70,0
44736,note_on,,0,0,2,,,,,,,,,1,,,50,95
44736,note_on,,48,0,2,,,,,,,,,1,,,52,0
44736,note_on,,0,0,3,,,,,,,,,2,,,78,95
44736,note_on,,12,0,3,,,,,,,,,2,,,79,0
44784,note_on,,48,0,3,,,,,,,,,2,,,78,0
44784,note_on,,48,0,2,,,,,,,,,1,,,50,0
44784,note_on,,0,0,3,,,,,,,,,2,,,76,95
44784,note_on,,0,0,2,,,,,,,,,1,,,49,95
44784,note_on,,48,0,4,,,,,,,,,3,,,70,95
44790,note_on,,6,0,3,,,,,,,,,2,,,76,0
44790,note_on,,0,0,3,,,,,,,,,2,,,78,95
44796,note_on,,6,0,3,,,,,,,,,2,,,78,0
44796,note_on,,0,0,3,,,,,,,,,2,,,76,95
44802,note_on,,6,0,3,,,,,,,,,2,,,76,0
44802,note_on,,0,0,3,,,,,,,,,2,,,74,95
44808,note_on,,0,0,3,,,,,,,,,2,,,76,95
44808,note_on,,6,0,3,,,,,,,,,2,,,74,0
44832,note_on,,48,0,2,,,,,,,,,1,,,49,0
44832,note_on,,24,0,3,,,,,,,,,2,,,76,0
44832,note_on,,0,0,3,,,,,,,,,2,,,74,95
44832,note_on,,48,0,4,,,,,,,,,3,,,70,0
44832,note_on,,0,0,4,,,,,,,,,3,,,71,95
44832,note_on,,0,0,2,,,,,,,,,1,,,47,95
44856,note_on,,24,0,3,,,,,,,,,2,,,74,0
44856,note_on,,0,0,3,,,,,,,,,2,,,73,95
44880,note_on,,48,0,4,,,,,,,,,3,,,71,0
44880,note_on,,0,0,4,,,,,,,,,3,,,66,95
44880,note_on,,48,0,2,,,,,,,,,1,,,47,0
44880,note_on,,0,0,3,,,,,,,,,2,,,76,95
44880,note_on,,24,0,3,,,,,,,,,2,,,73,0
44880,note_on,,0,0,2,,,,,,,,,1,,,47,95
44904,note_on,,24,0,3,,,,,,,,,2,,,76,0
44904,note_on,,0,0,3,,,,,,,,,2,,,74,95
44928,note_on,,0,0,3,,,,,,,,,2,,,74,95
44928,note_on,,24,0,3,,,,,,,,,2,,,74,0
44928,note_on,,48,0,4,,,,,,,,,3,,,66,0
44928,note_on,,0,0,4,,,,,,,,,3,,,64,95
44928,note_on,,48,0,2,,,,,,,,,1,,,47,0
44928,note_on,,0,0,2,,,,,,,,,1,,,52,95
44952,note_on,,0,0,3,,,,,,,,,2,,,73,95
44952,note_on,,24,0,3,,,,,,,,,2,,,74,0
44976,note_on,,48,0,4,,,,,,,,,3,,,64,0
44976,note_on,,0,0,4,,,,,,,,,3,,,62,95
44976,note_on,,0,0,3,,,,,,,,,2,,,71,95
44976,note_on,,24,0,3,,,,,,,,,2,,,73,0
44976,note_on,,48,0,2,,,,,,,,,1,,,52,0
44976,note_on,,0,0,2,,,,,,,,,1,,,54,95
45012,note_on,,36,0,3,,,,,,,,,2,,,71,0
45012,note_on,,0,0,3,,,,,,,,,2,,,70,95
45012,note_on,,0,0,2,,,,,,,,,1,,,55,95
45012,note_on,,36,0,2,,,,,,,,,1,,,54,0
45012,note_on,,36,0,4,,,,,,,,,3,,,62,0
45012,note_on,,0,0,4,,,,,,,,,3,,,61,95
45024,note_on,,12,0,2,,,,,,,,,1,,,55,0
45024,note_on,,12,0,3,,,,,,,,,2,,,70,0
45024,note_on,,0,0,4,,,,,,,,,3,,,76,95
45024,note_on,,12,0,4,,,,,,,,,3,,,61,0
45024,note_on,,0,0,3,,,,,,,,,2,,,79,95
45024,note_on,,0,0,2,,,,,,,,,1,,,46,95
45072,note_on,,0,0,2,,,,,,,,,1,,,47,95
45072,note_on,,48,0,3,,,,,,,,,2,,,79,0
45072,note_on,,48,0,2,,,,,,,,,1,,,46,0
45072,note_on,,48,0,4,,,,,,,,,3,,,76,0
45072,note_on,,0,0,3,,,,,,,,,2,,,78,95
45072,note_on,,0,0,4,,,,,,,,,3,,,74,95
45108,note_on,,0,0,4,,,,,,,,,3,,,73,95
45108,note_on,,36,0,3,,,,,,,,,2,,,78,0
45108,note_on,,0,0,3,,,,,,,,,2,,,76,95
45108,note_on,,36,0,4,,,,,,,,,3,,,74,0
45120,note_on,,12,0,4,,,,,,,,,3,,,73,0
45120,note_on,,0,0,3,,,,,,,,,2,,,74,95
45120,note_on,,12,0,3,,,,,,,,,2,,,76,0
45120,note_on,,48,0,2,,,,,,,,,1,,,47,0
45120,note_on,,0,0,4,,,,,,,,,3,,,71,95
45120,note_on,,0,0,2,,,,,,,,,1,,,54,95
45168,note_on,,0,0,3,,,,,,,,,2,,,73,95
45168,note_on,,48,0,4,,,,,,,,,3,,,71,0
45168,note_on,,48,0,2,,,,,,,,,1,,,54,0
45168,note_on,,0,0,2,,,,,,,,,1,,,42,95
45168,note_on,,48,0,3,,,,,,,,,2,,,74,0
45168,note_on,,0,0,4,,,,,,,,,3,,,70,95
45192,note_on,,24,0,3,,,,,,,,,2,,,73,0
45192,note_on,,0,0,3,,,,,,,,,2,,,71,95
45216,note_on,,0,0,3,,,,,,,,,2,,,71,95
45216,note_on,,48,0,4,,,,,,,,,3,,,70,0
45216,note_on,,0,0,4,,,,,,,,,3,,,71,95
45216,note_on,,0,0,2,,,,,,,,,1,,,47,95
45216,note_on,,48,0,2,,,,,,,,,1,,,42,0
45216,note_on,,24,0,3,,,,,,,,,2,,,71,0
45264,note_on,,48,0,2,,,,,,,,,1,,,47,0
45264,note_on,,1104,0,1,,,,,,,,,0,,,66,95
45264,note_on,,0,0,2,,,,,,,,,1,,,45,95
45288,note_on,,72,0,3,,,,,,,,,2,,,71,0
45288,note_on,,0,0,3,,,,,,,,,2,,,73,95
45312,note_on,,0,0,1,,,,,,,,,0,,,71,95
45312,note_on,,24,0,3,,,,,,,,,2,,,73,0
45312,note_on,,48,0,2,,,,,,,,,1,,,45,0
45312,note_on,,0,0,2,,,,,,,,,1,,,43,95
45312,note_on,,0,0,3,,,,,,,,,2,,,74,95
45312,note_on,,96,0,4,,,,,,,,,3,,,71,0
45312,note_on,,48,0,1,,,,,,,,,0,,,66,0
45318,note_on,,6,0,2,,,,,,,,,1,,,43,0
45318,note_on,,0,0,2,,,,,,,,,1,,,45,95
45324,note_on,,6,0,2,,,,,,,,,1,,,45,0
45324,note_on,,0,0,2,,,,,,,,,1,,,43,95
45330,note_on,,0,0,2,,,,,,,,,1,,,45,95
45330,note_on,,6,0,2,,,,,,,,,1,,,43,0
45336,note_on,,6,0,2,,,,,,,,,1,,,45,0
45336,note_on,,0,0,2,,,,,,,,,1,,,43,95
45336,note_on,,0,0,3,,,,,,,,,2,,,76,95
45336,note_on,,24,0,3,,,,,,,,,2,,,74,0
45342,note_on,,0,0,2,,,,,,,,,1,,,45,95
45342,note_on,,6,0,2,,,,,,,,,1,,,43,0
45348,note_on,,0,0,2,,,,,,,,,1,,,43,95
45348,note_on,,6,0,2,,,,,,,,,1,,,45,0
45354,note_on,,6,0,2,,,,,,,,,1,,,43,0
45354,note_on,,0,0,2,,,,,,,,,1,,,45,95
45360,note_on,,0,0,3,,,,,,,,,2,,,76,95
45360,note_on,,24,0,3,,,,,,,,,2,,,76,0
45360,note_on,,6,0,2,,,,,,,,,1,,,45,0
45360,note_on,,0,0,2,,,,,,,,,1,,,43,95
45360,note_on,,48,0,1,,,,,,,,,0,,,71,0
45360,note_on,,0,0,1,,,,,,,,,0,,,73,95
45366,note_on,,6,0,2,,,,,,,,,1,,,43,0
45366,note_on,,0,0,2,,,,,,,,,1,,,45,95
45366,note_on,,6,0,3,,,,,,,,,2,,,76,0
45366,note_on,,0,0,3,,,,,,,,,2,,,78,95
45372,note_on,,6,0,3,,,,,,,,,2,,,78,0
45372,note_on,,6,0,2,,,,,,,,,1,,,45,0
45372,note_on,,0,0,3,,,,,,,,,2,,,76,95
45372,note_on,,0,0,2,,,,,,,,,1,,,43,95
45378,note_on,,6,0,2,,,,,,,,,1,,,43,0
45378,note_on,,0,0,2,,,,,,,,,1,,,45,95
45378,note_on,,6,0,3,,,,,,,,,2,,,76,0
45378,note_on,,0,0,3,,,,,,,,,2,,,78,95
45384,note_on,,6,0,3,,,,,,,,,2,,,78,0
45384,note_on,,0,0,3,,,,,,,,,2,,,76,95
45384,note_on,,6,0,2,,,,,,,,,1,,,45,0
45384,note_on,,0,0,2,,,,,,,,,1,,,43,95
45390,note_on,,6,0,3,,,,,,,,,2,,,76,0
45390,note_on,,0,0,3,,,,,,,,,2,,,74,95
45390,note_on,,0,0,2,,,,,,,,,1,,,45,95
45390,note_on,,6,0,2,,,,,,,,,1,,,43,0
45396,note_on,,0,0,2,,,,,,,,,1,,,43,95
45396,note_on,,6,0,2,,,,,,,,,1,,,45,0
45396,note_on,,6,0,3,,,,,,,,,2,,,74,0
45396,note_on,,36,0,1,,,,,,,,,0,,,73,0
45396,note_on,,0,0,1,,,,,,,,,0,,,74,95
45396,note_on,,0,0,3,,,,,,,,,2,,,76,95
45402,note_on,,0,0,2,,,,,,,,,1,,,45,95
45402,note_on,,6,0,2,,,,,,,,,1,,,43,0
45408,note_on,,6,0,2,,,,,,,,,1,,,45,0
45408,note_on,,0,0,1,,,,,,,,,0,,,70,95
45408,note_on,,12,0,1,,,,,,,,,0,,,74,0
45408,note_on,,0,0,2,,,,,,,,,1,,,42,95
45408,note_on,,12,0,3,,,,,,,,,2,,,76,0
45408,note_on,,0,0,3,,,,,,,,,2,,,78,95
45456,note_on,,0,0,1,,,,,,,,,0,,,71,95
45456,note_on,,48,0,1,,,,,,,,,0,,,70,0
45456,note_on,,0,0,3,,,,,,,,,2,,,66,63
45456,note_on,,48,0,3,,,,,,,,,2,,,78,0
45492,note_on,,0,0,1,,,,,,,,,0,,,73,95
45492,note_on,,36,0,1,,,,,,,,,0,,,71,0
45504,note_on,,48,0,3,,,,,,,,,2,,,66,0
45504,note_on,,0,0,3,,,,,,,,,2,,,71,63
45504,note_on,,0,0,1,,,,,,,,,0,,,74,95
45504,note_on,,12,0,1,,,,,,,,,0,,,73,0
45552,note_on,,48,0,3,,,,,,,,,2,,,71,0
45552,note_on,,0,0,3,,,,,,,,,2,,,73,63
45552,note_on,,48,0,1,,,,,,,,,0,,,74,0
45552,note_on,,0,0,1,,,,,,,,,0,,,76,95
45588,note_on,,0,0,3,,,,,,,,,2,,,74,63
45588,note_on,,36,0,1,,,,,,,,,0,,,76,0
45588,note_on,,0,0,1,,,,,,,,,0,,,78,95
45588,note_on,,36,0,3,,,,,,,,,2,,,73,0
45600,note_on,,0,0,1,,,,,,,,,0,,,73,95
45600,note_on,,0,0,2,,,,,,,,,1,,,42,95
45600,note_on,,192,0,2,,,,,,,,,1,,,42,0
45600,note_on,,0,0,3,,,,,,,,,2,,,70,63
45600,note_on,,12,0,3,,,,,,,,,2,,,74,0
45600,note_on,,12,0,1,,,,,,,,,0,,,78,0
45612,note_on,,12,0,1,,,,,,,,,0,,,73,0
45612,note_on,,0,0,1,,,,,,,,,0,,,70,95
45624,note_on,,12,0,1,,,,,,,,,0,,,70,0
45624,note_on,,0,0,1,,,,,,,,,0,,,73,95
45636,note_on,,12,0,1,,,,,,,,,0,,,73,0
45636,note_on,,0,0,1,,,,,,,,,0,,,76,95
45648,note_on,,12,0,1,,,,,,,,,0,,,76,0
45648,note_on,,0,0,1,,,,,,,,,0,,,79,95
45648,note_on,,48,0,3,,,,,,,,,2,,,70,0
45648,note_on,,336,0,4,,,,,,,,,3,,,66,63
45648,note_on,,0,0,3,,,,,,,,,2,,,71,63
45660,note_on,,0,0,1,,,,,,,,,0,,,78,95
45660,note_on,,12,0,1,,,,,,,,,0,,,79,0
45672,note_on,,12,0,1,,,,,,,,,0,,,78,0
45672,note_on,,0,0,1,,,,,,,,,0,,,79,95
45684,note_on,,0,0,1,,,,,,,,,0,,,76,95
45684,note_on,,12,0,1,,,,,,,,,0,,,79,0
45684,note_on,,0,0,3,,,,,,,,,2,,,73,63
45684,note_on,,36,0,3,,,,,,,,,2,,,71,0
45696,note_on,,48,0,4,,,,,,,,,3,,,66,0
45696,note_on,,12,0,3,,,,,,,,,2,,,73,0
45696,note_on,,12,0,1,,,,,,,,,0,,,76,0
45696,note_on,,0,0,1,,,,,,,,,0,,,74,95
45696,note_on,,0,0,3,,,,,,,,,2,,,74,63
45696,note_on,,0,0,4,,,,,,,,,3,,,71,63
45702,note_on,,6,0,1,,,,,,,,,0,,,74,0
45702,note_on,,0,0,1,,,,,,,,,0,,,76,95
45708,note_on,,0,0,1,,,,,,,,,0,,,74,95
45708,note_on,,6,0,1,,,,,,,,,0,,,76,0
45714,note_on,,6,0,1,,,,,,,,,0,,,74,0
45714,note_on,,0,0,1,,,,,,,,,0,,,76,95
45720,note_on,,6,0,1,,,,,,,,,0,,,76,0
45720,note_on,,0,0,1,,,,,,,,,0,,,74,95
45726,note_on,,6,0,1,,,,,,,,,0,,,74,0
45726,note_on,,0,0,1,,,,,,,,,0,,,76,95
45732,note_on,,6,0,1,,,,,,,,,0,,,76,0
45732,note_on,,0,0,1,,,,,,,,,0,,,74,95
45738,note_on,,0,0,1,,,,,,,,,0,,,76,95
45738,note_on,,6,0,1,,,,,,,,,0,,,74,0
45744,note_on,,0,0,3,,,,,,,,,2,,,76,63
45744,note_on,,48,0,3,,,,,,,,,2,,,74,0
45744,note_on,,0,0,4,,,,,,,,,3,,,73,63
45744,note_on,,48,0,4,,,,,,,,,3,,,71,0
45744,note_on,,6,0,1,,,,,,,,,0,,,76,0
45744,note_on,,0,0,1,,,,,,,,,0,,,74,95
45750,note_on,,0,0,1,,,,,,,,,0,,,76,95
45750,note_on,,6,0,1,,,,,,,,,0,,,74,0
45756,note_on,,0,0,1,,,,,,,,,0,,,74,95
45756,note_on,,6,0,1,,,,,,,,,0,,,76,0
45762,note_on,,0,0,1,,,,,,,,,0,,,76,95
45762,note_on,,6,0,1,,,,,,,,,0,,,74,0
45768,note_on,,6,0,1,,,,,,,,,0,,,76,0
45768,note_on,,0,0,1,,,,,,,,,0,,,73,95
45780,note_on,,0,0,3,,,,,,,,,2,,,78,63
45780,note_on,,36,0,3,,,,,,,,,2,,,76,0
45780,note_on,,0,0,4,,,,,,,,,3,,,74,63
45780,note_on,,0,0,1,,,,,,,,,0,,,74,95
45780,note_on,,12,0,1,,,,,,,,,0,,,73,0
45780,note_on,,36,0,4,,,,,,,,,3,,,73,0
45792,note_on,,12,0,3,,,,,,,,,2,,,78,0
45792,note_on,,0,0,3,,,,,,,,,2,,,74,63
45792,note_on,,0,0,1,,,,,,,,,0,,,73,95
45792,note_on,,12,0,1,,,,,,,,,0,,,74,0
45792,note_on,,0,0,4,,,,,,,,,3,,,70,63
45792,note_on,,0,0,2,,,,,,,,,1,,,42,95
45792,note_on,,192,0,2,,,,,,,,,1,,,42,0
45792,note_on,,12,0,4,,,,,,,,,3,,,74,0
45798,note_on,,0,0,3,,,,,,,,,2,,,73,63
45798,note_on,,6,0,3,,,,,,,,,2,,,74,0
45840,note_on,,0,0,2,,,,,,,,,1,,,54,95
45840,note_on,,48,0,2,,,,,,,,,1,,,42,0
45840,note_on,,0,0,1,,,,,,,,,0,,,78,95
45840,note_on,,48,0,1,,,,,,,,,0,,,73,0
45864,note_on,,0,0,1,,,,,,,,,0,,,76,95
45864,note_on,,24,0,1,,,,,,,,,0,,,78,0
45888,note_on,,0,0,2,,,,,,,,,1,,,56,95
45888,note_on,,0,0,1,,,,,,,,,0,,,76,95
45888,note_on,,24,0,1,,,,,,,,,0,,,76,0
45888,note_on,,96,0,4,,,,,,,,,3,,,70,0
45888,note_on,,48,0,2,,,,,,,,,1,,,54,0
45894,note_on,,96,0,3,,,,,,,,,2,,,73,0
45912,note_on,,24,0,1,,,,,,,,,0,,,76,0
45912,note_on,,0,0,1,,,,,,,,,0,,,74,95
45936,note_on,,24,0,1,,,,,,,,,0,,,74,0
45936,note_on,,0,0,2,,,,,,,,,1,,,58,95
45936,note_on,,48,0,2,,,,,,,,,1,,,56,0
45936,note_on,,0,0,1,,,,,,,,,0,,,76,95
45960,note_on,,0,0,1,,,,,,,,,0,,,73,95
45960,note_on,,24,0,1,,,,,,,,,0,,,76,0
45984,note_on,,0,0,2,,,,,,,,,1,,,59,95
45984,note_on,,48,0,2,,,,,,,,,1,,,58,0
45984,note_on,,0,0,1,,,,,,,,,0,,,74,95
45984,note_on,,24,0,1,,,,,,,,,0,,,73,0
46032,note_on,,138,0,3,,,,,,,,,2,,,66,63
46032,note_on,,48,0,2,,,,,,,,,1,,,59,0
46032,note_on,,0,0,2,,,,,,,,,1,,,47,95
46068,note_on,,36,0,2,,,,,,,,,1,,,47,0
46068,note_on,,0,0,2,,,,,,,,,1,,,49,95
46080,note_on,,0,0,3,,,,,,,,,2,,,71,63
46080,note_on,,48,0,3,,,,,,,,,2,,,66,0
46080,note_on,,12,0,2,,,,,,,,,1,,,49,0
46080,note_on,,0,0,2,,,,,,,,,1,,,50,95
46128,note_on,,48,0,3,,,,,,,,,2,,,71,0
46128,note_on,,48,0,2,,,,,,,,,1,,,50,0
46128,note_on,,0,0,2,,,,,,,,,1,,,49,95
46128,note_on,,0,0,3,,,,,,,,,2,,,73,63
46164,note_on,,36,0,3,,,,,,,,,2,,,73,0
46164,note_on,,0,0,3,,,,,,,,,2,,,74,63
46164,note_on,,36,0,2,,,,,,,,,1,,,49,0
46164,note_on,,0,0,2,,,,,,,,,1,,,47,95
46176,note_on,,12,0,3,,,,,,,,,2,,,74,0
46176,note_on,,0,0,3,,,,,,,,,2,,,68,63
46176,note_on,,192,0,1,,,,,,,,,0,,,74,0
46176,note_on,,0,0,2,,,,,,,,,1,,,52,95
46176,note_on,,12,0,2,,,,,,,,,1,,,47,0
46224,note_on,,48,0,2,,,,,,,,,1,,,52,0
46224,note_on,,48,0,1,,,,,,,,,0,,,83,95
46224,note_on,,0,0,2,,,,,,,,,1,,,52,95
46248,note_on,,24,0,1,,,,,,,,,0,,,83,0
46248,note_on,,0,0,1,,,,,,,,,0,,,80,95
46272,note_on,,24,0,1,,,,,,,,,0,,,80,0
46272,note_on,,96,0,3,,,,,,,,,2,,,68,0
46272,note_on,,48,0,2,,,,,,,,,1,,,52,0
46272,note_on,,0,0,2,,,,,,,,,1,,,54,95
46272,note_on,,0,0,1,,,,,,,,,0,,,74,95
46296,note_on,,24,0,1,,,,,,,,,0,,,74,0
46296,note_on,,0,0,1,,,,,,,,,0,,,73,95
46320,note_on,,0,0,2,,,,,,,,,1,,,56,95
46320,note_on,,24,0,1,,,,,,,,,0,,,73,0
46320,note_on,,0,0,1,,,,,,,,,0,,,74,95
46320,note_on,,48,0,2,,,,,,,,,1,,,54,0
46344,note_on,,0,0,1,,,,,,,,,0,,,71,95
46344,note_on,,24,0,1,,,,,,,,,0,,,74,0
46368,note_on,,24,0,1,,,,,,,,,0,,,71,0
46368,note_on,,0,0,2,,,,,,,,,1,,,57,95
46368,note_on,,48,0,2,,,,,,,,,1,,,56,0
46368,note_on,,0,0,1,,,,,,,,,0,,,73,95
46416,note_on,,48,0,2,,,,,,,,,1,,,57,0
46416,note_on,,0,0,2,,,,,,,,,1,,,45,95
46416,note_on,,528,0,4,,,,,,,,,3,,,64,63
46452,note_on,,36,0,2,,,,,,,,,1,,,45,0
46452,note_on,,0,0,2,,,,,,,,,1,,,47,95
46464,note_on,,12,0,2,,,,,,,,,1,,,47,0
46464,note_on,,48,0,4,,,,,,,,,3,,,64,0
46464,note_on,,0,0,4,,,,,,,,,3,,,69,63
46464,note_on,,0,0,2,,,,,,,,,1,,,49,95
46512,note_on,,48,0,4,,,,,,,,,3,,,69,0
46512,note_on,,0,0,4,,,,,,,,,3,,,71,63
46512,note_on,,0,0,2,,,,,,,,,1,,,47,95
46512,note_on,,48,0,2,,,,,,,,,1,,,49,0
46548,note_on,,0,0,4,,,,,,,,,3,,,73,63
46548,note_on,,36,0,4,,,,,,,,,3,,,71,0
46548,note_on,,0,0,2,,,,,,,,,1,,,45,95
46548,note_on,,36,0,2,,,,,,,,,1,,,47,0
46560,note_on,,0,0,2,,,,,,,,,1,,,50,95
46560,note_on,,12,0,2,,,,,,,,,1,,,45,0
46560,note_on,,12,0,4,,,,,,,,,3,,,73,0
46560,note_on,,0,0,4,,,,,,,,,3,,,66,63
46560,note_on,,192,0,1,,,,,,,,,0,,,73,0
46608,note_on,,48,0,1,,,,,,,,,0,,,81,95
46608,note_on,,48,0,2,,,,,,,,,1,,,50,0
46608,note_on,,0,0,2,,,,,,,,,1,,,50,95
46632,note_on,,24,0,1,,,,,,,,,0,,,81,0
46632,note_on,,0,0,1,,,,,,,,,0,,,78,95
46656,note_on,,96,0,4,,,,,,,,,3,,,66,0
46656,note_on,,48,0,2,,,,,,,,,1,,,50,0
46656,note_on,,0,0,2,,,,,,,,,1,,,52,95
46656,note_on,,24,0,1,,,,,,,,,0,,,78,0
46656,note_on,,0,0,1,,,,,,,,,0,,,72,95
46680,note_on,,24,0,1,,,,,,,,,0,,,72,0
46680,note_on,,0,0,1,,,,,,,,,0,,,71,95
46704,note_on,,0,0,2,,,,,,,,,1,,,54,95
46704,note_on,,48,0,2,,,,,,,,,1,,,52,0
46704,note_on,,0,0,1,,,,,,,,,0,,,72,95
46704,note_on,,24,0,1,,,,,,,,,0,,,71,0
46728,note_on,,24,0,1,,,,,,,,,0,,,72,0
46728,note_on,,0,0,1,,,,,,,,,0,,,69,95
46752,note_on,,0,0,1,,,,,,,,,0,,,71,95
46752,note_on,,24,0,1,,,,,,,,,0,,,69,0
46752,note_on,,48,0,2,,,,,,,,,1,,,54,0
46752,note_on,,0,0,2,,,,,,,,,1,,,55,95
46776,note_on,,24,0,2,,,,,,,,,1,,,55,0
46776,note_on,,0,0,2,,,,,,,,,1,,,54,95
46800,note_on,,0,0,2,,,,,,,,,1,,,55,95
46800,note_on,,24,0,2,,,,,,,,,1,,,54,0
46800,note_on,,0,0,1,,,,,,,,,0,,,76,95
46800,note_on,,48,0,1,,,,,,,,,0,,,71,0
46824,note_on,,0,0,2,,,,,,,,,1,,,52,95
46824,note_on,,0,0,1,,,,,,,,,0,,,73,95
46824,note_on,,24,0,2,,,,,,,,,1,,,55,0
46824,note_on,,24,0,1,,,,,,,,,0,,,76,0
46848,note_on,,0,0,1,,,,,,,,,0,,,67,95
46848,note_on,,0,0,2,,,,,,,,,1,,,49,95
46848,note_on,,24,0,2,,,,,,,,,1,,,52,0
46848,note_on,,24,0,1,,,,,,,,,0,,,73,0
46872,note_on,,0,0,1,,,,,,,,,0,,,66,95
46872,note_on,,24,0,1,,,,,,,,,0,,,67,0
46896,note_on,,24,0,1,,,,,,,,,0,,,66,0
46896,note_on,,0,0,2,,,,,,,,,1,,,45,95
46896,note_on,,48,0,2,,,,,,,,,1,,,49,0
46896,note_on,,0,0,1,,,,,,,,,0,,,67,95
46920,note_on,,0,0,1,,,,,,,,,0,,,64,95
46920,note_on,,24,0,1,,,,,,,,,0,,,67,0
46944,note_on,,0,0,2,,,,,,,,,1,,,50,95
46944,note_on,,0,0,1,,,,,,,,,0,,,66,95
46944,note_on,,24,0,1,,,,,,,,,0,,,64,0
46944,note_on,,48,0,2,,,,,,,,,1,,,45,0
46992,note_on,,48,0,2,,,,,,,,,1,,,50,0
46992,note_on,,0,0,2,,,,,,,,,1,,,55,95
47016,note_on,,0,0,1,,,,,,,,,0,,,67,95
47016,note_on,,72,0,1,,,,,,,,,0,,,66,0
47040,note_on,,48,0,2,,,,,,,,,1,,,55,0
47040,note_on,,24,0,1,,,,,,,,,0,,,67,0
47040,note_on,,0,0,2,,,,,,,,,1,,,57,95
47040,note_on,,0,0,1,,,,,,,,,0,,,64,95
47088,note_on,,0,0,2,,,,,,,,,1,,,45,95
47088,note_on,,48,0,2,,,,,,,,,1,,,57,0
47112,note_on,,0,0,1,,,,,,,,,0,,,62,95
47112,note_on,,72,0,1,,,,,,,,,0,,,64,0
47136,note_on,,0,0,2,,,,,,,,,1,,,50,95
47136,note_on,,48,0,2,,,,,,,,,1,,,45,0
47136,note_on,,0,0,1,,,,,,,,,0,,,62,95
47136,note_on,,24,0,1,,,,,,,,,0,,,62,0
47184,note_on,,0,0,2,,,,,,,,,1,,,49,95
47184,note_on,,912,0,3,,,,,,,,,2,,,69,95
47184,note_on,,48,0,2,,,,,,,,,1,,,50,0
47232,note_on,,48,0,3,,,,,,,,,2,,,69,0
47232,note_on,,48,0,2,,,,,,,,,1,,,49,0
47232,note_on,,0,0,2,,,,,,,,,1,,,47,95
47232,note_on,,0,0,3,,,,,,,,,2,,,74,95
47232,note_on,,96,0,1,,,,,,,,,0,,,62,0
47280,note_on,,48,0,3,,,,,,,,,2,,,74,0
47280,note_on,,0,0,2,,,,,,,,,1,,,43,95
47280,note_on,,0,0,3,,,,,,,,,2,,,76,95
47280,note_on,,48,0,2,,,,,,,,,1,,,47,0
47316,note_on,,0,0,3,,,,,,,,,2,,,78,95
47316,note_on,,36,0,3,,,,,,,,,2,,,76,0
47328,note_on,,48,0,2,,,,,,,,,1,,,43,0
47328,note_on,,0,0,3,,,,,,,,,2,,,73,95
47328,note_on,,12,0,3,,,,,,,,,2,,,78,0
47328,note_on,,0,0,2,,,,,,,,,1,,,45,95
47376,note_on,,0,0,3,,,,,,,,,2,,,74,95
47376,note_on,,48,0,3,,,,,,,,,2,,,73,0
47376,note_on,,720,0,4,,,,,,,,,3,,,69,95
47376,note_on,,0,0,2,,,,,,,,,1,,,43,95
47376,note_on,,48,0,2,,,,,,,,,1,,,45,0
47412,note_on,,0,0,3,,,,,,,,,2,,,76,95
47412,note_on,,36,0,3,,,,,,,,,2,,,74,0
47424,note_on,,0,0,3,,,,,,,,,2,,,78,95
47424,note_on,,0,0,4,,,,,,,,,3,,,74,95
47424,note_on,,48,0,4,,,,,,,,,3,,,69,0
47424,note_on,,48,0,2,,,,,,,,,1,,,43,0
47424,note_on,,0,0,2,,,,,,,,,1,,,42,95
47424,note_on,,12,0,3,,,,,,,,,2,,,76,0
47472,note_on,,48,0,2,,,,,,,,,1,,,42,0
47472,note_on,,0,0,3,,,,,,,,,2,,,79,95
47472,note_on,,48,0,4,,,,,,,,,3,,,74,0
47472,note_on,,0,0,4,,,,,,,,,3,,,76,95
47472,note_on,,48,0,3,,,,,,,,,2,,,78,0
47472,note_on,,0,0,2,,,,,,,,,1,,,38,95
47508,note_on,,36,0,4,,,,,,,,,3,,,76,0
47508,note_on,,0,0,4,,,,,,,,,3,,,78,95
47508,note_on,,0,0,3,,,,,,,,,2,,,81,95
47508,note_on,,36,0,3,,,,,,,,,2,,,79,0
47520,note_on,,0,0,2,,,,,,,,,1,,,45,95
47520,note_on,,48,0,2,,,,,,,,,1,,,38,0
47520,note_on,,0,0,3,,,,,,,,,2,,,76,95
47520,note_on,,12,0,3,,,,,,,,,2,,,81,0
47520,note_on,,0,0,4,,,,,,,,,3,,,73,95
47520,note_on,,12,0,4,,,,,,,,,3,,,78,0
47568,note_on,,0,0,4,,,,,,,,,3,,,74,95
47568,note_on,,0,0,3,,,,,,,,,2,,,69,95
47568,note_on,,48,0,3,,,,,,,,,2,,,76,0
47568,note_on,,48,0,2,,,,,,,,,1,,,45,0
47568,note_on,,0,0,2,,,,,,,,,1,,,57,95
47568,note_on,,48,0,4,,,,,,,,,3,,,73,0
47604,note_on,,36,0,4,,,,,,,,,3,,,74,0
47604,note_on,,0,0,4,,,,,,,,,3,,,76,95
47616,note_on,,12,0,4,,,,,,,,,3,,,76,0
47616,note_on,,0,0,2,,,,,,,,,1,,,62,95
47616,note_on,,48,0,3,,,,,,,,,2,,,69,0
47616,note_on,,48,0,2,,,,,,,,,1,,,57,0
47616,note_on,,0,0,4,,,,,,,,,3,,,78,95
47616,note_on,,0,0,3,,,,,,,,,2,,,81,95
47664,note_on,,0,0,4,,,,,,,,,3,,,79,95
47664,note_on,,48,0,4,,,,,,,,,3,,,78,0
47664,note_on,,48,0,2,,,,,,,,,1,,,62,0
47664,note_on,,0,0,2,,,,,,,,,1,,,64,95
47700,note_on,,0,0,4,,,,,,,,,3,,,81,95
47700,note_on,,36,0,4,,,,,,,,,3,,,79,0
47700,note_on,,36,0,2,,,,,,,,,1,,,64,0
47700,note_on,,0,0,2,,,,,,,,,1,,,66,95
47712,note_on,,0,0,4,,,,,,,,,3,,,76,95
47712,note_on,,12,0,4,,,,,,,,,3,,,81,0
47712,note_on,,12,0,2,,,,,,,,,1,,,66,0
47712,note_on,,0,0,2,,,,,,,,,1,,,61,95
47760,note_on,,0,0,4,,,,,,,,,3,,,69,95
47760,note_on,,48,0,4,,,,,,,,,3,,,76,0
47760,note_on,,0,0,2,,,,,,,,,1,,,60,95
47760,note_on,,0,0,3,,,,,,,,,2,,,79,95
47760,note_on,,48,0,2,,,,,,,,,1,,,61,0
47760,note_on,,144,0,3,,,,,,,,,2,,,81,0
47796,note_on,,36,0,3,,,,,,,,,2,,,79,0
47796,note_on,,0,0,3,,,,,,,,,2,,,78,95
47808,note_on,,48,0,4,,,,,,,,,3,,,69,0
47808,note_on,,0,0,3,,,,,,,,,2,,,79,95
47808,note_on,,12,0,3,,,,,,,,,2,,,78,0
47808,note_on,,0,0,4,,,,,,,,,3,,,74,95
47808,note_on,,48,0,2,,,,,,,,,1,,,60,0
47808,note_on,,0,0,2,,,,,,,,,1,,,59,95
47856,note_on,,48,0,2,,,,,,,,,1,,,59,0
47856,note_on,,0,0,3,,,,,,,,,2,,,81,95
47856,note_on,,48,0,3,,,,,,,,,2,,,79,0
47856,note_on,,0,0,2,,,,,,,,,1,,,57,95
47892,note_on,,36,0,2,,,,,,,,,1,,,57,0
47892,note_on,,0,0,3,,,,,,,,,2,,,83,95
47892,note_on,,36,0,3,,,,,,,,,2,,,81,0
47892,note_on,,0,0,2,,,,,,,,,1,,,55,95
47904,note_on,,0,0,3,,,,,,,,,2,,,76,95
47904,note_on,,0,0,2,,,,,,,,,1,,,57,95
47904,note_on,,12,0,3,,,,,,,,,2,,,83,0
47904,note_on,,12,0,2,,,,,,,,,1,,,55,0
47928,note_on,,120,0,4,,,,,,,,,3,,,73,95
47952,note_on,,48,0,2,,,,,,,,,1,,,57,0
47952,note_on,,0,0,3,,,,,,,,,2,,,74,95
47952,note_on,,0,0,4,,,,,,,,,3,,,71,95
47952,note_on,,0,0,4,,,,,,,,,3,,,74,0
47952,note_on,,24,0,4,,,,,,,,,3,,,73,0
47952,note_on,,48,0,3,,,,,,,,,2,,,76,0
47952,note_on,,0,0,2,,,,,,,,,1,,,54,95
47988,note_on,,36,0,3,,,,,,,,,2,,,74,0
47988,note_on,,36,0,4,,,,,,,,,3,,,71,0
47988,note_on,,0,0,4,,,,,,,,,3,,,69,95
47988,note_on,,0,0,3,,,,,,,,,2,,,73,95
48000,note_on,,12,0,4,,,,,,,,,3,,,69,0
48000,note_on,,0,0,4,,,,,,,,,3,,,67,95
48000,note_on,,12,0,3,,,,,,,,,2,,,73,0
48000,note_on,,0,0,3,,,,,,,,,2,,,74,95
48000,note_on,,0,0,2,,,,,,,,,1,,,59,95
48000,note_on,,48,0,2,,,,,,,,,1,,,54,0
48024,note_on,,24,0,4,,,,,,,,,3,,,67,0
48024,note_on,,0,0,4,,,,,,,,,3,,,66,95
48048,note_on,,0,0,3,,,,,,,,,2,,,76,95
48048,note_on,,48,0,2,,,,,,,,,1,,,59,0
48048,note_on,,0,0,4,,,,,,,,,3,,,67,95
48048,note_on,,24,0,4,,,,,,,,,3,,,66,0
48048,note_on,,0,0,2,,,,,,,,,1,,,61,95
48048,note_on,,48,0,3,,,,,,,,,2,,,74,0
48084,note_on,,0,0,2,,,,,,,,,1,,,62,95
48084,note_on,,0,0,3,,,,,,,,,2,,,78,95
48084,note_on,,36,0,2,,,,,,,,,1,,,61,0
48084,note_on,,36,0,3,,,,,,,,,2,,,76,0
48096,note_on,,12,0,3,,,,,,,,,2,,,78,0
48096,note_on,,0,0,3,,,,,,,,,2,,,73,95
48096,note_on,,0,0,2,,,,,,,,,1,,,52,95
48096,note_on,,12,0,2,,,,,,,,,1,,,62,0
48144,note_on,,48,0,3,,,,,,,,,2,,,73,0
48144,note_on,,0,0,2,,,,,,,,,1,,,55,95
48144,note_on,,48,0,2,,,,,,,,,1,,,52,0
48144,note_on,,0,0,3,,,,,,,,,2,,,71,95
48144,note_on,,96,0,4,,,,,,,,,3,,,67,0
48144,note_on,,0,0,4,,,,,,,,,3,,,64,95
48180,note_on,,36,0,3,,,,,,,,,2,,,71,0
48180,note_on,,0,0,3,,,,,,,,,2,,,69,95
48192,note_on,,12,0,3,,,,,,,,,2,,,69,0
48192,note_on,,0,0,3,,,,,,,,,2,,,72,95
48192,note_on,,0,0,2,,,,,,,,,1,,,54,95
48192,note_on,,0,0,4,,,,,,,,,3,,,69,95
48192,note_on,,48,0,2,,,,,,,,,1,,,55,0
48192,note_on,,48,0,4,,,,,,,,,3,,,64,0
48240,note_on,,48,0,4,,,,,,,,,3,,,69,0
48240,note_on,,0,0,4,,,,,,,,,3,,,66,95
48240,note_on,,48,0,2,,,,,,,,,1,,,54,0
48240,note_on,,0,0,2,,,,,,,,,1,,,52,95
48276,note_on,,0,0,2,,,,,,,,,1,,,50,95
48276,note_on,,36,0,2,,,,,,,,,1,,,52,0
48288,note_on,,0,0,2,,,,,,,,,1,,,55,95
48288,note_on,,48,0,4,,,,,,,,,3,,,66,0
48288,note_on,,0,0,4,,,,,,,,,3,,,62,95
48288,note_on,,12,0,2,,,,,,,,,1,,,50,0
48336,note_on,,144,0,3,,,,,,,,,2,,,72,0
48336,note_on,,0,0,4,,,,,,,,,3,,,67,95
48336,note_on,,48,0,4,,,,,,,,,3,,,62,0
48336,note_on,,0,0,3,,,,,,,,,2,,,71,95
48384,note_on,,0,0,4,,,,,,,,,3,,,64,95
48384,note_on,,0,0,3,,,,,,,,,2,,,73,95
48384,note_on,,48,0,4,,,,,,,,,3,,,67,0
48384,note_on,,48,0,3,,,,,,,,,2,,,71,0
48432,note_on,,48,0,3,,,,,,,,,2,,,73,0
48432,note_on,,0,0,2,,,,,,,,,1,,,54,95
48432,note_on,,144,0,2,,,,,,,,,1,,,55,0
48432,note_on,,0,0,4,,,,,,,,,3,,,62,95
48432,note_on,,0,0,3,,,,,,,,,2,,,74,95
48432,note_on,,48,0,4,,,,,,,,,3,,,64,0
48468,note_on,,0,0,2,,,,,,,,,1,,,52,95
48468,note_on,,36,0,2,,,,,,,,,1,,,54,0
48468,note_on,,36,0,3,,,,,,,,,2,,,74,0
48468,note_on,,0,0,3,,,,,,,,,2,,,76,95
48468,note_on,,0,0,4,,,,,,,,,3,,,61,95
48468,note_on,,36,0,4,,,,,,,,,3,,,62,0
48480,note_on,,12,0,3,,,,,,,,,2,,,76,0
48480,note_on,,0,0,3,,,,,,,,,2,,,66,95
48480,note_on,,12,0,4,,,,,,,,,3,,,61,0
48480,note_on,,0,0,4,,,,,,,,,3,,,62,95
48480,note_on,,0,0,2,,,,,,,,,1,,,59,95
48480,note_on,,12,0,2,,,,,,,,,1,,,52,0
48528,note_on,,0,0,2,,,,,,,,,1,,,55,95
48528,note_on,,48,0,2,,,,,,,,,1,,,59,0
48552,note_on,,72,0,4,,,,,,,,,3,,,62,0
48552,note_on,,0,0,4,,,,,,,,,3,,,64,95
48552,note_on,,72,0,3,,,,,,,,,2,,,66,0
48552,note_on,,0,0,3,,,,,,,,,2,,,64,95
48576,note_on,,0,0,4,,,,,,,,,3,,,61,95
48576,note_on,,0,0,3,,,,,,,,,2,,,64,95
48576,note_on,,24,0,3,,,,,,,,,2,,,64,0
48576,note_on,,24,0,4,,,,,,,,,3,,,64,0
48576,note_on,,48,0,2,,,,,,,,,1,,,55,0
48576,note_on,,0,0,2,,,,,,,,,1,,,57,95
48624,note_on,,0,0,2,,,,,,,,,1,,,45,95
48624,note_on,,48,0,2,,,,,,,,,1,,,57,0
48648,note_on,,0,0,3,,,,,,,,,2,,,62,95
48648,note_on,,72,0,3,,,,,,,,,2,,,64,0
48648,note_on,,0,0,4,,,,,,,,,3,,,62,95
48648,note_on,,72,0,4,,,,,,,,,3,,,61,0
48672,note_on,,48,0,2,,,,,,,,,1,,,45,0
48672,note_on,,0,0,2,,,,,,,,,1,,,50,95
48672,note_on,,0,0,3,,,,,,,,,2,,,62,95
48672,note_on,,24,0,3,,,,,,,,,2,,,62,0
48672,note_on,,24,0,4,,,,,,,,,3,,,62,0
48672,note_on,,0,0,4,,,,,,,,,3,,,62,95
48720,note_on,,0,0,4,,,,,,,,,3,,,74,95
48720,note_on,,1488,0,1,,,,,,,,,0,,,78,95
48720,note_on,,48,0,4,,,,,,,,,3,,,62,0
48720,note_on,,0,0,2,,,,,,,,,1,,,62,95
48720,note_on,,48,0,2,,,,,,,,,1,,,50,0
48768,note_on,,0,0,1,,,,,,,,,0,,,76,95
48768,note_on,,48,0,1,,,,,,,,,0,,,78,0
48768,note_on,,0,0,2,,,,,,,,,1,,,61,95
48768,note_on,,48,0,2,,,,,,,,,1,,,62,0
48768,note_on,,96,0,3,,,,,,,,,2,,,62,0
48816,note_on,,96,0,4,,,,,,,,,3,,,74,0
48816,note_on,,0,0,4,,,,,,,,,3,,,70,95
48816,note_on,,48,0,1,,,,,,,,,0,,,76,0
48816,note_on,,0,0,1,,,,,,,,,0,,,74,95
48816,note_on,,48,0,2,,,,,,,,,1,,,61,0
48816,note_on,,0,0,2,,,,,,,,,1,,,54,95
48852,note_on,,0,0,1,,,,,,,,,0,,,73,95
48852,note_on,,36,0,1,,,,,,,,,0,,,74,0
48864,note_on,,0,0,2,,,,,,,,,1,,,59,95
48864,note_on,,0,0,1,,,,,,,,,0,,,74,95
48864,note_on,,48,0,2,,,,,,,,,1,,,54,0
48864,note_on,,0,0,4,,,,,,,,,3,,,71,95
48864,note_on,,48,0,4,,,,,,,,,3,,,70,0
48864,note_on,,12,0,1,,,,,,,,,0,,,73,0
48912,note_on,,0,0,2,,,,,,,,,1,,,56,95
48912,note_on,,48,0,1,,,,,,,,,0,,,74,0
48912,note_on,,0,0,1,,,,,,,,,0,,,71,95
48912,note_on,,48,0,2,,,,,,,,,1,,,59,0
48936,note_on,,24,0,1,,,,,,,,,0,,,71,0
48936,note_on,,0,0,1,,,,,,,,,0,,,74,95
48960,note_on,,48,0,2,,,,,,,,,1,,,56,0
48960,note_on,,0,0,1,,,,,,,,,0,,,80,95
48960,note_on,,24,0,1,,,,,,,,,0,,,74,0
48960,note_on,,96,0,4,,,,,,,,,3,,,71,0
48960,note_on,,0,0,2,,,,,,,,,1,,,53,95
48984,note_on,,0,0,1,,,,,,,,,0,,,81,95
48984,note_on,,24,0,1,,,,,,,,,0,,,80,0
49008,note_on,,48,0,2,,,,,,,,,1,,,53,0
49008,note_on,,0,0,1,,,,,,,,,0,,,80,95
49008,note_on,,24,0,1,,,,,,,,,0,,,81,0
49008,note_on,,0,0,2,,,,,,,,,1,,,51,95
49032,note_on,,0,0,1,,,,,,,,,0,,,83,95
49032,note_on,,24,0,1,,,,,,,,,0,,,80,0
49044,note_on,,36,0,2,,,,,,,,,1,,,51,0
49044,note_on,,0,0,2,,,,,,,,,1,,,49,95
49056,note_on,,12,0,2,,,,,,,,,1,,,49,0
49056,note_on,,0,0,2,,,,,,,,,1,,,54,95
49056,note_on,,24,0,1,,,,,,,,,0,,,83,0
49056,note_on,,0,0,1,,,,,,,,,0,,,81,95
49104,note_on,,48,0,2,,,,,,,,,1,,,54,0
49104,note_on,,144,0,4,,,,,,,,,3,,,73,63
49104,note_on,,0,0,2,,,,,,,,,1,,,49,95
49152,note_on,,48,0,2,,,,,,,,,1,,,49,0
49152,note_on,,0,0,4,,,,,,,,,3,,,69,63
49152,note_on,,0,0,2,,,,,,,,,1,,,54,95
49152,note_on,,48,0,4,,,,,,,,,3,,,73,0
49200,note_on,,0,0,2,,,,,,,,,1,,,56,95
49200,note_on,,48,0,2,,,,,,,,,1,,,54,0
49200,note_on,,48,0,4,,,,,,,,,3,,,69,0
49200,note_on,,0,0,4,,,,,,,,,3,,,68,63
49236,note_on,,0,0,2,,,,,,,,,1,,,57,95
49236,note_on,,36,0,2,,,,,,,,,1,,,56,0
49236,note_on,,36,0,4,,,,,,,,,3,,,68,0
49236,note_on,,0,0,4,,,,,,,,,3,,,66,63
49248,note_on,,0,0,2,,,,,,,,,1,,,59,95
49248,note_on,,192,0,1,,,,,,,,,0,,,81,0
49248,note_on,,12,0,2,,,,,,,,,1,,,57,0
49248,note_on,,12,0,4,,,,,,,,,3,,,66,0
49248,note_on,,0,0,4,,,,,,,,,3,,,74,63
49296,note_on,,48,0,2,,,,,,,,,1,,,59,0
49296,note_on,,0,0,2,,,,,,,,,1,,,54,95
49296,note_on,,48,0,1,,,,,,,,,0,,,71,95
49320,note_on,,24,0,1,,,,,,,,,0,,,71,0
49320,note_on,,0,0,1,,,,,,,,,0,,,74,95
49344,note_on,,96,0,4,,,,,,,,,3,,,74,0
49344,note_on,,0,0,2,,,,,,,,,1,,,50,95
49344,note_on,,48,0,2,,,,,,,,,1,,,54,0
49344,note_on,,24,0,1,,,,,,,,,0,,,74,0
49344,note_on,,0,0,1,,,,,,,,,0,,,78,95
49368,note_on,,24,0,1,,,,,,,,,0,,,78,0
49368,note_on,,0,0,1,,,,,,,,,0,,,80,95
49392,note_on,,0,0,2,,,,,,,,,1,,,47,95
49392,note_on,,24,0,1,,,,,,,,,0,,,80,0
49392,note_on,,0,0,1,,,,,,,,,0,,,78,95
49392,note_on,,48,0,2,,,,,,,,,1,,,50,0
49416,note_on,,24,0,1,,,,,,,,,0,,,78,0
49416,note_on,,0,0,1,,,,,,,,,0,,,81,95
49440,note_on,,0,0,1,,,,,,,,,0,,,80,95
49440,note_on,,0,0,2,,,,,,,,,1,,,52,95
49440,note_on,,48,0,2,,,,,,,,,1,,,47,0
49440,note_on,,24,0,1,,,,,,,,,0,,,81,0
49488,note_on,,0,0,2,,,,,,,,,1,,,47,95
49488,note_on,,48,0,2,,,,,,,,,1,,,52,0
49488,note_on,,720,0,3,,,,,,,,,2,,,71,63
49536,note_on,,48,0,3,,,,,,,,,2,,,71,0
49536,note_on,,0,0,2,,,,,,,,,1,,,52,95
49536,note_on,,48,0,2,,,,,,,,,1,,,47,0
49536,note_on,,0,0,3,,,,,,,,,2,,,68,63
49584,note_on,,0,0,3,,,,,,,,,2,,,66,63
49584,note_on,,48,0,3,,,,,,,,,2,,,68,0
49584,note_on,,0,0,2,,,,,,,,,1,,,54,95
49584,note_on,,48,0,2,,,,,,,,,1,,,52,0
49620,note_on,,0,0,3,,,,,,,,,2,,,64,63
49620,note_on,,36,0,3,,,,,,,,,2,,,66,0
49620,note_on,,0,0,2,,,,,,,,,1,,,56,95
49620,note_on,,36,0,2,,,,,,,,,1,,,54,0
49632,note_on,,192,0,1,,,,,,,,,0,,,80,0
49632,note_on,,12,0,2,,,,,,,,,1,,,56,0
49632,note_on,,0,0,2,,,,,,,,,1,,,57,95
49632,note_on,,12,0,3,,,,,,,,,2,,,64,0
49632,note_on,,0,0,3,,,,,,,,,2,,,73,63
49680,note_on,,48,0,1,,,,,,,,,0,,,69,95
49680,note_on,,0,0,2,,,,,,,,,1,,,52,95
49680,note_on,,48,0,2,,,,,,,,,1,,,57,0
49704,note_on,,24,0,1,,,,,,,,,0,,,69,0
49704,note_on,,0,0,1,,,,,,,,,0,,,73,95
49728,note_on,,24,0,1,,,,,,,,,0,,,73,0
49728,note_on,,0,0,1,,,,,,,,,0,,,77,95
49728,note_on,,48,0,2,,,,,,,,,1,,,52,0
49728,note_on,,0,0,2,,,,,,,,,1,,,49,95
49728,note_on,,96,0,3,,,,,,,,,2,,,73,0
49752,note_on,,24,0,1,,,,,,,,,0,,,77,0
49752,note_on,,0,0,1,,,,,,,,,0,,,78,95
49776,note_on,,0,0,2,,,,,,,,,1,,,45,95
49776,note_on,,24,0,1,,,,,,,,,0,,,78,0
49776,note_on,,0,0,1,,,,,,,,,0,,,77,95
49776,note_on,,48,0,2,,,,,,,,,1,,,49,0
49800,note_on,,0,0,1,,,,,,,,,0,,,80,95
49800,note_on,,24,0,1,,,,,,,,,0,,,77,0
49824,note_on,,0,0,1,,,,,,,,,0,,,78,95
49824,note_on,,24,0,1,,,,,,,,,0,,,80,0
49824,note_on,,48,0,2,,,,,,,,,1,,,45,0
49824,note_on,,0,0,2,,,,,,,,,1,,,50,95
49872,note_on,,0,0,1,,,,,,,,,0,,,74,95
49872,note_on,,48,0,1,,,,,,,,,0,,,78,0
49896,note_on,,0,0,1,,,,,,,,,0,,,71,95
49896,note_on,,24,0,1,,,,,,,,,0,,,74,0
49920,note_on,,0,0,1,,,,,,,,,0,,,68,95
49920,note_on,,24,0,1,,,,,,,,,0,,,71,0
49920,note_on,,96,0,2,,,,,,,,,1,,,50,0
49944,note_on,,0,0,1,,,,,,,,,0,,,66,95
49944,note_on,,24,0,1,,,,,,,,,0,,,68,0
49968,note_on,,48,0,2,,,,,,,,,1,,,62,95
49968,note_on,,24,0,1,,,,,,,,,0,,,66,0
49968,note_on,,0,0,1,,,,,,,,,0,,,68,95
49992,note_on,,0,0,2,,,,,,,,,1,,,59,95
49992,note_on,,24,0,2,,,,,,,,,1,,,62,0
49992,note_on,,0,0,1,,,,,,,,,0,,,78,95
49992,note_on,,24,0,1,,,,,,,,,0,,,68,0
50016,note_on,,0,0,1,,,,,,,,,0,,,77,95
50016,note_on,,24,0,1,,,,,,,,,0,,,78,0
50016,note_on,,24,0,2,,,,,,,,,1,,,59,0
50016,note_on,,0,0,2,,,,,,,,,1,,,56,95
50040,note_on,,24,0,1,,,,,,,,,0,,,77,0
50040,note_on,,0,0,1,,,,,,,,,0,,,78,95
50040,note_on,,24,0,2,,,,,,,,,1,,,56,0
50040,note_on,,0,0,2,,,,,,,,,1,,,54,95
50064,note_on,,0,0,1,,,,,,,,,0,,,77,95
50064,note_on,,24,0,2,,,,,,,,,1,,,54,0
50064,note_on,,0,0,2,,,,,,,,,1,,,56,95
50064,note_on,,24,0,1,,,,,,,,,0,,,78,0
50088,note_on,,24,0,2,,,,,,,,,1,,,56,0
50088,note_on,,24,0,1,,,,,,,,,0,,,77,0
50088,note_on,,0,0,1,,,,,,,,,0,,,78,95
50088,note_on,,0,0,2,,,,,,,,,1,,,59,95
50112,note_on,,0,0,2,,,,,,,,,1,,,57,95
50112,note_on,,24,0,1,,,,,,,,,0,,,78,0
50112,note_on,,0,0,1,,,,,,,,,0,,,77,95
50112,note_on,,24,0,2,,,,,,,,,1,,,59,0
50118,note_on,,0,0,1,,,,,,,,,0,,,78,95
50118,note_on,,6,0,1,,,,,,,,,0,,,77,0
50124,note_on,,6,0,1,,,,,,,,,0,,,78,0
50124,note_on,,0,0,1,,,,,,,,,0,,,77,95
50130,note_on,,6,0,1,,,,,,,,,0,,,77,0
50130,note_on,,0,0,1,,,,,,,,,0,,,78,95
50136,note_on,,0,0,2,,,,,,,,,1,,,56,95
50136,note_on,,6,0,1,,,,,,,,,0,,,78,0
50136,note_on,,0,0,1,,,,,,,,,0,,,77,95
50136,note_on,,24,0,2,,,,,,,,,1,,,57,0
50142,note_on,,6,0,1,,,,,,,,,0,,,77,0
50142,note_on,,0,0,1,,,,,,,,,0,,,78,95
50148,note_on,,0,0,1,,,,,,,,,0,,,77,95
50148,note_on,,6,0,1,,,,,,,,,0,,,78,0
50154,note_on,,6,0,1,,,,,,,,,0,,,77,0
50154,note_on,,0,0,1,,,,,,,,,0,,,78,95
50160,note_on,,6,0,1,,,,,,,,,0,,,78,0
50160,note_on,,24,0,2,,,,,,,,,1,,,56,0
50160,note_on,,0,0,2,,,,,,,,,1,,,57,95
50160,note_on,,0,0,1,,,,,,,,,0,,,77,95
50166,note_on,,0,0,1,,,,,,,,,0,,,78,95
50166,note_on,,6,0,1,,,,,,,,,0,,,77,0
50172,note_on,,0,0,1,,,,,,,,,0,,,77,95
50172,note_on,,6,0,1,,,,,,,,,0,,,78,0
50178,note_on,,0,0,1,,,,,,,,,0,,,78,95
50178,note_on,,6,0,1,,,,,,,,,0,,,77,0
50184,note_on,,0,0,2,,,,,,,,,1,,,54,95
50184,note_on,,24,0,2,,,,,,,,,1,,,57,0
50184,note_on,,6,0,1,,,,,,,,,0,,,78,0
50184,note_on,,0,0,1,,,,,,,,,0,,,77,95
50196,note_on,,12,0,1,,,,,,,,,0,,,77,0
50196,note_on,,0,0,1,,,,,,,,,0,,,78,95
50208,note_on,,0,0,1,,,,,,,,,0,,,80,95
50208,note_on,,24,0,2,,,,,,,,,1,,,54,0
50208,note_on,,0,0,2,,,,,,,,,1,,,61,95
50208,note_on,,12,0,1,,,,,,,,,0,,,78,0
50256,note_on,,0,0,1,,,,,,,,,0,,,73,95
50256,note_on,,48,0,1,,,,,,,,,0,,,80,0
50256,note_on,,528,0,3,,,,,,,,,2,,,73,63
50256,note_on,,0,0,2,,,,,,,,,1,,,59,95
50256,note_on,,48,0,2,,,,,,,,,1,,,61,0
50304,note_on,,48,0,1,,,,,,,,,0,,,73,0
50304,note_on,,0,0,3,,,,,,,,,2,,,78,63
50304,note_on,,0,0,2,,,,,,,,,1,,,57,95
50304,note_on,,48,0,2,,,,,,,,,1,,,59,0
50304,note_on,,48,0,3,,,,,,,,,2,,,73,0
50352,note_on,,48,0,3,,,,,,,,,2,,,78,0
50352,note_on,,0,0,3,,,,,,,,,2,,,80,63
50352,note_on,,48,0,1,,,,,,,,,0,,,73,95
50352,note_on,,48,0,2,,,,,,,,,1,,,57,0
50352,note_on,,0,0,2,,,,,,,,,1,,,56,95
50388,note_on,,0,0,3,,,,,,,,,2,,,81,63
50388,note_on,,0,0,2,,,,,,,,,1,,,54,95
50388,note_on,,36,0,2,,,,,,,,,1,,,56,0
50388,note_on,,36,0,3,,,,,,,,,2,,,80,0
50400,note_on,,12,0,2,,,,,,,,,1,,,54,0
50400,note_on,,48,0,1,,,,,,,,,0,,,73,0
50400,note_on,,0,0,1,,,,,,,,,0,,,71,95
50400,note_on,,0,0,3,,,,,,,,,2,,,77,63
50400,note_on,,12,0,3,,,,,,,,,2,,,81,0
50400,note_on,,0,0,2,,,,,,,,,1,,,56,95
50424,note_on,,24,0,1,,,,,,,,,0,,,71,0
50424,note_on,,0,0,1,,,,,,,,,0,,,74,95
50448,note_on,,48,0,2,,,,,,,,,1,,,56,0
50448,note_on,,0,0,2,,,,,,,,,1,,,49,95
50448,note_on,,0,0,1,,,,,,,,,0,,,73,95
50448,note_on,,24,0,1,,,,,,,,,0,,,74,0
50448,note_on,,0,0,3,,,,,,,,,2,,,78,63
50448,note_on,,1104,0,4,,,,,,,,,3,,,73,63
50448,note_on,,48,0,3,,,,,,,,,2,,,77,0
50472,note_on,,0,0,1,,,,,,,,,0,,,71,95
50472,note_on,,24,0,1,,,,,,,,,0,,,73,0
50484,note_on,,0,0,3,,,,,,,,,2,,,80,63
50484,note_on,,36,0,3,,,,,,,,,2,,,78,0
50496,note_on,,0,0,1,,,,,,,,,0,,,69,95
50496,note_on,,24,0,1,,,,,,,,,0,,,71,0
50496,note_on,,48,0,2,,,,,,,,,1,,,49,0
50496,note_on,,0,0,3,,,,,,,,,2,,,81,63
50496,note_on,,48,0,4,,,,,,,,,3,,,73,0
50496,note_on,,0,0,4,,,,,,,,,3,,,78,63
50496,note_on,,12,0,3,,,,,,,,,2,,,80,0
50520,note_on,,0,0,1,,,,,,,,,0,,,68,95
50520,note_on,,24,0,1,,,,,,,,,0,,,69,0
50544,note_on,,48,0,2,,,,,,,,,1,,,54,95
50544,note_on,,0,0,1,,,,,,,,,0,,,65,95
50544,note_on,,24,0,1,,,,,,,,,0,,,68,0
50544,note_on,,0,0,3,,,,,,,,,2,,,83,63
50544,note_on,,48,0,3,,,,,,,,,2,,,81,0
50544,note_on,,0,0,4,,,,,,,,,3,,,80,63
50544,note_on,,48,0,4,,,,,,,,,3,,,78,0
50568,note_on,,0,0,1,,,,,,,,,0,,,66,95
50568,note_on,,24,0,1,,,,,,,,,0,,,65,0
50580,note_on,,36,0,3,,,,,,,,,2,,,83,0
50580,note_on,,36,0,4,,,,,,,,,3,,,80,0
50580,note_on,,0,0,3,,,,,,,,,2,,,85,63
50580,note_on,,0,0,4,,,,,,,,,3,,,81,63
50592,note_on,,0,0,1,,,,,,,,,0,,,74,95
50592,note_on,,24,0,1,,,,,,,,,0,,,66,0
50592,note_on,,12,0,3,,,,,,,,,2,,,85,0
50592,note_on,,12,0,4,,,,,,,,,3,,,81,0
50592,note_on,,0,0,4,,,,,,,,,3,,,77,63
50592,note_on,,0,0,3,,,,,,,,,2,,,80,63
50592,note_on,,48,0,2,,,,,,,,,1,,,54,0
50592,note_on,,0,0,2,,,,,,,,,1,,,59,95
50640,note_on,,48,0,2,,,,,,,,,1,,,59,0
50640,note_on,,0,0,2,,,,,,,,,1,,,61,95
50676,note_on,,36,0,2,,,,,,,,,1,,,61,0
50676,note_on,,0,0,2,,,,,,,,,1,,,62,95
50688,note_on,,0,0,2,,,,,,,,,1,,,53,95
50688,note_on,,96,0,3,,,,,,,,,2,,,80,0
50688,note_on,,96,0,4,,,,,,,,,3,,,77,0
50688,note_on,,12,0,2,,,,,,,,,1,,,62,0
50712,note_on,,120,0,1,,,,,,,,,0,,,71,95
50736,note_on,,0,0,2,,,,,,,,,1,,,49,95
50736,note_on,,24,0,1,,,,,,,,,0,,,71,0
50736,note_on,,0,0,1,,,,,,,,,0,,,74,0
50736,note_on,,0,0,1,,,,,,,,,0,,,77,95
50736,note_on,,48,0,2,,,,,,,,,1,,,53,0
50760,note_on,,24,0,1,,,,,,,,,0,,,77,0
50760,note_on,,0,0,1,,,,,,,,,0,,,78,95
50784,note_on,,24,0,1,,,,,,,,,0,,,78,0
50784,note_on,,0,0,2,,,,,,,,,1,,,54,95
50784,note_on,,48,0,2,,,,,,,,,1,,,49,0
50784,note_on,,0,0,1,,,,,,,,,0,,,69,95
50808,note_on,,24,0,1,,,,,,,,,0,,,69,0
50808,note_on,,0,0,1,,,,,,,,,0,,,72,95
50832,note_on,,48,0,2,,,,,,,,,1,,,54,0
50832,note_on,,0,0,2,,,,,,,,,1,,,45,95
50832,note_on,,0,0,1,,,,,,,,,0,,,73,95
50832,note_on,,24,0,1,,,,,,,,,0,,,72,0
50856,note_on,,24,0,1,,,,,,,,,0,,,73,0
50856,note_on,,0,0,1,,,,,,,,,0,,,66,95
50868,note_on,,36,0,2,,,,,,,,,1,,,45,0
50868,note_on,,0,0,2,,,,,,,,,1,,,47,95
50880,note_on,,0,0,2,,,,,,,,,1,,,49,95
50880,note_on,,0,0,1,,,,,,,,,0,,,69,95
50880,note_on,,24,0,1,,,,,,,,,0,,,66,0
50880,note_on,,12,0,2,,,,,,,,,1,,,47,0
50928,note_on,,0,0,1,,,,,,,,,0,,,68,95
50928,note_on,,48,0,1,,,,,,,,,0,,,69,0
50928,note_on,,0,0,2,,,,,,,,,1,,,37,95
50928,note_on,,48,0,2,,,,,,,,,1,,,49,0
50964,note_on,,36,0,1,,,,,,,,,0,,,68,0
50964,note_on,,0,0,1,,,,,,,,,0,,,66,95
50976,note_on,,0,0,1,,,,,,,,,0,,,66,95
50976,note_on,,12,0,1,,,,,,,,,0,,,66,0
50976,note_on,,48,0,2,,,,,,,,,1,,,37,0
50976,note_on,,0,0,2,,,,,,,,,1,,,54,95
51024,note_on,,336,0,3,,,,,,,,,2,,,73,95
51024,note_on,,48,0,2,,,,,,,,,1,,,54,0
51024,note_on,,0,0,2,,,,,,,,,1,,,52,95
51072,note_on,,48,0,3,,,,,,,,,2,,,73,0
51072,note_on,,0,0,2,,,,,,,,,1,,,50,95
51072,note_on,,0,0,3,,,,,,,,,2,,,78,95
51072,note_on,,96,0,1,,,,,,,,,0,,,66,0
51072,note_on,,48,0,2,,,,,,,,,1,,,52,0
51120,note_on,,48,0,2,,,,,,,,,1,,,50,0
51120,note_on,,0,0,3,,,,,,,,,2,,,80,95
51120,note_on,,48,0,3,,,,,,,,,2,,,78,0
51120,note_on,,0,0,2,,,,,,,,,1,,,47,95
51156,note_on,,0,0,3,,,,,,,,,2,,,81,95
51156,note_on,,36,0,3,,,,,,,,,2,,,80,0
51168,note_on,,48,0,2,,,,,,,,,1,,,47,0
51168,note_on,,0,0,2,,,,,,,,,1,,,49,95
51168,note_on,,0,0,3,,,,,,,,,2,,,77,95
51168,note_on,,12,0,3,,,,,,,,,2,,,81,0
51216,note_on,,528,0,4,,,,,,,,,3,,,61,95
51216,note_on,,48,0,2,,,,,,,,,1,,,49,0
51216,note_on,,48,0,3,,,,,,,,,2,,,77,0
51216,note_on,,0,0,2,,,,,,,,,1,,,47,95
51216,note_on,,0,0,3,,,,,,,,,2,,,78,95
51252,note_on,,0,0,3,,,,,,,,,2,,,80,95
51252,note_on,,36,0,3,,,,,,,,,2,,,78,0
51264,note_on,,0,0,3,,,,,,,,,2,,,81,95
51264,note_on,,12,0,3,,,,,,,,,2,,,80,0
51264,note_on,,0,0,4,,,,,,,,,3,,,66,95
51264,note_on,,48,0,4,,,,,,,,,3,,,61,0
51264,note_on,,48,0,2,,,,,,,,,1,,,47,0
51264,note_on,,0,0,2,,,,,,,,,1,,,45,95
51312,note_on,,48,0,2,,,,,,,,,1,,,45,0
51312,note_on,,0,0,2,,,,,,,,,1,,,44,95
51312,note_on,,48,0,4,,,,,,,,,3,,,66,0
51312,note_on,,0,0,3,,,,,,,,,2,,,83,95
51312,note_on,,0,0,4,,,,,,,,,3,,,68,95
51312,note_on,,48,0,3,,,,,,,,,2,,,81,0
51348,note_on,,36,0,4,,,,,,,,,3,,,68,0
51348,note_on,,0,0,4,,,,,,,,,3,,,69,95
51348,note_on,,36,0,2,,,,,,,,,1,,,44,0
51348,note_on,,0,0,3,,,,,,,,,2,,,85,95
51348,note_on,,36,0,3,,,,,,,,,2,,,83,0
51348,note_on,,0,0,2,,,,,,,,,1,,,42,95
51360,note_on,,0,0,3,,,,,,,,,2,,,80,95
51360,note_on,,0,0,2,,,,,,,,,1,,,49,95
51360,note_on,,12,0,2,,,,,,,,,1,,,42,0
51360,note_on,,12,0,4,,,,,,,,,3,,,69,0
51360,note_on,,12,0,3,,,,,,,,,2,,,85,0
51360,note_on,,0,0,4,,,,,,,,,3,,,65,95
51408,note_on,,48,0,3,,,,,,,,,2,,,80,0
51408,note_on,,0,0,3,,,,,,,,,2,,,73,95
51408,note_on,,48,0,4,,,,,,,,,3,,,65,0
51408,note_on,,0,0,4,,,,,,,,,3,,,66,95
51408,note_on,,0,0,2,,,,,,,,,1,,,51,95
51408,note_on,,48,0,2,,,,,,,,,1,,,49,0
51444,note_on,,0,0,4,,,,,,,,,3,,,68,95
51444,note_on,,36,0,4,,,,,,,,,3,,,66,0
51444,note_on,,0,0,2,,,,,,,,,1,,,53,95
51444,note_on,,36,0,2,,,,,,,,,1,,,51,0
51456,note_on,,12,0,4,,,,,,,,,3,,,68,0
51456,note_on,,48,0,3,,,,,,,,,2,,,73,0
51456,note_on,,0,0,3,,,,,,,,,2,,,85,95
51456,note_on,,12,0,2,,,,,,,,,1,,,53,0
51456,note_on,,0,0,2,,,,,,,,,1,,,54,95
51456,note_on,,0,0,4,,,,,,,,,3,,,69,95
51504,note_on,,0,0,4,,,,,,,,,3,,,71,95
51504,note_on,,48,0,2,,,,,,,,,1,,,54,0
51504,note_on,,0,0,2,,,,,,,,,1,,,56,95
51504,note_on,,48,0,4,,,,,,,,,3,,,69,0
51540,note_on,,0,0,4,,,,,,,,,3,,,73,95
51540,note_on,,36,0,4,,,,,,,,,3,,,71,0
51540,note_on,,36,0,2,,,,,,,,,1,,,56,0
51540,note_on,,0,0,2,,,,,,,,,1,,,57,95
51552,note_on,,12,0,4,,,,,,,,,3,,,73,0
51552,note_on,,0,0,2,,,,,,,,,1,,,47,95
51552,note_on,,12,0,2,,,,,,,,,1,,,57,0
51552,note_on,,0,0,4,,,,,,,,,3,,,74,95
51600,note_on,,48,0,2,,,,,,,,,1,,,47,0
51600,note_on,,0,0,3,,,,,,,,,2,,,83,95
51600,note_on,,144,0,3,,,,,,,,,2,,,85,0
51600,note_on,,0,0,4,,,,,,,,,3,,,76,95
51600,note_on,,48,0,4,,,,,,,,,3,,,74,0
51600,note_on,,0,0,2,,,,,,,,,1,,,49,95
51636,note_on,,36,0,2,,,,,,,,,1,,,49,0
51636,note_on,,0,0,2,,,,,,,,,1,,,50,95
51636,note_on,,0,0,3,,,,,,,,,2,,,81,95
51636,note_on,,36,0,3,,,,,,,,,2,,,83,0
51636,note_on,,0,0,4,,,,,,,,,3,,,78,95
51636,note_on,,36,0,4,,,,,,,,,3,,,76,0
51648,note_on,,0,0,2,,,,,,,,,1,,,52,95
51648,note_on,,12,0,3,,,,,,,,,2,,,81,0
51648,note_on,,0,0,3,,,,,,,,,2,,,80,95
51648,note_on,,12,0,2,,,,,,,,,1,,,50,0
51648,note_on,,12,0,4,,,,,,,,,3,,,78,0
51648,note_on,,0,0,4,,,,,,,,,3,,,76,95
51654,note_on,,0,0,3,,,,,,,,,2,,,81,95
51654,note_on,,6,0,3,,,,,,,,,2,,,80,0
51660,note_on,,6,0,3,,,,,,,,,2,,,81,0
51660,note_on,,0,0,3,,,,,,,,,2,,,80,95
51666,note_on,,6,0,3,,,,,,,,,2,,,80,0
51666,note_on,,0,0,3,,,,,,,,,2,,,81,95
51672,note_on,,6,0,3,,,,,,,,,2,,,81,0
51672,note_on,,0,0,3,,,,,,,,,2,,,80,95
51678,note_on,,6,0,3,,,,,,,,,2,,,80,0
51678,note_on,,0,0,3,,,,,,,,,2,,,81,95
51684,note_on,,6,0,3,,,,,,,,,2,,,81,0
51684,note_on,,0,0,3,,,,,,,,,2,,,80,95
51690,note_on,,6,0,3,,,,,,,,,2,,,80,0
51690,note_on,,0,0,3,,,,,,,,,2,,,78,95
51696,note_on,,0,0,4,,,,,,,,,3,,,74,95
51696,note_on,,48,0,2,,,,,,,,,1,,,52,0
51696,note_on,,0,0,2,,,,,,,,,1,,,40,95
51696,note_on,,48,0,4,,,,,,,,,3,,,76,0
51696,note_on,,0,0,3,,,,,,,,,2,,,80,95
51696,note_on,,6,0,3,,,,,,,,,2,,,78,0
51702,note_on,,0,0,4,,,,,,,,,3,,,76,95
51702,note_on,,6,0,4,,,,,,,,,3,,,74,0
51708,note_on,,6,0,4,,,,,,,,,3,,,76,0
51708,note_on,,0,0,4,,,,,,,,,3,,,74,95
51714,note_on,,0,0,4,,,,,,,,,3,,,76,95
51714,note_on,,6,0,4,,,,,,,,,3,,,74,0
51720,note_on,,0,0,4,,,,,,,,,3,,,73,95
51720,note_on,,6,0,4,,,,,,,,,3,,,76,0
51732,note_on,,12,0,4,,,,,,,,,3,,,73,0
51732,note_on,,0,0,4,,,,,,,,,3,,,74,95
51744,note_on,,48,0,3,,,,,,,,,2,,,80,0
51744,note_on,,0,0,3,,,,,,,,,2,,,81,95
51744,note_on,,0,0,2,,,,,,,,,1,,,45,95
51744,note_on,,48,0,2,,,,,,,,,1,,,40,0
51744,note_on,,0,0,4,,,,,,,,,3,,,73,95
51744,note_on,,12,0,4,,,,,,,,,3,,,74,0
51792,note_on,,48,0,4,,,,,,,,,3,,,73,0
51792,note_on,,0,0,2,,,,,,,,,1,,,50,95
51792,note_on,,0,0,4,,,,,,,,,3,,,66,95
51792,note_on,,48,0,2,,,,,,,,,1,,,45,0
51840,note_on,,0,0,2,,,,,,,,,1,,,44,95
51840,note_on,,48,0,2,,,,,,,,,1,,,50,0
51840,note_on,,48,0,4,,,,,,,,,3,,,66,0
51840,note_on,,0,0,4,,,,,,,,,3,,,71,95
51888,note_on,,48,0,2,,,,,,,,,1,,,44,0
51888,note_on,,144,0,3,,,,,,,,,2,,,81,0
51888,note_on,,0,0,2,,,,,,,,,1,,,45,95
51888,note_on,,0,0,3,,,,,,,,,2,,,80,95
51924,note_on,,36,0,3,,,,,,,,,2,,,80,0
51924,note_on,,0,0,3,,,,,,,,,2,,,77,95
51924,note_on,,0,0,2,,,,,,,,,1,,,47,95
51924,note_on,,36,0,2,,,,,,,,,1,,,45,0
51936,note_on,,12,0,3,,,,,,,,,2,,,77,0
51936,note_on,,0,0,3,,,,,,,,,2,,,77,95
51936,note_on,,0,0,2,,,,,,,,,1,,,49,95
51936,note_on,,12,0,2,,,,,,,,,1,,,47,0
51984,note_on,,0,0,2,,,,,,,,,1,,,47,95
51984,note_on,,0,0,4,,,,,,,,,3,,,73,95
51984,note_on,,144,0,4,,,,,,,,,3,,,71,0
51984,note_on,,48,0,2,,,,,,,,,1,,,49,0
52020,note_on,,36,0,4,,,,,,,,,3,,,73,0
52020,note_on,,0,0,4,,,,,,,,,3,,,74,95
52032,note_on,,12,0,4,,,,,,,,,3,,,74,0
52032,note_on,,0,0,2,,,,,,,,,1,,,45,95
52032,note_on,,48,0,2,,,,,,,,,1,,,47,0
52032,note_on,,0,0,4,,,,,,,,,3,,,73,95
52032,note_on,,96,0,3,,,,,,,,,2,,,77,0
52080,note_on,,48,0,3,,,,,,,,,2,,,77,95
52080,note_on,,48,0,4,,,,,,,,,3,,,73,0
52080,note_on,,0,0,4,,,,,,,,,3,,,71,95
52080,note_on,,0,0,2,,,,,,,,,1,,,44,95
52080,note_on,,48,0,2,,,,,,,,,1,,,45,0
52086,note_on,,0,0,4,,,,,,,,,3,,,73,95
52086,note_on,,6,0,4,,,,,,,,,3,,,71,0
52092,note_on,,6,0,4,,,,,,,,,3,,,73,0
52092,note_on,,0,0,4,,,,,,,,,3,,,71,95
52098,note_on,,6,0,4,,,,,,,,,3,,,71,0
52098,note_on,,0,0,4,,,,,,,,,3,,,73,95
52104,note_on,,6,0,4,,,,,,,,,3,,,73,0
52104,note_on,,0,0,4,,,,,,,,,3,,,71,95
52110,note_on,,0,0,4,,,,,,,,,3,,,69,95
52110,note_on,,6,0,4,,,,,,,,,3,,,71,0
52116,note_on,,0,0,4,,,,,,,,,3,,,71,95
52116,note_on,,6,0,4,,,,,,,,,3,,,69,0
52128,note_on,,12,0,4,,,,,,,,,3,,,71,0
52128,note_on,,0,0,4,,,,,,,,,3,,,69,95
52128,note_on,,48,0,3,,,,,,,,,2,,,77,0
52128,note_on,,48,0,2,,,,,,,,,1,,,44,0
52128,note_on,,0,0,3,,,,,,,,,2,,,78,95
52128,note_on,,0,0,2,,,,,,,,,1,,,42,95
52152,note_on,,0,0,4,,,,,,,,,3,,,68,95
52152,note_on,,24,0,4,,,,,,,,,3,,,69,0
52176,note_on,,0,0,2,,,,,,,,,1,,,54,95
52176,note_on,,48,0,2,,,,,,,,,1,,,42,0
52176,note_on,,0,0,4,,,,,,,,,3,,,71,95
52176,note_on,,24,0,4,,,,,,,,,3,,,68,0
52176,note_on,,48,0,3,,,,,,,,,2,,,78,0
52176,note_on,,0,0,3,,,,,,,,,2,,,73,95
52200,note_on,,0,0,4,,,,,,,,,3,,,69,95
52200,note_on,,24,0,4,,,,,,,,,3,,,71,0
52224,note_on,,0,0,3,,,,,,,,,2,,,71,95
52224,note_on,,24,0,4,,,,,,,,,3,,,69,0
52224,note_on,,0,0,4,,,,,,,,,3,,,69,95
52224,note_on,,48,0,2,,,,,,,,,1,,,54,0
52224,note_on,,0,0,2,,,,,,,,,1,,,59,95
52224,note_on,,48,0,3,,,,,,,,,2,,,73,0
52248,note_on,,0,0,4,,,,,,,,,3,,,68,95
52248,note_on,,24,0,4,,,,,,,,,3,,,69,0
52272,note_on,,24,0,4,,,,,,,,,3,,,68,0
52272,note_on,,48,0,3,,,,,,,,,2,,,71,0
52272,note_on,,0,0,3,,,,,,,,,2,,,69,95
52272,note_on,,48,0,2,,,,,,,,,1,,,59,0
52272,note_on,,0,0,2,,,,,,,,,1,,,61,95
52272,note_on,,0,0,4,,,,,,,,,3,,,66,95
52296,note_on,,0,0,4,,,,,,,,,3,,,65,95
52296,note_on,,24,0,4,,,,,,,,,3,,,66,0
52308,note_on,,36,0,2,,,,,,,,,1,,,61,0
52308,note_on,,0,0,2,,,,,,,,,1,,,62,95
52308,note_on,,0,0,3,,,,,,,,,2,,,68,95
52308,note_on,,36,0,3,,,,,,,,,2,,,69,0
52320,note_on,,12,0,2,,,,,,,,,1,,,62,0
52320,note_on,,0,0,2,,,,,,,,,1,,,53,95
52320,note_on,,0,0,4,,,,,,,,,3,,,74,95
52320,note_on,,24,0,4,,,,,,,,,3,,,65,0
52320,note_on,,12,0,3,,,,,,,,,2,,,68,0
52320,note_on,,0,0,3,,,,,,,,,2,,,83,95
52368,note_on,,48,0,3,,,,,,,,,2,,,83,0
52368,note_on,,0,0,3,,,,,,,,,2,,,81,95
52368,note_on,,48,0,4,,,,,,,,,3,,,74,0
52368,note_on,,0,0,4,,,,,,,,,3,,,73,95
52368,note_on,,48,0,2,,,,,,,,,1,,,53,0
52368,note_on,,0,0,2,,,,,,,,,1,,,54,95
52404,note_on,,36,0,4,,,,,,,,,3,,,73,0
52404,note_on,,36,0,3,,,,,,,,,2,,,81,0
52404,note_on,,0,0,3,,,,,,,,,2,,,80,95
52404,note_on,,0,0,4,,,,,,,,,3,,,71,95
52416,note_on,,0,0,4,,,,,,,,,3,,,69,95
52416,note_on,,12,0,4,,,,,,,,,3,,,71,0
52416,note_on,,12,0,3,,,,,,,,,2,,,80,0
52416,note_on,,0,0,3,,,,,,,,,2,,,78,95
52416,note_on,,0,0,2,,,,,,,,,1,,,61,95
52416,note_on,,48,0,2,,,,,,,,,1,,,54,0
52464,note_on,,0,0,2,,,,,,,,,1,,,49,95
52464,note_on,,48,0,2,,,,,,,,,1,,,61,0
52464,note_on,,0,0,4,,,,,,,,,3,,,68,95
52464,note_on,,48,0,3,,,,,,,,,2,,,78,0
52464,note_on,,48,0,4,,,,,,,,,3,,,69,0
52464,note_on,,0,0,3,,,,,,,,,2,,,77,95
52470,note_on,,6,0,3,,,,,,,,,2,,,77,0
52470,note_on,,0,0,3,,,,,,,,,2,,,78,95
52476,note_on,,6,0,3,,,,,,,,,2,,,78,0
52476,note_on,,0,0,3,,,,,,,,,2,,,77,95
52482,note_on,,6,0,3,,,,,,,,,2,,,77,0
52482,note_on,,0,0,3,,,,,,,,,2,,,78,95
52488,note_on,,0,0,3,,,,,,,,,2,,,77,95
52488,note_on,,6,0,3,,,,,,,,,2,,,78,0
52494,note_on,,0,0,3,,,,,,,,,2,,,78,95
52494,note_on,,6,0,3,,,,,,,,,2,,,77,0
52500,note_on,,6,0,3,,,,,,,,,2,,,78,0
52500,note_on,,36,0,4,,,,,,,,,3,,,68,0
52500,note_on,,0,0,4,,,,,,,,,3,,,66,95
52500,note_on,,0,0,3,,,,,,,,,2,,,77,95
52506,note_on,,0,0,3,,,,,,,,,2,,,78,95
52506,note_on,,6,0,3,,,,,,,,,2,,,77,0
52512,note_on,,12,0,4,,,,,,,,,3,,,66,0
52512,note_on,,0,0,4,,,,,,,,,3,,,66,95
52512,note_on,,6,0,3,,,,,,,,,2,,,78,0
52512,note_on,,0,0,3,,,,,,,,,2,,,78,95
52512,note_on,,48,0,2,,,,,,,,,1,,,49,0
52512,note_on,,0,0,2,,,,,,,,,1,,,42,95
52560,note_on,,48,0,2,,,,,,,,,1,,,42,0
52560,note_on,,0,0,2,,,,,,,,,1,,,54,95
52560,note_on,,1488,0,1,,,,,,,,,0,,,73,95
52596,note_on,,0,0,2,,,,,,,,,1,,,56,95
52596,note_on,,36,0,2,,,,,,,,,1,,,54,0
52608,note_on,,48,0,1,,,,,,,,,0,,,73,0
52608,note_on,,96,0,3,,,,,,,,,2,,,78,0
52608,note_on,,12,0,2,,,,,,,,,1,,,56,0
52608,note_on,,0,0,2,,,,,,,,,1,,,57,95
52608,note_on,,96,0,4,,,,,,,,,3,,,66,0
52608,note_on,,0,0,1,,,,,,,,,0,,,78,95
52656,note_on,,0,0,1,,,,,,,,,0,,,79,95
52656,note_on,,48,0,1,,,,,,,,,0,,,78,0
52656,note_on,,48,0,2,,,,,,,,,1,,,57,0
52656,note_on,,0,0,2,,,,,,,,,1,,,55,95
52692,note_on,,36,0,1,,,,,,,,,0,,,79,0
52692,note_on,,0,0,1,,,,,,,,,0,,,81,95
52692,note_on,,0,0,2,,,,,,,,,1,,,54,95
52692,note_on,,36,0,2,,,,,,,,,1,,,55,0
52704,note_on,,0,0,1,,,,,,,,,0,,,75,95
52704,note_on,,12,0,1,,,,,,,,,0,,,81,0
52704,note_on,,0,0,2,,,,,,,,,1,,,59,95
52704,note_on,,12,0,2,,,,,,,,,1,,,54,0
52752,note_on,,48,0,2,,,,,,,,,1,,,59,0
52752,note_on,,144,0,3,,,,,,,,,2,,,78,95
52752,note_on,,0,0,2,,,,,,,,,1,,,47,95
52776,note_on,,0,0,1,,,,,,,,,0,,,76,95
52776,note_on,,72,0,1,,,,,,,,,0,,,75,0
52776,note_on,,0,0,3,,,,,,,,,2,,,75,95
52776,note_on,,24,0,3,,,,,,,,,2,,,78,0
52788,note_on,,0,0,2,,,,,,,,,1,,,49,95
52788,note_on,,36,0,2,,,,,,,,,1,,,47,0
52800,note_on,,24,0,3,,,,,,,,,2,,,75,0
52800,note_on,,0,0,2,,,,,,,,,1,,,51,95
52800,note_on,,12,0,2,,,,,,,,,1,,,49,0
52800,note_on,,24,0,1,,,,,,,,,0,,,76,0
52800,note_on,,0,0,3,,,,,,,,,2,,,69,95
52800,note_on,,0,0,1,,,,,,,,,0,,,78,95
52824,note_on,,24,0,3,,,,,,,,,2,,,69,0
52824,note_on,,0,0,3,,,,,,,,,2,,,67,95
52848,note_on,,24,0,3,,,,,,,,,2,,,67,0
52848,note_on,,0,0,3,,,,,,,,,2,,,69,95
52848,note_on,,48,0,2,,,,,,,,,1,,,51,0
52848,note_on,,0,0,2,,,,,,,,,1,,,49,95
52872,note_on,,24,0,3,,,,,,,,,2,,,69,0
52872,note_on,,0,0,3,,,,,,,,,2,,,66,95
52884,note_on,,0,0,2,,,,,,,,,1,,,47,95
52884,note_on,,36,0,2,,,,,,,,,1,,,49,0
52896,note_on,,24,0,3,,,,,,,,,2,,,66,0
52896,note_on,,0,0,2,,,,,,,,,1,,,52,95
52896,note_on,,12,0,2,,,,,,,,,1,,,47,0
52896,note_on,,0,0,3,,,,,,,,,2,,,67,95
52944,note_on,,48,0,2,,,,,,,,,1,,,52,0
52944,note_on,,0,0,2,,,,,,,,,1,,,52,95
52944,note_on,,144,0,1,,,,,,,,,0,,,78,0
52944,note_on,,0,0,1,,,,,,,,,0,,,71,95
52980,note_on,,36,0,2,,,,,,,,,1,,,52,0
52980,note_on,,0,0,2,,,,,,,,,1,,,54,95
52992,note_on,,0,0,1,,,,,,,,,0,,,76,95
52992,note_on,,12,0,2,,,,,,,,,1,,,54,0
52992,note_on,,48,0,1,,,,,,,,,0,,,71,0
52992,note_on,,96,0,3,,,,,,,,,2,,,67,0
52992,note_on,,0,0,2,,,,,,,,,1,,,55,95
53040,note_on,,0,0,1,,,,,,,,,0,,,78,95
53040,note_on,,48,0,1,,,,,,,,,0,,,76,0
53040,note_on,,48,0,2,,,,,,,,,1,,,55,0
53040,note_on,,0,0,2,,,,,,,,,1,,,54,95
53076,note_on,,36,0,2,,,,,,,,,1,,,54,0
53076,note_on,,36,0,1,,,,,,,,,0,,,78,0
53076,note_on,,0,0,2,,,,,,,,,1,,,52,95
53076,note_on,,0,0,1,,,,,,,,,0,,,79,95
53088,note_on,,0,0,1,,,,,,,,,0,,,73,95
53088,note_on,,12,0,1,,,,,,,,,0,,,79,0
53088,note_on,,0,0,2,,,,,,,,,1,,,57,95
53088,note_on,,12,0,2,,,,,,,,,1,,,52,0
53136,note_on,,0,0,2,,,,,,,,,1,,,45,95
53136,note_on,,528,0,4,,,,,,,,,3,,,76,95
53136,note_on,,48,0,2,,,,,,,,,1,,,57,0
53160,note_on,,24,0,4,,,,,,,,,3,,,76,0
53160,note_on,,72,0,1,,,,,,,,,0,,,73,0
53160,note_on,,0,0,1,,,,,,,,,0,,,74,95
53160,note_on,,0,0,4,,,,,,,,,3,,,73,95
53172,note_on,,36,0,2,,,,,,,,,1,,,45,0
53172,note_on,,0,0,2,,,,,,,,,1,,,47,95
53184,note_on,,0,0,2,,,,,,,,,1,,,49,95
53184,note_on,,0,0,4,,,,,,,,,3,,,67,95
53184,note_on,,24,0,4,,,,,,,,,3,,,73,0
53184,note_on,,24,0,1,,,,,,,,,0,,,74,0
53184,note_on,,0,0,1,,,,,,,,,0,,,76,95
53184,note_on,,12,0,2,,,,,,,,,1,,,47,0
53208,note_on,,24,0,4,,,,,,,,,3,,,67,0
53208,note_on,,0,0,4,,,,,,,,,3,,,66,95
53232,note_on,,0,0,2,,,,,,,,,1,,,47,95
53232,note_on,,0,0,4,,,,,,,,,3,,,67,95
53232,note_on,,48,0,2,,,,,,,,,1,,,49,0
53232,note_on,,24,0,4,,,,,,,,,3,,,66,0
53256,note_on,,0,0,4,,,,,,,,,3,,,64,95
53256,note_on,,24,0,4,,,,,,,,,3,,,67,0
53268,note_on,,0,0,2,,,,,,,,,1,,,45,95
53268,note_on,,36,0,2,,,,,,,,,1,,,47,0
53280,note_on,,24,0,4,,,,,,,,,3,,,64,0
53280,note_on,,0,0,4,,,,,,,,,3,,,66,95
53280,note_on,,0,0,2,,,,,,,,,1,,,50,95
53280,note_on,,12,0,2,,,,,,,,,1,,,45,0
53304,note_on,,120,0,1,,,,,,,,,0,,,74,95
53328,note_on,,24,0,1,,,,,,,,,0,,,74,0
53328,note_on,,0,0,2,,,,,,,,,1,,,50,95
53328,note_on,,48,0,2,,,,,,,,,1,,,50,0
53328,note_on,,0,0,1,,,,,,,,,0,,,76,0
53328,note_on,,0,0,1,,,,,,,,,0,,,81,95
53352,note_on,,0,0,2,,,,,,,,,1,,,52,95
53352,note_on,,24,0,1,,,,,,,,,0,,,81,0
53352,note_on,,0,0,1,,,,,,,,,0,,,78,95
53352,note_on,,24,0,2,,,,,,,,,1,,,50,0
53376,note_on,,96,0,4,,,,,,,,,3,,,66,0
53376,note_on,,0,0,1,,,,,,,,,0,,,72,95
53376,note_on,,24,0,1,,,,,,,,,0,,,78,0
53376,note_on,,0,0,2,,,,,,,,,1,,,54,95
53376,note_on,,24,0,2,,,,,,,,,1,,,52,0
53400,note_on,,0,0,1,,,,,,,,,0,,,71,95
53400,note_on,,24,0,1,,,,,,,,,0,,,72,0
53424,note_on,,0,0,2,,,,,,,,,1,,,52,95
53424,note_on,,48,0,2,,,,,,,,,1,,,54,0
53424,note_on,,0,0,1,,,,,,,,,0,,,72,95
53424,note_on,,24,0,1,,,,,,,,,0,,,71,0
53448,note_on,,24,0,1,,,,,,,,,0,,,72,0
53448,note_on,,0,0,1,,,,,,,,,0,,,69,95
53460,note_on,,0,0,2,,,,,,,,,1,,,50,95
53460,note_on,,36,0,2,,,,,,,,,1,,,52,0
53472,note_on,,0,0,2,,,,,,,,,1,,,55,95
53472,note_on,,12,0,2,,,,,,,,,1,,,50,0
53472,note_on,,0,0,1,,,,,,,,,0,,,71,95
53472,note_on,,24,0,1,,,,,,,,,0,,,69,0
53520,note_on,,0,0,2,,,,,,,,,1,,,52,95
53520,note_on,,48,0,2,,,,,,,,,1,,,55,0
53520,note_on,,0,0,1,,,,,,,,,0,,,83,95
53520,note_on,,48,0,1,,,,,,,,,0,,,71,0
53544,note_on,,24,0,2,,,,,,,,,1,,,52,0
53544,note_on,,24,0,1,,,,,,,,,0,,,83,0
53544,note_on,,0,0,2,,,,,,,,,1,,,54,95
53544,note_on,,0,0,1,,,,,,,,,0,,,80,95
53568,note_on,,24,0,2,,,,,,,,,1,,,54,0
53568,note_on,,0,0,2,,,,,,,,,1,,,56,95
53568,note_on,,24,0,1,,,,,,,,,0,,,80,0
53568,note_on,,0,0,1,,,,,,,,,0,,,74,95
53592,note_on,,0,0,1,,,,,,,,,0,,,73,95
53592,note_on,,24,0,1,,,,,,,,,0,,,74,0
53616,note_on,,24,0,1,,,,,,,,,0,,,73,0
53616,note_on,,0,0,1,,,,,,,,,0,,,74,95
53616,note_on,,48,0,2,,,,,,,,,1,,,56,0
53616,note_on,,0,0,2,,,,,,,,,1,,,54,95
53640,note_on,,24,0,1,,,,,,,,,0,,,74,0
53640,note_on,,0,0,1,,,,,,,,,0,,,71,95
53652,note_on,,0,0,2,,,,,,,,,1,,,52,95
53652,note_on,,36,0,2,,,,,,,,,1,,,54,0
53664,note_on,,0,0,2,,,,,,,,,1,,,57,95
53664,note_on,,12,0,2,,,,,,,,,1,,,52,0
53664,note_on,,24,0,1,,,,,,,,,0,,,71,0
53664,note_on,,0,0,1,,,,,,,,,0,,,72,95
53688,note_on,,0,0,1,,,,,,,,,0,,,69,95
53688,note_on,,24,0,1,,,,,,,,,0,,,72,0
53712,note_on,,24,0,1,,,,,,,,,0,,,69,0
53712,note_on,,0,0,1,,,,,,,,,0,,,78,95
53736,note_on,,24,0,1,,,,,,,,,0,,,78,0
53736,note_on,,0,0,1,,,,,,,,,0,,,75,95
53760,note_on,,96,0,2,,,,,,,,,1,,,57,0
53760,note_on,,24,0,1,,,,,,,,,0,,,75,0
53760,note_on,,0,0,1,,,,,,,,,0,,,69,95
53784,note_on,,24,0,1,,,,,,,,,0,,,69,0
53784,note_on,,0,0,1,,,,,,,,,0,,,67,95
53808,note_on,,24,0,1,,,,,,,,,0,,,67,0
53808,note_on,,0,0,1,,,,,,,,,0,,,69,95
53808,note_on,,48,0,2,,,,,,,,,1,,,51,95
53832,note_on,,24,0,1,,,,,,,,,0,,,69,0
53832,note_on,,0,0,1,,,,,,,,,0,,,66,95
53856,note_on,,48,0,2,,,,,,,,,1,,,51,0
53856,note_on,,0,0,2,,,,,,,,,1,,,52,95
53856,note_on,,0,0,1,,,,,,,,,0,,,67,95
53856,note_on,,24,0,1,,,,,,,,,0,,,66,0
53880,note_on,,24,0,1,,,,,,,,,0,,,67,0
53880,note_on,,0,0,1,,,,,,,,,0,,,71,95
53904,note_on,,0,0,2,,,,,,,,,1,,,55,95
53904,note_on,,48,0,2,,,,,,,,,1,,,52,0
53904,note_on,,24,0,1,,,,,,,,,0,,,71,0
53904,note_on,,0,0,1,,,,,,,,,0,,,75,95
53928,note_on,,0,0,1,,,,,,,,,0,,,76,95
53928,note_on,,24,0,1,,,,,,,,,0,,,75,0
53952,note_on,,24,0,1,,,,,,,,,0,,,76,0
53952,note_on,,48,0,2,,,,,,,,,1,,,55,0
53952,note_on,,0,0,1,,,,,,,,,0,,,69,95
53952,note_on,,0,0,2,,,,,,,,,1,,,48,95
53976,note_on,,0,0,1,,,,,,,,,0,,,78,95
53976,note_on,,24,0,1,,,,,,,,,0,,,69,0
54000,note_on,,0,0,2,,,,,,,,,1,,,47,95
54000,note_on,,48,0,2,,,,,,,,,1,,,48,0
54000,note_on,,0,0,1,,,,,,,,,0,,,79,95
54000,note_on,,24,0,1,,,,,,,,,0,,,78,0
54024,note_on,,24,0,1,,,,,,,,,0,,,79,0
54024,note_on,,0,0,1,,,,,,,,,0,,,81,95
54036,note_on,,36,0,2,,,,,,,,,1,,,47,0
54036,note_on,,0,0,2,,,,,,,,,1,,,45,95
54048,note_on,,12,0,2,,,,,,,,,1,,,45,0
54048,note_on,,0,0,2,,,,,,,,,1,,,47,95
54048,note_on,,24,0,1,,,,,,,,,0,,,81,0
54048,note_on,,0,0,1,,,,,,,,,0,,,75,95
54054,note_on,,0,0,1,,,,,,,,,0,,,76,95
54054,note_on,,6,0,1,,,,,,,,,0,,,75,0
54060,note_on,,6,0,1,,,,,,,,,0,,,76,0
54060,note_on,,0,0,1,,,,,,,,,0,,,75,95
54066,note_on,,6,0,1,,,,,,,,,0,,,75,0
54066,note_on,,0,0,1,,,,,,,,,0,,,76,95
54072,note_on,,6,0,1,,,,,,,,,0,,,76,0
54072,note_on,,0,0,1,,,,,,,,,0,,,75,95
54078,note_on,,6,0,1,,,,,,,,,0,,,75,0
54078,note_on,,0,0,1,,,,,,,,,0,,,76,95
54084,note_on,,6,0,1,,,,,,,,,0,,,76,0
54084,note_on,,0,0,1,,,,,,,,,0,,,75,95
54090,note_on,,6,0,1,,,,,,,,,0,,,75,0
54090,note_on,,0,0,1,,,,,,,,,0,,,76,95
54096,note_on,,0,0,1,,,,,,,,,0,,,75,95
54096,note_on,,6,0,1,,,,,,,,,0,,,76,0
54096,note_on,,720,0,4,,,,,,,,,3,,,78,95
54096,note_on,,1104,0,3,,,,,,,,,2,,,81,95
54102,note_on,,6,0,1,,,,,,,,,0,,,75,0
54102,note_on,,0,0,1,,,,,,,,,0,,,76,95
54108,note_on,,6,0,1,,,,,,,,,0,,,76,0
54108,note_on,,0,0,1,,,,,,,,,0,,,75,95
54114,note_on,,6,0,1,,,,,,,,,0,,,75,0
54114,note_on,,0,0,1,,,,,,,,,0,,,76,95
54120,note_on,,24,0,4,,,,,,,,,3,,,78,0
54120,note_on,,24,0,3,,,,,,,,,2,,,81,0
54120,note_on,,0,0,3,,,,,,,,,2,,,78,95
54120,note_on,,6,0,1,,,,,,,,,0,,,76,0
54120,note_on,,0,0,4,,,,,,,,,3,,,75,95
54120,note_on,,0,0,1,,,,,,,,,0,,,75,95
54126,note_on,,6,0,1,,,,,,,,,0,,,75,0
54126,note_on,,0,0,1,,,,,,,,,0,,,76,95
54132,note_on,,0,0,1,,,,,,,,,0,,,75,95
54132,note_on,,6,0,1,,,,,,,,,0,,,76,0
54138,note_on,,6,0,1,,,,,,,,,0,,,75,0
54138,note_on,,0,0,1,,,,,,,,,0,,,76,95
54144,note_on,,24,0,3,,,,,,,,,2,,,78,0
54144,note_on,,0,0,3,,,,,,,,,2,,,72,95
54144,note_on,,6,0,1,,,,,,,,,0,,,76,0
54144,note_on,,96,0,2,,,,,,,,,1,,,47,0
54144,note_on,,24,0,4,,,,,,,,,3,,,75,0
54144,note_on,,0,0,4,,,,,,,,,3,,,72,95
54168,note_on,,24,0,3,,,,,,,,,2,,,72,0
54168,note_on,,0,0,3,,,,,,,,,2,,,71,95
54168,note_on,,24,0,4,,,,,,,,,3,,,72,0
54168,note_on,,0,0,4,,,,,,,,,3,,,71,95
54192,note_on,,48,0,1,,,,,,,,,0,,,78,95
54192,note_on,,0,0,4,,,,,,,,,3,,,72,95
54192,note_on,,0,0,3,,,,,,,,,2,,,72,95
54192,note_on,,24,0,3,,,,,,,,,2,,,71,0
54192,note_on,,24,0,4,,,,,,,,,3,,,71,0
54216,note_on,,0,0,4,,,,,,,,,3,,,69,95
54216,note_on,,0,0,3,,,,,,,,,2,,,69,95
54216,note_on,,24,0,3,,,,,,,,,2,,,72,0
54216,note_on,,24,0,4,,,,,,,,,3,,,72,0
54240,note_on,,24,0,4,,,,,,,,,3,,,69,0
54240,note_on,,0,0,4,,,,,,,,,3,,,67,95
54240,note_on,,96,0,2,,,,,,,,,1,,,47,95
54240,note_on,,0,0,1,,,,,,,,,0,,,78,95
54240,note_on,,24,0,3,,,,,,,,,2,,,69,0
54240,note_on,,48,0,1,,,,,,,,,0,,,78,0
54240,note_on,,0,0,3,,,,,,,,,2,,,71,95
54264,note_on,,0,0,1,,,,,,,,,0,,,75,95
54264,note_on,,24,0,1,,,,,,,,,0,,,78,0
54288,note_on,,0,0,1,,,,,,,,,0,,,76,95
54288,note_on,,0,0,3,,,,,,,,,2,,,83,95
54288,note_on,,48,0,3,,,,,,,,,2,,,71,0
54288,note_on,,48,0,4,,,,,,,,,3,,,67,0
54288,note_on,,0,0,4,,,,,,,,,3,,,79,95
54288,note_on,,24,0,1,,,,,,,,,0,,,75,0
54312,note_on,,0,0,3,,,,,,,,,2,,,79,95
54312,note_on,,24,0,4,,,,,,,,,3,,,79,0
54312,note_on,,0,0,4,,,,,,,,,3,,,76,95
54312,note_on,,24,0,3,,,,,,,,,2,,,83,0
54336,note_on,,0,0,3,,,,,,,,,2,,,74,95
54336,note_on,,24,0,4,,,,,,,,,3,,,76,0
54336,note_on,,0,0,4,,,,,,,,,3,,,71,95
54336,note_on,,24,0,3,,,,,,,,,2,,,79,0
54336,note_on,,96,0,2,,,,,,,,,1,,,47,0
54336,note_on,,48,0,1,,,,,,,,,0,,,76,0
54360,note_on,,0,0,4,,,,,,,,,3,,,69,95
54360,note_on,,24,0,4,,,,,,,,,3,,,71,0
54360,note_on,,0,0,3,,,,,,,,,2,,,72,95
54360,note_on,,24,0,3,,,,,,,,,2,,,74,0
54384,note_on,,48,0,1,,,,,,,,,0,,,79,95
54384,note_on,,24,0,4,,,,,,,,,3,,,69,0
54384,note_on,,0,0,4,,,,,,,,,3,,,71,95
54384,note_on,,24,0,3,,,,,,,,,2,,,72,0
54384,note_on,,0,0,3,,,,,,,,,2,,,74,95
54408,note_on,,0,0,4,,,,,,,,,3,,,67,95
54408,note_on,,0,0,3,,,,,,,,,2,,,71,95
54408,note_on,,24,0,3,,,,,,,,,2,,,74,0
54408,note_on,,24,0,4,,,,,,,,,3,,,71,0
54432,note_on,,0,0,3,,,,,,,,,2,,,72,95
54432,note_on,,0,0,1,,,,,,,,,0,,,79,95
54432,note_on,,48,0,1,,,,,,,,,0,,,79,0
54432,note_on,,96,0,2,,,,,,,,,1,,,47,95
54432,note_on,,24,0,4,,,,,,,,,3,,,67,0
54432,note_on,,0,0,4,,,,,,,,,3,,,69,95
54432,note_on,,24,0,3,,,,,,,,,2,,,71,0
54456,note_on,,24,0,1,,,,,,,,,0,,,79,0
54456,note_on,,0,0,1,,,,,,,,,0,,,76,95
54480,note_on,,48,0,2,,,,,,,,,1,,,47,0
54480,note_on,,48,0,4,,,,,,,,,3,,,69,0
54480,note_on,,0,0,4,,,,,,,,,3,,,72,95
54480,note_on,,0,0,2,,,,,,,,,1,,,57,95
54480,note_on,,0,0,1,,,,,,,,,0,,,78,95
54480,note_on,,24,0,1,,,,,,,,,0,,,76,0
54480,note_on,,0,0,3,,,,,,,,,2,,,78,95
54480,note_on,,48,0,3,,,,,,,,,2,,,72,0
54504,note_on,,0,0,3,,,,,,,,,2,,,75,95
54504,note_on,,24,0,3,,,,,,,,,2,,,78,0
54504,note_on,,0,0,4,,,,,,,,,3,,,69,95
54504,note_on,,24,0,4,,,,,,,,,3,,,72,0
54504,note_on,,24,0,2,,,,,,,,,1,,,57,0
54504,note_on,,0,0,2,,,,,,,,,1,,,54,95
54528,note_on,,24,0,3,,,,,,,,,2,,,75,0
54528,note_on,,48,0,1,,,,,,,,,0,,,78,0
54528,note_on,,0,0,3,,,,,,,,,2,,,69,95
54528,note_on,,24,0,2,,,,,,,,,1,,,54,0
54528,note_on,,0,0,4,,,,,,,,,3,,,66,95
54528,note_on,,0,0,2,,,,,,,,,1,,,51,95
54528,note_on,,24,0,4,,,,,,,,,3,,,69,0
54552,note_on,,24,0,4,,,,,,,,,3,,,66,0
54552,note_on,,0,0,4,,,,,,,,,3,,,64,95
54552,note_on,,24,0,3,,,,,,,,,2,,,69,0
54552,note_on,,0,0,3,,,,,,,,,2,,,67,95
54576,note_on,,48,0,2,,,,,,,,,1,,,51,0
54576,note_on,,0,0,2,,,,,,,,,1,,,49,95
54576,note_on,,0,0,4,,,,,,,,,3,,,66,95
54576,note_on,,48,0,1,,,,,,,,,0,,,81,95
54576,note_on,,24,0,4,,,,,,,,,3,,,64,0
54576,note_on,,24,0,3,,,,,,,,,2,,,67,0
54576,note_on,,0,0,3,,,,,,,,,2,,,69,95
54600,note_on,,0,0,3,,,,,,,,,2,,,66,95
54600,note_on,,24,0,3,,,,,,,,,2,,,69,0
54600,note_on,,0,0,4,,,,,,,,,3,,,63,95
54600,note_on,,24,0,4,,,,,,,,,3,,,66,0
54612,note_on,,0,0,2,,,,,,,,,1,,,47,95
54612,note_on,,36,0,2,,,,,,,,,1,,,49,0
54624,note_on,,0,0,2,,,,,,,,,1,,,52,95
54624,note_on,,24,0,3,,,,,,,,,2,,,66,0
54624,note_on,,12,0,2,,,,,,,,,1,,,47,0
54624,note_on,,0,0,4,,,,,,,,,3,,,64,95
54624,note_on,,0,0,3,,,,,,,,,2,,,67,95
54624,note_on,,48,0,1,,,,,,,,,0,,,81,0
54624,note_on,,0,0,1,,,,,,,,,0,,,72,95
54624,note_on,,24,0,4,,,,,,,,,3,,,63,0
54648,note_on,,24,0,1,,,,,,,,,0,,,72,0
54648,note_on,,0,0,1,,,,,,,,,0,,,69,95
54672,note_on,,48,0,3,,,,,,,,,2,,,67,0
54672,note_on,,24,0,1,,,,,,,,,0,,,69,0
54672,note_on,,0,0,1,,,,,,,,,0,,,71,95
54672,note_on,,48,0,4,,,,,,,,,3,,,64,0
54672,note_on,,48,0,2,,,,,,,,,1,,,52,0
54672,note_on,,0,0,2,,,,,,,,,1,,,55,95
54696,note_on,,24,0,1,,,,,,,,,0,,,71,0
54696,note_on,,0,0,1,,,,,,,,,0,,,79,95
54708,note_on,,36,0,2,,,,,,,,,1,,,55,0
54708,note_on,,0,0,2,,,,,,,,,1,,,52,95
54720,note_on,,0,0,1,,,,,,,,,0,,,78,95
54720,note_on,,0,0,2,,,,,,,,,1,,,59,95
54720,note_on,,24,0,1,,,,,,,,,0,,,79,0
54720,note_on,,12,0,2,,,,,,,,,1,,,52,0
54744,note_on,,24,0,1,,,,,,,,,0,,,78,0
54744,note_on,,0,0,1,,,,,,,,,0,,,76,95
54768,note_on,,48,0,2,,,,,,,,,1,,,59,0
54768,note_on,,0,0,2,,,,,,,,,1,,,47,95
54768,note_on,,24,0,1,,,,,,,,,0,,,76,0
54768,note_on,,0,0,1,,,,,,,,,0,,,79,95
54792,note_on,,24,0,1,,,,,,,,,0,,,79,0
54792,note_on,,0,0,1,,,,,,,,,0,,,75,95
54816,note_on,,24,0,1,,,,,,,,,0,,,75,0
54816,note_on,,0,0,1,,,,,,,,,0,,,76,95
54816,note_on,,48,0,2,,,,,,,,,1,,,47,0
54816,note_on,,0,0,2,,,,,,,,,1,,,52,95
54864,note_on,,192,0,3,,,,,,,,,2,,,71,95
54888,note_on,,24,0,3,,,,,,,,,2,,,71,0
54888,note_on,,0,0,3,,,,,,,,,2,,,67,95
54912,note_on,,96,0,1,,,,,,,,,0,,,76,0
54912,note_on,,24,0,3,,,,,,,,,2,,,67,0
54912,note_on,,0,0,3,,,,,,,,,2,,,64,95
54912,note_on,,96,0,2,,,,,,,,,1,,,52,0
54936,note_on,,24,0,3,,,,,,,,,2,,,64,0
54936,note_on,,0,0,3,,,,,,,,,2,,,63,95
54960,note_on,,24,0,3,,,,,,,,,2,,,63,0
54960,note_on,,48,0,2,,,,,,,,,1,,,55,95
54960,note_on,,288,0,4,,,,,,,,,3,,,71,95
54960,note_on,,0,0,3,,,,,,,,,2,,,64,95
54984,note_on,,24,0,3,,,,,,,,,2,,,64,0
54984,note_on,,0,0,3,,,,,,,,,2,,,67,95
54984,note_on,,0,0,4,,,,,,,,,3,,,67,95
54984,note_on,,24,0,4,,,,,,,,,3,,,71,0
55008,note_on,,24,0,3,,,,,,,,,2,,,67,0
55008,note_on,,0,0,3,,,,,,,,,2,,,72,95
55008,note_on,,0,0,4,,,,,,,,,3,,,64,95
55008,note_on,,24,0,4,,,,,,,,,3,,,67,0
55008,note_on,,0,0,2,,,,,,,,,1,,,57,95
55008,note_on,,48,0,2,,,,,,,,,1,,,55,0
55032,note_on,,24,0,4,,,,,,,,,3,,,64,0
55032,note_on,,0,0,4,,,,,,,,,3,,,63,95
55056,note_on,,24,0,4,,,,,,,,,3,,,63,0
55056,note_on,,48,0,3,,,,,,,,,2,,,72,0
55056,note_on,,0,0,4,,,,,,,,,3,,,64,95
55056,note_on,,0,0,3,,,,,,,,,2,,,72,95
55080,note_on,,0,0,3,,,,,,,,,2,,,69,95
55080,note_on,,24,0,3,,,,,,,,,2,,,72,0
55080,note_on,,0,0,4,,,,,,,,,3,,,69,95
55080,note_on,,24,0,4,,,,,,,,,3,,,64,0
55104,note_on,,24,0,3,,,,,,,,,2,,,69,0
55104,note_on,,96,0,2,,,,,,,,,1,,,57,0
55104,note_on,,0,0,4,,,,,,,,,3,,,72,95
55104,note_on,,24,0,4,,,,,,,,,3,,,69,0
55104,note_on,,0,0,3,,,,,,,,,2,,,66,95
55128,note_on,,0,0,3,,,,,,,,,2,,,64,95
55128,note_on,,24,0,3,,,,,,,,,2,,,66,0
55152,note_on,,0,0,4,,,,,,,,,3,,,72,95
55152,note_on,,0,0,3,,,,,,,,,2,,,66,95
55152,note_on,,24,0,3,,,,,,,,,2,,,64,0
55152,note_on,,48,0,2,,,,,,,,,1,,,45,95
55152,note_on,,48,0,4,,,,,,,,,3,,,72,0
55176,note_on,,24,0,4,,,,,,,,,3,,,72,0
55176,note_on,,0,0,3,,,,,,,,,2,,,69,95
55176,note_on,,24,0,3,,,,,,,,,2,,,66,0
55176,note_on,,0,0,4,,,,,,,,,3,,,69,95
55200,note_on,,48,0,2,,,,,,,,,1,,,45,0
55200,note_on,,0,0,4,,,,,,,,,3,,,66,95
55200,note_on,,24,0,4,,,,,,,,,3,,,69,0
55200,note_on,,0,0,3,,,,,,,,,2,,,74,95
55200,note_on,,24,0,3,,,,,,,,,2,,,69,0
55200,note_on,,0,0,2,,,,,,,,,1,,,47,95
55224,note_on,,0,0,4,,,,,,,,,3,,,64,95
55224,note_on,,24,0,4,,,,,,,,,3,,,66,0
55248,note_on,,24,0,4,,,,,,,,,3,,,64,0
55248,note_on,,0,0,4,,,,,,,,,3,,,66,95
55248,note_on,,0,0,3,,,,,,,,,2,,,74,95
55248,note_on,,48,0,3,,,,,,,,,2,,,74,0
55272,note_on,,24,0,4,,,,,,,,,3,,,66,0
55272,note_on,,0,0,4,,,,,,,,,3,,,71,95
55272,note_on,,0,0,3,,,,,,,,,2,,,71,95
55272,note_on,,24,0,3,,,,,,,,,2,,,74,0
55296,note_on,,24,0,4,,,,,,,,,3,,,71,0
55296,note_on,,0,0,4,,,,,,,,,3,,,74,95
55296,note_on,,96,0,2,,,,,,,,,1,,,47,0
55296,note_on,,0,0,3,,,,,,,,,2,,,67,95
55296,note_on,,24,0,3,,,,,,,,,2,,,71,0
55320,note_on,,0,0,3,,,,,,,,,2,,,66,95
55320,note_on,,24,0,3,,,,,,,,,2,,,67,0
55344,note_on,,48,0,2,,,,,,,,,1,,,47,95
55344,note_on,,24,0,3,,,,,,,,,2,,,66,0
55344,note_on,,48,0,4,,,,,,,,,3,,,74,0
55344,note_on,,0,0,4,,,,,,,,,3,,,74,95
55344,note_on,,0,0,3,,,,,,,,,2,,,67,95
55368,note_on,,24,0,3,,,,,,,,,2,,,67,0
55368,note_on,,24,0,4,,,,,,,,,3,,,74,0
55368,note_on,,0,0,4,,,,,,,,,3,,,71,95
55368,note_on,,0,0,3,,,,,,,,,2,,,71,95
55392,note_on,,24,0,4,,,,,,,,,3,,,71,0
55392,note_on,,0,0,2,,,,,,,,,1,,,48,95
55392,note_on,,48,0,2,,,,,,,,,1,,,47,0
55392,note_on,,0,0,3,,,,,,,,,2,,,76,95
55392,note_on,,24,0,3,,,,,,,,,2,,,71,0
55392,note_on,,0,0,4,,,,,,,,,3,,,67,95
55416,note_on,,24,0,4,,,,,,,,,3,,,67,0
55416,note_on,,0,0,4,,,,,,,,,3,,,66,95
55440,note_on,,24,0,4,,,,,,,,,3,,,66,0
55440,note_on,,0,0,4,,,,,,,,,3,,,67,95
55440,note_on,,0,0,2,,,,,,,,,1,,,45,95
55440,note_on,,48,0,2,,,,,,,,,1,,,48,0
55464,note_on,,24,0,4,,,,,,,,,3,,,67,0
55464,note_on,,72,0,3,,,,,,,,,2,,,76,0
55464,note_on,,0,0,3,,,,,,,,,2,,,78,95
55464,note_on,,0,0,4,,,,,,,,,3,,,69,95
55488,note_on,,24,0,3,,,,,,,,,2,,,78,0
55488,note_on,,0,0,3,,,,,,,,,2,,,79,95
55488,note_on,,24,0,4,,,,,,,,,3,,,69,0
55488,note_on,,0,0,4,,,,,,,,,3,,,71,95
55488,note_on,,0,0,2,,,,,,,,,1,,,52,95
55488,note_on,,48,0,2,,,,,,,,,1,,,45,0
55512,note_on,,0,0,3,,,,,,,,,2,,,78,95
55512,note_on,,24,0,3,,,,,,,,,2,,,79,0
55536,note_on,,0,0,2,,,,,,,,,1,,,50,95
55536,note_on,,0,0,3,,,,,,,,,2,,,79,95
55536,note_on,,24,0,3,,,,,,,,,2,,,78,0
55536,note_on,,48,0,2,,,,,,,,,1,,,52,0
55560,note_on,,0,0,4,,,,,,,,,3,,,72,95
55560,note_on,,24,0,3,,,,,,,,,2,,,79,0
55560,note_on,,72,0,4,,,,,,,,,3,,,71,0
55560,note_on,,0,0,3,,,,,,,,,2,,,81,95
55572,note_on,,36,0,2,,,,,,,,,1,,,50,0
55572,note_on,,0,0,2,,,,,,,,,1,,,48,95
55584,note_on,,12,0,2,,,,,,,,,1,,,48,0
55584,note_on,,0,0,4,,,,,,,,,3,,,69,95
55584,note_on,,24,0,4,,,,,,,,,3,,,72,0
55584,note_on,,0,0,2,,,,,,,,,1,,,50,95
55584,note_on,,0,0,3,,,,,,,,,2,,,78,95
55584,note_on,,24,0,3,,,,,,,,,2,,,81,0
55632,note_on,,0,0,4,,,,,,,,,3,,,67,95
55632,note_on,,48,0,2,,,,,,,,,1,,,50,0
55632,note_on,,0,0,2,,,,,,,,,1,,,62,95
55632,note_on,,0,0,3,,,,,,,,,2,,,74,95
55632,note_on,,48,0,3,,,,,,,,,2,,,78,0
55632,note_on,,48,0,4,,,,,,,,,3,,,69,0
55668,note_on,,36,0,2,,,,,,,,,1,,,62,0
55668,note_on,,0,0,2,,,,,,,,,1,,,60,95
55680,note_on,,48,0,3,,,,,,,,,2,,,74,0
55680,note_on,,12,0,2,,,,,,,,,1,,,60,0
55680,note_on,,0,0,4,,,,,,,,,3,,,72,95
55680,note_on,,0,0,3,,,,,,,,,2,,,79,95
55680,note_on,,0,0,2,,,,,,,,,1,,,59,95
55680,note_on,,48,0,4,,,,,,,,,3,,,67,0
55728,note_on,,0,0,4,,,,,,,,,3,,,74,95
55728,note_on,,0,0,2,,,,,,,,,1,,,57,95
55728,note_on,,48,0,2,,,,,,,,,1,,,59,0
55728,note_on,,0,0,3,,,,,,,,,2,,,81,95
55728,note_on,,48,0,4,,,,,,,,,3,,,72,0
55728,note_on,,48,0,3,,,,,,,,,2,,,79,0
55764,note_on,,36,0,3,,,,,,,,,2,,,81,0
55764,note_on,,0,0,3,,,,,,,,,2,,,83,95
55764,note_on,,36,0,4,,,,,,,,,3,,,74,0
55764,note_on,,0,0,4,,,,,,,,,3,,,74,95
55764,note_on,,36,0,2,,,,,,,,,1,,,57,0
55764,note_on,,0,0,2,,,,,,,,,1,,,55,95
55776,note_on,,12,0,4,,,,,,,,,3,,,74,0
55776,note_on,,0,0,4,,,,,,,,,3,,,69,95
55776,note_on,,12,0,2,,,,,,,,,1,,,55,0
55776,note_on,,0,0,2,,,,,,,,,1,,,60,95
55776,note_on,,0,0,3,,,,,,,,,2,,,76,95
55776,note_on,,12,0,3,,,,,,,,,2,,,83,0
55824,note_on,,0,0,3,,,,,,,,,2,,,76,95
55824,note_on,,0,0,2,,,,,,,,,1,,,64,95
55824,note_on,,48,0,2,,,,,,,,,1,,,60,0
55824,note_on,,48,0,3,,,,,,,,,2,,,76,0
55848,note_on,,72,0,4,,,,,,,,,3,,,69,0
55848,note_on,,0,0,4,,,,,,,,,3,,,71,95
55860,note_on,,0,0,2,,,,,,,,,1,,,62,95
55860,note_on,,36,0,2,,,,,,,,,1,,,64,0
55872,note_on,,24,0,4,,,,,,,,,3,,,71,0
55872,note_on,,0,0,4,,,,,,,,,3,,,72,95
55872,note_on,,0,0,3,,,,,,,,,2,,,81,95
55872,note_on,,48,0,3,,,,,,,,,2,,,76,0
55872,note_on,,12,0,2,,,,,,,,,1,,,62,0
55872,note_on,,0,0,2,,,,,,,,,1,,,60,95
55920,note_on,,48,0,3,,,,,,,,,2,,,81,0
55920,note_on,,0,0,3,,,,,,,,,2,,,83,95
55920,note_on,,0,0,2,,,,,,,,,1,,,59,95
55920,note_on,,48,0,2,,,,,,,,,1,,,60,0
55956,note_on,,0,0,3,,,,,,,,,2,,,84,95
55956,note_on,,0,0,2,,,,,,,,,1,,,57,95
55956,note_on,,36,0,3,,,,,,,,,2,,,83,0
55956,note_on,,36,0,2,,,,,,,,,1,,,59,0
55968,note_on,,0,0,2,,,,,,,,,1,,,62,95
55968,note_on,,0,0,3,,,,,,,,,2,,,78,95
55968,note_on,,12,0,3,,,,,,,,,2,,,84,0
55968,note_on,,12,0,2,,,,,,,,,1,,,57,0
56016,note_on,,0,0,4,,,,,,,,,3,,,71,95
56016,note_on,,48,0,2,,,,,,,,,1,,,62,0
56016,note_on,,0,0,2,,,,,,,,,1,,,57,95
56016,note_on,,144,0,4,,,,,,,,,3,,,72,0
56040,note_on,,0,0,3,,,,,,,,,2,,,79,95
56040,note_on,,72,0,3,,,,,,,,,2,,,78,0
56052,note_on,,0,0,2,,,,,,,,,1,,,55,95
56052,note_on,,36,0,2,,,,,,,,,1,,,57,0
56052,note_on,,0,0,4,,,,,,,,,3,,,72,95
56052,note_on,,36,0,4,,,,,,,,,3,,,71,0
56064,note_on,,0,0,2,,,,,,,,,1,,,54,95
56064,note_on,,12,0,4,,,,,,,,,3,,,72,0
56064,note_on,,0,0,4,,,,,,,,,3,,,69,95
56064,note_on,,0,0,3,,,,,,,,,2,,,81,95
56064,note_on,,24,0,3,,,,,,,,,2,,,79,0
56064,note_on,,12,0,2,,,,,,,,,1,,,55,0
56112,note_on,,0,0,2,,,,,,,,,1,,,52,95
56112,note_on,,48,0,2,,,,,,,,,1,,,54,0
56136,note_on,,0,0,4,,,,,,,,,3,,,67,95
56136,note_on,,72,0,4,,,,,,,,,3,,,69,0
56148,note_on,,0,0,2,,,,,,,,,1,,,50,95
56148,note_on,,36,0,2,,,,,,,,,1,,,52,0
56160,note_on,,12,0,2,,,,,,,,,1,,,50,0
56160,note_on,,0,0,2,,,,,,,,,1,,,55,95
56160,note_on,,0,0,4,,,,,,,,,3,,,67,95
56160,note_on,,24,0,4,,,,,,,,,3,,,67,0
56208,note_on,,0,0,2,,,,,,,,,1,,,48,95
56208,note_on,,144,0,3,,,,,,,,,2,,,81,0
56208,note_on,,0,0,3,,,,,,,,,2,,,79,95
56208,note_on,,48,0,2,,,,,,,,,1,,,55,0
56244,note_on,,0,0,3,,,,,,,,,2,,,81,95
56244,note_on,,36,0,3,,,,,,,,,2,,,79,0
56256,note_on,,0,0,3,,,,,,,,,2,,,78,95
56256,note_on,,12,0,3,,,,,,,,,2,,,81,0
56256,note_on,,0,0,2,,,,,,,,,1,,,50,95
56256,note_on,,48,0,2,,,,,,,,,1,,,48,0
56256,note_on,,96,0,4,,,,,,,,,3,,,67,0
56304,note_on,,0,0,2,,,,,,,,,1,,,38,95
56304,note_on,,48,0,2,,,,,,,,,1,,,50,0
56328,note_on,,0,0,3,,,,,,,,,2,,,79,95
56328,note_on,,72,0,3,,,,,,,,,2,,,78,0
56352,note_on,,0,0,3,,,,,,,,,2,,,79,95
56352,note_on,,24,0,3,,,,,,,,,2,,,79,0
56352,note_on,,48,0,2,,,,,,,,,1,,,38,0
56352,note_on,,0,0,2,,,,,,,,,1,,,43,95
56400,note_on,,48,0,2,,,,,,,,,1,,,43,0
56400,note_on,,0,0,2,,,,,,,,,1,,,55,95
56400,note_on,,0,0,3,,,,,,,,,2,,,79,95
56400,note_on,,1488,0,1,,,,,,,,,0,,,71,95
56400,note_on,,48,0,3,,,,,,,,,2,,,79,0
56448,note_on,,48,0,1,,,,,,,,,0,,,71,0
56448,note_on,,0,0,2,,,,,,,,,1,,,57,95
56448,note_on,,48,0,2,,,,,,,,,1,,,55,0
56448,note_on,,0,0,1,,,,,,,,,0,,,69,95
56448,note_on,,48,0,3,,,,,,,,,2,,,79,0
56448,note_on,,0,0,3,,,,,,,,,2,,,78,95
56496,note_on,,48,0,2,,,,,,,,,1,,,57,0
56496,note_on,,0,0,3,,,,,,,,,2,,,76,95
56496,note_on,,48,0,1,,,,,,,,,0,,,69,0
56496,note_on,,0,0,1,,,,,,,,,0,,,67,95
56496,note_on,,0,0,2,,,,,,,,,1,,,59,95
56496,note_on,,48,0,3,,,,,,,,,2,,,78,0
56532,note_on,,36,0,1,,,,,,,,,0,,,67,0
56532,note_on,,0,0,1,,,,,,,,,0,,,66,95
56532,note_on,,36,0,3,,,,,,,,,2,,,76,0
56532,note_on,,0,0,3,,,,,,,,,2,,,75,95
56544,note_on,,12,0,3,,,,,,,,,2,,,75,0
56544,note_on,,0,0,3,,,,,,,,,2,,,76,95
56544,note_on,,48,0,2,,,,,,,,,1,,,59,0
56544,note_on,,12,0,1,,,,,,,,,0,,,66,0
56544,note_on,,0,0,1,,,,,,,,,0,,,67,95
56544,note_on,,0,0,2,,,,,,,,,1,,,52,95
56592,note_on,,48,0,2,,,,,,,,,1,,,52,0
56592,note_on,,48,0,3,,,,,,,,,2,,,76,0
56592,note_on,,0,0,1,,,,,,,,,0,,,64,95
56592,note_on,,0,0,2,,,,,,,,,1,,,49,95
56592,note_on,,48,0,1,,,,,,,,,0,,,67,0
56616,note_on,,24,0,1,,,,,,,,,0,,,64,0
56616,note_on,,0,0,1,,,,,,,,,0,,,67,95
56640,note_on,,24,0,1,,,,,,,,,0,,,67,0
56640,note_on,,48,0,2,,,,,,,,,1,,,49,0
56640,note_on,,0,0,2,,,,,,,,,1,,,46,95
56640,note_on,,0,0,1,,,,,,,,,0,,,73,95
56664,note_on,,0,0,1,,,,,,,,,0,,,74,95
56664,note_on,,24,0,1,,,,,,,,,0,,,73,0
56688,note_on,,0,0,2,,,,,,,,,1,,,44,95
56688,note_on,,0,0,1,,,,,,,,,0,,,73,95
56688,note_on,,24,0,1,,,,,,,,,0,,,74,0
56688,note_on,,48,0,2,,,,,,,,,1,,,46,0
56712,note_on,,0,0,1,,,,,,,,,0,,,76,95
56712,note_on,,24,0,1,,,,,,,,,0,,,73,0
56724,note_on,,36,0,2,,,,,,,,,1,,,44,0
56724,note_on,,0,0,2,,,,,,,,,1,,,42,95
56736,note_on,,0,0,1,,,,,,,,,0,,,74,95
56736,note_on,,24,0,1,,,,,,,,,0,,,76,0
56736,note_on,,12,0,2,,,,,,,,,1,,,42,0
56736,note_on,,0,0,2,,,,,,,,,1,,,47,95
56784,note_on,,192,0,3,,,,,,,,,2,,,78,95
56784,note_on,,0,0,2,,,,,,,,,1,,,42,95
56784,note_on,,48,0,2,,,,,,,,,1,,,47,0
56832,note_on,,0,0,3,,,,,,,,,2,,,74,95
56832,note_on,,48,0,3,,,,,,,,,2,,,78,0
56832,note_on,,0,0,2,,,,,,,,,1,,,47,95
56832,note_on,,48,0,2,,,,,,,,,1,,,42,0
56880,note_on,,48,0,3,,,,,,,,,2,,,74,0
56880,note_on,,48,0,2,,,,,,,,,1,,,47,0
56880,note_on,,0,0,3,,,,,,,,,2,,,73,95
56880,note_on,,0,0,2,,,,,,,,,1,,,49,95
56916,note_on,,36,0,3,,,,,,,,,2,,,73,0
56916,note_on,,0,0,3,,,,,,,,,2,,,71,95
56916,note_on,,0,0,2,,,,,,,,,1,,,50,95
56916,note_on,,36,0,2,,,,,,,,,1,,,49,0
56928,note_on,,12,0,2,,,,,,,,,1,,,50,0
56928,note_on,,0,0,2,,,,,,,,,1,,,52,95
56928,note_on,,192,0,1,,,,,,,,,0,,,74,0
56928,note_on,,12,0,3,,,,,,,,,2,,,71,0
56928,note_on,,0,0,3,,,,,,,,,2,,,79,95
56976,note_on,,48,0,2,,,,,,,,,1,,,52,0
56976,note_on,,48,0,1,,,,,,,,,0,,,64,95
56976,note_on,,0,0,2,,,,,,,,,1,,,47,95
57000,note_on,,0,0,1,,,,,,,,,0,,,67,95
57000,note_on,,24,0,1,,,,,,,,,0,,,64,0
57024,note_on,,96,0,3,,,,,,,,,2,,,79,0
57024,note_on,,24,0,1,,,,,,,,,0,,,67,0
57024,note_on,,0,0,1,,,,,,,,,0,,,71,95
57024,note_on,,0,0,2,,,,,,,,,1,,,43,95
57024,note_on,,48,0,2,,,,,,,,,1,,,47,0
57048,note_on,,24,0,1,,,,,,,,,0,,,71,0
57048,note_on,,0,0,1,,,,,,,,,0,,,73,95
57072,note_on,,24,0,1,,,,,,,,,0,,,73,0
57072,note_on,,48,0,2,,,,,,,,,1,,,43,0
57072,note_on,,0,0,2,,,,,,,,,1,,,40,95
57072,note_on,,0,0,1,,,,,,,,,0,,,71,95
57096,note_on,,24,0,1,,,,,,,,,0,,,71,0
57096,note_on,,0,0,1,,,,,,,,,0,,,74,95
57120,note_on,,24,0,1,,,,,,,,,0,,,74,0
57120,note_on,,0,0,1,,,,,,,,,0,,,73,95
57120,note_on,,48,0,2,,,,,,,,,1,,,40,0
57120,note_on,,0,0,2,,,,,,,,,1,,,45,95
57168,note_on,,0,0,2,,,,,,,,,1,,,40,95
57168,note_on,,912,0,4,,,,,,,,,3,,,76,63
57168,note_on,,48,0,2,,,,,,,,,1,,,45,0
57216,note_on,,48,0,2,,,,,,,,,1,,,40,0
57216,note_on,,0,0,2,,,,,,,,,1,,,45,95
57216,note_on,,48,0,4,,,,,,,,,3,,,76,0
57216,note_on,,0,0,4,,,,,,,,,3,,,73,63
57264,note_on,,0,0,4,,,,,,,,,3,,,71,63
57264,note_on,,0,0,2,,,,,,,,,1,,,47,95
57264,note_on,,48,0,4,,,,,,,,,3,,,73,0
57264,note_on,,48,0,2,,,,,,,,,1,,,45,0
57300,note_on,,0,0,2,,,,,,,,,1,,,49,95
57300,note_on,,0,0,4,,,,,,,,,3,,,69,63
57300,note_on,,36,0,2,,,,,,,,,1,,,47,0
57300,note_on,,36,0,4,,,,,,,,,3,,,71,0
57312,note_on,,12,0,4,,,,,,,,,3,,,69,0
57312,note_on,,0,0,4,,,,,,,,,3,,,78,63
57312,note_on,,0,0,2,,,,,,,,,1,,,50,95
57312,note_on,,12,0,2,,,,,,,,,1,,,49,0
57312,note_on,,192,0,1,,,,,,,,,0,,,73,0
57360,note_on,,0,0,2,,,,,,,,,1,,,45,95
57360,note_on,,48,0,2,,,,,,,,,1,,,50,0
57360,note_on,,48,0,1,,,,,,,,,0,,,62,95
57384,note_on,,24,0,1,,,,,,,,,0,,,62,0
57384,note_on,,0,0,1,,,,,,,,,0,,,66,95
57408,note_on,,24,0,1,,,,,,,,,0,,,66,0
57408,note_on,,0,0,1,,,,,,,,,0,,,70,95
57408,note_on,,0,0,2,,,,,,,,,1,,,42,95
57408,note_on,,96,0,4,,,,,,,,,3,,,78,0
57408,note_on,,48,0,2,,,,,,,,,1,,,45,0
57432,note_on,,24,0,1,,,,,,,,,0,,,70,0
57432,note_on,,0,0,1,,,,,,,,,0,,,71,95
57456,note_on,,24,0,1,,,,,,,,,0,,,71,0
57456,note_on,,0,0,1,,,,,,,,,0,,,70,95
57456,note_on,,0,0,2,,,,,,,,,1,,,38,95
57456,note_on,,48,0,2,,,,,,,,,1,,,42,0
57480,note_on,,0,0,1,,,,,,,,,0,,,73,95
57480,note_on,,24,0,1,,,,,,,,,0,,,70,0
57504,note_on,,48,0,2,,,,,,,,,1,,,38,0
57504,note_on,,0,0,2,,,,,,,,,1,,,43,95
57504,note_on,,0,0,1,,,,,,,,,0,,,71,95
57504,note_on,,24,0,1,,,,,,,,,0,,,73,0
57552,note_on,,48,0,1,,,,,,,,,0,,,71,0
57552,note_on,,0,0,1,,,,,,,,,0,,,67,95
57576,note_on,,24,0,1,,,,,,,,,0,,,67,0
57576,note_on,,0,0,1,,,,,,,,,0,,,64,95
57600,note_on,,0,0,1,,,,,,,,,0,,,61,95
57600,note_on,,96,0,2,,,,,,,,,1,,,43,0
57600,note_on,,24,0,1,,,,,,,,,0,,,64,0
57624,note_on,,24,0,1,,,,,,,,,0,,,61,0
57624,note_on,,0,0,1,,,,,,,,,0,,,59,95
57648,note_on,,24,0,1,,,,,,,,,0,,,59,0
57648,note_on,,0,0,1,,,,,,,,,0,,,61,95
57648,note_on,,48,0,2,,,,,,,,,1,,,55,95
57672,note_on,,24,0,1,,,,,,,,,0,,,61,0
57672,note_on,,0,0,1,,,,,,,,,0,,,71,95
57672,note_on,,0,0,2,,,,,,,,,1,,,52,95
57672,note_on,,24,0,2,,,,,,,,,1,,,55,0
57696,note_on,,24,0,1,,,,,,,,,0,,,71,0
57696,note_on,,0,0,1,,,,,,,,,0,,,70,95
57696,note_on,,0,0,2,,,,,,,,,1,,,49,95
57696,note_on,,24,0,2,,,,,,,,,1,,,52,0
57720,note_on,,0,0,2,,,,,,,,,1,,,47,95
57720,note_on,,0,0,1,,,,,,,,,0,,,71,95
57720,note_on,,24,0,1,,,,,,,,,0,,,70,0
57720,note_on,,24,0,2,,,,,,,,,1,,,49,0
57744,note_on,,24,0,2,,,,,,,,,1,,,47,0
57744,note_on,,0,0,2,,,,,,,,,1,,,49,95
57744,note_on,,24,0,1,,,,,,,,,0,,,71,0
57744,note_on,,0,0,1,,,,,,,,,0,,,70,95
57768,note_on,,0,0,1,,,,,,,,,0,,,71,95
57768,note_on,,24,0,1,,,,,,,,,0,,,70,0
57768,note_on,,0,0,2,,,,,,,,,1,,,52,95
57768,note_on,,24,0,2,,,,,,,,,1,,,49,0
57792,note_on,,0,0,2,,,,,,,,,1,,,50,95
57792,note_on,,24,0,2,,,,,,,,,1,,,52,0
57792,note_on,,24,0,1,,,,,,,,,0,,,71,0
57792,note_on,,0,0,1,,,,,,,,,0,,,71,95
57816,note_on,,24,0,2,,,,,,,,,1,,,50,0
57816,note_on,,0,0,2,,,,,,,,,1,,,49,95
57840,note_on,,0,0,2,,,,,,,,,1,,,50,95
57840,note_on,,24,0,2,,,,,,,,,1,,,49,0
57864,note_on,,24,0,2,,,,,,,,,1,,,50,0
57864,note_on,,0,0,2,,,,,,,,,1,,,47,95
57864,note_on,,0,0,1,,,,,,,,,0,,,70,95
57864,note_on,,72,0,1,,,,,,,,,0,,,71,0
57876,note_on,,0,0,1,,,,,,,,,0,,,71,95
57876,note_on,,12,0,1,,,,,,,,,0,,,70,0
57888,note_on,,0,0,2,,,,,,,,,1,,,54,95
57888,note_on,,24,0,2,,,,,,,,,1,,,47,0
57888,note_on,,12,0,1,,,,,,,,,0,,,71,0
57888,note_on,,0,0,1,,,,,,,,,0,,,73,95
57936,note_on,,528,0,4,,,,,,,,,3,,,66,63
57936,note_on,,0,0,2,,,,,,,,,1,,,52,95
57936,note_on,,48,0,2,,,,,,,,,1,,,54,0
57936,note_on,,0,0,1,,,,,,,,,0,,,66,95
57936,note_on,,48,0,1,,,,,,,,,0,,,73,0
57984,note_on,,0,0,4,,,,,,,,,3,,,71,63
57984,note_on,,48,0,4,,,,,,,,,3,,,66,0
57984,note_on,,48,0,2,,,,,,,,,1,,,52,0
57984,note_on,,0,0,2,,,,,,,,,1,,,50,95
57984,note_on,,48,0,1,,,,,,,,,0,,,66,0
58032,note_on,,48,0,1,,,,,,,,,0,,,78,95
58032,note_on,,48,0,2,,,,,,,,,1,,,50,0
58032,note_on,,0,0,4,,,,,,,,,3,,,73,63
58032,note_on,,0,0,2,,,,,,,,,1,,,49,95
58032,note_on,,48,0,4,,,,,,,,,3,,,71,0
58068,note_on,,36,0,4,,,,,,,,,3,,,73,0
58068,note_on,,36,0,2,,,,,,,,,1,,,49,0
58068,note_on,,0,0,2,,,,,,,,,1,,,47,95
58068,note_on,,0,0,4,,,,,,,,,3,,,74,63
58080,note_on,,0,0,1,,,,,,,,,0,,,76,95
58080,note_on,,12,0,4,,,,,,,,,3,,,74,0
58080,note_on,,0,0,4,,,,,,,,,3,,,70,63
58080,note_on,,48,0,1,,,,,,,,,0,,,78,0
58080,note_on,,12,0,2,,,,,,,,,1,,,47,0
58080,note_on,,0,0,2,,,,,,,,,1,,,49,95
58104,note_on,,24,0,1,,,,,,,,,0,,,76,0
58104,note_on,,0,0,1,,,,,,,,,0,,,79,95
58128,note_on,,48,0,4,,,,,,,,,3,,,70,0
58128,note_on,,48,0,2,,,,,,,,,1,,,49,0
58128,note_on,,24,0,1,,,,,,,,,0,,,79,0
58128,note_on,,0,0,1,,,,,,,,,0,,,78,95
58128,note_on,,1104,0,3,,,,,,,,,2,,,66,95
58128,note_on,,0,0,4,,,,,,,,,3,,,71,63
58128,note_on,,0,0,2,,,,,,,,,1,,,42,95
58152,note_on,,24,0,1,,,,,,,,,0,,,78,0
58152,note_on,,0,0,1,,,,,,,,,0,,,76,95
58164,note_on,,36,0,4,,,,,,,,,3,,,71,0
58164,note_on,,0,0,4,,,,,,,,,3,,,73,63
58176,note_on,,48,0,3,,,,,,,,,2,,,66,0
58176,note_on,,0,0,1,,,,,,,,,0,,,74,95
58176,note_on,,24,0,1,,,,,,,,,0,,,76,0
58176,note_on,,12,0,4,,,,,,,,,3,,,73,0
58176,note_on,,0,0,4,,,,,,,,,3,,,74,63
58176,note_on,,48,0,2,,,,,,,,,1,,,42,0
58176,note_on,,0,0,3,,,,,,,,,2,,,71,95
58200,note_on,,24,0,1,,,,,,,,,0,,,74,0
58200,note_on,,0,0,1,,,,,,,,,0,,,73,95
58224,note_on,,0,0,4,,,,,,,,,3,,,76,63
58224,note_on,,48,0,4,,,,,,,,,3,,,74,0
58224,note_on,,0,0,3,,,,,,,,,2,,,73,95
58224,note_on,,48,0,3,,,,,,,,,2,,,71,0
58224,note_on,,0,0,1,,,,,,,,,0,,,70,95
58224,note_on,,24,0,1,,,,,,,,,0,,,73,0
58224,note_on,,48,0,2,,,,,,,,,1,,,47,95
58248,note_on,,0,0,1,,,,,,,,,0,,,71,95
58248,note_on,,24,0,1,,,,,,,,,0,,,70,0
58260,note_on,,0,0,4,,,,,,,,,3,,,78,63
58260,note_on,,36,0,4,,,,,,,,,3,,,76,0
58260,note_on,,36,0,3,,,,,,,,,2,,,73,0
58260,note_on,,0,0,3,,,,,,,,,2,,,74,95
58272,note_on,,0,0,3,,,,,,,,,2,,,70,95
58272,note_on,,0,0,2,,,,,,,,,1,,,52,95
58272,note_on,,12,0,3,,,,,,,,,2,,,74,0
58272,note_on,,12,0,4,,,,,,,,,3,,,78,0
58272,note_on,,0,0,1,,,,,,,,,0,,,79,95
58272,note_on,,24,0,1,,,,,,,,,0,,,71,0
58272,note_on,,48,0,2,,,,,,,,,1,,,47,0
58272,note_on,,0,0,4,,,,,,,,,3,,,73,63
58320,note_on,,48,0,2,,,,,,,,,1,,,52,0
58320,note_on,,0,0,2,,,,,,,,,1,,,54,95
58356,note_on,,36,0,2,,,,,,,,,1,,,54,0
58356,note_on,,0,0,2,,,,,,,,,1,,,55,95
58368,note_on,,96,0,3,,,,,,,,,2,,,70,0
58368,note_on,,96,0,4,,,,,,,,,3,,,73,0
58368,note_on,,0,0,2,,,,,,,,,1,,,46,95
58368,note_on,,12,0,2,,,,,,,,,1,,,55,0
58392,note_on,,120,0,1,,,,,,,,,0,,,76,95
58416,note_on,,48,0,2,,,,,,,,,1,,,46,0
58416,note_on,,0,0,1,,,,,,,,,0,,,79,0
58416,note_on,,0,0,2,,,,,,,,,1,,,42,95
58416,note_on,,24,0,1,,,,,,,,,0,,,76,0
58416,note_on,,0,0,1,,,,,,,,,0,,,82,95
58440,note_on,,24,0,1,,,,,,,,,0,,,82,0
58440,note_on,,0,0,1,,,,,,,,,0,,,83,95
58464,note_on,,24,0,1,,,,,,,,,0,,,83,0
58464,note_on,,0,0,2,,,,,,,,,1,,,47,95
58464,note_on,,48,0,2,,,,,,,,,1,,,42,0
58464,note_on,,0,0,1,,,,,,,,,0,,,74,95
58488,note_on,,0,0,2,,,,,,,,,1,,,49,95
58488,note_on,,24,0,2,,,,,,,,,1,,,47,0
58488,note_on,,0,0,1,,,,,,,,,0,,,77,95
58488,note_on,,24,0,1,,,,,,,,,0,,,74,0
58512,note_on,,0,0,1,,,,,,,,,0,,,78,95
58512,note_on,,24,0,1,,,,,,,,,0,,,77,0
58512,note_on,,0,0,2,,,,,,,,,1,,,50,95
58512,note_on,,24,0,2,,,,,,,,,1,,,49,0
58536,note_on,,0,0,2,,,,,,,,,1,,,52,95
58536,note_on,,24,0,2,,,,,,,,,1,,,50,0
58536,note_on,,24,0,1,,,,,,,,,0,,,78,0
58536,note_on,,0,0,1,,,,,,,,,0,,,71,95
58560,note_on,,24,0,2,,,,,,,,,1,,,52,0
58560,note_on,,0,0,2,,,,,,,,,1,,,54,95
58560,note_on,,24,0,1,,,,,,,,,0,,,71,0
58560,note_on,,0,0,1,,,,,,,,,0,,,74,95
58566,note_on,,6,0,1,,,,,,,,,0,,,74,0
58566,note_on,,0,0,1,,,,,,,,,0,,,76,95
58572,note_on,,6,0,1,,,,,,,,,0,,,76,0
58572,note_on,,0,0,1,,,,,,,,,0,,,74,95
58578,note_on,,0,0,1,,,,,,,,,0,,,76,95
58578,note_on,,6,0,1,,,,,,,,,0,,,74,0
58584,note_on,,6,0,1,,,,,,,,,0,,,76,0
58584,note_on,,0,0,1,,,,,,,,,0,,,74,95
58590,note_on,,6,0,1,,,,,,,,,0,,,74,0
58590,note_on,,0,0,1,,,,,,,,,0,,,76,95
58596,note_on,,6,0,1,,,,,,,,,0,,,76,0
58596,note_on,,0,0,1,,,,,,,,,0,,,74,95
58602,note_on,,6,0,1,,,,,,,,,0,,,74,0
58602,note_on,,0,0,1,,,,,,,,,0,,,76,95
58608,note_on,,0,0,1,,,,,,,,,0,,,73,95
58608,note_on,,6,0,1,,,,,,,,,0,,,76,0
58608,note_on,,0,0,2,,,,,,,,,1,,,42,95
58608,note_on,,48,0,2,,,,,,,,,1,,,54,0
58620,note_on,,12,0,1,,,,,,,,,0,,,73,0
58620,note_on,,0,0,1,,,,,,,,,0,,,71,95
58632,note_on,,0,0,1,,,,,,,,,0,,,73,95
58632,note_on,,12,0,1,,,,,,,,,0,,,71,0
58656,note_on,,0,0,1,,,,,,,,,0,,,71,95
58656,note_on,,0,0,2,,,,,,,,,1,,,47,95
58656,note_on,,48,0,2,,,,,,,,,1,,,42,0
58656,note_on,,24,0,1,,,,,,,,,0,,,73,0
58704,note_on,,336,0,3,,,,,,,,,2,,,78,95
58704,note_on,,336,0,4,,,,,,,,,3,,,78,63
58704,note_on,,48,0,2,,,,,,,,,1,,,47,0
58704,note_on,,0,0,2,,,,,,,,,1,,,47,95
58728,note_on,,24,0,3,,,,,,,,,2,,,78,0
58728,note_on,,0,0,3,,,,,,,,,2,,,74,95
58728,note_on,,0,0,4,,,,,,,,,3,,,71,63
58728,note_on,,24,0,4,,,,,,,,,3,,,78,0
58740,note_on,,0,0,2,,,,,,,,,1,,,49,95
58740,note_on,,36,0,2,,,,,,,,,1,,,47,0
58752,note_on,,12,0,2,,,,,,,,,1,,,49,0
58752,note_on,,96,0,1,,,,,,,,,0,,,71,0
58752,note_on,,0,0,2,,,,,,,,,1,,,50,95
58752,note_on,,0,0,3,,,,,,,,,2,,,71,95
58752,note_on,,24,0,3,,,,,,,,,2,,,74,0
58752,note_on,,0,0,4,,,,,,,,,3,,,68,63
58752,note_on,,24,0,4,,,,,,,,,3,,,71,0
58776,note_on,,0,0,3,,,,,,,,,2,,,70,95
58776,note_on,,0,0,4,,,,,,,,,3,,,66,63
58776,note_on,,24,0,4,,,,,,,,,3,,,68,0
58776,note_on,,24,0,3,,,,,,,,,2,,,71,0
58800,note_on,,48,0,2,,,,,,,,,1,,,50,0
58800,note_on,,0,0,2,,,,,,,,,1,,,49,95
58800,note_on,,24,0,3,,,,,,,,,2,,,70,0
58800,note_on,,0,0,3,,,,,,,,,2,,,71,95
58800,note_on,,0,0,4,,,,,,,,,3,,,68,63
58800,note_on,,24,0,4,,,,,,,,,3,,,66,0
58824,note_on,,0,0,3,,,,,,,,,2,,,68,95
58824,note_on,,0,0,4,,,,,,,,,3,,,65,63
58824,note_on,,24,0,3,,,,,,,,,2,,,71,0
58824,note_on,,24,0,4,,,,,,,,,3,,,68,0
58836,note_on,,0,0,2,,,,,,,,,1,,,47,95
58836,note_on,,36,0,2,,,,,,,,,1,,,49,0
58848,note_on,,0,0,4,,,,,,,,,3,,,66,63
58848,note_on,,24,0,3,,,,,,,,,2,,,68,0
58848,note_on,,24,0,4,,,,,,,,,3,,,65,0
58848,note_on,,12,0,2,,,,,,,,,1,,,47,0
58848,note_on,,0,0,2,,,,,,,,,1,,,54,95
58848,note_on,,0,0,3,,,,,,,,,2,,,70,95
58896,note_on,,0,0,2,,,,,,,,,1,,,42,95
58896,note_on,,48,0,2,,,,,,,,,1,,,54,0
58896,note_on,,144,0,1,,,,,,,,,0,,,61,95
58920,note_on,,24,0,1,,,,,,,,,0,,,61,0
58920,note_on,,0,0,1,,,,,,,,,0,,,64,95
58944,note_on,,48,0,2,,,,,,,,,1,,,42,0
58944,note_on,,24,0,1,,,,,,,,,0,,,64,0
58944,note_on,,96,0,3,,,,,,,,,2,,,70,0
58944,note_on,,0,0,1,,,,,,,,,0,,,70,95
58944,note_on,,96,0,4,,,,,,,,,3,,,66,0
58968,note_on,,0,0,1,,,,,,,,,0,,,71,95
58968,note_on,,24,0,1,,,,,,,,,0,,,70,0
58992,note_on,,0,0,1,,,,,,,,,0,,,70,95
58992,note_on,,24,0,1,,,,,,,,,0,,,71,0
59016,note_on,,0,0,1,,,,,,,,,0,,,73,95
59016,note_on,,24,0,1,,,,,,,,,0,,,70,0
59040,note_on,,0,0,1,,,,,,,,,0,,,62,95
59040,note_on,,24,0,1,,,,,,,,,0,,,73,0
59088,note_on,,144,0,4,,,,,,,,,3,,,78,63
59088,note_on,,144,0,3,,,,,,,,,2,,,86,95
59088,note_on,,144,0,2,,,,,,,,,1,,,47,95
59112,note_on,,24,0,3,,,,,,,,,2,,,86,0
59112,note_on,,24,0,4,,,,,,,,,3,,,78,0
59112,note_on,,0,0,3,,,,,,,,,2,,,83,95
59112,note_on,,0,0,4,,,,,,,,,3,,,74,63
59124,note_on,,36,0,2,,,,,,,,,1,,,47,0
59124,note_on,,0,0,2,,,,,,,,,1,,,49,95
59136,note_on,,0,0,4,,,,,,,,,3,,,71,63
59136,note_on,,24,0,4,,,,,,,,,3,,,74,0
59136,note_on,,12,0,2,,,,,,,,,1,,,49,0
59136,note_on,,0,0,3,,,,,,,,,2,,,80,95
59136,note_on,,24,0,3,,,,,,,,,2,,,83,0
59136,note_on,,0,0,2,,,,,,,,,1,,,50,95
59136,note_on,,96,0,1,,,,,,,,,0,,,62,0
59160,note_on,,0,0,4,,,,,,,,,3,,,70,63
59160,note_on,,24,0,4,,,,,,,,,3,,,71,0
59160,note_on,,24,0,3,,,,,,,,,2,,,80,0
59160,note_on,,0,0,3,,,,,,,,,2,,,78,95
59184,note_on,,0,0,2,,,,,,,,,1,,,49,95
59184,note_on,,48,0,2,,,,,,,,,1,,,50,0
59184,note_on,,24,0,4,,,,,,,,,3,,,70,0
59184,note_on,,24,0,3,,,,,,,,,2,,,78,0
59184,note_on,,0,0,4,,,,,,,,,3,,,71,63
59184,note_on,,0,0,3,,,,,,,,,2,,,80,95
59208,note_on,,0,0,3,,,,,,,,,2,,,77,95
59208,note_on,,24,0,4,,,,,,,,,3,,,71,0
59208,note_on,,0,0,4,,,,,,,,,3,,,70,63
59208,note_on,,24,0,3,,,,,,,,,2,,,80,0
59220,note_on,,0,0,2,,,,,,,,,1,,,47,95
59220,note_on,,36,0,2,,,,,,,,,1,,,49,0
59232,note_on,,0,0,4,,,,,,,,,3,,,70,63
59232,note_on,,24,0,4,,,,,,,,,3,,,70,0
59232,note_on,,0,0,3,,,,,,,,,2,,,78,95
59232,note_on,,0,0,2,,,,,,,,,1,,,54,95
59232,note_on,,12,0,2,,,,,,,,,1,,,47,0
59232,note_on,,24,0,3,,,,,,,,,2,,,77,0
59280,note_on,,0,0,2,,,,,,,,,1,,,42,95
59280,note_on,,48,0,2,,,,,,,,,1,,,54,0
59280,note_on,,144,0,1,,,,,,,,,0,,,61,95
59304,note_on,,0,0,1,,,,,,,,,0,,,64,95
59304,note_on,,24,0,1,,,,,,,,,0,,,61,0
59328,note_on,,96,0,4,,,,,,,,,3,,,70,0
59328,note_on,,48,0,2,,,,,,,,,1,,,42,0
59328,note_on,,24,0,1,,,,,,,,,0,,,64,0
59328,note_on,,96,0,3,,,,,,,,,2,,,78,0
59328,note_on,,0,0,1,,,,,,,,,0,,,70,95
59352,note_on,,24,0,1,,,,,,,,,0,,,70,0
59352,note_on,,0,0,1,,,,,,,,,0,,,71,95
59376,note_on,,24,0,1,,,,,,,,,0,,,71,0
59376,note_on,,0,0,1,,,,,,,,,0,,,70,95
59376,note_on,,48,0,2,,,,,,,,,1,,,54,95
59400,note_on,,24,0,1,,,,,,,,,0,,,70,0
59400,note_on,,0,0,1,,,,,,,,,0,,,73,95
59424,note_on,,0,0,2,,,,,,,,,1,,,59,95
59424,note_on,,48,0,2,,,,,,,,,1,,,54,0
59424,note_on,,24,0,1,,,,,,,,,0,,,73,0
59424,note_on,,0,0,1,,,,,,,,,0,,,62,95
59448,note_on,,24,0,1,,,,,,,,,0,,,62,0
59448,note_on,,0,0,1,,,,,,,,,0,,,61,95
59472,note_on,,0,0,2,,,,,,,,,1,,,47,95
59472,note_on,,24,0,1,,,,,,,,,0,,,61,0
59472,note_on,,0,0,1,,,,,,,,,0,,,62,95
59472,note_on,,48,0,2,,,,,,,,,1,,,59,0
59496,note_on,,24,0,1,,,,,,,,,0,,,62,0
59496,note_on,,0,0,1,,,,,,,,,0,,,66,95
59508,note_on,,36,0,2,,,,,,,,,1,,,47,0
59508,note_on,,0,0,2,,,,,,,,,1,,,49,95
59520,note_on,,0,0,1,,,,,,,,,0,,,71,95
59520,note_on,,24,0,1,,,,,,,,,0,,,66,0
59520,note_on,,0,0,2,,,,,,,,,1,,,50,95
59520,note_on,,12,0,2,,,,,,,,,1,,,49,0
59544,note_on,,0,0,1,,,,,,,,,0,,,73,95
59544,note_on,,24,0,1,,,,,,,,,0,,,71,0
59568,note_on,,0,0,2,,,,,,,,,1,,,49,95
59568,note_on,,48,0,2,,,,,,,,,1,,,50,0
59568,note_on,,0,0,1,,,,,,,,,0,,,71,95
59568,note_on,,24,0,1,,,,,,,,,0,,,73,0
59592,note_on,,24,0,1,,,,,,,,,0,,,71,0
59592,note_on,,0,0,1,,,,,,,,,0,,,74,95
59604,note_on,,36,0,2,,,,,,,,,1,,,49,0
59604,note_on,,0,0,2,,,,,,,,,1,,,47,95
59616,note_on,,0,0,2,,,,,,,,,1,,,55,95
59616,note_on,,24,0,1,,,,,,,,,0,,,74,0
59616,note_on,,0,0,1,,,,,,,,,0,,,64,95
59616,note_on,,12,0,2,,,,,,,,,1,,,47,0
59640,note_on,,24,0,1,,,,,,,,,0,,,64,0
59640,note_on,,0,0,1,,,,,,,,,0,,,62,95
59664,note_on,,24,0,1,,,,,,,,,0,,,62,0
59664,note_on,,0,0,1,,,,,,,,,0,,,64,95
59688,note_on,,24,0,1,,,,,,,,,0,,,64,0
59688,note_on,,0,0,1,,,,,,,,,0,,,67,95
59688,note_on,,72,0,2,,,,,,,,,1,,,55,0
59688,note_on,,0,0,2,,,,,,,,,1,,,54,95
59712,note_on,,24,0,1,,,,,,,,,0,,,67,0
59712,note_on,,0,0,1,,,,,,,,,0,,,73,95
59712,note_on,,24,0,2,,,,,,,,,1,,,54,0
59712,note_on,,0,0,2,,,,,,,,,1,,,52,95
59736,note_on,,0,0,2,,,,,,,,,1,,,50,95
59736,note_on,,24,0,1,,,,,,,,,0,,,73,0
59736,note_on,,24,0,2,,,,,,,,,1,,,52,0
59736,note_on,,0,0,1,,,,,,,,,0,,,74,95
59760,note_on,,0,0,2,,,,,,,,,1,,,52,95
59760,note_on,,24,0,2,,,,,,,,,1,,,50,0
59760,note_on,,24,0,1,,,,,,,,,0,,,74,0
59760,note_on,,0,0,1,,,,,,,,,0,,,73,95
59784,note_on,,24,0,1,,,,,,,,,0,,,73,0
59784,note_on,,0,0,1,,,,,,,,,0,,,76,95
59784,note_on,,24,0,2,,,,,,,,,1,,,52,0
59784,note_on,,0,0,2,,,,,,,,,1,,,49,95
59808,note_on,,0,0,2,,,,,,,,,1,,,54,95
59808,note_on,,24,0,1,,,,,,,,,0,,,76,0
59808,note_on,,0,0,1,,,,,,,,,0,,,76,95
59808,note_on,,24,0,2,,,,,,,,,1,,,49,0
59856,note_on,,48,0,1,,,,,,,,,0,,,76,0
59856,note_on,,0,0,1,,,,,,,,,0,,,70,95
59856,note_on,,528,0,3,,,,,,,,,2,,,85,95
59856,note_on,,528,0,4,,,,,,,,,3,,,76,63
59862,note_on,,0,0,1,,,,,,,,,0,,,71,95
59862,note_on,,6,0,1,,,,,,,,,0,,,70,0
59868,note_on,,0,0,1,,,,,,,,,0,,,70,95
59868,note_on,,6,0,1,,,,,,,,,0,,,71,0
59874,note_on,,0,0,1,,,,,,,,,0,,,71,95
59874,note_on,,6,0,1,,,,,,,,,0,,,70,0
59880,note_on,,0,0,4,,,,,,,,,3,,,73,63
59880,note_on,,24,0,4,,,,,,,,,3,,,76,0
59880,note_on,,0,0,3,,,,,,,,,2,,,82,95
59880,note_on,,0,0,1,,,,,,,,,0,,,70,95
59880,note_on,,6,0,1,,,,,,,,,0,,,71,0
59880,note_on,,24,0,3,,,,,,,,,2,,,85,0
59886,note_on,,0,0,1,,,,,,,,,0,,,71,95
59886,note_on,,6,0,1,,,,,,,,,0,,,70,0
59892,note_on,,0,0,1,,,,,,,,,0,,,70,95
59892,note_on,,6,0,1,,,,,,,,,0,,,71,0
59898,note_on,,0,0,1,,,,,,,,,0,,,71,95
59898,note_on,,6,0,1,,,,,,,,,0,,,70,0
59904,note_on,,6,0,1,,,,,,,,,0,,,71,0
59904,note_on,,24,0,4,,,,,,,,,3,,,73,0
59904,note_on,,0,0,4,,,,,,,,,3,,,67,63
59904,note_on,,24,0,3,,,,,,,,,2,,,82,0
59904,note_on,,0,0,3,,,,,,,,,2,,,76,95
59928,note_on,,24,0,4,,,,,,,,,3,,,67,0
59928,note_on,,0,0,3,,,,,,,,,2,,,74,95
59928,note_on,,0,0,4,,,,,,,,,3,,,66,63
59928,note_on,,24,0,3,,,,,,,,,2,,,76,0
59952,note_on,,0,0,3,,,,,,,,,2,,,76,95
59952,note_on,,24,0,3,,,,,,,,,2,,,74,0
59952,note_on,,24,0,4,,,,,,,,,3,,,66,0
59952,note_on,,0,0,4,,,,,,,,,3,,,67,63
59952,note_on,,48,0,1,,,,,,,,,0,,,73,95
59976,note_on,,0,0,3,,,,,,,,,2,,,73,95
59976,note_on,,24,0,3,,,,,,,,,2,,,76,0
59976,note_on,,24,0,4,,,,,,,,,3,,,67,0
59976,note_on,,0,0,4,,,,,,,,,3,,,64,63
60000,note_on,,48,0,1,,,,,,,,,0,,,73,0
60000,note_on,,0,0,1,,,,,,,,,0,,,73,95
60000,note_on,,192,0,2,,,,,,,,,1,,,54,0
60000,note_on,,24,0,3,,,,,,,,,2,,,73,0
60000,note_on,,0,0,4,,,,,,,,,3,,,66,63
60000,note_on,,24,0,4,,,,,,,,,3,,,64,0
60000,note_on,,0,0,3,,,,,,,,,2,,,74,95
60000,note_on,,0,0,2,,,,,,,,,1,,,54,95
60024,note_on,,24,0,1,,,,,,,,,0,,,73,0
60024,note_on,,0,0,1,,,,,,,,,0,,,70,95
60048,note_on,,48,0,4,,,,,,,,,3,,,66,0
60048,note_on,,0,0,4,,,,,,,,,3,,,78,63
60048,note_on,,24,0,1,,,,,,,,,0,,,70,0
60048,note_on,,0,0,1,,,,,,,,,0,,,71,95
60048,note_on,,0,0,3,,,,,,,,,2,,,86,95
60048,note_on,,48,0,3,,,,,,,,,2,,,74,0
60072,note_on,,0,0,4,,,,,,,,,3,,,74,63
60072,note_on,,0,0,3,,,,,,,,,2,,,83,95
60072,note_on,,24,0,3,,,,,,,,,2,,,86,0
60072,note_on,,24,0,4,,,,,,,,,3,,,78,0
60096,note_on,,0,0,3,,,,,,,,,2,,,78,95
60096,note_on,,24,0,3,,,,,,,,,2,,,83,0
60096,note_on,,48,0,1,,,,,,,,,0,,,71,0
60096,note_on,,0,0,4,,,,,,,,,3,,,69,63
60096,note_on,,24,0,4,,,,,,,,,3,,,74,0
60120,note_on,,24,0,3,,,,,,,,,2,,,78,0
60120,note_on,,0,0,4,,,,,,,,,3,,,67,63
60120,note_on,,24,0,4,,,,,,,,,3,,,69,0
60120,note_on,,0,0,3,,,,,,,,,2,,,76,95
60144,note_on,,0,0,3,,,,,,,,,2,,,78,95
60144,note_on,,48,0,1,,,,,,,,,0,,,74,95
60144,note_on,,24,0,4,,,,,,,,,3,,,67,0
60144,note_on,,24,0,3,,,,,,,,,2,,,76,0
60144,note_on,,0,0,4,,,,,,,,,3,,,69,63
60168,note_on,,24,0,4,,,,,,,,,3,,,69,0
60168,note_on,,24,0,3,,,,,,,,,2,,,78,0
60168,note_on,,0,0,3,,,,,,,,,2,,,74,95
60168,note_on,,0,0,4,,,,,,,,,3,,,66,63
60192,note_on,,0,0,1,,,,,,,,,0,,,74,95
60192,note_on,,0,0,2,,,,,,,,,1,,,54,95
60192,note_on,,192,0,2,,,,,,,,,1,,,54,0
60192,note_on,,48,0,1,,,,,,,,,0,,,74,0
60192,note_on,,24,0,4,,,,,,,,,3,,,66,0
60192,note_on,,0,0,4,,,,,,,,,3,,,67,63
60192,note_on,,0,0,3,,,,,,,,,2,,,76,95
60192,note_on,,24,0,3,,,,,,,,,2,,,74,0
60216,note_on,,0,0,1,,,,,,,,,0,,,71,95
60216,note_on,,24,0,1,,,,,,,,,0,,,74,0
60240,note_on,,0,0,2,,,,,,,,,1,,,52,95
60240,note_on,,48,0,2,,,,,,,,,1,,,54,0
60240,note_on,,48,0,3,,,,,,,,,2,,,76,0
60240,note_on,,0,0,3,,,,,,,,,2,,,79,95
60240,note_on,,0,0,4,,,,,,,,,3,,,73,63
60240,note_on,,0,0,1,,,,,,,,,0,,,73,95
60240,note_on,,24,0,1,,,,,,,,,0,,,71,0
60240,note_on,,48,0,4,,,,,,,,,3,,,67,0
60264,note_on,,0,0,4,,,,,,,,,3,,,70,63
60264,note_on,,24,0,4,,,,,,,,,3,,,73,0
60264,note_on,,24,0,2,,,,,,,,,1,,,52,0
60264,note_on,,0,0,2,,,,,,,,,1,,,49,95
60264,note_on,,24,0,3,,,,,,,,,2,,,79,0
60264,note_on,,0,0,3,,,,,,,,,2,,,76,95
60288,note_on,,24,0,2,,,,,,,,,1,,,49,0
60288,note_on,,0,0,4,,,,,,,,,3,,,64,63
60288,note_on,,24,0,4,,,,,,,,,3,,,70,0
60288,note_on,,0,0,2,,,,,,,,,1,,,46,95
60288,note_on,,48,0,1,,,,,,,,,0,,,73,0
60288,note_on,,0,0,3,,,,,,,,,2,,,73,95
60288,note_on,,24,0,3,,,,,,,,,2,,,76,0
60312,note_on,,24,0,4,,,,,,,,,3,,,64,0
60312,note_on,,0,0,4,,,,,,,,,3,,,62,63
60312,note_on,,24,0,3,,,,,,,,,2,,,73,0
60312,note_on,,0,0,3,,,,,,,,,2,,,71,95
60336,note_on,,48,0,2,,,,,,,,,1,,,46,0
60336,note_on,,0,0,3,,,,,,,,,2,,,73,95
60336,note_on,,0,0,4,,,,,,,,,3,,,64,63
60336,note_on,,24,0,4,,,,,,,,,3,,,62,0
60336,note_on,,24,0,3,,,,,,,,,2,,,71,0
60336,note_on,,48,0,1,,,,,,,,,0,,,76,95
60336,note_on,,0,0,2,,,,,,,,,1,,,44,95
60360,note_on,,24,0,4,,,,,,,,,3,,,64,0
60360,note_on,,0,0,4,,,,,,,,,3,,,61,63
60360,note_on,,24,0,3,,,,,,,,,2,,,73,0
60360,note_on,,0,0,3,,,,,,,,,2,,,70,95
60372,note_on,,36,0,2,,,,,,,,,1,,,44,0
60372,note_on,,0,0,2,,,,,,,,,1,,,42,95
60384,note_on,,24,0,4,,,,,,,,,3,,,61,0
60384,note_on,,0,0,4,,,,,,,,,3,,,62,63
60384,note_on,,0,0,1,,,,,,,,,0,,,67,95
60384,note_on,,0,0,3,,,,,,,,,2,,,71,95
60384,note_on,,48,0,1,,,,,,,,,0,,,76,0
60384,note_on,,24,0,3,,,,,,,,,2,,,70,0
60384,note_on,,12,0,2,,,,,,,,,1,,,42,0
60384,note_on,,0,0,2,,,,,,,,,1,,,47,95
60408,note_on,,0,0,1,,,,,,,,,0,,,64,95
60408,note_on,,24,0,1,,,,,,,,,0,,,67,0
60432,note_on,,48,0,2,,,,,,,,,1,,,47,0
60432,note_on,,0,0,2,,,,,,,,,1,,,50,95
60432,note_on,,48,0,4,,,,,,,,,3,,,62,0
60432,note_on,,0,0,1,,,,,,,,,0,,,66,95
60432,note_on,,24,0,1,,,,,,,,,0,,,64,0
60432,note_on,,48,0,3,,,,,,,,,2,,,71,0
60456,note_on,,0,0,1,,,,,,,,,0,,,74,95
60456,note_on,,24,0,1,,,,,,,,,0,,,66,0
60468,note_on,,0,0,2,,,,,,,,,1,,,52,95
60468,note_on,,36,0,2,,,,,,,,,1,,,50,0
60480,note_on,,0,0,2,,,,,,,,,1,,,54,95
60480,note_on,,12,0,2,,,,,,,,,1,,,52,0
60480,note_on,,0,0,1,,,,,,,,,0,,,73,95
60480,note_on,,24,0,1,,,,,,,,,0,,,74,0
60504,note_on,,0,0,1,,,,,,,,,0,,,71,95
60504,note_on,,24,0,1,,,,,,,,,0,,,73,0
60528,note_on,,0,0,2,,,,,,,,,1,,,42,95
60528,note_on,,0,0,1,,,,,,,,,0,,,73,95
60528,note_on,,24,0,1,,,,,,,,,0,,,71,0
60528,note_on,,48,0,2,,,,,,,,,1,,,54,0
60552,note_on,,24,0,1,,,,,,,,,0,,,73,0
60552,note_on,,0,0,1,,,,,,,,,0,,,70,95
60576,note_on,,0,0,1,,,,,,,,,0,,,71,95
60576,note_on,,24,0,1,,,,,,,,,0,,,70,0
60576,note_on,,48,0,2,,,,,,,,,1,,,42,0
60576,note_on,,0,0,2,,,,,,,,,1,,,47,95
60624,note_on,,48,0,2,,,,,,,,,1,,,47,0
60624,note_on,,192,0,4,,,,,,,,,3,,,66,95
60624,note_on,,0,0,2,,,,,,,,,1,,,59,95
60648,note_on,,24,0,2,,,,,,,,,1,,,59,0
60648,note_on,,0,0,2,,,,,,,,,1,,,57,95
60672,note_on,,48,0,4,,,,,,,,,3,,,66,0
60672,note_on,,96,0,1,,,,,,,,,0,,,71,0
60672,note_on,,24,0,2,,,,,,,,,1,,,57,0
60672,note_on,,0,0,2,,,,,,,,,1,,,55,95
60672,note_on,,0,0,4,,,,,,,,,3,,,71,95
60720,note_on,,48,0,2,,,,,,,,,1,,,55,0
60720,note_on,,0,0,4,,,,,,,,,3,,,73,95
60720,note_on,,48,0,4,,,,,,,,,3,,,71,0
60720,note_on,,0,0,2,,,,,,,,,1,,,52,95
60756,note_on,,36,0,4,,,,,,,,,3,,,73,0
60756,note_on,,0,0,4,,,,,,,,,3,,,74,95
60768,note_on,,48,0,2,,,,,,,,,1,,,52,0
60768,note_on,,0,0,4,,,,,,,,,3,,,70,95
60768,note_on,,12,0,4,,,,,,,,,3,,,74,0
60768,note_on,,0,0,2,,,,,,,,,1,,,54,95
60816,note_on,,0,0,2,,,,,,,,,1,,,52,95
60816,note_on,,48,0,2,,,,,,,,,1,,,54,0
60816,note_on,,384,0,3,,,,,,,,,2,,,66,95
60816,note_on,,0,0,4,,,,,,,,,3,,,71,95
60816,note_on,,48,0,4,,,,,,,,,3,,,70,0
60852,note_on,,0,0,4,,,,,,,,,3,,,73,95
60852,note_on,,36,0,4,,,,,,,,,3,,,71,0
60864,note_on,,0,0,3,,,,,,,,,2,,,71,95
60864,note_on,,12,0,4,,,,,,,,,3,,,73,0
60864,note_on,,0,0,4,,,,,,,,,3,,,74,95
60864,note_on,,48,0,3,,,,,,,,,2,,,66,0
60864,note_on,,0,0,2,,,,,,,,,1,,,50,95
60864,note_on,,48,0,2,,,,,,,,,1,,,52,0
60912,note_on,,48,0,3,,,,,,,,,2,,,71,0
60912,note_on,,48,0,2,,,,,,,,,1,,,50,0
60912,note_on,,0,0,3,,,,,,,,,2,,,73,95
60912,note_on,,0,0,2,,,,,,,,,1,,,49,95
60912,note_on,,0,0,4,,,,,,,,,3,,,76,95
60912,note_on,,48,0,4,,,,,,,,,3,,,74,0
60948,note_on,,36,0,3,,,,,,,,,2,,,73,0
60948,note_on,,36,0,2,,,,,,,,,1,,,49,0
60948,note_on,,36,0,4,,,,,,,,,3,,,76,0
60948,note_on,,0,0,4,,,,,,,,,3,,,78,95
60948,note_on,,0,0,3,,,,,,,,,2,,,74,95
60948,note_on,,0,0,2,,,,,,,,,1,,,47,95
60960,note_on,,12,0,2,,,,,,,,,1,,,47,0
60960,note_on,,0,0,2,,,,,,,,,1,,,54,95
60960,note_on,,0,0,4,,,,,,,,,3,,,73,95
60960,note_on,,0,0,3,,,,,,,,,2,,,70,95
60960,note_on,,12,0,4,,,,,,,,,3,,,78,0
60960,note_on,,12,0,3,,,,,,,,,2,,,74,0
61008,note_on,,0,0,4,,,,,,,,,3,,,66,95
61008,note_on,,48,0,2,,,,,,,,,1,,,54,0
61008,note_on,,48,0,4,,,,,,,,,3,,,73,0
61008,note_on,,0,0,2,,,,,,,,,1,,,56,95
61008,note_on,,0,0,3,,,,,,,,,2,,,71,95
61008,note_on,,48,0,3,,,,,,,,,2,,,70,0
61044,note_on,,0,0,2,,,,,,,,,1,,,58,95
61044,note_on,,36,0,2,,,,,,,,,1,,,56,0
61044,note_on,,0,0,3,,,,,,,,,2,,,73,95
61044,note_on,,36,0,3,,,,,,,,,2,,,71,0
61056,note_on,,0,0,2,,,,,,,,,1,,,59,95
61056,note_on,,12,0,2,,,,,,,,,1,,,58,0
61056,note_on,,48,0,4,,,,,,,,,3,,,66,0
61056,note_on,,12,0,3,,,,,,,,,2,,,73,0
61056,note_on,,0,0,4,,,,,,,,,3,,,78,95
61056,note_on,,0,0,3,,,,,,,,,2,,,74,95
61104,note_on,,48,0,2,,,,,,,,,1,,,59,0
61104,note_on,,48,0,3,,,,,,,,,2,,,74,0
61104,note_on,,0,0,3,,,,,,,,,2,,,76,95
61104,note_on,,0,0,2,,,,,,,,,1,,,61,95
61140,note_on,,0,0,2,,,,,,,,,1,,,62,95
61140,note_on,,36,0,2,,,,,,,,,1,,,61,0
61140,note_on,,36,0,3,,,,,,,,,2,,,76,0
61140,note_on,,0,0,3,,,,,,,,,2,,,78,95
61152,note_on,,0,0,2,,,,,,,,,1,,,52,95
61152,note_on,,0,0,3,,,,,,,,,2,,,79,95
61152,note_on,,12,0,2,,,,,,,,,1,,,62,0
61152,note_on,,12,0,3,,,,,,,,,2,,,78,0
61200,note_on,,48,0,3,,,,,,,,,2,,,79,0
61200,note_on,,0,0,2,,,,,,,,,1,,,54,95
61200,note_on,,48,0,2,,,,,,,,,1,,,52,0
61200,note_on,,144,0,4,,,,,,,,,3,,,78,0
61200,note_on,,0,0,4,,,,,,,,,3,,,76,95
61200,note_on,,0,0,3,,,,,,,,,2,,,81,95
61236,note_on,,0,0,2,,,,,,,,,1,,,55,95
61236,note_on,,36,0,2,,,,,,,,,1,,,54,0
61236,note_on,,36,0,4,,,,,,,,,3,,,76,0
61236,note_on,,0,0,4,,,,,,,,,3,,,74,95
61236,note_on,,0,0,3,,,,,,,,,2,,,83,95
61236,note_on,,36,0,3,,,,,,,,,2,,,81,0
61248,note_on,,0,0,3,,,,,,,,,2,,,81,95
61248,note_on,,12,0,3,,,,,,,,,2,,,83,0
61248,note_on,,0,0,4,,,,,,,,,3,,,73,95
61248,note_on,,12,0,2,,,,,,,,,1,,,55,0
61248,note_on,,0,0,2,,,,,,,,,1,,,57,95
61248,note_on,,12,0,4,,,,,,,,,3,,,74,0
61254,note_on,,0,0,4,,,,,,,,,3,,,74,95
61254,note_on,,6,0,4,,,,,,,,,3,,,73,0
61260,note_on,,0,0,4,,,,,,,,,3,,,73,95
61260,note_on,,6,0,4,,,,,,,,,3,,,74,0
61266,note_on,,0,0,4,,,,,,,,,3,,,74,95
61266,note_on,,6,0,4,,,,,,,,,3,,,73,0
61272,note_on,,6,0,4,,,,,,,,,3,,,74,0
61272,note_on,,0,0,4,,,,,,,,,3,,,73,95
61278,note_on,,6,0,4,,,,,,,,,3,,,73,0
61278,note_on,,0,0,4,,,,,,,,,3,,,74,95
61284,note_on,,0,0,4,,,,,,,,,3,,,73,95
61284,note_on,,6,0,4,,,,,,,,,3,,,74,0
61290,note_on,,0,0,4,,,,,,,,,3,,,71,95
61290,note_on,,6,0,4,,,,,,,,,3,,,73,0
61296,note_on,,0,0,4,,,,,,,,,3,,,73,95
61296,note_on,,0,0,3,,,,,,,,,2,,,79,95
61296,note_on,,48,0,3,,,,,,,,,2,,,81,0
61296,note_on,,48,0,2,,,,,,,,,1,,,57,0
61296,note_on,,0,0,2,,,,,,,,,1,,,45,95
61296,note_on,,6,0,4,,,,,,,,,3,,,71,0
61302,note_on,,0,0,3,,,,,,,,,2,,,81,95
61302,note_on,,6,0,3,,,,,,,,,2,,,79,0
61308,note_on,,6,0,3,,,,,,,,,2,,,81,0
61308,note_on,,0,0,3,,,,,,,,,2,,,79,95
61314,note_on,,0,0,3,,,,,,,,,2,,,78,95
61314,note_on,,6,0,3,,,,,,,,,2,,,79,0
61320,note_on,,6,0,3,,,,,,,,,2,,,78,0
61320,note_on,,0,0,3,,,,,,,,,2,,,79,95
61344,note_on,,0,0,3,,,,,,,,,2,,,78,95
61344,note_on,,24,0,3,,,,,,,,,2,,,79,0
61344,note_on,,48,0,2,,,,,,,,,1,,,45,0
61344,note_on,,0,0,2,,,,,,,,,1,,,50,95
61344,note_on,,48,0,4,,,,,,,,,3,,,73,0
61344,note_on,,0,0,4,,,,,,,,,3,,,74,95
61392,note_on,,0,0,2,,,,,,,,,1,,,55,95
61392,note_on,,48,0,3,,,,,,,,,2,,,78,0
61392,note_on,,0,0,3,,,,,,,,,2,,,71,95
61392,note_on,,48,0,2,,,,,,,,,1,,,50,0
61440,note_on,,48,0,3,,,,,,,,,2,,,71,0
61440,note_on,,0,0,3,,,,,,,,,2,,,76,95
61440,note_on,,48,0,2,,,,,,,,,1,,,55,0
61440,note_on,,0,0,2,,,,,,,,,1,,,49,95
61488,note_on,,0,0,4,,,,,,,,,3,,,73,95
61488,note_on,,144,0,4,,,,,,,,,3,,,74,0
61488,note_on,,0,0,2,,,,,,,,,1,,,50,95
61488,note_on,,48,0,2,,,,,,,,,1,,,49,0
61524,note_on,,0,0,2,,,,,,,,,1,,,52,95
61524,note_on,,0,0,4,,,,,,,,,3,,,71,95
61524,note_on,,36,0,4,,,,,,,,,3,,,73,0
61524,note_on,,36,0,2,,,,,,,,,1,,,50,0
61536,note_on,,0,0,4,,,,,,,,,3,,,70,95
61536,note_on,,12,0,2,,,,,,,,,1,,,52,0
61536,note_on,,0,0,2,,,,,,,,,1,,,54,95
61536,note_on,,12,0,4,,,,,,,,,3,,,71,0
61584,note_on,,0,0,3,,,,,,,,,2,,,78,95
61584,note_on,,48,0,2,,,,,,,,,1,,,54,0
61584,note_on,,144,0,3,,,,,,,,,2,,,76,0
61584,note_on,,0,0,2,,,,,,,,,1,,,52,95
61620,note_on,,36,0,3,,,,,,,,,2,,,78,0
61620,note_on,,0,0,3,,,,,,,,,2,,,79,95
61632,note_on,,0,0,2,,,,,,,,,1,,,50,95
61632,note_on,,48,0,2,,,,,,,,,1,,,52,0
61632,note_on,,96,0,4,,,,,,,,,3,,,70,0
61632,note_on,,0,0,3,,,,,,,,,2,,,78,95
61632,note_on,,12,0,3,,,,,,,,,2,,,79,0
61680,note_on,,48,0,4,,,,,,,,,3,,,70,95
61680,note_on,,0,0,3,,,,,,,,,2,,,76,95
61680,note_on,,48,0,3,,,,,,,,,2,,,78,0
61680,note_on,,48,0,2,,,,,,,,,1,,,50,0
61680,note_on,,0,0,2,,,,,,,,,1,,,49,95
61686,note_on,,0,0,3,,,,,,,,,2,,,78,95
61686,note_on,,6,0,3,,,,,,,,,2,,,76,0
61692,note_on,,0,0,3,,,,,,,,,2,,,76,95
61692,note_on,,6,0,3,,,,,,,,,2,,,78,0
61698,note_on,,0,0,3,,,,,,,,,2,,,74,95
61698,note_on,,6,0,3,,,,,,,,,2,,,76,0
61704,note_on,,0,0,3,,,,,,,,,2,,,76,95
61704,note_on,,6,0,3,,,,,,,,,2,,,74,0
61728,note_on,,48,0,2,,,,,,,,,1,,,49,0
61728,note_on,,0,0,4,,,,,,,,,3,,,71,95
61728,note_on,,0,0,2,,,,,,,,,1,,,47,95
61728,note_on,,48,0,4,,,,,,,,,3,,,70,0
61728,note_on,,0,0,3,,,,,,,,,2,,,74,95
61728,note_on,,24,0,3,,,,,,,,,2,,,76,0
61752,note_on,,0,0,3,,,,,,,,,2,,,73,95
61752,note_on,,24,0,3,,,,,,,,,2,,,74,0
61776,note_on,,0,0,4,,,,,,,,,3,,,66,95
61776,note_on,,24,0,3,,,,,,,,,2,,,73,0
61776,note_on,,0,0,3,,,,,,,,,2,,,76,95
61776,note_on,,48,0,4,,,,,,,,,3,,,71,0
61776,note_on,,0,0,2,,,,,,,,,1,,,47,95
61776,note_on,,48,0,2,,,,,,,,,1,,,47,0
61800,note_on,,24,0,3,,,,,,,,,2,,,76,0
61800,note_on,,0,0,3,,,,,,,,,2,,,74,95
61824,note_on,,0,0,4,,,,,,,,,3,,,64,95
61824,note_on,,48,0,4,,,,,,,,,3,,,66,0
61824,note_on,,24,0,3,,,,,,,,,2,,,74,0
61824,note_on,,48,0,2,,,,,,,,,1,,,47,0
61824,note_on,,0,0,3,,,,,,,,,2,,,74,95
61824,note_on,,0,0,2,,,,,,,,,1,,,52,95
61848,note_on,,0,0,3,,,,,,,,,2,,,73,95
61848,note_on,,24,0,3,,,,,,,,,2,,,74,0
61872,note_on,,0,0,3,,,,,,,,,2,,,71,95
61872,note_on,,24,0,3,,,,,,,,,2,,,73,0
61872,note_on,,48,0,4,,,,,,,,,3,,,64,0
61872,note_on,,0,0,4,,,,,,,,,3,,,62,95
61872,note_on,,48,0,2,,,,,,,,,1,,,52,0
61872,note_on,,0,0,2,,,,,,,,,1,,,54,95
61908,note_on,,0,0,3,,,,,,,,,2,,,70,95
61908,note_on,,36,0,3,,,,,,,,,2,,,71,0
61908,note_on,,36,0,4,,,,,,,,,3,,,62,0
61908,note_on,,0,0,4,,,,,,,,,3,,,61,95
61908,note_on,,36,0,2,,,,,,,,,1,,,54,0
61908,note_on,,0,0,2,,,,,,,,,1,,,55,95
61920,note_on,,0,0,4,,,,,,,,,3,,,76,95
61920,note_on,,0,0,3,,,,,,,,,2,,,79,95
61920,note_on,,12,0,3,,,,,,,,,2,,,70,0
61920,note_on,,12,0,2,,,,,,,,,1,,,55,0
61920,note_on,,0,0,2,,,,,,,,,1,,,46,95
61920,set_tempo,,18240,1,0,,,,,,,845070,,,,,,
61920,note_on,,12,0,4,,,,,,,,,3,,,61,0
61944,set_tempo,,24,1,0,,,,,,,869565,,,,,,
61956,set_tempo,,12,1,0,,,,,,,895522,,,,,,
61968,note_on,,48,0,3,,,,,,,,,2,,,79,0
61968,note_on,,0,0,2,,,,,,,,,1,,,47,95
61968,note_on,,48,0,2,,,,,,,,,1,,,46,0
61968,note_on,,0,0,4,,,,,,,,,3,,,74,95
61968,note_on,,48,0,4,,,,,,,,,3,,,76,0
61968,note_on,,0,0,3,,,,,,,,,2,,,78,95
61980,set_tempo,,24,1,0,,,,,,,923077,,,,,,
61992,set_tempo,,12,1,0,,,,,,,952381,,,,,,
62004,note_on,,36,0,4,,,,,,,,,3,,,74,0
62004,note_on,,0,0,4,,,,,,,,,3,,,73,95
62004,note_on,,36,0,3,,,,,,,,,2,,,78,0
62004,note_on,,0,0,3,,,,,,,,,2,,,76,95
62016,set_tempo,,24,1,0,,,,,,,983607,,,,,,
62016,note_on,,0,0,4,,,,,,,,,3,,,71,95
62016,note_on,,12,0,4,,,,,,,,,3,,,73,0
62016,note_on,,12,0,3,,,,,,,,,2,,,76,0
62016,note_on,,0,0,2,,,,,,,,,1,,,54,95
62016,note_on,,48,0,2,,,,,,,,,1,,,47,0
62016,note_on,,0,0,3,,,,,,,,,2,,,74,95
62028,set_tempo,,12,1,0,,,,,,,1000000,,,,,,
62052,set_tempo,,24,1,0,,,,,,,1034483,,,,,,
62064,note_on,,48,0,3,,,,,,,,,2,,,74,0
62064,note_on,,0,0,3,,,,,,,,,2,,,73,79
62064,note_on,,0,0,2,,,,,,,,,1,,,42,95
62064,note_on,,48,0,2,,,,,,,,,1,,,54,0
62064,set_tempo,,12,1,0,,,,,,,1071429,,,,,,
62064,note_on,,48,0,4,,,,,,,,,3,,,71,0
62064,note_on,,0,0,4,,,,,,,,,3,,,70,95
62068,note_on,,4,0,3,,,,,,,,,2,,,73,0
62070,note_on,,6,0,4,,,,,,,,,3,,,70,0
62070,note_on,,2,0,3,,,,,,,,,2,,,74,79
62070,note_on,,0,0,4,,,,,,,,,3,,,71,95
62074,note_on,,4,0,3,,,,,,,,,2,,,74,0
62076,note_on,,0,0,4,,,,,,,,,3,,,70,95
62076,note_on,,6,0,4,,,,,,,,,3,,,71,0
62076,note_on,,2,0,3,,,,,,,,,2,,,73,79
62080,note_on,,4,0,3,,,,,,,,,2,,,73,0
62082,note_on,,0,0,4,,,,,,,,,3,,,71,95
62082,note_on,,2,0,3,,,,,,,,,2,,,74,79
62082,note_on,,6,0,4,,,,,,,,,3,,,70,0
62086,note_on,,4,0,3,,,,,,,,,2,,,74,0
62088,set_tempo,,24,1,0,,,,,,,1111111,,,,,,
62088,note_on,,6,0,4,,,,,,,,,3,,,71,0
62088,note_on,,0,0,4,,,,,,,,,3,,,70,95
62088,note_on,,2,0,3,,,,,,,,,2,,,73,95
62094,note_on,,0,0,3,,,,,,,,,2,,,71,95
62094,note_on,,6,0,4,,,,,,,,,3,,,70,0
62094,note_on,,0,0,4,,,,,,,,,3,,,71,95
62094,note_on,,6,0,3,,,,,,,,,2,,,73,0
62100,note_on,,6,0,4,,,,,,,,,3,,,71,0
62100,note_on,,6,0,3,,,,,,,,,2,,,73,95
62100,set_tempo,,12,1,0,,,,,,,1153846,,,,,,
62100,note_on,,0,0,4,,,,,,,,,3,,,70,95
62106,note_on,,6,0,3,,,,,,,,,2,,,71,0
62112,note_on,,0,0,2,,,,,,,,,1,,,47,95
62112,note_on,,0,0,4,,,,,,,,,3,,,71,63
62112,note_on,,0,0,3,,,,,,,,,2,,,71,63
62112,note_on,,48,0,2,,,,,,,,,1,,,42,0
62112,note_on,,0,0,2,,,,,,,,,1,,,35,95
62112,note_on,,12,0,4,,,,,,,,,3,,,70,0
62112,set_tempo,,12,1,0,,,,,,,1153846,,,,,,
62112,note_on,,6,0,3,,,,,,,,,2,,,73,0
62124,set_tempo,,12,1,0,,,,,,,1200000,,,,,,
62136,set_tempo,,12,1,0,,,,,,,1250000,,,,,,
62160,set_tempo,,24,1,0,,,,,,,1304348,,,,,,
62172,set_tempo,,12,1,0,,,,,,,1333333,,,,,,
62196,set_tempo,,24,1,0,,,,,,,1395349,,,,,,
62208,note_on,,96,0,4,,,,,,,,,3,,,71,0
62208,note_on,,96,0,2,,,,,,,,,1,,,47,0
62208,set_tempo,,12,1,0,,,,,,,1463415,,,,,,
62208,note_on,,96,0,3,,,,,,,,,2,,,71,0
62208,note_on,,0,0,2,,,,,,,,,1,,,35,0
62304,set_tempo,,96,1,0,,,,,,,483871,,,,,,
62304,marker,,0,1,0,,,,,,,,,,,,,
62340,note_on,,132,0,4,,,,,,,,,3,,,69,95
62350,note_on,,10,0,4,,,,,,,,,3,,,69,0
62352,note_on,,2,0,4,,,,,,,,,3,,,74,95
62383,note_on,,31,0,4,,,,,,,,,3,,,74,0
62388,note_on,,5,0,4,,,,,,,,,3,,,69,95
62398,note_on,,10,0,4,,,,,,,,,3,,,69,0
62400,note_on,,2,0,4,,,,,,,,,3,,,71,95
62414,note_on,,14,0,4,,,,,,,,,3,,,71,0
62416,note_on,,2,0,4,,,,,,,,,3,,,69,95
62430,note_on,,14,0,4,,,,,,,,,3,,,69,0
62432,note_on,,2,0,4,,,,,,,,,3,,,67,95
62446,note_on,,14,0,4,,,,,,,,,3,,,67,0
62448,note_on,,2,0,4,,,,,,,,,3,,,66,95
62462,note_on,,14,0,4,,,,,,,,,3,,,66,0
62464,note_on,,2,0,4,,,,,,,,,3,,,67,95
62478,note_on,,14,0,4,,,,,,,,,3,,,67,0
62480,note_on,,2,0,4,,,,,,,,,3,,,69,95
62494,note_on,,14,0,4,,,,,,,,,3,,,69,0
62496,note_on,,2,0,4,,,,,,,,,3,,,62,95
62510,note_on,,14,0,4,,,,,,,,,3,,,62,0
62532,note_on,,324,0,3,,,,,,,,,2,,,74,95
62542,note_on,,10,0,3,,,,,,,,,2,,,74,0
62544,note_on,,2,0,3,,,,,,,,,2,,,81,95
62544,note_on,,34,0,4,,,,,,,,,3,,,61,95
62565,note_on,,21,0,4,,,,,,,,,3,,,61,0
62575,note_on,,31,0,3,,,,,,,,,2,,,81,0
62580,note_on,,5,0,3,,,,,,,,,2,,,76,95
62590,note_on,,10,0,3,,,,,,,,,2,,,76,0
62592,note_on,,27,0,4,,,,,,,,,3,,,62,95
62592,note_on,,2,0,3,,,,,,,,,2,,,78,95
62606,note_on,,14,0,3,,,,,,,,,2,,,78,0
62608,note_on,,2,0,3,,,,,,,,,2,,,76,95
62613,note_on,,21,0,4,,,,,,,,,3,,,62,0
62622,note_on,,14,0,3,,,,,,,,,2,,,76,0
62624,note_on,,2,0,3,,,,,,,,,2,,,74,95
62638,note_on,,14,0,3,,,,,,,,,2,,,74,0
62640,note_on,,2,0,3,,,,,,,,,2,,,73,95
62640,note_on,,27,0,4,,,,,,,,,3,,,64,95
62654,note_on,,14,0,3,,,,,,,,,2,,,73,0
62656,note_on,,2,0,3,,,,,,,,,2,,,74,95
62661,note_on,,21,0,4,,,,,,,,,3,,,64,0
62670,note_on,,14,0,3,,,,,,,,,2,,,74,0
62672,note_on,,2,0,3,,,,,,,,,2,,,76,95
62686,note_on,,14,0,3,,,,,,,,,2,,,76,0
62688,time_signature,,384,1,0,,2,4,24,8,,,,,,,,
62688,note_on,,27,0,4,,,,,,,,,3,,,66,95
62688,note_on,,2,0,3,,,,,,,,,2,,,69,95
62702,note_on,,14,0,4,,,,,,,,,3,,,66,0
62704,note_on,,2,0,4,,,,,,,,,3,,,69,95
62709,note_on,,21,0,3,,,,,,,,,2,,,69,0
62718,note_on,,14,0,4,,,,,,,,,3,,,69,0
62720,note_on,,2,0,4,,,,,,,,,3,,,74,95
62734,note_on,,14,0,4,,,,,,,,,3,,,74,0
62736,note_on,,2,0,4,,,,,,,,,3,,,74,95
62736,note_on,,27,0,3,,,,,,,,,2,,,66,95
62750,note_on,,14,0,4,,,,,,,,,3,,,74,0
62752,note_on,,2,0,4,,,,,,,,,3,,,73,95
62757,note_on,,21,0,3,,,,,,,,,2,,,66,0
62766,note_on,,14,0,4,,,,,,,,,3,,,73,0
62768,note_on,,2,0,4,,,,,,,,,3,,,74,95
62782,note_on,,14,0,4,,,,,,,,,3,,,74,0
62784,note_on,,27,0,3,,,,,,,,,2,,,67,95
62784,note_on,,2,0,4,,,,,,,,,3,,,71,95
62798,note_on,,14,0,4,,,,,,,,,3,,,71,0
62800,note_on,,2,0,4,,,,,,,,,3,,,76,95
62805,note_on,,21,0,3,,,,,,,,,2,,,67,0
62814,note_on,,14,0,4,,,,,,,,,3,,,76,0
62816,note_on,,2,0,4,,,,,,,,,3,,,74,95
62830,note_on,,14,0,4,,,,,,,,,3,,,74,0
62832,note_on,,2,0,4,,,,,,,,,3,,,73,95
62832,note_on,,27,0,3,,,,,,,,,2,,,69,95
62846,note_on,,14,0,4,,,,,,,,,3,,,73,0
62848,note_on,,2,0,4,,,,,,,,,3,,,78,95
62853,note_on,,21,0,3,,,,,,,,,2,,,69,0
62862,note_on,,14,0,4,,,,,,,,,3,,,78,0
62864,note_on,,2,0,4,,,,,,,,,3,,,76,95
62878,note_on,,14,0,4,,,,,,,,,3,,,76,0
62880,note_on,,2,0,4,,,,,,,,,3,,,74,95
62880,note_on,,27,0,3,,,,,,,,,2,,,71,95
62894,note_on,,14,0,3,,,,,,,,,2,,,71,0
62896,note_on,,2,0,3,,,,,,,,,2,,,74,95
62901,note_on,,21,0,4,,,,,,,,,3,,,74,0
62910,note_on,,14,0,3,,,,,,,,,2,,,74,0
62912,note_on,,2,0,3,,,,,,,,,2,,,78,95
62926,note_on,,14,0,3,,,,,,,,,2,,,78,0
62928,note_on,,27,0,4,,,,,,,,,3,,,69,95
62928,note_on,,2,0,3,,,,,,,,,2,,,78,95
62942,note_on,,14,0,3,,,,,,,,,2,,,78,0
62944,note_on,,2,0,3,,,,,,,,,2,,,76,95
62949,note_on,,21,0,4,,,,,,,,,3,,,69,0
62958,note_on,,14,0,3,,,,,,,,,2,,,76,0
62960,note_on,,2,0,3,,,,,,,,,2,,,78,95
62974,note_on,,14,0,3,,,,,,,,,2,,,78,0
62976,note_on,,2,0,3,,,,,,,,,2,,,74,95
62976,note_on,,27,0,4,,,,,,,,,3,,,71,95
62990,note_on,,14,0,3,,,,,,,,,2,,,74,0
62992,note_on,,2,0,3,,,,,,,,,2,,,79,95
62997,note_on,,21,0,4,,,,,,,,,3,,,71,0
63006,note_on,,14,0,3,,,,,,,,,2,,,79,0
63008,note_on,,2,0,3,,,,,,,,,2,,,78,95
63022,note_on,,14,0,3,,,,,,,,,2,,,78,0
63024,note_on,,27,0,4,,,,,,,,,3,,,73,95
63024,note_on,,2,0,3,,,,,,,,,2,,,76,95
63038,note_on,,14,0,3,,,,,,,,,2,,,76,0
63040,note_on,,2,0,3,,,,,,,,,2,,,81,95
63045,note_on,,21,0,4,,,,,,,,,3,,,73,0
63054,note_on,,14,0,3,,,,,,,,,2,,,81,0
63056,note_on,,2,0,3,,,,,,,,,2,,,79,95
63070,note_on,,14,0,3,,,,,,,,,2,,,79,0
63072,note_on,,2,0,3,,,,,,,,,2,,,78,95
63072,note_on,,27,0,4,,,,,,,,,3,,,74,95
63086,note_on,,14,0,3,,,,,,,,,2,,,78,0
63086,note_on,,14,0,4,,,,,,,,,3,,,74,0
63088,note_on,,2,0,4,,,,,,,,,3,,,78,95
63088,note_on,,2,0,3,,,,,,,,,2,,,81,95
63102,note_on,,14,0,4,,,,,,,,,3,,,78,0
63102,note_on,,14,0,3,,,,,,,,,2,,,81,0
63104,note_on,,2,0,3,,,,,,,,,2,,,79,95
63104,note_on,,2,0,4,,,,,,,,,3,,,76,95
63108,note_on,,900,0,2,,,,,,,,,1,,,57,95
63116,note_on,,8,0,2,,,,,,,,,1,,,57,0
63118,note_on,,14,0,4,,,,,,,,,3,,,76,0
63118,note_on,,14,0,3,,,,,,,,,2,,,79,0
63120,note_on,,2,0,4,,,,,,,,,3,,,74,95
63120,note_on,,4,0,2,,,,,,,,,1,,,62,95
63120,note_on,,2,0,3,,,,,,,,,2,,,78,95
63134,note_on,,14,0,3,,,,,,,,,2,,,78,0
63134,note_on,,14,0,4,,,,,,,,,3,,,74,0
63136,note_on,,2,0,3,,,,,,,,,2,,,81,95
63136,note_on,,2,0,4,,,,,,,,,3,,,78,95
63144,note_on,,24,0,2,,,,,,,,,1,,,62,0
63150,note_on,,14,0,4,,,,,,,,,3,,,78,0
63150,note_on,,14,0,3,,,,,,,,,2,,,81,0
63152,note_on,,2,0,4,,,,,,,,,3,,,76,95
63152,note_on,,2,0,3,,,,,,,,,2,,,79,95
63156,note_on,,12,0,2,,,,,,,,,1,,,57,95
63164,note_on,,8,0,2,,,,,,,,,1,,,57,0
63166,note_on,,14,0,4,,,,,,,,,3,,,76,0
63166,note_on,,14,0,3,,,,,,,,,2,,,79,0
63168,note_on,,2,0,3,,,,,,,,,2,,,78,95
63168,note_on,,2,0,4,,,,,,,,,3,,,74,95
63168,note_on,,4,0,2,,,,,,,,,1,,,59,95
63179,note_on,,11,0,2,,,,,,,,,1,,,59,0
63184,note_on,,5,0,2,,,,,,,,,1,,,57,95
63195,note_on,,11,0,2,,,,,,,,,1,,,57,0
63199,note_on,,31,0,3,,,,,,,,,2,,,78,0
63200,note_on,,5,0,2,,,,,,,,,1,,,55,95
63204,note_on,,5,0,3,,,,,,,,,2,,,81,95
63211,note_on,,11,0,2,,,,,,,,,1,,,55,0
63214,note_on,,10,0,3,,,,,,,,,2,,,81,0
63216,note_on,,2,0,3,,,,,,,,,2,,,81,95
63216,note_on,,5,0,2,,,,,,,,,1,,,54,95
63227,note_on,,11,0,2,,,,,,,,,1,,,54,0
63232,note_on,,5,0,2,,,,,,,,,1,,,55,95
63240,note_on,,72,0,4,,,,,,,,,3,,,74,0
63243,note_on,,11,0,2,,,,,,,,,1,,,55,0
63247,note_on,,31,0,3,,,,,,,,,2,,,81,0
63248,note_on,,5,0,2,,,,,,,,,1,,,57,95
63252,note_on,,5,0,3,,,,,,,,,2,,,79,95
63252,note_on,,12,0,4,,,,,,,,,3,,,73,95
63259,note_on,,11,0,2,,,,,,,,,1,,,57,0
63262,note_on,,10,0,4,,,,,,,,,3,,,73,0
63262,note_on,,10,0,3,,,,,,,,,2,,,79,0
63264,note_on,,2,0,3,,,,,,,,,2,,,78,95
63264,note_on,,5,0,2,,,,,,,,,1,,,50,95
63264,note_on,,2,0,4,,,,,,,,,3,,,74,95
63278,note_on,,14,0,4,,,,,,,,,3,,,74,0
63280,note_on,,16,0,2,,,,,,,,,1,,,50,0
63280,note_on,,2,0,4,,,,,,,,,3,,,76,95
63294,note_on,,14,0,4,,,,,,,,,3,,,76,0
63295,note_on,,31,0,3,,,,,,,,,2,,,78,0
63296,note_on,,2,0,4,,,,,,,,,3,,,78,95
63300,note_on,,5,0,3,,,,,,,,,2,,,69,95
63300,note_on,,2628,0,1,,,,,,,,,0,,,74,95
63310,note_on,,14,0,4,,,,,,,,,3,,,78,0
63310,note_on,,10,0,3,,,,,,,,,2,,,69,0
63312,note_on,,0,0,1,,,,,,,,,0,,,81,95
63312,note_on,,2,0,4,,,,,,,,,3,,,76,95
63312,note_on,,2,0,3,,,,,,,,,2,,,76,95
63312,note_on,,32,0,2,,,,,,,,,1,,,49,95
63312,note_on,,12,0,1,,,,,,,,,0,,,74,0
63326,note_on,,14,0,4,,,,,,,,,3,,,76,0
63328,note_on,,16,0,2,,,,,,,,,1,,,49,0
63328,note_on,,2,0,4,,,,,,,,,3,,,78,95
63336,note_on,,24,0,1,,,,,,,,,0,,,81,0
63342,note_on,,14,0,4,,,,,,,,,3,,,78,0
63343,note_on,,31,0,3,,,,,,,,,2,,,76,0
63344,note_on,,2,0,4,,,,,,,,,3,,,79,95
63348,note_on,,5,0,3,,,,,,,,,2,,,69,95
63348,note_on,,12,0,1,,,,,,,,,0,,,76,95
63356,note_on,,8,0,1,,,,,,,,,0,,,76,0
63358,note_on,,14,0,4,,,,,,,,,3,,,79,0
63358,note_on,,10,0,3,,,,,,,,,2,,,69,0
63360,note_on,,2,0,3,,,,,,,,,2,,,78,95
63360,note_on,,32,0,2,,,,,,,,,1,,,50,95
63360,note_on,,2,0,4,,,,,,,,,3,,,78,95
63360,note_on,,4,0,1,,,,,,,,,0,,,78,95
63371,note_on,,11,0,1,,,,,,,,,0,,,78,0
63374,note_on,,14,0,4,,,,,,,,,3,,,78,0
63376,note_on,,5,0,1,,,,,,,,,0,,,76,95
63376,note_on,,2,0,4,,,,,,,,,3,,,79,95
63376,note_on,,16,0,2,,,,,,,,,1,,,50,0
63381,note_on,,21,0,3,,,,,,,,,2,,,78,0
63387,note_on,,11,0,1,,,,,,,,,0,,,76,0
63390,note_on,,14,0,4,,,,,,,,,3,,,79,0
63392,note_on,,5,0,1,,,,,,,,,0,,,74,95
63392,note_on,,2,0,4,,,,,,,,,3,,,78,95
63403,note_on,,11,0,1,,,,,,,,,0,,,74,0
63406,note_on,,14,0,4,,,,,,,,,3,,,78,0
63408,note_on,,5,0,1,,,,,,,,,0,,,73,95
63408,note_on,,27,0,3,,,,,,,,,2,,,80,95
63408,note_on,,2,0,4,,,,,,,,,3,,,76,95
63408,note_on,,32,0,2,,,,,,,,,1,,,52,95
63419,note_on,,11,0,1,,,,,,,,,0,,,73,0
63422,note_on,,14,0,4,,,,,,,,,3,,,76,0
63424,note_on,,2,0,4,,,,,,,,,3,,,78,95
63424,note_on,,5,0,1,,,,,,,,,0,,,74,95
63424,note_on,,16,0,2,,,,,,,,,1,,,52,0
63429,note_on,,21,0,3,,,,,,,,,2,,,80,0
63435,note_on,,11,0,1,,,,,,,,,0,,,74,0
63438,note_on,,14,0,4,,,,,,,,,3,,,78,0
63440,note_on,,5,0,1,,,,,,,,,0,,,76,95
63440,note_on,,2,0,4,,,,,,,,,3,,,74,95
63451,note_on,,11,0,1,,,,,,,,,0,,,76,0
63454,note_on,,14,0,4,,,,,,,,,3,,,74,0
63456,note_on,,32,0,2,,,,,,,,,1,,,54,95
63456,note_on,,27,0,3,,,,,,,,,2,,,81,95
63456,note_on,,5,0,1,,,,,,,,,0,,,69,95
63456,note_on,,2,0,4,,,,,,,,,3,,,73,95
63467,note_on,,11,0,1,,,,,,,,,0,,,69,0
63472,note_on,,16,0,4,,,,,,,,,3,,,73,0
63472,note_on,,5,0,1,,,,,,,,,0,,,73,95
63472,note_on,,0,0,4,,,,,,,,,3,,,76,95
63480,note_on,,24,0,2,,,,,,,,,1,,,54,0
63483,note_on,,11,0,1,,,,,,,,,0,,,73,0
63488,note_on,,5,0,1,,,,,,,,,0,,,71,95
63488,note_on,,16,0,4,,,,,,,,,3,,,76,0
63488,note_on,,0,0,4,,,,,,,,,3,,,74,95
63499,note_on,,11,0,1,,,,,,,,,0,,,71,0
63504,note_on,,24,0,2,,,,,,,,,1,,,49,95
63504,note_on,,0,0,4,,,,,,,,,3,,,73,95
63504,note_on,,16,0,4,,,,,,,,,3,,,74,0
63504,note_on,,5,0,1,,,,,,,,,0,,,69,95
63515,note_on,,11,0,1,,,,,,,,,0,,,69,0
63520,note_on,,5,0,1,,,,,,,,,0,,,71,95
63520,note_on,,0,0,4,,,,,,,,,3,,,74,95
63520,note_on,,16,0,4,,,,,,,,,3,,,73,0
63528,note_on,,24,0,2,,,,,,,,,1,,,49,0
63531,note_on,,11,0,1,,,,,,,,,0,,,71,0
63536,note_on,,5,0,1,,,,,,,,,0,,,73,95
63536,note_on,,16,0,4,,,,,,,,,3,,,74,0
63536,note_on,,0,0,4,,,,,,,,,3,,,76,95
63547,note_on,,11,0,1,,,,,,,,,0,,,73,0
63552,note_on,,5,0,1,,,,,,,,,0,,,66,95
63552,note_on,,24,0,2,,,,,,,,,1,,,50,95
63552,note_on,,0,0,4,,,,,,,,,3,,,71,95
63552,note_on,,16,0,4,,,,,,,,,3,,,76,0
63563,note_on,,11,0,1,,,,,,,,,0,,,66,0
63568,note_on,,5,0,1,,,,,,,,,0,,,71,95
63576,note_on,,24,0,4,,,,,,,,,3,,,71,0
63576,note_on,,24,0,2,,,,,,,,,1,,,50,0
63579,note_on,,11,0,1,,,,,,,,,0,,,71,0
63584,note_on,,5,0,1,,,,,,,,,0,,,69,95
63595,note_on,,11,0,1,,,,,,,,,0,,,69,0
63600,note_on,,24,0,4,,,,,,,,,3,,,73,95
63600,note_on,,24,0,2,,,,,,,,,1,,,52,95
63600,note_on,,5,0,1,,,,,,,,,0,,,68,95
63611,note_on,,11,0,1,,,,,,,,,0,,,68,0
63616,note_on,,5,0,1,,,,,,,,,0,,,73,95
63623,note_on,,167,0,3,,,,,,,,,2,,,81,0
63624,note_on,,24,0,4,,,,,,,,,3,,,73,0
63624,note_on,,24,0,2,,,,,,,,,1,,,52,0
63627,note_on,,11,0,1,,,,,,,,,0,,,73,0
63632,note_on,,5,0,1,,,,,,,,,0,,,71,95
63643,note_on,,11,0,1,,,,,,,,,0,,,71,0
63648,note_on,,25,0,3,,,,,,,,,2,,,81,95
63648,note_on,,24,0,2,,,,,,,,,1,,,54,95
63648,note_on,,24,0,4,,,,,,,,,3,,,74,95
63648,note_on,,5,0,1,,,,,,,,,0,,,69,95
63653,note_on,,5,0,1,,,,,,,,,0,,,69,0
63656,note_on,,3,0,1,,,,,,,,,0,,,68,95
63661,note_on,,5,0,1,,,,,,,,,0,,,68,0
63664,note_on,,3,0,1,,,,,,,,,0,,,69,95
63669,note_on,,5,0,1,,,,,,,,,0,,,69,0
63669,note_on,,21,0,3,,,,,,,,,2,,,81,0
63672,note_on,,3,0,1,,,,,,,,,0,,,71,95
63672,note_on,,24,0,2,,,,,,,,,1,,,54,0
63677,note_on,,5,0,1,,,,,,,,,0,,,71,0
63680,note_on,,3,0,1,,,,,,,,,0,,,73,95
63685,note_on,,5,0,1,,,,,,,,,0,,,73,0
63688,note_on,,3,0,1,,,,,,,,,0,,,74,95
63693,note_on,,5,0,1,,,,,,,,,0,,,74,0
63696,note_on,,3,0,1,,,,,,,,,0,,,76,95
63696,note_on,,24,0,2,,,,,,,,,1,,,52,95
63696,note_on,,27,0,3,,,,,,,,,2,,,80,95
63701,note_on,,5,0,1,,,,,,,,,0,,,76,0
63704,note_on,,3,0,1,,,,,,,,,0,,,78,95
63709,note_on,,5,0,1,,,,,,,,,0,,,78,0
63712,note_on,,3,0,1,,,,,,,,,0,,,76,95
63717,note_on,,5,0,1,,,,,,,,,0,,,76,0
63717,note_on,,21,0,3,,,,,,,,,2,,,80,0
63720,note_on,,3,0,1,,,,,,,,,0,,,74,95
63720,note_on,,24,0,2,,,,,,,,,1,,,52,0
63725,note_on,,5,0,1,,,,,,,,,0,,,74,0
63728,note_on,,3,0,1,,,,,,,,,0,,,73,95
63733,note_on,,5,0,1,,,,,,,,,0,,,73,0
63736,note_on,,3,0,1,,,,,,,,,0,,,71,95
63741,note_on,,5,0,1,,,,,,,,,0,,,71,0
63744,note_on,,3,0,1,,,,,,,,,0,,,69,95
63744,note_on,,27,0,3,,,,,,,,,2,,,81,95
63744,note_on,,24,0,2,,,,,,,,,1,,,54,95
63749,note_on,,5,0,1,,,,,,,,,0,,,69,0
63752,note_on,,3,0,1,,,,,,,,,0,,,73,95
63757,note_on,,5,0,1,,,,,,,,,0,,,73,0
63760,note_on,,3,0,1,,,,,,,,,0,,,71,95
63765,note_on,,21,0,3,,,,,,,,,2,,,81,0
63765,note_on,,5,0,1,,,,,,,,,0,,,71,0
63768,note_on,,24,0,2,,,,,,,,,1,,,54,0
63768,note_on,,3,0,1,,,,,,,,,0,,,69,95
63773,note_on,,5,0,1,,,,,,,,,0,,,69,0
63776,note_on,,3,0,1,,,,,,,,,0,,,68,95
63781,note_on,,5,0,1,,,,,,,,,0,,,68,0
63784,note_on,,3,0,1,,,,,,,,,0,,,66,95
63789,note_on,,5,0,1,,,,,,,,,0,,,66,0
63792,note_on,,27,0,3,,,,,,,,,2,,,83,95
63792,note_on,,24,0,2,,,,,,,,,1,,,56,95
63792,note_on,,3,0,1,,,,,,,,,0,,,64,95
63797,note_on,,5,0,1,,,,,,,,,0,,,64,0
63800,note_on,,3,0,1,,,,,,,,,0,,,66,95
63805,note_on,,5,0,1,,,,,,,,,0,,,66,0
63808,note_on,,3,0,1,,,,,,,,,0,,,64,95
63813,note_on,,21,0,3,,,,,,,,,2,,,83,0
63813,note_on,,5,0,1,,,,,,,,,0,,,64,0
63816,note_on,,3,0,1,,,,,,,,,0,,,62,95
63816,note_on,,24,0,2,,,,,,,,,1,,,56,0
63821,note_on,,5,0,1,,,,,,,,,0,,,62,0
63824,note_on,,3,0,1,,,,,,,,,0,,,61,95
63829,note_on,,5,0,1,,,,,,,,,0,,,61,0
63832,note_on,,3,0,1,,,,,,,,,0,,,59,95
63837,note_on,,5,0,1,,,,,,,,,0,,,59,0
63840,note_on,,3,0,1,,,,,,,,,0,,,57,95
63840,note_on,,27,0,3,,,,,,,,,2,,,76,95
63840,note_on,,24,0,2,,,,,,,,,1,,,57,95
63840,note_on,,192,0,4,,,,,,,,,3,,,74,0
63845,note_on,,5,0,1,,,,,,,,,0,,,57,0
63853,note_on,,13,0,2,,,,,,,,,1,,,57,0
63856,note_on,,16,0,4,,,,,,,,,3,,,76,95
63856,note_on,,3,0,2,,,,,,,,,1,,,61,95
63869,note_on,,13,0,2,,,,,,,,,1,,,61,0
63871,note_on,,31,0,3,,,,,,,,,2,,,76,0
63872,note_on,,3,0,2,,,,,,,,,1,,,59,95
63872,note_on,,0,0,4,,,,,,,,,3,,,74,95
63872,note_on,,16,0,4,,,,,,,,,3,,,76,0
63876,note_on,,5,0,3,,,,,,,,,2,,,76,95
63885,note_on,,13,0,2,,,,,,,,,1,,,59,0
63886,note_on,,10,0,3,,,,,,,,,2,,,76,0
63888,note_on,,2,0,3,,,,,,,,,2,,,81,95
63888,note_on,,0,0,4,,,,,,,,,3,,,73,95
63888,note_on,,3,0,2,,,,,,,,,1,,,57,95
63888,note_on,,16,0,4,,,,,,,,,3,,,74,0
63888,note_on,,43,0,1,,,,,,,,,0,,,69,95
63901,note_on,,13,0,2,,,,,,,,,1,,,57,0
63904,note_on,,0,0,4,,,,,,,,,3,,,74,95
63904,note_on,,16,0,1,,,,,,,,,0,,,69,0
63904,note_on,,3,0,2,,,,,,,,,1,,,59,95
63904,note_on,,16,0,4,,,,,,,,,3,,,73,0
63917,note_on,,13,0,2,,,,,,,,,1,,,59,0
63919,note_on,,31,0,3,,,,,,,,,2,,,81,0
63920,note_on,,3,0,2,,,,,,,,,1,,,61,95
63920,note_on,,16,0,4,,,,,,,,,3,,,74,0
63920,note_on,,0,0,4,,,,,,,,,3,,,76,95
63924,note_on,,5,0,3,,,,,,,,,2,,,76,95
63933,note_on,,13,0,2,,,,,,,,,1,,,61,0
63934,note_on,,10,0,3,,,,,,,,,2,,,76,0
63936,note_on,,2,0,3,,,,,,,,,2,,,78,95
63936,note_on,,3,0,2,,,,,,,,,1,,,62,95
63936,note_on,,0,0,4,,,,,,,,,3,,,69,95
63936,note_on,,16,0,4,,,,,,,,,3,,,76,0
63936,note_on,,32,0,1,,,,,,,,,0,,,69,95
63950,note_on,,14,0,3,,,,,,,,,2,,,78,0
63952,note_on,,16,0,1,,,,,,,,,0,,,69,0
63952,note_on,,2,0,3,,,,,,,,,2,,,76,95
63956,note_on,,20,0,2,,,,,,,,,1,,,62,0
63966,note_on,,14,0,3,,,,,,,,,2,,,76,0
63968,note_on,,2,0,3,,,,,,,,,2,,,74,95
63972,note_on,,36,0,4,,,,,,,,,3,,,69,0
63972,note_on,,0,0,4,,,,,,,,,3,,,78,95
63982,note_on,,14,0,3,,,,,,,,,2,,,74,0
63984,note_on,,32,0,1,,,,,,,,,0,,,68,95
63984,note_on,,2,0,3,,,,,,,,,2,,,73,95
63984,note_on,,28,0,2,,,,,,,,,1,,,64,95
63984,note_on,,12,0,4,,,,,,,,,3,,,78,0
63984,note_on,,0,0,4,,,,,,,,,3,,,76,95
63998,note_on,,14,0,3,,,,,,,,,2,,,73,0
64000,note_on,,2,0,3,,,,,,,,,2,,,74,95
64000,note_on,,16,0,1,,,,,,,,,0,,,68,0
64004,note_on,,20,0,2,,,,,,,,,1,,,64,0
64014,note_on,,14,0,3,,,,,,,,,2,,,74,0
64016,note_on,,2,0,3,,,,,,,,,2,,,76,95
64020,note_on,,0,0,4,,,,,,,,,3,,,74,95
64020,note_on,,36,0,4,,,,,,,,,3,,,76,0
64030,note_on,,14,0,3,,,,,,,,,2,,,76,0
64032,note_on,,28,0,2,,,,,,,,,1,,,66,95
64032,note_on,,12,0,4,,,,,,,,,3,,,74,0
64032,note_on,,32,0,1,,,,,,,,,0,,,69,95
64032,note_on,,2,0,3,,,,,,,,,2,,,69,95
64032,note_on,,0,0,4,,,,,,,,,3,,,73,95
64036,note_on,,4,0,1,,,,,,,,,0,,,69,0
64037,note_on,,5,0,2,,,,,,,,,1,,,66,0
64038,note_on,,1,0,2,,,,,,,,,1,,,68,95
64038,note_on,,2,0,1,,,,,,,,,0,,,71,95
64042,note_on,,4,0,1,,,,,,,,,0,,,71,0
64043,note_on,,5,0,2,,,,,,,,,1,,,68,0
64044,note_on,,2,0,1,,,,,,,,,0,,,69,95
64044,note_on,,1,0,2,,,,,,,,,1,,,66,95
64046,note_on,,14,0,3,,,,,,,,,2,,,69,0
64048,note_on,,2,0,3,,,,,,,,,2,,,73,95
64048,note_on,,4,0,1,,,,,,,,,0,,,69,0
64048,note_on,,16,0,4,,,,,,,,,3,,,73,0
64048,note_on,,0,0,4,,,,,,,,,3,,,76,95
64049,note_on,,5,0,2,,,,,,,,,1,,,66,0
64050,note_on,,1,0,2,,,,,,,,,1,,,68,95
64050,note_on,,2,0,1,,,,,,,,,0,,,71,95
64054,note_on,,4,0,1,,,,,,,,,0,,,71,0
64055,note_on,,5,0,2,,,,,,,,,1,,,68,0
64056,note_on,,1,0,2,,,,,,,,,1,,,66,95
64056,note_on,,2,0,1,,,,,,,,,0,,,69,95
64060,note_on,,4,0,1,,,,,,,,,0,,,69,0
64061,note_on,,5,0,2,,,,,,,,,1,,,66,0
64062,note_on,,2,0,1,,,,,,,,,0,,,71,95
64062,note_on,,1,0,2,,,,,,,,,1,,,68,95
64062,note_on,,14,0,3,,,,,,,,,2,,,73,0
64064,note_on,,16,0,4,,,,,,,,,3,,,76,0
64064,note_on,,2,0,3,,,,,,,,,2,,,71,95
64064,note_on,,0,0,4,,,,,,,,,3,,,74,95
64066,note_on,,4,0,1,,,,,,,,,0,,,71,0
64067,note_on,,5,0,2,,,,,,,,,1,,,68,0
64068,note_on,,2,0,1,,,,,,,,,0,,,69,95
64068,note_on,,1,0,2,,,,,,,,,1,,,66,95
64072,note_on,,4,0,1,,,,,,,,,0,,,69,0
64073,note_on,,5,0,2,,,,,,,,,1,,,66,0
64074,note_on,,1,0,2,,,,,,,,,1,,,68,95
64074,note_on,,2,0,1,,,,,,,,,0,,,71,95
64078,note_on,,4,0,1,,,,,,,,,0,,,71,0
64078,note_on,,14,0,3,,,,,,,,,2,,,71,0
64079,note_on,,5,0,2,,,,,,,,,1,,,68,0
64080,note_on,,0,0,4,,,,,,,,,3,,,73,95
64080,note_on,,1,0,2,,,,,,,,,1,,,66,95
64080,note_on,,2,0,1,,,,,,,,,0,,,69,95
64080,note_on,,2,0,3,,,,,,,,,2,,,69,95
64080,note_on,,16,0,4,,,,,,,,,3,,,74,0
64084,note_on,,4,0,1,,,,,,,,,0,,,69,0
64085,note_on,,5,0,2,,,,,,,,,1,,,66,0
64086,note_on,,2,0,1,,,,,,,,,0,,,71,95
64086,note_on,,1,0,2,,,,,,,,,1,,,68,95
64090,note_on,,4,0,1,,,,,,,,,0,,,71,0
64091,note_on,,5,0,2,,,,,,,,,1,,,68,0
64092,note_on,,2,0,1,,,,,,,,,0,,,69,95
64092,note_on,,1,0,2,,,,,,,,,1,,,66,95
64094,note_on,,14,0,3,,,,,,,,,2,,,69,0
64096,note_on,,0,0,4,,,,,,,,,3,,,76,95
64096,note_on,,16,0,4,,,,,,,,,3,,,73,0
64096,note_on,,4,0,1,,,,,,,,,0,,,69,0
64096,note_on,,2,0,3,,,,,,,,,2,,,73,95
64097,note_on,,5,0,2,,,,,,,,,1,,,66,0
64098,note_on,,2,0,1,,,,,,,,,0,,,71,95
64098,note_on,,1,0,2,,,,,,,,,1,,,68,95
64102,note_on,,4,0,1,,,,,,,,,0,,,71,0
64103,note_on,,5,0,2,,,,,,,,,1,,,68,0
64104,note_on,,2,0,1,,,,,,,,,0,,,69,95
64104,note_on,,1,0,2,,,,,,,,,1,,,66,95
64108,note_on,,4,0,1,,,,,,,,,0,,,69,0
64109,note_on,,5,0,2,,,,,,,,,1,,,66,0
64110,note_on,,14,0,3,,,,,,,,,2,,,73,0
64110,note_on,,2,0,1,,,,,,,,,0,,,71,95
64110,note_on,,1,0,2,,,,,,,,,1,,,68,95
64112,note_on,,2,0,3,,,,,,,,,2,,,71,95
64112,note_on,,0,0,4,,,,,,,,,3,,,74,95
64112,note_on,,16,0,4,,,,,,,,,3,,,76,0
64114,note_on,,4,0,1,,,,,,,,,0,,,71,0
64115,note_on,,5,0,2,,,,,,,,,1,,,68,0
64116,note_on,,1,0,2,,,,,,,,,1,,,66,95
64116,note_on,,2,0,1,,,,,,,,,0,,,69,95
64120,note_on,,4,0,1,,,,,,,,,0,,,69,0
64121,note_on,,5,0,2,,,,,,,,,1,,,66,0
64122,note_on,,2,0,1,,,,,,,,,0,,,71,95
64122,note_on,,1,0,2,,,,,,,,,1,,,68,95
64126,note_on,,4,0,1,,,,,,,,,0,,,71,0
64126,note_on,,14,0,3,,,,,,,,,2,,,71,0
64127,note_on,,5,0,2,,,,,,,,,1,,,68,0
64128,note_on,,2,0,3,,,,,,,,,2,,,69,95
64128,note_on,,1,0,2,,,,,,,,,1,,,66,95
64128,note_on,,0,0,4,,,,,,,,,3,,,73,95
64128,note_on,,16,0,4,,,,,,,,,3,,,74,0
64128,note_on,,2,0,1,,,,,,,,,0,,,69,95
64139,note_on,,11,0,1,,,,,,,,,0,,,69,0
64141,note_on,,13,0,2,,,,,,,,,1,,,66,0
64144,note_on,,5,0,1,,,,,,,,,0,,,73,95
64144,note_on,,3,0,2,,,,,,,,,1,,,69,95
64155,note_on,,11,0,1,,,,,,,,,0,,,73,0
64157,note_on,,13,0,2,,,,,,,,,1,,,69,0
64160,note_on,,5,0,1,,,,,,,,,0,,,71,95
64160,note_on,,3,0,2,,,,,,,,,1,,,68,95
64171,note_on,,11,0,1,,,,,,,,,0,,,71,0
64173,note_on,,13,0,2,,,,,,,,,1,,,68,0
64176,note_on,,5,0,1,,,,,,,,,0,,,69,95
64176,note_on,,3,0,2,,,,,,,,,1,,,66,95
64187,note_on,,11,0,1,,,,,,,,,0,,,69,0
64189,note_on,,13,0,2,,,,,,,,,1,,,66,0
64192,note_on,,3,0,2,,,,,,,,,1,,,64,95
64192,note_on,,5,0,1,,,,,,,,,0,,,68,95
64203,note_on,,11,0,1,,,,,,,,,0,,,68,0
64205,note_on,,13,0,2,,,,,,,,,1,,,64,0
64208,note_on,,3,0,2,,,,,,,,,1,,,62,95
64208,note_on,,5,0,1,,,,,,,,,0,,,66,95
64212,note_on,,84,0,3,,,,,,,,,2,,,69,0
64219,note_on,,11,0,1,,,,,,,,,0,,,66,0
64221,note_on,,13,0,2,,,,,,,,,1,,,62,0
64224,note_on,,96,0,4,,,,,,,,,3,,,73,0
64224,note_on,,5,0,1,,,,,,,,,0,,,64,95
64224,note_on,,12,0,3,,,,,,,,,2,,,69,95
64224,note_on,,3,0,2,,,,,,,,,1,,,61,95
64228,note_on,,4,0,1,,,,,,,,,0,,,64,0
64229,note_on,,5,0,2,,,,,,,,,1,,,61,0
64230,note_on,,1,0,2,,,,,,,,,1,,,62,95
64230,note_on,,2,0,1,,,,,,,,,0,,,66,95
64234,note_on,,4,0,1,,,,,,,,,0,,,66,0
64235,note_on,,5,0,2,,,,,,,,,1,,,62,0
64236,note_on,,1,0,2,,,,,,,,,1,,,61,95
64236,note_on,,2,0,1,,,,,,,,,0,,,64,95
64238,note_on,,14,0,3,,,,,,,,,2,,,69,0
64240,note_on,,4,0,1,,,,,,,,,0,,,64,0
64240,note_on,,2,0,3,,,,,,,,,2,,,73,95
64240,note_on,,16,0,4,,,,,,,,,3,,,64,95
64241,note_on,,5,0,2,,,,,,,,,1,,,61,0
64242,note_on,,1,0,2,,,,,,,,,1,,,62,95
64242,note_on,,2,0,1,,,,,,,,,0,,,66,95
64246,note_on,,4,0,1,,,,,,,,,0,,,66,0
64247,note_on,,5,0,2,,,,,,,,,1,,,62,0
64248,note_on,,2,0,1,,,,,,,,,0,,,64,95
64248,note_on,,1,0,2,,,,,,,,,1,,,61,95
64252,note_on,,4,0,1,,,,,,,,,0,,,64,0
64253,note_on,,5,0,2,,,,,,,,,1,,,61,0
64254,note_on,,14,0,3,,,,,,,,,2,,,73,0
64254,note_on,,2,0,1,,,,,,,,,0,,,66,95
64254,note_on,,1,0,2,,,,,,,,,1,,,62,95
64256,note_on,,0,0,4,,,,,,,,,3,,,62,95
64256,note_on,,16,0,4,,,,,,,,,3,,,64,0
64256,note_on,,2,0,3,,,,,,,,,2,,,71,95
64258,note_on,,4,0,1,,,,,,,,,0,,,66,0
64259,note_on,,5,0,2,,,,,,,,,1,,,62,0
64260,note_on,,2,0,1,,,,,,,,,0,,,64,95
64260,note_on,,1,0,2,,,,,,,,,1,,,61,95
64264,note_on,,4,0,1,,,,,,,,,0,,,64,0
64265,note_on,,5,0,2,,,,,,,,,1,,,61,0
64266,note_on,,2,0,1,,,,,,,,,0,,,66,95
64266,note_on,,1,0,2,,,,,,,,,1,,,62,95
64270,note_on,,14,0,3,,,,,,,,,2,,,71,0
64270,note_on,,4,0,1,,,,,,,,,0,,,66,0
64271,note_on,,5,0,2,,,,,,,,,1,,,62,0
64272,note_on,,2,0,3,,,,,,,,,2,,,69,95
64272,note_on,,1,0,2,,,,,,,,,1,,,61,95
64272,note_on,,16,0,4,,,,,,,,,3,,,62,0
64272,note_on,,0,0,4,,,,,,,,,3,,,61,95
64272,note_on,,2,0,1,,,,,,,,,0,,,64,95
64276,note_on,,4,0,1,,,,,,,,,0,,,64,0
64277,note_on,,5,0,2,,,,,,,,,1,,,61,0
64278,note_on,,1,0,2,,,,,,,,,1,,,62,95
64278,note_on,,2,0,1,,,,,,,,,0,,,66,95
64282,note_on,,4,0,1,,,,,,,,,0,,,66,0
64283,note_on,,5,0,2,,,,,,,,,1,,,62,0
64284,note_on,,2,0,1,,,,,,,,,0,,,64,95
64284,note_on,,1,0,2,,,,,,,,,1,,,61,95
64286,note_on,,14,0,3,,,,,,,,,2,,,69,0
64288,note_on,,0,0,4,,,,,,,,,3,,,64,95
64288,note_on,,16,0,4,,,,,,,,,3,,,61,0
64288,note_on,,4,0,1,,,,,,,,,0,,,64,0
64288,note_on,,2,0,3,,,,,,,,,2,,,73,95
64289,note_on,,5,0,2,,,,,,,,,1,,,61,0
64290,note_on,,1,0,2,,,,,,,,,1,,,62,95
64290,note_on,,2,0,1,,,,,,,,,0,,,66,95
64294,note_on,,4,0,1,,,,,,,,,0,,,66,0
64295,note_on,,5,0,2,,,,,,,,,1,,,62,0
64296,note_on,,1,0,2,,,,,,,,,1,,,61,95
64296,note_on,,2,0,1,,,,,,,,,0,,,64,95
64300,note_on,,4,0,1,,,,,,,,,0,,,64,0
64301,note_on,,5,0,2,,,,,,,,,1,,,61,0
64302,note_on,,2,0,1,,,,,,,,,0,,,66,95
64302,note_on,,14,0,3,,,,,,,,,2,,,73,0
64302,note_on,,1,0,2,,,,,,,,,1,,,62,95
64304,note_on,,2,0,3,,,,,,,,,2,,,71,95
64304,note_on,,0,0,4,,,,,,,,,3,,,62,95
64304,note_on,,16,0,4,,,,,,,,,3,,,64,0
64306,note_on,,4,0,1,,,,,,,,,0,,,66,0
64307,note_on,,5,0,2,,,,,,,,,1,,,62,0
64308,note_on,,2,0,1,,,,,,,,,0,,,64,95
64308,note_on,,1,0,2,,,,,,,,,1,,,61,95
64312,note_on,,4,0,1,,,,,,,,,0,,,64,0
64313,note_on,,5,0,2,,,,,,,,,1,,,61,0
64314,note_on,,2,0,1,,,,,,,,,0,,,66,95
64314,note_on,,1,0,2,,,,,,,,,1,,,62,95
64318,note_on,,4,0,1,,,,,,,,,0,,,66,0
64318,note_on,,14,0,3,,,,,,,,,2,,,71,0
64319,note_on,,5,0,2,,,,,,,,,1,,,62,0
64320,note_on,,2,0,3,,,,,,,,,2,,,69,95
64320,note_on,,1,0,2,,,,,,,,,1,,,61,95
64320,note_on,,0,0,4,,,,,,,,,3,,,61,95
64320,note_on,,2,0,1,,,,,,,,,0,,,64,95
64320,note_on,,16,0,4,,,,,,,,,3,,,62,0
64331,note_on,,11,0,1,,,,,,,,,0,,,64,0
64333,note_on,,13,0,2,,,,,,,,,1,,,61,0
64336,note_on,,5,0,1,,,,,,,,,0,,,61,95
64336,note_on,,3,0,2,,,,,,,,,1,,,57,95
64347,note_on,,11,0,1,,,,,,,,,0,,,61,0
64349,note_on,,13,0,2,,,,,,,,,1,,,57,0
64352,note_on,,5,0,1,,,,,,,,,0,,,62,95
64352,note_on,,3,0,2,,,,,,,,,1,,,59,95
64363,note_on,,11,0,1,,,,,,,,,0,,,62,0
64365,note_on,,13,0,2,,,,,,,,,1,,,59,0
64368,note_on,,3,0,2,,,,,,,,,1,,,61,95
64368,note_on,,5,0,1,,,,,,,,,0,,,64,95
64379,note_on,,11,0,1,,,,,,,,,0,,,64,0
64381,note_on,,13,0,2,,,,,,,,,1,,,61,0
64384,note_on,,5,0,1,,,,,,,,,0,,,62,95
64384,note_on,,3,0,2,,,,,,,,,1,,,59,95
64395,note_on,,11,0,1,,,,,,,,,0,,,62,0
64397,note_on,,13,0,2,,,,,,,,,1,,,59,0
64400,note_on,,5,0,1,,,,,,,,,0,,,64,95
64400,note_on,,3,0,2,,,,,,,,,1,,,61,95
64404,note_on,,84,0,3,,,,,,,,,2,,,69,0
64411,note_on,,11,0,1,,,,,,,,,0,,,64,0
64413,note_on,,13,0,2,,,,,,,,,1,,,61,0
64416,note_on,,12,0,3,,,,,,,,,2,,,69,95
64416,note_on,,96,0,4,,,,,,,,,3,,,61,0
64416,note_on,,0,0,4,,,,,,,,,3,,,59,95
64416,note_on,,5,0,1,,,,,,,,,0,,,66,95
64416,note_on,,3,0,2,,,,,,,,,1,,,63,95
64427,note_on,,11,0,1,,,,,,,,,0,,,66,0
64429,note_on,,13,0,2,,,,,,,,,1,,,63,0
64432,note_on,,3,0,2,,,,,,,,,1,,,66,95
64432,note_on,,5,0,1,,,,,,,,,0,,,69,95
64443,note_on,,11,0,1,,,,,,,,,0,,,69,0
64445,note_on,,13,0,2,,,,,,,,,1,,,66,0
64448,note_on,,5,0,1,,,,,,,,,0,,,68,95
64448,note_on,,3,0,2,,,,,,,,,1,,,64,95
64459,note_on,,11,0,1,,,,,,,,,0,,,68,0
64461,note_on,,13,0,2,,,,,,,,,1,,,64,0
64464,note_on,,3,0,2,,,,,,,,,1,,,63,95
64464,note_on,,5,0,1,,,,,,,,,0,,,66,95
64475,note_on,,11,0,1,,,,,,,,,0,,,66,0
64477,note_on,,13,0,2,,,,,,,,,1,,,63,0
64480,note_on,,5,0,1,,,,,,,,,0,,,69,95
64480,note_on,,3,0,2,,,,,,,,,1,,,66,95
64491,note_on,,11,0,1,,,,,,,,,0,,,69,0
64493,note_on,,13,0,2,,,,,,,,,1,,,66,0
64496,note_on,,5,0,1,,,,,,,,,0,,,68,95
64496,note_on,,3,0,2,,,,,,,,,1,,,64,95
64500,note_on,,84,0,3,,,,,,,,,2,,,69,0
64507,note_on,,11,0,1,,,,,,,,,0,,,68,0
64509,note_on,,13,0,2,,,,,,,,,1,,,64,0
64512,note_on,,5,0,1,,,,,,,,,0,,,66,95
64512,note_on,,0,0,4,,,,,,,,,3,,,78,95
64512,note_on,,96,0,4,,,,,,,,,3,,,59,0
64512,note_on,,3,0,2,,,,,,,,,1,,,63,95
64512,note_on,,12,0,3,,,,,,,,,2,,,69,95
64523,note_on,,11,0,1,,,,,,,,,0,,,66,0
64528,note_on,,0,0,2,,,,,,,,,1,,,59,95
64528,note_on,,16,0,2,,,,,,,,,1,,,63,0
64528,note_on,,5,0,1,,,,,,,,,0,,,63,95
64539,note_on,,11,0,1,,,,,,,,,0,,,63,0
64544,note_on,,0,0,2,,,,,,,,,1,,,61,95
64544,note_on,,16,0,2,,,,,,,,,1,,,59,0
64544,note_on,,5,0,1,,,,,,,,,0,,,64,95
64555,note_on,,11,0,1,,,,,,,,,0,,,64,0
64560,note_on,,5,0,1,,,,,,,,,0,,,66,95
64560,note_on,,16,0,2,,,,,,,,,1,,,61,0
64560,note_on,,0,0,2,,,,,,,,,1,,,63,95
64571,note_on,,11,0,1,,,,,,,,,0,,,66,0
64573,note_on,,13,0,2,,,,,,,,,1,,,63,0
64576,note_on,,5,0,1,,,,,,,,,0,,,64,95
64576,note_on,,3,0,2,,,,,,,,,1,,,61,95
64587,note_on,,11,0,1,,,,,,,,,0,,,64,0
64589,note_on,,13,0,2,,,,,,,,,1,,,61,0
64592,note_on,,5,0,1,,,,,,,,,0,,,66,95
64592,note_on,,3,0,2,,,,,,,,,1,,,63,95
64596,note_on,,84,0,3,,,,,,,,,2,,,69,0
64603,note_on,,11,0,1,,,,,,,,,0,,,66,0
64605,note_on,,13,0,2,,,,,,,,,1,,,63,0
64608,note_on,,12,0,3,,,,,,,,,2,,,68,95
64608,note_on,,5,0,1,,,,,,,,,0,,,68,95
64608,note_on,,3,0,2,,,,,,,,,1,,,64,95
64615,note_on,,7,0,2,,,,,,,,,1,,,64,0
64616,note_on,,1,0,2,,,,,,,,,1,,,62,95
64619,note_on,,11,0,1,,,,,,,,,0,,,68,0
64622,note_on,,14,0,3,,,,,,,,,2,,,68,0
64623,note_on,,7,0,2,,,,,,,,,1,,,62,0
64624,note_on,,2,0,3,,,,,,,,,2,,,69,95
64624,note_on,,1,0,2,,,,,,,,,1,,,64,95
64631,note_on,,7,0,2,,,,,,,,,1,,,64,0
64632,note_on,,1,0,2,,,,,,,,,1,,,66,95
64638,note_on,,14,0,3,,,,,,,,,2,,,69,0
64639,note_on,,7,0,2,,,,,,,,,1,,,66,0
64640,note_on,,1,0,2,,,,,,,,,1,,,64,95
64640,note_on,,2,0,3,,,,,,,,,2,,,71,95
64647,note_on,,7,0,2,,,,,,,,,1,,,64,0
64648,note_on,,1,0,2,,,,,,,,,1,,,62,95
64654,note_on,,14,0,3,,,,,,,,,2,,,71,0
64655,note_on,,7,0,2,,,,,,,,,1,,,62,0
64656,note_on,,2,0,3,,,,,,,,,2,,,73,95
64656,note_on,,1,0,2,,,,,,,,,1,,,61,95
64656,note_on,,37,0,1,,,,,,,,,0,,,73,95
64656,note_on,,0,0,1,,,,,,,,,0,,,71,95
64656,note_on,,0,0,1,,,,,,,,,0,,,76,95
64656,note_on,,0,0,4,,,,,,,,,3,,,76,95
64656,note_on,,144,0,4,,,,,,,,,3,,,78,0
64663,note_on,,7,0,2,,,,,,,,,1,,,61,0
64664,note_on,,1,0,2,,,,,,,,,1,,,62,95
64671,note_on,,7,0,2,,,,,,,,,1,,,62,0
64672,note_on,,0,0,4,,,,,,,,,3,,,78,95
64672,note_on,,1,0,2,,,,,,,,,1,,,61,95
64672,note_on,,16,0,4,,,,,,,,,3,,,76,0
64679,note_on,,7,0,2,,,,,,,,,1,,,61,0
64680,note_on,,24,0,1,,,,,,,,,0,,,76,0
64680,note_on,,0,0,1,,,,,,,,,0,,,71,0
64680,note_on,,1,0,2,,,,,,,,,1,,,59,95
64680,note_on,,0,0,1,,,,,,,,,0,,,73,0
64687,note_on,,7,0,2,,,,,,,,,1,,,59,0
64688,note_on,,0,0,4,,,,,,,,,3,,,80,95
64688,note_on,,16,0,4,,,,,,,,,3,,,78,0
64688,note_on,,1,0,2,,,,,,,,,1,,,57,95
64695,note_on,,7,0,2,,,,,,,,,1,,,57,0
64696,note_on,,1,0,2,,,,,,,,,1,,,56,95
64703,note_on,,7,0,2,,,,,,,,,1,,,56,0
64704,note_on,,1,0,2,,,,,,,,,1,,,54,95
64704,note_on,,0,0,1,,,,,,,,,0,,,76,95
64704,note_on,,0,0,1,,,,,,,,,0,,,69,95
64704,note_on,,24,0,1,,,,,,,,,0,,,73,95
64704,note_on,,16,0,4,,,,,,,,,3,,,80,0
64704,note_on,,0,0,4,,,,,,,,,3,,,81,95
64711,note_on,,7,0,2,,,,,,,,,1,,,54,0
64712,note_on,,1,0,2,,,,,,,,,1,,,52,95
64719,note_on,,7,0,2,,,,,,,,,1,,,52,0
64719,note_on,,63,0,3,,,,,,,,,2,,,73,0
64720,note_on,,1,0,3,,,,,,,,,2,,,78,95
64720,note_on,,1,0,2,,,,,,,,,1,,,54,95
64727,note_on,,7,0,2,,,,,,,,,1,,,54,0
64728,note_on,,1,0,2,,,,,,,,,1,,,56,95
64728,note_on,,0,0,1,,,,,,,,,0,,,73,0
64728,note_on,,24,0,1,,,,,,,,,0,,,76,0
64728,note_on,,0,0,1,,,,,,,,,0,,,69,0
64730,note_on,,10,0,3,,,,,,,,,2,,,78,0
64735,note_on,,7,0,2,,,,,,,,,1,,,56,0
64736,note_on,,1,0,2,,,,,,,,,1,,,57,95
64736,note_on,,6,0,3,,,,,,,,,2,,,76,95
64743,note_on,,7,0,2,,,,,,,,,1,,,57,0
64744,note_on,,1,0,2,,,,,,,,,1,,,54,95
64746,note_on,,10,0,3,,,,,,,,,2,,,76,0
64751,note_on,,7,0,2,,,,,,,,,1,,,54,0
64752,note_on,,0,0,1,,,,,,,,,0,,,66,95
64752,note_on,,24,0,1,,,,,,,,,0,,,71,95
64752,note_on,,6,0,3,,,,,,,,,2,,,74,95
64752,note_on,,1,0,2,,,,,,,,,1,,,59,95
64752,note_on,,0,0,1,,,,,,,,,0,,,74,95
64759,note_on,,7,0,2,,,,,,,,,1,,,59,0
64760,note_on,,1,0,2,,,,,,,,,1,,,61,95
64767,note_on,,7,0,2,,,,,,,,,1,,,61,0
64768,note_on,,1,0,2,,,,,,,,,1,,,59,95
64768,note_on,,64,0,4,,,,,,,,,3,,,83,95
64775,note_on,,7,0,2,,,,,,,,,1,,,59,0
64776,note_on,,1,0,2,,,,,,,,,1,,,57,95
64776,note_on,,0,0,1,,,,,,,,,0,,,71,0
64776,note_on,,0,0,1,,,,,,,,,0,,,66,0
64776,note_on,,24,0,1,,,,,,,,,0,,,74,0
64776,note_on,,8,0,4,,,,,,,,,3,,,81,0
64783,note_on,,7,0,2,,,,,,,,,1,,,57,0
64784,note_on,,8,0,4,,,,,,,,,3,,,83,0
64784,note_on,,1,0,2,,,,,,,,,1,,,56,95
64784,note_on,,0,0,4,,,,,,,,,3,,,81,95
64791,note_on,,7,0,2,,,,,,,,,1,,,56,0
64792,note_on,,1,0,2,,,,,,,,,1,,,54,95
64799,note_on,,7,0,2,,,,,,,,,1,,,54,0
64800,note_on,,0,0,4,,,,,,,,,3,,,80,95
64800,note_on,,24,0,1,,,,,,,,,0,,,71,95
64800,note_on,,0,0,1,,,,,,,,,0,,,68,95
64800,note_on,,0,0,1,,,,,,,,,0,,,74,95
64800,note_on,,16,0,4,,,,,,,,,3,,,81,0
64800,note_on,,1,0,2,,,,,,,,,1,,,52,95
64807,note_on,,7,0,2,,,,,,,,,1,,,52,0
64808,note_on,,1,0,2,,,,,,,,,1,,,50,95
64815,note_on,,7,0,2,,,,,,,,,1,,,50,0
64816,note_on,,0,0,4,,,,,,,,,3,,,78,95
64816,note_on,,16,0,4,,,,,,,,,3,,,80,0
64816,note_on,,1,0,2,,,,,,,,,1,,,52,95
64823,note_on,,7,0,2,,,,,,,,,1,,,52,0
64824,note_on,,24,0,1,,,,,,,,,0,,,74,0
64824,note_on,,0,0,1,,,,,,,,,0,,,71,0
64824,note_on,,72,0,3,,,,,,,,,2,,,74,0
64824,note_on,,1,0,2,,,,,,,,,1,,,54,95
64824,note_on,,0,0,1,,,,,,,,,0,,,68,0
64831,note_on,,7,0,2,,,,,,,,,1,,,54,0
64832,note_on,,0,0,4,,,,,,,,,3,,,76,95
64832,note_on,,16,0,4,,,,,,,,,3,,,78,0
64832,note_on,,1,0,2,,,,,,,,,1,,,56,95
64836,note_on,,12,0,3,,,,,,,,,2,,,83,95
64839,note_on,,7,0,2,,,,,,,,,1,,,56,0
64840,note_on,,1,0,2,,,,,,,,,1,,,52,95
64847,note_on,,7,0,2,,,,,,,,,1,,,52,0
64848,note_on,,0,0,1,,,,,,,,,0,,,73,95
64848,note_on,,12,0,3,,,,,,,,,2,,,83,0
64848,note_on,,16,0,4,,,,,,,,,3,,,76,0
64848,note_on,,0,0,3,,,,,,,,,2,,,73,95
64848,note_on,,1,0,2,,,,,,,,,1,,,54,95
64848,note_on,,24,0,1,,,,,,,,,0,,,69,95
64848,note_on,,0,0,4,,,,,,,,,3,,,81,95
64855,note_on,,7,0,2,,,,,,,,,1,,,54,0
64856,note_on,,1,0,2,,,,,,,,,1,,,57,95
64863,note_on,,7,0,2,,,,,,,,,1,,,57,0
64864,note_on,,1,0,2,,,,,,,,,1,,,56,95
64871,note_on,,7,0,2,,,,,,,,,1,,,56,0
64872,note_on,,1,0,2,,,,,,,,,1,,,54,95
64879,note_on,,7,0,2,,,,,,,,,1,,,54,0
64880,note_on,,1,0,2,,,,,,,,,1,,,52,95
64884,note_on,,0,0,1,,,,,,,,,0,,,74,95
64884,note_on,,36,0,1,,,,,,,,,0,,,73,0
64884,note_on,,36,0,3,,,,,,,,,2,,,73,0
64884,note_on,,0,0,3,,,,,,,,,2,,,78,95
64887,note_on,,7,0,2,,,,,,,,,1,,,52,0
64888,note_on,,1,0,2,,,,,,,,,1,,,50,95
64895,note_on,,7,0,2,,,,,,,,,1,,,50,0
64896,note_on,,0,0,1,,,,,,,,,0,,,76,95
64896,note_on,,1,0,2,,,,,,,,,1,,,49,95
64896,note_on,,12,0,3,,,,,,,,,2,,,78,0
64896,note_on,,12,0,1,,,,,,,,,0,,,74,0
64896,note_on,,0,0,3,,,,,,,,,2,,,76,95
64909,note_on,,13,0,2,,,,,,,,,1,,,49,0
64912,note_on,,3,0,2,,,,,,,,,1,,,47,95
64912,note_on,,0,0,3,,,,,,,,,2,,,74,95
64912,note_on,,16,0,3,,,,,,,,,2,,,76,0
64925,note_on,,13,0,2,,,,,,,,,1,,,47,0
64928,note_on,,0,0,3,,,,,,,,,2,,,73,95
64928,note_on,,3,0,2,,,,,,,,,1,,,45,95
64928,note_on,,16,0,3,,,,,,,,,2,,,74,0
64932,note_on,,36,0,1,,,,,,,,,0,,,76,0
64932,note_on,,0,0,1,,,,,,,,,0,,,78,95
64941,note_on,,13,0,2,,,,,,,,,1,,,45,0
64944,note_on,,0,0,1,,,,,,,,,0,,,69,0
64944,note_on,,0,0,1,,,,,,,,,0,,,71,95
64944,note_on,,0,0,3,,,,,,,,,2,,,71,95
64944,note_on,,16,0,3,,,,,,,,,2,,,73,0
64944,note_on,,0,0,4,,,,,,,,,3,,,80,95
64944,note_on,,96,0,4,,,,,,,,,3,,,81,0
64944,note_on,,3,0,2,,,,,,,,,1,,,52,95
64944,note_on,,12,0,1,,,,,,,,,0,,,78,0
64960,note_on,,16,0,3,,,,,,,,,2,,,71,0
64960,note_on,,0,0,3,,,,,,,,,2,,,73,95
64974,note_on,,30,0,2,,,,,,,,,1,,,52,0
64976,note_on,,16,0,3,,,,,,,,,2,,,73,0
64976,note_on,,0,0,3,,,,,,,,,2,,,74,95
64980,note_on,,0,0,1,,,,,,,,,0,,,69,95
64980,note_on,,36,0,1,,,,,,,,,0,,,71,0
64980,note_on,,6,0,2,,,,,,,,,1,,,40,95
64990,note_on,,10,0,2,,,,,,,,,1,,,40,0
64992,note_on,,0,0,1,,,,,,,,,0,,,69,95
64992,note_on,,16,0,3,,,,,,,,,2,,,74,0
64992,note_on,,0,0,3,,,,,,,,,2,,,73,95
64992,note_on,,12,0,1,,,,,,,,,0,,,69,0
64992,note_on,,2,0,2,,,,,,,,,1,,,45,95
64992,note_on,,0,0,4,,,,,,,,,3,,,81,95
64992,note_on,,48,0,4,,,,,,,,,3,,,80,0
65008,note_on,,16,0,3,,,,,,,,,2,,,73,0
65008,note_on,,0,0,3,,,,,,,,,2,,,71,95
65016,note_on,,24,0,2,,,,,,,,,1,,,45,0
65016,note_on,,24,0,1,,,,,,,,,0,,,69,0
65024,note_on,,16,0,3,,,,,,,,,2,,,71,0
65024,note_on,,0,0,3,,,,,,,,,2,,,69,95
65028,note_on,,21492,0,6,,,,,,,,,5,,,69,95
65040,note_on,,21504,0,8,,,,,,,,,7,,,30,95
65040,note_on,,12,0,6,,,,,,,,,5,,,69,0
65040,note_on,,16,0,3,,,,,,,,,2,,,69,0
65040,note_on,,24,0,2,,,,,,,,,1,,,42,95
65040,note_on,,21504,0,7,,,,,,,,,6,,,42,95
65040,note_on,,0,0,6,,,,,,,,,5,,,74,95
65040,note_on,,0,0,3,,,,,,,,,2,,,74,95
65056,note_on,,16,0,8,,,,,,,,,7,,,30,0
65056,note_on,,64,0,4,,,,,,,,,3,,,79,95
65056,note_on,,16,0,7,,,,,,,,,6,,,42,0
65064,note_on,,24,0,2,,,,,,,,,1,,,42,0
65064,note_on,,8,0,4,,,,,,,,,3,,,81,0
65072,note_on,,0,0,4,,,,,,,,,3,,,78,95
65072,note_on,,8,0,4,,,,,,,,,3,,,79,0
65076,note_on,,0,0,6,,,,,,,,,5,,,69,95
65076,note_on,,36,0,6,,,,,,,,,5,,,74,0
65088,note_on,,32,0,7,,,,,,,,,6,,,43,95
65088,note_on,,24,0,2,,,,,,,,,1,,,43,95
65088,note_on,,32,0,8,,,,,,,,,7,,,31,95
65088,note_on,,0,0,6,,,,,,,,,5,,,71,95
65088,note_on,,12,0,6,,,,,,,,,5,,,69,0
65088,note_on,,16,0,4,,,,,,,,,3,,,78,0
65088,note_on,,0,0,4,,,,,,,,,3,,,76,95
65104,note_on,,16,0,8,,,,,,,,,7,,,31,0
65104,note_on,,64,0,3,,,,,,,,,2,,,73,95
65104,note_on,,16,0,6,,,,,,,,,5,,,71,0
65104,note_on,,0,0,6,,,,,,,,,5,,,69,95
65104,note_on,,16,0,7,,,,,,,,,6,,,43,0
65112,note_on,,24,0,2,,,,,,,,,1,,,43,0
65112,note_on,,8,0,3,,,,,,,,,2,,,74,0
65120,note_on,,8,0,3,,,,,,,,,2,,,73,0
65120,note_on,,16,0,6,,,,,,,,,5,,,69,0
65120,note_on,,0,0,3,,,,,,,,,2,,,71,95
65120,note_on,,0,0,6,,,,,,,,,5,,,67,95
65136,note_on,,0,0,6,,,,,,,,,5,,,66,95
65136,note_on,,24,0,2,,,,,,,,,1,,,45,95
65136,note_on,,32,0,8,,,,,,,,,7,,,33,95
65136,note_on,,16,0,3,,,,,,,,,2,,,71,0
65136,note_on,,0,0,3,,,,,,,,,2,,,69,95
65136,note_on,,32,0,7,,,,,,,,,6,,,45,95
65136,note_on,,16,0,6,,,,,,,,,5,,,67,0
65152,note_on,,16,0,6,,,,,,,,,5,,,66,0
65152,note_on,,16,0,8,,,,,,,,,7,,,33,0
65152,note_on,,16,0,7,,,,,,,,,6,,,45,0
65152,note_on,,0,0,6,,,,,,,,,5,,,67,95
65152,note_on,,64,0,4,,,,,,,,,3,,,74,95
65160,note_on,,24,0,2,,,,,,,,,1,,,45,0
65160,note_on,,8,0,4,,,,,,,,,3,,,76,0
65168,note_on,,0,0,6,,,,,,,,,5,,,69,95
65168,note_on,,16,0,6,,,,,,,,,5,,,67,0
65168,note_on,,8,0,4,,,,,,,,,3,,,74,0
65168,note_on,,0,0,4,,,,,,,,,3,,,73,95
65172,note_on,,0,0,3,,,,,,,,,2,,,67,95
65172,note_on,,36,0,3,,,,,,,,,2,,,69,0
65184,note_on,,32,0,8,,,,,,,,,7,,,35,95
65184,note_on,,16,0,4,,,,,,,,,3,,,73,0
65184,note_on,,0,0,3,,,,,,,,,2,,,66,95
65184,note_on,,12,0,3,,,,,,,,,2,,,67,0
65184,note_on,,16,0,6,,,,,,,,,5,,,69,0
65184,note_on,,0,0,6,,,,,,,,,5,,,62,95
65184,note_on,,32,0,7,,,,,,,,,6,,,47,95
65184,note_on,,24,0,2,,,,,,,,,1,,,47,95
65184,note_on,,0,0,4,,,,,,,,,3,,,74,95
65200,note_on,,0,0,3,,,,,,,,,2,,,64,95
65200,note_on,,16,0,4,,,,,,,,,3,,,74,0
65200,note_on,,16,0,3,,,,,,,,,2,,,66,0
65200,note_on,,16,0,8,,,,,,,,,7,,,35,0
65200,note_on,,16,0,7,,,,,,,,,6,,,47,0
65200,note_on,,0,0,4,,,,,,,,,3,,,73,95
65208,note_on,,24,0,2,,,,,,,,,1,,,47,0
65208,note_on,,24,0,6,,,,,,,,,5,,,62,0
65216,note_on,,0,0,4,,,,,,,,,3,,,71,95
65216,note_on,,16,0,4,,,,,,,,,3,,,73,0
65216,note_on,,16,0,3,,,,,,,,,2,,,64,0
65216,note_on,,0,0,3,,,,,,,,,2,,,62,95
65220,note_on,,21684,0,5,,,,,,,,,4,,,74,95
65232,note_on,,24,0,2,,,,,,,,,1,,,49,95
65232,note_on,,0,0,3,,,,,,,,,2,,,69,95
65232,note_on,,24,0,6,,,,,,,,,5,,,64,95
65232,note_on,,12,0,5,,,,,,,,,4,,,74,0
65232,note_on,,16,0,4,,,,,,,,,3,,,71,0
65232,note_on,,32,0,8,,,,,,,,,7,,,37,95
65232,note_on,,16,0,3,,,,,,,,,2,,,62,0
65232,note_on,,0,0,5,,,,,,,,,4,,,81,95
65232,note_on,,0,0,4,,,,,,,,,3,,,69,95
65232,note_on,,32,0,7,,,,,,,,,6,,,49,95
65248,note_on,,0,0,4,,,,,,,,,3,,,73,95
65248,note_on,,16,0,8,,,,,,,,,7,,,37,0
65248,note_on,,16,0,7,,,,,,,,,6,,,49,0
65248,note_on,,16,0,4,,,,,,,,,3,,,69,0
65256,note_on,,24,0,6,,,,,,,,,5,,,64,0
65256,note_on,,24,0,2,,,,,,,,,1,,,49,0
65256,note_on,,24,0,3,,,,,,,,,2,,,69,0
65264,note_on,,0,0,4,,,,,,,,,3,,,79,95
65264,note_on,,16,0,4,,,,,,,,,3,,,73,0
65268,note_on,,0,0,5,,,,,,,,,4,,,74,95
65268,note_on,,36,0,5,,,,,,,,,4,,,81,0
65280,note_on,,12,0,5,,,,,,,,,4,,,74,0
65280,note_on,,0,0,5,,,,,,,,,4,,,78,95
65280,note_on,,32,0,7,,,,,,,,,6,,,50,95
65280,note_on,,32,0,8,,,,,,,,,7,,,38,95
65280,note_on,,16,0,4,,,,,,,,,3,,,79,0
65280,note_on,,0,0,4,,,,,,,,,3,,,78,95
65280,note_on,,24,0,2,,,,,,,,,1,,,50,95
65280,note_on,,24,0,6,,,,,,,,,5,,,57,95
65296,note_on,,16,0,8,,,,,,,,,7,,,38,0
65296,note_on,,16,0,5,,,,,,,,,4,,,78,0
65296,note_on,,0,0,5,,,,,,,,,4,,,76,95
65296,note_on,,16,0,7,,,,,,,,,6,,,50,0
65304,note_on,,24,0,6,,,,,,,,,5,,,57,0
65304,note_on,,24,0,4,,,,,,,,,3,,,78,0
65304,note_on,,24,0,2,,,,,,,,,1,,,50,0
65312,note_on,,16,0,5,,,,,,,,,4,,,76,0
65312,note_on,,0,0,5,,,,,,,,,4,,,74,95
65328,note_on,,24,0,2,,,,,,,,,1,,,52,95
65328,note_on,,32,0,8,,,,,,,,,7,,,40,95
65328,note_on,,24,0,4,,,,,,,,,3,,,80,95
65328,note_on,,32,0,7,,,,,,,,,6,,,52,95
65328,note_on,,24,0,6,,,,,,,,,5,,,64,95
65328,note_on,,0,0,5,,,,,,,,,4,,,73,95
65328,note_on,,16,0,5,,,,,,,,,4,,,74,0
65344,note_on,,0,0,5,,,,,,,,,4,,,74,95
65344,note_on,,16,0,8,,,,,,,,,7,,,40,0
65344,note_on,,16,0,5,,,,,,,,,4,,,73,0
65344,note_on,,16,0,7,,,,,,,,,6,,,52,0
65352,note_on,,24,0,2,,,,,,,,,1,,,52,0
65352,note_on,,24,0,6,,,,,,,,,5,,,64,0
65352,note_on,,24,0,4,,,,,,,,,3,,,80,0
65360,note_on,,0,0,5,,,,,,,,,4,,,76,95
65360,note_on,,16,0,5,,,,,,,,,4,,,74,0
65376,note_on,,32,0,7,,,,,,,,,6,,,54,95
65376,note_on,,24,0,2,,,,,,,,,1,,,54,95
65376,note_on,,0,0,5,,,,,,,,,4,,,69,95
65376,note_on,,32,0,8,,,,,,,,,7,,,42,95
65376,note_on,,24,0,6,,,,,,,,,5,,,61,95
65376,note_on,,24,0,4,,,,,,,,,3,,,81,95
65376,note_on,,16,0,5,,,,,,,,,4,,,76,0
65392,note_on,,0,0,6,,,,,,,,,5,,,62,95
65392,note_on,,16,0,6,,,,,,,,,5,,,61,0
65392,note_on,,16,0,5,,,,,,,,,4,,,69,0
65392,note_on,,0,0,5,,,,,,,,,4,,,71,95
65392,note_on,,16,0,8,,,,,,,,,7,,,42,0
65392,note_on,,16,0,7,,,,,,,,,6,,,54,0
65400,note_on,,24,0,2,,,,,,,,,1,,,54,0
65408,note_on,,16,0,5,,,,,,,,,4,,,71,0
65408,note_on,,0,0,5,,,,,,,,,4,,,73,95
65408,note_on,,16,0,6,,,,,,,,,5,,,62,0
65408,note_on,,0,0,6,,,,,,,,,5,,,64,95
65412,note_on,,0,0,4,,,,,,,,,3,,,81,95
65412,note_on,,36,0,4,,,,,,,,,3,,,81,0
65412,note_on,,156,0,3,,,,,,,,,2,,,81,95
65424,note_on,,16,0,6,,,,,,,,,5,,,64,0
65424,note_on,,12,0,3,,,,,,,,,2,,,81,0
65424,note_on,,0,0,6,,,,,,,,,5,,,66,95
65424,note_on,,0,0,5,,,,,,,,,4,,,74,95
65424,note_on,,0,0,3,,,,,,,,,2,,,86,95
65424,note_on,,16,0,5,,,,,,,,,4,,,73,0
65424,note_on,,32,0,8,,,,,,,,,7,,,42,95
65424,note_on,,0,0,4,,,,,,,,,3,,,86,95
65424,note_on,,32,0,7,,,,,,,,,6,,,54,95
65424,note_on,,24,0,2,,,,,,,,,1,,,54,95
65424,note_on,,12,0,4,,,,,,,,,3,,,81,0
65440,note_on,,0,0,5,,,,,,,,,4,,,76,95
65440,note_on,,16,0,8,,,,,,,,,7,,,42,0
65440,note_on,,16,0,6,,,,,,,,,5,,,66,0
65440,note_on,,0,0,6,,,,,,,,,5,,,67,95
65440,note_on,,16,0,7,,,,,,,,,6,,,54,0
65440,note_on,,16,0,5,,,,,,,,,4,,,74,0
65448,note_on,,24,0,2,,,,,,,,,1,,,54,0
65456,note_on,,0,0,6,,,,,,,,,5,,,69,95
65456,note_on,,16,0,6,,,,,,,,,5,,,67,0
65456,note_on,,16,0,5,,,,,,,,,4,,,76,0
65456,note_on,,0,0,5,,,,,,,,,4,,,78,95
65460,note_on,,36,0,4,,,,,,,,,3,,,86,0
65460,note_on,,0,0,4,,,,,,,,,3,,,81,95
65460,note_on,,36,0,3,,,,,,,,,2,,,86,0
65460,note_on,,0,0,3,,,,,,,,,2,,,81,95
65472,note_on,,12,0,3,,,,,,,,,2,,,81,0
65472,note_on,,0,0,4,,,,,,,,,3,,,83,95
65472,note_on,,12,0,4,,,,,,,,,3,,,81,0
65472,note_on,,24,0,2,,,,,,,,,1,,,55,95
65472,note_on,,32,0,7,,,,,,,,,6,,,55,95
65472,note_on,,32,0,8,,,,,,,,,7,,,43,95
65472,note_on,,16,0,5,,,,,,,,,4,,,78,0
65472,note_on,,0,0,5,,,,,,,,,4,,,71,95
65472,note_on,,16,0,6,,,,,,,,,5,,,69,0
65472,note_on,,0,0,3,,,,,,,,,2,,,83,95
65472,note_on,,0,0,6,,,,,,,,,5,,,62,95
65488,note_on,,16,0,3,,,,,,,,,2,,,83,0
65488,note_on,,0,0,3,,,,,,,,,2,,,81,95
65488,note_on,,16,0,7,,,,,,,,,6,,,55,0
65488,note_on,,16,0,8,,,,,,,,,7,,,43,0
65488,note_on,,16,0,4,,,,,,,,,3,,,83,0
65488,note_on,,0,0,4,,,,,,,,,3,,,81,95
65496,note_on,,24,0,6,,,,,,,,,5,,,62,0
65496,note_on,,24,0,2,,,,,,,,,1,,,55,0
65496,note_on,,24,0,5,,,,,,,,,4,,,71,0
65504,note_on,,16,0,3,,,,,,,,,2,,,81,0
65504,note_on,,16,0,4,,,,,,,,,3,,,81,0
65504,note_on,,0,0,4,,,,,,,,,3,,,79,95
65504,note_on,,0,0,3,,,,,,,,,2,,,79,95
65520,note_on,,24,0,6,,,,,,,,,5,,,69,95
65520,note_on,,0,0,4,,,,,,,,,3,,,78,95
65520,note_on,,32,0,7,,,,,,,,,6,,,57,95
65520,note_on,,24,0,2,,,,,,,,,1,,,57,95
65520,note_on,,16,0,4,,,,,,,,,3,,,79,0
65520,note_on,,24,0,5,,,,,,,,,4,,,73,95
65520,note_on,,32,0,8,,,,,,,,,7,,,45,95
65520,note_on,,16,0,3,,,,,,,,,2,,,79,0
65520,note_on,,0,0,3,,,,,,,,,2,,,78,95
65536,note_on,,0,0,4,,,,,,,,,3,,,79,95
65536,note_on,,16,0,3,,,,,,,,,2,,,78,0
65536,note_on,,0,0,3,,,,,,,,,2,,,79,95
65536,note_on,,16,0,4,,,,,,,,,3,,,78,0
65536,note_on,,16,0,7,,,,,,,,,6,,,57,0
65536,note_on,,16,0,8,,,,,,,,,7,,,45,0
65544,note_on,,24,0,2,,,,,,,,,1,,,57,0
65544,note_on,,24,0,5,,,,,,,,,4,,,73,0
65544,note_on,,24,0,6,,,,,,,,,5,,,69,0
65552,note_on,,0,0,3,,,,,,,,,2,,,81,95
65552,note_on,,0,0,4,,,,,,,,,3,,,81,95
65552,note_on,,16,0,4,,,,,,,,,3,,,79,0
65552,note_on,,16,0,3,,,,,,,,,2,,,79,0
65568,note_on,,32,0,7,,,,,,,,,6,,,59,95
65568,note_on,,24,0,6,,,,,,,,,5,,,66,95
65568,note_on,,0,0,4,,,,,,,,,3,,,74,95
65568,note_on,,32,0,8,,,,,,,,,7,,,47,95
65568,note_on,,24,0,2,,,,,,,,,1,,,59,95
65568,note_on,,24,0,5,,,,,,,,,4,,,71,95
65568,note_on,,0,0,3,,,,,,,,,2,,,74,95
65568,note_on,,16,0,4,,,,,,,,,3,,,81,0
65568,note_on,,16,0,3,,,,,,,,,2,,,81,0
65584,note_on,,16,0,7,,,,,,,,,6,,,59,0
65584,note_on,,16,0,8,,,,,,,,,7,,,47,0
65584,note_on,,16,0,3,,,,,,,,,2,,,74,0
65584,note_on,,16,0,5,,,,,,,,,4,,,71,0
65584,note_on,,0,0,5,,,,,,,,,4,,,74,95
65592,note_on,,24,0,2,,,,,,,,,1,,,59,0
65592,note_on,,24,0,6,,,,,,,,,5,,,66,0
65592,note_on,,24,0,4,,,,,,,,,3,,,74,0
65600,note_on,,0,0,5,,,,,,,,,4,,,78,95
65600,note_on,,16,0,5,,,,,,,,,4,,,74,0
65616,note_on,,24,0,4,,,,,,,,,3,,,73,95
65616,note_on,,24,0,6,,,,,,,,,5,,,69,95
65616,note_on,,24,0,2,,,,,,,,,1,,,57,95
65616,note_on,,0,0,5,,,,,,,,,4,,,78,95
65616,note_on,,16,0,5,,,,,,,,,4,,,78,0
65616,note_on,,32,0,7,,,,,,,,,6,,,57,95
65616,note_on,,32,0,3,,,,,,,,,2,,,73,95
65616,note_on,,32,0,8,,,,,,,,,7,,,45,95
65632,note_on,,16,0,3,,,,,,,,,2,,,73,0
65632,note_on,,0,0,6,,,,,,,,,5,,,67,95
65632,note_on,,16,0,6,,,,,,,,,5,,,69,0
65632,note_on,,16,0,8,,,,,,,,,7,,,45,0
65632,note_on,,16,0,5,,,,,,,,,4,,,78,0
65632,note_on,,16,0,7,,,,,,,,,6,,,57,0
65632,note_on,,0,0,5,,,,,,,,,4,,,76,95
65640,note_on,,24,0,4,,,,,,,,,3,,,73,0
65640,note_on,,24,0,2,,,,,,,,,1,,,57,0
65648,note_on,,16,0,5,,,,,,,,,4,,,76,0
65648,note_on,,0,0,5,,,,,,,,,4,,,78,95
65648,note_on,,0,0,6,,,,,,,,,5,,,69,95
65648,note_on,,16,0,6,,,,,,,,,5,,,67,0
65664,note_on,,0,0,6,,,,,,,,,5,,,66,95
65664,note_on,,16,0,6,,,,,,,,,5,,,69,0
65664,note_on,,0,0,5,,,,,,,,,4,,,71,95
65664,note_on,,24,0,2,,,,,,,,,1,,,59,95
65664,note_on,,32,0,3,,,,,,,,,2,,,71,95
65664,note_on,,32,0,8,,,,,,,,,7,,,47,95
65664,note_on,,16,0,5,,,,,,,,,4,,,78,0
65664,note_on,,24,0,4,,,,,,,,,3,,,71,95
65664,note_on,,32,0,7,,,,,,,,,6,,,59,95
65680,note_on,,16,0,8,,,,,,,,,7,,,47,0
65680,note_on,,0,0,6,,,,,,,,,5,,,64,95
65680,note_on,,16,0,6,,,,,,,,,5,,,66,0
65680,note_on,,16,0,7,,,,,,,,,6,,,59,0
65680,note_on,,16,0,5,,,,,,,,,4,,,71,0
65680,note_on,,0,0,5,,,,,,,,,4,,,79,95
65680,note_on,,16,0,3,,,,,,,,,2,,,71,0
65688,note_on,,24,0,2,,,,,,,,,1,,,59,0
65688,note_on,,24,0,4,,,,,,,,,3,,,71,0
65696,note_on,,16,0,6,,,,,,,,,5,,,64,0
65696,note_on,,0,0,6,,,,,,,,,5,,,62,95
65696,note_on,,16,0,5,,,,,,,,,4,,,79,0
65696,note_on,,0,0,5,,,,,,,,,4,,,78,95
65712,note_on,,24,0,2,,,,,,,,,1,,,61,95
65712,note_on,,32,0,7,,,,,,,,,6,,,61,95
65712,note_on,,24,0,4,,,,,,,,,3,,,76,95
65712,note_on,,0,0,5,,,,,,,,,4,,,76,95
65712,note_on,,16,0,5,,,,,,,,,4,,,78,0
65712,note_on,,32,0,8,,,,,,,,,7,,,49,95
65712,note_on,,0,0,6,,,,,,,,,5,,,69,95
65712,note_on,,16,0,6,,,,,,,,,5,,,62,0
65712,note_on,,32,0,3,,,,,,,,,2,,,76,95
65728,note_on,,0,0,5,,,,,,,,,4,,,81,95
65728,note_on,,16,0,7,,,,,,,,,6,,,61,0
65728,note_on,,16,0,5,,,,,,,,,4,,,76,0
65728,note_on,,16,0,8,,,,,,,,,7,,,49,0
65728,note_on,,16,0,3,,,,,,,,,2,,,76,0
65736,note_on,,24,0,6,,,,,,,,,5,,,69,0
65736,note_on,,24,0,4,,,,,,,,,3,,,76,0
65736,note_on,,24,0,2,,,,,,,,,1,,,61,0
65744,note_on,,0,0,5,,,,,,,,,4,,,79,95
65744,note_on,,16,0,5,,,,,,,,,4,,,81,0
65760,note_on,,32,0,7,,,,,,,,,6,,,62,95
65760,note_on,,32,0,8,,,,,,,,,7,,,50,95
65760,note_on,,0,0,5,,,,,,,,,4,,,78,95
65760,note_on,,24,0,4,,,,,,,,,3,,,74,95
65760,note_on,,24,0,6,,,,,,,,,5,,,69,95
65760,note_on,,16,0,5,,,,,,,,,4,,,79,0
65760,note_on,,32,0,3,,,,,,,,,2,,,74,95
65760,note_on,,24,0,2,,,,,,,,,1,,,62,95
65776,note_on,,16,0,4,,,,,,,,,3,,,74,0
65776,note_on,,0,0,3,,,,,,,,,2,,,78,95
65776,note_on,,16,0,3,,,,,,,,,2,,,74,0
65776,note_on,,0,0,4,,,,,,,,,3,,,78,95
65776,note_on,,16,0,8,,,,,,,,,7,,,50,0
65776,note_on,,16,0,7,,,,,,,,,6,,,62,0
65784,note_on,,24,0,5,,,,,,,,,4,,,78,0
65784,note_on,,24,0,6,,,,,,,,,5,,,69,0
65784,note_on,,24,0,2,,,,,,,,,1,,,62,0
65792,note_on,,16,0,4,,,,,,,,,3,,,78,0
65792,note_on,,0,0,4,,,,,,,,,3,,,81,95
65792,note_on,,16,0,3,,,,,,,,,2,,,78,0
65792,note_on,,0,0,3,,,,,,,,,2,,,81,95
65808,note_on,,24,0,5,,,,,,,,,4,,,76,95
65808,note_on,,16,0,4,,,,,,,,,3,,,81,0
65808,note_on,,0,0,4,,,,,,,,,3,,,81,95
65808,note_on,,24,0,6,,,,,,,,,5,,,61,95
65808,note_on,,16,0,3,,,,,,,,,2,,,81,0
65808,note_on,,0,0,3,,,,,,,,,2,,,81,95
65824,note_on,,16,0,3,,,,,,,,,2,,,81,0
65824,note_on,,16,0,4,,,,,,,,,3,,,81,0
65824,note_on,,0,0,3,,,,,,,,,2,,,79,95
65824,note_on,,0,0,4,,,,,,,,,3,,,79,95
65832,note_on,,24,0,5,,,,,,,,,4,,,76,0
65832,note_on,,24,0,6,,,,,,,,,5,,,61,0
65840,note_on,,0,0,3,,,,,,,,,2,,,81,95
65840,note_on,,16,0,4,,,,,,,,,3,,,79,0
65840,note_on,,0,0,4,,,,,,,,,3,,,81,95
65840,note_on,,16,0,3,,,,,,,,,2,,,79,0
65856,note_on,,24,0,5,,,,,,,,,4,,,76,95
65856,note_on,,0,0,4,,,,,,,,,3,,,78,95
65856,note_on,,0,0,3,,,,,,,,,2,,,78,95
65856,note_on,,16,0,3,,,,,,,,,2,,,81,0
65856,note_on,,24,0,6,,,,,,,,,5,,,62,95
65856,note_on,,16,0,4,,,,,,,,,3,,,81,0
65872,note_on,,16,0,3,,,,,,,,,2,,,78,0
65872,note_on,,16,0,4,,,,,,,,,3,,,78,0
65872,note_on,,0,0,4,,,,,,,,,3,,,83,95
65872,note_on,,0,0,3,,,,,,,,,2,,,83,95
65880,note_on,,24,0,5,,,,,,,,,4,,,76,0
65880,note_on,,24,0,6,,,,,,,,,5,,,62,0
65888,note_on,,0,0,3,,,,,,,,,2,,,81,95
65888,note_on,,16,0,3,,,,,,,,,2,,,83,0
65888,note_on,,16,0,4,,,,,,,,,3,,,83,0
65888,note_on,,0,0,4,,,,,,,,,3,,,81,95
65904,note_on,,0,0,3,,,,,,,,,2,,,80,95
65904,note_on,,0,0,4,,,,,,,,,3,,,80,95
65904,note_on,,24,0,6,,,,,,,,,5,,,64,95
65904,note_on,,16,0,4,,,,,,,,,3,,,81,0
65904,note_on,,16,0,3,,,,,,,,,2,,,81,0
65904,note_on,,24,0,5,,,,,,,,,4,,,74,95
65920,note_on,,0,0,4,,,,,,,,,3,,,85,95
65920,note_on,,16,0,4,,,,,,,,,3,,,80,0
65920,note_on,,0,0,3,,,,,,,,,2,,,85,95
65920,note_on,,16,0,3,,,,,,,,,2,,,80,0
65928,note_on,,24,0,5,,,,,,,,,4,,,74,0
65928,note_on,,24,0,6,,,,,,,,,5,,,64,0
65936,note_on,,0,0,3,,,,,,,,,2,,,83,95
65936,note_on,,0,0,4,,,,,,,,,3,,,83,95
65936,note_on,,16,0,3,,,,,,,,,2,,,85,0
65936,note_on,,16,0,4,,,,,,,,,3,,,85,0
65952,note_on,,24,0,5,,,,,,,,,4,,,73,95
65952,note_on,,16,0,4,,,,,,,,,3,,,83,0
65952,note_on,,0,0,4,,,,,,,,,3,,,81,95
65952,note_on,,24,0,6,,,,,,,,,5,,,66,95
65952,note_on,,0,0,3,,,,,,,,,2,,,81,95
65952,note_on,,16,0,3,,,,,,,,,2,,,83,0
65968,note_on,,0,0,5,,,,,,,,,4,,,74,95
65968,note_on,,16,0,5,,,,,,,,,4,,,73,0
65984,note_on,,0,0,5,,,,,,,,,4,,,76,95
65984,note_on,,16,0,5,,,,,,,,,4,,,74,0
65988,note_on,,212,0,7,,,,,,,,,6,,,57,95
65988,note_on,,36,0,6,,,,,,,,,5,,,66,0
65988,note_on,,0,0,6,,,,,,,,,5,,,73,95
65988,note_on,,212,0,8,,,,,,,,,7,,,45,95
65988,note_on,,204,0,2,,,,,,,,,1,,,57,95
65996,note_on,,8,0,7,,,,,,,,,6,,,57,0
65996,note_on,,8,0,8,,,,,,,,,7,,,45,0
66000,note_on,,4,0,8,,,,,,,,,7,,,50,95
66000,note_on,,16,0,5,,,,,,,,,4,,,76,0
66000,note_on,,12,0,6,,,,,,,,,5,,,73,0
66000,note_on,,12,0,2,,,,,,,,,1,,,57,0
66000,note_on,,0,0,2,,,,,,,,,1,,,62,95
66000,note_on,,0,0,6,,,,,,,,,5,,,69,95
66000,note_on,,4,0,7,,,,,,,,,6,,,62,95
66000,note_on,,0,0,5,,,,,,,,,4,,,78,95
66016,note_on,,0,0,5,,,,,,,,,4,,,79,95
66016,note_on,,64,0,4,,,,,,,,,3,,,83,95
66016,note_on,,64,0,3,,,,,,,,,2,,,83,95
66016,note_on,,16,0,5,,,,,,,,,4,,,78,0
66024,note_on,,8,0,3,,,,,,,,,2,,,81,0
66024,note_on,,24,0,7,,,,,,,,,6,,,62,0
66024,note_on,,8,0,4,,,,,,,,,3,,,81,0
66024,note_on,,24,0,8,,,,,,,,,7,,,50,0
66032,note_on,,0,0,4,,,,,,,,,3,,,85,95
66032,note_on,,0,0,3,,,,,,,,,2,,,85,95
66032,note_on,,8,0,3,,,,,,,,,2,,,83,0
66032,note_on,,16,0,5,,,,,,,,,4,,,79,0
66032,note_on,,0,0,5,,,,,,,,,4,,,81,95
66032,note_on,,8,0,4,,,,,,,,,3,,,83,0
66036,note_on,,36,0,6,,,,,,,,,5,,,69,0
66036,note_on,,0,0,6,,,,,,,,,5,,,67,95
66036,note_on,,12,0,8,,,,,,,,,7,,,45,95
66036,note_on,,36,0,2,,,,,,,,,1,,,62,0
66036,note_on,,12,0,7,,,,,,,,,6,,,57,95
66036,note_on,,0,0,2,,,,,,,,,1,,,57,95
66044,note_on,,8,0,8,,,,,,,,,7,,,45,0
66044,note_on,,8,0,7,,,,,,,,,6,,,57,0
66048,note_on,,12,0,6,,,,,,,,,5,,,67,0
66048,note_on,,0,0,5,,,,,,,,,4,,,74,95
66048,note_on,,16,0,5,,,,,,,,,4,,,81,0
66048,note_on,,12,0,2,,,,,,,,,1,,,57,0
66048,note_on,,0,0,4,,,,,,,,,3,,,86,95
66048,note_on,,0,0,6,,,,,,,,,5,,,66,95
66048,note_on,,4,0,7,,,,,,,,,6,,,59,95
66048,note_on,,0,0,3,,,,,,,,,2,,,86,95
66048,note_on,,16,0,3,,,,,,,,,2,,,85,0
66048,note_on,,4,0,8,,,,,,,,,7,,,47,95
66048,note_on,,0,0,2,,,,,,,,,1,,,59,95
66048,note_on,,16,0,4,,,,,,,,,3,,,85,0
66059,note_on,,11,0,7,,,,,,,,,6,,,59,0
66059,note_on,,11,0,8,,,,,,,,,7,,,47,0
66064,note_on,,5,0,7,,,,,,,,,6,,,57,95
66064,note_on,,16,0,4,,,,,,,,,3,,,86,0
66064,note_on,,0,0,4,,,,,,,,,3,,,85,95
66064,note_on,,5,0,8,,,,,,,,,7,,,45,95
66064,note_on,,16,0,3,,,,,,,,,2,,,86,0
66064,note_on,,0,0,3,,,,,,,,,2,,,85,95
66064,note_on,,0,0,2,,,,,,,,,1,,,57,95
66064,note_on,,16,0,2,,,,,,,,,1,,,59,0
66075,note_on,,11,0,8,,,,,,,,,7,,,45,0
66075,note_on,,11,0,7,,,,,,,,,6,,,57,0
66080,note_on,,5,0,7,,,,,,,,,6,,,55,95
66080,note_on,,0,0,2,,,,,,,,,1,,,55,95
66080,note_on,,16,0,2,,,,,,,,,1,,,57,0
66080,note_on,,0,0,4,,,,,,,,,3,,,83,95
66080,note_on,,0,0,3,,,,,,,,,2,,,83,95
66080,note_on,,16,0,3,,,,,,,,,2,,,85,0
66080,note_on,,16,0,4,,,,,,,,,3,,,85,0
66080,note_on,,5,0,8,,,,,,,,,7,,,43,95
66084,note_on,,1068,0,1,,,,,,,,,0,,,74,95
66084,note_on,,36,0,6,,,,,,,,,5,,,66,0
66084,note_on,,0,0,6,,,,,,,,,5,,,67,95
66091,note_on,,11,0,8,,,,,,,,,7,,,43,0
66091,note_on,,11,0,7,,,,,,,,,6,,,55,0
66094,note_on,,10,0,1,,,,,,,,,0,,,74,0
66096,note_on,,5,0,8,,,,,,,,,7,,,42,95
66096,note_on,,16,0,2,,,,,,,,,1,,,55,0
66096,note_on,,0,0,4,,,,,,,,,3,,,81,95
66096,note_on,,12,0,6,,,,,,,,,5,,,67,0
66096,note_on,,0,0,2,,,,,,,,,1,,,54,95
66096,note_on,,2,0,1,,,,,,,,,0,,,81,95
66096,note_on,,16,0,3,,,,,,,,,2,,,83,0
66096,note_on,,0,0,6,,,,,,,,,5,,,69,95
66096,note_on,,0,0,3,,,,,,,,,2,,,81,95
66096,note_on,,5,0,7,,,,,,,,,6,,,54,95
66096,note_on,,16,0,4,,,,,,,,,3,,,83,0
66107,note_on,,11,0,8,,,,,,,,,7,,,42,0
66107,note_on,,11,0,7,,,,,,,,,6,,,54,0
66112,note_on,,16,0,3,,,,,,,,,2,,,81,0
66112,note_on,,0,0,3,,,,,,,,,2,,,83,95
66112,note_on,,5,0,8,,,,,,,,,7,,,43,95
66112,note_on,,16,0,4,,,,,,,,,3,,,81,0
66112,note_on,,5,0,7,,,,,,,,,6,,,55,95
66112,note_on,,16,0,2,,,,,,,,,1,,,54,0
66112,note_on,,0,0,2,,,,,,,,,1,,,55,95
66112,note_on,,0,0,4,,,,,,,,,3,,,83,95
66120,note_on,,72,0,5,,,,,,,,,4,,,74,0
66123,note_on,,11,0,8,,,,,,,,,7,,,43,0
66123,note_on,,11,0,7,,,,,,,,,6,,,55,0
66126,note_on,,30,0,1,,,,,,,,,0,,,81,0
66128,note_on,,16,0,3,,,,,,,,,2,,,83,0
66128,note_on,,16,0,4,,,,,,,,,3,,,83,0
66128,note_on,,0,0,3,,,,,,,,,2,,,79,95
66128,note_on,,0,0,4,,,,,,,,,3,,,79,95
66128,note_on,,0,0,2,,,,,,,,,1,,,57,95
66128,note_on,,16,0,2,,,,,,,,,1,,,55,0
66128,note_on,,5,0,8,,,,,,,,,7,,,45,95
66128,note_on,,5,0,7,,,,,,,,,6,,,57,95
66132,note_on,,0,0,6,,,,,,,,,5,,,69,95
66132,note_on,,36,0,6,,,,,,,,,5,,,69,0
66132,note_on,,6,0,1,,,,,,,,,0,,,76,95
66132,note_on,,12,0,5,,,,,,,,,4,,,73,95
66139,note_on,,11,0,8,,,,,,,,,7,,,45,0
66139,note_on,,11,0,7,,,,,,,,,6,,,57,0
66142,note_on,,10,0,1,,,,,,,,,0,,,76,0
66144,note_on,,5,0,8,,,,,,,,,7,,,38,95
66144,note_on,,16,0,4,,,,,,,,,3,,,79,0
66144,note_on,,2,0,1,,,,,,,,,0,,,78,95
66144,note_on,,0,0,2,,,,,,,,,1,,,50,95
66144,note_on,,0,0,4,,,,,,,,,3,,,78,95
66144,note_on,,16,0,2,,,,,,,,,1,,,57,0
66144,note_on,,0,0,5,,,,,,,,,4,,,74,95
66144,note_on,,12,0,5,,,,,,,,,4,,,73,0
66144,note_on,,0,0,6,,,,,,,,,5,,,69,95
66144,note_on,,0,0,3,,,,,,,,,2,,,78,95
66144,note_on,,16,0,3,,,,,,,,,2,,,79,0
66144,note_on,,5,0,7,,,,,,,,,6,,,50,95
66144,note_on,,12,0,6,,,,,,,,,5,,,69,0
66157,note_on,,13,0,1,,,,,,,,,0,,,78,0
66160,note_on,,3,0,1,,,,,,,,,0,,,76,95
66160,note_on,,16,0,8,,,,,,,,,7,,,38,0
66160,note_on,,16,0,7,,,,,,,,,6,,,50,0
66168,note_on,,24,0,4,,,,,,,,,3,,,78,0
66168,note_on,,24,0,5,,,,,,,,,4,,,74,0
66168,note_on,,24,0,2,,,,,,,,,1,,,50,0
66168,note_on,,24,0,3,,,,,,,,,2,,,78,0
66168,note_on,,24,0,6,,,,,,,,,5,,,69,0
66173,note_on,,13,0,1,,,,,,,,,0,,,76,0
66176,note_on,,3,0,1,,,,,,,,,0,,,74,95
66189,note_on,,13,0,1,,,,,,,,,0,,,74,0
66192,note_on,,24,0,4,,,,,,,,,3,,,79,95
66192,note_on,,24,0,2,,,,,,,,,1,,,52,95
66192,note_on,,24,0,5,,,,,,,,,4,,,73,95
66192,note_on,,24,0,3,,,,,,,,,2,,,79,95
66192,note_on,,32,0,8,,,,,,,,,7,,,40,95
66192,note_on,,32,0,7,,,,,,,,,6,,,52,95
66192,note_on,,3,0,1,,,,,,,,,0,,,73,95
66192,note_on,,24,0,6,,,,,,,,,5,,,67,95
66205,note_on,,13,0,1,,,,,,,,,0,,,73,0
66208,note_on,,16,0,7,,,,,,,,,6,,,52,0
66208,note_on,,16,0,8,,,,,,,,,7,,,40,0
66208,note_on,,3,0,1,,,,,,,,,0,,,74,95
66216,note_on,,24,0,4,,,,,,,,,3,,,79,0
66216,note_on,,24,0,6,,,,,,,,,5,,,67,0
66216,note_on,,24,0,3,,,,,,,,,2,,,79,0
66216,note_on,,24,0,5,,,,,,,,,4,,,73,0
66216,note_on,,24,0,2,,,,,,,,,1,,,52,0
66221,note_on,,13,0,1,,,,,,,,,0,,,74,0
66224,note_on,,3,0,1,,,,,,,,,0,,,76,95
66237,note_on,,13,0,1,,,,,,,,,0,,,76,0
66240,note_on,,24,0,5,,,,,,,,,4,,,74,95
66240,note_on,,24,0,4,,,,,,,,,3,,,81,95
66240,note_on,,32,0,7,,,,,,,,,6,,,54,95
66240,note_on,,24,0,2,,,,,,,,,1,,,54,95
66240,note_on,,32,0,8,,,,,,,,,7,,,42,95
66240,note_on,,3,0,1,,,,,,,,,0,,,69,77
66240,note_on,,24,0,6,,,,,,,,,5,,,66,95
66240,note_on,,24,0,3,,,,,,,,,2,,,81,85
66247,note_on,,7,0,1,,,,,,,,,0,,,69,0
66248,note_on,,1,0,1,,,,,,,,,0,,,66,55
66255,note_on,,7,0,1,,,,,,,,,0,,,66,0
66256,note_on,,16,0,8,,,,,,,,,7,,,42,0
66256,note_on,,16,0,7,,,,,,,,,6,,,54,0
66256,note_on,,16,0,4,,,,,,,,,3,,,81,0
66256,note_on,,1,0,1,,,,,,,,,0,,,67,62
66263,note_on,,7,0,1,,,,,,,,,0,,,67,0
66264,note_on,,24,0,5,,,,,,,,,4,,,74,0
66264,note_on,,24,0,3,,,,,,,,,2,,,81,0
66264,note_on,,1,0,1,,,,,,,,,0,,,69,85
66264,note_on,,24,0,2,,,,,,,,,1,,,54,0
66264,note_on,,24,0,6,,,,,,,,,5,,,66,0
66271,note_on,,7,0,1,,,,,,,,,0,,,69,0
66272,note_on,,1,0,1,,,,,,,,,0,,,71,85
66279,note_on,,7,0,1,,,,,,,,,0,,,71,0
66280,note_on,,1,0,1,,,,,,,,,0,,,73,56
66287,note_on,,7,0,1,,,,,,,,,0,,,73,0
66288,note_on,,24,0,6,,,,,,,,,5,,,62,85
66288,note_on,,1,0,1,,,,,,,,,0,,,74,81
66288,note_on,,24,0,2,,,,,,,,,1,,,42,95
66288,note_on,,32,0,7,,,,,,,,,6,,,42,85
66288,note_on,,32,0,8,,,,,,,,,7,,,30,85
66288,note_on,,32,0,4,,,,,,,,,3,,,72,95
66288,note_on,,24,0,5,,,,,,,,,4,,,69,75
66288,note_on,,24,0,3,,,,,,,,,2,,,72,85
66295,note_on,,7,0,1,,,,,,,,,0,,,74,0
66296,note_on,,1,0,1,,,,,,,,,0,,,76,79
66303,note_on,,7,0,1,,,,,,,,,0,,,76,0
66304,note_on,,16,0,4,,,,,,,,,3,,,72,0
66304,note_on,,16,0,7,,,,,,,,,6,,,42,0
66304,note_on,,1,0,1,,,,,,,,,0,,,74,78
66304,note_on,,16,0,5,,,,,,,,,4,,,69,0
66304,note_on,,16,0,8,,,,,,,,,7,,,30,0
66311,note_on,,7,0,1,,,,,,,,,0,,,74,0
66312,note_on,,24,0,2,,,,,,,,,1,,,42,0
66312,note_on,,24,0,6,,,,,,,,,5,,,62,0
66312,note_on,,24,0,3,,,,,,,,,2,,,72,0
66312,note_on,,1,0,1,,,,,,,,,0,,,73,62
66319,note_on,,7,0,1,,,,,,,,,0,,,73,0
66320,note_on,,1,0,1,,,,,,,,,0,,,71,74
66327,note_on,,7,0,1,,,,,,,,,0,,,71,0
66328,note_on,,1,0,1,,,,,,,,,0,,,69,85
66335,note_on,,7,0,1,,,,,,,,,0,,,69,0
66336,note_on,,24,0,3,,,,,,,,,2,,,71,85
66336,note_on,,32,0,4,,,,,,,,,3,,,71,95
66336,note_on,,24,0,6,,,,,,,,,5,,,62,77
66336,note_on,,32,0,5,,,,,,,,,4,,,67,75
66336,note_on,,24,0,2,,,,,,,,,1,,,43,95
66336,note_on,,1,0,1,,,,,,,,,0,,,71,61
66336,note_on,,32,0,7,,,,,,,,,6,,,43,85
66336,note_on,,32,0,8,,,,,,,,,7,,,31,85
66343,note_on,,7,0,1,,,,,,,,,0,,,71,0
66344,note_on,,1,0,1,,,,,,,,,0,,,74,72
66351,note_on,,7,0,1,,,,,,,,,0,,,74,0
66352,note_on,,1,0,1,,,,,,,,,0,,,73,49
66352,note_on,,16,0,4,,,,,,,,,3,,,71,0
66352,note_on,,16,0,5,,,,,,,,,4,,,67,0
66359,note_on,,7,0,1,,,,,,,,,0,,,73,0
66360,note_on,,24,0,3,,,,,,,,,2,,,71,0
66360,note_on,,24,0,2,,,,,,,,,1,,,43,0
66360,note_on,,1,0,1,,,,,,,,,0,,,71,85
66360,note_on,,24,0,6,,,,,,,,,5,,,62,0
66367,note_on,,7,0,1,,,,,,,,,0,,,71,0
66368,note_on,,1,0,1,,,,,,,,,0,,,69,85
66368,note_on,,32,0,7,,,,,,,,,6,,,43,0
66368,note_on,,32,0,8,,,,,,,,,7,,,31,0
66375,note_on,,7,0,1,,,,,,,,,0,,,69,0
66376,note_on,,1,0,1,,,,,,,,,0,,,67,44
66383,note_on,,7,0,1,,,,,,,,,0,,,67,0
66384,note_on,,16,0,8,,,,,,,,,7,,,33,85
66384,note_on,,24,0,3,,,,,,,,,2,,,73,85
66384,note_on,,16,0,7,,,,,,,,,6,,,45,85
66384,note_on,,1,0,1,,,,,,,,,0,,,66,60
66384,note_on,,32,0,4,,,,,,,,,3,,,73,95
66384,note_on,,24,0,6,,,,,,,,,5,,,69,85
66384,note_on,,24,0,2,,,,,,,,,1,,,45,95
66384,note_on,,32,0,5,,,,,,,,,4,,,66,75
66391,note_on,,7,0,1,,,,,,,,,0,,,66,0
66392,note_on,,1,0,1,,,,,,,,,0,,,64,59
66399,note_on,,7,0,1,,,,,,,,,0,,,64,0
66400,note_on,,16,0,5,,,,,,,,,4,,,66,0
66400,note_on,,16,0,4,,,,,,,,,3,,,73,0
66400,note_on,,1,0,1,,,,,,,,,0,,,66,46
66407,note_on,,7,0,1,,,,,,,,,0,,,66,0
66408,note_on,,24,0,3,,,,,,,,,2,,,73,0
66408,note_on,,24,0,2,,,,,,,,,1,,,45,0
66408,note_on,,1,0,1,,,,,,,,,0,,,67,67
66408,note_on,,24,0,6,,,,,,,,,5,,,69,0
66415,note_on,,7,0,1,,,,,,,,,0,,,67,0
66416,note_on,,32,0,7,,,,,,,,,6,,,45,0
66416,note_on,,32,0,8,,,,,,,,,7,,,33,0
66416,note_on,,1,0,1,,,,,,,,,0,,,69,33
66423,note_on,,7,0,1,,,,,,,,,0,,,69,0
66424,note_on,,1,0,1,,,,,,,,,0,,,66,60
66431,note_on,,7,0,1,,,,,,,,,0,,,66,0
66432,note_on,,16,0,8,,,,,,,,,7,,,35,85
66432,note_on,,32,0,4,,,,,,,,,3,,,74,95
66432,note_on,,32,0,5,,,,,,,,,4,,,71,75
66432,note_on,,1,0,1,,,,,,,,,0,,,62,66
66432,note_on,,24,0,3,,,,,,,,,2,,,74,85
66432,note_on,,16,0,7,,,,,,,,,6,,,47,85
66432,note_on,,24,0,2,,,,,,,,,1,,,47,95
66432,note_on,,24,0,6,,,,,,,,,5,,,66,68
66439,note_on,,7,0,1,,,,,,,,,0,,,62,0
66440,note_on,,1,0,1,,,,,,,,,0,,,61,53
66447,note_on,,7,0,1,,,,,,,,,0,,,61,0
66448,note_on,,16,0,4,,,,,,,,,3,,,74,0
66448,note_on,,1,0,1,,,,,,,,,0,,,62,85
66448,note_on,,16,0,5,,,,,,,,,4,,,71,0
66455,note_on,,7,0,1,,,,,,,,,0,,,62,0
66456,note_on,,24,0,6,,,,,,,,,5,,,66,0
66456,note_on,,24,0,3,,,,,,,,,2,,,74,0
66456,note_on,,24,0,2,,,,,,,,,1,,,47,0
66456,note_on,,1,0,1,,,,,,,,,0,,,64,69
66463,note_on,,7,0,1,,,,,,,,,0,,,64,0
66464,note_on,,1,0,1,,,,,,,,,0,,,66,49
66464,note_on,,32,0,8,,,,,,,,,7,,,35,0
66464,note_on,,32,0,7,,,,,,,,,6,,,47,0
66471,note_on,,7,0,1,,,,,,,,,0,,,66,0
66472,note_on,,1,0,1,,,,,,,,,0,,,67,60
66479,note_on,,7,0,1,,,,,,,,,0,,,67,0
66480,note_on,,24,0,2,,,,,,,,,1,,,49,95
66480,note_on,,16,0,8,,,,,,,,,7,,,37,67
66480,note_on,,1,0,1,,,,,,,,,0,,,69,85
66480,note_on,,16,0,7,,,,,,,,,6,,,49,67
66480,note_on,,32,0,4,,,,,,,,,3,,,64,95
66480,note_on,,32,0,5,,,,,,,,,4,,,61,77
66480,note_on,,24,0,6,,,,,,,,,5,,,64,57
66480,note_on,,24,0,3,,,,,,,,,2,,,69,85
66487,note_on,,7,0,1,,,,,,,,,0,,,69,0
66488,note_on,,1,0,1,,,,,,,,,0,,,71,85
66495,note_on,,7,0,1,,,,,,,,,0,,,71,0
66496,note_on,,0,0,3,,,,,,,,,2,,,73,85
66496,note_on,,16,0,6,,,,,,,,,5,,,64,0
66496,note_on,,0,0,6,,,,,,,,,5,,,61,56
66496,note_on,,16,0,5,,,,,,,,,4,,,61,0
66496,note_on,,1,0,1,,,,,,,,,0,,,69,85
66496,note_on,,0,0,4,,,,,,,,,3,,,69,95
66496,note_on,,16,0,3,,,,,,,,,2,,,69,0
66496,note_on,,0,0,5,,,,,,,,,4,,,64,77
66496,note_on,,16,0,4,,,,,,,,,3,,,64,0
66503,note_on,,7,0,1,,,,,,,,,0,,,69,0
66504,note_on,,24,0,2,,,,,,,,,1,,,49,0
66504,note_on,,1,0,1,,,,,,,,,0,,,67,85
66511,note_on,,7,0,1,,,,,,,,,0,,,67,0
66512,note_on,,16,0,3,,,,,,,,,2,,,73,0
66512,note_on,,1,0,1,,,,,,,,,0,,,66,52
66512,note_on,,32,0,7,,,,,,,,,6,,,49,0
66512,note_on,,0,0,6,,,,,,,,,5,,,57,59
66512,note_on,,16,0,6,,,,,,,,,5,,,61,0
66512,note_on,,16,0,5,,,,,,,,,4,,,64,0
66512,note_on,,0,0,5,,,,,,,,,4,,,69,77
66512,note_on,,32,0,8,,,,,,,,,7,,,37,0
66512,note_on,,16,0,4,,,,,,,,,3,,,69,0
66512,note_on,,0,0,4,,,,,,,,,3,,,73,95
66512,note_on,,0,0,3,,,,,,,,,2,,,76,85
66519,note_on,,7,0,1,,,,,,,,,0,,,66,0
66520,note_on,,1,0,1,,,,,,,,,0,,,64,79
66527,note_on,,7,0,1,,,,,,,,,0,,,64,0
66528,note_on,,0,0,6,,,,,,,,,5,,,66,56
66528,note_on,,16,0,6,,,,,,,,,5,,,57,0
66528,note_on,,1,0,1,,,,,,,,,0,,,66,46
66528,note_on,,16,0,4,,,,,,,,,3,,,73,0
66528,note_on,,0,0,3,,,,,,,,,2,,,69,85
66528,note_on,,0,0,5,,,,,,,,,4,,,62,77
66528,note_on,,16,0,3,,,,,,,,,2,,,76,0
66528,note_on,,0,0,4,,,,,,,,,3,,,66,95
66528,note_on,,24,0,2,,,,,,,,,1,,,50,95
66528,note_on,,16,0,5,,,,,,,,,4,,,69,0
66528,note_on,,16,0,7,,,,,,,,,6,,,50,85
66528,note_on,,16,0,8,,,,,,,,,7,,,38,85
66535,note_on,,7,0,1,,,,,,,,,0,,,66,0
66536,note_on,,1,0,1,,,,,,,,,0,,,69,85
66543,note_on,,7,0,1,,,,,,,,,0,,,69,0
66544,note_on,,16,0,6,,,,,,,,,5,,,66,0
66544,note_on,,1,0,1,,,,,,,,,0,,,67,72
66544,note_on,,0,0,4,,,,,,,,,3,,,69,95
66544,note_on,,16,0,4,,,,,,,,,3,,,66,0
66544,note_on,,0,0,3,,,,,,,,,2,,,74,85
66544,note_on,,0,0,5,,,,,,,,,4,,,66,77
66544,note_on,,16,0,5,,,,,,,,,4,,,62,0
66544,note_on,,16,0,3,,,,,,,,,2,,,69,0
66544,note_on,,0,0,6,,,,,,,,,5,,,62,76
66551,note_on,,7,0,1,,,,,,,,,0,,,67,0
66552,note_on,,1,0,1,,,,,,,,,0,,,66,49
66552,note_on,,24,0,2,,,,,,,,,1,,,50,0
66559,note_on,,7,0,1,,,,,,,,,0,,,66,0
66560,note_on,,16,0,3,,,,,,,,,2,,,74,0
66560,note_on,,0,0,3,,,,,,,,,2,,,78,85
66560,note_on,,32,0,8,,,,,,,,,7,,,38,0
66560,note_on,,0,0,5,,,,,,,,,4,,,69,77
66560,note_on,,0,0,6,,,,,,,,,5,,,57,70
66560,note_on,,16,0,6,,,,,,,,,5,,,62,0
66560,note_on,,16,0,4,,,,,,,,,3,,,69,0
66560,note_on,,1,0,1,,,,,,,,,0,,,64,85
66560,note_on,,16,0,5,,,,,,,,,4,,,66,0
66560,note_on,,32,0,7,,,,,,,,,6,,,50,0
66560,note_on,,0,0,4,,,,,,,,,3,,,74,95
66567,note_on,,7,0,1,,,,,,,,,0,,,64,0
66568,note_on,,1,0,1,,,,,,,,,0,,,62,68
66575,note_on,,7,0,1,,,,,,,,,0,,,62,0
66576,note_on,,24,0,2,,,,,,,,,1,,,52,95
66576,note_on,,16,0,4,,,,,,,,,3,,,74,0
66576,note_on,,16,0,6,,,,,,,,,5,,,57,0
66576,note_on,,16,0,7,,,,,,,,,6,,,52,85
66576,note_on,,0,0,4,,,,,,,,,3,,,64,95
66576,note_on,,0,0,5,,,,,,,,,4,,,57,77
66576,note_on,,16,0,8,,,,,,,,,7,,,40,85
66576,note_on,,16,0,3,,,,,,,,,2,,,78,0
66576,note_on,,0,0,3,,,,,,,,,2,,,73,85
66576,note_on,,0,0,6,,,,,,,,,5,,,67,74
66576,note_on,,16,0,5,,,,,,,,,4,,,69,0
66576,note_on,,1,0,1,,,,,,,,,0,,,61,53
66583,note_on,,7,0,1,,,,,,,,,0,,,61,0
66584,note_on,,1,0,1,,,,,,,,,0,,,59,85
66591,note_on,,7,0,1,,,,,,,,,0,,,59,0
66592,note_on,,0,0,6,,,,,,,,,5,,,64,85
66592,note_on,,16,0,3,,,,,,,,,2,,,73,0
66592,note_on,,0,0,5,,,,,,,,,4,,,61,77
66592,note_on,,16,0,5,,,,,,,,,4,,,57,0
66592,note_on,,16,0,4,,,,,,,,,3,,,64,0
66592,note_on,,0,0,4,,,,,,,,,3,,,69,95
66592,note_on,,1,0,1,,,,,,,,,0,,,61,59
66592,note_on,,0,0,3,,,,,,,,,2,,,76,85
66592,note_on,,16,0,6,,,,,,,,,5,,,67,0
66599,note_on,,7,0,1,,,,,,,,,0,,,61,0
66600,note_on,,1,0,1,,,,,,,,,0,,,62,53
66600,note_on,,24,0,2,,,,,,,,,1,,,52,0
66607,note_on,,7,0,1,,,,,,,,,0,,,62,0
66608,note_on,,16,0,6,,,,,,,,,5,,,64,0
66608,note_on,,0,0,6,,,,,,,,,5,,,57,68
66608,note_on,,16,0,3,,,,,,,,,2,,,76,0
66608,note_on,,32,0,7,,,,,,,,,6,,,52,0
66608,note_on,,1,0,1,,,,,,,,,0,,,64,64
66608,note_on,,0,0,3,,,,,,,,,2,,,79,85
66608,note_on,,16,0,4,,,,,,,,,3,,,69,0
66608,note_on,,32,0,8,,,,,,,,,7,,,40,0
66608,note_on,,0,0,4,,,,,,,,,3,,,73,95
66608,note_on,,0,0,5,,,,,,,,,4,,,64,77
66608,note_on,,16,0,5,,,,,,,,,4,,,61,0
66615,note_on,,7,0,1,,,,,,,,,0,,,64,0
66616,note_on,,1,0,1,,,,,,,,,0,,,61,50
66623,note_on,,7,0,1,,,,,,,,,0,,,61,0
66624,note_on,,16,0,4,,,,,,,,,3,,,73,0
66624,note_on,,16,0,7,,,,,,,,,6,,,54,74
66624,note_on,,0,0,5,,,,,,,,,4,,,62,77
66624,note_on,,16,0,5,,,,,,,,,4,,,64,0
66624,note_on,,0,0,3,,,,,,,,,2,,,81,95
66624,note_on,,16,0,6,,,,,,,,,5,,,57,0
66624,note_on,,0,0,6,,,,,,,,,5,,,66,56
66624,note_on,,1,0,1,,,,,,,,,0,,,57,50
66624,note_on,,0,0,4,,,,,,,,,3,,,74,66
66624,note_on,,16,0,3,,,,,,,,,2,,,79,0
66624,note_on,,24,0,2,,,,,,,,,1,,,54,95
66624,note_on,,16,0,8,,,,,,,,,7,,,42,74
66631,note_on,,7,0,1,,,,,,,,,0,,,57,0
66632,note_on,,1,0,1,,,,,,,,,0,,,62,53
66639,note_on,,7,0,1,,,,,,,,,0,,,62,0
66640,note_on,,1,0,1,,,,,,,,,0,,,64,56
66640,note_on,,16,0,5,,,,,,,,,4,,,62,0
66647,note_on,,7,0,1,,,,,,,,,0,,,64,0
66648,note_on,,24,0,2,,,,,,,,,1,,,54,0
66648,note_on,,24,0,6,,,,,,,,,5,,,66,0
66648,note_on,,24,0,3,,,,,,,,,2,,,81,0
66648,note_on,,24,0,4,,,,,,,,,3,,,74,0
66648,note_on,,1,0,1,,,,,,,,,0,,,66,55
66655,note_on,,7,0,1,,,,,,,,,0,,,66,0
66656,note_on,,32,0,7,,,,,,,,,6,,,54,0
66656,note_on,,32,0,8,,,,,,,,,7,,,42,0
66656,note_on,,1,0,1,,,,,,,,,0,,,64,69
66663,note_on,,7,0,1,,,,,,,,,0,,,64,0
66664,note_on,,1,0,1,,,,,,,,,0,,,62,59
66671,note_on,,7,0,1,,,,,,,,,0,,,62,0
66672,note_on,,1,0,1,,,,,,,,,0,,,57,50
66672,note_on,,32,0,5,,,,,,,,,4,,,74,77
66672,note_on,,24,0,6,,,,,,,,,5,,,62,72
66672,note_on,,24,0,4,,,,,,,,,3,,,79,85
66672,note_on,,24,0,3,,,,,,,,,2,,,83,85
66672,note_on,,16,0,7,,,,,,,,,6,,,55,85
66672,note_on,,16,0,8,,,,,,,,,7,,,43,85
66672,note_on,,24,0,2,,,,,,,,,1,,,55,95
66679,note_on,,7,0,1,,,,,,,,,0,,,57,0
66680,note_on,,1,0,1,,,,,,,,,0,,,62,57
66687,note_on,,7,0,1,,,,,,,,,0,,,62,0
66688,note_on,,1,0,1,,,,,,,,,0,,,64,76
66688,note_on,,16,0,5,,,,,,,,,4,,,74,0
66695,note_on,,7,0,1,,,,,,,,,0,,,64,0
66696,note_on,,24,0,2,,,,,,,,,1,,,55,0
66696,note_on,,24,0,4,,,,,,,,,3,,,79,0
66696,note_on,,24,0,3,,,,,,,,,2,,,83,0
66696,note_on,,1,0,1,,,,,,,,,0,,,66,50
66696,note_on,,24,0,6,,,,,,,,,5,,,62,0
66703,note_on,,7,0,1,,,,,,,,,0,,,66,0
66704,note_on,,1,0,1,,,,,,,,,0,,,64,74
66704,note_on,,32,0,8,,,,,,,,,7,,,43,0
66704,note_on,,32,0,7,,,,,,,,,6,,,55,0
66711,note_on,,7,0,1,,,,,,,,,0,,,64,0
66712,note_on,,1,0,1,,,,,,,,,0,,,62,85
66719,note_on,,7,0,1,,,,,,,,,0,,,62,0
66720,note_on,,24,0,2,,,,,,,,,1,,,57,95
66720,note_on,,16,0,8,,,,,,,,,7,,,45,85
66720,note_on,,24,0,3,,,,,,,,,2,,,81,78
66720,note_on,,24,0,6,,,,,,,,,5,,,66,56
66720,note_on,,1,0,1,,,,,,,,,0,,,61,49
66720,note_on,,24,0,4,,,,,,,,,3,,,78,60
66720,note_on,,32,0,5,,,,,,,,,4,,,73,77
66720,note_on,,16,0,7,,,,,,,,,6,,,57,85
66727,note_on,,7,0,1,,,,,,,,,0,,,61,0
66728,note_on,,1,0,1,,,,,,,,,0,,,66,42
66735,note_on,,7,0,1,,,,,,,,,0,,,66,0
66736,note_on,,1,0,1,,,,,,,,,0,,,67,65
66736,note_on,,16,0,5,,,,,,,,,4,,,73,0
66743,note_on,,7,0,1,,,,,,,,,0,,,67,0
66744,note_on,,1,0,1,,,,,,,,,0,,,69,62
66744,note_on,,24,0,6,,,,,,,,,5,,,66,0
66744,note_on,,24,0,4,,,,,,,,,3,,,78,0
66744,note_on,,24,0,2,,,,,,,,,1,,,57,0
66744,note_on,,24,0,3,,,,,,,,,2,,,81,0
66751,note_on,,7,0,1,,,,,,,,,0,,,69,0
66752,note_on,,32,0,7,,,,,,,,,6,,,57,0
66752,note_on,,1,0,1,,,,,,,,,0,,,67,59
66752,note_on,,32,0,8,,,,,,,,,7,,,45,0
66759,note_on,,7,0,1,,,,,,,,,0,,,67,0
66760,note_on,,1,0,1,,,,,,,,,0,,,66,53
66767,note_on,,7,0,1,,,,,,,,,0,,,66,0
66768,note_on,,32,0,5,,,,,,,,,4,,,71,77
66768,note_on,,1,0,1,,,,,,,,,0,,,62,67
66768,note_on,,24,0,4,,,,,,,,,3,,,74,85
66768,note_on,,16,0,7,,,,,,,,,6,,,59,85
66768,note_on,,24,0,6,,,,,,,,,5,,,66,64
66768,note_on,,24,0,2,,,,,,,,,1,,,59,95
66768,note_on,,16,0,8,,,,,,,,,7,,,47,85
66768,note_on,,24,0,3,,,,,,,,,2,,,79,85
66775,note_on,,7,0,1,,,,,,,,,0,,,62,0
66776,note_on,,1,0,1,,,,,,,,,0,,,67,85
66783,note_on,,7,0,1,,,,,,,,,0,,,67,0
66784,note_on,,16,0,5,,,,,,,,,4,,,71,0
66784,note_on,,1,0,1,,,,,,,,,0,,,69,67
66791,note_on,,7,0,1,,,,,,,,,0,,,69,0
66792,note_on,,1,0,1,,,,,,,,,0,,,71,65
66792,note_on,,24,0,6,,,,,,,,,5,,,66,0
66792,note_on,,24,0,4,,,,,,,,,3,,,74,0
66792,note_on,,24,0,3,,,,,,,,,2,,,79,0
66792,note_on,,24,0,2,,,,,,,,,1,,,59,0
66799,note_on,,7,0,1,,,,,,,,,0,,,71,0
66800,note_on,,1,0,1,,,,,,,,,0,,,69,85
66800,note_on,,32,0,7,,,,,,,,,6,,,59,0
66800,note_on,,32,0,8,,,,,,,,,7,,,47,0
66807,note_on,,7,0,1,,,,,,,,,0,,,69,0
66808,note_on,,1,0,1,,,,,,,,,0,,,67,79
66815,note_on,,7,0,1,,,,,,,,,0,,,67,0
66816,note_on,,24,0,4,,,,,,,,,3,,,69,85
66816,note_on,,1,0,1,,,,,,,,,0,,,64,44
66816,note_on,,16,0,8,,,,,,,,,7,,,49,66
66816,note_on,,16,0,7,,,,,,,,,6,,,61,66
66816,note_on,,24,0,3,,,,,,,,,2,,,79,85
66816,note_on,,32,0,5,,,,,,,,,4,,,76,77
66816,note_on,,24,0,2,,,,,,,,,1,,,61,95
66816,note_on,,24,0,6,,,,,,,,,5,,,64,85
66823,note_on,,7,0,1,,,,,,,,,0,,,64,0
66824,note_on,,1,0,1,,,,,,,,,0,,,67,69
66831,note_on,,7,0,1,,,,,,,,,0,,,67,0
66832,note_on,,1,0,1,,,,,,,,,0,,,69,79
66832,note_on,,16,0,5,,,,,,,,,4,,,76,0
66839,note_on,,7,0,1,,,,,,,,,0,,,69,0
66840,note_on,,24,0,4,,,,,,,,,3,,,69,0
66840,note_on,,24,0,3,,,,,,,,,2,,,79,0
66840,note_on,,1,0,1,,,,,,,,,0,,,71,74
66840,note_on,,24,0,7,,,,,,,,,6,,,61,0
66840,note_on,,24,0,8,,,,,,,,,7,,,49,0
66840,note_on,,24,0,6,,,,,,,,,5,,,64,0
66847,note_on,,7,0,1,,,,,,,,,0,,,71,0
66848,note_on,,1,0,1,,,,,,,,,0,,,69,72
66852,note_on,,12,0,8,,,,,,,,,7,,,45,85
66852,note_on,,12,0,7,,,,,,,,,6,,,57,85
66852,note_on,,0,0,2,,,,,,,,,1,,,57,95
66852,note_on,,36,0,2,,,,,,,,,1,,,61,0
66855,note_on,,7,0,1,,,,,,,,,0,,,69,0
66856,note_on,,1,0,1,,,,,,,,,0,,,67,74
66860,note_on,,8,0,8,,,,,,,,,7,,,45,0
66860,note_on,,8,0,7,,,,,,,,,6,,,57,0
66863,note_on,,7,0,1,,,,,,,,,0,,,67,0
66864,note_on,,24,0,4,,,,,,,,,3,,,69,74
66864,note_on,,4,0,7,,,,,,,,,6,,,62,85
66864,note_on,,0,0,2,,,,,,,,,1,,,62,95
66864,note_on,,12,0,2,,,,,,,,,1,,,57,0
66864,note_on,,1,0,1,,,,,,,,,0,,,66,54
66864,note_on,,24,0,6,,,,,,,,,5,,,66,66
66864,note_on,,24,0,3,,,,,,,,,2,,,78,64
66864,note_on,,4,0,8,,,,,,,,,7,,,50,85
66864,note_on,,32,0,5,,,,,,,,,4,,,74,77
66871,note_on,,7,0,1,,,,,,,,,0,,,66,0
66872,note_on,,1,0,1,,,,,,,,,0,,,67,81
66879,note_on,,7,0,1,,,,,,,,,0,,,67,0
66880,note_on,,0,0,3,,,,,,,,,2,,,79,85
66880,note_on,,16,0,3,,,,,,,,,2,,,78,0
66880,note_on,,1,0,1,,,,,,,,,0,,,69,44
66887,note_on,,7,0,1,,,,,,,,,0,,,69,0
66888,note_on,,0,0,5,,,,,,,,,4,,,73,77
66888,note_on,,24,0,5,,,,,,,,,4,,,74,0
66888,note_on,,24,0,8,,,,,,,,,7,,,50,0
66888,note_on,,1,0,1,,,,,,,,,0,,,71,77
66888,note_on,,24,0,7,,,,,,,,,6,,,62,0
66895,note_on,,7,0,1,,,,,,,,,0,,,71,0
66896,note_on,,0,0,3,,,,,,,,,2,,,81,85
66896,note_on,,8,0,5,,,,,,,,,4,,,73,0
66896,note_on,,16,0,3,,,,,,,,,2,,,79,0
66896,note_on,,1,0,1,,,,,,,,,0,,,73,68
66900,note_on,,0,0,2,,,,,,,,,1,,,57,95
66900,note_on,,12,0,7,,,,,,,,,6,,,57,85
66900,note_on,,0,0,6,,,,,,,,,5,,,64,85
66900,note_on,,36,0,6,,,,,,,,,5,,,66,0
66900,note_on,,12,0,8,,,,,,,,,7,,,45,85
66900,note_on,,36,0,4,,,,,,,,,3,,,69,0
66900,note_on,,36,0,2,,,,,,,,,1,,,62,0
66900,note_on,,0,0,4,,,,,,,,,3,,,67,61
66903,note_on,,7,0,1,,,,,,,,,0,,,73,0
66904,note_on,,1,0,1,,,,,,,,,0,,,69,85
66908,note_on,,8,0,7,,,,,,,,,6,,,57,0
66908,note_on,,8,0,8,,,,,,,,,7,,,45,0
66911,note_on,,7,0,1,,,,,,,,,0,,,69,0
66912,note_on,,16,0,5,,,,,,,,,4,,,74,77
66912,note_on,,4,0,8,,,,,,,,,7,,,47,69
66912,note_on,,12,0,6,,,,,,,,,5,,,64,0
66912,note_on,,0,0,4,,,,,,,,,3,,,66,66
66912,note_on,,0,0,3,,,,,,,,,2,,,74,72
66912,note_on,,12,0,2,,,,,,,,,1,,,57,0
66912,note_on,,0,0,6,,,,,,,,,5,,,62,85
66912,note_on,,4,0,7,,,,,,,,,6,,,59,69
66912,note_on,,0,0,2,,,,,,,,,1,,,59,95
66912,note_on,,16,0,3,,,,,,,,,2,,,81,0
66912,note_on,,12,0,4,,,,,,,,,3,,,67,0
66912,note_on,,1,0,1,,,,,,,,,0,,,74,56
66925,note_on,,13,0,8,,,,,,,,,7,,,47,0
66925,note_on,,13,0,1,,,,,,,,,0,,,74,0
66925,note_on,,13,0,7,,,,,,,,,6,,,59,0
66928,note_on,,0,0,2,,,,,,,,,1,,,57,95
66928,note_on,,3,0,1,,,,,,,,,0,,,73,50
66928,note_on,,3,0,8,,,,,,,,,7,,,45,81
66928,note_on,,3,0,7,,,,,,,,,6,,,57,81
66928,note_on,,16,0,2,,,,,,,,,1,,,59,0
66941,note_on,,13,0,8,,,,,,,,,7,,,45,0
66941,note_on,,13,0,7,,,,,,,,,6,,,57,0
66941,note_on,,13,0,1,,,,,,,,,0,,,73,0
66944,note_on,,3,0,1,,,,,,,,,0,,,71,85
66944,note_on,,3,0,7,,,,,,,,,6,,,55,77
66944,note_on,,16,0,2,,,,,,,,,1,,,57,0
66944,note_on,,0,0,2,,,,,,,,,1,,,55,95
66944,note_on,,3,0,8,,,,,,,,,7,,,43,77
66948,note_on,,36,0,5,,,,,,,,,4,,,74,0
66948,note_on,,0,0,4,,,,,,,,,3,,,67,85
66948,note_on,,36,0,4,,,,,,,,,3,,,66,0
66948,note_on,,0,0,5,,,,,,,,,4,,,62,77
66948,note_on,,36,0,6,,,,,,,,,5,,,62,0
66948,note_on,,0,0,6,,,,,,,,,5,,,67,85
66957,note_on,,13,0,7,,,,,,,,,6,,,55,0
66957,note_on,,13,0,8,,,,,,,,,7,,,43,0
66957,note_on,,13,0,1,,,,,,,,,0,,,71,0
66960,note_on,,3,0,8,,,,,,,,,7,,,42,62
66960,note_on,,12,0,5,,,,,,,,,4,,,62,0
66960,note_on,,0,0,5,,,,,,,,,4,,,66,77
66960,note_on,,0,0,2,,,,,,,,,1,,,54,95
66960,note_on,,16,0,2,,,,,,,,,1,,,55,0
66960,note_on,,3,0,7,,,,,,,,,6,,,54,62
66960,note_on,,0,0,4,,,,,,,,,3,,,69,78
66960,note_on,,3,0,1,,,,,,,,,0,,,69,81
66960,note_on,,12,0,6,,,,,,,,,5,,,67,0
66960,note_on,,48,0,3,,,,,,,,,2,,,74,0
66960,note_on,,0,0,6,,,,,,,,,5,,,64,85
66960,note_on,,12,0,4,,,,,,,,,3,,,67,0
66973,note_on,,13,0,7,,,,,,,,,6,,,54,0
66973,note_on,,13,0,1,,,,,,,,,0,,,69,0
66973,note_on,,13,0,8,,,,,,,,,7,,,42,0
66976,note_on,,3,0,7,,,,,,,,,6,,,55,85
66976,note_on,,16,0,3,,,,,,,,,2,,,76,76
66976,note_on,,16,0,2,,,,,,,,,1,,,54,0
66976,note_on,,0,0,2,,,,,,,,,1,,,55,95
66976,note_on,,3,0,8,,,,,,,,,7,,,43,85
66976,note_on,,3,0,1,,,,,,,,,0,,,71,81
66989,note_on,,13,0,1,,,,,,,,,0,,,71,0
66989,note_on,,13,0,8,,,,,,,,,7,,,43,0
66989,note_on,,13,0,7,,,,,,,,,6,,,55,0
66992,note_on,,16,0,3,,,,,,,,,2,,,76,0
66992,note_on,,0,0,3,,,,,,,,,2,,,73,56
66992,note_on,,3,0,7,,,,,,,,,6,,,57,85
66992,note_on,,16,0,2,,,,,,,,,1,,,55,0
66992,note_on,,3,0,1,,,,,,,,,0,,,67,50
66992,note_on,,0,0,2,,,,,,,,,1,,,57,95
66992,note_on,,3,0,8,,,,,,,,,7,,,45,85
66996,note_on,,36,0,5,,,,,,,,,4,,,66,0
66996,note_on,,0,0,5,,,,,,,,,4,,,64,77
66996,note_on,,36,0,6,,,,,,,,,5,,,64,0
66996,note_on,,0,0,6,,,,,,,,,5,,,57,85
67005,note_on,,13,0,1,,,,,,,,,0,,,67,0
67005,note_on,,13,0,7,,,,,,,,,6,,,57,0
67005,note_on,,13,0,8,,,,,,,,,7,,,45,0
67008,note_on,,0,0,3,,,,,,,,,2,,,74,85
67008,note_on,,16,0,2,,,,,,,,,1,,,57,0
67008,note_on,,12,0,6,,,,,,,,,5,,,57,0
67008,note_on,,0,0,6,,,,,,,,,5,,,57,85
67008,note_on,,0,0,2,,,,,,,,,1,,,50,95
67008,note_on,,3,0,1,,,,,,,,,0,,,66,68
67008,note_on,,48,0,4,,,,,,,,,3,,,69,0
67008,note_on,,3,0,7,,,,,,,,,6,,,50,85
67008,note_on,,0,0,5,,,,,,,,,4,,,62,77
67008,note_on,,12,0,5,,,,,,,,,4,,,64,0
67008,note_on,,3,0,8,,,,,,,,,7,,,38,85
67008,note_on,,16,0,3,,,,,,,,,2,,,73,0
67021,note_on,,13,0,7,,,,,,,,,6,,,50,0
67021,note_on,,13,0,8,,,,,,,,,7,,,38,0
67024,note_on,,16,0,4,,,,,,,,,3,,,69,70
67024,note_on,,3,0,8,,,,,,,,,7,,,42,68
67024,note_on,,0,0,2,,,,,,,,,1,,,54,95
67024,note_on,,16,0,2,,,,,,,,,1,,,50,0
67024,note_on,,3,0,7,,,,,,,,,6,,,54,68
67028,note_on,,20,0,1,,,,,,,,,0,,,66,0
67032,note_on,,24,0,6,,,,,,,,,5,,,57,0
67032,note_on,,24,0,5,,,,,,,,,4,,,62,0
67037,note_on,,13,0,8,,,,,,,,,7,,,42,0
67037,note_on,,13,0,7,,,,,,,,,6,,,54,0
67040,note_on,,3,0,7,,,,,,,,,6,,,52,85
67040,note_on,,16,0,4,,,,,,,,,3,,,69,0
67040,note_on,,0,0,4,,,,,,,,,3,,,67,85
67040,note_on,,0,0,2,,,,,,,,,1,,,52,95
67040,note_on,,16,0,2,,,,,,,,,1,,,54,0
67040,note_on,,3,0,8,,,,,,,,,7,,,40,85
67044,note_on,,0,0,3,,,,,,,,,2,,,81,85
67044,note_on,,0,0,3,,,,,,,,,2,,,81,91
67044,note_on,,36,0,3,,,,,,,,,2,,,74,0
67053,note_on,,13,0,8,,,,,,,,,7,,,40,0
67053,note_on,,13,0,7,,,,,,,,,6,,,52,0
67056,note_on,,3,0,7,,,,,,,,,6,,,50,85
67056,note_on,,0,0,2,,,,,,,,,1,,,50,95
67056,note_on,,16,0,2,,,,,,,,,1,,,52,0
67056,note_on,,24,0,6,,,,,,,,,5,,,62,85
67056,note_on,,28,0,1,,,,,,,,,0,,,74,68
67056,note_on,,24,0,5,,,,,,,,,4,,,69,79
67056,note_on,,12,0,3,,,,,,,,,2,,,86,84
67056,note_on,,16,0,4,,,,,,,,,3,,,67,0
67056,note_on,,0,0,4,,,,,,,,,3,,,66,53
67056,note_on,,3,0,8,,,,,,,,,7,,,38,85
67068,note_on,,12,0,3,,,,,,,,,2,,,81,0
67069,note_on,,13,0,7,,,,,,,,,6,,,50,0
67069,note_on,,13,0,8,,,,,,,,,7,,,38,0
67072,note_on,,16,0,2,,,,,,,,,1,,,50,0
67072,note_on,,0,0,2,,,,,,,,,1,,,52,95
67072,note_on,,3,0,7,,,,,,,,,6,,,52,85
67072,note_on,,16,0,4,,,,,,,,,3,,,66,0
67072,note_on,,0,0,4,,,,,,,,,3,,,67,85
67072,note_on,,3,0,8,,,,,,,,,7,,,40,85
67076,note_on,,20,0,1,,,,,,,,,0,,,74,0
67080,note_on,,24,0,5,,,,,,,,,4,,,69,0
67080,note_on,,24,0,6,,,,,,,,,5,,,62,0
67085,note_on,,13,0,7,,,,,,,,,6,,,52,0
67085,note_on,,13,0,8,,,,,,,,,7,,,40,0
67088,note_on,,3,0,8,,,,,,,,,7,,,42,85
67088,note_on,,0,0,4,,,,,,,,,3,,,69,85
67088,note_on,,16,0,4,,,,,,,,,3,,,67,0
67088,note_on,,0,0,2,,,,,,,,,1,,,54,95
67088,note_on,,16,0,2,,,,,,,,,1,,,52,0
67088,note_on,,3,0,7,,,,,,,,,6,,,54,85
67092,note_on,,24,0,3,,,,,,,,,2,,,86,0
67092,note_on,,0,0,3,,,,,,,,,2,,,81,0
67092,note_on,,0,0,3,,,,,,,,,2,,,81,85
67101,note_on,,13,0,8,,,,,,,,,7,,,42,0
67101,note_on,,13,0,7,,,,,,,,,6,,,54,0
67104,note_on,,0,0,4,,,,,,,,,3,,,62,78
67104,note_on,,24,0,5,,,,,,,,,4,,,67,79
67104,note_on,,3,0,8,,,,,,,,,7,,,43,77
67104,note_on,,16,0,4,,,,,,,,,3,,,69,0
67104,note_on,,28,0,1,,,,,,,,,0,,,74,68
67104,note_on,,16,0,2,,,,,,,,,1,,,54,0
67104,note_on,,0,0,2,,,,,,,,,1,,,55,95
67104,note_on,,3,0,7,,,,,,,,,6,,,55,77
67104,note_on,,24,0,6,,,,,,,,,5,,,62,85
67104,note_on,,0,0,3,,,,,,,,,2,,,83,64
67104,note_on,,12,0,3,,,,,,,,,2,,,81,0
67120,note_on,,0,0,3,,,,,,,,,2,,,81,74
67120,note_on,,16,0,3,,,,,,,,,2,,,83,0
67123,note_on,,19,0,7,,,,,,,,,6,,,55,0
67123,note_on,,19,0,8,,,,,,,,,7,,,43,0
67124,note_on,,20,0,1,,,,,,,,,0,,,74,0
67128,note_on,,24,0,5,,,,,,,,,4,,,67,0
67128,note_on,,24,0,2,,,,,,,,,1,,,55,0
67128,note_on,,24,0,6,,,,,,,,,5,,,62,0
67136,note_on,,0,0,3,,,,,,,,,2,,,79,85
67136,note_on,,16,0,3,,,,,,,,,2,,,81,0
67140,note_on,,36,0,4,,,,,,,,,3,,,62,0
67140,note_on,,0,0,4,,,,,,,,,3,,,71,78
67152,note_on,,12,0,4,,,,,,,,,3,,,71,0
67152,note_on,,0,0,4,,,,,,,,,3,,,69,78
67152,note_on,,29,0,8,,,,,,,,,7,,,45,85
67152,note_on,,24,0,6,,,,,,,,,5,,,66,85
67152,note_on,,16,0,3,,,,,,,,,2,,,79,0
67152,note_on,,0,0,3,,,,,,,,,2,,,78,56
67152,note_on,,24,0,5,,,,,,,,,4,,,61,79
67152,note_on,,29,0,7,,,,,,,,,6,,,57,85
67152,note_on,,24,0,2,,,,,,,,,1,,,57,95
67152,note_on,,28,0,1,,,,,,,,,0,,,73,68
67168,note_on,,16,0,3,,,,,,,,,2,,,78,0
67168,note_on,,0,0,3,,,,,,,,,2,,,79,77
67171,note_on,,19,0,7,,,,,,,,,6,,,57,0
67171,note_on,,19,0,8,,,,,,,,,7,,,45,0
67172,note_on,,20,0,1,,,,,,,,,0,,,73,0
67176,note_on,,24,0,6,,,,,,,,,5,,,66,0
67176,note_on,,24,0,2,,,,,,,,,1,,,57,0
67176,note_on,,24,0,5,,,,,,,,,4,,,61,0
67184,note_on,,0,0,3,,,,,,,,,2,,,81,85
67184,note_on,,16,0,3,,,,,,,,,2,,,79,0
67188,note_on,,0,0,4,,,,,,,,,3,,,67,78
67188,note_on,,36,0,4,,,,,,,,,3,,,69,0
67200,note_on,,24,0,2,,,,,,,,,1,,,59,65
67200,note_on,,29,0,8,,,,,,,,,7,,,47,85
67200,note_on,,16,0,3,,,,,,,,,2,,,81,0
67200,note_on,,29,0,7,,,,,,,,,6,,,59,85
67200,note_on,,28,0,1,,,,,,,,,0,,,74,79
67200,note_on,,0,0,3,,,,,,,,,2,,,74,76
67200,note_on,,12,0,4,,,,,,,,,3,,,67,0
67200,note_on,,0,0,4,,,,,,,,,3,,,66,78
67200,note_on,,24,0,5,,,,,,,,,4,,,66,79
67200,note_on,,24,0,6,,,,,,,,,5,,,59,85
67205,note_on,,5,0,1,,,,,,,,,0,,,74,0
67205,note_on,,5,0,2,,,,,,,,,1,,,59,0
67206,note_on,,1,0,1,,,,,,,,,0,,,76,79
67206,note_on,,1,0,2,,,,,,,,,1,,,61,54
67211,note_on,,5,0,1,,,,,,,,,0,,,76,0
67211,note_on,,5,0,2,,,,,,,,,1,,,61,0
67212,note_on,,1,0,2,,,,,,,,,1,,,59,72
67212,note_on,,1,0,1,,,,,,,,,0,,,74,79
67216,note_on,,16,0,3,,,,,,,,,2,,,74,0
67216,note_on,,0,0,5,,,,,,,,,4,,,62,79
67216,note_on,,0,0,3,,,,,,,,,2,,,78,62
67216,note_on,,0,0,4,,,,,,,,,3,,,69,78
67216,note_on,,16,0,4,,,,,,,,,3,,,66,0
67216,note_on,,16,0,5,,,,,,,,,4,,,66,0
67217,note_on,,5,0,1,,,,,,,,,0,,,74,0
67217,note_on,,5,0,2,,,,,,,,,1,,,59,0
67218,note_on,,1,0,1,,,,,,,,,0,,,76,79
67218,note_on,,1,0,2,,,,,,,,,1,,,61,52
67219,note_on,,19,0,8,,,,,,,,,7,,,47,0
67219,note_on,,19,0,7,,,,,,,,,6,,,59,0
67223,note_on,,5,0,1,,,,,,,,,0,,,76,0
67223,note_on,,5,0,2,,,,,,,,,1,,,61,0
67224,note_on,,1,0,1,,,,,,,,,0,,,74,79
67224,note_on,,1,0,2,,,,,,,,,1,,,59,59
67229,note_on,,5,0,2,,,,,,,,,1,,,59,0
67229,note_on,,5,0,1,,,,,,,,,0,,,74,0
67230,note_on,,1,0,1,,,,,,,,,0,,,76,79
67230,note_on,,1,0,2,,,,,,,,,1,,,61,43
67232,note_on,,0,0,3,,,,,,,,,2,,,76,84
67232,note_on,,16,0,4,,,,,,,,,3,,,69,0
67232,note_on,,0,0,4,,,,,,,,,3,,,67,78
67232,note_on,,0,0,5,,,,,,,,,4,,,64,79
67232,note_on,,16,0,5,,,,,,,,,4,,,62,0
67232,note_on,,16,0,3,,,,,,,,,2,,,78,0
67235,note_on,,5,0,2,,,,,,,,,1,,,61,0
67235,note_on,,5,0,1,,,,,,,,,0,,,76,0
67236,note_on,,1,0,2,,,,,,,,,1,,,59,72
67236,note_on,,1,0,1,,,,,,,,,0,,,74,79
67241,note_on,,5,0,1,,,,,,,,,0,,,74,0
67241,note_on,,5,0,2,,,,,,,,,1,,,59,0
67242,note_on,,1,0,1,,,,,,,,,0,,,76,79
67242,note_on,,1,0,2,,,,,,,,,1,,,61,59
67247,note_on,,5,0,2,,,,,,,,,1,,,61,0
67247,note_on,,5,0,1,,,,,,,,,0,,,76,0
67248,note_on,,1,0,2,,,,,,,,,1,,,59,79
67248,note_on,,0,0,4,,,,,,,,,3,,,66,78
67248,note_on,,29,0,7,,,,,,,,,6,,,47,74
67248,note_on,,29,0,8,,,,,,,,,7,,,35,74
67248,note_on,,16,0,5,,,,,,,,,4,,,64,0
67248,note_on,,16,0,4,,,,,,,,,3,,,67,0
67248,note_on,,0,0,5,,,,,,,,,4,,,66,79
67248,note_on,,1,0,1,,,,,,,,,0,,,74,79
67248,note_on,,16,0,3,,,,,,,,,2,,,76,0
67248,note_on,,0,0,3,,,,,,,,,2,,,74,72
67253,note_on,,5,0,2,,,,,,,,,1,,,59,0
67253,note_on,,5,0,1,,,,,,,,,0,,,74,0
67254,note_on,,1,0,2,,,,,,,,,1,,,61,62
67254,note_on,,1,0,1,,,,,,,,,0,,,76,79
67259,note_on,,5,0,2,,,,,,,,,1,,,61,0
67259,note_on,,5,0,1,,,,,,,,,0,,,76,0
67260,note_on,,1,0,1,,,,,,,,,0,,,74,79
67260,note_on,,1,0,2,,,,,,,,,1,,,59,85
67264,note_on,,0,0,3,,,,,,,,,2,,,78,56
67264,note_on,,16,0,4,,,,,,,,,3,,,66,0
67264,note_on,,16,0,5,,,,,,,,,4,,,66,0
67264,note_on,,0,0,4,,,,,,,,,3,,,69,78
67264,note_on,,0,0,5,,,,,,,,,4,,,62,79
67264,note_on,,16,0,3,,,,,,,,,2,,,74,0
67265,note_on,,5,0,2,,,,,,,,,1,,,59,0
67265,note_on,,5,0,1,,,,,,,,,0,,,74,0
67266,note_on,,1,0,2,,,,,,,,,1,,,61,72
67266,note_on,,1,0,1,,,,,,,,,0,,,76,79
67267,note_on,,19,0,7,,,,,,,,,6,,,47,0
67267,note_on,,19,0,8,,,,,,,,,7,,,35,0
67271,note_on,,5,0,2,,,,,,,,,1,,,61,0
67271,note_on,,5,0,1,,,,,,,,,0,,,76,0
67272,note_on,,1,0,2,,,,,,,,,1,,,59,85
67272,note_on,,1,0,1,,,,,,,,,0,,,74,79
67277,note_on,,5,0,2,,,,,,,,,1,,,59,0
67277,note_on,,5,0,1,,,,,,,,,0,,,74,0
67278,note_on,,1,0,1,,,,,,,,,0,,,76,79
67278,note_on,,1,0,2,,,,,,,,,1,,,61,85
67280,note_on,,0,0,4,,,,,,,,,3,,,67,78
67280,note_on,,16,0,3,,,,,,,,,2,,,78,0
67280,note_on,,0,0,3,,,,,,,,,2,,,76,78
67280,note_on,,0,0,5,,,,,,,,,4,,,64,79
67280,note_on,,16,0,5,,,,,,,,,4,,,62,0
67280,note_on,,16,0,4,,,,,,,,,3,,,69,0
67283,note_on,,5,0,2,,,,,,,,,1,,,61,0
67283,note_on,,5,0,1,,,,,,,,,0,,,76,0
67284,note_on,,1,0,2,,,,,,,,,1,,,59,85
67284,note_on,,1,0,1,,,,,,,,,0,,,74,79
67289,note_on,,5,0,1,,,,,,,,,0,,,74,0
67289,note_on,,5,0,2,,,,,,,,,1,,,59,0
67290,note_on,,1,0,2,,,,,,,,,1,,,61,72
67290,note_on,,1,0,1,,,,,,,,,0,,,76,79
67295,note_on,,5,0,1,,,,,,,,,0,,,76,0
67295,note_on,,5,0,2,,,,,,,,,1,,,61,0
67296,note_on,,0,0,3,,,,,,,,,2,,,74,78
67296,note_on,,16,0,4,,,,,,,,,3,,,67,0
67296,note_on,,0,0,5,,,,,,,,,4,,,66,79
67296,note_on,,16,0,5,,,,,,,,,4,,,64,0
67296,note_on,,16,0,3,,,,,,,,,2,,,76,0
67296,note_on,,0,0,4,,,,,,,,,3,,,66,95
67296,note_on,,1,0,2,,,,,,,,,1,,,59,76
67296,note_on,,1,0,1,,,,,,,,,0,,,74,79
67309,note_on,,13,0,1,,,,,,,,,0,,,74,0
67312,note_on,,3,0,1,,,,,,,,,0,,,78,79
67312,note_on,,16,0,2,,,,,,,,,1,,,59,0
67312,note_on,,0,0,2,,,,,,,,,1,,,62,76
67325,note_on,,13,0,1,,,,,,,,,0,,,78,0
67328,note_on,,3,0,1,,,,,,,,,0,,,76,79
67328,note_on,,16,0,2,,,,,,,,,1,,,62,0
67328,note_on,,0,0,2,,,,,,,,,1,,,61,76
67341,note_on,,13,0,1,,,,,,,,,0,,,76,0
67344,note_on,,0,0,2,,,,,,,,,1,,,59,76
67344,note_on,,16,0,2,,,,,,,,,1,,,61,0
67344,note_on,,3,0,1,,,,,,,,,0,,,74,79
67344,note_on,,77,0,7,,,,,,,,,6,,,59,74
67344,note_on,,77,0,8,,,,,,,,,7,,,47,74
67357,note_on,,13,0,1,,,,,,,,,0,,,74,0
67360,note_on,,0,0,2,,,,,,,,,1,,,57,76
67360,note_on,,16,0,2,,,,,,,,,1,,,59,0
67360,note_on,,3,0,1,,,,,,,,,0,,,73,79
67363,note_on,,19,0,7,,,,,,,,,6,,,59,0
67363,note_on,,19,0,8,,,,,,,,,7,,,47,0
67373,note_on,,13,0,1,,,,,,,,,0,,,73,0
67376,note_on,,3,0,1,,,,,,,,,0,,,71,79
67376,note_on,,0,0,2,,,,,,,,,1,,,55,76
67376,note_on,,16,0,2,,,,,,,,,1,,,57,0
67389,note_on,,13,0,1,,,,,,,,,0,,,71,0
67392,note_on,,0,0,6,,,,,,,,,5,,,57,85
67392,note_on,,0,0,2,,,,,,,,,1,,,54,57
67392,note_on,,3,0,1,,,,,,,,,0,,,69,85
67392,note_on,,29,0,8,,,,,,,,,7,,,42,69
67392,note_on,,29,0,7,,,,,,,,,6,,,54,69
67392,note_on,,16,0,2,,,,,,,,,1,,,55,0
67392,note_on,,192,0,6,,,,,,,,,5,,,59,0
67397,note_on,,5,0,1,,,,,,,,,0,,,69,0
67397,note_on,,5,0,2,,,,,,,,,1,,,54,0
67398,note_on,,1,0,1,,,,,,,,,0,,,71,85
67398,note_on,,1,0,2,,,,,,,,,1,,,55,85
67403,note_on,,5,0,1,,,,,,,,,0,,,71,0
67403,note_on,,5,0,2,,,,,,,,,1,,,55,0
67404,note_on,,1,0,2,,,,,,,,,1,,,54,60
67404,note_on,,1,0,1,,,,,,,,,0,,,69,85
67408,note_on,,112,0,5,,,,,,,,,4,,,62,79
67408,note_on,,112,0,3,,,,,,,,,2,,,81,62
67408,note_on,,112,0,4,,,,,,,,,3,,,78,95
67409,note_on,,5,0,2,,,,,,,,,1,,,54,0
67409,note_on,,5,0,1,,,,,,,,,0,,,69,0
67410,note_on,,1,0,1,,,,,,,,,0,,,71,85
67410,note_on,,1,0,2,,,,,,,,,1,,,55,85
67411,note_on,,19,0,7,,,,,,,,,6,,,54,0
67411,note_on,,19,0,8,,,,,,,,,7,,,42,0
67415,note_on,,5,0,2,,,,,,,,,1,,,55,0
67415,note_on,,5,0,1,,,,,,,,,0,,,71,0
67416,note_on,,1,0,2,,,,,,,,,1,,,54,65
67416,note_on,,1,0,1,,,,,,,,,0,,,69,85
67421,note_on,,5,0,1,,,,,,,,,0,,,69,0
67421,note_on,,5,0,2,,,,,,,,,1,,,54,0
67422,note_on,,1,0,1,,,,,,,,,0,,,71,85
67422,note_on,,1,0,2,,,,,,,,,1,,,55,74
67424,note_on,,16,0,5,,,,,,,,,4,,,62,0
67424,note_on,,16,0,3,,,,,,,,,2,,,81,0
67424,note_on,,0,0,5,,,,,,,,,4,,,64,79
67424,note_on,,16,0,4,,,,,,,,,3,,,78,0
67424,note_on,,0,0,4,,,,,,,,,3,,,76,95
67424,note_on,,0,0,3,,,,,,,,,2,,,79,81
67427,note_on,,5,0,2,,,,,,,,,1,,,55,0
67427,note_on,,5,0,1,,,,,,,,,0,,,71,0
67428,note_on,,1,0,2,,,,,,,,,1,,,54,65
67428,note_on,,1,0,1,,,,,,,,,0,,,69,85
67433,note_on,,5,0,1,,,,,,,,,0,,,69,0
67433,note_on,,5,0,2,,,,,,,,,1,,,54,0
67434,note_on,,1,0,2,,,,,,,,,1,,,55,85
67434,note_on,,1,0,1,,,,,,,,,0,,,71,85
67439,note_on,,5,0,1,,,,,,,,,0,,,71,0
67439,note_on,,5,0,2,,,,,,,,,1,,,55,0
67440,note_on,,1,0,1,,,,,,,,,0,,,69,85
67440,note_on,,1,0,2,,,,,,,,,1,,,54,68
67440,note_on,,0,0,3,,,,,,,,,2,,,74,0
67440,note_on,,16,0,3,,,,,,,,,2,,,79,0
67440,note_on,,29,0,7,,,,,,,,,6,,,42,74
67440,note_on,,29,0,8,,,,,,,,,7,,,30,74
67440,note_on,,16,0,4,,,,,,,,,3,,,76,0
67440,note_on,,0,0,4,,,,,,,,,3,,,66,0
67440,note_on,,0,0,4,,,,,,,,,3,,,74,95
67440,note_on,,0,0,5,,,,,,,,,4,,,66,79
67440,note_on,,0,0,5,,,,,,,,,4,,,66,0
67440,note_on,,0,0,3,,,,,,,,,2,,,78,56
67440,note_on,,16,0,5,,,,,,,,,4,,,64,0
67445,note_on,,5,0,2,,,,,,,,,1,,,54,0
67445,note_on,,5,0,1,,,,,,,,,0,,,69,0
67446,note_on,,1,0,1,,,,,,,,,0,,,71,85
67446,note_on,,1,0,2,,,,,,,,,1,,,55,85
67451,note_on,,5,0,1,,,,,,,,,0,,,71,0
67451,note_on,,5,0,2,,,,,,,,,1,,,55,0
67452,note_on,,1,0,1,,,,,,,,,0,,,69,85
67452,note_on,,1,0,2,,,,,,,,,1,,,54,66
67456,note_on,,16,0,5,,,,,,,,,4,,,66,0
67456,note_on,,0,0,5,,,,,,,,,4,,,62,79
67456,note_on,,0,0,3,,,,,,,,,2,,,81,65
67456,note_on,,16,0,3,,,,,,,,,2,,,78,0
67456,note_on,,16,0,4,,,,,,,,,3,,,74,0
67456,note_on,,0,0,4,,,,,,,,,3,,,78,95
67457,note_on,,5,0,2,,,,,,,,,1,,,54,0
67457,note_on,,5,0,1,,,,,,,,,0,,,69,0
67458,note_on,,1,0,2,,,,,,,,,1,,,55,85
67458,note_on,,1,0,1,,,,,,,,,0,,,71,85
67459,note_on,,19,0,7,,,,,,,,,6,,,42,0
67459,note_on,,19,0,8,,,,,,,,,7,,,30,0
67463,note_on,,5,0,2,,,,,,,,,1,,,55,0
67463,note_on,,5,0,1,,,,,,,,,0,,,71,0
67464,note_on,,1,0,2,,,,,,,,,1,,,54,72
67464,note_on,,1,0,1,,,,,,,,,0,,,69,85
67469,note_on,,5,0,1,,,,,,,,,0,,,69,0
67469,note_on,,5,0,2,,,,,,,,,1,,,54,0
67470,note_on,,1,0,2,,,,,,,,,1,,,55,85
67470,note_on,,1,0,1,,,,,,,,,0,,,71,85
67472,note_on,,16,0,5,,,,,,,,,4,,,62,0
67472,note_on,,0,0,5,,,,,,,,,4,,,64,79
67472,note_on,,16,0,3,,,,,,,,,2,,,81,0
67472,note_on,,0,0,4,,,,,,,,,3,,,76,95
67472,note_on,,0,0,3,,,,,,,,,2,,,79,78
67472,note_on,,16,0,4,,,,,,,,,3,,,78,0
67475,note_on,,5,0,1,,,,,,,,,0,,,71,0
67475,note_on,,5,0,2,,,,,,,,,1,,,55,0
67476,note_on,,1,0,1,,,,,,,,,0,,,69,85
67476,note_on,,1,0,2,,,,,,,,,1,,,54,64
67481,note_on,,5,0,1,,,,,,,,,0,,,69,0
67481,note_on,,5,0,2,,,,,,,,,1,,,54,0
67482,note_on,,1,0,2,,,,,,,,,1,,,55,85
67482,note_on,,1,0,1,,,,,,,,,0,,,71,85
67487,note_on,,5,0,1,,,,,,,,,0,,,71,0
67487,note_on,,5,0,2,,,,,,,,,1,,,55,0
67488,note_on,,1,0,2,,,,,,,,,1,,,54,76
67488,note_on,,16,0,5,,,,,,,,,4,,,64,0
67488,note_on,,0,0,5,,,,,,,,,4,,,66,79
67488,note_on,,0,0,4,,,,,,,,,3,,,74,95
67488,note_on,,16,0,3,,,,,,,,,2,,,79,0
67488,note_on,,0,0,3,,,,,,,,,2,,,78,78
67488,note_on,,1,0,1,,,,,,,,,0,,,69,79
67488,note_on,,16,0,4,,,,,,,,,3,,,76,0
67499,note_on,,11,0,1,,,,,,,,,0,,,69,0
67504,note_on,,0,0,2,,,,,,,,,1,,,50,71
67504,note_on,,16,0,2,,,,,,,,,1,,,54,0
67504,note_on,,5,0,1,,,,,,,,,0,,,66,79
67515,note_on,,11,0,1,,,,,,,,,0,,,66,0
67519,note_on,,127,0,6,,,,,,,,,5,,,57,0
67520,note_on,,16,0,2,,,,,,,,,1,,,50,0
67520,note_on,,0,0,2,,,,,,,,,1,,,52,85
67520,note_on,,5,0,1,,,,,,,,,0,,,67,79
67524,note_on,,0,0,5,,,,,,,,,4,,,69,79
67524,note_on,,36,0,5,,,,,,,,,4,,,66,0
67531,note_on,,11,0,1,,,,,,,,,0,,,67,0
67536,note_on,,0,0,5,,,,,,,,,4,,,74,79
67536,note_on,,77,0,8,,,,,,,,,7,,,42,66
67536,note_on,,0,0,2,,,,,,,,,1,,,54,59
67536,note_on,,5,0,1,,,,,,,,,0,,,69,79
67536,note_on,,16,0,2,,,,,,,,,1,,,52,0
67536,note_on,,77,0,7,,,,,,,,,6,,,54,66
67536,note_on,,12,0,5,,,,,,,,,4,,,69,0
67547,note_on,,11,0,1,,,,,,,,,0,,,69,0
67552,note_on,,16,0,2,,,,,,,,,1,,,54,0
67552,note_on,,0,0,2,,,,,,,,,1,,,52,69
67552,note_on,,64,0,3,,,,,,,,,2,,,78,0
67552,note_on,,16,0,5,,,,,,,,,4,,,74,0
67552,note_on,,5,0,1,,,,,,,,,0,,,67,79
67552,note_on,,0,0,5,,,,,,,,,4,,,73,79
67555,note_on,,19,0,7,,,,,,,,,6,,,54,0
67555,note_on,,19,0,8,,,,,,,,,7,,,42,0
67563,note_on,,11,0,1,,,,,,,,,0,,,67,0
67568,note_on,,16,0,5,,,,,,,,,4,,,73,0
67568,note_on,,0,0,2,,,,,,,,,1,,,54,60
67568,note_on,,16,0,2,,,,,,,,,1,,,52,0
67568,note_on,,0,0,5,,,,,,,,,4,,,74,79
67568,note_on,,5,0,1,,,,,,,,,0,,,69,79
67579,note_on,,11,0,1,,,,,,,,,0,,,69,0
67584,note_on,,29,0,8,,,,,,,,,7,,,44,67
67584,note_on,,5,0,1,,,,,,,,,0,,,71,72
67584,note_on,,32,0,3,,,,,,,,,2,,,76,78
67584,note_on,,0,0,2,,,,,,,,,1,,,56,64
67584,note_on,,16,0,2,,,,,,,,,1,,,54,0
67584,note_on,,29,0,7,,,,,,,,,6,,,56,67
67584,note_on,,16,0,5,,,,,,,,,4,,,74,0
67584,note_on,,0,0,5,,,,,,,,,4,,,71,79
67584,note_on,,65,0,6,,,,,,,,,5,,,64,85
67600,note_on,,0,0,2,,,,,,,,,1,,,59,85
67600,note_on,,0,0,1,,,,,,,,,0,,,74,71
67600,note_on,,16,0,1,,,,,,,,,0,,,71,0
67600,note_on,,16,0,2,,,,,,,,,1,,,56,0
67603,note_on,,19,0,8,,,,,,,,,7,,,44,0
67603,note_on,,19,0,7,,,,,,,,,6,,,56,0
67616,note_on,,16,0,2,,,,,,,,,1,,,59,0
67616,note_on,,0,0,2,,,,,,,,,1,,,57,85
67616,note_on,,16,0,1,,,,,,,,,0,,,74,0
67616,note_on,,0,0,1,,,,,,,,,0,,,73,64
67632,note_on,,29,0,8,,,,,,,,,7,,,32,60
67632,note_on,,0,0,2,,,,,,,,,1,,,56,59
67632,note_on,,0,0,1,,,,,,,,,0,,,71,81
67632,note_on,,16,0,2,,,,,,,,,1,,,57,0
67632,note_on,,29,0,7,,,,,,,,,6,,,44,60
67632,note_on,,16,0,1,,,,,,,,,0,,,73,0
67648,note_on,,0,0,2,,,,,,,,,1,,,59,57
67648,note_on,,16,0,1,,,,,,,,,0,,,71,0
67648,note_on,,0,0,1,,,,,,,,,0,,,74,85
67648,note_on,,16,0,2,,,,,,,,,1,,,56,0
67651,note_on,,19,0,7,,,,,,,,,6,,,44,0
67651,note_on,,19,0,8,,,,,,,,,7,,,32,0
67664,note_on,,16,0,2,,,,,,,,,1,,,59,0
67664,note_on,,16,0,1,,,,,,,,,0,,,74,0
67664,note_on,,0,0,1,,,,,,,,,0,,,73,59
67664,note_on,,0,0,2,,,,,,,,,1,,,57,85
67680,note_on,,0,0,2,,,,,,,,,1,,,56,57
67680,note_on,,16,0,2,,,,,,,,,1,,,57,0
67680,note_on,,0,0,1,,,,,,,,,0,,,71,78
67680,note_on,,16,0,1,,,,,,,,,0,,,73,0
67696,note_on,,16,0,2,,,,,,,,,1,,,56,0
67696,note_on,,16,0,1,,,,,,,,,0,,,71,0
67696,note_on,,0,0,2,,,,,,,,,1,,,52,77
67696,note_on,,0,0,1,,,,,,,,,0,,,68,55
67712,note_on,,0,0,1,,,,,,,,,0,,,69,85
67712,note_on,,16,0,2,,,,,,,,,1,,,52,0
67712,note_on,,0,0,2,,,,,,,,,1,,,54,56
67712,note_on,,16,0,1,,,,,,,,,0,,,68,0
67728,note_on,,16,0,1,,,,,,,,,0,,,69,0
67728,note_on,,0,0,1,,,,,,,,,0,,,71,85
67728,note_on,,77,0,7,,,,,,,,,6,,,56,56
67728,note_on,,16,0,2,,,,,,,,,1,,,54,0
67728,note_on,,0,0,2,,,,,,,,,1,,,56,61
67728,note_on,,77,0,8,,,,,,,,,7,,,44,56
67744,note_on,,16,0,1,,,,,,,,,0,,,71,0
67744,note_on,,0,0,2,,,,,,,,,1,,,54,66
67744,note_on,,16,0,2,,,,,,,,,1,,,56,0
67744,note_on,,0,0,1,,,,,,,,,0,,,69,85
67747,note_on,,19,0,8,,,,,,,,,7,,,44,0
67747,note_on,,19,0,7,,,,,,,,,6,,,56,0
67760,note_on,,16,0,2,,,,,,,,,1,,,54,0
67760,note_on,,0,0,1,,,,,,,,,0,,,71,82
67760,note_on,,16,0,1,,,,,,,,,0,,,69,0
67760,note_on,,0,0,2,,,,,,,,,1,,,56,67
67770,note_on,,282,0,4,,,,,,,,,3,,,74,0
67776,note_on,,16,0,2,,,,,,,,,1,,,56,0
67776,note_on,,0,0,2,,,,,,,,,1,,,57,76
67776,note_on,,29,0,8,,,,,,,,,7,,,45,74
67776,note_on,,0,0,3,,,,,,,,,2,,,76,78
67776,note_on,,29,0,7,,,,,,,,,6,,,57,74
67776,note_on,,192,0,6,,,,,,,,,5,,,64,0
67776,note_on,,192,0,5,,,,,,,,,4,,,71,0
67776,note_on,,192,0,3,,,,,,,,,2,,,76,0
67776,note_on,,0,0,6,,,,,,,,,5,,,64,85
67776,note_on,,0,0,1,,,,,,,,,0,,,73,76
67776,note_on,,0,0,5,,,,,,,,,4,,,73,79
67776,note_on,,6,0,4,,,,,,,,,3,,,73,95
67776,note_on,,16,0,1,,,,,,,,,0,,,71,0
67784,note_on,,0,0,2,,,,,,,,,1,,,61,52
67784,note_on,,8,0,2,,,,,,,,,1,,,57,0
67791,note_on,,15,0,4,,,,,,,,,3,,,73,0
67792,note_on,,16,0,1,,,,,,,,,0,,,73,0
67792,note_on,,0,0,2,,,,,,,,,1,,,62,82
67792,note_on,,8,0,2,,,,,,,,,1,,,61,0
67792,note_on,,1,0,4,,,,,,,,,3,,,71,95
67795,note_on,,19,0,8,,,,,,,,,7,,,45,0
67795,note_on,,19,0,7,,,,,,,,,6,,,57,0
67800,note_on,,24,0,5,,,,,,,,,4,,,73,0
67800,note_on,,24,0,6,,,,,,,,,5,,,64,0
67800,note_on,,8,0,2,,,,,,,,,1,,,62,0
67800,note_on,,0,0,2,,,,,,,,,1,,,64,67
67807,note_on,,15,0,4,,,,,,,,,3,,,71,0
67808,note_on,,1,0,4,,,,,,,,,3,,,69,95
67808,note_on,,8,0,2,,,,,,,,,1,,,64,0
67808,note_on,,0,0,2,,,,,,,,,1,,,66,40
67816,note_on,,8,0,2,,,,,,,,,1,,,66,0
67816,note_on,,0,0,2,,,,,,,,,1,,,67,85
67823,note_on,,15,0,4,,,,,,,,,3,,,69,0
67824,note_on,,1,0,4,,,,,,,,,3,,,81,95
67824,note_on,,8,0,2,,,,,,,,,1,,,67,0
67824,note_on,,0,0,2,,,,,,,,,1,,,69,85
67824,note_on,,32,0,1,,,,,,,,,0,,,69,76
67824,note_on,,48,0,3,,,,,,,,,2,,,76,0
67824,note_on,,29,0,7,,,,,,,,,6,,,54,74
67824,note_on,,24,0,5,,,,,,,,,4,,,73,79
67824,note_on,,24,0,6,,,,,,,,,5,,,66,85
67832,note_on,,8,0,1,,,,,,,,,0,,,79,76
67840,note_on,,16,0,2,,,,,,,,,1,,,69,0
67840,note_on,,8,0,1,,,,,,,,,0,,,79,0
67840,note_on,,0,0,1,,,,,,,,,0,,,69,0
67840,note_on,,0,0,1,,,,,,,,,0,,,78,76
67840,note_on,,16,0,7,,,,,,,,,6,,,54,0
67840,note_on,,16,0,3,,,,,,,,,2,,,78,78
67848,note_on,,0,0,1,,,,,,,,,0,,,76,76
67848,note_on,,8,0,1,,,,,,,,,0,,,78,0
67848,note_on,,24,0,5,,,,,,,,,4,,,73,0
67848,note_on,,24,0,6,,,,,,,,,5,,,66,0
67856,note_on,,16,0,3,,,,,,,,,2,,,78,0
67856,note_on,,0,0,1,,,,,,,,,0,,,74,76
67856,note_on,,8,0,1,,,,,,,,,0,,,76,0
67856,note_on,,0,0,3,,,,,,,,,2,,,76,78
67864,note_on,,0,0,1,,,,,,,,,0,,,73,76
67864,note_on,,8,0,1,,,,,,,,,0,,,74,0
67872,note_on,,0,0,1,,,,,,,,,0,,,74,76
67872,note_on,,8,0,1,,,,,,,,,0,,,73,0
67872,note_on,,24,0,6,,,,,,,,,5,,,66,85
67872,note_on,,24,0,5,,,,,,,,,4,,,71,79
67872,note_on,,0,0,3,,,,,,,,,2,,,74,78
67872,note_on,,16,0,3,,,,,,,,,2,,,76,0
67872,note_on,,32,0,7,,,,,,,,,6,,,47,85
67880,note_on,,40,0,2,,,,,,,,,1,,,59,85
67888,note_on,,16,0,1,,,,,,,,,0,,,74,0
67888,note_on,,64,0,4,,,,,,,,,3,,,83,95
67888,note_on,,16,0,7,,,,,,,,,6,,,47,0
67888,note_on,,8,0,2,,,,,,,,,1,,,59,0
67888,note_on,,0,0,2,,,,,,,,,1,,,61,57
67891,note_on,,3,0,4,,,,,,,,,3,,,81,0
67896,note_on,,24,0,6,,,,,,,,,5,,,66,0
67896,note_on,,24,0,5,,,,,,,,,4,,,71,0
67896,note_on,,8,0,2,,,,,,,,,1,,,61,0
67896,note_on,,0,0,2,,,,,,,,,1,,,62,85
67903,note_on,,12,0,4,,,,,,,,,3,,,83,0
67904,note_on,,1,0,4,,,,,,,,,3,,,81,95
67904,note_on,,8,0,2,,,,,,,,,1,,,62,0
67904,note_on,,0,0,2,,,,,,,,,1,,,64,85
67912,note_on,,24,0,1,,,,,,,,,0,,,67,85
67912,note_on,,0,0,2,,,,,,,,,1,,,66,64
67912,note_on,,8,0,2,,,,,,,,,1,,,64,0
67919,note_on,,15,0,4,,,,,,,,,3,,,81,0
67920,note_on,,1,0,4,,,,,,,,,3,,,79,95
67920,note_on,,32,0,7,,,,,,,,,6,,,52,78
67920,note_on,,8,0,2,,,,,,,,,1,,,66,0
67920,note_on,,0,0,2,,,,,,,,,1,,,67,85
67920,note_on,,24,0,5,,,,,,,,,4,,,71,79
67920,note_on,,48,0,3,,,,,,,,,2,,,74,0
67920,note_on,,24,0,6,,,,,,,,,5,,,64,85
67928,note_on,,16,0,1,,,,,,,,,0,,,67,0
67928,note_on,,0,0,1,,,,,,,,,0,,,78,76
67936,note_on,,16,0,2,,,,,,,,,1,,,67,0
67936,note_on,,16,0,7,,,,,,,,,6,,,52,0
67936,note_on,,16,0,3,,,,,,,,,2,,,76,78
67936,note_on,,0,0,1,,,,,,,,,0,,,76,76
67936,note_on,,8,0,1,,,,,,,,,0,,,78,0
67944,note_on,,24,0,5,,,,,,,,,4,,,71,0
67944,note_on,,8,0,1,,,,,,,,,0,,,76,0
67944,note_on,,0,0,1,,,,,,,,,0,,,74,76
67944,note_on,,24,0,6,,,,,,,,,5,,,64,0
67952,note_on,,0,0,3,,,,,,,,,2,,,74,78
67952,note_on,,0,0,1,,,,,,,,,0,,,73,76
67952,note_on,,8,0,1,,,,,,,,,0,,,74,0
67952,note_on,,16,0,3,,,,,,,,,2,,,76,0
67960,note_on,,0,0,1,,,,,,,,,0,,,71,76
67960,note_on,,8,0,1,,,,,,,,,0,,,73,0
67968,note_on,,24,0,6,,,,,,,,,5,,,64,85
67968,note_on,,32,0,7,,,,,,,,,6,,,45,85
67968,note_on,,24,0,5,,,,,,,,,4,,,69,79
67968,note_on,,0,0,1,,,,,,,,,0,,,73,76
67968,note_on,,0,0,3,,,,,,,,,2,,,73,78
67968,note_on,,8,0,1,,,,,,,,,0,,,71,0
67968,note_on,,16,0,3,,,,,,,,,2,,,74,0
67976,note_on,,40,0,2,,,,,,,,,1,,,57,76
67984,note_on,,8,0,2,,,,,,,,,1,,,57,0
67984,note_on,,0,0,2,,,,,,,,,1,,,59,76
67984,note_on,,16,0,1,,,,,,,,,0,,,73,0
67984,note_on,,64,0,4,,,,,,,,,3,,,81,95
67984,note_on,,16,0,7,,,,,,,,,6,,,45,0
67987,note_on,,3,0,4,,,,,,,,,3,,,79,0
67992,note_on,,8,0,2,,,,,,,,,1,,,59,0
67992,note_on,,0,0,2,,,,,,,,,1,,,61,76
67992,note_on,,24,0,5,,,,,,,,,4,,,69,0
67992,note_on,,24,0,6,,,,,,,,,5,,,64,0
67999,note_on,,12,0,4,,,,,,,,,3,,,81,0
68000,note_on,,1,0,4,,,,,,,,,3,,,79,95
68000,note_on,,0,0,2,,,,,,,,,1,,,62,76
68000,note_on,,8,0,2,,,,,,,,,1,,,61,0
68008,note_on,,0,0,2,,,,,,,,,1,,,64,76
68008,note_on,,8,0,2,,,,,,,,,1,,,62,0
68015,note_on,,15,0,4,,,,,,,,,3,,,79,0
68016,note_on,,0,0,2,,,,,,,,,1,,,66,76
68016,note_on,,48,0,3,,,,,,,,,2,,,73,0
68016,note_on,,24,0,5,,,,,,,,,4,,,69,79
68016,note_on,,24,0,6,,,,,,,,,5,,,62,85
68016,note_on,,8,0,2,,,,,,,,,1,,,64,0
68016,note_on,,32,0,7,,,,,,,,,6,,,50,85
68016,note_on,,1,0,4,,,,,,,,,3,,,78,95
68024,note_on,,40,0,1,,,,,,,,,0,,,76,85
68032,note_on,,16,0,2,,,,,,,,,1,,,66,0
68032,note_on,,16,0,3,,,,,,,,,2,,,74,78
68032,note_on,,8,0,1,,,,,,,,,0,,,76,0
68032,note_on,,0,0,1,,,,,,,,,0,,,74,85
68032,note_on,,16,0,7,,,,,,,,,6,,,50,0
68040,note_on,,24,0,6,,,,,,,,,5,,,62,0
68040,note_on,,8,0,1,,,,,,,,,0,,,74,0
68040,note_on,,0,0,1,,,,,,,,,0,,,72,85
68040,note_on,,24,0,5,,,,,,,,,4,,,69,0
68048,note_on,,16,0,3,,,,,,,,,2,,,74,0
68048,note_on,,8,0,1,,,,,,,,,0,,,72,0
68048,note_on,,0,0,1,,,,,,,,,0,,,71,85
68048,note_on,,0,0,3,,,,,,,,,2,,,72,78
68056,note_on,,8,0,1,,,,,,,,,0,,,71,0
68056,note_on,,0,0,1,,,,,,,,,0,,,69,85
68064,note_on,,32,0,7,,,,,,,,,6,,,43,85
68064,note_on,,0,0,1,,,,,,,,,0,,,71,72
68064,note_on,,0,0,3,,,,,,,,,2,,,71,78
68064,note_on,,16,0,3,,,,,,,,,2,,,72,0
68064,note_on,,24,0,5,,,,,,,,,4,,,71,79
68064,note_on,,24,0,6,,,,,,,,,5,,,62,85
68064,note_on,,8,0,1,,,,,,,,,0,,,69,0
68064,note_on,,32,0,2,,,,,,,,,1,,,55,76
68072,note_on,,0,0,1,,,,,,,,,0,,,72,82
68072,note_on,,8,0,1,,,,,,,,,0,,,71,0
68080,note_on,,0,0,1,,,,,,,,,0,,,71,74
68080,note_on,,8,0,1,,,,,,,,,0,,,72,0
68080,note_on,,64,0,4,,,,,,,,,3,,,71,95
68080,note_on,,16,0,2,,,,,,,,,1,,,55,0
68083,note_on,,3,0,4,,,,,,,,,3,,,78,0
68088,note_on,,0,0,1,,,,,,,,,0,,,69,85
68088,note_on,,8,0,1,,,,,,,,,0,,,71,0
68095,note_on,,12,0,4,,,,,,,,,3,,,71,0
68096,note_on,,8,0,1,,,,,,,,,0,,,69,0
68096,note_on,,0,0,1,,,,,,,,,0,,,67,85
68096,note_on,,1,0,4,,,,,,,,,3,,,74,95
68097,note_on,,33,0,7,,,,,,,,,6,,,43,0
68104,note_on,,8,0,1,,,,,,,,,0,,,67,0
68104,note_on,,0,0,1,,,,,,,,,0,,,66,59
68111,note_on,,15,0,4,,,,,,,,,3,,,74,0
68112,note_on,,48,0,3,,,,,,,,,2,,,71,0
68112,note_on,,0,0,3,,,,,,,,,2,,,79,78
68112,note_on,,8,0,1,,,,,,,,,0,,,66,0
68112,note_on,,0,0,1,,,,,,,,,0,,,64,59
68112,note_on,,48,0,5,,,,,,,,,4,,,71,0
68112,note_on,,48,0,6,,,,,,,,,5,,,62,0
68112,note_on,,1,0,4,,,,,,,,,3,,,76,95
68120,note_on,,8,0,1,,,,,,,,,0,,,64,0
68120,note_on,,0,0,1,,,,,,,,,0,,,66,59
68127,note_on,,15,0,4,,,,,,,,,3,,,76,0
68128,note_on,,8,0,1,,,,,,,,,0,,,66,0
68128,note_on,,0,0,1,,,,,,,,,0,,,64,71
68128,note_on,,1,0,4,,,,,,,,,3,,,78,95
68136,note_on,,0,0,1,,,,,,,,,0,,,62,42
68136,note_on,,8,0,1,,,,,,,,,0,,,64,0
68143,note_on,,15,0,4,,,,,,,,,3,,,78,0
68144,note_on,,8,0,1,,,,,,,,,0,,,62,0
68144,note_on,,0,0,1,,,,,,,,,0,,,61,54
68144,note_on,,1,0,4,,,,,,,,,3,,,79,95
68152,note_on,,0,0,1,,,,,,,,,0,,,64,61
68152,note_on,,0,0,1,,,,,,,,,0,,,71,81
68152,note_on,,0,0,1,,,,,,,,,0,,,67,79
68152,note_on,,72,0,2,,,,,,,,,1,,,59,76
68152,note_on,,8,0,1,,,,,,,,,0,,,61,0
68159,note_on,,15,0,4,,,,,,,,,3,,,79,0
68160,note_on,,1,0,4,,,,,,,,,3,,,73,66
68160,note_on,,0,0,2,,,,,,,,,1,,,57,103
68160,note_on,,8,0,2,,,,,,,,,1,,,59,0
68160,note_on,,8,0,1,,,,,,,,,0,,,71,0
68160,note_on,,0,0,1,,,,,,,,,0,,,67,106
68160,note_on,,0,0,1,,,,,,,,,0,,,64,103
68160,note_on,,0,0,1,,,,,,,,,0,,,64,0
68160,note_on,,0,0,1,,,,,,,,,0,,,67,0
68160,note_on,,0,0,1,,,,,,,,,0,,,73,94
68160,note_on,,0,0,1,,,,,,,,,0,,,69,107
68165,note_on,,5,0,2,,,,,,,,,1,,,57,0
68168,note_on,,3,0,2,,,,,,,,,1,,,59,103
68171,note_on,,11,0,4,,,,,,,,,3,,,73,0
68173,note_on,,5,0,2,,,,,,,,,1,,,59,0
68176,note_on,,3,0,2,,,,,,,,,1,,,57,93
68176,note_on,,5,0,4,,,,,,,,,3,,,76,66
68176,note_on,,64,0,3,,,,,,,,,2,,,73,71
68181,note_on,,5,0,2,,,,,,,,,1,,,57,0
68184,note_on,,8,0,3,,,,,,,,,2,,,73,0
68184,note_on,,0,0,3,,,,,,,,,2,,,79,0
68184,note_on,,0,0,1,,,,,,,,,0,,,69,0
68184,note_on,,0,0,1,,,,,,,,,0,,,64,0
68184,note_on,,24,0,1,,,,,,,,,0,,,73,0
68184,note_on,,0,0,1,,,,,,,,,0,,,67,0
68184,note_on,,3,0,2,,,,,,,,,1,,,55,82
68187,note_on,,11,0,4,,,,,,,,,3,,,76,0
68189,note_on,,5,0,2,,,,,,,,,1,,,55,0
68192,note_on,,8,0,3,,,,,,,,,2,,,76,93
68192,note_on,,3,0,2,,,,,,,,,1,,,54,86
68192,note_on,,5,0,4,,,,,,,,,3,,,73,66
68196,note_on,,84,0,5,,,,,,,,,4,,,73,79
68196,note_on,,401,0,8,,,,,,,,,7,,,45,85
68196,note_on,,84,0,6,,,,,,,,,5,,,69,85
68196,note_on,,99,0,7,,,,,,,,,6,,,45,85
68197,note_on,,5,0,2,,,,,,,,,1,,,54,0
68200,note_on,,8,0,3,,,,,,,,,2,,,76,0
68200,note_on,,3,0,2,,,,,,,,,1,,,52,103
68203,note_on,,11,0,4,,,,,,,,,3,,,73,0
68204,note_on,,8,0,8,,,,,,,,,7,,,45,0
68204,note_on,,8,0,6,,,,,,,,,5,,,69,0
68204,note_on,,8,0,7,,,,,,,,,6,,,45,0
68205,note_on,,5,0,2,,,,,,,,,1,,,52,0
68205,note_on,,9,0,5,,,,,,,,,4,,,73,0
68208,note_on,,3,0,5,,,,,,,,,4,,,74,85
68208,note_on,,5,0,4,,,,,,,,,3,,,69,66
68208,note_on,,4,0,8,,,,,,,,,7,,,50,56
68208,note_on,,4,0,6,,,,,,,,,5,,,66,65
68208,note_on,,8,0,3,,,,,,,,,2,,,78,78
68208,note_on,,3,0,2,,,,,,,,,1,,,50,99
68208,note_on,,4,0,7,,,,,,,,,6,,,50,56
68208,note_on,,0,0,1,,,,,,,,,0,,,69,103
68208,note_on,,0,0,1,,,,,,,,,0,,,74,103
68208,note_on,,24,0,1,,,,,,,,,0,,,66,89
68213,note_on,,5,0,2,,,,,,,,,1,,,50,0
68216,note_on,,3,0,2,,,,,,,,,1,,,52,82
68216,note_on,,8,0,3,,,,,,,,,2,,,78,0
68219,note_on,,11,0,4,,,,,,,,,3,,,69,0
68221,note_on,,5,0,2,,,,,,,,,1,,,52,0
68224,note_on,,3,0,2,,,,,,,,,1,,,50,80
68224,note_on,,5,0,4,,,,,,,,,3,,,71,66
68224,note_on,,8,0,3,,,,,,,,,2,,,79,100
68229,note_on,,5,0,2,,,,,,,,,1,,,50,0
68232,note_on,,3,0,2,,,,,,,,,1,,,49,82
68232,note_on,,24,0,6,,,,,,,,,5,,,66,0
68232,note_on,,8,0,3,,,,,,,,,2,,,79,0
68232,note_on,,0,0,1,,,,,,,,,0,,,69,0
68232,note_on,,24,0,1,,,,,,,,,0,,,74,0
68232,note_on,,24,0,7,,,,,,,,,6,,,50,0
68232,note_on,,24,0,8,,,,,,,,,7,,,50,0
68232,note_on,,0,0,1,,,,,,,,,0,,,66,0
68235,note_on,,11,0,4,,,,,,,,,3,,,71,0
68235,note_on,,27,0,5,,,,,,,,,4,,,74,0
68237,note_on,,5,0,2,,,,,,,,,1,,,49,0
68240,note_on,,8,0,3,,,,,,,,,2,,,81,103
68240,note_on,,3,0,2,,,,,,,,,1,,,47,69
68240,note_on,,5,0,4,,,,,,,,,3,,,73,66
68244,note_on,,12,0,6,,,,,,,,,5,,,64,85
68244,note_on,,12,0,7,,,,,,,,,6,,,45,85
68244,note_on,,12,0,8,,,,,,,,,7,,,45,85
68244,note_on,,9,0,5,,,,,,,,,4,,,73,71
68245,note_on,,5,0,2,,,,,,,,,1,,,47,0
68248,note_on,,3,0,2,,,,,,,,,1,,,45,103
68248,note_on,,8,0,3,,,,,,,,,2,,,81,0
68251,note_on,,11,0,4,,,,,,,,,3,,,73,0
68252,note_on,,8,0,7,,,,,,,,,6,,,45,0
68252,note_on,,8,0,8,,,,,,,,,7,,,45,0
68252,note_on,,8,0,6,,,,,,,,,5,,,64,0
68253,note_on,,5,0,2,,,,,,,,,1,,,45,0
68253,note_on,,9,0,5,,,,,,,,,4,,,73,0
68256,note_on,,5,0,4,,,,,,,,,3,,,66,65
68256,note_on,,3,0,2,,,,,,,,,1,,,47,100
68256,note_on,,8,0,3,,,,,,,,,2,,,74,85
68256,note_on,,4,0,7,,,,,,,,,6,,,47,60
68256,note_on,,4,0,8,,,,,,,,,7,,,47,60
68256,note_on,,3,0,5,,,,,,,,,4,,,71,85
68256,note_on,,0,0,1,,,,,,,,,0,,,74,103
68256,note_on,,24,0,1,,,,,,,,,0,,,66,81
68256,note_on,,0,0,1,,,,,,,,,0,,,71,103
68256,note_on,,4,0,6,,,,,,,,,5,,,62,85
68267,note_on,,11,0,2,,,,,,,,,1,,,47,0
68267,note_on,,11,0,6,,,,,,,,,5,,,62,0
68267,note_on,,11,0,8,,,,,,,,,7,,,47,0
68267,note_on,,11,0,7,,,,,,,,,6,,,47,0
68272,note_on,,5,0,7,,,,,,,,,6,,,45,85
68272,note_on,,5,0,2,,,,,,,,,1,,,45,100
68272,note_on,,5,0,6,,,,,,,,,5,,,61,66
68272,note_on,,5,0,8,,,,,,,,,7,,,45,85
68274,note_on,,18,0,3,,,,,,,,,2,,,74,0
68280,note_on,,24,0,4,,,,,,,,,3,,,66,0
68283,note_on,,11,0,7,,,,,,,,,6,,,45,0
68283,note_on,,11,0,6,,,,,,,,,5,,,61,0
68283,note_on,,11,0,8,,,,,,,,,7,,,45,0
68283,note_on,,11,0,2,,,,,,,,,1,,,45,0
68283,note_on,,27,0,5,,,,,,,,,4,,,71,0
68288,note_on,,5,0,2,,,,,,,,,1,,,43,103
68288,note_on,,5,0,6,,,,,,,,,5,,,59,85
68288,note_on,,5,0,7,,,,,,,,,6,,,43,85
68288,note_on,,5,0,8,,,,,,,,,7,,,43,85
68292,note_on,,0,0,1,,,,,,,,,0,,,74,103
68292,note_on,,0,0,1,,,,,,,,,0,,,71,103
68292,note_on,,0,0,1,,,,,,,,,0,,,64,103
68292,note_on,,0,0,1,,,,,,,,,0,,,66,0
68292,note_on,,0,0,1,,,,,,,,,0,,,71,0
68292,note_on,,36,0,1,,,,,,,,,0,,,74,0
68292,note_on,,18,0,3,,,,,,,,,2,,,76,96
68292,note_on,,12,0,4,,,,,,,,,3,,,67,85
68292,note_on,,9,0,5,,,,,,,,,4,,,71,85
68298,note_on,,6,0,3,,,,,,,,,2,,,76,0
68299,note_on,,11,0,6,,,,,,,,,5,,,59,0
68299,note_on,,11,0,7,,,,,,,,,6,,,43,0
68299,note_on,,11,0,8,,,,,,,,,7,,,43,0
68299,note_on,,11,0,2,,,,,,,,,1,,,43,0
68300,note_on,,8,0,4,,,,,,,,,3,,,67,0
68301,note_on,,9,0,5,,,,,,,,,4,,,71,0
68304,note_on,,3,0,5,,,,,,,,,4,,,69,85
68304,note_on,,0,0,1,,,,,,,,,0,,,73,96
68304,note_on,,5,0,2,,,,,,,,,1,,,45,103
68304,note_on,,12,0,1,,,,,,,,,0,,,74,0
68304,note_on,,0,0,1,,,,,,,,,0,,,69,108
68304,note_on,,4,0,4,,,,,,,,,3,,,64,85
68304,note_on,,0,0,1,,,,,,,,,0,,,64,103
68304,note_on,,5,0,6,,,,,,,,,5,,,64,76
68304,note_on,,0,0,1,,,,,,,,,0,,,71,0
68304,note_on,,0,0,1,,,,,,,,,0,,,64,0
68304,note_on,,5,0,7,,,,,,,,,6,,,45,85
68304,note_on,,5,0,8,,,,,,,,,7,,,45,85
68304,note_on,,6,0,3,,,,,,,,,2,,,73,87
68315,note_on,,11,0,6,,,,,,,,,5,,,64,0
68320,note_on,,5,0,6,,,,,,,,,5,,,66,68
68322,note_on,,18,0,3,,,,,,,,,2,,,73,0
68328,note_on,,24,0,8,,,,,,,,,7,,,45,0
68328,note_on,,24,0,7,,,,,,,,,6,,,45,0
68328,note_on,,24,0,4,,,,,,,,,3,,,64,0
68328,note_on,,24,0,2,,,,,,,,,1,,,45,0
68331,note_on,,11,0,6,,,,,,,,,5,,,66,0
68331,note_on,,27,0,5,,,,,,,,,4,,,69,0
68336,note_on,,5,0,6,,,,,,,,,5,,,67,85
68340,note_on,,36,0,1,,,,,,,,,0,,,73,0
68340,note_on,,0,0,1,,,,,,,,,0,,,69,0
68340,note_on,,0,0,1,,,,,,,,,0,,,64,0
68340,note_on,,0,0,1,,,,,,,,,0,,,67,106
68340,note_on,,18,0,3,,,,,,,,,2,,,74,96
68340,note_on,,12,0,2,,,,,,,,,1,,,45,103
68340,note_on,,0,0,1,,,,,,,,,0,,,73,89
68340,note_on,,12,0,4,,,,,,,,,3,,,62,85
68340,note_on,,12,0,7,,,,,,,,,6,,,45,85
68340,note_on,,12,0,8,,,,,,,,,7,,,45,85
68340,note_on,,0,0,1,,,,,,,,,0,,,64,103
68340,note_on,,9,0,5,,,,,,,,,4,,,69,85
68346,note_on,,6,0,3,,,,,,,,,2,,,74,0
68347,note_on,,11,0,6,,,,,,,,,5,,,67,0
68348,note_on,,8,0,7,,,,,,,,,6,,,45,0
68348,note_on,,8,0,4,,,,,,,,,3,,,62,0
68348,note_on,,8,0,8,,,,,,,,,7,,,45,0
68348,note_on,,8,0,2,,,,,,,,,1,,,45,0
68349,note_on,,9,0,5,,,,,,,,,4,,,69,0
68352,note_on,,0,0,1,,,,,,,,,0,,,67,0
68352,note_on,,0,0,1,,,,,,,,,0,,,62,103
68352,note_on,,0,0,1,,,,,,,,,0,,,69,106
68352,note_on,,0,0,1,,,,,,,,,0,,,64,0
68352,note_on,,12,0,1,,,,,,,,,0,,,73,0
68352,note_on,,0,0,1,,,,,,,,,0,,,74,103
68352,note_on,,0,0,1,,,,,,,,,0,,,66,92
68352,note_on,,5,0,6,,,,,,,,,5,,,66,56
68352,note_on,,4,0,4,,,,,,,,,3,,,62,85
68352,note_on,,4,0,8,,,,,,,,,7,,,38,85
68352,note_on,,3,0,5,,,,,,,,,4,,,69,85
68352,note_on,,6,0,3,,,,,,,,,2,,,74,94
68352,note_on,,4,0,7,,,,,,,,,6,,,38,85
68352,note_on,,4,0,2,,,,,,,,,1,,,38,103
68368,note_on,,16,0,2,,,,,,,,,1,,,38,0
68368,note_on,,16,0,8,,,,,,,,,7,,,38,0
68368,note_on,,16,0,7,,,,,,,,,6,,,38,0
68370,note_on,,18,0,5,,,,,,,,,4,,,69,0
68376,note_on,,24,0,3,,,,,,,,,2,,,74,0
68376,note_on,,24,0,1,,,,,,,,,0,,,74,0
68376,note_on,,0,0,1,,,,,,,,,0,,,66,0
68376,note_on,,24,0,6,,,,,,,,,5,,,66,0
68376,note_on,,0,0,1,,,,,,,,,0,,,69,0
68376,note_on,,0,0,1,,,,,,,,,0,,,62,0
68388,note_on,,12,0,6,,,,,,,,,5,,,69,85
68396,note_on,,8,0,6,,,,,,,,,5,,,69,0
68400,note_on,,24,0,3,,,,,,,,,2,,,72,84
68400,note_on,,32,0,2,,,,,,,,,1,,,42,88
68400,note_on,,4,0,6,,,,,,,,,5,,,74,85
68400,note_on,,32,0,7,,,,,,,,,6,,,42,65
68416,note_on,,16,0,2,,,,,,,,,1,,,42,0
68416,note_on,,16,0,7,,,,,,,,,6,,,42,0
68424,note_on,,24,0,3,,,,,,,,,2,,,72,0
68424,note_on,,24,0,6,,,,,,,,,5,,,74,0
68436,note_on,,12,0,6,,,,,,,,,5,,,69,71
68444,note_on,,8,0,6,,,,,,,,,5,,,69,0
68448,note_on,,32,0,7,,,,,,,,,6,,,43,56
68448,note_on,,24,0,3,,,,,,,,,2,,,71,101
68448,note_on,,4,0,6,,,,,,,,,5,,,71,74
68448,note_on,,32,0,2,,,,,,,,,1,,,43,103
68459,note_on,,11,0,6,,,,,,,,,5,,,71,0
68464,note_on,,5,0,6,,,,,,,,,5,,,69,85
68464,note_on,,16,0,7,,,,,,,,,6,,,43,0
68464,note_on,,16,0,2,,,,,,,,,1,,,43,0
68472,note_on,,24,0,3,,,,,,,,,2,,,71,0
68475,note_on,,11,0,6,,,,,,,,,5,,,69,0
68480,note_on,,5,0,6,,,,,,,,,5,,,67,81
68484,note_on,,114,0,5,,,,,,,,,4,,,67,85
68491,note_on,,11,0,6,,,,,,,,,5,,,67,0
68493,note_on,,9,0,5,,,,,,,,,4,,,67,0
68496,note_on,,24,0,3,,,,,,,,,2,,,69,103
68496,note_on,,5,0,6,,,,,,,,,5,,,66,56
68496,note_on,,32,0,7,,,,,,,,,6,,,48,85
68496,note_on,,3,0,5,,,,,,,,,4,,,74,85
68496,note_on,,32,0,2,,,,,,,,,1,,,48,91
68507,note_on,,11,0,6,,,,,,,,,5,,,66,0
68512,note_on,,16,0,7,,,,,,,,,6,,,48,0
68512,note_on,,5,0,6,,,,,,,,,5,,,67,79
68512,note_on,,16,0,2,,,,,,,,,1,,,48,0
68520,note_on,,24,0,3,,,,,,,,,2,,,69,0
68523,note_on,,27,0,5,,,,,,,,,4,,,74,0
68523,note_on,,11,0,6,,,,,,,,,5,,,67,0
68528,note_on,,5,0,6,,,,,,,,,5,,,69,85
68532,note_on,,9,0,5,,,,,,,,,4,,,69,85
68539,note_on,,11,0,6,,,,,,,,,5,,,69,0
68541,note_on,,9,0,5,,,,,,,,,4,,,69,0
68544,note_on,,5,0,6,,,,,,,,,5,,,62,85
68544,note_on,,3,0,5,,,,,,,,,4,,,71,85
68544,note_on,,24,0,3,,,,,,,,,2,,,67,98
68544,note_on,,32,0,7,,,,,,,,,6,,,47,85
68544,note_on,,32,0,2,,,,,,,,,1,,,47,103
68552,note_on,,8,0,3,,,,,,,,,2,,,67,0
68556,note_on,,12,0,5,,,,,,,,,4,,,71,0
68560,note_on,,16,0,6,,,,,,,,,5,,,62,0
68560,note_on,,4,0,5,,,,,,,,,4,,,69,85
68560,note_on,,8,0,3,,,,,,,,,2,,,69,103
68568,note_on,,24,0,2,,,,,,,,,1,,,47,0
68568,note_on,,8,0,3,,,,,,,,,2,,,69,0
68568,note_on,,24,0,7,,,,,,,,,6,,,47,0
68572,note_on,,12,0,5,,,,,,,,,4,,,69,0
68576,note_on,,4,0,5,,,,,,,,,4,,,67,85
68576,note_on,,8,0,3,,,,,,,,,2,,,71,103
68580,note_on,,12,0,2,,,,,,,,,1,,,55,103
68580,note_on,,12,0,7,,,,,,,,,6,,,55,91
68580,note_on,,212,0,8,,,,,,,,,7,,,43,91
68584,note_on,,8,0,3,,,,,,,,,2,,,71,0
68588,note_on,,12,0,5,,,,,,,,,4,,,67,0
68588,note_on,,8,0,7,,,,,,,,,6,,,55,0
68588,note_on,,8,0,8,,,,,,,,,7,,,43,0
68588,note_on,,8,0,2,,,,,,,,,1,,,55,0
68592,note_on,,32,0,6,,,,,,,,,5,,,62,85
68592,note_on,,4,0,8,,,,,,,,,7,,,50,98
68592,note_on,,4,0,5,,,,,,,,,4,,,66,68
68592,note_on,,8,0,3,,,,,,,,,2,,,69,103
68592,note_on,,4,0,2,,,,,,,,,1,,,62,103
68592,note_on,,4,0,7,,,,,,,,,6,,,62,98
68600,note_on,,8,0,3,,,,,,,,,2,,,69,0
68604,note_on,,12,0,5,,,,,,,,,4,,,66,0
68608,note_on,,16,0,6,,,,,,,,,5,,,62,0
68608,note_on,,8,0,3,,,,,,,,,2,,,71,98
68608,note_on,,4,0,5,,,,,,,,,4,,,67,85
68616,note_on,,8,0,3,,,,,,,,,2,,,71,0
68616,note_on,,24,0,7,,,,,,,,,6,,,62,0
68616,note_on,,24,0,2,,,,,,,,,1,,,62,0
68616,note_on,,24,0,8,,,,,,,,,7,,,50,0
68620,note_on,,12,0,5,,,,,,,,,4,,,67,0
68624,note_on,,4,0,5,,,,,,,,,4,,,69,85
68624,note_on,,8,0,3,,,,,,,,,2,,,72,74
68628,note_on,,12,0,7,,,,,,,,,6,,,57,85
68628,note_on,,12,0,2,,,,,,,,,1,,,57,103
68628,note_on,,12,0,8,,,,,,,,,7,,,45,85
68632,note_on,,8,0,3,,,,,,,,,2,,,72,0
68636,note_on,,12,0,5,,,,,,,,,4,,,69,0
68636,note_on,,8,0,7,,,,,,,,,6,,,57,0
68636,note_on,,8,0,2,,,,,,,,,1,,,57,0
68636,note_on,,8,0,8,,,,,,,,,7,,,45,0
68640,note_on,,4,0,7,,,,,,,,,6,,,59,85
68640,note_on,,4,0,8,,,,,,,,,7,,,47,85
68640,note_on,,8,0,3,,,,,,,,,2,,,66,73
68640,note_on,,32,0,6,,,,,,,,,5,,,62,70
68640,note_on,,4,0,2,,,,,,,,,1,,,59,103
68640,note_on,,4,0,5,,,,,,,,,4,,,62,85
68651,note_on,,11,0,2,,,,,,,,,1,,,59,0
68651,note_on,,11,0,8,,,,,,,,,7,,,47,0
68651,note_on,,11,0,6,,,,,,,,,5,,,62,0
68651,note_on,,11,0,7,,,,,,,,,6,,,59,0
68656,note_on,,5,0,7,,,,,,,,,6,,,57,85
68656,note_on,,5,0,2,,,,,,,,,1,,,57,103
68656,note_on,,5,0,8,,,,,,,,,7,,,45,85
68656,note_on,,5,0,6,,,,,,,,,5,,,60,72
68658,note_on,,18,0,5,,,,,,,,,4,,,62,0
68664,note_on,,24,0,3,,,,,,,,,2,,,66,0
68667,note_on,,11,0,6,,,,,,,,,5,,,60,0
68667,note_on,,11,0,2,,,,,,,,,1,,,57,0
68667,note_on,,11,0,8,,,,,,,,,7,,,45,0
68667,note_on,,11,0,7,,,,,,,,,6,,,57,0
68672,note_on,,5,0,6,,,,,,,,,5,,,59,85
68672,note_on,,5,0,2,,,,,,,,,1,,,55,98
68672,note_on,,5,0,8,,,,,,,,,7,,,43,85
68672,note_on,,5,0,7,,,,,,,,,6,,,55,85
68676,note_on,,300,0,1,,,,,,,,,0,,,67,103
68683,note_on,,11,0,2,,,,,,,,,1,,,55,0
68683,note_on,,11,0,6,,,,,,,,,5,,,59,0
68683,note_on,,11,0,8,,,,,,,,,7,,,43,0
68683,note_on,,11,0,7,,,,,,,,,6,,,55,0
68684,note_on,,8,0,1,,,,,,,,,0,,,67,0
68688,note_on,,5,0,7,,,,,,,,,6,,,54,72
68688,note_on,,5,0,2,,,,,,,,,1,,,54,84
68688,note_on,,24,0,3,,,,,,,,,2,,,74,101
68688,note_on,,4,0,1,,,,,,,,,0,,,74,96
68688,note_on,,30,0,5,,,,,,,,,4,,,69,85
68688,note_on,,5,0,6,,,,,,,,,5,,,57,85
68688,note_on,,5,0,8,,,,,,,,,7,,,42,72
68699,note_on,,11,0,6,,,,,,,,,5,,,57,0
68699,note_on,,11,0,7,,,,,,,,,6,,,54,0
68699,note_on,,11,0,8,,,,,,,,,7,,,42,0
68699,note_on,,11,0,2,,,,,,,,,1,,,54,0
68703,note_on,,351,0,4,,,,,,,,,3,,,62,0
68704,note_on,,5,0,6,,,,,,,,,5,,,59,85
68704,note_on,,5,0,7,,,,,,,,,6,,,56,72
68704,note_on,,5,0,8,,,,,,,,,7,,,44,72
68704,note_on,,5,0,2,,,,,,,,,1,,,56,89
68704,note_on,,1,0,4,,,,,,,,,3,,,64,85
68706,note_on,,18,0,5,,,,,,,,,4,,,69,0
68712,note_on,,24,0,1,,,,,,,,,0,,,74,0
68714,note_on,,10,0,4,,,,,,,,,3,,,64,0
68715,note_on,,11,0,8,,,,,,,,,7,,,44,0
68715,note_on,,11,0,2,,,,,,,,,1,,,56,0
68715,note_on,,11,0,7,,,,,,,,,6,,,56,0
68715,note_on,,11,0,6,,,,,,,,,5,,,59,0
68720,note_on,,5,0,2,,,,,,,,,1,,,57,103
68720,note_on,,5,0,8,,,,,,,,,7,,,45,85
68720,note_on,,5,0,7,,,,,,,,,6,,,57,85
68720,note_on,,5,0,6,,,,,,,,,5,,,61,71
68720,note_on,,6,0,4,,,,,,,,,3,,,66,85
68724,note_on,,36,0,3,,,,,,,,,2,,,74,0
68724,note_on,,12,0,1,,,,,,,,,0,,,69,103
68730,note_on,,10,0,4,,,,,,,,,3,,,66,0
68731,note_on,,11,0,7,,,,,,,,,6,,,57,0
68731,note_on,,11,0,8,,,,,,,,,7,,,45,0
68731,note_on,,11,0,6,,,,,,,,,5,,,61,0
68731,note_on,,11,0,2,,,,,,,,,1,,,57,0
68732,note_on,,8,0,1,,,,,,,,,0,,,69,0
68736,note_on,,6,0,4,,,,,,,,,3,,,64,85
68736,note_on,,5,0,6,,,,,,,,,5,,,59,85
68736,note_on,,5,0,2,,,,,,,,,1,,,56,62
68736,note_on,,5,0,7,,,,,,,,,6,,,56,67
68736,note_on,,30,0,5,,,,,,,,,4,,,64,85
68736,note_on,,4,0,1,,,,,,,,,0,,,71,33
68736,note_on,,5,0,8,,,,,,,,,7,,,44,67
68741,note_on,,5,0,1,,,,,,,,,0,,,71,0
68741,note_on,,5,0,2,,,,,,,,,1,,,56,0
68742,note_on,,1,0,1,,,,,,,,,0,,,73,55
68742,note_on,,1,0,2,,,,,,,,,1,,,57,85
68747,note_on,,5,0,2,,,,,,,,,1,,,57,0
68747,note_on,,11,0,6,,,,,,,,,5,,,59,0
68747,note_on,,5,0,1,,,,,,,,,0,,,73,0
68748,note_on,,1,0,1,,,,,,,,,0,,,71,54
68748,note_on,,1,0,2,,,,,,,,,1,,,56,70
68752,note_on,,16,0,8,,,,,,,,,7,,,44,0
68752,note_on,,5,0,6,,,,,,,,,5,,,62,71
68752,note_on,,16,0,7,,,,,,,,,6,,,56,0
68752,note_on,,28,0,3,,,,,,,,,2,,,78,71
68753,note_on,,5,0,2,,,,,,,,,1,,,56,0
68753,note_on,,5,0,1,,,,,,,,,0,,,71,0
68754,note_on,,1,0,2,,,,,,,,,1,,,57,85
68754,note_on,,1,0,1,,,,,,,,,0,,,73,54
68759,note_on,,5,0,1,,,,,,,,,0,,,73,0
68759,note_on,,5,0,2,,,,,,,,,1,,,57,0
68760,note_on,,1,0,2,,,,,,,,,1,,,56,68
68760,note_on,,1,0,1,,,,,,,,,0,,,71,65
68763,note_on,,11,0,6,,,,,,,,,5,,,62,0
68764,note_on,,12,0,3,,,,,,,,,2,,,78,0
68765,note_on,,5,0,2,,,,,,,,,1,,,56,0
68765,note_on,,5,0,1,,,,,,,,,0,,,71,0
68766,note_on,,1,0,1,,,,,,,,,0,,,73,56
68766,note_on,,1,0,2,,,,,,,,,1,,,57,85
68768,note_on,,4,0,3,,,,,,,,,2,,,76,100
68768,note_on,,5,0,6,,,,,,,,,5,,,61,56
68771,note_on,,5,0,2,,,,,,,,,1,,,57,0
68771,note_on,,5,0,1,,,,,,,,,0,,,73,0
68772,note_on,,1,0,1,,,,,,,,,0,,,71,43
68772,note_on,,1,0,2,,,,,,,,,1,,,56,70
68777,note_on,,5,0,1,,,,,,,,,0,,,71,0
68777,note_on,,5,0,2,,,,,,,,,1,,,56,0
68778,note_on,,1,0,1,,,,,,,,,0,,,73,54
68778,note_on,,1,0,2,,,,,,,,,1,,,57,85
68779,note_on,,11,0,6,,,,,,,,,5,,,61,0
68780,note_on,,12,0,3,,,,,,,,,2,,,76,0
68783,note_on,,5,0,1,,,,,,,,,0,,,73,0
68783,note_on,,5,0,2,,,,,,,,,1,,,57,0
68784,note_on,,1,0,2,,,,,,,,,1,,,56,76
68784,note_on,,5,0,6,,,,,,,,,5,,,59,85
68784,note_on,,32,0,7,,,,,,,,,6,,,44,64
68784,note_on,,32,0,8,,,,,,,,,7,,,32,64
68784,note_on,,1,0,1,,,,,,,,,0,,,71,68
68784,note_on,,4,0,3,,,,,,,,,2,,,74,103
68789,note_on,,5,0,2,,,,,,,,,1,,,56,0
68789,note_on,,5,0,1,,,,,,,,,0,,,71,0
68790,note_on,,1,0,1,,,,,,,,,0,,,73,65
68790,note_on,,1,0,2,,,,,,,,,1,,,57,85
68795,note_on,,5,0,1,,,,,,,,,0,,,73,0
68795,note_on,,5,0,2,,,,,,,,,1,,,57,0
68795,note_on,,11,0,6,,,,,,,,,5,,,59,0
68796,note_on,,1,0,1,,,,,,,,,0,,,71,85
68796,note_on,,12,0,3,,,,,,,,,2,,,74,0
68796,note_on,,1,0,2,,,,,,,,,1,,,56,79
68800,note_on,,4,0,3,,,,,,,,,2,,,78,74
68800,note_on,,5,0,6,,,,,,,,,5,,,62,85
68800,note_on,,16,0,8,,,,,,,,,7,,,32,0
68800,note_on,,16,0,7,,,,,,,,,6,,,44,0
68801,note_on,,5,0,2,,,,,,,,,1,,,56,0
68801,note_on,,5,0,1,,,,,,,,,0,,,71,0
68802,note_on,,1,0,1,,,,,,,,,0,,,73,76
68802,note_on,,1,0,2,,,,,,,,,1,,,57,85
68807,note_on,,5,0,2,,,,,,,,,1,,,57,0
68807,note_on,,5,0,1,,,,,,,,,0,,,73,0
68808,note_on,,1,0,1,,,,,,,,,0,,,71,85
68808,note_on,,72,0,5,,,,,,,,,4,,,64,0
68808,note_on,,1,0,2,,,,,,,,,1,,,56,79
68811,note_on,,11,0,6,,,,,,,,,5,,,62,0
68812,note_on,,12,0,3,,,,,,,,,2,,,78,0
68813,note_on,,5,0,1,,,,,,,,,0,,,71,0
68813,note_on,,5,0,2,,,,,,,,,1,,,56,0
68814,note_on,,1,0,1,,,,,,,,,0,,,73,62
68814,note_on,,1,0,2,,,,,,,,,1,,,57,85
68816,note_on,,4,0,3,,,,,,,,,2,,,76,103
68816,note_on,,5,0,6,,,,,,,,,5,,,61,68
68819,note_on,,5,0,1,,,,,,,,,0,,,73,0
68819,note_on,,5,0,2,,,,,,,,,1,,,57,0
68820,note_on,,1,0,1,,,,,,,,,0,,,71,81
68820,note_on,,1,0,2,,,,,,,,,1,,,56,77
68825,note_on,,5,0,1,,,,,,,,,0,,,71,0
68825,note_on,,5,0,2,,,,,,,,,1,,,56,0
68826,note_on,,1,0,2,,,,,,,,,1,,,57,85
68826,note_on,,1,0,1,,,,,,,,,0,,,73,55
68827,note_on,,11,0,6,,,,,,,,,5,,,61,0
68828,note_on,,12,0,3,,,,,,,,,2,,,76,0
68831,note_on,,5,0,1,,,,,,,,,0,,,73,0
68831,note_on,,5,0,2,,,,,,,,,1,,,57,0
68832,note_on,,5,0,6,,,,,,,,,5,,,59,85
68832,note_on,,1,0,2,,,,,,,,,1,,,56,77
68832,note_on,,4,0,3,,,,,,,,,2,,,74,103
68832,note_on,,1,0,1,,,,,,,,,0,,,71,98
68840,note_on,,8,0,1,,,,,,,,,0,,,71,0
68843,note_on,,11,0,2,,,,,,,,,1,,,56,0
68848,note_on,,8,0,1,,,,,,,,,0,,,74,98
68848,note_on,,40,0,5,,,,,,,,,4,,,68,67
68848,note_on,,5,0,2,,,,,,,,,1,,,59,103
68856,note_on,,8,0,1,,,,,,,,,0,,,74,0
68859,note_on,,11,0,2,,,,,,,,,1,,,59,0
68860,note_on,,12,0,5,,,,,,,,,4,,,68,0
68864,note_on,,4,0,5,,,,,,,,,4,,,69,85
68864,note_on,,8,0,1,,,,,,,,,0,,,73,73
68864,note_on,,5,0,2,,,,,,,,,1,,,57,103
68872,note_on,,8,0,1,,,,,,,,,0,,,73,0
68875,note_on,,11,0,2,,,,,,,,,1,,,57,0
68876,note_on,,12,0,5,,,,,,,,,4,,,69,0
68880,note_on,,80,0,7,,,,,,,,,6,,,56,60
68880,note_on,,80,0,8,,,,,,,,,7,,,44,60
68880,note_on,,4,0,5,,,,,,,,,4,,,71,56
68880,note_on,,5,0,2,,,,,,,,,1,,,56,80
68880,note_on,,8,0,1,,,,,,,,,0,,,71,96
68888,note_on,,8,0,1,,,,,,,,,0,,,71,0
68891,note_on,,11,0,2,,,,,,,,,1,,,56,0
68892,note_on,,12,0,5,,,,,,,,,4,,,71,0
68896,note_on,,16,0,7,,,,,,,,,6,,,56,0
68896,note_on,,4,0,5,,,,,,,,,4,,,68,72
68896,note_on,,16,0,8,,,,,,,,,7,,,44,0
68896,note_on,,5,0,2,,,,,,,,,1,,,59,103
68896,note_on,,8,0,1,,,,,,,,,0,,,74,103
68897,note_on,,65,0,6,,,,,,,,,5,,,59,0
68904,note_on,,72,0,3,,,,,,,,,2,,,74,0
68904,note_on,,8,0,1,,,,,,,,,0,,,74,0
68907,note_on,,11,0,2,,,,,,,,,1,,,59,0
68908,note_on,,12,0,5,,,,,,,,,4,,,68,0
68912,note_on,,5,0,2,,,,,,,,,1,,,57,103
68912,note_on,,8,0,1,,,,,,,,,0,,,73,84
68912,note_on,,4,0,5,,,,,,,,,4,,,69,85
68920,note_on,,8,0,1,,,,,,,,,0,,,73,0
68923,note_on,,11,0,2,,,,,,,,,1,,,57,0
68924,note_on,,12,0,5,,,,,,,,,4,,,69,0
68928,note_on,,4,0,5,,,,,,,,,4,,,71,85
68928,note_on,,24,0,3,,,,,,,,,2,,,74,98
68928,note_on,,32,0,7,,,,,,,,,6,,,56,56
68928,note_on,,8,0,1,,,,,,,,,0,,,71,46
68928,note_on,,5,0,2,,,,,,,,,1,,,56,66
68928,note_on,,32,0,8,,,,,,,,,7,,,44,56
68933,note_on,,5,0,1,,,,,,,,,0,,,71,0
68933,note_on,,5,0,2,,,,,,,,,1,,,56,0
68934,note_on,,1,0,1,,,,,,,,,0,,,73,67
68934,note_on,,1,0,2,,,,,,,,,1,,,57,85
68939,note_on,,5,0,1,,,,,,,,,0,,,73,0
68939,note_on,,5,0,2,,,,,,,,,1,,,57,0
68940,note_on,,1,0,2,,,,,,,,,1,,,56,70
68940,note_on,,1,0,1,,,,,,,,,0,,,71,85
68940,note_on,,12,0,3,,,,,,,,,2,,,74,0
68944,note_on,,16,0,8,,,,,,,,,7,,,44,0
68944,note_on,,4,0,3,,,,,,,,,2,,,71,103
68944,note_on,,47,0,6,,,,,,,,,5,,,56,64
68944,note_on,,16,0,7,,,,,,,,,6,,,56,0
68945,note_on,,5,0,1,,,,,,,,,0,,,71,0
68945,note_on,,5,0,2,,,,,,,,,1,,,56,0
68946,note_on,,1,0,2,,,,,,,,,1,,,57,85
68946,note_on,,1,0,1,,,,,,,,,0,,,73,71
68951,note_on,,5,0,2,,,,,,,,,1,,,57,0
68951,note_on,,5,0,1,,,,,,,,,0,,,73,0
68952,note_on,,1,0,2,,,,,,,,,1,,,56,62
68952,note_on,,1,0,1,,,,,,,,,0,,,71,85
68955,note_on,,11,0,6,,,,,,,,,5,,,56,0
68956,note_on,,12,0,3,,,,,,,,,2,,,71,0
68957,note_on,,5,0,2,,,,,,,,,1,,,56,0
68957,note_on,,5,0,1,,,,,,,,,0,,,71,0
68958,note_on,,1,0,2,,,,,,,,,1,,,57,85
68958,note_on,,1,0,1,,,,,,,,,0,,,73,68
68960,note_on,,5,0,6,,,,,,,,,5,,,57,85
68960,note_on,,4,0,3,,,,,,,,,2,,,73,78
68963,note_on,,5,0,1,,,,,,,,,0,,,73,0
68963,note_on,,5,0,2,,,,,,,,,1,,,57,0
68964,note_on,,1,0,1,,,,,,,,,0,,,71,85
68964,note_on,,1,0,2,,,,,,,,,1,,,56,76
68969,note_on,,5,0,1,,,,,,,,,0,,,71,0
68969,note_on,,5,0,2,,,,,,,,,1,,,56,0
68970,note_on,,1,0,2,,,,,,,,,1,,,57,85
68970,note_on,,1,0,1,,,,,,,,,0,,,73,72
68971,note_on,,11,0,6,,,,,,,,,5,,,57,0
68972,note_on,,12,0,3,,,,,,,,,2,,,73,0
68975,note_on,,5,0,2,,,,,,,,,1,,,57,0
68975,note_on,,5,0,1,,,,,,,,,0,,,73,0
68976,note_on,,1,0,2,,,,,,,,,1,,,56,74
68976,note_on,,4,0,3,,,,,,,,,2,,,74,103
68976,note_on,,5,0,6,,,,,,,,,5,,,59,85
68976,note_on,,32,0,7,,,,,,,,,6,,,44,74
68976,note_on,,1,0,1,,,,,,,,,0,,,71,85
68976,note_on,,32,0,8,,,,,,,,,7,,,32,74
68981,note_on,,5,0,2,,,,,,,,,1,,,56,0
68981,note_on,,5,0,1,,,,,,,,,0,,,71,0
68982,note_on,,1,0,1,,,,,,,,,0,,,73,76
68982,note_on,,1,0,2,,,,,,,,,1,,,57,85
68987,note_on,,5,0,1,,,,,,,,,0,,,73,0
68987,note_on,,11,0,6,,,,,,,,,5,,,59,0
68987,note_on,,5,0,2,,,,,,,,,1,,,57,0
68988,note_on,,1,0,2,,,,,,,,,1,,,56,74
68988,note_on,,1,0,1,,,,,,,,,0,,,71,85
68988,note_on,,12,0,3,,,,,,,,,2,,,74,0
68992,note_on,,4,0,3,,,,,,,,,2,,,71,103
68992,note_on,,16,0,7,,,,,,,,,6,,,44,0
68992,note_on,,16,0,8,,,,,,,,,7,,,32,0
68992,note_on,,5,0,6,,,,,,,,,5,,,56,64
68993,note_on,,5,0,2,,,,,,,,,1,,,56,0
68993,note_on,,5,0,1,,,,,,,,,0,,,71,0
68994,note_on,,1,0,2,,,,,,,,,1,,,57,85
68994,note_on,,1,0,1,,,,,,,,,0,,,73,76
68999,note_on,,5,0,2,,,,,,,,,1,,,57,0
68999,note_on,,5,0,1,,,,,,,,,0,,,73,0
69000,note_on,,1,0,1,,,,,,,,,0,,,71,85
69000,note_on,,72,0,5,,,,,,,,,4,,,71,0
69000,note_on,,1,0,2,,,,,,,,,1,,,56,81
69003,note_on,,11,0,6,,,,,,,,,5,,,56,0
69004,note_on,,12,0,3,,,,,,,,,2,,,71,0
69005,note_on,,5,0,2,,,,,,,,,1,,,56,0
69005,note_on,,5,0,1,,,,,,,,,0,,,71,0
69006,note_on,,1,0,2,,,,,,,,,1,,,57,85
69006,note_on,,1,0,1,,,,,,,,,0,,,73,68
69008,note_on,,5,0,6,,,,,,,,,5,,,57,85
69008,note_on,,4,0,3,,,,,,,,,2,,,73,84
69011,note_on,,5,0,2,,,,,,,,,1,,,57,0
69011,note_on,,5,0,1,,,,,,,,,0,,,73,0
69012,note_on,,1,0,1,,,,,,,,,0,,,71,76
69012,note_on,,1,0,2,,,,,,,,,1,,,56,70
69017,note_on,,5,0,1,,,,,,,,,0,,,71,0
69017,note_on,,5,0,2,,,,,,,,,1,,,56,0
69018,note_on,,1,0,1,,,,,,,,,0,,,73,74
69018,note_on,,1,0,2,,,,,,,,,1,,,57,85
69019,note_on,,11,0,6,,,,,,,,,5,,,57,0
69020,note_on,,12,0,3,,,,,,,,,2,,,73,0
69023,note_on,,5,0,1,,,,,,,,,0,,,73,0
69023,note_on,,5,0,2,,,,,,,,,1,,,57,0
69024,note_on,,1,0,2,,,,,,,,,1,,,56,88
69024,note_on,,1,0,1,,,,,,,,,0,,,71,98
69024,note_on,,4,0,3,,,,,,,,,2,,,74,103
69024,note_on,,5,0,6,,,,,,,,,5,,,59,82
69032,note_on,,8,0,1,,,,,,,,,0,,,71,0
69035,note_on,,11,0,2,,,,,,,,,1,,,56,0
69040,note_on,,40,0,5,,,,,,,,,4,,,68,70
69040,note_on,,5,0,2,,,,,,,,,1,,,59,103
69040,note_on,,8,0,1,,,,,,,,,0,,,74,89
69048,note_on,,8,0,1,,,,,,,,,0,,,74,0
69051,note_on,,11,0,2,,,,,,,,,1,,,59,0
69052,note_on,,12,0,5,,,,,,,,,4,,,68,0
69056,note_on,,8,0,1,,,,,,,,,0,,,73,84
69056,note_on,,5,0,2,,,,,,,,,1,,,57,103
69056,note_on,,4,0,5,,,,,,,,,4,,,69,85
69064,note_on,,8,0,1,,,,,,,,,0,,,73,0
69067,note_on,,11,0,2,,,,,,,,,1,,,57,0
69068,note_on,,12,0,5,,,,,,,,,4,,,69,0
69072,note_on,,80,0,8,,,,,,,,,7,,,44,62
69072,note_on,,5,0,2,,,,,,,,,1,,,56,69
69072,note_on,,8,0,1,,,,,,,,,0,,,71,103
69072,note_on,,80,0,7,,,,,,,,,6,,,56,62
69072,note_on,,336,0,4,,,,,,,,,3,,,76,71
69072,note_on,,4,0,5,,,,,,,,,4,,,71,85
69073,note_on,,49,0,6,,,,,,,,,5,,,59,0
69078,note_on,,54,0,3,,,,,,,,,2,,,74,0
69080,note_on,,8,0,1,,,,,,,,,0,,,71,0
69083,note_on,,11,0,2,,,,,,,,,1,,,56,0
69088,note_on,,8,0,1,,,,,,,,,0,,,69,103
69088,note_on,,16,0,8,,,,,,,,,7,,,44,0
69088,note_on,,5,0,2,,,,,,,,,1,,,54,90
69088,note_on,,16,0,7,,,,,,,,,6,,,56,0
69096,note_on,,8,0,1,,,,,,,,,0,,,69,0
69099,note_on,,27,0,5,,,,,,,,,4,,,71,0
69099,note_on,,11,0,2,,,,,,,,,1,,,54,0
69104,note_on,,5,0,2,,,,,,,,,1,,,52,103
69104,note_on,,8,0,1,,,,,,,,,0,,,68,85
69104,note_on,,32,0,4,,,,,,,,,3,,,64,0
69108,note_on,,9,0,5,,,,,,,,,4,,,71,85
69108,note_on,,35,0,6,,,,,,,,,5,,,68,97
69108,note_on,,30,0,3,,,,,,,,,2,,,76,78
69112,note_on,,8,0,1,,,,,,,,,0,,,68,0
69112,note_on,,8,0,4,,,,,,,,,3,,,76,0
69115,note_on,,11,0,2,,,,,,,,,1,,,52,0
69116,note_on,,8,0,6,,,,,,,,,5,,,68,0
69117,note_on,,9,0,5,,,,,,,,,4,,,71,0
69120,note_on,,5,0,2,,,,,,,,,1,,,57,103
69120,note_on,,12,0,3,,,,,,,,,2,,,76,0
69120,note_on,,0,0,3,,,,,,,,,2,,,73,66
69120,note_on,,32,0,8,,,,,,,,,7,,,45,85
69120,note_on,,4,0,6,,,,,,,,,5,,,69,76
69120,note_on,,3,0,5,,,,,,,,,4,,,73,74
69120,note_on,,8,0,1,,,,,,,,,0,,,69,103
69120,note_on,,8,0,4,,,,,,,,,3,,,76,77
69120,note_on,,32,0,7,,,,,,,,,6,,,57,85
69128,note_on,,8,0,1,,,,,,,,,0,,,69,0
69131,note_on,,11,0,2,,,,,,,,,1,,,57,0
69136,note_on,,5,0,2,,,,,,,,,1,,,61,84
69136,note_on,,8,0,1,,,,,,,,,0,,,76,92
69136,note_on,,16,0,8,,,,,,,,,7,,,45,0
69136,note_on,,16,0,7,,,,,,,,,6,,,57,0
69138,note_on,,18,0,5,,,,,,,,,4,,,73,0
69144,note_on,,24,0,6,,,,,,,,,5,,,69,0
69144,note_on,,8,0,1,,,,,,,,,0,,,76,0
69147,note_on,,11,0,2,,,,,,,,,1,,,61,0
69152,note_on,,5,0,2,,,,,,,,,1,,,59,94
69152,note_on,,8,0,1,,,,,,,,,0,,,74,103
69156,note_on,,12,0,6,,,,,,,,,5,,,64,69
69160,note_on,,8,0,1,,,,,,,,,0,,,74,0
69160,note_on,,40,0,4,,,,,,,,,3,,,76,0
69163,note_on,,11,0,2,,,,,,,,,1,,,59,0
69164,note_on,,8,0,6,,,,,,,,,5,,,64,0
69168,note_on,,5,0,2,,,,,,,,,1,,,57,103
69168,note_on,,8,0,1,,,,,,,,,0,,,73,82
69168,note_on,,4,0,6,,,,,,,,,5,,,69,85
69168,note_on,,8,0,4,,,,,,,,,3,,,78,60
69176,note_on,,8,0,1,,,,,,,,,0,,,73,0
69179,note_on,,11,0,2,,,,,,,,,1,,,57,0
69184,note_on,,8,0,1,,,,,,,,,0,,,71,100
69184,note_on,,5,0,2,,,,,,,,,1,,,55,103
69184,note_on,,16,0,6,,,,,,,,,5,,,69,0
69192,note_on,,8,0,1,,,,,,,,,0,,,71,0
69192,note_on,,72,0,3,,,,,,,,,2,,,73,0
69195,note_on,,11,0,2,,,,,,,,,1,,,55,0
69200,note_on,,5,0,2,,,,,,,,,1,,,54,84
69200,note_on,,8,0,1,,,,,,,,,0,,,69,103
69204,note_on,,68,0,7,,,,,,,,,6,,,54,85
69204,note_on,,68,0,8,,,,,,,,,7,,,42,85
69204,note_on,,66,0,5,,,,,,,,,4,,,78,70
69208,note_on,,8,0,1,,,,,,,,,0,,,69,0
69211,note_on,,11,0,2,,,,,,,,,1,,,54,0
69212,note_on,,8,0,8,,,,,,,,,7,,,42,0
69212,note_on,,8,0,7,,,,,,,,,6,,,54,0
69213,note_on,,9,0,5,,,,,,,,,4,,,78,0
69216,note_on,,3,0,5,,,,,,,,,4,,,74,85
69216,note_on,,5,0,2,,,,,,,,,1,,,59,96
69216,note_on,,8,0,1,,,,,,,,,0,,,74,103
69216,note_on,,4,0,7,,,,,,,,,6,,,59,85
69216,note_on,,4,0,8,,,,,,,,,7,,,47,85
69216,note_on,,24,0,3,,,,,,,,,2,,,74,103
69224,note_on,,8,0,1,,,,,,,,,0,,,74,0
69227,note_on,,11,0,2,,,,,,,,,1,,,59,0
69232,note_on,,16,0,8,,,,,,,,,7,,,47,0
69232,note_on,,5,0,2,,,,,,,,,1,,,62,103
69232,note_on,,8,0,1,,,,,,,,,0,,,78,88
69232,note_on,,16,0,7,,,,,,,,,6,,,59,0
69234,note_on,,18,0,5,,,,,,,,,4,,,74,0
69240,note_on,,8,0,1,,,,,,,,,0,,,78,0
69243,note_on,,11,0,2,,,,,,,,,1,,,62,0
69248,note_on,,5,0,2,,,,,,,,,1,,,61,89
69248,note_on,,80,0,4,,,,,,,,,3,,,78,0
69248,note_on,,8,0,1,,,,,,,,,0,,,76,98
69252,note_on,,68,0,6,,,,,,,,,5,,,66,59
69256,note_on,,4,0,6,,,,,,,,,5,,,66,0
69256,note_on,,8,0,1,,,,,,,,,0,,,76,0
69259,note_on,,11,0,2,,,,,,,,,1,,,61,0
69264,note_on,,16,0,4,,,,,,,,,3,,,79,85
69264,note_on,,5,0,2,,,,,,,,,1,,,59,103
69264,note_on,,8,0,6,,,,,,,,,5,,,71,74
69264,note_on,,8,0,1,,,,,,,,,0,,,74,103
69272,note_on,,8,0,1,,,,,,,,,0,,,74,0
69275,note_on,,11,0,2,,,,,,,,,1,,,59,0
69280,note_on,,5,0,2,,,,,,,,,1,,,57,103
69280,note_on,,16,0,6,,,,,,,,,5,,,71,0
69280,note_on,,8,0,1,,,,,,,,,0,,,73,84
69288,note_on,,72,0,3,,,,,,,,,2,,,74,0
69288,note_on,,8,0,1,,,,,,,,,0,,,73,0
69291,note_on,,11,0,2,,,,,,,,,1,,,57,0
69296,note_on,,5,0,2,,,,,,,,,1,,,55,103
69296,note_on,,8,0,1,,,,,,,,,0,,,71,84
69300,note_on,,66,0,5,,,,,,,,,4,,,79,85
69300,note_on,,68,0,7,,,,,,,,,6,,,55,85
69300,note_on,,68,0,8,,,,,,,,,7,,,43,85
69304,note_on,,8,0,1,,,,,,,,,0,,,71,0
69307,note_on,,11,0,2,,,,,,,,,1,,,55,0
69308,note_on,,8,0,7,,,,,,,,,6,,,55,0
69308,note_on,,8,0,8,,,,,,,,,7,,,43,0
69309,note_on,,9,0,5,,,,,,,,,4,,,79,0
69312,note_on,,4,0,8,,,,,,,,,7,,,49,82
69312,note_on,,5,0,2,,,,,,,,,1,,,61,92
69312,note_on,,3,0,5,,,,,,,,,4,,,76,85
69312,note_on,,8,0,1,,,,,,,,,0,,,76,103
69312,note_on,,4,0,7,,,,,,,,,6,,,61,82
69312,note_on,,24,0,3,,,,,,,,,2,,,76,90
69320,note_on,,8,0,1,,,,,,,,,0,,,76,0
69323,note_on,,11,0,2,,,,,,,,,1,,,61,0
69328,note_on,,8,0,1,,,,,,,,,0,,,79,103
69328,note_on,,16,0,8,,,,,,,,,7,,,49,0
69328,note_on,,5,0,2,,,,,,,,,1,,,64,103
69328,note_on,,16,0,7,,,,,,,,,6,,,61,0
69330,note_on,,18,0,5,,,,,,,,,4,,,76,0
69336,note_on,,8,0,1,,,,,,,,,0,,,79,0
69339,note_on,,11,0,2,,,,,,,,,1,,,64,0
69344,note_on,,8,0,1,,,,,,,,,0,,,78,91
69344,note_on,,5,0,2,,,,,,,,,1,,,62,103
69344,note_on,,80,0,4,,,,,,,,,3,,,79,0
69348,note_on,,68,0,6,,,,,,,,,5,,,69,85
69352,note_on,,8,0,1,,,,,,,,,0,,,78,0
69355,note_on,,11,0,2,,,,,,,,,1,,,62,0
69356,note_on,,8,0,6,,,,,,,,,5,,,69,0
69360,note_on,,5,0,2,,,,,,,,,1,,,61,92
69360,note_on,,16,0,4,,,,,,,,,3,,,81,78
69360,note_on,,4,0,6,,,,,,,,,5,,,73,56
69360,note_on,,8,0,1,,,,,,,,,0,,,76,103
69368,note_on,,8,0,1,,,,,,,,,0,,,76,0
69371,note_on,,11,0,2,,,,,,,,,1,,,61,0
69376,note_on,,5,0,2,,,,,,,,,1,,,59,103
69376,note_on,,16,0,6,,,,,,,,,5,,,73,0
69376,note_on,,8,0,1,,,,,,,,,0,,,74,103
69384,note_on,,72,0,3,,,,,,,,,2,,,76,0
69384,note_on,,8,0,1,,,,,,,,,0,,,74,0
69387,note_on,,11,0,2,,,,,,,,,1,,,59,0
69392,note_on,,5,0,2,,,,,,,,,1,,,57,103
69392,note_on,,8,0,1,,,,,,,,,0,,,73,84
69396,note_on,,68,0,8,,,,,,,,,7,,,47,85
69396,note_on,,66,0,5,,,,,,,,,4,,,81,85
69396,note_on,,68,0,7,,,,,,,,,6,,,59,85
69400,note_on,,8,0,1,,,,,,,,,0,,,73,0
69403,note_on,,11,0,2,,,,,,,,,1,,,57,0
69404,note_on,,8,0,7,,,,,,,,,6,,,59,0
69404,note_on,,8,0,8,,,,,,,,,7,,,47,0
69408,note_on,,8,0,1,,,,,,,,,0,,,78,103
69408,note_on,,0,0,5,,,,,,,,,4,,,78,85
69408,note_on,,12,0,5,,,,,,,,,4,,,81,0
69408,note_on,,24,0,3,,,,,,,,,2,,,78,84
69408,note_on,,5,0,2,,,,,,,,,1,,,62,103
69408,note_on,,4,0,7,,,,,,,,,6,,,62,85
69408,note_on,,4,0,8,,,,,,,,,7,,,50,85
69416,note_on,,8,0,1,,,,,,,,,0,,,78,0
69424,note_on,,16,0,8,,,,,,,,,7,,,50,0
69424,note_on,,16,0,2,,,,,,,,,1,,,62,0
69424,note_on,,16,0,7,,,,,,,,,6,,,62,0
69426,note_on,,18,0,5,,,,,,,,,4,,,78,0
69435,note_on,,27,0,3,,,,,,,,,2,,,78,0
69440,note_on,,80,0,4,,,,,,,,,3,,,81,0
69444,note_on,,9,0,3,,,,,,,,,2,,,81,96
69444,note_on,,4,0,4,,,,,,,,,3,,,81,85
69453,note_on,,9,0,3,,,,,,,,,2,,,81,0
69454,note_on,,10,0,4,,,,,,,,,3,,,81,0
69456,note_on,,80,0,6,,,,,,,,,5,,,62,72
69456,note_on,,30,0,5,,,,,,,,,4,,,81,85
69456,note_on,,32,0,7,,,,,,,,,6,,,54,97
69456,note_on,,32,0,2,,,,,,,,,1,,,54,93
69456,note_on,,3,0,3,,,,,,,,,2,,,86,103
69456,note_on,,2,0,4,,,,,,,,,3,,,86,85
69456,note_on,,32,0,8,,,,,,,,,7,,,42,97
69472,note_on,,16,0,8,,,,,,,,,7,,,42,0
69472,note_on,,16,0,6,,,,,,,,,5,,,62,0
69472,note_on,,16,0,7,,,,,,,,,6,,,54,0
69472,note_on,,16,0,2,,,,,,,,,1,,,54,0
69474,note_on,,18,0,5,,,,,,,,,4,,,81,0
69483,note_on,,27,0,3,,,,,,,,,2,,,86,0
69486,note_on,,30,0,4,,,,,,,,,3,,,86,0
69492,note_on,,9,0,3,,,,,,,,,2,,,81,103
69492,note_on,,6,0,4,,,,,,,,,3,,,81,85
69501,note_on,,9,0,3,,,,,,,,,2,,,81,0
69502,note_on,,10,0,4,,,,,,,,,3,,,81,0
69504,note_on,,32,0,6,,,,,,,,,5,,,62,72
69504,note_on,,2,0,4,,,,,,,,,3,,,83,85
69504,note_on,,32,0,8,,,,,,,,,7,,,43,89
69504,note_on,,30,0,5,,,,,,,,,4,,,74,85
69504,note_on,,32,0,7,,,,,,,,,6,,,55,89
69504,note_on,,3,0,3,,,,,,,,,2,,,83,103
69504,note_on,,32,0,2,,,,,,,,,1,,,55,103
69516,note_on,,12,0,3,,,,,,,,,2,,,83,0
69517,note_on,,13,0,4,,,,,,,,,3,,,83,0
69520,note_on,,16,0,8,,,,,,,,,7,,,43,0
69520,note_on,,16,0,6,,,,,,,,,5,,,62,0
69520,note_on,,16,0,2,,,,,,,,,1,,,55,0
69520,note_on,,3,0,4,,,,,,,,,3,,,81,81
69520,note_on,,16,0,7,,,,,,,,,6,,,55,0
69520,note_on,,4,0,3,,,,,,,,,2,,,81,103
69522,note_on,,18,0,5,,,,,,,,,4,,,74,0
69532,note_on,,12,0,3,,,,,,,,,2,,,81,0
69533,note_on,,13,0,4,,,,,,,,,3,,,81,0
69536,note_on,,3,0,4,,,,,,,,,3,,,79,67
69536,note_on,,4,0,3,,,,,,,,,2,,,79,99
69548,note_on,,12,0,3,,,,,,,,,2,,,79,0
69549,note_on,,13,0,4,,,,,,,,,3,,,79,0
69552,note_on,,3,0,4,,,,,,,,,3,,,78,65
69552,note_on,,32,0,7,,,,,,,,,6,,,57,85
69552,note_on,,30,0,5,,,,,,,,,4,,,73,72
69552,note_on,,32,0,2,,,,,,,,,1,,,57,103
69552,note_on,,32,0,8,,,,,,,,,7,,,45,85
69552,note_on,,4,0,3,,,,,,,,,2,,,78,84
69552,note_on,,32,0,6,,,,,,,,,5,,,69,85
69564,note_on,,12,0,3,,,,,,,,,2,,,78,0
69565,note_on,,13,0,4,,,,,,,,,3,,,78,0
69568,note_on,,16,0,7,,,,,,,,,6,,,57,0
69568,note_on,,3,0,4,,,,,,,,,3,,,79,85
69568,note_on,,16,0,2,,,,,,,,,1,,,57,0
69568,note_on,,16,0,6,,,,,,,,,5,,,69,0
69568,note_on,,16,0,8,,,,,,,,,7,,,45,0
69568,note_on,,4,0,3,,,,,,,,,2,,,79,103
69570,note_on,,18,0,5,,,,,,,,,4,,,73,0
69580,note_on,,12,0,3,,,,,,,,,2,,,79,0
69581,note_on,,13,0,4,,,,,,,,,3,,,79,0
69584,note_on,,3,0,4,,,,,,,,,3,,,81,85
69584,note_on,,4,0,3,,,,,,,,,2,,,81,103
69596,note_on,,12,0,3,,,,,,,,,2,,,81,0
69597,note_on,,13,0,4,,,,,,,,,3,,,81,0
69600,note_on,,30,0,5,,,,,,,,,4,,,71,85
69600,note_on,,32,0,8,,,,,,,,,7,,,47,62
69600,note_on,,32,0,7,,,,,,,,,6,,,59,62
69600,note_on,,32,0,2,,,,,,,,,1,,,59,103
69600,note_on,,4,0,3,,,,,,,,,2,,,74,103
69600,note_on,,3,0,4,,,,,,,,,3,,,74,103
69600,note_on,,32,0,6,,,,,,,,,5,,,66,65
69611,note_on,,11,0,7,,,,,,,,,6,,,59,0
69611,note_on,,11,0,8,,,,,,,,,7,,,47,0
69611,note_on,,11,0,2,,,,,,,,,1,,,59,0
69616,note_on,,5,0,2,,,,,,,,,1,,,57,103
69616,note_on,,5,0,8,,,,,,,,,7,,,45,85
69616,note_on,,5,0,7,,,,,,,,,6,,,57,85
69624,note_on,,24,0,6,,,,,,,,,5,,,66,0
69627,note_on,,11,0,2,,,,,,,,,1,,,57,0
69627,note_on,,27,0,3,,,,,,,,,2,,,74,0
69627,note_on,,27,0,5,,,,,,,,,4,,,71,0
69627,note_on,,27,0,4,,,,,,,,,3,,,74,0
69627,note_on,,11,0,8,,,,,,,,,7,,,45,0
69627,note_on,,11,0,7,,,,,,,,,6,,,57,0
69632,note_on,,5,0,7,,,,,,,,,6,,,55,85
69632,note_on,,5,0,2,,,,,,,,,1,,,55,103
69632,note_on,,5,0,8,,,,,,,,,7,,,43,85
69636,note_on,,9,0,4,,,,,,,,,3,,,76,88
69636,note_on,,12,0,6,,,,,,,,,5,,,67,71
69636,note_on,,9,0,3,,,,,,,,,2,,,76,88
69636,note_on,,9,0,5,,,,,,,,,4,,,71,85
69643,note_on,,11,0,8,,,,,,,,,7,,,43,0
69643,note_on,,11,0,7,,,,,,,,,6,,,55,0
69643,note_on,,11,0,2,,,,,,,,,1,,,55,0
69644,note_on,,8,0,6,,,,,,,,,5,,,67,0
69645,note_on,,9,0,5,,,,,,,,,4,,,71,0
69645,note_on,,9,0,3,,,,,,,,,2,,,76,0
69645,note_on,,9,0,4,,,,,,,,,3,,,76,0
69648,note_on,,3,0,5,,,,,,,,,4,,,69,85
69648,note_on,,5,0,2,,,,,,,,,1,,,57,103
69648,note_on,,5,0,7,,,,,,,,,6,,,57,85
69648,note_on,,4,0,6,,,,,,,,,5,,,64,85
69648,note_on,,5,0,8,,,,,,,,,7,,,45,85
69648,note_on,,3,0,3,,,,,,,,,2,,,73,82
69648,note_on,,3,0,4,,,,,,,,,3,,,73,82
69672,note_on,,24,0,2,,,,,,,,,1,,,57,0
69672,note_on,,24,0,8,,,,,,,,,7,,,45,0
69672,note_on,,24,0,7,,,,,,,,,6,,,57,0
69672,note_on,,24,0,6,,,,,,,,,5,,,64,0
69675,note_on,,27,0,3,,,,,,,,,2,,,73,0
69675,note_on,,27,0,4,,,,,,,,,3,,,73,0
69675,note_on,,27,0,5,,,,,,,,,4,,,69,0
69684,note_on,,12,0,8,,,,,,,,,7,,,33,85
69684,note_on,,9,0,5,,,,,,,,,4,,,69,85
69684,note_on,,12,0,6,,,,,,,,,5,,,66,56
69684,note_on,,9,0,4,,,,,,,,,3,,,74,96
69684,note_on,,9,0,3,,,,,,,,,2,,,74,96
69684,note_on,,12,0,2,,,,,,,,,1,,,45,103
69684,note_on,,12,0,7,,,,,,,,,6,,,45,85
69692,note_on,,8,0,6,,,,,,,,,5,,,66,0
69692,note_on,,8,0,8,,,,,,,,,7,,,33,0
69692,note_on,,8,0,2,,,,,,,,,1,,,45,0
69692,note_on,,8,0,7,,,,,,,,,6,,,45,0
69693,note_on,,9,0,5,,,,,,,,,4,,,69,0
69693,note_on,,9,0,3,,,,,,,,,2,,,74,0
69693,note_on,,9,0,4,,,,,,,,,3,,,74,0
69696,note_on,,3,0,3,,,,,,,,,2,,,74,91
69696,note_on,,3,0,4,,,,,,,,,3,,,74,91
69696,note_on,,3,0,5,,,,,,,,,4,,,69,85
69696,note_on,,4,0,6,,,,,,,,,5,,,66,59
69696,note_on,,4,0,7,,,,,,,,,6,,,50,85
69696,note_on,,4,0,2,,,,,,,,,1,,,50,103
69696,note_on,,4,0,8,,,,,,,,,7,,,38,85
69707,note_on,,11,0,2,,,,,,,,,1,,,50,0
69707,note_on,,11,0,8,,,,,,,,,7,,,38,0
69707,note_on,,11,0,7,,,,,,,,,6,,,50,0
69712,note_on,,5,0,2,,,,,,,,,1,,,54,62
69712,note_on,,5,0,7,,,,,,,,,6,,,54,68
69712,note_on,,5,0,8,,,,,,,,,7,,,42,68
69723,note_on,,11,0,2,,,,,,,,,1,,,54,0
69723,note_on,,11,0,8,,,,,,,,,7,,,42,0
69723,note_on,,11,0,7,,,,,,,,,6,,,54,0
69728,note_on,,5,0,2,,,,,,,,,1,,,52,81
69728,note_on,,5,0,8,,,,,,,,,7,,,40,85
69728,note_on,,5,0,7,,,,,,,,,6,,,52,85
69739,note_on,,11,0,7,,,,,,,,,6,,,52,0
69739,note_on,,11,0,2,,,,,,,,,1,,,52,0
69739,note_on,,11,0,8,,,,,,,,,7,,,40,0
69744,note_on,,5,0,7,,,,,,,,,6,,,50,85
69744,note_on,,5,0,8,,,,,,,,,7,,,38,85
69744,note_on,,5,0,2,,,,,,,,,1,,,50,103
69755,note_on,,11,0,2,,,,,,,,,1,,,50,0
69755,note_on,,11,0,7,,,,,,,,,6,,,50,0
69755,note_on,,11,0,8,,,,,,,,,7,,,38,0
69760,note_on,,5,0,8,,,,,,,,,7,,,40,85
69760,note_on,,5,0,2,,,,,,,,,1,,,52,84
69760,note_on,,5,0,7,,,,,,,,,6,,,52,85
69761,note_on,,65,0,6,,,,,,,,,5,,,66,0
69768,note_on,,72,0,3,,,,,,,,,2,,,74,0
69768,note_on,,72,0,4,,,,,,,,,3,,,74,0
69768,note_on,,72,0,5,,,,,,,,,4,,,69,0
69771,note_on,,11,0,8,,,,,,,,,7,,,40,0
69771,note_on,,11,0,2,,,,,,,,,1,,,52,0
69771,note_on,,11,0,7,,,,,,,,,6,,,52,0
69776,note_on,,5,0,2,,,,,,,,,1,,,54,84
69776,note_on,,5,0,7,,,,,,,,,6,,,54,70
69776,note_on,,5,0,8,,,,,,,,,7,,,42,70
69787,note_on,,11,0,7,,,,,,,,,6,,,54,0
69787,note_on,,11,0,2,,,,,,,,,1,,,54,0
69787,note_on,,11,0,8,,,,,,,,,7,,,42,0
69792,note_on,,5,0,2,,,,,,,,,1,,,47,81
69792,note_on,,24,0,4,,,,,,,,,3,,,71,85
69792,note_on,,5,0,8,,,,,,,,,7,,,35,91
69792,note_on,,376,0,1,,,,,,,,,0,,,66,67
69792,note_on,,5,0,7,,,,,,,,,6,,,47,91
69800,note_on,,8,0,1,,,,,,,,,0,,,66,0
69804,note_on,,12,0,4,,,,,,,,,3,,,71,0
69808,note_on,,16,0,7,,,,,,,,,6,,,47,0
69808,note_on,,4,0,4,,,,,,,,,3,,,74,85
69808,note_on,,16,0,2,,,,,,,,,1,,,47,0
69808,note_on,,8,0,1,,,,,,,,,0,,,71,78
69808,note_on,,16,0,8,,,,,,,,,7,,,35,0
69816,note_on,,8,0,1,,,,,,,,,0,,,71,0
69820,note_on,,12,0,4,,,,,,,,,3,,,74,0
69824,note_on,,4,0,4,,,,,,,,,3,,,78,46
69824,note_on,,8,0,1,,,,,,,,,0,,,74,92
69828,note_on,,60,0,3,,,,,,,,,2,,,78,88
69832,note_on,,8,0,1,,,,,,,,,0,,,74,0
69836,note_on,,12,0,4,,,,,,,,,3,,,78,0
69837,note_on,,9,0,3,,,,,,,,,2,,,78,0
69840,note_on,,4,0,4,,,,,,,,,3,,,78,47
69840,note_on,,3,0,3,,,,,,,,,2,,,83,98
69840,note_on,,8,0,1,,,,,,,,,0,,,74,91
69848,note_on,,8,0,1,,,,,,,,,0,,,74,0
69852,note_on,,12,0,4,,,,,,,,,3,,,78,0
69856,note_on,,8,0,1,,,,,,,,,0,,,73,78
69856,note_on,,4,0,4,,,,,,,,,3,,,76,85
69864,note_on,,8,0,1,,,,,,,,,0,,,73,0
69867,note_on,,27,0,3,,,,,,,,,2,,,83,0
69868,note_on,,12,0,4,,,,,,,,,3,,,76,0
69872,note_on,,4,0,4,,,,,,,,,3,,,78,49
69872,note_on,,8,0,1,,,,,,,,,0,,,74,103
69876,note_on,,9,0,3,,,,,,,,,2,,,78,82
69880,note_on,,8,0,1,,,,,,,,,0,,,74,0
69884,note_on,,12,0,4,,,,,,,,,3,,,78,0
69885,note_on,,9,0,3,,,,,,,,,2,,,78,0
69888,note_on,,3,0,3,,,,,,,,,2,,,79,103
69888,note_on,,80,0,7,,,,,,,,,6,,,47,85
69888,note_on,,80,0,2,,,,,,,,,1,,,47,103
69888,note_on,,8,0,1,,,,,,,,,0,,,66,82
69888,note_on,,4,0,4,,,,,,,,,3,,,71,85
69896,note_on,,8,0,1,,,,,,,,,0,,,66,0
69900,note_on,,12,0,4,,,,,,,,,3,,,71,0
69904,note_on,,4,0,4,,,,,,,,,3,,,74,85
69904,note_on,,16,0,7,,,,,,,,,6,,,47,0
69904,note_on,,8,0,1,,,,,,,,,0,,,71,103
69904,note_on,,16,0,2,,,,,,,,,1,,,47,0
69912,note_on,,8,0,1,,,,,,,,,0,,,71,0
69916,note_on,,12,0,4,,,,,,,,,3,,,74,0
69920,note_on,,8,0,1,,,,,,,,,0,,,74,103
69920,note_on,,4,0,4,,,,,,,,,3,,,78,49
69928,note_on,,8,0,1,,,,,,,,,0,,,74,0
69932,note_on,,12,0,4,,,,,,,,,3,,,78,0
69936,note_on,,4,0,4,,,,,,,,,3,,,78,64
69936,note_on,,8,0,1,,,,,,,,,0,,,74,88
69944,note_on,,8,0,1,,,,,,,,,0,,,74,0
69948,note_on,,12,0,4,,,,,,,,,3,,,78,0
69952,note_on,,8,0,1,,,,,,,,,0,,,73,89
69952,note_on,,4,0,4,,,,,,,,,3,,,76,85
69960,note_on,,8,0,1,,,,,,,,,0,,,73,0
69964,note_on,,12,0,4,,,,,,,,,3,,,76,0
69968,note_on,,8,0,1,,,,,,,,,0,,,74,100
69968,note_on,,4,0,4,,,,,,,,,3,,,78,62
69976,note_on,,8,0,1,,,,,,,,,0,,,74,0
69980,note_on,,12,0,4,,,,,,,,,3,,,78,0
69984,note_on,,4,0,4,,,,,,,,,3,,,71,85
69984,note_on,,80,0,2,,,,,,,,,1,,,47,103
69984,note_on,,80,0,7,,,,,,,,,6,,,47,88
69984,note_on,,8,0,1,,,,,,,,,0,,,67,103
69992,note_on,,8,0,1,,,,,,,,,0,,,67,0
69996,note_on,,108,0,3,,,,,,,,,2,,,79,0
69996,note_on,,12,0,4,,,,,,,,,3,,,71,0
70000,note_on,,16,0,7,,,,,,,,,6,,,47,0
70000,note_on,,16,0,2,,,,,,,,,1,,,47,0
70000,note_on,,4,0,4,,,,,,,,,3,,,75,70
70000,note_on,,8,0,1,,,,,,,,,0,,,70,84
70008,note_on,,8,0,1,,,,,,,,,0,,,70,0
70012,note_on,,12,0,4,,,,,,,,,3,,,75,0
70016,note_on,,8,0,1,,,,,,,,,0,,,71,81
70016,note_on,,4,0,4,,,,,,,,,3,,,76,81
70020,note_on,,24,0,3,,,,,,,,,2,,,79,103
70024,note_on,,8,0,1,,,,,,,,,0,,,71,0
70028,note_on,,12,0,4,,,,,,,,,3,,,76,0
70029,note_on,,9,0,3,,,,,,,,,2,,,79,0
70032,note_on,,8,0,1,,,,,,,,,0,,,73,84
70032,note_on,,3,0,3,,,,,,,,,2,,,81,85
70032,note_on,,4,0,4,,,,,,,,,3,,,76,85
70040,note_on,,8,0,1,,,,,,,,,0,,,73,0
70044,note_on,,12,0,3,,,,,,,,,2,,,81,0
70044,note_on,,12,0,4,,,,,,,,,3,,,76,0
70048,note_on,,4,0,3,,,,,,,,,2,,,78,77
70048,note_on,,8,0,1,,,,,,,,,0,,,70,82
70048,note_on,,4,0,4,,,,,,,,,3,,,75,66
70056,note_on,,8,0,1,,,,,,,,,0,,,70,0
70060,note_on,,12,0,3,,,,,,,,,2,,,78,0
70060,note_on,,12,0,4,,,,,,,,,3,,,75,0
70064,note_on,,4,0,4,,,,,,,,,3,,,76,85
70064,note_on,,4,0,3,,,,,,,,,2,,,79,103
70064,note_on,,8,0,1,,,,,,,,,0,,,71,84
70072,note_on,,8,0,1,,,,,,,,,0,,,71,0
70076,note_on,,12,0,4,,,,,,,,,3,,,76,0
70076,note_on,,12,0,3,,,,,,,,,2,,,79,0
70080,note_on,,4,0,4,,,,,,,,,3,,,70,72
70080,note_on,,4,0,3,,,,,,,,,2,,,78,84
70080,note_on,,80,0,7,,,,,,,,,6,,,47,85
70080,note_on,,80,0,2,,,,,,,,,1,,,47,85
70080,note_on,,8,0,1,,,,,,,,,0,,,64,103
70088,note_on,,8,0,1,,,,,,,,,0,,,64,0
70092,note_on,,12,0,4,,,,,,,,,3,,,70,0
70096,note_on,,8,0,1,,,,,,,,,0,,,70,84
70096,note_on,,16,0,2,,,,,,,,,1,,,47,0
70096,note_on,,16,0,7,,,,,,,,,6,,,47,0
70096,note_on,,4,0,4,,,,,,,,,3,,,73,71
70104,note_on,,8,0,1,,,,,,,,,0,,,70,0
70108,note_on,,12,0,4,,,,,,,,,3,,,73,0
70112,note_on,,4,0,4,,,,,,,,,3,,,76,55
70112,note_on,,8,0,1,,,,,,,,,0,,,73,77
70120,note_on,,8,0,1,,,,,,,,,0,,,73,0
70124,note_on,,12,0,4,,,,,,,,,3,,,76,0
70128,note_on,,4,0,4,,,,,,,,,3,,,76,85
70128,note_on,,8,0,1,,,,,,,,,0,,,73,81
70136,note_on,,8,0,1,,,,,,,,,0,,,73,0
70140,note_on,,12,0,4,,,,,,,,,3,,,76,0
70144,note_on,,4,0,4,,,,,,,,,3,,,74,85
70144,note_on,,8,0,1,,,,,,,,,0,,,71,103
70152,note_on,,8,0,1,,,,,,,,,0,,,71,0
70156,note_on,,12,0,4,,,,,,,,,3,,,74,0
70160,note_on,,4,0,4,,,,,,,,,3,,,76,85
70160,note_on,,8,0,1,,,,,,,,,0,,,73,69
70168,note_on,,8,0,1,,,,,,,,,0,,,73,0
70172,note_on,,12,0,4,,,,,,,,,3,,,76,0
70176,note_on,,8,0,1,,,,,,,,,0,,,66,80
70176,note_on,,80,0,2,,,,,,,,,1,,,47,103
70176,note_on,,4,0,4,,,,,,,,,3,,,71,85
70176,note_on,,80,0,7,,,,,,,,,6,,,47,98
70184,note_on,,8,0,1,,,,,,,,,0,,,66,0
70188,note_on,,108,0,3,,,,,,,,,2,,,78,0
70188,note_on,,12,0,4,,,,,,,,,3,,,71,0
70192,note_on,,16,0,2,,,,,,,,,1,,,47,0
70192,note_on,,16,0,7,,,,,,,,,6,,,47,0
70192,note_on,,4,0,4,,,,,,,,,3,,,74,85
70192,note_on,,8,0,1,,,,,,,,,0,,,71,103
70200,note_on,,8,0,1,,,,,,,,,0,,,71,0
70204,note_on,,12,0,4,,,,,,,,,3,,,74,0
70208,note_on,,8,0,1,,,,,,,,,0,,,74,103
70208,note_on,,4,0,4,,,,,,,,,3,,,78,59
70212,note_on,,24,0,3,,,,,,,,,2,,,78,77
70216,note_on,,8,0,1,,,,,,,,,0,,,74,0
70220,note_on,,12,0,4,,,,,,,,,3,,,78,0
70221,note_on,,9,0,3,,,,,,,,,2,,,78,0
70224,note_on,,4,0,4,,,,,,,,,3,,,78,64
70224,note_on,,8,0,1,,,,,,,,,0,,,74,100
70224,note_on,,3,0,3,,,,,,,,,2,,,83,84
70232,note_on,,8,0,1,,,,,,,,,0,,,74,0
70236,note_on,,12,0,4,,,,,,,,,3,,,78,0
70240,note_on,,4,0,4,,,,,,,,,3,,,76,85
70240,note_on,,8,0,1,,,,,,,,,0,,,73,85
70248,note_on,,8,0,1,,,,,,,,,0,,,73,0
70251,note_on,,27,0,3,,,,,,,,,2,,,83,0
70252,note_on,,12,0,4,,,,,,,,,3,,,76,0
70256,note_on,,4,0,4,,,,,,,,,3,,,78,64
70256,note_on,,8,0,1,,,,,,,,,0,,,74,100
70260,note_on,,9,0,3,,,,,,,,,2,,,79,103
70264,note_on,,8,0,1,,,,,,,,,0,,,74,0
70268,note_on,,12,0,4,,,,,,,,,3,,,78,0
70269,note_on,,9,0,3,,,,,,,,,2,,,79,0
70272,note_on,,80,0,2,,,,,,,,,1,,,47,103
70272,note_on,,8,0,1,,,,,,,,,0,,,64,88
70272,note_on,,4,0,4,,,,,,,,,3,,,69,85
70272,note_on,,3,0,3,,,,,,,,,2,,,76,103
70272,note_on,,80,0,7,,,,,,,,,6,,,47,106
70280,note_on,,8,0,1,,,,,,,,,0,,,64,0
70284,note_on,,12,0,4,,,,,,,,,3,,,69,0
70288,note_on,,16,0,2,,,,,,,,,1,,,47,0
70288,note_on,,4,0,4,,,,,,,,,3,,,76,85
70288,note_on,,8,0,1,,,,,,,,,0,,,67,96
70288,note_on,,16,0,7,,,,,,,,,6,,,47,0
70296,note_on,,8,0,1,,,,,,,,,0,,,67,0
70300,note_on,,12,0,4,,,,,,,,,3,,,76,0
70304,note_on,,8,0,1,,,,,,,,,0,,,73,68
70304,note_on,,4,0,4,,,,,,,,,3,,,79,47
70312,note_on,,8,0,1,,,,,,,,,0,,,73,0
70316,note_on,,12,0,4,,,,,,,,,3,,,79,0
70320,note_on,,4,0,4,,,,,,,,,3,,,79,67
70320,note_on,,8,0,1,,,,,,,,,0,,,73,71
70328,note_on,,8,0,1,,,,,,,,,0,,,73,0
70332,note_on,,12,0,4,,,,,,,,,3,,,79,0
70336,note_on,,8,0,1,,,,,,,,,0,,,70,84
70336,note_on,,4,0,4,,,,,,,,,3,,,78,66
70344,note_on,,8,0,1,,,,,,,,,0,,,70,0
70348,note_on,,12,0,4,,,,,,,,,3,,,78,0
70352,note_on,,4,0,4,,,,,,,,,3,,,79,74
70352,note_on,,8,0,1,,,,,,,,,0,,,71,103
70360,note_on,,8,0,1,,,,,,,,,0,,,71,0
70364,note_on,,12,0,4,,,,,,,,,3,,,79,0
70368,note_on,,80,0,2,,,,,,,,,1,,,47,103
70368,note_on,,8,0,1,,,,,,,,,0,,,73,73
70368,note_on,,80,0,7,,,,,,,,,6,,,47,101
70368,note_on,,4,0,4,,,,,,,,,3,,,68,43
70376,note_on,,8,0,1,,,,,,,,,0,,,73,0
70380,note_on,,108,0,3,,,,,,,,,2,,,76,0
70380,note_on,,12,0,4,,,,,,,,,3,,,68,0
70384,note_on,,8,0,1,,,,,,,,,0,,,70,77
70384,note_on,,16,0,7,,,,,,,,,6,,,47,0
70384,note_on,,16,0,2,,,,,,,,,1,,,47,0
70384,note_on,,4,0,3,,,,,,,,,2,,,78,73
70384,note_on,,4,0,4,,,,,,,,,3,,,66,66
70392,note_on,,8,0,1,,,,,,,,,0,,,70,0
70396,note_on,,12,0,4,,,,,,,,,3,,,66,0
70396,note_on,,12,0,3,,,,,,,,,2,,,78,0
70400,note_on,,4,0,4,,,,,,,,,3,,,76,84
70400,note_on,,4,0,3,,,,,,,,,2,,,79,84
70400,note_on,,8,0,1,,,,,,,,,0,,,71,103
70408,note_on,,8,0,1,,,,,,,,,0,,,71,0
70412,note_on,,12,0,4,,,,,,,,,3,,,76,0
70412,note_on,,12,0,3,,,,,,,,,2,,,79,0
70416,note_on,,4,0,3,,,,,,,,,2,,,78,80
70416,note_on,,4,0,4,,,,,,,,,3,,,74,79
70416,note_on,,8,0,1,,,,,,,,,0,,,66,71
70424,note_on,,8,0,1,,,,,,,,,0,,,66,0
70428,note_on,,12,0,4,,,,,,,,,3,,,74,0
70428,note_on,,12,0,3,,,,,,,,,2,,,78,0
70432,note_on,,4,0,3,,,,,,,,,2,,,79,95
70432,note_on,,8,0,1,,,,,,,,,0,,,71,74
70432,note_on,,4,0,4,,,,,,,,,3,,,76,52
70440,note_on,,8,0,1,,,,,,,,,0,,,71,0
70444,note_on,,12,0,4,,,,,,,,,3,,,76,0
70444,note_on,,12,0,3,,,,,,,,,2,,,79,0
70448,note_on,,8,0,1,,,,,,,,,0,,,70,84
70448,note_on,,4,0,4,,,,,,,,,3,,,73,66
70448,note_on,,4,0,3,,,,,,,,,2,,,76,103
70456,note_on,,8,0,1,,,,,,,,,0,,,70,0
70460,note_on,,12,0,4,,,,,,,,,3,,,73,0
70460,note_on,,12,0,3,,,,,,,,,2,,,76,0
70464,note_on,,80,0,2,,,,,,,,,1,,,47,103
70464,note_on,,4,0,4,,,,,,,,,3,,,71,85
70464,note_on,,4,0,3,,,,,,,,,2,,,74,92
70464,note_on,,8,0,1,,,,,,,,,0,,,71,103
70476,note_on,,12,0,1,,,,,,,,,0,,,71,0
70476,note_on,,12,0,3,,,,,,,,,2,,,74,0
70480,note_on,,4,0,3,,,,,,,,,2,,,71,91
70482,note_on,,18,0,4,,,,,,,,,3,,,71,0
70488,note_on,,24,0,2,,,,,,,,,1,,,47,0
70492,note_on,,12,0,3,,,,,,,,,2,,,71,0
70496,note_on,,4,0,3,,,,,,,,,2,,,73,85
70500,note_on,,116,0,7,,,,,,,,,6,,,54,84
70500,note_on,,12,0,2,,,,,,,,,1,,,54,80
70508,note_on,,12,0,3,,,,,,,,,2,,,73,0
70508,note_on,,8,0,2,,,,,,,,,1,,,54,0
70512,note_on,,0,0,7,,,,,,,,,6,,,59,85
70512,note_on,,12,0,7,,,,,,,,,6,,,54,0
70512,note_on,,4,0,2,,,,,,,,,1,,,59,91
70512,note_on,,30,0,4,,,,,,,,,3,,,66,53
70512,note_on,,4,0,3,,,,,,,,,2,,,74,100
70523,note_on,,11,0,7,,,,,,,,,6,,,59,0
70523,note_on,,11,0,2,,,,,,,,,1,,,59,0
70524,note_on,,12,0,3,,,,,,,,,2,,,74,0
70528,note_on,,5,0,7,,,,,,,,,6,,,62,85
70528,note_on,,4,0,3,,,,,,,,,2,,,78,77
70528,note_on,,5,0,2,,,,,,,,,1,,,62,103
70530,note_on,,18,0,4,,,,,,,,,3,,,66,0
70539,note_on,,11,0,2,,,,,,,,,1,,,62,0
70539,note_on,,11,0,7,,,,,,,,,6,,,62,0
70540,note_on,,12,0,3,,,,,,,,,2,,,78,0
70544,note_on,,5,0,7,,,,,,,,,6,,,61,67
70544,note_on,,4,0,3,,,,,,,,,2,,,76,103
70544,note_on,,5,0,2,,,,,,,,,1,,,61,87
70555,note_on,,11,0,2,,,,,,,,,1,,,61,0
70555,note_on,,11,0,7,,,,,,,,,6,,,61,0
70556,note_on,,12,0,3,,,,,,,,,2,,,76,0
70560,note_on,,5,0,2,,,,,,,,,1,,,62,88
70560,note_on,,4,0,3,,,,,,,,,2,,,78,80
70560,note_on,,30,0,4,,,,,,,,,3,,,71,85
70560,note_on,,5,0,7,,,,,,,,,6,,,62,85
70571,note_on,,11,0,2,,,,,,,,,1,,,62,0
70571,note_on,,11,0,7,,,,,,,,,6,,,62,0
70572,note_on,,12,0,3,,,,,,,,,2,,,78,0
70576,note_on,,4,0,3,,,,,,,,,2,,,76,103
70576,note_on,,5,0,2,,,,,,,,,1,,,61,80
70576,note_on,,5,0,7,,,,,,,,,6,,,61,70
70578,note_on,,18,0,4,,,,,,,,,3,,,71,0
70587,note_on,,11,0,7,,,,,,,,,6,,,61,0
70587,note_on,,11,0,2,,,,,,,,,1,,,61,0
70588,note_on,,12,0,3,,,,,,,,,2,,,76,0
70592,note_on,,4,0,3,,,,,,,,,2,,,74,103
70592,note_on,,5,0,2,,,,,,,,,1,,,59,100
70592,note_on,,5,0,7,,,,,,,,,6,,,59,85
70596,note_on,,828,0,5,,,,,,,,,4,,,71,85
70596,note_on,,835,0,6,,,,,,,,,5,,,71,81
70603,note_on,,11,0,2,,,,,,,,,1,,,59,0
70603,note_on,,11,0,7,,,,,,,,,6,,,59,0
70604,note_on,,12,0,3,,,,,,,,,2,,,74,0
70604,note_on,,8,0,6,,,,,,,,,5,,,71,0
70605,note_on,,9,0,5,,,,,,,,,4,,,71,0
70608,note_on,,4,0,3,,,,,,,,,2,,,73,88
70608,note_on,,30,0,4,,,,,,,,,3,,,73,57
70608,note_on,,5,0,2,,,,,,,,,1,,,58,84
70608,note_on,,3,0,5,,,,,,,,,4,,,78,56
70608,note_on,,5,0,7,,,,,,,,,6,,,58,72
70608,note_on,,4,0,6,,,,,,,,,5,,,66,59
70619,note_on,,11,0,7,,,,,,,,,6,,,58,0
70619,note_on,,11,0,2,,,,,,,,,1,,,58,0
70620,note_on,,12,0,3,,,,,,,,,2,,,73,0
70620,note_on,,12,0,4,,,,,,,,,3,,,73,0
70624,note_on,,5,0,7,,,,,,,,,6,,,59,85
70624,note_on,,4,0,3,,,,,,,,,2,,,74,88
70624,note_on,,5,0,2,,,,,,,,,1,,,59,103
70624,note_on,,4,0,4,,,,,,,,,3,,,74,85
70632,note_on,,24,0,6,,,,,,,,,5,,,66,0
70635,note_on,,11,0,7,,,,,,,,,6,,,59,0
70635,note_on,,11,0,2,,,,,,,,,1,,,59,0
70635,note_on,,27,0,5,,,,,,,,,4,,,78,0
70636,note_on,,12,0,3,,,,,,,,,2,,,74,0
70636,note_on,,12,0,4,,,,,,,,,3,,,74,0
70640,note_on,,4,0,3,,,,,,,,,2,,,71,80
70640,note_on,,5,0,2,,,,,,,,,1,,,61,91
70640,note_on,,4,0,4,,,,,,,,,3,,,76,85
70640,note_on,,5,0,7,,,,,,,,,6,,,61,72
70644,note_on,,12,0,6,,,,,,,,,5,,,73,67
70644,note_on,,9,0,5,,,,,,,,,4,,,73,66
70651,note_on,,11,0,7,,,,,,,,,6,,,61,0
70651,note_on,,11,0,2,,,,,,,,,1,,,61,0
70652,note_on,,12,0,3,,,,,,,,,2,,,71,0
70652,note_on,,12,0,4,,,,,,,,,3,,,76,0
70652,note_on,,8,0,6,,,,,,,,,5,,,73,0
70653,note_on,,9,0,5,,,,,,,,,4,,,73,0
70656,note_on,,5,0,2,,,,,,,,,1,,,54,82
70656,note_on,,4,0,3,,,,,,,,,2,,,70,91
70656,note_on,,5,0,7,,,,,,,,,6,,,54,67
70656,note_on,,3,0,5,,,,,,,,,4,,,74,85
70656,note_on,,4,0,6,,,,,,,,,5,,,74,85
70656,note_on,,4,0,4,,,,,,,,,3,,,78,62
70667,note_on,,11,0,6,,,,,,,,,5,,,74,0
70668,note_on,,12,0,4,,,,,,,,,3,,,78,0
70668,note_on,,12,0,3,,,,,,,,,2,,,70,0
70668,note_on,,12,0,5,,,,,,,,,4,,,74,0
70672,note_on,,4,0,3,,,,,,,,,2,,,73,86
70672,note_on,,4,0,4,,,,,,,,,3,,,76,76
70672,note_on,,5,0,6,,,,,,,,,5,,,73,56
70672,note_on,,4,0,5,,,,,,,,,4,,,73,65
70683,note_on,,11,0,6,,,,,,,,,5,,,73,0
70684,note_on,,12,0,5,,,,,,,,,4,,,73,0
70684,note_on,,12,0,3,,,,,,,,,2,,,73,0
70684,note_on,,12,0,4,,,,,,,,,3,,,76,0
70688,note_on,,4,0,3,,,,,,,,,2,,,78,82
70688,note_on,,32,0,2,,,,,,,,,1,,,54,0
70688,note_on,,4,0,5,,,,,,,,,4,,,71,85
70688,note_on,,32,0,7,,,,,,,,,6,,,54,0
70688,note_on,,5,0,6,,,,,,,,,5,,,71,85
70688,note_on,,4,0,4,,,,,,,,,3,,,74,85
70699,note_on,,11,0,6,,,,,,,,,5,,,71,0
70700,note_on,,12,0,5,,,,,,,,,4,,,71,0
70700,note_on,,12,0,3,,,,,,,,,2,,,78,0
70700,note_on,,12,0,4,,,,,,,,,3,,,74,0
70704,note_on,,4,0,4,,,,,,,,,3,,,73,65
70704,note_on,,4,0,3,,,,,,,,,2,,,76,101
70704,note_on,,4,0,5,,,,,,,,,4,,,70,74
70704,note_on,,5,0,6,,,,,,,,,5,,,70,56
70715,note_on,,11,0,6,,,,,,,,,5,,,70,0
70716,note_on,,12,0,4,,,,,,,,,3,,,73,0
70716,note_on,,12,0,3,,,,,,,,,2,,,76,0
70716,note_on,,12,0,5,,,,,,,,,4,,,70,0
70720,note_on,,4,0,5,,,,,,,,,4,,,71,85
70720,note_on,,32,0,2,,,,,,,,,1,,,55,103
70720,note_on,,5,0,6,,,,,,,,,5,,,71,71
70720,note_on,,4,0,4,,,,,,,,,3,,,71,44
70720,note_on,,32,0,7,,,,,,,,,6,,,55,85
70720,note_on,,4,0,3,,,,,,,,,2,,,74,103
70731,note_on,,11,0,2,,,,,,,,,1,,,55,0
70731,note_on,,11,0,7,,,,,,,,,6,,,55,0
70731,note_on,,11,0,6,,,,,,,,,5,,,71,0
70732,note_on,,12,0,3,,,,,,,,,2,,,74,0
70732,note_on,,12,0,4,,,,,,,,,3,,,71,0
70732,note_on,,12,0,5,,,,,,,,,4,,,71,0
70736,note_on,,4,0,3,,,,,,,,,2,,,73,84
70736,note_on,,5,0,7,,,,,,,,,6,,,52,85
70736,note_on,,4,0,5,,,,,,,,,4,,,73,74
70736,note_on,,5,0,6,,,,,,,,,5,,,73,68
70736,note_on,,5,0,2,,,,,,,,,1,,,52,95
70736,note_on,,4,0,4,,,,,,,,,3,,,70,66
70747,note_on,,11,0,6,,,,,,,,,5,,,73,0
70747,note_on,,11,0,7,,,,,,,,,6,,,52,0
70747,note_on,,11,0,2,,,,,,,,,1,,,52,0
70748,note_on,,12,0,3,,,,,,,,,2,,,73,0
70748,note_on,,12,0,5,,,,,,,,,4,,,73,0
70748,note_on,,12,0,4,,,,,,,,,3,,,70,0
70752,note_on,,4,0,3,,,,,,,,,2,,,71,103
70752,note_on,,4,0,4,,,,,,,,,3,,,71,85
70752,note_on,,5,0,2,,,,,,,,,1,,,50,96
70752,note_on,,276,0,1,,,,,,,,,0,,,71,63
70752,note_on,,4,0,5,,,,,,,,,4,,,66,57
70752,note_on,,5,0,7,,,,,,,,,6,,,50,85
70752,note_on,,5,0,6,,,,,,,,,5,,,66,59
70760,note_on,,8,0,1,,,,,,,,,0,,,71,0
70763,note_on,,11,0,7,,,,,,,,,6,,,50,0
70763,note_on,,11,0,2,,,,,,,,,1,,,50,0
70764,note_on,,12,0,5,,,,,,,,,4,,,66,0
70764,note_on,,12,0,3,,,,,,,,,2,,,71,0
70768,note_on,,16,0,6,,,,,,,,,5,,,66,0
70768,note_on,,5,0,7,,,,,,,,,6,,,49,64
70768,note_on,,4,0,3,,,,,,,,,2,,,74,103
70768,note_on,,5,0,2,,,,,,,,,1,,,49,84
70768,note_on,,4,0,5,,,,,,,,,4,,,71,85
70768,note_on,,8,0,1,,,,,,,,,0,,,78,63
70776,note_on,,8,0,1,,,,,,,,,0,,,78,0
70779,note_on,,11,0,2,,,,,,,,,1,,,49,0
70779,note_on,,11,0,7,,,,,,,,,6,,,49,0
70779,note_on,,27,0,4,,,,,,,,,3,,,71,0
70780,note_on,,12,0,5,,,,,,,,,4,,,71,0
70780,note_on,,12,0,3,,,,,,,,,2,,,74,0
70784,note_on,,8,0,1,,,,,,,,,0,,,83,63
70784,note_on,,5,0,7,,,,,,,,,6,,,47,85
70784,note_on,,5,0,2,,,,,,,,,1,,,47,103
70784,note_on,,4,0,5,,,,,,,,,4,,,74,85
70784,note_on,,4,0,3,,,,,,,,,2,,,78,84
70788,note_on,,9,0,4,,,,,,,,,3,,,78,59
70792,note_on,,8,0,1,,,,,,,,,0,,,83,0
70795,note_on,,11,0,7,,,,,,,,,6,,,47,0
70795,note_on,,11,0,2,,,,,,,,,1,,,47,0
70796,note_on,,12,0,3,,,,,,,,,2,,,78,0
70796,note_on,,12,0,5,,,,,,,,,4,,,74,0
70797,note_on,,9,0,4,,,,,,,,,3,,,78,0
70800,note_on,,4,0,3,,,,,,,,,2,,,78,88
70800,note_on,,3,0,4,,,,,,,,,3,,,83,85
70800,note_on,,8,0,1,,,,,,,,,0,,,83,63
70800,note_on,,4,0,5,,,,,,,,,4,,,74,85
70808,note_on,,8,0,1,,,,,,,,,0,,,83,0
70812,note_on,,12,0,5,,,,,,,,,4,,,74,0
70812,note_on,,12,0,3,,,,,,,,,2,,,78,0
70816,note_on,,4,0,3,,,,,,,,,2,,,76,103
70816,note_on,,8,0,1,,,,,,,,,0,,,82,63
70816,note_on,,4,0,5,,,,,,,,,4,,,73,72
70824,note_on,,8,0,1,,,,,,,,,0,,,82,0
70827,note_on,,27,0,4,,,,,,,,,3,,,83,0
70828,note_on,,12,0,5,,,,,,,,,4,,,73,0
70828,note_on,,12,0,3,,,,,,,,,2,,,76,0
70832,note_on,,4,0,5,,,,,,,,,4,,,74,85
70832,note_on,,8,0,1,,,,,,,,,0,,,83,63
70832,note_on,,4,0,3,,,,,,,,,2,,,78,87
70836,note_on,,9,0,4,,,,,,,,,3,,,78,74
70840,note_on,,8,0,1,,,,,,,,,0,,,83,0
70844,note_on,,12,0,3,,,,,,,,,2,,,78,0
70844,note_on,,12,0,5,,,,,,,,,4,,,74,0
70845,note_on,,9,0,4,,,,,,,,,3,,,78,0
70848,note_on,,8,0,1,,,,,,,,,0,,,74,85
70848,note_on,,4,0,5,,,,,,,,,4,,,66,56
70848,note_on,,3,0,4,,,,,,,,,3,,,79,85
70848,note_on,,53,0,7,,,,,,,,,6,,,47,103
70848,note_on,,4,0,3,,,,,,,,,2,,,71,85
70848,note_on,,53,0,2,,,,,,,,,1,,,47,85
70856,note_on,,8,0,1,,,,,,,,,0,,,74,0
70860,note_on,,12,0,3,,,,,,,,,2,,,71,0
70861,note_on,,13,0,5,,,,,,,,,4,,,66,0
70864,note_on,,3,0,5,,,,,,,,,4,,,69,85
70864,note_on,,16,0,2,,,,,,,,,1,,,47,0
70864,note_on,,16,0,7,,,,,,,,,6,,,47,0
70864,note_on,,8,0,1,,,,,,,,,0,,,78,52
70864,note_on,,4,0,3,,,,,,,,,2,,,74,76
70872,note_on,,8,0,1,,,,,,,,,0,,,78,0
70876,note_on,,12,0,3,,,,,,,,,2,,,74,0
70877,note_on,,13,0,5,,,,,,,,,4,,,69,0
70880,note_on,,3,0,5,,,,,,,,,4,,,74,85
70880,note_on,,8,0,1,,,,,,,,,0,,,83,62
70880,note_on,,4,0,3,,,,,,,,,2,,,78,59
70888,note_on,,8,0,1,,,,,,,,,0,,,83,0
70892,note_on,,12,0,3,,,,,,,,,2,,,78,0
70893,note_on,,13,0,5,,,,,,,,,4,,,74,0
70896,note_on,,8,0,1,,,,,,,,,0,,,83,62
70896,note_on,,3,0,5,,,,,,,,,4,,,74,85
70896,note_on,,4,0,3,,,,,,,,,2,,,78,56
70904,note_on,,8,0,1,,,,,,,,,0,,,83,0
70908,note_on,,12,0,3,,,,,,,,,2,,,78,0
70909,note_on,,13,0,5,,,,,,,,,4,,,74,0
70912,note_on,,4,0,3,,,,,,,,,2,,,76,71
70912,note_on,,3,0,5,,,,,,,,,4,,,73,66
70912,note_on,,8,0,1,,,,,,,,,0,,,82,66
70920,note_on,,8,0,1,,,,,,,,,0,,,82,0
70924,note_on,,12,0,3,,,,,,,,,2,,,76,0
70925,note_on,,13,0,5,,,,,,,,,4,,,73,0
70928,note_on,,4,0,3,,,,,,,,,2,,,78,56
70928,note_on,,3,0,5,,,,,,,,,4,,,74,85
70928,note_on,,8,0,1,,,,,,,,,0,,,83,85
70936,note_on,,8,0,1,,,,,,,,,0,,,83,0
70940,note_on,,12,0,3,,,,,,,,,2,,,78,0
70941,note_on,,13,0,5,,,,,,,,,4,,,74,0
70944,note_on,,80,0,7,,,,,,,,,6,,,47,103
70944,note_on,,8,0,1,,,,,,,,,0,,,76,85
70944,note_on,,4,0,3,,,,,,,,,2,,,71,64
70944,note_on,,80,0,2,,,,,,,,,1,,,47,85
70944,note_on,,3,0,5,,,,,,,,,4,,,67,85
70952,note_on,,8,0,1,,,,,,,,,0,,,76,0
70956,note_on,,108,0,4,,,,,,,,,3,,,79,0
70956,note_on,,12,0,3,,,,,,,,,2,,,71,0
70957,note_on,,13,0,5,,,,,,,,,4,,,67,0
70960,note_on,,8,0,1,,,,,,,,,0,,,78,59
70960,note_on,,16,0,7,,,,,,,,,6,,,47,0
70960,note_on,,4,0,3,,,,,,,,,2,,,75,66
70960,note_on,,16,0,2,,,,,,,,,1,,,47,0
70960,note_on,,3,0,5,,,,,,,,,4,,,70,62
70968,note_on,,8,0,1,,,,,,,,,0,,,78,0
70972,note_on,,12,0,3,,,,,,,,,2,,,75,0
70973,note_on,,13,0,5,,,,,,,,,4,,,70,0
70976,note_on,,3,0,5,,,,,,,,,4,,,71,85
70976,note_on,,4,0,3,,,,,,,,,2,,,76,74
70976,note_on,,8,0,1,,,,,,,,,0,,,79,85
70980,note_on,,24,0,4,,,,,,,,,3,,,79,85
70984,note_on,,8,0,1,,,,,,,,,0,,,79,0
70988,note_on,,12,0,3,,,,,,,,,2,,,76,0
70989,note_on,,13,0,5,,,,,,,,,4,,,71,0
70992,note_on,,0,0,4,,,,,,,,,3,,,81,85
70992,note_on,,12,0,4,,,,,,,,,3,,,79,0
70992,note_on,,4,0,3,,,,,,,,,2,,,76,85
70992,note_on,,8,0,1,,,,,,,,,0,,,76,79
70992,note_on,,3,0,5,,,,,,,,,4,,,73,66
71000,note_on,,8,0,1,,,,,,,,,0,,,76,0
71004,note_on,,12,0,3,,,,,,,,,2,,,76,0
71004,note_on,,12,0,4,,,,,,,,,3,,,81,0
71005,note_on,,13,0,5,,,,,,,,,4,,,73,0
71008,note_on,,4,0,4,,,,,,,,,3,,,78,54
71008,note_on,,8,0,1,,,,,,,,,0,,,78,40
71008,note_on,,4,0,3,,,,,,,,,2,,,75,62
71008,note_on,,3,0,5,,,,,,,,,4,,,70,56
71016,note_on,,8,0,1,,,,,,,,,0,,,78,0
71020,note_on,,12,0,3,,,,,,,,,2,,,75,0
71020,note_on,,12,0,4,,,,,,,,,3,,,78,0
71021,note_on,,13,0,5,,,,,,,,,4,,,70,0
71024,note_on,,4,0,3,,,,,,,,,2,,,76,85
71024,note_on,,8,0,1,,,,,,,,,0,,,74,62
71024,note_on,,3,0,5,,,,,,,,,4,,,71,85
71024,note_on,,4,0,4,,,,,,,,,3,,,79,85
71032,note_on,,8,0,1,,,,,,,,,0,,,74,0
71036,note_on,,12,0,4,,,,,,,,,3,,,79,0
71036,note_on,,12,0,3,,,,,,,,,2,,,76,0
71037,note_on,,13,0,5,,,,,,,,,4,,,71,0
71040,note_on,,4,0,3,,,,,,,,,2,,,70,57
71040,note_on,,4,0,4,,,,,,,,,3,,,78,89
71040,note_on,,80,0,7,,,,,,,,,6,,,47,103
71040,note_on,,8,0,1,,,,,,,,,0,,,73,59
71040,note_on,,3,0,5,,,,,,,,,4,,,64,74
71040,note_on,,80,0,2,,,,,,,,,1,,,47,85
71048,note_on,,8,0,1,,,,,,,,,0,,,73,0
71052,note_on,,12,0,3,,,,,,,,,2,,,70,0
71053,note_on,,13,0,5,,,,,,,,,4,,,64,0
71056,note_on,,3,0,5,,,,,,,,,4,,,70,61
71056,note_on,,16,0,2,,,,,,,,,1,,,47,0
71056,note_on,,16,0,7,,,,,,,,,6,,,47,0
71056,note_on,,8,0,1,,,,,,,,,0,,,76,61
71056,note_on,,4,0,3,,,,,,,,,2,,,73,56
71064,note_on,,8,0,1,,,,,,,,,0,,,76,0
71068,note_on,,12,0,3,,,,,,,,,2,,,73,0
71069,note_on,,13,0,5,,,,,,,,,4,,,70,0
71072,note_on,,4,0,3,,,,,,,,,2,,,76,85
71072,note_on,,3,0,5,,,,,,,,,4,,,73,69
71072,note_on,,8,0,1,,,,,,,,,0,,,82,65
71080,note_on,,8,0,1,,,,,,,,,0,,,82,0
71084,note_on,,12,0,3,,,,,,,,,2,,,76,0
71085,note_on,,13,0,5,,,,,,,,,4,,,73,0
71088,note_on,,4,0,3,,,,,,,,,2,,,76,85
71088,note_on,,3,0,5,,,,,,,,,4,,,73,62
71088,note_on,,8,0,1,,,,,,,,,0,,,82,62
71096,note_on,,8,0,1,,,,,,,,,0,,,82,0
71100,note_on,,12,0,3,,,,,,,,,2,,,76,0
71101,note_on,,13,0,5,,,,,,,,,4,,,73,0
71104,note_on,,8,0,1,,,,,,,,,0,,,80,65
71104,note_on,,4,0,3,,,,,,,,,2,,,74,85
71104,note_on,,3,0,5,,,,,,,,,4,,,71,85
71112,note_on,,8,0,1,,,,,,,,,0,,,80,0
71112,note_on,,72,0,4,,,,,,,,,3,,,78,0
71116,note_on,,12,0,3,,,,,,,,,2,,,74,0
71117,note_on,,13,0,5,,,,,,,,,4,,,71,0
71120,note_on,,3,0,5,,,,,,,,,4,,,73,66
71120,note_on,,4,0,3,,,,,,,,,2,,,76,76
71120,note_on,,8,0,1,,,,,,,,,0,,,82,66
71128,note_on,,8,0,1,,,,,,,,,0,,,82,0
71132,note_on,,12,0,3,,,,,,,,,2,,,76,0
71133,note_on,,13,0,5,,,,,,,,,4,,,73,0
71136,note_on,,24,0,4,,,,,,,,,3,,,78,86
71136,note_on,,80,0,2,,,,,,,,,1,,,47,85
71136,note_on,,4,0,3,,,,,,,,,2,,,71,85
71136,note_on,,3,0,5,,,,,,,,,4,,,66,56
71136,note_on,,80,0,7,,,,,,,,,6,,,47,103
71136,note_on,,8,0,1,,,,,,,,,0,,,74,85
71144,note_on,,8,0,1,,,,,,,,,0,,,74,0
71148,note_on,,12,0,3,,,,,,,,,2,,,71,0
71149,note_on,,13,0,5,,,,,,,,,4,,,66,0
71152,note_on,,8,0,1,,,,,,,,,0,,,78,55
71152,note_on,,4,0,3,,,,,,,,,2,,,74,85
71152,note_on,,16,0,2,,,,,,,,,1,,,47,0
71152,note_on,,16,0,7,,,,,,,,,6,,,47,0
71152,note_on,,3,0,5,,,,,,,,,4,,,71,85
71160,note_on,,8,0,1,,,,,,,,,0,,,78,0
71163,note_on,,27,0,4,,,,,,,,,3,,,78,0
71164,note_on,,12,0,3,,,,,,,,,2,,,74,0
71165,note_on,,13,0,5,,,,,,,,,4,,,71,0
71168,note_on,,3,0,5,,,,,,,,,4,,,74,85
71168,note_on,,8,0,1,,,,,,,,,0,,,83,85
71168,note_on,,4,0,3,,,,,,,,,2,,,78,67
71172,note_on,,9,0,4,,,,,,,,,3,,,78,78
71176,note_on,,8,0,1,,,,,,,,,0,,,83,0
71180,note_on,,12,0,3,,,,,,,,,2,,,78,0
71181,note_on,,9,0,4,,,,,,,,,3,,,78,0
71181,note_on,,13,0,5,,,,,,,,,4,,,74,0
71184,note_on,,3,0,5,,,,,,,,,4,,,74,85
71184,note_on,,3,0,4,,,,,,,,,3,,,83,85
71184,note_on,,8,0,1,,,,,,,,,0,,,83,85
71184,note_on,,4,0,3,,,,,,,,,2,,,78,61
71192,note_on,,8,0,1,,,,,,,,,0,,,83,0
71196,note_on,,12,0,3,,,,,,,,,2,,,78,0
71197,note_on,,13,0,5,,,,,,,,,4,,,74,0
71200,note_on,,3,0,5,,,,,,,,,4,,,73,66
71200,note_on,,8,0,1,,,,,,,,,0,,,82,70
71200,note_on,,4,0,3,,,,,,,,,2,,,76,85
71208,note_on,,8,0,1,,,,,,,,,0,,,82,0
71211,note_on,,27,0,4,,,,,,,,,3,,,83,0
71212,note_on,,12,0,3,,,,,,,,,2,,,76,0
71213,note_on,,13,0,5,,,,,,,,,4,,,73,0
71216,note_on,,8,0,1,,,,,,,,,0,,,83,85
71216,note_on,,3,0,5,,,,,,,,,4,,,74,85
71216,note_on,,4,0,3,,,,,,,,,2,,,78,60
71220,note_on,,9,0,4,,,,,,,,,3,,,79,85
71224,note_on,,8,0,1,,,,,,,,,0,,,83,0
71228,note_on,,12,0,3,,,,,,,,,2,,,78,0
71229,note_on,,9,0,4,,,,,,,,,3,,,79,0
71229,note_on,,13,0,5,,,,,,,,,4,,,74,0
71232,note_on,,4,0,3,,,,,,,,,2,,,73,59
71232,note_on,,80,0,7,,,,,,,,,6,,,47,103
71232,note_on,,8,0,1,,,,,,,,,0,,,79,85
71232,note_on,,3,0,5,,,,,,,,,4,,,64,56
71232,note_on,,80,0,2,,,,,,,,,1,,,47,91
71232,note_on,,3,0,4,,,,,,,,,3,,,76,85
71240,note_on,,8,0,1,,,,,,,,,0,,,79,0
71244,note_on,,12,0,3,,,,,,,,,2,,,73,0
71245,note_on,,13,0,5,,,,,,,,,4,,,64,0
71248,note_on,,3,0,5,,,,,,,,,4,,,71,85
71248,note_on,,16,0,7,,,,,,,,,6,,,47,0
71248,note_on,,8,0,1,,,,,,,,,0,,,76,85
71248,note_on,,16,0,2,,,,,,,,,1,,,47,0
71248,note_on,,4,0,3,,,,,,,,,2,,,76,85
71256,note_on,,8,0,1,,,,,,,,,0,,,76,0
71260,note_on,,12,0,3,,,,,,,,,2,,,76,0
71261,note_on,,13,0,5,,,,,,,,,4,,,71,0
71264,note_on,,4,0,3,,,,,,,,,2,,,79,85
71264,note_on,,3,0,5,,,,,,,,,4,,,73,61
71264,note_on,,8,0,1,,,,,,,,,0,,,73,65
71272,note_on,,8,0,1,,,,,,,,,0,,,73,0
71276,note_on,,12,0,3,,,,,,,,,2,,,79,0
71277,note_on,,13,0,5,,,,,,,,,4,,,73,0
71280,note_on,,3,0,5,,,,,,,,,4,,,73,70
71280,note_on,,8,0,1,,,,,,,,,0,,,70,61
71280,note_on,,4,0,3,,,,,,,,,2,,,79,85
71288,note_on,,8,0,1,,,,,,,,,0,,,70,0
71292,note_on,,12,0,3,,,,,,,,,2,,,79,0
71293,note_on,,13,0,5,,,,,,,,,4,,,73,0
71296,note_on,,3,0,5,,,,,,,,,4,,,70,56
71296,note_on,,8,0,1,,,,,,,,,0,,,73,70
71296,note_on,,4,0,3,,,,,,,,,2,,,78,56
71304,note_on,,72,0,4,,,,,,,,,3,,,76,0
71304,note_on,,8,0,1,,,,,,,,,0,,,73,0
71308,note_on,,12,0,3,,,,,,,,,2,,,78,0
71309,note_on,,13,0,5,,,,,,,,,4,,,70,0
71312,note_on,,4,0,3,,,,,,,,,2,,,79,85
71312,note_on,,3,0,5,,,,,,,,,4,,,71,85
71312,note_on,,8,0,1,,,,,,,,,0,,,71,85
71320,note_on,,8,0,1,,,,,,,,,0,,,71,0
71324,note_on,,12,0,3,,,,,,,,,2,,,79,0
71325,note_on,,13,0,5,,,,,,,,,4,,,71,0
71328,note_on,,4,0,3,,,,,,,,,2,,,70,70
71328,note_on,,24,0,4,,,,,,,,,3,,,76,95
71328,note_on,,8,0,1,,,,,,,,,0,,,70,67
71328,note_on,,80,0,2,,,,,,,,,1,,,47,95
71328,note_on,,80,0,7,,,,,,,,,6,,,47,103
71328,note_on,,3,0,5,,,,,,,,,4,,,73,68
71336,note_on,,8,0,1,,,,,,,,,0,,,70,0
71340,note_on,,12,0,3,,,,,,,,,2,,,70,0
71340,note_on,,12,0,4,,,,,,,,,3,,,76,0
71341,note_on,,13,0,5,,,,,,,,,4,,,73,0
71344,note_on,,4,0,4,,,,,,,,,3,,,78,95
71344,note_on,,3,0,5,,,,,,,,,4,,,70,62
71344,note_on,,16,0,2,,,,,,,,,1,,,47,0
71344,note_on,,16,0,7,,,,,,,,,6,,,47,0
71344,note_on,,8,0,1,,,,,,,,,0,,,73,62
71344,note_on,,4,0,3,,,,,,,,,2,,,66,66
71352,note_on,,8,0,1,,,,,,,,,0,,,73,0
71356,note_on,,12,0,4,,,,,,,,,3,,,78,0
71356,note_on,,12,0,3,,,,,,,,,2,,,66,0
71357,note_on,,13,0,5,,,,,,,,,4,,,70,0
71360,note_on,,4,0,4,,,,,,,,,3,,,79,95
71360,note_on,,8,0,1,,,,,,,,,0,,,71,85
71360,note_on,,3,0,5,,,,,,,,,4,,,71,85
71360,note_on,,4,0,3,,,,,,,,,2,,,76,85
71368,note_on,,8,0,1,,,,,,,,,0,,,71,0
71372,note_on,,12,0,4,,,,,,,,,3,,,79,0
71372,note_on,,12,0,3,,,,,,,,,2,,,76,0
71373,note_on,,13,0,5,,,,,,,,,4,,,71,0
71376,note_on,,4,0,3,,,,,,,,,2,,,74,74
71376,note_on,,4,0,4,,,,,,,,,3,,,78,95
71376,note_on,,3,0,5,,,,,,,,,4,,,66,62
71376,note_on,,8,0,1,,,,,,,,,0,,,70,61
71384,note_on,,8,0,1,,,,,,,,,0,,,70,0
71388,note_on,,12,0,3,,,,,,,,,2,,,74,0
71388,note_on,,12,0,4,,,,,,,,,3,,,78,0
71389,note_on,,13,0,5,,,,,,,,,4,,,66,0
71392,note_on,,4,0,4,,,,,,,,,3,,,79,95
71392,note_on,,4,0,3,,,,,,,,,2,,,76,74
71392,note_on,,3,0,5,,,,,,,,,4,,,71,85
71392,note_on,,8,0,1,,,,,,,,,0,,,71,85
71400,note_on,,8,0,1,,,,,,,,,0,,,71,0
71404,note_on,,12,0,4,,,,,,,,,3,,,79,0
71404,note_on,,12,0,3,,,,,,,,,2,,,76,0
71405,note_on,,13,0,5,,,,,,,,,4,,,71,0
71408,note_on,,8,0,1,,,,,,,,,0,,,73,70
71408,note_on,,3,0,5,,,,,,,,,4,,,70,65
71408,note_on,,4,0,4,,,,,,,,,3,,,76,95
71408,note_on,,4,0,3,,,,,,,,,2,,,73,56
71416,note_on,,8,0,1,,,,,,,,,0,,,73,0
71420,note_on,,12,0,3,,,,,,,,,2,,,73,0
71420,note_on,,12,0,4,,,,,,,,,3,,,76,0
71421,note_on,,13,0,5,,,,,,,,,4,,,70,0
71424,note_on,,4,0,4,,,,,,,,,3,,,74,95
71424,note_on,,4,0,3,,,,,,,,,2,,,71,85
71424,note_on,,3,0,5,,,,,,,,,4,,,71,85
71424,note_on,,8,0,1,,,,,,,,,0,,,74,85
71424,note_on,,80,0,2,,,,,,,,,1,,,47,91
71436,note_on,,12,0,4,,,,,,,,,3,,,74,0
71436,note_on,,12,0,1,,,,,,,,,0,,,74,0
71440,note_on,,4,0,4,,,,,,,,,3,,,71,95
71442,note_on,,18,0,3,,,,,,,,,2,,,71,0
71444,note_on,,20,0,5,,,,,,,,,4,,,71,0
71448,note_on,,24,0,2,,,,,,,,,1,,,47,0
71452,note_on,,12,0,4,,,,,,,,,3,,,71,0
71456,note_on,,4,0,4,,,,,,,,,3,,,73,95
71460,note_on,,116,0,7,,,,,,,,,6,,,54,86
71460,note_on,,12,0,2,,,,,,,,,1,,,54,86
71468,note_on,,8,0,2,,,,,,,,,1,,,54,0
71468,note_on,,8,0,7,,,,,,,,,6,,,54,0
71468,note_on,,12,0,4,,,,,,,,,3,,,73,0
71472,note_on,,4,0,4,,,,,,,,,3,,,74,95
71472,note_on,,4,0,7,,,,,,,,,6,,,59,85
71472,note_on,,30,0,3,,,,,,,,,2,,,71,85
71472,note_on,,4,0,2,,,,,,,,,1,,,59,78
71483,note_on,,11,0,2,,,,,,,,,1,,,59,0
71483,note_on,,11,0,7,,,,,,,,,6,,,59,0
71484,note_on,,12,0,4,,,,,,,,,3,,,74,0
71488,note_on,,4,0,4,,,,,,,,,3,,,78,95
71488,note_on,,5,0,7,,,,,,,,,6,,,57,85
71488,note_on,,5,0,2,,,,,,,,,1,,,57,85
71490,note_on,,18,0,3,,,,,,,,,2,,,71,0
71499,note_on,,11,0,2,,,,,,,,,1,,,57,0
71499,note_on,,11,0,7,,,,,,,,,6,,,57,0
71500,note_on,,12,0,4,,,,,,,,,3,,,78,0
71504,note_on,,4,0,4,,,,,,,,,3,,,77,95
71504,note_on,,5,0,7,,,,,,,,,6,,,56,74
71504,note_on,,5,0,2,,,,,,,,,1,,,56,66
71515,note_on,,11,0,7,,,,,,,,,6,,,56,0
71515,note_on,,11,0,2,,,,,,,,,1,,,56,0
71516,note_on,,12,0,4,,,,,,,,,3,,,77,0
71520,note_on,,30,0,3,,,,,,,,,2,,,73,84
71520,note_on,,4,0,4,,,,,,,,,3,,,78,95
71520,note_on,,5,0,7,,,,,,,,,6,,,57,85
71520,note_on,,5,0,2,,,,,,,,,1,,,57,85
71531,note_on,,11,0,7,,,,,,,,,6,,,57,0
71531,note_on,,11,0,2,,,,,,,,,1,,,57,0
71532,note_on,,12,0,4,,,,,,,,,3,,,78,0
71536,note_on,,5,0,2,,,,,,,,,1,,,56,67
71536,note_on,,4,0,4,,,,,,,,,3,,,80,95
71536,note_on,,5,0,7,,,,,,,,,6,,,56,70
71538,note_on,,18,0,3,,,,,,,,,2,,,73,0
71547,note_on,,11,0,7,,,,,,,,,6,,,56,0
71547,note_on,,11,0,2,,,,,,,,,1,,,56,0
71548,note_on,,12,0,4,,,,,,,,,3,,,80,0
71552,note_on,,5,0,2,,,,,,,,,1,,,54,59
71552,note_on,,5,0,7,,,,,,,,,6,,,54,68
71552,note_on,,4,0,4,,,,,,,,,3,,,81,95
71556,note_on,,112,0,5,,,,,,,,,4,,,66,68
71556,note_on,,788,0,6,,,,,,,,,5,,,66,91
71563,note_on,,11,0,2,,,,,,,,,1,,,54,0
71563,note_on,,11,0,7,,,,,,,,,6,,,54,0
71564,note_on,,12,0,4,,,,,,,,,3,,,81,0
71566,note_on,,10,0,5,,,,,,,,,4,,,66,0
71568,note_on,,4,0,4,,,,,,,,,3,,,80,95
71568,note_on,,0,0,6,,,,,,,,,5,,,73,81
71568,note_on,,2,0,5,,,,,,,,,4,,,73,56
71568,note_on,,5,0,7,,,,,,,,,6,,,53,85
71568,note_on,,12,0,6,,,,,,,,,5,,,66,0
71568,note_on,,30,0,3,,,,,,,,,2,,,71,79
71568,note_on,,5,0,2,,,,,,,,,1,,,53,85
71579,note_on,,11,0,7,,,,,,,,,6,,,53,0
71579,note_on,,11,0,2,,,,,,,,,1,,,53,0
71580,note_on,,12,0,3,,,,,,,,,2,,,71,0
71584,note_on,,5,0,2,,,,,,,,,1,,,54,62
71584,note_on,,5,0,7,,,,,,,,,6,,,54,68
71584,note_on,,4,0,3,,,,,,,,,2,,,69,85
71584,note_on,,16,0,4,,,,,,,,,3,,,81,95
71586,note_on,,2,0,4,,,,,,,,,3,,,80,0
71595,note_on,,11,0,7,,,,,,,,,6,,,54,0
71595,note_on,,11,0,2,,,,,,,,,1,,,54,0
71596,note_on,,12,0,3,,,,,,,,,2,,,69,0
71596,note_on,,10,0,4,,,,,,,,,3,,,81,0
71598,note_on,,30,0,5,,,,,,,,,4,,,73,0
71600,note_on,,5,0,2,,,,,,,,,1,,,56,69
71600,note_on,,5,0,7,,,,,,,,,6,,,56,70
71600,note_on,,4,0,4,,,,,,,,,3,,,78,95
71600,note_on,,4,0,3,,,,,,,,,2,,,71,85
71604,note_on,,0,0,6,,,,,,,,,5,,,68,72
71604,note_on,,6,0,5,,,,,,,,,4,,,68,64
71604,note_on,,36,0,6,,,,,,,,,5,,,73,0
71611,note_on,,11,0,2,,,,,,,,,1,,,56,0
71611,note_on,,11,0,7,,,,,,,,,6,,,56,0
71612,note_on,,12,0,4,,,,,,,,,3,,,78,0
71612,note_on,,12,0,3,,,,,,,,,2,,,71,0
71614,note_on,,10,0,5,,,,,,,,,4,,,68,0
71616,note_on,,5,0,2,,,,,,,,,1,,,49,78
71616,note_on,,4,0,4,,,,,,,,,3,,,77,95
71616,note_on,,2,0,5,,,,,,,,,4,,,69,85
71616,note_on,,5,0,7,,,,,,,,,6,,,49,70
71616,note_on,,0,0,6,,,,,,,,,5,,,69,85
71616,note_on,,12,0,6,,,,,,,,,5,,,68,0
71616,note_on,,4,0,3,,,,,,,,,2,,,73,65
71628,note_on,,12,0,3,,,,,,,,,2,,,73,0
71628,note_on,,12,0,4,,,,,,,,,3,,,77,0
71629,note_on,,13,0,5,,,,,,,,,4,,,69,0
71632,note_on,,4,0,4,,,,,,,,,3,,,80,95
71632,note_on,,16,0,6,,,,,,,,,5,,,69,0
71632,note_on,,0,0,6,,,,,,,,,5,,,68,65
71632,note_on,,4,0,3,,,,,,,,,2,,,71,85
71632,note_on,,3,0,5,,,,,,,,,4,,,68,66
71644,note_on,,12,0,3,,,,,,,,,2,,,71,0
71644,note_on,,12,0,4,,,,,,,,,3,,,80,0
71645,note_on,,13,0,5,,,,,,,,,4,,,68,0
71648,note_on,,3,0,5,,,,,,,,,4,,,66,56
71648,note_on,,4,0,3,,,,,,,,,2,,,69,69
71648,note_on,,0,0,6,,,,,,,,,5,,,66,66
71648,note_on,,16,0,6,,,,,,,,,5,,,68,0
71648,note_on,,4,0,4,,,,,,,,,3,,,85,95
71660,note_on,,12,0,3,,,,,,,,,2,,,69,0
71660,note_on,,12,0,4,,,,,,,,,3,,,85,0
71661,note_on,,13,0,5,,,,,,,,,4,,,66,0
71664,note_on,,4,0,4,,,,,,,,,3,,,83,95
71664,note_on,,16,0,6,,,,,,,,,5,,,66,0
71664,note_on,,0,0,6,,,,,,,,,5,,,65,85
71664,note_on,,48,0,7,,,,,,,,,6,,,49,0
71664,note_on,,4,0,3,,,,,,,,,2,,,68,56
71664,note_on,,3,0,5,,,,,,,,,4,,,65,85
71665,note_on,,49,0,2,,,,,,,,,1,,,49,0
71676,note_on,,12,0,4,,,,,,,,,3,,,83,0
71676,note_on,,12,0,3,,,,,,,,,2,,,68,0
71677,note_on,,13,0,5,,,,,,,,,4,,,65,0
71680,note_on,,3,0,5,,,,,,,,,4,,,66,56
71680,note_on,,16,0,7,,,,,,,,,6,,,50,85
71680,note_on,,0,0,6,,,,,,,,,5,,,66,72
71680,note_on,,16,0,6,,,,,,,,,5,,,65,0
71680,note_on,,15,0,2,,,,,,,,,1,,,50,53
71680,note_on,,4,0,4,,,,,,,,,3,,,81,95
71680,note_on,,4,0,3,,,,,,,,,2,,,66,70
71691,note_on,,11,0,7,,,,,,,,,6,,,50,0
71691,note_on,,11,0,2,,,,,,,,,1,,,50,0
71692,note_on,,12,0,3,,,,,,,,,2,,,66,0
71692,note_on,,12,0,4,,,,,,,,,3,,,81,0
71693,note_on,,13,0,5,,,,,,,,,4,,,66,0
71696,note_on,,5,0,2,,,,,,,,,1,,,47,85
71696,note_on,,4,0,4,,,,,,,,,3,,,80,95
71696,note_on,,0,0,6,,,,,,,,,5,,,68,72
71696,note_on,,16,0,6,,,,,,,,,5,,,66,0
71696,note_on,,5,0,7,,,,,,,,,6,,,47,85
71696,note_on,,4,0,3,,,,,,,,,2,,,65,85
71696,note_on,,3,0,5,,,,,,,,,4,,,68,69
71707,note_on,,11,0,7,,,,,,,,,6,,,47,0
71707,note_on,,11,0,2,,,,,,,,,1,,,47,0
71708,note_on,,12,0,4,,,,,,,,,3,,,80,0
71708,note_on,,12,0,3,,,,,,,,,2,,,65,0
71709,note_on,,13,0,5,,,,,,,,,4,,,68,0
71712,note_on,,4,0,3,,,,,,,,,2,,,66,61
71712,note_on,,16,0,6,,,,,,,,,5,,,68,0
71712,note_on,,0,0,6,,,,,,,,,5,,,61,57
71712,note_on,,5,0,2,,,,,,,,,1,,,45,79
71712,note_on,,5,0,7,,,,,,,,,6,,,45,56
71712,note_on,,3,0,5,,,,,,,,,4,,,61,56
71712,note_on,,4,0,4,,,,,,,,,3,,,78,63
71712,note_on,,1904,0,8,,,,,,,,,7,,,30,78
71723,note_on,,11,0,2,,,,,,,,,1,,,45,0
71723,note_on,,11,0,7,,,,,,,,,6,,,45,0
71724,note_on,,12,0,3,,,,,,,,,2,,,66,0
71725,note_on,,13,0,5,,,,,,,,,4,,,61,0
71728,note_on,,5,0,7,,,,,,,,,6,,,44,74
71728,note_on,,4,0,3,,,,,,,,,2,,,73,66
71728,note_on,,3,0,5,,,,,,,,,4,,,66,65
71728,note_on,,16,0,8,,,,,,,,,7,,,30,0
71728,note_on,,5,0,2,,,,,,,,,1,,,44,56
71728,note_on,,16,0,6,,,,,,,,,5,,,61,0
71739,note_on,,11,0,2,,,,,,,,,1,,,44,0
71739,note_on,,11,0,7,,,,,,,,,6,,,44,0
71739,note_on,,27,0,4,,,,,,,,,3,,,78,0
71740,note_on,,12,0,3,,,,,,,,,2,,,73,0
71741,note_on,,13,0,5,,,,,,,,,4,,,66,0
71744,note_on,,5,0,7,,,,,,,,,6,,,42,76
71744,note_on,,5,0,2,,,,,,,,,1,,,42,70
71744,note_on,,4,0,3,,,,,,,,,2,,,78,62
71744,note_on,,3,0,5,,,,,,,,,4,,,69,85
71748,note_on,,9,0,4,,,,,,,,,3,,,73,63
71748,note_on,,312,0,1,,,,,,,,,0,,,73,52
71755,note_on,,11,0,7,,,,,,,,,6,,,42,0
71755,note_on,,11,0,2,,,,,,,,,1,,,42,0
71756,note_on,,12,0,3,,,,,,,,,2,,,78,0
71757,note_on,,13,0,5,,,,,,,,,4,,,69,0
71758,note_on,,10,0,1,,,,,,,,,0,,,73,0
71760,note_on,,32,0,6,,,,,,,,,5,,,57,85
71760,note_on,,2,0,1,,,,,,,,,0,,,78,68
71760,note_on,,0,0,4,,,,,,,,,3,,,73,63
71760,note_on,,12,0,4,,,,,,,,,3,,,73,0
71760,note_on,,4,0,3,,,,,,,,,2,,,78,67
71760,note_on,,3,0,5,,,,,,,,,4,,,69,85
71772,note_on,,12,0,4,,,,,,,,,3,,,73,0
71772,note_on,,12,0,3,,,,,,,,,2,,,78,0
71773,note_on,,13,0,5,,,,,,,,,4,,,69,0
71776,note_on,,4,0,4,,,,,,,,,3,,,71,63
71776,note_on,,16,0,6,,,,,,,,,5,,,57,0
71776,note_on,,3,0,5,,,,,,,,,4,,,68,56
71776,note_on,,4,0,3,,,,,,,,,2,,,77,85
71788,note_on,,12,0,4,,,,,,,,,3,,,71,0
71788,note_on,,12,0,3,,,,,,,,,2,,,77,0
71789,note_on,,13,0,5,,,,,,,,,4,,,68,0
71790,note_on,,30,0,1,,,,,,,,,0,,,78,0
71792,note_on,,4,0,3,,,,,,,,,2,,,78,64
71792,note_on,,3,0,5,,,,,,,,,4,,,69,85
71792,note_on,,4,0,4,,,,,,,,,3,,,73,63
71796,note_on,,6,0,1,,,,,,,,,0,,,73,60
71804,note_on,,12,0,3,,,,,,,,,2,,,78,0
71804,note_on,,12,0,4,,,,,,,,,3,,,73,0
71805,note_on,,13,0,5,,,,,,,,,4,,,69,0
71806,note_on,,10,0,1,,,,,,,,,0,,,73,0
71808,note_on,,80,0,8,,,,,,,,,7,,,30,77
71808,note_on,,3,0,5,,,,,,,,,4,,,61,56
71808,note_on,,53,0,7,,,,,,,,,6,,,42,88
71808,note_on,,53,0,2,,,,,,,,,1,,,42,72
71808,note_on,,4,0,3,,,,,,,,,2,,,69,85
71808,note_on,,4,0,4,,,,,,,,,3,,,66,63
71808,note_on,,2,0,1,,,,,,,,,0,,,74,85
71820,note_on,,12,0,4,,,,,,,,,3,,,66,0
71820,note_on,,12,0,3,,,,,,,,,2,,,69,0
71821,note_on,,13,0,5,,,,,,,,,4,,,61,0
71824,note_on,,16,0,7,,,,,,,,,6,,,42,0
71824,note_on,,4,0,4,,,,,,,,,3,,,69,63
71824,note_on,,16,0,8,,,,,,,,,7,,,30,0
71824,note_on,,16,0,2,,,,,,,,,1,,,42,0
71824,note_on,,3,0,5,,,,,,,,,4,,,66,65
71824,note_on,,4,0,3,,,,,,,,,2,,,73,67
71836,note_on,,12,0,4,,,,,,,,,3,,,69,0
71836,note_on,,12,0,3,,,,,,,,,2,,,73,0
71837,note_on,,13,0,5,,,,,,,,,4,,,66,0
71840,note_on,,4,0,4,,,,,,,,,3,,,73,63
71840,note_on,,3,0,5,,,,,,,,,4,,,69,85
71840,note_on,,4,0,3,,,,,,,,,2,,,78,70
71852,note_on,,12,0,4,,,,,,,,,3,,,73,0
71852,note_on,,12,0,3,,,,,,,,,2,,,78,0
71853,note_on,,13,0,5,,,,,,,,,4,,,69,0
71856,note_on,,80,0,6,,,,,,,,,5,,,57,85
71856,note_on,,4,0,4,,,,,,,,,3,,,73,63
71856,note_on,,4,0,3,,,,,,,,,2,,,78,66
71856,note_on,,3,0,5,,,,,,,,,4,,,69,85
71868,note_on,,12,0,4,,,,,,,,,3,,,73,0
71868,note_on,,12,0,3,,,,,,,,,2,,,78,0
71869,note_on,,13,0,5,,,,,,,,,4,,,69,0
71872,note_on,,4,0,4,,,,,,,,,3,,,71,63
71872,note_on,,3,0,5,,,,,,,,,4,,,68,56
71872,note_on,,16,0,6,,,,,,,,,5,,,57,0
71872,note_on,,4,0,3,,,,,,,,,2,,,77,85
71884,note_on,,12,0,4,,,,,,,,,3,,,71,0
71884,note_on,,12,0,3,,,,,,,,,2,,,77,0
71885,note_on,,13,0,5,,,,,,,,,4,,,68,0
71888,note_on,,4,0,4,,,,,,,,,3,,,73,63
71888,note_on,,3,0,5,,,,,,,,,4,,,69,85
71888,note_on,,4,0,3,,,,,,,,,2,,,78,64
71900,note_on,,12,0,4,,,,,,,,,3,,,73,0
71900,note_on,,12,0,3,,,,,,,,,2,,,78,0
71901,note_on,,13,0,5,,,,,,,,,4,,,69,0
71904,note_on,,4,0,4,,,,,,,,,3,,,66,63
71904,note_on,,80,0,7,,,,,,,,,6,,,42,88
71904,note_on,,3,0,5,,,,,,,,,4,,,62,70
71904,note_on,,80,0,2,,,,,,,,,1,,,42,66
71904,note_on,,4,0,3,,,,,,,,,2,,,71,66
71904,note_on,,80,0,8,,,,,,,,,7,,,30,77
71916,note_on,,12,0,3,,,,,,,,,2,,,71,0
71916,note_on,,12,0,4,,,,,,,,,3,,,66,0
71917,note_on,,13,0,5,,,,,,,,,4,,,62,0
71920,note_on,,4,0,4,,,,,,,,,3,,,70,63
71920,note_on,,16,0,2,,,,,,,,,1,,,42,0
71920,note_on,,4,0,3,,,,,,,,,2,,,73,65
71920,note_on,,16,0,7,,,,,,,,,6,,,42,0
71920,note_on,,3,0,5,,,,,,,,,4,,,65,85
71920,note_on,,16,0,8,,,,,,,,,7,,,30,0
71928,note_on,,120,0,1,,,,,,,,,0,,,74,0
71932,note_on,,12,0,4,,,,,,,,,3,,,70,0
71932,note_on,,12,0,3,,,,,,,,,2,,,73,0
71933,note_on,,13,0,5,,,,,,,,,4,,,65,0
71936,note_on,,4,0,4,,,,,,,,,3,,,71,63
71936,note_on,,3,0,5,,,,,,,,,4,,,66,62
71936,note_on,,4,0,3,,,,,,,,,2,,,74,85
71940,note_on,,12,0,1,,,,,,,,,0,,,74,33
71948,note_on,,12,0,4,,,,,,,,,3,,,71,0
71948,note_on,,12,0,3,,,,,,,,,2,,,74,0
71949,note_on,,13,0,5,,,,,,,,,4,,,66,0
71952,note_on,,12,0,1,,,,,,,,,0,,,74,0
71952,note_on,,4,0,3,,,,,,,,,2,,,71,59
71952,note_on,,4,0,4,,,,,,,,,3,,,71,85
71952,note_on,,3,0,5,,,,,,,,,4,,,68,59
71952,note_on,,0,0,1,,,,,,,,,0,,,76,85
71952,note_on,,80,0,6,,,,,,,,,5,,,57,85
71964,note_on,,12,0,3,,,,,,,,,2,,,71,0
71964,note_on,,12,0,4,,,,,,,,,3,,,71,0
71965,note_on,,13,0,5,,,,,,,,,4,,,68,0
71965,note_on,,13,0,1,,,,,,,,,0,,,76,0
71968,note_on,,16,0,6,,,,,,,,,5,,,57,0
71968,note_on,,4,0,3,,,,,,,,,2,,,73,56
71968,note_on,,4,0,4,,,,,,,,,3,,,70,66
71968,note_on,,3,0,1,,,,,,,,,0,,,73,66
71968,note_on,,3,0,5,,,,,,,,,4,,,65,85
71980,note_on,,12,0,3,,,,,,,,,2,,,73,0
71980,note_on,,12,0,4,,,,,,,,,3,,,70,0
71981,note_on,,13,0,1,,,,,,,,,0,,,73,0
71981,note_on,,13,0,5,,,,,,,,,4,,,65,0
71984,note_on,,3,0,1,,,,,,,,,0,,,74,85
71984,note_on,,4,0,4,,,,,,,,,3,,,71,85
71984,note_on,,3,0,5,,,,,,,,,4,,,66,56
71984,note_on,,4,0,3,,,,,,,,,2,,,69,85
71996,note_on,,12,0,3,,,,,,,,,2,,,69,0
71996,note_on,,12,0,4,,,,,,,,,3,,,71,0
71997,note_on,,13,0,5,,,,,,,,,4,,,66,0
71997,note_on,,13,0,1,,,,,,,,,0,,,74,0
72000,note_on,,4,0,4,,,,,,,,,3,,,65,85
72000,note_on,,80,0,7,,,,,,,,,6,,,42,88
72000,note_on,,4,0,3,,,,,,,,,2,,,68,72
72000,note_on,,80,0,2,,,,,,,,,1,,,42,66
72000,note_on,,3,0,1,,,,,,,,,0,,,73,67
72000,note_on,,3,0,5,,,,,,,,,4,,,59,85
72000,note_on,,80,0,8,,,,,,,,,7,,,30,77
72012,note_on,,12,0,4,,,,,,,,,3,,,65,0
72012,note_on,,12,0,3,,,,,,,,,2,,,68,0
72013,note_on,,13,0,5,,,,,,,,,4,,,59,0
72016,note_on,,16,0,2,,,,,,,,,1,,,42,0
72016,note_on,,16,0,8,,,,,,,,,7,,,30,0
72016,note_on,,4,0,3,,,,,,,,,2,,,71,85
72016,note_on,,3,0,5,,,,,,,,,4,,,65,85
72016,note_on,,16,0,7,,,,,,,,,6,,,42,0
72016,note_on,,4,0,4,,,,,,,,,3,,,68,66
72028,note_on,,12,0,3,,,,,,,,,2,,,71,0
72028,note_on,,12,0,4,,,,,,,,,3,,,68,0
72029,note_on,,13,0,5,,,,,,,,,4,,,65,0
72032,note_on,,4,0,3,,,,,,,,,2,,,77,85
72032,note_on,,4,0,4,,,,,,,,,3,,,71,85
72032,note_on,,3,0,5,,,,,,,,,4,,,68,65
72044,note_on,,12,0,3,,,,,,,,,2,,,77,0
72044,note_on,,12,0,4,,,,,,,,,3,,,71,0
72045,note_on,,13,0,5,,,,,,,,,4,,,68,0
72048,note_on,,4,0,3,,,,,,,,,2,,,77,85
72048,note_on,,80,0,6,,,,,,,,,5,,,57,85
72048,note_on,,4,0,4,,,,,,,,,3,,,71,85
72048,note_on,,3,0,5,,,,,,,,,4,,,68,62
72060,note_on,,12,0,3,,,,,,,,,2,,,77,0
72060,note_on,,12,0,4,,,,,,,,,3,,,71,0
72061,note_on,,13,0,5,,,,,,,,,4,,,68,0
72064,note_on,,3,0,5,,,,,,,,,4,,,66,61
72064,note_on,,4,0,4,,,,,,,,,3,,,69,85
72064,note_on,,16,0,6,,,,,,,,,5,,,57,0
72064,note_on,,4,0,3,,,,,,,,,2,,,75,65
72076,note_on,,12,0,4,,,,,,,,,3,,,69,0
72076,note_on,,12,0,3,,,,,,,,,2,,,75,0
72077,note_on,,13,0,5,,,,,,,,,4,,,66,0
72080,note_on,,3,0,5,,,,,,,,,4,,,68,65
72080,note_on,,4,0,4,,,,,,,,,3,,,71,85
72080,note_on,,4,0,3,,,,,,,,,2,,,77,85
72092,note_on,,12,0,4,,,,,,,,,3,,,71,0
72092,note_on,,12,0,3,,,,,,,,,2,,,77,0
72093,note_on,,13,0,5,,,,,,,,,4,,,68,0
72096,note_on,,80,0,2,,,,,,,,,1,,,42,66
72096,note_on,,80,0,8,,,,,,,,,7,,,30,77
72096,note_on,,80,0,7,,,,,,,,,6,,,42,88
72096,note_on,,3,0,5,,,,,,,,,4,,,61,56
72096,note_on,,4,0,3,,,,,,,,,2,,,69,85
72096,note_on,,4,0,4,,,,,,,,,3,,,66,57
72108,note_on,,12,0,3,,,,,,,,,2,,,69,0
72108,note_on,,12,0,4,,,,,,,,,3,,,66,0
72109,note_on,,13,0,5,,,,,,,,,4,,,61,0
72112,note_on,,3,0,5,,,,,,,,,4,,,66,66
72112,note_on,,16,0,2,,,,,,,,,1,,,42,0
72112,note_on,,16,0,8,,,,,,,,,7,,,30,0
72112,note_on,,16,0,7,,,,,,,,,6,,,42,0
72112,note_on,,4,0,4,,,,,,,,,3,,,69,85
72112,note_on,,4,0,3,,,,,,,,,2,,,73,64
72120,note_on,,120,0,1,,,,,,,,,0,,,73,0
72124,note_on,,12,0,4,,,,,,,,,3,,,69,0
72124,note_on,,12,0,3,,,,,,,,,2,,,73,0
72125,note_on,,13,0,5,,,,,,,,,4,,,66,0
72128,note_on,,3,0,5,,,,,,,,,4,,,69,85
72128,note_on,,4,0,3,,,,,,,,,2,,,78,70
72128,note_on,,4,0,4,,,,,,,,,3,,,73,67
72132,note_on,,12,0,1,,,,,,,,,0,,,73,79
72140,note_on,,12,0,4,,,,,,,,,3,,,73,0
72140,note_on,,12,0,3,,,,,,,,,2,,,78,0
72141,note_on,,13,0,5,,,,,,,,,4,,,69,0
72142,note_on,,10,0,1,,,,,,,,,0,,,73,0
72144,note_on,,2,0,1,,,,,,,,,0,,,78,68
72144,note_on,,4,0,4,,,,,,,,,3,,,73,70
72144,note_on,,3,0,5,,,,,,,,,4,,,69,85
72144,note_on,,4,0,3,,,,,,,,,2,,,78,66
72144,note_on,,80,0,6,,,,,,,,,5,,,57,85
72156,note_on,,12,0,4,,,,,,,,,3,,,73,0
72156,note_on,,12,0,3,,,,,,,,,2,,,78,0
72157,note_on,,13,0,5,,,,,,,,,4,,,69,0
72160,note_on,,3,0,5,,,,,,,,,4,,,68,62
72160,note_on,,16,0,6,,,,,,,,,5,,,57,0
72160,note_on,,4,0,4,,,,,,,,,3,,,71,85
72160,note_on,,4,0,3,,,,,,,,,2,,,77,85
72172,note_on,,12,0,3,,,,,,,,,2,,,77,0
72172,note_on,,12,0,4,,,,,,,,,3,,,71,0
72173,note_on,,13,0,5,,,,,,,,,4,,,68,0
72174,note_on,,30,0,1,,,,,,,,,0,,,78,0
72176,note_on,,4,0,3,,,,,,,,,2,,,78,65
72176,note_on,,3,0,5,,,,,,,,,4,,,69,85
72176,note_on,,4,0,4,,,,,,,,,3,,,73,67
72180,note_on,,6,0,1,,,,,,,,,0,,,74,85
72188,note_on,,12,0,4,,,,,,,,,3,,,73,0
72188,note_on,,12,0,3,,,,,,,,,2,,,78,0
72189,note_on,,13,0,5,,,,,,,,,4,,,69,0
72190,note_on,,10,0,1,,,,,,,,,0,,,74,0
72192,note_on,,80,0,8,,,,,,,,,7,,,30,77
72192,note_on,,80,0,7,,,,,,,,,6,,,42,88
72192,note_on,,4,0,4,,,,,,,,,3,,,65,85
72192,note_on,,3,0,5,,,,,,,,,4,,,59,77
72192,note_on,,80,0,2,,,,,,,,,1,,,42,72
72192,note_on,,4,0,3,,,,,,,,,2,,,74,85
72192,note_on,,2,0,1,,,,,,,,,0,,,71,62
72195,note_on,,3,0,1,,,,,,,,,0,,,71,0
72196,note_on,,1,0,1,,,,,,,,,0,,,73,64
72199,note_on,,3,0,1,,,,,,,,,0,,,73,0
72200,note_on,,1,0,1,,,,,,,,,0,,,71,81
72203,note_on,,3,0,1,,,,,,,,,0,,,71,0
72204,note_on,,12,0,3,,,,,,,,,2,,,74,0
72204,note_on,,12,0,4,,,,,,,,,3,,,65,0
72204,note_on,,1,0,1,,,,,,,,,0,,,73,64
72205,note_on,,13,0,5,,,,,,,,,4,,,59,0
72207,note_on,,3,0,1,,,,,,,,,0,,,73,0
72208,note_on,,1,0,1,,,,,,,,,0,,,71,85
72208,note_on,,3,0,5,,,,,,,,,4,,,62,85
72208,note_on,,16,0,8,,,,,,,,,7,,,30,0
72208,note_on,,16,0,2,,,,,,,,,1,,,42,0
72208,note_on,,4,0,4,,,,,,,,,3,,,71,85
72208,note_on,,4,0,3,,,,,,,,,2,,,71,85
72208,note_on,,16,0,7,,,,,,,,,6,,,42,0
72211,note_on,,3,0,1,,,,,,,,,0,,,71,0
72212,note_on,,1,0,1,,,,,,,,,0,,,73,65
72215,note_on,,3,0,1,,,,,,,,,0,,,73,0
72216,note_on,,1,0,1,,,,,,,,,0,,,71,85
72219,note_on,,3,0,1,,,,,,,,,0,,,71,0
72220,note_on,,12,0,4,,,,,,,,,3,,,71,0
72220,note_on,,1,0,1,,,,,,,,,0,,,73,64
72220,note_on,,12,0,3,,,,,,,,,2,,,71,0
72221,note_on,,13,0,5,,,,,,,,,4,,,62,0
72223,note_on,,3,0,1,,,,,,,,,0,,,73,0
72224,note_on,,4,0,3,,,,,,,,,2,,,68,61
72224,note_on,,4,0,4,,,,,,,,,3,,,74,85
72224,note_on,,1,0,1,,,,,,,,,0,,,71,69
72224,note_on,,3,0,5,,,,,,,,,4,,,68,56
72227,note_on,,3,0,1,,,,,,,,,0,,,71,0
72228,note_on,,1,0,1,,,,,,,,,0,,,73,43
72231,note_on,,3,0,1,,,,,,,,,0,,,73,0
72232,note_on,,1,0,1,,,,,,,,,0,,,71,85
72235,note_on,,3,0,1,,,,,,,,,0,,,71,0
72236,note_on,,12,0,4,,,,,,,,,3,,,74,0
72236,note_on,,1,0,1,,,,,,,,,0,,,73,55
72236,note_on,,12,0,3,,,,,,,,,2,,,68,0
72237,note_on,,13,0,5,,,,,,,,,4,,,68,0
72239,note_on,,3,0,1,,,,,,,,,0,,,73,0
72240,note_on,,80,0,6,,,,,,,,,5,,,57,85
72240,note_on,,3,0,5,,,,,,,,,4,,,68,66
72240,note_on,,1,0,1,,,,,,,,,0,,,71,85
72240,note_on,,4,0,3,,,,,,,,,2,,,65,85
72240,note_on,,4,0,4,,,,,,,,,3,,,74,85
72243,note_on,,3,0,1,,,,,,,,,0,,,71,0
72244,note_on,,1,0,1,,,,,,,,,0,,,73,67
72247,note_on,,3,0,1,,,,,,,,,0,,,73,0
72248,note_on,,1,0,1,,,,,,,,,0,,,71,85
72251,note_on,,3,0,1,,,,,,,,,0,,,71,0
72252,note_on,,12,0,4,,,,,,,,,3,,,74,0
72252,note_on,,12,0,3,,,,,,,,,2,,,65,0
72252,note_on,,1,0,1,,,,,,,,,0,,,73,72
72253,note_on,,13,0,5,,,,,,,,,4,,,68,0
72255,note_on,,3,0,1,,,,,,,,,0,,,73,0
72256,note_on,,1,0,1,,,,,,,,,0,,,71,85
72256,note_on,,4,0,4,,,,,,,,,3,,,73,70
72256,note_on,,3,0,5,,,,,,,,,4,,,65,79
72256,note_on,,4,0,3,,,,,,,,,2,,,68,62
72256,note_on,,16,0,6,,,,,,,,,5,,,57,0
72259,note_on,,3,0,1,,,,,,,,,0,,,71,0
72260,note_on,,1,0,1,,,,,,,,,0,,,73,82
72263,note_on,,3,0,1,,,,,,,,,0,,,73,0
72264,note_on,,1,0,1,,,,,,,,,0,,,71,85
72267,note_on,,3,0,1,,,,,,,,,0,,,71,0
72268,note_on,,12,0,4,,,,,,,,,3,,,73,0
72268,note_on,,1,0,1,,,,,,,,,0,,,73,81
72268,note_on,,12,0,3,,,,,,,,,2,,,68,0
72269,note_on,,13,0,5,,,,,,,,,4,,,65,0
72271,note_on,,3,0,1,,,,,,,,,0,,,73,0
72272,note_on,,4,0,4,,,,,,,,,3,,,74,85
72272,note_on,,4,0,3,,,,,,,,,2,,,66,56
72272,note_on,,1,0,1,,,,,,,,,0,,,71,85
72272,note_on,,3,0,5,,,,,,,,,4,,,66,62
72275,note_on,,3,0,1,,,,,,,,,0,,,71,0
72276,note_on,,1,0,1,,,,,,,,,0,,,73,81
72279,note_on,,3,0,1,,,,,,,,,0,,,73,0
72280,note_on,,1,0,1,,,,,,,,,0,,,71,85
72283,note_on,,3,0,1,,,,,,,,,0,,,71,0
72284,note_on,,12,0,4,,,,,,,,,3,,,74,0
72284,note_on,,1,0,1,,,,,,,,,0,,,73,86
72284,note_on,,12,0,3,,,,,,,,,2,,,66,0
72285,note_on,,13,0,5,,,,,,,,,4,,,66,0
72287,note_on,,3,0,1,,,,,,,,,0,,,73,0
72288,note_on,,1,0,1,,,,,,,,,0,,,71,95
72288,note_on,,80,0,8,,,,,,,,,7,,,30,77
72288,note_on,,80,0,7,,,,,,,,,6,,,42,88
72288,note_on,,4,0,4,,,,,,,,,3,,,65,85
72288,note_on,,3,0,5,,,,,,,,,4,,,68,59
72288,note_on,,4,0,3,,,,,,,,,2,,,65,84
72288,note_on,,80,0,2,,,,,,,,,1,,,42,71
72300,note_on,,12,0,3,,,,,,,,,2,,,65,0
72300,note_on,,12,0,4,,,,,,,,,3,,,65,0
72301,note_on,,13,0,1,,,,,,,,,0,,,71,0
72301,note_on,,13,0,5,,,,,,,,,4,,,68,0
72304,note_on,,3,0,5,,,,,,,,,4,,,65,85
72304,note_on,,3,0,1,,,,,,,,,0,,,73,95
72304,note_on,,16,0,8,,,,,,,,,7,,,30,0
72304,note_on,,16,0,7,,,,,,,,,6,,,42,0
72304,note_on,,4,0,4,,,,,,,,,3,,,61,55
72304,note_on,,16,0,2,,,,,,,,,1,,,42,0
72304,note_on,,4,0,3,,,,,,,,,2,,,68,67
72316,note_on,,12,0,4,,,,,,,,,3,,,61,0
72316,note_on,,12,0,3,,,,,,,,,2,,,68,0
72317,note_on,,13,0,1,,,,,,,,,0,,,73,0
72317,note_on,,13,0,5,,,,,,,,,4,,,65,0
72320,note_on,,4,0,3,,,,,,,,,2,,,66,60
72320,note_on,,3,0,5,,,,,,,,,4,,,66,62
72320,note_on,,3,0,1,,,,,,,,,0,,,74,95
72320,note_on,,4,0,4,,,,,,,,,3,,,71,85
72332,note_on,,12,0,4,,,,,,,,,3,,,71,0
72332,note_on,,12,0,3,,,,,,,,,2,,,66,0
72333,note_on,,13,0,1,,,,,,,,,0,,,74,0
72333,note_on,,13,0,5,,,,,,,,,4,,,66,0
72336,note_on,,4,0,4,,,,,,,,,3,,,69,77
72336,note_on,,4,0,3,,,,,,,,,2,,,65,85
72336,note_on,,3,0,1,,,,,,,,,0,,,73,95
72336,note_on,,80,0,6,,,,,,,,,5,,,57,85
72336,note_on,,3,0,5,,,,,,,,,4,,,61,59
72348,note_on,,12,0,3,,,,,,,,,2,,,65,0
72348,note_on,,12,0,4,,,,,,,,,3,,,69,0
72349,note_on,,13,0,1,,,,,,,,,0,,,73,0
72349,note_on,,13,0,5,,,,,,,,,4,,,61,0
72352,note_on,,3,0,1,,,,,,,,,0,,,74,95
72352,note_on,,16,0,6,,,,,,,,,5,,,57,0
72352,note_on,,4,0,3,,,,,,,,,2,,,66,62
72352,note_on,,4,0,4,,,,,,,,,3,,,71,85
72352,note_on,,3,0,5,,,,,,,,,4,,,66,66
72364,note_on,,12,0,4,,,,,,,,,3,,,71,0
72364,note_on,,12,0,3,,,,,,,,,2,,,66,0
72365,note_on,,13,0,5,,,,,,,,,4,,,66,0
72365,note_on,,13,0,1,,,,,,,,,0,,,74,0
72368,note_on,,4,0,3,,,,,,,,,2,,,68,69
72368,note_on,,3,0,5,,,,,,,,,4,,,65,85
72368,note_on,,4,0,4,,,,,,,,,3,,,68,66
72368,note_on,,3,0,1,,,,,,,,,0,,,71,95
72380,note_on,,12,0,4,,,,,,,,,3,,,68,0
72380,note_on,,12,0,3,,,,,,,,,2,,,68,0
72381,note_on,,13,0,5,,,,,,,,,4,,,65,0
72381,note_on,,13,0,1,,,,,,,,,0,,,71,0
72384,note_on,,80,0,8,,,,,,,,,7,,,30,77
72384,note_on,,80,0,2,,,,,,,,,1,,,42,70
72384,note_on,,3,0,5,,,,,,,,,4,,,66,70
72384,note_on,,4,0,3,,,,,,,,,2,,,69,85
72384,note_on,,80,0,7,,,,,,,,,6,,,42,88
72384,note_on,,3,0,1,,,,,,,,,0,,,69,95
72384,note_on,,4,0,4,,,,,,,,,3,,,66,81
72397,note_on,,13,0,1,,,,,,,,,0,,,69,0
72400,note_on,,3,0,1,,,,,,,,,0,,,66,95
72400,note_on,,16,0,7,,,,,,,,,6,,,42,0
72400,note_on,,16,0,8,,,,,,,,,7,,,30,0
72402,note_on,,18,0,3,,,,,,,,,2,,,69,0
72402,note_on,,18,0,4,,,,,,,,,3,,,66,0
72403,note_on,,19,0,5,,,,,,,,,4,,,66,0
72408,note_on,,24,0,2,,,,,,,,,1,,,42,0
72413,note_on,,13,0,1,,,,,,,,,0,,,66,0
72416,note_on,,3,0,1,,,,,,,,,0,,,68,95
72420,note_on,,12,0,2,,,,,,,,,1,,,49,60
72428,note_on,,8,0,2,,,,,,,,,1,,,49,0
72429,note_on,,13,0,1,,,,,,,,,0,,,68,0
72432,note_on,,80,0,6,,,,,,,,,5,,,57,85
72432,note_on,,4,0,2,,,,,,,,,1,,,54,66
72432,note_on,,3,0,1,,,,,,,,,0,,,69,95
72443,note_on,,11,0,2,,,,,,,,,1,,,54,0
72445,note_on,,13,0,1,,,,,,,,,0,,,69,0
72448,note_on,,3,0,1,,,,,,,,,0,,,73,95
72448,note_on,,5,0,2,,,,,,,,,1,,,57,81
72456,note_on,,24,0,6,,,,,,,,,5,,,57,0
72459,note_on,,11,0,2,,,,,,,,,1,,,57,0
72461,note_on,,13,0,1,,,,,,,,,0,,,73,0
72464,note_on,,5,0,2,,,,,,,,,1,,,56,66
72464,note_on,,3,0,1,,,,,,,,,0,,,71,95
72475,note_on,,11,0,2,,,,,,,,,1,,,56,0
72477,note_on,,13,0,1,,,,,,,,,0,,,71,0
72480,note_on,,3,0,1,,,,,,,,,0,,,73,95
72480,note_on,,5,0,2,,,,,,,,,1,,,57,85
72496,note_on,,16,0,2,,,,,,,,,1,,,57,0
72496,note_on,,94,0,3,,,,,,,,,2,,,69,95
72496,note_on,,94,0,4,,,,,,,,,3,,,66,62
72500,note_on,,20,0,1,,,,,,,,,0,,,73,0
72508,note_on,,12,0,4,,,,,,,,,3,,,66,0
72508,note_on,,12,0,3,,,,,,,,,2,,,69,0
72512,note_on,,4,0,3,,,,,,,,,2,,,71,95
72512,note_on,,4,0,4,,,,,,,,,3,,,68,70
72524,note_on,,12,0,3,,,,,,,,,2,,,71,0
72524,note_on,,12,0,4,,,,,,,,,3,,,68,0
72528,note_on,,72,0,6,,,,,,,,,5,,,66,74
72528,note_on,,4,0,3,,,,,,,,,2,,,73,95
72528,note_on,,4,0,4,,,,,,,,,3,,,69,85
72528,note_on,,125,0,5,,,,,,,,,4,,,69,85
72540,note_on,,12,0,4,,,,,,,,,3,,,69,0
72540,note_on,,12,0,3,,,,,,,,,2,,,73,0
72544,note_on,,16,0,6,,,,,,,,,5,,,66,0
72544,note_on,,4,0,3,,,,,,,,,2,,,76,95
72544,note_on,,4,0,4,,,,,,,,,3,,,73,64
72547,note_on,,19,0,5,,,,,,,,,4,,,69,0
72556,note_on,,12,0,4,,,,,,,,,3,,,73,0
72556,note_on,,12,0,3,,,,,,,,,2,,,76,0
72560,note_on,,4,0,4,,,,,,,,,3,,,71,85
72560,note_on,,4,0,3,,,,,,,,,2,,,74,95
72572,note_on,,12,0,3,,,,,,,,,2,,,74,0
72572,note_on,,12,0,4,,,,,,,,,3,,,71,0
72576,note_on,,29,0,5,,,,,,,,,4,,,68,70
72576,note_on,,4,0,3,,,,,,,,,2,,,76,95
72576,note_on,,32,0,6,,,,,,,,,5,,,61,72
72576,note_on,,4,0,4,,,,,,,,,3,,,73,67
72592,note_on,,96,0,2,,,,,,,,,1,,,49,66
72592,note_on,,16,0,6,,,,,,,,,5,,,61,0
72592,note_on,,92,0,1,,,,,,,,,0,,,64,95
72594,note_on,,18,0,3,,,,,,,,,2,,,76,0
72594,note_on,,18,0,4,,,,,,,,,3,,,73,0
72595,note_on,,19,0,5,,,,,,,,,4,,,68,0
72603,note_on,,11,0,2,,,,,,,,,1,,,49,0
72605,note_on,,13,0,1,,,,,,,,,0,,,64,0
72608,note_on,,5,0,2,,,,,,,,,1,,,50,85
72608,note_on,,3,0,1,,,,,,,,,0,,,66,95
72619,note_on,,11,0,2,,,,,,,,,1,,,50,0
72621,note_on,,13,0,1,,,,,,,,,0,,,66,0
72624,note_on,,5,0,2,,,,,,,,,1,,,52,85
72624,note_on,,3,0,1,,,,,,,,,0,,,68,95
72635,note_on,,11,0,2,,,,,,,,,1,,,52,0
72637,note_on,,13,0,1,,,,,,,,,0,,,68,0
72640,note_on,,3,0,1,,,,,,,,,0,,,71,95
72640,note_on,,5,0,2,,,,,,,,,1,,,56,59
72651,note_on,,11,0,2,,,,,,,,,1,,,56,0
72653,note_on,,13,0,1,,,,,,,,,0,,,71,0
72656,note_on,,3,0,1,,,,,,,,,0,,,69,95
72656,note_on,,5,0,2,,,,,,,,,1,,,54,66
72667,note_on,,11,0,2,,,,,,,,,1,,,54,0
72669,note_on,,13,0,1,,,,,,,,,0,,,69,0
72672,note_on,,5,0,2,,,,,,,,,1,,,56,66
72672,note_on,,3,0,1,,,,,,,,,0,,,71,95
72688,note_on,,16,0,2,,,,,,,,,1,,,56,0
72688,note_on,,94,0,4,,,,,,,,,3,,,64,62
72688,note_on,,94,0,3,,,,,,,,,2,,,68,95
72692,note_on,,20,0,1,,,,,,,,,0,,,71,0
72700,note_on,,12,0,3,,,,,,,,,2,,,68,0
72700,note_on,,12,0,4,,,,,,,,,3,,,64,0
72704,note_on,,4,0,3,,,,,,,,,2,,,69,95
72704,note_on,,4,0,4,,,,,,,,,3,,,66,67
72716,note_on,,12,0,4,,,,,,,,,3,,,66,0
72716,note_on,,12,0,3,,,,,,,,,2,,,69,0
72720,note_on,,4,0,4,,,,,,,,,3,,,68,56
72720,note_on,,125,0,5,,,,,,,,,4,,,68,70
72720,note_on,,4,0,3,,,,,,,,,2,,,71,95
72720,note_on,,128,0,6,,,,,,,,,5,,,64,85
72732,note_on,,12,0,4,,,,,,,,,3,,,68,0
72732,note_on,,12,0,3,,,,,,,,,2,,,71,0
72736,note_on,,4,0,4,,,,,,,,,3,,,71,79
72736,note_on,,4,0,3,,,,,,,,,2,,,74,95
72736,note_on,,16,0,6,,,,,,,,,5,,,64,0
72739,note_on,,19,0,5,,,,,,,,,4,,,68,0
72748,note_on,,12,0,3,,,,,,,,,2,,,74,0
72748,note_on,,12,0,4,,,,,,,,,3,,,71,0
72752,note_on,,4,0,3,,,,,,,,,2,,,73,95
72752,note_on,,4,0,4,,,,,,,,,3,,,69,85
72764,note_on,,12,0,4,,,,,,,,,3,,,69,0
72764,note_on,,12,0,3,,,,,,,,,2,,,73,0
72768,note_on,,4,0,4,,,,,,,,,3,,,71,84
72768,note_on,,32,0,6,,,,,,,,,5,,,59,85
72768,note_on,,29,0,5,,,,,,,,,4,,,66,68
72768,note_on,,4,0,3,,,,,,,,,2,,,74,95
72773,note_on,,5,0,3,,,,,,,,,2,,,74,0
72773,note_on,,5,0,4,,,,,,,,,3,,,71,0
72774,note_on,,1,0,4,,,,,,,,,3,,,73,60
72774,note_on,,1,0,3,,,,,,,,,2,,,76,95
72779,note_on,,5,0,3,,,,,,,,,2,,,76,0
72779,note_on,,5,0,4,,,,,,,,,3,,,73,0
72780,note_on,,1,0,3,,,,,,,,,2,,,74,95
72780,note_on,,1,0,4,,,,,,,,,3,,,71,85
72784,note_on,,96,0,2,,,,,,,,,1,,,47,85
72784,note_on,,16,0,6,,,,,,,,,5,,,59,0
72784,note_on,,92,0,1,,,,,,,,,0,,,62,85
72785,note_on,,5,0,3,,,,,,,,,2,,,74,0
72785,note_on,,5,0,4,,,,,,,,,3,,,71,0
72786,note_on,,1,0,4,,,,,,,,,3,,,73,65
72786,note_on,,1,0,3,,,,,,,,,2,,,76,95
72787,note_on,,19,0,5,,,,,,,,,4,,,66,0
72791,note_on,,5,0,4,,,,,,,,,3,,,73,0
72791,note_on,,5,0,3,,,,,,,,,2,,,76,0
72792,note_on,,1,0,4,,,,,,,,,3,,,71,85
72792,note_on,,1,0,3,,,,,,,,,2,,,74,95
72795,note_on,,11,0,2,,,,,,,,,1,,,47,0
72797,note_on,,5,0,3,,,,,,,,,2,,,74,0
72797,note_on,,5,0,4,,,,,,,,,3,,,71,0
72797,note_on,,13,0,1,,,,,,,,,0,,,62,0
72798,note_on,,1,0,3,,,,,,,,,2,,,76,95
72798,note_on,,1,0,4,,,,,,,,,3,,,73,60
72800,note_on,,3,0,1,,,,,,,,,0,,,64,85
72800,note_on,,5,0,2,,,,,,,,,1,,,49,62
72803,note_on,,5,0,4,,,,,,,,,3,,,73,0
72803,note_on,,5,0,3,,,,,,,,,2,,,76,0
72804,note_on,,1,0,4,,,,,,,,,3,,,71,69
72804,note_on,,1,0,3,,,,,,,,,2,,,74,95
72809,note_on,,5,0,3,,,,,,,,,2,,,74,0
72809,note_on,,5,0,4,,,,,,,,,3,,,71,0
72810,note_on,,1,0,4,,,,,,,,,3,,,73,68
72810,note_on,,1,0,3,,,,,,,,,2,,,76,95
72811,note_on,,11,0,2,,,,,,,,,1,,,49,0
72813,note_on,,13,0,1,,,,,,,,,0,,,64,0
72815,note_on,,5,0,3,,,,,,,,,2,,,76,0
72815,note_on,,5,0,4,,,,,,,,,3,,,73,0
72816,note_on,,5,0,2,,,,,,,,,1,,,50,85
72816,note_on,,1,0,4,,,,,,,,,3,,,71,85
72816,note_on,,3,0,1,,,,,,,,,0,,,66,60
72816,note_on,,1,0,3,,,,,,,,,2,,,74,95
72821,note_on,,5,0,4,,,,,,,,,3,,,71,0
72821,note_on,,5,0,3,,,,,,,,,2,,,74,0
72822,note_on,,1,0,4,,,,,,,,,3,,,73,65
72822,note_on,,1,0,3,,,,,,,,,2,,,76,95
72827,note_on,,11,0,2,,,,,,,,,1,,,50,0
72827,note_on,,5,0,3,,,,,,,,,2,,,76,0
72827,note_on,,5,0,4,,,,,,,,,3,,,73,0
72828,note_on,,1,0,4,,,,,,,,,3,,,71,85
72828,note_on,,1,0,3,,,,,,,,,2,,,74,95
72829,note_on,,13,0,1,,,,,,,,,0,,,66,0
72832,note_on,,3,0,1,,,,,,,,,0,,,69,85
72832,note_on,,5,0,2,,,,,,,,,1,,,54,59
72833,note_on,,5,0,4,,,,,,,,,3,,,71,0
72833,note_on,,5,0,3,,,,,,,,,2,,,74,0
72834,note_on,,1,0,4,,,,,,,,,3,,,73,60
72834,note_on,,1,0,3,,,,,,,,,2,,,76,95
72839,note_on,,5,0,4,,,,,,,,,3,,,73,0
72839,note_on,,5,0,3,,,,,,,,,2,,,76,0
72840,note_on,,1,0,3,,,,,,,,,2,,,74,95
72840,note_on,,1,0,4,,,,,,,,,3,,,71,69
72843,note_on,,11,0,2,,,,,,,,,1,,,54,0
72845,note_on,,5,0,4,,,,,,,,,3,,,71,0
72845,note_on,,13,0,1,,,,,,,,,0,,,69,0
72846,note_on,,1,0,4,,,,,,,,,3,,,73,68
72848,note_on,,3,0,1,,,,,,,,,0,,,68,65
72848,note_on,,5,0,2,,,,,,,,,1,,,53,85
72851,note_on,,5,0,4,,,,,,,,,3,,,73,0
72852,note_on,,1,0,4,,,,,,,,,3,,,71,72
72859,note_on,,11,0,2,,,,,,,,,1,,,53,0
72861,note_on,,13,0,1,,,,,,,,,0,,,68,0
72864,note_on,,12,0,4,,,,,,,,,3,,,71,0
72864,note_on,,5,0,2,,,,,,,,,1,,,54,60
72864,note_on,,0,0,3,,,,,,,,,2,,,73,95
72864,note_on,,24,0,3,,,,,,,,,2,,,74,0
72864,note_on,,3,0,1,,,,,,,,,0,,,69,85
72864,note_on,,0,0,4,,,,,,,,,3,,,69,82
72869,note_on,,5,0,4,,,,,,,,,3,,,69,0
72869,note_on,,5,0,3,,,,,,,,,2,,,73,0
72870,note_on,,1,0,4,,,,,,,,,3,,,71,85
72870,note_on,,1,0,3,,,,,,,,,2,,,74,95
72875,note_on,,5,0,4,,,,,,,,,3,,,71,0
72875,note_on,,11,0,2,,,,,,,,,1,,,54,0
72875,note_on,,5,0,3,,,,,,,,,2,,,74,0
72876,note_on,,1,0,4,,,,,,,,,3,,,69,85
72876,note_on,,1,0,3,,,,,,,,,2,,,73,95
72877,note_on,,13,0,1,,,,,,,,,0,,,69,0
72880,note_on,,5,0,2,,,,,,,,,1,,,45,85
72880,note_on,,3,0,1,,,,,,,,,0,,,61,64
72881,note_on,,5,0,4,,,,,,,,,3,,,69,0
72881,note_on,,5,0,3,,,,,,,,,2,,,73,0
72882,note_on,,1,0,3,,,,,,,,,2,,,74,95
72882,note_on,,1,0,4,,,,,,,,,3,,,71,85
72887,note_on,,5,0,3,,,,,,,,,2,,,74,0
72887,note_on,,5,0,4,,,,,,,,,3,,,71,0
72888,note_on,,1,0,4,,,,,,,,,3,,,69,85
72888,note_on,,1,0,3,,,,,,,,,2,,,73,95
72891,note_on,,11,0,2,,,,,,,,,1,,,45,0
72893,note_on,,5,0,4,,,,,,,,,3,,,69,0
72893,note_on,,5,0,3,,,,,,,,,2,,,73,0
72893,note_on,,13,0,1,,,,,,,,,0,,,61,0
72894,note_on,,1,0,3,,,,,,,,,2,,,74,95
72894,note_on,,1,0,4,,,,,,,,,3,,,71,85
72896,note_on,,5,0,2,,,,,,,,,1,,,47,85
72896,note_on,,3,0,1,,,,,,,,,0,,,63,67
72899,note_on,,5,0,3,,,,,,,,,2,,,74,0
72899,note_on,,5,0,4,,,,,,,,,3,,,71,0
72900,note_on,,1,0,3,,,,,,,,,2,,,73,95
72900,note_on,,1,0,4,,,,,,,,,3,,,69,78
72905,note_on,,5,0,4,,,,,,,,,3,,,69,0
72905,note_on,,5,0,3,,,,,,,,,2,,,73,0
72906,note_on,,1,0,4,,,,,,,,,3,,,71,85
72906,note_on,,1,0,3,,,,,,,,,2,,,74,95
72907,note_on,,11,0,2,,,,,,,,,1,,,47,0
72909,note_on,,13,0,1,,,,,,,,,0,,,63,0
72911,note_on,,5,0,3,,,,,,,,,2,,,74,0
72911,note_on,,5,0,4,,,,,,,,,3,,,71,0
72912,note_on,,1,0,3,,,,,,,,,2,,,73,95
72912,note_on,,3,0,1,,,,,,,,,0,,,65,85
72912,note_on,,5,0,2,,,,,,,,,1,,,49,55
72912,note_on,,1,0,4,,,,,,,,,3,,,69,85
72917,note_on,,5,0,4,,,,,,,,,3,,,69,0
72917,note_on,,5,0,3,,,,,,,,,2,,,73,0
72918,note_on,,1,0,3,,,,,,,,,2,,,74,95
72918,note_on,,1,0,4,,,,,,,,,3,,,71,85
72923,note_on,,5,0,4,,,,,,,,,3,,,71,0
72923,note_on,,5,0,3,,,,,,,,,2,,,74,0
72923,note_on,,11,0,2,,,,,,,,,1,,,49,0
72924,note_on,,1,0,4,,,,,,,,,3,,,69,85
72924,note_on,,1,0,3,,,,,,,,,2,,,73,95
72925,note_on,,13,0,1,,,,,,,,,0,,,65,0
72928,note_on,,5,0,2,,,,,,,,,1,,,53,85
72928,note_on,,3,0,1,,,,,,,,,0,,,68,64
72929,note_on,,5,0,4,,,,,,,,,3,,,69,0
72929,note_on,,5,0,3,,,,,,,,,2,,,73,0
72930,note_on,,1,0,4,,,,,,,,,3,,,71,85
72930,note_on,,1,0,3,,,,,,,,,2,,,74,95
72935,note_on,,5,0,4,,,,,,,,,3,,,71,0
72935,note_on,,5,0,3,,,,,,,,,2,,,74,0
72936,note_on,,1,0,3,,,,,,,,,2,,,73,95
72936,note_on,,1,0,4,,,,,,,,,3,,,69,85
72939,note_on,,11,0,2,,,,,,,,,1,,,53,0
72941,note_on,,5,0,4,,,,,,,,,3,,,69,0
72941,note_on,,5,0,3,,,,,,,,,2,,,73,0
72941,note_on,,13,0,1,,,,,,,,,0,,,68,0
72942,note_on,,1,0,4,,,,,,,,,3,,,71,52
72942,note_on,,1,0,3,,,,,,,,,2,,,74,95
72944,note_on,,5,0,2,,,,,,,,,1,,,51,61
72944,note_on,,3,0,1,,,,,,,,,0,,,66,66
72947,note_on,,5,0,3,,,,,,,,,2,,,74,0
72947,note_on,,5,0,4,,,,,,,,,3,,,71,0
72948,note_on,,1,0,4,,,,,,,,,3,,,69,85
72948,note_on,,1,0,3,,,,,,,,,2,,,73,95
72955,note_on,,11,0,2,,,,,,,,,1,,,51,0
72957,note_on,,13,0,1,,,,,,,,,0,,,66,0
72958,note_on,,10,0,4,,,,,,,,,3,,,69,0
72960,note_on,,12,0,3,,,,,,,,,2,,,73,0
72960,note_on,,3,0,1,,,,,,,,,0,,,68,68
72960,note_on,,2,0,4,,,,,,,,,3,,,68,68
72960,note_on,,5,0,2,,,,,,,,,1,,,53,85
72960,note_on,,0,0,3,,,,,,,,,2,,,71,95
72965,note_on,,5,0,4,,,,,,,,,3,,,68,0
72965,note_on,,5,0,3,,,,,,,,,2,,,71,0
72966,note_on,,1,0,4,,,,,,,,,3,,,69,85
72966,note_on,,1,0,3,,,,,,,,,2,,,73,95
72971,note_on,,5,0,3,,,,,,,,,2,,,73,0
72971,note_on,,5,0,4,,,,,,,,,3,,,69,0
72971,note_on,,11,0,2,,,,,,,,,1,,,53,0
72972,note_on,,1,0,4,,,,,,,,,3,,,68,68
72972,note_on,,1,0,3,,,,,,,,,2,,,71,95
72973,note_on,,13,0,1,,,,,,,,,0,,,68,0
72976,note_on,,5,0,2,,,,,,,,,1,,,56,66
72976,note_on,,3,0,1,,,,,,,,,0,,,71,85
72977,note_on,,5,0,3,,,,,,,,,2,,,71,0
72977,note_on,,5,0,4,,,,,,,,,3,,,68,0
72978,note_on,,1,0,4,,,,,,,,,3,,,69,85
72978,note_on,,1,0,3,,,,,,,,,2,,,73,95
72983,note_on,,5,0,4,,,,,,,,,3,,,69,0
72983,note_on,,5,0,3,,,,,,,,,2,,,73,0
72984,note_on,,1,0,4,,,,,,,,,3,,,68,72
72984,note_on,,1,0,3,,,,,,,,,2,,,71,95
72987,note_on,,11,0,2,,,,,,,,,1,,,56,0
72989,note_on,,5,0,4,,,,,,,,,3,,,68,0
72989,note_on,,5,0,3,,,,,,,,,2,,,71,0
72989,note_on,,13,0,1,,,,,,,,,0,,,71,0
72990,note_on,,1,0,4,,,,,,,,,3,,,69,85
72990,note_on,,1,0,3,,,,,,,,,2,,,73,95
72992,note_on,,5,0,2,,,,,,,,,1,,,54,66
72992,note_on,,3,0,1,,,,,,,,,0,,,69,85
72995,note_on,,5,0,3,,,,,,,,,2,,,73,0
72995,note_on,,5,0,4,,,,,,,,,3,,,69,0
72996,note_on,,1,0,3,,,,,,,,,2,,,71,95
72996,note_on,,1,0,4,,,,,,,,,3,,,68,79
73001,note_on,,5,0,3,,,,,,,,,2,,,71,0
73001,note_on,,5,0,4,,,,,,,,,3,,,68,0
73002,note_on,,1,0,3,,,,,,,,,2,,,73,95
73002,note_on,,1,0,4,,,,,,,,,3,,,69,85
73003,note_on,,11,0,2,,,,,,,,,1,,,54,0
73005,note_on,,13,0,1,,,,,,,,,0,,,69,0
73007,note_on,,5,0,4,,,,,,,,,3,,,69,0
73007,note_on,,5,0,3,,,,,,,,,2,,,73,0
73008,note_on,,1,0,3,,,,,,,,,2,,,71,95
73008,note_on,,1,0,4,,,,,,,,,3,,,68,84
73008,note_on,,3,0,1,,,,,,,,,0,,,68,62
73008,note_on,,5,0,2,,,,,,,,,1,,,53,85
73013,note_on,,5,0,4,,,,,,,,,3,,,68,0
73013,note_on,,5,0,3,,,,,,,,,2,,,71,0
73014,note_on,,1,0,3,,,,,,,,,2,,,73,95
73014,note_on,,1,0,4,,,,,,,,,3,,,69,85
73019,note_on,,5,0,3,,,,,,,,,2,,,73,0
73019,note_on,,5,0,4,,,,,,,,,3,,,69,0
73019,note_on,,11,0,2,,,,,,,,,1,,,53,0
73020,note_on,,1,0,3,,,,,,,,,2,,,71,95
73020,note_on,,1,0,4,,,,,,,,,3,,,68,89
73021,note_on,,13,0,1,,,,,,,,,0,,,68,0
73024,note_on,,3,0,1,,,,,,,,,0,,,71,85
73024,note_on,,5,0,2,,,,,,,,,1,,,56,62
73025,note_on,,5,0,3,,,,,,,,,2,,,71,0
73025,note_on,,5,0,4,,,,,,,,,3,,,68,0
73026,note_on,,1,0,4,,,,,,,,,3,,,69,85
73026,note_on,,1,0,3,,,,,,,,,2,,,73,95
73031,note_on,,5,0,4,,,,,,,,,3,,,69,0
73031,note_on,,5,0,3,,,,,,,,,2,,,73,0
73032,note_on,,1,0,3,,,,,,,,,2,,,71,95
73032,note_on,,1,0,4,,,,,,,,,3,,,68,74
73035,note_on,,11,0,2,,,,,,,,,1,,,56,0
73037,note_on,,5,0,4,,,,,,,,,3,,,68,0
73037,note_on,,5,0,3,,,,,,,,,2,,,71,0
73037,note_on,,13,0,1,,,,,,,,,0,,,71,0
73038,note_on,,1,0,4,,,,,,,,,3,,,69,85
73038,note_on,,1,0,3,,,,,,,,,2,,,73,95
73040,note_on,,5,0,2,,,,,,,,,1,,,54,70
73040,note_on,,3,0,1,,,,,,,,,0,,,69,85
73043,note_on,,5,0,3,,,,,,,,,2,,,73,0
73043,note_on,,5,0,4,,,,,,,,,3,,,69,0
73044,note_on,,1,0,4,,,,,,,,,3,,,68,70
73044,note_on,,1,0,3,,,,,,,,,2,,,71,95
73051,note_on,,11,0,2,,,,,,,,,1,,,54,0
73053,note_on,,13,0,1,,,,,,,,,0,,,69,0
73054,note_on,,10,0,4,,,,,,,,,3,,,68,0
73056,note_on,,12,0,3,,,,,,,,,2,,,71,0
73056,note_on,,0,0,3,,,,,,,,,2,,,71,85
73056,note_on,,5,0,2,,,,,,,,,1,,,53,70
73056,note_on,,3,0,1,,,,,,,,,0,,,68,39
73056,note_on,,2,0,4,,,,,,,,,3,,,68,62
73059,note_on,,3,0,1,,,,,,,,,0,,,68,0
73059,note_on,,3,0,2,,,,,,,,,1,,,53,0
73060,note_on,,1,0,1,,,,,,,,,0,,,69,52
73060,note_on,,1,0,2,,,,,,,,,1,,,54,66
73063,note_on,,3,0,1,,,,,,,,,0,,,69,0
73063,note_on,,3,0,2,,,,,,,,,1,,,54,0
73064,note_on,,1,0,2,,,,,,,,,1,,,53,72
73064,note_on,,1,0,1,,,,,,,,,0,,,68,60
73067,note_on,,3,0,2,,,,,,,,,1,,,53,0
73067,note_on,,3,0,1,,,,,,,,,0,,,68,0
73068,note_on,,1,0,1,,,,,,,,,0,,,69,85
73068,note_on,,1,0,2,,,,,,,,,1,,,54,66
73068,note_on,,12,0,3,,,,,,,,,2,,,71,0
73069,note_on,,13,0,4,,,,,,,,,3,,,68,0
73071,note_on,,3,0,2,,,,,,,,,1,,,54,0
73071,note_on,,3,0,1,,,,,,,,,0,,,69,0
73072,note_on,,1,0,1,,,,,,,,,0,,,68,65
73072,note_on,,1,0,2,,,,,,,,,1,,,53,76
73072,note_on,,4,0,3,,,,,,,,,2,,,68,56
73072,note_on,,3,0,4,,,,,,,,,3,,,65,85
73075,note_on,,3,0,1,,,,,,,,,0,,,68,0
73075,note_on,,3,0,2,,,,,,,,,1,,,53,0
73076,note_on,,1,0,2,,,,,,,,,1,,,54,62
73076,note_on,,1,0,1,,,,,,,,,0,,,69,85
73079,note_on,,3,0,1,,,,,,,,,0,,,69,0
73079,note_on,,3,0,2,,,,,,,,,1,,,54,0
73080,note_on,,1,0,1,,,,,,,,,0,,,68,68
73080,note_on,,1,0,2,,,,,,,,,1,,,53,82
73083,note_on,,3,0,2,,,,,,,,,1,,,53,0
73083,note_on,,3,0,1,,,,,,,,,0,,,68,0
73084,note_on,,1,0,1,,,,,,,,,0,,,69,81
73084,note_on,,12,0,3,,,,,,,,,2,,,68,0
73084,note_on,,1,0,2,,,,,,,,,1,,,54,59
73085,note_on,,13,0,4,,,,,,,,,3,,,65,0
73087,note_on,,3,0,2,,,,,,,,,1,,,54,0
73087,note_on,,3,0,1,,,,,,,,,0,,,69,0
73088,note_on,,4,0,3,,,,,,,,,2,,,69,85
73088,note_on,,3,0,4,,,,,,,,,3,,,66,66
73088,note_on,,1,0,2,,,,,,,,,1,,,53,85
73088,note_on,,1,0,1,,,,,,,,,0,,,68,62
73091,note_on,,3,0,2,,,,,,,,,1,,,53,0
73091,note_on,,3,0,1,,,,,,,,,0,,,68,0
73092,note_on,,1,0,1,,,,,,,,,0,,,69,85
73092,note_on,,1,0,2,,,,,,,,,1,,,54,65
73095,note_on,,3,0,2,,,,,,,,,1,,,54,0
73095,note_on,,3,0,1,,,,,,,,,0,,,69,0
73096,note_on,,1,0,2,,,,,,,,,1,,,53,79
73096,note_on,,1,0,1,,,,,,,,,0,,,68,66
73099,note_on,,3,0,2,,,,,,,,,1,,,53,0
73099,note_on,,3,0,1,,,,,,,,,0,,,68,0
73100,note_on,,12,0,3,,,,,,,,,2,,,69,0
73100,note_on,,1,0,1,,,,,,,,,0,,,69,85
73100,note_on,,1,0,2,,,,,,,,,1,,,54,64
73101,note_on,,13,0,4,,,,,,,,,3,,,66,0
73103,note_on,,3,0,1,,,,,,,,,0,,,69,0
73103,note_on,,3,0,2,,,,,,,,,1,,,54,0
73104,note_on,,1,0,2,,,,,,,,,1,,,53,85
73104,note_on,,4,0,3,,,,,,,,,2,,,71,85
73104,note_on,,1,0,1,,,,,,,,,0,,,68,66
73104,note_on,,3,0,4,,,,,,,,,3,,,68,62
73107,note_on,,3,0,2,,,,,,,,,1,,,53,0
73107,note_on,,3,0,1,,,,,,,,,0,,,68,0
73108,note_on,,1,0,1,,,,,,,,,0,,,69,85
73108,note_on,,1,0,2,,,,,,,,,1,,,54,59
73111,note_on,,3,0,2,,,,,,,,,1,,,54,0
73111,note_on,,3,0,1,,,,,,,,,0,,,69,0
73112,note_on,,1,0,2,,,,,,,,,1,,,53,85
73112,note_on,,1,0,1,,,,,,,,,0,,,68,70
73115,note_on,,3,0,2,,,,,,,,,1,,,53,0
73115,note_on,,3,0,1,,,,,,,,,0,,,68,0
73116,note_on,,1,0,1,,,,,,,,,0,,,69,85
73116,note_on,,1,0,2,,,,,,,,,1,,,54,62
73116,note_on,,12,0,3,,,,,,,,,2,,,71,0
73117,note_on,,13,0,4,,,,,,,,,3,,,68,0
73119,note_on,,3,0,2,,,,,,,,,1,,,54,0
73119,note_on,,3,0,1,,,,,,,,,0,,,69,0
73120,note_on,,4,0,3,,,,,,,,,2,,,68,68
73120,note_on,,1,0,2,,,,,,,,,1,,,53,85
73120,note_on,,1,0,1,,,,,,,,,0,,,68,66
73120,note_on,,3,0,4,,,,,,,,,3,,,65,85
73123,note_on,,3,0,2,,,,,,,,,1,,,53,0
73123,note_on,,3,0,1,,,,,,,,,0,,,68,0
73124,note_on,,1,0,2,,,,,,,,,1,,,54,68
73124,note_on,,1,0,1,,,,,,,,,0,,,69,82
73127,note_on,,3,0,2,,,,,,,,,1,,,54,0
73127,note_on,,3,0,1,,,,,,,,,0,,,69,0
73128,note_on,,1,0,1,,,,,,,,,0,,,68,74
73128,note_on,,1,0,2,,,,,,,,,1,,,53,85
73131,note_on,,3,0,2,,,,,,,,,1,,,53,0
73131,note_on,,3,0,1,,,,,,,,,0,,,68,0
73132,note_on,,1,0,1,,,,,,,,,0,,,69,85
73132,note_on,,1,0,2,,,,,,,,,1,,,54,67
73132,note_on,,12,0,3,,,,,,,,,2,,,68,0
73133,note_on,,13,0,4,,,,,,,,,3,,,65,0
73135,note_on,,3,0,1,,,,,,,,,0,,,69,0
73135,note_on,,3,0,2,,,,,,,,,1,,,54,0
73136,note_on,,1,0,2,,,,,,,,,1,,,53,85
73136,note_on,,3,0,4,,,,,,,,,3,,,66,72
73136,note_on,,1,0,1,,,,,,,,,0,,,68,68
73136,note_on,,4,0,3,,,,,,,,,2,,,69,85
73139,note_on,,3,0,1,,,,,,,,,0,,,68,0
73139,note_on,,3,0,2,,,,,,,,,1,,,53,0
73140,note_on,,1,0,2,,,,,,,,,1,,,54,72
73140,note_on,,1,0,1,,,,,,,,,0,,,69,85
73143,note_on,,3,0,2,,,,,,,,,1,,,54,0
73143,note_on,,3,0,1,,,,,,,,,0,,,69,0
73144,note_on,,1,0,2,,,,,,,,,1,,,53,85
73144,note_on,,1,0,1,,,,,,,,,0,,,68,74
73147,note_on,,3,0,2,,,,,,,,,1,,,53,0
73147,note_on,,3,0,1,,,,,,,,,0,,,68,0
73148,note_on,,1,0,1,,,,,,,,,0,,,69,85
73148,note_on,,12,0,3,,,,,,,,,2,,,69,0
73148,note_on,,1,0,2,,,,,,,,,1,,,54,68
73149,note_on,,13,0,4,,,,,,,,,3,,,66,0
73151,note_on,,3,0,2,,,,,,,,,1,,,54,0
73151,note_on,,3,0,1,,,,,,,,,0,,,69,0
73152,note_on,,1,0,1,,,,,,,,,0,,,68,49
73152,note_on,,3,0,4,,,,,,,,,3,,,68,72
73152,note_on,,4,0,3,,,,,,,,,2,,,71,85
73152,note_on,,1,0,2,,,,,,,,,1,,,53,85
73163,note_on,,11,0,2,,,,,,,,,1,,,53,0
73165,note_on,,13,0,1,,,,,,,,,0,,,68,0
73168,note_on,,3,0,1,,,,,,,,,0,,,65,85
73168,note_on,,5,0,2,,,,,,,,,1,,,49,62
73179,note_on,,11,0,2,,,,,,,,,1,,,49,0
73181,note_on,,13,0,1,,,,,,,,,0,,,65,0
73184,note_on,,3,0,1,,,,,,,,,0,,,66,59
73184,note_on,,5,0,2,,,,,,,,,1,,,51,62
73192,note_on,,40,0,4,,,,,,,,,3,,,68,0
73195,note_on,,11,0,2,,,,,,,,,1,,,51,0
73197,note_on,,13,0,1,,,,,,,,,0,,,66,0
73200,note_on,,5,0,2,,,,,,,,,1,,,53,85
73200,note_on,,8,0,4,,,,,,,,,3,,,80,84
73200,note_on,,413,0,5,,,,,,,,,4,,,73,66
73200,note_on,,3,0,1,,,,,,,,,0,,,68,66
73211,note_on,,11,0,2,,,,,,,,,1,,,53,0
73213,note_on,,13,0,1,,,,,,,,,0,,,68,0
73216,note_on,,5,0,2,,,,,,,,,1,,,51,56
73216,note_on,,3,0,1,,,,,,,,,0,,,66,66
73224,note_on,,24,0,5,,,,,,,,,4,,,73,0
73227,note_on,,11,0,2,,,,,,,,,1,,,51,0
73229,note_on,,13,0,1,,,,,,,,,0,,,66,0
73232,note_on,,3,0,1,,,,,,,,,0,,,68,71
73232,note_on,,5,0,2,,,,,,,,,1,,,53,85
73243,note_on,,11,0,2,,,,,,,,,1,,,53,0
73245,note_on,,13,0,1,,,,,,,,,0,,,68,0
73248,note_on,,3,0,1,,,,,,,,,0,,,69,85
73248,note_on,,0,0,3,,,,,,,,,2,,,69,85
73248,note_on,,96,0,3,,,,,,,,,2,,,71,0
73248,note_on,,5,0,2,,,,,,,,,1,,,54,61
73259,note_on,,11,0,2,,,,,,,,,1,,,54,0
73261,note_on,,13,0,1,,,,,,,,,0,,,69,0
73264,note_on,,3,0,1,,,,,,,,,0,,,66,61
73264,note_on,,5,0,2,,,,,,,,,1,,,50,85
73275,note_on,,11,0,2,,,,,,,,,1,,,50,0
73277,note_on,,13,0,1,,,,,,,,,0,,,66,0
73280,note_on,,3,0,1,,,,,,,,,0,,,68,67
73280,note_on,,5,0,2,,,,,,,,,1,,,52,85
73280,note_on,,80,0,4,,,,,,,,,3,,,80,0
73291,note_on,,11,0,2,,,,,,,,,1,,,52,0
73293,note_on,,13,0,1,,,,,,,,,0,,,68,0
73296,note_on,,5,0,2,,,,,,,,,1,,,54,59
73296,note_on,,16,0,4,,,,,,,,,3,,,78,72
73296,note_on,,72,0,5,,,,,,,,,4,,,74,85
73296,note_on,,3,0,1,,,,,,,,,0,,,69,85
73296,note_on,,48,0,3,,,,,,,,,2,,,69,0
73296,note_on,,0,0,3,,,,,,,,,2,,,81,85
73307,note_on,,11,0,2,,,,,,,,,1,,,54,0
73309,note_on,,13,0,1,,,,,,,,,0,,,69,0
73312,note_on,,3,0,1,,,,,,,,,0,,,68,66
73312,note_on,,5,0,2,,,,,,,,,1,,,52,85
73320,note_on,,24,0,5,,,,,,,,,4,,,74,0
73323,note_on,,11,0,2,,,,,,,,,1,,,52,0
73325,note_on,,13,0,1,,,,,,,,,0,,,68,0
73328,note_on,,3,0,1,,,,,,,,,0,,,69,85
73328,note_on,,5,0,2,,,,,,,,,1,,,54,62
73339,note_on,,11,0,2,,,,,,,,,1,,,54,0
73341,note_on,,13,0,1,,,,,,,,,0,,,69,0
73344,note_on,,3,0,1,,,,,,,,,0,,,71,85
73344,note_on,,5,0,2,,,,,,,,,1,,,56,66
73355,note_on,,11,0,2,,,,,,,,,1,,,56,0
73357,note_on,,13,0,1,,,,,,,,,0,,,71,0
73360,note_on,,3,0,1,,,,,,,,,0,,,68,55
73360,note_on,,5,0,2,,,,,,,,,1,,,52,85
73371,note_on,,11,0,2,,,,,,,,,1,,,52,0
73373,note_on,,13,0,1,,,,,,,,,0,,,68,0
73376,note_on,,5,0,2,,,,,,,,,1,,,54,70
73376,note_on,,80,0,4,,,,,,,,,3,,,78,0
73376,note_on,,3,0,1,,,,,,,,,0,,,69,85
73387,note_on,,11,0,2,,,,,,,,,1,,,54,0
73389,note_on,,13,0,1,,,,,,,,,0,,,69,0
73392,note_on,,5,0,2,,,,,,,,,1,,,56,66
73392,note_on,,16,0,4,,,,,,,,,3,,,83,85
73392,note_on,,96,0,3,,,,,,,,,2,,,81,0
73392,note_on,,3,0,1,,,,,,,,,0,,,71,85
73392,note_on,,72,0,5,,,,,,,,,4,,,76,85
73392,note_on,,0,0,3,,,,,,,,,2,,,80,67
73403,note_on,,11,0,2,,,,,,,,,1,,,56,0
73405,note_on,,13,0,1,,,,,,,,,0,,,71,0
73408,note_on,,3,0,1,,,,,,,,,0,,,69,85
73408,note_on,,5,0,2,,,,,,,,,1,,,54,68
73416,note_on,,24,0,5,,,,,,,,,4,,,76,0
73419,note_on,,11,0,2,,,,,,,,,1,,,54,0
73421,note_on,,13,0,1,,,,,,,,,0,,,69,0
73424,note_on,,3,0,1,,,,,,,,,0,,,71,85
73424,note_on,,5,0,2,,,,,,,,,1,,,56,55
73435,note_on,,11,0,2,,,,,,,,,1,,,56,0
73437,note_on,,13,0,1,,,,,,,,,0,,,71,0
73440,note_on,,3,0,1,,,,,,,,,0,,,73,59
73440,note_on,,5,0,2,,,,,,,,,1,,,57,85
73451,note_on,,11,0,2,,,,,,,,,1,,,57,0
73453,note_on,,13,0,1,,,,,,,,,0,,,73,0
73456,note_on,,3,0,1,,,,,,,,,0,,,69,85
73456,note_on,,5,0,2,,,,,,,,,1,,,54,60
73467,note_on,,11,0,2,,,,,,,,,1,,,54,0
73469,note_on,,13,0,1,,,,,,,,,0,,,69,0
73472,note_on,,5,0,2,,,,,,,,,1,,,56,72
73472,note_on,,3,0,1,,,,,,,,,0,,,71,85
73472,note_on,,80,0,4,,,,,,,,,3,,,83,0
73483,note_on,,11,0,2,,,,,,,,,1,,,56,0
73485,note_on,,13,0,1,,,,,,,,,0,,,71,0
73488,note_on,,72,0,5,,,,,,,,,4,,,78,72
73488,note_on,,16,0,4,,,,,,,,,3,,,81,85
73488,note_on,,3,0,1,,,,,,,,,0,,,73,67
73488,note_on,,0,0,3,,,,,,,,,2,,,85,88
73488,note_on,,96,0,3,,,,,,,,,2,,,80,0
73488,note_on,,5,0,2,,,,,,,,,1,,,57,85
73499,note_on,,11,0,2,,,,,,,,,1,,,57,0
73501,note_on,,13,0,1,,,,,,,,,0,,,73,0
73504,note_on,,3,0,1,,,,,,,,,0,,,71,85
73504,note_on,,5,0,2,,,,,,,,,1,,,56,66
73512,note_on,,24,0,5,,,,,,,,,4,,,78,0
73515,note_on,,11,0,2,,,,,,,,,1,,,56,0
73517,note_on,,13,0,1,,,,,,,,,0,,,71,0
73520,note_on,,5,0,2,,,,,,,,,1,,,57,85
73520,note_on,,3,0,1,,,,,,,,,0,,,73,72
73531,note_on,,11,0,2,,,,,,,,,1,,,57,0
73533,note_on,,13,0,1,,,,,,,,,0,,,73,0
73536,note_on,,5,0,2,,,,,,,,,1,,,59,74
73536,note_on,,3,0,1,,,,,,,,,0,,,74,85
73547,note_on,,11,0,2,,,,,,,,,1,,,59,0
73549,note_on,,13,0,1,,,,,,,,,0,,,74,0
73552,note_on,,3,0,1,,,,,,,,,0,,,71,85
73552,note_on,,5,0,2,,,,,,,,,1,,,56,62
73563,note_on,,11,0,2,,,,,,,,,1,,,56,0
73565,note_on,,13,0,1,,,,,,,,,0,,,71,0
73568,note_on,,80,0,4,,,,,,,,,3,,,81,0
73568,note_on,,5,0,2,,,,,,,,,1,,,57,85
73568,note_on,,3,0,1,,,,,,,,,0,,,73,70
73579,note_on,,11,0,2,,,,,,,,,1,,,57,0
73581,note_on,,13,0,1,,,,,,,,,0,,,73,0
73584,note_on,,16,0,4,,,,,,,,,3,,,86,89
73584,note_on,,0,0,3,,,,,,,,,2,,,83,85
73584,note_on,,96,0,3,,,,,,,,,2,,,85,0
73584,note_on,,5,0,2,,,,,,,,,1,,,59,85
73584,note_on,,3,0,1,,,,,,,,,0,,,74,85
73595,note_on,,11,0,2,,,,,,,,,1,,,59,0
73597,note_on,,13,0,1,,,,,,,,,0,,,74,0
73600,note_on,,3,0,1,,,,,,,,,0,,,73,69
73600,note_on,,5,0,2,,,,,,,,,1,,,57,85
73611,note_on,,11,0,2,,,,,,,,,1,,,57,0
73613,note_on,,13,0,1,,,,,,,,,0,,,73,0
73616,note_on,,3,0,1,,,,,,,,,0,,,74,85
73616,note_on,,5,0,2,,,,,,,,,1,,,59,85
73620,note_on,,36,0,3,,,,,,,,,2,,,83,0
73620,note_on,,0,0,3,,,,,,,,,2,,,81,85
73627,note_on,,11,0,2,,,,,,,,,1,,,59,0
73629,note_on,,13,0,1,,,,,,,,,0,,,74,0
73632,note_on,,12,0,3,,,,,,,,,2,,,81,0
73632,note_on,,0,0,3,,,,,,,,,2,,,80,57
73632,note_on,,5,0,2,,,,,,,,,1,,,53,85
73632,note_on,,3,0,1,,,,,,,,,0,,,68,68
73643,note_on,,11,0,2,,,,,,,,,1,,,53,0
73645,note_on,,13,0,1,,,,,,,,,0,,,68,0
73648,note_on,,5,0,2,,,,,,,,,1,,,56,71
73648,note_on,,3,0,1,,,,,,,,,0,,,71,85
73659,note_on,,11,0,2,,,,,,,,,1,,,56,0
73661,note_on,,13,0,1,,,,,,,,,0,,,71,0
73664,note_on,,5,0,2,,,,,,,,,1,,,54,60
73664,note_on,,3,0,1,,,,,,,,,0,,,69,85
73664,note_on,,80,0,4,,,,,,,,,3,,,86,0
73675,note_on,,11,0,2,,,,,,,,,1,,,54,0
73677,note_on,,13,0,1,,,,,,,,,0,,,69,0
73680,note_on,,5,0,2,,,,,,,,,1,,,53,85
73680,note_on,,3,0,1,,,,,,,,,0,,,68,61
73680,note_on,,16,0,4,,,,,,,,,3,,,85,70
73691,note_on,,11,0,2,,,,,,,,,1,,,53,0
73693,note_on,,13,0,1,,,,,,,,,0,,,68,0
73696,note_on,,5,0,2,,,,,,,,,1,,,51,62
73696,note_on,,3,0,1,,,,,,,,,0,,,66,54
73707,note_on,,11,0,2,,,,,,,,,1,,,51,0
73709,note_on,,13,0,1,,,,,,,,,0,,,66,0
73710,note_on,,30,0,4,,,,,,,,,3,,,85,0
73712,note_on,,5,0,2,,,,,,,,,1,,,53,85
73712,note_on,,3,0,1,,,,,,,,,0,,,68,68
73716,note_on,,6,0,4,,,,,,,,,3,,,83,85
73723,note_on,,11,0,2,,,,,,,,,1,,,53,0
73725,note_on,,13,0,1,,,,,,,,,0,,,68,0
73726,note_on,,10,0,4,,,,,,,,,3,,,83,0
73728,note_on,,5,0,2,,,,,,,,,1,,,54,54
73728,note_on,,2,0,4,,,,,,,,,3,,,81,85
73728,note_on,,3,0,1,,,,,,,,,0,,,69,85
73739,note_on,,11,0,2,,,,,,,,,1,,,54,0
73741,note_on,,13,0,1,,,,,,,,,0,,,69,0
73744,note_on,,3,0,1,,,,,,,,,0,,,57,85
73744,note_on,,5,0,2,,,,,,,,,1,,,42,56
73755,note_on,,11,0,2,,,,,,,,,1,,,42,0
73757,note_on,,13,0,1,,,,,,,,,0,,,57,0
73760,note_on,,5,0,2,,,,,,,,,1,,,44,66
73760,note_on,,3,0,1,,,,,,,,,0,,,59,85
73771,note_on,,11,0,2,,,,,,,,,1,,,44,0
73773,note_on,,13,0,1,,,,,,,,,0,,,59,0
73776,note_on,,5,0,2,,,,,,,,,1,,,45,85
73776,note_on,,3,0,1,,,,,,,,,0,,,61,60
73776,note_on,,144,0,3,,,,,,,,,2,,,80,0
73776,note_on,,0,0,3,,,,,,,,,2,,,78,59
73787,note_on,,11,0,2,,,,,,,,,1,,,45,0
73789,note_on,,13,0,1,,,,,,,,,0,,,61,0
73792,note_on,,3,0,1,,,,,,,,,0,,,59,85
73792,note_on,,5,0,2,,,,,,,,,1,,,44,59
73803,note_on,,11,0,2,,,,,,,,,1,,,44,0
73805,note_on,,13,0,1,,,,,,,,,0,,,59,0
73808,note_on,,5,0,2,,,,,,,,,1,,,45,85
73808,note_on,,3,0,1,,,,,,,,,0,,,61,68
73812,note_on,,36,0,3,,,,,,,,,2,,,78,0
73812,note_on,,0,0,3,,,,,,,,,2,,,76,81
73819,note_on,,11,0,2,,,,,,,,,1,,,45,0
73821,note_on,,13,0,1,,,,,,,,,0,,,61,0
73824,note_on,,12,0,3,,,,,,,,,2,,,76,0
73824,note_on,,0,0,3,,,,,,,,,2,,,74,85
73824,note_on,,3,0,1,,,,,,,,,0,,,62,85
73824,note_on,,5,0,2,,,,,,,,,1,,,47,70
73835,note_on,,11,0,2,,,,,,,,,1,,,47,0
73837,note_on,,13,0,1,,,,,,,,,0,,,62,0
73840,note_on,,5,0,2,,,,,,,,,1,,,44,46
73840,note_on,,3,0,1,,,,,,,,,0,,,59,85
73848,note_on,,120,0,4,,,,,,,,,3,,,81,0
73851,note_on,,11,0,2,,,,,,,,,1,,,44,0
73853,note_on,,13,0,1,,,,,,,,,0,,,59,0
73856,note_on,,3,0,1,,,,,,,,,0,,,61,64
73856,note_on,,5,0,2,,,,,,,,,1,,,45,85
73867,note_on,,11,0,2,,,,,,,,,1,,,45,0
73869,note_on,,13,0,1,,,,,,,,,0,,,61,0
73872,note_on,,24,0,4,,,,,,,,,3,,,80,62
73872,note_on,,5,0,2,,,,,,,,,1,,,47,85
73872,note_on,,3,0,1,,,,,,,,,0,,,62,85
73883,note_on,,11,0,2,,,,,,,,,1,,,47,0
73885,note_on,,13,0,1,,,,,,,,,0,,,62,0
73888,note_on,,3,0,1,,,,,,,,,0,,,61,68
73888,note_on,,5,0,2,,,,,,,,,1,,,45,85
73899,note_on,,11,0,2,,,,,,,,,1,,,45,0
73901,note_on,,13,0,1,,,,,,,,,0,,,61,0
73902,note_on,,30,0,4,,,,,,,,,3,,,80,0
73904,note_on,,5,0,2,,,,,,,,,1,,,47,85
73904,note_on,,3,0,1,,,,,,,,,0,,,62,85
73908,note_on,,6,0,4,,,,,,,,,3,,,78,68
73915,note_on,,11,0,2,,,,,,,,,1,,,47,0
73917,note_on,,13,0,1,,,,,,,,,0,,,62,0
73918,note_on,,10,0,4,,,,,,,,,3,,,78,0
73920,note_on,,3,0,1,,,,,,,,,0,,,56,64
73920,note_on,,2,0,4,,,,,,,,,3,,,77,85
73920,note_on,,5,0,2,,,,,,,,,1,,,49,79
73933,note_on,,13,0,1,,,,,,,,,0,,,56,0
73936,note_on,,3,0,1,,,,,,,,,0,,,57,85
73949,note_on,,13,0,1,,,,,,,,,0,,,57,0
73952,note_on,,3,0,1,,,,,,,,,0,,,59,85
73960,note_on,,40,0,4,,,,,,,,,3,,,77,0
73965,note_on,,13,0,1,,,,,,,,,0,,,59,0
73968,note_on,,8,0,4,,,,,,,,,3,,,76,85
73968,note_on,,3,0,1,,,,,,,,,0,,,61,85
73968,note_on,,144,0,3,,,,,,,,,2,,,74,0
73968,note_on,,0,0,3,,,,,,,,,2,,,73,66
73969,note_on,,49,0,2,,,,,,,,,1,,,49,0
73984,note_on,,15,0,2,,,,,,,,,1,,,50,79
73995,note_on,,11,0,2,,,,,,,,,1,,,50,0
74000,note_on,,5,0,2,,,,,,,,,1,,,52,85
74004,note_on,,36,0,3,,,,,,,,,2,,,73,0
74004,note_on,,0,0,3,,,,,,,,,2,,,71,85
74011,note_on,,11,0,2,,,,,,,,,1,,,52,0
74016,note_on,,12,0,3,,,,,,,,,2,,,71,0
74016,note_on,,5,0,2,,,,,,,,,1,,,54,70
74016,note_on,,0,0,3,,,,,,,,,2,,,70,61
74026,note_on,,58,0,1,,,,,,,,,0,,,61,0
74028,note_on,,60,0,4,,,,,,,,,3,,,76,0
74032,note_on,,6,0,1,,,,,,,,,0,,,62,85
74045,note_on,,13,0,1,,,,,,,,,0,,,62,0
74048,note_on,,3,0,1,,,,,,,,,0,,,64,85
74052,note_on,,24,0,4,,,,,,,,,3,,,73,62
74061,note_on,,13,0,1,,,,,,,,,0,,,64,0
74064,note_on,,0,0,4,,,,,,,,,3,,,78,62
74064,note_on,,48,0,3,,,,,,,,,2,,,70,0
74064,note_on,,12,0,4,,,,,,,,,3,,,73,0
74064,note_on,,3,0,1,,,,,,,,,0,,,66,85
74065,note_on,,49,0,2,,,,,,,,,1,,,54,0
74080,note_on,,15,0,2,,,,,,,,,1,,,56,66
74091,note_on,,11,0,2,,,,,,,,,1,,,56,0
74094,note_on,,30,0,4,,,,,,,,,3,,,78,0
74096,note_on,,5,0,2,,,,,,,,,1,,,58,72
74100,note_on,,6,0,4,,,,,,,,,3,,,73,53
74107,note_on,,11,0,2,,,,,,,,,1,,,58,0
74110,note_on,,10,0,4,,,,,,,,,3,,,73,0
74112,note_on,,5,0,2,,,,,,,,,1,,,59,85
74112,note_on,,2,0,4,,,,,,,,,3,,,74,85
74122,note_on,,58,0,1,,,,,,,,,0,,,66,0
74123,note_on,,11,0,2,,,,,,,,,1,,,59,0
74125,note_on,,13,0,4,,,,,,,,,3,,,74,0
74128,note_on,,3,0,4,,,,,,,,,3,,,73,60
74128,note_on,,5,0,2,,,,,,,,,1,,,61,62
74139,note_on,,11,0,2,,,,,,,,,1,,,61,0
74141,note_on,,13,0,4,,,,,,,,,3,,,73,0
74144,note_on,,5,0,2,,,,,,,,,1,,,62,85
74144,note_on,,3,0,4,,,,,,,,,3,,,71,85
74148,note_on,,84,0,3,,,,,,,,,2,,,78,72
74148,note_on,,26,0,1,,,,,,,,,0,,,66,85
74155,note_on,,11,0,2,,,,,,,,,1,,,62,0
74157,note_on,,13,0,4,,,,,,,,,3,,,71,0
74158,note_on,,10,0,1,,,,,,,,,0,,,66,0
74160,note_on,,2,0,1,,,,,,,,,0,,,65,85
74160,note_on,,3,0,4,,,,,,,,,3,,,69,85
74160,note_on,,0,0,3,,,,,,,,,2,,,85,95
74160,note_on,,12,0,3,,,,,,,,,2,,,78,0
74160,note_on,,5,0,2,,,,,,,,,1,,,61,70
74171,note_on,,11,0,2,,,,,,,,,1,,,61,0
74173,note_on,,13,0,4,,,,,,,,,3,,,69,0
74173,note_on,,13,0,1,,,,,,,,,0,,,65,0
74176,note_on,,3,0,4,,,,,,,,,3,,,71,85
74176,note_on,,5,0,2,,,,,,,,,1,,,63,70
74176,note_on,,3,0,1,,,,,,,,,0,,,66,61
74187,note_on,,11,0,2,,,,,,,,,1,,,63,0
74189,note_on,,13,0,1,,,,,,,,,0,,,66,0
74189,note_on,,13,0,4,,,,,,,,,3,,,71,0
74192,note_on,,3,0,4,,,,,,,,,3,,,73,68
74192,note_on,,5,0,2,,,,,,,,,1,,,65,85
74192,note_on,,3,0,1,,,,,,,,,0,,,68,74
74196,note_on,,36,0,3,,,,,,,,,2,,,85,0
74196,note_on,,0,0,3,,,,,,,,,2,,,80,72
74203,note_on,,11,0,2,,,,,,,,,1,,,65,0
74205,note_on,,13,0,4,,,,,,,,,3,,,73,0
74205,note_on,,13,0,1,,,,,,,,,0,,,68,0
74208,note_on,,5,0,2,,,,,,,,,1,,,54,40
74208,note_on,,3,0,4,,,,,,,,,3,,,66,85
74208,note_on,,12,0,3,,,,,,,,,2,,,80,0
74208,note_on,,3,0,1,,,,,,,,,0,,,61,107
74208,note_on,,0,0,3,,,,,,,,,2,,,81,67
74219,note_on,,11,0,2,,,,,,,,,1,,,54,0
74224,note_on,,16,0,3,,,,,,,,,2,,,81,0
74224,note_on,,5,0,2,,,,,,,,,1,,,56,54
74224,note_on,,0,0,3,,,,,,,,,2,,,80,62
74235,note_on,,11,0,2,,,,,,,,,1,,,56,0
74238,note_on,,30,0,1,,,,,,,,,0,,,61,0
74240,note_on,,0,0,3,,,,,,,,,2,,,78,56
74240,note_on,,16,0,3,,,,,,,,,2,,,80,0
74240,note_on,,5,0,2,,,,,,,,,1,,,57,85
74244,note_on,,6,0,1,,,,,,,,,0,,,73,85
74247,note_on,,39,0,4,,,,,,,,,3,,,66,0
74251,note_on,,11,0,2,,,,,,,,,1,,,57,0
74254,note_on,,10,0,1,,,,,,,,,0,,,73,0
74256,note_on,,9,0,4,,,,,,,,,3,,,74,85
74256,note_on,,5,0,2,,,,,,,,,1,,,56,53
74256,note_on,,0,0,3,,,,,,,,,2,,,77,56
74256,note_on,,2,0,1,,,,,,,,,0,,,71,85
74256,note_on,,16,0,3,,,,,,,,,2,,,78,0
74267,note_on,,11,0,2,,,,,,,,,1,,,56,0
74269,note_on,,13,0,1,,,,,,,,,0,,,71,0
74272,note_on,,3,0,1,,,,,,,,,0,,,73,64
74272,note_on,,0,0,3,,,,,,,,,2,,,78,56
74272,note_on,,5,0,2,,,,,,,,,1,,,57,85
74272,note_on,,16,0,3,,,,,,,,,2,,,77,0
74283,note_on,,11,0,2,,,,,,,,,1,,,57,0
74285,note_on,,13,0,1,,,,,,,,,0,,,73,0
74288,note_on,,5,0,2,,,,,,,,,1,,,59,85
74288,note_on,,3,0,1,,,,,,,,,0,,,74,85
74288,note_on,,16,0,3,,,,,,,,,2,,,78,0
74288,note_on,,0,0,3,,,,,,,,,2,,,80,61
74299,note_on,,11,0,2,,,,,,,,,1,,,59,0
74301,note_on,,13,0,1,,,,,,,,,0,,,74,0
74304,note_on,,3,0,1,,,,,,,,,0,,,65,85
74304,note_on,,5,0,2,,,,,,,,,1,,,57,85
74304,note_on,,0,0,3,,,,,,,,,2,,,73,66
74304,note_on,,16,0,3,,,,,,,,,2,,,80,0
74309,note_on,,5,0,1,,,,,,,,,0,,,65,0
74310,note_on,,1,0,1,,,,,,,,,0,,,66,72
74314,note_on,,58,0,4,,,,,,,,,3,,,74,0
74315,note_on,,5,0,1,,,,,,,,,0,,,66,0
74315,note_on,,11,0,2,,,,,,,,,1,,,57,0
74316,note_on,,1,0,1,,,,,,,,,0,,,65,85
74320,note_on,,6,0,4,,,,,,,,,3,,,69,85
74320,note_on,,5,0,2,,,,,,,,,1,,,59,81
74321,note_on,,5,0,1,,,,,,,,,0,,,65,0
74322,note_on,,1,0,1,,,,,,,,,0,,,66,76
74327,note_on,,5,0,1,,,,,,,,,0,,,66,0
74328,note_on,,1,0,1,,,,,,,,,0,,,65,85
74331,note_on,,11,0,2,,,,,,,,,1,,,59,0
74333,note_on,,13,0,4,,,,,,,,,3,,,69,0
74333,note_on,,5,0,1,,,,,,,,,0,,,65,0
74336,note_on,,3,0,1,,,,,,,,,0,,,63,62
74336,note_on,,5,0,2,,,,,,,,,1,,,61,67
74336,note_on,,3,0,4,,,,,,,,,3,,,68,42
74341,note_on,,5,0,1,,,,,,,,,0,,,63,0
74342,note_on,,1,0,1,,,,,,,,,0,,,65,85
74347,note_on,,5,0,1,,,,,,,,,0,,,65,0
74347,note_on,,11,0,2,,,,,,,,,1,,,61,0
74348,note_on,,1,0,1,,,,,,,,,0,,,66,69
74349,note_on,,13,0,4,,,,,,,,,3,,,68,0
74352,note_on,,5,0,2,,,,,,,,,1,,,50,85
74352,note_on,,3,0,4,,,,,,,,,3,,,69,85
74352,note_on,,4,0,1,,,,,,,,,0,,,66,66
74352,note_on,,0,0,3,,,,,,,,,2,,,78,76
74352,note_on,,48,0,3,,,,,,,,,2,,,73,0
74365,note_on,,13,0,1,,,,,,,,,0,,,66,0
74365,note_on,,13,0,4,,,,,,,,,3,,,69,0
74368,note_on,,3,0,4,,,,,,,,,3,,,71,81
74368,note_on,,3,0,1,,,,,,,,,0,,,68,72
74368,note_on,,16,0,2,,,,,,,,,1,,,50,0
74381,note_on,,13,0,1,,,,,,,,,0,,,68,0
74381,note_on,,13,0,4,,,,,,,,,3,,,71,0
74384,note_on,,3,0,1,,,,,,,,,0,,,69,86
74384,note_on,,3,0,4,,,,,,,,,3,,,73,62
74397,note_on,,13,0,1,,,,,,,,,0,,,69,0
74397,note_on,,13,0,4,,,,,,,,,3,,,73,0
74400,note_on,,32,0,2,,,,,,,,,1,,,47,85
74400,note_on,,3,0,4,,,,,,,,,3,,,74,72
74400,note_on,,3,0,1,,,,,,,,,0,,,71,85
74413,note_on,,13,0,1,,,,,,,,,0,,,71,0
74413,note_on,,13,0,4,,,,,,,,,3,,,74,0
74416,note_on,,3,0,4,,,,,,,,,3,,,71,85
74416,note_on,,16,0,2,,,,,,,,,1,,,47,0
74416,note_on,,3,0,1,,,,,,,,,0,,,73,70
74424,note_on,,72,0,3,,,,,,,,,2,,,78,0
74429,note_on,,13,0,4,,,,,,,,,3,,,71,0
74429,note_on,,13,0,1,,,,,,,,,0,,,73,0
74432,note_on,,3,0,1,,,,,,,,,0,,,74,85
74432,note_on,,3,0,4,,,,,,,,,3,,,69,85
74436,note_on,,12,0,3,,,,,,,,,2,,,80,62
74445,note_on,,13,0,1,,,,,,,,,0,,,74,0
74445,note_on,,13,0,4,,,,,,,,,3,,,69,0
74448,note_on,,3,0,1,,,,,,,,,0,,,73,74
74448,note_on,,3,0,4,,,,,,,,,3,,,68,64
74448,note_on,,12,0,3,,,,,,,,,2,,,80,0
74448,note_on,,0,0,3,,,,,,,,,2,,,77,85
74448,note_on,,32,0,2,,,,,,,,,1,,,49,70
74461,note_on,,13,0,1,,,,,,,,,0,,,73,0
74464,note_on,,16,0,2,,,,,,,,,1,,,49,0
74464,note_on,,3,0,1,,,,,,,,,0,,,74,85
74477,note_on,,13,0,1,,,,,,,,,0,,,74,0
74477,note_on,,29,0,4,,,,,,,,,3,,,68,0
74480,note_on,,3,0,1,,,,,,,,,0,,,71,85
74484,note_on,,0,0,3,,,,,,,,,2,,,78,57
74484,note_on,,7,0,4,,,,,,,,,3,,,66,61
74484,note_on,,36,0,3,,,,,,,,,2,,,77,0
74493,note_on,,13,0,1,,,,,,,,,0,,,71,0
74494,note_on,,10,0,4,,,,,,,,,3,,,66,0
74496,note_on,,32,0,2,,,,,,,,,1,,,42,74
74496,note_on,,12,0,3,,,,,,,,,2,,,78,0
74496,note_on,,0,0,3,,,,,,,,,2,,,78,89
74496,note_on,,2,0,4,,,,,,,,,3,,,66,72
74496,note_on,,3,0,1,,,,,,,,,0,,,69,85
74509,note_on,,13,0,1,,,,,,,,,0,,,69,0
74512,note_on,,16,0,2,,,,,,,,,1,,,42,0
74512,note_on,,3,0,1,,,,,,,,,0,,,68,68
74525,note_on,,13,0,1,,,,,,,,,0,,,68,0
74528,note_on,,3,0,1,,,,,,,,,0,,,66,72
74532,note_on,,1020,0,5,,,,,,,,,4,,,73,85
74541,note_on,,13,0,1,,,,,,,,,0,,,66,0
74542,note_on,,10,0,5,,,,,,,,,4,,,73,0
74544,note_on,,2144,0,7,,,,,,,,,6,,,45,85
74544,note_on,,32,0,2,,,,,,,,,1,,,45,85
74544,note_on,,2,0,5,,,,,,,,,4,,,78,72
74544,note_on,,2144,0,8,,,,,,,,,7,,,33,85
74560,note_on,,16,0,7,,,,,,,,,6,,,45,0
74560,note_on,,16,0,2,,,,,,,,,1,,,45,0
74560,note_on,,16,0,8,,,,,,,,,7,,,33,0
74574,note_on,,30,0,5,,,,,,,,,4,,,78,0
74580,note_on,,1796,0,6,,,,,,,,,5,,,66,85
74580,note_on,,6,0,5,,,,,,,,,4,,,73,74
74590,note_on,,10,0,5,,,,,,,,,4,,,73,0
74592,note_on,,12,0,6,,,,,,,,,5,,,66,0
74592,note_on,,32,0,2,,,,,,,,,1,,,47,85
74592,note_on,,0,0,6,,,,,,,,,5,,,66,85
74592,note_on,,2,0,5,,,,,,,,,4,,,74,85
74592,note_on,,32,0,8,,,,,,,,,7,,,35,85
74592,note_on,,32,0,7,,,,,,,,,6,,,47,85
74605,note_on,,13,0,5,,,,,,,,,4,,,74,0
74605,note_on,,13,0,6,,,,,,,,,5,,,66,0
74608,note_on,,16,0,2,,,,,,,,,1,,,47,0
74608,note_on,,16,0,8,,,,,,,,,7,,,35,0
74608,note_on,,3,0,6,,,,,,,,,5,,,64,85
74608,note_on,,3,0,5,,,,,,,,,4,,,73,56
74608,note_on,,16,0,7,,,,,,,,,6,,,47,0
74621,note_on,,13,0,6,,,,,,,,,5,,,64,0
74621,note_on,,13,0,5,,,,,,,,,4,,,73,0
74624,note_on,,3,0,6,,,,,,,,,5,,,62,85
74624,note_on,,3,0,5,,,,,,,,,4,,,71,64
74637,note_on,,13,0,6,,,,,,,,,5,,,62,0
74637,note_on,,13,0,5,,,,,,,,,4,,,71,0
74640,note_on,,32,0,2,,,,,,,,,1,,,49,67
74640,note_on,,32,0,8,,,,,,,,,7,,,37,67
74640,note_on,,3,0,6,,,,,,,,,5,,,64,85
74640,note_on,,3,0,5,,,,,,,,,4,,,70,56
74640,note_on,,32,0,7,,,,,,,,,6,,,49,67
74652,note_on,,156,0,4,,,,,,,,,3,,,66,0
74653,note_on,,13,0,5,,,,,,,,,4,,,70,0
74656,note_on,,3,0,5,,,,,,,,,4,,,71,85
74656,note_on,,16,0,2,,,,,,,,,1,,,49,0
74656,note_on,,16,0,7,,,,,,,,,6,,,49,0
74656,note_on,,16,0,8,,,,,,,,,7,,,37,0
74669,note_on,,13,0,5,,,,,,,,,4,,,71,0
74672,note_on,,3,0,5,,,,,,,,,4,,,73,62
74685,note_on,,13,0,5,,,,,,,,,4,,,73,0
74688,note_on,,192,0,3,,,,,,,,,2,,,78,0
74688,note_on,,32,0,7,,,,,,,,,6,,,50,85
74688,note_on,,32,0,2,,,,,,,,,1,,,50,85
74688,note_on,,32,0,8,,,,,,,,,7,,,38,85
74688,note_on,,3,0,5,,,,,,,,,4,,,66,65
74700,note_on,,60,0,6,,,,,,,,,5,,,64,0
74701,note_on,,13,0,5,,,,,,,,,4,,,66,0
74704,note_on,,3,0,5,,,,,,,,,4,,,71,56
74704,note_on,,16,0,8,,,,,,,,,7,,,38,0
74704,note_on,,16,0,7,,,,,,,,,6,,,50,0
74704,note_on,,16,0,2,,,,,,,,,1,,,50,0
74704,note_on,,4,0,6,,,,,,,,,5,,,62,85
74717,note_on,,13,0,5,,,,,,,,,4,,,71,0
74717,note_on,,13,0,6,,,,,,,,,5,,,62,0
74720,note_on,,3,0,5,,,,,,,,,4,,,74,85
74720,note_on,,3,0,6,,,,,,,,,5,,,61,85
74724,note_on,,72,0,4,,,,,,,,,3,,,78,70
74724,note_on,,36,0,3,,,,,,,,,2,,,78,70
74731,note_on,,190,0,1,,,,,,,,,0,,,66,0
74733,note_on,,13,0,5,,,,,,,,,4,,,74,0
74733,note_on,,13,0,6,,,,,,,,,5,,,61,0
74736,note_on,,32,0,7,,,,,,,,,6,,,51,72
74736,note_on,,12,0,3,,,,,,,,,2,,,78,0
74736,note_on,,32,0,8,,,,,,,,,7,,,39,72
74736,note_on,,32,0,2,,,,,,,,,1,,,51,72
74736,note_on,,0,0,3,,,,,,,,,2,,,83,85
74736,note_on,,0,0,4,,,,,,,,,3,,,83,85
74736,note_on,,3,0,6,,,,,,,,,5,,,59,85
74736,note_on,,3,0,5,,,,,,,,,4,,,78,65
74736,note_on,,12,0,4,,,,,,,,,3,,,78,0
74749,note_on,,13,0,5,,,,,,,,,4,,,78,0
74752,note_on,,16,0,2,,,,,,,,,1,,,51,0
74752,note_on,,3,0,5,,,,,,,,,4,,,76,69
74752,note_on,,16,0,7,,,,,,,,,6,,,51,0
74752,note_on,,16,0,8,,,,,,,,,7,,,39,0
74756,note_on,,20,0,6,,,,,,,,,5,,,59,0
74765,note_on,,13,0,5,,,,,,,,,4,,,76,0
74768,note_on,,3,0,5,,,,,,,,,4,,,78,59
74772,note_on,,0,0,3,,,,,,,,,2,,,78,85
74772,note_on,,0,0,4,,,,,,,,,3,,,78,85
74772,note_on,,36,0,4,,,,,,,,,3,,,83,0
74772,note_on,,36,0,3,,,,,,,,,2,,,83,0
74781,note_on,,13,0,5,,,,,,,,,4,,,78,0
74784,note_on,,3,0,5,,,,,,,,,4,,,71,77
74784,note_on,,32,0,2,,,,,,,,,1,,,52,85
74784,note_on,,12,0,4,,,,,,,,,3,,,78,0
74784,note_on,,0,0,3,,,,,,,,,2,,,79,85
74784,note_on,,12,0,3,,,,,,,,,2,,,78,0
74784,note_on,,32,0,8,,,,,,,,,7,,,40,85
74784,note_on,,32,0,7,,,,,,,,,6,,,52,85
74784,note_on,,28,0,6,,,,,,,,,5,,,59,85
74784,note_on,,0,0,4,,,,,,,,,3,,,79,85
74797,note_on,,13,0,5,,,,,,,,,4,,,71,0
74800,note_on,,16,0,8,,,,,,,,,7,,,40,0
74800,note_on,,0,0,3,,,,,,,,,2,,,78,85
74800,note_on,,3,0,5,,,,,,,,,4,,,69,85
74800,note_on,,16,0,7,,,,,,,,,6,,,52,0
74800,note_on,,16,0,4,,,,,,,,,3,,,79,0
74800,note_on,,0,0,4,,,,,,,,,3,,,78,85
74800,note_on,,16,0,2,,,,,,,,,1,,,52,0
74800,note_on,,16,0,3,,,,,,,,,2,,,79,0
74804,note_on,,20,0,6,,,,,,,,,5,,,59,0
74813,note_on,,13,0,5,,,,,,,,,4,,,69,0
74816,note_on,,0,0,3,,,,,,,,,2,,,76,85
74816,note_on,,16,0,4,,,,,,,,,3,,,78,0
74816,note_on,,0,0,4,,,,,,,,,3,,,76,85
74816,note_on,,16,0,3,,,,,,,,,2,,,78,0
74816,note_on,,3,0,5,,,,,,,,,4,,,67,85
74829,note_on,,13,0,5,,,,,,,,,4,,,67,0
74832,note_on,,32,0,8,,,,,,,,,7,,,42,74
74832,note_on,,0,0,4,,,,,,,,,3,,,75,85
74832,note_on,,32,0,2,,,,,,,,,1,,,54,74
74832,note_on,,16,0,4,,,,,,,,,3,,,76,0
74832,note_on,,32,0,7,,,,,,,,,6,,,54,74
74832,note_on,,0,0,3,,,,,,,,,2,,,75,85
74832,note_on,,16,0,3,,,,,,,,,2,,,76,0
74832,note_on,,28,0,6,,,,,,,,,5,,,66,85
74832,note_on,,3,0,5,,,,,,,,,4,,,69,85
74848,note_on,,16,0,3,,,,,,,,,2,,,75,0
74848,note_on,,16,0,8,,,,,,,,,7,,,42,0
74848,note_on,,16,0,7,,,,,,,,,6,,,54,0
74848,note_on,,0,0,4,,,,,,,,,3,,,76,85
74848,note_on,,16,0,2,,,,,,,,,1,,,54,0
74848,note_on,,16,0,4,,,,,,,,,3,,,75,0
74848,note_on,,0,0,3,,,,,,,,,2,,,76,85
74864,note_on,,0,0,4,,,,,,,,,3,,,78,85
74864,note_on,,16,0,4,,,,,,,,,3,,,76,0
74864,note_on,,0,0,3,,,,,,,,,2,,,78,85
74864,note_on,,16,0,3,,,,,,,,,2,,,76,0
74880,note_on,,16,0,4,,,,,,,,,3,,,78,0
74880,note_on,,0,0,4,,,,,,,,,3,,,71,85
74880,note_on,,32,0,7,,,,,,,,,6,,,55,85
74880,note_on,,32,0,8,,,,,,,,,7,,,43,85
74880,note_on,,16,0,3,,,,,,,,,2,,,78,0
74880,note_on,,0,0,3,,,,,,,,,2,,,71,85
74880,note_on,,32,0,2,,,,,,,,,1,,,55,85
74892,note_on,,60,0,5,,,,,,,,,4,,,69,0
74892,note_on,,60,0,6,,,,,,,,,5,,,66,0
74896,note_on,,4,0,5,,,,,,,,,4,,,67,85
74896,note_on,,16,0,2,,,,,,,,,1,,,55,0
74896,note_on,,0,0,3,,,,,,,,,2,,,76,85
74896,note_on,,16,0,8,,,,,,,,,7,,,43,0
74896,note_on,,16,0,7,,,,,,,,,6,,,55,0
74896,note_on,,4,0,6,,,,,,,,,5,,,59,85
74896,note_on,,16,0,3,,,,,,,,,2,,,71,0
74896,note_on,,16,0,4,,,,,,,,,3,,,71,0
74896,note_on,,0,0,4,,,,,,,,,3,,,76,85
74909,note_on,,13,0,6,,,,,,,,,5,,,59,0
74909,note_on,,13,0,5,,,,,,,,,4,,,67,0
74912,note_on,,3,0,5,,,,,,,,,4,,,71,85
74912,note_on,,3,0,6,,,,,,,,,5,,,64,85
74912,note_on,,0,0,4,,,,,,,,,3,,,79,85
74912,note_on,,16,0,3,,,,,,,,,2,,,76,0
74912,note_on,,0,0,3,,,,,,,,,2,,,79,85
74912,note_on,,16,0,4,,,,,,,,,3,,,76,0
74925,note_on,,13,0,5,,,,,,,,,4,,,71,0
74925,note_on,,13,0,6,,,,,,,,,5,,,64,0
74928,note_on,,32,0,7,,,,,,,,,6,,,56,93
74928,note_on,,3,0,5,,,,,,,,,4,,,76,85
74928,note_on,,16,0,3,,,,,,,,,2,,,79,0
74928,note_on,,0,0,3,,,,,,,,,2,,,83,85
74928,note_on,,32,0,2,,,,,,,,,1,,,56,93
74928,note_on,,3,0,6,,,,,,,,,5,,,64,85
74928,note_on,,16,0,4,,,,,,,,,3,,,79,0
74928,note_on,,32,0,8,,,,,,,,,7,,,44,93
74928,note_on,,0,0,4,,,,,,,,,3,,,83,85
74944,note_on,,0,0,4,,,,,,,,,3,,,81,85
74944,note_on,,0,0,3,,,,,,,,,2,,,81,85
74944,note_on,,16,0,3,,,,,,,,,2,,,83,0
74944,note_on,,16,0,8,,,,,,,,,7,,,44,0
74944,note_on,,16,0,7,,,,,,,,,6,,,56,0
74944,note_on,,16,0,2,,,,,,,,,1,,,56,0
74944,note_on,,16,0,4,,,,,,,,,3,,,83,0
74947,note_on,,19,0,6,,,,,,,,,5,,,64,0
74958,note_on,,30,0,5,,,,,,,,,4,,,76,0
74960,note_on,,16,0,3,,,,,,,,,2,,,81,0
74960,note_on,,16,0,4,,,,,,,,,3,,,81,0
74960,note_on,,0,0,4,,,,,,,,,3,,,83,85
74960,note_on,,0,0,3,,,,,,,,,2,,,83,85
74964,note_on,,6,0,5,,,,,,,,,4,,,71,85
74974,note_on,,10,0,5,,,,,,,,,4,,,71,0
74976,note_on,,16,0,4,,,,,,,,,3,,,83,0
74976,note_on,,32,0,8,,,,,,,,,7,,,45,85
74976,note_on,,0,0,4,,,,,,,,,3,,,76,85
74976,note_on,,29,0,6,,,,,,,,,5,,,64,85
74976,note_on,,0,0,3,,,,,,,,,2,,,76,85
74976,note_on,,2,0,5,,,,,,,,,4,,,73,56
74976,note_on,,32,0,2,,,,,,,,,1,,,57,85
74976,note_on,,16,0,3,,,,,,,,,2,,,83,0
74976,note_on,,32,0,7,,,,,,,,,6,,,57,85
74989,note_on,,13,0,5,,,,,,,,,4,,,73,0
74992,note_on,,3,0,5,,,,,,,,,4,,,71,78
74992,note_on,,16,0,2,,,,,,,,,1,,,57,0
74992,note_on,,16,0,3,,,,,,,,,2,,,76,0
74992,note_on,,16,0,8,,,,,,,,,7,,,45,0
74992,note_on,,0,0,3,,,,,,,,,2,,,74,85
74992,note_on,,0,0,4,,,,,,,,,3,,,74,85
74992,note_on,,16,0,4,,,,,,,,,3,,,76,0
74992,note_on,,16,0,7,,,,,,,,,6,,,57,0
74995,note_on,,19,0,6,,,,,,,,,5,,,64,0
75005,note_on,,13,0,5,,,,,,,,,4,,,71,0
75008,note_on,,0,0,3,,,,,,,,,2,,,73,85
75008,note_on,,16,0,3,,,,,,,,,2,,,74,0
75008,note_on,,0,0,4,,,,,,,,,3,,,73,85
75008,note_on,,16,0,4,,,,,,,,,3,,,74,0
75008,note_on,,3,0,5,,,,,,,,,4,,,69,85
75021,note_on,,13,0,5,,,,,,,,,4,,,69,0
75024,note_on,,16,0,3,,,,,,,,,2,,,73,0
75024,note_on,,32,0,2,,,,,,,,,1,,,59,85
75024,note_on,,3,0,5,,,,,,,,,4,,,68,57
75024,note_on,,0,0,4,,,,,,,,,3,,,74,85
75024,note_on,,16,0,4,,,,,,,,,3,,,73,0
75024,note_on,,29,0,6,,,,,,,,,5,,,71,85
75024,note_on,,0,0,3,,,,,,,,,2,,,74,85
75024,note_on,,32,0,8,,,,,,,,,7,,,47,85
75024,note_on,,32,0,7,,,,,,,,,6,,,59,85
75037,note_on,,13,0,5,,,,,,,,,4,,,68,0
75040,note_on,,16,0,7,,,,,,,,,6,,,59,0
75040,note_on,,16,0,2,,,,,,,,,1,,,59,0
75040,note_on,,16,0,8,,,,,,,,,7,,,47,0
75040,note_on,,3,0,5,,,,,,,,,4,,,69,85
75053,note_on,,13,0,5,,,,,,,,,4,,,69,0
75056,note_on,,3,0,5,,,,,,,,,4,,,71,56
75069,note_on,,13,0,5,,,,,,,,,4,,,71,0
75072,note_on,,32,0,8,,,,,,,,,7,,,49,74
75072,note_on,,32,0,7,,,,,,,,,6,,,61,74
75072,note_on,,32,0,2,,,,,,,,,1,,,61,74
75072,note_on,,3,0,5,,,,,,,,,4,,,64,85
75082,note_on,,58,0,6,,,,,,,,,5,,,71,0
75085,note_on,,13,0,5,,,,,,,,,4,,,64,0
75088,note_on,,16,0,8,,,,,,,,,7,,,49,0
75088,note_on,,16,0,7,,,,,,,,,6,,,61,0
75088,note_on,,16,0,2,,,,,,,,,1,,,61,0
75088,note_on,,64,0,4,,,,,,,,,3,,,73,85
75088,note_on,,64,0,3,,,,,,,,,2,,,73,85
75088,note_on,,6,0,6,,,,,,,,,5,,,64,85
75088,note_on,,3,0,5,,,,,,,,,4,,,69,85
75096,note_on,,8,0,3,,,,,,,,,2,,,74,0
75096,note_on,,8,0,4,,,,,,,,,3,,,74,0
75101,note_on,,13,0,5,,,,,,,,,4,,,69,0
75101,note_on,,13,0,6,,,,,,,,,5,,,64,0
75104,note_on,,3,0,6,,,,,,,,,5,,,69,85
75104,note_on,,8,0,4,,,,,,,,,3,,,73,0
75104,note_on,,3,0,5,,,,,,,,,4,,,73,56
75104,note_on,,0,0,4,,,,,,,,,3,,,76,85
75104,note_on,,8,0,3,,,,,,,,,2,,,73,0
75104,note_on,,0,0,3,,,,,,,,,2,,,76,85
75117,note_on,,13,0,5,,,,,,,,,4,,,73,0
75117,note_on,,13,0,6,,,,,,,,,5,,,69,0
75120,note_on,,0,0,3,,,,,,,,,2,,,81,85
75120,note_on,,16,0,3,,,,,,,,,2,,,76,0
75120,note_on,,3,0,6,,,,,,,,,5,,,69,85
75120,note_on,,0,0,4,,,,,,,,,3,,,81,85
75120,note_on,,16,0,4,,,,,,,,,3,,,76,0
75120,note_on,,32,0,7,,,,,,,,,6,,,49,68
75120,note_on,,32,0,8,,,,,,,,,7,,,37,68
75120,note_on,,32,0,2,,,,,,,,,1,,,49,68
75120,note_on,,3,0,5,,,,,,,,,4,,,76,62
75133,note_on,,13,0,5,,,,,,,,,4,,,76,0
75136,note_on,,16,0,2,,,,,,,,,1,,,49,0
75136,note_on,,16,0,8,,,,,,,,,7,,,37,0
75136,note_on,,16,0,7,,,,,,,,,6,,,49,0
75136,note_on,,3,0,5,,,,,,,,,4,,,74,85
75139,note_on,,19,0,6,,,,,,,,,5,,,69,0
75149,note_on,,13,0,5,,,,,,,,,4,,,74,0
75152,note_on,,3,0,5,,,,,,,,,4,,,76,85
75156,note_on,,36,0,3,,,,,,,,,2,,,81,0
75156,note_on,,0,0,4,,,,,,,,,3,,,76,85
75156,note_on,,0,0,3,,,,,,,,,2,,,76,85
75156,note_on,,36,0,4,,,,,,,,,3,,,81,0
75165,note_on,,13,0,5,,,,,,,,,4,,,76,0
75168,note_on,,12,0,3,,,,,,,,,2,,,76,0
75168,note_on,,32,0,2,,,,,,,,,1,,,50,85
75168,note_on,,0,0,4,,,,,,,,,3,,,78,85
75168,note_on,,3,0,5,,,,,,,,,4,,,69,85
75168,note_on,,32,0,8,,,,,,,,,7,,,38,85
75168,note_on,,32,0,7,,,,,,,,,6,,,50,85
75168,note_on,,29,0,6,,,,,,,,,5,,,69,85
75168,note_on,,0,0,3,,,,,,,,,2,,,78,85
75168,note_on,,12,0,4,,,,,,,,,3,,,76,0
75181,note_on,,13,0,5,,,,,,,,,4,,,69,0
75184,note_on,,0,0,4,,,,,,,,,3,,,76,85
75184,note_on,,16,0,4,,,,,,,,,3,,,78,0
75184,note_on,,16,0,3,,,,,,,,,2,,,78,0
75184,note_on,,16,0,8,,,,,,,,,7,,,38,0
75184,note_on,,16,0,2,,,,,,,,,1,,,50,0
75184,note_on,,0,0,3,,,,,,,,,2,,,76,85
75184,note_on,,3,0,5,,,,,,,,,4,,,68,56
75184,note_on,,16,0,7,,,,,,,,,6,,,50,0
75187,note_on,,19,0,6,,,,,,,,,5,,,69,0
75197,note_on,,13,0,5,,,,,,,,,4,,,68,0
75200,note_on,,0,0,3,,,,,,,,,2,,,74,85
75200,note_on,,16,0,3,,,,,,,,,2,,,76,0
75200,note_on,,3,0,5,,,,,,,,,4,,,66,62
75200,note_on,,16,0,4,,,,,,,,,3,,,76,0
75200,note_on,,0,0,4,,,,,,,,,3,,,74,85
75213,note_on,,13,0,5,,,,,,,,,4,,,66,0
75216,note_on,,32,0,8,,,,,,,,,7,,,40,76
75216,note_on,,3,0,5,,,,,,,,,4,,,68,67
75216,note_on,,32,0,2,,,,,,,,,1,,,52,76
75216,note_on,,0,0,4,,,,,,,,,3,,,73,85
75216,note_on,,32,0,7,,,,,,,,,6,,,52,76
75216,note_on,,29,0,6,,,,,,,,,5,,,64,85
75216,note_on,,16,0,3,,,,,,,,,2,,,74,0
75216,note_on,,0,0,3,,,,,,,,,2,,,73,85
75216,note_on,,16,0,4,,,,,,,,,3,,,74,0
75232,note_on,,0,0,3,,,,,,,,,2,,,74,85
75232,note_on,,0,0,4,,,,,,,,,3,,,74,85
75232,note_on,,16,0,8,,,,,,,,,7,,,40,0
75232,note_on,,16,0,4,,,,,,,,,3,,,73,0
75232,note_on,,16,0,3,,,,,,,,,2,,,73,0
75232,note_on,,16,0,7,,,,,,,,,6,,,52,0
75232,note_on,,16,0,2,,,,,,,,,1,,,52,0
75248,note_on,,0,0,4,,,,,,,,,3,,,76,85
75248,note_on,,16,0,3,,,,,,,,,2,,,74,0
75248,note_on,,0,0,3,,,,,,,,,2,,,76,85
75248,note_on,,16,0,4,,,,,,,,,3,,,74,0
75264,note_on,,16,0,4,,,,,,,,,3,,,76,0
75264,note_on,,32,0,2,,,,,,,,,1,,,54,76
75264,note_on,,32,0,8,,,,,,,,,7,,,42,76
75264,note_on,,0,0,3,,,,,,,,,2,,,69,85
75264,note_on,,32,0,7,,,,,,,,,6,,,54,76
75264,note_on,,0,0,4,,,,,,,,,3,,,69,85
75264,note_on,,16,0,3,,,,,,,,,2,,,76,0
75274,note_on,,58,0,6,,,,,,,,,5,,,64,0
75276,note_on,,60,0,5,,,,,,,,,4,,,68,0
75280,note_on,,16,0,8,,,,,,,,,7,,,42,0
75280,note_on,,16,0,7,,,,,,,,,6,,,54,0
75280,note_on,,6,0,6,,,,,,,,,5,,,57,85
75280,note_on,,16,0,2,,,,,,,,,1,,,54,0
75280,note_on,,4,0,5,,,,,,,,,4,,,66,60
75293,note_on,,13,0,6,,,,,,,,,5,,,57,0
75293,note_on,,13,0,5,,,,,,,,,4,,,66,0
75296,note_on,,3,0,5,,,,,,,,,4,,,69,85
75296,note_on,,3,0,6,,,,,,,,,5,,,62,85
75300,note_on,,36,0,3,,,,,,,,,2,,,69,0
75300,note_on,,36,0,4,,,,,,,,,3,,,69,0
75300,note_on,,0,0,4,,,,,,,,,3,,,68,85
75300,note_on,,0,0,3,,,,,,,,,2,,,68,85
75309,note_on,,13,0,5,,,,,,,,,4,,,69,0
75309,note_on,,13,0,6,,,,,,,,,5,,,62,0
75312,note_on,,3,0,6,,,,,,,,,5,,,69,85
75312,note_on,,12,0,4,,,,,,,,,3,,,68,0
75312,note_on,,32,0,8,,,,,,,,,7,,,30,76
75312,note_on,,32,0,2,,,,,,,,,1,,,42,76
75312,note_on,,12,0,3,,,,,,,,,2,,,68,0
75312,note_on,,0,0,3,,,,,,,,,2,,,66,85
75312,note_on,,32,0,7,,,,,,,,,6,,,42,76
75312,note_on,,0,0,4,,,,,,,,,3,,,66,85
75312,note_on,,3,0,5,,,,,,,,,4,,,74,85
75328,note_on,,16,0,2,,,,,,,,,1,,,42,0
75328,note_on,,0,0,3,,,,,,,,,2,,,69,85
75328,note_on,,16,0,3,,,,,,,,,2,,,66,0
75328,note_on,,16,0,7,,,,,,,,,6,,,42,0
75328,note_on,,16,0,8,,,,,,,,,7,,,30,0
75328,note_on,,0,0,4,,,,,,,,,3,,,69,85
75328,note_on,,16,0,4,,,,,,,,,3,,,66,0
75331,note_on,,19,0,6,,,,,,,,,5,,,69,0
75342,note_on,,30,0,5,,,,,,,,,4,,,74,0
75344,note_on,,16,0,3,,,,,,,,,2,,,69,0
75344,note_on,,0,0,3,,,,,,,,,2,,,74,85
75344,note_on,,16,0,4,,,,,,,,,3,,,69,0
75344,note_on,,0,0,4,,,,,,,,,3,,,74,85
75348,note_on,,6,0,5,,,,,,,,,4,,,69,85
75358,note_on,,10,0,5,,,,,,,,,4,,,69,0
75360,note_on,,0,0,3,,,,,,,,,2,,,74,85
75360,note_on,,32,0,7,,,,,,,,,6,,,44,76
75360,note_on,,2,0,5,,,,,,,,,4,,,71,85
75360,note_on,,32,0,2,,,,,,,,,1,,,44,76
75360,note_on,,29,0,6,,,,,,,,,5,,,64,85
75360,note_on,,32,0,8,,,,,,,,,7,,,32,76
75360,note_on,,0,0,4,,,,,,,,,3,,,74,85
75360,note_on,,16,0,4,,,,,,,,,3,,,74,0
75360,note_on,,16,0,3,,,,,,,,,2,,,74,0
75373,note_on,,13,0,5,,,,,,,,,4,,,71,0
75376,note_on,,3,0,5,,,,,,,,,4,,,68,56
75376,note_on,,16,0,7,,,,,,,,,6,,,44,0
75376,note_on,,16,0,2,,,,,,,,,1,,,44,0
75376,note_on,,16,0,8,,,,,,,,,7,,,32,0
75379,note_on,,19,0,6,,,,,,,,,5,,,64,0
75389,note_on,,13,0,5,,,,,,,,,4,,,68,0
75392,note_on,,3,0,5,,,,,,,,,4,,,71,85
75396,note_on,,36,0,4,,,,,,,,,3,,,74,0
75396,note_on,,36,0,3,,,,,,,,,2,,,74,0
75396,note_on,,0,0,4,,,,,,,,,3,,,73,85
75396,note_on,,0,0,3,,,,,,,,,2,,,73,85
75399,note_on,,3,0,3,,,,,,,,,2,,,73,0
75400,note_on,,1,0,3,,,,,,,,,2,,,71,85
75400,note_on,,0,0,4,,,,,,,,,3,,,71,85
75400,note_on,,4,0,4,,,,,,,,,3,,,73,0
75403,note_on,,3,0,3,,,,,,,,,2,,,71,0
75404,note_on,,0,0,4,,,,,,,,,3,,,69,85
75404,note_on,,1,0,3,,,,,,,,,2,,,69,85
75404,note_on,,4,0,4,,,,,,,,,3,,,71,0
75405,note_on,,13,0,5,,,,,,,,,4,,,71,0
75407,note_on,,3,0,3,,,,,,,,,2,,,69,0
75408,note_on,,32,0,8,,,,,,,,,7,,,44,76
75408,note_on,,1,0,3,,,,,,,,,2,,,68,85
75408,note_on,,32,0,2,,,,,,,,,1,,,56,76
75408,note_on,,29,0,6,,,,,,,,,5,,,71,85
75408,note_on,,3,0,5,,,,,,,,,4,,,76,85
75408,note_on,,32,0,7,,,,,,,,,6,,,56,76
75408,note_on,,4,0,4,,,,,,,,,3,,,69,0
75408,note_on,,0,0,4,,,,,,,,,3,,,68,85
75419,note_on,,11,0,3,,,,,,,,,2,,,68,0
75424,note_on,,0,0,4,,,,,,,,,3,,,71,85
75424,note_on,,16,0,8,,,,,,,,,7,,,44,0
75424,note_on,,16,0,4,,,,,,,,,3,,,68,0
75424,note_on,,5,0,3,,,,,,,,,2,,,71,85
75424,note_on,,16,0,7,,,,,,,,,6,,,56,0
75424,note_on,,16,0,2,,,,,,,,,1,,,56,0
75427,note_on,,19,0,6,,,,,,,,,5,,,71,0
75438,note_on,,30,0,5,,,,,,,,,4,,,76,0
75440,note_on,,0,0,3,,,,,,,,,2,,,76,85
75440,note_on,,16,0,4,,,,,,,,,3,,,71,0
75440,note_on,,0,0,4,,,,,,,,,3,,,76,85
75440,note_on,,16,0,3,,,,,,,,,2,,,71,0
75444,note_on,,6,0,5,,,,,,,,,4,,,71,85
75454,note_on,,10,0,5,,,,,,,,,4,,,71,0
75456,note_on,,32,0,7,,,,,,,,,6,,,57,76
75456,note_on,,29,0,6,,,,,,,,,5,,,69,85
75456,note_on,,0,0,3,,,,,,,,,2,,,76,85
75456,note_on,,16,0,3,,,,,,,,,2,,,76,0
75456,note_on,,32,0,2,,,,,,,,,1,,,57,76
75456,note_on,,32,0,8,,,,,,,,,7,,,45,76
75456,note_on,,16,0,4,,,,,,,,,3,,,76,0
75456,note_on,,2,0,5,,,,,,,,,4,,,73,56
75456,note_on,,0,0,4,,,,,,,,,3,,,76,85
75469,note_on,,13,0,5,,,,,,,,,4,,,73,0
75472,note_on,,16,0,2,,,,,,,,,1,,,57,0
75472,note_on,,16,0,7,,,,,,,,,6,,,57,0
75472,note_on,,3,0,5,,,,,,,,,4,,,69,85
75472,note_on,,16,0,8,,,,,,,,,7,,,45,0
75475,note_on,,19,0,6,,,,,,,,,5,,,69,0
75485,note_on,,13,0,5,,,,,,,,,4,,,69,0
75488,note_on,,3,0,5,,,,,,,,,4,,,73,66
75492,note_on,,36,0,4,,,,,,,,,3,,,76,0
75492,note_on,,36,0,3,,,,,,,,,2,,,76,0
75492,note_on,,0,0,3,,,,,,,,,2,,,74,85
75492,note_on,,0,0,4,,,,,,,,,3,,,74,85
75496,note_on,,4,0,4,,,,,,,,,3,,,74,0
75496,note_on,,4,0,3,,,,,,,,,2,,,74,0
75496,note_on,,0,0,3,,,,,,,,,2,,,73,85
75496,note_on,,0,0,4,,,,,,,,,3,,,73,85
75500,note_on,,4,0,4,,,,,,,,,3,,,73,0
75500,note_on,,0,0,4,,,,,,,,,3,,,71,85
75500,note_on,,4,0,3,,,,,,,,,2,,,73,0
75500,note_on,,0,0,3,,,,,,,,,2,,,71,85
75501,note_on,,13,0,5,,,,,,,,,4,,,73,0
75504,note_on,,3,0,5,,,,,,,,,4,,,78,69
75504,note_on,,29,0,6,,,,,,,,,5,,,73,85
75504,note_on,,32,0,2,,,,,,,,,1,,,45,76
75504,note_on,,32,0,8,,,,,,,,,7,,,33,76
75504,note_on,,4,0,4,,,,,,,,,3,,,71,0
75504,note_on,,4,0,3,,,,,,,,,2,,,71,0
75504,note_on,,0,0,3,,,,,,,,,2,,,69,85
75504,note_on,,0,0,4,,,,,,,,,3,,,69,85
75504,note_on,,32,0,7,,,,,,,,,6,,,45,76
75520,note_on,,16,0,8,,,,,,,,,7,,,33,0
75520,note_on,,16,0,7,,,,,,,,,6,,,45,0
75520,note_on,,16,0,3,,,,,,,,,2,,,69,0
75520,note_on,,0,0,3,,,,,,,,,2,,,73,85
75520,note_on,,16,0,4,,,,,,,,,3,,,69,0
75520,note_on,,0,0,4,,,,,,,,,3,,,73,85
75520,note_on,,16,0,2,,,,,,,,,1,,,45,0
75523,note_on,,19,0,6,,,,,,,,,5,,,73,0
75534,note_on,,30,0,5,,,,,,,,,4,,,78,0
75536,note_on,,16,0,4,,,,,,,,,3,,,73,0
75536,note_on,,0,0,4,,,,,,,,,3,,,78,85
75536,note_on,,16,0,3,,,,,,,,,2,,,73,0
75536,note_on,,0,0,3,,,,,,,,,2,,,78,85
75540,note_on,,6,0,5,,,,,,,,,4,,,73,67
75550,note_on,,10,0,5,,,,,,,,,4,,,73,0
75552,note_on,,32,0,7,,,,,,,,,6,,,47,76
75552,note_on,,32,0,2,,,,,,,,,1,,,47,76
75552,note_on,,2,0,5,,,,,,,,,4,,,74,85
75552,note_on,,29,0,6,,,,,,,,,5,,,66,85
75552,note_on,,32,0,8,,,,,,,,,7,,,35,76
75552,note_on,,0,0,3,,,,,,,,,2,,,78,85
75552,note_on,,16,0,3,,,,,,,,,2,,,78,0
75552,note_on,,0,0,4,,,,,,,,,3,,,78,85
75552,note_on,,16,0,4,,,,,,,,,3,,,78,0
75565,note_on,,13,0,5,,,,,,,,,4,,,74,0
75568,note_on,,16,0,7,,,,,,,,,6,,,47,0
75568,note_on,,3,0,5,,,,,,,,,4,,,71,72
75568,note_on,,16,0,2,,,,,,,,,1,,,47,0
75568,note_on,,16,0,8,,,,,,,,,7,,,35,0
75571,note_on,,19,0,6,,,,,,,,,5,,,66,0
75581,note_on,,13,0,5,,,,,,,,,4,,,71,0
75584,note_on,,3,0,5,,,,,,,,,4,,,74,85
75588,note_on,,0,0,3,,,,,,,,,2,,,76,85
75588,note_on,,36,0,4,,,,,,,,,3,,,78,0
75588,note_on,,36,0,3,,,,,,,,,2,,,78,0
75588,note_on,,0,0,4,,,,,,,,,3,,,76,85
75592,note_on,,0,0,4,,,,,,,,,3,,,74,85
75592,note_on,,4,0,3,,,,,,,,,2,,,76,0
75592,note_on,,0,0,3,,,,,,,,,2,,,74,85
75592,note_on,,4,0,4,,,,,,,,,3,,,76,0
75596,note_on,,0,0,3,,,,,,,,,2,,,73,85
75596,note_on,,4,0,4,,,,,,,,,3,,,74,0
75596,note_on,,0,0,4,,,,,,,,,3,,,73,85
75596,note_on,,4,0,3,,,,,,,,,2,,,74,0
75597,note_on,,13,0,5,,,,,,,,,4,,,74,0
75600,note_on,,0,0,3,,,,,,,,,2,,,71,85
75600,note_on,,29,0,6,,,,,,,,,5,,,74,85
75600,note_on,,32,0,7,,,,,,,,,6,,,59,76
75600,note_on,,32,0,8,,,,,,,,,7,,,47,76
75600,note_on,,3,0,5,,,,,,,,,4,,,80,72
75600,note_on,,4,0,4,,,,,,,,,3,,,73,0
75600,note_on,,4,0,3,,,,,,,,,2,,,73,0
75600,note_on,,32,0,2,,,,,,,,,1,,,59,76
75600,note_on,,0,0,4,,,,,,,,,3,,,71,85
75616,note_on,,16,0,2,,,,,,,,,1,,,59,0
75616,note_on,,0,0,4,,,,,,,,,3,,,74,85
75616,note_on,,16,0,4,,,,,,,,,3,,,71,0
75616,note_on,,16,0,7,,,,,,,,,6,,,59,0
75616,note_on,,16,0,3,,,,,,,,,2,,,71,0
75616,note_on,,16,0,8,,,,,,,,,7,,,47,0
75616,note_on,,0,0,3,,,,,,,,,2,,,74,85
75619,note_on,,19,0,6,,,,,,,,,5,,,74,0
75630,note_on,,30,0,5,,,,,,,,,4,,,80,0
75632,note_on,,0,0,3,,,,,,,,,2,,,80,85
75632,note_on,,16,0,3,,,,,,,,,2,,,74,0
75632,note_on,,16,0,4,,,,,,,,,3,,,74,0
75632,note_on,,0,0,4,,,,,,,,,3,,,80,85
75636,note_on,,6,0,5,,,,,,,,,4,,,74,85
75646,note_on,,10,0,5,,,,,,,,,4,,,74,0
75648,note_on,,32,0,7,,,,,,,,,6,,,61,76
75648,note_on,,29,0,6,,,,,,,,,5,,,73,85
75648,note_on,,0,0,4,,,,,,,,,3,,,80,85
75648,note_on,,0,0,3,,,,,,,,,2,,,80,85
75648,note_on,,16,0,3,,,,,,,,,2,,,80,0
75648,note_on,,2,0,5,,,,,,,,,4,,,76,85
75648,note_on,,32,0,8,,,,,,,,,7,,,49,76
75648,note_on,,32,0,2,,,,,,,,,1,,,61,76
75648,note_on,,16,0,4,,,,,,,,,3,,,80,0
75661,note_on,,13,0,5,,,,,,,,,4,,,76,0
75664,note_on,,16,0,8,,,,,,,,,7,,,49,0
75664,note_on,,16,0,2,,,,,,,,,1,,,61,0
75664,note_on,,16,0,7,,,,,,,,,6,,,61,0
75664,note_on,,3,0,5,,,,,,,,,4,,,73,64
75667,note_on,,19,0,6,,,,,,,,,5,,,73,0
75677,note_on,,13,0,5,,,,,,,,,4,,,73,0
75680,note_on,,3,0,5,,,,,,,,,4,,,76,85
75684,note_on,,36,0,3,,,,,,,,,2,,,80,0
75684,note_on,,0,0,3,,,,,,,,,2,,,78,85
75684,note_on,,36,0,4,,,,,,,,,3,,,80,0
75684,note_on,,0,0,4,,,,,,,,,3,,,78,85
75688,note_on,,0,0,4,,,,,,,,,3,,,76,85
75688,note_on,,4,0,4,,,,,,,,,3,,,78,0
75688,note_on,,4,0,3,,,,,,,,,2,,,78,0
75688,note_on,,0,0,3,,,,,,,,,2,,,76,85
75692,note_on,,0,0,4,,,,,,,,,3,,,74,85
75692,note_on,,4,0,4,,,,,,,,,3,,,76,0
75692,note_on,,0,0,3,,,,,,,,,2,,,74,85
75692,note_on,,4,0,3,,,,,,,,,2,,,76,0
75693,note_on,,13,0,5,,,,,,,,,4,,,76,0
75696,note_on,,0,0,4,,,,,,,,,3,,,73,85
75696,note_on,,4,0,4,,,,,,,,,3,,,74,0
75696,note_on,,32,0,8,,,,,,,,,7,,,37,76
75696,note_on,,4,0,3,,,,,,,,,2,,,74,0
75696,note_on,,0,0,3,,,,,,,,,2,,,73,85
75696,note_on,,32,0,2,,,,,,,,,1,,,49,76
75696,note_on,,29,0,6,,,,,,,,,5,,,76,85
75696,note_on,,3,0,5,,,,,,,,,4,,,81,85
75696,note_on,,32,0,7,,,,,,,,,6,,,49,76
75712,note_on,,16,0,4,,,,,,,,,3,,,73,0
75712,note_on,,16,0,8,,,,,,,,,7,,,37,0
75712,note_on,,0,0,3,,,,,,,,,2,,,76,85
75712,note_on,,16,0,3,,,,,,,,,2,,,73,0
75712,note_on,,16,0,2,,,,,,,,,1,,,49,0
75712,note_on,,0,0,4,,,,,,,,,3,,,76,85
75712,note_on,,16,0,7,,,,,,,,,6,,,49,0
75715,note_on,,19,0,6,,,,,,,,,5,,,76,0
75726,note_on,,30,0,5,,,,,,,,,4,,,81,0
75728,note_on,,16,0,3,,,,,,,,,2,,,76,0
75728,note_on,,0,0,4,,,,,,,,,3,,,81,85
75728,note_on,,16,0,4,,,,,,,,,3,,,76,0
75728,note_on,,0,0,3,,,,,,,,,2,,,81,85
75732,note_on,,6,0,5,,,,,,,,,4,,,76,85
75742,note_on,,10,0,5,,,,,,,,,4,,,76,0
75744,note_on,,2,0,5,,,,,,,,,4,,,78,56
75744,note_on,,16,0,3,,,,,,,,,2,,,81,0
75744,note_on,,0,0,3,,,,,,,,,2,,,81,85
75744,note_on,,32,0,2,,,,,,,,,1,,,50,76
75744,note_on,,32,0,7,,,,,,,,,6,,,50,76
75744,note_on,,0,0,4,,,,,,,,,3,,,81,85
75744,note_on,,29,0,6,,,,,,,,,5,,,69,85
75744,note_on,,16,0,4,,,,,,,,,3,,,81,0
75744,note_on,,32,0,8,,,,,,,,,7,,,38,76
75757,note_on,,13,0,5,,,,,,,,,4,,,78,0
75760,note_on,,16,0,7,,,,,,,,,6,,,50,0
75760,note_on,,16,0,2,,,,,,,,,1,,,50,0
75760,note_on,,16,0,8,,,,,,,,,7,,,38,0
75760,note_on,,3,0,5,,,,,,,,,4,,,74,85
75763,note_on,,19,0,6,,,,,,,,,5,,,69,0
75773,note_on,,13,0,5,,,,,,,,,4,,,74,0
75776,note_on,,3,0,5,,,,,,,,,4,,,78,70
75780,note_on,,36,0,4,,,,,,,,,3,,,81,0
75780,note_on,,0,0,4,,,,,,,,,3,,,79,85
75780,note_on,,0,0,3,,,,,,,,,2,,,79,85
75780,note_on,,36,0,3,,,,,,,,,2,,,81,0
75784,note_on,,4,0,3,,,,,,,,,2,,,79,0
75784,note_on,,0,0,4,,,,,,,,,3,,,78,85
75784,note_on,,4,0,4,,,,,,,,,3,,,79,0
75784,note_on,,0,0,3,,,,,,,,,2,,,78,85
75788,note_on,,4,0,4,,,,,,,,,3,,,78,0
75788,note_on,,0,0,4,,,,,,,,,3,,,76,85
75788,note_on,,0,0,3,,,,,,,,,2,,,76,85
75788,note_on,,4,0,3,,,,,,,,,2,,,78,0
75789,note_on,,13,0,5,,,,,,,,,4,,,78,0
75792,note_on,,32,0,8,,,,,,,,,7,,,50,76
75792,note_on,,3,0,5,,,,,,,,,4,,,83,85
75792,note_on,,0,0,4,,,,,,,,,3,,,74,85
75792,note_on,,4,0,3,,,,,,,,,2,,,76,0
75792,note_on,,29,0,6,,,,,,,,,5,,,66,85
75792,note_on,,32,0,2,,,,,,,,,1,,,62,76
75792,note_on,,0,0,3,,,,,,,,,2,,,74,85
75792,note_on,,32,0,7,,,,,,,,,6,,,62,76
75792,note_on,,4,0,4,,,,,,,,,3,,,76,0
75808,note_on,,16,0,2,,,,,,,,,1,,,62,0
75808,note_on,,0,0,3,,,,,,,,,2,,,78,85
75808,note_on,,16,0,3,,,,,,,,,2,,,74,0
75808,note_on,,0,0,4,,,,,,,,,3,,,78,85
75808,note_on,,16,0,4,,,,,,,,,3,,,74,0
75808,note_on,,16,0,7,,,,,,,,,6,,,62,0
75808,note_on,,16,0,8,,,,,,,,,7,,,50,0
75811,note_on,,19,0,6,,,,,,,,,5,,,66,0
75822,note_on,,30,0,5,,,,,,,,,4,,,83,0
75824,note_on,,16,0,4,,,,,,,,,3,,,78,0
75824,note_on,,0,0,4,,,,,,,,,3,,,83,85
75824,note_on,,16,0,3,,,,,,,,,2,,,78,0
75824,note_on,,0,0,3,,,,,,,,,2,,,83,85
75828,note_on,,6,0,5,,,,,,,,,4,,,78,72
75838,note_on,,10,0,5,,,,,,,,,4,,,78,0
75840,note_on,,29,0,6,,,,,,,,,5,,,71,85
75840,note_on,,32,0,2,,,,,,,,,1,,,62,76
75840,note_on,,2,0,5,,,,,,,,,4,,,80,67
75840,note_on,,0,0,3,,,,,,,,,2,,,76,85
75840,note_on,,16,0,3,,,,,,,,,2,,,83,0
75840,note_on,,0,0,4,,,,,,,,,3,,,76,85
75840,note_on,,16,0,4,,,,,,,,,3,,,83,0
75840,note_on,,32,0,8,,,,,,,,,7,,,50,76
75840,note_on,,32,0,7,,,,,,,,,6,,,62,76
75853,note_on,,13,0,5,,,,,,,,,4,,,80,0
75856,note_on,,16,0,2,,,,,,,,,1,,,62,0
75856,note_on,,16,0,3,,,,,,,,,2,,,76,0
75856,note_on,,16,0,7,,,,,,,,,6,,,62,0
75856,note_on,,0,0,3,,,,,,,,,2,,,78,85
75856,note_on,,16,0,8,,,,,,,,,7,,,50,0
75856,note_on,,16,0,4,,,,,,,,,3,,,76,0
75856,note_on,,0,0,4,,,,,,,,,3,,,78,85
75856,note_on,,3,0,5,,,,,,,,,4,,,78,61
75859,note_on,,19,0,6,,,,,,,,,5,,,71,0
75869,note_on,,13,0,5,,,,,,,,,4,,,78,0
75872,note_on,,3,0,5,,,,,,,,,4,,,76,85
75872,note_on,,16,0,3,,,,,,,,,2,,,78,0
75872,note_on,,0,0,3,,,,,,,,,2,,,80,85
75872,note_on,,16,0,4,,,,,,,,,3,,,78,0
75872,note_on,,0,0,4,,,,,,,,,3,,,80,85
75885,note_on,,13,0,5,,,,,,,,,4,,,76,0
75888,note_on,,32,0,7,,,,,,,,,6,,,61,76
75888,note_on,,32,0,8,,,,,,,,,7,,,49,76
75888,note_on,,32,0,2,,,,,,,,,1,,,61,76
75888,note_on,,16,0,3,,,,,,,,,2,,,80,0
75888,note_on,,16,0,4,,,,,,,,,3,,,80,0
75888,note_on,,0,0,4,,,,,,,,,3,,,81,85
75888,note_on,,3,0,5,,,,,,,,,4,,,81,85
75888,note_on,,0,0,3,,,,,,,,,2,,,81,85
75888,note_on,,29,0,6,,,,,,,,,5,,,69,85
75904,note_on,,16,0,2,,,,,,,,,1,,,61,0
75904,note_on,,16,0,7,,,,,,,,,6,,,61,0
75904,note_on,,16,0,8,,,,,,,,,7,,,49,0
75907,note_on,,19,0,6,,,,,,,,,5,,,69,0
75918,note_on,,30,0,5,,,,,,,,,4,,,81,0
75924,note_on,,6,0,5,,,,,,,,,4,,,76,85
75934,note_on,,10,0,5,,,,,,,,,4,,,76,0
75936,note_on,,2,0,5,,,,,,,,,4,,,78,67
75936,note_on,,32,0,2,,,,,,,,,1,,,62,76
75936,note_on,,32,0,8,,,,,,,,,7,,,50,76
75936,note_on,,32,0,7,,,,,,,,,6,,,62,76
75936,note_on,,29,0,6,,,,,,,,,5,,,74,85
75949,note_on,,13,0,5,,,,,,,,,4,,,78,0
75952,note_on,,16,0,7,,,,,,,,,6,,,62,0
75952,note_on,,3,0,5,,,,,,,,,4,,,76,85
75952,note_on,,16,0,2,,,,,,,,,1,,,62,0
75952,note_on,,16,0,8,,,,,,,,,7,,,50,0
75955,note_on,,19,0,6,,,,,,,,,5,,,74,0
75965,note_on,,13,0,5,,,,,,,,,4,,,76,0
75968,note_on,,3,0,5,,,,,,,,,4,,,74,85
75981,note_on,,13,0,5,,,,,,,,,4,,,74,0
75984,note_on,,32,0,7,,,,,,,,,6,,,64,76
75984,note_on,,32,0,8,,,,,,,,,7,,,52,76
75984,note_on,,29,0,6,,,,,,,,,5,,,68,85
75984,note_on,,3,0,5,,,,,,,,,4,,,73,64
75984,note_on,,32,0,2,,,,,,,,,1,,,64,76
75997,note_on,,13,0,5,,,,,,,,,4,,,73,0
76000,note_on,,3,0,5,,,,,,,,,4,,,74,85
76000,note_on,,16,0,7,,,,,,,,,6,,,64,0
76000,note_on,,16,0,2,,,,,,,,,1,,,64,0
76000,note_on,,16,0,8,,,,,,,,,7,,,52,0
76003,note_on,,19,0,6,,,,,,,,,5,,,68,0
76013,note_on,,13,0,5,,,,,,,,,4,,,74,0
76016,note_on,,3,0,5,,,,,,,,,4,,,76,85
76029,note_on,,13,0,5,,,,,,,,,4,,,76,0
76032,note_on,,32,0,7,,,,,,,,,6,,,66,62
76032,note_on,,0,0,3,,,,,,,,,2,,,81,85
76032,note_on,,144,0,3,,,,,,,,,2,,,81,0
76032,note_on,,32,0,8,,,,,,,,,7,,,54,62
76032,note_on,,0,0,4,,,,,,,,,3,,,81,85
76032,note_on,,3,0,5,,,,,,,,,4,,,69,85
76032,note_on,,32,0,2,,,,,,,,,1,,,66,62
76032,note_on,,29,0,6,,,,,,,,,5,,,69,85
76032,note_on,,144,0,4,,,,,,,,,3,,,81,0
76043,note_on,,11,0,7,,,,,,,,,6,,,66,0
76043,note_on,,11,0,8,,,,,,,,,7,,,54,0
76043,note_on,,11,0,2,,,,,,,,,1,,,66,0
76045,note_on,,13,0,6,,,,,,,,,5,,,69,0
76048,note_on,,3,0,6,,,,,,,,,5,,,68,85
76048,note_on,,5,0,8,,,,,,,,,7,,,52,85
76048,note_on,,5,0,7,,,,,,,,,6,,,64,85
76048,note_on,,5,0,2,,,,,,,,,1,,,64,85
76052,note_on,,20,0,5,,,,,,,,,4,,,69,0
76059,note_on,,11,0,8,,,,,,,,,7,,,52,0
76059,note_on,,11,0,7,,,,,,,,,6,,,64,0
76059,note_on,,11,0,2,,,,,,,,,1,,,64,0
76061,note_on,,13,0,6,,,,,,,,,5,,,68,0
76064,note_on,,5,0,7,,,,,,,,,6,,,62,85
76064,note_on,,5,0,2,,,,,,,,,1,,,62,85
76064,note_on,,3,0,6,,,,,,,,,5,,,66,85
76064,note_on,,5,0,8,,,,,,,,,7,,,50,85
76075,note_on,,11,0,8,,,,,,,,,7,,,50,0
76075,note_on,,11,0,7,,,,,,,,,6,,,62,0
76075,note_on,,11,0,2,,,,,,,,,1,,,62,0
76077,note_on,,13,0,6,,,,,,,,,5,,,66,0
76080,note_on,,5,0,8,,,,,,,,,7,,,49,64
76080,note_on,,3,0,6,,,,,,,,,5,,,64,85
76080,note_on,,5,0,2,,,,,,,,,1,,,61,64
76080,note_on,,5,0,7,,,,,,,,,6,,,61,64
76080,note_on,,28,0,5,,,,,,,,,4,,,73,66
76091,note_on,,11,0,7,,,,,,,,,6,,,61,0
76091,note_on,,11,0,8,,,,,,,,,7,,,49,0
76091,note_on,,11,0,2,,,,,,,,,1,,,61,0
76093,note_on,,13,0,6,,,,,,,,,5,,,64,0
76096,note_on,,5,0,7,,,,,,,,,6,,,63,72
76096,note_on,,3,0,6,,,,,,,,,5,,,66,85
76096,note_on,,5,0,8,,,,,,,,,7,,,51,72
76096,note_on,,5,0,2,,,,,,,,,1,,,63,72
76100,note_on,,20,0,5,,,,,,,,,4,,,73,0
76107,note_on,,11,0,7,,,,,,,,,6,,,63,0
76107,note_on,,11,0,8,,,,,,,,,7,,,51,0
76107,note_on,,11,0,2,,,,,,,,,1,,,63,0
76109,note_on,,13,0,6,,,,,,,,,5,,,66,0
76112,note_on,,5,0,7,,,,,,,,,6,,,64,85
76112,note_on,,3,0,6,,,,,,,,,5,,,68,85
76112,note_on,,5,0,8,,,,,,,,,7,,,52,85
76112,note_on,,5,0,2,,,,,,,,,1,,,64,85
76123,note_on,,11,0,7,,,,,,,,,6,,,64,0
76123,note_on,,11,0,8,,,,,,,,,7,,,52,0
76123,note_on,,11,0,2,,,,,,,,,1,,,64,0
76125,note_on,,13,0,6,,,,,,,,,5,,,68,0
76128,note_on,,5,0,8,,,,,,,,,7,,,51,72
76128,note_on,,0,0,4,,,,,,,,,3,,,81,85
76128,note_on,,0,0,3,,,,,,,,,2,,,81,85
76128,note_on,,96,0,3,,,,,,,,,2,,,81,0
76128,note_on,,28,0,5,,,,,,,,,4,,,71,85
76128,note_on,,5,0,7,,,,,,,,,6,,,63,72
76128,note_on,,96,0,4,,,,,,,,,3,,,81,0
76128,note_on,,3,0,6,,,,,,,,,5,,,66,85
76128,note_on,,5,0,2,,,,,,,,,1,,,63,72
76144,note_on,,0,0,3,,,,,,,,,2,,,80,85
76144,note_on,,16,0,3,,,,,,,,,2,,,81,0
76144,note_on,,0,0,4,,,,,,,,,3,,,80,85
76144,note_on,,16,0,4,,,,,,,,,3,,,81,0
76148,note_on,,20,0,5,,,,,,,,,4,,,71,0
76160,note_on,,0,0,3,,,,,,,,,2,,,78,85
76160,note_on,,16,0,3,,,,,,,,,2,,,80,0
76160,note_on,,16,0,4,,,,,,,,,3,,,80,0
76160,note_on,,0,0,4,,,,,,,,,3,,,78,85
76161,note_on,,33,0,2,,,,,,,,,1,,,63,0
76161,note_on,,33,0,7,,,,,,,,,6,,,63,0
76161,note_on,,33,0,8,,,,,,,,,7,,,51,0
76167,note_on,,39,0,6,,,,,,,,,5,,,66,0
76176,note_on,,0,0,4,,,,,,,,,3,,,83,85
76176,note_on,,16,0,3,,,,,,,,,2,,,78,0
76176,note_on,,0,0,3,,,,,,,,,2,,,83,85
76176,note_on,,28,0,5,,,,,,,,,4,,,75,70
76176,note_on,,16,0,4,,,,,,,,,3,,,78,0
76192,note_on,,16,0,3,,,,,,,,,2,,,83,0
76192,note_on,,16,0,4,,,,,,,,,3,,,83,0
76192,note_on,,0,0,3,,,,,,,,,2,,,85,85
76192,note_on,,0,0,4,,,,,,,,,3,,,85,85
76196,note_on,,20,0,5,,,,,,,,,4,,,75,0
76200,note_on,,33,0,6,,,,,,,,,5,,,71,85
76200,note_on,,39,0,2,,,,,,,,,1,,,59,85
76200,note_on,,39,0,8,,,,,,,,,7,,,47,85
76200,note_on,,39,0,7,,,,,,,,,6,,,59,85
76208,note_on,,0,0,3,,,,,,,,,2,,,81,85
76208,note_on,,16,0,3,,,,,,,,,2,,,85,0
76208,note_on,,0,0,4,,,,,,,,,3,,,81,85
76208,note_on,,16,0,4,,,,,,,,,3,,,85,0
76216,note_on,,16,0,2,,,,,,,,,1,,,59,0
76216,note_on,,16,0,7,,,,,,,,,6,,,59,0
76216,note_on,,16,0,8,,,,,,,,,7,,,47,0
76219,note_on,,19,0,6,,,,,,,,,5,,,71,0
76224,note_on,,28,0,5,,,,,,,,,4,,,76,79
76224,note_on,,0,0,3,,,,,,,,,2,,,80,85
76224,note_on,,8,0,7,,,,,,,,,6,,,64,74
76224,note_on,,8,0,2,,,,,,,,,1,,,64,74
76224,note_on,,8,0,8,,,,,,,,,7,,,52,74
76224,note_on,,5,0,6,,,,,,,,,5,,,71,85
76224,note_on,,16,0,3,,,,,,,,,2,,,81,0
76224,note_on,,0,0,4,,,,,,,,,3,,,80,85
76224,note_on,,16,0,4,,,,,,,,,3,,,81,0
76240,note_on,,16,0,4,,,,,,,,,3,,,80,0
76240,note_on,,0,0,4,,,,,,,,,3,,,78,85
76240,note_on,,0,0,3,,,,,,,,,2,,,78,85
76240,note_on,,16,0,3,,,,,,,,,2,,,80,0
76248,note_on,,24,0,8,,,,,,,,,7,,,52,0
76248,note_on,,24,0,7,,,,,,,,,6,,,64,0
76248,note_on,,24,0,2,,,,,,,,,1,,,64,0
76253,note_on,,29,0,6,,,,,,,,,5,,,71,0
76254,note_on,,30,0,5,,,,,,,,,4,,,76,0
76256,note_on,,0,0,3,,,,,,,,,2,,,76,85
76256,note_on,,16,0,4,,,,,,,,,3,,,78,0
76256,note_on,,0,0,4,,,,,,,,,3,,,76,85
76256,note_on,,16,0,3,,,,,,,,,2,,,78,0
76260,note_on,,6,0,5,,,,,,,,,4,,,71,85
76260,note_on,,12,0,7,,,,,,,,,6,,,62,85
76260,note_on,,7,0,6,,,,,,,,,5,,,68,85
76260,note_on,,12,0,2,,,,,,,,,1,,,62,85
76260,note_on,,12,0,8,,,,,,,,,7,,,50,85
76268,note_on,,8,0,2,,,,,,,,,1,,,62,0
76268,note_on,,8,0,8,,,,,,,,,7,,,50,0
76268,note_on,,8,0,7,,,,,,,,,6,,,62,0
76270,note_on,,10,0,5,,,,,,,,,4,,,71,0
76270,note_on,,10,0,6,,,,,,,,,5,,,68,0
76272,note_on,,0,0,4,,,,,,,,,3,,,81,85
76272,note_on,,2,0,5,,,,,,,,,4,,,76,79
76272,note_on,,0,0,3,,,,,,,,,2,,,81,85
76272,note_on,,4,0,2,,,,,,,,,1,,,61,70
76272,note_on,,16,0,3,,,,,,,,,2,,,76,0
76272,note_on,,2,0,6,,,,,,,,,5,,,69,85
76272,note_on,,4,0,8,,,,,,,,,7,,,49,70
76272,note_on,,4,0,7,,,,,,,,,6,,,61,70
76272,note_on,,16,0,4,,,,,,,,,3,,,76,0
76285,note_on,,13,0,5,,,,,,,,,4,,,76,0
76288,note_on,,3,0,5,,,,,,,,,4,,,73,62
76296,note_on,,24,0,2,,,,,,,,,1,,,61,0
76296,note_on,,24,0,8,,,,,,,,,7,,,49,0
76296,note_on,,24,0,7,,,,,,,,,6,,,61,0
76301,note_on,,13,0,5,,,,,,,,,4,,,73,0
76301,note_on,,29,0,6,,,,,,,,,5,,,69,0
76304,note_on,,3,0,5,,,,,,,,,4,,,69,85
76308,note_on,,0,0,3,,,,,,,,,2,,,74,85
76308,note_on,,12,0,8,,,,,,,,,7,,,42,62
76308,note_on,,0,0,4,,,,,,,,,3,,,74,85
76308,note_on,,36,0,4,,,,,,,,,3,,,81,0
76308,note_on,,12,0,2,,,,,,,,,1,,,54,62
76308,note_on,,12,0,7,,,,,,,,,6,,,54,62
76308,note_on,,36,0,3,,,,,,,,,2,,,81,0
76308,note_on,,7,0,6,,,,,,,,,5,,,57,85
76316,note_on,,8,0,8,,,,,,,,,7,,,42,0
76316,note_on,,8,0,2,,,,,,,,,1,,,54,0
76316,note_on,,8,0,7,,,,,,,,,6,,,54,0
76317,note_on,,13,0,5,,,,,,,,,4,,,69,0
76318,note_on,,10,0,6,,,,,,,,,5,,,57,0
76320,note_on,,2,0,6,,,,,,,,,5,,,64,85
76320,note_on,,3,0,5,,,,,,,,,4,,,69,85
76320,note_on,,4,0,2,,,,,,,,,1,,,52,81
76320,note_on,,4,0,8,,,,,,,,,7,,,40,81
76320,note_on,,12,0,4,,,,,,,,,3,,,74,0
76320,note_on,,0,0,4,,,,,,,,,3,,,73,85
76320,note_on,,0,0,3,,,,,,,,,2,,,73,85
76320,note_on,,4,0,7,,,,,,,,,6,,,52,81
76320,note_on,,12,0,3,,,,,,,,,2,,,74,0
76339,note_on,,19,0,6,,,,,,,,,5,,,64,0
76340,note_on,,20,0,5,,,,,,,,,4,,,69,0
76344,note_on,,24,0,7,,,,,,,,,6,,,52,0
76344,note_on,,24,0,2,,,,,,,,,1,,,52,0
76344,note_on,,24,0,4,,,,,,,,,3,,,73,0
76344,note_on,,24,0,3,,,,,,,,,2,,,73,0
76344,note_on,,24,0,8,,,,,,,,,7,,,40,0
76356,note_on,,12,0,8,,,,,,,,,7,,,38,85
76356,note_on,,12,0,2,,,,,,,,,1,,,50,85
76356,note_on,,12,0,7,,,,,,,,,6,,,50,85
76364,note_on,,8,0,7,,,,,,,,,6,,,50,0
76364,note_on,,8,0,2,,,,,,,,,1,,,50,0
76364,note_on,,8,0,8,,,,,,,,,7,,,38,0
76368,note_on,,4,0,7,,,,,,,,,6,,,52,78
76368,note_on,,29,0,6,,,,,,,,,5,,,64,85
76368,note_on,,24,0,3,,,,,,,,,2,,,71,85
76368,note_on,,4,0,8,,,,,,,,,7,,,40,78
76368,note_on,,28,0,5,,,,,,,,,4,,,68,65
76368,note_on,,24,0,4,,,,,,,,,3,,,71,85
76368,note_on,,4,0,2,,,,,,,,,1,,,52,78
76374,note_on,,0,0,3,,,,,,,,,2,,,73,85
76374,note_on,,6,0,3,,,,,,,,,2,,,71,0
76374,note_on,,0,0,4,,,,,,,,,3,,,73,85
76374,note_on,,6,0,4,,,,,,,,,3,,,71,0
76380,note_on,,0,0,3,,,,,,,,,2,,,71,85
76380,note_on,,0,0,4,,,,,,,,,3,,,71,85
76380,note_on,,6,0,4,,,,,,,,,3,,,73,0
76380,note_on,,6,0,3,,,,,,,,,2,,,73,0
76386,note_on,,6,0,3,,,,,,,,,2,,,71,0
76386,note_on,,0,0,3,,,,,,,,,2,,,73,85
76386,note_on,,0,0,4,,,,,,,,,3,,,73,85
76386,note_on,,6,0,4,,,,,,,,,3,,,71,0
76387,note_on,,19,0,6,,,,,,,,,5,,,64,0
76388,note_on,,20,0,5,,,,,,,,,4,,,68,0
76392,note_on,,0,0,3,,,,,,,,,2,,,71,85
76392,note_on,,6,0,3,,,,,,,,,2,,,73,0
76392,note_on,,6,0,4,,,,,,,,,3,,,73,0
76392,note_on,,0,0,4,,,,,,,,,3,,,71,85
76392,note_on,,24,0,8,,,,,,,,,7,,,40,0
76392,note_on,,24,0,7,,,,,,,,,6,,,52,0
76392,note_on,,24,0,2,,,,,,,,,1,,,52,0
76398,note_on,,6,0,4,,,,,,,,,3,,,71,0
76398,note_on,,6,0,3,,,,,,,,,2,,,71,0
76404,note_on,,12,0,8,,,,,,,,,7,,,28,85
76404,note_on,,12,0,2,,,,,,,,,1,,,40,85
76404,note_on,,12,0,7,,,,,,,,,6,,,40,85
76412,note_on,,8,0,8,,,,,,,,,7,,,28,0
76412,note_on,,8,0,2,,,,,,,,,1,,,40,0
76412,note_on,,8,0,7,,,,,,,,,6,,,40,0
76416,note_on,,4,0,7,,,,,,,,,6,,,45,85
76416,note_on,,1685,0,1,,,,,,,,,0,,,73,47
76416,note_on,,28,0,5,,,,,,,,,4,,,69,85
76416,note_on,,29,0,6,,,,,,,,,5,,,64,85
76416,note_on,,4,0,2,,,,,,,,,1,,,45,85
76416,note_on,,18,0,3,,,,,,,,,2,,,69,85
76416,note_on,,18,0,4,,,,,,,,,3,,,69,85
76416,note_on,,4,0,8,,,,,,,,,7,,,33,85
76423,note_on,,7,0,1,,,,,,,,,0,,,73,0
76432,note_on,,16,0,2,,,,,,,,,1,,,45,0
76432,note_on,,0,0,3,,,,,,,,,2,,,73,85
76432,note_on,,16,0,4,,,,,,,,,3,,,69,0
76432,note_on,,0,0,4,,,,,,,,,3,,,73,85
76432,note_on,,16,0,3,,,,,,,,,2,,,69,0
76432,note_on,,16,0,7,,,,,,,,,6,,,45,0
76432,note_on,,9,0,1,,,,,,,,,0,,,76,47
76432,note_on,,16,0,8,,,,,,,,,7,,,33,0
76439,note_on,,7,0,1,,,,,,,,,0,,,76,0
76445,note_on,,29,0,6,,,,,,,,,5,,,64,0
76446,note_on,,30,0,5,,,,,,,,,4,,,69,0
76448,note_on,,16,0,3,,,,,,,,,2,,,73,0
76448,note_on,,9,0,1,,,,,,,,,0,,,81,47
76448,note_on,,0,0,4,,,,,,,,,3,,,76,85
76448,note_on,,16,0,4,,,,,,,,,3,,,73,0
76448,note_on,,0,0,3,,,,,,,,,2,,,76,85
76452,note_on,,6,0,5,,,,,,,,,4,,,64,62
76452,note_on,,7,0,6,,,,,,,,,5,,,64,85
76455,note_on,,7,0,1,,,,,,,,,0,,,81,0
76462,note_on,,10,0,5,,,,,,,,,4,,,64,0
76462,note_on,,10,0,6,,,,,,,,,5,,,64,0
76464,note_on,,16,0,3,,,,,,,,,2,,,76,0
76464,note_on,,2,0,6,,,,,,,,,5,,,69,85
76464,note_on,,32,0,7,,,,,,,,,6,,,57,85
76464,note_on,,0,0,3,,,,,,,,,2,,,76,85
76464,note_on,,32,0,2,,,,,,,,,1,,,57,85
76464,note_on,,0,0,4,,,,,,,,,3,,,76,85
76464,note_on,,16,0,4,,,,,,,,,3,,,76,0
76464,note_on,,2,0,5,,,,,,,,,4,,,69,85
76464,note_on,,32,0,8,,,,,,,,,7,,,45,85
76464,note_on,,9,0,1,,,,,,,,,0,,,81,47
76471,note_on,,7,0,1,,,,,,,,,0,,,81,0
76480,note_on,,0,0,4,,,,,,,,,3,,,74,85
76480,note_on,,0,0,3,,,,,,,,,2,,,74,85
76480,note_on,,16,0,3,,,,,,,,,2,,,76,0
76480,note_on,,16,0,4,,,,,,,,,3,,,76,0
76480,note_on,,16,0,7,,,,,,,,,6,,,57,0
76480,note_on,,9,0,1,,,,,,,,,0,,,80,47
76480,note_on,,16,0,8,,,,,,,,,7,,,45,0
76480,note_on,,16,0,2,,,,,,,,,1,,,57,0
76487,note_on,,7,0,1,,,,,,,,,0,,,80,0
76493,note_on,,29,0,6,,,,,,,,,5,,,69,0
76494,note_on,,30,0,5,,,,,,,,,4,,,69,0
76496,note_on,,0,0,3,,,,,,,,,2,,,76,85
76496,note_on,,16,0,4,,,,,,,,,3,,,74,0
76496,note_on,,0,0,4,,,,,,,,,3,,,76,85
76496,note_on,,16,0,3,,,,,,,,,2,,,74,0
76496,note_on,,9,0,1,,,,,,,,,0,,,81,47
76500,note_on,,6,0,5,,,,,,,,,4,,,64,69
76500,note_on,,7,0,6,,,,,,,,,5,,,64,85
76503,note_on,,7,0,1,,,,,,,,,0,,,81,0
76510,note_on,,10,0,5,,,,,,,,,4,,,64,0
76510,note_on,,10,0,6,,,,,,,,,5,,,64,0
76512,note_on,,32,0,2,,,,,,,,,1,,,45,85
76512,note_on,,0,0,4,,,,,,,,,3,,,64,46
76512,note_on,,0,0,3,,,,,,,,,2,,,69,85
76512,note_on,,32,0,7,,,,,,,,,6,,,45,85
76512,note_on,,9,0,1,,,,,,,,,0,,,73,47
76512,note_on,,2,0,6,,,,,,,,,5,,,64,85
76512,note_on,,2,0,5,,,,,,,,,4,,,64,71
76512,note_on,,32,0,8,,,,,,,,,7,,,33,85
76512,note_on,,16,0,4,,,,,,,,,3,,,76,0
76512,note_on,,16,0,3,,,,,,,,,2,,,76,0
76519,note_on,,7,0,1,,,,,,,,,0,,,73,0
76522,note_on,,10,0,6,,,,,,,,,5,,,64,0
76524,note_on,,2,0,6,,,,,,,,,5,,,66,85
76524,note_on,,12,0,5,,,,,,,,,4,,,64,0
76524,note_on,,0,0,5,,,,,,,,,4,,,66,71
76525,note_on,,13,0,4,,,,,,,,,3,,,64,0
76528,note_on,,16,0,8,,,,,,,,,7,,,33,0
76528,note_on,,9,0,1,,,,,,,,,0,,,76,47
76528,note_on,,16,0,7,,,,,,,,,6,,,45,0
76528,note_on,,0,0,3,,,,,,,,,2,,,73,85
76528,note_on,,16,0,3,,,,,,,,,2,,,69,0
76528,note_on,,16,0,2,,,,,,,,,1,,,45,0
76528,note_on,,3,0,4,,,,,,,,,3,,,69,85
76535,note_on,,7,0,1,,,,,,,,,0,,,76,0
76541,note_on,,13,0,4,,,,,,,,,3,,,69,0
76544,note_on,,0,0,3,,,,,,,,,2,,,76,85
76544,note_on,,16,0,3,,,,,,,,,2,,,73,0
76544,note_on,,9,0,1,,,,,,,,,0,,,81,47
76544,note_on,,3,0,4,,,,,,,,,3,,,73,55
76551,note_on,,7,0,1,,,,,,,,,0,,,81,0
76557,note_on,,13,0,4,,,,,,,,,3,,,73,0
76560,note_on,,32,0,8,,,,,,,,,7,,,45,85
76560,note_on,,9,0,1,,,,,,,,,0,,,81,47
76560,note_on,,16,0,3,,,,,,,,,2,,,76,0
76560,note_on,,3,0,4,,,,,,,,,3,,,73,62
76560,note_on,,0,0,3,,,,,,,,,2,,,76,85
76560,note_on,,32,0,7,,,,,,,,,6,,,57,85
76560,note_on,,32,0,2,,,,,,,,,1,,,57,85
76567,note_on,,7,0,1,,,,,,,,,0,,,81,0
76573,note_on,,13,0,4,,,,,,,,,3,,,73,0
76576,note_on,,16,0,8,,,,,,,,,7,,,45,0
76576,note_on,,9,0,1,,,,,,,,,0,,,80,47
76576,note_on,,0,0,3,,,,,,,,,2,,,74,85
76576,note_on,,16,0,3,,,,,,,,,2,,,76,0
76576,note_on,,16,0,2,,,,,,,,,1,,,57,0
76576,note_on,,16,0,7,,,,,,,,,6,,,57,0
76576,note_on,,3,0,4,,,,,,,,,3,,,71,84
76583,note_on,,7,0,1,,,,,,,,,0,,,80,0
76589,note_on,,13,0,4,,,,,,,,,3,,,71,0
76592,note_on,,9,0,1,,,,,,,,,0,,,81,47
76592,note_on,,3,0,4,,,,,,,,,3,,,73,54
76592,note_on,,0,0,3,,,,,,,,,2,,,76,85
76592,note_on,,16,0,3,,,,,,,,,2,,,74,0
76599,note_on,,7,0,1,,,,,,,,,0,,,81,0
76605,note_on,,13,0,4,,,,,,,,,3,,,73,0
76608,note_on,,3,0,4,,,,,,,,,3,,,66,66
76608,note_on,,9,0,1,,,,,,,,,0,,,74,82
76608,note_on,,32,0,7,,,,,,,,,6,,,45,85
76608,note_on,,32,0,2,,,,,,,,,1,,,45,85
76608,note_on,,16,0,3,,,,,,,,,2,,,76,0
76608,note_on,,32,0,8,,,,,,,,,7,,,33,85
76608,note_on,,0,0,3,,,,,,,,,2,,,69,85
76615,note_on,,7,0,1,,,,,,,,,0,,,74,0
76621,note_on,,13,0,4,,,,,,,,,3,,,66,0
76624,note_on,,16,0,2,,,,,,,,,1,,,45,0
76624,note_on,,0,0,3,,,,,,,,,2,,,73,56
76624,note_on,,16,0,3,,,,,,,,,2,,,69,0
76624,note_on,,16,0,7,,,,,,,,,6,,,45,0
76624,note_on,,16,0,8,,,,,,,,,7,,,33,0
76624,note_on,,9,0,1,,,,,,,,,0,,,76,59
76624,note_on,,3,0,4,,,,,,,,,3,,,67,79
76631,note_on,,7,0,1,,,,,,,,,0,,,76,0
76637,note_on,,13,0,4,,,,,,,,,3,,,67,0
76640,note_on,,9,0,1,,,,,,,,,0,,,78,62
76640,note_on,,0,0,3,,,,,,,,,2,,,74,85
76640,note_on,,3,0,4,,,,,,,,,3,,,69,85
76640,note_on,,16,0,3,,,,,,,,,2,,,73,0
76641,note_on,,117,0,5,,,,,,,,,4,,,66,0
76641,note_on,,117,0,6,,,,,,,,,5,,,66,0
76644,note_on,,3,0,5,,,,,,,,,4,,,66,71
76644,note_on,,3,0,6,,,,,,,,,5,,,66,85
76647,note_on,,7,0,1,,,,,,,,,0,,,78,0
76653,note_on,,13,0,4,,,,,,,,,3,,,69,0
76654,note_on,,10,0,6,,,,,,,,,5,,,66,0
76656,note_on,,32,0,7,,,,,,,,,6,,,57,76
76656,note_on,,12,0,5,,,,,,,,,4,,,66,0
76656,note_on,,0,0,5,,,,,,,,,4,,,67,71
76656,note_on,,2,0,6,,,,,,,,,5,,,67,85
76656,note_on,,32,0,2,,,,,,,,,1,,,57,85
76656,note_on,,16,0,3,,,,,,,,,2,,,74,0
76656,note_on,,3,0,4,,,,,,,,,3,,,71,85
76656,note_on,,9,0,1,,,,,,,,,0,,,74,59
76656,note_on,,0,0,3,,,,,,,,,2,,,74,85
76663,note_on,,7,0,1,,,,,,,,,0,,,74,0
76669,note_on,,13,0,6,,,,,,,,,5,,,67,0
76669,note_on,,13,0,4,,,,,,,,,3,,,71,0
76669,note_on,,13,0,5,,,,,,,,,4,,,67,0
76672,note_on,,9,0,1,,,,,,,,,0,,,76,72
76672,note_on,,0,0,3,,,,,,,,,2,,,73,56
76672,note_on,,16,0,3,,,,,,,,,2,,,74,0
76672,note_on,,3,0,6,,,,,,,,,5,,,64,85
76672,note_on,,16,0,2,,,,,,,,,1,,,57,0
76672,note_on,,3,0,5,,,,,,,,,4,,,64,71
76672,note_on,,3,0,4,,,,,,,,,3,,,73,49
76672,note_on,,16,0,7,,,,,,,,,6,,,57,0
76679,note_on,,7,0,1,,,,,,,,,0,,,76,0
76685,note_on,,13,0,4,,,,,,,,,3,,,73,0
76685,note_on,,13,0,6,,,,,,,,,5,,,64,0
76685,note_on,,13,0,5,,,,,,,,,4,,,64,0
76688,note_on,,3,0,6,,,,,,,,,5,,,66,85
76688,note_on,,0,0,3,,,,,,,,,2,,,74,85
76688,note_on,,16,0,3,,,,,,,,,2,,,73,0
76688,note_on,,3,0,4,,,,,,,,,3,,,69,69
76688,note_on,,3,0,5,,,,,,,,,4,,,66,71
76688,note_on,,9,0,1,,,,,,,,,0,,,73,53
76695,note_on,,7,0,1,,,,,,,,,0,,,73,0
76701,note_on,,13,0,5,,,,,,,,,4,,,66,0
76701,note_on,,13,0,6,,,,,,,,,5,,,66,0
76701,note_on,,13,0,4,,,,,,,,,3,,,69,0
76704,note_on,,9,0,1,,,,,,,,,0,,,71,76
76704,note_on,,32,0,7,,,,,,,,,6,,,45,82
76704,note_on,,16,0,3,,,,,,,,,2,,,74,0
76704,note_on,,3,0,5,,,,,,,,,4,,,66,71
76704,note_on,,3,0,4,,,,,,,,,3,,,62,79
76704,note_on,,32,0,2,,,,,,,,,1,,,45,85
76704,note_on,,80,0,8,,,,,,,,,7,,,33,85
76704,note_on,,3,0,6,,,,,,,,,5,,,66,85
76704,note_on,,0,0,3,,,,,,,,,2,,,68,62
76711,note_on,,7,0,1,,,,,,,,,0,,,71,0
76714,note_on,,10,0,5,,,,,,,,,4,,,66,0
76714,note_on,,10,0,6,,,,,,,,,5,,,66,0
76716,note_on,,2,0,6,,,,,,,,,5,,,64,85
76716,note_on,,2,0,5,,,,,,,,,4,,,64,71
76717,note_on,,13,0,4,,,,,,,,,3,,,62,0
76720,note_on,,16,0,2,,,,,,,,,1,,,45,0
76720,note_on,,16,0,7,,,,,,,,,6,,,45,0
76720,note_on,,16,0,3,,,,,,,,,2,,,68,0
76720,note_on,,9,0,1,,,,,,,,,0,,,74,65
76720,note_on,,0,0,3,,,,,,,,,2,,,71,67
76720,note_on,,16,0,8,,,,,,,,,7,,,33,0
76720,note_on,,3,0,4,,,,,,,,,3,,,65,85
76727,note_on,,7,0,1,,,,,,,,,0,,,74,0
76733,note_on,,13,0,4,,,,,,,,,3,,,65,0
76736,note_on,,0,0,3,,,,,,,,,2,,,74,85
76736,note_on,,16,0,3,,,,,,,,,2,,,71,0
76736,note_on,,9,0,1,,,,,,,,,0,,,80,65
76736,note_on,,3,0,4,,,,,,,,,3,,,71,85
76740,note_on,,20,0,7,,,,,,,,,6,,,57,85
76743,note_on,,7,0,1,,,,,,,,,0,,,80,0
76749,note_on,,13,0,4,,,,,,,,,3,,,71,0
76752,note_on,,9,0,1,,,,,,,,,0,,,80,62
76752,note_on,,32,0,2,,,,,,,,,1,,,57,85
76752,note_on,,3,0,4,,,,,,,,,3,,,71,82
76752,note_on,,16,0,3,,,,,,,,,2,,,74,0
76752,note_on,,0,0,3,,,,,,,,,2,,,74,85
76756,note_on,,16,0,7,,,,,,,,,6,,,57,0
76759,note_on,,7,0,1,,,,,,,,,0,,,80,0
76765,note_on,,13,0,4,,,,,,,,,3,,,71,0
76768,note_on,,3,0,4,,,,,,,,,3,,,69,62
76768,note_on,,9,0,1,,,,,,,,,0,,,78,55
76768,note_on,,16,0,2,,,,,,,,,1,,,57,0
76768,note_on,,0,0,3,,,,,,,,,2,,,73,66
76768,note_on,,16,0,3,,,,,,,,,2,,,74,0
76775,note_on,,7,0,1,,,,,,,,,0,,,78,0
76781,note_on,,13,0,4,,,,,,,,,3,,,69,0
76784,note_on,,3,0,4,,,,,,,,,3,,,71,68
76784,note_on,,16,0,3,,,,,,,,,2,,,73,0
76784,note_on,,9,0,1,,,,,,,,,0,,,80,66
76784,note_on,,0,0,3,,,,,,,,,2,,,74,85
76791,note_on,,7,0,1,,,,,,,,,0,,,80,0
76797,note_on,,13,0,4,,,,,,,,,3,,,71,0
76800,note_on,,9,0,1,,,,,,,,,0,,,73,47
76800,note_on,,80,0,8,,,,,,,,,7,,,33,85
76800,note_on,,32,0,2,,,,,,,,,1,,,45,85
76800,note_on,,16,0,3,,,,,,,,,2,,,74,0
76800,note_on,,0,0,3,,,,,,,,,2,,,69,85
76800,note_on,,3,0,4,,,,,,,,,3,,,64,84
76800,note_on,,44,0,7,,,,,,,,,6,,,45,56
76807,note_on,,7,0,1,,,,,,,,,0,,,73,0
76813,note_on,,13,0,4,,,,,,,,,3,,,64,0
76816,note_on,,16,0,2,,,,,,,,,1,,,45,0
76816,note_on,,16,0,8,,,,,,,,,7,,,33,0
76816,note_on,,16,0,3,,,,,,,,,2,,,69,0
76816,note_on,,3,0,4,,,,,,,,,3,,,69,85
76816,note_on,,0,0,3,,,,,,,,,2,,,73,56
76816,note_on,,9,0,1,,,,,,,,,0,,,76,60
76823,note_on,,7,0,1,,,,,,,,,0,,,76,0
76824,note_on,,24,0,7,,,,,,,,,6,,,45,0
76829,note_on,,13,0,4,,,,,,,,,3,,,69,0
76832,note_on,,9,0,1,,,,,,,,,0,,,81,85
76832,note_on,,16,0,3,,,,,,,,,2,,,73,0
76832,note_on,,3,0,4,,,,,,,,,3,,,73,62
76832,note_on,,0,0,3,,,,,,,,,2,,,76,85
76836,note_on,,120,0,5,,,,,,,,,4,,,64,0
76836,note_on,,120,0,6,,,,,,,,,5,,,64,0
76836,note_on,,0,0,6,,,,,,,,,5,,,64,85
76836,note_on,,0,0,5,,,,,,,,,4,,,64,71
76839,note_on,,7,0,1,,,,,,,,,0,,,81,0
76845,note_on,,13,0,4,,,,,,,,,3,,,73,0
76846,note_on,,10,0,6,,,,,,,,,5,,,64,0
76848,note_on,,9,0,1,,,,,,,,,0,,,81,85
76848,note_on,,24,0,7,,,,,,,,,6,,,57,56
76848,note_on,,12,0,5,,,,,,,,,4,,,64,0
76848,note_on,,0,0,5,,,,,,,,,4,,,69,85
76848,note_on,,0,0,3,,,,,,,,,2,,,76,62
76848,note_on,,3,0,4,,,,,,,,,3,,,73,59
76848,note_on,,16,0,3,,,,,,,,,2,,,76,0
76848,note_on,,32,0,2,,,,,,,,,1,,,57,85
76848,note_on,,2,0,6,,,,,,,,,5,,,69,85
76855,note_on,,7,0,1,,,,,,,,,0,,,81,0
76861,note_on,,13,0,4,,,,,,,,,3,,,73,0
76864,note_on,,3,0,4,,,,,,,,,3,,,71,74
76864,note_on,,0,0,3,,,,,,,,,2,,,74,85
76864,note_on,,16,0,3,,,,,,,,,2,,,76,0
76864,note_on,,16,0,2,,,,,,,,,1,,,57,0
76864,note_on,,9,0,1,,,,,,,,,0,,,80,65
76871,note_on,,7,0,1,,,,,,,,,0,,,80,0
76872,note_on,,24,0,7,,,,,,,,,6,,,57,0
76877,note_on,,13,0,4,,,,,,,,,3,,,71,0
76878,note_on,,30,0,5,,,,,,,,,4,,,69,0
76878,note_on,,30,0,6,,,,,,,,,5,,,69,0
76880,note_on,,16,0,3,,,,,,,,,2,,,74,0
76880,note_on,,0,0,3,,,,,,,,,2,,,76,85
76880,note_on,,3,0,4,,,,,,,,,3,,,73,53
76880,note_on,,9,0,1,,,,,,,,,0,,,81,77
76884,note_on,,6,0,5,,,,,,,,,4,,,66,64
76884,note_on,,6,0,6,,,,,,,,,5,,,66,85
76887,note_on,,7,0,1,,,,,,,,,0,,,81,0
76893,note_on,,13,0,4,,,,,,,,,3,,,73,0
76894,note_on,,10,0,6,,,,,,,,,5,,,66,0
76894,note_on,,10,0,5,,,,,,,,,4,,,66,0
76896,note_on,,24,0,7,,,,,,,,,6,,,45,66
76896,note_on,,9,0,1,,,,,,,,,0,,,78,62
76896,note_on,,80,0,8,,,,,,,,,7,,,33,85
76896,note_on,,32,0,2,,,,,,,,,1,,,45,85
76896,note_on,,2,0,6,,,,,,,,,5,,,64,85
76896,note_on,,16,0,3,,,,,,,,,2,,,76,0
76896,note_on,,0,0,3,,,,,,,,,2,,,71,74
76896,note_on,,2,0,5,,,,,,,,,4,,,64,85
76896,note_on,,3,0,4,,,,,,,,,3,,,62,79
76903,note_on,,7,0,1,,,,,,,,,0,,,78,0
76906,note_on,,10,0,5,,,,,,,,,4,,,64,0
76906,note_on,,10,0,6,,,,,,,,,5,,,64,0
76908,note_on,,2,0,5,,,,,,,,,4,,,62,85
76908,note_on,,2,0,6,,,,,,,,,5,,,62,85
76909,note_on,,13,0,4,,,,,,,,,3,,,62,0
76912,note_on,,16,0,8,,,,,,,,,7,,,33,0
76912,note_on,,3,0,4,,,,,,,,,3,,,66,54
76912,note_on,,16,0,2,,,,,,,,,1,,,45,0
76912,note_on,,9,0,1,,,,,,,,,0,,,74,60
76912,note_on,,0,0,3,,,,,,,,,2,,,74,76
76912,note_on,,16,0,3,,,,,,,,,2,,,71,0
76919,note_on,,7,0,1,,,,,,,,,0,,,74,0
76920,note_on,,24,0,7,,,,,,,,,6,,,45,0
76925,note_on,,13,0,4,,,,,,,,,3,,,66,0
76928,note_on,,3,0,4,,,,,,,,,3,,,71,71
76928,note_on,,9,0,1,,,,,,,,,0,,,71,85
76928,note_on,,0,0,3,,,,,,,,,2,,,78,69
76928,note_on,,16,0,3,,,,,,,,,2,,,74,0
76935,note_on,,7,0,1,,,,,,,,,0,,,71,0
76941,note_on,,13,0,4,,,,,,,,,3,,,71,0
76944,note_on,,0,0,3,,,,,,,,,2,,,78,64
76944,note_on,,16,0,3,,,,,,,,,2,,,78,0
76944,note_on,,32,0,2,,,,,,,,,1,,,57,85
76944,note_on,,3,0,4,,,,,,,,,3,,,71,66
76944,note_on,,24,0,7,,,,,,,,,6,,,57,56
76944,note_on,,9,0,1,,,,,,,,,0,,,68,62
76951,note_on,,7,0,1,,,,,,,,,0,,,68,0
76957,note_on,,13,0,4,,,,,,,,,3,,,71,0
76960,note_on,,0,0,3,,,,,,,,,2,,,76,76
76960,note_on,,16,0,3,,,,,,,,,2,,,78,0
76960,note_on,,3,0,4,,,,,,,,,3,,,68,49
76960,note_on,,9,0,1,,,,,,,,,0,,,71,36
76960,note_on,,16,0,2,,,,,,,,,1,,,57,0
76967,note_on,,7,0,1,,,,,,,,,0,,,71,0
76968,note_on,,24,0,7,,,,,,,,,6,,,57,0
76973,note_on,,13,0,4,,,,,,,,,3,,,68,0
76976,note_on,,16,0,3,,,,,,,,,2,,,76,0
76976,note_on,,9,0,1,,,,,,,,,0,,,69,85
76976,note_on,,0,0,3,,,,,,,,,2,,,78,56
76976,note_on,,3,0,4,,,,,,,,,3,,,69,85
76983,note_on,,7,0,1,,,,,,,,,0,,,69,0
76989,note_on,,13,0,4,,,,,,,,,3,,,69,0
76992,note_on,,3,0,4,,,,,,,,,3,,,71,76
76992,note_on,,24,0,7,,,,,,,,,6,,,45,85
76992,note_on,,16,0,3,,,,,,,,,2,,,78,0
76992,note_on,,0,0,3,,,,,,,,,2,,,68,59
76992,note_on,,32,0,2,,,,,,,,,1,,,45,85
76992,note_on,,80,0,8,,,,,,,,,7,,,33,92
76992,note_on,,9,0,1,,,,,,,,,0,,,68,57
76999,note_on,,7,0,1,,,,,,,,,0,,,68,0
77005,note_on,,13,0,4,,,,,,,,,3,,,71,0
77008,note_on,,9,0,1,,,,,,,,,0,,,71,42
77008,note_on,,3,0,4,,,,,,,,,3,,,68,46
77008,note_on,,16,0,2,,,,,,,,,1,,,45,0
77008,note_on,,100,0,5,,,,,,,,,4,,,64,85
77008,note_on,,16,0,3,,,,,,,,,2,,,68,0
77008,note_on,,0,0,3,,,,,,,,,2,,,64,56
77008,note_on,,100,0,6,,,,,,,,,5,,,64,85
77008,note_on,,16,0,8,,,,,,,,,7,,,33,0
77015,note_on,,7,0,1,,,,,,,,,0,,,71,0
77016,note_on,,24,0,7,,,,,,,,,6,,,45,0
77021,note_on,,13,0,4,,,,,,,,,3,,,68,0
77024,note_on,,0,0,5,,,,,,,,,4,,,66,56
77024,note_on,,16,0,5,,,,,,,,,4,,,64,0
77024,note_on,,3,0,4,,,,,,,,,3,,,69,81
77024,note_on,,16,0,3,,,,,,,,,2,,,64,0
77024,note_on,,0,0,3,,,,,,,,,2,,,74,85
77024,note_on,,16,0,6,,,,,,,,,5,,,64,0
77024,note_on,,0,0,6,,,,,,,,,5,,,66,85
77024,note_on,,9,0,1,,,,,,,,,0,,,69,85
77031,note_on,,7,0,1,,,,,,,,,0,,,69,0
77037,note_on,,13,0,4,,,,,,,,,3,,,69,0
77040,note_on,,16,0,6,,,,,,,,,5,,,66,0
77040,note_on,,0,0,6,,,,,,,,,5,,,62,0
77040,note_on,,0,0,6,,,,,,,,,5,,,64,85
77040,note_on,,3,0,4,,,,,,,,,3,,,64,62
77040,note_on,,24,0,7,,,,,,,,,6,,,57,56
77040,note_on,,0,0,5,,,,,,,,,4,,,64,85
77040,note_on,,32,0,2,,,,,,,,,1,,,57,85
77040,note_on,,16,0,5,,,,,,,,,4,,,66,0
77040,note_on,,0,0,5,,,,,,,,,4,,,62,0
77040,note_on,,9,0,1,,,,,,,,,0,,,68,49
77040,note_on,,0,0,3,,,,,,,,,2,,,73,61
77040,note_on,,16,0,3,,,,,,,,,2,,,74,0
77047,note_on,,7,0,1,,,,,,,,,0,,,68,0
77053,note_on,,13,0,4,,,,,,,,,3,,,64,0
77056,note_on,,16,0,3,,,,,,,,,2,,,73,0
77056,note_on,,16,0,2,,,,,,,,,1,,,57,0
77056,note_on,,9,0,1,,,,,,,,,0,,,69,82
77056,note_on,,3,0,4,,,,,,,,,3,,,69,79
77056,note_on,,0,0,5,,,,,,,,,4,,,66,62
77056,note_on,,16,0,5,,,,,,,,,4,,,64,0
77056,note_on,,0,0,3,,,,,,,,,2,,,74,85
77056,note_on,,16,0,6,,,,,,,,,5,,,64,0
77056,note_on,,0,0,6,,,,,,,,,5,,,66,85
77063,note_on,,7,0,1,,,,,,,,,0,,,69,0
77064,note_on,,24,0,7,,,,,,,,,6,,,57,0
77069,note_on,,13,0,4,,,,,,,,,3,,,69,0
77072,note_on,,0,0,3,,,,,,,,,2,,,71,85
77072,note_on,,16,0,5,,,,,,,,,4,,,66,0
77072,note_on,,0,0,5,,,,,,,,,4,,,62,85
77072,note_on,,3,0,4,,,,,,,,,3,,,68,53
77072,note_on,,16,0,6,,,,,,,,,5,,,66,0
77072,note_on,,16,0,3,,,,,,,,,2,,,74,0
77072,note_on,,9,0,1,,,,,,,,,0,,,71,62
77072,note_on,,0,0,6,,,,,,,,,5,,,62,85
77079,note_on,,7,0,1,,,,,,,,,0,,,71,0
77085,note_on,,13,0,4,,,,,,,,,3,,,68,0
77088,note_on,,9,0,1,,,,,,,,,0,,,73,62
77088,note_on,,16,0,3,,,,,,,,,2,,,71,0
77088,note_on,,16,0,6,,,,,,,,,5,,,62,0
77088,note_on,,0,0,6,,,,,,,,,5,,,61,85
77088,note_on,,0,0,3,,,,,,,,,2,,,69,85
77088,note_on,,0,0,5,,,,,,,,,4,,,61,74
77088,note_on,,16,0,5,,,,,,,,,4,,,62,0
77088,note_on,,24,0,7,,,,,,,,,6,,,45,85
77088,note_on,,32,0,2,,,,,,,,,1,,,45,67
77088,note_on,,3,0,4,,,,,,,,,3,,,69,85
77095,note_on,,7,0,1,,,,,,,,,0,,,73,0
77099,note_on,,11,0,2,,,,,,,,,1,,,45,0
77104,note_on,,5,0,2,,,,,,,,,1,,,49,67
77104,note_on,,9,0,1,,,,,,,,,0,,,69,85
77107,note_on,,19,0,4,,,,,,,,,3,,,69,0
77111,note_on,,7,0,1,,,,,,,,,0,,,69,0
77112,note_on,,24,0,7,,,,,,,,,6,,,45,0
77112,note_on,,24,0,3,,,,,,,,,2,,,69,0
77112,note_on,,24,0,6,,,,,,,,,5,,,61,0
77112,note_on,,24,0,5,,,,,,,,,4,,,61,0
77115,note_on,,11,0,2,,,,,,,,,1,,,49,0
77120,note_on,,5,0,2,,,,,,,,,1,,,52,85
77120,note_on,,9,0,1,,,,,,,,,0,,,71,79
77127,note_on,,7,0,1,,,,,,,,,0,,,71,0
77131,note_on,,11,0,2,,,,,,,,,1,,,52,0
77136,note_on,,5,0,2,,,,,,,,,1,,,57,85
77136,note_on,,9,0,1,,,,,,,,,0,,,73,49
77143,note_on,,7,0,1,,,,,,,,,0,,,73,0
77147,note_on,,11,0,2,,,,,,,,,1,,,57,0
77152,note_on,,9,0,1,,,,,,,,,0,,,76,81
77152,note_on,,5,0,2,,,,,,,,,1,,,61,46
77159,note_on,,7,0,1,,,,,,,,,0,,,76,0
77163,note_on,,11,0,2,,,,,,,,,1,,,61,0
77168,note_on,,9,0,1,,,,,,,,,0,,,74,40
77168,note_on,,5,0,2,,,,,,,,,1,,,57,70
77175,note_on,,7,0,1,,,,,,,,,0,,,74,0
77179,note_on,,11,0,2,,,,,,,,,1,,,57,0
77184,note_on,,5,0,2,,,,,,,,,1,,,61,49
77184,note_on,,9,0,1,,,,,,,,,0,,,76,76
77191,note_on,,7,0,1,,,,,,,,,0,,,76,0
77195,note_on,,11,0,2,,,,,,,,,1,,,61,0
77200,note_on,,5,0,2,,,,,,,,,1,,,57,85
77200,note_on,,9,0,1,,,,,,,,,0,,,73,47
77207,note_on,,7,0,1,,,,,,,,,0,,,73,0
77211,note_on,,11,0,2,,,,,,,,,1,,,57,0
77216,note_on,,9,0,1,,,,,,,,,0,,,74,85
77216,note_on,,5,0,2,,,,,,,,,1,,,59,76
77223,note_on,,7,0,1,,,,,,,,,0,,,74,0
77227,note_on,,11,0,2,,,,,,,,,1,,,59,0
77232,note_on,,9,0,1,,,,,,,,,0,,,76,62
77232,note_on,,5,0,2,,,,,,,,,1,,,61,46
77239,note_on,,7,0,1,,,,,,,,,0,,,76,0
77243,note_on,,11,0,2,,,,,,,,,1,,,61,0
77248,note_on,,9,0,1,,,,,,,,,0,,,79,85
77248,note_on,,5,0,2,,,,,,,,,1,,,64,71
77255,note_on,,7,0,1,,,,,,,,,0,,,79,0
77259,note_on,,11,0,2,,,,,,,,,1,,,64,0
77264,note_on,,5,0,2,,,,,,,,,1,,,63,67
77264,note_on,,9,0,1,,,,,,,,,0,,,78,62
77271,note_on,,7,0,1,,,,,,,,,0,,,78,0
77275,note_on,,11,0,2,,,,,,,,,1,,,63,0
77280,note_on,,9,0,1,,,,,,,,,0,,,79,55
77280,note_on,,5,0,2,,,,,,,,,1,,,64,72
77284,note_on,,4,0,1,,,,,,,,,0,,,79,0
77285,note_on,,5,0,2,,,,,,,,,1,,,64,0
77286,note_on,,1,0,2,,,,,,,,,1,,,66,64
77286,note_on,,2,0,1,,,,,,,,,0,,,81,62
77290,note_on,,4,0,1,,,,,,,,,0,,,81,0
77291,note_on,,5,0,2,,,,,,,,,1,,,66,0
77292,note_on,,1,0,2,,,,,,,,,1,,,64,79
77292,note_on,,2,0,1,,,,,,,,,0,,,79,85
77296,note_on,,4,0,1,,,,,,,,,0,,,79,0
77297,note_on,,5,0,2,,,,,,,,,1,,,64,0
77298,note_on,,1,0,2,,,,,,,,,1,,,66,65
77298,note_on,,2,0,1,,,,,,,,,0,,,81,85
77302,note_on,,4,0,1,,,,,,,,,0,,,81,0
77303,note_on,,5,0,2,,,,,,,,,1,,,66,0
77304,note_on,,1,0,2,,,,,,,,,1,,,64,81
77304,note_on,,2,0,1,,,,,,,,,0,,,79,43
77309,note_on,,5,0,2,,,,,,,,,1,,,64,0
77309,note_on,,5,0,1,,,,,,,,,0,,,79,0
77310,note_on,,1,0,2,,,,,,,,,1,,,66,67
77310,note_on,,1,0,1,,,,,,,,,0,,,81,59
77315,note_on,,5,0,1,,,,,,,,,0,,,81,0
77315,note_on,,5,0,2,,,,,,,,,1,,,66,0
77316,note_on,,209,0,4,,,,,,,,,3,,,71,85
77316,note_on,,204,0,5,,,,,,,,,4,,,71,85
77316,note_on,,1,0,2,,,,,,,,,1,,,64,82
77316,note_on,,204,0,3,,,,,,,,,2,,,71,85
77316,note_on,,204,0,6,,,,,,,,,5,,,71,85
77316,note_on,,1,0,1,,,,,,,,,0,,,79,46
77321,note_on,,5,0,2,,,,,,,,,1,,,64,0
77321,note_on,,5,0,1,,,,,,,,,0,,,79,0
77322,note_on,,1,0,1,,,,,,,,,0,,,81,65
77322,note_on,,1,0,2,,,,,,,,,1,,,66,66
77327,note_on,,5,0,1,,,,,,,,,0,,,81,0
77327,note_on,,5,0,2,,,,,,,,,1,,,66,0
77328,note_on,,12,0,5,,,,,,,,,4,,,71,0
77328,note_on,,0,0,4,,,,,,,,,3,,,76,85
77328,note_on,,1,0,2,,,,,,,,,1,,,64,85
77328,note_on,,0,0,5,,,,,,,,,4,,,76,85
77328,note_on,,12,0,6,,,,,,,,,5,,,71,0
77328,note_on,,1,0,1,,,,,,,,,0,,,79,60
77328,note_on,,12,0,4,,,,,,,,,3,,,71,0
77328,note_on,,0,0,3,,,,,,,,,2,,,76,85
77328,note_on,,12,0,3,,,,,,,,,2,,,71,0
77328,note_on,,0,0,6,,,,,,,,,5,,,76,85
77333,note_on,,5,0,1,,,,,,,,,0,,,79,0
77333,note_on,,5,0,2,,,,,,,,,1,,,64,0
77334,note_on,,1,0,1,,,,,,,,,0,,,81,76
77334,note_on,,1,0,2,,,,,,,,,1,,,66,69
77339,note_on,,5,0,2,,,,,,,,,1,,,66,0
77339,note_on,,5,0,1,,,,,,,,,0,,,81,0
77340,note_on,,1,0,2,,,,,,,,,1,,,64,85
77340,note_on,,1,0,1,,,,,,,,,0,,,79,72
77345,note_on,,5,0,2,,,,,,,,,1,,,64,0
77345,note_on,,5,0,1,,,,,,,,,0,,,79,0
77346,note_on,,1,0,2,,,,,,,,,1,,,66,72
77346,note_on,,1,0,1,,,,,,,,,0,,,81,81
77351,note_on,,5,0,1,,,,,,,,,0,,,81,0
77351,note_on,,5,0,2,,,,,,,,,1,,,66,0
77352,note_on,,1,0,1,,,,,,,,,0,,,79,79
77352,note_on,,1,0,2,,,,,,,,,1,,,64,85
77357,note_on,,5,0,1,,,,,,,,,0,,,79,0
77357,note_on,,5,0,2,,,,,,,,,1,,,64,0
77358,note_on,,1,0,2,,,,,,,,,1,,,66,67
77358,note_on,,1,0,1,,,,,,,,,0,,,81,85
77363,note_on,,5,0,2,,,,,,,,,1,,,66,0
77363,note_on,,5,0,1,,,,,,,,,0,,,81,0
77364,note_on,,0,0,3,,,,,,,,,2,,,71,72
77364,note_on,,0,0,5,,,,,,,,,4,,,71,72
77364,note_on,,1,0,1,,,,,,,,,0,,,79,77
77364,note_on,,36,0,5,,,,,,,,,4,,,76,0
77364,note_on,,0,0,6,,,,,,,,,5,,,71,72
77364,note_on,,36,0,3,,,,,,,,,2,,,76,0
77364,note_on,,0,0,4,,,,,,,,,3,,,71,72
77364,note_on,,36,0,4,,,,,,,,,3,,,76,0
77364,note_on,,36,0,6,,,,,,,,,5,,,76,0
77364,note_on,,1,0,2,,,,,,,,,1,,,64,85
77369,note_on,,5,0,1,,,,,,,,,0,,,79,0
77369,note_on,,5,0,2,,,,,,,,,1,,,64,0
77370,note_on,,1,0,1,,,,,,,,,0,,,81,85
77370,note_on,,1,0,2,,,,,,,,,1,,,66,72
77375,note_on,,5,0,1,,,,,,,,,0,,,81,0
77375,note_on,,5,0,2,,,,,,,,,1,,,66,0
77376,note_on,,0,0,6,,,,,,,,,5,,,72,61
77376,note_on,,12,0,6,,,,,,,,,5,,,71,0
77376,note_on,,12,0,4,,,,,,,,,3,,,71,0
77376,note_on,,0,0,5,,,,,,,,,4,,,72,61
77376,note_on,,1,0,1,,,,,,,,,0,,,79,85
77376,note_on,,0,0,3,,,,,,,,,2,,,72,61
77376,note_on,,12,0,3,,,,,,,,,2,,,71,0
77376,note_on,,12,0,5,,,,,,,,,4,,,71,0
77376,note_on,,0,0,4,,,,,,,,,3,,,72,61
77376,note_on,,1,0,2,,,,,,,,,1,,,64,85
77381,note_on,,5,0,1,,,,,,,,,0,,,79,0
77381,note_on,,5,0,2,,,,,,,,,1,,,64,0
77382,note_on,,1,0,1,,,,,,,,,0,,,81,85
77382,note_on,,1,0,2,,,,,,,,,1,,,66,76
77387,note_on,,5,0,1,,,,,,,,,0,,,81,0
77387,note_on,,5,0,2,,,,,,,,,1,,,66,0
77388,note_on,,1,0,1,,,,,,,,,0,,,79,59
77388,note_on,,1,0,2,,,,,,,,,1,,,64,85
77392,note_on,,0,0,3,,,,,,,,,2,,,71,70
77392,note_on,,16,0,4,,,,,,,,,3,,,72,0
77392,note_on,,16,0,5,,,,,,,,,4,,,72,0
77392,note_on,,16,0,3,,,,,,,,,2,,,72,0
77392,note_on,,0,0,4,,,,,,,,,3,,,71,70
77392,note_on,,0,0,5,,,,,,,,,4,,,71,70
77392,note_on,,16,0,6,,,,,,,,,5,,,72,0
77392,note_on,,0,0,6,,,,,,,,,5,,,71,70
77393,note_on,,5,0,1,,,,,,,,,0,,,79,0
77393,note_on,,5,0,2,,,,,,,,,1,,,64,0
77394,note_on,,1,0,2,,,,,,,,,1,,,66,76
77394,note_on,,1,0,1,,,,,,,,,0,,,81,85
77399,note_on,,5,0,1,,,,,,,,,0,,,81,0
77399,note_on,,5,0,2,,,,,,,,,1,,,66,0
77400,note_on,,1,0,1,,,,,,,,,0,,,79,78
77400,note_on,,1,0,2,,,,,,,,,1,,,64,85
77405,note_on,,5,0,2,,,,,,,,,1,,,64,0
77405,note_on,,5,0,1,,,,,,,,,0,,,79,0
77406,note_on,,1,0,1,,,,,,,,,0,,,81,85
77406,note_on,,1,0,2,,,,,,,,,1,,,66,74
77408,note_on,,0,0,5,,,,,,,,,4,,,69,85
77408,note_on,,16,0,4,,,,,,,,,3,,,71,0
77408,note_on,,0,0,3,,,,,,,,,2,,,69,85
77408,note_on,,16,0,3,,,,,,,,,2,,,71,0
77408,note_on,,16,0,6,,,,,,,,,5,,,71,0
77408,note_on,,0,0,6,,,,,,,,,5,,,69,85
77408,note_on,,16,0,5,,,,,,,,,4,,,71,0
77408,note_on,,0,0,4,,,,,,,,,3,,,69,85
77411,note_on,,5,0,1,,,,,,,,,0,,,81,0
77411,note_on,,5,0,2,,,,,,,,,1,,,66,0
77412,note_on,,1,0,1,,,,,,,,,0,,,79,81
77412,note_on,,1,0,2,,,,,,,,,1,,,64,85
77417,note_on,,5,0,1,,,,,,,,,0,,,79,0
77417,note_on,,5,0,2,,,,,,,,,1,,,64,0
77418,note_on,,1,0,1,,,,,,,,,0,,,81,85
77418,note_on,,1,0,2,,,,,,,,,1,,,66,74
77423,note_on,,5,0,1,,,,,,,,,0,,,81,0
77423,note_on,,5,0,2,,,,,,,,,1,,,66,0
77424,note_on,,0,0,4,,,,,,,,,3,,,67,84
77424,note_on,,1,0,1,,,,,,,,,0,,,79,85
77424,note_on,,16,0,4,,,,,,,,,3,,,69,0
77424,note_on,,0,0,3,,,,,,,,,2,,,67,84
77424,note_on,,16,0,3,,,,,,,,,2,,,69,0
77424,note_on,,0,0,5,,,,,,,,,4,,,67,84
77424,note_on,,16,0,5,,,,,,,,,4,,,69,0
77424,note_on,,16,0,6,,,,,,,,,5,,,69,0
77424,note_on,,0,0,6,,,,,,,,,5,,,67,84
77424,note_on,,1,0,2,,,,,,,,,1,,,64,85
77429,note_on,,5,0,1,,,,,,,,,0,,,79,0
77429,note_on,,5,0,2,,,,,,,,,1,,,64,0
77430,note_on,,1,0,2,,,,,,,,,1,,,66,74
77430,note_on,,1,0,1,,,,,,,,,0,,,81,85
77435,note_on,,5,0,2,,,,,,,,,1,,,66,0
77435,note_on,,5,0,1,,,,,,,,,0,,,81,0
77436,note_on,,1,0,2,,,,,,,,,1,,,64,85
77436,note_on,,1,0,1,,,,,,,,,0,,,79,85
77440,note_on,,16,0,6,,,,,,,,,5,,,67,0
77440,note_on,,0,0,4,,,,,,,,,3,,,69,76
77440,note_on,,0,0,3,,,,,,,,,2,,,69,76
77440,note_on,,16,0,3,,,,,,,,,2,,,67,0
77440,note_on,,0,0,5,,,,,,,,,4,,,69,76
77440,note_on,,16,0,5,,,,,,,,,4,,,67,0
77440,note_on,,0,0,6,,,,,,,,,5,,,69,76
77440,note_on,,16,0,4,,,,,,,,,3,,,67,0
77441,note_on,,5,0,1,,,,,,,,,0,,,79,0
77441,note_on,,5,0,2,,,,,,,,,1,,,64,0
77442,note_on,,1,0,1,,,,,,,,,0,,,81,85
77442,note_on,,1,0,2,,,,,,,,,1,,,66,74
77447,note_on,,5,0,1,,,,,,,,,0,,,81,0
77447,note_on,,5,0,2,,,,,,,,,1,,,66,0
77448,note_on,,1,0,1,,,,,,,,,0,,,79,85
77448,note_on,,1,0,2,,,,,,,,,1,,,64,85
77453,note_on,,5,0,1,,,,,,,,,0,,,79,0
77453,note_on,,5,0,2,,,,,,,,,1,,,64,0
77454,note_on,,1,0,2,,,,,,,,,1,,,66,74
77454,note_on,,1,0,1,,,,,,,,,0,,,81,85
77456,note_on,,0,0,4,,,,,,,,,3,,,71,85
77456,note_on,,0,0,3,,,,,,,,,2,,,71,85
77456,note_on,,0,0,6,,,,,,,,,5,,,71,85
77456,note_on,,16,0,6,,,,,,,,,5,,,69,0
77456,note_on,,0,0,5,,,,,,,,,4,,,71,85
77456,note_on,,16,0,5,,,,,,,,,4,,,69,0
77456,note_on,,16,0,4,,,,,,,,,3,,,69,0
77456,note_on,,16,0,3,,,,,,,,,2,,,69,0
77459,note_on,,5,0,1,,,,,,,,,0,,,81,0
77459,note_on,,5,0,2,,,,,,,,,1,,,66,0
77460,note_on,,1,0,1,,,,,,,,,0,,,79,81
77460,note_on,,1,0,2,,,,,,,,,1,,,64,85
77465,note_on,,5,0,2,,,,,,,,,1,,,64,0
77465,note_on,,5,0,1,,,,,,,,,0,,,79,0
77466,note_on,,1,0,2,,,,,,,,,1,,,66,74
77466,note_on,,1,0,1,,,,,,,,,0,,,81,85
77471,note_on,,5,0,1,,,,,,,,,0,,,81,0
77471,note_on,,5,0,2,,,,,,,,,1,,,66,0
77472,note_on,,1,0,1,,,,,,,,,0,,,79,72
77472,note_on,,1,0,2,,,,,,,,,1,,,64,76
77472,note_on,,16,0,3,,,,,,,,,2,,,71,0
77472,note_on,,0,0,6,,,,,,,,,5,,,64,85
77472,note_on,,16,0,4,,,,,,,,,3,,,71,0
77472,note_on,,0,0,4,,,,,,,,,3,,,64,85
77472,note_on,,16,0,6,,,,,,,,,5,,,71,0
77472,note_on,,16,0,5,,,,,,,,,4,,,71,0
77472,note_on,,0,0,5,,,,,,,,,4,,,64,85
77472,note_on,,0,0,3,,,,,,,,,2,,,64,85
77479,note_on,,7,0,1,,,,,,,,,0,,,79,0
77483,note_on,,11,0,2,,,,,,,,,1,,,64,0
77488,note_on,,9,0,1,,,,,,,,,0,,,67,76
77488,note_on,,5,0,2,,,,,,,,,1,,,52,72
77495,note_on,,7,0,1,,,,,,,,,0,,,67,0
77496,note_on,,24,0,3,,,,,,,,,2,,,64,0
77496,note_on,,24,0,4,,,,,,,,,3,,,64,0
77496,note_on,,24,0,5,,,,,,,,,4,,,64,0
77496,note_on,,24,0,6,,,,,,,,,5,,,64,0
77499,note_on,,11,0,2,,,,,,,,,1,,,52,0
77504,note_on,,5,0,2,,,,,,,,,1,,,54,50
77504,note_on,,9,0,1,,,,,,,,,0,,,69,85
77511,note_on,,7,0,1,,,,,,,,,0,,,69,0
77515,note_on,,11,0,2,,,,,,,,,1,,,54,0
77520,note_on,,5,0,2,,,,,,,,,1,,,55,85
77520,note_on,,9,0,1,,,,,,,,,0,,,71,85
77527,note_on,,7,0,1,,,,,,,,,0,,,71,0
77531,note_on,,11,0,2,,,,,,,,,1,,,55,0
77536,note_on,,5,0,2,,,,,,,,,1,,,59,71
77536,note_on,,9,0,1,,,,,,,,,0,,,74,77
77543,note_on,,7,0,1,,,,,,,,,0,,,74,0
77547,note_on,,11,0,2,,,,,,,,,1,,,59,0
77552,note_on,,5,0,2,,,,,,,,,1,,,57,85
77552,note_on,,9,0,1,,,,,,,,,0,,,73,43
77559,note_on,,7,0,1,,,,,,,,,0,,,73,0
77563,note_on,,11,0,2,,,,,,,,,1,,,57,0
77568,note_on,,5,0,2,,,,,,,,,1,,,59,72
77568,note_on,,9,0,1,,,,,,,,,0,,,74,85
77575,note_on,,7,0,1,,,,,,,,,0,,,74,0
77579,note_on,,11,0,2,,,,,,,,,1,,,59,0
77584,note_on,,9,0,1,,,,,,,,,0,,,71,46
77584,note_on,,5,0,2,,,,,,,,,1,,,55,85
77591,note_on,,7,0,1,,,,,,,,,0,,,71,0
77595,note_on,,11,0,2,,,,,,,,,1,,,55,0
77600,note_on,,9,0,1,,,,,,,,,0,,,73,60
77600,note_on,,5,0,2,,,,,,,,,1,,,57,85
77607,note_on,,7,0,1,,,,,,,,,0,,,73,0
77611,note_on,,11,0,2,,,,,,,,,1,,,57,0
77616,note_on,,9,0,1,,,,,,,,,0,,,74,85
77616,note_on,,5,0,2,,,,,,,,,1,,,59,59
77623,note_on,,7,0,1,,,,,,,,,0,,,74,0
77627,note_on,,11,0,2,,,,,,,,,1,,,59,0
77632,note_on,,5,0,2,,,,,,,,,1,,,62,85
77632,note_on,,9,0,1,,,,,,,,,0,,,78,66
77639,note_on,,7,0,1,,,,,,,,,0,,,78,0
77643,note_on,,11,0,2,,,,,,,,,1,,,62,0
77648,note_on,,9,0,1,,,,,,,,,0,,,76,85
77648,note_on,,5,0,2,,,,,,,,,1,,,61,56
77655,note_on,,7,0,1,,,,,,,,,0,,,76,0
77659,note_on,,11,0,2,,,,,,,,,1,,,61,0
77664,note_on,,9,0,1,,,,,,,,,0,,,78,95
77664,note_on,,5,0,2,,,,,,,,,1,,,62,95
77669,note_on,,5,0,1,,,,,,,,,0,,,78,0
77669,note_on,,5,0,2,,,,,,,,,1,,,62,0
77670,note_on,,1,0,1,,,,,,,,,0,,,79,95
77670,note_on,,1,0,2,,,,,,,,,1,,,64,95
77675,note_on,,5,0,1,,,,,,,,,0,,,79,0
77675,note_on,,5,0,2,,,,,,,,,1,,,64,0
77676,note_on,,1,0,1,,,,,,,,,0,,,78,95
77676,note_on,,1,0,2,,,,,,,,,1,,,62,95
77681,note_on,,5,0,2,,,,,,,,,1,,,62,0
77681,note_on,,5,0,1,,,,,,,,,0,,,78,0
77682,note_on,,1,0,1,,,,,,,,,0,,,79,95
77682,note_on,,1,0,2,,,,,,,,,1,,,64,95
77687,note_on,,5,0,1,,,,,,,,,0,,,79,0
77687,note_on,,5,0,2,,,,,,,,,1,,,64,0
77688,note_on,,1,0,1,,,,,,,,,0,,,78,95
77688,note_on,,1,0,2,,,,,,,,,1,,,62,95
77693,note_on,,5,0,1,,,,,,,,,0,,,78,0
77693,note_on,,5,0,2,,,,,,,,,1,,,62,0
77694,note_on,,1,0,2,,,,,,,,,1,,,64,95
77694,note_on,,1,0,1,,,,,,,,,0,,,79,95
77699,note_on,,5,0,1,,,,,,,,,0,,,79,0
77699,note_on,,5,0,2,,,,,,,,,1,,,64,0
77700,note_on,,204,0,6,,,,,,,,,5,,,66,62
77700,note_on,,1,0,1,,,,,,,,,0,,,78,95
77700,note_on,,204,0,4,,,,,,,,,3,,,66,62
77700,note_on,,204,0,3,,,,,,,,,2,,,66,62
77700,note_on,,1,0,2,,,,,,,,,1,,,62,95
77700,note_on,,204,0,5,,,,,,,,,4,,,66,62
77705,note_on,,5,0,2,,,,,,,,,1,,,62,0
77705,note_on,,5,0,1,,,,,,,,,0,,,78,0
77706,note_on,,1,0,2,,,,,,,,,1,,,64,95
77706,note_on,,1,0,1,,,,,,,,,0,,,79,95
77711,note_on,,5,0,2,,,,,,,,,1,,,64,0
77711,note_on,,5,0,1,,,,,,,,,0,,,79,0
77712,note_on,,12,0,3,,,,,,,,,2,,,66,0
77712,note_on,,0,0,4,,,,,,,,,3,,,71,52
77712,note_on,,0,0,5,,,,,,,,,4,,,71,56
77712,note_on,,12,0,5,,,,,,,,,4,,,66,0
77712,note_on,,0,0,6,,,,,,,,,5,,,71,56
77712,note_on,,12,0,6,,,,,,,,,5,,,66,0
77712,note_on,,12,0,4,,,,,,,,,3,,,66,0
77712,note_on,,1,0,1,,,,,,,,,0,,,78,95
77712,note_on,,1,0,2,,,,,,,,,1,,,62,95
77712,note_on,,0,0,3,,,,,,,,,2,,,71,56
77717,note_on,,5,0,1,,,,,,,,,0,,,78,0
77717,note_on,,5,0,2,,,,,,,,,1,,,62,0
77718,note_on,,1,0,1,,,,,,,,,0,,,79,95
77718,note_on,,1,0,2,,,,,,,,,1,,,64,95
77723,note_on,,5,0,1,,,,,,,,,0,,,79,0
77723,note_on,,5,0,2,,,,,,,,,1,,,64,0
77724,note_on,,1,0,2,,,,,,,,,1,,,62,95
77724,note_on,,1,0,1,,,,,,,,,0,,,78,95
77729,note_on,,5,0,1,,,,,,,,,0,,,78,0
77729,note_on,,5,0,2,,,,,,,,,1,,,62,0
77730,note_on,,1,0,1,,,,,,,,,0,,,79,95
77730,note_on,,1,0,2,,,,,,,,,1,,,64,95
77735,note_on,,5,0,1,,,,,,,,,0,,,79,0
77735,note_on,,5,0,2,,,,,,,,,1,,,64,0
77736,note_on,,1,0,2,,,,,,,,,1,,,62,95
77736,note_on,,1,0,1,,,,,,,,,0,,,78,95
77741,note_on,,5,0,2,,,,,,,,,1,,,62,0
77741,note_on,,5,0,1,,,,,,,,,0,,,78,0
77742,note_on,,1,0,2,,,,,,,,,1,,,64,95
77742,note_on,,1,0,1,,,,,,,,,0,,,79,95
77747,note_on,,5,0,1,,,,,,,,,0,,,79,0
77747,note_on,,5,0,2,,,,,,,,,1,,,64,0
77748,note_on,,36,0,4,,,,,,,,,3,,,71,0
77748,note_on,,1,0,1,,,,,,,,,0,,,78,95
77748,note_on,,36,0,6,,,,,,,,,5,,,71,0
77748,note_on,,0,0,6,,,,,,,,,5,,,66,66
77748,note_on,,0,0,4,,,,,,,,,3,,,66,66
77748,note_on,,0,0,5,,,,,,,,,4,,,66,66
77748,note_on,,36,0,5,,,,,,,,,4,,,71,0
77748,note_on,,0,0,3,,,,,,,,,2,,,66,66
77748,note_on,,36,0,3,,,,,,,,,2,,,71,0
77748,note_on,,1,0,2,,,,,,,,,1,,,62,95
77753,note_on,,5,0,2,,,,,,,,,1,,,62,0
77753,note_on,,5,0,1,,,,,,,,,0,,,78,0
77754,note_on,,1,0,1,,,,,,,,,0,,,79,95
77754,note_on,,1,0,2,,,,,,,,,1,,,64,95
77759,note_on,,5,0,1,,,,,,,,,0,,,79,0
77759,note_on,,5,0,2,,,,,,,,,1,,,64,0
77760,note_on,,0,0,3,,,,,,,,,2,,,67,79
77760,note_on,,12,0,4,,,,,,,,,3,,,66,0
77760,note_on,,0,0,4,,,,,,,,,3,,,67,79
77760,note_on,,12,0,3,,,,,,,,,2,,,66,0
77760,note_on,,1,0,2,,,,,,,,,1,,,62,95
77760,note_on,,0,0,5,,,,,,,,,4,,,67,79
77760,note_on,,12,0,6,,,,,,,,,5,,,66,0
77760,note_on,,0,0,6,,,,,,,,,5,,,67,79
77760,note_on,,1,0,1,,,,,,,,,0,,,78,95
77760,note_on,,12,0,5,,,,,,,,,4,,,66,0
77765,note_on,,5,0,2,,,,,,,,,1,,,62,0
77765,note_on,,5,0,1,,,,,,,,,0,,,78,0
77766,note_on,,1,0,2,,,,,,,,,1,,,64,95
77766,note_on,,1,0,1,,,,,,,,,0,,,79,95
77771,note_on,,5,0,2,,,,,,,,,1,,,64,0
77771,note_on,,5,0,1,,,,,,,,,0,,,79,0
77772,note_on,,1,0,2,,,,,,,,,1,,,62,95
77772,note_on,,1,0,1,,,,,,,,,0,,,78,95
77776,note_on,,16,0,5,,,,,,,,,4,,,67,0
77776,note_on,,0,0,5,,,,,,,,,4,,,66,56
77776,note_on,,16,0,4,,,,,,,,,3,,,67,0
77776,note_on,,0,0,3,,,,,,,,,2,,,66,56
77776,note_on,,0,0,4,,,,,,,,,3,,,66,52
77776,note_on,,0,0,6,,,,,,,,,5,,,66,56
77776,note_on,,16,0,6,,,,,,,,,5,,,67,0
77776,note_on,,16,0,3,,,,,,,,,2,,,67,0
77777,note_on,,5,0,1,,,,,,,,,0,,,78,0
77777,note_on,,5,0,2,,,,,,,,,1,,,62,0
77778,note_on,,1,0,2,,,,,,,,,1,,,64,95
77778,note_on,,1,0,1,,,,,,,,,0,,,79,95
77783,note_on,,5,0,1,,,,,,,,,0,,,79,0
77783,note_on,,5,0,2,,,,,,,,,1,,,64,0
77784,note_on,,1,0,2,,,,,,,,,1,,,62,95
77784,note_on,,1,0,1,,,,,,,,,0,,,78,95
77789,note_on,,5,0,1,,,,,,,,,0,,,78,0
77789,note_on,,5,0,2,,,,,,,,,1,,,62,0
77790,note_on,,1,0,1,,,,,,,,,0,,,79,95
77790,note_on,,1,0,2,,,,,,,,,1,,,64,95
77792,note_on,,16,0,3,,,,,,,,,2,,,66,0
77792,note_on,,16,0,4,,,,,,,,,3,,,66,0
77792,note_on,,16,0,5,,,,,,,,,4,,,66,0
77792,note_on,,0,0,5,,,,,,,,,4,,,64,76
77792,note_on,,0,0,4,,,,,,,,,3,,,64,76
77792,note_on,,0,0,6,,,,,,,,,5,,,64,76
77792,note_on,,0,0,3,,,,,,,,,2,,,64,76
77792,note_on,,16,0,6,,,,,,,,,5,,,66,0
77795,note_on,,5,0,1,,,,,,,,,0,,,79,0
77795,note_on,,5,0,2,,,,,,,,,1,,,64,0
77796,note_on,,1,0,1,,,,,,,,,0,,,78,95
77796,note_on,,1,0,2,,,,,,,,,1,,,62,95
77801,note_on,,5,0,2,,,,,,,,,1,,,62,0
77801,note_on,,5,0,1,,,,,,,,,0,,,78,0
77802,note_on,,1,0,1,,,,,,,,,0,,,79,95
77802,note_on,,1,0,2,,,,,,,,,1,,,64,95
77807,note_on,,5,0,2,,,,,,,,,1,,,64,0
77807,note_on,,5,0,1,,,,,,,,,0,,,79,0
77808,note_on,,1,0,1,,,,,,,,,0,,,78,95
77808,note_on,,0,0,5,,,,,,,,,4,,,62,85
77808,note_on,,16,0,5,,,,,,,,,4,,,64,0
77808,note_on,,16,0,4,,,,,,,,,3,,,64,0
77808,note_on,,0,0,4,,,,,,,,,3,,,62,85
77808,note_on,,0,0,6,,,,,,,,,5,,,62,85
77808,note_on,,16,0,3,,,,,,,,,2,,,64,0
77808,note_on,,0,0,3,,,,,,,,,2,,,62,85
77808,note_on,,16,0,6,,,,,,,,,5,,,64,0
77808,note_on,,1,0,2,,,,,,,,,1,,,62,95
77813,note_on,,5,0,1,,,,,,,,,0,,,78,0
77813,note_on,,5,0,2,,,,,,,,,1,,,62,0
77814,note_on,,1,0,2,,,,,,,,,1,,,64,95
77814,note_on,,1,0,1,,,,,,,,,0,,,79,95
77819,note_on,,5,0,2,,,,,,,,,1,,,64,0
77819,note_on,,5,0,1,,,,,,,,,0,,,79,0
77820,note_on,,1,0,1,,,,,,,,,0,,,78,95
77820,note_on,,1,0,2,,,,,,,,,1,,,62,95
77824,note_on,,16,0,5,,,,,,,,,4,,,62,0
77824,note_on,,0,0,5,,,,,,,,,4,,,64,85
77824,note_on,,0,0,6,,,,,,,,,5,,,64,85
77824,note_on,,16,0,4,,,,,,,,,3,,,62,0
77824,note_on,,16,0,6,,,,,,,,,5,,,62,0
77824,note_on,,0,0,3,,,,,,,,,2,,,64,85
77824,note_on,,16,0,3,,,,,,,,,2,,,62,0
77824,note_on,,0,0,4,,,,,,,,,3,,,64,85
77825,note_on,,5,0,2,,,,,,,,,1,,,62,0
77825,note_on,,5,0,1,,,,,,,,,0,,,78,0
77826,note_on,,1,0,2,,,,,,,,,1,,,64,95
77826,note_on,,1,0,1,,,,,,,,,0,,,79,95
77831,note_on,,5,0,2,,,,,,,,,1,,,64,0
77831,note_on,,5,0,1,,,,,,,,,0,,,79,0
77832,note_on,,1,0,1,,,,,,,,,0,,,78,95
77832,note_on,,1,0,2,,,,,,,,,1,,,62,95
77837,note_on,,5,0,1,,,,,,,,,0,,,78,0
77837,note_on,,5,0,2,,,,,,,,,1,,,62,0
77838,note_on,,1,0,1,,,,,,,,,0,,,79,95
77838,note_on,,1,0,2,,,,,,,,,1,,,64,95
77840,note_on,,0,0,5,,,,,,,,,4,,,66,62
77840,note_on,,16,0,5,,,,,,,,,4,,,64,0
77840,note_on,,16,0,6,,,,,,,,,5,,,64,0
77840,note_on,,16,0,3,,,,,,,,,2,,,64,0
77840,note_on,,16,0,4,,,,,,,,,3,,,64,0
77840,note_on,,0,0,6,,,,,,,,,5,,,66,62
77840,note_on,,0,0,4,,,,,,,,,3,,,66,62
77840,note_on,,0,0,3,,,,,,,,,2,,,66,62
77843,note_on,,5,0,2,,,,,,,,,1,,,64,0
77843,note_on,,5,0,1,,,,,,,,,0,,,79,0
77844,note_on,,1,0,2,,,,,,,,,1,,,62,95
77844,note_on,,1,0,1,,,,,,,,,0,,,78,95
77849,note_on,,5,0,1,,,,,,,,,0,,,78,0
77849,note_on,,5,0,2,,,,,,,,,1,,,62,0
77850,note_on,,1,0,2,,,,,,,,,1,,,64,95
77850,note_on,,1,0,1,,,,,,,,,0,,,79,95
77855,note_on,,5,0,1,,,,,,,,,0,,,79,0
77855,note_on,,5,0,2,,,,,,,,,1,,,64,0
77856,note_on,,16,0,4,,,,,,,,,3,,,66,0
77856,note_on,,16,0,3,,,,,,,,,2,,,66,0
77856,note_on,,0,0,3,,,,,,,,,2,,,71,85
77856,note_on,,1,0,2,,,,,,,,,1,,,62,85
77856,note_on,,0,0,5,,,,,,,,,4,,,59,62
77856,note_on,,16,0,5,,,,,,,,,4,,,66,0
77856,note_on,,0,0,4,,,,,,,,,3,,,59,62
77856,note_on,,0,0,6,,,,,,,,,5,,,59,62
77856,note_on,,16,0,6,,,,,,,,,5,,,66,0
77856,note_on,,1,0,1,,,,,,,,,0,,,78,72
77872,note_on,,16,0,2,,,,,,,,,1,,,62,0
77874,note_on,,18,0,1,,,,,,,,,0,,,78,0
77875,note_on,,19,0,4,,,,,,,,,3,,,59,0
77875,note_on,,19,0,6,,,,,,,,,5,,,59,0
77875,note_on,,19,0,5,,,,,,,,,4,,,59,0
77880,note_on,,24,0,3,,,,,,,,,2,,,71,0
77892,note_on,,18,0,1,,,,,,,,,0,,,78,71
77898,note_on,,6,0,1,,,,,,,,,0,,,78,0
77904,note_on,,6,0,1,,,,,,,,,0,,,83,85
77922,note_on,,18,0,1,,,,,,,,,0,,,83,0
77936,note_on,,14,0,1,,,,,,,,,0,,,78,82
77942,note_on,,6,0,1,,,,,,,,,0,,,78,0
77952,note_on,,10,0,1,,,,,,,,,0,,,79,72
77960,note_on,,8,0,1,,,,,,,,,0,,,79,0
77968,note_on,,8,0,1,,,,,,,,,0,,,78,60
77976,note_on,,8,0,1,,,,,,,,,0,,,78,0
77984,note_on,,8,0,1,,,,,,,,,0,,,76,85
77988,note_on,,116,0,2,,,,,,,,,1,,,66,60
77992,note_on,,8,0,1,,,,,,,,,0,,,76,0
77996,note_on,,8,0,2,,,,,,,,,1,,,66,0
78000,note_on,,4,0,2,,,,,,,,,1,,,71,76
78000,note_on,,8,0,1,,,,,,,,,0,,,74,85
78008,note_on,,8,0,1,,,,,,,,,0,,,74,0
78016,note_on,,8,0,1,,,,,,,,,0,,,76,79
78024,note_on,,24,0,2,,,,,,,,,1,,,71,0
78024,note_on,,8,0,1,,,,,,,,,0,,,76,0
78032,note_on,,8,0,1,,,,,,,,,0,,,78,61
78036,note_on,,12,0,2,,,,,,,,,1,,,66,59
78040,note_on,,8,0,1,,,,,,,,,0,,,78,0
78044,note_on,,8,0,2,,,,,,,,,1,,,66,0
78048,note_on,,8,0,1,,,,,,,,,0,,,71,85
78048,note_on,,4,0,2,,,,,,,,,1,,,67,59
78059,note_on,,11,0,2,,,,,,,,,1,,,67,0
78064,note_on,,5,0,2,,,,,,,,,1,,,66,64
78066,note_on,,18,0,1,,,,,,,,,0,,,71,0
78075,note_on,,11,0,2,,,,,,,,,1,,,66,0
78080,note_on,,5,0,2,,,,,,,,,1,,,64,85
78084,note_on,,18,0,1,,,,,,,,,0,,,66,57
78090,note_on,,6,0,1,,,,,,,,,0,,,66,0
78091,note_on,,11,0,2,,,,,,,,,1,,,64,0
78096,note_on,,5,0,2,,,,,,,,,1,,,62,85
78096,note_on,,6,0,1,,,,,,,,,0,,,71,72
78104,note_on,,8,0,1,,,,,,,,,0,,,71,0
78107,note_on,,11,0,2,,,,,,,,,1,,,62,0
78112,note_on,,8,0,1,,,,,,,,,0,,,74,85
78112,note_on,,5,0,2,,,,,,,,,1,,,64,85
78120,note_on,,8,0,1,,,,,,,,,0,,,74,0
78123,note_on,,11,0,2,,,,,,,,,1,,,64,0
78128,note_on,,5,0,2,,,,,,,,,1,,,66,56
78128,note_on,,8,0,1,,,,,,,,,0,,,73,62
78136,note_on,,8,0,1,,,,,,,,,0,,,73,0
78139,note_on,,11,0,2,,,,,,,,,1,,,66,0
78144,note_on,,8,0,1,,,,,,,,,0,,,74,85
78144,note_on,,5,0,2,,,,,,,,,1,,,59,85
78152,note_on,,8,0,1,,,,,,,,,0,,,74,0
78160,note_on,,8,0,1,,,,,,,,,0,,,71,85
78168,note_on,,24,0,2,,,,,,,,,1,,,59,0
78168,note_on,,8,0,1,,,,,,,,,0,,,71,0
78176,note_on,,8,0,1,,,,,,,,,0,,,73,59
78180,note_on,,12,0,2,,,,,,,,,1,,,54,62
78184,note_on,,8,0,1,,,,,,,,,0,,,73,0
78188,note_on,,8,0,2,,,,,,,,,1,,,54,0
78192,note_on,,8,0,1,,,,,,,,,0,,,74,85
78192,note_on,,4,0,2,,,,,,,,,1,,,59,76
78200,note_on,,8,0,1,,,,,,,,,0,,,74,0
78203,note_on,,11,0,2,,,,,,,,,1,,,59,0
78208,note_on,,8,0,1,,,,,,,,,0,,,78,59
78208,note_on,,5,0,2,,,,,,,,,1,,,62,70
78216,note_on,,8,0,1,,,,,,,,,0,,,78,0
78219,note_on,,11,0,2,,,,,,,,,1,,,62,0
78224,note_on,,8,0,1,,,,,,,,,0,,,76,85
78224,note_on,,5,0,2,,,,,,,,,1,,,61,59
78232,note_on,,8,0,1,,,,,,,,,0,,,76,0
78235,note_on,,11,0,2,,,,,,,,,1,,,61,0
78240,note_on,,5,0,2,,,,,,,,,1,,,62,59
78240,note_on,,8,0,1,,,,,,,,,0,,,78,52
78251,note_on,,11,0,2,,,,,,,,,1,,,62,0
78256,note_on,,5,0,2,,,,,,,,,1,,,59,85
78258,note_on,,18,0,1,,,,,,,,,0,,,78,0
78267,note_on,,11,0,2,,,,,,,,,1,,,59,0
78272,note_on,,5,0,2,,,,,,,,,1,,,61,57
78276,note_on,,18,0,1,,,,,,,,,0,,,71,85
78282,note_on,,6,0,1,,,,,,,,,0,,,71,0
78283,note_on,,11,0,2,,,,,,,,,1,,,61,0
78288,note_on,,6,0,1,,,,,,,,,0,,,78,64
78288,note_on,,5,0,2,,,,,,,,,1,,,62,62
78299,note_on,,11,0,2,,,,,,,,,1,,,62,0
78304,note_on,,5,0,2,,,,,,,,,1,,,66,54
78306,note_on,,18,0,1,,,,,,,,,0,,,78,0
78315,note_on,,11,0,2,,,,,,,,,1,,,66,0
78320,note_on,,5,0,2,,,,,,,,,1,,,64,81
78324,note_on,,18,0,1,,,,,,,,,0,,,73,61
78330,note_on,,6,0,1,,,,,,,,,0,,,73,0
78331,note_on,,11,0,2,,,,,,,,,1,,,64,0
78336,note_on,,5,0,2,,,,,,,,,1,,,66,46
78336,note_on,,6,0,1,,,,,,,,,0,,,74,66
78344,note_on,,8,0,1,,,,,,,,,0,,,74,0
78352,note_on,,8,0,1,,,,,,,,,0,,,73,49
78360,note_on,,24,0,2,,,,,,,,,1,,,66,0
78360,note_on,,8,0,1,,,,,,,,,0,,,73,0
78368,note_on,,8,0,1,,,,,,,,,0,,,71,78
78372,note_on,,12,0,2,,,,,,,,,1,,,59,85
78376,note_on,,8,0,1,,,,,,,,,0,,,71,0
78380,note_on,,8,0,2,,,,,,,,,1,,,59,0
78384,note_on,,4,0,2,,,,,,,,,1,,,66,52
78384,note_on,,8,0,1,,,,,,,,,0,,,70,49
78392,note_on,,8,0,1,,,,,,,,,0,,,70,0
78400,note_on,,8,0,1,,,,,,,,,0,,,71,46
78408,note_on,,24,0,2,,,,,,,,,1,,,66,0
78408,note_on,,8,0,1,,,,,,,,,0,,,71,0
78416,note_on,,8,0,1,,,,,,,,,0,,,73,64
78420,note_on,,12,0,2,,,,,,,,,1,,,61,72
78424,note_on,,8,0,1,,,,,,,,,0,,,73,0
78428,note_on,,8,0,2,,,,,,,,,1,,,61,0
78432,note_on,,4,0,2,,,,,,,,,1,,,62,85
78432,note_on,,8,0,1,,,,,,,,,0,,,66,85
78443,note_on,,11,0,2,,,,,,,,,1,,,62,0
78448,note_on,,5,0,2,,,,,,,,,1,,,61,62
78459,note_on,,11,0,2,,,,,,,,,1,,,61,0
78464,note_on,,5,0,2,,,,,,,,,1,,,59,85
78468,note_on,,36,0,1,,,,,,,,,0,,,66,0
78475,note_on,,11,0,2,,,,,,,,,1,,,59,0
78480,note_on,,5,0,2,,,,,,,,,1,,,58,52
78480,note_on,,12,0,1,,,,,,,,,0,,,76,85
78491,note_on,,11,0,2,,,,,,,,,1,,,58,0
78496,note_on,,5,0,2,,,,,,,,,1,,,59,85
78507,note_on,,11,0,2,,,,,,,,,1,,,59,0
78512,note_on,,5,0,2,,,,,,,,,1,,,61,67
78523,note_on,,11,0,2,,,,,,,,,1,,,61,0
78528,note_on,,5,0,2,,,,,,,,,1,,,54,65
78534,note_on,,54,0,1,,,,,,,,,0,,,76,0
78544,note_on,,10,0,1,,,,,,,,,0,,,74,85
78556,note_on,,12,0,1,,,,,,,,,0,,,74,0
78560,note_on,,4,0,1,,,,,,,,,0,,,73,59
78560,note_on,,32,0,2,,,,,,,,,1,,,54,0
78572,note_on,,12,0,1,,,,,,,,,0,,,73,0
78576,note_on,,4,0,1,,,,,,,,,0,,,71,85
78576,note_on,,16,0,2,,,,,,,,,1,,,64,85
78588,note_on,,12,0,1,,,,,,,,,0,,,71,0
78592,note_on,,4,0,1,,,,,,,,,0,,,73,57
78604,note_on,,12,0,1,,,,,,,,,0,,,73,0
78608,note_on,,4,0,1,,,,,,,,,0,,,70,46
78620,note_on,,12,0,1,,,,,,,,,0,,,70,0
78624,note_on,,4,0,1,,,,,,,,,0,,,79,85
78636,note_on,,60,0,2,,,,,,,,,1,,,64,0
78636,note_on,,12,0,1,,,,,,,,,0,,,79,0
78640,note_on,,4,0,2,,,,,,,,,1,,,62,62
78640,note_on,,4,0,1,,,,,,,,,0,,,78,65
78652,note_on,,12,0,1,,,,,,,,,0,,,78,0
78653,note_on,,13,0,2,,,,,,,,,1,,,62,0
78656,note_on,,3,0,2,,,,,,,,,1,,,61,67
78656,note_on,,4,0,1,,,,,,,,,0,,,76,78
78668,note_on,,12,0,1,,,,,,,,,0,,,76,0
78669,note_on,,13,0,2,,,,,,,,,1,,,61,0
78672,note_on,,4,0,1,,,,,,,,,0,,,74,85
78672,note_on,,3,0,2,,,,,,,,,1,,,59,85
78684,note_on,,12,0,1,,,,,,,,,0,,,74,0
78685,note_on,,13,0,2,,,,,,,,,1,,,59,0
78688,note_on,,3,0,2,,,,,,,,,1,,,61,57
78688,note_on,,4,0,1,,,,,,,,,0,,,76,70
78700,note_on,,12,0,1,,,,,,,,,0,,,76,0
78701,note_on,,13,0,2,,,,,,,,,1,,,61,0
78704,note_on,,3,0,2,,,,,,,,,1,,,58,60
78704,note_on,,4,0,1,,,,,,,,,0,,,73,62
78716,note_on,,12,0,1,,,,,,,,,0,,,73,0
78717,note_on,,13,0,2,,,,,,,,,1,,,58,0
78720,note_on,,4,0,1,,,,,,,,,0,,,71,85
78720,note_on,,3,0,2,,,,,,,,,1,,,67,85
78733,note_on,,13,0,2,,,,,,,,,1,,,67,0
78736,note_on,,3,0,2,,,,,,,,,1,,,66,66
78747,note_on,,27,0,1,,,,,,,,,0,,,71,0
78749,note_on,,13,0,2,,,,,,,,,1,,,66,0
78752,note_on,,3,0,2,,,,,,,,,1,,,64,85
78756,note_on,,9,0,1,,,,,,,,,0,,,66,56
78765,note_on,,13,0,2,,,,,,,,,1,,,64,0
78765,note_on,,9,0,1,,,,,,,,,0,,,66,0
78768,note_on,,3,0,1,,,,,,,,,0,,,71,85
78768,note_on,,3,0,2,,,,,,,,,1,,,62,85
78781,note_on,,13,0,2,,,,,,,,,1,,,62,0
78784,note_on,,3,0,2,,,,,,,,,1,,,64,72
78795,note_on,,27,0,1,,,,,,,,,0,,,71,0
78797,note_on,,13,0,2,,,,,,,,,1,,,64,0
78800,note_on,,3,0,2,,,,,,,,,1,,,61,59
78804,note_on,,9,0,1,,,,,,,,,0,,,66,60
78813,note_on,,9,0,1,,,,,,,,,0,,,66,0
78813,note_on,,13,0,2,,,,,,,,,1,,,61,0
78816,note_on,,3,0,1,,,,,,,,,0,,,67,79
78816,note_on,,3,0,2,,,,,,,,,1,,,59,81
78828,note_on,,12,0,1,,,,,,,,,0,,,67,0
78832,note_on,,4,0,1,,,,,,,,,0,,,66,53
78844,note_on,,12,0,1,,,,,,,,,0,,,66,0
78846,note_on,,30,0,2,,,,,,,,,1,,,59,0
78848,note_on,,4,0,1,,,,,,,,,0,,,64,77
78852,note_on,,6,0,2,,,,,,,,,1,,,54,47
78860,note_on,,12,0,1,,,,,,,,,0,,,64,0
78862,note_on,,10,0,2,,,,,,,,,1,,,54,0
78864,note_on,,4,0,1,,,,,,,,,0,,,62,85
78864,note_on,,2,0,2,,,,,,,,,1,,,59,76
78876,note_on,,12,0,1,,,,,,,,,0,,,62,0
78880,note_on,,4,0,1,,,,,,,,,0,,,64,85
78892,note_on,,12,0,1,,,,,,,,,0,,,64,0
78894,note_on,,30,0,2,,,,,,,,,1,,,59,0
78896,note_on,,4,0,1,,,,,,,,,0,,,66,68
78900,note_on,,6,0,2,,,,,,,,,1,,,54,64
78908,note_on,,12,0,1,,,,,,,,,0,,,66,0
78910,note_on,,10,0,2,,,,,,,,,1,,,54,0
78912,note_on,,2,0,2,,,,,,,,,1,,,55,85
78912,note_on,,4,0,1,,,,,,,,,0,,,59,81
78925,note_on,,13,0,2,,,,,,,,,1,,,55,0
78928,note_on,,3,0,2,,,,,,,,,1,,,54,64
78939,note_on,,27,0,1,,,,,,,,,0,,,59,0
78941,note_on,,13,0,2,,,,,,,,,1,,,54,0
78944,note_on,,3,0,2,,,,,,,,,1,,,52,77
78948,note_on,,9,0,1,,,,,,,,,0,,,54,68
78957,note_on,,9,0,1,,,,,,,,,0,,,54,0
78957,note_on,,13,0,2,,,,,,,,,1,,,52,0
78960,note_on,,3,0,1,,,,,,,,,0,,,59,47
78960,note_on,,3,0,2,,,,,,,,,1,,,50,85
78972,note_on,,12,0,1,,,,,,,,,0,,,59,0
78973,note_on,,13,0,2,,,,,,,,,1,,,50,0
78976,note_on,,4,0,1,,,,,,,,,0,,,62,65
78976,note_on,,3,0,2,,,,,,,,,1,,,52,85
78988,note_on,,12,0,1,,,,,,,,,0,,,62,0
78989,note_on,,13,0,2,,,,,,,,,1,,,52,0
78992,note_on,,4,0,1,,,,,,,,,0,,,61,55
78992,note_on,,3,0,2,,,,,,,,,1,,,54,53
79004,note_on,,12,0,1,,,,,,,,,0,,,61,0
79005,note_on,,13,0,2,,,,,,,,,1,,,54,0
79008,note_on,,3,0,2,,,,,,,,,1,,,47,85
79008,note_on,,4,0,1,,,,,,,,,0,,,62,65
79020,note_on,,12,0,1,,,,,,,,,0,,,62,0
79024,note_on,,4,0,1,,,,,,,,,0,,,59,85
79036,note_on,,12,0,1,,,,,,,,,0,,,59,0
79038,note_on,,30,0,2,,,,,,,,,1,,,47,0
79040,note_on,,4,0,1,,,,,,,,,0,,,61,42
79044,note_on,,6,0,2,,,,,,,,,1,,,42,70
79052,note_on,,12,0,1,,,,,,,,,0,,,61,0
79054,note_on,,10,0,2,,,,,,,,,1,,,42,0
79056,note_on,,4,0,1,,,,,,,,,0,,,62,57
79056,note_on,,2,0,2,,,,,,,,,1,,,47,85
79068,note_on,,12,0,1,,,,,,,,,0,,,62,0
79069,note_on,,13,0,2,,,,,,,,,1,,,47,0
79072,note_on,,3,0,2,,,,,,,,,1,,,50,77
79072,note_on,,4,0,1,,,,,,,,,0,,,66,59
79084,note_on,,12,0,1,,,,,,,,,0,,,66,0
79085,note_on,,13,0,2,,,,,,,,,1,,,50,0
79088,note_on,,4,0,1,,,,,,,,,0,,,64,85
79088,note_on,,3,0,2,,,,,,,,,1,,,49,49
79100,note_on,,12,0,1,,,,,,,,,0,,,64,0
79101,note_on,,13,0,2,,,,,,,,,1,,,49,0
79104,note_on,,4,0,1,,,,,,,,,0,,,66,62
79104,note_on,,3,0,2,,,,,,,,,1,,,50,66
79116,note_on,,12,0,1,,,,,,,,,0,,,66,0
79117,note_on,,13,0,2,,,,,,,,,1,,,50,0
79120,note_on,,4,0,1,,,,,,,,,0,,,62,85
79120,note_on,,3,0,2,,,,,,,,,1,,,47,85
79132,note_on,,12,0,1,,,,,,,,,0,,,62,0
79133,note_on,,13,0,2,,,,,,,,,1,,,47,0
79136,note_on,,4,0,1,,,,,,,,,0,,,64,76
79136,note_on,,3,0,2,,,,,,,,,1,,,49,46
79148,note_on,,12,0,1,,,,,,,,,0,,,64,0
79149,note_on,,13,0,2,,,,,,,,,1,,,49,0
79152,note_on,,3,0,2,,,,,,,,,1,,,50,85
79152,note_on,,4,0,1,,,,,,,,,0,,,66,62
79164,note_on,,12,0,1,,,,,,,,,0,,,66,0
79165,note_on,,13,0,2,,,,,,,,,1,,,50,0
79168,note_on,,3,0,2,,,,,,,,,1,,,54,53
79168,note_on,,4,0,1,,,,,,,,,0,,,69,85
79180,note_on,,12,0,1,,,,,,,,,0,,,69,0
79181,note_on,,13,0,2,,,,,,,,,1,,,54,0
79184,note_on,,4,0,1,,,,,,,,,0,,,68,66
79184,note_on,,3,0,2,,,,,,,,,1,,,53,85
79196,note_on,,12,0,1,,,,,,,,,0,,,68,0
79197,note_on,,13,0,2,,,,,,,,,1,,,53,0
79200,note_on,,3,0,2,,,,,,,,,1,,,54,95
79200,note_on,,4,0,1,,,,,,,,,0,,,69,95
79205,note_on,,5,0,2,,,,,,,,,1,,,54,0
79205,note_on,,5,0,1,,,,,,,,,0,,,69,0
79206,note_on,,1,0,1,,,,,,,,,0,,,71,95
79206,note_on,,1,0,2,,,,,,,,,1,,,55,95
79211,note_on,,5,0,2,,,,,,,,,1,,,55,0
79211,note_on,,5,0,1,,,,,,,,,0,,,71,0
79212,note_on,,1,0,2,,,,,,,,,1,,,54,95
79212,note_on,,1,0,1,,,,,,,,,0,,,69,95
79217,note_on,,5,0,2,,,,,,,,,1,,,54,0
79217,note_on,,5,0,1,,,,,,,,,0,,,69,0
79218,note_on,,1,0,2,,,,,,,,,1,,,55,95
79218,note_on,,1,0,1,,,,,,,,,0,,,71,95
79223,note_on,,5,0,1,,,,,,,,,0,,,71,0
79223,note_on,,5,0,2,,,,,,,,,1,,,55,0
79224,note_on,,1,0,1,,,,,,,,,0,,,69,95
79224,note_on,,1,0,2,,,,,,,,,1,,,54,95
79229,note_on,,5,0,1,,,,,,,,,0,,,69,0
79229,note_on,,5,0,2,,,,,,,,,1,,,54,0
79230,note_on,,1,0,1,,,,,,,,,0,,,71,95
79230,note_on,,1,0,2,,,,,,,,,1,,,55,95
79235,note_on,,5,0,1,,,,,,,,,0,,,71,0
79235,note_on,,5,0,2,,,,,,,,,1,,,55,0
79236,note_on,,1356,0,3,,,,,,,,,2,,,73,65
79236,note_on,,1361,0,4,,,,,,,,,3,,,69,85
79236,note_on,,1,0,1,,,,,,,,,0,,,69,95
79236,note_on,,1361,0,5,,,,,,,,,4,,,66,84
79236,note_on,,1,0,2,,,,,,,,,1,,,54,95
79241,note_on,,5,0,2,,,,,,,,,1,,,54,0
79241,note_on,,5,0,1,,,,,,,,,0,,,69,0
79242,note_on,,1,0,2,,,,,,,,,1,,,55,95
79242,note_on,,1,0,1,,,,,,,,,0,,,71,95
79246,note_on,,10,0,4,,,,,,,,,3,,,69,0
79247,note_on,,5,0,2,,,,,,,,,1,,,55,0
79247,note_on,,5,0,1,,,,,,,,,0,,,71,0
79248,note_on,,0,0,5,,,,,,,,,4,,,69,85
79248,note_on,,0,0,3,,,,,,,,,2,,,78,59
79248,note_on,,12,0,3,,,,,,,,,2,,,73,0
79248,note_on,,2,0,4,,,,,,,,,3,,,73,66
79248,note_on,,1,0,2,,,,,,,,,1,,,54,95
79248,note_on,,12,0,5,,,,,,,,,4,,,66,0
79248,note_on,,1373,0,6,,,,,,,,,5,,,54,85
79248,note_on,,1,0,1,,,,,,,,,0,,,69,95
79253,note_on,,5,0,1,,,,,,,,,0,,,69,0
79253,note_on,,5,0,2,,,,,,,,,1,,,54,0
79254,note_on,,1,0,1,,,,,,,,,0,,,71,95
79254,note_on,,1,0,2,,,,,,,,,1,,,55,95
79259,note_on,,5,0,1,,,,,,,,,0,,,71,0
79259,note_on,,5,0,2,,,,,,,,,1,,,55,0
79260,note_on,,1,0,1,,,,,,,,,0,,,69,95
79260,note_on,,1,0,2,,,,,,,,,1,,,54,95
79265,note_on,,5,0,2,,,,,,,,,1,,,54,0
79265,note_on,,5,0,1,,,,,,,,,0,,,69,0
79266,note_on,,1,0,1,,,,,,,,,0,,,71,95
79266,note_on,,1,0,2,,,,,,,,,1,,,55,95
79271,note_on,,5,0,1,,,,,,,,,0,,,71,0
79271,note_on,,5,0,2,,,,,,,,,1,,,55,0
79272,note_on,,1,0,1,,,,,,,,,0,,,69,95
79272,note_on,,1,0,2,,,,,,,,,1,,,54,95
79277,note_on,,5,0,2,,,,,,,,,1,,,54,0
79277,note_on,,5,0,1,,,,,,,,,0,,,69,0
79277,note_on,,29,0,4,,,,,,,,,3,,,73,0
79278,note_on,,1,0,1,,,,,,,,,0,,,71,95
79278,note_on,,1,0,2,,,,,,,,,1,,,55,95
79283,note_on,,5,0,2,,,,,,,,,1,,,55,0
79283,note_on,,5,0,1,,,,,,,,,0,,,71,0
79284,note_on,,0,0,3,,,,,,,,,2,,,73,68
79284,note_on,,36,0,3,,,,,,,,,2,,,78,0
79284,note_on,,7,0,4,,,,,,,,,3,,,69,85
79284,note_on,,1,0,2,,,,,,,,,1,,,54,95
79284,note_on,,0,0,5,,,,,,,,,4,,,66,79
79284,note_on,,1,0,1,,,,,,,,,0,,,69,95
79284,note_on,,36,0,5,,,,,,,,,4,,,69,0
79289,note_on,,5,0,1,,,,,,,,,0,,,69,0
79289,note_on,,5,0,2,,,,,,,,,1,,,54,0
79290,note_on,,1,0,2,,,,,,,,,1,,,55,95
79290,note_on,,1,0,1,,,,,,,,,0,,,71,95
79294,note_on,,10,0,4,,,,,,,,,3,,,69,0
79295,note_on,,5,0,2,,,,,,,,,1,,,55,0
79295,note_on,,5,0,1,,,,,,,,,0,,,71,0
79296,note_on,,0,0,6,,,,,,,,,5,,,59,85
79296,note_on,,1,0,2,,,,,,,,,1,,,54,52
79296,note_on,,0,0,3,,,,,,,,,2,,,75,70
79296,note_on,,48,0,6,,,,,,,,,5,,,54,0
79296,note_on,,12,0,3,,,,,,,,,2,,,73,0
79296,note_on,,12,0,5,,,,,,,,,4,,,66,0
79296,note_on,,0,0,5,,,,,,,,,4,,,59,85
79296,note_on,,2,0,4,,,,,,,,,3,,,66,70
79296,note_on,,1,0,1,,,,,,,,,0,,,69,85
79308,note_on,,12,0,1,,,,,,,,,0,,,69,0
79309,note_on,,13,0,2,,,,,,,,,1,,,54,0
79312,note_on,,4,0,1,,,,,,,,,0,,,72,85
79312,note_on,,3,0,2,,,,,,,,,1,,,57,85
79324,note_on,,12,0,1,,,,,,,,,0,,,72,0
79325,note_on,,13,0,2,,,,,,,,,1,,,57,0
79328,note_on,,4,0,1,,,,,,,,,0,,,71,62
79328,note_on,,3,0,2,,,,,,,,,1,,,55,85
79335,note_on,,39,0,4,,,,,,,,,3,,,66,0
79340,note_on,,12,0,1,,,,,,,,,0,,,71,0
79341,note_on,,13,0,2,,,,,,,,,1,,,55,0
79344,note_on,,4,0,1,,,,,,,,,0,,,69,72
79344,note_on,,48,0,6,,,,,,,,,5,,,59,0
79344,note_on,,2336,0,8,,,,,,,,,7,,,35,85
79344,note_on,,3,0,2,,,,,,,,,1,,,54,57
79344,note_on,,2232,0,7,,,,,,,,,6,,,47,85
79344,note_on,,48,0,5,,,,,,,,,4,,,59,0
79344,note_on,,48,0,3,,,,,,,,,2,,,75,0
79356,note_on,,12,0,1,,,,,,,,,0,,,69,0
79357,note_on,,13,0,2,,,,,,,,,1,,,54,0
79360,note_on,,4,0,1,,,,,,,,,0,,,67,85
79360,note_on,,3,0,2,,,,,,,,,1,,,52,85
79372,note_on,,12,0,1,,,,,,,,,0,,,67,0
79373,note_on,,13,0,2,,,,,,,,,1,,,52,0
79376,note_on,,3,0,2,,,,,,,,,1,,,51,47
79376,note_on,,4,0,1,,,,,,,,,0,,,66,56
79376,note_on,,32,0,8,,,,,,,,,7,,,35,0
79388,note_on,,12,0,1,,,,,,,,,0,,,66,0
79389,note_on,,13,0,2,,,,,,,,,1,,,51,0
79392,note_on,,0,0,7,,,,,,,,,6,,,40,65
79392,note_on,,48,0,7,,,,,,,,,6,,,47,0
79392,note_on,,3,0,2,,,,,,,,,1,,,52,85
79392,note_on,,4,0,1,,,,,,,,,0,,,67,81
79392,note_on,,16,0,8,,,,,,,,,7,,,28,85
79395,note_on,,3,0,1,,,,,,,,,0,,,67,0
79395,note_on,,3,0,2,,,,,,,,,1,,,52,0
79396,note_on,,1,0,2,,,,,,,,,1,,,54,65
79396,note_on,,1,0,1,,,,,,,,,0,,,69,85
79399,note_on,,3,0,2,,,,,,,,,1,,,54,0
79399,note_on,,3,0,1,,,,,,,,,0,,,69,0
79400,note_on,,1,0,1,,,,,,,,,0,,,67,81
79400,note_on,,1,0,2,,,,,,,,,1,,,52,85
79403,note_on,,3,0,1,,,,,,,,,0,,,67,0
79403,note_on,,3,0,2,,,,,,,,,1,,,52,0
79404,note_on,,1,0,2,,,,,,,,,1,,,54,67
79404,note_on,,1,0,1,,,,,,,,,0,,,69,85
79407,note_on,,3,0,1,,,,,,,,,0,,,69,0
79407,note_on,,3,0,2,,,,,,,,,1,,,54,0
79408,note_on,,1,0,1,,,,,,,,,0,,,67,85
79408,note_on,,1,0,2,,,,,,,,,1,,,52,79
79411,note_on,,3,0,1,,,,,,,,,0,,,67,0
79411,note_on,,3,0,2,,,,,,,,,1,,,52,0
79412,note_on,,1,0,2,,,,,,,,,1,,,54,60
79412,note_on,,1,0,1,,,,,,,,,0,,,69,85
79415,note_on,,3,0,2,,,,,,,,,1,,,54,0
79415,note_on,,3,0,1,,,,,,,,,0,,,69,0
79416,note_on,,1,0,2,,,,,,,,,1,,,52,77
79416,note_on,,1,0,1,,,,,,,,,0,,,67,85
79419,note_on,,3,0,2,,,,,,,,,1,,,52,0
79419,note_on,,3,0,1,,,,,,,,,0,,,67,0
79420,note_on,,1,0,1,,,,,,,,,0,,,69,85
79420,note_on,,1,0,2,,,,,,,,,1,,,54,61
79423,note_on,,3,0,1,,,,,,,,,0,,,69,0
79423,note_on,,3,0,2,,,,,,,,,1,,,54,0
79424,note_on,,1,0,2,,,,,,,,,1,,,52,68
79424,note_on,,32,0,8,,,,,,,,,7,,,28,0
79424,note_on,,1,0,1,,,,,,,,,0,,,67,85
79427,note_on,,3,0,2,,,,,,,,,1,,,52,0
79427,note_on,,3,0,1,,,,,,,,,0,,,67,0
79428,note_on,,1,0,1,,,,,,,,,0,,,69,85
79428,note_on,,1,0,2,,,,,,,,,1,,,54,65
79428,note_on,,84,0,3,,,,,,,,,2,,,71,85
79428,note_on,,93,0,4,,,,,,,,,3,,,67,74
79428,note_on,,84,0,5,,,,,,,,,4,,,64,85
79431,note_on,,3,0,2,,,,,,,,,1,,,54,0
79431,note_on,,3,0,1,,,,,,,,,0,,,69,0
79432,note_on,,1,0,1,,,,,,,,,0,,,67,85
79432,note_on,,1,0,2,,,,,,,,,1,,,52,85
79435,note_on,,3,0,2,,,,,,,,,1,,,52,0
79435,note_on,,3,0,1,,,,,,,,,0,,,67,0
79436,note_on,,1,0,1,,,,,,,,,0,,,69,85
79436,note_on,,1,0,2,,,,,,,,,1,,,54,66
79438,note_on,,10,0,4,,,,,,,,,3,,,67,0
79439,note_on,,3,0,1,,,,,,,,,0,,,69,0
79439,note_on,,3,0,2,,,,,,,,,1,,,54,0
79440,note_on,,96,0,6,,,,,,,,,5,,,52,85
79440,note_on,,48,0,7,,,,,,,,,6,,,40,0
79440,note_on,,2,0,4,,,,,,,,,3,,,71,85
79440,note_on,,12,0,5,,,,,,,,,4,,,64,0
79440,note_on,,12,0,3,,,,,,,,,2,,,71,0
79440,note_on,,0,0,5,,,,,,,,,4,,,67,85
79440,note_on,,0,0,3,,,,,,,,,2,,,76,85
79440,note_on,,1,0,1,,,,,,,,,0,,,67,85
79440,note_on,,1,0,2,,,,,,,,,1,,,52,81
79443,note_on,,3,0,1,,,,,,,,,0,,,67,0
79443,note_on,,3,0,2,,,,,,,,,1,,,52,0
79444,note_on,,1,0,2,,,,,,,,,1,,,54,69
79444,note_on,,1,0,1,,,,,,,,,0,,,69,85
79447,note_on,,3,0,2,,,,,,,,,1,,,54,0
79447,note_on,,3,0,1,,,,,,,,,0,,,69,0
79448,note_on,,1,0,2,,,,,,,,,1,,,52,59
79448,note_on,,1,0,1,,,,,,,,,0,,,67,85
79451,note_on,,3,0,1,,,,,,,,,0,,,67,0
79451,note_on,,3,0,2,,,,,,,,,1,,,52,0
79452,note_on,,1,0,1,,,,,,,,,0,,,69,89
79452,note_on,,1,0,2,,,,,,,,,1,,,54,69
79455,note_on,,3,0,1,,,,,,,,,0,,,69,0
79455,note_on,,3,0,2,,,,,,,,,1,,,54,0
79456,note_on,,1,0,1,,,,,,,,,0,,,67,85
79456,note_on,,1,0,2,,,,,,,,,1,,,52,85
79459,note_on,,3,0,1,,,,,,,,,0,,,67,0
79459,note_on,,3,0,2,,,,,,,,,1,,,52,0
79460,note_on,,1,0,2,,,,,,,,,1,,,54,70
79460,note_on,,1,0,1,,,,,,,,,0,,,69,85
79463,note_on,,3,0,1,,,,,,,,,0,,,69,0
79463,note_on,,3,0,2,,,,,,,,,1,,,54,0
79464,note_on,,1,0,2,,,,,,,,,1,,,52,74
79464,note_on,,1,0,1,,,,,,,,,0,,,67,85
79467,note_on,,3,0,1,,,,,,,,,0,,,67,0
79467,note_on,,3,0,2,,,,,,,,,1,,,52,0
79468,note_on,,1,0,1,,,,,,,,,0,,,69,67
79468,note_on,,1,0,2,,,,,,,,,1,,,54,78
79469,note_on,,29,0,4,,,,,,,,,3,,,71,0
79471,note_on,,3,0,1,,,,,,,,,0,,,69,0
79471,note_on,,3,0,2,,,,,,,,,1,,,54,0
79472,note_on,,1,0,1,,,,,,,,,0,,,67,85
79472,note_on,,1,0,2,,,,,,,,,1,,,52,85
79475,note_on,,3,0,1,,,,,,,,,0,,,67,0
79475,note_on,,3,0,2,,,,,,,,,1,,,52,0
79476,note_on,,36,0,5,,,,,,,,,4,,,67,0
79476,note_on,,0,0,3,,,,,,,,,2,,,71,85
79476,note_on,,36,0,3,,,,,,,,,2,,,76,0
79476,note_on,,1,0,2,,,,,,,,,1,,,54,74
79476,note_on,,1,0,1,,,,,,,,,0,,,69,74
79476,note_on,,7,0,4,,,,,,,,,3,,,67,85
79476,note_on,,0,0,5,,,,,,,,,4,,,64,85
79479,note_on,,3,0,1,,,,,,,,,0,,,69,0
79479,note_on,,3,0,2,,,,,,,,,1,,,54,0
79480,note_on,,1,0,2,,,,,,,,,1,,,52,85
79480,note_on,,1,0,1,,,,,,,,,0,,,67,85
79483,note_on,,3,0,1,,,,,,,,,0,,,67,0
79483,note_on,,3,0,2,,,,,,,,,1,,,52,0
79484,note_on,,1,0,1,,,,,,,,,0,,,69,85
79484,note_on,,1,0,2,,,,,,,,,1,,,54,91
79486,note_on,,10,0,4,,,,,,,,,3,,,67,0
79487,note_on,,3,0,1,,,,,,,,,0,,,69,0
79487,note_on,,3,0,2,,,,,,,,,1,,,54,0
79488,note_on,,2,0,4,,,,,,,,,3,,,64,70
79488,note_on,,12,0,3,,,,,,,,,2,,,71,0
79488,note_on,,0,0,3,,,,,,,,,2,,,73,66
79488,note_on,,0,0,5,,,,,,,,,4,,,57,85
79488,note_on,,48,0,6,,,,,,,,,5,,,52,0
79488,note_on,,1,0,2,,,,,,,,,1,,,52,85
79488,note_on,,12,0,5,,,,,,,,,4,,,64,0
79488,note_on,,1,0,1,,,,,,,,,0,,,67,77
79488,note_on,,0,0,6,,,,,,,,,5,,,57,85
79500,note_on,,12,0,1,,,,,,,,,0,,,67,0
79501,note_on,,13,0,2,,,,,,,,,1,,,52,0
79504,note_on,,3,0,2,,,,,,,,,1,,,55,85
79504,note_on,,4,0,1,,,,,,,,,0,,,71,85
79516,note_on,,12,0,1,,,,,,,,,0,,,71,0
79517,note_on,,13,0,2,,,,,,,,,1,,,55,0
79520,note_on,,4,0,1,,,,,,,,,0,,,69,85
79520,note_on,,3,0,2,,,,,,,,,1,,,54,71
79527,note_on,,39,0,4,,,,,,,,,3,,,64,0
79532,note_on,,12,0,1,,,,,,,,,0,,,69,0
79533,note_on,,13,0,2,,,,,,,,,1,,,54,0
79536,note_on,,4,0,1,,,,,,,,,0,,,67,85
79536,note_on,,112,0,8,,,,,,,,,7,,,33,85
79536,note_on,,48,0,3,,,,,,,,,2,,,73,0
79536,note_on,,3,0,2,,,,,,,,,1,,,52,85
79536,note_on,,48,0,5,,,,,,,,,4,,,57,0
79536,note_on,,96,0,7,,,,,,,,,6,,,45,65
79536,note_on,,48,0,6,,,,,,,,,5,,,57,0
79548,note_on,,12,0,1,,,,,,,,,0,,,67,0
79549,note_on,,13,0,2,,,,,,,,,1,,,52,0
79552,note_on,,3,0,2,,,,,,,,,1,,,50,85
79552,note_on,,4,0,1,,,,,,,,,0,,,66,50
79564,note_on,,12,0,1,,,,,,,,,0,,,66,0
79565,note_on,,13,0,2,,,,,,,,,1,,,50,0
79568,note_on,,32,0,8,,,,,,,,,7,,,33,0
79568,note_on,,3,0,2,,,,,,,,,1,,,49,66
79568,note_on,,4,0,1,,,,,,,,,0,,,64,55
79580,note_on,,12,0,1,,,,,,,,,0,,,64,0
79581,note_on,,13,0,2,,,,,,,,,1,,,49,0
79584,note_on,,16,0,8,,,,,,,,,7,,,26,85
79584,note_on,,4,0,1,,,,,,,,,0,,,66,55
79584,note_on,,48,0,7,,,,,,,,,6,,,45,0
79584,note_on,,0,0,7,,,,,,,,,6,,,38,65
79584,note_on,,3,0,2,,,,,,,,,1,,,50,74
79587,note_on,,3,0,2,,,,,,,,,1,,,50,0
79587,note_on,,3,0,1,,,,,,,,,0,,,66,0
79588,note_on,,1,0,2,,,,,,,,,1,,,52,85
79588,note_on,,1,0,1,,,,,,,,,0,,,67,85
79591,note_on,,3,0,2,,,,,,,,,1,,,52,0
79591,note_on,,3,0,1,,,,,,,,,0,,,67,0
79592,note_on,,1,0,2,,,,,,,,,1,,,50,85
79592,note_on,,1,0,1,,,,,,,,,0,,,66,64
79595,note_on,,3,0,2,,,,,,,,,1,,,50,0
79595,note_on,,3,0,1,,,,,,,,,0,,,66,0
79596,note_on,,1,0,1,,,,,,,,,0,,,67,85
79596,note_on,,1,0,2,,,,,,,,,1,,,52,85
79599,note_on,,3,0,2,,,,,,,,,1,,,52,0
79599,note_on,,3,0,1,,,,,,,,,0,,,67,0
79600,note_on,,1,0,1,,,,,,,,,0,,,66,59
79600,note_on,,1,0,2,,,,,,,,,1,,,50,85
79603,note_on,,3,0,1,,,,,,,,,0,,,66,0
79603,note_on,,3,0,2,,,,,,,,,1,,,50,0
79604,note_on,,1,0,1,,,,,,,,,0,,,67,85
79604,note_on,,1,0,2,,,,,,,,,1,,,52,85
79607,note_on,,3,0,1,,,,,,,,,0,,,67,0
79607,note_on,,3,0,2,,,,,,,,,1,,,52,0
79608,note_on,,1,0,2,,,,,,,,,1,,,50,85
79608,note_on,,1,0,1,,,,,,,,,0,,,66,62
79611,note_on,,3,0,1,,,,,,,,,0,,,66,0
79611,note_on,,3,0,2,,,,,,,,,1,,,50,0
79612,note_on,,1,0,2,,,,,,,,,1,,,52,85
79612,note_on,,1,0,1,,,,,,,,,0,,,67,85
79615,note_on,,3,0,1,,,,,,,,,0,,,67,0
79615,note_on,,3,0,2,,,,,,,,,1,,,52,0
79616,note_on,,1,0,1,,,,,,,,,0,,,66,59
79616,note_on,,1,0,2,,,,,,,,,1,,,50,85
79616,note_on,,32,0,8,,,,,,,,,7,,,26,0
79619,note_on,,3,0,1,,,,,,,,,0,,,66,0
79619,note_on,,3,0,2,,,,,,,,,1,,,50,0
79620,note_on,,84,0,6,,,,,,,,,5,,,69,66
79620,note_on,,93,0,4,,,,,,,,,3,,,69,66
79620,note_on,,1,0,2,,,,,,,,,1,,,52,85
79620,note_on,,1,0,1,,,,,,,,,0,,,67,85
79620,note_on,,84,0,3,,,,,,,,,2,,,69,85
79620,note_on,,84,0,5,,,,,,,,,4,,,69,66
79623,note_on,,3,0,1,,,,,,,,,0,,,67,0
79623,note_on,,3,0,2,,,,,,,,,1,,,52,0
79624,note_on,,1,0,1,,,,,,,,,0,,,66,66
79624,note_on,,1,0,2,,,,,,,,,1,,,50,85
79627,note_on,,3,0,1,,,,,,,,,0,,,66,0
79627,note_on,,3,0,2,,,,,,,,,1,,,50,0
79628,note_on,,1,0,1,,,,,,,,,0,,,67,85
79628,note_on,,1,0,2,,,,,,,,,1,,,52,85
79630,note_on,,10,0,4,,,,,,,,,3,,,69,0
79630,note_on,,10,0,5,,,,,,,,,4,,,69,0
79630,note_on,,10,0,6,,,,,,,,,5,,,69,0
79631,note_on,,3,0,2,,,,,,,,,1,,,52,0
79631,note_on,,3,0,1,,,,,,,,,0,,,67,0
79632,note_on,,2,0,5,,,,,,,,,4,,,74,74
79632,note_on,,0,0,3,,,,,,,,,2,,,74,85
79632,note_on,,2,0,6,,,,,,,,,5,,,74,74
79632,note_on,,48,0,7,,,,,,,,,6,,,38,0
79632,note_on,,2,0,4,,,,,,,,,3,,,74,74
79632,note_on,,12,0,3,,,,,,,,,2,,,69,0
79632,note_on,,1,0,1,,,,,,,,,0,,,66,66
79632,note_on,,1,0,2,,,,,,,,,1,,,50,85
79635,note_on,,3,0,1,,,,,,,,,0,,,66,0
79635,note_on,,3,0,2,,,,,,,,,1,,,50,0
79636,note_on,,1,0,2,,,,,,,,,1,,,52,85
79636,note_on,,1,0,1,,,,,,,,,0,,,67,85
79639,note_on,,3,0,2,,,,,,,,,1,,,52,0
79639,note_on,,3,0,1,,,,,,,,,0,,,67,0
79640,note_on,,1,0,2,,,,,,,,,1,,,50,85
79640,note_on,,1,0,1,,,,,,,,,0,,,66,66
79643,note_on,,3,0,2,,,,,,,,,1,,,50,0
79643,note_on,,3,0,1,,,,,,,,,0,,,66,0
79644,note_on,,1,0,2,,,,,,,,,1,,,52,85
79644,note_on,,1,0,1,,,,,,,,,0,,,67,85
79647,note_on,,3,0,2,,,,,,,,,1,,,52,0
79647,note_on,,3,0,1,,,,,,,,,0,,,67,0
79648,note_on,,1,0,1,,,,,,,,,0,,,66,69
79648,note_on,,1,0,2,,,,,,,,,1,,,50,85
79651,note_on,,3,0,1,,,,,,,,,0,,,66,0
79651,note_on,,3,0,2,,,,,,,,,1,,,50,0
79652,note_on,,1,0,1,,,,,,,,,0,,,67,85
79652,note_on,,1,0,2,,,,,,,,,1,,,52,85
79655,note_on,,3,0,2,,,,,,,,,1,,,52,0
79655,note_on,,3,0,1,,,,,,,,,0,,,67,0
79656,note_on,,1,0,2,,,,,,,,,1,,,50,85
79656,note_on,,1,0,1,,,,,,,,,0,,,66,66
79659,note_on,,3,0,1,,,,,,,,,0,,,66,0
79659,note_on,,3,0,2,,,,,,,,,1,,,50,0
79660,note_on,,1,0,2,,,,,,,,,1,,,52,85
79660,note_on,,1,0,1,,,,,,,,,0,,,67,85
79661,note_on,,29,0,4,,,,,,,,,3,,,74,0
79661,note_on,,29,0,6,,,,,,,,,5,,,74,0
79661,note_on,,29,0,5,,,,,,,,,4,,,74,0
79663,note_on,,3,0,1,,,,,,,,,0,,,67,0
79663,note_on,,3,0,2,,,,,,,,,1,,,52,0
79664,note_on,,1,0,1,,,,,,,,,0,,,66,62
79664,note_on,,1,0,2,,,,,,,,,1,,,50,85
79667,note_on,,3,0,1,,,,,,,,,0,,,66,0
79667,note_on,,3,0,2,,,,,,,,,1,,,50,0
79668,note_on,,36,0,3,,,,,,,,,2,,,74,0
79668,note_on,,7,0,4,,,,,,,,,3,,,69,85
79668,note_on,,1,0,2,,,,,,,,,1,,,52,85
79668,note_on,,0,0,3,,,,,,,,,2,,,69,85
79668,note_on,,7,0,5,,,,,,,,,4,,,69,85
79668,note_on,,1,0,1,,,,,,,,,0,,,67,85
79668,note_on,,7,0,6,,,,,,,,,5,,,69,85
79671,note_on,,3,0,1,,,,,,,,,0,,,67,0
79671,note_on,,3,0,2,,,,,,,,,1,,,52,0
79672,note_on,,1,0,1,,,,,,,,,0,,,66,62
79672,note_on,,1,0,2,,,,,,,,,1,,,50,85
79675,note_on,,3,0,1,,,,,,,,,0,,,66,0
79675,note_on,,3,0,2,,,,,,,,,1,,,50,0
79676,note_on,,1,0,1,,,,,,,,,0,,,67,85
79676,note_on,,1,0,2,,,,,,,,,1,,,52,85
79678,note_on,,10,0,6,,,,,,,,,5,,,69,0
79678,note_on,,10,0,4,,,,,,,,,3,,,69,0
79678,note_on,,10,0,5,,,,,,,,,4,,,69,0
79679,note_on,,3,0,2,,,,,,,,,1,,,52,0
79679,note_on,,3,0,1,,,,,,,,,0,,,67,0
79680,note_on,,12,0,3,,,,,,,,,2,,,69,0
79680,note_on,,0,0,3,,,,,,,,,2,,,71,56
79680,note_on,,2,0,5,,,,,,,,,4,,,71,74
79680,note_on,,1,0,2,,,,,,,,,1,,,50,74
79680,note_on,,2,0,6,,,,,,,,,5,,,71,74
79680,note_on,,1,0,1,,,,,,,,,0,,,66,55
79680,note_on,,2,0,4,,,,,,,,,3,,,71,74
79683,note_on,,3,0,2,,,,,,,,,1,,,50,0
79683,note_on,,3,0,1,,,,,,,,,0,,,66,0
79684,note_on,,1,0,2,,,,,,,,,1,,,52,85
79684,note_on,,1,0,1,,,,,,,,,0,,,67,85
79687,note_on,,3,0,2,,,,,,,,,1,,,52,0
79687,note_on,,3,0,1,,,,,,,,,0,,,67,0
79688,note_on,,1,0,2,,,,,,,,,1,,,50,85
79688,note_on,,1,0,1,,,,,,,,,0,,,66,64
79691,note_on,,3,0,2,,,,,,,,,1,,,50,0
79691,note_on,,3,0,1,,,,,,,,,0,,,66,0
79692,note_on,,1,0,2,,,,,,,,,1,,,52,85
79692,note_on,,1,0,1,,,,,,,,,0,,,67,85
79693,note_on,,13,0,5,,,,,,,,,4,,,71,0
79693,note_on,,13,0,4,,,,,,,,,3,,,71,0
79693,note_on,,13,0,6,,,,,,,,,5,,,71,0
79695,note_on,,3,0,2,,,,,,,,,1,,,52,0
79695,note_on,,3,0,1,,,,,,,,,0,,,67,0
79696,note_on,,3,0,4,,,,,,,,,3,,,69,85
79696,note_on,,3,0,5,,,,,,,,,4,,,69,85
79696,note_on,,1,0,2,,,,,,,,,1,,,50,85
79696,note_on,,1,0,1,,,,,,,,,0,,,66,59
79696,note_on,,16,0,3,,,,,,,,,2,,,71,0
79696,note_on,,0,0,3,,,,,,,,,2,,,69,85
79696,note_on,,3,0,6,,,,,,,,,5,,,69,85
79699,note_on,,3,0,2,,,,,,,,,1,,,50,0
79699,note_on,,3,0,1,,,,,,,,,0,,,66,0
79700,note_on,,1,0,1,,,,,,,,,0,,,67,85
79700,note_on,,1,0,2,,,,,,,,,1,,,52,85
79703,note_on,,3,0,2,,,,,,,,,1,,,52,0
79703,note_on,,3,0,1,,,,,,,,,0,,,67,0
79704,note_on,,1,0,1,,,,,,,,,0,,,66,62
79704,note_on,,1,0,2,,,,,,,,,1,,,50,85
79707,note_on,,3,0,1,,,,,,,,,0,,,66,0
79707,note_on,,3,0,2,,,,,,,,,1,,,50,0
79708,note_on,,1,0,1,,,,,,,,,0,,,67,85
79708,note_on,,1,0,2,,,,,,,,,1,,,52,85
79709,note_on,,13,0,5,,,,,,,,,4,,,69,0
79709,note_on,,13,0,4,,,,,,,,,3,,,69,0
79709,note_on,,13,0,6,,,,,,,,,5,,,69,0
79711,note_on,,3,0,1,,,,,,,,,0,,,67,0
79711,note_on,,3,0,2,,,,,,,,,1,,,52,0
79712,note_on,,3,0,4,,,,,,,,,3,,,67,85
79712,note_on,,3,0,5,,,,,,,,,4,,,67,85
79712,note_on,,1,0,1,,,,,,,,,0,,,66,59
79712,note_on,,0,0,3,,,,,,,,,2,,,67,74
79712,note_on,,16,0,3,,,,,,,,,2,,,69,0
79712,note_on,,1,0,2,,,,,,,,,1,,,50,85
79712,note_on,,3,0,6,,,,,,,,,5,,,67,85
79715,note_on,,3,0,1,,,,,,,,,0,,,66,0
79715,note_on,,3,0,2,,,,,,,,,1,,,50,0
79716,note_on,,1,0,1,,,,,,,,,0,,,67,85
79716,note_on,,1,0,2,,,,,,,,,1,,,52,85
79719,note_on,,3,0,1,,,,,,,,,0,,,67,0
79719,note_on,,3,0,2,,,,,,,,,1,,,52,0
79720,note_on,,1,0,2,,,,,,,,,1,,,50,85
79720,note_on,,1,0,1,,,,,,,,,0,,,66,66
79723,note_on,,3,0,2,,,,,,,,,1,,,50,0
79723,note_on,,3,0,1,,,,,,,,,0,,,66,0
79724,note_on,,1,0,1,,,,,,,,,0,,,67,85
79724,note_on,,1,0,2,,,,,,,,,1,,,52,85
79725,note_on,,13,0,6,,,,,,,,,5,,,67,0
79725,note_on,,13,0,5,,,,,,,,,4,,,67,0
79725,note_on,,13,0,4,,,,,,,,,3,,,67,0
79727,note_on,,3,0,2,,,,,,,,,1,,,52,0
79727,note_on,,3,0,1,,,,,,,,,0,,,67,0
79728,note_on,,1,0,1,,,,,,,,,0,,,66,66
79728,note_on,,3,0,6,,,,,,,,,5,,,66,56
79728,note_on,,16,0,3,,,,,,,,,2,,,67,0
79728,note_on,,3,0,5,,,,,,,,,4,,,66,56
79728,note_on,,0,0,3,,,,,,,,,2,,,66,56
79728,note_on,,3,0,4,,,,,,,,,3,,,66,43
79728,note_on,,1,0,2,,,,,,,,,1,,,50,85
79731,note_on,,3,0,2,,,,,,,,,1,,,50,0
79731,note_on,,3,0,1,,,,,,,,,0,,,66,0
79732,note_on,,1,0,1,,,,,,,,,0,,,67,85
79732,note_on,,1,0,2,,,,,,,,,1,,,52,85
79735,note_on,,3,0,1,,,,,,,,,0,,,67,0
79735,note_on,,3,0,2,,,,,,,,,1,,,52,0
79736,note_on,,1,0,2,,,,,,,,,1,,,50,85
79736,note_on,,1,0,1,,,,,,,,,0,,,66,66
79739,note_on,,3,0,1,,,,,,,,,0,,,66,0
79739,note_on,,3,0,2,,,,,,,,,1,,,50,0
79740,note_on,,1,0,2,,,,,,,,,1,,,52,85
79740,note_on,,1,0,1,,,,,,,,,0,,,67,85
79741,note_on,,13,0,6,,,,,,,,,5,,,66,0
79741,note_on,,13,0,4,,,,,,,,,3,,,66,0
79741,note_on,,13,0,5,,,,,,,,,4,,,66,0
79743,note_on,,3,0,1,,,,,,,,,0,,,67,0
79743,note_on,,3,0,2,,,,,,,,,1,,,52,0
79744,note_on,,1,0,1,,,,,,,,,0,,,66,69
79744,note_on,,3,0,5,,,,,,,,,4,,,67,85
79744,note_on,,16,0,3,,,,,,,,,2,,,66,0
79744,note_on,,3,0,4,,,,,,,,,3,,,67,85
79744,note_on,,1,0,2,,,,,,,,,1,,,50,85
79744,note_on,,0,0,3,,,,,,,,,2,,,67,85
79744,note_on,,3,0,6,,,,,,,,,5,,,67,85
79747,note_on,,3,0,2,,,,,,,,,1,,,50,0
79747,note_on,,3,0,1,,,,,,,,,0,,,66,0
79748,note_on,,1,0,1,,,,,,,,,0,,,67,85
79748,note_on,,1,0,2,,,,,,,,,1,,,52,85
79751,note_on,,3,0,1,,,,,,,,,0,,,67,0
79751,note_on,,3,0,2,,,,,,,,,1,,,52,0
79752,note_on,,1,0,1,,,,,,,,,0,,,66,66
79752,note_on,,1,0,2,,,,,,,,,1,,,50,85
79755,note_on,,3,0,1,,,,,,,,,0,,,66,0
79755,note_on,,3,0,2,,,,,,,,,1,,,50,0
79756,note_on,,1,0,1,,,,,,,,,0,,,67,85
79756,note_on,,1,0,2,,,,,,,,,1,,,52,85
79757,note_on,,13,0,4,,,,,,,,,3,,,67,0
79757,note_on,,13,0,6,,,,,,,,,5,,,67,0
79757,note_on,,13,0,5,,,,,,,,,4,,,67,0
79759,note_on,,3,0,1,,,,,,,,,0,,,67,0
79759,note_on,,3,0,2,,,,,,,,,1,,,52,0
79760,note_on,,1,0,2,,,,,,,,,1,,,50,85
79760,note_on,,3,0,6,,,,,,,,,5,,,69,85
79760,note_on,,0,0,3,,,,,,,,,2,,,69,85
79760,note_on,,16,0,3,,,,,,,,,2,,,67,0
79760,note_on,,3,0,4,,,,,,,,,3,,,69,85
79760,note_on,,1,0,1,,,,,,,,,0,,,66,62
79760,note_on,,3,0,5,,,,,,,,,4,,,69,85
79763,note_on,,3,0,1,,,,,,,,,0,,,66,0
79763,note_on,,3,0,2,,,,,,,,,1,,,50,0
79764,note_on,,1,0,1,,,,,,,,,0,,,67,85
79764,note_on,,1,0,2,,,,,,,,,1,,,52,85
79767,note_on,,3,0,2,,,,,,,,,1,,,52,0
79767,note_on,,3,0,1,,,,,,,,,0,,,67,0
79768,note_on,,1,0,1,,,,,,,,,0,,,66,62
79768,note_on,,1,0,2,,,,,,,,,1,,,50,85
79771,note_on,,3,0,2,,,,,,,,,1,,,50,0
79771,note_on,,3,0,1,,,,,,,,,0,,,66,0
79772,note_on,,1,0,2,,,,,,,,,1,,,52,85
79772,note_on,,1,0,1,,,,,,,,,0,,,67,85
79773,note_on,,13,0,6,,,,,,,,,5,,,69,0
79773,note_on,,13,0,5,,,,,,,,,4,,,69,0
79773,note_on,,13,0,4,,,,,,,,,3,,,69,0
79775,note_on,,3,0,1,,,,,,,,,0,,,67,0
79775,note_on,,3,0,2,,,,,,,,,1,,,52,0
79776,note_on,,1,0,1,,,,,,,,,0,,,66,46
79776,note_on,,3,0,6,,,,,,,,,5,,,62,72
79776,note_on,,16,0,3,,,,,,,,,2,,,69,0
79776,note_on,,0,0,3,,,,,,,,,2,,,62,85
79776,note_on,,1,0,2,,,,,,,,,1,,,50,77
79776,note_on,,3,0,5,,,,,,,,,4,,,62,72
79776,note_on,,3,0,4,,,,,,,,,3,,,62,72
79788,note_on,,12,0,1,,,,,,,,,0,,,66,0
79789,note_on,,13,0,2,,,,,,,,,1,,,50,0
79792,note_on,,3,0,2,,,,,,,,,1,,,42,62
79792,note_on,,4,0,1,,,,,,,,,0,,,62,74
79804,note_on,,12,0,1,,,,,,,,,0,,,62,0
79805,note_on,,13,0,2,,,,,,,,,1,,,42,0
79808,note_on,,3,0,2,,,,,,,,,1,,,45,85
79808,note_on,,4,0,1,,,,,,,,,0,,,64,82
79815,note_on,,39,0,6,,,,,,,,,5,,,62,0
79815,note_on,,39,0,4,,,,,,,,,3,,,62,0
79815,note_on,,39,0,5,,,,,,,,,4,,,62,0
79820,note_on,,12,0,1,,,,,,,,,0,,,64,0
79821,note_on,,13,0,2,,,,,,,,,1,,,45,0
79824,note_on,,3,0,2,,,,,,,,,1,,,50,85
79824,note_on,,4,0,1,,,,,,,,,0,,,66,64
79824,note_on,,48,0,3,,,,,,,,,2,,,62,0
79836,note_on,,12,0,1,,,,,,,,,0,,,66,0
79837,note_on,,13,0,2,,,,,,,,,1,,,50,0
79840,note_on,,3,0,2,,,,,,,,,1,,,54,43
79840,note_on,,4,0,1,,,,,,,,,0,,,69,85
79852,note_on,,12,0,1,,,,,,,,,0,,,69,0
79853,note_on,,13,0,2,,,,,,,,,1,,,54,0
79856,note_on,,4,0,1,,,,,,,,,0,,,67,85
79856,note_on,,3,0,2,,,,,,,,,1,,,52,85
79868,note_on,,12,0,1,,,,,,,,,0,,,67,0
79869,note_on,,13,0,2,,,,,,,,,1,,,52,0
79872,note_on,,3,0,2,,,,,,,,,1,,,54,66
79872,note_on,,4,0,1,,,,,,,,,0,,,69,85
79884,note_on,,12,0,1,,,,,,,,,0,,,69,0
79885,note_on,,13,0,2,,,,,,,,,1,,,54,0
79888,note_on,,3,0,2,,,,,,,,,1,,,50,85
79888,note_on,,4,0,1,,,,,,,,,0,,,66,56
79900,note_on,,12,0,1,,,,,,,,,0,,,66,0
79901,note_on,,13,0,2,,,,,,,,,1,,,50,0
79904,note_on,,3,0,2,,,,,,,,,1,,,52,85
79904,note_on,,4,0,1,,,,,,,,,0,,,67,85
79916,note_on,,12,0,1,,,,,,,,,0,,,67,0
79917,note_on,,13,0,2,,,,,,,,,1,,,52,0
79920,note_on,,3,0,2,,,,,,,,,1,,,54,62
79920,note_on,,4,0,1,,,,,,,,,0,,,69,79
79932,note_on,,12,0,1,,,,,,,,,0,,,69,0
79933,note_on,,13,0,2,,,,,,,,,1,,,54,0
79936,note_on,,3,0,2,,,,,,,,,1,,,57,85
79936,note_on,,4,0,1,,,,,,,,,0,,,73,61
79948,note_on,,12,0,1,,,,,,,,,0,,,73,0
79949,note_on,,13,0,2,,,,,,,,,1,,,57,0
79952,note_on,,3,0,2,,,,,,,,,1,,,56,70
79952,note_on,,4,0,1,,,,,,,,,0,,,71,72
79964,note_on,,12,0,1,,,,,,,,,0,,,71,0
79965,note_on,,13,0,2,,,,,,,,,1,,,56,0
79968,note_on,,4,0,1,,,,,,,,,0,,,73,49
79968,note_on,,3,0,2,,,,,,,,,1,,,57,85
79971,note_on,,3,0,2,,,,,,,,,1,,,57,0
79971,note_on,,3,0,1,,,,,,,,,0,,,73,0
79972,note_on,,1,0,2,,,,,,,,,1,,,59,85
79972,note_on,,1,0,1,,,,,,,,,0,,,74,81
79975,note_on,,3,0,2,,,,,,,,,1,,,59,0
79975,note_on,,3,0,1,,,,,,,,,0,,,74,0
79976,note_on,,1,0,2,,,,,,,,,1,,,57,85
79976,note_on,,1,0,1,,,,,,,,,0,,,73,68
79979,note_on,,3,0,2,,,,,,,,,1,,,57,0
79979,note_on,,3,0,1,,,,,,,,,0,,,73,0
79980,note_on,,1,0,2,,,,,,,,,1,,,59,85
79980,note_on,,1,0,1,,,,,,,,,0,,,74,85
79983,note_on,,3,0,1,,,,,,,,,0,,,74,0
79983,note_on,,3,0,2,,,,,,,,,1,,,59,0
79984,note_on,,1,0,1,,,,,,,,,0,,,73,47
79984,note_on,,1,0,2,,,,,,,,,1,,,57,85
79987,note_on,,3,0,1,,,,,,,,,0,,,73,0
79987,note_on,,3,0,2,,,,,,,,,1,,,57,0
79988,note_on,,1,0,1,,,,,,,,,0,,,74,84
79988,note_on,,1,0,2,,,,,,,,,1,,,59,85
79991,note_on,,3,0,1,,,,,,,,,0,,,74,0
79991,note_on,,3,0,2,,,,,,,,,1,,,59,0
79992,note_on,,1,0,1,,,,,,,,,0,,,73,50
79992,note_on,,1,0,2,,,,,,,,,1,,,57,85
79995,note_on,,3,0,1,,,,,,,,,0,,,73,0
79995,note_on,,3,0,2,,,,,,,,,1,,,57,0
79996,note_on,,1,0,2,,,,,,,,,1,,,59,85
79996,note_on,,1,0,1,,,,,,,,,0,,,74,85
79999,note_on,,3,0,1,,,,,,,,,0,,,74,0
79999,note_on,,3,0,2,,,,,,,,,1,,,59,0
80000,note_on,,1,0,1,,,,,,,,,0,,,73,62
80000,note_on,,1,0,2,,,,,,,,,1,,,57,85
80003,note_on,,3,0,1,,,,,,,,,0,,,73,0
80003,note_on,,3,0,2,,,,,,,,,1,,,57,0
80004,note_on,,189,0,4,,,,,,,,,3,,,64,72
80004,note_on,,1,0,2,,,,,,,,,1,,,59,85
80004,note_on,,189,0,6,,,,,,,,,5,,,64,72
80004,note_on,,1,0,1,,,,,,,,,0,,,74,85
80004,note_on,,189,0,5,,,,,,,,,4,,,64,72
80007,note_on,,3,0,2,,,,,,,,,1,,,59,0
80007,note_on,,3,0,1,,,,,,,,,0,,,74,0
80008,note_on,,1,0,1,,,,,,,,,0,,,73,66
80008,note_on,,1,0,2,,,,,,,,,1,,,57,85
80011,note_on,,3,0,2,,,,,,,,,1,,,57,0
80011,note_on,,3,0,1,,,,,,,,,0,,,73,0
80012,note_on,,1,0,2,,,,,,,,,1,,,59,85
80012,note_on,,1,0,1,,,,,,,,,0,,,74,85
80014,note_on,,10,0,5,,,,,,,,,4,,,64,0
80014,note_on,,10,0,4,,,,,,,,,3,,,64,0
80014,note_on,,10,0,6,,,,,,,,,5,,,64,0
80015,note_on,,3,0,1,,,,,,,,,0,,,74,0
80015,note_on,,3,0,2,,,,,,,,,1,,,59,0
80016,note_on,,1,0,2,,,,,,,,,1,,,57,85
80016,note_on,,1,0,1,,,,,,,,,0,,,73,65
80016,note_on,,2,0,5,,,,,,,,,4,,,69,72
80016,note_on,,2,0,4,,,,,,,,,3,,,69,72
80016,note_on,,2,0,6,,,,,,,,,5,,,69,72
80019,note_on,,3,0,1,,,,,,,,,0,,,73,0
80019,note_on,,3,0,2,,,,,,,,,1,,,57,0
80020,note_on,,1,0,2,,,,,,,,,1,,,59,85
80020,note_on,,1,0,1,,,,,,,,,0,,,74,85
80023,note_on,,3,0,2,,,,,,,,,1,,,59,0
80023,note_on,,3,0,1,,,,,,,,,0,,,74,0
80024,note_on,,1,0,1,,,,,,,,,0,,,73,66
80024,note_on,,1,0,2,,,,,,,,,1,,,57,85
80027,note_on,,3,0,2,,,,,,,,,1,,,57,0
80027,note_on,,3,0,1,,,,,,,,,0,,,73,0
80028,note_on,,1,0,2,,,,,,,,,1,,,59,85
80028,note_on,,1,0,1,,,,,,,,,0,,,74,85
80031,note_on,,3,0,1,,,,,,,,,0,,,74,0
80031,note_on,,3,0,2,,,,,,,,,1,,,59,0
80032,note_on,,1,0,2,,,,,,,,,1,,,57,86
80032,note_on,,1,0,1,,,,,,,,,0,,,73,72
80035,note_on,,3,0,2,,,,,,,,,1,,,57,0
80035,note_on,,3,0,1,,,,,,,,,0,,,73,0
80036,note_on,,1,0,2,,,,,,,,,1,,,59,85
80036,note_on,,1,0,1,,,,,,,,,0,,,74,85
80039,note_on,,3,0,1,,,,,,,,,0,,,74,0
80039,note_on,,3,0,2,,,,,,,,,1,,,59,0
80040,note_on,,1,0,1,,,,,,,,,0,,,73,62
80040,note_on,,1,0,2,,,,,,,,,1,,,57,85
80043,note_on,,3,0,1,,,,,,,,,0,,,73,0
80043,note_on,,3,0,2,,,,,,,,,1,,,57,0
80044,note_on,,1,0,1,,,,,,,,,0,,,74,49
80044,note_on,,1,0,2,,,,,,,,,1,,,59,85
80045,note_on,,29,0,4,,,,,,,,,3,,,69,0
80045,note_on,,29,0,6,,,,,,,,,5,,,69,0
80045,note_on,,29,0,5,,,,,,,,,4,,,69,0
80047,note_on,,3,0,2,,,,,,,,,1,,,59,0
80047,note_on,,3,0,1,,,,,,,,,0,,,74,0
80048,note_on,,1,0,1,,,,,,,,,0,,,73,40
80048,note_on,,1,0,2,,,,,,,,,1,,,57,85
80051,note_on,,3,0,1,,,,,,,,,0,,,73,0
80051,note_on,,3,0,2,,,,,,,,,1,,,57,0
80052,note_on,,7,0,6,,,,,,,,,5,,,64,82
80052,note_on,,1,0,2,,,,,,,,,1,,,59,85
80052,note_on,,1,0,1,,,,,,,,,0,,,74,66
80052,note_on,,7,0,5,,,,,,,,,4,,,64,82
80052,note_on,,7,0,4,,,,,,,,,3,,,64,82
80055,note_on,,3,0,2,,,,,,,,,1,,,59,0
80055,note_on,,3,0,1,,,,,,,,,0,,,74,0
80056,note_on,,1,0,2,,,,,,,,,1,,,57,77
80056,note_on,,1,0,1,,,,,,,,,0,,,73,44
80059,note_on,,3,0,2,,,,,,,,,1,,,57,0
80059,note_on,,3,0,1,,,,,,,,,0,,,73,0
80060,note_on,,1,0,1,,,,,,,,,0,,,74,85
80060,note_on,,1,0,2,,,,,,,,,1,,,59,85
80062,note_on,,10,0,5,,,,,,,,,4,,,64,0
80062,note_on,,10,0,6,,,,,,,,,5,,,64,0
80062,note_on,,10,0,4,,,,,,,,,3,,,64,0
80063,note_on,,3,0,1,,,,,,,,,0,,,74,0
80063,note_on,,3,0,2,,,,,,,,,1,,,59,0
80064,note_on,,1,0,1,,,,,,,,,0,,,73,49
80064,note_on,,2,0,5,,,,,,,,,4,,,66,56
80064,note_on,,2,0,4,,,,,,,,,3,,,66,49
80064,note_on,,2,0,6,,,,,,,,,5,,,66,56
80064,note_on,,1,0,2,,,,,,,,,1,,,57,85
80067,note_on,,3,0,1,,,,,,,,,0,,,73,0
80067,note_on,,3,0,2,,,,,,,,,1,,,57,0
80068,note_on,,1,0,2,,,,,,,,,1,,,59,85
80068,note_on,,1,0,1,,,,,,,,,0,,,74,81
80071,note_on,,3,0,2,,,,,,,,,1,,,59,0
80071,note_on,,3,0,1,,,,,,,,,0,,,74,0
80072,note_on,,1,0,2,,,,,,,,,1,,,57,85
80072,note_on,,1,0,1,,,,,,,,,0,,,73,68
80075,note_on,,3,0,2,,,,,,,,,1,,,57,0
80075,note_on,,3,0,1,,,,,,,,,0,,,73,0
80076,note_on,,1,0,1,,,,,,,,,0,,,74,85
80076,note_on,,1,0,2,,,,,,,,,1,,,59,85
80077,note_on,,13,0,5,,,,,,,,,4,,,66,0
80077,note_on,,13,0,4,,,,,,,,,3,,,66,0
80077,note_on,,13,0,6,,,,,,,,,5,,,66,0
80079,note_on,,3,0,2,,,,,,,,,1,,,59,0
80079,note_on,,3,0,1,,,,,,,,,0,,,74,0
80080,note_on,,1,0,2,,,,,,,,,1,,,57,85
80080,note_on,,3,0,5,,,,,,,,,4,,,64,70
80080,note_on,,3,0,4,,,,,,,,,3,,,64,70
80080,note_on,,3,0,6,,,,,,,,,5,,,64,70
80080,note_on,,1,0,1,,,,,,,,,0,,,73,47
80083,note_on,,3,0,2,,,,,,,,,1,,,57,0
80083,note_on,,3,0,1,,,,,,,,,0,,,73,0
80084,note_on,,1,0,1,,,,,,,,,0,,,74,84
80084,note_on,,1,0,2,,,,,,,,,1,,,59,85
80087,note_on,,3,0,1,,,,,,,,,0,,,74,0
80087,note_on,,3,0,2,,,,,,,,,1,,,59,0
80088,note_on,,1,0,1,,,,,,,,,0,,,73,50
80088,note_on,,1,0,2,,,,,,,,,1,,,57,85
80091,note_on,,3,0,2,,,,,,,,,1,,,57,0
80091,note_on,,3,0,1,,,,,,,,,0,,,73,0
80092,note_on,,1,0,2,,,,,,,,,1,,,59,85
80092,note_on,,1,0,1,,,,,,,,,0,,,74,85
80093,note_on,,13,0,6,,,,,,,,,5,,,64,0
80093,note_on,,13,0,4,,,,,,,,,3,,,64,0
80093,note_on,,13,0,5,,,,,,,,,4,,,64,0
80095,note_on,,3,0,1,,,,,,,,,0,,,74,0
80095,note_on,,3,0,2,,,,,,,,,1,,,59,0
80096,note_on,,1,0,2,,,,,,,,,1,,,57,85
80096,note_on,,3,0,6,,,,,,,,,5,,,62,85
80096,note_on,,1,0,1,,,,,,,,,0,,,73,62
80096,note_on,,3,0,4,,,,,,,,,3,,,62,85
80096,note_on,,3,0,5,,,,,,,,,4,,,62,85
80099,note_on,,3,0,2,,,,,,,,,1,,,57,0
80099,note_on,,3,0,1,,,,,,,,,0,,,73,0
80100,note_on,,1,0,1,,,,,,,,,0,,,74,85
80100,note_on,,1,0,2,,,,,,,,,1,,,59,85
80103,note_on,,3,0,1,,,,,,,,,0,,,74,0
80103,note_on,,3,0,2,,,,,,,,,1,,,59,0
80104,note_on,,1,0,1,,,,,,,,,0,,,73,66
80104,note_on,,1,0,2,,,,,,,,,1,,,57,85
80107,note_on,,3,0,1,,,,,,,,,0,,,73,0
80107,note_on,,3,0,2,,,,,,,,,1,,,57,0
80108,note_on,,1,0,1,,,,,,,,,0,,,74,85
80108,note_on,,1,0,2,,,,,,,,,1,,,59,85
80109,note_on,,13,0,4,,,,,,,,,3,,,62,0
80109,note_on,,13,0,5,,,,,,,,,4,,,62,0
80109,note_on,,13,0,6,,,,,,,,,5,,,62,0
80111,note_on,,3,0,1,,,,,,,,,0,,,74,0
80111,note_on,,3,0,2,,,,,,,,,1,,,59,0
80112,note_on,,1,0,1,,,,,,,,,0,,,73,65
80112,note_on,,3,0,4,,,,,,,,,3,,,61,37
80112,note_on,,3,0,5,,,,,,,,,4,,,61,56
80112,note_on,,3,0,6,,,,,,,,,5,,,61,56
80112,note_on,,1,0,2,,,,,,,,,1,,,57,85
80115,note_on,,3,0,2,,,,,,,,,1,,,57,0
80115,note_on,,3,0,1,,,,,,,,,0,,,73,0
80116,note_on,,1,0,2,,,,,,,,,1,,,59,85
80116,note_on,,1,0,1,,,,,,,,,0,,,74,85
80119,note_on,,3,0,1,,,,,,,,,0,,,74,0
80119,note_on,,3,0,2,,,,,,,,,1,,,59,0
80120,note_on,,1,0,1,,,,,,,,,0,,,73,66
80120,note_on,,1,0,2,,,,,,,,,1,,,57,85
80123,note_on,,3,0,1,,,,,,,,,0,,,73,0
80123,note_on,,3,0,2,,,,,,,,,1,,,57,0
80124,note_on,,1,0,1,,,,,,,,,0,,,74,85
80124,note_on,,1,0,2,,,,,,,,,1,,,59,85
80125,note_on,,13,0,4,,,,,,,,,3,,,61,0
80125,note_on,,13,0,5,,,,,,,,,4,,,61,0
80125,note_on,,13,0,6,,,,,,,,,5,,,61,0
80127,note_on,,3,0,1,,,,,,,,,0,,,74,0
80127,note_on,,3,0,2,,,,,,,,,1,,,59,0
80128,note_on,,1,0,2,,,,,,,,,1,,,57,86
80128,note_on,,1,0,1,,,,,,,,,0,,,73,72
80128,note_on,,3,0,5,,,,,,,,,4,,,62,85
80128,note_on,,3,0,4,,,,,,,,,3,,,62,85
80128,note_on,,3,0,6,,,,,,,,,5,,,62,85
80131,note_on,,3,0,2,,,,,,,,,1,,,57,0
80131,note_on,,3,0,1,,,,,,,,,0,,,73,0
80132,note_on,,1,0,1,,,,,,,,,0,,,74,85
80132,note_on,,1,0,2,,,,,,,,,1,,,59,85
80135,note_on,,3,0,1,,,,,,,,,0,,,74,0
80135,note_on,,3,0,2,,,,,,,,,1,,,59,0
80136,note_on,,1,0,1,,,,,,,,,0,,,73,62
80136,note_on,,1,0,2,,,,,,,,,1,,,57,85
80139,note_on,,3,0,1,,,,,,,,,0,,,73,0
80139,note_on,,3,0,2,,,,,,,,,1,,,57,0
80140,note_on,,1,0,1,,,,,,,,,0,,,74,49
80140,note_on,,1,0,2,,,,,,,,,1,,,59,85
80141,note_on,,13,0,6,,,,,,,,,5,,,62,0
80141,note_on,,13,0,4,,,,,,,,,3,,,62,0
80141,note_on,,13,0,5,,,,,,,,,4,,,62,0
80143,note_on,,3,0,1,,,,,,,,,0,,,74,0
80143,note_on,,3,0,2,,,,,,,,,1,,,59,0
80144,note_on,,3,0,4,,,,,,,,,3,,,64,85
80144,note_on,,3,0,6,,,,,,,,,5,,,64,85
80144,note_on,,3,0,5,,,,,,,,,4,,,64,85
80144,note_on,,1,0,1,,,,,,,,,0,,,73,40
80144,note_on,,1,0,2,,,,,,,,,1,,,57,85
80147,note_on,,3,0,1,,,,,,,,,0,,,73,0
80147,note_on,,3,0,2,,,,,,,,,1,,,57,0
80148,note_on,,1,0,2,,,,,,,,,1,,,59,85
80148,note_on,,1,0,1,,,,,,,,,0,,,74,66
80151,note_on,,3,0,1,,,,,,,,,0,,,74,0
80151,note_on,,3,0,2,,,,,,,,,1,,,59,0
80152,note_on,,1,0,1,,,,,,,,,0,,,73,44
80152,note_on,,1,0,2,,,,,,,,,1,,,57,77
80155,note_on,,3,0,1,,,,,,,,,0,,,73,0
80155,note_on,,3,0,2,,,,,,,,,1,,,57,0
80156,note_on,,1,0,1,,,,,,,,,0,,,74,85
80156,note_on,,1,0,2,,,,,,,,,1,,,59,85
80157,note_on,,13,0,6,,,,,,,,,5,,,64,0
80157,note_on,,13,0,5,,,,,,,,,4,,,64,0
80157,note_on,,13,0,4,,,,,,,,,3,,,64,0
80159,note_on,,3,0,2,,,,,,,,,1,,,59,0
80159,note_on,,3,0,1,,,,,,,,,0,,,74,0
80160,note_on,,3,0,5,,,,,,,,,4,,,57,77
80160,note_on,,1,0,1,,,,,,,,,0,,,73,52
80160,note_on,,1,0,2,,,,,,,,,1,,,57,85
80160,note_on,,3,0,6,,,,,,,,,5,,,57,77
80160,note_on,,3,0,4,,,,,,,,,3,,,57,77
80172,note_on,,12,0,1,,,,,,,,,0,,,73,0
80173,note_on,,13,0,2,,,,,,,,,1,,,57,0
80176,note_on,,3,0,2,,,,,,,,,1,,,49,49
80176,note_on,,4,0,1,,,,,,,,,0,,,69,85
80188,note_on,,12,0,1,,,,,,,,,0,,,69,0
80189,note_on,,13,0,2,,,,,,,,,1,,,49,0
80192,note_on,,4,0,1,,,,,,,,,0,,,71,85
80192,note_on,,3,0,2,,,,,,,,,1,,,52,85
80199,note_on,,39,0,5,,,,,,,,,4,,,57,0
80199,note_on,,39,0,4,,,,,,,,,3,,,57,0
80199,note_on,,39,0,6,,,,,,,,,5,,,57,0
80204,note_on,,12,0,1,,,,,,,,,0,,,71,0
80205,note_on,,13,0,2,,,,,,,,,1,,,52,0
80208,note_on,,3,0,2,,,,,,,,,1,,,57,81
80208,note_on,,4,0,1,,,,,,,,,0,,,73,64
80220,note_on,,12,0,1,,,,,,,,,0,,,73,0
80221,note_on,,13,0,2,,,,,,,,,1,,,57,0
80224,note_on,,4,0,1,,,,,,,,,0,,,76,61
80224,note_on,,3,0,2,,,,,,,,,1,,,61,50
80236,note_on,,12,0,1,,,,,,,,,0,,,76,0
80237,note_on,,13,0,2,,,,,,,,,1,,,61,0
80240,note_on,,4,0,1,,,,,,,,,0,,,74,85
80240,note_on,,3,0,2,,,,,,,,,1,,,59,85
80252,note_on,,12,0,1,,,,,,,,,0,,,74,0
80253,note_on,,13,0,2,,,,,,,,,1,,,59,0
80256,note_on,,3,0,2,,,,,,,,,1,,,61,57
80256,note_on,,4,0,1,,,,,,,,,0,,,76,81
80268,note_on,,12,0,1,,,,,,,,,0,,,76,0
80269,note_on,,13,0,2,,,,,,,,,1,,,61,0
80272,note_on,,4,0,1,,,,,,,,,0,,,73,59
80272,note_on,,3,0,2,,,,,,,,,1,,,57,85
80284,note_on,,12,0,1,,,,,,,,,0,,,73,0
80285,note_on,,13,0,2,,,,,,,,,1,,,57,0
80288,note_on,,3,0,2,,,,,,,,,1,,,59,85
80288,note_on,,4,0,1,,,,,,,,,0,,,74,85
80300,note_on,,12,0,1,,,,,,,,,0,,,74,0
80301,note_on,,13,0,2,,,,,,,,,1,,,59,0
80304,note_on,,4,0,1,,,,,,,,,0,,,76,62
80304,note_on,,3,0,2,,,,,,,,,1,,,61,61
80316,note_on,,12,0,1,,,,,,,,,0,,,76,0
80317,note_on,,13,0,2,,,,,,,,,1,,,61,0
80320,note_on,,3,0,2,,,,,,,,,1,,,64,77
80320,note_on,,4,0,1,,,,,,,,,0,,,79,77
80332,note_on,,12,0,1,,,,,,,,,0,,,79,0
80333,note_on,,13,0,2,,,,,,,,,1,,,64,0
80336,note_on,,3,0,2,,,,,,,,,1,,,62,85
80336,note_on,,4,0,1,,,,,,,,,0,,,78,59
80348,note_on,,12,0,1,,,,,,,,,0,,,78,0
80349,note_on,,13,0,2,,,,,,,,,1,,,62,0
80352,note_on,,4,0,1,,,,,,,,,0,,,79,82
80352,note_on,,153,0,4,,,,,,,,,3,,,73,59
80352,note_on,,528,0,3,,,,,,,,,2,,,76,57
80352,note_on,,3,0,2,,,,,,,,,1,,,64,74
80355,note_on,,3,0,1,,,,,,,,,0,,,79,0
80355,note_on,,3,0,2,,,,,,,,,1,,,64,0
80356,note_on,,1,0,1,,,,,,,,,0,,,81,85
80356,note_on,,1,0,2,,,,,,,,,1,,,66,44
80359,note_on,,3,0,1,,,,,,,,,0,,,81,0
80359,note_on,,3,0,2,,,,,,,,,1,,,66,0
80360,note_on,,1,0,1,,,,,,,,,0,,,79,85
80360,note_on,,1,0,2,,,,,,,,,1,,,64,85
80363,note_on,,3,0,2,,,,,,,,,1,,,64,0
80363,note_on,,3,0,1,,,,,,,,,0,,,79,0
80364,note_on,,1,0,1,,,,,,,,,0,,,81,85
80364,note_on,,1,0,2,,,,,,,,,1,,,66,55
80365,note_on,,13,0,4,,,,,,,,,3,,,73,0
80367,note_on,,3,0,2,,,,,,,,,1,,,66,0
80367,note_on,,3,0,1,,,,,,,,,0,,,81,0
80368,note_on,,1,0,1,,,,,,,,,0,,,79,85
80368,note_on,,3,0,4,,,,,,,,,3,,,69,85
80368,note_on,,1,0,2,,,,,,,,,1,,,64,85
80368,note_on,,16,0,3,,,,,,,,,2,,,76,0
80368,note_on,,0,0,3,,,,,,,,,2,,,73,56
80371,note_on,,3,0,1,,,,,,,,,0,,,79,0
80371,note_on,,3,0,2,,,,,,,,,1,,,64,0
80372,note_on,,1,0,1,,,,,,,,,0,,,81,66
80372,note_on,,1,0,2,,,,,,,,,1,,,66,59
80375,note_on,,3,0,1,,,,,,,,,0,,,81,0
80375,note_on,,3,0,2,,,,,,,,,1,,,66,0
80376,note_on,,1,0,1,,,,,,,,,0,,,79,85
80376,note_on,,1,0,2,,,,,,,,,1,,,64,49
80379,note_on,,3,0,1,,,,,,,,,0,,,79,0
80379,note_on,,3,0,2,,,,,,,,,1,,,64,0
80380,note_on,,1,0,1,,,,,,,,,0,,,81,79
80380,note_on,,1,0,2,,,,,,,,,1,,,66,68
80381,note_on,,13,0,4,,,,,,,,,3,,,69,0
80383,note_on,,3,0,1,,,,,,,,,0,,,81,0
80383,note_on,,3,0,2,,,,,,,,,1,,,66,0
80384,note_on,,3,0,4,,,,,,,,,3,,,71,85
80384,note_on,,1,0,1,,,,,,,,,0,,,79,85
80384,note_on,,1,0,2,,,,,,,,,1,,,64,72
80384,note_on,,16,0,3,,,,,,,,,2,,,73,0
80384,note_on,,0,0,3,,,,,,,,,2,,,74,88
80387,note_on,,3,0,1,,,,,,,,,0,,,79,0
80387,note_on,,3,0,2,,,,,,,,,1,,,64,0
80388,note_on,,189,0,5,,,,,,,,,4,,,64,85
80388,note_on,,1,0,1,,,,,,,,,0,,,81,85
80388,note_on,,189,0,6,,,,,,,,,5,,,64,85
80388,note_on,,1,0,2,,,,,,,,,1,,,66,68
80391,note_on,,3,0,2,,,,,,,,,1,,,66,0
80391,note_on,,3,0,1,,,,,,,,,0,,,81,0
80392,note_on,,1,0,2,,,,,,,,,1,,,64,85
80392,note_on,,1,0,1,,,,,,,,,0,,,79,85
80395,note_on,,3,0,2,,,,,,,,,1,,,64,0
80395,note_on,,3,0,1,,,,,,,,,0,,,79,0
80396,note_on,,1,0,2,,,,,,,,,1,,,66,67
80396,note_on,,1,0,1,,,,,,,,,0,,,81,81
80397,note_on,,13,0,4,,,,,,,,,3,,,71,0
80399,note_on,,3,0,2,,,,,,,,,1,,,66,0
80399,note_on,,3,0,1,,,,,,,,,0,,,81,0
80400,note_on,,12,0,5,,,,,,,,,4,,,64,0
80400,note_on,,3,0,4,,,,,,,,,3,,,73,55
80400,note_on,,0,0,6,,,,,,,,,5,,,69,85
80400,note_on,,12,0,6,,,,,,,,,5,,,64,0
80400,note_on,,0,0,3,,,,,,,,,2,,,76,80
80400,note_on,,16,0,3,,,,,,,,,2,,,74,0
80400,note_on,,1,0,2,,,,,,,,,1,,,64,85
80400,note_on,,0,0,5,,,,,,,,,4,,,69,85
80400,note_on,,1,0,1,,,,,,,,,0,,,79,79
80403,note_on,,3,0,1,,,,,,,,,0,,,79,0
80403,note_on,,3,0,2,,,,,,,,,1,,,64,0
80404,note_on,,1,0,1,,,,,,,,,0,,,81,85
80404,note_on,,1,0,2,,,,,,,,,1,,,66,64
80407,note_on,,3,0,1,,,,,,,,,0,,,81,0
80407,note_on,,3,0,2,,,,,,,,,1,,,66,0
80408,note_on,,1,0,1,,,,,,,,,0,,,79,85
80408,note_on,,1,0,2,,,,,,,,,1,,,64,85
80411,note_on,,3,0,2,,,,,,,,,1,,,64,0
80411,note_on,,3,0,1,,,,,,,,,0,,,79,0
80412,note_on,,1,0,1,,,,,,,,,0,,,81,72
80412,note_on,,1,0,2,,,,,,,,,1,,,66,72
80413,note_on,,13,0,4,,,,,,,,,3,,,73,0
80415,note_on,,3,0,2,,,,,,,,,1,,,66,0
80415,note_on,,3,0,1,,,,,,,,,0,,,81,0
80416,note_on,,1,0,2,,,,,,,,,1,,,64,85
80416,note_on,,0,0,3,,,,,,,,,2,,,73,56
80416,note_on,,16,0,3,,,,,,,,,2,,,76,0
80416,note_on,,1,0,1,,,,,,,,,0,,,79,85
80416,note_on,,3,0,4,,,,,,,,,3,,,69,62
80419,note_on,,3,0,1,,,,,,,,,0,,,79,0
80419,note_on,,3,0,2,,,,,,,,,1,,,64,0
80420,note_on,,1,0,1,,,,,,,,,0,,,81,59
80420,note_on,,1,0,2,,,,,,,,,1,,,66,62
80423,note_on,,3,0,1,,,,,,,,,0,,,81,0
80423,note_on,,3,0,2,,,,,,,,,1,,,66,0
80424,note_on,,1,0,1,,,,,,,,,0,,,79,67
80424,note_on,,1,0,2,,,,,,,,,1,,,64,85
80427,note_on,,3,0,1,,,,,,,,,0,,,79,0
80427,note_on,,3,0,2,,,,,,,,,1,,,64,0
80428,note_on,,1,0,1,,,,,,,,,0,,,81,74
80428,note_on,,1,0,2,,,,,,,,,1,,,66,68
80429,note_on,,13,0,4,,,,,,,,,3,,,69,0
80431,note_on,,3,0,1,,,,,,,,,0,,,81,0
80431,note_on,,3,0,2,,,,,,,,,1,,,66,0
80432,note_on,,3,0,4,,,,,,,,,3,,,71,85
80432,note_on,,16,0,3,,,,,,,,,2,,,73,0
80432,note_on,,0,0,3,,,,,,,,,2,,,74,77
80432,note_on,,1,0,1,,,,,,,,,0,,,79,85
80432,note_on,,1,0,2,,,,,,,,,1,,,64,85
80435,note_on,,3,0,2,,,,,,,,,1,,,64,0
80435,note_on,,3,0,1,,,,,,,,,0,,,79,0
80436,note_on,,36,0,5,,,,,,,,,4,,,69,0
80436,note_on,,0,0,6,,,,,,,,,5,,,64,85
80436,note_on,,0,0,5,,,,,,,,,4,,,64,85
80436,note_on,,1,0,1,,,,,,,,,0,,,81,70
80436,note_on,,1,0,2,,,,,,,,,1,,,66,71
80436,note_on,,36,0,6,,,,,,,,,5,,,69,0
80439,note_on,,3,0,2,,,,,,,,,1,,,66,0
80439,note_on,,3,0,1,,,,,,,,,0,,,81,0
80440,note_on,,1,0,1,,,,,,,,,0,,,79,85
80440,note_on,,1,0,2,,,,,,,,,1,,,64,85
80443,note_on,,3,0,1,,,,,,,,,0,,,79,0
80443,note_on,,3,0,2,,,,,,,,,1,,,64,0
80444,note_on,,1,0,1,,,,,,,,,0,,,81,85
80444,note_on,,1,0,2,,,,,,,,,1,,,66,53
80445,note_on,,13,0,4,,,,,,,,,3,,,71,0
80447,note_on,,3,0,1,,,,,,,,,0,,,81,0
80447,note_on,,3,0,2,,,,,,,,,1,,,66,0
80448,note_on,,1,0,1,,,,,,,,,0,,,79,74
80448,note_on,,16,0,3,,,,,,,,,2,,,74,0
80448,note_on,,1,0,2,,,,,,,,,1,,,64,66
80448,note_on,,12,0,6,,,,,,,,,5,,,64,0
80448,note_on,,12,0,5,,,,,,,,,4,,,64,0
80448,note_on,,3,0,4,,,,,,,,,3,,,73,67
80448,note_on,,0,0,3,,,,,,,,,2,,,76,60
80460,note_on,,12,0,1,,,,,,,,,0,,,79,0
80461,note_on,,13,0,2,,,,,,,,,1,,,64,0
80464,note_on,,3,0,2,,,,,,,,,1,,,61,68
80464,note_on,,4,0,1,,,,,,,,,0,,,76,85
80476,note_on,,12,0,1,,,,,,,,,0,,,76,0
80477,note_on,,13,0,2,,,,,,,,,1,,,61,0
80480,note_on,,3,0,2,,,,,,,,,1,,,62,85
80480,note_on,,4,0,1,,,,,,,,,0,,,78,54
80492,note_on,,12,0,1,,,,,,,,,0,,,78,0
80493,note_on,,13,0,2,,,,,,,,,1,,,62,0
80496,note_on,,3,0,2,,,,,,,,,1,,,64,76
80496,note_on,,4,0,1,,,,,,,,,0,,,79,81
80508,note_on,,12,0,1,,,,,,,,,0,,,79,0
80509,note_on,,13,0,2,,,,,,,,,1,,,64,0
80512,note_on,,3,0,2,,,,,,,,,1,,,61,72
80512,note_on,,4,0,1,,,,,,,,,0,,,76,85
80524,note_on,,12,0,1,,,,,,,,,0,,,76,0
80525,note_on,,13,0,2,,,,,,,,,1,,,61,0
80526,note_on,,78,0,4,,,,,,,,,3,,,73,0
80528,note_on,,4,0,1,,,,,,,,,0,,,78,59
80528,note_on,,3,0,2,,,,,,,,,1,,,62,85
80540,note_on,,12,0,1,,,,,,,,,0,,,78,0
80541,note_on,,13,0,2,,,,,,,,,1,,,62,0
80544,note_on,,0,0,3,,,,,,,,,2,,,76,66
80544,note_on,,18,0,4,,,,,,,,,3,,,73,46
80544,note_on,,4,0,1,,,,,,,,,0,,,79,82
80544,note_on,,96,0,3,,,,,,,,,2,,,76,0
80544,note_on,,3,0,2,,,,,,,,,1,,,64,74
80547,note_on,,3,0,1,,,,,,,,,0,,,79,0
80547,note_on,,3,0,2,,,,,,,,,1,,,64,0
80548,note_on,,1,0,2,,,,,,,,,1,,,66,44
80548,note_on,,1,0,1,,,,,,,,,0,,,81,85
80551,note_on,,3,0,1,,,,,,,,,0,,,81,0
80551,note_on,,3,0,2,,,,,,,,,1,,,66,0
80552,note_on,,1,0,1,,,,,,,,,0,,,79,85
80552,note_on,,1,0,2,,,,,,,,,1,,,64,85
80555,note_on,,3,0,1,,,,,,,,,0,,,79,0
80555,note_on,,3,0,2,,,,,,,,,1,,,64,0
80556,note_on,,1,0,2,,,,,,,,,1,,,66,55
80556,note_on,,1,0,1,,,,,,,,,0,,,81,85
80557,note_on,,13,0,4,,,,,,,,,3,,,73,0
80559,note_on,,3,0,1,,,,,,,,,0,,,81,0
80559,note_on,,3,0,2,,,,,,,,,1,,,66,0
80560,note_on,,1,0,2,,,,,,,,,1,,,64,85
80560,note_on,,1,0,1,,,,,,,,,0,,,79,85
80560,note_on,,3,0,4,,,,,,,,,3,,,76,81
80560,note_on,,16,0,3,,,,,,,,,2,,,76,0
80560,note_on,,0,0,3,,,,,,,,,2,,,79,88
80560,note_on,,112,0,5,,,,,,,,,4,,,61,56
80560,note_on,,112,0,6,,,,,,,,,5,,,61,56
80563,note_on,,3,0,2,,,,,,,,,1,,,64,0
80563,note_on,,3,0,1,,,,,,,,,0,,,79,0
80564,note_on,,1,0,2,,,,,,,,,1,,,66,59
80564,note_on,,1,0,1,,,,,,,,,0,,,81,66
80567,note_on,,3,0,1,,,,,,,,,0,,,81,0
80567,note_on,,3,0,2,,,,,,,,,1,,,66,0
80568,note_on,,1,0,2,,,,,,,,,1,,,64,49
80568,note_on,,1,0,1,,,,,,,,,0,,,79,85
80571,note_on,,3,0,2,,,,,,,,,1,,,64,0
80571,note_on,,3,0,1,,,,,,,,,0,,,79,0
80572,note_on,,1,0,1,,,,,,,,,0,,,81,79
80572,note_on,,1,0,2,,,,,,,,,1,,,66,68
80573,note_on,,13,0,6,,,,,,,,,5,,,61,0
80573,note_on,,13,0,5,,,,,,,,,4,,,61,0
80573,note_on,,13,0,4,,,,,,,,,3,,,76,0
80575,note_on,,3,0,1,,,,,,,,,0,,,81,0
80575,note_on,,3,0,2,,,,,,,,,1,,,66,0
80576,note_on,,3,0,6,,,,,,,,,5,,,62,78
80576,note_on,,1,0,1,,,,,,,,,0,,,79,85
80576,note_on,,0,0,3,,,,,,,,,2,,,78,56
80576,note_on,,16,0,3,,,,,,,,,2,,,79,0
80576,note_on,,3,0,5,,,,,,,,,4,,,62,78
80576,note_on,,1,0,2,,,,,,,,,1,,,64,72
80576,note_on,,3,0,4,,,,,,,,,3,,,74,85
80579,note_on,,3,0,2,,,,,,,,,1,,,64,0
80579,note_on,,3,0,1,,,,,,,,,0,,,79,0
80580,note_on,,1,0,1,,,,,,,,,0,,,81,85
80580,note_on,,1,0,2,,,,,,,,,1,,,66,68
80583,note_on,,3,0,1,,,,,,,,,0,,,81,0
80583,note_on,,3,0,2,,,,,,,,,1,,,66,0
80584,note_on,,1,0,2,,,,,,,,,1,,,64,85
80584,note_on,,1,0,1,,,,,,,,,0,,,79,85
80587,note_on,,3,0,2,,,,,,,,,1,,,64,0
80587,note_on,,3,0,1,,,,,,,,,0,,,79,0
80588,note_on,,1,0,2,,,,,,,,,1,,,66,67
80588,note_on,,1,0,1,,,,,,,,,0,,,81,81
80589,note_on,,13,0,6,,,,,,,,,5,,,62,0
80589,note_on,,13,0,4,,,,,,,,,3,,,74,0
80589,note_on,,13,0,5,,,,,,,,,4,,,62,0
80591,note_on,,3,0,2,,,,,,,,,1,,,66,0
80591,note_on,,3,0,1,,,,,,,,,0,,,81,0
80592,note_on,,3,0,5,,,,,,,,,4,,,64,85
80592,note_on,,0,0,3,,,,,,,,,2,,,76,59
80592,note_on,,16,0,3,,,,,,,,,2,,,78,0
80592,note_on,,3,0,4,,,,,,,,,3,,,73,55
80592,note_on,,3,0,6,,,,,,,,,5,,,64,85
80592,note_on,,1,0,1,,,,,,,,,0,,,79,79
80592,note_on,,1,0,2,,,,,,,,,1,,,64,85
80595,note_on,,3,0,1,,,,,,,,,0,,,79,0
80595,note_on,,3,0,2,,,,,,,,,1,,,64,0
80596,note_on,,1,0,1,,,,,,,,,0,,,81,85
80596,note_on,,1,0,2,,,,,,,,,1,,,66,64
80599,note_on,,3,0,1,,,,,,,,,0,,,81,0
80599,note_on,,3,0,2,,,,,,,,,1,,,66,0
80600,note_on,,1,0,1,,,,,,,,,0,,,79,85
80600,note_on,,1,0,2,,,,,,,,,1,,,64,85
80603,note_on,,3,0,1,,,,,,,,,0,,,79,0
80603,note_on,,3,0,2,,,,,,,,,1,,,64,0
80604,note_on,,1,0,1,,,,,,,,,0,,,81,72
80604,note_on,,1,0,2,,,,,,,,,1,,,66,72
80605,note_on,,13,0,6,,,,,,,,,5,,,64,0
80605,note_on,,13,0,5,,,,,,,,,4,,,64,0
80605,note_on,,13,0,4,,,,,,,,,3,,,73,0
80607,note_on,,3,0,1,,,,,,,,,0,,,81,0
80607,note_on,,3,0,2,,,,,,,,,1,,,66,0
80608,note_on,,16,0,3,,,,,,,,,2,,,76,0
80608,note_on,,1,0,1,,,,,,,,,0,,,79,85
80608,note_on,,3,0,4,,,,,,,,,3,,,76,72
80608,note_on,,0,0,3,,,,,,,,,2,,,79,72
80608,note_on,,3,0,6,,,,,,,,,5,,,61,56
80608,note_on,,3,0,5,,,,,,,,,4,,,61,56
80608,note_on,,1,0,2,,,,,,,,,1,,,64,85
80611,note_on,,3,0,2,,,,,,,,,1,,,64,0
80611,note_on,,3,0,1,,,,,,,,,0,,,79,0
80612,note_on,,1,0,2,,,,,,,,,1,,,66,62
80612,note_on,,1,0,1,,,,,,,,,0,,,81,59
80615,note_on,,3,0,2,,,,,,,,,1,,,66,0
80615,note_on,,3,0,1,,,,,,,,,0,,,81,0
80616,note_on,,1,0,2,,,,,,,,,1,,,64,85
80616,note_on,,1,0,1,,,,,,,,,0,,,79,67
80619,note_on,,3,0,1,,,,,,,,,0,,,79,0
80619,note_on,,3,0,2,,,,,,,,,1,,,64,0
80620,note_on,,1,0,2,,,,,,,,,1,,,66,68
80620,note_on,,1,0,1,,,,,,,,,0,,,81,74
80621,note_on,,13,0,4,,,,,,,,,3,,,76,0
80621,note_on,,13,0,5,,,,,,,,,4,,,61,0
80621,note_on,,13,0,6,,,,,,,,,5,,,61,0
80623,note_on,,3,0,2,,,,,,,,,1,,,66,0
80623,note_on,,3,0,1,,,,,,,,,0,,,81,0
80624,note_on,,3,0,6,,,,,,,,,5,,,62,85
80624,note_on,,3,0,5,,,,,,,,,4,,,62,85
80624,note_on,,3,0,4,,,,,,,,,3,,,74,85
80624,note_on,,1,0,1,,,,,,,,,0,,,79,85
80624,note_on,,16,0,3,,,,,,,,,2,,,79,0
80624,note_on,,1,0,2,,,,,,,,,1,,,64,85
80624,note_on,,0,0,3,,,,,,,,,2,,,78,62
80627,note_on,,3,0,1,,,,,,,,,0,,,79,0
80627,note_on,,3,0,2,,,,,,,,,1,,,64,0
80628,note_on,,1,0,1,,,,,,,,,0,,,81,70
80628,note_on,,1,0,2,,,,,,,,,1,,,66,71
80631,note_on,,3,0,1,,,,,,,,,0,,,81,0
80631,note_on,,3,0,2,,,,,,,,,1,,,66,0
80632,note_on,,1,0,1,,,,,,,,,0,,,79,85
80632,note_on,,1,0,2,,,,,,,,,1,,,64,85
80635,note_on,,3,0,1,,,,,,,,,0,,,79,0
80635,note_on,,3,0,2,,,,,,,,,1,,,64,0
80636,note_on,,1,0,2,,,,,,,,,1,,,66,53
80636,note_on,,1,0,1,,,,,,,,,0,,,81,85
80637,note_on,,13,0,6,,,,,,,,,5,,,62,0
80637,note_on,,13,0,5,,,,,,,,,4,,,62,0
80637,note_on,,13,0,4,,,,,,,,,3,,,74,0
80639,note_on,,3,0,2,,,,,,,,,1,,,66,0
80639,note_on,,3,0,1,,,,,,,,,0,,,81,0
80640,note_on,,1,0,2,,,,,,,,,1,,,64,54
80640,note_on,,3,0,6,,,,,,,,,5,,,57,85
80640,note_on,,3,0,5,,,,,,,,,4,,,57,85
80640,note_on,,3,0,4,,,,,,,,,3,,,73,66
80640,note_on,,1,0,1,,,,,,,,,0,,,79,76
80640,note_on,,16,0,3,,,,,,,,,2,,,78,0
80640,note_on,,0,0,3,,,,,,,,,2,,,76,80
80652,note_on,,12,0,1,,,,,,,,,0,,,79,0
80653,note_on,,13,0,2,,,,,,,,,1,,,64,0
80656,note_on,,3,0,2,,,,,,,,,1,,,67,85
80656,note_on,,4,0,1,,,,,,,,,0,,,83,53
80659,note_on,,19,0,4,,,,,,,,,3,,,73,0
80664,note_on,,24,0,5,,,,,,,,,4,,,57,0
80664,note_on,,24,0,3,,,,,,,,,2,,,76,0
80664,note_on,,24,0,6,,,,,,,,,5,,,57,0
80668,note_on,,12,0,1,,,,,,,,,0,,,83,0
80669,note_on,,13,0,2,,,,,,,,,1,,,67,0
80672,note_on,,4,0,1,,,,,,,,,0,,,81,85
80672,note_on,,3,0,2,,,,,,,,,1,,,66,65
80684,note_on,,12,0,1,,,,,,,,,0,,,81,0
80685,note_on,,13,0,2,,,,,,,,,1,,,66,0
80688,note_on,,3,0,2,,,,,,,,,1,,,64,85
80688,note_on,,4,0,1,,,,,,,,,0,,,79,85
80700,note_on,,12,0,1,,,,,,,,,0,,,79,0
80701,note_on,,13,0,2,,,,,,,,,1,,,64,0
80704,note_on,,3,0,2,,,,,,,,,1,,,62,85
80704,note_on,,4,0,1,,,,,,,,,0,,,78,59
80712,note_on,,1080,0,7,,,,,,,,,6,,,45,85
80716,note_on,,12,0,1,,,,,,,,,0,,,78,0
80717,note_on,,13,0,2,,,,,,,,,1,,,62,0
80720,note_on,,3,0,2,,,,,,,,,1,,,61,66
80720,note_on,,4,0,1,,,,,,,,,0,,,76,46
80732,note_on,,12,0,1,,,,,,,,,0,,,76,0
80733,note_on,,13,0,2,,,,,,,,,1,,,61,0
80736,note_on,,0,0,7,,,,,,,,,6,,,50,59
80736,note_on,,24,0,7,,,,,,,,,6,,,45,0
80736,note_on,,4,0,1,,,,,,,,,0,,,78,64
80736,note_on,,3,0,2,,,,,,,,,1,,,62,77
80748,note_on,,12,0,1,,,,,,,,,0,,,78,0
80749,note_on,,13,0,2,,,,,,,,,1,,,62,0
80752,note_on,,4,0,1,,,,,,,,,0,,,81,74
80752,note_on,,3,0,2,,,,,,,,,1,,,66,53
80760,note_on,,24,0,7,,,,,,,,,6,,,50,0
80764,note_on,,12,0,1,,,,,,,,,0,,,81,0
80765,note_on,,13,0,2,,,,,,,,,1,,,66,0
80768,note_on,,4,0,1,,,,,,,,,0,,,79,70
80768,note_on,,3,0,2,,,,,,,,,1,,,64,85
80772,note_on,,108,0,3,,,,,,,,,2,,,78,65
80780,note_on,,12,0,1,,,,,,,,,0,,,79,0
80781,note_on,,13,0,2,,,,,,,,,1,,,64,0
80784,note_on,,3,0,2,,,,,,,,,1,,,62,85
80784,note_on,,12,0,3,,,,,,,,,2,,,78,0
80784,note_on,,0,0,3,,,,,,,,,2,,,83,76
80784,note_on,,4,0,1,,,,,,,,,0,,,78,53
80796,note_on,,12,0,1,,,,,,,,,0,,,78,0
80797,note_on,,13,0,2,,,,,,,,,1,,,62,0
80800,note_on,,3,0,2,,,,,,,,,1,,,61,61
80800,note_on,,4,0,1,,,,,,,,,0,,,76,85
80812,note_on,,12,0,1,,,,,,,,,0,,,76,0
80813,note_on,,13,0,2,,,,,,,,,1,,,61,0
80816,note_on,,4,0,1,,,,,,,,,0,,,74,76
80816,note_on,,3,0,2,,,,,,,,,1,,,59,85
80820,note_on,,161,0,4,,,,,,,,,3,,,71,85
80828,note_on,,12,0,1,,,,,,,,,0,,,74,0
80829,note_on,,13,0,2,,,,,,,,,1,,,59,0
80830,note_on,,10,0,4,,,,,,,,,3,,,71,0
80832,note_on,,4,0,1,,,,,,,,,0,,,76,85
80832,note_on,,2,0,4,,,,,,,,,3,,,76,85
80832,note_on,,3,0,2,,,,,,,,,1,,,61,62
80832,note_on,,72,0,7,,,,,,,,,6,,,49,74
80844,note_on,,12,0,1,,,,,,,,,0,,,76,0
80845,note_on,,13,0,2,,,,,,,,,1,,,61,0
80848,note_on,,4,0,1,,,,,,,,,0,,,79,65
80848,note_on,,3,0,2,,,,,,,,,1,,,64,85
80856,note_on,,72,0,3,,,,,,,,,2,,,83,0
80856,note_on,,24,0,7,,,,,,,,,6,,,49,0
80860,note_on,,12,0,1,,,,,,,,,0,,,79,0
80861,note_on,,13,0,2,,,,,,,,,1,,,64,0
80864,note_on,,4,0,1,,,,,,,,,0,,,78,61
80864,note_on,,3,0,2,,,,,,,,,1,,,62,85
80868,note_on,,12,0,3,,,,,,,,,2,,,76,85
80876,note_on,,12,0,1,,,,,,,,,0,,,78,0
80877,note_on,,13,0,2,,,,,,,,,1,,,62,0
80880,note_on,,12,0,3,,,,,,,,,2,,,76,0
80880,note_on,,3,0,2,,,,,,,,,1,,,61,54
80880,note_on,,4,0,1,,,,,,,,,0,,,76,71
80880,note_on,,0,0,3,,,,,,,,,2,,,81,88
80890,note_on,,58,0,4,,,,,,,,,3,,,76,0
80892,note_on,,12,0,1,,,,,,,,,0,,,76,0
80893,note_on,,13,0,2,,,,,,,,,1,,,61,0
80896,note_on,,3,0,2,,,,,,,,,1,,,59,62
80896,note_on,,4,0,1,,,,,,,,,0,,,74,85
80908,note_on,,12,0,1,,,,,,,,,0,,,74,0
80909,note_on,,13,0,2,,,,,,,,,1,,,59,0
80912,note_on,,3,0,2,,,,,,,,,1,,,57,79
80912,note_on,,4,0,1,,,,,,,,,0,,,73,53
80916,note_on,,26,0,4,,,,,,,,,3,,,73,59
80924,note_on,,12,0,1,,,,,,,,,0,,,73,0
80925,note_on,,13,0,2,,,,,,,,,1,,,57,0
80926,note_on,,10,0,4,,,,,,,,,3,,,73,0
80928,note_on,,4,0,1,,,,,,,,,0,,,74,61
80928,note_on,,3,0,2,,,,,,,,,1,,,59,66
80928,note_on,,72,0,7,,,,,,,,,6,,,47,85
80928,note_on,,2,0,4,,,,,,,,,3,,,74,85
80940,note_on,,12,0,1,,,,,,,,,0,,,74,0
80941,note_on,,13,0,2,,,,,,,,,1,,,59,0
80944,note_on,,4,0,1,,,,,,,,,0,,,78,40
80944,note_on,,3,0,2,,,,,,,,,1,,,62,85
80952,note_on,,72,0,3,,,,,,,,,2,,,81,0
80952,note_on,,24,0,7,,,,,,,,,6,,,47,0
80956,note_on,,12,0,1,,,,,,,,,0,,,78,0
80957,note_on,,13,0,2,,,,,,,,,1,,,62,0
80960,note_on,,3,0,2,,,,,,,,,1,,,61,59
80960,note_on,,4,0,1,,,,,,,,,0,,,76,72
80964,note_on,,12,0,3,,,,,,,,,2,,,83,88
80972,note_on,,12,0,1,,,,,,,,,0,,,76,0
80973,note_on,,13,0,2,,,,,,,,,1,,,61,0
80976,note_on,,0,0,3,,,,,,,,,2,,,80,74
80976,note_on,,12,0,3,,,,,,,,,2,,,83,0
80976,note_on,,3,0,2,,,,,,,,,1,,,59,62
80976,note_on,,4,0,1,,,,,,,,,0,,,74,70
80986,note_on,,58,0,4,,,,,,,,,3,,,74,0
80988,note_on,,12,0,1,,,,,,,,,0,,,74,0
80989,note_on,,13,0,2,,,,,,,,,1,,,59,0
80992,note_on,,3,0,2,,,,,,,,,1,,,57,85
80992,note_on,,4,0,1,,,,,,,,,0,,,73,43
81004,note_on,,12,0,1,,,,,,,,,0,,,73,0
81005,note_on,,13,0,2,,,,,,,,,1,,,57,0
81008,note_on,,3,0,2,,,,,,,,,1,,,56,65
81008,note_on,,4,0,1,,,,,,,,,0,,,71,74
81012,note_on,,26,0,4,,,,,,,,,3,,,76,76
81020,note_on,,12,0,1,,,,,,,,,0,,,71,0
81021,note_on,,13,0,2,,,,,,,,,1,,,56,0
81022,note_on,,10,0,4,,,,,,,,,3,,,76,0
81024,note_on,,2,0,4,,,,,,,,,3,,,73,59
81024,note_on,,4,0,1,,,,,,,,,0,,,73,59
81024,note_on,,72,0,7,,,,,,,,,6,,,45,85
81024,note_on,,3,0,2,,,,,,,,,1,,,57,85
81036,note_on,,12,0,1,,,,,,,,,0,,,73,0
81037,note_on,,13,0,2,,,,,,,,,1,,,57,0
81040,note_on,,4,0,1,,,,,,,,,0,,,76,72
81040,note_on,,3,0,2,,,,,,,,,1,,,61,64
81048,note_on,,24,0,7,,,,,,,,,6,,,45,0
81048,note_on,,72,0,3,,,,,,,,,2,,,80,0
81052,note_on,,12,0,1,,,,,,,,,0,,,76,0
81053,note_on,,13,0,2,,,,,,,,,1,,,61,0
81056,note_on,,3,0,2,,,,,,,,,1,,,59,76
81056,note_on,,4,0,1,,,,,,,,,0,,,74,68
81060,note_on,,12,0,3,,,,,,,,,2,,,81,88
81068,note_on,,12,0,1,,,,,,,,,0,,,74,0
81069,note_on,,13,0,2,,,,,,,,,1,,,59,0
81072,note_on,,3,0,2,,,,,,,,,1,,,57,85
81072,note_on,,12,0,3,,,,,,,,,2,,,81,0
81072,note_on,,4,0,1,,,,,,,,,0,,,73,59
81072,note_on,,0,0,3,,,,,,,,,2,,,78,63
81082,note_on,,58,0,4,,,,,,,,,3,,,73,0
81084,note_on,,12,0,1,,,,,,,,,0,,,73,0
81085,note_on,,13,0,2,,,,,,,,,1,,,57,0
81088,note_on,,4,0,1,,,,,,,,,0,,,74,81
81088,note_on,,3,0,2,,,,,,,,,1,,,59,85
81100,note_on,,12,0,1,,,,,,,,,0,,,74,0
81101,note_on,,13,0,2,,,,,,,,,1,,,59,0
81104,note_on,,3,0,2,,,,,,,,,1,,,57,85
81104,note_on,,4,0,1,,,,,,,,,0,,,73,47
81108,note_on,,36,0,3,,,,,,,,,2,,,78,0
81108,note_on,,0,0,3,,,,,,,,,2,,,80,71
81108,note_on,,26,0,4,,,,,,,,,3,,,73,66
81116,note_on,,12,0,1,,,,,,,,,0,,,73,0
81117,note_on,,13,0,2,,,,,,,,,1,,,57,0
81118,note_on,,10,0,4,,,,,,,,,3,,,73,0
81120,note_on,,0,0,3,,,,,,,,,2,,,77,88
81120,note_on,,12,0,3,,,,,,,,,2,,,80,0
81120,note_on,,2,0,4,,,,,,,,,3,,,74,85
81120,note_on,,3,0,2,,,,,,,,,1,,,56,61
81120,note_on,,72,0,7,,,,,,,,,6,,,44,66
81120,note_on,,4,0,1,,,,,,,,,0,,,71,79
81132,note_on,,12,0,1,,,,,,,,,0,,,71,0
81133,note_on,,13,0,2,,,,,,,,,1,,,56,0
81133,note_on,,13,0,4,,,,,,,,,3,,,74,0
81136,note_on,,3,0,2,,,,,,,,,1,,,57,85
81136,note_on,,4,0,1,,,,,,,,,0,,,69,79
81136,note_on,,3,0,4,,,,,,,,,3,,,73,53
81144,note_on,,24,0,7,,,,,,,,,6,,,44,0
81148,note_on,,12,0,1,,,,,,,,,0,,,69,0
81149,note_on,,13,0,4,,,,,,,,,3,,,73,0
81149,note_on,,13,0,2,,,,,,,,,1,,,57,0
81152,note_on,,4,0,1,,,,,,,,,0,,,71,85
81152,note_on,,3,0,4,,,,,,,,,3,,,71,64
81152,note_on,,3,0,2,,,,,,,,,1,,,56,59
81156,note_on,,36,0,3,,,,,,,,,2,,,77,0
81156,note_on,,0,0,3,,,,,,,,,2,,,78,66
81164,note_on,,12,0,1,,,,,,,,,0,,,71,0
81165,note_on,,13,0,4,,,,,,,,,3,,,71,0
81165,note_on,,13,0,2,,,,,,,,,1,,,56,0
81168,note_on,,3,0,2,,,,,,,,,1,,,54,64
81168,note_on,,4,0,1,,,,,,,,,0,,,73,47
81168,note_on,,0,0,3,,,,,,,,,2,,,78,60
81168,note_on,,12,0,3,,,,,,,,,2,,,78,0
81168,note_on,,24,0,7,,,,,,,,,6,,,42,64
81168,note_on,,3,0,4,,,,,,,,,3,,,69,85
81174,note_on,,0,0,3,,,,,,,,,2,,,80,56
81174,note_on,,6,0,3,,,,,,,,,2,,,78,0
81180,note_on,,6,0,3,,,,,,,,,2,,,80,0
81180,note_on,,0,0,3,,,,,,,,,2,,,78,56
81180,note_on,,12,0,1,,,,,,,,,0,,,73,0
81181,note_on,,13,0,4,,,,,,,,,3,,,69,0
81181,note_on,,13,0,2,,,,,,,,,1,,,54,0
81184,note_on,,3,0,2,,,,,,,,,1,,,53,85
81184,note_on,,3,0,4,,,,,,,,,3,,,68,66
81184,note_on,,4,0,1,,,,,,,,,0,,,74,76
81186,note_on,,6,0,3,,,,,,,,,2,,,78,0
81186,note_on,,0,0,3,,,,,,,,,2,,,80,56
81190,note_on,,6,0,1,,,,,,,,,0,,,74,0
81192,note_on,,24,0,7,,,,,,,,,6,,,42,0
81192,note_on,,0,0,3,,,,,,,,,2,,,78,56
81192,note_on,,2,0,1,,,,,,,,,0,,,73,47
81192,note_on,,6,0,3,,,,,,,,,2,,,80,0
81197,note_on,,13,0,4,,,,,,,,,3,,,68,0
81197,note_on,,13,0,2,,,,,,,,,1,,,53,0
81198,note_on,,0,0,3,,,,,,,,,2,,,80,56
81198,note_on,,6,0,3,,,,,,,,,2,,,78,0
81198,note_on,,6,0,1,,,,,,,,,0,,,73,0
81200,note_on,,3,0,4,,,,,,,,,3,,,66,67
81200,note_on,,2,0,1,,,,,,,,,0,,,71,78
81200,note_on,,3,0,2,,,,,,,,,1,,,54,53
81204,note_on,,6,0,3,,,,,,,,,2,,,80,0
81204,note_on,,0,0,3,,,,,,,,,2,,,77,57
81206,note_on,,6,0,1,,,,,,,,,0,,,71,0
81208,note_on,,2,0,1,,,,,,,,,0,,,69,85
81210,note_on,,0,0,3,,,,,,,,,2,,,78,56
81210,note_on,,6,0,3,,,,,,,,,2,,,77,0
81213,note_on,,13,0,2,,,,,,,,,1,,,54,0
81213,note_on,,13,0,4,,,,,,,,,3,,,66,0
81214,note_on,,6,0,1,,,,,,,,,0,,,69,0
81216,note_on,,2,0,1,,,,,,,,,0,,,68,57
81216,note_on,,552,0,6,,,,,,,,,5,,,65,85
81216,note_on,,552,0,5,,,,,,,,,4,,,71,85
81216,note_on,,0,0,3,,,,,,,,,2,,,80,66
81216,note_on,,6,0,3,,,,,,,,,2,,,78,0
81216,note_on,,24,0,7,,,,,,,,,6,,,49,62
81216,note_on,,1600,0,8,,,,,,,,,7,,,37,70
81216,note_on,,3,0,4,,,,,,,,,3,,,64,59
81216,note_on,,3,0,2,,,,,,,,,1,,,49,59
81229,note_on,,13,0,2,,,,,,,,,1,,,49,0
81232,note_on,,3,0,2,,,,,,,,,1,,,53,74
81236,note_on,,20,0,5,,,,,,,,,4,,,71,0
81240,note_on,,24,0,7,,,,,,,,,6,,,49,0
81240,note_on,,24,0,6,,,,,,,,,5,,,65,0
81243,note_on,,27,0,1,,,,,,,,,0,,,68,0
81245,note_on,,13,0,2,,,,,,,,,1,,,53,0
81245,note_on,,29,0,4,,,,,,,,,3,,,64,0
81248,note_on,,3,0,2,,,,,,,,,1,,,51,62
81252,note_on,,7,0,4,,,,,,,,,3,,,73,55
81252,note_on,,9,0,1,,,,,,,,,0,,,66,60
81261,note_on,,13,0,2,,,,,,,,,1,,,51,0
81261,note_on,,9,0,1,,,,,,,,,0,,,66,0
81262,note_on,,10,0,4,,,,,,,,,3,,,73,0
81264,note_on,,2,0,4,,,,,,,,,3,,,80,71
81264,note_on,,3,0,1,,,,,,,,,0,,,65,85
81264,note_on,,3,0,2,,,,,,,,,1,,,49,55
81276,note_on,,12,0,1,,,,,,,,,0,,,65,0
81277,note_on,,13,0,2,,,,,,,,,1,,,49,0
81280,note_on,,3,0,2,,,,,,,,,1,,,51,74
81280,note_on,,4,0,1,,,,,,,,,0,,,68,62
81288,note_on,,72,0,8,,,,,,,,,7,,,37,0
81288,note_on,,72,0,3,,,,,,,,,2,,,80,0
81292,note_on,,12,0,1,,,,,,,,,0,,,68,0
81293,note_on,,13,0,2,,,,,,,,,1,,,51,0
81296,note_on,,3,0,2,,,,,,,,,1,,,53,67
81296,note_on,,4,0,1,,,,,,,,,0,,,71,64
81300,note_on,,12,0,3,,,,,,,,,2,,,73,57
81308,note_on,,12,0,1,,,,,,,,,0,,,71,0
81309,note_on,,13,0,2,,,,,,,,,1,,,53,0
81312,note_on,,3,0,2,,,,,,,,,1,,,54,62
81312,note_on,,4,0,1,,,,,,,,,0,,,69,85
81312,note_on,,76,0,5,,,,,,,,,4,,,69,85
81312,note_on,,0,0,3,,,,,,,,,2,,,81,88
81312,note_on,,12,0,3,,,,,,,,,2,,,73,0
81312,note_on,,72,0,6,,,,,,,,,5,,,61,85
81312,note_on,,72,0,7,,,,,,,,,6,,,61,67
81322,note_on,,58,0,4,,,,,,,,,3,,,80,0
81324,note_on,,12,0,1,,,,,,,,,0,,,69,0
81325,note_on,,13,0,2,,,,,,,,,1,,,54,0
81328,note_on,,4,0,1,,,,,,,,,0,,,73,49
81328,note_on,,6,0,4,,,,,,,,,3,,,78,62
81328,note_on,,3,0,2,,,,,,,,,1,,,57,85
81332,note_on,,20,0,5,,,,,,,,,4,,,69,0
81336,note_on,,24,0,6,,,,,,,,,5,,,61,0
81336,note_on,,24,0,7,,,,,,,,,6,,,61,0
81340,note_on,,12,0,1,,,,,,,,,0,,,73,0
81341,note_on,,13,0,2,,,,,,,,,1,,,57,0
81341,note_on,,13,0,4,,,,,,,,,3,,,78,0
81344,note_on,,3,0,4,,,,,,,,,3,,,77,85
81344,note_on,,3,0,2,,,,,,,,,1,,,56,68
81344,note_on,,4,0,1,,,,,,,,,0,,,71,85
81356,note_on,,12,0,1,,,,,,,,,0,,,71,0
81357,note_on,,13,0,4,,,,,,,,,3,,,77,0
81357,note_on,,13,0,2,,,,,,,,,1,,,56,0
81360,note_on,,3,0,4,,,,,,,,,3,,,78,66
81360,note_on,,3,0,2,,,,,,,,,1,,,54,66
81360,note_on,,4,0,1,,,,,,,,,0,,,69,85
81372,note_on,,12,0,1,,,,,,,,,0,,,69,0
81373,note_on,,13,0,2,,,,,,,,,1,,,54,0
81373,note_on,,13,0,4,,,,,,,,,3,,,78,0
81376,note_on,,3,0,4,,,,,,,,,3,,,80,64
81376,note_on,,3,0,2,,,,,,,,,1,,,53,85
81376,note_on,,4,0,1,,,,,,,,,0,,,73,46
81388,note_on,,12,0,1,,,,,,,,,0,,,73,0
81389,note_on,,13,0,2,,,,,,,,,1,,,53,0
81389,note_on,,13,0,4,,,,,,,,,3,,,80,0
81392,note_on,,4,0,1,,,,,,,,,0,,,78,49
81392,note_on,,3,0,2,,,,,,,,,1,,,54,67
81392,note_on,,3,0,4,,,,,,,,,3,,,81,85
81404,note_on,,12,0,1,,,,,,,,,0,,,78,0
81405,note_on,,13,0,2,,,,,,,,,1,,,54,0
81405,note_on,,13,0,4,,,,,,,,,3,,,81,0
81408,note_on,,3,0,4,,,,,,,,,3,,,83,85
81408,note_on,,4,0,1,,,,,,,,,0,,,71,85
81408,note_on,,72,0,7,,,,,,,,,6,,,49,56
81408,note_on,,3,0,2,,,,,,,,,1,,,56,72
81408,note_on,,76,0,5,,,,,,,,,4,,,77,85
81408,note_on,,72,0,6,,,,,,,,,5,,,71,85
81408,note_on,,96,0,3,,,,,,,,,2,,,81,0
81408,note_on,,0,0,3,,,,,,,,,2,,,81,74
81420,note_on,,12,0,1,,,,,,,,,0,,,71,0
81421,note_on,,13,0,2,,,,,,,,,1,,,56,0
81424,note_on,,4,0,1,,,,,,,,,0,,,74,37
81424,note_on,,16,0,3,,,,,,,,,2,,,81,0
81424,note_on,,0,0,3,,,,,,,,,2,,,80,62
81424,note_on,,3,0,2,,,,,,,,,1,,,59,85
81428,note_on,,20,0,5,,,,,,,,,4,,,77,0
81432,note_on,,24,0,6,,,,,,,,,5,,,71,0
81432,note_on,,24,0,7,,,,,,,,,6,,,49,0
81436,note_on,,12,0,1,,,,,,,,,0,,,74,0
81437,note_on,,13,0,2,,,,,,,,,1,,,59,0
81440,note_on,,0,0,3,,,,,,,,,2,,,78,56
81440,note_on,,16,0,3,,,,,,,,,2,,,80,0
81440,note_on,,4,0,1,,,,,,,,,0,,,73,66
81440,note_on,,3,0,2,,,,,,,,,1,,,57,85
81452,note_on,,12,0,1,,,,,,,,,0,,,73,0
81453,note_on,,13,0,2,,,,,,,,,1,,,57,0
81456,note_on,,3,0,2,,,,,,,,,1,,,56,64
81456,note_on,,4,0,1,,,,,,,,,0,,,71,85
81456,note_on,,0,0,3,,,,,,,,,2,,,80,65
81456,note_on,,16,0,3,,,,,,,,,2,,,78,0
81468,note_on,,12,0,1,,,,,,,,,0,,,71,0
81469,note_on,,13,0,2,,,,,,,,,1,,,56,0
81472,note_on,,3,0,2,,,,,,,,,1,,,54,66
81472,note_on,,0,0,3,,,,,,,,,2,,,81,88
81472,note_on,,16,0,3,,,,,,,,,2,,,80,0
81472,note_on,,4,0,1,,,,,,,,,0,,,78,49
81484,note_on,,12,0,1,,,,,,,,,0,,,78,0
81485,note_on,,13,0,2,,,,,,,,,1,,,54,0
81486,note_on,,78,0,4,,,,,,,,,3,,,83,0
81488,note_on,,16,0,3,,,,,,,,,2,,,81,0
81488,note_on,,0,0,3,,,,,,,,,2,,,83,88
81488,note_on,,3,0,2,,,,,,,,,1,,,56,67
81488,note_on,,4,0,1,,,,,,,,,0,,,77,85
81500,note_on,,12,0,1,,,,,,,,,0,,,77,0
81501,note_on,,13,0,2,,,,,,,,,1,,,56,0
81504,note_on,,72,0,6,,,,,,,,,5,,,69,85
81504,note_on,,4,0,1,,,,,,,,,0,,,78,43
81504,note_on,,72,0,7,,,,,,,,,6,,,61,56
81504,note_on,,76,0,5,,,,,,,,,4,,,78,74
81504,note_on,,18,0,4,,,,,,,,,3,,,83,85
81504,note_on,,3,0,2,,,,,,,,,1,,,57,85
81504,note_on,,0,0,3,,,,,,,,,2,,,85,65
81504,note_on,,16,0,3,,,,,,,,,2,,,83,0
81516,note_on,,12,0,1,,,,,,,,,0,,,78,0
81517,note_on,,13,0,2,,,,,,,,,1,,,57,0
81517,note_on,,13,0,4,,,,,,,,,3,,,83,0
81520,note_on,,3,0,4,,,,,,,,,3,,,81,85
81520,note_on,,3,0,2,,,,,,,,,1,,,61,56
81520,note_on,,4,0,1,,,,,,,,,0,,,69,85
81524,note_on,,20,0,5,,,,,,,,,4,,,78,0
81528,note_on,,24,0,6,,,,,,,,,5,,,69,0
81528,note_on,,24,0,7,,,,,,,,,6,,,61,0
81532,note_on,,12,0,1,,,,,,,,,0,,,69,0
81533,note_on,,13,0,4,,,,,,,,,3,,,81,0
81533,note_on,,13,0,2,,,,,,,,,1,,,61,0
81536,note_on,,3,0,2,,,,,,,,,1,,,59,85
81536,note_on,,3,0,4,,,,,,,,,3,,,80,62
81536,note_on,,4,0,1,,,,,,,,,0,,,71,85
81548,note_on,,12,0,1,,,,,,,,,0,,,71,0
81549,note_on,,13,0,2,,,,,,,,,1,,,59,0
81549,note_on,,13,0,4,,,,,,,,,3,,,80,0
81552,note_on,,4,0,1,,,,,,,,,0,,,73,70
81552,note_on,,3,0,2,,,,,,,,,1,,,58,66
81552,note_on,,3,0,4,,,,,,,,,3,,,81,84
81564,note_on,,12,0,1,,,,,,,,,0,,,73,0
81565,note_on,,13,0,4,,,,,,,,,3,,,81,0
81565,note_on,,13,0,2,,,,,,,,,1,,,58,0
81568,note_on,,3,0,2,,,,,,,,,1,,,56,64
81568,note_on,,3,0,4,,,,,,,,,3,,,83,85
81568,note_on,,4,0,1,,,,,,,,,0,,,74,85
81580,note_on,,12,0,1,,,,,,,,,0,,,74,0
81581,note_on,,13,0,4,,,,,,,,,3,,,83,0
81581,note_on,,13,0,2,,,,,,,,,1,,,56,0
81584,note_on,,4,0,1,,,,,,,,,0,,,76,85
81584,note_on,,3,0,2,,,,,,,,,1,,,54,64
81584,note_on,,3,0,4,,,,,,,,,3,,,85,74
81596,note_on,,12,0,1,,,,,,,,,0,,,76,0
81597,note_on,,13,0,4,,,,,,,,,3,,,85,0
81597,note_on,,13,0,2,,,,,,,,,1,,,54,0
81600,note_on,,76,0,5,,,,,,,,,4,,,78,70
81600,note_on,,3,0,2,,,,,,,,,1,,,59,85
81600,note_on,,3,0,4,,,,,,,,,3,,,86,81
81600,note_on,,4,0,1,,,,,,,,,0,,,74,85
81600,note_on,,72,0,7,,,,,,,,,6,,,49,64
81600,note_on,,96,0,3,,,,,,,,,2,,,85,0
81600,note_on,,0,0,3,,,,,,,,,2,,,85,66
81600,note_on,,72,0,6,,,,,,,,,5,,,66,85
81612,note_on,,12,0,1,,,,,,,,,0,,,74,0
81613,note_on,,13,0,2,,,,,,,,,1,,,59,0
81616,note_on,,4,0,1,,,,,,,,,0,,,78,65
81616,note_on,,0,0,3,,,,,,,,,2,,,83,80
81616,note_on,,3,0,2,,,,,,,,,1,,,62,85
81616,note_on,,16,0,3,,,,,,,,,2,,,85,0
81620,note_on,,20,0,5,,,,,,,,,4,,,78,0
81624,note_on,,24,0,6,,,,,,,,,5,,,66,0
81624,note_on,,24,0,7,,,,,,,,,6,,,49,0
81628,note_on,,12,0,1,,,,,,,,,0,,,78,0
81629,note_on,,13,0,2,,,,,,,,,1,,,62,0
81632,note_on,,16,0,3,,,,,,,,,2,,,83,0
81632,note_on,,3,0,2,,,,,,,,,1,,,61,49
81632,note_on,,4,0,1,,,,,,,,,0,,,76,85
81632,note_on,,0,0,3,,,,,,,,,2,,,81,56
81644,note_on,,12,0,1,,,,,,,,,0,,,76,0
81645,note_on,,13,0,2,,,,,,,,,1,,,61,0
81648,note_on,,3,0,2,,,,,,,,,1,,,59,76
81648,note_on,,16,0,3,,,,,,,,,2,,,81,0
81648,note_on,,4,0,1,,,,,,,,,0,,,74,85
81648,note_on,,0,0,3,,,,,,,,,2,,,83,88
81660,note_on,,12,0,1,,,,,,,,,0,,,74,0
81661,note_on,,13,0,2,,,,,,,,,1,,,59,0
81664,note_on,,4,0,1,,,,,,,,,0,,,78,59
81664,note_on,,3,0,2,,,,,,,,,1,,,57,85
81664,note_on,,16,0,3,,,,,,,,,2,,,83,0
81664,note_on,,0,0,3,,,,,,,,,2,,,85,59
81676,note_on,,12,0,1,,,,,,,,,0,,,78,0
81677,note_on,,13,0,2,,,,,,,,,1,,,57,0
81678,note_on,,78,0,4,,,,,,,,,3,,,86,0
81680,note_on,,3,0,2,,,,,,,,,1,,,56,62
81680,note_on,,4,0,1,,,,,,,,,0,,,83,79
81680,note_on,,16,0,3,,,,,,,,,2,,,85,0
81680,note_on,,0,0,3,,,,,,,,,2,,,86,88
81692,note_on,,12,0,1,,,,,,,,,0,,,83,0
81693,note_on,,13,0,2,,,,,,,,,1,,,56,0
81696,note_on,,18,0,4,,,,,,,,,3,,,86,65
81696,note_on,,3,0,2,,,,,,,,,1,,,61,62
81696,note_on,,76,0,5,,,,,,,,,4,,,80,66
81696,note_on,,4,0,1,,,,,,,,,0,,,80,69
81696,note_on,,0,0,3,,,,,,,,,2,,,77,81
81696,note_on,,16,0,3,,,,,,,,,2,,,86,0
81696,note_on,,72,0,6,,,,,,,,,5,,,61,85
81696,note_on,,72,0,7,,,,,,,,,6,,,61,68
81708,note_on,,12,0,1,,,,,,,,,0,,,80,0
81709,note_on,,13,0,4,,,,,,,,,3,,,86,0
81712,note_on,,3,0,4,,,,,,,,,3,,,85,55
81712,note_on,,4,0,1,,,,,,,,,0,,,77,85
81715,note_on,,19,0,2,,,,,,,,,1,,,61,0
81716,note_on,,20,0,5,,,,,,,,,4,,,80,0
81720,note_on,,24,0,6,,,,,,,,,5,,,61,0
81720,note_on,,24,0,7,,,,,,,,,6,,,61,0
81724,note_on,,12,0,1,,,,,,,,,0,,,77,0
81725,note_on,,13,0,4,,,,,,,,,3,,,85,0
81728,note_on,,4,0,1,,,,,,,,,0,,,78,64
81728,note_on,,3,0,4,,,,,,,,,3,,,83,81
81740,note_on,,12,0,1,,,,,,,,,0,,,78,0
81741,note_on,,13,0,4,,,,,,,,,3,,,83,0
81744,note_on,,48,0,3,,,,,,,,,2,,,77,0
81744,note_on,,24,0,7,,,,,,,,,6,,,49,61
81744,note_on,,29,0,2,,,,,,,,,1,,,49,52
81744,note_on,,0,0,3,,,,,,,,,2,,,76,88
81744,note_on,,4,0,1,,,,,,,,,0,,,79,85
81744,note_on,,3,0,4,,,,,,,,,3,,,85,57
81757,note_on,,13,0,4,,,,,,,,,3,,,85,0
81760,note_on,,3,0,4,,,,,,,,,3,,,86,85
81763,note_on,,19,0,2,,,,,,,,,1,,,49,0
81768,note_on,,24,0,7,,,,,,,,,6,,,49,0
81773,note_on,,13,0,4,,,,,,,,,3,,,86,0
81776,note_on,,3,0,4,,,,,,,,,3,,,88,85
81789,note_on,,13,0,4,,,,,,,,,3,,,88,0
81792,note_on,,3,0,4,,,,,,,,,3,,,82,49
81792,note_on,,24,0,7,,,,,,,,,6,,,54,66
81792,note_on,,29,0,2,,,,,,,,,1,,,54,66
81798,note_on,,54,0,1,,,,,,,,,0,,,79,0
81808,note_on,,64,0,3,,,,,,,,,2,,,74,65
81808,note_on,,10,0,1,,,,,,,,,0,,,78,55
81811,note_on,,19,0,2,,,,,,,,,1,,,54,0
81816,note_on,,24,0,7,,,,,,,,,6,,,54,0
81816,note_on,,8,0,3,,,,,,,,,2,,,76,0
81820,note_on,,12,0,1,,,,,,,,,0,,,78,0
81824,note_on,,4,0,1,,,,,,,,,0,,,76,76
81824,note_on,,0,0,3,,,,,,,,,2,,,73,60
81824,note_on,,8,0,3,,,,,,,,,2,,,74,0
81831,note_on,,39,0,4,,,,,,,,,3,,,82,0
81836,note_on,,12,0,1,,,,,,,,,0,,,76,0
81840,note_on,,16,0,3,,,,,,,,,2,,,73,0
81840,note_on,,0,0,3,,,,,,,,,2,,,74,77
81840,note_on,,29,0,2,,,,,,,,,1,,,54,65
81840,note_on,,9,0,4,,,,,,,,,3,,,83,70
81840,note_on,,4,0,1,,,,,,,,,0,,,74,85
81852,note_on,,12,0,1,,,,,,,,,0,,,74,0
81856,note_on,,0,0,3,,,,,,,,,2,,,76,80
81856,note_on,,16,0,3,,,,,,,,,2,,,74,0
81856,note_on,,4,0,1,,,,,,,,,0,,,73,57
81859,note_on,,19,0,2,,,,,,,,,1,,,54,0
81868,note_on,,12,0,1,,,,,,,,,0,,,73,0
81872,note_on,,0,0,3,,,,,,,,,2,,,78,62
81872,note_on,,4,0,1,,,,,,,,,0,,,71,85
81872,note_on,,16,0,3,,,,,,,,,2,,,76,0
81884,note_on,,12,0,1,,,,,,,,,0,,,71,0
81888,note_on,,4,0,1,,,,,,,,,0,,,73,55
81888,note_on,,72,0,7,,,,,,,,,6,,,54,57
81888,note_on,,16,0,3,,,,,,,,,2,,,78,0
81888,note_on,,0,0,3,,,,,,,,,2,,,73,59
81888,note_on,,29,0,2,,,,,,,,,1,,,54,59
81898,note_on,,58,0,4,,,,,,,,,3,,,83,0
81900,note_on,,12,0,1,,,,,,,,,0,,,73,0
81904,note_on,,6,0,4,,,,,,,,,3,,,81,85
81904,note_on,,4,0,1,,,,,,,,,0,,,78,52
81907,note_on,,19,0,2,,,,,,,,,1,,,54,0
81912,note_on,,24,0,7,,,,,,,,,6,,,54,0
81916,note_on,,12,0,1,,,,,,,,,0,,,78,0
81917,note_on,,13,0,4,,,,,,,,,3,,,81,0
81920,note_on,,3,0,4,,,,,,,,,3,,,80,59
81920,note_on,,4,0,1,,,,,,,,,0,,,76,55
81932,note_on,,12,0,1,,,,,,,,,0,,,76,0
81933,note_on,,13,0,4,,,,,,,,,3,,,80,0
81936,note_on,,0,0,3,,,,,,,,,2,,,72,88
81936,note_on,,3,0,4,,,,,,,,,3,,,81,77
81936,note_on,,29,0,2,,,,,,,,,1,,,42,65
81936,note_on,,24,0,7,,,,,,,,,6,,,42,62
81936,note_on,,48,0,3,,,,,,,,,2,,,73,0
81936,note_on,,4,0,1,,,,,,,,,0,,,75,66
81948,note_on,,12,0,1,,,,,,,,,0,,,75,0
81949,note_on,,13,0,4,,,,,,,,,3,,,81,0
81952,note_on,,3,0,4,,,,,,,,,3,,,83,71
81952,note_on,,4,0,1,,,,,,,,,0,,,76,85
81955,note_on,,19,0,2,,,,,,,,,1,,,42,0
81960,note_on,,24,0,7,,,,,,,,,6,,,42,0
81964,note_on,,12,0,1,,,,,,,,,0,,,76,0
81965,note_on,,13,0,4,,,,,,,,,3,,,83,0
81968,note_on,,4,0,1,,,,,,,,,0,,,78,66
81968,note_on,,3,0,4,,,,,,,,,3,,,84,85
81980,note_on,,12,0,1,,,,,,,,,0,,,78,0
81981,note_on,,13,0,4,,,,,,,,,3,,,84,0
81984,note_on,,4,0,1,,,,,,,,,0,,,71,85
81984,note_on,,24,0,7,,,,,,,,,6,,,43,85
81984,note_on,,29,0,2,,,,,,,,,1,,,43,85
81984,note_on,,3,0,4,,,,,,,,,3,,,75,69
81996,note_on,,12,0,1,,,,,,,,,0,,,71,0
82000,note_on,,64,0,3,,,,,,,,,2,,,71,60
82000,note_on,,4,0,1,,,,,,,,,0,,,76,69
82003,note_on,,19,0,2,,,,,,,,,1,,,43,0
82008,note_on,,8,0,3,,,,,,,,,2,,,72,0
82008,note_on,,24,0,7,,,,,,,,,6,,,43,0
82012,note_on,,12,0,1,,,,,,,,,0,,,76,0
82016,note_on,,8,0,3,,,,,,,,,2,,,71,0
82016,note_on,,0,0,3,,,,,,,,,2,,,69,76
82016,note_on,,4,0,1,,,,,,,,,0,,,78,52
82023,note_on,,39,0,4,,,,,,,,,3,,,75,0
82028,note_on,,12,0,1,,,,,,,,,0,,,78,0
82032,note_on,,9,0,4,,,,,,,,,3,,,76,85
82032,note_on,,16,0,3,,,,,,,,,2,,,69,0
82032,note_on,,0,0,3,,,,,,,,,2,,,67,80
82032,note_on,,4,0,1,,,,,,,,,0,,,79,85
82044,note_on,,12,0,1,,,,,,,,,0,,,79,0
82048,note_on,,16,0,3,,,,,,,,,2,,,67,0
82048,note_on,,4,0,1,,,,,,,,,0,,,81,85
82048,note_on,,0,0,3,,,,,,,,,2,,,66,63
82060,note_on,,12,0,1,,,,,,,,,0,,,81,0
82064,note_on,,16,0,3,,,,,,,,,2,,,66,0
82064,note_on,,4,0,1,,,,,,,,,0,,,83,77
82064,note_on,,0,0,3,,,,,,,,,2,,,64,71
82076,note_on,,12,0,1,,,,,,,,,0,,,83,0
82080,note_on,,77,0,2,,,,,,,,,1,,,45,85
82080,note_on,,72,0,7,,,,,,,,,6,,,45,85
82080,note_on,,16,0,3,,,,,,,,,2,,,64,0
82080,note_on,,4,0,1,,,,,,,,,0,,,84,85
82080,note_on,,0,0,3,,,,,,,,,2,,,66,74
82090,note_on,,58,0,4,,,,,,,,,3,,,76,0
82092,note_on,,12,0,1,,,,,,,,,0,,,84,0
82096,note_on,,4,0,1,,,,,,,,,0,,,75,61
82096,note_on,,6,0,4,,,,,,,,,3,,,78,59
82099,note_on,,19,0,2,,,,,,,,,1,,,45,0
82104,note_on,,24,0,7,,,,,,,,,6,,,45,0
82108,note_on,,12,0,1,,,,,,,,,0,,,75,0
82109,note_on,,13,0,4,,,,,,,,,3,,,78,0
82112,note_on,,4,0,1,,,,,,,,,0,,,76,85
82112,note_on,,3,0,4,,,,,,,,,3,,,76,85
82124,note_on,,12,0,1,,,,,,,,,0,,,76,0
82125,note_on,,13,0,4,,,,,,,,,3,,,76,0
82128,note_on,,24,0,7,,,,,,,,,6,,,47,85
82128,note_on,,3,0,4,,,,,,,,,3,,,75,66
82128,note_on,,4,0,1,,,,,,,,,0,,,71,72
82128,note_on,,29,0,2,,,,,,,,,1,,,47,85
82140,note_on,,12,0,1,,,,,,,,,0,,,71,0
82141,note_on,,13,0,4,,,,,,,,,3,,,75,0
82144,note_on,,4,0,1,,,,,,,,,0,,,76,85
82144,note_on,,3,0,4,,,,,,,,,3,,,73,55
82147,note_on,,19,0,2,,,,,,,,,1,,,47,0
82152,note_on,,24,0,7,,,,,,,,,6,,,47,0
82156,note_on,,12,0,1,,,,,,,,,0,,,76,0
82157,note_on,,13,0,4,,,,,,,,,3,,,73,0
82160,note_on,,4,0,1,,,,,,,,,0,,,75,60
82160,note_on,,3,0,4,,,,,,,,,3,,,71,85
82172,note_on,,12,0,1,,,,,,,,,0,,,75,0
82173,note_on,,13,0,4,,,,,,,,,3,,,71,0
82176,note_on,,4,0,1,,,,,,,,,0,,,76,85
82176,note_on,,24,0,7,,,,,,,,,6,,,40,64
82176,note_on,,29,0,2,,,,,,,,,1,,,40,85
82176,note_on,,3,0,4,,,,,,,,,3,,,79,85
82176,note_on,,0,0,3,,,,,,,,,2,,,66,59
82176,note_on,,96,0,3,,,,,,,,,2,,,66,0
82188,note_on,,12,0,1,,,,,,,,,0,,,76,0
82189,note_on,,13,0,2,,,,,,,,,1,,,40,0
82192,note_on,,16,0,3,,,,,,,,,2,,,66,0
82192,note_on,,0,0,3,,,,,,,,,2,,,64,62
82192,note_on,,4,0,1,,,,,,,,,0,,,71,85
82200,note_on,,24,0,7,,,,,,,,,6,,,40,0
82204,note_on,,12,0,1,,,,,,,,,0,,,71,0
82208,note_on,,16,0,3,,,,,,,,,2,,,64,0
82208,note_on,,0,0,3,,,,,,,,,2,,,66,56
82208,note_on,,4,0,1,,,,,,,,,0,,,69,76
82220,note_on,,12,0,1,,,,,,,,,0,,,69,0
82224,note_on,,4,0,1,,,,,,,,,0,,,67,85
82224,note_on,,0,0,3,,,,,,,,,2,,,67,56
82224,note_on,,16,0,3,,,,,,,,,2,,,66,0
82236,note_on,,12,0,1,,,,,,,,,0,,,67,0
82240,note_on,,4,0,1,,,,,,,,,0,,,66,64
82240,note_on,,0,0,3,,,,,,,,,2,,,69,69
82240,note_on,,16,0,3,,,,,,,,,2,,,67,0
82252,note_on,,12,0,1,,,,,,,,,0,,,66,0
82254,note_on,,78,0,4,,,,,,,,,3,,,79,0
82256,note_on,,4,0,1,,,,,,,,,0,,,67,85
82256,note_on,,0,0,3,,,,,,,,,2,,,71,80
82256,note_on,,16,0,3,,,,,,,,,2,,,69,0
82268,note_on,,12,0,1,,,,,,,,,0,,,67,0
82272,note_on,,0,0,3,,,,,,,,,2,,,72,88
82272,note_on,,83,0,2,,,,,,,,,1,,,45,85
82272,note_on,,16,0,3,,,,,,,,,2,,,71,0
82272,note_on,,18,0,4,,,,,,,,,3,,,79,70
82272,note_on,,72,0,7,,,,,,,,,6,,,45,85
82272,note_on,,4,0,1,,,,,,,,,0,,,64,85
82284,note_on,,12,0,1,,,,,,,,,0,,,64,0
82285,note_on,,13,0,4,,,,,,,,,3,,,79,0
82288,note_on,,3,0,4,,,,,,,,,3,,,66,56
82288,note_on,,4,0,1,,,,,,,,,0,,,69,85
82291,note_on,,19,0,2,,,,,,,,,1,,,45,0
82296,note_on,,24,0,7,,,,,,,,,6,,,45,0
82300,note_on,,12,0,1,,,,,,,,,0,,,69,0
82301,note_on,,13,0,4,,,,,,,,,3,,,66,0
82304,note_on,,4,0,1,,,,,,,,,0,,,67,85
82304,note_on,,3,0,4,,,,,,,,,3,,,67,85
82316,note_on,,12,0,1,,,,,,,,,0,,,67,0
82317,note_on,,13,0,4,,,,,,,,,3,,,67,0
82320,note_on,,3,0,4,,,,,,,,,3,,,69,85
82320,note_on,,24,0,7,,,,,,,,,6,,,50,85
82320,note_on,,4,0,1,,,,,,,,,0,,,66,62
82320,note_on,,29,0,2,,,,,,,,,1,,,50,72
82332,note_on,,12,0,1,,,,,,,,,0,,,66,0
82333,note_on,,13,0,4,,,,,,,,,3,,,69,0
82336,note_on,,3,0,4,,,,,,,,,3,,,71,85
82336,note_on,,4,0,1,,,,,,,,,0,,,67,67
82339,note_on,,19,0,2,,,,,,,,,1,,,50,0
82344,note_on,,24,0,7,,,,,,,,,6,,,50,0
82348,note_on,,12,0,1,,,,,,,,,0,,,67,0
82349,note_on,,13,0,4,,,,,,,,,3,,,71,0
82352,note_on,,4,0,1,,,,,,,,,0,,,69,71
82352,note_on,,3,0,4,,,,,,,,,3,,,72,85
82364,note_on,,12,0,1,,,,,,,,,0,,,69,0
82365,note_on,,13,0,4,,,,,,,,,3,,,72,0
82368,note_on,,4,0,1,,,,,,,,,0,,,62,85
82368,note_on,,29,0,2,,,,,,,,,1,,,47,78
82368,note_on,,3,0,4,,,,,,,,,3,,,74,65
82368,note_on,,24,0,7,,,,,,,,,6,,,47,85
82368,note_on,,96,0,3,,,,,,,,,2,,,72,0
82368,note_on,,0,0,3,,,,,,,,,2,,,72,78
82380,note_on,,12,0,1,,,,,,,,,0,,,62,0
82384,note_on,,4,0,1,,,,,,,,,0,,,67,85
82384,note_on,,16,0,3,,,,,,,,,2,,,72,0
82384,note_on,,0,0,3,,,,,,,,,2,,,71,74
82387,note_on,,19,0,2,,,,,,,,,1,,,47,0
82392,note_on,,24,0,7,,,,,,,,,6,,,47,0
82396,note_on,,12,0,1,,,,,,,,,0,,,67,0
82400,note_on,,4,0,1,,,,,,,,,0,,,69,79
82400,note_on,,0,0,3,,,,,,,,,2,,,72,81
82400,note_on,,16,0,3,,,,,,,,,2,,,71,0
82412,note_on,,12,0,1,,,,,,,,,0,,,69,0
82416,note_on,,16,0,3,,,,,,,,,2,,,72,0
82416,note_on,,0,0,3,,,,,,,,,2,,,74,78
82416,note_on,,24,0,7,,,,,,,,,6,,,43,85
82416,note_on,,4,0,1,,,,,,,,,0,,,71,71
82416,note_on,,29,0,2,,,,,,,,,1,,,43,77
82428,note_on,,12,0,1,,,,,,,,,0,,,71,0
82432,note_on,,16,0,3,,,,,,,,,2,,,74,0
82432,note_on,,0,0,3,,,,,,,,,2,,,76,87
82432,note_on,,4,0,1,,,,,,,,,0,,,72,70
82435,note_on,,19,0,2,,,,,,,,,1,,,43,0
82440,note_on,,24,0,7,,,,,,,,,6,,,43,0
82444,note_on,,12,0,1,,,,,,,,,0,,,72,0
82446,note_on,,78,0,4,,,,,,,,,3,,,74,0
82448,note_on,,4,0,1,,,,,,,,,0,,,69,71
82448,note_on,,16,0,3,,,,,,,,,2,,,76,0
82448,note_on,,0,0,3,,,,,,,,,2,,,78,65
82460,note_on,,12,0,1,,,,,,,,,0,,,69,0
82464,note_on,,0,0,2,,,,,,,,,1,,,40,78
82464,note_on,,29,0,2,,,,,,,,,1,,,40,69
82464,note_on,,4,0,1,,,,,,,,,0,,,67,79
82464,note_on,,0,0,3,,,,,,,,,2,,,79,88
82464,note_on,,18,0,4,,,,,,,,,3,,,74,85
82464,note_on,,24,0,7,,,,,,,,,6,,,40,79
82464,note_on,,16,0,3,,,,,,,,,2,,,78,0
82476,note_on,,12,0,1,,,,,,,,,0,,,67,0
82477,note_on,,13,0,4,,,,,,,,,3,,,74,0
82477,note_on,,13,0,2,,,,,,,,,1,,,40,0
82480,note_on,,3,0,4,,,,,,,,,3,,,72,66
82480,note_on,,4,0,1,,,,,,,,,0,,,69,81
82480,note_on,,3,0,2,,,,,,,,,1,,,42,70
82488,note_on,,24,0,7,,,,,,,,,6,,,40,0
82492,note_on,,12,0,1,,,,,,,,,0,,,69,0
82493,note_on,,13,0,4,,,,,,,,,3,,,72,0
82493,note_on,,13,0,2,,,,,,,,,1,,,42,0
82496,note_on,,3,0,4,,,,,,,,,3,,,71,85
82496,note_on,,4,0,1,,,,,,,,,0,,,71,85
82496,note_on,,3,0,2,,,,,,,,,1,,,43,85
82508,note_on,,12,0,1,,,,,,,,,0,,,71,0
82509,note_on,,13,0,2,,,,,,,,,1,,,43,0
82509,note_on,,13,0,4,,,,,,,,,3,,,71,0
82512,note_on,,3,0,4,,,,,,,,,3,,,72,85
82512,note_on,,24,0,7,,,,,,,,,6,,,45,85
82512,note_on,,4,0,1,,,,,,,,,0,,,64,85
82512,note_on,,3,0,2,,,,,,,,,1,,,45,85
82525,note_on,,13,0,2,,,,,,,,,1,,,45,0
82527,note_on,,2,0,2,,,,,,,,,1,,,40,0
82528,note_on,,1,0,2,,,,,,,,,1,,,47,85
82528,note_on,,64,0,3,,,,,,,,,2,,,81,56
82536,note_on,,8,0,3,,,,,,,,,2,,,79,0
82536,note_on,,24,0,7,,,,,,,,,6,,,45,0
82539,note_on,,27,0,1,,,,,,,,,0,,,64,0
82541,note_on,,13,0,2,,,,,,,,,1,,,47,0
82544,note_on,,0,0,3,,,,,,,,,2,,,79,80
82544,note_on,,3,0,2,,,,,,,,,1,,,48,85
82544,note_on,,8,0,3,,,,,,,,,2,,,81,0
82548,note_on,,9,0,1,,,,,,,,,0,,,76,55
82557,note_on,,9,0,1,,,,,,,,,0,,,76,0
82557,note_on,,13,0,2,,,,,,,,,1,,,48,0
82560,note_on,,16,0,3,,,,,,,,,2,,,79,0
82560,note_on,,0,0,3,,,,,,,,,2,,,78,56
82560,note_on,,3,0,1,,,,,,,,,0,,,81,72
82560,note_on,,24,0,7,,,,,,,,,6,,,38,56
82560,note_on,,3,0,2,,,,,,,,,1,,,38,85
82570,note_on,,58,0,4,,,,,,,,,3,,,72,0
82572,note_on,,12,0,1,,,,,,,,,0,,,81,0
82576,note_on,,4,0,1,,,,,,,,,0,,,74,85
82576,note_on,,6,0,4,,,,,,,,,3,,,71,85
82579,note_on,,19,0,2,,,,,,,,,1,,,38,0
82584,note_on,,24,0,7,,,,,,,,,6,,,38,0
82588,note_on,,12,0,1,,,,,,,,,0,,,74,0
82589,note_on,,13,0,4,,,,,,,,,3,,,71,0
82592,note_on,,3,0,4,,,,,,,,,3,,,69,82
82592,note_on,,4,0,1,,,,,,,,,0,,,72,62
82604,note_on,,12,0,1,,,,,,,,,0,,,72,0
82605,note_on,,13,0,4,,,,,,,,,3,,,69,0
82608,note_on,,24,0,7,,,,,,,,,6,,,43,85
82608,note_on,,29,0,2,,,,,,,,,1,,,43,85
82608,note_on,,0,0,3,,,,,,,,,2,,,79,88
82608,note_on,,48,0,3,,,,,,,,,2,,,78,0
82608,note_on,,4,0,1,,,,,,,,,0,,,71,76
82608,note_on,,3,0,4,,,,,,,,,3,,,71,64
82620,note_on,,12,0,1,,,,,,,,,0,,,71,0
82621,note_on,,13,0,4,,,,,,,,,3,,,71,0
82624,note_on,,3,0,4,,,,,,,,,3,,,72,79
82624,note_on,,4,0,1,,,,,,,,,0,,,69,85
82627,note_on,,19,0,2,,,,,,,,,1,,,43,0
82632,note_on,,24,0,7,,,,,,,,,6,,,43,0
82636,note_on,,12,0,1,,,,,,,,,0,,,69,0
82637,note_on,,13,0,4,,,,,,,,,3,,,72,0
82640,note_on,,3,0,4,,,,,,,,,3,,,71,85
82640,note_on,,4,0,1,,,,,,,,,0,,,67,85
82652,note_on,,12,0,1,,,,,,,,,0,,,67,0
82653,note_on,,13,0,4,,,,,,,,,3,,,71,0
82656,note_on,,3,0,4,,,,,,,,,3,,,69,85
82656,note_on,,24,0,7,,,,,,,,,6,,,50,85
82656,note_on,,29,0,2,,,,,,,,,1,,,50,85
82656,note_on,,4,0,1,,,,,,,,,0,,,69,85
82672,note_on,,64,0,3,,,,,,,,,2,,,78,57
82675,note_on,,19,0,2,,,,,,,,,1,,,50,0
82680,note_on,,8,0,3,,,,,,,,,2,,,79,0
82680,note_on,,24,0,7,,,,,,,,,6,,,50,0
82688,note_on,,0,0,3,,,,,,,,,2,,,76,80
82688,note_on,,8,0,3,,,,,,,,,2,,,78,0
82692,note_on,,36,0,1,,,,,,,,,0,,,69,0
82695,note_on,,39,0,4,,,,,,,,,3,,,69,0
82704,note_on,,9,0,4,,,,,,,,,3,,,81,85
82704,note_on,,29,0,2,,,,,,,,,1,,,48,85
82704,note_on,,24,0,7,,,,,,,,,6,,,48,85
82704,note_on,,12,0,1,,,,,,,,,0,,,69,85
82704,note_on,,16,0,3,,,,,,,,,2,,,76,0
82704,note_on,,0,0,3,,,,,,,,,2,,,78,57
82710,note_on,,6,0,1,,,,,,,,,0,,,69,0
82712,note_on,,2,0,1,,,,,,,,,0,,,67,78
82718,note_on,,6,0,1,,,,,,,,,0,,,67,0
82720,note_on,,2,0,1,,,,,,,,,0,,,66,60
82720,note_on,,0,0,3,,,,,,,,,2,,,79,56
82720,note_on,,16,0,3,,,,,,,,,2,,,78,0
82723,note_on,,19,0,2,,,,,,,,,1,,,48,0
82726,note_on,,6,0,1,,,,,,,,,0,,,66,0
82728,note_on,,24,0,7,,,,,,,,,6,,,48,0
82728,note_on,,2,0,1,,,,,,,,,0,,,64,78
82734,note_on,,6,0,1,,,,,,,,,0,,,64,0
82736,note_on,,16,0,3,,,,,,,,,2,,,79,0
82736,note_on,,0,0,3,,,,,,,,,2,,,76,88
82736,note_on,,2,0,1,,,,,,,,,0,,,63,33
82742,note_on,,6,0,1,,,,,,,,,0,,,63,0
82744,note_on,,2,0,1,,,,,,,,,0,,,64,85
82750,note_on,,6,0,1,,,,,,,,,0,,,64,0
82752,note_on,,2,0,1,,,,,,,,,0,,,66,49
82752,note_on,,29,0,2,,,,,,,,,1,,,47,85
82752,note_on,,24,0,7,,,,,,,,,6,,,47,85
82752,note_on,,16,0,3,,,,,,,,,2,,,76,0
82752,note_on,,0,0,3,,,,,,,,,2,,,75,69
82762,note_on,,58,0,4,,,,,,,,,3,,,81,0
82764,note_on,,12,0,1,,,,,,,,,0,,,66,0
82768,note_on,,4,0,1,,,,,,,,,0,,,71,81
82768,note_on,,6,0,4,,,,,,,,,3,,,79,81
82780,note_on,,12,0,1,,,,,,,,,0,,,71,0
82781,note_on,,13,0,4,,,,,,,,,3,,,79,0
82784,note_on,,4,0,1,,,,,,,,,0,,,69,85
82784,note_on,,3,0,4,,,,,,,,,3,,,78,46
82796,note_on,,12,0,1,,,,,,,,,0,,,69,0
82797,note_on,,13,0,4,,,,,,,,,3,,,78,0
82800,note_on,,3,0,4,,,,,,,,,3,,,79,85
82800,note_on,,4,0,1,,,,,,,,,0,,,67,85
82800,note_on,,0,0,3,,,,,,,,,2,,,76,78
82800,note_on,,48,0,3,,,,,,,,,2,,,75,0
82812,note_on,,12,0,1,,,,,,,,,0,,,67,0
82813,note_on,,13,0,4,,,,,,,,,3,,,79,0
82816,note_on,,4,0,1,,,,,,,,,0,,,66,66
82816,note_on,,3,0,4,,,,,,,,,3,,,81,79
82828,note_on,,12,0,1,,,,,,,,,0,,,66,0
82829,note_on,,13,0,4,,,,,,,,,3,,,81,0
82832,note_on,,4,0,1,,,,,,,,,0,,,64,62
82832,note_on,,3,0,4,,,,,,,,,3,,,79,76
82844,note_on,,12,0,1,,,,,,,,,0,,,64,0
82845,note_on,,13,0,4,,,,,,,,,3,,,79,0
82848,note_on,,4,0,1,,,,,,,,,0,,,66,59
82848,note_on,,96,0,2,,,,,,,,,1,,,47,0
82848,note_on,,0,0,2,,,,,,,,,1,,,47,85
82848,note_on,,3,0,4,,,,,,,,,3,,,78,62
82860,note_on,,12,0,1,,,,,,,,,0,,,66,0
82864,note_on,,4,0,1,,,,,,,,,0,,,71,65
82864,note_on,,64,0,3,,,,,,,,,2,,,75,56
82872,note_on,,8,0,3,,,,,,,,,2,,,76,0
82876,note_on,,12,0,1,,,,,,,,,0,,,71,0
82877,note_on,,29,0,2,,,,,,,,,1,,,47,0
82880,note_on,,4,0,1,,,,,,,,,0,,,70,54
82880,note_on,,8,0,3,,,,,,,,,2,,,75,0
82880,note_on,,0,0,3,,,,,,,,,2,,,73,56
82884,note_on,,7,0,2,,,,,,,,,1,,,54,66
82884,note_on,,132,0,7,,,,,,,,,6,,,54,62
82892,note_on,,12,0,1,,,,,,,,,0,,,70,0
82894,note_on,,10,0,2,,,,,,,,,1,,,54,0
82896,note_on,,0,0,7,,,,,,,,,6,,,59,85
82896,note_on,,2,0,2,,,,,,,,,1,,,59,67
82896,note_on,,12,0,7,,,,,,,,,6,,,54,0
82896,note_on,,0,0,7,,,,,,,,,6,,,47,0
82896,note_on,,16,0,3,,,,,,,,,2,,,73,0
82896,note_on,,0,0,3,,,,,,,,,2,,,75,63
82896,note_on,,4,0,1,,,,,,,,,0,,,71,56
82908,note_on,,12,0,1,,,,,,,,,0,,,71,0
82912,note_on,,16,0,3,,,,,,,,,2,,,75,0
82912,note_on,,0,0,3,,,,,,,,,2,,,76,88
82912,note_on,,4,0,1,,,,,,,,,0,,,78,43
82924,note_on,,12,0,1,,,,,,,,,0,,,78,0
82925,note_on,,29,0,2,,,,,,,,,1,,,59,0
82926,note_on,,78,0,4,,,,,,,,,3,,,78,0
82928,note_on,,16,0,3,,,,,,,,,2,,,76,0
82928,note_on,,0,0,3,,,,,,,,,2,,,73,57
82928,note_on,,4,0,1,,,,,,,,,0,,,69,78
82932,note_on,,0,0,7,,,,,,,,,6,,,54,56
82932,note_on,,36,0,7,,,,,,,,,6,,,59,0
82932,note_on,,7,0,2,,,,,,,,,1,,,54,59
82940,note_on,,12,0,1,,,,,,,,,0,,,69,0
82942,note_on,,10,0,2,,,,,,,,,1,,,54,0
82944,note_on,,4,0,1,,,,,,,,,0,,,71,85
82944,note_on,,0,0,3,,,,,,,,,2,,,71,88
82944,note_on,,16,0,3,,,,,,,,,2,,,73,0
82944,note_on,,18,0,4,,,,,,,,,3,,,78,61
82944,note_on,,12,0,7,,,,,,,,,6,,,54,0
82944,note_on,,0,0,7,,,,,,,,,6,,,55,79
82944,note_on,,2,0,2,,,,,,,,,1,,,55,85
82957,note_on,,13,0,4,,,,,,,,,3,,,78,0
82960,note_on,,3,0,4,,,,,,,,,3,,,76,72
82962,note_on,,18,0,1,,,,,,,,,0,,,71,0
82973,note_on,,13,0,4,,,,,,,,,3,,,76,0
82973,note_on,,29,0,2,,,,,,,,,1,,,55,0
82976,note_on,,3,0,4,,,,,,,,,3,,,74,77
82980,note_on,,0,0,7,,,,,,,,,6,,,54,56
82980,note_on,,36,0,7,,,,,,,,,6,,,55,0
82980,note_on,,7,0,2,,,,,,,,,1,,,54,62
82989,note_on,,13,0,4,,,,,,,,,3,,,74,0
82992,note_on,,0,0,7,,,,,,,,,6,,,55,85
82992,note_on,,12,0,7,,,,,,,,,6,,,54,0
82992,note_on,,3,0,4,,,,,,,,,3,,,76,77
82992,note_on,,0,0,2,,,,,,,,,1,,,55,85
82992,note_on,,12,0,2,,,,,,,,,1,,,54,0
83008,note_on,,64,0,3,,,,,,,,,2,,,73,69
83016,note_on,,8,0,3,,,,,,,,,2,,,71,0
83021,note_on,,29,0,2,,,,,,,,,1,,,55,0
83024,note_on,,0,0,3,,,,,,,,,2,,,71,88
83024,note_on,,8,0,3,,,,,,,,,2,,,73,0
83028,note_on,,7,0,2,,,,,,,,,1,,,52,85
83028,note_on,,36,0,7,,,,,,,,,6,,,55,0
83028,note_on,,0,0,7,,,,,,,,,6,,,52,85
83038,note_on,,10,0,2,,,,,,,,,1,,,52,0
83040,note_on,,2,0,2,,,,,,,,,1,,,42,71
83040,note_on,,0,0,2,,,,,,,,,1,,,54,67
83040,note_on,,12,0,7,,,,,,,,,6,,,52,0
83040,note_on,,1752,0,8,,,,,,,,,7,,,30,70
83040,note_on,,0,0,3,,,,,,,,,2,,,70,56
83040,note_on,,16,0,3,,,,,,,,,2,,,71,0
83040,note_on,,0,0,7,,,,,,,,,6,,,54,85
83050,note_on,,58,0,4,,,,,,,,,3,,,76,0
83056,note_on,,0,0,3,,,,,,,,,2,,,68,67
83056,note_on,,16,0,3,,,,,,,,,2,,,70,0
83056,note_on,,6,0,4,,,,,,,,,3,,,78,52
83069,note_on,,13,0,4,,,,,,,,,3,,,78,0
83072,note_on,,3,0,4,,,,,,,,,3,,,76,77
83072,note_on,,0,0,3,,,,,,,,,2,,,70,56
83072,note_on,,16,0,3,,,,,,,,,2,,,68,0
83076,note_on,,114,0,1,,,,,,,,,0,,,73,53
83085,note_on,,9,0,1,,,,,,,,,0,,,73,0
83085,note_on,,13,0,4,,,,,,,,,3,,,76,0
83088,note_on,,16,0,3,,,,,,,,,2,,,70,0
83088,note_on,,3,0,4,,,,,,,,,3,,,74,57
83088,note_on,,0,0,3,,,,,,,,,2,,,71,66
83088,note_on,,3,0,1,,,,,,,,,0,,,77,36
83100,note_on,,12,0,1,,,,,,,,,0,,,77,0
83101,note_on,,13,0,4,,,,,,,,,3,,,74,0
83104,note_on,,0,0,3,,,,,,,,,2,,,73,69
83104,note_on,,16,0,3,,,,,,,,,2,,,71,0
83104,note_on,,3,0,4,,,,,,,,,3,,,73,49
83104,note_on,,4,0,1,,,,,,,,,0,,,70,59
83116,note_on,,12,0,1,,,,,,,,,0,,,70,0
83117,note_on,,13,0,4,,,,,,,,,3,,,73,0
83120,note_on,,3,0,4,,,,,,,,,3,,,71,85
83120,note_on,,16,0,3,,,,,,,,,2,,,73,0
83120,note_on,,4,0,1,,,,,,,,,0,,,71,62
83120,note_on,,0,0,3,,,,,,,,,2,,,74,88
83132,note_on,,12,0,1,,,,,,,,,0,,,71,0
83133,note_on,,13,0,4,,,,,,,,,3,,,71,0
83136,note_on,,0,0,3,,,,,,,,,2,,,76,78
83136,note_on,,16,0,3,,,,,,,,,2,,,74,0
83136,note_on,,4,0,1,,,,,,,,,0,,,73,62
83136,note_on,,3,0,4,,,,,,,,,3,,,70,64
83149,note_on,,13,0,4,,,,,,,,,3,,,70,0
83152,note_on,,3,0,4,,,,,,,,,3,,,68,59
83152,note_on,,16,0,3,,,,,,,,,2,,,76,0
83152,note_on,,0,0,3,,,,,,,,,2,,,78,60
83163,note_on,,27,0,1,,,,,,,,,0,,,73,0
83165,note_on,,13,0,4,,,,,,,,,3,,,68,0
83168,note_on,,0,0,3,,,,,,,,,2,,,76,59
83168,note_on,,16,0,3,,,,,,,,,2,,,78,0
83168,note_on,,3,0,4,,,,,,,,,3,,,70,57
83172,note_on,,9,0,1,,,,,,,,,0,,,66,52
83181,note_on,,13,0,4,,,,,,,,,3,,,70,0
83181,note_on,,9,0,1,,,,,,,,,0,,,66,0
83184,note_on,,3,0,4,,,,,,,,,3,,,71,82
83184,note_on,,3,0,1,,,,,,,,,0,,,71,85
83184,note_on,,0,0,3,,,,,,,,,2,,,74,88
83184,note_on,,16,0,3,,,,,,,,,2,,,76,0
83196,note_on,,12,0,1,,,,,,,,,0,,,71,0
83197,note_on,,13,0,4,,,,,,,,,3,,,71,0
83200,note_on,,3,0,4,,,,,,,,,3,,,73,55
83200,note_on,,4,0,1,,,,,,,,,0,,,68,62
83200,note_on,,0,0,3,,,,,,,,,2,,,73,56
83200,note_on,,16,0,3,,,,,,,,,2,,,74,0
83212,note_on,,12,0,1,,,,,,,,,0,,,68,0
83213,note_on,,13,0,4,,,,,,,,,3,,,73,0
83216,note_on,,16,0,3,,,,,,,,,2,,,73,0
83216,note_on,,4,0,1,,,,,,,,,0,,,65,85
83216,note_on,,0,0,3,,,,,,,,,2,,,71,88
83216,note_on,,3,0,4,,,,,,,,,3,,,74,68
83228,note_on,,12,0,1,,,,,,,,,0,,,65,0
83229,note_on,,13,0,4,,,,,,,,,3,,,74,0
83232,note_on,,4,0,1,,,,,,,,,0,,,66,54
83232,note_on,,16,0,3,,,,,,,,,2,,,71,0
83232,note_on,,192,0,7,,,,,,,,,6,,,54,0
83232,note_on,,0,0,7,,,,,,,,,6,,,54,85
83232,note_on,,3,0,4,,,,,,,,,3,,,76,76
83232,note_on,,0,0,3,,,,,,,,,2,,,70,57
83245,note_on,,13,0,4,,,,,,,,,3,,,76,0
83248,note_on,,16,0,3,,,,,,,,,2,,,70,0
83248,note_on,,0,0,3,,,,,,,,,2,,,68,63
83248,note_on,,3,0,4,,,,,,,,,3,,,78,55
83259,note_on,,27,0,1,,,,,,,,,0,,,66,0
83261,note_on,,13,0,4,,,,,,,,,3,,,78,0
83264,note_on,,3,0,4,,,,,,,,,3,,,76,85
83264,note_on,,0,0,3,,,,,,,,,2,,,70,65
83264,note_on,,16,0,3,,,,,,,,,2,,,68,0
83268,note_on,,9,0,1,,,,,,,,,0,,,61,59
83277,note_on,,9,0,1,,,,,,,,,0,,,61,0
83277,note_on,,13,0,4,,,,,,,,,3,,,76,0
83280,note_on,,16,0,3,,,,,,,,,2,,,70,0
83280,note_on,,3,0,4,,,,,,,,,3,,,74,66
83280,note_on,,3,0,1,,,,,,,,,0,,,62,69
83280,note_on,,240,0,2,,,,,,,,,1,,,59,81
83280,note_on,,0,0,3,,,,,,,,,2,,,71,83
83292,note_on,,12,0,1,,,,,,,,,0,,,62,0
83293,note_on,,13,0,4,,,,,,,,,3,,,74,0
83293,note_on,,13,0,2,,,,,,,,,1,,,59,0
83296,note_on,,3,0,2,,,,,,,,,1,,,58,52
83296,note_on,,0,0,3,,,,,,,,,2,,,73,65
83296,note_on,,16,0,3,,,,,,,,,2,,,71,0
83296,note_on,,3,0,4,,,,,,,,,3,,,73,54
83296,note_on,,4,0,1,,,,,,,,,0,,,58,57
83308,note_on,,12,0,1,,,,,,,,,0,,,58,0
83309,note_on,,13,0,2,,,,,,,,,1,,,58,0
83309,note_on,,13,0,4,,,,,,,,,3,,,73,0
83312,note_on,,3,0,2,,,,,,,,,1,,,59,85
83312,note_on,,0,0,3,,,,,,,,,2,,,74,80
83312,note_on,,16,0,3,,,,,,,,,2,,,73,0
83312,note_on,,3,0,4,,,,,,,,,3,,,71,81
83312,note_on,,4,0,1,,,,,,,,,0,,,59,85
83318,note_on,,6,0,2,,,,,,,,,1,,,54,0
83319,note_on,,1,0,2,,,,,,,,,1,,,42,0
83324,note_on,,12,0,1,,,,,,,,,0,,,59,0
83325,note_on,,13,0,4,,,,,,,,,3,,,71,0
83325,note_on,,6,0,2,,,,,,,,,1,,,59,0
83328,note_on,,3,0,4,,,,,,,,,3,,,70,46
83328,note_on,,16,0,3,,,,,,,,,2,,,74,0
83328,note_on,,0,0,3,,,,,,,,,2,,,73,60
83328,note_on,,3,0,2,,,,,,,,,1,,,42,55
83328,note_on,,0,0,2,,,,,,,,,1,,,54,56
83364,note_on,,1648,0,5,,,,,,,,,4,,,73,74
83374,note_on,,10,0,5,,,,,,,,,4,,,73,0
83376,note_on,,2,0,5,,,,,,,,,4,,,78,67
83386,note_on,,58,0,4,,,,,,,,,3,,,70,0
83392,note_on,,64,0,3,,,,,,,,,2,,,74,88
83392,note_on,,6,0,4,,,,,,,,,3,,,71,85
83400,note_on,,8,0,3,,,,,,,,,2,,,73,0
83405,note_on,,13,0,4,,,,,,,,,3,,,71,0
83406,note_on,,30,0,5,,,,,,,,,4,,,78,0
83408,note_on,,3,0,4,,,,,,,,,3,,,73,57
83408,note_on,,8,0,3,,,,,,,,,2,,,74,0
83408,note_on,,0,0,3,,,,,,,,,2,,,76,88
83412,note_on,,6,0,5,,,,,,,,,4,,,73,57
83421,note_on,,13,0,4,,,,,,,,,3,,,73,0
83422,note_on,,10,0,5,,,,,,,,,4,,,73,0
83424,note_on,,16,0,3,,,,,,,,,2,,,76,0
83424,note_on,,0,0,7,,,,,,,,,6,,,54,85
83424,note_on,,0,0,3,,,,,,,,,2,,,74,88
83424,note_on,,2,0,5,,,,,,,,,4,,,74,85
83424,note_on,,3,0,4,,,,,,,,,3,,,71,85
83424,note_on,,192,0,7,,,,,,,,,6,,,54,0
83437,note_on,,13,0,5,,,,,,,,,4,,,74,0
83437,note_on,,13,0,4,,,,,,,,,3,,,71,0
83440,note_on,,3,0,4,,,,,,,,,3,,,73,54
83440,note_on,,3,0,5,,,,,,,,,4,,,73,62
83440,note_on,,16,0,3,,,,,,,,,2,,,74,0
83440,note_on,,0,0,3,,,,,,,,,2,,,76,71
83453,note_on,,13,0,5,,,,,,,,,4,,,73,0
83453,note_on,,13,0,4,,,,,,,,,3,,,73,0
83456,note_on,,16,0,3,,,,,,,,,2,,,76,0
83456,note_on,,0,0,3,,,,,,,,,2,,,78,62
83456,note_on,,3,0,5,,,,,,,,,4,,,71,85
83456,note_on,,3,0,4,,,,,,,,,3,,,74,74
83460,note_on,,1740,0,6,,,,,,,,,5,,,59,85
83469,note_on,,13,0,5,,,,,,,,,4,,,71,0
83469,note_on,,13,0,4,,,,,,,,,3,,,74,0
83472,note_on,,3,0,5,,,,,,,,,4,,,70,61
83472,note_on,,3,0,4,,,,,,,,,3,,,73,59
83472,note_on,,12,0,6,,,,,,,,,5,,,59,0
83472,note_on,,0,0,6,,,,,,,,,5,,,66,85
83472,note_on,,16,0,3,,,,,,,,,2,,,78,0
83472,note_on,,0,0,3,,,,,,,,,2,,,76,88
83482,note_on,,154,0,2,,,,,,,,,1,,,54,0
83482,note_on,,0,0,2,,,,,,,,,1,,,42,0
83485,note_on,,13,0,4,,,,,,,,,3,,,73,0
83485,note_on,,13,0,5,,,,,,,,,4,,,70,0
83488,note_on,,3,0,4,,,,,,,,,3,,,74,85
83488,note_on,,3,0,5,,,,,,,,,4,,,71,85
83496,note_on,,8,0,5,,,,,,,,,4,,,73,57
83501,note_on,,5,0,5,,,,,,,,,4,,,71,0
83501,note_on,,13,0,4,,,,,,,,,3,,,74,0
83504,note_on,,3,0,4,,,,,,,,,3,,,76,65
83508,note_on,,0,0,6,,,,,,,,,5,,,61,85
83508,note_on,,36,0,6,,,,,,,,,5,,,66,0
83509,note_on,,8,0,5,,,,,,,,,4,,,73,0
83517,note_on,,13,0,4,,,,,,,,,3,,,76,0
83520,note_on,,0,0,2,,,,,,,,,1,,,54,52
83520,note_on,,38,0,2,,,,,,,,,1,,,42,59
83520,note_on,,11,0,5,,,,,,,,,4,,,66,68
83520,note_on,,480,0,8,,,,,,,,,7,,,30,0
83520,note_on,,0,0,8,,,,,,,,,7,,,42,85
83520,note_on,,12,0,6,,,,,,,,,5,,,61,0
83520,note_on,,0,0,6,,,,,,,,,5,,,62,85
83520,note_on,,3,0,4,,,,,,,,,3,,,70,64
83536,note_on,,16,0,6,,,,,,,,,5,,,62,0
83536,note_on,,0,0,6,,,,,,,,,5,,,61,85
83544,note_on,,72,0,3,,,,,,,,,2,,,76,0
83549,note_on,,0,0,2,,,,,,,,,1,,,42,0
83549,note_on,,29,0,2,,,,,,,,,1,,,54,0
83549,note_on,,29,0,4,,,,,,,,,3,,,70,0
83552,note_on,,16,0,6,,,,,,,,,5,,,61,0
83552,note_on,,0,0,6,,,,,,,,,5,,,59,85
83556,note_on,,36,0,8,,,,,,,,,7,,,35,85
83556,note_on,,132,0,7,,,,,,,,,6,,,47,85
83556,note_on,,7,0,2,,,,,,,,,1,,,47,85
83556,note_on,,12,0,3,,,,,,,,,2,,,74,88
83556,note_on,,7,0,4,,,,,,,,,3,,,71,81
83566,note_on,,10,0,4,,,,,,,,,3,,,71,0
83566,note_on,,10,0,2,,,,,,,,,1,,,47,0
83568,note_on,,12,0,8,,,,,,,,,7,,,35,0
83568,note_on,,0,0,8,,,,,,,,,7,,,42,0
83568,note_on,,2,0,2,,,,,,,,,1,,,54,54
83568,note_on,,0,0,8,,,,,,,,,7,,,42,56
83568,note_on,,16,0,6,,,,,,,,,5,,,59,0
83568,note_on,,12,0,3,,,,,,,,,2,,,74,0
83568,note_on,,0,0,3,,,,,,,,,2,,,73,60
83568,note_on,,2,0,4,,,,,,,,,3,,,73,55
83568,note_on,,12,0,7,,,,,,,,,6,,,47,0
83568,note_on,,0,0,7,,,,,,,,,6,,,54,0
83568,note_on,,0,0,7,,,,,,,,,6,,,54,56
83568,note_on,,0,0,6,,,,,,,,,5,,,58,85
83580,note_on,,60,0,5,,,,,,,,,4,,,66,0
83581,note_on,,13,0,4,,,,,,,,,3,,,73,0
83584,note_on,,3,0,4,,,,,,,,,3,,,74,76
83584,note_on,,16,0,6,,,,,,,,,5,,,58,0
83584,note_on,,0,0,6,,,,,,,,,5,,,59,85
83597,note_on,,29,0,2,,,,,,,,,1,,,54,0
83597,note_on,,13,0,4,,,,,,,,,3,,,74,0
83600,note_on,,16,0,6,,,,,,,,,5,,,59,0
83600,note_on,,0,0,6,,,,,,,,,5,,,61,85
83600,note_on,,3,0,4,,,,,,,,,3,,,76,77
83604,note_on,,36,0,7,,,,,,,,,6,,,54,0
83604,note_on,,36,0,8,,,,,,,,,7,,,42,0
83604,note_on,,0,0,8,,,,,,,,,7,,,37,70
83604,note_on,,7,0,2,,,,,,,,,1,,,49,66
83604,note_on,,24,0,5,,,,,,,,,4,,,64,85
83604,note_on,,0,0,7,,,,,,,,,6,,,49,70
83613,note_on,,13,0,4,,,,,,,,,3,,,76,0
83614,note_on,,10,0,2,,,,,,,,,1,,,49,0
83614,note_on,,10,0,5,,,,,,,,,4,,,64,0
83616,note_on,,0,0,8,,,,,,,,,7,,,38,72
83616,note_on,,3,0,4,,,,,,,,,3,,,78,66
83616,note_on,,0,0,6,,,,,,,,,5,,,57,85
83616,note_on,,16,0,6,,,,,,,,,5,,,61,0
83616,note_on,,12,0,8,,,,,,,,,7,,,37,0
83616,note_on,,2,0,2,,,,,,,,,1,,,50,72
83616,note_on,,12,0,7,,,,,,,,,6,,,49,0
83616,note_on,,0,0,7,,,,,,,,,6,,,50,72
83616,note_on,,2,0,5,,,,,,,,,4,,,62,85
83629,note_on,,13,0,2,,,,,,,,,1,,,50,0
83629,note_on,,13,0,4,,,,,,,,,3,,,78,0
83632,note_on,,0,0,7,,,,,,,,,6,,,49,60
83632,note_on,,16,0,7,,,,,,,,,6,,,50,0
83632,note_on,,3,0,2,,,,,,,,,1,,,49,59
83632,note_on,,16,0,8,,,,,,,,,7,,,38,0
83632,note_on,,0,0,8,,,,,,,,,7,,,37,60
83632,note_on,,64,0,3,,,,,,,,,2,,,70,56
83632,note_on,,3,0,4,,,,,,,,,3,,,70,57
83640,note_on,,8,0,3,,,,,,,,,2,,,73,0
83645,note_on,,13,0,4,,,,,,,,,3,,,70,0
83645,note_on,,13,0,2,,,,,,,,,1,,,49,0
83646,note_on,,30,0,5,,,,,,,,,4,,,62,0
83648,note_on,,16,0,8,,,,,,,,,7,,,37,0
83648,note_on,,0,0,8,,,,,,,,,7,,,35,85
83648,note_on,,3,0,2,,,,,,,,,1,,,47,85
83648,note_on,,3,0,4,,,,,,,,,3,,,71,85
83648,note_on,,8,0,3,,,,,,,,,2,,,70,0
83648,note_on,,16,0,7,,,,,,,,,6,,,49,0
83648,note_on,,0,0,3,,,,,,,,,2,,,71,78
83648,note_on,,0,0,7,,,,,,,,,6,,,47,85
83652,note_on,,36,0,6,,,,,,,,,5,,,57,0
83652,note_on,,0,0,6,,,,,,,,,5,,,66,85
83652,note_on,,6,0,5,,,,,,,,,4,,,74,85
83661,note_on,,13,0,4,,,,,,,,,3,,,71,0
83661,note_on,,13,0,2,,,,,,,,,1,,,47,0
83662,note_on,,10,0,5,,,,,,,,,4,,,74,0
83664,note_on,,12,0,6,,,,,,,,,5,,,66,0
83664,note_on,,2,0,5,,,,,,,,,4,,,73,59
83664,note_on,,0,0,3,,,,,,,,,2,,,78,56
83664,note_on,,0,0,7,,,,,,,,,6,,,46,70
83664,note_on,,16,0,7,,,,,,,,,6,,,47,0
83664,note_on,,16,0,3,,,,,,,,,2,,,71,0
83664,note_on,,16,0,8,,,,,,,,,7,,,35,0
83664,note_on,,0,0,8,,,,,,,,,7,,,34,70
83664,note_on,,0,0,6,,,,,,,,,5,,,66,85
83664,note_on,,3,0,2,,,,,,,,,1,,,46,61
83664,note_on,,3,0,4,,,,,,,,,3,,,78,47
83677,note_on,,13,0,5,,,,,,,,,4,,,73,0
83677,note_on,,13,0,2,,,,,,,,,1,,,46,0
83680,note_on,,16,0,6,,,,,,,,,5,,,66,0
83680,note_on,,16,0,8,,,,,,,,,7,,,34,0
83680,note_on,,0,0,8,,,,,,,,,7,,,35,85
83680,note_on,,0,0,6,,,,,,,,,5,,,62,85
83680,note_on,,3,0,5,,,,,,,,,4,,,74,85
83680,note_on,,0,0,7,,,,,,,,,6,,,47,85
83680,note_on,,16,0,7,,,,,,,,,6,,,46,0
83680,note_on,,3,0,2,,,,,,,,,1,,,47,85
83693,note_on,,13,0,5,,,,,,,,,4,,,74,0
83693,note_on,,29,0,4,,,,,,,,,3,,,78,0
83693,note_on,,13,0,2,,,,,,,,,1,,,47,0
83696,note_on,,0,0,6,,,,,,,,,5,,,64,85
83696,note_on,,16,0,6,,,,,,,,,5,,,62,0
83696,note_on,,0,0,7,,,,,,,,,6,,,49,66
83696,note_on,,16,0,7,,,,,,,,,6,,,47,0
83696,note_on,,3,0,5,,,,,,,,,4,,,71,85
83696,note_on,,0,0,8,,,,,,,,,7,,,37,66
83696,note_on,,16,0,8,,,,,,,,,7,,,35,0
83696,note_on,,3,0,2,,,,,,,,,1,,,49,59
83700,note_on,,36,0,3,,,,,,,,,2,,,78,0
83700,note_on,,0,0,3,,,,,,,,,2,,,73,56
83700,note_on,,7,0,4,,,,,,,,,3,,,73,67
83709,note_on,,13,0,5,,,,,,,,,4,,,71,0
83709,note_on,,13,0,2,,,,,,,,,1,,,49,0
83710,note_on,,10,0,4,,,,,,,,,3,,,73,0
83712,note_on,,16,0,8,,,,,,,,,7,,,37,0
83712,note_on,,0,0,8,,,,,,,,,7,,,30,56
83712,note_on,,3,0,2,,,,,,,,,1,,,42,46
83712,note_on,,12,0,3,,,,,,,,,2,,,73,0
83712,note_on,,0,0,3,,,,,,,,,2,,,74,83
83712,note_on,,0,0,7,,,,,,,,,6,,,42,56
83712,note_on,,16,0,7,,,,,,,,,6,,,49,0
83712,note_on,,3,0,5,,,,,,,,,4,,,70,62
83712,note_on,,2,0,4,,,,,,,,,3,,,74,85
83712,note_on,,0,0,6,,,,,,,,,5,,,66,85
83712,note_on,,16,0,6,,,,,,,,,5,,,64,0
83725,note_on,,13,0,4,,,,,,,,,3,,,74,0
83728,note_on,,3,0,4,,,,,,,,,3,,,73,50
83728,note_on,,0,0,3,,,,,,,,,2,,,73,65
83728,note_on,,16,0,3,,,,,,,,,2,,,74,0
83728,note_on,,16,0,6,,,,,,,,,5,,,66,0
83728,note_on,,0,0,6,,,,,,,,,5,,,64,85
83741,note_on,,29,0,5,,,,,,,,,4,,,70,0
83741,note_on,,13,0,4,,,,,,,,,3,,,73,0
83744,note_on,,3,0,4,,,,,,,,,3,,,71,79
83744,note_on,,0,0,3,,,,,,,,,2,,,71,88
83744,note_on,,16,0,3,,,,,,,,,2,,,73,0
83744,note_on,,0,0,6,,,,,,,,,5,,,62,85
83744,note_on,,16,0,6,,,,,,,,,5,,,64,0
83748,note_on,,7,0,5,,,,,,,,,4,,,71,85
83757,note_on,,13,0,4,,,,,,,,,3,,,71,0
83758,note_on,,10,0,5,,,,,,,,,4,,,71,0
83760,note_on,,0,0,6,,,,,,,,,5,,,64,85
83760,note_on,,16,0,6,,,,,,,,,5,,,62,0
83760,note_on,,16,0,3,,,,,,,,,2,,,71,0
83760,note_on,,3,0,4,,,,,,,,,3,,,70,59
83760,note_on,,2,0,5,,,,,,,,,4,,,73,62
83760,note_on,,0,0,3,,,,,,,,,2,,,70,70
83770,note_on,,58,0,2,,,,,,,,,1,,,42,0
83773,note_on,,13,0,5,,,,,,,,,4,,,73,0
83773,note_on,,13,0,4,,,,,,,,,3,,,70,0
83776,note_on,,3,0,5,,,,,,,,,4,,,74,77
83776,note_on,,3,0,4,,,,,,,,,3,,,71,85
83776,note_on,,64,0,7,,,,,,,,,6,,,54,62
83776,note_on,,64,0,8,,,,,,,,,7,,,42,62
83776,note_on,,6,0,2,,,,,,,,,1,,,54,62
83776,note_on,,0,0,3,,,,,,,,,2,,,71,88
83776,note_on,,16,0,6,,,,,,,,,5,,,64,0
83776,note_on,,16,0,3,,,,,,,,,2,,,70,0
83776,note_on,,0,0,6,,,,,,,,,5,,,62,85
83784,note_on,,8,0,8,,,,,,,,,7,,,30,0
83784,note_on,,8,0,7,,,,,,,,,6,,,42,0
83789,note_on,,13,0,5,,,,,,,,,4,,,74,0
83789,note_on,,13,0,4,,,,,,,,,3,,,71,0
83789,note_on,,13,0,2,,,,,,,,,1,,,54,0
83792,note_on,,16,0,3,,,,,,,,,2,,,71,0
83792,note_on,,0,0,3,,,,,,,,,2,,,73,70
83792,note_on,,8,0,8,,,,,,,,,7,,,42,0
83792,note_on,,8,0,7,,,,,,,,,6,,,54,0
83792,note_on,,0,0,7,,,,,,,,,6,,,52,85
83792,note_on,,3,0,2,,,,,,,,,1,,,52,85
83792,note_on,,16,0,6,,,,,,,,,5,,,62,0
83792,note_on,,0,0,6,,,,,,,,,5,,,61,85
83792,note_on,,3,0,4,,,,,,,,,3,,,73,68
83792,note_on,,0,0,8,,,,,,,,,7,,,40,85
83792,note_on,,3,0,5,,,,,,,,,4,,,76,65
83805,note_on,,13,0,2,,,,,,,,,1,,,52,0
83805,note_on,,13,0,5,,,,,,,,,4,,,76,0
83805,note_on,,13,0,4,,,,,,,,,3,,,73,0
83808,note_on,,3,0,2,,,,,,,,,1,,,50,85
83808,note_on,,3,0,4,,,,,,,,,3,,,66,55
83808,note_on,,0,0,8,,,,,,,,,7,,,38,85
83808,note_on,,16,0,8,,,,,,,,,7,,,40,0
83808,note_on,,3,0,5,,,,,,,,,4,,,78,72
83808,note_on,,0,0,6,,,,,,,,,5,,,59,85
83808,note_on,,16,0,7,,,,,,,,,6,,,52,0
83808,note_on,,0,0,7,,,,,,,,,6,,,50,85
83808,note_on,,16,0,3,,,,,,,,,2,,,73,0
83808,note_on,,0,0,3,,,,,,,,,2,,,66,57
83808,note_on,,16,0,6,,,,,,,,,5,,,61,0
83821,note_on,,13,0,2,,,,,,,,,1,,,50,0
83824,note_on,,500,0,1,,,,,,,,,0,,,62,62
83824,note_on,,3,0,2,,,,,,,,,1,,,47,54
83827,note_on,,19,0,5,,,,,,,,,4,,,78,0
83832,note_on,,24,0,8,,,,,,,,,7,,,38,0
83832,note_on,,24,0,7,,,,,,,,,6,,,50,0
83832,note_on,,24,0,6,,,,,,,,,5,,,59,0
83836,note_on,,12,0,1,,,,,,,,,0,,,62,0
83837,note_on,,13,0,2,,,,,,,,,1,,,47,0
83840,note_on,,3,0,2,,,,,,,,,1,,,49,52
83840,note_on,,4,0,1,,,,,,,,,0,,,64,52
83852,note_on,,12,0,1,,,,,,,,,0,,,64,0
83853,note_on,,13,0,2,,,,,,,,,1,,,49,0
83856,note_on,,48,0,3,,,,,,,,,2,,,66,0
83856,note_on,,3,0,2,,,,,,,,,1,,,50,85
83856,note_on,,0,0,3,,,,,,,,,2,,,71,88
83856,note_on,,4,0,1,,,,,,,,,0,,,66,61
83868,note_on,,12,0,1,,,,,,,,,0,,,66,0
83869,note_on,,13,0,2,,,,,,,,,1,,,50,0
83872,note_on,,4,0,1,,,,,,,,,0,,,68,62
83872,note_on,,3,0,2,,,,,,,,,1,,,52,85
83884,note_on,,12,0,1,,,,,,,,,0,,,68,0
83885,note_on,,13,0,2,,,,,,,,,1,,,52,0
83886,note_on,,78,0,4,,,,,,,,,3,,,66,0
83888,note_on,,3,0,2,,,,,,,,,1,,,54,62
83888,note_on,,4,0,1,,,,,,,,,0,,,69,81
83900,note_on,,12,0,1,,,,,,,,,0,,,69,0
83901,note_on,,13,0,2,,,,,,,,,1,,,54,0
83904,note_on,,3,0,2,,,,,,,,,1,,,52,85
83904,note_on,,4,0,1,,,,,,,,,0,,,68,36
83904,note_on,,18,0,4,,,,,,,,,3,,,68,62
83916,note_on,,12,0,1,,,,,,,,,0,,,68,0
83917,note_on,,13,0,2,,,,,,,,,1,,,52,0
83920,note_on,,3,0,2,,,,,,,,,1,,,49,52
83920,note_on,,4,0,1,,,,,,,,,0,,,64,85
83932,note_on,,12,0,1,,,,,,,,,0,,,64,0
83933,note_on,,13,0,2,,,,,,,,,1,,,49,0
83936,note_on,,4,0,1,,,,,,,,,0,,,66,43
83936,note_on,,3,0,2,,,,,,,,,1,,,50,85
83948,note_on,,12,0,1,,,,,,,,,0,,,66,0
83949,note_on,,13,0,2,,,,,,,,,1,,,50,0
83952,note_on,,96,0,3,,,,,,,,,2,,,71,0
83952,note_on,,0,0,3,,,,,,,,,2,,,73,62
83952,note_on,,4,0,1,,,,,,,,,0,,,68,47
83952,note_on,,3,0,2,,,,,,,,,1,,,52,85
83964,note_on,,12,0,1,,,,,,,,,0,,,68,0
83965,note_on,,13,0,2,,,,,,,,,1,,,52,0
83968,note_on,,4,0,1,,,,,,,,,0,,,69,85
83968,note_on,,3,0,2,,,,,,,,,1,,,54,59
83980,note_on,,12,0,1,,,,,,,,,0,,,69,0
83981,note_on,,13,0,2,,,,,,,,,1,,,54,0
83982,note_on,,78,0,4,,,,,,,,,3,,,68,0
83984,note_on,,3,0,2,,,,,,,,,1,,,55,85
83984,note_on,,4,0,1,,,,,,,,,0,,,71,74
83996,note_on,,12,0,1,,,,,,,,,0,,,71,0
83997,note_on,,13,0,2,,,,,,,,,1,,,55,0
84000,note_on,,3,0,2,,,,,,,,,1,,,54,69
84000,note_on,,4,0,1,,,,,,,,,0,,,70,54
84000,note_on,,18,0,4,,,,,,,,,3,,,70,62
84012,note_on,,12,0,1,,,,,,,,,0,,,70,0
84013,note_on,,13,0,2,,,,,,,,,1,,,54,0
84016,note_on,,4,0,1,,,,,,,,,0,,,66,47
84016,note_on,,3,0,2,,,,,,,,,1,,,50,85
84028,note_on,,12,0,1,,,,,,,,,0,,,66,0
84029,note_on,,13,0,2,,,,,,,,,1,,,50,0
84032,note_on,,4,0,1,,,,,,,,,0,,,68,67
84032,note_on,,3,0,2,,,,,,,,,1,,,52,85
84044,note_on,,12,0,1,,,,,,,,,0,,,68,0
84045,note_on,,13,0,2,,,,,,,,,1,,,52,0
84048,note_on,,0,0,3,,,,,,,,,2,,,74,88
84048,note_on,,3,0,2,,,,,,,,,1,,,54,65
84048,note_on,,4,0,1,,,,,,,,,0,,,70,52
84048,note_on,,96,0,3,,,,,,,,,2,,,73,0
84060,note_on,,12,0,1,,,,,,,,,0,,,70,0
84061,note_on,,13,0,2,,,,,,,,,1,,,54,0
84064,note_on,,4,0,1,,,,,,,,,0,,,71,74
84064,note_on,,3,0,2,,,,,,,,,1,,,55,85
84076,note_on,,12,0,1,,,,,,,,,0,,,71,0
84077,note_on,,13,0,2,,,,,,,,,1,,,55,0
84078,note_on,,78,0,4,,,,,,,,,3,,,70,0
84080,note_on,,3,0,2,,,,,,,,,1,,,57,85
84080,note_on,,4,0,1,,,,,,,,,0,,,73,53
84092,note_on,,12,0,1,,,,,,,,,0,,,73,0
84093,note_on,,13,0,2,,,,,,,,,1,,,57,0
84096,note_on,,4,0,1,,,,,,,,,0,,,71,66
84096,note_on,,18,0,4,,,,,,,,,3,,,71,70
84096,note_on,,3,0,2,,,,,,,,,1,,,55,85
84108,note_on,,12,0,1,,,,,,,,,0,,,71,0
84109,note_on,,13,0,2,,,,,,,,,1,,,55,0
84112,note_on,,4,0,1,,,,,,,,,0,,,68,37
84112,note_on,,3,0,2,,,,,,,,,1,,,52,85
84124,note_on,,12,0,1,,,,,,,,,0,,,68,0
84125,note_on,,13,0,2,,,,,,,,,1,,,52,0
84128,note_on,,3,0,2,,,,,,,,,1,,,54,49
84128,note_on,,4,0,1,,,,,,,,,0,,,69,57
84140,note_on,,12,0,1,,,,,,,,,0,,,69,0
84141,note_on,,13,0,2,,,,,,,,,1,,,54,0
84144,note_on,,96,0,3,,,,,,,,,2,,,74,0
84144,note_on,,3,0,2,,,,,,,,,1,,,56,72
84144,note_on,,4,0,1,,,,,,,,,0,,,71,66
84144,note_on,,0,0,3,,,,,,,,,2,,,76,80
84156,note_on,,12,0,1,,,,,,,,,0,,,71,0
84157,note_on,,13,0,2,,,,,,,,,1,,,56,0
84160,note_on,,3,0,2,,,,,,,,,1,,,57,85
84160,note_on,,4,0,1,,,,,,,,,0,,,73,57
84172,note_on,,12,0,1,,,,,,,,,0,,,73,0
84173,note_on,,13,0,2,,,,,,,,,1,,,57,0
84174,note_on,,78,0,4,,,,,,,,,3,,,71,0
84176,note_on,,3,0,2,,,,,,,,,1,,,59,85
84176,note_on,,4,0,1,,,,,,,,,0,,,74,74
84188,note_on,,12,0,1,,,,,,,,,0,,,74,0
84189,note_on,,13,0,2,,,,,,,,,1,,,59,0
84192,note_on,,3,0,2,,,,,,,,,1,,,57,85
84192,note_on,,18,0,4,,,,,,,,,3,,,73,65
84192,note_on,,4,0,1,,,,,,,,,0,,,73,52
84204,note_on,,12,0,1,,,,,,,,,0,,,73,0
84205,note_on,,13,0,2,,,,,,,,,1,,,57,0
84208,note_on,,4,0,1,,,,,,,,,0,,,70,46
84208,note_on,,3,0,2,,,,,,,,,1,,,54,70
84220,note_on,,12,0,1,,,,,,,,,0,,,70,0
84221,note_on,,13,0,2,,,,,,,,,1,,,54,0
84224,note_on,,4,0,1,,,,,,,,,0,,,71,77
84224,note_on,,3,0,2,,,,,,,,,1,,,56,70
84228,note_on,,84,0,3,,,,,,,,,2,,,79,88
84236,note_on,,12,0,1,,,,,,,,,0,,,71,0
84237,note_on,,13,0,2,,,,,,,,,1,,,56,0
84240,note_on,,4,0,1,,,,,,,,,0,,,73,52
84240,note_on,,12,0,3,,,,,,,,,2,,,79,0
84240,note_on,,0,0,3,,,,,,,,,2,,,78,69
84240,note_on,,0,0,3,,,,,,,,,2,,,76,0
84240,note_on,,3,0,2,,,,,,,,,1,,,58,66
84252,note_on,,12,0,1,,,,,,,,,0,,,73,0
84253,note_on,,13,0,2,,,,,,,,,1,,,58,0
84256,note_on,,3,0,2,,,,,,,,,1,,,59,85
84256,note_on,,4,0,1,,,,,,,,,0,,,74,52
84268,note_on,,12,0,1,,,,,,,,,0,,,74,0
84269,note_on,,13,0,2,,,,,,,,,1,,,59,0
84270,note_on,,78,0,4,,,,,,,,,3,,,73,0
84272,note_on,,3,0,2,,,,,,,,,1,,,61,47
84272,note_on,,4,0,1,,,,,,,,,0,,,76,65
84276,note_on,,0,0,3,,,,,,,,,2,,,76,88
84276,note_on,,36,0,3,,,,,,,,,2,,,78,0
84284,note_on,,12,0,1,,,,,,,,,0,,,76,0
84285,note_on,,13,0,2,,,,,,,,,1,,,61,0
84288,note_on,,3,0,2,,,,,,,,,1,,,59,85
84288,note_on,,4,0,1,,,,,,,,,0,,,78,46
84288,note_on,,12,0,3,,,,,,,,,2,,,76,0
84288,note_on,,0,0,3,,,,,,,,,2,,,74,88
84288,note_on,,18,0,4,,,,,,,,,3,,,74,85
84300,note_on,,12,0,1,,,,,,,,,0,,,78,0
84304,note_on,,4,0,1,,,,,,,,,0,,,74,79
84316,note_on,,12,0,1,,,,,,,,,0,,,74,0
84317,note_on,,29,0,4,,,,,,,,,3,,,74,0
84317,note_on,,29,0,2,,,,,,,,,1,,,59,0
84320,note_on,,4,0,1,,,,,,,,,0,,,71,56
84324,note_on,,7,0,4,,,,,,,,,3,,,76,85
84324,note_on,,492,0,8,,,,,,,,,7,,,43,85
84324,note_on,,7,0,2,,,,,,,,,1,,,55,85
84324,note_on,,36,0,3,,,,,,,,,2,,,74,0
84324,note_on,,497,0,5,,,,,,,,,4,,,71,85
84324,note_on,,0,0,3,,,,,,,,,2,,,76,88
84324,note_on,,492,0,7,,,,,,,,,6,,,55,85
84324,note_on,,492,0,6,,,,,,,,,5,,,67,85
84332,note_on,,12,0,1,,,,,,,,,0,,,71,0
84334,note_on,,10,0,5,,,,,,,,,4,,,71,0
84334,note_on,,10,0,4,,,,,,,,,3,,,76,0
84334,note_on,,10,0,2,,,,,,,,,1,,,55,0
84336,note_on,,12,0,7,,,,,,,,,6,,,55,0
84336,note_on,,2,0,5,,,,,,,,,4,,,71,85
84336,note_on,,12,0,6,,,,,,,,,5,,,67,0
84336,note_on,,0,0,6,,,,,,,,,5,,,66,85
84336,note_on,,0,0,7,,,,,,,,,6,,,50,85
84336,note_on,,12,0,8,,,,,,,,,7,,,43,0
84336,note_on,,0,0,8,,,,,,,,,7,,,38,85
84336,note_on,,2,0,4,,,,,,,,,3,,,78,62
84336,note_on,,4,0,1,,,,,,,,,0,,,78,50
84336,note_on,,12,0,3,,,,,,,,,2,,,76,0
84336,note_on,,0,0,3,,,,,,,,,2,,,78,57
84336,note_on,,2,0,2,,,,,,,,,1,,,50,70
84348,note_on,,12,0,1,,,,,,,,,0,,,78,0
84352,note_on,,4,0,1,,,,,,,,,0,,,74,76
84364,note_on,,12,0,1,,,,,,,,,0,,,74,0
84365,note_on,,29,0,2,,,,,,,,,1,,,50,0
84365,note_on,,29,0,4,,,,,,,,,3,,,78,0
84365,note_on,,29,0,5,,,,,,,,,4,,,71,0
84368,note_on,,4,0,1,,,,,,,,,0,,,71,59
84372,note_on,,36,0,7,,,,,,,,,6,,,50,0
84372,note_on,,7,0,5,,,,,,,,,4,,,71,85
84372,note_on,,36,0,3,,,,,,,,,2,,,78,0
84372,note_on,,36,0,6,,,,,,,,,5,,,66,0
84372,note_on,,0,0,6,,,,,,,,,5,,,64,85
84372,note_on,,0,0,3,,,,,,,,,2,,,79,76
84372,note_on,,36,0,8,,,,,,,,,7,,,38,0
84372,note_on,,0,0,8,,,,,,,,,7,,,40,85
84372,note_on,,0,0,7,,,,,,,,,6,,,52,85
84372,note_on,,7,0,4,,,,,,,,,3,,,79,85
84372,note_on,,7,0,2,,,,,,,,,1,,,52,85
84380,note_on,,12,0,1,,,,,,,,,0,,,71,0
84382,note_on,,10,0,5,,,,,,,,,4,,,71,0
84382,note_on,,10,0,2,,,,,,,,,1,,,52,0
84382,note_on,,10,0,4,,,,,,,,,3,,,79,0
84384,note_on,,12,0,3,,,,,,,,,2,,,79,0
84384,note_on,,0,0,3,,,,,,,,,2,,,74,88
84384,note_on,,0,0,6,,,,,,,,,5,,,62,85
84384,note_on,,2,0,2,,,,,,,,,1,,,54,65
84384,note_on,,12,0,6,,,,,,,,,5,,,64,0
84384,note_on,,0,0,7,,,,,,,,,6,,,54,65
84384,note_on,,2,0,4,,,,,,,,,3,,,71,85
84384,note_on,,4,0,1,,,,,,,,,0,,,78,49
84384,note_on,,12,0,8,,,,,,,,,7,,,40,0
84384,note_on,,0,0,8,,,,,,,,,7,,,42,65
84384,note_on,,2,0,5,,,,,,,,,4,,,71,77
84384,note_on,,12,0,7,,,,,,,,,6,,,52,0
84396,note_on,,12,0,1,,,,,,,,,0,,,78,0
84400,note_on,,4,0,1,,,,,,,,,0,,,74,85
84403,note_on,,19,0,5,,,,,,,,,4,,,71,0
84403,note_on,,19,0,4,,,,,,,,,3,,,71,0
84408,note_on,,24,0,3,,,,,,,,,2,,,74,0
84408,note_on,,24,0,6,,,,,,,,,5,,,62,0
84412,note_on,,12,0,1,,,,,,,,,0,,,74,0
84413,note_on,,29,0,2,,,,,,,,,1,,,54,0
84416,note_on,,4,0,1,,,,,,,,,0,,,71,43
84420,note_on,,36,0,7,,,,,,,,,6,,,54,0
84420,note_on,,36,0,8,,,,,,,,,7,,,42,0
84420,note_on,,0,0,7,,,,,,,,,6,,,52,85
84420,note_on,,7,0,2,,,,,,,,,1,,,52,85
84420,note_on,,0,0,8,,,,,,,,,7,,,40,85
84428,note_on,,12,0,1,,,,,,,,,0,,,71,0
84430,note_on,,10,0,2,,,,,,,,,1,,,52,0
84432,note_on,,2,0,2,,,,,,,,,1,,,54,61
84432,note_on,,12,0,8,,,,,,,,,7,,,40,0
84432,note_on,,24,0,6,,,,,,,,,5,,,66,85
84432,note_on,,4,0,1,,,,,,,,,0,,,66,59
84432,note_on,,0,0,8,,,,,,,,,7,,,42,67
84432,note_on,,24,0,3,,,,,,,,,2,,,73,60
84432,note_on,,29,0,4,,,,,,,,,3,,,73,59
84432,note_on,,12,0,7,,,,,,,,,6,,,52,0
84432,note_on,,0,0,7,,,,,,,,,6,,,54,67
84432,note_on,,29,0,5,,,,,,,,,4,,,70,56
84437,note_on,,5,0,4,,,,,,,,,3,,,73,0
84437,note_on,,5,0,5,,,,,,,,,4,,,70,0
84438,note_on,,0,0,3,,,,,,,,,2,,,74,82
84438,note_on,,1,0,4,,,,,,,,,3,,,74,59
84438,note_on,,6,0,3,,,,,,,,,2,,,73,0
84438,note_on,,1,0,5,,,,,,,,,4,,,71,85
84443,note_on,,5,0,5,,,,,,,,,4,,,71,0
84443,note_on,,5,0,4,,,,,,,,,3,,,74,0
84444,note_on,,6,0,3,,,,,,,,,2,,,74,0
84444,note_on,,1,0,5,,,,,,,,,4,,,70,62
84444,note_on,,1,0,4,,,,,,,,,3,,,73,52
84444,note_on,,0,0,3,,,,,,,,,2,,,73,56
84444,note_on,,12,0,1,,,,,,,,,0,,,66,0
84448,note_on,,4,0,1,,,,,,,,,0,,,71,74
84449,note_on,,5,0,5,,,,,,,,,4,,,70,0
84449,note_on,,5,0,4,,,,,,,,,3,,,73,0
84450,note_on,,1,0,5,,,,,,,,,4,,,71,85
84450,note_on,,0,0,3,,,,,,,,,2,,,74,80
84450,note_on,,1,0,4,,,,,,,,,3,,,74,66
84450,note_on,,6,0,3,,,,,,,,,2,,,73,0
84455,note_on,,5,0,4,,,,,,,,,3,,,74,0
84455,note_on,,5,0,5,,,,,,,,,4,,,71,0
84456,note_on,,24,0,6,,,,,,,,,5,,,66,0
84456,note_on,,6,0,3,,,,,,,,,2,,,74,0
84460,note_on,,12,0,1,,,,,,,,,0,,,71,0
84461,note_on,,29,0,2,,,,,,,,,1,,,54,0
84464,note_on,,4,0,1,,,,,,,,,0,,,70,65
84468,note_on,,7,0,2,,,,,,,,,1,,,42,61
84468,note_on,,36,0,8,,,,,,,,,7,,,42,0
84468,note_on,,0,0,7,,,,,,,,,6,,,42,67
84468,note_on,,36,0,7,,,,,,,,,6,,,54,0
84468,note_on,,0,0,8,,,,,,,,,7,,,30,67
84476,note_on,,12,0,1,,,,,,,,,0,,,70,0
84478,note_on,,10,0,2,,,,,,,,,1,,,42,0
84480,note_on,,0,0,8,,,,,,,,,7,,,35,85
84480,note_on,,4,0,1,,,,,,,,,0,,,71,85
84480,note_on,,12,0,8,,,,,,,,,7,,,30,0
84480,note_on,,24,0,3,,,,,,,,,2,,,71,88
84480,note_on,,25,0,5,,,,,,,,,4,,,66,85
84480,note_on,,12,0,7,,,,,,,,,6,,,42,0
84480,note_on,,2,0,2,,,,,,,,,1,,,47,85
84480,note_on,,0,0,7,,,,,,,,,6,,,47,85
84480,note_on,,24,0,6,,,,,,,,,5,,,62,85
84480,note_on,,25,0,4,,,,,,,,,3,,,71,85
84516,note_on,,36,0,1,,,,,,,,,0,,,71,0
84519,note_on,,39,0,5,,,,,,,,,4,,,66,0
84519,note_on,,39,0,2,,,,,,,,,1,,,47,0
84519,note_on,,39,0,4,,,,,,,,,3,,,71,0
84528,note_on,,48,0,6,,,,,,,,,5,,,62,0
84528,note_on,,48,0,7,,,,,,,,,6,,,47,0
84528,note_on,,48,0,3,,,,,,,,,2,,,71,0
84528,note_on,,48,0,8,,,,,,,,,7,,,35,0
84576,note_on,,48,0,8,,,,,,,,,7,,,38,98
84576,note_on,,60,0,1,,,,,,,,,0,,,69,98
84576,note_on,,0,0,1,,,,,,,,,0,,,66,98
84576,note_on,,0,0,1,,,,,,,,,0,,,62,98
84576,note_on,,0,0,1,,,,,,,,,0,,,74,98
84576,note_on,,48,0,7,,,,,,,,,6,,,50,98
84576,note_on,,57,0,2,,,,,,,,,1,,,50,98
84576,note_on,,0,0,2,,,,,,,,,1,,,54,98
84576,note_on,,0,0,2,,,,,,,,,1,,,57,98
84612,note_on,,93,0,4,,,,,,,,,3,,,69,95
84622,note_on,,10,0,4,,,,,,,,,3,,,69,0
84624,note_on,,2,0,4,,,,,,,,,3,,,74,95
84624,note_on,,0,0,2,,,,,,,,,1,,,50,0
84624,note_on,,48,0,7,,,,,,,,,6,,,50,0
84624,note_on,,0,0,1,,,,,,,,,0,,,69,0
84624,note_on,,0,0,1,,,,,,,,,0,,,66,0
84624,note_on,,0,0,1,,,,,,,,,0,,,62,0
84624,note_on,,48,0,1,,,,,,,,,0,,,74,0
84624,note_on,,48,0,2,,,,,,,,,1,,,57,0
84624,note_on,,0,0,2,,,,,,,,,1,,,54,0
84624,note_on,,48,0,8,,,,,,,,,7,,,38,0
84655,note_on,,31,0,4,,,,,,,,,3,,,74,0
84660,note_on,,5,0,4,,,,,,,,,3,,,69,95
84670,note_on,,10,0,4,,,,,,,,,3,,,69,0
84672,note_on,,2,0,4,,,,,,,,,3,,,71,95
84686,note_on,,14,0,4,,,,,,,,,3,,,71,0
84688,note_on,,2,0,4,,,,,,,,,3,,,69,95
84702,note_on,,14,0,4,,,,,,,,,3,,,69,0
84704,note_on,,2,0,4,,,,,,,,,3,,,67,95
84718,note_on,,14,0,4,,,,,,,,,3,,,67,0
84720,note_on,,2,0,4,,,,,,,,,3,,,66,95
84734,note_on,,14,0,4,,,,,,,,,3,,,66,0
84736,note_on,,2,0,4,,,,,,,,,3,,,67,95
84750,note_on,,14,0,4,,,,,,,,,3,,,67,0
84752,note_on,,2,0,4,,,,,,,,,3,,,69,95
84766,note_on,,14,0,4,,,,,,,,,3,,,69,0
84768,note_on,,2,0,4,,,,,,,,,3,,,62,95
84782,note_on,,14,0,4,,,,,,,,,3,,,62,0
84804,note_on,,276,0,3,,,,,,,,,2,,,74,95
84814,note_on,,10,0,3,,,,,,,,,2,,,74,0
84816,note_on,,34,0,4,,,,,,,,,3,,,61,95
84816,note_on,,2,0,3,,,,,,,,,2,,,81,95
84837,note_on,,21,0,4,,,,,,,,,3,,,61,0
84847,note_on,,31,0,3,,,,,,,,,2,,,81,0
84852,note_on,,5,0,3,,,,,,,,,2,,,76,95
84862,note_on,,10,0,3,,,,,,,,,2,,,76,0
84864,note_on,,27,0,4,,,,,,,,,3,,,62,95
84864,note_on,,2,0,3,,,,,,,,,2,,,78,95
84878,note_on,,14,0,3,,,,,,,,,2,,,78,0
84880,note_on,,2,0,3,,,,,,,,,2,,,76,95
84885,note_on,,21,0,4,,,,,,,,,3,,,62,0
84894,note_on,,14,0,3,,,,,,,,,2,,,76,0
84896,note_on,,2,0,3,,,,,,,,,2,,,74,95
84910,note_on,,14,0,3,,,,,,,,,2,,,74,0
84912,note_on,,27,0,4,,,,,,,,,3,,,64,95
84912,note_on,,2,0,3,,,,,,,,,2,,,73,95
84926,note_on,,14,0,3,,,,,,,,,2,,,73,0
84928,note_on,,2,0,3,,,,,,,,,2,,,74,95
84933,note_on,,21,0,4,,,,,,,,,3,,,64,0
84942,note_on,,14,0,3,,,,,,,,,2,,,74,0
84944,note_on,,2,0,3,,,,,,,,,2,,,76,95
84958,note_on,,14,0,3,,,,,,,,,2,,,76,0
84960,note_on,,27,0,4,,,,,,,,,3,,,66,95
84960,note_on,,2,0,3,,,,,,,,,2,,,69,95
84974,note_on,,14,0,4,,,,,,,,,3,,,66,0
84976,note_on,,2,0,4,,,,,,,,,3,,,69,95
84981,note_on,,21,0,3,,,,,,,,,2,,,69,0
84990,note_on,,14,0,4,,,,,,,,,3,,,69,0
84992,note_on,,2,0,4,,,,,,,,,3,,,74,95
85006,note_on,,14,0,4,,,,,,,,,3,,,74,0
85008,note_on,,2,0,4,,,,,,,,,3,,,74,95
85008,note_on,,27,0,3,,,,,,,,,2,,,66,95
85022,note_on,,14,0,4,,,,,,,,,3,,,74,0
85024,note_on,,2,0,4,,,,,,,,,3,,,73,95
85029,note_on,,21,0,3,,,,,,,,,2,,,66,0
85038,note_on,,14,0,4,,,,,,,,,3,,,73,0
85040,note_on,,2,0,4,,,,,,,,,3,,,74,95
85054,note_on,,14,0,4,,,,,,,,,3,,,74,0
85056,note_on,,2,0,4,,,,,,,,,3,,,71,95
85056,note_on,,27,0,3,,,,,,,,,2,,,67,95
85070,note_on,,14,0,4,,,,,,,,,3,,,71,0
85072,note_on,,2,0,4,,,,,,,,,3,,,76,95
85077,note_on,,21,0,3,,,,,,,,,2,,,67,0
85086,note_on,,14,0,4,,,,,,,,,3,,,76,0
85088,note_on,,2,0,4,,,,,,,,,3,,,74,95
85102,note_on,,14,0,4,,,,,,,,,3,,,74,0
85104,note_on,,2,0,4,,,,,,,,,3,,,73,95
85104,note_on,,27,0,3,,,,,,,,,2,,,69,95
85118,note_on,,14,0,4,,,,,,,,,3,,,73,0
85120,note_on,,2,0,4,,,,,,,,,3,,,78,95
85125,note_on,,21,0,3,,,,,,,,,2,,,69,0
85134,note_on,,14,0,4,,,,,,,,,3,,,78,0
85136,note_on,,2,0,4,,,,,,,,,3,,,76,95
85150,note_on,,14,0,4,,,,,,,,,3,,,76,0
85152,note_on,,2,0,4,,,,,,,,,3,,,74,95
85152,note_on,,27,0,3,,,,,,,,,2,,,71,95
85166,note_on,,14,0,3,,,,,,,,,2,,,71,0
85168,note_on,,2,0,3,,,,,,,,,2,,,74,95
85173,note_on,,21,0,4,,,,,,,,,3,,,74,0
85182,note_on,,14,0,3,,,,,,,,,2,,,74,0
85184,note_on,,2,0,3,,,,,,,,,2,,,78,95
85198,note_on,,14,0,3,,,,,,,,,2,,,78,0
85200,note_on,,27,0,4,,,,,,,,,3,,,69,95
85200,note_on,,2,0,3,,,,,,,,,2,,,78,95
85214,note_on,,14,0,3,,,,,,,,,2,,,78,0
85216,note_on,,2,0,3,,,,,,,,,2,,,76,95
85221,note_on,,21,0,4,,,,,,,,,3,,,69,0
85230,note_on,,14,0,3,,,,,,,,,2,,,76,0
85232,note_on,,2,0,3,,,,,,,,,2,,,78,95
85246,note_on,,14,0,3,,,,,,,,,2,,,78,0
85248,note_on,,2,0,3,,,,,,,,,2,,,74,95
85248,note_on,,27,0,4,,,,,,,,,3,,,71,95
85262,note_on,,14,0,3,,,,,,,,,2,,,74,0
85264,note_on,,2,0,3,,,,,,,,,2,,,79,95
85269,note_on,,21,0,4,,,,,,,,,3,,,71,0
85278,note_on,,14,0,3,,,,,,,,,2,,,79,0
85280,note_on,,2,0,3,,,,,,,,,2,,,78,95
85294,note_on,,14,0,3,,,,,,,,,2,,,78,0
85296,note_on,,27,0,4,,,,,,,,,3,,,73,95
85296,note_on,,2,0,3,,,,,,,,,2,,,76,95
85310,note_on,,14,0,3,,,,,,,,,2,,,76,0
85312,note_on,,2,0,3,,,,,,,,,2,,,81,95
85317,note_on,,21,0,4,,,,,,,,,3,,,73,0
85326,note_on,,14,0,3,,,,,,,,,2,,,81,0
85328,note_on,,2,0,3,,,,,,,,,2,,,79,95
85342,note_on,,14,0,3,,,,,,,,,2,,,79,0
85344,note_on,,2,0,3,,,,,,,,,2,,,78,95
85344,note_on,,27,0,4,,,,,,,,,3,,,74,95
85358,note_on,,14,0,3,,,,,,,,,2,,,78,0
85358,note_on,,14,0,4,,,,,,,,,3,,,74,0
85360,note_on,,2,0,3,,,,,,,,,2,,,81,95
85360,note_on,,2,0,4,,,,,,,,,3,,,78,95
85374,note_on,,14,0,4,,,,,,,,,3,,,78,0
85374,note_on,,14,0,3,,,,,,,,,2,,,81,0
85376,note_on,,2,0,3,,,,,,,,,2,,,79,95
85376,note_on,,2,0,4,,,,,,,,,3,,,76,95
85380,note_on,,756,0,2,,,,,,,,,1,,,57,95
85390,note_on,,14,0,3,,,,,,,,,2,,,79,0
85390,note_on,,14,0,4,,,,,,,,,3,,,76,0
85392,note_on,,12,0,2,,,,,,,,,1,,,57,0
85392,note_on,,2,0,3,,,,,,,,,2,,,78,95
85392,note_on,,0,0,2,,,,,,,,,1,,,62,95
85392,note_on,,2,0,4,,,,,,,,,3,,,74,95
85406,note_on,,14,0,4,,,,,,,,,3,,,74,0
85406,note_on,,14,0,3,,,,,,,,,2,,,78,0
85408,note_on,,2,0,4,,,,,,,,,3,,,78,95
85408,note_on,,2,0,3,,,,,,,,,2,,,81,95
85422,note_on,,14,0,3,,,,,,,,,2,,,81,0
85422,note_on,,14,0,4,,,,,,,,,3,,,78,0
85424,note_on,,2,0,4,,,,,,,,,3,,,76,95
85424,note_on,,2,0,3,,,,,,,,,2,,,79,95
85428,note_on,,0,0,2,,,,,,,,,1,,,57,95
85428,note_on,,36,0,2,,,,,,,,,1,,,62,0
85438,note_on,,14,0,4,,,,,,,,,3,,,76,0
85438,note_on,,14,0,3,,,,,,,,,2,,,79,0
85440,note_on,,2,0,4,,,,,,,,,3,,,74,95
85440,note_on,,2,0,3,,,,,,,,,2,,,78,95
85440,note_on,,12,0,2,,,,,,,,,1,,,57,0
85440,note_on,,0,0,2,,,,,,,,,1,,,59,95
85456,note_on,,0,0,2,,,,,,,,,1,,,57,95
85456,note_on,,16,0,2,,,,,,,,,1,,,59,0
85471,note_on,,31,0,3,,,,,,,,,2,,,78,0
85472,note_on,,16,0,2,,,,,,,,,1,,,57,0
85472,note_on,,0,0,2,,,,,,,,,1,,,55,95
85476,note_on,,5,0,3,,,,,,,,,2,,,81,95
85486,note_on,,10,0,3,,,,,,,,,2,,,81,0
85488,note_on,,16,0,2,,,,,,,,,1,,,55,0
85488,note_on,,0,0,2,,,,,,,,,1,,,54,95
85488,note_on,,2,0,3,,,,,,,,,2,,,81,95
85504,note_on,,16,0,2,,,,,,,,,1,,,54,0
85504,note_on,,0,0,2,,,,,,,,,1,,,55,95
85512,note_on,,72,0,4,,,,,,,,,3,,,74,0
85519,note_on,,31,0,3,,,,,,,,,2,,,81,0
85520,note_on,,16,0,2,,,,,,,,,1,,,55,0
85520,note_on,,0,0,2,,,,,,,,,1,,,57,95
85524,note_on,,5,0,3,,,,,,,,,2,,,79,95
85524,note_on,,12,0,4,,,,,,,,,3,,,73,95
85534,note_on,,10,0,4,,,,,,,,,3,,,73,0
85534,note_on,,10,0,3,,,,,,,,,2,,,79,0
85536,note_on,,2,0,3,,,,,,,,,2,,,78,95
85536,note_on,,2,0,4,,,,,,,,,3,,,74,95
85536,note_on,,0,0,4,,,,,,,,,3,,,74,95
85536,note_on,,0,0,2,,,,,,,,,1,,,50,95
85536,note_on,,16,0,2,,,,,,,,,1,,,57,0
85550,note_on,,0,0,4,,,,,,,,,3,,,74,0
85550,note_on,,14,0,4,,,,,,,,,3,,,74,0
85552,note_on,,2,0,4,,,,,,,,,3,,,76,95
85560,note_on,,24,0,2,,,,,,,,,1,,,50,0
85566,note_on,,14,0,4,,,,,,,,,3,,,76,0
85567,note_on,,31,0,3,,,,,,,,,2,,,78,0
85568,note_on,,2,0,4,,,,,,,,,3,,,78,95
85572,note_on,,5,0,3,,,,,,,,,2,,,69,95
85572,note_on,,948,0,1,,,,,,,,,0,,,74,95
85582,note_on,,10,0,3,,,,,,,,,2,,,69,0
85582,note_on,,14,0,4,,,,,,,,,3,,,78,0
85584,note_on,,2,0,4,,,,,,,,,3,,,76,95
85584,note_on,,12,0,1,,,,,,,,,0,,,74,0
85584,note_on,,24,0,2,,,,,,,,,1,,,49,95
85584,note_on,,2,0,3,,,,,,,,,2,,,76,95
85584,note_on,,0,0,1,,,,,,,,,0,,,81,95
85598,note_on,,14,0,4,,,,,,,,,3,,,76,0
85600,note_on,,2,0,4,,,,,,,,,3,,,78,95
85608,note_on,,24,0,2,,,,,,,,,1,,,49,0
85614,note_on,,14,0,4,,,,,,,,,3,,,78,0
85615,note_on,,31,0,3,,,,,,,,,2,,,76,0
85616,note_on,,2,0,4,,,,,,,,,3,,,79,95
85620,note_on,,0,0,1,,,,,,,,,0,,,76,95
85620,note_on,,36,0,1,,,,,,,,,0,,,81,0
85620,note_on,,5,0,3,,,,,,,,,2,,,69,95
85630,note_on,,14,0,4,,,,,,,,,3,,,79,0
85630,note_on,,10,0,3,,,,,,,,,2,,,69,0
85632,note_on,,2,0,3,,,,,,,,,2,,,78,95
85632,note_on,,2,0,4,,,,,,,,,3,,,78,95
85632,note_on,,24,0,2,,,,,,,,,1,,,50,95
85632,note_on,,12,0,1,,,,,,,,,0,,,76,0
85632,note_on,,0,0,1,,,,,,,,,0,,,78,95
85646,note_on,,14,0,4,,,,,,,,,3,,,78,0
85648,note_on,,0,0,1,,,,,,,,,0,,,76,95
85648,note_on,,16,0,1,,,,,,,,,0,,,78,0
85648,note_on,,2,0,4,,,,,,,,,3,,,79,95
85653,note_on,,21,0,3,,,,,,,,,2,,,78,0
85656,note_on,,24,0,2,,,,,,,,,1,,,50,0
85662,note_on,,14,0,4,,,,,,,,,3,,,79,0
85664,note_on,,2,0,4,,,,,,,,,3,,,78,95
85664,note_on,,0,0,1,,,,,,,,,0,,,74,95
85664,note_on,,16,0,1,,,,,,,,,0,,,76,0
85678,note_on,,14,0,4,,,,,,,,,3,,,78,0
85680,note_on,,2,0,4,,,,,,,,,3,,,76,95
85680,note_on,,16,0,1,,,,,,,,,0,,,74,0
85680,note_on,,0,0,1,,,,,,,,,0,,,73,95
85680,note_on,,27,0,3,,,,,,,,,2,,,80,95
85680,note_on,,24,0,2,,,,,,,,,1,,,52,95
85694,note_on,,14,0,4,,,,,,,,,3,,,76,0
85696,note_on,,16,0,1,,,,,,,,,0,,,73,0
85696,note_on,,0,0,1,,,,,,,,,0,,,74,95
85696,note_on,,2,0,4,,,,,,,,,3,,,78,95
85701,note_on,,21,0,3,,,,,,,,,2,,,80,0
85704,note_on,,24,0,2,,,,,,,,,1,,,52,0
85710,note_on,,14,0,4,,,,,,,,,3,,,78,0
85712,note_on,,16,0,1,,,,,,,,,0,,,74,0
85712,note_on,,0,0,1,,,,,,,,,0,,,76,95
85712,note_on,,2,0,4,,,,,,,,,3,,,74,95
85726,note_on,,14,0,4,,,,,,,,,3,,,74,0
85728,note_on,,24,0,2,,,,,,,,,1,,,54,95
85728,note_on,,2,0,4,,,,,,,,,3,,,73,95
85728,note_on,,0,0,1,,,,,,,,,0,,,69,95
85728,note_on,,16,0,1,,,,,,,,,0,,,76,0
85728,note_on,,27,0,3,,,,,,,,,2,,,81,95
85744,note_on,,0,0,4,,,,,,,,,3,,,76,95
85744,note_on,,0,0,1,,,,,,,,,0,,,73,95
85744,note_on,,16,0,4,,,,,,,,,3,,,73,0
85744,note_on,,16,0,1,,,,,,,,,0,,,69,0
85752,note_on,,24,0,2,,,,,,,,,1,,,54,0
85760,note_on,,0,0,1,,,,,,,,,0,,,71,95
85760,note_on,,16,0,1,,,,,,,,,0,,,73,0
85760,note_on,,0,0,4,,,,,,,,,3,,,74,95
85760,note_on,,16,0,4,,,,,,,,,3,,,76,0
85776,note_on,,24,0,2,,,,,,,,,1,,,49,95
85776,note_on,,16,0,4,,,,,,,,,3,,,74,0
85776,note_on,,0,0,4,,,,,,,,,3,,,73,95
85776,note_on,,0,0,1,,,,,,,,,0,,,69,95
85776,note_on,,16,0,1,,,,,,,,,0,,,71,0
85792,note_on,,16,0,1,,,,,,,,,0,,,69,0
85792,note_on,,16,0,4,,,,,,,,,3,,,73,0
85792,note_on,,0,0,1,,,,,,,,,0,,,71,95
85792,note_on,,0,0,4,,,,,,,,,3,,,74,95
85800,note_on,,24,0,2,,,,,,,,,1,,,49,0
85808,note_on,,16,0,4,,,,,,,,,3,,,74,0
85808,note_on,,0,0,4,,,,,,,,,3,,,76,95
85808,note_on,,16,0,1,,,,,,,,,0,,,71,0
85808,note_on,,0,0,1,,,,,,,,,0,,,73,95
85824,note_on,,0,0,1,,,,,,,,,0,,,66,95
85824,note_on,,24,0,2,,,,,,,,,1,,,50,95
85824,note_on,,16,0,1,,,,,,,,,0,,,73,0
85824,note_on,,0,0,4,,,,,,,,,3,,,71,95
85824,note_on,,16,0,4,,,,,,,,,3,,,76,0
85840,note_on,,16,0,1,,,,,,,,,0,,,66,0
85840,note_on,,0,0,1,,,,,,,,,0,,,71,95
85848,note_on,,24,0,2,,,,,,,,,1,,,50,0
85848,note_on,,24,0,4,,,,,,,,,3,,,71,0
85856,note_on,,0,0,1,,,,,,,,,0,,,69,95
85856,note_on,,16,0,1,,,,,,,,,0,,,71,0
85872,note_on,,24,0,2,,,,,,,,,1,,,52,95
85872,note_on,,24,0,4,,,,,,,,,3,,,73,95
85872,note_on,,0,0,1,,,,,,,,,0,,,68,95
85872,note_on,,16,0,1,,,,,,,,,0,,,69,0
85888,note_on,,16,0,1,,,,,,,,,0,,,68,0
85888,note_on,,0,0,1,,,,,,,,,0,,,73,95
85895,note_on,,167,0,3,,,,,,,,,2,,,81,0
85896,note_on,,24,0,2,,,,,,,,,1,,,52,0
85896,note_on,,24,0,4,,,,,,,,,3,,,73,0
85904,note_on,,16,0,1,,,,,,,,,0,,,73,0
85904,note_on,,0,0,1,,,,,,,,,0,,,71,95
85920,note_on,,16,0,1,,,,,,,,,0,,,71,0
85920,note_on,,24,0,4,,,,,,,,,3,,,74,95
85920,note_on,,24,0,2,,,,,,,,,1,,,54,95
85920,note_on,,0,0,1,,,,,,,,,0,,,69,95
85920,note_on,,25,0,3,,,,,,,,,2,,,81,95
85928,note_on,,8,0,1,,,,,,,,,0,,,69,0
85928,note_on,,0,0,1,,,,,,,,,0,,,68,95
85936,note_on,,8,0,1,,,,,,,,,0,,,68,0
85936,note_on,,0,0,1,,,,,,,,,0,,,69,95
85941,note_on,,21,0,3,,,,,,,,,2,,,81,0
85944,note_on,,24,0,2,,,,,,,,,1,,,54,0
85944,note_on,,8,0,1,,,,,,,,,0,,,69,0
85944,note_on,,0,0,1,,,,,,,,,0,,,71,95
85952,note_on,,8,0,1,,,,,,,,,0,,,71,0
85952,note_on,,0,0,1,,,,,,,,,0,,,73,95
85960,note_on,,8,0,1,,,,,,,,,0,,,73,0
85960,note_on,,0,0,1,,,,,,,,,0,,,74,95
85968,note_on,,27,0,3,,,,,,,,,2,,,80,95
85968,note_on,,24,0,2,,,,,,,,,1,,,52,95
85968,note_on,,8,0,1,,,,,,,,,0,,,74,0
85968,note_on,,0,0,1,,,,,,,,,0,,,76,95
85976,note_on,,8,0,1,,,,,,,,,0,,,76,0
85976,note_on,,0,0,1,,,,,,,,,0,,,78,95
85984,note_on,,0,0,1,,,,,,,,,0,,,76,95
85984,note_on,,8,0,1,,,,,,,,,0,,,78,0
85989,note_on,,21,0,3,,,,,,,,,2,,,80,0
85992,note_on,,8,0,1,,,,,,,,,0,,,76,0
85992,note_on,,24,0,2,,,,,,,,,1,,,52,0
85992,note_on,,0,0,1,,,,,,,,,0,,,74,95
86000,note_on,,8,0,1,,,,,,,,,0,,,74,0
86000,note_on,,0,0,1,,,,,,,,,0,,,73,95
86008,note_on,,8,0,1,,,,,,,,,0,,,73,0
86008,note_on,,0,0,1,,,,,,,,,0,,,71,95
86016,note_on,,24,0,2,,,,,,,,,1,,,54,95
86016,note_on,,27,0,3,,,,,,,,,2,,,81,95
86016,note_on,,8,0,1,,,,,,,,,0,,,71,0
86016,note_on,,0,0,1,,,,,,,,,0,,,69,95
86024,note_on,,0,0,1,,,,,,,,,0,,,73,95
86024,note_on,,8,0,1,,,,,,,,,0,,,69,0
86032,note_on,,8,0,1,,,,,,,,,0,,,73,0
86032,note_on,,0,0,1,,,,,,,,,0,,,71,95
86037,note_on,,21,0,3,,,,,,,,,2,,,81,0
86040,note_on,,24,0,2,,,,,,,,,1,,,54,0
86040,note_on,,8,0,1,,,,,,,,,0,,,71,0
86040,note_on,,0,0,1,,,,,,,,,0,,,69,95
86048,note_on,,8,0,1,,,,,,,,,0,,,69,0
86048,note_on,,0,0,1,,,,,,,,,0,,,68,95
86056,note_on,,8,0,1,,,,,,,,,0,,,68,0
86056,note_on,,0,0,1,,,,,,,,,0,,,66,95
86064,note_on,,24,0,2,,,,,,,,,1,,,56,95
86064,note_on,,27,0,3,,,,,,,,,2,,,83,95
86064,note_on,,0,0,1,,,,,,,,,0,,,64,95
86064,note_on,,8,0,1,,,,,,,,,0,,,66,0
86072,note_on,,0,0,1,,,,,,,,,0,,,66,95
86072,note_on,,8,0,1,,,,,,,,,0,,,64,0
86080,note_on,,0,0,1,,,,,,,,,0,,,64,95
86080,note_on,,8,0,1,,,,,,,,,0,,,66,0
86085,note_on,,21,0,3,,,,,,,,,2,,,83,0
86088,note_on,,8,0,1,,,,,,,,,0,,,64,0
86088,note_on,,0,0,1,,,,,,,,,0,,,62,95
86088,note_on,,24,0,2,,,,,,,,,1,,,56,0
86096,note_on,,8,0,1,,,,,,,,,0,,,62,0
86096,note_on,,0,0,1,,,,,,,,,0,,,61,95
86104,note_on,,8,0,1,,,,,,,,,0,,,61,0
86104,note_on,,0,0,1,,,,,,,,,0,,,59,95
86112,note_on,,192,0,4,,,,,,,,,3,,,74,0
86112,note_on,,24,0,2,,,,,,,,,1,,,57,95
86112,note_on,,27,0,3,,,,,,,,,2,,,76,95
86112,note_on,,8,0,1,,,,,,,,,0,,,59,0
86112,note_on,,0,0,1,,,,,,,,,0,,,57,95
86120,note_on,,8,0,1,,,,,,,,,0,,,57,0
86128,note_on,,0,0,2,,,,,,,,,1,,,61,95
86128,note_on,,16,0,2,,,,,,,,,1,,,57,0
86128,note_on,,16,0,4,,,,,,,,,3,,,76,95
86143,note_on,,31,0,3,,,,,,,,,2,,,76,0
86144,note_on,,16,0,2,,,,,,,,,1,,,61,0
86144,note_on,,0,0,2,,,,,,,,,1,,,59,95
86144,note_on,,0,0,4,,,,,,,,,3,,,74,95
86144,note_on,,16,0,4,,,,,,,,,3,,,76,0
86148,note_on,,5,0,3,,,,,,,,,2,,,76,95
86158,note_on,,10,0,3,,,,,,,,,2,,,76,0
86160,note_on,,2,0,3,,,,,,,,,2,,,81,95
86160,note_on,,40,0,1,,,,,,,,,0,,,69,95
86160,note_on,,0,0,2,,,,,,,,,1,,,57,95
86160,note_on,,16,0,2,,,,,,,,,1,,,59,0
86160,note_on,,0,0,4,,,,,,,,,3,,,73,95
86160,note_on,,16,0,4,,,,,,,,,3,,,74,0
86176,note_on,,0,0,2,,,,,,,,,1,,,59,95
86176,note_on,,16,0,2,,,,,,,,,1,,,57,0
86176,note_on,,0,0,4,,,,,,,,,3,,,74,95
86176,note_on,,16,0,4,,,,,,,,,3,,,73,0
86184,note_on,,24,0,1,,,,,,,,,0,,,69,0
86191,note_on,,31,0,3,,,,,,,,,2,,,81,0
86192,note_on,,16,0,4,,,,,,,,,3,,,74,0
86192,note_on,,16,0,2,,,,,,,,,1,,,59,0
86192,note_on,,0,0,4,,,,,,,,,3,,,76,95
86192,note_on,,0,0,2,,,,,,,,,1,,,61,95
86196,note_on,,5,0,3,,,,,,,,,2,,,76,95
86206,note_on,,10,0,3,,,,,,,,,2,,,76,0
86208,note_on,,16,0,2,,,,,,,,,1,,,61,0
86208,note_on,,2,0,3,,,,,,,,,2,,,78,95
86208,note_on,,0,0,2,,,,,,,,,1,,,62,95
86208,note_on,,24,0,1,,,,,,,,,0,,,69,95
86208,note_on,,16,0,4,,,,,,,,,3,,,76,0
86208,note_on,,0,0,4,,,,,,,,,3,,,69,95
86222,note_on,,14,0,3,,,,,,,,,2,,,78,0
86224,note_on,,2,0,3,,,,,,,,,2,,,76,95
86232,note_on,,24,0,1,,,,,,,,,0,,,69,0
86232,note_on,,24,0,2,,,,,,,,,1,,,62,0
86238,note_on,,14,0,3,,,,,,,,,2,,,76,0
86240,note_on,,2,0,3,,,,,,,,,2,,,74,95
86244,note_on,,0,0,4,,,,,,,,,3,,,78,95
86244,note_on,,36,0,4,,,,,,,,,3,,,69,0
86254,note_on,,14,0,3,,,,,,,,,2,,,74,0
86256,note_on,,24,0,2,,,,,,,,,1,,,64,95
86256,note_on,,12,0,4,,,,,,,,,3,,,78,0
86256,note_on,,24,0,1,,,,,,,,,0,,,68,95
86256,note_on,,2,0,3,,,,,,,,,2,,,73,95
86256,note_on,,0,0,4,,,,,,,,,3,,,76,95
86270,note_on,,14,0,3,,,,,,,,,2,,,73,0
86272,note_on,,2,0,3,,,,,,,,,2,,,74,95
86280,note_on,,24,0,1,,,,,,,,,0,,,68,0
86280,note_on,,24,0,2,,,,,,,,,1,,,64,0
86286,note_on,,14,0,3,,,,,,,,,2,,,74,0
86288,note_on,,2,0,3,,,,,,,,,2,,,76,95
86292,note_on,,36,0,4,,,,,,,,,3,,,76,0
86292,note_on,,0,0,4,,,,,,,,,3,,,74,95
86302,note_on,,14,0,3,,,,,,,,,2,,,76,0
86304,note_on,,2,0,3,,,,,,,,,2,,,69,95
86304,note_on,,24,0,1,,,,,,,,,0,,,69,95
86304,note_on,,12,0,4,,,,,,,,,3,,,74,0
86304,note_on,,0,0,4,,,,,,,,,3,,,73,95
86304,note_on,,24,0,2,,,,,,,,,1,,,66,95
86310,note_on,,6,0,2,,,,,,,,,1,,,66,0
86310,note_on,,0,0,2,,,,,,,,,1,,,68,95
86310,note_on,,6,0,1,,,,,,,,,0,,,69,0
86310,note_on,,0,0,1,,,,,,,,,0,,,71,95
86316,note_on,,0,0,2,,,,,,,,,1,,,66,95
86316,note_on,,6,0,2,,,,,,,,,1,,,68,0
86316,note_on,,6,0,1,,,,,,,,,0,,,71,0
86316,note_on,,0,0,1,,,,,,,,,0,,,69,95
86318,note_on,,14,0,3,,,,,,,,,2,,,69,0
86320,note_on,,16,0,4,,,,,,,,,3,,,73,0
86320,note_on,,2,0,3,,,,,,,,,2,,,73,95
86320,note_on,,0,0,4,,,,,,,,,3,,,76,95
86322,note_on,,0,0,2,,,,,,,,,1,,,68,95
86322,note_on,,6,0,2,,,,,,,,,1,,,66,0
86322,note_on,,6,0,1,,,,,,,,,0,,,69,0
86322,note_on,,0,0,1,,,,,,,,,0,,,71,95
86328,note_on,,0,0,2,,,,,,,,,1,,,66,95
86328,note_on,,6,0,2,,,,,,,,,1,,,68,0
86328,note_on,,0,0,1,,,,,,,,,0,,,69,95
86328,note_on,,6,0,1,,,,,,,,,0,,,71,0
86334,note_on,,6,0,1,,,,,,,,,0,,,69,0
86334,note_on,,0,0,1,,,,,,,,,0,,,71,95
86334,note_on,,14,0,3,,,,,,,,,2,,,73,0
86334,note_on,,6,0,2,,,,,,,,,1,,,66,0
86334,note_on,,0,0,2,,,,,,,,,1,,,68,95
86336,note_on,,0,0,4,,,,,,,,,3,,,74,95
86336,note_on,,16,0,4,,,,,,,,,3,,,76,0
86336,note_on,,2,0,3,,,,,,,,,2,,,71,95
86340,note_on,,6,0,1,,,,,,,,,0,,,71,0
86340,note_on,,0,0,2,,,,,,,,,1,,,66,95
86340,note_on,,6,0,2,,,,,,,,,1,,,68,0
86340,note_on,,0,0,1,,,,,,,,,0,,,69,95
86346,note_on,,0,0,2,,,,,,,,,1,,,68,95
86346,note_on,,0,0,1,,,,,,,,,0,,,71,95
86346,note_on,,6,0,2,,,,,,,,,1,,,66,0
86346,note_on,,6,0,1,,,,,,,,,0,,,69,0
86350,note_on,,14,0,3,,,,,,,,,2,,,71,0
86352,note_on,,16,0,4,,,,,,,,,3,,,74,0
86352,note_on,,2,0,3,,,,,,,,,2,,,69,95
86352,note_on,,0,0,4,,,,,,,,,3,,,73,95
86352,note_on,,0,0,2,,,,,,,,,1,,,66,95
86352,note_on,,0,0,1,,,,,,,,,0,,,69,95
86352,note_on,,6,0,2,,,,,,,,,1,,,68,0
86352,note_on,,6,0,1,,,,,,,,,0,,,71,0
86358,note_on,,6,0,2,,,,,,,,,1,,,66,0
86358,note_on,,6,0,1,,,,,,,,,0,,,69,0
86358,note_on,,0,0,1,,,,,,,,,0,,,71,95
86358,note_on,,0,0,2,,,,,,,,,1,,,68,95
86364,note_on,,6,0,1,,,,,,,,,0,,,71,0
86364,note_on,,0,0,1,,,,,,,,,0,,,69,95
86364,note_on,,6,0,2,,,,,,,,,1,,,68,0
86364,note_on,,0,0,2,,,,,,,,,1,,,66,95
86366,note_on,,14,0,3,,,,,,,,,2,,,69,0
86368,note_on,,2,0,3,,,,,,,,,2,,,73,95
86368,note_on,,16,0,4,,,,,,,,,3,,,73,0
86368,note_on,,0,0,4,,,,,,,,,3,,,76,95
86370,note_on,,0,0,1,,,,,,,,,0,,,71,95
86370,note_on,,6,0,1,,,,,,,,,0,,,69,0
86370,note_on,,6,0,2,,,,,,,,,1,,,66,0
86370,note_on,,0,0,2,,,,,,,,,1,,,68,95
86376,note_on,,0,0,2,,,,,,,,,1,,,66,95
86376,note_on,,6,0,2,,,,,,,,,1,,,68,0
86376,note_on,,0,0,1,,,,,,,,,0,,,69,95
86376,note_on,,6,0,1,,,,,,,,,0,,,71,0
86382,note_on,,0,0,2,,,,,,,,,1,,,68,95
86382,note_on,,6,0,2,,,,,,,,,1,,,66,0
86382,note_on,,14,0,3,,,,,,,,,2,,,73,0
86382,note_on,,6,0,1,,,,,,,,,0,,,69,0
86382,note_on,,0,0,1,,,,,,,,,0,,,71,95
86384,note_on,,0,0,4,,,,,,,,,3,,,74,95
86384,note_on,,2,0,3,,,,,,,,,2,,,71,95
86384,note_on,,16,0,4,,,,,,,,,3,,,76,0
86388,note_on,,6,0,1,,,,,,,,,0,,,71,0
86388,note_on,,0,0,1,,,,,,,,,0,,,69,95
86388,note_on,,6,0,2,,,,,,,,,1,,,68,0
86388,note_on,,0,0,2,,,,,,,,,1,,,66,95
86394,note_on,,6,0,1,,,,,,,,,0,,,69,0
86394,note_on,,0,0,1,,,,,,,,,0,,,71,95
86394,note_on,,6,0,2,,,,,,,,,1,,,66,0
86394,note_on,,0,0,2,,,,,,,,,1,,,68,95
86398,note_on,,14,0,3,,,,,,,,,2,,,71,0
86400,note_on,,2,0,3,,,,,,,,,2,,,69,95
86400,note_on,,0,0,2,,,,,,,,,1,,,66,95
86400,note_on,,0,0,1,,,,,,,,,0,,,69,95
86400,note_on,,16,0,4,,,,,,,,,3,,,74,0
86400,note_on,,6,0,2,,,,,,,,,1,,,68,0
86400,note_on,,6,0,1,,,,,,,,,0,,,71,0
86400,note_on,,0,0,4,,,,,,,,,3,,,73,95
86416,note_on,,0,0,2,,,,,,,,,1,,,69,95
86416,note_on,,16,0,2,,,,,,,,,1,,,66,0
86416,note_on,,16,0,1,,,,,,,,,0,,,69,0
86416,note_on,,0,0,1,,,,,,,,,0,,,73,95
86432,note_on,,16,0,1,,,,,,,,,0,,,73,0
86432,note_on,,0,0,2,,,,,,,,,1,,,68,95
86432,note_on,,16,0,2,,,,,,,,,1,,,69,0
86432,note_on,,0,0,1,,,,,,,,,0,,,71,95
86448,note_on,,16,0,2,,,,,,,,,1,,,68,0
86448,note_on,,0,0,2,,,,,,,,,1,,,66,95
86448,note_on,,0,0,1,,,,,,,,,0,,,69,95
86448,note_on,,16,0,1,,,,,,,,,0,,,71,0
86464,note_on,,16,0,2,,,,,,,,,1,,,66,0
86464,note_on,,0,0,2,,,,,,,,,1,,,64,95
86464,note_on,,0,0,1,,,,,,,,,0,,,68,95
86464,note_on,,16,0,1,,,,,,,,,0,,,69,0
86480,note_on,,16,0,1,,,,,,,,,0,,,68,0
86480,note_on,,0,0,1,,,,,,,,,0,,,66,95
86480,note_on,,0,0,2,,,,,,,,,1,,,62,95
86480,note_on,,16,0,2,,,,,,,,,1,,,64,0
86484,note_on,,84,0,3,,,,,,,,,2,,,69,0
86496,note_on,,16,0,1,,,,,,,,,0,,,66,0
86496,note_on,,0,0,1,,,,,,,,,0,,,64,95
86496,note_on,,96,0,4,,,,,,,,,3,,,73,0
86496,note_on,,0,0,2,,,,,,,,,1,,,61,95
86496,note_on,,16,0,2,,,,,,,,,1,,,62,0
86496,note_on,,12,0,3,,,,,,,,,2,,,69,95
86502,note_on,,0,0,2,,,,,,,,,1,,,62,95
86502,note_on,,6,0,2,,,,,,,,,1,,,61,0
86502,note_on,,6,0,1,,,,,,,,,0,,,64,0
86502,note_on,,0,0,1,,,,,,,,,0,,,66,95
86508,note_on,,6,0,1,,,,,,,,,0,,,66,0
86508,note_on,,0,0,1,,,,,,,,,0,,,64,95
86508,note_on,,0,0,2,,,,,,,,,1,,,61,95
86508,note_on,,6,0,2,,,,,,,,,1,,,62,0
86510,note_on,,14,0,3,,,,,,,,,2,,,69,0
86512,note_on,,16,0,4,,,,,,,,,3,,,64,95
86512,note_on,,2,0,3,,,,,,,,,2,,,73,95
86514,note_on,,6,0,1,,,,,,,,,0,,,64,0
86514,note_on,,0,0,2,,,,,,,,,1,,,62,95
86514,note_on,,6,0,2,,,,,,,,,1,,,61,0
86514,note_on,,0,0,1,,,,,,,,,0,,,66,95
86520,note_on,,0,0,2,,,,,,,,,1,,,61,95
86520,note_on,,6,0,2,,,,,,,,,1,,,62,0
86520,note_on,,6,0,1,,,,,,,,,0,,,66,0
86520,note_on,,0,0,1,,,,,,,,,0,,,64,95
86526,note_on,,6,0,1,,,,,,,,,0,,,64,0
86526,note_on,,0,0,1,,,,,,,,,0,,,66,95
86526,note_on,,14,0,3,,,,,,,,,2,,,73,0
86526,note_on,,6,0,2,,,,,,,,,1,,,61,0
86526,note_on,,0,0,2,,,,,,,,,1,,,62,95
86528,note_on,,2,0,3,,,,,,,,,2,,,71,95
86528,note_on,,16,0,4,,,,,,,,,3,,,64,0
86528,note_on,,0,0,4,,,,,,,,,3,,,62,95
86532,note_on,,0,0,1,,,,,,,,,0,,,64,95
86532,note_on,,0,0,2,,,,,,,,,1,,,61,95
86532,note_on,,6,0,2,,,,,,,,,1,,,62,0
86532,note_on,,6,0,1,,,,,,,,,0,,,66,0
86538,note_on,,0,0,2,,,,,,,,,1,,,62,95
86538,note_on,,6,0,2,,,,,,,,,1,,,61,0
86538,note_on,,6,0,1,,,,,,,,,0,,,64,0
86538,note_on,,0,0,1,,,,,,,,,0,,,66,95
86542,note_on,,14,0,3,,,,,,,,,2,,,71,0
86544,note_on,,0,0,2,,,,,,,,,1,,,61,95
86544,note_on,,6,0,1,,,,,,,,,0,,,66,0
86544,note_on,,0,0,1,,,,,,,,,0,,,64,95
86544,note_on,,2,0,3,,,,,,,,,2,,,69,95
86544,note_on,,0,0,4,,,,,,,,,3,,,61,95
86544,note_on,,16,0,4,,,,,,,,,3,,,62,0
86544,note_on,,6,0,2,,,,,,,,,1,,,62,0
86550,note_on,,0,0,2,,,,,,,,,1,,,62,95
86550,note_on,,6,0,2,,,,,,,,,1,,,61,0
86550,note_on,,0,0,1,,,,,,,,,0,,,66,95
86550,note_on,,6,0,1,,,,,,,,,0,,,64,0
86556,note_on,,0,0,1,,,,,,,,,0,,,64,95
86556,note_on,,0,0,2,,,,,,,,,1,,,61,95
86556,note_on,,6,0,2,,,,,,,,,1,,,62,0
86556,note_on,,6,0,1,,,,,,,,,0,,,66,0
86558,note_on,,14,0,3,,,,,,,,,2,,,69,0
86560,note_on,,16,0,4,,,,,,,,,3,,,61,0
86560,note_on,,2,0,3,,,,,,,,,2,,,73,95
86560,note_on,,0,0,4,,,,,,,,,3,,,64,95
86562,note_on,,6,0,2,,,,,,,,,1,,,61,0
86562,note_on,,0,0,2,,,,,,,,,1,,,62,95
86562,note_on,,6,0,1,,,,,,,,,0,,,64,0
86562,note_on,,0,0,1,,,,,,,,,0,,,66,95
86568,note_on,,0,0,2,,,,,,,,,1,,,61,95
86568,note_on,,6,0,2,,,,,,,,,1,,,62,0
86568,note_on,,0,0,1,,,,,,,,,0,,,64,95
86568,note_on,,6,0,1,,,,,,,,,0,,,66,0
86574,note_on,,6,0,1,,,,,,,,,0,,,64,0
86574,note_on,,0,0,2,,,,,,,,,1,,,62,95
86574,note_on,,6,0,2,,,,,,,,,1,,,61,0
86574,note_on,,14,0,3,,,,,,,,,2,,,73,0
86574,note_on,,0,0,1,,,,,,,,,0,,,66,95
86576,note_on,,0,0,4,,,,,,,,,3,,,62,95
86576,note_on,,16,0,4,,,,,,,,,3,,,64,0
86576,note_on,,2,0,3,,,,,,,,,2,,,71,95
86580,note_on,,0,0,1,,,,,,,,,0,,,64,95
86580,note_on,,6,0,2,,,,,,,,,1,,,62,0
86580,note_on,,6,0,1,,,,,,,,,0,,,66,0
86580,note_on,,0,0,2,,,,,,,,,1,,,61,95
86586,note_on,,6,0,1,,,,,,,,,0,,,64,0
86586,note_on,,6,0,2,,,,,,,,,1,,,61,0
86586,note_on,,0,0,1,,,,,,,,,0,,,66,95
86586,note_on,,0,0,2,,,,,,,,,1,,,62,95
86590,note_on,,14,0,3,,,,,,,,,2,,,71,0
86592,note_on,,6,0,1,,,,,,,,,0,,,66,0
86592,note_on,,0,0,2,,,,,,,,,1,,,61,95
86592,note_on,,0,0,1,,,,,,,,,0,,,64,95
86592,note_on,,2,0,3,,,,,,,,,2,,,69,95
86592,note_on,,16,0,4,,,,,,,,,3,,,62,0
86592,note_on,,0,0,4,,,,,,,,,3,,,61,95
86592,note_on,,6,0,2,,,,,,,,,1,,,62,0
86608,note_on,,16,0,2,,,,,,,,,1,,,61,0
86608,note_on,,0,0,2,,,,,,,,,1,,,57,95
86608,note_on,,16,0,1,,,,,,,,,0,,,64,0
86608,note_on,,0,0,1,,,,,,,,,0,,,61,95
86624,note_on,,16,0,2,,,,,,,,,1,,,57,0
86624,note_on,,0,0,2,,,,,,,,,1,,,59,95
86624,note_on,,16,0,1,,,,,,,,,0,,,61,0
86624,note_on,,0,0,1,,,,,,,,,0,,,62,95
86640,note_on,,16,0,1,,,,,,,,,0,,,62,0
86640,note_on,,0,0,1,,,,,,,,,0,,,64,95
86640,note_on,,16,0,2,,,,,,,,,1,,,59,0
86640,note_on,,0,0,2,,,,,,,,,1,,,61,95
86656,note_on,,16,0,2,,,,,,,,,1,,,61,0
86656,note_on,,0,0,2,,,,,,,,,1,,,59,95
86656,note_on,,0,0,1,,,,,,,,,0,,,62,95
86656,note_on,,16,0,1,,,,,,,,,0,,,64,0
86672,note_on,,16,0,2,,,,,,,,,1,,,59,0
86672,note_on,,0,0,2,,,,,,,,,1,,,61,95
86672,note_on,,0,0,1,,,,,,,,,0,,,64,95
86672,note_on,,16,0,1,,,,,,,,,0,,,62,0
86676,note_on,,84,0,3,,,,,,,,,2,,,69,0
86688,note_on,,0,0,4,,,,,,,,,3,,,59,95
86688,note_on,,0,0,1,,,,,,,,,0,,,66,95
86688,note_on,,96,0,4,,,,,,,,,3,,,61,0
86688,note_on,,12,0,3,,,,,,,,,2,,,69,95
86688,note_on,,16,0,1,,,,,,,,,0,,,64,0
86688,note_on,,0,0,2,,,,,,,,,1,,,63,95
86688,note_on,,16,0,2,,,,,,,,,1,,,61,0
86704,note_on,,0,0,2,,,,,,,,,1,,,66,95
86704,note_on,,16,0,2,,,,,,,,,1,,,63,0
86704,note_on,,16,0,1,,,,,,,,,0,,,66,0
86704,note_on,,0,0,1,,,,,,,,,0,,,69,95
86720,note_on,,0,0,2,,,,,,,,,1,,,64,95
86720,note_on,,0,0,1,,,,,,,,,0,,,68,95
86720,note_on,,16,0,1,,,,,,,,,0,,,69,0
86720,note_on,,16,0,2,,,,,,,,,1,,,66,0
86736,note_on,,16,0,2,,,,,,,,,1,,,64,0
86736,note_on,,0,0,2,,,,,,,,,1,,,63,95
86736,note_on,,16,0,1,,,,,,,,,0,,,68,0
86736,note_on,,0,0,1,,,,,,,,,0,,,66,95
86752,note_on,,0,0,1,,,,,,,,,0,,,69,95
86752,note_on,,16,0,1,,,,,,,,,0,,,66,0
86752,note_on,,16,0,2,,,,,,,,,1,,,63,0
86752,note_on,,0,0,2,,,,,,,,,1,,,66,95
86768,note_on,,0,0,1,,,,,,,,,0,,,68,95
86768,note_on,,0,0,2,,,,,,,,,1,,,64,95
86768,note_on,,16,0,2,,,,,,,,,1,,,66,0
86768,note_on,,16,0,1,,,,,,,,,0,,,69,0
86772,note_on,,84,0,3,,,,,,,,,2,,,69,0
86784,note_on,,96,0,4,,,,,,,,,3,,,59,0
86784,note_on,,0,0,1,,,,,,,,,0,,,66,95
86784,note_on,,16,0,2,,,,,,,,,1,,,64,0
86784,note_on,,0,0,2,,,,,,,,,1,,,63,95
86784,note_on,,0,0,4,,,,,,,,,3,,,78,95
86784,note_on,,12,0,3,,,,,,,,,2,,,69,95
86784,note_on,,16,0,1,,,,,,,,,0,,,68,0
86800,note_on,,0,0,1,,,,,,,,,0,,,63,95
86800,note_on,,16,0,2,,,,,,,,,1,,,63,0
86800,note_on,,0,0,2,,,,,,,,,1,,,59,95
86800,note_on,,16,0,1,,,,,,,,,0,,,66,0
86816,note_on,,16,0,1,,,,,,,,,0,,,63,0
86816,note_on,,0,0,1,,,,,,,,,0,,,64,95
86816,note_on,,16,0,2,,,,,,,,,1,,,59,0
86816,note_on,,0,0,2,,,,,,,,,1,,,61,95
86832,note_on,,16,0,1,,,,,,,,,0,,,64,0
86832,note_on,,0,0,1,,,,,,,,,0,,,66,95
86832,note_on,,16,0,2,,,,,,,,,1,,,61,0
86832,note_on,,0,0,2,,,,,,,,,1,,,63,95
86848,note_on,,0,0,1,,,,,,,,,0,,,64,95
86848,note_on,,16,0,1,,,,,,,,,0,,,66,0
86848,note_on,,16,0,2,,,,,,,,,1,,,63,0
86848,note_on,,0,0,2,,,,,,,,,1,,,61,95
86864,note_on,,16,0,1,,,,,,,,,0,,,64,0
86864,note_on,,16,0,2,,,,,,,,,1,,,61,0
86864,note_on,,0,0,2,,,,,,,,,1,,,63,95
86864,note_on,,0,0,1,,,,,,,,,0,,,66,95
86868,note_on,,84,0,3,,,,,,,,,2,,,69,0
86880,note_on,,0,0,1,,,,,,,,,0,,,68,95
86880,note_on,,12,0,3,,,,,,,,,2,,,68,95
86880,note_on,,16,0,2,,,,,,,,,1,,,63,0
86880,note_on,,0,0,2,,,,,,,,,1,,,64,95
86880,note_on,,16,0,1,,,,,,,,,0,,,66,0
86888,note_on,,8,0,2,,,,,,,,,1,,,64,0
86888,note_on,,0,0,2,,,,,,,,,1,,,62,95
86894,note_on,,14,0,3,,,,,,,,,2,,,68,0
86896,note_on,,2,0,3,,,,,,,,,2,,,69,95
86896,note_on,,8,0,2,,,,,,,,,1,,,62,0
86896,note_on,,0,0,2,,,,,,,,,1,,,64,95
86896,note_on,,16,0,1,,,,,,,,,0,,,68,0
86904,note_on,,0,0,2,,,,,,,,,1,,,66,95
86904,note_on,,8,0,2,,,,,,,,,1,,,64,0
86910,note_on,,14,0,3,,,,,,,,,2,,,69,0
86912,note_on,,0,0,2,,,,,,,,,1,,,64,95
86912,note_on,,2,0,3,,,,,,,,,2,,,71,95
86912,note_on,,8,0,2,,,,,,,,,1,,,66,0
86920,note_on,,8,0,2,,,,,,,,,1,,,64,0
86920,note_on,,0,0,2,,,,,,,,,1,,,62,95
86926,note_on,,14,0,3,,,,,,,,,2,,,71,0
86928,note_on,,2,0,3,,,,,,,,,2,,,73,95
86928,note_on,,0,0,1,,,,,,,,,0,,,76,95
86928,note_on,,0,0,1,,,,,,,,,0,,,71,95
86928,note_on,,32,0,1,,,,,,,,,0,,,73,95
86928,note_on,,0,0,2,,,,,,,,,1,,,61,95
86928,note_on,,0,0,4,,,,,,,,,3,,,76,95
86928,note_on,,144,0,4,,,,,,,,,3,,,78,0
86928,note_on,,8,0,2,,,,,,,,,1,,,62,0
86936,note_on,,0,0,2,,,,,,,,,1,,,62,95
86936,note_on,,8,0,2,,,,,,,,,1,,,61,0
86944,note_on,,16,0,4,,,,,,,,,3,,,76,0
86944,note_on,,0,0,2,,,,,,,,,1,,,61,95
86944,note_on,,8,0,2,,,,,,,,,1,,,62,0
86944,note_on,,0,0,4,,,,,,,,,3,,,78,95
86952,note_on,,0,0,1,,,,,,,,,0,,,71,0
86952,note_on,,24,0,1,,,,,,,,,0,,,76,0
86952,note_on,,0,0,1,,,,,,,,,0,,,73,0
86952,note_on,,0,0,2,,,,,,,,,1,,,59,95
86952,note_on,,8,0,2,,,,,,,,,1,,,61,0
86960,note_on,,16,0,4,,,,,,,,,3,,,78,0
86960,note_on,,0,0,4,,,,,,,,,3,,,80,95
86960,note_on,,0,0,2,,,,,,,,,1,,,57,95
86960,note_on,,8,0,2,,,,,,,,,1,,,59,0
86968,note_on,,0,0,2,,,,,,,,,1,,,56,95
86968,note_on,,8,0,2,,,,,,,,,1,,,57,0
86976,note_on,,24,0,1,,,,,,,,,0,,,73,95
86976,note_on,,0,0,2,,,,,,,,,1,,,54,95
86976,note_on,,8,0,2,,,,,,,,,1,,,56,0
86976,note_on,,0,0,1,,,,,,,,,0,,,69,95
86976,note_on,,0,0,4,,,,,,,,,3,,,81,95
86976,note_on,,16,0,4,,,,,,,,,3,,,80,0
86976,note_on,,0,0,1,,,,,,,,,0,,,76,95
86984,note_on,,8,0,2,,,,,,,,,1,,,54,0
86984,note_on,,0,0,2,,,,,,,,,1,,,52,95
86991,note_on,,63,0,3,,,,,,,,,2,,,73,0
86992,note_on,,1,0,3,,,,,,,,,2,,,78,95
86992,note_on,,8,0,2,,,,,,,,,1,,,52,0
86992,note_on,,0,0,2,,,,,,,,,1,,,54,95
87000,note_on,,8,0,2,,,,,,,,,1,,,54,0
87000,note_on,,0,0,2,,,,,,,,,1,,,56,95
87000,note_on,,0,0,1,,,,,,,,,0,,,73,0
87000,note_on,,0,0,1,,,,,,,,,0,,,69,0
87000,note_on,,24,0,1,,,,,,,,,0,,,76,0
87002,note_on,,10,0,3,,,,,,,,,2,,,78,0
87008,note_on,,8,0,2,,,,,,,,,1,,,56,0
87008,note_on,,6,0,3,,,,,,,,,2,,,76,95
87008,note_on,,0,0,2,,,,,,,,,1,,,57,95
87016,note_on,,8,0,2,,,,,,,,,1,,,57,0
87016,note_on,,0,0,2,,,,,,,,,1,,,54,95
87018,note_on,,10,0,3,,,,,,,,,2,,,76,0
87024,note_on,,8,0,2,,,,,,,,,1,,,54,0
87024,note_on,,0,0,2,,,,,,,,,1,,,59,95
87024,note_on,,0,0,1,,,,,,,,,0,,,66,95
87024,note_on,,0,0,1,,,,,,,,,0,,,74,95
87024,note_on,,6,0,3,,,,,,,,,2,,,74,95
87024,note_on,,24,0,1,,,,,,,,,0,,,71,95
87032,note_on,,0,0,2,,,,,,,,,1,,,61,95
87032,note_on,,8,0,2,,,,,,,,,1,,,59,0
87040,note_on,,8,0,2,,,,,,,,,1,,,61,0
87040,note_on,,0,0,2,,,,,,,,,1,,,59,95
87040,note_on,,64,0,4,,,,,,,,,3,,,83,95
87048,note_on,,0,0,1,,,,,,,,,0,,,71,0
87048,note_on,,24,0,1,,,,,,,,,0,,,74,0
87048,note_on,,0,0,2,,,,,,,,,1,,,57,95
87048,note_on,,8,0,2,,,,,,,,,1,,,59,0
87048,note_on,,8,0,4,,,,,,,,,3,,,81,0
87048,note_on,,0,0,1,,,,,,,,,0,,,66,0
87056,note_on,,0,0,4,,,,,,,,,3,,,81,95
87056,note_on,,8,0,4,,,,,,,,,3,,,83,0
87056,note_on,,8,0,2,,,,,,,,,1,,,57,0
87056,note_on,,0,0,2,,,,,,,,,1,,,56,95
87064,note_on,,0,0,2,,,,,,,,,1,,,54,95
87064,note_on,,8,0,2,,,,,,,,,1,,,56,0
87072,note_on,,0,0,4,,,,,,,,,3,,,80,95
87072,note_on,,0,0,2,,,,,,,,,1,,,52,95
87072,note_on,,8,0,2,,,,,,,,,1,,,54,0
87072,note_on,,16,0,4,,,,,,,,,3,,,81,0
87072,note_on,,0,0,1,,,,,,,,,0,,,68,95
87072,note_on,,0,0,1,,,,,,,,,0,,,74,95
87072,note_on,,24,0,1,,,,,,,,,0,,,71,95
87080,note_on,,0,0,2,,,,,,,,,1,,,50,95
87080,note_on,,8,0,2,,,,,,,,,1,,,52,0
87088,note_on,,16,0,4,,,,,,,,,3,,,80,0
87088,note_on,,0,0,4,,,,,,,,,3,,,78,95
87088,note_on,,8,0,2,,,,,,,,,1,,,50,0
87088,note_on,,0,0,2,,,,,,,,,1,,,52,95
87096,note_on,,0,0,2,,,,,,,,,1,,,54,95
87096,note_on,,0,0,1,,,,,,,,,0,,,71,0
87096,note_on,,0,0,1,,,,,,,,,0,,,68,0
87096,note_on,,8,0,2,,,,,,,,,1,,,52,0
87096,note_on,,24,0,1,,,,,,,,,0,,,74,0
87096,note_on,,72,0,3,,,,,,,,,2,,,74,0
87104,note_on,,8,0,2,,,,,,,,,1,,,54,0
87104,note_on,,0,0,4,,,,,,,,,3,,,76,95
87104,note_on,,16,0,4,,,,,,,,,3,,,78,0
87104,note_on,,0,0,2,,,,,,,,,1,,,56,95
87108,note_on,,12,0,3,,,,,,,,,2,,,83,95
87112,note_on,,8,0,2,,,,,,,,,1,,,56,0
87112,note_on,,0,0,2,,,,,,,,,1,,,52,95
87120,note_on,,24,0,1,,,,,,,,,0,,,69,95
87120,note_on,,8,0,2,,,,,,,,,1,,,52,0
87120,note_on,,0,0,3,,,,,,,,,2,,,73,95
87120,note_on,,0,0,2,,,,,,,,,1,,,54,95
87120,note_on,,0,0,1,,,,,,,,,0,,,73,95
87120,note_on,,16,0,4,,,,,,,,,3,,,76,0
87120,note_on,,0,0,4,,,,,,,,,3,,,81,95
87120,note_on,,12,0,3,,,,,,,,,2,,,83,0
87128,note_on,,8,0,2,,,,,,,,,1,,,54,0
87128,note_on,,0,0,2,,,,,,,,,1,,,57,95
87136,note_on,,8,0,2,,,,,,,,,1,,,57,0
87136,note_on,,0,0,2,,,,,,,,,1,,,56,95
87144,note_on,,0,0,2,,,,,,,,,1,,,54,95
87144,note_on,,8,0,2,,,,,,,,,1,,,56,0
87152,note_on,,8,0,2,,,,,,,,,1,,,54,0
87152,note_on,,0,0,2,,,,,,,,,1,,,52,95
87156,note_on,,0,0,3,,,,,,,,,2,,,78,95
87156,note_on,,36,0,3,,,,,,,,,2,,,73,0
87156,note_on,,36,0,1,,,,,,,,,0,,,73,0
87156,note_on,,0,0,1,,,,,,,,,0,,,74,95
87160,note_on,,8,0,2,,,,,,,,,1,,,52,0
87160,note_on,,0,0,2,,,,,,,,,1,,,50,95
87168,note_on,,8,0,2,,,,,,,,,1,,,50,0
87168,note_on,,0,0,2,,,,,,,,,1,,,49,95
87168,note_on,,12,0,3,,,,,,,,,2,,,78,0
87168,note_on,,0,0,1,,,,,,,,,0,,,76,95
87168,note_on,,0,0,3,,,,,,,,,2,,,76,95
87168,note_on,,12,0,1,,,,,,,,,0,,,74,0
87184,note_on,,0,0,2,,,,,,,,,1,,,47,95
87184,note_on,,16,0,2,,,,,,,,,1,,,49,0
87184,note_on,,16,0,3,,,,,,,,,2,,,76,0
87184,note_on,,0,0,3,,,,,,,,,2,,,74,95
87200,note_on,,0,0,3,,,,,,,,,2,,,73,95
87200,note_on,,0,0,2,,,,,,,,,1,,,45,95
87200,note_on,,16,0,2,,,,,,,,,1,,,47,0
87200,note_on,,16,0,3,,,,,,,,,2,,,74,0
87204,note_on,,36,0,1,,,,,,,,,0,,,76,0
87204,note_on,,0,0,1,,,,,,,,,0,,,78,95
87216,note_on,,16,0,3,,,,,,,,,2,,,73,0
87216,note_on,,0,0,2,,,,,,,,,1,,,52,95
87216,note_on,,0,0,4,,,,,,,,,3,,,80,95
87216,note_on,,96,0,4,,,,,,,,,3,,,81,0
87216,note_on,,12,0,1,,,,,,,,,0,,,78,0
87216,note_on,,0,0,3,,,,,,,,,2,,,71,95
87216,note_on,,0,0,1,,,,,,,,,0,,,71,95
87216,note_on,,0,0,1,,,,,,,,,0,,,69,0
87216,note_on,,16,0,2,,,,,,,,,1,,,45,0
87232,note_on,,16,0,3,,,,,,,,,2,,,71,0
87232,note_on,,0,0,3,,,,,,,,,2,,,73,95
87248,note_on,,0,0,3,,,,,,,,,2,,,74,95
87248,note_on,,16,0,3,,,,,,,,,2,,,73,0
87252,note_on,,36,0,1,,,,,,,,,0,,,71,0
87252,note_on,,0,0,1,,,,,,,,,0,,,69,95
87252,note_on,,0,0,2,,,,,,,,,1,,,40,95
87252,note_on,,36,0,2,,,,,,,,,1,,,52,0
87264,note_on,,12,0,1,,,,,,,,,0,,,69,0
87264,note_on,,0,0,3,,,,,,,,,2,,,73,95
87264,note_on,,48,0,4,,,,,,,,,3,,,80,0
87264,note_on,,0,0,4,,,,,,,,,3,,,81,95
87264,note_on,,0,0,2,,,,,,,,,1,,,45,95
87264,note_on,,12,0,2,,,,,,,,,1,,,40,0
87264,note_on,,16,0,3,,,,,,,,,2,,,74,0
87264,note_on,,0,0,1,,,,,,,,,0,,,69,95
87280,note_on,,16,0,3,,,,,,,,,2,,,73,0
87280,note_on,,0,0,3,,,,,,,,,2,,,71,95
87288,note_on,,24,0,1,,,,,,,,,0,,,69,0
87288,note_on,,24,0,2,,,,,,,,,1,,,45,0
87296,note_on,,16,0,3,,,,,,,,,2,,,71,0
87296,note_on,,0,0,3,,,,,,,,,2,,,69,95
87300,note_on,,2772,0,6,,,,,,,,,5,,,69,95
87312,note_on,,0,0,3,,,,,,,,,2,,,74,95
87312,note_on,,2688,0,7,,,,,,,,,6,,,42,95
87312,note_on,,24,0,2,,,,,,,,,1,,,42,95
87312,note_on,,16,0,3,,,,,,,,,2,,,69,0
87312,note_on,,0,0,6,,,,,,,,,5,,,74,95
87312,note_on,,2688,0,8,,,,,,,,,7,,,30,95
87312,note_on,,12,0,6,,,,,,,,,5,,,69,0
87328,note_on,,64,0,4,,,,,,,,,3,,,79,95
87328,note_on,,16,0,7,,,,,,,,,6,,,42,0
87328,note_on,,16,0,8,,,,,,,,,7,,,30,0
87336,note_on,,8,0,4,,,,,,,,,3,,,81,0
87336,note_on,,24,0,2,,,,,,,,,1,,,42,0
87344,note_on,,8,0,4,,,,,,,,,3,,,79,0
87344,note_on,,0,0,4,,,,,,,,,3,,,78,95
87348,note_on,,36,0,6,,,,,,,,,5,,,74,0
87348,note_on,,0,0,6,,,,,,,,,5,,,69,95
87360,note_on,,0,0,6,,,,,,,,,5,,,71,95
87360,note_on,,32,0,7,,,,,,,,,6,,,43,95
87360,note_on,,24,0,2,,,,,,,,,1,,,43,95
87360,note_on,,16,0,4,,,,,,,,,3,,,78,0
87360,note_on,,0,0,4,,,,,,,,,3,,,76,95
87360,note_on,,12,0,6,,,,,,,,,5,,,69,0
87360,note_on,,32,0,8,,,,,,,,,7,,,31,95
87376,note_on,,64,0,3,,,,,,,,,2,,,73,95
87376,note_on,,0,0,6,,,,,,,,,5,,,69,95
87376,note_on,,16,0,8,,,,,,,,,7,,,31,0
87376,note_on,,16,0,7,,,,,,,,,6,,,43,0
87376,note_on,,16,0,6,,,,,,,,,5,,,71,0
87384,note_on,,24,0,2,,,,,,,,,1,,,43,0
87384,note_on,,8,0,3,,,,,,,,,2,,,74,0
87392,note_on,,0,0,3,,,,,,,,,2,,,71,95
87392,note_on,,16,0,6,,,,,,,,,5,,,69,0
87392,note_on,,0,0,6,,,,,,,,,5,,,67,95
87392,note_on,,8,0,3,,,,,,,,,2,,,73,0
87408,note_on,,16,0,6,,,,,,,,,5,,,67,0
87408,note_on,,0,0,6,,,,,,,,,5,,,66,95
87408,note_on,,32,0,7,,,,,,,,,6,,,45,95
87408,note_on,,0,0,3,,,,,,,,,2,,,69,95
87408,note_on,,24,0,2,,,,,,,,,1,,,45,95
87408,note_on,,16,0,3,,,,,,,,,2,,,71,0
87408,note_on,,32,0,8,,,,,,,,,7,,,33,95
87424,note_on,,64,0,4,,,,,,,,,3,,,74,95
87424,note_on,,16,0,8,,,,,,,,,7,,,33,0
87424,note_on,,16,0,7,,,,,,,,,6,,,45,0
87424,note_on,,16,0,6,,,,,,,,,5,,,66,0
87424,note_on,,0,0,6,,,,,,,,,5,,,67,95
87432,note_on,,24,0,2,,,,,,,,,1,,,45,0
87432,note_on,,8,0,4,,,,,,,,,3,,,76,0
87440,note_on,,8,0,4,,,,,,,,,3,,,74,0
87440,note_on,,0,0,4,,,,,,,,,3,,,73,95
87440,note_on,,16,0,6,,,,,,,,,5,,,67,0
87440,note_on,,0,0,6,,,,,,,,,5,,,69,95
87444,note_on,,0,0,3,,,,,,,,,2,,,67,95
87444,note_on,,36,0,3,,,,,,,,,2,,,69,0
87456,note_on,,0,0,6,,,,,,,,,5,,,62,95
87456,note_on,,32,0,7,,,,,,,,,6,,,47,95
87456,note_on,,12,0,3,,,,,,,,,2,,,67,0
87456,note_on,,32,0,8,,,,,,,,,7,,,35,95
87456,note_on,,24,0,2,,,,,,,,,1,,,47,95
87456,note_on,,0,0,3,,,,,,,,,2,,,66,95
87456,note_on,,0,0,4,,,,,,,,,3,,,74,95
87456,note_on,,16,0,4,,,,,,,,,3,,,73,0
87456,note_on,,16,0,6,,,,,,,,,5,,,69,0
87472,note_on,,16,0,7,,,,,,,,,6,,,47,0
87472,note_on,,16,0,8,,,,,,,,,7,,,35,0
87472,note_on,,16,0,3,,,,,,,,,2,,,66,0
87472,note_on,,0,0,3,,,,,,,,,2,,,64,95
87472,note_on,,16,0,4,,,,,,,,,3,,,74,0
87472,note_on,,0,0,4,,,,,,,,,3,,,73,95
87480,note_on,,24,0,6,,,,,,,,,5,,,62,0
87480,note_on,,24,0,2,,,,,,,,,1,,,47,0
87488,note_on,,16,0,4,,,,,,,,,3,,,73,0
87488,note_on,,0,0,4,,,,,,,,,3,,,71,95
87488,note_on,,16,0,3,,,,,,,,,2,,,64,0
87488,note_on,,0,0,3,,,,,,,,,2,,,62,95
87492,note_on,,2973,0,5,,,,,,,,,4,,,74,95
87504,note_on,,32,0,8,,,,,,,,,7,,,37,95
87504,note_on,,16,0,4,,,,,,,,,3,,,71,0
87504,note_on,,32,0,7,,,,,,,,,6,,,49,95
87504,note_on,,16,0,3,,,,,,,,,2,,,62,0
87504,note_on,,0,0,4,,,,,,,,,3,,,69,95
87504,note_on,,24,0,6,,,,,,,,,5,,,64,95
87504,note_on,,0,0,3,,,,,,,,,2,,,69,95
87504,note_on,,12,0,5,,,,,,,,,4,,,74,0
87504,note_on,,24,0,2,,,,,,,,,1,,,49,95
87504,note_on,,0,0,5,,,,,,,,,4,,,81,95
87520,note_on,,16,0,7,,,,,,,,,6,,,49,0
87520,note_on,,16,0,8,,,,,,,,,7,,,37,0
87520,note_on,,0,0,4,,,,,,,,,3,,,73,95
87520,note_on,,16,0,4,,,,,,,,,3,,,69,0
87528,note_on,,24,0,6,,,,,,,,,5,,,64,0
87528,note_on,,24,0,3,,,,,,,,,2,,,69,0
87528,note_on,,24,0,2,,,,,,,,,1,,,49,0
87536,note_on,,0,0,4,,,,,,,,,3,,,79,95
87536,note_on,,16,0,4,,,,,,,,,3,,,73,0
87540,note_on,,36,0,5,,,,,,,,,4,,,81,0
87540,note_on,,0,0,5,,,,,,,,,4,,,74,95
87552,note_on,,12,0,5,,,,,,,,,4,,,74,0
87552,note_on,,24,0,6,,,,,,,,,5,,,57,95
87552,note_on,,32,0,8,,,,,,,,,7,,,38,95
87552,note_on,,24,0,2,,,,,,,,,1,,,50,95
87552,note_on,,0,0,5,,,,,,,,,4,,,78,95
87552,note_on,,32,0,7,,,,,,,,,6,,,50,95
87552,note_on,,16,0,4,,,,,,,,,3,,,79,0
87552,note_on,,0,0,4,,,,,,,,,3,,,78,95
87568,note_on,,16,0,5,,,,,,,,,4,,,78,0
87568,note_on,,0,0,5,,,,,,,,,4,,,76,95
87568,note_on,,16,0,8,,,,,,,,,7,,,38,0
87568,note_on,,16,0,7,,,,,,,,,6,,,50,0
87576,note_on,,24,0,2,,,,,,,,,1,,,50,0
87576,note_on,,24,0,4,,,,,,,,,3,,,78,0
87576,note_on,,24,0,6,,,,,,,,,5,,,57,0
87584,note_on,,16,0,5,,,,,,,,,4,,,76,0
87584,note_on,,0,0,5,,,,,,,,,4,,,74,95
87600,note_on,,0,0,5,,,,,,,,,4,,,73,95
87600,note_on,,16,0,5,,,,,,,,,4,,,74,0
87600,note_on,,32,0,8,,,,,,,,,7,,,40,95
87600,note_on,,24,0,6,,,,,,,,,5,,,64,95
87600,note_on,,32,0,7,,,,,,,,,6,,,52,95
87600,note_on,,24,0,4,,,,,,,,,3,,,80,95
87600,note_on,,24,0,2,,,,,,,,,1,,,52,95
87616,note_on,,0,0,5,,,,,,,,,4,,,74,95
87616,note_on,,16,0,7,,,,,,,,,6,,,52,0
87616,note_on,,16,0,5,,,,,,,,,4,,,73,0
87616,note_on,,16,0,8,,,,,,,,,7,,,40,0
87624,note_on,,24,0,4,,,,,,,,,3,,,80,0
87624,note_on,,24,0,2,,,,,,,,,1,,,52,0
87624,note_on,,24,0,6,,,,,,,,,5,,,64,0
87632,note_on,,16,0,5,,,,,,,,,4,,,74,0
87632,note_on,,0,0,5,,,,,,,,,4,,,76,95
87648,note_on,,32,0,7,,,,,,,,,6,,,54,95
87648,note_on,,24,0,4,,,,,,,,,3,,,81,95
87648,note_on,,24,0,6,,,,,,,,,5,,,61,95
87648,note_on,,0,0,5,,,,,,,,,4,,,69,95
87648,note_on,,16,0,5,,,,,,,,,4,,,76,0
87648,note_on,,24,0,2,,,,,,,,,1,,,54,95
87648,note_on,,32,0,8,,,,,,,,,7,,,42,95
87664,note_on,,16,0,7,,,,,,,,,6,,,54,0
87664,note_on,,16,0,8,,,,,,,,,7,,,42,0
87664,note_on,,0,0,6,,,,,,,,,5,,,62,95
87664,note_on,,16,0,6,,,,,,,,,5,,,61,0
87664,note_on,,0,0,5,,,,,,,,,4,,,71,95
87664,note_on,,16,0,5,,,,,,,,,4,,,69,0
87672,note_on,,24,0,2,,,,,,,,,1,,,54,0
87680,note_on,,16,0,5,,,,,,,,,4,,,71,0
87680,note_on,,0,0,5,,,,,,,,,4,,,73,95
87680,note_on,,16,0,6,,,,,,,,,5,,,62,0
87680,note_on,,0,0,6,,,,,,,,,5,,,64,95
87684,note_on,,36,0,4,,,,,,,,,3,,,81,0
87684,note_on,,156,0,3,,,,,,,,,2,,,81,95
87684,note_on,,0,0,4,,,,,,,,,3,,,81,95
87696,note_on,,12,0,4,,,,,,,,,3,,,81,0
87696,note_on,,16,0,5,,,,,,,,,4,,,73,0
87696,note_on,,0,0,5,,,,,,,,,4,,,74,95
87696,note_on,,0,0,4,,,,,,,,,3,,,86,95
87696,note_on,,24,0,2,,,,,,,,,1,,,54,95
87696,note_on,,0,0,3,,,,,,,,,2,,,86,95
87696,note_on,,16,0,6,,,,,,,,,5,,,64,0
87696,note_on,,0,0,6,,,,,,,,,5,,,66,95
87696,note_on,,12,0,3,,,,,,,,,2,,,81,0
87696,note_on,,32,0,8,,,,,,,,,7,,,42,95
87696,note_on,,32,0,7,,,,,,,,,6,,,54,95
87712,note_on,,16,0,7,,,,,,,,,6,,,54,0
87712,note_on,,0,0,5,,,,,,,,,4,,,76,95
87712,note_on,,16,0,5,,,,,,,,,4,,,74,0
87712,note_on,,16,0,8,,,,,,,,,7,,,42,0
87712,note_on,,0,0,6,,,,,,,,,5,,,67,95
87712,note_on,,16,0,6,,,,,,,,,5,,,66,0
87720,note_on,,24,0,2,,,,,,,,,1,,,54,0
87728,note_on,,16,0,6,,,,,,,,,5,,,67,0
87728,note_on,,0,0,6,,,,,,,,,5,,,69,95
87728,note_on,,0,0,5,,,,,,,,,4,,,78,95
87728,note_on,,16,0,5,,,,,,,,,4,,,76,0
87732,note_on,,36,0,3,,,,,,,,,2,,,86,0
87732,note_on,,0,0,4,,,,,,,,,3,,,81,95
87732,note_on,,0,0,3,,,,,,,,,2,,,81,95
87732,note_on,,36,0,4,,,,,,,,,3,,,86,0
87744,note_on,,0,0,5,,,,,,,,,4,,,71,95
87744,note_on,,32,0,7,,,,,,,,,6,,,55,95
87744,note_on,,0,0,4,,,,,,,,,3,,,83,95
87744,note_on,,12,0,4,,,,,,,,,3,,,81,0
87744,note_on,,16,0,5,,,,,,,,,4,,,78,0
87744,note_on,,16,0,6,,,,,,,,,5,,,69,0
87744,note_on,,24,0,2,,,,,,,,,1,,,55,95
87744,note_on,,32,0,8,,,,,,,,,7,,,43,95
87744,note_on,,12,0,3,,,,,,,,,2,,,81,0
87744,note_on,,0,0,6,,,,,,,,,5,,,62,95
87744,note_on,,0,0,3,,,,,,,,,2,,,83,95
87760,note_on,,0,0,3,,,,,,,,,2,,,81,95
87760,note_on,,16,0,3,,,,,,,,,2,,,83,0
87760,note_on,,16,0,8,,,,,,,,,7,,,43,0
87760,note_on,,0,0,4,,,,,,,,,3,,,81,95
87760,note_on,,16,0,7,,,,,,,,,6,,,55,0
87760,note_on,,16,0,4,,,,,,,,,3,,,83,0
87768,note_on,,24,0,6,,,,,,,,,5,,,62,0
87768,note_on,,24,0,5,,,,,,,,,4,,,71,0
87768,note_on,,24,0,2,,,,,,,,,1,,,55,0
87776,note_on,,16,0,3,,,,,,,,,2,,,81,0
87776,note_on,,0,0,4,,,,,,,,,3,,,79,95
87776,note_on,,16,0,4,,,,,,,,,3,,,81,0
87776,note_on,,0,0,3,,,,,,,,,2,,,79,95
87792,note_on,,0,0,4,,,,,,,,,3,,,78,95
87792,note_on,,16,0,4,,,,,,,,,3,,,79,0
87792,note_on,,0,0,3,,,,,,,,,2,,,78,95
87792,note_on,,24,0,2,,,,,,,,,1,,,57,95
87792,note_on,,24,0,6,,,,,,,,,5,,,69,95
87792,note_on,,16,0,3,,,,,,,,,2,,,79,0
87792,note_on,,24,0,5,,,,,,,,,4,,,73,95
87792,note_on,,32,0,8,,,,,,,,,7,,,45,95
87792,note_on,,32,0,7,,,,,,,,,6,,,57,95
87808,note_on,,16,0,3,,,,,,,,,2,,,78,0
87808,note_on,,0,0,3,,,,,,,,,2,,,79,95
87808,note_on,,16,0,4,,,,,,,,,3,,,78,0
87808,note_on,,0,0,4,,,,,,,,,3,,,79,95
87808,note_on,,16,0,8,,,,,,,,,7,,,45,0
87808,note_on,,16,0,7,,,,,,,,,6,,,57,0
87816,note_on,,24,0,5,,,,,,,,,4,,,73,0
87816,note_on,,24,0,2,,,,,,,,,1,,,57,0
87816,note_on,,24,0,6,,,,,,,,,5,,,69,0
87824,note_on,,16,0,3,,,,,,,,,2,,,79,0
87824,note_on,,0,0,3,,,,,,,,,2,,,81,95
87824,note_on,,16,0,4,,,,,,,,,3,,,79,0
87824,note_on,,0,0,4,,,,,,,,,3,,,81,95
87840,note_on,,24,0,6,,,,,,,,,5,,,66,95
87840,note_on,,32,0,8,,,,,,,,,7,,,47,95
87840,note_on,,0,0,4,,,,,,,,,3,,,74,95
87840,note_on,,16,0,4,,,,,,,,,3,,,81,0
87840,note_on,,24,0,2,,,,,,,,,1,,,59,95
87840,note_on,,0,0,3,,,,,,,,,2,,,74,95
87840,note_on,,32,0,7,,,,,,,,,6,,,59,95
87840,note_on,,16,0,3,,,,,,,,,2,,,81,0
87840,note_on,,24,0,5,,,,,,,,,4,,,71,95
87856,note_on,,16,0,5,,,,,,,,,4,,,71,0
87856,note_on,,16,0,8,,,,,,,,,7,,,47,0
87856,note_on,,16,0,3,,,,,,,,,2,,,74,0
87856,note_on,,16,0,7,,,,,,,,,6,,,59,0
87856,note_on,,0,0,5,,,,,,,,,4,,,74,95
87864,note_on,,24,0,4,,,,,,,,,3,,,74,0
87864,note_on,,24,0,2,,,,,,,,,1,,,59,0
87864,note_on,,24,0,6,,,,,,,,,5,,,66,0
87872,note_on,,16,0,5,,,,,,,,,4,,,74,0
87872,note_on,,0,0,5,,,,,,,,,4,,,78,95
87888,note_on,,0,0,5,,,,,,,,,4,,,78,95
87888,note_on,,24,0,2,,,,,,,,,1,,,57,95
87888,note_on,,32,0,3,,,,,,,,,2,,,73,95
87888,note_on,,32,0,7,,,,,,,,,6,,,57,95
87888,note_on,,32,0,8,,,,,,,,,7,,,45,95
87888,note_on,,24,0,6,,,,,,,,,5,,,69,95
87888,note_on,,24,0,4,,,,,,,,,3,,,73,95
87888,note_on,,16,0,5,,,,,,,,,4,,,78,0
87904,note_on,,16,0,3,,,,,,,,,2,,,73,0
87904,note_on,,16,0,6,,,,,,,,,5,,,69,0
87904,note_on,,0,0,5,,,,,,,,,4,,,76,95
87904,note_on,,16,0,5,,,,,,,,,4,,,78,0
87904,note_on,,16,0,7,,,,,,,,,6,,,57,0
87904,note_on,,16,0,8,,,,,,,,,7,,,45,0
87904,note_on,,0,0,6,,,,,,,,,5,,,67,95
87912,note_on,,24,0,2,,,,,,,,,1,,,57,0
87912,note_on,,24,0,4,,,,,,,,,3,,,73,0
87920,note_on,,16,0,6,,,,,,,,,5,,,67,0
87920,note_on,,0,0,6,,,,,,,,,5,,,69,95
87920,note_on,,0,0,5,,,,,,,,,4,,,78,95
87920,note_on,,16,0,5,,,,,,,,,4,,,76,0
87936,note_on,,24,0,2,,,,,,,,,1,,,59,95
87936,note_on,,0,0,6,,,,,,,,,5,,,66,95
87936,note_on,,16,0,6,,,,,,,,,5,,,69,0
87936,note_on,,32,0,7,,,,,,,,,6,,,59,95
87936,note_on,,32,0,3,,,,,,,,,2,,,71,95
87936,note_on,,0,0,5,,,,,,,,,4,,,71,95
87936,note_on,,16,0,5,,,,,,,,,4,,,78,0
87936,note_on,,24,0,4,,,,,,,,,3,,,71,95
87936,note_on,,32,0,8,,,,,,,,,7,,,47,95
87952,note_on,,16,0,7,,,,,,,,,6,,,59,0
87952,note_on,,0,0,6,,,,,,,,,5,,,64,95
87952,note_on,,16,0,6,,,,,,,,,5,,,66,0
87952,note_on,,0,0,5,,,,,,,,,4,,,79,95
87952,note_on,,16,0,5,,,,,,,,,4,,,71,0
87952,note_on,,16,0,3,,,,,,,,,2,,,71,0
87952,note_on,,16,0,8,,,,,,,,,7,,,47,0
87960,note_on,,24,0,4,,,,,,,,,3,,,71,0
87960,note_on,,24,0,2,,,,,,,,,1,,,59,0
87968,note_on,,16,0,5,,,,,,,,,4,,,79,0
87968,note_on,,0,0,6,,,,,,,,,5,,,62,95
87968,note_on,,0,0,5,,,,,,,,,4,,,78,95
87968,note_on,,16,0,6,,,,,,,,,5,,,64,0
87984,note_on,,24,0,4,,,,,,,,,3,,,76,95
87984,note_on,,32,0,8,,,,,,,,,7,,,49,95
87984,note_on,,0,0,6,,,,,,,,,5,,,69,95
87984,note_on,,16,0,6,,,,,,,,,5,,,62,0
87984,note_on,,32,0,3,,,,,,,,,2,,,76,95
87984,note_on,,24,0,2,,,,,,,,,1,,,61,95
87984,note_on,,32,0,7,,,,,,,,,6,,,61,95
87984,note_on,,16,0,5,,,,,,,,,4,,,78,0
87984,note_on,,0,0,5,,,,,,,,,4,,,76,95
88000,note_on,,16,0,7,,,,,,,,,6,,,61,0
88000,note_on,,16,0,5,,,,,,,,,4,,,76,0
88000,note_on,,16,0,8,,,,,,,,,7,,,49,0
88000,note_on,,0,0,5,,,,,,,,,4,,,81,95
88000,note_on,,16,0,3,,,,,,,,,2,,,76,0
88008,note_on,,24,0,2,,,,,,,,,1,,,61,0
88008,note_on,,24,0,4,,,,,,,,,3,,,76,0
88008,note_on,,24,0,6,,,,,,,,,5,,,69,0
88016,note_on,,16,0,5,,,,,,,,,4,,,81,0
88016,note_on,,0,0,5,,,,,,,,,4,,,79,95
88032,note_on,,24,0,6,,,,,,,,,5,,,69,95
88032,note_on,,32,0,3,,,,,,,,,2,,,74,95
88032,note_on,,16,0,5,,,,,,,,,4,,,79,0
88032,note_on,,0,0,5,,,,,,,,,4,,,78,95
88032,note_on,,32,0,8,,,,,,,,,7,,,50,95
88032,note_on,,24,0,2,,,,,,,,,1,,,62,95
88032,note_on,,32,0,7,,,,,,,,,6,,,62,95
88032,note_on,,24,0,4,,,,,,,,,3,,,74,95
88048,note_on,,16,0,4,,,,,,,,,3,,,74,0
88048,note_on,,0,0,4,,,,,,,,,3,,,78,95
88048,note_on,,16,0,8,,,,,,,,,7,,,50,0
88048,note_on,,16,0,7,,,,,,,,,6,,,62,0
88048,note_on,,16,0,3,,,,,,,,,2,,,74,0
88048,note_on,,0,0,3,,,,,,,,,2,,,78,95
88056,note_on,,24,0,2,,,,,,,,,1,,,62,0
88056,note_on,,24,0,5,,,,,,,,,4,,,78,0
88056,note_on,,24,0,6,,,,,,,,,5,,,69,0
88064,note_on,,0,0,3,,,,,,,,,2,,,81,95
88064,note_on,,16,0,3,,,,,,,,,2,,,78,0
88064,note_on,,16,0,4,,,,,,,,,3,,,78,0
88064,note_on,,0,0,4,,,,,,,,,3,,,81,95
88080,note_on,,24,0,6,,,,,,,,,5,,,61,95
88080,note_on,,16,0,4,,,,,,,,,3,,,81,0
88080,note_on,,0,0,4,,,,,,,,,3,,,81,95
88080,note_on,,16,0,3,,,,,,,,,2,,,81,0
88080,note_on,,0,0,3,,,,,,,,,2,,,81,95
88080,note_on,,24,0,5,,,,,,,,,4,,,76,95
88096,note_on,,16,0,3,,,,,,,,,2,,,81,0
88096,note_on,,0,0,3,,,,,,,,,2,,,79,95
88096,note_on,,16,0,4,,,,,,,,,3,,,81,0
88096,note_on,,0,0,4,,,,,,,,,3,,,79,95
88104,note_on,,24,0,6,,,,,,,,,5,,,61,0
88104,note_on,,24,0,5,,,,,,,,,4,,,76,0
88112,note_on,,0,0,4,,,,,,,,,3,,,81,95
88112,note_on,,16,0,4,,,,,,,,,3,,,79,0
88112,note_on,,0,0,3,,,,,,,,,2,,,81,95
88112,note_on,,16,0,3,,,,,,,,,2,,,79,0
88128,note_on,,24,0,6,,,,,,,,,5,,,62,95
88128,note_on,,24,0,5,,,,,,,,,4,,,76,95
88128,note_on,,16,0,4,,,,,,,,,3,,,81,0
88128,note_on,,0,0,4,,,,,,,,,3,,,78,95
88128,note_on,,0,0,3,,,,,,,,,2,,,78,95
88128,note_on,,16,0,3,,,,,,,,,2,,,81,0
88144,note_on,,0,0,4,,,,,,,,,3,,,83,95
88144,note_on,,16,0,3,,,,,,,,,2,,,78,0
88144,note_on,,0,0,3,,,,,,,,,2,,,83,95
88144,note_on,,16,0,4,,,,,,,,,3,,,78,0
88152,note_on,,24,0,6,,,,,,,,,5,,,62,0
88152,note_on,,24,0,5,,,,,,,,,4,,,76,0
88160,note_on,,16,0,4,,,,,,,,,3,,,83,0
88160,note_on,,0,0,4,,,,,,,,,3,,,81,95
88160,note_on,,0,0,3,,,,,,,,,2,,,81,95
88160,note_on,,16,0,3,,,,,,,,,2,,,83,0
88176,note_on,,24,0,6,,,,,,,,,5,,,64,95
88176,note_on,,24,0,5,,,,,,,,,4,,,74,95
88176,note_on,,0,0,3,,,,,,,,,2,,,80,95
88176,note_on,,16,0,3,,,,,,,,,2,,,81,0
88176,note_on,,16,0,4,,,,,,,,,3,,,81,0
88176,note_on,,0,0,4,,,,,,,,,3,,,80,95
88192,note_on,,16,0,4,,,,,,,,,3,,,80,0
88192,note_on,,0,0,3,,,,,,,,,2,,,85,95
88192,note_on,,16,0,3,,,,,,,,,2,,,80,0
88192,note_on,,0,0,4,,,,,,,,,3,,,85,95
88200,note_on,,24,0,6,,,,,,,,,5,,,64,0
88200,note_on,,24,0,5,,,,,,,,,4,,,74,0
88208,note_on,,16,0,4,,,,,,,,,3,,,85,0
88208,note_on,,0,0,4,,,,,,,,,3,,,83,95
88208,note_on,,16,0,3,,,,,,,,,2,,,85,0
88208,note_on,,0,0,3,,,,,,,,,2,,,83,95
88224,note_on,,24,0,5,,,,,,,,,4,,,73,95
88224,note_on,,0,0,4,,,,,,,,,3,,,81,95
88224,note_on,,16,0,3,,,,,,,,,2,,,83,0
88224,note_on,,0,0,3,,,,,,,,,2,,,81,95
88224,note_on,,24,0,6,,,,,,,,,5,,,66,95
88224,note_on,,16,0,4,,,,,,,,,3,,,83,0
88240,note_on,,0,0,5,,,,,,,,,4,,,74,95
88240,note_on,,16,0,5,,,,,,,,,4,,,73,0
88256,note_on,,0,0,5,,,,,,,,,4,,,76,95
88256,note_on,,16,0,5,,,,,,,,,4,,,74,0
88260,note_on,,212,0,7,,,,,,,,,6,,,57,95
88260,note_on,,204,0,2,,,,,,,,,1,,,57,95
88260,note_on,,36,0,6,,,,,,,,,5,,,66,0
88260,note_on,,0,0,6,,,,,,,,,5,,,73,95
88260,note_on,,212,0,8,,,,,,,,,7,,,45,95
88268,note_on,,8,0,8,,,,,,,,,7,,,45,0
88268,note_on,,8,0,7,,,,,,,,,6,,,57,0
88272,note_on,,0,0,6,,,,,,,,,5,,,69,95
88272,note_on,,16,0,5,,,,,,,,,4,,,76,0
88272,note_on,,0,0,5,,,,,,,,,4,,,78,95
88272,note_on,,12,0,6,,,,,,,,,5,,,73,0
88272,note_on,,12,0,2,,,,,,,,,1,,,57,0
88272,note_on,,0,0,2,,,,,,,,,1,,,62,95
88272,note_on,,4,0,7,,,,,,,,,6,,,62,95
88272,note_on,,4,0,8,,,,,,,,,7,,,50,95
88288,note_on,,64,0,3,,,,,,,,,2,,,83,95
88288,note_on,,64,0,4,,,,,,,,,3,,,83,95
88288,note_on,,0,0,5,,,,,,,,,4,,,79,95
88288,note_on,,16,0,5,,,,,,,,,4,,,78,0
88296,note_on,,24,0,8,,,,,,,,,7,,,50,0
88296,note_on,,8,0,3,,,,,,,,,2,,,81,0
88296,note_on,,24,0,7,,,,,,,,,6,,,62,0
88296,note_on,,8,0,4,,,,,,,,,3,,,81,0
88304,note_on,,16,0,5,,,,,,,,,4,,,79,0
88304,note_on,,8,0,3,,,,,,,,,2,,,83,0
88304,note_on,,0,0,3,,,,,,,,,2,,,85,95
88304,note_on,,0,0,5,,,,,,,,,4,,,81,95
88304,note_on,,8,0,4,,,,,,,,,3,,,83,0
88304,note_on,,0,0,4,,,,,,,,,3,,,85,95
88308,note_on,,12,0,7,,,,,,,,,6,,,57,95
88308,note_on,,0,0,2,,,,,,,,,1,,,57,95
88308,note_on,,36,0,2,,,,,,,,,1,,,62,0
88308,note_on,,36,0,6,,,,,,,,,5,,,69,0
88308,note_on,,0,0,6,,,,,,,,,5,,,67,95
88308,note_on,,12,0,8,,,,,,,,,7,,,45,95
88316,note_on,,8,0,7,,,,,,,,,6,,,57,0
88316,note_on,,8,0,8,,,,,,,,,7,,,45,0
88320,note_on,,0,0,2,,,,,,,,,1,,,59,95
88320,note_on,,12,0,6,,,,,,,,,5,,,67,0
88320,note_on,,0,0,4,,,,,,,,,3,,,86,95
88320,note_on,,16,0,4,,,,,,,,,3,,,85,0
88320,note_on,,16,0,3,,,,,,,,,2,,,85,0
88320,note_on,,0,0,3,,,,,,,,,2,,,86,95
88320,note_on,,4,0,8,,,,,,,,,7,,,47,95
88320,note_on,,4,0,7,,,,,,,,,6,,,59,95
88320,note_on,,0,0,6,,,,,,,,,5,,,66,95
88320,note_on,,12,0,2,,,,,,,,,1,,,57,0
88320,note_on,,16,0,5,,,,,,,,,4,,,81,0
88320,note_on,,0,0,5,,,,,,,,,4,,,74,95
88331,note_on,,11,0,7,,,,,,,,,6,,,59,0
88331,note_on,,11,0,8,,,,,,,,,7,,,47,0
88336,note_on,,5,0,7,,,,,,,,,6,,,57,95
88336,note_on,,0,0,3,,,,,,,,,2,,,85,95
88336,note_on,,16,0,2,,,,,,,,,1,,,59,0
88336,note_on,,16,0,3,,,,,,,,,2,,,86,0
88336,note_on,,0,0,2,,,,,,,,,1,,,57,95
88336,note_on,,5,0,8,,,,,,,,,7,,,45,95
88336,note_on,,16,0,4,,,,,,,,,3,,,86,0
88336,note_on,,0,0,4,,,,,,,,,3,,,85,95
88347,note_on,,11,0,8,,,,,,,,,7,,,45,0
88347,note_on,,11,0,7,,,,,,,,,6,,,57,0
88352,note_on,,5,0,7,,,,,,,,,6,,,55,95
88352,note_on,,0,0,3,,,,,,,,,2,,,83,95
88352,note_on,,0,0,4,,,,,,,,,3,,,83,95
88352,note_on,,16,0,3,,,,,,,,,2,,,85,0
88352,note_on,,5,0,8,,,,,,,,,7,,,43,95
88352,note_on,,16,0,4,,,,,,,,,3,,,85,0
88352,note_on,,0,0,2,,,,,,,,,1,,,55,95
88352,note_on,,16,0,2,,,,,,,,,1,,,57,0
88356,note_on,,1068,0,1,,,,,,,,,0,,,74,95
88356,note_on,,36,0,6,,,,,,,,,5,,,66,0
88356,note_on,,0,0,6,,,,,,,,,5,,,67,95
88363,note_on,,11,0,7,,,,,,,,,6,,,55,0
88363,note_on,,11,0,8,,,,,,,,,7,,,43,0
88368,note_on,,16,0,3,,,,,,,,,2,,,83,0
88368,note_on,,16,0,2,,,,,,,,,1,,,55,0
88368,note_on,,5,0,8,,,,,,,,,7,,,42,95
88368,note_on,,0,0,1,,,,,,,,,0,,,81,95
88368,note_on,,0,0,2,,,,,,,,,1,,,54,95
88368,note_on,,12,0,1,,,,,,,,,0,,,74,0
88368,note_on,,0,0,3,,,,,,,,,2,,,81,95
88368,note_on,,5,0,7,,,,,,,,,6,,,54,95
88368,note_on,,0,0,6,,,,,,,,,5,,,69,95
88368,note_on,,12,0,6,,,,,,,,,5,,,67,0
88368,note_on,,16,0,4,,,,,,,,,3,,,83,0
88368,note_on,,0,0,4,,,,,,,,,3,,,81,95
88379,note_on,,11,0,7,,,,,,,,,6,,,54,0
88379,note_on,,11,0,8,,,,,,,,,7,,,42,0
88384,note_on,,16,0,2,,,,,,,,,1,,,54,0
88384,note_on,,5,0,7,,,,,,,,,6,,,55,95
88384,note_on,,0,0,2,,,,,,,,,1,,,55,95
88384,note_on,,5,0,8,,,,,,,,,7,,,43,95
88384,note_on,,0,0,3,,,,,,,,,2,,,83,95
88384,note_on,,16,0,3,,,,,,,,,2,,,81,0
88384,note_on,,16,0,4,,,,,,,,,3,,,81,0
88384,note_on,,0,0,4,,,,,,,,,3,,,83,95
88392,note_on,,72,0,5,,,,,,,,,4,,,74,0
88395,note_on,,11,0,8,,,,,,,,,7,,,43,0
88395,note_on,,11,0,7,,,,,,,,,6,,,55,0
88400,note_on,,16,0,4,,,,,,,,,3,,,83,0
88400,note_on,,5,0,7,,,,,,,,,6,,,57,95
88400,note_on,,0,0,2,,,,,,,,,1,,,57,95
88400,note_on,,0,0,4,,,,,,,,,3,,,79,95
88400,note_on,,5,0,8,,,,,,,,,7,,,45,95
88400,note_on,,0,0,3,,,,,,,,,2,,,79,95
88400,note_on,,16,0,3,,,,,,,,,2,,,83,0
88400,note_on,,16,0,2,,,,,,,,,1,,,55,0
88404,note_on,,36,0,6,,,,,,,,,5,,,69,0
88404,note_on,,12,0,5,,,,,,,,,4,,,73,95
88404,note_on,,36,0,1,,,,,,,,,0,,,81,0
88404,note_on,,0,0,1,,,,,,,,,0,,,76,95
88404,note_on,,0,0,6,,,,,,,,,5,,,69,95
88411,note_on,,11,0,8,,,,,,,,,7,,,45,0
88411,note_on,,11,0,7,,,,,,,,,6,,,57,0
88416,note_on,,12,0,6,,,,,,,,,5,,,69,0
88416,note_on,,0,0,6,,,,,,,,,5,,,69,95
88416,note_on,,16,0,4,,,,,,,,,3,,,79,0
88416,note_on,,12,0,1,,,,,,,,,0,,,76,0
88416,note_on,,0,0,1,,,,,,,,,0,,,78,95
88416,note_on,,0,0,5,,,,,,,,,4,,,74,95
88416,note_on,,0,0,2,,,,,,,,,1,,,50,95
88416,note_on,,16,0,2,,,,,,,,,1,,,57,0
88416,note_on,,0,0,4,,,,,,,,,3,,,78,95
88416,note_on,,0,0,3,,,,,,,,,2,,,78,95
88416,note_on,,5,0,8,,,,,,,,,7,,,38,95
88416,note_on,,12,0,5,,,,,,,,,4,,,73,0
88416,note_on,,16,0,3,,,,,,,,,2,,,79,0
88416,note_on,,5,0,7,,,,,,,,,6,,,50,95
88432,note_on,,0,0,1,,,,,,,,,0,,,76,95
88432,note_on,,16,0,1,,,,,,,,,0,,,78,0
88432,note_on,,16,0,8,,,,,,,,,7,,,38,0
88432,note_on,,16,0,7,,,,,,,,,6,,,50,0
88440,note_on,,24,0,5,,,,,,,,,4,,,74,0
88440,note_on,,24,0,4,,,,,,,,,3,,,78,0
88440,note_on,,24,0,6,,,,,,,,,5,,,69,0
88440,note_on,,24,0,2,,,,,,,,,1,,,50,0
88440,note_on,,24,0,3,,,,,,,,,2,,,78,0
88448,note_on,,16,0,1,,,,,,,,,0,,,76,0
88448,note_on,,0,0,1,,,,,,,,,0,,,74,95
88464,note_on,,32,0,7,,,,,,,,,6,,,52,95
88464,note_on,,24,0,3,,,,,,,,,2,,,79,95
88464,note_on,,24,0,5,,,,,,,,,4,,,73,95
88464,note_on,,24,0,4,,,,,,,,,3,,,79,95
88464,note_on,,32,0,8,,,,,,,,,7,,,40,95
88464,note_on,,24,0,2,,,,,,,,,1,,,52,95
88464,note_on,,24,0,6,,,,,,,,,5,,,67,95
88464,note_on,,16,0,1,,,,,,,,,0,,,74,0
88464,note_on,,0,0,1,,,,,,,,,0,,,73,95
88480,note_on,,16,0,7,,,,,,,,,6,,,52,0
88480,note_on,,16,0,1,,,,,,,,,0,,,73,0
88480,note_on,,16,0,8,,,,,,,,,7,,,40,0
88480,note_on,,0,0,1,,,,,,,,,0,,,74,95
88488,note_on,,24,0,5,,,,,,,,,4,,,73,0
88488,note_on,,24,0,3,,,,,,,,,2,,,79,0
88488,note_on,,24,0,6,,,,,,,,,5,,,67,0
88488,note_on,,24,0,4,,,,,,,,,3,,,79,0
88488,note_on,,24,0,2,,,,,,,,,1,,,52,0
88496,note_on,,16,0,1,,,,,,,,,0,,,74,0
88496,note_on,,0,0,1,,,,,,,,,0,,,76,95
88512,note_on,,16,0,1,,,,,,,,,0,,,76,0
88512,note_on,,32,0,7,,,,,,,,,6,,,54,95
88512,note_on,,24,0,4,,,,,,,,,3,,,81,95
88512,note_on,,24,0,5,,,,,,,,,4,,,74,95
88512,note_on,,0,0,1,,,,,,,,,0,,,69,77
88512,note_on,,24,0,6,,,,,,,,,5,,,66,95
88512,note_on,,24,0,3,,,,,,,,,2,,,81,85
88512,note_on,,32,0,8,,,,,,,,,7,,,42,95
88512,note_on,,24,0,2,,,,,,,,,1,,,54,95
88520,note_on,,0,0,1,,,,,,,,,0,,,66,55
88520,note_on,,8,0,1,,,,,,,,,0,,,69,0
88528,note_on,,16,0,7,,,,,,,,,6,,,54,0
88528,note_on,,16,0,8,,,,,,,,,7,,,42,0
88528,note_on,,0,0,1,,,,,,,,,0,,,67,62
88528,note_on,,8,0,1,,,,,,,,,0,,,66,0
88528,note_on,,16,0,4,,,,,,,,,3,,,81,0
88536,note_on,,24,0,3,,,,,,,,,2,,,81,0
88536,note_on,,24,0,5,,,,,,,,,4,,,74,0
88536,note_on,,24,0,6,,,,,,,,,5,,,66,0
88536,note_on,,0,0,1,,,,,,,,,0,,,69,85
88536,note_on,,8,0,1,,,,,,,,,0,,,67,0
88536,note_on,,24,0,2,,,,,,,,,1,,,54,0
88544,note_on,,0,0,1,,,,,,,,,0,,,71,85
88544,note_on,,8,0,1,,,,,,,,,0,,,69,0
88552,note_on,,0,0,1,,,,,,,,,0,,,73,56
88552,note_on,,8,0,1,,,,,,,,,0,,,71,0
88560,note_on,,24,0,2,,,,,,,,,1,,,42,95
88560,note_on,,32,0,8,,,,,,,,,7,,,30,85
88560,note_on,,24,0,6,,,,,,,,,5,,,62,85
88560,note_on,,24,0,5,,,,,,,,,4,,,69,75
88560,note_on,,24,0,3,,,,,,,,,2,,,72,85
88560,note_on,,32,0,4,,,,,,,,,3,,,72,95
88560,note_on,,8,0,1,,,,,,,,,0,,,73,0
88560,note_on,,32,0,7,,,,,,,,,6,,,42,85
88560,note_on,,0,0,1,,,,,,,,,0,,,74,81
88568,note_on,,0,0,1,,,,,,,,,0,,,76,79
88568,note_on,,8,0,1,,,,,,,,,0,,,74,0
88576,note_on,,0,0,1,,,,,,,,,0,,,74,78
88576,note_on,,8,0,1,,,,,,,,,0,,,76,0
88576,note_on,,16,0,5,,,,,,,,,4,,,69,0
88576,note_on,,16,0,4,,,,,,,,,3,,,72,0
88576,note_on,,16,0,7,,,,,,,,,6,,,42,0
88576,note_on,,16,0,8,,,,,,,,,7,,,30,0
88584,note_on,,24,0,2,,,,,,,,,1,,,42,0
88584,note_on,,24,0,3,,,,,,,,,2,,,72,0
88584,note_on,,24,0,6,,,,,,,,,5,,,62,0
88584,note_on,,8,0,1,,,,,,,,,0,,,74,0
88584,note_on,,0,0,1,,,,,,,,,0,,,73,62
88592,note_on,,8,0,1,,,,,,,,,0,,,73,0
88592,note_on,,0,0,1,,,,,,,,,0,,,71,74
88600,note_on,,8,0,1,,,,,,,,,0,,,71,0
88600,note_on,,0,0,1,,,,,,,,,0,,,69,85
88608,note_on,,0,0,1,,,,,,,,,0,,,71,61
88608,note_on,,8,0,1,,,,,,,,,0,,,69,0
88608,note_on,,32,0,8,,,,,,,,,7,,,31,85
88608,note_on,,24,0,6,,,,,,,,,5,,,62,77
88608,note_on,,32,0,5,,,,,,,,,4,,,67,75
88608,note_on,,32,0,4,,,,,,,,,3,,,71,95
88608,note_on,,32,0,7,,,,,,,,,6,,,43,85
88608,note_on,,24,0,3,,,,,,,,,2,,,71,85
88608,note_on,,24,0,2,,,,,,,,,1,,,43,95
88616,note_on,,8,0,1,,,,,,,,,0,,,71,0
88616,note_on,,0,0,1,,,,,,,,,0,,,74,72
88624,note_on,,8,0,1,,,,,,,,,0,,,74,0
88624,note_on,,0,0,1,,,,,,,,,0,,,73,49
88624,note_on,,16,0,4,,,,,,,,,3,,,71,0
88624,note_on,,16,0,5,,,,,,,,,4,,,67,0
88632,note_on,,24,0,2,,,,,,,,,1,,,43,0
88632,note_on,,24,0,6,,,,,,,,,5,,,62,0
88632,note_on,,24,0,3,,,,,,,,,2,,,71,0
88632,note_on,,8,0,1,,,,,,,,,0,,,73,0
88632,note_on,,0,0,1,,,,,,,,,0,,,71,85
88640,note_on,,32,0,7,,,,,,,,,6,,,43,0
88640,note_on,,8,0,1,,,,,,,,,0,,,71,0
88640,note_on,,32,0,8,,,,,,,,,7,,,31,0
88640,note_on,,0,0,1,,,,,,,,,0,,,69,85
88648,note_on,,8,0,1,,,,,,,,,0,,,69,0
88648,note_on,,0,0,1,,,,,,,,,0,,,67,44
88656,note_on,,0,0,1,,,,,,,,,0,,,66,60
88656,note_on,,16,0,7,,,,,,,,,6,,,45,85
88656,note_on,,32,0,4,,,,,,,,,3,,,73,95
88656,note_on,,24,0,2,,,,,,,,,1,,,45,95
88656,note_on,,8,0,1,,,,,,,,,0,,,67,0
88656,note_on,,24,0,6,,,,,,,,,5,,,69,85
88656,note_on,,32,0,5,,,,,,,,,4,,,66,75
88656,note_on,,16,0,8,,,,,,,,,7,,,33,85
88656,note_on,,24,0,3,,,,,,,,,2,,,73,85
88664,note_on,,8,0,1,,,,,,,,,0,,,66,0
88664,note_on,,0,0,1,,,,,,,,,0,,,64,59
88672,note_on,,16,0,5,,,,,,,,,4,,,66,0
88672,note_on,,8,0,1,,,,,,,,,0,,,64,0
88672,note_on,,16,0,4,,,,,,,,,3,,,73,0
88672,note_on,,0,0,1,,,,,,,,,0,,,66,46
88680,note_on,,24,0,3,,,,,,,,,2,,,73,0
88680,note_on,,24,0,2,,,,,,,,,1,,,45,0
88680,note_on,,8,0,1,,,,,,,,,0,,,66,0
88680,note_on,,0,0,1,,,,,,,,,0,,,67,67
88680,note_on,,24,0,6,,,,,,,,,5,,,69,0
88688,note_on,,32,0,7,,,,,,,,,6,,,45,0
88688,note_on,,0,0,1,,,,,,,,,0,,,69,33
88688,note_on,,32,0,8,,,,,,,,,7,,,33,0
88688,note_on,,8,0,1,,,,,,,,,0,,,67,0
88696,note_on,,8,0,1,,,,,,,,,0,,,69,0
88696,note_on,,0,0,1,,,,,,,,,0,,,66,60
88704,note_on,,24,0,2,,,,,,,,,1,,,47,95
88704,note_on,,0,0,1,,,,,,,,,0,,,62,66
88704,note_on,,8,0,1,,,,,,,,,0,,,66,0
88704,note_on,,32,0,4,,,,,,,,,3,,,74,95
88704,note_on,,16,0,7,,,,,,,,,6,,,47,85
88704,note_on,,24,0,3,,,,,,,,,2,,,74,85
88704,note_on,,32,0,5,,,,,,,,,4,,,71,75
88704,note_on,,24,0,6,,,,,,,,,5,,,66,68
88704,note_on,,16,0,8,,,,,,,,,7,,,35,85
88712,note_on,,8,0,1,,,,,,,,,0,,,62,0
88712,note_on,,0,0,1,,,,,,,,,0,,,61,53
88720,note_on,,16,0,4,,,,,,,,,3,,,74,0
88720,note_on,,0,0,1,,,,,,,,,0,,,62,85
88720,note_on,,8,0,1,,,,,,,,,0,,,61,0
88720,note_on,,16,0,5,,,,,,,,,4,,,71,0
88728,note_on,,24,0,2,,,,,,,,,1,,,47,0
88728,note_on,,24,0,3,,,,,,,,,2,,,74,0
88728,note_on,,8,0,1,,,,,,,,,0,,,62,0
88728,note_on,,0,0,1,,,,,,,,,0,,,64,69
88728,note_on,,24,0,6,,,,,,,,,5,,,66,0
88736,note_on,,32,0,7,,,,,,,,,6,,,47,0
88736,note_on,,8,0,1,,,,,,,,,0,,,64,0
88736,note_on,,0,0,1,,,,,,,,,0,,,66,49
88736,note_on,,32,0,8,,,,,,,,,7,,,35,0
88744,note_on,,8,0,1,,,,,,,,,0,,,66,0
88744,note_on,,0,0,1,,,,,,,,,0,,,67,60
88752,note_on,,32,0,5,,,,,,,,,4,,,61,77
88752,note_on,,16,0,7,,,,,,,,,6,,,49,67
88752,note_on,,24,0,3,,,,,,,,,2,,,69,85
88752,note_on,,32,0,4,,,,,,,,,3,,,64,95
88752,note_on,,0,0,1,,,,,,,,,0,,,69,85
88752,note_on,,24,0,2,,,,,,,,,1,,,49,95
88752,note_on,,16,0,8,,,,,,,,,7,,,37,67
88752,note_on,,8,0,1,,,,,,,,,0,,,67,0
88752,note_on,,24,0,6,,,,,,,,,5,,,64,57
88760,note_on,,8,0,1,,,,,,,,,0,,,69,0
88760,note_on,,0,0,1,,,,,,,,,0,,,71,85
88768,note_on,,0,0,3,,,,,,,,,2,,,73,85
88768,note_on,,16,0,5,,,,,,,,,4,,,61,0
88768,note_on,,0,0,5,,,,,,,,,4,,,64,77
88768,note_on,,8,0,1,,,,,,,,,0,,,71,0
88768,note_on,,0,0,1,,,,,,,,,0,,,69,85
88768,note_on,,16,0,3,,,,,,,,,2,,,69,0
88768,note_on,,16,0,4,,,,,,,,,3,,,64,0
88768,note_on,,0,0,4,,,,,,,,,3,,,69,95
88768,note_on,,16,0,6,,,,,,,,,5,,,64,0
88768,note_on,,0,0,6,,,,,,,,,5,,,61,56
88776,note_on,,24,0,2,,,,,,,,,1,,,49,0
88776,note_on,,0,0,1,,,,,,,,,0,,,67,85
88776,note_on,,8,0,1,,,,,,,,,0,,,69,0
88784,note_on,,16,0,4,,,,,,,,,3,,,69,0
88784,note_on,,32,0,8,,,,,,,,,7,,,37,0
88784,note_on,,16,0,6,,,,,,,,,5,,,61,0
88784,note_on,,16,0,5,,,,,,,,,4,,,64,0
88784,note_on,,0,0,5,,,,,,,,,4,,,69,77
88784,note_on,,32,0,7,,,,,,,,,6,,,49,0
88784,note_on,,0,0,4,,,,,,,,,3,,,73,95
88784,note_on,,16,0,3,,,,,,,,,2,,,73,0
88784,note_on,,0,0,3,,,,,,,,,2,,,76,85
88784,note_on,,0,0,6,,,,,,,,,5,,,57,59
88784,note_on,,8,0,1,,,,,,,,,0,,,67,0
88784,note_on,,0,0,1,,,,,,,,,0,,,66,52
88792,note_on,,0,0,1,,,,,,,,,0,,,64,79
88792,note_on,,8,0,1,,,,,,,,,0,,,66,0
88800,note_on,,8,0,1,,,,,,,,,0,,,64,0
88800,note_on,,0,0,4,,,,,,,,,3,,,66,95
88800,note_on,,16,0,6,,,,,,,,,5,,,57,0
88800,note_on,,16,0,4,,,,,,,,,3,,,73,0
88800,note_on,,0,0,1,,,,,,,,,0,,,66,46
88800,note_on,,16,0,7,,,,,,,,,6,,,50,85
88800,note_on,,0,0,6,,,,,,,,,5,,,66,56
88800,note_on,,16,0,3,,,,,,,,,2,,,76,0
88800,note_on,,16,0,5,,,,,,,,,4,,,69,0
88800,note_on,,0,0,5,,,,,,,,,4,,,62,77
88800,note_on,,0,0,3,,,,,,,,,2,,,69,85
88800,note_on,,16,0,8,,,,,,,,,7,,,38,85
88800,note_on,,24,0,2,,,,,,,,,1,,,50,95
88808,note_on,,0,0,1,,,,,,,,,0,,,69,85
88808,note_on,,8,0,1,,,,,,,,,0,,,66,0
88816,note_on,,0,0,6,,,,,,,,,5,,,62,76
88816,note_on,,8,0,1,,,,,,,,,0,,,69,0
88816,note_on,,16,0,3,,,,,,,,,2,,,69,0
88816,note_on,,0,0,3,,,,,,,,,2,,,74,85
88816,note_on,,0,0,1,,,,,,,,,0,,,67,72
88816,note_on,,16,0,4,,,,,,,,,3,,,66,0
88816,note_on,,0,0,4,,,,,,,,,3,,,69,95
88816,note_on,,16,0,5,,,,,,,,,4,,,62,0
88816,note_on,,16,0,6,,,,,,,,,5,,,66,0
88816,note_on,,0,0,5,,,,,,,,,4,,,66,77
88824,note_on,,0,0,1,,,,,,,,,0,,,66,49
88824,note_on,,8,0,1,,,,,,,,,0,,,67,0
88824,note_on,,24,0,2,,,,,,,,,1,,,50,0
88832,note_on,,0,0,5,,,,,,,,,4,,,69,77
88832,note_on,,16,0,5,,,,,,,,,4,,,66,0
88832,note_on,,8,0,1,,,,,,,,,0,,,66,0
88832,note_on,,0,0,1,,,,,,,,,0,,,64,85
88832,note_on,,0,0,6,,,,,,,,,5,,,57,70
88832,note_on,,32,0,7,,,,,,,,,6,,,50,0
88832,note_on,,32,0,8,,,,,,,,,7,,,38,0
88832,note_on,,16,0,4,,,,,,,,,3,,,69,0
88832,note_on,,0,0,4,,,,,,,,,3,,,74,95
88832,note_on,,0,0,3,,,,,,,,,2,,,78,85
88832,note_on,,16,0,3,,,,,,,,,2,,,74,0
88832,note_on,,16,0,6,,,,,,,,,5,,,62,0
88840,note_on,,8,0,1,,,,,,,,,0,,,64,0
88840,note_on,,0,0,1,,,,,,,,,0,,,62,68
88848,note_on,,16,0,8,,,,,,,,,7,,,40,85
88848,note_on,,16,0,4,,,,,,,,,3,,,74,0
88848,note_on,,0,0,4,,,,,,,,,3,,,64,95
88848,note_on,,0,0,1,,,,,,,,,0,,,61,53
88848,note_on,,16,0,7,,,,,,,,,6,,,52,85
88848,note_on,,0,0,5,,,,,,,,,4,,,57,77
88848,note_on,,16,0,5,,,,,,,,,4,,,69,0
88848,note_on,,16,0,3,,,,,,,,,2,,,78,0
88848,note_on,,0,0,3,,,,,,,,,2,,,73,85
88848,note_on,,0,0,6,,,,,,,,,5,,,67,74
88848,note_on,,16,0,6,,,,,,,,,5,,,57,0
88848,note_on,,8,0,1,,,,,,,,,0,,,62,0
88848,note_on,,24,0,2,,,,,,,,,1,,,52,95
88856,note_on,,8,0,1,,,,,,,,,0,,,61,0
88856,note_on,,0,0,1,,,,,,,,,0,,,59,85
88864,note_on,,0,0,6,,,,,,,,,5,,,64,85
88864,note_on,,16,0,6,,,,,,,,,5,,,67,0
88864,note_on,,0,0,3,,,,,,,,,2,,,76,85
88864,note_on,,16,0,3,,,,,,,,,2,,,73,0
88864,note_on,,16,0,4,,,,,,,,,3,,,64,0
88864,note_on,,0,0,4,,,,,,,,,3,,,69,95
88864,note_on,,0,0,1,,,,,,,,,0,,,61,59
88864,note_on,,0,0,5,,,,,,,,,4,,,61,77
88864,note_on,,16,0,5,,,,,,,,,4,,,57,0
88864,note_on,,8,0,1,,,,,,,,,0,,,59,0
88872,note_on,,0,0,1,,,,,,,,,0,,,62,53
88872,note_on,,8,0,1,,,,,,,,,0,,,61,0
88872,note_on,,24,0,2,,,,,,,,,1,,,52,0
88880,note_on,,16,0,6,,,,,,,,,5,,,64,0
88880,note_on,,0,0,5,,,,,,,,,4,,,64,77
88880,note_on,,8,0,1,,,,,,,,,0,,,62,0
88880,note_on,,16,0,4,,,,,,,,,3,,,69,0
88880,note_on,,0,0,4,,,,,,,,,3,,,73,95
88880,note_on,,0,0,3,,,,,,,,,2,,,79,85
88880,note_on,,16,0,3,,,,,,,,,2,,,76,0
88880,note_on,,32,0,7,,,,,,,,,6,,,52,0
88880,note_on,,32,0,8,,,,,,,,,7,,,40,0
88880,note_on,,0,0,6,,,,,,,,,5,,,57,68
88880,note_on,,16,0,5,,,,,,,,,4,,,61,0
88880,note_on,,0,0,1,,,,,,,,,0,,,64,64
88888,note_on,,8,0,1,,,,,,,,,0,,,64,0
88888,note_on,,0,0,1,,,,,,,,,0,,,61,50
88896,note_on,,0,0,6,,,,,,,,,5,,,66,56
88896,note_on,,16,0,4,,,,,,,,,3,,,73,0
88896,note_on,,24,0,2,,,,,,,,,1,,,54,95
88896,note_on,,16,0,8,,,,,,,,,7,,,42,74
88896,note_on,,0,0,4,,,,,,,,,3,,,74,66
88896,note_on,,16,0,7,,,,,,,,,6,,,54,74
88896,note_on,,0,0,1,,,,,,,,,0,,,57,50
88896,note_on,,8,0,1,,,,,,,,,0,,,61,0
88896,note_on,,16,0,6,,,,,,,,,5,,,57,0
88896,note_on,,16,0,3,,,,,,,,,2,,,79,0
88896,note_on,,0,0,3,,,,,,,,,2,,,81,95
88896,note_on,,16,0,5,,,,,,,,,4,,,64,0
88896,note_on,,0,0,5,,,,,,,,,4,,,62,77
88904,note_on,,0,0,1,,,,,,,,,0,,,62,53
88904,note_on,,8,0,1,,,,,,,,,0,,,57,0
88912,note_on,,0,0,1,,,,,,,,,0,,,64,56
88912,note_on,,16,0,5,,,,,,,,,4,,,62,0
88912,note_on,,8,0,1,,,,,,,,,0,,,62,0
88920,note_on,,0,0,1,,,,,,,,,0,,,66,55
88920,note_on,,8,0,1,,,,,,,,,0,,,64,0
88920,note_on,,24,0,3,,,,,,,,,2,,,81,0
88920,note_on,,24,0,6,,,,,,,,,5,,,66,0
88920,note_on,,24,0,4,,,,,,,,,3,,,74,0
88920,note_on,,24,0,2,,,,,,,,,1,,,54,0
88928,note_on,,32,0,7,,,,,,,,,6,,,54,0
88928,note_on,,32,0,8,,,,,,,,,7,,,42,0
88928,note_on,,0,0,1,,,,,,,,,0,,,64,69
88928,note_on,,8,0,1,,,,,,,,,0,,,66,0
88936,note_on,,0,0,1,,,,,,,,,0,,,62,59
88936,note_on,,8,0,1,,,,,,,,,0,,,64,0
88944,note_on,,8,0,1,,,,,,,,,0,,,62,0
88944,note_on,,0,0,1,,,,,,,,,0,,,57,50
88944,note_on,,16,0,7,,,,,,,,,6,,,55,85
88944,note_on,,24,0,2,,,,,,,,,1,,,55,95
88944,note_on,,24,0,4,,,,,,,,,3,,,79,85
88944,note_on,,24,0,6,,,,,,,,,5,,,62,72
88944,note_on,,24,0,3,,,,,,,,,2,,,83,85
88944,note_on,,32,0,5,,,,,,,,,4,,,74,77
88944,note_on,,16,0,8,,,,,,,,,7,,,43,85
88952,note_on,,8,0,1,,,,,,,,,0,,,57,0
88952,note_on,,0,0,1,,,,,,,,,0,,,62,57
88960,note_on,,16,0,5,,,,,,,,,4,,,74,0
88960,note_on,,0,0,1,,,,,,,,,0,,,64,76
88960,note_on,,8,0,1,,,,,,,,,0,,,62,0
88968,note_on,,0,0,1,,,,,,,,,0,,,66,50
88968,note_on,,24,0,4,,,,,,,,,3,,,79,0
88968,note_on,,8,0,1,,,,,,,,,0,,,64,0
88968,note_on,,24,0,2,,,,,,,,,1,,,55,0
88968,note_on,,24,0,3,,,,,,,,,2,,,83,0
88968,note_on,,24,0,6,,,,,,,,,5,,,62,0
88976,note_on,,32,0,8,,,,,,,,,7,,,43,0
88976,note_on,,8,0,1,,,,,,,,,0,,,66,0
88976,note_on,,0,0,1,,,,,,,,,0,,,64,74
88976,note_on,,32,0,7,,,,,,,,,6,,,55,0
88984,note_on,,8,0,1,,,,,,,,,0,,,64,0
88984,note_on,,0,0,1,,,,,,,,,0,,,62,85
88992,note_on,,24,0,6,,,,,,,,,5,,,66,56
88992,note_on,,0,0,1,,,,,,,,,0,,,61,49
88992,note_on,,24,0,4,,,,,,,,,3,,,78,60
88992,note_on,,16,0,7,,,,,,,,,6,,,57,85
88992,note_on,,8,0,1,,,,,,,,,0,,,62,0
88992,note_on,,16,0,8,,,,,,,,,7,,,45,85
88992,note_on,,24,0,3,,,,,,,,,2,,,81,78
88992,note_on,,32,0,5,,,,,,,,,4,,,73,77
88992,note_on,,24,0,2,,,,,,,,,1,,,57,95
89000,note_on,,0,0,1,,,,,,,,,0,,,66,42
89000,note_on,,8,0,1,,,,,,,,,0,,,61,0
89008,note_on,,0,0,1,,,,,,,,,0,,,67,65
89008,note_on,,16,0,5,,,,,,,,,4,,,73,0
89008,note_on,,8,0,1,,,,,,,,,0,,,66,0
89016,note_on,,24,0,6,,,,,,,,,5,,,66,0
89016,note_on,,24,0,4,,,,,,,,,3,,,78,0
89016,note_on,,24,0,2,,,,,,,,,1,,,57,0
89016,note_on,,8,0,1,,,,,,,,,0,,,67,0
89016,note_on,,0,0,1,,,,,,,,,0,,,69,62
89016,note_on,,24,0,3,,,,,,,,,2,,,81,0
89024,note_on,,0,0,1,,,,,,,,,0,,,67,59
89024,note_on,,8,0,1,,,,,,,,,0,,,69,0
89024,note_on,,32,0,7,,,,,,,,,6,,,57,0
89024,note_on,,32,0,8,,,,,,,,,7,,,45,0
89032,note_on,,0,0,1,,,,,,,,,0,,,66,53
89032,note_on,,8,0,1,,,,,,,,,0,,,67,0
89040,note_on,,8,0,1,,,,,,,,,0,,,66,0
89040,note_on,,16,0,7,,,,,,,,,6,,,59,85
89040,note_on,,32,0,5,,,,,,,,,4,,,71,77
89040,note_on,,0,0,1,,,,,,,,,0,,,62,67
89040,note_on,,24,0,6,,,,,,,,,5,,,66,64
89040,note_on,,16,0,8,,,,,,,,,7,,,47,85
89040,note_on,,24,0,2,,,,,,,,,1,,,59,95
89040,note_on,,24,0,4,,,,,,,,,3,,,74,85
89040,note_on,,24,0,3,,,,,,,,,2,,,79,85
89048,note_on,,8,0,1,,,,,,,,,0,,,62,0
89048,note_on,,0,0,1,,,,,,,,,0,,,67,85
89056,note_on,,16,0,5,,,,,,,,,4,,,71,0
89056,note_on,,8,0,1,,,,,,,,,0,,,67,0
89056,note_on,,0,0,1,,,,,,,,,0,,,69,67
89064,note_on,,24,0,2,,,,,,,,,1,,,59,0
89064,note_on,,24,0,4,,,,,,,,,3,,,74,0
89064,note_on,,24,0,3,,,,,,,,,2,,,79,0
89064,note_on,,0,0,1,,,,,,,,,0,,,71,65
89064,note_on,,8,0,1,,,,,,,,,0,,,69,0
89064,note_on,,24,0,6,,,,,,,,,5,,,66,0
89072,note_on,,32,0,7,,,,,,,,,6,,,59,0
89072,note_on,,0,0,1,,,,,,,,,0,,,69,85
89072,note_on,,8,0,1,,,,,,,,,0,,,71,0
89072,note_on,,32,0,8,,,,,,,,,7,,,47,0
89080,note_on,,8,0,1,,,,,,,,,0,,,69,0
89080,note_on,,0,0,1,,,,,,,,,0,,,67,79
89088,note_on,,32,0,5,,,,,,,,,4,,,76,77
89088,note_on,,24,0,4,,,,,,,,,3,,,69,85
89088,note_on,,16,0,7,,,,,,,,,6,,,61,66
89088,note_on,,16,0,8,,,,,,,,,7,,,49,66
89088,note_on,,24,0,3,,,,,,,,,2,,,79,85
89088,note_on,,8,0,1,,,,,,,,,0,,,67,0
89088,note_on,,0,0,1,,,,,,,,,0,,,64,44
89088,note_on,,24,0,6,,,,,,,,,5,,,64,85
89088,note_on,,24,0,2,,,,,,,,,1,,,61,95
89096,note_on,,8,0,1,,,,,,,,,0,,,64,0
89096,note_on,,0,0,1,,,,,,,,,0,,,67,69
89104,note_on,,0,0,1,,,,,,,,,0,,,69,79
89104,note_on,,8,0,1,,,,,,,,,0,,,67,0
89104,note_on,,16,0,5,,,,,,,,,4,,,76,0
89112,note_on,,24,0,4,,,,,,,,,3,,,69,0
89112,note_on,,0,0,1,,,,,,,,,0,,,71,74
89112,note_on,,24,0,8,,,,,,,,,7,,,49,0
89112,note_on,,8,0,1,,,,,,,,,0,,,69,0
89112,note_on,,24,0,3,,,,,,,,,2,,,79,0
89112,note_on,,24,0,7,,,,,,,,,6,,,61,0
89112,note_on,,24,0,6,,,,,,,,,5,,,64,0
89120,note_on,,8,0,1,,,,,,,,,0,,,71,0
89120,note_on,,0,0,1,,,,,,,,,0,,,69,72
89124,note_on,,12,0,7,,,,,,,,,6,,,57,85
89124,note_on,,0,0,2,,,,,,,,,1,,,57,95
89124,note_on,,36,0,2,,,,,,,,,1,,,61,0
89124,note_on,,12,0,8,,,,,,,,,7,,,45,85
89128,note_on,,8,0,1,,,,,,,,,0,,,69,0
89128,note_on,,0,0,1,,,,,,,,,0,,,67,74
89132,note_on,,8,0,8,,,,,,,,,7,,,45,0
89132,note_on,,8,0,7,,,,,,,,,6,,,57,0
89136,note_on,,8,0,1,,,,,,,,,0,,,67,0
89136,note_on,,0,0,1,,,,,,,,,0,,,66,54
89136,note_on,,4,0,8,,,,,,,,,7,,,50,85
89136,note_on,,24,0,3,,,,,,,,,2,,,78,64
89136,note_on,,24,0,4,,,,,,,,,3,,,69,74
89136,note_on,,24,0,6,,,,,,,,,5,,,66,66
89136,note_on,,12,0,2,,,,,,,,,1,,,57,0
89136,note_on,,32,0,5,,,,,,,,,4,,,74,77
89136,note_on,,0,0,2,,,,,,,,,1,,,62,95
89136,note_on,,4,0,7,,,,,,,,,6,,,62,85
89144,note_on,,8,0,1,,,,,,,,,0,,,66,0
89144,note_on,,0,0,1,,,,,,,,,0,,,67,81
89152,note_on,,8,0,1,,,,,,,,,0,,,67,0
89152,note_on,,0,0,1,,,,,,,,,0,,,69,44
89152,note_on,,0,0,3,,,,,,,,,2,,,79,85
89152,note_on,,16,0,3,,,,,,,,,2,,,78,0
89160,note_on,,0,0,1,,,,,,,,,0,,,71,77
89160,note_on,,8,0,1,,,,,,,,,0,,,69,0
89160,note_on,,24,0,7,,,,,,,,,6,,,62,0
89160,note_on,,24,0,5,,,,,,,,,4,,,74,0
89160,note_on,,0,0,5,,,,,,,,,4,,,73,77
89160,note_on,,24,0,8,,,,,,,,,7,,,50,0
89168,note_on,,8,0,5,,,,,,,,,4,,,73,0
89168,note_on,,8,0,1,,,,,,,,,0,,,71,0
89168,note_on,,0,0,1,,,,,,,,,0,,,73,68
89168,note_on,,0,0,3,,,,,,,,,2,,,81,85
89168,note_on,,16,0,3,,,,,,,,,2,,,79,0
89172,note_on,,12,0,8,,,,,,,,,7,,,45,85
89172,note_on,,12,0,7,,,,,,,,,6,,,57,85
89172,note_on,,0,0,2,,,,,,,,,1,,,57,95
89172,note_on,,36,0,2,,,,,,,,,1,,,62,0
89172,note_on,,36,0,4,,,,,,,,,3,,,69,0
89172,note_on,,0,0,4,,,,,,,,,3,,,67,61
89172,note_on,,36,0,6,,,,,,,,,5,,,66,0
89172,note_on,,0,0,6,,,,,,,,,5,,,64,85
89176,note_on,,0,0,1,,,,,,,,,0,,,69,85
89176,note_on,,8,0,1,,,,,,,,,0,,,73,0
89180,note_on,,8,0,8,,,,,,,,,7,,,45,0
89180,note_on,,8,0,7,,,,,,,,,6,,,57,0
89184,note_on,,8,0,1,,,,,,,,,0,,,69,0
89184,note_on,,12,0,4,,,,,,,,,3,,,67,0
89184,note_on,,0,0,4,,,,,,,,,3,,,66,66
89184,note_on,,4,0,8,,,,,,,,,7,,,47,69
89184,note_on,,16,0,5,,,,,,,,,4,,,74,77
89184,note_on,,4,0,7,,,,,,,,,6,,,59,69
89184,note_on,,0,0,1,,,,,,,,,0,,,74,56
89184,note_on,,0,0,3,,,,,,,,,2,,,74,72
89184,note_on,,12,0,2,,,,,,,,,1,,,57,0
89184,note_on,,0,0,2,,,,,,,,,1,,,59,95
89184,note_on,,16,0,3,,,,,,,,,2,,,81,0
89184,note_on,,12,0,6,,,,,,,,,5,,,64,0
89184,note_on,,0,0,6,,,,,,,,,5,,,62,85
89197,note_on,,13,0,7,,,,,,,,,6,,,59,0
89197,note_on,,13,0,8,,,,,,,,,7,,,47,0
89200,note_on,,3,0,7,,,,,,,,,6,,,57,81
89200,note_on,,0,0,2,,,,,,,,,1,,,57,95
89200,note_on,,16,0,2,,,,,,,,,1,,,59,0
89200,note_on,,0,0,1,,,,,,,,,0,,,73,50
89200,note_on,,16,0,1,,,,,,,,,0,,,74,0
89200,note_on,,3,0,8,,,,,,,,,7,,,45,81
89213,note_on,,13,0,7,,,,,,,,,6,,,57,0
89213,note_on,,13,0,8,,,,,,,,,7,,,45,0
89216,note_on,,0,0,1,,,,,,,,,0,,,71,85
89216,note_on,,0,0,2,,,,,,,,,1,,,55,95
89216,note_on,,16,0,2,,,,,,,,,1,,,57,0
89216,note_on,,3,0,7,,,,,,,,,6,,,55,77
89216,note_on,,16,0,1,,,,,,,,,0,,,73,0
89216,note_on,,3,0,8,,,,,,,,,7,,,43,77
89220,note_on,,0,0,5,,,,,,,,,4,,,62,77
89220,note_on,,36,0,5,,,,,,,,,4,,,74,0
89220,note_on,,36,0,4,,,,,,,,,3,,,66,0
89220,note_on,,0,0,4,,,,,,,,,3,,,67,85
89220,note_on,,0,0,6,,,,,,,,,5,,,67,85
89220,note_on,,36,0,6,,,,,,,,,5,,,62,0
89229,note_on,,13,0,7,,,,,,,,,6,,,55,0
89229,note_on,,13,0,8,,,,,,,,,7,,,43,0
89232,note_on,,16,0,1,,,,,,,,,0,,,71,0
89232,note_on,,0,0,2,,,,,,,,,1,,,54,95
89232,note_on,,16,0,2,,,,,,,,,1,,,55,0
89232,note_on,,12,0,5,,,,,,,,,4,,,62,0
89232,note_on,,48,0,3,,,,,,,,,2,,,74,0
89232,note_on,,0,0,5,,,,,,,,,4,,,66,77
89232,note_on,,3,0,8,,,,,,,,,7,,,42,62
89232,note_on,,0,0,1,,,,,,,,,0,,,69,81
89232,note_on,,0,0,6,,,,,,,,,5,,,64,85
89232,note_on,,3,0,7,,,,,,,,,6,,,54,62
89232,note_on,,12,0,4,,,,,,,,,3,,,67,0
89232,note_on,,0,0,4,,,,,,,,,3,,,69,78
89232,note_on,,12,0,6,,,,,,,,,5,,,67,0
89244,note_on,,12,0,4,,,,,,,,,3,,,69,0
89245,note_on,,13,0,7,,,,,,,,,6,,,54,0
89245,note_on,,13,0,8,,,,,,,,,7,,,42,0
89248,note_on,,16,0,1,,,,,,,,,0,,,69,0
89248,note_on,,0,0,1,,,,,,,,,0,,,71,81
89248,note_on,,16,0,3,,,,,,,,,2,,,76,76
89248,note_on,,3,0,8,,,,,,,,,7,,,43,85
89248,note_on,,3,0,7,,,,,,,,,6,,,55,85
89248,note_on,,16,0,2,,,,,,,,,1,,,54,0
89248,note_on,,0,0,2,,,,,,,,,1,,,55,95
89261,note_on,,13,0,7,,,,,,,,,6,,,55,0
89261,note_on,,13,0,8,,,,,,,,,7,,,43,0
89264,note_on,,0,0,1,,,,,,,,,0,,,67,50
89264,note_on,,0,0,3,,,,,,,,,2,,,73,56
89264,note_on,,16,0,3,,,,,,,,,2,,,76,0
89264,note_on,,3,0,7,,,,,,,,,6,,,57,85
89264,note_on,,3,0,8,,,,,,,,,7,,,45,85
89264,note_on,,16,0,2,,,,,,,,,1,,,55,0
89264,note_on,,0,0,2,,,,,,,,,1,,,57,95
89264,note_on,,16,0,1,,,,,,,,,0,,,71,0
89268,note_on,,36,0,6,,,,,,,,,5,,,64,0
89268,note_on,,0,0,5,,,,,,,,,4,,,64,77
89268,note_on,,36,0,5,,,,,,,,,4,,,66,0
89268,note_on,,0,0,6,,,,,,,,,5,,,57,85
89277,note_on,,13,0,8,,,,,,,,,7,,,45,0
89277,note_on,,13,0,7,,,,,,,,,6,,,57,0
89280,note_on,,12,0,6,,,,,,,,,5,,,57,0
89280,note_on,,0,0,6,,,,,,,,,5,,,57,85
89280,note_on,,0,0,3,,,,,,,,,2,,,74,85
89280,note_on,,16,0,3,,,,,,,,,2,,,73,0
89280,note_on,,3,0,7,,,,,,,,,6,,,50,85
89280,note_on,,0,0,5,,,,,,,,,4,,,62,77
89280,note_on,,0,0,2,,,,,,,,,1,,,50,95
89280,note_on,,0,0,1,,,,,,,,,0,,,66,68
89280,note_on,,16,0,2,,,,,,,,,1,,,57,0
89280,note_on,,12,0,5,,,,,,,,,4,,,64,0
89280,note_on,,3,0,8,,,,,,,,,7,,,38,85
89280,note_on,,16,0,1,,,,,,,,,0,,,67,0
89293,note_on,,13,0,7,,,,,,,,,6,,,50,0
89293,note_on,,13,0,8,,,,,,,,,7,,,38,0
89296,note_on,,16,0,2,,,,,,,,,1,,,50,0
89296,note_on,,0,0,2,,,,,,,,,1,,,54,95
89296,note_on,,3,0,7,,,,,,,,,6,,,54,68
89296,note_on,,52,0,4,,,,,,,,,3,,,69,70
89296,note_on,,3,0,8,,,,,,,,,7,,,42,68
89304,note_on,,24,0,6,,,,,,,,,5,,,57,0
89304,note_on,,24,0,1,,,,,,,,,0,,,66,0
89304,note_on,,24,0,5,,,,,,,,,4,,,62,0
89309,note_on,,13,0,8,,,,,,,,,7,,,42,0
89309,note_on,,13,0,7,,,,,,,,,6,,,54,0
89312,note_on,,3,0,8,,,,,,,,,7,,,40,85
89312,note_on,,16,0,4,,,,,,,,,3,,,69,0
89312,note_on,,16,0,2,,,,,,,,,1,,,54,0
89312,note_on,,0,0,4,,,,,,,,,3,,,67,85
89312,note_on,,0,0,2,,,,,,,,,1,,,52,95
89312,note_on,,3,0,7,,,,,,,,,6,,,52,85
89316,note_on,,0,0,3,,,,,,,,,2,,,81,85
89316,note_on,,0,0,3,,,,,,,,,2,,,81,91
89316,note_on,,36,0,3,,,,,,,,,2,,,74,0
89325,note_on,,13,0,7,,,,,,,,,6,,,52,0
89325,note_on,,13,0,8,,,,,,,,,7,,,40,0
89328,note_on,,16,0,4,,,,,,,,,3,,,67,0
89328,note_on,,24,0,6,,,,,,,,,5,,,62,85
89328,note_on,,24,0,5,,,,,,,,,4,,,69,79
89328,note_on,,12,0,3,,,,,,,,,2,,,86,84
89328,note_on,,16,0,2,,,,,,,,,1,,,52,0
89328,note_on,,0,0,2,,,,,,,,,1,,,50,95
89328,note_on,,0,0,4,,,,,,,,,3,,,66,53
89328,note_on,,3,0,7,,,,,,,,,6,,,50,85
89328,note_on,,3,0,8,,,,,,,,,7,,,38,85
89328,note_on,,24,0,1,,,,,,,,,0,,,74,68
89340,note_on,,0,0,3,,,,,,,,,2,,,81,0
89340,note_on,,12,0,3,,,,,,,,,2,,,81,0
89341,note_on,,13,0,7,,,,,,,,,6,,,50,0
89341,note_on,,13,0,8,,,,,,,,,7,,,38,0
89344,note_on,,3,0,8,,,,,,,,,7,,,40,85
89344,note_on,,3,0,7,,,,,,,,,6,,,52,85
89344,note_on,,0,0,2,,,,,,,,,1,,,52,95
89344,note_on,,16,0,4,,,,,,,,,3,,,66,0
89344,note_on,,0,0,4,,,,,,,,,3,,,67,85
89344,note_on,,16,0,2,,,,,,,,,1,,,50,0
89352,note_on,,24,0,1,,,,,,,,,0,,,74,0
89352,note_on,,24,0,6,,,,,,,,,5,,,62,0
89352,note_on,,24,0,5,,,,,,,,,4,,,69,0
89357,note_on,,13,0,8,,,,,,,,,7,,,40,0
89357,note_on,,13,0,7,,,,,,,,,6,,,52,0
89360,note_on,,16,0,4,,,,,,,,,3,,,67,0
89360,note_on,,3,0,7,,,,,,,,,6,,,54,85
89360,note_on,,16,0,2,,,,,,,,,1,,,52,0
89360,note_on,,3,0,8,,,,,,,,,7,,,42,85
89360,note_on,,0,0,4,,,,,,,,,3,,,69,85
89360,note_on,,0,0,2,,,,,,,,,1,,,54,95
89364,note_on,,24,0,3,,,,,,,,,2,,,86,0
89364,note_on,,0,0,3,,,,,,,,,2,,,81,85
89373,note_on,,13,0,7,,,,,,,,,6,,,54,0
89373,note_on,,13,0,8,,,,,,,,,7,,,42,0
89376,note_on,,24,0,5,,,,,,,,,4,,,67,79
89376,note_on,,24,0,6,,,,,,,,,5,,,62,85
89376,note_on,,16,0,4,,,,,,,,,3,,,69,0
89376,note_on,,3,0,7,,,,,,,,,6,,,55,77
89376,note_on,,24,0,1,,,,,,,,,0,,,74,68
89376,note_on,,0,0,3,,,,,,,,,2,,,83,64
89376,note_on,,0,0,2,,,,,,,,,1,,,55,95
89376,note_on,,16,0,2,,,,,,,,,1,,,54,0
89376,note_on,,3,0,8,,,,,,,,,7,,,43,77
89376,note_on,,0,0,4,,,,,,,,,3,,,62,78
89376,note_on,,12,0,3,,,,,,,,,2,,,81,0
89392,note_on,,0,0,3,,,,,,,,,2,,,81,74
89392,note_on,,16,0,3,,,,,,,,,2,,,83,0
89395,note_on,,19,0,8,,,,,,,,,7,,,43,0
89395,note_on,,19,0,7,,,,,,,,,6,,,55,0
89400,note_on,,24,0,1,,,,,,,,,0,,,74,0
89400,note_on,,24,0,6,,,,,,,,,5,,,62,0
89400,note_on,,24,0,5,,,,,,,,,4,,,67,0
89400,note_on,,24,0,2,,,,,,,,,1,,,55,0
89408,note_on,,16,0,3,,,,,,,,,2,,,81,0
89408,note_on,,0,0,3,,,,,,,,,2,,,79,85
89412,note_on,,36,0,4,,,,,,,,,3,,,62,0
89412,note_on,,0,0,4,,,,,,,,,3,,,71,78
89424,note_on,,24,0,2,,,,,,,,,1,,,57,95
89424,note_on,,0,0,3,,,,,,,,,2,,,78,56
89424,note_on,,29,0,8,,,,,,,,,7,,,45,85
89424,note_on,,16,0,3,,,,,,,,,2,,,79,0
89424,note_on,,24,0,6,,,,,,,,,5,,,66,85
89424,note_on,,24,0,1,,,,,,,,,0,,,73,68
89424,note_on,,12,0,4,,,,,,,,,3,,,71,0
89424,note_on,,0,0,4,,,,,,,,,3,,,69,78
89424,note_on,,24,0,5,,,,,,,,,4,,,61,79
89424,note_on,,29,0,7,,,,,,,,,6,,,57,85
89440,note_on,,16,0,3,,,,,,,,,2,,,78,0
89440,note_on,,0,0,3,,,,,,,,,2,,,79,77
89443,note_on,,19,0,7,,,,,,,,,6,,,57,0
89443,note_on,,19,0,8,,,,,,,,,7,,,45,0
89448,note_on,,24,0,2,,,,,,,,,1,,,57,0
89448,note_on,,24,0,1,,,,,,,,,0,,,73,0
89448,note_on,,24,0,5,,,,,,,,,4,,,61,0
89448,note_on,,24,0,6,,,,,,,,,5,,,66,0
89456,note_on,,16,0,3,,,,,,,,,2,,,79,0
89456,note_on,,0,0,3,,,,,,,,,2,,,81,85
89460,note_on,,36,0,4,,,,,,,,,3,,,69,0
89460,note_on,,0,0,4,,,,,,,,,3,,,67,78
89472,note_on,,24,0,5,,,,,,,,,4,,,66,79
89472,note_on,,24,0,1,,,,,,,,,0,,,74,55
89472,note_on,,29,0,7,,,,,,,,,6,,,59,85
89472,note_on,,12,0,4,,,,,,,,,3,,,67,0
89472,note_on,,0,0,4,,,,,,,,,3,,,66,78
89472,note_on,,29,0,8,,,,,,,,,7,,,47,85
89472,note_on,,16,0,3,,,,,,,,,2,,,81,0
89472,note_on,,24,0,2,,,,,,,,,1,,,59,72
89472,note_on,,24,0,6,,,,,,,,,5,,,59,85
89472,note_on,,0,0,3,,,,,,,,,2,,,74,76
89476,note_on,,0,0,1,,,,,,,,,0,,,76,55
89476,note_on,,4,0,1,,,,,,,,,0,,,74,0
89476,note_on,,0,0,2,,,,,,,,,1,,,61,70
89476,note_on,,4,0,2,,,,,,,,,1,,,59,0
89480,note_on,,4,0,1,,,,,,,,,0,,,76,0
89480,note_on,,0,0,1,,,,,,,,,0,,,74,62
89480,note_on,,0,0,2,,,,,,,,,1,,,59,81
89480,note_on,,4,0,2,,,,,,,,,1,,,61,0
89484,note_on,,4,0,2,,,,,,,,,1,,,59,0
89484,note_on,,4,0,1,,,,,,,,,0,,,74,0
89484,note_on,,0,0,1,,,,,,,,,0,,,76,59
89484,note_on,,0,0,2,,,,,,,,,1,,,61,72
89488,note_on,,16,0,5,,,,,,,,,4,,,66,0
89488,note_on,,0,0,5,,,,,,,,,4,,,62,79
89488,note_on,,4,0,2,,,,,,,,,1,,,61,0
89488,note_on,,0,0,2,,,,,,,,,1,,,59,85
89488,note_on,,0,0,1,,,,,,,,,0,,,74,71
89488,note_on,,16,0,3,,,,,,,,,2,,,74,0
89488,note_on,,0,0,3,,,,,,,,,2,,,78,62
89488,note_on,,16,0,4,,,,,,,,,3,,,66,0
89488,note_on,,0,0,4,,,,,,,,,3,,,69,78
89488,note_on,,4,0,1,,,,,,,,,0,,,76,0
89491,note_on,,19,0,7,,,,,,,,,6,,,59,0
89491,note_on,,19,0,8,,,,,,,,,7,,,47,0
89492,note_on,,0,0,1,,,,,,,,,0,,,76,56
89492,note_on,,4,0,1,,,,,,,,,0,,,74,0
89492,note_on,,0,0,2,,,,,,,,,1,,,61,84
89492,note_on,,4,0,2,,,,,,,,,1,,,59,0
89496,note_on,,4,0,1,,,,,,,,,0,,,76,0
89496,note_on,,4,0,2,,,,,,,,,1,,,61,0
89496,note_on,,0,0,2,,,,,,,,,1,,,59,89
89496,note_on,,0,0,1,,,,,,,,,0,,,74,64
89500,note_on,,0,0,1,,,,,,,,,0,,,76,74
89500,note_on,,4,0,1,,,,,,,,,0,,,74,0
89500,note_on,,4,0,2,,,,,,,,,1,,,59,0
89500,note_on,,0,0,2,,,,,,,,,1,,,61,97
89504,note_on,,16,0,5,,,,,,,,,4,,,62,0
89504,note_on,,0,0,4,,,,,,,,,3,,,67,78
89504,note_on,,16,0,4,,,,,,,,,3,,,69,0
89504,note_on,,4,0,1,,,,,,,,,0,,,76,0
89504,note_on,,0,0,3,,,,,,,,,2,,,76,84
89504,note_on,,16,0,3,,,,,,,,,2,,,78,0
89504,note_on,,0,0,2,,,,,,,,,1,,,59,91
89504,note_on,,0,0,1,,,,,,,,,0,,,74,85
89504,note_on,,0,0,5,,,,,,,,,4,,,64,79
89504,note_on,,4,0,2,,,,,,,,,1,,,61,0
89508,note_on,,4,0,2,,,,,,,,,1,,,59,0
89508,note_on,,4,0,1,,,,,,,,,0,,,74,0
89508,note_on,,0,0,1,,,,,,,,,0,,,76,66
89508,note_on,,0,0,2,,,,,,,,,1,,,61,95
89512,note_on,,0,0,2,,,,,,,,,1,,,59,85
89512,note_on,,0,0,1,,,,,,,,,0,,,74,85
89512,note_on,,4,0,1,,,,,,,,,0,,,76,0
89512,note_on,,4,0,2,,,,,,,,,1,,,61,0
89516,note_on,,0,0,1,,,,,,,,,0,,,76,85
89516,note_on,,4,0,2,,,,,,,,,1,,,59,0
89516,note_on,,0,0,2,,,,,,,,,1,,,61,76
89516,note_on,,4,0,1,,,,,,,,,0,,,74,0
89520,note_on,,0,0,2,,,,,,,,,1,,,59,85
89520,note_on,,16,0,3,,,,,,,,,2,,,76,0
89520,note_on,,0,0,4,,,,,,,,,3,,,66,78
89520,note_on,,16,0,4,,,,,,,,,3,,,67,0
89520,note_on,,4,0,2,,,,,,,,,1,,,61,0
89520,note_on,,4,0,1,,,,,,,,,0,,,76,0
89520,note_on,,29,0,8,,,,,,,,,7,,,35,74
89520,note_on,,0,0,3,,,,,,,,,2,,,74,72
89520,note_on,,0,0,1,,,,,,,,,0,,,74,85
89520,note_on,,0,0,5,,,,,,,,,4,,,66,79
89520,note_on,,16,0,5,,,,,,,,,4,,,64,0
89520,note_on,,29,0,7,,,,,,,,,6,,,47,74
89524,note_on,,4,0,1,,,,,,,,,0,,,74,0
89524,note_on,,4,0,2,,,,,,,,,1,,,59,0
89524,note_on,,0,0,2,,,,,,,,,1,,,61,66
89524,note_on,,0,0,1,,,,,,,,,0,,,76,85
89528,note_on,,4,0,2,,,,,,,,,1,,,61,0
89528,note_on,,0,0,2,,,,,,,,,1,,,59,85
89528,note_on,,4,0,1,,,,,,,,,0,,,76,0
89528,note_on,,0,0,1,,,,,,,,,0,,,74,86
89532,note_on,,0,0,1,,,,,,,,,0,,,76,85
89532,note_on,,0,0,2,,,,,,,,,1,,,61,104
89532,note_on,,4,0,2,,,,,,,,,1,,,59,0
89532,note_on,,4,0,1,,,,,,,,,0,,,74,0
89536,note_on,,4,0,2,,,,,,,,,1,,,61,0
89536,note_on,,16,0,3,,,,,,,,,2,,,74,0
89536,note_on,,0,0,4,,,,,,,,,3,,,69,78
89536,note_on,,16,0,5,,,,,,,,,4,,,66,0
89536,note_on,,0,0,1,,,,,,,,,0,,,74,85
89536,note_on,,0,0,5,,,,,,,,,4,,,62,79
89536,note_on,,4,0,1,,,,,,,,,0,,,76,0
89536,note_on,,0,0,2,,,,,,,,,1,,,59,91
89536,note_on,,0,0,3,,,,,,,,,2,,,78,56
89536,note_on,,16,0,4,,,,,,,,,3,,,66,0
89539,note_on,,19,0,7,,,,,,,,,6,,,47,0
89539,note_on,,19,0,8,,,,,,,,,7,,,35,0
89540,note_on,,0,0,1,,,,,,,,,0,,,76,74
89540,note_on,,4,0,1,,,,,,,,,0,,,74,0
89540,note_on,,0,0,2,,,,,,,,,1,,,61,104
89540,note_on,,4,0,2,,,,,,,,,1,,,59,0
89544,note_on,,4,0,1,,,,,,,,,0,,,76,0
89544,note_on,,0,0,2,,,,,,,,,1,,,59,91
89544,note_on,,4,0,2,,,,,,,,,1,,,61,0
89544,note_on,,0,0,1,,,,,,,,,0,,,74,85
89548,note_on,,0,0,2,,,,,,,,,1,,,61,88
89548,note_on,,4,0,2,,,,,,,,,1,,,59,0
89548,note_on,,4,0,1,,,,,,,,,0,,,74,0
89548,note_on,,0,0,1,,,,,,,,,0,,,76,81
89552,note_on,,0,0,5,,,,,,,,,4,,,64,79
89552,note_on,,0,0,1,,,,,,,,,0,,,74,85
89552,note_on,,0,0,2,,,,,,,,,1,,,59,85
89552,note_on,,0,0,4,,,,,,,,,3,,,67,78
89552,note_on,,16,0,3,,,,,,,,,2,,,78,0
89552,note_on,,0,0,3,,,,,,,,,2,,,76,78
89552,note_on,,4,0,2,,,,,,,,,1,,,61,0
89552,note_on,,16,0,5,,,,,,,,,4,,,62,0
89552,note_on,,4,0,1,,,,,,,,,0,,,76,0
89552,note_on,,16,0,4,,,,,,,,,3,,,69,0
89556,note_on,,4,0,1,,,,,,,,,0,,,74,0
89556,note_on,,0,0,1,,,,,,,,,0,,,76,85
89556,note_on,,4,0,2,,,,,,,,,1,,,59,0
89556,note_on,,0,0,2,,,,,,,,,1,,,61,74
89560,note_on,,0,0,2,,,,,,,,,1,,,59,85
89560,note_on,,4,0,2,,,,,,,,,1,,,61,0
89560,note_on,,4,0,1,,,,,,,,,0,,,76,0
89560,note_on,,0,0,1,,,,,,,,,0,,,74,85
89564,note_on,,4,0,2,,,,,,,,,1,,,59,0
89564,note_on,,0,0,2,,,,,,,,,1,,,61,88
89564,note_on,,4,0,1,,,,,,,,,0,,,74,0
89564,note_on,,0,0,1,,,,,,,,,0,,,76,85
89568,note_on,,0,0,5,,,,,,,,,4,,,66,79
89568,note_on,,16,0,5,,,,,,,,,4,,,64,0
89568,note_on,,0,0,3,,,,,,,,,2,,,74,78
89568,note_on,,16,0,3,,,,,,,,,2,,,76,0
89568,note_on,,16,0,4,,,,,,,,,3,,,67,0
89568,note_on,,0,0,4,,,,,,,,,3,,,66,95
89568,note_on,,4,0,2,,,,,,,,,1,,,61,0
89568,note_on,,4,0,1,,,,,,,,,0,,,76,0
89568,note_on,,0,0,2,,,,,,,,,1,,,59,76
89568,note_on,,0,0,1,,,,,,,,,0,,,74,79
89579,note_on,,11,0,1,,,,,,,,,0,,,74,0
89584,note_on,,16,0,2,,,,,,,,,1,,,59,0
89584,note_on,,5,0,1,,,,,,,,,0,,,78,79
89584,note_on,,0,0,2,,,,,,,,,1,,,62,76
89595,note_on,,11,0,1,,,,,,,,,0,,,78,0
89600,note_on,,16,0,2,,,,,,,,,1,,,62,0
89600,note_on,,5,0,1,,,,,,,,,0,,,76,79
89600,note_on,,0,0,2,,,,,,,,,1,,,61,76
89611,note_on,,11,0,1,,,,,,,,,0,,,76,0
89616,note_on,,16,0,2,,,,,,,,,1,,,61,0
89616,note_on,,0,0,2,,,,,,,,,1,,,59,76
89616,note_on,,77,0,7,,,,,,,,,6,,,59,74
89616,note_on,,77,0,8,,,,,,,,,7,,,47,74
89616,note_on,,5,0,1,,,,,,,,,0,,,74,79
89627,note_on,,11,0,1,,,,,,,,,0,,,74,0
89632,note_on,,0,0,2,,,,,,,,,1,,,57,76
89632,note_on,,5,0,1,,,,,,,,,0,,,73,79
89632,note_on,,16,0,2,,,,,,,,,1,,,59,0
89635,note_on,,19,0,7,,,,,,,,,6,,,59,0
89635,note_on,,19,0,8,,,,,,,,,7,,,47,0
89643,note_on,,11,0,1,,,,,,,,,0,,,73,0
89648,note_on,,0,0,2,,,,,,,,,1,,,55,76
89648,note_on,,16,0,2,,,,,,,,,1,,,57,0
89648,note_on,,5,0,1,,,,,,,,,0,,,71,79
89659,note_on,,11,0,1,,,,,,,,,0,,,71,0
89664,note_on,,16,0,2,,,,,,,,,1,,,55,0
89664,note_on,,5,0,1,,,,,,,,,0,,,69,85
89664,note_on,,29,0,8,,,,,,,,,7,,,42,69
89664,note_on,,0,0,2,,,,,,,,,1,,,54,52
89664,note_on,,192,0,6,,,,,,,,,5,,,59,0
89664,note_on,,29,0,7,,,,,,,,,6,,,54,69
89664,note_on,,0,0,6,,,,,,,,,5,,,57,85
89668,note_on,,0,0,1,,,,,,,,,0,,,71,85
89668,note_on,,0,0,2,,,,,,,,,1,,,55,85
89668,note_on,,4,0,2,,,,,,,,,1,,,54,0
89668,note_on,,4,0,1,,,,,,,,,0,,,69,0
89672,note_on,,0,0,1,,,,,,,,,0,,,69,85
89672,note_on,,4,0,1,,,,,,,,,0,,,71,0
89672,note_on,,4,0,2,,,,,,,,,1,,,55,0
89672,note_on,,0,0,2,,,,,,,,,1,,,54,46
89676,note_on,,0,0,2,,,,,,,,,1,,,55,85
89676,note_on,,4,0,1,,,,,,,,,0,,,69,0
89676,note_on,,0,0,1,,,,,,,,,0,,,71,85
89676,note_on,,4,0,2,,,,,,,,,1,,,54,0
89680,note_on,,4,0,2,,,,,,,,,1,,,55,0
89680,note_on,,0,0,2,,,,,,,,,1,,,54,60
89680,note_on,,0,0,1,,,,,,,,,0,,,69,85
89680,note_on,,112,0,5,,,,,,,,,4,,,62,79
89680,note_on,,4,0,1,,,,,,,,,0,,,71,0
89680,note_on,,112,0,4,,,,,,,,,3,,,78,95
89680,note_on,,112,0,3,,,,,,,,,2,,,81,62
89683,note_on,,19,0,7,,,,,,,,,6,,,54,0
89683,note_on,,19,0,8,,,,,,,,,7,,,42,0
89684,note_on,,4,0,2,,,,,,,,,1,,,54,0
89684,note_on,,0,0,1,,,,,,,,,0,,,71,85
89684,note_on,,4,0,1,,,,,,,,,0,,,69,0
89684,note_on,,0,0,2,,,,,,,,,1,,,55,85
89688,note_on,,0,0,1,,,,,,,,,0,,,69,85
89688,note_on,,0,0,2,,,,,,,,,1,,,54,62
89688,note_on,,4,0,1,,,,,,,,,0,,,71,0
89688,note_on,,4,0,2,,,,,,,,,1,,,55,0
89692,note_on,,4,0,2,,,,,,,,,1,,,54,0
89692,note_on,,0,0,2,,,,,,,,,1,,,55,85
89692,note_on,,0,0,1,,,,,,,,,0,,,71,85
89692,note_on,,4,0,1,,,,,,,,,0,,,69,0
89696,note_on,,0,0,1,,,,,,,,,0,,,69,81
89696,note_on,,16,0,3,,,,,,,,,2,,,81,0
89696,note_on,,0,0,3,,,,,,,,,2,,,79,81
89696,note_on,,16,0,5,,,,,,,,,4,,,62,0
89696,note_on,,0,0,5,,,,,,,,,4,,,64,79
89696,note_on,,4,0,1,,,,,,,,,0,,,71,0
89696,note_on,,4,0,2,,,,,,,,,1,,,55,0
89696,note_on,,0,0,2,,,,,,,,,1,,,54,72
89696,note_on,,16,0,4,,,,,,,,,3,,,78,0
89696,note_on,,0,0,4,,,,,,,,,3,,,76,95
89700,note_on,,4,0,1,,,,,,,,,0,,,69,0
89700,note_on,,4,0,2,,,,,,,,,1,,,54,0
89700,note_on,,0,0,2,,,,,,,,,1,,,55,85
89700,note_on,,0,0,1,,,,,,,,,0,,,71,81
89704,note_on,,0,0,1,,,,,,,,,0,,,69,85
89704,note_on,,4,0,1,,,,,,,,,0,,,71,0
89704,note_on,,0,0,2,,,,,,,,,1,,,54,82
89704,note_on,,4,0,2,,,,,,,,,1,,,55,0
89708,note_on,,0,0,2,,,,,,,,,1,,,55,85
89708,note_on,,4,0,2,,,,,,,,,1,,,54,0
89708,note_on,,4,0,1,,,,,,,,,0,,,69,0
89708,note_on,,0,0,1,,,,,,,,,0,,,71,85
89712,note_on,,0,0,4,,,,,,,,,3,,,74,95
89712,note_on,,29,0,8,,,,,,,,,7,,,30,74
89712,note_on,,16,0,4,,,,,,,,,3,,,76,0
89712,note_on,,0,0,1,,,,,,,,,0,,,69,85
89712,note_on,,4,0,1,,,,,,,,,0,,,71,0
89712,note_on,,0,0,3,,,,,,,,,2,,,78,56
89712,note_on,,0,0,4,,,,,,,,,3,,,66,0
89712,note_on,,16,0,3,,,,,,,,,2,,,79,0
89712,note_on,,0,0,3,,,,,,,,,2,,,74,0
89712,note_on,,16,0,5,,,,,,,,,4,,,64,0
89712,note_on,,0,0,5,,,,,,,,,4,,,66,0
89712,note_on,,0,0,5,,,,,,,,,4,,,66,79
89712,note_on,,4,0,2,,,,,,,,,1,,,55,0
89712,note_on,,0,0,2,,,,,,,,,1,,,54,78
89712,note_on,,29,0,7,,,,,,,,,6,,,42,74
89716,note_on,,0,0,1,,,,,,,,,0,,,71,92
89716,note_on,,4,0,1,,,,,,,,,0,,,69,0
89716,note_on,,4,0,2,,,,,,,,,1,,,54,0
89716,note_on,,0,0,2,,,,,,,,,1,,,55,74
89720,note_on,,0,0,1,,,,,,,,,0,,,69,85
89720,note_on,,4,0,1,,,,,,,,,0,,,71,0
89720,note_on,,0,0,2,,,,,,,,,1,,,54,54
89720,note_on,,4,0,2,,,,,,,,,1,,,55,0
89724,note_on,,0,0,2,,,,,,,,,1,,,55,81
89724,note_on,,0,0,1,,,,,,,,,0,,,71,97
89724,note_on,,4,0,2,,,,,,,,,1,,,54,0
89724,note_on,,4,0,1,,,,,,,,,0,,,69,0
89728,note_on,,16,0,4,,,,,,,,,3,,,74,0
89728,note_on,,0,0,4,,,,,,,,,3,,,78,95
89728,note_on,,0,0,1,,,,,,,,,0,,,69,89
89728,note_on,,16,0,5,,,,,,,,,4,,,66,0
89728,note_on,,16,0,3,,,,,,,,,2,,,78,0
89728,note_on,,0,0,3,,,,,,,,,2,,,81,65
89728,note_on,,4,0,1,,,,,,,,,0,,,71,0
89728,note_on,,0,0,2,,,,,,,,,1,,,54,67
89728,note_on,,4,0,2,,,,,,,,,1,,,55,0
89728,note_on,,0,0,5,,,,,,,,,4,,,62,79
89731,note_on,,19,0,7,,,,,,,,,6,,,42,0
89731,note_on,,19,0,8,,,,,,,,,7,,,30,0
89732,note_on,,0,0,1,,,,,,,,,0,,,71,97
89732,note_on,,0,0,2,,,,,,,,,1,,,55,85
89732,note_on,,4,0,2,,,,,,,,,1,,,54,0
89732,note_on,,4,0,1,,,,,,,,,0,,,69,0
89736,note_on,,0,0,1,,,,,,,,,0,,,69,91
89736,note_on,,4,0,2,,,,,,,,,1,,,55,0
89736,note_on,,0,0,2,,,,,,,,,1,,,54,74
89736,note_on,,4,0,1,,,,,,,,,0,,,71,0
89740,note_on,,0,0,2,,,,,,,,,1,,,55,85
89740,note_on,,4,0,1,,,,,,,,,0,,,69,0
89740,note_on,,0,0,1,,,,,,,,,0,,,71,98
89740,note_on,,4,0,2,,,,,,,,,1,,,54,0
89744,note_on,,4,0,1,,,,,,,,,0,,,71,0
89744,note_on,,0,0,1,,,,,,,,,0,,,69,91
89744,note_on,,16,0,5,,,,,,,,,4,,,62,0
89744,note_on,,0,0,3,,,,,,,,,2,,,79,78
89744,note_on,,0,0,5,,,,,,,,,4,,,64,79
89744,note_on,,4,0,2,,,,,,,,,1,,,55,0
89744,note_on,,0,0,2,,,,,,,,,1,,,54,82
89744,note_on,,16,0,4,,,,,,,,,3,,,78,0
89744,note_on,,16,0,3,,,,,,,,,2,,,81,0
89744,note_on,,0,0,4,,,,,,,,,3,,,76,95
89748,note_on,,4,0,2,,,,,,,,,1,,,54,0
89748,note_on,,0,0,1,,,,,,,,,0,,,71,96
89748,note_on,,4,0,1,,,,,,,,,0,,,69,0
89748,note_on,,0,0,2,,,,,,,,,1,,,55,85
89752,note_on,,0,0,1,,,,,,,,,0,,,69,86
89752,note_on,,4,0,1,,,,,,,,,0,,,71,0
89752,note_on,,4,0,2,,,,,,,,,1,,,55,0
89752,note_on,,0,0,2,,,,,,,,,1,,,54,67
89756,note_on,,0,0,2,,,,,,,,,1,,,55,85
89756,note_on,,4,0,2,,,,,,,,,1,,,54,0
89756,note_on,,4,0,1,,,,,,,,,0,,,69,0
89756,note_on,,0,0,1,,,,,,,,,0,,,71,89
89760,note_on,,16,0,3,,,,,,,,,2,,,79,0
89760,note_on,,4,0,1,,,,,,,,,0,,,71,0
89760,note_on,,0,0,5,,,,,,,,,4,,,66,79
89760,note_on,,0,0,1,,,,,,,,,0,,,69,79
89760,note_on,,0,0,2,,,,,,,,,1,,,54,76
89760,note_on,,16,0,5,,,,,,,,,4,,,64,0
89760,note_on,,4,0,2,,,,,,,,,1,,,55,0
89760,note_on,,16,0,4,,,,,,,,,3,,,76,0
89760,note_on,,0,0,4,,,,,,,,,3,,,74,95
89760,note_on,,0,0,3,,,,,,,,,2,,,78,78
89771,note_on,,11,0,1,,,,,,,,,0,,,69,0
89776,note_on,,5,0,1,,,,,,,,,0,,,66,79
89776,note_on,,16,0,2,,,,,,,,,1,,,54,0
89776,note_on,,0,0,2,,,,,,,,,1,,,50,71
89787,note_on,,11,0,1,,,,,,,,,0,,,66,0
89791,note_on,,127,0,6,,,,,,,,,5,,,57,0
89792,note_on,,0,0,2,,,,,,,,,1,,,52,85
89792,note_on,,5,0,1,,,,,,,,,0,,,67,79
89792,note_on,,16,0,2,,,,,,,,,1,,,50,0
89796,note_on,,0,0,5,,,,,,,,,4,,,69,79
89796,note_on,,36,0,5,,,,,,,,,4,,,66,0
89803,note_on,,11,0,1,,,,,,,,,0,,,67,0
89808,note_on,,0,0,2,,,,,,,,,1,,,54,59
89808,note_on,,0,0,5,,,,,,,,,4,,,74,79
89808,note_on,,12,0,5,,,,,,,,,4,,,69,0
89808,note_on,,16,0,2,,,,,,,,,1,,,52,0
89808,note_on,,5,0,1,,,,,,,,,0,,,69,79
89808,note_on,,77,0,7,,,,,,,,,6,,,54,66
89808,note_on,,77,0,8,,,,,,,,,7,,,42,66
89819,note_on,,11,0,1,,,,,,,,,0,,,69,0
89824,note_on,,5,0,1,,,,,,,,,0,,,67,79
89824,note_on,,0,0,5,,,,,,,,,4,,,73,79
89824,note_on,,16,0,2,,,,,,,,,1,,,54,0
89824,note_on,,0,0,2,,,,,,,,,1,,,52,69
89824,note_on,,16,0,5,,,,,,,,,4,,,74,0
89824,note_on,,64,0,3,,,,,,,,,2,,,78,0
89827,note_on,,19,0,8,,,,,,,,,7,,,42,0
89827,note_on,,19,0,7,,,,,,,,,6,,,54,0
89835,note_on,,11,0,1,,,,,,,,,0,,,67,0
89840,note_on,,5,0,1,,,,,,,,,0,,,69,79
89840,note_on,,16,0,2,,,,,,,,,1,,,52,0
89840,note_on,,0,0,5,,,,,,,,,4,,,74,79
89840,note_on,,16,0,5,,,,,,,,,4,,,73,0
89840,note_on,,0,0,2,,,,,,,,,1,,,54,60
89851,note_on,,11,0,1,,,,,,,,,0,,,69,0
89856,note_on,,5,0,1,,,,,,,,,0,,,71,72
89856,note_on,,16,0,2,,,,,,,,,1,,,54,0
89856,note_on,,16,0,5,,,,,,,,,4,,,74,0
89856,note_on,,0,0,5,,,,,,,,,4,,,71,79
89856,note_on,,29,0,8,,,,,,,,,7,,,44,67
89856,note_on,,0,0,2,,,,,,,,,1,,,56,64
89856,note_on,,29,0,7,,,,,,,,,6,,,56,67
89856,note_on,,32,0,3,,,,,,,,,2,,,76,78
89856,note_on,,65,0,6,,,,,,,,,5,,,64,85
89872,note_on,,0,0,2,,,,,,,,,1,,,59,85
89872,note_on,,16,0,2,,,,,,,,,1,,,56,0
89872,note_on,,16,0,1,,,,,,,,,0,,,71,0
89872,note_on,,0,0,1,,,,,,,,,0,,,74,71
89875,note_on,,19,0,7,,,,,,,,,6,,,56,0
89875,note_on,,19,0,8,,,,,,,,,7,,,44,0
89888,note_on,,16,0,1,,,,,,,,,0,,,74,0
89888,note_on,,0,0,1,,,,,,,,,0,,,73,64
89888,note_on,,16,0,2,,,,,,,,,1,,,59,0
89888,note_on,,0,0,2,,,,,,,,,1,,,57,85
89904,note_on,,0,0,1,,,,,,,,,0,,,71,81
89904,note_on,,29,0,8,,,,,,,,,7,,,32,60
89904,note_on,,29,0,7,,,,,,,,,6,,,44,60
89904,note_on,,0,0,2,,,,,,,,,1,,,56,59
89904,note_on,,16,0,2,,,,,,,,,1,,,57,0
89904,note_on,,16,0,1,,,,,,,,,0,,,73,0
89920,note_on,,0,0,1,,,,,,,,,0,,,74,85
89920,note_on,,16,0,2,,,,,,,,,1,,,56,0
89920,note_on,,0,0,2,,,,,,,,,1,,,59,57
89920,note_on,,16,0,1,,,,,,,,,0,,,71,0
89923,note_on,,19,0,8,,,,,,,,,7,,,32,0
89923,note_on,,19,0,7,,,,,,,,,6,,,44,0
89936,note_on,,16,0,1,,,,,,,,,0,,,74,0
89936,note_on,,0,0,2,,,,,,,,,1,,,57,85
89936,note_on,,16,0,2,,,,,,,,,1,,,59,0
89936,note_on,,0,0,1,,,,,,,,,0,,,73,59
89952,note_on,,0,0,1,,,,,,,,,0,,,71,78
89952,note_on,,16,0,2,,,,,,,,,1,,,57,0
89952,note_on,,0,0,2,,,,,,,,,1,,,56,57
89952,note_on,,16,0,1,,,,,,,,,0,,,73,0
89968,note_on,,16,0,1,,,,,,,,,0,,,71,0
89968,note_on,,0,0,1,,,,,,,,,0,,,68,55
89968,note_on,,16,0,2,,,,,,,,,1,,,56,0
89968,note_on,,0,0,2,,,,,,,,,1,,,52,77
89984,note_on,,16,0,2,,,,,,,,,1,,,52,0
89984,note_on,,0,0,2,,,,,,,,,1,,,54,56
89984,note_on,,0,0,1,,,,,,,,,0,,,69,85
89984,note_on,,16,0,1,,,,,,,,,0,,,68,0
90000,note_on,,0,0,1,,,,,,,,,0,,,71,85
90000,note_on,,16,0,1,,,,,,,,,0,,,69,0
90000,note_on,,77,0,8,,,,,,,,,7,,,44,56
90000,note_on,,0,0,2,,,,,,,,,1,,,56,61
90000,note_on,,77,0,7,,,,,,,,,6,,,56,56
90000,note_on,,16,0,2,,,,,,,,,1,,,54,0
90016,note_on,,0,0,1,,,,,,,,,0,,,69,85
90016,note_on,,16,0,1,,,,,,,,,0,,,71,0
90016,note_on,,0,0,2,,,,,,,,,1,,,54,66
90016,note_on,,16,0,2,,,,,,,,,1,,,56,0
90019,note_on,,19,0,7,,,,,,,,,6,,,56,0
90019,note_on,,19,0,8,,,,,,,,,7,,,44,0
90032,note_on,,0,0,1,,,,,,,,,0,,,71,82
90032,note_on,,16,0,2,,,,,,,,,1,,,54,0
90032,note_on,,16,0,1,,,,,,,,,0,,,69,0
90032,note_on,,0,0,2,,,,,,,,,1,,,56,67
90042,note_on,,282,0,4,,,,,,,,,3,,,74,0
90048,note_on,,192,0,5,,,,,,,,,4,,,71,0
90048,note_on,,0,0,5,,,,,,,,,4,,,73,79
90048,note_on,,29,0,8,,,,,,,,,7,,,45,74
90048,note_on,,0,0,6,,,,,,,,,5,,,64,85
90048,note_on,,192,0,6,,,,,,,,,5,,,64,0
90048,note_on,,16,0,1,,,,,,,,,0,,,71,0
90048,note_on,,16,0,2,,,,,,,,,1,,,56,0
90048,note_on,,0,0,2,,,,,,,,,1,,,57,76
90048,note_on,,6,0,4,,,,,,,,,3,,,73,95
90048,note_on,,0,0,3,,,,,,,,,2,,,76,78
90048,note_on,,192,0,3,,,,,,,,,2,,,76,0
90048,note_on,,0,0,1,,,,,,,,,0,,,73,76
90048,note_on,,29,0,7,,,,,,,,,6,,,57,74
90056,note_on,,8,0,2,,,,,,,,,1,,,57,0
90056,note_on,,0,0,2,,,,,,,,,1,,,61,52
90063,note_on,,15,0,4,,,,,,,,,3,,,73,0
90064,note_on,,8,0,2,,,,,,,,,1,,,61,0
90064,note_on,,0,0,2,,,,,,,,,1,,,62,82
90064,note_on,,1,0,4,,,,,,,,,3,,,71,95
90064,note_on,,16,0,1,,,,,,,,,0,,,73,0
90067,note_on,,19,0,8,,,,,,,,,7,,,45,0
90067,note_on,,19,0,7,,,,,,,,,6,,,57,0
90072,note_on,,24,0,5,,,,,,,,,4,,,73,0
90072,note_on,,0,0,2,,,,,,,,,1,,,64,67
90072,note_on,,8,0,2,,,,,,,,,1,,,62,0
90072,note_on,,24,0,6,,,,,,,,,5,,,64,0
90079,note_on,,15,0,4,,,,,,,,,3,,,71,0
90080,note_on,,8,0,2,,,,,,,,,1,,,64,0
90080,note_on,,0,0,2,,,,,,,,,1,,,66,40
90080,note_on,,1,0,4,,,,,,,,,3,,,69,95
90088,note_on,,8,0,2,,,,,,,,,1,,,66,0
90088,note_on,,0,0,2,,,,,,,,,1,,,67,85
90095,note_on,,15,0,4,,,,,,,,,3,,,69,0
90096,note_on,,48,0,3,,,,,,,,,2,,,76,0
90096,note_on,,1,0,4,,,,,,,,,3,,,81,95
90096,note_on,,24,0,6,,,,,,,,,5,,,66,85
90096,note_on,,0,0,2,,,,,,,,,1,,,69,85
90096,note_on,,8,0,2,,,,,,,,,1,,,67,0
90096,note_on,,24,0,5,,,,,,,,,4,,,73,79
90096,note_on,,29,0,7,,,,,,,,,6,,,54,74
90096,note_on,,32,0,1,,,,,,,,,0,,,69,76
90104,note_on,,8,0,1,,,,,,,,,0,,,79,76
90112,note_on,,16,0,3,,,,,,,,,2,,,78,78
90112,note_on,,16,0,2,,,,,,,,,1,,,69,0
90112,note_on,,8,0,1,,,,,,,,,0,,,79,0
90112,note_on,,16,0,7,,,,,,,,,6,,,54,0
90112,note_on,,0,0,1,,,,,,,,,0,,,69,0
90112,note_on,,0,0,1,,,,,,,,,0,,,78,76
90120,note_on,,24,0,5,,,,,,,,,4,,,73,0
90120,note_on,,8,0,1,,,,,,,,,0,,,78,0
90120,note_on,,0,0,1,,,,,,,,,0,,,76,76
90120,note_on,,24,0,6,,,,,,,,,5,,,66,0
90128,note_on,,16,0,3,,,,,,,,,2,,,78,0
90128,note_on,,0,0,1,,,,,,,,,0,,,74,76
90128,note_on,,0,0,3,,,,,,,,,2,,,76,78
90128,note_on,,8,0,1,,,,,,,,,0,,,76,0
90136,note_on,,8,0,1,,,,,,,,,0,,,74,0
90136,note_on,,0,0,1,,,,,,,,,0,,,73,76
90144,note_on,,24,0,6,,,,,,,,,5,,,66,85
90144,note_on,,0,0,1,,,,,,,,,0,,,74,76
90144,note_on,,8,0,1,,,,,,,,,0,,,73,0
90144,note_on,,0,0,3,,,,,,,,,2,,,74,78
90144,note_on,,16,0,3,,,,,,,,,2,,,76,0
90144,note_on,,24,0,5,,,,,,,,,4,,,71,79
90144,note_on,,32,0,7,,,,,,,,,6,,,47,85
90152,note_on,,40,0,2,,,,,,,,,1,,,59,85
90160,note_on,,64,0,4,,,,,,,,,3,,,83,95
90160,note_on,,16,0,7,,,,,,,,,6,,,47,0
90160,note_on,,8,0,2,,,,,,,,,1,,,59,0
90160,note_on,,0,0,2,,,,,,,,,1,,,61,57
90160,note_on,,16,0,1,,,,,,,,,0,,,74,0
90163,note_on,,3,0,4,,,,,,,,,3,,,81,0
90168,note_on,,24,0,5,,,,,,,,,4,,,71,0
90168,note_on,,24,0,6,,,,,,,,,5,,,66,0
90168,note_on,,8,0,2,,,,,,,,,1,,,61,0
90168,note_on,,0,0,2,,,,,,,,,1,,,62,85
90175,note_on,,12,0,4,,,,,,,,,3,,,83,0
90176,note_on,,1,0,4,,,,,,,,,3,,,81,95
90176,note_on,,8,0,2,,,,,,,,,1,,,62,0
90176,note_on,,0,0,2,,,,,,,,,1,,,64,85
90184,note_on,,24,0,1,,,,,,,,,0,,,67,85
90184,note_on,,8,0,2,,,,,,,,,1,,,64,0
90184,note_on,,0,0,2,,,,,,,,,1,,,66,64
90191,note_on,,15,0,4,,,,,,,,,3,,,81,0
90192,note_on,,48,0,3,,,,,,,,,2,,,74,0
90192,note_on,,24,0,5,,,,,,,,,4,,,71,79
90192,note_on,,32,0,7,,,,,,,,,6,,,52,78
90192,note_on,,0,0,2,,,,,,,,,1,,,67,85
90192,note_on,,24,0,6,,,,,,,,,5,,,64,85
90192,note_on,,8,0,2,,,,,,,,,1,,,66,0
90192,note_on,,1,0,4,,,,,,,,,3,,,79,95
90200,note_on,,0,0,1,,,,,,,,,0,,,78,76
90200,note_on,,16,0,1,,,,,,,,,0,,,67,0
90208,note_on,,16,0,7,,,,,,,,,6,,,52,0
90208,note_on,,16,0,2,,,,,,,,,1,,,67,0
90208,note_on,,16,0,3,,,,,,,,,2,,,76,78
90208,note_on,,8,0,1,,,,,,,,,0,,,78,0
90208,note_on,,0,0,1,,,,,,,,,0,,,76,76
90216,note_on,,8,0,1,,,,,,,,,0,,,76,0
90216,note_on,,0,0,1,,,,,,,,,0,,,74,76
90216,note_on,,24,0,5,,,,,,,,,4,,,71,0
90216,note_on,,24,0,6,,,,,,,,,5,,,64,0
90224,note_on,,0,0,1,,,,,,,,,0,,,73,76
90224,note_on,,8,0,1,,,,,,,,,0,,,74,0
90224,note_on,,0,0,3,,,,,,,,,2,,,74,78
90224,note_on,,16,0,3,,,,,,,,,2,,,76,0
90232,note_on,,8,0,1,,,,,,,,,0,,,73,0
90232,note_on,,0,0,1,,,,,,,,,0,,,71,76
90240,note_on,,24,0,6,,,,,,,,,5,,,64,85
90240,note_on,,24,0,5,,,,,,,,,4,,,69,79
90240,note_on,,32,0,7,,,,,,,,,6,,,45,85
90240,note_on,,8,0,1,,,,,,,,,0,,,71,0
90240,note_on,,16,0,3,,,,,,,,,2,,,74,0
90240,note_on,,0,0,3,,,,,,,,,2,,,73,78
90240,note_on,,0,0,1,,,,,,,,,0,,,73,76
90248,note_on,,40,0,2,,,,,,,,,1,,,57,76
90256,note_on,,8,0,2,,,,,,,,,1,,,57,0
90256,note_on,,16,0,1,,,,,,,,,0,,,73,0
90256,note_on,,64,0,4,,,,,,,,,3,,,81,95
90256,note_on,,0,0,2,,,,,,,,,1,,,59,76
90256,note_on,,16,0,7,,,,,,,,,6,,,45,0
90259,note_on,,3,0,4,,,,,,,,,3,,,79,0
90264,note_on,,8,0,2,,,,,,,,,1,,,59,0
90264,note_on,,0,0,2,,,,,,,,,1,,,61,76
90264,note_on,,24,0,5,,,,,,,,,4,,,69,0
90264,note_on,,24,0,6,,,,,,,,,5,,,64,0
90271,note_on,,12,0,4,,,,,,,,,3,,,81,0
90272,note_on,,1,0,4,,,,,,,,,3,,,79,95
90272,note_on,,0,0,2,,,,,,,,,1,,,62,76
90272,note_on,,8,0,2,,,,,,,,,1,,,61,0
90280,note_on,,8,0,2,,,,,,,,,1,,,62,0
90280,note_on,,0,0,2,,,,,,,,,1,,,64,76
90287,note_on,,15,0,4,,,,,,,,,3,,,79,0
90288,note_on,,24,0,6,,,,,,,,,5,,,62,85
90288,note_on,,0,0,2,,,,,,,,,1,,,66,76
90288,note_on,,8,0,2,,,,,,,,,1,,,64,0
90288,note_on,,48,0,3,,,,,,,,,2,,,73,0
90288,note_on,,1,0,4,,,,,,,,,3,,,78,95
90288,note_on,,32,0,7,,,,,,,,,6,,,50,85
90288,note_on,,24,0,5,,,,,,,,,4,,,69,79
90296,note_on,,40,0,1,,,,,,,,,0,,,76,85
90304,note_on,,8,0,1,,,,,,,,,0,,,76,0
90304,note_on,,0,0,1,,,,,,,,,0,,,74,85
90304,note_on,,16,0,7,,,,,,,,,6,,,50,0
90304,note_on,,16,0,2,,,,,,,,,1,,,66,0
90304,note_on,,16,0,3,,,,,,,,,2,,,74,78
90312,note_on,,24,0,6,,,,,,,,,5,,,62,0
90312,note_on,,8,0,1,,,,,,,,,0,,,74,0
90312,note_on,,0,0,1,,,,,,,,,0,,,72,85
90312,note_on,,24,0,5,,,,,,,,,4,,,69,0
90320,note_on,,8,0,1,,,,,,,,,0,,,72,0
90320,note_on,,0,0,1,,,,,,,,,0,,,71,85
90320,note_on,,16,0,3,,,,,,,,,2,,,74,0
90320,note_on,,0,0,3,,,,,,,,,2,,,72,78
90328,note_on,,8,0,1,,,,,,,,,0,,,71,0
90328,note_on,,0,0,1,,,,,,,,,0,,,69,85
90336,note_on,,32,0,2,,,,,,,,,1,,,55,76
90336,note_on,,32,0,7,,,,,,,,,6,,,43,85
90336,note_on,,24,0,6,,,,,,,,,5,,,62,85
90336,note_on,,24,0,5,,,,,,,,,4,,,71,79
90336,note_on,,0,0,1,,,,,,,,,0,,,71,72
90336,note_on,,0,0,3,,,,,,,,,2,,,71,78
90336,note_on,,16,0,3,,,,,,,,,2,,,72,0
90336,note_on,,8,0,1,,,,,,,,,0,,,69,0
90344,note_on,,0,0,1,,,,,,,,,0,,,72,82
90344,note_on,,8,0,1,,,,,,,,,0,,,71,0
90352,note_on,,16,0,2,,,,,,,,,1,,,55,0
90352,note_on,,64,0,4,,,,,,,,,3,,,71,95
90352,note_on,,0,0,1,,,,,,,,,0,,,71,74
90352,note_on,,8,0,1,,,,,,,,,0,,,72,0
90355,note_on,,3,0,4,,,,,,,,,3,,,78,0
90360,note_on,,0,0,1,,,,,,,,,0,,,69,85
90360,note_on,,8,0,1,,,,,,,,,0,,,71,0
90367,note_on,,12,0,4,,,,,,,,,3,,,71,0
90368,note_on,,0,0,1,,,,,,,,,0,,,67,85
90368,note_on,,8,0,1,,,,,,,,,0,,,69,0
90368,note_on,,1,0,4,,,,,,,,,3,,,74,95
90369,note_on,,33,0,7,,,,,,,,,6,,,43,0
90376,note_on,,8,0,1,,,,,,,,,0,,,67,0
90376,note_on,,0,0,1,,,,,,,,,0,,,66,59
90383,note_on,,15,0,4,,,,,,,,,3,,,74,0
90384,note_on,,48,0,5,,,,,,,,,4,,,71,0
90384,note_on,,0,0,3,,,,,,,,,2,,,79,78
90384,note_on,,48,0,3,,,,,,,,,2,,,71,0
90384,note_on,,0,0,1,,,,,,,,,0,,,64,59
90384,note_on,,1,0,4,,,,,,,,,3,,,76,95
90384,note_on,,48,0,6,,,,,,,,,5,,,62,0
90384,note_on,,8,0,1,,,,,,,,,0,,,66,0
90392,note_on,,0,0,1,,,,,,,,,0,,,66,59
90392,note_on,,8,0,1,,,,,,,,,0,,,64,0
90399,note_on,,15,0,4,,,,,,,,,3,,,76,0
90400,note_on,,0,0,1,,,,,,,,,0,,,64,71
90400,note_on,,1,0,4,,,,,,,,,3,,,78,95
90400,note_on,,8,0,1,,,,,,,,,0,,,66,0
90408,note_on,,8,0,1,,,,,,,,,0,,,64,0
90408,note_on,,0,0,1,,,,,,,,,0,,,62,42
90415,note_on,,15,0,4,,,,,,,,,3,,,78,0
90416,note_on,,1,0,4,,,,,,,,,3,,,79,95
90416,note_on,,8,0,1,,,,,,,,,0,,,62,0
90416,note_on,,0,0,1,,,,,,,,,0,,,61,54
90424,note_on,,0,0,1,,,,,,,,,0,,,67,79
90424,note_on,,0,0,1,,,,,,,,,0,,,71,81
90424,note_on,,0,0,1,,,,,,,,,0,,,64,61
90424,note_on,,72,0,2,,,,,,,,,1,,,59,76
90424,note_on,,8,0,1,,,,,,,,,0,,,61,0
90431,note_on,,15,0,4,,,,,,,,,3,,,79,0
90432,note_on,,0,0,1,,,,,,,,,0,,,64,0
90432,note_on,,1,0,4,,,,,,,,,3,,,73,66
90432,note_on,,0,0,1,,,,,,,,,0,,,73,94
90432,note_on,,0,0,1,,,,,,,,,0,,,67,106
90432,note_on,,0,0,1,,,,,,,,,0,,,69,107
90432,note_on,,0,0,1,,,,,,,,,0,,,64,103
90432,note_on,,8,0,1,,,,,,,,,0,,,71,0
90432,note_on,,0,0,1,,,,,,,,,0,,,67,0
90432,note_on,,8,0,2,,,,,,,,,1,,,59,0
90432,note_on,,0,0,2,,,,,,,,,1,,,57,103
90437,note_on,,5,0,2,,,,,,,,,1,,,57,0
90440,note_on,,3,0,2,,,,,,,,,1,,,59,103
90443,note_on,,11,0,4,,,,,,,,,3,,,73,0
90445,note_on,,5,0,2,,,,,,,,,1,,,59,0
90448,note_on,,64,0,3,,,,,,,,,2,,,73,71
90448,note_on,,5,0,4,,,,,,,,,3,,,76,66
90448,note_on,,3,0,2,,,,,,,,,1,,,57,93
90453,note_on,,5,0,2,,,,,,,,,1,,,57,0
90456,note_on,,0,0,1,,,,,,,,,0,,,69,0
90456,note_on,,0,0,1,,,,,,,,,0,,,67,0
90456,note_on,,8,0,3,,,,,,,,,2,,,73,0
90456,note_on,,0,0,3,,,,,,,,,2,,,79,0
90456,note_on,,24,0,1,,,,,,,,,0,,,73,0
90456,note_on,,0,0,1,,,,,,,,,0,,,64,0
90456,note_on,,3,0,2,,,,,,,,,1,,,55,82
90459,note_on,,11,0,4,,,,,,,,,3,,,76,0
90461,note_on,,5,0,2,,,,,,,,,1,,,55,0
90464,note_on,,5,0,4,,,,,,,,,3,,,73,66
90464,note_on,,8,0,3,,,,,,,,,2,,,76,93
90464,note_on,,3,0,2,,,,,,,,,1,,,54,86
90468,note_on,,84,0,5,,,,,,,,,4,,,73,79
90468,note_on,,84,0,6,,,,,,,,,5,,,69,85
90468,note_on,,401,0,8,,,,,,,,,7,,,45,85
90468,note_on,,99,0,7,,,,,,,,,6,,,45,85
90469,note_on,,5,0,2,,,,,,,,,1,,,54,0
90472,note_on,,3,0,2,,,,,,,,,1,,,52,103
90472,note_on,,8,0,3,,,,,,,,,2,,,76,0
90475,note_on,,11,0,4,,,,,,,,,3,,,73,0
90476,note_on,,8,0,8,,,,,,,,,7,,,45,0
90476,note_on,,8,0,6,,,,,,,,,5,,,69,0
90476,note_on,,8,0,7,,,,,,,,,6,,,45,0
90477,note_on,,5,0,2,,,,,,,,,1,,,52,0
90477,note_on,,9,0,5,,,,,,,,,4,,,73,0
90480,note_on,,24,0,1,,,,,,,,,0,,,66,89
90480,note_on,,3,0,5,,,,,,,,,4,,,74,85
90480,note_on,,5,0,4,,,,,,,,,3,,,69,66
90480,note_on,,0,0,1,,,,,,,,,0,,,69,103
90480,note_on,,3,0,2,,,,,,,,,1,,,50,99
90480,note_on,,0,0,1,,,,,,,,,0,,,74,103
90480,note_on,,4,0,6,,,,,,,,,5,,,66,65
90480,note_on,,4,0,7,,,,,,,,,6,,,50,56
90480,note_on,,8,0,3,,,,,,,,,2,,,78,78
90480,note_on,,4,0,8,,,,,,,,,7,,,50,56
90485,note_on,,5,0,2,,,,,,,,,1,,,50,0
90488,note_on,,3,0,2,,,,,,,,,1,,,52,82
90488,note_on,,8,0,3,,,,,,,,,2,,,78,0
90491,note_on,,11,0,4,,,,,,,,,3,,,69,0
90493,note_on,,5,0,2,,,,,,,,,1,,,52,0
90496,note_on,,8,0,3,,,,,,,,,2,,,79,100
90496,note_on,,5,0,4,,,,,,,,,3,,,71,66
90496,note_on,,3,0,2,,,,,,,,,1,,,50,80
90501,note_on,,5,0,2,,,,,,,,,1,,,50,0
90504,note_on,,24,0,1,,,,,,,,,0,,,74,0
90504,note_on,,0,0,1,,,,,,,,,0,,,69,0
90504,note_on,,24,0,6,,,,,,,,,5,,,66,0
90504,note_on,,24,0,8,,,,,,,,,7,,,50,0
90504,note_on,,8,0,3,,,,,,,,,2,,,79,0
90504,note_on,,3,0,2,,,,,,,,,1,,,49,82
90504,note_on,,0,0,1,,,,,,,,,0,,,66,0
90504,note_on,,24,0,7,,,,,,,,,6,,,50,0
90507,note_on,,27,0,5,,,,,,,,,4,,,74,0
90507,note_on,,11,0,4,,,,,,,,,3,,,71,0
90509,note_on,,5,0,2,,,,,,,,,1,,,49,0
90512,note_on,,8,0,3,,,,,,,,,2,,,81,103
90512,note_on,,3,0,2,,,,,,,,,1,,,47,69
90512,note_on,,5,0,4,,,,,,,,,3,,,73,66
90516,note_on,,12,0,8,,,,,,,,,7,,,45,85
90516,note_on,,12,0,7,,,,,,,,,6,,,45,85
90516,note_on,,12,0,6,,,,,,,,,5,,,64,85
90516,note_on,,9,0,5,,,,,,,,,4,,,73,71
90517,note_on,,5,0,2,,,,,,,,,1,,,47,0
90520,note_on,,8,0,3,,,,,,,,,2,,,81,0
90520,note_on,,3,0,2,,,,,,,,,1,,,45,103
90523,note_on,,11,0,4,,,,,,,,,3,,,73,0
90524,note_on,,8,0,6,,,,,,,,,5,,,64,0
90524,note_on,,8,0,8,,,,,,,,,7,,,45,0
90524,note_on,,8,0,7,,,,,,,,,6,,,45,0
90525,note_on,,5,0,2,,,,,,,,,1,,,45,0
90525,note_on,,9,0,5,,,,,,,,,4,,,73,0
90528,note_on,,24,0,1,,,,,,,,,0,,,66,81
90528,note_on,,0,0,1,,,,,,,,,0,,,74,103
90528,note_on,,5,0,4,,,,,,,,,3,,,66,65
90528,note_on,,4,0,8,,,,,,,,,7,,,47,60
90528,note_on,,8,0,3,,,,,,,,,2,,,74,85
90528,note_on,,3,0,2,,,,,,,,,1,,,47,100
90528,note_on,,3,0,5,,,,,,,,,4,,,71,85
90528,note_on,,4,0,6,,,,,,,,,5,,,62,85
90528,note_on,,0,0,1,,,,,,,,,0,,,71,103
90528,note_on,,4,0,7,,,,,,,,,6,,,47,60
90539,note_on,,11,0,7,,,,,,,,,6,,,47,0
90539,note_on,,11,0,2,,,,,,,,,1,,,47,0
90539,note_on,,11,0,6,,,,,,,,,5,,,62,0
90539,note_on,,11,0,8,,,,,,,,,7,,,47,0
90544,note_on,,5,0,2,,,,,,,,,1,,,45,100
90544,note_on,,5,0,6,,,,,,,,,5,,,61,66
90544,note_on,,5,0,8,,,,,,,,,7,,,45,85
90544,note_on,,5,0,7,,,,,,,,,6,,,45,85
90546,note_on,,18,0,3,,,,,,,,,2,,,74,0
90552,note_on,,24,0,4,,,,,,,,,3,,,66,0
90555,note_on,,11,0,2,,,,,,,,,1,,,45,0
90555,note_on,,11,0,6,,,,,,,,,5,,,61,0
90555,note_on,,11,0,7,,,,,,,,,6,,,45,0
90555,note_on,,11,0,8,,,,,,,,,7,,,45,0
90555,note_on,,27,0,5,,,,,,,,,4,,,71,0
90560,note_on,,5,0,8,,,,,,,,,7,,,43,85
90560,note_on,,5,0,6,,,,,,,,,5,,,59,85
90560,note_on,,5,0,7,,,,,,,,,6,,,43,85
90560,note_on,,5,0,2,,,,,,,,,1,,,43,103
90564,note_on,,9,0,5,,,,,,,,,4,,,71,85
90564,note_on,,18,0,3,,,,,,,,,2,,,76,96
90564,note_on,,12,0,4,,,,,,,,,3,,,67,85
90564,note_on,,36,0,1,,,,,,,,,0,,,74,0
90564,note_on,,0,0,1,,,,,,,,,0,,,66,0
90564,note_on,,0,0,1,,,,,,,,,0,,,64,103
90564,note_on,,0,0,1,,,,,,,,,0,,,71,103
90564,note_on,,0,0,1,,,,,,,,,0,,,71,0
90564,note_on,,0,0,1,,,,,,,,,0,,,74,103
90570,note_on,,6,0,3,,,,,,,,,2,,,76,0
90571,note_on,,11,0,7,,,,,,,,,6,,,43,0
90571,note_on,,11,0,6,,,,,,,,,5,,,59,0
90571,note_on,,11,0,2,,,,,,,,,1,,,43,0
90571,note_on,,11,0,8,,,,,,,,,7,,,43,0
90572,note_on,,8,0,4,,,,,,,,,3,,,67,0
90573,note_on,,9,0,5,,,,,,,,,4,,,71,0
90576,note_on,,0,0,1,,,,,,,,,0,,,69,108
90576,note_on,,3,0,5,,,,,,,,,4,,,69,85
90576,note_on,,0,0,1,,,,,,,,,0,,,64,103
90576,note_on,,4,0,4,,,,,,,,,3,,,64,85
90576,note_on,,0,0,1,,,,,,,,,0,,,64,0
90576,note_on,,0,0,1,,,,,,,,,0,,,71,0
90576,note_on,,12,0,1,,,,,,,,,0,,,74,0
90576,note_on,,5,0,8,,,,,,,,,7,,,45,85
90576,note_on,,6,0,3,,,,,,,,,2,,,73,87
90576,note_on,,0,0,1,,,,,,,,,0,,,73,96
90576,note_on,,5,0,2,,,,,,,,,1,,,45,103
90576,note_on,,5,0,7,,,,,,,,,6,,,45,85
90576,note_on,,5,0,6,,,,,,,,,5,,,64,76
90587,note_on,,11,0,6,,,,,,,,,5,,,64,0
90592,note_on,,5,0,6,,,,,,,,,5,,,66,68
90594,note_on,,18,0,3,,,,,,,,,2,,,73,0
90600,note_on,,24,0,7,,,,,,,,,6,,,45,0
90600,note_on,,24,0,8,,,,,,,,,7,,,45,0
90600,note_on,,24,0,2,,,,,,,,,1,,,45,0
90600,note_on,,24,0,4,,,,,,,,,3,,,64,0
90603,note_on,,11,0,6,,,,,,,,,5,,,66,0
90603,note_on,,27,0,5,,,,,,,,,4,,,69,0
90608,note_on,,5,0,6,,,,,,,,,5,,,67,85
90612,note_on,,36,0,1,,,,,,,,,0,,,73,0
90612,note_on,,12,0,8,,,,,,,,,7,,,45,85
90612,note_on,,12,0,7,,,,,,,,,6,,,45,85
90612,note_on,,9,0,5,,,,,,,,,4,,,69,85
90612,note_on,,0,0,1,,,,,,,,,0,,,64,103
90612,note_on,,12,0,2,,,,,,,,,1,,,45,103
90612,note_on,,0,0,1,,,,,,,,,0,,,67,106
90612,note_on,,0,0,1,,,,,,,,,0,,,64,0
90612,note_on,,0,0,1,,,,,,,,,0,,,69,0
90612,note_on,,18,0,3,,,,,,,,,2,,,74,96
90612,note_on,,0,0,1,,,,,,,,,0,,,73,89
90612,note_on,,12,0,4,,,,,,,,,3,,,62,85
90618,note_on,,6,0,3,,,,,,,,,2,,,74,0
90619,note_on,,11,0,6,,,,,,,,,5,,,67,0
90620,note_on,,8,0,8,,,,,,,,,7,,,45,0
90620,note_on,,8,0,2,,,,,,,,,1,,,45,0
90620,note_on,,8,0,7,,,,,,,,,6,,,45,0
90620,note_on,,8,0,4,,,,,,,,,3,,,62,0
90621,note_on,,9,0,5,,,,,,,,,4,,,69,0
90624,note_on,,4,0,7,,,,,,,,,6,,,38,85
90624,note_on,,4,0,2,,,,,,,,,1,,,38,103
90624,note_on,,6,0,3,,,,,,,,,2,,,74,94
90624,note_on,,0,0,1,,,,,,,,,0,,,66,92
90624,note_on,,0,0,1,,,,,,,,,0,,,67,0
90624,note_on,,0,0,1,,,,,,,,,0,,,64,0
90624,note_on,,12,0,1,,,,,,,,,0,,,73,0
90624,note_on,,4,0,8,,,,,,,,,7,,,38,85
90624,note_on,,0,0,1,,,,,,,,,0,,,69,106
90624,note_on,,5,0,6,,,,,,,,,5,,,66,56
90624,note_on,,3,0,5,,,,,,,,,4,,,69,85
90624,note_on,,4,0,4,,,,,,,,,3,,,62,85
90624,note_on,,0,0,1,,,,,,,,,0,,,62,103
90624,note_on,,0,0,1,,,,,,,,,0,,,74,103
90640,note_on,,16,0,2,,,,,,,,,1,,,38,0
90640,note_on,,16,0,7,,,,,,,,,6,,,38,0
90640,note_on,,16,0,8,,,,,,,,,7,,,38,0
90642,note_on,,18,0,5,,,,,,,,,4,,,69,0
90648,note_on,,0,0,1,,,,,,,,,0,,,66,0
90648,note_on,,24,0,1,,,,,,,,,0,,,74,0
90648,note_on,,0,0,1,,,,,,,,,0,,,69,0
90648,note_on,,24,0,3,,,,,,,,,2,,,74,0
90648,note_on,,24,0,6,,,,,,,,,5,,,66,0
90648,note_on,,0,0,1,,,,,,,,,0,,,62,0
90660,note_on,,12,0,6,,,,,,,,,5,,,69,85
90668,note_on,,8,0,6,,,,,,,,,5,,,69,0
90672,note_on,,32,0,7,,,,,,,,,6,,,42,65
90672,note_on,,32,0,2,,,,,,,,,1,,,42,88
90672,note_on,,24,0,3,,,,,,,,,2,,,72,84
90672,note_on,,4,0,6,,,,,,,,,5,,,74,85
90688,note_on,,16,0,2,,,,,,,,,1,,,42,0
90688,note_on,,16,0,7,,,,,,,,,6,,,42,0
90696,note_on,,24,0,3,,,,,,,,,2,,,72,0
90696,note_on,,24,0,6,,,,,,,,,5,,,74,0
90708,note_on,,12,0,6,,,,,,,,,5,,,69,71
90716,note_on,,8,0,6,,,,,,,,,5,,,69,0
90720,note_on,,4,0,6,,,,,,,,,5,,,71,74
90720,note_on,,32,0,7,,,,,,,,,6,,,43,56
90720,note_on,,24,0,3,,,,,,,,,2,,,71,101
90720,note_on,,32,0,2,,,,,,,,,1,,,43,103
90731,note_on,,11,0,6,,,,,,,,,5,,,71,0
90736,note_on,,16,0,7,,,,,,,,,6,,,43,0
90736,note_on,,5,0,6,,,,,,,,,5,,,69,85
90736,note_on,,16,0,2,,,,,,,,,1,,,43,0
90744,note_on,,24,0,3,,,,,,,,,2,,,71,0
90747,note_on,,11,0,6,,,,,,,,,5,,,69,0
90752,note_on,,5,0,6,,,,,,,,,5,,,67,81
90756,note_on,,114,0,5,,,,,,,,,4,,,67,85
90763,note_on,,11,0,6,,,,,,,,,5,,,67,0
90765,note_on,,9,0,5,,,,,,,,,4,,,67,0
90768,note_on,,32,0,7,,,,,,,,,6,,,48,85
90768,note_on,,3,0,5,,,,,,,,,4,,,74,85
90768,note_on,,5,0,6,,,,,,,,,5,,,66,56
90768,note_on,,24,0,3,,,,,,,,,2,,,69,103
90768,note_on,,32,0,2,,,,,,,,,1,,,48,91
90779,note_on,,11,0,6,,,,,,,,,5,,,66,0
90784,note_on,,16,0,2,,,,,,,,,1,,,48,0
90784,note_on,,16,0,7,,,,,,,,,6,,,48,0
90784,note_on,,5,0,6,,,,,,,,,5,,,67,79
90792,note_on,,24,0,3,,,,,,,,,2,,,69,0
90795,note_on,,11,0,6,,,,,,,,,5,,,67,0
90795,note_on,,27,0,5,,,,,,,,,4,,,74,0
90800,note_on,,5,0,6,,,,,,,,,5,,,69,85
90804,note_on,,9,0,5,,,,,,,,,4,,,69,85
90811,note_on,,11,0,6,,,,,,,,,5,,,69,0
90813,note_on,,9,0,5,,,,,,,,,4,,,69,0
90816,note_on,,24,0,3,,,,,,,,,2,,,67,98
90816,note_on,,32,0,7,,,,,,,,,6,,,47,85
90816,note_on,,5,0,6,,,,,,,,,5,,,62,85
90816,note_on,,3,0,5,,,,,,,,,4,,,71,85
90816,note_on,,32,0,2,,,,,,,,,1,,,47,103
90824,note_on,,8,0,3,,,,,,,,,2,,,67,0
90828,note_on,,12,0,5,,,,,,,,,4,,,71,0
90832,note_on,,8,0,3,,,,,,,,,2,,,69,103
90832,note_on,,16,0,6,,,,,,,,,5,,,62,0
90832,note_on,,4,0,5,,,,,,,,,4,,,69,85
90840,note_on,,24,0,2,,,,,,,,,1,,,47,0
90840,note_on,,8,0,3,,,,,,,,,2,,,69,0
90840,note_on,,24,0,7,,,,,,,,,6,,,47,0
90844,note_on,,12,0,5,,,,,,,,,4,,,69,0
90848,note_on,,4,0,5,,,,,,,,,4,,,67,85
90848,note_on,,8,0,3,,,,,,,,,2,,,71,103
90852,note_on,,12,0,7,,,,,,,,,6,,,55,91
90852,note_on,,12,0,2,,,,,,,,,1,,,55,103
90852,note_on,,212,0,8,,,,,,,,,7,,,43,91
90856,note_on,,8,0,3,,,,,,,,,2,,,71,0
90860,note_on,,8,0,8,,,,,,,,,7,,,43,0
90860,note_on,,8,0,7,,,,,,,,,6,,,55,0
90860,note_on,,8,0,2,,,,,,,,,1,,,55,0
90860,note_on,,12,0,5,,,,,,,,,4,,,67,0
90864,note_on,,4,0,7,,,,,,,,,6,,,62,98
90864,note_on,,4,0,8,,,,,,,,,7,,,50,98
90864,note_on,,4,0,2,,,,,,,,,1,,,62,103
90864,note_on,,32,0,6,,,,,,,,,5,,,62,85
90864,note_on,,8,0,3,,,,,,,,,2,,,69,103
90864,note_on,,4,0,5,,,,,,,,,4,,,66,68
90872,note_on,,8,0,3,,,,,,,,,2,,,69,0
90876,note_on,,12,0,5,,,,,,,,,4,,,66,0
90880,note_on,,4,0,5,,,,,,,,,4,,,67,85
90880,note_on,,8,0,3,,,,,,,,,2,,,71,98
90880,note_on,,16,0,6,,,,,,,,,5,,,62,0
90888,note_on,,24,0,7,,,,,,,,,6,,,62,0
90888,note_on,,24,0,8,,,,,,,,,7,,,50,0
90888,note_on,,8,0,3,,,,,,,,,2,,,71,0
90888,note_on,,24,0,2,,,,,,,,,1,,,62,0
90892,note_on,,12,0,5,,,,,,,,,4,,,67,0
90896,note_on,,4,0,5,,,,,,,,,4,,,69,85
90896,note_on,,8,0,3,,,,,,,,,2,,,72,74
90900,note_on,,12,0,7,,,,,,,,,6,,,57,85
90900,note_on,,12,0,2,,,,,,,,,1,,,57,103
90900,note_on,,12,0,8,,,,,,,,,7,,,45,85
90904,note_on,,8,0,3,,,,,,,,,2,,,72,0
90908,note_on,,8,0,7,,,,,,,,,6,,,57,0
90908,note_on,,8,0,2,,,,,,,,,1,,,57,0
90908,note_on,,12,0,5,,,,,,,,,4,,,69,0
90908,note_on,,8,0,8,,,,,,,,,7,,,45,0
90912,note_on,,32,0,6,,,,,,,,,5,,,62,70
90912,note_on,,8,0,3,,,,,,,,,2,,,66,73
90912,note_on,,4,0,7,,,,,,,,,6,,,59,85
90912,note_on,,4,0,2,,,,,,,,,1,,,59,103
90912,note_on,,4,0,5,,,,,,,,,4,,,62,85
90912,note_on,,4,0,8,,,,,,,,,7,,,47,85
90923,note_on,,11,0,6,,,,,,,,,5,,,62,0
90923,note_on,,11,0,8,,,,,,,,,7,,,47,0
90923,note_on,,11,0,7,,,,,,,,,6,,,59,0
90923,note_on,,11,0,2,,,,,,,,,1,,,59,0
90928,note_on,,5,0,8,,,,,,,,,7,,,45,85
90928,note_on,,5,0,7,,,,,,,,,6,,,57,85
90928,note_on,,5,0,2,,,,,,,,,1,,,57,103
90928,note_on,,5,0,6,,,,,,,,,5,,,60,72
90930,note_on,,18,0,5,,,,,,,,,4,,,62,0
90936,note_on,,24,0,3,,,,,,,,,2,,,66,0
90939,note_on,,11,0,7,,,,,,,,,6,,,57,0
90939,note_on,,11,0,6,,,,,,,,,5,,,60,0
90939,note_on,,11,0,2,,,,,,,,,1,,,57,0
90939,note_on,,11,0,8,,,,,,,,,7,,,45,0
90944,note_on,,5,0,2,,,,,,,,,1,,,55,98
90944,note_on,,5,0,7,,,,,,,,,6,,,55,85
90944,note_on,,5,0,6,,,,,,,,,5,,,59,85
90944,note_on,,5,0,8,,,,,,,,,7,,,43,85
90948,note_on,,300,0,1,,,,,,,,,0,,,67,103
90955,note_on,,11,0,8,,,,,,,,,7,,,43,0
90955,note_on,,11,0,6,,,,,,,,,5,,,59,0
90955,note_on,,11,0,2,,,,,,,,,1,,,55,0
90955,note_on,,11,0,7,,,,,,,,,6,,,55,0
90956,note_on,,8,0,1,,,,,,,,,0,,,67,0
90960,note_on,,5,0,7,,,,,,,,,6,,,54,72
90960,note_on,,5,0,2,,,,,,,,,1,,,54,84
90960,note_on,,5,0,6,,,,,,,,,5,,,57,85
90960,note_on,,30,0,5,,,,,,,,,4,,,69,85
90960,note_on,,5,0,8,,,,,,,,,7,,,42,72
90960,note_on,,4,0,1,,,,,,,,,0,,,74,96
90960,note_on,,24,0,3,,,,,,,,,2,,,74,101
90971,note_on,,11,0,6,,,,,,,,,5,,,57,0
90971,note_on,,11,0,7,,,,,,,,,6,,,54,0
90971,note_on,,11,0,2,,,,,,,,,1,,,54,0
90971,note_on,,11,0,8,,,,,,,,,7,,,42,0
90975,note_on,,351,0,4,,,,,,,,,3,,,62,0
90976,note_on,,5,0,2,,,,,,,,,1,,,56,89
90976,note_on,,5,0,6,,,,,,,,,5,,,59,85
90976,note_on,,1,0,4,,,,,,,,,3,,,64,85
90976,note_on,,5,0,7,,,,,,,,,6,,,56,72
90976,note_on,,5,0,8,,,,,,,,,7,,,44,72
90978,note_on,,18,0,5,,,,,,,,,4,,,69,0
90984,note_on,,24,0,1,,,,,,,,,0,,,74,0
90986,note_on,,10,0,4,,,,,,,,,3,,,64,0
90987,note_on,,11,0,6,,,,,,,,,5,,,59,0
90987,note_on,,11,0,8,,,,,,,,,7,,,44,0
90987,note_on,,11,0,2,,,,,,,,,1,,,56,0
90987,note_on,,11,0,7,,,,,,,,,6,,,56,0
90992,note_on,,5,0,7,,,,,,,,,6,,,57,85
90992,note_on,,5,0,2,,,,,,,,,1,,,57,103
90992,note_on,,5,0,6,,,,,,,,,5,,,61,71
90992,note_on,,6,0,4,,,,,,,,,3,,,66,85
90992,note_on,,5,0,8,,,,,,,,,7,,,45,85
90996,note_on,,12,0,1,,,,,,,,,0,,,69,103
90996,note_on,,36,0,3,,,,,,,,,2,,,74,0
91002,note_on,,10,0,4,,,,,,,,,3,,,66,0
91003,note_on,,11,0,2,,,,,,,,,1,,,57,0
91003,note_on,,11,0,6,,,,,,,,,5,,,61,0
91003,note_on,,11,0,7,,,,,,,,,6,,,57,0
91003,note_on,,11,0,8,,,,,,,,,7,,,45,0
91004,note_on,,8,0,1,,,,,,,,,0,,,69,0
91008,note_on,,4,0,1,,,,,,,,,0,,,71,103
91008,note_on,,6,0,4,,,,,,,,,3,,,64,85
91008,note_on,,5,0,7,,,,,,,,,6,,,56,67
91008,note_on,,5,0,2,,,,,,,,,1,,,56,86
91008,note_on,,5,0,8,,,,,,,,,7,,,44,67
91008,note_on,,5,0,6,,,,,,,,,5,,,59,85
91008,note_on,,30,0,5,,,,,,,,,4,,,64,85
91010,note_on,,2,0,1,,,,,,,,,0,,,71,0
91010,note_on,,2,0,2,,,,,,,,,1,,,56,0
91012,note_on,,2,0,2,,,,,,,,,1,,,57,92
91012,note_on,,2,0,1,,,,,,,,,0,,,73,74
91014,note_on,,2,0,2,,,,,,,,,1,,,57,0
91014,note_on,,2,0,1,,,,,,,,,0,,,73,0
91016,note_on,,2,0,2,,,,,,,,,1,,,56,87
91016,note_on,,2,0,1,,,,,,,,,0,,,71,88
91018,note_on,,2,0,1,,,,,,,,,0,,,71,0
91018,note_on,,2,0,2,,,,,,,,,1,,,56,0
91019,note_on,,11,0,6,,,,,,,,,5,,,59,0
91020,note_on,,2,0,2,,,,,,,,,1,,,57,103
91020,note_on,,2,0,1,,,,,,,,,0,,,73,88
91022,note_on,,2,0,1,,,,,,,,,0,,,73,0
91022,note_on,,2,0,2,,,,,,,,,1,,,57,0
91024,note_on,,16,0,8,,,,,,,,,7,,,44,0
91024,note_on,,28,0,3,,,,,,,,,2,,,78,71
91024,note_on,,5,0,6,,,,,,,,,5,,,62,71
91024,note_on,,16,0,7,,,,,,,,,6,,,56,0
91024,note_on,,2,0,1,,,,,,,,,0,,,71,103
91024,note_on,,2,0,2,,,,,,,,,1,,,56,86
91026,note_on,,2,0,2,,,,,,,,,1,,,56,0
91026,note_on,,2,0,1,,,,,,,,,0,,,71,0
91028,note_on,,2,0,1,,,,,,,,,0,,,73,90
91028,note_on,,2,0,2,,,,,,,,,1,,,57,103
91030,note_on,,2,0,2,,,,,,,,,1,,,57,0
91030,note_on,,2,0,1,,,,,,,,,0,,,73,0
91032,note_on,,2,0,1,,,,,,,,,0,,,71,103
91032,note_on,,2,0,2,,,,,,,,,1,,,56,95
91034,note_on,,2,0,2,,,,,,,,,1,,,56,0
91034,note_on,,2,0,1,,,,,,,,,0,,,71,0
91035,note_on,,11,0,6,,,,,,,,,5,,,62,0
91036,note_on,,2,0,2,,,,,,,,,1,,,57,103
91036,note_on,,2,0,1,,,,,,,,,0,,,73,88
91036,note_on,,12,0,3,,,,,,,,,2,,,78,0
91038,note_on,,2,0,1,,,,,,,,,0,,,73,0
91038,note_on,,2,0,2,,,,,,,,,1,,,57,0
91040,note_on,,4,0,3,,,,,,,,,2,,,76,100
91040,note_on,,5,0,6,,,,,,,,,5,,,61,56
91040,note_on,,2,0,2,,,,,,,,,1,,,56,92
91040,note_on,,2,0,1,,,,,,,,,0,,,71,96
91042,note_on,,2,0,2,,,,,,,,,1,,,56,0
91042,note_on,,2,0,1,,,,,,,,,0,,,71,0
91044,note_on,,2,0,2,,,,,,,,,1,,,57,103
91044,note_on,,2,0,1,,,,,,,,,0,,,73,86
91046,note_on,,2,0,1,,,,,,,,,0,,,73,0
91046,note_on,,2,0,2,,,,,,,,,1,,,57,0
91048,note_on,,2,0,2,,,,,,,,,1,,,56,100
91048,note_on,,2,0,1,,,,,,,,,0,,,71,99
91050,note_on,,2,0,2,,,,,,,,,1,,,56,0
91050,note_on,,2,0,1,,,,,,,,,0,,,71,0
91051,note_on,,11,0,6,,,,,,,,,5,,,61,0
91052,note_on,,2,0,2,,,,,,,,,1,,,57,103
91052,note_on,,12,0,3,,,,,,,,,2,,,76,0
91052,note_on,,2,0,1,,,,,,,,,0,,,73,88
91054,note_on,,2,0,1,,,,,,,,,0,,,73,0
91054,note_on,,2,0,2,,,,,,,,,1,,,57,0
91056,note_on,,2,0,2,,,,,,,,,1,,,56,98
91056,note_on,,4,0,3,,,,,,,,,2,,,74,103
91056,note_on,,32,0,7,,,,,,,,,6,,,44,64
91056,note_on,,2,0,1,,,,,,,,,0,,,71,103
91056,note_on,,32,0,8,,,,,,,,,7,,,32,64
91056,note_on,,5,0,6,,,,,,,,,5,,,59,85
91058,note_on,,2,0,1,,,,,,,,,0,,,71,0
91058,note_on,,2,0,2,,,,,,,,,1,,,56,0
91060,note_on,,2,0,2,,,,,,,,,1,,,57,103
91060,note_on,,2,0,1,,,,,,,,,0,,,73,84
91062,note_on,,2,0,2,,,,,,,,,1,,,57,0
91062,note_on,,2,0,1,,,,,,,,,0,,,73,0
91064,note_on,,2,0,2,,,,,,,,,1,,,56,99
91064,note_on,,2,0,1,,,,,,,,,0,,,71,103
91066,note_on,,2,0,2,,,,,,,,,1,,,56,0
91066,note_on,,2,0,1,,,,,,,,,0,,,71,0
91067,note_on,,11,0,6,,,,,,,,,5,,,59,0
91068,note_on,,2,0,1,,,,,,,,,0,,,73,88
91068,note_on,,2,0,2,,,,,,,,,1,,,57,103
91068,note_on,,12,0,3,,,,,,,,,2,,,74,0
91070,note_on,,2,0,2,,,,,,,,,1,,,57,0
91070,note_on,,2,0,1,,,,,,,,,0,,,73,0
91072,note_on,,4,0,3,,,,,,,,,2,,,78,74
91072,note_on,,16,0,8,,,,,,,,,7,,,32,0
91072,note_on,,2,0,1,,,,,,,,,0,,,71,103
91072,note_on,,2,0,2,,,,,,,,,1,,,56,95
91072,note_on,,16,0,7,,,,,,,,,6,,,44,0
91072,note_on,,5,0,6,,,,,,,,,5,,,62,85
91074,note_on,,2,0,1,,,,,,,,,0,,,71,0
91074,note_on,,2,0,2,,,,,,,,,1,,,56,0
91076,note_on,,2,0,2,,,,,,,,,1,,,57,103
91076,note_on,,2,0,1,,,,,,,,,0,,,73,86
91078,note_on,,2,0,2,,,,,,,,,1,,,57,0
91078,note_on,,2,0,1,,,,,,,,,0,,,73,0
91080,note_on,,2,0,2,,,,,,,,,1,,,56,100
91080,note_on,,2,0,1,,,,,,,,,0,,,71,103
91080,note_on,,72,0,5,,,,,,,,,4,,,64,0
91082,note_on,,2,0,2,,,,,,,,,1,,,56,0
91082,note_on,,2,0,1,,,,,,,,,0,,,71,0
91083,note_on,,11,0,6,,,,,,,,,5,,,62,0
91084,note_on,,12,0,3,,,,,,,,,2,,,78,0
91084,note_on,,2,0,2,,,,,,,,,1,,,57,103
91084,note_on,,2,0,1,,,,,,,,,0,,,73,86
91086,note_on,,2,0,1,,,,,,,,,0,,,73,0
91086,note_on,,2,0,2,,,,,,,,,1,,,57,0
91088,note_on,,4,0,3,,,,,,,,,2,,,76,103
91088,note_on,,5,0,6,,,,,,,,,5,,,61,68
91088,note_on,,2,0,2,,,,,,,,,1,,,56,101
91088,note_on,,2,0,1,,,,,,,,,0,,,71,95
91090,note_on,,2,0,1,,,,,,,,,0,,,71,0
91090,note_on,,2,0,2,,,,,,,,,1,,,56,0
91092,note_on,,2,0,2,,,,,,,,,1,,,57,103
91092,note_on,,2,0,1,,,,,,,,,0,,,73,88
91094,note_on,,2,0,2,,,,,,,,,1,,,57,0
91094,note_on,,2,0,1,,,,,,,,,0,,,73,0
91096,note_on,,2,0,1,,,,,,,,,0,,,71,103
91096,note_on,,2,0,2,,,,,,,,,1,,,56,98
91098,note_on,,2,0,2,,,,,,,,,1,,,56,0
91098,note_on,,2,0,1,,,,,,,,,0,,,71,0
91099,note_on,,11,0,6,,,,,,,,,5,,,61,0
91100,note_on,,2,0,2,,,,,,,,,1,,,57,103
91100,note_on,,2,0,1,,,,,,,,,0,,,73,71
91100,note_on,,12,0,3,,,,,,,,,2,,,76,0
91102,note_on,,2,0,2,,,,,,,,,1,,,57,0
91102,note_on,,2,0,1,,,,,,,,,0,,,73,0
91104,note_on,,2,0,1,,,,,,,,,0,,,71,98
91104,note_on,,4,0,3,,,,,,,,,2,,,74,103
91104,note_on,,5,0,6,,,,,,,,,5,,,59,85
91104,note_on,,2,0,2,,,,,,,,,1,,,56,77
91112,note_on,,8,0,1,,,,,,,,,0,,,71,0
91115,note_on,,11,0,2,,,,,,,,,1,,,56,0
91120,note_on,,5,0,2,,,,,,,,,1,,,59,103
91120,note_on,,40,0,5,,,,,,,,,4,,,68,67
91120,note_on,,8,0,1,,,,,,,,,0,,,74,98
91128,note_on,,8,0,1,,,,,,,,,0,,,74,0
91131,note_on,,11,0,2,,,,,,,,,1,,,59,0
91132,note_on,,12,0,5,,,,,,,,,4,,,68,0
91136,note_on,,4,0,5,,,,,,,,,4,,,69,85
91136,note_on,,5,0,2,,,,,,,,,1,,,57,103
91136,note_on,,8,0,1,,,,,,,,,0,,,73,73
91144,note_on,,8,0,1,,,,,,,,,0,,,73,0
91147,note_on,,11,0,2,,,,,,,,,1,,,57,0
91148,note_on,,12,0,5,,,,,,,,,4,,,69,0
91152,note_on,,8,0,1,,,,,,,,,0,,,71,96
91152,note_on,,80,0,8,,,,,,,,,7,,,44,60
91152,note_on,,80,0,7,,,,,,,,,6,,,56,60
91152,note_on,,5,0,2,,,,,,,,,1,,,56,80
91152,note_on,,4,0,5,,,,,,,,,4,,,71,56
91160,note_on,,8,0,1,,,,,,,,,0,,,71,0
91163,note_on,,11,0,2,,,,,,,,,1,,,56,0
91164,note_on,,12,0,5,,,,,,,,,4,,,71,0
91168,note_on,,8,0,1,,,,,,,,,0,,,74,103
91168,note_on,,16,0,7,,,,,,,,,6,,,56,0
91168,note_on,,5,0,2,,,,,,,,,1,,,59,103
91168,note_on,,4,0,5,,,,,,,,,4,,,68,72
91168,note_on,,16,0,8,,,,,,,,,7,,,44,0
91169,note_on,,65,0,6,,,,,,,,,5,,,59,0
91176,note_on,,8,0,1,,,,,,,,,0,,,74,0
91176,note_on,,72,0,3,,,,,,,,,2,,,74,0
91179,note_on,,11,0,2,,,,,,,,,1,,,59,0
91180,note_on,,12,0,5,,,,,,,,,4,,,68,0
91184,note_on,,4,0,5,,,,,,,,,4,,,69,85
91184,note_on,,5,0,2,,,,,,,,,1,,,57,103
91184,note_on,,8,0,1,,,,,,,,,0,,,73,84
91192,note_on,,8,0,1,,,,,,,,,0,,,73,0
91195,note_on,,11,0,2,,,,,,,,,1,,,57,0
91196,note_on,,12,0,5,,,,,,,,,4,,,69,0
91200,note_on,,8,0,1,,,,,,,,,0,,,71,103
91200,note_on,,24,0,3,,,,,,,,,2,,,74,98
91200,note_on,,4,0,5,,,,,,,,,4,,,71,85
91200,note_on,,32,0,7,,,,,,,,,6,,,56,56
91200,note_on,,5,0,2,,,,,,,,,1,,,56,90
91200,note_on,,0,0,4,,,,,,,,,3,,,64,85
91200,note_on,,192,0,4,,,,,,,,,3,,,64,0
91200,note_on,,32,0,8,,,,,,,,,7,,,44,56
91202,note_on,,2,0,2,,,,,,,,,1,,,56,0
91202,note_on,,2,0,1,,,,,,,,,0,,,71,0
91204,note_on,,2,0,2,,,,,,,,,1,,,57,103
91204,note_on,,2,0,1,,,,,,,,,0,,,73,88
91206,note_on,,2,0,2,,,,,,,,,1,,,57,0
91206,note_on,,2,0,1,,,,,,,,,0,,,73,0
91208,note_on,,2,0,2,,,,,,,,,1,,,56,90
91208,note_on,,2,0,1,,,,,,,,,0,,,71,103
91210,note_on,,2,0,2,,,,,,,,,1,,,56,0
91210,note_on,,2,0,1,,,,,,,,,0,,,71,0
91212,note_on,,2,0,1,,,,,,,,,0,,,73,90
91212,note_on,,2,0,2,,,,,,,,,1,,,57,103
91212,note_on,,12,0,3,,,,,,,,,2,,,74,0
91214,note_on,,2,0,1,,,,,,,,,0,,,73,0
91214,note_on,,2,0,2,,,,,,,,,1,,,57,0
91216,note_on,,16,0,8,,,,,,,,,7,,,44,0
91216,note_on,,4,0,3,,,,,,,,,2,,,71,103
91216,note_on,,2,0,2,,,,,,,,,1,,,56,96
91216,note_on,,47,0,6,,,,,,,,,5,,,56,64
91216,note_on,,2,0,1,,,,,,,,,0,,,71,103
91216,note_on,,16,0,7,,,,,,,,,6,,,56,0
91218,note_on,,2,0,1,,,,,,,,,0,,,71,0
91218,note_on,,2,0,2,,,,,,,,,1,,,56,0
91220,note_on,,2,0,1,,,,,,,,,0,,,73,91
91220,note_on,,2,0,2,,,,,,,,,1,,,57,103
91222,note_on,,2,0,1,,,,,,,,,0,,,73,0
91222,note_on,,2,0,2,,,,,,,,,1,,,57,0
91224,note_on,,2,0,2,,,,,,,,,1,,,56,100
91224,note_on,,2,0,1,,,,,,,,,0,,,71,103
91226,note_on,,2,0,2,,,,,,,,,1,,,56,0
91226,note_on,,2,0,1,,,,,,,,,0,,,71,0
91227,note_on,,11,0,6,,,,,,,,,5,,,56,0
91228,note_on,,2,0,1,,,,,,,,,0,,,73,88
91228,note_on,,12,0,3,,,,,,,,,2,,,71,0
91228,note_on,,2,0,2,,,,,,,,,1,,,57,103
91230,note_on,,2,0,2,,,,,,,,,1,,,57,0
91230,note_on,,2,0,1,,,,,,,,,0,,,73,0
91232,note_on,,2,0,2,,,,,,,,,1,,,56,109
91232,note_on,,2,0,1,,,,,,,,,0,,,71,103
91232,note_on,,4,0,3,,,,,,,,,2,,,73,78
91232,note_on,,5,0,6,,,,,,,,,5,,,57,85
91234,note_on,,2,0,1,,,,,,,,,0,,,71,0
91234,note_on,,2,0,2,,,,,,,,,1,,,56,0
91236,note_on,,2,0,2,,,,,,,,,1,,,57,103
91236,note_on,,2,0,1,,,,,,,,,0,,,73,91
91238,note_on,,2,0,2,,,,,,,,,1,,,57,0
91238,note_on,,2,0,1,,,,,,,,,0,,,73,0
91240,note_on,,2,0,1,,,,,,,,,0,,,71,103
91240,note_on,,2,0,2,,,,,,,,,1,,,56,105
91242,note_on,,2,0,2,,,,,,,,,1,,,56,0
91242,note_on,,2,0,1,,,,,,,,,0,,,71,0
91243,note_on,,11,0,6,,,,,,,,,5,,,57,0
91244,note_on,,2,0,2,,,,,,,,,1,,,57,103
91244,note_on,,2,0,1,,,,,,,,,0,,,73,87
91244,note_on,,12,0,3,,,,,,,,,2,,,73,0
91246,note_on,,2,0,1,,,,,,,,,0,,,73,0
91246,note_on,,2,0,2,,,,,,,,,1,,,57,0
91248,note_on,,5,0,6,,,,,,,,,5,,,59,85
91248,note_on,,32,0,7,,,,,,,,,6,,,44,74
91248,note_on,,32,0,8,,,,,,,,,7,,,32,74
91248,note_on,,4,0,3,,,,,,,,,2,,,74,103
91248,note_on,,2,0,2,,,,,,,,,1,,,56,105
91248,note_on,,2,0,1,,,,,,,,,0,,,71,103
91250,note_on,,2,0,2,,,,,,,,,1,,,56,0
91250,note_on,,2,0,1,,,,,,,,,0,,,71,0
91252,note_on,,2,0,1,,,,,,,,,0,,,73,87
91252,note_on,,2,0,2,,,,,,,,,1,,,57,103
91254,note_on,,2,0,2,,,,,,,,,1,,,57,0
91254,note_on,,2,0,1,,,,,,,,,0,,,73,0
91256,note_on,,2,0,1,,,,,,,,,0,,,71,103
91256,note_on,,2,0,2,,,,,,,,,1,,,56,105
91258,note_on,,2,0,2,,,,,,,,,1,,,56,0
91258,note_on,,2,0,1,,,,,,,,,0,,,71,0
91259,note_on,,11,0,6,,,,,,,,,5,,,59,0
91260,note_on,,2,0,2,,,,,,,,,1,,,57,103
91260,note_on,,2,0,1,,,,,,,,,0,,,73,92
91260,note_on,,12,0,3,,,,,,,,,2,,,74,0
91262,note_on,,2,0,1,,,,,,,,,0,,,73,0
91262,note_on,,2,0,2,,,,,,,,,1,,,57,0
91264,note_on,,2,0,2,,,,,,,,,1,,,56,106
91264,note_on,,2,0,1,,,,,,,,,0,,,71,103
91264,note_on,,4,0,3,,,,,,,,,2,,,71,103
91264,note_on,,16,0,8,,,,,,,,,7,,,32,0
91264,note_on,,16,0,7,,,,,,,,,6,,,44,0
91264,note_on,,5,0,6,,,,,,,,,5,,,56,64
91266,note_on,,2,0,1,,,,,,,,,0,,,71,0
91266,note_on,,2,0,2,,,,,,,,,1,,,56,0
91268,note_on,,2,0,1,,,,,,,,,0,,,73,89
91268,note_on,,2,0,2,,,,,,,,,1,,,57,103
91270,note_on,,2,0,2,,,,,,,,,1,,,57,0
91270,note_on,,2,0,1,,,,,,,,,0,,,73,0
91272,note_on,,2,0,1,,,,,,,,,0,,,71,103
91272,note_on,,72,0,5,,,,,,,,,4,,,71,0
91272,note_on,,2,0,2,,,,,,,,,1,,,56,101
91274,note_on,,2,0,2,,,,,,,,,1,,,56,0
91274,note_on,,2,0,1,,,,,,,,,0,,,71,0
91275,note_on,,11,0,6,,,,,,,,,5,,,56,0
91276,note_on,,2,0,1,,,,,,,,,0,,,73,90
91276,note_on,,12,0,3,,,,,,,,,2,,,71,0
91276,note_on,,2,0,2,,,,,,,,,1,,,57,103
91278,note_on,,2,0,2,,,,,,,,,1,,,57,0
91278,note_on,,2,0,1,,,,,,,,,0,,,73,0
91280,note_on,,2,0,2,,,,,,,,,1,,,56,105
91280,note_on,,5,0,6,,,,,,,,,5,,,57,85
91280,note_on,,4,0,3,,,,,,,,,2,,,73,84
91280,note_on,,2,0,1,,,,,,,,,0,,,71,103
91282,note_on,,2,0,1,,,,,,,,,0,,,71,0
91282,note_on,,2,0,2,,,,,,,,,1,,,56,0
91284,note_on,,2,0,1,,,,,,,,,0,,,73,91
91284,note_on,,2,0,2,,,,,,,,,1,,,57,103
91286,note_on,,2,0,1,,,,,,,,,0,,,73,0
91286,note_on,,2,0,2,,,,,,,,,1,,,57,0
91288,note_on,,2,0,1,,,,,,,,,0,,,71,103
91288,note_on,,2,0,2,,,,,,,,,1,,,56,99
91290,note_on,,2,0,1,,,,,,,,,0,,,71,0
91290,note_on,,2,0,2,,,,,,,,,1,,,56,0
91291,note_on,,11,0,6,,,,,,,,,5,,,57,0
91292,note_on,,12,0,3,,,,,,,,,2,,,73,0
91292,note_on,,2,0,2,,,,,,,,,1,,,57,103
91292,note_on,,2,0,1,,,,,,,,,0,,,73,89
91294,note_on,,2,0,2,,,,,,,,,1,,,57,0
91294,note_on,,2,0,1,,,,,,,,,0,,,73,0
91296,note_on,,2,0,2,,,,,,,,,1,,,56,49
91296,note_on,,4,0,3,,,,,,,,,2,,,74,98
91296,note_on,,5,0,6,,,,,,,,,5,,,59,85
91296,note_on,,2,0,1,,,,,,,,,0,,,71,98
91296,note_on,,24,0,5,,,,,,,,,4,,,71,85
91312,note_on,,16,0,1,,,,,,,,,0,,,71,0
91312,note_on,,0,0,2,,,,,,,,,1,,,59,74
91312,note_on,,0,0,1,,,,,,,,,0,,,74,98
91312,note_on,,16,0,2,,,,,,,,,1,,,56,0
91312,note_on,,0,0,5,,,,,,,,,4,,,68,85
91312,note_on,,16,0,5,,,,,,,,,4,,,71,0
91328,note_on,,16,0,2,,,,,,,,,1,,,59,0
91328,note_on,,0,0,1,,,,,,,,,0,,,73,98
91328,note_on,,16,0,1,,,,,,,,,0,,,74,0
91328,note_on,,0,0,2,,,,,,,,,1,,,57,72
91328,note_on,,0,0,5,,,,,,,,,4,,,69,85
91328,note_on,,16,0,5,,,,,,,,,4,,,68,0
91344,note_on,,144,0,4,,,,,,,,,3,,,64,0
91344,note_on,,0,0,4,,,,,,,,,3,,,76,85
91344,note_on,,16,0,2,,,,,,,,,1,,,57,0
91344,note_on,,0,0,2,,,,,,,,,1,,,56,57
91344,note_on,,0,0,1,,,,,,,,,0,,,71,98
91344,note_on,,16,0,1,,,,,,,,,0,,,73,0
91344,note_on,,16,0,5,,,,,,,,,4,,,69,0
91344,note_on,,0,0,5,,,,,,,,,4,,,71,85
91344,note_on,,80,0,8,,,,,,,,,7,,,44,85
91344,note_on,,80,0,7,,,,,,,,,6,,,56,85
91350,note_on,,54,0,3,,,,,,,,,2,,,74,0
91360,note_on,,16,0,2,,,,,,,,,1,,,56,0
91360,note_on,,0,0,1,,,,,,,,,0,,,69,98
91360,note_on,,16,0,1,,,,,,,,,0,,,71,0
91360,note_on,,0,0,2,,,,,,,,,1,,,54,70
91368,note_on,,24,0,8,,,,,,,,,7,,,44,0
91368,note_on,,72,0,6,,,,,,,,,5,,,59,0
91368,note_on,,24,0,7,,,,,,,,,6,,,56,0
91376,note_on,,16,0,2,,,,,,,,,1,,,54,0
91376,note_on,,16,0,1,,,,,,,,,0,,,69,0
91376,note_on,,0,0,1,,,,,,,,,0,,,68,98
91376,note_on,,0,0,2,,,,,,,,,1,,,52,72
91380,note_on,,12,0,6,,,,,,,,,5,,,68,85
91380,note_on,,30,0,3,,,,,,,,,2,,,76,98
91380,note_on,,36,0,5,,,,,,,,,4,,,71,0
91380,note_on,,0,0,5,,,,,,,,,4,,,71,85
91389,note_on,,9,0,3,,,,,,,,,2,,,76,0
91392,note_on,,3,0,3,,,,,,,,,2,,,73,98
91392,note_on,,0,0,1,,,,,,,,,0,,,73,62
91392,note_on,,12,0,5,,,,,,,,,4,,,71,0
91392,note_on,,16,0,1,,,,,,,,,0,,,68,0
91392,note_on,,24,0,7,,,,,,,,,6,,,57,85
91392,note_on,,0,0,6,,,,,,,,,5,,,69,85
91392,note_on,,12,0,6,,,,,,,,,5,,,68,0
91392,note_on,,0,0,2,,,,,,,,,1,,,57,67
91392,note_on,,16,0,2,,,,,,,,,1,,,52,0
91392,note_on,,0,0,5,,,,,,,,,4,,,73,85
91392,note_on,,24,0,8,,,,,,,,,7,,,45,85
91408,note_on,,0,0,2,,,,,,,,,1,,,61,64
91408,note_on,,16,0,2,,,,,,,,,1,,,57,0
91408,note_on,,16,0,1,,,,,,,,,0,,,73,0
91408,note_on,,0,0,1,,,,,,,,,0,,,76,85
91416,note_on,,24,0,5,,,,,,,,,4,,,73,0
91416,note_on,,24,0,7,,,,,,,,,6,,,57,0
91416,note_on,,24,0,8,,,,,,,,,7,,,45,0
91424,note_on,,16,0,2,,,,,,,,,1,,,61,0
91424,note_on,,16,0,1,,,,,,,,,0,,,76,0
91424,note_on,,0,0,2,,,,,,,,,1,,,59,71
91424,note_on,,0,0,1,,,,,,,,,0,,,74,85
91428,note_on,,36,0,6,,,,,,,,,5,,,69,0
91428,note_on,,0,0,6,,,,,,,,,5,,,61,85
91440,note_on,,0,0,1,,,,,,,,,0,,,73,57
91440,note_on,,0,0,4,,,,,,,,,3,,,78,85
91440,note_on,,96,0,4,,,,,,,,,3,,,76,0
91440,note_on,,12,0,6,,,,,,,,,5,,,61,0
91440,note_on,,0,0,6,,,,,,,,,5,,,69,85
91440,note_on,,16,0,2,,,,,,,,,1,,,59,0
91440,note_on,,0,0,2,,,,,,,,,1,,,57,77
91440,note_on,,16,0,1,,,,,,,,,0,,,74,0
91456,note_on,,16,0,1,,,,,,,,,0,,,73,0
91456,note_on,,0,0,1,,,,,,,,,0,,,71,74
91456,note_on,,16,0,2,,,,,,,,,1,,,57,0
91456,note_on,,0,0,2,,,,,,,,,1,,,55,85
91464,note_on,,24,0,6,,,,,,,,,5,,,69,0
91464,note_on,,72,0,3,,,,,,,,,2,,,73,0
91472,note_on,,16,0,1,,,,,,,,,0,,,71,0
91472,note_on,,0,0,1,,,,,,,,,0,,,69,85
91472,note_on,,16,0,2,,,,,,,,,1,,,55,0
91472,note_on,,0,0,2,,,,,,,,,1,,,54,64
91476,note_on,,60,0,5,,,,,,,,,4,,,78,85
91476,note_on,,60,0,8,,,,,,,,,7,,,42,85
91476,note_on,,60,0,7,,,,,,,,,6,,,54,85
91488,note_on,,24,0,3,,,,,,,,,2,,,74,98
91488,note_on,,12,0,5,,,,,,,,,4,,,78,0
91488,note_on,,0,0,2,,,,,,,,,1,,,59,72
91488,note_on,,16,0,2,,,,,,,,,1,,,54,0
91488,note_on,,0,0,7,,,,,,,,,6,,,59,85
91488,note_on,,12,0,7,,,,,,,,,6,,,54,0
91488,note_on,,16,0,1,,,,,,,,,0,,,69,0
91488,note_on,,12,0,8,,,,,,,,,7,,,42,0
91488,note_on,,0,0,8,,,,,,,,,7,,,47,85
91488,note_on,,0,0,5,,,,,,,,,4,,,74,85
91488,note_on,,0,0,1,,,,,,,,,0,,,74,74
91504,note_on,,16,0,1,,,,,,,,,0,,,74,0
91504,note_on,,16,0,2,,,,,,,,,1,,,59,0
91504,note_on,,0,0,2,,,,,,,,,1,,,62,85
91504,note_on,,0,0,1,,,,,,,,,0,,,78,64
91512,note_on,,24,0,8,,,,,,,,,7,,,47,0
91512,note_on,,24,0,7,,,,,,,,,6,,,59,0
91512,note_on,,24,0,5,,,,,,,,,4,,,74,0
91520,note_on,,16,0,1,,,,,,,,,0,,,78,0
91520,note_on,,0,0,1,,,,,,,,,0,,,76,85
91520,note_on,,0,0,2,,,,,,,,,1,,,61,65
91520,note_on,,16,0,2,,,,,,,,,1,,,62,0
91524,note_on,,60,0,6,,,,,,,,,5,,,66,85
91536,note_on,,16,0,2,,,,,,,,,1,,,61,0
91536,note_on,,16,0,1,,,,,,,,,0,,,76,0
91536,note_on,,0,0,1,,,,,,,,,0,,,74,85
91536,note_on,,0,0,2,,,,,,,,,1,,,59,85
91536,note_on,,0,0,4,,,,,,,,,3,,,79,85
91536,note_on,,96,0,4,,,,,,,,,3,,,78,0
91536,note_on,,12,0,6,,,,,,,,,5,,,66,0
91536,note_on,,0,0,6,,,,,,,,,5,,,71,85
91552,note_on,,16,0,1,,,,,,,,,0,,,74,0
91552,note_on,,16,0,2,,,,,,,,,1,,,59,0
91552,note_on,,0,0,2,,,,,,,,,1,,,57,78
91552,note_on,,0,0,1,,,,,,,,,0,,,73,59
91560,note_on,,72,0,3,,,,,,,,,2,,,74,0
91560,note_on,,24,0,6,,,,,,,,,5,,,71,0
91568,note_on,,0,0,2,,,,,,,,,1,,,55,81
91568,note_on,,16,0,2,,,,,,,,,1,,,57,0
91568,note_on,,16,0,1,,,,,,,,,0,,,73,0
91568,note_on,,0,0,1,,,,,,,,,0,,,71,85
91572,note_on,,60,0,8,,,,,,,,,7,,,43,85
91572,note_on,,60,0,7,,,,,,,,,6,,,55,85
91572,note_on,,60,0,5,,,,,,,,,4,,,79,85
91584,note_on,,12,0,5,,,,,,,,,4,,,79,0
91584,note_on,,0,0,5,,,,,,,,,4,,,76,85
91584,note_on,,0,0,8,,,,,,,,,7,,,49,85
91584,note_on,,12,0,8,,,,,,,,,7,,,43,0
91584,note_on,,12,0,7,,,,,,,,,6,,,55,0
91584,note_on,,0,0,2,,,,,,,,,1,,,61,67
91584,note_on,,16,0,2,,,,,,,,,1,,,55,0
91584,note_on,,0,0,1,,,,,,,,,0,,,76,72
91584,note_on,,16,0,1,,,,,,,,,0,,,71,0
91584,note_on,,0,0,7,,,,,,,,,6,,,61,85
91584,note_on,,24,0,3,,,,,,,,,2,,,76,98
91600,note_on,,0,0,1,,,,,,,,,0,,,79,85
91600,note_on,,0,0,2,,,,,,,,,1,,,64,85
91600,note_on,,16,0,1,,,,,,,,,0,,,76,0
91600,note_on,,16,0,2,,,,,,,,,1,,,61,0
91608,note_on,,24,0,8,,,,,,,,,7,,,49,0
91608,note_on,,24,0,7,,,,,,,,,6,,,61,0
91608,note_on,,24,0,5,,,,,,,,,4,,,76,0
91616,note_on,,16,0,1,,,,,,,,,0,,,79,0
91616,note_on,,0,0,2,,,,,,,,,1,,,62,85
91616,note_on,,16,0,2,,,,,,,,,1,,,64,0
91616,note_on,,0,0,1,,,,,,,,,0,,,78,66
91620,note_on,,60,0,6,,,,,,,,,5,,,69,85
91632,note_on,,16,0,2,,,,,,,,,1,,,62,0
91632,note_on,,0,0,2,,,,,,,,,1,,,61,67
91632,note_on,,12,0,6,,,,,,,,,5,,,69,0
91632,note_on,,0,0,6,,,,,,,,,5,,,73,85
91632,note_on,,0,0,1,,,,,,,,,0,,,76,70
91632,note_on,,96,0,4,,,,,,,,,3,,,79,0
91632,note_on,,0,0,4,,,,,,,,,3,,,81,85
91632,note_on,,16,0,1,,,,,,,,,0,,,78,0
91648,note_on,,0,0,2,,,,,,,,,1,,,59,77
91648,note_on,,16,0,2,,,,,,,,,1,,,61,0
91648,note_on,,16,0,1,,,,,,,,,0,,,76,0
91648,note_on,,16,0,4,,,,,,,,,3,,,81,0
91648,note_on,,0,0,1,,,,,,,,,0,,,74,69
91656,note_on,,24,0,6,,,,,,,,,5,,,73,0
91656,note_on,,72,0,3,,,,,,,,,2,,,76,0
91664,note_on,,0,0,2,,,,,,,,,1,,,57,85
91664,note_on,,16,0,2,,,,,,,,,1,,,59,0
91664,note_on,,16,0,1,,,,,,,,,0,,,74,0
91664,note_on,,0,0,1,,,,,,,,,0,,,73,62
91668,note_on,,60,0,7,,,,,,,,,6,,,57,85
91668,note_on,,60,0,5,,,,,,,,,4,,,81,85
91668,note_on,,60,0,8,,,,,,,,,7,,,45,85
91680,note_on,,0,0,5,,,,,,,,,4,,,78,85
91680,note_on,,16,0,1,,,,,,,,,0,,,73,0
91680,note_on,,0,0,1,,,,,,,,,0,,,78,98
91680,note_on,,12,0,5,,,,,,,,,4,,,81,0
91680,note_on,,0,0,8,,,,,,,,,7,,,50,85
91680,note_on,,12,0,8,,,,,,,,,7,,,45,0
91680,note_on,,0,0,2,,,,,,,,,1,,,62,85
91680,note_on,,0,0,7,,,,,,,,,6,,,62,85
91680,set_tempo,,28992,1,0,,,,,,,480000,,,,,,
91680,note_on,,12,0,7,,,,,,,,,6,,,57,0
91680,note_on,,24,0,3,,,,,,,,,2,,,78,98
91680,note_on,,16,0,2,,,,,,,,,1,,,57,0
91692,set_tempo,,12,1,0,,,,,,,487805,,,,,,
91704,note_on,,24,0,8,,,,,,,,,7,,,50,0
91704,note_on,,24,0,7,,,,,,,,,6,,,62,0
91704,note_on,,24,0,2,,,,,,,,,1,,,62,0
91704,note_on,,24,0,5,,,,,,,,,4,,,78,0
91707,note_on,,27,0,3,,,,,,,,,2,,,78,0
91707,note_on,,27,0,1,,,,,,,,,0,,,78,0
91716,set_tempo,,24,1,0,,,,,,,491803,,,,,,
91716,note_on,,9,0,1,,,,,,,,,0,,,81,98
91716,note_on,,68,0,4,,,,,,,,,3,,,81,85
91716,note_on,,9,0,3,,,,,,,,,2,,,81,98
91725,note_on,,9,0,3,,,,,,,,,2,,,81,0
91725,note_on,,9,0,1,,,,,,,,,0,,,81,0
91728,note_on,,3,0,1,,,,,,,,,0,,,86,98
91728,note_on,,24,0,5,,,,,,,,,4,,,81,85
91728,note_on,,12,0,4,,,,,,,,,3,,,81,0
91728,note_on,,24,0,2,,,,,,,,,1,,,54,69
91728,note_on,,0,0,4,,,,,,,,,3,,,86,85
91728,note_on,,24,0,8,,,,,,,,,7,,,42,85
91728,note_on,,24,0,7,,,,,,,,,6,,,54,85
91728,note_on,,3,0,3,,,,,,,,,2,,,86,98
91728,note_on,,72,0,6,,,,,,,,,5,,,62,85
91740,set_tempo,,24,1,0,,,,,,,500000,,,,,,
91752,note_on,,24,0,8,,,,,,,,,7,,,42,0
91752,note_on,,24,0,6,,,,,,,,,5,,,62,0
91752,note_on,,24,0,7,,,,,,,,,6,,,54,0
91752,note_on,,24,0,5,,,,,,,,,4,,,81,0
91752,note_on,,24,0,2,,,,,,,,,1,,,54,0
91755,note_on,,27,0,3,,,,,,,,,2,,,86,0
91755,note_on,,27,0,1,,,,,,,,,0,,,86,0
91764,set_tempo,,24,1,0,,,,,,,508475,,,,,,
91764,note_on,,9,0,1,,,,,,,,,0,,,81,98
91764,note_on,,9,0,3,,,,,,,,,2,,,81,98
91764,note_on,,0,0,4,,,,,,,,,3,,,81,85
91764,note_on,,36,0,4,,,,,,,,,3,,,86,0
91773,note_on,,9,0,1,,,,,,,,,0,,,81,0
91773,note_on,,9,0,3,,,,,,,,,2,,,81,0
91776,set_tempo,,12,1,0,,,,,,,517241,,,,,,
91776,note_on,,12,0,4,,,,,,,,,3,,,81,0
91776,note_on,,0,0,4,,,,,,,,,3,,,83,85
91776,note_on,,24,0,2,,,,,,,,,1,,,55,85
91776,note_on,,3,0,1,,,,,,,,,0,,,83,98
91776,note_on,,24,0,5,,,,,,,,,4,,,74,85
91776,note_on,,24,0,8,,,,,,,,,7,,,43,85
91776,note_on,,24,0,6,,,,,,,,,5,,,62,85
91776,note_on,,3,0,3,,,,,,,,,2,,,83,98
91776,note_on,,24,0,7,,,,,,,,,6,,,55,85
91788,note_on,,12,0,1,,,,,,,,,0,,,83,0
91788,note_on,,12,0,3,,,,,,,,,2,,,83,0
91792,note_on,,4,0,3,,,,,,,,,2,,,81,98
91792,note_on,,4,0,1,,,,,,,,,0,,,81,98
91792,note_on,,16,0,4,,,,,,,,,3,,,83,0
91792,note_on,,0,0,4,,,,,,,,,3,,,81,85
91800,set_tempo,,24,1,0,,,,,,,521739,,,,,,
91800,note_on,,24,0,6,,,,,,,,,5,,,62,0
91800,note_on,,24,0,2,,,,,,,,,1,,,55,0
91800,note_on,,24,0,8,,,,,,,,,7,,,43,0
91800,note_on,,24,0,5,,,,,,,,,4,,,74,0
91800,note_on,,24,0,7,,,,,,,,,6,,,55,0
91804,note_on,,12,0,1,,,,,,,,,0,,,81,0
91804,note_on,,12,0,3,,,,,,,,,2,,,81,0
91808,note_on,,0,0,4,,,,,,,,,3,,,79,85
91808,note_on,,4,0,3,,,,,,,,,2,,,79,98
91808,note_on,,4,0,1,,,,,,,,,0,,,79,98
91808,note_on,,16,0,4,,,,,,,,,3,,,81,0
91820,note_on,,12,0,1,,,,,,,,,0,,,79,0
91820,note_on,,12,0,3,,,,,,,,,2,,,79,0
91824,note_on,,16,0,4,,,,,,,,,3,,,79,0
91824,note_on,,0,0,4,,,,,,,,,3,,,78,85
91824,note_on,,24,0,6,,,,,,,,,5,,,69,85
91824,set_tempo,,24,1,0,,,,,,,530973,,,,,,
91824,note_on,,4,0,3,,,,,,,,,2,,,78,98
91824,note_on,,24,0,8,,,,,,,,,7,,,45,85
91824,note_on,,4,0,1,,,,,,,,,0,,,78,98
91824,note_on,,24,0,7,,,,,,,,,6,,,57,85
91824,note_on,,24,0,5,,,,,,,,,4,,,73,85
91824,note_on,,24,0,2,,,,,,,,,1,,,57,85
91836,note_on,,12,0,1,,,,,,,,,0,,,78,0
91836,note_on,,12,0,3,,,,,,,,,2,,,78,0
91840,note_on,,16,0,4,,,,,,,,,3,,,78,0
91840,note_on,,0,0,4,,,,,,,,,3,,,79,85
91840,note_on,,4,0,3,,,,,,,,,2,,,79,98
91840,note_on,,4,0,1,,,,,,,,,0,,,79,98
91848,note_on,,24,0,2,,,,,,,,,1,,,57,0
91848,note_on,,24,0,8,,,,,,,,,7,,,45,0
91848,note_on,,24,0,5,,,,,,,,,4,,,73,0
91848,note_on,,24,0,7,,,,,,,,,6,,,57,0
91848,set_tempo,,24,1,0,,,,,,,540541,,,,,,
91848,note_on,,24,0,6,,,,,,,,,5,,,69,0
91852,note_on,,12,0,1,,,,,,,,,0,,,79,0
91852,note_on,,12,0,3,,,,,,,,,2,,,79,0
91856,note_on,,4,0,3,,,,,,,,,2,,,81,98
91856,note_on,,16,0,4,,,,,,,,,3,,,79,0
91856,note_on,,4,0,1,,,,,,,,,0,,,81,98
91856,note_on,,0,0,4,,,,,,,,,3,,,81,85
91860,set_tempo,,12,1,0,,,,,,,545455,,,,,,
91868,note_on,,12,0,3,,,,,,,,,2,,,81,0
91868,note_on,,12,0,1,,,,,,,,,0,,,81,0
91872,set_tempo,,12,1,0,,,,,,,545455,,,,,,
91872,note_on,,16,0,4,,,,,,,,,3,,,81,0
91872,note_on,,0,0,4,,,,,,,,,3,,,74,85
91872,note_on,,24,0,2,,,,,,,,,1,,,59,85
91872,note_on,,24,0,8,,,,,,,,,7,,,47,85
91872,note_on,,4,0,1,,,,,,,,,0,,,74,98
91872,note_on,,24,0,6,,,,,,,,,5,,,66,85
91872,note_on,,24,0,5,,,,,,,,,4,,,71,85
91872,note_on,,24,0,7,,,,,,,,,6,,,59,85
91872,note_on,,4,0,3,,,,,,,,,2,,,74,98
91884,set_tempo,,12,1,0,,,,,,,555556,,,,,,
91888,note_on,,16,0,2,,,,,,,,,1,,,59,0
91888,note_on,,16,0,7,,,,,,,,,6,,,59,0
91888,note_on,,0,0,7,,,,,,,,,6,,,57,85
91888,note_on,,0,0,8,,,,,,,,,7,,,45,85
91888,note_on,,0,0,2,,,,,,,,,1,,,57,85
91888,note_on,,16,0,8,,,,,,,,,7,,,47,0
91899,note_on,,27,0,3,,,,,,,,,2,,,74,0
91899,note_on,,27,0,1,,,,,,,,,0,,,74,0
91904,note_on,,16,0,7,,,,,,,,,6,,,57,0
91904,note_on,,16,0,8,,,,,,,,,7,,,45,0
91904,note_on,,16,0,2,,,,,,,,,1,,,57,0
91904,note_on,,0,0,7,,,,,,,,,6,,,55,85
91904,note_on,,0,0,2,,,,,,,,,1,,,55,85
91904,note_on,,0,0,8,,,,,,,,,7,,,43,85
91908,note_on,,0,0,4,,,,,,,,,3,,,76,85
91908,note_on,,36,0,6,,,,,,,,,5,,,66,0
91908,set_tempo,,24,1,0,,,,,,,566038,,,,,,
91908,note_on,,0,0,6,,,,,,,,,5,,,67,85
91908,note_on,,36,0,5,,,,,,,,,4,,,71,0
91908,note_on,,9,0,3,,,,,,,,,2,,,76,98
91908,note_on,,0,0,5,,,,,,,,,4,,,71,85
91908,note_on,,9,0,1,,,,,,,,,0,,,76,98
91908,note_on,,36,0,4,,,,,,,,,3,,,74,0
91917,note_on,,9,0,1,,,,,,,,,0,,,76,0
91917,note_on,,9,0,3,,,,,,,,,2,,,76,0
91920,note_on,,12,0,5,,,,,,,,,4,,,71,0
91920,note_on,,0,0,8,,,,,,,,,7,,,45,85
91920,note_on,,16,0,7,,,,,,,,,6,,,55,0
91920,note_on,,0,0,7,,,,,,,,,6,,,57,85
91920,note_on,,16,0,8,,,,,,,,,7,,,43,0
91920,note_on,,0,0,6,,,,,,,,,5,,,64,85
91920,note_on,,3,0,3,,,,,,,,,2,,,73,98
91920,note_on,,0,0,5,,,,,,,,,4,,,69,85
91920,note_on,,0,0,4,,,,,,,,,3,,,73,85
91920,note_on,,12,0,6,,,,,,,,,5,,,67,0
91920,note_on,,12,0,4,,,,,,,,,3,,,76,0
91920,note_on,,16,0,2,,,,,,,,,1,,,55,0
91920,note_on,,0,0,2,,,,,,,,,1,,,57,85
91920,note_on,,3,0,1,,,,,,,,,0,,,73,98
91932,set_tempo,,24,1,0,,,,,,,576923,,,,,,
91944,set_tempo,,12,1,0,,,,,,,582524,,,,,,
91947,note_on,,27,0,3,,,,,,,,,2,,,73,0
91947,note_on,,27,0,1,,,,,,,,,0,,,73,0
91956,note_on,,0,0,5,,,,,,,,,4,,,69,85
91956,note_on,,0,0,6,,,,,,,,,5,,,66,85
91956,note_on,,36,0,6,,,,,,,,,5,,,64,0
91956,note_on,,36,0,4,,,,,,,,,3,,,73,0
91956,note_on,,0,0,4,,,,,,,,,3,,,74,85
91956,note_on,,9,0,1,,,,,,,,,0,,,74,98
91956,note_on,,0,0,2,,,,,,,,,1,,,45,85
91956,note_on,,36,0,2,,,,,,,,,1,,,57,0
91956,note_on,,36,0,7,,,,,,,,,6,,,57,0
91956,note_on,,36,0,5,,,,,,,,,4,,,69,0
91956,note_on,,36,0,8,,,,,,,,,7,,,45,0
91956,note_on,,0,0,8,,,,,,,,,7,,,33,85
91956,note_on,,9,0,3,,,,,,,,,2,,,74,98
91956,note_on,,0,0,7,,,,,,,,,6,,,45,85
91965,note_on,,9,0,3,,,,,,,,,2,,,74,0
91965,note_on,,9,0,1,,,,,,,,,0,,,74,0
91968,note_on,,0,0,1,,,,,,,,,0,,,62,85
91968,note_on,,3,0,1,,,,,,,,,0,,,69,85
91968,note_on,,0,0,1,,,,,,,,,0,,,74,98
91968,note_on,,0,0,1,,,,,,,,,0,,,66,85
91968,note_on,,12,0,6,,,,,,,,,5,,,66,0
91968,note_on,,12,0,7,,,,,,,,,6,,,45,0
91968,note_on,,12,0,5,,,,,,,,,4,,,69,0
91968,note_on,,0,0,5,,,,,,,,,4,,,69,85
91968,note_on,,12,0,8,,,,,,,,,7,,,33,0
91968,note_on,,0,0,8,,,,,,,,,7,,,38,85
91968,note_on,,12,0,2,,,,,,,,,1,,,45,0
91968,note_on,,0,0,2,,,,,,,,,1,,,50,85
91968,note_on,,0,0,2,,,,,,,,,1,,,57,85
91968,note_on,,0,0,6,,,,,,,,,5,,,66,85
91968,set_tempo,,24,1,0,,,,,,,594059,,,,,,
91968,end_of_track,,0,1,0,,,,,,,,,,,,,
91968,note_on,,12,0,4,,,,,,,,,3,,,74,0
91968,note_on,,3,0,3,,,,,,,,,2,,,74,98
91968,note_on,,0,0,7,,,,,,,,,6,,,50,85
91968,note_on,,0,0,4,,,,,,,,,3,,,74,85
92064,note_on,,96,0,6,,,,,,,,,5,,,66,0
92064,note_on,,0,0,1,,,,,,,,,0,,,69,0
92064,end_of_track,,0,1,5,,,,,,,,,,,,,
92064,note_on,,96,0,5,,,,,,,,,4,,,69,0
92064,midi_port,0,0,1,4,,,,,,,,,,,,,
92064,note_on,,96,0,4,,,,,,,,,3,,,74,0
92064,end_of_track,,0,1,3,,,,,,,,,,,,,
92064,note_on,,96,0,3,,,,,,,,,2,,,74,0
92064,note_on,,96,0,1,,,,,,,,,0,,,74,0
92064,end_of_track,,0,1,2,,,,,,,,,,,,,
92064,note_on,,96,0,8,,,,,,,,,7,,,38,0
92064,note_on,,96,0,2,,,,,,,,,1,,,57,0
92064,end_of_track,,0,1,6,,,,,,,,,,,,,
92064,note_on,,96,0,7,,,,,,,,,6,,,50,0
92064,end_of_track,,0,1,7,,,,,,,,,,,,,
92064,end_of_track,,0,1,1,,,,,,,,,,,,,
92064,note_on,,0,0,1,,,,,,,,,0,,,62,0
92064,note_on,,0,0,1,,,,,,,,,0,,,66,0
92064,note_on,,0,0,2,,,,,,,,,1,,,50,0
92064,end_of_track,,0,1,8,,,,,,,,,,,,,
92161,sysex,,97,0,4,"(126, 127, 9, 2)",,,,,,,,,,,,
92161,midi_port,0,0,1,4,,,,,,,,,,,,,
92161,end_of_track,,0,1,4,,,,,,,,,,,,,
