,note,step,duration,channel,velocity
0,62.0,0,210,2.0,0.0
1,50.0,105,240,3.0,0.0
2,66.0,0,210,1.0,0.0
3,69.0,15,210,0.0,0.0
4,69.0,0,210,4.0,0.0
5,62.0,0,210,12.0,0.0
6,62.0,0,690,13.0,0.0
7,62.0,120,690,14.0,0.0
8,66.0,0,210,11.0,0.0
9,69.0,0,210,5.0,0.0
10,69.0,0,210,10.0,0.0
11,81.0,0,90,10.0,0.0
12,78.0,0,90,1.0,0.0
13,78.0,0,90,11.0,0.0
14,81.0,120,90,0.0,0.0
15,81.0,0,90,4.0,0.0
16,81.0,0,90,5.0,0.0
17,50.0,225,240,3.0,0.0
18,62.0,0,210,12.0,0.0
19,62.0,0,210,2.0,0.0
20,78.0,0,90,0.0,0.0
21,78.0,0,90,5.0,0.0
22,78.0,0,90,10.0,0.0
23,74.0,0,90,1.0,0.0
24,74.0,0,90,11.0,0.0
25,78.0,15,90,4.0,0.0
26,76.0,0,450,1.0,0.0
27,45.0,225,480,3.0,0.0
28,79.0,0,450,10.0,0.0
29,79.0,0,450,4.0,0.0
30,69.0,0,450,2.0,0.0
31,76.0,0,450,11.0,0.0
32,79.0,0,450,5.0,0.0
33,69.0,0,450,12.0,0.0
34,79.0,15,450,0.0,0.0
35,61.0,0,90,13.0,0.0
36,61.0,120,90,14.0,0.0
37,59.0,0,90,13.0,0.0
38,59.0,0,90,14.0,0.0
39,69.0,0,210,0.0,0.0
40,69.0,0,210,12.0,0.0
41,64.0,0,210,11.0,0.0
42,69.0,0,210,2.0,0.0
43,69.0,0,210,4.0,0.0
44,69.0,0,210,5.0,0.0
45,69.0,0,210,10.0,0.0
46,61.0,15,210,13.0,0.0
47,69.0,0,210,1.0,0.0
48,45.0,105,240,3.0,0.0
49,61.0,0,210,14.0,0.0
50,79.0,0,90,4.0,0.0
51,45.0,225,240,3.0,0.0
52,57.0,0,210,13.0,0.0
53,76.0,0,90,1.0,0.0
54,76.0,0,90,11.0,0.0
55,69.0,15,210,2.0,0.0
56,69.0,0,210,12.0,0.0
57,79.0,0,90,5.0,0.0
58,79.0,83,90,10.0,0.0
59,57.0,0,210,14.0,0.0
60,79.0,0,90,0.0,0.0
61,76.0,0,90,10.0,0.0
62,76.0,0,90,0.0,0.0
63,76.0,37,60,4.0,0.0
64,69.0,0,90,1.0,0.0
65,76.0,0,90,5.0,0.0
66,73.0,0,90,11.0,0.0
67,76.0,0,30,4.0,0.0
68,62.0,0,210,14.0,0.0
69,50.0,0,480,3.0,0.0
70,78.0,15,450,5.0,0.0
71,74.0,0,450,11.0,0.0
72,69.0,0,450,12.0,0.0
73,78.0,0,450,10.0,0.0
74,78.0,0,480,0.0,0.0
75,69.0,0,480,1.0,0.0
76,62.0,225,480,2.0,0.0
77,78.0,0,450,4.0,0.0
78,62.0,120,210,13.0,0.0
79,50.0,120,90,14.0,0.0
80,50.0,0,90,13.0,0.0
81,52.0,0,90,13.0,0.0
82,52.0,0,90,14.0,0.0
83,54.0,0,210,14.0,0.0
84,62.0,0,210,11.0,0.0
85,54.0,0,210,13.0,0.0
86,69.0,0,210,5.0,0.0
87,69.0,0,210,10.0,0.0
88,69.0,120,210,4.0,0.0
89,69.0,0,210,12.0,0.0
90,55.0,0,90,14.0,0.0
91,64.0,240,210,11.0,0.0
92,76.0,0,90,5.0,0.0
93,55.0,0,90,13.0,0.0
94,61.0,0,210,12.0,0.0
95,76.0,120,90,4.0,0.0
96,76.0,0,90,10.0,0.0
97,52.0,0,90,13.0,0.0
98,73.0,0,90,4.0,0.0
99,52.0,0,90,14.0,0.0
100,73.0,0,90,5.0,0.0
101,73.0,0,90,10.0,0.0
102,54.0,0,210,14.0,0.0
103,74.0,0,210,10.0,0.0
104,74.0,0,210,4.0,0.0
105,66.0,0,210,12.0,0.0
106,57.0,120,210,11.0,0.0
107,54.0,0,210,13.0,0.0
108,74.0,0,210,5.0,0.0
109,73.0,120,90,4.0,0.0
110,55.0,0,210,14.0,0.0
111,73.0,0,90,5.0,0.0
112,64.0,120,210,12.0,0.0
113,73.0,0,90,10.0,0.0
114,62.0,0,210,11.0,0.0
115,55.0,0,210,13.0,0.0
116,71.0,0,90,4.0,0.0
117,71.0,0,90,5.0,0.0
118,71.0,0,90,10.0,0.0
119,69.0,0,90,5.0,0.0
120,57.0,240,210,13.0,0.0
121,69.0,120,90,10.0,0.0
122,62.0,0,210,11.0,0.0
123,57.0,0,210,14.0,0.0
124,69.0,0,90,4.0,0.0
125,66.0,0,210,12.0,0.0
126,71.0,0,90,4.0,0.0
127,71.0,0,90,5.0,0.0
128,71.0,0,90,10.0,0.0
129,67.0,0,210,5.0,0.0
130,67.0,0,210,4.0,0.0
131,45.0,0,210,14.0,0.0
132,45.0,0,210,13.0,0.0
133,67.0,0,210,10.0,0.0
134,61.0,45,210,11.0,0.0
135,64.0,0,210,12.0,0.0
136,50.0,7,210,14.0,0.0
137,66.0,0,30,5.0,0.0
138,50.0,0,210,13.0,0.0
139,62.0,0,450,12.0,0.0
140,66.0,0,30,4.0,0.0
141,57.0,240,450,11.0,0.0
142,66.0,30,30,10.0,0.0
143,67.0,0,30,5.0,0.0
144,67.0,0,30,10.0,0.0
145,67.0,30,30,4.0,0.0
146,66.0,30,30,5.0,0.0
147,66.0,0,30,10.0,0.0
148,66.0,0,30,4.0,0.0
149,67.0,0,30,5.0,0.0
150,67.0,0,30,10.0,0.0
151,67.0,30,30,4.0,0.0
152,66.0,0,30,5.0,0.0
153,66.0,0,30,10.0,0.0
154,66.0,30,30,4.0,0.0
155,67.0,0,30,5.0,0.0
156,67.0,30,30,10.0,0.0
157,67.0,0,30,4.0,0.0
158,64.0,15,30,5.0,0.0
159,64.0,0,30,4.0,0.0
160,64.0,0,30,10.0,0.0
161,66.0,113,20,10.0,0.0
162,66.0,0,20,4.0,0.0
163,66.0,0,20,5.0,0.0
164,64.0,0,90,5.0,0.0
165,64.0,0,90,10.0,0.0
166,64.0,120,90,4.0,0.0
167,54.0,0,90,13.0,0.0
168,54.0,0,90,14.0,0.0
169,62.0,0,90,4.0,0.0
170,57.0,0,90,13.0,0.0
171,62.0,0,90,10.0,0.0
172,57.0,0,90,14.0,0.0
173,62.0,0,90,5.0,0.0
174,62.0,0,210,2.0,0.0
175,69.0,0,210,4.0,0.0
176,69.0,0,210,5.0,0.0
177,50.0,105,240,3.0,0.0
178,62.0,0,210,12.0,0.0
179,62.0,0,690,13.0,0.0
180,69.0,0,210,0.0,0.0
181,66.0,0,210,11.0,0.0
182,62.0,120,690,14.0,0.0
183,66.0,0,210,1.0,0.0
184,69.0,15,210,10.0,0.0
185,81.0,0,90,5.0,0.0
186,78.0,120,90,11.0,0.0
187,78.0,0,90,1.0,0.0
188,50.0,225,240,3.0,0.0
189,81.0,0,90,4.0,0.0
190,81.0,0,90,10.0,0.0
191,62.0,0,210,12.0,0.0
192,81.0,0,90,0.0,0.0
193,62.0,0,210,2.0,0.0
194,78.0,0,90,4.0,0.0
195,78.0,0,90,0.0,0.0
196,78.0,0,90,5.0,0.0
197,74.0,0,90,1.0,0.0
198,78.0,0,90,10.0,0.0
199,74.0,15,90,11.0,0.0
200,76.0,0,450,11.0,0.0
201,76.0,0,450,1.0,0.0
202,69.0,0,450,12.0,0.0
203,79.0,0,450,4.0,0.0
204,79.0,0,450,0.0,0.0
205,79.0,0,450,5.0,0.0
206,45.0,225,480,3.0,0.0
207,69.0,15,450,2.0,0.0
208,79.0,0,450,10.0,0.0
209,61.0,120,90,14.0,0.0
210,61.0,0,90,13.0,0.0
211,59.0,0,90,13.0,0.0
212,59.0,0,90,14.0,0.0
213,69.0,0,210,2.0,0.0
214,69.0,0,210,5.0,0.0
215,69.0,0,210,0.0,0.0
216,69.0,0,210,10.0,0.0
217,61.0,0,210,13.0,0.0
218,61.0,0,210,14.0,0.0
219,69.0,0,210,12.0,0.0
220,69.0,15,210,1.0,0.0
221,64.0,0,210,11.0,0.0
222,45.0,105,240,3.0,0.0
223,69.0,0,210,4.0,0.0
224,69.0,0,210,12.0,0.0
225,79.0,0,90,5.0,0.0
226,79.0,120,90,10.0,0.0
227,57.0,0,210,14.0,0.0
228,69.0,15,210,2.0,0.0
229,79.0,0,90,0.0,0.0
230,76.0,0,90,1.0,0.0
231,76.0,0,90,11.0,0.0
232,57.0,0,210,13.0,0.0
233,45.0,225,240,3.0,0.0
234,79.0,0,90,4.0,0.0
235,76.0,0,90,5.0,0.0
236,76.0,0,90,10.0,0.0
237,73.0,0,90,11.0,0.0
238,76.0,0,90,4.0,0.0
239,69.0,0,90,1.0,0.0
240,76.0,0,90,0.0,0.0
241,62.0,0,480,2.0,0.0
242,78.0,0,450,4.0,0.0
243,69.0,0,480,1.0,0.0
244,69.0,0,450,12.0,0.0
245,74.0,15,450,11.0,0.0
246,78.0,225,480,0.0,0.0
247,62.0,240,210,14.0,0.0
248,50.0,0,480,3.0,0.0
249,62.0,0,210,13.0,0.0
250,78.0,0,450,10.0,0.0
251,78.0,0,450,5.0,0.0
252,61.0,0,210,14.0,0.0
253,61.0,0,210,13.0,0.0
254,80.0,0,210,10.0,0.0
255,80.0,0,210,5.0,0.0
256,80.0,0,210,4.0,0.0
257,59.0,0,210,14.0,0.0
258,71.0,0,210,12.0,0.0
259,74.0,120,210,11.0,0.0
260,59.0,0,210,13.0,0.0
261,71.0,240,210,11.0,0.0
262,83.0,0,90,4.0,0.0
263,64.0,0,210,14.0,0.0
264,68.0,0,210,12.0,0.0
265,64.0,0,210,13.0,0.0
266,83.0,120,90,5.0,0.0
267,83.0,0,90,10.0,0.0
268,80.0,0,90,4.0,0.0
269,80.0,0,90,5.0,0.0
270,80.0,0,90,10.0,0.0
271,61.0,0,210,14.0,0.0
272,76.0,0,210,11.0,0.0
273,81.0,0,210,4.0,0.0
274,81.0,120,210,5.0,0.0
275,61.0,0,210,13.0,0.0
276,64.0,0,210,12.0,0.0
277,81.0,0,210,10.0,0.0
278,59.0,0,90,14.0,0.0
279,59.0,0,90,13.0,0.0
280,80.0,0,90,10.0,0.0
281,64.0,0,210,12.0,0.0
282,80.0,0,90,5.0,0.0
283,74.0,120,90,11.0,0.0
284,80.0,0,90,4.0,0.0
285,78.0,0,90,4.0,0.0
286,78.0,0,90,5.0,0.0
287,57.0,0,90,13.0,0.0
288,73.0,0,90,11.0,0.0
289,78.0,0,90,10.0,0.0
290,57.0,120,90,14.0,0.0
291,56.0,0,210,14.0,0.0
292,76.0,0,90,10.0,0.0
293,76.0,0,90,5.0,0.0
294,64.0,0,210,12.0,0.0
295,56.0,0,210,13.0,0.0
296,71.0,0,210,11.0,0.0
297,76.0,120,90,4.0,0.0
298,78.0,0,90,10.0,0.0
299,78.0,240,90,4.0,0.0
300,78.0,0,90,5.0,0.0
301,74.0,240,210,10.0,0.0
302,64.0,0,210,12.0,0.0
303,74.0,0,210,5.0,0.0
304,52.0,0,210,14.0,0.0
305,68.0,0,210,11.0,0.0
306,74.0,0,210,4.0,0.0
307,52.0,0,210,13.0,0.0
308,73.0,0,210,4.0,0.0
309,73.0,0,210,5.0,0.0
310,57.0,120,210,14.0,0.0
311,73.0,0,210,10.0,0.0
312,69.0,0,210,11.0,0.0
313,57.0,0,210,13.0,0.0
314,64.0,0,210,12.0,0.0
315,50.0,0,210,13.0,0.0
316,78.0,0,90,10.0,0.0
317,78.0,120,90,4.0,0.0
318,50.0,0,210,14.0,0.0
319,78.0,0,90,5.0,0.0
320,62.0,0,210,12.0,0.0
321,69.0,0,210,11.0,0.0
322,74.0,0,90,4.0,0.0
323,74.0,0,90,5.0,0.0
324,74.0,240,90,10.0,0.0
325,76.0,120,210,4.0,0.0
326,49.0,0,210,14.0,0.0
327,76.0,0,210,10.0,0.0
328,76.0,0,210,5.0,0.0
329,49.0,0,210,13.0,0.0
330,57.0,0,210,12.0,0.0
331,69.0,0,210,11.0,0.0
332,69.0,0,210,11.0,0.0
333,54.0,120,210,13.0,0.0
334,74.0,0,90,10.0,0.0
335,57.0,0,210,12.0,0.0
336,74.0,0,90,5.0,0.0
337,74.0,120,90,4.0,0.0
338,54.0,0,210,14.0,0.0
339,73.0,0,90,4.0,0.0
340,73.0,0,90,10.0,0.0
341,73.0,0,90,5.0,0.0
342,50.0,0,210,14.0,0.0
343,71.0,120,90,4.0,0.0
344,71.0,0,90,5.0,0.0
345,62.0,0,210,12.0,0.0
346,50.0,0,210,13.0,0.0
347,71.0,0,90,10.0,0.0
348,66.0,0,210,11.0,0.0
349,73.0,0,90,4.0,0.0
350,73.0,0,90,10.0,0.0
351,73.0,240,90,5.0,0.0
352,47.0,240,210,13.0,0.0
353,69.0,0,210,5.0,0.0
354,66.0,0,210,11.0,0.0
355,69.0,0,210,10.0,0.0
356,69.0,0,210,4.0,0.0
357,47.0,0,210,14.0,0.0
358,62.0,0,210,12.0,0.0
359,61.0,0,210,12.0,0.0
360,52.0,0,210,14.0,0.0
361,52.0,240,210,13.0,0.0
362,64.0,0,210,5.0,0.0
363,64.0,0,210,10.0,0.0
364,64.0,0,210,11.0,0.0
365,64.0,0,210,4.0,0.0
366,68.0,0,210,5.0,0.0
367,40.0,0,210,13.0,0.0
368,64.0,0,210,11.0,0.0
369,68.0,0,210,4.0,0.0
370,68.0,0,210,10.0,0.0
371,59.0,0,210,12.0,0.0
372,40.0,480,210,14.0,0.0
373,45.0,0,450,13.0,0.0
374,45.0,0,450,14.0,0.0
375,69.0,0,450,5.0,0.0
376,61.0,0,450,12.0,0.0
377,64.0,0,450,11.0,0.0
378,69.0,240,450,4.0,0.0
379,69.0,0,450,10.0,0.0
380,69.0,15,210,4.0,0.0
381,69.0,0,210,0.0,0.0
382,62.0,0,210,12.0,0.0
383,66.0,0,210,1.0,0.0
384,69.0,0,210,5.0,0.0
385,50.0,105,240,3.0,0.0
386,62.0,120,690,13.0,0.0
387,62.0,0,210,2.0,0.0
388,69.0,0,210,10.0,0.0
389,62.0,0,690,14.0,0.0
390,66.0,0,210,11.0,0.0
391,62.0,0,210,12.0,0.0
392,62.0,15,210,2.0,0.0
393,81.0,0,90,10.0,0.0
394,81.0,0,90,5.0,0.0
395,50.0,225,240,3.0,0.0
396,81.0,120,90,4.0,0.0
397,81.0,0,90,0.0,0.0
398,78.0,0,90,11.0,0.0
399,78.0,0,90,1.0,0.0
400,74.0,0,90,11.0,0.0
401,78.0,0,90,10.0,0.0
402,78.0,0,90,4.0,0.0
403,78.0,0,90,0.0,0.0
404,74.0,0,90,1.0,0.0
405,78.0,0,90,5.0,0.0
406,76.0,0,450,1.0,0.0
407,79.0,0,450,10.0,0.0
408,45.0,225,480,3.0,0.0
409,76.0,0,450,11.0,0.0
410,79.0,15,450,0.0,0.0
411,79.0,0,450,4.0,0.0
412,79.0,0,450,5.0,0.0
413,69.0,0,450,2.0,0.0
414,69.0,0,450,12.0,0.0
415,61.0,120,90,13.0,0.0
416,61.0,0,90,14.0,0.0
417,59.0,0,90,14.0,0.0
418,59.0,0,90,13.0,0.0
419,61.0,0,210,13.0,0.0
420,69.0,0,210,12.0,0.0
421,64.0,0,210,11.0,0.0
422,69.0,0,210,1.0,0.0
423,69.0,15,210,10.0,0.0
424,69.0,0,210,2.0,0.0
425,69.0,0,210,5.0,0.0
426,45.0,105,240,3.0,0.0
427,69.0,0,210,4.0,0.0
428,61.0,0,210,14.0,0.0
429,69.0,0,210,0.0,0.0
430,45.0,0,240,3.0,0.0
431,57.0,0,210,13.0,0.0
432,79.0,0,90,5.0,0.0
433,69.0,0,210,12.0,0.0
434,76.0,0,90,11.0,0.0
435,79.0,0,90,0.0,0.0
436,69.0,0,210,2.0,0.0
437,57.0,0,210,14.0,0.0
438,79.0,0,90,10.0,0.0
439,79.0,0,90,4.0,0.0
440,76.0,83,90,1.0,0.0
441,69.0,0,90,1.0,0.0
442,76.0,0,90,10.0,0.0
443,76.0,0,90,0.0,0.0
444,76.0,15,90,5.0,0.0
445,76.0,37,60,4.0,0.0
446,73.0,0,90,11.0,0.0
447,76.0,225,30,4.0,0.0
448,78.0,0,450,5.0,0.0
449,50.0,0,480,3.0,0.0
450,62.0,0,210,14.0,0.0
451,69.0,15,450,12.0,0.0
452,78.0,0,480,0.0,0.0
453,78.0,0,450,4.0,0.0
454,62.0,0,480,2.0,0.0
455,69.0,225,480,1.0,0.0
456,74.0,0,450,11.0,0.0
457,78.0,0,450,10.0,0.0
458,62.0,120,210,13.0,0.0
459,50.0,0,90,14.0,0.0
460,50.0,120,90,13.0,0.0
461,52.0,0,90,14.0,0.0
462,52.0,0,90,13.0,0.0
463,69.0,0,210,5.0,0.0
464,69.0,0,210,12.0,0.0
465,69.0,120,210,10.0,0.0
466,54.0,0,210,13.0,0.0
467,54.0,0,210,14.0,0.0
468,69.0,0,210,4.0,0.0
469,62.0,0,210,11.0,0.0
470,55.0,0,90,13.0,0.0
471,61.0,0,210,12.0,0.0
472,64.0,0,210,11.0,0.0
473,76.0,0,90,4.0,0.0
474,55.0,120,90,14.0,0.0
475,76.0,0,90,10.0,0.0
476,76.0,0,90,5.0,0.0
477,73.0,0,90,10.0,0.0
478,73.0,0,90,5.0,0.0
479,73.0,0,90,4.0,0.0
480,52.0,0,90,13.0,0.0
481,52.0,240,90,14.0,0.0
482,74.0,0,210,4.0,0.0
483,54.0,0,210,13.0,0.0
484,57.0,0,210,11.0,0.0
485,66.0,0,210,12.0,0.0
486,54.0,0,210,14.0,0.0
487,74.0,0,210,10.0,0.0
488,74.0,120,210,5.0,0.0
489,73.0,120,90,5.0,0.0
490,73.0,0,90,4.0,0.0
491,64.0,120,210,12.0,0.0
492,62.0,0,210,11.0,0.0
493,55.0,0,210,13.0,0.0
494,73.0,0,90,10.0,0.0
495,55.0,0,210,14.0,0.0
496,71.0,0,90,5.0,0.0
497,71.0,0,90,10.0,0.0
498,71.0,0,90,4.0,0.0
499,69.0,0,90,5.0,0.0
500,57.0,0,210,14.0,0.0
501,62.0,240,210,11.0,0.0
502,69.0,120,90,10.0,0.0
503,69.0,0,90,4.0,0.0
504,66.0,0,210,12.0,0.0
505,57.0,0,210,13.0,0.0
506,71.0,0,90,10.0,0.0
507,71.0,0,90,5.0,0.0
508,71.0,0,90,4.0,0.0
509,64.0,0,210,12.0,0.0
510,67.0,0,210,5.0,0.0
511,45.0,0,210,13.0,0.0
512,67.0,45,210,10.0,0.0
513,67.0,0,210,4.0,0.0
514,45.0,0,210,14.0,0.0
515,61.0,0,210,11.0,0.0
516,66.0,0,30,4.0,0.0
517,50.0,7,210,14.0,0.0
518,62.0,0,450,12.0,0.0
519,66.0,30,30,5.0,0.0
520,66.0,0,30,10.0,0.0
521,57.0,0,450,11.0,0.0
522,50.0,0,210,13.0,0.0
523,67.0,30,30,5.0,0.0
524,67.0,0,30,4.0,0.0
525,67.0,0,30,10.0,0.0
526,66.0,0,30,4.0,0.0
527,66.0,0,30,5.0,0.0
528,66.0,30,30,10.0,0.0
529,67.0,0,30,4.0,0.0
530,67.0,0,30,5.0,0.0
531,67.0,30,30,10.0,0.0
532,66.0,0,30,4.0,0.0
533,66.0,0,30,5.0,0.0
534,66.0,30,30,10.0,0.0
535,67.0,30,30,10.0,0.0
536,67.0,0,30,4.0,0.0
537,67.0,0,30,5.0,0.0
538,64.0,0,30,4.0,0.0
539,64.0,0,30,10.0,0.0
540,64.0,15,30,5.0,0.0
541,66.0,113,20,10.0,0.0
542,66.0,0,20,5.0,0.0
543,66.0,0,20,4.0,0.0
544,54.0,0,90,14.0,0.0
545,54.0,120,90,13.0,0.0
546,64.0,0,90,10.0,0.0
547,64.0,0,90,4.0,0.0
548,64.0,0,90,5.0,0.0
549,62.0,0,90,5.0,0.0
550,57.0,240,90,13.0,0.0
551,62.0,0,90,10.0,0.0
552,62.0,0,90,4.0,0.0
553,57.0,0,90,14.0,0.0
554,66.0,0,210,1.0,0.0
555,50.0,105,240,3.0,0.0
556,69.0,0,210,0.0,0.0
557,62.0,120,690,14.0,0.0
558,62.0,0,210,12.0,0.0
559,69.0,0,210,5.0,0.0
560,62.0,0,210,2.0,0.0
561,62.0,0,690,13.0,0.0
562,69.0,0,210,10.0,0.0
563,69.0,0,210,4.0,0.0
564,66.0,15,210,11.0,0.0
565,50.0,225,240,3.0,0.0
566,81.0,0,90,10.0,0.0
567,81.0,120,90,5.0,0.0
568,81.0,0,90,0.0,0.0
569,78.0,0,90,1.0,0.0
570,78.0,0,90,11.0,0.0
571,62.0,0,210,2.0,0.0
572,81.0,0,90,4.0,0.0
573,62.0,0,210,12.0,0.0
574,78.0,0,90,5.0,0.0
575,78.0,0,90,10.0,0.0
576,78.0,0,90,4.0,0.0
577,74.0,0,90,11.0,0.0
578,74.0,15,90,1.0,0.0
579,78.0,0,90,0.0,0.0
580,79.0,0,450,4.0,0.0
581,76.0,0,450,11.0,0.0
582,45.0,225,480,3.0,0.0
583,79.0,0,450,0.0,0.0
584,79.0,15,450,10.0,0.0
585,69.0,0,450,2.0,0.0
586,76.0,0,450,1.0,0.0
587,79.0,0,450,5.0,0.0
588,69.0,0,450,12.0,0.0
589,61.0,0,90,13.0,0.0
590,61.0,120,90,14.0,0.0
591,59.0,0,90,13.0,0.0
592,59.0,0,90,14.0,0.0
593,69.0,0,210,10.0,0.0
594,64.0,0,210,11.0,0.0
595,69.0,0,210,1.0,0.0
596,69.0,0,210,0.0,0.0
597,69.0,15,210,5.0,0.0
598,69.0,0,210,2.0,0.0
599,69.0,0,210,4.0,0.0
600,69.0,0,210,12.0,0.0
601,61.0,0,210,14.0,0.0
602,61.0,0,210,13.0,0.0
603,45.0,105,240,3.0,0.0
604,79.0,0,90,5.0,0.0
605,79.0,120,90,10.0,0.0
606,45.0,225,240,3.0,0.0
607,76.0,0,90,11.0,0.0
608,57.0,0,210,13.0,0.0
609,69.0,0,210,12.0,0.0
610,57.0,15,210,14.0,0.0
611,76.0,0,90,1.0,0.0
612,79.0,0,90,4.0,0.0
613,69.0,0,210,2.0,0.0
614,79.0,0,90,0.0,0.0
615,76.0,0,90,4.0,0.0
616,76.0,0,90,5.0,0.0
617,73.0,0,90,11.0,0.0
618,76.0,0,90,10.0,0.0
619,76.0,0,90,0.0,0.0
620,69.0,0,90,1.0,0.0
621,62.0,0,210,13.0,0.0
622,62.0,240,210,14.0,0.0
623,50.0,0,480,3.0,0.0
624,78.0,0,450,10.0,0.0
625,74.0,0,450,11.0,0.0
626,78.0,0,450,5.0,0.0
627,69.0,0,450,12.0,0.0
628,62.0,0,480,2.0,0.0
629,78.0,0,450,4.0,0.0
630,78.0,225,480,0.0,0.0
631,69.0,0,480,1.0,0.0
632,61.0,15,210,13.0,0.0
633,61.0,0,210,14.0,0.0
634,59.0,0,210,14.0,0.0
635,59.0,120,210,13.0,0.0
636,71.0,0,210,12.0,0.0
637,80.0,0,210,4.0,0.0
638,74.0,0,210,11.0,0.0
639,80.0,0,210,10.0,0.0
640,80.0,0,210,5.0,0.0
641,83.0,120,90,4.0,0.0
642,83.0,0,90,10.0,0.0
643,71.0,0,210,11.0,0.0
644,68.0,0,210,12.0,0.0
645,64.0,0,210,14.0,0.0
646,64.0,240,210,13.0,0.0
647,83.0,0,90,5.0,0.0
648,80.0,0,90,4.0,0.0
649,80.0,0,90,5.0,0.0
650,80.0,0,90,10.0,0.0
651,81.0,0,210,10.0,0.0
652,64.0,0,210,12.0,0.0
653,76.0,0,210,11.0,0.0
654,61.0,0,210,13.0,0.0
655,61.0,120,210,14.0,0.0
656,81.0,0,210,5.0,0.0
657,81.0,0,210,4.0,0.0
658,80.0,120,90,4.0,0.0
659,64.0,0,210,12.0,0.0
660,74.0,0,90,11.0,0.0
661,59.0,0,90,13.0,0.0
662,59.0,0,90,14.0,0.0
663,80.0,0,90,10.0,0.0
664,80.0,0,90,5.0,0.0
665,73.0,120,90,11.0,0.0
666,57.0,0,90,13.0,0.0
667,78.0,0,90,10.0,0.0
668,57.0,0,90,14.0,0.0
669,78.0,0,90,5.0,0.0
670,78.0,0,90,4.0,0.0
671,76.0,0,90,10.0,0.0
672,64.0,0,210,12.0,0.0
673,76.0,0,90,5.0,0.0
674,71.0,0,210,11.0,0.0
675,56.0,240,210,13.0,0.0
676,56.0,0,210,14.0,0.0
677,76.0,120,90,4.0,0.0
678,78.0,0,90,10.0,0.0
679,78.0,0,90,5.0,0.0
680,78.0,0,90,4.0,0.0
681,74.0,0,210,10.0,0.0
682,52.0,0,210,14.0,0.0
683,64.0,0,210,12.0,0.0
684,74.0,0,210,5.0,0.0
685,68.0,0,210,11.0,0.0
686,74.0,240,210,4.0,0.0
687,52.0,0,210,13.0,0.0
688,69.0,0,210,11.0,0.0
689,57.0,0,210,13.0,0.0
690,73.0,120,210,4.0,0.0
691,73.0,0,210,10.0,0.0
692,73.0,0,210,5.0,0.0
693,57.0,0,210,14.0,0.0
694,64.0,0,210,12.0,0.0
695,62.0,0,210,12.0,0.0
696,50.0,0,210,13.0,0.0
697,69.0,0,210,11.0,0.0
698,78.0,0,90,4.0,0.0
699,50.0,240,210,14.0,0.0
700,78.0,0,90,10.0,0.0
701,78.0,120,90,5.0,0.0
702,74.0,0,90,4.0,0.0
703,74.0,0,90,5.0,0.0
704,74.0,0,90,10.0,0.0
705,49.0,0,210,14.0,0.0
706,49.0,0,210,13.0,0.0
707,76.0,0,210,10.0,0.0
708,76.0,0,210,4.0,0.0
709,69.0,0,210,11.0,0.0
710,76.0,0,210,5.0,0.0
711,57.0,120,210,12.0,0.0
712,57.0,0,210,12.0,0.0
713,69.0,120,210,11.0,0.0
714,74.0,0,90,4.0,0.0
715,74.0,120,90,5.0,0.0
716,54.0,0,210,14.0,0.0
717,54.0,0,210,13.0,0.0
718,74.0,0,90,10.0,0.0
719,73.0,0,90,5.0,0.0
720,73.0,0,90,10.0,0.0
721,73.0,0,90,4.0,0.0
722,71.0,0,90,5.0,0.0
723,66.0,0,210,11.0,0.0
724,71.0,120,90,10.0,0.0
725,62.0,0,210,12.0,0.0
726,50.0,240,210,14.0,0.0
727,71.0,0,90,4.0,0.0
728,50.0,0,210,13.0,0.0
729,73.0,0,90,5.0,0.0
730,73.0,0,90,10.0,0.0
731,73.0,0,90,4.0,0.0
732,69.0,0,210,4.0,0.0
733,66.0,0,210,11.0,0.0
734,69.0,240,210,5.0,0.0
735,69.0,0,210,10.0,0.0
736,47.0,0,210,13.0,0.0
737,47.0,0,210,14.0,0.0
738,62.0,0,210,12.0,0.0
739,64.0,0,210,4.0,0.0
740,64.0,0,210,11.0,0.0
741,52.0,0,210,13.0,0.0
742,64.0,0,210,10.0,0.0
743,52.0,0,210,14.0,0.0
744,64.0,240,210,5.0,0.0
745,61.0,0,210,12.0,0.0
746,59.0,0,210,12.0,0.0
747,64.0,0,210,11.0,0.0
748,68.0,0,210,5.0,0.0
749,40.0,0,210,14.0,0.0
750,68.0,480,210,4.0,0.0
751,68.0,0,210,10.0,0.0
752,40.0,0,210,13.0,0.0
753,45.0,240,450,13.0,0.0
754,61.0,0,450,12.0,0.0
755,69.0,0,450,5.0,0.0
756,64.0,0,450,11.0,0.0
757,69.0,0,450,4.0,0.0
758,69.0,0,450,10.0,0.0
759,45.0,0,450,14.0,0.0
760,45.0,0,210,14.0,0.0
761,45.0,0,210,13.0,0.0
762,64.0,120,210,11.0,0.0
763,61.0,0,210,12.0,0.0
764,76.0,0,210,4.0,0.0
765,76.0,0,210,10.0,0.0
766,76.0,0,210,5.0,0.0
767,64.0,0,90,5.0,0.0
768,64.0,0,90,4.0,0.0
769,49.0,0,210,14.0,0.0
770,64.0,120,90,10.0,0.0
771,49.0,0,210,13.0,0.0
772,57.0,0,210,12.0,0.0
773,76.0,0,210,11.0,0.0
774,67.0,0,90,4.0,0.0
775,67.0,0,90,10.0,0.0
776,67.0,240,90,5.0,0.0
777,50.0,0,210,14.0,0.0
778,66.0,0,450,4.0,0.0
779,57.0,120,210,12.0,0.0
780,76.0,0,210,11.0,0.0
781,50.0,0,210,13.0,0.0
782,66.0,0,450,5.0,0.0
783,66.0,0,450,10.0,0.0
784,49.0,0,210,14.0,0.0
785,49.0,240,210,13.0,0.0
786,59.0,120,90,12.0,0.0
787,66.0,0,90,11.0,0.0
788,61.0,0,90,12.0,0.0
789,64.0,0,90,11.0,0.0
790,74.0,120,210,10.0,0.0
791,74.0,0,210,5.0,0.0
792,74.0,0,210,4.0,0.0
793,47.0,0,210,13.0,0.0
794,62.0,0,210,12.0,0.0
795,47.0,0,210,14.0,0.0
796,66.0,0,210,11.0,0.0
797,59.0,240,210,12.0,0.0
798,66.0,0,90,10.0,0.0
799,66.0,120,90,4.0,0.0
800,78.0,0,210,11.0,0.0
801,66.0,0,90,5.0,0.0
802,50.0,0,210,14.0,0.0
803,50.0,0,210,13.0,0.0
804,69.0,0,90,10.0,0.0
805,69.0,0,90,5.0,0.0
806,69.0,0,90,4.0,0.0
807,78.0,120,210,11.0,0.0
808,67.0,0,450,5.0,0.0
809,67.0,0,450,4.0,0.0
810,52.0,0,210,14.0,0.0
811,59.0,0,450,12.0,0.0
812,67.0,0,450,10.0,0.0
813,52.0,0,210,13.0,0.0
814,67.0,120,90,11.0,0.0
815,50.0,0,210,13.0,0.0
816,50.0,240,210,14.0,0.0
817,66.0,0,90,11.0,0.0
818,52.0,0,210,14.0,0.0
819,73.0,120,210,5.0,0.0
820,73.0,0,210,4.0,0.0
821,64.0,0,210,12.0,0.0
822,67.0,0,210,11.0,0.0
823,52.0,0,210,13.0,0.0
824,73.0,0,210,10.0,0.0
825,66.0,0,210,11.0,0.0
826,70.0,0,90,4.0,0.0
827,54.0,0,210,13.0,0.0
828,64.0,240,210,12.0,0.0
829,70.0,0,90,10.0,0.0
830,70.0,120,90,5.0,0.0
831,54.0,0,210,14.0,0.0
832,73.0,0,90,10.0,0.0
833,73.0,0,90,5.0,0.0
834,73.0,0,90,4.0,0.0
835,71.0,120,210,4.0,0.0
836,55.0,0,210,13.0,0.0
837,55.0,0,210,14.0,0.0
838,71.0,0,210,5.0,0.0
839,62.0,0,210,12.0,0.0
840,71.0,0,210,11.0,0.0
841,71.0,0,210,10.0,0.0
842,54.0,0,210,14.0,0.0
843,73.0,0,90,4.0,0.0
844,66.0,0,210,12.0,0.0
845,54.0,0,210,13.0,0.0
846,73.0,0,90,5.0,0.0
847,70.0,0,210,11.0,0.0
848,73.0,120,90,10.0,0.0
849,74.0,0,90,4.0,0.0
850,74.0,120,90,5.0,0.0
851,74.0,0,90,10.0,0.0
852,73.0,0,90,4.0,0.0
853,64.0,0,210,12.0,0.0
854,55.0,0,210,14.0,0.0
855,55.0,240,210,13.0,0.0
856,71.0,0,210,11.0,0.0
857,73.0,0,90,5.0,0.0
858,73.0,120,90,10.0,0.0
859,71.0,0,90,5.0,0.0
860,71.0,0,90,4.0,0.0
861,71.0,0,90,10.0,0.0
862,52.0,45,210,13.0,0.0
863,79.0,0,210,10.0,0.0
864,79.0,0,210,4.0,0.0
865,62.0,0,210,12.0,0.0
866,71.0,0,210,11.0,0.0
867,52.0,0,210,14.0,0.0
868,79.0,0,210,5.0,0.0
869,61.0,0,450,12.0,0.0
870,71.0,7,210,11.0,0.0
871,79.0,0,30,10.0,0.0
872,79.0,0,30,5.0,0.0
873,79.0,30,30,4.0,0.0
874,54.0,0,210,13.0,0.0
875,54.0,0,210,14.0,0.0
876,81.0,0,30,5.0,0.0
877,81.0,0,30,4.0,0.0
878,81.0,30,30,10.0,0.0
879,79.0,30,30,4.0,0.0
880,79.0,0,30,5.0,0.0
881,79.0,0,30,10.0,0.0
882,81.0,30,30,4.0,0.0
883,81.0,0,30,10.0,0.0
884,81.0,0,30,5.0,0.0
885,79.0,0,30,4.0,0.0
886,79.0,0,30,10.0,0.0
887,79.0,30,30,5.0,0.0
888,81.0,0,30,5.0,0.0
889,81.0,0,30,10.0,0.0
890,81.0,30,30,4.0,0.0
891,78.0,15,30,10.0,0.0
892,78.0,0,30,4.0,0.0
893,78.0,0,30,5.0,0.0
894,79.0,0,20,5.0,0.0
895,79.0,113,20,4.0,0.0
896,79.0,0,20,10.0,0.0
897,78.0,240,210,5.0,0.0
898,56.0,120,90,14.0,0.0
899,78.0,0,210,4.0,0.0
900,70.0,0,210,11.0,0.0
901,56.0,0,90,13.0,0.0
902,78.0,0,210,10.0,0.0
903,58.0,0,90,13.0,0.0
904,58.0,0,90,14.0,0.0
905,59.0,0,210,13.0,0.0
906,66.0,0,210,4.0,0.0
907,59.0,120,210,14.0,0.0
908,59.0,0,210,12.0,0.0
909,66.0,0,210,5.0,0.0
910,66.0,0,210,0.0,0.0
911,66.0,0,210,10.0,0.0
912,62.0,0,210,11.0,0.0
913,78.0,0,90,5.0,0.0
914,78.0,0,90,0.0,0.0
915,74.0,0,210,11.0,0.0
916,78.0,0,90,4.0,0.0
917,57.0,0,210,14.0,0.0
918,59.0,0,210,12.0,0.0
919,78.0,120,90,10.0,0.0
920,57.0,0,210,13.0,0.0
921,74.0,0,90,0.0,0.0
922,74.0,240,90,5.0,0.0
923,74.0,0,90,10.0,0.0
924,74.0,0,90,4.0,0.0
925,76.0,240,450,10.0,0.0
926,76.0,0,450,4.0,0.0
927,76.0,0,450,5.0,0.0
928,74.0,120,210,11.0,0.0
929,56.0,0,210,13.0,0.0
930,76.0,0,450,0.0,0.0
931,59.0,0,210,12.0,0.0
932,56.0,0,210,14.0,0.0
933,61.0,0,210,14.0,0.0
934,61.0,0,210,13.0,0.0
935,73.0,120,90,11.0,0.0
936,58.0,0,90,12.0,0.0
937,61.0,0,90,12.0,0.0
938,71.0,0,90,11.0,0.0
939,66.0,0,210,0.0,0.0
940,58.0,0,210,14.0,0.0
941,66.0,0,210,12.0,0.0
942,73.0,0,210,11.0,0.0
943,66.0,0,210,10.0,0.0
944,66.0,0,210,4.0,0.0
945,66.0,0,210,5.0,0.0
946,58.0,120,210,13.0,0.0
947,54.0,0,210,13.0,0.0
948,76.0,120,90,5.0,0.0
949,76.0,0,90,10.0,0.0
950,76.0,0,90,4.0,0.0
951,70.0,0,210,11.0,0.0
952,66.0,0,210,12.0,0.0
953,54.0,240,210,14.0,0.0
954,76.0,0,90,0.0,0.0
955,73.0,0,90,4.0,0.0
956,73.0,0,90,5.0,0.0
957,73.0,0,90,10.0,0.0
958,78.0,0,90,0.0,0.0
959,59.0,0,210,14.0,0.0
960,66.0,0,210,12.0,0.0
961,74.0,0,210,4.0,0.0
962,74.0,105,480,0.0,0.0
963,59.0,0,210,13.0,0.0
964,71.0,0,210,11.0,0.0
965,74.0,0,210,5.0,0.0
966,74.0,120,210,10.0,0.0
967,71.0,120,90,5.0,0.0
968,62.0,0,210,11.0,0.0
969,55.0,0,210,13.0,0.0
970,71.0,0,90,10.0,0.0
971,55.0,0,210,14.0,0.0
972,71.0,0,90,4.0,0.0
973,67.0,0,210,12.0,0.0
974,74.0,0,90,4.0,0.0
975,74.0,0,90,5.0,0.0
976,74.0,15,90,10.0,0.0
977,73.0,0,90,10.0,0.0
978,73.0,0,90,5.0,0.0
979,52.0,0,210,14.0,0.0
980,67.0,0,210,12.0,0.0
981,64.0,0,210,11.0,0.0
982,52.0,0,210,13.0,0.0
983,73.0,120,90,4.0,0.0
984,70.0,0,90,10.0,0.0
985,70.0,0,90,5.0,0.0
986,70.0,120,90,4.0,0.0
987,71.0,0,210,10.0,0.0
988,66.0,120,90,11.0,0.0
989,50.0,0,90,14.0,0.0
990,66.0,0,90,12.0,0.0
991,50.0,0,90,13.0,0.0
992,71.0,0,210,4.0,0.0
993,71.0,240,210,5.0,0.0
994,49.0,0,90,14.0,0.0
995,67.0,0,90,11.0,0.0
996,49.0,0,90,13.0,0.0
997,64.0,0,90,12.0,0.0
998,50.0,0,210,14.0,0.0
999,66.0,0,210,11.0,0.0
1000,78.0,0,210,10.0,0.0
1001,62.0,120,210,12.0,0.0
1002,78.0,0,210,4.0,0.0
1003,50.0,0,210,13.0,0.0
1004,78.0,0,210,5.0,0.0
1005,79.0,0,90,5.0,0.0
1006,52.0,0,210,14.0,0.0
1007,79.0,120,90,10.0,0.0
1008,52.0,0,210,13.0,0.0
1009,71.0,0,210,11.0,0.0
1010,79.0,0,90,4.0,0.0
1011,61.0,0,210,12.0,0.0
1012,78.0,0,90,5.0,0.0
1013,78.0,120,90,10.0,0.0
1014,78.0,0,90,4.0,0.0
1015,71.0,0,210,11.0,0.0
1016,54.0,0,210,14.0,0.0
1017,76.0,0,90,5.0,0.0
1018,76.0,120,90,4.0,0.0
1019,61.0,0,210,12.0,0.0
1020,54.0,0,210,13.0,0.0
1021,76.0,0,90,10.0,0.0
1022,74.0,0,90,5.0,0.0
1023,74.0,0,90,10.0,0.0
1024,74.0,120,90,4.0,0.0
1025,66.0,0,210,12.0,0.0
1026,73.0,120,90,4.0,0.0
1027,73.0,0,90,5.0,0.0
1028,70.0,0,210,11.0,0.0
1029,73.0,0,90,10.0,0.0
1030,42.0,0,210,13.0,0.0
1031,42.0,0,210,14.0,0.0
1032,74.0,0,90,4.0,0.0
1033,74.0,240,90,5.0,0.0
1034,74.0,0,90,10.0,0.0
1035,66.0,0,450,11.0,0.0
1036,47.0,120,210,13.0,0.0
1037,71.0,240,450,4.0,0.0
1038,47.0,0,210,14.0,0.0
1039,62.0,0,450,12.0,0.0
1040,71.0,0,450,5.0,0.0
1041,71.0,0,450,10.0,0.0
1042,57.0,120,90,13.0,0.0
1043,57.0,0,90,14.0,0.0
1044,54.0,0,90,13.0,0.0
1045,54.0,0,90,14.0,0.0
1046,71.0,0,210,5.0,0.0
1047,55.0,0,690,13.0,0.0
1048,67.0,0,210,11.0,0.0
1049,71.0,0,210,10.0,0.0
1050,55.0,120,690,14.0,0.0
1051,71.0,0,210,4.0,0.0
1052,62.0,120,210,12.0,0.0
1053,83.0,0,90,5.0,0.0
1054,83.0,120,90,10.0,0.0
1055,83.0,0,90,4.0,0.0
1056,74.0,0,90,11.0,0.0
1057,67.0,0,210,12.0,0.0
1058,79.0,240,90,10.0,0.0
1059,79.0,0,90,4.0,0.0
1060,71.0,0,90,11.0,0.0
1061,79.0,0,90,5.0,0.0
1062,81.0,0,450,5.0,0.0
1063,64.0,0,210,12.0,0.0
1064,81.0,0,450,10.0,0.0
1065,72.0,0,450,11.0,0.0
1066,81.0,0,450,4.0,0.0
1067,63.0,120,90,12.0,0.0
1068,54.0,0,90,14.0,0.0
1069,54.0,0,90,13.0,0.0
1070,52.0,0,90,14.0,0.0
1071,52.0,0,90,13.0,0.0
1072,64.0,240,90,12.0,0.0
1073,51.0,120,210,13.0,0.0
1074,66.0,0,210,11.0,0.0
1075,71.0,0,210,5.0,0.0
1076,71.0,0,210,4.0,0.0
1077,51.0,0,210,14.0,0.0
1078,71.0,0,210,10.0,0.0
1079,66.0,0,210,12.0,0.0
1080,47.0,0,210,13.0,0.0
1081,63.0,0,210,12.0,0.0
1082,81.0,120,90,4.0,0.0
1083,81.0,0,90,10.0,0.0
1084,47.0,0,210,14.0,0.0
1085,81.0,0,90,5.0,0.0
1086,78.0,0,90,11.0,0.0
1087,75.0,0,90,11.0,0.0
1088,78.0,240,90,4.0,0.0
1089,78.0,0,90,10.0,0.0
1090,78.0,0,90,5.0,0.0
1091,79.0,240,450,4.0,0.0
1092,59.0,0,450,12.0,0.0
1093,52.0,0,210,14.0,0.0
1094,79.0,0,450,10.0,0.0
1095,76.0,0,450,11.0,0.0
1096,79.0,0,450,5.0,0.0
1097,52.0,120,210,13.0,0.0
1098,54.0,0,90,14.0,0.0
1099,54.0,120,90,13.0,0.0
1100,55.0,0,90,14.0,0.0
1101,55.0,0,90,13.0,0.0
1102,45.0,105,240,3.0,0.0
1103,76.0,0,210,1.0,0.0
1104,57.0,0,210,14.0,0.0
1105,73.0,0,210,10.0,0.0
1106,57.0,0,210,13.0,0.0
1107,69.0,0,210,2.0,0.0
1108,69.0,0,210,0.0,0.0
1109,57.0,0,210,12.0,0.0
1110,64.0,0,210,11.0,0.0
1111,73.0,0,210,4.0,0.0
1112,73.0,15,210,5.0,0.0
1113,45.0,225,240,3.0,0.0
1114,76.0,0,210,11.0,0.0
1115,79.0,0,90,10.0,0.0
1116,76.0,0,210,1.0,0.0
1117,69.0,0,210,2.0,0.0
1118,79.0,0,90,0.0,0.0
1119,57.0,0,210,12.0,0.0
1120,49.0,0,210,13.0,0.0
1121,79.0,120,90,4.0,0.0
1122,49.0,0,210,14.0,0.0
1123,79.0,0,90,5.0,0.0
1124,76.0,0,90,5.0,0.0
1125,76.0,0,90,0.0,0.0
1126,76.0,15,90,4.0,0.0
1127,76.0,0,90,10.0,0.0
1128,69.0,0,240,2.0,0.0
1129,78.0,0,210,10.0,0.0
1130,78.0,0,210,0.0,0.0
1131,69.0,0,210,12.0,0.0
1132,78.0,15,210,5.0,0.0
1133,74.0,105,240,1.0,0.0
1134,50.0,0,240,3.0,0.0
1135,74.0,0,210,11.0,0.0
1136,50.0,0,210,13.0,0.0
1137,78.0,0,210,4.0,0.0
1138,50.0,0,210,14.0,0.0
1139,47.0,0,210,13.0,0.0
1140,47.0,0,210,14.0,0.0
1141,76.0,0,90,10.0,0.0
1142,66.0,0,210,11.0,0.0
1143,76.0,120,90,4.0,0.0
1144,76.0,0,90,5.0,0.0
1145,71.0,0,210,12.0,0.0
1146,76.0,0,90,0.0,0.0
1147,74.0,0,90,10.0,0.0
1148,74.0,0,90,5.0,0.0
1149,74.0,0,90,4.0,0.0
1150,74.0,120,90,0.0,0.0
1151,76.0,0,90,10.0,0.0
1152,43.0,0,210,14.0,0.0
1153,76.0,120,90,5.0,0.0
1154,76.0,0,90,0.0,0.0
1155,83.0,0,240,1.0,0.0
1156,43.0,0,210,13.0,0.0
1157,50.0,0,240,3.0,0.0
1158,74.0,105,240,2.0,0.0
1159,64.0,15,210,12.0,0.0
1160,71.0,0,210,11.0,0.0
1161,76.0,0,90,4.0,0.0
1162,73.0,0,90,10.0,0.0
1163,73.0,0,90,4.0,0.0
1164,78.0,0,90,0.0,0.0
1165,73.0,0,90,5.0,0.0
1166,44.0,0,210,14.0,0.0
1167,74.0,45,210,4.0,0.0
1168,64.0,0,210,12.0,0.0
1169,74.0,0,210,10.0,0.0
1170,76.0,120,90,0.0,0.0
1171,74.0,0,210,5.0,0.0
1172,44.0,0,210,13.0,0.0
1173,71.0,0,210,11.0,0.0
1174,78.0,0,90,0.0,0.0
1175,69.0,0,450,11.0,0.0
1176,64.0,0,450,12.0,0.0
1177,73.0,0,30,10.0,0.0
1178,73.0,0,30,4.0,0.0
1179,69.0,0,480,2.0,0.0
1180,45.0,0,210,13.0,0.0
1181,73.0,30,30,5.0,0.0
1182,45.0,0,210,14.0,0.0
1183,76.0,7,210,0.0,0.0
1184,45.0,0,480,3.0,0.0
1185,81.0,105,480,1.0,0.0
1186,74.0,0,30,10.0,0.0
1187,74.0,30,30,4.0,0.0
1188,74.0,0,30,5.0,0.0
1189,73.0,30,30,10.0,0.0
1190,73.0,0,30,4.0,0.0
1191,73.0,0,30,5.0,0.0
1192,74.0,30,30,5.0,0.0
1193,74.0,0,30,4.0,0.0
1194,74.0,0,30,10.0,0.0
1195,73.0,30,30,4.0,0.0
1196,73.0,0,30,5.0,0.0
1197,73.0,0,30,10.0,0.0
1198,74.0,0,30,5.0,0.0
1199,74.0,0,30,10.0,0.0
1200,74.0,30,30,4.0,0.0
1201,71.0,0,30,10.0,0.0
1202,71.0,0,30,5.0,0.0
1203,71.0,15,30,4.0,0.0
1204,73.0,0,20,10.0,0.0
1205,73.0,0,20,4.0,0.0
1206,73.0,113,20,5.0,0.0
1207,71.0,0,90,5.0,0.0
1208,71.0,0,90,4.0,0.0
1209,47.0,120,90,14.0,0.0
1210,71.0,0,90,10.0,0.0
1211,69.0,0,240,0.0,0.0
1212,47.0,0,90,13.0,0.0
1213,69.0,0,90,10.0,0.0
1214,49.0,15,90,13.0,0.0
1215,69.0,0,90,5.0,0.0
1216,49.0,0,90,14.0,0.0
1217,69.0,0,90,4.0,0.0
1218,66.0,0,210,12.0,0.0
1219,81.0,0,210,10.0,0.0
1220,81.0,120,210,5.0,0.0
1221,81.0,0,210,4.0,0.0
1222,50.0,0,90,13.0,0.0
1223,69.0,0,210,11.0,0.0
1224,50.0,120,90,14.0,0.0
1225,52.0,0,90,13.0,0.0
1226,52.0,0,90,14.0,0.0
1227,69.0,120,90,5.0,0.0
1228,69.0,0,90,4.0,0.0
1229,69.0,0,90,10.0,0.0
1230,62.0,240,210,12.0,0.0
1231,54.0,120,450,14.0,0.0
1232,54.0,0,450,13.0,0.0
1233,81.0,0,210,11.0,0.0
1234,72.0,0,90,4.0,0.0
1235,72.0,0,90,5.0,0.0
1236,72.0,0,90,10.0,0.0
1237,71.0,120,450,5.0,0.0
1238,71.0,0,450,10.0,0.0
1239,79.0,0,210,11.0,0.0
1240,71.0,0,450,4.0,0.0
1241,62.0,0,450,12.0,0.0
1242,52.0,0,90,13.0,0.0
1243,52.0,120,90,14.0,0.0
1244,67.0,0,90,11.0,0.0
1245,66.0,0,90,11.0,0.0
1246,50.0,0,90,13.0,0.0
1247,50.0,0,90,14.0,0.0
1248,79.0,0,210,10.0,0.0
1249,79.0,0,210,5.0,0.0
1250,52.0,0,90,14.0,0.0
1251,52.0,120,90,13.0,0.0
1252,59.0,0,210,12.0,0.0
1253,67.0,0,210,11.0,0.0
1254,79.0,0,210,4.0,0.0
1255,54.0,0,90,13.0,0.0
1256,54.0,120,90,14.0,0.0
1257,71.0,0,90,5.0,0.0
1258,64.0,0,210,12.0,0.0
1259,64.0,0,210,11.0,0.0
1260,71.0,0,90,4.0,0.0
1261,55.0,0,450,14.0,0.0
1262,55.0,0,450,13.0,0.0
1263,71.0,120,90,10.0,0.0
1264,74.0,0,90,10.0,0.0
1265,74.0,0,90,4.0,0.0
1266,74.0,240,90,5.0,0.0
1267,73.0,0,210,10.0,0.0
1268,73.0,120,210,4.0,0.0
1269,73.0,0,210,5.0,0.0
1270,64.0,0,450,12.0,0.0
1271,69.0,0,450,11.0,0.0
1272,52.0,240,210,14.0,0.0
1273,76.0,0,90,10.0,0.0
1274,76.0,120,90,5.0,0.0
1275,76.0,0,90,4.0,0.0
1276,52.0,0,210,13.0,0.0
1277,73.0,0,90,4.0,0.0
1278,73.0,0,90,5.0,0.0
1279,73.0,0,90,10.0,0.0
1280,69.0,0,210,10.0,0.0
1281,69.0,0,210,0.0,0.0
1282,76.0,15,210,11.0,0.0
1283,64.0,0,210,12.0,0.0
1284,49.0,0,210,13.0,0.0
1285,69.0,0,210,2.0,0.0
1286,49.0,0,210,14.0,0.0
1287,76.0,0,210,1.0,0.0
1288,69.0,0,210,4.0,0.0
1289,45.0,105,240,3.0,0.0
1290,69.0,0,210,5.0,0.0
1291,69.0,0,210,2.0,0.0
1292,45.0,0,210,14.0,0.0
1293,69.0,0,210,12.0,0.0
1294,45.0,105,240,3.0,0.0
1295,79.0,0,90,10.0,0.0
1296,76.0,0,210,1.0,0.0
1297,79.0,0,90,4.0,0.0
1298,73.0,0,210,11.0,0.0
1299,45.0,0,210,13.0,0.0
1300,79.0,120,90,5.0,0.0
1301,79.0,0,90,0.0,0.0
1302,76.0,0,90,5.0,0.0
1303,76.0,0,90,4.0,0.0
1304,76.0,15,90,10.0,0.0
1305,76.0,0,90,0.0,0.0
1306,78.0,0,90,5.0,0.0
1307,50.0,0,210,13.0,0.0
1308,78.0,0,90,4.0,0.0
1309,50.0,0,210,14.0,0.0
1310,69.0,0,210,2.0,0.0
1311,50.0,105,240,3.0,0.0
1312,78.0,120,90,10.0,0.0
1313,78.0,0,90,0.0,0.0
1314,74.0,0,210,1.0,0.0
1315,69.0,0,90,12.0,0.0
1316,74.0,0,210,11.0,0.0
1317,76.0,0,90,4.0,0.0
1318,76.0,0,90,5.0,0.0
1319,76.0,0,90,10.0,0.0
1320,76.0,0,90,0.0,0.0
1321,67.0,15,90,12.0,0.0
1322,66.0,0,90,12.0,0.0
1323,66.0,0,90,2.0,0.0
1324,74.0,120,90,10.0,0.0
1325,55.0,0,210,13.0,0.0
1326,74.0,0,210,1.0,0.0
1327,74.0,0,90,4.0,0.0
1328,71.0,0,210,11.0,0.0
1329,55.0,0,210,14.0,0.0
1330,74.0,0,90,0.0,0.0
1331,74.0,0,90,5.0,0.0
1332,67.0,0,90,12.0,0.0
1333,76.0,0,90,0.0,0.0
1334,76.0,0,90,4.0,0.0
1335,62.0,0,90,2.0,0.0
1336,76.0,0,90,5.0,0.0
1337,76.0,120,90,10.0,0.0
1338,69.0,0,210,10.0,0.0
1339,57.0,0,210,14.0,0.0
1340,69.0,120,90,1.0,0.0
1341,69.0,15,210,11.0,0.0
1342,64.0,0,210,12.0,0.0
1343,57.0,0,210,13.0,0.0
1344,69.0,0,210,2.0,0.0
1345,69.0,0,210,5.0,0.0
1346,76.0,0,330,0.0,0.0
1347,45.0,105,240,3.0,0.0
1348,69.0,0,210,4.0,0.0
1349,66.0,0,90,1.0,0.0
1350,73.0,15,210,10.0,0.0
1351,69.0,120,90,2.0,0.0
1352,69.0,0,210,1.0,0.0
1353,73.0,0,210,4.0,0.0
1354,45.0,465,240,3.0,0.0
1355,45.0,0,210,13.0,0.0
1356,45.0,0,210,14.0,0.0
1357,73.0,0,210,5.0,0.0
1358,69.0,0,210,11.0,0.0
1359,64.0,0,210,12.0,0.0
1360,74.0,0,90,0.0,0.0
1361,69.0,0,90,2.0,0.0
1362,69.0,0,450,11.0,0.0
1363,66.0,0,450,12.0,0.0
1364,50.0,0,450,14.0,0.0
1365,66.0,0,480,1.0,0.0
1366,50.0,15,450,13.0,0.0
1367,74.0,0,480,0.0,0.0
1368,50.0,225,480,3.0,0.0
1369,74.0,0,450,4.0,0.0
1370,69.0,0,480,2.0,0.0
1371,74.0,0,450,5.0,0.0
1372,74.0,0,450,10.0,0.0
1373,64.0,0,210,11.0,0.0
1374,45.0,0,210,13.0,0.0
1375,76.0,120,210,4.0,0.0
1376,61.0,0,210,12.0,0.0
1377,45.0,0,210,14.0,0.0
1378,76.0,0,210,5.0,0.0
1379,76.0,0,210,10.0,0.0
1380,57.0,0,210,12.0,0.0
1381,64.0,120,90,10.0,0.0
1382,49.0,0,210,13.0,0.0
1383,64.0,0,90,4.0,0.0
1384,49.0,0,210,14.0,0.0
1385,76.0,240,210,11.0,0.0
1386,64.0,0,90,5.0,0.0
1387,67.0,0,90,5.0,0.0
1388,67.0,0,90,10.0,0.0
1389,67.0,0,90,4.0,0.0
1390,57.0,120,210,12.0,0.0
1391,66.0,0,450,4.0,0.0
1392,66.0,0,450,10.0,0.0
1393,50.0,0,210,13.0,0.0
1394,50.0,0,210,14.0,0.0
1395,76.0,0,210,11.0,0.0
1396,66.0,0,450,5.0,0.0
1397,59.0,120,90,12.0,0.0
1398,49.0,0,210,14.0,0.0
1399,49.0,0,210,13.0,0.0
1400,66.0,0,90,11.0,0.0
1401,61.0,0,90,12.0,0.0
1402,64.0,240,90,11.0,0.0
1403,74.0,120,210,5.0,0.0
1404,74.0,0,210,10.0,0.0
1405,62.0,0,210,12.0,0.0
1406,66.0,0,210,11.0,0.0
1407,47.0,0,210,13.0,0.0
1408,47.0,0,210,14.0,0.0
1409,74.0,0,210,4.0,0.0
1410,78.0,0,210,11.0,0.0
1411,59.0,0,210,12.0,0.0
1412,66.0,0,90,5.0,0.0
1413,50.0,0,210,14.0,0.0
1414,66.0,120,90,4.0,0.0
1415,66.0,0,90,10.0,0.0
1416,50.0,0,210,13.0,0.0
1417,69.0,0,90,10.0,0.0
1418,69.0,0,90,4.0,0.0
1419,69.0,240,90,5.0,0.0
1420,78.0,0,210,11.0,0.0
1421,52.0,120,210,14.0,0.0
1422,52.0,0,210,13.0,0.0
1423,67.0,0,450,10.0,0.0
1424,67.0,240,450,5.0,0.0
1425,67.0,0,450,4.0,0.0
1426,59.0,0,450,12.0,0.0
1427,50.0,0,210,14.0,0.0
1428,67.0,120,90,11.0,0.0
1429,50.0,0,210,13.0,0.0
1430,66.0,0,90,11.0,0.0
1431,73.0,0,210,5.0,0.0
1432,67.0,0,210,11.0,0.0
1433,52.0,0,210,13.0,0.0
1434,73.0,0,210,4.0,0.0
1435,52.0,0,210,14.0,0.0
1436,73.0,0,210,10.0,0.0
1437,64.0,120,210,12.0,0.0
1438,66.0,0,210,11.0,0.0
1439,54.0,0,210,13.0,0.0
1440,54.0,240,210,14.0,0.0
1441,64.0,0,210,12.0,0.0
1442,70.0,0,90,5.0,0.0
1443,70.0,0,90,10.0,0.0
1444,70.0,120,90,4.0,0.0
1445,73.0,0,90,10.0,0.0
1446,73.0,0,90,5.0,0.0
1447,73.0,0,90,4.0,0.0
1448,55.0,0,210,13.0,0.0
1449,71.0,0,210,10.0,0.0
1450,55.0,0,210,14.0,0.0
1451,62.0,0,210,12.0,0.0
1452,71.0,120,210,4.0,0.0
1453,71.0,0,210,11.0,0.0
1454,71.0,0,210,5.0,0.0
1455,73.0,0,90,5.0,0.0
1456,73.0,0,90,10.0,0.0
1457,73.0,120,90,4.0,0.0
1458,54.0,0,210,14.0,0.0
1459,66.0,0,210,12.0,0.0
1460,70.0,0,210,11.0,0.0
1461,54.0,0,210,13.0,0.0
1462,74.0,0,90,5.0,0.0
1463,74.0,120,90,4.0,0.0
1464,74.0,0,90,10.0,0.0
1465,73.0,0,90,5.0,0.0
1466,73.0,120,90,4.0,0.0
1467,71.0,0,210,11.0,0.0
1468,73.0,0,90,10.0,0.0
1469,64.0,0,210,12.0,0.0
1470,55.0,0,210,14.0,0.0
1471,55.0,0,210,13.0,0.0
1472,71.0,240,90,4.0,0.0
1473,71.0,0,90,10.0,0.0
1474,71.0,0,90,5.0,0.0
1475,71.0,0,210,11.0,0.0
1476,79.0,0,210,4.0,0.0
1477,52.0,45,210,14.0,0.0
1478,79.0,0,210,10.0,0.0
1479,52.0,0,210,13.0,0.0
1480,79.0,0,210,5.0,0.0
1481,62.0,0,210,12.0,0.0
1482,54.0,7,210,13.0,0.0
1483,54.0,0,210,14.0,0.0
1484,79.0,0,30,4.0,0.0
1485,79.0,30,30,10.0,0.0
1486,61.0,0,450,12.0,0.0
1487,71.0,0,210,11.0,0.0
1488,79.0,0,30,5.0,0.0
1489,81.0,0,30,10.0,0.0
1490,81.0,0,30,4.0,0.0
1491,81.0,30,30,5.0,0.0
1492,79.0,0,30,10.0,0.0
1493,79.0,0,30,4.0,0.0
1494,79.0,30,30,5.0,0.0
1495,81.0,0,30,10.0,0.0
1496,81.0,30,30,4.0,0.0
1497,81.0,0,30,5.0,0.0
1498,79.0,30,30,5.0,0.0
1499,79.0,0,30,10.0,0.0
1500,79.0,0,30,4.0,0.0
1501,81.0,0,30,5.0,0.0
1502,81.0,30,30,4.0,0.0
1503,81.0,0,30,10.0,0.0
1504,78.0,0,30,5.0,0.0
1505,78.0,0,30,4.0,0.0
1506,78.0,15,30,10.0,0.0
1507,79.0,113,20,4.0,0.0
1508,79.0,0,20,10.0,0.0
1509,79.0,0,20,5.0,0.0
1510,56.0,0,90,14.0,0.0
1511,70.0,0,210,11.0,0.0
1512,56.0,120,90,13.0,0.0
1513,78.0,0,210,4.0,0.0
1514,78.0,0,210,5.0,0.0
1515,78.0,240,210,10.0,0.0
1516,58.0,0,90,14.0,0.0
1517,58.0,0,90,13.0,0.0
1518,59.0,0,210,14.0,0.0
1519,66.0,120,210,5.0,0.0
1520,66.0,0,210,4.0,0.0
1521,66.0,0,210,0.0,0.0
1522,59.0,0,210,12.0,0.0
1523,59.0,0,210,13.0,0.0
1524,62.0,0,210,11.0,0.0
1525,66.0,0,210,10.0,0.0
1526,78.0,0,90,10.0,0.0
1527,57.0,0,210,14.0,0.0
1528,57.0,0,210,13.0,0.0
1529,74.0,0,210,11.0,0.0
1530,78.0,120,90,5.0,0.0
1531,78.0,0,90,4.0,0.0
1532,78.0,0,90,0.0,0.0
1533,59.0,240,210,12.0,0.0
1534,74.0,0,90,5.0,0.0
1535,74.0,0,90,4.0,0.0
1536,74.0,0,90,10.0,0.0
1537,74.0,0,90,0.0,0.0
1538,76.0,240,450,0.0,0.0
1539,76.0,0,450,4.0,0.0
1540,74.0,0,210,11.0,0.0
1541,56.0,0,210,13.0,0.0
1542,76.0,0,450,10.0,0.0
1543,76.0,0,450,5.0,0.0
1544,59.0,120,210,12.0,0.0
1545,56.0,0,210,14.0,0.0
1546,58.0,120,90,12.0,0.0
1547,61.0,0,210,13.0,0.0
1548,61.0,0,210,14.0,0.0
1549,73.0,0,90,11.0,0.0
1550,61.0,0,90,12.0,0.0
1551,71.0,0,90,11.0,0.0
1552,66.0,120,210,0.0,0.0
1553,66.0,0,210,12.0,0.0
1554,66.0,0,210,4.0,0.0
1555,58.0,0,210,14.0,0.0
1556,66.0,0,210,10.0,0.0
1557,58.0,0,210,13.0,0.0
1558,73.0,0,210,11.0,0.0
1559,66.0,0,210,5.0,0.0
1560,70.0,0,210,11.0,0.0
1561,54.0,0,210,14.0,0.0
1562,76.0,0,90,10.0,0.0
1563,76.0,0,90,0.0,0.0
1564,54.0,0,210,13.0,0.0
1565,76.0,0,90,5.0,0.0
1566,66.0,240,210,12.0,0.0
1567,76.0,120,90,4.0,0.0
1568,78.0,0,90,0.0,0.0
1569,73.0,0,90,10.0,0.0
1570,73.0,0,90,5.0,0.0
1571,73.0,0,90,4.0,0.0
1572,74.0,0,210,10.0,0.0
1573,71.0,0,210,11.0,0.0
1574,74.0,105,480,0.0,0.0
1575,74.0,0,210,5.0,0.0
1576,59.0,0,210,13.0,0.0
1577,59.0,120,210,14.0,0.0
1578,66.0,0,210,12.0,0.0
1579,74.0,0,210,4.0,0.0
1580,67.0,0,210,12.0,0.0
1581,71.0,0,90,5.0,0.0
1582,71.0,0,90,4.0,0.0
1583,55.0,15,210,14.0,0.0
1584,62.0,0,210,11.0,0.0
1585,71.0,120,90,10.0,0.0
1586,55.0,0,210,13.0,0.0
1587,74.0,0,90,10.0,0.0
1588,74.0,0,90,4.0,0.0
1589,74.0,0,90,5.0,0.0
1590,73.0,0,90,5.0,0.0
1591,52.0,0,210,14.0,0.0
1592,64.0,0,210,11.0,0.0
1593,52.0,120,210,13.0,0.0
1594,67.0,0,210,12.0,0.0
1595,73.0,120,90,4.0,0.0
1596,73.0,0,90,10.0,0.0
1597,70.0,0,90,10.0,0.0
1598,70.0,0,90,4.0,0.0
1599,70.0,0,90,5.0,0.0
1600,50.0,0,90,14.0,0.0
1601,66.0,0,90,12.0,0.0
1602,71.0,0,210,5.0,0.0
1603,71.0,240,210,10.0,0.0
1604,66.0,0,90,11.0,0.0
1605,71.0,0,210,4.0,0.0
1606,50.0,120,90,13.0,0.0
1607,67.0,0,90,11.0,0.0
1608,49.0,0,90,14.0,0.0
1609,49.0,0,90,13.0,0.0
1610,64.0,0,90,12.0,0.0
1611,66.0,0,210,11.0,0.0
1612,78.0,0,210,10.0,0.0
1613,62.0,120,210,12.0,0.0
1614,50.0,0,210,13.0,0.0
1615,50.0,0,210,14.0,0.0
1616,78.0,0,210,4.0,0.0
1617,78.0,0,210,5.0,0.0
1618,79.0,120,90,4.0,0.0
1619,52.0,0,210,13.0,0.0
1620,71.0,120,210,11.0,0.0
1621,79.0,0,90,5.0,0.0
1622,52.0,0,210,14.0,0.0
1623,61.0,0,210,12.0,0.0
1624,79.0,0,90,10.0,0.0
1625,78.0,0,90,4.0,0.0
1626,78.0,0,90,5.0,0.0
1627,78.0,0,90,10.0,0.0
1628,76.0,0,90,10.0,0.0
1629,76.0,120,90,4.0,0.0
1630,61.0,0,210,12.0,0.0
1631,54.0,120,210,14.0,0.0
1632,76.0,0,90,5.0,0.0
1633,54.0,0,210,13.0,0.0
1634,71.0,0,210,11.0,0.0
1635,74.0,0,90,5.0,0.0
1636,74.0,0,90,10.0,0.0
1637,74.0,0,90,4.0,0.0
1638,66.0,0,210,12.0,0.0
1639,73.0,0,90,4.0,0.0
1640,42.0,0,210,13.0,0.0
1641,70.0,0,210,11.0,0.0
1642,73.0,120,90,10.0,0.0
1643,42.0,0,210,14.0,0.0
1644,73.0,0,90,5.0,0.0
1645,74.0,240,90,5.0,0.0
1646,74.0,0,90,4.0,0.0
1647,74.0,0,90,10.0,0.0
1648,71.0,0,450,4.0,0.0
1649,47.0,0,210,13.0,0.0
1650,47.0,120,210,14.0,0.0
1651,71.0,0,450,5.0,0.0
1652,71.0,0,450,10.0,0.0
1653,66.0,0,450,11.0,0.0
1654,62.0,0,450,12.0,0.0
1655,57.0,0,90,13.0,0.0
1656,57.0,120,90,14.0,0.0
1657,54.0,240,90,14.0,0.0
1658,54.0,0,90,13.0,0.0
1659,67.0,0,210,11.0,0.0
1660,71.0,120,210,10.0,0.0
1661,55.0,0,690,13.0,0.0
1662,62.0,0,210,12.0,0.0
1663,55.0,0,690,14.0,0.0
1664,71.0,0,210,4.0,0.0
1665,71.0,0,210,5.0,0.0
1666,83.0,0,90,5.0,0.0
1667,74.0,120,90,11.0,0.0
1668,67.0,0,210,12.0,0.0
1669,83.0,0,90,10.0,0.0
1670,83.0,0,90,4.0,0.0
1671,79.0,0,90,10.0,0.0
1672,79.0,0,90,5.0,0.0
1673,79.0,0,90,4.0,0.0
1674,71.0,240,90,11.0,0.0
1675,72.0,0,450,11.0,0.0
1676,81.0,0,450,5.0,0.0
1677,81.0,0,450,4.0,0.0
1678,64.0,120,210,12.0,0.0
1679,81.0,0,450,10.0,0.0
1680,63.0,0,90,12.0,0.0
1681,54.0,120,90,13.0,0.0
1682,54.0,0,90,14.0,0.0
1683,52.0,0,90,13.0,0.0
1684,52.0,240,90,14.0,0.0
1685,64.0,0,90,12.0,0.0
1686,51.0,0,210,14.0,0.0
1687,51.0,0,210,13.0,0.0
1688,71.0,0,210,4.0,0.0
1689,66.0,0,210,12.0,0.0
1690,71.0,120,210,5.0,0.0
1691,66.0,0,210,11.0,0.0
1692,71.0,0,210,10.0,0.0
1693,47.0,0,210,14.0,0.0
1694,81.0,0,90,4.0,0.0
1695,78.0,0,90,11.0,0.0
1696,81.0,0,90,5.0,0.0
1697,63.0,0,210,12.0,0.0
1698,47.0,0,210,13.0,0.0
1699,81.0,120,90,10.0,0.0
1700,75.0,240,90,11.0,0.0
1701,78.0,0,90,10.0,0.0
1702,78.0,0,90,4.0,0.0
1703,78.0,0,90,5.0,0.0
1704,59.0,0,450,12.0,0.0
1705,52.0,0,210,14.0,0.0
1706,79.0,0,450,5.0,0.0
1707,79.0,0,450,10.0,0.0
1708,79.0,0,450,4.0,0.0
1709,76.0,0,450,11.0,0.0
1710,52.0,120,210,13.0,0.0
1711,54.0,0,90,14.0,0.0
1712,54.0,120,90,13.0,0.0
1713,55.0,0,90,13.0,0.0
1714,55.0,240,90,14.0,0.0
1715,57.0,0,210,12.0,0.0
1716,69.0,0,210,0.0,0.0
1717,73.0,0,210,4.0,0.0
1718,73.0,0,210,5.0,0.0
1719,73.0,0,210,10.0,0.0
1720,57.0,0,210,13.0,0.0
1721,45.0,105,240,3.0,0.0
1722,64.0,0,210,11.0,0.0
1723,57.0,0,210,14.0,0.0
1724,76.0,0,210,1.0,0.0
1725,69.0,15,210,2.0,0.0
1726,79.0,0,90,10.0,0.0
1727,79.0,0,90,4.0,0.0
1728,79.0,120,90,0.0,0.0
1729,76.0,0,210,1.0,0.0
1730,49.0,15,210,14.0,0.0
1731,79.0,0,90,5.0,0.0
1732,57.0,0,210,12.0,0.0
1733,49.0,0,210,13.0,0.0
1734,45.0,225,240,3.0,0.0
1735,69.0,0,210,2.0,0.0
1736,76.0,0,210,11.0,0.0
1737,76.0,0,90,10.0,0.0
1738,76.0,0,90,5.0,0.0
1739,76.0,0,90,0.0,0.0
1740,76.0,0,90,4.0,0.0
1741,74.0,0,210,11.0,0.0
1742,69.0,0,240,2.0,0.0
1743,50.0,0,210,13.0,0.0
1744,74.0,105,240,1.0,0.0
1745,78.0,0,210,0.0,0.0
1746,50.0,0,240,3.0,0.0
1747,78.0,15,210,5.0,0.0
1748,69.0,0,210,12.0,0.0
1749,78.0,0,210,10.0,0.0
1750,78.0,0,210,4.0,0.0
1751,50.0,0,210,14.0,0.0
1752,47.0,0,210,13.0,0.0
1753,47.0,0,210,14.0,0.0
1754,76.0,120,90,0.0,0.0
1755,76.0,0,90,10.0,0.0
1756,76.0,0,90,4.0,0.0
1757,76.0,0,90,5.0,0.0
1758,71.0,0,210,12.0,0.0
1759,66.0,120,210,11.0,0.0
1760,74.0,0,90,0.0,0.0
1761,74.0,0,90,4.0,0.0
1762,74.0,0,90,10.0,0.0
1763,74.0,0,90,5.0,0.0
1764,71.0,0,210,11.0,0.0
1765,74.0,0,240,2.0,0.0
1766,43.0,0,210,13.0,0.0
1767,76.0,120,90,10.0,0.0
1768,43.0,0,210,14.0,0.0
1769,83.0,0,240,1.0,0.0
1770,76.0,0,90,0.0,0.0
1771,76.0,0,90,4.0,0.0
1772,76.0,0,90,5.0,0.0
1773,50.0,105,240,3.0,0.0
1774,64.0,0,210,12.0,0.0
1775,73.0,0,90,10.0,0.0
1776,73.0,15,90,5.0,0.0
1777,78.0,0,90,0.0,0.0
1778,73.0,0,90,4.0,0.0
1779,44.0,0,210,13.0,0.0
1780,71.0,0,210,11.0,0.0
1781,74.0,0,210,10.0,0.0
1782,64.0,45,210,12.0,0.0
1783,44.0,0,210,14.0,0.0
1784,76.0,120,90,0.0,0.0
1785,74.0,0,210,4.0,0.0
1786,74.0,0,210,5.0,0.0
1787,78.0,0,90,0.0,0.0
1788,45.0,0,480,3.0,0.0
1789,45.0,0,210,13.0,0.0
1790,73.0,0,30,10.0,0.0
1791,81.0,0,480,1.0,0.0
1792,76.0,0,210,0.0,0.0
1793,73.0,0,30,4.0,0.0
1794,69.0,0,450,11.0,0.0
1795,73.0,30,30,5.0,0.0
1796,45.0,7,210,14.0,0.0
1797,69.0,105,480,2.0,0.0
1798,64.0,15,450,12.0,0.0
1799,74.0,30,30,5.0,0.0
1800,74.0,0,30,4.0,0.0
1801,74.0,0,30,10.0,0.0
1802,73.0,0,30,10.0,0.0
1803,73.0,30,30,4.0,0.0
1804,73.0,0,30,5.0,0.0
1805,74.0,0,30,5.0,0.0
1806,74.0,30,30,4.0,0.0
1807,74.0,0,30,10.0,0.0
1808,73.0,0,30,5.0,0.0
1809,73.0,30,30,4.0,0.0
1810,73.0,0,30,10.0,0.0
1811,74.0,0,30,10.0,0.0
1812,74.0,0,30,5.0,0.0
1813,74.0,30,30,4.0,0.0
1814,71.0,0,30,10.0,0.0
1815,71.0,15,30,4.0,0.0
1816,71.0,0,30,5.0,0.0
1817,73.0,113,20,4.0,0.0
1818,73.0,0,20,10.0,0.0
1819,73.0,0,20,5.0,0.0
1820,47.0,120,90,14.0,0.0
1821,71.0,0,90,5.0,0.0
1822,47.0,0,90,13.0,0.0
1823,69.0,0,240,0.0,0.0
1824,71.0,0,90,10.0,0.0
1825,71.0,0,90,4.0,0.0
1826,69.0,0,90,10.0,0.0
1827,69.0,0,90,5.0,0.0
1828,69.0,0,90,4.0,0.0
1829,49.0,0,90,14.0,0.0
1830,49.0,0,90,13.0,0.0
1831,81.0,0,210,10.0,0.0
1832,50.0,120,90,13.0,0.0
1833,69.0,0,210,11.0,0.0
1834,81.0,0,210,4.0,0.0
1835,66.0,0,210,12.0,0.0
1836,50.0,0,90,14.0,0.0
1837,81.0,120,210,5.0,0.0
1838,52.0,0,90,14.0,0.0
1839,52.0,0,90,13.0,0.0
1840,81.0,0,210,11.0,0.0
1841,69.0,120,90,10.0,0.0
1842,69.0,0,90,5.0,0.0
1843,69.0,0,90,4.0,0.0
1844,54.0,0,450,13.0,0.0
1845,54.0,120,450,14.0,0.0
1846,62.0,240,210,12.0,0.0
1847,72.0,0,90,5.0,0.0
1848,72.0,0,90,4.0,0.0
1849,72.0,0,90,10.0,0.0
1850,71.0,0,450,4.0,0.0
1851,71.0,0,450,10.0,0.0
1852,62.0,120,450,12.0,0.0
1853,71.0,0,450,5.0,0.0
1854,79.0,0,210,11.0,0.0
1855,67.0,120,90,11.0,0.0
1856,52.0,0,90,13.0,0.0
1857,52.0,0,90,14.0,0.0
1858,50.0,0,90,13.0,0.0
1859,66.0,0,90,11.0,0.0
1860,50.0,0,90,14.0,0.0
1861,52.0,0,90,14.0,0.0
1862,79.0,0,210,5.0,0.0
1863,79.0,0,210,10.0,0.0
1864,59.0,0,210,12.0,0.0
1865,52.0,120,90,13.0,0.0
1866,67.0,0,210,11.0,0.0
1867,79.0,0,210,4.0,0.0
1868,54.0,120,90,14.0,0.0
1869,54.0,0,90,13.0,0.0
1870,55.0,0,450,13.0,0.0
1871,55.0,0,450,14.0,0.0
1872,64.0,0,210,11.0,0.0
1873,64.0,0,210,12.0,0.0
1874,71.0,0,90,5.0,0.0
1875,71.0,120,90,4.0,0.0
1876,71.0,0,90,10.0,0.0
1877,74.0,0,90,10.0,0.0
1878,74.0,0,90,4.0,0.0
1879,74.0,240,90,5.0,0.0
1880,73.0,0,210,4.0,0.0
1881,64.0,0,450,12.0,0.0
1882,69.0,0,450,11.0,0.0
1883,73.0,0,210,10.0,0.0
1884,73.0,120,210,5.0,0.0
1885,52.0,0,210,13.0,0.0
1886,76.0,0,90,5.0,0.0
1887,76.0,120,90,10.0,0.0
1888,52.0,240,210,14.0,0.0
1889,76.0,0,90,4.0,0.0
1890,73.0,0,90,4.0,0.0
1891,73.0,0,90,10.0,0.0
1892,73.0,0,90,5.0,0.0
1893,64.0,0,210,12.0,0.0
1894,69.0,0,210,5.0,0.0
1895,76.0,0,210,11.0,0.0
1896,69.0,0,210,0.0,0.0
1897,45.0,105,240,3.0,0.0
1898,49.0,0,210,13.0,0.0
1899,49.0,0,210,14.0,0.0
1900,69.0,0,210,2.0,0.0
1901,69.0,0,210,10.0,0.0
1902,69.0,0,210,4.0,0.0
1903,76.0,15,210,1.0,0.0
1904,45.0,0,210,13.0,0.0
1905,79.0,0,90,4.0,0.0
1906,45.0,105,240,3.0,0.0
1907,79.0,0,90,0.0,0.0
1908,69.0,0,210,2.0,0.0
1909,76.0,15,210,1.0,0.0
1910,45.0,0,210,14.0,0.0
1911,69.0,0,210,12.0,0.0
1912,73.0,0,210,11.0,0.0
1913,79.0,0,90,5.0,0.0
1914,79.0,120,90,10.0,0.0
1915,76.0,0,90,4.0,0.0
1916,76.0,0,90,5.0,0.0
1917,76.0,0,90,0.0,0.0
1918,76.0,0,90,10.0,0.0
1919,74.0,0,210,1.0,0.0
1920,78.0,0,90,0.0,0.0
1921,50.0,0,210,14.0,0.0
1922,69.0,0,210,2.0,0.0
1923,74.0,0,210,11.0,0.0
1924,69.0,0,90,12.0,0.0
1925,78.0,0,90,5.0,0.0
1926,78.0,120,90,10.0,0.0
1927,50.0,105,240,3.0,0.0
1928,78.0,0,90,4.0,0.0
1929,50.0,15,210,13.0,0.0
1930,76.0,0,90,0.0,0.0
1931,76.0,0,90,4.0,0.0
1932,67.0,0,90,12.0,0.0
1933,76.0,0,90,5.0,0.0
1934,76.0,0,90,10.0,0.0
1935,74.0,0,210,1.0,0.0
1936,74.0,0,90,10.0,0.0
1937,74.0,0,90,4.0,0.0
1938,74.0,0,90,5.0,0.0
1939,74.0,120,90,0.0,0.0
1940,55.0,0,210,13.0,0.0
1941,66.0,0,90,12.0,0.0
1942,71.0,0,210,11.0,0.0
1943,66.0,0,90,2.0,0.0
1944,55.0,0,210,14.0,0.0
1945,67.0,0,90,12.0,0.0
1946,62.0,0,90,2.0,0.0
1947,76.0,0,90,10.0,0.0
1948,76.0,0,90,5.0,0.0
1949,76.0,120,90,0.0,0.0
1950,76.0,0,90,4.0,0.0
1951,45.0,105,240,3.0,0.0
1952,57.0,0,210,13.0,0.0
1953,69.0,120,90,1.0,0.0
1954,76.0,0,330,0.0,0.0
1955,69.0,0,210,11.0,0.0
1956,69.0,0,210,2.0,0.0
1957,69.0,0,210,5.0,0.0
1958,64.0,0,210,12.0,0.0
1959,57.0,15,210,14.0,0.0
1960,69.0,0,210,4.0,0.0
1961,69.0,0,210,10.0,0.0
1962,66.0,0,90,1.0,0.0
1963,69.0,0,210,11.0,0.0
1964,64.0,0,210,12.0,0.0
1965,73.0,0,210,4.0,0.0
1966,45.0,480,240,3.0,0.0
1967,73.0,0,210,10.0,0.0
1968,73.0,0,210,5.0,0.0
1969,45.0,0,210,14.0,0.0
1970,45.0,0,210,13.0,0.0
1971,69.0,0,210,1.0,0.0
1972,69.0,120,90,2.0,0.0
1973,69.0,15,90,2.0,0.0
1974,74.0,0,90,0.0,0.0
1975,74.0,0,480,5.0,0.0
1976,66.0,0,480,1.0,0.0
1977,74.0,0,480,4.0,0.0
1978,74.0,0,480,10.0,0.0
1979,74.0,0,480,0.0,0.0
1980,50.0,0,480,3.0,0.0
1981,69.0,0,480,11.0,0.0
1982,69.0,0,480,2.0,0.0
1983,50.0,345,480,14.0,0.0
1984,50.0,0,480,13.0,0.0
1985,66.0,0,480,12.0,0.0
1986,74.0,0,90,4.0,0.0
1987,74.0,0,90,10.0,0.0
1988,74.0,0,240,1.0,0.0
1989,62.0,120,90,13.0,0.0
1990,62.0,0,90,14.0,0.0
1991,74.0,0,90,5.0,0.0
1992,74.0,0,90,11.0,0.0
1993,74.0,0,240,0.0,0.0
1994,74.0,225,240,2.0,0.0
1995,74.0,0,90,12.0,0.0
1996,73.0,0,90,12.0,0.0
1997,73.0,0,90,4.0,0.0
1998,61.0,0,90,13.0,0.0
1999,61.0,0,90,14.0,0.0
2000,73.0,0,90,5.0,0.0
2001,73.0,0,90,11.0,0.0
2002,73.0,15,90,10.0,0.0
2003,74.0,0,210,0.0,0.0
2004,74.0,0,210,12.0,0.0
2005,62.0,0,210,14.0,0.0
2006,74.0,0,210,1.0,0.0
2007,62.0,0,210,13.0,0.0
2008,74.0,0,210,10.0,0.0
2009,74.0,0,210,11.0,0.0
2010,74.0,0,210,2.0,0.0
2011,74.0,0,210,5.0,0.0
2012,74.0,120,210,4.0,0.0
2013,66.0,0,90,4.0,0.0
2014,66.0,0,90,12.0,0.0
2015,54.0,0,90,13.0,0.0
2016,66.0,0,240,1.0,0.0
2017,66.0,0,90,5.0,0.0
2018,66.0,0,90,11.0,0.0
2019,54.0,0,90,14.0,0.0
2020,66.0,0,240,0.0,0.0
2021,66.0,120,90,10.0,0.0
2022,66.0,225,240,2.0,0.0
2023,64.0,0,90,10.0,0.0
2024,64.0,0,90,5.0,0.0
2025,52.0,0,90,14.0,0.0
2026,52.0,0,90,13.0,0.0
2027,64.0,0,90,12.0,0.0
2028,64.0,15,90,11.0,0.0
2029,64.0,0,90,4.0,0.0
2030,66.0,0,210,10.0,0.0
2031,66.0,0,210,12.0,0.0
2032,66.0,120,210,0.0,0.0
2033,66.0,0,210,11.0,0.0
2034,66.0,0,210,5.0,0.0
2035,54.0,0,210,14.0,0.0
2036,66.0,0,210,2.0,0.0
2037,54.0,0,210,13.0,0.0
2038,66.0,0,210,4.0,0.0
2039,66.0,0,210,1.0,0.0
2040,69.0,0,90,4.0,0.0
2041,69.0,0,240,2.0,0.0
2042,69.0,0,90,12.0,0.0
2043,57.0,0,90,14.0,0.0
2044,69.0,0,90,5.0,0.0
2045,69.0,0,90,11.0,0.0
2046,69.0,0,240,0.0,0.0
2047,57.0,0,90,13.0,0.0
2048,69.0,225,240,1.0,0.0
2049,69.0,120,90,10.0,0.0
2050,55.0,15,90,14.0,0.0
2051,67.0,0,90,10.0,0.0
2052,67.0,0,90,11.0,0.0
2053,67.0,0,90,12.0,0.0
2054,55.0,0,90,13.0,0.0
2055,67.0,0,90,5.0,0.0
2056,67.0,0,90,4.0,0.0
2057,69.0,0,210,10.0,0.0
2058,69.0,0,210,0.0,0.0
2059,57.0,0,210,13.0,0.0
2060,57.0,0,210,14.0,0.0
2061,69.0,0,210,2.0,0.0
2062,69.0,0,210,4.0,0.0
2063,69.0,240,210,5.0,0.0
2064,69.0,0,210,12.0,0.0
2065,69.0,0,210,11.0,0.0
2066,69.0,0,210,1.0,0.0
2067,50.0,0,480,13.0,0.0
2068,62.0,0,480,1.0,0.0
2069,62.0,15,450,11.0,0.0
2070,50.0,0,480,14.0,0.0
2071,62.0,0,450,10.0,0.0
2072,62.0,0,450,4.0,0.0
2073,62.0,240,210,12.0,0.0
2074,62.0,0,480,2.0,0.0
2075,62.0,0,450,5.0,0.0
2076,62.0,105,480,0.0,0.0
2077,64.0,0,210,12.0,0.0
2078,74.0,120,90,10.0,0.0
2079,66.0,0,210,12.0,0.0
2080,69.0,0,210,5.0,0.0
2081,69.0,0,210,11.0,0.0
2082,74.0,0,90,4.0,0.0
2083,76.0,0,90,4.0,0.0
2084,76.0,120,90,10.0,0.0
2085,74.0,0,450,11.0,0.0
2086,62.0,0,210,12.0,0.0
2087,74.0,120,450,5.0,0.0
2088,78.0,0,90,4.0,0.0
2089,78.0,120,90,10.0,0.0
2090,74.0,240,90,10.0,0.0
2091,74.0,0,90,4.0,0.0
2092,76.0,0,210,4.0,0.0
2093,67.0,0,210,12.0,0.0
2094,76.0,0,210,10.0,0.0
2095,73.0,0,90,11.0,0.0
2096,76.0,0,210,10.0,0.0
2097,76.0,0,210,4.0,0.0
2098,64.0,0,210,12.0,0.0
2099,73.0,120,90,5.0,0.0
2100,71.0,0,90,5.0,0.0
2101,71.0,120,90,11.0,0.0
2102,76.0,0,90,10.0,0.0
2103,69.0,0,210,12.0,0.0
2104,73.0,0,90,5.0,0.0
2105,73.0,120,90,11.0,0.0
2106,76.0,0,90,4.0,0.0
2107,78.0,0,90,10.0,0.0
2108,74.0,0,90,5.0,0.0
2109,78.0,120,90,4.0,0.0
2110,74.0,0,90,11.0,0.0
2111,76.0,0,90,11.0,0.0
2112,79.0,120,90,10.0,0.0
2113,76.0,0,90,5.0,0.0
2114,57.0,0,210,12.0,0.0
2115,79.0,0,90,4.0,0.0
2116,76.0,240,90,4.0,0.0
2117,76.0,0,90,10.0,0.0
2118,73.0,0,90,5.0,0.0
2119,73.0,0,90,11.0,0.0
2120,74.0,0,210,11.0,0.0
2121,62.0,0,210,12.0,0.0
2122,74.0,0,210,5.0,0.0
2123,78.0,0,210,4.0,0.0
2124,78.0,240,210,10.0,0.0
2125,69.0,0,210,11.0,0.0
2126,74.0,0,210,10.0,0.0
2127,69.0,0,210,5.0,0.0
2128,66.0,0,210,12.0,0.0
2129,74.0,120,210,4.0,0.0
2130,74.0,0,90,10.0,0.0
2131,74.0,0,90,12.0,0.0
2132,74.0,0,240,1.0,0.0
2133,74.0,0,90,5.0,0.0
2134,74.0,120,90,4.0,0.0
2135,62.0,0,90,14.0,0.0
2136,74.0,0,240,2.0,0.0
2137,62.0,0,90,13.0,0.0
2138,74.0,0,90,11.0,0.0
2139,74.0,225,240,0.0,0.0
2140,73.0,0,90,4.0,0.0
2141,73.0,0,90,5.0,0.0
2142,61.0,0,90,13.0,0.0
2143,61.0,0,90,14.0,0.0
2144,73.0,0,90,12.0,0.0
2145,73.0,0,90,11.0,0.0
2146,73.0,15,90,10.0,0.0
2147,62.0,0,210,13.0,0.0
2148,74.0,0,210,1.0,0.0
2149,74.0,0,210,12.0,0.0
2150,74.0,0,210,0.0,0.0
2151,74.0,0,210,5.0,0.0
2152,74.0,0,210,4.0,0.0
2153,74.0,120,210,2.0,0.0
2154,74.0,0,210,10.0,0.0
2155,62.0,0,210,14.0,0.0
2156,74.0,0,210,11.0,0.0
2157,66.0,0,90,12.0,0.0
2158,66.0,0,90,10.0,0.0
2159,66.0,0,90,5.0,0.0
2160,66.0,0,90,4.0,0.0
2161,66.0,0,240,0.0,0.0
2162,66.0,225,240,1.0,0.0
2163,54.0,0,90,13.0,0.0
2164,66.0,0,240,2.0,0.0
2165,66.0,0,90,11.0,0.0
2166,54.0,120,90,14.0,0.0
2167,64.0,0,90,12.0,0.0
2168,64.0,15,90,4.0,0.0
2169,52.0,0,90,14.0,0.0
2170,64.0,0,90,5.0,0.0
2171,52.0,0,90,13.0,0.0
2172,64.0,0,90,11.0,0.0
2173,64.0,0,90,10.0,0.0
2174,66.0,0,210,2.0,0.0
2175,66.0,0,210,12.0,0.0
2176,66.0,0,210,0.0,0.0
2177,54.0,0,210,14.0,0.0
2178,66.0,120,210,1.0,0.0
2179,54.0,0,210,13.0,0.0
2180,66.0,0,210,4.0,0.0
2181,66.0,0,210,5.0,0.0
2182,66.0,0,210,11.0,0.0
2183,66.0,0,210,10.0,0.0
2184,69.0,0,90,10.0,0.0
2185,57.0,0,90,14.0,0.0
2186,69.0,120,90,11.0,0.0
2187,69.0,0,90,4.0,0.0
2188,69.0,0,240,2.0,0.0
2189,69.0,0,90,12.0,0.0
2190,69.0,225,240,1.0,0.0
2191,69.0,0,240,0.0,0.0
2192,57.0,0,90,13.0,0.0
2193,69.0,0,90,5.0,0.0
2194,67.0,0,90,10.0,0.0
2195,67.0,15,90,11.0,0.0
2196,55.0,0,90,14.0,0.0
2197,67.0,0,90,5.0,0.0
2198,67.0,0,90,4.0,0.0
2199,67.0,0,90,12.0,0.0
2200,55.0,0,90,13.0,0.0
2201,69.0,0,210,5.0,0.0
2202,69.0,0,210,2.0,0.0
2203,57.0,0,210,14.0,0.0
2204,69.0,0,210,1.0,0.0
2205,69.0,0,210,11.0,0.0
2206,69.0,0,210,12.0,0.0
2207,69.0,120,210,10.0,0.0
2208,69.0,0,210,4.0,0.0
2209,69.0,0,210,0.0,0.0
2210,57.0,0,210,13.0,0.0
2211,50.0,105,480,14.0,0.0
2212,62.0,0,480,11.0,0.0
2213,62.0,120,90,12.0,0.0
2214,62.0,0,480,0.0,0.0
2215,62.0,0,480,1.0,0.0
2216,62.0,0,450,10.0,0.0
2217,50.0,0,480,13.0,0.0
2218,62.0,0,480,2.0,0.0
2219,62.0,0,480,5.0,0.0
2220,62.0,15,450,4.0,0.0
2221,64.0,120,90,12.0,0.0
2222,66.0,120,90,12.0,0.0
2223,64.0,0,90,12.0,0.0
2224,78.0,105,120,10.0,0.0
2225,78.0,0,120,4.0,0.0
2226,62.0,15,90,12.0,0.0
2227,76.0,0,120,10.0,0.0
2228,76.0,105,120,4.0,0.0
2229,61.0,15,90,12.0,0.0
2230,74.0,105,120,4.0,0.0
2231,59.0,15,90,12.0,0.0
2232,74.0,0,120,10.0,0.0
2233,73.0,135,90,10.0,0.0
2234,73.0,0,90,4.0,0.0
2235,57.0,0,90,12.0,0.0
2236,71.0,0,120,11.0,0.0
2237,71.0,0,210,10.0,0.0
2238,56.0,0,210,12.0,0.0
2239,71.0,105,120,5.0,0.0
2240,71.0,15,210,4.0,0.0
2241,69.0,0,120,11.0,0.0
2242,69.0,105,120,5.0,0.0
2243,71.0,15,90,12.0,0.0
2244,68.0,0,120,11.0,0.0
2245,71.0,0,210,10.0,0.0
2246,71.0,0,210,4.0,0.0
2247,68.0,105,120,5.0,0.0
2248,69.0,120,90,12.0,0.0
2249,66.0,0,90,5.0,0.0
2250,66.0,0,90,11.0,0.0
2251,71.0,120,90,4.0,0.0
2252,64.0,0,210,11.0,0.0
2253,71.0,0,90,10.0,0.0
2254,68.0,0,90,12.0,0.0
2255,64.0,0,210,5.0,0.0
2256,73.0,0,90,4.0,0.0
2257,73.0,0,90,10.0,0.0
2258,66.0,120,90,12.0,0.0
2259,64.0,0,210,11.0,0.0
2260,64.0,0,90,12.0,0.0
2261,64.0,0,210,5.0,0.0
2262,74.0,0,90,4.0,0.0
2263,74.0,120,90,10.0,0.0
2264,62.0,0,90,12.0,0.0
2265,71.0,0,90,4.0,0.0
2266,71.0,120,90,10.0,0.0
2267,76.0,120,210,10.0,0.0
2268,64.0,120,90,5.0,0.0
2269,76.0,0,210,4.0,0.0
2270,61.0,0,90,12.0,0.0
2271,64.0,0,90,11.0,0.0
2272,62.0,0,90,12.0,0.0
2273,66.0,0,90,11.0,0.0
2274,66.0,0,90,5.0,0.0
2275,68.0,0,90,11.0,0.0
2276,64.0,0,210,10.0,0.0
2277,64.0,0,90,12.0,0.0
2278,68.0,120,90,5.0,0.0
2279,64.0,0,210,4.0,0.0
2280,62.0,120,90,12.0,0.0
2281,64.0,0,90,5.0,0.0
2282,64.0,0,90,11.0,0.0
2283,76.0,0,120,4.0,0.0
2284,69.0,0,600,5.0,0.0
2285,61.0,15,90,12.0,0.0
2286,76.0,105,120,10.0,0.0
2287,69.0,15,210,11.0,0.0
2288,74.0,0,120,4.0,0.0
2289,59.0,0,90,12.0,0.0
2290,74.0,105,120,10.0,0.0
2291,57.0,135,210,11.0,0.0
2292,73.0,0,120,4.0,0.0
2293,73.0,105,120,10.0,0.0
2294,57.0,15,90,12.0,0.0
2295,71.0,0,90,4.0,0.0
2296,56.0,0,90,12.0,0.0
2297,71.0,0,90,10.0,0.0
2298,69.0,105,120,11.0,0.0
2299,69.0,0,210,10.0,0.0
2300,54.0,15,210,12.0,0.0
2301,69.0,0,210,4.0,0.0
2302,68.0,105,120,11.0,0.0
2303,68.0,0,120,5.0,0.0
2304,69.0,0,210,10.0,0.0
2305,66.0,0,120,5.0,0.0
2306,69.0,0,210,4.0,0.0
2307,66.0,105,120,11.0,0.0
2308,69.0,15,90,12.0,0.0
2309,64.0,0,90,5.0,0.0
2310,68.0,0,90,12.0,0.0
2311,64.0,120,90,11.0,0.0
2312,69.0,120,90,10.0,0.0
2313,66.0,0,90,12.0,0.0
2314,69.0,0,90,4.0,0.0
2315,62.0,0,210,5.0,0.0
2316,62.0,0,210,11.0,0.0
2317,71.0,0,90,10.0,0.0
2318,71.0,0,90,4.0,0.0
2319,64.0,120,90,12.0,0.0
2320,73.0,120,90,10.0,0.0
2321,73.0,0,90,4.0,0.0
2322,62.0,120,210,5.0,0.0
2323,62.0,0,210,11.0,0.0
2324,62.0,0,90,12.0,0.0
2325,69.0,0,90,4.0,0.0
2326,69.0,0,90,10.0,0.0
2327,61.0,0,90,12.0,0.0
2328,62.0,120,90,11.0,0.0
2329,62.0,0,90,5.0,0.0
2330,74.0,0,210,10.0,0.0
2331,59.0,0,90,12.0,0.0
2332,74.0,0,210,4.0,0.0
2333,64.0,120,90,11.0,0.0
2334,61.0,0,90,12.0,0.0
2335,64.0,0,90,5.0,0.0
2336,62.0,0,90,12.0,0.0
2337,62.0,0,210,10.0,0.0
2338,66.0,120,90,11.0,0.0
2339,62.0,0,210,4.0,0.0
2340,66.0,0,90,5.0,0.0
2341,62.0,0,90,5.0,0.0
2342,62.0,120,90,11.0,0.0
2343,59.0,0,90,12.0,0.0
2344,62.0,0,90,13.0,0.0
2345,74.0,0,90,4.0,0.0
2346,74.0,0,90,12.0,0.0
2347,74.0,120,330,0.0,0.0
2348,74.0,0,90,10.0,0.0
2349,74.0,0,90,11.0,0.0
2350,74.0,0,90,5.0,0.0
2351,62.0,120,90,14.0,0.0
2352,73.0,120,90,10.0,0.0
2353,73.0,0,90,5.0,0.0
2354,61.0,0,90,14.0,0.0
2355,73.0,0,90,11.0,0.0
2356,73.0,0,90,12.0,0.0
2357,61.0,0,90,13.0,0.0
2358,73.0,0,90,4.0,0.0
2359,74.0,0,210,12.0,0.0
2360,74.0,0,210,11.0,0.0
2361,74.0,0,210,5.0,0.0
2362,74.0,120,210,4.0,0.0
2363,74.0,0,210,10.0,0.0
2364,62.0,0,210,13.0,0.0
2365,62.0,0,210,14.0,0.0
2366,69.0,0,90,0.0,0.0
2367,68.0,0,90,10.0,0.0
2368,68.0,120,90,12.0,0.0
2369,56.0,0,90,13.0,0.0
2370,68.0,0,90,5.0,0.0
2371,74.0,120,330,0.0,0.0
2372,68.0,0,90,11.0,0.0
2373,68.0,0,90,4.0,0.0
2374,56.0,0,90,14.0,0.0
2375,66.0,0,90,12.0,0.0
2376,66.0,0,90,4.0,0.0
2377,66.0,0,90,5.0,0.0
2378,66.0,0,90,11.0,0.0
2379,54.0,120,90,13.0,0.0
2380,54.0,0,90,14.0,0.0
2381,66.0,0,90,10.0,0.0
2382,68.0,120,210,11.0,0.0
2383,56.0,0,210,14.0,0.0
2384,68.0,0,210,4.0,0.0
2385,56.0,0,210,13.0,0.0
2386,68.0,0,210,12.0,0.0
2387,68.0,0,210,5.0,0.0
2388,68.0,0,210,10.0,0.0
2389,76.0,0,90,0.0,0.0
2390,71.0,0,90,10.0,0.0
2391,71.0,0,90,4.0,0.0
2392,71.0,0,90,11.0,0.0
2393,74.0,0,90,0.0,0.0
2394,71.0,0,90,5.0,0.0
2395,59.0,0,90,13.0,0.0
2396,71.0,0,90,12.0,0.0
2397,59.0,120,90,14.0,0.0
2398,69.0,0,90,12.0,0.0
2399,57.0,0,90,13.0,0.0
2400,69.0,0,90,5.0,0.0
2401,76.0,120,90,0.0,0.0
2402,69.0,0,90,4.0,0.0
2403,69.0,0,90,10.0,0.0
2404,57.0,0,90,14.0,0.0
2405,69.0,0,90,11.0,0.0
2406,71.0,0,210,10.0,0.0
2407,59.0,0,210,13.0,0.0
2408,71.0,0,210,12.0,0.0
2409,71.0,480,210,5.0,0.0
2410,71.0,0,210,11.0,0.0
2411,59.0,0,210,14.0,0.0
2412,74.0,120,90,0.0,0.0
2413,71.0,0,210,4.0,0.0
2414,76.0,0,90,0.0,0.0
2415,80.0,15,450,10.0,0.0
2416,71.0,0,450,12.0,0.0
2417,80.0,0,450,4.0,0.0
2418,52.0,120,960,13.0,0.0
2419,74.0,120,480,0.0,0.0
2420,52.0,0,960,14.0,0.0
2421,74.0,0,450,5.0,0.0
2422,74.0,0,450,11.0,0.0
2423,71.0,105,120,4.0,0.0
2424,64.0,15,210,12.0,0.0
2425,68.0,0,240,5.0,0.0
2426,68.0,0,240,11.0,0.0
2427,71.0,0,120,10.0,0.0
2428,69.0,0,120,10.0,0.0
2429,69.0,120,120,4.0,0.0
2430,68.0,0,210,5.0,0.0
2431,71.0,105,120,4.0,0.0
2432,68.0,0,210,11.0,0.0
2433,64.0,0,210,12.0,0.0
2434,71.0,0,120,10.0,0.0
2435,74.0,15,90,10.0,0.0
2436,74.0,0,90,4.0,0.0
2437,69.0,0,240,5.0,0.0
2438,52.0,105,960,14.0,0.0
2439,52.0,0,960,13.0,0.0
2440,64.0,15,210,12.0,0.0
2441,69.0,0,210,11.0,0.0
2442,73.0,0,120,4.0,0.0
2443,73.0,105,120,10.0,0.0
2444,71.0,0,120,4.0,0.0
2445,71.0,120,120,10.0,0.0
2446,64.0,15,210,12.0,0.0
2447,73.0,0,120,10.0,0.0
2448,73.0,105,120,4.0,0.0
2449,69.0,0,210,11.0,0.0
2450,69.0,120,240,5.0,0.0
2451,76.0,0,90,10.0,0.0
2452,76.0,0,90,4.0,0.0
2453,75.0,105,120,4.0,0.0
2454,69.0,0,210,11.0,0.0
2455,66.0,120,240,5.0,0.0
2456,66.0,15,210,12.0,0.0
2457,75.0,0,120,10.0,0.0
2458,73.0,0,120,10.0,0.0
2459,73.0,0,120,4.0,0.0
2460,69.0,0,210,11.0,0.0
2461,75.0,105,120,10.0,0.0
2462,66.0,15,210,12.0,0.0
2463,66.0,0,210,5.0,0.0
2464,75.0,0,120,4.0,0.0
2465,78.0,0,90,4.0,0.0
2466,78.0,0,90,10.0,0.0
2467,83.0,105,120,10.0,0.0
2468,83.0,0,120,4.0,0.0
2469,52.0,0,450,14.0,0.0
2470,68.0,15,90,5.0,0.0
2471,52.0,120,450,13.0,0.0
2472,68.0,0,90,12.0,0.0
2473,71.0,0,90,11.0,0.0
2474,81.0,0,120,4.0,0.0
2475,69.0,0,90,5.0,0.0
2476,81.0,120,120,10.0,0.0
2477,69.0,0,90,12.0,0.0
2478,73.0,15,90,11.0,0.0
2479,74.0,0,210,11.0,0.0
2480,80.0,0,120,4.0,0.0
2481,80.0,105,120,10.0,0.0
2482,71.0,0,210,5.0,0.0
2483,71.0,0,210,12.0,0.0
2484,78.0,0,90,4.0,0.0
2485,78.0,0,90,10.0,0.0
2486,76.0,15,210,10.0,0.0
2487,73.0,0,210,11.0,0.0
2488,73.0,0,210,5.0,0.0
2489,76.0,0,240,0.0,0.0
2490,57.0,120,90,14.0,0.0
2491,73.0,0,210,12.0,0.0
2492,76.0,0,240,2.0,0.0
2493,76.0,225,240,1.0,0.0
2494,57.0,0,90,13.0,0.0
2495,76.0,0,210,4.0,0.0
2496,56.0,0,90,14.0,0.0
2497,56.0,0,90,13.0,0.0
2498,76.0,120,210,5.0,0.0
2499,81.0,0,210,10.0,0.0
2500,76.0,0,210,2.0,0.0
2501,57.0,0,210,13.0,0.0
2502,81.0,0,210,4.0,0.0
2503,69.0,0,210,12.0,0.0
2504,57.0,0,210,14.0,0.0
2505,76.0,0,210,0.0,0.0
2506,76.0,0,210,1.0,0.0
2507,76.0,0,210,11.0,0.0
2508,49.0,120,90,14.0,0.0
2509,76.0,0,210,10.0,0.0
2510,81.0,0,240,2.0,0.0
2511,69.0,0,210,12.0,0.0
2512,49.0,0,90,13.0,0.0
2513,81.0,225,240,0.0,0.0
2514,81.0,0,240,1.0,0.0
2515,73.0,0,210,11.0,0.0
2516,69.0,0,240,5.0,0.0
2517,76.0,0,210,4.0,0.0
2518,47.0,0,90,14.0,0.0
2519,47.0,15,90,13.0,0.0
2520,81.0,0,210,2.0,0.0
2521,69.0,30,240,5.0,0.0
2522,81.0,0,210,10.0,0.0
2523,81.0,0,210,0.0,0.0
2524,81.0,15,210,4.0,0.0
2525,69.0,0,210,11.0,0.0
2526,81.0,0,210,1.0,0.0
2527,49.0,0,210,13.0,0.0
2528,64.0,0,210,12.0,0.0
2529,49.0,0,210,14.0,0.0
2530,69.0,0,30,11.0,0.0
2531,52.0,15,90,13.0,0.0
2532,73.0,0,30,10.0,0.0
2533,76.0,0,240,2.0,0.0
2534,76.0,105,240,1.0,0.0
2535,64.0,0,210,12.0,0.0
2536,76.0,0,240,0.0,0.0
2537,69.0,0,240,5.0,0.0
2538,52.0,0,90,14.0,0.0
2539,73.0,30,30,4.0,0.0
2540,74.0,0,30,4.0,0.0
2541,74.0,0,30,10.0,0.0
2542,71.0,30,30,11.0,0.0
2543,73.0,15,30,10.0,0.0
2544,69.0,0,30,11.0,0.0
2545,73.0,0,30,4.0,0.0
2546,74.0,0,30,4.0,0.0
2547,74.0,0,30,10.0,0.0
2548,71.0,30,30,11.0,0.0
2549,73.0,30,30,10.0,0.0
2550,69.0,0,30,11.0,0.0
2551,50.0,0,90,13.0,0.0
2552,73.0,0,30,4.0,0.0
2553,50.0,7,90,14.0,0.0
2554,74.0,0,30,4.0,0.0
2555,74.0,30,30,10.0,0.0
2556,71.0,0,30,11.0,0.0
2557,71.0,15,30,10.0,0.0
2558,68.0,0,30,11.0,0.0
2559,71.0,0,30,4.0,0.0
2560,73.0,0,20,4.0,0.0
2561,69.0,0,20,11.0,0.0
2562,73.0,8,20,10.0,0.0
2563,76.0,0,210,2.0,0.0
2564,71.0,0,90,4.0,0.0
2565,71.0,120,90,10.0,0.0
2566,62.0,0,90,12.0,0.0
2567,52.0,0,210,14.0,0.0
2568,68.0,0,90,11.0,0.0
2569,52.0,0,210,13.0,0.0
2570,68.0,0,210,5.0,0.0
2571,76.0,480,210,1.0,0.0
2572,76.0,0,210,0.0,0.0
2573,69.0,0,90,11.0,0.0
2574,64.0,0,90,12.0,0.0
2575,73.0,0,90,4.0,0.0
2576,73.0,0,90,10.0,0.0
2577,69.0,0,450,2.0,0.0
2578,64.0,0,450,11.0,0.0
2579,45.0,0,450,14.0,0.0
2580,69.0,0,450,5.0,0.0
2581,69.0,0,450,0.0,0.0
2582,61.0,0,450,12.0,0.0
2583,45.0,0,450,13.0,0.0
2584,69.0,0,450,4.0,0.0
2585,69.0,120,450,1.0,0.0
2586,69.0,0,450,10.0,0.0
2587,74.0,0,240,0.0,0.0
2588,62.0,0,90,13.0,0.0
2589,74.0,0,90,10.0,0.0
2590,74.0,0,90,4.0,0.0
2591,74.0,225,240,2.0,0.0
2592,74.0,0,90,11.0,0.0
2593,74.0,0,240,1.0,0.0
2594,62.0,0,90,14.0,0.0
2595,74.0,0,90,5.0,0.0
2596,74.0,120,90,12.0,0.0
2597,73.0,15,90,12.0,0.0
2598,73.0,0,90,4.0,0.0
2599,73.0,0,90,5.0,0.0
2600,73.0,0,90,11.0,0.0
2601,61.0,0,90,13.0,0.0
2602,61.0,0,90,14.0,0.0
2603,73.0,0,90,10.0,0.0
2604,74.0,0,210,11.0,0.0
2605,74.0,0,210,0.0,0.0
2606,74.0,0,210,4.0,0.0
2607,74.0,0,210,12.0,0.0
2608,62.0,0,210,13.0,0.0
2609,74.0,120,210,10.0,0.0
2610,74.0,0,210,1.0,0.0
2611,74.0,0,210,5.0,0.0
2612,62.0,0,210,14.0,0.0
2613,74.0,0,210,2.0,0.0
2614,54.0,0,90,13.0,0.0
2615,66.0,0,240,2.0,0.0
2616,66.0,225,240,0.0,0.0
2617,66.0,0,90,4.0,0.0
2618,66.0,120,90,12.0,0.0
2619,66.0,0,90,11.0,0.0
2620,66.0,0,90,10.0,0.0
2621,66.0,0,90,5.0,0.0
2622,54.0,0,90,14.0,0.0
2623,66.0,0,240,1.0,0.0
2624,64.0,0,90,4.0,0.0
2625,64.0,0,90,11.0,0.0
2626,64.0,0,90,5.0,0.0
2627,52.0,0,90,13.0,0.0
2628,52.0,0,90,14.0,0.0
2629,64.0,0,90,10.0,0.0
2630,64.0,15,90,12.0,0.0
2631,66.0,0,210,1.0,0.0
2632,66.0,0,210,2.0,0.0
2633,54.0,0,210,14.0,0.0
2634,66.0,0,210,11.0,0.0
2635,66.0,0,210,12.0,0.0
2636,66.0,0,210,5.0,0.0
2637,66.0,120,210,4.0,0.0
2638,54.0,0,210,13.0,0.0
2639,66.0,0,210,0.0,0.0
2640,66.0,0,210,10.0,0.0
2641,69.0,0,90,4.0,0.0
2642,69.0,0,90,12.0,0.0
2643,69.0,0,240,0.0,0.0
2644,57.0,120,90,14.0,0.0
2645,69.0,0,90,5.0,0.0
2646,69.0,0,240,1.0,0.0
2647,69.0,225,240,2.0,0.0
2648,69.0,0,90,10.0,0.0
2649,57.0,0,90,13.0,0.0
2650,69.0,0,90,11.0,0.0
2651,67.0,15,90,11.0,0.0
2652,55.0,0,90,14.0,0.0
2653,67.0,0,90,5.0,0.0
2654,67.0,0,90,10.0,0.0
2655,67.0,0,90,12.0,0.0
2656,55.0,0,90,13.0,0.0
2657,67.0,0,90,4.0,0.0
2658,57.0,0,210,14.0,0.0
2659,69.0,0,210,2.0,0.0
2660,69.0,0,210,11.0,0.0
2661,69.0,240,210,4.0,0.0
2662,69.0,0,210,0.0,0.0
2663,69.0,0,210,10.0,0.0
2664,69.0,0,210,1.0,0.0
2665,69.0,0,210,12.0,0.0
2666,69.0,0,210,5.0,0.0
2667,57.0,0,210,13.0,0.0
2668,62.0,240,210,12.0,0.0
2669,62.0,0,450,11.0,0.0
2670,62.0,15,450,5.0,0.0
2671,62.0,0,480,2.0,0.0
2672,62.0,0,450,4.0,0.0
2673,62.0,105,480,1.0,0.0
2674,62.0,0,450,10.0,0.0
2675,62.0,0,480,0.0,0.0
2676,50.0,0,480,13.0,0.0
2677,50.0,0,480,14.0,0.0
2678,64.0,0,210,12.0,0.0
2679,69.0,120,210,5.0,0.0
2680,66.0,0,210,12.0,0.0
2681,69.0,0,210,11.0,0.0
2682,74.0,120,90,10.0,0.0
2683,74.0,0,90,4.0,0.0
2684,76.0,0,90,4.0,0.0
2685,76.0,0,90,10.0,0.0
2686,78.0,0,90,10.0,0.0
2687,62.0,0,210,12.0,0.0
2688,78.0,120,90,4.0,0.0
2689,74.0,0,450,5.0,0.0
2690,74.0,0,450,11.0,0.0
2691,74.0,0,90,10.0,0.0
2692,74.0,240,90,4.0,0.0
2693,76.0,0,210,4.0,0.0
2694,76.0,0,210,10.0,0.0
2695,67.0,120,210,12.0,0.0
2696,64.0,120,210,12.0,0.0
2697,73.0,0,90,5.0,0.0
2698,76.0,0,210,4.0,0.0
2699,76.0,0,210,10.0,0.0
2700,73.0,120,90,11.0,0.0
2701,71.0,0,90,5.0,0.0
2702,71.0,0,90,11.0,0.0
2703,73.0,120,90,5.0,0.0
2704,69.0,0,210,12.0,0.0
2705,73.0,0,90,11.0,0.0
2706,76.0,0,90,10.0,0.0
2707,76.0,0,90,4.0,0.0
2708,78.0,120,90,10.0,0.0
2709,74.0,0,90,11.0,0.0
2710,74.0,0,90,5.0,0.0
2711,78.0,0,90,4.0,0.0
2712,76.0,0,90,5.0,0.0
2713,76.0,0,90,11.0,0.0
2714,57.0,0,210,12.0,0.0
2715,79.0,0,90,4.0,0.0
2716,79.0,120,90,10.0,0.0
2717,76.0,0,90,4.0,0.0
2718,73.0,240,90,5.0,0.0
2719,73.0,0,90,11.0,0.0
2720,76.0,0,90,10.0,0.0
2721,78.0,0,210,4.0,0.0
2722,78.0,0,210,10.0,0.0
2723,74.0,240,210,11.0,0.0
2724,74.0,0,210,5.0,0.0
2725,62.0,0,210,12.0,0.0
2726,69.0,0,210,5.0,0.0
2727,69.0,0,210,11.0,0.0
2728,74.0,0,210,10.0,0.0
2729,74.0,0,210,4.0,0.0
2730,66.0,120,210,12.0,0.0
2731,74.0,225,240,1.0,0.0
2732,62.0,0,90,13.0,0.0
2733,74.0,0,240,0.0,0.0
2734,74.0,0,90,12.0,0.0
2735,74.0,0,90,5.0,0.0
2736,74.0,120,90,4.0,0.0
2737,62.0,0,90,14.0,0.0
2738,74.0,0,90,10.0,0.0
2739,74.0,0,90,11.0,0.0
2740,74.0,0,240,2.0,0.0
2741,73.0,15,90,10.0,0.0
2742,73.0,0,90,11.0,0.0
2743,73.0,0,90,5.0,0.0
2744,73.0,0,90,12.0,0.0
2745,61.0,0,90,14.0,0.0
2746,61.0,0,90,13.0,0.0
2747,73.0,0,90,4.0,0.0
2748,74.0,0,210,11.0,0.0
2749,74.0,0,210,12.0,0.0
2750,74.0,0,210,10.0,0.0
2751,74.0,0,210,1.0,0.0
2752,62.0,120,210,13.0,0.0
2753,74.0,0,210,5.0,0.0
2754,74.0,0,210,4.0,0.0
2755,74.0,0,210,2.0,0.0
2756,74.0,0,210,0.0,0.0
2757,62.0,0,210,14.0,0.0
2758,66.0,225,240,0.0,0.0
2759,66.0,0,90,12.0,0.0
2760,54.0,0,90,13.0,0.0
2761,66.0,0,90,5.0,0.0
2762,66.0,0,90,10.0,0.0
2763,66.0,0,240,2.0,0.0
2764,66.0,0,90,4.0,0.0
2765,66.0,0,90,11.0,0.0
2766,54.0,120,90,14.0,0.0
2767,66.0,0,240,1.0,0.0
2768,64.0,0,90,11.0,0.0
2769,64.0,15,90,5.0,0.0
2770,64.0,0,90,10.0,0.0
2771,52.0,0,90,14.0,0.0
2772,64.0,0,90,4.0,0.0
2773,52.0,0,90,13.0,0.0
2774,64.0,0,90,12.0,0.0
2775,54.0,0,210,14.0,0.0
2776,66.0,0,210,2.0,0.0
2777,66.0,120,210,0.0,0.0
2778,66.0,0,210,1.0,0.0
2779,66.0,0,210,10.0,0.0
2780,66.0,0,210,12.0,0.0
2781,66.0,0,210,5.0,0.0
2782,54.0,0,210,13.0,0.0
2783,66.0,0,210,11.0,0.0
2784,66.0,0,210,4.0,0.0
2785,69.0,225,240,0.0,0.0
2786,69.0,0,90,12.0,0.0
2787,69.0,0,90,11.0,0.0
2788,69.0,0,90,10.0,0.0
2789,69.0,0,90,5.0,0.0
2790,57.0,0,90,14.0,0.0
2791,69.0,0,240,1.0,0.0
2792,69.0,0,90,4.0,0.0
2793,57.0,120,90,13.0,0.0
2794,69.0,0,240,2.0,0.0
2795,55.0,0,90,14.0,0.0
2796,67.0,15,90,10.0,0.0
2797,55.0,0,90,13.0,0.0
2798,67.0,0,90,12.0,0.0
2799,67.0,0,90,4.0,0.0
2800,67.0,0,90,11.0,0.0
2801,67.0,0,90,5.0,0.0
2802,69.0,0,210,0.0,0.0
2803,69.0,0,210,5.0,0.0
2804,57.0,0,210,14.0,0.0
2805,69.0,120,210,4.0,0.0
2806,69.0,0,210,10.0,0.0
2807,69.0,0,210,11.0,0.0
2808,69.0,0,210,1.0,0.0
2809,69.0,0,210,2.0,0.0
2810,57.0,0,210,13.0,0.0
2811,69.0,0,210,12.0,0.0
2812,62.0,0,480,5.0,0.0
2813,62.0,0,480,1.0,0.0
2814,62.0,15,450,10.0,0.0
2815,62.0,0,480,0.0,0.0
2816,62.0,120,90,12.0,0.0
2817,62.0,0,480,11.0,0.0
2818,50.0,0,480,13.0,0.0
2819,50.0,0,480,14.0,0.0
2820,62.0,105,480,2.0,0.0
2821,62.0,0,450,4.0,0.0
2822,64.0,120,90,12.0,0.0
2823,66.0,120,90,12.0,0.0
2824,64.0,0,90,12.0,0.0
2825,78.0,0,120,10.0,0.0
2826,78.0,105,120,4.0,0.0
2827,62.0,15,90,12.0,0.0
2828,76.0,0,120,4.0,0.0
2829,61.0,15,90,12.0,0.0
2830,76.0,105,120,10.0,0.0
2831,74.0,105,120,4.0,0.0
2832,74.0,0,120,10.0,0.0
2833,59.0,15,90,12.0,0.0
2834,57.0,0,90,12.0,0.0
2835,73.0,135,90,4.0,0.0
2836,73.0,0,90,10.0,0.0
2837,71.0,15,210,4.0,0.0
2838,71.0,105,120,5.0,0.0
2839,71.0,0,120,11.0,0.0
2840,71.0,0,210,10.0,0.0
2841,56.0,0,210,12.0,0.0
2842,69.0,0,120,11.0,0.0
2843,69.0,105,120,5.0,0.0
2844,71.0,0,210,4.0,0.0
2845,68.0,0,120,5.0,0.0
2846,68.0,105,120,11.0,0.0
2847,71.0,15,90,12.0,0.0
2848,71.0,120,210,10.0,0.0
2849,66.0,0,90,5.0,0.0
2850,66.0,0,90,11.0,0.0
2851,69.0,0,90,12.0,0.0
2852,64.0,0,210,5.0,0.0
2853,71.0,120,90,4.0,0.0
2854,64.0,0,210,11.0,0.0
2855,71.0,0,90,10.0,0.0
2856,68.0,0,90,12.0,0.0
2857,66.0,0,90,12.0,0.0
2858,73.0,120,90,10.0,0.0
2859,73.0,0,90,4.0,0.0
2860,64.0,0,210,11.0,0.0
2861,64.0,0,210,5.0,0.0
2862,74.0,120,90,10.0,0.0
2863,64.0,0,90,12.0,0.0
2864,74.0,0,90,4.0,0.0
2865,71.0,0,90,4.0,0.0
2866,62.0,0,90,12.0,0.0
2867,71.0,120,90,10.0,0.0
2868,64.0,0,90,11.0,0.0
2869,76.0,0,210,4.0,0.0
2870,64.0,0,90,5.0,0.0
2871,61.0,120,90,12.0,0.0
2872,76.0,0,210,10.0,0.0
2873,66.0,0,90,11.0,0.0
2874,66.0,0,90,5.0,0.0
2875,62.0,120,90,12.0,0.0
2876,64.0,0,210,4.0,0.0
2877,68.0,120,90,5.0,0.0
2878,68.0,0,90,11.0,0.0
2879,64.0,0,210,10.0,0.0
2880,64.0,0,90,12.0,0.0
2881,64.0,0,90,11.0,0.0
2882,64.0,0,90,5.0,0.0
2883,62.0,120,90,12.0,0.0
2884,76.0,0,120,10.0,0.0
2885,76.0,105,120,4.0,0.0
2886,69.0,0,600,5.0,0.0
2887,69.0,0,210,11.0,0.0
2888,61.0,15,90,12.0,0.0
2889,74.0,105,120,10.0,0.0
2890,59.0,15,90,12.0,0.0
2891,74.0,0,120,4.0,0.0
2892,73.0,0,120,4.0,0.0
2893,57.0,0,210,11.0,0.0
2894,57.0,15,90,12.0,0.0
2895,73.0,105,120,10.0,0.0
2896,56.0,135,90,12.0,0.0
2897,71.0,0,90,10.0,0.0
2898,71.0,0,90,4.0,0.0
2899,69.0,15,210,4.0,0.0
2900,69.0,0,210,10.0,0.0
2901,54.0,0,210,12.0,0.0
2902,69.0,105,120,11.0,0.0
2903,68.0,0,120,5.0,0.0
2904,68.0,105,120,11.0,0.0
2905,69.0,15,90,12.0,0.0
2906,66.0,0,120,5.0,0.0
2907,69.0,0,210,10.0,0.0
2908,69.0,0,210,4.0,0.0
2909,66.0,105,120,11.0,0.0
2910,64.0,0,90,11.0,0.0
2911,68.0,0,90,12.0,0.0
2912,64.0,120,90,5.0,0.0
2913,66.0,0,90,12.0,0.0
2914,62.0,0,210,5.0,0.0
2915,69.0,120,90,4.0,0.0
2916,62.0,0,210,11.0,0.0
2917,69.0,0,90,10.0,0.0
2918,71.0,0,90,10.0,0.0
2919,64.0,0,90,12.0,0.0
2920,71.0,120,90,4.0,0.0
2921,62.0,0,90,12.0,0.0
2922,73.0,0,90,4.0,0.0
2923,73.0,120,90,10.0,0.0
2924,62.0,0,210,11.0,0.0
2925,62.0,0,210,5.0,0.0
2926,61.0,0,90,12.0,0.0
2927,69.0,0,90,10.0,0.0
2928,69.0,120,90,4.0,0.0
2929,74.0,0,210,4.0,0.0
2930,62.0,0,90,5.0,0.0
2931,62.0,0,90,11.0,0.0
2932,59.0,120,90,12.0,0.0
2933,74.0,0,210,10.0,0.0
2934,64.0,0,90,11.0,0.0
2935,61.0,120,90,12.0,0.0
2936,64.0,0,90,5.0,0.0
2937,62.0,120,210,10.0,0.0
2938,62.0,0,90,12.0,0.0
2939,62.0,0,210,4.0,0.0
2940,66.0,0,90,11.0,0.0
2941,66.0,120,90,5.0,0.0
2942,62.0,0,90,11.0,0.0
2943,62.0,0,90,5.0,0.0
2944,59.0,0,90,12.0,0.0
2945,74.0,120,330,0.0,0.0
2946,74.0,0,90,10.0,0.0
2947,62.0,0,90,13.0,0.0
2948,74.0,120,90,12.0,0.0
2949,74.0,0,90,4.0,0.0
2950,74.0,0,90,5.0,0.0
2951,62.0,0,90,14.0,0.0
2952,74.0,0,90,11.0,0.0
2953,73.0,120,90,12.0,0.0
2954,61.0,0,90,13.0,0.0
2955,73.0,0,90,4.0,0.0
2956,61.0,0,90,14.0,0.0
2957,73.0,0,90,5.0,0.0
2958,73.0,0,90,10.0,0.0
2959,73.0,0,90,11.0,0.0
2960,62.0,0,210,14.0,0.0
2961,74.0,0,210,12.0,0.0
2962,74.0,0,210,11.0,0.0
2963,62.0,0,210,13.0,0.0
2964,74.0,0,210,5.0,0.0
2965,74.0,0,210,10.0,0.0
2966,74.0,120,210,4.0,0.0
2967,69.0,0,90,0.0,0.0
2968,68.0,0,90,10.0,0.0
2969,68.0,0,90,5.0,0.0
2970,68.0,0,90,12.0,0.0
2971,56.0,120,90,13.0,0.0
2972,68.0,0,90,4.0,0.0
2973,68.0,0,90,11.0,0.0
2974,74.0,120,330,0.0,0.0
2975,56.0,0,90,14.0,0.0
2976,54.0,0,90,14.0,0.0
2977,66.0,120,90,4.0,0.0
2978,66.0,0,90,10.0,0.0
2979,66.0,0,90,11.0,0.0
2980,66.0,0,90,5.0,0.0
2981,66.0,0,90,12.0,0.0
2982,54.0,0,90,13.0,0.0
2983,68.0,0,210,11.0,0.0
2984,68.0,0,210,12.0,0.0
2985,56.0,0,210,13.0,0.0
2986,68.0,0,210,10.0,0.0
2987,56.0,0,210,14.0,0.0
2988,68.0,120,210,5.0,0.0
2989,68.0,0,210,4.0,0.0
2990,76.0,0,90,0.0,0.0
2991,59.0,0,90,14.0,0.0
2992,74.0,0,90,0.0,0.0
2993,71.0,120,90,10.0,0.0
2994,71.0,0,90,11.0,0.0
2995,71.0,0,90,5.0,0.0
2996,71.0,0,90,12.0,0.0
2997,71.0,0,90,4.0,0.0
2998,59.0,0,90,13.0,0.0
2999,69.0,0,90,11.0,0.0
3000,69.0,0,90,12.0,0.0
3001,57.0,120,90,13.0,0.0
3002,57.0,0,90,14.0,0.0
3003,69.0,0,90,10.0,0.0
3004,69.0,0,90,4.0,0.0
3005,76.0,0,90,0.0,0.0
3006,69.0,0,90,5.0,0.0
3007,71.0,480,210,4.0,0.0
3008,71.0,0,210,11.0,0.0
3009,71.0,0,210,5.0,0.0
3010,71.0,0,210,12.0,0.0
3011,71.0,0,210,10.0,0.0
3012,59.0,0,210,14.0,0.0
3013,74.0,120,90,0.0,0.0
3014,59.0,0,210,13.0,0.0
3015,76.0,0,90,0.0,0.0
3016,80.0,0,450,10.0,0.0
3017,74.0,120,480,0.0,0.0
3018,74.0,0,450,11.0,0.0
3019,80.0,15,450,4.0,0.0
3020,52.0,120,960,14.0,0.0
3021,74.0,0,450,5.0,0.0
3022,71.0,0,450,12.0,0.0
3023,52.0,0,960,13.0,0.0
3024,64.0,15,210,12.0,0.0
3025,68.0,0,240,5.0,0.0
3026,68.0,0,240,11.0,0.0
3027,71.0,0,120,10.0,0.0
3028,71.0,105,120,4.0,0.0
3029,69.0,120,120,10.0,0.0
3030,69.0,0,120,4.0,0.0
3031,68.0,0,210,5.0,0.0
3032,68.0,0,210,11.0,0.0
3033,64.0,15,210,12.0,0.0
3034,71.0,0,120,4.0,0.0
3035,71.0,105,120,10.0,0.0
3036,74.0,0,90,4.0,0.0
3037,74.0,0,90,10.0,0.0
3038,52.0,105,960,14.0,0.0
3039,69.0,15,210,11.0,0.0
3040,52.0,0,960,13.0,0.0
3041,69.0,0,240,5.0,0.0
3042,73.0,105,120,4.0,0.0
3043,73.0,0,120,10.0,0.0
3044,64.0,0,210,12.0,0.0
3045,71.0,120,120,10.0,0.0
3046,71.0,0,120,4.0,0.0
3047,69.0,120,240,5.0,0.0
3048,73.0,0,120,10.0,0.0
3049,73.0,105,120,4.0,0.0
3050,64.0,0,210,12.0,0.0
3051,69.0,0,210,11.0,0.0
3052,76.0,0,90,10.0,0.0
3053,76.0,15,90,4.0,0.0
3054,69.0,0,210,11.0,0.0
3055,75.0,0,120,4.0,0.0
3056,66.0,120,240,5.0,0.0
3057,66.0,15,210,12.0,0.0
3058,75.0,105,120,10.0,0.0
3059,73.0,0,120,10.0,0.0
3060,73.0,0,120,4.0,0.0
3061,69.0,0,210,11.0,0.0
3062,75.0,0,120,10.0,0.0
3063,75.0,105,120,4.0,0.0
3064,66.0,15,210,12.0,0.0
3065,66.0,0,210,5.0,0.0
3066,78.0,0,90,10.0,0.0
3067,78.0,0,90,4.0,0.0
3068,68.0,0,90,5.0,0.0
3069,71.0,15,90,11.0,0.0
3070,83.0,105,120,10.0,0.0
3071,68.0,0,90,12.0,0.0
3072,83.0,0,120,4.0,0.0
3073,52.0,0,450,13.0,0.0
3074,52.0,0,450,14.0,0.0
3075,69.0,15,90,5.0,0.0
3076,81.0,120,120,10.0,0.0
3077,81.0,0,120,4.0,0.0
3078,73.0,0,90,11.0,0.0
3079,69.0,0,90,12.0,0.0
3080,71.0,0,210,5.0,0.0
3081,74.0,0,210,11.0,0.0
3082,71.0,0,210,12.0,0.0
3083,80.0,105,120,10.0,0.0
3084,80.0,0,120,4.0,0.0
3085,78.0,0,90,4.0,0.0
3086,78.0,120,90,10.0,0.0
3087,76.0,0,210,4.0,0.0
3088,57.0,0,90,13.0,0.0
3089,73.0,0,210,11.0,0.0
3090,76.0,0,240,1.0,0.0
3091,76.0,225,240,0.0,0.0
3092,76.0,0,240,2.0,0.0
3093,73.0,0,210,5.0,0.0
3094,57.0,120,90,14.0,0.0
3095,76.0,0,210,10.0,0.0
3096,73.0,0,210,12.0,0.0
3097,56.0,0,90,13.0,0.0
3098,56.0,15,90,14.0,0.0
3099,57.0,0,210,13.0,0.0
3100,69.0,0,210,12.0,0.0
3101,81.0,0,210,4.0,0.0
3102,76.0,0,210,0.0,0.0
3103,76.0,0,210,1.0,0.0
3104,76.0,0,210,11.0,0.0
3105,81.0,0,210,10.0,0.0
3106,76.0,0,210,5.0,0.0
3107,57.0,120,210,14.0,0.0
3108,76.0,0,210,2.0,0.0
3109,49.0,0,90,14.0,0.0
3110,69.0,0,210,12.0,0.0
3111,49.0,120,90,13.0,0.0
3112,81.0,0,240,0.0,0.0
3113,76.0,0,210,10.0,0.0
3114,81.0,0,240,1.0,0.0
3115,73.0,0,210,11.0,0.0
3116,76.0,15,210,4.0,0.0
3117,69.0,0,240,5.0,0.0
3118,81.0,225,240,2.0,0.0
3119,47.0,0,90,13.0,0.0
3120,47.0,0,90,14.0,0.0
3121,81.0,0,210,2.0,0.0
3122,81.0,0,210,4.0,0.0
3123,81.0,0,210,10.0,0.0
3124,64.0,15,210,12.0,0.0
3125,69.0,0,210,11.0,0.0
3126,81.0,0,210,0.0,0.0
3127,49.0,0,210,14.0,0.0
3128,69.0,30,240,5.0,0.0
3129,49.0,0,210,13.0,0.0
3130,81.0,0,210,1.0,0.0
3131,52.0,15,90,13.0,0.0
3132,73.0,0,30,10.0,0.0
3133,76.0,0,240,1.0,0.0
3134,64.0,0,210,12.0,0.0
3135,69.0,105,240,5.0,0.0
3136,52.0,0,90,14.0,0.0
3137,69.0,0,30,11.0,0.0
3138,76.0,0,240,2.0,0.0
3139,76.0,0,240,0.0,0.0
3140,73.0,30,30,4.0,0.0
3141,74.0,0,30,4.0,0.0
3142,71.0,0,30,11.0,0.0
3143,74.0,30,30,10.0,0.0
3144,69.0,15,30,11.0,0.0
3145,73.0,0,30,10.0,0.0
3146,73.0,0,30,4.0,0.0
3147,74.0,0,30,4.0,0.0
3148,74.0,30,30,10.0,0.0
3149,71.0,0,30,11.0,0.0
3150,73.0,0,30,4.0,0.0
3151,50.0,7,90,13.0,0.0
3152,69.0,30,30,11.0,0.0
3153,50.0,0,90,14.0,0.0
3154,73.0,0,30,10.0,0.0
3155,74.0,0,30,10.0,0.0
3156,71.0,30,30,11.0,0.0
3157,74.0,0,30,4.0,0.0
3158,71.0,0,30,4.0,0.0
3159,71.0,15,30,10.0,0.0
3160,68.0,0,30,11.0,0.0
3161,69.0,0,20,11.0,0.0
3162,73.0,8,20,10.0,0.0
3163,73.0,0,20,4.0,0.0
3164,71.0,0,90,4.0,0.0
3165,62.0,120,90,12.0,0.0
3166,52.0,0,210,14.0,0.0
3167,52.0,0,210,13.0,0.0
3168,68.0,0,210,5.0,0.0
3169,76.0,0,210,2.0,0.0
3170,76.0,0,210,1.0,0.0
3171,76.0,0,210,0.0,0.0
3172,71.0,0,90,10.0,0.0
3173,68.0,0,90,11.0,0.0
3174,73.0,0,90,4.0,0.0
3175,73.0,480,90,10.0,0.0
3176,64.0,0,90,12.0,0.0
3177,69.0,0,90,11.0,0.0
3178,69.0,0,450,5.0,0.0
3179,69.0,0,450,1.0,0.0
3180,69.0,0,450,2.0,0.0
3181,69.0,0,450,0.0,0.0
3182,64.0,120,450,11.0,0.0
3183,45.0,0,450,13.0,0.0
3184,61.0,0,450,12.0,0.0
3185,69.0,0,450,4.0,0.0
3186,45.0,0,450,14.0,0.0
3187,69.0,0,450,10.0,0.0
3188,57.0,0,90,13.0,0.0
3189,69.0,0,90,11.0,0.0
3190,76.0,120,330,0.0,0.0
3191,69.0,0,90,10.0,0.0
3192,57.0,120,90,14.0,0.0
3193,69.0,0,90,12.0,0.0
3194,56.0,120,90,14.0,0.0
3195,68.0,0,90,11.0,0.0
3196,68.0,0,90,12.0,0.0
3197,56.0,0,90,13.0,0.0
3198,68.0,0,90,10.0,0.0
3199,57.0,0,210,14.0,0.0
3200,57.0,0,210,13.0,0.0
3201,69.0,0,210,11.0,0.0
3202,69.0,0,210,12.0,0.0
3203,69.0,120,210,10.0,0.0
3204,81.0,0,90,0.0,0.0
3205,49.0,0,90,13.0,0.0
3206,49.0,120,90,14.0,0.0
3207,61.0,0,90,12.0,0.0
3208,61.0,0,90,11.0,0.0
3209,76.0,120,330,0.0,0.0
3210,61.0,0,90,10.0,0.0
3211,47.0,0,90,13.0,0.0
3212,47.0,0,90,14.0,0.0
3213,59.0,120,90,10.0,0.0
3214,59.0,0,90,11.0,0.0
3215,59.0,0,90,12.0,0.0
3216,61.0,0,210,12.0,0.0
3217,61.0,0,210,10.0,0.0
3218,49.0,0,210,13.0,0.0
3219,61.0,0,210,11.0,0.0
3220,49.0,0,210,14.0,0.0
3221,78.0,120,90,0.0,0.0
3222,52.0,0,90,14.0,0.0
3223,52.0,0,90,13.0,0.0
3224,64.0,120,90,10.0,0.0
3225,64.0,0,90,12.0,0.0
3226,64.0,0,90,11.0,0.0
3227,76.0,0,90,0.0,0.0
3228,62.0,0,90,10.0,0.0
3229,62.0,0,90,11.0,0.0
3230,62.0,0,90,12.0,0.0
3231,78.0,120,90,0.0,0.0
3232,50.0,0,90,13.0,0.0
3233,50.0,0,90,14.0,0.0
3234,52.0,0,210,14.0,0.0
3235,64.0,0,210,10.0,0.0
3236,64.0,0,210,12.0,0.0
3237,64.0,0,210,11.0,0.0
3238,76.0,120,90,0.0,0.0
3239,52.0,45,210,13.0,0.0
3240,78.0,0,90,0.0,0.0
3241,76.0,30,30,0.0,0.0
3242,61.0,0,450,10.0,0.0
3243,45.0,0,480,13.0,0.0
3244,57.0,15,450,12.0,0.0
3245,57.0,0,450,11.0,0.0
3246,45.0,105,480,14.0,0.0
3247,78.0,30,30,0.0,0.0
3248,76.0,30,30,0.0,0.0
3249,78.0,30,30,0.0,0.0
3250,76.0,30,30,0.0,0.0
3251,78.0,30,30,0.0,0.0
3252,76.0,30,30,0.0,0.0
3253,78.0,30,30,0.0,0.0
3254,76.0,30,30,0.0,0.0
3255,78.0,30,30,0.0,0.0
3256,74.0,135,30,0.0,0.0
3257,76.0,0,150,0.0,0.0
3258,76.0,0,210,11.0,0.0
3259,70.0,120,90,12.0,0.0
3260,76.0,0,210,5.0,0.0
3261,79.0,0,210,10.0,0.0
3262,79.0,240,210,4.0,0.0
3263,68.0,0,90,12.0,0.0
3264,74.0,0,450,5.0,0.0
3265,74.0,0,450,11.0,0.0
3266,70.0,120,210,12.0,0.0
3267,78.0,0,450,4.0,0.0
3268,78.0,240,450,10.0,0.0
3269,71.0,120,90,12.0,0.0
3270,70.0,0,90,12.0,0.0
3271,76.0,0,450,4.0,0.0
3272,73.0,0,450,5.0,0.0
3273,71.0,120,210,12.0,0.0
3274,73.0,0,450,11.0,0.0
3275,76.0,0,450,10.0,0.0
3276,64.0,120,90,12.0,0.0
3277,62.0,240,90,12.0,0.0
3278,71.0,30,240,5.0,0.0
3279,71.0,0,450,11.0,0.0
3280,74.0,0,240,4.0,0.0
3281,64.0,15,210,12.0,0.0
3282,74.0,0,240,10.0,0.0
3283,71.0,0,30,5.0,0.0
3284,74.0,30,30,4.0,0.0
3285,74.0,0,30,10.0,0.0
3286,66.0,7,210,12.0,0.0
3287,76.0,0,30,4.0,0.0
3288,76.0,0,30,10.0,0.0
3289,73.0,30,30,5.0,0.0
3290,74.0,0,30,10.0,0.0
3291,71.0,30,30,5.0,0.0
3292,74.0,0,30,4.0,0.0
3293,76.0,0,30,4.0,0.0
3294,76.0,0,30,10.0,0.0
3295,73.0,30,30,5.0,0.0
3296,74.0,0,30,4.0,0.0
3297,74.0,0,30,10.0,0.0
3298,71.0,30,30,5.0,0.0
3299,73.0,30,30,5.0,0.0
3300,76.0,0,30,10.0,0.0
3301,76.0,0,30,4.0,0.0
3302,73.0,0,30,10.0,0.0
3303,70.0,0,30,5.0,0.0
3304,73.0,15,30,4.0,0.0
3305,74.0,0,20,10.0,0.0
3306,71.0,0,20,5.0,0.0
3307,74.0,233,20,4.0,0.0
3308,54.0,120,210,12.0,0.0
3309,70.0,0,210,5.0,0.0
3310,73.0,0,210,4.0,0.0
3311,70.0,0,210,11.0,0.0
3312,73.0,0,210,10.0,0.0
3313,71.0,0,930,11.0,0.0
3314,74.0,0,120,4.0,0.0
3315,71.0,0,930,5.0,0.0
3316,66.0,0,1890,12.0,0.0
3317,78.0,15,330,0.0,0.0
3318,74.0,105,120,10.0,0.0
3319,59.0,0,90,13.0,0.0
3320,59.0,15,90,14.0,0.0
3321,73.0,105,120,4.0,0.0
3322,73.0,0,120,10.0,0.0
3323,58.0,0,90,13.0,0.0
3324,58.0,15,90,14.0,0.0
3325,59.0,0,210,14.0,0.0
3326,74.0,105,120,4.0,0.0
3327,59.0,0,210,13.0,0.0
3328,74.0,0,120,10.0,0.0
3329,78.0,0,90,10.0,0.0
3330,83.0,120,90,0.0,0.0
3331,78.0,0,90,4.0,0.0
3332,78.0,0,120,4.0,0.0
3333,50.0,0,90,14.0,0.0
3334,78.0,105,120,10.0,0.0
3335,78.0,15,330,0.0,0.0
3336,50.0,15,90,13.0,0.0
3337,76.0,0,120,4.0,0.0
3338,49.0,0,90,13.0,0.0
3339,49.0,15,90,14.0,0.0
3340,76.0,105,120,10.0,0.0
3341,78.0,105,120,10.0,0.0
3342,50.0,0,210,14.0,0.0
3343,50.0,0,210,13.0,0.0
3344,78.0,0,120,4.0,0.0
3345,79.0,120,90,0.0,0.0
3346,83.0,0,90,4.0,0.0
3347,83.0,0,90,10.0,0.0
3348,78.0,0,90,0.0,0.0
3349,83.0,120,90,10.0,0.0
3350,83.0,0,90,4.0,0.0
3351,73.0,0,450,5.0,0.0
3352,54.0,0,90,13.0,0.0
3353,54.0,0,90,14.0,0.0
3354,73.0,0,450,11.0,0.0
3355,52.0,0,90,14.0,0.0
3356,79.0,0,90,0.0,0.0
3357,52.0,0,90,13.0,0.0
3358,79.0,0,90,4.0,0.0
3359,79.0,120,90,10.0,0.0
3360,81.0,0,210,10.0,0.0
3361,78.0,120,90,0.0,0.0
3362,54.0,480,210,14.0,0.0
3363,54.0,0,210,13.0,0.0
3364,81.0,0,690,4.0,0.0
3365,79.0,0,90,0.0,0.0
3366,78.0,0,480,0.0,0.0
3367,81.0,0,450,10.0,0.0
3368,47.0,0,480,14.0,0.0
3369,47.0,120,480,13.0,0.0
3370,75.0,0,450,5.0,0.0
3371,75.0,15,450,11.0,0.0
3372,76.0,0,210,11.0,0.0
3373,79.0,0,120,10.0,0.0
3374,64.0,0,210,12.0,0.0
3375,79.0,105,120,4.0,0.0
3376,76.0,15,210,5.0,0.0
3377,78.0,0,120,4.0,0.0
3378,78.0,105,120,10.0,0.0
3379,76.0,0,90,10.0,0.0
3380,70.0,0,210,11.0,0.0
3381,76.0,120,90,4.0,0.0
3382,61.0,0,210,12.0,0.0
3383,70.0,0,210,5.0,0.0
3384,79.0,0,90,10.0,0.0
3385,79.0,240,90,4.0,0.0
3386,71.0,0,210,11.0,0.0
3387,71.0,0,210,5.0,0.0
3388,78.0,240,210,4.0,0.0
3389,62.0,0,210,12.0,0.0
3390,78.0,0,210,10.0,0.0
3391,71.0,0,210,4.0,0.0
3392,55.0,0,210,12.0,0.0
3393,62.0,0,210,5.0,0.0
3394,62.0,240,210,11.0,0.0
3395,71.0,0,210,10.0,0.0
3396,73.0,0,210,10.0,0.0
3397,52.0,0,210,12.0,0.0
3398,67.0,0,210,5.0,0.0
3399,73.0,0,210,4.0,0.0
3400,64.0,240,210,11.0,0.0
3401,66.0,0,210,5.0,0.0
3402,70.0,0,210,4.0,0.0
3403,61.0,0,210,11.0,0.0
3404,70.0,0,210,10.0,0.0
3405,54.0,480,210,12.0,0.0
3406,71.0,0,450,4.0,0.0
3407,71.0,0,450,10.0,0.0
3408,62.0,0,450,11.0,0.0
3409,62.0,0,450,5.0,0.0
3410,59.0,120,450,12.0,0.0
3411,57.0,0,930,12.0,0.0
3412,66.0,120,240,1.0,0.0
3413,66.0,105,120,4.0,0.0
3414,62.0,15,1890,5.0,0.0
3415,62.0,0,240,2.0,0.0
3416,66.0,0,120,10.0,0.0
3417,62.0,0,1890,11.0,0.0
3418,50.0,0,90,13.0,0.0
3419,50.0,15,90,14.0,0.0
3420,69.0,0,240,0.0,0.0
3421,49.0,15,90,13.0,0.0
3422,49.0,0,90,14.0,0.0
3423,64.0,0,120,4.0,0.0
3424,64.0,0,120,10.0,0.0
3425,69.0,0,210,1.0,0.0
3426,74.0,0,210,0.0,0.0
3427,66.0,120,210,2.0,0.0
3428,66.0,0,120,10.0,0.0
3429,50.0,0,210,14.0,0.0
3430,50.0,0,210,13.0,0.0
3431,66.0,105,120,4.0,0.0
3432,67.0,0,90,4.0,0.0
3433,67.0,0,90,10.0,0.0
3434,66.0,120,240,2.0,0.0
3435,69.0,0,120,10.0,0.0
3436,42.0,15,90,14.0,0.0
3437,74.0,0,240,0.0,0.0
3438,69.0,105,120,4.0,0.0
3439,42.0,0,90,13.0,0.0
3440,69.0,0,240,1.0,0.0
3441,40.0,0,90,13.0,0.0
3442,40.0,15,90,14.0,0.0
3443,67.0,0,120,10.0,0.0
3444,67.0,0,120,4.0,0.0
3445,69.0,0,210,2.0,0.0
3446,42.0,0,210,14.0,0.0
3447,69.0,105,120,10.0,0.0
3448,78.0,0,210,0.0,0.0
3449,69.0,0,120,4.0,0.0
3450,42.0,120,210,13.0,0.0
3451,74.0,0,210,1.0,0.0
3452,71.0,0,90,10.0,0.0
3453,71.0,0,90,4.0,0.0
3454,45.0,15,90,13.0,0.0
3455,74.0,0,240,1.0,0.0
3456,78.0,120,240,0.0,0.0
3457,45.0,0,90,14.0,0.0
3458,72.0,105,120,4.0,0.0
3459,72.0,0,120,10.0,0.0
3460,69.0,0,240,2.0,0.0
3461,54.0,0,930,12.0,0.0
3462,43.0,15,90,14.0,0.0
3463,43.0,0,90,13.0,0.0
3464,71.0,0,120,10.0,0.0
3465,71.0,0,120,4.0,0.0
3466,78.0,135,210,1.0,0.0
3467,72.0,105,120,10.0,0.0
3468,45.0,0,210,14.0,0.0
3469,81.0,0,210,0.0,0.0
3470,45.0,0,210,13.0,0.0
3471,74.0,0,210,2.0,0.0
3472,72.0,0,120,4.0,0.0
3473,74.0,0,90,10.0,0.0
3474,74.0,0,90,4.0,0.0
3475,78.0,0,480,1.0,0.0
3476,72.0,0,120,10.0,0.0
3477,38.0,0,480,14.0,0.0
3478,74.0,0,480,2.0,0.0
3479,81.0,0,480,0.0,0.0
3480,38.0,120,480,13.0,0.0
3481,72.0,120,120,4.0,0.0
3482,71.0,0,120,10.0,0.0
3483,71.0,105,120,4.0,0.0
3484,72.0,120,90,10.0,0.0
3485,72.0,0,90,4.0,0.0
3486,78.0,0,90,4.0,0.0
3487,78.0,0,90,10.0,0.0
3488,69.0,0,210,5.0,0.0
3489,66.0,0,210,12.0,0.0
3490,72.0,105,120,10.0,0.0
3491,72.0,0,120,4.0,0.0
3492,69.0,15,210,11.0,0.0
3493,71.0,0,120,10.0,0.0
3494,71.0,105,120,4.0,0.0
3495,69.0,0,450,5.0,0.0
3496,72.0,120,90,4.0,0.0
3497,62.0,135,210,12.0,0.0
3498,72.0,0,90,10.0,0.0
3499,69.0,0,210,11.0,0.0
3500,81.0,0,90,10.0,0.0
3501,81.0,0,90,4.0,0.0
3502,71.0,0,120,4.0,0.0
3503,67.0,15,210,12.0,0.0
3504,71.0,105,120,10.0,0.0
3505,69.0,0,210,11.0,0.0
3506,69.0,0,120,4.0,0.0
3507,69.0,105,120,10.0,0.0
3508,71.0,0,90,4.0,0.0
3509,64.0,0,210,12.0,0.0
3510,67.0,0,90,5.0,0.0
3511,71.0,0,90,10.0,0.0
3512,67.0,120,90,11.0,0.0
3513,66.0,120,90,5.0,0.0
3514,81.0,0,90,10.0,0.0
3515,66.0,0,90,11.0,0.0
3516,81.0,0,90,4.0,0.0
3517,79.0,0,90,10.0,0.0
3518,61.0,0,210,12.0,0.0
3519,64.0,0,210,11.0,0.0
3520,79.0,120,90,4.0,0.0
3521,64.0,0,210,5.0,0.0
3522,78.0,0,90,10.0,0.0
3523,78.0,120,90,4.0,0.0
3524,69.0,135,210,5.0,0.0
3525,76.0,120,90,10.0,0.0
3526,69.0,0,210,11.0,0.0
3527,76.0,0,90,4.0,0.0
3528,62.0,0,210,12.0,0.0
3529,74.0,0,90,4.0,0.0
3530,74.0,0,90,10.0,0.0
3531,73.0,15,210,10.0,0.0
3532,69.0,0,120,5.0,0.0
3533,69.0,105,120,11.0,0.0
3534,73.0,0,210,4.0,0.0
3535,57.0,0,210,12.0,0.0
3536,67.0,0,120,11.0,0.0
3537,67.0,105,120,5.0,0.0
3538,69.0,0,210,10.0,0.0
3539,66.0,105,120,5.0,0.0
3540,66.0,0,120,11.0,0.0
3541,59.0,15,90,12.0,0.0
3542,69.0,0,210,4.0,0.0
3543,61.0,0,90,12.0,0.0
3544,64.0,0,90,11.0,0.0
3545,64.0,120,90,5.0,0.0
3546,78.0,0,120,4.0,0.0
3547,62.0,15,90,12.0,0.0
3548,62.0,0,210,5.0,0.0
3549,78.0,105,120,10.0,0.0
3550,62.0,15,210,11.0,0.0
3551,76.0,0,120,10.0,0.0
3552,76.0,105,120,4.0,0.0
3553,61.0,0,90,12.0,0.0
3554,62.0,0,210,5.0,0.0
3555,74.0,105,120,4.0,0.0
3556,74.0,0,120,10.0,0.0
3557,62.0,0,210,11.0,0.0
3558,59.0,15,90,12.0,0.0
3559,57.0,120,90,12.0,0.0
3560,73.0,0,90,10.0,0.0
3561,73.0,0,90,4.0,0.0
3562,71.0,120,210,4.0,0.0
3563,62.0,120,90,11.0,0.0
3564,55.0,0,210,12.0,0.0
3565,62.0,0,90,5.0,0.0
3566,71.0,0,210,10.0,0.0
3567,64.0,0,90,5.0,0.0
3568,64.0,0,90,11.0,0.0
3569,71.0,120,210,10.0,0.0
3570,71.0,0,210,4.0,0.0
3571,62.0,0,210,12.0,0.0
3572,66.0,0,90,11.0,0.0
3573,66.0,120,90,5.0,0.0
3574,62.0,0,90,11.0,0.0
3575,62.0,0,90,5.0,0.0
3576,64.0,0,210,12.0,0.0
3577,67.0,0,210,5.0,0.0
3578,71.0,105,120,4.0,0.0
3579,67.0,15,210,11.0,0.0
3580,71.0,15,90,10.0,0.0
3581,73.0,0,90,10.0,0.0
3582,73.0,105,120,4.0,0.0
3583,67.0,0,210,5.0,0.0
3584,59.0,0,210,12.0,0.0
3585,67.0,120,210,11.0,0.0
3586,74.0,15,90,10.0,0.0
3587,74.0,105,120,4.0,0.0
3588,71.0,0,90,10.0,0.0
3589,71.0,0,90,4.0,0.0
3590,67.0,0,450,5.0,0.0
3591,61.0,15,90,12.0,0.0
3592,76.0,0,120,10.0,0.0
3593,76.0,105,120,4.0,0.0
3594,67.0,0,450,11.0,0.0
3595,74.0,0,120,10.0,0.0
3596,74.0,105,120,4.0,0.0
3597,59.0,15,90,12.0,0.0
3598,73.0,105,120,4.0,0.0
3599,57.0,15,90,12.0,0.0
3600,73.0,0,120,10.0,0.0
3601,71.0,0,90,4.0,0.0
3602,55.0,0,90,12.0,0.0
3603,71.0,120,90,10.0,0.0
3604,57.0,0,210,12.0,0.0
3605,74.0,0,240,0.0,0.0
3606,50.0,0,90,14.0,0.0
3607,74.0,0,240,1.0,0.0
3608,69.0,15,210,10.0,0.0
3609,50.0,120,90,13.0,0.0
3610,74.0,225,240,2.0,0.0
3611,69.0,0,210,4.0,0.0
3612,66.0,0,210,5.0,0.0
3613,66.0,0,210,11.0,0.0
3614,49.0,0,90,13.0,0.0
3615,49.0,0,90,14.0,0.0
3616,74.0,0,210,0.0,0.0
3617,69.0,0,210,11.0,0.0
3618,74.0,0,210,2.0,0.0
3619,69.0,0,210,5.0,0.0
3620,54.0,120,210,12.0,0.0
3621,74.0,0,210,1.0,0.0
3622,74.0,0,210,4.0,0.0
3623,50.0,0,210,13.0,0.0
3624,50.0,0,210,14.0,0.0
3625,74.0,0,210,10.0,0.0
3626,69.0,0,210,10.0,0.0
3627,69.0,0,210,5.0,0.0
3628,66.0,0,240,0.0,0.0
3629,66.0,225,240,2.0,0.0
3630,42.0,0,90,14.0,0.0
3631,42.0,120,90,13.0,0.0
3632,66.0,0,240,1.0,0.0
3633,50.0,0,210,12.0,0.0
3634,69.0,0,210,4.0,0.0
3635,66.0,0,210,11.0,0.0
3636,40.0,0,90,14.0,0.0
3637,40.0,15,90,13.0,0.0
3638,42.0,0,210,13.0,0.0
3639,66.0,0,210,1.0,0.0
3640,66.0,0,210,2.0,0.0
3641,62.0,0,210,11.0,0.0
3642,57.0,0,210,12.0,0.0
3643,66.0,0,210,5.0,0.0
3644,74.0,45,210,10.0,0.0
3645,74.0,0,210,4.0,0.0
3646,66.0,0,210,0.0,0.0
3647,42.0,0,210,14.0,0.0
3648,66.0,0,30,4.0,0.0
3649,69.0,105,240,2.0,0.0
3650,57.0,0,210,12.0,0.0
3651,45.0,15,90,13.0,0.0
3652,62.0,0,210,11.0,0.0
3653,66.0,0,30,10.0,0.0
3654,45.0,0,90,14.0,0.0
3655,69.0,0,240,0.0,0.0
3656,66.0,30,30,5.0,0.0
3657,69.0,0,240,1.0,0.0
3658,67.0,0,30,10.0,0.0
3659,67.0,30,30,5.0,0.0
3660,67.0,0,30,4.0,0.0
3661,66.0,15,30,4.0,0.0
3662,66.0,0,30,10.0,0.0
3663,66.0,0,30,5.0,0.0
3664,67.0,30,30,5.0,0.0
3665,67.0,0,30,4.0,0.0
3666,67.0,0,30,10.0,0.0
3667,43.0,7,90,14.0,0.0
3668,66.0,0,30,5.0,0.0
3669,43.0,0,90,13.0,0.0
3670,66.0,30,30,4.0,0.0
3671,66.0,0,30,10.0,0.0
3672,67.0,0,30,4.0,0.0
3673,67.0,30,30,5.0,0.0
3674,67.0,0,30,10.0,0.0
3675,64.0,0,30,4.0,0.0
3676,64.0,0,30,10.0,0.0
3677,64.0,15,30,5.0,0.0
3678,66.0,8,20,5.0,0.0
3679,66.0,0,20,10.0,0.0
3680,66.0,0,20,4.0,0.0
3681,55.0,0,90,12.0,0.0
3682,69.0,0,210,0.0,0.0
3683,45.0,480,210,13.0,0.0
3684,64.0,0,90,4.0,0.0
3685,45.0,0,210,14.0,0.0
3686,69.0,0,210,1.0,0.0
3687,69.0,0,210,2.0,0.0
3688,64.0,120,90,10.0,0.0
3689,61.0,0,90,11.0,0.0
3690,64.0,0,90,5.0,0.0
3691,66.0,0,90,4.0,0.0
3692,66.0,0,90,5.0,0.0
3693,66.0,0,90,10.0,0.0
3694,57.0,0,90,12.0,0.0
3695,62.0,0,90,11.0,0.0
3696,62.0,0,450,4.0,0.0
3697,62.0,0,450,5.0,0.0
3698,62.0,0,450,1.0,0.0
3699,62.0,0,450,2.0,0.0
3700,38.0,0,450,13.0,0.0
3701,54.0,0,450,12.0,0.0
3702,62.0,0,450,0.0,0.0
3703,62.0,0,450,10.0,0.0
3704,38.0,0,450,14.0,0.0
3705,57.0,120,450,11.0,0.0
3706,57.0,0,90,13.0,0.0
3707,57.0,0,90,14.0,0.0
3708,76.0,120,330,0.0,0.0
3709,69.0,0,90,12.0,0.0
3710,69.0,120,90,10.0,0.0
3711,69.0,0,90,11.0,0.0
3712,68.0,0,90,10.0,0.0
3713,68.0,0,90,11.0,0.0
3714,56.0,0,90,14.0,0.0
3715,68.0,0,90,12.0,0.0
3716,56.0,120,90,13.0,0.0
3717,69.0,0,210,12.0,0.0
3718,57.0,0,210,14.0,0.0
3719,69.0,0,210,10.0,0.0
3720,69.0,120,210,11.0,0.0
3721,57.0,0,210,13.0,0.0
3722,81.0,0,90,0.0,0.0
3723,61.0,0,90,11.0,0.0
3724,49.0,0,90,14.0,0.0
3725,49.0,0,90,13.0,0.0
3726,61.0,120,90,10.0,0.0
3727,76.0,120,330,0.0,0.0
3728,61.0,0,90,12.0,0.0
3729,47.0,120,90,14.0,0.0
3730,59.0,0,90,12.0,0.0
3731,59.0,0,90,10.0,0.0
3732,47.0,0,90,13.0,0.0
3733,59.0,0,90,11.0,0.0
3734,49.0,0,210,13.0,0.0
3735,61.0,0,210,10.0,0.0
3736,61.0,0,210,11.0,0.0
3737,49.0,0,210,14.0,0.0
3738,61.0,0,210,12.0,0.0
3739,78.0,120,90,0.0,0.0
3740,64.0,0,90,12.0,0.0
3741,64.0,0,90,11.0,0.0
3742,52.0,0,90,13.0,0.0
3743,52.0,0,90,14.0,0.0
3744,64.0,120,90,10.0,0.0
3745,76.0,0,90,0.0,0.0
3746,62.0,0,90,12.0,0.0
3747,50.0,0,90,14.0,0.0
3748,62.0,0,90,11.0,0.0
3749,78.0,120,90,0.0,0.0
3750,50.0,0,90,13.0,0.0
3751,62.0,0,90,10.0,0.0
3752,52.0,0,210,13.0,0.0
3753,64.0,0,210,10.0,0.0
3754,52.0,0,210,14.0,0.0
3755,76.0,120,90,0.0,0.0
3756,64.0,0,210,12.0,0.0
3757,64.0,0,210,11.0,0.0
3758,78.0,45,90,0.0,0.0
3759,45.0,0,480,14.0,0.0
3760,61.0,0,450,10.0,0.0
3761,45.0,0,480,13.0,0.0
3762,57.0,0,450,11.0,0.0
3763,76.0,30,30,0.0,0.0
3764,57.0,15,450,12.0,0.0
3765,78.0,30,30,0.0,0.0
3766,76.0,30,30,0.0,0.0
3767,78.0,30,30,0.0,0.0
3768,76.0,30,30,0.0,0.0
3769,78.0,30,30,0.0,0.0
3770,76.0,30,30,0.0,0.0
3771,78.0,30,30,0.0,0.0
3772,76.0,30,30,0.0,0.0
3773,78.0,30,30,0.0,0.0
3774,74.0,135,30,0.0,0.0
3775,76.0,105,150,0.0,0.0
3776,79.0,0,210,10.0,0.0
3777,70.0,120,90,12.0,0.0
3778,76.0,240,210,5.0,0.0
3779,76.0,0,210,11.0,0.0
3780,79.0,0,210,4.0,0.0
3781,68.0,0,90,12.0,0.0
3782,78.0,0,450,4.0,0.0
3783,74.0,0,450,11.0,0.0
3784,74.0,0,450,5.0,0.0
3785,70.0,120,210,12.0,0.0
3786,78.0,0,450,10.0,0.0
3787,71.0,120,90,12.0,0.0
3788,70.0,240,90,12.0,0.0
3789,73.0,0,450,11.0,0.0
3790,76.0,0,450,10.0,0.0
3791,71.0,120,210,12.0,0.0
3792,76.0,240,450,4.0,0.0
3793,73.0,0,450,5.0,0.0
3794,64.0,120,90,12.0,0.0
3795,62.0,0,90,12.0,0.0
3796,71.0,30,240,5.0,0.0
3797,74.0,0,240,10.0,0.0
3798,74.0,0,240,4.0,0.0
3799,71.0,0,450,11.0,0.0
3800,64.0,15,210,12.0,0.0
3801,74.0,0,30,10.0,0.0
3802,71.0,30,30,5.0,0.0
3803,74.0,0,30,4.0,0.0
3804,66.0,7,210,12.0,0.0
3805,73.0,0,30,5.0,0.0
3806,76.0,0,30,10.0,0.0
3807,76.0,30,30,4.0,0.0
3808,71.0,30,30,5.0,0.0
3809,74.0,0,30,10.0,0.0
3810,74.0,0,30,4.0,0.0
3811,76.0,0,30,10.0,0.0
3812,73.0,0,30,5.0,0.0
3813,76.0,30,30,4.0,0.0
3814,71.0,30,30,5.0,0.0
3815,74.0,0,30,10.0,0.0
3816,74.0,0,30,4.0,0.0
3817,76.0,30,30,4.0,0.0
3818,76.0,0,30,10.0,0.0
3819,73.0,0,30,5.0,0.0
3820,73.0,0,30,10.0,0.0
3821,73.0,0,30,4.0,0.0
3822,70.0,15,30,5.0,0.0
3823,74.0,233,20,4.0,0.0
3824,74.0,0,20,10.0,0.0
3825,71.0,0,20,5.0,0.0
3826,54.0,120,210,12.0,0.0
3827,70.0,0,210,5.0,0.0
3828,73.0,0,210,10.0,0.0
3829,70.0,0,210,11.0,0.0
3830,73.0,0,210,4.0,0.0
3831,66.0,0,1890,12.0,0.0
3832,71.0,0,930,11.0,0.0
3833,71.0,0,930,5.0,0.0
3834,59.0,15,90,14.0,0.0
3835,78.0,15,330,0.0,0.0
3836,74.0,105,120,4.0,0.0
3837,59.0,0,90,13.0,0.0
3838,74.0,0,120,10.0,0.0
3839,73.0,0,120,10.0,0.0
3840,58.0,0,90,13.0,0.0
3841,58.0,15,90,14.0,0.0
3842,73.0,105,120,4.0,0.0
3843,59.0,0,210,13.0,0.0
3844,74.0,105,120,10.0,0.0
3845,74.0,0,120,4.0,0.0
3846,59.0,120,210,14.0,0.0
3847,83.0,0,90,0.0,0.0
3848,78.0,0,90,4.0,0.0
3849,78.0,0,90,10.0,0.0
3850,50.0,0,90,13.0,0.0
3851,50.0,15,90,14.0,0.0
3852,78.0,0,120,4.0,0.0
3853,78.0,15,330,0.0,0.0
3854,78.0,105,120,10.0,0.0
3855,76.0,0,120,4.0,0.0
3856,49.0,0,90,14.0,0.0
3857,76.0,105,120,10.0,0.0
3858,49.0,15,90,13.0,0.0
3859,50.0,0,210,13.0,0.0
3860,50.0,0,210,14.0,0.0
3861,78.0,105,120,4.0,0.0
3862,78.0,0,120,10.0,0.0
3863,83.0,0,90,10.0,0.0
3864,83.0,0,90,4.0,0.0
3865,79.0,120,90,0.0,0.0
3866,78.0,0,90,0.0,0.0
3867,73.0,0,450,11.0,0.0
3868,83.0,120,90,4.0,0.0
3869,83.0,0,90,10.0,0.0
3870,73.0,480,450,5.0,0.0
3871,54.0,0,90,13.0,0.0
3872,54.0,0,90,14.0,0.0
3873,52.0,0,90,13.0,0.0
3874,79.0,0,90,10.0,0.0
3875,79.0,120,90,4.0,0.0
3876,79.0,0,90,0.0,0.0
3877,52.0,0,90,14.0,0.0
3878,81.0,0,210,10.0,0.0
3879,78.0,120,90,0.0,0.0
3880,54.0,0,210,14.0,0.0
3881,81.0,0,690,4.0,0.0
3882,54.0,0,210,13.0,0.0
3883,79.0,0,90,0.0,0.0
3884,78.0,0,480,0.0,0.0
3885,47.0,120,480,13.0,0.0
3886,47.0,0,480,14.0,0.0
3887,75.0,15,450,11.0,0.0
3888,75.0,0,450,5.0,0.0
3889,81.0,0,450,10.0,0.0
3890,64.0,0,210,12.0,0.0
3891,79.0,0,120,10.0,0.0
3892,76.0,15,210,11.0,0.0
3893,79.0,105,120,4.0,0.0
3894,76.0,0,210,5.0,0.0
3895,78.0,0,120,4.0,0.0
3896,78.0,105,120,10.0,0.0
3897,70.0,0,210,5.0,0.0
3898,76.0,0,90,4.0,0.0
3899,61.0,0,210,12.0,0.0
3900,70.0,0,210,11.0,0.0
3901,76.0,120,90,10.0,0.0
3902,79.0,0,90,4.0,0.0
3903,79.0,240,90,10.0,0.0
3904,71.0,240,210,11.0,0.0
3905,78.0,0,210,10.0,0.0
3906,78.0,0,210,4.0,0.0
3907,71.0,0,210,5.0,0.0
3908,62.0,0,210,12.0,0.0
3909,55.0,0,210,12.0,0.0
3910,71.0,0,210,10.0,0.0
3911,62.0,0,210,5.0,0.0
3912,71.0,0,210,4.0,0.0
3913,62.0,240,210,11.0,0.0
3914,64.0,0,210,11.0,0.0
3915,73.0,0,210,10.0,0.0
3916,67.0,240,210,5.0,0.0
3917,73.0,0,210,4.0,0.0
3918,52.0,0,210,12.0,0.0
3919,70.0,0,210,10.0,0.0
3920,61.0,480,210,11.0,0.0
3921,70.0,0,210,4.0,0.0
3922,54.0,0,210,12.0,0.0
3923,66.0,0,210,5.0,0.0
3924,59.0,0,450,12.0,0.0
3925,71.0,0,450,10.0,0.0
3926,62.0,0,450,5.0,0.0
3927,62.0,120,450,11.0,0.0
3928,71.0,0,450,4.0,0.0
3929,62.0,0,1890,11.0,0.0
3930,66.0,105,120,10.0,0.0
3931,66.0,0,120,4.0,0.0
3932,57.0,0,930,12.0,0.0
3933,62.0,0,1890,5.0,0.0
3934,50.0,0,90,13.0,0.0
3935,69.0,0,240,0.0,0.0
3936,62.0,0,240,2.0,0.0
3937,66.0,0,240,1.0,0.0
3938,50.0,15,90,14.0,0.0
3939,64.0,120,120,4.0,0.0
3940,49.0,15,90,14.0,0.0
3941,64.0,0,120,10.0,0.0
3942,49.0,0,90,13.0,0.0
3943,50.0,0,210,14.0,0.0
3944,66.0,105,120,10.0,0.0
3945,69.0,0,210,1.0,0.0
3946,74.0,0,210,0.0,0.0
3947,50.0,0,210,13.0,0.0
3948,66.0,0,120,4.0,0.0
3949,66.0,120,210,2.0,0.0
3950,67.0,0,90,4.0,0.0
3951,67.0,0,90,10.0,0.0
3952,74.0,0,240,0.0,0.0
3953,69.0,0,120,10.0,0.0
3954,42.0,15,90,13.0,0.0
3955,69.0,105,120,4.0,0.0
3956,69.0,0,240,1.0,0.0
3957,42.0,0,90,14.0,0.0
3958,66.0,0,240,2.0,0.0
3959,67.0,0,120,4.0,0.0
3960,67.0,120,120,10.0,0.0
3961,40.0,0,90,13.0,0.0
3962,40.0,15,90,14.0,0.0
3963,69.0,105,120,4.0,0.0
3964,69.0,0,210,2.0,0.0
3965,42.0,120,210,14.0,0.0
3966,74.0,0,210,1.0,0.0
3967,69.0,0,120,10.0,0.0
3968,78.0,0,210,0.0,0.0
3969,42.0,0,210,13.0,0.0
3970,71.0,0,90,10.0,0.0
3971,71.0,0,90,4.0,0.0
3972,45.0,0,90,13.0,0.0
3973,74.0,120,240,1.0,0.0
3974,78.0,0,240,0.0,0.0
3975,54.0,0,930,12.0,0.0
3976,45.0,15,90,14.0,0.0
3977,72.0,105,120,10.0,0.0
3978,69.0,0,240,2.0,0.0
3979,72.0,0,120,4.0,0.0
3980,71.0,0,120,4.0,0.0
3981,71.0,0,120,10.0,0.0
3982,43.0,0,90,13.0,0.0
3983,43.0,15,90,14.0,0.0
3984,45.0,0,210,14.0,0.0
3985,72.0,105,120,10.0,0.0
3986,81.0,135,210,0.0,0.0
3987,74.0,0,210,2.0,0.0
3988,78.0,0,210,1.0,0.0
3989,72.0,0,120,4.0,0.0
3990,45.0,0,210,13.0,0.0
3991,74.0,0,90,4.0,0.0
3992,74.0,0,90,10.0,0.0
3993,72.0,120,120,10.0,0.0
3994,38.0,0,480,14.0,0.0
3995,38.0,120,480,13.0,0.0
3996,78.0,0,480,1.0,0.0
3997,74.0,0,480,2.0,0.0
3998,81.0,0,480,0.0,0.0
3999,72.0,0,120,4.0,0.0
4000,71.0,105,120,4.0,0.0
4001,71.0,0,120,10.0,0.0
4002,72.0,0,90,10.0,0.0
4003,72.0,120,90,4.0,0.0
4004,78.0,0,90,4.0,0.0
4005,78.0,15,90,10.0,0.0
4006,69.0,0,210,11.0,0.0
4007,72.0,0,120,10.0,0.0
4008,66.0,15,210,12.0,0.0
4009,72.0,105,120,4.0,0.0
4010,69.0,0,210,5.0,0.0
4011,71.0,0,120,10.0,0.0
4012,71.0,105,120,4.0,0.0
4013,72.0,0,90,10.0,0.0
4014,62.0,0,210,12.0,0.0
4015,69.0,0,450,5.0,0.0
4016,72.0,120,90,4.0,0.0
4017,69.0,0,210,11.0,0.0
4018,81.0,0,90,4.0,0.0
4019,81.0,135,90,10.0,0.0
4020,71.0,105,120,4.0,0.0
4021,67.0,0,210,12.0,0.0
4022,69.0,15,210,11.0,0.0
4023,71.0,0,120,10.0,0.0
4024,69.0,0,120,4.0,0.0
4025,69.0,105,120,10.0,0.0
4026,64.0,0,210,12.0,0.0
4027,71.0,0,90,4.0,0.0
4028,67.0,0,90,5.0,0.0
4029,71.0,0,90,10.0,0.0
4030,67.0,120,90,11.0,0.0
4031,66.0,0,90,11.0,0.0
4032,81.0,0,90,4.0,0.0
4033,66.0,0,90,5.0,0.0
4034,81.0,120,90,10.0,0.0
4035,64.0,0,210,11.0,0.0
4036,79.0,0,90,4.0,0.0
4037,64.0,0,210,5.0,0.0
4038,61.0,0,210,12.0,0.0
4039,79.0,120,90,10.0,0.0
4040,78.0,120,90,10.0,0.0
4041,78.0,0,90,4.0,0.0
4042,76.0,120,90,10.0,0.0
4043,76.0,0,90,4.0,0.0
4044,69.0,0,210,5.0,0.0
4045,69.0,0,210,11.0,0.0
4046,62.0,135,210,12.0,0.0
4047,74.0,0,90,4.0,0.0
4048,74.0,0,90,10.0,0.0
4049,73.0,0,210,4.0,0.0
4050,69.0,0,120,5.0,0.0
4051,73.0,0,210,10.0,0.0
4052,57.0,15,210,12.0,0.0
4053,69.0,105,120,11.0,0.0
4054,67.0,0,120,11.0,0.0
4055,67.0,105,120,5.0,0.0
4056,66.0,105,120,11.0,0.0
4057,69.0,0,210,10.0,0.0
4058,66.0,0,120,5.0,0.0
4059,69.0,0,210,4.0,0.0
4060,59.0,15,90,12.0,0.0
4061,64.0,0,90,5.0,0.0
4062,61.0,120,90,12.0,0.0
4063,64.0,0,90,11.0,0.0
4064,62.0,0,210,11.0,0.0
4065,62.0,15,210,5.0,0.0
4066,62.0,15,90,12.0,0.0
4067,78.0,105,120,4.0,0.0
4068,78.0,0,120,10.0,0.0
4069,76.0,105,120,4.0,0.0
4070,76.0,0,120,10.0,0.0
4071,61.0,0,90,12.0,0.0
4072,59.0,15,90,12.0,0.0
4073,74.0,0,120,4.0,0.0
4074,62.0,0,210,11.0,0.0
4075,62.0,0,210,5.0,0.0
4076,74.0,105,120,10.0,0.0
4077,57.0,0,90,12.0,0.0
4078,73.0,0,90,4.0,0.0
4079,73.0,120,90,10.0,0.0
4080,62.0,120,90,11.0,0.0
4081,71.0,0,210,4.0,0.0
4082,71.0,0,210,10.0,0.0
4083,62.0,0,90,5.0,0.0
4084,55.0,120,210,12.0,0.0
4085,64.0,0,90,11.0,0.0
4086,64.0,0,90,5.0,0.0
4087,71.0,120,210,4.0,0.0
4088,66.0,0,90,11.0,0.0
4089,71.0,0,210,10.0,0.0
4090,66.0,120,90,5.0,0.0
4091,62.0,0,210,12.0,0.0
4092,62.0,0,90,5.0,0.0
4093,62.0,0,90,11.0,0.0
4094,71.0,105,120,4.0,0.0
4095,67.0,0,210,11.0,0.0
4096,71.0,15,90,10.0,0.0
4097,64.0,15,210,12.0,0.0
4098,67.0,0,210,5.0,0.0
4099,73.0,0,90,10.0,0.0
4100,73.0,105,120,4.0,0.0
4101,67.0,0,210,11.0,0.0
4102,67.0,0,210,5.0,0.0
4103,59.0,0,210,12.0,0.0
4104,74.0,105,120,4.0,0.0
4105,74.0,15,90,10.0,0.0
4106,71.0,0,90,10.0,0.0
4107,71.0,120,90,4.0,0.0
4108,61.0,15,90,12.0,0.0
4109,76.0,105,120,10.0,0.0
4110,76.0,0,120,4.0,0.0
4111,67.0,0,450,11.0,0.0
4112,67.0,0,450,5.0,0.0
4113,74.0,105,120,10.0,0.0
4114,74.0,0,120,4.0,0.0
4115,59.0,15,90,12.0,0.0
4116,57.0,15,90,12.0,0.0
4117,73.0,105,120,10.0,0.0
4118,73.0,0,120,4.0,0.0
4119,71.0,120,90,4.0,0.0
4120,55.0,0,90,12.0,0.0
4121,71.0,0,90,10.0,0.0
4122,74.0,0,240,2.0,0.0
4123,57.0,0,210,12.0,0.0
4124,74.0,225,240,1.0,0.0
4125,69.0,0,210,10.0,0.0
4126,74.0,0,240,0.0,0.0
4127,50.0,120,90,14.0,0.0
4128,69.0,0,210,4.0,0.0
4129,50.0,0,90,13.0,0.0
4130,66.0,0,210,11.0,0.0
4131,66.0,0,210,5.0,0.0
4132,49.0,15,90,13.0,0.0
4133,49.0,0,90,14.0,0.0
4134,69.0,0,210,5.0,0.0
4135,74.0,0,210,10.0,0.0
4136,50.0,0,210,13.0,0.0
4137,74.0,0,210,4.0,0.0
4138,74.0,0,210,0.0,0.0
4139,69.0,0,210,11.0,0.0
4140,54.0,0,210,12.0,0.0
4141,74.0,0,210,2.0,0.0
4142,50.0,120,210,14.0,0.0
4143,74.0,0,210,1.0,0.0
4144,42.0,0,90,13.0,0.0
4145,69.0,15,210,4.0,0.0
4146,66.0,0,240,0.0,0.0
4147,42.0,120,90,14.0,0.0
4148,66.0,225,240,1.0,0.0
4149,69.0,0,210,5.0,0.0
4150,50.0,0,210,12.0,0.0
4151,66.0,0,240,2.0,0.0
4152,66.0,0,210,11.0,0.0
4153,69.0,0,210,10.0,0.0
4154,40.0,0,90,13.0,0.0
4155,40.0,0,90,14.0,0.0
4156,57.0,0,210,12.0,0.0
4157,66.0,0,210,5.0,0.0
4158,42.0,0,210,13.0,0.0
4159,74.0,45,210,4.0,0.0
4160,74.0,0,210,10.0,0.0
4161,42.0,0,210,14.0,0.0
4162,66.0,0,210,1.0,0.0
4163,66.0,0,210,2.0,0.0
4164,62.0,0,210,11.0,0.0
4165,66.0,0,210,0.0,0.0
4166,66.0,30,30,10.0,0.0
4167,66.0,0,30,4.0,0.0
4168,69.0,105,240,2.0,0.0
4169,62.0,0,210,11.0,0.0
4170,69.0,0,240,0.0,0.0
4171,45.0,15,90,14.0,0.0
4172,57.0,0,210,12.0,0.0
4173,45.0,0,90,13.0,0.0
4174,69.0,0,240,1.0,0.0
4175,66.0,0,30,5.0,0.0
4176,67.0,0,30,10.0,0.0
4177,67.0,30,30,4.0,0.0
4178,67.0,0,30,5.0,0.0
4179,66.0,15,30,10.0,0.0
4180,66.0,0,30,4.0,0.0
4181,66.0,0,30,5.0,0.0
4182,67.0,0,30,5.0,0.0
4183,67.0,30,30,10.0,0.0
4184,67.0,0,30,4.0,0.0
4185,43.0,7,90,14.0,0.0
4186,43.0,0,90,13.0,0.0
4187,66.0,30,30,10.0,0.0
4188,66.0,0,30,5.0,0.0
4189,66.0,0,30,4.0,0.0
4190,67.0,30,30,4.0,0.0
4191,67.0,0,30,5.0,0.0
4192,67.0,0,30,10.0,0.0
4193,64.0,0,30,10.0,0.0
4194,64.0,15,30,4.0,0.0
4195,64.0,0,30,5.0,0.0
4196,66.0,0,20,10.0,0.0
4197,66.0,0,20,4.0,0.0
4198,66.0,8,20,5.0,0.0
4199,64.0,0,90,4.0,0.0
4200,45.0,480,210,13.0,0.0
4201,69.0,0,210,1.0,0.0
4202,61.0,120,90,11.0,0.0
4203,69.0,0,210,0.0,0.0
4204,64.0,0,90,5.0,0.0
4205,55.0,0,90,12.0,0.0
4206,64.0,0,90,10.0,0.0
4207,69.0,0,210,2.0,0.0
4208,45.0,0,210,14.0,0.0
4209,57.0,0,90,12.0,0.0
4210,66.0,0,90,10.0,0.0
4211,66.0,0,90,4.0,0.0
4212,66.0,0,90,5.0,0.0
4213,62.0,0,90,11.0,0.0
4214,62.0,0,450,10.0,0.0
4215,62.0,0,450,4.0,0.0
4216,62.0,480,450,5.0,0.0
4217,62.0,0,450,0.0,0.0
4218,62.0,0,450,1.0,0.0
4219,62.0,0,450,2.0,0.0
4220,38.0,0,450,14.0,0.0
4221,38.0,0,450,13.0,0.0
4222,54.0,0,450,12.0,0.0
4223,57.0,0,450,11.0,0.0
4224,66.0,0,210,11.0,0.0
4225,69.0,0,210,5.0,0.0
4226,69.0,0,210,10.0,0.0
4227,69.0,0,210,4.0,0.0
4228,50.0,105,240,3.0,0.0
4229,62.0,15,210,12.0,0.0
4230,62.0,0,210,2.0,0.0
4231,62.0,0,690,14.0,0.0
4232,69.0,0,210,0.0,0.0
4233,62.0,120,690,13.0,0.0
4234,66.0,0,210,1.0,0.0
4235,81.0,0,90,10.0,0.0
4236,81.0,120,90,5.0,0.0
4237,62.0,0,210,2.0,0.0
4238,81.0,0,90,4.0,0.0
4239,81.0,0,90,0.0,0.0
4240,78.0,0,90,11.0,0.0
4241,78.0,0,90,1.0,0.0
4242,62.0,0,210,12.0,0.0
4243,50.0,225,240,3.0,0.0
4244,78.0,0,90,10.0,0.0
4245,78.0,0,90,5.0,0.0
4246,78.0,0,90,4.0,0.0
4247,74.0,15,90,11.0,0.0
4248,74.0,0,90,1.0,0.0
4249,78.0,0,90,0.0,0.0
4250,69.0,0,450,2.0,0.0
4251,79.0,0,450,5.0,0.0
4252,76.0,0,450,11.0,0.0
4253,45.0,225,480,3.0,0.0
4254,76.0,0,450,1.0,0.0
4255,79.0,0,450,4.0,0.0
4256,79.0,0,450,10.0,0.0
4257,79.0,15,450,0.0,0.0
4258,69.0,0,450,12.0,0.0
4259,61.0,120,90,13.0,0.0
4260,61.0,0,90,14.0,0.0
4261,59.0,0,90,13.0,0.0
4262,59.0,0,90,14.0,0.0
4263,61.0,15,210,13.0,0.0
4264,69.0,0,210,4.0,0.0
4265,69.0,0,210,10.0,0.0
4266,69.0,0,210,0.0,0.0
4267,64.0,0,210,11.0,0.0
4268,69.0,0,210,12.0,0.0
4269,45.0,105,240,3.0,0.0
4270,69.0,0,210,2.0,0.0
4271,61.0,0,210,14.0,0.0
4272,69.0,0,210,5.0,0.0
4273,69.0,0,210,1.0,0.0
4274,76.0,0,90,1.0,0.0
4275,76.0,0,90,11.0,0.0
4276,69.0,0,210,12.0,0.0
4277,79.0,0,90,5.0,0.0
4278,79.0,83,90,0.0,0.0
4279,57.0,0,210,13.0,0.0
4280,69.0,0,210,2.0,0.0
4281,79.0,0,90,4.0,0.0
4282,57.0,0,210,14.0,0.0
4283,45.0,225,240,3.0,0.0
4284,79.0,0,90,10.0,0.0
4285,76.0,15,90,10.0,0.0
4286,76.0,37,60,4.0,0.0
4287,73.0,0,90,11.0,0.0
4288,76.0,0,90,0.0,0.0
4289,76.0,0,90,5.0,0.0
4290,69.0,0,90,1.0,0.0
4291,76.0,0,30,4.0,0.0
4292,74.0,0,450,11.0,0.0
4293,78.0,0,480,0.0,0.0
4294,69.0,0,450,12.0,0.0
4295,78.0,0,450,5.0,0.0
4296,62.0,0,210,14.0,0.0
4297,69.0,0,480,1.0,0.0
4298,50.0,0,480,3.0,0.0
4299,62.0,225,480,2.0,0.0
4300,62.0,120,210,13.0,0.0
4301,78.0,15,450,4.0,0.0
4302,78.0,0,450,10.0,0.0
4303,50.0,120,90,14.0,0.0
4304,50.0,0,90,13.0,0.0
4305,52.0,0,90,13.0,0.0
4306,52.0,0,90,14.0,0.0
4307,69.0,0,210,4.0,0.0
4308,54.0,0,210,13.0,0.0
4309,69.0,120,210,10.0,0.0
4310,54.0,0,210,14.0,0.0
4311,69.0,0,210,5.0,0.0
4312,69.0,0,210,12.0,0.0
4313,62.0,0,210,11.0,0.0
4314,55.0,0,90,14.0,0.0
4315,76.0,0,90,4.0,0.0
4316,55.0,0,90,13.0,0.0
4317,64.0,0,210,11.0,0.0
4318,61.0,0,210,12.0,0.0
4319,76.0,0,90,10.0,0.0
4320,76.0,120,90,5.0,0.0
4321,73.0,0,90,4.0,0.0
4322,73.0,0,90,10.0,0.0
4323,52.0,240,90,14.0,0.0
4324,52.0,0,90,13.0,0.0
4325,73.0,0,90,5.0,0.0
4326,54.0,0,210,14.0,0.0
4327,74.0,0,210,10.0,0.0
4328,66.0,0,210,12.0,0.0
4329,57.0,0,210,11.0,0.0
4330,54.0,0,210,13.0,0.0
4331,74.0,0,210,5.0,0.0
4332,74.0,120,210,4.0,0.0
4333,73.0,120,90,4.0,0.0
4334,73.0,0,90,10.0,0.0
4335,73.0,0,90,5.0,0.0
4336,55.0,0,210,14.0,0.0
4337,62.0,120,210,11.0,0.0
4338,64.0,0,210,12.0,0.0
4339,55.0,0,210,13.0,0.0
4340,71.0,0,90,10.0,0.0
4341,71.0,0,90,5.0,0.0
4342,71.0,0,90,4.0,0.0
4343,66.0,240,210,12.0,0.0
4344,69.0,120,90,4.0,0.0
4345,69.0,0,90,5.0,0.0
4346,62.0,0,210,11.0,0.0
4347,57.0,0,210,14.0,0.0
4348,57.0,0,210,13.0,0.0
4349,69.0,0,90,10.0,0.0
4350,71.0,0,90,10.0,0.0
4351,71.0,0,90,5.0,0.0
4352,71.0,0,90,4.0,0.0
4353,45.0,0,210,14.0,0.0
4354,67.0,0,210,5.0,0.0
4355,67.0,0,210,4.0,0.0
4356,64.0,45,210,12.0,0.0
4357,45.0,0,210,13.0,0.0
4358,67.0,0,210,10.0,0.0
4359,61.0,0,210,11.0,0.0
4360,66.0,30,30,4.0,0.0
4361,66.0,0,30,5.0,0.0
4362,50.0,7,210,14.0,0.0
4363,62.0,240,450,12.0,0.0
4364,50.0,0,210,13.0,0.0
4365,66.0,0,30,10.0,0.0
4366,57.0,0,450,11.0,0.0
4367,67.0,30,30,4.0,0.0
4368,67.0,0,30,5.0,0.0
4369,67.0,0,30,10.0,0.0
4370,66.0,30,30,4.0,0.0
4371,66.0,0,30,5.0,0.0
4372,66.0,0,30,10.0,0.0
4373,67.0,30,30,5.0,0.0
4374,67.0,0,30,4.0,0.0
4375,67.0,0,30,10.0,0.0
4376,66.0,30,30,5.0,0.0
4377,66.0,0,30,10.0,0.0
4378,66.0,0,30,4.0,0.0
4379,67.0,0,30,5.0,0.0
4380,67.0,0,30,10.0,0.0
4381,67.0,30,30,4.0,0.0
4382,64.0,0,30,5.0,0.0
4383,64.0,0,30,4.0,0.0
4384,64.0,15,30,10.0,0.0
4385,66.0,0,20,10.0,0.0
4386,66.0,113,20,4.0,0.0
4387,66.0,0,20,5.0,0.0
4388,54.0,0,90,13.0,0.0
4389,64.0,120,90,10.0,0.0
4390,54.0,0,90,14.0,0.0
4391,64.0,0,90,5.0,0.0
4392,64.0,0,90,4.0,0.0
4393,57.0,0,90,14.0,0.0
4394,62.0,0,90,4.0,0.0
4395,57.0,0,90,13.0,0.0
4396,62.0,0,90,10.0,0.0
4397,62.0,0,90,5.0,0.0
4398,69.0,0,210,0.0,0.0
4399,66.0,0,210,1.0,0.0
4400,62.0,15,210,12.0,0.0
4401,69.0,0,210,5.0,0.0
4402,62.0,0,210,2.0,0.0
4403,50.0,105,240,3.0,0.0
4404,69.0,0,210,10.0,0.0
4405,69.0,0,210,4.0,0.0
4406,66.0,0,210,11.0,0.0
4407,62.0,120,690,14.0,0.0
4408,62.0,0,690,13.0,0.0
4409,81.0,120,90,0.0,0.0
4410,62.0,0,210,2.0,0.0
4411,78.0,0,90,1.0,0.0
4412,81.0,0,90,4.0,0.0
4413,62.0,0,210,12.0,0.0
4414,81.0,0,90,10.0,0.0
4415,81.0,0,90,5.0,0.0
4416,78.0,0,90,11.0,0.0
4417,50.0,225,240,3.0,0.0
4418,78.0,0,90,0.0,0.0
4419,78.0,15,90,10.0,0.0
4420,78.0,0,90,5.0,0.0
4421,74.0,0,90,11.0,0.0
4422,74.0,0,90,1.0,0.0
4423,78.0,0,90,4.0,0.0
4424,69.0,0,450,2.0,0.0
4425,79.0,0,450,5.0,0.0
4426,79.0,0,450,10.0,0.0
4427,79.0,15,450,4.0,0.0
4428,76.0,0,450,11.0,0.0
4429,45.0,225,480,3.0,0.0
4430,79.0,0,450,0.0,0.0
4431,76.0,0,450,1.0,0.0
4432,69.0,0,450,12.0,0.0
4433,61.0,120,90,13.0,0.0
4434,61.0,0,90,14.0,0.0
4435,59.0,0,90,13.0,0.0
4436,59.0,0,90,14.0,0.0
4437,69.0,0,210,12.0,0.0
4438,69.0,15,210,0.0,0.0
4439,45.0,105,240,3.0,0.0
4440,69.0,0,210,10.0,0.0
4441,69.0,0,210,2.0,0.0
4442,61.0,0,210,13.0,0.0
4443,64.0,0,210,11.0,0.0
4444,69.0,0,210,5.0,0.0
4445,69.0,0,210,1.0,0.0
4446,61.0,0,210,14.0,0.0
4447,69.0,0,210,4.0,0.0
4448,79.0,0,90,4.0,0.0
4449,69.0,0,210,12.0,0.0
4450,79.0,0,90,0.0,0.0
4451,79.0,0,90,5.0,0.0
4452,45.0,225,240,3.0,0.0
4453,57.0,0,210,14.0,0.0
4454,69.0,15,210,2.0,0.0
4455,76.0,0,90,11.0,0.0
4456,76.0,0,90,1.0,0.0
4457,79.0,120,90,10.0,0.0
4458,57.0,0,210,13.0,0.0
4459,73.0,0,90,11.0,0.0
4460,76.0,0,90,4.0,0.0
4461,76.0,0,90,5.0,0.0
4462,76.0,0,90,10.0,0.0
4463,69.0,0,90,1.0,0.0
4464,76.0,0,90,0.0,0.0
4465,78.0,0,450,10.0,0.0
4466,78.0,0,450,5.0,0.0
4467,69.0,0,450,12.0,0.0
4468,78.0,15,450,4.0,0.0
4469,74.0,0,450,11.0,0.0
4470,50.0,0,480,3.0,0.0
4471,62.0,0,480,2.0,0.0
4472,62.0,0,210,13.0,0.0
4473,62.0,240,210,14.0,0.0
4474,78.0,225,480,0.0,0.0
4475,69.0,0,480,1.0,0.0
4476,61.0,0,210,13.0,0.0
4477,61.0,0,210,14.0,0.0
4478,59.0,0,210,13.0,0.0
4479,71.0,0,210,12.0,0.0
4480,80.0,0,210,10.0,0.0
4481,74.0,0,210,11.0,0.0
4482,80.0,0,210,5.0,0.0
4483,80.0,0,210,4.0,0.0
4484,59.0,120,210,14.0,0.0
4485,83.0,0,90,5.0,0.0
4486,71.0,0,210,11.0,0.0
4487,64.0,240,210,14.0,0.0
4488,83.0,120,90,4.0,0.0
4489,83.0,0,90,10.0,0.0
4490,64.0,0,210,13.0,0.0
4491,68.0,0,210,12.0,0.0
4492,80.0,0,90,4.0,0.0
4493,80.0,0,90,10.0,0.0
4494,80.0,0,90,5.0,0.0
4495,76.0,0,210,11.0,0.0
4496,81.0,0,210,5.0,0.0
4497,61.0,0,210,14.0,0.0
4498,61.0,0,210,13.0,0.0
4499,81.0,0,210,4.0,0.0
4500,64.0,120,210,12.0,0.0
4501,81.0,0,210,10.0,0.0
4502,80.0,120,90,10.0,0.0
4503,59.0,0,90,14.0,0.0
4504,74.0,0,90,11.0,0.0
4505,59.0,0,90,13.0,0.0
4506,80.0,0,90,4.0,0.0
4507,80.0,0,90,5.0,0.0
4508,64.0,0,210,12.0,0.0
4509,78.0,0,90,4.0,0.0
4510,57.0,0,90,14.0,0.0
4511,78.0,0,90,5.0,0.0
4512,73.0,120,90,11.0,0.0
4513,57.0,0,90,13.0,0.0
4514,78.0,0,90,10.0,0.0
4515,76.0,120,90,10.0,0.0
4516,56.0,0,210,13.0,0.0
4517,76.0,0,90,5.0,0.0
4518,56.0,0,210,14.0,0.0
4519,76.0,0,90,4.0,0.0
4520,71.0,0,210,11.0,0.0
4521,64.0,0,210,12.0,0.0
4522,78.0,240,90,10.0,0.0
4523,78.0,0,90,5.0,0.0
4524,78.0,0,90,4.0,0.0
4525,68.0,0,210,11.0,0.0
4526,64.0,240,210,12.0,0.0
4527,52.0,0,210,14.0,0.0
4528,74.0,0,210,5.0,0.0
4529,74.0,0,210,10.0,0.0
4530,74.0,0,210,4.0,0.0
4531,52.0,0,210,13.0,0.0
4532,64.0,0,210,12.0,0.0
4533,73.0,0,210,10.0,0.0
4534,73.0,0,210,5.0,0.0
4535,69.0,0,210,11.0,0.0
4536,73.0,0,210,4.0,0.0
4537,57.0,0,210,14.0,0.0
4538,57.0,120,210,13.0,0.0
4539,78.0,0,90,4.0,0.0
4540,50.0,240,210,14.0,0.0
4541,78.0,0,90,10.0,0.0
4542,69.0,0,210,11.0,0.0
4543,62.0,0,210,12.0,0.0
4544,78.0,120,90,5.0,0.0
4545,50.0,0,210,13.0,0.0
4546,74.0,0,90,4.0,0.0
4547,74.0,0,90,10.0,0.0
4548,74.0,0,90,5.0,0.0
4549,76.0,0,210,10.0,0.0
4550,69.0,0,210,11.0,0.0
4551,49.0,120,210,14.0,0.0
4552,76.0,0,210,5.0,0.0
4553,49.0,0,210,13.0,0.0
4554,57.0,0,210,12.0,0.0
4555,76.0,0,210,4.0,0.0
4556,54.0,0,210,13.0,0.0
4557,74.0,0,90,10.0,0.0
4558,54.0,0,210,14.0,0.0
4559,69.0,0,210,11.0,0.0
4560,74.0,120,90,4.0,0.0
4561,57.0,0,210,12.0,0.0
4562,74.0,0,90,5.0,0.0
4563,73.0,120,90,4.0,0.0
4564,73.0,0,90,5.0,0.0
4565,73.0,0,90,10.0,0.0
4566,71.0,0,90,10.0,0.0
4567,62.0,0,210,12.0,0.0
4568,50.0,0,210,13.0,0.0
4569,66.0,0,210,11.0,0.0
4570,71.0,120,90,4.0,0.0
4571,50.0,240,210,14.0,0.0
4572,71.0,0,90,5.0,0.0
4573,73.0,0,90,5.0,0.0
4574,73.0,0,90,4.0,0.0
4575,73.0,0,90,10.0,0.0
4576,47.0,0,210,13.0,0.0
4577,66.0,0,210,11.0,0.0
4578,47.0,0,210,14.0,0.0
4579,69.0,0,210,10.0,0.0
4580,69.0,0,210,4.0,0.0
4581,69.0,0,210,5.0,0.0
4582,62.0,240,210,12.0,0.0
4583,64.0,0,210,5.0,0.0
4584,52.0,0,210,14.0,0.0
4585,52.0,0,210,13.0,0.0
4586,64.0,0,210,11.0,0.0
4587,64.0,0,210,4.0,0.0
4588,64.0,240,210,10.0,0.0
4589,61.0,0,210,12.0,0.0
4590,64.0,480,210,11.0,0.0
4591,40.0,0,210,14.0,0.0
4592,59.0,0,210,12.0,0.0
4593,68.0,0,210,5.0,0.0
4594,40.0,0,210,13.0,0.0
4595,68.0,0,210,4.0,0.0
4596,68.0,0,210,10.0,0.0
4597,69.0,0,450,10.0,0.0
4598,64.0,0,450,11.0,0.0
4599,61.0,0,450,12.0,0.0
4600,45.0,0,450,14.0,0.0
4601,45.0,240,450,13.0,0.0
4602,69.0,0,450,5.0,0.0
4603,69.0,0,450,4.0,0.0
4604,69.0,0,210,10.0,0.0
4605,66.0,0,210,11.0,0.0
4606,62.0,0,690,14.0,0.0
4607,69.0,15,210,0.0,0.0
4608,66.0,0,210,1.0,0.0
4609,69.0,0,210,5.0,0.0
4610,62.0,0,210,12.0,0.0
4611,62.0,120,690,13.0,0.0
4612,50.0,105,240,3.0,0.0
4613,62.0,0,210,2.0,0.0
4614,69.0,0,210,4.0,0.0
4615,78.0,0,90,1.0,0.0
4616,81.0,0,90,10.0,0.0
4617,81.0,0,90,0.0,0.0
4618,78.0,0,90,11.0,0.0
4619,62.0,0,210,2.0,0.0
4620,62.0,0,210,12.0,0.0
4621,81.0,120,90,5.0,0.0
4622,81.0,0,90,4.0,0.0
4623,50.0,225,240,3.0,0.0
4624,78.0,0,90,0.0,0.0
4625,78.0,0,90,10.0,0.0
4626,74.0,0,90,11.0,0.0
4627,74.0,0,90,1.0,0.0
4628,78.0,15,90,4.0,0.0
4629,78.0,0,90,5.0,0.0
4630,69.0,0,450,2.0,0.0
4631,79.0,0,450,10.0,0.0
4632,76.0,15,450,1.0,0.0
4633,79.0,0,450,0.0,0.0
4634,76.0,0,450,11.0,0.0
4635,69.0,0,450,12.0,0.0
4636,79.0,0,450,5.0,0.0
4637,79.0,0,450,4.0,0.0
4638,45.0,225,480,3.0,0.0
4639,61.0,0,90,14.0,0.0
4640,61.0,120,90,13.0,0.0
4641,59.0,0,90,13.0,0.0
4642,59.0,0,90,14.0,0.0
4643,69.0,0,210,2.0,0.0
4644,45.0,105,240,3.0,0.0
4645,69.0,0,210,0.0,0.0
4646,69.0,0,210,4.0,0.0
4647,69.0,15,210,5.0,0.0
4648,61.0,0,210,14.0,0.0
4649,69.0,0,210,1.0,0.0
4650,61.0,0,210,13.0,0.0
4651,69.0,0,210,12.0,0.0
4652,69.0,0,210,10.0,0.0
4653,64.0,0,210,11.0,0.0
4654,45.0,0,240,3.0,0.0
4655,57.0,0,210,14.0,0.0
4656,76.0,0,90,11.0,0.0
4657,69.0,0,210,12.0,0.0
4658,79.0,83,90,5.0,0.0
4659,69.0,15,210,2.0,0.0
4660,57.0,0,210,13.0,0.0
4661,79.0,0,90,0.0,0.0
4662,79.0,0,90,10.0,0.0
4663,79.0,0,90,4.0,0.0
4664,76.0,0,90,1.0,0.0
4665,76.0,0,90,10.0,0.0
4666,76.0,0,90,0.0,0.0
4667,73.0,0,90,11.0,0.0
4668,69.0,0,90,1.0,0.0
4669,76.0,37,60,4.0,0.0
4670,76.0,0,90,5.0,0.0
4671,76.0,225,30,4.0,0.0
4672,78.0,0,450,4.0,0.0
4673,74.0,0,450,11.0,0.0
4674,78.0,0,450,5.0,0.0
4675,78.0,0,450,10.0,0.0
4676,69.0,0,480,1.0,0.0
4677,62.0,0,480,2.0,0.0
4678,50.0,0,480,3.0,0.0
4679,69.0,15,450,12.0,0.0
4680,78.0,225,480,0.0,0.0
4681,62.0,0,210,14.0,0.0
4682,62.0,120,210,13.0,0.0
4683,50.0,120,90,14.0,0.0
4684,50.0,0,90,13.0,0.0
4685,52.0,0,90,14.0,0.0
4686,52.0,0,90,13.0,0.0
4687,69.0,0,210,4.0,0.0
4688,54.0,0,210,13.0,0.0
4689,69.0,120,210,5.0,0.0
4690,69.0,0,210,10.0,0.0
4691,69.0,0,210,12.0,0.0
4692,54.0,0,210,14.0,0.0
4693,62.0,0,210,11.0,0.0
4694,61.0,0,210,12.0,0.0
4695,55.0,0,90,13.0,0.0
4696,55.0,120,90,14.0,0.0
4697,76.0,0,90,5.0,0.0
4698,64.0,240,210,11.0,0.0
4699,76.0,0,90,10.0,0.0
4700,76.0,0,90,4.0,0.0
4701,73.0,0,90,5.0,0.0
4702,73.0,0,90,4.0,0.0
4703,52.0,0,90,14.0,0.0
4704,52.0,0,90,13.0,0.0
4705,73.0,0,90,10.0,0.0
4706,54.0,0,210,14.0,0.0
4707,74.0,120,210,10.0,0.0
4708,54.0,0,210,13.0,0.0
4709,74.0,0,210,5.0,0.0
4710,57.0,0,210,11.0,0.0
4711,74.0,0,210,4.0,0.0
4712,66.0,0,210,12.0,0.0
4713,62.0,0,210,11.0,0.0
4714,73.0,0,90,4.0,0.0
4715,55.0,0,210,13.0,0.0
4716,73.0,0,90,5.0,0.0
4717,64.0,120,210,12.0,0.0
4718,55.0,0,210,14.0,0.0
4719,73.0,120,90,10.0,0.0
4720,71.0,0,90,10.0,0.0
4721,71.0,0,90,4.0,0.0
4722,71.0,0,90,5.0,0.0
4723,69.0,0,90,10.0,0.0
4724,62.0,0,210,11.0,0.0
4725,66.0,240,210,12.0,0.0
4726,69.0,0,90,5.0,0.0
4727,69.0,120,90,4.0,0.0
4728,57.0,0,210,13.0,0.0
4729,57.0,0,210,14.0,0.0
4730,71.0,0,90,5.0,0.0
4731,71.0,0,90,4.0,0.0
4732,71.0,0,90,10.0,0.0
4733,67.0,0,210,4.0,0.0
4734,67.0,0,210,10.0,0.0
4735,64.0,0,210,12.0,0.0
4736,45.0,0,210,14.0,0.0
4737,45.0,0,210,13.0,0.0
4738,61.0,0,210,11.0,0.0
4739,67.0,45,210,5.0,0.0
4740,50.0,7,210,14.0,0.0
4741,50.0,0,210,13.0,0.0
4742,57.0,0,450,11.0,0.0
4743,62.0,0,450,12.0,0.0
4744,66.0,0,30,4.0,0.0
4745,66.0,0,30,5.0,0.0
4746,66.0,30,30,10.0,0.0
4747,67.0,0,30,5.0,0.0
4748,67.0,0,30,10.0,0.0
4749,67.0,30,30,4.0,0.0
4750,66.0,0,30,10.0,0.0
4751,66.0,30,30,4.0,0.0
4752,66.0,0,30,5.0,0.0
4753,67.0,0,30,10.0,0.0
4754,67.0,0,30,5.0,0.0
4755,67.0,30,30,4.0,0.0
4756,66.0,0,30,5.0,0.0
4757,66.0,0,30,10.0,0.0
4758,66.0,30,30,4.0,0.0
4759,67.0,0,30,5.0,0.0
4760,67.0,0,30,10.0,0.0
4761,67.0,30,30,4.0,0.0
4762,64.0,0,30,4.0,0.0
4763,64.0,0,30,5.0,0.0
4764,64.0,15,30,10.0,0.0
4765,66.0,113,20,4.0,0.0
4766,66.0,0,20,5.0,0.0
4767,66.0,0,20,10.0,0.0
4768,64.0,0,90,10.0,0.0
4769,64.0,0,90,5.0,0.0
4770,64.0,0,90,4.0,0.0
4771,54.0,120,90,13.0,0.0
4772,54.0,0,90,14.0,0.0
4773,62.0,0,90,10.0,0.0
4774,62.0,240,90,4.0,0.0
4775,57.0,0,90,13.0,0.0
4776,57.0,0,90,14.0,0.0
4777,62.0,0,90,5.0,0.0
4778,69.0,0,210,5.0,0.0
4779,62.0,0,210,2.0,0.0
4780,50.0,105,240,3.0,0.0
4781,69.0,0,210,10.0,0.0
4782,62.0,0,210,12.0,0.0
4783,66.0,0,210,1.0,0.0
4784,62.0,0,690,14.0,0.0
4785,69.0,15,210,4.0,0.0
4786,62.0,120,690,13.0,0.0
4787,69.0,0,210,0.0,0.0
4788,66.0,0,210,11.0,0.0
4789,81.0,120,90,10.0,0.0
4790,78.0,0,90,11.0,0.0
4791,81.0,0,90,0.0,0.0
4792,81.0,0,90,5.0,0.0
4793,62.0,0,210,12.0,0.0
4794,50.0,225,240,3.0,0.0
4795,78.0,0,90,1.0,0.0
4796,62.0,0,210,2.0,0.0
4797,81.0,0,90,4.0,0.0
4798,78.0,15,90,4.0,0.0
4799,78.0,0,90,5.0,0.0
4800,78.0,0,90,10.0,0.0
4801,74.0,0,90,1.0,0.0
4802,78.0,0,90,0.0,0.0
4803,74.0,0,90,11.0,0.0
4804,76.0,0,450,11.0,0.0
4805,76.0,15,450,1.0,0.0
4806,79.0,0,450,5.0,0.0
4807,45.0,225,480,3.0,0.0
4808,69.0,0,450,12.0,0.0
4809,69.0,0,450,2.0,0.0
4810,79.0,0,450,0.0,0.0
4811,79.0,0,450,10.0,0.0
4812,79.0,0,450,4.0,0.0
4813,61.0,0,90,13.0,0.0
4814,61.0,120,90,14.0,0.0
4815,59.0,0,90,14.0,0.0
4816,59.0,0,90,13.0,0.0
4817,69.0,0,210,4.0,0.0
4818,69.0,0,210,0.0,0.0
4819,69.0,0,210,1.0,0.0
4820,69.0,0,210,5.0,0.0
4821,69.0,0,210,2.0,0.0
4822,61.0,15,210,14.0,0.0
4823,45.0,105,240,3.0,0.0
4824,61.0,0,210,13.0,0.0
4825,69.0,0,210,12.0,0.0
4826,69.0,0,210,10.0,0.0
4827,64.0,0,210,11.0,0.0
4828,45.0,225,240,3.0,0.0
4829,69.0,0,210,2.0,0.0
4830,69.0,0,210,12.0,0.0
4831,79.0,0,90,10.0,0.0
4832,76.0,120,90,1.0,0.0
4833,79.0,0,90,0.0,0.0
4834,57.0,15,210,13.0,0.0
4835,79.0,0,90,4.0,0.0
4836,76.0,0,90,11.0,0.0
4837,79.0,0,90,5.0,0.0
4838,57.0,0,210,14.0,0.0
4839,73.0,0,90,11.0,0.0
4840,76.0,0,90,4.0,0.0
4841,76.0,0,90,0.0,0.0
4842,76.0,0,90,10.0,0.0
4843,69.0,0,90,1.0,0.0
4844,76.0,0,90,5.0,0.0
4845,62.0,240,210,13.0,0.0
4846,50.0,225,480,3.0,0.0
4847,78.0,0,480,0.0,0.0
4848,62.0,0,480,2.0,0.0
4849,74.0,15,450,11.0,0.0
4850,69.0,0,450,12.0,0.0
4851,78.0,0,450,4.0,0.0
4852,62.0,0,210,14.0,0.0
4853,78.0,0,450,5.0,0.0
4854,78.0,0,450,10.0,0.0
4855,69.0,0,480,1.0,0.0
4856,61.0,0,210,14.0,0.0
4857,61.0,0,210,13.0,0.0
4858,71.0,120,210,12.0,0.0
4859,80.0,0,210,5.0,0.0
4860,59.0,0,210,14.0,0.0
4861,74.0,0,210,11.0,0.0
4862,59.0,0,210,13.0,0.0
4863,80.0,0,210,10.0,0.0
4864,80.0,0,210,4.0,0.0
4865,83.0,120,90,4.0,0.0
4866,83.0,0,90,10.0,0.0
4867,83.0,0,90,5.0,0.0
4868,71.0,0,210,11.0,0.0
4869,64.0,0,210,13.0,0.0
4870,64.0,0,210,14.0,0.0
4871,68.0,0,210,12.0,0.0
4872,80.0,0,90,4.0,0.0
4873,80.0,0,90,5.0,0.0
4874,80.0,240,90,10.0,0.0
4875,81.0,0,210,5.0,0.0
4876,61.0,0,210,13.0,0.0
4877,81.0,0,210,4.0,0.0
4878,64.0,0,210,12.0,0.0
4879,81.0,0,210,10.0,0.0
4880,61.0,120,210,14.0,0.0
4881,76.0,0,210,11.0,0.0
4882,59.0,0,90,14.0,0.0
4883,80.0,0,90,10.0,0.0
4884,59.0,0,90,13.0,0.0
4885,80.0,0,90,5.0,0.0
4886,74.0,120,90,11.0,0.0
4887,80.0,0,90,4.0,0.0
4888,64.0,0,210,12.0,0.0
4889,57.0,0,90,13.0,0.0
4890,78.0,120,90,10.0,0.0
4891,78.0,0,90,5.0,0.0
4892,73.0,0,90,11.0,0.0
4893,78.0,0,90,4.0,0.0
4894,57.0,0,90,14.0,0.0
4895,76.0,0,90,4.0,0.0
4896,64.0,0,210,12.0,0.0
4897,71.0,240,210,11.0,0.0
4898,76.0,0,90,5.0,0.0
4899,56.0,0,210,13.0,0.0
4900,56.0,0,210,14.0,0.0
4901,76.0,120,90,10.0,0.0
4902,78.0,0,90,10.0,0.0
4903,78.0,0,90,4.0,0.0
4904,78.0,0,90,5.0,0.0
4905,74.0,0,210,10.0,0.0
4906,74.0,240,210,4.0,0.0
4907,74.0,0,210,5.0,0.0
4908,64.0,0,210,12.0,0.0
4909,52.0,0,210,13.0,0.0
4910,52.0,0,210,14.0,0.0
4911,68.0,0,210,11.0,0.0
4912,57.0,0,210,13.0,0.0
4913,73.0,0,210,4.0,0.0
4914,64.0,0,210,12.0,0.0
4915,57.0,0,210,14.0,0.0
4916,73.0,0,210,5.0,0.0
4917,69.0,120,210,11.0,0.0
4918,73.0,0,210,10.0,0.0
4919,50.0,0,210,13.0,0.0
4920,78.0,0,90,4.0,0.0
4921,78.0,0,90,10.0,0.0
4922,50.0,0,210,14.0,0.0
4923,78.0,120,90,5.0,0.0
4924,62.0,240,210,12.0,0.0
4925,69.0,0,210,11.0,0.0
4926,74.0,0,90,5.0,0.0
4927,74.0,0,90,4.0,0.0
4928,74.0,0,90,10.0,0.0
4929,76.0,0,210,5.0,0.0
4930,76.0,120,210,4.0,0.0
4931,49.0,0,210,14.0,0.0
4932,57.0,0,210,12.0,0.0
4933,69.0,0,210,11.0,0.0
4934,49.0,0,210,13.0,0.0
4935,76.0,0,210,10.0,0.0
4936,54.0,0,210,13.0,0.0
4937,54.0,0,210,14.0,0.0
4938,74.0,120,90,5.0,0.0
4939,69.0,0,210,11.0,0.0
4940,74.0,0,90,4.0,0.0
4941,74.0,0,90,10.0,0.0
4942,57.0,120,210,12.0,0.0
4943,73.0,0,90,4.0,0.0
4944,73.0,0,90,5.0,0.0
4945,73.0,0,90,10.0,0.0
4946,50.0,0,210,13.0,0.0
4947,71.0,0,90,4.0,0.0
4948,71.0,120,90,5.0,0.0
4949,66.0,0,210,11.0,0.0
4950,62.0,240,210,12.0,0.0
4951,71.0,0,90,10.0,0.0
4952,50.0,0,210,14.0,0.0
4953,73.0,0,90,5.0,0.0
4954,73.0,0,90,10.0,0.0
4955,73.0,0,90,4.0,0.0
4956,69.0,0,210,5.0,0.0
4957,69.0,0,210,10.0,0.0
4958,66.0,0,210,11.0,0.0
4959,62.0,0,210,12.0,0.0
4960,47.0,0,210,13.0,0.0
4961,47.0,240,210,14.0,0.0
4962,69.0,0,210,4.0,0.0
4963,64.0,0,210,10.0,0.0
4964,64.0,240,210,11.0,0.0
4965,64.0,0,210,4.0,0.0
4966,52.0,0,210,13.0,0.0
4967,64.0,0,210,5.0,0.0
4968,52.0,0,210,14.0,0.0
4969,61.0,0,210,12.0,0.0
4970,68.0,480,210,10.0,0.0
4971,40.0,0,210,14.0,0.0
4972,40.0,0,210,13.0,0.0
4973,64.0,0,210,11.0,0.0
4974,68.0,0,210,5.0,0.0
4975,68.0,0,210,4.0,0.0
4976,59.0,0,210,12.0,0.0
4977,61.0,0,450,12.0,0.0
4978,45.0,0,450,13.0,0.0
4979,69.0,240,450,10.0,0.0
4980,45.0,0,450,14.0,0.0
4981,69.0,0,450,5.0,0.0
4982,69.0,0,450,4.0,0.0
4983,64.0,0,450,11.0,0.0
4984,45.0,0,210,14.0,0.0
4985,76.0,0,210,4.0,0.0
4986,64.0,0,210,11.0,0.0
4987,61.0,0,210,12.0,0.0
4988,45.0,0,210,13.0,0.0
4989,76.0,0,210,10.0,0.0
4990,76.0,120,210,5.0,0.0
4991,76.0,0,210,11.0,0.0
4992,49.0,0,210,13.0,0.0
4993,64.0,0,90,4.0,0.0
4994,64.0,120,90,5.0,0.0
4995,57.0,0,210,12.0,0.0
4996,64.0,0,90,10.0,0.0
4997,49.0,0,210,14.0,0.0
4998,67.0,240,90,4.0,0.0
4999,67.0,0,90,5.0,0.0
5000,67.0,0,90,10.0,0.0
5001,66.0,0,450,4.0,0.0
5002,57.0,120,210,12.0,0.0
5003,66.0,0,450,10.0,0.0
5004,76.0,0,210,11.0,0.0
5005,50.0,0,210,13.0,0.0
5006,66.0,240,450,5.0,0.0
5007,50.0,0,210,14.0,0.0
5008,66.0,0,90,11.0,0.0
5009,59.0,120,90,12.0,0.0
5010,49.0,0,210,13.0,0.0
5011,49.0,0,210,14.0,0.0
5012,61.0,0,90,12.0,0.0
5013,64.0,0,90,11.0,0.0
5014,47.0,0,210,14.0,0.0
5015,74.0,0,210,5.0,0.0
5016,62.0,0,210,12.0,0.0
5017,74.0,0,210,4.0,0.0
5018,47.0,0,210,13.0,0.0
5019,66.0,120,210,11.0,0.0
5020,74.0,0,210,10.0,0.0
5021,59.0,240,210,12.0,0.0
5022,78.0,0,210,11.0,0.0
5023,66.0,0,90,5.0,0.0
5024,50.0,0,210,14.0,0.0
5025,50.0,0,210,13.0,0.0
5026,66.0,0,90,4.0,0.0
5027,66.0,120,90,10.0,0.0
5028,69.0,0,90,4.0,0.0
5029,69.0,0,90,5.0,0.0
5030,69.0,0,90,10.0,0.0
5031,67.0,0,450,5.0,0.0
5032,52.0,0,210,13.0,0.0
5033,67.0,240,450,10.0,0.0
5034,67.0,0,450,4.0,0.0
5035,52.0,0,210,14.0,0.0
5036,59.0,0,450,12.0,0.0
5037,78.0,120,210,11.0,0.0
5038,67.0,120,90,11.0,0.0
5039,50.0,0,210,14.0,0.0
5040,50.0,0,210,13.0,0.0
5041,66.0,0,90,11.0,0.0
5042,73.0,0,210,4.0,0.0
5043,64.0,0,210,12.0,0.0
5044,52.0,120,210,14.0,0.0
5045,52.0,0,210,13.0,0.0
5046,73.0,0,210,5.0,0.0
5047,67.0,0,210,11.0,0.0
5048,73.0,0,210,10.0,0.0
5049,70.0,0,90,4.0,0.0
5050,70.0,120,90,10.0,0.0
5051,70.0,0,90,5.0,0.0
5052,54.0,0,210,14.0,0.0
5053,54.0,0,210,13.0,0.0
5054,66.0,0,210,11.0,0.0
5055,64.0,0,210,12.0,0.0
5056,73.0,240,90,10.0,0.0
5057,73.0,0,90,5.0,0.0
5058,73.0,0,90,4.0,0.0
5059,71.0,0,210,5.0,0.0
5060,62.0,0,210,12.0,0.0
5061,71.0,120,210,4.0,0.0
5062,55.0,0,210,14.0,0.0
5063,55.0,0,210,13.0,0.0
5064,71.0,0,210,11.0,0.0
5065,71.0,0,210,10.0,0.0
5066,73.0,0,90,10.0,0.0
5067,70.0,0,210,11.0,0.0
5068,54.0,0,210,13.0,0.0
5069,66.0,0,210,12.0,0.0
5070,54.0,0,210,14.0,0.0
5071,73.0,120,90,5.0,0.0
5072,73.0,0,90,4.0,0.0
5073,74.0,120,90,10.0,0.0
5074,74.0,0,90,5.0,0.0
5075,74.0,0,90,4.0,0.0
5076,55.0,0,210,14.0,0.0
5077,64.0,0,210,12.0,0.0
5078,71.0,0,210,11.0,0.0
5079,73.0,0,90,5.0,0.0
5080,55.0,0,210,13.0,0.0
5081,73.0,0,90,10.0,0.0
5082,73.0,120,90,4.0,0.0
5083,71.0,240,90,5.0,0.0
5084,71.0,0,90,10.0,0.0
5085,71.0,0,90,4.0,0.0
5086,79.0,0,210,5.0,0.0
5087,62.0,0,210,12.0,0.0
5088,79.0,0,210,4.0,0.0
5089,71.0,0,210,11.0,0.0
5090,52.0,0,210,14.0,0.0
5091,79.0,45,210,10.0,0.0
5092,52.0,0,210,13.0,0.0
5093,71.0,0,210,11.0,0.0
5094,79.0,30,30,5.0,0.0
5095,61.0,0,450,12.0,0.0
5096,54.0,7,210,14.0,0.0
5097,54.0,0,210,13.0,0.0
5098,79.0,0,30,4.0,0.0
5099,79.0,0,30,10.0,0.0
5100,81.0,0,30,10.0,0.0
5101,81.0,30,30,4.0,0.0
5102,81.0,0,30,5.0,0.0
5103,79.0,0,30,5.0,0.0
5104,79.0,0,30,10.0,0.0
5105,79.0,30,30,4.0,0.0
5106,81.0,0,30,10.0,0.0
5107,81.0,0,30,5.0,0.0
5108,81.0,30,30,4.0,0.0
5109,79.0,0,30,10.0,0.0
5110,79.0,0,30,5.0,0.0
5111,79.0,30,30,4.0,0.0
5112,81.0,0,30,4.0,0.0
5113,81.0,0,30,10.0,0.0
5114,81.0,30,30,5.0,0.0
5115,78.0,0,30,10.0,0.0
5116,78.0,15,30,4.0,0.0
5117,78.0,0,30,5.0,0.0
5118,79.0,0,20,5.0,0.0
5119,79.0,0,20,4.0,0.0
5120,79.0,113,20,10.0,0.0
5121,56.0,0,90,13.0,0.0
5122,56.0,120,90,14.0,0.0
5123,78.0,0,210,5.0,0.0
5124,78.0,0,210,10.0,0.0
5125,78.0,0,210,4.0,0.0
5126,70.0,240,210,11.0,0.0
5127,58.0,0,90,14.0,0.0
5128,58.0,0,90,13.0,0.0
5129,62.0,0,210,11.0,0.0
5130,59.0,0,210,12.0,0.0
5131,66.0,0,210,4.0,0.0
5132,66.0,120,210,10.0,0.0
5133,59.0,0,210,13.0,0.0
5134,59.0,0,210,14.0,0.0
5135,66.0,0,210,5.0,0.0
5136,66.0,0,210,0.0,0.0
5137,78.0,0,90,10.0,0.0
5138,78.0,120,90,0.0,0.0
5139,59.0,240,210,12.0,0.0
5140,78.0,0,90,5.0,0.0
5141,74.0,0,210,11.0,0.0
5142,57.0,0,210,14.0,0.0
5143,57.0,0,210,13.0,0.0
5144,78.0,0,90,4.0,0.0
5145,74.0,0,90,5.0,0.0
5146,74.0,0,90,0.0,0.0
5147,74.0,0,90,4.0,0.0
5148,74.0,0,90,10.0,0.0
5149,56.0,0,210,13.0,0.0
5150,76.0,0,450,4.0,0.0
5151,74.0,0,210,11.0,0.0
5152,56.0,120,210,14.0,0.0
5153,76.0,0,450,10.0,0.0
5154,59.0,0,210,12.0,0.0
5155,76.0,0,450,5.0,0.0
5156,76.0,0,450,0.0,0.0
5157,58.0,0,90,12.0,0.0
5158,61.0,240,210,13.0,0.0
5159,73.0,120,90,11.0,0.0
5160,61.0,0,210,14.0,0.0
5161,61.0,0,90,12.0,0.0
5162,71.0,0,90,11.0,0.0
5163,73.0,0,210,11.0,0.0
5164,66.0,0,210,12.0,0.0
5165,66.0,0,210,5.0,0.0
5166,58.0,0,210,14.0,0.0
5167,66.0,120,210,4.0,0.0
5168,66.0,0,210,10.0,0.0
5169,58.0,0,210,13.0,0.0
5170,66.0,0,210,0.0,0.0
5171,76.0,0,90,10.0,0.0
5172,70.0,240,210,11.0,0.0
5173,54.0,0,210,13.0,0.0
5174,66.0,0,210,12.0,0.0
5175,76.0,120,90,5.0,0.0
5176,76.0,0,90,4.0,0.0
5177,76.0,0,90,0.0,0.0
5178,54.0,0,210,14.0,0.0
5179,73.0,0,90,10.0,0.0
5180,78.0,0,90,0.0,0.0
5181,73.0,0,90,5.0,0.0
5182,73.0,0,90,4.0,0.0
5183,74.0,0,210,10.0,0.0
5184,59.0,0,210,13.0,0.0
5185,74.0,105,480,0.0,0.0
5186,71.0,0,210,11.0,0.0
5187,74.0,0,210,4.0,0.0
5188,59.0,120,210,14.0,0.0
5189,74.0,0,210,5.0,0.0
5190,66.0,0,210,12.0,0.0
5191,71.0,0,90,4.0,0.0
5192,55.0,0,210,13.0,0.0
5193,71.0,120,90,5.0,0.0
5194,55.0,0,210,14.0,0.0
5195,62.0,0,210,11.0,0.0
5196,67.0,15,210,12.0,0.0
5197,71.0,0,90,10.0,0.0
5198,74.0,0,90,5.0,0.0
5199,74.0,0,90,4.0,0.0
5200,74.0,0,90,10.0,0.0
5201,52.0,0,210,14.0,0.0
5202,73.0,120,90,4.0,0.0
5203,52.0,0,210,13.0,0.0
5204,73.0,0,90,10.0,0.0
5205,67.0,0,210,12.0,0.0
5206,73.0,0,90,5.0,0.0
5207,64.0,0,210,11.0,0.0
5208,70.0,120,90,5.0,0.0
5209,70.0,0,90,10.0,0.0
5210,70.0,0,90,4.0,0.0
5211,66.0,120,90,11.0,0.0
5212,71.0,0,210,5.0,0.0
5213,71.0,240,210,10.0,0.0
5214,50.0,0,90,13.0,0.0
5215,66.0,0,90,12.0,0.0
5216,50.0,0,90,14.0,0.0
5217,71.0,0,210,4.0,0.0
5218,64.0,0,90,12.0,0.0
5219,49.0,0,90,13.0,0.0
5220,67.0,0,90,11.0,0.0
5221,49.0,0,90,14.0,0.0
5222,66.0,120,210,11.0,0.0
5223,62.0,0,210,12.0,0.0
5224,78.0,0,210,5.0,0.0
5225,78.0,0,210,4.0,0.0
5226,78.0,0,210,10.0,0.0
5227,50.0,0,210,13.0,0.0
5228,50.0,0,210,14.0,0.0
5229,79.0,0,90,4.0,0.0
5230,52.0,0,210,13.0,0.0
5231,79.0,0,90,5.0,0.0
5232,61.0,0,210,12.0,0.0
5233,71.0,0,210,11.0,0.0
5234,79.0,120,90,10.0,0.0
5235,52.0,0,210,14.0,0.0
5236,78.0,120,90,4.0,0.0
5237,78.0,0,90,5.0,0.0
5238,78.0,0,90,10.0,0.0
5239,54.0,0,210,14.0,0.0
5240,61.0,0,210,12.0,0.0
5241,54.0,0,210,13.0,0.0
5242,76.0,0,90,4.0,0.0
5243,76.0,0,90,10.0,0.0
5244,71.0,0,210,11.0,0.0
5245,76.0,120,90,5.0,0.0
5246,74.0,0,90,4.0,0.0
5247,74.0,0,90,10.0,0.0
5248,74.0,120,90,5.0,0.0
5249,70.0,240,210,11.0,0.0
5250,73.0,120,90,10.0,0.0
5251,73.0,0,90,4.0,0.0
5252,66.0,0,210,12.0,0.0
5253,42.0,0,210,13.0,0.0
5254,42.0,0,210,14.0,0.0
5255,73.0,0,90,5.0,0.0
5256,74.0,0,90,5.0,0.0
5257,74.0,0,90,10.0,0.0
5258,74.0,0,90,4.0,0.0
5259,62.0,240,450,12.0,0.0
5260,47.0,120,210,14.0,0.0
5261,47.0,0,210,13.0,0.0
5262,66.0,0,450,11.0,0.0
5263,71.0,0,450,5.0,0.0
5264,71.0,0,450,4.0,0.0
5265,71.0,0,450,10.0,0.0
5266,57.0,0,90,13.0,0.0
5267,57.0,120,90,14.0,0.0
5268,54.0,0,90,13.0,0.0
5269,54.0,0,90,14.0,0.0
5270,71.0,120,210,4.0,0.0
5271,71.0,0,210,10.0,0.0
5272,67.0,0,210,11.0,0.0
5273,71.0,0,210,5.0,0.0
5274,55.0,120,690,13.0,0.0
5275,55.0,0,690,14.0,0.0
5276,62.0,0,210,12.0,0.0
5277,67.0,240,210,12.0,0.0
5278,74.0,0,90,11.0,0.0
5279,83.0,0,90,5.0,0.0
5280,83.0,0,90,10.0,0.0
5281,83.0,120,90,4.0,0.0
5282,79.0,0,90,5.0,0.0
5283,71.0,0,90,11.0,0.0
5284,79.0,0,90,4.0,0.0
5285,79.0,0,90,10.0,0.0
5286,72.0,0,450,11.0,0.0
5287,64.0,0,210,12.0,0.0
5288,81.0,0,450,10.0,0.0
5289,81.0,0,450,4.0,0.0
5290,81.0,240,450,5.0,0.0
5291,63.0,120,90,12.0,0.0
5292,54.0,0,90,14.0,0.0
5293,54.0,0,90,13.0,0.0
5294,52.0,0,90,13.0,0.0
5295,52.0,0,90,14.0,0.0
5296,64.0,0,90,12.0,0.0
5297,71.0,0,210,4.0,0.0
5298,51.0,120,210,13.0,0.0
5299,71.0,0,210,5.0,0.0
5300,71.0,0,210,10.0,0.0
5301,66.0,0,210,12.0,0.0
5302,51.0,0,210,14.0,0.0
5303,66.0,0,210,11.0,0.0
5304,78.0,0,90,11.0,0.0
5305,81.0,0,90,4.0,0.0
5306,81.0,120,90,5.0,0.0
5307,47.0,240,210,13.0,0.0
5308,81.0,0,90,10.0,0.0
5309,47.0,0,210,14.0,0.0
5310,63.0,0,210,12.0,0.0
5311,78.0,0,90,10.0,0.0
5312,78.0,0,90,5.0,0.0
5313,78.0,0,90,4.0,0.0
5314,75.0,0,90,11.0,0.0
5315,79.0,0,450,5.0,0.0
5316,79.0,240,450,10.0,0.0
5317,52.0,120,210,14.0,0.0
5318,59.0,0,450,12.0,0.0
5319,76.0,0,450,11.0,0.0
5320,79.0,0,450,4.0,0.0
5321,52.0,0,210,13.0,0.0
5322,54.0,0,90,13.0,0.0
5323,54.0,120,90,14.0,0.0
5324,55.0,0,90,13.0,0.0
5325,55.0,0,90,14.0,0.0
5326,57.0,0,210,13.0,0.0
5327,69.0,0,210,0.0,0.0
5328,57.0,0,210,12.0,0.0
5329,64.0,0,210,11.0,0.0
5330,73.0,0,210,10.0,0.0
5331,73.0,0,210,4.0,0.0
5332,76.0,0,210,1.0,0.0
5333,57.0,0,210,14.0,0.0
5334,73.0,0,210,5.0,0.0
5335,69.0,15,210,2.0,0.0
5336,45.0,105,240,3.0,0.0
5337,79.0,0,90,5.0,0.0
5338,57.0,0,210,12.0,0.0
5339,49.0,15,210,14.0,0.0
5340,76.0,0,210,11.0,0.0
5341,79.0,0,90,10.0,0.0
5342,49.0,0,210,13.0,0.0
5343,69.0,0,210,2.0,0.0
5344,45.0,225,240,3.0,0.0
5345,79.0,0,90,0.0,0.0
5346,76.0,0,210,1.0,0.0
5347,79.0,120,90,4.0,0.0
5348,76.0,0,90,0.0,0.0
5349,76.0,0,90,10.0,0.0
5350,76.0,0,90,5.0,0.0
5351,76.0,0,90,4.0,0.0
5352,69.0,0,210,12.0,0.0
5353,78.0,0,210,10.0,0.0
5354,78.0,0,210,4.0,0.0
5355,78.0,0,210,5.0,0.0
5356,50.0,105,240,3.0,0.0
5357,74.0,15,210,11.0,0.0
5358,69.0,0,240,2.0,0.0
5359,50.0,0,210,14.0,0.0
5360,50.0,0,210,13.0,0.0
5361,78.0,0,210,0.0,0.0
5362,74.0,0,240,1.0,0.0
5363,66.0,0,210,11.0,0.0
5364,71.0,0,210,12.0,0.0
5365,47.0,120,210,14.0,0.0
5366,76.0,0,90,0.0,0.0
5367,47.0,0,210,13.0,0.0
5368,76.0,0,90,5.0,0.0
5369,76.0,120,90,10.0,0.0
5370,76.0,0,90,4.0,0.0
5371,74.0,0,90,10.0,0.0
5372,74.0,0,90,5.0,0.0
5373,74.0,0,90,4.0,0.0
5374,74.0,0,90,0.0,0.0
5375,43.0,0,210,13.0,0.0
5376,76.0,120,90,0.0,0.0
5377,76.0,0,90,4.0,0.0
5378,83.0,0,240,1.0,0.0
5379,50.0,0,240,3.0,0.0
5380,76.0,0,90,10.0,0.0
5381,43.0,0,210,14.0,0.0
5382,74.0,105,240,2.0,0.0
5383,64.0,15,210,12.0,0.0
5384,71.0,0,210,11.0,0.0
5385,76.0,0,90,5.0,0.0
5386,73.0,0,90,4.0,0.0
5387,73.0,0,90,10.0,0.0
5388,73.0,0,90,5.0,0.0
5389,78.0,0,90,0.0,0.0
5390,44.0,0,210,13.0,0.0
5391,71.0,0,210,11.0,0.0
5392,74.0,0,210,4.0,0.0
5393,74.0,0,210,10.0,0.0
5394,44.0,0,210,14.0,0.0
5395,74.0,0,210,5.0,0.0
5396,76.0,120,90,0.0,0.0
5397,64.0,45,210,12.0,0.0
5398,78.0,0,90,0.0,0.0
5399,45.0,0,480,3.0,0.0
5400,73.0,0,30,10.0,0.0
5401,45.0,0,210,13.0,0.0
5402,81.0,105,480,1.0,0.0
5403,76.0,0,210,0.0,0.0
5404,45.0,7,210,14.0,0.0
5405,69.0,0,450,11.0,0.0
5406,64.0,0,450,12.0,0.0
5407,73.0,30,30,5.0,0.0
5408,69.0,0,480,2.0,0.0
5409,73.0,0,30,4.0,0.0
5410,74.0,30,30,5.0,0.0
5411,74.0,0,30,4.0,0.0
5412,74.0,0,30,10.0,0.0
5413,73.0,0,30,4.0,0.0
5414,73.0,30,30,5.0,0.0
5415,73.0,0,30,10.0,0.0
5416,74.0,0,30,4.0,0.0
5417,74.0,0,30,5.0,0.0
5418,74.0,30,30,10.0,0.0
5419,73.0,0,30,10.0,0.0
5420,73.0,30,30,4.0,0.0
5421,73.0,0,30,5.0,0.0
5422,74.0,30,30,10.0,0.0
5423,74.0,0,30,5.0,0.0
5424,74.0,0,30,4.0,0.0
5425,71.0,0,30,5.0,0.0
5426,71.0,15,30,10.0,0.0
5427,71.0,0,30,4.0,0.0
5428,73.0,0,20,5.0,0.0
5429,73.0,113,20,10.0,0.0
5430,73.0,0,20,4.0,0.0
5431,71.0,120,90,5.0,0.0
5432,69.0,0,240,0.0,0.0
5433,47.0,0,90,14.0,0.0
5434,47.0,0,90,13.0,0.0
5435,71.0,0,90,4.0,0.0
5436,71.0,0,90,10.0,0.0
5437,49.0,15,90,14.0,0.0
5438,49.0,0,90,13.0,0.0
5439,69.0,0,90,5.0,0.0
5440,69.0,0,90,10.0,0.0
5441,69.0,0,90,4.0,0.0
5442,50.0,0,90,14.0,0.0
5443,81.0,120,210,4.0,0.0
5444,50.0,120,90,13.0,0.0
5445,81.0,0,210,10.0,0.0
5446,69.0,0,210,11.0,0.0
5447,66.0,0,210,12.0,0.0
5448,81.0,0,210,5.0,0.0
5449,52.0,0,90,13.0,0.0
5450,52.0,0,90,14.0,0.0
5451,54.0,0,450,13.0,0.0
5452,69.0,0,90,5.0,0.0
5453,54.0,0,450,14.0,0.0
5454,69.0,120,90,10.0,0.0
5455,81.0,0,210,11.0,0.0
5456,62.0,0,210,12.0,0.0
5457,69.0,0,90,4.0,0.0
5458,72.0,240,90,5.0,0.0
5459,72.0,0,90,4.0,0.0
5460,72.0,0,90,10.0,0.0
5461,71.0,0,450,10.0,0.0
5462,62.0,0,450,12.0,0.0
5463,71.0,0,450,4.0,0.0
5464,71.0,120,450,5.0,0.0
5465,79.0,120,210,11.0,0.0
5466,52.0,120,90,13.0,0.0
5467,67.0,0,90,11.0,0.0
5468,52.0,0,90,14.0,0.0
5469,50.0,0,90,14.0,0.0
5470,50.0,0,90,13.0,0.0
5471,66.0,0,90,11.0,0.0
5472,79.0,0,210,10.0,0.0
5473,52.0,0,90,14.0,0.0
5474,52.0,120,90,13.0,0.0
5475,79.0,120,210,4.0,0.0
5476,79.0,0,210,5.0,0.0
5477,67.0,0,210,11.0,0.0
5478,59.0,0,210,12.0,0.0
5479,54.0,0,90,13.0,0.0
5480,54.0,0,90,14.0,0.0
5481,55.0,120,450,13.0,0.0
5482,64.0,0,210,12.0,0.0
5483,71.0,120,90,10.0,0.0
5484,55.0,0,450,14.0,0.0
5485,64.0,240,210,11.0,0.0
5486,71.0,0,90,5.0,0.0
5487,71.0,0,90,4.0,0.0
5488,74.0,0,90,5.0,0.0
5489,74.0,0,90,10.0,0.0
5490,74.0,0,90,4.0,0.0
5491,73.0,0,210,5.0,0.0
5492,69.0,0,450,11.0,0.0
5493,64.0,0,450,12.0,0.0
5494,73.0,0,210,4.0,0.0
5495,73.0,0,210,10.0,0.0
5496,76.0,0,90,4.0,0.0
5497,76.0,0,90,5.0,0.0
5498,52.0,0,210,14.0,0.0
5499,76.0,120,90,10.0,0.0
5500,52.0,0,210,13.0,0.0
5501,73.0,0,90,4.0,0.0
5502,73.0,240,90,10.0,0.0
5503,73.0,0,90,5.0,0.0
5504,49.0,0,210,13.0,0.0
5505,69.0,0,210,5.0,0.0
5506,69.0,0,210,10.0,0.0
5507,69.0,0,210,4.0,0.0
5508,76.0,0,210,1.0,0.0
5509,49.0,0,210,14.0,0.0
5510,45.0,105,240,3.0,0.0
5511,76.0,0,210,11.0,0.0
5512,69.0,0,210,2.0,0.0
5513,64.0,0,210,12.0,0.0
5514,69.0,15,210,0.0,0.0
5515,45.0,0,210,14.0,0.0
5516,76.0,0,210,1.0,0.0
5517,79.0,0,90,4.0,0.0
5518,79.0,0,90,5.0,0.0
5519,79.0,120,90,10.0,0.0
5520,45.0,0,210,13.0,0.0
5521,69.0,0,210,12.0,0.0
5522,79.0,0,90,0.0,0.0
5523,45.0,105,240,3.0,0.0
5524,73.0,0,210,11.0,0.0
5525,69.0,0,210,2.0,0.0
5526,76.0,0,90,5.0,0.0
5527,76.0,0,90,4.0,0.0
5528,76.0,0,90,10.0,0.0
5529,76.0,15,90,0.0,0.0
5530,69.0,0,210,2.0,0.0
5531,50.0,0,210,14.0,0.0
5532,78.0,0,90,4.0,0.0
5533,74.0,0,210,1.0,0.0
5534,50.0,0,210,13.0,0.0
5535,78.0,120,90,5.0,0.0
5536,69.0,0,90,12.0,0.0
5537,50.0,105,240,3.0,0.0
5538,78.0,0,90,0.0,0.0
5539,78.0,0,90,10.0,0.0
5540,74.0,15,210,11.0,0.0
5541,67.0,0,90,12.0,0.0
5542,76.0,0,90,5.0,0.0
5543,76.0,0,90,0.0,0.0
5544,76.0,0,90,4.0,0.0
5545,76.0,0,90,10.0,0.0
5546,66.0,0,90,2.0,0.0
5547,74.0,0,90,0.0,0.0
5548,74.0,0,90,5.0,0.0
5549,55.0,0,210,13.0,0.0
5550,74.0,0,210,1.0,0.0
5551,71.0,0,210,11.0,0.0
5552,74.0,0,90,10.0,0.0
5553,66.0,120,90,12.0,0.0
5554,74.0,0,90,4.0,0.0
5555,55.0,0,210,14.0,0.0
5556,76.0,0,90,4.0,0.0
5557,76.0,0,90,0.0,0.0
5558,67.0,0,90,12.0,0.0
5559,62.0,0,90,2.0,0.0
5560,76.0,120,90,5.0,0.0
5561,76.0,0,90,10.0,0.0
5562,69.0,120,90,1.0,0.0
5563,69.0,0,210,5.0,0.0
5564,76.0,0,330,0.0,0.0
5565,69.0,0,210,4.0,0.0
5566,69.0,0,210,11.0,0.0
5567,57.0,0,210,14.0,0.0
5568,69.0,0,210,10.0,0.0
5569,64.0,0,210,12.0,0.0
5570,57.0,15,210,13.0,0.0
5571,45.0,105,240,3.0,0.0
5572,69.0,0,210,2.0,0.0
5573,66.0,0,90,1.0,0.0
5574,73.0,0,210,4.0,0.0
5575,64.0,0,210,12.0,0.0
5576,69.0,0,210,11.0,0.0
5577,45.0,0,210,13.0,0.0
5578,73.0,0,210,10.0,0.0
5579,69.0,0,210,1.0,0.0
5580,45.0,0,210,14.0,0.0
5581,45.0,465,240,3.0,0.0
5582,69.0,120,90,2.0,0.0
5583,73.0,0,210,5.0,0.0
5584,69.0,0,90,2.0,0.0
5585,74.0,15,90,0.0,0.0
5586,66.0,0,450,12.0,0.0
5587,50.0,0,450,14.0,0.0
5588,74.0,0,480,0.0,0.0
5589,50.0,225,480,3.0,0.0
5590,74.0,0,450,10.0,0.0
5591,66.0,0,480,1.0,0.0
5592,69.0,0,480,2.0,0.0
5593,74.0,15,450,4.0,0.0
5594,69.0,0,450,11.0,0.0
5595,50.0,0,450,13.0,0.0
5596,74.0,0,450,5.0,0.0
5597,64.0,0,210,11.0,0.0
5598,61.0,0,210,12.0,0.0
5599,45.0,0,210,13.0,0.0
5600,76.0,0,210,4.0,0.0
5601,76.0,0,210,5.0,0.0
5602,76.0,120,210,10.0,0.0
5603,45.0,0,210,14.0,0.0
5604,64.0,0,90,5.0,0.0
5605,76.0,240,210,11.0,0.0
5606,49.0,0,210,13.0,0.0
5607,64.0,0,90,4.0,0.0
5608,49.0,0,210,14.0,0.0
5609,64.0,120,90,10.0,0.0
5610,57.0,0,210,12.0,0.0
5611,67.0,0,90,5.0,0.0
5612,67.0,0,90,10.0,0.0
5613,67.0,0,90,4.0,0.0
5614,66.0,0,450,4.0,0.0
5615,50.0,0,210,14.0,0.0
5616,76.0,0,210,11.0,0.0
5617,57.0,120,210,12.0,0.0
5618,66.0,0,450,5.0,0.0
5619,50.0,0,210,13.0,0.0
5620,66.0,0,450,10.0,0.0
5621,66.0,0,90,11.0,0.0
5622,59.0,120,90,12.0,0.0
5623,49.0,240,210,14.0,0.0
5624,49.0,0,210,13.0,0.0
5625,61.0,0,90,12.0,0.0
5626,64.0,0,90,11.0,0.0
5627,66.0,0,210,11.0,0.0
5628,62.0,120,210,12.0,0.0
5629,74.0,0,210,5.0,0.0
5630,74.0,0,210,4.0,0.0
5631,47.0,0,210,14.0,0.0
5632,74.0,0,210,10.0,0.0
5633,47.0,0,210,13.0,0.0
5634,66.0,0,90,4.0,0.0
5635,78.0,240,210,11.0,0.0
5636,66.0,120,90,5.0,0.0
5637,59.0,0,210,12.0,0.0
5638,50.0,0,210,13.0,0.0
5639,66.0,0,90,10.0,0.0
5640,50.0,0,210,14.0,0.0
5641,69.0,0,90,10.0,0.0
5642,69.0,0,90,5.0,0.0
5643,69.0,0,90,4.0,0.0
5644,78.0,0,210,11.0,0.0
5645,59.0,0,450,12.0,0.0
5646,52.0,120,210,13.0,0.0
5647,67.0,240,450,10.0,0.0
5648,67.0,0,450,5.0,0.0
5649,52.0,0,210,14.0,0.0
5650,67.0,0,450,4.0,0.0
5651,67.0,120,90,11.0,0.0
5652,50.0,0,210,14.0,0.0
5653,50.0,0,210,13.0,0.0
5654,66.0,0,90,11.0,0.0
5655,73.0,0,210,4.0,0.0
5656,67.0,0,210,11.0,0.0
5657,52.0,0,210,14.0,0.0
5658,64.0,0,210,12.0,0.0
5659,52.0,0,210,13.0,0.0
5660,73.0,120,210,10.0,0.0
5661,73.0,0,210,5.0,0.0
5662,66.0,240,210,11.0,0.0
5663,54.0,0,210,13.0,0.0
5664,64.0,0,210,12.0,0.0
5665,54.0,0,210,14.0,0.0
5666,70.0,120,90,5.0,0.0
5667,70.0,0,90,4.0,0.0
5668,70.0,0,90,10.0,0.0
5669,73.0,0,90,4.0,0.0
5670,73.0,0,90,5.0,0.0
5671,73.0,0,90,10.0,0.0
5672,71.0,0,210,11.0,0.0
5673,55.0,0,210,14.0,0.0
5674,62.0,0,210,12.0,0.0
5675,71.0,120,210,5.0,0.0
5676,55.0,0,210,13.0,0.0
5677,71.0,0,210,10.0,0.0
5678,71.0,0,210,4.0,0.0
5679,73.0,0,90,5.0,0.0
5680,73.0,0,90,4.0,0.0
5681,73.0,120,90,10.0,0.0
5682,54.0,0,210,13.0,0.0
5683,54.0,0,210,14.0,0.0
5684,66.0,0,210,12.0,0.0
5685,70.0,0,210,11.0,0.0
5686,74.0,0,90,4.0,0.0
5687,74.0,120,90,10.0,0.0
5688,74.0,0,90,5.0,0.0
5689,73.0,120,90,4.0,0.0
5690,71.0,0,210,11.0,0.0
5691,73.0,0,90,10.0,0.0
5692,64.0,240,210,12.0,0.0
5693,73.0,0,90,5.0,0.0
5694,55.0,0,210,14.0,0.0
5695,55.0,0,210,13.0,0.0
5696,71.0,0,90,10.0,0.0
5697,71.0,0,90,5.0,0.0
5698,71.0,0,90,4.0,0.0
5699,52.0,0,210,13.0,0.0
5700,79.0,0,210,10.0,0.0
5701,79.0,0,210,4.0,0.0
5702,71.0,0,210,11.0,0.0
5703,62.0,0,210,12.0,0.0
5704,52.0,0,210,14.0,0.0
5705,79.0,45,210,5.0,0.0
5706,54.0,0,210,14.0,0.0
5707,71.0,0,210,11.0,0.0
5708,79.0,0,30,4.0,0.0
5709,61.0,0,450,12.0,0.0
5710,79.0,0,30,5.0,0.0
5711,79.0,30,30,10.0,0.0
5712,54.0,7,210,13.0,0.0
5713,81.0,0,30,10.0,0.0
5714,81.0,0,30,4.0,0.0
5715,81.0,30,30,5.0,0.0
5716,79.0,0,30,10.0,0.0
5717,79.0,30,30,5.0,0.0
5718,79.0,0,30,4.0,0.0
5719,81.0,0,30,4.0,0.0
5720,81.0,30,30,5.0,0.0
5721,81.0,0,30,10.0,0.0
5722,79.0,0,30,4.0,0.0
5723,79.0,0,30,5.0,0.0
5724,79.0,30,30,10.0,0.0
5725,81.0,0,30,4.0,0.0
5726,81.0,0,30,5.0,0.0
5727,81.0,30,30,10.0,0.0
5728,78.0,0,30,10.0,0.0
5729,78.0,0,30,4.0,0.0
5730,78.0,15,30,5.0,0.0
5731,79.0,0,20,10.0,0.0
5732,79.0,113,20,4.0,0.0
5733,79.0,0,20,5.0,0.0
5734,78.0,0,210,5.0,0.0
5735,70.0,0,210,11.0,0.0
5736,56.0,0,90,13.0,0.0
5737,56.0,120,90,14.0,0.0
5738,78.0,0,210,10.0,0.0
5739,78.0,0,210,4.0,0.0
5740,58.0,0,90,14.0,0.0
5741,58.0,240,90,13.0,0.0
5742,66.0,0,210,0.0,0.0
5743,59.0,0,210,14.0,0.0
5744,66.0,120,210,10.0,0.0
5745,66.0,0,210,4.0,0.0
5746,59.0,0,210,12.0,0.0
5747,59.0,0,210,13.0,0.0
5748,62.0,0,210,11.0,0.0
5749,66.0,0,210,5.0,0.0
5750,78.0,0,90,5.0,0.0
5751,59.0,0,210,12.0,0.0
5752,57.0,0,210,13.0,0.0
5753,57.0,240,210,14.0,0.0
5754,78.0,0,90,10.0,0.0
5755,78.0,120,90,0.0,0.0
5756,74.0,0,210,11.0,0.0
5757,78.0,0,90,4.0,0.0
5758,74.0,0,90,5.0,0.0
5759,74.0,0,90,10.0,0.0
5760,74.0,0,90,4.0,0.0
5761,74.0,0,90,0.0,0.0
5762,76.0,0,450,4.0,0.0
5763,74.0,0,210,11.0,0.0
5764,76.0,0,450,10.0,0.0
5765,59.0,120,210,12.0,0.0
5766,56.0,0,210,14.0,0.0
5767,76.0,240,450,5.0,0.0
5768,76.0,0,450,0.0,0.0
5769,56.0,0,210,13.0,0.0
5770,73.0,0,90,11.0,0.0
5771,61.0,0,210,13.0,0.0
5772,61.0,0,210,14.0,0.0
5773,58.0,120,90,12.0,0.0
5774,71.0,0,90,11.0,0.0
5775,61.0,0,90,12.0,0.0
5776,66.0,0,210,4.0,0.0
5777,66.0,0,210,12.0,0.0
5778,66.0,0,210,5.0,0.0
5779,66.0,0,210,10.0,0.0
5780,58.0,120,210,13.0,0.0
5781,73.0,0,210,11.0,0.0
5782,66.0,0,210,0.0,0.0
5783,58.0,0,210,14.0,0.0
5784,54.0,0,210,14.0,0.0
5785,76.0,0,90,0.0,0.0
5786,76.0,0,90,5.0,0.0
5787,76.0,0,90,10.0,0.0
5788,54.0,0,210,13.0,0.0
5789,66.0,240,210,12.0,0.0
5790,76.0,120,90,4.0,0.0
5791,70.0,0,210,11.0,0.0
5792,78.0,0,90,0.0,0.0
5793,73.0,0,90,4.0,0.0
5794,73.0,0,90,5.0,0.0
5795,73.0,0,90,10.0,0.0
5796,74.0,0,210,5.0,0.0
5797,59.0,0,210,14.0,0.0
5798,74.0,105,480,0.0,0.0
5799,74.0,0,210,4.0,0.0
5800,59.0,0,210,13.0,0.0
5801,74.0,0,210,10.0,0.0
5802,66.0,0,210,12.0,0.0
5803,71.0,120,210,11.0,0.0
5804,62.0,15,210,11.0,0.0
5805,67.0,0,210,12.0,0.0
5806,55.0,0,210,13.0,0.0
5807,55.0,0,210,14.0,0.0
5808,71.0,0,90,10.0,0.0
5809,71.0,120,90,4.0,0.0
5810,71.0,0,90,5.0,0.0
5811,74.0,0,90,10.0,0.0
5812,74.0,0,90,5.0,0.0
5813,74.0,0,90,4.0,0.0
5814,73.0,120,90,4.0,0.0
5815,73.0,0,90,5.0,0.0
5816,67.0,120,210,12.0,0.0
5817,73.0,0,90,10.0,0.0
5818,52.0,0,210,14.0,0.0
5819,64.0,0,210,11.0,0.0
5820,52.0,0,210,13.0,0.0
5821,70.0,0,90,5.0,0.0
5822,70.0,0,90,10.0,0.0
5823,70.0,0,90,4.0,0.0
5824,66.0,0,90,11.0,0.0
5825,50.0,0,90,13.0,0.0
5826,66.0,0,90,12.0,0.0
5827,71.0,0,210,4.0,0.0
5828,71.0,0,210,5.0,0.0
5829,50.0,120,90,14.0,0.0
5830,71.0,0,210,10.0,0.0
5831,67.0,240,90,11.0,0.0
5832,64.0,0,90,12.0,0.0
5833,49.0,0,90,14.0,0.0
5834,49.0,0,90,13.0,0.0
5835,78.0,0,210,5.0,0.0
5836,50.0,120,210,14.0,0.0
5837,62.0,0,210,12.0,0.0
5838,50.0,0,210,13.0,0.0
5839,66.0,0,210,11.0,0.0
5840,78.0,0,210,10.0,0.0
5841,78.0,0,210,4.0,0.0
5842,71.0,0,210,11.0,0.0
5843,52.0,0,210,14.0,0.0
5844,79.0,120,90,5.0,0.0
5845,79.0,0,90,10.0,0.0
5846,52.0,0,210,13.0,0.0
5847,61.0,120,210,12.0,0.0
5848,79.0,0,90,4.0,0.0
5849,78.0,0,90,10.0,0.0
5850,78.0,0,90,5.0,0.0
5851,78.0,0,90,4.0,0.0
5852,54.0,0,210,13.0,0.0
5853,76.0,120,90,5.0,0.0
5854,71.0,0,210,11.0,0.0
5855,76.0,0,90,4.0,0.0
5856,76.0,0,90,10.0,0.0
5857,54.0,0,210,14.0,0.0
5858,61.0,0,210,12.0,0.0
5859,74.0,120,90,5.0,0.0
5860,74.0,0,90,4.0,0.0
5861,74.0,0,90,10.0,0.0
5862,73.0,0,90,4.0,0.0
5863,70.0,0,210,11.0,0.0
5864,66.0,0,210,12.0,0.0
5865,42.0,240,210,13.0,0.0
5866,73.0,120,90,10.0,0.0
5867,42.0,0,210,14.0,0.0
5868,73.0,0,90,5.0,0.0
5869,74.0,0,90,5.0,0.0
5870,74.0,0,90,10.0,0.0
5871,74.0,0,90,4.0,0.0
5872,71.0,240,450,5.0,0.0
5873,71.0,0,450,10.0,0.0
5874,62.0,0,450,12.0,0.0
5875,47.0,120,210,14.0,0.0
5876,66.0,0,450,11.0,0.0
5877,47.0,0,210,13.0,0.0
5878,71.0,0,450,4.0,0.0
5879,57.0,0,90,14.0,0.0
5880,57.0,120,90,13.0,0.0
5881,54.0,0,90,14.0,0.0
5882,54.0,0,90,13.0,0.0
5883,71.0,0,210,4.0,0.0
5884,55.0,120,690,13.0,0.0
5885,55.0,0,690,14.0,0.0
5886,62.0,0,210,12.0,0.0
5887,71.0,0,210,10.0,0.0
5888,71.0,0,210,5.0,0.0
5889,67.0,120,210,11.0,0.0
5890,83.0,120,90,4.0,0.0
5891,67.0,0,210,12.0,0.0
5892,83.0,0,90,10.0,0.0
5893,74.0,0,90,11.0,0.0
5894,83.0,0,90,5.0,0.0
5895,79.0,0,90,5.0,0.0
5896,79.0,0,90,4.0,0.0
5897,71.0,0,90,11.0,0.0
5898,79.0,240,90,10.0,0.0
5899,81.0,240,450,4.0,0.0
5900,72.0,0,450,11.0,0.0
5901,81.0,0,450,5.0,0.0
5902,81.0,0,450,10.0,0.0
5903,64.0,0,210,12.0,0.0
5904,54.0,120,90,14.0,0.0
5905,63.0,0,90,12.0,0.0
5906,54.0,0,90,13.0,0.0
5907,52.0,0,90,14.0,0.0
5908,52.0,0,90,13.0,0.0
5909,64.0,0,90,12.0,0.0
5910,66.0,0,210,11.0,0.0
5911,51.0,0,210,13.0,0.0
5912,71.0,0,210,10.0,0.0
5913,51.0,0,210,14.0,0.0
5914,71.0,0,210,5.0,0.0
5915,66.0,120,210,12.0,0.0
5916,71.0,0,210,4.0,0.0
5917,81.0,0,90,4.0,0.0
5918,81.0,0,90,10.0,0.0
5919,47.0,0,210,14.0,0.0
5920,47.0,0,210,13.0,0.0
5921,78.0,0,90,11.0,0.0
5922,63.0,240,210,12.0,0.0
5923,81.0,120,90,5.0,0.0
5924,78.0,0,90,4.0,0.0
5925,78.0,0,90,10.0,0.0
5926,78.0,0,90,5.0,0.0
5927,75.0,0,90,11.0,0.0
5928,52.0,0,210,13.0,0.0
5929,52.0,120,210,14.0,0.0
5930,76.0,0,450,11.0,0.0
5931,79.0,0,450,5.0,0.0
5932,59.0,0,450,12.0,0.0
5933,79.0,0,450,4.0,0.0
5934,79.0,240,450,10.0,0.0
5935,54.0,120,90,13.0,0.0
5936,54.0,0,90,14.0,0.0
5937,55.0,0,90,13.0,0.0
5938,55.0,0,90,14.0,0.0
5939,57.0,0,210,13.0,0.0
5940,69.0,0,210,0.0,0.0
5941,73.0,0,210,10.0,0.0
5942,69.0,0,210,2.0,0.0
5943,76.0,15,210,1.0,0.0
5944,45.0,105,240,3.0,0.0
5945,73.0,0,210,5.0,0.0
5946,73.0,0,210,4.0,0.0
5947,64.0,0,210,11.0,0.0
5948,57.0,0,210,14.0,0.0
5949,57.0,0,210,12.0,0.0
5950,49.0,15,210,13.0,0.0
5951,79.0,0,90,4.0,0.0
5952,76.0,0,210,1.0,0.0
5953,79.0,120,90,5.0,0.0
5954,69.0,0,210,2.0,0.0
5955,45.0,225,240,3.0,0.0
5956,76.0,0,210,11.0,0.0
5957,57.0,0,210,12.0,0.0
5958,49.0,0,210,14.0,0.0
5959,79.0,0,90,10.0,0.0
5960,79.0,0,90,0.0,0.0
5961,76.0,0,90,5.0,0.0
5962,76.0,0,90,10.0,0.0
5963,76.0,0,90,4.0,0.0
5964,76.0,0,90,0.0,0.0
5965,78.0,15,210,10.0,0.0
5966,78.0,0,210,5.0,0.0
5967,78.0,0,210,4.0,0.0
5968,50.0,0,210,13.0,0.0
5969,74.0,105,240,1.0,0.0
5970,74.0,0,210,11.0,0.0
5971,69.0,0,210,12.0,0.0
5972,50.0,0,210,14.0,0.0
5973,50.0,0,240,3.0,0.0
5974,69.0,0,240,2.0,0.0
5975,78.0,0,210,0.0,0.0
5976,76.0,120,90,0.0,0.0
5977,66.0,0,210,11.0,0.0
5978,47.0,0,210,13.0,0.0
5979,76.0,0,90,5.0,0.0
5980,47.0,0,210,14.0,0.0
5981,76.0,0,90,10.0,0.0
5982,76.0,0,90,4.0,0.0
5983,71.0,0,210,12.0,0.0
5984,74.0,0,90,5.0,0.0
5985,74.0,0,90,4.0,0.0
5986,74.0,0,90,10.0,0.0
5987,74.0,120,90,0.0,0.0
5988,71.0,0,210,11.0,0.0
5989,74.0,0,240,2.0,0.0
5990,43.0,0,210,14.0,0.0
5991,64.0,0,210,12.0,0.0
5992,76.0,0,90,0.0,0.0
5993,50.0,0,240,3.0,0.0
5994,43.0,0,210,13.0,0.0
5995,83.0,105,240,1.0,0.0
5996,76.0,0,90,10.0,0.0
5997,76.0,0,90,4.0,0.0
5998,76.0,120,90,5.0,0.0
5999,78.0,0,90,0.0,0.0
6000,73.0,0,90,5.0,0.0
6001,73.0,0,90,10.0,0.0
6002,73.0,15,90,4.0,0.0
6003,76.0,120,90,0.0,0.0
6004,74.0,0,210,4.0,0.0
6005,64.0,0,210,12.0,0.0
6006,44.0,0,210,14.0,0.0
6007,71.0,0,210,11.0,0.0
6008,74.0,45,210,10.0,0.0
6009,44.0,0,210,13.0,0.0
6010,74.0,0,210,5.0,0.0
6011,78.0,0,90,0.0,0.0
6012,73.0,30,30,10.0,0.0
6013,45.0,0,210,13.0,0.0
6014,76.0,7,210,0.0,0.0
6015,69.0,0,450,11.0,0.0
6016,45.0,0,210,14.0,0.0
6017,73.0,0,30,4.0,0.0
6018,64.0,0,450,12.0,0.0
6019,81.0,0,480,1.0,0.0
6020,73.0,0,30,5.0,0.0
6021,45.0,0,480,3.0,0.0
6022,69.0,0,480,2.0,0.0
6023,74.0,0,30,10.0,0.0
6024,74.0,30,30,5.0,0.0
6025,74.0,0,30,4.0,0.0
6026,73.0,30,30,10.0,0.0
6027,73.0,0,30,4.0,0.0
6028,73.0,0,30,5.0,0.0
6029,74.0,0,30,4.0,0.0
6030,74.0,0,30,5.0,0.0
6031,74.0,30,30,10.0,0.0
6032,73.0,0,30,4.0,0.0
6033,73.0,30,30,10.0,0.0
6034,73.0,0,30,5.0,0.0
6035,74.0,30,30,4.0,0.0
6036,74.0,0,30,5.0,0.0
6037,74.0,0,30,10.0,0.0
6038,71.0,0,30,4.0,0.0
6039,71.0,15,30,5.0,0.0
6040,71.0,0,30,10.0,0.0
6041,73.0,0,20,5.0,0.0
6042,73.0,0,20,4.0,0.0
6043,73.0,113,20,10.0,0.0
6044,71.0,120,90,5.0,0.0
6045,71.0,0,90,4.0,0.0
6046,47.0,0,90,13.0,0.0
6047,47.0,0,90,14.0,0.0
6048,71.0,0,90,10.0,0.0
6049,69.0,105,240,0.0,0.0
6050,69.0,0,90,4.0,0.0
6051,69.0,0,90,5.0,0.0
6052,49.0,0,90,14.0,0.0
6053,49.0,15,90,13.0,0.0
6054,69.0,0,90,10.0,0.0
6055,81.0,0,210,5.0,0.0
6056,81.0,120,210,4.0,0.0
6057,50.0,0,90,14.0,0.0
6058,69.0,0,210,11.0,0.0
6059,81.0,0,210,10.0,0.0
6060,50.0,120,90,13.0,0.0
6061,66.0,0,210,12.0,0.0
6062,52.0,0,90,14.0,0.0
6063,52.0,0,90,13.0,0.0
6064,54.0,0,450,13.0,0.0
6065,69.0,0,90,4.0,0.0
6066,54.0,120,450,14.0,0.0
6067,62.0,0,210,12.0,0.0
6068,69.0,0,90,5.0,0.0
6069,81.0,0,210,11.0,0.0
6070,69.0,120,90,10.0,0.0
6071,72.0,240,90,4.0,0.0
6072,72.0,0,90,5.0,0.0
6073,72.0,0,90,10.0,0.0
6074,71.0,0,450,4.0,0.0
6075,71.0,0,450,10.0,0.0
6076,79.0,0,210,11.0,0.0
6077,71.0,0,450,5.0,0.0
6078,62.0,0,450,12.0,0.0
6079,52.0,0,90,14.0,0.0
6080,52.0,120,90,13.0,0.0
6081,67.0,0,90,11.0,0.0
6082,50.0,120,90,14.0,0.0
6083,66.0,0,90,11.0,0.0
6084,50.0,0,90,13.0,0.0
6085,59.0,0,210,12.0,0.0
6086,79.0,0,210,10.0,0.0
6087,79.0,120,210,5.0,0.0
6088,52.0,120,90,13.0,0.0
6089,79.0,0,210,4.0,0.0
6090,52.0,0,90,14.0,0.0
6091,67.0,0,210,11.0,0.0
6092,54.0,0,90,14.0,0.0
6093,54.0,0,90,13.0,0.0
6094,64.0,240,210,11.0,0.0
6095,71.0,120,90,10.0,0.0
6096,71.0,0,90,4.0,0.0
6097,71.0,0,90,5.0,0.0
6098,64.0,0,210,12.0,0.0
6099,55.0,0,450,14.0,0.0
6100,55.0,0,450,13.0,0.0
6101,74.0,0,90,5.0,0.0
6102,74.0,0,90,4.0,0.0
6103,74.0,0,90,10.0,0.0
6104,73.0,120,210,5.0,0.0
6105,73.0,0,210,10.0,0.0
6106,64.0,240,450,12.0,0.0
6107,73.0,0,210,4.0,0.0
6108,69.0,0,450,11.0,0.0
6109,76.0,120,90,10.0,0.0
6110,76.0,0,90,4.0,0.0
6111,52.0,0,210,13.0,0.0
6112,76.0,0,90,5.0,0.0
6113,52.0,0,210,14.0,0.0
6114,73.0,0,90,10.0,0.0
6115,73.0,0,90,4.0,0.0
6116,73.0,0,90,5.0,0.0
6117,69.0,0,210,10.0,0.0
6118,64.0,0,210,12.0,0.0
6119,69.0,0,210,5.0,0.0
6120,76.0,0,210,1.0,0.0
6121,69.0,15,210,2.0,0.0
6122,49.0,0,210,13.0,0.0
6123,45.0,105,240,3.0,0.0
6124,69.0,0,210,0.0,0.0
6125,69.0,0,210,4.0,0.0
6126,76.0,0,210,11.0,0.0
6127,49.0,0,210,14.0,0.0
6128,79.0,0,90,4.0,0.0
6129,79.0,0,90,5.0,0.0
6130,69.0,15,210,12.0,0.0
6131,73.0,0,210,11.0,0.0
6132,76.0,0,210,1.0,0.0
6133,45.0,0,210,13.0,0.0
6134,45.0,105,240,3.0,0.0
6135,69.0,0,210,2.0,0.0
6136,45.0,0,210,14.0,0.0
6137,79.0,120,90,10.0,0.0
6138,79.0,0,90,0.0,0.0
6139,76.0,0,90,5.0,0.0
6140,76.0,0,90,4.0,0.0
6141,76.0,0,90,10.0,0.0
6142,76.0,0,90,0.0,0.0
6143,50.0,0,210,13.0,0.0
6144,69.0,0,90,12.0,0.0
6145,78.0,0,90,10.0,0.0
6146,74.0,0,210,11.0,0.0
6147,78.0,0,90,0.0,0.0
6148,78.0,120,90,5.0,0.0
6149,50.0,0,210,14.0,0.0
6150,74.0,0,210,1.0,0.0
6151,50.0,105,240,3.0,0.0
6152,69.0,0,210,2.0,0.0
6153,78.0,0,90,4.0,0.0
6154,76.0,15,90,10.0,0.0
6155,67.0,0,90,12.0,0.0
6156,76.0,0,90,4.0,0.0
6157,76.0,0,90,5.0,0.0
6158,76.0,0,90,0.0,0.0
6159,74.0,0,90,10.0,0.0
6160,74.0,0,210,1.0,0.0
6161,66.0,120,90,12.0,0.0
6162,66.0,0,90,2.0,0.0
6163,74.0,0,90,4.0,0.0
6164,74.0,0,90,5.0,0.0
6165,71.0,0,210,11.0,0.0
6166,55.0,0,210,14.0,0.0
6167,55.0,0,210,13.0,0.0
6168,74.0,0,90,0.0,0.0
6169,67.0,0,90,12.0,0.0
6170,76.0,0,90,4.0,0.0
6171,62.0,120,90,2.0,0.0
6172,76.0,0,90,10.0,0.0
6173,76.0,0,90,0.0,0.0
6174,76.0,0,90,5.0,0.0
6175,64.0,0,210,12.0,0.0
6176,45.0,105,240,3.0,0.0
6177,57.0,0,210,14.0,0.0
6178,57.0,0,210,13.0,0.0
6179,69.0,0,210,5.0,0.0
6180,69.0,120,90,1.0,0.0
6181,69.0,0,210,11.0,0.0
6182,69.0,0,210,4.0,0.0
6183,69.0,0,210,10.0,0.0
6184,69.0,0,210,2.0,0.0
6185,76.0,0,330,0.0,0.0
6186,66.0,15,90,1.0,0.0
6187,69.0,120,90,2.0,0.0
6188,73.0,0,210,10.0,0.0
6189,45.0,480,240,3.0,0.0
6190,73.0,0,210,4.0,0.0
6191,69.0,0,210,11.0,0.0
6192,64.0,0,210,12.0,0.0
6193,69.0,0,210,1.0,0.0
6194,73.0,0,210,5.0,0.0
6195,45.0,0,210,13.0,0.0
6196,45.0,0,210,14.0,0.0
6197,74.0,0,90,0.0,0.0
6198,69.0,15,90,2.0,0.0
6199,74.0,481,480,5.0,0.0
6200,74.0,0,480,10.0,0.0
6201,50.0,0,480,14.0,0.0
6202,74.0,0,480,4.0,0.0
6203,69.0,0,480,11.0,0.0
6204,69.0,0,480,2.0,0.0
6205,66.0,0,480,12.0,0.0
6206,74.0,0,480,0.0,0.0
6207,50.0,0,480,3.0,0.0
6208,50.0,0,480,13.0,0.0
6209,66.0,0,480,1.0,0.0
