,note,step,duration,channel,velocity
0,71.0,15,150,0.0,64.0
1,66.0,10,30,1.0,64.0
2,83.0,3,150,4.0,64.0
3,59.0,9,30,2.0,64.0
4,50.0,93,30,3.0,64.0
5,62.0,0,30,1.0,64.0
6,66.0,5,30,2.0,64.0
7,47.0,58,30,3.0,64.0
8,74.0,4,30,0.0,64.0
9,86.0,48,30,4.0,64.0
10,73.0,0,30,0.0,64.0
11,85.0,2,30,4.0,64.0
12,67.0,7,30,1.0,64.0
13,52.0,1,60,3.0,64.0
14,64.0,114,30,2.0,64.0
15,71.0,1,60,0.0,64.0
16,83.0,3,60,4.0,64.0
17,55.0,115,60,3.0,64.0
18,64.0,0,30,2.0,64.0
19,59.0,0,30,1.0,64.0
20,83.0,93,60,4.0,64.0
21,71.0,1,60,0.0,64.0
22,54.0,1,30,3.0,64.0
23,66.0,0,30,2.0,64.0
24,61.0,22,30,1.0,64.0
25,70.0,3,120,0.0,64.0
26,82.0,31,120,4.0,64.0
27,61.0,1,30,2.0,64.0
28,66.0,5,30,1.0,64.0
29,52.0,11,60,3.0,64.0
30,83.0,5,30,4.0,64.0
31,71.0,15,30,0.0,64.0
32,85.0,2,30,4.0,64.0
33,73.0,45,20,0.0,64.0
34,50.0,106,60,3.0,64.0
35,66.0,2,30,1.0,64.0
36,62.0,5,30,2.0,64.0
37,71.0,4,150,0.0,64.0
38,83.0,64,150,4.0,64.0
39,66.0,0,30,2.0,64.0
40,47.0,7,60,3.0,64.0
41,71.0,10,30,1.0,64.0
42,74.0,4,30,0.0,64.0
43,86.0,36,30,4.0,64.0
44,54.0,5,60,3.0,64.0
45,64.0,2,60,2.0,64.0
46,70.0,6,30,1.0,64.0
47,85.0,2,30,4.0,64.0
48,73.0,101,60,0.0,64.0
49,55.0,113,60,3.0,64.0
50,71.0,5,30,1.0,64.0
51,62.0,5,30,2.0,64.0
52,71.0,5,30,0.0,64.0
53,83.0,2,30,4.0,64.0
54,73.0,43,90,0.0,64.0
55,85.0,8,60,4.0,64.0
56,52.0,21,60,3.0,64.0
57,64.0,0,30,2.0,64.0
58,67.0,3,30,1.0,64.0
59,71.0,28,60,0.0,64.0
60,83.0,1,60,4.0,64.0
61,54.0,30,60,3.0,64.0
62,61.0,1,30,2.0,64.0
63,66.0,10,30,1.0,64.0
64,70.0,2,30,0.0,64.0
65,82.0,6,30,4.0,64.0
66,85.0,6,20,4.0,64.0
67,73.0,81,20,0.0,64.0
68,62.0,4,30,2.0,64.0
69,66.0,9,30,1.0,64.0
70,50.0,96,60,3.0,64.0
71,71.0,14,150,0.0,64.0
72,83.0,1,150,4.0,64.0
73,66.0,0,60,2.0,64.0
74,71.0,9,30,1.0,64.0
75,47.0,59,60,3.0,64.0
76,74.0,46,30,0.0,64.0
77,86.0,0,30,4.0,64.0
78,85.0,3,30,4.0,64.0
79,73.0,1,60,0.0,64.0
80,64.0,103,60,2.0,64.0
81,67.0,8,30,1.0,64.0
82,52.0,1,30,3.0,64.0
83,83.0,4,30,4.0,64.0
84,71.0,3,30,0.0,64.0
85,66.0,6,60,2.0,64.0
86,66.0,1,30,1.0,64.0
87,50.0,59,60,3.0,64.0
88,67.0,52,20,2.0,64.0
89,81.0,0,60,4.0,64.0
90,69.0,2,60,2.0,64.0
91,69.0,1,60,0.0,64.0
92,64.0,116,60,1.0,64.0
93,49.0,1,30,3.0,64.0
94,61.0,3,60,2.0,64.0
95,79.0,0,60,4.0,64.0
96,67.0,111,60,0.0,64.0
97,64.0,0,30,1.0,64.0
98,45.0,4,30,3.0,64.0
99,64.0,7,60,1.0,64.0
100,79.0,2,60,4.0,64.0
101,59.0,8,60,2.0,64.0
102,67.0,0,60,0.0,64.0
103,50.0,44,330,3.0,64.0
104,78.0,4,20,4.0,64.0
105,57.0,5,20,2.0,64.0
106,62.0,6,20,1.0,64.0
107,66.0,4,20,0.0,64.0
108,79.0,3,20,4.0,64.0
109,59.0,10,20,2.0,64.0
110,67.0,12,30,0.0,64.0
111,64.0,3,20,1.0,64.0
112,57.0,2,20,2.0,64.0
113,78.0,2,15,4.0,64.0
114,66.0,5,30,0.0,64.0
115,79.0,14,20,4.0,64.0
116,62.0,47,30,1.0,64.0
117,59.0,0,15,2.0,64.0
118,57.0,1,30,2.0,64.0
119,78.0,1,30,4.0,64.0
120,64.0,0,60,0.0,64.0
121,55.0,3,60,2.0,64.0
122,61.0,42,60,1.0,64.0
123,76.0,2,60,4.0,64.0
124,66.0,4,60,0.0,64.0
125,78.0,6,60,4.0,64.0
126,57.0,5,60,2.0,64.0
127,62.0,105,60,1.0,64.0
128,74.0,6,240,4.0,64.0
129,62.0,2,240,0.0,64.0
130,54.0,9,240,2.0,64.0
131,57.0,111,270,1.0,64.0
132,45.0,56,30,3.0,64.0
133,42.0,45,30,3.0,64.0
134,38.0,142,120,3.0,64.0
135,50.0,106,60,3.0,64.0
136,59.0,0,30,2.0,64.0
137,83.0,11,150,4.0,64.0
138,71.0,5,150,0.0,64.0
139,66.0,11,30,1.0,64.0
140,66.0,4,30,2.0,64.0
141,62.0,1,30,1.0,64.0
142,47.0,60,60,3.0,64.0
143,74.0,3,30,0.0,64.0
144,86.0,42,30,4.0,64.0
145,73.0,4,60,0.0,64.0
146,64.0,6,60,2.0,64.0
147,85.0,1,60,4.0,64.0
148,67.0,5,30,1.0,64.0
149,52.0,111,60,3.0,64.0
150,71.0,2,60,0.0,64.0
151,83.0,3,60,4.0,64.0
152,55.0,100,60,3.0,64.0
153,64.0,1,30,2.0,64.0
154,59.0,3,30,1.0,64.0
155,83.0,4,60,4.0,64.0
156,71.0,5,30,0.0,64.0
157,61.0,3,30,1.0,64.0
158,66.0,0,30,2.0,64.0
159,54.0,5,30,3.0,64.0
160,70.0,7,20,0.0,64.0
161,82.0,15,20,4.0,64.0
162,71.0,6,20,0.0,64.0
163,83.0,7,20,4.0,64.0
164,70.0,9,20,0.0,64.0
165,82.0,14,20,4.0,64.0
166,71.0,21,30,0.0,64.0
167,83.0,23,30,4.0,64.0
168,70.0,6,90,0.0,64.0
169,66.0,12,30,1.0,64.0
170,82.0,22,60,4.0,64.0
171,52.0,15,60,3.0,64.0
172,61.0,0,30,2.0,64.0
173,83.0,4,30,4.0,64.0
174,71.0,16,30,0.0,64.0
175,85.0,48,30,4.0,64.0
176,73.0,2,20,0.0,64.0
177,66.0,7,30,1.0,64.0
178,71.0,2,150,0.0,64.0
179,50.0,100,60,3.0,64.0
180,83.0,1,150,4.0,64.0
181,62.0,5,30,2.0,64.0
182,71.0,4,30,1.0,64.0
183,66.0,10,30,2.0,64.0
184,47.0,67,60,3.0,64.0
185,74.0,43,30,0.0,64.0
186,86.0,2,30,4.0,64.0
187,54.0,103,60,3.0,64.0
188,64.0,4,30,2.0,64.0
189,70.0,0,30,1.0,64.0
190,73.0,5,60,0.0,64.0
191,85.0,2,30,4.0,64.0
192,55.0,108,60,3.0,64.0
193,71.0,4,30,1.0,64.0
194,83.0,2,30,4.0,64.0
195,71.0,3,60,0.0,64.0
196,62.0,3,30,2.0,64.0
197,67.0,8,30,1.0,64.0
198,85.0,9,60,4.0,64.0
199,52.0,11,60,3.0,64.0
200,73.0,48,60,0.0,64.0
201,64.0,4,30,2.0,64.0
202,83.0,30,60,4.0,64.0
203,71.0,0,60,0.0,64.0
204,70.0,6,30,0.0,64.0
205,66.0,11,30,1.0,64.0
206,82.0,3,30,4.0,64.0
207,54.0,36,60,3.0,64.0
208,61.0,1,30,2.0,64.0
209,73.0,88,20,0.0,64.0
210,85.0,1,20,4.0,64.0
211,66.0,0,60,1.0,64.0
212,62.0,102,60,2.0,64.0
213,50.0,2,60,3.0,64.0
214,83.0,4,150,4.0,64.0
215,71.0,4,150,0.0,64.0
216,66.0,2,60,2.0,64.0
217,71.0,7,30,1.0,64.0
218,47.0,65,60,3.0,64.0
219,74.0,44,30,0.0,64.0
220,86.0,1,30,4.0,64.0
221,73.0,1,60,0.0,64.0
222,85.0,4,30,4.0,64.0
223,67.0,8,30,1.0,64.0
224,52.0,2,60,3.0,64.0
225,64.0,103,60,2.0,64.0
226,71.0,2,60,0.0,64.0
227,83.0,4,30,4.0,64.0
228,50.0,56,60,3.0,64.0
229,66.0,6,30,1.0,64.0
230,66.0,1,60,2.0,64.0
231,67.0,54,20,2.0,64.0
232,69.0,1,60,0.0,64.0
233,69.0,0,60,2.0,64.0
234,49.0,0,30,3.0,64.0
235,81.0,1,30,4.0,64.0
236,64.0,111,30,1.0,64.0
237,67.0,3,60,0.0,64.0
238,45.0,1,30,3.0,64.0
239,64.0,7,30,1.0,64.0
240,61.0,3,60,2.0,64.0
241,79.0,107,60,4.0,64.0
242,64.0,10,30,1.0,64.0
243,67.0,5,60,0.0,64.0
244,79.0,1,60,4.0,64.0
245,59.0,1,60,2.0,64.0
246,50.0,53,330,3.0,64.0
247,62.0,9,20,1.0,64.0
248,57.0,1,20,2.0,64.0
249,78.0,1,20,4.0,64.0
250,66.0,6,20,0.0,64.0
251,64.0,18,20,1.0,64.0
252,59.0,0,30,2.0,64.0
253,79.0,7,60,4.0,64.0
254,67.0,1,30,0.0,64.0
255,62.0,4,20,1.0,64.0
256,78.0,4,15,4.0,64.0
257,57.0,3,30,2.0,64.0
258,64.0,7,20,1.0,64.0
259,66.0,6,15,0.0,64.0
260,67.0,5,20,0.0,64.0
261,62.0,7,30,1.0,64.0
262,78.0,0,30,4.0,64.0
263,66.0,43,20,0.0,64.0
264,55.0,4,60,2.0,64.0
265,61.0,4,60,1.0,64.0
266,76.0,1,60,4.0,64.0
267,64.0,39,60,0.0,64.0
268,66.0,0,60,0.0,64.0
269,78.0,11,60,4.0,64.0
270,57.0,2,60,2.0,64.0
271,62.0,101,60,1.0,64.0
272,62.0,4,240,0.0,64.0
273,74.0,8,240,4.0,64.0
274,54.0,1,240,2.0,64.0
275,57.0,120,240,1.0,64.0
276,45.0,57,30,3.0,64.0
277,42.0,35,30,3.0,64.0
278,38.0,148,120,3.0,64.0
279,57.0,2,30,2.0,64.0
280,69.0,91,60,1.0,64.0
281,74.0,21,150,0.0,64.0
282,86.0,2,150,4.0,64.0
283,54.0,0,30,3.0,64.0
284,74.0,11,60,1.0,64.0
285,69.0,4,30,2.0,64.0
286,50.0,50,60,3.0,64.0
287,78.0,50,30,0.0,64.0
288,90.0,1,30,4.0,64.0
289,76.0,4,60,0.0,64.0
290,71.0,1,30,1.0,64.0
291,88.0,5,60,4.0,64.0
292,67.0,2,60,2.0,64.0
293,55.0,106,30,3.0,64.0
294,64.0,2,60,1.0,64.0
295,74.0,4,60,0.0,64.0
296,86.0,4,30,4.0,64.0
297,71.0,5,30,2.0,64.0
298,56.0,108,60,3.0,64.0
299,69.0,6,60,1.0,64.0
300,86.0,3,60,4.0,64.0
301,74.0,89,60,0.0,64.0
302,57.0,0,30,3.0,64.0
303,64.0,24,30,2.0,64.0
304,85.0,1,90,4.0,64.0
305,73.0,41,90,0.0,64.0
306,64.0,3,30,2.0,64.0
307,68.0,1,30,1.0,64.0
308,52.0,0,30,3.0,64.0
309,86.0,9,30,4.0,64.0
310,74.0,3,30,0.0,64.0
311,88.0,10,20,4.0,64.0
312,76.0,55,20,0.0,64.0
313,69.0,5,60,1.0,64.0
314,64.0,3,60,2.0,64.0
315,74.0,86,60,0.0,64.0
316,86.0,2,60,4.0,64.0
317,57.0,22,60,3.0,64.0
318,85.0,1,120,4.0,64.0
319,73.0,52,120,0.0,64.0
320,58.0,14,60,3.0,64.0
321,73.0,2,30,1.0,64.0
322,66.0,5,30,2.0,64.0
323,76.0,0,30,0.0,64.0
324,88.0,50,20,4.0,64.0
325,74.0,1,60,0.0,64.0
326,86.0,2,30,4.0,64.0
327,59.0,117,60,3.0,64.0
328,71.0,0,30,1.0,64.0
329,66.0,2,30,2.0,64.0
330,73.0,2,60,0.0,64.0
331,85.0,2,60,4.0,64.0
332,54.0,1,60,3.0,64.0
333,70.0,2,30,1.0,64.0
334,64.0,76,30,2.0,64.0
335,73.0,4,20,0.0,64.0
336,85.0,14,20,4.0,64.0
337,59.0,1,60,3.0,64.0
338,62.0,7,60,2.0,64.0
339,66.0,3,30,1.0,64.0
340,71.0,7,20,0.0,64.0
341,83.0,10,20,4.0,64.0
342,73.0,0,20,0.0,64.0
343,85.0,17,30,4.0,64.0
344,71.0,9,30,0.0,64.0
345,83.0,78,30,4.0,64.0
346,61.0,5,60,3.0,64.0
347,70.0,115,60,0.0,64.0
348,82.0,2,60,4.0,64.0
349,61.0,0,30,2.0,64.0
350,64.0,8,30,1.0,64.0
351,71.0,9,150,0.0,64.0
352,83.0,3,150,4.0,64.0
353,59.0,4,60,2.0,64.0
354,62.0,99,60,3.0,64.0
355,66.0,0,60,1.0,64.0
356,66.0,2,60,2.0,64.0
357,59.0,19,60,3.0,64.0
358,71.0,10,60,1.0,64.0
359,85.0,8,20,4.0,64.0
360,73.0,10,30,0.0,64.0
361,86.0,6,20,4.0,64.0
362,74.0,67,30,0.0,64.0
363,73.0,30,120,0.0,64.0
364,58.0,3,60,3.0,64.0
365,85.0,2,120,4.0,64.0
366,73.0,59,60,1.0,64.0
367,66.0,1,60,2.0,64.0
368,74.0,2,30,0.0,64.0
369,59.0,1,30,3.0,64.0
370,86.0,13,30,4.0,64.0
371,71.0,3,30,1.0,64.0
372,66.0,39,30,2.0,64.0
373,90.0,6,30,4.0,64.0
374,78.0,70,30,0.0,64.0
375,71.0,2,30,1.0,64.0
376,88.0,0,60,4.0,64.0
377,67.0,0,30,2.0,64.0
378,76.0,18,60,0.0,64.0
379,52.0,24,30,3.0,64.0
380,86.0,11,30,4.0,64.0
381,74.0,63,30,0.0,64.0
382,76.0,3,30,1.0,64.0
383,59.0,8,30,2.0,64.0
384,55.0,15,60,3.0,64.0
385,85.0,8,60,4.0,64.0
386,73.0,15,60,0.0,64.0
387,83.0,8,30,4.0,64.0
388,71.0,68,30,0.0,64.0
389,66.0,4,30,2.0,64.0
390,70.0,13,60,1.0,64.0
391,73.0,20,60,0.0,64.0
392,85.0,9,60,4.0,64.0
393,54.0,88,330,3.0,64.0
394,83.0,10,30,4.0,64.0
395,71.0,64,30,0.0,64.0
396,82.0,4,60,4.0,64.0
397,70.0,26,60,0.0,64.0
398,66.0,19,30,1.0,64.0
399,61.0,2,30,2.0,64.0
400,80.0,4,30,4.0,64.0
401,68.0,103,30,0.0,64.0
402,58.0,1,270,2.0,64.0
403,78.0,0,270,4.0,64.0
404,66.0,8,270,0.0,64.0
405,61.0,21,270,1.0,64.0
406,55.0,97,60,3.0,64.0
407,54.0,120,60,3.0,64.0
408,52.0,118,60,3.0,64.0
409,71.0,0,150,0.0,64.0
410,83.0,9,150,4.0,64.0
411,59.0,10,60,2.0,64.0
412,66.0,3,30,1.0,64.0
413,50.0,90,60,3.0,64.0
414,66.0,3,60,2.0,64.0
415,62.0,14,30,1.0,64.0
416,47.0,55,60,3.0,64.0
417,74.0,4,30,0.0,64.0
418,86.0,40,30,4.0,64.0
419,73.0,1,60,0.0,64.0
420,64.0,5,60,2.0,64.0
421,85.0,7,30,4.0,64.0
422,67.0,3,30,1.0,64.0
423,52.0,107,60,3.0,64.0
424,71.0,5,60,0.0,64.0
425,83.0,7,30,4.0,64.0
426,55.0,1,60,3.0,64.0
427,59.0,5,60,1.0,64.0
428,64.0,106,60,2.0,64.0
429,61.0,14,60,1.0,64.0
430,54.0,2,60,3.0,64.0
431,83.0,6,60,4.0,64.0
432,71.0,81,60,0.0,64.0
433,66.0,5,30,2.0,64.0
434,82.0,9,90,4.0,64.0
435,70.0,3,90,0.0,64.0
436,66.0,2,60,1.0,64.0
437,61.0,1,60,2.0,64.0
438,52.0,41,60,3.0,64.0
439,83.0,7,30,4.0,64.0
440,71.0,10,30,0.0,64.0
441,85.0,12,20,4.0,64.0
442,73.0,52,30,0.0,64.0
443,66.0,1,60,1.0,64.0
444,50.0,3,60,3.0,64.0
445,78.0,3,150,4.0,64.0
446,59.0,96,60,2.0,64.0
447,66.0,10,150,0.0,64.0
448,54.0,2,60,2.0,64.0
449,47.0,65,60,3.0,64.0
450,62.0,4,30,1.0,64.0
451,71.0,14,30,0.0,64.0
452,83.0,30,30,4.0,64.0
453,70.0,6,60,0.0,64.0
454,49.0,6,60,3.0,64.0
455,61.0,3,60,2.0,64.0
456,64.0,107,60,1.0,64.0
457,82.0,0,30,4.0,64.0
458,50.0,16,60,3.0,64.0
459,59.0,6,60,2.0,64.0
460,71.0,5,30,0.0,64.0
461,66.0,37,60,1.0,64.0
462,83.0,4,30,4.0,64.0
463,64.0,55,20,1.0,64.0
464,66.0,4,60,1.0,64.0
465,59.0,3,60,2.0,64.0
466,66.0,1,150,0.0,64.0
467,51.0,92,60,3.0,64.0
468,78.0,24,120,4.0,64.0
469,63.0,0,30,1.0,64.0
470,47.0,30,60,3.0,64.0
471,59.0,8,30,2.0,64.0
472,67.0,4,30,0.0,64.0
473,79.0,10,30,4.0,64.0
474,69.0,3,20,0.0,64.0
475,81.0,68,20,4.0,64.0
476,64.0,2,60,1.0,64.0
477,52.0,4,60,3.0,64.0
478,69.0,1,60,0.0,64.0
479,59.0,16,60,2.0,64.0
480,81.0,91,60,4.0,64.0
481,67.0,3,90,0.0,64.0
482,79.0,54,120,4.0,64.0
483,67.0,6,60,1.0,64.0
484,64.0,2,60,2.0,64.0
485,49.0,3,60,3.0,64.0
486,76.0,11,20,0.0,64.0
487,88.0,48,30,4.0,64.0
488,70.0,0,60,0.0,64.0
489,54.0,2,60,3.0,64.0
490,66.0,40,60,1.0,64.0
491,82.0,16,60,4.0,64.0
492,61.0,2,60,2.0,64.0
493,67.0,7,30,1.0,64.0
494,52.0,49,30,3.0,64.0
495,66.0,47,60,1.0,64.0
496,50.0,7,60,3.0,64.0
497,71.0,9,60,0.0,64.0
498,83.0,2,30,4.0,64.0
499,59.0,0,30,2.0,64.0
500,64.0,3,30,1.0,64.0
501,52.0,52,30,3.0,64.0
502,62.0,106,60,1.0,64.0
503,66.0,0,60,0.0,64.0
504,78.0,3,60,4.0,64.0
505,54.0,2,30,3.0,64.0
506,59.0,1,60,2.0,64.0
507,64.0,2,60,0.0,64.0
508,76.0,8,60,4.0,64.0
509,58.0,7,30,2.0,64.0
510,61.0,108,60,1.0,64.0
511,42.0,1,60,3.0,64.0
512,64.0,1,60,0.0,64.0
513,54.0,2,120,2.0,64.0
514,61.0,0,60,1.0,64.0
515,76.0,18,30,4.0,64.0
516,47.0,44,330,3.0,64.0
517,62.0,6,20,0.0,64.0
518,74.0,0,20,4.0,64.0
519,59.0,15,30,1.0,64.0
520,64.0,0,30,0.0,64.0
521,76.0,7,20,4.0,64.0
522,61.0,18,30,1.0,64.0
523,74.0,12,30,4.0,64.0
524,62.0,1,30,0.0,64.0
525,59.0,39,30,1.0,64.0
526,61.0,0,60,0.0,64.0
527,73.0,37,60,4.0,64.0
528,58.0,7,60,1.0,64.0
529,52.0,5,60,2.0,64.0
530,62.0,6,60,0.0,64.0
531,74.0,126,60,4.0,64.0
532,59.0,1,30,1.0,64.0
533,54.0,4,30,2.0,64.0
534,59.0,7,270,0.0,64.0
535,71.0,2,240,4.0,64.0
536,50.0,0,270,2.0,64.0
537,59.0,136,240,1.0,64.0
538,50.0,62,30,3.0,64.0
539,54.0,34,30,3.0,64.0
540,59.0,133,150,3.0,64.0
541,69.0,3,60,1.0,64.0
542,57.0,98,60,2.0,64.0
543,74.0,8,150,0.0,64.0
544,86.0,10,150,4.0,64.0
545,54.0,2,30,3.0,64.0
546,74.0,7,60,1.0,64.0
547,69.0,0,30,2.0,64.0
548,50.0,52,60,3.0,64.0
549,78.0,7,30,0.0,64.0
550,90.0,46,30,4.0,64.0
551,76.0,8,30,0.0,64.0
552,88.0,2,60,4.0,64.0
553,71.0,7,60,1.0,64.0
554,55.0,2,60,3.0,64.0
555,67.0,100,60,2.0,64.0
556,74.0,10,30,0.0,64.0
557,71.0,0,60,2.0,64.0
558,64.0,3,60,1.0,64.0
559,56.0,102,60,3.0,64.0
560,86.0,2,30,4.0,64.0
561,74.0,11,30,0.0,64.0
562,86.0,14,60,4.0,64.0
563,69.0,0,30,1.0,64.0
564,64.0,4,30,2.0,64.0
565,57.0,0,30,3.0,64.0
566,73.0,1,20,0.0,64.0
567,85.0,8,15,4.0,64.0
568,74.0,13,20,0.0,64.0
569,73.0,1,20,0.0,64.0
570,86.0,14,20,4.0,64.0
571,85.0,4,20,4.0,64.0
572,74.0,14,20,0.0,64.0
573,73.0,8,60,0.0,64.0
574,86.0,44,20,4.0,64.0
575,85.0,27,60,4.0,64.0
576,68.0,1,30,1.0,64.0
577,52.0,2,30,3.0,64.0
578,64.0,1,30,2.0,64.0
579,74.0,2,30,0.0,64.0
580,86.0,11,20,4.0,64.0
581,76.0,6,20,0.0,64.0
582,88.0,64,20,4.0,64.0
583,74.0,3,60,0.0,64.0
584,86.0,91,60,4.0,64.0
585,69.0,2,60,1.0,64.0
586,57.0,14,60,3.0,64.0
587,64.0,2,30,2.0,64.0
588,73.0,48,120,0.0,64.0
589,85.0,8,120,4.0,64.0
590,66.0,4,30,2.0,64.0
591,58.0,5,60,3.0,64.0
592,73.0,6,30,1.0,64.0
593,76.0,3,20,0.0,64.0
594,88.0,50,20,4.0,64.0
595,86.0,3,60,4.0,64.0
596,74.0,4,60,0.0,64.0
597,59.0,115,60,3.0,64.0
598,66.0,1,60,2.0,64.0
599,71.0,2,30,1.0,64.0
600,73.0,1,60,0.0,64.0
601,85.0,74,60,4.0,64.0
602,54.0,3,60,3.0,64.0
603,64.0,1,60,2.0,64.0
604,70.0,2,30,1.0,64.0
605,85.0,4,15,4.0,64.0
606,73.0,16,20,0.0,64.0
607,59.0,2,60,3.0,64.0
608,66.0,3,60,1.0,64.0
609,62.0,2,60,2.0,64.0
610,83.0,1,20,4.0,64.0
611,71.0,15,20,0.0,64.0
612,85.0,1,30,4.0,64.0
613,73.0,24,30,0.0,64.0
614,83.0,6,30,4.0,64.0
615,71.0,81,30,0.0,64.0
616,61.0,1,60,2.0,64.0
617,64.0,1,60,1.0,64.0
618,61.0,7,60,3.0,64.0
619,70.0,4,60,0.0,64.0
620,82.0,115,60,4.0,64.0
621,71.0,1,180,0.0,64.0
622,59.0,9,60,2.0,64.0
623,66.0,100,60,1.0,64.0
624,83.0,2,150,4.0,64.0
625,62.0,1,60,3.0,64.0
626,59.0,33,60,3.0,64.0
627,66.0,3,30,2.0,64.0
628,71.0,0,60,1.0,64.0
629,73.0,1,30,0.0,64.0
630,85.0,15,30,4.0,64.0
631,74.0,1,20,0.0,64.0
632,86.0,64,20,4.0,64.0
633,85.0,15,120,4.0,64.0
634,73.0,14,120,0.0,64.0
635,73.0,2,60,1.0,64.0
636,66.0,61,60,2.0,64.0
637,58.0,6,30,3.0,64.0
638,86.0,6,30,4.0,64.0
639,74.0,16,30,0.0,64.0
640,59.0,3,60,3.0,64.0
641,71.0,4,60,1.0,64.0
642,66.0,34,60,2.0,64.0
643,90.0,3,30,4.0,64.0
644,78.0,72,30,0.0,64.0
645,52.0,5,60,3.0,64.0
646,71.0,23,60,1.0,64.0
647,67.0,2,30,2.0,64.0
648,76.0,1,60,0.0,64.0
649,88.0,16,60,4.0,64.0
650,74.0,62,30,0.0,64.0
651,86.0,14,30,4.0,64.0
652,55.0,1,60,3.0,64.0
653,76.0,0,30,1.0,64.0
654,85.0,3,60,4.0,64.0
655,59.0,24,30,2.0,64.0
656,73.0,17,60,0.0,64.0
657,83.0,9,30,4.0,64.0
658,71.0,70,30,0.0,64.0
659,54.0,87,330,3.0,64.0
660,85.0,3,60,4.0,64.0
661,66.0,1,30,2.0,64.0
662,70.0,17,30,1.0,64.0
663,73.0,17,60,0.0,64.0
664,83.0,10,30,4.0,64.0
665,71.0,62,30,0.0,64.0
666,82.0,3,30,4.0,64.0
667,61.0,6,60,2.0,64.0
668,66.0,15,60,1.0,64.0
669,70.0,8,30,0.0,64.0
670,83.0,3,30,4.0,64.0
671,71.0,16,30,0.0,64.0
672,82.0,3,30,4.0,64.0
673,70.0,18,30,0.0,64.0
674,80.0,4,30,4.0,64.0
675,68.0,92,30,0.0,64.0
676,58.0,3,270,2.0,64.0
677,78.0,29,240,4.0,64.0
678,66.0,4,240,0.0,64.0
679,61.0,4,240,1.0,64.0
680,55.0,80,60,3.0,64.0
681,54.0,115,60,3.0,64.0
682,52.0,120,60,3.0,64.0
683,59.0,2,60,2.0,64.0
684,50.0,90,60,3.0,64.0
685,71.0,14,150,0.0,64.0
686,83.0,6,150,4.0,64.0
687,66.0,7,30,1.0,64.0
688,47.0,54,60,3.0,64.0
689,66.0,0,60,2.0,64.0
690,62.0,12,30,1.0,64.0
691,74.0,4,30,0.0,64.0
692,86.0,40,30,4.0,64.0
693,73.0,7,30,0.0,64.0
694,85.0,2,30,4.0,64.0
695,52.0,113,60,3.0,64.0
696,64.0,0,30,2.0,64.0
697,67.0,3,30,1.0,64.0
698,83.0,6,30,4.0,64.0
699,71.0,1,30,0.0,64.0
700,55.0,110,60,3.0,64.0
701,64.0,4,60,2.0,64.0
702,59.0,3,30,1.0,64.0
703,71.0,1,60,0.0,64.0
704,83.0,7,60,4.0,64.0
705,66.0,0,60,2.0,64.0
706,54.0,5,60,3.0,64.0
707,61.0,2,30,1.0,64.0
708,70.0,4,20,0.0,64.0
709,82.0,21,20,4.0,64.0
710,71.0,14,30,0.0,64.0
711,83.0,0,20,4.0,64.0
712,70.0,21,20,0.0,64.0
713,82.0,1,15,4.0,64.0
714,83.0,39,30,4.0,64.0
715,71.0,1,20,0.0,64.0
716,82.0,2,60,4.0,64.0
717,70.0,27,60,0.0,64.0
718,61.0,1,60,2.0,64.0
719,66.0,6,30,1.0,64.0
720,52.0,10,60,3.0,64.0
721,83.0,6,30,4.0,64.0
722,71.0,11,30,0.0,64.0
723,85.0,8,20,4.0,64.0
724,73.0,54,20,0.0,64.0
725,66.0,2,60,1.0,64.0
726,50.0,4,60,3.0,64.0
727,78.0,4,150,4.0,64.0
728,59.0,98,60,2.0,64.0
729,66.0,14,150,0.0,64.0
730,47.0,1,60,3.0,64.0
731,62.0,3,60,1.0,64.0
732,54.0,66,60,2.0,64.0
733,71.0,2,30,0.0,64.0
734,83.0,31,30,4.0,64.0
735,82.0,16,30,4.0,64.0
736,70.0,0,60,0.0,64.0
737,49.0,6,60,3.0,64.0
738,61.0,2,60,2.0,64.0
739,64.0,102,60,1.0,64.0
740,71.0,7,60,0.0,64.0
741,83.0,7,30,4.0,64.0
742,59.0,4,60,2.0,64.0
743,50.0,4,60,3.0,64.0
744,66.0,66,60,1.0,64.0
745,64.0,39,30,1.0,64.0
746,66.0,9,60,1.0,64.0
747,66.0,17,150,0.0,64.0
748,51.0,89,60,3.0,64.0
749,59.0,3,60,2.0,64.0
750,78.0,1,150,4.0,64.0
751,63.0,6,30,1.0,64.0
752,59.0,32,60,2.0,64.0
753,47.0,3,30,3.0,64.0
754,67.0,1,30,0.0,64.0
755,79.0,11,30,4.0,64.0
756,69.0,2,20,0.0,64.0
757,81.0,70,20,4.0,64.0
758,64.0,7,60,1.0,64.0
759,59.0,16,60,2.0,64.0
760,69.0,1,60,0.0,64.0
761,52.0,3,60,3.0,64.0
762,81.0,93,60,4.0,64.0
763,67.0,0,120,0.0,64.0
764,79.0,1,90,4.0,64.0
765,67.0,4,60,1.0,64.0
766,49.0,2,60,3.0,64.0
767,64.0,56,60,2.0,64.0
768,76.0,9,20,0.0,64.0
769,88.0,50,30,4.0,64.0
770,70.0,2,60,0.0,64.0
771,66.0,1,60,1.0,64.0
772,54.0,5,60,3.0,64.0
773,82.0,56,60,4.0,64.0
774,61.0,0,60,2.0,64.0
775,67.0,11,30,1.0,64.0
776,52.0,38,30,3.0,64.0
777,66.0,8,30,1.0,64.0
778,71.0,8,60,0.0,64.0
779,59.0,1,60,2.0,64.0
780,50.0,54,60,3.0,64.0
781,83.0,1,30,4.0,64.0
782,64.0,46,30,1.0,64.0
783,52.0,4,20,3.0,64.0
784,66.0,4,60,0.0,64.0
785,78.0,3,30,4.0,64.0
786,59.0,2,30,2.0,64.0
787,62.0,111,60,1.0,64.0
788,54.0,4,30,3.0,64.0
789,64.0,2,60,0.0,64.0
790,61.0,4,60,1.0,64.0
791,76.0,3,60,4.0,64.0
792,58.0,1,60,2.0,64.0
793,42.0,94,60,3.0,64.0
794,64.0,6,60,0.0,64.0
795,61.0,4,30,1.0,64.0
796,76.0,7,30,4.0,64.0
797,47.0,57,330,3.0,64.0
798,55.0,9,30,2.0,64.0
799,59.0,0,20,1.0,64.0
800,74.0,3,15,4.0,64.0
801,62.0,10,20,0.0,64.0
802,54.0,1,20,2.0,64.0
803,76.0,0,20,4.0,64.0
804,61.0,7,20,1.0,64.0
805,64.0,2,20,0.0,64.0
806,74.0,5,15,4.0,64.0
807,55.0,5,20,2.0,64.0
808,59.0,0,20,1.0,64.0
809,62.0,6,15,0.0,64.0
810,76.0,8,20,4.0,64.0
811,61.0,13,20,1.0,64.0
812,54.0,35,60,2.0,64.0
813,64.0,1,15,0.0,64.0
814,74.0,6,30,4.0,64.0
815,59.0,1,20,1.0,64.0
816,62.0,10,30,0.0,64.0
817,55.0,2,15,2.0,64.0
818,58.0,2,60,1.0,64.0
819,73.0,3,60,4.0,64.0
820,61.0,13,60,0.0,64.0
821,52.0,23,60,2.0,64.0
822,62.0,7,60,0.0,64.0
823,59.0,18,30,1.0,64.0
824,74.0,1,60,4.0,64.0
825,54.0,94,60,2.0,64.0
826,59.0,1,270,0.0,64.0
827,59.0,119,270,1.0,64.0
828,71.0,8,240,4.0,64.0
829,50.0,4,270,2.0,64.0
830,50.0,59,30,3.0,64.0
831,54.0,47,30,3.0,64.0
832,59.0,163,150,3.0,64.0
833,71.0,57,60,4.0,64.0
834,59.0,22,150,3.0,64.0
835,74.0,30,60,4.0,64.0
836,78.0,53,60,4.0,64.0
837,83.0,6,60,4.0,64.0
838,62.0,44,30,3.0,64.0
839,61.0,10,30,3.0,64.0
840,82.0,45,60,4.0,64.0
841,78.0,67,30,4.0,64.0
842,59.0,40,60,3.0,64.0
843,83.0,7,30,4.0,64.0
844,78.0,68,30,4.0,64.0
845,59.0,24,60,3.0,64.0
846,85.0,28,30,4.0,64.0
847,58.0,30,90,3.0,64.0
848,78.0,67,30,4.0,64.0
849,85.0,17,60,4.0,64.0
850,86.0,16,30,4.0,64.0
851,59.0,8,30,3.0,64.0
852,61.0,1,30,3.0,64.0
853,88.0,52,30,4.0,64.0
854,86.0,26,30,4.0,64.0
855,59.0,39,150,3.0,64.0
856,85.0,26,30,4.0,64.0
857,83.0,18,30,4.0,64.0
858,82.0,37,20,4.0,64.0
859,83.0,18,30,4.0,64.0
860,78.0,35,20,4.0,64.0
861,62.0,38,30,3.0,64.0
862,76.0,12,30,4.0,64.0
863,61.0,13,60,3.0,64.0
864,78.0,40,30,4.0,64.0
865,79.0,30,30,4.0,64.0
866,78.0,17,60,4.0,64.0
867,59.0,10,60,3.0,64.0
868,76.0,19,30,4.0,64.0
869,74.0,26,30,4.0,64.0
870,73.0,28,30,4.0,64.0
871,71.0,41,30,4.0,64.0
872,70.0,26,30,4.0,64.0
873,61.0,28,60,3.0,64.0
874,59.0,55,30,3.0,64.0
875,79.0,2,30,4.0,64.0
876,58.0,7,30,3.0,64.0
877,78.0,52,30,4.0,64.0
878,61.0,66,30,3.0,64.0
879,76.0,7,20,4.0,64.0
880,74.0,21,30,4.0,64.0
881,59.0,24,150,3.0,64.0
882,73.0,31,30,4.0,64.0
883,71.0,24,30,4.0,64.0
884,73.0,39,30,4.0,64.0
885,74.0,3,30,4.0,64.0
886,76.0,31,30,4.0,64.0
887,78.0,23,30,4.0,64.0
888,79.0,10,30,4.0,64.0
889,62.0,32,30,3.0,64.0
890,81.0,9,30,4.0,64.0
891,61.0,44,30,3.0,64.0
892,79.0,27,30,4.0,64.0
893,78.0,36,30,4.0,64.0
894,59.0,56,30,3.0,64.0
895,79.0,7,30,4.0,64.0
896,86.0,62,30,4.0,64.0
897,57.0,46,60,3.0,64.0
898,78.0,6,30,4.0,64.0
899,86.0,68,30,4.0,64.0
900,76.0,16,30,4.0,64.0
901,55.0,40,60,3.0,64.0
902,85.0,57,30,4.0,64.0
903,86.0,12,30,4.0,64.0
904,55.0,18,60,3.0,64.0
905,54.0,29,20,3.0,64.0
906,69.0,19,60,4.0,64.0
907,55.0,12,30,3.0,64.0
908,54.0,36,30,3.0,64.0
909,52.0,42,60,3.0,64.0
910,67.0,19,30,4.0,64.0
911,54.0,58,60,3.0,64.0
912,69.0,7,30,4.0,64.0
913,66.0,49,30,4.0,64.0
914,50.0,29,240,3.0,64.0
915,81.0,74,30,4.0,64.0
916,64.0,48,30,4.0,64.0
917,79.0,44,30,4.0,64.0
918,62.0,47,30,4.0,64.0
919,78.0,69,30,4.0,64.0
920,70.0,48,30,4.0,64.0
921,76.0,95,30,4.0,64.0
922,59.0,10,150,3.0,64.0
923,71.0,57,60,4.0,64.0
924,74.0,42,60,4.0,64.0
925,78.0,53,60,4.0,64.0
926,83.0,12,60,4.0,64.0
927,62.0,47,30,3.0,64.0
928,61.0,1,60,3.0,64.0
929,82.0,42,60,4.0,64.0
930,78.0,76,30,4.0,64.0
931,59.0,33,60,3.0,64.0
932,83.0,12,30,4.0,64.0
933,78.0,70,30,4.0,64.0
934,59.0,5,60,3.0,64.0
935,85.0,13,30,4.0,64.0
936,58.0,23,20,3.0,64.0
937,59.0,9,20,3.0,64.0
938,78.0,5,30,4.0,64.0
939,58.0,26,15,3.0,64.0
940,59.0,60,30,3.0,64.0
941,58.0,9,60,3.0,64.0
942,85.0,25,60,4.0,64.0
943,86.0,1,30,4.0,64.0
944,59.0,16,30,3.0,64.0
945,88.0,3,20,4.0,64.0
946,61.0,48,30,3.0,64.0
947,86.0,28,30,4.0,64.0
948,59.0,48,150,3.0,64.0
949,85.0,27,30,4.0,64.0
950,83.0,17,30,4.0,64.0
951,82.0,39,30,4.0,64.0
952,83.0,11,30,4.0,64.0
953,78.0,21,20,4.0,64.0
954,62.0,47,30,3.0,64.0
955,61.0,26,60,3.0,64.0
956,76.0,2,30,4.0,64.0
957,78.0,38,30,4.0,64.0
958,79.0,30,30,4.0,64.0
959,78.0,17,30,4.0,64.0
960,59.0,11,60,3.0,64.0
961,76.0,12,30,4.0,64.0
962,74.0,28,30,4.0,64.0
963,73.0,30,30,4.0,64.0
964,71.0,41,30,4.0,64.0
965,61.0,22,60,3.0,64.0
966,70.0,28,30,4.0,64.0
967,59.0,35,60,3.0,64.0
968,79.0,22,30,4.0,64.0
969,78.0,54,30,4.0,64.0
970,58.0,9,30,3.0,64.0
971,76.0,2,30,4.0,64.0
972,61.0,66,30,3.0,64.0
973,74.0,28,30,4.0,64.0
974,59.0,19,150,3.0,64.0
975,73.0,30,30,4.0,64.0
976,71.0,25,30,4.0,64.0
977,73.0,40,30,4.0,64.0
978,74.0,11,30,4.0,64.0
979,76.0,28,30,4.0,64.0
980,78.0,24,30,4.0,64.0
981,79.0,6,30,4.0,64.0
982,62.0,34,30,3.0,64.0
983,81.0,5,30,4.0,64.0
984,61.0,48,30,3.0,64.0
985,79.0,26,30,4.0,64.0
986,78.0,31,30,4.0,64.0
987,79.0,16,30,4.0,64.0
988,59.0,49,60,3.0,64.0
989,86.0,70,30,4.0,64.0
990,57.0,45,60,3.0,64.0
991,78.0,2,30,4.0,64.0
992,86.0,70,20,4.0,64.0
993,55.0,52,60,3.0,64.0
994,76.0,6,30,4.0,64.0
995,85.0,58,30,4.0,64.0
996,55.0,19,60,3.0,64.0
997,86.0,10,30,4.0,64.0
998,54.0,27,20,3.0,64.0
999,55.0,8,30,3.0,64.0
1000,69.0,23,30,4.0,64.0
1001,54.0,35,30,3.0,64.0
1002,52.0,39,60,3.0,64.0
1003,67.0,20,30,4.0,64.0
1004,54.0,61,60,3.0,64.0
1005,69.0,5,30,4.0,64.0
1006,50.0,17,240,3.0,64.0
1007,66.0,53,30,4.0,64.0
1008,81.0,67,30,4.0,64.0
1009,64.0,48,30,4.0,64.0
1010,79.0,45,30,4.0,64.0
1011,62.0,60,30,4.0,64.0
1012,78.0,27,30,4.0,64.0
1013,79.0,24,30,4.0,64.0
1014,81.0,68,30,4.0,64.0
1015,78.0,99,30,4.0,64.0
1016,74.0,46,60,4.0,64.0
1017,62.0,15,150,3.0,64.0
1018,78.0,37,60,4.0,64.0
1019,81.0,48,60,4.0,64.0
1020,86.0,19,30,4.0,64.0
1021,66.0,42,30,3.0,64.0
1022,80.0,8,30,4.0,64.0
1023,64.0,52,60,3.0,64.0
1024,76.0,66,30,4.0,64.0
1025,62.0,45,60,3.0,64.0
1026,83.0,8,30,4.0,64.0
1027,76.0,65,30,4.0,64.0
1028,62.0,34,60,3.0,64.0
1029,81.0,22,30,4.0,64.0
1030,76.0,58,30,4.0,64.0
1031,61.0,44,120,3.0,64.0
1032,80.0,10,30,4.0,64.0
1033,62.0,2,30,3.0,64.0
1034,76.0,12,30,4.0,64.0
1035,64.0,63,30,3.0,64.0
1036,81.0,33,60,4.0,64.0
1037,62.0,8,90,3.0,64.0
1038,80.0,11,60,4.0,64.0
1039,78.0,12,60,4.0,64.0
1040,76.0,22,30,4.0,64.0
1041,61.0,15,90,3.0,64.0
1042,74.0,31,30,4.0,64.0
1043,73.0,21,30,4.0,64.0
1044,71.0,20,30,4.0,64.0
1045,69.0,33,30,4.0,64.0
1046,64.0,13,30,3.0,64.0
1047,71.0,23,30,4.0,64.0
1048,62.0,36,30,3.0,64.0
1049,74.0,66,30,4.0,64.0
1050,76.0,24,30,4.0,64.0
1051,61.0,31,60,3.0,64.0
1052,79.0,51,30,4.0,64.0
1053,61.0,18,20,3.0,64.0
1054,85.0,14,30,4.0,64.0
1055,59.0,8,20,3.0,64.0
1056,61.0,33,20,3.0,64.0
1057,59.0,13,30,3.0,64.0
1058,79.0,73,30,4.0,64.0
1059,58.0,37,60,3.0,64.0
1060,78.0,3,60,4.0,64.0
1061,76.0,80,20,4.0,64.0
1062,59.0,8,150,3.0,64.0
1063,74.0,31,30,4.0,64.0
1064,71.0,22,30,4.0,64.0
1065,70.0,23,30,4.0,64.0
1066,71.0,22,30,4.0,64.0
1067,73.0,37,30,4.0,64.0
1068,74.0,3,30,4.0,64.0
1069,61.0,15,30,3.0,64.0
1070,62.0,5,30,3.0,64.0
1071,76.0,15,30,4.0,64.0
1072,78.0,40,15,4.0,64.0
1073,61.0,18,90,3.0,64.0
1074,76.0,32,30,4.0,64.0
1075,73.0,12,30,4.0,64.0
1076,71.0,24,30,4.0,64.0
1077,73.0,32,30,4.0,64.0
1078,66.0,2,60,3.0,64.0
1079,74.0,26,30,4.0,64.0
1080,76.0,28,30,4.0,64.0
1081,78.0,21,30,4.0,64.0
1082,79.0,48,30,4.0,64.0
1083,64.0,39,60,3.0,64.0
1084,78.0,16,30,4.0,64.0
1085,62.0,52,60,3.0,64.0
1086,83.0,15,30,4.0,64.0
1087,61.0,46,60,3.0,64.0
1088,85.0,1,30,4.0,64.0
1089,59.0,9,30,3.0,64.0
1090,86.0,63,30,4.0,64.0
1091,61.0,39,60,3.0,64.0
1092,88.0,20,30,4.0,64.0
1093,59.0,2,60,3.0,64.0
1094,79.0,44,30,4.0,64.0
1095,58.0,11,30,3.0,64.0
1096,78.0,47,30,4.0,64.0
1097,56.0,5,30,3.0,64.0
1098,76.0,69,30,4.0,64.0
1099,78.0,52,30,4.0,64.0
1100,54.0,28,360,3.0,64.0
1101,86.0,64,30,4.0,64.0
1102,76.0,54,30,4.0,64.0
1103,85.0,73,30,4.0,64.0
1104,74.0,38,60,4.0,64.0
1105,83.0,47,30,4.0,64.0
1106,73.0,49,30,4.0,64.0
1107,82.0,116,30,4.0,64.0
1108,59.0,11,150,3.0,64.0
1109,71.0,40,60,4.0,64.0
1110,74.0,39,60,4.0,64.0
1111,78.0,55,60,4.0,64.0
1112,83.0,11,30,4.0,64.0
1113,62.0,52,30,3.0,64.0
1114,61.0,0,60,3.0,64.0
1115,82.0,47,30,4.0,64.0
1116,78.0,58,30,4.0,64.0
1117,59.0,11,30,3.0,64.0
1118,83.0,50,30,4.0,64.0
1119,78.0,75,30,4.0,64.0
1120,59.0,14,90,3.0,64.0
1121,85.0,27,60,4.0,64.0
1122,78.0,67,30,4.0,64.0
1123,58.0,5,90,3.0,64.0
1124,85.0,46,30,4.0,64.0
1125,59.0,5,30,3.0,64.0
1126,86.0,16,30,4.0,64.0
1127,61.0,62,30,3.0,64.0
1128,88.0,27,30,4.0,64.0
1129,54.0,61,150,3.0,64.0
1130,86.0,22,60,4.0,64.0
1131,85.0,25,30,4.0,64.0
1132,83.0,27,30,4.0,64.0
1133,82.0,7,30,4.0,64.0
1134,79.0,16,30,4.0,64.0
1135,59.0,36,30,3.0,64.0
1136,58.0,53,60,3.0,64.0
1137,78.0,15,30,4.0,64.0
1138,88.0,63,30,4.0,64.0
1139,59.0,3,30,3.0,64.0
1140,86.0,51,30,4.0,64.0
1141,83.0,72,30,4.0,64.0
1142,54.0,14,150,3.0,64.0
1143,84.0,35,60,4.0,64.0
1144,81.0,54,30,4.0,64.0
1145,75.0,47,30,4.0,64.0
1146,55.0,19,30,3.0,64.0
1147,84.0,3,20,4.0,64.0
1148,57.0,68,30,3.0,64.0
1149,83.0,32,60,4.0,64.0
1150,57.0,10,90,3.0,64.0
1151,81.0,6,60,4.0,64.0
1152,79.0,24,30,4.0,64.0
1153,55.0,48,90,3.0,64.0
1154,78.0,38,30,4.0,64.0
1155,76.0,13,30,4.0,64.0
1156,79.0,14,30,4.0,64.0
1157,64.0,44,30,3.0,64.0
1158,78.0,21,30,4.0,64.0
1159,58.0,35,60,3.0,64.0
1160,73.0,70,30,4.0,64.0
1161,59.0,46,60,3.0,64.0
1162,74.0,11,30,4.0,64.0
1163,71.0,65,30,4.0,64.0
1164,54.0,55,60,3.0,64.0
1165,73.0,5,30,4.0,64.0
1166,76.0,57,30,4.0,64.0
1167,52.0,36,60,3.0,64.0
1168,78.0,20,30,4.0,64.0
1169,82.0,62,30,4.0,64.0
1170,52.0,22,60,3.0,64.0
1171,83.0,6,30,4.0,64.0
1172,50.0,19,30,3.0,64.0
1173,78.0,15,30,4.0,64.0
1174,52.0,12,20,3.0,64.0
1175,50.0,43,30,3.0,64.0
1176,49.0,42,60,3.0,64.0
1177,76.0,16,30,4.0,64.0
1178,50.0,56,60,3.0,64.0
1179,78.0,13,30,4.0,64.0
1180,47.0,14,270,3.0,64.0
1181,74.0,60,30,4.0,64.0
1182,78.0,15,30,4.0,64.0
1183,76.0,23,30,4.0,64.0
1184,74.0,32,30,4.0,64.0
1185,73.0,31,30,4.0,64.0
1186,71.0,24,30,4.0,64.0
1187,70.0,29,30,4.0,64.0
1188,71.0,58,30,4.0,64.0
1189,79.0,65,30,4.0,64.0
1190,78.0,54,30,4.0,64.0
1191,76.0,86,30,4.0,64.0
1192,62.0,6,150,3.0,64.0
1193,74.0,57,60,4.0,64.0
1194,78.0,44,60,4.0,64.0
1195,81.0,57,30,4.0,64.0
1196,86.0,18,30,4.0,64.0
1197,66.0,45,30,3.0,64.0
1198,64.0,62,30,3.0,64.0
1199,80.0,1,30,4.0,64.0
1200,76.0,61,30,4.0,64.0
1201,62.0,45,60,3.0,64.0
1202,83.0,8,30,4.0,64.0
1203,76.0,60,30,4.0,64.0
1204,62.0,6,60,3.0,64.0
1205,81.0,14,60,4.0,64.0
1206,61.0,18,20,3.0,64.0
1207,62.0,14,20,3.0,64.0
1208,76.0,6,30,4.0,64.0
1209,61.0,20,20,3.0,64.0
1210,62.0,44,20,3.0,64.0
1211,61.0,36,60,3.0,64.0
1212,80.0,7,30,4.0,64.0
1213,62.0,8,30,3.0,64.0
1214,76.0,8,30,4.0,64.0
1215,64.0,71,20,3.0,64.0
1216,62.0,3,90,3.0,64.0
1217,81.0,28,60,4.0,64.0
1218,80.0,18,60,4.0,64.0
1219,78.0,11,60,4.0,64.0
1220,61.0,29,90,3.0,64.0
1221,76.0,23,30,4.0,64.0
1222,74.0,32,30,4.0,64.0
1223,73.0,7,30,4.0,64.0
1224,71.0,21,30,4.0,64.0
1225,69.0,13,30,4.0,64.0
1226,64.0,35,30,3.0,64.0
1227,71.0,14,30,4.0,64.0
1228,62.0,48,60,3.0,64.0
1229,74.0,57,30,4.0,64.0
1230,76.0,31,30,4.0,64.0
1231,61.0,19,60,3.0,64.0
1232,79.0,51,30,4.0,64.0
1233,61.0,21,20,3.0,64.0
1234,85.0,20,30,4.0,64.0
1235,59.0,2,20,3.0,64.0
1236,61.0,29,30,3.0,64.0
1237,59.0,45,30,3.0,64.0
1238,79.0,3,30,4.0,64.0
1239,79.0,16,20,4.0,64.0
1240,58.0,16,60,3.0,64.0
1241,78.0,24,15,4.0,64.0
1242,79.0,2,20,4.0,64.0
1243,78.0,15,30,4.0,64.0
1244,76.0,65,30,4.0,64.0
1245,74.0,29,30,4.0,64.0
1246,59.0,25,150,3.0,64.0
1247,71.0,26,30,4.0,64.0
1248,70.0,27,30,4.0,64.0
1249,71.0,26,30,4.0,64.0
1250,73.0,15,30,4.0,64.0
1251,74.0,22,30,4.0,64.0
1252,61.0,2,30,3.0,64.0
1253,76.0,16,30,4.0,64.0
1254,62.0,42,30,3.0,64.0
1255,78.0,1,20,4.0,64.0
1256,76.0,30,30,4.0,64.0
1257,61.0,3,120,3.0,64.0
1258,73.0,34,30,4.0,64.0
1259,71.0,23,30,4.0,64.0
1260,73.0,35,30,4.0,64.0
1261,62.0,1,30,3.0,64.0
1262,74.0,26,30,4.0,64.0
1263,76.0,27,30,4.0,64.0
1264,78.0,20,30,4.0,64.0
1265,66.0,3,30,3.0,64.0
1266,79.0,48,30,4.0,64.0
1267,78.0,38,30,4.0,64.0
1268,64.0,22,60,3.0,64.0
1269,83.0,11,30,4.0,64.0
1270,62.0,44,30,3.0,64.0
1271,61.0,14,30,3.0,64.0
1272,85.0,46,30,4.0,64.0
1273,59.0,10,30,3.0,64.0
1274,86.0,67,30,4.0,64.0
1275,61.0,30,60,3.0,64.0
1276,88.0,19,30,4.0,64.0
1277,59.0,6,30,3.0,64.0
1278,79.0,48,30,4.0,64.0
1279,58.0,7,30,3.0,64.0
1280,78.0,27,30,4.0,64.0
1281,59.0,23,30,3.0,64.0
1282,58.0,8,30,3.0,64.0
1283,76.0,18,30,4.0,64.0
1284,56.0,48,30,3.0,64.0
1285,78.0,54,30,4.0,64.0
1286,54.0,53,360,3.0,64.0
1287,86.0,68,30,4.0,64.0
1288,76.0,52,30,4.0,64.0
1289,85.0,70,30,4.0,64.0
1290,74.0,44,60,4.0,64.0
1291,83.0,28,30,4.0,64.0
1292,73.0,34,60,4.0,64.0
1293,82.0,111,30,4.0,64.0
1294,59.0,21,150,3.0,64.0
1295,71.0,48,60,4.0,64.0
1296,74.0,26,60,4.0,64.0
1297,78.0,56,30,4.0,64.0
1298,83.0,3,30,4.0,64.0
1299,62.0,65,30,3.0,64.0
1300,61.0,46,60,3.0,64.0
1301,82.0,2,60,4.0,64.0
1302,78.0,68,30,4.0,64.0
1303,59.0,36,60,3.0,64.0
1304,83.0,10,30,4.0,64.0
1305,78.0,67,30,4.0,64.0
1306,59.0,8,60,3.0,64.0
1307,85.0,9,30,4.0,64.0
1308,58.0,23,20,3.0,64.0
1309,59.0,5,20,3.0,64.0
1310,78.0,10,30,4.0,64.0
1311,58.0,28,20,3.0,64.0
1312,59.0,38,30,3.0,64.0
1313,58.0,32,60,3.0,64.0
1314,85.0,12,30,4.0,64.0
1315,59.0,4,30,3.0,64.0
1316,86.0,21,30,4.0,64.0
1317,61.0,54,30,3.0,64.0
1318,88.0,25,30,4.0,64.0
1319,54.0,62,150,3.0,64.0
1320,86.0,23,30,4.0,64.0
1321,85.0,29,30,4.0,64.0
1322,83.0,28,30,4.0,64.0
1323,82.0,4,30,4.0,64.0
1324,79.0,19,30,4.0,64.0
1325,59.0,42,30,3.0,64.0
1326,58.0,56,60,3.0,64.0
1327,78.0,6,30,4.0,64.0
1328,88.0,66,30,4.0,64.0
1329,59.0,45,60,3.0,64.0
1330,86.0,9,30,4.0,64.0
1331,83.0,75,30,4.0,64.0
1332,54.0,7,150,3.0,64.0
1333,84.0,42,60,4.0,64.0
1334,81.0,58,30,4.0,64.0
1335,75.0,40,30,4.0,64.0
1336,55.0,4,30,3.0,64.0
1337,84.0,14,20,4.0,64.0
1338,57.0,72,30,3.0,64.0
1339,57.0,12,90,3.0,64.0
1340,83.0,34,30,4.0,64.0
1341,81.0,5,60,4.0,64.0
1342,79.0,23,30,4.0,64.0
1343,55.0,44,90,3.0,64.0
1344,78.0,37,30,4.0,64.0
1345,76.0,12,30,4.0,64.0
1346,79.0,6,30,4.0,64.0
1347,64.0,54,30,3.0,64.0
1348,58.0,39,60,3.0,64.0
1349,78.0,22,30,4.0,64.0
1350,73.0,68,30,4.0,64.0
1351,59.0,49,60,3.0,64.0
1352,74.0,5,30,4.0,64.0
1353,71.0,63,30,4.0,64.0
1354,54.0,45,60,3.0,64.0
1355,73.0,11,30,4.0,64.0
1356,76.0,66,30,4.0,64.0
1357,52.0,49,60,3.0,64.0
1358,78.0,7,30,4.0,64.0
1359,82.0,57,30,4.0,64.0
1360,52.0,19,60,3.0,64.0
1361,83.0,4,30,4.0,64.0
1362,50.0,24,20,3.0,64.0
1363,52.0,19,30,3.0,64.0
1364,78.0,16,30,4.0,64.0
1365,50.0,34,30,3.0,64.0
1366,49.0,33,60,3.0,64.0
1367,76.0,22,30,4.0,64.0
1368,50.0,45,60,3.0,64.0
1369,78.0,25,30,4.0,64.0
1370,74.0,59,30,4.0,64.0
1371,47.0,128,390,3.0,64.0
1372,71.0,68,30,4.0,64.0
1373,74.0,61,30,4.0,64.0
1374,78.0,158,30,4.0,64.0
1375,83.0,3,120,4.0,64.0
1376,71.0,15,150,0.0,64.0
1377,66.0,10,30,1.0,64.0
1378,83.0,3,150,4.0,64.0
1379,59.0,9,30,2.0,64.0
1380,50.0,93,30,3.0,64.0
1381,62.0,0,30,1.0,64.0
1382,66.0,5,30,2.0,64.0
1383,47.0,58,30,3.0,64.0
1384,74.0,4,30,0.0,64.0
1385,86.0,48,30,4.0,64.0
1386,73.0,2,30,0.0,64.0
1387,85.0,0,30,4.0,64.0
1388,67.0,7,30,1.0,64.0
1389,52.0,1,60,3.0,64.0
1390,64.0,114,30,2.0,64.0
1391,71.0,1,60,0.0,64.0
1392,83.0,0,60,4.0,64.0
1393,55.0,115,60,3.0,64.0
1394,64.0,0,30,2.0,64.0
1395,59.0,3,30,1.0,64.0
1396,83.0,93,60,4.0,64.0
1397,71.0,1,60,0.0,64.0
1398,54.0,1,30,3.0,64.0
1399,61.0,22,30,1.0,64.0
1400,66.0,0,30,2.0,64.0
1401,70.0,3,120,0.0,64.0
1402,82.0,31,120,4.0,64.0
1403,61.0,1,30,2.0,64.0
1404,66.0,5,30,1.0,64.0
1405,52.0,11,60,3.0,64.0
1406,83.0,5,30,4.0,64.0
1407,71.0,15,30,0.0,64.0
1408,85.0,2,30,4.0,64.0
1409,73.0,45,20,0.0,64.0
1410,50.0,106,60,3.0,64.0
1411,66.0,2,30,1.0,64.0
1412,62.0,5,30,2.0,64.0
1413,71.0,4,150,0.0,64.0
1414,83.0,64,150,4.0,64.0
1415,66.0,10,30,2.0,64.0
1416,47.0,7,60,3.0,64.0
1417,71.0,0,30,1.0,64.0
1418,74.0,4,30,0.0,64.0
1419,86.0,36,30,4.0,64.0
1420,54.0,5,60,3.0,64.0
1421,64.0,2,60,2.0,64.0
1422,70.0,6,30,1.0,64.0
1423,85.0,2,30,4.0,64.0
1424,73.0,101,60,0.0,64.0
1425,55.0,113,60,3.0,64.0
1426,62.0,5,30,2.0,64.0
1427,71.0,5,30,1.0,64.0
1428,83.0,2,30,4.0,64.0
1429,71.0,5,30,0.0,64.0
1430,73.0,43,90,0.0,64.0
1431,85.0,8,60,4.0,64.0
1432,52.0,21,60,3.0,64.0
1433,64.0,0,30,2.0,64.0
1434,67.0,3,30,1.0,64.0
1435,83.0,1,60,4.0,64.0
1436,71.0,28,60,0.0,64.0
1437,61.0,1,30,2.0,64.0
1438,54.0,30,60,3.0,64.0
1439,66.0,10,30,1.0,64.0
1440,70.0,2,30,0.0,64.0
1441,82.0,6,30,4.0,64.0
1442,85.0,6,20,4.0,64.0
1443,73.0,81,20,0.0,64.0
1444,62.0,4,30,2.0,64.0
1445,66.0,9,30,1.0,64.0
1446,50.0,96,60,3.0,64.0
1447,83.0,1,150,4.0,64.0
1448,71.0,14,150,0.0,64.0
1449,66.0,9,60,2.0,64.0
1450,71.0,0,30,1.0,64.0
1451,47.0,59,60,3.0,64.0
1452,74.0,46,30,0.0,64.0
1453,86.0,0,30,4.0,64.0
1454,85.0,3,30,4.0,64.0
1455,73.0,1,60,0.0,64.0
1456,64.0,103,60,2.0,64.0
1457,67.0,8,30,1.0,64.0
1458,52.0,1,30,3.0,64.0
1459,83.0,4,30,4.0,64.0
1460,71.0,3,30,0.0,64.0
1461,66.0,6,60,2.0,64.0
1462,66.0,1,30,1.0,64.0
1463,50.0,59,60,3.0,64.0
1464,67.0,52,20,2.0,64.0
1465,81.0,0,60,4.0,64.0
1466,69.0,2,60,2.0,64.0
1467,69.0,1,60,0.0,64.0
1468,64.0,116,60,1.0,64.0
1469,49.0,1,30,3.0,64.0
1470,61.0,3,60,2.0,64.0
1471,79.0,4,60,4.0,64.0
1472,67.0,111,60,0.0,64.0
1473,64.0,0,30,1.0,64.0
1474,45.0,0,30,3.0,64.0
1475,64.0,7,60,1.0,64.0
1476,79.0,2,60,4.0,64.0
1477,59.0,8,60,2.0,64.0
1478,67.0,0,60,0.0,64.0
1479,50.0,44,330,3.0,64.0
1480,78.0,4,20,4.0,64.0
1481,57.0,5,20,2.0,64.0
1482,62.0,6,20,1.0,64.0
1483,66.0,4,20,0.0,64.0
1484,79.0,3,20,4.0,64.0
1485,59.0,10,20,2.0,64.0
1486,67.0,12,30,0.0,64.0
1487,64.0,3,20,1.0,64.0
1488,57.0,2,20,2.0,64.0
1489,78.0,2,15,4.0,64.0
1490,66.0,5,30,0.0,64.0
1491,62.0,47,30,1.0,64.0
1492,79.0,0,20,4.0,64.0
1493,59.0,14,15,2.0,64.0
1494,57.0,1,30,2.0,64.0
1495,78.0,1,30,4.0,64.0
1496,64.0,0,60,0.0,64.0
1497,55.0,3,60,2.0,64.0
1498,61.0,42,60,1.0,64.0
1499,76.0,2,60,4.0,64.0
1500,66.0,4,60,0.0,64.0
1501,78.0,6,60,4.0,64.0
1502,57.0,5,60,2.0,64.0
1503,62.0,105,60,1.0,64.0
1504,74.0,6,240,4.0,64.0
1505,62.0,2,240,0.0,64.0
1506,54.0,9,240,2.0,64.0
1507,57.0,111,270,1.0,64.0
1508,45.0,56,30,3.0,64.0
1509,42.0,45,30,3.0,64.0
1510,38.0,142,120,3.0,64.0
1511,50.0,0,60,3.0,64.0
1512,59.0,106,30,2.0,64.0
1513,83.0,11,150,4.0,64.0
1514,66.0,11,30,1.0,64.0
1515,71.0,5,150,0.0,64.0
1516,66.0,4,30,2.0,64.0
1517,62.0,1,30,1.0,64.0
1518,47.0,60,60,3.0,64.0
1519,74.0,3,30,0.0,64.0
1520,86.0,42,30,4.0,64.0
1521,73.0,4,60,0.0,64.0
1522,85.0,1,60,4.0,64.0
1523,64.0,6,60,2.0,64.0
1524,67.0,5,30,1.0,64.0
1525,52.0,111,60,3.0,64.0
1526,71.0,2,60,0.0,64.0
1527,83.0,3,60,4.0,64.0
1528,55.0,100,60,3.0,64.0
1529,64.0,1,30,2.0,64.0
1530,59.0,3,30,1.0,64.0
1531,83.0,0,60,4.0,64.0
1532,71.0,5,30,0.0,64.0
1533,61.0,3,30,1.0,64.0
1534,54.0,5,30,3.0,64.0
1535,66.0,4,30,2.0,64.0
1536,70.0,7,20,0.0,64.0
1537,82.0,15,20,4.0,64.0
1538,71.0,6,20,0.0,64.0
1539,83.0,7,20,4.0,64.0
1540,70.0,9,20,0.0,64.0
1541,82.0,14,20,4.0,64.0
1542,71.0,21,30,0.0,64.0
1543,83.0,23,30,4.0,64.0
1544,70.0,6,90,0.0,64.0
1545,66.0,12,30,1.0,64.0
1546,82.0,22,60,4.0,64.0
1547,52.0,0,60,3.0,64.0
1548,61.0,15,30,2.0,64.0
1549,83.0,4,30,4.0,64.0
1550,71.0,16,30,0.0,64.0
1551,85.0,48,30,4.0,64.0
1552,73.0,2,20,0.0,64.0
1553,66.0,7,30,1.0,64.0
1554,71.0,2,150,0.0,64.0
1555,50.0,100,60,3.0,64.0
1556,83.0,1,150,4.0,64.0
1557,62.0,5,30,2.0,64.0
1558,71.0,4,30,1.0,64.0
1559,66.0,10,30,2.0,64.0
1560,47.0,67,60,3.0,64.0
1561,74.0,43,30,0.0,64.0
1562,86.0,2,30,4.0,64.0
1563,54.0,103,60,3.0,64.0
1564,64.0,0,30,2.0,64.0
1565,70.0,4,30,1.0,64.0
1566,85.0,2,30,4.0,64.0
1567,73.0,5,60,0.0,64.0
1568,55.0,108,60,3.0,64.0
1569,71.0,4,30,1.0,64.0
1570,83.0,2,30,4.0,64.0
1571,71.0,3,60,0.0,64.0
1572,62.0,3,30,2.0,64.0
1573,67.0,8,30,1.0,64.0
1574,85.0,9,60,4.0,64.0
1575,73.0,48,60,0.0,64.0
1576,52.0,11,60,3.0,64.0
1577,64.0,4,30,2.0,64.0
1578,83.0,0,60,4.0,64.0
1579,71.0,30,60,0.0,64.0
1580,70.0,6,30,0.0,64.0
1581,66.0,11,30,1.0,64.0
1582,82.0,3,30,4.0,64.0
1583,54.0,36,60,3.0,64.0
1584,61.0,1,30,2.0,64.0
1585,73.0,88,20,0.0,64.0
1586,85.0,1,20,4.0,64.0
1587,66.0,0,60,1.0,64.0
1588,50.0,2,60,3.0,64.0
1589,62.0,102,60,2.0,64.0
1590,83.0,4,150,4.0,64.0
1591,71.0,4,150,0.0,64.0
1592,71.0,7,30,1.0,64.0
1593,66.0,2,60,2.0,64.0
1594,47.0,65,60,3.0,64.0
1595,74.0,44,30,0.0,64.0
1596,86.0,1,30,4.0,64.0
1597,73.0,1,60,0.0,64.0
1598,85.0,4,30,4.0,64.0
1599,67.0,8,30,1.0,64.0
1600,52.0,2,60,3.0,64.0
1601,64.0,103,60,2.0,64.0
1602,71.0,2,60,0.0,64.0
1603,83.0,4,30,4.0,64.0
1604,50.0,56,60,3.0,64.0
1605,66.0,6,30,1.0,64.0
1606,66.0,1,60,2.0,64.0
1607,67.0,54,20,2.0,64.0
1608,69.0,1,60,0.0,64.0
1609,81.0,1,30,4.0,64.0
1610,69.0,0,60,2.0,64.0
1611,49.0,0,30,3.0,64.0
1612,64.0,111,30,1.0,64.0
1613,67.0,3,60,0.0,64.0
1614,64.0,7,30,1.0,64.0
1615,45.0,1,30,3.0,64.0
1616,61.0,3,60,2.0,64.0
1617,79.0,107,60,4.0,64.0
1618,64.0,10,30,1.0,64.0
1619,67.0,5,60,0.0,64.0
1620,79.0,1,60,4.0,64.0
1621,59.0,1,60,2.0,64.0
1622,50.0,53,330,3.0,64.0
1623,62.0,9,20,1.0,64.0
1624,57.0,1,20,2.0,64.0
1625,66.0,6,20,0.0,64.0
1626,78.0,1,20,4.0,64.0
1627,64.0,18,20,1.0,64.0
1628,79.0,7,60,4.0,64.0
1629,59.0,0,30,2.0,64.0
1630,67.0,1,30,0.0,64.0
1631,62.0,4,20,1.0,64.0
1632,78.0,4,15,4.0,64.0
1633,57.0,3,30,2.0,64.0
1634,66.0,6,15,0.0,64.0
1635,64.0,7,20,1.0,64.0
1636,67.0,5,20,0.0,64.0
1637,62.0,7,30,1.0,64.0
1638,78.0,43,30,4.0,64.0
1639,66.0,0,20,0.0,64.0
1640,55.0,4,60,2.0,64.0
1641,61.0,4,60,1.0,64.0
1642,76.0,1,60,4.0,64.0
1643,64.0,39,60,0.0,64.0
1644,78.0,0,60,4.0,64.0
1645,66.0,11,60,0.0,64.0
1646,57.0,2,60,2.0,64.0
1647,62.0,101,60,1.0,64.0
1648,62.0,4,240,0.0,64.0
1649,74.0,8,240,4.0,64.0
1650,54.0,1,240,2.0,64.0
1651,57.0,120,240,1.0,64.0
1652,45.0,57,30,3.0,64.0
1653,42.0,35,30,3.0,64.0
1654,38.0,148,120,3.0,64.0
1655,57.0,2,30,2.0,64.0
1656,74.0,21,150,0.0,64.0
1657,69.0,91,60,1.0,64.0
1658,86.0,2,150,4.0,64.0
1659,54.0,0,30,3.0,64.0
1660,74.0,11,60,1.0,64.0
1661,69.0,4,30,2.0,64.0
1662,50.0,50,60,3.0,64.0
1663,78.0,50,30,0.0,64.0
1664,90.0,1,30,4.0,64.0
1665,76.0,4,60,0.0,64.0
1666,71.0,1,30,1.0,64.0
1667,88.0,5,60,4.0,64.0
1668,67.0,2,60,2.0,64.0
1669,55.0,106,30,3.0,64.0
1670,64.0,2,60,1.0,64.0
1671,74.0,4,60,0.0,64.0
1672,86.0,4,30,4.0,64.0
1673,71.0,5,30,2.0,64.0
1674,56.0,108,60,3.0,64.0
1675,69.0,6,60,1.0,64.0
1676,86.0,3,60,4.0,64.0
1677,74.0,89,60,0.0,64.0
1678,57.0,24,30,3.0,64.0
1679,64.0,0,30,2.0,64.0
1680,85.0,1,90,4.0,64.0
1681,73.0,41,90,0.0,64.0
1682,64.0,3,30,2.0,64.0
1683,68.0,1,30,1.0,64.0
1684,52.0,0,30,3.0,64.0
1685,86.0,9,30,4.0,64.0
1686,74.0,3,30,0.0,64.0
1687,88.0,10,20,4.0,64.0
1688,76.0,55,20,0.0,64.0
1689,69.0,5,60,1.0,64.0
1690,64.0,3,60,2.0,64.0
1691,74.0,86,60,0.0,64.0
1692,86.0,2,60,4.0,64.0
1693,57.0,22,60,3.0,64.0
1694,85.0,1,120,4.0,64.0
1695,73.0,52,120,0.0,64.0
1696,58.0,14,60,3.0,64.0
1697,73.0,2,30,1.0,64.0
1698,66.0,5,30,2.0,64.0
1699,76.0,0,30,0.0,64.0
1700,88.0,50,20,4.0,64.0
1701,74.0,1,60,0.0,64.0
1702,86.0,2,30,4.0,64.0
1703,59.0,117,60,3.0,64.0
1704,71.0,0,30,1.0,64.0
1705,66.0,2,30,2.0,64.0
1706,73.0,2,60,0.0,64.0
1707,85.0,2,60,4.0,64.0
1708,54.0,1,60,3.0,64.0
1709,70.0,2,30,1.0,64.0
1710,64.0,76,30,2.0,64.0
1711,73.0,4,20,0.0,64.0
1712,85.0,14,20,4.0,64.0
1713,59.0,1,60,3.0,64.0
1714,62.0,7,60,2.0,64.0
1715,66.0,3,30,1.0,64.0
1716,71.0,7,20,0.0,64.0
1717,83.0,10,20,4.0,64.0
1718,73.0,0,20,0.0,64.0
1719,85.0,17,30,4.0,64.0
1720,71.0,9,30,0.0,64.0
1721,83.0,78,30,4.0,64.0
1722,61.0,5,60,3.0,64.0
1723,70.0,115,60,0.0,64.0
1724,82.0,2,60,4.0,64.0
1725,61.0,0,30,2.0,64.0
1726,64.0,8,30,1.0,64.0
1727,71.0,9,150,0.0,64.0
1728,83.0,3,150,4.0,64.0
1729,59.0,4,60,2.0,64.0
1730,62.0,0,60,3.0,64.0
1731,66.0,99,60,1.0,64.0
1732,66.0,2,60,2.0,64.0
1733,59.0,19,60,3.0,64.0
1734,71.0,10,60,1.0,64.0
1735,85.0,8,20,4.0,64.0
1736,73.0,10,30,0.0,64.0
1737,86.0,6,20,4.0,64.0
1738,74.0,67,30,0.0,64.0
1739,73.0,30,120,0.0,64.0
1740,58.0,3,60,3.0,64.0
1741,85.0,2,120,4.0,64.0
1742,73.0,59,60,1.0,64.0
1743,66.0,1,60,2.0,64.0
1744,74.0,2,30,0.0,64.0
1745,59.0,1,30,3.0,64.0
1746,86.0,13,30,4.0,64.0
1747,71.0,3,30,1.0,64.0
1748,66.0,39,30,2.0,64.0
1749,90.0,6,30,4.0,64.0
1750,78.0,70,30,0.0,64.0
1751,71.0,2,30,1.0,64.0
1752,67.0,0,30,2.0,64.0
1753,88.0,0,60,4.0,64.0
1754,52.0,24,30,3.0,64.0
1755,76.0,18,60,0.0,64.0
1756,86.0,11,30,4.0,64.0
1757,74.0,63,30,0.0,64.0
1758,76.0,3,30,1.0,64.0
1759,59.0,8,30,2.0,64.0
1760,55.0,15,60,3.0,64.0
1761,85.0,8,60,4.0,64.0
1762,73.0,15,60,0.0,64.0
1763,83.0,8,30,4.0,64.0
1764,71.0,68,30,0.0,64.0
1765,70.0,13,60,1.0,64.0
1766,66.0,4,30,2.0,64.0
1767,73.0,20,60,0.0,64.0
1768,85.0,9,60,4.0,64.0
1769,54.0,88,330,3.0,64.0
1770,83.0,10,30,4.0,64.0
1771,71.0,64,30,0.0,64.0
1772,82.0,4,60,4.0,64.0
1773,70.0,26,60,0.0,64.0
1774,61.0,2,30,2.0,64.0
1775,66.0,19,30,1.0,64.0
1776,80.0,4,30,4.0,64.0
1777,68.0,103,30,0.0,64.0
1778,58.0,1,270,2.0,64.0
1779,78.0,0,270,4.0,64.0
1780,66.0,8,270,0.0,64.0
1781,61.0,21,270,1.0,64.0
1782,55.0,97,60,3.0,64.0
1783,54.0,120,60,3.0,64.0
1784,52.0,118,60,3.0,64.0
1785,71.0,0,150,0.0,64.0
1786,59.0,10,60,2.0,64.0
1787,83.0,9,150,4.0,64.0
1788,66.0,3,30,1.0,64.0
1789,50.0,90,60,3.0,64.0
1790,66.0,3,60,2.0,64.0
1791,62.0,14,30,1.0,64.0
1792,47.0,55,60,3.0,64.0
1793,74.0,4,30,0.0,64.0
1794,86.0,40,30,4.0,64.0
1795,73.0,1,60,0.0,64.0
1796,64.0,5,60,2.0,64.0
1797,85.0,7,30,4.0,64.0
1798,67.0,3,30,1.0,64.0
1799,52.0,107,60,3.0,64.0
1800,83.0,7,30,4.0,64.0
1801,71.0,5,60,0.0,64.0
1802,55.0,1,60,3.0,64.0
1803,59.0,5,60,1.0,64.0
1804,64.0,106,60,2.0,64.0
1805,83.0,6,60,4.0,64.0
1806,54.0,2,60,3.0,64.0
1807,61.0,14,60,1.0,64.0
1808,71.0,81,60,0.0,64.0
1809,66.0,5,30,2.0,64.0
1810,82.0,9,90,4.0,64.0
1811,70.0,3,90,0.0,64.0
1812,66.0,2,60,1.0,64.0
1813,61.0,1,60,2.0,64.0
1814,52.0,41,60,3.0,64.0
1815,83.0,7,30,4.0,64.0
1816,71.0,10,30,0.0,64.0
1817,85.0,12,20,4.0,64.0
1818,73.0,52,30,0.0,64.0
1819,66.0,1,60,1.0,64.0
1820,50.0,3,60,3.0,64.0
1821,78.0,3,150,4.0,64.0
1822,59.0,96,60,2.0,64.0
1823,66.0,10,150,0.0,64.0
1824,54.0,2,60,2.0,64.0
1825,47.0,65,60,3.0,64.0
1826,62.0,4,30,1.0,64.0
1827,71.0,14,30,0.0,64.0
1828,83.0,30,30,4.0,64.0
1829,70.0,6,60,0.0,64.0
1830,49.0,6,60,3.0,64.0
1831,61.0,3,60,2.0,64.0
1832,64.0,107,60,1.0,64.0
1833,82.0,0,30,4.0,64.0
1834,50.0,16,60,3.0,64.0
1835,71.0,5,30,0.0,64.0
1836,59.0,6,60,2.0,64.0
1837,66.0,37,60,1.0,64.0
1838,83.0,4,30,4.0,64.0
1839,64.0,55,20,1.0,64.0
1840,66.0,4,60,1.0,64.0
1841,59.0,3,60,2.0,64.0
1842,51.0,92,60,3.0,64.0
1843,66.0,1,150,0.0,64.0
1844,78.0,24,120,4.0,64.0
1845,63.0,0,30,1.0,64.0
1846,47.0,30,60,3.0,64.0
1847,59.0,8,30,2.0,64.0
1848,67.0,4,30,0.0,64.0
1849,79.0,10,30,4.0,64.0
1850,69.0,3,20,0.0,64.0
1851,81.0,68,20,4.0,64.0
1852,64.0,2,60,1.0,64.0
1853,52.0,4,60,3.0,64.0
1854,69.0,1,60,0.0,64.0
1855,59.0,16,60,2.0,64.0
1856,81.0,91,60,4.0,64.0
1857,67.0,3,90,0.0,64.0
1858,79.0,54,120,4.0,64.0
1859,67.0,6,60,1.0,64.0
1860,49.0,3,60,3.0,64.0
1861,64.0,2,60,2.0,64.0
1862,76.0,11,20,0.0,64.0
1863,88.0,48,30,4.0,64.0
1864,54.0,2,60,3.0,64.0
1865,70.0,16,60,0.0,64.0
1866,66.0,40,60,1.0,64.0
1867,82.0,0,60,4.0,64.0
1868,61.0,2,60,2.0,64.0
1869,67.0,7,30,1.0,64.0
1870,52.0,49,30,3.0,64.0
1871,66.0,47,60,1.0,64.0
1872,50.0,7,60,3.0,64.0
1873,83.0,2,30,4.0,64.0
1874,71.0,9,60,0.0,64.0
1875,59.0,0,30,2.0,64.0
1876,64.0,3,30,1.0,64.0
1877,52.0,52,30,3.0,64.0
1878,62.0,106,60,1.0,64.0
1879,66.0,2,60,0.0,64.0
1880,78.0,3,60,4.0,64.0
1881,54.0,0,30,3.0,64.0
1882,59.0,1,60,2.0,64.0
1883,64.0,2,60,0.0,64.0
1884,76.0,8,60,4.0,64.0
1885,58.0,7,30,2.0,64.0
1886,61.0,108,60,1.0,64.0
1887,42.0,1,60,3.0,64.0
1888,64.0,1,60,0.0,64.0
1889,61.0,0,60,1.0,64.0
1890,54.0,2,120,2.0,64.0
1891,76.0,18,30,4.0,64.0
1892,47.0,44,330,3.0,64.0
1893,62.0,0,20,0.0,64.0
1894,74.0,6,20,4.0,64.0
1895,59.0,15,30,1.0,64.0
1896,64.0,7,30,0.0,64.0
1897,76.0,0,20,4.0,64.0
1898,61.0,18,30,1.0,64.0
1899,74.0,12,30,4.0,64.0
1900,62.0,1,30,0.0,64.0
1901,59.0,39,30,1.0,64.0
1902,61.0,0,60,0.0,64.0
1903,73.0,37,60,4.0,64.0
1904,58.0,7,60,1.0,64.0
1905,52.0,5,60,2.0,64.0
1906,62.0,6,60,0.0,64.0
1907,74.0,126,60,4.0,64.0
1908,54.0,4,30,2.0,64.0
1909,59.0,1,30,1.0,64.0
1910,59.0,7,270,0.0,64.0
1911,71.0,2,240,4.0,64.0
1912,50.0,136,270,2.0,64.0
1913,59.0,0,240,1.0,64.0
1914,50.0,62,30,3.0,64.0
1915,54.0,34,30,3.0,64.0
1916,59.0,133,150,3.0,64.0
1917,69.0,3,60,1.0,64.0
1918,57.0,98,60,2.0,64.0
1919,74.0,8,150,0.0,64.0
1920,86.0,10,150,4.0,64.0
1921,54.0,2,30,3.0,64.0
1922,74.0,0,60,1.0,64.0
1923,69.0,7,30,2.0,64.0
1924,50.0,52,60,3.0,64.0
1925,78.0,7,30,0.0,64.0
1926,90.0,46,30,4.0,64.0
1927,76.0,8,30,0.0,64.0
1928,71.0,7,60,1.0,64.0
1929,88.0,2,60,4.0,64.0
1930,55.0,2,60,3.0,64.0
1931,67.0,100,60,2.0,64.0
1932,74.0,10,30,0.0,64.0
1933,64.0,0,60,1.0,64.0
1934,71.0,3,60,2.0,64.0
1935,56.0,102,60,3.0,64.0
1936,86.0,2,30,4.0,64.0
1937,74.0,11,30,0.0,64.0
1938,86.0,14,60,4.0,64.0
1939,69.0,0,30,1.0,64.0
1940,64.0,4,30,2.0,64.0
1941,57.0,0,30,3.0,64.0
1942,73.0,1,20,0.0,64.0
1943,85.0,8,15,4.0,64.0
1944,74.0,13,20,0.0,64.0
1945,73.0,1,20,0.0,64.0
1946,86.0,14,20,4.0,64.0
1947,85.0,4,20,4.0,64.0
1948,74.0,14,20,0.0,64.0
1949,73.0,8,60,0.0,64.0
1950,86.0,44,20,4.0,64.0
1951,85.0,27,60,4.0,64.0
1952,68.0,1,30,1.0,64.0
1953,52.0,2,30,3.0,64.0
1954,64.0,1,30,2.0,64.0
1955,74.0,2,30,0.0,64.0
1956,86.0,11,20,4.0,64.0
1957,76.0,6,20,0.0,64.0
1958,88.0,64,20,4.0,64.0
1959,74.0,3,60,0.0,64.0
1960,86.0,91,60,4.0,64.0
1961,69.0,2,60,1.0,64.0
1962,57.0,14,60,3.0,64.0
1963,64.0,2,30,2.0,64.0
1964,73.0,48,120,0.0,64.0
1965,85.0,8,120,4.0,64.0
1966,66.0,4,30,2.0,64.0
1967,58.0,5,60,3.0,64.0
1968,73.0,6,30,1.0,64.0
1969,76.0,3,20,0.0,64.0
1970,88.0,50,20,4.0,64.0
1971,86.0,3,60,4.0,64.0
1972,74.0,4,60,0.0,64.0
1973,59.0,115,60,3.0,64.0
1974,66.0,1,60,2.0,64.0
1975,71.0,2,30,1.0,64.0
1976,73.0,1,60,0.0,64.0
1977,85.0,74,60,4.0,64.0
1978,54.0,3,60,3.0,64.0
1979,64.0,1,60,2.0,64.0
1980,70.0,2,30,1.0,64.0
1981,85.0,4,15,4.0,64.0
1982,73.0,16,20,0.0,64.0
1983,59.0,2,60,3.0,64.0
1984,66.0,3,60,1.0,64.0
1985,62.0,2,60,2.0,64.0
1986,83.0,1,20,4.0,64.0
1987,71.0,15,20,0.0,64.0
1988,85.0,1,30,4.0,64.0
1989,73.0,24,30,0.0,64.0
1990,83.0,6,30,4.0,64.0
1991,71.0,81,30,0.0,64.0
1992,61.0,1,60,2.0,64.0
1993,64.0,1,60,1.0,64.0
1994,61.0,7,60,3.0,64.0
1995,70.0,4,60,0.0,64.0
1996,82.0,115,60,4.0,64.0
1997,66.0,100,60,1.0,64.0
1998,71.0,0,180,0.0,64.0
1999,59.0,9,60,2.0,64.0
2000,62.0,1,60,3.0,64.0
2001,83.0,2,150,4.0,64.0
2002,66.0,3,30,2.0,64.0
2003,59.0,33,60,3.0,64.0
2004,71.0,1,60,1.0,64.0
2005,85.0,15,30,4.0,64.0
2006,73.0,1,30,0.0,64.0
2007,74.0,1,20,0.0,64.0
2008,86.0,64,20,4.0,64.0
2009,85.0,15,120,4.0,64.0
2010,73.0,2,60,1.0,64.0
2011,66.0,61,60,2.0,64.0
2012,73.0,14,120,0.0,64.0
2013,58.0,6,30,3.0,64.0
2014,86.0,6,30,4.0,64.0
2015,74.0,16,30,0.0,64.0
2016,59.0,3,60,3.0,64.0
2017,71.0,4,60,1.0,64.0
2018,66.0,34,60,2.0,64.0
2019,90.0,3,30,4.0,64.0
2020,78.0,72,30,0.0,64.0
2021,71.0,23,60,1.0,64.0
2022,52.0,5,60,3.0,64.0
2023,67.0,2,30,2.0,64.0
2024,76.0,1,60,0.0,64.0
2025,88.0,16,60,4.0,64.0
2026,74.0,62,30,0.0,64.0
2027,86.0,14,30,4.0,64.0
2028,55.0,1,60,3.0,64.0
2029,76.0,24,30,1.0,64.0
2030,85.0,3,60,4.0,64.0
2031,59.0,0,30,2.0,64.0
2032,73.0,17,60,0.0,64.0
2033,83.0,9,30,4.0,64.0
2034,71.0,70,30,0.0,64.0
2035,85.0,3,60,4.0,64.0
2036,54.0,87,330,3.0,64.0
2037,66.0,1,30,2.0,64.0
2038,70.0,17,30,1.0,64.0
2039,73.0,17,60,0.0,64.0
2040,83.0,10,30,4.0,64.0
2041,71.0,62,30,0.0,64.0
2042,82.0,3,30,4.0,64.0
2043,61.0,6,60,2.0,64.0
2044,66.0,15,60,1.0,64.0
2045,70.0,8,30,0.0,64.0
2046,83.0,3,30,4.0,64.0
2047,71.0,16,30,0.0,64.0
2048,82.0,3,30,4.0,64.0
2049,70.0,18,30,0.0,64.0
2050,80.0,4,30,4.0,64.0
2051,68.0,92,30,0.0,64.0
2052,58.0,3,270,2.0,64.0
2053,66.0,4,240,0.0,64.0
2054,61.0,4,240,1.0,64.0
2055,78.0,29,240,4.0,64.0
2056,55.0,80,60,3.0,64.0
2057,54.0,115,60,3.0,64.0
2058,52.0,120,60,3.0,64.0
2059,59.0,2,60,2.0,64.0
2060,50.0,90,60,3.0,64.0
2061,71.0,14,150,0.0,64.0
2062,83.0,6,150,4.0,64.0
2063,66.0,7,30,1.0,64.0
2064,47.0,54,60,3.0,64.0
2065,66.0,12,60,2.0,64.0
2066,62.0,0,30,1.0,64.0
2067,74.0,4,30,0.0,64.0
2068,86.0,40,30,4.0,64.0
2069,73.0,7,30,0.0,64.0
2070,85.0,2,30,4.0,64.0
2071,52.0,113,60,3.0,64.0
2072,64.0,3,30,2.0,64.0
2073,67.0,0,30,1.0,64.0
2074,83.0,6,30,4.0,64.0
2075,71.0,1,30,0.0,64.0
2076,55.0,110,60,3.0,64.0
2077,64.0,4,60,2.0,64.0
2078,59.0,3,30,1.0,64.0
2079,71.0,0,60,0.0,64.0
2080,83.0,7,60,4.0,64.0
2081,66.0,1,60,2.0,64.0
2082,54.0,5,60,3.0,64.0
2083,61.0,2,30,1.0,64.0
2084,70.0,4,20,0.0,64.0
2085,82.0,21,20,4.0,64.0
2086,71.0,0,30,0.0,64.0
2087,83.0,14,20,4.0,64.0
2088,70.0,21,20,0.0,64.0
2089,82.0,1,15,4.0,64.0
2090,83.0,39,30,4.0,64.0
2091,71.0,1,20,0.0,64.0
2092,82.0,2,60,4.0,64.0
2093,70.0,27,60,0.0,64.0
2094,61.0,1,60,2.0,64.0
2095,66.0,6,30,1.0,64.0
2096,52.0,10,60,3.0,64.0
2097,83.0,6,30,4.0,64.0
2098,71.0,11,30,0.0,64.0
2099,85.0,8,20,4.0,64.0
2100,73.0,54,20,0.0,64.0
2101,66.0,2,60,1.0,64.0
2102,50.0,4,60,3.0,64.0
2103,59.0,98,60,2.0,64.0
2104,78.0,4,150,4.0,64.0
2105,66.0,14,150,0.0,64.0
2106,47.0,1,60,3.0,64.0
2107,62.0,3,60,1.0,64.0
2108,54.0,66,60,2.0,64.0
2109,71.0,2,30,0.0,64.0
2110,83.0,31,30,4.0,64.0
2111,82.0,16,30,4.0,64.0
2112,70.0,0,60,0.0,64.0
2113,49.0,6,60,3.0,64.0
2114,61.0,2,60,2.0,64.0
2115,64.0,102,60,1.0,64.0
2116,71.0,7,60,0.0,64.0
2117,83.0,7,30,4.0,64.0
2118,59.0,4,60,2.0,64.0
2119,66.0,66,60,1.0,64.0
2120,50.0,4,60,3.0,64.0
2121,64.0,39,30,1.0,64.0
2122,66.0,9,60,1.0,64.0
2123,66.0,17,150,0.0,64.0
2124,51.0,89,60,3.0,64.0
2125,59.0,3,60,2.0,64.0
2126,78.0,1,150,4.0,64.0
2127,63.0,6,30,1.0,64.0
2128,59.0,32,60,2.0,64.0
2129,47.0,3,30,3.0,64.0
2130,67.0,1,30,0.0,64.0
2131,79.0,11,30,4.0,64.0
2132,69.0,2,20,0.0,64.0
2133,81.0,70,20,4.0,64.0
2134,64.0,7,60,1.0,64.0
2135,59.0,16,60,2.0,64.0
2136,69.0,1,60,0.0,64.0
2137,52.0,3,60,3.0,64.0
2138,81.0,93,60,4.0,64.0
2139,67.0,0,120,0.0,64.0
2140,79.0,1,90,4.0,64.0
2141,67.0,4,60,1.0,64.0
2142,49.0,2,60,3.0,64.0
2143,64.0,56,60,2.0,64.0
2144,76.0,9,20,0.0,64.0
2145,88.0,50,30,4.0,64.0
2146,70.0,2,60,0.0,64.0
2147,66.0,1,60,1.0,64.0
2148,54.0,0,60,3.0,64.0
2149,82.0,56,60,4.0,64.0
2150,61.0,5,60,2.0,64.0
2151,67.0,11,30,1.0,64.0
2152,52.0,38,30,3.0,64.0
2153,66.0,8,30,1.0,64.0
2154,71.0,8,60,0.0,64.0
2155,59.0,1,60,2.0,64.0
2156,50.0,54,60,3.0,64.0
2157,83.0,1,30,4.0,64.0
2158,64.0,46,30,1.0,64.0
2159,52.0,4,20,3.0,64.0
2160,66.0,4,60,0.0,64.0
2161,78.0,3,30,4.0,64.0
2162,59.0,2,30,2.0,64.0
2163,62.0,111,60,1.0,64.0
2164,54.0,4,30,3.0,64.0
2165,64.0,2,60,0.0,64.0
2166,61.0,4,60,1.0,64.0
2167,76.0,3,60,4.0,64.0
2168,58.0,1,60,2.0,64.0
2169,42.0,94,60,3.0,64.0
2170,64.0,6,60,0.0,64.0
2171,61.0,4,30,1.0,64.0
2172,76.0,7,30,4.0,64.0
2173,47.0,57,330,3.0,64.0
2174,55.0,0,30,2.0,64.0
2175,74.0,3,15,4.0,64.0
2176,59.0,9,20,1.0,64.0
2177,62.0,10,20,0.0,64.0
2178,54.0,1,20,2.0,64.0
2179,76.0,0,20,4.0,64.0
2180,61.0,7,20,1.0,64.0
2181,64.0,2,20,0.0,64.0
2182,74.0,5,15,4.0,64.0
2183,55.0,5,20,2.0,64.0
2184,59.0,6,20,1.0,64.0
2185,62.0,0,15,0.0,64.0
2186,76.0,8,20,4.0,64.0
2187,61.0,13,20,1.0,64.0
2188,54.0,35,60,2.0,64.0
2189,64.0,1,15,0.0,64.0
2190,74.0,6,30,4.0,64.0
2191,62.0,10,30,0.0,64.0
2192,59.0,1,20,1.0,64.0
2193,55.0,2,15,2.0,64.0
2194,58.0,2,60,1.0,64.0
2195,73.0,3,60,4.0,64.0
2196,61.0,13,60,0.0,64.0
2197,52.0,23,60,2.0,64.0
2198,62.0,7,60,0.0,64.0
2199,59.0,18,30,1.0,64.0
2200,74.0,1,60,4.0,64.0
2201,54.0,94,60,2.0,64.0
2202,59.0,1,270,0.0,64.0
2203,59.0,119,270,1.0,64.0
2204,50.0,4,270,2.0,64.0
2205,71.0,8,240,4.0,64.0
2206,50.0,59,30,3.0,64.0
2207,54.0,47,30,3.0,64.0
2208,59.0,0,150,3.0,64.0
