tick,type,data,time,meta,track,frame_rate,hours,minutes,seconds,frames,sub_frames,port,tempo,key,numerator,denominator,clocks_per_click,notated_32nd_notes_per_beat,program,channel,control,value,note,velocity
0,sequencer_specific,"(0, 0, 91, 35, 1, 0, 5, 6, 42, 0)",0,1,0,,,,,,,,,,,,,,,,,,,
0,control_change,,0,0,7,,,,,,,,,,,,,,,2,7,96,,
0,control_change,,0,0,7,,,,,,,,,,,,,,,2,11,127,,
0,control_change,,0,0,7,,,,,,,,,,,,,,,2,10,75,,
0,program_change,,0,0,7,,,,,,,,,,,,,,70,2,,,,
0,midi_port,,0,1,7,,,,,,,0,,,,,,,,,,,,
0,track_name,,0,1,7,,,,,,,,,,,,,,,,,,,
0,control_change,,0,0,6,,,,,,,,,,,,,,,1,7,80,,
0,control_change,,0,0,6,,,,,,,,,,,,,,,1,11,127,,
0,control_change,,0,0,6,,,,,,,,,,,,,,,1,10,65,,
0,program_change,,0,0,6,,,,,,,,,,,,,,68,1,,,,
0,midi_port,,0,1,6,,,,,,,0,,,,,,,,,,,,
0,track_name,,0,1,6,,,,,,,,,,,,,,,,,,,
0,control_change,,0,0,5,,,,,,,,,,,,,,,0,7,80,,
0,control_change,,0,0,5,,,,,,,,,,,,,,,0,11,127,,
0,control_change,,0,0,5,,,,,,,,,,,,,,,0,10,55,,
0,program_change,,0,0,5,,,,,,,,,,,,,,68,0,,,,
0,midi_port,,0,1,5,,,,,,,0,,,,,,,,,,,,
0,track_name,,0,1,5,,,,,,,,,,,,,,,,,,,
0,end_of_track,,0,1,4,,,,,,,,,,,,,,,,,,,
0,midi_port,,0,1,4,,,,,,,0,,,,,,,,,,,,
0,end_of_track,,0,1,3,,,,,,,,,,,,,,,,,,,
0,midi_port,,0,1,3,,,,,,,0,,,,,,,,,,,,
0,track_name,,0,1,3,,,,,,,,,,,,,,,,,,,
0,end_of_track,,0,1,2,,,,,,,,,,,,,,,,,,,
0,midi_port,,0,1,2,,,,,,,0,,,,,,,,,,,,
0,track_name,,0,1,2,,,,,,,,,,,,,,,,,,,
0,end_of_track,,0,1,1,,,,,,,,,,,,,,,,,,,
0,track_name,,0,1,8,,,,,,,,,,,,,,,,,,,
0,midi_port,,0,1,8,,,,,,,0,,,,,,,,,,,,
0,program_change,,0,0,8,,,,,,,,,,,,,,48,11,,,,
0,control_change,,0,0,8,,,,,,,,,,,,,,,11,10,48,,
0,track_name,,0,1,13,,,,,,,,,,,,,,,,,,,
0,program_change,,0,0,12,,,,,,,,,,,,,,6,15,,,,
0,control_change,,0,0,12,,,,,,,,,,,,,,,15,7,72,,
0,control_change,,0,0,12,,,,,,,,,,,,,,,15,11,127,,
0,control_change,,0,0,12,,,,,,,,,,,,,,,15,10,64,,
0,midi_port,,0,1,12,,,,,,,0,,,,,,,,,,,,
0,track_name,,0,1,12,,,,,,,,,,,,,,,,,,,
0,control_change,,0,0,11,,,,,,,,,,,,,,,14,7,96,,
0,control_change,,0,0,11,,,,,,,,,,,,,,,14,11,127,,
0,control_change,,0,0,11,,,,,,,,,,,,,,,14,10,90,,
0,program_change,,0,0,11,,,,,,,,,,,,,,48,14,,,,
0,midi_port,,0,1,11,,,,,,,0,,,,,,,,,,,,
0,track_name,,0,1,11,,,,,,,,,,,,,,,,,,,
0,midi_port,,0,1,1,,,,,,,0,,,,,,,,,,,,
0,control_change,,0,0,10,,,,,,,,,,,,,,,13,7,96,,
0,control_change,,0,0,10,,,,,,,,,,,,,,,13,10,70,,
0,program_change,,0,0,10,,,,,,,,,,,,,,48,13,,,,
0,midi_port,,0,1,10,,,,,,,0,,,,,,,,,,,,
0,track_name,,0,1,10,,,,,,,,,,,,,,,,,,,
0,midi_port,,0,1,13,,,,,,,0,,,,,,,,,,,,
0,control_change,,0,0,9,,,,,,,,,,,,,,,12,7,96,,
0,control_change,,0,0,9,,,,,,,,,,,,,,,12,11,127,,
0,control_change,,0,0,9,,,,,,,,,,,,,,,12,10,24,,
0,program_change,,0,0,9,,,,,,,,,,,,,,48,12,,,,
0,midi_port,,0,1,9,,,,,,,0,,,,,,,,,,,,
0,track_name,,0,1,9,,,,,,,,,,,,,,,,,,,
0,control_change,,0,0,8,,,,,,,,,,,,,,,11,7,96,,
0,control_change,,0,0,8,,,,,,,,,,,,,,,11,11,127,,
0,control_change,,0,0,10,,,,,,,,,,,,,,,13,11,127,,
0,track_name,,0,1,1,,,,,,,,,,,,,,,,,,,
0,end_of_track,,0,1,13,,,,,,,,,,,,,,,,,,,
0,track_name,,0,1,0,,,,,,,,,,,,,,,,,,,
0,time_signature,,0,1,0,,,,,,,,,,2,4,24,8,,,,,,
0,key_signature,,0,1,0,,,,,,,,,C,,,,,,,,,,
0,set_tempo,,0,1,0,,,,,,,,357142,,,,,,,,,,,
0,marker,,0,1,0,,,,,,,,,,,,,,,,,,,
0,midi_port,,0,1,0,,,,,,,0,,,,,,,,,,,,
0,smpte_offset,,0,1,0,25,32,0,3,0,0,,,,,,,,,,,,,
0,instrument_name,,0,1,0,,,,,,,,,,,,,,,,,,,
240,note_on,,240,0,8,,,,,,,,,,,,,,,11,,,64,76
240,note_on,,240,0,6,,,,,,,,,,,,,,,1,,,64,76
240,note_on,,240,0,5,,,,,,,,,,,,,,,0,,,64,76
344,note_on,,104,0,6,,,,,,,,,,,,,,,1,,,64,0
344,note_on,,104,0,5,,,,,,,,,,,,,,,0,,,64,0
344,note_on,,104,0,8,,,,,,,,,,,,,,,11,,,64,0
360,note_on,,16,0,6,,,,,,,,,,,,,,,1,,,65,76
360,note_on,,16,0,8,,,,,,,,,,,,,,,11,,,65,76
360,note_on,,16,0,5,,,,,,,,,,,,,,,0,,,65,76
464,note_on,,104,0,5,,,,,,,,,,,,,,,0,,,65,0
464,note_on,,104,0,8,,,,,,,,,,,,,,,11,,,65,0
464,note_on,,104,0,6,,,,,,,,,,,,,,,1,,,65,0
480,note_on,,16,0,8,,,,,,,,,,,,,,,11,,,67,76
480,note_on,,16,0,6,,,,,,,,,,,,,,,1,,,67,76
480,note_on,,16,0,5,,,,,,,,,,,,,,,0,,,67,76
480,time_signature,,480,1,0,,,,,,,,,,4,4,24,8,,,,,,
704,note_on,,224,0,6,,,,,,,,,,,,,,,1,,,67,0
704,note_on,,224,0,5,,,,,,,,,,,,,,,0,,,67,0
704,note_on,,224,0,8,,,,,,,,,,,,,,,11,,,67,0
720,note_on,,720,0,9,,,,,,,,,,,,,,,12,,,64,76
720,note_on,,16,0,8,,,,,,,,,,,,,,,11,,,72,76
720,note_on,,16,0,5,,,,,,,,,,,,,,,0,,,72,76
720,note_on,,720,0,10,,,,,,,,,,,,,,,13,,,55,76
720,note_on,,0,0,12,,,,,,,,,,,,,,,15,,,67,76
720,note_on,,0,0,12,,,,,,,,,,,,,,,15,,,64,76
720,note_on,,0,0,12,,,,,,,,,,,,,,,15,,,48,76
720,note_on,,720,0,12,,,,,,,,,,,,,,,15,,,60,76
720,note_on,,720,0,11,,,,,,,,,,,,,,,14,,,48,76
720,note_on,,16,0,6,,,,,,,,,,,,,,,1,,,72,76
720,note_on,,720,0,7,,,,,,,,,,,,,,,2,,,48,76
824,note_on,,104,0,9,,,,,,,,,,,,,,,12,,,64,0
824,note_on,,104,0,7,,,,,,,,,,,,,,,2,,,48,0
824,note_on,,104,0,11,,,,,,,,,,,,,,,14,,,48,0
839,note_on,,0,0,12,,,,,,,,,,,,,,,15,,,48,0
839,note_on,,0,0,12,,,,,,,,,,,,,,,15,,,64,0
839,note_on,,0,0,12,,,,,,,,,,,,,,,15,,,67,0
839,note_on,,119,0,12,,,,,,,,,,,,,,,15,,,60,0
840,note_on,,16,0,11,,,,,,,,,,,,,,,14,,,50,76
840,note_on,,16,0,9,,,,,,,,,,,,,,,12,,,65,76
840,note_on,,16,0,7,,,,,,,,,,,,,,,2,,,50,76
840,note_on,,1,0,12,,,,,,,,,,,,,,,15,,,69,76
840,note_on,,0,0,12,,,,,,,,,,,,,,,15,,,65,76
840,note_on,,0,0,12,,,,,,,,,,,,,,,15,,,62,76
840,note_on,,0,0,12,,,,,,,,,,,,,,,15,,,50,76
944,note_on,,104,0,9,,,,,,,,,,,,,,,12,,,65,0
944,note_on,,104,0,7,,,,,,,,,,,,,,,2,,,50,0
944,note_on,,104,0,11,,,,,,,,,,,,,,,14,,,50,0
944,note_on,,224,0,10,,,,,,,,,,,,,,,13,,,55,0
959,note_on,,119,0,12,,,,,,,,,,,,,,,15,,,69,0
959,note_on,,0,0,12,,,,,,,,,,,,,,,15,,,62,0
959,note_on,,0,0,12,,,,,,,,,,,,,,,15,,,65,0
959,note_on,,0,0,12,,,,,,,,,,,,,,,15,,,50,0
960,note_on,,0,0,12,,,,,,,,,,,,,,,15,,,64,76
960,note_on,,0,0,12,,,,,,,,,,,,,,,15,,,52,76
960,note_on,,0,0,12,,,,,,,,,,,,,,,15,,,72,76
960,note_on,,16,0,11,,,,,,,,,,,,,,,14,,,52,76
960,note_on,,16,0,10,,,,,,,,,,,,,,,13,,,60,76
960,note_on,,1,0,12,,,,,,,,,,,,,,,15,,,67,76
960,note_on,,16,0,9,,,,,,,,,,,,,,,12,,,67,76
960,note_on,,16,0,7,,,,,,,,,,,,,,,2,,,52,76
1184,note_on,,464,0,5,,,,,,,,,,,,,,,0,,,72,0
1184,note_on,,224,0,11,,,,,,,,,,,,,,,14,,,52,0
1184,note_on,,224,0,10,,,,,,,,,,,,,,,13,,,60,0
1184,note_on,,224,0,7,,,,,,,,,,,,,,,2,,,52,0
1184,note_on,,224,0,9,,,,,,,,,,,,,,,12,,,67,0
1184,note_on,,464,0,6,,,,,,,,,,,,,,,1,,,72,0
1184,note_on,,464,0,8,,,,,,,,,,,,,,,11,,,72,0
1199,note_on,,0,0,12,,,,,,,,,,,,,,,15,,,72,0
1199,note_on,,0,0,12,,,,,,,,,,,,,,,15,,,52,0
1199,note_on,,0,0,12,,,,,,,,,,,,,,,15,,,64,0
1199,note_on,,239,0,12,,,,,,,,,,,,,,,15,,,67,0
1200,note_on,,16,0,9,,,,,,,,,,,,,,,12,,,59,76
1200,note_on,,16,0,5,,,,,,,,,,,,,,,0,,,67,76
1200,note_on,,16,0,10,,,,,,,,,,,,,,,13,,,62,76
1200,note_on,,16,0,11,,,,,,,,,,,,,,,14,,,55,76
1200,note_on,,0,0,12,,,,,,,,,,,,,,,15,,,67,76
1200,note_on,,0,0,12,,,,,,,,,,,,,,,15,,,74,76
1200,note_on,,0,0,12,,,,,,,,,,,,,,,15,,,71,76
1200,note_on,,16,0,6,,,,,,,,,,,,,,,1,,,67,76
1200,note_on,,16,0,7,,,,,,,,,,,,,,,2,,,55,76
1200,note_on,,16,0,8,,,,,,,,,,,,,,,11,,,67,76
1200,note_on,,1,0,12,,,,,,,,,,,,,,,15,,,55,76
1424,note_on,,224,0,5,,,,,,,,,,,,,,,0,,,67,0
1424,note_on,,224,0,8,,,,,,,,,,,,,,,11,,,67,0
1424,note_on,,224,0,10,,,,,,,,,,,,,,,13,,,62,0
1424,note_on,,224,0,6,,,,,,,,,,,,,,,1,,,67,0
1424,note_on,,224,0,9,,,,,,,,,,,,,,,12,,,59,0
1424,note_on,,224,0,7,,,,,,,,,,,,,,,2,,,55,0
1424,note_on,,224,0,11,,,,,,,,,,,,,,,14,,,55,0
1439,note_on,,0,0,12,,,,,,,,,,,,,,,15,,,74,0
1439,note_on,,239,0,12,,,,,,,,,,,,,,,15,,,55,0
1439,note_on,,0,0,12,,,,,,,,,,,,,,,15,,,67,0
1439,note_on,,0,0,12,,,,,,,,,,,,,,,15,,,71,0
1440,note_on,,16,0,11,,,,,,,,,,,,,,,14,,,60,76
1440,note_on,,16,0,9,,,,,,,,,,,,,,,12,,,60,76
1440,note_on,,16,0,7,,,,,,,,,,,,,,,2,,,60,76
1440,note_on,,16,0,5,,,,,,,,,,,,,,,0,,,64,76
1440,note_on,,1,0,12,,,,,,,,,,,,,,,15,,,79,76
1440,note_on,,0,0,12,,,,,,,,,,,,,,,15,,,76,76
1440,note_on,,0,0,12,,,,,,,,,,,,,,,15,,,72,76
1440,note_on,,0,0,12,,,,,,,,,,,,,,,15,,,60,76
1440,note_on,,16,0,6,,,,,,,,,,,,,,,1,,,64,76
1440,note_on,,16,0,8,,,,,,,,,,,,,,,11,,,64,76
1440,note_on,,16,0,10,,,,,,,,,,,,,,,13,,,64,76
1544,note_on,,104,0,8,,,,,,,,,,,,,,,11,,,64,0
1544,note_on,,104,0,5,,,,,,,,,,,,,,,0,,,64,0
1544,note_on,,104,0,9,,,,,,,,,,,,,,,12,,,60,0
1544,note_on,,104,0,6,,,,,,,,,,,,,,,1,,,64,0
1560,note_on,,16,0,9,,,,,,,,,,,,,,,12,,,59,76
1560,note_on,,16,0,5,,,,,,,,,,,,,,,0,,,62,76
1560,note_on,,16,0,6,,,,,,,,,,,,,,,1,,,62,76
1560,note_on,,16,0,8,,,,,,,,,,,,,,,11,,,62,76
1664,note_on,,224,0,10,,,,,,,,,,,,,,,13,,,64,0
1664,note_on,,104,0,9,,,,,,,,,,,,,,,12,,,59,0
1664,note_on,,224,0,11,,,,,,,,,,,,,,,14,,,60,0
1664,note_on,,104,0,5,,,,,,,,,,,,,,,0,,,62,0
1664,note_on,,104,0,6,,,,,,,,,,,,,,,1,,,62,0
1664,note_on,,104,0,8,,,,,,,,,,,,,,,11,,,62,0
1664,note_on,,224,0,7,,,,,,,,,,,,,,,2,,,60,0
1679,note_on,,0,0,12,,,,,,,,,,,,,,,15,,,76,0
1679,note_on,,0,0,12,,,,,,,,,,,,,,,15,,,60,0
1679,note_on,,239,0,12,,,,,,,,,,,,,,,15,,,79,0
1679,note_on,,0,0,12,,,,,,,,,,,,,,,15,,,72,0
1680,note_on,,16,0,9,,,,,,,,,,,,,,,12,,,60,76
1680,note_on,,16,0,7,,,,,,,,,,,,,,,2,,,55,76
1680,note_on,,16,0,10,,,,,,,,,,,,,,,13,,,67,76
1680,note_on,,16,0,8,,,,,,,,,,,,,,,11,,,64,76
1680,note_on,,1,0,12,,,,,,,,,,,,,,,15,,,67,76
1680,note_on,,16,0,6,,,,,,,,,,,,,,,1,,,64,76
1680,note_on,,16,0,5,,,,,,,,,,,,,,,0,,,64,76
1680,note_on,,0,0,12,,,,,,,,,,,,,,,15,,,74,76
1680,note_on,,0,0,12,,,,,,,,,,,,,,,15,,,55,76
1680,note_on,,0,0,12,,,,,,,,,,,,,,,15,,,71,76
1680,note_on,,16,0,11,,,,,,,,,,,,,,,14,,,55,76
1784,note_on,,104,0,10,,,,,,,,,,,,,,,13,,,67,0
1784,note_on,,104,0,5,,,,,,,,,,,,,,,0,,,64,0
1784,note_on,,104,0,6,,,,,,,,,,,,,,,1,,,64,0
1784,note_on,,104,0,9,,,,,,,,,,,,,,,12,,,60,0
1784,note_on,,104,0,8,,,,,,,,,,,,,,,11,,,64,0
1800,note_on,,16,0,5,,,,,,,,,,,,,,,0,,,65,76
1800,note_on,,16,0,8,,,,,,,,,,,,,,,11,,,65,76
1800,note_on,,16,0,9,,,,,,,,,,,,,,,12,,,62,76
1800,note_on,,16,0,6,,,,,,,,,,,,,,,1,,,65,76
1800,note_on,,16,0,10,,,,,,,,,,,,,,,13,,,65,76
1904,note_on,,224,0,11,,,,,,,,,,,,,,,14,,,55,0
1904,note_on,,104,0,6,,,,,,,,,,,,,,,1,,,65,0
1904,note_on,,104,0,10,,,,,,,,,,,,,,,13,,,65,0
1904,note_on,,104,0,9,,,,,,,,,,,,,,,12,,,62,0
1904,note_on,,104,0,8,,,,,,,,,,,,,,,11,,,65,0
1904,note_on,,224,0,7,,,,,,,,,,,,,,,2,,,55,0
1904,note_on,,104,0,5,,,,,,,,,,,,,,,0,,,65,0
1919,note_on,,0,0,12,,,,,,,,,,,,,,,15,,,74,0
1919,note_on,,0,0,12,,,,,,,,,,,,,,,15,,,55,0
1919,note_on,,0,0,12,,,,,,,,,,,,,,,15,,,71,0
1919,note_on,,239,0,12,,,,,,,,,,,,,,,15,,,67,0
1920,note_on,,16,0,9,,,,,,,,,,,,,,,12,,,64,76
1920,note_on,,16,0,11,,,,,,,,,,,,,,,14,,,48,76
1920,note_on,,16,0,6,,,,,,,,,,,,,,,1,,,67,76
1920,note_on,,16,0,7,,,,,,,,,,,,,,,2,,,48,76
1920,note_on,,16,0,8,,,,,,,,,,,,,,,11,,,67,76
1920,note_on,,16,0,10,,,,,,,,,,,,,,,13,,,64,76
1920,note_on,,1,0,12,,,,,,,,,,,,,,,15,,,64,76
1920,note_on,,0,0,12,,,,,,,,,,,,,,,15,,,48,76
1920,note_on,,0,0,12,,,,,,,,,,,,,,,15,,,60,76
1920,note_on,,0,0,12,,,,,,,,,,,,,,,15,,,67,76
1920,note_on,,16,0,5,,,,,,,,,,,,,,,0,,,67,76
2144,note_on,,224,0,10,,,,,,,,,,,,,,,13,,,64,0
2144,note_on,,224,0,11,,,,,,,,,,,,,,,14,,,48,0
2144,note_on,,224,0,6,,,,,,,,,,,,,,,1,,,67,0
2144,note_on,,224,0,7,,,,,,,,,,,,,,,2,,,48,0
2144,note_on,,224,0,5,,,,,,,,,,,,,,,0,,,67,0
2144,note_on,,224,0,8,,,,,,,,,,,,,,,11,,,67,0
2144,note_on,,224,0,9,,,,,,,,,,,,,,,12,,,64,0
2159,note_on,,0,0,12,,,,,,,,,,,,,,,15,,,48,0
2159,note_on,,239,0,12,,,,,,,,,,,,,,,15,,,64,0
2159,note_on,,0,0,12,,,,,,,,,,,,,,,15,,,60,0
2159,note_on,,0,0,12,,,,,,,,,,,,,,,15,,,67,0
2160,note_on,,16,0,9,,,,,,,,,,,,,,,12,,,65,76
2160,note_on,,16,0,8,,,,,,,,,,,,,,,11,,,69,76
2160,note_on,,16,0,7,,,,,,,,,,,,,,,2,,,53,76
2160,note_on,,16,0,5,,,,,,,,,,,,,,,0,,,69,76
2160,note_on,,16,0,6,,,,,,,,,,,,,,,1,,,69,76
2160,note_on,,1,0,12,,,,,,,,,,,,,,,15,,,65,76
2160,note_on,,16,0,11,,,,,,,,,,,,,,,14,,,53,76
2160,note_on,,0,0,12,,,,,,,,,,,,,,,15,,,53,76
2160,note_on,,0,0,12,,,,,,,,,,,,,,,15,,,72,76
2160,note_on,,16,0,10,,,,,,,,,,,,,,,13,,,60,76
2160,note_on,,0,0,12,,,,,,,,,,,,,,,15,,,69,76
2264,note_on,,104,0,5,,,,,,,,,,,,,,,0,,,69,0
2264,note_on,,104,0,8,,,,,,,,,,,,,,,11,,,69,0
2264,note_on,,104,0,6,,,,,,,,,,,,,,,1,,,69,0
2280,note_on,,16,0,5,,,,,,,,,,,,,,,0,,,71,76
2280,note_on,,16,0,6,,,,,,,,,,,,,,,1,,,71,76
2280,note_on,,16,0,8,,,,,,,,,,,,,,,11,,,71,76
2384,note_on,,224,0,10,,,,,,,,,,,,,,,13,,,60,0
2384,note_on,,104,0,8,,,,,,,,,,,,,,,11,,,71,0
2384,note_on,,224,0,7,,,,,,,,,,,,,,,2,,,53,0
2384,note_on,,104,0,5,,,,,,,,,,,,,,,0,,,71,0
2384,note_on,,104,0,6,,,,,,,,,,,,,,,1,,,71,0
2384,note_on,,224,0,11,,,,,,,,,,,,,,,14,,,53,0
2384,note_on,,224,0,9,,,,,,,,,,,,,,,12,,,65,0
2399,note_on,,0,0,12,,,,,,,,,,,,,,,15,,,72,0
2399,note_on,,239,0,12,,,,,,,,,,,,,,,15,,,65,0
2399,note_on,,0,0,12,,,,,,,,,,,,,,,15,,,53,0
2399,note_on,,0,0,12,,,,,,,,,,,,,,,15,,,69,0
2400,note_on,,0,0,12,,,,,,,,,,,,,,,15,,,64,76
2400,note_on,,16,0,7,,,,,,,,,,,,,,,2,,,52,76
2400,note_on,,16,0,10,,,,,,,,,,,,,,,13,,,60,76
2400,note_on,,16,0,8,,,,,,,,,,,,,,,11,,,72,76
2400,note_on,,16,0,9,,,,,,,,,,,,,,,12,,,67,76
2400,note_on,,1,0,12,,,,,,,,,,,,,,,15,,,67,76
2400,note_on,,0,0,12,,,,,,,,,,,,,,,15,,,52,76
2400,note_on,,16,0,5,,,,,,,,,,,,,,,0,,,72,76
2400,note_on,,16,0,11,,,,,,,,,,,,,,,14,,,52,76
2400,note_on,,16,0,6,,,,,,,,,,,,,,,1,,,72,76
2400,note_on,,0,0,12,,,,,,,,,,,,,,,15,,,72,76
2504,note_on,,104,0,5,,,,,,,,,,,,,,,0,,,72,0
2504,note_on,,104,0,6,,,,,,,,,,,,,,,1,,,72,0
2504,note_on,,104,0,8,,,,,,,,,,,,,,,11,,,72,0
2520,note_on,,16,0,5,,,,,,,,,,,,,,,0,,,74,76
2520,note_on,,16,0,8,,,,,,,,,,,,,,,11,,,74,76
2520,note_on,,16,0,6,,,,,,,,,,,,,,,1,,,74,76
2624,note_on,,104,0,5,,,,,,,,,,,,,,,0,,,74,0
2624,note_on,,224,0,10,,,,,,,,,,,,,,,13,,,60,0
2624,note_on,,224,0,11,,,,,,,,,,,,,,,14,,,52,0
2624,note_on,,224,0,9,,,,,,,,,,,,,,,12,,,67,0
2624,note_on,,104,0,6,,,,,,,,,,,,,,,1,,,74,0
2624,note_on,,104,0,8,,,,,,,,,,,,,,,11,,,74,0
2624,note_on,,224,0,7,,,,,,,,,,,,,,,2,,,52,0
2639,note_on,,239,0,12,,,,,,,,,,,,,,,15,,,67,0
2639,note_on,,0,0,12,,,,,,,,,,,,,,,15,,,64,0
2639,note_on,,0,0,12,,,,,,,,,,,,,,,15,,,52,0
2639,note_on,,0,0,12,,,,,,,,,,,,,,,15,,,72,0
2640,note_on,,16,0,5,,,,,,,,,,,,,,,0,,,76,76
2640,note_on,,16,0,8,,,,,,,,,,,,,,,11,,,76,76
2640,note_on,,16,0,9,,,,,,,,,,,,,,,12,,,71,76
2640,note_on,,16,0,6,,,,,,,,,,,,,,,1,,,76,76
2640,note_on,,16,0,7,,,,,,,,,,,,,,,2,,,50,76
2640,note_on,,16,0,11,,,,,,,,,,,,,,,14,,,50,76
2640,note_on,,0,0,12,,,,,,,,,,,,,,,15,,,65,76
2640,note_on,,16,0,10,,,,,,,,,,,,,,,13,,,65,76
2640,note_on,,1,0,12,,,,,,,,,,,,,,,15,,,62,76
2640,note_on,,0,0,12,,,,,,,,,,,,,,,15,,,69,76
2640,note_on,,0,0,12,,,,,,,,,,,,,,,15,,,50,76
2744,note_on,,104,0,5,,,,,,,,,,,,,,,0,,,76,0
2744,note_on,,104,0,6,,,,,,,,,,,,,,,1,,,76,0
2744,note_on,,104,0,8,,,,,,,,,,,,,,,11,,,76,0
2760,note_on,,16,0,6,,,,,,,,,,,,,,,1,,,77,76
2760,note_on,,16,0,5,,,,,,,,,,,,,,,0,,,77,76
2760,note_on,,16,0,8,,,,,,,,,,,,,,,11,,,77,76
2864,note_on,,104,0,6,,,,,,,,,,,,,,,1,,,77,0
2864,note_on,,224,0,11,,,,,,,,,,,,,,,14,,,50,0
2864,note_on,,224,0,7,,,,,,,,,,,,,,,2,,,50,0
2864,note_on,,104,0,8,,,,,,,,,,,,,,,11,,,77,0
2864,note_on,,104,0,5,,,,,,,,,,,,,,,0,,,77,0
2864,note_on,,224,0,10,,,,,,,,,,,,,,,13,,,65,0
2864,note_on,,224,0,9,,,,,,,,,,,,,,,12,,,71,0
2879,note_on,,0,0,12,,,,,,,,,,,,,,,15,,,65,0
2879,note_on,,0,0,12,,,,,,,,,,,,,,,15,,,50,0
2879,note_on,,0,0,12,,,,,,,,,,,,,,,15,,,69,0
2879,note_on,,239,0,12,,,,,,,,,,,,,,,15,,,62,0
2880,note_on,,0,0,12,,,,,,,,,,,,,,,15,,,67,76
2880,note_on,,1,0,12,,,,,,,,,,,,,,,15,,,64,76
2880,note_on,,16,0,9,,,,,,,,,,,,,,,12,,,72,76
2880,note_on,,16,0,6,,,,,,,,,,,,,,,1,,,79,76
2880,note_on,,16,0,10,,,,,,,,,,,,,,,13,,,64,76
2880,note_on,,16,0,7,,,,,,,,,,,,,,,2,,,52,76
2880,note_on,,16,0,11,,,,,,,,,,,,,,,14,,,52,76
2880,note_on,,0,0,12,,,,,,,,,,,,,,,15,,,52,76
2880,note_on,,16,0,8,,,,,,,,,,,,,,,11,,,79,76
2880,note_on,,16,0,5,,,,,,,,,,,,,,,0,,,79,76
2880,note_on,,0,0,12,,,,,,,,,,,,,,,15,,,72,76
3104,note_on,,224,0,11,,,,,,,,,,,,,,,14,,,52,0
3104,note_on,,224,0,9,,,,,,,,,,,,,,,12,,,72,0
3104,note_on,,224,0,8,,,,,,,,,,,,,,,11,,,79,0
3104,note_on,,224,0,7,,,,,,,,,,,,,,,2,,,52,0
3104,note_on,,224,0,6,,,,,,,,,,,,,,,1,,,79,0
3104,note_on,,224,0,5,,,,,,,,,,,,,,,0,,,79,0
3104,note_on,,224,0,10,,,,,,,,,,,,,,,13,,,64,0
3119,note_on,,0,0,12,,,,,,,,,,,,,,,15,,,67,0
3119,note_on,,0,0,12,,,,,,,,,,,,,,,15,,,52,0
3119,note_on,,0,0,12,,,,,,,,,,,,,,,15,,,72,0
3119,note_on,,239,0,12,,,,,,,,,,,,,,,15,,,64,0
3120,note_on,,16,0,8,,,,,,,,,,,,,,,11,,,81,76
3120,note_on,,16,0,6,,,,,,,,,,,,,,,1,,,81,76
3120,note_on,,16,0,7,,,,,,,,,,,,,,,2,,,53,76
3120,note_on,,16,0,11,,,,,,,,,,,,,,,14,,,53,76
3120,note_on,,16,0,10,,,,,,,,,,,,,,,13,,,60,76
3120,note_on,,16,0,9,,,,,,,,,,,,,,,12,,,72,76
3120,note_on,,1,0,12,,,,,,,,,,,,,,,15,,,72,76
3120,note_on,,16,0,5,,,,,,,,,,,,,,,0,,,81,76
3120,note_on,,0,0,12,,,,,,,,,,,,,,,15,,,53,76
3120,note_on,,0,0,12,,,,,,,,,,,,,,,15,,,69,76
3120,note_on,,0,0,12,,,,,,,,,,,,,,,15,,,65,76
3344,note_on,,224,0,10,,,,,,,,,,,,,,,13,,,60,0
3344,note_on,,224,0,8,,,,,,,,,,,,,,,11,,,81,0
3344,note_on,,224,0,6,,,,,,,,,,,,,,,1,,,81,0
3344,note_on,,224,0,9,,,,,,,,,,,,,,,12,,,72,0
3344,note_on,,224,0,7,,,,,,,,,,,,,,,2,,,53,0
3344,note_on,,224,0,5,,,,,,,,,,,,,,,0,,,81,0
3344,note_on,,224,0,11,,,,,,,,,,,,,,,14,,,53,0
3359,note_on,,0,0,12,,,,,,,,,,,,,,,15,,,65,0
3359,note_on,,0,0,12,,,,,,,,,,,,,,,15,,,69,0
3359,note_on,,0,0,12,,,,,,,,,,,,,,,15,,,53,0
3359,note_on,,239,0,12,,,,,,,,,,,,,,,15,,,72,0
3360,note_on,,16,0,10,,,,,,,,,,,,,,,13,,,67,76
3360,note_on,,16,0,11,,,,,,,,,,,,,,,14,,,55,76
3360,note_on,,16,0,8,,,,,,,,,,,,,,,11,,,74,76
3360,note_on,,16,0,5,,,,,,,,,,,,,,,0,,,74,76
3360,note_on,,16,0,6,,,,,,,,,,,,,,,1,,,74,76
3360,note_on,,0,0,12,,,,,,,,,,,,,,,15,,,67,76
3360,note_on,,0,0,12,,,,,,,,,,,,,,,15,,,74,76
3360,note_on,,16,0,9,,,,,,,,,,,,,,,12,,,71,76
3360,note_on,,1,0,12,,,,,,,,,,,,,,,15,,,71,76
3360,note_on,,16,0,7,,,,,,,,,,,,,,,2,,,55,76
3360,note_on,,0,0,12,,,,,,,,,,,,,,,15,,,55,76
3464,note_on,,104,0,8,,,,,,,,,,,,,,,11,,,74,0
3464,note_on,,104,0,5,,,,,,,,,,,,,,,0,,,74,0
3464,note_on,,104,0,6,,,,,,,,,,,,,,,1,,,74,0
3480,note_on,,16,0,6,,,,,,,,,,,,,,,1,,,72,76
3480,note_on,,16,0,8,,,,,,,,,,,,,,,11,,,72,76
3480,note_on,,16,0,5,,,,,,,,,,,,,,,0,,,72,76
3584,note_on,,224,0,9,,,,,,,,,,,,,,,12,,,71,0
3584,note_on,,224,0,11,,,,,,,,,,,,,,,14,,,55,0
3584,note_on,,104,0,6,,,,,,,,,,,,,,,1,,,72,0
3584,note_on,,104,0,5,,,,,,,,,,,,,,,0,,,72,0
3584,note_on,,224,0,7,,,,,,,,,,,,,,,2,,,55,0
3584,note_on,,104,0,8,,,,,,,,,,,,,,,11,,,72,0
3584,note_on,,224,0,10,,,,,,,,,,,,,,,13,,,67,0
3599,note_on,,239,0,12,,,,,,,,,,,,,,,15,,,71,0
3599,note_on,,0,0,12,,,,,,,,,,,,,,,15,,,67,0
3599,note_on,,0,0,12,,,,,,,,,,,,,,,15,,,74,0
3599,note_on,,0,0,12,,,,,,,,,,,,,,,15,,,55,0
3600,note_on,,1,0,12,,,,,,,,,,,,,,,15,,,76,76
3600,note_on,,0,0,12,,,,,,,,,,,,,,,15,,,69,76
3600,note_on,,16,0,5,,,,,,,,,,,,,,,0,,,74,76
3600,note_on,,16,0,10,,,,,,,,,,,,,,,13,,,66,76
3600,note_on,,16,0,8,,,,,,,,,,,,,,,11,,,74,76
3600,note_on,,16,0,6,,,,,,,,,,,,,,,1,,,74,76
3600,note_on,,16,0,11,,,,,,,,,,,,,,,14,,,57,76
3600,note_on,,16,0,9,,,,,,,,,,,,,,,12,,,72,76
3600,note_on,,0,0,12,,,,,,,,,,,,,,,15,,,72,76
3600,note_on,,16,0,7,,,,,,,,,,,,,,,2,,,57,76
3600,note_on,,0,0,12,,,,,,,,,,,,,,,15,,,57,76
3704,note_on,,104,0,5,,,,,,,,,,,,,,,0,,,74,0
3704,note_on,,104,0,6,,,,,,,,,,,,,,,1,,,74,0
3704,note_on,,104,0,8,,,,,,,,,,,,,,,11,,,74,0
3720,note_on,,16,0,6,,,,,,,,,,,,,,,1,,,76,76
3720,note_on,,16,0,5,,,,,,,,,,,,,,,0,,,76,76
3720,note_on,,16,0,8,,,,,,,,,,,,,,,11,,,76,76
3824,note_on,,224,0,11,,,,,,,,,,,,,,,14,,,57,0
3824,note_on,,224,0,7,,,,,,,,,,,,,,,2,,,57,0
3824,note_on,,104,0,8,,,,,,,,,,,,,,,11,,,76,0
3824,note_on,,104,0,6,,,,,,,,,,,,,,,1,,,76,0
3824,note_on,,224,0,9,,,,,,,,,,,,,,,12,,,72,0
3824,note_on,,224,0,10,,,,,,,,,,,,,,,13,,,66,0
3824,note_on,,104,0,5,,,,,,,,,,,,,,,0,,,76,0
3839,note_on,,0,0,12,,,,,,,,,,,,,,,15,,,72,0
3839,note_on,,0,0,12,,,,,,,,,,,,,,,15,,,69,0
3839,note_on,,239,0,12,,,,,,,,,,,,,,,15,,,76,0
3839,note_on,,0,0,12,,,,,,,,,,,,,,,15,,,57,0
3840,note_on,,16,0,7,,,,,,,,,,,,,,,2,,,59,76
3840,note_on,,16,0,8,,,,,,,,,,,,,,,11,,,74,76
3840,note_on,,16,0,10,,,,,,,,,,,,,,,13,,,67,76
3840,note_on,,16,0,5,,,,,,,,,,,,,,,0,,,74,76
3840,note_on,,0,0,12,,,,,,,,,,,,,,,15,,,71,76
3840,note_on,,1,0,12,,,,,,,,,,,,,,,15,,,79,76
3840,note_on,,16,0,9,,,,,,,,,,,,,,,12,,,74,76
3840,note_on,,16,0,6,,,,,,,,,,,,,,,1,,,74,76
3840,note_on,,16,0,11,,,,,,,,,,,,,,,14,,,59,76
3840,note_on,,0,0,12,,,,,,,,,,,,,,,15,,,59,76
3840,note_on,,0,0,12,,,,,,,,,,,,,,,15,,,74,76
4064,note_on,,224,0,8,,,,,,,,,,,,,,,11,,,74,0
4064,note_on,,224,0,5,,,,,,,,,,,,,,,0,,,74,0
4064,note_on,,224,0,11,,,,,,,,,,,,,,,14,,,59,0
4064,note_on,,224,0,9,,,,,,,,,,,,,,,12,,,74,0
4064,note_on,,224,0,6,,,,,,,,,,,,,,,1,,,74,0
4064,note_on,,224,0,7,,,,,,,,,,,,,,,2,,,59,0
4064,note_on,,224,0,10,,,,,,,,,,,,,,,13,,,67,0
4079,note_on,,0,0,12,,,,,,,,,,,,,,,15,,,71,0
4079,note_on,,0,0,12,,,,,,,,,,,,,,,15,,,59,0
4079,note_on,,239,0,12,,,,,,,,,,,,,,,15,,,79,0
4079,note_on,,0,0,12,,,,,,,,,,,,,,,15,,,74,0
4080,note_on,,16,0,10,,,,,,,,,,,,,,,13,,,67,76
4080,note_on,,16,0,8,,,,,,,,,,,,,,,11,,,76,76
4080,note_on,,16,0,7,,,,,,,,,,,,,,,2,,,60,76
4080,note_on,,16,0,5,,,,,,,,,,,,,,,0,,,76,76
4080,note_on,,1,0,12,,,,,,,,,,,,,,,15,,,76,76
4080,note_on,,0,0,12,,,,,,,,,,,,,,,15,,,79,76
4080,note_on,,0,0,12,,,,,,,,,,,,,,,15,,,72,76
4080,note_on,,16,0,11,,,,,,,,,,,,,,,14,,,60,76
4080,note_on,,16,0,9,,,,,,,,,,,,,,,12,,,72,76
4080,note_on,,16,0,6,,,,,,,,,,,,,,,1,,,76,76
4080,note_on,,0,0,12,,,,,,,,,,,,,,,15,,,60,76
4184,note_on,,104,0,5,,,,,,,,,,,,,,,0,,,76,0
4184,note_on,,104,0,6,,,,,,,,,,,,,,,1,,,76,0
4184,note_on,,104,0,8,,,,,,,,,,,,,,,11,,,76,0
4184,note_on,,104,0,10,,,,,,,,,,,,,,,13,,,67,0
4200,note_on,,16,0,8,,,,,,,,,,,,,,,11,,,78,76
4200,note_on,,16,0,10,,,,,,,,,,,,,,,13,,,69,76
4200,note_on,,16,0,6,,,,,,,,,,,,,,,1,,,78,76
4200,note_on,,16,0,5,,,,,,,,,,,,,,,0,,,78,76
4304,note_on,,224,0,7,,,,,,,,,,,,,,,2,,,60,0
4304,note_on,,104,0,10,,,,,,,,,,,,,,,13,,,69,0
4304,note_on,,104,0,8,,,,,,,,,,,,,,,11,,,78,0
4304,note_on,,104,0,5,,,,,,,,,,,,,,,0,,,78,0
4304,note_on,,104,0,6,,,,,,,,,,,,,,,1,,,78,0
4304,note_on,,224,0,11,,,,,,,,,,,,,,,14,,,60,0
4304,note_on,,224,0,9,,,,,,,,,,,,,,,12,,,72,0
4319,note_on,,239,0,12,,,,,,,,,,,,,,,15,,,76,0
4319,note_on,,0,0,12,,,,,,,,,,,,,,,15,,,60,0
4319,note_on,,0,0,12,,,,,,,,,,,,,,,15,,,72,0
4319,note_on,,0,0,12,,,,,,,,,,,,,,,15,,,79,0
4320,note_on,,16,0,10,,,,,,,,,,,,,,,13,,,71,76
4320,note_on,,16,0,9,,,,,,,,,,,,,,,12,,,74,76
4320,note_on,,16,0,6,,,,,,,,,,,,,,,1,,,79,76
4320,note_on,,16,0,8,,,,,,,,,,,,,,,11,,,79,76
4320,note_on,,1,0,12,,,,,,,,,,,,,,,15,,,79,76
4320,note_on,,0,0,12,,,,,,,,,,,,,,,15,,,74,76
4320,note_on,,0,0,12,,,,,,,,,,,,,,,15,,,59,76
4320,note_on,,16,0,7,,,,,,,,,,,,,,,2,,,59,76
4320,note_on,,16,0,5,,,,,,,,,,,,,,,0,,,79,76
4320,note_on,,16,0,11,,,,,,,,,,,,,,,14,,,59,76
4320,note_on,,0,0,12,,,,,,,,,,,,,,,15,,,71,76
4544,note_on,,224,0,11,,,,,,,,,,,,,,,14,,,59,0
4544,note_on,,224,0,7,,,,,,,,,,,,,,,2,,,59,0
4544,note_on,,224,0,8,,,,,,,,,,,,,,,11,,,79,0
4544,note_on,,224,0,6,,,,,,,,,,,,,,,1,,,79,0
4544,note_on,,224,0,5,,,,,,,,,,,,,,,0,,,79,0
4559,note_on,,0,0,12,,,,,,,,,,,,,,,15,,,74,0
4559,note_on,,0,0,12,,,,,,,,,,,,,,,15,,,71,0
4559,note_on,,239,0,9,,,,,,,,,,,,,,,12,,,74,0
4559,note_on,,239,0,12,,,,,,,,,,,,,,,15,,,79,0
4559,note_on,,0,0,12,,,,,,,,,,,,,,,15,,,59,0
4559,note_on,,239,0,10,,,,,,,,,,,,,,,13,,,71,0
4560,note_on,,16,0,8,,,,,,,,,,,,,,,11,,,71,76
4560,note_on,,16,0,11,,,,,,,,,,,,,,,14,,,57,76
4560,note_on,,16,0,7,,,,,,,,,,,,,,,2,,,57,76
4560,note_on,,16,0,6,,,,,,,,,,,,,,,1,,,71,76
4560,note_on,,1,0,12,,,,,,,,,,,,,,,15,,,57,76
4560,note_on,,16,0,5,,,,,,,,,,,,,,,0,,,71,76
4560,note_on,,0,0,12,,,,,,,,,,,,,,,15,,,69,76
4560,note_on,,0,0,12,,,,,,,,,,,,,,,15,,,76,76
4560,note_on,,0,0,12,,,,,,,,,,,,,,,15,,,72,76
4664,note_on,,104,0,8,,,,,,,,,,,,,,,11,,,71,0
4664,note_on,,104,0,5,,,,,,,,,,,,,,,0,,,71,0
4664,note_on,,104,0,6,,,,,,,,,,,,,,,1,,,71,0
4680,note_on,,16,0,6,,,,,,,,,,,,,,,1,,,72,76
4680,note_on,,16,0,5,,,,,,,,,,,,,,,0,,,72,76
4680,note_on,,16,0,8,,,,,,,,,,,,,,,11,,,72,76
4784,note_on,,104,0,5,,,,,,,,,,,,,,,0,,,72,0
4784,note_on,,104,0,6,,,,,,,,,,,,,,,1,,,72,0
4784,note_on,,224,0,11,,,,,,,,,,,,,,,14,,,57,0
4784,note_on,,104,0,8,,,,,,,,,,,,,,,11,,,72,0
4784,note_on,,224,0,7,,,,,,,,,,,,,,,2,,,57,0
4799,note_on,,0,0,12,,,,,,,,,,,,,,,15,,,69,0
4799,note_on,,0,0,12,,,,,,,,,,,,,,,15,,,72,0
4799,note_on,,239,0,12,,,,,,,,,,,,,,,15,,,57,0
4799,note_on,,0,0,12,,,,,,,,,,,,,,,15,,,76,0
4800,note_on,,16,0,8,,,,,,,,,,,,,,,11,,,74,76
4800,note_on,,16,0,11,,,,,,,,,,,,,,,14,,,55,76
4800,note_on,,16,0,5,,,,,,,,,,,,,,,0,,,74,76
4800,note_on,,1,0,12,,,,,,,,,,,,,,,15,,,74,76
4800,note_on,,16,0,6,,,,,,,,,,,,,,,1,,,74,76
4800,note_on,,0,0,12,,,,,,,,,,,,,,,15,,,67,76
4800,note_on,,16,0,7,,,,,,,,,,,,,,,2,,,55,76
4800,note_on,,0,0,12,,,,,,,,,,,,,,,15,,,71,76
4800,note_on,,0,0,12,,,,,,,,,,,,,,,15,,,55,76
5024,note_on,,224,0,6,,,,,,,,,,,,,,,1,,,74,0
5024,note_on,,224,0,7,,,,,,,,,,,,,,,2,,,55,0
5024,note_on,,224,0,5,,,,,,,,,,,,,,,0,,,74,0
5024,note_on,,224,0,11,,,,,,,,,,,,,,,14,,,55,0
5024,note_on,,224,0,8,,,,,,,,,,,,,,,11,,,74,0
5039,note_on,,239,0,12,,,,,,,,,,,,,,,15,,,74,0
5039,note_on,,0,0,12,,,,,,,,,,,,,,,15,,,67,0
5039,note_on,,0,0,12,,,,,,,,,,,,,,,15,,,55,0
5039,note_on,,0,0,12,,,,,,,,,,,,,,,15,,,71,0
5040,note_on,,16,0,5,,,,,,,,,,,,,,,0,,,76,76
5040,note_on,,481,0,10,,,,,,,,,,,,,,,13,,,59,76
5040,note_on,,16,0,8,,,,,,,,,,,,,,,11,,,76,76
5040,note_on,,0,0,12,,,,,,,,,,,,,,,15,,,54,76
5040,note_on,,0,0,12,,,,,,,,,,,,,,,15,,,69,76
5040,note_on,,16,0,7,,,,,,,,,,,,,,,2,,,54,76
5040,note_on,,1,0,12,,,,,,,,,,,,,,,15,,,66,76
5040,note_on,,16,0,11,,,,,,,,,,,,,,,14,,,54,76
5040,note_on,,481,0,9,,,,,,,,,,,,,,,12,,,67,76
5040,note_on,,0,0,12,,,,,,,,,,,,,,,15,,,72,76
5040,note_on,,16,0,6,,,,,,,,,,,,,,,1,,,76,76
5144,note_on,,104,0,8,,,,,,,,,,,,,,,11,,,76,0
5144,note_on,,104,0,6,,,,,,,,,,,,,,,1,,,76,0
5144,note_on,,104,0,5,,,,,,,,,,,,,,,0,,,76,0
5144,note_on,,104,0,9,,,,,,,,,,,,,,,12,,,67,0
5160,note_on,,16,0,5,,,,,,,,,,,,,,,0,,,78,76
5160,note_on,,16,0,6,,,,,,,,,,,,,,,1,,,78,76
5160,note_on,,16,0,9,,,,,,,,,,,,,,,12,,,69,76
5160,note_on,,16,0,8,,,,,,,,,,,,,,,11,,,78,76
5264,note_on,,104,0,5,,,,,,,,,,,,,,,0,,,78,0
5264,note_on,,224,0,7,,,,,,,,,,,,,,,2,,,54,0
5264,note_on,,224,0,11,,,,,,,,,,,,,,,14,,,54,0
5264,note_on,,104,0,6,,,,,,,,,,,,,,,1,,,78,0
5264,note_on,,104,0,9,,,,,,,,,,,,,,,12,,,69,0
5264,note_on,,224,0,10,,,,,,,,,,,,,,,13,,,59,0
5264,note_on,,104,0,8,,,,,,,,,,,,,,,11,,,78,0
5279,note_on,,239,0,12,,,,,,,,,,,,,,,15,,,66,0
5279,note_on,,0,0,12,,,,,,,,,,,,,,,15,,,72,0
5279,note_on,,0,0,12,,,,,,,,,,,,,,,15,,,69,0
5279,note_on,,0,0,12,,,,,,,,,,,,,,,15,,,54,0
5280,note_on,,16,0,7,,,,,,,,,,,,,,,2,,,52,76
5280,note_on,,1,0,12,,,,,,,,,,,,,,,15,,,64,76
5280,note_on,,16,0,6,,,,,,,,,,,,,,,1,,,79,76
5280,note_on,,0,0,12,,,,,,,,,,,,,,,15,,,67,76
5280,note_on,,0,0,12,,,,,,,,,,,,,,,15,,,52,76
5280,note_on,,16,0,8,,,,,,,,,,,,,,,11,,,79,76
5280,note_on,,16,0,9,,,,,,,,,,,,,,,12,,,71,76
5280,note_on,,16,0,5,,,,,,,,,,,,,,,0,,,79,76
5280,note_on,,0,0,12,,,,,,,,,,,,,,,15,,,71,76
5280,note_on,,16,0,10,,,,,,,,,,,,,,,13,,,64,76
5280,note_on,,16,0,11,,,,,,,,,,,,,,,14,,,52,76
5504,note_on,,224,0,11,,,,,,,,,,,,,,,14,,,52,0
5504,note_on,,224,0,5,,,,,,,,,,,,,,,0,,,79,0
5504,note_on,,224,0,7,,,,,,,,,,,,,,,2,,,52,0
5504,note_on,,224,0,6,,,,,,,,,,,,,,,1,,,79,0
5504,note_on,,224,0,8,,,,,,,,,,,,,,,11,,,79,0
5519,note_on,,239,0,9,,,,,,,,,,,,,,,12,,,71,0
5519,note_on,,239,0,10,,,,,,,,,,,,,,,13,,,64,0
5519,note_on,,0,0,12,,,,,,,,,,,,,,,15,,,71,0
5519,note_on,,0,0,12,,,,,,,,,,,,,,,15,,,52,0
5519,note_on,,0,0,12,,,,,,,,,,,,,,,15,,,67,0
5519,note_on,,239,0,12,,,,,,,,,,,,,,,15,,,64,0
5520,note_on,,1,0,12,,,,,,,,,,,,,,,15,,,50,76
5520,note_on,,16,0,6,,,,,,,,,,,,,,,1,,,69,76
5520,note_on,,0,0,12,,,,,,,,,,,,,,,15,,,69,76
5520,note_on,,0,0,12,,,,,,,,,,,,,,,15,,,65,76
5520,note_on,,16,0,7,,,,,,,,,,,,,,,2,,,50,76
5520,note_on,,16,0,5,,,,,,,,,,,,,,,0,,,69,76
5520,note_on,,16,0,8,,,,,,,,,,,,,,,11,,,69,76
5520,note_on,,0,0,12,,,,,,,,,,,,,,,15,,,62,76
5520,note_on,,16,0,11,,,,,,,,,,,,,,,14,,,50,76
5624,note_on,,104,0,5,,,,,,,,,,,,,,,0,,,69,0
5624,note_on,,104,0,6,,,,,,,,,,,,,,,1,,,69,0
5624,note_on,,104,0,8,,,,,,,,,,,,,,,11,,,69,0
5640,note_on,,16,0,5,,,,,,,,,,,,,,,0,,,71,76
5640,note_on,,16,0,8,,,,,,,,,,,,,,,11,,,71,76
5640,note_on,,16,0,6,,,,,,,,,,,,,,,1,,,71,76
5744,note_on,,104,0,5,,,,,,,,,,,,,,,0,,,71,0
5744,note_on,,224,0,11,,,,,,,,,,,,,,,14,,,50,0
5744,note_on,,104,0,8,,,,,,,,,,,,,,,11,,,71,0
5744,note_on,,224,0,7,,,,,,,,,,,,,,,2,,,50,0
5744,note_on,,104,0,6,,,,,,,,,,,,,,,1,,,71,0
5759,note_on,,0,0,12,,,,,,,,,,,,,,,15,,,65,0
5759,note_on,,0,0,12,,,,,,,,,,,,,,,15,,,69,0
5759,note_on,,239,0,12,,,,,,,,,,,,,,,15,,,50,0
5759,note_on,,0,0,12,,,,,,,,,,,,,,,15,,,62,0
5760,note_on,,1,0,12,,,,,,,,,,,,,,,15,,,64,76
5760,note_on,,0,0,12,,,,,,,,,,,,,,,15,,,71,76
5760,note_on,,0,0,12,,,,,,,,,,,,,,,15,,,52,76
5760,note_on,,16,0,8,,,,,,,,,,,,,,,11,,,72,76
5760,note_on,,16,0,6,,,,,,,,,,,,,,,1,,,72,76
5760,note_on,,0,0,12,,,,,,,,,,,,,,,15,,,67,76
5760,note_on,,16,0,7,,,,,,,,,,,,,,,2,,,52,76
5760,note_on,,16,0,5,,,,,,,,,,,,,,,0,,,72,76
5760,note_on,,16,0,11,,,,,,,,,,,,,,,14,,,52,76
5984,note_on,,224,0,6,,,,,,,,,,,,,,,1,,,72,0
5984,note_on,,224,0,5,,,,,,,,,,,,,,,0,,,72,0
5984,note_on,,224,0,8,,,,,,,,,,,,,,,11,,,72,0
5984,note_on,,224,0,11,,,,,,,,,,,,,,,14,,,52,0
5984,note_on,,224,0,7,,,,,,,,,,,,,,,2,,,52,0
5999,note_on,,0,0,12,,,,,,,,,,,,,,,15,,,52,0
5999,note_on,,0,0,12,,,,,,,,,,,,,,,15,,,71,0
5999,note_on,,0,0,12,,,,,,,,,,,,,,,15,,,67,0
5999,note_on,,239,0,12,,,,,,,,,,,,,,,15,,,64,0
6000,note_on,,16,0,5,,,,,,,,,,,,,,,0,,,74,76
6000,note_on,,0,0,12,,,,,,,,,,,,,,,15,,,54,76
6000,note_on,,16,0,11,,,,,,,,,,,,,,,14,,,54,76
6000,note_on,,481,0,10,,,,,,,,,,,,,,,13,,,57,76
6000,note_on,,16,0,6,,,,,,,,,,,,,,,1,,,74,76
6000,note_on,,16,0,7,,,,,,,,,,,,,,,2,,,54,76
6000,note_on,,0,0,12,,,,,,,,,,,,,,,15,,,66,76
6000,note_on,,16,0,8,,,,,,,,,,,,,,,11,,,74,76
6000,note_on,,481,0,9,,,,,,,,,,,,,,,12,,,69,76
6000,note_on,,1,0,12,,,,,,,,,,,,,,,15,,,69,76
6000,note_on,,0,0,12,,,,,,,,,,,,,,,15,,,74,76
6224,note_on,,224,0,5,,,,,,,,,,,,,,,0,,,74,0
6224,note_on,,224,0,6,,,,,,,,,,,,,,,1,,,74,0
6224,note_on,,224,0,8,,,,,,,,,,,,,,,11,,,74,0
6224,note_on,,224,0,9,,,,,,,,,,,,,,,12,,,69,0
6224,note_on,,224,0,11,,,,,,,,,,,,,,,14,,,54,0
6224,note_on,,224,0,10,,,,,,,,,,,,,,,13,,,57,0
6224,note_on,,224,0,7,,,,,,,,,,,,,,,2,,,54,0
6239,note_on,,239,0,12,,,,,,,,,,,,,,,15,,,69,0
6239,note_on,,0,0,12,,,,,,,,,,,,,,,15,,,66,0
6239,note_on,,0,0,12,,,,,,,,,,,,,,,15,,,54,0
6239,note_on,,0,0,12,,,,,,,,,,,,,,,15,,,74,0
6240,note_on,,0,0,12,,,,,,,,,,,,,,,15,,,71,76
6240,note_on,,16,0,9,,,,,,,,,,,,,,,12,,,67,76
6240,note_on,,16,0,11,,,,,,,,,,,,,,,14,,,55,76
6240,note_on,,16,0,7,,,,,,,,,,,,,,,2,,,55,76
6240,note_on,,16,0,6,,,,,,,,,,,,,,,1,,,71,76
6240,note_on,,16,0,5,,,,,,,,,,,,,,,0,,,71,76
6240,note_on,,0,0,12,,,,,,,,,,,,,,,15,,,55,76
6240,note_on,,0,0,12,,,,,,,,,,,,,,,15,,,74,76
6240,note_on,,16,0,10,,,,,,,,,,,,,,,13,,,62,76
6240,note_on,,1,0,12,,,,,,,,,,,,,,,15,,,67,76
6240,note_on,,16,0,8,,,,,,,,,,,,,,,11,,,71,76
6464,note_on,,224,0,7,,,,,,,,,,,,,,,2,,,55,0
6464,note_on,,224,0,9,,,,,,,,,,,,,,,12,,,67,0
6464,note_on,,224,0,10,,,,,,,,,,,,,,,13,,,62,0
6464,note_on,,224,0,11,,,,,,,,,,,,,,,14,,,55,0
6479,note_on,,0,0,12,,,,,,,,,,,,,,,15,,,74,0
6479,note_on,,0,0,12,,,,,,,,,,,,,,,15,,,55,0
6479,note_on,,0,0,12,,,,,,,,,,,,,,,15,,,71,0
6479,note_on,,239,0,12,,,,,,,,,,,,,,,15,,,67,0
6480,note_on,,0,0,12,,,,,,,,,,,,,,,15,,,69,76
6480,note_on,,0,0,12,,,,,,,,,,,,,,,15,,,60,76
6480,note_on,,0,0,12,,,,,,,,,,,,,,,15,,,67,76
6480,note_on,,1,0,12,,,,,,,,,,,,,,,15,,,64,76
6480,note_on,,16,0,7,,,,,,,,,,,,,,,2,,,48,76
6480,note_on,,0,0,12,,,,,,,,,,,,,,,15,,,48,76
6480,note_on,,16,0,10,,,,,,,,,,,,,,,13,,,64,76
6480,note_on,,16,0,9,,,,,,,,,,,,,,,12,,,67,76
6480,note_on,,16,0,11,,,,,,,,,,,,,,,14,,,48,76
6584,note_on,,344,0,6,,,,,,,,,,,,,,,1,,,71,0
6584,note_on,,344,0,8,,,,,,,,,,,,,,,11,,,71,0
6584,note_on,,344,0,5,,,,,,,,,,,,,,,0,,,71,0
6600,note_on,,16,0,6,,,,,,,,,,,,,,,1,,,69,76
6600,note_on,,16,0,8,,,,,,,,,,,,,,,11,,,69,76
6600,note_on,,16,0,5,,,,,,,,,,,,,,,0,,,69,76
6704,note_on,,104,0,6,,,,,,,,,,,,,,,1,,,69,0
6704,note_on,,224,0,9,,,,,,,,,,,,,,,12,,,67,0
6704,note_on,,104,0,8,,,,,,,,,,,,,,,11,,,69,0
6704,note_on,,224,0,10,,,,,,,,,,,,,,,13,,,64,0
6704,note_on,,224,0,11,,,,,,,,,,,,,,,14,,,48,0
6704,note_on,,104,0,5,,,,,,,,,,,,,,,0,,,69,0
6704,note_on,,224,0,7,,,,,,,,,,,,,,,2,,,48,0
6719,note_on,,0,0,12,,,,,,,,,,,,,,,15,,,69,0
6719,note_on,,0,0,12,,,,,,,,,,,,,,,15,,,60,0
6719,note_on,,0,0,12,,,,,,,,,,,,,,,15,,,48,0
6719,note_on,,0,0,12,,,,,,,,,,,,,,,15,,,67,0
6719,note_on,,239,0,12,,,,,,,,,,,,,,,15,,,64,0
6720,note_on,,16,0,5,,,,,,,,,,,,,,,0,,,69,76
6720,note_on,,1,0,12,,,,,,,,,,,,,,,15,,,62,76
6720,note_on,,16,0,6,,,,,,,,,,,,,,,1,,,69,76
6720,note_on,,0,0,12,,,,,,,,,,,,,,,15,,,67,76
6720,note_on,,16,0,7,,,,,,,,,,,,,,,2,,,50,76
6720,note_on,,16,0,10,,,,,,,,,,,,,,,13,,,62,76
6720,note_on,,16,0,9,,,,,,,,,,,,,,,12,,,67,76
6720,note_on,,16,0,11,,,,,,,,,,,,,,,14,,,50,76
6720,note_on,,16,0,8,,,,,,,,,,,,,,,11,,,69,76
6720,note_on,,0,0,12,,,,,,,,,,,,,,,15,,,50,76
6720,note_on,,0,0,12,,,,,,,,,,,,,,,15,,,69,76
6944,note_on,,224,0,7,,,,,,,,,,,,,,,2,,,50,0
6944,note_on,,224,0,9,,,,,,,,,,,,,,,12,,,67,0
6944,note_on,,224,0,11,,,,,,,,,,,,,,,14,,,50,0
6944,note_on,,224,0,10,,,,,,,,,,,,,,,13,,,62,0
6959,note_on,,239,0,12,,,,,,,,,,,,,,,15,,,62,0
6959,note_on,,0,0,12,,,,,,,,,,,,,,,15,,,69,0
6959,note_on,,0,0,12,,,,,,,,,,,,,,,15,,,50,0
6959,note_on,,0,0,12,,,,,,,,,,,,,,,15,,,67,0
6960,note_on,,16,0,9,,,,,,,,,,,,,,,12,,,66,76
6960,note_on,,16,0,11,,,,,,,,,,,,,,,14,,,38,76
6960,note_on,,0,0,12,,,,,,,,,,,,,,,15,,,57,76
6960,note_on,,16,0,7,,,,,,,,,,,,,,,2,,,38,76
6960,note_on,,0,0,12,,,,,,,,,,,,,,,15,,,50,76
6960,note_on,,1,0,12,,,,,,,,,,,,,,,15,,,38,76
6960,note_on,,16,0,10,,,,,,,,,,,,,,,13,,,60,76
6960,note_on,,0,0,12,,,,,,,,,,,,,,,15,,,54,76
7064,note_on,,344,0,5,,,,,,,,,,,,,,,0,,,69,0
7064,note_on,,344,0,8,,,,,,,,,,,,,,,11,,,69,0
7064,note_on,,344,0,6,,,,,,,,,,,,,,,1,,,69,0
7080,note_on,,16,0,8,,,,,,,,,,,,,,,11,,,67,76
7080,note_on,,16,0,6,,,,,,,,,,,,,,,1,,,67,76
7080,note_on,,16,0,5,,,,,,,,,,,,,,,0,,,67,76
7184,note_on,,224,0,7,,,,,,,,,,,,,,,2,,,38,0
7184,note_on,,224,0,11,,,,,,,,,,,,,,,14,,,38,0
7184,note_on,,224,0,9,,,,,,,,,,,,,,,12,,,66,0
7184,note_on,,104,0,6,,,,,,,,,,,,,,,1,,,67,0
7184,note_on,,104,0,8,,,,,,,,,,,,,,,11,,,67,0
7184,note_on,,104,0,5,,,,,,,,,,,,,,,0,,,67,0
7184,note_on,,224,0,10,,,,,,,,,,,,,,,13,,,60,0
7199,note_on,,239,0,12,,,,,,,,,,,,,,,15,,,38,0
7199,note_on,,0,0,12,,,,,,,,,,,,,,,15,,,50,0
7199,note_on,,0,0,12,,,,,,,,,,,,,,,15,,,54,0
7199,note_on,,0,0,12,,,,,,,,,,,,,,,15,,,57,0
7200,note_on,,0,0,12,,,,,,,,,,,,,,,15,,,55,76
7200,note_on,,1,0,12,,,,,,,,,,,,,,,15,,,62,76
7200,note_on,,16,0,5,,,,,,,,,,,,,,,0,,,67,76
7200,note_on,,0,0,12,,,,,,,,,,,,,,,15,,,59,76
7200,note_on,,16,0,10,,,,,,,,,,,,,,,13,,,59,76
7200,note_on,,16,0,6,,,,,,,,,,,,,,,1,,,67,76
7200,note_on,,16,0,9,,,,,,,,,,,,,,,12,,,62,76
7200,note_on,,16,0,8,,,,,,,,,,,,,,,11,,,67,76
7200,note_on,,16,0,11,,,,,,,,,,,,,,,14,,,43,76
7200,note_on,,0,0,12,,,,,,,,,,,,,,,15,,,43,76
7200,note_on,,16,0,7,,,,,,,,,,,,,,,2,,,43,76
7424,note_on,,224,0,7,,,,,,,,,,,,,,,2,,,43,0
7424,note_on,,224,0,11,,,,,,,,,,,,,,,14,,,43,0
7439,note_on,,0,0,12,,,,,,,,,,,,,,,15,,,43,0
7439,note_on,,0,0,12,,,,,,,,,,,,,,,15,,,59,0
7439,note_on,,239,0,12,,,,,,,,,,,,,,,15,,,62,0
7439,note_on,,0,0,12,,,,,,,,,,,,,,,15,,,55,0
7440,note_on,,0,0,12,,,,,,,,,,,,,,,15,,,69,76
7440,note_on,,16,0,7,,,,,,,,,,,,,,,2,,,50,76
7440,note_on,,0,0,12,,,,,,,,,,,,,,,15,,,65,76
7440,note_on,,0,0,12,,,,,,,,,,,,,,,15,,,50,76
7440,note_on,,1,0,12,,,,,,,,,,,,,,,15,,,62,76
7440,note_on,,16,0,11,,,,,,,,,,,,,,,14,,,50,76
7664,note_on,,224,0,7,,,,,,,,,,,,,,,2,,,50,0
7664,note_on,,224,0,11,,,,,,,,,,,,,,,14,,,50,0
7679,note_on,,0,0,12,,,,,,,,,,,,,,,15,,,50,0
7679,note_on,,239,0,12,,,,,,,,,,,,,,,15,,,62,0
7679,note_on,,0,0,12,,,,,,,,,,,,,,,15,,,69,0
7679,note_on,,0,0,12,,,,,,,,,,,,,,,15,,,65,0
7680,note_on,,0,0,12,,,,,,,,,,,,,,,15,,,74,76
7680,note_on,,16,0,11,,,,,,,,,,,,,,,14,,,55,76
7680,note_on,,1,0,12,,,,,,,,,,,,,,,15,,,71,76
7680,note_on,,0,0,12,,,,,,,,,,,,,,,15,,,55,76
7680,note_on,,0,0,12,,,,,,,,,,,,,,,15,,,67,76
7680,note_on,,16,0,7,,,,,,,,,,,,,,,2,,,55,76
7904,note_on,,704,0,6,,,,,,,,,,,,,,,1,,,67,0
7904,note_on,,704,0,5,,,,,,,,,,,,,,,0,,,67,0
7904,note_on,,704,0,8,,,,,,,,,,,,,,,11,,,67,0
7919,note_on,,0,0,12,,,,,,,,,,,,,,,15,,,74,0
7919,note_on,,719,0,10,,,,,,,,,,,,,,,13,,,59,0
7919,note_on,,0,0,12,,,,,,,,,,,,,,,15,,,67,0
7919,note_on,,239,0,11,,,,,,,,,,,,,,,14,,,55,0
7919,note_on,,719,0,9,,,,,,,,,,,,,,,12,,,62,0
7919,note_on,,0,0,12,,,,,,,,,,,,,,,15,,,55,0
7919,note_on,,239,0,12,,,,,,,,,,,,,,,15,,,71,0
7919,note_on,,239,0,7,,,,,,,,,,,,,,,2,,,55,0
7920,note_on,,16,0,5,,,,,,,,,,,,,,,0,,,64,76
7920,note_on,,16,0,6,,,,,,,,,,,,,,,1,,,64,76
7920,note_on,,16,0,8,,,,,,,,,,,,,,,11,,,64,76
8024,note_on,,104,0,5,,,,,,,,,,,,,,,0,,,64,0
8024,note_on,,104,0,6,,,,,,,,,,,,,,,1,,,64,0
8024,note_on,,104,0,8,,,,,,,,,,,,,,,11,,,64,0
8040,note_on,,16,0,8,,,,,,,,,,,,,,,11,,,65,76
8040,note_on,,16,0,6,,,,,,,,,,,,,,,1,,,65,76
8040,note_on,,16,0,5,,,,,,,,,,,,,,,0,,,65,76
8144,note_on,,104,0,8,,,,,,,,,,,,,,,11,,,65,0
8144,note_on,,104,0,6,,,,,,,,,,,,,,,1,,,65,0
8144,note_on,,104,0,5,,,,,,,,,,,,,,,0,,,65,0
8160,note_on,,16,0,6,,,,,,,,,,,,,,,1,,,67,76
8160,note_on,,16,0,5,,,,,,,,,,,,,,,0,,,67,76
8160,note_on,,16,0,8,,,,,,,,,,,,,,,11,,,67,76
8384,note_on,,224,0,8,,,,,,,,,,,,,,,11,,,67,0
8384,note_on,,224,0,6,,,,,,,,,,,,,,,1,,,67,0
8384,note_on,,224,0,5,,,,,,,,,,,,,,,0,,,67,0
8400,note_on,,481,0,11,,,,,,,,,,,,,,,14,,,48,76
8400,note_on,,16,0,8,,,,,,,,,,,,,,,11,,,72,76
8400,note_on,,0,0,12,,,,,,,,,,,,,,,15,,,48,76
8400,note_on,,0,0,12,,,,,,,,,,,,,,,15,,,67,76
8400,note_on,,16,0,5,,,,,,,,,,,,,,,0,,,72,76
8400,note_on,,0,0,12,,,,,,,,,,,,,,,15,,,64,76
8400,note_on,,481,0,12,,,,,,,,,,,,,,,15,,,60,76
8400,note_on,,481,0,7,,,,,,,,,,,,,,,2,,,48,76
8400,note_on,,481,0,10,,,,,,,,,,,,,,,13,,,55,76
8400,note_on,,16,0,6,,,,,,,,,,,,,,,1,,,72,76
8400,note_on,,481,0,9,,,,,,,,,,,,,,,12,,,64,76
8504,note_on,,104,0,7,,,,,,,,,,,,,,,2,,,48,0
8504,note_on,,104,0,11,,,,,,,,,,,,,,,14,,,48,0
8504,note_on,,104,0,9,,,,,,,,,,,,,,,12,,,64,0
8519,note_on,,119,0,12,,,,,,,,,,,,,,,15,,,60,0
8519,note_on,,0,0,12,,,,,,,,,,,,,,,15,,,67,0
8519,note_on,,0,0,12,,,,,,,,,,,,,,,15,,,64,0
8519,note_on,,0,0,12,,,,,,,,,,,,,,,15,,,48,0
8520,note_on,,0,0,12,,,,,,,,,,,,,,,15,,,62,76
8520,note_on,,1,0,12,,,,,,,,,,,,,,,15,,,50,76
8520,note_on,,16,0,11,,,,,,,,,,,,,,,14,,,50,76
8520,note_on,,0,0,12,,,,,,,,,,,,,,,15,,,65,76
8520,note_on,,16,0,7,,,,,,,,,,,,,,,2,,,50,76
8520,note_on,,16,0,9,,,,,,,,,,,,,,,12,,,65,76
8520,note_on,,0,0,12,,,,,,,,,,,,,,,15,,,69,76
8624,note_on,,104,0,7,,,,,,,,,,,,,,,2,,,50,0
8624,note_on,,224,0,10,,,,,,,,,,,,,,,13,,,55,0
8624,note_on,,104,0,11,,,,,,,,,,,,,,,14,,,50,0
8624,note_on,,104,0,9,,,,,,,,,,,,,,,12,,,65,0
8639,note_on,,0,0,12,,,,,,,,,,,,,,,15,,,69,0
8639,note_on,,0,0,12,,,,,,,,,,,,,,,15,,,65,0
8639,note_on,,0,0,12,,,,,,,,,,,,,,,15,,,62,0
8639,note_on,,119,0,12,,,,,,,,,,,,,,,15,,,50,0
8640,note_on,,1,0,12,,,,,,,,,,,,,,,15,,,52,76
8640,note_on,,16,0,11,,,,,,,,,,,,,,,14,,,52,76
8640,note_on,,16,0,9,,,,,,,,,,,,,,,12,,,67,76
8640,note_on,,0,0,12,,,,,,,,,,,,,,,15,,,67,76
8640,note_on,,16,0,7,,,,,,,,,,,,,,,2,,,52,76
8640,note_on,,0,0,12,,,,,,,,,,,,,,,15,,,64,76
8640,note_on,,0,0,12,,,,,,,,,,,,,,,15,,,72,76
8640,note_on,,16,0,10,,,,,,,,,,,,,,,13,,,60,76
8864,note_on,,464,0,8,,,,,,,,,,,,,,,11,,,72,0
8864,note_on,,464,0,6,,,,,,,,,,,,,,,1,,,72,0
8864,note_on,,224,0,10,,,,,,,,,,,,,,,13,,,60,0
8864,note_on,,224,0,9,,,,,,,,,,,,,,,12,,,67,0
8864,note_on,,464,0,5,,,,,,,,,,,,,,,0,,,72,0
8864,note_on,,224,0,7,,,,,,,,,,,,,,,2,,,52,0
8864,note_on,,224,0,11,,,,,,,,,,,,,,,14,,,52,0
8879,note_on,,0,0,12,,,,,,,,,,,,,,,15,,,67,0
8879,note_on,,0,0,12,,,,,,,,,,,,,,,15,,,72,0
8879,note_on,,0,0,12,,,,,,,,,,,,,,,15,,,64,0
8879,note_on,,239,0,12,,,,,,,,,,,,,,,15,,,52,0
8880,note_on,,16,0,6,,,,,,,,,,,,,,,1,,,67,76
8880,note_on,,16,0,8,,,,,,,,,,,,,,,11,,,67,76
8880,note_on,,0,0,12,,,,,,,,,,,,,,,15,,,74,76
8880,note_on,,16,0,10,,,,,,,,,,,,,,,13,,,62,76
8880,note_on,,16,0,5,,,,,,,,,,,,,,,0,,,67,76
8880,note_on,,16,0,11,,,,,,,,,,,,,,,14,,,55,76
8880,note_on,,0,0,12,,,,,,,,,,,,,,,15,,,55,76
8880,note_on,,16,0,9,,,,,,,,,,,,,,,12,,,59,76
8880,note_on,,1,0,12,,,,,,,,,,,,,,,15,,,67,76
8880,note_on,,16,0,7,,,,,,,,,,,,,,,2,,,55,76
8880,note_on,,0,0,12,,,,,,,,,,,,,,,15,,,71,76
9104,note_on,,224,0,7,,,,,,,,,,,,,,,2,,,55,0
9104,note_on,,224,0,9,,,,,,,,,,,,,,,12,,,59,0
9104,note_on,,224,0,10,,,,,,,,,,,,,,,13,,,62,0
9104,note_on,,224,0,6,,,,,,,,,,,,,,,1,,,67,0
9104,note_on,,224,0,11,,,,,,,,,,,,,,,14,,,55,0
9104,note_on,,224,0,5,,,,,,,,,,,,,,,0,,,67,0
9104,note_on,,224,0,8,,,,,,,,,,,,,,,11,,,67,0
9119,note_on,,0,0,12,,,,,,,,,,,,,,,15,,,74,0
9119,note_on,,239,0,12,,,,,,,,,,,,,,,15,,,67,0
9119,note_on,,0,0,12,,,,,,,,,,,,,,,15,,,71,0
9119,note_on,,0,0,12,,,,,,,,,,,,,,,15,,,55,0
9120,note_on,,16,0,9,,,,,,,,,,,,,,,12,,,60,76
9120,note_on,,1,0,12,,,,,,,,,,,,,,,15,,,79,76
9120,note_on,,0,0,12,,,,,,,,,,,,,,,15,,,76,76
9120,note_on,,16,0,10,,,,,,,,,,,,,,,13,,,64,76
9120,note_on,,16,0,11,,,,,,,,,,,,,,,14,,,60,76
9120,note_on,,16,0,7,,,,,,,,,,,,,,,2,,,60,76
9120,note_on,,0,0,12,,,,,,,,,,,,,,,15,,,60,76
9120,note_on,,16,0,6,,,,,,,,,,,,,,,1,,,64,76
9120,note_on,,0,0,12,,,,,,,,,,,,,,,15,,,72,76
9120,note_on,,16,0,5,,,,,,,,,,,,,,,0,,,64,76
9120,note_on,,16,0,8,,,,,,,,,,,,,,,11,,,64,76
9224,note_on,,104,0,6,,,,,,,,,,,,,,,1,,,64,0
9224,note_on,,104,0,9,,,,,,,,,,,,,,,12,,,60,0
9224,note_on,,104,0,8,,,,,,,,,,,,,,,11,,,64,0
9224,note_on,,104,0,5,,,,,,,,,,,,,,,0,,,64,0
9240,note_on,,16,0,9,,,,,,,,,,,,,,,12,,,59,76
9240,note_on,,16,0,8,,,,,,,,,,,,,,,11,,,62,76
9240,note_on,,16,0,6,,,,,,,,,,,,,,,1,,,62,76
9240,note_on,,16,0,5,,,,,,,,,,,,,,,0,,,62,76
9344,note_on,,104,0,9,,,,,,,,,,,,,,,12,,,59,0
9344,note_on,,224,0,7,,,,,,,,,,,,,,,2,,,60,0
9344,note_on,,104,0,8,,,,,,,,,,,,,,,11,,,62,0
9344,note_on,,104,0,5,,,,,,,,,,,,,,,0,,,62,0
9344,note_on,,224,0,10,,,,,,,,,,,,,,,13,,,64,0
9344,note_on,,224,0,11,,,,,,,,,,,,,,,14,,,60,0
9344,note_on,,104,0,6,,,,,,,,,,,,,,,1,,,62,0
9359,note_on,,0,0,12,,,,,,,,,,,,,,,15,,,76,0
9359,note_on,,0,0,12,,,,,,,,,,,,,,,15,,,60,0
9359,note_on,,0,0,12,,,,,,,,,,,,,,,15,,,72,0
9359,note_on,,239,0,12,,,,,,,,,,,,,,,15,,,79,0
9360,note_on,,16,0,10,,,,,,,,,,,,,,,13,,,67,76
9360,note_on,,0,0,12,,,,,,,,,,,,,,,15,,,67,76
9360,note_on,,16,0,6,,,,,,,,,,,,,,,1,,,64,76
9360,note_on,,16,0,7,,,,,,,,,,,,,,,2,,,55,76
9360,note_on,,16,0,8,,,,,,,,,,,,,,,11,,,64,76
9360,note_on,,16,0,9,,,,,,,,,,,,,,,12,,,60,76
9360,note_on,,0,0,12,,,,,,,,,,,,,,,15,,,55,76
9360,note_on,,0,0,12,,,,,,,,,,,,,,,15,,,74,76
9360,note_on,,16,0,11,,,,,,,,,,,,,,,14,,,55,76
9360,note_on,,16,0,5,,,,,,,,,,,,,,,0,,,64,76
9360,note_on,,1,0,12,,,,,,,,,,,,,,,15,,,71,76
9464,note_on,,104,0,8,,,,,,,,,,,,,,,11,,,64,0
9464,note_on,,104,0,5,,,,,,,,,,,,,,,0,,,64,0
9464,note_on,,104,0,6,,,,,,,,,,,,,,,1,,,64,0
9464,note_on,,104,0,10,,,,,,,,,,,,,,,13,,,67,0
9464,note_on,,104,0,9,,,,,,,,,,,,,,,12,,,60,0
9480,note_on,,16,0,5,,,,,,,,,,,,,,,0,,,65,76
9480,note_on,,16,0,10,,,,,,,,,,,,,,,13,,,65,76
9480,note_on,,16,0,6,,,,,,,,,,,,,,,1,,,65,76
9480,note_on,,16,0,8,,,,,,,,,,,,,,,11,,,65,76
9480,note_on,,16,0,9,,,,,,,,,,,,,,,12,,,62,76
9584,note_on,,104,0,9,,,,,,,,,,,,,,,12,,,62,0
9584,note_on,,224,0,7,,,,,,,,,,,,,,,2,,,55,0
9584,note_on,,104,0,6,,,,,,,,,,,,,,,1,,,65,0
9584,note_on,,104,0,8,,,,,,,,,,,,,,,11,,,65,0
9584,note_on,,224,0,11,,,,,,,,,,,,,,,14,,,55,0
9584,note_on,,104,0,5,,,,,,,,,,,,,,,0,,,65,0
9584,note_on,,104,0,10,,,,,,,,,,,,,,,13,,,65,0
9599,note_on,,0,0,12,,,,,,,,,,,,,,,15,,,67,0
9599,note_on,,0,0,12,,,,,,,,,,,,,,,15,,,55,0
9599,note_on,,239,0,12,,,,,,,,,,,,,,,15,,,71,0
9599,note_on,,0,0,12,,,,,,,,,,,,,,,15,,,74,0
9600,note_on,,1,0,12,,,,,,,,,,,,,,,15,,,48,76
9600,note_on,,16,0,9,,,,,,,,,,,,,,,12,,,64,76
9600,note_on,,16,0,7,,,,,,,,,,,,,,,2,,,48,76
9600,note_on,,16,0,11,,,,,,,,,,,,,,,14,,,48,76
9600,note_on,,16,0,5,,,,,,,,,,,,,,,0,,,67,76
9600,note_on,,16,0,6,,,,,,,,,,,,,,,1,,,67,76
9600,note_on,,0,0,12,,,,,,,,,,,,,,,15,,,64,76
9600,note_on,,16,0,10,,,,,,,,,,,,,,,13,,,64,76
9600,note_on,,0,0,12,,,,,,,,,,,,,,,15,,,67,76
9600,note_on,,0,0,12,,,,,,,,,,,,,,,15,,,60,76
9600,note_on,,16,0,8,,,,,,,,,,,,,,,11,,,67,76
9824,note_on,,224,0,8,,,,,,,,,,,,,,,11,,,67,0
9824,note_on,,224,0,9,,,,,,,,,,,,,,,12,,,64,0
9824,note_on,,224,0,5,,,,,,,,,,,,,,,0,,,67,0
9824,note_on,,224,0,10,,,,,,,,,,,,,,,13,,,64,0
9824,note_on,,224,0,11,,,,,,,,,,,,,,,14,,,48,0
9824,note_on,,224,0,7,,,,,,,,,,,,,,,2,,,48,0
9824,note_on,,224,0,6,,,,,,,,,,,,,,,1,,,67,0
9839,note_on,,239,0,12,,,,,,,,,,,,,,,15,,,48,0
9839,note_on,,0,0,12,,,,,,,,,,,,,,,15,,,64,0
9839,note_on,,0,0,12,,,,,,,,,,,,,,,15,,,60,0
9839,note_on,,0,0,12,,,,,,,,,,,,,,,15,,,67,0
9840,note_on,,16,0,9,,,,,,,,,,,,,,,12,,,65,76
9840,note_on,,0,0,12,,,,,,,,,,,,,,,15,,,69,76
9840,note_on,,0,0,12,,,,,,,,,,,,,,,15,,,53,76
9840,note_on,,0,0,12,,,,,,,,,,,,,,,15,,,72,76
9840,note_on,,1,0,12,,,,,,,,,,,,,,,15,,,65,76
9840,note_on,,16,0,6,,,,,,,,,,,,,,,1,,,69,76
9840,note_on,,16,0,5,,,,,,,,,,,,,,,0,,,69,76
9840,note_on,,16,0,11,,,,,,,,,,,,,,,14,,,53,76
9840,note_on,,16,0,10,,,,,,,,,,,,,,,13,,,60,76
9840,note_on,,16,0,8,,,,,,,,,,,,,,,11,,,69,76
9840,note_on,,16,0,7,,,,,,,,,,,,,,,2,,,53,76
9944,note_on,,104,0,5,,,,,,,,,,,,,,,0,,,69,0
9944,note_on,,104,0,8,,,,,,,,,,,,,,,11,,,69,0
9944,note_on,,104,0,6,,,,,,,,,,,,,,,1,,,69,0
9960,note_on,,16,0,6,,,,,,,,,,,,,,,1,,,71,76
9960,note_on,,16,0,8,,,,,,,,,,,,,,,11,,,71,76
9960,note_on,,16,0,5,,,,,,,,,,,,,,,0,,,71,76
10064,note_on,,224,0,9,,,,,,,,,,,,,,,12,,,65,0
10064,note_on,,224,0,7,,,,,,,,,,,,,,,2,,,53,0
10064,note_on,,104,0,6,,,,,,,,,,,,,,,1,,,71,0
10064,note_on,,224,0,10,,,,,,,,,,,,,,,13,,,60,0
10064,note_on,,104,0,5,,,,,,,,,,,,,,,0,,,71,0
10064,note_on,,104,0,8,,,,,,,,,,,,,,,11,,,71,0
10064,note_on,,224,0,11,,,,,,,,,,,,,,,14,,,53,0
10079,note_on,,0,0,12,,,,,,,,,,,,,,,15,,,53,0
10079,note_on,,0,0,12,,,,,,,,,,,,,,,15,,,72,0
10079,note_on,,239,0,12,,,,,,,,,,,,,,,15,,,65,0
10079,note_on,,0,0,12,,,,,,,,,,,,,,,15,,,69,0
10080,note_on,,16,0,9,,,,,,,,,,,,,,,12,,,67,76
10080,note_on,,16,0,6,,,,,,,,,,,,,,,1,,,72,76
10080,note_on,,16,0,11,,,,,,,,,,,,,,,14,,,52,76
10080,note_on,,16,0,10,,,,,,,,,,,,,,,13,,,60,76
10080,note_on,,16,0,8,,,,,,,,,,,,,,,11,,,72,76
10080,note_on,,1,0,12,,,,,,,,,,,,,,,15,,,67,76
10080,note_on,,0,0,12,,,,,,,,,,,,,,,15,,,52,76
10080,note_on,,0,0,12,,,,,,,,,,,,,,,15,,,72,76
10080,note_on,,0,0,12,,,,,,,,,,,,,,,15,,,64,76
10080,note_on,,16,0,5,,,,,,,,,,,,,,,0,,,72,76
10080,note_on,,16,0,7,,,,,,,,,,,,,,,2,,,52,76
10184,note_on,,104,0,5,,,,,,,,,,,,,,,0,,,72,0
10184,note_on,,104,0,6,,,,,,,,,,,,,,,1,,,72,0
10184,note_on,,104,0,8,,,,,,,,,,,,,,,11,,,72,0
10200,note_on,,16,0,8,,,,,,,,,,,,,,,11,,,74,76
10200,note_on,,16,0,6,,,,,,,,,,,,,,,1,,,74,76
10200,note_on,,16,0,5,,,,,,,,,,,,,,,0,,,74,76
10304,note_on,,224,0,7,,,,,,,,,,,,,,,2,,,52,0
10304,note_on,,104,0,6,,,,,,,,,,,,,,,1,,,74,0
10304,note_on,,224,0,9,,,,,,,,,,,,,,,12,,,67,0
10304,note_on,,104,0,5,,,,,,,,,,,,,,,0,,,74,0
10304,note_on,,224,0,11,,,,,,,,,,,,,,,14,,,52,0
10304,note_on,,104,0,8,,,,,,,,,,,,,,,11,,,74,0
10304,note_on,,224,0,10,,,,,,,,,,,,,,,13,,,60,0
10319,note_on,,239,0,12,,,,,,,,,,,,,,,15,,,67,0
10319,note_on,,0,0,12,,,,,,,,,,,,,,,15,,,52,0
10319,note_on,,0,0,12,,,,,,,,,,,,,,,15,,,72,0
10319,note_on,,0,0,12,,,,,,,,,,,,,,,15,,,64,0
10320,note_on,,16,0,11,,,,,,,,,,,,,,,14,,,50,76
10320,note_on,,16,0,8,,,,,,,,,,,,,,,11,,,76,76
10320,note_on,,16,0,10,,,,,,,,,,,,,,,13,,,65,76
10320,note_on,,0,0,12,,,,,,,,,,,,,,,15,,,50,76
10320,note_on,,16,0,7,,,,,,,,,,,,,,,2,,,50,76
10320,note_on,,0,0,12,,,,,,,,,,,,,,,15,,,65,76
10320,note_on,,16,0,9,,,,,,,,,,,,,,,12,,,71,76
10320,note_on,,1,0,12,,,,,,,,,,,,,,,15,,,62,76
10320,note_on,,16,0,6,,,,,,,,,,,,,,,1,,,76,76
10320,note_on,,16,0,5,,,,,,,,,,,,,,,0,,,76,76
10320,note_on,,0,0,12,,,,,,,,,,,,,,,15,,,69,76
10424,note_on,,104,0,8,,,,,,,,,,,,,,,11,,,76,0
10424,note_on,,104,0,6,,,,,,,,,,,,,,,1,,,76,0
10424,note_on,,104,0,5,,,,,,,,,,,,,,,0,,,76,0
10440,note_on,,16,0,8,,,,,,,,,,,,,,,11,,,77,76
10440,note_on,,16,0,6,,,,,,,,,,,,,,,1,,,77,76
10440,note_on,,16,0,5,,,,,,,,,,,,,,,0,,,77,76
10544,note_on,,104,0,8,,,,,,,,,,,,,,,11,,,77,0
10544,note_on,,104,0,5,,,,,,,,,,,,,,,0,,,77,0
10544,note_on,,224,0,7,,,,,,,,,,,,,,,2,,,50,0
10544,note_on,,104,0,6,,,,,,,,,,,,,,,1,,,77,0
10544,note_on,,224,0,10,,,,,,,,,,,,,,,13,,,65,0
10544,note_on,,224,0,9,,,,,,,,,,,,,,,12,,,71,0
10544,note_on,,224,0,11,,,,,,,,,,,,,,,14,,,50,0
10559,note_on,,239,0,12,,,,,,,,,,,,,,,15,,,62,0
10559,note_on,,0,0,12,,,,,,,,,,,,,,,15,,,65,0
10559,note_on,,0,0,12,,,,,,,,,,,,,,,15,,,50,0
10559,note_on,,0,0,12,,,,,,,,,,,,,,,15,,,69,0
10560,note_on,,16,0,11,,,,,,,,,,,,,,,14,,,52,76
10560,note_on,,16,0,6,,,,,,,,,,,,,,,1,,,79,76
10560,note_on,,16,0,7,,,,,,,,,,,,,,,2,,,52,76
10560,note_on,,16,0,8,,,,,,,,,,,,,,,11,,,79,76
10560,note_on,,0,0,12,,,,,,,,,,,,,,,15,,,72,76
10560,note_on,,16,0,5,,,,,,,,,,,,,,,0,,,79,76
10560,note_on,,0,0,12,,,,,,,,,,,,,,,15,,,67,76
10560,note_on,,1,0,12,,,,,,,,,,,,,,,15,,,64,76
10560,note_on,,0,0,12,,,,,,,,,,,,,,,15,,,52,76
10560,note_on,,16,0,9,,,,,,,,,,,,,,,12,,,72,76
10560,note_on,,16,0,10,,,,,,,,,,,,,,,13,,,64,76
10784,note_on,,224,0,7,,,,,,,,,,,,,,,2,,,52,0
10784,note_on,,224,0,8,,,,,,,,,,,,,,,11,,,79,0
10784,note_on,,224,0,5,,,,,,,,,,,,,,,0,,,79,0
10784,note_on,,224,0,6,,,,,,,,,,,,,,,1,,,79,0
10784,note_on,,224,0,10,,,,,,,,,,,,,,,13,,,64,0
10784,note_on,,224,0,9,,,,,,,,,,,,,,,12,,,72,0
10784,note_on,,224,0,11,,,,,,,,,,,,,,,14,,,52,0
10799,note_on,,239,0,12,,,,,,,,,,,,,,,15,,,64,0
10799,note_on,,0,0,12,,,,,,,,,,,,,,,15,,,67,0
10799,note_on,,0,0,12,,,,,,,,,,,,,,,15,,,52,0
10799,note_on,,0,0,12,,,,,,,,,,,,,,,15,,,72,0
10800,note_on,,16,0,6,,,,,,,,,,,,,,,1,,,81,76
10800,note_on,,1,0,12,,,,,,,,,,,,,,,15,,,65,76
10800,note_on,,0,0,12,,,,,,,,,,,,,,,15,,,69,76
10800,note_on,,0,0,12,,,,,,,,,,,,,,,15,,,72,76
10800,note_on,,0,0,12,,,,,,,,,,,,,,,15,,,53,76
10800,note_on,,16,0,5,,,,,,,,,,,,,,,0,,,81,76
10800,note_on,,16,0,10,,,,,,,,,,,,,,,13,,,60,76
10800,note_on,,16,0,8,,,,,,,,,,,,,,,11,,,81,76
10800,note_on,,16,0,9,,,,,,,,,,,,,,,12,,,72,76
10800,note_on,,16,0,7,,,,,,,,,,,,,,,2,,,53,76
10800,note_on,,16,0,11,,,,,,,,,,,,,,,14,,,53,76
11024,note_on,,224,0,10,,,,,,,,,,,,,,,13,,,60,0
11024,note_on,,224,0,7,,,,,,,,,,,,,,,2,,,53,0
11024,note_on,,224,0,11,,,,,,,,,,,,,,,14,,,53,0
11024,note_on,,224,0,8,,,,,,,,,,,,,,,11,,,81,0
11024,note_on,,224,0,9,,,,,,,,,,,,,,,12,,,72,0
11024,note_on,,224,0,5,,,,,,,,,,,,,,,0,,,81,0
11024,note_on,,224,0,6,,,,,,,,,,,,,,,1,,,81,0
11039,note_on,,0,0,12,,,,,,,,,,,,,,,15,,,53,0
11039,note_on,,0,0,12,,,,,,,,,,,,,,,15,,,72,0
11039,note_on,,0,0,12,,,,,,,,,,,,,,,15,,,69,0
11039,note_on,,239,0,12,,,,,,,,,,,,,,,15,,,65,0
11040,note_on,,16,0,5,,,,,,,,,,,,,,,0,,,74,76
11040,note_on,,1,0,12,,,,,,,,,,,,,,,15,,,67,76
11040,note_on,,0,0,12,,,,,,,,,,,,,,,15,,,55,76
11040,note_on,,16,0,7,,,,,,,,,,,,,,,2,,,55,76
11040,note_on,,0,0,12,,,,,,,,,,,,,,,15,,,71,76
11040,note_on,,0,0,12,,,,,,,,,,,,,,,15,,,74,76
11040,note_on,,16,0,10,,,,,,,,,,,,,,,13,,,67,76
11040,note_on,,16,0,8,,,,,,,,,,,,,,,11,,,74,76
11040,note_on,,16,0,11,,,,,,,,,,,,,,,14,,,55,76
11040,note_on,,16,0,6,,,,,,,,,,,,,,,1,,,74,76
11040,note_on,,16,0,9,,,,,,,,,,,,,,,12,,,71,76
11144,note_on,,104,0,5,,,,,,,,,,,,,,,0,,,74,0
11144,note_on,,104,0,6,,,,,,,,,,,,,,,1,,,74,0
11144,note_on,,104,0,8,,,,,,,,,,,,,,,11,,,74,0
11160,note_on,,16,0,5,,,,,,,,,,,,,,,0,,,72,76
11160,note_on,,16,0,8,,,,,,,,,,,,,,,11,,,72,76
11160,note_on,,16,0,6,,,,,,,,,,,,,,,1,,,72,76
11264,note_on,,224,0,11,,,,,,,,,,,,,,,14,,,55,0
11264,note_on,,104,0,5,,,,,,,,,,,,,,,0,,,72,0
11264,note_on,,104,0,8,,,,,,,,,,,,,,,11,,,72,0
11264,note_on,,104,0,6,,,,,,,,,,,,,,,1,,,72,0
11264,note_on,,224,0,10,,,,,,,,,,,,,,,13,,,67,0
11264,note_on,,224,0,7,,,,,,,,,,,,,,,2,,,55,0
11264,note_on,,224,0,9,,,,,,,,,,,,,,,12,,,71,0
11279,note_on,,0,0,12,,,,,,,,,,,,,,,15,,,55,0
11279,note_on,,0,0,12,,,,,,,,,,,,,,,15,,,71,0
11279,note_on,,0,0,12,,,,,,,,,,,,,,,15,,,74,0
11279,note_on,,239,0,12,,,,,,,,,,,,,,,15,,,67,0
11280,note_on,,0,0,12,,,,,,,,,,,,,,,15,,,57,76
11280,note_on,,0,0,12,,,,,,,,,,,,,,,15,,,72,76
11280,note_on,,0,0,12,,,,,,,,,,,,,,,15,,,76,76
11280,note_on,,16,0,8,,,,,,,,,,,,,,,11,,,74,76
11280,note_on,,16,0,5,,,,,,,,,,,,,,,0,,,74,76
11280,note_on,,16,0,11,,,,,,,,,,,,,,,14,,,57,76
11280,note_on,,16,0,9,,,,,,,,,,,,,,,12,,,72,76
11280,note_on,,16,0,10,,,,,,,,,,,,,,,13,,,66,76
11280,note_on,,16,0,7,,,,,,,,,,,,,,,2,,,57,76
11280,note_on,,1,0,12,,,,,,,,,,,,,,,15,,,69,76
11280,note_on,,16,0,6,,,,,,,,,,,,,,,1,,,74,76
11384,note_on,,104,0,5,,,,,,,,,,,,,,,0,,,74,0
11384,note_on,,104,0,8,,,,,,,,,,,,,,,11,,,74,0
11384,note_on,,104,0,6,,,,,,,,,,,,,,,1,,,74,0
11400,note_on,,16,0,8,,,,,,,,,,,,,,,11,,,76,76
11400,note_on,,16,0,5,,,,,,,,,,,,,,,0,,,76,76
11400,note_on,,16,0,6,,,,,,,,,,,,,,,1,,,76,76
11504,note_on,,224,0,10,,,,,,,,,,,,,,,13,,,66,0
11504,note_on,,104,0,6,,,,,,,,,,,,,,,1,,,76,0
11504,note_on,,104,0,8,,,,,,,,,,,,,,,11,,,76,0
11504,note_on,,224,0,11,,,,,,,,,,,,,,,14,,,57,0
11504,note_on,,224,0,9,,,,,,,,,,,,,,,12,,,72,0
11504,note_on,,224,0,7,,,,,,,,,,,,,,,2,,,57,0
11504,note_on,,104,0,5,,,,,,,,,,,,,,,0,,,76,0
11519,note_on,,0,0,12,,,,,,,,,,,,,,,15,,,57,0
11519,note_on,,239,0,12,,,,,,,,,,,,,,,15,,,69,0
11519,note_on,,0,0,12,,,,,,,,,,,,,,,15,,,72,0
11519,note_on,,0,0,12,,,,,,,,,,,,,,,15,,,76,0
11520,note_on,,16,0,11,,,,,,,,,,,,,,,14,,,59,76
11520,note_on,,16,0,7,,,,,,,,,,,,,,,2,,,59,76
11520,note_on,,16,0,10,,,,,,,,,,,,,,,13,,,67,76
11520,note_on,,1,0,12,,,,,,,,,,,,,,,15,,,74,76
11520,note_on,,0,0,12,,,,,,,,,,,,,,,15,,,71,76
11520,note_on,,0,0,12,,,,,,,,,,,,,,,15,,,59,76
11520,note_on,,16,0,9,,,,,,,,,,,,,,,12,,,74,76
11520,note_on,,16,0,5,,,,,,,,,,,,,,,0,,,74,76
11520,note_on,,16,0,6,,,,,,,,,,,,,,,1,,,74,76
11520,note_on,,0,0,12,,,,,,,,,,,,,,,15,,,79,76
11520,note_on,,16,0,8,,,,,,,,,,,,,,,11,,,74,76
11744,note_on,,224,0,11,,,,,,,,,,,,,,,14,,,59,0
11744,note_on,,224,0,7,,,,,,,,,,,,,,,2,,,59,0
11744,note_on,,224,0,8,,,,,,,,,,,,,,,11,,,74,0
11744,note_on,,224,0,10,,,,,,,,,,,,,,,13,,,67,0
11744,note_on,,224,0,6,,,,,,,,,,,,,,,1,,,74,0
11744,note_on,,224,0,5,,,,,,,,,,,,,,,0,,,74,0
11744,note_on,,224,0,9,,,,,,,,,,,,,,,12,,,74,0
11759,note_on,,0,0,12,,,,,,,,,,,,,,,15,,,79,0
11759,note_on,,0,0,12,,,,,,,,,,,,,,,15,,,59,0
11759,note_on,,239,0,12,,,,,,,,,,,,,,,15,,,74,0
11759,note_on,,0,0,12,,,,,,,,,,,,,,,15,,,71,0
11760,note_on,,16,0,7,,,,,,,,,,,,,,,2,,,60,76
11760,note_on,,16,0,11,,,,,,,,,,,,,,,14,,,60,76
11760,note_on,,0,0,12,,,,,,,,,,,,,,,15,,,76,76
11760,note_on,,0,0,12,,,,,,,,,,,,,,,15,,,60,76
11760,note_on,,16,0,10,,,,,,,,,,,,,,,13,,,67,76
11760,note_on,,16,0,8,,,,,,,,,,,,,,,11,,,76,76
11760,note_on,,16,0,5,,,,,,,,,,,,,,,0,,,76,76
11760,note_on,,16,0,6,,,,,,,,,,,,,,,1,,,76,76
11760,note_on,,16,0,9,,,,,,,,,,,,,,,12,,,72,76
11760,note_on,,1,0,12,,,,,,,,,,,,,,,15,,,72,76
11760,note_on,,0,0,12,,,,,,,,,,,,,,,15,,,79,76
11864,note_on,,104,0,6,,,,,,,,,,,,,,,1,,,76,0
11864,note_on,,104,0,10,,,,,,,,,,,,,,,13,,,67,0
11864,note_on,,104,0,8,,,,,,,,,,,,,,,11,,,76,0
11864,note_on,,104,0,5,,,,,,,,,,,,,,,0,,,76,0
11880,note_on,,16,0,5,,,,,,,,,,,,,,,0,,,78,76
11880,note_on,,16,0,8,,,,,,,,,,,,,,,11,,,78,76
11880,note_on,,16,0,6,,,,,,,,,,,,,,,1,,,78,76
11880,note_on,,16,0,10,,,,,,,,,,,,,,,13,,,69,76
11984,note_on,,224,0,11,,,,,,,,,,,,,,,14,,,60,0
11984,note_on,,104,0,8,,,,,,,,,,,,,,,11,,,78,0
11984,note_on,,104,0,10,,,,,,,,,,,,,,,13,,,69,0
11984,note_on,,224,0,7,,,,,,,,,,,,,,,2,,,60,0
11984,note_on,,104,0,5,,,,,,,,,,,,,,,0,,,78,0
11984,note_on,,224,0,9,,,,,,,,,,,,,,,12,,,72,0
11984,note_on,,104,0,6,,,,,,,,,,,,,,,1,,,78,0
11999,note_on,,0,0,12,,,,,,,,,,,,,,,15,,,60,0
11999,note_on,,0,0,12,,,,,,,,,,,,,,,15,,,79,0
11999,note_on,,239,0,12,,,,,,,,,,,,,,,15,,,72,0
11999,note_on,,0,0,12,,,,,,,,,,,,,,,15,,,76,0
12000,note_on,,16,0,6,,,,,,,,,,,,,,,1,,,79,76
12000,note_on,,16,0,5,,,,,,,,,,,,,,,0,,,79,76
12000,note_on,,16,0,8,,,,,,,,,,,,,,,11,,,79,76
12000,note_on,,1,0,12,,,,,,,,,,,,,,,15,,,59,76
12000,note_on,,16,0,10,,,,,,,,,,,,,,,13,,,71,76
12000,note_on,,0,0,12,,,,,,,,,,,,,,,15,,,71,76
12000,note_on,,0,0,12,,,,,,,,,,,,,,,15,,,74,76
12000,note_on,,0,0,12,,,,,,,,,,,,,,,15,,,79,76
12000,note_on,,16,0,9,,,,,,,,,,,,,,,12,,,74,76
12000,note_on,,16,0,7,,,,,,,,,,,,,,,2,,,59,76
12000,note_on,,16,0,11,,,,,,,,,,,,,,,14,,,59,76
12224,note_on,,224,0,5,,,,,,,,,,,,,,,0,,,79,0
12224,note_on,,224,0,8,,,,,,,,,,,,,,,11,,,79,0
12224,note_on,,224,0,11,,,,,,,,,,,,,,,14,,,59,0
12224,note_on,,224,0,7,,,,,,,,,,,,,,,2,,,59,0
12224,note_on,,224,0,6,,,,,,,,,,,,,,,1,,,79,0
12239,note_on,,0,0,12,,,,,,,,,,,,,,,15,,,74,0
12239,note_on,,0,0,12,,,,,,,,,,,,,,,15,,,71,0
12239,note_on,,239,0,12,,,,,,,,,,,,,,,15,,,59,0
12239,note_on,,239,0,10,,,,,,,,,,,,,,,13,,,71,0
12239,note_on,,0,0,12,,,,,,,,,,,,,,,15,,,79,0
12239,note_on,,239,0,9,,,,,,,,,,,,,,,12,,,74,0
12240,note_on,,16,0,7,,,,,,,,,,,,,,,2,,,57,76
12240,note_on,,0,0,12,,,,,,,,,,,,,,,15,,,76,76
12240,note_on,,16,0,11,,,,,,,,,,,,,,,14,,,57,76
12240,note_on,,16,0,6,,,,,,,,,,,,,,,1,,,71,76
12240,note_on,,0,0,12,,,,,,,,,,,,,,,15,,,69,76
12240,note_on,,0,0,12,,,,,,,,,,,,,,,15,,,72,76
12240,note_on,,1,0,12,,,,,,,,,,,,,,,15,,,57,76
12240,note_on,,16,0,8,,,,,,,,,,,,,,,11,,,71,76
12240,note_on,,16,0,5,,,,,,,,,,,,,,,0,,,71,76
12344,note_on,,104,0,8,,,,,,,,,,,,,,,11,,,71,0
12344,note_on,,104,0,5,,,,,,,,,,,,,,,0,,,71,0
12344,note_on,,104,0,6,,,,,,,,,,,,,,,1,,,71,0
12360,note_on,,16,0,8,,,,,,,,,,,,,,,11,,,72,76
12360,note_on,,16,0,6,,,,,,,,,,,,,,,1,,,72,76
12360,note_on,,16,0,5,,,,,,,,,,,,,,,0,,,72,76
12464,note_on,,104,0,5,,,,,,,,,,,,,,,0,,,72,0
12464,note_on,,224,0,7,,,,,,,,,,,,,,,2,,,57,0
12464,note_on,,224,0,11,,,,,,,,,,,,,,,14,,,57,0
12464,note_on,,104,0,6,,,,,,,,,,,,,,,1,,,72,0
12464,note_on,,104,0,8,,,,,,,,,,,,,,,11,,,72,0
12479,note_on,,0,0,12,,,,,,,,,,,,,,,15,,,72,0
12479,note_on,,0,0,12,,,,,,,,,,,,,,,15,,,69,0
12479,note_on,,0,0,12,,,,,,,,,,,,,,,15,,,76,0
12479,note_on,,239,0,12,,,,,,,,,,,,,,,15,,,57,0
12480,note_on,,16,0,8,,,,,,,,,,,,,,,11,,,74,76
12480,note_on,,0,0,12,,,,,,,,,,,,,,,15,,,67,76
12480,note_on,,1,0,12,,,,,,,,,,,,,,,15,,,55,76
12480,note_on,,16,0,5,,,,,,,,,,,,,,,0,,,74,76
12480,note_on,,0,0,12,,,,,,,,,,,,,,,15,,,74,76
12480,note_on,,16,0,6,,,,,,,,,,,,,,,1,,,74,76
12480,note_on,,16,0,11,,,,,,,,,,,,,,,14,,,55,76
12480,note_on,,16,0,7,,,,,,,,,,,,,,,2,,,55,76
12480,note_on,,0,0,12,,,,,,,,,,,,,,,15,,,71,76
12704,note_on,,224,0,11,,,,,,,,,,,,,,,14,,,55,0
12704,note_on,,224,0,8,,,,,,,,,,,,,,,11,,,74,0
12704,note_on,,224,0,5,,,,,,,,,,,,,,,0,,,74,0
12704,note_on,,224,0,6,,,,,,,,,,,,,,,1,,,74,0
12704,note_on,,224,0,7,,,,,,,,,,,,,,,2,,,55,0
12719,note_on,,239,0,12,,,,,,,,,,,,,,,15,,,55,0
12719,note_on,,0,0,12,,,,,,,,,,,,,,,15,,,74,0
12719,note_on,,0,0,12,,,,,,,,,,,,,,,15,,,71,0
12719,note_on,,0,0,12,,,,,,,,,,,,,,,15,,,67,0
12720,note_on,,481,0,10,,,,,,,,,,,,,,,13,,,59,76
12720,note_on,,16,0,6,,,,,,,,,,,,,,,1,,,76,76
12720,note_on,,16,0,5,,,,,,,,,,,,,,,0,,,76,76
12720,note_on,,16,0,7,,,,,,,,,,,,,,,2,,,54,76
12720,note_on,,16,0,11,,,,,,,,,,,,,,,14,,,54,76
12720,note_on,,481,0,9,,,,,,,,,,,,,,,12,,,67,76
12720,note_on,,16,0,8,,,,,,,,,,,,,,,11,,,76,76
12720,note_on,,1,0,12,,,,,,,,,,,,,,,15,,,54,76
12720,note_on,,0,0,12,,,,,,,,,,,,,,,15,,,72,76
12720,note_on,,0,0,12,,,,,,,,,,,,,,,15,,,66,76
12720,note_on,,0,0,12,,,,,,,,,,,,,,,15,,,69,76
12824,note_on,,104,0,5,,,,,,,,,,,,,,,0,,,76,0
12824,note_on,,104,0,6,,,,,,,,,,,,,,,1,,,76,0
12824,note_on,,104,0,8,,,,,,,,,,,,,,,11,,,76,0
12824,note_on,,104,0,9,,,,,,,,,,,,,,,12,,,67,0
12840,note_on,,16,0,9,,,,,,,,,,,,,,,12,,,69,76
12840,note_on,,16,0,6,,,,,,,,,,,,,,,1,,,78,76
12840,note_on,,16,0,5,,,,,,,,,,,,,,,0,,,78,76
12840,note_on,,16,0,8,,,,,,,,,,,,,,,11,,,78,76
12944,note_on,,224,0,10,,,,,,,,,,,,,,,13,,,59,0
12944,note_on,,224,0,7,,,,,,,,,,,,,,,2,,,54,0
12944,note_on,,104,0,8,,,,,,,,,,,,,,,11,,,78,0
12944,note_on,,104,0,9,,,,,,,,,,,,,,,12,,,69,0
12944,note_on,,104,0,5,,,,,,,,,,,,,,,0,,,78,0
12944,note_on,,104,0,6,,,,,,,,,,,,,,,1,,,78,0
12944,note_on,,224,0,11,,,,,,,,,,,,,,,14,,,54,0
12959,note_on,,0,0,12,,,,,,,,,,,,,,,15,,,69,0
12959,note_on,,0,0,12,,,,,,,,,,,,,,,15,,,66,0
12959,note_on,,0,0,12,,,,,,,,,,,,,,,15,,,72,0
12959,note_on,,239,0,12,,,,,,,,,,,,,,,15,,,54,0
12960,note_on,,0,0,12,,,,,,,,,,,,,,,15,,,64,76
12960,note_on,,1,0,12,,,,,,,,,,,,,,,15,,,71,76
12960,note_on,,16,0,6,,,,,,,,,,,,,,,1,,,79,76
12960,note_on,,16,0,9,,,,,,,,,,,,,,,12,,,71,76
12960,note_on,,16,0,7,,,,,,,,,,,,,,,2,,,52,76
12960,note_on,,0,0,12,,,,,,,,,,,,,,,15,,,67,76
12960,note_on,,0,0,12,,,,,,,,,,,,,,,15,,,52,76
12960,note_on,,16,0,10,,,,,,,,,,,,,,,13,,,64,76
12960,note_on,,16,0,8,,,,,,,,,,,,,,,11,,,79,76
12960,note_on,,16,0,5,,,,,,,,,,,,,,,0,,,79,76
12960,note_on,,16,0,11,,,,,,,,,,,,,,,14,,,52,76
13184,note_on,,224,0,11,,,,,,,,,,,,,,,14,,,52,0
13184,note_on,,224,0,8,,,,,,,,,,,,,,,11,,,79,0
13184,note_on,,224,0,5,,,,,,,,,,,,,,,0,,,79,0
13184,note_on,,224,0,7,,,,,,,,,,,,,,,2,,,52,0
13184,note_on,,224,0,6,,,,,,,,,,,,,,,1,,,79,0
13199,note_on,,0,0,12,,,,,,,,,,,,,,,15,,,52,0
13199,note_on,,239,0,12,,,,,,,,,,,,,,,15,,,71,0
13199,note_on,,239,0,9,,,,,,,,,,,,,,,12,,,71,0
13199,note_on,,239,0,10,,,,,,,,,,,,,,,13,,,64,0
13199,note_on,,0,0,12,,,,,,,,,,,,,,,15,,,67,0
13199,note_on,,0,0,12,,,,,,,,,,,,,,,15,,,64,0
13200,note_on,,1,0,12,,,,,,,,,,,,,,,15,,,69,76
13200,note_on,,0,0,12,,,,,,,,,,,,,,,15,,,65,76
13200,note_on,,0,0,12,,,,,,,,,,,,,,,15,,,62,76
13200,note_on,,0,0,12,,,,,,,,,,,,,,,15,,,50,76
13200,note_on,,16,0,8,,,,,,,,,,,,,,,11,,,69,76
13200,note_on,,16,0,7,,,,,,,,,,,,,,,2,,,50,76
13200,note_on,,16,0,11,,,,,,,,,,,,,,,14,,,50,76
13200,note_on,,16,0,6,,,,,,,,,,,,,,,1,,,69,76
13200,note_on,,16,0,5,,,,,,,,,,,,,,,0,,,69,76
13304,note_on,,104,0,8,,,,,,,,,,,,,,,11,,,69,0
13304,note_on,,104,0,6,,,,,,,,,,,,,,,1,,,69,0
13304,note_on,,104,0,5,,,,,,,,,,,,,,,0,,,69,0
13320,note_on,,16,0,8,,,,,,,,,,,,,,,11,,,71,76
13320,note_on,,16,0,6,,,,,,,,,,,,,,,1,,,71,76
13320,note_on,,16,0,5,,,,,,,,,,,,,,,0,,,71,76
13424,note_on,,104,0,6,,,,,,,,,,,,,,,1,,,71,0
13424,note_on,,104,0,8,,,,,,,,,,,,,,,11,,,71,0
13424,note_on,,224,0,11,,,,,,,,,,,,,,,14,,,50,0
13424,note_on,,224,0,7,,,,,,,,,,,,,,,2,,,50,0
13424,note_on,,104,0,5,,,,,,,,,,,,,,,0,,,71,0
13439,note_on,,0,0,12,,,,,,,,,,,,,,,15,,,65,0
13439,note_on,,0,0,12,,,,,,,,,,,,,,,15,,,50,0
13439,note_on,,0,0,12,,,,,,,,,,,,,,,15,,,62,0
13439,note_on,,239,0,12,,,,,,,,,,,,,,,15,,,69,0
13440,note_on,,0,0,12,,,,,,,,,,,,,,,15,,,64,76
13440,note_on,,16,0,11,,,,,,,,,,,,,,,14,,,52,76
13440,note_on,,16,0,8,,,,,,,,,,,,,,,11,,,72,76
13440,note_on,,16,0,6,,,,,,,,,,,,,,,1,,,72,76
13440,note_on,,1,0,12,,,,,,,,,,,,,,,15,,,52,76
13440,note_on,,16,0,7,,,,,,,,,,,,,,,2,,,52,76
13440,note_on,,16,0,5,,,,,,,,,,,,,,,0,,,72,76
13440,note_on,,0,0,12,,,,,,,,,,,,,,,15,,,71,76
13440,note_on,,0,0,12,,,,,,,,,,,,,,,15,,,67,76
13664,note_on,,224,0,5,,,,,,,,,,,,,,,0,,,72,0
13664,note_on,,224,0,6,,,,,,,,,,,,,,,1,,,72,0
13664,note_on,,224,0,8,,,,,,,,,,,,,,,11,,,72,0
13664,note_on,,224,0,11,,,,,,,,,,,,,,,14,,,52,0
13664,note_on,,224,0,7,,,,,,,,,,,,,,,2,,,52,0
13679,note_on,,0,0,12,,,,,,,,,,,,,,,15,,,64,0
13679,note_on,,0,0,12,,,,,,,,,,,,,,,15,,,71,0
13679,note_on,,239,0,12,,,,,,,,,,,,,,,15,,,52,0
13679,note_on,,0,0,12,,,,,,,,,,,,,,,15,,,67,0
13680,note_on,,481,0,9,,,,,,,,,,,,,,,12,,,69,76
13680,note_on,,16,0,7,,,,,,,,,,,,,,,2,,,54,76
13680,note_on,,16,0,6,,,,,,,,,,,,,,,1,,,74,76
13680,note_on,,16,0,11,,,,,,,,,,,,,,,14,,,54,76
13680,note_on,,481,0,10,,,,,,,,,,,,,,,13,,,57,76
13680,note_on,,0,0,12,,,,,,,,,,,,,,,15,,,54,76
13680,note_on,,0,0,12,,,,,,,,,,,,,,,15,,,74,76
13680,note_on,,0,0,12,,,,,,,,,,,,,,,15,,,69,76
13680,note_on,,16,0,5,,,,,,,,,,,,,,,0,,,74,76
13680,note_on,,1,0,12,,,,,,,,,,,,,,,15,,,66,76
13680,note_on,,16,0,8,,,,,,,,,,,,,,,11,,,74,76
13904,note_on,,224,0,6,,,,,,,,,,,,,,,1,,,74,0
13904,note_on,,224,0,10,,,,,,,,,,,,,,,13,,,57,0
13904,note_on,,224,0,11,,,,,,,,,,,,,,,14,,,54,0
13904,note_on,,224,0,7,,,,,,,,,,,,,,,2,,,54,0
13904,note_on,,224,0,8,,,,,,,,,,,,,,,11,,,74,0
13904,note_on,,224,0,5,,,,,,,,,,,,,,,0,,,74,0
13904,note_on,,224,0,9,,,,,,,,,,,,,,,12,,,69,0
13919,note_on,,0,0,12,,,,,,,,,,,,,,,15,,,54,0
13919,note_on,,239,0,12,,,,,,,,,,,,,,,15,,,66,0
13919,note_on,,0,0,12,,,,,,,,,,,,,,,15,,,69,0
13919,note_on,,0,0,12,,,,,,,,,,,,,,,15,,,74,0
13920,note_on,,16,0,6,,,,,,,,,,,,,,,1,,,71,76
13920,note_on,,16,0,9,,,,,,,,,,,,,,,12,,,67,76
13920,note_on,,16,0,5,,,,,,,,,,,,,,,0,,,71,76
13920,note_on,,0,0,12,,,,,,,,,,,,,,,15,,,55,76
13920,note_on,,0,0,12,,,,,,,,,,,,,,,15,,,71,76
13920,note_on,,0,0,12,,,,,,,,,,,,,,,15,,,67,76
13920,note_on,,16,0,8,,,,,,,,,,,,,,,11,,,71,76
13920,note_on,,16,0,11,,,,,,,,,,,,,,,14,,,55,76
13920,note_on,,16,0,10,,,,,,,,,,,,,,,13,,,62,76
13920,note_on,,16,0,7,,,,,,,,,,,,,,,2,,,55,76
13920,note_on,,1,0,12,,,,,,,,,,,,,,,15,,,74,76
14144,note_on,,224,0,9,,,,,,,,,,,,,,,12,,,67,0
14144,note_on,,224,0,11,,,,,,,,,,,,,,,14,,,55,0
14144,note_on,,224,0,10,,,,,,,,,,,,,,,13,,,62,0
14144,note_on,,224,0,7,,,,,,,,,,,,,,,2,,,55,0
14159,note_on,,0,0,12,,,,,,,,,,,,,,,15,,,71,0
14159,note_on,,0,0,12,,,,,,,,,,,,,,,15,,,55,0
14159,note_on,,239,0,12,,,,,,,,,,,,,,,15,,,74,0
14159,note_on,,0,0,12,,,,,,,,,,,,,,,15,,,67,0
14160,note_on,,1,0,12,,,,,,,,,,,,,,,15,,,48,76
14160,note_on,,16,0,10,,,,,,,,,,,,,,,13,,,64,76
14160,note_on,,16,0,11,,,,,,,,,,,,,,,14,,,48,76
14160,note_on,,0,0,12,,,,,,,,,,,,,,,15,,,69,76
14160,note_on,,16,0,7,,,,,,,,,,,,,,,2,,,48,76
14160,note_on,,0,0,12,,,,,,,,,,,,,,,15,,,64,76
14160,note_on,,0,0,12,,,,,,,,,,,,,,,15,,,60,76
14160,note_on,,16,0,9,,,,,,,,,,,,,,,12,,,67,76
14160,note_on,,0,0,12,,,,,,,,,,,,,,,15,,,67,76
14264,note_on,,344,0,5,,,,,,,,,,,,,,,0,,,71,0
14264,note_on,,344,0,8,,,,,,,,,,,,,,,11,,,71,0
14264,note_on,,344,0,6,,,,,,,,,,,,,,,1,,,71,0
14280,note_on,,16,0,8,,,,,,,,,,,,,,,11,,,69,76
14280,note_on,,16,0,5,,,,,,,,,,,,,,,0,,,69,76
14280,note_on,,16,0,6,,,,,,,,,,,,,,,1,,,69,76
14384,note_on,,104,0,5,,,,,,,,,,,,,,,0,,,69,0
14384,note_on,,224,0,11,,,,,,,,,,,,,,,14,,,48,0
14384,note_on,,224,0,10,,,,,,,,,,,,,,,13,,,64,0
14384,note_on,,104,0,6,,,,,,,,,,,,,,,1,,,69,0
14384,note_on,,104,0,8,,,,,,,,,,,,,,,11,,,69,0
14384,note_on,,224,0,9,,,,,,,,,,,,,,,12,,,67,0
14384,note_on,,224,0,7,,,,,,,,,,,,,,,2,,,48,0
14399,note_on,,0,0,12,,,,,,,,,,,,,,,15,,,64,0
14399,note_on,,239,0,12,,,,,,,,,,,,,,,15,,,48,0
14399,note_on,,0,0,12,,,,,,,,,,,,,,,15,,,69,0
14399,note_on,,0,0,12,,,,,,,,,,,,,,,15,,,60,0
14399,note_on,,0,0,12,,,,,,,,,,,,,,,15,,,67,0
14400,note_on,,0,0,12,,,,,,,,,,,,,,,15,,,69,76
14400,note_on,,16,0,6,,,,,,,,,,,,,,,1,,,69,76
14400,note_on,,16,0,11,,,,,,,,,,,,,,,14,,,50,76
14400,note_on,,16,0,8,,,,,,,,,,,,,,,11,,,69,76
14400,note_on,,16,0,5,,,,,,,,,,,,,,,0,,,69,76
14400,note_on,,16,0,7,,,,,,,,,,,,,,,2,,,50,76
14400,note_on,,16,0,9,,,,,,,,,,,,,,,12,,,67,76
14400,note_on,,0,0,12,,,,,,,,,,,,,,,15,,,62,76
14400,note_on,,0,0,12,,,,,,,,,,,,,,,15,,,67,76
14400,note_on,,1,0,12,,,,,,,,,,,,,,,15,,,50,76
14400,note_on,,16,0,10,,,,,,,,,,,,,,,13,,,62,76
14624,note_on,,224,0,11,,,,,,,,,,,,,,,14,,,50,0
14624,note_on,,224,0,10,,,,,,,,,,,,,,,13,,,62,0
14624,note_on,,224,0,7,,,,,,,,,,,,,,,2,,,50,0
14624,note_on,,224,0,9,,,,,,,,,,,,,,,12,,,67,0
14639,note_on,,0,0,12,,,,,,,,,,,,,,,15,,,69,0
14639,note_on,,0,0,12,,,,,,,,,,,,,,,15,,,62,0
14639,note_on,,0,0,12,,,,,,,,,,,,,,,15,,,67,0
14639,note_on,,239,0,12,,,,,,,,,,,,,,,15,,,50,0
14640,note_on,,16,0,9,,,,,,,,,,,,,,,12,,,66,76
14640,note_on,,1,0,12,,,,,,,,,,,,,,,15,,,50,76
14640,note_on,,0,0,12,,,,,,,,,,,,,,,15,,,38,76
14640,note_on,,0,0,12,,,,,,,,,,,,,,,15,,,57,76
14640,note_on,,16,0,7,,,,,,,,,,,,,,,2,,,38,76
14640,note_on,,0,0,12,,,,,,,,,,,,,,,15,,,54,76
14640,note_on,,16,0,11,,,,,,,,,,,,,,,14,,,38,76
14640,note_on,,16,0,10,,,,,,,,,,,,,,,13,,,60,76
14744,note_on,,344,0,8,,,,,,,,,,,,,,,11,,,69,0
14744,note_on,,344,0,5,,,,,,,,,,,,,,,0,,,69,0
14744,note_on,,344,0,6,,,,,,,,,,,,,,,1,,,69,0
14760,note_on,,16,0,5,,,,,,,,,,,,,,,0,,,67,76
14760,note_on,,16,0,6,,,,,,,,,,,,,,,1,,,67,76
14760,note_on,,16,0,8,,,,,,,,,,,,,,,11,,,67,76
14864,note_on,,224,0,10,,,,,,,,,,,,,,,13,,,60,0
14864,note_on,,224,0,11,,,,,,,,,,,,,,,14,,,38,0
14864,note_on,,224,0,9,,,,,,,,,,,,,,,12,,,66,0
14864,note_on,,104,0,5,,,,,,,,,,,,,,,0,,,67,0
14864,note_on,,104,0,6,,,,,,,,,,,,,,,1,,,67,0
14864,note_on,,224,0,7,,,,,,,,,,,,,,,2,,,38,0
14864,note_on,,104,0,8,,,,,,,,,,,,,,,11,,,67,0
14879,note_on,,239,0,12,,,,,,,,,,,,,,,15,,,50,0
14879,note_on,,0,0,12,,,,,,,,,,,,,,,15,,,57,0
14879,note_on,,0,0,12,,,,,,,,,,,,,,,15,,,54,0
14879,note_on,,0,0,12,,,,,,,,,,,,,,,15,,,38,0
14880,note_on,,1,0,12,,,,,,,,,,,,,,,15,,,62,76
14880,note_on,,0,0,12,,,,,,,,,,,,,,,15,,,55,76
14880,note_on,,16,0,5,,,,,,,,,,,,,,,0,,,67,76
14880,note_on,,0,0,12,,,,,,,,,,,,,,,15,,,43,76
14880,note_on,,16,0,11,,,,,,,,,,,,,,,14,,,43,76
14880,note_on,,0,0,12,,,,,,,,,,,,,,,15,,,59,76
14880,note_on,,16,0,8,,,,,,,,,,,,,,,11,,,67,76
14880,note_on,,16,0,7,,,,,,,,,,,,,,,2,,,43,76
14880,note_on,,16,0,6,,,,,,,,,,,,,,,1,,,67,76
14880,note_on,,16,0,9,,,,,,,,,,,,,,,12,,,62,76
14880,note_on,,16,0,10,,,,,,,,,,,,,,,13,,,59,76
15104,note_on,,224,0,7,,,,,,,,,,,,,,,2,,,43,0
15104,note_on,,224,0,11,,,,,,,,,,,,,,,14,,,43,0
15119,note_on,,0,0,12,,,,,,,,,,,,,,,15,,,59,0
15119,note_on,,0,0,12,,,,,,,,,,,,,,,15,,,55,0
15119,note_on,,0,0,12,,,,,,,,,,,,,,,15,,,43,0
15119,note_on,,239,0,12,,,,,,,,,,,,,,,15,,,62,0
15120,note_on,,16,0,7,,,,,,,,,,,,,,,2,,,50,76
15120,note_on,,1,0,12,,,,,,,,,,,,,,,15,,,62,76
15120,note_on,,0,0,12,,,,,,,,,,,,,,,15,,,69,76
15120,note_on,,0,0,12,,,,,,,,,,,,,,,15,,,65,76
15120,note_on,,0,0,12,,,,,,,,,,,,,,,15,,,50,76
15120,note_on,,16,0,11,,,,,,,,,,,,,,,14,,,50,76
15344,note_on,,224,0,7,,,,,,,,,,,,,,,2,,,50,0
15344,note_on,,224,0,11,,,,,,,,,,,,,,,14,,,50,0
15359,note_on,,0,0,12,,,,,,,,,,,,,,,15,,,65,0
15359,note_on,,239,0,12,,,,,,,,,,,,,,,15,,,62,0
15359,note_on,,0,0,12,,,,,,,,,,,,,,,15,,,69,0
15359,note_on,,0,0,12,,,,,,,,,,,,,,,15,,,50,0
15360,note_on,,1,0,12,,,,,,,,,,,,,,,15,,,71,76
15360,note_on,,16,0,7,,,,,,,,,,,,,,,2,,,55,76
15360,note_on,,16,0,11,,,,,,,,,,,,,,,14,,,55,76
15360,note_on,,0,0,12,,,,,,,,,,,,,,,15,,,55,76
15360,note_on,,0,0,12,,,,,,,,,,,,,,,15,,,67,76
15360,note_on,,0,0,12,,,,,,,,,,,,,,,15,,,74,76
15584,note_on,,704,0,6,,,,,,,,,,,,,,,1,,,67,0
15584,note_on,,704,0,5,,,,,,,,,,,,,,,0,,,67,0
15584,note_on,,704,0,8,,,,,,,,,,,,,,,11,,,67,0
15599,note_on,,0,0,12,,,,,,,,,,,,,,,15,,,67,0
15599,note_on,,719,0,9,,,,,,,,,,,,,,,12,,,62,0
15599,note_on,,719,0,10,,,,,,,,,,,,,,,13,,,59,0
15599,note_on,,239,0,11,,,,,,,,,,,,,,,14,,,55,0
15599,note_on,,0,0,12,,,,,,,,,,,,,,,15,,,55,0
15599,note_on,,0,0,12,,,,,,,,,,,,,,,15,,,74,0
15599,note_on,,239,0,12,,,,,,,,,,,,,,,15,,,71,0
15599,note_on,,239,0,7,,,,,,,,,,,,,,,2,,,55,0
15600,note_on,,16,0,5,,,,,,,,,,,,,,,0,,,71,76
15600,note_on,,16,0,6,,,,,,,,,,,,,,,1,,,71,76
15600,note_on,,16,0,8,,,,,,,,,,,,,,,11,,,71,76
15704,note_on,,104,0,5,,,,,,,,,,,,,,,0,,,71,0
15704,note_on,,104,0,6,,,,,,,,,,,,,,,1,,,71,0
15704,note_on,,104,0,8,,,,,,,,,,,,,,,11,,,71,0
15720,note_on,,16,0,5,,,,,,,,,,,,,,,0,,,72,76
15720,note_on,,16,0,8,,,,,,,,,,,,,,,11,,,72,76
15720,note_on,,16,0,6,,,,,,,,,,,,,,,1,,,72,76
15824,note_on,,104,0,8,,,,,,,,,,,,,,,11,,,72,0
15824,note_on,,104,0,6,,,,,,,,,,,,,,,1,,,72,0
15824,note_on,,104,0,5,,,,,,,,,,,,,,,0,,,72,0
15840,note_on,,16,0,8,,,,,,,,,,,,,,,11,,,74,76
15840,note_on,,16,0,6,,,,,,,,,,,,,,,1,,,74,76
15840,note_on,,16,0,5,,,,,,,,,,,,,,,0,,,74,76
16064,note_on,,224,0,8,,,,,,,,,,,,,,,11,,,74,0
16064,note_on,,224,0,6,,,,,,,,,,,,,,,1,,,74,0
16064,note_on,,224,0,5,,,,,,,,,,,,,,,0,,,74,0
16080,note_on,,0,0,12,,,,,,,,,,,,,,,15,,,71,76
16080,note_on,,481,0,10,,,,,,,,,,,,,,,13,,,71,76
16080,note_on,,16,0,8,,,,,,,,,,,,,,,11,,,79,76
16080,note_on,,16,0,5,,,,,,,,,,,,,,,0,,,79,76
16080,note_on,,481,0,11,,,,,,,,,,,,,,,14,,,55,76
16080,note_on,,16,0,6,,,,,,,,,,,,,,,1,,,79,76
16080,note_on,,481,0,7,,,,,,,,,,,,,,,2,,,55,76
16080,note_on,,481,0,12,,,,,,,,,,,,,,,15,,,74,76
16080,note_on,,0,0,12,,,,,,,,,,,,,,,15,,,67,76
16080,note_on,,0,0,12,,,,,,,,,,,,,,,15,,,55,76
16080,note_on,,481,0,9,,,,,,,,,,,,,,,12,,,74,76
16184,note_on,,104,0,11,,,,,,,,,,,,,,,14,,,55,0
16184,note_on,,104,0,10,,,,,,,,,,,,,,,13,,,71,0
16184,note_on,,104,0,7,,,,,,,,,,,,,,,2,,,55,0
16199,note_on,,119,0,12,,,,,,,,,,,,,,,15,,,74,0
16199,note_on,,0,0,12,,,,,,,,,,,,,,,15,,,67,0
16199,note_on,,0,0,12,,,,,,,,,,,,,,,15,,,71,0
16199,note_on,,0,0,12,,,,,,,,,,,,,,,15,,,55,0
16200,note_on,,0,0,12,,,,,,,,,,,,,,,15,,,65,76
16200,note_on,,1,0,12,,,,,,,,,,,,,,,15,,,69,76
16200,note_on,,0,0,12,,,,,,,,,,,,,,,15,,,72,76
16200,note_on,,16,0,7,,,,,,,,,,,,,,,2,,,53,76
16200,note_on,,16,0,11,,,,,,,,,,,,,,,14,,,53,76
16200,note_on,,0,0,12,,,,,,,,,,,,,,,15,,,53,76
16200,note_on,,16,0,10,,,,,,,,,,,,,,,13,,,69,76
16304,note_on,,104,0,7,,,,,,,,,,,,,,,2,,,53,0
16304,note_on,,104,0,10,,,,,,,,,,,,,,,13,,,69,0
16304,note_on,,104,0,11,,,,,,,,,,,,,,,14,,,53,0
16304,note_on,,224,0,9,,,,,,,,,,,,,,,12,,,74,0
16319,note_on,,0,0,12,,,,,,,,,,,,,,,15,,,65,0
16319,note_on,,0,0,12,,,,,,,,,,,,,,,15,,,72,0
16319,note_on,,119,0,12,,,,,,,,,,,,,,,15,,,69,0
16319,note_on,,0,0,12,,,,,,,,,,,,,,,15,,,53,0
16320,note_on,,1,0,12,,,,,,,,,,,,,,,15,,,67,76
16320,note_on,,0,0,12,,,,,,,,,,,,,,,15,,,71,76
16320,note_on,,0,0,12,,,,,,,,,,,,,,,15,,,64,76
16320,note_on,,16,0,9,,,,,,,,,,,,,,,12,,,73,76
16320,note_on,,0,0,12,,,,,,,,,,,,,,,15,,,52,76
16320,note_on,,16,0,7,,,,,,,,,,,,,,,2,,,52,76
16320,note_on,,16,0,11,,,,,,,,,,,,,,,14,,,52,76
16320,note_on,,16,0,10,,,,,,,,,,,,,,,13,,,67,76
16544,note_on,,464,0,5,,,,,,,,,,,,,,,0,,,79,0
16544,note_on,,464,0,8,,,,,,,,,,,,,,,11,,,79,0
16544,note_on,,224,0,7,,,,,,,,,,,,,,,2,,,52,0
16544,note_on,,464,0,6,,,,,,,,,,,,,,,1,,,79,0
16544,note_on,,224,0,11,,,,,,,,,,,,,,,14,,,52,0
16544,note_on,,224,0,10,,,,,,,,,,,,,,,13,,,67,0
16544,note_on,,224,0,9,,,,,,,,,,,,,,,12,,,73,0
16559,note_on,,0,0,12,,,,,,,,,,,,,,,15,,,71,0
16559,note_on,,0,0,12,,,,,,,,,,,,,,,15,,,64,0
16559,note_on,,0,0,12,,,,,,,,,,,,,,,15,,,52,0
16559,note_on,,239,0,12,,,,,,,,,,,,,,,15,,,67,0
16560,note_on,,16,0,5,,,,,,,,,,,,,,,0,,,82,76
16560,note_on,,16,0,10,,,,,,,,,,,,,,,13,,,65,76
16560,note_on,,16,0,11,,,,,,,,,,,,,,,14,,,55,76
16560,note_on,,16,0,6,,,,,,,,,,,,,,,1,,,82,76
16560,note_on,,0,0,12,,,,,,,,,,,,,,,15,,,67,76
16560,note_on,,0,0,12,,,,,,,,,,,,,,,15,,,55,76
16560,note_on,,16,0,9,,,,,,,,,,,,,,,12,,,74,76
16560,note_on,,1,0,12,,,,,,,,,,,,,,,15,,,70,76
16560,note_on,,16,0,8,,,,,,,,,,,,,,,11,,,82,76
16560,note_on,,16,0,7,,,,,,,,,,,,,,,2,,,55,76
16560,note_on,,0,0,12,,,,,,,,,,,,,,,15,,,74,76
16784,note_on,,224,0,8,,,,,,,,,,,,,,,11,,,82,0
16784,note_on,,224,0,7,,,,,,,,,,,,,,,2,,,55,0
16784,note_on,,224,0,11,,,,,,,,,,,,,,,14,,,55,0
16784,note_on,,224,0,9,,,,,,,,,,,,,,,12,,,74,0
16784,note_on,,224,0,5,,,,,,,,,,,,,,,0,,,82,0
16784,note_on,,224,0,6,,,,,,,,,,,,,,,1,,,82,0
16784,note_on,,224,0,10,,,,,,,,,,,,,,,13,,,65,0
16799,note_on,,0,0,12,,,,,,,,,,,,,,,15,,,55,0
16799,note_on,,0,0,12,,,,,,,,,,,,,,,15,,,74,0
16799,note_on,,239,0,12,,,,,,,,,,,,,,,15,,,70,0
16799,note_on,,0,0,12,,,,,,,,,,,,,,,15,,,67,0
16800,note_on,,16,0,5,,,,,,,,,,,,,,,0,,,73,76
16800,note_on,,16,0,10,,,,,,,,,,,,,,,13,,,64,76
16800,note_on,,16,0,8,,,,,,,,,,,,,,,11,,,73,76
16800,note_on,,0,0,12,,,,,,,,,,,,,,,15,,,76,76
16800,note_on,,0,0,12,,,,,,,,,,,,,,,15,,,69,76
16800,note_on,,0,0,12,,,,,,,,,,,,,,,15,,,73,76
16800,note_on,,1,0,12,,,,,,,,,,,,,,,15,,,57,76
16800,note_on,,16,0,11,,,,,,,,,,,,,,,14,,,57,76
16800,note_on,,16,0,7,,,,,,,,,,,,,,,2,,,57,76
16800,note_on,,16,0,9,,,,,,,,,,,,,,,12,,,69,76
16800,note_on,,16,0,6,,,,,,,,,,,,,,,1,,,73,76
16904,note_on,,104,0,9,,,,,,,,,,,,,,,12,,,69,0
16904,note_on,,104,0,6,,,,,,,,,,,,,,,1,,,73,0
16904,note_on,,104,0,8,,,,,,,,,,,,,,,11,,,73,0
16904,note_on,,104,0,10,,,,,,,,,,,,,,,13,,,64,0
16904,note_on,,104,0,5,,,,,,,,,,,,,,,0,,,73,0
16920,note_on,,16,0,5,,,,,,,,,,,,,,,0,,,71,76
16920,note_on,,16,0,9,,,,,,,,,,,,,,,12,,,67,76
16920,note_on,,16,0,6,,,,,,,,,,,,,,,1,,,71,76
16920,note_on,,16,0,8,,,,,,,,,,,,,,,11,,,71,76
16920,note_on,,16,0,10,,,,,,,,,,,,,,,13,,,62,76
17024,note_on,,104,0,10,,,,,,,,,,,,,,,13,,,62,0
17024,note_on,,104,0,6,,,,,,,,,,,,,,,1,,,71,0
17024,note_on,,104,0,5,,,,,,,,,,,,,,,0,,,71,0
17024,note_on,,224,0,11,,,,,,,,,,,,,,,14,,,57,0
17024,note_on,,104,0,8,,,,,,,,,,,,,,,11,,,71,0
17024,note_on,,224,0,7,,,,,,,,,,,,,,,2,,,57,0
17024,note_on,,104,0,9,,,,,,,,,,,,,,,12,,,67,0
17039,note_on,,0,0,12,,,,,,,,,,,,,,,15,,,69,0
17039,note_on,,0,0,12,,,,,,,,,,,,,,,15,,,73,0
17039,note_on,,239,0,12,,,,,,,,,,,,,,,15,,,57,0
17039,note_on,,0,0,12,,,,,,,,,,,,,,,15,,,76,0
17040,note_on,,16,0,6,,,,,,,,,,,,,,,1,,,73,76
17040,note_on,,16,0,11,,,,,,,,,,,,,,,14,,,45,76
17040,note_on,,16,0,5,,,,,,,,,,,,,,,0,,,73,76
17040,note_on,,1,0,12,,,,,,,,,,,,,,,15,,,57,76
17040,note_on,,16,0,10,,,,,,,,,,,,,,,13,,,64,76
17040,note_on,,0,0,12,,,,,,,,,,,,,,,15,,,64,76
17040,note_on,,0,0,12,,,,,,,,,,,,,,,15,,,61,76
17040,note_on,,16,0,8,,,,,,,,,,,,,,,11,,,73,76
17040,note_on,,16,0,7,,,,,,,,,,,,,,,2,,,45,76
17040,note_on,,0,0,12,,,,,,,,,,,,,,,15,,,45,76
17040,note_on,,16,0,9,,,,,,,,,,,,,,,12,,,69,76
17144,note_on,,104,0,10,,,,,,,,,,,,,,,13,,,64,0
17144,note_on,,104,0,6,,,,,,,,,,,,,,,1,,,73,0
17144,note_on,,104,0,5,,,,,,,,,,,,,,,0,,,73,0
17144,note_on,,104,0,8,,,,,,,,,,,,,,,11,,,73,0
17144,note_on,,104,0,9,,,,,,,,,,,,,,,12,,,69,0
17160,note_on,,16,0,8,,,,,,,,,,,,,,,11,,,74,76
17160,note_on,,16,0,6,,,,,,,,,,,,,,,1,,,74,76
17160,note_on,,16,0,10,,,,,,,,,,,,,,,13,,,65,76
17160,note_on,,16,0,9,,,,,,,,,,,,,,,12,,,71,76
17160,note_on,,16,0,5,,,,,,,,,,,,,,,0,,,74,76
17264,note_on,,104,0,10,,,,,,,,,,,,,,,13,,,65,0
17264,note_on,,224,0,7,,,,,,,,,,,,,,,2,,,45,0
17264,note_on,,224,0,11,,,,,,,,,,,,,,,14,,,45,0
17264,note_on,,104,0,9,,,,,,,,,,,,,,,12,,,71,0
17264,note_on,,104,0,6,,,,,,,,,,,,,,,1,,,74,0
17264,note_on,,104,0,8,,,,,,,,,,,,,,,11,,,74,0
17264,note_on,,104,0,5,,,,,,,,,,,,,,,0,,,74,0
17279,note_on,,0,0,12,,,,,,,,,,,,,,,15,,,45,0
17279,note_on,,239,0,12,,,,,,,,,,,,,,,15,,,57,0
17279,note_on,,0,0,12,,,,,,,,,,,,,,,15,,,61,0
17279,note_on,,0,0,12,,,,,,,,,,,,,,,15,,,64,0
17280,note_on,,16,0,11,,,,,,,,,,,,,,,14,,,57,76
17280,note_on,,1,0,12,,,,,,,,,,,,,,,15,,,69,76
17280,note_on,,0,0,12,,,,,,,,,,,,,,,15,,,73,76
17280,note_on,,0,0,12,,,,,,,,,,,,,,,15,,,76,76
17280,note_on,,16,0,10,,,,,,,,,,,,,,,13,,,64,76
17280,note_on,,16,0,6,,,,,,,,,,,,,,,1,,,76,76
17280,note_on,,16,0,8,,,,,,,,,,,,,,,11,,,76,76
17280,note_on,,16,0,5,,,,,,,,,,,,,,,0,,,76,76
17280,note_on,,0,0,12,,,,,,,,,,,,,,,15,,,57,76
17280,note_on,,16,0,7,,,,,,,,,,,,,,,2,,,57,76
17280,note_on,,16,0,9,,,,,,,,,,,,,,,12,,,73,76
17504,note_on,,224,0,5,,,,,,,,,,,,,,,0,,,76,0
17504,note_on,,224,0,11,,,,,,,,,,,,,,,14,,,57,0
17504,note_on,,224,0,7,,,,,,,,,,,,,,,2,,,57,0
17504,note_on,,224,0,9,,,,,,,,,,,,,,,12,,,73,0
17504,note_on,,224,0,10,,,,,,,,,,,,,,,13,,,64,0
17504,note_on,,224,0,8,,,,,,,,,,,,,,,11,,,76,0
17504,note_on,,224,0,6,,,,,,,,,,,,,,,1,,,76,0
17519,note_on,,0,0,12,,,,,,,,,,,,,,,15,,,73,0
17519,note_on,,0,0,12,,,,,,,,,,,,,,,15,,,76,0
17519,note_on,,0,0,12,,,,,,,,,,,,,,,15,,,57,0
17519,note_on,,239,0,12,,,,,,,,,,,,,,,15,,,69,0
17520,note_on,,16,0,9,,,,,,,,,,,,,,,12,,,74,76
17520,note_on,,0,0,12,,,,,,,,,,,,,,,15,,,67,76
17520,note_on,,1,0,12,,,,,,,,,,,,,,,15,,,74,76
17520,note_on,,0,0,12,,,,,,,,,,,,,,,15,,,55,76
17520,note_on,,16,0,6,,,,,,,,,,,,,,,1,,,77,76
17520,note_on,,0,0,12,,,,,,,,,,,,,,,15,,,71,76
17520,note_on,,16,0,7,,,,,,,,,,,,,,,2,,,55,76
17520,note_on,,16,0,11,,,,,,,,,,,,,,,14,,,55,76
17520,note_on,,16,0,5,,,,,,,,,,,,,,,0,,,77,76
17520,note_on,,16,0,10,,,,,,,,,,,,,,,13,,,57,76
17520,note_on,,16,0,8,,,,,,,,,,,,,,,11,,,77,76
17624,note_on,,104,0,5,,,,,,,,,,,,,,,0,,,77,0
17624,note_on,,104,0,9,,,,,,,,,,,,,,,12,,,74,0
17624,note_on,,104,0,6,,,,,,,,,,,,,,,1,,,77,0
17624,note_on,,104,0,8,,,,,,,,,,,,,,,11,,,77,0
17640,note_on,,16,0,5,,,,,,,,,,,,,,,0,,,79,76
17640,note_on,,16,0,9,,,,,,,,,,,,,,,12,,,76,76
17640,note_on,,16,0,8,,,,,,,,,,,,,,,11,,,79,76
17640,note_on,,16,0,6,,,,,,,,,,,,,,,1,,,79,76
17744,note_on,,104,0,8,,,,,,,,,,,,,,,11,,,79,0
17744,note_on,,224,0,7,,,,,,,,,,,,,,,2,,,55,0
17744,note_on,,224,0,10,,,,,,,,,,,,,,,13,,,57,0
17744,note_on,,104,0,6,,,,,,,,,,,,,,,1,,,79,0
17744,note_on,,224,0,11,,,,,,,,,,,,,,,14,,,55,0
17744,note_on,,104,0,9,,,,,,,,,,,,,,,12,,,76,0
17744,note_on,,104,0,5,,,,,,,,,,,,,,,0,,,79,0
17759,note_on,,0,0,12,,,,,,,,,,,,,,,15,,,67,0
17759,note_on,,0,0,12,,,,,,,,,,,,,,,15,,,71,0
17759,note_on,,0,0,12,,,,,,,,,,,,,,,15,,,55,0
17759,note_on,,239,0,12,,,,,,,,,,,,,,,15,,,74,0
17760,note_on,,16,0,9,,,,,,,,,,,,,,,12,,,77,76
17760,note_on,,16,0,5,,,,,,,,,,,,,,,0,,,81,76
17760,note_on,,0,0,12,,,,,,,,,,,,,,,15,,,74,76
17760,note_on,,0,0,12,,,,,,,,,,,,,,,15,,,69,76
17760,note_on,,16,0,8,,,,,,,,,,,,,,,11,,,81,76
17760,note_on,,16,0,6,,,,,,,,,,,,,,,1,,,81,76
17760,note_on,,1,0,12,,,,,,,,,,,,,,,15,,,53,76
17760,note_on,,16,0,10,,,,,,,,,,,,,,,13,,,62,76
17760,note_on,,16,0,7,,,,,,,,,,,,,,,2,,,53,76
17760,note_on,,16,0,11,,,,,,,,,,,,,,,14,,,53,76
17760,note_on,,0,0,12,,,,,,,,,,,,,,,15,,,65,76
17864,note_on,,104,0,5,,,,,,,,,,,,,,,0,,,81,0
17864,note_on,,104,0,6,,,,,,,,,,,,,,,1,,,81,0
17864,note_on,,104,0,8,,,,,,,,,,,,,,,11,,,81,0
17880,note_on,,16,0,6,,,,,,,,,,,,,,,1,,,79,76
17880,note_on,,16,0,5,,,,,,,,,,,,,,,0,,,79,76
17880,note_on,,16,0,8,,,,,,,,,,,,,,,11,,,79,76
17984,note_on,,104,0,6,,,,,,,,,,,,,,,1,,,79,0
17984,note_on,,224,0,11,,,,,,,,,,,,,,,14,,,53,0
17984,note_on,,224,0,10,,,,,,,,,,,,,,,13,,,62,0
17984,note_on,,224,0,9,,,,,,,,,,,,,,,12,,,77,0
17984,note_on,,104,0,8,,,,,,,,,,,,,,,11,,,79,0
17984,note_on,,104,0,5,,,,,,,,,,,,,,,0,,,79,0
17984,note_on,,224,0,7,,,,,,,,,,,,,,,2,,,53,0
17999,note_on,,0,0,12,,,,,,,,,,,,,,,15,,,69,0
17999,note_on,,239,0,12,,,,,,,,,,,,,,,15,,,53,0
17999,note_on,,0,0,12,,,,,,,,,,,,,,,15,,,74,0
17999,note_on,,0,0,12,,,,,,,,,,,,,,,15,,,65,0
18000,note_on,,1,0,12,,,,,,,,,,,,,,,15,,,76,76
18000,note_on,,16,0,11,,,,,,,,,,,,,,,14,,,55,76
18000,note_on,,16,0,6,,,,,,,,,,,,,,,1,,,81,76
18000,note_on,,16,0,8,,,,,,,,,,,,,,,11,,,81,76
18000,note_on,,16,0,7,,,,,,,,,,,,,,,2,,,55,76
18000,note_on,,0,0,12,,,,,,,,,,,,,,,15,,,71,76
18000,note_on,,0,0,12,,,,,,,,,,,,,,,15,,,67,76
18000,note_on,,0,0,12,,,,,,,,,,,,,,,15,,,55,76
18000,note_on,,16,0,5,,,,,,,,,,,,,,,0,,,81,76
18000,note_on,,16,0,10,,,,,,,,,,,,,,,13,,,67,76
18000,note_on,,16,0,9,,,,,,,,,,,,,,,12,,,76,76
18104,note_on,,104,0,8,,,,,,,,,,,,,,,11,,,81,0
18104,note_on,,104,0,9,,,,,,,,,,,,,,,12,,,76,0
18104,note_on,,104,0,6,,,,,,,,,,,,,,,1,,,81,0
18104,note_on,,104,0,5,,,,,,,,,,,,,,,0,,,81,0
18120,note_on,,16,0,8,,,,,,,,,,,,,,,11,,,82,76
18120,note_on,,16,0,6,,,,,,,,,,,,,,,1,,,82,76
18120,note_on,,16,0,5,,,,,,,,,,,,,,,0,,,82,76
18120,note_on,,16,0,9,,,,,,,,,,,,,,,12,,,74,76
18224,note_on,,104,0,8,,,,,,,,,,,,,,,11,,,82,0
18224,note_on,,104,0,5,,,,,,,,,,,,,,,0,,,82,0
18224,note_on,,104,0,9,,,,,,,,,,,,,,,12,,,74,0
18224,note_on,,224,0,7,,,,,,,,,,,,,,,2,,,55,0
18224,note_on,,224,0,10,,,,,,,,,,,,,,,13,,,67,0
18224,note_on,,104,0,6,,,,,,,,,,,,,,,1,,,82,0
18224,note_on,,224,0,11,,,,,,,,,,,,,,,14,,,55,0
18239,note_on,,239,0,12,,,,,,,,,,,,,,,15,,,76,0
18239,note_on,,0,0,12,,,,,,,,,,,,,,,15,,,67,0
18239,note_on,,0,0,12,,,,,,,,,,,,,,,15,,,71,0
18239,note_on,,0,0,12,,,,,,,,,,,,,,,15,,,55,0
18240,note_on,,16,0,8,,,,,,,,,,,,,,,11,,,81,76
18240,note_on,,0,0,12,,,,,,,,,,,,,,,15,,,76,76
18240,note_on,,16,0,7,,,,,,,,,,,,,,,2,,,57,76
18240,note_on,,16,0,6,,,,,,,,,,,,,,,1,,,81,76
18240,note_on,,16,0,5,,,,,,,,,,,,,,,0,,,81,76
18240,note_on,,1,0,12,,,,,,,,,,,,,,,15,,,57,76
18240,note_on,,0,0,12,,,,,,,,,,,,,,,15,,,69,76
18240,note_on,,16,0,11,,,,,,,,,,,,,,,14,,,57,76
18240,note_on,,16,0,10,,,,,,,,,,,,,,,13,,,64,76
18240,note_on,,0,0,12,,,,,,,,,,,,,,,15,,,73,76
18240,note_on,,16,0,9,,,,,,,,,,,,,,,12,,,73,76
18344,note_on,,104,0,6,,,,,,,,,,,,,,,1,,,81,0
18344,note_on,,104,0,5,,,,,,,,,,,,,,,0,,,81,0
18344,note_on,,104,0,8,,,,,,,,,,,,,,,11,,,81,0
18360,note_on,,16,0,8,,,,,,,,,,,,,,,11,,,79,76
18360,note_on,,16,0,6,,,,,,,,,,,,,,,1,,,79,76
18360,note_on,,16,0,5,,,,,,,,,,,,,,,0,,,79,76
18464,note_on,,104,0,6,,,,,,,,,,,,,,,1,,,79,0
18464,note_on,,224,0,7,,,,,,,,,,,,,,,2,,,57,0
18464,note_on,,224,0,10,,,,,,,,,,,,,,,13,,,64,0
18464,note_on,,224,0,11,,,,,,,,,,,,,,,14,,,57,0
18464,note_on,,104,0,5,,,,,,,,,,,,,,,0,,,79,0
18464,note_on,,224,0,9,,,,,,,,,,,,,,,12,,,73,0
18464,note_on,,104,0,8,,,,,,,,,,,,,,,11,,,79,0
18479,note_on,,0,0,12,,,,,,,,,,,,,,,15,,,69,0
18479,note_on,,0,0,12,,,,,,,,,,,,,,,15,,,73,0
18479,note_on,,0,0,12,,,,,,,,,,,,,,,15,,,76,0
18479,note_on,,239,0,12,,,,,,,,,,,,,,,15,,,57,0
18480,note_on,,0,0,12,,,,,,,,,,,,,,,15,,,45,76
18480,note_on,,16,0,8,,,,,,,,,,,,,,,11,,,77,76
18480,note_on,,1,0,12,,,,,,,,,,,,,,,15,,,57,76
18480,note_on,,16,0,5,,,,,,,,,,,,,,,0,,,77,76
18480,note_on,,16,0,11,,,,,,,,,,,,,,,14,,,45,76
18480,note_on,,16,0,10,,,,,,,,,,,,,,,13,,,69,76
18480,note_on,,0,0,12,,,,,,,,,,,,,,,15,,,64,76
18480,note_on,,0,0,12,,,,,,,,,,,,,,,15,,,61,76
18480,note_on,,16,0,6,,,,,,,,,,,,,,,1,,,77,76
18480,note_on,,16,0,7,,,,,,,,,,,,,,,2,,,45,76
18480,note_on,,16,0,9,,,,,,,,,,,,,,,12,,,73,76
18584,note_on,,104,0,8,,,,,,,,,,,,,,,11,,,77,0
18584,note_on,,104,0,6,,,,,,,,,,,,,,,1,,,77,0
18584,note_on,,104,0,5,,,,,,,,,,,,,,,0,,,77,0
18600,note_on,,16,0,8,,,,,,,,,,,,,,,11,,,76,76
18600,note_on,,16,0,5,,,,,,,,,,,,,,,0,,,76,76
18600,note_on,,16,0,6,,,,,,,,,,,,,,,1,,,76,76
18704,note_on,,104,0,6,,,,,,,,,,,,,,,1,,,76,0
18704,note_on,,104,0,5,,,,,,,,,,,,,,,0,,,76,0
18704,note_on,,224,0,9,,,,,,,,,,,,,,,12,,,73,0
18704,note_on,,224,0,10,,,,,,,,,,,,,,,13,,,69,0
18704,note_on,,224,0,7,,,,,,,,,,,,,,,2,,,45,0
18704,note_on,,224,0,11,,,,,,,,,,,,,,,14,,,45,0
18704,note_on,,104,0,8,,,,,,,,,,,,,,,11,,,76,0
18719,note_on,,0,0,12,,,,,,,,,,,,,,,15,,,61,0
18719,note_on,,0,0,12,,,,,,,,,,,,,,,15,,,64,0
18719,note_on,,239,0,12,,,,,,,,,,,,,,,15,,,57,0
18719,note_on,,0,0,12,,,,,,,,,,,,,,,15,,,45,0
18720,note_on,,1,0,12,,,,,,,,,,,,,,,15,,,50,76
18720,note_on,,16,0,5,,,,,,,,,,,,,,,0,,,77,76
18720,note_on,,16,0,10,,,,,,,,,,,,,,,13,,,69,76
18720,note_on,,16,0,9,,,,,,,,,,,,,,,12,,,74,76
18720,note_on,,16,0,6,,,,,,,,,,,,,,,1,,,77,76
18720,note_on,,16,0,7,,,,,,,,,,,,,,,2,,,50,76
18720,note_on,,16,0,8,,,,,,,,,,,,,,,11,,,77,76
18720,note_on,,0,0,12,,,,,,,,,,,,,,,15,,,65,76
18720,note_on,,16,0,11,,,,,,,,,,,,,,,14,,,50,76
18720,note_on,,0,0,12,,,,,,,,,,,,,,,15,,,62,76
18720,note_on,,0,0,12,,,,,,,,,,,,,,,15,,,69,76
18824,note_on,,104,0,5,,,,,,,,,,,,,,,0,,,77,0
18824,note_on,,104,0,6,,,,,,,,,,,,,,,1,,,77,0
18824,note_on,,104,0,10,,,,,,,,,,,,,,,13,,,69,0
18824,note_on,,104,0,8,,,,,,,,,,,,,,,11,,,77,0
18840,note_on,,16,0,10,,,,,,,,,,,,,,,13,,,70,76
18840,note_on,,16,0,8,,,,,,,,,,,,,,,11,,,79,76
18840,note_on,,16,0,5,,,,,,,,,,,,,,,0,,,79,76
18840,note_on,,16,0,6,,,,,,,,,,,,,,,1,,,79,76
18944,note_on,,104,0,10,,,,,,,,,,,,,,,13,,,70,0
18944,note_on,,104,0,6,,,,,,,,,,,,,,,1,,,79,0
18944,note_on,,224,0,9,,,,,,,,,,,,,,,12,,,74,0
18944,note_on,,224,0,7,,,,,,,,,,,,,,,2,,,50,0
18944,note_on,,104,0,8,,,,,,,,,,,,,,,11,,,79,0
18944,note_on,,104,0,5,,,,,,,,,,,,,,,0,,,79,0
18944,note_on,,224,0,11,,,,,,,,,,,,,,,14,,,50,0
18959,note_on,,0,0,12,,,,,,,,,,,,,,,15,,,69,0
18959,note_on,,0,0,12,,,,,,,,,,,,,,,15,,,62,0
18959,note_on,,0,0,12,,,,,,,,,,,,,,,15,,,65,0
18959,note_on,,239,0,12,,,,,,,,,,,,,,,15,,,50,0
18960,note_on,,16,0,5,,,,,,,,,,,,,,,0,,,77,76
18960,note_on,,0,0,12,,,,,,,,,,,,,,,15,,,64,76
18960,note_on,,16,0,9,,,,,,,,,,,,,,,12,,,69,76
18960,note_on,,0,0,12,,,,,,,,,,,,,,,15,,,57,76
18960,note_on,,0,0,12,,,,,,,,,,,,,,,15,,,60,76
18960,note_on,,16,0,6,,,,,,,,,,,,,,,1,,,77,76
18960,note_on,,16,0,10,,,,,,,,,,,,,,,13,,,69,76
18960,note_on,,1,0,12,,,,,,,,,,,,,,,15,,,45,76
18960,note_on,,16,0,7,,,,,,,,,,,,,,,2,,,45,76
18960,note_on,,16,0,11,,,,,,,,,,,,,,,14,,,45,76
18960,note_on,,16,0,8,,,,,,,,,,,,,,,11,,,77,76
19064,note_on,,104,0,5,,,,,,,,,,,,,,,0,,,77,0
19064,note_on,,104,0,8,,,,,,,,,,,,,,,11,,,77,0
19064,note_on,,104,0,10,,,,,,,,,,,,,,,13,,,69,0
19064,note_on,,104,0,6,,,,,,,,,,,,,,,1,,,77,0
19080,note_on,,16,0,5,,,,,,,,,,,,,,,0,,,76,76
19080,note_on,,16,0,6,,,,,,,,,,,,,,,1,,,76,76
19080,note_on,,16,0,8,,,,,,,,,,,,,,,11,,,76,76
19080,note_on,,16,0,10,,,,,,,,,,,,,,,13,,,67,76
19184,note_on,,104,0,6,,,,,,,,,,,,,,,1,,,76,0
19184,note_on,,104,0,5,,,,,,,,,,,,,,,0,,,76,0
19184,note_on,,224,0,9,,,,,,,,,,,,,,,12,,,69,0
19184,note_on,,224,0,11,,,,,,,,,,,,,,,14,,,45,0
19184,note_on,,224,0,7,,,,,,,,,,,,,,,2,,,45,0
19184,note_on,,104,0,8,,,,,,,,,,,,,,,11,,,76,0
19184,note_on,,104,0,10,,,,,,,,,,,,,,,13,,,67,0
19199,note_on,,0,0,12,,,,,,,,,,,,,,,15,,,57,0
19199,note_on,,0,0,12,,,,,,,,,,,,,,,15,,,60,0
19199,note_on,,239,0,12,,,,,,,,,,,,,,,15,,,45,0
19199,note_on,,0,0,12,,,,,,,,,,,,,,,15,,,64,0
19200,note_on,,0,0,12,,,,,,,,,,,,,,,15,,,53,76
19200,note_on,,16,0,11,,,,,,,,,,,,,,,14,,,38,76
19200,note_on,,16,0,9,,,,,,,,,,,,,,,12,,,69,76
19200,note_on,,16,0,10,,,,,,,,,,,,,,,13,,,65,76
19200,note_on,,16,0,8,,,,,,,,,,,,,,,11,,,74,76
19200,note_on,,16,0,6,,,,,,,,,,,,,,,1,,,74,76
19200,note_on,,16,0,5,,,,,,,,,,,,,,,0,,,74,76
19200,note_on,,1,0,12,,,,,,,,,,,,,,,15,,,57,76
19200,note_on,,16,0,7,,,,,,,,,,,,,,,2,,,38,76
19200,note_on,,0,0,12,,,,,,,,,,,,,,,15,,,50,76
19200,note_on,,0,0,12,,,,,,,,,,,,,,,15,,,38,76
19304,note_on,,104,0,10,,,,,,,,,,,,,,,13,,,65,0
19320,note_on,,16,0,10,,,,,,,,,,,,,,,13,,,67,76
19424,note_on,,224,0,9,,,,,,,,,,,,,,,12,,,69,0
19424,note_on,,224,0,11,,,,,,,,,,,,,,,14,,,38,0
19424,note_on,,224,0,6,,,,,,,,,,,,,,,1,,,74,0
19424,note_on,,224,0,5,,,,,,,,,,,,,,,0,,,74,0
19424,note_on,,224,0,7,,,,,,,,,,,,,,,2,,,38,0
19424,note_on,,104,0,10,,,,,,,,,,,,,,,13,,,67,0
19424,note_on,,224,0,8,,,,,,,,,,,,,,,11,,,74,0
19439,note_on,,239,0,12,,,,,,,,,,,,,,,15,,,57,0
19439,note_on,,0,0,12,,,,,,,,,,,,,,,15,,,53,0
19439,note_on,,0,0,12,,,,,,,,,,,,,,,15,,,50,0
19439,note_on,,0,0,12,,,,,,,,,,,,,,,15,,,38,0
19440,note_on,,0,0,12,,,,,,,,,,,,,,,15,,,74,76
19440,note_on,,16,0,10,,,,,,,,,,,,,,,13,,,65,76
19440,note_on,,16,0,9,,,,,,,,,,,,,,,12,,,74,76
19440,note_on,,16,0,7,,,,,,,,,,,,,,,2,,,56,76
19440,note_on,,16,0,5,,,,,,,,,,,,,,,0,,,83,76
19440,note_on,,16,0,11,,,,,,,,,,,,,,,14,,,56,76
19440,note_on,,0,0,12,,,,,,,,,,,,,,,15,,,68,76
19440,note_on,,1,0,12,,,,,,,,,,,,,,,15,,,56,76
19440,note_on,,0,0,12,,,,,,,,,,,,,,,15,,,71,76
19440,note_on,,16,0,6,,,,,,,,,,,,,,,1,,,83,76
19440,note_on,,16,0,8,,,,,,,,,,,,,,,11,,,83,76
19544,note_on,,104,0,8,,,,,,,,,,,,,,,11,,,83,0
19544,note_on,,104,0,11,,,,,,,,,,,,,,,14,,,56,0
19544,note_on,,104,0,9,,,,,,,,,,,,,,,12,,,74,0
19544,note_on,,104,0,5,,,,,,,,,,,,,,,0,,,83,0
19544,note_on,,104,0,7,,,,,,,,,,,,,,,2,,,56,0
19544,note_on,,104,0,10,,,,,,,,,,,,,,,13,,,65,0
19544,note_on,,104,0,6,,,,,,,,,,,,,,,1,,,83,0
19559,note_on,,0,0,12,,,,,,,,,,,,,,,15,,,74,0
19559,note_on,,119,0,12,,,,,,,,,,,,,,,15,,,56,0
19559,note_on,,0,0,12,,,,,,,,,,,,,,,15,,,71,0
19559,note_on,,0,0,12,,,,,,,,,,,,,,,15,,,68,0
19560,note_on,,16,0,9,,,,,,,,,,,,,,,12,,,72,76
19560,note_on,,16,0,11,,,,,,,,,,,,,,,14,,,57,76
19560,note_on,,16,0,7,,,,,,,,,,,,,,,2,,,57,76
19560,note_on,,0,0,12,,,,,,,,,,,,,,,15,,,76,76
19560,note_on,,16,0,8,,,,,,,,,,,,,,,11,,,84,76
19560,note_on,,16,0,5,,,,,,,,,,,,,,,0,,,84,76
19560,note_on,,0,0,12,,,,,,,,,,,,,,,15,,,57,76
19560,note_on,,16,0,10,,,,,,,,,,,,,,,13,,,64,76
19560,note_on,,16,0,6,,,,,,,,,,,,,,,1,,,84,76
19560,note_on,,1,0,12,,,,,,,,,,,,,,,15,,,72,76
19560,note_on,,0,0,12,,,,,,,,,,,,,,,15,,,69,76
19664,note_on,,104,0,10,,,,,,,,,,,,,,,13,,,64,0
19664,note_on,,104,0,7,,,,,,,,,,,,,,,2,,,57,0
19664,note_on,,104,0,8,,,,,,,,,,,,,,,11,,,84,0
19664,note_on,,104,0,9,,,,,,,,,,,,,,,12,,,72,0
19664,note_on,,104,0,5,,,,,,,,,,,,,,,0,,,84,0
19664,note_on,,104,0,6,,,,,,,,,,,,,,,1,,,84,0
19664,note_on,,104,0,11,,,,,,,,,,,,,,,14,,,57,0
19679,note_on,,0,0,12,,,,,,,,,,,,,,,15,,,57,0
19679,note_on,,0,0,12,,,,,,,,,,,,,,,15,,,69,0
19679,note_on,,0,0,12,,,,,,,,,,,,,,,15,,,76,0
19679,note_on,,119,0,12,,,,,,,,,,,,,,,15,,,72,0
19680,note_on,,16,0,5,,,,,,,,,,,,,,,0,,,86,76
19680,note_on,,16,0,7,,,,,,,,,,,,,,,2,,,59,76
19680,note_on,,16,0,9,,,,,,,,,,,,,,,12,,,71,76
19680,note_on,,16,0,10,,,,,,,,,,,,,,,13,,,62,76
19680,note_on,,16,0,11,,,,,,,,,,,,,,,14,,,59,76
19680,note_on,,16,0,6,,,,,,,,,,,,,,,1,,,86,76
19680,note_on,,1,0,12,,,,,,,,,,,,,,,15,,,71,76
19680,note_on,,0,0,12,,,,,,,,,,,,,,,15,,,79,76
19680,note_on,,16,0,8,,,,,,,,,,,,,,,11,,,86,76
19680,note_on,,0,0,12,,,,,,,,,,,,,,,15,,,59,76
19680,note_on,,0,0,12,,,,,,,,,,,,,,,15,,,74,76
19784,note_on,,104,0,9,,,,,,,,,,,,,,,12,,,71,0
19800,note_on,,16,0,9,,,,,,,,,,,,,,,12,,,72,76
19904,note_on,,224,0,6,,,,,,,,,,,,,,,1,,,86,0
19904,note_on,,224,0,10,,,,,,,,,,,,,,,13,,,62,0
19904,note_on,,224,0,11,,,,,,,,,,,,,,,14,,,59,0
19904,note_on,,224,0,8,,,,,,,,,,,,,,,11,,,86,0
19904,note_on,,224,0,5,,,,,,,,,,,,,,,0,,,86,0
19904,note_on,,104,0,9,,,,,,,,,,,,,,,12,,,72,0
19904,note_on,,224,0,7,,,,,,,,,,,,,,,2,,,59,0
19919,note_on,,0,0,12,,,,,,,,,,,,,,,15,,,79,0
19919,note_on,,239,0,12,,,,,,,,,,,,,,,15,,,71,0
19919,note_on,,0,0,12,,,,,,,,,,,,,,,15,,,74,0
19919,note_on,,0,0,12,,,,,,,,,,,,,,,15,,,59,0
19920,note_on,,0,0,12,,,,,,,,,,,,,,,15,,,71,76
19920,note_on,,16,0,5,,,,,,,,,,,,,,,0,,,80,76
19920,note_on,,16,0,6,,,,,,,,,,,,,,,1,,,80,76
19920,note_on,,16,0,8,,,,,,,,,,,,,,,11,,,80,76
19920,note_on,,16,0,11,,,,,,,,,,,,,,,14,,,59,76
19920,note_on,,1,0,12,,,,,,,,,,,,,,,15,,,59,76
19920,note_on,,0,0,12,,,,,,,,,,,,,,,15,,,74,76
19920,note_on,,16,0,10,,,,,,,,,,,,,,,13,,,62,76
19920,note_on,,16,0,7,,,,,,,,,,,,,,,2,,,59,76
19920,note_on,,16,0,9,,,,,,,,,,,,,,,12,,,71,76
19920,note_on,,0,0,12,,,,,,,,,,,,,,,15,,,80,76
20024,note_on,,104,0,9,,,,,,,,,,,,,,,12,,,71,0
20024,note_on,,104,0,10,,,,,,,,,,,,,,,13,,,62,0
20024,note_on,,104,0,7,,,,,,,,,,,,,,,2,,,59,0
20024,note_on,,104,0,11,,,,,,,,,,,,,,,14,,,59,0
20024,note_on,,104,0,8,,,,,,,,,,,,,,,11,,,80,0
20024,note_on,,104,0,6,,,,,,,,,,,,,,,1,,,80,0
20024,note_on,,104,0,5,,,,,,,,,,,,,,,0,,,80,0
20039,note_on,,0,0,12,,,,,,,,,,,,,,,15,,,71,0
20039,note_on,,0,0,12,,,,,,,,,,,,,,,15,,,80,0
20039,note_on,,0,0,12,,,,,,,,,,,,,,,15,,,74,0
20039,note_on,,119,0,12,,,,,,,,,,,,,,,15,,,59,0
20040,note_on,,0,0,12,,,,,,,,,,,,,,,15,,,60,76
20040,note_on,,1,0,12,,,,,,,,,,,,,,,15,,,72,76
20040,note_on,,16,0,7,,,,,,,,,,,,,,,2,,,60,76
20040,note_on,,16,0,10,,,,,,,,,,,,,,,13,,,64,76
20040,note_on,,16,0,6,,,,,,,,,,,,,,,1,,,81,76
20040,note_on,,16,0,8,,,,,,,,,,,,,,,11,,,81,76
20040,note_on,,16,0,11,,,,,,,,,,,,,,,14,,,60,76
20040,note_on,,0,0,12,,,,,,,,,,,,,,,15,,,76,76
20040,note_on,,0,0,12,,,,,,,,,,,,,,,15,,,80,76
20040,note_on,,16,0,9,,,,,,,,,,,,,,,12,,,69,76
20040,note_on,,16,0,5,,,,,,,,,,,,,,,0,,,81,76
20144,note_on,,104,0,10,,,,,,,,,,,,,,,13,,,64,0
20144,note_on,,104,0,11,,,,,,,,,,,,,,,14,,,60,0
20144,note_on,,104,0,7,,,,,,,,,,,,,,,2,,,60,0
20144,note_on,,104,0,9,,,,,,,,,,,,,,,12,,,69,0
20144,note_on,,104,0,8,,,,,,,,,,,,,,,11,,,81,0
20144,note_on,,104,0,6,,,,,,,,,,,,,,,1,,,81,0
20144,note_on,,104,0,5,,,,,,,,,,,,,,,0,,,81,0
20159,note_on,,0,0,12,,,,,,,,,,,,,,,15,,,60,0
20159,note_on,,119,0,12,,,,,,,,,,,,,,,15,,,72,0
20159,note_on,,0,0,12,,,,,,,,,,,,,,,15,,,80,0
20159,note_on,,0,0,12,,,,,,,,,,,,,,,15,,,76,0
20160,note_on,,16,0,10,,,,,,,,,,,,,,,13,,,65,76
20160,note_on,,16,0,11,,,,,,,,,,,,,,,14,,,62,76
20160,note_on,,16,0,7,,,,,,,,,,,,,,,2,,,62,76
20160,note_on,,16,0,8,,,,,,,,,,,,,,,11,,,83,76
20160,note_on,,16,0,6,,,,,,,,,,,,,,,1,,,83,76
20160,note_on,,1,0,12,,,,,,,,,,,,,,,15,,,77,76
20160,note_on,,0,0,12,,,,,,,,,,,,,,,15,,,74,76
20160,note_on,,16,0,9,,,,,,,,,,,,,,,12,,,68,76
20160,note_on,,0,0,12,,,,,,,,,,,,,,,15,,,62,76
20160,note_on,,0,0,12,,,,,,,,,,,,,,,15,,,80,76
20160,note_on,,16,0,5,,,,,,,,,,,,,,,0,,,83,76
20384,note_on,,224,0,5,,,,,,,,,,,,,,,0,,,83,0
20384,note_on,,224,0,9,,,,,,,,,,,,,,,12,,,68,0
20384,note_on,,224,0,6,,,,,,,,,,,,,,,1,,,83,0
20384,note_on,,224,0,10,,,,,,,,,,,,,,,13,,,65,0
20384,note_on,,224,0,8,,,,,,,,,,,,,,,11,,,83,0
20399,note_on,,239,0,11,,,,,,,,,,,,,,,14,,,62,0
20399,note_on,,239,0,12,,,,,,,,,,,,,,,15,,,77,0
20399,note_on,,0,0,12,,,,,,,,,,,,,,,15,,,62,0
20399,note_on,,0,0,12,,,,,,,,,,,,,,,15,,,80,0
20399,note_on,,239,0,7,,,,,,,,,,,,,,,2,,,62,0
20399,note_on,,0,0,12,,,,,,,,,,,,,,,15,,,74,0
20400,note_on,,16,0,8,,,,,,,,,,,,,,,11,,,74,76
20400,note_on,,16,0,10,,,,,,,,,,,,,,,13,,,59,76
20400,note_on,,16,0,5,,,,,,,,,,,,,,,0,,,74,76
20400,note_on,,16,0,6,,,,,,,,,,,,,,,1,,,74,76
20400,note_on,,16,0,9,,,,,,,,,,,,,,,12,,,59,76
20504,note_on,,104,0,8,,,,,,,,,,,,,,,11,,,74,0
20504,note_on,,104,0,10,,,,,,,,,,,,,,,13,,,59,0
20504,note_on,,104,0,9,,,,,,,,,,,,,,,12,,,59,0
20504,note_on,,104,0,5,,,,,,,,,,,,,,,0,,,74,0
20504,note_on,,104,0,6,,,,,,,,,,,,,,,1,,,74,0
20520,note_on,,16,0,10,,,,,,,,,,,,,,,13,,,60,76
20520,note_on,,16,0,9,,,,,,,,,,,,,,,12,,,60,76
20520,note_on,,16,0,5,,,,,,,,,,,,,,,0,,,76,76
20520,note_on,,16,0,8,,,,,,,,,,,,,,,11,,,76,76
20520,note_on,,16,0,6,,,,,,,,,,,,,,,1,,,76,76
20624,note_on,,104,0,9,,,,,,,,,,,,,,,12,,,60,0
20624,note_on,,104,0,6,,,,,,,,,,,,,,,1,,,76,0
20624,note_on,,104,0,8,,,,,,,,,,,,,,,11,,,76,0
20624,note_on,,104,0,10,,,,,,,,,,,,,,,13,,,60,0
20624,note_on,,104,0,5,,,,,,,,,,,,,,,0,,,76,0
20640,note_on,,16,0,6,,,,,,,,,,,,,,,1,,,77,76
20640,note_on,,16,0,8,,,,,,,,,,,,,,,11,,,77,76
20640,note_on,,16,0,9,,,,,,,,,,,,,,,12,,,62,76
20640,note_on,,16,0,10,,,,,,,,,,,,,,,13,,,62,76
20640,note_on,,16,0,5,,,,,,,,,,,,,,,0,,,77,76
20864,note_on,,224,0,6,,,,,,,,,,,,,,,1,,,77,0
20864,note_on,,224,0,8,,,,,,,,,,,,,,,11,,,77,0
20864,note_on,,224,0,5,,,,,,,,,,,,,,,0,,,77,0
20864,note_on,,224,0,9,,,,,,,,,,,,,,,12,,,62,0
20864,note_on,,224,0,10,,,,,,,,,,,,,,,13,,,62,0
20880,note_on,,16,0,6,,,,,,,,,,,,,,,1,,,71,76
20880,note_on,,16,0,5,,,,,,,,,,,,,,,0,,,71,76
20880,note_on,,16,0,8,,,,,,,,,,,,,,,11,,,71,76
20880,note_on,,16,0,9,,,,,,,,,,,,,,,12,,,62,76
20880,note_on,,16,0,10,,,,,,,,,,,,,,,13,,,62,76
20984,note_on,,104,0,5,,,,,,,,,,,,,,,0,,,71,0
20984,note_on,,104,0,8,,,,,,,,,,,,,,,11,,,71,0
20984,note_on,,104,0,9,,,,,,,,,,,,,,,12,,,62,0
20984,note_on,,104,0,10,,,,,,,,,,,,,,,13,,,62,0
20984,note_on,,104,0,6,,,,,,,,,,,,,,,1,,,71,0
21000,note_on,,16,0,8,,,,,,,,,,,,,,,11,,,72,76
21000,note_on,,16,0,10,,,,,,,,,,,,,,,13,,,64,76
21000,note_on,,16,0,6,,,,,,,,,,,,,,,1,,,72,76
21000,note_on,,16,0,5,,,,,,,,,,,,,,,0,,,72,76
21000,note_on,,16,0,9,,,,,,,,,,,,,,,12,,,64,76
21104,note_on,,104,0,10,,,,,,,,,,,,,,,13,,,64,0
21104,note_on,,104,0,6,,,,,,,,,,,,,,,1,,,72,0
21104,note_on,,104,0,9,,,,,,,,,,,,,,,12,,,64,0
21104,note_on,,104,0,8,,,,,,,,,,,,,,,11,,,72,0
21104,note_on,,104,0,5,,,,,,,,,,,,,,,0,,,72,0
21120,note_on,,16,0,10,,,,,,,,,,,,,,,13,,,65,76
21120,note_on,,16,0,9,,,,,,,,,,,,,,,12,,,65,76
21120,note_on,,16,0,5,,,,,,,,,,,,,,,0,,,74,76
21120,note_on,,16,0,6,,,,,,,,,,,,,,,1,,,74,76
21120,note_on,,16,0,8,,,,,,,,,,,,,,,11,,,74,76
21344,note_on,,224,0,5,,,,,,,,,,,,,,,0,,,74,0
21344,note_on,,224,0,9,,,,,,,,,,,,,,,12,,,65,0
21344,note_on,,224,0,6,,,,,,,,,,,,,,,1,,,74,0
21344,note_on,,224,0,10,,,,,,,,,,,,,,,13,,,65,0
21344,note_on,,224,0,8,,,,,,,,,,,,,,,11,,,74,0
21360,note_on,,16,0,10,,,,,,,,,,,,,,,13,,,59,76
21360,note_on,,961,0,12,,,,,,,,,,,,,,,15,,,71,76
21360,note_on,,0,0,12,,,,,,,,,,,,,,,15,,,68,76
21360,note_on,,0,0,12,,,,,,,,,,,,,,,15,,,62,76
21360,note_on,,16,0,5,,,,,,,,,,,,,,,0,,,68,76
21360,note_on,,0,0,12,,,,,,,,,,,,,,,15,,,50,76
21360,note_on,,16,0,8,,,,,,,,,,,,,,,11,,,68,76
21360,note_on,,16,0,9,,,,,,,,,,,,,,,12,,,64,76
21360,note_on,,0,0,12,,,,,,,,,,,,,,,15,,,64,76
21360,note_on,,16,0,6,,,,,,,,,,,,,,,1,,,68,76
21360,note_on,,961,0,11,,,,,,,,,,,,,,,14,,,50,76
21360,note_on,,961,0,7,,,,,,,,,,,,,,,2,,,50,76
21584,note_on,,224,0,9,,,,,,,,,,,,,,,12,,,64,0
21584,note_on,,224,0,7,,,,,,,,,,,,,,,2,,,50,0
21584,note_on,,224,0,8,,,,,,,,,,,,,,,11,,,68,0
21584,note_on,,224,0,6,,,,,,,,,,,,,,,1,,,68,0
21584,note_on,,224,0,10,,,,,,,,,,,,,,,13,,,59,0
21584,note_on,,224,0,11,,,,,,,,,,,,,,,14,,,50,0
21584,note_on,,224,0,5,,,,,,,,,,,,,,,0,,,68,0
21599,note_on,,239,0,12,,,,,,,,,,,,,,,15,,,71,0
21599,note_on,,0,0,12,,,,,,,,,,,,,,,15,,,50,0
21599,note_on,,0,0,12,,,,,,,,,,,,,,,15,,,62,0
21599,note_on,,0,0,12,,,,,,,,,,,,,,,15,,,68,0
21599,note_on,,0,0,12,,,,,,,,,,,,,,,15,,,64,0
21600,note_on,,0,0,12,,,,,,,,,,,,,,,15,,,60,76
21600,note_on,,0,0,12,,,,,,,,,,,,,,,15,,,48,76
21600,note_on,,0,0,12,,,,,,,,,,,,,,,15,,,64,76
21600,note_on,,16,0,5,,,,,,,,,,,,,,,0,,,69,76
21600,note_on,,16,0,8,,,,,,,,,,,,,,,11,,,69,76
21600,note_on,,1,0,12,,,,,,,,,,,,,,,15,,,69,76
21600,note_on,,16,0,7,,,,,,,,,,,,,,,2,,,48,76
21600,note_on,,16,0,9,,,,,,,,,,,,,,,12,,,64,76
21600,note_on,,16,0,10,,,,,,,,,,,,,,,13,,,60,76
21600,note_on,,16,0,11,,,,,,,,,,,,,,,14,,,48,76
21600,note_on,,16,0,6,,,,,,,,,,,,,,,1,,,69,76
21704,note_on,,104,0,11,,,,,,,,,,,,,,,14,,,48,0
21704,note_on,,104,0,7,,,,,,,,,,,,,,,2,,,48,0
21719,note_on,,119,0,12,,,,,,,,,,,,,,,15,,,69,0
21719,note_on,,0,0,12,,,,,,,,,,,,,,,15,,,60,0
21719,note_on,,0,0,12,,,,,,,,,,,,,,,15,,,48,0
21719,note_on,,0,0,12,,,,,,,,,,,,,,,15,,,64,0
21720,note_on,,16,0,7,,,,,,,,,,,,,,,2,,,47,76
21720,note_on,,16,0,11,,,,,,,,,,,,,,,14,,,47,76
21720,note_on,,0,0,12,,,,,,,,,,,,,,,15,,,47,76
21720,note_on,,1,0,12,,,,,,,,,,,,,,,15,,,62,76
21720,note_on,,0,0,12,,,,,,,,,,,,,,,15,,,59,76
21720,note_on,,0,0,12,,,,,,,,,,,,,,,15,,,65,76
21824,note_on,,224,0,9,,,,,,,,,,,,,,,12,,,64,0
21824,note_on,,104,0,7,,,,,,,,,,,,,,,2,,,47,0
21824,note_on,,104,0,11,,,,,,,,,,,,,,,14,,,47,0
21824,note_on,,224,0,10,,,,,,,,,,,,,,,13,,,60,0
21839,note_on,,119,0,12,,,,,,,,,,,,,,,15,,,62,0
21839,note_on,,0,0,12,,,,,,,,,,,,,,,15,,,47,0
21839,note_on,,0,0,12,,,,,,,,,,,,,,,15,,,59,0
21839,note_on,,0,0,12,,,,,,,,,,,,,,,15,,,65,0
21840,note_on,,16,0,7,,,,,,,,,,,,,,,2,,,48,76
21840,note_on,,16,0,10,,,,,,,,,,,,,,,13,,,64,76
21840,note_on,,0,0,12,,,,,,,,,,,,,,,15,,,60,76
21840,note_on,,0,0,12,,,,,,,,,,,,,,,15,,,69,76
21840,note_on,,0,0,12,,,,,,,,,,,,,,,15,,,48,76
21840,note_on,,16,0,11,,,,,,,,,,,,,,,14,,,48,76
21840,note_on,,16,0,9,,,,,,,,,,,,,,,12,,,69,76
21840,note_on,,1,0,12,,,,,,,,,,,,,,,15,,,64,76
21944,note_on,,344,0,5,,,,,,,,,,,,,,,0,,,69,0
21944,note_on,,344,0,6,,,,,,,,,,,,,,,1,,,69,0
21944,note_on,,104,0,7,,,,,,,,,,,,,,,2,,,48,0
21944,note_on,,104,0,11,,,,,,,,,,,,,,,14,,,48,0
21944,note_on,,344,0,8,,,,,,,,,,,,,,,11,,,69,0
21959,note_on,,119,0,12,,,,,,,,,,,,,,,15,,,64,0
21959,note_on,,0,0,12,,,,,,,,,,,,,,,15,,,69,0
21959,note_on,,0,0,12,,,,,,,,,,,,,,,15,,,60,0
21959,note_on,,0,0,12,,,,,,,,,,,,,,,15,,,48,0
21960,note_on,,16,0,5,,,,,,,,,,,,,,,0,,,71,76
21960,note_on,,16,0,11,,,,,,,,,,,,,,,14,,,50,76
21960,note_on,,16,0,8,,,,,,,,,,,,,,,11,,,71,76
21960,note_on,,16,0,6,,,,,,,,,,,,,,,1,,,71,76
21960,note_on,,1,0,12,,,,,,,,,,,,,,,15,,,69,76
21960,note_on,,0,0,12,,,,,,,,,,,,,,,15,,,62,76
21960,note_on,,0,0,12,,,,,,,,,,,,,,,15,,,50,76
21960,note_on,,0,0,12,,,,,,,,,,,,,,,15,,,65,76
21960,note_on,,16,0,7,,,,,,,,,,,,,,,2,,,50,76
22064,note_on,,224,0,9,,,,,,,,,,,,,,,12,,,69,0
22064,note_on,,104,0,6,,,,,,,,,,,,,,,1,,,71,0
22064,note_on,,104,0,5,,,,,,,,,,,,,,,0,,,71,0
22064,note_on,,224,0,10,,,,,,,,,,,,,,,13,,,64,0
22064,note_on,,104,0,11,,,,,,,,,,,,,,,14,,,50,0
22064,note_on,,104,0,8,,,,,,,,,,,,,,,11,,,71,0
22064,note_on,,104,0,7,,,,,,,,,,,,,,,2,,,50,0
22079,note_on,,0,0,12,,,,,,,,,,,,,,,15,,,65,0
22079,note_on,,0,0,12,,,,,,,,,,,,,,,15,,,62,0
22079,note_on,,119,0,12,,,,,,,,,,,,,,,15,,,69,0
22079,note_on,,0,0,12,,,,,,,,,,,,,,,15,,,50,0
22080,note_on,,16,0,11,,,,,,,,,,,,,,,14,,,52,76
22080,note_on,,16,0,9,,,,,,,,,,,,,,,12,,,68,76
22080,note_on,,0,0,12,,,,,,,,,,,,,,,15,,,68,76
22080,note_on,,16,0,5,,,,,,,,,,,,,,,0,,,71,76
22080,note_on,,16,0,8,,,,,,,,,,,,,,,11,,,71,76
22080,note_on,,16,0,7,,,,,,,,,,,,,,,2,,,52,76
22080,note_on,,0,0,12,,,,,,,,,,,,,,,15,,,71,76
22080,note_on,,16,0,10,,,,,,,,,,,,,,,13,,,64,76
22080,note_on,,16,0,6,,,,,,,,,,,,,,,1,,,71,76
22080,note_on,,1,0,12,,,,,,,,,,,,,,,15,,,64,76
22080,note_on,,0,0,12,,,,,,,,,,,,,,,15,,,52,76
22304,note_on,,224,0,11,,,,,,,,,,,,,,,14,,,52,0
22304,note_on,,224,0,10,,,,,,,,,,,,,,,13,,,64,0
22304,note_on,,224,0,7,,,,,,,,,,,,,,,2,,,52,0
22319,note_on,,0,0,12,,,,,,,,,,,,,,,15,,,68,0
22319,note_on,,0,0,12,,,,,,,,,,,,,,,15,,,71,0
22319,note_on,,0,0,12,,,,,,,,,,,,,,,15,,,52,0
22319,note_on,,239,0,12,,,,,,,,,,,,,,,15,,,64,0
22320,note_on,,1,0,12,,,,,,,,,,,,,,,15,,,56,76
22320,note_on,,0,0,12,,,,,,,,,,,,,,,15,,,59,76
22320,note_on,,16,0,10,,,,,,,,,,,,,,,13,,,59,76
22320,note_on,,0,0,12,,,,,,,,,,,,,,,15,,,40,76
22320,note_on,,0,0,12,,,,,,,,,,,,,,,15,,,52,76
22320,note_on,,16,0,11,,,,,,,,,,,,,,,14,,,40,76
22320,note_on,,16,0,7,,,,,,,,,,,,,,,2,,,40,76
22424,note_on,,344,0,6,,,,,,,,,,,,,,,1,,,71,0
22424,note_on,,344,0,8,,,,,,,,,,,,,,,11,,,71,0
22424,note_on,,344,0,9,,,,,,,,,,,,,,,12,,,68,0
22424,note_on,,344,0,5,,,,,,,,,,,,,,,0,,,71,0
22440,note_on,,16,0,5,,,,,,,,,,,,,,,0,,,69,76
22440,note_on,,16,0,9,,,,,,,,,,,,,,,12,,,64,76
22440,note_on,,16,0,6,,,,,,,,,,,,,,,1,,,69,76
22440,note_on,,16,0,8,,,,,,,,,,,,,,,11,,,69,76
22544,note_on,,224,0,10,,,,,,,,,,,,,,,13,,,59,0
22544,note_on,,224,0,11,,,,,,,,,,,,,,,14,,,40,0
22544,note_on,,224,0,7,,,,,,,,,,,,,,,2,,,40,0
22544,note_on,,104,0,9,,,,,,,,,,,,,,,12,,,64,0
22544,note_on,,104,0,8,,,,,,,,,,,,,,,11,,,69,0
22544,note_on,,104,0,6,,,,,,,,,,,,,,,1,,,69,0
22544,note_on,,104,0,5,,,,,,,,,,,,,,,0,,,69,0
22559,note_on,,0,0,12,,,,,,,,,,,,,,,15,,,59,0
22559,note_on,,0,0,12,,,,,,,,,,,,,,,15,,,52,0
22559,note_on,,239,0,12,,,,,,,,,,,,,,,15,,,56,0
22559,note_on,,0,0,12,,,,,,,,,,,,,,,15,,,40,0
22560,note_on,,16,0,6,,,,,,,,,,,,,,,1,,,69,76
22560,note_on,,16,0,10,,,,,,,,,,,,,,,13,,,60,76
22560,note_on,,16,0,11,,,,,,,,,,,,,,,14,,,45,76
22560,note_on,,16,0,7,,,,,,,,,,,,,,,2,,,45,76
22560,note_on,,0,0,12,,,,,,,,,,,,,,,15,,,64,76
22560,note_on,,1,0,12,,,,,,,,,,,,,,,15,,,57,76
22560,note_on,,0,0,12,,,,,,,,,,,,,,,15,,,60,76
22560,note_on,,0,0,12,,,,,,,,,,,,,,,15,,,45,76
22560,note_on,,16,0,8,,,,,,,,,,,,,,,11,,,69,76
22560,note_on,,16,0,9,,,,,,,,,,,,,,,12,,,64,76
22560,note_on,,16,0,5,,,,,,,,,,,,,,,0,,,69,76
22784,note_on,,224,0,7,,,,,,,,,,,,,,,2,,,45,0
22784,note_on,,224,0,11,,,,,,,,,,,,,,,14,,,45,0
22799,note_on,,0,0,12,,,,,,,,,,,,,,,15,,,64,0
22799,note_on,,0,0,12,,,,,,,,,,,,,,,15,,,45,0
22799,note_on,,0,0,12,,,,,,,,,,,,,,,15,,,60,0
22799,note_on,,239,0,12,,,,,,,,,,,,,,,15,,,57,0
22800,note_on,,1,0,12,,,,,,,,,,,,,,,15,,,71,76
22800,note_on,,0,0,12,,,,,,,,,,,,,,,15,,,52,76
22800,note_on,,0,0,12,,,,,,,,,,,,,,,15,,,64,76
22800,note_on,,16,0,11,,,,,,,,,,,,,,,14,,,52,76
22800,note_on,,16,0,7,,,,,,,,,,,,,,,2,,,52,76
22800,note_on,,0,0,12,,,,,,,,,,,,,,,15,,,67,76
23024,note_on,,224,0,7,,,,,,,,,,,,,,,2,,,52,0
23024,note_on,,224,0,11,,,,,,,,,,,,,,,14,,,52,0
23039,note_on,,0,0,12,,,,,,,,,,,,,,,15,,,67,0
23039,note_on,,0,0,12,,,,,,,,,,,,,,,15,,,52,0
23039,note_on,,0,0,12,,,,,,,,,,,,,,,15,,,64,0
23039,note_on,,239,0,12,,,,,,,,,,,,,,,15,,,71,0
23040,note_on,,16,0,11,,,,,,,,,,,,,,,14,,,57,76
23040,note_on,,0,0,12,,,,,,,,,,,,,,,15,,,72,76
23040,note_on,,0,0,12,,,,,,,,,,,,,,,15,,,69,76
23040,note_on,,16,0,7,,,,,,,,,,,,,,,2,,,57,76
23040,note_on,,0,0,12,,,,,,,,,,,,,,,15,,,76,76
23040,note_on,,1,0,12,,,,,,,,,,,,,,,15,,,57,76
23264,note_on,,704,0,5,,,,,,,,,,,,,,,0,,,69,0
23264,note_on,,704,0,6,,,,,,,,,,,,,,,1,,,69,0
23264,note_on,,704,0,8,,,,,,,,,,,,,,,11,,,69,0
23279,note_on,,719,0,9,,,,,,,,,,,,,,,12,,,64,0
23279,note_on,,719,0,10,,,,,,,,,,,,,,,13,,,60,0
23279,note_on,,239,0,7,,,,,,,,,,,,,,,2,,,57,0
23279,note_on,,239,0,12,,,,,,,,,,,,,,,15,,,57,0
23279,note_on,,0,0,12,,,,,,,,,,,,,,,15,,,76,0
23279,note_on,,0,0,12,,,,,,,,,,,,,,,15,,,69,0
23279,note_on,,0,0,12,,,,,,,,,,,,,,,15,,,72,0
23279,note_on,,239,0,11,,,,,,,,,,,,,,,14,,,57,0
23280,note_on,,16,0,5,,,,,,,,,,,,,,,0,,,76,76
23280,note_on,,16,0,8,,,,,,,,,,,,,,,11,,,76,76
23280,note_on,,16,0,6,,,,,,,,,,,,,,,1,,,76,76
23384,note_on,,104,0,6,,,,,,,,,,,,,,,1,,,76,0
23384,note_on,,104,0,5,,,,,,,,,,,,,,,0,,,76,0
23384,note_on,,104,0,8,,,,,,,,,,,,,,,11,,,76,0
23400,note_on,,16,0,8,,,,,,,,,,,,,,,11,,,77,76
23400,note_on,,16,0,6,,,,,,,,,,,,,,,1,,,77,76
23400,note_on,,16,0,5,,,,,,,,,,,,,,,0,,,77,76
23504,note_on,,104,0,8,,,,,,,,,,,,,,,11,,,77,0
23504,note_on,,104,0,5,,,,,,,,,,,,,,,0,,,77,0
23504,note_on,,104,0,6,,,,,,,,,,,,,,,1,,,77,0
23520,note_on,,16,0,6,,,,,,,,,,,,,,,1,,,79,76
23520,note_on,,16,0,5,,,,,,,,,,,,,,,0,,,79,76
23520,note_on,,16,0,8,,,,,,,,,,,,,,,11,,,79,76
23744,note_on,,224,0,5,,,,,,,,,,,,,,,0,,,79,0
23744,note_on,,224,0,8,,,,,,,,,,,,,,,11,,,79,0
23744,note_on,,224,0,6,,,,,,,,,,,,,,,1,,,79,0
23760,note_on,,0,0,12,,,,,,,,,,,,,,,15,,,64,76
23760,note_on,,0,0,12,,,,,,,,,,,,,,,15,,,67,76
23760,note_on,,0,0,12,,,,,,,,,,,,,,,15,,,48,76
23760,note_on,,16,0,5,,,,,,,,,,,,,,,0,,,84,76
23760,note_on,,481,0,12,,,,,,,,,,,,,,,15,,,60,76
23760,note_on,,481,0,10,,,,,,,,,,,,,,,13,,,64,76
23760,note_on,,16,0,6,,,,,,,,,,,,,,,1,,,84,76
23760,note_on,,16,0,8,,,,,,,,,,,,,,,11,,,84,76
23760,note_on,,481,0,11,,,,,,,,,,,,,,,14,,,48,76
23760,note_on,,481,0,9,,,,,,,,,,,,,,,12,,,79,76
23760,note_on,,481,0,7,,,,,,,,,,,,,,,2,,,48,76
23864,note_on,,104,0,11,,,,,,,,,,,,,,,14,,,48,0
23864,note_on,,104,0,9,,,,,,,,,,,,,,,12,,,79,0
23864,note_on,,104,0,7,,,,,,,,,,,,,,,2,,,48,0
23864,note_on,,104,0,10,,,,,,,,,,,,,,,13,,,64,0
23879,note_on,,0,0,12,,,,,,,,,,,,,,,15,,,64,0
23879,note_on,,0,0,12,,,,,,,,,,,,,,,15,,,67,0
23879,note_on,,119,0,12,,,,,,,,,,,,,,,15,,,60,0
23879,note_on,,0,0,12,,,,,,,,,,,,,,,15,,,48,0
23880,note_on,,16,0,9,,,,,,,,,,,,,,,12,,,77,76
23880,note_on,,16,0,7,,,,,,,,,,,,,,,2,,,50,76
23880,note_on,,0,0,12,,,,,,,,,,,,,,,15,,,65,76
23880,note_on,,1,0,12,,,,,,,,,,,,,,,15,,,50,76
23880,note_on,,0,0,12,,,,,,,,,,,,,,,15,,,62,76
23880,note_on,,16,0,10,,,,,,,,,,,,,,,13,,,65,76
23880,note_on,,0,0,12,,,,,,,,,,,,,,,15,,,69,76
23880,note_on,,16,0,11,,,,,,,,,,,,,,,14,,,50,76
23984,note_on,,104,0,10,,,,,,,,,,,,,,,13,,,65,0
23984,note_on,,104,0,11,,,,,,,,,,,,,,,14,,,50,0
23984,note_on,,104,0,7,,,,,,,,,,,,,,,2,,,50,0
23984,note_on,,104,0,9,,,,,,,,,,,,,,,12,,,77,0
23999,note_on,,0,0,12,,,,,,,,,,,,,,,15,,,62,0
23999,note_on,,0,0,12,,,,,,,,,,,,,,,15,,,69,0
23999,note_on,,0,0,12,,,,,,,,,,,,,,,15,,,65,0
23999,note_on,,119,0,12,,,,,,,,,,,,,,,15,,,50,0
24000,note_on,,0,0,12,,,,,,,,,,,,,,,15,,,72,76
24000,note_on,,0,0,12,,,,,,,,,,,,,,,15,,,64,76
24000,note_on,,1,0,12,,,,,,,,,,,,,,,15,,,67,76
24000,note_on,,16,0,11,,,,,,,,,,,,,,,14,,,52,76
24000,note_on,,0,0,12,,,,,,,,,,,,,,,15,,,52,76
24000,note_on,,16,0,10,,,,,,,,,,,,,,,13,,,67,76
24000,note_on,,16,0,9,,,,,,,,,,,,,,,12,,,76,76
24000,note_on,,16,0,7,,,,,,,,,,,,,,,2,,,52,76
24104,note_on,,104,0,9,,,,,,,,,,,,,,,12,,,76,0
24120,note_on,,16,0,9,,,,,,,,,,,,,,,12,,,74,76
24224,note_on,,224,0,7,,,,,,,,,,,,,,,2,,,52,0
24224,note_on,,224,0,10,,,,,,,,,,,,,,,13,,,67,0
24224,note_on,,104,0,9,,,,,,,,,,,,,,,12,,,74,0
24224,note_on,,464,0,6,,,,,,,,,,,,,,,1,,,84,0
24224,note_on,,464,0,5,,,,,,,,,,,,,,,0,,,84,0
24224,note_on,,224,0,11,,,,,,,,,,,,,,,14,,,52,0
24224,note_on,,464,0,8,,,,,,,,,,,,,,,11,,,84,0
24239,note_on,,0,0,12,,,,,,,,,,,,,,,15,,,64,0
24239,note_on,,0,0,12,,,,,,,,,,,,,,,15,,,72,0
24239,note_on,,0,0,12,,,,,,,,,,,,,,,15,,,52,0
24239,note_on,,239,0,12,,,,,,,,,,,,,,,15,,,67,0
24240,note_on,,16,0,5,,,,,,,,,,,,,,,0,,,79,76
24240,note_on,,16,0,10,,,,,,,,,,,,,,,13,,,67,76
24240,note_on,,1,0,12,,,,,,,,,,,,,,,15,,,64,76
24240,note_on,,0,0,12,,,,,,,,,,,,,,,15,,,72,76
24240,note_on,,0,0,12,,,,,,,,,,,,,,,15,,,67,76
24240,note_on,,0,0,12,,,,,,,,,,,,,,,15,,,52,76
24240,note_on,,16,0,11,,,,,,,,,,,,,,,14,,,52,76
24240,note_on,,16,0,7,,,,,,,,,,,,,,,2,,,52,76
24240,note_on,,16,0,8,,,,,,,,,,,,,,,11,,,79,76
24240,note_on,,16,0,9,,,,,,,,,,,,,,,12,,,76,76
24240,note_on,,16,0,6,,,,,,,,,,,,,,,1,,,79,76
24344,note_on,,104,0,7,,,,,,,,,,,,,,,2,,,52,0
24344,note_on,,104,0,9,,,,,,,,,,,,,,,12,,,76,0
24344,note_on,,104,0,10,,,,,,,,,,,,,,,13,,,67,0
24344,note_on,,104,0,11,,,,,,,,,,,,,,,14,,,52,0
24359,note_on,,0,0,12,,,,,,,,,,,,,,,15,,,52,0
24359,note_on,,0,0,12,,,,,,,,,,,,,,,15,,,67,0
24359,note_on,,0,0,12,,,,,,,,,,,,,,,15,,,72,0
24359,note_on,,119,0,12,,,,,,,,,,,,,,,15,,,64,0
24360,note_on,,16,0,11,,,,,,,,,,,,,,,14,,,53,76
24360,note_on,,0,0,12,,,,,,,,,,,,,,,15,,,53,76
24360,note_on,,0,0,12,,,,,,,,,,,,,,,15,,,65,76
24360,note_on,,1,0,12,,,,,,,,,,,,,,,15,,,72,76
24360,note_on,,16,0,10,,,,,,,,,,,,,,,13,,,69,76
24360,note_on,,0,0,12,,,,,,,,,,,,,,,15,,,69,76
24360,note_on,,16,0,7,,,,,,,,,,,,,,,2,,,53,76
24360,note_on,,16,0,9,,,,,,,,,,,,,,,12,,,72,76
24464,note_on,,104,0,11,,,,,,,,,,,,,,,14,,,53,0
24464,note_on,,224,0,6,,,,,,,,,,,,,,,1,,,79,0
24464,note_on,,104,0,7,,,,,,,,,,,,,,,2,,,53,0
24464,note_on,,104,0,9,,,,,,,,,,,,,,,12,,,72,0
24464,note_on,,224,0,8,,,,,,,,,,,,,,,11,,,79,0
24464,note_on,,104,0,10,,,,,,,,,,,,,,,13,,,69,0
24464,note_on,,224,0,5,,,,,,,,,,,,,,,0,,,79,0
24479,note_on,,0,0,12,,,,,,,,,,,,,,,15,,,65,0
24479,note_on,,0,0,12,,,,,,,,,,,,,,,15,,,53,0
24479,note_on,,119,0,12,,,,,,,,,,,,,,,15,,,72,0
24479,note_on,,0,0,12,,,,,,,,,,,,,,,15,,,69,0
24480,note_on,,0,0,12,,,,,,,,,,,,,,,15,,,76,76
24480,note_on,,16,0,9,,,,,,,,,,,,,,,12,,,70,76
24480,note_on,,16,0,11,,,,,,,,,,,,,,,14,,,55,76
24480,note_on,,16,0,8,,,,,,,,,,,,,,,11,,,76,76
24480,note_on,,0,0,12,,,,,,,,,,,,,,,15,,,70,76
24480,note_on,,16,0,5,,,,,,,,,,,,,,,0,,,76,76
24480,note_on,,16,0,6,,,,,,,,,,,,,,,1,,,76,76
24480,note_on,,1,0,12,,,,,,,,,,,,,,,15,,,67,76
24480,note_on,,0,0,12,,,,,,,,,,,,,,,15,,,55,76
24480,note_on,,16,0,7,,,,,,,,,,,,,,,2,,,55,76
24480,note_on,,16,0,10,,,,,,,,,,,,,,,13,,,70,76
24584,note_on,,104,0,8,,,,,,,,,,,,,,,11,,,76,0
24584,note_on,,104,0,10,,,,,,,,,,,,,,,13,,,70,0
24584,note_on,,104,0,6,,,,,,,,,,,,,,,1,,,76,0
24584,note_on,,104,0,5,,,,,,,,,,,,,,,0,,,76,0
24584,note_on,,104,0,9,,,,,,,,,,,,,,,12,,,70,0
24600,note_on,,16,0,10,,,,,,,,,,,,,,,13,,,69,76
24600,note_on,,16,0,9,,,,,,,,,,,,,,,12,,,72,76
24600,note_on,,16,0,8,,,,,,,,,,,,,,,11,,,74,76
24600,note_on,,16,0,6,,,,,,,,,,,,,,,1,,,74,76
24600,note_on,,16,0,5,,,,,,,,,,,,,,,0,,,74,76
24704,note_on,,224,0,11,,,,,,,,,,,,,,,14,,,55,0
24704,note_on,,104,0,9,,,,,,,,,,,,,,,12,,,72,0
24704,note_on,,104,0,8,,,,,,,,,,,,,,,11,,,74,0
24704,note_on,,104,0,5,,,,,,,,,,,,,,,0,,,74,0
24704,note_on,,104,0,6,,,,,,,,,,,,,,,1,,,74,0
24704,note_on,,224,0,7,,,,,,,,,,,,,,,2,,,55,0
24704,note_on,,104,0,10,,,,,,,,,,,,,,,13,,,69,0
24719,note_on,,239,0,12,,,,,,,,,,,,,,,15,,,67,0
24719,note_on,,0,0,12,,,,,,,,,,,,,,,15,,,70,0
24719,note_on,,0,0,12,,,,,,,,,,,,,,,15,,,55,0
24719,note_on,,0,0,12,,,,,,,,,,,,,,,15,,,76,0
24720,note_on,,0,0,12,,,,,,,,,,,,,,,15,,,55,76
24720,note_on,,16,0,6,,,,,,,,,,,,,,,1,,,76,76
24720,note_on,,16,0,8,,,,,,,,,,,,,,,11,,,76,76
24720,note_on,,16,0,5,,,,,,,,,,,,,,,0,,,76,76
24720,note_on,,16,0,7,,,,,,,,,,,,,,,2,,,55,76
24720,note_on,,1,0,12,,,,,,,,,,,,,,,15,,,70,76
24720,note_on,,0,0,12,,,,,,,,,,,,,,,15,,,76,76
24720,note_on,,16,0,9,,,,,,,,,,,,,,,12,,,70,76
24720,note_on,,16,0,11,,,,,,,,,,,,,,,14,,,55,76
24720,note_on,,16,0,10,,,,,,,,,,,,,,,13,,,67,76
24720,note_on,,0,0,12,,,,,,,,,,,,,,,15,,,67,76
24824,note_on,,104,0,7,,,,,,,,,,,,,,,2,,,55,0
24824,note_on,,104,0,6,,,,,,,,,,,,,,,1,,,76,0
24824,note_on,,104,0,5,,,,,,,,,,,,,,,0,,,76,0
24824,note_on,,104,0,9,,,,,,,,,,,,,,,12,,,70,0
24824,note_on,,104,0,8,,,,,,,,,,,,,,,11,,,76,0
24824,note_on,,104,0,11,,,,,,,,,,,,,,,14,,,55,0
24824,note_on,,104,0,10,,,,,,,,,,,,,,,13,,,67,0
24839,note_on,,119,0,12,,,,,,,,,,,,,,,15,,,70,0
24839,note_on,,0,0,12,,,,,,,,,,,,,,,15,,,76,0
24839,note_on,,0,0,12,,,,,,,,,,,,,,,15,,,55,0
24839,note_on,,0,0,12,,,,,,,,,,,,,,,15,,,67,0
24840,note_on,,1,0,12,,,,,,,,,,,,,,,15,,,57,76
24840,note_on,,0,0,12,,,,,,,,,,,,,,,15,,,72,76
24840,note_on,,0,0,12,,,,,,,,,,,,,,,15,,,76,76
24840,note_on,,0,0,12,,,,,,,,,,,,,,,15,,,69,76
24840,note_on,,16,0,10,,,,,,,,,,,,,,,13,,,65,76
24840,note_on,,16,0,7,,,,,,,,,,,,,,,2,,,57,76
24840,note_on,,16,0,5,,,,,,,,,,,,,,,0,,,77,76
24840,note_on,,16,0,8,,,,,,,,,,,,,,,11,,,77,76
24840,note_on,,16,0,6,,,,,,,,,,,,,,,1,,,77,76
24840,note_on,,16,0,9,,,,,,,,,,,,,,,12,,,69,76
24840,note_on,,16,0,11,,,,,,,,,,,,,,,14,,,57,76
24944,note_on,,104,0,8,,,,,,,,,,,,,,,11,,,77,0
24944,note_on,,104,0,9,,,,,,,,,,,,,,,12,,,69,0
24944,note_on,,104,0,11,,,,,,,,,,,,,,,14,,,57,0
24944,note_on,,104,0,10,,,,,,,,,,,,,,,13,,,65,0
24944,note_on,,104,0,5,,,,,,,,,,,,,,,0,,,77,0
24944,note_on,,104,0,6,,,,,,,,,,,,,,,1,,,77,0
24944,note_on,,104,0,7,,,,,,,,,,,,,,,2,,,57,0
24959,note_on,,0,0,12,,,,,,,,,,,,,,,15,,,72,0
24959,note_on,,119,0,12,,,,,,,,,,,,,,,15,,,57,0
24959,note_on,,0,0,12,,,,,,,,,,,,,,,15,,,69,0
24959,note_on,,0,0,12,,,,,,,,,,,,,,,15,,,76,0
24960,note_on,,1,0,12,,,,,,,,,,,,,,,15,,,58,76
24960,note_on,,16,0,6,,,,,,,,,,,,,,,1,,,79,76
24960,note_on,,16,0,10,,,,,,,,,,,,,,,13,,,64,76
24960,note_on,,16,0,8,,,,,,,,,,,,,,,11,,,79,76
24960,note_on,,16,0,11,,,,,,,,,,,,,,,14,,,58,76
24960,note_on,,16,0,9,,,,,,,,,,,,,,,12,,,67,76
24960,note_on,,16,0,7,,,,,,,,,,,,,,,2,,,58,76
24960,note_on,,16,0,5,,,,,,,,,,,,,,,0,,,79,76
24960,note_on,,0,0,12,,,,,,,,,,,,,,,15,,,70,76
24960,note_on,,0,0,12,,,,,,,,,,,,,,,15,,,74,76
24960,note_on,,0,0,12,,,,,,,,,,,,,,,15,,,77,76
25184,note_on,,224,0,7,,,,,,,,,,,,,,,2,,,58,0
25184,note_on,,224,0,6,,,,,,,,,,,,,,,1,,,79,0
25184,note_on,,224,0,10,,,,,,,,,,,,,,,13,,,64,0
25184,note_on,,224,0,8,,,,,,,,,,,,,,,11,,,79,0
25184,note_on,,224,0,9,,,,,,,,,,,,,,,12,,,67,0
25184,note_on,,224,0,11,,,,,,,,,,,,,,,14,,,58,0
25184,note_on,,224,0,5,,,,,,,,,,,,,,,0,,,79,0
25199,note_on,,0,0,12,,,,,,,,,,,,,,,15,,,77,0
25199,note_on,,239,0,12,,,,,,,,,,,,,,,15,,,58,0
25199,note_on,,0,0,12,,,,,,,,,,,,,,,15,,,70,0
25199,note_on,,0,0,12,,,,,,,,,,,,,,,15,,,74,0
25200,note_on,,16,0,6,,,,,,,,,,,,,,,1,,,70,76
25200,note_on,,16,0,5,,,,,,,,,,,,,,,0,,,70,76
25200,note_on,,16,0,10,,,,,,,,,,,,,,,13,,,60,76
25200,note_on,,16,0,8,,,,,,,,,,,,,,,11,,,70,76
25200,note_on,,1,0,12,,,,,,,,,,,,,,,15,,,70,76
25200,note_on,,0,0,12,,,,,,,,,,,,,,,15,,,67,76
25200,note_on,,16,0,9,,,,,,,,,,,,,,,12,,,67,76
25200,note_on,,0,0,12,,,,,,,,,,,,,,,15,,,72,76
25200,note_on,,16,0,11,,,,,,,,,,,,,,,14,,,52,76
25200,note_on,,0,0,12,,,,,,,,,,,,,,,15,,,64,76
25200,note_on,,16,0,7,,,,,,,,,,,,,,,2,,,52,76
25200,note_on,,0,0,12,,,,,,,,,,,,,,,15,,,52,76
25424,note_on,,224,0,7,,,,,,,,,,,,,,,2,,,52,0
25424,note_on,,224,0,10,,,,,,,,,,,,,,,13,,,60,0
25424,note_on,,224,0,11,,,,,,,,,,,,,,,14,,,52,0
25424,note_on,,224,0,6,,,,,,,,,,,,,,,1,,,70,0
25424,note_on,,224,0,5,,,,,,,,,,,,,,,0,,,70,0
25424,note_on,,224,0,9,,,,,,,,,,,,,,,12,,,67,0
25424,note_on,,224,0,8,,,,,,,,,,,,,,,11,,,70,0
25439,note_on,,0,0,12,,,,,,,,,,,,,,,15,,,52,0
25439,note_on,,239,0,12,,,,,,,,,,,,,,,15,,,70,0
25439,note_on,,0,0,12,,,,,,,,,,,,,,,15,,,72,0
25439,note_on,,0,0,12,,,,,,,,,,,,,,,15,,,67,0
25439,note_on,,0,0,12,,,,,,,,,,,,,,,15,,,64,0
25440,note_on,,16,0,10,,,,,,,,,,,,,,,13,,,60,76
25440,note_on,,16,0,11,,,,,,,,,,,,,,,14,,,53,76
25440,note_on,,16,0,8,,,,,,,,,,,,,,,11,,,69,76
25440,note_on,,16,0,6,,,,,,,,,,,,,,,1,,,69,76
25440,note_on,,16,0,7,,,,,,,,,,,,,,,2,,,53,76
25440,note_on,,16,0,5,,,,,,,,,,,,,,,0,,,69,76
25440,note_on,,1,0,12,,,,,,,,,,,,,,,15,,,72,76
25440,note_on,,0,0,12,,,,,,,,,,,,,,,15,,,69,76
25440,note_on,,0,0,12,,,,,,,,,,,,,,,15,,,65,76
25440,note_on,,0,0,12,,,,,,,,,,,,,,,15,,,53,76
25440,note_on,,16,0,9,,,,,,,,,,,,,,,12,,,65,76
25664,note_on,,224,0,7,,,,,,,,,,,,,,,2,,,53,0
25664,note_on,,224,0,11,,,,,,,,,,,,,,,14,,,53,0
25664,note_on,,224,0,9,,,,,,,,,,,,,,,12,,,65,0
25664,note_on,,224,0,10,,,,,,,,,,,,,,,13,,,60,0
25664,note_on,,224,0,8,,,,,,,,,,,,,,,11,,,69,0
25664,note_on,,224,0,5,,,,,,,,,,,,,,,0,,,69,0
25664,note_on,,224,0,6,,,,,,,,,,,,,,,1,,,69,0
25679,note_on,,0,0,12,,,,,,,,,,,,,,,15,,,65,0
25679,note_on,,0,0,12,,,,,,,,,,,,,,,15,,,53,0
25679,note_on,,0,0,12,,,,,,,,,,,,,,,15,,,69,0
25679,note_on,,239,0,12,,,,,,,,,,,,,,,15,,,72,0
25680,note_on,,1,0,12,,,,,,,,,,,,,,,15,,,62,76
25680,note_on,,16,0,10,,,,,,,,,,,,,,,13,,,58,76
25680,note_on,,16,0,5,,,,,,,,,,,,,,,0,,,74,76
25680,note_on,,0,0,12,,,,,,,,,,,,,,,15,,,58,76
25680,note_on,,0,0,12,,,,,,,,,,,,,,,15,,,46,76
25680,note_on,,16,0,11,,,,,,,,,,,,,,,14,,,46,76
25680,note_on,,16,0,8,,,,,,,,,,,,,,,11,,,74,76
25680,note_on,,0,0,12,,,,,,,,,,,,,,,15,,,65,76
25680,note_on,,16,0,9,,,,,,,,,,,,,,,12,,,65,76
25680,note_on,,16,0,7,,,,,,,,,,,,,,,2,,,46,76
25680,note_on,,16,0,6,,,,,,,,,,,,,,,1,,,74,76
25784,note_on,,104,0,5,,,,,,,,,,,,,,,0,,,74,0
25784,note_on,,104,0,8,,,,,,,,,,,,,,,11,,,74,0
25784,note_on,,104,0,6,,,,,,,,,,,,,,,1,,,74,0
25784,note_on,,104,0,10,,,,,,,,,,,,,,,13,,,58,0
25800,note_on,,16,0,6,,,,,,,,,,,,,,,1,,,72,76
25800,note_on,,16,0,5,,,,,,,,,,,,,,,0,,,72,76
25800,note_on,,16,0,8,,,,,,,,,,,,,,,11,,,72,76
25800,note_on,,16,0,10,,,,,,,,,,,,,,,13,,,60,76
25904,note_on,,224,0,7,,,,,,,,,,,,,,,2,,,46,0
25904,note_on,,224,0,9,,,,,,,,,,,,,,,12,,,65,0
25904,note_on,,104,0,10,,,,,,,,,,,,,,,13,,,60,0
25904,note_on,,104,0,6,,,,,,,,,,,,,,,1,,,72,0
25904,note_on,,104,0,8,,,,,,,,,,,,,,,11,,,72,0
25904,note_on,,104,0,5,,,,,,,,,,,,,,,0,,,72,0
25904,note_on,,224,0,11,,,,,,,,,,,,,,,14,,,46,0
25919,note_on,,239,0,12,,,,,,,,,,,,,,,15,,,62,0
25919,note_on,,0,0,12,,,,,,,,,,,,,,,15,,,58,0
25919,note_on,,0,0,12,,,,,,,,,,,,,,,15,,,65,0
25919,note_on,,0,0,12,,,,,,,,,,,,,,,15,,,46,0
25920,note_on,,0,0,12,,,,,,,,,,,,,,,15,,,43,76
25920,note_on,,0,0,12,,,,,,,,,,,,,,,15,,,58,76
25920,note_on,,0,0,12,,,,,,,,,,,,,,,15,,,65,76
25920,note_on,,0,0,12,,,,,,,,,,,,,,,15,,,62,76
25920,note_on,,1,0,12,,,,,,,,,,,,,,,15,,,55,76
25920,note_on,,16,0,7,,,,,,,,,,,,,,,2,,,43,76
25920,note_on,,16,0,9,,,,,,,,,,,,,,,12,,,65,76
25920,note_on,,16,0,5,,,,,,,,,,,,,,,0,,,70,76
25920,note_on,,16,0,10,,,,,,,,,,,,,,,13,,,62,76
25920,note_on,,16,0,6,,,,,,,,,,,,,,,1,,,70,76
25920,note_on,,16,0,11,,,,,,,,,,,,,,,14,,,43,76
25920,note_on,,16,0,8,,,,,,,,,,,,,,,11,,,70,76
26024,note_on,,104,0,6,,,,,,,,,,,,,,,1,,,70,0
26024,note_on,,104,0,5,,,,,,,,,,,,,,,0,,,70,0
26024,note_on,,104,0,8,,,,,,,,,,,,,,,11,,,70,0
26040,note_on,,16,0,6,,,,,,,,,,,,,,,1,,,69,76
26040,note_on,,16,0,5,,,,,,,,,,,,,,,0,,,69,76
26040,note_on,,16,0,8,,,,,,,,,,,,,,,11,,,69,76
26144,note_on,,224,0,11,,,,,,,,,,,,,,,14,,,43,0
26144,note_on,,224,0,9,,,,,,,,,,,,,,,12,,,65,0
26144,note_on,,224,0,10,,,,,,,,,,,,,,,13,,,62,0
26144,note_on,,104,0,5,,,,,,,,,,,,,,,0,,,69,0
26144,note_on,,104,0,8,,,,,,,,,,,,,,,11,,,69,0
26144,note_on,,224,0,7,,,,,,,,,,,,,,,2,,,43,0
26144,note_on,,104,0,6,,,,,,,,,,,,,,,1,,,69,0
26159,note_on,,0,0,12,,,,,,,,,,,,,,,15,,,58,0
26159,note_on,,0,0,12,,,,,,,,,,,,,,,15,,,43,0
26159,note_on,,0,0,12,,,,,,,,,,,,,,,15,,,65,0
26159,note_on,,0,0,12,,,,,,,,,,,,,,,15,,,62,0
26159,note_on,,239,0,12,,,,,,,,,,,,,,,15,,,55,0
26160,note_on,,0,0,12,,,,,,,,,,,,,,,15,,,64,76
26160,note_on,,0,0,12,,,,,,,,,,,,,,,15,,,67,76
26160,note_on,,16,0,5,,,,,,,,,,,,,,,0,,,70,76
26160,note_on,,1,0,12,,,,,,,,,,,,,,,15,,,60,76
26160,note_on,,16,0,6,,,,,,,,,,,,,,,1,,,70,76
26160,note_on,,16,0,7,,,,,,,,,,,,,,,2,,,48,76
26160,note_on,,0,0,12,,,,,,,,,,,,,,,15,,,70,76
26160,note_on,,0,0,12,,,,,,,,,,,,,,,15,,,48,76
26160,note_on,,16,0,11,,,,,,,,,,,,,,,14,,,48,76
26160,note_on,,16,0,8,,,,,,,,,,,,,,,11,,,70,76
26160,note_on,,16,0,10,,,,,,,,,,,,,,,13,,,60,76
26160,note_on,,16,0,9,,,,,,,,,,,,,,,12,,,64,76
26264,note_on,,104,0,6,,,,,,,,,,,,,,,1,,,70,0
26264,note_on,,104,0,8,,,,,,,,,,,,,,,11,,,70,0
26264,note_on,,104,0,5,,,,,,,,,,,,,,,0,,,70,0
26280,note_on,,16,0,6,,,,,,,,,,,,,,,1,,,67,76
26280,note_on,,16,0,5,,,,,,,,,,,,,,,0,,,67,76
26280,note_on,,16,0,8,,,,,,,,,,,,,,,11,,,67,76
26384,note_on,,104,0,5,,,,,,,,,,,,,,,0,,,67,0
26384,note_on,,104,0,6,,,,,,,,,,,,,,,1,,,67,0
26384,note_on,,224,0,10,,,,,,,,,,,,,,,13,,,60,0
26384,note_on,,104,0,8,,,,,,,,,,,,,,,11,,,67,0
26384,note_on,,224,0,7,,,,,,,,,,,,,,,2,,,48,0
26384,note_on,,224,0,11,,,,,,,,,,,,,,,14,,,48,0
26384,note_on,,224,0,9,,,,,,,,,,,,,,,12,,,64,0
26399,note_on,,239,0,12,,,,,,,,,,,,,,,15,,,60,0
26399,note_on,,0,0,12,,,,,,,,,,,,,,,15,,,64,0
26399,note_on,,0,0,12,,,,,,,,,,,,,,,15,,,70,0
26399,note_on,,0,0,12,,,,,,,,,,,,,,,15,,,48,0
26399,note_on,,0,0,12,,,,,,,,,,,,,,,15,,,67,0
26400,note_on,,16,0,6,,,,,,,,,,,,,,,1,,,69,76
26400,note_on,,1,0,12,,,,,,,,,,,,,,,15,,,57,76
26400,note_on,,0,0,12,,,,,,,,,,,,,,,15,,,41,76
26400,note_on,,16,0,8,,,,,,,,,,,,,,,11,,,69,76
26400,note_on,,16,0,5,,,,,,,,,,,,,,,0,,,69,76
26400,note_on,,0,0,12,,,,,,,,,,,,,,,15,,,60,76
26400,note_on,,16,0,10,,,,,,,,,,,,,,,13,,,60,76
26400,note_on,,16,0,7,,,,,,,,,,,,,,,2,,,41,76
26400,note_on,,16,0,9,,,,,,,,,,,,,,,12,,,65,76
26400,note_on,,16,0,11,,,,,,,,,,,,,,,14,,,41,76
26400,note_on,,0,0,12,,,,,,,,,,,,,,,15,,,53,76
26504,note_on,,104,0,5,,,,,,,,,,,,,,,0,,,69,0
26504,note_on,,104,0,6,,,,,,,,,,,,,,,1,,,69,0
26504,note_on,,104,0,10,,,,,,,,,,,,,,,13,,,60,0
26504,note_on,,104,0,8,,,,,,,,,,,,,,,11,,,69,0
26520,note_on,,16,0,6,,,,,,,,,,,,,,,1,,,70,76
26520,note_on,,16,0,10,,,,,,,,,,,,,,,13,,,62,76
26520,note_on,,16,0,8,,,,,,,,,,,,,,,11,,,70,76
26520,note_on,,16,0,5,,,,,,,,,,,,,,,0,,,70,76
26624,note_on,,104,0,8,,,,,,,,,,,,,,,11,,,70,0
26624,note_on,,104,0,5,,,,,,,,,,,,,,,0,,,70,0
26624,note_on,,104,0,10,,,,,,,,,,,,,,,13,,,62,0
26624,note_on,,224,0,9,,,,,,,,,,,,,,,12,,,65,0
26624,note_on,,224,0,11,,,,,,,,,,,,,,,14,,,41,0
26624,note_on,,104,0,6,,,,,,,,,,,,,,,1,,,70,0
26624,note_on,,224,0,7,,,,,,,,,,,,,,,2,,,41,0
26639,note_on,,0,0,12,,,,,,,,,,,,,,,15,,,41,0
26639,note_on,,0,0,12,,,,,,,,,,,,,,,15,,,60,0
26639,note_on,,239,0,12,,,,,,,,,,,,,,,15,,,57,0
26639,note_on,,0,0,12,,,,,,,,,,,,,,,15,,,53,0
26640,note_on,,16,0,6,,,,,,,,,,,,,,,1,,,69,76
26640,note_on,,16,0,9,,,,,,,,,,,,,,,12,,,60,76
26640,note_on,,16,0,5,,,,,,,,,,,,,,,0,,,69,76
26640,note_on,,16,0,8,,,,,,,,,,,,,,,11,,,69,76
26640,note_on,,0,0,12,,,,,,,,,,,,,,,15,,,65,76
26640,note_on,,1,0,12,,,,,,,,,,,,,,,15,,,72,76
26640,note_on,,0,0,12,,,,,,,,,,,,,,,15,,,53,76
26640,note_on,,0,0,12,,,,,,,,,,,,,,,15,,,69,76
26640,note_on,,16,0,11,,,,,,,,,,,,,,,14,,,53,76
26640,note_on,,16,0,7,,,,,,,,,,,,,,,2,,,53,76
26640,note_on,,16,0,10,,,,,,,,,,,,,,,13,,,60,76
26744,note_on,,104,0,8,,,,,,,,,,,,,,,11,,,69,0
26744,note_on,,104,0,11,,,,,,,,,,,,,,,14,,,53,0
26744,note_on,,104,0,7,,,,,,,,,,,,,,,2,,,53,0
26744,note_on,,104,0,6,,,,,,,,,,,,,,,1,,,69,0
26744,note_on,,104,0,5,,,,,,,,,,,,,,,0,,,69,0
26744,note_on,,104,0,10,,,,,,,,,,,,,,,13,,,60,0
26759,note_on,,119,0,12,,,,,,,,,,,,,,,15,,,72,0
26759,note_on,,0,0,12,,,,,,,,,,,,,,,15,,,69,0
26759,note_on,,0,0,12,,,,,,,,,,,,,,,15,,,65,0
26759,note_on,,0,0,12,,,,,,,,,,,,,,,15,,,53,0
26760,note_on,,16,0,10,,,,,,,,,,,,,,,13,,,58,76
26760,note_on,,0,0,12,,,,,,,,,,,,,,,15,,,55,76
26760,note_on,,1,0,12,,,,,,,,,,,,,,,15,,,71,76
26760,note_on,,0,0,12,,,,,,,,,,,,,,,15,,,67,76
26760,note_on,,0,0,12,,,,,,,,,,,,,,,15,,,74,76
26760,note_on,,16,0,7,,,,,,,,,,,,,,,2,,,55,76
26760,note_on,,16,0,6,,,,,,,,,,,,,,,1,,,67,76
26760,note_on,,16,0,5,,,,,,,,,,,,,,,0,,,67,76
26760,note_on,,16,0,8,,,,,,,,,,,,,,,11,,,67,76
26760,note_on,,16,0,11,,,,,,,,,,,,,,,14,,,55,76
26864,note_on,,104,0,7,,,,,,,,,,,,,,,2,,,55,0
26864,note_on,,224,0,9,,,,,,,,,,,,,,,12,,,60,0
26864,note_on,,104,0,8,,,,,,,,,,,,,,,11,,,67,0
26864,note_on,,104,0,6,,,,,,,,,,,,,,,1,,,67,0
26864,note_on,,104,0,5,,,,,,,,,,,,,,,0,,,67,0
26864,note_on,,104,0,11,,,,,,,,,,,,,,,14,,,55,0
26864,note_on,,104,0,10,,,,,,,,,,,,,,,13,,,58,0
26879,note_on,,0,0,12,,,,,,,,,,,,,,,15,,,55,0
26879,note_on,,0,0,12,,,,,,,,,,,,,,,15,,,74,0
26879,note_on,,0,0,12,,,,,,,,,,,,,,,15,,,67,0
26879,note_on,,119,0,12,,,,,,,,,,,,,,,15,,,71,0
26880,note_on,,0,0,12,,,,,,,,,,,,,,,15,,,72,76
26880,note_on,,1,0,12,,,,,,,,,,,,,,,15,,,57,76
26880,note_on,,0,0,12,,,,,,,,,,,,,,,15,,,69,76
26880,note_on,,16,0,10,,,,,,,,,,,,,,,13,,,57,76
26880,note_on,,16,0,8,,,,,,,,,,,,,,,11,,,65,76
26880,note_on,,16,0,5,,,,,,,,,,,,,,,0,,,65,76
26880,note_on,,16,0,9,,,,,,,,,,,,,,,12,,,60,76
26880,note_on,,16,0,7,,,,,,,,,,,,,,,2,,,57,76
26880,note_on,,16,0,11,,,,,,,,,,,,,,,14,,,57,76
26880,note_on,,0,0,12,,,,,,,,,,,,,,,15,,,77,76
26880,note_on,,16,0,6,,,,,,,,,,,,,,,1,,,65,76
26984,note_on,,104,0,7,,,,,,,,,,,,,,,2,,,57,0
26984,note_on,,104,0,11,,,,,,,,,,,,,,,14,,,57,0
26999,note_on,,119,0,12,,,,,,,,,,,,,,,15,,,57,0
26999,note_on,,0,0,12,,,,,,,,,,,,,,,15,,,77,0
26999,note_on,,0,0,12,,,,,,,,,,,,,,,15,,,69,0
26999,note_on,,0,0,12,,,,,,,,,,,,,,,15,,,72,0
27000,note_on,,0,0,12,,,,,,,,,,,,,,,15,,,58,76
27000,note_on,,0,0,12,,,,,,,,,,,,,,,15,,,74,76
27000,note_on,,1,0,12,,,,,,,,,,,,,,,15,,,70,76
27000,note_on,,0,0,12,,,,,,,,,,,,,,,15,,,77,76
27000,note_on,,16,0,11,,,,,,,,,,,,,,,14,,,58,76
27000,note_on,,16,0,7,,,,,,,,,,,,,,,2,,,58,76
27104,note_on,,224,0,5,,,,,,,,,,,,,,,0,,,65,0
27104,note_on,,224,0,8,,,,,,,,,,,,,,,11,,,65,0
27104,note_on,,224,0,9,,,,,,,,,,,,,,,12,,,60,0
27104,note_on,,224,0,6,,,,,,,,,,,,,,,1,,,65,0
27104,note_on,,104,0,11,,,,,,,,,,,,,,,14,,,58,0
27104,note_on,,104,0,7,,,,,,,,,,,,,,,2,,,58,0
27119,note_on,,239,0,10,,,,,,,,,,,,,,,13,,,57,0
27119,note_on,,119,0,12,,,,,,,,,,,,,,,15,,,70,0
27119,note_on,,0,0,12,,,,,,,,,,,,,,,15,,,58,0
27119,note_on,,0,0,12,,,,,,,,,,,,,,,15,,,77,0
27119,note_on,,0,0,12,,,,,,,,,,,,,,,15,,,74,0
27120,note_on,,16,0,9,,,,,,,,,,,,,,,12,,,62,76
27120,note_on,,16,0,5,,,,,,,,,,,,,,,0,,,77,76
27120,note_on,,0,0,12,,,,,,,,,,,,,,,15,,,77,76
27120,note_on,,1,0,12,,,,,,,,,,,,,,,15,,,72,76
27120,note_on,,0,0,12,,,,,,,,,,,,,,,15,,,69,76
27120,note_on,,0,0,12,,,,,,,,,,,,,,,15,,,57,76
27120,note_on,,16,0,7,,,,,,,,,,,,,,,2,,,57,76
27120,note_on,,16,0,11,,,,,,,,,,,,,,,14,,,57,76
27120,note_on,,16,0,8,,,,,,,,,,,,,,,11,,,77,76
27120,note_on,,16,0,6,,,,,,,,,,,,,,,1,,,77,76
27224,note_on,,104,0,8,,,,,,,,,,,,,,,11,,,77,0
27224,note_on,,104,0,9,,,,,,,,,,,,,,,12,,,62,0
27224,note_on,,104,0,7,,,,,,,,,,,,,,,2,,,57,0
27224,note_on,,104,0,11,,,,,,,,,,,,,,,14,,,57,0
27224,note_on,,104,0,6,,,,,,,,,,,,,,,1,,,77,0
27224,note_on,,104,0,5,,,,,,,,,,,,,,,0,,,77,0
27239,note_on,,0,0,12,,,,,,,,,,,,,,,15,,,69,0
27239,note_on,,119,0,12,,,,,,,,,,,,,,,15,,,72,0
27239,note_on,,0,0,12,,,,,,,,,,,,,,,15,,,57,0
27239,note_on,,0,0,12,,,,,,,,,,,,,,,15,,,77,0
27240,note_on,,16,0,9,,,,,,,,,,,,,,,12,,,64,76
27240,note_on,,1,0,12,,,,,,,,,,,,,,,15,,,74,76
27240,note_on,,0,0,12,,,,,,,,,,,,,,,15,,,67,76
27240,note_on,,16,0,8,,,,,,,,,,,,,,,11,,,79,76
27240,note_on,,16,0,11,,,,,,,,,,,,,,,14,,,55,76
27240,note_on,,16,0,7,,,,,,,,,,,,,,,2,,,55,76
27240,note_on,,16,0,5,,,,,,,,,,,,,,,0,,,79,76
27240,note_on,,16,0,6,,,,,,,,,,,,,,,1,,,79,76
27240,note_on,,0,0,12,,,,,,,,,,,,,,,15,,,55,76
27240,note_on,,0,0,12,,,,,,,,,,,,,,,15,,,70,76
27344,note_on,,104,0,11,,,,,,,,,,,,,,,14,,,55,0
27344,note_on,,104,0,6,,,,,,,,,,,,,,,1,,,79,0
27344,note_on,,104,0,7,,,,,,,,,,,,,,,2,,,55,0
27344,note_on,,104,0,5,,,,,,,,,,,,,,,0,,,79,0
27344,note_on,,104,0,8,,,,,,,,,,,,,,,11,,,79,0
27344,note_on,,104,0,9,,,,,,,,,,,,,,,12,,,64,0
27359,note_on,,0,0,12,,,,,,,,,,,,,,,15,,,55,0
27359,note_on,,0,0,12,,,,,,,,,,,,,,,15,,,67,0
27359,note_on,,0,0,12,,,,,,,,,,,,,,,15,,,70,0
27359,note_on,,119,0,12,,,,,,,,,,,,,,,15,,,74,0
27360,note_on,,16,0,6,,,,,,,,,,,,,,,1,,,81,76
27360,note_on,,0,0,12,,,,,,,,,,,,,,,15,,,53,76
27360,note_on,,16,0,7,,,,,,,,,,,,,,,2,,,53,76
27360,note_on,,16,0,11,,,,,,,,,,,,,,,14,,,53,76
27360,note_on,,0,0,12,,,,,,,,,,,,,,,15,,,69,76
27360,note_on,,0,0,12,,,,,,,,,,,,,,,15,,,65,76
27360,note_on,,16,0,9,,,,,,,,,,,,,,,12,,,65,76
27360,note_on,,1,0,12,,,,,,,,,,,,,,,15,,,72,76
27360,note_on,,16,0,8,,,,,,,,,,,,,,,11,,,81,76
27360,note_on,,16,0,5,,,,,,,,,,,,,,,0,,,81,76
27464,note_on,,104,0,7,,,,,,,,,,,,,,,2,,,53,0
27464,note_on,,104,0,11,,,,,,,,,,,,,,,14,,,53,0
27479,note_on,,119,0,12,,,,,,,,,,,,,,,15,,,72,0
27479,note_on,,0,0,12,,,,,,,,,,,,,,,15,,,53,0
27479,note_on,,0,0,12,,,,,,,,,,,,,,,15,,,65,0
27479,note_on,,0,0,12,,,,,,,,,,,,,,,15,,,69,0
27480,note_on,,1,0,12,,,,,,,,,,,,,,,15,,,55,76
27480,note_on,,16,0,11,,,,,,,,,,,,,,,14,,,55,76
27480,note_on,,0,0,12,,,,,,,,,,,,,,,15,,,74,76
27480,note_on,,0,0,12,,,,,,,,,,,,,,,15,,,67,76
27480,note_on,,0,0,12,,,,,,,,,,,,,,,15,,,71,76
27480,note_on,,16,0,7,,,,,,,,,,,,,,,2,,,55,76
27584,note_on,,224,0,6,,,,,,,,,,,,,,,1,,,81,0
27584,note_on,,104,0,11,,,,,,,,,,,,,,,14,,,55,0
27584,note_on,,104,0,7,,,,,,,,,,,,,,,2,,,55,0
27584,note_on,,224,0,9,,,,,,,,,,,,,,,12,,,65,0
27584,note_on,,224,0,8,,,,,,,,,,,,,,,11,,,81,0
27584,note_on,,224,0,5,,,,,,,,,,,,,,,0,,,81,0
27599,note_on,,0,0,12,,,,,,,,,,,,,,,15,,,71,0
27599,note_on,,0,0,12,,,,,,,,,,,,,,,15,,,67,0
27599,note_on,,119,0,12,,,,,,,,,,,,,,,15,,,55,0
27599,note_on,,0,0,12,,,,,,,,,,,,,,,15,,,74,0
27600,note_on,,0,0,12,,,,,,,,,,,,,,,15,,,72,76
27600,note_on,,16,0,11,,,,,,,,,,,,,,,14,,,53,76
27600,note_on,,16,0,8,,,,,,,,,,,,,,,11,,,74,76
27600,note_on,,1,0,12,,,,,,,,,,,,,,,15,,,69,76
27600,note_on,,16,0,6,,,,,,,,,,,,,,,1,,,74,76
27600,note_on,,16,0,5,,,,,,,,,,,,,,,0,,,74,76
27600,note_on,,0,0,12,,,,,,,,,,,,,,,15,,,53,76
27600,note_on,,16,0,9,,,,,,,,,,,,,,,12,,,65,76
27600,note_on,,0,0,12,,,,,,,,,,,,,,,15,,,65,76
27600,note_on,,16,0,7,,,,,,,,,,,,,,,2,,,53,76
27704,note_on,,104,0,5,,,,,,,,,,,,,,,0,,,74,0
27704,note_on,,104,0,8,,,,,,,,,,,,,,,11,,,74,0
27704,note_on,,104,0,9,,,,,,,,,,,,,,,12,,,65,0
27704,note_on,,104,0,7,,,,,,,,,,,,,,,2,,,53,0
27704,note_on,,104,0,6,,,,,,,,,,,,,,,1,,,74,0
27704,note_on,,104,0,11,,,,,,,,,,,,,,,14,,,53,0
27719,note_on,,0,0,12,,,,,,,,,,,,,,,15,,,53,0
27719,note_on,,119,0,12,,,,,,,,,,,,,,,15,,,69,0
27719,note_on,,0,0,12,,,,,,,,,,,,,,,15,,,65,0
27719,note_on,,0,0,12,,,,,,,,,,,,,,,15,,,72,0
27720,note_on,,0,0,12,,,,,,,,,,,,,,,15,,,67,76
27720,note_on,,0,0,12,,,,,,,,,,,,,,,15,,,71,76
27720,note_on,,16,0,5,,,,,,,,,,,,,,,0,,,76,76
27720,note_on,,16,0,9,,,,,,,,,,,,,,,12,,,67,76
27720,note_on,,16,0,6,,,,,,,,,,,,,,,1,,,76,76
27720,note_on,,16,0,7,,,,,,,,,,,,,,,2,,,52,76
27720,note_on,,16,0,11,,,,,,,,,,,,,,,14,,,52,76
27720,note_on,,1,0,12,,,,,,,,,,,,,,,15,,,52,76
27720,note_on,,0,0,12,,,,,,,,,,,,,,,15,,,64,76
27720,note_on,,16,0,8,,,,,,,,,,,,,,,11,,,76,76
27824,note_on,,104,0,6,,,,,,,,,,,,,,,1,,,76,0
27824,note_on,,104,0,7,,,,,,,,,,,,,,,2,,,52,0
27824,note_on,,104,0,8,,,,,,,,,,,,,,,11,,,76,0
27824,note_on,,104,0,11,,,,,,,,,,,,,,,14,,,52,0
27824,note_on,,104,0,9,,,,,,,,,,,,,,,12,,,67,0
27824,note_on,,104,0,5,,,,,,,,,,,,,,,0,,,76,0
27839,note_on,,0,0,12,,,,,,,,,,,,,,,15,,,67,0
27839,note_on,,0,0,12,,,,,,,,,,,,,,,15,,,64,0
27839,note_on,,119,0,12,,,,,,,,,,,,,,,15,,,52,0
27839,note_on,,0,0,12,,,,,,,,,,,,,,,15,,,71,0
27840,note_on,,16,0,6,,,,,,,,,,,,,,,1,,,77,76
27840,note_on,,16,0,9,,,,,,,,,,,,,,,12,,,69,76
27840,note_on,,16,0,7,,,,,,,,,,,,,,,2,,,50,76
27840,note_on,,16,0,11,,,,,,,,,,,,,,,14,,,50,76
27840,note_on,,0,0,12,,,,,,,,,,,,,,,15,,,65,76
27840,note_on,,1,0,12,,,,,,,,,,,,,,,15,,,62,76
27840,note_on,,0,0,12,,,,,,,,,,,,,,,15,,,50,76
27840,note_on,,16,0,5,,,,,,,,,,,,,,,0,,,77,76
27840,note_on,,16,0,8,,,,,,,,,,,,,,,11,,,77,76
27944,note_on,,104,0,11,,,,,,,,,,,,,,,14,,,50,0
27944,note_on,,104,0,9,,,,,,,,,,,,,,,12,,,69,0
27944,note_on,,104,0,7,,,,,,,,,,,,,,,2,,,50,0
27959,note_on,,119,0,12,,,,,,,,,,,,,,,15,,,62,0
27959,note_on,,0,0,12,,,,,,,,,,,,,,,15,,,50,0
27959,note_on,,0,0,12,,,,,,,,,,,,,,,15,,,65,0
27960,note_on,,0,0,12,,,,,,,,,,,,,,,15,,,71,76
27960,note_on,,0,0,12,,,,,,,,,,,,,,,15,,,67,76
27960,note_on,,1,0,12,,,,,,,,,,,,,,,15,,,64,76
27960,note_on,,16,0,9,,,,,,,,,,,,,,,12,,,67,76
27960,note_on,,16,0,11,,,,,,,,,,,,,,,14,,,52,76
27960,note_on,,16,0,7,,,,,,,,,,,,,,,2,,,52,76
27960,note_on,,0,0,12,,,,,,,,,,,,,,,15,,,52,76
28064,note_on,,224,0,6,,,,,,,,,,,,,,,1,,,77,0
28064,note_on,,104,0,9,,,,,,,,,,,,,,,12,,,67,0
28064,note_on,,104,0,11,,,,,,,,,,,,,,,14,,,52,0
28064,note_on,,224,0,8,,,,,,,,,,,,,,,11,,,77,0
28064,note_on,,224,0,5,,,,,,,,,,,,,,,0,,,77,0
28064,note_on,,104,0,7,,,,,,,,,,,,,,,2,,,52,0
28079,note_on,,0,0,12,,,,,,,,,,,,,,,15,,,67,0
28079,note_on,,119,0,12,,,,,,,,,,,,,,,15,,,64,0
28079,note_on,,0,0,12,,,,,,,,,,,,,,,15,,,52,0
28079,note_on,,0,0,12,,,,,,,,,,,,,,,15,,,71,0
28080,note_on,,0,0,12,,,,,,,,,,,,,,,15,,,65,76
28080,note_on,,0,0,12,,,,,,,,,,,,,,,15,,,50,76
28080,note_on,,1,0,12,,,,,,,,,,,,,,,15,,,62,76
28080,note_on,,16,0,6,,,,,,,,,,,,,,,1,,,71,76
28080,note_on,,16,0,8,,,,,,,,,,,,,,,11,,,71,76
28080,note_on,,16,0,7,,,,,,,,,,,,,,,2,,,50,76
28080,note_on,,16,0,11,,,,,,,,,,,,,,,14,,,50,76
28080,note_on,,16,0,5,,,,,,,,,,,,,,,0,,,71,76
28080,note_on,,961,0,10,,,,,,,,,,,,,,,13,,,55,76
28080,note_on,,16,0,9,,,,,,,,,,,,,,,12,,,65,76
28184,note_on,,104,0,5,,,,,,,,,,,,,,,0,,,71,0
28184,note_on,,104,0,8,,,,,,,,,,,,,,,11,,,71,0
28184,note_on,,104,0,11,,,,,,,,,,,,,,,14,,,50,0
28184,note_on,,104,0,7,,,,,,,,,,,,,,,2,,,50,0
28184,note_on,,104,0,10,,,,,,,,,,,,,,,13,,,55,0
28184,note_on,,104,0,9,,,,,,,,,,,,,,,12,,,65,0
28184,note_on,,104,0,6,,,,,,,,,,,,,,,1,,,71,0
28199,note_on,,0,0,12,,,,,,,,,,,,,,,15,,,50,0
28199,note_on,,0,0,12,,,,,,,,,,,,,,,15,,,65,0
28199,note_on,,119,0,12,,,,,,,,,,,,,,,15,,,62,0
28200,note_on,,1,0,12,,,,,,,,,,,,,,,15,,,48,76
28200,note_on,,16,0,5,,,,,,,,,,,,,,,0,,,72,76
28200,note_on,,0,0,12,,,,,,,,,,,,,,,15,,,60,76
28200,note_on,,16,0,7,,,,,,,,,,,,,,,2,,,48,76
28200,note_on,,0,0,12,,,,,,,,,,,,,,,15,,,64,76
28200,note_on,,16,0,6,,,,,,,,,,,,,,,1,,,72,76
28200,note_on,,0,0,12,,,,,,,,,,,,,,,15,,,67,76
28200,note_on,,16,0,10,,,,,,,,,,,,,,,13,,,57,76
28200,note_on,,16,0,8,,,,,,,,,,,,,,,11,,,72,76
28200,note_on,,16,0,11,,,,,,,,,,,,,,,14,,,48,76
28200,note_on,,16,0,9,,,,,,,,,,,,,,,12,,,64,76
28304,note_on,,104,0,8,,,,,,,,,,,,,,,11,,,72,0
28304,note_on,,104,0,10,,,,,,,,,,,,,,,13,,,57,0
28304,note_on,,104,0,11,,,,,,,,,,,,,,,14,,,48,0
28304,note_on,,104,0,7,,,,,,,,,,,,,,,2,,,48,0
28304,note_on,,104,0,9,,,,,,,,,,,,,,,12,,,64,0
28304,note_on,,104,0,5,,,,,,,,,,,,,,,0,,,72,0
28304,note_on,,104,0,6,,,,,,,,,,,,,,,1,,,72,0
28319,note_on,,0,0,12,,,,,,,,,,,,,,,15,,,64,0
28319,note_on,,0,0,12,,,,,,,,,,,,,,,15,,,60,0
28319,note_on,,0,0,12,,,,,,,,,,,,,,,15,,,67,0
28319,note_on,,119,0,12,,,,,,,,,,,,,,,15,,,48,0
28320,note_on,,0,0,12,,,,,,,,,,,,,,,15,,,62,76
28320,note_on,,0,0,12,,,,,,,,,,,,,,,15,,,47,76
28320,note_on,,16,0,5,,,,,,,,,,,,,,,0,,,74,76
28320,note_on,,1,0,12,,,,,,,,,,,,,,,15,,,59,76
28320,note_on,,0,0,12,,,,,,,,,,,,,,,15,,,65,76
28320,note_on,,16,0,7,,,,,,,,,,,,,,,2,,,47,76
28320,note_on,,16,0,6,,,,,,,,,,,,,,,1,,,74,76
28320,note_on,,16,0,9,,,,,,,,,,,,,,,12,,,62,76
28320,note_on,,16,0,8,,,,,,,,,,,,,,,11,,,74,76
28320,note_on,,16,0,10,,,,,,,,,,,,,,,13,,,59,76
28320,note_on,,16,0,11,,,,,,,,,,,,,,,14,,,47,76
28424,note_on,,104,0,11,,,,,,,,,,,,,,,14,,,47,0
28424,note_on,,104,0,9,,,,,,,,,,,,,,,12,,,62,0
28424,note_on,,104,0,7,,,,,,,,,,,,,,,2,,,47,0
28439,note_on,,119,0,12,,,,,,,,,,,,,,,15,,,59,0
28439,note_on,,0,0,12,,,,,,,,,,,,,,,15,,,65,0
28439,note_on,,0,0,12,,,,,,,,,,,,,,,15,,,62,0
28439,note_on,,0,0,12,,,,,,,,,,,,,,,15,,,47,0
28440,note_on,,16,0,11,,,,,,,,,,,,,,,14,,,48,76
28440,note_on,,1,0,12,,,,,,,,,,,,,,,15,,,48,76
28440,note_on,,0,0,12,,,,,,,,,,,,,,,15,,,60,76
28440,note_on,,0,0,12,,,,,,,,,,,,,,,15,,,64,76
28440,note_on,,16,0,7,,,,,,,,,,,,,,,2,,,48,76
28440,note_on,,16,0,9,,,,,,,,,,,,,,,12,,,64,76
28440,note_on,,0,0,12,,,,,,,,,,,,,,,15,,,67,76
28544,note_on,,104,0,11,,,,,,,,,,,,,,,14,,,48,0
28544,note_on,,224,0,5,,,,,,,,,,,,,,,0,,,74,0
28544,note_on,,104,0,9,,,,,,,,,,,,,,,12,,,64,0
28544,note_on,,224,0,6,,,,,,,,,,,,,,,1,,,74,0
28544,note_on,,224,0,8,,,,,,,,,,,,,,,11,,,74,0
28544,note_on,,224,0,10,,,,,,,,,,,,,,,13,,,59,0
28544,note_on,,104,0,7,,,,,,,,,,,,,,,2,,,48,0
28559,note_on,,119,0,12,,,,,,,,,,,,,,,15,,,48,0
28559,note_on,,0,0,12,,,,,,,,,,,,,,,15,,,60,0
28559,note_on,,0,0,12,,,,,,,,,,,,,,,15,,,64,0
28559,note_on,,0,0,12,,,,,,,,,,,,,,,15,,,67,0
28560,note_on,,16,0,9,,,,,,,,,,,,,,,12,,,62,76
28560,note_on,,0,0,12,,,,,,,,,,,,,,,15,,,59,76
28560,note_on,,0,0,12,,,,,,,,,,,,,,,15,,,65,76
28560,note_on,,0,0,12,,,,,,,,,,,,,,,15,,,62,76
28560,note_on,,1,0,12,,,,,,,,,,,,,,,15,,,47,76
28560,note_on,,16,0,5,,,,,,,,,,,,,,,0,,,67,76
28560,note_on,,16,0,8,,,,,,,,,,,,,,,11,,,67,76
28560,note_on,,16,0,11,,,,,,,,,,,,,,,14,,,47,76
28560,note_on,,16,0,7,,,,,,,,,,,,,,,2,,,47,76
28560,note_on,,16,0,10,,,,,,,,,,,,,,,13,,,59,76
28560,note_on,,16,0,6,,,,,,,,,,,,,,,1,,,67,76
28664,note_on,,104,0,11,,,,,,,,,,,,,,,14,,,47,0
28664,note_on,,104,0,10,,,,,,,,,,,,,,,13,,,59,0
28664,note_on,,104,0,7,,,,,,,,,,,,,,,2,,,47,0
28664,note_on,,104,0,9,,,,,,,,,,,,,,,12,,,62,0
28679,note_on,,0,0,12,,,,,,,,,,,,,,,15,,,59,0
28679,note_on,,0,0,12,,,,,,,,,,,,,,,15,,,65,0
28679,note_on,,0,0,12,,,,,,,,,,,,,,,15,,,62,0
28679,note_on,,119,0,12,,,,,,,,,,,,,,,15,,,47,0
28680,note_on,,0,0,12,,,,,,,,,,,,,,,15,,,64,76
28680,note_on,,16,0,9,,,,,,,,,,,,,,,12,,,60,76
28680,note_on,,0,0,12,,,,,,,,,,,,,,,15,,,57,76
28680,note_on,,16,0,11,,,,,,,,,,,,,,,14,,,45,76
28680,note_on,,0,0,12,,,,,,,,,,,,,,,15,,,60,76
28680,note_on,,16,0,10,,,,,,,,,,,,,,,13,,,60,76
28680,note_on,,16,0,7,,,,,,,,,,,,,,,2,,,45,76
28680,note_on,,1,0,12,,,,,,,,,,,,,,,15,,,45,76
28784,note_on,,104,0,9,,,,,,,,,,,,,,,12,,,60,0
28784,note_on,,104,0,7,,,,,,,,,,,,,,,2,,,45,0
28784,note_on,,104,0,10,,,,,,,,,,,,,,,13,,,60,0
28784,note_on,,224,0,5,,,,,,,,,,,,,,,0,,,67,0
28784,note_on,,104,0,11,,,,,,,,,,,,,,,14,,,45,0
28784,note_on,,224,0,8,,,,,,,,,,,,,,,11,,,67,0
28784,note_on,,224,0,6,,,,,,,,,,,,,,,1,,,67,0
28799,note_on,,119,0,12,,,,,,,,,,,,,,,15,,,45,0
28799,note_on,,0,0,12,,,,,,,,,,,,,,,15,,,64,0
28799,note_on,,0,0,12,,,,,,,,,,,,,,,15,,,57,0
28799,note_on,,0,0,12,,,,,,,,,,,,,,,15,,,60,0
28800,note_on,,16,0,8,,,,,,,,,,,,,,,11,,,79,76
28800,note_on,,16,0,7,,,,,,,,,,,,,,,2,,,43,76
28800,note_on,,16,0,5,,,,,,,,,,,,,,,0,,,79,76
28800,note_on,,0,0,12,,,,,,,,,,,,,,,15,,,59,76
28800,note_on,,0,0,12,,,,,,,,,,,,,,,15,,,55,76
28800,note_on,,0,0,12,,,,,,,,,,,,,,,15,,,62,76
28800,note_on,,1,0,12,,,,,,,,,,,,,,,15,,,43,76
28800,note_on,,16,0,11,,,,,,,,,,,,,,,14,,,43,76
28800,note_on,,16,0,10,,,,,,,,,,,,,,,13,,,62,76
28800,note_on,,16,0,9,,,,,,,,,,,,,,,12,,,59,76
28800,note_on,,16,0,6,,,,,,,,,,,,,,,1,,,79,76
28904,note_on,,104,0,7,,,,,,,,,,,,,,,2,,,43,0
28904,note_on,,104,0,11,,,,,,,,,,,,,,,14,,,43,0
28919,note_on,,0,0,12,,,,,,,,,,,,,,,15,,,55,0
28919,note_on,,0,0,12,,,,,,,,,,,,,,,15,,,62,0
28919,note_on,,0,0,12,,,,,,,,,,,,,,,15,,,59,0
28919,note_on,,119,0,12,,,,,,,,,,,,,,,15,,,43,0
28920,note_on,,16,0,11,,,,,,,,,,,,,,,14,,,45,76
28920,note_on,,0,0,12,,,,,,,,,,,,,,,15,,,45,76
28920,note_on,,0,0,12,,,,,,,,,,,,,,,15,,,60,76
28920,note_on,,0,0,12,,,,,,,,,,,,,,,15,,,57,76
28920,note_on,,1,0,12,,,,,,,,,,,,,,,15,,,64,76
28920,note_on,,16,0,7,,,,,,,,,,,,,,,2,,,45,76
29024,note_on,,224,0,5,,,,,,,,,,,,,,,0,,,79,0
29024,note_on,,224,0,8,,,,,,,,,,,,,,,11,,,79,0
29024,note_on,,224,0,6,,,,,,,,,,,,,,,1,,,79,0
29024,note_on,,224,0,10,,,,,,,,,,,,,,,13,,,62,0
29024,note_on,,224,0,9,,,,,,,,,,,,,,,12,,,59,0
29024,note_on,,104,0,11,,,,,,,,,,,,,,,14,,,45,0
29024,note_on,,104,0,7,,,,,,,,,,,,,,,2,,,45,0
29039,note_on,,119,0,12,,,,,,,,,,,,,,,15,,,64,0
29039,note_on,,0,0,12,,,,,,,,,,,,,,,15,,,45,0
29039,note_on,,0,0,12,,,,,,,,,,,,,,,15,,,57,0
29039,note_on,,0,0,12,,,,,,,,,,,,,,,15,,,60,0
29040,note_on,,0,0,12,,,,,,,,,,,,,,,15,,,55,76
29040,note_on,,0,0,12,,,,,,,,,,,,,,,15,,,62,76
29040,note_on,,0,0,12,,,,,,,,,,,,,,,15,,,43,76
29040,note_on,,1,0,12,,,,,,,,,,,,,,,15,,,59,76
29040,note_on,,16,0,7,,,,,,,,,,,,,,,2,,,43,76
29040,note_on,,16,0,9,,,,,,,,,,,,,,,12,,,67,76
29040,note_on,,16,0,6,,,,,,,,,,,,,,,1,,,71,76
29040,note_on,,16,0,8,,,,,,,,,,,,,,,11,,,71,76
29040,note_on,,16,0,10,,,,,,,,,,,,,,,13,,,62,76
29040,note_on,,16,0,5,,,,,,,,,,,,,,,0,,,71,76
29040,note_on,,16,0,11,,,,,,,,,,,,,,,14,,,43,76
29144,note_on,,104,0,11,,,,,,,,,,,,,,,14,,,43,0
29144,note_on,,104,0,7,,,,,,,,,,,,,,,2,,,43,0
29159,note_on,,0,0,12,,,,,,,,,,,,,,,15,,,43,0
29159,note_on,,119,0,12,,,,,,,,,,,,,,,15,,,59,0
29159,note_on,,0,0,12,,,,,,,,,,,,,,,15,,,62,0
29159,note_on,,0,0,12,,,,,,,,,,,,,,,15,,,55,0
29160,note_on,,0,0,12,,,,,,,,,,,,,,,15,,,41,76
29160,note_on,,0,0,12,,,,,,,,,,,,,,,15,,,57,76
29160,note_on,,0,0,12,,,,,,,,,,,,,,,15,,,60,76
29160,note_on,,16,0,11,,,,,,,,,,,,,,,14,,,41,76
29160,note_on,,16,0,7,,,,,,,,,,,,,,,2,,,41,76
29160,note_on,,1,0,12,,,,,,,,,,,,,,,15,,,53,76
29264,note_on,,224,0,8,,,,,,,,,,,,,,,11,,,71,0
29264,note_on,,104,0,11,,,,,,,,,,,,,,,14,,,41,0
29264,note_on,,224,0,9,,,,,,,,,,,,,,,12,,,67,0
29264,note_on,,224,0,6,,,,,,,,,,,,,,,1,,,71,0
29264,note_on,,224,0,10,,,,,,,,,,,,,,,13,,,62,0
29264,note_on,,224,0,5,,,,,,,,,,,,,,,0,,,71,0
29264,note_on,,104,0,7,,,,,,,,,,,,,,,2,,,41,0
29279,note_on,,119,0,12,,,,,,,,,,,,,,,15,,,53,0
29279,note_on,,0,0,12,,,,,,,,,,,,,,,15,,,41,0
29279,note_on,,0,0,12,,,,,,,,,,,,,,,15,,,57,0
29279,note_on,,0,0,12,,,,,,,,,,,,,,,15,,,60,0
29280,note_on,,16,0,7,,,,,,,,,,,,,,,2,,,40,76
29280,note_on,,16,0,8,,,,,,,,,,,,,,,11,,,72,76
29280,note_on,,16,0,11,,,,,,,,,,,,,,,14,,,40,76
29280,note_on,,1,0,12,,,,,,,,,,,,,,,15,,,40,76
29280,note_on,,16,0,6,,,,,,,,,,,,,,,1,,,72,76
29280,note_on,,0,0,12,,,,,,,,,,,,,,,15,,,59,76
29280,note_on,,16,0,9,,,,,,,,,,,,,,,12,,,67,76
29280,note_on,,0,0,12,,,,,,,,,,,,,,,15,,,52,76
29280,note_on,,16,0,10,,,,,,,,,,,,,,,13,,,64,76
29280,note_on,,0,0,12,,,,,,,,,,,,,,,15,,,55,76
29280,note_on,,16,0,5,,,,,,,,,,,,,,,0,,,72,76
29504,note_on,,224,0,11,,,,,,,,,,,,,,,14,,,40,0
29504,note_on,,224,0,9,,,,,,,,,,,,,,,12,,,67,0
29504,note_on,,224,0,7,,,,,,,,,,,,,,,2,,,40,0
29504,note_on,,224,0,10,,,,,,,,,,,,,,,13,,,64,0
29519,note_on,,0,0,12,,,,,,,,,,,,,,,15,,,52,0
29519,note_on,,0,0,12,,,,,,,,,,,,,,,15,,,55,0
29519,note_on,,0,0,12,,,,,,,,,,,,,,,15,,,59,0
29519,note_on,,239,0,12,,,,,,,,,,,,,,,15,,,40,0
29520,note_on,,16,0,7,,,,,,,,,,,,,,,2,,,41,76
29520,note_on,,16,0,11,,,,,,,,,,,,,,,14,,,41,76
29520,note_on,,16,0,10,,,,,,,,,,,,,,,13,,,69,76
29520,note_on,,16,0,9,,,,,,,,,,,,,,,12,,,72,76
29520,note_on,,1,0,12,,,,,,,,,,,,,,,15,,,57,76
29520,note_on,,0,0,12,,,,,,,,,,,,,,,15,,,60,76
29520,note_on,,0,0,12,,,,,,,,,,,,,,,15,,,41,76
29520,note_on,,0,0,12,,,,,,,,,,,,,,,15,,,53,76
29624,note_on,,344,0,8,,,,,,,,,,,,,,,11,,,72,0
29624,note_on,,344,0,6,,,,,,,,,,,,,,,1,,,72,0
29624,note_on,,344,0,5,,,,,,,,,,,,,,,0,,,72,0
29640,note_on,,16,0,5,,,,,,,,,,,,,,,0,,,74,76
29640,note_on,,16,0,6,,,,,,,,,,,,,,,1,,,74,76
29640,note_on,,16,0,8,,,,,,,,,,,,,,,11,,,74,76
29744,note_on,,104,0,6,,,,,,,,,,,,,,,1,,,74,0
29744,note_on,,224,0,9,,,,,,,,,,,,,,,12,,,72,0
29744,note_on,,104,0,5,,,,,,,,,,,,,,,0,,,74,0
29744,note_on,,224,0,11,,,,,,,,,,,,,,,14,,,41,0
29744,note_on,,104,0,8,,,,,,,,,,,,,,,11,,,74,0
29744,note_on,,224,0,10,,,,,,,,,,,,,,,13,,,69,0
29744,note_on,,224,0,7,,,,,,,,,,,,,,,2,,,41,0
29759,note_on,,239,0,12,,,,,,,,,,,,,,,15,,,57,0
29759,note_on,,0,0,12,,,,,,,,,,,,,,,15,,,53,0
29759,note_on,,0,0,12,,,,,,,,,,,,,,,15,,,41,0
29759,note_on,,0,0,12,,,,,,,,,,,,,,,15,,,60,0
29760,note_on,,16,0,7,,,,,,,,,,,,,,,2,,,43,76
29760,note_on,,16,0,5,,,,,,,,,,,,,,,0,,,74,76
29760,note_on,,16,0,11,,,,,,,,,,,,,,,14,,,43,76
29760,note_on,,16,0,10,,,,,,,,,,,,,,,13,,,67,76
29760,note_on,,16,0,8,,,,,,,,,,,,,,,11,,,74,76
29760,note_on,,16,0,6,,,,,,,,,,,,,,,1,,,74,76
29760,note_on,,16,0,9,,,,,,,,,,,,,,,12,,,71,76
29760,note_on,,0,0,12,,,,,,,,,,,,,,,15,,,43,76
29760,note_on,,0,0,12,,,,,,,,,,,,,,,15,,,59,76
29760,note_on,,0,0,12,,,,,,,,,,,,,,,15,,,55,76
29760,note_on,,1,0,12,,,,,,,,,,,,,,,15,,,62,76
29984,note_on,,224,0,7,,,,,,,,,,,,,,,2,,,43,0
29984,note_on,,224,0,11,,,,,,,,,,,,,,,14,,,43,0
29984,note_on,,224,0,9,,,,,,,,,,,,,,,12,,,71,0
29984,note_on,,224,0,10,,,,,,,,,,,,,,,13,,,67,0
29999,note_on,,0,0,12,,,,,,,,,,,,,,,15,,,59,0
29999,note_on,,0,0,12,,,,,,,,,,,,,,,15,,,43,0
29999,note_on,,239,0,12,,,,,,,,,,,,,,,15,,,62,0
29999,note_on,,0,0,12,,,,,,,,,,,,,,,15,,,55,0
30000,note_on,,0,0,12,,,,,,,,,,,,,,,15,,,43,76
30000,note_on,,1,0,12,,,,,,,,,,,,,,,15,,,62,76
30000,note_on,,16,0,9,,,,,,,,,,,,,,,12,,,67,76
30000,note_on,,16,0,11,,,,,,,,,,,,,,,14,,,43,76
30000,note_on,,16,0,10,,,,,,,,,,,,,,,13,,,62,76
30000,note_on,,0,0,12,,,,,,,,,,,,,,,15,,,59,76
30000,note_on,,0,0,12,,,,,,,,,,,,,,,15,,,55,76
30000,note_on,,16,0,7,,,,,,,,,,,,,,,2,,,43,76
30104,note_on,,344,0,5,,,,,,,,,,,,,,,0,,,74,0
30104,note_on,,344,0,8,,,,,,,,,,,,,,,11,,,74,0
30104,note_on,,344,0,6,,,,,,,,,,,,,,,1,,,74,0
30120,note_on,,16,0,6,,,,,,,,,,,,,,,1,,,72,76
30120,note_on,,16,0,8,,,,,,,,,,,,,,,11,,,72,76
30120,note_on,,16,0,5,,,,,,,,,,,,,,,0,,,72,76
30224,note_on,,224,0,10,,,,,,,,,,,,,,,13,,,62,0
30224,note_on,,224,0,7,,,,,,,,,,,,,,,2,,,43,0
30224,note_on,,104,0,8,,,,,,,,,,,,,,,11,,,72,0
30224,note_on,,104,0,6,,,,,,,,,,,,,,,1,,,72,0
30224,note_on,,224,0,11,,,,,,,,,,,,,,,14,,,43,0
30224,note_on,,224,0,9,,,,,,,,,,,,,,,12,,,67,0
30224,note_on,,104,0,5,,,,,,,,,,,,,,,0,,,72,0
30239,note_on,,239,0,12,,,,,,,,,,,,,,,15,,,62,0
30239,note_on,,0,0,12,,,,,,,,,,,,,,,15,,,43,0
30239,note_on,,0,0,12,,,,,,,,,,,,,,,15,,,59,0
30239,note_on,,0,0,12,,,,,,,,,,,,,,,15,,,55,0
30240,note_on,,16,0,5,,,,,,,,,,,,,,,0,,,72,76
30240,note_on,,0,0,12,,,,,,,,,,,,,,,15,,,48,76
30240,note_on,,16,0,9,,,,,,,,,,,,,,,12,,,67,76
30240,note_on,,0,0,12,,,,,,,,,,,,,,,15,,,55,76
30240,note_on,,0,0,12,,,,,,,,,,,,,,,15,,,36,76
30240,note_on,,16,0,11,,,,,,,,,,,,,,,14,,,36,76
30240,note_on,,16,0,8,,,,,,,,,,,,,,,11,,,72,76
30240,note_on,,1,0,12,,,,,,,,,,,,,,,15,,,52,76
30240,note_on,,16,0,10,,,,,,,,,,,,,,,13,,,64,76
30240,note_on,,16,0,6,,,,,,,,,,,,,,,1,,,72,76
30240,note_on,,16,0,7,,,,,,,,,,,,,,,2,,,36,76
30944,note_on,,704,0,6,,,,,,,,,,,,,,,1,,,72,0
30944,note_on,,704,0,5,,,,,,,,,,,,,,,0,,,72,0
30944,note_on,,704,0,8,,,,,,,,,,,,,,,11,,,72,0
30959,note_on,,719,0,12,,,,,,,,,,,,,,,15,,,52,0
30959,note_on,,0,0,12,,,,,,,,,,,,,,,15,,,48,0
30959,note_on,,0,0,12,,,,,,,,,,,,,,,15,,,36,0
30959,note_on,,719,0,10,,,,,,,,,,,,,,,13,,,64,0
30959,note_on,,719,0,11,,,,,,,,,,,,,,,14,,,36,0
30959,note_on,,719,0,7,,,,,,,,,,,,,,,2,,,36,0
30959,note_on,,0,0,12,,,,,,,,,,,,,,,15,,,55,0
30959,note_on,,719,0,9,,,,,,,,,,,,,,,12,,,67,0
30960,note_on,,16,0,5,,,,,,,,,,,,,,,0,,,71,76
30960,note_on,,16,0,8,,,,,,,,,,,,,,,11,,,71,76
30960,note_on,,16,0,6,,,,,,,,,,,,,,,1,,,71,76
31064,note_on,,104,0,5,,,,,,,,,,,,,,,0,,,71,0
31064,note_on,,104,0,6,,,,,,,,,,,,,,,1,,,71,0
31064,note_on,,104,0,8,,,,,,,,,,,,,,,11,,,71,0
31080,note_on,,16,0,8,,,,,,,,,,,,,,,11,,,72,76
31080,note_on,,16,0,6,,,,,,,,,,,,,,,1,,,72,76
31080,note_on,,16,0,5,,,,,,,,,,,,,,,0,,,72,76
31184,note_on,,104,0,6,,,,,,,,,,,,,,,1,,,72,0
31184,note_on,,104,0,5,,,,,,,,,,,,,,,0,,,72,0
31184,note_on,,104,0,8,,,,,,,,,,,,,,,11,,,72,0
31200,note_on,,16,0,6,,,,,,,,,,,,,,,1,,,74,76
31200,note_on,,16,0,8,,,,,,,,,,,,,,,11,,,74,76
31200,note_on,,16,0,5,,,,,,,,,,,,,,,0,,,74,76
31424,note_on,,224,0,6,,,,,,,,,,,,,,,1,,,74,0
31424,note_on,,224,0,8,,,,,,,,,,,,,,,11,,,74,0
31424,note_on,,224,0,5,,,,,,,,,,,,,,,0,,,74,0
31440,note_on,,16,0,6,,,,,,,,,,,,,,,1,,,79,76
31440,note_on,,481,0,7,,,,,,,,,,,,,,,2,,,55,76
31440,note_on,,481,0,11,,,,,,,,,,,,,,,14,,,55,76
31440,note_on,,481,0,12,,,,,,,,,,,,,,,15,,,55,76
31440,note_on,,481,0,10,,,,,,,,,,,,,,,13,,,71,76
31440,note_on,,481,0,9,,,,,,,,,,,,,,,12,,,74,76
31440,note_on,,0,0,12,,,,,,,,,,,,,,,15,,,74,76
31440,note_on,,16,0,8,,,,,,,,,,,,,,,11,,,79,76
31440,note_on,,16,0,5,,,,,,,,,,,,,,,0,,,79,76
31440,note_on,,0,0,12,,,,,,,,,,,,,,,15,,,67,76
31440,note_on,,0,0,12,,,,,,,,,,,,,,,15,,,71,76
31544,note_on,,104,0,7,,,,,,,,,,,,,,,2,,,55,0
31544,note_on,,104,0,10,,,,,,,,,,,,,,,13,,,71,0
31544,note_on,,104,0,11,,,,,,,,,,,,,,,14,,,55,0
31559,note_on,,119,0,12,,,,,,,,,,,,,,,15,,,55,0
31559,note_on,,0,0,12,,,,,,,,,,,,,,,15,,,67,0
31559,note_on,,0,0,12,,,,,,,,,,,,,,,15,,,71,0
31559,note_on,,0,0,12,,,,,,,,,,,,,,,15,,,74,0
31560,note_on,,16,0,11,,,,,,,,,,,,,,,14,,,53,76
31560,note_on,,1,0,12,,,,,,,,,,,,,,,15,,,69,76
31560,note_on,,16,0,7,,,,,,,,,,,,,,,2,,,53,76
31560,note_on,,0,0,12,,,,,,,,,,,,,,,15,,,53,76
31560,note_on,,0,0,12,,,,,,,,,,,,,,,15,,,72,76
31560,note_on,,0,0,12,,,,,,,,,,,,,,,15,,,65,76
31560,note_on,,16,0,10,,,,,,,,,,,,,,,13,,,69,76
31664,note_on,,224,0,9,,,,,,,,,,,,,,,12,,,74,0
31664,note_on,,104,0,11,,,,,,,,,,,,,,,14,,,53,0
31664,note_on,,104,0,7,,,,,,,,,,,,,,,2,,,53,0
31664,note_on,,104,0,10,,,,,,,,,,,,,,,13,,,69,0
31679,note_on,,119,0,12,,,,,,,,,,,,,,,15,,,69,0
31679,note_on,,0,0,12,,,,,,,,,,,,,,,15,,,65,0
31679,note_on,,0,0,12,,,,,,,,,,,,,,,15,,,53,0
31679,note_on,,0,0,12,,,,,,,,,,,,,,,15,,,72,0
31680,note_on,,0,0,12,,,,,,,,,,,,,,,15,,,67,76
31680,note_on,,1,0,12,,,,,,,,,,,,,,,15,,,64,76
31680,note_on,,16,0,10,,,,,,,,,,,,,,,13,,,67,76
31680,note_on,,16,0,7,,,,,,,,,,,,,,,2,,,52,76
31680,note_on,,16,0,11,,,,,,,,,,,,,,,14,,,52,76
31680,note_on,,16,0,9,,,,,,,,,,,,,,,12,,,73,76
31680,note_on,,0,0,12,,,,,,,,,,,,,,,15,,,52,76
31680,note_on,,0,0,12,,,,,,,,,,,,,,,15,,,71,76
31904,note_on,,464,0,5,,,,,,,,,,,,,,,0,,,79,0
31904,note_on,,464,0,8,,,,,,,,,,,,,,,11,,,79,0
31904,note_on,,224,0,7,,,,,,,,,,,,,,,2,,,52,0
31904,note_on,,224,0,11,,,,,,,,,,,,,,,14,,,52,0
31904,note_on,,464,0,6,,,,,,,,,,,,,,,1,,,79,0
31904,note_on,,224,0,9,,,,,,,,,,,,,,,12,,,73,0
31904,note_on,,224,0,10,,,,,,,,,,,,,,,13,,,67,0
31919,note_on,,0,0,12,,,,,,,,,,,,,,,15,,,71,0
31919,note_on,,0,0,12,,,,,,,,,,,,,,,15,,,52,0
31919,note_on,,0,0,12,,,,,,,,,,,,,,,15,,,67,0
31919,note_on,,239,0,12,,,,,,,,,,,,,,,15,,,64,0
31920,note_on,,16,0,8,,,,,,,,,,,,,,,11,,,82,76
31920,note_on,,0,0,12,,,,,,,,,,,,,,,15,,,67,76
31920,note_on,,16,0,11,,,,,,,,,,,,,,,14,,,55,76
31920,note_on,,16,0,10,,,,,,,,,,,,,,,13,,,65,76
31920,note_on,,16,0,6,,,,,,,,,,,,,,,1,,,82,76
31920,note_on,,16,0,7,,,,,,,,,,,,,,,2,,,55,76
31920,note_on,,0,0,12,,,,,,,,,,,,,,,15,,,55,76
31920,note_on,,0,0,12,,,,,,,,,,,,,,,15,,,70,76
31920,note_on,,1,0,12,,,,,,,,,,,,,,,15,,,74,76
31920,note_on,,16,0,5,,,,,,,,,,,,,,,0,,,82,76
31920,note_on,,16,0,9,,,,,,,,,,,,,,,12,,,74,76
32144,note_on,,224,0,8,,,,,,,,,,,,,,,11,,,82,0
32144,note_on,,224,0,5,,,,,,,,,,,,,,,0,,,82,0
32144,note_on,,224,0,10,,,,,,,,,,,,,,,13,,,65,0
32144,note_on,,224,0,7,,,,,,,,,,,,,,,2,,,55,0
32144,note_on,,224,0,9,,,,,,,,,,,,,,,12,,,74,0
32144,note_on,,224,0,6,,,,,,,,,,,,,,,1,,,82,0
32144,note_on,,224,0,11,,,,,,,,,,,,,,,14,,,55,0
32159,note_on,,239,0,12,,,,,,,,,,,,,,,15,,,74,0
32159,note_on,,0,0,12,,,,,,,,,,,,,,,15,,,70,0
32159,note_on,,0,0,12,,,,,,,,,,,,,,,15,,,55,0
32159,note_on,,0,0,12,,,,,,,,,,,,,,,15,,,67,0
32160,note_on,,16,0,9,,,,,,,,,,,,,,,12,,,69,76
32160,note_on,,16,0,5,,,,,,,,,,,,,,,0,,,73,76
32160,note_on,,16,0,6,,,,,,,,,,,,,,,1,,,73,76
32160,note_on,,16,0,7,,,,,,,,,,,,,,,2,,,57,76
32160,note_on,,1,0,12,,,,,,,,,,,,,,,15,,,73,76
32160,note_on,,0,0,12,,,,,,,,,,,,,,,15,,,57,76
32160,note_on,,0,0,12,,,,,,,,,,,,,,,15,,,76,76
32160,note_on,,0,0,12,,,,,,,,,,,,,,,15,,,69,76
32160,note_on,,16,0,8,,,,,,,,,,,,,,,11,,,73,76
32160,note_on,,16,0,10,,,,,,,,,,,,,,,13,,,64,76
32160,note_on,,16,0,11,,,,,,,,,,,,,,,14,,,57,76
32264,note_on,,104,0,5,,,,,,,,,,,,,,,0,,,73,0
32264,note_on,,104,0,9,,,,,,,,,,,,,,,12,,,69,0
32264,note_on,,104,0,8,,,,,,,,,,,,,,,11,,,73,0
32264,note_on,,104,0,6,,,,,,,,,,,,,,,1,,,73,0
32264,note_on,,104,0,10,,,,,,,,,,,,,,,13,,,64,0
32280,note_on,,16,0,5,,,,,,,,,,,,,,,0,,,71,76
32280,note_on,,16,0,9,,,,,,,,,,,,,,,12,,,67,76
32280,note_on,,16,0,8,,,,,,,,,,,,,,,11,,,71,76
32280,note_on,,16,0,6,,,,,,,,,,,,,,,1,,,71,76
32280,note_on,,16,0,10,,,,,,,,,,,,,,,13,,,62,76
32384,note_on,,104,0,5,,,,,,,,,,,,,,,0,,,71,0
32384,note_on,,104,0,6,,,,,,,,,,,,,,,1,,,71,0
32384,note_on,,224,0,7,,,,,,,,,,,,,,,2,,,57,0
32384,note_on,,104,0,9,,,,,,,,,,,,,,,12,,,67,0
32384,note_on,,104,0,8,,,,,,,,,,,,,,,11,,,71,0
32384,note_on,,224,0,11,,,,,,,,,,,,,,,14,,,57,0
32384,note_on,,104,0,10,,,,,,,,,,,,,,,13,,,62,0
32399,note_on,,239,0,12,,,,,,,,,,,,,,,15,,,73,0
32399,note_on,,0,0,12,,,,,,,,,,,,,,,15,,,69,0
32399,note_on,,0,0,12,,,,,,,,,,,,,,,15,,,57,0
32399,note_on,,0,0,12,,,,,,,,,,,,,,,15,,,76,0
32400,note_on,,16,0,10,,,,,,,,,,,,,,,13,,,64,76
32400,note_on,,16,0,8,,,,,,,,,,,,,,,11,,,73,76
32400,note_on,,16,0,5,,,,,,,,,,,,,,,0,,,73,76
32400,note_on,,16,0,6,,,,,,,,,,,,,,,1,,,73,76
32400,note_on,,16,0,7,,,,,,,,,,,,,,,2,,,45,76
32400,note_on,,16,0,11,,,,,,,,,,,,,,,14,,,45,76
32400,note_on,,1,0,12,,,,,,,,,,,,,,,15,,,45,76
32400,note_on,,0,0,12,,,,,,,,,,,,,,,15,,,64,76
32400,note_on,,0,0,12,,,,,,,,,,,,,,,15,,,61,76
32400,note_on,,0,0,12,,,,,,,,,,,,,,,15,,,57,76
32400,note_on,,16,0,9,,,,,,,,,,,,,,,12,,,69,76
32504,note_on,,104,0,8,,,,,,,,,,,,,,,11,,,73,0
32504,note_on,,104,0,6,,,,,,,,,,,,,,,1,,,73,0
32504,note_on,,104,0,9,,,,,,,,,,,,,,,12,,,69,0
32504,note_on,,104,0,10,,,,,,,,,,,,,,,13,,,64,0
32504,note_on,,104,0,5,,,,,,,,,,,,,,,0,,,73,0
32520,note_on,,16,0,5,,,,,,,,,,,,,,,0,,,74,76
32520,note_on,,16,0,9,,,,,,,,,,,,,,,12,,,71,76
32520,note_on,,16,0,8,,,,,,,,,,,,,,,11,,,74,76
32520,note_on,,16,0,10,,,,,,,,,,,,,,,13,,,65,76
32520,note_on,,16,0,6,,,,,,,,,,,,,,,1,,,74,76
32624,note_on,,104,0,5,,,,,,,,,,,,,,,0,,,74,0
32624,note_on,,104,0,9,,,,,,,,,,,,,,,12,,,71,0
32624,note_on,,224,0,7,,,,,,,,,,,,,,,2,,,45,0
32624,note_on,,224,0,11,,,,,,,,,,,,,,,14,,,45,0
32624,note_on,,104,0,8,,,,,,,,,,,,,,,11,,,74,0
32624,note_on,,104,0,10,,,,,,,,,,,,,,,13,,,65,0
32624,note_on,,104,0,6,,,,,,,,,,,,,,,1,,,74,0
32639,note_on,,0,0,12,,,,,,,,,,,,,,,15,,,61,0
32639,note_on,,239,0,12,,,,,,,,,,,,,,,15,,,45,0
32639,note_on,,0,0,12,,,,,,,,,,,,,,,15,,,64,0
32639,note_on,,0,0,12,,,,,,,,,,,,,,,15,,,57,0
32640,note_on,,0,0,12,,,,,,,,,,,,,,,15,,,73,76
32640,note_on,,16,0,11,,,,,,,,,,,,,,,14,,,57,76
32640,note_on,,16,0,7,,,,,,,,,,,,,,,2,,,57,76
32640,note_on,,16,0,5,,,,,,,,,,,,,,,0,,,76,76
32640,note_on,,0,0,12,,,,,,,,,,,,,,,15,,,76,76
32640,note_on,,16,0,8,,,,,,,,,,,,,,,11,,,76,76
32640,note_on,,16,0,6,,,,,,,,,,,,,,,1,,,76,76
32640,note_on,,16,0,9,,,,,,,,,,,,,,,12,,,73,76
32640,note_on,,0,0,12,,,,,,,,,,,,,,,15,,,69,76
32640,note_on,,16,0,10,,,,,,,,,,,,,,,13,,,64,76
32640,note_on,,1,0,12,,,,,,,,,,,,,,,15,,,57,76
32864,note_on,,224,0,9,,,,,,,,,,,,,,,12,,,73,0
32864,note_on,,224,0,10,,,,,,,,,,,,,,,13,,,64,0
32864,note_on,,224,0,6,,,,,,,,,,,,,,,1,,,76,0
32864,note_on,,224,0,5,,,,,,,,,,,,,,,0,,,76,0
32864,note_on,,224,0,11,,,,,,,,,,,,,,,14,,,57,0
32864,note_on,,224,0,7,,,,,,,,,,,,,,,2,,,57,0
32864,note_on,,224,0,8,,,,,,,,,,,,,,,11,,,76,0
32879,note_on,,0,0,12,,,,,,,,,,,,,,,15,,,73,0
32879,note_on,,0,0,12,,,,,,,,,,,,,,,15,,,69,0
32879,note_on,,239,0,12,,,,,,,,,,,,,,,15,,,57,0
32879,note_on,,0,0,12,,,,,,,,,,,,,,,15,,,76,0
32880,note_on,,16,0,7,,,,,,,,,,,,,,,2,,,55,76
32880,note_on,,16,0,11,,,,,,,,,,,,,,,14,,,55,76
32880,note_on,,16,0,5,,,,,,,,,,,,,,,0,,,77,76
32880,note_on,,0,0,12,,,,,,,,,,,,,,,15,,,67,76
32880,note_on,,0,0,12,,,,,,,,,,,,,,,15,,,74,76
32880,note_on,,16,0,9,,,,,,,,,,,,,,,12,,,74,76
32880,note_on,,0,0,12,,,,,,,,,,,,,,,15,,,71,76
32880,note_on,,16,0,8,,,,,,,,,,,,,,,11,,,77,76
32880,note_on,,16,0,6,,,,,,,,,,,,,,,1,,,77,76
32880,note_on,,16,0,10,,,,,,,,,,,,,,,13,,,57,76
32880,note_on,,1,0,12,,,,,,,,,,,,,,,15,,,55,76
32984,note_on,,104,0,8,,,,,,,,,,,,,,,11,,,77,0
32984,note_on,,104,0,5,,,,,,,,,,,,,,,0,,,77,0
32984,note_on,,104,0,6,,,,,,,,,,,,,,,1,,,77,0
32984,note_on,,104,0,9,,,,,,,,,,,,,,,12,,,74,0
33000,note_on,,16,0,8,,,,,,,,,,,,,,,11,,,79,76
33000,note_on,,16,0,6,,,,,,,,,,,,,,,1,,,79,76
33000,note_on,,16,0,9,,,,,,,,,,,,,,,12,,,76,76
33000,note_on,,16,0,5,,,,,,,,,,,,,,,0,,,79,76
33104,note_on,,104,0,8,,,,,,,,,,,,,,,11,,,79,0
33104,note_on,,224,0,10,,,,,,,,,,,,,,,13,,,57,0
33104,note_on,,224,0,7,,,,,,,,,,,,,,,2,,,55,0
33104,note_on,,104,0,5,,,,,,,,,,,,,,,0,,,79,0
33104,note_on,,104,0,6,,,,,,,,,,,,,,,1,,,79,0
33104,note_on,,224,0,11,,,,,,,,,,,,,,,14,,,55,0
33104,note_on,,104,0,9,,,,,,,,,,,,,,,12,,,76,0
33119,note_on,,239,0,12,,,,,,,,,,,,,,,15,,,55,0
33119,note_on,,0,0,12,,,,,,,,,,,,,,,15,,,71,0
33119,note_on,,0,0,12,,,,,,,,,,,,,,,15,,,67,0
33119,note_on,,0,0,12,,,,,,,,,,,,,,,15,,,74,0
33120,note_on,,16,0,9,,,,,,,,,,,,,,,12,,,77,76
33120,note_on,,1,0,12,,,,,,,,,,,,,,,15,,,65,76
33120,note_on,,16,0,10,,,,,,,,,,,,,,,13,,,62,76
33120,note_on,,0,0,12,,,,,,,,,,,,,,,15,,,74,76
33120,note_on,,0,0,12,,,,,,,,,,,,,,,15,,,53,76
33120,note_on,,0,0,12,,,,,,,,,,,,,,,15,,,69,76
33120,note_on,,16,0,11,,,,,,,,,,,,,,,14,,,53,76
33120,note_on,,16,0,6,,,,,,,,,,,,,,,1,,,81,76
33120,note_on,,16,0,5,,,,,,,,,,,,,,,0,,,81,76
33120,note_on,,16,0,7,,,,,,,,,,,,,,,2,,,53,76
33120,note_on,,16,0,8,,,,,,,,,,,,,,,11,,,81,76
33224,note_on,,104,0,6,,,,,,,,,,,,,,,1,,,81,0
33224,note_on,,104,0,5,,,,,,,,,,,,,,,0,,,81,0
33224,note_on,,104,0,8,,,,,,,,,,,,,,,11,,,81,0
33240,note_on,,16,0,5,,,,,,,,,,,,,,,0,,,79,76
33240,note_on,,16,0,8,,,,,,,,,,,,,,,11,,,79,76
33240,note_on,,16,0,6,,,,,,,,,,,,,,,1,,,79,76
33344,note_on,,224,0,9,,,,,,,,,,,,,,,12,,,77,0
33344,note_on,,104,0,8,,,,,,,,,,,,,,,11,,,79,0
33344,note_on,,104,0,6,,,,,,,,,,,,,,,1,,,79,0
33344,note_on,,224,0,7,,,,,,,,,,,,,,,2,,,53,0
33344,note_on,,224,0,10,,,,,,,,,,,,,,,13,,,62,0
33344,note_on,,224,0,11,,,,,,,,,,,,,,,14,,,53,0
33344,note_on,,104,0,5,,,,,,,,,,,,,,,0,,,79,0
33359,note_on,,0,0,12,,,,,,,,,,,,,,,15,,,53,0
33359,note_on,,0,0,12,,,,,,,,,,,,,,,15,,,74,0
33359,note_on,,0,0,12,,,,,,,,,,,,,,,15,,,69,0
33359,note_on,,239,0,12,,,,,,,,,,,,,,,15,,,65,0
33360,note_on,,16,0,11,,,,,,,,,,,,,,,14,,,55,76
33360,note_on,,0,0,12,,,,,,,,,,,,,,,15,,,67,76
33360,note_on,,0,0,12,,,,,,,,,,,,,,,15,,,71,76
33360,note_on,,16,0,6,,,,,,,,,,,,,,,1,,,81,76
33360,note_on,,1,0,12,,,,,,,,,,,,,,,15,,,76,76
33360,note_on,,16,0,9,,,,,,,,,,,,,,,12,,,76,76
33360,note_on,,16,0,5,,,,,,,,,,,,,,,0,,,81,76
33360,note_on,,16,0,10,,,,,,,,,,,,,,,13,,,67,76
33360,note_on,,16,0,8,,,,,,,,,,,,,,,11,,,81,76
33360,note_on,,0,0,12,,,,,,,,,,,,,,,15,,,55,76
33360,note_on,,16,0,7,,,,,,,,,,,,,,,2,,,55,76
33464,note_on,,104,0,9,,,,,,,,,,,,,,,12,,,76,0
33464,note_on,,104,0,6,,,,,,,,,,,,,,,1,,,81,0
33464,note_on,,104,0,5,,,,,,,,,,,,,,,0,,,81,0
33464,note_on,,104,0,8,,,,,,,,,,,,,,,11,,,81,0
33480,note_on,,16,0,6,,,,,,,,,,,,,,,1,,,82,76
33480,note_on,,16,0,8,,,,,,,,,,,,,,,11,,,82,76
33480,note_on,,16,0,5,,,,,,,,,,,,,,,0,,,82,76
33480,note_on,,16,0,9,,,,,,,,,,,,,,,12,,,74,76
33584,note_on,,104,0,5,,,,,,,,,,,,,,,0,,,82,0
33584,note_on,,224,0,10,,,,,,,,,,,,,,,13,,,67,0
33584,note_on,,224,0,7,,,,,,,,,,,,,,,2,,,55,0
33584,note_on,,224,0,11,,,,,,,,,,,,,,,14,,,55,0
33584,note_on,,104,0,9,,,,,,,,,,,,,,,12,,,74,0
33584,note_on,,104,0,8,,,,,,,,,,,,,,,11,,,82,0
33584,note_on,,104,0,6,,,,,,,,,,,,,,,1,,,82,0
33599,note_on,,0,0,12,,,,,,,,,,,,,,,15,,,55,0
33599,note_on,,0,0,12,,,,,,,,,,,,,,,15,,,71,0
33599,note_on,,0,0,12,,,,,,,,,,,,,,,15,,,67,0
33599,note_on,,239,0,12,,,,,,,,,,,,,,,15,,,76,0
33600,note_on,,16,0,5,,,,,,,,,,,,,,,0,,,81,76
33600,note_on,,16,0,6,,,,,,,,,,,,,,,1,,,81,76
33600,note_on,,16,0,10,,,,,,,,,,,,,,,13,,,64,76
33600,note_on,,0,0,12,,,,,,,,,,,,,,,15,,,57,76
33600,note_on,,16,0,9,,,,,,,,,,,,,,,12,,,73,76
33600,note_on,,0,0,12,,,,,,,,,,,,,,,15,,,73,76
33600,note_on,,16,0,11,,,,,,,,,,,,,,,14,,,57,76
33600,note_on,,16,0,8,,,,,,,,,,,,,,,11,,,81,76
33600,note_on,,0,0,12,,,,,,,,,,,,,,,15,,,69,76
33600,note_on,,16,0,7,,,,,,,,,,,,,,,2,,,57,76
33600,note_on,,1,0,12,,,,,,,,,,,,,,,15,,,76,76
33704,note_on,,104,0,6,,,,,,,,,,,,,,,1,,,81,0
33704,note_on,,104,0,8,,,,,,,,,,,,,,,11,,,81,0
33704,note_on,,104,0,5,,,,,,,,,,,,,,,0,,,81,0
33720,note_on,,16,0,5,,,,,,,,,,,,,,,0,,,79,76
33720,note_on,,16,0,6,,,,,,,,,,,,,,,1,,,79,76
33720,note_on,,16,0,8,,,,,,,,,,,,,,,11,,,79,76
33824,note_on,,224,0,11,,,,,,,,,,,,,,,14,,,57,0
33824,note_on,,224,0,9,,,,,,,,,,,,,,,12,,,73,0
33824,note_on,,224,0,10,,,,,,,,,,,,,,,13,,,64,0
33824,note_on,,104,0,5,,,,,,,,,,,,,,,0,,,79,0
33824,note_on,,224,0,7,,,,,,,,,,,,,,,2,,,57,0
33824,note_on,,104,0,8,,,,,,,,,,,,,,,11,,,79,0
33824,note_on,,104,0,6,,,,,,,,,,,,,,,1,,,79,0
33839,note_on,,239,0,12,,,,,,,,,,,,,,,15,,,76,0
33839,note_on,,0,0,12,,,,,,,,,,,,,,,15,,,57,0
33839,note_on,,0,0,12,,,,,,,,,,,,,,,15,,,69,0
33839,note_on,,0,0,12,,,,,,,,,,,,,,,15,,,73,0
33840,note_on,,16,0,8,,,,,,,,,,,,,,,11,,,77,76
33840,note_on,,16,0,10,,,,,,,,,,,,,,,13,,,69,76
33840,note_on,,16,0,7,,,,,,,,,,,,,,,2,,,45,76
33840,note_on,,0,0,12,,,,,,,,,,,,,,,15,,,57,76
33840,note_on,,0,0,12,,,,,,,,,,,,,,,15,,,61,76
33840,note_on,,0,0,12,,,,,,,,,,,,,,,15,,,45,76
33840,note_on,,16,0,11,,,,,,,,,,,,,,,14,,,45,76
33840,note_on,,16,0,5,,,,,,,,,,,,,,,0,,,77,76
33840,note_on,,1,0,12,,,,,,,,,,,,,,,15,,,64,76
33840,note_on,,16,0,9,,,,,,,,,,,,,,,12,,,73,76
33840,note_on,,16,0,6,,,,,,,,,,,,,,,1,,,77,76
33944,note_on,,104,0,6,,,,,,,,,,,,,,,1,,,77,0
33944,note_on,,104,0,8,,,,,,,,,,,,,,,11,,,77,0
33944,note_on,,104,0,5,,,,,,,,,,,,,,,0,,,77,0
33960,note_on,,16,0,5,,,,,,,,,,,,,,,0,,,76,76
33960,note_on,,16,0,6,,,,,,,,,,,,,,,1,,,76,76
33960,note_on,,16,0,8,,,,,,,,,,,,,,,11,,,76,76
34064,note_on,,224,0,7,,,,,,,,,,,,,,,2,,,45,0
34064,note_on,,104,0,5,,,,,,,,,,,,,,,0,,,76,0
34064,note_on,,104,0,6,,,,,,,,,,,,,,,1,,,76,0
34064,note_on,,224,0,10,,,,,,,,,,,,,,,13,,,69,0
34064,note_on,,104,0,8,,,,,,,,,,,,,,,11,,,76,0
34064,note_on,,224,0,9,,,,,,,,,,,,,,,12,,,73,0
34064,note_on,,224,0,11,,,,,,,,,,,,,,,14,,,45,0
34079,note_on,,0,0,12,,,,,,,,,,,,,,,15,,,61,0
34079,note_on,,0,0,12,,,,,,,,,,,,,,,15,,,57,0
34079,note_on,,0,0,12,,,,,,,,,,,,,,,15,,,45,0
34079,note_on,,239,0,12,,,,,,,,,,,,,,,15,,,64,0
34080,note_on,,16,0,9,,,,,,,,,,,,,,,12,,,74,76
34080,note_on,,16,0,7,,,,,,,,,,,,,,,2,,,50,76
34080,note_on,,0,0,12,,,,,,,,,,,,,,,15,,,65,76
34080,note_on,,16,0,5,,,,,,,,,,,,,,,0,,,77,76
34080,note_on,,16,0,6,,,,,,,,,,,,,,,1,,,77,76
34080,note_on,,16,0,8,,,,,,,,,,,,,,,11,,,77,76
34080,note_on,,16,0,11,,,,,,,,,,,,,,,14,,,50,76
34080,note_on,,16,0,10,,,,,,,,,,,,,,,13,,,69,76
34080,note_on,,0,0,12,,,,,,,,,,,,,,,15,,,69,76
34080,note_on,,1,0,12,,,,,,,,,,,,,,,15,,,62,76
34080,note_on,,0,0,12,,,,,,,,,,,,,,,15,,,50,76
34184,note_on,,104,0,6,,,,,,,,,,,,,,,1,,,77,0
34184,note_on,,104,0,8,,,,,,,,,,,,,,,11,,,77,0
34184,note_on,,104,0,5,,,,,,,,,,,,,,,0,,,77,0
34184,note_on,,104,0,10,,,,,,,,,,,,,,,13,,,69,0
34200,note_on,,16,0,10,,,,,,,,,,,,,,,13,,,70,76
34200,note_on,,16,0,8,,,,,,,,,,,,,,,11,,,79,76
34200,note_on,,16,0,6,,,,,,,,,,,,,,,1,,,79,76
34200,note_on,,16,0,5,,,,,,,,,,,,,,,0,,,79,76
34304,note_on,,104,0,6,,,,,,,,,,,,,,,1,,,79,0
34304,note_on,,104,0,8,,,,,,,,,,,,,,,11,,,79,0
34304,note_on,,104,0,10,,,,,,,,,,,,,,,13,,,70,0
34304,note_on,,224,0,7,,,,,,,,,,,,,,,2,,,50,0
34304,note_on,,224,0,9,,,,,,,,,,,,,,,12,,,74,0
34304,note_on,,104,0,5,,,,,,,,,,,,,,,0,,,79,0
34304,note_on,,224,0,11,,,,,,,,,,,,,,,14,,,50,0
34319,note_on,,239,0,12,,,,,,,,,,,,,,,15,,,62,0
34319,note_on,,0,0,12,,,,,,,,,,,,,,,15,,,69,0
34319,note_on,,0,0,12,,,,,,,,,,,,,,,15,,,50,0
34319,note_on,,0,0,12,,,,,,,,,,,,,,,15,,,65,0
34320,note_on,,16,0,9,,,,,,,,,,,,,,,12,,,69,76
34320,note_on,,0,0,12,,,,,,,,,,,,,,,15,,,64,76
34320,note_on,,16,0,10,,,,,,,,,,,,,,,13,,,69,76
34320,note_on,,1,0,12,,,,,,,,,,,,,,,15,,,45,76
34320,note_on,,0,0,12,,,,,,,,,,,,,,,15,,,60,76
34320,note_on,,16,0,11,,,,,,,,,,,,,,,14,,,45,76
34320,note_on,,16,0,7,,,,,,,,,,,,,,,2,,,45,76
34320,note_on,,16,0,5,,,,,,,,,,,,,,,0,,,77,76
34320,note_on,,0,0,12,,,,,,,,,,,,,,,15,,,57,76
34320,note_on,,16,0,8,,,,,,,,,,,,,,,11,,,77,76
34320,note_on,,16,0,6,,,,,,,,,,,,,,,1,,,77,76
34424,note_on,,104,0,5,,,,,,,,,,,,,,,0,,,77,0
34424,note_on,,104,0,6,,,,,,,,,,,,,,,1,,,77,0
34424,note_on,,104,0,8,,,,,,,,,,,,,,,11,,,77,0
34424,note_on,,104,0,10,,,,,,,,,,,,,,,13,,,69,0
34440,note_on,,16,0,8,,,,,,,,,,,,,,,11,,,76,76
34440,note_on,,16,0,5,,,,,,,,,,,,,,,0,,,76,76
34440,note_on,,16,0,10,,,,,,,,,,,,,,,13,,,67,76
34440,note_on,,16,0,6,,,,,,,,,,,,,,,1,,,76,76
34544,note_on,,104,0,10,,,,,,,,,,,,,,,13,,,67,0
34544,note_on,,104,0,6,,,,,,,,,,,,,,,1,,,76,0
34544,note_on,,224,0,9,,,,,,,,,,,,,,,12,,,69,0
34544,note_on,,104,0,8,,,,,,,,,,,,,,,11,,,76,0
34544,note_on,,224,0,11,,,,,,,,,,,,,,,14,,,45,0
34544,note_on,,104,0,5,,,,,,,,,,,,,,,0,,,76,0
34544,note_on,,224,0,7,,,,,,,,,,,,,,,2,,,45,0
34559,note_on,,0,0,12,,,,,,,,,,,,,,,15,,,64,0
34559,note_on,,0,0,12,,,,,,,,,,,,,,,15,,,57,0
34559,note_on,,0,0,12,,,,,,,,,,,,,,,15,,,60,0
34559,note_on,,239,0,12,,,,,,,,,,,,,,,15,,,45,0
34560,note_on,,16,0,6,,,,,,,,,,,,,,,1,,,74,76
34560,note_on,,16,0,10,,,,,,,,,,,,,,,13,,,65,76
34560,note_on,,0,0,12,,,,,,,,,,,,,,,15,,,57,76
34560,note_on,,1,0,12,,,,,,,,,,,,,,,15,,,50,76
34560,note_on,,0,0,12,,,,,,,,,,,,,,,15,,,53,76
34560,note_on,,0,0,12,,,,,,,,,,,,,,,15,,,38,76
34560,note_on,,16,0,11,,,,,,,,,,,,,,,14,,,38,76
34560,note_on,,16,0,7,,,,,,,,,,,,,,,2,,,38,76
34560,note_on,,16,0,5,,,,,,,,,,,,,,,0,,,74,76
34560,note_on,,16,0,9,,,,,,,,,,,,,,,12,,,69,76
34560,note_on,,16,0,8,,,,,,,,,,,,,,,11,,,74,76
34664,note_on,,104,0,10,,,,,,,,,,,,,,,13,,,65,0
34680,note_on,,16,0,10,,,,,,,,,,,,,,,13,,,67,76
34784,note_on,,224,0,7,,,,,,,,,,,,,,,2,,,38,0
34784,note_on,,224,0,11,,,,,,,,,,,,,,,14,,,38,0
34784,note_on,,224,0,8,,,,,,,,,,,,,,,11,,,74,0
34784,note_on,,224,0,5,,,,,,,,,,,,,,,0,,,74,0
34784,note_on,,224,0,9,,,,,,,,,,,,,,,12,,,69,0
34784,note_on,,224,0,6,,,,,,,,,,,,,,,1,,,74,0
34784,note_on,,104,0,10,,,,,,,,,,,,,,,13,,,67,0
34799,note_on,,0,0,12,,,,,,,,,,,,,,,15,,,53,0
34799,note_on,,0,0,12,,,,,,,,,,,,,,,15,,,38,0
34799,note_on,,0,0,12,,,,,,,,,,,,,,,15,,,57,0
34799,note_on,,239,0,12,,,,,,,,,,,,,,,15,,,50,0
34800,note_on,,16,0,9,,,,,,,,,,,,,,,12,,,74,76
34800,note_on,,16,0,6,,,,,,,,,,,,,,,1,,,83,76
34800,note_on,,16,0,8,,,,,,,,,,,,,,,11,,,83,76
34800,note_on,,1,0,12,,,,,,,,,,,,,,,15,,,68,76
34800,note_on,,0,0,12,,,,,,,,,,,,,,,15,,,71,76
34800,note_on,,0,0,12,,,,,,,,,,,,,,,15,,,56,76
34800,note_on,,0,0,12,,,,,,,,,,,,,,,15,,,74,76
34800,note_on,,16,0,5,,,,,,,,,,,,,,,0,,,83,76
34800,note_on,,16,0,11,,,,,,,,,,,,,,,14,,,56,76
34800,note_on,,16,0,10,,,,,,,,,,,,,,,13,,,65,76
34800,note_on,,16,0,7,,,,,,,,,,,,,,,2,,,56,76
34904,note_on,,104,0,8,,,,,,,,,,,,,,,11,,,83,0
34904,note_on,,104,0,11,,,,,,,,,,,,,,,14,,,56,0
34904,note_on,,104,0,5,,,,,,,,,,,,,,,0,,,83,0
34904,note_on,,104,0,7,,,,,,,,,,,,,,,2,,,56,0
34904,note_on,,104,0,10,,,,,,,,,,,,,,,13,,,65,0
34904,note_on,,104,0,6,,,,,,,,,,,,,,,1,,,83,0
34904,note_on,,104,0,9,,,,,,,,,,,,,,,12,,,74,0
34919,note_on,,0,0,12,,,,,,,,,,,,,,,15,,,74,0
34919,note_on,,0,0,12,,,,,,,,,,,,,,,15,,,71,0
34919,note_on,,119,0,12,,,,,,,,,,,,,,,15,,,68,0
34919,note_on,,0,0,12,,,,,,,,,,,,,,,15,,,56,0
34920,note_on,,16,0,9,,,,,,,,,,,,,,,12,,,72,76
34920,note_on,,0,0,12,,,,,,,,,,,,,,,15,,,69,76
34920,note_on,,16,0,11,,,,,,,,,,,,,,,14,,,57,76
34920,note_on,,0,0,12,,,,,,,,,,,,,,,15,,,76,76
34920,note_on,,0,0,12,,,,,,,,,,,,,,,15,,,57,76
34920,note_on,,1,0,12,,,,,,,,,,,,,,,15,,,72,76
34920,note_on,,16,0,10,,,,,,,,,,,,,,,13,,,64,76
34920,note_on,,16,0,7,,,,,,,,,,,,,,,2,,,57,76
34920,note_on,,16,0,6,,,,,,,,,,,,,,,1,,,84,76
34920,note_on,,16,0,8,,,,,,,,,,,,,,,11,,,84,76
34920,note_on,,16,0,5,,,,,,,,,,,,,,,0,,,84,76
35024,note_on,,104,0,8,,,,,,,,,,,,,,,11,,,84,0
35024,note_on,,104,0,9,,,,,,,,,,,,,,,12,,,72,0
35024,note_on,,104,0,6,,,,,,,,,,,,,,,1,,,84,0
35024,note_on,,104,0,5,,,,,,,,,,,,,,,0,,,84,0
35024,note_on,,104,0,10,,,,,,,,,,,,,,,13,,,64,0
35024,note_on,,104,0,7,,,,,,,,,,,,,,,2,,,57,0
35024,note_on,,104,0,11,,,,,,,,,,,,,,,14,,,57,0
35039,note_on,,119,0,12,,,,,,,,,,,,,,,15,,,72,0
35039,note_on,,0,0,12,,,,,,,,,,,,,,,15,,,57,0
35039,note_on,,0,0,12,,,,,,,,,,,,,,,15,,,69,0
35039,note_on,,0,0,12,,,,,,,,,,,,,,,15,,,76,0
35040,note_on,,16,0,8,,,,,,,,,,,,,,,11,,,86,76
35040,note_on,,16,0,11,,,,,,,,,,,,,,,14,,,59,76
35040,note_on,,16,0,7,,,,,,,,,,,,,,,2,,,59,76
35040,note_on,,0,0,12,,,,,,,,,,,,,,,15,,,59,76
35040,note_on,,16,0,9,,,,,,,,,,,,,,,12,,,71,76
35040,note_on,,0,0,12,,,,,,,,,,,,,,,15,,,74,76
35040,note_on,,1,0,12,,,,,,,,,,,,,,,15,,,71,76
35040,note_on,,16,0,10,,,,,,,,,,,,,,,13,,,62,76
35040,note_on,,0,0,12,,,,,,,,,,,,,,,15,,,79,76
35040,note_on,,16,0,6,,,,,,,,,,,,,,,1,,,86,76
35040,note_on,,16,0,5,,,,,,,,,,,,,,,0,,,86,76
35144,note_on,,104,0,9,,,,,,,,,,,,,,,12,,,71,0
35160,note_on,,16,0,9,,,,,,,,,,,,,,,12,,,72,76
35264,note_on,,104,0,9,,,,,,,,,,,,,,,12,,,72,0
35264,note_on,,224,0,5,,,,,,,,,,,,,,,0,,,86,0
35264,note_on,,224,0,8,,,,,,,,,,,,,,,11,,,86,0
35264,note_on,,224,0,6,,,,,,,,,,,,,,,1,,,86,0
35264,note_on,,224,0,7,,,,,,,,,,,,,,,2,,,59,0
35264,note_on,,224,0,11,,,,,,,,,,,,,,,14,,,59,0
35264,note_on,,224,0,10,,,,,,,,,,,,,,,13,,,62,0
35279,note_on,,0,0,12,,,,,,,,,,,,,,,15,,,79,0
35279,note_on,,0,0,12,,,,,,,,,,,,,,,15,,,59,0
35279,note_on,,0,0,12,,,,,,,,,,,,,,,15,,,74,0
35279,note_on,,239,0,12,,,,,,,,,,,,,,,15,,,71,0
35280,note_on,,16,0,7,,,,,,,,,,,,,,,2,,,59,76
35280,note_on,,16,0,8,,,,,,,,,,,,,,,11,,,80,76
35280,note_on,,16,0,5,,,,,,,,,,,,,,,0,,,80,76
35280,note_on,,16,0,10,,,,,,,,,,,,,,,13,,,62,76
35280,note_on,,1,0,12,,,,,,,,,,,,,,,15,,,71,76
35280,note_on,,0,0,12,,,,,,,,,,,,,,,15,,,59,76
35280,note_on,,0,0,12,,,,,,,,,,,,,,,15,,,74,76
35280,note_on,,0,0,12,,,,,,,,,,,,,,,15,,,80,76
35280,note_on,,16,0,9,,,,,,,,,,,,,,,12,,,71,76
35280,note_on,,16,0,6,,,,,,,,,,,,,,,1,,,80,76
35280,note_on,,16,0,11,,,,,,,,,,,,,,,14,,,59,76
35384,note_on,,104,0,9,,,,,,,,,,,,,,,12,,,71,0
35384,note_on,,104,0,5,,,,,,,,,,,,,,,0,,,80,0
35384,note_on,,104,0,11,,,,,,,,,,,,,,,14,,,59,0
35384,note_on,,104,0,7,,,,,,,,,,,,,,,2,,,59,0
35384,note_on,,104,0,8,,,,,,,,,,,,,,,11,,,80,0
35384,note_on,,104,0,6,,,,,,,,,,,,,,,1,,,80,0
35384,note_on,,104,0,10,,,,,,,,,,,,,,,13,,,62,0
35399,note_on,,0,0,12,,,,,,,,,,,,,,,15,,,74,0
35399,note_on,,0,0,12,,,,,,,,,,,,,,,15,,,59,0
35399,note_on,,119,0,12,,,,,,,,,,,,,,,15,,,71,0
35399,note_on,,0,0,12,,,,,,,,,,,,,,,15,,,80,0
35400,note_on,,16,0,11,,,,,,,,,,,,,,,14,,,60,76
35400,note_on,,16,0,8,,,,,,,,,,,,,,,11,,,81,76
35400,note_on,,0,0,12,,,,,,,,,,,,,,,15,,,80,76
35400,note_on,,16,0,5,,,,,,,,,,,,,,,0,,,81,76
35400,note_on,,16,0,9,,,,,,,,,,,,,,,12,,,69,76
35400,note_on,,16,0,6,,,,,,,,,,,,,,,1,,,81,76
35400,note_on,,1,0,12,,,,,,,,,,,,,,,15,,,60,76
35400,note_on,,0,0,12,,,,,,,,,,,,,,,15,,,72,76
35400,note_on,,0,0,12,,,,,,,,,,,,,,,15,,,76,76
35400,note_on,,16,0,7,,,,,,,,,,,,,,,2,,,60,76
35400,note_on,,16,0,10,,,,,,,,,,,,,,,13,,,64,76
35504,note_on,,104,0,10,,,,,,,,,,,,,,,13,,,64,0
35504,note_on,,104,0,7,,,,,,,,,,,,,,,2,,,60,0
35504,note_on,,104,0,11,,,,,,,,,,,,,,,14,,,60,0
35504,note_on,,104,0,5,,,,,,,,,,,,,,,0,,,81,0
35504,note_on,,104,0,6,,,,,,,,,,,,,,,1,,,81,0
35504,note_on,,104,0,9,,,,,,,,,,,,,,,12,,,69,0
35504,note_on,,104,0,8,,,,,,,,,,,,,,,11,,,81,0
35519,note_on,,0,0,12,,,,,,,,,,,,,,,15,,,72,0
35519,note_on,,0,0,12,,,,,,,,,,,,,,,15,,,80,0
35519,note_on,,0,0,12,,,,,,,,,,,,,,,15,,,76,0
35519,note_on,,119,0,12,,,,,,,,,,,,,,,15,,,60,0
35520,note_on,,16,0,9,,,,,,,,,,,,,,,12,,,68,76
35520,note_on,,0,0,12,,,,,,,,,,,,,,,15,,,77,76
35520,note_on,,16,0,11,,,,,,,,,,,,,,,14,,,62,76
35520,note_on,,0,0,12,,,,,,,,,,,,,,,15,,,74,76
35520,note_on,,0,0,12,,,,,,,,,,,,,,,15,,,62,76
35520,note_on,,1,0,12,,,,,,,,,,,,,,,15,,,80,76
35520,note_on,,16,0,7,,,,,,,,,,,,,,,2,,,62,76
35520,note_on,,16,0,8,,,,,,,,,,,,,,,11,,,83,76
35520,note_on,,16,0,10,,,,,,,,,,,,,,,13,,,65,76
35520,note_on,,16,0,6,,,,,,,,,,,,,,,1,,,83,76
35520,note_on,,16,0,5,,,,,,,,,,,,,,,0,,,83,76
35744,note_on,,224,0,9,,,,,,,,,,,,,,,12,,,68,0
35744,note_on,,224,0,6,,,,,,,,,,,,,,,1,,,83,0
35744,note_on,,224,0,10,,,,,,,,,,,,,,,13,,,65,0
35744,note_on,,224,0,5,,,,,,,,,,,,,,,0,,,83,0
35744,note_on,,224,0,8,,,,,,,,,,,,,,,11,,,83,0
35759,note_on,,239,0,11,,,,,,,,,,,,,,,14,,,62,0
35759,note_on,,239,0,7,,,,,,,,,,,,,,,2,,,62,0
35759,note_on,,239,0,12,,,,,,,,,,,,,,,15,,,80,0
35759,note_on,,0,0,12,,,,,,,,,,,,,,,15,,,77,0
35759,note_on,,0,0,12,,,,,,,,,,,,,,,15,,,62,0
35759,note_on,,0,0,12,,,,,,,,,,,,,,,15,,,74,0
35760,note_on,,16,0,9,,,,,,,,,,,,,,,12,,,59,76
35760,note_on,,16,0,6,,,,,,,,,,,,,,,1,,,74,76
35760,note_on,,16,0,8,,,,,,,,,,,,,,,11,,,74,76
35760,note_on,,16,0,5,,,,,,,,,,,,,,,0,,,74,76
35760,note_on,,16,0,10,,,,,,,,,,,,,,,13,,,59,76
35864,note_on,,104,0,6,,,,,,,,,,,,,,,1,,,74,0
35864,note_on,,104,0,5,,,,,,,,,,,,,,,0,,,74,0
35864,note_on,,104,0,10,,,,,,,,,,,,,,,13,,,59,0
35864,note_on,,104,0,9,,,,,,,,,,,,,,,12,,,59,0
35864,note_on,,104,0,8,,,,,,,,,,,,,,,11,,,74,0
35880,note_on,,16,0,5,,,,,,,,,,,,,,,0,,,76,76
35880,note_on,,16,0,9,,,,,,,,,,,,,,,12,,,60,76
35880,note_on,,16,0,10,,,,,,,,,,,,,,,13,,,60,76
35880,note_on,,16,0,8,,,,,,,,,,,,,,,11,,,76,76
35880,note_on,,16,0,6,,,,,,,,,,,,,,,1,,,76,76
35984,note_on,,104,0,8,,,,,,,,,,,,,,,11,,,76,0
35984,note_on,,104,0,5,,,,,,,,,,,,,,,0,,,76,0
35984,note_on,,104,0,6,,,,,,,,,,,,,,,1,,,76,0
35984,note_on,,104,0,10,,,,,,,,,,,,,,,13,,,60,0
35984,note_on,,104,0,9,,,,,,,,,,,,,,,12,,,60,0
36000,note_on,,16,0,5,,,,,,,,,,,,,,,0,,,77,76
36000,note_on,,16,0,8,,,,,,,,,,,,,,,11,,,77,76
36000,note_on,,16,0,10,,,,,,,,,,,,,,,13,,,62,76
36000,note_on,,16,0,6,,,,,,,,,,,,,,,1,,,77,76
36000,note_on,,16,0,9,,,,,,,,,,,,,,,12,,,62,76
36224,note_on,,224,0,9,,,,,,,,,,,,,,,12,,,62,0
36224,note_on,,224,0,5,,,,,,,,,,,,,,,0,,,77,0
36224,note_on,,224,0,10,,,,,,,,,,,,,,,13,,,62,0
36224,note_on,,224,0,6,,,,,,,,,,,,,,,1,,,77,0
36224,note_on,,224,0,8,,,,,,,,,,,,,,,11,,,77,0
36240,note_on,,16,0,5,,,,,,,,,,,,,,,0,,,71,76
36240,note_on,,16,0,6,,,,,,,,,,,,,,,1,,,71,76
36240,note_on,,16,0,8,,,,,,,,,,,,,,,11,,,71,76
36240,note_on,,16,0,10,,,,,,,,,,,,,,,13,,,62,76
36240,note_on,,16,0,9,,,,,,,,,,,,,,,12,,,62,76
36344,note_on,,104,0,6,,,,,,,,,,,,,,,1,,,71,0
36344,note_on,,104,0,8,,,,,,,,,,,,,,,11,,,71,0
36344,note_on,,104,0,10,,,,,,,,,,,,,,,13,,,62,0
36344,note_on,,104,0,5,,,,,,,,,,,,,,,0,,,71,0
36344,note_on,,104,0,9,,,,,,,,,,,,,,,12,,,62,0
36360,note_on,,16,0,9,,,,,,,,,,,,,,,12,,,64,76
36360,note_on,,16,0,6,,,,,,,,,,,,,,,1,,,72,76
36360,note_on,,16,0,5,,,,,,,,,,,,,,,0,,,72,76
36360,note_on,,16,0,8,,,,,,,,,,,,,,,11,,,72,76
36360,note_on,,16,0,10,,,,,,,,,,,,,,,13,,,64,76
36464,note_on,,104,0,5,,,,,,,,,,,,,,,0,,,72,0
36464,note_on,,104,0,9,,,,,,,,,,,,,,,12,,,64,0
36464,note_on,,104,0,8,,,,,,,,,,,,,,,11,,,72,0
36464,note_on,,104,0,10,,,,,,,,,,,,,,,13,,,64,0
36464,note_on,,104,0,6,,,,,,,,,,,,,,,1,,,72,0
36480,note_on,,16,0,5,,,,,,,,,,,,,,,0,,,74,76
36480,note_on,,16,0,6,,,,,,,,,,,,,,,1,,,74,76
36480,note_on,,16,0,8,,,,,,,,,,,,,,,11,,,74,76
36480,note_on,,16,0,9,,,,,,,,,,,,,,,12,,,65,76
36480,note_on,,16,0,10,,,,,,,,,,,,,,,13,,,65,76
36704,note_on,,224,0,9,,,,,,,,,,,,,,,12,,,65,0
36704,note_on,,224,0,8,,,,,,,,,,,,,,,11,,,74,0
36704,note_on,,224,0,10,,,,,,,,,,,,,,,13,,,65,0
36704,note_on,,224,0,5,,,,,,,,,,,,,,,0,,,74,0
36704,note_on,,224,0,6,,,,,,,,,,,,,,,1,,,74,0
36720,note_on,,0,0,12,,,,,,,,,,,,,,,15,,,62,76
36720,note_on,,0,0,12,,,,,,,,,,,,,,,15,,,71,76
36720,note_on,,0,0,12,,,,,,,,,,,,,,,15,,,64,76
36720,note_on,,16,0,6,,,,,,,,,,,,,,,1,,,68,76
36720,note_on,,16,0,8,,,,,,,,,,,,,,,11,,,68,76
36720,note_on,,961,0,12,,,,,,,,,,,,,,,15,,,68,76
36720,note_on,,961,0,7,,,,,,,,,,,,,,,2,,,50,76
36720,note_on,,16,0,5,,,,,,,,,,,,,,,0,,,68,76
36720,note_on,,16,0,9,,,,,,,,,,,,,,,12,,,64,76
36720,note_on,,961,0,11,,,,,,,,,,,,,,,14,,,50,76
36720,note_on,,16,0,10,,,,,,,,,,,,,,,13,,,59,76
36720,note_on,,0,0,12,,,,,,,,,,,,,,,15,,,50,76
36944,note_on,,224,0,7,,,,,,,,,,,,,,,2,,,50,0
36944,note_on,,224,0,5,,,,,,,,,,,,,,,0,,,68,0
36944,note_on,,224,0,11,,,,,,,,,,,,,,,14,,,50,0
36944,note_on,,224,0,9,,,,,,,,,,,,,,,12,,,64,0
36944,note_on,,224,0,6,,,,,,,,,,,,,,,1,,,68,0
36944,note_on,,224,0,8,,,,,,,,,,,,,,,11,,,68,0
36944,note_on,,224,0,10,,,,,,,,,,,,,,,13,,,59,0
36959,note_on,,0,0,12,,,,,,,,,,,,,,,15,,,64,0
36959,note_on,,0,0,12,,,,,,,,,,,,,,,15,,,71,0
36959,note_on,,0,0,12,,,,,,,,,,,,,,,15,,,62,0
36959,note_on,,0,0,12,,,,,,,,,,,,,,,15,,,50,0
36959,note_on,,239,0,12,,,,,,,,,,,,,,,15,,,68,0
36960,note_on,,16,0,10,,,,,,,,,,,,,,,13,,,60,76
36960,note_on,,16,0,11,,,,,,,,,,,,,,,14,,,48,76
36960,note_on,,16,0,7,,,,,,,,,,,,,,,2,,,48,76
36960,note_on,,16,0,8,,,,,,,,,,,,,,,11,,,69,76
36960,note_on,,16,0,6,,,,,,,,,,,,,,,1,,,69,76
36960,note_on,,16,0,9,,,,,,,,,,,,,,,12,,,64,76
36960,note_on,,1,0,12,,,,,,,,,,,,,,,15,,,69,76
36960,note_on,,0,0,12,,,,,,,,,,,,,,,15,,,60,76
36960,note_on,,0,0,12,,,,,,,,,,,,,,,15,,,48,76
36960,note_on,,0,0,12,,,,,,,,,,,,,,,15,,,64,76
36960,note_on,,16,0,5,,,,,,,,,,,,,,,0,,,69,76
37064,note_on,,104,0,7,,,,,,,,,,,,,,,2,,,48,0
37064,note_on,,104,0,11,,,,,,,,,,,,,,,14,,,48,0
37079,note_on,,0,0,12,,,,,,,,,,,,,,,15,,,64,0
37079,note_on,,119,0,12,,,,,,,,,,,,,,,15,,,69,0
37079,note_on,,0,0,12,,,,,,,,,,,,,,,15,,,60,0
37079,note_on,,0,0,12,,,,,,,,,,,,,,,15,,,48,0
37080,note_on,,1,0,12,,,,,,,,,,,,,,,15,,,59,76
37080,note_on,,0,0,12,,,,,,,,,,,,,,,15,,,62,76
37080,note_on,,0,0,12,,,,,,,,,,,,,,,15,,,47,76
37080,note_on,,0,0,12,,,,,,,,,,,,,,,15,,,65,76
37080,note_on,,16,0,11,,,,,,,,,,,,,,,14,,,47,76
37080,note_on,,16,0,7,,,,,,,,,,,,,,,2,,,47,76
37184,note_on,,224,0,10,,,,,,,,,,,,,,,13,,,60,0
37184,note_on,,104,0,11,,,,,,,,,,,,,,,14,,,47,0
37184,note_on,,104,0,7,,,,,,,,,,,,,,,2,,,47,0
37184,note_on,,224,0,9,,,,,,,,,,,,,,,12,,,64,0
37199,note_on,,0,0,12,,,,,,,,,,,,,,,15,,,62,0
37199,note_on,,0,0,12,,,,,,,,,,,,,,,15,,,65,0
37199,note_on,,0,0,12,,,,,,,,,,,,,,,15,,,47,0
37199,note_on,,119,0,12,,,,,,,,,,,,,,,15,,,59,0
37200,note_on,,0,0,12,,,,,,,,,,,,,,,15,,,69,76
37200,note_on,,16,0,11,,,,,,,,,,,,,,,14,,,48,76
37200,note_on,,1,0,12,,,,,,,,,,,,,,,15,,,64,76
37200,note_on,,16,0,10,,,,,,,,,,,,,,,13,,,64,76
37200,note_on,,16,0,9,,,,,,,,,,,,,,,12,,,69,76
37200,note_on,,0,0,12,,,,,,,,,,,,,,,15,,,48,76
37200,note_on,,0,0,12,,,,,,,,,,,,,,,15,,,60,76
37200,note_on,,16,0,7,,,,,,,,,,,,,,,2,,,48,76
37304,note_on,,344,0,8,,,,,,,,,,,,,,,11,,,69,0
37304,note_on,,344,0,5,,,,,,,,,,,,,,,0,,,69,0
37304,note_on,,104,0,11,,,,,,,,,,,,,,,14,,,48,0
37304,note_on,,344,0,6,,,,,,,,,,,,,,,1,,,69,0
37304,note_on,,104,0,7,,,,,,,,,,,,,,,2,,,48,0
37319,note_on,,0,0,12,,,,,,,,,,,,,,,15,,,60,0
37319,note_on,,0,0,12,,,,,,,,,,,,,,,15,,,69,0
37319,note_on,,0,0,12,,,,,,,,,,,,,,,15,,,48,0
37319,note_on,,119,0,12,,,,,,,,,,,,,,,15,,,64,0
37320,note_on,,1,0,12,,,,,,,,,,,,,,,15,,,65,76
37320,note_on,,0,0,12,,,,,,,,,,,,,,,15,,,62,76
37320,note_on,,0,0,12,,,,,,,,,,,,,,,15,,,50,76
37320,note_on,,0,0,12,,,,,,,,,,,,,,,15,,,69,76
37320,note_on,,16,0,7,,,,,,,,,,,,,,,2,,,50,76
37320,note_on,,16,0,5,,,,,,,,,,,,,,,0,,,71,76
37320,note_on,,16,0,8,,,,,,,,,,,,,,,11,,,71,76
37320,note_on,,16,0,6,,,,,,,,,,,,,,,1,,,71,76
37320,note_on,,16,0,11,,,,,,,,,,,,,,,14,,,50,76
37424,note_on,,104,0,5,,,,,,,,,,,,,,,0,,,71,0
37424,note_on,,104,0,6,,,,,,,,,,,,,,,1,,,71,0
37424,note_on,,104,0,11,,,,,,,,,,,,,,,14,,,50,0
37424,note_on,,104,0,8,,,,,,,,,,,,,,,11,,,71,0
37424,note_on,,224,0,10,,,,,,,,,,,,,,,13,,,64,0
37424,note_on,,104,0,7,,,,,,,,,,,,,,,2,,,50,0
37424,note_on,,224,0,9,,,,,,,,,,,,,,,12,,,69,0
37439,note_on,,119,0,12,,,,,,,,,,,,,,,15,,,65,0
37439,note_on,,0,0,12,,,,,,,,,,,,,,,15,,,62,0
37439,note_on,,0,0,12,,,,,,,,,,,,,,,15,,,50,0
37439,note_on,,0,0,12,,,,,,,,,,,,,,,15,,,69,0
37440,note_on,,16,0,11,,,,,,,,,,,,,,,14,,,52,76
37440,note_on,,16,0,8,,,,,,,,,,,,,,,11,,,71,76
37440,note_on,,1,0,12,,,,,,,,,,,,,,,15,,,68,76
37440,note_on,,0,0,12,,,,,,,,,,,,,,,15,,,52,76
37440,note_on,,0,0,12,,,,,,,,,,,,,,,15,,,71,76
37440,note_on,,0,0,12,,,,,,,,,,,,,,,15,,,64,76
37440,note_on,,16,0,10,,,,,,,,,,,,,,,13,,,64,76
37440,note_on,,16,0,9,,,,,,,,,,,,,,,12,,,68,76
37440,note_on,,16,0,7,,,,,,,,,,,,,,,2,,,52,76
37440,note_on,,16,0,5,,,,,,,,,,,,,,,0,,,71,76
37440,note_on,,16,0,6,,,,,,,,,,,,,,,1,,,71,76
37664,note_on,,224,0,11,,,,,,,,,,,,,,,14,,,52,0
37664,note_on,,224,0,10,,,,,,,,,,,,,,,13,,,64,0
37664,note_on,,224,0,7,,,,,,,,,,,,,,,2,,,52,0
37679,note_on,,0,0,12,,,,,,,,,,,,,,,15,,,52,0
37679,note_on,,239,0,12,,,,,,,,,,,,,,,15,,,68,0
37679,note_on,,0,0,12,,,,,,,,,,,,,,,15,,,64,0
37679,note_on,,0,0,12,,,,,,,,,,,,,,,15,,,71,0
37680,note_on,,16,0,11,,,,,,,,,,,,,,,14,,,40,76
37680,note_on,,0,0,12,,,,,,,,,,,,,,,15,,,40,76
37680,note_on,,0,0,12,,,,,,,,,,,,,,,15,,,52,76
37680,note_on,,0,0,12,,,,,,,,,,,,,,,15,,,59,76
37680,note_on,,1,0,12,,,,,,,,,,,,,,,15,,,56,76
37680,note_on,,16,0,7,,,,,,,,,,,,,,,2,,,40,76
37680,note_on,,16,0,10,,,,,,,,,,,,,,,13,,,59,76
37784,note_on,,344,0,5,,,,,,,,,,,,,,,0,,,71,0
37784,note_on,,344,0,6,,,,,,,,,,,,,,,1,,,71,0
37784,note_on,,344,0,8,,,,,,,,,,,,,,,11,,,71,0
37784,note_on,,344,0,9,,,,,,,,,,,,,,,12,,,68,0
37800,note_on,,16,0,9,,,,,,,,,,,,,,,12,,,64,76
37800,note_on,,16,0,6,,,,,,,,,,,,,,,1,,,69,76
37800,note_on,,16,0,5,,,,,,,,,,,,,,,0,,,69,76
37800,note_on,,16,0,8,,,,,,,,,,,,,,,11,,,69,76
37904,note_on,,104,0,9,,,,,,,,,,,,,,,12,,,64,0
37904,note_on,,104,0,6,,,,,,,,,,,,,,,1,,,69,0
37904,note_on,,104,0,5,,,,,,,,,,,,,,,0,,,69,0
37904,note_on,,224,0,7,,,,,,,,,,,,,,,2,,,40,0
37904,note_on,,104,0,8,,,,,,,,,,,,,,,11,,,69,0
37904,note_on,,224,0,10,,,,,,,,,,,,,,,13,,,59,0
37904,note_on,,224,0,11,,,,,,,,,,,,,,,14,,,40,0
37919,note_on,,239,0,12,,,,,,,,,,,,,,,15,,,56,0
37919,note_on,,0,0,12,,,,,,,,,,,,,,,15,,,59,0
37919,note_on,,0,0,12,,,,,,,,,,,,,,,15,,,52,0
37919,note_on,,0,0,12,,,,,,,,,,,,,,,15,,,40,0
37920,note_on,,0,0,12,,,,,,,,,,,,,,,15,,,64,76
37920,note_on,,0,0,12,,,,,,,,,,,,,,,15,,,57,76
37920,note_on,,0,0,12,,,,,,,,,,,,,,,15,,,60,76
37920,note_on,,16,0,8,,,,,,,,,,,,,,,11,,,69,76
37920,note_on,,16,0,10,,,,,,,,,,,,,,,13,,,60,76
37920,note_on,,16,0,9,,,,,,,,,,,,,,,12,,,64,76
37920,note_on,,1,0,12,,,,,,,,,,,,,,,15,,,45,76
37920,note_on,,16,0,7,,,,,,,,,,,,,,,2,,,45,76
37920,note_on,,16,0,5,,,,,,,,,,,,,,,0,,,69,76
37920,note_on,,16,0,11,,,,,,,,,,,,,,,14,,,45,76
37920,note_on,,16,0,6,,,,,,,,,,,,,,,1,,,69,76
38144,note_on,,224,0,11,,,,,,,,,,,,,,,14,,,45,0
38144,note_on,,224,0,7,,,,,,,,,,,,,,,2,,,45,0
38159,note_on,,239,0,12,,,,,,,,,,,,,,,15,,,45,0
38159,note_on,,0,0,12,,,,,,,,,,,,,,,15,,,57,0
38159,note_on,,0,0,12,,,,,,,,,,,,,,,15,,,60,0
38159,note_on,,0,0,12,,,,,,,,,,,,,,,15,,,64,0
38160,note_on,,0,0,12,,,,,,,,,,,,,,,15,,,64,76
38160,note_on,,16,0,7,,,,,,,,,,,,,,,2,,,52,76
38160,note_on,,0,0,12,,,,,,,,,,,,,,,15,,,71,76
38160,note_on,,0,0,12,,,,,,,,,,,,,,,15,,,52,76
38160,note_on,,1,0,12,,,,,,,,,,,,,,,15,,,67,76
38160,note_on,,16,0,11,,,,,,,,,,,,,,,14,,,52,76
38384,note_on,,224,0,11,,,,,,,,,,,,,,,14,,,52,0
38384,note_on,,224,0,7,,,,,,,,,,,,,,,2,,,52,0
38399,note_on,,239,0,12,,,,,,,,,,,,,,,15,,,67,0
38399,note_on,,0,0,12,,,,,,,,,,,,,,,15,,,64,0
38399,note_on,,0,0,12,,,,,,,,,,,,,,,15,,,71,0
38399,note_on,,0,0,12,,,,,,,,,,,,,,,15,,,52,0
38400,note_on,,0,0,12,,,,,,,,,,,,,,,15,,,69,76
38400,note_on,,0,0,12,,,,,,,,,,,,,,,15,,,76,76
38400,note_on,,16,0,11,,,,,,,,,,,,,,,14,,,57,76
38400,note_on,,16,0,7,,,,,,,,,,,,,,,2,,,57,76
38400,note_on,,0,0,12,,,,,,,,,,,,,,,15,,,57,76
38400,note_on,,1,0,12,,,,,,,,,,,,,,,15,,,72,76
38624,note_on,,704,0,6,,,,,,,,,,,,,,,1,,,69,0
38624,note_on,,704,0,8,,,,,,,,,,,,,,,11,,,69,0
38624,note_on,,704,0,5,,,,,,,,,,,,,,,0,,,69,0
38639,note_on,,719,0,10,,,,,,,,,,,,,,,13,,,60,0
38639,note_on,,0,0,12,,,,,,,,,,,,,,,15,,,76,0
38639,note_on,,0,0,12,,,,,,,,,,,,,,,15,,,69,0
38639,note_on,,0,0,12,,,,,,,,,,,,,,,15,,,57,0
38639,note_on,,239,0,11,,,,,,,,,,,,,,,14,,,57,0
38639,note_on,,239,0,7,,,,,,,,,,,,,,,2,,,57,0
38639,note_on,,239,0,12,,,,,,,,,,,,,,,15,,,72,0
38639,note_on,,719,0,9,,,,,,,,,,,,,,,12,,,64,0
38640,note_on,,16,0,5,,,,,,,,,,,,,,,0,,,76,76
38640,note_on,,16,0,8,,,,,,,,,,,,,,,11,,,76,76
38640,note_on,,16,0,6,,,,,,,,,,,,,,,1,,,76,76
38744,note_on,,104,0,8,,,,,,,,,,,,,,,11,,,76,0
38744,note_on,,104,0,5,,,,,,,,,,,,,,,0,,,76,0
38744,note_on,,104,0,6,,,,,,,,,,,,,,,1,,,76,0
38760,note_on,,16,0,8,,,,,,,,,,,,,,,11,,,77,76
38760,note_on,,16,0,5,,,,,,,,,,,,,,,0,,,77,76
38760,note_on,,16,0,6,,,,,,,,,,,,,,,1,,,77,76
38864,note_on,,104,0,8,,,,,,,,,,,,,,,11,,,77,0
38864,note_on,,104,0,5,,,,,,,,,,,,,,,0,,,77,0
38864,note_on,,104,0,6,,,,,,,,,,,,,,,1,,,77,0
38880,note_on,,16,0,8,,,,,,,,,,,,,,,11,,,79,76
38880,note_on,,16,0,5,,,,,,,,,,,,,,,0,,,79,76
38880,note_on,,16,0,6,,,,,,,,,,,,,,,1,,,79,76
39104,note_on,,224,0,5,,,,,,,,,,,,,,,0,,,79,0
39104,note_on,,224,0,6,,,,,,,,,,,,,,,1,,,79,0
39104,note_on,,224,0,8,,,,,,,,,,,,,,,11,,,79,0
39120,note_on,,481,0,12,,,,,,,,,,,,,,,15,,,48,76
39120,note_on,,0,0,12,,,,,,,,,,,,,,,15,,,60,76
39120,note_on,,16,0,8,,,,,,,,,,,,,,,11,,,84,76
39120,note_on,,0,0,12,,,,,,,,,,,,,,,15,,,64,76
39120,note_on,,0,0,12,,,,,,,,,,,,,,,15,,,67,76
39120,note_on,,16,0,6,,,,,,,,,,,,,,,1,,,84,76
39120,note_on,,481,0,9,,,,,,,,,,,,,,,12,,,79,76
39120,note_on,,16,0,5,,,,,,,,,,,,,,,0,,,84,76
39120,note_on,,481,0,11,,,,,,,,,,,,,,,14,,,48,76
39120,note_on,,481,0,10,,,,,,,,,,,,,,,13,,,64,76
39120,note_on,,481,0,7,,,,,,,,,,,,,,,2,,,48,76
39224,note_on,,104,0,11,,,,,,,,,,,,,,,14,,,48,0
39224,note_on,,104,0,10,,,,,,,,,,,,,,,13,,,64,0
39224,note_on,,104,0,9,,,,,,,,,,,,,,,12,,,79,0
39224,note_on,,104,0,7,,,,,,,,,,,,,,,2,,,48,0
39239,note_on,,0,0,12,,,,,,,,,,,,,,,15,,,64,0
39239,note_on,,0,0,12,,,,,,,,,,,,,,,15,,,60,0
39239,note_on,,119,0,12,,,,,,,,,,,,,,,15,,,48,0
39239,note_on,,0,0,12,,,,,,,,,,,,,,,15,,,67,0
39240,note_on,,1,0,12,,,,,,,,,,,,,,,15,,,62,76
39240,note_on,,0,0,12,,,,,,,,,,,,,,,15,,,69,76
39240,note_on,,0,0,12,,,,,,,,,,,,,,,15,,,65,76
39240,note_on,,0,0,12,,,,,,,,,,,,,,,15,,,50,76
39240,note_on,,16,0,11,,,,,,,,,,,,,,,14,,,50,76
39240,note_on,,16,0,7,,,,,,,,,,,,,,,2,,,50,76
39240,note_on,,16,0,9,,,,,,,,,,,,,,,12,,,77,76
39240,note_on,,16,0,10,,,,,,,,,,,,,,,13,,,65,76
39344,note_on,,104,0,11,,,,,,,,,,,,,,,14,,,50,0
39344,note_on,,104,0,9,,,,,,,,,,,,,,,12,,,77,0
39344,note_on,,104,0,7,,,,,,,,,,,,,,,2,,,50,0
39344,note_on,,104,0,10,,,,,,,,,,,,,,,13,,,65,0
39359,note_on,,0,0,12,,,,,,,,,,,,,,,15,,,50,0
39359,note_on,,119,0,12,,,,,,,,,,,,,,,15,,,62,0
39359,note_on,,0,0,12,,,,,,,,,,,,,,,15,,,69,0
39359,note_on,,0,0,12,,,,,,,,,,,,,,,15,,,65,0
39360,note_on,,16,0,9,,,,,,,,,,,,,,,12,,,76,76
39360,note_on,,0,0,12,,,,,,,,,,,,,,,15,,,67,76
39360,note_on,,0,0,12,,,,,,,,,,,,,,,15,,,52,76
39360,note_on,,16,0,7,,,,,,,,,,,,,,,2,,,52,76
39360,note_on,,16,0,11,,,,,,,,,,,,,,,14,,,52,76
39360,note_on,,0,0,12,,,,,,,,,,,,,,,15,,,72,76
39360,note_on,,1,0,12,,,,,,,,,,,,,,,15,,,64,76
39360,note_on,,16,0,10,,,,,,,,,,,,,,,13,,,67,76
39464,note_on,,104,0,9,,,,,,,,,,,,,,,12,,,76,0
39480,note_on,,16,0,9,,,,,,,,,,,,,,,12,,,74,76
39584,note_on,,224,0,10,,,,,,,,,,,,,,,13,,,67,0
39584,note_on,,104,0,9,,,,,,,,,,,,,,,12,,,74,0
39584,note_on,,464,0,5,,,,,,,,,,,,,,,0,,,84,0
39584,note_on,,464,0,6,,,,,,,,,,,,,,,1,,,84,0
39584,note_on,,224,0,7,,,,,,,,,,,,,,,2,,,52,0
39584,note_on,,464,0,8,,,,,,,,,,,,,,,11,,,84,0
39584,note_on,,224,0,11,,,,,,,,,,,,,,,14,,,52,0
39599,note_on,,0,0,12,,,,,,,,,,,,,,,15,,,72,0
39599,note_on,,239,0,12,,,,,,,,,,,,,,,15,,,64,0
39599,note_on,,0,0,12,,,,,,,,,,,,,,,15,,,67,0
39599,note_on,,0,0,12,,,,,,,,,,,,,,,15,,,52,0
39600,note_on,,16,0,10,,,,,,,,,,,,,,,13,,,67,76
39600,note_on,,16,0,9,,,,,,,,,,,,,,,12,,,76,76
39600,note_on,,1,0,12,,,,,,,,,,,,,,,15,,,52,76
39600,note_on,,0,0,12,,,,,,,,,,,,,,,15,,,64,76
39600,note_on,,0,0,12,,,,,,,,,,,,,,,15,,,67,76
39600,note_on,,0,0,12,,,,,,,,,,,,,,,15,,,72,76
39600,note_on,,16,0,8,,,,,,,,,,,,,,,11,,,79,76
39600,note_on,,16,0,5,,,,,,,,,,,,,,,0,,,79,76
39600,note_on,,16,0,7,,,,,,,,,,,,,,,2,,,52,76
39600,note_on,,16,0,6,,,,,,,,,,,,,,,1,,,79,76
39600,note_on,,16,0,11,,,,,,,,,,,,,,,14,,,52,76
39704,note_on,,104,0,7,,,,,,,,,,,,,,,2,,,52,0
39704,note_on,,104,0,11,,,,,,,,,,,,,,,14,,,52,0
39704,note_on,,104,0,9,,,,,,,,,,,,,,,12,,,76,0
39704,note_on,,104,0,10,,,,,,,,,,,,,,,13,,,67,0
39719,note_on,,0,0,12,,,,,,,,,,,,,,,15,,,72,0
39719,note_on,,0,0,12,,,,,,,,,,,,,,,15,,,67,0
39719,note_on,,0,0,12,,,,,,,,,,,,,,,15,,,64,0
39719,note_on,,119,0,12,,,,,,,,,,,,,,,15,,,52,0
39720,note_on,,0,0,12,,,,,,,,,,,,,,,15,,,72,76
39720,note_on,,0,0,12,,,,,,,,,,,,,,,15,,,69,76
39720,note_on,,1,0,12,,,,,,,,,,,,,,,15,,,65,76
39720,note_on,,16,0,9,,,,,,,,,,,,,,,12,,,72,76
39720,note_on,,0,0,12,,,,,,,,,,,,,,,15,,,53,76
39720,note_on,,16,0,11,,,,,,,,,,,,,,,14,,,53,76
39720,note_on,,16,0,10,,,,,,,,,,,,,,,13,,,69,76
39720,note_on,,16,0,7,,,,,,,,,,,,,,,2,,,53,76
39824,note_on,,104,0,9,,,,,,,,,,,,,,,12,,,72,0
39824,note_on,,104,0,10,,,,,,,,,,,,,,,13,,,69,0
39824,note_on,,104,0,7,,,,,,,,,,,,,,,2,,,53,0
39824,note_on,,224,0,5,,,,,,,,,,,,,,,0,,,79,0
39824,note_on,,104,0,11,,,,,,,,,,,,,,,14,,,53,0
39824,note_on,,224,0,8,,,,,,,,,,,,,,,11,,,79,0
39824,note_on,,224,0,6,,,,,,,,,,,,,,,1,,,79,0
39839,note_on,,0,0,12,,,,,,,,,,,,,,,15,,,69,0
39839,note_on,,0,0,12,,,,,,,,,,,,,,,15,,,72,0
39839,note_on,,0,0,12,,,,,,,,,,,,,,,15,,,53,0
39839,note_on,,119,0,12,,,,,,,,,,,,,,,15,,,65,0
39840,note_on,,0,0,12,,,,,,,,,,,,,,,15,,,70,76
39840,note_on,,0,0,12,,,,,,,,,,,,,,,15,,,55,76
39840,note_on,,0,0,12,,,,,,,,,,,,,,,15,,,76,76
39840,note_on,,16,0,9,,,,,,,,,,,,,,,12,,,70,76
39840,note_on,,1,0,12,,,,,,,,,,,,,,,15,,,67,76
39840,note_on,,16,0,11,,,,,,,,,,,,,,,14,,,55,76
39840,note_on,,16,0,8,,,,,,,,,,,,,,,11,,,76,76
39840,note_on,,16,0,10,,,,,,,,,,,,,,,13,,,70,76
39840,note_on,,16,0,7,,,,,,,,,,,,,,,2,,,55,76
39840,note_on,,16,0,5,,,,,,,,,,,,,,,0,,,76,76
39840,note_on,,16,0,6,,,,,,,,,,,,,,,1,,,76,76
39944,note_on,,104,0,9,,,,,,,,,,,,,,,12,,,70,0
39944,note_on,,104,0,8,,,,,,,,,,,,,,,11,,,76,0
39944,note_on,,104,0,10,,,,,,,,,,,,,,,13,,,70,0
39944,note_on,,104,0,5,,,,,,,,,,,,,,,0,,,76,0
39944,note_on,,104,0,6,,,,,,,,,,,,,,,1,,,76,0
39960,note_on,,16,0,9,,,,,,,,,,,,,,,12,,,72,76
39960,note_on,,16,0,5,,,,,,,,,,,,,,,0,,,74,76
39960,note_on,,16,0,6,,,,,,,,,,,,,,,1,,,74,76
39960,note_on,,16,0,8,,,,,,,,,,,,,,,11,,,74,76
39960,note_on,,16,0,10,,,,,,,,,,,,,,,13,,,69,76
40064,note_on,,104,0,5,,,,,,,,,,,,,,,0,,,74,0
40064,note_on,,104,0,6,,,,,,,,,,,,,,,1,,,74,0
40064,note_on,,104,0,10,,,,,,,,,,,,,,,13,,,69,0
40064,note_on,,224,0,11,,,,,,,,,,,,,,,14,,,55,0
40064,note_on,,104,0,9,,,,,,,,,,,,,,,12,,,72,0
40064,note_on,,224,0,7,,,,,,,,,,,,,,,2,,,55,0
40064,note_on,,104,0,8,,,,,,,,,,,,,,,11,,,74,0
40079,note_on,,0,0,12,,,,,,,,,,,,,,,15,,,55,0
40079,note_on,,0,0,12,,,,,,,,,,,,,,,15,,,70,0
40079,note_on,,0,0,12,,,,,,,,,,,,,,,15,,,76,0
40079,note_on,,239,0,12,,,,,,,,,,,,,,,15,,,67,0
40080,note_on,,16,0,6,,,,,,,,,,,,,,,1,,,76,76
40080,note_on,,16,0,7,,,,,,,,,,,,,,,2,,,55,76
40080,note_on,,16,0,5,,,,,,,,,,,,,,,0,,,76,76
40080,note_on,,1,0,12,,,,,,,,,,,,,,,15,,,55,76
40080,note_on,,16,0,11,,,,,,,,,,,,,,,14,,,55,76
40080,note_on,,0,0,12,,,,,,,,,,,,,,,15,,,76,76
40080,note_on,,0,0,12,,,,,,,,,,,,,,,15,,,70,76
40080,note_on,,16,0,8,,,,,,,,,,,,,,,11,,,76,76
40080,note_on,,16,0,10,,,,,,,,,,,,,,,13,,,67,76
40080,note_on,,0,0,12,,,,,,,,,,,,,,,15,,,67,76
40080,note_on,,16,0,9,,,,,,,,,,,,,,,12,,,70,76
40184,note_on,,104,0,10,,,,,,,,,,,,,,,13,,,67,0
40184,note_on,,104,0,7,,,,,,,,,,,,,,,2,,,55,0
40184,note_on,,104,0,8,,,,,,,,,,,,,,,11,,,76,0
40184,note_on,,104,0,6,,,,,,,,,,,,,,,1,,,76,0
40184,note_on,,104,0,11,,,,,,,,,,,,,,,14,,,55,0
40184,note_on,,104,0,5,,,,,,,,,,,,,,,0,,,76,0
40184,note_on,,104,0,9,,,,,,,,,,,,,,,12,,,70,0
40199,note_on,,0,0,12,,,,,,,,,,,,,,,15,,,67,0
40199,note_on,,119,0,12,,,,,,,,,,,,,,,15,,,55,0
40199,note_on,,0,0,12,,,,,,,,,,,,,,,15,,,70,0
40199,note_on,,0,0,12,,,,,,,,,,,,,,,15,,,76,0
40200,note_on,,16,0,6,,,,,,,,,,,,,,,1,,,77,76
40200,note_on,,16,0,7,,,,,,,,,,,,,,,2,,,57,76
40200,note_on,,16,0,9,,,,,,,,,,,,,,,12,,,69,76
40200,note_on,,16,0,11,,,,,,,,,,,,,,,14,,,57,76
40200,note_on,,1,0,12,,,,,,,,,,,,,,,15,,,69,76
40200,note_on,,16,0,10,,,,,,,,,,,,,,,13,,,65,76
40200,note_on,,0,0,12,,,,,,,,,,,,,,,15,,,76,76
40200,note_on,,0,0,12,,,,,,,,,,,,,,,15,,,72,76
40200,note_on,,0,0,12,,,,,,,,,,,,,,,15,,,57,76
40200,note_on,,16,0,5,,,,,,,,,,,,,,,0,,,77,76
40200,note_on,,16,0,8,,,,,,,,,,,,,,,11,,,77,76
40304,note_on,,104,0,9,,,,,,,,,,,,,,,12,,,69,0
40304,note_on,,104,0,7,,,,,,,,,,,,,,,2,,,57,0
40304,note_on,,104,0,5,,,,,,,,,,,,,,,0,,,77,0
40304,note_on,,104,0,6,,,,,,,,,,,,,,,1,,,77,0
40304,note_on,,104,0,8,,,,,,,,,,,,,,,11,,,77,0
40304,note_on,,104,0,10,,,,,,,,,,,,,,,13,,,65,0
40304,note_on,,104,0,11,,,,,,,,,,,,,,,14,,,57,0
40319,note_on,,0,0,12,,,,,,,,,,,,,,,15,,,57,0
40319,note_on,,0,0,12,,,,,,,,,,,,,,,15,,,76,0
40319,note_on,,119,0,12,,,,,,,,,,,,,,,15,,,69,0
40319,note_on,,0,0,12,,,,,,,,,,,,,,,15,,,72,0
40320,note_on,,16,0,5,,,,,,,,,,,,,,,0,,,79,76
40320,note_on,,16,0,6,,,,,,,,,,,,,,,1,,,79,76
40320,note_on,,16,0,11,,,,,,,,,,,,,,,14,,,58,76
40320,note_on,,16,0,8,,,,,,,,,,,,,,,11,,,79,76
40320,note_on,,0,0,12,,,,,,,,,,,,,,,15,,,74,76
40320,note_on,,0,0,12,,,,,,,,,,,,,,,15,,,70,76
40320,note_on,,0,0,12,,,,,,,,,,,,,,,15,,,58,76
40320,note_on,,1,0,12,,,,,,,,,,,,,,,15,,,77,76
40320,note_on,,16,0,9,,,,,,,,,,,,,,,12,,,67,76
40320,note_on,,16,0,7,,,,,,,,,,,,,,,2,,,58,76
40320,note_on,,16,0,10,,,,,,,,,,,,,,,13,,,64,76
40544,note_on,,224,0,6,,,,,,,,,,,,,,,1,,,79,0
40544,note_on,,224,0,5,,,,,,,,,,,,,,,0,,,79,0
40544,note_on,,224,0,8,,,,,,,,,,,,,,,11,,,79,0
40544,note_on,,224,0,7,,,,,,,,,,,,,,,2,,,58,0
40544,note_on,,224,0,9,,,,,,,,,,,,,,,12,,,67,0
40544,note_on,,224,0,10,,,,,,,,,,,,,,,13,,,64,0
40544,note_on,,224,0,11,,,,,,,,,,,,,,,14,,,58,0
40559,note_on,,0,0,12,,,,,,,,,,,,,,,15,,,70,0
40559,note_on,,0,0,12,,,,,,,,,,,,,,,15,,,74,0
40559,note_on,,0,0,12,,,,,,,,,,,,,,,15,,,58,0
40559,note_on,,239,0,12,,,,,,,,,,,,,,,15,,,77,0
40560,note_on,,16,0,11,,,,,,,,,,,,,,,14,,,52,76
40560,note_on,,0,0,12,,,,,,,,,,,,,,,15,,,64,76
40560,note_on,,0,0,12,,,,,,,,,,,,,,,15,,,52,76
40560,note_on,,0,0,12,,,,,,,,,,,,,,,15,,,72,76
40560,note_on,,0,0,12,,,,,,,,,,,,,,,15,,,67,76
40560,note_on,,1,0,12,,,,,,,,,,,,,,,15,,,70,76
40560,note_on,,16,0,9,,,,,,,,,,,,,,,12,,,67,76
40560,note_on,,16,0,5,,,,,,,,,,,,,,,0,,,70,76
40560,note_on,,16,0,6,,,,,,,,,,,,,,,1,,,70,76
40560,note_on,,16,0,8,,,,,,,,,,,,,,,11,,,70,76
40560,note_on,,16,0,7,,,,,,,,,,,,,,,2,,,52,76
40560,note_on,,16,0,10,,,,,,,,,,,,,,,13,,,60,76
40784,note_on,,224,0,5,,,,,,,,,,,,,,,0,,,70,0
40784,note_on,,224,0,7,,,,,,,,,,,,,,,2,,,52,0
40784,note_on,,224,0,8,,,,,,,,,,,,,,,11,,,70,0
40784,note_on,,224,0,9,,,,,,,,,,,,,,,12,,,67,0
40784,note_on,,224,0,6,,,,,,,,,,,,,,,1,,,70,0
40784,note_on,,224,0,10,,,,,,,,,,,,,,,13,,,60,0
40784,note_on,,224,0,11,,,,,,,,,,,,,,,14,,,52,0
40799,note_on,,0,0,12,,,,,,,,,,,,,,,15,,,67,0
40799,note_on,,239,0,12,,,,,,,,,,,,,,,15,,,70,0
40799,note_on,,0,0,12,,,,,,,,,,,,,,,15,,,52,0
40799,note_on,,0,0,12,,,,,,,,,,,,,,,15,,,64,0
40799,note_on,,0,0,12,,,,,,,,,,,,,,,15,,,72,0
40800,note_on,,16,0,11,,,,,,,,,,,,,,,14,,,53,76
40800,note_on,,16,0,10,,,,,,,,,,,,,,,13,,,60,76
40800,note_on,,16,0,7,,,,,,,,,,,,,,,2,,,53,76
40800,note_on,,16,0,5,,,,,,,,,,,,,,,0,,,69,76
40800,note_on,,16,0,6,,,,,,,,,,,,,,,1,,,69,76
40800,note_on,,1,0,12,,,,,,,,,,,,,,,15,,,65,76
40800,note_on,,0,0,12,,,,,,,,,,,,,,,15,,,72,76
40800,note_on,,16,0,9,,,,,,,,,,,,,,,12,,,65,76
40800,note_on,,0,0,12,,,,,,,,,,,,,,,15,,,53,76
40800,note_on,,0,0,12,,,,,,,,,,,,,,,15,,,69,76
40800,note_on,,16,0,8,,,,,,,,,,,,,,,11,,,69,76
41024,note_on,,224,0,8,,,,,,,,,,,,,,,11,,,69,0
41024,note_on,,224,0,5,,,,,,,,,,,,,,,0,,,69,0
41024,note_on,,224,0,10,,,,,,,,,,,,,,,13,,,60,0
41024,note_on,,224,0,9,,,,,,,,,,,,,,,12,,,65,0
41024,note_on,,224,0,11,,,,,,,,,,,,,,,14,,,53,0
41024,note_on,,224,0,7,,,,,,,,,,,,,,,2,,,53,0
41024,note_on,,224,0,6,,,,,,,,,,,,,,,1,,,69,0
41039,note_on,,239,0,12,,,,,,,,,,,,,,,15,,,65,0
41039,note_on,,0,0,12,,,,,,,,,,,,,,,15,,,72,0
41039,note_on,,0,0,12,,,,,,,,,,,,,,,15,,,53,0
41039,note_on,,0,0,12,,,,,,,,,,,,,,,15,,,69,0
41040,note_on,,16,0,5,,,,,,,,,,,,,,,0,,,74,76
41040,note_on,,16,0,10,,,,,,,,,,,,,,,13,,,58,76
41040,note_on,,16,0,6,,,,,,,,,,,,,,,1,,,74,76
41040,note_on,,1,0,12,,,,,,,,,,,,,,,15,,,58,76
41040,note_on,,16,0,7,,,,,,,,,,,,,,,2,,,46,76
41040,note_on,,0,0,12,,,,,,,,,,,,,,,15,,,62,76
41040,note_on,,0,0,12,,,,,,,,,,,,,,,15,,,46,76
41040,note_on,,0,0,12,,,,,,,,,,,,,,,15,,,65,76
41040,note_on,,16,0,9,,,,,,,,,,,,,,,12,,,65,76
41040,note_on,,16,0,11,,,,,,,,,,,,,,,14,,,46,76
41040,note_on,,16,0,8,,,,,,,,,,,,,,,11,,,74,76
41144,note_on,,104,0,6,,,,,,,,,,,,,,,1,,,74,0
41144,note_on,,104,0,8,,,,,,,,,,,,,,,11,,,74,0
41144,note_on,,104,0,5,,,,,,,,,,,,,,,0,,,74,0
41144,note_on,,104,0,10,,,,,,,,,,,,,,,13,,,58,0
41160,note_on,,16,0,10,,,,,,,,,,,,,,,13,,,60,76
41160,note_on,,16,0,6,,,,,,,,,,,,,,,1,,,72,76
41160,note_on,,16,0,8,,,,,,,,,,,,,,,11,,,72,76
41160,note_on,,16,0,5,,,,,,,,,,,,,,,0,,,72,76
41264,note_on,,224,0,9,,,,,,,,,,,,,,,12,,,65,0
41264,note_on,,104,0,5,,,,,,,,,,,,,,,0,,,72,0
41264,note_on,,104,0,10,,,,,,,,,,,,,,,13,,,60,0
41264,note_on,,224,0,7,,,,,,,,,,,,,,,2,,,46,0
41264,note_on,,104,0,6,,,,,,,,,,,,,,,1,,,72,0
41264,note_on,,104,0,8,,,,,,,,,,,,,,,11,,,72,0
41264,note_on,,224,0,11,,,,,,,,,,,,,,,14,,,46,0
41279,note_on,,239,0,12,,,,,,,,,,,,,,,15,,,58,0
41279,note_on,,0,0,12,,,,,,,,,,,,,,,15,,,62,0
41279,note_on,,0,0,12,,,,,,,,,,,,,,,15,,,46,0
41279,note_on,,0,0,12,,,,,,,,,,,,,,,15,,,65,0
41280,note_on,,0,0,12,,,,,,,,,,,,,,,15,,,43,76
41280,note_on,,16,0,11,,,,,,,,,,,,,,,14,,,43,76
41280,note_on,,16,0,6,,,,,,,,,,,,,,,1,,,70,76
41280,note_on,,0,0,12,,,,,,,,,,,,,,,15,,,58,76
41280,note_on,,1,0,12,,,,,,,,,,,,,,,15,,,55,76
41280,note_on,,0,0,12,,,,,,,,,,,,,,,15,,,62,76
41280,note_on,,16,0,7,,,,,,,,,,,,,,,2,,,43,76
41280,note_on,,0,0,12,,,,,,,,,,,,,,,15,,,65,76
41280,note_on,,16,0,10,,,,,,,,,,,,,,,13,,,62,76
41280,note_on,,16,0,9,,,,,,,,,,,,,,,12,,,65,76
41280,note_on,,16,0,5,,,,,,,,,,,,,,,0,,,70,76
41280,note_on,,16,0,8,,,,,,,,,,,,,,,11,,,70,76
41384,note_on,,104,0,6,,,,,,,,,,,,,,,1,,,70,0
41384,note_on,,104,0,8,,,,,,,,,,,,,,,11,,,70,0
41384,note_on,,104,0,5,,,,,,,,,,,,,,,0,,,70,0
41400,note_on,,16,0,6,,,,,,,,,,,,,,,1,,,69,76
41400,note_on,,16,0,8,,,,,,,,,,,,,,,11,,,69,76
41400,note_on,,16,0,5,,,,,,,,,,,,,,,0,,,69,76
41504,note_on,,104,0,5,,,,,,,,,,,,,,,0,,,69,0
41504,note_on,,224,0,11,,,,,,,,,,,,,,,14,,,43,0
41504,note_on,,224,0,9,,,,,,,,,,,,,,,12,,,65,0
41504,note_on,,224,0,10,,,,,,,,,,,,,,,13,,,62,0
41504,note_on,,104,0,8,,,,,,,,,,,,,,,11,,,69,0
41504,note_on,,104,0,6,,,,,,,,,,,,,,,1,,,69,0
41504,note_on,,224,0,7,,,,,,,,,,,,,,,2,,,43,0
41519,note_on,,0,0,12,,,,,,,,,,,,,,,15,,,62,0
41519,note_on,,0,0,12,,,,,,,,,,,,,,,15,,,58,0
41519,note_on,,0,0,12,,,,,,,,,,,,,,,15,,,43,0
41519,note_on,,0,0,12,,,,,,,,,,,,,,,15,,,65,0
41519,note_on,,239,0,12,,,,,,,,,,,,,,,15,,,55,0
41520,note_on,,16,0,7,,,,,,,,,,,,,,,2,,,48,76
41520,note_on,,16,0,5,,,,,,,,,,,,,,,0,,,70,76
41520,note_on,,16,0,11,,,,,,,,,,,,,,,14,,,48,76
41520,note_on,,0,0,12,,,,,,,,,,,,,,,15,,,60,76
41520,note_on,,16,0,10,,,,,,,,,,,,,,,13,,,60,76
41520,note_on,,16,0,8,,,,,,,,,,,,,,,11,,,70,76
41520,note_on,,0,0,12,,,,,,,,,,,,,,,15,,,67,76
41520,note_on,,0,0,12,,,,,,,,,,,,,,,15,,,70,76
41520,note_on,,0,0,12,,,,,,,,,,,,,,,15,,,48,76
41520,note_on,,16,0,9,,,,,,,,,,,,,,,12,,,64,76
41520,note_on,,16,0,6,,,,,,,,,,,,,,,1,,,70,76
41520,note_on,,1,0,12,,,,,,,,,,,,,,,15,,,64,76
41624,note_on,,104,0,8,,,,,,,,,,,,,,,11,,,70,0
41624,note_on,,104,0,5,,,,,,,,,,,,,,,0,,,70,0
41624,note_on,,104,0,6,,,,,,,,,,,,,,,1,,,70,0
41640,note_on,,16,0,6,,,,,,,,,,,,,,,1,,,67,76
41640,note_on,,16,0,5,,,,,,,,,,,,,,,0,,,67,76
41640,note_on,,16,0,8,,,,,,,,,,,,,,,11,,,67,76
41744,note_on,,224,0,10,,,,,,,,,,,,,,,13,,,60,0
41744,note_on,,104,0,5,,,,,,,,,,,,,,,0,,,67,0
41744,note_on,,104,0,6,,,,,,,,,,,,,,,1,,,67,0
41744,note_on,,104,0,8,,,,,,,,,,,,,,,11,,,67,0
41744,note_on,,224,0,11,,,,,,,,,,,,,,,14,,,48,0
41744,note_on,,224,0,9,,,,,,,,,,,,,,,12,,,64,0
41744,note_on,,224,0,7,,,,,,,,,,,,,,,2,,,48,0
41759,note_on,,0,0,12,,,,,,,,,,,,,,,15,,,67,0
41759,note_on,,0,0,12,,,,,,,,,,,,,,,15,,,70,0
41759,note_on,,0,0,12,,,,,,,,,,,,,,,15,,,48,0
41759,note_on,,0,0,12,,,,,,,,,,,,,,,15,,,60,0
41759,note_on,,239,0,12,,,,,,,,,,,,,,,15,,,64,0
41760,note_on,,1,0,12,,,,,,,,,,,,,,,15,,,53,76
41760,note_on,,0,0,12,,,,,,,,,,,,,,,15,,,41,76
41760,note_on,,16,0,7,,,,,,,,,,,,,,,2,,,41,76
41760,note_on,,0,0,12,,,,,,,,,,,,,,,15,,,57,76
41760,note_on,,16,0,5,,,,,,,,,,,,,,,0,,,69,76
41760,note_on,,16,0,11,,,,,,,,,,,,,,,14,,,41,76
41760,note_on,,0,0,12,,,,,,,,,,,,,,,15,,,60,76
41760,note_on,,16,0,9,,,,,,,,,,,,,,,12,,,65,76
41760,note_on,,16,0,6,,,,,,,,,,,,,,,1,,,69,76
41760,note_on,,16,0,8,,,,,,,,,,,,,,,11,,,69,76
41760,note_on,,16,0,10,,,,,,,,,,,,,,,13,,,60,76
41864,note_on,,104,0,6,,,,,,,,,,,,,,,1,,,69,0
41864,note_on,,104,0,5,,,,,,,,,,,,,,,0,,,69,0
41864,note_on,,104,0,8,,,,,,,,,,,,,,,11,,,69,0
41864,note_on,,104,0,10,,,,,,,,,,,,,,,13,,,60,0
41880,note_on,,16,0,5,,,,,,,,,,,,,,,0,,,70,76
41880,note_on,,16,0,8,,,,,,,,,,,,,,,11,,,70,76
41880,note_on,,16,0,6,,,,,,,,,,,,,,,1,,,70,76
41880,note_on,,16,0,10,,,,,,,,,,,,,,,13,,,62,76
41984,note_on,,224,0,7,,,,,,,,,,,,,,,2,,,41,0
41984,note_on,,104,0,8,,,,,,,,,,,,,,,11,,,70,0
41984,note_on,,104,0,5,,,,,,,,,,,,,,,0,,,70,0
41984,note_on,,224,0,11,,,,,,,,,,,,,,,14,,,41,0
41984,note_on,,104,0,6,,,,,,,,,,,,,,,1,,,70,0
41984,note_on,,224,0,9,,,,,,,,,,,,,,,12,,,65,0
41984,note_on,,104,0,10,,,,,,,,,,,,,,,13,,,62,0
41999,note_on,,0,0,12,,,,,,,,,,,,,,,15,,,60,0
41999,note_on,,0,0,12,,,,,,,,,,,,,,,15,,,57,0
41999,note_on,,0,0,12,,,,,,,,,,,,,,,15,,,41,0
41999,note_on,,239,0,12,,,,,,,,,,,,,,,15,,,53,0
42000,note_on,,16,0,10,,,,,,,,,,,,,,,13,,,60,76
42000,note_on,,16,0,9,,,,,,,,,,,,,,,12,,,60,76
42000,note_on,,16,0,8,,,,,,,,,,,,,,,11,,,69,76
42000,note_on,,16,0,5,,,,,,,,,,,,,,,0,,,69,76
42000,note_on,,16,0,7,,,,,,,,,,,,,,,2,,,53,76
42000,note_on,,0,0,12,,,,,,,,,,,,,,,15,,,53,76
42000,note_on,,0,0,12,,,,,,,,,,,,,,,15,,,72,76
42000,note_on,,0,0,12,,,,,,,,,,,,,,,15,,,69,76
42000,note_on,,1,0,12,,,,,,,,,,,,,,,15,,,65,76
42000,note_on,,16,0,11,,,,,,,,,,,,,,,14,,,53,76
42000,note_on,,16,0,6,,,,,,,,,,,,,,,1,,,69,76
42104,note_on,,104,0,8,,,,,,,,,,,,,,,11,,,69,0
42104,note_on,,104,0,7,,,,,,,,,,,,,,,2,,,53,0
42104,note_on,,104,0,6,,,,,,,,,,,,,,,1,,,69,0
42104,note_on,,104,0,5,,,,,,,,,,,,,,,0,,,69,0
42104,note_on,,104,0,10,,,,,,,,,,,,,,,13,,,60,0
42104,note_on,,104,0,11,,,,,,,,,,,,,,,14,,,53,0
42119,note_on,,119,0,12,,,,,,,,,,,,,,,15,,,65,0
42119,note_on,,0,0,12,,,,,,,,,,,,,,,15,,,69,0
42119,note_on,,0,0,12,,,,,,,,,,,,,,,15,,,72,0
42119,note_on,,0,0,12,,,,,,,,,,,,,,,15,,,53,0
42120,note_on,,16,0,8,,,,,,,,,,,,,,,11,,,67,76
42120,note_on,,16,0,6,,,,,,,,,,,,,,,1,,,67,76
42120,note_on,,16,0,7,,,,,,,,,,,,,,,2,,,55,76
42120,note_on,,16,0,5,,,,,,,,,,,,,,,0,,,67,76
42120,note_on,,1,0,12,,,,,,,,,,,,,,,15,,,55,76
42120,note_on,,0,0,12,,,,,,,,,,,,,,,15,,,67,76
42120,note_on,,0,0,12,,,,,,,,,,,,,,,15,,,74,76
42120,note_on,,0,0,12,,,,,,,,,,,,,,,15,,,71,76
42120,note_on,,16,0,11,,,,,,,,,,,,,,,14,,,55,76
42120,note_on,,16,0,10,,,,,,,,,,,,,,,13,,,58,76
42224,note_on,,104,0,11,,,,,,,,,,,,,,,14,,,55,0
42224,note_on,,104,0,6,,,,,,,,,,,,,,,1,,,67,0
42224,note_on,,104,0,8,,,,,,,,,,,,,,,11,,,67,0
42224,note_on,,104,0,5,,,,,,,,,,,,,,,0,,,67,0
42224,note_on,,104,0,7,,,,,,,,,,,,,,,2,,,55,0
42224,note_on,,104,0,10,,,,,,,,,,,,,,,13,,,58,0
42224,note_on,,224,0,9,,,,,,,,,,,,,,,12,,,60,0
42239,note_on,,119,0,12,,,,,,,,,,,,,,,15,,,55,0
42239,note_on,,0,0,12,,,,,,,,,,,,,,,15,,,67,0
42239,note_on,,0,0,12,,,,,,,,,,,,,,,15,,,71,0
42239,note_on,,0,0,12,,,,,,,,,,,,,,,15,,,74,0
42240,note_on,,16,0,9,,,,,,,,,,,,,,,12,,,60,76
42240,note_on,,16,0,10,,,,,,,,,,,,,,,13,,,57,76
42240,note_on,,16,0,8,,,,,,,,,,,,,,,11,,,65,76
42240,note_on,,16,0,11,,,,,,,,,,,,,,,14,,,57,76
42240,note_on,,0,0,12,,,,,,,,,,,,,,,15,,,77,76
42240,note_on,,0,0,12,,,,,,,,,,,,,,,15,,,57,76
42240,note_on,,16,0,5,,,,,,,,,,,,,,,0,,,65,76
42240,note_on,,16,0,7,,,,,,,,,,,,,,,2,,,57,76
42240,note_on,,0,0,12,,,,,,,,,,,,,,,15,,,69,76
42240,note_on,,1,0,12,,,,,,,,,,,,,,,15,,,72,76
42240,note_on,,16,0,6,,,,,,,,,,,,,,,1,,,65,76
42344,note_on,,104,0,11,,,,,,,,,,,,,,,14,,,57,0
42344,note_on,,104,0,7,,,,,,,,,,,,,,,2,,,57,0
42359,note_on,,0,0,12,,,,,,,,,,,,,,,15,,,77,0
42359,note_on,,119,0,12,,,,,,,,,,,,,,,15,,,72,0
42359,note_on,,0,0,12,,,,,,,,,,,,,,,15,,,57,0
42359,note_on,,0,0,12,,,,,,,,,,,,,,,15,,,69,0
42360,note_on,,1,0,12,,,,,,,,,,,,,,,15,,,70,76
42360,note_on,,16,0,11,,,,,,,,,,,,,,,14,,,58,76
42360,note_on,,0,0,12,,,,,,,,,,,,,,,15,,,77,76
42360,note_on,,0,0,12,,,,,,,,,,,,,,,15,,,74,76
42360,note_on,,0,0,12,,,,,,,,,,,,,,,15,,,58,76
42360,note_on,,16,0,7,,,,,,,,,,,,,,,2,,,58,76
42464,note_on,,224,0,9,,,,,,,,,,,,,,,12,,,60,0
42464,note_on,,224,0,5,,,,,,,,,,,,,,,0,,,65,0
42464,note_on,,224,0,6,,,,,,,,,,,,,,,1,,,65,0
42464,note_on,,104,0,11,,,,,,,,,,,,,,,14,,,58,0
42464,note_on,,224,0,8,,,,,,,,,,,,,,,11,,,65,0
42464,note_on,,104,0,7,,,,,,,,,,,,,,,2,,,58,0
42479,note_on,,239,0,10,,,,,,,,,,,,,,,13,,,57,0
42479,note_on,,0,0,12,,,,,,,,,,,,,,,15,,,77,0
42479,note_on,,0,0,12,,,,,,,,,,,,,,,15,,,74,0
42479,note_on,,119,0,12,,,,,,,,,,,,,,,15,,,70,0
42479,note_on,,0,0,12,,,,,,,,,,,,,,,15,,,58,0
42480,note_on,,16,0,7,,,,,,,,,,,,,,,2,,,57,76
42480,note_on,,1,0,12,,,,,,,,,,,,,,,15,,,72,76
42480,note_on,,16,0,9,,,,,,,,,,,,,,,12,,,62,76
42480,note_on,,0,0,12,,,,,,,,,,,,,,,15,,,57,76
42480,note_on,,0,0,12,,,,,,,,,,,,,,,15,,,77,76
42480,note_on,,16,0,6,,,,,,,,,,,,,,,1,,,77,76
42480,note_on,,16,0,5,,,,,,,,,,,,,,,0,,,77,76
42480,note_on,,0,0,12,,,,,,,,,,,,,,,15,,,69,76
42480,note_on,,16,0,11,,,,,,,,,,,,,,,14,,,57,76
42480,note_on,,16,0,8,,,,,,,,,,,,,,,11,,,77,76
42584,note_on,,104,0,7,,,,,,,,,,,,,,,2,,,57,0
42584,note_on,,104,0,6,,,,,,,,,,,,,,,1,,,77,0
42584,note_on,,104,0,5,,,,,,,,,,,,,,,0,,,77,0
42584,note_on,,104,0,9,,,,,,,,,,,,,,,12,,,62,0
42584,note_on,,104,0,8,,,,,,,,,,,,,,,11,,,77,0
42584,note_on,,104,0,11,,,,,,,,,,,,,,,14,,,57,0
42599,note_on,,119,0,12,,,,,,,,,,,,,,,15,,,72,0
42599,note_on,,0,0,12,,,,,,,,,,,,,,,15,,,77,0
42599,note_on,,0,0,12,,,,,,,,,,,,,,,15,,,69,0
42599,note_on,,0,0,12,,,,,,,,,,,,,,,15,,,57,0
42600,note_on,,0,0,12,,,,,,,,,,,,,,,15,,,74,76
42600,note_on,,16,0,11,,,,,,,,,,,,,,,14,,,55,76
42600,note_on,,16,0,5,,,,,,,,,,,,,,,0,,,79,76
42600,note_on,,16,0,6,,,,,,,,,,,,,,,1,,,79,76
42600,note_on,,16,0,8,,,,,,,,,,,,,,,11,,,79,76
42600,note_on,,16,0,7,,,,,,,,,,,,,,,2,,,55,76
42600,note_on,,0,0,12,,,,,,,,,,,,,,,15,,,70,76
42600,note_on,,1,0,12,,,,,,,,,,,,,,,15,,,55,76
42600,note_on,,0,0,12,,,,,,,,,,,,,,,15,,,67,76
42600,note_on,,16,0,9,,,,,,,,,,,,,,,12,,,64,76
42704,note_on,,104,0,9,,,,,,,,,,,,,,,12,,,64,0
42704,note_on,,104,0,6,,,,,,,,,,,,,,,1,,,79,0
42704,note_on,,104,0,8,,,,,,,,,,,,,,,11,,,79,0
42704,note_on,,104,0,11,,,,,,,,,,,,,,,14,,,55,0
42704,note_on,,104,0,7,,,,,,,,,,,,,,,2,,,55,0
42704,note_on,,104,0,5,,,,,,,,,,,,,,,0,,,79,0
42719,note_on,,119,0,12,,,,,,,,,,,,,,,15,,,55,0
42719,note_on,,0,0,12,,,,,,,,,,,,,,,15,,,67,0
42719,note_on,,0,0,12,,,,,,,,,,,,,,,15,,,74,0
42719,note_on,,0,0,12,,,,,,,,,,,,,,,15,,,70,0
42720,note_on,,16,0,6,,,,,,,,,,,,,,,1,,,81,76
42720,note_on,,16,0,7,,,,,,,,,,,,,,,2,,,53,76
42720,note_on,,0,0,12,,,,,,,,,,,,,,,15,,,72,76
42720,note_on,,16,0,11,,,,,,,,,,,,,,,14,,,53,76
42720,note_on,,16,0,5,,,,,,,,,,,,,,,0,,,81,76
42720,note_on,,16,0,8,,,,,,,,,,,,,,,11,,,81,76
42720,note_on,,1,0,12,,,,,,,,,,,,,,,15,,,65,76
42720,note_on,,0,0,12,,,,,,,,,,,,,,,15,,,69,76
42720,note_on,,0,0,12,,,,,,,,,,,,,,,15,,,53,76
42720,note_on,,16,0,9,,,,,,,,,,,,,,,12,,,65,76
42824,note_on,,104,0,7,,,,,,,,,,,,,,,2,,,53,0
42824,note_on,,104,0,11,,,,,,,,,,,,,,,14,,,53,0
42839,note_on,,0,0,12,,,,,,,,,,,,,,,15,,,53,0
42839,note_on,,0,0,12,,,,,,,,,,,,,,,15,,,72,0
42839,note_on,,0,0,12,,,,,,,,,,,,,,,15,,,69,0
42839,note_on,,119,0,12,,,,,,,,,,,,,,,15,,,65,0
42840,note_on,,0,0,12,,,,,,,,,,,,,,,15,,,71,76
42840,note_on,,0,0,12,,,,,,,,,,,,,,,15,,,67,76
42840,note_on,,1,0,12,,,,,,,,,,,,,,,15,,,74,76
42840,note_on,,16,0,7,,,,,,,,,,,,,,,2,,,55,76
42840,note_on,,0,0,12,,,,,,,,,,,,,,,15,,,55,76
42840,note_on,,16,0,11,,,,,,,,,,,,,,,14,,,55,76
42944,note_on,,104,0,11,,,,,,,,,,,,,,,14,,,55,0
42944,note_on,,224,0,9,,,,,,,,,,,,,,,12,,,65,0
42944,note_on,,104,0,7,,,,,,,,,,,,,,,2,,,55,0
42944,note_on,,224,0,6,,,,,,,,,,,,,,,1,,,81,0
42944,note_on,,224,0,5,,,,,,,,,,,,,,,0,,,81,0
42944,note_on,,224,0,8,,,,,,,,,,,,,,,11,,,81,0
42959,note_on,,119,0,12,,,,,,,,,,,,,,,15,,,74,0
42959,note_on,,0,0,12,,,,,,,,,,,,,,,15,,,55,0
42959,note_on,,0,0,12,,,,,,,,,,,,,,,15,,,71,0
42959,note_on,,0,0,12,,,,,,,,,,,,,,,15,,,67,0
42960,note_on,,16,0,7,,,,,,,,,,,,,,,2,,,53,76
42960,note_on,,16,0,8,,,,,,,,,,,,,,,11,,,74,76
42960,note_on,,16,0,11,,,,,,,,,,,,,,,14,,,53,76
42960,note_on,,16,0,5,,,,,,,,,,,,,,,0,,,74,76
42960,note_on,,16,0,9,,,,,,,,,,,,,,,12,,,65,76
42960,note_on,,16,0,6,,,,,,,,,,,,,,,1,,,74,76
42960,note_on,,0,0,12,,,,,,,,,,,,,,,15,,,65,76
42960,note_on,,0,0,12,,,,,,,,,,,,,,,15,,,53,76
42960,note_on,,0,0,12,,,,,,,,,,,,,,,15,,,69,76
42960,note_on,,1,0,12,,,,,,,,,,,,,,,15,,,72,76
43064,note_on,,104,0,11,,,,,,,,,,,,,,,14,,,53,0
43064,note_on,,104,0,8,,,,,,,,,,,,,,,11,,,74,0
43064,note_on,,104,0,7,,,,,,,,,,,,,,,2,,,53,0
43064,note_on,,104,0,9,,,,,,,,,,,,,,,12,,,65,0
43064,note_on,,104,0,5,,,,,,,,,,,,,,,0,,,74,0
43064,note_on,,104,0,6,,,,,,,,,,,,,,,1,,,74,0
43079,note_on,,0,0,12,,,,,,,,,,,,,,,15,,,69,0
43079,note_on,,0,0,12,,,,,,,,,,,,,,,15,,,53,0
43079,note_on,,0,0,12,,,,,,,,,,,,,,,15,,,65,0
43079,note_on,,119,0,12,,,,,,,,,,,,,,,15,,,72,0
43080,note_on,,1,0,12,,,,,,,,,,,,,,,15,,,52,76
43080,note_on,,0,0,12,,,,,,,,,,,,,,,15,,,71,76
43080,note_on,,0,0,12,,,,,,,,,,,,,,,15,,,64,76
43080,note_on,,0,0,12,,,,,,,,,,,,,,,15,,,67,76
43080,note_on,,16,0,8,,,,,,,,,,,,,,,11,,,76,76
43080,note_on,,16,0,7,,,,,,,,,,,,,,,2,,,52,76
43080,note_on,,16,0,6,,,,,,,,,,,,,,,1,,,76,76
43080,note_on,,16,0,5,,,,,,,,,,,,,,,0,,,76,76
43080,note_on,,16,0,9,,,,,,,,,,,,,,,12,,,67,76
43080,note_on,,16,0,11,,,,,,,,,,,,,,,14,,,52,76
43184,note_on,,104,0,6,,,,,,,,,,,,,,,1,,,76,0
43184,note_on,,104,0,9,,,,,,,,,,,,,,,12,,,67,0
43184,note_on,,104,0,5,,,,,,,,,,,,,,,0,,,76,0
43184,note_on,,104,0,8,,,,,,,,,,,,,,,11,,,76,0
43184,note_on,,104,0,11,,,,,,,,,,,,,,,14,,,52,0
43184,note_on,,104,0,7,,,,,,,,,,,,,,,2,,,52,0
43199,note_on,,119,0,12,,,,,,,,,,,,,,,15,,,52,0
43199,note_on,,0,0,12,,,,,,,,,,,,,,,15,,,71,0
43199,note_on,,0,0,12,,,,,,,,,,,,,,,15,,,64,0
43199,note_on,,0,0,12,,,,,,,,,,,,,,,15,,,67,0
43200,note_on,,16,0,9,,,,,,,,,,,,,,,12,,,69,76
43200,note_on,,16,0,7,,,,,,,,,,,,,,,2,,,50,76
43200,note_on,,1,0,12,,,,,,,,,,,,,,,15,,,62,76
43200,note_on,,0,0,12,,,,,,,,,,,,,,,15,,,65,76
43200,note_on,,0,0,12,,,,,,,,,,,,,,,15,,,50,76
43200,note_on,,16,0,8,,,,,,,,,,,,,,,11,,,77,76
43200,note_on,,16,0,6,,,,,,,,,,,,,,,1,,,77,76
43200,note_on,,16,0,5,,,,,,,,,,,,,,,0,,,77,76
43200,note_on,,16,0,11,,,,,,,,,,,,,,,14,,,50,76
43304,note_on,,104,0,9,,,,,,,,,,,,,,,12,,,69,0
43304,note_on,,104,0,11,,,,,,,,,,,,,,,14,,,50,0
43304,note_on,,104,0,7,,,,,,,,,,,,,,,2,,,50,0
43319,note_on,,119,0,12,,,,,,,,,,,,,,,15,,,62,0
43319,note_on,,0,0,12,,,,,,,,,,,,,,,15,,,50,0
43319,note_on,,0,0,12,,,,,,,,,,,,,,,15,,,65,0
43320,note_on,,1,0,12,,,,,,,,,,,,,,,15,,,67,76
43320,note_on,,0,0,12,,,,,,,,,,,,,,,15,,,52,76
43320,note_on,,16,0,7,,,,,,,,,,,,,,,2,,,52,76
43320,note_on,,0,0,12,,,,,,,,,,,,,,,15,,,71,76
43320,note_on,,16,0,9,,,,,,,,,,,,,,,12,,,67,76
43320,note_on,,0,0,12,,,,,,,,,,,,,,,15,,,64,76
43320,note_on,,16,0,11,,,,,,,,,,,,,,,14,,,52,76
43424,note_on,,104,0,7,,,,,,,,,,,,,,,2,,,52,0
43424,note_on,,224,0,5,,,,,,,,,,,,,,,0,,,77,0
43424,note_on,,104,0,9,,,,,,,,,,,,,,,12,,,67,0
43424,note_on,,224,0,8,,,,,,,,,,,,,,,11,,,77,0
43424,note_on,,104,0,11,,,,,,,,,,,,,,,14,,,52,0
43424,note_on,,224,0,6,,,,,,,,,,,,,,,1,,,77,0
43439,note_on,,0,0,12,,,,,,,,,,,,,,,15,,,64,0
43439,note_on,,0,0,12,,,,,,,,,,,,,,,15,,,71,0
43439,note_on,,0,0,12,,,,,,,,,,,,,,,15,,,52,0
43439,note_on,,119,0,12,,,,,,,,,,,,,,,15,,,67,0
43440,note_on,,1,0,12,,,,,,,,,,,,,,,15,,,50,76
43440,note_on,,0,0,12,,,,,,,,,,,,,,,15,,,65,76
43440,note_on,,0,0,12,,,,,,,,,,,,,,,15,,,62,76
43440,note_on,,16,0,8,,,,,,,,,,,,,,,11,,,71,76
43440,note_on,,16,0,9,,,,,,,,,,,,,,,12,,,65,76
43440,note_on,,16,0,5,,,,,,,,,,,,,,,0,,,71,76
43440,note_on,,16,0,7,,,,,,,,,,,,,,,2,,,50,76
43440,note_on,,16,0,6,,,,,,,,,,,,,,,1,,,71,76
43440,note_on,,16,0,11,,,,,,,,,,,,,,,14,,,50,76
43440,note_on,,961,0,10,,,,,,,,,,,,,,,13,,,55,76
43544,note_on,,104,0,6,,,,,,,,,,,,,,,1,,,71,0
43544,note_on,,104,0,9,,,,,,,,,,,,,,,12,,,65,0
43544,note_on,,104,0,8,,,,,,,,,,,,,,,11,,,71,0
43544,note_on,,104,0,11,,,,,,,,,,,,,,,14,,,50,0
43544,note_on,,104,0,7,,,,,,,,,,,,,,,2,,,50,0
43544,note_on,,104,0,5,,,,,,,,,,,,,,,0,,,71,0
43544,note_on,,104,0,10,,,,,,,,,,,,,,,13,,,55,0
43559,note_on,,119,0,12,,,,,,,,,,,,,,,15,,,50,0
43559,note_on,,0,0,12,,,,,,,,,,,,,,,15,,,62,0
43559,note_on,,0,0,12,,,,,,,,,,,,,,,15,,,65,0
43560,note_on,,0,0,12,,,,,,,,,,,,,,,15,,,64,76
43560,note_on,,0,0,12,,,,,,,,,,,,,,,15,,,48,76
43560,note_on,,16,0,6,,,,,,,,,,,,,,,1,,,72,76
43560,note_on,,0,0,12,,,,,,,,,,,,,,,15,,,60,76
43560,note_on,,16,0,5,,,,,,,,,,,,,,,0,,,72,76
43560,note_on,,16,0,8,,,,,,,,,,,,,,,11,,,72,76
43560,note_on,,16,0,11,,,,,,,,,,,,,,,14,,,48,76
43560,note_on,,16,0,7,,,,,,,,,,,,,,,2,,,48,76
43560,note_on,,16,0,10,,,,,,,,,,,,,,,13,,,57,76
43560,note_on,,16,0,9,,,,,,,,,,,,,,,12,,,64,76
43560,note_on,,1,0,12,,,,,,,,,,,,,,,15,,,67,76
43664,note_on,,104,0,8,,,,,,,,,,,,,,,11,,,72,0
43664,note_on,,104,0,5,,,,,,,,,,,,,,,0,,,72,0
43664,note_on,,104,0,10,,,,,,,,,,,,,,,13,,,57,0
43664,note_on,,104,0,6,,,,,,,,,,,,,,,1,,,72,0
43664,note_on,,104,0,7,,,,,,,,,,,,,,,2,,,48,0
43664,note_on,,104,0,9,,,,,,,,,,,,,,,12,,,64,0
43664,note_on,,104,0,11,,,,,,,,,,,,,,,14,,,48,0
43679,note_on,,0,0,12,,,,,,,,,,,,,,,15,,,64,0
43679,note_on,,0,0,12,,,,,,,,,,,,,,,15,,,48,0
43679,note_on,,0,0,12,,,,,,,,,,,,,,,15,,,60,0
43679,note_on,,119,0,12,,,,,,,,,,,,,,,15,,,67,0
43680,note_on,,16,0,9,,,,,,,,,,,,,,,12,,,62,76
43680,note_on,,16,0,5,,,,,,,,,,,,,,,0,,,74,76
43680,note_on,,16,0,10,,,,,,,,,,,,,,,13,,,59,76
43680,note_on,,16,0,6,,,,,,,,,,,,,,,1,,,74,76
43680,note_on,,16,0,7,,,,,,,,,,,,,,,2,,,47,76
43680,note_on,,16,0,11,,,,,,,,,,,,,,,14,,,47,76
43680,note_on,,16,0,8,,,,,,,,,,,,,,,11,,,74,76
43680,note_on,,1,0,12,,,,,,,,,,,,,,,15,,,62,76
43680,note_on,,0,0,12,,,,,,,,,,,,,,,15,,,59,76
43680,note_on,,0,0,12,,,,,,,,,,,,,,,15,,,65,76
43680,note_on,,0,0,12,,,,,,,,,,,,,,,15,,,47,76
43784,note_on,,104,0,9,,,,,,,,,,,,,,,12,,,62,0
43784,note_on,,104,0,7,,,,,,,,,,,,,,,2,,,47,0
43784,note_on,,104,0,11,,,,,,,,,,,,,,,14,,,47,0
43799,note_on,,0,0,12,,,,,,,,,,,,,,,15,,,47,0
43799,note_on,,0,0,12,,,,,,,,,,,,,,,15,,,59,0
43799,note_on,,0,0,12,,,,,,,,,,,,,,,15,,,65,0
43799,note_on,,119,0,12,,,,,,,,,,,,,,,15,,,62,0
43800,note_on,,1,0,12,,,,,,,,,,,,,,,15,,,67,76
43800,note_on,,0,0,12,,,,,,,,,,,,,,,15,,,48,76
43800,note_on,,16,0,9,,,,,,,,,,,,,,,12,,,64,76
43800,note_on,,0,0,12,,,,,,,,,,,,,,,15,,,60,76
43800,note_on,,16,0,11,,,,,,,,,,,,,,,14,,,48,76
43800,note_on,,16,0,7,,,,,,,,,,,,,,,2,,,48,76
43800,note_on,,0,0,12,,,,,,,,,,,,,,,15,,,64,76
43904,note_on,,224,0,8,,,,,,,,,,,,,,,11,,,74,0
43904,note_on,,104,0,7,,,,,,,,,,,,,,,2,,,48,0
43904,note_on,,104,0,11,,,,,,,,,,,,,,,14,,,48,0
43904,note_on,,104,0,9,,,,,,,,,,,,,,,12,,,64,0
43904,note_on,,224,0,10,,,,,,,,,,,,,,,13,,,59,0
43904,note_on,,224,0,6,,,,,,,,,,,,,,,1,,,74,0
43904,note_on,,224,0,5,,,,,,,,,,,,,,,0,,,74,0
43919,note_on,,119,0,12,,,,,,,,,,,,,,,15,,,67,0
43919,note_on,,0,0,12,,,,,,,,,,,,,,,15,,,48,0
43919,note_on,,0,0,12,,,,,,,,,,,,,,,15,,,60,0
43919,note_on,,0,0,12,,,,,,,,,,,,,,,15,,,64,0
43920,note_on,,16,0,7,,,,,,,,,,,,,,,2,,,47,76
43920,note_on,,16,0,8,,,,,,,,,,,,,,,11,,,67,76
43920,note_on,,0,0,12,,,,,,,,,,,,,,,15,,,62,76
43920,note_on,,0,0,12,,,,,,,,,,,,,,,15,,,59,76
43920,note_on,,0,0,12,,,,,,,,,,,,,,,15,,,65,76
43920,note_on,,16,0,5,,,,,,,,,,,,,,,0,,,67,76
43920,note_on,,16,0,6,,,,,,,,,,,,,,,1,,,67,76
43920,note_on,,16,0,10,,,,,,,,,,,,,,,13,,,59,76
43920,note_on,,16,0,9,,,,,,,,,,,,,,,12,,,62,76
43920,note_on,,16,0,11,,,,,,,,,,,,,,,14,,,47,76
43920,note_on,,1,0,12,,,,,,,,,,,,,,,15,,,47,76
44024,note_on,,104,0,10,,,,,,,,,,,,,,,13,,,59,0
44024,note_on,,104,0,9,,,,,,,,,,,,,,,12,,,62,0
44024,note_on,,104,0,7,,,,,,,,,,,,,,,2,,,47,0
44024,note_on,,104,0,11,,,,,,,,,,,,,,,14,,,47,0
44039,note_on,,0,0,12,,,,,,,,,,,,,,,15,,,62,0
44039,note_on,,0,0,12,,,,,,,,,,,,,,,15,,,65,0
44039,note_on,,119,0,12,,,,,,,,,,,,,,,15,,,47,0
44039,note_on,,0,0,12,,,,,,,,,,,,,,,15,,,59,0
44040,note_on,,16,0,9,,,,,,,,,,,,,,,12,,,60,76
44040,note_on,,16,0,11,,,,,,,,,,,,,,,14,,,45,76
44040,note_on,,16,0,7,,,,,,,,,,,,,,,2,,,45,76
44040,note_on,,1,0,12,,,,,,,,,,,,,,,15,,,60,76
44040,note_on,,0,0,12,,,,,,,,,,,,,,,15,,,45,76
44040,note_on,,0,0,12,,,,,,,,,,,,,,,15,,,57,76
44040,note_on,,0,0,12,,,,,,,,,,,,,,,15,,,64,76
44040,note_on,,16,0,10,,,,,,,,,,,,,,,13,,,60,76
44144,note_on,,104,0,10,,,,,,,,,,,,,,,13,,,60,0
44144,note_on,,224,0,5,,,,,,,,,,,,,,,0,,,67,0
44144,note_on,,104,0,7,,,,,,,,,,,,,,,2,,,45,0
44144,note_on,,224,0,6,,,,,,,,,,,,,,,1,,,67,0
44144,note_on,,224,0,8,,,,,,,,,,,,,,,11,,,67,0
44144,note_on,,104,0,9,,,,,,,,,,,,,,,12,,,60,0
44144,note_on,,104,0,11,,,,,,,,,,,,,,,14,,,45,0
44159,note_on,,119,0,12,,,,,,,,,,,,,,,15,,,60,0
44159,note_on,,0,0,12,,,,,,,,,,,,,,,15,,,45,0
44159,note_on,,0,0,12,,,,,,,,,,,,,,,15,,,57,0
44159,note_on,,0,0,12,,,,,,,,,,,,,,,15,,,64,0
44160,note_on,,16,0,10,,,,,,,,,,,,,,,13,,,62,76
44160,note_on,,16,0,11,,,,,,,,,,,,,,,14,,,43,76
44160,note_on,,16,0,5,,,,,,,,,,,,,,,0,,,79,76
44160,note_on,,16,0,8,,,,,,,,,,,,,,,11,,,79,76
44160,note_on,,0,0,12,,,,,,,,,,,,,,,15,,,59,76
44160,note_on,,16,0,7,,,,,,,,,,,,,,,2,,,43,76
44160,note_on,,16,0,9,,,,,,,,,,,,,,,12,,,59,76
44160,note_on,,0,0,12,,,,,,,,,,,,,,,15,,,62,76
44160,note_on,,1,0,12,,,,,,,,,,,,,,,15,,,43,76
44160,note_on,,16,0,6,,,,,,,,,,,,,,,1,,,79,76
44160,note_on,,0,0,12,,,,,,,,,,,,,,,15,,,55,76
44264,note_on,,104,0,11,,,,,,,,,,,,,,,14,,,43,0
44264,note_on,,104,0,7,,,,,,,,,,,,,,,2,,,43,0
44279,note_on,,0,0,12,,,,,,,,,,,,,,,15,,,55,0
44279,note_on,,0,0,12,,,,,,,,,,,,,,,15,,,59,0
44279,note_on,,0,0,12,,,,,,,,,,,,,,,15,,,62,0
44279,note_on,,119,0,12,,,,,,,,,,,,,,,15,,,43,0
44280,note_on,,0,0,12,,,,,,,,,,,,,,,15,,,45,76
44280,note_on,,16,0,7,,,,,,,,,,,,,,,2,,,45,76
44280,note_on,,0,0,12,,,,,,,,,,,,,,,15,,,64,76
44280,note_on,,1,0,12,,,,,,,,,,,,,,,15,,,60,76
44280,note_on,,0,0,12,,,,,,,,,,,,,,,15,,,57,76
44280,note_on,,16,0,11,,,,,,,,,,,,,,,14,,,45,76
44384,note_on,,224,0,10,,,,,,,,,,,,,,,13,,,62,0
44384,note_on,,224,0,6,,,,,,,,,,,,,,,1,,,79,0
44384,note_on,,224,0,5,,,,,,,,,,,,,,,0,,,79,0
44384,note_on,,104,0,11,,,,,,,,,,,,,,,14,,,45,0
44384,note_on,,224,0,9,,,,,,,,,,,,,,,12,,,59,0
44384,note_on,,104,0,7,,,,,,,,,,,,,,,2,,,45,0
44384,note_on,,224,0,8,,,,,,,,,,,,,,,11,,,79,0
44399,note_on,,0,0,12,,,,,,,,,,,,,,,15,,,64,0
44399,note_on,,0,0,12,,,,,,,,,,,,,,,15,,,45,0
44399,note_on,,0,0,12,,,,,,,,,,,,,,,15,,,57,0
44399,note_on,,119,0,12,,,,,,,,,,,,,,,15,,,60,0
44400,note_on,,16,0,11,,,,,,,,,,,,,,,14,,,43,76
44400,note_on,,0,0,12,,,,,,,,,,,,,,,15,,,62,76
44400,note_on,,0,0,12,,,,,,,,,,,,,,,15,,,43,76
44400,note_on,,0,0,12,,,,,,,,,,,,,,,15,,,55,76
44400,note_on,,1,0,12,,,,,,,,,,,,,,,15,,,59,76
44400,note_on,,16,0,9,,,,,,,,,,,,,,,12,,,67,76
44400,note_on,,16,0,7,,,,,,,,,,,,,,,2,,,43,76
44400,note_on,,16,0,10,,,,,,,,,,,,,,,13,,,62,76
44400,note_on,,16,0,5,,,,,,,,,,,,,,,0,,,71,76
44400,note_on,,16,0,6,,,,,,,,,,,,,,,1,,,71,76
44400,note_on,,16,0,8,,,,,,,,,,,,,,,11,,,71,76
44504,note_on,,104,0,11,,,,,,,,,,,,,,,14,,,43,0
44504,note_on,,104,0,7,,,,,,,,,,,,,,,2,,,43,0
44519,note_on,,0,0,12,,,,,,,,,,,,,,,15,,,62,0
44519,note_on,,119,0,12,,,,,,,,,,,,,,,15,,,59,0
44519,note_on,,0,0,12,,,,,,,,,,,,,,,15,,,55,0
44519,note_on,,0,0,12,,,,,,,,,,,,,,,15,,,43,0
44520,note_on,,0,0,12,,,,,,,,,,,,,,,15,,,53,76
44520,note_on,,0,0,12,,,,,,,,,,,,,,,15,,,41,76
44520,note_on,,16,0,7,,,,,,,,,,,,,,,2,,,41,76
44520,note_on,,0,0,12,,,,,,,,,,,,,,,15,,,57,76
44520,note_on,,1,0,12,,,,,,,,,,,,,,,15,,,60,76
44520,note_on,,16,0,11,,,,,,,,,,,,,,,14,,,41,76
44624,note_on,,224,0,10,,,,,,,,,,,,,,,13,,,62,0
44624,note_on,,104,0,7,,,,,,,,,,,,,,,2,,,41,0
44624,note_on,,224,0,8,,,,,,,,,,,,,,,11,,,71,0
44624,note_on,,104,0,11,,,,,,,,,,,,,,,14,,,41,0
44624,note_on,,224,0,6,,,,,,,,,,,,,,,1,,,71,0
44624,note_on,,224,0,9,,,,,,,,,,,,,,,12,,,67,0
44624,note_on,,224,0,5,,,,,,,,,,,,,,,0,,,71,0
44639,note_on,,119,0,12,,,,,,,,,,,,,,,15,,,60,0
44639,note_on,,0,0,12,,,,,,,,,,,,,,,15,,,41,0
44639,note_on,,0,0,12,,,,,,,,,,,,,,,15,,,57,0
44639,note_on,,0,0,12,,,,,,,,,,,,,,,15,,,53,0
44640,note_on,,0,0,12,,,,,,,,,,,,,,,15,,,59,76
44640,note_on,,16,0,8,,,,,,,,,,,,,,,11,,,72,76
44640,note_on,,16,0,7,,,,,,,,,,,,,,,2,,,40,76
44640,note_on,,16,0,5,,,,,,,,,,,,,,,0,,,72,76
44640,note_on,,0,0,12,,,,,,,,,,,,,,,15,,,52,76
44640,note_on,,0,0,12,,,,,,,,,,,,,,,15,,,40,76
44640,note_on,,16,0,10,,,,,,,,,,,,,,,13,,,64,76
44640,note_on,,16,0,11,,,,,,,,,,,,,,,14,,,40,76
44640,note_on,,16,0,6,,,,,,,,,,,,,,,1,,,72,76
44640,note_on,,16,0,9,,,,,,,,,,,,,,,12,,,67,76
44640,note_on,,1,0,12,,,,,,,,,,,,,,,15,,,55,76
44640,set_tempo,,44160,1,0,,,,,,,,357142,,,,,,,,,,,
44720,set_tempo,,80,1,0,,,,,,,,361445,,,,,,,,,,,
44800,set_tempo,,80,1,0,,,,,,,,365853,,,,,,,,,,,
44864,note_on,,224,0,9,,,,,,,,,,,,,,,12,,,67,0
44864,note_on,,224,0,11,,,,,,,,,,,,,,,14,,,40,0
44864,note_on,,224,0,7,,,,,,,,,,,,,,,2,,,40,0
44864,note_on,,224,0,10,,,,,,,,,,,,,,,13,,,64,0
44879,note_on,,239,0,12,,,,,,,,,,,,,,,15,,,55,0
44879,note_on,,0,0,12,,,,,,,,,,,,,,,15,,,40,0
44879,note_on,,0,0,12,,,,,,,,,,,,,,,15,,,59,0
44879,note_on,,0,0,12,,,,,,,,,,,,,,,15,,,52,0
44880,set_tempo,,80,1,0,,,,,,,,370370,,,,,,,,,,,
44880,note_on,,0,0,12,,,,,,,,,,,,,,,15,,,57,76
44880,note_on,,16,0,9,,,,,,,,,,,,,,,12,,,72,76
44880,note_on,,1,0,12,,,,,,,,,,,,,,,15,,,53,76
44880,note_on,,16,0,7,,,,,,,,,,,,,,,2,,,41,76
44880,note_on,,16,0,11,,,,,,,,,,,,,,,14,,,41,76
44880,note_on,,16,0,10,,,,,,,,,,,,,,,13,,,69,76
44880,note_on,,0,0,12,,,,,,,,,,,,,,,15,,,60,76
44880,note_on,,0,0,12,,,,,,,,,,,,,,,15,,,41,76
44960,set_tempo,,80,1,0,,,,,,,,377358,,,,,,,,,,,
44984,note_on,,344,0,6,,,,,,,,,,,,,,,1,,,72,0
44984,note_on,,344,0,5,,,,,,,,,,,,,,,0,,,72,0
44984,note_on,,344,0,8,,,,,,,,,,,,,,,11,,,72,0
45000,note_on,,16,0,8,,,,,,,,,,,,,,,11,,,74,76
45000,note_on,,16,0,5,,,,,,,,,,,,,,,0,,,74,76
45000,note_on,,16,0,6,,,,,,,,,,,,,,,1,,,74,76
45040,set_tempo,,80,1,0,,,,,,,,382165,,,,,,,,,,,
45104,note_on,,224,0,11,,,,,,,,,,,,,,,14,,,41,0
45104,note_on,,224,0,10,,,,,,,,,,,,,,,13,,,69,0
45104,note_on,,104,0,6,,,,,,,,,,,,,,,1,,,74,0
45104,note_on,,104,0,8,,,,,,,,,,,,,,,11,,,74,0
45104,note_on,,224,0,9,,,,,,,,,,,,,,,12,,,72,0
45104,note_on,,104,0,5,,,,,,,,,,,,,,,0,,,74,0
45104,note_on,,224,0,7,,,,,,,,,,,,,,,2,,,41,0
45119,note_on,,0,0,12,,,,,,,,,,,,,,,15,,,57,0
45119,note_on,,0,0,12,,,,,,,,,,,,,,,15,,,41,0
45119,note_on,,0,0,12,,,,,,,,,,,,,,,15,,,60,0
45119,note_on,,239,0,12,,,,,,,,,,,,,,,15,,,53,0
45120,note_on,,16,0,5,,,,,,,,,,,,,,,0,,,74,76
45120,note_on,,1,0,12,,,,,,,,,,,,,,,15,,,55,76
45120,note_on,,0,0,12,,,,,,,,,,,,,,,15,,,43,76
45120,note_on,,0,0,12,,,,,,,,,,,,,,,15,,,62,76
45120,note_on,,0,0,12,,,,,,,,,,,,,,,15,,,59,76
45120,note_on,,16,0,10,,,,,,,,,,,,,,,13,,,67,76
45120,note_on,,16,0,11,,,,,,,,,,,,,,,14,,,43,76
45120,note_on,,16,0,7,,,,,,,,,,,,,,,2,,,43,76
45120,note_on,,16,0,9,,,,,,,,,,,,,,,12,,,71,76
45120,note_on,,16,0,6,,,,,,,,,,,,,,,1,,,74,76
45120,set_tempo,,80,1,0,,,,,,,,387096,,,,,,,,,,,
45120,note_on,,16,0,8,,,,,,,,,,,,,,,11,,,74,76
45200,set_tempo,,80,1,0,,,,,,,,392156,,,,,,,,,,,
45280,set_tempo,,80,1,0,,,,,,,,397350,,,,,,,,,,,
45344,note_on,,224,0,11,,,,,,,,,,,,,,,14,,,43,0
45344,note_on,,224,0,7,,,,,,,,,,,,,,,2,,,43,0
45344,note_on,,224,0,10,,,,,,,,,,,,,,,13,,,67,0
45344,note_on,,224,0,9,,,,,,,,,,,,,,,12,,,71,0
45359,note_on,,239,0,12,,,,,,,,,,,,,,,15,,,55,0
45359,note_on,,0,0,12,,,,,,,,,,,,,,,15,,,43,0
45359,note_on,,0,0,12,,,,,,,,,,,,,,,15,,,62,0
45359,note_on,,0,0,12,,,,,,,,,,,,,,,15,,,59,0
45360,note_on,,16,0,7,,,,,,,,,,,,,,,2,,,43,76
45360,note_on,,0,0,12,,,,,,,,,,,,,,,15,,,43,76
45360,note_on,,16,0,9,,,,,,,,,,,,,,,12,,,67,76
45360,note_on,,1,0,12,,,,,,,,,,,,,,,15,,,55,76
45360,note_on,,0,0,12,,,,,,,,,,,,,,,15,,,59,76
45360,set_tempo,,80,1,0,,,,,,,,402684,,,,,,,,,,,
45360,note_on,,0,0,12,,,,,,,,,,,,,,,15,,,62,76
45360,note_on,,16,0,10,,,,,,,,,,,,,,,13,,,62,76
45360,note_on,,16,0,11,,,,,,,,,,,,,,,14,,,43,76
45440,set_tempo,,80,1,0,,,,,,,,410958,,,,,,,,,,,
45464,note_on,,344,0,6,,,,,,,,,,,,,,,1,,,74,0
45464,note_on,,344,0,5,,,,,,,,,,,,,,,0,,,74,0
45464,note_on,,344,0,8,,,,,,,,,,,,,,,11,,,74,0
45480,note_on,,16,0,5,,,,,,,,,,,,,,,0,,,72,76
45480,note_on,,16,0,8,,,,,,,,,,,,,,,11,,,72,76
45480,note_on,,16,0,6,,,,,,,,,,,,,,,1,,,72,76
45520,set_tempo,,80,1,0,,,,,,,,416666,,,,,,,,,,,
45584,note_on,,224,0,9,,,,,,,,,,,,,,,12,,,67,0
45584,note_on,,224,0,10,,,,,,,,,,,,,,,13,,,62,0
45584,note_on,,104,0,5,,,,,,,,,,,,,,,0,,,72,0
45584,note_on,,104,0,8,,,,,,,,,,,,,,,11,,,72,0
45584,note_on,,224,0,7,,,,,,,,,,,,,,,2,,,43,0
45584,note_on,,224,0,11,,,,,,,,,,,,,,,14,,,43,0
45584,note_on,,104,0,6,,,,,,,,,,,,,,,1,,,72,0
45599,note_on,,0,0,12,,,,,,,,,,,,,,,15,,,43,0
45599,note_on,,0,0,12,,,,,,,,,,,,,,,15,,,59,0
45599,note_on,,239,0,12,,,,,,,,,,,,,,,15,,,55,0
45599,note_on,,0,0,12,,,,,,,,,,,,,,,15,,,62,0
45600,key_signature,,0,1,0,,,,,,,,,Gm,,,,,,,,,,
45600,note_on,,16,0,7,,,,,,,,,,,,,,,2,,,36,76
45600,time_signature,,0,1,0,,,,,,,,,,5,4,24,8,,,,,,
45600,note_on,,16,0,11,,,,,,,,,,,,,,,14,,,36,76
45600,set_tempo,,80,1,0,,,,,,,,681818,,,,,,,,,,,
45600,note_on,,16,0,6,,,,,,,,,,,,,,,1,,,72,76
45600,note_on,,16,0,8,,,,,,,,,,,,,,,11,,,72,76
45600,note_on,,16,0,9,,,,,,,,,,,,,,,12,,,67,76
45600,note_on,,16,0,10,,,,,,,,,,,,,,,13,,,64,76
45600,note_on,,0,0,12,,,,,,,,,,,,,,,15,,,52,76
45600,note_on,,0,0,12,,,,,,,,,,,,,,,15,,,55,76
45600,note_on,,1,0,12,,,,,,,,,,,,,,,15,,,36,76
45600,note_on,,0,0,12,,,,,,,,,,,,,,,15,,,48,76
45600,note_on,,16,0,5,,,,,,,,,,,,,,,0,,,72,76
46319,note_on,,719,0,7,,,,,,,,,,,,,,,2,,,36,0
46319,note_on,,719,0,5,,,,,,,,,,,,,,,0,,,72,0
46319,note_on,,719,0,9,,,,,,,,,,,,,,,12,,,67,0
46319,note_on,,719,0,6,,,,,,,,,,,,,,,1,,,72,0
46319,note_on,,719,0,12,,,,,,,,,,,,,,,15,,,36,0
46319,note_on,,0,0,12,,,,,,,,,,,,,,,15,,,55,0
46319,note_on,,719,0,11,,,,,,,,,,,,,,,14,,,36,0
46319,note_on,,0,0,12,,,,,,,,,,,,,,,15,,,48,0
46319,note_on,,0,0,12,,,,,,,,,,,,,,,15,,,52,0
46319,note_on,,719,0,10,,,,,,,,,,,,,,,13,,,64,0
46319,note_on,,719,0,8,,,,,,,,,,,,,,,11,,,72,0
46320,set_tempo,,720,1,0,,,,,,,,3000000,,,,,,,,,,,
46560,note_on,,241,0,7,,,,,,,,,,,,,,,2,,,60,76
46560,note_on,,241,0,6,,,,,,,,,,,,,,,1,,,67,76
46560,set_tempo,,240,1,0,,,,,,,,357142,,,,,,,,,,,
46560,note_on,,241,0,5,,,,,,,,,,,,,,,0,,,75,76
46679,note_on,,119,0,6,,,,,,,,,,,,,,,1,,,67,0
46679,note_on,,119,0,5,,,,,,,,,,,,,,,0,,,75,0
46680,note_on,,1,0,6,,,,,,,,,,,,,,,1,,,65,76
46680,note_on,,1,0,5,,,,,,,,,,,,,,,0,,,74,76
46784,note_on,,224,0,7,,,,,,,,,,,,,,,2,,,60,0
46784,note_on,,104,0,5,,,,,,,,,,,,,,,0,,,74,0
46784,note_on,,104,0,6,,,,,,,,,,,,,,,1,,,65,0
46800,time_signature,,240,1,0,,,,,,,,,,4,4,24,8,,,,,,
46800,note_on,,16,0,5,,,,,,,,,,,,,,,0,,,75,76
46800,note_on,,16,0,6,,,,,,,,,,,,,,,1,,,67,76
46800,note_on,,16,0,7,,,,,,,,,,,,,,,2,,,53,76
47024,note_on,,224,0,6,,,,,,,,,,,,,,,1,,,67,0
47024,note_on,,224,0,5,,,,,,,,,,,,,,,0,,,75,0
47040,note_on,,16,0,6,,,,,,,,,,,,,,,1,,,65,76
47040,note_on,,16,0,5,,,,,,,,,,,,,,,0,,,74,76
47264,note_on,,464,0,7,,,,,,,,,,,,,,,2,,,53,0
47280,note_on,,16,0,7,,,,,,,,,,,,,,,2,,,55,76
47504,note_on,,464,0,5,,,,,,,,,,,,,,,0,,,74,0
47504,note_on,,464,0,6,,,,,,,,,,,,,,,1,,,65,0
47520,note_on,,16,0,6,,,,,,,,,,,,,,,1,,,63,76
47520,note_on,,16,0,5,,,,,,,,,,,,,,,0,,,72,76
47624,note_on,,104,0,6,,,,,,,,,,,,,,,1,,,63,0
47624,note_on,,104,0,5,,,,,,,,,,,,,,,0,,,72,0
47640,note_on,,16,0,6,,,,,,,,,,,,,,,1,,,62,76
47640,note_on,,16,0,5,,,,,,,,,,,,,,,0,,,71,76
47744,note_on,,104,0,6,,,,,,,,,,,,,,,1,,,62,0
47744,note_on,,104,0,5,,,,,,,,,,,,,,,0,,,71,0
47744,note_on,,464,0,7,,,,,,,,,,,,,,,2,,,55,0
47760,note_on,,16,0,6,,,,,,,,,,,,,,,1,,,63,76
47760,note_on,,16,0,5,,,,,,,,,,,,,,,0,,,72,76
47760,note_on,,16,0,7,,,,,,,,,,,,,,,2,,,51,76
47924,note_on,,164,0,6,,,,,,,,,,,,,,,1,,,63,0
47924,note_on,,164,0,5,,,,,,,,,,,,,,,0,,,72,0
47940,note_on,,16,0,6,,,,,,,,,,,,,,,1,,,65,76
47940,note_on,,16,0,5,,,,,,,,,,,,,,,0,,,74,76
47969,note_on,,29,0,6,,,,,,,,,,,,,,,1,,,65,0
47969,note_on,,29,0,5,,,,,,,,,,,,,,,0,,,74,0
47970,note_on,,1,0,5,,,,,,,,,,,,,,,0,,,75,76
47970,note_on,,1,0,6,,,,,,,,,,,,,,,1,,,67,76
47984,note_on,,224,0,7,,,,,,,,,,,,,,,2,,,51,0
47999,note_on,,29,0,5,,,,,,,,,,,,,,,0,,,75,0
47999,note_on,,29,0,6,,,,,,,,,,,,,,,1,,,67,0
48000,note_on,,16,0,7,,,,,,,,,,,,,,,2,,,50,76
48000,note_on,,1,0,5,,,,,,,,,,,,,,,0,,,77,76
48000,note_on,,1,0,6,,,,,,,,,,,,,,,1,,,68,76
48104,note_on,,104,0,7,,,,,,,,,,,,,,,2,,,50,0
48120,note_on,,16,0,7,,,,,,,,,,,,,,,2,,,48,76
48224,note_on,,104,0,7,,,,,,,,,,,,,,,2,,,48,0
48240,note_on,,16,0,7,,,,,,,,,,,,,,,2,,,47,76
48464,note_on,,224,0,7,,,,,,,,,,,,,,,2,,,47,0
48464,note_on,,464,0,5,,,,,,,,,,,,,,,0,,,77,0
48464,note_on,,464,0,6,,,,,,,,,,,,,,,1,,,68,0
48480,note_on,,16,0,6,,,,,,,,,,,,,,,1,,,67,76
48480,note_on,,16,0,5,,,,,,,,,,,,,,,0,,,75,76
48480,note_on,,16,0,7,,,,,,,,,,,,,,,2,,,43,76
48584,note_on,,104,0,6,,,,,,,,,,,,,,,1,,,67,0
48584,note_on,,104,0,5,,,,,,,,,,,,,,,0,,,75,0
48600,note_on,,16,0,5,,,,,,,,,,,,,,,0,,,74,76
48600,note_on,,16,0,6,,,,,,,,,,,,,,,1,,,65,76
48704,note_on,,104,0,6,,,,,,,,,,,,,,,1,,,65,0
48704,note_on,,224,0,7,,,,,,,,,,,,,,,2,,,43,0
48704,note_on,,104,0,5,,,,,,,,,,,,,,,0,,,74,0
48720,note_on,,16,0,7,,,,,,,,,,,,,,,2,,,48,76
48720,note_on,,16,0,5,,,,,,,,,,,,,,,0,,,75,76
48720,note_on,,16,0,6,,,,,,,,,,,,,,,1,,,67,76
48824,note_on,,104,0,5,,,,,,,,,,,,,,,0,,,75,0
48824,note_on,,104,0,6,,,,,,,,,,,,,,,1,,,67,0
48840,note_on,,16,0,6,,,,,,,,,,,,,,,1,,,63,76
48840,note_on,,16,0,5,,,,,,,,,,,,,,,0,,,72,76
48944,note_on,,104,0,5,,,,,,,,,,,,,,,0,,,72,0
48944,note_on,,224,0,7,,,,,,,,,,,,,,,2,,,48,0
48944,note_on,,104,0,6,,,,,,,,,,,,,,,1,,,63,0
48960,note_on,,16,0,7,,,,,,,,,,,,,,,2,,,44,76
48960,note_on,,16,0,6,,,,,,,,,,,,,,,1,,,65,76
48960,note_on,,16,0,5,,,,,,,,,,,,,,,0,,,74,76
49064,note_on,,104,0,7,,,,,,,,,,,,,,,2,,,44,0
49080,note_on,,16,0,7,,,,,,,,,,,,,,,2,,,41,76
49184,note_on,,104,0,7,,,,,,,,,,,,,,,2,,,41,0
49200,note_on,,16,0,7,,,,,,,,,,,,,,,2,,,43,76
49424,note_on,,224,0,7,,,,,,,,,,,,,,,2,,,43,0
49424,note_on,,464,0,5,,,,,,,,,,,,,,,0,,,74,0
49424,note_on,,464,0,6,,,,,,,,,,,,,,,1,,,65,0
49440,note_on,,16,0,5,,,,,,,,,,,,,,,0,,,72,76
49440,note_on,,16,0,7,,,,,,,,,,,,,,,2,,,43,76
49440,note_on,,16,0,6,,,,,,,,,,,,,,,1,,,63,76
49544,note_on,,104,0,5,,,,,,,,,,,,,,,0,,,72,0
49544,note_on,,104,0,6,,,,,,,,,,,,,,,1,,,63,0
49560,note_on,,16,0,5,,,,,,,,,,,,,,,0,,,71,76
49560,note_on,,16,0,6,,,,,,,,,,,,,,,1,,,62,76
49664,note_on,,104,0,6,,,,,,,,,,,,,,,1,,,62,0
49664,note_on,,104,0,5,,,,,,,,,,,,,,,0,,,71,0
49664,note_on,,224,0,7,,,,,,,,,,,,,,,2,,,43,0
49680,note_on,,16,0,7,,,,,,,,,,,,,,,2,,,48,76
49680,note_on,,16,0,6,,,,,,,,,,,,,,,1,,,63,76
49680,note_on,,16,0,5,,,,,,,,,,,,,,,0,,,72,76
49784,note_on,,104,0,5,,,,,,,,,,,,,,,0,,,72,0
49800,note_on,,16,0,5,,,,,,,,,,,,,,,0,,,67,76
49904,note_on,,104,0,5,,,,,,,,,,,,,,,0,,,67,0
49904,note_on,,224,0,7,,,,,,,,,,,,,,,2,,,48,0
49920,note_on,,16,0,5,,,,,,,,,,,,,,,0,,,69,76
49920,note_on,,16,0,7,,,,,,,,,,,,,,,2,,,43,76
50024,note_on,,104,0,5,,,,,,,,,,,,,,,0,,,69,0
50024,note_on,,344,0,6,,,,,,,,,,,,,,,1,,,63,0
50040,note_on,,16,0,5,,,,,,,,,,,,,,,0,,,71,76
50040,note_on,,16,0,6,,,,,,,,,,,,,,,1,,,62,76
50144,note_on,,104,0,5,,,,,,,,,,,,,,,0,,,71,0
50144,note_on,,104,0,6,,,,,,,,,,,,,,,1,,,62,0
50144,note_on,,224,0,7,,,,,,,,,,,,,,,2,,,43,0
50160,note_on,,16,0,6,,,,,,,,,,,,,,,1,,,63,76
50160,note_on,,16,0,7,,,,,,,,,,,,,,,2,,,39,76
50160,note_on,,16,0,5,,,,,,,,,,,,,,,0,,,72,76
50264,note_on,,104,0,6,,,,,,,,,,,,,,,1,,,63,0
50264,note_on,,104,0,5,,,,,,,,,,,,,,,0,,,72,0
50280,note_on,,16,0,6,,,,,,,,,,,,,,,1,,,65,76
50280,note_on,,16,0,5,,,,,,,,,,,,,,,0,,,74,76
50384,note_on,,224,0,7,,,,,,,,,,,,,,,2,,,39,0
50384,note_on,,104,0,6,,,,,,,,,,,,,,,1,,,65,0
50384,note_on,,104,0,5,,,,,,,,,,,,,,,0,,,74,0
50400,note_on,,16,0,6,,,,,,,,,,,,,,,1,,,67,76
50400,note_on,,16,0,7,,,,,,,,,,,,,,,2,,,36,76
50400,note_on,,16,0,5,,,,,,,,,,,,,,,0,,,75,76
50504,note_on,,104,0,5,,,,,,,,,,,,,,,0,,,75,0
50504,note_on,,104,0,6,,,,,,,,,,,,,,,1,,,67,0
50520,note_on,,16,0,5,,,,,,,,,,,,,,,0,,,77,76
50520,note_on,,16,0,6,,,,,,,,,,,,,,,1,,,68,76
50624,note_on,,224,0,7,,,,,,,,,,,,,,,2,,,36,0
50624,note_on,,104,0,6,,,,,,,,,,,,,,,1,,,68,0
50624,note_on,,104,0,5,,,,,,,,,,,,,,,0,,,77,0
50640,note_on,,16,0,6,,,,,,,,,,,,,,,1,,,67,76
50640,note_on,,16,0,7,,,,,,,,,,,,,,,2,,,41,76
50640,note_on,,16,0,5,,,,,,,,,,,,,,,0,,,75,76
50864,note_on,,224,0,5,,,,,,,,,,,,,,,0,,,75,0
50864,note_on,,224,0,6,,,,,,,,,,,,,,,1,,,67,0
50880,note_on,,16,0,5,,,,,,,,,,,,,,,0,,,74,76
50880,note_on,,16,0,6,,,,,,,,,,,,,,,1,,,65,76
51104,note_on,,464,0,7,,,,,,,,,,,,,,,2,,,41,0
51120,note_on,,16,0,7,,,,,,,,,,,,,,,2,,,43,76
51344,note_on,,464,0,5,,,,,,,,,,,,,,,0,,,74,0
51344,note_on,,224,0,7,,,,,,,,,,,,,,,2,,,43,0
51344,note_on,,464,0,6,,,,,,,,,,,,,,,1,,,65,0
51360,note_on,,16,0,7,,,,,,,,,,,,,,,2,,,55,76
51360,note_on,,16,0,6,,,,,,,,,,,,,,,1,,,63,76
51360,note_on,,16,0,5,,,,,,,,,,,,,,,0,,,72,76
51464,note_on,,104,0,6,,,,,,,,,,,,,,,1,,,63,0
51464,note_on,,104,0,5,,,,,,,,,,,,,,,0,,,72,0
51480,note_on,,16,0,5,,,,,,,,,,,,,,,0,,,71,76
51480,note_on,,16,0,6,,,,,,,,,,,,,,,1,,,62,76
51584,note_on,,104,0,6,,,,,,,,,,,,,,,1,,,62,0
51584,note_on,,104,0,5,,,,,,,,,,,,,,,0,,,71,0
51600,note_on,,16,0,6,,,,,,,,,,,,,,,1,,,63,76
51600,note_on,,16,0,5,,,,,,,,,,,,,,,0,,,72,76
51824,note_on,,224,0,5,,,,,,,,,,,,,,,0,,,72,0
51824,note_on,,224,0,6,,,,,,,,,,,,,,,1,,,63,0
51824,note_on,,464,0,7,,,,,,,,,,,,,,,2,,,55,0
51840,note_on,,16,0,5,,,,,,,,,,,,,,,0,,,80,76
51840,note_on,,16,0,7,,,,,,,,,,,,,,,2,,,53,76
51840,note_on,,16,0,6,,,,,,,,,,,,,,,1,,,65,76
51944,note_on,,104,0,7,,,,,,,,,,,,,,,2,,,53,0
51960,note_on,,16,0,7,,,,,,,,,,,,,,,2,,,51,76
52064,note_on,,104,0,7,,,,,,,,,,,,,,,2,,,51,0
52080,note_on,,16,0,7,,,,,,,,,,,,,,,2,,,50,76
52304,note_on,,464,0,5,,,,,,,,,,,,,,,0,,,80,0
52304,note_on,,224,0,7,,,,,,,,,,,,,,,2,,,50,0
52304,note_on,,464,0,6,,,,,,,,,,,,,,,1,,,65,0
52320,note_on,,16,0,6,,,,,,,,,,,,,,,1,,,63,76
52320,note_on,,16,0,5,,,,,,,,,,,,,,,0,,,79,76
52320,note_on,,16,0,7,,,,,,,,,,,,,,,2,,,46,76
52424,note_on,,104,0,5,,,,,,,,,,,,,,,0,,,79,0
52424,note_on,,104,0,6,,,,,,,,,,,,,,,1,,,63,0
52440,note_on,,16,0,5,,,,,,,,,,,,,,,0,,,77,76
52440,note_on,,16,0,6,,,,,,,,,,,,,,,1,,,62,76
52544,note_on,,104,0,5,,,,,,,,,,,,,,,0,,,77,0
52544,note_on,,104,0,6,,,,,,,,,,,,,,,1,,,62,0
52544,note_on,,224,0,7,,,,,,,,,,,,,,,2,,,46,0
52560,note_on,,16,0,7,,,,,,,,,,,,,,,2,,,51,76
52560,note_on,,16,0,6,,,,,,,,,,,,,,,1,,,63,76
52560,note_on,,16,0,5,,,,,,,,,,,,,,,0,,,79,76
52664,note_on,,104,0,6,,,,,,,,,,,,,,,1,,,63,0
52664,note_on,,104,0,5,,,,,,,,,,,,,,,0,,,79,0
52680,note_on,,16,0,6,,,,,,,,,,,,,,,1,,,67,76
52680,note_on,,16,0,5,,,,,,,,,,,,,,,0,,,75,76
52784,note_on,,104,0,6,,,,,,,,,,,,,,,1,,,67,0
52784,note_on,,104,0,5,,,,,,,,,,,,,,,0,,,75,0
52784,note_on,,224,0,7,,,,,,,,,,,,,,,2,,,51,0
52800,note_on,,16,0,5,,,,,,,,,,,,,,,0,,,77,76
52800,note_on,,16,0,7,,,,,,,,,,,,,,,2,,,48,76
52800,note_on,,16,0,6,,,,,,,,,,,,,,,1,,,68,76
52904,note_on,,104,0,7,,,,,,,,,,,,,,,2,,,48,0
52920,note_on,,16,0,7,,,,,,,,,,,,,,,2,,,44,76
53024,note_on,,104,0,7,,,,,,,,,,,,,,,2,,,44,0
53040,note_on,,16,0,7,,,,,,,,,,,,,,,2,,,46,76
53264,note_on,,224,0,7,,,,,,,,,,,,,,,2,,,46,0
53264,note_on,,464,0,5,,,,,,,,,,,,,,,0,,,77,0
53264,note_on,,464,0,6,,,,,,,,,,,,,,,1,,,68,0
53280,note_on,,16,0,5,,,,,,,,,,,,,,,0,,,75,76
53280,note_on,,16,0,6,,,,,,,,,,,,,,,1,,,67,76
53280,note_on,,16,0,7,,,,,,,,,,,,,,,2,,,46,76
53384,note_on,,104,0,6,,,,,,,,,,,,,,,1,,,67,0
53384,note_on,,104,0,5,,,,,,,,,,,,,,,0,,,75,0
53400,note_on,,16,0,5,,,,,,,,,,,,,,,0,,,74,76
53400,note_on,,16,0,6,,,,,,,,,,,,,,,1,,,65,76
53504,note_on,,224,0,7,,,,,,,,,,,,,,,2,,,46,0
53504,note_on,,104,0,6,,,,,,,,,,,,,,,1,,,65,0
53504,note_on,,104,0,5,,,,,,,,,,,,,,,0,,,74,0
53520,note_on,,16,0,7,,,,,,,,,,,,,,,2,,,39,76
53520,note_on,,16,0,6,,,,,,,,,,,,,,,1,,,67,76
53520,note_on,,16,0,5,,,,,,,,,,,,,,,0,,,75,76
54224,note_on,,704,0,6,,,,,,,,,,,,,,,1,,,67,0
54224,note_on,,704,0,7,,,,,,,,,,,,,,,2,,,39,0
54224,note_on,,704,0,5,,,,,,,,,,,,,,,0,,,75,0
54240,note_on,,16,0,5,,,,,,,,,,,,,,,0,,,75,76
54240,note_on,,16,0,6,,,,,,,,,,,,,,,1,,,67,76
54240,note_on,,16,0,7,,,,,,,,,,,,,,,2,,,60,76
54359,note_on,,119,0,6,,,,,,,,,,,,,,,1,,,67,0
54359,note_on,,119,0,5,,,,,,,,,,,,,,,0,,,75,0
54360,note_on,,1,0,6,,,,,,,,,,,,,,,1,,,65,76
54360,note_on,,1,0,5,,,,,,,,,,,,,,,0,,,74,76
54464,note_on,,104,0,6,,,,,,,,,,,,,,,1,,,65,0
54464,note_on,,104,0,5,,,,,,,,,,,,,,,0,,,74,0
54464,note_on,,224,0,7,,,,,,,,,,,,,,,2,,,60,0
54480,note_on,,16,0,6,,,,,,,,,,,,,,,1,,,67,76
54480,note_on,,16,0,7,,,,,,,,,,,,,,,2,,,53,76
54480,note_on,,16,0,5,,,,,,,,,,,,,,,0,,,75,76
54704,note_on,,224,0,6,,,,,,,,,,,,,,,1,,,67,0
54704,note_on,,224,0,5,,,,,,,,,,,,,,,0,,,75,0
54720,note_on,,16,0,6,,,,,,,,,,,,,,,1,,,65,76
54720,note_on,,16,0,5,,,,,,,,,,,,,,,0,,,74,76
54944,note_on,,464,0,7,,,,,,,,,,,,,,,2,,,53,0
54960,note_on,,16,0,7,,,,,,,,,,,,,,,2,,,55,76
55184,note_on,,464,0,6,,,,,,,,,,,,,,,1,,,65,0
55184,note_on,,464,0,5,,,,,,,,,,,,,,,0,,,74,0
55200,note_on,,16,0,6,,,,,,,,,,,,,,,1,,,63,76
55200,note_on,,16,0,5,,,,,,,,,,,,,,,0,,,72,76
55304,note_on,,104,0,5,,,,,,,,,,,,,,,0,,,72,0
55304,note_on,,104,0,6,,,,,,,,,,,,,,,1,,,63,0
55320,note_on,,16,0,5,,,,,,,,,,,,,,,0,,,71,76
55320,note_on,,16,0,6,,,,,,,,,,,,,,,1,,,62,76
55424,note_on,,104,0,6,,,,,,,,,,,,,,,1,,,62,0
55424,note_on,,104,0,5,,,,,,,,,,,,,,,0,,,71,0
55424,note_on,,464,0,7,,,,,,,,,,,,,,,2,,,55,0
55440,note_on,,16,0,5,,,,,,,,,,,,,,,0,,,72,76
55440,note_on,,16,0,7,,,,,,,,,,,,,,,2,,,51,76
55440,note_on,,16,0,6,,,,,,,,,,,,,,,1,,,63,76
55604,note_on,,164,0,6,,,,,,,,,,,,,,,1,,,63,0
55604,note_on,,164,0,5,,,,,,,,,,,,,,,0,,,72,0
55620,note_on,,16,0,6,,,,,,,,,,,,,,,1,,,65,76
55620,note_on,,16,0,5,,,,,,,,,,,,,,,0,,,74,76
55649,note_on,,29,0,5,,,,,,,,,,,,,,,0,,,74,0
55649,note_on,,29,0,6,,,,,,,,,,,,,,,1,,,65,0
55650,note_on,,1,0,6,,,,,,,,,,,,,,,1,,,67,76
55650,note_on,,1,0,5,,,,,,,,,,,,,,,0,,,75,76
55664,note_on,,224,0,7,,,,,,,,,,,,,,,2,,,51,0
55679,note_on,,29,0,5,,,,,,,,,,,,,,,0,,,75,0
55679,note_on,,29,0,6,,,,,,,,,,,,,,,1,,,67,0
55680,note_on,,1,0,5,,,,,,,,,,,,,,,0,,,77,76
55680,note_on,,1,0,6,,,,,,,,,,,,,,,1,,,68,76
55680,note_on,,16,0,7,,,,,,,,,,,,,,,2,,,50,76
55784,note_on,,104,0,7,,,,,,,,,,,,,,,2,,,50,0
55800,note_on,,16,0,7,,,,,,,,,,,,,,,2,,,48,76
55904,note_on,,104,0,7,,,,,,,,,,,,,,,2,,,48,0
55920,note_on,,16,0,7,,,,,,,,,,,,,,,2,,,47,76
56144,note_on,,224,0,7,,,,,,,,,,,,,,,2,,,47,0
56144,note_on,,464,0,5,,,,,,,,,,,,,,,0,,,77,0
56144,note_on,,464,0,6,,,,,,,,,,,,,,,1,,,68,0
56160,note_on,,16,0,6,,,,,,,,,,,,,,,1,,,67,76
56160,note_on,,16,0,5,,,,,,,,,,,,,,,0,,,75,76
56160,note_on,,16,0,7,,,,,,,,,,,,,,,2,,,43,76
56264,note_on,,104,0,6,,,,,,,,,,,,,,,1,,,67,0
56264,note_on,,104,0,5,,,,,,,,,,,,,,,0,,,75,0
56280,note_on,,16,0,6,,,,,,,,,,,,,,,1,,,65,76
56280,note_on,,16,0,5,,,,,,,,,,,,,,,0,,,74,76
56384,note_on,,104,0,5,,,,,,,,,,,,,,,0,,,74,0
56384,note_on,,224,0,7,,,,,,,,,,,,,,,2,,,43,0
56384,note_on,,104,0,6,,,,,,,,,,,,,,,1,,,65,0
56400,note_on,,16,0,7,,,,,,,,,,,,,,,2,,,48,76
56400,note_on,,16,0,5,,,,,,,,,,,,,,,0,,,75,76
56400,note_on,,16,0,6,,,,,,,,,,,,,,,1,,,67,76
56504,note_on,,104,0,5,,,,,,,,,,,,,,,0,,,75,0
56504,note_on,,104,0,6,,,,,,,,,,,,,,,1,,,67,0
56520,note_on,,16,0,6,,,,,,,,,,,,,,,1,,,63,76
56520,note_on,,16,0,5,,,,,,,,,,,,,,,0,,,72,76
56624,note_on,,104,0,6,,,,,,,,,,,,,,,1,,,63,0
56624,note_on,,224,0,7,,,,,,,,,,,,,,,2,,,48,0
56624,note_on,,104,0,5,,,,,,,,,,,,,,,0,,,72,0
56640,note_on,,16,0,5,,,,,,,,,,,,,,,0,,,74,76
56640,note_on,,16,0,7,,,,,,,,,,,,,,,2,,,44,76
56640,note_on,,16,0,6,,,,,,,,,,,,,,,1,,,65,76
56744,note_on,,104,0,7,,,,,,,,,,,,,,,2,,,44,0
56760,note_on,,16,0,7,,,,,,,,,,,,,,,2,,,41,76
56864,note_on,,104,0,7,,,,,,,,,,,,,,,2,,,41,0
56880,note_on,,16,0,7,,,,,,,,,,,,,,,2,,,43,76
57104,note_on,,224,0,7,,,,,,,,,,,,,,,2,,,43,0
57104,note_on,,464,0,5,,,,,,,,,,,,,,,0,,,74,0
57104,note_on,,464,0,6,,,,,,,,,,,,,,,1,,,65,0
57120,note_on,,16,0,6,,,,,,,,,,,,,,,1,,,63,76
57120,note_on,,16,0,7,,,,,,,,,,,,,,,2,,,43,76
57120,note_on,,16,0,5,,,,,,,,,,,,,,,0,,,72,76
57224,note_on,,104,0,6,,,,,,,,,,,,,,,1,,,63,0
57224,note_on,,104,0,5,,,,,,,,,,,,,,,0,,,72,0
57240,note_on,,16,0,5,,,,,,,,,,,,,,,0,,,71,76
57240,note_on,,16,0,6,,,,,,,,,,,,,,,1,,,62,76
57344,note_on,,224,0,7,,,,,,,,,,,,,,,2,,,43,0
57344,note_on,,104,0,5,,,,,,,,,,,,,,,0,,,71,0
57344,note_on,,104,0,6,,,,,,,,,,,,,,,1,,,62,0
57360,note_on,,16,0,6,,,,,,,,,,,,,,,1,,,63,76
57360,note_on,,16,0,7,,,,,,,,,,,,,,,2,,,48,76
57360,note_on,,16,0,5,,,,,,,,,,,,,,,0,,,72,76
57464,note_on,,104,0,5,,,,,,,,,,,,,,,0,,,72,0
57480,note_on,,16,0,5,,,,,,,,,,,,,,,0,,,67,76
57584,note_on,,224,0,7,,,,,,,,,,,,,,,2,,,48,0
57584,note_on,,104,0,5,,,,,,,,,,,,,,,0,,,67,0
57600,note_on,,16,0,5,,,,,,,,,,,,,,,0,,,69,76
57600,note_on,,16,0,7,,,,,,,,,,,,,,,2,,,43,76
57704,note_on,,104,0,5,,,,,,,,,,,,,,,0,,,69,0
57704,note_on,,344,0,6,,,,,,,,,,,,,,,1,,,63,0
57720,note_on,,16,0,5,,,,,,,,,,,,,,,0,,,71,76
57720,note_on,,16,0,6,,,,,,,,,,,,,,,1,,,62,76
57824,note_on,,224,0,7,,,,,,,,,,,,,,,2,,,43,0
57824,note_on,,104,0,5,,,,,,,,,,,,,,,0,,,71,0
57824,note_on,,104,0,6,,,,,,,,,,,,,,,1,,,62,0
57840,note_on,,16,0,5,,,,,,,,,,,,,,,0,,,72,76
57840,note_on,,16,0,6,,,,,,,,,,,,,,,1,,,63,76
57840,note_on,,16,0,7,,,,,,,,,,,,,,,2,,,39,76
57944,note_on,,104,0,6,,,,,,,,,,,,,,,1,,,63,0
57944,note_on,,104,0,5,,,,,,,,,,,,,,,0,,,72,0
57960,note_on,,16,0,5,,,,,,,,,,,,,,,0,,,74,76
57960,note_on,,16,0,6,,,,,,,,,,,,,,,1,,,65,76
58064,note_on,,224,0,7,,,,,,,,,,,,,,,2,,,39,0
58064,note_on,,104,0,6,,,,,,,,,,,,,,,1,,,65,0
58064,note_on,,104,0,5,,,,,,,,,,,,,,,0,,,74,0
58080,note_on,,16,0,6,,,,,,,,,,,,,,,1,,,67,76
58080,note_on,,16,0,5,,,,,,,,,,,,,,,0,,,75,76
58080,note_on,,16,0,7,,,,,,,,,,,,,,,2,,,36,76
58184,note_on,,104,0,6,,,,,,,,,,,,,,,1,,,67,0
58184,note_on,,104,0,5,,,,,,,,,,,,,,,0,,,75,0
58200,note_on,,16,0,5,,,,,,,,,,,,,,,0,,,77,76
58200,note_on,,16,0,6,,,,,,,,,,,,,,,1,,,68,76
58304,note_on,,104,0,5,,,,,,,,,,,,,,,0,,,77,0
58304,note_on,,224,0,7,,,,,,,,,,,,,,,2,,,36,0
58304,note_on,,104,0,6,,,,,,,,,,,,,,,1,,,68,0
58320,note_on,,16,0,6,,,,,,,,,,,,,,,1,,,67,76
58320,note_on,,16,0,7,,,,,,,,,,,,,,,2,,,41,76
58320,note_on,,16,0,5,,,,,,,,,,,,,,,0,,,75,76
58544,note_on,,224,0,6,,,,,,,,,,,,,,,1,,,67,0
58544,note_on,,224,0,5,,,,,,,,,,,,,,,0,,,75,0
58560,note_on,,16,0,6,,,,,,,,,,,,,,,1,,,65,76
58560,note_on,,16,0,5,,,,,,,,,,,,,,,0,,,74,76
58784,note_on,,464,0,7,,,,,,,,,,,,,,,2,,,41,0
58800,note_on,,16,0,7,,,,,,,,,,,,,,,2,,,43,76
59024,note_on,,464,0,6,,,,,,,,,,,,,,,1,,,65,0
59024,note_on,,464,0,5,,,,,,,,,,,,,,,0,,,74,0
59024,note_on,,224,0,7,,,,,,,,,,,,,,,2,,,43,0
59040,note_on,,16,0,5,,,,,,,,,,,,,,,0,,,72,76
59040,note_on,,16,0,6,,,,,,,,,,,,,,,1,,,63,76
59040,note_on,,16,0,7,,,,,,,,,,,,,,,2,,,55,76
59144,note_on,,104,0,5,,,,,,,,,,,,,,,0,,,72,0
59144,note_on,,104,0,6,,,,,,,,,,,,,,,1,,,63,0
59160,note_on,,16,0,5,,,,,,,,,,,,,,,0,,,71,76
59160,note_on,,16,0,6,,,,,,,,,,,,,,,1,,,62,76
59264,note_on,,104,0,5,,,,,,,,,,,,,,,0,,,71,0
59264,note_on,,104,0,6,,,,,,,,,,,,,,,1,,,62,0
59280,note_on,,16,0,6,,,,,,,,,,,,,,,1,,,63,76
59280,note_on,,16,0,5,,,,,,,,,,,,,,,0,,,72,76
59504,note_on,,224,0,6,,,,,,,,,,,,,,,1,,,63,0
59504,note_on,,224,0,5,,,,,,,,,,,,,,,0,,,72,0
59504,note_on,,464,0,7,,,,,,,,,,,,,,,2,,,55,0
59520,note_on,,16,0,7,,,,,,,,,,,,,,,2,,,53,76
59520,note_on,,16,0,6,,,,,,,,,,,,,,,1,,,65,76
59520,note_on,,16,0,5,,,,,,,,,,,,,,,0,,,80,76
59624,note_on,,104,0,7,,,,,,,,,,,,,,,2,,,53,0
59640,note_on,,16,0,7,,,,,,,,,,,,,,,2,,,51,76
59744,note_on,,104,0,7,,,,,,,,,,,,,,,2,,,51,0
59760,note_on,,16,0,7,,,,,,,,,,,,,,,2,,,50,76
59984,note_on,,464,0,6,,,,,,,,,,,,,,,1,,,65,0
59984,note_on,,464,0,5,,,,,,,,,,,,,,,0,,,80,0
59984,note_on,,224,0,7,,,,,,,,,,,,,,,2,,,50,0
60000,note_on,,16,0,7,,,,,,,,,,,,,,,2,,,46,76
60000,note_on,,16,0,6,,,,,,,,,,,,,,,1,,,63,76
60000,note_on,,16,0,5,,,,,,,,,,,,,,,0,,,79,76
60104,note_on,,104,0,5,,,,,,,,,,,,,,,0,,,79,0
60104,note_on,,104,0,6,,,,,,,,,,,,,,,1,,,63,0
60120,note_on,,16,0,6,,,,,,,,,,,,,,,1,,,62,76
60120,note_on,,16,0,5,,,,,,,,,,,,,,,0,,,77,76
60224,note_on,,104,0,6,,,,,,,,,,,,,,,1,,,62,0
60224,note_on,,224,0,7,,,,,,,,,,,,,,,2,,,46,0
60224,note_on,,104,0,5,,,,,,,,,,,,,,,0,,,77,0
60240,note_on,,16,0,5,,,,,,,,,,,,,,,0,,,79,76
60240,note_on,,16,0,6,,,,,,,,,,,,,,,1,,,63,76
60240,note_on,,16,0,7,,,,,,,,,,,,,,,2,,,51,76
60344,note_on,,104,0,5,,,,,,,,,,,,,,,0,,,79,0
60344,note_on,,104,0,6,,,,,,,,,,,,,,,1,,,63,0
60360,note_on,,16,0,5,,,,,,,,,,,,,,,0,,,75,76
60360,note_on,,16,0,6,,,,,,,,,,,,,,,1,,,67,76
60464,note_on,,104,0,6,,,,,,,,,,,,,,,1,,,67,0
60464,note_on,,104,0,5,,,,,,,,,,,,,,,0,,,75,0
60464,note_on,,224,0,7,,,,,,,,,,,,,,,2,,,51,0
60480,note_on,,16,0,6,,,,,,,,,,,,,,,1,,,68,76
60480,note_on,,16,0,7,,,,,,,,,,,,,,,2,,,48,76
60480,note_on,,16,0,5,,,,,,,,,,,,,,,0,,,77,76
60584,note_on,,104,0,7,,,,,,,,,,,,,,,2,,,48,0
60600,note_on,,16,0,7,,,,,,,,,,,,,,,2,,,44,76
60704,note_on,,104,0,7,,,,,,,,,,,,,,,2,,,44,0
60720,note_on,,16,0,7,,,,,,,,,,,,,,,2,,,46,76
60944,note_on,,224,0,7,,,,,,,,,,,,,,,2,,,46,0
60944,note_on,,464,0,6,,,,,,,,,,,,,,,1,,,68,0
60944,note_on,,464,0,5,,,,,,,,,,,,,,,0,,,77,0
60960,note_on,,16,0,5,,,,,,,,,,,,,,,0,,,75,76
60960,note_on,,16,0,6,,,,,,,,,,,,,,,1,,,67,76
60960,note_on,,16,0,7,,,,,,,,,,,,,,,2,,,46,76
61064,note_on,,104,0,6,,,,,,,,,,,,,,,1,,,67,0
61064,note_on,,104,0,5,,,,,,,,,,,,,,,0,,,75,0
61080,note_on,,16,0,5,,,,,,,,,,,,,,,0,,,74,76
61080,note_on,,16,0,6,,,,,,,,,,,,,,,1,,,65,76
61184,note_on,,104,0,5,,,,,,,,,,,,,,,0,,,74,0
61184,note_on,,104,0,6,,,,,,,,,,,,,,,1,,,65,0
61184,note_on,,224,0,7,,,,,,,,,,,,,,,2,,,46,0
61200,note_on,,16,0,5,,,,,,,,,,,,,,,0,,,75,76
61200,note_on,,16,0,7,,,,,,,,,,,,,,,2,,,39,76
61200,note_on,,16,0,6,,,,,,,,,,,,,,,1,,,67,76
61904,note_on,,704,0,6,,,,,,,,,,,,,,,1,,,67,0
61904,note_on,,704,0,5,,,,,,,,,,,,,,,0,,,75,0
61904,note_on,,704,0,7,,,,,,,,,,,,,,,2,,,39,0
61920,note_on,,16,0,7,,,,,,,,,,,,,,,2,,,51,76
61920,note_on,,16,0,6,,,,,,,,,,,,,,,1,,,70,76
61920,note_on,,16,0,5,,,,,,,,,,,,,,,0,,,79,76
62024,note_on,,104,0,6,,,,,,,,,,,,,,,1,,,70,0
62024,note_on,,104,0,5,,,,,,,,,,,,,,,0,,,79,0
62040,note_on,,16,0,6,,,,,,,,,,,,,,,1,,,69,76
62040,note_on,,16,0,5,,,,,,,,,,,,,,,0,,,77,76
62144,note_on,,104,0,5,,,,,,,,,,,,,,,0,,,77,0
62144,note_on,,104,0,6,,,,,,,,,,,,,,,1,,,69,0
62144,note_on,,224,0,7,,,,,,,,,,,,,,,2,,,51,0
62160,note_on,,16,0,5,,,,,,,,,,,,,,,0,,,79,76
62160,note_on,,16,0,7,,,,,,,,,,,,,,,2,,,50,76
62160,note_on,,16,0,6,,,,,,,,,,,,,,,1,,,70,76
62384,note_on,,224,0,6,,,,,,,,,,,,,,,1,,,70,0
62384,note_on,,224,0,5,,,,,,,,,,,,,,,0,,,79,0
62400,note_on,,16,0,6,,,,,,,,,,,,,,,1,,,72,76
62400,note_on,,16,0,5,,,,,,,,,,,,,,,0,,,81,76
62624,note_on,,464,0,7,,,,,,,,,,,,,,,2,,,50,0
62640,note_on,,16,0,7,,,,,,,,,,,,,,,2,,,48,76
62864,note_on,,464,0,6,,,,,,,,,,,,,,,1,,,72,0
62864,note_on,,464,0,5,,,,,,,,,,,,,,,0,,,81,0
62880,note_on,,16,0,6,,,,,,,,,,,,,,,1,,,74,76
62880,note_on,,16,0,5,,,,,,,,,,,,,,,0,,,82,76
62984,note_on,,104,0,6,,,,,,,,,,,,,,,1,,,74,0
63000,note_on,,16,0,6,,,,,,,,,,,,,,,1,,,75,76
63104,note_on,,104,0,6,,,,,,,,,,,,,,,1,,,75,0
63104,note_on,,224,0,5,,,,,,,,,,,,,,,0,,,82,0
63104,note_on,,464,0,7,,,,,,,,,,,,,,,2,,,48,0
63120,note_on,,16,0,5,,,,,,,,,,,,,,,0,,,74,76
63120,note_on,,16,0,6,,,,,,,,,,,,,,,1,,,77,76
63120,note_on,,16,0,7,,,,,,,,,,,,,,,2,,,46,76
63224,note_on,,104,0,5,,,,,,,,,,,,,,,0,,,74,0
63240,note_on,,16,0,5,,,,,,,,,,,,,,,0,,,72,76
63344,note_on,,224,0,7,,,,,,,,,,,,,,,2,,,46,0
63344,note_on,,104,0,5,,,,,,,,,,,,,,,0,,,72,0
63344,note_on,,224,0,6,,,,,,,,,,,,,,,1,,,77,0
63360,note_on,,16,0,6,,,,,,,,,,,,,,,1,,,70,76
63360,note_on,,16,0,5,,,,,,,,,,,,,,,0,,,74,76
63360,note_on,,16,0,7,,,,,,,,,,,,,,,2,,,58,76
63464,note_on,,104,0,6,,,,,,,,,,,,,,,1,,,70,0
63464,note_on,,104,0,5,,,,,,,,,,,,,,,0,,,74,0
63480,note_on,,16,0,5,,,,,,,,,,,,,,,0,,,75,76
63480,note_on,,16,0,6,,,,,,,,,,,,,,,1,,,72,76
63584,note_on,,224,0,7,,,,,,,,,,,,,,,2,,,58,0
63584,note_on,,104,0,5,,,,,,,,,,,,,,,0,,,75,0
63584,note_on,,104,0,6,,,,,,,,,,,,,,,1,,,72,0
63600,note_on,,16,0,5,,,,,,,,,,,,,,,0,,,77,76
63600,note_on,,16,0,6,,,,,,,,,,,,,,,1,,,74,76
63600,note_on,,16,0,7,,,,,,,,,,,,,,,2,,,56,76
63704,note_on,,104,0,6,,,,,,,,,,,,,,,1,,,74,0
63704,note_on,,104,0,5,,,,,,,,,,,,,,,0,,,77,0
63720,note_on,,16,0,6,,,,,,,,,,,,,,,1,,,72,76
63720,note_on,,16,0,5,,,,,,,,,,,,,,,0,,,75,76
63824,note_on,,104,0,5,,,,,,,,,,,,,,,0,,,75,0
63824,note_on,,224,0,7,,,,,,,,,,,,,,,2,,,56,0
63824,note_on,,104,0,6,,,,,,,,,,,,,,,1,,,72,0
63840,note_on,,16,0,6,,,,,,,,,,,,,,,1,,,74,76
63840,note_on,,16,0,7,,,,,,,,,,,,,,,2,,,55,76
63840,note_on,,16,0,5,,,,,,,,,,,,,,,0,,,77,76
63944,note_on,,104,0,6,,,,,,,,,,,,,,,1,,,74,0
63944,note_on,,104,0,5,,,,,,,,,,,,,,,0,,,77,0
63960,note_on,,16,0,5,,,,,,,,,,,,,,,0,,,79,76
63960,note_on,,16,0,6,,,,,,,,,,,,,,,1,,,76,76
64064,note_on,,104,0,5,,,,,,,,,,,,,,,0,,,79,0
64064,note_on,,224,0,7,,,,,,,,,,,,,,,2,,,55,0
64064,note_on,,104,0,6,,,,,,,,,,,,,,,1,,,76,0
64080,note_on,,16,0,5,,,,,,,,,,,,,,,0,,,80,76
64080,note_on,,16,0,7,,,,,,,,,,,,,,,2,,,53,76
64080,note_on,,16,0,6,,,,,,,,,,,,,,,1,,,77,76
64184,note_on,,104,0,6,,,,,,,,,,,,,,,1,,,77,0
64184,note_on,,104,0,5,,,,,,,,,,,,,,,0,,,80,0
64200,note_on,,16,0,5,,,,,,,,,,,,,,,0,,,79,76
64200,note_on,,16,0,6,,,,,,,,,,,,,,,1,,,76,76
64304,note_on,,224,0,7,,,,,,,,,,,,,,,2,,,53,0
64304,note_on,,104,0,5,,,,,,,,,,,,,,,0,,,79,0
64304,note_on,,104,0,6,,,,,,,,,,,,,,,1,,,76,0
64320,note_on,,16,0,7,,,,,,,,,,,,,,,2,,,49,76
64320,note_on,,16,0,6,,,,,,,,,,,,,,,1,,,79,76
64320,note_on,,16,0,5,,,,,,,,,,,,,,,0,,,82,76
64424,note_on,,104,0,7,,,,,,,,,,,,,,,2,,,49,0
64440,note_on,,16,0,7,,,,,,,,,,,,,,,2,,,46,76
64544,note_on,,104,0,7,,,,,,,,,,,,,,,2,,,46,0
64560,note_on,,16,0,7,,,,,,,,,,,,,,,2,,,48,76
64784,note_on,,224,0,7,,,,,,,,,,,,,,,2,,,48,0
64784,note_on,,464,0,6,,,,,,,,,,,,,,,1,,,79,0
64784,note_on,,464,0,5,,,,,,,,,,,,,,,0,,,82,0
64800,note_on,,16,0,5,,,,,,,,,,,,,,,0,,,80,76
64800,note_on,,16,0,6,,,,,,,,,,,,,,,1,,,77,76
64800,note_on,,16,0,7,,,,,,,,,,,,,,,2,,,36,76
64904,note_on,,104,0,5,,,,,,,,,,,,,,,0,,,80,0
64904,note_on,,104,0,6,,,,,,,,,,,,,,,1,,,77,0
64920,note_on,,16,0,5,,,,,,,,,,,,,,,0,,,79,76
64920,note_on,,16,0,6,,,,,,,,,,,,,,,1,,,76,76
65024,note_on,,224,0,7,,,,,,,,,,,,,,,2,,,36,0
65024,note_on,,104,0,5,,,,,,,,,,,,,,,0,,,79,0
65024,note_on,,104,0,6,,,,,,,,,,,,,,,1,,,76,0
65040,note_on,,16,0,6,,,,,,,,,,,,,,,1,,,77,76
65040,note_on,,16,0,7,,,,,,,,,,,,,,,2,,,41,76
65040,note_on,,16,0,5,,,,,,,,,,,,,,,0,,,80,76
65144,note_on,,104,0,5,,,,,,,,,,,,,,,0,,,80,0
65160,note_on,,16,0,5,,,,,,,,,,,,,,,0,,,79,76
65264,note_on,,224,0,7,,,,,,,,,,,,,,,2,,,41,0
65264,note_on,,224,0,6,,,,,,,,,,,,,,,1,,,77,0
65264,note_on,,104,0,5,,,,,,,,,,,,,,,0,,,79,0
65280,note_on,,16,0,5,,,,,,,,,,,,,,,0,,,77,76
65280,note_on,,16,0,6,,,,,,,,,,,,,,,1,,,72,76
65280,note_on,,16,0,7,,,,,,,,,,,,,,,2,,,53,76
65384,note_on,,104,0,5,,,,,,,,,,,,,,,0,,,77,0
65400,note_on,,16,0,5,,,,,,,,,,,,,,,0,,,80,76
65504,note_on,,224,0,7,,,,,,,,,,,,,,,2,,,53,0
65504,note_on,,104,0,5,,,,,,,,,,,,,,,0,,,80,0
65504,note_on,,224,0,6,,,,,,,,,,,,,,,1,,,72,0
65520,note_on,,16,0,7,,,,,,,,,,,,,,,2,,,47,76
65520,note_on,,16,0,5,,,,,,,,,,,,,,,0,,,79,76
65520,note_on,,16,0,6,,,,,,,,,,,,,,,1,,,74,76
65624,note_on,,104,0,5,,,,,,,,,,,,,,,0,,,79,0
65640,note_on,,16,0,5,,,,,,,,,,,,,,,0,,,77,76
65744,note_on,,224,0,7,,,,,,,,,,,,,,,2,,,47,0
65744,note_on,,104,0,5,,,,,,,,,,,,,,,0,,,77,0
65744,note_on,,224,0,6,,,,,,,,,,,,,,,1,,,74,0
65760,note_on,,16,0,6,,,,,,,,,,,,,,,1,,,71,76
65760,note_on,,16,0,7,,,,,,,,,,,,,,,2,,,55,76
65760,note_on,,16,0,5,,,,,,,,,,,,,,,0,,,75,76
65864,note_on,,104,0,5,,,,,,,,,,,,,,,0,,,75,0
65880,note_on,,16,0,5,,,,,,,,,,,,,,,0,,,74,76
65984,note_on,,224,0,7,,,,,,,,,,,,,,,2,,,55,0
65984,note_on,,224,0,6,,,,,,,,,,,,,,,1,,,71,0
65984,note_on,,104,0,5,,,,,,,,,,,,,,,0,,,74,0
66000,note_on,,16,0,6,,,,,,,,,,,,,,,1,,,72,76
66000,note_on,,16,0,7,,,,,,,,,,,,,,,2,,,60,76
66000,note_on,,16,0,5,,,,,,,,,,,,,,,0,,,75,76
66104,note_on,,104,0,5,,,,,,,,,,,,,,,0,,,75,0
66104,note_on,,104,0,6,,,,,,,,,,,,,,,1,,,72,0
66120,note_on,,16,0,6,,,,,,,,,,,,,,,1,,,71,76
66120,note_on,,16,0,5,,,,,,,,,,,,,,,0,,,74,76
66224,note_on,,104,0,5,,,,,,,,,,,,,,,0,,,74,0
66224,note_on,,104,0,6,,,,,,,,,,,,,,,1,,,71,0
66240,note_on,,16,0,6,,,,,,,,,,,,,,,1,,,74,76
66240,note_on,,16,0,5,,,,,,,,,,,,,,,0,,,77,76
66464,note_on,,464,0,7,,,,,,,,,,,,,,,2,,,60,0
66480,note_on,,16,0,7,,,,,,,,,,,,,,,2,,,59,76
66704,note_on,,464,0,6,,,,,,,,,,,,,,,1,,,74,0
66704,note_on,,464,0,5,,,,,,,,,,,,,,,0,,,77,0
66720,note_on,,16,0,5,,,,,,,,,,,,,,,0,,,75,76
66720,note_on,,16,0,6,,,,,,,,,,,,,,,1,,,67,76
66824,note_on,,104,0,5,,,,,,,,,,,,,,,0,,,75,0
66840,note_on,,16,0,5,,,,,,,,,,,,,,,0,,,74,76
66944,note_on,,104,0,5,,,,,,,,,,,,,,,0,,,74,0
66944,note_on,,464,0,7,,,,,,,,,,,,,,,2,,,59,0
66944,note_on,,224,0,6,,,,,,,,,,,,,,,1,,,67,0
66960,note_on,,16,0,5,,,,,,,,,,,,,,,0,,,75,76
66960,note_on,,16,0,7,,,,,,,,,,,,,,,2,,,60,76
66960,note_on,,16,0,6,,,,,,,,,,,,,,,1,,,72,76
67064,note_on,,104,0,5,,,,,,,,,,,,,,,0,,,75,0
67064,note_on,,104,0,6,,,,,,,,,,,,,,,1,,,72,0
67080,note_on,,16,0,5,,,,,,,,,,,,,,,0,,,72,76
67080,note_on,,16,0,6,,,,,,,,,,,,,,,1,,,67,76
67184,note_on,,104,0,6,,,,,,,,,,,,,,,1,,,67,0
67184,note_on,,104,0,5,,,,,,,,,,,,,,,0,,,72,0
67200,note_on,,16,0,6,,,,,,,,,,,,,,,1,,,75,76
67200,note_on,,16,0,5,,,,,,,,,,,,,,,0,,,78,76
67424,note_on,,464,0,7,,,,,,,,,,,,,,,2,,,60,0
67440,note_on,,16,0,7,,,,,,,,,,,,,,,2,,,57,76
67664,note_on,,464,0,6,,,,,,,,,,,,,,,1,,,75,0
67664,note_on,,464,0,5,,,,,,,,,,,,,,,0,,,78,0
67680,note_on,,16,0,6,,,,,,,,,,,,,,,1,,,74,76
67680,note_on,,16,0,5,,,,,,,,,,,,,,,0,,,79,76
67784,note_on,,104,0,5,,,,,,,,,,,,,,,0,,,79,0
67784,note_on,,104,0,6,,,,,,,,,,,,,,,1,,,74,0
67800,note_on,,16,0,5,,,,,,,,,,,,,,,0,,,81,76
67800,note_on,,16,0,6,,,,,,,,,,,,,,,1,,,72,76
67904,note_on,,464,0,7,,,,,,,,,,,,,,,2,,,57,0
67904,note_on,,104,0,5,,,,,,,,,,,,,,,0,,,81,0
67904,note_on,,104,0,6,,,,,,,,,,,,,,,1,,,72,0
67920,note_on,,16,0,6,,,,,,,,,,,,,,,1,,,70,76
67920,note_on,,16,0,7,,,,,,,,,,,,,,,2,,,58,76
67920,note_on,,16,0,5,,,,,,,,,,,,,,,0,,,74,76
68144,note_on,,224,0,6,,,,,,,,,,,,,,,1,,,70,0
68144,note_on,,224,0,5,,,,,,,,,,,,,,,0,,,74,0
68144,note_on,,224,0,7,,,,,,,,,,,,,,,2,,,58,0
68160,note_on,,16,0,5,,,,,,,,,,,,,,,0,,,72,76
68160,note_on,,16,0,7,,,,,,,,,,,,,,,2,,,60,76
68160,note_on,,16,0,6,,,,,,,,,,,,,,,1,,,69,76
68264,note_on,,104,0,6,,,,,,,,,,,,,,,1,,,69,0
68264,note_on,,104,0,5,,,,,,,,,,,,,,,0,,,72,0
68280,note_on,,16,0,6,,,,,,,,,,,,,,,1,,,67,76
68280,note_on,,16,0,5,,,,,,,,,,,,,,,0,,,70,76
68384,note_on,,224,0,7,,,,,,,,,,,,,,,2,,,60,0
68384,note_on,,104,0,5,,,,,,,,,,,,,,,0,,,70,0
68384,note_on,,104,0,6,,,,,,,,,,,,,,,1,,,67,0
68400,note_on,,16,0,6,,,,,,,,,,,,,,,1,,,62,76
68400,note_on,,16,0,7,,,,,,,,,,,,,,,2,,,62,76
68400,note_on,,16,0,5,,,,,,,,,,,,,,,0,,,72,76
68504,note_on,,104,0,5,,,,,,,,,,,,,,,0,,,72,0
68520,note_on,,16,0,5,,,,,,,,,,,,,,,0,,,70,76
68624,note_on,,224,0,6,,,,,,,,,,,,,,,1,,,62,0
68624,note_on,,224,0,7,,,,,,,,,,,,,,,2,,,62,0
68624,note_on,,104,0,5,,,,,,,,,,,,,,,0,,,70,0
68640,note_on,,16,0,6,,,,,,,,,,,,,,,1,,,66,76
68640,note_on,,16,0,5,,,,,,,,,,,,,,,0,,,69,76
68640,note_on,,16,0,7,,,,,,,,,,,,,,,2,,,50,76
68744,note_on,,104,0,5,,,,,,,,,,,,,,,0,,,69,0
68760,note_on,,16,0,5,,,,,,,,,,,,,,,0,,,70,76
68864,note_on,,224,0,7,,,,,,,,,,,,,,,2,,,50,0
68864,note_on,,224,0,6,,,,,,,,,,,,,,,1,,,66,0
68864,note_on,,104,0,5,,,,,,,,,,,,,,,0,,,70,0
68880,note_on,,16,0,6,,,,,,,,,,,,,,,1,,,67,76
68880,note_on,,16,0,7,,,,,,,,,,,,,,,2,,,55,76
68880,note_on,,16,0,5,,,,,,,,,,,,,,,0,,,67,76
69104,note_on,,224,0,7,,,,,,,,,,,,,,,2,,,55,0
69120,note_on,,16,0,7,,,,,,,,,,,,,,,2,,,50,76
69344,note_on,,224,0,7,,,,,,,,,,,,,,,2,,,50,0
69360,note_on,,16,0,7,,,,,,,,,,,,,,,2,,,43,76
69584,note_on,,224,0,7,,,,,,,,,,,,,,,2,,,43,0
69584,note_on,,704,0,5,,,,,,,,,,,,,,,0,,,67,0
69599,note_on,,719,0,6,,,,,,,,,,,,,,,1,,,67,0
69600,note_on,,16,0,5,,,,,,,,,,,,,,,0,,,67,76
69600,note_on,,16,0,7,,,,,,,,,,,,,,,2,,,53,76
69704,note_on,,104,0,5,,,,,,,,,,,,,,,0,,,67,0
69720,note_on,,16,0,5,,,,,,,,,,,,,,,0,,,68,76
69824,note_on,,224,0,7,,,,,,,,,,,,,,,2,,,53,0
69824,note_on,,104,0,5,,,,,,,,,,,,,,,0,,,68,0
69840,note_on,,16,0,5,,,,,,,,,,,,,,,0,,,70,76
69840,note_on,,16,0,7,,,,,,,,,,,,,,,2,,,52,76
69944,note_on,,104,0,5,,,,,,,,,,,,,,,0,,,70,0
69960,note_on,,16,0,5,,,,,,,,,,,,,,,0,,,72,76
70064,note_on,,104,0,5,,,,,,,,,,,,,,,0,,,72,0
70080,note_on,,16,0,5,,,,,,,,,,,,,,,0,,,73,76
70080,note_on,,481,0,6,,,,,,,,,,,,,,,1,,,67,76
70184,note_on,,104,0,6,,,,,,,,,,,,,,,1,,,67,0
70200,note_on,,16,0,6,,,,,,,,,,,,,,,1,,,68,76
70304,note_on,,464,0,7,,,,,,,,,,,,,,,2,,,52,0
70304,note_on,,104,0,6,,,,,,,,,,,,,,,1,,,68,0
70320,note_on,,16,0,7,,,,,,,,,,,,,,,2,,,55,76
70320,note_on,,16,0,6,,,,,,,,,,,,,,,1,,,70,76
70424,note_on,,104,0,6,,,,,,,,,,,,,,,1,,,70,0
70440,note_on,,16,0,6,,,,,,,,,,,,,,,1,,,72,76
70544,note_on,,104,0,6,,,,,,,,,,,,,,,1,,,72,0
70544,note_on,,464,0,5,,,,,,,,,,,,,,,0,,,73,0
70560,note_on,,16,0,6,,,,,,,,,,,,,,,1,,,73,76
70560,note_on,,16,0,5,,,,,,,,,,,,,,,0,,,72,76
70664,note_on,,104,0,5,,,,,,,,,,,,,,,0,,,72,0
70680,note_on,,16,0,5,,,,,,,,,,,,,,,0,,,70,76
70784,note_on,,104,0,5,,,,,,,,,,,,,,,0,,,70,0
70784,note_on,,464,0,7,,,,,,,,,,,,,,,2,,,55,0
70800,note_on,,16,0,7,,,,,,,,,,,,,,,2,,,48,76
70800,note_on,,16,0,5,,,,,,,,,,,,,,,0,,,76,76
71024,note_on,,224,0,5,,,,,,,,,,,,,,,0,,,76,0
71024,note_on,,464,0,6,,,,,,,,,,,,,,,1,,,73,0
71024,note_on,,224,0,7,,,,,,,,,,,,,,,2,,,48,0
71040,note_on,,16,0,6,,,,,,,,,,,,,,,1,,,72,76
71040,note_on,,16,0,5,,,,,,,,,,,,,,,0,,,77,76
71040,note_on,,16,0,7,,,,,,,,,,,,,,,2,,,56,76
71144,note_on,,104,0,6,,,,,,,,,,,,,,,1,,,72,0
71160,note_on,,16,0,6,,,,,,,,,,,,,,,1,,,70,76
71264,note_on,,104,0,6,,,,,,,,,,,,,,,1,,,70,0
71264,note_on,,224,0,7,,,,,,,,,,,,,,,2,,,56,0
71280,note_on,,16,0,6,,,,,,,,,,,,,,,1,,,68,76
71280,note_on,,16,0,7,,,,,,,,,,,,,,,2,,,50,76
71384,note_on,,104,0,6,,,,,,,,,,,,,,,1,,,68,0
71400,note_on,,16,0,6,,,,,,,,,,,,,,,1,,,65,76
71504,note_on,,104,0,6,,,,,,,,,,,,,,,1,,,65,0
71504,note_on,,464,0,5,,,,,,,,,,,,,,,0,,,77,0
71504,note_on,,224,0,7,,,,,,,,,,,,,,,2,,,50,0
71520,note_on,,16,0,7,,,,,,,,,,,,,,,2,,,59,76
71520,note_on,,16,0,6,,,,,,,,,,,,,,,1,,,74,76
71520,note_on,,16,0,5,,,,,,,,,,,,,,,0,,,79,76
71624,note_on,,104,0,5,,,,,,,,,,,,,,,0,,,79,0
71640,note_on,,16,0,5,,,,,,,,,,,,,,,0,,,80,76
71744,note_on,,224,0,7,,,,,,,,,,,,,,,2,,,59,0
71744,note_on,,104,0,5,,,,,,,,,,,,,,,0,,,80,0
71760,note_on,,16,0,5,,,,,,,,,,,,,,,0,,,79,76
71760,note_on,,16,0,7,,,,,,,,,,,,,,,2,,,51,76
71864,note_on,,104,0,5,,,,,,,,,,,,,,,0,,,79,0
71880,note_on,,16,0,5,,,,,,,,,,,,,,,0,,,77,76
71984,note_on,,104,0,5,,,,,,,,,,,,,,,0,,,77,0
71984,note_on,,224,0,7,,,,,,,,,,,,,,,2,,,51,0
71984,note_on,,464,0,6,,,,,,,,,,,,,,,1,,,74,0
72000,note_on,,16,0,5,,,,,,,,,,,,,,,0,,,75,76
72000,note_on,,16,0,7,,,,,,,,,,,,,,,2,,,60,76
72000,note_on,,16,0,6,,,,,,,,,,,,,,,1,,,72,76
72104,note_on,,104,0,5,,,,,,,,,,,,,,,0,,,75,0
72104,note_on,,104,0,6,,,,,,,,,,,,,,,1,,,72,0
72120,note_on,,16,0,5,,,,,,,,,,,,,,,0,,,79,76
72120,note_on,,16,0,6,,,,,,,,,,,,,,,1,,,70,76
72224,note_on,,104,0,5,,,,,,,,,,,,,,,0,,,79,0
72224,note_on,,224,0,7,,,,,,,,,,,,,,,2,,,60,0
72224,note_on,,104,0,6,,,,,,,,,,,,,,,1,,,70,0
72240,note_on,,16,0,7,,,,,,,,,,,,,,,2,,,53,76
72240,note_on,,16,0,6,,,,,,,,,,,,,,,1,,,68,76
72240,note_on,,16,0,5,,,,,,,,,,,,,,,0,,,77,76
72344,note_on,,104,0,6,,,,,,,,,,,,,,,1,,,68,0
72344,note_on,,104,0,5,,,,,,,,,,,,,,,0,,,77,0
72360,note_on,,16,0,5,,,,,,,,,,,,,,,0,,,75,76
72360,note_on,,16,0,6,,,,,,,,,,,,,,,1,,,67,76
72464,note_on,,104,0,5,,,,,,,,,,,,,,,0,,,75,0
72464,note_on,,224,0,7,,,,,,,,,,,,,,,2,,,53,0
72464,note_on,,104,0,6,,,,,,,,,,,,,,,1,,,67,0
72480,note_on,,16,0,5,,,,,,,,,,,,,,,0,,,74,76
72480,note_on,,16,0,6,,,,,,,,,,,,,,,1,,,65,76
72480,note_on,,16,0,7,,,,,,,,,,,,,,,2,,,62,76
72584,note_on,,104,0,5,,,,,,,,,,,,,,,0,,,74,0
72584,note_on,,104,0,6,,,,,,,,,,,,,,,1,,,65,0
72600,note_on,,16,0,6,,,,,,,,,,,,,,,1,,,63,76
72600,note_on,,16,0,5,,,,,,,,,,,,,,,0,,,72,76
72704,note_on,,104,0,6,,,,,,,,,,,,,,,1,,,63,0
72704,note_on,,104,0,5,,,,,,,,,,,,,,,0,,,72,0
72704,note_on,,224,0,7,,,,,,,,,,,,,,,2,,,62,0
72720,note_on,,16,0,5,,,,,,,,,,,,,,,0,,,71,76
72720,note_on,,16,0,7,,,,,,,,,,,,,,,2,,,55,76
72720,note_on,,16,0,6,,,,,,,,,,,,,,,1,,,62,76
72824,note_on,,104,0,6,,,,,,,,,,,,,,,1,,,62,0
72824,note_on,,104,0,5,,,,,,,,,,,,,,,0,,,71,0
72840,note_on,,16,0,5,,,,,,,,,,,,,,,0,,,69,76
72840,note_on,,16,0,6,,,,,,,,,,,,,,,1,,,60,76
72944,note_on,,104,0,5,,,,,,,,,,,,,,,0,,,69,0
72944,note_on,,104,0,6,,,,,,,,,,,,,,,1,,,60,0
72944,note_on,,224,0,7,,,,,,,,,,,,,,,2,,,55,0
72960,note_on,,16,0,6,,,,,,,,,,,,,,,1,,,62,76
72960,note_on,,16,0,5,,,,,,,,,,,,,,,0,,,71,76
72960,note_on,,16,0,7,,,,,,,,,,,,,,,2,,,53,76
73064,note_on,,104,0,5,,,,,,,,,,,,,,,0,,,71,0
73064,note_on,,104,0,6,,,,,,,,,,,,,,,1,,,62,0
73080,note_on,,16,0,5,,,,,,,,,,,,,,,0,,,72,76
73080,note_on,,16,0,6,,,,,,,,,,,,,,,1,,,63,76
73184,note_on,,104,0,5,,,,,,,,,,,,,,,0,,,72,0
73184,note_on,,104,0,6,,,,,,,,,,,,,,,1,,,63,0
73184,note_on,,224,0,7,,,,,,,,,,,,,,,2,,,53,0
73200,note_on,,16,0,5,,,,,,,,,,,,,,,0,,,74,76
73200,note_on,,16,0,6,,,,,,,,,,,,,,,1,,,65,76
73200,note_on,,16,0,7,,,,,,,,,,,,,,,2,,,51,76
73304,note_on,,104,0,6,,,,,,,,,,,,,,,1,,,65,0
73304,note_on,,104,0,5,,,,,,,,,,,,,,,0,,,74,0
73320,note_on,,16,0,5,,,,,,,,,,,,,,,0,,,75,76
73320,note_on,,16,0,6,,,,,,,,,,,,,,,1,,,67,76
73424,note_on,,104,0,5,,,,,,,,,,,,,,,0,,,75,0
73424,note_on,,104,0,6,,,,,,,,,,,,,,,1,,,67,0
73424,note_on,,224,0,7,,,,,,,,,,,,,,,2,,,51,0
73440,note_on,,16,0,6,,,,,,,,,,,,,,,1,,,68,76
73440,note_on,,16,0,5,,,,,,,,,,,,,,,0,,,77,76
73440,note_on,,16,0,7,,,,,,,,,,,,,,,2,,,50,76
73544,note_on,,104,0,6,,,,,,,,,,,,,,,1,,,68,0
73544,note_on,,104,0,5,,,,,,,,,,,,,,,0,,,77,0
73560,note_on,,16,0,6,,,,,,,,,,,,,,,1,,,65,76
73560,note_on,,16,0,5,,,,,,,,,,,,,,,0,,,74,76
73664,note_on,,104,0,6,,,,,,,,,,,,,,,1,,,65,0
73664,note_on,,104,0,5,,,,,,,,,,,,,,,0,,,74,0
73664,note_on,,224,0,7,,,,,,,,,,,,,,,2,,,50,0
73680,note_on,,16,0,7,,,,,,,,,,,,,,,2,,,48,76
73680,note_on,,16,0,6,,,,,,,,,,,,,,,1,,,67,76
73680,note_on,,16,0,5,,,,,,,,,,,,,,,0,,,75,76
73904,note_on,,224,0,5,,,,,,,,,,,,,,,0,,,75,0
73904,note_on,,224,0,6,,,,,,,,,,,,,,,1,,,67,0
73920,note_on,,16,0,5,,,,,,,,,,,,,,,0,,,74,76
73920,note_on,,16,0,6,,,,,,,,,,,,,,,1,,,65,76
74144,note_on,,464,0,7,,,,,,,,,,,,,,,2,,,48,0
74160,note_on,,16,0,7,,,,,,,,,,,,,,,2,,,43,76
74384,note_on,,464,0,6,,,,,,,,,,,,,,,1,,,65,0
74384,note_on,,464,0,5,,,,,,,,,,,,,,,0,,,74,0
74400,note_on,,16,0,6,,,,,,,,,,,,,,,1,,,63,76
74400,note_on,,16,0,5,,,,,,,,,,,,,,,0,,,72,76
74504,note_on,,104,0,6,,,,,,,,,,,,,,,1,,,63,0
74504,note_on,,104,0,5,,,,,,,,,,,,,,,0,,,72,0
74520,note_on,,16,0,5,,,,,,,,,,,,,,,0,,,71,76
74520,note_on,,16,0,6,,,,,,,,,,,,,,,1,,,62,76
74624,note_on,,464,0,7,,,,,,,,,,,,,,,2,,,43,0
74624,note_on,,104,0,6,,,,,,,,,,,,,,,1,,,62,0
74624,note_on,,104,0,5,,,,,,,,,,,,,,,0,,,71,0
74640,note_on,,16,0,7,,,,,,,,,,,,,,,2,,,51,76
74640,note_on,,16,0,5,,,,,,,,,,,,,,,0,,,72,76
74640,note_on,,16,0,6,,,,,,,,,,,,,,,1,,,63,76
74804,note_on,,164,0,5,,,,,,,,,,,,,,,0,,,72,0
74804,note_on,,164,0,6,,,,,,,,,,,,,,,1,,,63,0
74820,note_on,,16,0,5,,,,,,,,,,,,,,,0,,,74,76
74820,note_on,,16,0,6,,,,,,,,,,,,,,,1,,,65,76
74849,note_on,,29,0,5,,,,,,,,,,,,,,,0,,,74,0
74849,note_on,,29,0,6,,,,,,,,,,,,,,,1,,,65,0
74850,note_on,,1,0,6,,,,,,,,,,,,,,,1,,,67,76
74850,note_on,,1,0,5,,,,,,,,,,,,,,,0,,,75,76
74864,note_on,,224,0,7,,,,,,,,,,,,,,,2,,,51,0
74879,note_on,,29,0,6,,,,,,,,,,,,,,,1,,,67,0
74879,note_on,,29,0,5,,,,,,,,,,,,,,,0,,,75,0
74880,note_on,,16,0,7,,,,,,,,,,,,,,,2,,,50,76
74880,note_on,,1,0,6,,,,,,,,,,,,,,,1,,,68,76
74880,note_on,,1,0,5,,,,,,,,,,,,,,,0,,,77,76
74984,note_on,,104,0,7,,,,,,,,,,,,,,,2,,,50,0
75000,note_on,,16,0,7,,,,,,,,,,,,,,,2,,,48,76
75104,note_on,,104,0,7,,,,,,,,,,,,,,,2,,,48,0
75120,note_on,,16,0,7,,,,,,,,,,,,,,,2,,,47,76
75344,note_on,,464,0,6,,,,,,,,,,,,,,,1,,,68,0
75344,note_on,,464,0,5,,,,,,,,,,,,,,,0,,,77,0
75344,note_on,,224,0,7,,,,,,,,,,,,,,,2,,,47,0
75360,note_on,,16,0,7,,,,,,,,,,,,,,,2,,,43,76
75360,note_on,,16,0,5,,,,,,,,,,,,,,,0,,,75,76
75360,note_on,,16,0,6,,,,,,,,,,,,,,,1,,,67,76
75464,note_on,,104,0,6,,,,,,,,,,,,,,,1,,,67,0
75464,note_on,,104,0,5,,,,,,,,,,,,,,,0,,,75,0
75480,note_on,,16,0,6,,,,,,,,,,,,,,,1,,,65,76
75480,note_on,,16,0,5,,,,,,,,,,,,,,,0,,,74,76
75584,note_on,,104,0,6,,,,,,,,,,,,,,,1,,,65,0
75584,note_on,,224,0,7,,,,,,,,,,,,,,,2,,,43,0
75584,note_on,,104,0,5,,,,,,,,,,,,,,,0,,,74,0
75600,note_on,,16,0,6,,,,,,,,,,,,,,,1,,,67,76
75600,note_on,,16,0,7,,,,,,,,,,,,,,,2,,,48,76
75600,note_on,,16,0,5,,,,,,,,,,,,,,,0,,,75,76
75704,note_on,,104,0,6,,,,,,,,,,,,,,,1,,,67,0
75704,note_on,,104,0,5,,,,,,,,,,,,,,,0,,,75,0
75720,note_on,,16,0,5,,,,,,,,,,,,,,,0,,,72,76
75720,note_on,,16,0,6,,,,,,,,,,,,,,,1,,,63,76
75824,note_on,,104,0,6,,,,,,,,,,,,,,,1,,,63,0
75824,note_on,,104,0,5,,,,,,,,,,,,,,,0,,,72,0
75824,note_on,,224,0,7,,,,,,,,,,,,,,,2,,,48,0
75840,note_on,,16,0,7,,,,,,,,,,,,,,,2,,,44,76
75840,note_on,,16,0,6,,,,,,,,,,,,,,,1,,,65,76
75840,note_on,,16,0,5,,,,,,,,,,,,,,,0,,,74,76
75944,note_on,,104,0,7,,,,,,,,,,,,,,,2,,,44,0
75960,note_on,,16,0,7,,,,,,,,,,,,,,,2,,,41,76
76064,note_on,,104,0,7,,,,,,,,,,,,,,,2,,,41,0
76080,note_on,,16,0,7,,,,,,,,,,,,,,,2,,,43,76
76304,note_on,,224,0,7,,,,,,,,,,,,,,,2,,,43,0
76304,note_on,,464,0,5,,,,,,,,,,,,,,,0,,,74,0
76304,note_on,,464,0,6,,,,,,,,,,,,,,,1,,,65,0
76320,note_on,,16,0,6,,,,,,,,,,,,,,,1,,,63,76
76320,note_on,,16,0,5,,,,,,,,,,,,,,,0,,,72,76
76320,note_on,,16,0,7,,,,,,,,,,,,,,,2,,,43,76
76424,note_on,,104,0,6,,,,,,,,,,,,,,,1,,,63,0
76424,note_on,,104,0,5,,,,,,,,,,,,,,,0,,,72,0
76440,note_on,,16,0,6,,,,,,,,,,,,,,,1,,,62,76
76440,note_on,,16,0,5,,,,,,,,,,,,,,,0,,,71,76
76544,note_on,,104,0,6,,,,,,,,,,,,,,,1,,,62,0
76544,note_on,,104,0,5,,,,,,,,,,,,,,,0,,,71,0
76544,note_on,,224,0,7,,,,,,,,,,,,,,,2,,,43,0
76560,note_on,,16,0,5,,,,,,,,,,,,,,,0,,,72,76
76560,note_on,,16,0,6,,,,,,,,,,,,,,,1,,,63,76
76560,note_on,,16,0,7,,,,,,,,,,,,,,,2,,,36,76
77264,note_on,,704,0,5,,,,,,,,,,,,,,,0,,,72,0
77264,note_on,,704,0,7,,,,,,,,,,,,,,,2,,,36,0
77264,note_on,,704,0,6,,,,,,,,,,,,,,,1,,,63,0
77280,note_on,,16,0,6,,,,,,,,,,,,,,,1,,,70,76
77280,note_on,,16,0,5,,,,,,,,,,,,,,,0,,,79,76
77280,note_on,,16,0,7,,,,,,,,,,,,,,,2,,,51,76
77384,note_on,,104,0,6,,,,,,,,,,,,,,,1,,,70,0
77384,note_on,,104,0,5,,,,,,,,,,,,,,,0,,,79,0
77400,note_on,,16,0,5,,,,,,,,,,,,,,,0,,,77,76
77400,note_on,,16,0,6,,,,,,,,,,,,,,,1,,,69,76
77504,note_on,,224,0,7,,,,,,,,,,,,,,,2,,,51,0
77504,note_on,,104,0,6,,,,,,,,,,,,,,,1,,,69,0
77504,note_on,,104,0,5,,,,,,,,,,,,,,,0,,,77,0
77520,note_on,,16,0,6,,,,,,,,,,,,,,,1,,,70,76
77520,note_on,,16,0,5,,,,,,,,,,,,,,,0,,,79,76
77520,note_on,,16,0,7,,,,,,,,,,,,,,,2,,,50,76
77744,note_on,,224,0,5,,,,,,,,,,,,,,,0,,,79,0
77744,note_on,,224,0,6,,,,,,,,,,,,,,,1,,,70,0
77760,note_on,,16,0,6,,,,,,,,,,,,,,,1,,,72,76
77760,note_on,,16,0,5,,,,,,,,,,,,,,,0,,,81,76
77984,note_on,,464,0,7,,,,,,,,,,,,,,,2,,,50,0
78000,note_on,,16,0,7,,,,,,,,,,,,,,,2,,,48,76
78224,note_on,,464,0,5,,,,,,,,,,,,,,,0,,,81,0
78224,note_on,,464,0,6,,,,,,,,,,,,,,,1,,,72,0
78240,note_on,,16,0,6,,,,,,,,,,,,,,,1,,,74,76
78240,note_on,,16,0,5,,,,,,,,,,,,,,,0,,,82,76
78344,note_on,,104,0,6,,,,,,,,,,,,,,,1,,,74,0
78360,note_on,,16,0,6,,,,,,,,,,,,,,,1,,,75,76
78464,note_on,,464,0,7,,,,,,,,,,,,,,,2,,,48,0
78464,note_on,,224,0,5,,,,,,,,,,,,,,,0,,,82,0
78464,note_on,,104,0,6,,,,,,,,,,,,,,,1,,,75,0
78480,note_on,,16,0,7,,,,,,,,,,,,,,,2,,,46,76
78480,note_on,,16,0,5,,,,,,,,,,,,,,,0,,,74,76
78480,note_on,,16,0,6,,,,,,,,,,,,,,,1,,,77,76
78584,note_on,,104,0,5,,,,,,,,,,,,,,,0,,,74,0
78600,note_on,,16,0,5,,,,,,,,,,,,,,,0,,,72,76
78704,note_on,,104,0,5,,,,,,,,,,,,,,,0,,,72,0
78704,note_on,,224,0,7,,,,,,,,,,,,,,,2,,,46,0
78704,note_on,,224,0,6,,,,,,,,,,,,,,,1,,,77,0
78720,note_on,,16,0,7,,,,,,,,,,,,,,,2,,,58,76
78720,note_on,,16,0,5,,,,,,,,,,,,,,,0,,,74,76
78720,note_on,,16,0,6,,,,,,,,,,,,,,,1,,,70,76
78824,note_on,,104,0,6,,,,,,,,,,,,,,,1,,,70,0
78824,note_on,,104,0,5,,,,,,,,,,,,,,,0,,,74,0
78840,note_on,,16,0,5,,,,,,,,,,,,,,,0,,,75,76
78840,note_on,,16,0,6,,,,,,,,,,,,,,,1,,,72,76
78944,note_on,,224,0,7,,,,,,,,,,,,,,,2,,,58,0
78944,note_on,,104,0,5,,,,,,,,,,,,,,,0,,,75,0
78944,note_on,,104,0,6,,,,,,,,,,,,,,,1,,,72,0
78960,note_on,,16,0,6,,,,,,,,,,,,,,,1,,,74,76
78960,note_on,,16,0,5,,,,,,,,,,,,,,,0,,,77,76
78960,note_on,,16,0,7,,,,,,,,,,,,,,,2,,,56,76
79064,note_on,,104,0,5,,,,,,,,,,,,,,,0,,,77,0
79064,note_on,,104,0,6,,,,,,,,,,,,,,,1,,,74,0
79080,note_on,,16,0,5,,,,,,,,,,,,,,,0,,,75,76
79080,note_on,,16,0,6,,,,,,,,,,,,,,,1,,,72,76
79184,note_on,,104,0,5,,,,,,,,,,,,,,,0,,,75,0
79184,note_on,,104,0,6,,,,,,,,,,,,,,,1,,,72,0
79184,note_on,,224,0,7,,,,,,,,,,,,,,,2,,,56,0
79200,note_on,,16,0,7,,,,,,,,,,,,,,,2,,,55,76
79200,note_on,,16,0,5,,,,,,,,,,,,,,,0,,,77,76
79200,note_on,,16,0,6,,,,,,,,,,,,,,,1,,,74,76
79304,note_on,,104,0,5,,,,,,,,,,,,,,,0,,,77,0
79304,note_on,,104,0,6,,,,,,,,,,,,,,,1,,,74,0
79320,note_on,,16,0,5,,,,,,,,,,,,,,,0,,,79,76
79320,note_on,,16,0,6,,,,,,,,,,,,,,,1,,,76,76
79424,note_on,,224,0,7,,,,,,,,,,,,,,,2,,,55,0
79424,note_on,,104,0,5,,,,,,,,,,,,,,,0,,,79,0
79424,note_on,,104,0,6,,,,,,,,,,,,,,,1,,,76,0
79440,note_on,,16,0,6,,,,,,,,,,,,,,,1,,,77,76
79440,note_on,,16,0,7,,,,,,,,,,,,,,,2,,,53,76
79440,note_on,,16,0,5,,,,,,,,,,,,,,,0,,,80,76
79544,note_on,,104,0,5,,,,,,,,,,,,,,,0,,,80,0
79544,note_on,,104,0,6,,,,,,,,,,,,,,,1,,,77,0
79560,note_on,,16,0,5,,,,,,,,,,,,,,,0,,,79,76
79560,note_on,,16,0,6,,,,,,,,,,,,,,,1,,,76,76
79664,note_on,,104,0,5,,,,,,,,,,,,,,,0,,,79,0
79664,note_on,,224,0,7,,,,,,,,,,,,,,,2,,,53,0
79664,note_on,,104,0,6,,,,,,,,,,,,,,,1,,,76,0
79680,note_on,,16,0,7,,,,,,,,,,,,,,,2,,,49,76
79680,note_on,,16,0,6,,,,,,,,,,,,,,,1,,,79,76
79680,note_on,,16,0,5,,,,,,,,,,,,,,,0,,,82,76
79784,note_on,,104,0,7,,,,,,,,,,,,,,,2,,,49,0
79800,note_on,,16,0,7,,,,,,,,,,,,,,,2,,,46,76
79904,note_on,,104,0,7,,,,,,,,,,,,,,,2,,,46,0
79920,note_on,,16,0,7,,,,,,,,,,,,,,,2,,,48,76
80144,note_on,,224,0,7,,,,,,,,,,,,,,,2,,,48,0
80144,note_on,,464,0,5,,,,,,,,,,,,,,,0,,,82,0
80144,note_on,,464,0,6,,,,,,,,,,,,,,,1,,,79,0
80160,note_on,,16,0,5,,,,,,,,,,,,,,,0,,,80,76
80160,note_on,,16,0,6,,,,,,,,,,,,,,,1,,,77,76
80160,note_on,,16,0,7,,,,,,,,,,,,,,,2,,,36,76
80264,note_on,,104,0,5,,,,,,,,,,,,,,,0,,,80,0
80264,note_on,,104,0,6,,,,,,,,,,,,,,,1,,,77,0
80280,note_on,,16,0,6,,,,,,,,,,,,,,,1,,,76,76
80280,note_on,,16,0,5,,,,,,,,,,,,,,,0,,,79,76
80384,note_on,,104,0,6,,,,,,,,,,,,,,,1,,,76,0
80384,note_on,,104,0,5,,,,,,,,,,,,,,,0,,,79,0
80384,note_on,,224,0,7,,,,,,,,,,,,,,,2,,,36,0
80400,note_on,,16,0,7,,,,,,,,,,,,,,,2,,,41,76
80400,note_on,,16,0,5,,,,,,,,,,,,,,,0,,,80,76
80400,note_on,,16,0,6,,,,,,,,,,,,,,,1,,,77,76
80504,note_on,,104,0,5,,,,,,,,,,,,,,,0,,,80,0
80520,note_on,,16,0,5,,,,,,,,,,,,,,,0,,,79,76
80624,note_on,,224,0,6,,,,,,,,,,,,,,,1,,,77,0
80624,note_on,,224,0,7,,,,,,,,,,,,,,,2,,,41,0
80624,note_on,,104,0,5,,,,,,,,,,,,,,,0,,,79,0
80640,note_on,,16,0,6,,,,,,,,,,,,,,,1,,,72,76
80640,note_on,,16,0,7,,,,,,,,,,,,,,,2,,,53,76
80640,note_on,,16,0,5,,,,,,,,,,,,,,,0,,,77,76
80744,note_on,,104,0,5,,,,,,,,,,,,,,,0,,,77,0
80760,note_on,,16,0,5,,,,,,,,,,,,,,,0,,,80,76
80864,note_on,,224,0,6,,,,,,,,,,,,,,,1,,,72,0
80864,note_on,,224,0,7,,,,,,,,,,,,,,,2,,,53,0
80864,note_on,,104,0,5,,,,,,,,,,,,,,,0,,,80,0
80880,note_on,,16,0,6,,,,,,,,,,,,,,,1,,,74,76
80880,note_on,,16,0,7,,,,,,,,,,,,,,,2,,,47,76
80880,note_on,,16,0,5,,,,,,,,,,,,,,,0,,,79,76
80984,note_on,,104,0,5,,,,,,,,,,,,,,,0,,,79,0
81000,note_on,,16,0,5,,,,,,,,,,,,,,,0,,,77,76
81104,note_on,,104,0,5,,,,,,,,,,,,,,,0,,,77,0
81104,note_on,,224,0,6,,,,,,,,,,,,,,,1,,,74,0
81104,note_on,,224,0,7,,,,,,,,,,,,,,,2,,,47,0
81120,note_on,,16,0,7,,,,,,,,,,,,,,,2,,,55,76
81120,note_on,,16,0,5,,,,,,,,,,,,,,,0,,,75,76
81120,note_on,,16,0,6,,,,,,,,,,,,,,,1,,,71,76
81224,note_on,,104,0,5,,,,,,,,,,,,,,,0,,,75,0
81240,note_on,,16,0,5,,,,,,,,,,,,,,,0,,,74,76
81344,note_on,,104,0,5,,,,,,,,,,,,,,,0,,,74,0
81344,note_on,,224,0,6,,,,,,,,,,,,,,,1,,,71,0
81344,note_on,,224,0,7,,,,,,,,,,,,,,,2,,,55,0
81360,note_on,,16,0,7,,,,,,,,,,,,,,,2,,,60,76
81360,note_on,,16,0,6,,,,,,,,,,,,,,,1,,,72,76
81360,note_on,,16,0,5,,,,,,,,,,,,,,,0,,,75,76
81464,note_on,,104,0,5,,,,,,,,,,,,,,,0,,,75,0
81464,note_on,,104,0,6,,,,,,,,,,,,,,,1,,,72,0
81480,note_on,,16,0,5,,,,,,,,,,,,,,,0,,,74,76
81480,note_on,,16,0,6,,,,,,,,,,,,,,,1,,,71,76
81584,note_on,,104,0,6,,,,,,,,,,,,,,,1,,,71,0
81584,note_on,,104,0,5,,,,,,,,,,,,,,,0,,,74,0
81600,note_on,,16,0,6,,,,,,,,,,,,,,,1,,,74,76
81600,note_on,,16,0,5,,,,,,,,,,,,,,,0,,,77,76
81824,note_on,,464,0,7,,,,,,,,,,,,,,,2,,,60,0
81840,note_on,,16,0,7,,,,,,,,,,,,,,,2,,,59,76
82064,note_on,,464,0,6,,,,,,,,,,,,,,,1,,,74,0
82064,note_on,,464,0,5,,,,,,,,,,,,,,,0,,,77,0
82080,note_on,,16,0,5,,,,,,,,,,,,,,,0,,,75,76
82080,note_on,,16,0,6,,,,,,,,,,,,,,,1,,,67,76
82184,note_on,,104,0,5,,,,,,,,,,,,,,,0,,,75,0
82200,note_on,,16,0,5,,,,,,,,,,,,,,,0,,,74,76
82304,note_on,,464,0,7,,,,,,,,,,,,,,,2,,,59,0
82304,note_on,,104,0,5,,,,,,,,,,,,,,,0,,,74,0
82304,note_on,,224,0,6,,,,,,,,,,,,,,,1,,,67,0
82320,note_on,,16,0,5,,,,,,,,,,,,,,,0,,,75,76
82320,note_on,,16,0,6,,,,,,,,,,,,,,,1,,,72,76
82320,note_on,,16,0,7,,,,,,,,,,,,,,,2,,,60,76
82424,note_on,,104,0,5,,,,,,,,,,,,,,,0,,,75,0
82424,note_on,,104,0,6,,,,,,,,,,,,,,,1,,,72,0
82440,note_on,,16,0,5,,,,,,,,,,,,,,,0,,,72,76
82440,note_on,,16,0,6,,,,,,,,,,,,,,,1,,,67,76
82544,note_on,,104,0,5,,,,,,,,,,,,,,,0,,,72,0
82544,note_on,,104,0,6,,,,,,,,,,,,,,,1,,,67,0
82560,note_on,,16,0,6,,,,,,,,,,,,,,,1,,,75,76
82560,note_on,,16,0,5,,,,,,,,,,,,,,,0,,,78,76
82784,note_on,,464,0,7,,,,,,,,,,,,,,,2,,,60,0
82800,note_on,,16,0,7,,,,,,,,,,,,,,,2,,,57,76
83024,note_on,,464,0,5,,,,,,,,,,,,,,,0,,,78,0
83024,note_on,,464,0,6,,,,,,,,,,,,,,,1,,,75,0
83040,note_on,,16,0,6,,,,,,,,,,,,,,,1,,,74,76
83040,note_on,,16,0,5,,,,,,,,,,,,,,,0,,,79,76
83144,note_on,,104,0,6,,,,,,,,,,,,,,,1,,,74,0
83144,note_on,,104,0,5,,,,,,,,,,,,,,,0,,,79,0
83160,note_on,,16,0,6,,,,,,,,,,,,,,,1,,,72,76
83160,note_on,,16,0,5,,,,,,,,,,,,,,,0,,,81,76
83264,note_on,,464,0,7,,,,,,,,,,,,,,,2,,,57,0
83264,note_on,,104,0,5,,,,,,,,,,,,,,,0,,,81,0
83264,note_on,,104,0,6,,,,,,,,,,,,,,,1,,,72,0
83280,note_on,,16,0,7,,,,,,,,,,,,,,,2,,,58,76
83280,note_on,,16,0,6,,,,,,,,,,,,,,,1,,,70,76
83280,note_on,,16,0,5,,,,,,,,,,,,,,,0,,,74,76
83504,note_on,,224,0,7,,,,,,,,,,,,,,,2,,,58,0
83504,note_on,,224,0,5,,,,,,,,,,,,,,,0,,,74,0
83504,note_on,,224,0,6,,,,,,,,,,,,,,,1,,,70,0
83520,note_on,,16,0,6,,,,,,,,,,,,,,,1,,,69,76
83520,note_on,,16,0,7,,,,,,,,,,,,,,,2,,,60,76
83520,note_on,,16,0,5,,,,,,,,,,,,,,,0,,,72,76
83624,note_on,,104,0,6,,,,,,,,,,,,,,,1,,,69,0
83624,note_on,,104,0,5,,,,,,,,,,,,,,,0,,,72,0
83640,note_on,,16,0,6,,,,,,,,,,,,,,,1,,,67,76
83640,note_on,,16,0,5,,,,,,,,,,,,,,,0,,,70,76
83744,note_on,,104,0,5,,,,,,,,,,,,,,,0,,,70,0
83744,note_on,,104,0,6,,,,,,,,,,,,,,,1,,,67,0
83744,note_on,,224,0,7,,,,,,,,,,,,,,,2,,,60,0
83760,note_on,,16,0,5,,,,,,,,,,,,,,,0,,,72,76
83760,note_on,,16,0,6,,,,,,,,,,,,,,,1,,,62,76
83760,note_on,,16,0,7,,,,,,,,,,,,,,,2,,,62,76
83864,note_on,,104,0,5,,,,,,,,,,,,,,,0,,,72,0
83880,note_on,,16,0,5,,,,,,,,,,,,,,,0,,,70,76
83984,note_on,,224,0,7,,,,,,,,,,,,,,,2,,,62,0
83984,note_on,,104,0,5,,,,,,,,,,,,,,,0,,,70,0
83984,note_on,,224,0,6,,,,,,,,,,,,,,,1,,,62,0
84000,note_on,,16,0,7,,,,,,,,,,,,,,,2,,,50,76
84000,note_on,,16,0,6,,,,,,,,,,,,,,,1,,,66,76
84000,note_on,,16,0,5,,,,,,,,,,,,,,,0,,,69,76
84104,note_on,,104,0,5,,,,,,,,,,,,,,,0,,,69,0
84120,note_on,,16,0,5,,,,,,,,,,,,,,,0,,,70,76
84224,note_on,,224,0,7,,,,,,,,,,,,,,,2,,,50,0
84224,note_on,,224,0,6,,,,,,,,,,,,,,,1,,,66,0
84224,note_on,,104,0,5,,,,,,,,,,,,,,,0,,,70,0
84240,note_on,,16,0,7,,,,,,,,,,,,,,,2,,,55,76
84240,note_on,,16,0,6,,,,,,,,,,,,,,,1,,,67,76
84240,note_on,,16,0,5,,,,,,,,,,,,,,,0,,,67,76
84464,note_on,,224,0,7,,,,,,,,,,,,,,,2,,,55,0
84480,note_on,,16,0,7,,,,,,,,,,,,,,,2,,,50,76
84704,note_on,,224,0,7,,,,,,,,,,,,,,,2,,,50,0
84720,note_on,,16,0,7,,,,,,,,,,,,,,,2,,,43,76
84944,note_on,,224,0,7,,,,,,,,,,,,,,,2,,,43,0
84944,note_on,,704,0,5,,,,,,,,,,,,,,,0,,,67,0
84959,note_on,,719,0,6,,,,,,,,,,,,,,,1,,,67,0
84960,note_on,,16,0,5,,,,,,,,,,,,,,,0,,,67,76
84960,note_on,,16,0,7,,,,,,,,,,,,,,,2,,,53,76
85064,note_on,,104,0,5,,,,,,,,,,,,,,,0,,,67,0
85080,note_on,,16,0,5,,,,,,,,,,,,,,,0,,,68,76
85184,note_on,,224,0,7,,,,,,,,,,,,,,,2,,,53,0
85184,note_on,,104,0,5,,,,,,,,,,,,,,,0,,,68,0
85200,note_on,,16,0,7,,,,,,,,,,,,,,,2,,,52,76
85200,note_on,,16,0,5,,,,,,,,,,,,,,,0,,,70,76
85304,note_on,,104,0,5,,,,,,,,,,,,,,,0,,,70,0
85320,note_on,,16,0,5,,,,,,,,,,,,,,,0,,,72,76
85424,note_on,,104,0,5,,,,,,,,,,,,,,,0,,,72,0
85440,note_on,,481,0,6,,,,,,,,,,,,,,,1,,,67,76
85440,note_on,,16,0,5,,,,,,,,,,,,,,,0,,,73,76
85544,note_on,,104,0,6,,,,,,,,,,,,,,,1,,,67,0
85560,note_on,,16,0,6,,,,,,,,,,,,,,,1,,,68,76
85664,note_on,,464,0,7,,,,,,,,,,,,,,,2,,,52,0
85664,note_on,,104,0,6,,,,,,,,,,,,,,,1,,,68,0
85680,note_on,,16,0,6,,,,,,,,,,,,,,,1,,,70,76
85680,note_on,,16,0,7,,,,,,,,,,,,,,,2,,,55,76
85784,note_on,,104,0,6,,,,,,,,,,,,,,,1,,,70,0
85800,note_on,,16,0,6,,,,,,,,,,,,,,,1,,,72,76
85904,note_on,,104,0,6,,,,,,,,,,,,,,,1,,,72,0
85904,note_on,,464,0,5,,,,,,,,,,,,,,,0,,,73,0
85920,note_on,,16,0,5,,,,,,,,,,,,,,,0,,,72,76
85920,note_on,,16,0,6,,,,,,,,,,,,,,,1,,,73,76
86024,note_on,,104,0,5,,,,,,,,,,,,,,,0,,,72,0
86040,note_on,,16,0,5,,,,,,,,,,,,,,,0,,,70,76
86144,note_on,,464,0,7,,,,,,,,,,,,,,,2,,,55,0
86144,note_on,,104,0,5,,,,,,,,,,,,,,,0,,,70,0
86160,note_on,,16,0,7,,,,,,,,,,,,,,,2,,,48,76
86160,note_on,,16,0,5,,,,,,,,,,,,,,,0,,,76,76
86384,note_on,,224,0,7,,,,,,,,,,,,,,,2,,,48,0
86384,note_on,,464,0,6,,,,,,,,,,,,,,,1,,,73,0
86384,note_on,,224,0,5,,,,,,,,,,,,,,,0,,,76,0
86400,note_on,,16,0,7,,,,,,,,,,,,,,,2,,,56,76
86400,note_on,,16,0,5,,,,,,,,,,,,,,,0,,,77,76
86400,note_on,,16,0,6,,,,,,,,,,,,,,,1,,,72,76
86504,note_on,,104,0,6,,,,,,,,,,,,,,,1,,,72,0
86520,note_on,,16,0,6,,,,,,,,,,,,,,,1,,,70,76
86624,note_on,,224,0,7,,,,,,,,,,,,,,,2,,,56,0
86624,note_on,,104,0,6,,,,,,,,,,,,,,,1,,,70,0
86640,note_on,,16,0,7,,,,,,,,,,,,,,,2,,,50,76
86640,note_on,,16,0,6,,,,,,,,,,,,,,,1,,,68,76
86744,note_on,,104,0,6,,,,,,,,,,,,,,,1,,,68,0
86760,note_on,,16,0,6,,,,,,,,,,,,,,,1,,,65,76
86864,note_on,,464,0,5,,,,,,,,,,,,,,,0,,,77,0
86864,note_on,,104,0,6,,,,,,,,,,,,,,,1,,,65,0
86864,note_on,,224,0,7,,,,,,,,,,,,,,,2,,,50,0
86880,note_on,,16,0,5,,,,,,,,,,,,,,,0,,,79,76
86880,note_on,,16,0,6,,,,,,,,,,,,,,,1,,,74,76
86880,note_on,,16,0,7,,,,,,,,,,,,,,,2,,,59,76
86984,note_on,,104,0,5,,,,,,,,,,,,,,,0,,,79,0
87000,note_on,,16,0,5,,,,,,,,,,,,,,,0,,,80,76
87104,note_on,,104,0,5,,,,,,,,,,,,,,,0,,,80,0
87104,note_on,,224,0,7,,,,,,,,,,,,,,,2,,,59,0
87120,note_on,,16,0,5,,,,,,,,,,,,,,,0,,,79,76
87120,note_on,,16,0,7,,,,,,,,,,,,,,,2,,,51,76
87224,note_on,,104,0,5,,,,,,,,,,,,,,,0,,,79,0
87240,note_on,,16,0,5,,,,,,,,,,,,,,,0,,,77,76
87344,note_on,,224,0,7,,,,,,,,,,,,,,,2,,,51,0
87344,note_on,,104,0,5,,,,,,,,,,,,,,,0,,,77,0
87344,note_on,,464,0,6,,,,,,,,,,,,,,,1,,,74,0
87360,note_on,,16,0,7,,,,,,,,,,,,,,,2,,,60,76
87360,note_on,,16,0,5,,,,,,,,,,,,,,,0,,,75,76
87360,note_on,,16,0,6,,,,,,,,,,,,,,,1,,,72,76
87464,note_on,,104,0,5,,,,,,,,,,,,,,,0,,,75,0
87464,note_on,,104,0,6,,,,,,,,,,,,,,,1,,,72,0
87480,note_on,,16,0,5,,,,,,,,,,,,,,,0,,,79,76
87480,note_on,,16,0,6,,,,,,,,,,,,,,,1,,,70,76
87584,note_on,,104,0,6,,,,,,,,,,,,,,,1,,,70,0
87584,note_on,,104,0,5,,,,,,,,,,,,,,,0,,,79,0
87584,note_on,,224,0,7,,,,,,,,,,,,,,,2,,,60,0
87600,note_on,,16,0,5,,,,,,,,,,,,,,,0,,,77,76
87600,note_on,,16,0,7,,,,,,,,,,,,,,,2,,,53,76
87600,note_on,,16,0,6,,,,,,,,,,,,,,,1,,,68,76
87704,note_on,,104,0,6,,,,,,,,,,,,,,,1,,,68,0
87704,note_on,,104,0,5,,,,,,,,,,,,,,,0,,,77,0
87720,note_on,,16,0,6,,,,,,,,,,,,,,,1,,,67,76
87720,note_on,,16,0,5,,,,,,,,,,,,,,,0,,,75,76
87824,note_on,,224,0,7,,,,,,,,,,,,,,,2,,,53,0
87824,note_on,,104,0,5,,,,,,,,,,,,,,,0,,,75,0
87824,note_on,,104,0,6,,,,,,,,,,,,,,,1,,,67,0
87840,note_on,,16,0,6,,,,,,,,,,,,,,,1,,,65,76
87840,note_on,,16,0,5,,,,,,,,,,,,,,,0,,,74,76
87840,note_on,,16,0,7,,,,,,,,,,,,,,,2,,,62,76
87944,note_on,,104,0,5,,,,,,,,,,,,,,,0,,,74,0
87944,note_on,,104,0,6,,,,,,,,,,,,,,,1,,,65,0
87960,note_on,,16,0,6,,,,,,,,,,,,,,,1,,,63,76
87960,note_on,,16,0,5,,,,,,,,,,,,,,,0,,,72,76
88064,note_on,,224,0,7,,,,,,,,,,,,,,,2,,,62,0
88064,note_on,,104,0,5,,,,,,,,,,,,,,,0,,,72,0
88064,note_on,,104,0,6,,,,,,,,,,,,,,,1,,,63,0
88080,note_on,,16,0,5,,,,,,,,,,,,,,,0,,,71,76
88080,note_on,,16,0,6,,,,,,,,,,,,,,,1,,,62,76
88080,note_on,,16,0,7,,,,,,,,,,,,,,,2,,,55,76
88184,note_on,,104,0,5,,,,,,,,,,,,,,,0,,,71,0
88184,note_on,,104,0,6,,,,,,,,,,,,,,,1,,,62,0
88200,note_on,,16,0,6,,,,,,,,,,,,,,,1,,,60,76
88200,note_on,,16,0,5,,,,,,,,,,,,,,,0,,,69,76
88304,note_on,,104,0,6,,,,,,,,,,,,,,,1,,,60,0
88304,note_on,,224,0,7,,,,,,,,,,,,,,,2,,,55,0
88304,note_on,,104,0,5,,,,,,,,,,,,,,,0,,,69,0
88320,note_on,,16,0,6,,,,,,,,,,,,,,,1,,,62,76
88320,note_on,,16,0,5,,,,,,,,,,,,,,,0,,,71,76
88320,note_on,,16,0,7,,,,,,,,,,,,,,,2,,,53,76
88424,note_on,,104,0,6,,,,,,,,,,,,,,,1,,,62,0
88424,note_on,,104,0,5,,,,,,,,,,,,,,,0,,,71,0
88440,note_on,,16,0,6,,,,,,,,,,,,,,,1,,,63,76
88440,note_on,,16,0,5,,,,,,,,,,,,,,,0,,,72,76
88544,note_on,,224,0,7,,,,,,,,,,,,,,,2,,,53,0
88544,note_on,,104,0,5,,,,,,,,,,,,,,,0,,,72,0
88544,note_on,,104,0,6,,,,,,,,,,,,,,,1,,,63,0
88560,note_on,,16,0,5,,,,,,,,,,,,,,,0,,,74,76
88560,note_on,,16,0,6,,,,,,,,,,,,,,,1,,,65,76
88560,note_on,,16,0,7,,,,,,,,,,,,,,,2,,,51,76
88664,note_on,,104,0,6,,,,,,,,,,,,,,,1,,,65,0
88664,note_on,,104,0,5,,,,,,,,,,,,,,,0,,,74,0
88680,note_on,,16,0,5,,,,,,,,,,,,,,,0,,,75,76
88680,note_on,,16,0,6,,,,,,,,,,,,,,,1,,,67,76
88784,note_on,,104,0,5,,,,,,,,,,,,,,,0,,,75,0
88784,note_on,,104,0,6,,,,,,,,,,,,,,,1,,,67,0
88784,note_on,,224,0,7,,,,,,,,,,,,,,,2,,,51,0
88800,note_on,,16,0,6,,,,,,,,,,,,,,,1,,,68,76
88800,note_on,,16,0,5,,,,,,,,,,,,,,,0,,,77,76
88800,note_on,,16,0,7,,,,,,,,,,,,,,,2,,,50,76
88904,note_on,,104,0,5,,,,,,,,,,,,,,,0,,,77,0
88904,note_on,,104,0,6,,,,,,,,,,,,,,,1,,,68,0
88920,note_on,,16,0,5,,,,,,,,,,,,,,,0,,,74,76
88920,note_on,,16,0,6,,,,,,,,,,,,,,,1,,,65,76
89024,note_on,,224,0,7,,,,,,,,,,,,,,,2,,,50,0
89024,note_on,,104,0,5,,,,,,,,,,,,,,,0,,,74,0
89024,note_on,,104,0,6,,,,,,,,,,,,,,,1,,,65,0
89040,note_on,,16,0,7,,,,,,,,,,,,,,,2,,,48,76
89040,note_on,,16,0,5,,,,,,,,,,,,,,,0,,,75,76
89040,note_on,,16,0,6,,,,,,,,,,,,,,,1,,,67,76
89264,note_on,,224,0,5,,,,,,,,,,,,,,,0,,,75,0
89264,note_on,,224,0,6,,,,,,,,,,,,,,,1,,,67,0
89280,note_on,,16,0,6,,,,,,,,,,,,,,,1,,,65,76
89280,note_on,,16,0,5,,,,,,,,,,,,,,,0,,,74,76
89504,note_on,,464,0,7,,,,,,,,,,,,,,,2,,,48,0
89520,note_on,,16,0,7,,,,,,,,,,,,,,,2,,,43,76
89744,note_on,,464,0,6,,,,,,,,,,,,,,,1,,,65,0
89744,note_on,,464,0,5,,,,,,,,,,,,,,,0,,,74,0
89760,note_on,,16,0,6,,,,,,,,,,,,,,,1,,,63,76
89760,note_on,,16,0,5,,,,,,,,,,,,,,,0,,,72,76
89864,note_on,,104,0,6,,,,,,,,,,,,,,,1,,,63,0
89864,note_on,,104,0,5,,,,,,,,,,,,,,,0,,,72,0
89880,note_on,,16,0,6,,,,,,,,,,,,,,,1,,,62,76
89880,note_on,,16,0,5,,,,,,,,,,,,,,,0,,,71,76
89984,note_on,,464,0,7,,,,,,,,,,,,,,,2,,,43,0
89984,note_on,,104,0,5,,,,,,,,,,,,,,,0,,,71,0
89984,note_on,,104,0,6,,,,,,,,,,,,,,,1,,,62,0
90000,note_on,,16,0,7,,,,,,,,,,,,,,,2,,,51,76
90000,note_on,,16,0,6,,,,,,,,,,,,,,,1,,,63,76
90000,note_on,,16,0,5,,,,,,,,,,,,,,,0,,,72,76
90164,note_on,,164,0,5,,,,,,,,,,,,,,,0,,,72,0
90164,note_on,,164,0,6,,,,,,,,,,,,,,,1,,,63,0
90180,note_on,,16,0,6,,,,,,,,,,,,,,,1,,,65,76
90180,note_on,,16,0,5,,,,,,,,,,,,,,,0,,,74,76
90209,note_on,,29,0,6,,,,,,,,,,,,,,,1,,,65,0
90209,note_on,,29,0,5,,,,,,,,,,,,,,,0,,,74,0
90210,note_on,,1,0,6,,,,,,,,,,,,,,,1,,,67,76
90210,note_on,,1,0,5,,,,,,,,,,,,,,,0,,,75,76
90224,note_on,,224,0,7,,,,,,,,,,,,,,,2,,,51,0
90239,note_on,,29,0,6,,,,,,,,,,,,,,,1,,,67,0
90239,note_on,,29,0,5,,,,,,,,,,,,,,,0,,,75,0
90240,note_on,,16,0,7,,,,,,,,,,,,,,,2,,,50,76
90240,note_on,,1,0,6,,,,,,,,,,,,,,,1,,,68,76
90240,note_on,,1,0,5,,,,,,,,,,,,,,,0,,,77,76
90344,note_on,,104,0,7,,,,,,,,,,,,,,,2,,,50,0
90360,note_on,,16,0,7,,,,,,,,,,,,,,,2,,,48,76
90464,note_on,,104,0,7,,,,,,,,,,,,,,,2,,,48,0
90480,note_on,,16,0,7,,,,,,,,,,,,,,,2,,,47,76
90704,note_on,,464,0,5,,,,,,,,,,,,,,,0,,,77,0
90704,note_on,,224,0,7,,,,,,,,,,,,,,,2,,,47,0
90704,note_on,,464,0,6,,,,,,,,,,,,,,,1,,,68,0
90720,note_on,,16,0,7,,,,,,,,,,,,,,,2,,,43,76
90720,note_on,,16,0,5,,,,,,,,,,,,,,,0,,,75,76
90720,note_on,,16,0,6,,,,,,,,,,,,,,,1,,,67,76
90824,note_on,,104,0,6,,,,,,,,,,,,,,,1,,,67,0
90824,note_on,,104,0,5,,,,,,,,,,,,,,,0,,,75,0
90840,note_on,,16,0,6,,,,,,,,,,,,,,,1,,,65,76
90840,note_on,,16,0,5,,,,,,,,,,,,,,,0,,,74,76
90944,note_on,,224,0,7,,,,,,,,,,,,,,,2,,,43,0
90944,note_on,,104,0,5,,,,,,,,,,,,,,,0,,,74,0
90944,note_on,,104,0,6,,,,,,,,,,,,,,,1,,,65,0
90960,note_on,,16,0,6,,,,,,,,,,,,,,,1,,,67,76
90960,set_tempo,,44160,1,0,,,,,,,,357142,,,,,,,,,,,
90960,note_on,,16,0,7,,,,,,,,,,,,,,,2,,,48,76
90960,note_on,,16,0,5,,,,,,,,,,,,,,,0,,,75,76
91040,set_tempo,,80,1,0,,,,,,,,361445,,,,,,,,,,,
91064,note_on,,104,0,6,,,,,,,,,,,,,,,1,,,67,0
91064,note_on,,104,0,5,,,,,,,,,,,,,,,0,,,75,0
91080,note_on,,16,0,6,,,,,,,,,,,,,,,1,,,63,76
91080,note_on,,16,0,5,,,,,,,,,,,,,,,0,,,72,76
91120,set_tempo,,80,1,0,,,,,,,,365853,,,,,,,,,,,
91184,note_on,,104,0,6,,,,,,,,,,,,,,,1,,,63,0
91184,note_on,,104,0,5,,,,,,,,,,,,,,,0,,,72,0
91184,note_on,,224,0,7,,,,,,,,,,,,,,,2,,,48,0
91200,note_on,,16,0,7,,,,,,,,,,,,,,,2,,,44,76
91200,set_tempo,,80,1,0,,,,,,,,370370,,,,,,,,,,,
91200,note_on,,16,0,5,,,,,,,,,,,,,,,0,,,74,76
91200,note_on,,16,0,6,,,,,,,,,,,,,,,1,,,65,76
91280,set_tempo,,80,1,0,,,,,,,,377358,,,,,,,,,,,
91304,note_on,,104,0,7,,,,,,,,,,,,,,,2,,,44,0
91320,note_on,,16,0,7,,,,,,,,,,,,,,,2,,,41,76
91360,set_tempo,,80,1,0,,,,,,,,382165,,,,,,,,,,,
91424,note_on,,104,0,7,,,,,,,,,,,,,,,2,,,41,0
91440,set_tempo,,80,1,0,,,,,,,,387096,,,,,,,,,,,
91440,note_on,,16,0,7,,,,,,,,,,,,,,,2,,,43,76
91520,set_tempo,,80,1,0,,,,,,,,392156,,,,,,,,,,,
91600,set_tempo,,80,1,0,,,,,,,,397350,,,,,,,,,,,
91664,note_on,,464,0,6,,,,,,,,,,,,,,,1,,,65,0
91664,note_on,,224,0,7,,,,,,,,,,,,,,,2,,,43,0
91664,note_on,,464,0,5,,,,,,,,,,,,,,,0,,,74,0
91680,note_on,,16,0,6,,,,,,,,,,,,,,,1,,,63,76
91680,note_on,,16,0,7,,,,,,,,,,,,,,,2,,,43,76
91680,set_tempo,,80,1,0,,,,,,,,402684,,,,,,,,,,,
91680,note_on,,16,0,5,,,,,,,,,,,,,,,0,,,72,76
91760,set_tempo,,80,1,0,,,,,,,,410958,,,,,,,,,,,
91784,note_on,,104,0,6,,,,,,,,,,,,,,,1,,,63,0
91784,note_on,,104,0,5,,,,,,,,,,,,,,,0,,,72,0
91800,note_on,,16,0,5,,,,,,,,,,,,,,,0,,,71,76
91800,note_on,,16,0,6,,,,,,,,,,,,,,,1,,,62,76
91840,set_tempo,,80,1,0,,,,,,,,416666,,,,,,,,,,,
91904,note_on,,104,0,5,,,,,,,,,,,,,,,0,,,71,0
91904,note_on,,104,0,6,,,,,,,,,,,,,,,1,,,62,0
91904,note_on,,224,0,7,,,,,,,,,,,,,,,2,,,43,0
91920,note_on,,16,0,6,,,,,,,,,,,,,,,1,,,63,76
91920,note_on,,16,0,5,,,,,,,,,,,,,,,0,,,72,76
91920,note_on,,16,0,7,,,,,,,,,,,,,,,2,,,36,76
91920,set_tempo,,0,1,0,,,,,,,,681818,,,,,,,,,,,
91920,key_signature,,0,1,0,,,,,,,,,C,,,,,,,,,,
91920,time_signature,,80,1,0,,,,,,,,,,5,4,24,8,,,,,,
92639,note_on,,719,0,7,,,,,,,,,,,,,,,2,,,36,0
92639,note_on,,719,0,6,,,,,,,,,,,,,,,1,,,63,0
92639,note_on,,719,0,5,,,,,,,,,,,,,,,0,,,72,0
92640,set_tempo,,720,1,0,,,,,,,,3000000,,,,,,,,,,,
92880,note_on,,46561,0,8,,,,,,,,,,,,,,,11,,,64,76
92880,note_on,,241,0,5,,,,,,,,,,,,,,,0,,,64,76
92880,set_tempo,,240,1,0,,,,,,,,357142,,,,,,,,,,,
92880,note_on,,241,0,6,,,,,,,,,,,,,,,1,,,64,76
92984,note_on,,104,0,5,,,,,,,,,,,,,,,0,,,64,0
92984,note_on,,104,0,8,,,,,,,,,,,,,,,11,,,64,0
92984,note_on,,104,0,6,,,,,,,,,,,,,,,1,,,64,0
93000,note_on,,16,0,8,,,,,,,,,,,,,,,11,,,65,76
93000,note_on,,16,0,6,,,,,,,,,,,,,,,1,,,65,76
93000,note_on,,16,0,5,,,,,,,,,,,,,,,0,,,65,76
93104,note_on,,104,0,8,,,,,,,,,,,,,,,11,,,65,0
93104,note_on,,104,0,5,,,,,,,,,,,,,,,0,,,65,0
93104,note_on,,104,0,6,,,,,,,,,,,,,,,1,,,65,0
93120,time_signature,,240,1,0,,,,,,,,,,4,4,24,8,,,,,,
93120,note_on,,16,0,6,,,,,,,,,,,,,,,1,,,67,76
93120,note_on,,16,0,5,,,,,,,,,,,,,,,0,,,67,76
93120,note_on,,16,0,8,,,,,,,,,,,,,,,11,,,67,76
93344,note_on,,224,0,5,,,,,,,,,,,,,,,0,,,67,0
93344,note_on,,224,0,6,,,,,,,,,,,,,,,1,,,67,0
93344,note_on,,224,0,8,,,,,,,,,,,,,,,11,,,67,0
93360,note_on,,47041,0,9,,,,,,,,,,,,,,,12,,,64,76
93360,note_on,,721,0,7,,,,,,,,,,,,,,,2,,,48,76
93360,note_on,,16,0,5,,,,,,,,,,,,,,,0,,,72,76
93360,note_on,,16,0,8,,,,,,,,,,,,,,,11,,,72,76
93360,note_on,,47041,0,11,,,,,,,,,,,,,,,14,,,48,76
93360,note_on,,47041,0,12,,,,,,,,,,,,,,,15,,,64,76
93360,note_on,,0,0,12,,,,,,,,,,,,,,,15,,,60,76
93360,note_on,,0,0,12,,,,,,,,,,,,,,,15,,,67,76
93360,note_on,,0,0,12,,,,,,,,,,,,,,,15,,,48,76
93360,note_on,,16,0,6,,,,,,,,,,,,,,,1,,,72,76
93360,note_on,,47041,0,10,,,,,,,,,,,,,,,13,,,55,76
93464,note_on,,104,0,9,,,,,,,,,,,,,,,12,,,64,0
93464,note_on,,104,0,7,,,,,,,,,,,,,,,2,,,48,0
93464,note_on,,104,0,11,,,,,,,,,,,,,,,14,,,48,0
93479,note_on,,0,0,12,,,,,,,,,,,,,,,15,,,67,0
93479,note_on,,0,0,12,,,,,,,,,,,,,,,15,,,48,0
93479,note_on,,0,0,12,,,,,,,,,,,,,,,15,,,60,0
93479,note_on,,119,0,12,,,,,,,,,,,,,,,15,,,64,0
93480,note_on,,0,0,12,,,,,,,,,,,,,,,15,,,65,76
93480,note_on,,0,0,12,,,,,,,,,,,,,,,15,,,62,76
93480,note_on,,0,0,12,,,,,,,,,,,,,,,15,,,69,76
93480,note_on,,1,0,12,,,,,,,,,,,,,,,15,,,50,76
93480,note_on,,16,0,9,,,,,,,,,,,,,,,12,,,65,76
93480,note_on,,16,0,11,,,,,,,,,,,,,,,14,,,50,76
93480,note_on,,16,0,7,,,,,,,,,,,,,,,2,,,50,76
93584,note_on,,224,0,10,,,,,,,,,,,,,,,13,,,55,0
93584,note_on,,104,0,11,,,,,,,,,,,,,,,14,,,50,0
93584,note_on,,104,0,9,,,,,,,,,,,,,,,12,,,65,0
93584,note_on,,104,0,7,,,,,,,,,,,,,,,2,,,50,0
93599,note_on,,119,0,12,,,,,,,,,,,,,,,15,,,50,0
93599,note_on,,0,0,12,,,,,,,,,,,,,,,15,,,69,0
93599,note_on,,0,0,12,,,,,,,,,,,,,,,15,,,62,0
93599,note_on,,0,0,12,,,,,,,,,,,,,,,15,,,65,0
93600,note_on,,16,0,10,,,,,,,,,,,,,,,13,,,60,76
93600,note_on,,16,0,9,,,,,,,,,,,,,,,12,,,67,76
93600,note_on,,0,0,12,,,,,,,,,,,,,,,15,,,67,76
93600,note_on,,16,0,7,,,,,,,,,,,,,,,2,,,52,76
93600,note_on,,1,0,12,,,,,,,,,,,,,,,15,,,64,76
93600,note_on,,0,0,12,,,,,,,,,,,,,,,15,,,72,76
93600,note_on,,0,0,12,,,,,,,,,,,,,,,15,,,52,76
93600,note_on,,16,0,11,,,,,,,,,,,,,,,14,,,52,76
93824,note_on,,464,0,8,,,,,,,,,,,,,,,11,,,72,0
93824,note_on,,464,0,6,,,,,,,,,,,,,,,1,,,72,0
93824,note_on,,224,0,9,,,,,,,,,,,,,,,12,,,67,0
93824,note_on,,224,0,10,,,,,,,,,,,,,,,13,,,60,0
93824,note_on,,224,0,7,,,,,,,,,,,,,,,2,,,52,0
93824,note_on,,224,0,11,,,,,,,,,,,,,,,14,,,52,0
93824,note_on,,464,0,5,,,,,,,,,,,,,,,0,,,72,0
93839,note_on,,239,0,12,,,,,,,,,,,,,,,15,,,64,0
93839,note_on,,0,0,12,,,,,,,,,,,,,,,15,,,72,0
93839,note_on,,0,0,12,,,,,,,,,,,,,,,15,,,52,0
93839,note_on,,0,0,12,,,,,,,,,,,,,,,15,,,67,0
93840,note_on,,0,0,12,,,,,,,,,,,,,,,15,,,74,76
93840,note_on,,0,0,12,,,,,,,,,,,,,,,15,,,67,76
93840,note_on,,16,0,11,,,,,,,,,,,,,,,14,,,55,76
93840,note_on,,16,0,6,,,,,,,,,,,,,,,1,,,67,76
93840,note_on,,16,0,7,,,,,,,,,,,,,,,2,,,55,76
93840,note_on,,16,0,5,,,,,,,,,,,,,,,0,,,67,76
93840,note_on,,16,0,10,,,,,,,,,,,,,,,13,,,62,76
93840,note_on,,0,0,12,,,,,,,,,,,,,,,15,,,55,76
93840,note_on,,16,0,9,,,,,,,,,,,,,,,12,,,59,76
93840,note_on,,16,0,8,,,,,,,,,,,,,,,11,,,67,76
93840,note_on,,1,0,12,,,,,,,,,,,,,,,15,,,71,76
94064,note_on,,224,0,8,,,,,,,,,,,,,,,11,,,67,0
94064,note_on,,224,0,11,,,,,,,,,,,,,,,14,,,55,0
94064,note_on,,224,0,9,,,,,,,,,,,,,,,12,,,59,0
94064,note_on,,224,0,7,,,,,,,,,,,,,,,2,,,55,0
94064,note_on,,224,0,6,,,,,,,,,,,,,,,1,,,67,0
94064,note_on,,224,0,10,,,,,,,,,,,,,,,13,,,62,0
94064,note_on,,224,0,5,,,,,,,,,,,,,,,0,,,67,0
94079,note_on,,0,0,12,,,,,,,,,,,,,,,15,,,67,0
94079,note_on,,0,0,12,,,,,,,,,,,,,,,15,,,74,0
94079,note_on,,239,0,12,,,,,,,,,,,,,,,15,,,71,0
94079,note_on,,0,0,12,,,,,,,,,,,,,,,15,,,55,0
94080,note_on,,0,0,12,,,,,,,,,,,,,,,15,,,76,76
94080,note_on,,0,0,12,,,,,,,,,,,,,,,15,,,72,76
94080,note_on,,16,0,11,,,,,,,,,,,,,,,14,,,60,76
94080,note_on,,0,0,12,,,,,,,,,,,,,,,15,,,79,76
94080,note_on,,16,0,8,,,,,,,,,,,,,,,11,,,64,76
94080,note_on,,16,0,9,,,,,,,,,,,,,,,12,,,60,76
94080,note_on,,16,0,6,,,,,,,,,,,,,,,1,,,64,76
94080,note_on,,16,0,10,,,,,,,,,,,,,,,13,,,64,76
94080,note_on,,16,0,5,,,,,,,,,,,,,,,0,,,64,76
94080,note_on,,16,0,7,,,,,,,,,,,,,,,2,,,60,76
94080,note_on,,1,0,12,,,,,,,,,,,,,,,15,,,60,76
94184,note_on,,104,0,9,,,,,,,,,,,,,,,12,,,60,0
94184,note_on,,104,0,8,,,,,,,,,,,,,,,11,,,64,0
94184,note_on,,104,0,6,,,,,,,,,,,,,,,1,,,64,0
94184,note_on,,104,0,5,,,,,,,,,,,,,,,0,,,64,0
94200,note_on,,16,0,9,,,,,,,,,,,,,,,12,,,59,76
94200,note_on,,16,0,8,,,,,,,,,,,,,,,11,,,62,76
94200,note_on,,16,0,6,,,,,,,,,,,,,,,1,,,62,76
94200,note_on,,16,0,5,,,,,,,,,,,,,,,0,,,62,76
94304,note_on,,224,0,11,,,,,,,,,,,,,,,14,,,60,0
94304,note_on,,104,0,6,,,,,,,,,,,,,,,1,,,62,0
94304,note_on,,224,0,7,,,,,,,,,,,,,,,2,,,60,0
94304,note_on,,104,0,9,,,,,,,,,,,,,,,12,,,59,0
94304,note_on,,104,0,8,,,,,,,,,,,,,,,11,,,62,0
94304,note_on,,224,0,10,,,,,,,,,,,,,,,13,,,64,0
94304,note_on,,104,0,5,,,,,,,,,,,,,,,0,,,62,0
94319,note_on,,0,0,12,,,,,,,,,,,,,,,15,,,76,0
94319,note_on,,0,0,12,,,,,,,,,,,,,,,15,,,72,0
94319,note_on,,0,0,12,,,,,,,,,,,,,,,15,,,79,0
94319,note_on,,239,0,12,,,,,,,,,,,,,,,15,,,60,0
94320,note_on,,16,0,11,,,,,,,,,,,,,,,14,,,55,76
94320,note_on,,16,0,7,,,,,,,,,,,,,,,2,,,55,76
94320,note_on,,16,0,9,,,,,,,,,,,,,,,12,,,60,76
94320,note_on,,16,0,8,,,,,,,,,,,,,,,11,,,64,76
94320,note_on,,16,0,5,,,,,,,,,,,,,,,0,,,64,76
94320,note_on,,16,0,6,,,,,,,,,,,,,,,1,,,64,76
94320,note_on,,0,0,12,,,,,,,,,,,,,,,15,,,71,76
94320,note_on,,0,0,12,,,,,,,,,,,,,,,15,,,55,76
94320,note_on,,0,0,12,,,,,,,,,,,,,,,15,,,67,76
94320,note_on,,1,0,12,,,,,,,,,,,,,,,15,,,74,76
94320,note_on,,16,0,10,,,,,,,,,,,,,,,13,,,67,76
94424,note_on,,104,0,10,,,,,,,,,,,,,,,13,,,67,0
94424,note_on,,104,0,8,,,,,,,,,,,,,,,11,,,64,0
94424,note_on,,104,0,9,,,,,,,,,,,,,,,12,,,60,0
94424,note_on,,104,0,5,,,,,,,,,,,,,,,0,,,64,0
94424,note_on,,104,0,6,,,,,,,,,,,,,,,1,,,64,0
94440,note_on,,16,0,10,,,,,,,,,,,,,,,13,,,65,76
94440,note_on,,16,0,9,,,,,,,,,,,,,,,12,,,62,76
94440,note_on,,16,0,8,,,,,,,,,,,,,,,11,,,65,76
94440,note_on,,16,0,5,,,,,,,,,,,,,,,0,,,65,76
94440,note_on,,16,0,6,,,,,,,,,,,,,,,1,,,65,76
94544,note_on,,104,0,8,,,,,,,,,,,,,,,11,,,65,0
94544,note_on,,104,0,5,,,,,,,,,,,,,,,0,,,65,0
94544,note_on,,104,0,10,,,,,,,,,,,,,,,13,,,65,0
94544,note_on,,104,0,6,,,,,,,,,,,,,,,1,,,65,0
94544,note_on,,104,0,9,,,,,,,,,,,,,,,12,,,62,0
94544,note_on,,224,0,11,,,,,,,,,,,,,,,14,,,55,0
94544,note_on,,224,0,7,,,,,,,,,,,,,,,2,,,55,0
94559,note_on,,0,0,12,,,,,,,,,,,,,,,15,,,71,0
94559,note_on,,239,0,12,,,,,,,,,,,,,,,15,,,74,0
94559,note_on,,0,0,12,,,,,,,,,,,,,,,15,,,55,0
94559,note_on,,0,0,12,,,,,,,,,,,,,,,15,,,67,0
94560,note_on,,16,0,7,,,,,,,,,,,,,,,2,,,48,76
94560,note_on,,16,0,8,,,,,,,,,,,,,,,11,,,67,76
94560,note_on,,16,0,5,,,,,,,,,,,,,,,0,,,67,76
94560,note_on,,16,0,9,,,,,,,,,,,,,,,12,,,64,76
94560,note_on,,16,0,10,,,,,,,,,,,,,,,13,,,64,76
94560,note_on,,16,0,11,,,,,,,,,,,,,,,14,,,48,76
94560,note_on,,1,0,12,,,,,,,,,,,,,,,15,,,60,76
94560,note_on,,0,0,12,,,,,,,,,,,,,,,15,,,64,76
94560,note_on,,0,0,12,,,,,,,,,,,,,,,15,,,48,76
94560,note_on,,0,0,12,,,,,,,,,,,,,,,15,,,67,76
94560,note_on,,16,0,6,,,,,,,,,,,,,,,1,,,67,76
94784,note_on,,224,0,10,,,,,,,,,,,,,,,13,,,64,0
94784,note_on,,224,0,6,,,,,,,,,,,,,,,1,,,67,0
94784,note_on,,224,0,8,,,,,,,,,,,,,,,11,,,67,0
94784,note_on,,224,0,5,,,,,,,,,,,,,,,0,,,67,0
94784,note_on,,224,0,7,,,,,,,,,,,,,,,2,,,48,0
94784,note_on,,224,0,9,,,,,,,,,,,,,,,12,,,64,0
94784,note_on,,224,0,11,,,,,,,,,,,,,,,14,,,48,0
94799,note_on,,0,0,12,,,,,,,,,,,,,,,15,,,67,0
94799,note_on,,0,0,12,,,,,,,,,,,,,,,15,,,64,0
94799,note_on,,239,0,12,,,,,,,,,,,,,,,15,,,60,0
94799,note_on,,0,0,12,,,,,,,,,,,,,,,15,,,48,0
94800,note_on,,16,0,5,,,,,,,,,,,,,,,0,,,69,76
94800,note_on,,16,0,6,,,,,,,,,,,,,,,1,,,69,76
94800,note_on,,16,0,11,,,,,,,,,,,,,,,14,,,53,76
94800,note_on,,0,0,12,,,,,,,,,,,,,,,15,,,69,76
94800,note_on,,0,0,12,,,,,,,,,,,,,,,15,,,53,76
94800,note_on,,16,0,8,,,,,,,,,,,,,,,11,,,69,76
94800,note_on,,0,0,12,,,,,,,,,,,,,,,15,,,65,76
94800,note_on,,1,0,12,,,,,,,,,,,,,,,15,,,72,76
94800,note_on,,16,0,9,,,,,,,,,,,,,,,12,,,65,76
94800,note_on,,16,0,7,,,,,,,,,,,,,,,2,,,53,76
94800,note_on,,16,0,10,,,,,,,,,,,,,,,13,,,60,76
94904,note_on,,104,0,5,,,,,,,,,,,,,,,0,,,69,0
94904,note_on,,104,0,6,,,,,,,,,,,,,,,1,,,69,0
94904,note_on,,104,0,8,,,,,,,,,,,,,,,11,,,69,0
94920,note_on,,16,0,6,,,,,,,,,,,,,,,1,,,71,76
94920,note_on,,16,0,5,,,,,,,,,,,,,,,0,,,71,76
94920,note_on,,16,0,8,,,,,,,,,,,,,,,11,,,71,76
95024,note_on,,104,0,5,,,,,,,,,,,,,,,0,,,71,0
95024,note_on,,224,0,9,,,,,,,,,,,,,,,12,,,65,0
95024,note_on,,224,0,11,,,,,,,,,,,,,,,14,,,53,0
95024,note_on,,224,0,10,,,,,,,,,,,,,,,13,,,60,0
95024,note_on,,224,0,7,,,,,,,,,,,,,,,2,,,53,0
95024,note_on,,104,0,6,,,,,,,,,,,,,,,1,,,71,0
95024,note_on,,104,0,8,,,,,,,,,,,,,,,11,,,71,0
95039,note_on,,0,0,12,,,,,,,,,,,,,,,15,,,65,0
95039,note_on,,0,0,12,,,,,,,,,,,,,,,15,,,53,0
95039,note_on,,239,0,12,,,,,,,,,,,,,,,15,,,72,0
95039,note_on,,0,0,12,,,,,,,,,,,,,,,15,,,69,0
95040,note_on,,16,0,11,,,,,,,,,,,,,,,14,,,52,76
95040,note_on,,16,0,6,,,,,,,,,,,,,,,1,,,72,76
95040,note_on,,16,0,5,,,,,,,,,,,,,,,0,,,72,76
95040,note_on,,16,0,9,,,,,,,,,,,,,,,12,,,67,76
95040,note_on,,0,0,12,,,,,,,,,,,,,,,15,,,67,76
95040,note_on,,1,0,12,,,,,,,,,,,,,,,15,,,72,76
95040,note_on,,16,0,10,,,,,,,,,,,,,,,13,,,60,76
95040,note_on,,0,0,12,,,,,,,,,,,,,,,15,,,52,76
95040,note_on,,0,0,12,,,,,,,,,,,,,,,15,,,64,76
95040,note_on,,16,0,7,,,,,,,,,,,,,,,2,,,52,76
95040,note_on,,16,0,8,,,,,,,,,,,,,,,11,,,72,76
95144,note_on,,104,0,8,,,,,,,,,,,,,,,11,,,72,0
95144,note_on,,104,0,6,,,,,,,,,,,,,,,1,,,72,0
95144,note_on,,104,0,5,,,,,,,,,,,,,,,0,,,72,0
95160,note_on,,16,0,8,,,,,,,,,,,,,,,11,,,74,76
95160,note_on,,16,0,6,,,,,,,,,,,,,,,1,,,74,76
95160,note_on,,16,0,5,,,,,,,,,,,,,,,0,,,74,76
95264,note_on,,104,0,6,,,,,,,,,,,,,,,1,,,74,0
95264,note_on,,224,0,7,,,,,,,,,,,,,,,2,,,52,0
95264,note_on,,104,0,8,,,,,,,,,,,,,,,11,,,74,0
95264,note_on,,104,0,5,,,,,,,,,,,,,,,0,,,74,0
95264,note_on,,224,0,11,,,,,,,,,,,,,,,14,,,52,0
95264,note_on,,224,0,9,,,,,,,,,,,,,,,12,,,67,0
95264,note_on,,224,0,10,,,,,,,,,,,,,,,13,,,60,0
95279,note_on,,239,0,12,,,,,,,,,,,,,,,15,,,72,0
95279,note_on,,0,0,12,,,,,,,,,,,,,,,15,,,52,0
95279,note_on,,0,0,12,,,,,,,,,,,,,,,15,,,67,0
95279,note_on,,0,0,12,,,,,,,,,,,,,,,15,,,64,0
95280,note_on,,16,0,11,,,,,,,,,,,,,,,14,,,50,76
95280,note_on,,1,0,12,,,,,,,,,,,,,,,15,,,65,76
95280,note_on,,0,0,12,,,,,,,,,,,,,,,15,,,62,76
95280,note_on,,16,0,6,,,,,,,,,,,,,,,1,,,76,76
95280,note_on,,16,0,8,,,,,,,,,,,,,,,11,,,76,76
95280,note_on,,0,0,12,,,,,,,,,,,,,,,15,,,69,76
95280,note_on,,0,0,12,,,,,,,,,,,,,,,15,,,50,76
95280,note_on,,16,0,10,,,,,,,,,,,,,,,13,,,65,76
95280,note_on,,16,0,9,,,,,,,,,,,,,,,12,,,71,76
95280,note_on,,16,0,5,,,,,,,,,,,,,,,0,,,76,76
95280,note_on,,16,0,7,,,,,,,,,,,,,,,2,,,50,76
95384,note_on,,104,0,6,,,,,,,,,,,,,,,1,,,76,0
95384,note_on,,104,0,8,,,,,,,,,,,,,,,11,,,76,0
95384,note_on,,104,0,5,,,,,,,,,,,,,,,0,,,76,0
95400,note_on,,16,0,6,,,,,,,,,,,,,,,1,,,77,76
95400,note_on,,16,0,8,,,,,,,,,,,,,,,11,,,77,76
95400,note_on,,16,0,5,,,,,,,,,,,,,,,0,,,77,76
95504,note_on,,104,0,5,,,,,,,,,,,,,,,0,,,77,0
95504,note_on,,104,0,6,,,,,,,,,,,,,,,1,,,77,0
95504,note_on,,224,0,7,,,,,,,,,,,,,,,2,,,50,0
95504,note_on,,224,0,10,,,,,,,,,,,,,,,13,,,65,0
95504,note_on,,224,0,11,,,,,,,,,,,,,,,14,,,50,0
95504,note_on,,224,0,9,,,,,,,,,,,,,,,12,,,71,0
95504,note_on,,104,0,8,,,,,,,,,,,,,,,11,,,77,0
95519,note_on,,0,0,12,,,,,,,,,,,,,,,15,,,50,0
95519,note_on,,0,0,12,,,,,,,,,,,,,,,15,,,69,0
95519,note_on,,0,0,12,,,,,,,,,,,,,,,15,,,62,0
95519,note_on,,239,0,12,,,,,,,,,,,,,,,15,,,65,0
95520,note_on,,1,0,12,,,,,,,,,,,,,,,15,,,64,76
95520,note_on,,0,0,12,,,,,,,,,,,,,,,15,,,67,76
95520,note_on,,0,0,12,,,,,,,,,,,,,,,15,,,52,76
95520,note_on,,0,0,12,,,,,,,,,,,,,,,15,,,72,76
95520,note_on,,16,0,10,,,,,,,,,,,,,,,13,,,64,76
95520,note_on,,16,0,7,,,,,,,,,,,,,,,2,,,52,76
95520,note_on,,16,0,11,,,,,,,,,,,,,,,14,,,52,76
95520,note_on,,16,0,5,,,,,,,,,,,,,,,0,,,79,76
95520,note_on,,16,0,9,,,,,,,,,,,,,,,12,,,72,76
95520,note_on,,16,0,6,,,,,,,,,,,,,,,1,,,79,76
95520,note_on,,16,0,8,,,,,,,,,,,,,,,11,,,79,76
95744,note_on,,224,0,6,,,,,,,,,,,,,,,1,,,79,0
95744,note_on,,224,0,7,,,,,,,,,,,,,,,2,,,52,0
95744,note_on,,224,0,10,,,,,,,,,,,,,,,13,,,64,0
95744,note_on,,224,0,11,,,,,,,,,,,,,,,14,,,52,0
95744,note_on,,224,0,5,,,,,,,,,,,,,,,0,,,79,0
95744,note_on,,224,0,9,,,,,,,,,,,,,,,12,,,72,0
95744,note_on,,224,0,8,,,,,,,,,,,,,,,11,,,79,0
95759,note_on,,239,0,12,,,,,,,,,,,,,,,15,,,64,0
95759,note_on,,0,0,12,,,,,,,,,,,,,,,15,,,67,0
95759,note_on,,0,0,12,,,,,,,,,,,,,,,15,,,52,0
95759,note_on,,0,0,12,,,,,,,,,,,,,,,15,,,72,0
95760,note_on,,16,0,11,,,,,,,,,,,,,,,14,,,53,76
95760,note_on,,16,0,9,,,,,,,,,,,,,,,12,,,72,76
95760,note_on,,16,0,6,,,,,,,,,,,,,,,1,,,81,76
95760,note_on,,16,0,7,,,,,,,,,,,,,,,2,,,53,76
95760,note_on,,0,0,12,,,,,,,,,,,,,,,15,,,72,76
95760,note_on,,0,0,12,,,,,,,,,,,,,,,15,,,65,76
95760,note_on,,16,0,10,,,,,,,,,,,,,,,13,,,60,76
95760,note_on,,16,0,5,,,,,,,,,,,,,,,0,,,81,76
95760,note_on,,0,0,12,,,,,,,,,,,,,,,15,,,53,76
95760,note_on,,1,0,12,,,,,,,,,,,,,,,15,,,69,76
95760,note_on,,16,0,8,,,,,,,,,,,,,,,11,,,81,76
95984,note_on,,224,0,5,,,,,,,,,,,,,,,0,,,81,0
95984,note_on,,224,0,9,,,,,,,,,,,,,,,12,,,72,0
95984,note_on,,224,0,11,,,,,,,,,,,,,,,14,,,53,0
95984,note_on,,224,0,8,,,,,,,,,,,,,,,11,,,81,0
95984,note_on,,224,0,6,,,,,,,,,,,,,,,1,,,81,0
95984,note_on,,224,0,10,,,,,,,,,,,,,,,13,,,60,0
95984,note_on,,224,0,7,,,,,,,,,,,,,,,2,,,53,0
95999,note_on,,239,0,12,,,,,,,,,,,,,,,15,,,69,0
95999,note_on,,0,0,12,,,,,,,,,,,,,,,15,,,65,0
95999,note_on,,0,0,12,,,,,,,,,,,,,,,15,,,72,0
95999,note_on,,0,0,12,,,,,,,,,,,,,,,15,,,53,0
96000,note_on,,16,0,11,,,,,,,,,,,,,,,14,,,55,76
96000,note_on,,16,0,6,,,,,,,,,,,,,,,1,,,74,76
96000,note_on,,16,0,9,,,,,,,,,,,,,,,12,,,71,76
96000,note_on,,16,0,7,,,,,,,,,,,,,,,2,,,55,76
96000,note_on,,0,0,12,,,,,,,,,,,,,,,15,,,71,76
96000,note_on,,0,0,12,,,,,,,,,,,,,,,15,,,55,76
96000,note_on,,0,0,12,,,,,,,,,,,,,,,15,,,74,76
96000,note_on,,1,0,12,,,,,,,,,,,,,,,15,,,67,76
96000,note_on,,16,0,8,,,,,,,,,,,,,,,11,,,74,76
96000,note_on,,16,0,10,,,,,,,,,,,,,,,13,,,67,76
96000,note_on,,16,0,5,,,,,,,,,,,,,,,0,,,74,76
96104,note_on,,104,0,8,,,,,,,,,,,,,,,11,,,74,0
96104,note_on,,104,0,5,,,,,,,,,,,,,,,0,,,74,0
96104,note_on,,104,0,6,,,,,,,,,,,,,,,1,,,74,0
96120,note_on,,16,0,6,,,,,,,,,,,,,,,1,,,72,76
96120,note_on,,16,0,8,,,,,,,,,,,,,,,11,,,72,76
96120,note_on,,16,0,5,,,,,,,,,,,,,,,0,,,72,76
96224,note_on,,104,0,8,,,,,,,,,,,,,,,11,,,72,0
96224,note_on,,104,0,5,,,,,,,,,,,,,,,0,,,72,0
96224,note_on,,224,0,7,,,,,,,,,,,,,,,2,,,55,0
96224,note_on,,224,0,11,,,,,,,,,,,,,,,14,,,55,0
96224,note_on,,104,0,6,,,,,,,,,,,,,,,1,,,72,0
96224,note_on,,224,0,10,,,,,,,,,,,,,,,13,,,67,0
96224,note_on,,224,0,9,,,,,,,,,,,,,,,12,,,71,0
96239,note_on,,0,0,12,,,,,,,,,,,,,,,15,,,55,0
96239,note_on,,239,0,12,,,,,,,,,,,,,,,15,,,67,0
96239,note_on,,0,0,12,,,,,,,,,,,,,,,15,,,74,0
96239,note_on,,0,0,12,,,,,,,,,,,,,,,15,,,71,0
96240,note_on,,16,0,8,,,,,,,,,,,,,,,11,,,74,76
96240,note_on,,16,0,5,,,,,,,,,,,,,,,0,,,74,76
96240,note_on,,16,0,9,,,,,,,,,,,,,,,12,,,72,76
96240,note_on,,0,0,12,,,,,,,,,,,,,,,15,,,76,76
96240,note_on,,0,0,12,,,,,,,,,,,,,,,15,,,69,76
96240,note_on,,1,0,12,,,,,,,,,,,,,,,15,,,57,76
96240,note_on,,16,0,11,,,,,,,,,,,,,,,14,,,57,76
96240,note_on,,16,0,7,,,,,,,,,,,,,,,2,,,57,76
96240,note_on,,0,0,12,,,,,,,,,,,,,,,15,,,72,76
96240,note_on,,16,0,10,,,,,,,,,,,,,,,13,,,66,76
96240,note_on,,16,0,6,,,,,,,,,,,,,,,1,,,74,76
96344,note_on,,104,0,8,,,,,,,,,,,,,,,11,,,74,0
96344,note_on,,104,0,5,,,,,,,,,,,,,,,0,,,74,0
96344,note_on,,104,0,6,,,,,,,,,,,,,,,1,,,74,0
96360,note_on,,16,0,5,,,,,,,,,,,,,,,0,,,76,76
96360,note_on,,16,0,6,,,,,,,,,,,,,,,1,,,76,76
96360,note_on,,16,0,8,,,,,,,,,,,,,,,11,,,76,76
96464,note_on,,224,0,10,,,,,,,,,,,,,,,13,,,66,0
96464,note_on,,104,0,5,,,,,,,,,,,,,,,0,,,76,0
96464,note_on,,224,0,9,,,,,,,,,,,,,,,12,,,72,0
96464,note_on,,224,0,7,,,,,,,,,,,,,,,2,,,57,0
96464,note_on,,224,0,11,,,,,,,,,,,,,,,14,,,57,0
96464,note_on,,104,0,8,,,,,,,,,,,,,,,11,,,76,0
96464,note_on,,104,0,6,,,,,,,,,,,,,,,1,,,76,0
96479,note_on,,0,0,12,,,,,,,,,,,,,,,15,,,69,0
96479,note_on,,239,0,12,,,,,,,,,,,,,,,15,,,57,0
96479,note_on,,0,0,12,,,,,,,,,,,,,,,15,,,72,0
96479,note_on,,0,0,12,,,,,,,,,,,,,,,15,,,76,0
96480,note_on,,1,0,12,,,,,,,,,,,,,,,15,,,59,76
96480,note_on,,0,0,12,,,,,,,,,,,,,,,15,,,74,76
96480,note_on,,0,0,12,,,,,,,,,,,,,,,15,,,79,76
96480,note_on,,16,0,10,,,,,,,,,,,,,,,13,,,67,76
96480,note_on,,16,0,5,,,,,,,,,,,,,,,0,,,74,76
96480,note_on,,0,0,12,,,,,,,,,,,,,,,15,,,71,76
96480,note_on,,16,0,9,,,,,,,,,,,,,,,12,,,74,76
96480,note_on,,16,0,6,,,,,,,,,,,,,,,1,,,74,76
96480,note_on,,16,0,11,,,,,,,,,,,,,,,14,,,59,76
96480,note_on,,16,0,8,,,,,,,,,,,,,,,11,,,74,76
96480,note_on,,16,0,7,,,,,,,,,,,,,,,2,,,59,76
96704,note_on,,224,0,7,,,,,,,,,,,,,,,2,,,59,0
96704,note_on,,224,0,10,,,,,,,,,,,,,,,13,,,67,0
96704,note_on,,224,0,5,,,,,,,,,,,,,,,0,,,74,0
96704,note_on,,224,0,6,,,,,,,,,,,,,,,1,,,74,0
96704,note_on,,224,0,9,,,,,,,,,,,,,,,12,,,74,0
96704,note_on,,224,0,11,,,,,,,,,,,,,,,14,,,59,0
96704,note_on,,224,0,8,,,,,,,,,,,,,,,11,,,74,0
96719,note_on,,0,0,12,,,,,,,,,,,,,,,15,,,79,0
96719,note_on,,0,0,12,,,,,,,,,,,,,,,15,,,74,0
96719,note_on,,0,0,12,,,,,,,,,,,,,,,15,,,71,0
96719,note_on,,239,0,12,,,,,,,,,,,,,,,15,,,59,0
96720,note_on,,16,0,10,,,,,,,,,,,,,,,13,,,67,76
96720,note_on,,16,0,8,,,,,,,,,,,,,,,11,,,76,76
96720,note_on,,16,0,9,,,,,,,,,,,,,,,12,,,72,76
96720,note_on,,16,0,6,,,,,,,,,,,,,,,1,,,76,76
96720,note_on,,16,0,5,,,,,,,,,,,,,,,0,,,76,76
96720,note_on,,16,0,7,,,,,,,,,,,,,,,2,,,60,76
96720,note_on,,16,0,11,,,,,,,,,,,,,,,14,,,60,76
96720,note_on,,1,0,12,,,,,,,,,,,,,,,15,,,60,76
96720,note_on,,0,0,12,,,,,,,,,,,,,,,15,,,76,76
96720,note_on,,0,0,12,,,,,,,,,,,,,,,15,,,79,76
96720,note_on,,0,0,12,,,,,,,,,,,,,,,15,,,72,76
96824,note_on,,104,0,10,,,,,,,,,,,,,,,13,,,67,0
96824,note_on,,104,0,8,,,,,,,,,,,,,,,11,,,76,0
96824,note_on,,104,0,6,,,,,,,,,,,,,,,1,,,76,0
96824,note_on,,104,0,5,,,,,,,,,,,,,,,0,,,76,0
96840,note_on,,16,0,6,,,,,,,,,,,,,,,1,,,78,76
96840,note_on,,16,0,5,,,,,,,,,,,,,,,0,,,78,76
96840,note_on,,16,0,8,,,,,,,,,,,,,,,11,,,78,76
96840,note_on,,16,0,10,,,,,,,,,,,,,,,13,,,69,76
96944,note_on,,104,0,8,,,,,,,,,,,,,,,11,,,78,0
96944,note_on,,104,0,6,,,,,,,,,,,,,,,1,,,78,0
96944,note_on,,224,0,11,,,,,,,,,,,,,,,14,,,60,0
96944,note_on,,224,0,9,,,,,,,,,,,,,,,12,,,72,0
96944,note_on,,224,0,7,,,,,,,,,,,,,,,2,,,60,0
96944,note_on,,104,0,5,,,,,,,,,,,,,,,0,,,78,0
96944,note_on,,104,0,10,,,,,,,,,,,,,,,13,,,69,0
96959,note_on,,239,0,12,,,,,,,,,,,,,,,15,,,60,0
96959,note_on,,0,0,12,,,,,,,,,,,,,,,15,,,72,0
96959,note_on,,0,0,12,,,,,,,,,,,,,,,15,,,79,0
96959,note_on,,0,0,12,,,,,,,,,,,,,,,15,,,76,0
96960,note_on,,16,0,5,,,,,,,,,,,,,,,0,,,79,76
96960,note_on,,16,0,11,,,,,,,,,,,,,,,14,,,59,76
96960,note_on,,16,0,10,,,,,,,,,,,,,,,13,,,71,76
96960,note_on,,16,0,8,,,,,,,,,,,,,,,11,,,79,76
96960,note_on,,16,0,6,,,,,,,,,,,,,,,1,,,79,76
96960,note_on,,16,0,7,,,,,,,,,,,,,,,2,,,59,76
96960,note_on,,1,0,12,,,,,,,,,,,,,,,15,,,79,76
96960,note_on,,0,0,12,,,,,,,,,,,,,,,15,,,59,76
96960,note_on,,0,0,12,,,,,,,,,,,,,,,15,,,74,76
96960,note_on,,16,0,9,,,,,,,,,,,,,,,12,,,74,76
96960,note_on,,0,0,12,,,,,,,,,,,,,,,15,,,71,76
97184,note_on,,224,0,8,,,,,,,,,,,,,,,11,,,79,0
97184,note_on,,224,0,5,,,,,,,,,,,,,,,0,,,79,0
97184,note_on,,224,0,6,,,,,,,,,,,,,,,1,,,79,0
97184,note_on,,224,0,7,,,,,,,,,,,,,,,2,,,59,0
97184,note_on,,224,0,11,,,,,,,,,,,,,,,14,,,59,0
97199,note_on,,239,0,12,,,,,,,,,,,,,,,15,,,79,0
97199,note_on,,0,0,12,,,,,,,,,,,,,,,15,,,59,0
97199,note_on,,239,0,10,,,,,,,,,,,,,,,13,,,71,0
97199,note_on,,0,0,12,,,,,,,,,,,,,,,15,,,74,0
97199,note_on,,239,0,9,,,,,,,,,,,,,,,12,,,74,0
97199,note_on,,0,0,12,,,,,,,,,,,,,,,15,,,71,0
97200,note_on,,16,0,11,,,,,,,,,,,,,,,14,,,57,76
97200,note_on,,16,0,7,,,,,,,,,,,,,,,2,,,57,76
97200,note_on,,0,0,12,,,,,,,,,,,,,,,15,,,76,76
97200,note_on,,0,0,12,,,,,,,,,,,,,,,15,,,57,76
97200,note_on,,1,0,12,,,,,,,,,,,,,,,15,,,72,76
97200,note_on,,0,0,12,,,,,,,,,,,,,,,15,,,69,76
97200,note_on,,16,0,8,,,,,,,,,,,,,,,11,,,71,76
97200,note_on,,16,0,5,,,,,,,,,,,,,,,0,,,71,76
97200,note_on,,16,0,6,,,,,,,,,,,,,,,1,,,71,76
97304,note_on,,104,0,8,,,,,,,,,,,,,,,11,,,71,0
97304,note_on,,104,0,6,,,,,,,,,,,,,,,1,,,71,0
97304,note_on,,104,0,5,,,,,,,,,,,,,,,0,,,71,0
97320,note_on,,16,0,6,,,,,,,,,,,,,,,1,,,72,76
97320,note_on,,16,0,8,,,,,,,,,,,,,,,11,,,72,76
97320,note_on,,16,0,5,,,,,,,,,,,,,,,0,,,72,76
97424,note_on,,224,0,11,,,,,,,,,,,,,,,14,,,57,0
97424,note_on,,104,0,8,,,,,,,,,,,,,,,11,,,72,0
97424,note_on,,104,0,5,,,,,,,,,,,,,,,0,,,72,0
97424,note_on,,104,0,6,,,,,,,,,,,,,,,1,,,72,0
97424,note_on,,224,0,7,,,,,,,,,,,,,,,2,,,57,0
97439,note_on,,0,0,12,,,,,,,,,,,,,,,15,,,57,0
97439,note_on,,239,0,12,,,,,,,,,,,,,,,15,,,72,0
97439,note_on,,0,0,12,,,,,,,,,,,,,,,15,,,76,0
97439,note_on,,0,0,12,,,,,,,,,,,,,,,15,,,69,0
97440,note_on,,16,0,5,,,,,,,,,,,,,,,0,,,74,76
97440,note_on,,16,0,8,,,,,,,,,,,,,,,11,,,74,76
97440,note_on,,16,0,7,,,,,,,,,,,,,,,2,,,55,76
97440,note_on,,0,0,12,,,,,,,,,,,,,,,15,,,74,76
97440,note_on,,16,0,11,,,,,,,,,,,,,,,14,,,55,76
97440,note_on,,1,0,12,,,,,,,,,,,,,,,15,,,55,76
97440,note_on,,0,0,12,,,,,,,,,,,,,,,15,,,71,76
97440,note_on,,0,0,12,,,,,,,,,,,,,,,15,,,67,76
97440,note_on,,16,0,6,,,,,,,,,,,,,,,1,,,74,76
97664,note_on,,224,0,8,,,,,,,,,,,,,,,11,,,74,0
97664,note_on,,224,0,11,,,,,,,,,,,,,,,14,,,55,0
97664,note_on,,224,0,6,,,,,,,,,,,,,,,1,,,74,0
97664,note_on,,224,0,5,,,,,,,,,,,,,,,0,,,74,0
97664,note_on,,224,0,7,,,,,,,,,,,,,,,2,,,55,0
97679,note_on,,0,0,12,,,,,,,,,,,,,,,15,,,71,0
97679,note_on,,0,0,12,,,,,,,,,,,,,,,15,,,74,0
97679,note_on,,0,0,12,,,,,,,,,,,,,,,15,,,67,0
97679,note_on,,239,0,12,,,,,,,,,,,,,,,15,,,55,0
97680,note_on,,16,0,11,,,,,,,,,,,,,,,14,,,54,76
97680,note_on,,481,0,10,,,,,,,,,,,,,,,13,,,59,76
97680,note_on,,16,0,6,,,,,,,,,,,,,,,1,,,76,76
97680,note_on,,481,0,9,,,,,,,,,,,,,,,12,,,67,76
97680,note_on,,16,0,7,,,,,,,,,,,,,,,2,,,54,76
97680,note_on,,0,0,12,,,,,,,,,,,,,,,15,,,72,76
97680,note_on,,0,0,12,,,,,,,,,,,,,,,15,,,66,76
97680,note_on,,16,0,8,,,,,,,,,,,,,,,11,,,76,76
97680,note_on,,16,0,5,,,,,,,,,,,,,,,0,,,76,76
97680,note_on,,0,0,12,,,,,,,,,,,,,,,15,,,69,76
97680,note_on,,1,0,12,,,,,,,,,,,,,,,15,,,54,76
97784,note_on,,104,0,9,,,,,,,,,,,,,,,12,,,67,0
97784,note_on,,104,0,6,,,,,,,,,,,,,,,1,,,76,0
97784,note_on,,104,0,5,,,,,,,,,,,,,,,0,,,76,0
97784,note_on,,104,0,8,,,,,,,,,,,,,,,11,,,76,0
97800,note_on,,16,0,9,,,,,,,,,,,,,,,12,,,69,76
97800,note_on,,16,0,5,,,,,,,,,,,,,,,0,,,78,76
97800,note_on,,16,0,8,,,,,,,,,,,,,,,11,,,78,76
97800,note_on,,16,0,6,,,,,,,,,,,,,,,1,,,78,76
97904,note_on,,224,0,10,,,,,,,,,,,,,,,13,,,59,0
97904,note_on,,104,0,6,,,,,,,,,,,,,,,1,,,78,0
97904,note_on,,104,0,8,,,,,,,,,,,,,,,11,,,78,0
97904,note_on,,104,0,9,,,,,,,,,,,,,,,12,,,69,0
97904,note_on,,224,0,11,,,,,,,,,,,,,,,14,,,54,0
97904,note_on,,104,0,5,,,,,,,,,,,,,,,0,,,78,0
97904,note_on,,224,0,7,,,,,,,,,,,,,,,2,,,54,0
97919,note_on,,0,0,12,,,,,,,,,,,,,,,15,,,72,0
97919,note_on,,0,0,12,,,,,,,,,,,,,,,15,,,66,0
97919,note_on,,0,0,12,,,,,,,,,,,,,,,15,,,69,0
97919,note_on,,239,0,12,,,,,,,,,,,,,,,15,,,54,0
97920,note_on,,0,0,12,,,,,,,,,,,,,,,15,,,67,76
97920,note_on,,16,0,8,,,,,,,,,,,,,,,11,,,79,76
97920,note_on,,16,0,5,,,,,,,,,,,,,,,0,,,79,76
97920,note_on,,16,0,7,,,,,,,,,,,,,,,2,,,52,76
97920,note_on,,0,0,12,,,,,,,,,,,,,,,15,,,52,76
97920,note_on,,16,0,10,,,,,,,,,,,,,,,13,,,64,76
97920,note_on,,16,0,11,,,,,,,,,,,,,,,14,,,52,76
97920,note_on,,16,0,9,,,,,,,,,,,,,,,12,,,71,76
97920,note_on,,0,0,12,,,,,,,,,,,,,,,15,,,64,76
97920,note_on,,1,0,12,,,,,,,,,,,,,,,15,,,71,76
97920,note_on,,16,0,6,,,,,,,,,,,,,,,1,,,79,76
98144,note_on,,224,0,6,,,,,,,,,,,,,,,1,,,79,0
98144,note_on,,224,0,7,,,,,,,,,,,,,,,2,,,52,0
98144,note_on,,224,0,11,,,,,,,,,,,,,,,14,,,52,0
98144,note_on,,224,0,8,,,,,,,,,,,,,,,11,,,79,0
98144,note_on,,224,0,5,,,,,,,,,,,,,,,0,,,79,0
98159,note_on,,239,0,9,,,,,,,,,,,,,,,12,,,71,0
98159,note_on,,239,0,10,,,,,,,,,,,,,,,13,,,64,0
98159,note_on,,239,0,12,,,,,,,,,,,,,,,15,,,71,0
98159,note_on,,0,0,12,,,,,,,,,,,,,,,15,,,52,0
98159,note_on,,0,0,12,,,,,,,,,,,,,,,15,,,67,0
98159,note_on,,0,0,12,,,,,,,,,,,,,,,15,,,64,0
98160,note_on,,16,0,6,,,,,,,,,,,,,,,1,,,69,76
98160,note_on,,0,0,12,,,,,,,,,,,,,,,15,,,62,76
98160,note_on,,0,0,12,,,,,,,,,,,,,,,15,,,69,76
98160,note_on,,16,0,7,,,,,,,,,,,,,,,2,,,50,76
98160,note_on,,16,0,11,,,,,,,,,,,,,,,14,,,50,76
98160,note_on,,1,0,12,,,,,,,,,,,,,,,15,,,65,76
98160,note_on,,0,0,12,,,,,,,,,,,,,,,15,,,50,76
98160,note_on,,16,0,8,,,,,,,,,,,,,,,11,,,69,76
98160,note_on,,16,0,5,,,,,,,,,,,,,,,0,,,69,76
98264,note_on,,104,0,8,,,,,,,,,,,,,,,11,,,69,0
98264,note_on,,104,0,6,,,,,,,,,,,,,,,1,,,69,0
98264,note_on,,104,0,5,,,,,,,,,,,,,,,0,,,69,0
98280,note_on,,16,0,8,,,,,,,,,,,,,,,11,,,71,76
98280,note_on,,16,0,6,,,,,,,,,,,,,,,1,,,71,76
98280,note_on,,16,0,5,,,,,,,,,,,,,,,0,,,71,76
98384,note_on,,104,0,6,,,,,,,,,,,,,,,1,,,71,0
98384,note_on,,224,0,7,,,,,,,,,,,,,,,2,,,50,0
98384,note_on,,104,0,5,,,,,,,,,,,,,,,0,,,71,0
98384,note_on,,104,0,8,,,,,,,,,,,,,,,11,,,71,0
98384,note_on,,224,0,11,,,,,,,,,,,,,,,14,,,50,0
98399,note_on,,239,0,12,,,,,,,,,,,,,,,15,,,65,0
98399,note_on,,0,0,12,,,,,,,,,,,,,,,15,,,50,0
98399,note_on,,0,0,12,,,,,,,,,,,,,,,15,,,62,0
98399,note_on,,0,0,12,,,,,,,,,,,,,,,15,,,69,0
98400,note_on,,16,0,5,,,,,,,,,,,,,,,0,,,72,76
98400,note_on,,0,0,12,,,,,,,,,,,,,,,15,,,71,76
98400,note_on,,0,0,12,,,,,,,,,,,,,,,15,,,67,76
98400,note_on,,0,0,12,,,,,,,,,,,,,,,15,,,64,76
98400,note_on,,1,0,12,,,,,,,,,,,,,,,15,,,52,76
98400,note_on,,16,0,8,,,,,,,,,,,,,,,11,,,72,76
98400,note_on,,16,0,7,,,,,,,,,,,,,,,2,,,52,76
98400,note_on,,16,0,11,,,,,,,,,,,,,,,14,,,52,76
98400,note_on,,16,0,6,,,,,,,,,,,,,,,1,,,72,76
98624,note_on,,224,0,6,,,,,,,,,,,,,,,1,,,72,0
98624,note_on,,224,0,7,,,,,,,,,,,,,,,2,,,52,0
98624,note_on,,224,0,11,,,,,,,,,,,,,,,14,,,52,0
98624,note_on,,224,0,8,,,,,,,,,,,,,,,11,,,72,0
98624,note_on,,224,0,5,,,,,,,,,,,,,,,0,,,72,0
98639,note_on,,239,0,12,,,,,,,,,,,,,,,15,,,52,0
98639,note_on,,0,0,12,,,,,,,,,,,,,,,15,,,64,0
98639,note_on,,0,0,12,,,,,,,,,,,,,,,15,,,67,0
98639,note_on,,0,0,12,,,,,,,,,,,,,,,15,,,71,0
98640,note_on,,16,0,8,,,,,,,,,,,,,,,11,,,74,76
98640,note_on,,481,0,10,,,,,,,,,,,,,,,13,,,57,76
98640,note_on,,0,0,12,,,,,,,,,,,,,,,15,,,69,76
98640,note_on,,16,0,5,,,,,,,,,,,,,,,0,,,74,76
98640,note_on,,16,0,6,,,,,,,,,,,,,,,1,,,74,76
98640,note_on,,0,0,12,,,,,,,,,,,,,,,15,,,74,76
98640,note_on,,1,0,12,,,,,,,,,,,,,,,15,,,66,76
98640,note_on,,0,0,12,,,,,,,,,,,,,,,15,,,54,76
98640,note_on,,481,0,9,,,,,,,,,,,,,,,12,,,69,76
98640,note_on,,16,0,7,,,,,,,,,,,,,,,2,,,54,76
98640,note_on,,16,0,11,,,,,,,,,,,,,,,14,,,54,76
98864,note_on,,224,0,11,,,,,,,,,,,,,,,14,,,54,0
98864,note_on,,224,0,10,,,,,,,,,,,,,,,13,,,57,0
98864,note_on,,224,0,8,,,,,,,,,,,,,,,11,,,74,0
98864,note_on,,224,0,9,,,,,,,,,,,,,,,12,,,69,0
98864,note_on,,224,0,5,,,,,,,,,,,,,,,0,,,74,0
98864,note_on,,224,0,6,,,,,,,,,,,,,,,1,,,74,0
98864,note_on,,224,0,7,,,,,,,,,,,,,,,2,,,54,0
98879,note_on,,239,0,12,,,,,,,,,,,,,,,15,,,66,0
98879,note_on,,0,0,12,,,,,,,,,,,,,,,15,,,69,0
98879,note_on,,0,0,12,,,,,,,,,,,,,,,15,,,74,0
98879,note_on,,0,0,12,,,,,,,,,,,,,,,15,,,54,0
98880,note_on,,16,0,8,,,,,,,,,,,,,,,11,,,71,76
98880,note_on,,16,0,9,,,,,,,,,,,,,,,12,,,67,76
98880,note_on,,16,0,11,,,,,,,,,,,,,,,14,,,55,76
98880,note_on,,16,0,10,,,,,,,,,,,,,,,13,,,62,76
98880,note_on,,0,0,12,,,,,,,,,,,,,,,15,,,74,76
98880,note_on,,0,0,12,,,,,,,,,,,,,,,15,,,55,76
98880,note_on,,0,0,12,,,,,,,,,,,,,,,15,,,71,76
98880,note_on,,1,0,12,,,,,,,,,,,,,,,15,,,67,76
98880,note_on,,16,0,6,,,,,,,,,,,,,,,1,,,71,76
98880,note_on,,16,0,7,,,,,,,,,,,,,,,2,,,55,76
98880,note_on,,16,0,5,,,,,,,,,,,,,,,0,,,71,76
99104,note_on,,224,0,10,,,,,,,,,,,,,,,13,,,62,0
99104,note_on,,224,0,9,,,,,,,,,,,,,,,12,,,67,0
99104,note_on,,224,0,7,,,,,,,,,,,,,,,2,,,55,0
99104,note_on,,224,0,11,,,,,,,,,,,,,,,14,,,55,0
99119,note_on,,0,0,12,,,,,,,,,,,,,,,15,,,74,0
99119,note_on,,239,0,12,,,,,,,,,,,,,,,15,,,67,0
99119,note_on,,0,0,12,,,,,,,,,,,,,,,15,,,71,0
99119,note_on,,0,0,12,,,,,,,,,,,,,,,15,,,55,0
99120,note_on,,16,0,11,,,,,,,,,,,,,,,14,,,48,76
99120,note_on,,16,0,10,,,,,,,,,,,,,,,13,,,64,76
99120,note_on,,0,0,12,,,,,,,,,,,,,,,15,,,67,76
99120,note_on,,0,0,12,,,,,,,,,,,,,,,15,,,60,76
99120,note_on,,0,0,12,,,,,,,,,,,,,,,15,,,64,76
99120,note_on,,16,0,9,,,,,,,,,,,,,,,12,,,67,76
99120,note_on,,0,0,12,,,,,,,,,,,,,,,15,,,69,76
99120,note_on,,1,0,12,,,,,,,,,,,,,,,15,,,48,76
99120,note_on,,16,0,7,,,,,,,,,,,,,,,2,,,48,76
99224,note_on,,344,0,5,,,,,,,,,,,,,,,0,,,71,0
99224,note_on,,344,0,8,,,,,,,,,,,,,,,11,,,71,0
99224,note_on,,344,0,6,,,,,,,,,,,,,,,1,,,71,0
99240,note_on,,16,0,6,,,,,,,,,,,,,,,1,,,69,76
99240,note_on,,16,0,8,,,,,,,,,,,,,,,11,,,69,76
99240,note_on,,16,0,5,,,,,,,,,,,,,,,0,,,69,76
99344,note_on,,104,0,8,,,,,,,,,,,,,,,11,,,69,0
99344,note_on,,224,0,10,,,,,,,,,,,,,,,13,,,64,0
99344,note_on,,224,0,9,,,,,,,,,,,,,,,12,,,67,0
99344,note_on,,224,0,11,,,,,,,,,,,,,,,14,,,48,0
99344,note_on,,224,0,7,,,,,,,,,,,,,,,2,,,48,0
99344,note_on,,104,0,6,,,,,,,,,,,,,,,1,,,69,0
99344,note_on,,104,0,5,,,,,,,,,,,,,,,0,,,69,0
99359,note_on,,0,0,12,,,,,,,,,,,,,,,15,,,69,0
99359,note_on,,0,0,12,,,,,,,,,,,,,,,15,,,64,0
99359,note_on,,0,0,12,,,,,,,,,,,,,,,15,,,60,0
99359,note_on,,0,0,12,,,,,,,,,,,,,,,15,,,67,0
99359,note_on,,239,0,12,,,,,,,,,,,,,,,15,,,48,0
99360,note_on,,16,0,9,,,,,,,,,,,,,,,12,,,67,76
99360,note_on,,0,0,12,,,,,,,,,,,,,,,15,,,50,76
99360,note_on,,0,0,12,,,,,,,,,,,,,,,15,,,67,76
99360,note_on,,16,0,8,,,,,,,,,,,,,,,11,,,69,76
99360,note_on,,16,0,6,,,,,,,,,,,,,,,1,,,69,76
99360,note_on,,16,0,5,,,,,,,,,,,,,,,0,,,69,76
99360,note_on,,16,0,7,,,,,,,,,,,,,,,2,,,50,76
99360,note_on,,1,0,12,,,,,,,,,,,,,,,15,,,69,76
99360,note_on,,0,0,12,,,,,,,,,,,,,,,15,,,62,76
99360,note_on,,16,0,11,,,,,,,,,,,,,,,14,,,50,76
99360,note_on,,16,0,10,,,,,,,,,,,,,,,13,,,62,76
99584,note_on,,224,0,11,,,,,,,,,,,,,,,14,,,50,0
99584,note_on,,224,0,9,,,,,,,,,,,,,,,12,,,67,0
99584,note_on,,224,0,7,,,,,,,,,,,,,,,2,,,50,0
99584,note_on,,224,0,10,,,,,,,,,,,,,,,13,,,62,0
99599,note_on,,239,0,12,,,,,,,,,,,,,,,15,,,69,0
99599,note_on,,0,0,12,,,,,,,,,,,,,,,15,,,62,0
99599,note_on,,0,0,12,,,,,,,,,,,,,,,15,,,50,0
99599,note_on,,0,0,12,,,,,,,,,,,,,,,15,,,67,0
99600,note_on,,16,0,10,,,,,,,,,,,,,,,13,,,60,76
99600,note_on,,0,0,12,,,,,,,,,,,,,,,15,,,54,76
99600,note_on,,0,0,12,,,,,,,,,,,,,,,15,,,50,76
99600,note_on,,0,0,12,,,,,,,,,,,,,,,15,,,38,76
99600,note_on,,16,0,11,,,,,,,,,,,,,,,14,,,38,76
99600,note_on,,16,0,9,,,,,,,,,,,,,,,12,,,66,76
99600,note_on,,16,0,7,,,,,,,,,,,,,,,2,,,38,76
99600,note_on,,1,0,12,,,,,,,,,,,,,,,15,,,57,76
99704,note_on,,344,0,5,,,,,,,,,,,,,,,0,,,69,0
99704,note_on,,344,0,6,,,,,,,,,,,,,,,1,,,69,0
99704,note_on,,344,0,8,,,,,,,,,,,,,,,11,,,69,0
99720,note_on,,16,0,8,,,,,,,,,,,,,,,11,,,67,76
99720,note_on,,16,0,6,,,,,,,,,,,,,,,1,,,67,76
99720,note_on,,16,0,5,,,,,,,,,,,,,,,0,,,67,76
99824,note_on,,224,0,9,,,,,,,,,,,,,,,12,,,66,0
99824,note_on,,224,0,7,,,,,,,,,,,,,,,2,,,38,0
99824,note_on,,104,0,5,,,,,,,,,,,,,,,0,,,67,0
99824,note_on,,104,0,8,,,,,,,,,,,,,,,11,,,67,0
99824,note_on,,224,0,10,,,,,,,,,,,,,,,13,,,60,0
99824,note_on,,224,0,11,,,,,,,,,,,,,,,14,,,38,0
99824,note_on,,104,0,6,,,,,,,,,,,,,,,1,,,67,0
99839,note_on,,0,0,12,,,,,,,,,,,,,,,15,,,54,0
99839,note_on,,239,0,12,,,,,,,,,,,,,,,15,,,57,0
99839,note_on,,0,0,12,,,,,,,,,,,,,,,15,,,38,0
99839,note_on,,0,0,12,,,,,,,,,,,,,,,15,,,50,0
99840,note_on,,16,0,7,,,,,,,,,,,,,,,2,,,43,76
99840,note_on,,16,0,9,,,,,,,,,,,,,,,12,,,62,76
99840,note_on,,16,0,5,,,,,,,,,,,,,,,0,,,67,76
99840,note_on,,0,0,12,,,,,,,,,,,,,,,15,,,43,76
99840,note_on,,0,0,12,,,,,,,,,,,,,,,15,,,59,76
99840,note_on,,16,0,11,,,,,,,,,,,,,,,14,,,43,76
99840,note_on,,16,0,10,,,,,,,,,,,,,,,13,,,59,76
99840,note_on,,1,0,12,,,,,,,,,,,,,,,15,,,62,76
99840,note_on,,16,0,6,,,,,,,,,,,,,,,1,,,67,76
99840,note_on,,16,0,8,,,,,,,,,,,,,,,11,,,67,76
99840,note_on,,0,0,12,,,,,,,,,,,,,,,15,,,55,76
100064,note_on,,224,0,7,,,,,,,,,,,,,,,2,,,43,0
100064,note_on,,224,0,11,,,,,,,,,,,,,,,14,,,43,0
100079,note_on,,0,0,12,,,,,,,,,,,,,,,15,,,43,0
100079,note_on,,0,0,12,,,,,,,,,,,,,,,15,,,55,0
100079,note_on,,0,0,12,,,,,,,,,,,,,,,15,,,59,0
100079,note_on,,239,0,12,,,,,,,,,,,,,,,15,,,62,0
100080,note_on,,16,0,11,,,,,,,,,,,,,,,14,,,50,76
100080,note_on,,1,0,12,,,,,,,,,,,,,,,15,,,69,76
100080,note_on,,0,0,12,,,,,,,,,,,,,,,15,,,65,76
100080,note_on,,0,0,12,,,,,,,,,,,,,,,15,,,62,76
100080,note_on,,0,0,12,,,,,,,,,,,,,,,15,,,50,76
100080,note_on,,16,0,7,,,,,,,,,,,,,,,2,,,50,76
100304,note_on,,224,0,7,,,,,,,,,,,,,,,2,,,50,0
100304,note_on,,224,0,11,,,,,,,,,,,,,,,14,,,50,0
100319,note_on,,239,0,12,,,,,,,,,,,,,,,15,,,69,0
100319,note_on,,0,0,12,,,,,,,,,,,,,,,15,,,50,0
100319,note_on,,0,0,12,,,,,,,,,,,,,,,15,,,62,0
100319,note_on,,0,0,12,,,,,,,,,,,,,,,15,,,65,0
100320,note_on,,1,0,12,,,,,,,,,,,,,,,15,,,74,76
100320,note_on,,0,0,12,,,,,,,,,,,,,,,15,,,55,76
100320,note_on,,16,0,11,,,,,,,,,,,,,,,14,,,55,76
100320,note_on,,16,0,7,,,,,,,,,,,,,,,2,,,55,76
100320,note_on,,0,0,12,,,,,,,,,,,,,,,15,,,67,76
100320,note_on,,0,0,12,,,,,,,,,,,,,,,15,,,71,76
100544,note_on,,704,0,6,,,,,,,,,,,,,,,1,,,67,0
100544,note_on,,704,0,8,,,,,,,,,,,,,,,11,,,67,0
100544,note_on,,704,0,5,,,,,,,,,,,,,,,0,,,67,0
100559,note_on,,239,0,11,,,,,,,,,,,,,,,14,,,55,0
100559,note_on,,239,0,7,,,,,,,,,,,,,,,2,,,55,0
100559,note_on,,719,0,9,,,,,,,,,,,,,,,12,,,62,0
100559,note_on,,0,0,12,,,,,,,,,,,,,,,15,,,67,0
100559,note_on,,0,0,12,,,,,,,,,,,,,,,15,,,55,0
100559,note_on,,0,0,12,,,,,,,,,,,,,,,15,,,71,0
100559,note_on,,239,0,12,,,,,,,,,,,,,,,15,,,74,0
100559,note_on,,719,0,10,,,,,,,,,,,,,,,13,,,59,0
100560,note_on,,16,0,6,,,,,,,,,,,,,,,1,,,64,76
100560,note_on,,16,0,8,,,,,,,,,,,,,,,11,,,64,76
100560,note_on,,16,0,5,,,,,,,,,,,,,,,0,,,64,76
100664,note_on,,104,0,6,,,,,,,,,,,,,,,1,,,64,0
100664,note_on,,104,0,8,,,,,,,,,,,,,,,11,,,64,0
100664,note_on,,104,0,5,,,,,,,,,,,,,,,0,,,64,0
100680,note_on,,16,0,6,,,,,,,,,,,,,,,1,,,65,76
100680,note_on,,16,0,5,,,,,,,,,,,,,,,0,,,65,76
100680,note_on,,16,0,8,,,,,,,,,,,,,,,11,,,65,76
100784,note_on,,104,0,6,,,,,,,,,,,,,,,1,,,65,0
100784,note_on,,104,0,8,,,,,,,,,,,,,,,11,,,65,0
100784,note_on,,104,0,5,,,,,,,,,,,,,,,0,,,65,0
100800,note_on,,16,0,5,,,,,,,,,,,,,,,0,,,67,76
100800,note_on,,16,0,8,,,,,,,,,,,,,,,11,,,67,76
100800,note_on,,16,0,6,,,,,,,,,,,,,,,1,,,67,76
101024,note_on,,224,0,5,,,,,,,,,,,,,,,0,,,67,0
101024,note_on,,224,0,8,,,,,,,,,,,,,,,11,,,67,0
101024,note_on,,224,0,6,,,,,,,,,,,,,,,1,,,67,0
101040,note_on,,481,0,11,,,,,,,,,,,,,,,14,,,48,76
101040,note_on,,0,0,12,,,,,,,,,,,,,,,15,,,48,76
101040,note_on,,0,0,12,,,,,,,,,,,,,,,15,,,60,76
101040,note_on,,0,0,12,,,,,,,,,,,,,,,15,,,64,76
101040,note_on,,481,0,12,,,,,,,,,,,,,,,15,,,67,76
101040,note_on,,481,0,7,,,,,,,,,,,,,,,2,,,48,76
101040,note_on,,16,0,6,,,,,,,,,,,,,,,1,,,72,76
101040,note_on,,481,0,9,,,,,,,,,,,,,,,12,,,64,76
101040,note_on,,481,0,10,,,,,,,,,,,,,,,13,,,55,76
101040,note_on,,16,0,8,,,,,,,,,,,,,,,11,,,72,76
101040,note_on,,16,0,5,,,,,,,,,,,,,,,0,,,72,76
101144,note_on,,104,0,9,,,,,,,,,,,,,,,12,,,64,0
101144,note_on,,104,0,11,,,,,,,,,,,,,,,14,,,48,0
101144,note_on,,104,0,7,,,,,,,,,,,,,,,2,,,48,0
101159,note_on,,119,0,12,,,,,,,,,,,,,,,15,,,67,0
101159,note_on,,0,0,12,,,,,,,,,,,,,,,15,,,64,0
101159,note_on,,0,0,12,,,,,,,,,,,,,,,15,,,48,0
101159,note_on,,0,0,12,,,,,,,,,,,,,,,15,,,60,0
101160,note_on,,0,0,12,,,,,,,,,,,,,,,15,,,69,76
101160,note_on,,0,0,12,,,,,,,,,,,,,,,15,,,65,76
101160,note_on,,1,0,12,,,,,,,,,,,,,,,15,,,50,76
101160,note_on,,16,0,11,,,,,,,,,,,,,,,14,,,50,76
101160,note_on,,0,0,12,,,,,,,,,,,,,,,15,,,62,76
101160,note_on,,16,0,9,,,,,,,,,,,,,,,12,,,65,76
101160,note_on,,16,0,7,,,,,,,,,,,,,,,2,,,50,76
101264,note_on,,224,0,10,,,,,,,,,,,,,,,13,,,55,0
101264,note_on,,104,0,11,,,,,,,,,,,,,,,14,,,50,0
101264,note_on,,104,0,9,,,,,,,,,,,,,,,12,,,65,0
101264,note_on,,104,0,7,,,,,,,,,,,,,,,2,,,50,0
101279,note_on,,0,0,12,,,,,,,,,,,,,,,15,,,69,0
101279,note_on,,0,0,12,,,,,,,,,,,,,,,15,,,65,0
101279,note_on,,119,0,12,,,,,,,,,,,,,,,15,,,50,0
101279,note_on,,0,0,12,,,,,,,,,,,,,,,15,,,62,0
101280,note_on,,16,0,7,,,,,,,,,,,,,,,2,,,52,76
101280,note_on,,16,0,11,,,,,,,,,,,,,,,14,,,52,76
101280,note_on,,1,0,12,,,,,,,,,,,,,,,15,,,64,76
101280,note_on,,16,0,10,,,,,,,,,,,,,,,13,,,60,76
101280,note_on,,0,0,12,,,,,,,,,,,,,,,15,,,52,76
101280,note_on,,0,0,12,,,,,,,,,,,,,,,15,,,67,76
101280,note_on,,0,0,12,,,,,,,,,,,,,,,15,,,72,76
101280,note_on,,16,0,9,,,,,,,,,,,,,,,12,,,67,76
101504,note_on,,224,0,7,,,,,,,,,,,,,,,2,,,52,0
101504,note_on,,464,0,6,,,,,,,,,,,,,,,1,,,72,0
101504,note_on,,224,0,9,,,,,,,,,,,,,,,12,,,67,0
101504,note_on,,224,0,11,,,,,,,,,,,,,,,14,,,52,0
101504,note_on,,464,0,8,,,,,,,,,,,,,,,11,,,72,0
101504,note_on,,224,0,10,,,,,,,,,,,,,,,13,,,60,0
101504,note_on,,464,0,5,,,,,,,,,,,,,,,0,,,72,0
101519,note_on,,0,0,12,,,,,,,,,,,,,,,15,,,67,0
101519,note_on,,239,0,12,,,,,,,,,,,,,,,15,,,64,0
101519,note_on,,0,0,12,,,,,,,,,,,,,,,15,,,52,0
101519,note_on,,0,0,12,,,,,,,,,,,,,,,15,,,72,0
101520,note_on,,0,0,12,,,,,,,,,,,,,,,15,,,67,76
101520,note_on,,16,0,6,,,,,,,,,,,,,,,1,,,67,76
101520,note_on,,16,0,7,,,,,,,,,,,,,,,2,,,55,76
101520,note_on,,16,0,9,,,,,,,,,,,,,,,12,,,59,76
101520,note_on,,0,0,12,,,,,,,,,,,,,,,15,,,71,76
101520,note_on,,16,0,8,,,,,,,,,,,,,,,11,,,67,76
101520,note_on,,16,0,10,,,,,,,,,,,,,,,13,,,62,76
101520,note_on,,1,0,12,,,,,,,,,,,,,,,15,,,74,76
101520,note_on,,16,0,5,,,,,,,,,,,,,,,0,,,67,76
101520,note_on,,0,0,12,,,,,,,,,,,,,,,15,,,55,76
101520,note_on,,16,0,11,,,,,,,,,,,,,,,14,,,55,76
101744,note_on,,224,0,6,,,,,,,,,,,,,,,1,,,67,0
101744,note_on,,224,0,10,,,,,,,,,,,,,,,13,,,62,0
101744,note_on,,224,0,8,,,,,,,,,,,,,,,11,,,67,0
101744,note_on,,224,0,9,,,,,,,,,,,,,,,12,,,59,0
101744,note_on,,224,0,5,,,,,,,,,,,,,,,0,,,67,0
101744,note_on,,224,0,7,,,,,,,,,,,,,,,2,,,55,0
101744,note_on,,224,0,11,,,,,,,,,,,,,,,14,,,55,0
101759,note_on,,239,0,12,,,,,,,,,,,,,,,15,,,74,0
101759,note_on,,0,0,12,,,,,,,,,,,,,,,15,,,55,0
101759,note_on,,0,0,12,,,,,,,,,,,,,,,15,,,71,0
101759,note_on,,0,0,12,,,,,,,,,,,,,,,15,,,67,0
101760,note_on,,16,0,5,,,,,,,,,,,,,,,0,,,64,76
101760,note_on,,16,0,9,,,,,,,,,,,,,,,12,,,60,76
101760,note_on,,0,0,12,,,,,,,,,,,,,,,15,,,76,76
101760,note_on,,0,0,12,,,,,,,,,,,,,,,15,,,79,76
101760,note_on,,0,0,12,,,,,,,,,,,,,,,15,,,72,76
101760,note_on,,16,0,11,,,,,,,,,,,,,,,14,,,60,76
101760,note_on,,16,0,6,,,,,,,,,,,,,,,1,,,64,76
101760,note_on,,16,0,7,,,,,,,,,,,,,,,2,,,60,76
101760,note_on,,16,0,10,,,,,,,,,,,,,,,13,,,64,76
101760,note_on,,1,0,12,,,,,,,,,,,,,,,15,,,60,76
101760,note_on,,16,0,8,,,,,,,,,,,,,,,11,,,64,76
101864,note_on,,104,0,8,,,,,,,,,,,,,,,11,,,64,0
101864,note_on,,104,0,9,,,,,,,,,,,,,,,12,,,60,0
101864,note_on,,104,0,6,,,,,,,,,,,,,,,1,,,64,0
101864,note_on,,104,0,5,,,,,,,,,,,,,,,0,,,64,0
101880,note_on,,16,0,8,,,,,,,,,,,,,,,11,,,62,76
101880,note_on,,16,0,6,,,,,,,,,,,,,,,1,,,62,76
101880,note_on,,16,0,9,,,,,,,,,,,,,,,12,,,59,76
101880,note_on,,16,0,5,,,,,,,,,,,,,,,0,,,62,76
101984,note_on,,104,0,6,,,,,,,,,,,,,,,1,,,62,0
101984,note_on,,104,0,5,,,,,,,,,,,,,,,0,,,62,0
101984,note_on,,224,0,11,,,,,,,,,,,,,,,14,,,60,0
101984,note_on,,104,0,9,,,,,,,,,,,,,,,12,,,59,0
101984,note_on,,224,0,7,,,,,,,,,,,,,,,2,,,60,0
101984,note_on,,224,0,10,,,,,,,,,,,,,,,13,,,64,0
101984,note_on,,104,0,8,,,,,,,,,,,,,,,11,,,62,0
101999,note_on,,0,0,12,,,,,,,,,,,,,,,15,,,76,0
101999,note_on,,239,0,12,,,,,,,,,,,,,,,15,,,60,0
101999,note_on,,0,0,12,,,,,,,,,,,,,,,15,,,72,0
101999,note_on,,0,0,12,,,,,,,,,,,,,,,15,,,79,0
102000,note_on,,16,0,9,,,,,,,,,,,,,,,12,,,60,76
102000,note_on,,1,0,12,,,,,,,,,,,,,,,15,,,71,76
102000,note_on,,0,0,12,,,,,,,,,,,,,,,15,,,55,76
102000,note_on,,0,0,12,,,,,,,,,,,,,,,15,,,67,76
102000,note_on,,16,0,11,,,,,,,,,,,,,,,14,,,55,76
102000,note_on,,16,0,8,,,,,,,,,,,,,,,11,,,64,76
102000,note_on,,16,0,10,,,,,,,,,,,,,,,13,,,67,76
102000,note_on,,16,0,7,,,,,,,,,,,,,,,2,,,55,76
102000,note_on,,0,0,12,,,,,,,,,,,,,,,15,,,74,76
102000,note_on,,16,0,5,,,,,,,,,,,,,,,0,,,64,76
102000,note_on,,16,0,6,,,,,,,,,,,,,,,1,,,64,76
102104,note_on,,104,0,10,,,,,,,,,,,,,,,13,,,67,0
102104,note_on,,104,0,9,,,,,,,,,,,,,,,12,,,60,0
102104,note_on,,104,0,5,,,,,,,,,,,,,,,0,,,64,0
102104,note_on,,104,0,8,,,,,,,,,,,,,,,11,,,64,0
102104,note_on,,104,0,6,,,,,,,,,,,,,,,1,,,64,0
102120,note_on,,16,0,6,,,,,,,,,,,,,,,1,,,65,76
102120,note_on,,16,0,9,,,,,,,,,,,,,,,12,,,62,76
102120,note_on,,16,0,5,,,,,,,,,,,,,,,0,,,65,76
102120,note_on,,16,0,8,,,,,,,,,,,,,,,11,,,65,76
102120,note_on,,16,0,10,,,,,,,,,,,,,,,13,,,65,76
102224,note_on,,104,0,5,,,,,,,,,,,,,,,0,,,65,0
102224,note_on,,104,0,10,,,,,,,,,,,,,,,13,,,65,0
102224,note_on,,104,0,9,,,,,,,,,,,,,,,12,,,62,0
102224,note_on,,104,0,6,,,,,,,,,,,,,,,1,,,65,0
102224,note_on,,224,0,11,,,,,,,,,,,,,,,14,,,55,0
102224,note_on,,224,0,7,,,,,,,,,,,,,,,2,,,55,0
102224,note_on,,104,0,8,,,,,,,,,,,,,,,11,,,65,0
102239,note_on,,0,0,12,,,,,,,,,,,,,,,15,,,74,0
102239,note_on,,0,0,12,,,,,,,,,,,,,,,15,,,67,0
102239,note_on,,0,0,12,,,,,,,,,,,,,,,15,,,55,0
102239,note_on,,239,0,12,,,,,,,,,,,,,,,15,,,71,0
102240,note_on,,16,0,5,,,,,,,,,,,,,,,0,,,67,76
102240,note_on,,0,0,12,,,,,,,,,,,,,,,15,,,60,76
102240,note_on,,0,0,12,,,,,,,,,,,,,,,15,,,67,76
102240,note_on,,0,0,12,,,,,,,,,,,,,,,15,,,64,76
102240,note_on,,1,0,12,,,,,,,,,,,,,,,15,,,48,76
102240,note_on,,16,0,6,,,,,,,,,,,,,,,1,,,67,76
102240,note_on,,16,0,8,,,,,,,,,,,,,,,11,,,67,76
102240,note_on,,16,0,11,,,,,,,,,,,,,,,14,,,48,76
102240,note_on,,16,0,9,,,,,,,,,,,,,,,12,,,64,76
102240,note_on,,16,0,7,,,,,,,,,,,,,,,2,,,48,76
102240,note_on,,16,0,10,,,,,,,,,,,,,,,13,,,64,76
102464,note_on,,224,0,11,,,,,,,,,,,,,,,14,,,48,0
102464,note_on,,224,0,6,,,,,,,,,,,,,,,1,,,67,0
102464,note_on,,224,0,9,,,,,,,,,,,,,,,12,,,64,0
102464,note_on,,224,0,7,,,,,,,,,,,,,,,2,,,48,0
102464,note_on,,224,0,10,,,,,,,,,,,,,,,13,,,64,0
102464,note_on,,224,0,5,,,,,,,,,,,,,,,0,,,67,0
102464,note_on,,224,0,8,,,,,,,,,,,,,,,11,,,67,0
102479,note_on,,0,0,12,,,,,,,,,,,,,,,15,,,64,0
102479,note_on,,0,0,12,,,,,,,,,,,,,,,15,,,60,0
102479,note_on,,239,0,12,,,,,,,,,,,,,,,15,,,48,0
102479,note_on,,0,0,12,,,,,,,,,,,,,,,15,,,67,0
102480,note_on,,16,0,10,,,,,,,,,,,,,,,13,,,60,76
102480,note_on,,16,0,6,,,,,,,,,,,,,,,1,,,69,76
102480,note_on,,0,0,12,,,,,,,,,,,,,,,15,,,65,76
102480,note_on,,0,0,12,,,,,,,,,,,,,,,15,,,69,76
102480,note_on,,0,0,12,,,,,,,,,,,,,,,15,,,72,76
102480,note_on,,16,0,11,,,,,,,,,,,,,,,14,,,53,76
102480,note_on,,16,0,7,,,,,,,,,,,,,,,2,,,53,76
102480,note_on,,1,0,12,,,,,,,,,,,,,,,15,,,53,76
102480,note_on,,16,0,9,,,,,,,,,,,,,,,12,,,65,76
102480,note_on,,16,0,5,,,,,,,,,,,,,,,0,,,69,76
102480,note_on,,16,0,8,,,,,,,,,,,,,,,11,,,69,76
102584,note_on,,104,0,8,,,,,,,,,,,,,,,11,,,69,0
102584,note_on,,104,0,6,,,,,,,,,,,,,,,1,,,69,0
102584,note_on,,104,0,5,,,,,,,,,,,,,,,0,,,69,0
102600,note_on,,16,0,8,,,,,,,,,,,,,,,11,,,71,76
102600,note_on,,16,0,5,,,,,,,,,,,,,,,0,,,71,76
102600,note_on,,16,0,6,,,,,,,,,,,,,,,1,,,71,76
102704,note_on,,104,0,5,,,,,,,,,,,,,,,0,,,71,0
102704,note_on,,104,0,6,,,,,,,,,,,,,,,1,,,71,0
102704,note_on,,224,0,9,,,,,,,,,,,,,,,12,,,65,0
102704,note_on,,224,0,7,,,,,,,,,,,,,,,2,,,53,0
102704,note_on,,224,0,10,,,,,,,,,,,,,,,13,,,60,0
102704,note_on,,104,0,8,,,,,,,,,,,,,,,11,,,71,0
102704,note_on,,224,0,11,,,,,,,,,,,,,,,14,,,53,0
102719,note_on,,239,0,12,,,,,,,,,,,,,,,15,,,53,0
102719,note_on,,0,0,12,,,,,,,,,,,,,,,15,,,65,0
102719,note_on,,0,0,12,,,,,,,,,,,,,,,15,,,69,0
102719,note_on,,0,0,12,,,,,,,,,,,,,,,15,,,72,0
102720,note_on,,16,0,9,,,,,,,,,,,,,,,12,,,67,76
102720,note_on,,16,0,5,,,,,,,,,,,,,,,0,,,72,76
102720,note_on,,16,0,8,,,,,,,,,,,,,,,11,,,72,76
102720,note_on,,1,0,12,,,,,,,,,,,,,,,15,,,64,76
102720,note_on,,0,0,12,,,,,,,,,,,,,,,15,,,67,76
102720,note_on,,16,0,6,,,,,,,,,,,,,,,1,,,72,76
102720,note_on,,0,0,12,,,,,,,,,,,,,,,15,,,72,76
102720,note_on,,16,0,10,,,,,,,,,,,,,,,13,,,60,76
102720,note_on,,16,0,7,,,,,,,,,,,,,,,2,,,52,76
102720,note_on,,16,0,11,,,,,,,,,,,,,,,14,,,52,76
102720,note_on,,0,0,12,,,,,,,,,,,,,,,15,,,52,76
102824,note_on,,104,0,6,,,,,,,,,,,,,,,1,,,72,0
102824,note_on,,104,0,8,,,,,,,,,,,,,,,11,,,72,0
102824,note_on,,104,0,5,,,,,,,,,,,,,,,0,,,72,0
102840,note_on,,16,0,5,,,,,,,,,,,,,,,0,,,74,76
102840,note_on,,16,0,6,,,,,,,,,,,,,,,1,,,74,76
102840,note_on,,16,0,8,,,,,,,,,,,,,,,11,,,74,76
102944,note_on,,104,0,5,,,,,,,,,,,,,,,0,,,74,0
102944,note_on,,224,0,11,,,,,,,,,,,,,,,14,,,52,0
102944,note_on,,224,0,9,,,,,,,,,,,,,,,12,,,67,0
102944,note_on,,104,0,8,,,,,,,,,,,,,,,11,,,74,0
102944,note_on,,104,0,6,,,,,,,,,,,,,,,1,,,74,0
102944,note_on,,224,0,10,,,,,,,,,,,,,,,13,,,60,0
102944,note_on,,224,0,7,,,,,,,,,,,,,,,2,,,52,0
102959,note_on,,0,0,12,,,,,,,,,,,,,,,15,,,72,0
102959,note_on,,239,0,12,,,,,,,,,,,,,,,15,,,64,0
102959,note_on,,0,0,12,,,,,,,,,,,,,,,15,,,52,0
102959,note_on,,0,0,12,,,,,,,,,,,,,,,15,,,67,0
102960,note_on,,16,0,7,,,,,,,,,,,,,,,2,,,50,76
102960,note_on,,16,0,10,,,,,,,,,,,,,,,13,,,65,76
102960,note_on,,16,0,9,,,,,,,,,,,,,,,12,,,71,76
102960,note_on,,16,0,5,,,,,,,,,,,,,,,0,,,76,76
102960,note_on,,16,0,8,,,,,,,,,,,,,,,11,,,76,76
102960,note_on,,0,0,12,,,,,,,,,,,,,,,15,,,65,76
102960,note_on,,0,0,12,,,,,,,,,,,,,,,15,,,50,76
102960,note_on,,0,0,12,,,,,,,,,,,,,,,15,,,69,76
102960,note_on,,16,0,11,,,,,,,,,,,,,,,14,,,50,76
102960,note_on,,16,0,6,,,,,,,,,,,,,,,1,,,76,76
102960,note_on,,1,0,12,,,,,,,,,,,,,,,15,,,62,76
103064,note_on,,104,0,8,,,,,,,,,,,,,,,11,,,76,0
103064,note_on,,104,0,6,,,,,,,,,,,,,,,1,,,76,0
103064,note_on,,104,0,5,,,,,,,,,,,,,,,0,,,76,0
103080,note_on,,16,0,6,,,,,,,,,,,,,,,1,,,77,76
103080,note_on,,16,0,5,,,,,,,,,,,,,,,0,,,77,76
103080,note_on,,16,0,8,,,,,,,,,,,,,,,11,,,77,76
103184,note_on,,104,0,8,,,,,,,,,,,,,,,11,,,77,0
103184,note_on,,224,0,10,,,,,,,,,,,,,,,13,,,65,0
103184,note_on,,104,0,5,,,,,,,,,,,,,,,0,,,77,0
103184,note_on,,104,0,6,,,,,,,,,,,,,,,1,,,77,0
103184,note_on,,224,0,9,,,,,,,,,,,,,,,12,,,71,0
103184,note_on,,224,0,7,,,,,,,,,,,,,,,2,,,50,0
103184,note_on,,224,0,11,,,,,,,,,,,,,,,14,,,50,0
103199,note_on,,0,0,12,,,,,,,,,,,,,,,15,,,69,0
103199,note_on,,239,0,12,,,,,,,,,,,,,,,15,,,62,0
103199,note_on,,0,0,12,,,,,,,,,,,,,,,15,,,65,0
103199,note_on,,0,0,12,,,,,,,,,,,,,,,15,,,50,0
103200,note_on,,16,0,8,,,,,,,,,,,,,,,11,,,79,76
103200,note_on,,16,0,10,,,,,,,,,,,,,,,13,,,64,76
103200,note_on,,0,0,12,,,,,,,,,,,,,,,15,,,64,76
103200,note_on,,16,0,5,,,,,,,,,,,,,,,0,,,79,76
103200,note_on,,0,0,12,,,,,,,,,,,,,,,15,,,52,76
103200,note_on,,16,0,6,,,,,,,,,,,,,,,1,,,79,76
103200,note_on,,0,0,12,,,,,,,,,,,,,,,15,,,72,76
103200,note_on,,16,0,7,,,,,,,,,,,,,,,2,,,52,76
103200,note_on,,16,0,9,,,,,,,,,,,,,,,12,,,72,76
103200,note_on,,16,0,11,,,,,,,,,,,,,,,14,,,52,76
103200,note_on,,1,0,12,,,,,,,,,,,,,,,15,,,67,76
103424,note_on,,224,0,9,,,,,,,,,,,,,,,12,,,72,0
103424,note_on,,224,0,10,,,,,,,,,,,,,,,13,,,64,0
103424,note_on,,224,0,6,,,,,,,,,,,,,,,1,,,79,0
103424,note_on,,224,0,8,,,,,,,,,,,,,,,11,,,79,0
103424,note_on,,224,0,5,,,,,,,,,,,,,,,0,,,79,0
103424,note_on,,224,0,7,,,,,,,,,,,,,,,2,,,52,0
103424,note_on,,224,0,11,,,,,,,,,,,,,,,14,,,52,0
103439,note_on,,0,0,12,,,,,,,,,,,,,,,15,,,64,0
103439,note_on,,239,0,12,,,,,,,,,,,,,,,15,,,67,0
103439,note_on,,0,0,12,,,,,,,,,,,,,,,15,,,72,0
103439,note_on,,0,0,12,,,,,,,,,,,,,,,15,,,52,0
103440,note_on,,0,0,12,,,,,,,,,,,,,,,15,,,69,76
103440,note_on,,16,0,9,,,,,,,,,,,,,,,12,,,72,76
103440,note_on,,16,0,7,,,,,,,,,,,,,,,2,,,53,76
103440,note_on,,1,0,12,,,,,,,,,,,,,,,15,,,53,76
103440,note_on,,0,0,12,,,,,,,,,,,,,,,15,,,72,76
103440,note_on,,16,0,5,,,,,,,,,,,,,,,0,,,81,76
103440,note_on,,16,0,6,,,,,,,,,,,,,,,1,,,81,76
103440,note_on,,16,0,8,,,,,,,,,,,,,,,11,,,81,76
103440,note_on,,16,0,11,,,,,,,,,,,,,,,14,,,53,76
103440,note_on,,0,0,12,,,,,,,,,,,,,,,15,,,65,76
103440,note_on,,16,0,10,,,,,,,,,,,,,,,13,,,60,76
103664,note_on,,224,0,11,,,,,,,,,,,,,,,14,,,53,0
103664,note_on,,224,0,10,,,,,,,,,,,,,,,13,,,60,0
103664,note_on,,224,0,8,,,,,,,,,,,,,,,11,,,81,0
103664,note_on,,224,0,5,,,,,,,,,,,,,,,0,,,81,0
103664,note_on,,224,0,7,,,,,,,,,,,,,,,2,,,53,0
103664,note_on,,224,0,9,,,,,,,,,,,,,,,12,,,72,0
103664,note_on,,224,0,6,,,,,,,,,,,,,,,1,,,81,0
103679,note_on,,0,0,12,,,,,,,,,,,,,,,15,,,65,0
103679,note_on,,0,0,12,,,,,,,,,,,,,,,15,,,69,0
103679,note_on,,0,0,12,,,,,,,,,,,,,,,15,,,72,0
103679,note_on,,239,0,12,,,,,,,,,,,,,,,15,,,53,0
103680,note_on,,0,0,12,,,,,,,,,,,,,,,15,,,74,76
103680,note_on,,0,0,12,,,,,,,,,,,,,,,15,,,55,76
103680,note_on,,0,0,12,,,,,,,,,,,,,,,15,,,67,76
103680,note_on,,1,0,12,,,,,,,,,,,,,,,15,,,71,76
103680,note_on,,16,0,8,,,,,,,,,,,,,,,11,,,74,76
103680,note_on,,16,0,7,,,,,,,,,,,,,,,2,,,55,76
103680,note_on,,16,0,10,,,,,,,,,,,,,,,13,,,67,76
103680,note_on,,16,0,6,,,,,,,,,,,,,,,1,,,74,76
103680,note_on,,16,0,11,,,,,,,,,,,,,,,14,,,55,76
103680,note_on,,16,0,9,,,,,,,,,,,,,,,12,,,71,76
103680,note_on,,16,0,5,,,,,,,,,,,,,,,0,,,74,76
103784,note_on,,104,0,6,,,,,,,,,,,,,,,1,,,74,0
103784,note_on,,104,0,8,,,,,,,,,,,,,,,11,,,74,0
103784,note_on,,104,0,5,,,,,,,,,,,,,,,0,,,74,0
103800,note_on,,16,0,5,,,,,,,,,,,,,,,0,,,72,76
103800,note_on,,16,0,8,,,,,,,,,,,,,,,11,,,72,76
103800,note_on,,16,0,6,,,,,,,,,,,,,,,1,,,72,76
103904,note_on,,224,0,11,,,,,,,,,,,,,,,14,,,55,0
103904,note_on,,224,0,10,,,,,,,,,,,,,,,13,,,67,0
103904,note_on,,224,0,7,,,,,,,,,,,,,,,2,,,55,0
103904,note_on,,104,0,5,,,,,,,,,,,,,,,0,,,72,0
103904,note_on,,104,0,6,,,,,,,,,,,,,,,1,,,72,0
103904,note_on,,104,0,8,,,,,,,,,,,,,,,11,,,72,0
103904,note_on,,224,0,9,,,,,,,,,,,,,,,12,,,71,0
103919,note_on,,0,0,12,,,,,,,,,,,,,,,15,,,55,0
103919,note_on,,0,0,12,,,,,,,,,,,,,,,15,,,74,0
103919,note_on,,239,0,12,,,,,,,,,,,,,,,15,,,71,0
103919,note_on,,0,0,12,,,,,,,,,,,,,,,15,,,67,0
103920,note_on,,16,0,7,,,,,,,,,,,,,,,2,,,57,76
103920,note_on,,16,0,10,,,,,,,,,,,,,,,13,,,66,76
103920,note_on,,0,0,12,,,,,,,,,,,,,,,15,,,57,76
103920,note_on,,16,0,11,,,,,,,,,,,,,,,14,,,57,76
103920,note_on,,0,0,12,,,,,,,,,,,,,,,15,,,72,76
103920,note_on,,16,0,9,,,,,,,,,,,,,,,12,,,72,76
103920,note_on,,16,0,8,,,,,,,,,,,,,,,11,,,74,76
103920,note_on,,0,0,12,,,,,,,,,,,,,,,15,,,69,76
103920,note_on,,16,0,5,,,,,,,,,,,,,,,0,,,74,76
103920,note_on,,1,0,12,,,,,,,,,,,,,,,15,,,76,76
103920,note_on,,16,0,6,,,,,,,,,,,,,,,1,,,74,76
104024,note_on,,104,0,8,,,,,,,,,,,,,,,11,,,74,0
104024,note_on,,104,0,5,,,,,,,,,,,,,,,0,,,74,0
104024,note_on,,104,0,6,,,,,,,,,,,,,,,1,,,74,0
104040,note_on,,16,0,8,,,,,,,,,,,,,,,11,,,76,76
104040,note_on,,16,0,5,,,,,,,,,,,,,,,0,,,76,76
104040,note_on,,16,0,6,,,,,,,,,,,,,,,1,,,76,76
104144,note_on,,104,0,8,,,,,,,,,,,,,,,11,,,76,0
104144,note_on,,224,0,9,,,,,,,,,,,,,,,12,,,72,0
104144,note_on,,104,0,5,,,,,,,,,,,,,,,0,,,76,0
104144,note_on,,224,0,7,,,,,,,,,,,,,,,2,,,57,0
104144,note_on,,104,0,6,,,,,,,,,,,,,,,1,,,76,0
104144,note_on,,224,0,10,,,,,,,,,,,,,,,13,,,66,0
104144,note_on,,224,0,11,,,,,,,,,,,,,,,14,,,57,0
104159,note_on,,0,0,12,,,,,,,,,,,,,,,15,,,57,0
104159,note_on,,0,0,12,,,,,,,,,,,,,,,15,,,69,0
104159,note_on,,0,0,12,,,,,,,,,,,,,,,15,,,72,0
104159,note_on,,239,0,12,,,,,,,,,,,,,,,15,,,76,0
104160,note_on,,16,0,8,,,,,,,,,,,,,,,11,,,74,76
104160,note_on,,16,0,11,,,,,,,,,,,,,,,14,,,59,76
104160,note_on,,16,0,7,,,,,,,,,,,,,,,2,,,59,76
104160,note_on,,0,0,12,,,,,,,,,,,,,,,15,,,79,76
104160,note_on,,16,0,10,,,,,,,,,,,,,,,13,,,67,76
104160,note_on,,16,0,6,,,,,,,,,,,,,,,1,,,74,76
104160,note_on,,16,0,9,,,,,,,,,,,,,,,12,,,74,76
104160,note_on,,16,0,5,,,,,,,,,,,,,,,0,,,74,76
104160,note_on,,0,0,12,,,,,,,,,,,,,,,15,,,74,76
104160,note_on,,0,0,12,,,,,,,,,,,,,,,15,,,59,76
104160,note_on,,1,0,12,,,,,,,,,,,,,,,15,,,71,76
104384,note_on,,224,0,11,,,,,,,,,,,,,,,14,,,59,0
104384,note_on,,224,0,6,,,,,,,,,,,,,,,1,,,74,0
104384,note_on,,224,0,7,,,,,,,,,,,,,,,2,,,59,0
104384,note_on,,224,0,9,,,,,,,,,,,,,,,12,,,74,0
104384,note_on,,224,0,8,,,,,,,,,,,,,,,11,,,74,0
104384,note_on,,224,0,5,,,,,,,,,,,,,,,0,,,74,0
104384,note_on,,224,0,10,,,,,,,,,,,,,,,13,,,67,0
104399,note_on,,239,0,12,,,,,,,,,,,,,,,15,,,71,0
104399,note_on,,0,0,12,,,,,,,,,,,,,,,15,,,59,0
104399,note_on,,0,0,12,,,,,,,,,,,,,,,15,,,79,0
104399,note_on,,0,0,12,,,,,,,,,,,,,,,15,,,74,0
104400,note_on,,16,0,9,,,,,,,,,,,,,,,12,,,72,76
104400,note_on,,16,0,5,,,,,,,,,,,,,,,0,,,76,76
104400,note_on,,16,0,6,,,,,,,,,,,,,,,1,,,76,76
104400,note_on,,16,0,11,,,,,,,,,,,,,,,14,,,60,76
104400,note_on,,16,0,8,,,,,,,,,,,,,,,11,,,76,76
104400,note_on,,0,0,12,,,,,,,,,,,,,,,15,,,76,76
104400,note_on,,0,0,12,,,,,,,,,,,,,,,15,,,60,76
104400,note_on,,1,0,12,,,,,,,,,,,,,,,15,,,72,76
104400,note_on,,16,0,10,,,,,,,,,,,,,,,13,,,67,76
104400,note_on,,0,0,12,,,,,,,,,,,,,,,15,,,79,76
104400,note_on,,16,0,7,,,,,,,,,,,,,,,2,,,60,76
104504,note_on,,104,0,6,,,,,,,,,,,,,,,1,,,76,0
104504,note_on,,104,0,8,,,,,,,,,,,,,,,11,,,76,0
104504,note_on,,104,0,5,,,,,,,,,,,,,,,0,,,76,0
104504,note_on,,104,0,10,,,,,,,,,,,,,,,13,,,67,0
104520,note_on,,16,0,8,,,,,,,,,,,,,,,11,,,78,76
104520,note_on,,16,0,10,,,,,,,,,,,,,,,13,,,69,76
104520,note_on,,16,0,5,,,,,,,,,,,,,,,0,,,78,76
104520,note_on,,16,0,6,,,,,,,,,,,,,,,1,,,78,76
104624,note_on,,104,0,6,,,,,,,,,,,,,,,1,,,78,0
104624,note_on,,224,0,11,,,,,,,,,,,,,,,14,,,60,0
104624,note_on,,104,0,10,,,,,,,,,,,,,,,13,,,69,0
104624,note_on,,224,0,9,,,,,,,,,,,,,,,12,,,72,0
104624,note_on,,104,0,8,,,,,,,,,,,,,,,11,,,78,0
104624,note_on,,224,0,7,,,,,,,,,,,,,,,2,,,60,0
104624,note_on,,104,0,5,,,,,,,,,,,,,,,0,,,78,0
104639,note_on,,0,0,12,,,,,,,,,,,,,,,15,,,60,0
104639,note_on,,0,0,12,,,,,,,,,,,,,,,15,,,76,0
104639,note_on,,239,0,12,,,,,,,,,,,,,,,15,,,72,0
104639,note_on,,0,0,12,,,,,,,,,,,,,,,15,,,79,0
104640,note_on,,16,0,11,,,,,,,,,,,,,,,14,,,59,76
104640,note_on,,16,0,5,,,,,,,,,,,,,,,0,,,79,76
104640,note_on,,1,0,12,,,,,,,,,,,,,,,15,,,74,76
104640,note_on,,0,0,12,,,,,,,,,,,,,,,15,,,79,76
104640,note_on,,0,0,12,,,,,,,,,,,,,,,15,,,59,76
104640,note_on,,0,0,12,,,,,,,,,,,,,,,15,,,71,76
104640,note_on,,16,0,6,,,,,,,,,,,,,,,1,,,79,76
104640,note_on,,16,0,10,,,,,,,,,,,,,,,13,,,71,76
104640,note_on,,16,0,7,,,,,,,,,,,,,,,2,,,59,76
104640,note_on,,16,0,9,,,,,,,,,,,,,,,12,,,74,76
104640,note_on,,16,0,8,,,,,,,,,,,,,,,11,,,79,76
104864,note_on,,224,0,8,,,,,,,,,,,,,,,11,,,79,0
104864,note_on,,224,0,6,,,,,,,,,,,,,,,1,,,79,0
104864,note_on,,224,0,7,,,,,,,,,,,,,,,2,,,59,0
104864,note_on,,224,0,11,,,,,,,,,,,,,,,14,,,59,0
104864,note_on,,224,0,5,,,,,,,,,,,,,,,0,,,79,0
104879,note_on,,239,0,10,,,,,,,,,,,,,,,13,,,71,0
104879,note_on,,0,0,12,,,,,,,,,,,,,,,15,,,59,0
104879,note_on,,0,0,12,,,,,,,,,,,,,,,15,,,79,0
104879,note_on,,239,0,12,,,,,,,,,,,,,,,15,,,74,0
104879,note_on,,239,0,9,,,,,,,,,,,,,,,12,,,74,0
104879,note_on,,0,0,12,,,,,,,,,,,,,,,15,,,71,0
104880,note_on,,16,0,5,,,,,,,,,,,,,,,0,,,71,76
104880,note_on,,16,0,11,,,,,,,,,,,,,,,14,,,57,76
104880,note_on,,0,0,12,,,,,,,,,,,,,,,15,,,69,76
104880,note_on,,16,0,7,,,,,,,,,,,,,,,2,,,57,76
104880,note_on,,16,0,8,,,,,,,,,,,,,,,11,,,71,76
104880,note_on,,1,0,12,,,,,,,,,,,,,,,15,,,57,76
104880,note_on,,0,0,12,,,,,,,,,,,,,,,15,,,72,76
104880,note_on,,0,0,12,,,,,,,,,,,,,,,15,,,76,76
104880,note_on,,16,0,6,,,,,,,,,,,,,,,1,,,71,76
104984,note_on,,104,0,5,,,,,,,,,,,,,,,0,,,71,0
104984,note_on,,104,0,8,,,,,,,,,,,,,,,11,,,71,0
104984,note_on,,104,0,6,,,,,,,,,,,,,,,1,,,71,0
105000,note_on,,16,0,5,,,,,,,,,,,,,,,0,,,72,76
105000,note_on,,16,0,6,,,,,,,,,,,,,,,1,,,72,76
105000,note_on,,16,0,8,,,,,,,,,,,,,,,11,,,72,76
105104,note_on,,104,0,8,,,,,,,,,,,,,,,11,,,72,0
105104,note_on,,224,0,11,,,,,,,,,,,,,,,14,,,57,0
105104,note_on,,224,0,7,,,,,,,,,,,,,,,2,,,57,0
105104,note_on,,104,0,6,,,,,,,,,,,,,,,1,,,72,0
105104,note_on,,104,0,5,,,,,,,,,,,,,,,0,,,72,0
105119,note_on,,0,0,12,,,,,,,,,,,,,,,15,,,76,0
105119,note_on,,0,0,12,,,,,,,,,,,,,,,15,,,72,0
105119,note_on,,0,0,12,,,,,,,,,,,,,,,15,,,69,0
105119,note_on,,239,0,12,,,,,,,,,,,,,,,15,,,57,0
105120,note_on,,1,0,12,,,,,,,,,,,,,,,15,,,67,76
105120,note_on,,16,0,8,,,,,,,,,,,,,,,11,,,74,76
105120,note_on,,16,0,7,,,,,,,,,,,,,,,2,,,55,76
105120,note_on,,16,0,5,,,,,,,,,,,,,,,0,,,74,76
105120,note_on,,0,0,12,,,,,,,,,,,,,,,15,,,74,76
105120,note_on,,0,0,12,,,,,,,,,,,,,,,15,,,55,76
105120,note_on,,0,0,12,,,,,,,,,,,,,,,15,,,71,76
105120,note_on,,16,0,6,,,,,,,,,,,,,,,1,,,74,76
105120,note_on,,16,0,11,,,,,,,,,,,,,,,14,,,55,76
105344,note_on,,224,0,11,,,,,,,,,,,,,,,14,,,55,0
105344,note_on,,224,0,8,,,,,,,,,,,,,,,11,,,74,0
105344,note_on,,224,0,5,,,,,,,,,,,,,,,0,,,74,0
105344,note_on,,224,0,7,,,,,,,,,,,,,,,2,,,55,0
105344,note_on,,224,0,6,,,,,,,,,,,,,,,1,,,74,0
105359,note_on,,0,0,12,,,,,,,,,,,,,,,15,,,55,0
105359,note_on,,0,0,12,,,,,,,,,,,,,,,15,,,74,0
105359,note_on,,0,0,12,,,,,,,,,,,,,,,15,,,71,0
105359,note_on,,239,0,12,,,,,,,,,,,,,,,15,,,67,0
105360,note_on,,481,0,10,,,,,,,,,,,,,,,13,,,59,76
105360,note_on,,16,0,11,,,,,,,,,,,,,,,14,,,54,76
105360,note_on,,16,0,8,,,,,,,,,,,,,,,11,,,76,76
105360,note_on,,481,0,9,,,,,,,,,,,,,,,12,,,67,76
105360,note_on,,16,0,5,,,,,,,,,,,,,,,0,,,76,76
105360,note_on,,1,0,12,,,,,,,,,,,,,,,15,,,72,76
105360,note_on,,0,0,12,,,,,,,,,,,,,,,15,,,66,76
105360,note_on,,0,0,12,,,,,,,,,,,,,,,15,,,54,76
105360,note_on,,0,0,12,,,,,,,,,,,,,,,15,,,69,76
105360,note_on,,16,0,6,,,,,,,,,,,,,,,1,,,76,76
105360,note_on,,16,0,7,,,,,,,,,,,,,,,2,,,54,76
105464,note_on,,104,0,9,,,,,,,,,,,,,,,12,,,67,0
105464,note_on,,104,0,8,,,,,,,,,,,,,,,11,,,76,0
105464,note_on,,104,0,6,,,,,,,,,,,,,,,1,,,76,0
105464,note_on,,104,0,5,,,,,,,,,,,,,,,0,,,76,0
105480,note_on,,16,0,9,,,,,,,,,,,,,,,12,,,69,76
105480,note_on,,16,0,6,,,,,,,,,,,,,,,1,,,78,76
105480,note_on,,16,0,5,,,,,,,,,,,,,,,0,,,78,76
105480,note_on,,16,0,8,,,,,,,,,,,,,,,11,,,78,76
105584,note_on,,104,0,5,,,,,,,,,,,,,,,0,,,78,0
105584,note_on,,104,0,6,,,,,,,,,,,,,,,1,,,78,0
105584,note_on,,224,0,10,,,,,,,,,,,,,,,13,,,59,0
105584,note_on,,224,0,7,,,,,,,,,,,,,,,2,,,54,0
105584,note_on,,224,0,11,,,,,,,,,,,,,,,14,,,54,0
105584,note_on,,104,0,8,,,,,,,,,,,,,,,11,,,78,0
105584,note_on,,104,0,9,,,,,,,,,,,,,,,12,,,69,0
105599,note_on,,0,0,12,,,,,,,,,,,,,,,15,,,69,0
105599,note_on,,0,0,12,,,,,,,,,,,,,,,15,,,54,0
105599,note_on,,0,0,12,,,,,,,,,,,,,,,15,,,66,0
105599,note_on,,239,0,12,,,,,,,,,,,,,,,15,,,72,0
105600,note_on,,16,0,8,,,,,,,,,,,,,,,11,,,79,76
105600,note_on,,16,0,9,,,,,,,,,,,,,,,12,,,71,76
105600,note_on,,16,0,11,,,,,,,,,,,,,,,14,,,52,76
105600,note_on,,1,0,12,,,,,,,,,,,,,,,15,,,67,76
105600,note_on,,16,0,7,,,,,,,,,,,,,,,2,,,52,76
105600,note_on,,16,0,6,,,,,,,,,,,,,,,1,,,79,76
105600,note_on,,0,0,12,,,,,,,,,,,,,,,15,,,52,76
105600,note_on,,0,0,12,,,,,,,,,,,,,,,15,,,64,76
105600,note_on,,0,0,12,,,,,,,,,,,,,,,15,,,71,76
105600,note_on,,16,0,10,,,,,,,,,,,,,,,13,,,64,76
105600,note_on,,16,0,5,,,,,,,,,,,,,,,0,,,79,76
105824,note_on,,224,0,6,,,,,,,,,,,,,,,1,,,79,0
105824,note_on,,224,0,5,,,,,,,,,,,,,,,0,,,79,0
105824,note_on,,224,0,8,,,,,,,,,,,,,,,11,,,79,0
105824,note_on,,224,0,7,,,,,,,,,,,,,,,2,,,52,0
105824,note_on,,224,0,11,,,,,,,,,,,,,,,14,,,52,0
105839,note_on,,239,0,10,,,,,,,,,,,,,,,13,,,64,0
105839,note_on,,0,0,12,,,,,,,,,,,,,,,15,,,71,0
105839,note_on,,0,0,12,,,,,,,,,,,,,,,15,,,64,0
105839,note_on,,0,0,12,,,,,,,,,,,,,,,15,,,52,0
105839,note_on,,239,0,12,,,,,,,,,,,,,,,15,,,67,0
105839,note_on,,239,0,9,,,,,,,,,,,,,,,12,,,71,0
105840,note_on,,16,0,5,,,,,,,,,,,,,,,0,,,69,76
105840,note_on,,16,0,6,,,,,,,,,,,,,,,1,,,69,76
105840,note_on,,16,0,11,,,,,,,,,,,,,,,14,,,50,76
105840,note_on,,0,0,12,,,,,,,,,,,,,,,15,,,50,76
105840,note_on,,0,0,12,,,,,,,,,,,,,,,15,,,69,76
105840,note_on,,16,0,7,,,,,,,,,,,,,,,2,,,50,76
105840,note_on,,16,0,8,,,,,,,,,,,,,,,11,,,69,76
105840,note_on,,0,0,12,,,,,,,,,,,,,,,15,,,62,76
105840,note_on,,1,0,12,,,,,,,,,,,,,,,15,,,65,76
105944,note_on,,104,0,8,,,,,,,,,,,,,,,11,,,69,0
105944,note_on,,104,0,6,,,,,,,,,,,,,,,1,,,69,0
105944,note_on,,104,0,5,,,,,,,,,,,,,,,0,,,69,0
105960,note_on,,16,0,6,,,,,,,,,,,,,,,1,,,71,76
105960,note_on,,16,0,5,,,,,,,,,,,,,,,0,,,71,76
105960,note_on,,16,0,8,,,,,,,,,,,,,,,11,,,71,76
106064,note_on,,104,0,5,,,,,,,,,,,,,,,0,,,71,0
106064,note_on,,224,0,11,,,,,,,,,,,,,,,14,,,50,0
106064,note_on,,104,0,8,,,,,,,,,,,,,,,11,,,71,0
106064,note_on,,104,0,6,,,,,,,,,,,,,,,1,,,71,0
106064,note_on,,224,0,7,,,,,,,,,,,,,,,2,,,50,0
106079,note_on,,0,0,12,,,,,,,,,,,,,,,15,,,62,0
106079,note_on,,239,0,12,,,,,,,,,,,,,,,15,,,65,0
106079,note_on,,0,0,12,,,,,,,,,,,,,,,15,,,69,0
106079,note_on,,0,0,12,,,,,,,,,,,,,,,15,,,50,0
106080,note_on,,16,0,8,,,,,,,,,,,,,,,11,,,72,76
106080,note_on,,0,0,12,,,,,,,,,,,,,,,15,,,64,76
106080,note_on,,0,0,12,,,,,,,,,,,,,,,15,,,67,76
106080,note_on,,0,0,12,,,,,,,,,,,,,,,15,,,71,76
106080,note_on,,1,0,12,,,,,,,,,,,,,,,15,,,52,76
106080,note_on,,16,0,6,,,,,,,,,,,,,,,1,,,72,76
106080,note_on,,16,0,11,,,,,,,,,,,,,,,14,,,52,76
106080,note_on,,16,0,5,,,,,,,,,,,,,,,0,,,72,76
106080,note_on,,16,0,7,,,,,,,,,,,,,,,2,,,52,76
106304,note_on,,224,0,5,,,,,,,,,,,,,,,0,,,72,0
106304,note_on,,224,0,6,,,,,,,,,,,,,,,1,,,72,0
106304,note_on,,224,0,11,,,,,,,,,,,,,,,14,,,52,0
106304,note_on,,224,0,7,,,,,,,,,,,,,,,2,,,52,0
106304,note_on,,224,0,8,,,,,,,,,,,,,,,11,,,72,0
106319,note_on,,0,0,12,,,,,,,,,,,,,,,15,,,67,0
106319,note_on,,0,0,12,,,,,,,,,,,,,,,15,,,71,0
106319,note_on,,0,0,12,,,,,,,,,,,,,,,15,,,64,0
106319,note_on,,239,0,12,,,,,,,,,,,,,,,15,,,52,0
106320,note_on,,0,0,12,,,,,,,,,,,,,,,15,,,69,76
106320,note_on,,1,0,12,,,,,,,,,,,,,,,15,,,66,76
106320,note_on,,0,0,12,,,,,,,,,,,,,,,15,,,74,76
106320,note_on,,0,0,12,,,,,,,,,,,,,,,15,,,54,76
106320,note_on,,16,0,8,,,,,,,,,,,,,,,11,,,74,76
106320,note_on,,481,0,9,,,,,,,,,,,,,,,12,,,69,76
106320,note_on,,481,0,10,,,,,,,,,,,,,,,13,,,57,76
106320,note_on,,16,0,5,,,,,,,,,,,,,,,0,,,74,76
106320,note_on,,16,0,11,,,,,,,,,,,,,,,14,,,54,76
106320,note_on,,16,0,6,,,,,,,,,,,,,,,1,,,74,76
106320,note_on,,16,0,7,,,,,,,,,,,,,,,2,,,54,76
106544,note_on,,224,0,9,,,,,,,,,,,,,,,12,,,69,0
106544,note_on,,224,0,10,,,,,,,,,,,,,,,13,,,57,0
106544,note_on,,224,0,7,,,,,,,,,,,,,,,2,,,54,0
106544,note_on,,224,0,11,,,,,,,,,,,,,,,14,,,54,0
106544,note_on,,224,0,5,,,,,,,,,,,,,,,0,,,74,0
106544,note_on,,224,0,6,,,,,,,,,,,,,,,1,,,74,0
106544,note_on,,224,0,8,,,,,,,,,,,,,,,11,,,74,0
106559,note_on,,0,0,12,,,,,,,,,,,,,,,15,,,69,0
106559,note_on,,0,0,12,,,,,,,,,,,,,,,15,,,54,0
106559,note_on,,0,0,12,,,,,,,,,,,,,,,15,,,74,0
106559,note_on,,239,0,12,,,,,,,,,,,,,,,15,,,66,0
106560,note_on,,16,0,11,,,,,,,,,,,,,,,14,,,55,76
106560,note_on,,16,0,7,,,,,,,,,,,,,,,2,,,55,76
106560,note_on,,16,0,5,,,,,,,,,,,,,,,0,,,71,76
106560,note_on,,16,0,10,,,,,,,,,,,,,,,13,,,62,76
106560,note_on,,1,0,12,,,,,,,,,,,,,,,15,,,71,76
106560,note_on,,16,0,9,,,,,,,,,,,,,,,12,,,67,76
106560,note_on,,0,0,12,,,,,,,,,,,,,,,15,,,74,76
106560,note_on,,0,0,12,,,,,,,,,,,,,,,15,,,67,76
106560,note_on,,16,0,8,,,,,,,,,,,,,,,11,,,71,76
106560,note_on,,16,0,6,,,,,,,,,,,,,,,1,,,71,76
106560,note_on,,0,0,12,,,,,,,,,,,,,,,15,,,55,76
106784,note_on,,224,0,10,,,,,,,,,,,,,,,13,,,62,0
106784,note_on,,224,0,7,,,,,,,,,,,,,,,2,,,55,0
106784,note_on,,224,0,11,,,,,,,,,,,,,,,14,,,55,0
106784,note_on,,224,0,9,,,,,,,,,,,,,,,12,,,67,0
106799,note_on,,0,0,12,,,,,,,,,,,,,,,15,,,55,0
106799,note_on,,239,0,12,,,,,,,,,,,,,,,15,,,71,0
106799,note_on,,0,0,12,,,,,,,,,,,,,,,15,,,67,0
106799,note_on,,0,0,12,,,,,,,,,,,,,,,15,,,74,0
106800,note_on,,0,0,12,,,,,,,,,,,,,,,15,,,67,76
106800,note_on,,16,0,11,,,,,,,,,,,,,,,14,,,48,76
106800,note_on,,16,0,10,,,,,,,,,,,,,,,13,,,64,76
106800,note_on,,1,0,12,,,,,,,,,,,,,,,15,,,48,76
106800,note_on,,0,0,12,,,,,,,,,,,,,,,15,,,69,76
106800,note_on,,0,0,12,,,,,,,,,,,,,,,15,,,60,76
106800,note_on,,16,0,9,,,,,,,,,,,,,,,12,,,67,76
106800,note_on,,16,0,7,,,,,,,,,,,,,,,2,,,48,76
106800,note_on,,0,0,12,,,,,,,,,,,,,,,15,,,64,76
106904,note_on,,344,0,5,,,,,,,,,,,,,,,0,,,71,0
106904,note_on,,344,0,8,,,,,,,,,,,,,,,11,,,71,0
106904,note_on,,344,0,6,,,,,,,,,,,,,,,1,,,71,0
106920,note_on,,16,0,5,,,,,,,,,,,,,,,0,,,69,76
106920,note_on,,16,0,8,,,,,,,,,,,,,,,11,,,69,76
106920,note_on,,16,0,6,,,,,,,,,,,,,,,1,,,69,76
107024,note_on,,104,0,8,,,,,,,,,,,,,,,11,,,69,0
107024,note_on,,224,0,7,,,,,,,,,,,,,,,2,,,48,0
107024,note_on,,104,0,6,,,,,,,,,,,,,,,1,,,69,0
107024,note_on,,224,0,10,,,,,,,,,,,,,,,13,,,64,0
107024,note_on,,104,0,5,,,,,,,,,,,,,,,0,,,69,0
107024,note_on,,224,0,11,,,,,,,,,,,,,,,14,,,48,0
107024,note_on,,224,0,9,,,,,,,,,,,,,,,12,,,67,0
107039,note_on,,0,0,12,,,,,,,,,,,,,,,15,,,60,0
107039,note_on,,0,0,12,,,,,,,,,,,,,,,15,,,64,0
107039,note_on,,0,0,12,,,,,,,,,,,,,,,15,,,69,0
107039,note_on,,0,0,12,,,,,,,,,,,,,,,15,,,67,0
107039,note_on,,239,0,12,,,,,,,,,,,,,,,15,,,48,0
107040,note_on,,0,0,12,,,,,,,,,,,,,,,15,,,62,76
107040,note_on,,16,0,8,,,,,,,,,,,,,,,11,,,69,76
107040,note_on,,16,0,10,,,,,,,,,,,,,,,13,,,62,76
107040,note_on,,16,0,6,,,,,,,,,,,,,,,1,,,69,76
107040,note_on,,1,0,12,,,,,,,,,,,,,,,15,,,67,76
107040,note_on,,16,0,11,,,,,,,,,,,,,,,14,,,50,76
107040,note_on,,16,0,7,,,,,,,,,,,,,,,2,,,50,76
107040,note_on,,0,0,12,,,,,,,,,,,,,,,15,,,50,76
107040,note_on,,0,0,12,,,,,,,,,,,,,,,15,,,69,76
107040,note_on,,16,0,9,,,,,,,,,,,,,,,12,,,67,76
107040,note_on,,16,0,5,,,,,,,,,,,,,,,0,,,69,76
107264,note_on,,224,0,9,,,,,,,,,,,,,,,12,,,67,0
107264,note_on,,224,0,7,,,,,,,,,,,,,,,2,,,50,0
107264,note_on,,224,0,11,,,,,,,,,,,,,,,14,,,50,0
107264,note_on,,224,0,10,,,,,,,,,,,,,,,13,,,62,0
107279,note_on,,239,0,12,,,,,,,,,,,,,,,15,,,67,0
107279,note_on,,0,0,12,,,,,,,,,,,,,,,15,,,69,0
107279,note_on,,0,0,12,,,,,,,,,,,,,,,15,,,50,0
107279,note_on,,0,0,12,,,,,,,,,,,,,,,15,,,62,0
107280,note_on,,16,0,9,,,,,,,,,,,,,,,12,,,66,76
107280,note_on,,16,0,10,,,,,,,,,,,,,,,13,,,60,76
107280,note_on,,16,0,7,,,,,,,,,,,,,,,2,,,38,76
107280,note_on,,1,0,12,,,,,,,,,,,,,,,15,,,50,76
107280,note_on,,0,0,12,,,,,,,,,,,,,,,15,,,57,76
107280,note_on,,16,0,11,,,,,,,,,,,,,,,14,,,38,76
107280,note_on,,0,0,12,,,,,,,,,,,,,,,15,,,38,76
107280,note_on,,0,0,12,,,,,,,,,,,,,,,15,,,54,76
107384,note_on,,344,0,8,,,,,,,,,,,,,,,11,,,69,0
107384,note_on,,344,0,5,,,,,,,,,,,,,,,0,,,69,0
107384,note_on,,344,0,6,,,,,,,,,,,,,,,1,,,69,0
107400,note_on,,16,0,6,,,,,,,,,,,,,,,1,,,67,76
107400,note_on,,16,0,5,,,,,,,,,,,,,,,0,,,67,76
107400,note_on,,16,0,8,,,,,,,,,,,,,,,11,,,67,76
107504,note_on,,224,0,9,,,,,,,,,,,,,,,12,,,66,0
107504,note_on,,104,0,6,,,,,,,,,,,,,,,1,,,67,0
107504,note_on,,224,0,10,,,,,,,,,,,,,,,13,,,60,0
107504,note_on,,224,0,11,,,,,,,,,,,,,,,14,,,38,0
107504,note_on,,224,0,7,,,,,,,,,,,,,,,2,,,38,0
107504,note_on,,104,0,8,,,,,,,,,,,,,,,11,,,67,0
107504,note_on,,104,0,5,,,,,,,,,,,,,,,0,,,67,0
107519,note_on,,0,0,12,,,,,,,,,,,,,,,15,,,54,0
107519,note_on,,0,0,12,,,,,,,,,,,,,,,15,,,38,0
107519,note_on,,0,0,12,,,,,,,,,,,,,,,15,,,57,0
107519,note_on,,239,0,12,,,,,,,,,,,,,,,15,,,50,0
107520,note_on,,16,0,6,,,,,,,,,,,,,,,1,,,67,76
107520,note_on,,16,0,7,,,,,,,,,,,,,,,2,,,43,76
107520,note_on,,16,0,8,,,,,,,,,,,,,,,11,,,67,76
107520,note_on,,16,0,10,,,,,,,,,,,,,,,13,,,59,76
107520,note_on,,16,0,9,,,,,,,,,,,,,,,12,,,62,76
107520,note_on,,16,0,11,,,,,,,,,,,,,,,14,,,43,76
107520,note_on,,16,0,5,,,,,,,,,,,,,,,0,,,67,76
107520,note_on,,1,0,12,,,,,,,,,,,,,,,15,,,59,76
107520,note_on,,0,0,12,,,,,,,,,,,,,,,15,,,62,76
107520,note_on,,0,0,12,,,,,,,,,,,,,,,15,,,43,76
107520,note_on,,0,0,12,,,,,,,,,,,,,,,15,,,55,76
107744,note_on,,224,0,11,,,,,,,,,,,,,,,14,,,43,0
107744,note_on,,224,0,7,,,,,,,,,,,,,,,2,,,43,0
107759,note_on,,0,0,12,,,,,,,,,,,,,,,15,,,43,0
107759,note_on,,0,0,12,,,,,,,,,,,,,,,15,,,55,0
107759,note_on,,239,0,12,,,,,,,,,,,,,,,15,,,59,0
107759,note_on,,0,0,12,,,,,,,,,,,,,,,15,,,62,0
107760,note_on,,0,0,12,,,,,,,,,,,,,,,15,,,50,76
107760,note_on,,0,0,12,,,,,,,,,,,,,,,15,,,69,76
107760,note_on,,16,0,11,,,,,,,,,,,,,,,14,,,50,76
107760,note_on,,1,0,12,,,,,,,,,,,,,,,15,,,62,76
107760,note_on,,0,0,12,,,,,,,,,,,,,,,15,,,65,76
107760,note_on,,16,0,7,,,,,,,,,,,,,,,2,,,50,76
107984,note_on,,224,0,7,,,,,,,,,,,,,,,2,,,50,0
107984,note_on,,224,0,11,,,,,,,,,,,,,,,14,,,50,0
107999,note_on,,0,0,12,,,,,,,,,,,,,,,15,,,69,0
107999,note_on,,0,0,12,,,,,,,,,,,,,,,15,,,50,0
107999,note_on,,239,0,12,,,,,,,,,,,,,,,15,,,62,0
107999,note_on,,0,0,12,,,,,,,,,,,,,,,15,,,65,0
108000,note_on,,16,0,7,,,,,,,,,,,,,,,2,,,55,76
108000,note_on,,1,0,12,,,,,,,,,,,,,,,15,,,55,76
108000,note_on,,0,0,12,,,,,,,,,,,,,,,15,,,74,76
108000,note_on,,0,0,12,,,,,,,,,,,,,,,15,,,71,76
108000,note_on,,0,0,12,,,,,,,,,,,,,,,15,,,67,76
108000,note_on,,16,0,11,,,,,,,,,,,,,,,14,,,55,76
108224,note_on,,704,0,8,,,,,,,,,,,,,,,11,,,67,0
108224,note_on,,704,0,6,,,,,,,,,,,,,,,1,,,67,0
108224,note_on,,704,0,5,,,,,,,,,,,,,,,0,,,67,0
108239,note_on,,239,0,12,,,,,,,,,,,,,,,15,,,55,0
108239,note_on,,0,0,12,,,,,,,,,,,,,,,15,,,74,0
108239,note_on,,0,0,12,,,,,,,,,,,,,,,15,,,71,0
108239,note_on,,0,0,12,,,,,,,,,,,,,,,15,,,67,0
108239,note_on,,239,0,7,,,,,,,,,,,,,,,2,,,55,0
108239,note_on,,239,0,11,,,,,,,,,,,,,,,14,,,55,0
108239,note_on,,719,0,10,,,,,,,,,,,,,,,13,,,59,0
108239,note_on,,719,0,9,,,,,,,,,,,,,,,12,,,62,0
108240,note_on,,16,0,6,,,,,,,,,,,,,,,1,,,71,76
108240,note_on,,16,0,5,,,,,,,,,,,,,,,0,,,71,76
108240,note_on,,16,0,8,,,,,,,,,,,,,,,11,,,71,76
108344,note_on,,104,0,6,,,,,,,,,,,,,,,1,,,71,0
108344,note_on,,104,0,5,,,,,,,,,,,,,,,0,,,71,0
108344,note_on,,104,0,8,,,,,,,,,,,,,,,11,,,71,0
108360,note_on,,16,0,5,,,,,,,,,,,,,,,0,,,72,76
108360,note_on,,16,0,6,,,,,,,,,,,,,,,1,,,72,76
108360,note_on,,16,0,8,,,,,,,,,,,,,,,11,,,72,76
108464,note_on,,104,0,5,,,,,,,,,,,,,,,0,,,72,0
108464,note_on,,104,0,6,,,,,,,,,,,,,,,1,,,72,0
108464,note_on,,104,0,8,,,,,,,,,,,,,,,11,,,72,0
108480,note_on,,16,0,8,,,,,,,,,,,,,,,11,,,74,76
108480,note_on,,16,0,6,,,,,,,,,,,,,,,1,,,74,76
108480,note_on,,16,0,5,,,,,,,,,,,,,,,0,,,74,76
108704,note_on,,224,0,8,,,,,,,,,,,,,,,11,,,74,0
108704,note_on,,224,0,6,,,,,,,,,,,,,,,1,,,74,0
108704,note_on,,224,0,5,,,,,,,,,,,,,,,0,,,74,0
108720,note_on,,481,0,12,,,,,,,,,,,,,,,15,,,55,76
108720,note_on,,0,0,12,,,,,,,,,,,,,,,15,,,71,76
108720,note_on,,0,0,12,,,,,,,,,,,,,,,15,,,67,76
108720,note_on,,0,0,12,,,,,,,,,,,,,,,15,,,74,76
108720,note_on,,481,0,7,,,,,,,,,,,,,,,2,,,55,76
108720,note_on,,16,0,8,,,,,,,,,,,,,,,11,,,79,76
108720,note_on,,16,0,6,,,,,,,,,,,,,,,1,,,79,76
108720,note_on,,481,0,9,,,,,,,,,,,,,,,12,,,74,76
108720,note_on,,481,0,11,,,,,,,,,,,,,,,14,,,55,76
108720,note_on,,16,0,5,,,,,,,,,,,,,,,0,,,79,76
108720,note_on,,481,0,10,,,,,,,,,,,,,,,13,,,71,76
108824,note_on,,104,0,7,,,,,,,,,,,,,,,2,,,55,0
108824,note_on,,104,0,11,,,,,,,,,,,,,,,14,,,55,0
108824,note_on,,104,0,10,,,,,,,,,,,,,,,13,,,71,0
108839,note_on,,119,0,12,,,,,,,,,,,,,,,15,,,55,0
108839,note_on,,0,0,12,,,,,,,,,,,,,,,15,,,67,0
108839,note_on,,0,0,12,,,,,,,,,,,,,,,15,,,74,0
108839,note_on,,0,0,12,,,,,,,,,,,,,,,15,,,71,0
108840,note_on,,0,0,12,,,,,,,,,,,,,,,15,,,65,76
108840,note_on,,16,0,11,,,,,,,,,,,,,,,14,,,53,76
108840,note_on,,16,0,7,,,,,,,,,,,,,,,2,,,53,76
108840,note_on,,16,0,10,,,,,,,,,,,,,,,13,,,69,76
108840,note_on,,0,0,12,,,,,,,,,,,,,,,15,,,72,76
108840,note_on,,0,0,12,,,,,,,,,,,,,,,15,,,69,76
108840,note_on,,1,0,12,,,,,,,,,,,,,,,15,,,53,76
108944,note_on,,224,0,9,,,,,,,,,,,,,,,12,,,74,0
108944,note_on,,104,0,7,,,,,,,,,,,,,,,2,,,53,0
108944,note_on,,104,0,11,,,,,,,,,,,,,,,14,,,53,0
108944,note_on,,104,0,10,,,,,,,,,,,,,,,13,,,69,0
108959,note_on,,0,0,12,,,,,,,,,,,,,,,15,,,69,0
108959,note_on,,0,0,12,,,,,,,,,,,,,,,15,,,65,0
108959,note_on,,119,0,12,,,,,,,,,,,,,,,15,,,53,0
108959,note_on,,0,0,12,,,,,,,,,,,,,,,15,,,72,0
108960,note_on,,0,0,12,,,,,,,,,,,,,,,15,,,64,76
108960,note_on,,0,0,12,,,,,,,,,,,,,,,15,,,52,76
108960,note_on,,16,0,9,,,,,,,,,,,,,,,12,,,73,76
108960,note_on,,16,0,7,,,,,,,,,,,,,,,2,,,52,76
108960,note_on,,1,0,12,,,,,,,,,,,,,,,15,,,71,76
108960,note_on,,0,0,12,,,,,,,,,,,,,,,15,,,67,76
108960,note_on,,16,0,11,,,,,,,,,,,,,,,14,,,52,76
108960,note_on,,16,0,10,,,,,,,,,,,,,,,13,,,67,76
109184,note_on,,224,0,11,,,,,,,,,,,,,,,14,,,52,0
109184,note_on,,464,0,6,,,,,,,,,,,,,,,1,,,79,0
109184,note_on,,464,0,8,,,,,,,,,,,,,,,11,,,79,0
109184,note_on,,224,0,9,,,,,,,,,,,,,,,12,,,73,0
109184,note_on,,464,0,5,,,,,,,,,,,,,,,0,,,79,0
109184,note_on,,224,0,10,,,,,,,,,,,,,,,13,,,67,0
109184,note_on,,224,0,7,,,,,,,,,,,,,,,2,,,52,0
109199,note_on,,0,0,12,,,,,,,,,,,,,,,15,,,64,0
109199,note_on,,0,0,12,,,,,,,,,,,,,,,15,,,67,0
109199,note_on,,0,0,12,,,,,,,,,,,,,,,15,,,52,0
109199,note_on,,239,0,12,,,,,,,,,,,,,,,15,,,71,0
109200,note_on,,16,0,9,,,,,,,,,,,,,,,12,,,74,76
109200,note_on,,16,0,5,,,,,,,,,,,,,,,0,,,82,76
109200,note_on,,16,0,11,,,,,,,,,,,,,,,14,,,55,76
109200,note_on,,16,0,10,,,,,,,,,,,,,,,13,,,65,76
109200,note_on,,16,0,6,,,,,,,,,,,,,,,1,,,82,76
109200,note_on,,16,0,8,,,,,,,,,,,,,,,11,,,82,76
109200,note_on,,1,0,12,,,,,,,,,,,,,,,15,,,67,76
109200,note_on,,0,0,12,,,,,,,,,,,,,,,15,,,74,76
109200,note_on,,0,0,12,,,,,,,,,,,,,,,15,,,55,76
109200,note_on,,0,0,12,,,,,,,,,,,,,,,15,,,70,76
109200,note_on,,16,0,7,,,,,,,,,,,,,,,2,,,55,76
109424,note_on,,224,0,7,,,,,,,,,,,,,,,2,,,55,0
109424,note_on,,224,0,10,,,,,,,,,,,,,,,13,,,65,0
109424,note_on,,224,0,6,,,,,,,,,,,,,,,1,,,82,0
109424,note_on,,224,0,8,,,,,,,,,,,,,,,11,,,82,0
109424,note_on,,224,0,9,,,,,,,,,,,,,,,12,,,74,0
109424,note_on,,224,0,11,,,,,,,,,,,,,,,14,,,55,0
109424,note_on,,224,0,5,,,,,,,,,,,,,,,0,,,82,0
109439,note_on,,0,0,12,,,,,,,,,,,,,,,15,,,70,0
109439,note_on,,239,0,12,,,,,,,,,,,,,,,15,,,67,0
109439,note_on,,0,0,12,,,,,,,,,,,,,,,15,,,74,0
109439,note_on,,0,0,12,,,,,,,,,,,,,,,15,,,55,0
109440,note_on,,16,0,6,,,,,,,,,,,,,,,1,,,73,76
109440,note_on,,16,0,8,,,,,,,,,,,,,,,11,,,73,76
109440,note_on,,0,0,12,,,,,,,,,,,,,,,15,,,76,76
109440,note_on,,0,0,12,,,,,,,,,,,,,,,15,,,57,76
109440,note_on,,16,0,7,,,,,,,,,,,,,,,2,,,57,76
109440,note_on,,0,0,12,,,,,,,,,,,,,,,15,,,73,76
109440,note_on,,16,0,11,,,,,,,,,,,,,,,14,,,57,76
109440,note_on,,16,0,5,,,,,,,,,,,,,,,0,,,73,76
109440,note_on,,16,0,9,,,,,,,,,,,,,,,12,,,69,76
109440,note_on,,16,0,10,,,,,,,,,,,,,,,13,,,64,76
109440,note_on,,1,0,12,,,,,,,,,,,,,,,15,,,69,76
109544,note_on,,104,0,6,,,,,,,,,,,,,,,1,,,73,0
109544,note_on,,104,0,5,,,,,,,,,,,,,,,0,,,73,0
109544,note_on,,104,0,9,,,,,,,,,,,,,,,12,,,69,0
109544,note_on,,104,0,8,,,,,,,,,,,,,,,11,,,73,0
109544,note_on,,104,0,10,,,,,,,,,,,,,,,13,,,64,0
109560,note_on,,16,0,8,,,,,,,,,,,,,,,11,,,71,76
109560,note_on,,16,0,6,,,,,,,,,,,,,,,1,,,71,76
109560,note_on,,16,0,10,,,,,,,,,,,,,,,13,,,62,76
109560,note_on,,16,0,9,,,,,,,,,,,,,,,12,,,67,76
109560,note_on,,16,0,5,,,,,,,,,,,,,,,0,,,71,76
109664,note_on,,104,0,5,,,,,,,,,,,,,,,0,,,71,0
109664,note_on,,224,0,11,,,,,,,,,,,,,,,14,,,57,0
109664,note_on,,224,0,7,,,,,,,,,,,,,,,2,,,57,0
109664,note_on,,104,0,10,,,,,,,,,,,,,,,13,,,62,0
109664,note_on,,104,0,9,,,,,,,,,,,,,,,12,,,67,0
109664,note_on,,104,0,8,,,,,,,,,,,,,,,11,,,71,0
109664,note_on,,104,0,6,,,,,,,,,,,,,,,1,,,71,0
109679,note_on,,239,0,12,,,,,,,,,,,,,,,15,,,69,0
109679,note_on,,0,0,12,,,,,,,,,,,,,,,15,,,76,0
109679,note_on,,0,0,12,,,,,,,,,,,,,,,15,,,57,0
109679,note_on,,0,0,12,,,,,,,,,,,,,,,15,,,73,0
109680,note_on,,16,0,5,,,,,,,,,,,,,,,0,,,73,76
109680,note_on,,16,0,7,,,,,,,,,,,,,,,2,,,45,76
109680,note_on,,16,0,6,,,,,,,,,,,,,,,1,,,73,76
109680,note_on,,16,0,11,,,,,,,,,,,,,,,14,,,45,76
109680,note_on,,1,0,12,,,,,,,,,,,,,,,15,,,57,76
109680,note_on,,0,0,12,,,,,,,,,,,,,,,15,,,64,76
109680,note_on,,0,0,12,,,,,,,,,,,,,,,15,,,61,76
109680,note_on,,0,0,12,,,,,,,,,,,,,,,15,,,45,76
109680,note_on,,16,0,10,,,,,,,,,,,,,,,13,,,64,76
109680,note_on,,16,0,8,,,,,,,,,,,,,,,11,,,73,76
109680,note_on,,16,0,9,,,,,,,,,,,,,,,12,,,69,76
109784,note_on,,104,0,10,,,,,,,,,,,,,,,13,,,64,0
109784,note_on,,104,0,8,,,,,,,,,,,,,,,11,,,73,0
109784,note_on,,104,0,5,,,,,,,,,,,,,,,0,,,73,0
109784,note_on,,104,0,6,,,,,,,,,,,,,,,1,,,73,0
109784,note_on,,104,0,9,,,,,,,,,,,,,,,12,,,69,0
109800,note_on,,16,0,9,,,,,,,,,,,,,,,12,,,71,76
109800,note_on,,16,0,6,,,,,,,,,,,,,,,1,,,74,76
109800,note_on,,16,0,5,,,,,,,,,,,,,,,0,,,74,76
109800,note_on,,16,0,10,,,,,,,,,,,,,,,13,,,65,76
109800,note_on,,16,0,8,,,,,,,,,,,,,,,11,,,74,76
109904,note_on,,104,0,10,,,,,,,,,,,,,,,13,,,65,0
109904,note_on,,224,0,7,,,,,,,,,,,,,,,2,,,45,0
109904,note_on,,224,0,11,,,,,,,,,,,,,,,14,,,45,0
109904,note_on,,104,0,9,,,,,,,,,,,,,,,12,,,71,0
109904,note_on,,104,0,8,,,,,,,,,,,,,,,11,,,74,0
109904,note_on,,104,0,6,,,,,,,,,,,,,,,1,,,74,0
109904,note_on,,104,0,5,,,,,,,,,,,,,,,0,,,74,0
109919,note_on,,239,0,12,,,,,,,,,,,,,,,15,,,57,0
109919,note_on,,0,0,12,,,,,,,,,,,,,,,15,,,61,0
109919,note_on,,0,0,12,,,,,,,,,,,,,,,15,,,45,0
109919,note_on,,0,0,12,,,,,,,,,,,,,,,15,,,64,0
109920,note_on,,16,0,9,,,,,,,,,,,,,,,12,,,73,76
109920,note_on,,16,0,6,,,,,,,,,,,,,,,1,,,76,76
109920,note_on,,1,0,12,,,,,,,,,,,,,,,15,,,73,76
109920,note_on,,0,0,12,,,,,,,,,,,,,,,15,,,57,76
109920,note_on,,0,0,12,,,,,,,,,,,,,,,15,,,76,76
109920,note_on,,16,0,8,,,,,,,,,,,,,,,11,,,76,76
109920,note_on,,16,0,5,,,,,,,,,,,,,,,0,,,76,76
109920,note_on,,16,0,7,,,,,,,,,,,,,,,2,,,57,76
109920,note_on,,16,0,11,,,,,,,,,,,,,,,14,,,57,76
109920,note_on,,16,0,10,,,,,,,,,,,,,,,13,,,64,76
109920,note_on,,0,0,12,,,,,,,,,,,,,,,15,,,69,76
110144,note_on,,224,0,7,,,,,,,,,,,,,,,2,,,57,0
110144,note_on,,224,0,9,,,,,,,,,,,,,,,12,,,73,0
110144,note_on,,224,0,6,,,,,,,,,,,,,,,1,,,76,0
110144,note_on,,224,0,11,,,,,,,,,,,,,,,14,,,57,0
110144,note_on,,224,0,8,,,,,,,,,,,,,,,11,,,76,0
110144,note_on,,224,0,10,,,,,,,,,,,,,,,13,,,64,0
110144,note_on,,224,0,5,,,,,,,,,,,,,,,0,,,76,0
110159,note_on,,0,0,12,,,,,,,,,,,,,,,15,,,69,0
110159,note_on,,0,0,12,,,,,,,,,,,,,,,15,,,76,0
110159,note_on,,0,0,12,,,,,,,,,,,,,,,15,,,57,0
110159,note_on,,239,0,12,,,,,,,,,,,,,,,15,,,73,0
110160,note_on,,1,0,12,,,,,,,,,,,,,,,15,,,67,76
110160,note_on,,0,0,12,,,,,,,,,,,,,,,15,,,74,76
110160,note_on,,0,0,12,,,,,,,,,,,,,,,15,,,55,76
110160,note_on,,16,0,9,,,,,,,,,,,,,,,12,,,74,76
110160,note_on,,0,0,12,,,,,,,,,,,,,,,15,,,71,76
110160,note_on,,16,0,5,,,,,,,,,,,,,,,0,,,77,76
110160,note_on,,16,0,10,,,,,,,,,,,,,,,13,,,57,76
110160,note_on,,16,0,8,,,,,,,,,,,,,,,11,,,77,76
110160,note_on,,16,0,6,,,,,,,,,,,,,,,1,,,77,76
110160,note_on,,16,0,7,,,,,,,,,,,,,,,2,,,55,76
110160,note_on,,16,0,11,,,,,,,,,,,,,,,14,,,55,76
110264,note_on,,104,0,9,,,,,,,,,,,,,,,12,,,74,0
110264,note_on,,104,0,6,,,,,,,,,,,,,,,1,,,77,0
110264,note_on,,104,0,8,,,,,,,,,,,,,,,11,,,77,0
110264,note_on,,104,0,5,,,,,,,,,,,,,,,0,,,77,0
110280,note_on,,16,0,8,,,,,,,,,,,,,,,11,,,79,76
110280,note_on,,16,0,5,,,,,,,,,,,,,,,0,,,79,76
110280,note_on,,16,0,6,,,,,,,,,,,,,,,1,,,79,76
110280,note_on,,16,0,9,,,,,,,,,,,,,,,12,,,76,76
110384,note_on,,224,0,7,,,,,,,,,,,,,,,2,,,55,0
110384,note_on,,104,0,6,,,,,,,,,,,,,,,1,,,79,0
110384,note_on,,224,0,11,,,,,,,,,,,,,,,14,,,55,0
110384,note_on,,104,0,5,,,,,,,,,,,,,,,0,,,79,0
110384,note_on,,104,0,9,,,,,,,,,,,,,,,12,,,76,0
110384,note_on,,104,0,8,,,,,,,,,,,,,,,11,,,79,0
110384,note_on,,224,0,10,,,,,,,,,,,,,,,13,,,57,0
110399,note_on,,239,0,12,,,,,,,,,,,,,,,15,,,67,0
110399,note_on,,0,0,12,,,,,,,,,,,,,,,15,,,71,0
110399,note_on,,0,0,12,,,,,,,,,,,,,,,15,,,74,0
110399,note_on,,0,0,12,,,,,,,,,,,,,,,15,,,55,0
110400,note_on,,16,0,11,,,,,,,,,,,,,,,14,,,53,76
110400,note_on,,16,0,7,,,,,,,,,,,,,,,2,,,53,76
110400,note_on,,16,0,10,,,,,,,,,,,,,,,13,,,62,76
110400,note_on,,16,0,8,,,,,,,,,,,,,,,11,,,81,76
110400,note_on,,0,0,12,,,,,,,,,,,,,,,15,,,53,76
110400,note_on,,0,0,12,,,,,,,,,,,,,,,15,,,74,76
110400,note_on,,0,0,12,,,,,,,,,,,,,,,15,,,65,76
110400,note_on,,16,0,5,,,,,,,,,,,,,,,0,,,81,76
110400,note_on,,16,0,6,,,,,,,,,,,,,,,1,,,81,76
110400,note_on,,16,0,9,,,,,,,,,,,,,,,12,,,77,76
110400,note_on,,1,0,12,,,,,,,,,,,,,,,15,,,69,76
110504,note_on,,104,0,5,,,,,,,,,,,,,,,0,,,81,0
110504,note_on,,104,0,8,,,,,,,,,,,,,,,11,,,81,0
110504,note_on,,104,0,6,,,,,,,,,,,,,,,1,,,81,0
110520,note_on,,16,0,8,,,,,,,,,,,,,,,11,,,79,76
110520,note_on,,16,0,5,,,,,,,,,,,,,,,0,,,79,76
110520,note_on,,16,0,6,,,,,,,,,,,,,,,1,,,79,76
110624,note_on,,104,0,6,,,,,,,,,,,,,,,1,,,79,0
110624,note_on,,224,0,7,,,,,,,,,,,,,,,2,,,53,0
110624,note_on,,224,0,9,,,,,,,,,,,,,,,12,,,77,0
110624,note_on,,104,0,5,,,,,,,,,,,,,,,0,,,79,0
110624,note_on,,224,0,10,,,,,,,,,,,,,,,13,,,62,0
110624,note_on,,224,0,11,,,,,,,,,,,,,,,14,,,53,0
110624,note_on,,104,0,8,,,,,,,,,,,,,,,11,,,79,0
110639,note_on,,0,0,12,,,,,,,,,,,,,,,15,,,65,0
110639,note_on,,0,0,12,,,,,,,,,,,,,,,15,,,74,0
110639,note_on,,0,0,12,,,,,,,,,,,,,,,15,,,53,0
110639,note_on,,239,0,12,,,,,,,,,,,,,,,15,,,69,0
110640,note_on,,16,0,11,,,,,,,,,,,,,,,14,,,55,76
110640,note_on,,16,0,7,,,,,,,,,,,,,,,2,,,55,76
110640,note_on,,16,0,5,,,,,,,,,,,,,,,0,,,81,76
110640,note_on,,16,0,8,,,,,,,,,,,,,,,11,,,81,76
110640,note_on,,16,0,6,,,,,,,,,,,,,,,1,,,81,76
110640,note_on,,16,0,9,,,,,,,,,,,,,,,12,,,76,76
110640,note_on,,1,0,12,,,,,,,,,,,,,,,15,,,55,76
110640,note_on,,0,0,12,,,,,,,,,,,,,,,15,,,76,76
110640,note_on,,0,0,12,,,,,,,,,,,,,,,15,,,71,76
110640,note_on,,0,0,12,,,,,,,,,,,,,,,15,,,67,76
110640,note_on,,16,0,10,,,,,,,,,,,,,,,13,,,67,76
110744,note_on,,104,0,6,,,,,,,,,,,,,,,1,,,81,0
110744,note_on,,104,0,8,,,,,,,,,,,,,,,11,,,81,0
110744,note_on,,104,0,9,,,,,,,,,,,,,,,12,,,76,0
110744,note_on,,104,0,5,,,,,,,,,,,,,,,0,,,81,0
110760,note_on,,16,0,8,,,,,,,,,,,,,,,11,,,82,76
110760,note_on,,16,0,5,,,,,,,,,,,,,,,0,,,82,76
110760,note_on,,16,0,9,,,,,,,,,,,,,,,12,,,74,76
110760,note_on,,16,0,6,,,,,,,,,,,,,,,1,,,82,76
110864,note_on,,104,0,6,,,,,,,,,,,,,,,1,,,82,0
110864,note_on,,104,0,8,,,,,,,,,,,,,,,11,,,82,0
110864,note_on,,104,0,9,,,,,,,,,,,,,,,12,,,74,0
110864,note_on,,104,0,5,,,,,,,,,,,,,,,0,,,82,0
110864,note_on,,224,0,11,,,,,,,,,,,,,,,14,,,55,0
110864,note_on,,224,0,7,,,,,,,,,,,,,,,2,,,55,0
110864,note_on,,224,0,10,,,,,,,,,,,,,,,13,,,67,0
110879,note_on,,239,0,12,,,,,,,,,,,,,,,15,,,55,0
110879,note_on,,0,0,12,,,,,,,,,,,,,,,15,,,76,0
110879,note_on,,0,0,12,,,,,,,,,,,,,,,15,,,71,0
110879,note_on,,0,0,12,,,,,,,,,,,,,,,15,,,67,0
110880,note_on,,16,0,9,,,,,,,,,,,,,,,12,,,73,76
110880,note_on,,0,0,12,,,,,,,,,,,,,,,15,,,76,76
110880,note_on,,16,0,11,,,,,,,,,,,,,,,14,,,57,76
110880,note_on,,1,0,12,,,,,,,,,,,,,,,15,,,73,76
110880,note_on,,0,0,12,,,,,,,,,,,,,,,15,,,57,76
110880,note_on,,16,0,7,,,,,,,,,,,,,,,2,,,57,76
110880,note_on,,16,0,10,,,,,,,,,,,,,,,13,,,64,76
110880,note_on,,0,0,12,,,,,,,,,,,,,,,15,,,69,76
110880,note_on,,16,0,8,,,,,,,,,,,,,,,11,,,81,76
110880,note_on,,16,0,6,,,,,,,,,,,,,,,1,,,81,76
110880,note_on,,16,0,5,,,,,,,,,,,,,,,0,,,81,76
110984,note_on,,104,0,8,,,,,,,,,,,,,,,11,,,81,0
110984,note_on,,104,0,5,,,,,,,,,,,,,,,0,,,81,0
110984,note_on,,104,0,6,,,,,,,,,,,,,,,1,,,81,0
111000,note_on,,16,0,5,,,,,,,,,,,,,,,0,,,79,76
111000,note_on,,16,0,6,,,,,,,,,,,,,,,1,,,79,76
111000,note_on,,16,0,8,,,,,,,,,,,,,,,11,,,79,76
111104,note_on,,224,0,7,,,,,,,,,,,,,,,2,,,57,0
111104,note_on,,104,0,6,,,,,,,,,,,,,,,1,,,79,0
111104,note_on,,104,0,5,,,,,,,,,,,,,,,0,,,79,0
111104,note_on,,224,0,9,,,,,,,,,,,,,,,12,,,73,0
111104,note_on,,104,0,8,,,,,,,,,,,,,,,11,,,79,0
111104,note_on,,224,0,11,,,,,,,,,,,,,,,14,,,57,0
111104,note_on,,224,0,10,,,,,,,,,,,,,,,13,,,64,0
111119,note_on,,0,0,12,,,,,,,,,,,,,,,15,,,76,0
111119,note_on,,0,0,12,,,,,,,,,,,,,,,15,,,57,0
111119,note_on,,239,0,12,,,,,,,,,,,,,,,15,,,73,0
111119,note_on,,0,0,12,,,,,,,,,,,,,,,15,,,69,0
111120,note_on,,1,0,12,,,,,,,,,,,,,,,15,,,61,76
111120,note_on,,16,0,7,,,,,,,,,,,,,,,2,,,45,76
111120,note_on,,16,0,6,,,,,,,,,,,,,,,1,,,77,76
111120,note_on,,16,0,11,,,,,,,,,,,,,,,14,,,45,76
111120,note_on,,0,0,12,,,,,,,,,,,,,,,15,,,64,76
111120,note_on,,0,0,12,,,,,,,,,,,,,,,15,,,57,76
111120,note_on,,16,0,5,,,,,,,,,,,,,,,0,,,77,76
111120,note_on,,16,0,10,,,,,,,,,,,,,,,13,,,69,76
111120,note_on,,16,0,8,,,,,,,,,,,,,,,11,,,77,76
111120,note_on,,16,0,9,,,,,,,,,,,,,,,12,,,73,76
111120,note_on,,0,0,12,,,,,,,,,,,,,,,15,,,45,76
111224,note_on,,104,0,5,,,,,,,,,,,,,,,0,,,77,0
111224,note_on,,104,0,6,,,,,,,,,,,,,,,1,,,77,0
111224,note_on,,104,0,8,,,,,,,,,,,,,,,11,,,77,0
111240,note_on,,16,0,5,,,,,,,,,,,,,,,0,,,76,76
111240,note_on,,16,0,6,,,,,,,,,,,,,,,1,,,76,76
111240,note_on,,16,0,8,,,,,,,,,,,,,,,11,,,76,76
111344,note_on,,104,0,5,,,,,,,,,,,,,,,0,,,76,0
111344,note_on,,104,0,6,,,,,,,,,,,,,,,1,,,76,0
111344,note_on,,224,0,10,,,,,,,,,,,,,,,13,,,69,0
111344,note_on,,224,0,9,,,,,,,,,,,,,,,12,,,73,0
111344,note_on,,104,0,8,,,,,,,,,,,,,,,11,,,76,0
111344,note_on,,224,0,7,,,,,,,,,,,,,,,2,,,45,0
111344,note_on,,224,0,11,,,,,,,,,,,,,,,14,,,45,0
111359,note_on,,239,0,12,,,,,,,,,,,,,,,15,,,61,0
111359,note_on,,0,0,12,,,,,,,,,,,,,,,15,,,45,0
111359,note_on,,0,0,12,,,,,,,,,,,,,,,15,,,57,0
111359,note_on,,0,0,12,,,,,,,,,,,,,,,15,,,64,0
111360,note_on,,16,0,7,,,,,,,,,,,,,,,2,,,50,76
111360,note_on,,16,0,6,,,,,,,,,,,,,,,1,,,77,76
111360,note_on,,16,0,10,,,,,,,,,,,,,,,13,,,69,76
111360,note_on,,16,0,5,,,,,,,,,,,,,,,0,,,77,76
111360,note_on,,16,0,11,,,,,,,,,,,,,,,14,,,50,76
111360,note_on,,16,0,8,,,,,,,,,,,,,,,11,,,77,76
111360,note_on,,16,0,9,,,,,,,,,,,,,,,12,,,74,76
111360,note_on,,0,0,12,,,,,,,,,,,,,,,15,,,50,76
111360,note_on,,1,0,12,,,,,,,,,,,,,,,15,,,65,76
111360,note_on,,0,0,12,,,,,,,,,,,,,,,15,,,62,76
111360,note_on,,0,0,12,,,,,,,,,,,,,,,15,,,69,76
111464,note_on,,104,0,8,,,,,,,,,,,,,,,11,,,77,0
111464,note_on,,104,0,5,,,,,,,,,,,,,,,0,,,77,0
111464,note_on,,104,0,6,,,,,,,,,,,,,,,1,,,77,0
111464,note_on,,104,0,10,,,,,,,,,,,,,,,13,,,69,0
111480,note_on,,16,0,6,,,,,,,,,,,,,,,1,,,79,76
111480,note_on,,16,0,8,,,,,,,,,,,,,,,11,,,79,76
111480,note_on,,16,0,10,,,,,,,,,,,,,,,13,,,70,76
111480,note_on,,16,0,5,,,,,,,,,,,,,,,0,,,79,76
111584,note_on,,104,0,6,,,,,,,,,,,,,,,1,,,79,0
111584,note_on,,104,0,10,,,,,,,,,,,,,,,13,,,70,0
111584,note_on,,104,0,5,,,,,,,,,,,,,,,0,,,79,0
111584,note_on,,224,0,7,,,,,,,,,,,,,,,2,,,50,0
111584,note_on,,224,0,9,,,,,,,,,,,,,,,12,,,74,0
111584,note_on,,224,0,11,,,,,,,,,,,,,,,14,,,50,0
111584,note_on,,104,0,8,,,,,,,,,,,,,,,11,,,79,0
111599,note_on,,0,0,12,,,,,,,,,,,,,,,15,,,69,0
111599,note_on,,0,0,12,,,,,,,,,,,,,,,15,,,50,0
111599,note_on,,239,0,12,,,,,,,,,,,,,,,15,,,65,0
111599,note_on,,0,0,12,,,,,,,,,,,,,,,15,,,62,0
111600,note_on,,0,0,12,,,,,,,,,,,,,,,15,,,45,76
111600,note_on,,16,0,9,,,,,,,,,,,,,,,12,,,69,76
111600,note_on,,16,0,7,,,,,,,,,,,,,,,2,,,45,76
111600,note_on,,16,0,8,,,,,,,,,,,,,,,11,,,77,76
111600,note_on,,16,0,11,,,,,,,,,,,,,,,14,,,45,76
111600,note_on,,16,0,5,,,,,,,,,,,,,,,0,,,77,76
111600,note_on,,0,0,12,,,,,,,,,,,,,,,15,,,64,76
111600,note_on,,0,0,12,,,,,,,,,,,,,,,15,,,60,76
111600,note_on,,16,0,10,,,,,,,,,,,,,,,13,,,69,76
111600,note_on,,16,0,6,,,,,,,,,,,,,,,1,,,77,76
111600,note_on,,1,0,12,,,,,,,,,,,,,,,15,,,57,76
111704,note_on,,104,0,10,,,,,,,,,,,,,,,13,,,69,0
111704,note_on,,104,0,6,,,,,,,,,,,,,,,1,,,77,0
111704,note_on,,104,0,5,,,,,,,,,,,,,,,0,,,77,0
111704,note_on,,104,0,8,,,,,,,,,,,,,,,11,,,77,0
111720,note_on,,16,0,6,,,,,,,,,,,,,,,1,,,76,76
111720,note_on,,16,0,8,,,,,,,,,,,,,,,11,,,76,76
111720,note_on,,16,0,10,,,,,,,,,,,,,,,13,,,67,76
111720,note_on,,16,0,5,,,,,,,,,,,,,,,0,,,76,76
111824,note_on,,104,0,6,,,,,,,,,,,,,,,1,,,76,0
111824,note_on,,104,0,5,,,,,,,,,,,,,,,0,,,76,0
111824,note_on,,224,0,11,,,,,,,,,,,,,,,14,,,45,0
111824,note_on,,104,0,10,,,,,,,,,,,,,,,13,,,67,0
111824,note_on,,224,0,9,,,,,,,,,,,,,,,12,,,69,0
111824,note_on,,104,0,8,,,,,,,,,,,,,,,11,,,76,0
111824,note_on,,224,0,7,,,,,,,,,,,,,,,2,,,45,0
111839,note_on,,0,0,12,,,,,,,,,,,,,,,15,,,64,0
111839,note_on,,239,0,12,,,,,,,,,,,,,,,15,,,57,0
111839,note_on,,0,0,12,,,,,,,,,,,,,,,15,,,45,0
111839,note_on,,0,0,12,,,,,,,,,,,,,,,15,,,60,0
111840,note_on,,0,0,12,,,,,,,,,,,,,,,15,,,53,76
111840,note_on,,16,0,11,,,,,,,,,,,,,,,14,,,38,76
111840,note_on,,16,0,8,,,,,,,,,,,,,,,11,,,74,76
111840,note_on,,16,0,7,,,,,,,,,,,,,,,2,,,38,76
111840,note_on,,16,0,5,,,,,,,,,,,,,,,0,,,74,76
111840,note_on,,0,0,12,,,,,,,,,,,,,,,15,,,57,76
111840,note_on,,0,0,12,,,,,,,,,,,,,,,15,,,38,76
111840,note_on,,1,0,12,,,,,,,,,,,,,,,15,,,50,76
111840,note_on,,16,0,6,,,,,,,,,,,,,,,1,,,74,76
111840,note_on,,16,0,9,,,,,,,,,,,,,,,12,,,69,76
111840,note_on,,16,0,10,,,,,,,,,,,,,,,13,,,65,76
111944,note_on,,104,0,10,,,,,,,,,,,,,,,13,,,65,0
111960,note_on,,16,0,10,,,,,,,,,,,,,,,13,,,67,76
112064,note_on,,224,0,5,,,,,,,,,,,,,,,0,,,74,0
112064,note_on,,224,0,8,,,,,,,,,,,,,,,11,,,74,0
112064,note_on,,104,0,10,,,,,,,,,,,,,,,13,,,67,0
112064,note_on,,224,0,6,,,,,,,,,,,,,,,1,,,74,0
112064,note_on,,224,0,11,,,,,,,,,,,,,,,14,,,38,0
112064,note_on,,224,0,9,,,,,,,,,,,,,,,12,,,69,0
112064,note_on,,224,0,7,,,,,,,,,,,,,,,2,,,38,0
112079,note_on,,0,0,12,,,,,,,,,,,,,,,15,,,57,0
112079,note_on,,239,0,12,,,,,,,,,,,,,,,15,,,50,0
112079,note_on,,0,0,12,,,,,,,,,,,,,,,15,,,53,0
112079,note_on,,0,0,12,,,,,,,,,,,,,,,15,,,38,0
112080,note_on,,16,0,7,,,,,,,,,,,,,,,2,,,56,76
112080,note_on,,16,0,8,,,,,,,,,,,,,,,11,,,83,76
112080,note_on,,1,0,12,,,,,,,,,,,,,,,15,,,56,76
112080,note_on,,0,0,12,,,,,,,,,,,,,,,15,,,74,76
112080,note_on,,16,0,6,,,,,,,,,,,,,,,1,,,83,76
112080,note_on,,0,0,12,,,,,,,,,,,,,,,15,,,71,76
112080,note_on,,16,0,10,,,,,,,,,,,,,,,13,,,65,76
112080,note_on,,0,0,12,,,,,,,,,,,,,,,15,,,68,76
112080,note_on,,16,0,5,,,,,,,,,,,,,,,0,,,83,76
112080,note_on,,16,0,11,,,,,,,,,,,,,,,14,,,56,76
112080,note_on,,16,0,9,,,,,,,,,,,,,,,12,,,74,76
112184,note_on,,104,0,7,,,,,,,,,,,,,,,2,,,56,0
112184,note_on,,104,0,11,,,,,,,,,,,,,,,14,,,56,0
112184,note_on,,104,0,8,,,,,,,,,,,,,,,11,,,83,0
112184,note_on,,104,0,6,,,,,,,,,,,,,,,1,,,83,0
112184,note_on,,104,0,10,,,,,,,,,,,,,,,13,,,65,0
112184,note_on,,104,0,9,,,,,,,,,,,,,,,12,,,74,0
112184,note_on,,104,0,5,,,,,,,,,,,,,,,0,,,83,0
112199,note_on,,0,0,12,,,,,,,,,,,,,,,15,,,68,0
112199,note_on,,0,0,12,,,,,,,,,,,,,,,15,,,71,0
112199,note_on,,0,0,12,,,,,,,,,,,,,,,15,,,74,0
112199,note_on,,119,0,12,,,,,,,,,,,,,,,15,,,56,0
112200,note_on,,16,0,10,,,,,,,,,,,,,,,13,,,64,76
112200,note_on,,16,0,7,,,,,,,,,,,,,,,2,,,57,76
112200,note_on,,16,0,11,,,,,,,,,,,,,,,14,,,57,76
112200,note_on,,0,0,12,,,,,,,,,,,,,,,15,,,72,76
112200,note_on,,16,0,9,,,,,,,,,,,,,,,12,,,72,76
112200,note_on,,16,0,8,,,,,,,,,,,,,,,11,,,84,76
112200,note_on,,16,0,5,,,,,,,,,,,,,,,0,,,84,76
112200,note_on,,1,0,12,,,,,,,,,,,,,,,15,,,57,76
112200,note_on,,16,0,6,,,,,,,,,,,,,,,1,,,84,76
112200,note_on,,0,0,12,,,,,,,,,,,,,,,15,,,76,76
112200,note_on,,0,0,12,,,,,,,,,,,,,,,15,,,69,76
112304,note_on,,104,0,5,,,,,,,,,,,,,,,0,,,84,0
112304,note_on,,104,0,7,,,,,,,,,,,,,,,2,,,57,0
112304,note_on,,104,0,11,,,,,,,,,,,,,,,14,,,57,0
112304,note_on,,104,0,6,,,,,,,,,,,,,,,1,,,84,0
112304,note_on,,104,0,8,,,,,,,,,,,,,,,11,,,84,0
112304,note_on,,104,0,9,,,,,,,,,,,,,,,12,,,72,0
112304,note_on,,104,0,10,,,,,,,,,,,,,,,13,,,64,0
112319,note_on,,0,0,12,,,,,,,,,,,,,,,15,,,72,0
112319,note_on,,119,0,12,,,,,,,,,,,,,,,15,,,57,0
112319,note_on,,0,0,12,,,,,,,,,,,,,,,15,,,76,0
112319,note_on,,0,0,12,,,,,,,,,,,,,,,15,,,69,0
112320,note_on,,16,0,5,,,,,,,,,,,,,,,0,,,86,76
112320,note_on,,16,0,9,,,,,,,,,,,,,,,12,,,71,76
112320,note_on,,16,0,10,,,,,,,,,,,,,,,13,,,62,76
112320,note_on,,16,0,11,,,,,,,,,,,,,,,14,,,59,76
112320,note_on,,0,0,12,,,,,,,,,,,,,,,15,,,71,76
112320,note_on,,0,0,12,,,,,,,,,,,,,,,15,,,74,76
112320,note_on,,0,0,12,,,,,,,,,,,,,,,15,,,79,76
112320,note_on,,16,0,8,,,,,,,,,,,,,,,11,,,86,76
112320,note_on,,16,0,6,,,,,,,,,,,,,,,1,,,86,76
112320,note_on,,16,0,7,,,,,,,,,,,,,,,2,,,59,76
112320,note_on,,1,0,12,,,,,,,,,,,,,,,15,,,59,76
112424,note_on,,104,0,9,,,,,,,,,,,,,,,12,,,71,0
112440,note_on,,16,0,9,,,,,,,,,,,,,,,12,,,72,76
112544,note_on,,104,0,9,,,,,,,,,,,,,,,12,,,72,0
112544,note_on,,224,0,10,,,,,,,,,,,,,,,13,,,62,0
112544,note_on,,224,0,11,,,,,,,,,,,,,,,14,,,59,0
112544,note_on,,224,0,8,,,,,,,,,,,,,,,11,,,86,0
112544,note_on,,224,0,6,,,,,,,,,,,,,,,1,,,86,0
112544,note_on,,224,0,7,,,,,,,,,,,,,,,2,,,59,0
112544,note_on,,224,0,5,,,,,,,,,,,,,,,0,,,86,0
112559,note_on,,239,0,12,,,,,,,,,,,,,,,15,,,59,0
112559,note_on,,0,0,12,,,,,,,,,,,,,,,15,,,71,0
112559,note_on,,0,0,12,,,,,,,,,,,,,,,15,,,74,0
112559,note_on,,0,0,12,,,,,,,,,,,,,,,15,,,79,0
112560,note_on,,16,0,5,,,,,,,,,,,,,,,0,,,80,76
112560,note_on,,16,0,7,,,,,,,,,,,,,,,2,,,59,76
112560,note_on,,16,0,11,,,,,,,,,,,,,,,14,,,59,76
112560,note_on,,16,0,8,,,,,,,,,,,,,,,11,,,80,76
112560,note_on,,16,0,6,,,,,,,,,,,,,,,1,,,80,76
112560,note_on,,0,0,12,,,,,,,,,,,,,,,15,,,71,76
112560,note_on,,0,0,12,,,,,,,,,,,,,,,15,,,80,76
112560,note_on,,16,0,9,,,,,,,,,,,,,,,12,,,71,76
112560,note_on,,16,0,10,,,,,,,,,,,,,,,13,,,62,76
112560,note_on,,0,0,12,,,,,,,,,,,,,,,15,,,74,76
112560,note_on,,1,0,12,,,,,,,,,,,,,,,15,,,59,76
112664,note_on,,104,0,11,,,,,,,,,,,,,,,14,,,59,0
112664,note_on,,104,0,7,,,,,,,,,,,,,,,2,,,59,0
112664,note_on,,104,0,9,,,,,,,,,,,,,,,12,,,71,0
112664,note_on,,104,0,8,,,,,,,,,,,,,,,11,,,80,0
112664,note_on,,104,0,10,,,,,,,,,,,,,,,13,,,62,0
112664,note_on,,104,0,5,,,,,,,,,,,,,,,0,,,80,0
112664,note_on,,104,0,6,,,,,,,,,,,,,,,1,,,80,0
112679,note_on,,0,0,12,,,,,,,,,,,,,,,15,,,74,0
112679,note_on,,0,0,12,,,,,,,,,,,,,,,15,,,80,0
112679,note_on,,119,0,12,,,,,,,,,,,,,,,15,,,59,0
112679,note_on,,0,0,12,,,,,,,,,,,,,,,15,,,71,0
112680,note_on,,1,0,12,,,,,,,,,,,,,,,15,,,60,76
112680,note_on,,0,0,12,,,,,,,,,,,,,,,15,,,80,76
112680,note_on,,0,0,12,,,,,,,,,,,,,,,15,,,76,76
112680,note_on,,16,0,10,,,,,,,,,,,,,,,13,,,64,76
112680,note_on,,16,0,8,,,,,,,,,,,,,,,11,,,81,76
112680,note_on,,0,0,12,,,,,,,,,,,,,,,15,,,72,76
112680,note_on,,16,0,9,,,,,,,,,,,,,,,12,,,69,76
112680,note_on,,16,0,6,,,,,,,,,,,,,,,1,,,81,76
112680,note_on,,16,0,11,,,,,,,,,,,,,,,14,,,60,76
112680,note_on,,16,0,7,,,,,,,,,,,,,,,2,,,60,76
112680,note_on,,16,0,5,,,,,,,,,,,,,,,0,,,81,76
112784,note_on,,104,0,8,,,,,,,,,,,,,,,11,,,81,0
112784,note_on,,104,0,10,,,,,,,,,,,,,,,13,,,64,0
112784,note_on,,104,0,6,,,,,,,,,,,,,,,1,,,81,0
112784,note_on,,104,0,5,,,,,,,,,,,,,,,0,,,81,0
112784,note_on,,104,0,7,,,,,,,,,,,,,,,2,,,60,0
112784,note_on,,104,0,11,,,,,,,,,,,,,,,14,,,60,0
112784,note_on,,104,0,9,,,,,,,,,,,,,,,12,,,69,0
112799,note_on,,0,0,12,,,,,,,,,,,,,,,15,,,80,0
112799,note_on,,0,0,12,,,,,,,,,,,,,,,15,,,76,0
112799,note_on,,0,0,12,,,,,,,,,,,,,,,15,,,72,0
112799,note_on,,119,0,12,,,,,,,,,,,,,,,15,,,60,0
112800,note_on,,16,0,5,,,,,,,,,,,,,,,0,,,83,76
112800,note_on,,16,0,7,,,,,,,,,,,,,,,2,,,62,76
112800,note_on,,0,0,12,,,,,,,,,,,,,,,15,,,74,76
112800,note_on,,16,0,9,,,,,,,,,,,,,,,12,,,68,76
112800,note_on,,0,0,12,,,,,,,,,,,,,,,15,,,77,76
112800,note_on,,16,0,8,,,,,,,,,,,,,,,11,,,83,76
112800,note_on,,1,0,12,,,,,,,,,,,,,,,15,,,80,76
112800,note_on,,0,0,12,,,,,,,,,,,,,,,15,,,62,76
112800,note_on,,16,0,11,,,,,,,,,,,,,,,14,,,62,76
112800,note_on,,16,0,10,,,,,,,,,,,,,,,13,,,65,76
112800,note_on,,16,0,6,,,,,,,,,,,,,,,1,,,83,76
113024,note_on,,224,0,10,,,,,,,,,,,,,,,13,,,65,0
113024,note_on,,224,0,5,,,,,,,,,,,,,,,0,,,83,0
113024,note_on,,224,0,9,,,,,,,,,,,,,,,12,,,68,0
113024,note_on,,224,0,8,,,,,,,,,,,,,,,11,,,83,0
113024,note_on,,224,0,6,,,,,,,,,,,,,,,1,,,83,0
113039,note_on,,239,0,11,,,,,,,,,,,,,,,14,,,62,0
113039,note_on,,239,0,7,,,,,,,,,,,,,,,2,,,62,0
113039,note_on,,0,0,12,,,,,,,,,,,,,,,15,,,74,0
113039,note_on,,0,0,12,,,,,,,,,,,,,,,15,,,62,0
113039,note_on,,0,0,12,,,,,,,,,,,,,,,15,,,77,0
113039,note_on,,239,0,12,,,,,,,,,,,,,,,15,,,80,0
113040,note_on,,16,0,10,,,,,,,,,,,,,,,13,,,59,76
113040,note_on,,16,0,5,,,,,,,,,,,,,,,0,,,74,76
113040,note_on,,16,0,6,,,,,,,,,,,,,,,1,,,74,76
113040,note_on,,16,0,9,,,,,,,,,,,,,,,12,,,59,76
113040,note_on,,16,0,8,,,,,,,,,,,,,,,11,,,74,76
113144,note_on,,104,0,10,,,,,,,,,,,,,,,13,,,59,0
113144,note_on,,104,0,5,,,,,,,,,,,,,,,0,,,74,0
113144,note_on,,104,0,9,,,,,,,,,,,,,,,12,,,59,0
113144,note_on,,104,0,6,,,,,,,,,,,,,,,1,,,74,0
113144,note_on,,104,0,8,,,,,,,,,,,,,,,11,,,74,0
113160,note_on,,16,0,10,,,,,,,,,,,,,,,13,,,60,76
113160,note_on,,16,0,8,,,,,,,,,,,,,,,11,,,76,76
113160,note_on,,16,0,9,,,,,,,,,,,,,,,12,,,60,76
113160,note_on,,16,0,5,,,,,,,,,,,,,,,0,,,76,76
113160,note_on,,16,0,6,,,,,,,,,,,,,,,1,,,76,76
113264,note_on,,104,0,8,,,,,,,,,,,,,,,11,,,76,0
113264,note_on,,104,0,5,,,,,,,,,,,,,,,0,,,76,0
113264,note_on,,104,0,10,,,,,,,,,,,,,,,13,,,60,0
113264,note_on,,104,0,9,,,,,,,,,,,,,,,12,,,60,0
113264,note_on,,104,0,6,,,,,,,,,,,,,,,1,,,76,0
113280,note_on,,16,0,5,,,,,,,,,,,,,,,0,,,77,76
113280,note_on,,16,0,10,,,,,,,,,,,,,,,13,,,62,76
113280,note_on,,16,0,9,,,,,,,,,,,,,,,12,,,62,76
113280,note_on,,16,0,6,,,,,,,,,,,,,,,1,,,77,76
113280,note_on,,16,0,8,,,,,,,,,,,,,,,11,,,77,76
113504,note_on,,224,0,10,,,,,,,,,,,,,,,13,,,62,0
113504,note_on,,224,0,9,,,,,,,,,,,,,,,12,,,62,0
113504,note_on,,224,0,5,,,,,,,,,,,,,,,0,,,77,0
113504,note_on,,224,0,8,,,,,,,,,,,,,,,11,,,77,0
113504,note_on,,224,0,6,,,,,,,,,,,,,,,1,,,77,0
113520,note_on,,16,0,5,,,,,,,,,,,,,,,0,,,71,76
113520,note_on,,16,0,9,,,,,,,,,,,,,,,12,,,62,76
113520,note_on,,16,0,8,,,,,,,,,,,,,,,11,,,71,76
113520,note_on,,16,0,6,,,,,,,,,,,,,,,1,,,71,76
113520,note_on,,16,0,10,,,,,,,,,,,,,,,13,,,62,76
113624,note_on,,104,0,9,,,,,,,,,,,,,,,12,,,62,0
113624,note_on,,104,0,5,,,,,,,,,,,,,,,0,,,71,0
113624,note_on,,104,0,8,,,,,,,,,,,,,,,11,,,71,0
113624,note_on,,104,0,6,,,,,,,,,,,,,,,1,,,71,0
113624,note_on,,104,0,10,,,,,,,,,,,,,,,13,,,62,0
113640,note_on,,16,0,5,,,,,,,,,,,,,,,0,,,72,76
113640,note_on,,16,0,6,,,,,,,,,,,,,,,1,,,72,76
113640,note_on,,16,0,10,,,,,,,,,,,,,,,13,,,64,76
113640,note_on,,16,0,8,,,,,,,,,,,,,,,11,,,72,76
113640,note_on,,16,0,9,,,,,,,,,,,,,,,12,,,64,76
113744,note_on,,104,0,10,,,,,,,,,,,,,,,13,,,64,0
113744,note_on,,104,0,6,,,,,,,,,,,,,,,1,,,72,0
113744,note_on,,104,0,8,,,,,,,,,,,,,,,11,,,72,0
113744,note_on,,104,0,9,,,,,,,,,,,,,,,12,,,64,0
113744,note_on,,104,0,5,,,,,,,,,,,,,,,0,,,72,0
113760,note_on,,16,0,5,,,,,,,,,,,,,,,0,,,74,76
113760,note_on,,16,0,6,,,,,,,,,,,,,,,1,,,74,76
113760,note_on,,16,0,8,,,,,,,,,,,,,,,11,,,74,76
113760,note_on,,16,0,10,,,,,,,,,,,,,,,13,,,65,76
113760,note_on,,16,0,9,,,,,,,,,,,,,,,12,,,65,76
113984,note_on,,224,0,5,,,,,,,,,,,,,,,0,,,74,0
113984,note_on,,224,0,6,,,,,,,,,,,,,,,1,,,74,0
113984,note_on,,224,0,10,,,,,,,,,,,,,,,13,,,65,0
113984,note_on,,224,0,9,,,,,,,,,,,,,,,12,,,65,0
113984,note_on,,224,0,8,,,,,,,,,,,,,,,11,,,74,0
114000,note_on,,0,0,12,,,,,,,,,,,,,,,15,,,62,76
114000,note_on,,16,0,5,,,,,,,,,,,,,,,0,,,68,76
114000,note_on,,0,0,12,,,,,,,,,,,,,,,15,,,71,76
114000,note_on,,0,0,12,,,,,,,,,,,,,,,15,,,68,76
114000,note_on,,961,0,12,,,,,,,,,,,,,,,15,,,64,76
114000,note_on,,16,0,10,,,,,,,,,,,,,,,13,,,59,76
114000,note_on,,0,0,12,,,,,,,,,,,,,,,15,,,50,76
114000,note_on,,16,0,6,,,,,,,,,,,,,,,1,,,68,76
114000,note_on,,16,0,9,,,,,,,,,,,,,,,12,,,64,76
114000,note_on,,961,0,11,,,,,,,,,,,,,,,14,,,50,76
114000,note_on,,16,0,8,,,,,,,,,,,,,,,11,,,68,76
114000,note_on,,961,0,7,,,,,,,,,,,,,,,2,,,50,76
114224,note_on,,224,0,7,,,,,,,,,,,,,,,2,,,50,0
114224,note_on,,224,0,5,,,,,,,,,,,,,,,0,,,68,0
114224,note_on,,224,0,10,,,,,,,,,,,,,,,13,,,59,0
114224,note_on,,224,0,9,,,,,,,,,,,,,,,12,,,64,0
114224,note_on,,224,0,6,,,,,,,,,,,,,,,1,,,68,0
114224,note_on,,224,0,8,,,,,,,,,,,,,,,11,,,68,0
114224,note_on,,224,0,11,,,,,,,,,,,,,,,14,,,50,0
114239,note_on,,0,0,12,,,,,,,,,,,,,,,15,,,62,0
114239,note_on,,0,0,12,,,,,,,,,,,,,,,15,,,71,0
114239,note_on,,0,0,12,,,,,,,,,,,,,,,15,,,68,0
114239,note_on,,239,0,12,,,,,,,,,,,,,,,15,,,64,0
114239,note_on,,0,0,12,,,,,,,,,,,,,,,15,,,50,0
114240,note_on,,0,0,12,,,,,,,,,,,,,,,15,,,48,76
114240,note_on,,0,0,12,,,,,,,,,,,,,,,15,,,64,76
114240,note_on,,16,0,7,,,,,,,,,,,,,,,2,,,48,76
114240,note_on,,0,0,12,,,,,,,,,,,,,,,15,,,60,76
114240,note_on,,1,0,12,,,,,,,,,,,,,,,15,,,69,76
114240,note_on,,16,0,6,,,,,,,,,,,,,,,1,,,69,76
114240,note_on,,16,0,10,,,,,,,,,,,,,,,13,,,60,76
114240,note_on,,16,0,5,,,,,,,,,,,,,,,0,,,69,76
114240,note_on,,16,0,8,,,,,,,,,,,,,,,11,,,69,76
114240,note_on,,16,0,9,,,,,,,,,,,,,,,12,,,64,76
114240,note_on,,16,0,11,,,,,,,,,,,,,,,14,,,48,76
114344,note_on,,104,0,7,,,,,,,,,,,,,,,2,,,48,0
114344,note_on,,104,0,11,,,,,,,,,,,,,,,14,,,48,0
114359,note_on,,0,0,12,,,,,,,,,,,,,,,15,,,48,0
114359,note_on,,0,0,12,,,,,,,,,,,,,,,15,,,60,0
114359,note_on,,0,0,12,,,,,,,,,,,,,,,15,,,64,0
114359,note_on,,119,0,12,,,,,,,,,,,,,,,15,,,69,0
114360,note_on,,0,0,12,,,,,,,,,,,,,,,15,,,65,76
114360,note_on,,16,0,7,,,,,,,,,,,,,,,2,,,47,76
114360,note_on,,16,0,11,,,,,,,,,,,,,,,14,,,47,76
114360,note_on,,0,0,12,,,,,,,,,,,,,,,15,,,47,76
114360,note_on,,1,0,12,,,,,,,,,,,,,,,15,,,62,76
114360,note_on,,0,0,12,,,,,,,,,,,,,,,15,,,59,76
114464,note_on,,224,0,9,,,,,,,,,,,,,,,12,,,64,0
114464,note_on,,104,0,7,,,,,,,,,,,,,,,2,,,47,0
114464,note_on,,104,0,11,,,,,,,,,,,,,,,14,,,47,0
114464,note_on,,224,0,10,,,,,,,,,,,,,,,13,,,60,0
114479,note_on,,0,0,12,,,,,,,,,,,,,,,15,,,65,0
114479,note_on,,0,0,12,,,,,,,,,,,,,,,15,,,59,0
114479,note_on,,119,0,12,,,,,,,,,,,,,,,15,,,62,0
114479,note_on,,0,0,12,,,,,,,,,,,,,,,15,,,47,0
114480,note_on,,16,0,10,,,,,,,,,,,,,,,13,,,64,76
114480,note_on,,16,0,11,,,,,,,,,,,,,,,14,,,48,76
114480,note_on,,16,0,7,,,,,,,,,,,,,,,2,,,48,76
114480,note_on,,1,0,12,,,,,,,,,,,,,,,15,,,48,76
114480,note_on,,0,0,12,,,,,,,,,,,,,,,15,,,64,76
114480,note_on,,0,0,12,,,,,,,,,,,,,,,15,,,60,76
114480,note_on,,0,0,12,,,,,,,,,,,,,,,15,,,69,76
114480,note_on,,16,0,9,,,,,,,,,,,,,,,12,,,69,76
114584,note_on,,344,0,8,,,,,,,,,,,,,,,11,,,69,0
114584,note_on,,104,0,7,,,,,,,,,,,,,,,2,,,48,0
114584,note_on,,344,0,5,,,,,,,,,,,,,,,0,,,69,0
114584,note_on,,104,0,11,,,,,,,,,,,,,,,14,,,48,0
114584,note_on,,344,0,6,,,,,,,,,,,,,,,1,,,69,0
114599,note_on,,0,0,12,,,,,,,,,,,,,,,15,,,64,0
114599,note_on,,0,0,12,,,,,,,,,,,,,,,15,,,69,0
114599,note_on,,119,0,12,,,,,,,,,,,,,,,15,,,48,0
114599,note_on,,0,0,12,,,,,,,,,,,,,,,15,,,60,0
114600,note_on,,16,0,7,,,,,,,,,,,,,,,2,,,50,76
114600,note_on,,16,0,11,,,,,,,,,,,,,,,14,,,50,76
114600,note_on,,16,0,5,,,,,,,,,,,,,,,0,,,71,76
114600,note_on,,0,0,12,,,,,,,,,,,,,,,15,,,50,76
114600,note_on,,0,0,12,,,,,,,,,,,,,,,15,,,65,76
114600,note_on,,0,0,12,,,,,,,,,,,,,,,15,,,62,76
114600,note_on,,1,0,12,,,,,,,,,,,,,,,15,,,69,76
114600,note_on,,16,0,6,,,,,,,,,,,,,,,1,,,71,76
114600,note_on,,16,0,8,,,,,,,,,,,,,,,11,,,71,76
114704,note_on,,224,0,9,,,,,,,,,,,,,,,12,,,69,0
114704,note_on,,104,0,11,,,,,,,,,,,,,,,14,,,50,0
114704,note_on,,104,0,6,,,,,,,,,,,,,,,1,,,71,0
114704,note_on,,104,0,7,,,,,,,,,,,,,,,2,,,50,0
114704,note_on,,224,0,10,,,,,,,,,,,,,,,13,,,64,0
114704,note_on,,104,0,8,,,,,,,,,,,,,,,11,,,71,0
114704,note_on,,104,0,5,,,,,,,,,,,,,,,0,,,71,0
114719,note_on,,119,0,12,,,,,,,,,,,,,,,15,,,69,0
114719,note_on,,0,0,12,,,,,,,,,,,,,,,15,,,62,0
114719,note_on,,0,0,12,,,,,,,,,,,,,,,15,,,65,0
114719,note_on,,0,0,12,,,,,,,,,,,,,,,15,,,50,0
114720,note_on,,16,0,7,,,,,,,,,,,,,,,2,,,52,76
114720,note_on,,16,0,6,,,,,,,,,,,,,,,1,,,71,76
114720,note_on,,16,0,5,,,,,,,,,,,,,,,0,,,71,76
114720,note_on,,16,0,11,,,,,,,,,,,,,,,14,,,52,76
114720,note_on,,16,0,8,,,,,,,,,,,,,,,11,,,71,76
114720,note_on,,16,0,9,,,,,,,,,,,,,,,12,,,68,76
114720,note_on,,1,0,12,,,,,,,,,,,,,,,15,,,68,76
114720,note_on,,0,0,12,,,,,,,,,,,,,,,15,,,52,76
114720,note_on,,16,0,10,,,,,,,,,,,,,,,13,,,64,76
114720,note_on,,0,0,12,,,,,,,,,,,,,,,15,,,64,76
114720,note_on,,0,0,12,,,,,,,,,,,,,,,15,,,71,76
114944,note_on,,224,0,10,,,,,,,,,,,,,,,13,,,64,0
114944,note_on,,224,0,11,,,,,,,,,,,,,,,14,,,52,0
114944,note_on,,224,0,7,,,,,,,,,,,,,,,2,,,52,0
114959,note_on,,0,0,12,,,,,,,,,,,,,,,15,,,71,0
114959,note_on,,0,0,12,,,,,,,,,,,,,,,15,,,64,0
114959,note_on,,239,0,12,,,,,,,,,,,,,,,15,,,68,0
114959,note_on,,0,0,12,,,,,,,,,,,,,,,15,,,52,0
114960,note_on,,0,0,12,,,,,,,,,,,,,,,15,,,56,76
114960,note_on,,0,0,12,,,,,,,,,,,,,,,15,,,40,76
114960,note_on,,1,0,12,,,,,,,,,,,,,,,15,,,59,76
114960,note_on,,16,0,11,,,,,,,,,,,,,,,14,,,40,76
114960,note_on,,16,0,10,,,,,,,,,,,,,,,13,,,59,76
114960,note_on,,16,0,7,,,,,,,,,,,,,,,2,,,40,76
114960,note_on,,0,0,12,,,,,,,,,,,,,,,15,,,52,76
115064,note_on,,344,0,5,,,,,,,,,,,,,,,0,,,71,0
115064,note_on,,344,0,8,,,,,,,,,,,,,,,11,,,71,0
115064,note_on,,344,0,9,,,,,,,,,,,,,,,12,,,68,0
115064,note_on,,344,0,6,,,,,,,,,,,,,,,1,,,71,0
115080,note_on,,16,0,6,,,,,,,,,,,,,,,1,,,69,76
115080,note_on,,16,0,9,,,,,,,,,,,,,,,12,,,64,76
115080,note_on,,16,0,8,,,,,,,,,,,,,,,11,,,69,76
115080,note_on,,16,0,5,,,,,,,,,,,,,,,0,,,69,76
115184,note_on,,104,0,6,,,,,,,,,,,,,,,1,,,69,0
115184,note_on,,104,0,5,,,,,,,,,,,,,,,0,,,69,0
115184,note_on,,224,0,7,,,,,,,,,,,,,,,2,,,40,0
115184,note_on,,224,0,11,,,,,,,,,,,,,,,14,,,40,0
115184,note_on,,224,0,10,,,,,,,,,,,,,,,13,,,59,0
115184,note_on,,104,0,9,,,,,,,,,,,,,,,12,,,64,0
115184,note_on,,104,0,8,,,,,,,,,,,,,,,11,,,69,0
115199,note_on,,0,0,12,,,,,,,,,,,,,,,15,,,40,0
115199,note_on,,0,0,12,,,,,,,,,,,,,,,15,,,56,0
115199,note_on,,0,0,12,,,,,,,,,,,,,,,15,,,52,0
115199,note_on,,239,0,12,,,,,,,,,,,,,,,15,,,59,0
115200,note_on,,16,0,8,,,,,,,,,,,,,,,11,,,69,76
115200,note_on,,0,0,12,,,,,,,,,,,,,,,15,,,45,76
115200,note_on,,16,0,6,,,,,,,,,,,,,,,1,,,69,76
115200,note_on,,0,0,12,,,,,,,,,,,,,,,15,,,57,76
115200,note_on,,16,0,7,,,,,,,,,,,,,,,2,,,45,76
115200,note_on,,16,0,11,,,,,,,,,,,,,,,14,,,45,76
115200,note_on,,1,0,12,,,,,,,,,,,,,,,15,,,64,76
115200,note_on,,16,0,9,,,,,,,,,,,,,,,12,,,64,76
115200,note_on,,16,0,5,,,,,,,,,,,,,,,0,,,69,76
115200,note_on,,0,0,12,,,,,,,,,,,,,,,15,,,60,76
115200,note_on,,16,0,10,,,,,,,,,,,,,,,13,,,60,76
115424,note_on,,224,0,11,,,,,,,,,,,,,,,14,,,45,0
115424,note_on,,224,0,7,,,,,,,,,,,,,,,2,,,45,0
115439,note_on,,0,0,12,,,,,,,,,,,,,,,15,,,45,0
115439,note_on,,0,0,12,,,,,,,,,,,,,,,15,,,57,0
115439,note_on,,0,0,12,,,,,,,,,,,,,,,15,,,60,0
115439,note_on,,239,0,12,,,,,,,,,,,,,,,15,,,64,0
115440,note_on,,0,0,12,,,,,,,,,,,,,,,15,,,64,76
115440,note_on,,16,0,11,,,,,,,,,,,,,,,14,,,52,76
115440,note_on,,0,0,12,,,,,,,,,,,,,,,15,,,67,76
115440,note_on,,0,0,12,,,,,,,,,,,,,,,15,,,71,76
115440,note_on,,1,0,12,,,,,,,,,,,,,,,15,,,52,76
115440,note_on,,16,0,7,,,,,,,,,,,,,,,2,,,52,76
115664,note_on,,224,0,11,,,,,,,,,,,,,,,14,,,52,0
115664,note_on,,224,0,7,,,,,,,,,,,,,,,2,,,52,0
115679,note_on,,239,0,12,,,,,,,,,,,,,,,15,,,52,0
115679,note_on,,0,0,12,,,,,,,,,,,,,,,15,,,71,0
115679,note_on,,0,0,12,,,,,,,,,,,,,,,15,,,64,0
115679,note_on,,0,0,12,,,,,,,,,,,,,,,15,,,67,0
115680,note_on,,0,0,12,,,,,,,,,,,,,,,15,,,69,76
115680,note_on,,16,0,7,,,,,,,,,,,,,,,2,,,57,76
115680,note_on,,0,0,12,,,,,,,,,,,,,,,15,,,76,76
115680,note_on,,16,0,11,,,,,,,,,,,,,,,14,,,57,76
115680,note_on,,0,0,12,,,,,,,,,,,,,,,15,,,72,76
115680,note_on,,1,0,12,,,,,,,,,,,,,,,15,,,57,76
115904,note_on,,704,0,5,,,,,,,,,,,,,,,0,,,69,0
115904,note_on,,704,0,6,,,,,,,,,,,,,,,1,,,69,0
115904,note_on,,704,0,8,,,,,,,,,,,,,,,11,,,69,0
115919,note_on,,239,0,12,,,,,,,,,,,,,,,15,,,57,0
115919,note_on,,239,0,11,,,,,,,,,,,,,,,14,,,57,0
115919,note_on,,0,0,12,,,,,,,,,,,,,,,15,,,69,0
115919,note_on,,0,0,12,,,,,,,,,,,,,,,15,,,76,0
115919,note_on,,239,0,7,,,,,,,,,,,,,,,2,,,57,0
115919,note_on,,719,0,10,,,,,,,,,,,,,,,13,,,60,0
115919,note_on,,719,0,9,,,,,,,,,,,,,,,12,,,64,0
115919,note_on,,0,0,12,,,,,,,,,,,,,,,15,,,72,0
115920,note_on,,16,0,8,,,,,,,,,,,,,,,11,,,76,76
115920,note_on,,16,0,5,,,,,,,,,,,,,,,0,,,76,76
115920,note_on,,16,0,6,,,,,,,,,,,,,,,1,,,76,76
116024,note_on,,104,0,8,,,,,,,,,,,,,,,11,,,76,0
116024,note_on,,104,0,5,,,,,,,,,,,,,,,0,,,76,0
116024,note_on,,104,0,6,,,,,,,,,,,,,,,1,,,76,0
116040,note_on,,16,0,8,,,,,,,,,,,,,,,11,,,77,76
116040,note_on,,16,0,5,,,,,,,,,,,,,,,0,,,77,76
116040,note_on,,16,0,6,,,,,,,,,,,,,,,1,,,77,76
116144,note_on,,104,0,8,,,,,,,,,,,,,,,11,,,77,0
116144,note_on,,104,0,5,,,,,,,,,,,,,,,0,,,77,0
116144,note_on,,104,0,6,,,,,,,,,,,,,,,1,,,77,0
116160,note_on,,16,0,5,,,,,,,,,,,,,,,0,,,79,76
116160,note_on,,16,0,8,,,,,,,,,,,,,,,11,,,79,76
116160,note_on,,16,0,6,,,,,,,,,,,,,,,1,,,79,76
116384,note_on,,224,0,6,,,,,,,,,,,,,,,1,,,79,0
116384,note_on,,224,0,5,,,,,,,,,,,,,,,0,,,79,0
116384,note_on,,224,0,8,,,,,,,,,,,,,,,11,,,79,0
116400,note_on,,16,0,5,,,,,,,,,,,,,,,0,,,84,76
116400,note_on,,0,0,12,,,,,,,,,,,,,,,15,,,60,76
116400,note_on,,481,0,10,,,,,,,,,,,,,,,13,,,64,76
116400,note_on,,481,0,7,,,,,,,,,,,,,,,2,,,48,76
116400,note_on,,16,0,8,,,,,,,,,,,,,,,11,,,84,76
116400,note_on,,16,0,6,,,,,,,,,,,,,,,1,,,84,76
116400,note_on,,0,0,12,,,,,,,,,,,,,,,15,,,64,76
116400,note_on,,481,0,9,,,,,,,,,,,,,,,12,,,79,76
116400,note_on,,0,0,12,,,,,,,,,,,,,,,15,,,67,76
116400,note_on,,481,0,12,,,,,,,,,,,,,,,15,,,48,76
116400,note_on,,481,0,11,,,,,,,,,,,,,,,14,,,48,76
116504,note_on,,104,0,10,,,,,,,,,,,,,,,13,,,64,0
116504,note_on,,104,0,7,,,,,,,,,,,,,,,2,,,48,0
116504,note_on,,104,0,9,,,,,,,,,,,,,,,12,,,79,0
116504,note_on,,104,0,11,,,,,,,,,,,,,,,14,,,48,0
116519,note_on,,0,0,12,,,,,,,,,,,,,,,15,,,64,0
116519,note_on,,119,0,12,,,,,,,,,,,,,,,15,,,48,0
116519,note_on,,0,0,12,,,,,,,,,,,,,,,15,,,67,0
116519,note_on,,0,0,12,,,,,,,,,,,,,,,15,,,60,0
116520,note_on,,16,0,9,,,,,,,,,,,,,,,12,,,77,76
116520,note_on,,1,0,12,,,,,,,,,,,,,,,15,,,65,76
116520,note_on,,0,0,12,,,,,,,,,,,,,,,15,,,62,76
116520,note_on,,0,0,12,,,,,,,,,,,,,,,15,,,50,76
116520,note_on,,0,0,12,,,,,,,,,,,,,,,15,,,69,76
116520,note_on,,16,0,7,,,,,,,,,,,,,,,2,,,50,76
116520,note_on,,16,0,10,,,,,,,,,,,,,,,13,,,65,76
116520,note_on,,16,0,11,,,,,,,,,,,,,,,14,,,50,76
116624,note_on,,104,0,7,,,,,,,,,,,,,,,2,,,50,0
116624,note_on,,104,0,10,,,,,,,,,,,,,,,13,,,65,0
116624,note_on,,104,0,11,,,,,,,,,,,,,,,14,,,50,0
116624,note_on,,104,0,9,,,,,,,,,,,,,,,12,,,77,0
116639,note_on,,119,0,12,,,,,,,,,,,,,,,15,,,65,0
116639,note_on,,0,0,12,,,,,,,,,,,,,,,15,,,50,0
116639,note_on,,0,0,12,,,,,,,,,,,,,,,15,,,69,0
116639,note_on,,0,0,12,,,,,,,,,,,,,,,15,,,62,0
116640,note_on,,16,0,9,,,,,,,,,,,,,,,12,,,76,76
116640,note_on,,16,0,11,,,,,,,,,,,,,,,14,,,52,76
116640,note_on,,16,0,10,,,,,,,,,,,,,,,13,,,67,76
116640,note_on,,1,0,12,,,,,,,,,,,,,,,15,,,64,76
116640,note_on,,0,0,12,,,,,,,,,,,,,,,15,,,52,76
116640,note_on,,0,0,12,,,,,,,,,,,,,,,15,,,72,76
116640,note_on,,0,0,12,,,,,,,,,,,,,,,15,,,67,76
116640,note_on,,16,0,7,,,,,,,,,,,,,,,2,,,52,76
116744,note_on,,104,0,9,,,,,,,,,,,,,,,12,,,76,0
116760,note_on,,16,0,9,,,,,,,,,,,,,,,12,,,74,76
116864,note_on,,224,0,7,,,,,,,,,,,,,,,2,,,52,0
116864,note_on,,464,0,6,,,,,,,,,,,,,,,1,,,84,0
116864,note_on,,464,0,8,,,,,,,,,,,,,,,11,,,84,0
116864,note_on,,224,0,10,,,,,,,,,,,,,,,13,,,67,0
116864,note_on,,224,0,11,,,,,,,,,,,,,,,14,,,52,0
116864,note_on,,464,0,5,,,,,,,,,,,,,,,0,,,84,0
116864,note_on,,104,0,9,,,,,,,,,,,,,,,12,,,74,0
116879,note_on,,0,0,12,,,,,,,,,,,,,,,15,,,72,0
116879,note_on,,239,0,12,,,,,,,,,,,,,,,15,,,64,0
116879,note_on,,0,0,12,,,,,,,,,,,,,,,15,,,67,0
116879,note_on,,0,0,12,,,,,,,,,,,,,,,15,,,52,0
116880,note_on,,16,0,7,,,,,,,,,,,,,,,2,,,52,76
116880,note_on,,16,0,8,,,,,,,,,,,,,,,11,,,79,76
116880,note_on,,16,0,5,,,,,,,,,,,,,,,0,,,79,76
116880,note_on,,16,0,6,,,,,,,,,,,,,,,1,,,79,76
116880,note_on,,0,0,12,,,,,,,,,,,,,,,15,,,67,76
116880,note_on,,16,0,10,,,,,,,,,,,,,,,13,,,67,76
116880,note_on,,0,0,12,,,,,,,,,,,,,,,15,,,52,76
116880,note_on,,16,0,9,,,,,,,,,,,,,,,12,,,76,76
116880,note_on,,1,0,12,,,,,,,,,,,,,,,15,,,64,76
116880,note_on,,16,0,11,,,,,,,,,,,,,,,14,,,52,76
116880,note_on,,0,0,12,,,,,,,,,,,,,,,15,,,72,76
116984,note_on,,104,0,11,,,,,,,,,,,,,,,14,,,52,0
116984,note_on,,104,0,9,,,,,,,,,,,,,,,12,,,76,0
116984,note_on,,104,0,10,,,,,,,,,,,,,,,13,,,67,0
116984,note_on,,104,0,7,,,,,,,,,,,,,,,2,,,52,0
116999,note_on,,0,0,12,,,,,,,,,,,,,,,15,,,52,0
116999,note_on,,0,0,12,,,,,,,,,,,,,,,15,,,72,0
116999,note_on,,0,0,12,,,,,,,,,,,,,,,15,,,67,0
116999,note_on,,119,0,12,,,,,,,,,,,,,,,15,,,64,0
117000,note_on,,16,0,10,,,,,,,,,,,,,,,13,,,69,76
117000,note_on,,16,0,9,,,,,,,,,,,,,,,12,,,72,76
117000,note_on,,16,0,11,,,,,,,,,,,,,,,14,,,53,76
117000,note_on,,16,0,7,,,,,,,,,,,,,,,2,,,53,76
117000,note_on,,0,0,12,,,,,,,,,,,,,,,15,,,53,76
117000,note_on,,1,0,12,,,,,,,,,,,,,,,15,,,65,76
117000,note_on,,0,0,12,,,,,,,,,,,,,,,15,,,72,76
117000,note_on,,0,0,12,,,,,,,,,,,,,,,15,,,69,76
117104,note_on,,104,0,10,,,,,,,,,,,,,,,13,,,69,0
117104,note_on,,104,0,7,,,,,,,,,,,,,,,2,,,53,0
117104,note_on,,224,0,5,,,,,,,,,,,,,,,0,,,79,0
117104,note_on,,224,0,8,,,,,,,,,,,,,,,11,,,79,0
117104,note_on,,104,0,9,,,,,,,,,,,,,,,12,,,72,0
117104,note_on,,104,0,11,,,,,,,,,,,,,,,14,,,53,0
117104,note_on,,224,0,6,,,,,,,,,,,,,,,1,,,79,0
117119,note_on,,0,0,12,,,,,,,,,,,,,,,15,,,69,0
117119,note_on,,0,0,12,,,,,,,,,,,,,,,15,,,53,0
117119,note_on,,0,0,12,,,,,,,,,,,,,,,15,,,72,0
117119,note_on,,119,0,12,,,,,,,,,,,,,,,15,,,65,0
117120,note_on,,16,0,8,,,,,,,,,,,,,,,11,,,76,76
117120,note_on,,0,0,12,,,,,,,,,,,,,,,15,,,76,76
117120,note_on,,16,0,7,,,,,,,,,,,,,,,2,,,55,76
117120,note_on,,16,0,10,,,,,,,,,,,,,,,13,,,70,76
117120,note_on,,0,0,12,,,,,,,,,,,,,,,15,,,55,76
117120,note_on,,16,0,6,,,,,,,,,,,,,,,1,,,76,76
117120,note_on,,1,0,12,,,,,,,,,,,,,,,15,,,70,76
117120,note_on,,16,0,5,,,,,,,,,,,,,,,0,,,76,76
117120,note_on,,16,0,9,,,,,,,,,,,,,,,12,,,70,76
117120,note_on,,0,0,12,,,,,,,,,,,,,,,15,,,67,76
117120,note_on,,16,0,11,,,,,,,,,,,,,,,14,,,55,76
117224,note_on,,104,0,10,,,,,,,,,,,,,,,13,,,70,0
117224,note_on,,104,0,5,,,,,,,,,,,,,,,0,,,76,0
117224,note_on,,104,0,9,,,,,,,,,,,,,,,12,,,70,0
117224,note_on,,104,0,8,,,,,,,,,,,,,,,11,,,76,0
117224,note_on,,104,0,6,,,,,,,,,,,,,,,1,,,76,0
117240,note_on,,16,0,10,,,,,,,,,,,,,,,13,,,69,76
117240,note_on,,16,0,5,,,,,,,,,,,,,,,0,,,74,76
117240,note_on,,16,0,8,,,,,,,,,,,,,,,11,,,74,76
117240,note_on,,16,0,6,,,,,,,,,,,,,,,1,,,74,76
117240,note_on,,16,0,9,,,,,,,,,,,,,,,12,,,72,76
117344,note_on,,104,0,8,,,,,,,,,,,,,,,11,,,74,0
117344,note_on,,104,0,6,,,,,,,,,,,,,,,1,,,74,0
117344,note_on,,104,0,9,,,,,,,,,,,,,,,12,,,72,0
117344,note_on,,224,0,11,,,,,,,,,,,,,,,14,,,55,0
117344,note_on,,104,0,5,,,,,,,,,,,,,,,0,,,74,0
117344,note_on,,224,0,7,,,,,,,,,,,,,,,2,,,55,0
117344,note_on,,104,0,10,,,,,,,,,,,,,,,13,,,69,0
117359,note_on,,0,0,12,,,,,,,,,,,,,,,15,,,76,0
117359,note_on,,0,0,12,,,,,,,,,,,,,,,15,,,67,0
117359,note_on,,239,0,12,,,,,,,,,,,,,,,15,,,70,0
117359,note_on,,0,0,12,,,,,,,,,,,,,,,15,,,55,0
117360,note_on,,1,0,12,,,,,,,,,,,,,,,15,,,76,76
117360,note_on,,16,0,7,,,,,,,,,,,,,,,2,,,55,76
117360,note_on,,0,0,12,,,,,,,,,,,,,,,15,,,67,76
117360,note_on,,0,0,12,,,,,,,,,,,,,,,15,,,70,76
117360,note_on,,0,0,12,,,,,,,,,,,,,,,15,,,55,76
117360,note_on,,16,0,8,,,,,,,,,,,,,,,11,,,76,76
117360,note_on,,16,0,9,,,,,,,,,,,,,,,12,,,70,76
117360,note_on,,16,0,6,,,,,,,,,,,,,,,1,,,76,76
117360,note_on,,16,0,5,,,,,,,,,,,,,,,0,,,76,76
117360,note_on,,16,0,10,,,,,,,,,,,,,,,13,,,67,76
117360,note_on,,16,0,11,,,,,,,,,,,,,,,14,,,55,76
117464,note_on,,104,0,6,,,,,,,,,,,,,,,1,,,76,0
117464,note_on,,104,0,5,,,,,,,,,,,,,,,0,,,76,0
117464,note_on,,104,0,10,,,,,,,,,,,,,,,13,,,67,0
117464,note_on,,104,0,11,,,,,,,,,,,,,,,14,,,55,0
117464,note_on,,104,0,7,,,,,,,,,,,,,,,2,,,55,0
117464,note_on,,104,0,9,,,,,,,,,,,,,,,12,,,70,0
117464,note_on,,104,0,8,,,,,,,,,,,,,,,11,,,76,0
117479,note_on,,0,0,12,,,,,,,,,,,,,,,15,,,55,0
117479,note_on,,0,0,12,,,,,,,,,,,,,,,15,,,67,0
117479,note_on,,119,0,12,,,,,,,,,,,,,,,15,,,76,0
117479,note_on,,0,0,12,,,,,,,,,,,,,,,15,,,70,0
117480,note_on,,16,0,10,,,,,,,,,,,,,,,13,,,65,76
117480,note_on,,0,0,12,,,,,,,,,,,,,,,15,,,57,76
117480,note_on,,1,0,12,,,,,,,,,,,,,,,15,,,72,76
117480,note_on,,16,0,11,,,,,,,,,,,,,,,14,,,57,76
117480,note_on,,16,0,9,,,,,,,,,,,,,,,12,,,69,76
117480,note_on,,0,0,12,,,,,,,,,,,,,,,15,,,69,76
117480,note_on,,16,0,7,,,,,,,,,,,,,,,2,,,57,76
117480,note_on,,16,0,5,,,,,,,,,,,,,,,0,,,77,76
117480,note_on,,16,0,8,,,,,,,,,,,,,,,11,,,77,76
117480,note_on,,16,0,6,,,,,,,,,,,,,,,1,,,77,76
117480,note_on,,0,0,12,,,,,,,,,,,,,,,15,,,76,76
117584,note_on,,104,0,11,,,,,,,,,,,,,,,14,,,57,0
117584,note_on,,104,0,8,,,,,,,,,,,,,,,11,,,77,0
117584,note_on,,104,0,5,,,,,,,,,,,,,,,0,,,77,0
117584,note_on,,104,0,10,,,,,,,,,,,,,,,13,,,65,0
117584,note_on,,104,0,9,,,,,,,,,,,,,,,12,,,69,0
117584,note_on,,104,0,6,,,,,,,,,,,,,,,1,,,77,0
117584,note_on,,104,0,7,,,,,,,,,,,,,,,2,,,57,0
117599,note_on,,0,0,12,,,,,,,,,,,,,,,15,,,69,0
117599,note_on,,0,0,12,,,,,,,,,,,,,,,15,,,57,0
117599,note_on,,0,0,12,,,,,,,,,,,,,,,15,,,76,0
117599,note_on,,119,0,12,,,,,,,,,,,,,,,15,,,72,0
117600,note_on,,16,0,11,,,,,,,,,,,,,,,14,,,58,76
117600,note_on,,16,0,7,,,,,,,,,,,,,,,2,,,58,76
117600,note_on,,16,0,9,,,,,,,,,,,,,,,12,,,67,76
117600,note_on,,16,0,8,,,,,,,,,,,,,,,11,,,79,76
117600,note_on,,16,0,5,,,,,,,,,,,,,,,0,,,79,76
117600,note_on,,0,0,12,,,,,,,,,,,,,,,15,,,58,76
117600,note_on,,16,0,10,,,,,,,,,,,,,,,13,,,64,76
117600,note_on,,0,0,12,,,,,,,,,,,,,,,15,,,77,76
117600,note_on,,0,0,12,,,,,,,,,,,,,,,15,,,74,76
117600,note_on,,16,0,6,,,,,,,,,,,,,,,1,,,79,76
117600,note_on,,1,0,12,,,,,,,,,,,,,,,15,,,70,76
117824,note_on,,224,0,8,,,,,,,,,,,,,,,11,,,79,0
117824,note_on,,224,0,11,,,,,,,,,,,,,,,14,,,58,0
117824,note_on,,224,0,7,,,,,,,,,,,,,,,2,,,58,0
117824,note_on,,224,0,5,,,,,,,,,,,,,,,0,,,79,0
117824,note_on,,224,0,10,,,,,,,,,,,,,,,13,,,64,0
117824,note_on,,224,0,6,,,,,,,,,,,,,,,1,,,79,0
117824,note_on,,224,0,9,,,,,,,,,,,,,,,12,,,67,0
117839,note_on,,239,0,12,,,,,,,,,,,,,,,15,,,70,0
117839,note_on,,0,0,12,,,,,,,,,,,,,,,15,,,74,0
117839,note_on,,0,0,12,,,,,,,,,,,,,,,15,,,58,0
117839,note_on,,0,0,12,,,,,,,,,,,,,,,15,,,77,0
117840,note_on,,16,0,6,,,,,,,,,,,,,,,1,,,70,76
117840,note_on,,16,0,9,,,,,,,,,,,,,,,12,,,67,76
117840,note_on,,16,0,11,,,,,,,,,,,,,,,14,,,52,76
117840,note_on,,16,0,8,,,,,,,,,,,,,,,11,,,70,76
117840,note_on,,16,0,5,,,,,,,,,,,,,,,0,,,70,76
117840,note_on,,16,0,7,,,,,,,,,,,,,,,2,,,52,76
117840,note_on,,16,0,10,,,,,,,,,,,,,,,13,,,60,76
117840,note_on,,0,0,12,,,,,,,,,,,,,,,15,,,52,76
117840,note_on,,0,0,12,,,,,,,,,,,,,,,15,,,67,76
117840,note_on,,0,0,12,,,,,,,,,,,,,,,15,,,64,76
117840,note_on,,1,0,12,,,,,,,,,,,,,,,15,,,70,76
117840,note_on,,0,0,12,,,,,,,,,,,,,,,15,,,72,76
118064,note_on,,224,0,8,,,,,,,,,,,,,,,11,,,70,0
118064,note_on,,224,0,11,,,,,,,,,,,,,,,14,,,52,0
118064,note_on,,224,0,5,,,,,,,,,,,,,,,0,,,70,0
118064,note_on,,224,0,9,,,,,,,,,,,,,,,12,,,67,0
118064,note_on,,224,0,10,,,,,,,,,,,,,,,13,,,60,0
118064,note_on,,224,0,6,,,,,,,,,,,,,,,1,,,70,0
118064,note_on,,224,0,7,,,,,,,,,,,,,,,2,,,52,0
118079,note_on,,0,0,12,,,,,,,,,,,,,,,15,,,67,0
118079,note_on,,0,0,12,,,,,,,,,,,,,,,15,,,72,0
118079,note_on,,239,0,12,,,,,,,,,,,,,,,15,,,70,0
118079,note_on,,0,0,12,,,,,,,,,,,,,,,15,,,52,0
118079,note_on,,0,0,12,,,,,,,,,,,,,,,15,,,64,0
118080,note_on,,16,0,5,,,,,,,,,,,,,,,0,,,69,76
118080,note_on,,16,0,11,,,,,,,,,,,,,,,14,,,53,76
118080,note_on,,16,0,6,,,,,,,,,,,,,,,1,,,69,76
118080,note_on,,16,0,9,,,,,,,,,,,,,,,12,,,65,76
118080,note_on,,16,0,7,,,,,,,,,,,,,,,2,,,53,76
118080,note_on,,1,0,12,,,,,,,,,,,,,,,15,,,65,76
118080,note_on,,0,0,12,,,,,,,,,,,,,,,15,,,72,76
118080,note_on,,0,0,12,,,,,,,,,,,,,,,15,,,69,76
118080,note_on,,16,0,10,,,,,,,,,,,,,,,13,,,60,76
118080,note_on,,16,0,8,,,,,,,,,,,,,,,11,,,69,76
118080,note_on,,0,0,12,,,,,,,,,,,,,,,15,,,53,76
118304,note_on,,224,0,10,,,,,,,,,,,,,,,13,,,60,0
118304,note_on,,224,0,9,,,,,,,,,,,,,,,12,,,65,0
118304,note_on,,224,0,11,,,,,,,,,,,,,,,14,,,53,0
118304,note_on,,224,0,8,,,,,,,,,,,,,,,11,,,69,0
118304,note_on,,224,0,7,,,,,,,,,,,,,,,2,,,53,0
118304,note_on,,224,0,6,,,,,,,,,,,,,,,1,,,69,0
118304,note_on,,224,0,5,,,,,,,,,,,,,,,0,,,69,0
118319,note_on,,239,0,12,,,,,,,,,,,,,,,15,,,65,0
118319,note_on,,0,0,12,,,,,,,,,,,,,,,15,,,72,0
118319,note_on,,0,0,12,,,,,,,,,,,,,,,15,,,53,0
118319,note_on,,0,0,12,,,,,,,,,,,,,,,15,,,69,0
118320,note_on,,0,0,12,,,,,,,,,,,,,,,15,,,62,76
118320,note_on,,0,0,12,,,,,,,,,,,,,,,15,,,65,76
118320,note_on,,16,0,5,,,,,,,,,,,,,,,0,,,74,76
118320,note_on,,16,0,11,,,,,,,,,,,,,,,14,,,46,76
118320,note_on,,1,0,12,,,,,,,,,,,,,,,15,,,58,76
118320,note_on,,0,0,12,,,,,,,,,,,,,,,15,,,46,76
118320,note_on,,16,0,9,,,,,,,,,,,,,,,12,,,65,76
118320,note_on,,16,0,6,,,,,,,,,,,,,,,1,,,74,76
118320,note_on,,16,0,10,,,,,,,,,,,,,,,13,,,58,76
118320,note_on,,16,0,8,,,,,,,,,,,,,,,11,,,74,76
118320,note_on,,16,0,7,,,,,,,,,,,,,,,2,,,46,76
118424,note_on,,104,0,6,,,,,,,,,,,,,,,1,,,74,0
118424,note_on,,104,0,8,,,,,,,,,,,,,,,11,,,74,0
118424,note_on,,104,0,10,,,,,,,,,,,,,,,13,,,58,0
118424,note_on,,104,0,5,,,,,,,,,,,,,,,0,,,74,0
118440,note_on,,16,0,5,,,,,,,,,,,,,,,0,,,72,76
118440,note_on,,16,0,6,,,,,,,,,,,,,,,1,,,72,76
118440,note_on,,16,0,10,,,,,,,,,,,,,,,13,,,60,76
118440,note_on,,16,0,8,,,,,,,,,,,,,,,11,,,72,76
118544,note_on,,104,0,10,,,,,,,,,,,,,,,13,,,60,0
118544,note_on,,104,0,5,,,,,,,,,,,,,,,0,,,72,0
118544,note_on,,224,0,7,,,,,,,,,,,,,,,2,,,46,0
118544,note_on,,104,0,8,,,,,,,,,,,,,,,11,,,72,0
118544,note_on,,104,0,6,,,,,,,,,,,,,,,1,,,72,0
118544,note_on,,224,0,9,,,,,,,,,,,,,,,12,,,65,0
118544,note_on,,224,0,11,,,,,,,,,,,,,,,14,,,46,0
118559,note_on,,239,0,12,,,,,,,,,,,,,,,15,,,58,0
118559,note_on,,0,0,12,,,,,,,,,,,,,,,15,,,46,0
118559,note_on,,0,0,12,,,,,,,,,,,,,,,15,,,65,0
118559,note_on,,0,0,12,,,,,,,,,,,,,,,15,,,62,0
118560,note_on,,16,0,6,,,,,,,,,,,,,,,1,,,70,76
118560,note_on,,16,0,8,,,,,,,,,,,,,,,11,,,70,76
118560,note_on,,16,0,10,,,,,,,,,,,,,,,13,,,62,76
118560,note_on,,0,0,12,,,,,,,,,,,,,,,15,,,65,76
118560,note_on,,0,0,12,,,,,,,,,,,,,,,15,,,62,76
118560,note_on,,16,0,5,,,,,,,,,,,,,,,0,,,70,76
118560,note_on,,0,0,12,,,,,,,,,,,,,,,15,,,58,76
118560,note_on,,0,0,12,,,,,,,,,,,,,,,15,,,55,76
118560,note_on,,16,0,11,,,,,,,,,,,,,,,14,,,43,76
118560,note_on,,16,0,9,,,,,,,,,,,,,,,12,,,65,76
118560,note_on,,16,0,7,,,,,,,,,,,,,,,2,,,43,76
118560,note_on,,1,0,12,,,,,,,,,,,,,,,15,,,43,76
118664,note_on,,104,0,6,,,,,,,,,,,,,,,1,,,70,0
118664,note_on,,104,0,5,,,,,,,,,,,,,,,0,,,70,0
118664,note_on,,104,0,8,,,,,,,,,,,,,,,11,,,70,0
118680,note_on,,16,0,5,,,,,,,,,,,,,,,0,,,69,76
118680,note_on,,16,0,6,,,,,,,,,,,,,,,1,,,69,76
118680,note_on,,16,0,8,,,,,,,,,,,,,,,11,,,69,76
118784,note_on,,224,0,7,,,,,,,,,,,,,,,2,,,43,0
118784,note_on,,104,0,8,,,,,,,,,,,,,,,11,,,69,0
118784,note_on,,104,0,5,,,,,,,,,,,,,,,0,,,69,0
118784,note_on,,104,0,6,,,,,,,,,,,,,,,1,,,69,0
118784,note_on,,224,0,10,,,,,,,,,,,,,,,13,,,62,0
118784,note_on,,224,0,9,,,,,,,,,,,,,,,12,,,65,0
118784,note_on,,224,0,11,,,,,,,,,,,,,,,14,,,43,0
118799,note_on,,0,0,12,,,,,,,,,,,,,,,15,,,62,0
118799,note_on,,0,0,12,,,,,,,,,,,,,,,15,,,58,0
118799,note_on,,239,0,12,,,,,,,,,,,,,,,15,,,43,0
118799,note_on,,0,0,12,,,,,,,,,,,,,,,15,,,55,0
118799,note_on,,0,0,12,,,,,,,,,,,,,,,15,,,65,0
118800,note_on,,1,0,12,,,,,,,,,,,,,,,15,,,70,76
118800,note_on,,0,0,12,,,,,,,,,,,,,,,15,,,67,76
118800,note_on,,0,0,12,,,,,,,,,,,,,,,15,,,64,76
118800,note_on,,0,0,12,,,,,,,,,,,,,,,15,,,48,76
118800,note_on,,0,0,12,,,,,,,,,,,,,,,15,,,60,76
118800,note_on,,16,0,11,,,,,,,,,,,,,,,14,,,48,76
118800,note_on,,16,0,5,,,,,,,,,,,,,,,0,,,70,76
118800,note_on,,16,0,8,,,,,,,,,,,,,,,11,,,70,76
118800,note_on,,16,0,9,,,,,,,,,,,,,,,12,,,64,76
118800,note_on,,16,0,7,,,,,,,,,,,,,,,2,,,48,76
118800,note_on,,16,0,6,,,,,,,,,,,,,,,1,,,70,76
118800,note_on,,16,0,10,,,,,,,,,,,,,,,13,,,60,76
118904,note_on,,104,0,8,,,,,,,,,,,,,,,11,,,70,0
118904,note_on,,104,0,6,,,,,,,,,,,,,,,1,,,70,0
118904,note_on,,104,0,5,,,,,,,,,,,,,,,0,,,70,0
118920,note_on,,16,0,8,,,,,,,,,,,,,,,11,,,67,76
118920,note_on,,16,0,5,,,,,,,,,,,,,,,0,,,67,76
118920,note_on,,16,0,6,,,,,,,,,,,,,,,1,,,67,76
119024,note_on,,224,0,11,,,,,,,,,,,,,,,14,,,48,0
119024,note_on,,104,0,5,,,,,,,,,,,,,,,0,,,67,0
119024,note_on,,224,0,10,,,,,,,,,,,,,,,13,,,60,0
119024,note_on,,224,0,9,,,,,,,,,,,,,,,12,,,64,0
119024,note_on,,224,0,7,,,,,,,,,,,,,,,2,,,48,0
119024,note_on,,104,0,6,,,,,,,,,,,,,,,1,,,67,0
119024,note_on,,104,0,8,,,,,,,,,,,,,,,11,,,67,0
119039,note_on,,0,0,12,,,,,,,,,,,,,,,15,,,48,0
119039,note_on,,0,0,12,,,,,,,,,,,,,,,15,,,60,0
119039,note_on,,0,0,12,,,,,,,,,,,,,,,15,,,67,0
119039,note_on,,239,0,12,,,,,,,,,,,,,,,15,,,70,0
119039,note_on,,0,0,12,,,,,,,,,,,,,,,15,,,64,0
119040,note_on,,1,0,12,,,,,,,,,,,,,,,15,,,60,76
119040,note_on,,0,0,12,,,,,,,,,,,,,,,15,,,53,76
119040,note_on,,0,0,12,,,,,,,,,,,,,,,15,,,41,76
119040,note_on,,0,0,12,,,,,,,,,,,,,,,15,,,57,76
119040,note_on,,16,0,6,,,,,,,,,,,,,,,1,,,69,76
119040,note_on,,16,0,9,,,,,,,,,,,,,,,12,,,65,76
119040,note_on,,16,0,7,,,,,,,,,,,,,,,2,,,41,76
119040,note_on,,16,0,5,,,,,,,,,,,,,,,0,,,69,76
119040,note_on,,16,0,10,,,,,,,,,,,,,,,13,,,60,76
119040,note_on,,16,0,11,,,,,,,,,,,,,,,14,,,41,76
119040,note_on,,16,0,8,,,,,,,,,,,,,,,11,,,69,76
119144,note_on,,104,0,6,,,,,,,,,,,,,,,1,,,69,0
119144,note_on,,104,0,10,,,,,,,,,,,,,,,13,,,60,0
119144,note_on,,104,0,8,,,,,,,,,,,,,,,11,,,69,0
119144,note_on,,104,0,5,,,,,,,,,,,,,,,0,,,69,0
119160,note_on,,16,0,6,,,,,,,,,,,,,,,1,,,70,76
119160,note_on,,16,0,8,,,,,,,,,,,,,,,11,,,70,76
119160,note_on,,16,0,10,,,,,,,,,,,,,,,13,,,62,76
119160,note_on,,16,0,5,,,,,,,,,,,,,,,0,,,70,76
119264,note_on,,224,0,11,,,,,,,,,,,,,,,14,,,41,0
119264,note_on,,104,0,10,,,,,,,,,,,,,,,13,,,62,0
119264,note_on,,104,0,5,,,,,,,,,,,,,,,0,,,70,0
119264,note_on,,224,0,7,,,,,,,,,,,,,,,2,,,41,0
119264,note_on,,224,0,9,,,,,,,,,,,,,,,12,,,65,0
119264,note_on,,104,0,6,,,,,,,,,,,,,,,1,,,70,0
119264,note_on,,104,0,8,,,,,,,,,,,,,,,11,,,70,0
119279,note_on,,0,0,12,,,,,,,,,,,,,,,15,,,57,0
119279,note_on,,0,0,12,,,,,,,,,,,,,,,15,,,53,0
119279,note_on,,239,0,12,,,,,,,,,,,,,,,15,,,60,0
119279,note_on,,0,0,12,,,,,,,,,,,,,,,15,,,41,0
119280,note_on,,16,0,8,,,,,,,,,,,,,,,11,,,69,76
119280,note_on,,16,0,7,,,,,,,,,,,,,,,2,,,53,76
119280,note_on,,16,0,5,,,,,,,,,,,,,,,0,,,69,76
119280,note_on,,1,0,12,,,,,,,,,,,,,,,15,,,53,76
119280,note_on,,16,0,9,,,,,,,,,,,,,,,12,,,60,76
119280,note_on,,0,0,12,,,,,,,,,,,,,,,15,,,69,76
119280,note_on,,0,0,12,,,,,,,,,,,,,,,15,,,65,76
119280,note_on,,16,0,11,,,,,,,,,,,,,,,14,,,53,76
119280,note_on,,16,0,6,,,,,,,,,,,,,,,1,,,69,76
119280,note_on,,0,0,12,,,,,,,,,,,,,,,15,,,72,76
119280,note_on,,16,0,10,,,,,,,,,,,,,,,13,,,60,76
119384,note_on,,104,0,11,,,,,,,,,,,,,,,14,,,53,0
119384,note_on,,104,0,10,,,,,,,,,,,,,,,13,,,60,0
119384,note_on,,104,0,6,,,,,,,,,,,,,,,1,,,69,0
119384,note_on,,104,0,7,,,,,,,,,,,,,,,2,,,53,0
119384,note_on,,104,0,8,,,,,,,,,,,,,,,11,,,69,0
119384,note_on,,104,0,5,,,,,,,,,,,,,,,0,,,69,0
119399,note_on,,119,0,12,,,,,,,,,,,,,,,15,,,53,0
119399,note_on,,0,0,12,,,,,,,,,,,,,,,15,,,69,0
119399,note_on,,0,0,12,,,,,,,,,,,,,,,15,,,72,0
119399,note_on,,0,0,12,,,,,,,,,,,,,,,15,,,65,0
119400,note_on,,16,0,11,,,,,,,,,,,,,,,14,,,55,76
119400,note_on,,16,0,8,,,,,,,,,,,,,,,11,,,67,76
119400,note_on,,16,0,5,,,,,,,,,,,,,,,0,,,67,76
119400,note_on,,16,0,10,,,,,,,,,,,,,,,13,,,58,76
119400,note_on,,0,0,12,,,,,,,,,,,,,,,15,,,55,76
119400,note_on,,16,0,6,,,,,,,,,,,,,,,1,,,67,76
119400,note_on,,0,0,12,,,,,,,,,,,,,,,15,,,74,76
119400,note_on,,0,0,12,,,,,,,,,,,,,,,15,,,71,76
119400,note_on,,1,0,12,,,,,,,,,,,,,,,15,,,67,76
119400,note_on,,16,0,7,,,,,,,,,,,,,,,2,,,55,76
119504,note_on,,104,0,10,,,,,,,,,,,,,,,13,,,58,0
119504,note_on,,104,0,6,,,,,,,,,,,,,,,1,,,67,0
119504,note_on,,224,0,9,,,,,,,,,,,,,,,12,,,60,0
119504,note_on,,104,0,7,,,,,,,,,,,,,,,2,,,55,0
119504,note_on,,104,0,5,,,,,,,,,,,,,,,0,,,67,0
119504,note_on,,104,0,11,,,,,,,,,,,,,,,14,,,55,0
119504,note_on,,104,0,8,,,,,,,,,,,,,,,11,,,67,0
119519,note_on,,119,0,12,,,,,,,,,,,,,,,15,,,67,0
119519,note_on,,0,0,12,,,,,,,,,,,,,,,15,,,55,0
119519,note_on,,0,0,12,,,,,,,,,,,,,,,15,,,74,0
119519,note_on,,0,0,12,,,,,,,,,,,,,,,15,,,71,0
119520,note_on,,0,0,12,,,,,,,,,,,,,,,15,,,69,76
119520,note_on,,16,0,10,,,,,,,,,,,,,,,13,,,57,76
119520,note_on,,0,0,12,,,,,,,,,,,,,,,15,,,72,76
119520,note_on,,0,0,12,,,,,,,,,,,,,,,15,,,57,76
119520,note_on,,16,0,6,,,,,,,,,,,,,,,1,,,65,76
119520,note_on,,16,0,9,,,,,,,,,,,,,,,12,,,60,76
119520,note_on,,16,0,11,,,,,,,,,,,,,,,14,,,57,76
119520,note_on,,1,0,12,,,,,,,,,,,,,,,15,,,77,76
119520,note_on,,16,0,8,,,,,,,,,,,,,,,11,,,65,76
119520,note_on,,16,0,7,,,,,,,,,,,,,,,2,,,57,76
119520,note_on,,16,0,5,,,,,,,,,,,,,,,0,,,65,76
119624,note_on,,104,0,11,,,,,,,,,,,,,,,14,,,57,0
119624,note_on,,104,0,7,,,,,,,,,,,,,,,2,,,57,0
119639,note_on,,0,0,12,,,,,,,,,,,,,,,15,,,57,0
119639,note_on,,0,0,12,,,,,,,,,,,,,,,15,,,72,0
119639,note_on,,0,0,12,,,,,,,,,,,,,,,15,,,69,0
119639,note_on,,119,0,12,,,,,,,,,,,,,,,15,,,77,0
119640,note_on,,0,0,12,,,,,,,,,,,,,,,15,,,70,76
119640,note_on,,0,0,12,,,,,,,,,,,,,,,15,,,58,76
119640,note_on,,0,0,12,,,,,,,,,,,,,,,15,,,77,76
119640,note_on,,1,0,12,,,,,,,,,,,,,,,15,,,74,76
119640,note_on,,16,0,7,,,,,,,,,,,,,,,2,,,58,76
119640,note_on,,16,0,11,,,,,,,,,,,,,,,14,,,58,76
119744,note_on,,104,0,11,,,,,,,,,,,,,,,14,,,58,0
119744,note_on,,224,0,8,,,,,,,,,,,,,,,11,,,65,0
119744,note_on,,224,0,5,,,,,,,,,,,,,,,0,,,65,0
119744,note_on,,104,0,7,,,,,,,,,,,,,,,2,,,58,0
119744,note_on,,224,0,9,,,,,,,,,,,,,,,12,,,60,0
119744,note_on,,224,0,6,,,,,,,,,,,,,,,1,,,65,0
119759,note_on,,0,0,12,,,,,,,,,,,,,,,15,,,77,0
119759,note_on,,119,0,12,,,,,,,,,,,,,,,15,,,74,0
119759,note_on,,239,0,10,,,,,,,,,,,,,,,13,,,57,0
119759,note_on,,0,0,12,,,,,,,,,,,,,,,15,,,58,0
119759,note_on,,0,0,12,,,,,,,,,,,,,,,15,,,70,0
119760,note_on,,16,0,6,,,,,,,,,,,,,,,1,,,77,76
119760,note_on,,16,0,11,,,,,,,,,,,,,,,14,,,57,76
119760,note_on,,16,0,9,,,,,,,,,,,,,,,12,,,62,76
119760,note_on,,0,0,12,,,,,,,,,,,,,,,15,,,72,76
119760,note_on,,1,0,12,,,,,,,,,,,,,,,15,,,77,76
119760,note_on,,16,0,7,,,,,,,,,,,,,,,2,,,57,76
119760,note_on,,0,0,12,,,,,,,,,,,,,,,15,,,69,76
119760,note_on,,16,0,5,,,,,,,,,,,,,,,0,,,77,76
119760,note_on,,0,0,12,,,,,,,,,,,,,,,15,,,57,76
119760,note_on,,16,0,8,,,,,,,,,,,,,,,11,,,77,76
119864,note_on,,104,0,6,,,,,,,,,,,,,,,1,,,77,0
119864,note_on,,104,0,7,,,,,,,,,,,,,,,2,,,57,0
119864,note_on,,104,0,9,,,,,,,,,,,,,,,12,,,62,0
119864,note_on,,104,0,5,,,,,,,,,,,,,,,0,,,77,0
119864,note_on,,104,0,11,,,,,,,,,,,,,,,14,,,57,0
119864,note_on,,104,0,8,,,,,,,,,,,,,,,11,,,77,0
119879,note_on,,119,0,12,,,,,,,,,,,,,,,15,,,77,0
119879,note_on,,0,0,12,,,,,,,,,,,,,,,15,,,72,0
119879,note_on,,0,0,12,,,,,,,,,,,,,,,15,,,69,0
119879,note_on,,0,0,12,,,,,,,,,,,,,,,15,,,57,0
119880,note_on,,16,0,6,,,,,,,,,,,,,,,1,,,79,76
119880,note_on,,16,0,7,,,,,,,,,,,,,,,2,,,55,76
119880,note_on,,16,0,11,,,,,,,,,,,,,,,14,,,55,76
119880,note_on,,16,0,9,,,,,,,,,,,,,,,12,,,64,76
119880,note_on,,0,0,12,,,,,,,,,,,,,,,15,,,70,76
119880,note_on,,16,0,8,,,,,,,,,,,,,,,11,,,79,76
119880,note_on,,16,0,5,,,,,,,,,,,,,,,0,,,79,76
119880,note_on,,1,0,12,,,,,,,,,,,,,,,15,,,55,76
119880,note_on,,0,0,12,,,,,,,,,,,,,,,15,,,67,76
119880,note_on,,0,0,12,,,,,,,,,,,,,,,15,,,74,76
119984,note_on,,104,0,7,,,,,,,,,,,,,,,2,,,55,0
119984,note_on,,104,0,8,,,,,,,,,,,,,,,11,,,79,0
119984,note_on,,104,0,5,,,,,,,,,,,,,,,0,,,79,0
119984,note_on,,104,0,6,,,,,,,,,,,,,,,1,,,79,0
119984,note_on,,104,0,11,,,,,,,,,,,,,,,14,,,55,0
119984,note_on,,104,0,9,,,,,,,,,,,,,,,12,,,64,0
119999,note_on,,119,0,12,,,,,,,,,,,,,,,15,,,55,0
119999,note_on,,0,0,12,,,,,,,,,,,,,,,15,,,67,0
119999,note_on,,0,0,12,,,,,,,,,,,,,,,15,,,74,0
119999,note_on,,0,0,12,,,,,,,,,,,,,,,15,,,70,0
120000,note_on,,16,0,6,,,,,,,,,,,,,,,1,,,81,76
120000,note_on,,0,0,12,,,,,,,,,,,,,,,15,,,65,76
120000,note_on,,16,0,5,,,,,,,,,,,,,,,0,,,81,76
120000,note_on,,16,0,7,,,,,,,,,,,,,,,2,,,53,76
120000,note_on,,0,0,12,,,,,,,,,,,,,,,15,,,69,76
120000,note_on,,0,0,12,,,,,,,,,,,,,,,15,,,72,76
120000,note_on,,1,0,12,,,,,,,,,,,,,,,15,,,53,76
120000,note_on,,16,0,11,,,,,,,,,,,,,,,14,,,53,76
120000,note_on,,16,0,8,,,,,,,,,,,,,,,11,,,81,76
120000,note_on,,16,0,9,,,,,,,,,,,,,,,12,,,65,76
120104,note_on,,104,0,7,,,,,,,,,,,,,,,2,,,53,0
120104,note_on,,104,0,11,,,,,,,,,,,,,,,14,,,53,0
120119,note_on,,0,0,12,,,,,,,,,,,,,,,15,,,65,0
120119,note_on,,0,0,12,,,,,,,,,,,,,,,15,,,69,0
120119,note_on,,0,0,12,,,,,,,,,,,,,,,15,,,72,0
120119,note_on,,119,0,12,,,,,,,,,,,,,,,15,,,53,0
120120,note_on,,16,0,7,,,,,,,,,,,,,,,2,,,55,76
120120,note_on,,0,0,12,,,,,,,,,,,,,,,15,,,74,76
120120,note_on,,1,0,12,,,,,,,,,,,,,,,15,,,67,76
120120,note_on,,0,0,12,,,,,,,,,,,,,,,15,,,55,76
120120,note_on,,16,0,11,,,,,,,,,,,,,,,14,,,55,76
120120,note_on,,0,0,12,,,,,,,,,,,,,,,15,,,71,76
120224,note_on,,224,0,9,,,,,,,,,,,,,,,12,,,65,0
120224,note_on,,224,0,6,,,,,,,,,,,,,,,1,,,81,0
120224,note_on,,104,0,11,,,,,,,,,,,,,,,14,,,55,0
120224,note_on,,104,0,7,,,,,,,,,,,,,,,2,,,55,0
120224,note_on,,224,0,8,,,,,,,,,,,,,,,11,,,81,0
120224,note_on,,224,0,5,,,,,,,,,,,,,,,0,,,81,0
120239,note_on,,0,0,12,,,,,,,,,,,,,,,15,,,55,0
120239,note_on,,0,0,12,,,,,,,,,,,,,,,15,,,71,0
120239,note_on,,0,0,12,,,,,,,,,,,,,,,15,,,74,0
120239,note_on,,119,0,12,,,,,,,,,,,,,,,15,,,67,0
120240,note_on,,16,0,11,,,,,,,,,,,,,,,14,,,53,76
120240,note_on,,1,0,12,,,,,,,,,,,,,,,15,,,69,76
120240,note_on,,0,0,12,,,,,,,,,,,,,,,15,,,65,76
120240,note_on,,16,0,7,,,,,,,,,,,,,,,2,,,53,76
120240,note_on,,0,0,12,,,,,,,,,,,,,,,15,,,72,76
120240,note_on,,16,0,6,,,,,,,,,,,,,,,1,,,74,76
120240,note_on,,16,0,9,,,,,,,,,,,,,,,12,,,65,76
120240,note_on,,16,0,5,,,,,,,,,,,,,,,0,,,74,76
120240,note_on,,16,0,8,,,,,,,,,,,,,,,11,,,74,76
120240,note_on,,0,0,12,,,,,,,,,,,,,,,15,,,53,76
120344,note_on,,104,0,9,,,,,,,,,,,,,,,12,,,65,0
120344,note_on,,104,0,6,,,,,,,,,,,,,,,1,,,74,0
120344,note_on,,104,0,7,,,,,,,,,,,,,,,2,,,53,0
120344,note_on,,104,0,5,,,,,,,,,,,,,,,0,,,74,0
120344,note_on,,104,0,8,,,,,,,,,,,,,,,11,,,74,0
120344,note_on,,104,0,11,,,,,,,,,,,,,,,14,,,53,0
120359,note_on,,119,0,12,,,,,,,,,,,,,,,15,,,69,0
120359,note_on,,0,0,12,,,,,,,,,,,,,,,15,,,65,0
120359,note_on,,0,0,12,,,,,,,,,,,,,,,15,,,72,0
120359,note_on,,0,0,12,,,,,,,,,,,,,,,15,,,53,0
120360,note_on,,16,0,7,,,,,,,,,,,,,,,2,,,52,76
120360,note_on,,16,0,8,,,,,,,,,,,,,,,11,,,76,76
120360,note_on,,1,0,12,,,,,,,,,,,,,,,15,,,64,76
120360,note_on,,0,0,12,,,,,,,,,,,,,,,15,,,67,76
120360,note_on,,16,0,6,,,,,,,,,,,,,,,1,,,76,76
120360,note_on,,0,0,12,,,,,,,,,,,,,,,15,,,71,76
120360,note_on,,16,0,11,,,,,,,,,,,,,,,14,,,52,76
120360,note_on,,0,0,12,,,,,,,,,,,,,,,15,,,52,76
120360,note_on,,16,0,5,,,,,,,,,,,,,,,0,,,76,76
120360,note_on,,16,0,9,,,,,,,,,,,,,,,12,,,67,76
120464,note_on,,104,0,9,,,,,,,,,,,,,,,12,,,67,0
120464,note_on,,104,0,11,,,,,,,,,,,,,,,14,,,52,0
120464,note_on,,104,0,7,,,,,,,,,,,,,,,2,,,52,0
120464,note_on,,104,0,5,,,,,,,,,,,,,,,0,,,76,0
120464,note_on,,104,0,8,,,,,,,,,,,,,,,11,,,76,0
120464,note_on,,104,0,6,,,,,,,,,,,,,,,1,,,76,0
120479,note_on,,119,0,12,,,,,,,,,,,,,,,15,,,64,0
120479,note_on,,0,0,12,,,,,,,,,,,,,,,15,,,71,0
120479,note_on,,0,0,12,,,,,,,,,,,,,,,15,,,52,0
120479,note_on,,0,0,12,,,,,,,,,,,,,,,15,,,67,0
120480,note_on,,0,0,12,,,,,,,,,,,,,,,15,,,62,76
120480,note_on,,0,0,12,,,,,,,,,,,,,,,15,,,65,76
120480,note_on,,16,0,8,,,,,,,,,,,,,,,11,,,77,76
120480,note_on,,16,0,7,,,,,,,,,,,,,,,2,,,50,76
120480,note_on,,1,0,12,,,,,,,,,,,,,,,15,,,50,76
120480,note_on,,16,0,5,,,,,,,,,,,,,,,0,,,77,76
120480,note_on,,16,0,11,,,,,,,,,,,,,,,14,,,50,76
120480,note_on,,16,0,9,,,,,,,,,,,,,,,12,,,69,76
120480,note_on,,16,0,6,,,,,,,,,,,,,,,1,,,77,76
120584,note_on,,104,0,11,,,,,,,,,,,,,,,14,,,50,0
120584,note_on,,104,0,7,,,,,,,,,,,,,,,2,,,50,0
120584,note_on,,104,0,9,,,,,,,,,,,,,,,12,,,69,0
120599,note_on,,0,0,12,,,,,,,,,,,,,,,15,,,62,0
120599,note_on,,119,0,12,,,,,,,,,,,,,,,15,,,50,0
120599,note_on,,0,0,12,,,,,,,,,,,,,,,15,,,65,0
120600,note_on,,0,0,12,,,,,,,,,,,,,,,15,,,67,76
120600,note_on,,16,0,11,,,,,,,,,,,,,,,14,,,52,76
120600,note_on,,0,0,12,,,,,,,,,,,,,,,15,,,64,76
120600,note_on,,16,0,7,,,,,,,,,,,,,,,2,,,52,76
120600,note_on,,0,0,12,,,,,,,,,,,,,,,15,,,71,76
120600,note_on,,1,0,12,,,,,,,,,,,,,,,15,,,52,76
120600,note_on,,16,0,9,,,,,,,,,,,,,,,12,,,67,76
120704,note_on,,224,0,6,,,,,,,,,,,,,,,1,,,77,0
120704,note_on,,224,0,8,,,,,,,,,,,,,,,11,,,77,0
120704,note_on,,104,0,9,,,,,,,,,,,,,,,12,,,67,0
120704,note_on,,104,0,11,,,,,,,,,,,,,,,14,,,52,0
120704,note_on,,224,0,5,,,,,,,,,,,,,,,0,,,77,0
120704,note_on,,104,0,7,,,,,,,,,,,,,,,2,,,52,0
120719,note_on,,119,0,12,,,,,,,,,,,,,,,15,,,52,0
120719,note_on,,0,0,12,,,,,,,,,,,,,,,15,,,71,0
120719,note_on,,0,0,12,,,,,,,,,,,,,,,15,,,64,0
120719,note_on,,0,0,12,,,,,,,,,,,,,,,15,,,67,0
120720,note_on,,16,0,11,,,,,,,,,,,,,,,14,,,50,76
120720,note_on,,16,0,7,,,,,,,,,,,,,,,2,,,50,76
120720,note_on,,16,0,6,,,,,,,,,,,,,,,1,,,71,76
120720,note_on,,16,0,5,,,,,,,,,,,,,,,0,,,71,76
120720,note_on,,16,0,9,,,,,,,,,,,,,,,12,,,65,76
120720,note_on,,961,0,10,,,,,,,,,,,,,,,13,,,55,76
120720,note_on,,16,0,8,,,,,,,,,,,,,,,11,,,71,76
120720,note_on,,0,0,12,,,,,,,,,,,,,,,15,,,62,76
120720,note_on,,0,0,12,,,,,,,,,,,,,,,15,,,50,76
120720,note_on,,1,0,12,,,,,,,,,,,,,,,15,,,65,76
120824,note_on,,104,0,7,,,,,,,,,,,,,,,2,,,50,0
120824,note_on,,104,0,6,,,,,,,,,,,,,,,1,,,71,0
120824,note_on,,104,0,11,,,,,,,,,,,,,,,14,,,50,0
120824,note_on,,104,0,9,,,,,,,,,,,,,,,12,,,65,0
120824,note_on,,104,0,5,,,,,,,,,,,,,,,0,,,71,0
120824,note_on,,104,0,10,,,,,,,,,,,,,,,13,,,55,0
120824,note_on,,104,0,8,,,,,,,,,,,,,,,11,,,71,0
120839,note_on,,119,0,12,,,,,,,,,,,,,,,15,,,65,0
120839,note_on,,0,0,12,,,,,,,,,,,,,,,15,,,50,0
120839,note_on,,0,0,12,,,,,,,,,,,,,,,15,,,62,0
120840,note_on,,16,0,5,,,,,,,,,,,,,,,0,,,72,76
120840,note_on,,16,0,10,,,,,,,,,,,,,,,13,,,57,76
120840,note_on,,16,0,8,,,,,,,,,,,,,,,11,,,72,76
120840,note_on,,16,0,9,,,,,,,,,,,,,,,12,,,64,76
120840,note_on,,16,0,11,,,,,,,,,,,,,,,14,,,48,76
120840,note_on,,16,0,6,,,,,,,,,,,,,,,1,,,72,76
120840,note_on,,0,0,12,,,,,,,,,,,,,,,15,,,67,76
120840,note_on,,1,0,12,,,,,,,,,,,,,,,15,,,48,76
120840,note_on,,0,0,12,,,,,,,,,,,,,,,15,,,64,76
120840,note_on,,0,0,12,,,,,,,,,,,,,,,15,,,60,76
120840,note_on,,16,0,7,,,,,,,,,,,,,,,2,,,48,76
120944,note_on,,104,0,8,,,,,,,,,,,,,,,11,,,72,0
120944,note_on,,104,0,9,,,,,,,,,,,,,,,12,,,64,0
120944,note_on,,104,0,7,,,,,,,,,,,,,,,2,,,48,0
120944,note_on,,104,0,6,,,,,,,,,,,,,,,1,,,72,0
120944,note_on,,104,0,11,,,,,,,,,,,,,,,14,,,48,0
120944,note_on,,104,0,10,,,,,,,,,,,,,,,13,,,57,0
120944,note_on,,104,0,5,,,,,,,,,,,,,,,0,,,72,0
120959,note_on,,119,0,12,,,,,,,,,,,,,,,15,,,48,0
120959,note_on,,0,0,12,,,,,,,,,,,,,,,15,,,64,0
120959,note_on,,0,0,12,,,,,,,,,,,,,,,15,,,60,0
120959,note_on,,0,0,12,,,,,,,,,,,,,,,15,,,67,0
120960,note_on,,16,0,6,,,,,,,,,,,,,,,1,,,74,76
120960,note_on,,0,0,12,,,,,,,,,,,,,,,15,,,47,76
120960,note_on,,16,0,9,,,,,,,,,,,,,,,12,,,62,76
120960,note_on,,1,0,12,,,,,,,,,,,,,,,15,,,59,76
120960,note_on,,16,0,11,,,,,,,,,,,,,,,14,,,47,76
120960,note_on,,0,0,12,,,,,,,,,,,,,,,15,,,62,76
120960,note_on,,0,0,12,,,,,,,,,,,,,,,15,,,65,76
120960,note_on,,16,0,7,,,,,,,,,,,,,,,2,,,47,76
120960,note_on,,16,0,10,,,,,,,,,,,,,,,13,,,59,76
120960,note_on,,16,0,5,,,,,,,,,,,,,,,0,,,74,76
120960,note_on,,16,0,8,,,,,,,,,,,,,,,11,,,74,76
121064,note_on,,104,0,7,,,,,,,,,,,,,,,2,,,47,0
121064,note_on,,104,0,9,,,,,,,,,,,,,,,12,,,62,0
121064,note_on,,104,0,11,,,,,,,,,,,,,,,14,,,47,0
121079,note_on,,0,0,12,,,,,,,,,,,,,,,15,,,65,0
121079,note_on,,0,0,12,,,,,,,,,,,,,,,15,,,47,0
121079,note_on,,0,0,12,,,,,,,,,,,,,,,15,,,62,0
121079,note_on,,119,0,12,,,,,,,,,,,,,,,15,,,59,0
121080,note_on,,1,0,12,,,,,,,,,,,,,,,15,,,64,76
121080,note_on,,0,0,12,,,,,,,,,,,,,,,15,,,60,76
121080,note_on,,0,0,12,,,,,,,,,,,,,,,15,,,67,76
121080,note_on,,0,0,12,,,,,,,,,,,,,,,15,,,48,76
121080,note_on,,16,0,11,,,,,,,,,,,,,,,14,,,48,76
121080,note_on,,16,0,7,,,,,,,,,,,,,,,2,,,48,76
121080,note_on,,16,0,9,,,,,,,,,,,,,,,12,,,64,76
121184,note_on,,224,0,6,,,,,,,,,,,,,,,1,,,74,0
121184,note_on,,104,0,7,,,,,,,,,,,,,,,2,,,48,0
121184,note_on,,224,0,5,,,,,,,,,,,,,,,0,,,74,0
121184,note_on,,104,0,11,,,,,,,,,,,,,,,14,,,48,0
121184,note_on,,104,0,9,,,,,,,,,,,,,,,12,,,64,0
121184,note_on,,224,0,10,,,,,,,,,,,,,,,13,,,59,0
121184,note_on,,224,0,8,,,,,,,,,,,,,,,11,,,74,0
121199,note_on,,0,0,12,,,,,,,,,,,,,,,15,,,48,0
121199,note_on,,0,0,12,,,,,,,,,,,,,,,15,,,67,0
121199,note_on,,0,0,12,,,,,,,,,,,,,,,15,,,60,0
121199,note_on,,119,0,12,,,,,,,,,,,,,,,15,,,64,0
121200,note_on,,16,0,6,,,,,,,,,,,,,,,1,,,67,76
121200,note_on,,16,0,10,,,,,,,,,,,,,,,13,,,59,76
121200,note_on,,16,0,11,,,,,,,,,,,,,,,14,,,47,76
121200,note_on,,16,0,8,,,,,,,,,,,,,,,11,,,67,76
121200,note_on,,16,0,7,,,,,,,,,,,,,,,2,,,47,76
121200,note_on,,16,0,9,,,,,,,,,,,,,,,12,,,62,76
121200,note_on,,1,0,12,,,,,,,,,,,,,,,15,,,59,76
121200,note_on,,0,0,12,,,,,,,,,,,,,,,15,,,47,76
121200,note_on,,0,0,12,,,,,,,,,,,,,,,15,,,65,76
121200,note_on,,0,0,12,,,,,,,,,,,,,,,15,,,62,76
121200,note_on,,16,0,5,,,,,,,,,,,,,,,0,,,67,76
121304,note_on,,104,0,11,,,,,,,,,,,,,,,14,,,47,0
121304,note_on,,104,0,9,,,,,,,,,,,,,,,12,,,62,0
121304,note_on,,104,0,7,,,,,,,,,,,,,,,2,,,47,0
121304,note_on,,104,0,10,,,,,,,,,,,,,,,13,,,59,0
121319,note_on,,0,0,12,,,,,,,,,,,,,,,15,,,62,0
121319,note_on,,0,0,12,,,,,,,,,,,,,,,15,,,65,0
121319,note_on,,0,0,12,,,,,,,,,,,,,,,15,,,47,0
121319,note_on,,119,0,12,,,,,,,,,,,,,,,15,,,59,0
121320,note_on,,16,0,11,,,,,,,,,,,,,,,14,,,45,76
121320,note_on,,16,0,7,,,,,,,,,,,,,,,2,,,45,76
121320,note_on,,1,0,12,,,,,,,,,,,,,,,15,,,60,76
121320,note_on,,0,0,12,,,,,,,,,,,,,,,15,,,64,76
121320,note_on,,0,0,12,,,,,,,,,,,,,,,15,,,57,76
121320,note_on,,16,0,9,,,,,,,,,,,,,,,12,,,60,76
121320,note_on,,16,0,10,,,,,,,,,,,,,,,13,,,60,76
121320,note_on,,0,0,12,,,,,,,,,,,,,,,15,,,45,76
121424,note_on,,104,0,7,,,,,,,,,,,,,,,2,,,45,0
121424,note_on,,104,0,11,,,,,,,,,,,,,,,14,,,45,0
121424,note_on,,224,0,8,,,,,,,,,,,,,,,11,,,67,0
121424,note_on,,224,0,6,,,,,,,,,,,,,,,1,,,67,0
121424,note_on,,104,0,9,,,,,,,,,,,,,,,12,,,60,0
121424,note_on,,224,0,5,,,,,,,,,,,,,,,0,,,67,0
121424,note_on,,104,0,10,,,,,,,,,,,,,,,13,,,60,0
121439,note_on,,0,0,12,,,,,,,,,,,,,,,15,,,45,0
121439,note_on,,0,0,12,,,,,,,,,,,,,,,15,,,57,0
121439,note_on,,0,0,12,,,,,,,,,,,,,,,15,,,64,0
121439,note_on,,119,0,12,,,,,,,,,,,,,,,15,,,60,0
121440,note_on,,16,0,8,,,,,,,,,,,,,,,11,,,79,76
121440,note_on,,16,0,7,,,,,,,,,,,,,,,2,,,43,76
121440,note_on,,16,0,10,,,,,,,,,,,,,,,13,,,62,76
121440,note_on,,16,0,5,,,,,,,,,,,,,,,0,,,79,76
121440,note_on,,16,0,6,,,,,,,,,,,,,,,1,,,79,76
121440,note_on,,16,0,9,,,,,,,,,,,,,,,12,,,59,76
121440,note_on,,1,0,12,,,,,,,,,,,,,,,15,,,55,76
121440,note_on,,0,0,12,,,,,,,,,,,,,,,15,,,59,76
121440,note_on,,0,0,12,,,,,,,,,,,,,,,15,,,43,76
121440,note_on,,0,0,12,,,,,,,,,,,,,,,15,,,62,76
121440,note_on,,16,0,11,,,,,,,,,,,,,,,14,,,43,76
121544,note_on,,104,0,11,,,,,,,,,,,,,,,14,,,43,0
121544,note_on,,104,0,7,,,,,,,,,,,,,,,2,,,43,0
121559,note_on,,0,0,12,,,,,,,,,,,,,,,15,,,43,0
121559,note_on,,0,0,12,,,,,,,,,,,,,,,15,,,59,0
121559,note_on,,119,0,12,,,,,,,,,,,,,,,15,,,55,0
121559,note_on,,0,0,12,,,,,,,,,,,,,,,15,,,62,0
121560,note_on,,16,0,7,,,,,,,,,,,,,,,2,,,45,76
121560,note_on,,1,0,12,,,,,,,,,,,,,,,15,,,60,76
121560,note_on,,0,0,12,,,,,,,,,,,,,,,15,,,45,76
121560,note_on,,0,0,12,,,,,,,,,,,,,,,15,,,64,76
121560,note_on,,0,0,12,,,,,,,,,,,,,,,15,,,57,76
121560,note_on,,16,0,11,,,,,,,,,,,,,,,14,,,45,76
121664,note_on,,224,0,8,,,,,,,,,,,,,,,11,,,79,0
121664,note_on,,224,0,5,,,,,,,,,,,,,,,0,,,79,0
121664,note_on,,224,0,9,,,,,,,,,,,,,,,12,,,59,0
121664,note_on,,104,0,7,,,,,,,,,,,,,,,2,,,45,0
121664,note_on,,104,0,11,,,,,,,,,,,,,,,14,,,45,0
121664,note_on,,224,0,6,,,,,,,,,,,,,,,1,,,79,0
121664,note_on,,224,0,10,,,,,,,,,,,,,,,13,,,62,0
121679,note_on,,119,0,12,,,,,,,,,,,,,,,15,,,60,0
121679,note_on,,0,0,12,,,,,,,,,,,,,,,15,,,45,0
121679,note_on,,0,0,12,,,,,,,,,,,,,,,15,,,64,0
121679,note_on,,0,0,12,,,,,,,,,,,,,,,15,,,57,0
121680,note_on,,16,0,5,,,,,,,,,,,,,,,0,,,71,76
121680,note_on,,0,0,12,,,,,,,,,,,,,,,15,,,43,76
121680,note_on,,16,0,10,,,,,,,,,,,,,,,13,,,62,76
121680,note_on,,16,0,11,,,,,,,,,,,,,,,14,,,43,76
121680,note_on,,16,0,9,,,,,,,,,,,,,,,12,,,67,76
121680,note_on,,0,0,12,,,,,,,,,,,,,,,15,,,55,76
121680,note_on,,1,0,12,,,,,,,,,,,,,,,15,,,62,76
121680,note_on,,16,0,6,,,,,,,,,,,,,,,1,,,71,76
121680,note_on,,0,0,12,,,,,,,,,,,,,,,15,,,59,76
121680,note_on,,16,0,7,,,,,,,,,,,,,,,2,,,43,76
121680,note_on,,16,0,8,,,,,,,,,,,,,,,11,,,71,76
121784,note_on,,104,0,11,,,,,,,,,,,,,,,14,,,43,0
121784,note_on,,104,0,7,,,,,,,,,,,,,,,2,,,43,0
121799,note_on,,119,0,12,,,,,,,,,,,,,,,15,,,62,0
121799,note_on,,0,0,12,,,,,,,,,,,,,,,15,,,55,0
121799,note_on,,0,0,12,,,,,,,,,,,,,,,15,,,59,0
121799,note_on,,0,0,12,,,,,,,,,,,,,,,15,,,43,0
121800,note_on,,0,0,12,,,,,,,,,,,,,,,15,,,53,76
121800,note_on,,0,0,12,,,,,,,,,,,,,,,15,,,60,76
121800,note_on,,16,0,11,,,,,,,,,,,,,,,14,,,41,76
121800,note_on,,0,0,12,,,,,,,,,,,,,,,15,,,41,76
121800,note_on,,16,0,7,,,,,,,,,,,,,,,2,,,41,76
121800,note_on,,1,0,12,,,,,,,,,,,,,,,15,,,57,76
121904,note_on,,224,0,6,,,,,,,,,,,,,,,1,,,71,0
121904,note_on,,224,0,9,,,,,,,,,,,,,,,12,,,67,0
121904,note_on,,224,0,5,,,,,,,,,,,,,,,0,,,71,0
121904,note_on,,104,0,11,,,,,,,,,,,,,,,14,,,41,0
121904,note_on,,224,0,8,,,,,,,,,,,,,,,11,,,71,0
121904,note_on,,104,0,7,,,,,,,,,,,,,,,2,,,41,0
121904,note_on,,224,0,10,,,,,,,,,,,,,,,13,,,62,0
121919,note_on,,119,0,12,,,,,,,,,,,,,,,15,,,57,0
121919,note_on,,0,0,12,,,,,,,,,,,,,,,15,,,60,0
121919,note_on,,0,0,12,,,,,,,,,,,,,,,15,,,41,0
121919,note_on,,0,0,12,,,,,,,,,,,,,,,15,,,53,0
121920,note_on,,16,0,11,,,,,,,,,,,,,,,14,,,40,76
121920,note_on,,16,0,9,,,,,,,,,,,,,,,12,,,67,76
121920,note_on,,16,0,10,,,,,,,,,,,,,,,13,,,64,76
121920,note_on,,0,0,12,,,,,,,,,,,,,,,15,,,40,76
121920,note_on,,0,0,12,,,,,,,,,,,,,,,15,,,55,76
121920,note_on,,0,0,12,,,,,,,,,,,,,,,15,,,59,76
121920,note_on,,16,0,7,,,,,,,,,,,,,,,2,,,40,76
121920,note_on,,16,0,8,,,,,,,,,,,,,,,11,,,72,76
121920,note_on,,16,0,5,,,,,,,,,,,,,,,0,,,72,76
121920,note_on,,16,0,6,,,,,,,,,,,,,,,1,,,72,76
121920,note_on,,1,0,12,,,,,,,,,,,,,,,15,,,52,76
122144,note_on,,224,0,7,,,,,,,,,,,,,,,2,,,40,0
122144,note_on,,224,0,9,,,,,,,,,,,,,,,12,,,67,0
122144,note_on,,224,0,10,,,,,,,,,,,,,,,13,,,64,0
122144,note_on,,224,0,11,,,,,,,,,,,,,,,14,,,40,0
122159,note_on,,239,0,12,,,,,,,,,,,,,,,15,,,52,0
122159,note_on,,0,0,12,,,,,,,,,,,,,,,15,,,40,0
122159,note_on,,0,0,12,,,,,,,,,,,,,,,15,,,55,0
122159,note_on,,0,0,12,,,,,,,,,,,,,,,15,,,59,0
122160,note_on,,16,0,7,,,,,,,,,,,,,,,2,,,41,76
122160,note_on,,16,0,10,,,,,,,,,,,,,,,13,,,69,76
122160,note_on,,16,0,9,,,,,,,,,,,,,,,12,,,72,76
122160,note_on,,0,0,12,,,,,,,,,,,,,,,15,,,53,76
122160,note_on,,1,0,12,,,,,,,,,,,,,,,15,,,60,76
122160,note_on,,0,0,12,,,,,,,,,,,,,,,15,,,41,76
122160,note_on,,0,0,12,,,,,,,,,,,,,,,15,,,57,76
122160,note_on,,16,0,11,,,,,,,,,,,,,,,14,,,41,76
122264,note_on,,344,0,5,,,,,,,,,,,,,,,0,,,72,0
122264,note_on,,344,0,8,,,,,,,,,,,,,,,11,,,72,0
122264,note_on,,344,0,6,,,,,,,,,,,,,,,1,,,72,0
122280,note_on,,16,0,5,,,,,,,,,,,,,,,0,,,74,76
122280,note_on,,16,0,6,,,,,,,,,,,,,,,1,,,74,76
122280,note_on,,16,0,8,,,,,,,,,,,,,,,11,,,74,76
122384,note_on,,104,0,5,,,,,,,,,,,,,,,0,,,74,0
122384,note_on,,224,0,9,,,,,,,,,,,,,,,12,,,72,0
122384,note_on,,104,0,6,,,,,,,,,,,,,,,1,,,74,0
122384,note_on,,224,0,7,,,,,,,,,,,,,,,2,,,41,0
122384,note_on,,104,0,8,,,,,,,,,,,,,,,11,,,74,0
122384,note_on,,224,0,10,,,,,,,,,,,,,,,13,,,69,0
122384,note_on,,224,0,11,,,,,,,,,,,,,,,14,,,41,0
122399,note_on,,0,0,12,,,,,,,,,,,,,,,15,,,41,0
122399,note_on,,0,0,12,,,,,,,,,,,,,,,15,,,53,0
122399,note_on,,0,0,12,,,,,,,,,,,,,,,15,,,57,0
122399,note_on,,239,0,12,,,,,,,,,,,,,,,15,,,60,0
122400,note_on,,16,0,5,,,,,,,,,,,,,,,0,,,74,76
122400,note_on,,16,0,10,,,,,,,,,,,,,,,13,,,67,76
122400,note_on,,16,0,9,,,,,,,,,,,,,,,12,,,71,76
122400,note_on,,16,0,6,,,,,,,,,,,,,,,1,,,74,76
122400,note_on,,16,0,8,,,,,,,,,,,,,,,11,,,74,76
122400,note_on,,16,0,11,,,,,,,,,,,,,,,14,,,43,76
122400,note_on,,0,0,12,,,,,,,,,,,,,,,15,,,43,76
122400,note_on,,1,0,12,,,,,,,,,,,,,,,15,,,55,76
122400,note_on,,0,0,12,,,,,,,,,,,,,,,15,,,59,76
122400,note_on,,0,0,12,,,,,,,,,,,,,,,15,,,62,76
122400,note_on,,16,0,7,,,,,,,,,,,,,,,2,,,43,76
122624,note_on,,224,0,7,,,,,,,,,,,,,,,2,,,43,0
122624,note_on,,224,0,11,,,,,,,,,,,,,,,14,,,43,0
122624,note_on,,224,0,9,,,,,,,,,,,,,,,12,,,71,0
122624,note_on,,224,0,10,,,,,,,,,,,,,,,13,,,67,0
122639,note_on,,239,0,12,,,,,,,,,,,,,,,15,,,55,0
122639,note_on,,0,0,12,,,,,,,,,,,,,,,15,,,43,0
122639,note_on,,0,0,12,,,,,,,,,,,,,,,15,,,62,0
122639,note_on,,0,0,12,,,,,,,,,,,,,,,15,,,59,0
122640,note_on,,1,0,12,,,,,,,,,,,,,,,15,,,59,76
122640,note_on,,16,0,10,,,,,,,,,,,,,,,13,,,62,76
122640,note_on,,0,0,12,,,,,,,,,,,,,,,15,,,55,76
122640,note_on,,16,0,9,,,,,,,,,,,,,,,12,,,67,76
122640,note_on,,0,0,12,,,,,,,,,,,,,,,15,,,62,76
122640,note_on,,16,0,11,,,,,,,,,,,,,,,14,,,43,76
122640,note_on,,0,0,12,,,,,,,,,,,,,,,15,,,43,76
122640,note_on,,16,0,7,,,,,,,,,,,,,,,2,,,43,76
122744,note_on,,344,0,6,,,,,,,,,,,,,,,1,,,74,0
122744,note_on,,344,0,5,,,,,,,,,,,,,,,0,,,74,0
122744,note_on,,344,0,8,,,,,,,,,,,,,,,11,,,74,0
122760,note_on,,16,0,5,,,,,,,,,,,,,,,0,,,72,76
122760,note_on,,16,0,6,,,,,,,,,,,,,,,1,,,72,76
122760,note_on,,16,0,8,,,,,,,,,,,,,,,11,,,72,76
122864,note_on,,224,0,9,,,,,,,,,,,,,,,12,,,67,0
122864,note_on,,224,0,10,,,,,,,,,,,,,,,13,,,62,0
122864,note_on,,224,0,11,,,,,,,,,,,,,,,14,,,43,0
122864,note_on,,104,0,6,,,,,,,,,,,,,,,1,,,72,0
122864,note_on,,104,0,5,,,,,,,,,,,,,,,0,,,72,0
122864,note_on,,224,0,7,,,,,,,,,,,,,,,2,,,43,0
122864,note_on,,104,0,8,,,,,,,,,,,,,,,11,,,72,0
122879,note_on,,0,0,12,,,,,,,,,,,,,,,15,,,43,0
122879,note_on,,0,0,12,,,,,,,,,,,,,,,15,,,55,0
122879,note_on,,0,0,12,,,,,,,,,,,,,,,15,,,62,0
122879,note_on,,239,0,12,,,,,,,,,,,,,,,15,,,59,0
122880,note_on,,0,0,12,,,,,,,,,,,,,,,15,,,52,76
122880,note_on,,16,0,8,,,,,,,,,,,,,,,11,,,72,76
122880,note_on,,16,0,11,,,,,,,,,,,,,,,14,,,36,76
122880,note_on,,16,0,7,,,,,,,,,,,,,,,2,,,36,76
122880,note_on,,0,0,12,,,,,,,,,,,,,,,15,,,48,76
122880,note_on,,0,0,12,,,,,,,,,,,,,,,15,,,36,76
122880,note_on,,16,0,9,,,,,,,,,,,,,,,12,,,67,76
122880,note_on,,1,0,12,,,,,,,,,,,,,,,15,,,55,76
122880,note_on,,16,0,10,,,,,,,,,,,,,,,13,,,64,76
122880,note_on,,16,0,5,,,,,,,,,,,,,,,0,,,72,76
122880,note_on,,16,0,6,,,,,,,,,,,,,,,1,,,72,76
123584,note_on,,704,0,5,,,,,,,,,,,,,,,0,,,72,0
123584,note_on,,704,0,8,,,,,,,,,,,,,,,11,,,72,0
123584,note_on,,704,0,6,,,,,,,,,,,,,,,1,,,72,0
123599,note_on,,719,0,10,,,,,,,,,,,,,,,13,,,64,0
123599,note_on,,719,0,11,,,,,,,,,,,,,,,14,,,36,0
123599,note_on,,719,0,7,,,,,,,,,,,,,,,2,,,36,0
123599,note_on,,0,0,12,,,,,,,,,,,,,,,15,,,36,0
123599,note_on,,0,0,12,,,,,,,,,,,,,,,15,,,52,0
123599,note_on,,719,0,12,,,,,,,,,,,,,,,15,,,55,0
123599,note_on,,0,0,12,,,,,,,,,,,,,,,15,,,48,0
123599,note_on,,719,0,9,,,,,,,,,,,,,,,12,,,67,0
123600,note_on,,16,0,5,,,,,,,,,,,,,,,0,,,71,76
123600,note_on,,16,0,8,,,,,,,,,,,,,,,11,,,71,76
123600,note_on,,16,0,6,,,,,,,,,,,,,,,1,,,71,76
123704,note_on,,104,0,8,,,,,,,,,,,,,,,11,,,71,0
123704,note_on,,104,0,6,,,,,,,,,,,,,,,1,,,71,0
123704,note_on,,104,0,5,,,,,,,,,,,,,,,0,,,71,0
123720,note_on,,16,0,6,,,,,,,,,,,,,,,1,,,72,76
123720,note_on,,16,0,8,,,,,,,,,,,,,,,11,,,72,76
123720,note_on,,16,0,5,,,,,,,,,,,,,,,0,,,72,76
123824,note_on,,104,0,5,,,,,,,,,,,,,,,0,,,72,0
123824,note_on,,104,0,8,,,,,,,,,,,,,,,11,,,72,0
123824,note_on,,104,0,6,,,,,,,,,,,,,,,1,,,72,0
123840,note_on,,16,0,6,,,,,,,,,,,,,,,1,,,74,76
123840,note_on,,16,0,5,,,,,,,,,,,,,,,0,,,74,76
123840,note_on,,16,0,8,,,,,,,,,,,,,,,11,,,74,76
124064,note_on,,224,0,5,,,,,,,,,,,,,,,0,,,74,0
124064,note_on,,224,0,8,,,,,,,,,,,,,,,11,,,74,0
124064,note_on,,224,0,6,,,,,,,,,,,,,,,1,,,74,0
124080,note_on,,481,0,10,,,,,,,,,,,,,,,13,,,71,76
124080,note_on,,0,0,12,,,,,,,,,,,,,,,15,,,74,76
124080,note_on,,0,0,12,,,,,,,,,,,,,,,15,,,67,76
124080,note_on,,0,0,12,,,,,,,,,,,,,,,15,,,71,76
124080,note_on,,481,0,12,,,,,,,,,,,,,,,15,,,55,76
124080,note_on,,481,0,11,,,,,,,,,,,,,,,14,,,55,76
124080,note_on,,481,0,9,,,,,,,,,,,,,,,12,,,74,76
124080,note_on,,481,0,7,,,,,,,,,,,,,,,2,,,55,76
124080,note_on,,16,0,6,,,,,,,,,,,,,,,1,,,79,76
124080,note_on,,16,0,8,,,,,,,,,,,,,,,11,,,79,76
124080,note_on,,16,0,5,,,,,,,,,,,,,,,0,,,79,76
124184,note_on,,104,0,7,,,,,,,,,,,,,,,2,,,55,0
124184,note_on,,104,0,10,,,,,,,,,,,,,,,13,,,71,0
124184,note_on,,104,0,11,,,,,,,,,,,,,,,14,,,55,0
124199,note_on,,0,0,12,,,,,,,,,,,,,,,15,,,74,0
124199,note_on,,119,0,12,,,,,,,,,,,,,,,15,,,55,0
124199,note_on,,0,0,12,,,,,,,,,,,,,,,15,,,71,0
124199,note_on,,0,0,12,,,,,,,,,,,,,,,15,,,67,0
124200,note_on,,16,0,10,,,,,,,,,,,,,,,13,,,69,76
124200,note_on,,16,0,11,,,,,,,,,,,,,,,14,,,53,76
124200,note_on,,16,0,7,,,,,,,,,,,,,,,2,,,53,76
124200,note_on,,0,0,12,,,,,,,,,,,,,,,15,,,53,76
124200,note_on,,1,0,12,,,,,,,,,,,,,,,15,,,65,76
124200,note_on,,0,0,12,,,,,,,,,,,,,,,15,,,69,76
124200,note_on,,0,0,12,,,,,,,,,,,,,,,15,,,72,76
124304,note_on,,104,0,10,,,,,,,,,,,,,,,13,,,69,0
124304,note_on,,104,0,11,,,,,,,,,,,,,,,14,,,53,0
124304,note_on,,104,0,7,,,,,,,,,,,,,,,2,,,53,0
124304,note_on,,224,0,9,,,,,,,,,,,,,,,12,,,74,0
124319,note_on,,119,0,12,,,,,,,,,,,,,,,15,,,65,0
124319,note_on,,0,0,12,,,,,,,,,,,,,,,15,,,72,0
124319,note_on,,0,0,12,,,,,,,,,,,,,,,15,,,53,0
124319,note_on,,0,0,12,,,,,,,,,,,,,,,15,,,69,0
124320,note_on,,16,0,11,,,,,,,,,,,,,,,14,,,52,76
124320,note_on,,16,0,10,,,,,,,,,,,,,,,13,,,67,76
124320,note_on,,0,0,12,,,,,,,,,,,,,,,15,,,67,76
124320,note_on,,16,0,9,,,,,,,,,,,,,,,12,,,73,76
124320,note_on,,16,0,7,,,,,,,,,,,,,,,2,,,52,76
124320,note_on,,0,0,12,,,,,,,,,,,,,,,15,,,71,76
124320,note_on,,1,0,12,,,,,,,,,,,,,,,15,,,52,76
124320,note_on,,0,0,12,,,,,,,,,,,,,,,15,,,64,76
124544,note_on,,224,0,11,,,,,,,,,,,,,,,14,,,52,0
124544,note_on,,464,0,6,,,,,,,,,,,,,,,1,,,79,0
124544,note_on,,224,0,7,,,,,,,,,,,,,,,2,,,52,0
124544,note_on,,464,0,8,,,,,,,,,,,,,,,11,,,79,0
124544,note_on,,224,0,10,,,,,,,,,,,,,,,13,,,67,0
124544,note_on,,464,0,5,,,,,,,,,,,,,,,0,,,79,0
124544,note_on,,224,0,9,,,,,,,,,,,,,,,12,,,73,0
124559,note_on,,0,0,12,,,,,,,,,,,,,,,15,,,64,0
124559,note_on,,0,0,12,,,,,,,,,,,,,,,15,,,67,0
124559,note_on,,0,0,12,,,,,,,,,,,,,,,15,,,71,0
124559,note_on,,239,0,12,,,,,,,,,,,,,,,15,,,52,0
124560,note_on,,16,0,7,,,,,,,,,,,,,,,2,,,55,76
124560,note_on,,16,0,8,,,,,,,,,,,,,,,11,,,82,76
124560,note_on,,16,0,6,,,,,,,,,,,,,,,1,,,82,76
124560,note_on,,16,0,5,,,,,,,,,,,,,,,0,,,82,76
124560,note_on,,16,0,9,,,,,,,,,,,,,,,12,,,74,76
124560,note_on,,1,0,12,,,,,,,,,,,,,,,15,,,70,76
124560,note_on,,16,0,11,,,,,,,,,,,,,,,14,,,55,76
124560,note_on,,0,0,12,,,,,,,,,,,,,,,15,,,74,76
124560,note_on,,0,0,12,,,,,,,,,,,,,,,15,,,55,76
124560,note_on,,0,0,12,,,,,,,,,,,,,,,15,,,67,76
124560,note_on,,16,0,10,,,,,,,,,,,,,,,13,,,65,76
124784,note_on,,224,0,5,,,,,,,,,,,,,,,0,,,82,0
124784,note_on,,224,0,6,,,,,,,,,,,,,,,1,,,82,0
124784,note_on,,224,0,7,,,,,,,,,,,,,,,2,,,55,0
124784,note_on,,224,0,10,,,,,,,,,,,,,,,13,,,65,0
124784,note_on,,224,0,8,,,,,,,,,,,,,,,11,,,82,0
124784,note_on,,224,0,11,,,,,,,,,,,,,,,14,,,55,0
124784,note_on,,224,0,9,,,,,,,,,,,,,,,12,,,74,0
124799,note_on,,0,0,12,,,,,,,,,,,,,,,15,,,74,0
124799,note_on,,0,0,12,,,,,,,,,,,,,,,15,,,67,0
124799,note_on,,0,0,12,,,,,,,,,,,,,,,15,,,55,0
124799,note_on,,239,0,12,,,,,,,,,,,,,,,15,,,70,0
124800,note_on,,0,0,12,,,,,,,,,,,,,,,15,,,69,76
124800,note_on,,0,0,12,,,,,,,,,,,,,,,15,,,57,76
124800,note_on,,0,0,12,,,,,,,,,,,,,,,15,,,76,76
124800,note_on,,1,0,12,,,,,,,,,,,,,,,15,,,73,76
124800,note_on,,16,0,9,,,,,,,,,,,,,,,12,,,69,76
124800,note_on,,16,0,5,,,,,,,,,,,,,,,0,,,73,76
124800,note_on,,16,0,6,,,,,,,,,,,,,,,1,,,73,76
124800,note_on,,16,0,8,,,,,,,,,,,,,,,11,,,73,76
124800,note_on,,16,0,10,,,,,,,,,,,,,,,13,,,64,76
124800,note_on,,16,0,11,,,,,,,,,,,,,,,14,,,57,76
124800,note_on,,16,0,7,,,,,,,,,,,,,,,2,,,57,76
124904,note_on,,104,0,6,,,,,,,,,,,,,,,1,,,73,0
124904,note_on,,104,0,10,,,,,,,,,,,,,,,13,,,64,0
124904,note_on,,104,0,8,,,,,,,,,,,,,,,11,,,73,0
124904,note_on,,104,0,9,,,,,,,,,,,,,,,12,,,69,0
124904,note_on,,104,0,5,,,,,,,,,,,,,,,0,,,73,0
124920,note_on,,16,0,10,,,,,,,,,,,,,,,13,,,62,76
124920,note_on,,16,0,9,,,,,,,,,,,,,,,12,,,67,76
124920,note_on,,16,0,8,,,,,,,,,,,,,,,11,,,71,76
124920,note_on,,16,0,5,,,,,,,,,,,,,,,0,,,71,76
124920,note_on,,16,0,6,,,,,,,,,,,,,,,1,,,71,76
125024,note_on,,104,0,6,,,,,,,,,,,,,,,1,,,71,0
125024,note_on,,224,0,11,,,,,,,,,,,,,,,14,,,57,0
125024,note_on,,104,0,5,,,,,,,,,,,,,,,0,,,71,0
125024,note_on,,104,0,9,,,,,,,,,,,,,,,12,,,67,0
125024,note_on,,104,0,10,,,,,,,,,,,,,,,13,,,62,0
125024,note_on,,224,0,7,,,,,,,,,,,,,,,2,,,57,0
125024,note_on,,104,0,8,,,,,,,,,,,,,,,11,,,71,0
125039,note_on,,239,0,12,,,,,,,,,,,,,,,15,,,73,0
125039,note_on,,0,0,12,,,,,,,,,,,,,,,15,,,76,0
125039,note_on,,0,0,12,,,,,,,,,,,,,,,15,,,57,0
125039,note_on,,0,0,12,,,,,,,,,,,,,,,15,,,69,0
125040,note_on,,16,0,7,,,,,,,,,,,,,,,2,,,45,76
125040,note_on,,1,0,12,,,,,,,,,,,,,,,15,,,45,76
125040,note_on,,16,0,11,,,,,,,,,,,,,,,14,,,45,76
125040,note_on,,0,0,12,,,,,,,,,,,,,,,15,,,57,76
125040,note_on,,16,0,10,,,,,,,,,,,,,,,13,,,64,76
125040,note_on,,0,0,12,,,,,,,,,,,,,,,15,,,64,76
125040,note_on,,0,0,12,,,,,,,,,,,,,,,15,,,61,76
125040,note_on,,16,0,6,,,,,,,,,,,,,,,1,,,73,76
125040,note_on,,16,0,5,,,,,,,,,,,,,,,0,,,73,76
125040,note_on,,16,0,8,,,,,,,,,,,,,,,11,,,73,76
125040,note_on,,16,0,9,,,,,,,,,,,,,,,12,,,69,76
125144,note_on,,104,0,6,,,,,,,,,,,,,,,1,,,73,0
125144,note_on,,104,0,8,,,,,,,,,,,,,,,11,,,73,0
125144,note_on,,104,0,10,,,,,,,,,,,,,,,13,,,64,0
125144,note_on,,104,0,9,,,,,,,,,,,,,,,12,,,69,0
125144,note_on,,104,0,5,,,,,,,,,,,,,,,0,,,73,0
125160,note_on,,16,0,9,,,,,,,,,,,,,,,12,,,71,76
125160,note_on,,16,0,10,,,,,,,,,,,,,,,13,,,65,76
125160,note_on,,16,0,5,,,,,,,,,,,,,,,0,,,74,76
125160,note_on,,16,0,8,,,,,,,,,,,,,,,11,,,74,76
125160,note_on,,16,0,6,,,,,,,,,,,,,,,1,,,74,76
125264,note_on,,104,0,9,,,,,,,,,,,,,,,12,,,71,0
125264,note_on,,104,0,8,,,,,,,,,,,,,,,11,,,74,0
125264,note_on,,104,0,6,,,,,,,,,,,,,,,1,,,74,0
125264,note_on,,224,0,7,,,,,,,,,,,,,,,2,,,45,0
125264,note_on,,104,0,10,,,,,,,,,,,,,,,13,,,65,0
125264,note_on,,224,0,11,,,,,,,,,,,,,,,14,,,45,0
125264,note_on,,104,0,5,,,,,,,,,,,,,,,0,,,74,0
125279,note_on,,239,0,12,,,,,,,,,,,,,,,15,,,45,0
125279,note_on,,0,0,12,,,,,,,,,,,,,,,15,,,61,0
125279,note_on,,0,0,12,,,,,,,,,,,,,,,15,,,64,0
125279,note_on,,0,0,12,,,,,,,,,,,,,,,15,,,57,0
125280,note_on,,16,0,10,,,,,,,,,,,,,,,13,,,64,76
125280,note_on,,16,0,6,,,,,,,,,,,,,,,1,,,76,76
125280,note_on,,16,0,11,,,,,,,,,,,,,,,14,,,57,76
125280,note_on,,16,0,9,,,,,,,,,,,,,,,12,,,73,76
125280,note_on,,0,0,12,,,,,,,,,,,,,,,15,,,76,76
125280,note_on,,16,0,5,,,,,,,,,,,,,,,0,,,76,76
125280,note_on,,16,0,7,,,,,,,,,,,,,,,2,,,57,76
125280,note_on,,16,0,8,,,,,,,,,,,,,,,11,,,76,76
125280,note_on,,0,0,12,,,,,,,,,,,,,,,15,,,57,76
125280,note_on,,0,0,12,,,,,,,,,,,,,,,15,,,69,76
125280,note_on,,1,0,12,,,,,,,,,,,,,,,15,,,73,76
125504,note_on,,224,0,9,,,,,,,,,,,,,,,12,,,73,0
125504,note_on,,224,0,6,,,,,,,,,,,,,,,1,,,76,0
125504,note_on,,224,0,11,,,,,,,,,,,,,,,14,,,57,0
125504,note_on,,224,0,7,,,,,,,,,,,,,,,2,,,57,0
125504,note_on,,224,0,10,,,,,,,,,,,,,,,13,,,64,0
125504,note_on,,224,0,5,,,,,,,,,,,,,,,0,,,76,0
125504,note_on,,224,0,8,,,,,,,,,,,,,,,11,,,76,0
125519,note_on,,0,0,12,,,,,,,,,,,,,,,15,,,76,0
125519,note_on,,0,0,12,,,,,,,,,,,,,,,15,,,69,0
125519,note_on,,239,0,12,,,,,,,,,,,,,,,15,,,73,0
125519,note_on,,0,0,12,,,,,,,,,,,,,,,15,,,57,0
125520,note_on,,16,0,6,,,,,,,,,,,,,,,1,,,77,76
125520,note_on,,16,0,9,,,,,,,,,,,,,,,12,,,74,76
125520,note_on,,16,0,7,,,,,,,,,,,,,,,2,,,55,76
125520,note_on,,16,0,10,,,,,,,,,,,,,,,13,,,57,76
125520,note_on,,1,0,12,,,,,,,,,,,,,,,15,,,55,76
125520,note_on,,0,0,12,,,,,,,,,,,,,,,15,,,74,76
125520,note_on,,0,0,12,,,,,,,,,,,,,,,15,,,67,76
125520,note_on,,16,0,11,,,,,,,,,,,,,,,14,,,55,76
125520,note_on,,0,0,12,,,,,,,,,,,,,,,15,,,71,76
125520,note_on,,16,0,8,,,,,,,,,,,,,,,11,,,77,76
125520,note_on,,16,0,5,,,,,,,,,,,,,,,0,,,77,76
125624,note_on,,104,0,6,,,,,,,,,,,,,,,1,,,77,0
125624,note_on,,104,0,8,,,,,,,,,,,,,,,11,,,77,0
125624,note_on,,104,0,9,,,,,,,,,,,,,,,12,,,74,0
125624,note_on,,104,0,5,,,,,,,,,,,,,,,0,,,77,0
125640,note_on,,16,0,6,,,,,,,,,,,,,,,1,,,79,76
125640,note_on,,16,0,5,,,,,,,,,,,,,,,0,,,79,76
125640,note_on,,16,0,8,,,,,,,,,,,,,,,11,,,79,76
125640,note_on,,16,0,9,,,,,,,,,,,,,,,12,,,76,76
125744,note_on,,224,0,11,,,,,,,,,,,,,,,14,,,55,0
125744,note_on,,104,0,8,,,,,,,,,,,,,,,11,,,79,0
125744,note_on,,224,0,10,,,,,,,,,,,,,,,13,,,57,0
125744,note_on,,224,0,7,,,,,,,,,,,,,,,2,,,55,0
125744,note_on,,104,0,9,,,,,,,,,,,,,,,12,,,76,0
125744,note_on,,104,0,5,,,,,,,,,,,,,,,0,,,79,0
125744,note_on,,104,0,6,,,,,,,,,,,,,,,1,,,79,0
125759,note_on,,0,0,12,,,,,,,,,,,,,,,15,,,74,0
125759,note_on,,0,0,12,,,,,,,,,,,,,,,15,,,67,0
125759,note_on,,0,0,12,,,,,,,,,,,,,,,15,,,71,0
125759,note_on,,239,0,12,,,,,,,,,,,,,,,15,,,55,0
125760,note_on,,1,0,12,,,,,,,,,,,,,,,15,,,65,76
125760,note_on,,0,0,12,,,,,,,,,,,,,,,15,,,69,76
125760,note_on,,0,0,12,,,,,,,,,,,,,,,15,,,74,76
125760,note_on,,16,0,8,,,,,,,,,,,,,,,11,,,81,76
125760,note_on,,16,0,5,,,,,,,,,,,,,,,0,,,81,76
125760,note_on,,16,0,11,,,,,,,,,,,,,,,14,,,53,76
125760,note_on,,16,0,6,,,,,,,,,,,,,,,1,,,81,76
125760,note_on,,16,0,7,,,,,,,,,,,,,,,2,,,53,76
125760,note_on,,0,0,12,,,,,,,,,,,,,,,15,,,53,76
125760,note_on,,16,0,10,,,,,,,,,,,,,,,13,,,62,76
125760,note_on,,16,0,9,,,,,,,,,,,,,,,12,,,77,76
125864,note_on,,104,0,6,,,,,,,,,,,,,,,1,,,81,0
125864,note_on,,104,0,8,,,,,,,,,,,,,,,11,,,81,0
125864,note_on,,104,0,5,,,,,,,,,,,,,,,0,,,81,0
125880,note_on,,16,0,8,,,,,,,,,,,,,,,11,,,79,76
125880,note_on,,16,0,6,,,,,,,,,,,,,,,1,,,79,76
125880,note_on,,16,0,5,,,,,,,,,,,,,,,0,,,79,76
125984,note_on,,104,0,5,,,,,,,,,,,,,,,0,,,79,0
125984,note_on,,224,0,11,,,,,,,,,,,,,,,14,,,53,0
125984,note_on,,224,0,10,,,,,,,,,,,,,,,13,,,62,0
125984,note_on,,224,0,7,,,,,,,,,,,,,,,2,,,53,0
125984,note_on,,104,0,8,,,,,,,,,,,,,,,11,,,79,0
125984,note_on,,224,0,9,,,,,,,,,,,,,,,12,,,77,0
125984,note_on,,104,0,6,,,,,,,,,,,,,,,1,,,79,0
125999,note_on,,0,0,12,,,,,,,,,,,,,,,15,,,69,0
125999,note_on,,0,0,12,,,,,,,,,,,,,,,15,,,53,0
125999,note_on,,239,0,12,,,,,,,,,,,,,,,15,,,65,0
125999,note_on,,0,0,12,,,,,,,,,,,,,,,15,,,74,0
126000,note_on,,1,0,12,,,,,,,,,,,,,,,15,,,71,76
126000,note_on,,0,0,12,,,,,,,,,,,,,,,15,,,76,76
126000,note_on,,0,0,12,,,,,,,,,,,,,,,15,,,67,76
126000,note_on,,0,0,12,,,,,,,,,,,,,,,15,,,55,76
126000,note_on,,16,0,9,,,,,,,,,,,,,,,12,,,76,76
126000,note_on,,16,0,6,,,,,,,,,,,,,,,1,,,81,76
126000,note_on,,16,0,7,,,,,,,,,,,,,,,2,,,55,76
126000,note_on,,16,0,8,,,,,,,,,,,,,,,11,,,81,76
126000,note_on,,16,0,10,,,,,,,,,,,,,,,13,,,67,76
126000,note_on,,16,0,5,,,,,,,,,,,,,,,0,,,81,76
126000,note_on,,16,0,11,,,,,,,,,,,,,,,14,,,55,76
126104,note_on,,104,0,6,,,,,,,,,,,,,,,1,,,81,0
126104,note_on,,104,0,9,,,,,,,,,,,,,,,12,,,76,0
126104,note_on,,104,0,5,,,,,,,,,,,,,,,0,,,81,0
126104,note_on,,104,0,8,,,,,,,,,,,,,,,11,,,81,0
126120,note_on,,16,0,6,,,,,,,,,,,,,,,1,,,82,76
126120,note_on,,16,0,5,,,,,,,,,,,,,,,0,,,82,76
126120,note_on,,16,0,8,,,,,,,,,,,,,,,11,,,82,76
126120,note_on,,16,0,9,,,,,,,,,,,,,,,12,,,74,76
126224,note_on,,104,0,5,,,,,,,,,,,,,,,0,,,82,0
126224,note_on,,104,0,9,,,,,,,,,,,,,,,12,,,74,0
126224,note_on,,104,0,8,,,,,,,,,,,,,,,11,,,82,0
126224,note_on,,224,0,7,,,,,,,,,,,,,,,2,,,55,0
126224,note_on,,224,0,10,,,,,,,,,,,,,,,13,,,67,0
126224,note_on,,104,0,6,,,,,,,,,,,,,,,1,,,82,0
126224,note_on,,224,0,11,,,,,,,,,,,,,,,14,,,55,0
126239,note_on,,0,0,12,,,,,,,,,,,,,,,15,,,55,0
126239,note_on,,0,0,12,,,,,,,,,,,,,,,15,,,67,0
126239,note_on,,0,0,12,,,,,,,,,,,,,,,15,,,76,0
126239,note_on,,239,0,12,,,,,,,,,,,,,,,15,,,71,0
126240,note_on,,16,0,7,,,,,,,,,,,,,,,2,,,57,76
126240,note_on,,16,0,6,,,,,,,,,,,,,,,1,,,81,76
126240,note_on,,0,0,12,,,,,,,,,,,,,,,15,,,57,76
126240,note_on,,0,0,12,,,,,,,,,,,,,,,15,,,76,76
126240,note_on,,0,0,12,,,,,,,,,,,,,,,15,,,69,76
126240,note_on,,1,0,12,,,,,,,,,,,,,,,15,,,73,76
126240,note_on,,16,0,5,,,,,,,,,,,,,,,0,,,81,76
126240,note_on,,16,0,10,,,,,,,,,,,,,,,13,,,64,76
126240,note_on,,16,0,8,,,,,,,,,,,,,,,11,,,81,76
126240,note_on,,16,0,11,,,,,,,,,,,,,,,14,,,57,76
126240,note_on,,16,0,9,,,,,,,,,,,,,,,12,,,73,76
126344,note_on,,104,0,5,,,,,,,,,,,,,,,0,,,81,0
126344,note_on,,104,0,8,,,,,,,,,,,,,,,11,,,81,0
126344,note_on,,104,0,6,,,,,,,,,,,,,,,1,,,81,0
126360,note_on,,16,0,5,,,,,,,,,,,,,,,0,,,79,76
126360,note_on,,16,0,6,,,,,,,,,,,,,,,1,,,79,76
126360,note_on,,16,0,8,,,,,,,,,,,,,,,11,,,79,76
126464,note_on,,224,0,10,,,,,,,,,,,,,,,13,,,64,0
126464,note_on,,224,0,7,,,,,,,,,,,,,,,2,,,57,0
126464,note_on,,104,0,6,,,,,,,,,,,,,,,1,,,79,0
126464,note_on,,224,0,11,,,,,,,,,,,,,,,14,,,57,0
126464,note_on,,104,0,5,,,,,,,,,,,,,,,0,,,79,0
126464,note_on,,104,0,8,,,,,,,,,,,,,,,11,,,79,0
126464,note_on,,224,0,9,,,,,,,,,,,,,,,12,,,73,0
126479,note_on,,0,0,12,,,,,,,,,,,,,,,15,,,69,0
126479,note_on,,239,0,12,,,,,,,,,,,,,,,15,,,73,0
126479,note_on,,0,0,12,,,,,,,,,,,,,,,15,,,76,0
126479,note_on,,0,0,12,,,,,,,,,,,,,,,15,,,57,0
126480,note_on,,16,0,7,,,,,,,,,,,,,,,2,,,45,76
126480,note_on,,16,0,10,,,,,,,,,,,,,,,13,,,69,76
126480,note_on,,16,0,8,,,,,,,,,,,,,,,11,,,77,76
126480,note_on,,16,0,6,,,,,,,,,,,,,,,1,,,77,76
126480,note_on,,0,0,12,,,,,,,,,,,,,,,15,,,45,76
126480,note_on,,16,0,9,,,,,,,,,,,,,,,12,,,73,76
126480,note_on,,0,0,12,,,,,,,,,,,,,,,15,,,64,76
126480,note_on,,1,0,12,,,,,,,,,,,,,,,15,,,57,76
126480,note_on,,16,0,5,,,,,,,,,,,,,,,0,,,77,76
126480,note_on,,16,0,11,,,,,,,,,,,,,,,14,,,45,76
126480,note_on,,0,0,12,,,,,,,,,,,,,,,15,,,61,76
126584,note_on,,104,0,6,,,,,,,,,,,,,,,1,,,77,0
126584,note_on,,104,0,8,,,,,,,,,,,,,,,11,,,77,0
126584,note_on,,104,0,5,,,,,,,,,,,,,,,0,,,77,0
126600,note_on,,16,0,8,,,,,,,,,,,,,,,11,,,76,76
126600,note_on,,16,0,5,,,,,,,,,,,,,,,0,,,76,76
126600,note_on,,16,0,6,,,,,,,,,,,,,,,1,,,76,76
126704,note_on,,224,0,10,,,,,,,,,,,,,,,13,,,69,0
126704,note_on,,224,0,11,,,,,,,,,,,,,,,14,,,45,0
126704,note_on,,104,0,6,,,,,,,,,,,,,,,1,,,76,0
126704,note_on,,104,0,5,,,,,,,,,,,,,,,0,,,76,0
126704,note_on,,224,0,9,,,,,,,,,,,,,,,12,,,73,0
126704,note_on,,224,0,7,,,,,,,,,,,,,,,2,,,45,0
126704,note_on,,104,0,8,,,,,,,,,,,,,,,11,,,76,0
126719,note_on,,239,0,12,,,,,,,,,,,,,,,15,,,57,0
126719,note_on,,0,0,12,,,,,,,,,,,,,,,15,,,61,0
126719,note_on,,0,0,12,,,,,,,,,,,,,,,15,,,45,0
126719,note_on,,0,0,12,,,,,,,,,,,,,,,15,,,64,0
126720,note_on,,0,0,12,,,,,,,,,,,,,,,15,,,65,76
126720,note_on,,0,0,12,,,,,,,,,,,,,,,15,,,62,76
126720,note_on,,0,0,12,,,,,,,,,,,,,,,15,,,50,76
126720,note_on,,1,0,12,,,,,,,,,,,,,,,15,,,69,76
126720,note_on,,16,0,10,,,,,,,,,,,,,,,13,,,69,76
126720,note_on,,16,0,7,,,,,,,,,,,,,,,2,,,50,76
126720,note_on,,16,0,9,,,,,,,,,,,,,,,12,,,74,76
126720,note_on,,16,0,5,,,,,,,,,,,,,,,0,,,77,76
126720,note_on,,16,0,8,,,,,,,,,,,,,,,11,,,77,76
126720,note_on,,16,0,6,,,,,,,,,,,,,,,1,,,77,76
126720,note_on,,16,0,11,,,,,,,,,,,,,,,14,,,50,76
126824,note_on,,104,0,6,,,,,,,,,,,,,,,1,,,77,0
126824,note_on,,104,0,8,,,,,,,,,,,,,,,11,,,77,0
126824,note_on,,104,0,5,,,,,,,,,,,,,,,0,,,77,0
126824,note_on,,104,0,10,,,,,,,,,,,,,,,13,,,69,0
126840,note_on,,16,0,6,,,,,,,,,,,,,,,1,,,79,76
126840,note_on,,16,0,8,,,,,,,,,,,,,,,11,,,79,76
126840,note_on,,16,0,5,,,,,,,,,,,,,,,0,,,79,76
126840,note_on,,16,0,10,,,,,,,,,,,,,,,13,,,70,76
126944,note_on,,224,0,11,,,,,,,,,,,,,,,14,,,50,0
126944,note_on,,104,0,10,,,,,,,,,,,,,,,13,,,70,0
126944,note_on,,224,0,7,,,,,,,,,,,,,,,2,,,50,0
126944,note_on,,104,0,5,,,,,,,,,,,,,,,0,,,79,0
126944,note_on,,224,0,9,,,,,,,,,,,,,,,12,,,74,0
126944,note_on,,104,0,8,,,,,,,,,,,,,,,11,,,79,0
126944,note_on,,104,0,6,,,,,,,,,,,,,,,1,,,79,0
126959,note_on,,0,0,12,,,,,,,,,,,,,,,15,,,50,0
126959,note_on,,239,0,12,,,,,,,,,,,,,,,15,,,69,0
126959,note_on,,0,0,12,,,,,,,,,,,,,,,15,,,62,0
126959,note_on,,0,0,12,,,,,,,,,,,,,,,15,,,65,0
126960,note_on,,1,0,12,,,,,,,,,,,,,,,15,,,60,76
126960,note_on,,16,0,5,,,,,,,,,,,,,,,0,,,77,76
126960,note_on,,16,0,8,,,,,,,,,,,,,,,11,,,77,76
126960,note_on,,0,0,12,,,,,,,,,,,,,,,15,,,57,76
126960,note_on,,0,0,12,,,,,,,,,,,,,,,15,,,64,76
126960,note_on,,16,0,10,,,,,,,,,,,,,,,13,,,69,76
126960,note_on,,16,0,7,,,,,,,,,,,,,,,2,,,45,76
126960,note_on,,16,0,6,,,,,,,,,,,,,,,1,,,77,76
126960,note_on,,16,0,11,,,,,,,,,,,,,,,14,,,45,76
126960,note_on,,16,0,9,,,,,,,,,,,,,,,12,,,69,76
126960,note_on,,0,0,12,,,,,,,,,,,,,,,15,,,45,76
127064,note_on,,104,0,6,,,,,,,,,,,,,,,1,,,77,0
127064,note_on,,104,0,5,,,,,,,,,,,,,,,0,,,77,0
127064,note_on,,104,0,10,,,,,,,,,,,,,,,13,,,69,0
127064,note_on,,104,0,8,,,,,,,,,,,,,,,11,,,77,0
127080,note_on,,16,0,8,,,,,,,,,,,,,,,11,,,76,76
127080,note_on,,16,0,5,,,,,,,,,,,,,,,0,,,76,76
127080,note_on,,16,0,10,,,,,,,,,,,,,,,13,,,67,76
127080,note_on,,16,0,6,,,,,,,,,,,,,,,1,,,76,76
127184,note_on,,104,0,10,,,,,,,,,,,,,,,13,,,67,0
127184,note_on,,224,0,9,,,,,,,,,,,,,,,12,,,69,0
127184,note_on,,104,0,6,,,,,,,,,,,,,,,1,,,76,0
127184,note_on,,224,0,7,,,,,,,,,,,,,,,2,,,45,0
127184,note_on,,104,0,8,,,,,,,,,,,,,,,11,,,76,0
127184,note_on,,104,0,5,,,,,,,,,,,,,,,0,,,76,0
127184,note_on,,224,0,11,,,,,,,,,,,,,,,14,,,45,0
127199,note_on,,0,0,12,,,,,,,,,,,,,,,15,,,45,0
127199,note_on,,239,0,12,,,,,,,,,,,,,,,15,,,60,0
127199,note_on,,0,0,12,,,,,,,,,,,,,,,15,,,57,0
127199,note_on,,0,0,12,,,,,,,,,,,,,,,15,,,64,0
127200,note_on,,16,0,8,,,,,,,,,,,,,,,11,,,74,76
127200,note_on,,16,0,11,,,,,,,,,,,,,,,14,,,38,76
127200,note_on,,16,0,9,,,,,,,,,,,,,,,12,,,69,76
127200,note_on,,16,0,6,,,,,,,,,,,,,,,1,,,74,76
127200,note_on,,0,0,12,,,,,,,,,,,,,,,15,,,53,76
127200,note_on,,0,0,12,,,,,,,,,,,,,,,15,,,50,76
127200,note_on,,0,0,12,,,,,,,,,,,,,,,15,,,38,76
127200,note_on,,16,0,5,,,,,,,,,,,,,,,0,,,74,76
127200,note_on,,16,0,7,,,,,,,,,,,,,,,2,,,38,76
127200,note_on,,16,0,10,,,,,,,,,,,,,,,13,,,65,76
127200,note_on,,1,0,12,,,,,,,,,,,,,,,15,,,57,76
127304,note_on,,104,0,10,,,,,,,,,,,,,,,13,,,65,0
127320,note_on,,16,0,10,,,,,,,,,,,,,,,13,,,67,76
127424,note_on,,224,0,11,,,,,,,,,,,,,,,14,,,38,0
127424,note_on,,224,0,5,,,,,,,,,,,,,,,0,,,74,0
127424,note_on,,224,0,8,,,,,,,,,,,,,,,11,,,74,0
127424,note_on,,224,0,6,,,,,,,,,,,,,,,1,,,74,0
127424,note_on,,104,0,10,,,,,,,,,,,,,,,13,,,67,0
127424,note_on,,224,0,7,,,,,,,,,,,,,,,2,,,38,0
127424,note_on,,224,0,9,,,,,,,,,,,,,,,12,,,69,0
127439,note_on,,0,0,12,,,,,,,,,,,,,,,15,,,53,0
127439,note_on,,0,0,12,,,,,,,,,,,,,,,15,,,50,0
127439,note_on,,0,0,12,,,,,,,,,,,,,,,15,,,38,0
127439,note_on,,239,0,12,,,,,,,,,,,,,,,15,,,57,0
127440,note_on,,16,0,11,,,,,,,,,,,,,,,14,,,56,76
127440,note_on,,1,0,12,,,,,,,,,,,,,,,15,,,56,76
127440,note_on,,16,0,7,,,,,,,,,,,,,,,2,,,56,76
127440,note_on,,0,0,12,,,,,,,,,,,,,,,15,,,68,76
127440,note_on,,0,0,12,,,,,,,,,,,,,,,15,,,74,76
127440,note_on,,0,0,12,,,,,,,,,,,,,,,15,,,71,76
127440,note_on,,16,0,9,,,,,,,,,,,,,,,12,,,74,76
127440,note_on,,16,0,6,,,,,,,,,,,,,,,1,,,83,76
127440,note_on,,16,0,10,,,,,,,,,,,,,,,13,,,65,76
127440,note_on,,16,0,5,,,,,,,,,,,,,,,0,,,83,76
127440,note_on,,16,0,8,,,,,,,,,,,,,,,11,,,83,76
127544,note_on,,104,0,10,,,,,,,,,,,,,,,13,,,65,0
127544,note_on,,104,0,5,,,,,,,,,,,,,,,0,,,83,0
127544,note_on,,104,0,11,,,,,,,,,,,,,,,14,,,56,0
127544,note_on,,104,0,7,,,,,,,,,,,,,,,2,,,56,0
127544,note_on,,104,0,8,,,,,,,,,,,,,,,11,,,83,0
127544,note_on,,104,0,6,,,,,,,,,,,,,,,1,,,83,0
127544,note_on,,104,0,9,,,,,,,,,,,,,,,12,,,74,0
127559,note_on,,0,0,12,,,,,,,,,,,,,,,15,,,74,0
127559,note_on,,0,0,12,,,,,,,,,,,,,,,15,,,68,0
127559,note_on,,119,0,12,,,,,,,,,,,,,,,15,,,56,0
127559,note_on,,0,0,12,,,,,,,,,,,,,,,15,,,71,0
127560,note_on,,16,0,8,,,,,,,,,,,,,,,11,,,84,76
127560,note_on,,16,0,5,,,,,,,,,,,,,,,0,,,84,76
127560,note_on,,16,0,6,,,,,,,,,,,,,,,1,,,84,76
127560,note_on,,16,0,10,,,,,,,,,,,,,,,13,,,64,76
127560,note_on,,0,0,12,,,,,,,,,,,,,,,15,,,76,76
127560,note_on,,0,0,12,,,,,,,,,,,,,,,15,,,69,76
127560,note_on,,0,0,12,,,,,,,,,,,,,,,15,,,72,76
127560,note_on,,16,0,9,,,,,,,,,,,,,,,12,,,72,76
127560,note_on,,1,0,12,,,,,,,,,,,,,,,15,,,57,76
127560,note_on,,16,0,11,,,,,,,,,,,,,,,14,,,57,76
127560,note_on,,16,0,7,,,,,,,,,,,,,,,2,,,57,76
127664,note_on,,104,0,6,,,,,,,,,,,,,,,1,,,84,0
127664,note_on,,104,0,8,,,,,,,,,,,,,,,11,,,84,0
127664,note_on,,104,0,9,,,,,,,,,,,,,,,12,,,72,0
127664,note_on,,104,0,10,,,,,,,,,,,,,,,13,,,64,0
127664,note_on,,104,0,5,,,,,,,,,,,,,,,0,,,84,0
127664,note_on,,104,0,11,,,,,,,,,,,,,,,14,,,57,0
127664,note_on,,104,0,7,,,,,,,,,,,,,,,2,,,57,0
127679,note_on,,0,0,12,,,,,,,,,,,,,,,15,,,72,0
127679,note_on,,0,0,12,,,,,,,,,,,,,,,15,,,69,0
127679,note_on,,0,0,12,,,,,,,,,,,,,,,15,,,76,0
127679,note_on,,119,0,12,,,,,,,,,,,,,,,15,,,57,0
127680,note_on,,0,0,12,,,,,,,,,,,,,,,15,,,71,76
127680,note_on,,0,0,12,,,,,,,,,,,,,,,15,,,59,76
127680,note_on,,0,0,12,,,,,,,,,,,,,,,15,,,74,76
127680,note_on,,16,0,7,,,,,,,,,,,,,,,2,,,59,76
127680,note_on,,16,0,5,,,,,,,,,,,,,,,0,,,86,76
127680,note_on,,1,0,12,,,,,,,,,,,,,,,15,,,79,76
127680,note_on,,16,0,6,,,,,,,,,,,,,,,1,,,86,76
127680,note_on,,16,0,8,,,,,,,,,,,,,,,11,,,86,76
127680,note_on,,16,0,9,,,,,,,,,,,,,,,12,,,71,76
127680,note_on,,16,0,10,,,,,,,,,,,,,,,13,,,62,76
127680,note_on,,16,0,11,,,,,,,,,,,,,,,14,,,59,76
127784,note_on,,104,0,9,,,,,,,,,,,,,,,12,,,71,0
127800,note_on,,16,0,9,,,,,,,,,,,,,,,12,,,72,76
127904,note_on,,224,0,8,,,,,,,,,,,,,,,11,,,86,0
127904,note_on,,224,0,10,,,,,,,,,,,,,,,13,,,62,0
127904,note_on,,104,0,9,,,,,,,,,,,,,,,12,,,72,0
127904,note_on,,224,0,11,,,,,,,,,,,,,,,14,,,59,0
127904,note_on,,224,0,5,,,,,,,,,,,,,,,0,,,86,0
127904,note_on,,224,0,7,,,,,,,,,,,,,,,2,,,59,0
127904,note_on,,224,0,6,,,,,,,,,,,,,,,1,,,86,0
127919,note_on,,239,0,12,,,,,,,,,,,,,,,15,,,79,0
127919,note_on,,0,0,12,,,,,,,,,,,,,,,15,,,74,0
127919,note_on,,0,0,12,,,,,,,,,,,,,,,15,,,71,0
127919,note_on,,0,0,12,,,,,,,,,,,,,,,15,,,59,0
127920,note_on,,16,0,6,,,,,,,,,,,,,,,1,,,80,76
127920,note_on,,0,0,12,,,,,,,,,,,,,,,15,,,71,76
127920,note_on,,0,0,12,,,,,,,,,,,,,,,15,,,74,76
127920,note_on,,1,0,12,,,,,,,,,,,,,,,15,,,59,76
127920,note_on,,16,0,11,,,,,,,,,,,,,,,14,,,59,76
127920,note_on,,16,0,9,,,,,,,,,,,,,,,12,,,71,76
127920,note_on,,16,0,8,,,,,,,,,,,,,,,11,,,80,76
127920,note_on,,16,0,5,,,,,,,,,,,,,,,0,,,80,76
127920,note_on,,16,0,7,,,,,,,,,,,,,,,2,,,59,76
127920,note_on,,16,0,10,,,,,,,,,,,,,,,13,,,62,76
127920,note_on,,0,0,12,,,,,,,,,,,,,,,15,,,80,76
128024,note_on,,104,0,8,,,,,,,,,,,,,,,11,,,80,0
128024,note_on,,104,0,5,,,,,,,,,,,,,,,0,,,80,0
128024,note_on,,104,0,11,,,,,,,,,,,,,,,14,,,59,0
128024,note_on,,104,0,9,,,,,,,,,,,,,,,12,,,71,0
128024,note_on,,104,0,7,,,,,,,,,,,,,,,2,,,59,0
128024,note_on,,104,0,10,,,,,,,,,,,,,,,13,,,62,0
128024,note_on,,104,0,6,,,,,,,,,,,,,,,1,,,80,0
128039,note_on,,0,0,12,,,,,,,,,,,,,,,15,,,74,0
128039,note_on,,0,0,12,,,,,,,,,,,,,,,15,,,80,0
128039,note_on,,119,0,12,,,,,,,,,,,,,,,15,,,59,0
128039,note_on,,0,0,12,,,,,,,,,,,,,,,15,,,71,0
128040,note_on,,16,0,11,,,,,,,,,,,,,,,14,,,60,76
128040,note_on,,16,0,9,,,,,,,,,,,,,,,12,,,69,76
128040,note_on,,16,0,7,,,,,,,,,,,,,,,2,,,60,76
128040,note_on,,16,0,10,,,,,,,,,,,,,,,13,,,64,76
128040,note_on,,0,0,12,,,,,,,,,,,,,,,15,,,72,76
128040,note_on,,16,0,8,,,,,,,,,,,,,,,11,,,81,76
128040,note_on,,0,0,12,,,,,,,,,,,,,,,15,,,76,76
128040,note_on,,16,0,6,,,,,,,,,,,,,,,1,,,81,76
128040,note_on,,0,0,12,,,,,,,,,,,,,,,15,,,80,76
128040,note_on,,1,0,12,,,,,,,,,,,,,,,15,,,60,76
128040,note_on,,16,0,5,,,,,,,,,,,,,,,0,,,81,76
128144,note_on,,104,0,11,,,,,,,,,,,,,,,14,,,60,0
128144,note_on,,104,0,10,,,,,,,,,,,,,,,13,,,64,0
128144,note_on,,104,0,7,,,,,,,,,,,,,,,2,,,60,0
128144,note_on,,104,0,6,,,,,,,,,,,,,,,1,,,81,0
128144,note_on,,104,0,8,,,,,,,,,,,,,,,11,,,81,0
128144,note_on,,104,0,9,,,,,,,,,,,,,,,12,,,69,0
128144,note_on,,104,0,5,,,,,,,,,,,,,,,0,,,81,0
128159,note_on,,0,0,12,,,,,,,,,,,,,,,15,,,72,0
128159,note_on,,119,0,12,,,,,,,,,,,,,,,15,,,60,0
128159,note_on,,0,0,12,,,,,,,,,,,,,,,15,,,80,0
128159,note_on,,0,0,12,,,,,,,,,,,,,,,15,,,76,0
128160,note_on,,16,0,10,,,,,,,,,,,,,,,13,,,65,76
128160,note_on,,16,0,8,,,,,,,,,,,,,,,11,,,83,76
128160,note_on,,1,0,12,,,,,,,,,,,,,,,15,,,80,76
128160,note_on,,16,0,9,,,,,,,,,,,,,,,12,,,68,76
128160,note_on,,0,0,12,,,,,,,,,,,,,,,15,,,62,76
128160,note_on,,0,0,12,,,,,,,,,,,,,,,15,,,77,76
128160,note_on,,16,0,6,,,,,,,,,,,,,,,1,,,83,76
128160,note_on,,16,0,11,,,,,,,,,,,,,,,14,,,62,76
128160,note_on,,0,0,12,,,,,,,,,,,,,,,15,,,74,76
128160,note_on,,16,0,5,,,,,,,,,,,,,,,0,,,83,76
128160,note_on,,16,0,7,,,,,,,,,,,,,,,2,,,62,76
128384,note_on,,224,0,6,,,,,,,,,,,,,,,1,,,83,0
128384,note_on,,224,0,9,,,,,,,,,,,,,,,12,,,68,0
128384,note_on,,224,0,10,,,,,,,,,,,,,,,13,,,65,0
128384,note_on,,224,0,8,,,,,,,,,,,,,,,11,,,83,0
128384,note_on,,224,0,5,,,,,,,,,,,,,,,0,,,83,0
128399,note_on,,0,0,12,,,,,,,,,,,,,,,15,,,77,0
128399,note_on,,239,0,11,,,,,,,,,,,,,,,14,,,62,0
128399,note_on,,0,0,12,,,,,,,,,,,,,,,15,,,74,0
128399,note_on,,239,0,12,,,,,,,,,,,,,,,15,,,80,0
128399,note_on,,239,0,7,,,,,,,,,,,,,,,2,,,62,0
128399,note_on,,0,0,12,,,,,,,,,,,,,,,15,,,62,0
128400,note_on,,16,0,8,,,,,,,,,,,,,,,11,,,74,76
128400,note_on,,16,0,10,,,,,,,,,,,,,,,13,,,59,76
128400,note_on,,16,0,5,,,,,,,,,,,,,,,0,,,74,76
128400,note_on,,16,0,6,,,,,,,,,,,,,,,1,,,74,76
128400,note_on,,16,0,9,,,,,,,,,,,,,,,12,,,59,76
128504,note_on,,104,0,9,,,,,,,,,,,,,,,12,,,59,0
128504,note_on,,104,0,8,,,,,,,,,,,,,,,11,,,74,0
128504,note_on,,104,0,10,,,,,,,,,,,,,,,13,,,59,0
128504,note_on,,104,0,5,,,,,,,,,,,,,,,0,,,74,0
128504,note_on,,104,0,6,,,,,,,,,,,,,,,1,,,74,0
128520,note_on,,16,0,6,,,,,,,,,,,,,,,1,,,76,76
128520,note_on,,16,0,10,,,,,,,,,,,,,,,13,,,60,76
128520,note_on,,16,0,9,,,,,,,,,,,,,,,12,,,60,76
128520,note_on,,16,0,5,,,,,,,,,,,,,,,0,,,76,76
128520,note_on,,16,0,8,,,,,,,,,,,,,,,11,,,76,76
128624,note_on,,104,0,10,,,,,,,,,,,,,,,13,,,60,0
128624,note_on,,104,0,6,,,,,,,,,,,,,,,1,,,76,0
128624,note_on,,104,0,5,,,,,,,,,,,,,,,0,,,76,0
128624,note_on,,104,0,8,,,,,,,,,,,,,,,11,,,76,0
128624,note_on,,104,0,9,,,,,,,,,,,,,,,12,,,60,0
128640,note_on,,16,0,9,,,,,,,,,,,,,,,12,,,62,76
128640,note_on,,16,0,5,,,,,,,,,,,,,,,0,,,77,76
128640,note_on,,16,0,10,,,,,,,,,,,,,,,13,,,62,76
128640,note_on,,16,0,8,,,,,,,,,,,,,,,11,,,77,76
128640,note_on,,16,0,6,,,,,,,,,,,,,,,1,,,77,76
128864,note_on,,224,0,8,,,,,,,,,,,,,,,11,,,77,0
128864,note_on,,224,0,6,,,,,,,,,,,,,,,1,,,77,0
128864,note_on,,224,0,5,,,,,,,,,,,,,,,0,,,77,0
128864,note_on,,224,0,10,,,,,,,,,,,,,,,13,,,62,0
128864,note_on,,224,0,9,,,,,,,,,,,,,,,12,,,62,0
128880,note_on,,16,0,5,,,,,,,,,,,,,,,0,,,71,76
128880,note_on,,16,0,6,,,,,,,,,,,,,,,1,,,71,76
128880,note_on,,16,0,8,,,,,,,,,,,,,,,11,,,71,76
128880,note_on,,16,0,9,,,,,,,,,,,,,,,12,,,62,76
128880,note_on,,16,0,10,,,,,,,,,,,,,,,13,,,62,76
128984,note_on,,104,0,5,,,,,,,,,,,,,,,0,,,71,0
128984,note_on,,104,0,8,,,,,,,,,,,,,,,11,,,71,0
128984,note_on,,104,0,10,,,,,,,,,,,,,,,13,,,62,0
128984,note_on,,104,0,6,,,,,,,,,,,,,,,1,,,71,0
128984,note_on,,104,0,9,,,,,,,,,,,,,,,12,,,62,0
129000,note_on,,16,0,6,,,,,,,,,,,,,,,1,,,72,76
129000,note_on,,16,0,8,,,,,,,,,,,,,,,11,,,72,76
129000,note_on,,16,0,10,,,,,,,,,,,,,,,13,,,64,76
129000,note_on,,16,0,5,,,,,,,,,,,,,,,0,,,72,76
129000,note_on,,16,0,9,,,,,,,,,,,,,,,12,,,64,76
129104,note_on,,104,0,10,,,,,,,,,,,,,,,13,,,64,0
129104,note_on,,104,0,5,,,,,,,,,,,,,,,0,,,72,0
129104,note_on,,104,0,9,,,,,,,,,,,,,,,12,,,64,0
129104,note_on,,104,0,8,,,,,,,,,,,,,,,11,,,72,0
129104,note_on,,104,0,6,,,,,,,,,,,,,,,1,,,72,0
129120,note_on,,16,0,5,,,,,,,,,,,,,,,0,,,74,76
129120,note_on,,16,0,8,,,,,,,,,,,,,,,11,,,74,76
129120,note_on,,16,0,10,,,,,,,,,,,,,,,13,,,65,76
129120,note_on,,16,0,6,,,,,,,,,,,,,,,1,,,74,76
129120,note_on,,16,0,9,,,,,,,,,,,,,,,12,,,65,76
129344,note_on,,224,0,8,,,,,,,,,,,,,,,11,,,74,0
129344,note_on,,224,0,10,,,,,,,,,,,,,,,13,,,65,0
129344,note_on,,224,0,6,,,,,,,,,,,,,,,1,,,74,0
129344,note_on,,224,0,5,,,,,,,,,,,,,,,0,,,74,0
129344,note_on,,224,0,9,,,,,,,,,,,,,,,12,,,65,0
129360,note_on,,961,0,12,,,,,,,,,,,,,,,15,,,64,76
129360,note_on,,0,0,12,,,,,,,,,,,,,,,15,,,50,76
129360,note_on,,0,0,12,,,,,,,,,,,,,,,15,,,68,76
129360,note_on,,961,0,7,,,,,,,,,,,,,,,2,,,50,76
129360,note_on,,961,0,11,,,,,,,,,,,,,,,14,,,50,76
129360,note_on,,16,0,10,,,,,,,,,,,,,,,13,,,59,76
129360,note_on,,16,0,9,,,,,,,,,,,,,,,12,,,64,76
129360,note_on,,0,0,12,,,,,,,,,,,,,,,15,,,62,76
129360,note_on,,16,0,8,,,,,,,,,,,,,,,11,,,68,76
129360,note_on,,16,0,6,,,,,,,,,,,,,,,1,,,68,76
129360,note_on,,16,0,5,,,,,,,,,,,,,,,0,,,68,76
129360,note_on,,0,0,12,,,,,,,,,,,,,,,15,,,71,76
129584,note_on,,224,0,11,,,,,,,,,,,,,,,14,,,50,0
129584,note_on,,224,0,10,,,,,,,,,,,,,,,13,,,59,0
129584,note_on,,224,0,7,,,,,,,,,,,,,,,2,,,50,0
129584,note_on,,224,0,9,,,,,,,,,,,,,,,12,,,64,0
129584,note_on,,224,0,6,,,,,,,,,,,,,,,1,,,68,0
129584,note_on,,224,0,5,,,,,,,,,,,,,,,0,,,68,0
129584,note_on,,224,0,8,,,,,,,,,,,,,,,11,,,68,0
129599,note_on,,0,0,12,,,,,,,,,,,,,,,15,,,50,0
129599,note_on,,239,0,12,,,,,,,,,,,,,,,15,,,64,0
129599,note_on,,0,0,12,,,,,,,,,,,,,,,15,,,62,0
129599,note_on,,0,0,12,,,,,,,,,,,,,,,15,,,71,0
129599,note_on,,0,0,12,,,,,,,,,,,,,,,15,,,68,0
129600,note_on,,16,0,11,,,,,,,,,,,,,,,14,,,48,76
129600,note_on,,16,0,10,,,,,,,,,,,,,,,13,,,60,76
129600,note_on,,16,0,7,,,,,,,,,,,,,,,2,,,48,76
129600,note_on,,16,0,9,,,,,,,,,,,,,,,12,,,64,76
129600,note_on,,16,0,8,,,,,,,,,,,,,,,11,,,69,76
129600,note_on,,16,0,5,,,,,,,,,,,,,,,0,,,69,76
129600,note_on,,16,0,6,,,,,,,,,,,,,,,1,,,69,76
129600,note_on,,0,0,12,,,,,,,,,,,,,,,15,,,64,76
129600,note_on,,1,0,12,,,,,,,,,,,,,,,15,,,69,76
129600,note_on,,0,0,12,,,,,,,,,,,,,,,15,,,48,76
129600,note_on,,0,0,12,,,,,,,,,,,,,,,15,,,60,76
129704,note_on,,104,0,11,,,,,,,,,,,,,,,14,,,48,0
129704,note_on,,104,0,7,,,,,,,,,,,,,,,2,,,48,0
129719,note_on,,0,0,12,,,,,,,,,,,,,,,15,,,64,0
129719,note_on,,0,0,12,,,,,,,,,,,,,,,15,,,60,0
129719,note_on,,0,0,12,,,,,,,,,,,,,,,15,,,48,0
129719,note_on,,119,0,12,,,,,,,,,,,,,,,15,,,69,0
129720,note_on,,16,0,7,,,,,,,,,,,,,,,2,,,47,76
129720,note_on,,1,0,12,,,,,,,,,,,,,,,15,,,47,76
129720,note_on,,0,0,12,,,,,,,,,,,,,,,15,,,59,76
129720,note_on,,16,0,11,,,,,,,,,,,,,,,14,,,47,76
129720,note_on,,0,0,12,,,,,,,,,,,,,,,15,,,65,76
129720,note_on,,0,0,12,,,,,,,,,,,,,,,15,,,62,76
129824,note_on,,224,0,10,,,,,,,,,,,,,,,13,,,60,0
129824,note_on,,104,0,7,,,,,,,,,,,,,,,2,,,47,0
129824,note_on,,224,0,9,,,,,,,,,,,,,,,12,,,64,0
129824,note_on,,104,0,11,,,,,,,,,,,,,,,14,,,47,0
129839,note_on,,0,0,12,,,,,,,,,,,,,,,15,,,65,0
129839,note_on,,0,0,12,,,,,,,,,,,,,,,15,,,62,0
129839,note_on,,0,0,12,,,,,,,,,,,,,,,15,,,59,0
129839,note_on,,119,0,12,,,,,,,,,,,,,,,15,,,47,0
129840,note_on,,16,0,9,,,,,,,,,,,,,,,12,,,69,76
129840,note_on,,0,0,12,,,,,,,,,,,,,,,15,,,48,76
129840,note_on,,16,0,10,,,,,,,,,,,,,,,13,,,64,76
129840,note_on,,0,0,12,,,,,,,,,,,,,,,15,,,64,76
129840,note_on,,1,0,12,,,,,,,,,,,,,,,15,,,60,76
129840,note_on,,0,0,12,,,,,,,,,,,,,,,15,,,69,76
129840,note_on,,16,0,11,,,,,,,,,,,,,,,14,,,48,76
129840,note_on,,16,0,7,,,,,,,,,,,,,,,2,,,48,76
129944,note_on,,104,0,11,,,,,,,,,,,,,,,14,,,48,0
129944,note_on,,344,0,6,,,,,,,,,,,,,,,1,,,69,0
129944,note_on,,344,0,8,,,,,,,,,,,,,,,11,,,69,0
129944,note_on,,344,0,5,,,,,,,,,,,,,,,0,,,69,0
129944,note_on,,104,0,7,,,,,,,,,,,,,,,2,,,48,0
129959,note_on,,0,0,12,,,,,,,,,,,,,,,15,,,69,0
129959,note_on,,0,0,12,,,,,,,,,,,,,,,15,,,48,0
129959,note_on,,0,0,12,,,,,,,,,,,,,,,15,,,64,0
129959,note_on,,119,0,12,,,,,,,,,,,,,,,15,,,60,0
129960,note_on,,1,0,12,,,,,,,,,,,,,,,15,,,62,76
129960,note_on,,0,0,12,,,,,,,,,,,,,,,15,,,65,76
129960,note_on,,16,0,7,,,,,,,,,,,,,,,2,,,50,76
129960,note_on,,0,0,12,,,,,,,,,,,,,,,15,,,50,76
129960,note_on,,16,0,5,,,,,,,,,,,,,,,0,,,71,76
129960,note_on,,16,0,8,,,,,,,,,,,,,,,11,,,71,76
129960,note_on,,16,0,6,,,,,,,,,,,,,,,1,,,71,76
129960,note_on,,16,0,11,,,,,,,,,,,,,,,14,,,50,76
129960,note_on,,0,0,12,,,,,,,,,,,,,,,15,,,69,76
130064,note_on,,104,0,8,,,,,,,,,,,,,,,11,,,71,0
130064,note_on,,104,0,6,,,,,,,,,,,,,,,1,,,71,0
130064,note_on,,224,0,9,,,,,,,,,,,,,,,12,,,69,0
130064,note_on,,104,0,5,,,,,,,,,,,,,,,0,,,71,0
130064,note_on,,104,0,7,,,,,,,,,,,,,,,2,,,50,0
130064,note_on,,104,0,11,,,,,,,,,,,,,,,14,,,50,0
130064,note_on,,224,0,10,,,,,,,,,,,,,,,13,,,64,0
130079,note_on,,119,0,12,,,,,,,,,,,,,,,15,,,62,0
130079,note_on,,0,0,12,,,,,,,,,,,,,,,15,,,69,0
130079,note_on,,0,0,12,,,,,,,,,,,,,,,15,,,50,0
130079,note_on,,0,0,12,,,,,,,,,,,,,,,15,,,65,0
130080,note_on,,16,0,8,,,,,,,,,,,,,,,11,,,71,76
130080,note_on,,16,0,11,,,,,,,,,,,,,,,14,,,52,76
130080,note_on,,0,0,12,,,,,,,,,,,,,,,15,,,68,76
130080,note_on,,0,0,12,,,,,,,,,,,,,,,15,,,52,76
130080,note_on,,0,0,12,,,,,,,,,,,,,,,15,,,71,76
130080,note_on,,16,0,5,,,,,,,,,,,,,,,0,,,71,76
130080,note_on,,16,0,6,,,,,,,,,,,,,,,1,,,71,76
130080,note_on,,16,0,9,,,,,,,,,,,,,,,12,,,68,76
130080,note_on,,16,0,10,,,,,,,,,,,,,,,13,,,64,76
130080,note_on,,1,0,12,,,,,,,,,,,,,,,15,,,64,76
130080,note_on,,16,0,7,,,,,,,,,,,,,,,2,,,52,76
130304,note_on,,224,0,11,,,,,,,,,,,,,,,14,,,52,0
130304,note_on,,224,0,10,,,,,,,,,,,,,,,13,,,64,0
130304,note_on,,224,0,7,,,,,,,,,,,,,,,2,,,52,0
130319,note_on,,0,0,12,,,,,,,,,,,,,,,15,,,68,0
130319,note_on,,0,0,12,,,,,,,,,,,,,,,15,,,52,0
130319,note_on,,0,0,12,,,,,,,,,,,,,,,15,,,71,0
130319,note_on,,239,0,12,,,,,,,,,,,,,,,15,,,64,0
130320,note_on,,0,0,12,,,,,,,,,,,,,,,15,,,52,76
130320,note_on,,16,0,11,,,,,,,,,,,,,,,14,,,40,76
130320,note_on,,16,0,10,,,,,,,,,,,,,,,13,,,59,76
130320,note_on,,1,0,12,,,,,,,,,,,,,,,15,,,40,76
130320,note_on,,16,0,7,,,,,,,,,,,,,,,2,,,40,76
130320,note_on,,0,0,12,,,,,,,,,,,,,,,15,,,59,76
130320,note_on,,0,0,12,,,,,,,,,,,,,,,15,,,56,76
130424,note_on,,344,0,6,,,,,,,,,,,,,,,1,,,71,0
130424,note_on,,344,0,8,,,,,,,,,,,,,,,11,,,71,0
130424,note_on,,344,0,9,,,,,,,,,,,,,,,12,,,68,0
130424,note_on,,344,0,5,,,,,,,,,,,,,,,0,,,71,0
130440,note_on,,16,0,9,,,,,,,,,,,,,,,12,,,64,76
130440,note_on,,16,0,6,,,,,,,,,,,,,,,1,,,69,76
130440,note_on,,16,0,5,,,,,,,,,,,,,,,0,,,69,76
130440,note_on,,16,0,8,,,,,,,,,,,,,,,11,,,69,76
130544,note_on,,104,0,6,,,,,,,,,,,,,,,1,,,69,0
130544,note_on,,104,0,5,,,,,,,,,,,,,,,0,,,69,0
130544,note_on,,224,0,10,,,,,,,,,,,,,,,13,,,59,0
130544,note_on,,224,0,7,,,,,,,,,,,,,,,2,,,40,0
130544,note_on,,224,0,11,,,,,,,,,,,,,,,14,,,40,0
130544,note_on,,104,0,9,,,,,,,,,,,,,,,12,,,64,0
130544,note_on,,104,0,8,,,,,,,,,,,,,,,11,,,69,0
130559,note_on,,0,0,12,,,,,,,,,,,,,,,15,,,59,0
130559,note_on,,0,0,12,,,,,,,,,,,,,,,15,,,56,0
130559,note_on,,0,0,12,,,,,,,,,,,,,,,15,,,52,0
130559,note_on,,239,0,12,,,,,,,,,,,,,,,15,,,40,0
130560,note_on,,16,0,8,,,,,,,,,,,,,,,11,,,69,76
130560,note_on,,16,0,9,,,,,,,,,,,,,,,12,,,64,76
130560,note_on,,16,0,10,,,,,,,,,,,,,,,13,,,60,76
130560,note_on,,16,0,11,,,,,,,,,,,,,,,14,,,45,76
130560,note_on,,16,0,5,,,,,,,,,,,,,,,0,,,69,76
130560,note_on,,16,0,7,,,,,,,,,,,,,,,2,,,45,76
130560,note_on,,1,0,12,,,,,,,,,,,,,,,15,,,57,76
130560,note_on,,0,0,12,,,,,,,,,,,,,,,15,,,45,76
130560,note_on,,0,0,12,,,,,,,,,,,,,,,15,,,60,76
130560,note_on,,0,0,12,,,,,,,,,,,,,,,15,,,64,76
130560,note_on,,16,0,6,,,,,,,,,,,,,,,1,,,69,76
130784,note_on,,224,0,11,,,,,,,,,,,,,,,14,,,45,0
130784,note_on,,224,0,7,,,,,,,,,,,,,,,2,,,45,0
130799,note_on,,239,0,12,,,,,,,,,,,,,,,15,,,57,0
130799,note_on,,0,0,12,,,,,,,,,,,,,,,15,,,64,0
130799,note_on,,0,0,12,,,,,,,,,,,,,,,15,,,60,0
130799,note_on,,0,0,12,,,,,,,,,,,,,,,15,,,45,0
130800,note_on,,16,0,7,,,,,,,,,,,,,,,2,,,52,76
130800,note_on,,1,0,12,,,,,,,,,,,,,,,15,,,67,76
130800,note_on,,16,0,11,,,,,,,,,,,,,,,14,,,52,76
130800,note_on,,0,0,12,,,,,,,,,,,,,,,15,,,52,76
130800,note_on,,0,0,12,,,,,,,,,,,,,,,15,,,64,76
130800,note_on,,0,0,12,,,,,,,,,,,,,,,15,,,71,76
131024,note_on,,224,0,7,,,,,,,,,,,,,,,2,,,52,0
131024,note_on,,224,0,11,,,,,,,,,,,,,,,14,,,52,0
131039,note_on,,0,0,12,,,,,,,,,,,,,,,15,,,64,0
131039,note_on,,0,0,12,,,,,,,,,,,,,,,15,,,52,0
131039,note_on,,239,0,12,,,,,,,,,,,,,,,15,,,67,0
131039,note_on,,0,0,12,,,,,,,,,,,,,,,15,,,71,0
131040,note_on,,16,0,7,,,,,,,,,,,,,,,2,,,57,76
131040,note_on,,1,0,12,,,,,,,,,,,,,,,15,,,69,76
131040,note_on,,0,0,12,,,,,,,,,,,,,,,15,,,72,76
131040,note_on,,16,0,11,,,,,,,,,,,,,,,14,,,57,76
131040,note_on,,0,0,12,,,,,,,,,,,,,,,15,,,57,76
131040,note_on,,0,0,12,,,,,,,,,,,,,,,15,,,76,76
131264,note_on,,704,0,5,,,,,,,,,,,,,,,0,,,69,0
131264,note_on,,704,0,6,,,,,,,,,,,,,,,1,,,69,0
131264,note_on,,704,0,8,,,,,,,,,,,,,,,11,,,69,0
131279,note_on,,0,0,12,,,,,,,,,,,,,,,15,,,76,0
131279,note_on,,0,0,12,,,,,,,,,,,,,,,15,,,72,0
131279,note_on,,719,0,9,,,,,,,,,,,,,,,12,,,64,0
131279,note_on,,0,0,12,,,,,,,,,,,,,,,15,,,57,0
131279,note_on,,719,0,10,,,,,,,,,,,,,,,13,,,60,0
131279,note_on,,239,0,12,,,,,,,,,,,,,,,15,,,69,0
131279,note_on,,239,0,11,,,,,,,,,,,,,,,14,,,57,0
131279,note_on,,239,0,7,,,,,,,,,,,,,,,2,,,57,0
131280,note_on,,16,0,6,,,,,,,,,,,,,,,1,,,76,76
131280,note_on,,16,0,5,,,,,,,,,,,,,,,0,,,76,76
131280,note_on,,16,0,8,,,,,,,,,,,,,,,11,,,76,76
131384,note_on,,104,0,5,,,,,,,,,,,,,,,0,,,76,0
131384,note_on,,104,0,8,,,,,,,,,,,,,,,11,,,76,0
131384,note_on,,104,0,6,,,,,,,,,,,,,,,1,,,76,0
131400,note_on,,16,0,6,,,,,,,,,,,,,,,1,,,77,76
131400,note_on,,16,0,5,,,,,,,,,,,,,,,0,,,77,76
131400,note_on,,16,0,8,,,,,,,,,,,,,,,11,,,77,76
131504,note_on,,104,0,8,,,,,,,,,,,,,,,11,,,77,0
131504,note_on,,104,0,6,,,,,,,,,,,,,,,1,,,77,0
131504,note_on,,104,0,5,,,,,,,,,,,,,,,0,,,77,0
131520,note_on,,16,0,8,,,,,,,,,,,,,,,11,,,79,76
131520,note_on,,16,0,5,,,,,,,,,,,,,,,0,,,79,76
131520,note_on,,16,0,6,,,,,,,,,,,,,,,1,,,79,76
131744,note_on,,224,0,6,,,,,,,,,,,,,,,1,,,79,0
131744,note_on,,224,0,5,,,,,,,,,,,,,,,0,,,79,0
131744,note_on,,224,0,8,,,,,,,,,,,,,,,11,,,79,0
131760,note_on,,481,0,12,,,,,,,,,,,,,,,15,,,60,76
131760,note_on,,481,0,9,,,,,,,,,,,,,,,12,,,79,76
131760,note_on,,16,0,6,,,,,,,,,,,,,,,1,,,84,76
131760,note_on,,481,0,11,,,,,,,,,,,,,,,14,,,48,76
131760,note_on,,0,0,12,,,,,,,,,,,,,,,15,,,67,76
131760,note_on,,0,0,12,,,,,,,,,,,,,,,15,,,64,76
131760,note_on,,0,0,12,,,,,,,,,,,,,,,15,,,48,76
131760,note_on,,481,0,7,,,,,,,,,,,,,,,2,,,48,76
131760,note_on,,16,0,5,,,,,,,,,,,,,,,0,,,84,76
131760,note_on,,16,0,8,,,,,,,,,,,,,,,11,,,84,76
131760,note_on,,481,0,10,,,,,,,,,,,,,,,13,,,64,76
131864,note_on,,104,0,9,,,,,,,,,,,,,,,12,,,79,0
131864,note_on,,104,0,10,,,,,,,,,,,,,,,13,,,64,0
131864,note_on,,104,0,7,,,,,,,,,,,,,,,2,,,48,0
131864,note_on,,104,0,11,,,,,,,,,,,,,,,14,,,48,0
131879,note_on,,0,0,12,,,,,,,,,,,,,,,15,,,64,0
131879,note_on,,0,0,12,,,,,,,,,,,,,,,15,,,48,0
131879,note_on,,0,0,12,,,,,,,,,,,,,,,15,,,67,0
131879,note_on,,119,0,12,,,,,,,,,,,,,,,15,,,60,0
131880,note_on,,16,0,9,,,,,,,,,,,,,,,12,,,77,76
131880,note_on,,16,0,7,,,,,,,,,,,,,,,2,,,50,76
131880,note_on,,16,0,11,,,,,,,,,,,,,,,14,,,50,76
131880,note_on,,0,0,12,,,,,,,,,,,,,,,15,,,65,76
131880,note_on,,0,0,12,,,,,,,,,,,,,,,15,,,50,76
131880,note_on,,0,0,12,,,,,,,,,,,,,,,15,,,69,76
131880,note_on,,1,0,12,,,,,,,,,,,,,,,15,,,62,76
131880,note_on,,16,0,10,,,,,,,,,,,,,,,13,,,65,76
131984,note_on,,104,0,7,,,,,,,,,,,,,,,2,,,50,0
131984,note_on,,104,0,10,,,,,,,,,,,,,,,13,,,65,0
131984,note_on,,104,0,11,,,,,,,,,,,,,,,14,,,50,0
131984,note_on,,104,0,9,,,,,,,,,,,,,,,12,,,77,0
131999,note_on,,119,0,12,,,,,,,,,,,,,,,15,,,62,0
131999,note_on,,0,0,12,,,,,,,,,,,,,,,15,,,69,0
131999,note_on,,0,0,12,,,,,,,,,,,,,,,15,,,50,0
131999,note_on,,0,0,12,,,,,,,,,,,,,,,15,,,65,0
132000,note_on,,16,0,10,,,,,,,,,,,,,,,13,,,67,76
132000,note_on,,0,0,12,,,,,,,,,,,,,,,15,,,72,76
132000,note_on,,16,0,11,,,,,,,,,,,,,,,14,,,52,76
132000,note_on,,0,0,12,,,,,,,,,,,,,,,15,,,52,76
132000,note_on,,16,0,9,,,,,,,,,,,,,,,12,,,76,76
132000,note_on,,0,0,12,,,,,,,,,,,,,,,15,,,67,76
132000,note_on,,1,0,12,,,,,,,,,,,,,,,15,,,64,76
132000,note_on,,16,0,7,,,,,,,,,,,,,,,2,,,52,76
132104,note_on,,104,0,9,,,,,,,,,,,,,,,12,,,76,0
132120,note_on,,16,0,9,,,,,,,,,,,,,,,12,,,74,76
132224,note_on,,224,0,7,,,,,,,,,,,,,,,2,,,52,0
132224,note_on,,464,0,5,,,,,,,,,,,,,,,0,,,84,0
132224,note_on,,464,0,6,,,,,,,,,,,,,,,1,,,84,0
132224,note_on,,224,0,11,,,,,,,,,,,,,,,14,,,52,0
132224,note_on,,104,0,9,,,,,,,,,,,,,,,12,,,74,0
132224,note_on,,464,0,8,,,,,,,,,,,,,,,11,,,84,0
132224,note_on,,224,0,10,,,,,,,,,,,,,,,13,,,67,0
132239,note_on,,0,0,12,,,,,,,,,,,,,,,15,,,67,0
132239,note_on,,0,0,12,,,,,,,,,,,,,,,15,,,52,0
132239,note_on,,0,0,12,,,,,,,,,,,,,,,15,,,72,0
132239,note_on,,239,0,12,,,,,,,,,,,,,,,15,,,64,0
132240,note_on,,16,0,11,,,,,,,,,,,,,,,14,,,52,76
132240,note_on,,16,0,9,,,,,,,,,,,,,,,12,,,76,76
132240,note_on,,16,0,7,,,,,,,,,,,,,,,2,,,52,76
132240,note_on,,16,0,10,,,,,,,,,,,,,,,13,,,67,76
132240,note_on,,0,0,12,,,,,,,,,,,,,,,15,,,72,76
132240,note_on,,0,0,12,,,,,,,,,,,,,,,15,,,64,76
132240,note_on,,0,0,12,,,,,,,,,,,,,,,15,,,67,76
132240,note_on,,1,0,12,,,,,,,,,,,,,,,15,,,52,76
132240,note_on,,16,0,8,,,,,,,,,,,,,,,11,,,79,76
132240,note_on,,16,0,6,,,,,,,,,,,,,,,1,,,79,76
132240,note_on,,16,0,5,,,,,,,,,,,,,,,0,,,79,76
132344,note_on,,104,0,9,,,,,,,,,,,,,,,12,,,76,0
132344,note_on,,104,0,11,,,,,,,,,,,,,,,14,,,52,0
132344,note_on,,104,0,10,,,,,,,,,,,,,,,13,,,67,0
132344,note_on,,104,0,7,,,,,,,,,,,,,,,2,,,52,0
132359,note_on,,119,0,12,,,,,,,,,,,,,,,15,,,52,0
132359,note_on,,0,0,12,,,,,,,,,,,,,,,15,,,67,0
132359,note_on,,0,0,12,,,,,,,,,,,,,,,15,,,64,0
132359,note_on,,0,0,12,,,,,,,,,,,,,,,15,,,72,0
132360,note_on,,16,0,7,,,,,,,,,,,,,,,2,,,53,76
132360,note_on,,1,0,12,,,,,,,,,,,,,,,15,,,69,76
132360,note_on,,0,0,12,,,,,,,,,,,,,,,15,,,53,76
132360,note_on,,0,0,12,,,,,,,,,,,,,,,15,,,65,76
132360,note_on,,16,0,9,,,,,,,,,,,,,,,12,,,72,76
132360,note_on,,16,0,10,,,,,,,,,,,,,,,13,,,69,76
132360,note_on,,0,0,12,,,,,,,,,,,,,,,15,,,72,76
132360,note_on,,16,0,11,,,,,,,,,,,,,,,14,,,53,76
132464,note_on,,104,0,9,,,,,,,,,,,,,,,12,,,72,0
132464,note_on,,224,0,5,,,,,,,,,,,,,,,0,,,79,0
132464,note_on,,104,0,11,,,,,,,,,,,,,,,14,,,53,0
132464,note_on,,104,0,10,,,,,,,,,,,,,,,13,,,69,0
132464,note_on,,224,0,8,,,,,,,,,,,,,,,11,,,79,0
132464,note_on,,104,0,7,,,,,,,,,,,,,,,2,,,53,0
132464,note_on,,224,0,6,,,,,,,,,,,,,,,1,,,79,0
132479,note_on,,0,0,12,,,,,,,,,,,,,,,15,,,53,0
132479,note_on,,0,0,12,,,,,,,,,,,,,,,15,,,65,0
132479,note_on,,0,0,12,,,,,,,,,,,,,,,15,,,72,0
132479,note_on,,119,0,12,,,,,,,,,,,,,,,15,,,69,0
132480,note_on,,0,0,12,,,,,,,,,,,,,,,15,,,76,76
132480,note_on,,0,0,12,,,,,,,,,,,,,,,15,,,55,76
132480,note_on,,16,0,8,,,,,,,,,,,,,,,11,,,76,76
132480,note_on,,16,0,11,,,,,,,,,,,,,,,14,,,55,76
132480,note_on,,16,0,10,,,,,,,,,,,,,,,13,,,70,76
132480,note_on,,16,0,6,,,,,,,,,,,,,,,1,,,76,76
132480,note_on,,0,0,12,,,,,,,,,,,,,,,15,,,67,76
132480,note_on,,16,0,7,,,,,,,,,,,,,,,2,,,55,76
132480,note_on,,1,0,12,,,,,,,,,,,,,,,15,,,70,76
132480,note_on,,16,0,5,,,,,,,,,,,,,,,0,,,76,76
132480,note_on,,16,0,9,,,,,,,,,,,,,,,12,,,70,76
132584,note_on,,104,0,8,,,,,,,,,,,,,,,11,,,76,0
132584,note_on,,104,0,10,,,,,,,,,,,,,,,13,,,70,0
132584,note_on,,104,0,9,,,,,,,,,,,,,,,12,,,70,0
132584,note_on,,104,0,6,,,,,,,,,,,,,,,1,,,76,0
132584,note_on,,104,0,5,,,,,,,,,,,,,,,0,,,76,0
132600,note_on,,16,0,6,,,,,,,,,,,,,,,1,,,74,76
132600,note_on,,16,0,9,,,,,,,,,,,,,,,12,,,72,76
132600,note_on,,16,0,10,,,,,,,,,,,,,,,13,,,69,76
132600,note_on,,16,0,8,,,,,,,,,,,,,,,11,,,74,76
132600,note_on,,16,0,5,,,,,,,,,,,,,,,0,,,74,76
132704,note_on,,224,0,7,,,,,,,,,,,,,,,2,,,55,0
132704,note_on,,104,0,10,,,,,,,,,,,,,,,13,,,69,0
132704,note_on,,104,0,8,,,,,,,,,,,,,,,11,,,74,0
132704,note_on,,224,0,11,,,,,,,,,,,,,,,14,,,55,0
132704,note_on,,104,0,6,,,,,,,,,,,,,,,1,,,74,0
132704,note_on,,104,0,9,,,,,,,,,,,,,,,12,,,72,0
132704,note_on,,104,0,5,,,,,,,,,,,,,,,0,,,74,0
132719,note_on,,0,0,12,,,,,,,,,,,,,,,15,,,55,0
132719,note_on,,239,0,12,,,,,,,,,,,,,,,15,,,70,0
132719,note_on,,0,0,12,,,,,,,,,,,,,,,15,,,67,0
132719,note_on,,0,0,12,,,,,,,,,,,,,,,15,,,76,0
132720,note_on,,16,0,9,,,,,,,,,,,,,,,12,,,70,76
132720,note_on,,16,0,7,,,,,,,,,,,,,,,2,,,55,76
132720,note_on,,16,0,10,,,,,,,,,,,,,,,13,,,67,76
132720,note_on,,16,0,6,,,,,,,,,,,,,,,1,,,76,76
132720,note_on,,16,0,5,,,,,,,,,,,,,,,0,,,76,76
132720,note_on,,0,0,12,,,,,,,,,,,,,,,15,,,67,76
132720,note_on,,1,0,12,,,,,,,,,,,,,,,15,,,55,76
132720,note_on,,0,0,12,,,,,,,,,,,,,,,15,,,70,76
132720,note_on,,16,0,11,,,,,,,,,,,,,,,14,,,55,76
132720,note_on,,0,0,12,,,,,,,,,,,,,,,15,,,76,76
132720,note_on,,16,0,8,,,,,,,,,,,,,,,11,,,76,76
132824,note_on,,104,0,6,,,,,,,,,,,,,,,1,,,76,0
132824,note_on,,104,0,11,,,,,,,,,,,,,,,14,,,55,0
132824,note_on,,104,0,10,,,,,,,,,,,,,,,13,,,67,0
132824,note_on,,104,0,7,,,,,,,,,,,,,,,2,,,55,0
132824,note_on,,104,0,8,,,,,,,,,,,,,,,11,,,76,0
132824,note_on,,104,0,9,,,,,,,,,,,,,,,12,,,70,0
132824,note_on,,104,0,5,,,,,,,,,,,,,,,0,,,76,0
132839,note_on,,119,0,12,,,,,,,,,,,,,,,15,,,55,0
132839,note_on,,0,0,12,,,,,,,,,,,,,,,15,,,70,0
132839,note_on,,0,0,12,,,,,,,,,,,,,,,15,,,76,0
132839,note_on,,0,0,12,,,,,,,,,,,,,,,15,,,67,0
132840,note_on,,0,0,12,,,,,,,,,,,,,,,15,,,69,76
132840,note_on,,16,0,8,,,,,,,,,,,,,,,11,,,77,76
132840,note_on,,16,0,11,,,,,,,,,,,,,,,14,,,57,76
132840,note_on,,16,0,5,,,,,,,,,,,,,,,0,,,77,76
132840,note_on,,0,0,12,,,,,,,,,,,,,,,15,,,76,76
132840,note_on,,16,0,6,,,,,,,,,,,,,,,1,,,77,76
132840,note_on,,1,0,12,,,,,,,,,,,,,,,15,,,72,76
132840,note_on,,16,0,10,,,,,,,,,,,,,,,13,,,65,76
132840,note_on,,0,0,12,,,,,,,,,,,,,,,15,,,57,76
132840,note_on,,16,0,7,,,,,,,,,,,,,,,2,,,57,76
132840,note_on,,16,0,9,,,,,,,,,,,,,,,12,,,69,76
132944,note_on,,104,0,7,,,,,,,,,,,,,,,2,,,57,0
132944,note_on,,104,0,9,,,,,,,,,,,,,,,12,,,69,0
132944,note_on,,104,0,5,,,,,,,,,,,,,,,0,,,77,0
132944,note_on,,104,0,10,,,,,,,,,,,,,,,13,,,65,0
132944,note_on,,104,0,11,,,,,,,,,,,,,,,14,,,57,0
132944,note_on,,104,0,8,,,,,,,,,,,,,,,11,,,77,0
132944,note_on,,104,0,6,,,,,,,,,,,,,,,1,,,77,0
132959,note_on,,0,0,12,,,,,,,,,,,,,,,15,,,69,0
132959,note_on,,0,0,12,,,,,,,,,,,,,,,15,,,76,0
132959,note_on,,0,0,12,,,,,,,,,,,,,,,15,,,57,0
132959,note_on,,119,0,12,,,,,,,,,,,,,,,15,,,72,0
132960,note_on,,16,0,7,,,,,,,,,,,,,,,2,,,58,76
132960,note_on,,16,0,6,,,,,,,,,,,,,,,1,,,79,76
132960,note_on,,1,0,12,,,,,,,,,,,,,,,15,,,74,76
132960,note_on,,0,0,12,,,,,,,,,,,,,,,15,,,58,76
132960,note_on,,0,0,12,,,,,,,,,,,,,,,15,,,70,76
132960,note_on,,16,0,8,,,,,,,,,,,,,,,11,,,79,76
132960,note_on,,16,0,10,,,,,,,,,,,,,,,13,,,64,76
132960,note_on,,16,0,5,,,,,,,,,,,,,,,0,,,79,76
132960,note_on,,16,0,9,,,,,,,,,,,,,,,12,,,67,76
132960,note_on,,0,0,12,,,,,,,,,,,,,,,15,,,77,76
132960,note_on,,16,0,11,,,,,,,,,,,,,,,14,,,58,76
133184,note_on,,224,0,9,,,,,,,,,,,,,,,12,,,67,0
133184,note_on,,224,0,6,,,,,,,,,,,,,,,1,,,79,0
133184,note_on,,224,0,10,,,,,,,,,,,,,,,13,,,64,0
133184,note_on,,224,0,11,,,,,,,,,,,,,,,14,,,58,0
133184,note_on,,224,0,5,,,,,,,,,,,,,,,0,,,79,0
133184,note_on,,224,0,7,,,,,,,,,,,,,,,2,,,58,0
133184,note_on,,224,0,8,,,,,,,,,,,,,,,11,,,79,0
133199,note_on,,239,0,12,,,,,,,,,,,,,,,15,,,74,0
133199,note_on,,0,0,12,,,,,,,,,,,,,,,15,,,58,0
133199,note_on,,0,0,12,,,,,,,,,,,,,,,15,,,70,0
133199,note_on,,0,0,12,,,,,,,,,,,,,,,15,,,77,0
133200,note_on,,16,0,6,,,,,,,,,,,,,,,1,,,70,76
133200,note_on,,16,0,7,,,,,,,,,,,,,,,2,,,52,76
133200,note_on,,0,0,12,,,,,,,,,,,,,,,15,,,67,76
133200,note_on,,16,0,10,,,,,,,,,,,,,,,13,,,60,76
133200,note_on,,0,0,12,,,,,,,,,,,,,,,15,,,70,76
133200,note_on,,0,0,12,,,,,,,,,,,,,,,15,,,64,76
133200,note_on,,1,0,12,,,,,,,,,,,,,,,15,,,72,76
133200,note_on,,16,0,5,,,,,,,,,,,,,,,0,,,70,76
133200,note_on,,16,0,9,,,,,,,,,,,,,,,12,,,67,76
133200,note_on,,16,0,8,,,,,,,,,,,,,,,11,,,70,76
133200,note_on,,16,0,11,,,,,,,,,,,,,,,14,,,52,76
133200,note_on,,0,0,12,,,,,,,,,,,,,,,15,,,52,76
133424,note_on,,224,0,6,,,,,,,,,,,,,,,1,,,70,0
133424,note_on,,224,0,7,,,,,,,,,,,,,,,2,,,52,0
133424,note_on,,224,0,10,,,,,,,,,,,,,,,13,,,60,0
133424,note_on,,224,0,8,,,,,,,,,,,,,,,11,,,70,0
133424,note_on,,224,0,11,,,,,,,,,,,,,,,14,,,52,0
133424,note_on,,224,0,9,,,,,,,,,,,,,,,12,,,67,0
133424,note_on,,224,0,5,,,,,,,,,,,,,,,0,,,70,0
133439,note_on,,0,0,12,,,,,,,,,,,,,,,15,,,64,0
133439,note_on,,0,0,12,,,,,,,,,,,,,,,15,,,52,0
133439,note_on,,239,0,12,,,,,,,,,,,,,,,15,,,72,0
133439,note_on,,0,0,12,,,,,,,,,,,,,,,15,,,70,0
133439,note_on,,0,0,12,,,,,,,,,,,,,,,15,,,67,0
133440,note_on,,16,0,11,,,,,,,,,,,,,,,14,,,53,76
133440,note_on,,0,0,12,,,,,,,,,,,,,,,15,,,72,76
133440,note_on,,16,0,7,,,,,,,,,,,,,,,2,,,53,76
133440,note_on,,0,0,12,,,,,,,,,,,,,,,15,,,53,76
133440,note_on,,16,0,9,,,,,,,,,,,,,,,12,,,65,76
133440,note_on,,1,0,12,,,,,,,,,,,,,,,15,,,69,76
133440,note_on,,16,0,6,,,,,,,,,,,,,,,1,,,69,76
133440,note_on,,16,0,8,,,,,,,,,,,,,,,11,,,69,76
133440,note_on,,16,0,5,,,,,,,,,,,,,,,0,,,69,76
133440,note_on,,0,0,12,,,,,,,,,,,,,,,15,,,65,76
133440,note_on,,16,0,10,,,,,,,,,,,,,,,13,,,60,76
133664,note_on,,224,0,5,,,,,,,,,,,,,,,0,,,69,0
133664,note_on,,224,0,8,,,,,,,,,,,,,,,11,,,69,0
133664,note_on,,224,0,11,,,,,,,,,,,,,,,14,,,53,0
133664,note_on,,224,0,7,,,,,,,,,,,,,,,2,,,53,0
133664,note_on,,224,0,9,,,,,,,,,,,,,,,12,,,65,0
133664,note_on,,224,0,10,,,,,,,,,,,,,,,13,,,60,0
133664,note_on,,224,0,6,,,,,,,,,,,,,,,1,,,69,0
133679,note_on,,0,0,12,,,,,,,,,,,,,,,15,,,72,0
133679,note_on,,0,0,12,,,,,,,,,,,,,,,15,,,53,0
133679,note_on,,0,0,12,,,,,,,,,,,,,,,15,,,65,0
133679,note_on,,239,0,12,,,,,,,,,,,,,,,15,,,69,0
133680,note_on,,0,0,12,,,,,,,,,,,,,,,15,,,62,76
133680,note_on,,0,0,12,,,,,,,,,,,,,,,15,,,58,76
133680,note_on,,16,0,11,,,,,,,,,,,,,,,14,,,46,76
133680,note_on,,16,0,5,,,,,,,,,,,,,,,0,,,74,76
133680,note_on,,0,0,12,,,,,,,,,,,,,,,15,,,46,76
133680,note_on,,16,0,6,,,,,,,,,,,,,,,1,,,74,76
133680,note_on,,16,0,9,,,,,,,,,,,,,,,12,,,65,76
133680,note_on,,16,0,7,,,,,,,,,,,,,,,2,,,46,76
133680,note_on,,16,0,10,,,,,,,,,,,,,,,13,,,58,76
133680,note_on,,1,0,12,,,,,,,,,,,,,,,15,,,65,76
133680,note_on,,16,0,8,,,,,,,,,,,,,,,11,,,74,76
133784,note_on,,104,0,6,,,,,,,,,,,,,,,1,,,74,0
133784,note_on,,104,0,8,,,,,,,,,,,,,,,11,,,74,0
133784,note_on,,104,0,10,,,,,,,,,,,,,,,13,,,58,0
133784,note_on,,104,0,5,,,,,,,,,,,,,,,0,,,74,0
133800,note_on,,16,0,5,,,,,,,,,,,,,,,0,,,72,76
133800,note_on,,16,0,6,,,,,,,,,,,,,,,1,,,72,76
133800,note_on,,16,0,10,,,,,,,,,,,,,,,13,,,60,76
133800,note_on,,16,0,8,,,,,,,,,,,,,,,11,,,72,76
133904,note_on,,224,0,7,,,,,,,,,,,,,,,2,,,46,0
133904,note_on,,104,0,6,,,,,,,,,,,,,,,1,,,72,0
133904,note_on,,224,0,11,,,,,,,,,,,,,,,14,,,46,0
133904,note_on,,104,0,10,,,,,,,,,,,,,,,13,,,60,0
133904,note_on,,224,0,9,,,,,,,,,,,,,,,12,,,65,0
133904,note_on,,104,0,5,,,,,,,,,,,,,,,0,,,72,0
133904,note_on,,104,0,8,,,,,,,,,,,,,,,11,,,72,0
133919,note_on,,0,0,12,,,,,,,,,,,,,,,15,,,62,0
133919,note_on,,0,0,12,,,,,,,,,,,,,,,15,,,46,0
133919,note_on,,0,0,12,,,,,,,,,,,,,,,15,,,58,0
133919,note_on,,239,0,12,,,,,,,,,,,,,,,15,,,65,0
133920,note_on,,16,0,8,,,,,,,,,,,,,,,11,,,70,76
133920,note_on,,16,0,5,,,,,,,,,,,,,,,0,,,70,76
133920,note_on,,16,0,6,,,,,,,,,,,,,,,1,,,70,76
133920,note_on,,0,0,12,,,,,,,,,,,,,,,15,,,58,76
133920,note_on,,0,0,12,,,,,,,,,,,,,,,15,,,65,76
133920,note_on,,1,0,12,,,,,,,,,,,,,,,15,,,55,76
133920,note_on,,16,0,11,,,,,,,,,,,,,,,14,,,43,76
133920,note_on,,16,0,10,,,,,,,,,,,,,,,13,,,62,76
133920,note_on,,16,0,9,,,,,,,,,,,,,,,12,,,65,76
133920,note_on,,16,0,7,,,,,,,,,,,,,,,2,,,43,76
133920,note_on,,0,0,12,,,,,,,,,,,,,,,15,,,43,76
133920,note_on,,0,0,12,,,,,,,,,,,,,,,15,,,62,76
134024,note_on,,104,0,5,,,,,,,,,,,,,,,0,,,70,0
134024,note_on,,104,0,6,,,,,,,,,,,,,,,1,,,70,0
134024,note_on,,104,0,8,,,,,,,,,,,,,,,11,,,70,0
134040,note_on,,16,0,6,,,,,,,,,,,,,,,1,,,69,76
134040,note_on,,16,0,5,,,,,,,,,,,,,,,0,,,69,76
134040,note_on,,16,0,8,,,,,,,,,,,,,,,11,,,69,76
134144,note_on,,104,0,5,,,,,,,,,,,,,,,0,,,69,0
134144,note_on,,104,0,8,,,,,,,,,,,,,,,11,,,69,0
134144,note_on,,224,0,11,,,,,,,,,,,,,,,14,,,43,0
134144,note_on,,104,0,6,,,,,,,,,,,,,,,1,,,69,0
134144,note_on,,224,0,10,,,,,,,,,,,,,,,13,,,62,0
134144,note_on,,224,0,9,,,,,,,,,,,,,,,12,,,65,0
134144,note_on,,224,0,7,,,,,,,,,,,,,,,2,,,43,0
134159,note_on,,0,0,12,,,,,,,,,,,,,,,15,,,65,0
134159,note_on,,0,0,12,,,,,,,,,,,,,,,15,,,62,0
134159,note_on,,0,0,12,,,,,,,,,,,,,,,15,,,58,0
134159,note_on,,0,0,12,,,,,,,,,,,,,,,15,,,43,0
134159,note_on,,239,0,12,,,,,,,,,,,,,,,15,,,55,0
134160,note_on,,16,0,7,,,,,,,,,,,,,,,2,,,48,76
134160,note_on,,0,0,12,,,,,,,,,,,,,,,15,,,60,76
134160,note_on,,16,0,5,,,,,,,,,,,,,,,0,,,70,76
134160,note_on,,16,0,8,,,,,,,,,,,,,,,11,,,70,76
134160,note_on,,16,0,10,,,,,,,,,,,,,,,13,,,60,76
134160,note_on,,16,0,9,,,,,,,,,,,,,,,12,,,64,76
134160,note_on,,0,0,12,,,,,,,,,,,,,,,15,,,70,76
134160,note_on,,0,0,12,,,,,,,,,,,,,,,15,,,48,76
134160,note_on,,16,0,11,,,,,,,,,,,,,,,14,,,48,76
134160,note_on,,1,0,12,,,,,,,,,,,,,,,15,,,64,76
134160,note_on,,0,0,12,,,,,,,,,,,,,,,15,,,67,76
134160,note_on,,16,0,6,,,,,,,,,,,,,,,1,,,70,76
134264,note_on,,104,0,8,,,,,,,,,,,,,,,11,,,70,0
134264,note_on,,104,0,6,,,,,,,,,,,,,,,1,,,70,0
134264,note_on,,104,0,5,,,,,,,,,,,,,,,0,,,70,0
134280,note_on,,16,0,5,,,,,,,,,,,,,,,0,,,67,76
134280,note_on,,16,0,8,,,,,,,,,,,,,,,11,,,67,76
134280,note_on,,16,0,6,,,,,,,,,,,,,,,1,,,67,76
134384,note_on,,104,0,5,,,,,,,,,,,,,,,0,,,67,0
134384,note_on,,104,0,6,,,,,,,,,,,,,,,1,,,67,0
134384,note_on,,224,0,7,,,,,,,,,,,,,,,2,,,48,0
134384,note_on,,224,0,10,,,,,,,,,,,,,,,13,,,60,0
134384,note_on,,224,0,9,,,,,,,,,,,,,,,12,,,64,0
134384,note_on,,104,0,8,,,,,,,,,,,,,,,11,,,67,0
134384,note_on,,224,0,11,,,,,,,,,,,,,,,14,,,48,0
134399,note_on,,0,0,12,,,,,,,,,,,,,,,15,,,67,0
134399,note_on,,0,0,12,,,,,,,,,,,,,,,15,,,48,0
134399,note_on,,0,0,12,,,,,,,,,,,,,,,15,,,60,0
134399,note_on,,0,0,12,,,,,,,,,,,,,,,15,,,70,0
134399,note_on,,239,0,12,,,,,,,,,,,,,,,15,,,64,0
134400,note_on,,1,0,12,,,,,,,,,,,,,,,15,,,53,76
134400,note_on,,16,0,7,,,,,,,,,,,,,,,2,,,41,76
134400,note_on,,16,0,10,,,,,,,,,,,,,,,13,,,60,76
134400,note_on,,0,0,12,,,,,,,,,,,,,,,15,,,60,76
134400,note_on,,16,0,5,,,,,,,,,,,,,,,0,,,69,76
134400,note_on,,0,0,12,,,,,,,,,,,,,,,15,,,57,76
134400,note_on,,16,0,9,,,,,,,,,,,,,,,12,,,65,76
134400,note_on,,0,0,12,,,,,,,,,,,,,,,15,,,41,76
134400,note_on,,16,0,11,,,,,,,,,,,,,,,14,,,41,76
134400,note_on,,16,0,6,,,,,,,,,,,,,,,1,,,69,76
134400,note_on,,16,0,8,,,,,,,,,,,,,,,11,,,69,76
134504,note_on,,104,0,6,,,,,,,,,,,,,,,1,,,69,0
134504,note_on,,104,0,8,,,,,,,,,,,,,,,11,,,69,0
134504,note_on,,104,0,10,,,,,,,,,,,,,,,13,,,60,0
134504,note_on,,104,0,5,,,,,,,,,,,,,,,0,,,69,0
134520,note_on,,16,0,8,,,,,,,,,,,,,,,11,,,70,76
134520,note_on,,16,0,10,,,,,,,,,,,,,,,13,,,62,76
134520,note_on,,16,0,6,,,,,,,,,,,,,,,1,,,70,76
134520,note_on,,16,0,5,,,,,,,,,,,,,,,0,,,70,76
134624,note_on,,224,0,7,,,,,,,,,,,,,,,2,,,41,0
134624,note_on,,104,0,6,,,,,,,,,,,,,,,1,,,70,0
134624,note_on,,104,0,5,,,,,,,,,,,,,,,0,,,70,0
134624,note_on,,224,0,11,,,,,,,,,,,,,,,14,,,41,0
134624,note_on,,104,0,10,,,,,,,,,,,,,,,13,,,62,0
134624,note_on,,224,0,9,,,,,,,,,,,,,,,12,,,65,0
134624,note_on,,104,0,8,,,,,,,,,,,,,,,11,,,70,0
134639,note_on,,239,0,12,,,,,,,,,,,,,,,15,,,53,0
134639,note_on,,0,0,12,,,,,,,,,,,,,,,15,,,60,0
134639,note_on,,0,0,12,,,,,,,,,,,,,,,15,,,41,0
134639,note_on,,0,0,12,,,,,,,,,,,,,,,15,,,57,0
134640,note_on,,16,0,11,,,,,,,,,,,,,,,14,,,53,76
134640,note_on,,16,0,5,,,,,,,,,,,,,,,0,,,69,76
134640,note_on,,16,0,8,,,,,,,,,,,,,,,11,,,69,76
134640,note_on,,16,0,10,,,,,,,,,,,,,,,13,,,60,76
134640,note_on,,16,0,7,,,,,,,,,,,,,,,2,,,53,76
134640,note_on,,16,0,6,,,,,,,,,,,,,,,1,,,69,76
134640,note_on,,16,0,9,,,,,,,,,,,,,,,12,,,60,76
134640,note_on,,0,0,12,,,,,,,,,,,,,,,15,,,53,76
134640,note_on,,1,0,12,,,,,,,,,,,,,,,15,,,69,76
134640,note_on,,0,0,12,,,,,,,,,,,,,,,15,,,65,76
134640,note_on,,0,0,12,,,,,,,,,,,,,,,15,,,72,76
134744,note_on,,104,0,6,,,,,,,,,,,,,,,1,,,69,0
134744,note_on,,104,0,10,,,,,,,,,,,,,,,13,,,60,0
134744,note_on,,104,0,11,,,,,,,,,,,,,,,14,,,53,0
134744,note_on,,104,0,5,,,,,,,,,,,,,,,0,,,69,0
134744,note_on,,104,0,8,,,,,,,,,,,,,,,11,,,69,0
134744,note_on,,104,0,7,,,,,,,,,,,,,,,2,,,53,0
134759,note_on,,0,0,12,,,,,,,,,,,,,,,15,,,53,0
134759,note_on,,0,0,12,,,,,,,,,,,,,,,15,,,65,0
134759,note_on,,0,0,12,,,,,,,,,,,,,,,15,,,72,0
134759,note_on,,119,0,12,,,,,,,,,,,,,,,15,,,69,0
134760,note_on,,0,0,12,,,,,,,,,,,,,,,15,,,71,76
134760,note_on,,16,0,10,,,,,,,,,,,,,,,13,,,58,76
134760,note_on,,16,0,7,,,,,,,,,,,,,,,2,,,55,76
134760,note_on,,0,0,12,,,,,,,,,,,,,,,15,,,55,76
134760,note_on,,16,0,5,,,,,,,,,,,,,,,0,,,67,76
134760,note_on,,1,0,12,,,,,,,,,,,,,,,15,,,74,76
134760,note_on,,16,0,11,,,,,,,,,,,,,,,14,,,55,76
134760,note_on,,16,0,6,,,,,,,,,,,,,,,1,,,67,76
134760,note_on,,16,0,8,,,,,,,,,,,,,,,11,,,67,76
134760,note_on,,0,0,12,,,,,,,,,,,,,,,15,,,67,76
134864,note_on,,104,0,8,,,,,,,,,,,,,,,11,,,67,0
134864,note_on,,104,0,5,,,,,,,,,,,,,,,0,,,67,0
134864,note_on,,104,0,10,,,,,,,,,,,,,,,13,,,58,0
134864,note_on,,104,0,11,,,,,,,,,,,,,,,14,,,55,0
134864,note_on,,104,0,6,,,,,,,,,,,,,,,1,,,67,0
134864,note_on,,224,0,9,,,,,,,,,,,,,,,12,,,60,0
134864,note_on,,104,0,7,,,,,,,,,,,,,,,2,,,55,0
134879,note_on,,119,0,12,,,,,,,,,,,,,,,15,,,74,0
134879,note_on,,0,0,12,,,,,,,,,,,,,,,15,,,67,0
134879,note_on,,0,0,12,,,,,,,,,,,,,,,15,,,71,0
134879,note_on,,0,0,12,,,,,,,,,,,,,,,15,,,55,0
134880,note_on,,16,0,6,,,,,,,,,,,,,,,1,,,65,76
134880,note_on,,0,0,12,,,,,,,,,,,,,,,15,,,57,76
134880,note_on,,0,0,12,,,,,,,,,,,,,,,15,,,72,76
134880,note_on,,0,0,12,,,,,,,,,,,,,,,15,,,77,76
134880,note_on,,1,0,12,,,,,,,,,,,,,,,15,,,69,76
134880,note_on,,16,0,7,,,,,,,,,,,,,,,2,,,57,76
134880,note_on,,16,0,5,,,,,,,,,,,,,,,0,,,65,76
134880,note_on,,16,0,8,,,,,,,,,,,,,,,11,,,65,76
134880,note_on,,16,0,11,,,,,,,,,,,,,,,14,,,57,76
134880,note_on,,16,0,10,,,,,,,,,,,,,,,13,,,57,76
134880,note_on,,16,0,9,,,,,,,,,,,,,,,12,,,60,76
134984,note_on,,104,0,7,,,,,,,,,,,,,,,2,,,57,0
134984,note_on,,104,0,11,,,,,,,,,,,,,,,14,,,57,0
134999,note_on,,0,0,12,,,,,,,,,,,,,,,15,,,72,0
134999,note_on,,119,0,12,,,,,,,,,,,,,,,15,,,69,0
134999,note_on,,0,0,12,,,,,,,,,,,,,,,15,,,57,0
134999,note_on,,0,0,12,,,,,,,,,,,,,,,15,,,77,0
135000,note_on,,0,0,12,,,,,,,,,,,,,,,15,,,58,76
135000,note_on,,16,0,7,,,,,,,,,,,,,,,2,,,58,76
135000,note_on,,16,0,11,,,,,,,,,,,,,,,14,,,58,76
135000,note_on,,1,0,12,,,,,,,,,,,,,,,15,,,77,76
135000,note_on,,0,0,12,,,,,,,,,,,,,,,15,,,70,76
135000,note_on,,0,0,12,,,,,,,,,,,,,,,15,,,74,76
135104,note_on,,104,0,7,,,,,,,,,,,,,,,2,,,58,0
135104,note_on,,224,0,8,,,,,,,,,,,,,,,11,,,65,0
135104,note_on,,224,0,5,,,,,,,,,,,,,,,0,,,65,0
135104,note_on,,104,0,11,,,,,,,,,,,,,,,14,,,58,0
135104,note_on,,224,0,6,,,,,,,,,,,,,,,1,,,65,0
135104,note_on,,224,0,9,,,,,,,,,,,,,,,12,,,60,0
135119,note_on,,0,0,12,,,,,,,,,,,,,,,15,,,74,0
135119,note_on,,119,0,12,,,,,,,,,,,,,,,15,,,77,0
135119,note_on,,0,0,12,,,,,,,,,,,,,,,15,,,70,0
135119,note_on,,239,0,10,,,,,,,,,,,,,,,13,,,57,0
135119,note_on,,0,0,12,,,,,,,,,,,,,,,15,,,58,0
135120,note_on,,1,0,12,,,,,,,,,,,,,,,15,,,69,76
135120,note_on,,16,0,9,,,,,,,,,,,,,,,12,,,62,76
135120,note_on,,0,0,12,,,,,,,,,,,,,,,15,,,57,76
135120,note_on,,16,0,5,,,,,,,,,,,,,,,0,,,77,76
135120,note_on,,16,0,8,,,,,,,,,,,,,,,11,,,77,76
135120,note_on,,16,0,7,,,,,,,,,,,,,,,2,,,57,76
135120,note_on,,0,0,12,,,,,,,,,,,,,,,15,,,77,76
135120,note_on,,0,0,12,,,,,,,,,,,,,,,15,,,72,76
135120,note_on,,16,0,11,,,,,,,,,,,,,,,14,,,57,76
135120,note_on,,16,0,6,,,,,,,,,,,,,,,1,,,77,76
135224,note_on,,104,0,6,,,,,,,,,,,,,,,1,,,77,0
135224,note_on,,104,0,8,,,,,,,,,,,,,,,11,,,77,0
135224,note_on,,104,0,11,,,,,,,,,,,,,,,14,,,57,0
135224,note_on,,104,0,5,,,,,,,,,,,,,,,0,,,77,0
135224,note_on,,104,0,9,,,,,,,,,,,,,,,12,,,62,0
135224,note_on,,104,0,7,,,,,,,,,,,,,,,2,,,57,0
135239,note_on,,0,0,12,,,,,,,,,,,,,,,15,,,72,0
135239,note_on,,119,0,12,,,,,,,,,,,,,,,15,,,69,0
135239,note_on,,0,0,12,,,,,,,,,,,,,,,15,,,57,0
135239,note_on,,0,0,12,,,,,,,,,,,,,,,15,,,77,0
135240,note_on,,16,0,6,,,,,,,,,,,,,,,1,,,79,76
135240,note_on,,16,0,7,,,,,,,,,,,,,,,2,,,55,76
135240,note_on,,16,0,8,,,,,,,,,,,,,,,11,,,79,76
135240,note_on,,0,0,12,,,,,,,,,,,,,,,15,,,74,76
135240,note_on,,16,0,11,,,,,,,,,,,,,,,14,,,55,76
135240,note_on,,0,0,12,,,,,,,,,,,,,,,15,,,67,76
135240,note_on,,16,0,9,,,,,,,,,,,,,,,12,,,64,76
135240,note_on,,1,0,12,,,,,,,,,,,,,,,15,,,55,76
135240,note_on,,16,0,5,,,,,,,,,,,,,,,0,,,79,76
135240,note_on,,0,0,12,,,,,,,,,,,,,,,15,,,70,76
135344,note_on,,104,0,11,,,,,,,,,,,,,,,14,,,55,0
135344,note_on,,104,0,5,,,,,,,,,,,,,,,0,,,79,0
135344,note_on,,104,0,7,,,,,,,,,,,,,,,2,,,55,0
135344,note_on,,104,0,6,,,,,,,,,,,,,,,1,,,79,0
135344,note_on,,104,0,8,,,,,,,,,,,,,,,11,,,79,0
135344,note_on,,104,0,9,,,,,,,,,,,,,,,12,,,64,0
135359,note_on,,0,0,12,,,,,,,,,,,,,,,15,,,67,0
135359,note_on,,119,0,12,,,,,,,,,,,,,,,15,,,55,0
135359,note_on,,0,0,12,,,,,,,,,,,,,,,15,,,70,0
135359,note_on,,0,0,12,,,,,,,,,,,,,,,15,,,74,0
135360,note_on,,16,0,5,,,,,,,,,,,,,,,0,,,81,76
135360,note_on,,16,0,7,,,,,,,,,,,,,,,2,,,53,76
135360,note_on,,16,0,6,,,,,,,,,,,,,,,1,,,81,76
135360,note_on,,16,0,8,,,,,,,,,,,,,,,11,,,81,76
135360,note_on,,16,0,11,,,,,,,,,,,,,,,14,,,53,76
135360,note_on,,16,0,9,,,,,,,,,,,,,,,12,,,65,76
135360,note_on,,1,0,12,,,,,,,,,,,,,,,15,,,53,76
135360,note_on,,0,0,12,,,,,,,,,,,,,,,15,,,69,76
135360,note_on,,0,0,12,,,,,,,,,,,,,,,15,,,72,76
135360,note_on,,0,0,12,,,,,,,,,,,,,,,15,,,65,76
135464,note_on,,104,0,7,,,,,,,,,,,,,,,2,,,53,0
135464,note_on,,104,0,11,,,,,,,,,,,,,,,14,,,53,0
135479,note_on,,0,0,12,,,,,,,,,,,,,,,15,,,72,0
135479,note_on,,119,0,12,,,,,,,,,,,,,,,15,,,53,0
135479,note_on,,0,0,12,,,,,,,,,,,,,,,15,,,69,0
135479,note_on,,0,0,12,,,,,,,,,,,,,,,15,,,65,0
135480,note_on,,16,0,7,,,,,,,,,,,,,,,2,,,55,76
135480,note_on,,1,0,12,,,,,,,,,,,,,,,15,,,55,76
135480,note_on,,0,0,12,,,,,,,,,,,,,,,15,,,74,76
135480,note_on,,0,0,12,,,,,,,,,,,,,,,15,,,71,76
135480,note_on,,0,0,12,,,,,,,,,,,,,,,15,,,67,76
135480,note_on,,16,0,11,,,,,,,,,,,,,,,14,,,55,76
135584,note_on,,224,0,9,,,,,,,,,,,,,,,12,,,65,0
135584,note_on,,104,0,7,,,,,,,,,,,,,,,2,,,55,0
135584,note_on,,224,0,5,,,,,,,,,,,,,,,0,,,81,0
135584,note_on,,224,0,8,,,,,,,,,,,,,,,11,,,81,0
135584,note_on,,224,0,6,,,,,,,,,,,,,,,1,,,81,0
135584,note_on,,104,0,11,,,,,,,,,,,,,,,14,,,55,0
135599,note_on,,0,0,12,,,,,,,,,,,,,,,15,,,71,0
135599,note_on,,0,0,12,,,,,,,,,,,,,,,15,,,67,0
135599,note_on,,0,0,12,,,,,,,,,,,,,,,15,,,74,0
135599,note_on,,119,0,12,,,,,,,,,,,,,,,15,,,55,0
135600,note_on,,0,0,12,,,,,,,,,,,,,,,15,,,72,76
135600,note_on,,0,0,12,,,,,,,,,,,,,,,15,,,53,76
135600,note_on,,0,0,12,,,,,,,,,,,,,,,15,,,65,76
135600,note_on,,16,0,6,,,,,,,,,,,,,,,1,,,74,76
135600,note_on,,16,0,11,,,,,,,,,,,,,,,14,,,53,76
135600,note_on,,16,0,7,,,,,,,,,,,,,,,2,,,53,76
135600,note_on,,16,0,8,,,,,,,,,,,,,,,11,,,74,76
135600,note_on,,1,0,12,,,,,,,,,,,,,,,15,,,69,76
135600,note_on,,16,0,9,,,,,,,,,,,,,,,12,,,65,76
135600,note_on,,16,0,5,,,,,,,,,,,,,,,0,,,74,76
135704,note_on,,104,0,11,,,,,,,,,,,,,,,14,,,53,0
135704,note_on,,104,0,8,,,,,,,,,,,,,,,11,,,74,0
135704,note_on,,104,0,9,,,,,,,,,,,,,,,12,,,65,0
135704,note_on,,104,0,7,,,,,,,,,,,,,,,2,,,53,0
135704,note_on,,104,0,5,,,,,,,,,,,,,,,0,,,74,0
135704,note_on,,104,0,6,,,,,,,,,,,,,,,1,,,74,0
135719,note_on,,0,0,12,,,,,,,,,,,,,,,15,,,53,0
135719,note_on,,0,0,12,,,,,,,,,,,,,,,15,,,72,0
135719,note_on,,119,0,12,,,,,,,,,,,,,,,15,,,69,0
135719,note_on,,0,0,12,,,,,,,,,,,,,,,15,,,65,0
135720,note_on,,16,0,7,,,,,,,,,,,,,,,2,,,52,76
135720,note_on,,16,0,6,,,,,,,,,,,,,,,1,,,76,76
135720,note_on,,16,0,8,,,,,,,,,,,,,,,11,,,76,76
135720,note_on,,16,0,9,,,,,,,,,,,,,,,12,,,67,76
135720,note_on,,0,0,12,,,,,,,,,,,,,,,15,,,67,76
135720,note_on,,16,0,5,,,,,,,,,,,,,,,0,,,76,76
135720,note_on,,1,0,12,,,,,,,,,,,,,,,15,,,64,76
135720,note_on,,0,0,12,,,,,,,,,,,,,,,15,,,52,76
135720,note_on,,16,0,11,,,,,,,,,,,,,,,14,,,52,76
135720,note_on,,0,0,12,,,,,,,,,,,,,,,15,,,71,76
135824,note_on,,104,0,11,,,,,,,,,,,,,,,14,,,52,0
135824,note_on,,104,0,7,,,,,,,,,,,,,,,2,,,52,0
135824,note_on,,104,0,5,,,,,,,,,,,,,,,0,,,76,0
135824,note_on,,104,0,9,,,,,,,,,,,,,,,12,,,67,0
135824,note_on,,104,0,8,,,,,,,,,,,,,,,11,,,76,0
135824,note_on,,104,0,6,,,,,,,,,,,,,,,1,,,76,0
135839,note_on,,0,0,12,,,,,,,,,,,,,,,15,,,67,0
135839,note_on,,0,0,12,,,,,,,,,,,,,,,15,,,52,0
135839,note_on,,0,0,12,,,,,,,,,,,,,,,15,,,71,0
135839,note_on,,119,0,12,,,,,,,,,,,,,,,15,,,64,0
135840,note_on,,16,0,5,,,,,,,,,,,,,,,0,,,77,76
135840,note_on,,16,0,9,,,,,,,,,,,,,,,12,,,69,76
135840,note_on,,16,0,7,,,,,,,,,,,,,,,2,,,50,76
135840,note_on,,0,0,12,,,,,,,,,,,,,,,15,,,62,76
135840,note_on,,0,0,12,,,,,,,,,,,,,,,15,,,50,76
135840,note_on,,16,0,11,,,,,,,,,,,,,,,14,,,50,76
135840,note_on,,16,0,8,,,,,,,,,,,,,,,11,,,77,76
135840,note_on,,1,0,12,,,,,,,,,,,,,,,15,,,65,76
135840,note_on,,16,0,6,,,,,,,,,,,,,,,1,,,77,76
135944,note_on,,104,0,11,,,,,,,,,,,,,,,14,,,50,0
135944,note_on,,104,0,9,,,,,,,,,,,,,,,12,,,69,0
135944,note_on,,104,0,7,,,,,,,,,,,,,,,2,,,50,0
135959,note_on,,0,0,12,,,,,,,,,,,,,,,15,,,50,0
135959,note_on,,0,0,12,,,,,,,,,,,,,,,15,,,62,0
135959,note_on,,119,0,12,,,,,,,,,,,,,,,15,,,65,0
135960,note_on,,0,0,12,,,,,,,,,,,,,,,15,,,71,76
135960,note_on,,16,0,9,,,,,,,,,,,,,,,12,,,67,76
135960,note_on,,16,0,11,,,,,,,,,,,,,,,14,,,52,76
135960,note_on,,0,0,12,,,,,,,,,,,,,,,15,,,52,76
135960,note_on,,0,0,12,,,,,,,,,,,,,,,15,,,64,76
135960,note_on,,1,0,12,,,,,,,,,,,,,,,15,,,67,76
135960,note_on,,16,0,7,,,,,,,,,,,,,,,2,,,52,76
136064,note_on,,104,0,11,,,,,,,,,,,,,,,14,,,52,0
136064,note_on,,104,0,7,,,,,,,,,,,,,,,2,,,52,0
136064,note_on,,224,0,6,,,,,,,,,,,,,,,1,,,77,0
136064,note_on,,224,0,8,,,,,,,,,,,,,,,11,,,77,0
136064,note_on,,224,0,5,,,,,,,,,,,,,,,0,,,77,0
136064,note_on,,104,0,9,,,,,,,,,,,,,,,12,,,67,0
136079,note_on,,0,0,12,,,,,,,,,,,,,,,15,,,71,0
136079,note_on,,0,0,12,,,,,,,,,,,,,,,15,,,64,0
136079,note_on,,119,0,12,,,,,,,,,,,,,,,15,,,67,0
136079,note_on,,0,0,12,,,,,,,,,,,,,,,15,,,52,0
136080,note_on,,16,0,6,,,,,,,,,,,,,,,1,,,71,76
136080,note_on,,961,0,10,,,,,,,,,,,,,,,13,,,55,76
136080,note_on,,16,0,8,,,,,,,,,,,,,,,11,,,71,76
136080,note_on,,16,0,7,,,,,,,,,,,,,,,2,,,50,76
136080,note_on,,0,0,12,,,,,,,,,,,,,,,15,,,62,76
136080,note_on,,16,0,9,,,,,,,,,,,,,,,12,,,65,76
136080,note_on,,16,0,5,,,,,,,,,,,,,,,0,,,71,76
136080,note_on,,0,0,12,,,,,,,,,,,,,,,15,,,50,76
136080,note_on,,1,0,12,,,,,,,,,,,,,,,15,,,65,76
136080,note_on,,16,0,11,,,,,,,,,,,,,,,14,,,50,76
136184,note_on,,104,0,7,,,,,,,,,,,,,,,2,,,50,0
136184,note_on,,104,0,11,,,,,,,,,,,,,,,14,,,50,0
136184,note_on,,104,0,5,,,,,,,,,,,,,,,0,,,71,0
136184,note_on,,104,0,8,,,,,,,,,,,,,,,11,,,71,0
136184,note_on,,104,0,6,,,,,,,,,,,,,,,1,,,71,0
136184,note_on,,104,0,9,,,,,,,,,,,,,,,12,,,65,0
136184,note_on,,104,0,10,,,,,,,,,,,,,,,13,,,55,0
136199,note_on,,0,0,12,,,,,,,,,,,,,,,15,,,62,0
136199,note_on,,119,0,12,,,,,,,,,,,,,,,15,,,65,0
136199,note_on,,0,0,12,,,,,,,,,,,,,,,15,,,50,0
136200,note_on,,16,0,11,,,,,,,,,,,,,,,14,,,48,76
136200,note_on,,0,0,12,,,,,,,,,,,,,,,15,,,67,76
136200,note_on,,0,0,12,,,,,,,,,,,,,,,15,,,60,76
136200,note_on,,0,0,12,,,,,,,,,,,,,,,15,,,64,76
136200,note_on,,16,0,7,,,,,,,,,,,,,,,2,,,48,76
136200,note_on,,16,0,8,,,,,,,,,,,,,,,11,,,72,76
136200,note_on,,16,0,10,,,,,,,,,,,,,,,13,,,57,76
136200,note_on,,16,0,6,,,,,,,,,,,,,,,1,,,72,76
136200,note_on,,16,0,5,,,,,,,,,,,,,,,0,,,72,76
136200,note_on,,16,0,9,,,,,,,,,,,,,,,12,,,64,76
136200,note_on,,1,0,12,,,,,,,,,,,,,,,15,,,48,76
136304,note_on,,104,0,5,,,,,,,,,,,,,,,0,,,72,0
136304,note_on,,104,0,9,,,,,,,,,,,,,,,12,,,64,0
136304,note_on,,104,0,10,,,,,,,,,,,,,,,13,,,57,0
136304,note_on,,104,0,11,,,,,,,,,,,,,,,14,,,48,0
136304,note_on,,104,0,8,,,,,,,,,,,,,,,11,,,72,0
136304,note_on,,104,0,6,,,,,,,,,,,,,,,1,,,72,0
136304,note_on,,104,0,7,,,,,,,,,,,,,,,2,,,48,0
136319,note_on,,0,0,12,,,,,,,,,,,,,,,15,,,67,0
136319,note_on,,119,0,12,,,,,,,,,,,,,,,15,,,48,0
136319,note_on,,0,0,12,,,,,,,,,,,,,,,15,,,64,0
136319,note_on,,0,0,12,,,,,,,,,,,,,,,15,,,60,0
136320,note_on,,16,0,8,,,,,,,,,,,,,,,11,,,74,76
136320,note_on,,16,0,6,,,,,,,,,,,,,,,1,,,74,76
136320,note_on,,16,0,9,,,,,,,,,,,,,,,12,,,62,76
136320,note_on,,0,0,12,,,,,,,,,,,,,,,15,,,62,76
136320,note_on,,0,0,12,,,,,,,,,,,,,,,15,,,65,76
136320,note_on,,0,0,12,,,,,,,,,,,,,,,15,,,47,76
136320,note_on,,16,0,10,,,,,,,,,,,,,,,13,,,59,76
136320,note_on,,1,0,12,,,,,,,,,,,,,,,15,,,59,76
136320,note_on,,16,0,5,,,,,,,,,,,,,,,0,,,74,76
136320,note_on,,16,0,11,,,,,,,,,,,,,,,14,,,47,76
136320,note_on,,16,0,7,,,,,,,,,,,,,,,2,,,47,76
136424,note_on,,104,0,9,,,,,,,,,,,,,,,12,,,62,0
136424,note_on,,104,0,11,,,,,,,,,,,,,,,14,,,47,0
136424,note_on,,104,0,7,,,,,,,,,,,,,,,2,,,47,0
136439,note_on,,0,0,12,,,,,,,,,,,,,,,15,,,62,0
136439,note_on,,0,0,12,,,,,,,,,,,,,,,15,,,47,0
136439,note_on,,0,0,12,,,,,,,,,,,,,,,15,,,65,0
136439,note_on,,119,0,12,,,,,,,,,,,,,,,15,,,59,0
136440,note_on,,1,0,12,,,,,,,,,,,,,,,15,,,60,76
136440,note_on,,16,0,9,,,,,,,,,,,,,,,12,,,64,76
136440,note_on,,0,0,12,,,,,,,,,,,,,,,15,,,48,76
136440,note_on,,0,0,12,,,,,,,,,,,,,,,15,,,67,76
136440,note_on,,16,0,11,,,,,,,,,,,,,,,14,,,48,76
136440,note_on,,16,0,7,,,,,,,,,,,,,,,2,,,48,76
136440,note_on,,0,0,12,,,,,,,,,,,,,,,15,,,64,76
136544,note_on,,224,0,8,,,,,,,,,,,,,,,11,,,74,0
136544,note_on,,104,0,9,,,,,,,,,,,,,,,12,,,64,0
136544,note_on,,224,0,5,,,,,,,,,,,,,,,0,,,74,0
136544,note_on,,224,0,6,,,,,,,,,,,,,,,1,,,74,0
136544,note_on,,104,0,11,,,,,,,,,,,,,,,14,,,48,0
136544,note_on,,104,0,7,,,,,,,,,,,,,,,2,,,48,0
136544,note_on,,224,0,10,,,,,,,,,,,,,,,13,,,59,0
136559,note_on,,0,0,12,,,,,,,,,,,,,,,15,,,48,0
136559,note_on,,0,0,12,,,,,,,,,,,,,,,15,,,64,0
136559,note_on,,0,0,12,,,,,,,,,,,,,,,15,,,67,0
136559,note_on,,119,0,12,,,,,,,,,,,,,,,15,,,60,0
136560,note_on,,16,0,5,,,,,,,,,,,,,,,0,,,67,76
136560,note_on,,16,0,6,,,,,,,,,,,,,,,1,,,67,76
136560,note_on,,16,0,8,,,,,,,,,,,,,,,11,,,67,76
136560,note_on,,16,0,10,,,,,,,,,,,,,,,13,,,59,76
136560,note_on,,16,0,7,,,,,,,,,,,,,,,2,,,47,76
136560,note_on,,0,0,12,,,,,,,,,,,,,,,15,,,65,76
136560,note_on,,0,0,12,,,,,,,,,,,,,,,15,,,59,76
136560,note_on,,0,0,12,,,,,,,,,,,,,,,15,,,47,76
136560,note_on,,16,0,11,,,,,,,,,,,,,,,14,,,47,76
136560,note_on,,16,0,9,,,,,,,,,,,,,,,12,,,62,76
136560,note_on,,1,0,12,,,,,,,,,,,,,,,15,,,62,76
136664,note_on,,104,0,7,,,,,,,,,,,,,,,2,,,47,0
136664,note_on,,104,0,10,,,,,,,,,,,,,,,13,,,59,0
136664,note_on,,104,0,9,,,,,,,,,,,,,,,12,,,62,0
136664,note_on,,104,0,11,,,,,,,,,,,,,,,14,,,47,0
136679,note_on,,0,0,12,,,,,,,,,,,,,,,15,,,65,0
136679,note_on,,0,0,12,,,,,,,,,,,,,,,15,,,59,0
136679,note_on,,0,0,12,,,,,,,,,,,,,,,15,,,47,0
136679,note_on,,119,0,12,,,,,,,,,,,,,,,15,,,62,0
136680,note_on,,16,0,9,,,,,,,,,,,,,,,12,,,60,76
136680,note_on,,0,0,12,,,,,,,,,,,,,,,15,,,57,76
136680,note_on,,0,0,12,,,,,,,,,,,,,,,15,,,64,76
136680,note_on,,1,0,12,,,,,,,,,,,,,,,15,,,60,76
136680,note_on,,16,0,7,,,,,,,,,,,,,,,2,,,45,76
136680,note_on,,0,0,12,,,,,,,,,,,,,,,15,,,45,76
136680,note_on,,16,0,11,,,,,,,,,,,,,,,14,,,45,76
136680,note_on,,16,0,10,,,,,,,,,,,,,,,13,,,60,76
136784,note_on,,224,0,8,,,,,,,,,,,,,,,11,,,67,0
136784,note_on,,104,0,11,,,,,,,,,,,,,,,14,,,45,0
136784,note_on,,104,0,7,,,,,,,,,,,,,,,2,,,45,0
136784,note_on,,224,0,6,,,,,,,,,,,,,,,1,,,67,0
136784,note_on,,104,0,10,,,,,,,,,,,,,,,13,,,60,0
136784,note_on,,224,0,5,,,,,,,,,,,,,,,0,,,67,0
136784,note_on,,104,0,9,,,,,,,,,,,,,,,12,,,60,0
136799,note_on,,0,0,12,,,,,,,,,,,,,,,15,,,45,0
136799,note_on,,119,0,12,,,,,,,,,,,,,,,15,,,60,0
136799,note_on,,0,0,12,,,,,,,,,,,,,,,15,,,64,0
136799,note_on,,0,0,12,,,,,,,,,,,,,,,15,,,57,0
136800,note_on,,0,0,12,,,,,,,,,,,,,,,15,,,62,76
136800,note_on,,1,0,12,,,,,,,,,,,,,,,15,,,55,76
136800,note_on,,0,0,12,,,,,,,,,,,,,,,15,,,59,76
136800,note_on,,16,0,9,,,,,,,,,,,,,,,12,,,59,76
136800,note_on,,16,0,8,,,,,,,,,,,,,,,11,,,79,76
136800,note_on,,16,0,10,,,,,,,,,,,,,,,13,,,62,76
136800,note_on,,16,0,6,,,,,,,,,,,,,,,1,,,79,76
136800,note_on,,16,0,7,,,,,,,,,,,,,,,2,,,43,76
136800,note_on,,16,0,11,,,,,,,,,,,,,,,14,,,43,76
136800,note_on,,16,0,5,,,,,,,,,,,,,,,0,,,79,76
136800,note_on,,0,0,12,,,,,,,,,,,,,,,15,,,43,76
136904,note_on,,104,0,11,,,,,,,,,,,,,,,14,,,43,0
136904,note_on,,104,0,7,,,,,,,,,,,,,,,2,,,43,0
136919,note_on,,119,0,12,,,,,,,,,,,,,,,15,,,55,0
136919,note_on,,0,0,12,,,,,,,,,,,,,,,15,,,62,0
136919,note_on,,0,0,12,,,,,,,,,,,,,,,15,,,43,0
136919,note_on,,0,0,12,,,,,,,,,,,,,,,15,,,59,0
136920,note_on,,1,0,12,,,,,,,,,,,,,,,15,,,45,76
136920,note_on,,0,0,12,,,,,,,,,,,,,,,15,,,60,76
136920,note_on,,0,0,12,,,,,,,,,,,,,,,15,,,57,76
136920,note_on,,0,0,12,,,,,,,,,,,,,,,15,,,64,76
136920,note_on,,16,0,7,,,,,,,,,,,,,,,2,,,45,76
136920,note_on,,16,0,11,,,,,,,,,,,,,,,14,,,45,76
137024,note_on,,224,0,8,,,,,,,,,,,,,,,11,,,79,0
137024,note_on,,224,0,6,,,,,,,,,,,,,,,1,,,79,0
137024,note_on,,224,0,10,,,,,,,,,,,,,,,13,,,62,0
137024,note_on,,104,0,11,,,,,,,,,,,,,,,14,,,45,0
137024,note_on,,224,0,9,,,,,,,,,,,,,,,12,,,59,0
137024,note_on,,104,0,7,,,,,,,,,,,,,,,2,,,45,0
137024,note_on,,224,0,5,,,,,,,,,,,,,,,0,,,79,0
137039,note_on,,119,0,12,,,,,,,,,,,,,,,15,,,45,0
137039,note_on,,0,0,12,,,,,,,,,,,,,,,15,,,60,0
137039,note_on,,0,0,12,,,,,,,,,,,,,,,15,,,64,0
137039,note_on,,0,0,12,,,,,,,,,,,,,,,15,,,57,0
137040,note_on,,0,0,12,,,,,,,,,,,,,,,15,,,55,76
137040,note_on,,16,0,10,,,,,,,,,,,,,,,13,,,62,76
137040,note_on,,16,0,6,,,,,,,,,,,,,,,1,,,71,76
137040,note_on,,16,0,8,,,,,,,,,,,,,,,11,,,71,76
137040,note_on,,16,0,7,,,,,,,,,,,,,,,2,,,43,76
137040,note_on,,1,0,12,,,,,,,,,,,,,,,15,,,59,76
137040,note_on,,0,0,12,,,,,,,,,,,,,,,15,,,43,76
137040,note_on,,0,0,12,,,,,,,,,,,,,,,15,,,62,76
137040,note_on,,16,0,5,,,,,,,,,,,,,,,0,,,71,76
137040,note_on,,16,0,9,,,,,,,,,,,,,,,12,,,67,76
137040,note_on,,16,0,11,,,,,,,,,,,,,,,14,,,43,76
137144,note_on,,104,0,7,,,,,,,,,,,,,,,2,,,43,0
137144,note_on,,104,0,11,,,,,,,,,,,,,,,14,,,43,0
137159,note_on,,0,0,12,,,,,,,,,,,,,,,15,,,43,0
137159,note_on,,0,0,12,,,,,,,,,,,,,,,15,,,55,0
137159,note_on,,0,0,12,,,,,,,,,,,,,,,15,,,62,0
137159,note_on,,119,0,12,,,,,,,,,,,,,,,15,,,59,0
137160,note_on,,16,0,7,,,,,,,,,,,,,,,2,,,41,76
137160,note_on,,0,0,12,,,,,,,,,,,,,,,15,,,53,76
137160,note_on,,16,0,11,,,,,,,,,,,,,,,14,,,41,76
137160,note_on,,0,0,12,,,,,,,,,,,,,,,15,,,41,76
137160,note_on,,0,0,12,,,,,,,,,,,,,,,15,,,60,76
137160,note_on,,1,0,12,,,,,,,,,,,,,,,15,,,57,76
137264,note_on,,224,0,10,,,,,,,,,,,,,,,13,,,62,0
137264,note_on,,224,0,5,,,,,,,,,,,,,,,0,,,71,0
137264,note_on,,224,0,6,,,,,,,,,,,,,,,1,,,71,0
137264,note_on,,224,0,9,,,,,,,,,,,,,,,12,,,67,0
137264,note_on,,104,0,11,,,,,,,,,,,,,,,14,,,41,0
137264,note_on,,104,0,7,,,,,,,,,,,,,,,2,,,41,0
137264,note_on,,224,0,8,,,,,,,,,,,,,,,11,,,71,0
137279,note_on,,119,0,12,,,,,,,,,,,,,,,15,,,57,0
137279,note_on,,0,0,12,,,,,,,,,,,,,,,15,,,60,0
137279,note_on,,0,0,12,,,,,,,,,,,,,,,15,,,41,0
137279,note_on,,0,0,12,,,,,,,,,,,,,,,15,,,53,0
137280,set_tempo,,44160,1,0,,,,,,,,357142,,,,,,,,,,,
137280,note_on,,0,0,12,,,,,,,,,,,,,,,15,,,40,76
137280,note_on,,16,0,11,,,,,,,,,,,,,,,14,,,40,76
137280,note_on,,16,0,5,,,,,,,,,,,,,,,0,,,72,76
137280,note_on,,0,0,12,,,,,,,,,,,,,,,15,,,52,76
137280,note_on,,16,0,10,,,,,,,,,,,,,,,13,,,64,76
137280,note_on,,0,0,12,,,,,,,,,,,,,,,15,,,59,76
137280,note_on,,1,0,12,,,,,,,,,,,,,,,15,,,55,76
137280,note_on,,16,0,6,,,,,,,,,,,,,,,1,,,72,76
137280,note_on,,16,0,8,,,,,,,,,,,,,,,11,,,72,76
137280,note_on,,16,0,7,,,,,,,,,,,,,,,2,,,40,76
137280,note_on,,16,0,9,,,,,,,,,,,,,,,12,,,67,76
137360,set_tempo,,80,1,0,,,,,,,,361445,,,,,,,,,,,
137440,set_tempo,,80,1,0,,,,,,,,365853,,,,,,,,,,,
137504,note_on,,224,0,11,,,,,,,,,,,,,,,14,,,40,0
137504,note_on,,224,0,7,,,,,,,,,,,,,,,2,,,40,0
137504,note_on,,224,0,10,,,,,,,,,,,,,,,13,,,64,0
137504,note_on,,224,0,9,,,,,,,,,,,,,,,12,,,67,0
137519,note_on,,239,0,12,,,,,,,,,,,,,,,15,,,55,0
137519,note_on,,0,0,12,,,,,,,,,,,,,,,15,,,59,0
137519,note_on,,0,0,12,,,,,,,,,,,,,,,15,,,40,0
137519,note_on,,0,0,12,,,,,,,,,,,,,,,15,,,52,0
137520,note_on,,16,0,11,,,,,,,,,,,,,,,14,,,41,76
137520,note_on,,0,0,12,,,,,,,,,,,,,,,15,,,53,76
137520,note_on,,16,0,9,,,,,,,,,,,,,,,12,,,72,76
137520,note_on,,16,0,7,,,,,,,,,,,,,,,2,,,41,76
137520,note_on,,16,0,10,,,,,,,,,,,,,,,13,,,69,76
137520,note_on,,0,0,12,,,,,,,,,,,,,,,15,,,57,76
137520,note_on,,1,0,12,,,,,,,,,,,,,,,15,,,41,76
137520,note_on,,0,0,12,,,,,,,,,,,,,,,15,,,60,76
137520,set_tempo,,80,1,0,,,,,,,,370370,,,,,,,,,,,
137600,set_tempo,,80,1,0,,,,,,,,377358,,,,,,,,,,,
137624,note_on,,344,0,6,,,,,,,,,,,,,,,1,,,72,0
137624,note_on,,344,0,5,,,,,,,,,,,,,,,0,,,72,0
137624,note_on,,344,0,8,,,,,,,,,,,,,,,11,,,72,0
137640,note_on,,16,0,6,,,,,,,,,,,,,,,1,,,74,76
137640,note_on,,16,0,8,,,,,,,,,,,,,,,11,,,74,76
137640,note_on,,16,0,5,,,,,,,,,,,,,,,0,,,74,76
137680,set_tempo,,80,1,0,,,,,,,,382165,,,,,,,,,,,
137744,note_on,,104,0,5,,,,,,,,,,,,,,,0,,,74,0
137744,note_on,,104,0,8,,,,,,,,,,,,,,,11,,,74,0
137744,note_on,,224,0,11,,,,,,,,,,,,,,,14,,,41,0
137744,note_on,,104,0,6,,,,,,,,,,,,,,,1,,,74,0
137744,note_on,,224,0,9,,,,,,,,,,,,,,,12,,,72,0
137744,note_on,,224,0,10,,,,,,,,,,,,,,,13,,,69,0
137744,note_on,,224,0,7,,,,,,,,,,,,,,,2,,,41,0
137759,note_on,,0,0,12,,,,,,,,,,,,,,,15,,,57,0
137759,note_on,,0,0,12,,,,,,,,,,,,,,,15,,,60,0
137759,note_on,,0,0,12,,,,,,,,,,,,,,,15,,,53,0
137759,note_on,,239,0,12,,,,,,,,,,,,,,,15,,,41,0
137760,note_on,,1,0,12,,,,,,,,,,,,,,,15,,,59,76
137760,note_on,,16,0,9,,,,,,,,,,,,,,,12,,,71,76
137760,note_on,,16,0,10,,,,,,,,,,,,,,,13,,,67,76
137760,set_tempo,,80,1,0,,,,,,,,387096,,,,,,,,,,,
137760,note_on,,16,0,6,,,,,,,,,,,,,,,1,,,74,76
137760,note_on,,16,0,8,,,,,,,,,,,,,,,11,,,74,76
137760,note_on,,16,0,7,,,,,,,,,,,,,,,2,,,43,76
137760,note_on,,16,0,11,,,,,,,,,,,,,,,14,,,43,76
137760,note_on,,0,0,12,,,,,,,,,,,,,,,15,,,43,76
137760,note_on,,0,0,12,,,,,,,,,,,,,,,15,,,62,76
137760,note_on,,16,0,5,,,,,,,,,,,,,,,0,,,74,76
137760,note_on,,0,0,12,,,,,,,,,,,,,,,15,,,55,76
137840,set_tempo,,80,1,0,,,,,,,,392156,,,,,,,,,,,
137920,set_tempo,,80,1,0,,,,,,,,397350,,,,,,,,,,,
137984,note_on,,224,0,11,,,,,,,,,,,,,,,14,,,43,0
137984,note_on,,224,0,10,,,,,,,,,,,,,,,13,,,67,0
137984,note_on,,224,0,9,,,,,,,,,,,,,,,12,,,71,0
137984,note_on,,224,0,7,,,,,,,,,,,,,,,2,,,43,0
137999,note_on,,239,0,12,,,,,,,,,,,,,,,15,,,59,0
137999,note_on,,0,0,12,,,,,,,,,,,,,,,15,,,62,0
137999,note_on,,0,0,12,,,,,,,,,,,,,,,15,,,43,0
137999,note_on,,0,0,12,,,,,,,,,,,,,,,15,,,55,0
138000,note_on,,16,0,7,,,,,,,,,,,,,,,2,,,43,76
138000,note_on,,16,0,9,,,,,,,,,,,,,,,12,,,67,76
138000,note_on,,0,0,12,,,,,,,,,,,,,,,15,,,43,76
138000,note_on,,0,0,12,,,,,,,,,,,,,,,15,,,62,76
138000,set_tempo,,80,1,0,,,,,,,,402684,,,,,,,,,,,
138000,note_on,,1,0,12,,,,,,,,,,,,,,,15,,,59,76
138000,note_on,,16,0,10,,,,,,,,,,,,,,,13,,,62,76
138000,note_on,,0,0,12,,,,,,,,,,,,,,,15,,,55,76
138000,note_on,,16,0,11,,,,,,,,,,,,,,,14,,,43,76
138080,set_tempo,,80,1,0,,,,,,,,410958,,,,,,,,,,,
138104,note_on,,344,0,8,,,,,,,,,,,,,,,11,,,74,0
138104,note_on,,344,0,6,,,,,,,,,,,,,,,1,,,74,0
138104,note_on,,344,0,5,,,,,,,,,,,,,,,0,,,74,0
138120,note_on,,16,0,5,,,,,,,,,,,,,,,0,,,72,76
138120,note_on,,16,0,6,,,,,,,,,,,,,,,1,,,72,76
138120,note_on,,16,0,8,,,,,,,,,,,,,,,11,,,72,76
138160,set_tempo,,80,1,0,,,,,,,,416666,,,,,,,,,,,
138224,note_on,,224,0,11,,,,,,,,,,,,,,,14,,,43,0
138224,note_on,,104,0,5,,,,,,,,,,,,,,,0,,,72,0
138224,note_on,,224,0,10,,,,,,,,,,,,,,,13,,,62,0
138224,note_on,,224,0,9,,,,,,,,,,,,,,,12,,,67,0
138224,note_on,,104,0,6,,,,,,,,,,,,,,,1,,,72,0
138224,note_on,,104,0,8,,,,,,,,,,,,,,,11,,,72,0
138224,note_on,,224,0,7,,,,,,,,,,,,,,,2,,,43,0
138239,note_on,,0,0,12,,,,,,,,,,,,,,,15,,,43,0
138239,note_on,,0,0,12,,,,,,,,,,,,,,,15,,,55,0
138239,note_on,,0,0,12,,,,,,,,,,,,,,,15,,,62,0
138239,note_on,,239,0,12,,,,,,,,,,,,,,,15,,,59,0
138240,note_on,,0,0,12,,,,,,,,,,,,,,,15,,,52,76
138240,note_on,,0,0,12,,,,,,,,,,,,,,,15,,,48,76
138240,note_on,,0,0,12,,,,,,,,,,,,,,,15,,,55,76
138240,note_on,,1,0,12,,,,,,,,,,,,,,,15,,,36,76
138240,note_on,,16,0,5,,,,,,,,,,,,,,,0,,,72,76
138240,note_on,,16,0,11,,,,,,,,,,,,,,,14,,,36,76
138240,note_on,,16,0,10,,,,,,,,,,,,,,,13,,,64,76
138240,note_on,,16,0,6,,,,,,,,,,,,,,,1,,,72,76
138240,note_on,,16,0,9,,,,,,,,,,,,,,,12,,,67,76
138240,note_on,,16,0,7,,,,,,,,,,,,,,,2,,,36,76
138240,set_tempo,,80,1,0,,,,,,,,681818,,,,,,,,,,,
138240,note_on,,16,0,8,,,,,,,,,,,,,,,11,,,72,76
138959,note_on,,719,0,5,,,,,,,,,,,,,,,0,,,72,0
138959,end_of_track,,0,1,12,,,,,,,,,,,,,,,,,,,
138959,note_on,,0,0,12,,,,,,,,,,,,,,,15,,,52,0
138959,note_on,,0,0,12,,,,,,,,,,,,,,,15,,,48,0
138959,note_on,,0,0,12,,,,,,,,,,,,,,,15,,,55,0
138959,note_on,,719,0,12,,,,,,,,,,,,,,,15,,,36,0
138959,note_on,,719,0,6,,,,,,,,,,,,,,,1,,,72,0
138959,end_of_track,,0,1,6,,,,,,,,,,,,,,,,,,,
138959,end_of_track,,0,1,8,,,,,,,,,,,,,,,,,,,
138959,end_of_track,,0,1,7,,,,,,,,,,,,,,,,,,,
138959,note_on,,719,0,7,,,,,,,,,,,,,,,2,,,36,0
138959,note_on,,719,0,9,,,,,,,,,,,,,,,12,,,67,0
138959,end_of_track,,0,1,9,,,,,,,,,,,,,,,,,,,
138959,note_on,,719,0,10,,,,,,,,,,,,,,,13,,,64,0
138959,end_of_track,,0,1,10,,,,,,,,,,,,,,,,,,,
138959,note_on,,719,0,11,,,,,,,,,,,,,,,14,,,36,0
138959,end_of_track,,0,1,11,,,,,,,,,,,,,,,,,,,
138959,end_of_track,,0,1,5,,,,,,,,,,,,,,,,,,,
138959,note_on,,719,0,8,,,,,,,,,,,,,,,11,,,72,0
138960,set_tempo,,720,1,0,,,,,,,,1000000,,,,,,,,,,,
140160,end_of_track,,0,1,0,,,,,,,,,,,,,,,,,,,
140160,set_tempo,,1200,1,0,,,,,,,,571428,,,,,,,,,,,
