,note,step,duration,channel,velocity
0,60.0,84,870,1.0,0.0
1,60.0,0,870,10.0,0.0
2,60.0,0,870,5.0,0.0
3,48.0,0,870,10.0,0.0
4,60.0,0,120,2.0,0.0
5,60.0,120,120,7.0,0.0
6,59.0,120,120,7.0,0.0
7,59.0,0,120,2.0,0.0
8,60.0,0,120,7.0,0.0
9,60.0,120,120,2.0,0.0
10,62.0,0,120,7.0,0.0
11,62.0,120,120,2.0,0.0
12,64.0,0,120,7.0,0.0
13,64.0,36,120,2.0,0.0
14,65.0,120,120,7.0,0.0
15,65.0,0,120,2.0,0.0
16,47.0,0,870,10.0,0.0
17,67.0,0,120,2.0,0.0
18,67.0,120,120,7.0,0.0
19,59.0,72,870,10.0,0.0
20,59.0,0,870,1.0,0.0
21,59.0,0,870,5.0,0.0
22,66.0,0,120,7.0,0.0
23,66.0,120,120,2.0,0.0
24,67.0,108,120,2.0,0.0
25,67.0,0,120,7.0,0.0
26,62.0,0,210,8.0,0.0
27,62.0,12,210,4.0,0.0
28,69.0,0,120,7.0,0.0
29,69.0,120,120,2.0,0.0
30,71.0,108,120,7.0,0.0
31,71.0,0,120,2.0,0.0
32,67.0,0,210,8.0,0.0
33,67.0,12,210,4.0,0.0
34,69.0,0,120,7.0,0.0
35,69.0,120,120,2.0,0.0
36,71.0,36,120,2.0,0.0
37,67.0,0,210,8.0,0.0
38,71.0,0,120,7.0,0.0
39,67.0,12,210,4.0,0.0
40,67.0,120,120,7.0,0.0
41,67.0,0,120,2.0,0.0
42,67.0,0,210,8.0,0.0
43,57.0,0,870,1.0,0.0
44,57.0,84,870,10.0,0.0
45,72.0,0,120,2.0,0.0
46,67.0,12,210,4.0,0.0
47,45.0,0,870,10.0,0.0
48,72.0,108,120,7.0,0.0
49,57.0,0,870,5.0,0.0
50,71.0,0,120,2.0,0.0
51,71.0,120,120,7.0,0.0
52,72.0,0,120,2.0,0.0
53,66.0,0,120,8.0,0.0
54,72.0,0,120,7.0,0.0
55,66.0,120,120,4.0,0.0
56,74.0,0,120,2.0,0.0
57,64.0,0,120,4.0,0.0
58,74.0,0,120,7.0,0.0
59,64.0,120,120,8.0,0.0
60,66.0,120,120,4.0,0.0
61,72.0,0,120,7.0,0.0
62,72.0,0,120,2.0,0.0
63,66.0,0,120,8.0,0.0
64,67.0,0,120,8.0,0.0
65,76.0,0,120,7.0,0.0
66,67.0,120,120,4.0,0.0
67,76.0,0,120,2.0,0.0
68,64.0,36,120,8.0,0.0
69,74.0,0,120,7.0,0.0
70,74.0,0,120,2.0,0.0
71,64.0,0,120,4.0,0.0
72,66.0,120,120,4.0,0.0
73,66.0,0,120,8.0,0.0
74,72.0,0,120,2.0,0.0
75,72.0,0,120,7.0,0.0
76,67.0,0,120,4.0,0.0
77,55.0,0,120,5.0,0.0
78,43.0,12,210,10.0,0.0
79,55.0,0,120,1.0,0.0
80,55.0,0,210,10.0,0.0
81,71.0,0,120,2.0,0.0
82,67.0,0,120,8.0,0.0
83,71.0,108,120,7.0,0.0
84,62.0,120,120,1.0,0.0
85,71.0,0,120,8.0,0.0
86,74.0,0,120,7.0,0.0
87,74.0,0,120,2.0,0.0
88,71.0,0,120,4.0,0.0
89,65.0,0,120,5.0,0.0
90,64.0,0,120,5.0,0.0
91,67.0,0,120,7.0,0.0
92,55.0,0,120,3.0,0.0
93,72.0,0,120,4.0,0.0
94,67.0,0,120,2.0,0.0
95,72.0,120,120,8.0,0.0
96,64.0,0,120,1.0,0.0
97,55.0,0,120,10.0,0.0
98,43.0,0,120,10.0,0.0
99,65.0,0,120,1.0,0.0
100,71.0,0,120,2.0,0.0
101,62.0,0,120,5.0,0.0
102,74.0,0,120,8.0,0.0
103,41.0,0,120,10.0,0.0
104,53.0,0,120,10.0,0.0
105,74.0,0,120,4.0,0.0
106,53.0,0,120,3.0,0.0
107,71.0,0,120,7.0,0.0
108,76.0,0,210,4.0,0.0
109,52.0,0,210,10.0,0.0
110,79.0,0,600,6.0,0.0
111,72.0,0,120,7.0,0.0
112,67.0,0,120,1.0,0.0
113,72.0,108,120,2.0,0.0
114,52.0,0,210,3.0,0.0
115,40.0,0,210,10.0,0.0
116,76.0,0,210,8.0,0.0
117,60.0,0,690,5.0,0.0
118,79.0,108,600,0.0,0.0
119,76.0,120,120,7.0,0.0
120,76.0,0,120,2.0,0.0
121,72.0,0,120,1.0,0.0
122,76.0,0,210,4.0,0.0
123,48.0,0,210,3.0,0.0
124,64.0,108,120,1.0,0.0
125,67.0,0,120,2.0,0.0
126,76.0,0,210,8.0,0.0
127,67.0,0,120,7.0,0.0
128,48.0,0,210,10.0,0.0
129,36.0,0,210,10.0,0.0
130,71.0,120,120,7.0,0.0
131,67.0,0,120,1.0,0.0
132,71.0,0,120,2.0,0.0
133,53.0,0,210,10.0,0.0
134,76.0,0,210,4.0,0.0
135,69.0,0,120,7.0,0.0
136,53.0,0,210,3.0,0.0
137,65.0,0,600,1.0,0.0
138,76.0,0,210,8.0,0.0
139,41.0,12,210,10.0,0.0
140,69.0,0,120,2.0,0.0
141,72.0,0,120,2.0,0.0
142,72.0,0,120,0.0,0.0
143,72.0,120,120,6.0,0.0
144,72.0,0,120,7.0,0.0
145,69.0,0,120,0.0,0.0
146,74.0,0,120,4.0,0.0
147,74.0,0,120,8.0,0.0
148,52.0,0,210,3.0,0.0
149,40.0,0,210,10.0,0.0
150,69.0,0,120,6.0,0.0
151,62.0,108,120,5.0,0.0
152,52.0,12,210,10.0,0.0
153,65.0,0,120,2.0,0.0
154,65.0,0,120,7.0,0.0
155,72.0,0,120,8.0,0.0
156,72.0,120,120,0.0,0.0
157,64.0,0,120,5.0,0.0
158,72.0,0,120,6.0,0.0
159,69.0,0,120,2.0,0.0
160,72.0,0,120,4.0,0.0
161,69.0,0,120,7.0,0.0
162,74.0,0,210,8.0,0.0
163,50.0,12,210,10.0,0.0
164,65.0,0,210,5.0,0.0
165,74.0,0,210,4.0,0.0
166,50.0,0,210,3.0,0.0
167,71.0,0,120,7.0,0.0
168,77.0,0,600,6.0,0.0
169,71.0,108,120,2.0,0.0
170,38.0,0,210,10.0,0.0
171,77.0,108,600,0.0,0.0
172,74.0,0,120,7.0,0.0
173,71.0,120,120,1.0,0.0
174,74.0,0,120,2.0,0.0
175,35.0,0,210,10.0,0.0
176,74.0,12,210,8.0,0.0
177,74.0,0,210,4.0,0.0
178,67.0,0,210,5.0,0.0
179,62.0,0,120,1.0,0.0
180,65.0,0,120,7.0,0.0
181,65.0,108,120,2.0,0.0
182,47.0,0,210,10.0,0.0
183,47.0,0,210,3.0,0.0
184,65.0,0,120,1.0,0.0
185,69.0,0,120,7.0,0.0
186,69.0,120,120,2.0,0.0
187,67.0,0,120,2.0,0.0
188,74.0,0,210,8.0,0.0
189,64.0,0,600,1.0,0.0
190,59.0,0,210,5.0,0.0
191,67.0,0,120,7.0,0.0
192,74.0,12,210,4.0,0.0
193,71.0,120,120,6.0,0.0
194,71.0,0,120,2.0,0.0
195,71.0,0,120,7.0,0.0
196,71.0,0,120,0.0,0.0
197,64.0,0,120,7.0,0.0
198,52.0,0,120,3.0,0.0
199,60.0,0,120,5.0,0.0
200,64.0,0,120,2.0,0.0
201,52.0,0,120,10.0,0.0
202,72.0,0,120,8.0,0.0
203,72.0,0,120,4.0,0.0
204,67.0,120,120,0.0,0.0
205,67.0,0,120,6.0,0.0
206,40.0,0,120,10.0,0.0
207,62.0,0,120,5.0,0.0
208,71.0,120,120,0.0,0.0
209,50.0,0,120,3.0,0.0
210,38.0,0,120,10.0,0.0
211,50.0,0,120,10.0,0.0
212,67.0,0,120,7.0,0.0
213,71.0,0,120,4.0,0.0
214,67.0,0,120,2.0,0.0
215,71.0,0,120,8.0,0.0
216,71.0,0,120,6.0,0.0
217,48.0,0,210,10.0,0.0
218,76.0,0,600,0.0,0.0
219,72.0,0,690,4.0,0.0
220,76.0,0,600,6.0,0.0
221,69.0,108,120,2.0,0.0
222,64.0,0,210,5.0,0.0
223,72.0,0,690,8.0,0.0
224,36.0,0,210,10.0,0.0
225,69.0,0,120,7.0,0.0
226,48.0,12,210,3.0,0.0
227,69.0,0,120,1.0,0.0
228,72.0,120,120,7.0,0.0
229,72.0,0,120,2.0,0.0
230,33.0,12,210,10.0,0.0
231,60.0,0,120,1.0,0.0
232,64.0,0,120,2.0,0.0
233,64.0,108,120,7.0,0.0
234,45.0,0,210,10.0,0.0
235,69.0,0,210,5.0,0.0
236,45.0,0,210,3.0,0.0
237,67.0,120,120,7.0,0.0
238,67.0,0,120,2.0,0.0
239,64.0,0,120,1.0,0.0
240,50.0,0,210,10.0,0.0
241,62.0,0,600,1.0,0.0
242,65.0,0,120,7.0,0.0
243,65.0,108,120,2.0,0.0
244,57.0,12,210,5.0,0.0
245,50.0,0,210,3.0,0.0
246,38.0,0,210,10.0,0.0
247,69.0,120,120,0.0,0.0
248,69.0,0,120,2.0,0.0
249,69.0,0,120,7.0,0.0
250,69.0,0,120,6.0,0.0
251,65.0,0,120,6.0,0.0
252,62.0,0,120,2.0,0.0
253,65.0,108,120,0.0,0.0
254,48.0,0,210,10.0,0.0
255,71.0,0,120,8.0,0.0
256,48.0,0,210,3.0,0.0
257,59.0,0,120,5.0,0.0
258,71.0,0,120,4.0,0.0
259,36.0,12,210,10.0,0.0
260,62.0,0,120,7.0,0.0
261,65.0,0,120,7.0,0.0
262,65.0,0,120,2.0,0.0
263,69.0,120,120,0.0,0.0
264,60.0,0,120,5.0,0.0
265,69.0,0,120,6.0,0.0
266,69.0,0,120,4.0,0.0
267,69.0,0,120,8.0,0.0
268,47.0,12,210,10.0,0.0
269,35.0,0,210,10.0,0.0
270,71.0,108,120,4.0,0.0
271,74.0,0,600,0.0,0.0
272,74.0,108,600,6.0,0.0
273,67.0,0,120,2.0,0.0
274,67.0,0,690,8.0,0.0
275,62.0,0,120,5.0,0.0
276,47.0,0,210,3.0,0.0
277,67.0,0,120,7.0,0.0
278,71.0,0,120,7.0,0.0
279,55.0,0,120,5.0,0.0
280,74.0,0,120,4.0,0.0
281,67.0,0,120,1.0,0.0
282,71.0,120,120,2.0,0.0
283,62.0,0,120,2.0,0.0
284,59.0,0,120,1.0,0.0
285,79.0,0,360,4.0,0.0
286,43.0,12,210,3.0,0.0
287,62.0,108,120,7.0,0.0
288,43.0,0,210,10.0,0.0
289,31.0,0,210,10.0,0.0
290,59.0,0,120,5.0,0.0
291,62.0,120,120,1.0,0.0
292,55.0,0,120,5.0,0.0
293,65.0,0,120,7.0,0.0
294,65.0,0,120,2.0,0.0
295,60.0,0,210,5.0,0.0
296,60.0,0,600,1.0,0.0
297,64.0,0,120,7.0,0.0
298,48.0,0,210,3.0,0.0
299,48.0,0,210,10.0,0.0
300,64.0,0,120,2.0,0.0
301,36.0,12,210,10.0,0.0
302,76.0,0,120,4.0,0.0
303,67.0,0,120,2.0,0.0
304,67.0,120,120,7.0,0.0
305,67.0,0,120,0.0,0.0
306,67.0,0,120,6.0,0.0
307,64.0,0,120,6.0,0.0
308,64.0,0,120,0.0,0.0
309,60.0,0,120,2.0,0.0
310,72.0,108,120,4.0,0.0
311,64.0,12,210,5.0,0.0
312,58.0,0,210,8.0,0.0
313,60.0,0,120,7.0,0.0
314,64.0,0,120,7.0,0.0
315,67.0,0,120,0.0,0.0
316,64.0,120,120,2.0,0.0
317,58.0,0,120,3.0,0.0
318,67.0,0,120,6.0,0.0
319,67.0,0,120,4.0,0.0
320,57.0,0,120,3.0,0.0
321,65.0,108,120,2.0,0.0
322,72.0,0,600,6.0,0.0
323,72.0,108,600,0.0,0.0
324,60.0,0,210,5.0,0.0
325,69.0,0,120,4.0,0.0
326,65.0,0,120,7.0,0.0
327,57.0,12,210,8.0,0.0
328,65.0,0,120,1.0,0.0
329,53.0,0,120,3.0,0.0
330,69.0,0,120,2.0,0.0
331,69.0,120,120,7.0,0.0
332,72.0,0,120,4.0,0.0
333,57.0,0,120,3.0,0.0
334,57.0,0,210,5.0,0.0
335,65.0,108,120,4.0,0.0
336,60.0,0,120,2.0,0.0
337,60.0,0,120,7.0,0.0
338,48.0,12,210,10.0,0.0
339,57.0,0,120,1.0,0.0
340,69.0,0,210,8.0,0.0
341,36.0,0,210,10.0,0.0
342,65.0,0,120,7.0,0.0
343,60.0,0,120,1.0,0.0
344,65.0,0,120,2.0,0.0
345,53.0,120,120,3.0,0.0
346,69.0,0,120,4.0,0.0
347,64.0,0,120,7.0,0.0
348,58.0,0,210,5.0,0.0
349,48.0,108,600,1.0,0.0
350,64.0,0,120,2.0,0.0
351,48.0,0,210,10.0,0.0
352,67.0,0,210,8.0,0.0
353,36.0,0,210,10.0,0.0
354,67.0,0,120,4.0,0.0
355,60.0,12,210,3.0,0.0
356,74.0,120,120,6.0,0.0
357,67.0,0,120,7.0,0.0
358,70.0,0,120,4.0,0.0
359,67.0,0,120,2.0,0.0
360,74.0,0,120,0.0,0.0
361,55.0,12,210,5.0,0.0
362,36.0,0,210,10.0,0.0
363,48.0,0,120,3.0,0.0
364,64.0,108,120,4.0,0.0
365,60.0,0,120,2.0,0.0
366,72.0,0,120,6.0,0.0
367,72.0,0,120,0.0,0.0
368,24.0,0,210,10.0,0.0
369,60.0,0,120,7.0,0.0
370,64.0,0,210,8.0,0.0
371,74.0,0,120,0.0,0.0
372,46.0,120,120,3.0,0.0
373,74.0,0,120,6.0,0.0
374,64.0,0,120,7.0,0.0
375,64.0,0,120,2.0,0.0
376,67.0,0,120,4.0,0.0
377,45.0,0,120,3.0,0.0
378,65.0,0,120,7.0,0.0
379,65.0,0,120,2.0,0.0
380,57.0,12,210,5.0,0.0
381,72.0,24,900,0.0,0.0
382,60.0,0,210,8.0,0.0
383,72.0,0,120,4.0,0.0
384,72.0,0,900,6.0,0.0
385,53.0,0,120,1.0,0.0
386,69.0,0,120,7.0,0.0
387,69.0,0,120,2.0,0.0
388,41.0,0,120,3.0,0.0
389,60.0,120,120,4.0,0.0
390,45.0,108,120,3.0,0.0
391,53.0,0,120,5.0,0.0
392,48.0,0,210,10.0,0.0
393,69.0,12,210,8.0,0.0
394,45.0,0,120,1.0,0.0
395,60.0,0,120,2.0,0.0
396,60.0,0,120,7.0,0.0
397,36.0,0,210,10.0,0.0
398,65.0,0,120,4.0,0.0
399,65.0,120,120,7.0,0.0
400,69.0,0,120,4.0,0.0
401,48.0,0,120,1.0,0.0
402,41.0,0,120,3.0,0.0
403,48.0,0,120,5.0,0.0
404,65.0,0,120,2.0,0.0
405,64.0,0,120,2.0,0.0
406,67.0,0,210,4.0,0.0
407,60.0,0,210,5.0,0.0
408,36.0,0,210,1.0,0.0
409,48.0,12,210,3.0,0.0
410,64.0,108,120,7.0,0.0
411,67.0,0,420,8.0,0.0
412,48.0,0,210,10.0,0.0
413,36.0,0,210,10.0,0.0
414,67.0,120,120,7.0,0.0
415,67.0,0,120,2.0,0.0
416,24.0,12,210,10.0,0.0
417,36.0,0,210,10.0,0.0
418,60.0,84,120,2.0,0.0
419,55.0,0,210,1.0,0.0
420,60.0,0,210,7.0,0.0
421,64.0,120,120,2.0,0.0
422,52.0,12,210,1.0,0.0
423,69.0,108,120,2.0,0.0
424,72.0,66,120,2.0,0.0
425,33.0,12,210,10.0,0.0
426,76.0,54,60,0.0,0.0
427,57.0,0,450,3.0,0.0
428,45.0,0,210,10.0,0.0
429,64.0,6,120,2.0,0.0
430,60.0,0,450,1.0,0.0
431,74.0,60,60,0.0,0.0
432,72.0,42,60,0.0,0.0
433,67.0,6,120,2.0,0.0
434,71.0,60,60,0.0,0.0
435,66.0,6,120,2.0,0.0
436,50.0,12,210,10.0,0.0
437,38.0,0,210,10.0,0.0
438,69.0,54,60,0.0,0.0
439,67.0,60,60,0.0,0.0
440,66.0,42,60,0.0,0.0
441,69.0,6,120,2.0,0.0
442,64.0,114,60,0.0,0.0
443,38.0,12,210,10.0,0.0
444,57.0,0,210,1.0,0.0
445,72.0,0,210,0.0,0.0
446,26.0,0,210,10.0,0.0
447,54.0,0,210,3.0,0.0
448,62.0,108,120,2.0,0.0
449,66.0,120,120,2.0,0.0
450,50.0,0,210,3.0,0.0
451,54.0,12,210,1.0,0.0
452,71.0,108,120,2.0,0.0
453,74.0,66,120,2.0,0.0
454,62.0,0,450,1.0,0.0
455,35.0,0,210,10.0,0.0
456,47.0,12,210,10.0,0.0
457,59.0,0,450,3.0,0.0
458,66.0,6,120,2.0,0.0
459,78.0,54,60,0.0,0.0
460,76.0,60,60,0.0,0.0
461,74.0,42,60,0.0,0.0
462,69.0,6,120,2.0,0.0
463,72.0,60,60,0.0,0.0
464,71.0,54,60,0.0,0.0
465,67.0,6,120,2.0,0.0
466,40.0,0,210,10.0,0.0
467,52.0,12,210,10.0,0.0
468,69.0,60,60,0.0,0.0
469,67.0,42,60,0.0,0.0
470,71.0,6,120,2.0,0.0
471,66.0,114,60,0.0,0.0
472,55.0,0,210,3.0,0.0
473,59.0,0,210,1.0,0.0
474,74.0,0,210,0.0,0.0
475,28.0,0,210,10.0,0.0
476,64.0,108,120,2.0,0.0
477,40.0,12,210,10.0,0.0
478,67.0,120,120,2.0,0.0
479,72.0,108,120,2.0,0.0
480,52.0,0,210,3.0,0.0
481,55.0,12,210,1.0,0.0
482,76.0,66,120,2.0,0.0
483,64.0,12,450,1.0,0.0
484,40.0,0,210,10.0,0.0
485,67.0,6,120,2.0,0.0
486,79.0,54,60,0.0,0.0
487,60.0,0,450,3.0,0.0
488,52.0,12,210,10.0,0.0
489,78.0,60,60,0.0,0.0
490,71.0,6,120,2.0,0.0
491,76.0,42,60,0.0,0.0
492,74.0,60,60,0.0,0.0
493,54.0,0,210,10.0,0.0
494,69.0,6,120,2.0,0.0
495,72.0,54,60,0.0,0.0
496,42.0,0,210,10.0,0.0
497,71.0,60,60,0.0,0.0
498,69.0,42,60,0.0,0.0
499,72.0,6,120,2.0,0.0
500,67.0,60,60,0.0,0.0
501,60.0,0,210,1.0,0.0
502,30.0,0,210,10.0,0.0
503,42.0,0,210,10.0,0.0
504,66.0,6,120,2.0,0.0
505,72.0,54,60,0.0,0.0
506,57.0,12,210,3.0,0.0
507,71.0,60,60,0.0,0.0
508,69.0,6,120,2.0,0.0
509,69.0,42,60,0.0,0.0
510,67.0,114,60,0.0,0.0
511,74.0,108,120,2.0,0.0
512,54.0,0,210,3.0,0.0
513,57.0,0,210,1.0,0.0
514,72.0,12,210,0.0,0.0
515,78.0,120,120,2.0,0.0
516,62.0,108,360,3.0,0.0
517,69.0,108,120,2.0,0.0
518,50.0,0,210,10.0,0.0
519,38.0,0,210,10.0,0.0
520,66.0,12,210,1.0,0.0
521,72.0,120,120,2.0,0.0
522,55.0,0,870,10.0,0.0
523,55.0,72,870,5.0,0.0
524,67.0,12,210,1.0,0.0
525,71.0,0,210,2.0,0.0
526,43.0,0,870,10.0,0.0
527,60.0,120,120,3.0,0.0
528,59.0,0,120,3.0,0.0
529,62.0,12,210,1.0,0.0
530,67.0,0,120,0.0,0.0
531,67.0,108,120,6.0,0.0
532,57.0,0,120,3.0,0.0
533,66.0,120,120,6.0,0.0
534,66.0,0,120,0.0,0.0
535,67.0,108,120,0.0,0.0
536,67.0,0,120,6.0,0.0
537,55.0,0,210,3.0,0.0
538,59.0,12,210,1.0,0.0
539,69.0,0,120,6.0,0.0
540,69.0,120,120,0.0,0.0
541,55.0,12,210,1.0,0.0
542,71.0,0,120,0.0,0.0
543,71.0,36,120,6.0,0.0
544,62.0,0,360,3.0,0.0
545,72.0,0,120,0.0,0.0
546,72.0,120,120,6.0,0.0
547,42.0,0,870,10.0,0.0
548,54.0,0,870,5.0,0.0
549,74.0,0,120,6.0,0.0
550,74.0,120,120,0.0,0.0
551,54.0,72,870,10.0,0.0
552,73.0,120,120,6.0,0.0
553,55.0,0,120,3.0,0.0
554,73.0,0,120,0.0,0.0
555,62.0,0,210,1.0,0.0
556,74.0,0,120,0.0,0.0
557,69.0,0,210,2.0,0.0
558,54.0,108,120,3.0,0.0
559,69.0,12,210,7.0,0.0
560,74.0,0,120,6.0,0.0
561,76.0,0,120,6.0,0.0
562,76.0,0,120,0.0,0.0
563,52.0,120,120,3.0,0.0
564,50.0,0,210,3.0,0.0
565,74.0,12,210,7.0,0.0
566,57.0,0,210,1.0,0.0
567,78.0,0,120,0.0,0.0
568,78.0,108,120,6.0,0.0
569,74.0,0,210,2.0,0.0
570,76.0,0,120,0.0,0.0
571,76.0,120,120,6.0,0.0
572,78.0,36,120,0.0,0.0
573,74.0,0,210,2.0,0.0
574,62.0,0,210,3.0,0.0
575,74.0,0,210,7.0,0.0
576,78.0,0,120,6.0,0.0
577,54.0,12,210,1.0,0.0
578,74.0,0,120,6.0,0.0
579,74.0,120,120,0.0,0.0
580,40.0,84,870,10.0,0.0
581,74.0,12,210,7.0,0.0
582,64.0,0,120,3.0,0.0
583,52.0,0,870,10.0,0.0
584,79.0,0,120,6.0,0.0
585,52.0,0,870,5.0,0.0
586,79.0,108,120,0.0,0.0
587,74.0,0,210,2.0,0.0
588,78.0,120,120,0.0,0.0
589,62.0,0,120,3.0,0.0
590,78.0,0,120,6.0,0.0
591,73.0,0,120,2.0,0.0
592,64.0,12,210,1.0,0.0
593,79.0,108,120,6.0,0.0
594,73.0,0,120,7.0,0.0
595,64.0,0,120,3.0,0.0
596,79.0,0,120,0.0,0.0
597,81.0,0,120,0.0,0.0
598,71.0,0,120,2.0,0.0
599,71.0,0,120,7.0,0.0
600,66.0,120,120,3.0,0.0
601,81.0,0,120,6.0,0.0
602,57.0,0,120,1.0,0.0
603,73.0,0,120,7.0,0.0
604,79.0,0,120,6.0,0.0
605,79.0,0,120,0.0,0.0
606,64.0,120,120,3.0,0.0
607,73.0,0,120,2.0,0.0
608,83.0,0,120,6.0,0.0
609,83.0,0,120,0.0,0.0
610,66.0,0,120,3.0,0.0
611,55.0,120,120,1.0,0.0
612,74.0,0,120,2.0,0.0
613,74.0,0,120,7.0,0.0
614,81.0,0,120,6.0,0.0
615,71.0,0,120,7.0,0.0
616,62.0,0,120,3.0,0.0
617,81.0,36,120,0.0,0.0
618,54.0,0,120,1.0,0.0
619,71.0,0,120,2.0,0.0
620,73.0,0,120,2.0,0.0
621,64.0,120,120,3.0,0.0
622,79.0,0,120,0.0,0.0
623,79.0,0,120,6.0,0.0
624,55.0,0,120,1.0,0.0
625,73.0,0,120,7.0,0.0
626,78.0,0,120,6.0,0.0
627,74.0,108,120,2.0,0.0
628,38.0,0,120,10.0,0.0
629,50.0,0,120,10.0,0.0
630,78.0,0,120,0.0,0.0
631,50.0,0,120,5.0,0.0
632,57.0,12,210,1.0,0.0
633,74.0,0,120,7.0,0.0
634,66.0,0,120,3.0,0.0
635,52.0,0,120,10.0,0.0
636,57.0,0,120,5.0,0.0
637,78.0,0,120,2.0,0.0
638,60.0,120,120,3.0,0.0
639,78.0,0,120,7.0,0.0
640,40.0,0,120,10.0,0.0
641,81.0,0,120,0.0,0.0
642,81.0,0,120,6.0,0.0
643,74.0,0,120,6.0,0.0
644,59.0,0,120,5.0,0.0
645,74.0,0,120,0.0,0.0
646,79.0,0,120,2.0,0.0
647,62.0,0,120,1.0,0.0
648,79.0,0,120,7.0,0.0
649,50.0,0,120,10.0,0.0
650,59.0,0,120,3.0,0.0
651,38.0,120,120,10.0,0.0
652,36.0,0,120,10.0,0.0
653,57.0,0,120,3.0,0.0
654,81.0,0,120,7.0,0.0
655,48.0,0,120,10.0,0.0
656,78.0,0,120,6.0,0.0
657,78.0,0,120,0.0,0.0
658,60.0,120,120,5.0,0.0
659,60.0,0,120,1.0,0.0
660,81.0,0,120,2.0,0.0
661,79.0,0,120,0.0,0.0
662,59.0,0,210,1.0,0.0
663,79.0,108,120,6.0,0.0
664,62.0,0,120,5.0,0.0
665,74.0,0,600,8.0,0.0
666,74.0,0,600,4.0,0.0
667,83.0,0,210,2.0,0.0
668,47.0,0,210,10.0,0.0
669,83.0,0,210,7.0,0.0
670,35.0,12,210,10.0,0.0
671,55.0,0,690,3.0,0.0
672,83.0,0,120,0.0,0.0
673,83.0,0,120,6.0,0.0
674,67.0,120,120,5.0,0.0
675,74.0,0,120,0.0,0.0
676,83.0,0,210,2.0,0.0
677,74.0,108,120,6.0,0.0
678,83.0,0,210,7.0,0.0
679,43.0,0,210,10.0,0.0
680,59.0,0,120,5.0,0.0
681,31.0,12,210,10.0,0.0
682,55.0,0,210,1.0,0.0
683,78.0,0,120,6.0,0.0
684,78.0,0,120,0.0,0.0
685,62.0,120,120,5.0,0.0
686,60.0,0,210,1.0,0.0
687,76.0,108,120,6.0,0.0
688,83.0,0,210,7.0,0.0
689,48.0,0,210,10.0,0.0
690,76.0,0,120,0.0,0.0
691,60.0,108,600,5.0,0.0
692,83.0,12,210,2.0,0.0
693,36.0,0,210,10.0,0.0
694,67.0,0,120,8.0,0.0
695,79.0,0,120,0.0,0.0
696,79.0,0,120,6.0,0.0
697,67.0,120,120,4.0,0.0
698,64.0,108,120,4.0,0.0
699,81.0,0,120,7.0,0.0
700,35.0,0,210,10.0,0.0
701,72.0,0,120,0.0,0.0
702,57.0,0,120,3.0,0.0
703,81.0,0,120,2.0,0.0
704,72.0,0,120,6.0,0.0
705,47.0,12,210,10.0,0.0
706,59.0,0,210,1.0,0.0
707,64.0,0,120,8.0,0.0
708,59.0,0,120,3.0,0.0
709,67.0,0,120,4.0,0.0
710,79.0,0,120,7.0,0.0
711,76.0,0,120,6.0,0.0
712,76.0,120,120,0.0,0.0
713,67.0,0,120,8.0,0.0
714,79.0,0,120,2.0,0.0
715,57.0,0,210,1.0,0.0
716,81.0,0,210,2.0,0.0
717,33.0,0,210,10.0,0.0
718,60.0,0,210,3.0,0.0
719,45.0,12,210,10.0,0.0
720,78.0,0,120,0.0,0.0
721,72.0,0,600,4.0,0.0
722,72.0,0,600,8.0,0.0
723,81.0,0,210,7.0,0.0
724,78.0,0,120,6.0,0.0
725,81.0,0,120,6.0,0.0
726,81.0,120,120,0.0,0.0
727,66.0,0,120,5.0,0.0
728,54.0,0,210,1.0,0.0
729,81.0,0,210,7.0,0.0
730,72.0,0,120,6.0,0.0
731,72.0,0,120,0.0,0.0
732,81.0,0,210,2.0,0.0
733,30.0,0,210,10.0,0.0
734,42.0,12,210,10.0,0.0
735,66.0,0,210,3.0,0.0
736,57.0,108,120,5.0,0.0
737,76.0,0,120,0.0,0.0
738,60.0,0,120,5.0,0.0
739,76.0,120,120,6.0,0.0
740,59.0,0,600,5.0,0.0
741,74.0,108,120,0.0,0.0
742,81.0,0,210,7.0,0.0
743,74.0,0,120,6.0,0.0
744,81.0,0,210,2.0,0.0
745,54.0,12,210,3.0,0.0
746,78.0,0,120,6.0,0.0
747,66.0,120,120,8.0,0.0
748,66.0,0,120,4.0,0.0
749,78.0,0,120,0.0,0.0
750,79.0,120,120,2.0,0.0
751,79.0,0,120,7.0,0.0
752,35.0,0,120,10.0,0.0
753,55.0,0,120,3.0,0.0
754,59.0,0,120,1.0,0.0
755,62.0,0,120,4.0,0.0
756,71.0,0,120,0.0,0.0
757,62.0,0,120,8.0,0.0
758,47.0,0,120,10.0,0.0
759,71.0,0,120,6.0,0.0
760,66.0,0,120,4.0,0.0
761,33.0,120,120,10.0,0.0
762,74.0,0,120,0.0,0.0
763,78.0,0,120,2.0,0.0
764,57.0,0,120,3.0,0.0
765,66.0,0,120,8.0,0.0
766,45.0,0,120,10.0,0.0
767,78.0,0,120,7.0,0.0
768,57.0,0,120,1.0,0.0
769,74.0,0,120,6.0,0.0
770,76.0,0,120,6.0,0.0
771,71.0,0,600,8.0,0.0
772,79.0,0,690,2.0,0.0
773,31.0,0,210,10.0,0.0
774,79.0,0,690,7.0,0.0
775,43.0,0,210,10.0,0.0
776,59.0,12,210,3.0,0.0
777,76.0,108,120,0.0,0.0
778,71.0,108,600,4.0,0.0
779,55.0,0,210,1.0,0.0
780,64.0,0,120,5.0,0.0
781,79.0,0,120,0.0,0.0
782,79.0,120,120,6.0,0.0
783,40.0,12,210,10.0,0.0
784,55.0,0,120,5.0,0.0
785,28.0,0,210,10.0,0.0
786,64.0,0,210,3.0,0.0
787,71.0,108,120,6.0,0.0
788,71.0,0,120,0.0,0.0
789,52.0,0,210,1.0,0.0
790,59.0,120,120,5.0,0.0
791,74.0,0,120,6.0,0.0
792,74.0,0,120,0.0,0.0
793,45.0,0,210,10.0,0.0
794,72.0,0,120,6.0,0.0
795,57.0,0,210,1.0,0.0
796,33.0,0,210,10.0,0.0
797,72.0,0,120,0.0,0.0
798,52.0,12,210,3.0,0.0
799,57.0,0,600,5.0,0.0
800,76.0,120,120,0.0,0.0
801,64.0,0,120,4.0,0.0
802,76.0,0,120,6.0,0.0
803,64.0,0,120,8.0,0.0
804,43.0,12,210,10.0,0.0
805,78.0,0,120,2.0,0.0
806,31.0,0,210,10.0,0.0
807,54.0,0,120,3.0,0.0
808,69.0,0,120,0.0,0.0
809,60.0,0,120,8.0,0.0
810,55.0,0,210,1.0,0.0
811,69.0,0,120,6.0,0.0
812,78.0,108,120,7.0,0.0
813,60.0,0,120,4.0,0.0
814,72.0,0,120,6.0,0.0
815,76.0,0,120,7.0,0.0
816,76.0,0,120,2.0,0.0
817,72.0,66,120,0.0,0.0
818,64.0,0,120,4.0,0.0
819,64.0,0,120,8.0,0.0
820,55.0,0,120,3.0,0.0
821,30.0,12,210,10.0,0.0
822,69.0,0,600,4.0,0.0
823,78.0,54,60,2.0,0.0
824,42.0,0,210,10.0,0.0
825,69.0,108,600,8.0,0.0
826,74.0,6,120,0.0,0.0
827,54.0,0,210,1.0,0.0
828,74.0,12,690,7.0,0.0
829,74.0,0,120,6.0,0.0
830,57.0,0,120,3.0,0.0
831,79.0,102,60,2.0,0.0
832,50.0,0,120,3.0,0.0
833,78.0,0,120,6.0,0.0
834,62.0,0,120,5.0,0.0
835,78.0,108,120,0.0,0.0
836,81.0,12,210,2.0,0.0
837,38.0,0,210,10.0,0.0
838,69.0,0,120,6.0,0.0
839,54.0,108,120,5.0,0.0
840,26.0,12,210,10.0,0.0
841,50.0,0,210,1.0,0.0
842,54.0,0,120,3.0,0.0
843,69.0,0,120,0.0,0.0
844,57.0,0,120,5.0,0.0
845,50.0,0,120,3.0,0.0
846,78.0,120,120,2.0,0.0
847,72.0,0,120,0.0,0.0
848,72.0,0,120,6.0,0.0
849,55.0,0,210,3.0,0.0
850,55.0,0,210,1.0,0.0
851,74.0,0,120,2.0,0.0
852,43.0,0,210,10.0,0.0
853,71.0,0,120,6.0,0.0
854,71.0,0,120,0.0,0.0
855,31.0,0,210,10.0,0.0
856,55.0,0,600,5.0,0.0
857,62.0,120,120,4.0,0.0
858,74.0,0,120,0.0,0.0
859,74.0,0,120,6.0,0.0
860,71.0,0,120,2.0,0.0
861,62.0,0,120,8.0,0.0
862,67.0,0,120,6.0,0.0
863,67.0,108,120,2.0,0.0
864,65.0,0,210,7.0,0.0
865,59.0,12,210,3.0,0.0
866,67.0,0,120,0.0,0.0
867,59.0,0,120,8.0,0.0
868,59.0,0,120,4.0,0.0
869,71.0,0,120,0.0,0.0
870,62.0,120,120,2.0,0.0
871,71.0,0,120,6.0,0.0
872,65.0,0,120,1.0,0.0
873,62.0,0,120,8.0,0.0
874,62.0,0,120,4.0,0.0
875,72.0,0,120,0.0,0.0
876,67.0,0,600,4.0,0.0
877,64.0,0,120,1.0,0.0
878,64.0,0,210,7.0,0.0
879,64.0,108,120,2.0,0.0
880,55.0,12,210,3.0,0.0
881,67.0,0,600,8.0,0.0
882,72.0,0,120,6.0,0.0
883,60.0,0,120,1.0,0.0
884,76.0,0,120,0.0,0.0
885,76.0,120,120,6.0,0.0
886,67.0,0,120,2.0,0.0
887,60.0,0,120,5.0,0.0
888,52.0,108,120,5.0,0.0
889,76.0,0,210,7.0,0.0
890,67.0,0,120,0.0,0.0
891,52.0,12,210,3.0,0.0
892,43.0,0,210,10.0,0.0
893,60.0,0,120,2.0,0.0
894,64.0,0,120,1.0,0.0
895,55.0,0,210,10.0,0.0
896,67.0,0,120,6.0,0.0
897,60.0,0,120,1.0,0.0
898,72.0,0,120,0.0,0.0
899,72.0,0,120,6.0,0.0
900,55.0,0,120,5.0,0.0
901,64.0,120,120,2.0,0.0
902,62.0,0,120,2.0,0.0
903,53.0,12,210,3.0,0.0
904,71.0,0,120,6.0,0.0
905,67.0,0,210,1.0,0.0
906,55.0,0,210,10.0,0.0
907,74.0,0,210,7.0,0.0
908,43.0,0,210,10.0,0.0
909,43.0,108,600,5.0,0.0
910,71.0,108,120,0.0,0.0
911,65.0,0,120,2.0,0.0
912,74.0,0,120,6.0,0.0
913,69.0,120,120,8.0,0.0
914,69.0,0,120,4.0,0.0
915,74.0,0,120,0.0,0.0
916,31.0,0,210,10.0,0.0
917,59.0,108,120,2.0,0.0
918,43.0,0,210,10.0,0.0
919,67.0,0,120,4.0,0.0
920,71.0,12,210,7.0,0.0
921,67.0,0,120,0.0,0.0
922,67.0,0,120,8.0,0.0
923,50.0,0,210,3.0,0.0
924,67.0,0,120,6.0,0.0
925,55.0,0,120,1.0,0.0
926,62.0,0,120,2.0,0.0
927,71.0,0,120,6.0,0.0
928,69.0,0,120,4.0,0.0
929,69.0,0,120,8.0,0.0
930,53.0,120,120,1.0,0.0
931,71.0,0,120,0.0,0.0
932,72.0,0,120,0.0,0.0
933,72.0,0,120,6.0,0.0
934,60.0,0,120,2.0,0.0
935,52.0,0,120,1.0,0.0
936,67.0,0,690,8.0,0.0
937,67.0,12,210,7.0,0.0
938,52.0,0,210,3.0,0.0
939,67.0,0,690,4.0,0.0
940,76.0,0,120,6.0,0.0
941,48.0,120,120,5.0,0.0
942,55.0,0,120,2.0,0.0
943,76.0,0,120,0.0,0.0
944,48.0,0,120,1.0,0.0
945,48.0,108,120,3.0,0.0
946,43.0,0,210,10.0,0.0
947,76.0,12,210,7.0,0.0
948,40.0,0,120,5.0,0.0
949,52.0,0,120,1.0,0.0
950,67.0,0,120,0.0,0.0
951,67.0,0,120,6.0,0.0
952,55.0,0,210,10.0,0.0
953,60.0,0,120,2.0,0.0
954,48.0,0,120,1.0,0.0
955,64.0,0,120,2.0,0.0
956,43.0,120,120,3.0,0.0
957,72.0,0,120,0.0,0.0
958,43.0,0,120,5.0,0.0
959,72.0,0,120,6.0,0.0
960,55.0,108,120,1.0,0.0
961,62.0,0,210,2.0,0.0
962,55.0,0,210,3.0,0.0
963,74.0,0,210,7.0,0.0
964,71.0,12,210,6.0,0.0
965,55.0,0,210,10.0,0.0
966,31.0,0,210,5.0,0.0
967,71.0,0,120,0.0,0.0
968,43.0,0,210,10.0,0.0
969,74.0,0,120,0.0,0.0
970,59.0,120,120,1.0,0.0
971,53.0,0,210,10.0,0.0
972,76.0,108,120,0.0,0.0
973,61.0,0,120,1.0,0.0
974,41.0,12,210,10.0,0.0
975,62.0,228,120,1.0,0.0
976,77.0,0,120,0.0,0.0
977,52.0,0,210,10.0,0.0
978,40.0,12,210,10.0,0.0
979,79.0,108,600,0.0,0.0
980,64.0,0,690,1.0,0.0
981,71.0,0,120,2.0,0.0
982,55.0,120,120,3.0,0.0
983,38.0,12,210,10.0,0.0
984,73.0,108,120,2.0,0.0
985,50.0,0,210,10.0,0.0
986,57.0,0,120,3.0,0.0
987,58.0,120,120,3.0,0.0
988,74.0,0,120,2.0,0.0
989,49.0,0,210,10.0,0.0
990,57.0,0,210,3.0,0.0
991,37.0,12,210,10.0,0.0
992,76.0,0,210,2.0,0.0
993,81.0,0,120,0.0,0.0
994,64.0,120,120,4.0,0.0
995,69.0,0,210,7.0,0.0
996,38.0,0,210,10.0,0.0
997,57.0,0,210,1.0,0.0
998,62.0,0,210,3.0,0.0
999,50.0,12,210,10.0,0.0
1000,62.0,0,210,8.0,0.0
1001,74.0,24,420,6.0,0.0
1002,79.0,108,120,0.0,0.0
1003,74.0,0,420,2.0,0.0
1004,50.0,0,210,5.0,0.0
1005,65.0,0,120,4.0,0.0
1006,67.0,0,120,4.0,0.0
1007,77.0,120,120,0.0,0.0
1008,69.0,0,210,7.0,0.0
1009,57.0,12,210,10.0,0.0
1010,57.0,24,330,3.0,0.0
1011,69.0,0,600,1.0,0.0
1012,64.0,0,210,8.0,0.0
1013,57.0,0,210,5.0,0.0
1014,45.0,0,210,10.0,0.0
1015,76.0,84,120,0.0,0.0
1016,69.0,24,420,4.0,0.0
1017,77.0,0,120,0.0,0.0
1018,62.0,96,120,4.0,0.0
1019,79.0,0,120,0.0,0.0
1020,45.0,0,210,5.0,0.0
1021,64.0,84,120,4.0,0.0
1022,73.0,12,210,2.0,0.0
1023,45.0,0,210,10.0,0.0
1024,69.0,0,210,7.0,0.0
1025,33.0,0,210,10.0,0.0
1026,73.0,0,210,6.0,0.0
1027,64.0,0,210,8.0,0.0
1028,61.0,66,120,4.0,0.0
1029,55.0,0,120,3.0,0.0
1030,76.0,0,120,0.0,0.0
1031,57.0,54,60,4.0,0.0
1032,62.0,0,210,8.0,0.0
1033,74.0,6,120,2.0,0.0
1034,53.0,0,120,3.0,0.0
1035,74.0,0,210,6.0,0.0
1036,26.0,0,210,10.0,0.0
1037,38.0,0,210,10.0,0.0
1038,77.0,24,420,0.0,0.0
1039,38.0,0,210,5.0,0.0
1040,69.0,12,210,7.0,0.0
1041,67.0,60,60,4.0,0.0
1042,73.0,0,120,2.0,0.0
1043,57.0,0,120,3.0,0.0
1044,65.0,42,60,4.0,0.0
1045,67.0,6,120,1.0,0.0
1046,64.0,114,60,4.0,0.0
1047,65.0,0,120,1.0,0.0
1048,45.0,0,210,10.0,0.0
1049,33.0,12,210,10.0,0.0
1050,74.0,84,120,2.0,0.0
1051,59.0,0,120,3.0,0.0
1052,62.0,0,210,4.0,0.0
1053,64.0,0,120,1.0,0.0
1054,61.0,120,120,3.0,0.0
1055,76.0,0,120,2.0,0.0
1056,62.0,0,690,3.0,0.0
1057,38.0,12,210,10.0,0.0
1058,62.0,108,120,1.0,0.0
1059,50.0,0,210,10.0,0.0
1060,77.0,108,600,2.0,0.0
1061,69.0,0,120,0.0,0.0
1062,53.0,120,120,1.0,0.0
1063,55.0,0,120,1.0,0.0
1064,48.0,12,210,10.0,0.0
1065,36.0,0,210,10.0,0.0
1066,71.0,108,120,0.0,0.0
1067,57.0,0,120,1.0,0.0
1068,72.0,120,120,0.0,0.0
1069,35.0,0,210,10.0,0.0
1070,55.0,0,210,1.0,0.0
1071,47.0,0,210,10.0,0.0
1072,74.0,12,210,0.0,0.0
1073,79.0,120,120,2.0,0.0
1074,62.0,0,120,4.0,0.0
1075,55.0,0,210,3.0,0.0
1076,36.0,0,210,10.0,0.0
1077,77.0,0,120,2.0,0.0
1078,64.0,108,120,4.0,0.0
1079,72.0,24,420,6.0,0.0
1080,72.0,0,420,0.0,0.0
1081,45.0,12,210,5.0,0.0
1082,48.0,0,210,10.0,0.0
1083,60.0,0,210,1.0,0.0
1084,60.0,0,210,8.0,0.0
1085,67.0,0,210,7.0,0.0
1086,65.0,120,120,4.0,0.0
1087,76.0,0,120,2.0,0.0
1088,67.0,6,600,3.0,0.0
1089,67.0,0,210,7.0,0.0
1090,55.0,24,330,1.0,0.0
1091,62.0,0,210,8.0,0.0
1092,43.0,12,210,10.0,0.0
1093,55.0,0,210,10.0,0.0
1094,74.0,84,120,2.0,0.0
1095,55.0,0,210,5.0,0.0
1096,67.0,24,420,4.0,0.0
1097,76.0,96,120,2.0,0.0
1098,60.0,0,120,4.0,0.0
1099,62.0,84,120,4.0,0.0
1100,43.0,0,210,5.0,0.0
1101,67.0,0,210,7.0,0.0
1102,77.0,0,120,2.0,0.0
1103,31.0,12,210,10.0,0.0
1104,62.0,0,210,8.0,0.0
1105,43.0,0,210,10.0,0.0
1106,71.0,0,210,0.0,0.0
1107,71.0,0,210,6.0,0.0
1108,53.0,0,120,1.0,0.0
1109,59.0,0,120,4.0,0.0
1110,74.0,66,120,2.0,0.0
1111,55.0,54,60,4.0,0.0
1112,36.0,0,120,5.0,0.0
1113,72.0,0,120,0.0,0.0
1114,76.0,108,600,2.0,0.0
1115,67.0,0,210,7.0,0.0
1116,52.0,0,120,1.0,0.0
1117,36.0,0,210,10.0,0.0
1118,60.0,0,210,8.0,0.0
1119,48.0,12,210,10.0,0.0
1120,72.0,0,210,6.0,0.0
1121,65.0,60,60,4.0,0.0
1122,64.0,42,60,4.0,0.0
1123,55.0,0,120,1.0,0.0
1124,55.0,0,120,3.0,0.0
1125,55.0,6,120,5.0,0.0
1126,71.0,0,120,0.0,0.0
1127,62.0,114,60,4.0,0.0
1128,57.0,0,120,5.0,0.0
1129,35.0,0,210,10.0,0.0
1130,47.0,12,210,10.0,0.0
1131,57.0,108,120,1.0,0.0
1132,60.0,0,210,4.0,0.0
1133,57.0,0,120,3.0,0.0
1134,72.0,0,120,0.0,0.0
1135,59.0,0,120,1.0,0.0
1136,59.0,0,120,5.0,0.0
1137,59.0,120,120,3.0,0.0
1138,74.0,0,120,0.0,0.0
1139,33.0,12,210,10.0,0.0
1140,60.0,0,600,1.0,0.0
1141,60.0,0,600,3.0,0.0
1142,76.0,0,120,0.0,0.0
1143,60.0,108,600,5.0,0.0
1144,45.0,0,210,10.0,0.0
1145,76.0,120,120,2.0,0.0
1146,74.0,0,120,0.0,0.0
1147,43.0,12,210,10.0,0.0
1148,72.0,0,120,0.0,0.0
1149,78.0,108,120,2.0,0.0
1150,31.0,0,210,10.0,0.0
1151,71.0,120,120,0.0,0.0
1152,79.0,0,120,2.0,0.0
1153,42.0,12,210,10.0,0.0
1154,30.0,0,210,10.0,0.0
1155,69.0,0,120,0.0,0.0
1156,81.0,0,210,2.0,0.0
1157,66.0,0,120,0.0,0.0
1158,62.0,0,120,3.0,0.0
1159,62.0,0,120,1.0,0.0
1160,62.0,120,120,5.0,0.0
1161,59.0,0,120,3.0,0.0
1162,62.0,0,210,8.0,0.0
1163,79.0,0,420,2.0,0.0
1164,74.0,0,360,0.0,0.0
1165,31.0,0,210,10.0,0.0
1166,59.0,0,120,1.0,0.0
1167,67.0,0,210,7.0,0.0
1168,43.0,12,210,10.0,0.0
1169,79.0,24,420,6.0,0.0
1170,59.0,108,120,5.0,0.0
1171,60.0,0,120,1.0,0.0
1172,60.0,120,120,3.0,0.0
1173,60.0,0,120,5.0,0.0
1174,69.0,12,210,7.0,0.0
1175,50.0,0,210,10.0,0.0
1176,57.0,0,120,3.0,0.0
1177,57.0,66,120,5.0,0.0
1178,38.0,0,210,10.0,0.0
1179,62.0,0,210,8.0,0.0
1180,57.0,0,120,1.0,0.0
1181,59.0,6,120,1.0,0.0
1182,59.0,0,120,5.0,0.0
1183,59.0,0,120,3.0,0.0
1184,72.0,18,60,0.0,0.0
1185,71.0,60,60,0.0,0.0
1186,69.0,54,60,0.0,0.0
1187,69.0,0,210,7.0,0.0
1188,78.0,12,210,6.0,0.0
1189,38.0,0,210,10.0,0.0
1190,60.0,0,120,1.0,0.0
1191,60.0,0,120,5.0,0.0
1192,26.0,0,210,10.0,0.0
1193,78.0,0,210,2.0,0.0
1194,62.0,0,210,8.0,0.0
1195,60.0,6,120,3.0,0.0
1196,67.0,60,60,0.0,0.0
1197,57.0,0,120,3.0,0.0
1198,57.0,6,120,1.0,0.0
1199,57.0,0,120,5.0,0.0
1200,66.0,42,60,0.0,0.0
1201,64.0,114,60,0.0,0.0
1202,59.0,0,120,3.0,0.0
1203,59.0,0,120,5.0,0.0
1204,31.0,0,210,10.0,0.0
1205,67.0,12,210,7.0,0.0
1206,62.0,0,210,8.0,0.0
1207,62.0,0,120,0.0,0.0
1208,43.0,0,210,10.0,0.0
1209,79.0,0,210,2.0,0.0
1210,79.0,0,120,6.0,0.0
1211,59.0,108,120,1.0,0.0
1212,62.0,120,120,1.0,0.0
1213,77.0,0,120,4.0,0.0
1214,62.0,0,120,3.0,0.0
1215,62.0,0,120,5.0,0.0
1216,71.0,0,120,6.0,0.0
1217,71.0,0,120,0.0,0.0
1218,55.0,0,120,1.0,0.0
1219,76.0,0,120,4.0,0.0
1220,55.0,0,120,10.0,0.0
1221,55.0,0,120,5.0,0.0
1222,72.0,108,120,0.0,0.0
1223,72.0,0,120,6.0,0.0
1224,67.0,12,210,2.0,0.0
1225,55.0,0,120,3.0,0.0
1226,43.0,0,120,10.0,0.0
1227,74.0,0,120,0.0,0.0
1228,41.0,120,120,10.0,0.0
1229,74.0,0,120,6.0,0.0
1230,74.0,0,120,4.0,0.0
1231,59.0,0,120,5.0,0.0
1232,53.0,0,120,10.0,0.0
1233,59.0,0,120,1.0,0.0
1234,59.0,0,120,3.0,0.0
1235,72.0,0,120,4.0,0.0
1236,60.0,0,120,1.0,0.0
1237,40.0,0,210,10.0,0.0
1238,60.0,0,120,5.0,0.0
1239,79.0,0,600,7.0,0.0
1240,60.0,108,120,3.0,0.0
1241,79.0,108,600,2.0,0.0
1242,76.0,12,210,0.0,0.0
1243,52.0,0,210,10.0,0.0
1244,76.0,0,210,6.0,0.0
1245,64.0,0,120,1.0,0.0
1246,67.0,120,120,4.0,0.0
1247,64.0,0,120,5.0,0.0
1248,64.0,0,120,3.0,0.0
1249,55.0,0,120,3.0,0.0
1250,64.0,0,210,8.0,0.0
1251,64.0,0,120,4.0,0.0
1252,48.0,0,210,10.0,0.0
1253,76.0,0,210,0.0,0.0
1254,55.0,108,120,1.0,0.0
1255,76.0,12,210,6.0,0.0
1256,55.0,0,120,5.0,0.0
1257,36.0,0,210,10.0,0.0
1258,67.0,0,120,4.0,0.0
1259,59.0,120,120,3.0,0.0
1260,59.0,0,120,1.0,0.0
1261,59.0,0,120,5.0,0.0
1262,57.0,0,120,5.0,0.0
1263,57.0,0,120,1.0,0.0
1264,57.0,0,120,3.0,0.0
1265,76.0,0,210,0.0,0.0
1266,76.0,0,210,6.0,0.0
1267,41.0,0,210,10.0,0.0
1268,69.0,12,210,8.0,0.0
1269,60.0,0,210,4.0,0.0
1270,53.0,0,210,10.0,0.0
1271,60.0,120,120,3.0,0.0
1272,60.0,0,120,1.0,0.0
1273,72.0,0,120,7.0,0.0
1274,60.0,0,120,5.0,0.0
1275,72.0,0,120,2.0,0.0
1276,52.0,12,210,10.0,0.0
1277,40.0,0,210,10.0,0.0
1278,69.0,0,120,7.0,0.0
1279,72.0,0,210,4.0,0.0
1280,69.0,0,120,2.0,0.0
1281,53.0,0,120,3.0,0.0
1282,53.0,0,120,1.0,0.0
1283,74.0,0,120,6.0,0.0
1284,74.0,0,120,0.0,0.0
1285,53.0,108,120,5.0,0.0
1286,57.0,0,120,5.0,0.0
1287,72.0,120,120,7.0,0.0
1288,57.0,0,120,3.0,0.0
1289,57.0,0,120,1.0,0.0
1290,72.0,0,120,2.0,0.0
1291,72.0,0,120,0.0,0.0
1292,72.0,0,120,6.0,0.0
1293,77.0,108,600,2.0,0.0
1294,38.0,0,210,10.0,0.0
1295,59.0,0,120,1.0,0.0
1296,74.0,12,210,6.0,0.0
1297,74.0,0,210,0.0,0.0
1298,50.0,0,210,10.0,0.0
1299,77.0,0,600,7.0,0.0
1300,59.0,108,120,5.0,0.0
1301,59.0,0,120,3.0,0.0
1302,62.0,120,120,5.0,0.0
1303,62.0,0,120,3.0,0.0
1304,65.0,0,120,4.0,0.0
1305,62.0,0,120,1.0,0.0
1306,53.0,108,120,1.0,0.0
1307,74.0,0,210,6.0,0.0
1308,62.0,0,120,4.0,0.0
1309,35.0,0,210,10.0,0.0
1310,53.0,0,120,5.0,0.0
1311,53.0,0,120,3.0,0.0
1312,47.0,12,210,10.0,0.0
1313,62.0,0,210,8.0,0.0
1314,74.0,0,210,0.0,0.0
1315,57.0,0,120,1.0,0.0
1316,57.0,0,120,5.0,0.0
1317,57.0,0,120,3.0,0.0
1318,65.0,120,120,4.0,0.0
1319,55.0,0,120,3.0,0.0
1320,67.0,12,210,8.0,0.0
1321,55.0,0,120,5.0,0.0
1322,55.0,0,120,1.0,0.0
1323,59.0,0,210,4.0,0.0
1324,74.0,0,210,6.0,0.0
1325,74.0,0,210,0.0,0.0
1326,59.0,0,120,1.0,0.0
1327,59.0,0,120,5.0,0.0
1328,71.0,120,120,7.0,0.0
1329,59.0,0,120,3.0,0.0
1330,71.0,0,120,2.0,0.0
1331,52.0,0,120,3.0,0.0
1332,72.0,0,120,6.0,0.0
1333,52.0,108,120,10.0,0.0
1334,52.0,0,120,1.0,0.0
1335,72.0,0,120,0.0,0.0
1336,67.0,0,120,7.0,0.0
1337,71.0,12,210,4.0,0.0
1338,67.0,0,120,2.0,0.0
1339,52.0,0,120,5.0,0.0
1340,40.0,0,120,10.0,0.0
1341,55.0,0,120,3.0,0.0
1342,55.0,0,120,5.0,0.0
1343,71.0,0,120,0.0,0.0
1344,38.0,0,120,10.0,0.0
1345,55.0,0,120,1.0,0.0
1346,50.0,0,120,10.0,0.0
1347,71.0,120,120,6.0,0.0
1348,71.0,0,120,7.0,0.0
1349,71.0,0,120,2.0,0.0
1350,57.0,108,120,5.0,0.0
1351,72.0,12,690,0.0,0.0
1352,76.0,0,600,2.0,0.0
1353,57.0,0,120,1.0,0.0
1354,48.0,0,210,10.0,0.0
1355,72.0,0,690,6.0,0.0
1356,76.0,0,600,7.0,0.0
1357,36.0,12,210,10.0,0.0
1358,57.0,0,120,3.0,0.0
1359,60.0,120,120,1.0,0.0
1360,64.0,0,120,4.0,0.0
1361,60.0,0,120,3.0,0.0
1362,60.0,0,120,5.0,0.0
1363,60.0,0,210,8.0,0.0
1364,52.0,0,120,3.0,0.0
1365,52.0,0,120,1.0,0.0
1366,33.0,0,210,10.0,0.0
1367,52.0,108,120,5.0,0.0
1368,60.0,0,120,4.0,0.0
1369,45.0,12,210,10.0,0.0
1370,64.0,120,120,4.0,0.0
1371,55.0,0,120,5.0,0.0
1372,55.0,0,120,3.0,0.0
1373,55.0,0,120,1.0,0.0
1374,53.0,0,120,5.0,0.0
1375,65.0,0,210,8.0,0.0
1376,53.0,0,120,3.0,0.0
1377,53.0,108,120,1.0,0.0
1378,50.0,0,210,10.0,0.0
1379,57.0,0,210,4.0,0.0
1380,38.0,0,210,10.0,0.0
1381,57.0,120,120,3.0,0.0
1382,57.0,0,120,1.0,0.0
1383,69.0,0,120,2.0,0.0
1384,57.0,0,120,5.0,0.0
1385,69.0,0,120,7.0,0.0
1386,71.0,0,120,0.0,0.0
1387,65.0,0,120,7.0,0.0
1388,71.0,0,120,6.0,0.0
1389,50.0,0,120,3.0,0.0
1390,50.0,0,120,1.0,0.0
1391,36.0,12,210,10.0,0.0
1392,48.0,0,210,10.0,0.0
1393,50.0,0,120,5.0,0.0
1394,65.0,108,120,2.0,0.0
1395,69.0,0,210,4.0,0.0
1396,69.0,0,120,2.0,0.0
1397,53.0,0,120,1.0,0.0
1398,53.0,0,120,5.0,0.0
1399,69.0,0,120,0.0,0.0
1400,69.0,0,120,7.0,0.0
1401,53.0,120,120,3.0,0.0
1402,69.0,0,120,6.0,0.0
1403,55.0,0,120,3.0,0.0
1404,55.0,0,120,5.0,0.0
1405,74.0,0,600,2.0,0.0
1406,71.0,108,120,0.0,0.0
1407,47.0,0,210,10.0,0.0
1408,55.0,0,120,1.0,0.0
1409,74.0,0,600,7.0,0.0
1410,35.0,12,210,10.0,0.0
1411,67.0,0,690,6.0,0.0
1412,74.0,120,120,0.0,0.0
1413,59.0,0,120,1.0,0.0
1414,59.0,0,120,5.0,0.0
1415,59.0,0,120,3.0,0.0
1416,62.0,0,120,4.0,0.0
1417,50.0,0,120,1.0,0.0
1418,43.0,12,210,10.0,0.0
1419,50.0,108,120,3.0,0.0
1420,59.0,0,210,8.0,0.0
1421,79.0,0,360,0.0,0.0
1422,31.0,0,210,10.0,0.0
1423,50.0,0,120,5.0,0.0
1424,59.0,0,120,4.0,0.0
1425,53.0,0,120,3.0,0.0
1426,53.0,0,120,5.0,0.0
1427,62.0,0,120,4.0,0.0
1428,53.0,120,120,1.0,0.0
1429,55.0,0,210,4.0,0.0
1430,52.0,0,120,5.0,0.0
1431,36.0,12,210,10.0,0.0
1432,48.0,0,210,10.0,0.0
1433,52.0,0,120,3.0,0.0
1434,64.0,0,210,8.0,0.0
1435,52.0,108,120,1.0,0.0
1436,55.0,0,120,1.0,0.0
1437,55.0,0,120,5.0,0.0
1438,76.0,0,120,0.0,0.0
1439,67.0,0,120,7.0,0.0
1440,55.0,0,120,3.0,0.0
1441,67.0,120,120,2.0,0.0
1442,48.0,0,120,1.0,0.0
1443,64.0,0,120,7.0,0.0
1444,48.0,108,120,5.0,0.0
1445,67.0,0,210,4.0,0.0
1446,72.0,0,120,6.0,0.0
1447,24.0,0,210,10.0,0.0
1448,36.0,12,210,10.0,0.0
1449,72.0,0,120,0.0,0.0
1450,48.0,0,120,3.0,0.0
1451,64.0,0,120,2.0,0.0
1452,55.0,0,210,8.0,0.0
1453,52.0,120,120,3.0,0.0
1454,67.0,0,120,7.0,0.0
1455,52.0,0,120,1.0,0.0
1456,70.0,0,120,6.0,0.0
1457,52.0,0,120,5.0,0.0
1458,67.0,0,120,0.0,0.0
1459,67.0,0,120,2.0,0.0
1460,69.0,108,120,0.0,0.0
1461,72.0,0,600,7.0,0.0
1462,36.0,0,210,10.0,0.0
1463,72.0,0,600,2.0,0.0
1464,53.0,0,120,5.0,0.0
1465,53.0,0,120,1.0,0.0
1466,69.0,0,120,6.0,0.0
1467,53.0,0,120,3.0,0.0
1468,24.0,0,210,10.0,0.0
1469,57.0,12,210,8.0,0.0
1470,57.0,0,120,1.0,0.0
1471,72.0,0,120,4.0,0.0
1472,57.0,0,120,3.0,0.0
1473,72.0,120,120,6.0,0.0
1474,57.0,0,120,5.0,0.0
1475,72.0,0,120,0.0,0.0
1476,48.0,0,120,3.0,0.0
1477,69.0,0,120,4.0,0.0
1478,36.0,0,210,10.0,0.0
1479,65.0,0,120,6.0,0.0
1480,48.0,12,210,10.0,0.0
1481,65.0,0,120,0.0,0.0
1482,60.0,0,210,8.0,0.0
1483,48.0,108,120,1.0,0.0
1484,48.0,0,120,5.0,0.0
1485,69.0,0,120,0.0,0.0
1486,53.0,120,120,3.0,0.0
1487,69.0,0,120,6.0,0.0
1488,53.0,0,120,1.0,0.0
1489,53.0,0,120,5.0,0.0
1490,65.0,0,120,4.0,0.0
1491,67.0,0,120,6.0,0.0
1492,36.0,0,210,10.0,0.0
1493,52.0,108,120,1.0,0.0
1494,67.0,0,120,0.0,0.0
1495,52.0,0,120,3.0,0.0
1496,67.0,12,210,4.0,0.0
1497,52.0,0,120,5.0,0.0
1498,64.0,0,210,8.0,0.0
1499,48.0,0,210,10.0,0.0
1500,74.0,0,120,2.0,0.0
1501,70.0,0,120,0.0,0.0
1502,70.0,0,120,6.0,0.0
1503,55.0,120,120,5.0,0.0
1504,55.0,0,120,1.0,0.0
1505,74.0,0,120,7.0,0.0
1506,55.0,0,120,3.0,0.0
1507,72.0,0,210,4.0,0.0
1508,72.0,108,120,7.0,0.0
1509,67.0,0,210,8.0,0.0
1510,24.0,0,210,10.0,0.0
1511,64.0,0,120,6.0,0.0
1512,64.0,0,120,0.0,0.0
1513,48.0,0,120,5.0,0.0
1514,48.0,0,120,3.0,0.0
1515,48.0,0,120,1.0,0.0
1516,36.0,12,210,10.0,0.0
1517,72.0,0,120,2.0,0.0
1518,67.0,0,120,6.0,0.0
1519,52.0,120,120,1.0,0.0
1520,52.0,0,120,3.0,0.0
1521,74.0,0,120,2.0,0.0
1522,74.0,0,120,7.0,0.0
1523,52.0,0,120,5.0,0.0
1524,67.0,0,120,0.0,0.0
1525,72.0,0,690,7.0,0.0
1526,36.0,0,210,10.0,0.0
1527,53.0,0,120,5.0,0.0
1528,53.0,108,120,3.0,0.0
1529,53.0,0,120,1.0,0.0
1530,72.0,0,120,6.0,0.0
1531,24.0,0,210,10.0,0.0
1532,69.0,12,210,8.0,0.0
1533,72.0,0,120,0.0,0.0
1534,72.0,0,690,2.0,0.0
1535,57.0,0,120,5.0,0.0
1536,57.0,0,120,3.0,0.0
1537,57.0,0,120,1.0,0.0
1538,72.0,0,120,4.0,0.0
1539,60.0,0,120,6.0,0.0
1540,60.0,120,120,0.0,0.0
1541,48.0,0,120,1.0,0.0
1542,48.0,0,120,3.0,0.0
1543,48.0,0,210,10.0,0.0
1544,65.0,0,120,0.0,0.0
1545,48.0,108,120,5.0,0.0
1546,65.0,0,120,6.0,0.0
1547,72.0,0,210,8.0,0.0
1548,36.0,12,210,10.0,0.0
1549,69.0,0,120,4.0,0.0
1550,69.0,0,120,0.0,0.0
1551,53.0,120,120,1.0,0.0
1552,65.0,0,120,4.0,0.0
1553,69.0,0,120,6.0,0.0
1554,53.0,0,120,3.0,0.0
1555,53.0,0,120,5.0,0.0
1556,36.0,72,870,10.0,0.0
1557,52.0,0,210,3.0,0.0
1558,60.0,12,210,8.0,0.0
1559,67.0,0,120,4.0,0.0
1560,67.0,0,120,6.0,0.0
1561,48.0,0,870,10.0,0.0
1562,67.0,0,120,0.0,0.0
1563,52.0,0,120,5.0,0.0
1564,52.0,108,120,1.0,0.0
1565,48.0,120,120,5.0,0.0
1566,64.0,0,120,6.0,0.0
1567,64.0,0,120,4.0,0.0
1568,64.0,0,120,0.0,0.0
1569,55.0,0,120,1.0,0.0
1570,52.0,0,120,1.0,0.0
1571,60.0,0,120,0.0,0.0
1572,60.0,108,120,2.0,0.0
1573,52.0,0,120,5.0,0.0
1574,64.0,0,210,7.0,0.0
1575,60.0,0,120,6.0,0.0
1576,60.0,0,120,4.0,0.0
1577,55.0,12,210,8.0,0.0
1578,55.0,0,210,3.0,0.0
1579,59.0,0,120,0.0,0.0
1580,50.0,0,120,5.0,0.0
1581,55.0,120,120,1.0,0.0
1582,59.0,0,120,6.0,0.0
1583,59.0,0,120,4.0,0.0
1584,59.0,0,120,2.0,0.0
1585,67.0,12,210,7.0,0.0
1586,52.0,0,120,5.0,0.0
1587,60.0,108,120,2.0,0.0
1588,52.0,0,210,3.0,0.0
1589,60.0,0,120,6.0,0.0
1590,48.0,0,210,1.0,0.0
1591,60.0,0,120,0.0,0.0
1592,60.0,0,120,4.0,0.0
1593,60.0,0,210,8.0,0.0
1594,62.0,0,120,0.0,0.0
1595,62.0,0,120,2.0,0.0
1596,53.0,120,120,5.0,0.0
1597,62.0,0,120,4.0,0.0
1598,62.0,0,120,6.0,0.0
1599,55.0,0,210,8.0,0.0
1600,64.0,0,120,4.0,0.0
1601,55.0,0,120,5.0,0.0
1602,64.0,36,120,0.0,0.0
1603,72.0,12,210,7.0,0.0
1604,64.0,0,120,2.0,0.0
1605,48.0,0,210,3.0,0.0
1606,64.0,0,120,6.0,0.0
1607,65.0,0,120,4.0,0.0
1608,57.0,0,120,5.0,0.0
1609,65.0,0,120,0.0,0.0
1610,65.0,120,120,6.0,0.0
1611,65.0,0,120,2.0,0.0
1612,47.0,0,870,10.0,0.0
1613,67.0,0,120,4.0,0.0
1614,67.0,0,120,2.0,0.0
1615,67.0,120,120,0.0,0.0
1616,67.0,0,120,6.0,0.0
1617,35.0,72,870,10.0,0.0
1618,59.0,0,120,5.0,0.0
1619,66.0,0,120,0.0,0.0
1620,57.0,0,120,5.0,0.0
1621,66.0,120,120,4.0,0.0
1622,66.0,0,120,6.0,0.0
1623,66.0,0,120,2.0,0.0
1624,59.0,0,120,5.0,0.0
1625,67.0,0,120,4.0,0.0
1626,59.0,0,210,8.0,0.0
1627,50.0,12,210,3.0,0.0
1628,67.0,0,120,2.0,0.0
1629,67.0,0,120,7.0,0.0
1630,67.0,108,120,6.0,0.0
1631,50.0,0,210,1.0,0.0
1632,67.0,0,120,0.0,0.0
1633,69.0,0,120,6.0,0.0
1634,60.0,120,120,5.0,0.0
1635,69.0,0,120,4.0,0.0
1636,69.0,0,120,0.0,0.0
1637,69.0,0,120,2.0,0.0
1638,66.0,0,120,7.0,0.0
1639,71.0,0,120,4.0,0.0
1640,71.0,0,120,0.0,0.0
1641,67.0,0,210,7.0,0.0
1642,71.0,108,120,6.0,0.0
1643,62.0,0,210,8.0,0.0
1644,62.0,0,120,5.0,0.0
1645,71.0,0,120,2.0,0.0
1646,47.0,12,210,3.0,0.0
1647,55.0,0,210,1.0,0.0
1648,60.0,120,120,5.0,0.0
1649,69.0,0,120,6.0,0.0
1650,69.0,0,120,4.0,0.0
1651,69.0,0,120,2.0,0.0
1652,69.0,0,120,0.0,0.0
1653,71.0,0,120,0.0,0.0
1654,71.0,0,120,4.0,0.0
1655,43.0,0,210,3.0,0.0
1656,55.0,12,210,1.0,0.0
1657,62.0,0,210,7.0,0.0
1658,62.0,0,120,5.0,0.0
1659,67.0,0,210,8.0,0.0
1660,71.0,0,120,2.0,0.0
1661,71.0,36,120,6.0,0.0
1662,59.0,120,120,5.0,0.0
1663,67.0,0,120,2.0,0.0
1664,67.0,0,120,0.0,0.0
1665,67.0,0,120,4.0,0.0
1666,67.0,0,120,6.0,0.0
1667,72.0,0,120,4.0,0.0
1668,55.0,12,210,1.0,0.0
1669,33.0,72,870,10.0,0.0
1670,72.0,0,120,2.0,0.0
1671,45.0,0,870,10.0,0.0
1672,64.0,0,210,5.0,0.0
1673,72.0,0,120,0.0,0.0
1674,72.0,108,120,6.0,0.0
1675,71.0,0,120,0.0,0.0
1676,71.0,0,120,4.0,0.0
1677,71.0,0,120,6.0,0.0
1678,55.0,0,120,3.0,0.0
1679,71.0,120,120,2.0,0.0
1680,54.0,0,120,8.0,0.0
1681,69.0,0,120,7.0,0.0
1682,54.0,0,120,1.0,0.0
1683,72.0,0,120,2.0,0.0
1684,57.0,0,120,3.0,0.0
1685,72.0,120,120,4.0,0.0
1686,69.0,0,120,5.0,0.0
1687,72.0,0,120,0.0,0.0
1688,72.0,0,120,6.0,0.0
1689,59.0,0,120,3.0,0.0
1690,52.0,0,120,1.0,0.0
1691,74.0,0,120,4.0,0.0
1692,52.0,0,120,8.0,0.0
1693,67.0,120,120,5.0,0.0
1694,74.0,0,120,2.0,0.0
1695,74.0,0,120,0.0,0.0
1696,67.0,0,120,7.0,0.0
1697,74.0,0,120,6.0,0.0
1698,54.0,0,120,1.0,0.0
1699,69.0,0,210,5.0,0.0
1700,72.0,0,120,2.0,0.0
1701,54.0,0,120,8.0,0.0
1702,72.0,0,120,4.0,0.0
1703,72.0,0,120,0.0,0.0
1704,72.0,0,120,6.0,0.0
1705,69.0,12,210,7.0,0.0
1706,57.0,108,120,3.0,0.0
1707,76.0,0,120,4.0,0.0
1708,76.0,0,120,0.0,0.0
1709,60.0,120,120,3.0,0.0
1710,76.0,0,120,6.0,0.0
1711,55.0,0,120,8.0,0.0
1712,55.0,0,120,1.0,0.0
1713,76.0,0,120,2.0,0.0
1714,74.0,0,120,0.0,0.0
1715,52.0,0,120,1.0,0.0
1716,57.0,0,210,5.0,0.0
1717,74.0,0,120,6.0,0.0
1718,57.0,12,210,7.0,0.0
1719,52.0,36,120,8.0,0.0
1720,74.0,0,120,2.0,0.0
1721,57.0,0,120,3.0,0.0
1722,74.0,0,120,4.0,0.0
1723,72.0,0,120,6.0,0.0
1724,54.0,120,120,1.0,0.0
1725,54.0,0,120,8.0,0.0
1726,54.0,0,120,3.0,0.0
1727,72.0,0,120,0.0,0.0
1728,72.0,0,120,2.0,0.0
1729,72.0,0,120,4.0,0.0
1730,55.0,0,210,8.0,0.0
1731,71.0,0,120,0.0,0.0
1732,62.0,12,210,7.0,0.0
1733,50.0,108,120,3.0,0.0
1734,71.0,0,120,6.0,0.0
1735,55.0,0,120,1.0,0.0
1736,31.0,0,120,10.0,0.0
1737,62.0,0,120,5.0,0.0
1738,71.0,0,120,2.0,0.0
1739,71.0,0,120,4.0,0.0
1740,43.0,0,120,10.0,0.0
1741,74.0,0,120,2.0,0.0
1742,74.0,0,120,4.0,0.0
1743,35.0,120,120,10.0,0.0
1744,47.0,0,120,10.0,0.0
1745,59.0,0,120,3.0,0.0
1746,74.0,0,120,6.0,0.0
1747,47.0,0,120,1.0,0.0
1748,59.0,0,120,5.0,0.0
1749,74.0,0,120,0.0,0.0
1750,67.0,0,120,4.0,0.0
1751,67.0,108,120,2.0,0.0
1752,36.0,0,120,10.0,0.0
1753,48.0,0,120,1.0,0.0
1754,60.0,0,120,5.0,0.0
1755,67.0,0,120,0.0,0.0
1756,67.0,0,120,6.0,0.0
1757,48.0,0,120,10.0,0.0
1758,64.0,0,120,7.0,0.0
1759,67.0,12,210,8.0,0.0
1760,60.0,0,120,3.0,0.0
1761,50.0,0,120,1.0,0.0
1762,62.0,0,120,5.0,0.0
1763,62.0,0,120,3.0,0.0
1764,71.0,0,120,4.0,0.0
1765,71.0,0,120,6.0,0.0
1766,71.0,0,120,0.0,0.0
1767,65.0,0,120,7.0,0.0
1768,50.0,0,120,10.0,0.0
1769,38.0,120,120,10.0,0.0
1770,71.0,0,120,2.0,0.0
1771,52.0,12,210,1.0,0.0
1772,72.0,0,120,4.0,0.0
1773,72.0,0,120,6.0,0.0
1774,64.0,0,210,3.0,0.0
1775,64.0,0,210,5.0,0.0
1776,72.0,108,120,0.0,0.0
1777,67.0,0,210,7.0,0.0
1778,64.0,0,210,8.0,0.0
1779,52.0,0,210,10.0,0.0
1780,72.0,0,120,2.0,0.0
1781,40.0,0,210,10.0,0.0
1782,76.0,120,120,0.0,0.0
1783,76.0,0,120,2.0,0.0
1784,76.0,0,120,6.0,0.0
1785,76.0,0,120,4.0,0.0
1786,52.0,0,210,1.0,0.0
1787,64.0,0,210,3.0,0.0
1788,67.0,0,120,4.0,0.0
1789,67.0,0,120,6.0,0.0
1790,67.0,108,120,0.0,0.0
1791,67.0,0,120,2.0,0.0
1792,60.0,0,450,8.0,0.0
1793,72.0,0,210,7.0,0.0
1794,52.0,12,210,10.0,0.0
1795,40.0,0,210,10.0,0.0
1796,64.0,0,210,5.0,0.0
1797,71.0,120,120,0.0,0.0
1798,71.0,0,120,4.0,0.0
1799,71.0,0,120,6.0,0.0
1800,71.0,0,120,2.0,0.0
1801,64.0,0,210,5.0,0.0
1802,77.0,48,660,7.0,0.0
1803,64.0,0,210,3.0,0.0
1804,69.0,0,120,2.0,0.0
1805,69.0,0,120,0.0,0.0
1806,69.0,108,120,6.0,0.0
1807,52.0,0,210,1.0,0.0
1808,69.0,0,120,4.0,0.0
1809,40.0,0,210,10.0,0.0
1810,52.0,12,210,10.0,0.0
1811,72.0,0,120,0.0,0.0
1812,72.0,120,120,2.0,0.0
1813,72.0,0,120,4.0,0.0
1814,72.0,0,120,6.0,0.0
1815,65.0,0,120,2.0,0.0
1816,38.0,0,120,10.0,0.0
1817,65.0,0,120,6.0,0.0
1818,62.0,0,120,5.0,0.0
1819,62.0,0,120,3.0,0.0
1820,50.0,0,120,1.0,0.0
1821,62.0,0,120,8.0,0.0
1822,65.0,0,120,4.0,0.0
1823,50.0,0,120,10.0,0.0
1824,65.0,120,120,0.0,0.0
1825,69.0,0,120,0.0,0.0
1826,69.0,0,120,2.0,0.0
1827,69.0,120,120,6.0,0.0
1828,36.0,0,120,10.0,0.0
1829,60.0,0,120,3.0,0.0
1830,48.0,0,120,1.0,0.0
1831,60.0,0,120,5.0,0.0
1832,69.0,0,120,4.0,0.0
1833,64.0,0,120,8.0,0.0
1834,48.0,0,120,10.0,0.0
1835,71.0,60,120,6.0,0.0
1836,62.0,12,210,5.0,0.0
1837,62.0,0,210,8.0,0.0
1838,71.0,0,120,4.0,0.0
1839,50.0,0,210,10.0,0.0
1840,50.0,0,210,1.0,0.0
1841,71.0,0,120,0.0,0.0
1842,62.0,0,210,3.0,0.0
1843,71.0,0,120,2.0,0.0
1844,38.0,0,210,10.0,0.0
1845,74.0,0,120,4.0,0.0
1846,74.0,0,120,2.0,0.0
1847,74.0,120,120,6.0,0.0
1848,74.0,0,120,0.0,0.0
1849,65.0,0,120,4.0,0.0
1850,71.0,0,210,7.0,0.0
1851,50.0,0,210,1.0,0.0
1852,38.0,0,210,10.0,0.0
1853,65.0,0,210,8.0,0.0
1854,50.0,12,210,10.0,0.0
1855,65.0,0,120,2.0,0.0
1856,65.0,0,120,6.0,0.0
1857,65.0,108,120,0.0,0.0
1858,62.0,0,360,3.0,0.0
1859,62.0,0,360,5.0,0.0
1860,69.0,0,120,0.0,0.0
1861,69.0,120,120,6.0,0.0
1862,69.0,0,120,2.0,0.0
1863,69.0,0,120,4.0,0.0
1864,59.0,12,210,8.0,0.0
1865,76.0,48,660,7.0,0.0
1866,67.0,108,120,0.0,0.0
1867,50.0,0,120,1.0,0.0
1868,50.0,0,120,10.0,0.0
1869,67.0,0,120,2.0,0.0
1870,67.0,0,120,4.0,0.0
1871,38.0,0,120,10.0,0.0
1872,67.0,0,120,6.0,0.0
1873,55.0,0,120,3.0,0.0
1874,31.0,120,120,10.0,0.0
1875,43.0,0,120,1.0,0.0
1876,71.0,0,120,4.0,0.0
1877,43.0,0,120,10.0,0.0
1878,55.0,0,120,5.0,0.0
1879,71.0,0,120,6.0,0.0
1880,71.0,0,120,2.0,0.0
1881,71.0,0,120,0.0,0.0
1882,45.0,0,120,1.0,0.0
1883,64.0,0,120,0.0,0.0
1884,45.0,0,120,10.0,0.0
1885,64.0,0,120,4.0,0.0
1886,64.0,120,120,2.0,0.0
1887,57.0,0,120,5.0,0.0
1888,60.0,0,120,8.0,0.0
1889,64.0,0,120,6.0,0.0
1890,57.0,0,120,3.0,0.0
1891,33.0,0,120,10.0,0.0
1892,47.0,0,120,1.0,0.0
1893,59.0,0,120,3.0,0.0
1894,59.0,120,120,5.0,0.0
1895,67.0,0,120,0.0,0.0
1896,67.0,0,120,2.0,0.0
1897,67.0,0,120,4.0,0.0
1898,47.0,0,120,10.0,0.0
1899,35.0,0,120,10.0,0.0
1900,67.0,0,120,6.0,0.0
1901,62.0,0,120,8.0,0.0
1902,69.0,0,120,6.0,0.0
1903,69.0,0,120,4.0,0.0
1904,60.0,0,690,3.0,0.0
1905,48.0,0,690,10.0,0.0
1906,60.0,12,210,8.0,0.0
1907,60.0,0,690,5.0,0.0
1908,69.0,0,120,0.0,0.0
1909,69.0,60,120,2.0,0.0
1910,48.0,0,690,1.0,0.0
1911,36.0,12,690,10.0,0.0
1912,72.0,0,120,4.0,0.0
1913,72.0,120,120,0.0,0.0
1914,72.0,0,120,2.0,0.0
1915,72.0,0,120,6.0,0.0
1916,64.0,12,210,8.0,0.0
1917,64.0,0,120,4.0,0.0
1918,69.0,0,210,7.0,0.0
1919,64.0,0,120,6.0,0.0
1920,64.0,0,120,0.0,0.0
1921,64.0,108,120,2.0,0.0
1922,67.0,120,120,6.0,0.0
1923,67.0,0,120,0.0,0.0
1924,67.0,0,120,4.0,0.0
1925,67.0,0,120,2.0,0.0
1926,65.0,0,120,6.0,0.0
1927,57.0,0,210,8.0,0.0
1928,65.0,108,120,4.0,0.0
1929,74.0,48,660,7.0,0.0
1930,65.0,0,120,2.0,0.0
1931,65.0,0,120,0.0,0.0
1932,69.0,0,120,2.0,0.0
1933,69.0,0,120,6.0,0.0
1934,69.0,0,120,0.0,0.0
1935,69.0,120,120,4.0,0.0
1936,35.0,0,120,10.0,0.0
1937,62.0,120,120,2.0,0.0
1938,59.0,0,120,8.0,0.0
1939,62.0,0,120,6.0,0.0
1940,62.0,0,120,4.0,0.0
1941,62.0,0,120,0.0,0.0
1942,59.0,0,120,5.0,0.0
1943,47.0,0,120,10.0,0.0
1944,47.0,0,120,1.0,0.0
1945,59.0,0,120,3.0,0.0
1946,45.0,0,120,10.0,0.0
1947,57.0,120,120,3.0,0.0
1948,57.0,0,120,5.0,0.0
1949,45.0,0,120,1.0,0.0
1950,65.0,0,120,4.0,0.0
1951,60.0,0,120,8.0,0.0
1952,65.0,0,120,2.0,0.0
1953,65.0,0,120,6.0,0.0
1954,65.0,0,120,0.0,0.0
1955,33.0,0,120,10.0,0.0
1956,59.0,0,210,3.0,0.0
1957,67.0,60,120,0.0,0.0
1958,67.0,0,120,6.0,0.0
1959,67.0,0,120,2.0,0.0
1960,47.0,12,210,1.0,0.0
1961,47.0,0,210,10.0,0.0
1962,59.0,0,210,5.0,0.0
1963,35.0,0,210,10.0,0.0
1964,62.0,0,210,8.0,0.0
1965,67.0,0,120,4.0,0.0
1966,71.0,0,120,2.0,0.0
1967,71.0,0,120,4.0,0.0
1968,71.0,120,120,6.0,0.0
1969,71.0,0,120,0.0,0.0
1970,43.0,0,210,10.0,0.0
1971,43.0,0,210,1.0,0.0
1972,55.0,0,210,3.0,0.0
1973,62.0,108,120,0.0,0.0
1974,55.0,12,210,5.0,0.0
1975,62.0,0,120,2.0,0.0
1976,62.0,0,120,6.0,0.0
1977,72.0,0,120,7.0,0.0
1978,31.0,0,210,10.0,0.0
1979,67.0,0,210,8.0,0.0
1980,62.0,0,120,4.0,0.0
1981,65.0,0,120,4.0,0.0
1982,65.0,0,120,2.0,0.0
1983,65.0,0,120,0.0,0.0
1984,71.0,228,120,7.0,0.0
1985,65.0,0,120,6.0,0.0
1986,48.0,0,210,10.0,0.0
1987,60.0,0,210,3.0,0.0
1988,64.0,0,210,2.0,0.0
1989,72.0,0,210,7.0,0.0
1990,36.0,0,210,10.0,0.0
1991,60.0,0,210,5.0,0.0
1992,64.0,0,210,0.0,0.0
1993,48.0,0,210,1.0,0.0
1994,64.0,0,210,6.0,0.0
1995,67.0,0,210,8.0,0.0
1996,64.0,96,210,4.0,0.0
1997,60.0,40,420,10.0,0.0
1998,52.0,0,60,1.0,0.0
1999,48.0,0,420,10.0,0.0
2000,67.0,80,60,0.0,0.0
2001,50.0,80,60,1.0,0.0
2002,65.0,0,60,0.0,0.0
2003,67.0,0,60,0.0,0.0
2004,52.0,80,60,1.0,0.0
2005,69.0,80,60,0.0,0.0
2006,54.0,0,60,1.0,0.0
2007,67.0,0,60,0.0,0.0
2008,52.0,40,60,1.0,0.0
2009,69.0,0,60,0.0,0.0
2010,54.0,80,60,1.0,0.0
2011,56.0,80,60,1.0,0.0
2012,71.0,0,60,0.0,0.0
2013,59.0,16,210,10.0,0.0
2014,47.0,0,210,10.0,0.0
2015,54.0,0,60,1.0,0.0
2016,69.0,64,60,0.0,0.0
2017,56.0,0,60,1.0,0.0
2018,71.0,224,60,0.0,0.0
2019,57.0,0,540,1.0,0.0
2020,57.0,0,210,10.0,0.0
2021,45.0,96,210,10.0,0.0
2022,72.0,0,540,0.0,0.0
2023,33.0,0,210,10.0,0.0
2024,45.0,0,60,3.0,0.0
2025,57.0,0,60,5.0,0.0
2026,72.0,0,210,6.0,0.0
2027,45.0,16,210,10.0,0.0
2028,72.0,0,60,2.0,0.0
2029,72.0,24,420,7.0,0.0
2030,72.0,80,60,4.0,0.0
2031,65.0,0,210,8.0,0.0
2032,70.0,0,60,2.0,0.0
2033,55.0,64,60,5.0,0.0
2034,70.0,0,60,4.0,0.0
2035,43.0,0,60,3.0,0.0
2036,57.0,0,60,5.0,0.0
2037,72.0,0,60,4.0,0.0
2038,72.0,80,60,2.0,0.0
2039,45.0,0,60,3.0,0.0
2040,58.0,0,60,5.0,0.0
2041,46.0,0,210,10.0,0.0
2042,74.0,0,60,2.0,0.0
2043,74.0,0,210,6.0,0.0
2044,74.0,0,60,4.0,0.0
2045,53.0,16,210,8.0,0.0
2046,46.0,80,60,3.0,0.0
2047,34.0,0,210,10.0,0.0
2048,57.0,0,60,5.0,0.0
2049,45.0,0,60,3.0,0.0
2050,72.0,0,60,4.0,0.0
2051,74.0,0,60,0.0,0.0
2052,58.0,40,60,1.0,0.0
2053,72.0,0,60,2.0,0.0
2054,57.0,0,60,1.0,0.0
2055,72.0,0,60,0.0,0.0
2056,74.0,0,60,2.0,0.0
2057,58.0,80,60,5.0,0.0
2058,74.0,0,60,4.0,0.0
2059,46.0,0,60,3.0,0.0
2060,70.0,0,60,0.0,0.0
2061,70.0,0,210,7.0,0.0
2062,76.0,0,210,6.0,0.0
2063,60.0,0,60,5.0,0.0
2064,60.0,0,210,8.0,0.0
2065,55.0,0,60,1.0,0.0
2066,36.0,16,210,10.0,0.0
2067,48.0,80,60,3.0,0.0
2068,48.0,0,210,10.0,0.0
2069,76.0,0,60,2.0,0.0
2070,76.0,0,60,4.0,0.0
2071,57.0,0,60,1.0,0.0
2072,58.0,64,60,5.0,0.0
2073,74.0,0,60,4.0,0.0
2074,46.0,0,60,3.0,0.0
2075,72.0,0,60,0.0,0.0
2076,74.0,0,60,2.0,0.0
2077,76.0,0,60,4.0,0.0
2078,70.0,0,60,0.0,0.0
2079,55.0,0,60,1.0,0.0
2080,48.0,0,60,3.0,0.0
2081,60.0,224,60,5.0,0.0
2082,76.0,0,60,2.0,0.0
2083,77.0,0,210,4.0,0.0
2084,41.0,0,210,3.0,0.0
2085,77.0,0,210,2.0,0.0
2086,53.0,0,210,1.0,0.0
2087,77.0,0,210,6.0,0.0
2088,41.0,96,210,10.0,0.0
2089,29.0,0,210,10.0,0.0
2090,69.0,0,210,7.0,0.0
2091,53.0,0,210,5.0,0.0
2092,60.0,0,210,8.0,0.0
2093,69.0,0,210,0.0,0.0
2094,69.0,0,60,4.0,0.0
2095,41.0,0,420,10.0,0.0
2096,53.0,40,420,10.0,0.0
2097,60.0,80,60,5.0,0.0
2098,67.0,0,60,4.0,0.0
2099,59.0,80,60,5.0,0.0
2100,60.0,80,60,5.0,0.0
2101,69.0,0,60,4.0,0.0
2102,62.0,80,60,5.0,0.0
2103,71.0,0,60,4.0,0.0
2104,60.0,40,60,5.0,0.0
2105,69.0,0,60,4.0,0.0
2106,62.0,80,60,5.0,0.0
2107,71.0,0,60,4.0,0.0
2108,40.0,0,210,10.0,0.0
2109,52.0,16,210,10.0,0.0
2110,64.0,0,60,5.0,0.0
2111,73.0,80,60,4.0,0.0
2112,71.0,64,60,4.0,0.0
2113,62.0,0,60,5.0,0.0
2114,73.0,0,60,4.0,0.0
2115,64.0,224,60,5.0,0.0
2116,38.0,96,210,10.0,0.0
2117,54.0,0,210,5.0,0.0
2118,74.0,0,540,4.0,0.0
2119,50.0,0,210,10.0,0.0
2120,59.0,0,60,3.0,0.0
2121,74.0,24,420,7.0,0.0
2122,74.0,0,210,6.0,0.0
2123,74.0,80,60,0.0,0.0
2124,74.0,0,60,2.0,0.0
2125,35.0,0,210,10.0,0.0
2126,59.0,0,300,5.0,0.0
2127,47.0,0,60,1.0,0.0
2128,47.0,16,210,10.0,0.0
2129,67.0,0,210,8.0,0.0
2130,72.0,64,60,2.0,0.0
2131,57.0,0,60,3.0,0.0
2132,45.0,0,60,1.0,0.0
2133,72.0,0,60,0.0,0.0
2134,47.0,0,60,1.0,0.0
2135,74.0,80,60,0.0,0.0
2136,59.0,0,60,3.0,0.0
2137,74.0,0,60,2.0,0.0
2138,76.0,0,60,0.0,0.0
2139,60.0,0,60,3.0,0.0
2140,76.0,0,60,2.0,0.0
2141,55.0,0,210,8.0,0.0
2142,48.0,16,210,10.0,0.0
2143,36.0,0,210,10.0,0.0
2144,76.0,0,210,6.0,0.0
2145,48.0,80,60,1.0,0.0
2146,47.0,0,60,1.0,0.0
2147,60.0,0,60,5.0,0.0
2148,59.0,0,60,3.0,0.0
2149,74.0,0,60,2.0,0.0
2150,74.0,40,60,0.0,0.0
2151,76.0,0,60,4.0,0.0
2152,74.0,80,60,4.0,0.0
2153,76.0,0,60,2.0,0.0
2154,60.0,0,60,3.0,0.0
2155,76.0,0,60,0.0,0.0
2156,59.0,0,60,5.0,0.0
2157,48.0,0,60,1.0,0.0
2158,62.0,0,210,8.0,0.0
2159,72.0,0,60,4.0,0.0
2160,72.0,16,210,7.0,0.0
2161,78.0,0,210,6.0,0.0
2162,57.0,0,60,5.0,0.0
2163,50.0,0,60,1.0,0.0
2164,78.0,80,60,2.0,0.0
2165,50.0,0,210,10.0,0.0
2166,62.0,0,60,3.0,0.0
2167,38.0,0,210,10.0,0.0
2168,78.0,0,60,0.0,0.0
2169,60.0,64,60,3.0,0.0
2170,76.0,0,60,0.0,0.0
2171,76.0,0,60,2.0,0.0
2172,74.0,0,60,4.0,0.0
2173,59.0,0,60,5.0,0.0
2174,48.0,0,60,1.0,0.0
2175,50.0,0,60,1.0,0.0
2176,78.0,224,60,0.0,0.0
2177,72.0,0,60,4.0,0.0
2178,78.0,0,60,2.0,0.0
2179,62.0,0,60,3.0,0.0
2180,57.0,0,60,5.0,0.0
2181,62.0,0,210,8.0,0.0
2182,43.0,0,210,1.0,0.0
2183,55.0,0,210,3.0,0.0
2184,79.0,0,210,2.0,0.0
2185,55.0,0,210,5.0,0.0
2186,79.0,0,210,0.0,0.0
2187,71.0,0,210,7.0,0.0
2188,31.0,96,210,10.0,0.0
2189,79.0,0,210,6.0,0.0
2190,43.0,0,210,10.0,0.0
2191,71.0,0,210,4.0,0.0
2192,71.0,0,60,2.0,0.0
2193,62.0,80,60,3.0,0.0
2194,55.0,0,420,10.0,0.0
2195,43.0,40,420,10.0,0.0
2196,69.0,0,60,2.0,0.0
2197,60.0,80,60,3.0,0.0
2198,71.0,80,60,2.0,0.0
2199,62.0,0,60,3.0,0.0
2200,72.0,80,60,2.0,0.0
2201,64.0,0,60,3.0,0.0
2202,62.0,40,60,3.0,0.0
2203,71.0,0,60,2.0,0.0
2204,72.0,80,60,2.0,0.0
2205,64.0,0,60,3.0,0.0
2206,65.0,0,60,3.0,0.0
2207,53.0,0,210,10.0,0.0
2208,74.0,80,60,2.0,0.0
2209,41.0,16,210,10.0,0.0
2210,64.0,0,60,3.0,0.0
2211,72.0,64,60,2.0,0.0
2212,65.0,224,60,3.0,0.0
2213,74.0,0,60,2.0,0.0
2214,76.0,80,540,2.0,0.0
2215,52.0,0,210,10.0,0.0
2216,40.0,0,210,10.0,0.0
2217,56.0,96,210,3.0,0.0
2218,69.0,0,210,8.0,0.0
2219,76.0,0,60,0.0,0.0
2220,48.0,80,60,5.0,0.0
2221,76.0,0,210,6.0,0.0
2222,48.0,16,210,10.0,0.0
2223,76.0,0,60,4.0,0.0
2224,60.0,0,60,1.0,0.0
2225,36.0,0,210,10.0,0.0
2226,60.0,0,300,3.0,0.0
2227,76.0,24,420,7.0,0.0
2228,74.0,0,60,4.0,0.0
2229,47.0,0,60,5.0,0.0
2230,74.0,0,60,0.0,0.0
2231,59.0,64,60,1.0,0.0
2232,76.0,0,60,0.0,0.0
2233,76.0,0,60,4.0,0.0
2234,48.0,80,60,5.0,0.0
2235,60.0,0,60,1.0,0.0
2236,50.0,0,60,5.0,0.0
2237,38.0,0,210,10.0,0.0
2238,50.0,0,210,10.0,0.0
2239,62.0,0,60,1.0,0.0
2240,78.0,0,60,4.0,0.0
2241,78.0,0,60,0.0,0.0
2242,57.0,0,210,8.0,0.0
2243,78.0,16,210,6.0,0.0
2244,62.0,0,60,3.0,0.0
2245,76.0,0,60,4.0,0.0
2246,48.0,40,60,5.0,0.0
2247,76.0,0,60,0.0,0.0
2248,60.0,0,60,1.0,0.0
2249,77.0,0,60,2.0,0.0
2250,60.0,0,60,3.0,0.0
2251,76.0,0,60,2.0,0.0
2252,50.0,0,60,5.0,0.0
2253,78.0,0,60,0.0,0.0
2254,62.0,80,60,1.0,0.0
2255,78.0,0,60,4.0,0.0
2256,52.0,0,210,10.0,0.0
2257,64.0,0,210,8.0,0.0
2258,52.0,0,60,5.0,0.0
2259,40.0,0,210,10.0,0.0
2260,59.0,80,60,3.0,0.0
2261,64.0,0,60,1.0,0.0
2262,80.0,16,210,6.0,0.0
2263,80.0,0,60,0.0,0.0
2264,74.0,0,210,7.0,0.0
2265,80.0,0,60,4.0,0.0
2266,74.0,0,60,2.0,0.0
2267,60.0,0,60,3.0,0.0
2268,50.0,64,60,5.0,0.0
2269,62.0,0,60,1.0,0.0
2270,78.0,0,60,4.0,0.0
2271,78.0,0,60,0.0,0.0
2272,76.0,0,60,2.0,0.0
2273,64.0,0,60,1.0,0.0
2274,80.0,0,60,4.0,0.0
2275,74.0,0,60,2.0,0.0
2276,80.0,0,60,0.0,0.0
2277,52.0,116,60,5.0,0.0
2278,59.0,0,60,3.0,0.0
2279,65.0,0,210,1.0,0.0
2280,81.0,0,120,4.0,0.0
2281,81.0,0,600,6.0,0.0
2282,41.0,108,120,10.0,0.0
2283,53.0,0,120,10.0,0.0
2284,53.0,0,120,5.0,0.0
2285,57.0,0,120,3.0,0.0
2286,69.0,0,210,8.0,0.0
2287,81.0,108,600,0.0,0.0
2288,72.0,54,300,2.0,0.0
2289,72.0,12,210,7.0,0.0
2290,40.0,0,120,10.0,0.0
2291,52.0,0,120,5.0,0.0
2292,52.0,0,120,10.0,0.0
2293,59.0,66,120,3.0,0.0
2294,79.0,0,120,4.0,0.0
2295,53.0,0,120,5.0,0.0
2296,57.0,0,120,3.0,0.0
2297,60.0,0,210,8.0,0.0
2298,53.0,0,120,1.0,0.0
2299,53.0,0,120,10.0,0.0
2300,41.0,6,120,10.0,0.0
2301,69.0,12,210,7.0,0.0
2302,77.0,0,120,4.0,0.0
2303,71.0,60,60,2.0,0.0
2304,76.0,6,120,4.0,0.0
2305,52.0,0,120,1.0,0.0
2306,55.0,0,120,5.0,0.0
2307,72.0,42,60,2.0,0.0
2308,43.0,0,120,10.0,0.0
2309,55.0,0,120,3.0,0.0
2310,55.0,0,120,10.0,0.0
2311,74.0,114,60,2.0,0.0
2312,41.0,0,120,10.0,0.0
2313,53.0,0,120,10.0,0.0
2314,74.0,24,330,2.0,0.0
2315,53.0,0,120,5.0,0.0
2316,65.0,0,210,8.0,0.0
2317,74.0,0,120,4.0,0.0
2318,74.0,12,210,7.0,0.0
2319,53.0,0,120,1.0,0.0
2320,53.0,0,120,3.0,0.0
2321,84.0,0,120,6.0,0.0
2322,57.0,0,120,5.0,0.0
2323,57.0,0,120,1.0,0.0
2324,84.0,0,120,0.0,0.0
2325,57.0,0,120,3.0,0.0
2326,69.0,96,120,4.0,0.0
2327,45.0,0,120,10.0,0.0
2328,57.0,0,120,10.0,0.0
2329,68.0,0,120,4.0,0.0
2330,50.0,0,120,5.0,0.0
2331,50.0,0,120,1.0,0.0
2332,77.0,0,210,7.0,0.0
2333,50.0,0,120,3.0,0.0
2334,83.0,0,120,0.0,0.0
2335,83.0,0,120,6.0,0.0
2336,59.0,12,210,8.0,0.0
2337,50.0,0,120,10.0,0.0
2338,38.0,108,120,10.0,0.0
2339,53.0,0,120,1.0,0.0
2340,76.0,0,120,2.0,0.0
2341,53.0,0,120,10.0,0.0
2342,81.0,0,120,0.0,0.0
2343,53.0,0,120,5.0,0.0
2344,69.0,0,120,4.0,0.0
2345,81.0,0,120,6.0,0.0
2346,41.0,0,120,10.0,0.0
2347,53.0,120,120,3.0,0.0
2348,52.0,0,120,3.0,0.0
2349,80.0,0,210,0.0,0.0
2350,76.0,0,600,2.0,0.0
2351,80.0,12,210,6.0,0.0
2352,64.0,0,210,8.0,0.0
2353,40.0,0,120,10.0,0.0
2354,52.0,108,120,10.0,0.0
2355,52.0,0,120,1.0,0.0
2356,71.0,24,420,7.0,0.0
2357,52.0,0,120,5.0,0.0
2358,71.0,0,210,4.0,0.0
2359,53.0,0,120,1.0,0.0
2360,53.0,0,120,3.0,0.0
2361,41.0,0,120,10.0,0.0
2362,53.0,0,120,5.0,0.0
2363,53.0,120,120,10.0,0.0
2364,47.0,0,120,10.0,0.0
2365,47.0,0,120,5.0,0.0
2366,35.0,0,120,10.0,0.0
2367,76.0,12,210,6.0,0.0
2368,47.0,0,120,3.0,0.0
2369,68.0,0,210,8.0,0.0
2370,47.0,84,120,1.0,0.0
2371,76.0,0,210,0.0,0.0
2372,50.0,0,120,10.0,0.0
2373,50.0,0,120,3.0,0.0
2374,50.0,0,120,1.0,0.0
2375,50.0,0,120,5.0,0.0
2376,38.0,120,120,10.0,0.0
2377,76.0,0,210,7.0,0.0
2378,81.0,0,210,6.0,0.0
2379,81.0,12,210,0.0,0.0
2380,48.0,0,120,1.0,0.0
2381,48.0,0,120,3.0,0.0
2382,36.0,108,120,10.0,0.0
2383,48.0,0,120,5.0,0.0
2384,76.0,0,210,4.0,0.0
2385,48.0,0,120,10.0,0.0
2386,57.0,0,210,8.0,0.0
2387,52.0,0,120,5.0,0.0
2388,74.0,0,120,2.0,0.0
2389,52.0,0,120,1.0,0.0
2390,52.0,0,120,3.0,0.0
2391,40.0,0,120,10.0,0.0
2392,52.0,120,120,10.0,0.0
2393,45.0,0,120,5.0,0.0
2394,76.0,0,210,6.0,0.0
2395,72.0,0,210,7.0,0.0
2396,33.0,108,120,10.0,0.0
2397,76.0,0,210,4.0,0.0
2398,72.0,0,120,2.0,0.0
2399,69.0,0,210,8.0,0.0
2400,45.0,0,120,3.0,0.0
2401,45.0,0,120,10.0,0.0
2402,45.0,0,120,1.0,0.0
2403,76.0,12,210,0.0,0.0
2404,48.0,0,120,5.0,0.0
2405,48.0,0,120,3.0,0.0
2406,71.0,0,120,2.0,0.0
2407,48.0,0,120,10.0,0.0
2408,48.0,120,120,1.0,0.0
2409,36.0,0,120,10.0,0.0
2410,77.0,12,210,6.0,0.0
2411,50.0,0,120,10.0,0.0
2412,50.0,0,120,1.0,0.0
2413,69.0,0,120,2.0,0.0
2414,50.0,108,120,3.0,0.0
2415,77.0,0,210,0.0,0.0
2416,76.0,0,210,4.0,0.0
2417,65.0,0,420,8.0,0.0
2418,69.0,24,420,7.0,0.0
2419,50.0,0,120,5.0,0.0
2420,38.0,0,120,10.0,0.0
2421,53.0,0,120,3.0,0.0
2422,74.0,120,120,2.0,0.0
2423,41.0,0,120,10.0,0.0
2424,53.0,0,120,5.0,0.0
2425,53.0,0,120,10.0,0.0
2426,53.0,0,120,1.0,0.0
2427,74.0,0,210,0.0,0.0
2428,45.0,0,120,5.0,0.0
2429,65.0,0,120,2.0,0.0
2430,74.0,0,120,4.0,0.0
2431,33.0,0,120,10.0,0.0
2432,45.0,84,120,1.0,0.0
2433,45.0,0,120,3.0,0.0
2434,74.0,12,210,6.0,0.0
2435,45.0,0,120,10.0,0.0
2436,36.0,0,120,10.0,0.0
2437,48.0,0,120,3.0,0.0
2438,48.0,0,120,5.0,0.0
2439,48.0,0,120,1.0,0.0
2440,48.0,0,120,10.0,0.0
2441,72.0,120,120,4.0,0.0
2442,69.0,0,120,2.0,0.0
2443,79.0,0,120,0.0,0.0
2444,62.0,0,210,2.0,0.0
2445,74.0,0,210,7.0,0.0
2446,47.0,0,120,3.0,0.0
2447,47.0,0,120,5.0,0.0
2448,79.0,0,120,6.0,0.0
2449,47.0,108,120,10.0,0.0
2450,47.0,0,120,1.0,0.0
2451,74.0,0,210,4.0,0.0
2452,55.0,12,210,8.0,0.0
2453,35.0,0,120,10.0,0.0
2454,38.0,0,120,10.0,0.0
2455,50.0,0,120,5.0,0.0
2456,77.0,120,120,0.0,0.0
2457,50.0,0,120,10.0,0.0
2458,50.0,0,120,3.0,0.0
2459,77.0,0,120,6.0,0.0
2460,50.0,0,120,1.0,0.0
2461,31.0,0,120,10.0,0.0
2462,43.0,0,120,5.0,0.0
2463,76.0,0,120,6.0,0.0
2464,67.0,0,210,8.0,0.0
2465,71.0,0,210,4.0,0.0
2466,43.0,0,120,3.0,0.0
2467,76.0,0,120,0.0,0.0
2468,43.0,0,120,10.0,0.0
2469,43.0,108,120,1.0,0.0
2470,74.0,0,360,2.0,0.0
2471,71.0,12,210,7.0,0.0
2472,74.0,0,120,6.0,0.0
2473,47.0,0,120,10.0,0.0
2474,47.0,0,120,5.0,0.0
2475,74.0,120,120,0.0,0.0
2476,47.0,0,120,1.0,0.0
2477,35.0,0,120,10.0,0.0
2478,47.0,0,120,3.0,0.0
2479,48.0,0,120,1.0,0.0
2480,77.0,0,120,0.0,0.0
2481,67.0,24,420,7.0,0.0
2482,77.0,0,120,6.0,0.0
2483,48.0,0,120,10.0,0.0
2484,48.0,0,120,3.0,0.0
2485,67.0,12,210,4.0,0.0
2486,48.0,0,120,5.0,0.0
2487,60.0,0,210,8.0,0.0
2488,36.0,108,120,10.0,0.0
2489,72.0,0,120,2.0,0.0
2490,76.0,120,120,0.0,0.0
2491,52.0,0,120,10.0,0.0
2492,52.0,0,120,1.0,0.0
2493,52.0,0,120,3.0,0.0
2494,40.0,0,120,10.0,0.0
2495,76.0,0,120,6.0,0.0
2496,52.0,0,120,5.0,0.0
2497,43.0,0,120,1.0,0.0
2498,43.0,0,120,5.0,0.0
2499,74.0,0,120,0.0,0.0
2500,74.0,0,120,2.0,0.0
2501,64.0,12,210,8.0,0.0
2502,31.0,0,120,10.0,0.0
2503,74.0,0,120,6.0,0.0
2504,43.0,84,120,3.0,0.0
2505,43.0,0,120,10.0,0.0
2506,79.0,0,120,2.0,0.0
2507,47.0,0,120,5.0,0.0
2508,35.0,0,120,10.0,0.0
2509,72.0,0,120,6.0,0.0
2510,72.0,0,120,0.0,0.0
2511,47.0,0,120,1.0,0.0
2512,47.0,120,120,10.0,0.0
2513,47.0,0,120,3.0,0.0
2514,33.0,108,120,10.0,0.0
2515,72.0,0,120,2.0,0.0
2516,53.0,0,210,8.0,0.0
2517,72.0,0,210,4.0,0.0
2518,45.0,0,120,5.0,0.0
2519,45.0,0,120,1.0,0.0
2520,45.0,0,120,3.0,0.0
2521,77.0,12,210,0.0,0.0
2522,77.0,0,210,6.0,0.0
2523,72.0,0,690,7.0,0.0
2524,45.0,0,120,10.0,0.0
2525,48.0,0,120,10.0,0.0
2526,71.0,0,120,2.0,0.0
2527,48.0,0,120,3.0,0.0
2528,36.0,0,120,10.0,0.0
2529,48.0,120,120,1.0,0.0
2530,48.0,0,120,5.0,0.0
2531,72.0,0,210,6.0,0.0
2532,65.0,0,210,8.0,0.0
2533,41.0,0,120,10.0,0.0
2534,69.0,0,120,2.0,0.0
2535,41.0,0,120,5.0,0.0
2536,41.0,0,120,1.0,0.0
2537,41.0,0,120,3.0,0.0
2538,72.0,12,210,4.0,0.0
2539,29.0,108,120,10.0,0.0
2540,72.0,0,210,0.0,0.0
2541,33.0,120,120,10.0,0.0
2542,45.0,0,120,10.0,0.0
2543,45.0,0,120,1.0,0.0
2544,45.0,0,120,3.0,0.0
2545,67.0,0,120,2.0,0.0
2546,45.0,0,120,5.0,0.0
2547,47.0,0,120,3.0,0.0
2548,47.0,0,120,10.0,0.0
2549,72.0,0,210,4.0,0.0
2550,65.0,0,120,2.0,0.0
2551,62.0,24,420,8.0,0.0
2552,74.0,12,210,6.0,0.0
2553,47.0,0,120,5.0,0.0
2554,74.0,0,210,0.0,0.0
2555,35.0,0,120,10.0,0.0
2556,47.0,108,120,1.0,0.0
2557,50.0,0,120,1.0,0.0
2558,50.0,0,120,5.0,0.0
2559,50.0,120,120,3.0,0.0
2560,38.0,0,120,10.0,0.0
2561,71.0,0,120,2.0,0.0
2562,50.0,0,120,10.0,0.0
2563,42.0,0,120,1.0,0.0
2564,30.0,0,120,10.0,0.0
2565,71.0,0,120,7.0,0.0
2566,62.0,0,120,2.0,0.0
2567,71.0,12,210,6.0,0.0
2568,42.0,0,120,5.0,0.0
2569,42.0,84,120,3.0,0.0
2570,71.0,0,210,0.0,0.0
2571,71.0,0,120,4.0,0.0
2572,42.0,0,120,10.0,0.0
2573,69.0,0,120,4.0,0.0
2574,69.0,0,120,7.0,0.0
2575,45.0,0,120,3.0,0.0
2576,45.0,0,120,10.0,0.0
2577,65.0,120,120,2.0,0.0
2578,45.0,0,120,5.0,0.0
2579,33.0,0,120,10.0,0.0
2580,45.0,0,120,1.0,0.0
2581,32.0,0,210,10.0,0.0
2582,44.0,0,210,5.0,0.0
2583,44.0,12,210,10.0,0.0
2584,71.0,0,210,7.0,0.0
2585,76.0,108,120,6.0,0.0
2586,52.0,0,210,8.0,0.0
2587,59.0,0,210,2.0,0.0
2588,44.0,0,210,3.0,0.0
2589,71.0,0,210,4.0,0.0
2590,44.0,0,210,1.0,0.0
2591,76.0,0,120,0.0,0.0
2592,74.0,120,120,0.0,0.0
2593,74.0,0,120,6.0,0.0
2594,72.0,108,120,0.0,0.0
2595,72.0,0,120,6.0,0.0
2596,68.0,0,210,4.0,0.0
2597,40.0,0,210,3.0,0.0
2598,40.0,0,210,1.0,0.0
2599,68.0,12,210,7.0,0.0
2600,28.0,0,210,10.0,0.0
2601,40.0,0,210,5.0,0.0
2602,80.0,0,210,2.0,0.0
2603,40.0,0,210,10.0,0.0
2604,64.0,0,210,8.0,0.0
2605,71.0,120,120,6.0,0.0
2606,71.0,0,120,0.0,0.0
2607,45.0,0,210,3.0,0.0
2608,45.0,0,210,5.0,0.0
2609,45.0,12,210,1.0,0.0
2610,72.0,108,120,6.0,0.0
2611,72.0,0,120,0.0,0.0
2612,60.0,0,210,8.0,0.0
2613,33.0,0,210,10.0,0.0
2614,81.0,0,600,2.0,0.0
2615,64.0,0,210,4.0,0.0
2616,45.0,0,210,10.0,0.0
2617,64.0,0,210,7.0,0.0
2618,76.0,0,120,0.0,0.0
2619,76.0,120,120,6.0,0.0
2620,81.0,0,360,7.0,0.0
2621,57.0,0,210,3.0,0.0
2622,69.0,0,120,6.0,0.0
2623,76.0,12,210,4.0,0.0
2624,64.0,0,210,8.0,0.0
2625,69.0,108,120,0.0,0.0
2626,72.0,0,120,0.0,0.0
2627,57.0,0,120,5.0,0.0
2628,67.0,120,120,1.0,0.0
2629,72.0,0,120,6.0,0.0
2630,77.0,0,210,4.0,0.0
2631,57.0,0,210,3.0,0.0
2632,65.0,0,120,1.0,0.0
2633,74.0,108,120,6.0,0.0
2634,74.0,0,120,0.0,0.0
2635,57.0,12,210,8.0,0.0
2636,77.0,0,120,0.0,0.0
2637,83.0,0,120,2.0,0.0
2638,50.0,120,120,5.0,0.0
2639,62.0,0,120,1.0,0.0
2640,83.0,0,120,7.0,0.0
2641,77.0,0,120,6.0,0.0
2642,74.0,0,210,4.0,0.0
2643,45.0,0,210,10.0,0.0
2644,69.0,0,120,0.0,0.0
2645,57.0,12,210,10.0,0.0
2646,45.0,0,210,3.0,0.0
2647,81.0,0,120,7.0,0.0
2648,65.0,0,210,8.0,0.0
2649,65.0,0,120,1.0,0.0
2650,69.0,108,120,6.0,0.0
2651,62.0,0,120,5.0,0.0
2652,81.0,0,120,2.0,0.0
2653,74.0,0,120,0.0,0.0
2654,83.0,0,120,2.0,0.0
2655,83.0,120,120,7.0,0.0
2656,65.0,0,120,5.0,0.0
2657,62.0,0,120,1.0,0.0
2658,74.0,0,120,6.0,0.0
2659,57.0,12,210,10.0,0.0
2660,45.0,0,210,10.0,0.0
2661,76.0,0,210,4.0,0.0
2662,81.0,0,600,7.0,0.0
2663,64.0,0,210,8.0,0.0
2664,69.0,108,120,5.0,0.0
2665,72.0,0,120,0.0,0.0
2666,81.0,0,600,2.0,0.0
2667,69.0,0,210,1.0,0.0
2668,72.0,0,120,6.0,0.0
2669,76.0,0,120,0.0,0.0
2670,76.0,0,120,6.0,0.0
2671,72.0,120,120,5.0,0.0
2672,64.0,0,120,5.0,0.0
2673,57.0,0,120,1.0,0.0
2674,33.0,12,210,10.0,0.0
2675,60.0,0,210,8.0,0.0
2676,69.0,0,120,6.0,0.0
2677,81.0,0,120,4.0,0.0
2678,45.0,0,210,10.0,0.0
2679,57.0,0,210,3.0,0.0
2680,69.0,108,120,0.0,0.0
2681,55.0,0,120,1.0,0.0
2682,72.0,0,120,0.0,0.0
2683,69.0,120,120,5.0,0.0
2684,76.0,0,120,4.0,0.0
2685,72.0,0,120,6.0,0.0
2686,62.0,0,120,5.0,0.0
2687,74.0,108,120,6.0,0.0
2688,77.0,12,210,4.0,0.0
2689,57.0,0,210,8.0,0.0
2690,53.0,0,120,1.0,0.0
2691,57.0,0,210,3.0,0.0
2692,74.0,0,120,0.0,0.0
2693,83.0,120,120,2.0,0.0
2694,83.0,0,120,7.0,0.0
2695,77.0,0,120,0.0,0.0
2696,57.0,0,120,5.0,0.0
2697,77.0,0,120,6.0,0.0
2698,50.0,0,120,1.0,0.0
2699,53.0,0,120,1.0,0.0
2700,62.0,0,120,5.0,0.0
2701,45.0,0,210,3.0,0.0
2702,81.0,0,120,2.0,0.0
2703,69.0,108,120,6.0,0.0
2704,69.0,0,120,0.0,0.0
2705,45.0,0,210,10.0,0.0
2706,57.0,12,210,10.0,0.0
2707,65.0,0,210,8.0,0.0
2708,81.0,0,120,7.0,0.0
2709,74.0,0,210,4.0,0.0
2710,83.0,120,120,2.0,0.0
2711,74.0,0,120,6.0,0.0
2712,65.0,0,120,5.0,0.0
2713,74.0,0,120,0.0,0.0
2714,50.0,0,120,1.0,0.0
2715,83.0,0,120,7.0,0.0
2716,69.0,0,120,5.0,0.0
2717,81.0,0,210,7.0,0.0
2718,72.0,108,120,0.0,0.0
2719,57.0,24,330,1.0,0.0
2720,81.0,0,210,2.0,0.0
2721,76.0,0,210,4.0,0.0
2722,64.0,12,210,8.0,0.0
2723,45.0,0,210,10.0,0.0
2724,72.0,0,120,6.0,0.0
2725,57.0,0,210,10.0,0.0
2726,71.0,96,120,6.0,0.0
2727,62.0,0,120,5.0,0.0
2728,71.0,0,120,0.0,0.0
2729,69.0,120,120,6.0,0.0
2730,33.0,0,120,10.0,0.0
2731,57.0,0,120,3.0,0.0
2732,69.0,0,120,2.0,0.0
2733,69.0,0,120,0.0,0.0
2734,60.0,0,120,5.0,0.0
2735,45.0,0,120,10.0,0.0
2736,69.0,0,120,4.0,0.0
2737,32.0,0,120,10.0,0.0
2738,71.0,0,120,0.0,0.0
2739,71.0,0,120,4.0,0.0
2740,71.0,0,120,6.0,0.0
2741,56.0,0,120,3.0,0.0
2742,44.0,0,120,10.0,0.0
2743,71.0,0,120,2.0,0.0
2744,56.0,120,120,1.0,0.0
2745,59.0,0,120,5.0,0.0
2746,57.0,0,120,1.0,0.0
2747,72.0,0,120,0.0,0.0
2748,57.0,0,120,3.0,0.0
2749,45.0,108,120,10.0,0.0
2750,72.0,0,120,2.0,0.0
2751,72.0,0,120,4.0,0.0
2752,72.0,0,120,6.0,0.0
2753,33.0,0,120,10.0,0.0
2754,57.0,12,210,5.0,0.0
2755,74.0,0,120,6.0,0.0
2756,35.0,120,120,10.0,0.0
2757,74.0,0,120,4.0,0.0
2758,59.0,0,120,3.0,0.0
2759,74.0,0,120,0.0,0.0
2760,47.0,0,120,10.0,0.0
2761,74.0,0,120,2.0,0.0
2762,59.0,0,120,1.0,0.0
2763,72.0,120,120,4.0,0.0
2764,72.0,0,120,6.0,0.0
2765,64.0,0,120,8.0,0.0
2766,69.0,0,120,7.0,0.0
2767,33.0,0,120,10.0,0.0
2768,57.0,0,120,1.0,0.0
2769,45.0,0,120,5.0,0.0
2770,72.0,0,120,2.0,0.0
2771,72.0,0,120,0.0,0.0
2772,45.0,0,120,10.0,0.0
2773,57.0,0,120,3.0,0.0
2774,35.0,0,120,10.0,0.0
2775,74.0,0,120,2.0,0.0
2776,68.0,120,120,7.0,0.0
2777,47.0,0,120,5.0,0.0
2778,47.0,0,120,10.0,0.0
2779,74.0,0,120,4.0,0.0
2780,59.0,0,120,1.0,0.0
2781,74.0,0,120,6.0,0.0
2782,62.0,0,120,8.0,0.0
2783,74.0,0,120,0.0,0.0
2784,59.0,0,120,3.0,0.0
2785,76.0,0,210,0.0,0.0
2786,60.0,0,120,1.0,0.0
2787,48.0,0,120,5.0,0.0
2788,36.0,108,120,10.0,0.0
2789,60.0,0,120,3.0,0.0
2790,76.0,0,210,2.0,0.0
2791,60.0,12,210,8.0,0.0
2792,76.0,0,210,6.0,0.0
2793,76.0,0,210,4.0,0.0
2794,48.0,0,120,10.0,0.0
2795,69.0,0,210,7.0,0.0
2796,50.0,0,120,10.0,0.0
2797,50.0,120,120,5.0,0.0
2798,38.0,0,120,10.0,0.0
2799,62.0,0,120,1.0,0.0
2800,62.0,0,120,3.0,0.0
2801,36.0,0,120,10.0,0.0
2802,48.0,108,120,5.0,0.0
2803,69.0,0,210,0.0,0.0
2804,69.0,0,210,6.0,0.0
2805,69.0,12,210,4.0,0.0
2806,60.0,0,120,3.0,0.0
2807,48.0,0,120,10.0,0.0
2808,64.0,0,210,7.0,0.0
2809,60.0,0,210,8.0,0.0
2810,69.0,0,210,2.0,0.0
2811,60.0,0,120,1.0,0.0
2812,62.0,0,120,3.0,0.0
2813,50.0,0,120,10.0,0.0
2814,62.0,0,120,1.0,0.0
2815,38.0,120,120,10.0,0.0
2816,50.0,0,120,5.0,0.0
2817,64.0,0,210,2.0,0.0
2818,52.0,0,210,10.0,0.0
2819,52.0,0,210,5.0,0.0
2820,59.0,0,210,7.0,0.0
2821,64.0,0,120,3.0,0.0
2822,64.0,0,210,4.0,0.0
2823,64.0,0,210,0.0,0.0
2824,64.0,108,120,1.0,0.0
2825,56.0,12,210,8.0,0.0
2826,64.0,0,210,6.0,0.0
2827,40.0,0,210,10.0,0.0
2828,65.0,0,120,1.0,0.0
2829,65.0,120,120,3.0,0.0
2830,68.0,0,210,2.0,0.0
2831,59.0,0,120,3.0,0.0
2832,64.0,0,120,5.0,0.0
2833,68.0,0,210,0.0,0.0
2834,28.0,12,210,10.0,0.0
2835,59.0,108,120,1.0,0.0
2836,40.0,0,210,10.0,0.0
2837,68.0,0,210,6.0,0.0
2838,59.0,0,210,8.0,0.0
2839,68.0,0,210,4.0,0.0
2840,64.0,0,210,7.0,0.0
2841,62.0,0,120,3.0,0.0
2842,62.0,0,120,5.0,0.0
2843,62.0,120,120,1.0,0.0
2844,60.0,0,120,3.0,0.0
2845,69.0,0,600,6.0,0.0
2846,60.0,108,120,5.0,0.0
2847,60.0,0,120,1.0,0.0
2848,33.0,0,210,10.0,0.0
2849,45.0,12,210,10.0,0.0
2850,64.0,0,210,7.0,0.0
2851,69.0,0,600,4.0,0.0
2852,69.0,0,600,0.0,0.0
2853,60.0,0,210,8.0,0.0
2854,69.0,0,600,2.0,0.0
2855,64.0,120,120,1.0,0.0
2856,64.0,0,120,3.0,0.0
2857,64.0,0,120,5.0,0.0
2858,45.0,0,120,10.0,0.0
2859,57.0,0,120,5.0,0.0
2860,57.0,0,120,10.0,0.0
2861,57.0,120,120,3.0,0.0
2862,57.0,0,120,1.0,0.0
2863,55.0,0,120,10.0,0.0
2864,60.0,0,120,1.0,0.0
2865,60.0,120,120,5.0,0.0
2866,43.0,0,120,10.0,0.0
2867,60.0,0,120,3.0,0.0
2868,62.0,0,120,5.0,0.0
2869,41.0,108,120,10.0,0.0
2870,62.0,0,210,8.0,0.0
2871,62.0,0,120,1.0,0.0
2872,65.0,12,210,7.0,0.0
2873,53.0,0,120,10.0,0.0
2874,62.0,0,120,3.0,0.0
2875,71.0,0,120,4.0,0.0
2876,71.0,0,120,2.0,0.0
2877,65.0,0,120,3.0,0.0
2878,71.0,0,120,6.0,0.0
2879,50.0,0,120,10.0,0.0
2880,71.0,0,120,0.0,0.0
2881,65.0,0,120,5.0,0.0
2882,38.0,120,120,10.0,0.0
2883,65.0,0,120,1.0,0.0
2884,69.0,0,120,2.0,0.0
2885,57.0,0,120,5.0,0.0
2886,53.0,0,120,10.0,0.0
2887,69.0,0,120,6.0,0.0
2888,69.0,0,120,0.0,0.0
2889,57.0,0,120,3.0,0.0
2890,69.0,0,120,4.0,0.0
2891,57.0,0,120,1.0,0.0
2892,41.0,120,120,10.0,0.0
2893,71.0,0,120,4.0,0.0
2894,38.0,0,120,10.0,0.0
2895,62.0,0,120,5.0,0.0
2896,62.0,0,120,3.0,0.0
2897,71.0,0,120,6.0,0.0
2898,71.0,0,120,0.0,0.0
2899,71.0,0,120,2.0,0.0
2900,62.0,120,120,1.0,0.0
2901,50.0,0,120,10.0,0.0
2902,69.0,0,600,2.0,0.0
2903,69.0,0,600,6.0,0.0
2904,60.0,0,120,1.0,0.0
2905,60.0,0,120,5.0,0.0
2906,57.0,12,210,10.0,0.0
2907,60.0,0,210,8.0,0.0
2908,64.0,0,210,7.0,0.0
2909,69.0,0,600,4.0,0.0
2910,45.0,0,210,10.0,0.0
2911,60.0,108,120,3.0,0.0
2912,69.0,0,600,0.0,0.0
2913,64.0,120,120,1.0,0.0
2914,64.0,0,120,5.0,0.0
2915,64.0,0,120,3.0,0.0
2916,57.0,0,120,3.0,0.0
2917,33.0,120,120,10.0,0.0
2918,45.0,0,120,10.0,0.0
2919,57.0,0,120,5.0,0.0
2920,57.0,0,120,1.0,0.0
2921,43.0,0,120,10.0,0.0
2922,60.0,0,120,1.0,0.0
2923,60.0,0,120,3.0,0.0
2924,60.0,0,120,5.0,0.0
2925,31.0,120,120,10.0,0.0
2926,62.0,108,120,3.0,0.0
2927,65.0,0,210,8.0,0.0
2928,74.0,12,210,7.0,0.0
2929,62.0,0,120,1.0,0.0
2930,29.0,0,120,10.0,0.0
2931,62.0,0,120,5.0,0.0
2932,41.0,0,120,10.0,0.0
2933,65.0,0,120,1.0,0.0
2934,65.0,120,120,3.0,0.0
2935,71.0,0,120,4.0,0.0
2936,71.0,0,120,2.0,0.0
2937,38.0,0,120,10.0,0.0
2938,65.0,0,120,5.0,0.0
2939,71.0,0,120,6.0,0.0
2940,71.0,0,120,0.0,0.0
2941,26.0,0,120,10.0,0.0
2942,57.0,120,120,5.0,0.0
2943,29.0,0,120,10.0,0.0
2944,69.0,0,120,2.0,0.0
2945,41.0,0,120,10.0,0.0
2946,69.0,0,120,4.0,0.0
2947,57.0,0,120,1.0,0.0
2948,69.0,0,120,6.0,0.0
2949,69.0,0,120,0.0,0.0
2950,57.0,0,120,3.0,0.0
2951,71.0,0,120,0.0,0.0
2952,71.0,0,120,2.0,0.0
2953,71.0,0,120,6.0,0.0
2954,38.0,0,120,10.0,0.0
2955,71.0,0,120,4.0,0.0
2956,62.0,120,120,5.0,0.0
2957,26.0,0,120,10.0,0.0
2958,62.0,0,120,1.0,0.0
2959,62.0,0,120,3.0,0.0
2960,64.0,0,210,8.0,0.0
2961,69.0,0,210,6.0,0.0
2962,60.0,0,210,5.0,0.0
2963,69.0,0,210,2.0,0.0
2964,60.0,0,210,3.0,0.0
2965,60.0,0,210,1.0,0.0
2966,72.0,0,210,7.0,0.0
2967,33.0,0,210,10.0,0.0
2968,45.0,12,210,10.0,0.0
2969,69.0,0,210,0.0,0.0
2970,69.0,108,120,4.0,0.0
2971,71.0,120,120,4.0,0.0
2972,57.0,12,210,10.0,0.0
2973,45.0,0,210,10.0,0.0
2974,72.0,108,120,4.0,0.0
2975,57.0,0,210,5.0,0.0
2976,74.0,120,120,4.0,0.0
2977,76.0,66,120,4.0,0.0
2978,78.0,60,60,4.0,0.0
2979,80.0,60,60,4.0,0.0
2980,45.0,0,120,10.0,0.0
2981,57.0,6,120,5.0,0.0
2982,81.0,54,60,4.0,0.0
2983,57.0,0,120,10.0,0.0
2984,80.0,60,60,4.0,0.0
2985,47.0,0,120,10.0,0.0
2986,59.0,0,120,10.0,0.0
2987,78.0,54,60,4.0,0.0
2988,59.0,6,120,5.0,0.0
2989,80.0,114,60,4.0,0.0
2990,60.0,12,210,5.0,0.0
2991,60.0,0,210,10.0,0.0
2992,48.0,0,210,10.0,0.0
2993,81.0,108,120,4.0,0.0
2994,76.0,120,120,4.0,0.0
2995,57.0,0,210,10.0,0.0
2996,57.0,0,210,5.0,0.0
2997,78.0,108,120,4.0,0.0
2998,45.0,12,210,10.0,0.0
2999,73.0,120,120,4.0,0.0
3000,47.0,0,210,10.0,0.0
3001,75.0,108,120,4.0,0.0
3002,59.0,0,210,5.0,0.0
3003,59.0,12,210,10.0,0.0
3004,69.0,120,120,4.0,0.0
3005,47.0,12,210,5.0,0.0
3006,35.0,0,210,10.0,0.0
3007,66.0,0,210,0.0,0.0
3008,69.0,0,210,0.0,0.0
3009,71.0,0,210,0.0,0.0
3010,75.0,0,210,0.0,0.0
3011,59.0,0,210,1.0,0.0
3012,71.0,108,120,4.0,0.0
3013,47.0,0,210,10.0,0.0
3014,66.0,120,120,4.0,0.0
3015,28.0,0,210,10.0,0.0
3016,52.0,0,210,5.0,0.0
3017,64.0,0,210,1.0,0.0
3018,40.0,12,210,10.0,0.0
3019,67.0,0,210,0.0,0.0
3020,71.0,0,210,0.0,0.0
3021,76.0,0,210,0.0,0.0
3022,67.0,108,120,4.0,0.0
3023,63.0,120,120,4.0,0.0
3024,71.0,0,210,2.0,0.0
3025,64.0,108,120,4.0,0.0
3026,67.0,0,210,2.0,0.0
3027,52.0,12,210,3.0,0.0
3028,64.0,0,210,2.0,0.0
3029,67.0,120,120,4.0,0.0
3030,40.0,12,210,3.0,0.0
3031,59.0,0,210,2.0,0.0
3032,64.0,0,210,2.0,0.0
3033,67.0,0,210,2.0,0.0
3034,71.0,108,120,4.0,0.0
3035,75.0,120,120,4.0,0.0
3036,55.0,0,120,5.0,0.0
3037,55.0,0,120,10.0,0.0
3038,76.0,120,120,4.0,0.0
3039,43.0,0,120,10.0,0.0
3040,57.0,0,120,5.0,0.0
3041,57.0,0,120,10.0,0.0
3042,45.0,0,120,10.0,0.0
3043,77.0,66,120,4.0,0.0
3044,58.0,0,210,10.0,0.0
3045,58.0,18,210,5.0,0.0
3046,46.0,0,210,10.0,0.0
3047,79.0,60,60,4.0,0.0
3048,77.0,60,60,4.0,0.0
3049,76.0,42,60,4.0,0.0
3050,74.0,114,60,4.0,0.0
3051,55.0,0,210,5.0,0.0
3052,55.0,12,210,10.0,0.0
3053,76.0,108,120,4.0,0.0
3054,43.0,0,210,10.0,0.0
3055,71.0,120,120,4.0,0.0
3056,57.0,0,210,5.0,0.0
3057,73.0,108,120,4.0,0.0
3058,57.0,0,210,10.0,0.0
3059,45.0,12,210,10.0,0.0
3060,67.0,120,120,4.0,0.0
3061,45.0,12,210,5.0,0.0
3062,73.0,0,210,0.0,0.0
3063,45.0,0,210,10.0,0.0
3064,67.0,0,210,0.0,0.0
3065,69.0,0,210,0.0,0.0
3066,57.0,0,210,1.0,0.0
3067,69.0,108,120,4.0,0.0
3068,33.0,0,210,10.0,0.0
3069,64.0,120,120,4.0,0.0
3070,38.0,0,210,10.0,0.0
3071,50.0,12,210,5.0,0.0
3072,65.0,0,210,0.0,0.0
3073,69.0,0,210,0.0,0.0
3074,74.0,0,210,0.0,0.0
3075,65.0,108,120,4.0,0.0
3076,62.0,0,210,1.0,0.0
3077,26.0,0,210,10.0,0.0
3078,61.0,120,120,4.0,0.0
3079,69.0,0,210,2.0,0.0
3080,62.0,108,120,4.0,0.0
3081,50.0,0,210,3.0,0.0
3082,62.0,12,210,2.0,0.0
3083,65.0,0,210,2.0,0.0
3084,65.0,120,120,4.0,0.0
3085,69.0,108,120,4.0,0.0
3086,57.0,0,210,2.0,0.0
3087,65.0,0,210,2.0,0.0
3088,62.0,12,210,2.0,0.0
3089,38.0,0,210,3.0,0.0
3090,73.0,120,120,4.0,0.0
3091,53.0,0,120,10.0,0.0
3092,53.0,0,120,5.0,0.0
3093,74.0,0,120,4.0,0.0
3094,41.0,120,120,10.0,0.0
3095,43.0,0,120,10.0,0.0
3096,76.0,0,120,4.0,0.0
3097,55.0,66,120,10.0,0.0
3098,55.0,0,120,5.0,0.0
3099,57.0,0,210,5.0,0.0
3100,45.0,0,210,10.0,0.0
3101,57.0,18,210,10.0,0.0
3102,77.0,60,60,4.0,0.0
3103,76.0,60,60,4.0,0.0
3104,74.0,42,60,4.0,0.0
3105,72.0,114,60,4.0,0.0
3106,41.0,0,210,10.0,0.0
3107,74.0,108,120,4.0,0.0
3108,53.0,0,210,10.0,0.0
3109,53.0,12,210,5.0,0.0
3110,69.0,120,120,4.0,0.0
3111,71.0,108,120,4.0,0.0
3112,55.0,12,210,10.0,0.0
3113,55.0,0,210,5.0,0.0
3114,43.0,0,210,10.0,0.0
3115,65.0,120,120,4.0,0.0
3116,31.0,0,210,10.0,0.0
3117,71.0,0,210,0.0,0.0
3118,67.0,12,210,0.0,0.0
3119,55.0,0,210,1.0,0.0
3120,67.0,108,120,4.0,0.0
3121,43.0,0,210,5.0,0.0
3122,43.0,0,210,10.0,0.0
3123,65.0,0,210,0.0,0.0
3124,62.0,120,120,4.0,0.0
3125,64.0,108,120,4.0,0.0
3126,48.0,0,210,5.0,0.0
3127,60.0,0,210,1.0,0.0
3128,64.0,12,210,0.0,0.0
3129,67.0,0,210,0.0,0.0
3130,72.0,0,210,0.0,0.0
3131,36.0,0,210,10.0,0.0
3132,24.0,0,210,10.0,0.0
3133,59.0,120,120,4.0,0.0
3134,67.0,0,210,2.0,0.0
3135,48.0,12,210,3.0,0.0
3136,64.0,0,210,2.0,0.0
3137,60.0,0,210,2.0,0.0
3138,60.0,108,120,4.0,0.0
3139,64.0,120,120,4.0,0.0
3140,36.0,12,210,3.0,0.0
3141,67.0,108,120,4.0,0.0
3142,55.0,0,210,2.0,0.0
3143,60.0,0,210,2.0,0.0
3144,64.0,0,210,2.0,0.0
3145,71.0,0,120,4.0,0.0
3146,64.0,120,120,5.0,0.0
3147,48.0,0,120,10.0,0.0
3148,60.0,120,120,10.0,0.0
3149,60.0,0,120,5.0,0.0
3150,72.0,0,120,4.0,0.0
3151,50.0,0,120,10.0,0.0
3152,76.0,0,120,4.0,0.0
3153,55.0,66,120,5.0,0.0
3154,62.0,0,120,10.0,0.0
3155,52.0,18,210,5.0,0.0
3156,79.0,60,60,4.0,0.0
3157,52.0,0,210,10.0,0.0
3158,64.0,0,210,10.0,0.0
3159,81.0,60,60,4.0,0.0
3160,82.0,42,60,4.0,0.0
3161,81.0,60,60,4.0,0.0
3162,79.0,60,60,4.0,0.0
3163,76.0,0,210,7.0,0.0
3164,64.0,54,300,5.0,0.0
3165,79.0,0,210,6.0,0.0
3166,52.0,0,210,10.0,0.0
3167,71.0,0,210,8.0,0.0
3168,40.0,18,210,10.0,0.0
3169,77.0,60,60,4.0,0.0
3170,76.0,42,60,4.0,0.0
3171,74.0,60,60,4.0,0.0
3172,45.0,0,210,10.0,0.0
3173,69.0,12,210,8.0,0.0
3174,57.0,0,210,10.0,0.0
3175,73.0,6,120,4.0,0.0
3176,79.0,0,210,6.0,0.0
3177,76.0,0,210,7.0,0.0
3178,62.0,60,60,5.0,0.0
3179,81.0,6,120,4.0,0.0
3180,61.0,42,60,5.0,0.0
3181,59.0,60,60,5.0,0.0
3182,49.0,12,210,10.0,0.0
3183,76.0,6,120,4.0,0.0
3184,69.0,0,210,8.0,0.0
3185,57.0,54,60,5.0,0.0
3186,79.0,0,210,6.0,0.0
3187,76.0,0,210,7.0,0.0
3188,61.0,0,210,10.0,0.0
3189,55.0,60,60,5.0,0.0
3190,53.0,42,60,5.0,0.0
3191,79.0,6,120,4.0,0.0
3192,52.0,60,60,5.0,0.0
3193,77.0,60,60,4.0,0.0
3194,50.0,0,210,10.0,0.0
3195,50.0,0,210,5.0,0.0
3196,62.0,18,210,10.0,0.0
3197,79.0,60,60,4.0,0.0
3198,81.0,42,60,4.0,0.0
3199,79.0,60,60,4.0,0.0
3200,77.0,0,210,6.0,0.0
3201,77.0,60,60,4.0,0.0
3202,69.0,0,210,8.0,0.0
3203,38.0,18,210,10.0,0.0
3204,50.0,0,210,10.0,0.0
3205,62.0,54,300,5.0,0.0
3206,74.0,0,210,7.0,0.0
3207,76.0,60,60,4.0,0.0
3208,74.0,42,60,4.0,0.0
3209,72.0,60,60,4.0,0.0
3210,55.0,0,210,10.0,0.0
3211,43.0,0,210,10.0,0.0
3212,74.0,12,210,7.0,0.0
3213,77.0,0,210,6.0,0.0
3214,67.0,0,210,8.0,0.0
3215,71.0,6,120,4.0,0.0
3216,60.0,60,60,5.0,0.0
3217,79.0,6,120,4.0,0.0
3218,59.0,42,60,5.0,0.0
3219,57.0,60,60,5.0,0.0
3220,77.0,0,210,6.0,0.0
3221,74.0,12,210,7.0,0.0
3222,55.0,54,60,5.0,0.0
3223,74.0,6,120,4.0,0.0
3224,59.0,0,210,10.0,0.0
3225,67.0,0,210,8.0,0.0
3226,47.0,0,210,10.0,0.0
3227,53.0,60,60,5.0,0.0
3228,52.0,42,60,5.0,0.0
3229,77.0,6,120,4.0,0.0
3230,50.0,60,60,5.0,0.0
3231,60.0,0,210,10.0,0.0
3232,76.0,60,60,4.0,0.0
3233,48.0,0,210,10.0,0.0
3234,48.0,18,210,5.0,0.0
3235,77.0,60,60,4.0,0.0
3236,79.0,42,60,4.0,0.0
3237,77.0,60,60,4.0,0.0
3238,60.0,54,300,5.0,0.0
3239,76.0,0,210,6.0,0.0
3240,36.0,18,210,10.0,0.0
3241,76.0,60,60,4.0,0.0
3242,67.0,0,210,8.0,0.0
3243,72.0,0,210,7.0,0.0
3244,48.0,0,210,10.0,0.0
3245,74.0,60,60,4.0,0.0
3246,72.0,42,60,4.0,0.0
3247,71.0,60,60,4.0,0.0
3248,41.0,12,210,10.0,0.0
3249,72.0,0,210,7.0,0.0
3250,65.0,0,210,8.0,0.0
3251,76.0,0,210,6.0,0.0
3252,69.0,6,120,4.0,0.0
3253,53.0,0,210,10.0,0.0
3254,59.0,60,60,5.0,0.0
3255,77.0,6,120,4.0,0.0
3256,57.0,42,60,5.0,0.0
3257,55.0,60,60,5.0,0.0
3258,72.0,0,210,7.0,0.0
3259,65.0,0,210,8.0,0.0
3260,53.0,54,60,5.0,0.0
3261,72.0,6,120,4.0,0.0
3262,76.0,12,210,6.0,0.0
3263,57.0,0,210,10.0,0.0
3264,45.0,0,210,10.0,0.0
3265,52.0,60,60,5.0,0.0
3266,50.0,42,60,5.0,0.0
3267,76.0,6,120,4.0,0.0
3268,48.0,60,60,5.0,0.0
3269,47.0,18,210,10.0,0.0
3270,47.0,0,210,5.0,0.0
3271,74.0,60,60,4.0,0.0
3272,59.0,0,210,10.0,0.0
3273,76.0,60,60,4.0,0.0
3274,77.0,42,60,4.0,0.0
3275,76.0,60,60,4.0,0.0
3276,59.0,54,300,5.0,0.0
3277,71.0,0,210,7.0,0.0
3278,74.0,0,210,6.0,0.0
3279,65.0,0,210,8.0,0.0
3280,74.0,60,60,4.0,0.0
3281,47.0,18,210,10.0,0.0
3282,35.0,0,210,10.0,0.0
3283,72.0,60,60,4.0,0.0
3284,71.0,42,60,4.0,0.0
3285,69.0,60,60,4.0,0.0
3286,40.0,0,210,10.0,0.0
3287,68.0,6,120,4.0,0.0
3288,74.0,0,210,6.0,0.0
3289,64.0,12,210,8.0,0.0
3290,52.0,0,210,10.0,0.0
3291,71.0,0,210,7.0,0.0
3292,57.0,60,60,5.0,0.0
3293,56.0,42,60,5.0,0.0
3294,76.0,6,120,4.0,0.0
3295,54.0,60,60,5.0,0.0
3296,71.0,12,210,7.0,0.0
3297,74.0,0,210,6.0,0.0
3298,71.0,6,120,4.0,0.0
3299,64.0,0,210,8.0,0.0
3300,52.0,54,60,5.0,0.0
3301,44.0,0,210,10.0,0.0
3302,56.0,0,210,10.0,0.0
3303,50.0,60,60,5.0,0.0
3304,74.0,6,120,4.0,0.0
3305,48.0,42,60,5.0,0.0
3306,47.0,120,60,5.0,0.0
3307,57.0,0,210,10.0,0.0
3308,45.0,18,210,10.0,0.0
3309,69.0,0,1380,7.0,0.0
3310,45.0,0,210,5.0,0.0
3311,64.0,36,1380,8.0,0.0
3312,72.0,30,870,6.0,0.0
3313,69.0,60,60,4.0,0.0
3314,71.0,42,60,4.0,0.0
3315,72.0,60,60,4.0,0.0
3316,45.0,0,120,10.0,0.0
3317,33.0,6,120,10.0,0.0
3318,76.0,54,60,4.0,0.0
3319,72.0,60,60,4.0,0.0
3320,47.0,0,120,10.0,0.0
3321,35.0,6,120,10.0,0.0
3322,71.0,54,60,4.0,0.0
3323,69.0,114,60,4.0,0.0
3324,48.0,6,120,10.0,0.0
3325,36.0,0,120,10.0,0.0
3326,57.0,12,210,5.0,0.0
3327,69.0,60,60,4.0,0.0
3328,35.0,0,120,10.0,0.0
3329,47.0,6,120,10.0,0.0
3330,71.0,42,60,4.0,0.0
3331,72.0,60,60,4.0,0.0
3332,76.0,54,60,4.0,0.0
3333,48.0,6,120,10.0,0.0
3334,36.0,0,120,10.0,0.0
3335,72.0,30,60,4.0,0.0
3336,38.0,6,120,10.0,0.0
3337,71.0,54,60,4.0,0.0
3338,50.0,0,120,10.0,0.0
3339,69.0,114,60,4.0,0.0
3340,52.0,6,120,10.0,0.0
3341,71.0,0,420,6.0,0.0
3342,64.0,12,210,5.0,0.0
3343,40.0,0,120,10.0,0.0
3344,69.0,60,60,4.0,0.0
3345,39.0,6,120,10.0,0.0
3346,51.0,0,120,10.0,0.0
3347,71.0,42,60,4.0,0.0
3348,75.0,60,60,4.0,0.0
3349,40.0,6,120,10.0,0.0
3350,52.0,0,120,10.0,0.0
3351,76.0,54,60,4.0,0.0
3352,75.0,60,60,4.0,0.0
3353,54.0,0,120,10.0,0.0
3354,71.0,18,60,4.0,0.0
3355,42.0,6,120,10.0,0.0
3356,69.0,114,60,4.0,0.0
3357,59.0,0,1650,8.0,0.0
3358,76.0,36,900,6.0,0.0
3359,67.0,36,420,7.0,0.0
3360,55.0,6,120,10.0,0.0
3361,52.0,12,210,5.0,0.0
3362,43.0,0,120,10.0,0.0
3363,67.0,60,60,4.0,0.0
3364,54.0,6,120,10.0,0.0
3365,69.0,42,60,4.0,0.0
3366,42.0,0,120,10.0,0.0
3367,71.0,60,60,4.0,0.0
3368,76.0,54,60,4.0,0.0
3369,43.0,0,120,10.0,0.0
3370,55.0,6,120,10.0,0.0
3371,71.0,60,60,4.0,0.0
3372,57.0,0,120,10.0,0.0
3373,69.0,18,60,4.0,0.0
3374,45.0,6,120,10.0,0.0
3375,67.0,114,60,4.0,0.0
3376,47.0,0,120,10.0,0.0
3377,59.0,12,210,5.0,0.0
3378,59.0,6,120,10.0,0.0
3379,66.0,30,870,7.0,0.0
3380,66.0,60,60,4.0,0.0
3381,67.0,42,60,4.0,0.0
3382,57.0,6,120,10.0,0.0
3383,45.0,0,120,10.0,0.0
3384,69.0,60,60,4.0,0.0
3385,76.0,54,60,4.0,0.0
3386,59.0,6,120,10.0,0.0
3387,47.0,0,120,10.0,0.0
3388,69.0,60,60,4.0,0.0
3389,48.0,6,120,10.0,0.0
3390,60.0,0,120,10.0,0.0
3391,67.0,18,60,4.0,0.0
3392,66.0,114,60,4.0,0.0
3393,74.0,12,690,6.0,0.0
3394,47.0,12,210,5.0,0.0
3395,50.0,0,120,10.0,0.0
3396,62.0,6,120,10.0,0.0
3397,66.0,60,60,4.0,0.0
3398,48.0,0,120,10.0,0.0
3399,60.0,6,120,10.0,0.0
3400,67.0,42,60,4.0,0.0
3401,69.0,60,60,4.0,0.0
3402,62.0,6,120,10.0,0.0
3403,75.0,54,60,4.0,0.0
3404,50.0,0,120,10.0,0.0
3405,69.0,30,60,4.0,0.0
3406,47.0,0,120,10.0,0.0
3407,59.0,6,120,10.0,0.0
3408,67.0,54,60,4.0,0.0
3409,66.0,114,60,4.0,0.0
3410,68.0,30,870,7.0,0.0
3411,52.0,6,120,10.0,0.0
3412,64.0,0,120,10.0,0.0
3413,52.0,0,210,5.0,0.0
3414,68.0,60,60,4.0,0.0
3415,69.0,42,60,4.0,0.0
3416,62.0,6,120,10.0,0.0
3417,50.0,0,120,10.0,0.0
3418,71.0,60,60,4.0,0.0
3419,71.0,12,210,6.0,0.0
3420,64.0,6,120,10.0,0.0
3421,74.0,54,60,4.0,0.0
3422,64.0,0,930,8.0,0.0
3423,52.0,0,120,10.0,0.0
3424,71.0,60,60,4.0,0.0
3425,69.0,42,60,4.0,0.0
3426,65.0,6,120,10.0,0.0
3427,53.0,0,120,10.0,0.0
3428,68.0,114,60,4.0,0.0
3429,64.0,6,120,10.0,0.0
3430,52.0,0,120,10.0,0.0
3431,76.0,0,210,6.0,0.0
3432,40.0,12,210,5.0,0.0
3433,68.0,60,60,4.0,0.0
3434,62.0,6,120,10.0,0.0
3435,69.0,42,60,4.0,0.0
3436,50.0,0,120,10.0,0.0
3437,71.0,60,60,4.0,0.0
3438,48.0,0,120,10.0,0.0
3439,74.0,12,210,6.0,0.0
3440,60.0,6,120,10.0,0.0
3441,74.0,54,60,4.0,0.0
3442,71.0,30,60,4.0,0.0
3443,69.0,42,60,4.0,0.0
3444,59.0,0,120,10.0,0.0
3445,47.0,6,120,10.0,0.0
3446,68.0,114,60,4.0,0.0
3447,73.0,30,870,6.0,0.0
3448,67.0,12,210,7.0,0.0
3449,45.0,6,120,10.0,0.0
3450,45.0,0,210,5.0,0.0
3451,57.0,0,120,10.0,0.0
3452,67.0,60,60,4.0,0.0
3453,69.0,42,60,4.0,0.0
3454,55.0,6,120,10.0,0.0
3455,43.0,0,120,10.0,0.0
3456,70.0,60,60,4.0,0.0
3457,73.0,54,60,4.0,0.0
3458,57.0,0,930,8.0,0.0
3459,45.0,0,120,10.0,0.0
3460,64.0,12,210,7.0,0.0
3461,57.0,6,120,10.0,0.0
3462,70.0,60,60,4.0,0.0
3463,58.0,0,120,10.0,0.0
3464,69.0,42,60,4.0,0.0
3465,46.0,6,120,10.0,0.0
3466,67.0,114,60,4.0,0.0
3467,57.0,0,120,10.0,0.0
3468,69.0,12,210,7.0,0.0
3469,45.0,6,120,10.0,0.0
3470,57.0,0,210,5.0,0.0
3471,67.0,60,60,4.0,0.0
3472,43.0,0,120,10.0,0.0
3473,69.0,42,60,4.0,0.0
3474,55.0,6,120,10.0,0.0
3475,70.0,60,60,4.0,0.0
3476,53.0,0,120,10.0,0.0
3477,67.0,12,210,7.0,0.0
3478,73.0,54,60,4.0,0.0
3479,41.0,6,120,10.0,0.0
3480,70.0,30,60,4.0,0.0
3481,40.0,0,120,10.0,0.0
3482,69.0,42,60,4.0,0.0
3483,52.0,6,120,10.0,0.0
3484,67.0,114,60,4.0,0.0
3485,50.0,6,120,10.0,0.0
3486,66.0,30,870,7.0,0.0
3487,72.0,0,210,6.0,0.0
3488,62.0,12,210,5.0,0.0
3489,38.0,0,120,10.0,0.0
3490,66.0,60,60,4.0,0.0
3491,36.0,0,120,10.0,0.0
3492,48.0,6,120,10.0,0.0
3493,67.0,42,60,4.0,0.0
3494,69.0,60,60,4.0,0.0
3495,69.0,12,210,6.0,0.0
3496,72.0,54,60,4.0,0.0
3497,38.0,0,120,10.0,0.0
3498,50.0,6,120,10.0,0.0
3499,62.0,0,930,8.0,0.0
3500,69.0,60,60,4.0,0.0
3501,40.0,6,120,10.0,0.0
3502,67.0,42,60,4.0,0.0
3503,52.0,0,120,10.0,0.0
3504,66.0,114,60,4.0,0.0
3505,50.0,12,210,5.0,0.0
3506,74.0,0,210,6.0,0.0
3507,38.0,6,120,10.0,0.0
3508,50.0,0,120,10.0,0.0
3509,66.0,60,60,4.0,0.0
3510,48.0,6,120,10.0,0.0
3511,36.0,0,120,10.0,0.0
3512,67.0,42,60,4.0,0.0
3513,69.0,60,60,4.0,0.0
3514,72.0,54,60,4.0,0.0
3515,47.0,0,120,10.0,0.0
3516,35.0,6,120,10.0,0.0
3517,72.0,12,210,6.0,0.0
3518,69.0,30,60,4.0,0.0
3519,33.0,0,120,10.0,0.0
3520,67.0,42,60,4.0,0.0
3521,45.0,6,120,10.0,0.0
3522,66.0,114,60,4.0,0.0
3523,71.0,30,870,6.0,0.0
3524,65.0,12,210,7.0,0.0
3525,43.0,0,210,5.0,0.0
3526,55.0,0,120,10.0,0.0
3527,43.0,6,120,10.0,0.0
3528,65.0,60,60,4.0,0.0
3529,67.0,42,60,4.0,0.0
3530,53.0,6,120,10.0,0.0
3531,41.0,0,120,10.0,0.0
3532,68.0,60,60,4.0,0.0
3533,71.0,54,60,4.0,0.0
3534,62.0,12,210,7.0,0.0
3535,43.0,6,120,10.0,0.0
3536,55.0,12,930,8.0,0.0
3537,55.0,0,120,10.0,0.0
3538,68.0,60,60,4.0,0.0
3539,67.0,42,60,4.0,0.0
3540,57.0,0,120,10.0,0.0
3541,45.0,6,120,10.0,0.0
3542,65.0,114,60,4.0,0.0
3543,67.0,0,210,7.0,0.0
3544,55.0,12,210,5.0,0.0
3545,43.0,0,120,10.0,0.0
3546,55.0,6,120,10.0,0.0
3547,65.0,60,60,4.0,0.0
3548,67.0,42,60,4.0,0.0
3549,41.0,6,120,10.0,0.0
3550,53.0,0,120,10.0,0.0
3551,68.0,60,60,4.0,0.0
3552,40.0,6,120,10.0,0.0
3553,71.0,54,60,4.0,0.0
3554,65.0,12,210,7.0,0.0
3555,52.0,0,120,10.0,0.0
3556,68.0,30,60,4.0,0.0
3557,38.0,6,120,10.0,0.0
3558,50.0,0,120,10.0,0.0
3559,67.0,42,60,4.0,0.0
3560,65.0,114,60,4.0,0.0
3561,36.0,6,120,10.0,0.0
3562,70.0,0,210,6.0,0.0
3563,64.0,0,1170,7.0,0.0
3564,60.0,0,210,5.0,0.0
3565,48.0,0,120,10.0,0.0
3566,64.0,60,60,4.0,0.0
3567,47.0,0,120,10.0,0.0
3568,65.0,42,60,4.0,0.0
3569,35.0,6,120,10.0,0.0
3570,67.0,60,60,4.0,0.0
3571,70.0,54,60,4.0,0.0
3572,67.0,12,210,6.0,0.0
3573,48.0,0,120,10.0,0.0
3574,60.0,6,660,8.0,0.0
3575,36.0,6,120,10.0,0.0
3576,67.0,60,60,4.0,0.0
3577,65.0,42,60,4.0,0.0
3578,38.0,6,120,10.0,0.0
3579,50.0,0,120,10.0,0.0
3580,64.0,114,60,4.0,0.0
3581,72.0,0,210,6.0,0.0
3582,36.0,6,120,10.0,0.0
3583,48.0,0,120,10.0,0.0
3584,48.0,12,210,5.0,0.0
3585,64.0,60,60,4.0,0.0
3586,65.0,42,60,4.0,0.0
3587,46.0,0,120,10.0,0.0
3588,34.0,6,120,10.0,0.0
3589,67.0,60,60,4.0,0.0
3590,70.0,54,60,4.0,0.0
3591,33.0,6,120,10.0,0.0
3592,45.0,0,120,10.0,0.0
3593,70.0,12,210,6.0,0.0
3594,67.0,54,60,4.0,0.0
3595,65.0,42,60,4.0,0.0
3596,31.0,6,120,10.0,0.0
3597,43.0,0,120,10.0,0.0
3598,64.0,114,60,4.0,0.0
3599,60.0,12,210,8.0,0.0
3600,42.0,0,210,5.0,0.0
3601,42.0,0,120,10.0,0.0
3602,54.0,6,120,10.0,0.0
3603,69.0,0,1170,6.0,0.0
3604,64.0,60,60,4.0,0.0
3605,66.0,42,60,4.0,0.0
3606,52.0,0,120,10.0,0.0
3607,40.0,6,120,10.0,0.0
3608,67.0,60,60,4.0,0.0
3609,61.0,12,210,7.0,0.0
3610,54.0,12,930,8.0,0.0
3611,69.0,54,60,4.0,0.0
3612,42.0,0,120,10.0,0.0
3613,54.0,6,120,10.0,0.0
3614,67.0,60,60,4.0,0.0
3615,66.0,42,60,4.0,0.0
3616,55.0,6,120,10.0,0.0
3617,43.0,0,120,10.0,0.0
3618,64.0,114,60,4.0,0.0
3619,54.0,0,120,10.0,0.0
3620,66.0,12,210,7.0,0.0
3621,54.0,0,210,5.0,0.0
3622,42.0,6,120,10.0,0.0
3623,64.0,60,60,4.0,0.0
3624,66.0,42,60,4.0,0.0
3625,52.0,0,120,10.0,0.0
3626,40.0,6,120,10.0,0.0
3627,67.0,60,60,4.0,0.0
3628,69.0,54,60,4.0,0.0
3629,51.0,0,120,10.0,0.0
3630,64.0,12,210,7.0,0.0
3631,39.0,6,120,10.0,0.0
3632,67.0,60,60,4.0,0.0
3633,37.0,0,120,10.0,0.0
3634,49.0,6,120,10.0,0.0
3635,66.0,42,60,4.0,0.0
3636,64.0,114,60,4.0,0.0
3637,35.0,0,120,10.0,0.0
3638,59.0,0,210,5.0,0.0
3639,47.0,6,120,10.0,0.0
3640,63.0,30,870,7.0,0.0
3641,63.0,60,60,4.0,0.0
3642,64.0,42,60,4.0,0.0
3643,33.0,0,120,10.0,0.0
3644,45.0,6,120,10.0,0.0
3645,66.0,60,60,4.0,0.0
3646,59.0,108,840,8.0,0.0
3647,47.0,6,120,10.0,0.0
3648,69.0,54,60,4.0,0.0
3649,35.0,0,120,10.0,0.0
3650,66.0,12,210,6.0,0.0
3651,66.0,60,60,4.0,0.0
3652,64.0,42,60,4.0,0.0
3653,48.0,6,120,10.0,0.0
3654,36.0,0,120,10.0,0.0
3655,63.0,114,60,4.0,0.0
3656,35.0,0,120,10.0,0.0
3657,47.0,6,120,10.0,0.0
3658,47.0,0,210,5.0,0.0
3659,71.0,12,210,6.0,0.0
3660,63.0,60,60,4.0,0.0
3661,33.0,6,120,10.0,0.0
3662,64.0,42,60,4.0,0.0
3663,45.0,0,120,10.0,0.0
3664,66.0,60,60,4.0,0.0
3665,43.0,0,120,10.0,0.0
3666,69.0,12,210,6.0,0.0
3667,31.0,6,120,10.0,0.0
3668,69.0,54,60,4.0,0.0
3669,66.0,30,60,4.0,0.0
3670,30.0,6,120,10.0,0.0
3671,42.0,0,120,10.0,0.0
3672,64.0,42,60,4.0,0.0
3673,63.0,114,60,4.0,0.0
3674,40.0,0,210,5.0,0.0
3675,64.0,0,210,4.0,0.0
3676,64.0,0,210,7.0,0.0
3677,52.0,0,870,10.0,0.0
3678,67.0,12,210,6.0,0.0
3679,40.0,72,870,10.0,0.0
3680,57.0,120,120,8.0,0.0
3681,52.0,0,120,5.0,0.0
3682,71.0,12,210,6.0,0.0
3683,55.0,108,120,4.0,0.0
3684,67.0,0,210,2.0,0.0
3685,52.0,0,120,1.0,0.0
3686,67.0,0,210,7.0,0.0
3687,71.0,0,210,0.0,0.0
3688,52.0,0,120,3.0,0.0
3689,55.0,0,120,8.0,0.0
3690,51.0,0,120,1.0,0.0
3691,51.0,0,120,5.0,0.0
3692,54.0,0,120,8.0,0.0
3693,54.0,120,120,4.0,0.0
3694,51.0,0,120,3.0,0.0
3695,55.0,0,120,4.0,0.0
3696,71.0,0,210,2.0,0.0
3697,55.0,108,120,8.0,0.0
3698,52.0,0,120,3.0,0.0
3699,52.0,0,120,5.0,0.0
3700,52.0,0,120,1.0,0.0
3701,67.0,12,210,0.0,0.0
3702,67.0,0,210,6.0,0.0
3703,71.0,0,210,7.0,0.0
3704,54.0,0,120,3.0,0.0
3705,54.0,0,120,1.0,0.0
3706,57.0,120,120,4.0,0.0
3707,57.0,0,120,8.0,0.0
3708,54.0,0,120,5.0,0.0
3709,67.0,0,210,2.0,0.0
3710,55.0,0,120,5.0,0.0
3711,59.0,0,120,8.0,0.0
3712,55.0,36,120,1.0,0.0
3713,59.0,0,120,4.0,0.0
3714,55.0,0,120,3.0,0.0
3715,64.0,0,210,6.0,0.0
3716,64.0,0,210,0.0,0.0
3717,67.0,12,210,7.0,0.0
3718,60.0,0,120,8.0,0.0
3719,57.0,0,120,3.0,0.0
3720,57.0,120,120,1.0,0.0
3721,60.0,0,120,4.0,0.0
3722,57.0,0,120,5.0,0.0
3723,59.0,0,120,5.0,0.0
3724,59.0,0,120,1.0,0.0
3725,66.0,12,210,2.0,0.0
3726,50.0,72,870,10.0,0.0
3727,62.0,0,120,8.0,0.0
3728,62.0,108,120,4.0,0.0
3729,38.0,0,870,10.0,0.0
3730,59.0,0,120,3.0,0.0
3731,66.0,0,210,7.0,0.0
3732,57.0,0,120,5.0,0.0
3733,60.0,0,120,8.0,0.0
3734,60.0,0,120,4.0,0.0
3735,57.0,120,120,3.0,0.0
3736,57.0,0,120,1.0,0.0
3737,59.0,0,120,3.0,0.0
3738,59.0,0,120,5.0,0.0
3739,59.0,0,210,7.0,0.0
3740,62.0,0,120,4.0,0.0
3741,71.0,0,120,2.0,0.0
3742,62.0,0,120,8.0,0.0
3743,59.0,108,120,1.0,0.0
3744,78.0,0,210,0.0,0.0
3745,78.0,12,210,6.0,0.0
3746,60.0,0,120,5.0,0.0
3747,64.0,0,120,4.0,0.0
3748,64.0,0,120,8.0,0.0
3749,69.0,0,120,2.0,0.0
3750,60.0,0,120,1.0,0.0
3751,60.0,120,120,3.0,0.0
3752,66.0,0,120,4.0,0.0
3753,66.0,0,120,8.0,0.0
3754,71.0,12,690,7.0,0.0
3755,62.0,108,120,3.0,0.0
3756,62.0,0,120,1.0,0.0
3757,74.0,0,210,6.0,0.0
3758,62.0,0,120,5.0,0.0
3759,74.0,12,210,0.0,0.0
3760,71.0,0,600,2.0,0.0
3761,64.0,0,120,8.0,0.0
3762,60.0,120,120,5.0,0.0
3763,60.0,0,120,1.0,0.0
3764,64.0,0,120,4.0,0.0
3765,60.0,0,120,3.0,0.0
3766,66.0,0,120,4.0,0.0
3767,71.0,0,210,0.0,0.0
3768,66.0,0,120,8.0,0.0
3769,62.0,0,120,3.0,0.0
3770,62.0,36,120,5.0,0.0
3771,71.0,12,210,6.0,0.0
3772,62.0,0,120,1.0,0.0
3773,62.0,0,120,8.0,0.0
3774,59.0,0,120,5.0,0.0
3775,59.0,0,120,3.0,0.0
3776,64.0,0,120,4.0,0.0
3777,59.0,120,120,1.0,0.0
3778,64.0,108,120,1.0,0.0
3779,64.0,0,120,5.0,0.0
3780,67.0,0,120,4.0,0.0
3781,67.0,0,120,8.0,0.0
3782,64.0,0,120,3.0,0.0
3783,36.0,0,870,10.0,0.0
3784,48.0,72,870,10.0,0.0
3785,66.0,120,120,8.0,0.0
3786,63.0,0,120,5.0,0.0
3787,63.0,0,120,3.0,0.0
3788,66.0,0,120,4.0,0.0
3789,63.0,0,120,1.0,0.0
3790,72.0,0,120,2.0,0.0
3791,67.0,0,120,8.0,0.0
3792,67.0,0,120,4.0,0.0
3793,76.0,108,120,0.0,0.0
3794,71.0,0,120,2.0,0.0
3795,64.0,0,120,1.0,0.0
3796,64.0,0,120,3.0,0.0
3797,64.0,12,210,7.0,0.0
3798,64.0,0,120,5.0,0.0
3799,76.0,0,120,6.0,0.0
3800,69.0,0,120,2.0,0.0
3801,66.0,0,120,5.0,0.0
3802,75.0,0,120,6.0,0.0
3803,69.0,120,120,4.0,0.0
3804,66.0,0,120,1.0,0.0
3805,69.0,0,120,8.0,0.0
3806,66.0,0,120,3.0,0.0
3807,75.0,0,120,0.0,0.0
3808,71.0,0,120,4.0,0.0
3809,76.0,0,120,0.0,0.0
3810,67.0,0,120,2.0,0.0
3811,64.0,0,120,3.0,0.0
3812,76.0,0,120,6.0,0.0
3813,64.0,0,120,1.0,0.0
3814,64.0,0,120,5.0,0.0
3815,71.0,120,120,8.0,0.0
3816,76.0,0,120,7.0,0.0
3817,69.0,0,120,4.0,0.0
3818,75.0,0,120,7.0,0.0
3819,67.0,0,120,3.0,0.0
3820,69.0,0,120,8.0,0.0
3821,67.0,0,120,5.0,0.0
3822,78.0,120,120,6.0,0.0
3823,67.0,0,120,1.0,0.0
3824,71.0,0,120,2.0,0.0
3825,78.0,0,120,0.0,0.0
3826,79.0,0,120,0.0,0.0
3827,76.0,0,210,2.0,0.0
3828,76.0,12,210,7.0,0.0
3829,71.0,0,120,8.0,0.0
3830,79.0,36,120,6.0,0.0
3831,66.0,0,120,5.0,0.0
3832,66.0,0,120,1.0,0.0
3833,71.0,0,120,4.0,0.0
3834,66.0,0,120,3.0,0.0
3835,72.0,0,120,8.0,0.0
3836,64.0,0,120,1.0,0.0
3837,64.0,0,120,5.0,0.0
3838,81.0,0,120,0.0,0.0
3839,72.0,120,120,4.0,0.0
3840,64.0,0,120,3.0,0.0
3841,81.0,0,120,6.0,0.0
3842,78.0,0,120,7.0,0.0
3843,47.0,12,210,10.0,0.0
3844,66.0,0,120,4.0,0.0
3845,63.0,0,120,1.0,0.0
3846,63.0,0,120,5.0,0.0
3847,63.0,0,120,3.0,0.0
3848,66.0,0,210,8.0,0.0
3849,78.0,108,120,2.0,0.0
3850,83.0,0,120,6.0,0.0
3851,35.0,0,210,10.0,0.0
3852,83.0,0,120,0.0,0.0
3853,66.0,0,120,5.0,0.0
3854,66.0,0,120,3.0,0.0
3855,78.0,0,120,0.0,0.0
3856,71.0,120,120,4.0,0.0
3857,75.0,0,120,2.0,0.0
3858,66.0,0,120,1.0,0.0
3859,75.0,0,120,7.0,0.0
3860,78.0,0,120,6.0,0.0
3861,75.0,0,120,6.0,0.0
3862,59.0,0,120,5.0,0.0
3863,75.0,0,120,4.0,0.0
3864,78.0,0,120,7.0,0.0
3865,71.0,24,420,8.0,0.0
3866,47.0,0,120,10.0,0.0
3867,59.0,0,120,10.0,0.0
3868,78.0,0,120,2.0,0.0
3869,75.0,0,120,0.0,0.0
3870,59.0,120,120,3.0,0.0
3871,59.0,0,120,1.0,0.0
3872,83.0,0,120,2.0,0.0
3873,57.0,0,120,10.0,0.0
3874,63.0,0,120,5.0,0.0
3875,83.0,120,120,7.0,0.0
3876,45.0,0,120,10.0,0.0
3877,71.0,0,120,4.0,0.0
3878,63.0,0,120,1.0,0.0
3879,63.0,0,120,3.0,0.0
3880,78.0,0,120,6.0,0.0
3881,78.0,0,120,0.0,0.0
3882,64.0,0,120,5.0,0.0
3883,55.0,0,210,10.0,0.0
3884,71.0,12,210,2.0,0.0
3885,64.0,0,120,1.0,0.0
3886,76.0,84,120,4.0,0.0
3887,83.0,108,600,6.0,0.0
3888,64.0,0,120,3.0,0.0
3889,43.0,0,210,10.0,0.0
3890,76.0,0,210,7.0,0.0
3891,83.0,0,600,0.0,0.0
3892,71.0,120,120,4.0,0.0
3893,67.0,0,120,1.0,0.0
3894,67.0,0,120,5.0,0.0
3895,67.0,0,120,3.0,0.0
3896,59.0,0,120,1.0,0.0
3897,79.0,0,210,7.0,0.0
3898,59.0,0,120,5.0,0.0
3899,67.0,108,120,4.0,0.0
3900,79.0,0,210,2.0,0.0
3901,40.0,0,210,10.0,0.0
3902,67.0,0,210,8.0,0.0
3903,52.0,12,210,10.0,0.0
3904,59.0,0,120,3.0,0.0
3905,62.0,0,120,3.0,0.0
3906,62.0,120,120,5.0,0.0
3907,62.0,0,120,1.0,0.0
3908,71.0,0,120,4.0,0.0
3909,79.0,12,210,7.0,0.0
3910,60.0,0,120,3.0,0.0
3911,60.0,0,120,1.0,0.0
3912,57.0,0,210,10.0,0.0
3913,64.0,0,120,4.0,0.0
3914,45.0,0,210,10.0,0.0
3915,64.0,0,210,8.0,0.0
3916,60.0,0,120,5.0,0.0
3917,79.0,0,210,2.0,0.0
3918,76.0,120,120,0.0,0.0
3919,67.0,0,120,4.0,0.0
3920,64.0,0,120,5.0,0.0
3921,64.0,0,120,3.0,0.0
3922,64.0,0,120,1.0,0.0
3923,76.0,0,120,6.0,0.0
3924,72.0,0,120,6.0,0.0
3925,43.0,12,210,10.0,0.0
3926,72.0,108,120,0.0,0.0
3927,72.0,0,360,4.0,0.0
3928,55.0,0,210,10.0,0.0
3929,57.0,0,120,5.0,0.0
3930,78.0,0,120,2.0,0.0
3931,57.0,0,120,3.0,0.0
3932,69.0,24,420,8.0,0.0
3933,57.0,0,120,1.0,0.0
3934,78.0,0,120,7.0,0.0
3935,76.0,0,120,2.0,0.0
3936,76.0,0,120,7.0,0.0
3937,76.0,0,120,0.0,0.0
3938,76.0,0,120,6.0,0.0
3939,60.0,0,120,5.0,0.0
3940,60.0,120,120,3.0,0.0
3941,60.0,0,120,1.0,0.0
3942,78.0,0,210,2.0,0.0
3943,62.0,84,120,5.0,0.0
3944,81.0,0,600,6.0,0.0
3945,62.0,0,120,1.0,0.0
3946,42.0,0,210,10.0,0.0
3947,54.0,0,210,10.0,0.0
3948,81.0,0,600,0.0,0.0
3949,62.0,0,120,3.0,0.0
3950,78.0,12,210,7.0,0.0
3951,69.0,0,120,4.0,0.0
3952,66.0,0,120,3.0,0.0
3953,66.0,120,120,5.0,0.0
3954,66.0,0,120,1.0,0.0
3955,66.0,108,120,4.0,0.0
3956,38.0,0,210,10.0,0.0
3957,78.0,0,210,7.0,0.0
3958,57.0,0,120,3.0,0.0
3959,66.0,0,210,8.0,0.0
3960,57.0,0,120,1.0,0.0
3961,50.0,0,210,10.0,0.0
3962,78.0,12,210,2.0,0.0
3963,57.0,0,120,5.0,0.0
3964,60.0,0,120,3.0,0.0
3965,60.0,120,120,5.0,0.0
3966,60.0,0,120,1.0,0.0
3967,69.0,0,120,4.0,0.0
3968,62.0,0,120,4.0,0.0
3969,62.0,12,210,8.0,0.0
3970,78.0,0,210,7.0,0.0
3971,59.0,0,120,5.0,0.0
3972,59.0,108,120,3.0,0.0
3973,59.0,0,120,1.0,0.0
3974,78.0,0,210,2.0,0.0
3975,62.0,0,120,5.0,0.0
3976,66.0,120,120,4.0,0.0
3977,62.0,0,120,1.0,0.0
3978,62.0,0,120,3.0,0.0
3979,74.0,0,120,6.0,0.0
3980,74.0,0,120,0.0,0.0
3981,55.0,0,120,5.0,0.0
3982,71.0,0,360,4.0,0.0
3983,43.0,0,120,10.0,0.0
3984,55.0,0,120,1.0,0.0
3985,67.0,24,420,8.0,0.0
3986,55.0,0,120,10.0,0.0
3987,76.0,0,120,2.0,0.0
3988,76.0,0,120,7.0,0.0
3989,71.0,0,120,6.0,0.0
3990,55.0,120,120,3.0,0.0
3991,71.0,0,120,0.0,0.0
3992,42.0,0,120,10.0,0.0
3993,75.0,0,120,7.0,0.0
3994,59.0,0,120,5.0,0.0
3995,54.0,0,120,10.0,0.0
3996,74.0,0,120,0.0,0.0
3997,59.0,0,120,3.0,0.0
3998,59.0,120,120,1.0,0.0
3999,74.0,0,120,6.0,0.0
4000,75.0,0,120,2.0,0.0
4001,60.0,84,120,1.0,0.0
4002,52.0,0,210,10.0,0.0
4003,79.0,0,600,6.0,0.0
4004,60.0,0,120,5.0,0.0
4005,76.0,0,210,7.0,0.0
4006,60.0,0,120,3.0,0.0
4007,76.0,12,210,2.0,0.0
4008,79.0,0,600,0.0,0.0
4009,40.0,0,210,10.0,0.0
4010,67.0,0,120,4.0,0.0
4011,64.0,120,120,5.0,0.0
4012,64.0,0,120,3.0,0.0
4013,64.0,0,120,1.0,0.0
4014,48.0,0,210,10.0,0.0
4015,55.0,108,120,3.0,0.0
4016,76.0,0,210,7.0,0.0
4017,55.0,0,120,5.0,0.0
4018,76.0,0,210,2.0,0.0
4019,64.0,12,210,8.0,0.0
4020,36.0,0,210,10.0,0.0
4021,64.0,0,120,4.0,0.0
4022,55.0,0,120,1.0,0.0
4023,59.0,120,120,5.0,0.0
4024,59.0,0,120,1.0,0.0
4025,59.0,0,120,3.0,0.0
4026,67.0,0,120,4.0,0.0
4027,57.0,0,120,5.0,0.0
4028,57.0,0,120,1.0,0.0
4029,76.0,12,210,7.0,0.0
4030,42.0,0,210,10.0,0.0
4031,76.0,0,210,2.0,0.0
4032,57.0,0,120,3.0,0.0
4033,54.0,0,210,10.0,0.0
4034,60.0,108,120,4.0,0.0
4035,60.0,0,210,8.0,0.0
4036,60.0,0,120,3.0,0.0
4037,72.0,0,120,0.0,0.0
4038,64.0,120,120,4.0,0.0
4039,72.0,0,120,6.0,0.0
4040,60.0,0,120,1.0,0.0
4041,60.0,0,120,5.0,0.0
4042,52.0,0,210,10.0,0.0
4043,69.0,0,360,4.0,0.0
4044,69.0,0,120,6.0,0.0
4045,74.0,0,120,7.0,0.0
4046,40.0,12,210,10.0,0.0
4047,54.0,0,120,3.0,0.0
4048,54.0,0,120,5.0,0.0
4049,69.0,0,120,0.0,0.0
4050,66.0,36,420,8.0,0.0
4051,74.0,108,120,2.0,0.0
4052,54.0,0,120,1.0,0.0
4053,72.0,0,120,6.0,0.0
4054,57.0,0,120,5.0,0.0
4055,57.0,0,120,1.0,0.0
4056,73.0,0,120,7.0,0.0
4057,72.0,120,120,0.0,0.0
4058,57.0,0,120,3.0,0.0
4059,73.0,0,120,2.0,0.0
4060,50.0,12,690,10.0,0.0
4061,74.0,0,120,7.0,0.0
4062,59.0,0,120,3.0,0.0
4063,59.0,0,120,1.0,0.0
4064,59.0,84,120,5.0,0.0
4065,74.0,0,120,2.0,0.0
4066,78.0,0,120,6.0,0.0
4067,78.0,0,120,0.0,0.0
4068,38.0,0,690,10.0,0.0
4069,62.0,0,120,1.0,0.0
4070,62.0,0,120,5.0,0.0
4071,62.0,0,120,3.0,0.0
4072,78.0,120,120,2.0,0.0
4073,74.0,0,120,6.0,0.0
4074,78.0,0,120,7.0,0.0
4075,66.0,0,120,4.0,0.0
4076,74.0,0,120,0.0,0.0
4077,71.0,108,120,6.0,0.0
4078,62.0,12,210,8.0,0.0
4079,54.0,0,120,3.0,0.0
4080,54.0,0,120,5.0,0.0
4081,54.0,0,120,1.0,0.0
4082,62.0,0,120,4.0,0.0
4083,71.0,0,120,0.0,0.0
4084,83.0,0,360,7.0,0.0
4085,83.0,0,360,2.0,0.0
4086,57.0,120,120,1.0,0.0
4087,66.0,0,120,4.0,0.0
4088,74.0,0,120,6.0,0.0
4089,57.0,0,120,5.0,0.0
4090,74.0,0,120,0.0,0.0
4091,57.0,0,120,3.0,0.0
4092,56.0,108,120,1.0,0.0
4093,76.0,0,210,0.0,0.0
4094,56.0,0,120,5.0,0.0
4095,56.0,0,120,3.0,0.0
4096,59.0,0,120,4.0,0.0
4097,59.0,0,210,8.0,0.0
4098,76.0,0,210,6.0,0.0
4099,59.0,0,120,5.0,0.0
4100,59.0,0,120,1.0,0.0
4101,59.0,0,120,3.0,0.0
4102,80.0,0,120,2.0,0.0
4103,64.0,0,120,4.0,0.0
4104,80.0,120,120,7.0,0.0
4105,68.0,0,120,4.0,0.0
4106,76.0,0,120,2.0,0.0
4107,64.0,12,210,6.0,0.0
4108,52.0,0,120,3.0,0.0
4109,68.0,0,210,8.0,0.0
4110,52.0,0,120,1.0,0.0
4111,52.0,0,120,5.0,0.0
4112,52.0,108,120,10.0,0.0
4113,64.0,0,210,0.0,0.0
4114,76.0,0,120,7.0,0.0
4115,40.0,0,120,10.0,0.0
4116,71.0,0,120,7.0,0.0
4117,56.0,120,120,1.0,0.0
4118,56.0,0,120,5.0,0.0
4119,71.0,0,120,2.0,0.0
4120,56.0,0,120,3.0,0.0
4121,50.0,0,120,10.0,0.0
4122,71.0,0,120,4.0,0.0
4123,38.0,0,120,10.0,0.0
4124,76.0,0,600,0.0,0.0
4125,57.0,0,120,3.0,0.0
4126,64.0,0,210,8.0,0.0
4127,64.0,0,120,4.0,0.0
4128,57.0,0,120,1.0,0.0
4129,72.0,0,120,7.0,0.0
4130,76.0,0,600,6.0,0.0
4131,72.0,0,120,2.0,0.0
4132,48.0,0,210,10.0,0.0
4133,57.0,108,120,5.0,0.0
4134,36.0,12,210,10.0,0.0
4135,76.0,120,120,7.0,0.0
4136,76.0,0,120,2.0,0.0
4137,60.0,0,120,5.0,0.0
4138,60.0,0,120,3.0,0.0
4139,69.0,0,120,4.0,0.0
4140,60.0,0,120,1.0,0.0
4141,52.0,0,120,3.0,0.0
4142,72.0,0,120,4.0,0.0
4143,48.0,12,210,10.0,0.0
4144,36.0,0,210,10.0,0.0
4145,69.0,0,120,2.0,0.0
4146,60.0,0,210,8.0,0.0
4147,52.0,0,120,1.0,0.0
4148,52.0,0,120,5.0,0.0
4149,69.0,108,120,7.0,0.0
4150,72.0,0,120,7.0,0.0
4151,57.0,120,120,5.0,0.0
4152,76.0,0,120,4.0,0.0
4153,57.0,0,120,1.0,0.0
4154,57.0,0,120,3.0,0.0
4155,72.0,0,120,2.0,0.0
4156,56.0,108,120,5.0,0.0
4157,71.0,0,120,2.0,0.0
4158,44.0,12,210,10.0,0.0
4159,56.0,0,120,3.0,0.0
4160,64.0,0,120,4.0,0.0
4161,32.0,0,210,10.0,0.0
4162,56.0,0,120,1.0,0.0
4163,62.0,0,210,8.0,0.0
4164,71.0,0,120,7.0,0.0
4165,74.0,0,120,7.0,0.0
4166,77.0,0,120,6.0,0.0
4167,59.0,0,120,5.0,0.0
4168,74.0,0,120,2.0,0.0
4169,68.0,0,120,4.0,0.0
4170,77.0,120,120,0.0,0.0
4171,59.0,0,120,1.0,0.0
4172,59.0,0,120,3.0,0.0
4173,71.0,0,210,8.0,0.0
4174,52.0,0,120,3.0,0.0
4175,44.0,0,210,10.0,0.0
4176,68.0,0,120,7.0,0.0
4177,32.0,12,210,10.0,0.0
4178,71.0,108,120,4.0,0.0
4179,76.0,0,120,6.0,0.0
4180,76.0,0,120,0.0,0.0
4181,52.0,0,120,1.0,0.0
4182,68.0,0,120,2.0,0.0
4183,52.0,0,120,5.0,0.0
4184,68.0,0,120,4.0,0.0
4185,77.0,120,120,0.0,0.0
4186,71.0,0,120,7.0,0.0
4187,56.0,0,120,5.0,0.0
4188,77.0,0,120,6.0,0.0
4189,71.0,0,120,2.0,0.0
4190,56.0,0,120,3.0,0.0
4191,56.0,0,120,1.0,0.0
4192,57.0,0,120,3.0,0.0
4193,45.0,0,210,10.0,0.0
4194,72.0,0,120,7.0,0.0
4195,72.0,108,120,2.0,0.0
4196,57.0,0,120,1.0,0.0
4197,57.0,0,120,5.0,0.0
4198,33.0,0,210,10.0,0.0
4199,69.0,12,210,8.0,0.0
4200,76.0,0,690,0.0,0.0
4201,76.0,0,690,6.0,0.0
4202,64.0,0,120,4.0,0.0
4203,60.0,120,120,1.0,0.0
4204,76.0,0,120,2.0,0.0
4205,60.0,0,120,5.0,0.0
4206,69.0,0,120,4.0,0.0
4207,60.0,0,120,3.0,0.0
4208,76.0,0,120,7.0,0.0
4209,60.0,0,210,8.0,0.0
4210,69.0,108,120,7.0,0.0
4211,52.0,0,120,1.0,0.0
4212,72.0,0,120,4.0,0.0
4213,33.0,0,210,10.0,0.0
4214,69.0,0,120,2.0,0.0
4215,52.0,0,120,3.0,0.0
4216,52.0,0,120,5.0,0.0
4217,45.0,12,210,10.0,0.0
4218,57.0,228,120,1.0,0.0
4219,57.0,0,120,3.0,0.0
4220,72.0,0,120,2.0,0.0
4221,57.0,0,120,5.0,0.0
4222,72.0,0,120,7.0,0.0
4223,76.0,0,120,4.0,0.0
4224,64.0,0,210,4.0,0.0
4225,64.0,0,210,8.0,0.0
4226,40.0,0,210,10.0,0.0
4227,56.0,0,210,1.0,0.0
4228,56.0,0,210,5.0,0.0
4229,71.0,96,210,7.0,0.0
4230,52.0,0,210,10.0,0.0
4231,71.0,0,210,2.0,0.0
4232,56.0,0,210,3.0,0.0
4233,40.0,0,420,10.0,0.0
4234,28.0,40,420,10.0,0.0
4235,71.0,80,60,4.0,0.0
4236,56.0,0,60,5.0,0.0
4237,69.0,0,60,4.0,0.0
4238,54.0,80,60,5.0,0.0
4239,71.0,0,60,4.0,0.0
4240,56.0,80,60,5.0,0.0
4241,72.0,0,60,4.0,0.0
4242,57.0,80,60,5.0,0.0
4243,71.0,0,60,4.0,0.0
4244,56.0,40,60,5.0,0.0
4245,72.0,80,60,4.0,0.0
4246,57.0,0,60,5.0,0.0
4247,74.0,80,60,4.0,0.0
4248,59.0,0,60,5.0,0.0
4249,38.0,16,210,10.0,0.0
4250,26.0,0,210,10.0,0.0
4251,57.0,0,60,5.0,0.0
4252,72.0,64,60,4.0,0.0
4253,59.0,0,60,5.0,0.0
4254,74.0,224,60,4.0,0.0
4255,76.0,80,540,4.0,0.0
4256,36.0,0,210,10.0,0.0
4257,24.0,96,210,10.0,0.0
4258,60.0,0,540,5.0,0.0
4259,69.0,0,210,8.0,0.0
4260,60.0,0,60,1.0,0.0
4261,36.0,0,210,10.0,0.0
4262,76.0,0,210,6.0,0.0
4263,76.0,0,60,0.0,0.0
4264,48.0,0,60,3.0,0.0
4265,76.0,24,420,7.0,0.0
4266,48.0,16,210,10.0,0.0
4267,76.0,80,60,2.0,0.0
4268,74.0,64,60,0.0,0.0
4269,74.0,0,60,2.0,0.0
4270,47.0,0,60,3.0,0.0
4271,59.0,0,60,1.0,0.0
4272,76.0,80,60,0.0,0.0
4273,48.0,0,60,3.0,0.0
4274,60.0,0,60,1.0,0.0
4275,76.0,0,60,2.0,0.0
4276,78.0,0,60,0.0,0.0
4277,78.0,0,210,6.0,0.0
4278,38.0,16,210,10.0,0.0
4279,78.0,0,60,2.0,0.0
4280,50.0,0,60,3.0,0.0
4281,57.0,0,210,8.0,0.0
4282,50.0,0,210,10.0,0.0
4283,62.0,0,60,1.0,0.0
4284,48.0,0,60,3.0,0.0
4285,62.0,40,60,5.0,0.0
4286,76.0,0,60,0.0,0.0
4287,60.0,0,60,1.0,0.0
4288,77.0,0,60,4.0,0.0
4289,76.0,0,60,2.0,0.0
4290,78.0,0,60,0.0,0.0
4291,62.0,0,60,1.0,0.0
4292,50.0,80,60,3.0,0.0
4293,60.0,0,60,5.0,0.0
4294,78.0,0,60,2.0,0.0
4295,76.0,0,60,4.0,0.0
4296,74.0,0,210,7.0,0.0
4297,80.0,0,60,2.0,0.0
4298,64.0,0,210,8.0,0.0
4299,64.0,80,60,1.0,0.0
4300,52.0,0,210,10.0,0.0
4301,80.0,0,60,0.0,0.0
4302,40.0,0,210,10.0,0.0
4303,52.0,0,60,3.0,0.0
4304,80.0,16,210,6.0,0.0
4305,59.0,0,60,5.0,0.0
4306,74.0,0,60,4.0,0.0
4307,60.0,0,60,5.0,0.0
4308,78.0,0,60,0.0,0.0
4309,62.0,64,60,1.0,0.0
4310,76.0,0,60,4.0,0.0
4311,78.0,0,60,2.0,0.0
4312,50.0,0,60,3.0,0.0
4313,80.0,0,60,2.0,0.0
4314,64.0,0,60,1.0,0.0
4315,52.0,0,60,3.0,0.0
4316,74.0,0,60,4.0,0.0
4317,59.0,0,60,5.0,0.0
4318,80.0,224,60,0.0,0.0
4319,81.0,0,210,2.0,0.0
4320,81.0,0,210,0.0,0.0
4321,72.0,0,210,4.0,0.0
4322,33.0,0,210,10.0,0.0
4323,57.0,0,210,1.0,0.0
4324,81.0,0,210,6.0,0.0
4325,72.0,0,210,7.0,0.0
4326,45.0,0,210,3.0,0.0
4327,45.0,96,210,10.0,0.0
4328,57.0,0,210,5.0,0.0
4329,64.0,0,210,8.0,0.0
4330,57.0,0,420,10.0,0.0
4331,45.0,40,420,10.0,0.0
4332,64.0,80,60,2.0,0.0
4333,48.0,0,60,3.0,0.0
4334,47.0,0,60,3.0,0.0
4335,62.0,80,60,2.0,0.0
4336,48.0,0,60,3.0,0.0
4337,64.0,80,60,2.0,0.0
4338,50.0,0,60,3.0,0.0
4339,65.0,80,60,2.0,0.0
4340,48.0,0,60,3.0,0.0
4341,64.0,40,60,2.0,0.0
4342,65.0,0,60,2.0,0.0
4343,50.0,80,60,3.0,0.0
4344,43.0,0,210,10.0,0.0
4345,55.0,16,210,10.0,0.0
4346,52.0,0,60,3.0,0.0
4347,67.0,80,60,2.0,0.0
4348,50.0,0,60,3.0,0.0
4349,65.0,64,60,2.0,0.0
4350,67.0,224,60,2.0,0.0
4351,52.0,0,60,3.0,0.0
4352,69.0,0,540,2.0,0.0
4353,53.0,0,540,3.0,0.0
4354,53.0,96,210,10.0,0.0
4355,41.0,0,210,10.0,0.0
4356,69.0,0,210,6.0,0.0
4357,41.0,0,210,10.0,0.0
4358,29.0,16,210,10.0,0.0
4359,69.0,0,60,0.0,0.0
4360,69.0,0,60,4.0,0.0
4361,41.0,0,60,5.0,0.0
4362,53.0,80,60,1.0,0.0
4363,69.0,24,420,7.0,0.0
4364,62.0,0,210,8.0,0.0
4365,67.0,0,60,4.0,0.0
4366,52.0,0,60,1.0,0.0
4367,40.0,64,60,5.0,0.0
4368,67.0,0,60,0.0,0.0
4369,53.0,0,60,1.0,0.0
4370,69.0,80,60,4.0,0.0
4371,41.0,0,60,5.0,0.0
4372,69.0,0,60,0.0,0.0
4373,50.0,0,210,8.0,0.0
4374,31.0,0,210,10.0,0.0
4375,71.0,80,60,4.0,0.0
4376,71.0,0,210,6.0,0.0
4377,43.0,16,210,10.0,0.0
4378,71.0,0,60,0.0,0.0
4379,55.0,0,60,1.0,0.0
4380,43.0,0,60,5.0,0.0
4381,55.0,0,60,3.0,0.0
4382,41.0,0,60,5.0,0.0
4383,69.0,0,60,0.0,0.0
4384,70.0,0,60,2.0,0.0
4385,53.0,0,60,1.0,0.0
4386,69.0,40,60,4.0,0.0
4387,71.0,80,60,4.0,0.0
4388,71.0,0,60,0.0,0.0
4389,53.0,0,60,3.0,0.0
4390,43.0,0,60,5.0,0.0
4391,55.0,0,60,1.0,0.0
4392,69.0,0,60,2.0,0.0
4393,73.0,0,210,6.0,0.0
4394,33.0,0,210,10.0,0.0
4395,73.0,0,60,4.0,0.0
4396,45.0,80,60,5.0,0.0
4397,45.0,0,210,10.0,0.0
4398,57.0,0,60,1.0,0.0
4399,73.0,0,60,0.0,0.0
4400,57.0,0,210,8.0,0.0
4401,67.0,0,60,2.0,0.0
4402,67.0,16,210,7.0,0.0
4403,52.0,0,60,3.0,0.0
4404,55.0,0,60,1.0,0.0
4405,53.0,0,60,3.0,0.0
4406,43.0,0,60,5.0,0.0
4407,69.0,64,60,2.0,0.0
4408,71.0,0,60,4.0,0.0
4409,71.0,0,60,0.0,0.0
4410,57.0,0,60,1.0,0.0
4411,52.0,0,60,3.0,0.0
4412,73.0,0,60,4.0,0.0
4413,73.0,224,60,0.0,0.0
4414,67.0,0,60,2.0,0.0
4415,45.0,0,60,5.0,0.0
4416,26.0,0,210,10.0,0.0
4417,74.0,0,210,6.0,0.0
4418,74.0,0,210,0.0,0.0
4419,66.0,0,210,7.0,0.0
4420,57.0,0,210,8.0,0.0
4421,50.0,0,210,1.0,0.0
4422,66.0,0,210,2.0,0.0
4423,38.0,0,210,10.0,0.0
4424,38.0,0,210,5.0,0.0
4425,50.0,96,210,3.0,0.0
4426,74.0,0,210,4.0,0.0
4427,50.0,40,420,10.0,0.0
4428,62.0,0,420,10.0,0.0
4429,57.0,0,60,3.0,0.0
4430,66.0,80,60,4.0,0.0
4431,62.0,0,60,5.0,0.0
4432,64.0,0,60,4.0,0.0
4433,60.0,0,60,5.0,0.0
4434,55.0,80,60,3.0,0.0
4435,62.0,0,60,5.0,0.0
4436,66.0,0,60,4.0,0.0
4437,57.0,80,60,3.0,0.0
4438,67.0,0,60,4.0,0.0
4439,64.0,0,60,5.0,0.0
4440,59.0,80,60,3.0,0.0
4441,66.0,0,60,4.0,0.0
4442,57.0,0,60,3.0,0.0
4443,62.0,40,60,5.0,0.0
4444,64.0,80,60,5.0,0.0
4445,59.0,0,60,3.0,0.0
4446,67.0,0,60,4.0,0.0
4447,60.0,0,210,10.0,0.0
4448,69.0,0,60,4.0,0.0
4449,66.0,0,60,5.0,0.0
4450,60.0,80,60,3.0,0.0
4451,48.0,16,210,10.0,0.0
4452,64.0,0,60,5.0,0.0
4453,59.0,0,60,3.0,0.0
4454,67.0,64,60,4.0,0.0
4455,66.0,224,60,5.0,0.0
4456,60.0,0,60,3.0,0.0
4457,69.0,0,60,4.0,0.0
4458,59.0,0,210,10.0,0.0
4459,71.0,80,540,4.0,0.0
4460,47.0,0,210,10.0,0.0
4461,62.0,0,540,3.0,0.0
4462,67.0,96,210,5.0,0.0
4463,74.0,0,60,0.0,0.0
4464,74.0,0,60,2.0,0.0
4465,71.0,24,420,7.0,0.0
4466,59.0,80,60,1.0,0.0
4467,35.0,16,210,10.0,0.0
4468,74.0,0,210,6.0,0.0
4469,47.0,0,210,10.0,0.0
4470,67.0,0,210,8.0,0.0
4471,47.0,0,60,5.0,0.0
4472,45.0,64,60,5.0,0.0
4473,72.0,0,60,2.0,0.0
4474,72.0,0,60,0.0,0.0
4475,57.0,0,60,1.0,0.0
4476,74.0,0,60,2.0,0.0
4477,47.0,80,60,5.0,0.0
4478,59.0,0,60,1.0,0.0
4479,74.0,0,60,0.0,0.0
4480,48.0,0,210,10.0,0.0
4481,76.0,0,60,2.0,0.0
4482,76.0,16,210,6.0,0.0
4483,60.0,0,60,1.0,0.0
4484,55.0,0,210,8.0,0.0
4485,76.0,0,60,0.0,0.0
4486,36.0,0,210,10.0,0.0
4487,48.0,0,60,5.0,0.0
4488,64.0,0,60,3.0,0.0
4489,59.0,0,60,1.0,0.0
4490,74.0,0,60,0.0,0.0
4491,47.0,0,60,5.0,0.0
4492,74.0,40,60,2.0,0.0
4493,72.0,0,60,4.0,0.0
4494,76.0,0,60,2.0,0.0
4495,62.0,80,60,3.0,0.0
4496,71.0,0,60,4.0,0.0
4497,48.0,0,60,5.0,0.0
4498,60.0,0,60,1.0,0.0
4499,76.0,0,60,0.0,0.0
4500,62.0,80,60,1.0,0.0
4501,38.0,0,210,10.0,0.0
4502,78.0,0,60,0.0,0.0
4503,78.0,0,60,2.0,0.0
4504,50.0,0,60,5.0,0.0
4505,62.0,16,210,8.0,0.0
4506,69.0,0,60,4.0,0.0
4507,60.0,0,60,3.0,0.0
4508,50.0,0,210,10.0,0.0
4509,78.0,0,210,6.0,0.0
4510,69.0,0,210,7.0,0.0
4511,62.0,0,60,3.0,0.0
4512,48.0,64,60,5.0,0.0
4513,71.0,0,60,4.0,0.0
4514,76.0,0,60,2.0,0.0
4515,76.0,0,60,0.0,0.0
4516,60.0,0,60,1.0,0.0
4517,62.0,0,60,1.0,0.0
4518,50.0,0,60,5.0,0.0
4519,69.0,0,60,4.0,0.0
4520,78.0,0,60,0.0,0.0
4521,60.0,224,60,3.0,0.0
4522,78.0,0,60,2.0,0.0
4523,31.0,0,210,10.0,0.0
4524,43.0,0,210,5.0,0.0
4525,59.0,0,210,3.0,0.0
4526,79.0,0,210,0.0,0.0
4527,67.0,0,210,4.0,0.0
4528,79.0,0,210,2.0,0.0
4529,62.0,0,210,8.0,0.0
4530,55.0,0,210,1.0,0.0
4531,67.0,96,210,7.0,0.0
4532,79.0,0,210,6.0,0.0
4533,43.0,0,210,10.0,0.0
4534,67.0,0,60,3.0,0.0
4535,71.0,80,60,2.0,0.0
4536,55.0,0,420,10.0,0.0
4537,62.0,0,60,1.0,0.0
4538,43.0,40,420,10.0,0.0
4539,60.0,0,60,1.0,0.0
4540,69.0,0,60,2.0,0.0
4541,65.0,80,60,3.0,0.0
4542,71.0,0,60,2.0,0.0
4543,67.0,0,60,3.0,0.0
4544,62.0,80,60,1.0,0.0
4545,69.0,0,60,3.0,0.0
4546,64.0,80,60,1.0,0.0
4547,72.0,0,60,2.0,0.0
4548,67.0,0,60,3.0,0.0
4549,71.0,40,60,2.0,0.0
4550,62.0,0,60,1.0,0.0
4551,72.0,0,60,2.0,0.0
4552,64.0,80,60,1.0,0.0
4553,69.0,0,60,3.0,0.0
4554,71.0,0,60,3.0,0.0
4555,65.0,80,60,1.0,0.0
4556,74.0,0,60,2.0,0.0
4557,41.0,16,210,10.0,0.0
4558,53.0,0,210,10.0,0.0
4559,72.0,0,60,2.0,0.0
4560,69.0,64,60,3.0,0.0
4561,64.0,0,60,1.0,0.0
4562,65.0,0,60,1.0,0.0
4563,71.0,224,60,3.0,0.0
4564,74.0,0,60,2.0,0.0
4565,52.0,0,210,10.0,0.0
4566,72.0,0,210,3.0,0.0
4567,76.0,0,540,2.0,0.0
4568,67.0,0,540,1.0,0.0
4569,40.0,96,210,10.0,0.0
4570,40.0,16,210,10.0,0.0
4571,52.0,80,60,3.0,0.0
4572,79.0,0,60,4.0,0.0
4573,79.0,0,210,6.0,0.0
4574,72.0,0,210,8.0,0.0
4575,76.0,24,420,7.0,0.0
4576,40.0,0,60,5.0,0.0
4577,79.0,0,60,0.0,0.0
4578,28.0,0,210,10.0,0.0
4579,77.0,0,60,4.0,0.0
4580,38.0,0,60,5.0,0.0
4581,50.0,0,60,3.0,0.0
4582,77.0,64,60,0.0,0.0
4583,40.0,0,60,5.0,0.0
4584,79.0,0,60,4.0,0.0
4585,79.0,0,60,0.0,0.0
4586,52.0,80,60,3.0,0.0
4587,41.0,0,60,5.0,0.0
4588,81.0,0,210,6.0,0.0
4589,81.0,0,60,4.0,0.0
4590,53.0,80,60,3.0,0.0
4591,81.0,0,60,0.0,0.0
4592,41.0,0,210,10.0,0.0
4593,60.0,16,210,8.0,0.0
4594,29.0,0,210,10.0,0.0
4595,40.0,0,60,5.0,0.0
4596,77.0,0,60,2.0,0.0
4597,52.0,0,60,3.0,0.0
4598,79.0,0,60,0.0,0.0
4599,79.0,0,60,4.0,0.0
4600,69.0,40,60,1.0,0.0
4601,41.0,80,60,5.0,0.0
4602,76.0,0,60,2.0,0.0
4603,81.0,0,60,0.0,0.0
4604,53.0,0,60,3.0,0.0
4605,81.0,0,60,4.0,0.0
4606,67.0,0,60,1.0,0.0
4607,83.0,80,60,0.0,0.0
4608,74.0,0,60,2.0,0.0
4609,65.0,0,60,1.0,0.0
4610,67.0,0,210,8.0,0.0
4611,74.0,16,210,7.0,0.0
4612,55.0,0,60,3.0,0.0
4613,83.0,0,210,6.0,0.0
4614,43.0,0,210,10.0,0.0
4615,31.0,0,210,10.0,0.0
4616,43.0,0,60,5.0,0.0
4617,83.0,0,60,4.0,0.0
4618,76.0,64,60,2.0,0.0
4619,67.0,0,60,1.0,0.0
4620,53.0,0,60,3.0,0.0
4621,81.0,0,60,0.0,0.0
4622,81.0,0,60,4.0,0.0
4623,41.0,0,60,5.0,0.0
4624,43.0,0,60,5.0,0.0
4625,83.0,80,60,4.0,0.0
4626,55.0,0,60,3.0,0.0
4627,74.0,0,60,2.0,0.0
4628,83.0,0,60,0.0,0.0
4629,65.0,0,60,1.0,0.0
4630,84.0,16,210,6.0,0.0
4631,36.0,0,150,5.0,0.0
4632,67.0,0,210,8.0,0.0
4633,84.0,0,210,4.0,0.0
4634,64.0,0,300,1.0,0.0
4635,72.0,80,60,2.0,0.0
4636,84.0,0,60,0.0,0.0
4637,72.0,54,150,7.0,0.0
4638,48.0,0,210,3.0,0.0
4639,24.0,0,210,10.0,0.0
4640,36.0,0,210,10.0,0.0
4641,76.0,10,60,2.0,0.0
4642,83.0,0,60,0.0,0.0
4643,84.0,2,60,0.0,0.0
4644,74.0,0,60,2.0,0.0
4645,55.0,78,60,5.0,0.0
4646,74.0,0,60,7.0,0.0
4647,48.0,16,210,10.0,0.0
4648,76.0,0,210,7.0,0.0
4649,60.0,54,390,5.0,0.0
4650,79.0,80,60,0.0,0.0
4651,36.0,0,210,10.0,0.0
4652,76.0,0,390,2.0,0.0
4653,81.0,0,60,0.0,0.0
4654,65.0,64,60,1.0,0.0
4655,67.0,0,60,1.0,0.0
4656,82.0,2,60,0.0,0.0
4657,79.0,78,60,4.0,0.0
4658,64.0,0,60,8.0,0.0
4659,79.0,0,60,6.0,0.0
4660,64.0,0,60,3.0,0.0
4661,41.0,16,210,10.0,0.0
4662,60.0,0,210,8.0,0.0
4663,53.0,0,210,10.0,0.0
4664,81.0,0,60,0.0,0.0
4665,81.0,0,210,6.0,0.0
4666,65.0,54,390,3.0,0.0
4667,81.0,0,390,4.0,0.0
4668,65.0,80,60,1.0,0.0
4669,79.0,10,60,0.0,0.0
4670,64.0,0,60,1.0,0.0
4671,81.0,2,60,0.0,0.0
4672,65.0,0,60,1.0,0.0
4673,72.0,0,60,2.0,0.0
4674,72.0,0,60,7.0,0.0
4675,57.0,78,60,5.0,0.0
4676,74.0,0,210,7.0,0.0
4677,35.0,16,210,10.0,0.0
4678,77.0,0,60,0.0,0.0
4679,62.0,80,60,1.0,0.0
4680,47.0,0,210,10.0,0.0
4681,59.0,0,390,5.0,0.0
4682,74.0,54,390,2.0,0.0
4683,79.0,10,60,0.0,0.0
4684,64.0,0,60,1.0,0.0
4685,65.0,0,60,1.0,0.0
4686,81.0,2,60,0.0,0.0
4687,77.0,0,60,4.0,0.0
4688,62.0,0,60,8.0,0.0
4689,77.0,78,60,6.0,0.0
4690,62.0,0,60,3.0,0.0
4691,79.0,0,60,0.0,0.0
4692,64.0,80,60,1.0,0.0
4693,59.0,0,210,8.0,0.0
4694,40.0,0,210,10.0,0.0
4695,64.0,0,390,3.0,0.0
4696,52.0,0,210,10.0,0.0
4697,79.0,54,390,4.0,0.0
4698,79.0,16,210,6.0,0.0
4699,77.0,0,60,0.0,0.0
4700,62.0,10,60,1.0,0.0
4701,79.0,2,60,0.0,0.0
4702,64.0,0,60,1.0,0.0
4703,55.0,78,60,5.0,0.0
4704,71.0,0,60,2.0,0.0
4705,71.0,0,60,7.0,0.0
4706,57.0,54,390,5.0,0.0
4707,33.0,16,210,10.0,0.0
4708,72.0,0,210,7.0,0.0
4709,60.0,80,60,1.0,0.0
4710,72.0,0,390,2.0,0.0
4711,76.0,0,60,0.0,0.0
4712,45.0,0,210,10.0,0.0
4713,77.0,0,60,0.0,0.0
4714,62.0,10,60,1.0,0.0
4715,64.0,0,60,1.0,0.0
4716,79.0,2,60,0.0,0.0
4717,60.0,0,60,3.0,0.0
4718,76.0,78,60,6.0,0.0
4719,76.0,0,60,4.0,0.0
4720,60.0,0,60,8.0,0.0
4721,77.0,0,60,0.0,0.0
4722,50.0,0,210,10.0,0.0
4723,77.0,0,210,6.0,0.0
4724,62.0,54,390,3.0,0.0
4725,77.0,0,390,4.0,0.0
4726,57.0,0,210,8.0,0.0
4727,62.0,80,60,1.0,0.0
4728,38.0,16,210,10.0,0.0
4729,76.0,0,60,0.0,0.0
4730,60.0,10,60,1.0,0.0
4731,77.0,0,60,0.0,0.0
4732,62.0,2,60,1.0,0.0
4733,69.0,0,60,7.0,0.0
4734,69.0,0,60,2.0,0.0
4735,53.0,78,60,5.0,0.0
4736,71.0,0,150,7.0,0.0
4737,43.0,16,210,10.0,0.0
4738,31.0,0,210,10.0,0.0
4739,55.0,0,390,5.0,0.0
4740,74.0,0,60,0.0,0.0
4741,71.0,0,210,2.0,0.0
4742,59.0,80,60,1.0,0.0
4743,76.0,10,60,0.0,0.0
4744,60.0,0,60,1.0,0.0
4745,62.0,0,60,1.0,0.0
4746,77.0,2,60,0.0,0.0
4747,55.0,0,60,8.0,0.0
4748,71.0,78,60,7.0,0.0
4749,55.0,0,60,3.0,0.0
4750,74.0,0,60,4.0,0.0
4751,74.0,0,60,6.0,0.0
4752,76.0,0,150,6.0,0.0
4753,76.0,24,660,4.0,0.0
4754,48.0,0,210,10.0,0.0
4755,67.0,0,210,8.0,0.0
4756,60.0,54,390,3.0,0.0
4757,72.0,0,150,2.0,0.0
4758,60.0,0,60,1.0,0.0
4759,76.0,80,60,0.0,0.0
4760,72.0,54,150,7.0,0.0
4761,36.0,16,210,10.0,0.0
4762,77.0,0,60,0.0,0.0
4763,55.0,10,60,1.0,0.0
4764,53.0,2,60,1.0,0.0
4765,79.0,0,60,0.0,0.0
4766,59.0,0,60,5.0,0.0
4767,67.0,0,60,7.0,0.0
4768,67.0,78,60,2.0,0.0
4769,72.0,0,60,6.0,0.0
4770,52.0,80,60,1.0,0.0
4771,76.0,0,420,7.0,0.0
4772,79.0,24,420,6.0,0.0
4773,79.0,0,420,2.0,0.0
4774,28.0,0,210,10.0,0.0
4775,40.0,16,210,10.0,0.0
4776,60.0,0,150,5.0,0.0
4777,72.0,0,60,0.0,0.0
4778,74.0,0,60,0.0,0.0
4779,50.0,10,60,1.0,0.0
4780,48.0,2,60,1.0,0.0
4781,76.0,0,60,0.0,0.0
4782,60.0,78,60,8.0,0.0
4783,58.0,0,60,5.0,0.0
4784,55.0,0,60,3.0,0.0
4785,57.0,0,60,5.0,0.0
4786,57.0,0,60,3.0,0.0
4787,29.0,0,210,10.0,0.0
4788,53.0,0,60,1.0,0.0
4789,69.0,16,210,8.0,0.0
4790,41.0,0,210,10.0,0.0
4791,69.0,80,60,0.0,0.0
4792,53.0,16,60,3.0,0.0
4793,50.0,0,60,5.0,0.0
4794,57.0,0,60,1.0,0.0
4795,71.0,0,60,0.0,0.0
4796,72.0,0,60,0.0,0.0
4797,55.0,0,60,1.0,0.0
4798,55.0,0,60,3.0,0.0
4799,52.0,80,60,5.0,0.0
4800,53.0,0,60,5.0,0.0
4801,74.0,0,150,4.0,0.0
4802,38.0,16,210,10.0,0.0
4803,53.0,0,60,1.0,0.0
4804,26.0,0,210,10.0,0.0
4805,57.0,0,60,3.0,0.0
4806,74.0,80,60,0.0,0.0
4807,77.0,0,150,6.0,0.0
4808,77.0,54,150,2.0,0.0
4809,74.0,0,150,7.0,0.0
4810,52.0,10,60,1.0,0.0
4811,76.0,0,60,0.0,0.0
4812,55.0,0,60,5.0,0.0
4813,59.0,0,60,3.0,0.0
4814,60.0,0,60,3.0,0.0
4815,77.0,2,60,0.0,0.0
4816,57.0,0,60,5.0,0.0
4817,50.0,0,60,1.0,0.0
4818,65.0,0,60,8.0,0.0
4819,72.0,0,60,4.0,0.0
4820,76.0,0,60,6.0,0.0
4821,72.0,0,60,7.0,0.0
4822,76.0,114,60,2.0,0.0
4823,71.0,0,210,7.0,0.0
4824,55.0,0,210,1.0,0.0
4825,43.0,0,210,10.0,0.0
4826,50.0,0,210,5.0,0.0
4827,74.0,12,210,6.0,0.0
4828,71.0,108,120,0.0,0.0
4829,55.0,0,120,3.0,0.0
4830,31.0,0,210,10.0,0.0
4831,74.0,0,120,2.0,0.0
4832,71.0,0,120,4.0,0.0
4833,67.0,0,210,8.0,0.0
4834,71.0,0,120,2.0,0.0
4835,74.0,120,120,4.0,0.0
4836,67.0,0,120,3.0,0.0
4837,74.0,0,120,0.0,0.0
4838,65.0,12,210,8.0,0.0
4839,67.0,0,120,0.0,0.0
4840,67.0,0,120,4.0,0.0
4841,62.0,108,120,3.0,0.0
4842,55.0,0,210,5.0,0.0
4843,67.0,0,120,2.0,0.0
4844,65.0,120,120,1.0,0.0
4845,71.0,0,120,4.0,0.0
4846,71.0,0,120,2.0,0.0
4847,74.0,0,120,6.0,0.0
4848,59.0,0,120,3.0,0.0
4849,71.0,0,120,0.0,0.0
4850,71.0,0,120,7.0,0.0
4851,72.0,0,120,4.0,0.0
4852,64.0,12,210,8.0,0.0
4853,76.0,0,120,6.0,0.0
4854,72.0,0,120,0.0,0.0
4855,72.0,0,120,7.0,0.0
4856,55.0,0,120,3.0,0.0
4857,72.0,108,120,2.0,0.0
4858,64.0,0,120,1.0,0.0
4859,55.0,0,210,5.0,0.0
4860,76.0,0,120,0.0,0.0
4861,60.0,0,120,1.0,0.0
4862,76.0,120,120,4.0,0.0
4863,67.0,0,120,7.0,0.0
4864,67.0,0,120,3.0,0.0
4865,79.0,0,120,6.0,0.0
4866,76.0,0,120,2.0,0.0
4867,72.0,0,120,6.0,0.0
4868,64.0,0,120,1.0,0.0
4869,55.0,12,210,10.0,0.0
4870,43.0,0,210,5.0,0.0
4871,64.0,108,120,7.0,0.0
4872,67.0,0,210,8.0,0.0
4873,67.0,0,120,4.0,0.0
4874,67.0,0,120,0.0,0.0
4875,64.0,0,120,3.0,0.0
4876,43.0,0,210,10.0,0.0
4877,67.0,0,120,2.0,0.0
4878,67.0,0,120,3.0,0.0
4879,72.0,0,120,0.0,0.0
4880,76.0,0,120,6.0,0.0
4881,67.0,0,120,7.0,0.0
4882,60.0,120,120,1.0,0.0
4883,72.0,0,120,4.0,0.0
4884,72.0,0,120,2.0,0.0
4885,71.0,0,120,7.0,0.0
4886,55.0,0,120,3.0,0.0
4887,43.0,0,210,10.0,0.0
4888,71.0,0,120,0.0,0.0
4889,55.0,0,210,8.0,0.0
4890,55.0,12,210,10.0,0.0
4891,71.0,0,120,4.0,0.0
4892,74.0,0,120,6.0,0.0
4893,71.0,108,120,2.0,0.0
4894,67.0,0,210,1.0,0.0
4895,74.0,120,120,2.0,0.0
4896,67.0,0,120,3.0,0.0
4897,74.0,0,120,4.0,0.0
4898,67.0,0,120,7.0,0.0
4899,77.0,0,120,6.0,0.0
4900,74.0,0,120,0.0,0.0
4901,71.0,0,120,6.0,0.0
4902,67.0,0,120,0.0,0.0
4903,62.0,108,120,7.0,0.0
4904,55.0,0,120,1.0,0.0
4905,43.0,0,210,10.0,0.0
4906,62.0,0,120,3.0,0.0
4907,55.0,12,210,8.0,0.0
4908,31.0,0,210,10.0,0.0
4909,67.0,0,120,4.0,0.0
4910,55.0,0,210,5.0,0.0
4911,67.0,0,120,2.0,0.0
4912,59.0,0,120,3.0,0.0
4913,71.0,0,120,2.0,0.0
4914,74.0,0,120,6.0,0.0
4915,71.0,0,120,4.0,0.0
4916,71.0,120,120,0.0,0.0
4917,53.0,0,120,1.0,0.0
4918,67.0,0,120,7.0,0.0
4919,72.0,0,120,2.0,0.0
4920,72.0,108,120,0.0,0.0
4921,55.0,0,120,3.0,0.0
4922,72.0,0,120,4.0,0.0
4923,55.0,0,210,5.0,0.0
4924,67.0,0,120,7.0,0.0
4925,72.0,0,120,6.0,0.0
4926,52.0,12,210,8.0,0.0
4927,52.0,0,120,1.0,0.0
4928,76.0,0,120,6.0,0.0
4929,67.0,0,120,3.0,0.0
4930,72.0,120,120,7.0,0.0
4931,76.0,0,120,4.0,0.0
4932,76.0,0,120,2.0,0.0
4933,48.0,0,120,1.0,0.0
4934,76.0,0,120,0.0,0.0
4935,43.0,0,210,5.0,0.0
4936,67.0,0,120,6.0,0.0
4937,55.0,12,210,10.0,0.0
4938,64.0,0,120,3.0,0.0
4939,67.0,0,120,0.0,0.0
4940,64.0,0,120,7.0,0.0
4941,67.0,108,120,2.0,0.0
4942,60.0,0,210,8.0,0.0
4943,43.0,0,210,10.0,0.0
4944,67.0,0,120,4.0,0.0
4945,52.0,0,120,1.0,0.0
4946,72.0,0,120,4.0,0.0
4947,67.0,0,120,7.0,0.0
4948,67.0,0,120,3.0,0.0
4949,72.0,0,120,0.0,0.0
4950,72.0,0,120,2.0,0.0
4951,48.0,66,120,1.0,0.0
4952,72.0,0,120,6.0,0.0
4953,71.0,0,210,0.0,0.0
4954,62.0,42,420,8.0,0.0
4955,43.0,0,2130,10.0,0.0
4956,71.0,0,210,4.0,0.0
4957,55.0,0,210,1.0,0.0
4958,55.0,0,210,3.0,0.0
4959,71.0,0,420,6.0,0.0
4960,43.0,18,210,5.0,0.0
4961,67.0,0,420,7.0,0.0
4962,55.0,18,2130,10.0,0.0
4963,71.0,60,60,2.0,0.0
4964,74.0,60,60,2.0,0.0
4965,76.0,42,60,2.0,0.0
4966,77.0,60,60,2.0,0.0
4967,79.0,60,60,2.0,0.0
4968,77.0,60,60,2.0,0.0
4969,76.0,18,60,2.0,0.0
4970,74.0,60,60,2.0,0.0
4971,64.0,0,420,7.0,0.0
4972,76.0,60,60,2.0,0.0
4973,72.0,42,420,6.0,0.0
4974,67.0,0,420,8.0,0.0
4975,59.0,0,60,3.0,0.0
4976,74.0,60,60,2.0,0.0
4977,72.0,0,60,2.0,0.0
4978,60.0,60,60,3.0,0.0
4979,62.0,0,60,3.0,0.0
4980,71.0,60,60,2.0,0.0
4981,72.0,0,60,2.0,0.0
4982,64.0,60,60,3.0,0.0
4983,71.0,60,60,2.0,0.0
4984,62.0,0,60,3.0,0.0
4985,60.0,18,60,3.0,0.0
4986,69.0,0,60,2.0,0.0
4987,59.0,60,60,3.0,0.0
4988,67.0,0,60,2.0,0.0
4989,57.0,18,210,3.0,0.0
4990,69.0,0,870,8.0,0.0
4991,72.0,30,870,7.0,0.0
4992,66.0,60,60,2.0,0.0
4993,75.0,42,420,6.0,0.0
4994,67.0,60,60,2.0,0.0
4995,69.0,42,60,2.0,0.0
4996,71.0,60,60,2.0,0.0
4997,72.0,60,60,2.0,0.0
4998,71.0,60,60,2.0,0.0
4999,69.0,18,60,2.0,0.0
5000,67.0,60,60,2.0,0.0
5001,66.0,60,60,2.0,0.0
5002,78.0,42,420,6.0,0.0
5003,64.0,60,60,2.0,0.0
5004,62.0,60,60,2.0,0.0
5005,60.0,60,60,2.0,0.0
5006,59.0,60,60,3.0,0.0
5007,57.0,30,60,3.0,0.0
5008,55.0,18,60,3.0,0.0
5009,54.0,60,60,3.0,0.0
5010,71.0,0,210,8.0,0.0
5011,79.0,0,1170,6.0,0.0
5012,43.0,60,60,3.0,0.0
5013,74.0,0,210,7.0,0.0
5014,59.0,60,60,2.0,0.0
5015,55.0,0,60,3.0,0.0
5016,57.0,42,60,2.0,0.0
5017,54.0,0,60,3.0,0.0
5018,55.0,0,60,3.0,0.0
5019,59.0,60,60,2.0,0.0
5020,45.0,0,60,3.0,0.0
5021,60.0,60,60,2.0,0.0
5022,45.0,0,210,10.0,0.0
5023,57.0,18,210,10.0,0.0
5024,55.0,60,60,3.0,0.0
5025,59.0,0,60,2.0,0.0
5026,54.0,42,60,3.0,0.0
5027,57.0,0,60,2.0,0.0
5028,59.0,60,60,2.0,0.0
5029,55.0,0,60,3.0,0.0
5030,62.0,60,60,2.0,0.0
5031,59.0,18,210,10.0,0.0
5032,47.0,0,210,10.0,0.0
5033,47.0,0,60,3.0,0.0
5034,55.0,0,60,3.0,0.0
5035,59.0,60,60,2.0,0.0
5036,57.0,42,60,2.0,0.0
5037,54.0,0,60,3.0,0.0
5038,59.0,60,60,2.0,0.0
5039,55.0,0,60,3.0,0.0
5040,64.0,60,60,2.0,0.0
5041,45.0,18,210,10.0,0.0
5042,48.0,0,60,3.0,0.0
5043,57.0,0,210,10.0,0.0
5044,55.0,60,60,3.0,0.0
5045,59.0,0,60,2.0,0.0
5046,57.0,0,60,2.0,0.0
5047,54.0,42,60,3.0,0.0
5048,59.0,0,60,2.0,0.0
5049,55.0,60,60,3.0,0.0
5050,65.0,60,60,2.0,0.0
5051,55.0,18,210,10.0,0.0
5052,43.0,0,210,10.0,0.0
5053,50.0,0,60,3.0,0.0
5054,55.0,0,60,3.0,0.0
5055,59.0,60,60,2.0,0.0
5056,54.0,0,60,3.0,0.0
5057,57.0,42,60,2.0,0.0
5058,55.0,60,60,3.0,0.0
5059,59.0,0,60,2.0,0.0
5060,62.0,0,60,2.0,0.0
5061,47.0,60,60,3.0,0.0
5062,74.0,0,210,7.0,0.0
5063,59.0,0,210,8.0,0.0
5064,67.0,0,210,6.0,0.0
5065,41.0,0,210,10.0,0.0
5066,53.0,18,210,10.0,0.0
5067,55.0,0,60,3.0,0.0
5068,59.0,60,60,2.0,0.0
5069,57.0,42,60,2.0,0.0
5070,54.0,0,60,3.0,0.0
5071,59.0,0,60,2.0,0.0
5072,55.0,60,60,3.0,0.0
5073,67.0,0,210,7.0,0.0
5074,48.0,0,60,3.0,0.0
5075,40.0,0,210,10.0,0.0
5076,72.0,0,210,6.0,0.0
5077,60.0,0,210,8.0,0.0
5078,52.0,18,210,10.0,0.0
5079,67.0,60,60,2.0,0.0
5080,55.0,0,60,3.0,0.0
5081,59.0,60,60,2.0,0.0
5082,57.0,42,60,2.0,0.0
5083,54.0,0,60,3.0,0.0
5084,55.0,0,60,3.0,0.0
5085,59.0,60,60,2.0,0.0
5086,65.0,0,60,2.0,0.0
5087,74.0,0,210,6.0,0.0
5088,71.0,0,210,7.0,0.0
5089,65.0,18,210,8.0,0.0
5090,50.0,0,210,10.0,0.0
5091,50.0,60,60,3.0,0.0
5092,38.0,0,210,10.0,0.0
5093,55.0,60,60,3.0,0.0
5094,59.0,0,60,2.0,0.0
5095,57.0,42,60,2.0,0.0
5096,54.0,0,60,3.0,0.0
5097,55.0,60,60,3.0,0.0
5098,59.0,0,60,2.0,0.0
5099,76.0,42,420,6.0,0.0
5100,64.0,60,60,2.0,0.0
5101,67.0,0,420,8.0,0.0
5102,48.0,0,2130,10.0,0.0
5103,72.0,0,420,7.0,0.0
5104,48.0,18,210,3.0,0.0
5105,36.0,18,2130,10.0,0.0
5106,67.0,60,60,2.0,0.0
5107,69.0,42,60,2.0,0.0
5108,71.0,60,60,2.0,0.0
5109,72.0,60,60,2.0,0.0
5110,71.0,60,60,2.0,0.0
5111,69.0,18,60,2.0,0.0
5112,67.0,60,60,2.0,0.0
5113,69.0,0,420,7.0,0.0
5114,72.0,0,420,8.0,0.0
5115,77.0,42,420,6.0,0.0
5116,69.0,60,60,2.0,0.0
5117,52.0,60,60,3.0,0.0
5118,67.0,0,60,2.0,0.0
5119,65.0,0,60,2.0,0.0
5120,53.0,60,60,3.0,0.0
5121,55.0,0,60,3.0,0.0
5122,64.0,60,60,2.0,0.0
5123,57.0,60,60,3.0,0.0
5124,65.0,0,60,2.0,0.0
5125,64.0,0,60,2.0,0.0
5126,55.0,60,60,3.0,0.0
5127,62.0,0,60,2.0,0.0
5128,53.0,18,60,3.0,0.0
5129,60.0,0,60,2.0,0.0
5130,52.0,60,60,3.0,0.0
5131,77.0,0,870,7.0,0.0
5132,59.0,60,60,2.0,0.0
5133,80.0,42,420,6.0,0.0
5134,50.0,18,210,3.0,0.0
5135,74.0,30,870,8.0,0.0
5136,60.0,60,60,2.0,0.0
5137,62.0,42,60,2.0,0.0
5138,64.0,60,60,2.0,0.0
5139,65.0,60,60,2.0,0.0
5140,64.0,60,60,2.0,0.0
5141,62.0,18,60,2.0,0.0
5142,60.0,60,60,2.0,0.0
5143,83.0,42,420,6.0,0.0
5144,59.0,60,60,2.0,0.0
5145,57.0,60,60,2.0,0.0
5146,55.0,60,60,2.0,0.0
5147,53.0,60,60,2.0,0.0
5148,52.0,60,60,2.0,0.0
5149,50.0,30,60,2.0,0.0
5150,48.0,18,60,2.0,0.0
5151,47.0,60,60,2.0,0.0
5152,36.0,60,60,3.0,0.0
5153,76.0,0,210,8.0,0.0
5154,84.0,0,1170,6.0,0.0
5155,79.0,0,210,7.0,0.0
5156,48.0,60,60,3.0,0.0
5157,52.0,0,60,2.0,0.0
5158,50.0,0,60,2.0,0.0
5159,47.0,42,60,3.0,0.0
5160,52.0,60,60,2.0,0.0
5161,48.0,0,60,3.0,0.0
5162,50.0,0,210,10.0,0.0
5163,53.0,0,60,2.0,0.0
5164,38.0,18,210,10.0,0.0
5165,38.0,60,60,3.0,0.0
5166,52.0,0,60,2.0,0.0
5167,48.0,60,60,3.0,0.0
5168,50.0,0,60,2.0,0.0
5169,47.0,42,60,3.0,0.0
5170,52.0,60,60,2.0,0.0
5171,48.0,0,60,3.0,0.0
5172,40.0,18,210,10.0,0.0
5173,40.0,60,60,3.0,0.0
5174,55.0,0,60,2.0,0.0
5175,52.0,0,210,10.0,0.0
5176,48.0,0,60,3.0,0.0
5177,52.0,60,60,2.0,0.0
5178,47.0,42,60,3.0,0.0
5179,50.0,0,60,2.0,0.0
5180,48.0,60,60,3.0,0.0
5181,52.0,0,60,2.0,0.0
5182,38.0,0,210,10.0,0.0
5183,57.0,60,60,2.0,0.0
5184,50.0,18,210,10.0,0.0
5185,41.0,0,60,3.0,0.0
5186,48.0,0,60,3.0,0.0
5187,52.0,60,60,2.0,0.0
5188,50.0,42,60,2.0,0.0
5189,47.0,0,60,3.0,0.0
5190,48.0,60,60,3.0,0.0
5191,52.0,0,60,2.0,0.0
5192,43.0,60,60,3.0,0.0
5193,36.0,18,210,10.0,0.0
5194,48.0,0,210,10.0,0.0
5195,58.0,0,60,2.0,0.0
5196,52.0,0,60,2.0,0.0
5197,48.0,60,60,3.0,0.0
5198,47.0,0,60,3.0,0.0
5199,50.0,42,60,2.0,0.0
5200,48.0,60,60,3.0,0.0
5201,52.0,0,60,2.0,0.0
5202,79.0,0,210,7.0,0.0
5203,55.0,0,60,2.0,0.0
5204,46.0,18,210,10.0,0.0
5205,72.0,0,210,6.0,0.0
5206,64.0,0,210,8.0,0.0
5207,40.0,60,60,3.0,0.0
5208,34.0,0,210,10.0,0.0
5209,48.0,0,60,3.0,0.0
5210,52.0,60,60,2.0,0.0
5211,47.0,42,60,3.0,0.0
5212,50.0,0,60,2.0,0.0
5213,52.0,0,60,2.0,0.0
5214,48.0,60,60,3.0,0.0
5215,45.0,0,210,10.0,0.0
5216,60.0,0,60,2.0,0.0
5217,77.0,0,210,6.0,0.0
5218,72.0,0,210,7.0,0.0
5219,33.0,18,210,10.0,0.0
5220,65.0,0,210,8.0,0.0
5221,45.0,60,60,3.0,0.0
5222,52.0,60,60,2.0,0.0
5223,48.0,0,60,3.0,0.0
5224,50.0,42,60,2.0,0.0
5225,47.0,0,60,3.0,0.0
5226,52.0,0,60,2.0,0.0
5227,48.0,60,60,3.0,0.0
5228,31.0,0,210,10.0,0.0
5229,76.0,0,210,7.0,0.0
5230,43.0,0,210,10.0,0.0
5231,58.0,60,60,2.0,0.0
5232,43.0,0,60,3.0,0.0
5233,70.0,18,210,8.0,0.0
5234,79.0,0,210,6.0,0.0
5235,52.0,60,60,2.0,0.0
5236,48.0,0,60,3.0,0.0
5237,50.0,42,60,2.0,0.0
5238,47.0,0,60,3.0,0.0
5239,52.0,60,60,2.0,0.0
5240,48.0,0,60,3.0,0.0
5241,57.0,54,60,2.0,0.0
5242,81.0,12,210,6.0,0.0
5243,77.0,0,210,7.0,0.0
5244,41.0,0,120,10.0,0.0
5245,29.0,0,120,10.0,0.0
5246,72.0,0,210,8.0,0.0
5247,41.0,6,120,3.0,0.0
5248,53.0,60,60,2.0,0.0
5249,28.0,0,120,10.0,0.0
5250,40.0,6,120,10.0,0.0
5251,48.0,42,60,2.0,0.0
5252,45.0,60,60,2.0,0.0
5253,41.0,54,60,2.0,0.0
5254,72.0,12,210,6.0,0.0
5255,41.0,6,120,10.0,0.0
5256,29.0,0,120,10.0,0.0
5257,52.0,60,60,3.0,0.0
5258,31.0,6,120,10.0,0.0
5259,43.0,0,120,10.0,0.0
5260,53.0,42,60,3.0,0.0
5261,55.0,114,60,3.0,0.0
5262,57.0,0,120,3.0,0.0
5263,45.0,6,120,10.0,0.0
5264,77.0,24,900,6.0,0.0
5265,33.0,0,120,10.0,0.0
5266,72.0,60,60,2.0,0.0
5267,55.0,0,120,3.0,0.0
5268,74.0,54,60,2.0,0.0
5269,43.0,6,120,10.0,0.0
5270,31.0,0,120,10.0,0.0
5271,76.0,60,60,2.0,0.0
5272,77.0,54,60,2.0,0.0
5273,57.0,0,120,3.0,0.0
5274,33.0,0,120,10.0,0.0
5275,45.0,6,120,10.0,0.0
5276,72.0,60,60,2.0,0.0
5277,59.0,6,120,3.0,0.0
5278,35.0,0,120,10.0,0.0
5279,47.0,0,120,10.0,0.0
5280,69.0,54,60,2.0,0.0
5281,65.0,60,60,2.0,0.0
5282,60.0,0,120,3.0,0.0
5283,36.0,6,120,10.0,0.0
5284,77.0,54,60,2.0,0.0
5285,48.0,0,120,10.0,0.0
5286,67.0,60,60,2.0,0.0
5287,77.0,54,60,2.0,0.0
5288,59.0,0,120,3.0,0.0
5289,47.0,0,120,10.0,0.0
5290,35.0,6,120,10.0,0.0
5291,67.0,60,60,2.0,0.0
5292,60.0,6,120,3.0,0.0
5293,77.0,54,60,2.0,0.0
5294,48.0,0,120,10.0,0.0
5295,67.0,12,210,7.0,0.0
5296,36.0,0,120,10.0,0.0
5297,67.0,60,60,2.0,0.0
5298,77.0,18,60,2.0,0.0
5299,50.0,0,120,10.0,0.0
5300,38.0,0,120,10.0,0.0
5301,62.0,6,120,3.0,0.0
5302,67.0,60,60,2.0,0.0
5303,72.0,24,900,7.0,0.0
5304,76.0,36,420,6.0,0.0
5305,52.0,6,120,10.0,0.0
5306,64.0,0,120,3.0,0.0
5307,76.0,54,60,2.0,0.0
5308,40.0,0,120,10.0,0.0
5309,72.0,60,60,2.0,0.0
5310,62.0,0,120,3.0,0.0
5311,76.0,54,60,2.0,0.0
5312,50.0,0,120,10.0,0.0
5313,38.0,6,120,10.0,0.0
5314,72.0,60,60,2.0,0.0
5315,40.0,0,120,10.0,0.0
5316,52.0,6,120,10.0,0.0
5317,76.0,54,60,2.0,0.0
5318,64.0,0,120,3.0,0.0
5319,72.0,60,60,2.0,0.0
5320,65.0,0,120,3.0,0.0
5321,76.0,18,60,2.0,0.0
5322,41.0,6,120,10.0,0.0
5323,53.0,0,120,10.0,0.0
5324,72.0,60,60,2.0,0.0
5325,55.0,0,120,3.0,0.0
5326,43.0,6,120,10.0,0.0
5327,31.0,0,120,10.0,0.0
5328,74.0,54,60,2.0,0.0
5329,74.0,12,210,6.0,0.0
5330,72.0,60,60,2.0,0.0
5331,42.0,6,120,10.0,0.0
5332,30.0,0,120,10.0,0.0
5333,54.0,0,120,3.0,0.0
5334,74.0,42,60,2.0,0.0
5335,72.0,60,60,2.0,0.0
5336,43.0,0,120,10.0,0.0
5337,31.0,6,120,10.0,0.0
5338,67.0,12,210,6.0,0.0
5339,74.0,54,60,2.0,0.0
5340,55.0,0,120,3.0,0.0
5341,72.0,60,60,2.0,0.0
5342,45.0,0,120,10.0,0.0
5343,57.0,0,120,3.0,0.0
5344,71.0,18,60,2.0,0.0
5345,33.0,6,120,10.0,0.0
5346,69.0,60,60,2.0,0.0
5347,47.0,6,120,10.0,0.0
5348,35.0,0,120,10.0,0.0
5349,59.0,0,120,3.0,0.0
5350,67.0,54,60,2.0,0.0
5351,79.0,24,900,6.0,0.0
5352,71.0,36,420,7.0,0.0
5353,74.0,60,60,2.0,0.0
5354,57.0,6,120,3.0,0.0
5355,45.0,0,120,10.0,0.0
5356,76.0,54,60,2.0,0.0
5357,33.0,0,120,10.0,0.0
5358,77.0,60,60,2.0,0.0
5359,35.0,6,120,10.0,0.0
5360,47.0,0,120,10.0,0.0
5361,59.0,0,120,3.0,0.0
5362,79.0,54,60,2.0,0.0
5363,74.0,60,60,2.0,0.0
5364,36.0,6,120,10.0,0.0
5365,48.0,0,120,10.0,0.0
5366,60.0,0,120,3.0,0.0
5367,71.0,18,60,2.0,0.0
5368,67.0,60,60,2.0,0.0
5369,38.0,0,120,10.0,0.0
5370,62.0,0,120,3.0,0.0
5371,79.0,54,60,2.0,0.0
5372,50.0,6,120,10.0,0.0
5373,69.0,12,210,7.0,0.0
5374,69.0,60,60,2.0,0.0
5375,49.0,0,120,10.0,0.0
5376,37.0,6,120,10.0,0.0
5377,79.0,42,60,2.0,0.0
5378,61.0,0,120,3.0,0.0
5379,69.0,60,60,2.0,0.0
5380,62.0,6,120,3.0,0.0
5381,79.0,54,60,2.0,0.0
5382,50.0,0,120,10.0,0.0
5383,38.0,0,120,10.0,0.0
5384,62.0,12,210,7.0,0.0
5385,69.0,60,60,2.0,0.0
5386,40.0,0,120,10.0,0.0
5387,52.0,0,120,10.0,0.0
5388,64.0,6,120,3.0,0.0
5389,79.0,18,60,2.0,0.0
5390,69.0,60,60,2.0,0.0
5391,74.0,24,900,7.0,0.0
5392,77.0,54,60,2.0,0.0
5393,77.0,36,420,6.0,0.0
5394,53.0,0,120,10.0,0.0
5395,65.0,6,120,3.0,0.0
5396,41.0,0,120,10.0,0.0
5397,74.0,60,60,2.0,0.0
5398,52.0,6,120,10.0,0.0
5399,40.0,0,120,10.0,0.0
5400,64.0,0,120,3.0,0.0
5401,77.0,54,60,2.0,0.0
5402,74.0,60,60,2.0,0.0
5403,65.0,0,120,3.0,0.0
5404,41.0,6,120,10.0,0.0
5405,53.0,0,120,10.0,0.0
5406,77.0,54,60,2.0,0.0
5407,74.0,60,60,2.0,0.0
5408,77.0,18,60,2.0,0.0
5409,43.0,0,120,10.0,0.0
5410,67.0,0,120,3.0,0.0
5411,55.0,6,120,10.0,0.0
5412,74.0,60,60,2.0,0.0
5413,57.0,6,120,3.0,0.0
5414,45.0,0,120,10.0,0.0
5415,33.0,0,120,10.0,0.0
5416,76.0,12,210,6.0,0.0
5417,76.0,54,60,2.0,0.0
5418,74.0,60,60,2.0,0.0
5419,32.0,6,120,10.0,0.0
5420,76.0,42,60,2.0,0.0
5421,56.0,0,120,3.0,0.0
5422,44.0,0,120,10.0,0.0
5423,74.0,60,60,2.0,0.0
5424,69.0,12,210,6.0,0.0
5425,76.0,54,60,2.0,0.0
5426,45.0,6,120,10.0,0.0
5427,33.0,0,120,10.0,0.0
5428,57.0,0,120,3.0,0.0
5429,74.0,60,60,2.0,0.0
5430,47.0,6,120,10.0,0.0
5431,35.0,0,120,10.0,0.0
5432,59.0,0,120,3.0,0.0
5433,72.0,18,60,2.0,0.0
5434,71.0,60,60,2.0,0.0
5435,69.0,54,60,2.0,0.0
5436,36.0,0,120,10.0,0.0
5437,72.0,36,420,7.0,0.0
5438,48.0,0,120,10.0,0.0
5439,81.0,36,900,6.0,0.0
5440,60.0,6,120,3.0,0.0
5441,76.0,60,60,2.0,0.0
5442,47.0,0,120,10.0,0.0
5443,78.0,54,60,2.0,0.0
5444,59.0,0,120,3.0,0.0
5445,35.0,6,120,10.0,0.0
5446,80.0,60,60,2.0,0.0
5447,81.0,54,60,2.0,0.0
5448,60.0,0,120,3.0,0.0
5449,36.0,0,120,10.0,0.0
5450,48.0,6,120,10.0,0.0
5451,76.0,60,60,2.0,0.0
5452,72.0,18,60,2.0,0.0
5453,33.0,0,120,10.0,0.0
5454,57.0,0,120,3.0,0.0
5455,45.0,6,120,10.0,0.0
5456,69.0,60,60,2.0,0.0
5457,38.0,0,120,10.0,0.0
5458,81.0,54,60,2.0,0.0
5459,62.0,6,120,3.0,0.0
5460,50.0,0,120,10.0,0.0
5461,70.0,30,870,7.0,0.0
5462,70.0,60,60,2.0,0.0
5463,81.0,54,60,2.0,0.0
5464,40.0,0,120,10.0,0.0
5465,64.0,0,120,3.0,0.0
5466,52.0,6,120,10.0,0.0
5467,70.0,60,60,2.0,0.0
5468,65.0,0,120,3.0,0.0
5469,41.0,6,120,10.0,0.0
5470,81.0,54,60,2.0,0.0
5471,53.0,0,120,10.0,0.0
5472,70.0,60,60,2.0,0.0
5473,62.0,0,120,3.0,0.0
5474,50.0,0,120,10.0,0.0
5475,81.0,18,60,2.0,0.0
5476,38.0,6,120,10.0,0.0
5477,70.0,60,60,2.0,0.0
5478,52.0,0,120,10.0,0.0
5479,79.0,54,60,2.0,0.0
5480,64.0,0,120,3.0,0.0
5481,40.0,6,120,10.0,0.0
5482,79.0,36,900,6.0,0.0
5483,70.0,60,60,2.0,0.0
5484,79.0,54,60,2.0,0.0
5485,36.0,0,120,10.0,0.0
5486,48.0,0,120,10.0,0.0
5487,60.0,6,120,3.0,0.0
5488,70.0,60,60,2.0,0.0
5489,79.0,54,60,2.0,0.0
5490,50.0,0,120,10.0,0.0
5491,38.0,6,120,10.0,0.0
5492,62.0,0,120,3.0,0.0
5493,70.0,30,60,2.0,0.0
5494,64.0,6,120,3.0,0.0
5495,52.0,0,120,10.0,0.0
5496,40.0,0,120,10.0,0.0
5497,79.0,54,60,2.0,0.0
5498,70.0,60,60,2.0,0.0
5499,53.0,0,120,10.0,0.0
5500,41.0,6,120,10.0,0.0
5501,79.0,54,60,2.0,0.0
5502,69.0,30,870,7.0,0.0
5503,65.0,0,120,3.0,0.0
5504,69.0,60,60,2.0,0.0
5505,67.0,6,120,3.0,0.0
5506,55.0,0,120,10.0,0.0
5507,79.0,54,60,2.0,0.0
5508,43.0,0,120,10.0,0.0
5509,69.0,60,60,2.0,0.0
5510,53.0,0,120,10.0,0.0
5511,65.0,0,120,3.0,0.0
5512,41.0,6,120,10.0,0.0
5513,79.0,54,60,2.0,0.0
5514,69.0,60,60,2.0,0.0
5515,40.0,6,120,10.0,0.0
5516,52.0,0,120,10.0,0.0
5517,64.0,0,120,3.0,0.0
5518,79.0,18,60,2.0,0.0
5519,69.0,60,60,2.0,0.0
5520,38.0,6,120,10.0,0.0
5521,62.0,0,120,3.0,0.0
5522,50.0,0,120,10.0,0.0
5523,77.0,54,60,2.0,0.0
5524,77.0,36,900,6.0,0.0
5525,69.0,60,60,2.0,0.0
5526,36.0,6,120,10.0,0.0
5527,60.0,0,120,3.0,0.0
5528,48.0,0,120,10.0,0.0
5529,77.0,54,60,2.0,0.0
5530,69.0,60,60,2.0,0.0
5531,35.0,0,120,10.0,0.0
5532,77.0,54,60,2.0,0.0
5533,47.0,0,120,10.0,0.0
5534,59.0,6,120,3.0,0.0
5535,69.0,30,60,2.0,0.0
5536,33.0,0,120,10.0,0.0
5537,57.0,0,120,3.0,0.0
5538,77.0,54,60,2.0,0.0
5539,45.0,6,120,10.0,0.0
5540,69.0,60,60,2.0,0.0
5541,47.0,0,120,10.0,0.0
5542,59.0,0,120,3.0,0.0
5543,77.0,54,60,2.0,0.0
5544,67.0,30,870,7.0,0.0
5545,35.0,6,120,10.0,0.0
5546,67.0,60,60,2.0,0.0
5547,77.0,54,60,2.0,0.0
5548,43.0,6,120,10.0,0.0
5549,31.0,0,120,10.0,0.0
5550,55.0,0,120,3.0,0.0
5551,67.0,60,60,2.0,0.0
5552,77.0,54,60,2.0,0.0
5553,33.0,6,120,10.0,0.0
5554,45.0,0,120,10.0,0.0
5555,57.0,0,120,3.0,0.0
5556,67.0,60,60,2.0,0.0
5557,35.0,0,120,10.0,0.0
5558,47.0,0,120,10.0,0.0
5559,59.0,6,120,3.0,0.0
5560,77.0,18,60,2.0,0.0
5561,67.0,60,60,2.0,0.0
5562,36.0,6,120,10.0,0.0
5563,76.0,54,60,2.0,0.0
5564,60.0,0,120,3.0,0.0
5565,76.0,36,900,6.0,0.0
5566,48.0,0,120,10.0,0.0
5567,67.0,60,60,2.0,0.0
5568,57.0,0,120,3.0,0.0
5569,76.0,54,60,2.0,0.0
5570,45.0,0,120,10.0,0.0
5571,33.0,6,120,10.0,0.0
5572,67.0,60,60,2.0,0.0
5573,59.0,0,120,3.0,0.0
5574,47.0,0,120,10.0,0.0
5575,35.0,6,120,10.0,0.0
5576,76.0,54,60,2.0,0.0
5577,67.0,30,60,2.0,0.0
5578,48.0,0,120,10.0,0.0
5579,36.0,6,120,10.0,0.0
5580,60.0,0,120,3.0,0.0
5581,76.0,54,60,2.0,0.0
5582,67.0,60,60,2.0,0.0
5583,38.0,6,120,10.0,0.0
5584,65.0,6,660,7.0,0.0
5585,62.0,0,120,3.0,0.0
5586,76.0,54,60,2.0,0.0
5587,50.0,0,120,10.0,0.0
5588,65.0,60,60,2.0,0.0
5589,52.0,6,120,10.0,0.0
5590,40.0,0,120,10.0,0.0
5591,64.0,0,120,3.0,0.0
5592,76.0,54,60,2.0,0.0
5593,65.0,60,60,2.0,0.0
5594,38.0,0,120,10.0,0.0
5595,76.0,54,60,2.0,0.0
5596,62.0,6,120,3.0,0.0
5597,50.0,0,120,10.0,0.0
5598,65.0,60,60,2.0,0.0
5599,60.0,0,120,3.0,0.0
5600,76.0,18,60,2.0,0.0
5601,36.0,0,120,10.0,0.0
5602,48.0,6,120,10.0,0.0
5603,65.0,60,60,2.0,0.0
5604,59.0,6,120,3.0,0.0
5605,74.0,12,690,6.0,0.0
5606,35.0,0,120,10.0,0.0
5607,47.0,0,120,10.0,0.0
5608,74.0,54,60,2.0,0.0
5609,72.0,54,60,2.0,0.0
5610,71.0,54,60,2.0,0.0
5611,50.0,0,120,10.0,0.0
5612,62.0,0,120,3.0,0.0
5613,38.0,6,120,10.0,0.0
5614,69.0,60,60,2.0,0.0
5615,72.0,54,60,2.0,0.0
5616,55.0,6,120,10.0,0.0
5617,62.0,12,210,7.0,0.0
5618,67.0,0,120,3.0,0.0
5619,43.0,0,120,10.0,0.0
5620,71.0,60,60,2.0,0.0
5621,41.0,0,120,10.0,0.0
5622,53.0,0,120,10.0,0.0
5623,65.0,6,120,3.0,0.0
5624,69.0,42,60,2.0,0.0
5625,67.0,60,60,2.0,0.0
5626,64.0,0,120,3.0,0.0
5627,67.0,6,660,7.0,0.0
5628,52.0,6,120,10.0,0.0
5629,40.0,0,120,10.0,0.0
5630,79.0,54,60,2.0,0.0
5631,71.0,60,60,2.0,0.0
5632,79.0,42,60,2.0,0.0
5633,65.0,0,120,3.0,0.0
5634,53.0,6,120,10.0,0.0
5635,41.0,0,120,10.0,0.0
5636,71.0,60,60,2.0,0.0
5637,64.0,6,120,3.0,0.0
5638,71.0,12,210,6.0,0.0
5639,52.0,0,120,10.0,0.0
5640,40.0,0,120,10.0,0.0
5641,77.0,54,60,2.0,0.0
5642,71.0,60,60,2.0,0.0
5643,50.0,0,120,10.0,0.0
5644,62.0,0,120,3.0,0.0
5645,77.0,42,60,2.0,0.0
5646,38.0,6,120,10.0,0.0
5647,71.0,60,60,2.0,0.0
5648,36.0,0,120,10.0,0.0
5649,48.0,0,120,10.0,0.0
5650,60.0,6,120,3.0,0.0
5651,76.0,12,690,6.0,0.0
5652,76.0,54,60,2.0,0.0
5653,74.0,54,60,2.0,0.0
5654,52.0,0,120,10.0,0.0
5655,72.0,54,60,2.0,0.0
5656,40.0,0,120,10.0,0.0
5657,64.0,6,120,3.0,0.0
5658,71.0,60,60,2.0,0.0
5659,64.0,12,210,7.0,0.0
5660,74.0,54,60,2.0,0.0
5661,69.0,6,120,3.0,0.0
5662,45.0,0,120,10.0,0.0
5663,57.0,0,120,10.0,0.0
5664,72.0,60,60,2.0,0.0
5665,67.0,0,120,3.0,0.0
5666,43.0,6,120,10.0,0.0
5667,55.0,0,120,10.0,0.0
5668,71.0,42,60,2.0,0.0
5669,69.0,60,60,2.0,0.0
5670,41.0,0,120,10.0,0.0
5671,53.0,6,120,10.0,0.0
5672,81.0,54,60,2.0,0.0
5673,65.0,0,120,3.0,0.0
5674,69.0,6,660,7.0,0.0
5675,72.0,60,60,2.0,0.0
5676,81.0,42,60,2.0,0.0
5677,55.0,0,120,10.0,0.0
5678,67.0,0,120,3.0,0.0
5679,43.0,6,120,10.0,0.0
5680,72.0,60,60,2.0,0.0
5681,65.0,6,120,3.0,0.0
5682,53.0,0,120,10.0,0.0
5683,41.0,0,120,10.0,0.0
5684,72.0,12,210,6.0,0.0
5685,79.0,54,60,2.0,0.0
5686,72.0,60,60,2.0,0.0
5687,52.0,0,120,10.0,0.0
5688,40.0,0,120,10.0,0.0
5689,64.0,6,120,3.0,0.0
5690,79.0,42,60,2.0,0.0
5691,72.0,60,60,2.0,0.0
5692,62.0,6,120,3.0,0.0
5693,77.0,54,60,2.0,0.0
5694,77.0,36,900,6.0,0.0
5695,50.0,0,120,10.0,0.0
5696,38.0,0,120,10.0,0.0
5697,76.0,54,60,2.0,0.0
5698,48.0,0,120,10.0,0.0
5699,36.0,6,120,10.0,0.0
5700,74.0,54,60,2.0,0.0
5701,64.0,0,120,3.0,0.0
5702,72.0,60,60,2.0,0.0
5703,35.0,0,120,10.0,0.0
5704,47.0,0,120,10.0,0.0
5705,62.0,12,210,7.0,0.0
5706,74.0,54,60,2.0,0.0
5707,65.0,6,120,3.0,0.0
5708,72.0,60,60,2.0,0.0
5709,71.0,42,60,2.0,0.0
5710,33.0,0,120,10.0,0.0
5711,45.0,6,120,10.0,0.0
5712,62.0,0,120,3.0,0.0
5713,69.0,60,60,2.0,0.0
5714,31.0,12,5010,10.0,0.0
5715,71.0,12,210,7.0,0.0
5716,71.0,54,60,2.0,0.0
5717,43.0,0,5010,10.0,0.0
5718,67.0,6,120,3.0,0.0
5719,74.0,60,60,2.0,0.0
5720,71.0,42,60,2.0,0.0
5721,62.0,6,120,3.0,0.0
5722,67.0,60,60,2.0,0.0
5723,74.0,36,420,7.0,0.0
5724,59.0,6,120,3.0,0.0
5725,74.0,54,60,2.0,0.0
5726,77.0,60,60,2.0,0.0
5727,55.0,6,120,3.0,0.0
5728,74.0,18,60,2.0,0.0
5729,67.0,60,60,2.0,0.0
5730,74.0,54,60,2.0,0.0
5731,60.0,6,120,3.0,0.0
5732,76.0,24,420,6.0,0.0
5733,76.0,60,60,2.0,0.0
5734,74.0,18,60,2.0,0.0
5735,62.0,6,120,3.0,0.0
5736,67.0,60,60,2.0,0.0
5737,72.0,12,210,7.0,0.0
5738,72.0,54,60,2.0,0.0
5739,64.0,6,120,3.0,0.0
5740,76.0,60,60,2.0,0.0
5741,72.0,18,60,2.0,0.0
5742,54.0,6,120,3.0,0.0
5743,67.0,60,60,2.0,0.0
5744,55.0,6,120,3.0,0.0
5745,74.0,12,210,6.0,0.0
5746,72.0,0,210,7.0,0.0
5747,72.0,54,60,2.0,0.0
5748,74.0,60,60,2.0,0.0
5749,72.0,42,60,2.0,0.0
5750,57.0,6,120,3.0,0.0
5751,67.0,60,60,2.0,0.0
5752,79.0,12,210,6.0,0.0
5753,71.0,36,420,7.0,0.0
5754,71.0,54,60,2.0,0.0
5755,59.0,6,120,3.0,0.0
5756,79.0,60,60,2.0,0.0
5757,55.0,6,120,3.0,0.0
5758,71.0,42,60,2.0,0.0
5759,67.0,60,60,2.0,0.0
5760,72.0,36,420,6.0,0.0
5761,52.0,6,120,3.0,0.0
5762,71.0,54,60,2.0,0.0
5763,72.0,60,60,2.0,0.0
5764,71.0,18,60,2.0,0.0
5765,57.0,6,120,3.0,0.0
5766,64.0,60,60,2.0,0.0
5767,69.0,0,450,7.0,0.0
5768,69.0,54,60,2.0,0.0
5769,54.0,6,120,3.0,0.0
5770,72.0,60,60,2.0,0.0
5771,50.0,6,120,3.0,0.0
5772,69.0,18,60,2.0,0.0
5773,66.0,60,60,2.0,0.0
5774,71.0,12,210,6.0,0.0
5775,69.0,54,60,2.0,0.0
5776,55.0,6,120,3.0,0.0
5777,71.0,60,60,2.0,0.0
5778,53.0,6,120,3.0,0.0
5779,69.0,42,60,2.0,0.0
5780,62.0,60,60,2.0,0.0
5781,76.0,12,210,6.0,0.0
5782,67.0,36,420,7.0,0.0
5783,52.0,6,120,3.0,0.0
5784,67.0,54,60,2.0,0.0
5785,76.0,60,60,2.0,0.0
5786,67.0,42,60,2.0,0.0
5787,50.0,6,120,3.0,0.0
5788,64.0,60,60,2.0,0.0
5789,48.0,6,120,3.0,0.0
5790,69.0,36,420,6.0,0.0
5791,67.0,54,60,2.0,0.0
5792,69.0,60,60,2.0,0.0
5793,67.0,18,60,2.0,0.0
5794,52.0,6,120,3.0,0.0
5795,60.0,60,60,2.0,0.0
5796,50.0,6,120,3.0,0.0
5797,65.0,54,60,2.0,0.0
5798,65.0,0,450,7.0,0.0
5799,69.0,60,60,2.0,0.0
5800,48.0,6,120,3.0,0.0
5801,65.0,18,60,2.0,0.0
5802,62.0,60,60,2.0,0.0
5803,65.0,54,60,2.0,0.0
5804,67.0,12,210,6.0,0.0
5805,47.0,6,120,3.0,0.0
5806,67.0,60,60,2.0,0.0
5807,65.0,42,60,2.0,0.0
5808,50.0,6,120,3.0,0.0
5809,59.0,60,60,2.0,0.0
5810,64.0,54,60,2.0,0.0
5811,48.0,6,120,3.0,0.0
5812,72.0,12,210,6.0,0.0
5813,64.0,36,420,7.0,0.0
5814,72.0,60,60,2.0,0.0
5815,64.0,42,60,2.0,0.0
5816,47.0,6,120,3.0,0.0
5817,60.0,60,60,2.0,0.0
5818,65.0,36,420,6.0,0.0
5819,64.0,54,60,2.0,0.0
5820,45.0,6,120,3.0,0.0
5821,65.0,60,60,2.0,0.0
5822,64.0,18,60,2.0,0.0
5823,48.0,6,120,3.0,0.0
5824,57.0,60,60,2.0,0.0
5825,62.0,12,450,7.0,0.0
5826,47.0,6,120,3.0,0.0
5827,62.0,54,60,2.0,0.0
5828,65.0,60,60,2.0,0.0
5829,62.0,18,60,2.0,0.0
5830,50.0,6,120,3.0,0.0
5831,59.0,60,60,2.0,0.0
5832,48.0,6,120,3.0,0.0
5833,62.0,54,60,2.0,0.0
5834,64.0,6,660,6.0,0.0
5835,64.0,60,60,2.0,0.0
5836,62.0,42,60,2.0,0.0
5837,50.0,6,120,3.0,0.0
5838,59.0,60,60,2.0,0.0
5839,60.0,6,120,7.0,0.0
5840,60.0,54,60,2.0,0.0
5841,52.0,0,120,3.0,0.0
5842,64.0,60,60,2.0,0.0
5843,59.0,0,120,7.0,0.0
5844,62.0,54,60,2.0,0.0
5845,53.0,6,120,3.0,0.0
5846,60.0,60,60,2.0,0.0
5847,60.0,18,210,7.0,0.0
5848,67.0,60,60,2.0,0.0
5849,52.0,0,60,3.0,0.0
5850,55.0,0,60,3.0,0.0
5851,71.0,54,60,2.0,0.0
5852,69.0,0,60,2.0,0.0
5853,54.0,42,60,3.0,0.0
5854,52.0,60,60,3.0,0.0
5855,67.0,0,60,2.0,0.0
5856,72.0,60,60,2.0,0.0
5857,57.0,18,210,7.0,0.0
5858,66.0,0,210,6.0,0.0
5859,50.0,0,60,3.0,0.0
5860,76.0,0,60,2.0,0.0
5861,48.0,60,60,3.0,0.0
5862,47.0,0,60,3.0,0.0
5863,74.0,42,60,2.0,0.0
5864,72.0,222,60,2.0,0.0
5865,45.0,0,60,3.0,0.0
5866,43.0,0,210,3.0,0.0
5867,59.0,0,210,7.0,0.0
5868,71.0,0,210,2.0,0.0
5869,67.0,0,210,6.0,0.0
5870,50.0,0,120,5.0,0.0
5871,66.0,120,120,4.0,0.0
5872,41.0,12,210,10.0,0.0
5873,29.0,0,210,10.0,0.0
5874,52.0,0,120,5.0,0.0
5875,67.0,108,120,4.0,0.0
5876,69.0,228,120,4.0,0.0
5877,54.0,0,120,5.0,0.0
5878,70.0,108,600,4.0,0.0
5879,28.0,0,210,10.0,0.0
5880,55.0,0,690,5.0,0.0
5881,40.0,12,210,10.0,0.0
5882,74.0,120,120,2.0,0.0
5883,58.0,0,120,3.0,0.0
5884,60.0,0,120,3.0,0.0
5885,38.0,12,210,10.0,0.0
5886,26.0,0,210,10.0,0.0
5887,76.0,108,120,2.0,0.0
5888,62.0,120,120,3.0,0.0
5889,77.0,0,120,2.0,0.0
5890,79.0,12,210,2.0,0.0
5891,36.0,0,210,10.0,0.0
5892,24.0,0,210,10.0,0.0
5893,60.0,0,210,3.0,0.0
5894,72.0,0,120,4.0,0.0
5895,55.0,120,120,0.0,0.0
5896,77.0,24,420,6.0,0.0
5897,70.0,0,120,4.0,0.0
5898,48.0,0,210,5.0,0.0
5899,53.0,0,210,8.0,0.0
5900,72.0,0,210,7.0,0.0
5901,29.0,0,210,10.0,0.0
5902,41.0,12,210,1.0,0.0
5903,41.0,0,210,10.0,0.0
5904,57.0,108,120,0.0,0.0
5905,65.0,0,210,3.0,0.0
5906,77.0,0,420,2.0,0.0
5907,58.0,0,120,0.0,0.0
5908,69.0,120,120,4.0,0.0
5909,48.0,0,210,10.0,0.0
5910,67.0,84,120,4.0,0.0
5911,48.0,0,210,1.0,0.0
5912,60.0,6,600,5.0,0.0
5913,72.0,0,210,7.0,0.0
5914,60.0,24,330,3.0,0.0
5915,60.0,24,420,0.0,0.0
5916,55.0,0,210,8.0,0.0
5917,36.0,12,210,10.0,0.0
5918,69.0,0,120,4.0,0.0
5919,53.0,96,120,0.0,0.0
5920,55.0,0,120,0.0,0.0
5921,67.0,0,210,8.0,0.0
5922,36.0,0,210,1.0,0.0
5923,36.0,0,210,10.0,0.0
5924,70.0,84,120,4.0,0.0
5925,76.0,0,210,6.0,0.0
5926,24.0,12,210,10.0,0.0
5927,76.0,0,210,2.0,0.0
5928,72.0,0,210,7.0,0.0
5929,52.0,66,120,0.0,0.0
5930,58.0,0,120,3.0,0.0
5931,67.0,0,120,4.0,0.0
5932,77.0,0,120,2.0,0.0
5933,53.0,0,210,10.0,0.0
5934,41.0,0,210,10.0,0.0
5935,77.0,0,210,6.0,0.0
5936,48.0,54,60,0.0,0.0
5937,69.0,0,210,8.0,0.0
5938,41.0,12,210,1.0,0.0
5939,72.0,0,210,7.0,0.0
5940,69.0,24,420,4.0,0.0
5941,57.0,0,120,3.0,0.0
5942,58.0,60,60,0.0,0.0
5943,58.0,0,120,5.0,0.0
5944,57.0,42,60,0.0,0.0
5945,72.0,0,120,2.0,0.0
5946,57.0,6,120,3.0,0.0
5947,55.0,114,60,0.0,0.0
5948,74.0,0,120,2.0,0.0
5949,59.0,0,120,3.0,0.0
5950,52.0,0,210,10.0,0.0
5951,40.0,12,210,10.0,0.0
5952,53.0,0,210,0.0,0.0
5953,57.0,84,120,5.0,0.0
5954,60.0,0,120,3.0,0.0
5955,55.0,0,120,5.0,0.0
5956,76.0,120,120,2.0,0.0
5957,38.0,0,210,10.0,0.0
5958,50.0,12,210,10.0,0.0
5959,62.0,0,690,3.0,0.0
5960,77.0,108,600,2.0,0.0
5961,57.0,108,120,5.0,0.0
5962,53.0,0,120,5.0,0.0
5963,69.0,120,120,4.0,0.0
5964,55.0,0,120,5.0,0.0
5965,71.0,108,120,4.0,0.0
5966,36.0,12,210,10.0,0.0
5967,48.0,0,210,10.0,0.0
5968,57.0,0,120,5.0,0.0
5969,72.0,120,120,4.0,0.0
5970,47.0,0,210,10.0,0.0
5971,55.0,0,210,5.0,0.0
5972,35.0,12,210,10.0,0.0
5973,74.0,0,210,4.0,0.0
5974,79.0,120,120,2.0,0.0
5975,62.0,0,120,0.0,0.0
5976,77.0,0,120,2.0,0.0
5977,48.0,0,210,1.0,0.0
5978,72.0,0,420,4.0,0.0
5979,64.0,108,120,0.0,0.0
5980,67.0,12,210,7.0,0.0
5981,36.0,0,210,10.0,0.0
5982,55.0,0,210,3.0,0.0
5983,48.0,0,210,10.0,0.0
5984,60.0,0,210,5.0,0.0
5985,60.0,0,210,8.0,0.0
5986,72.0,24,420,6.0,0.0
5987,76.0,120,120,2.0,0.0
5988,65.0,0,120,0.0,0.0
5989,55.0,0,210,10.0,0.0
5990,62.0,12,210,8.0,0.0
5991,67.0,0,600,0.0,0.0
5992,67.0,0,210,7.0,0.0
5993,55.0,24,330,5.0,0.0
5994,74.0,84,120,2.0,0.0
5995,55.0,0,210,1.0,0.0
5996,43.0,0,210,10.0,0.0
5997,67.0,0,600,3.0,0.0
5998,60.0,96,120,0.0,0.0
5999,76.0,0,120,2.0,0.0
6000,71.0,0,210,6.0,0.0
6001,62.0,0,210,8.0,0.0
6002,43.0,12,210,10.0,0.0
6003,67.0,0,210,7.0,0.0
6004,62.0,0,120,0.0,0.0
6005,43.0,0,210,1.0,0.0
6006,71.0,0,210,4.0,0.0
6007,31.0,0,210,10.0,0.0
6008,77.0,108,120,2.0,0.0
6009,74.0,120,120,2.0,0.0
6010,53.0,0,120,5.0,0.0
6011,59.0,0,120,0.0,0.0
6012,64.0,0,210,8.0,0.0
6013,52.0,0,120,5.0,0.0
6014,67.0,0,210,7.0,0.0
6015,36.0,0,210,10.0,0.0
6016,48.0,0,210,10.0,0.0
6017,64.0,108,120,0.0,0.0
6018,72.0,0,600,4.0,0.0
6019,72.0,12,210,6.0,0.0
6020,48.0,0,120,1.0,0.0
6021,76.0,0,600,2.0,0.0
6022,53.0,0,120,3.0,0.0
6023,64.0,0,120,0.0,0.0
6024,50.0,120,120,5.0,0.0
6025,79.0,0,120,0.0,0.0
6026,48.0,108,120,5.0,0.0
6027,52.0,0,120,3.0,0.0
6028,66.0,0,120,0.0,0.0
6029,47.0,12,210,10.0,0.0
6030,81.0,0,120,0.0,0.0
6031,35.0,0,210,10.0,0.0
6032,47.0,0,120,5.0,0.0
6033,67.0,0,120,0.0,0.0
6034,50.0,0,120,3.0,0.0
6035,83.0,120,120,0.0,0.0
6036,69.0,0,690,0.0,0.0
6037,84.0,108,600,0.0,0.0
6038,45.0,0,120,5.0,0.0
6039,48.0,108,120,3.0,0.0
6040,45.0,12,210,10.0,0.0
6041,33.0,0,210,10.0,0.0
6042,60.0,120,120,3.0,0.0
6043,74.0,0,120,4.0,0.0
6044,47.0,0,120,5.0,0.0
6045,76.0,0,120,2.0,0.0
6046,45.0,108,120,5.0,0.0
6047,72.0,0,120,4.0,0.0
6048,43.0,0,210,10.0,0.0
6049,78.0,0,120,2.0,0.0
6050,31.0,12,210,10.0,0.0
6051,62.0,0,120,3.0,0.0
6052,43.0,0,120,5.0,0.0
6053,71.0,0,120,4.0,0.0
6054,64.0,120,120,3.0,0.0
6055,79.0,0,120,2.0,0.0
6056,42.0,0,210,10.0,0.0
6057,81.0,12,210,2.0,0.0
6058,69.0,0,120,4.0,0.0
6059,42.0,0,210,5.0,0.0
6060,66.0,0,120,3.0,0.0
6061,30.0,0,210,10.0,0.0
6062,83.0,0,120,0.0,0.0
6063,62.0,120,120,4.0,0.0
6064,62.0,0,120,3.0,0.0
6065,31.0,0,210,10.0,0.0
6066,59.0,108,120,3.0,0.0
6067,74.0,0,210,7.0,0.0
6068,43.0,0,210,10.0,0.0
6069,43.0,0,210,5.0,0.0
6070,84.0,0,120,0.0,0.0
6071,74.0,0,210,4.0,0.0
6072,67.0,0,210,8.0,0.0
6073,79.0,24,420,6.0,0.0
6074,62.0,12,210,0.0,0.0
6075,79.0,0,420,2.0,0.0
6076,83.0,120,120,0.0,0.0
6077,55.0,0,120,3.0,0.0
6078,38.0,0,210,10.0,0.0
6079,74.0,0,210,7.0,0.0
6080,74.0,18,690,0.0,0.0
6081,69.0,0,210,8.0,0.0
6082,84.0,0,120,0.0,0.0
6083,50.0,0,210,10.0,0.0
6084,57.0,84,120,3.0,0.0
6085,50.0,12,210,5.0,0.0
6086,74.0,24,420,4.0,0.0
6087,83.0,120,120,0.0,0.0
6088,67.0,0,120,4.0,0.0
6089,62.0,0,120,3.0,0.0
6090,74.0,12,210,7.0,0.0
6091,69.0,0,210,8.0,0.0
6092,78.0,0,210,2.0,0.0
6093,78.0,0,210,6.0,0.0
6094,84.0,84,120,0.0,0.0
6095,38.0,0,210,10.0,0.0
6096,69.0,0,120,4.0,0.0
6097,38.0,0,210,5.0,0.0
6098,26.0,0,210,10.0,0.0
6099,60.0,0,120,3.0,0.0
6100,81.0,0,120,0.0,0.0
6101,66.0,66,120,4.0,0.0
6102,62.0,0,120,3.0,0.0
6103,62.0,60,60,4.0,0.0
6104,43.0,0,210,5.0,0.0
6105,67.0,0,210,8.0,0.0
6106,79.0,0,210,2.0,0.0
6107,83.0,72,870,6.0,0.0
6108,55.0,0,210,3.0,0.0
6109,83.0,0,870,0.0,0.0
6110,74.0,0,210,7.0,0.0
6111,72.0,60,60,4.0,0.0
6112,71.0,42,60,4.0,0.0
6113,69.0,114,60,4.0,0.0
6114,67.0,0,210,4.0,0.0
6115,43.0,108,120,1.0,0.0
6116,74.0,12,210,2.0,0.0
6117,43.0,0,120,5.0,0.0
6118,43.0,0,120,10.0,0.0
6119,31.0,0,120,10.0,0.0
6120,43.0,0,120,3.0,0.0
6121,74.0,0,210,7.0,0.0
6122,42.0,0,120,10.0,0.0
6123,30.0,0,120,10.0,0.0
6124,42.0,0,120,1.0,0.0
6125,42.0,120,120,5.0,0.0
6126,42.0,0,120,3.0,0.0
6127,43.0,0,120,5.0,0.0
6128,31.0,0,120,10.0,0.0
6129,79.0,0,210,7.0,0.0
6130,43.0,0,120,10.0,0.0
6131,79.0,12,210,2.0,0.0
6132,43.0,0,120,3.0,0.0
6133,43.0,108,120,1.0,0.0
6134,45.0,0,120,1.0,0.0
6135,45.0,0,120,10.0,0.0
6136,45.0,0,120,3.0,0.0
6137,33.0,0,120,10.0,0.0
6138,45.0,120,120,5.0,0.0
6139,47.0,0,120,5.0,0.0
6140,47.0,0,120,3.0,0.0
6141,79.0,12,210,7.0,0.0
6142,47.0,0,120,1.0,0.0
6143,35.0,0,120,10.0,0.0
6144,79.0,0,210,2.0,0.0
6145,47.0,36,120,10.0,0.0
6146,48.0,0,120,3.0,0.0
6147,48.0,0,120,5.0,0.0
6148,36.0,0,120,10.0,0.0
6149,48.0,120,120,1.0,0.0
6150,48.0,0,120,10.0,0.0
6151,79.0,12,210,7.0,0.0
6152,79.0,0,210,2.0,0.0
6153,50.0,0,120,10.0,0.0
6154,81.0,12,1170,6.0,0.0
6155,81.0,0,1170,0.0,0.0
6156,50.0,0,120,5.0,0.0
6157,50.0,0,120,1.0,0.0
6158,38.0,0,120,10.0,0.0
6159,50.0,108,120,3.0,0.0
6160,49.0,0,120,10.0,0.0
6161,49.0,0,120,1.0,0.0
6162,49.0,0,120,3.0,0.0
6163,49.0,0,120,5.0,0.0
6164,37.0,120,120,10.0,0.0
6165,50.0,0,120,1.0,0.0
6166,69.0,12,210,8.0,0.0
6167,78.0,0,120,7.0,0.0
6168,78.0,0,120,2.0,0.0
6169,69.0,0,210,4.0,0.0
6170,50.0,108,120,3.0,0.0
6171,38.0,0,120,10.0,0.0
6172,50.0,0,120,10.0,0.0
6173,50.0,0,120,5.0,0.0
6174,52.0,0,120,5.0,0.0
6175,52.0,0,120,1.0,0.0
6176,76.0,0,120,7.0,0.0
6177,52.0,0,120,3.0,0.0
6178,76.0,0,120,2.0,0.0
6179,52.0,0,120,10.0,0.0
6180,40.0,120,120,10.0,0.0
6181,42.0,0,120,10.0,0.0
6182,74.0,0,210,8.0,0.0
6183,74.0,0,120,2.0,0.0
6184,54.0,108,120,1.0,0.0
6185,54.0,0,120,5.0,0.0
6186,74.0,0,120,7.0,0.0
6187,54.0,0,120,10.0,0.0
6188,74.0,12,210,4.0,0.0
6189,54.0,0,120,3.0,0.0
6190,40.0,120,120,10.0,0.0
6191,52.0,0,120,3.0,0.0
6192,76.0,0,120,2.0,0.0
6193,52.0,0,120,10.0,0.0
6194,76.0,0,120,7.0,0.0
6195,52.0,0,120,5.0,0.0
6196,52.0,0,120,1.0,0.0
6197,54.0,0,120,5.0,0.0
6198,54.0,0,120,1.0,0.0
6199,72.0,0,120,7.0,0.0
6200,74.0,12,210,8.0,0.0
6201,74.0,0,210,4.0,0.0
6202,54.0,0,120,10.0,0.0
6203,72.0,0,120,2.0,0.0
6204,54.0,108,120,3.0,0.0
6205,42.0,0,120,10.0,0.0
6206,50.0,0,120,3.0,0.0
6207,50.0,0,120,10.0,0.0
6208,74.0,120,120,7.0,0.0
6209,74.0,0,120,2.0,0.0
6210,50.0,0,120,1.0,0.0
6211,50.0,0,120,5.0,0.0
6212,38.0,0,120,10.0,0.0
6213,55.0,108,120,3.0,0.0
6214,55.0,0,120,5.0,0.0
6215,55.0,0,120,10.0,0.0
6216,71.0,0,600,7.0,0.0
6217,74.0,0,210,8.0,0.0
6218,55.0,0,120,1.0,0.0
6219,74.0,0,210,4.0,0.0
6220,71.0,0,120,2.0,0.0
6221,43.0,0,120,10.0,0.0
6222,54.0,0,120,5.0,0.0
6223,69.0,0,120,2.0,0.0
6224,54.0,120,120,10.0,0.0
6225,54.0,0,120,3.0,0.0
6226,42.0,0,120,10.0,0.0
6227,54.0,0,120,1.0,0.0
6228,76.0,120,120,8.0,0.0
6229,79.0,0,120,0.0,0.0
6230,55.0,0,120,3.0,0.0
6231,79.0,0,120,6.0,0.0
6232,43.0,0,120,10.0,0.0
6233,71.0,120,360,2.0,0.0
6234,55.0,0,120,5.0,0.0
6235,55.0,0,120,1.0,0.0
6236,55.0,0,120,10.0,0.0
6237,76.0,0,120,4.0,0.0
6238,57.0,0,120,10.0,0.0
6239,74.0,0,120,4.0,0.0
6240,78.0,0,120,0.0,0.0
6241,74.0,120,120,8.0,0.0
6242,78.0,0,120,6.0,0.0
6243,57.0,0,120,5.0,0.0
6244,57.0,0,120,1.0,0.0
6245,57.0,0,120,3.0,0.0
6246,45.0,0,120,10.0,0.0
6247,72.0,0,120,4.0,0.0
6248,76.0,0,120,0.0,0.0
6249,76.0,0,120,6.0,0.0
6250,55.0,0,120,10.0,0.0
6251,55.0,0,120,1.0,0.0
6252,55.0,0,120,3.0,0.0
6253,72.0,12,690,8.0,0.0
6254,55.0,0,120,5.0,0.0
6255,43.0,0,120,10.0,0.0
6256,67.0,0,120,7.0,0.0
6257,59.0,120,120,10.0,0.0
6258,59.0,0,120,5.0,0.0
6259,67.0,0,120,2.0,0.0
6260,47.0,0,120,10.0,0.0
6261,79.0,0,120,6.0,0.0
6262,59.0,0,120,3.0,0.0
6263,79.0,0,120,0.0,0.0
6264,71.0,0,120,4.0,0.0
6265,59.0,0,120,1.0,0.0
6266,72.0,0,450,4.0,0.0
6267,78.0,0,120,0.0,0.0
6268,57.0,0,120,10.0,0.0
6269,57.0,0,120,1.0,0.0
6270,69.0,0,120,7.0,0.0
6271,69.0,0,120,2.0,0.0
6272,45.0,0,120,10.0,0.0
6273,57.0,0,120,3.0,0.0
6274,57.0,120,120,5.0,0.0
6275,78.0,0,120,6.0,0.0
6276,55.0,0,120,3.0,0.0
6277,71.0,0,120,7.0,0.0
6278,55.0,0,120,10.0,0.0
6279,43.0,120,120,10.0,0.0
6280,76.0,0,120,0.0,0.0
6281,76.0,0,120,6.0,0.0
6282,55.0,0,120,1.0,0.0
6283,55.0,0,120,5.0,0.0
6284,71.0,0,120,2.0,0.0
6285,74.0,72,870,6.0,0.0
6286,54.0,0,120,1.0,0.0
6287,74.0,0,870,0.0,0.0
6288,54.0,0,120,5.0,0.0
6289,54.0,0,120,3.0,0.0
6290,54.0,0,120,10.0,0.0
6291,69.0,0,120,7.0,0.0
6292,69.0,0,120,2.0,0.0
6293,42.0,108,120,10.0,0.0
6294,78.0,120,120,7.0,0.0
6295,57.0,0,120,1.0,0.0
6296,57.0,0,120,5.0,0.0
6297,45.0,0,120,10.0,0.0
6298,57.0,0,120,10.0,0.0
6299,78.0,0,120,2.0,0.0
6300,57.0,0,120,3.0,0.0
6301,79.0,0,120,2.0,0.0
6302,79.0,0,120,7.0,0.0
6303,71.0,0,120,4.0,0.0
6304,38.0,120,120,10.0,0.0
6305,71.0,0,120,8.0,0.0
6306,50.0,0,120,10.0,0.0
6307,50.0,0,120,1.0,0.0
6308,50.0,0,120,3.0,0.0
6309,50.0,0,120,5.0,0.0
6310,54.0,0,120,3.0,0.0
6311,81.0,0,120,2.0,0.0
6312,54.0,0,120,10.0,0.0
6313,69.0,0,120,4.0,0.0
6314,81.0,0,120,7.0,0.0
6315,42.0,0,120,10.0,0.0
6316,54.0,120,120,5.0,0.0
6317,54.0,0,120,1.0,0.0
6318,69.0,0,120,8.0,0.0
6319,67.0,0,120,4.0,0.0
6320,43.0,0,120,10.0,0.0
6321,67.0,0,120,8.0,0.0
6322,83.0,12,210,7.0,0.0
6323,55.0,0,120,10.0,0.0
6324,55.0,0,120,3.0,0.0
6325,83.0,0,210,2.0,0.0
6326,55.0,0,120,1.0,0.0
6327,55.0,108,120,5.0,0.0
6328,66.0,0,120,4.0,0.0
6329,59.0,120,120,5.0,0.0
6330,59.0,0,120,3.0,0.0
6331,59.0,0,120,1.0,0.0
6332,47.0,0,120,10.0,0.0
6333,59.0,0,120,10.0,0.0
6334,66.0,0,120,8.0,0.0
6335,50.0,0,120,1.0,0.0
6336,50.0,0,120,3.0,0.0
6337,50.0,0,120,5.0,0.0
6338,67.0,0,120,8.0,0.0
6339,83.0,12,210,2.0,0.0
6340,38.0,0,120,10.0,0.0
6341,83.0,0,210,7.0,0.0
6342,50.0,36,120,10.0,0.0
6343,67.0,0,120,4.0,0.0
6344,54.0,0,120,1.0,0.0
6345,42.0,120,120,10.0,0.0
6346,62.0,0,120,4.0,0.0
6347,54.0,0,120,3.0,0.0
6348,62.0,0,120,8.0,0.0
6349,54.0,0,120,5.0,0.0
6350,54.0,0,120,10.0,0.0
6351,52.0,108,120,3.0,0.0
6352,83.0,0,210,7.0,0.0
6353,52.0,0,120,1.0,0.0
6354,52.0,0,120,5.0,0.0
6355,72.0,0,870,0.0,0.0
6356,52.0,0,120,10.0,0.0
6357,83.0,12,210,2.0,0.0
6358,72.0,72,870,6.0,0.0
6359,67.0,0,120,4.0,0.0
6360,67.0,0,120,8.0,0.0
6361,40.0,0,120,10.0,0.0
6362,55.0,120,120,5.0,0.0
6363,55.0,0,120,10.0,0.0
6364,66.0,0,120,8.0,0.0
6365,55.0,0,120,3.0,0.0
6366,55.0,0,120,1.0,0.0
6367,71.0,0,120,4.0,0.0
6368,43.0,0,120,10.0,0.0
6369,48.0,0,120,5.0,0.0
6370,48.0,0,120,1.0,0.0
6371,81.0,0,120,2.0,0.0
6372,81.0,0,120,7.0,0.0
6373,48.0,0,120,10.0,0.0
6374,36.0,0,120,10.0,0.0
6375,64.0,0,120,4.0,0.0
6376,64.0,0,360,8.0,0.0
6377,48.0,120,120,3.0,0.0
6378,52.0,0,120,10.0,0.0
6379,67.0,0,120,4.0,0.0
6380,40.0,0,120,10.0,0.0
6381,52.0,0,120,1.0,0.0
6382,52.0,0,120,3.0,0.0
6383,79.0,0,120,2.0,0.0
6384,52.0,120,120,5.0,0.0
6385,79.0,0,120,7.0,0.0
6386,81.0,0,210,7.0,0.0
6387,54.0,108,120,1.0,0.0
6388,42.0,0,120,10.0,0.0
6389,60.0,0,120,4.0,0.0
6390,54.0,0,120,10.0,0.0
6391,81.0,12,210,2.0,0.0
6392,54.0,0,120,5.0,0.0
6393,54.0,0,120,3.0,0.0
6394,57.0,0,120,5.0,0.0
6395,66.0,0,120,4.0,0.0
6396,66.0,0,120,8.0,0.0
6397,57.0,0,120,10.0,0.0
6398,57.0,0,120,1.0,0.0
6399,57.0,0,120,3.0,0.0
6400,45.0,120,120,10.0,0.0
6401,48.0,0,120,3.0,0.0
6402,81.0,0,210,7.0,0.0
6403,48.0,0,120,5.0,0.0
6404,36.0,0,120,10.0,0.0
6405,48.0,0,120,1.0,0.0
6406,81.0,12,210,2.0,0.0
6407,69.0,0,120,8.0,0.0
6408,69.0,36,120,4.0,0.0
6409,48.0,0,120,10.0,0.0
6410,52.0,0,120,3.0,0.0
6411,52.0,120,120,5.0,0.0
6412,52.0,0,120,1.0,0.0
6413,52.0,0,120,10.0,0.0
6414,40.0,0,120,10.0,0.0
6415,60.0,0,120,4.0,0.0
6416,60.0,0,120,8.0,0.0
6417,81.0,120,120,2.0,0.0
6418,38.0,0,120,10.0,0.0
6419,50.0,0,120,10.0,0.0
6420,71.0,0,870,6.0,0.0
6421,71.0,72,870,0.0,0.0
6422,81.0,0,120,7.0,0.0
6423,66.0,0,120,4.0,0.0
6424,66.0,0,120,8.0,0.0
6425,50.0,0,120,5.0,0.0
6426,50.0,0,120,1.0,0.0
6427,50.0,0,120,3.0,0.0
6428,42.0,0,120,10.0,0.0
6429,69.0,120,120,4.0,0.0
6430,74.0,0,120,7.0,0.0
6431,54.0,0,120,1.0,0.0
6432,69.0,0,120,8.0,0.0
6433,74.0,0,120,2.0,0.0
6434,54.0,0,120,10.0,0.0
6435,54.0,0,120,3.0,0.0
6436,54.0,0,120,5.0,0.0
6437,35.0,0,120,10.0,0.0
6438,76.0,120,120,2.0,0.0
6439,47.0,0,120,10.0,0.0
6440,47.0,0,120,1.0,0.0
6441,47.0,0,120,3.0,0.0
6442,47.0,0,120,5.0,0.0
6443,67.0,0,120,4.0,0.0
6444,67.0,0,120,8.0,0.0
6445,76.0,0,120,7.0,0.0
6446,66.0,0,120,4.0,0.0
6447,38.0,0,120,10.0,0.0
6448,50.0,0,120,3.0,0.0
6449,78.0,0,120,7.0,0.0
6450,50.0,0,120,10.0,0.0
6451,66.0,0,120,8.0,0.0
6452,78.0,120,120,2.0,0.0
6453,50.0,0,120,5.0,0.0
6454,50.0,0,120,1.0,0.0
6455,64.0,0,120,4.0,0.0
6456,79.0,12,210,2.0,0.0
6457,52.0,108,120,10.0,0.0
6458,64.0,12,690,8.0,0.0
6459,79.0,0,210,7.0,0.0
6460,52.0,0,120,1.0,0.0
6461,52.0,0,120,5.0,0.0
6462,40.0,0,120,10.0,0.0
6463,52.0,0,120,3.0,0.0
6464,43.0,0,120,10.0,0.0
6465,55.0,0,120,10.0,0.0
6466,55.0,0,120,1.0,0.0
6467,59.0,120,120,4.0,0.0
6468,55.0,0,120,5.0,0.0
6469,55.0,0,120,3.0,0.0
6470,47.0,36,120,1.0,0.0
6471,47.0,0,120,10.0,0.0
6472,47.0,0,120,5.0,0.0
6473,35.0,0,120,10.0,0.0
6474,64.0,0,120,4.0,0.0
6475,47.0,0,120,3.0,0.0
6476,79.0,0,210,2.0,0.0
6477,79.0,12,210,7.0,0.0
6478,38.0,120,120,10.0,0.0
6479,50.0,0,120,10.0,0.0
6480,62.0,0,120,4.0,0.0
6481,50.0,0,120,1.0,0.0
6482,50.0,0,120,5.0,0.0
6483,50.0,0,120,3.0,0.0
6484,79.0,0,210,2.0,0.0
6485,48.0,0,120,3.0,0.0
6486,79.0,0,210,7.0,0.0
6487,69.0,0,870,0.0,0.0
6488,36.0,108,120,10.0,0.0
6489,64.0,0,210,4.0,0.0
6490,69.0,84,870,6.0,0.0
6491,48.0,0,120,1.0,0.0
6492,48.0,0,120,5.0,0.0
6493,48.0,0,120,10.0,0.0
6494,52.0,120,120,1.0,0.0
6495,52.0,0,120,3.0,0.0
6496,52.0,0,120,5.0,0.0
6497,52.0,0,120,10.0,0.0
6498,40.0,0,120,10.0,0.0
6499,81.0,0,120,2.0,0.0
6500,33.0,108,120,10.0,0.0
6501,45.0,0,120,5.0,0.0
6502,60.0,0,210,4.0,0.0
6503,45.0,0,120,3.0,0.0
6504,60.0,12,210,8.0,0.0
6505,45.0,0,120,1.0,0.0
6506,45.0,0,120,10.0,0.0
6507,81.0,0,120,7.0,0.0
6508,79.0,120,120,2.0,0.0
6509,48.0,0,120,5.0,0.0
6510,48.0,0,120,3.0,0.0
6511,36.0,0,120,10.0,0.0
6512,48.0,0,120,10.0,0.0
6513,48.0,0,120,1.0,0.0
6514,79.0,0,120,7.0,0.0
6515,50.0,0,120,10.0,0.0
6516,50.0,108,120,5.0,0.0
6517,50.0,0,120,1.0,0.0
6518,78.0,0,120,2.0,0.0
6519,50.0,0,120,3.0,0.0
6520,38.0,0,120,10.0,0.0
6521,78.0,0,120,7.0,0.0
6522,57.0,12,210,4.0,0.0
6523,57.0,0,210,8.0,0.0
6524,42.0,120,120,10.0,0.0
6525,81.0,0,120,7.0,0.0
6526,81.0,0,120,2.0,0.0
6527,54.0,0,120,5.0,0.0
6528,54.0,0,120,3.0,0.0
6529,54.0,0,120,10.0,0.0
6530,54.0,0,120,1.0,0.0
6531,62.0,120,360,4.0,0.0
6532,62.0,0,360,8.0,0.0
6533,45.0,0,120,5.0,0.0
6534,33.0,0,120,10.0,0.0
6535,79.0,0,120,7.0,0.0
6536,45.0,0,120,3.0,0.0
6537,45.0,36,120,1.0,0.0
6538,79.0,0,120,2.0,0.0
6539,45.0,0,120,10.0,0.0
6540,48.0,0,120,3.0,0.0
6541,48.0,0,120,1.0,0.0
6542,36.0,0,120,10.0,0.0
6543,48.0,120,120,10.0,0.0
6544,78.0,0,120,2.0,0.0
6545,48.0,0,120,5.0,0.0
6546,78.0,0,120,7.0,0.0
6547,35.0,0,120,10.0,0.0
6548,79.0,0,120,7.0,0.0
6549,47.0,0,120,1.0,0.0
6550,47.0,0,120,10.0,0.0
6551,47.0,0,120,3.0,0.0
6552,67.0,0,600,6.0,0.0
6553,47.0,0,120,5.0,0.0
6554,67.0,0,600,0.0,0.0
6555,79.0,0,120,2.0,0.0
6556,74.0,0,120,7.0,0.0
6557,74.0,0,120,2.0,0.0
6558,50.0,0,120,10.0,0.0
6559,50.0,0,120,1.0,0.0
6560,67.0,0,120,4.0,0.0
6561,50.0,120,120,5.0,0.0
6562,67.0,0,120,8.0,0.0
6563,50.0,0,120,3.0,0.0
6564,38.0,0,120,10.0,0.0
6565,31.0,0,120,10.0,0.0
6566,71.0,0,120,2.0,0.0
6567,71.0,0,120,7.0,0.0
6568,43.0,0,120,1.0,0.0
6569,62.0,0,120,4.0,0.0
6570,62.0,0,120,8.0,0.0
6571,43.0,0,120,3.0,0.0
6572,43.0,120,120,5.0,0.0
6573,43.0,0,120,10.0,0.0
6574,47.0,0,120,10.0,0.0
6575,35.0,0,120,10.0,0.0
6576,47.0,0,120,1.0,0.0
6577,47.0,0,120,5.0,0.0
6578,74.0,120,120,2.0,0.0
6579,47.0,0,120,3.0,0.0
6580,59.0,0,120,4.0,0.0
6581,74.0,0,120,7.0,0.0
6582,59.0,0,120,8.0,0.0
6583,76.0,0,120,2.0,0.0
6584,48.0,0,120,5.0,0.0
6585,76.0,0,120,7.0,0.0
6586,36.0,0,120,10.0,0.0
6587,55.0,0,210,8.0,0.0
6588,48.0,108,120,1.0,0.0
6589,55.0,12,210,4.0,0.0
6590,48.0,0,120,10.0,0.0
6591,48.0,0,120,3.0,0.0
6592,69.0,0,120,6.0,0.0
6593,69.0,0,120,0.0,0.0
6594,52.0,0,120,10.0,0.0
6595,74.0,0,120,7.0,0.0
6596,52.0,0,120,3.0,0.0
6597,52.0,120,120,1.0,0.0
6598,52.0,0,120,5.0,0.0
6599,74.0,0,120,2.0,0.0
6600,40.0,0,120,10.0,0.0
6601,67.0,120,120,0.0,0.0
6602,67.0,0,360,8.0,0.0
6603,76.0,0,120,2.0,0.0
6604,43.0,0,120,3.0,0.0
6605,43.0,0,120,10.0,0.0
6606,43.0,0,120,1.0,0.0
6607,31.0,0,120,10.0,0.0
6608,76.0,0,120,7.0,0.0
6609,67.0,0,120,6.0,0.0
6610,43.0,0,120,5.0,0.0
6611,67.0,0,360,4.0,0.0
6612,48.0,0,120,1.0,0.0
6613,69.0,0,120,0.0,0.0
6614,72.0,0,120,7.0,0.0
6615,69.0,120,120,6.0,0.0
6616,48.0,0,120,5.0,0.0
6617,72.0,0,120,2.0,0.0
6618,36.0,0,120,10.0,0.0
6619,48.0,0,120,10.0,0.0
6620,48.0,0,120,3.0,0.0
6621,47.0,0,120,3.0,0.0
6622,47.0,0,120,10.0,0.0
6623,67.0,0,600,6.0,0.0
6624,47.0,0,120,5.0,0.0
6625,74.0,0,120,2.0,0.0
6626,67.0,0,600,0.0,0.0
6627,47.0,0,120,1.0,0.0
6628,74.0,120,120,7.0,0.0
6629,35.0,0,120,10.0,0.0
6630,62.0,0,120,8.0,0.0
6631,50.0,0,120,3.0,0.0
6632,38.0,0,120,10.0,0.0
6633,50.0,0,120,10.0,0.0
6634,62.0,0,120,4.0,0.0
6635,50.0,0,120,5.0,0.0
6636,50.0,120,120,1.0,0.0
6637,79.0,0,120,2.0,0.0
6638,79.0,0,120,7.0,0.0
6639,59.0,0,120,8.0,0.0
6640,74.0,0,120,7.0,0.0
6641,43.0,0,120,5.0,0.0
6642,31.0,0,120,10.0,0.0
6643,43.0,120,120,1.0,0.0
6644,43.0,0,120,10.0,0.0
6645,59.0,0,120,4.0,0.0
6646,43.0,0,120,3.0,0.0
6647,74.0,0,120,2.0,0.0
6648,47.0,0,120,1.0,0.0
6649,35.0,0,120,10.0,0.0
6650,71.0,0,120,7.0,0.0
6651,62.0,0,120,4.0,0.0
6652,47.0,0,120,10.0,0.0
6653,62.0,120,120,8.0,0.0
6654,71.0,0,120,2.0,0.0
6655,47.0,0,120,5.0,0.0
6656,47.0,0,120,3.0,0.0
6657,64.0,0,120,4.0,0.0
6658,67.0,0,120,7.0,0.0
6659,48.0,0,120,1.0,0.0
6660,48.0,0,120,5.0,0.0
6661,48.0,0,120,10.0,0.0
6662,64.0,12,210,8.0,0.0
6663,48.0,0,120,3.0,0.0
6664,67.0,108,120,2.0,0.0
6665,36.0,0,120,10.0,0.0
6666,69.0,0,120,0.0,0.0
6667,72.0,0,120,2.0,0.0
6668,52.0,0,120,10.0,0.0
6669,40.0,120,120,10.0,0.0
6670,67.0,0,120,4.0,0.0
6671,69.0,0,120,6.0,0.0
6672,52.0,0,120,3.0,0.0
6673,72.0,0,120,7.0,0.0
6674,52.0,0,120,5.0,0.0
6675,52.0,0,120,1.0,0.0
6676,67.0,0,120,6.0,0.0
6677,43.0,0,120,1.0,0.0
6678,64.0,0,120,4.0,0.0
6679,60.0,12,210,8.0,0.0
6680,67.0,0,120,7.0,0.0
6681,43.0,0,120,3.0,0.0
6682,31.0,0,120,10.0,0.0
6683,43.0,0,120,5.0,0.0
6684,67.0,0,120,2.0,0.0
6685,67.0,108,120,0.0,0.0
6686,43.0,0,120,10.0,0.0
6687,48.0,0,120,3.0,0.0
6688,36.0,0,120,10.0,0.0
6689,48.0,0,120,5.0,0.0
6690,48.0,0,120,10.0,0.0
6691,64.0,0,120,2.0,0.0
6692,69.0,66,120,0.0,0.0
6693,69.0,0,120,6.0,0.0
6694,64.0,0,120,7.0,0.0
6695,48.0,0,120,1.0,0.0
6696,60.0,0,120,4.0,0.0
6697,47.0,0,210,5.0,0.0
6698,55.0,0,210,4.0,0.0
6699,62.0,0,210,2.0,0.0
6700,67.0,0,210,6.0,0.0
6701,55.0,0,210,8.0,0.0
6702,47.0,18,210,1.0,0.0
6703,47.0,0,210,10.0,0.0
6704,62.0,0,210,7.0,0.0
6705,47.0,0,210,3.0,0.0
6706,35.0,0,210,10.0,0.0
6707,67.0,60,60,0.0,0.0
6708,62.0,60,60,0.0,0.0
6709,64.0,42,60,0.0,0.0
6710,66.0,60,60,0.0,0.0
6711,67.0,60,60,0.0,0.0
6712,69.0,60,60,0.0,0.0
6713,71.0,60,60,0.0,0.0
6714,72.0,60,60,0.0,0.0
6715,74.0,60,60,0.0,0.0
6716,72.0,60,60,0.0,0.0
6717,55.0,60,60,1.0,0.0
6718,71.0,0,60,0.0,0.0
6719,72.0,0,60,0.0,0.0
6720,57.0,60,60,1.0,0.0
6721,74.0,60,60,0.0,0.0
6722,59.0,0,60,1.0,0.0
6723,60.0,0,60,1.0,0.0
6724,76.0,60,60,0.0,0.0
6725,62.0,0,60,1.0,0.0
6726,77.0,60,60,0.0,0.0
6727,79.0,0,60,0.0,0.0
6728,64.0,60,60,1.0,0.0
6729,80.0,60,60,0.0,0.0
6730,65.0,0,210,1.0,0.0
6731,38.0,0,210,10.0,0.0
6732,71.0,0,210,6.0,0.0
6733,50.0,0,210,10.0,0.0
6734,65.0,0,210,7.0,0.0
6735,62.0,18,210,8.0,0.0
6736,79.0,60,60,0.0,0.0
6737,77.0,42,60,0.0,0.0
6738,76.0,114,60,0.0,0.0
6739,68.0,12,210,1.0,0.0
6740,77.0,108,120,0.0,0.0
6741,74.0,120,120,0.0,0.0
6742,83.0,108,120,0.0,0.0
6743,65.0,12,210,1.0,0.0
6744,74.0,120,120,0.0,0.0
6745,77.0,108,120,0.0,0.0
6746,62.0,12,210,1.0,0.0
6747,71.0,66,120,0.0,0.0
6748,68.0,0,210,7.0,0.0
6749,35.0,0,210,10.0,0.0
6750,74.0,0,210,6.0,0.0
6751,65.0,18,210,1.0,0.0
6752,47.0,0,210,10.0,0.0
6753,74.0,60,60,0.0,0.0
6754,65.0,0,210,8.0,0.0
6755,72.0,60,60,0.0,0.0
6756,71.0,42,60,0.0,0.0
6757,69.0,114,60,0.0,0.0
6758,62.0,12,210,1.0,0.0
6759,71.0,108,120,0.0,0.0
6760,65.0,120,120,0.0,0.0
6761,56.0,12,210,1.0,0.0
6762,74.0,108,120,0.0,0.0
6763,65.0,120,120,0.0,0.0
6764,68.0,108,120,0.0,0.0
6765,53.0,12,210,1.0,0.0
6766,62.0,66,120,0.0,0.0
6767,62.0,0,210,7.0,0.0
6768,65.0,60,60,0.0,0.0
6769,43.0,0,210,10.0,0.0
6770,31.0,0,210,10.0,0.0
6771,77.0,0,210,6.0,0.0
6772,59.0,0,210,8.0,0.0
6773,59.0,18,210,1.0,0.0
6774,63.0,60,60,0.0,0.0
6775,62.0,42,60,0.0,0.0
6776,60.0,114,60,0.0,0.0
6777,50.0,12,210,1.0,0.0
6778,43.0,0,210,10.0,0.0
6779,62.0,108,120,0.0,0.0
6780,67.0,0,210,7.0,0.0
6781,47.0,0,210,1.0,0.0
6782,31.0,0,210,10.0,0.0
6783,43.0,0,210,1.0,0.0
6784,62.0,0,210,8.0,0.0
6785,71.0,0,210,6.0,0.0
6786,59.0,120,120,0.0,0.0
6787,65.0,12,210,7.0,0.0
6788,31.0,0,210,10.0,0.0
6789,71.0,0,210,6.0,0.0
6790,68.0,108,120,0.0,0.0
6791,43.0,0,210,10.0,0.0
6792,50.0,0,210,1.0,0.0
6793,47.0,0,210,1.0,0.0
6794,62.0,0,210,8.0,0.0
6795,43.0,0,210,1.0,0.0
6796,62.0,120,120,0.0,0.0
6797,55.0,0,210,8.0,0.0
6798,71.0,0,210,6.0,0.0
6799,43.0,12,210,10.0,0.0
6800,50.0,0,210,1.0,0.0
6801,47.0,0,210,1.0,0.0
6802,43.0,0,210,1.0,0.0
6803,31.0,0,210,10.0,0.0
6804,65.0,108,120,0.0,0.0
6805,65.0,0,210,7.0,0.0
6806,59.0,66,120,0.0,0.0
6807,63.0,60,60,0.0,0.0
6808,63.0,0,210,7.0,0.0
6809,48.0,0,210,1.0,0.0
6810,55.0,0,210,8.0,0.0
6811,36.0,0,210,10.0,0.0
6812,72.0,18,210,6.0,0.0
6813,48.0,0,210,10.0,0.0
6814,55.0,60,60,0.0,0.0
6815,57.0,42,60,0.0,0.0
6816,59.0,60,60,0.0,0.0
6817,60.0,60,60,0.0,0.0
6818,62.0,60,60,0.0,0.0
6819,63.0,60,60,0.0,0.0
6820,65.0,60,60,0.0,0.0
6821,67.0,60,60,0.0,0.0
6822,65.0,60,60,0.0,0.0
6823,63.0,0,60,0.0,0.0
6824,48.0,60,60,1.0,0.0
6825,50.0,60,60,1.0,0.0
6826,65.0,0,60,0.0,0.0
6827,67.0,0,60,0.0,0.0
6828,51.0,60,60,1.0,0.0
6829,68.0,0,60,0.0,0.0
6830,53.0,60,60,1.0,0.0
6831,55.0,0,60,1.0,0.0
6832,70.0,60,60,0.0,0.0
6833,56.0,60,60,1.0,0.0
6834,72.0,0,60,0.0,0.0
6835,58.0,0,210,1.0,0.0
6836,58.0,0,210,7.0,0.0
6837,73.0,60,60,0.0,0.0
6838,55.0,18,210,8.0,0.0
6839,31.0,0,210,10.0,0.0
6840,43.0,0,210,10.0,0.0
6841,64.0,0,210,6.0,0.0
6842,72.0,60,60,0.0,0.0
6843,70.0,42,60,0.0,0.0
6844,69.0,114,60,0.0,0.0
6845,70.0,108,120,0.0,0.0
6846,61.0,12,210,1.0,0.0
6847,67.0,120,120,0.0,0.0
6848,58.0,12,210,1.0,0.0
6849,76.0,108,120,0.0,0.0
6850,67.0,120,120,0.0,0.0
6851,55.0,12,210,1.0,0.0
6852,70.0,108,120,0.0,0.0
6853,64.0,66,120,0.0,0.0
6854,67.0,60,60,0.0,0.0
6855,67.0,18,210,6.0,0.0
6856,58.0,0,210,1.0,0.0
6857,40.0,0,210,10.0,0.0
6858,58.0,0,210,8.0,0.0
6859,28.0,0,210,10.0,0.0
6860,61.0,0,210,7.0,0.0
6861,65.0,60,60,0.0,0.0
6862,64.0,42,60,0.0,0.0
6863,62.0,114,60,0.0,0.0
6864,64.0,108,120,0.0,0.0
6865,55.0,12,210,1.0,0.0
6866,58.0,120,120,0.0,0.0
6867,49.0,12,210,1.0,0.0
6868,67.0,108,120,0.0,0.0
6869,58.0,120,120,0.0,0.0
6870,46.0,12,210,1.0,0.0
6871,61.0,108,120,0.0,0.0
6872,55.0,66,120,0.0,0.0
6873,52.0,0,210,1.0,0.0
6874,36.0,0,210,10.0,0.0
6875,52.0,18,210,8.0,0.0
6876,55.0,0,210,7.0,0.0
6877,24.0,0,210,10.0,0.0
6878,70.0,0,210,6.0,0.0
6879,58.0,60,60,0.0,0.0
6880,56.0,60,60,0.0,0.0
6881,55.0,42,60,0.0,0.0
6882,53.0,114,60,0.0,0.0
6883,48.0,0,210,1.0,0.0
6884,43.0,12,210,1.0,0.0
6885,24.0,0,210,10.0,0.0
6886,40.0,0,210,1.0,0.0
6887,36.0,0,210,1.0,0.0
6888,64.0,0,210,6.0,0.0
6889,55.0,108,120,0.0,0.0
6890,60.0,0,210,7.0,0.0
6891,36.0,0,210,10.0,0.0
6892,55.0,0,210,8.0,0.0
6893,52.0,120,120,0.0,0.0
6894,64.0,0,210,6.0,0.0
6895,40.0,0,210,1.0,0.0
6896,43.0,0,210,1.0,0.0
6897,48.0,0,210,1.0,0.0
6898,36.0,0,210,1.0,0.0
6899,36.0,12,210,10.0,0.0
6900,55.0,0,210,8.0,0.0
6901,58.0,0,210,7.0,0.0
6902,24.0,0,210,10.0,0.0
6903,61.0,108,120,0.0,0.0
6904,55.0,120,120,0.0,0.0
6905,64.0,0,210,6.0,0.0
6906,58.0,108,120,0.0,0.0
6907,24.0,0,210,10.0,0.0
6908,48.0,0,210,8.0,0.0
6909,58.0,0,210,7.0,0.0
6910,36.0,0,210,1.0,0.0
6911,40.0,0,210,1.0,0.0
6912,43.0,0,210,1.0,0.0
6913,48.0,0,210,1.0,0.0
6914,36.0,12,210,10.0,0.0
6915,52.0,66,120,0.0,0.0
6916,41.0,0,210,10.0,0.0
6917,41.0,0,210,1.0,0.0
6918,48.0,0,210,1.0,0.0
6919,65.0,0,210,6.0,0.0
6920,56.0,60,60,0.0,0.0
6921,56.0,0,210,7.0,0.0
6922,48.0,18,210,8.0,0.0
6923,29.0,0,210,10.0,0.0
6924,60.0,60,60,0.0,0.0
6925,62.0,42,60,0.0,0.0
6926,64.0,60,60,0.0,0.0
6927,65.0,60,60,0.0,0.0
6928,64.0,60,60,0.0,0.0
6929,65.0,60,60,0.0,0.0
6930,67.0,60,60,0.0,0.0
6931,68.0,60,60,0.0,0.0
6932,48.0,60,60,1.0,0.0
6933,67.0,0,60,0.0,0.0
6934,65.0,60,60,0.0,0.0
6935,50.0,0,60,1.0,0.0
6936,52.0,0,60,1.0,0.0
6937,67.0,60,60,0.0,0.0
6938,53.0,0,60,1.0,0.0
6939,68.0,60,60,0.0,0.0
6940,67.0,60,60,0.0,0.0
6941,52.0,0,60,1.0,0.0
6942,53.0,0,60,1.0,0.0
6943,68.0,60,60,0.0,0.0
6944,70.0,60,60,0.0,0.0
6945,55.0,0,60,1.0,0.0
6946,41.0,0,210,10.0,0.0
6947,29.0,18,210,10.0,0.0
6948,72.0,60,60,0.0,0.0
6949,60.0,72,1830,8.0,0.0
6950,65.0,0,3540,7.0,0.0
6951,56.0,0,210,1.0,0.0
6952,68.0,6,3540,6.0,0.0
6953,70.0,60,60,0.0,0.0
6954,68.0,42,60,0.0,0.0
6955,67.0,114,60,0.0,0.0
6956,29.0,12,210,10.0,0.0
6957,68.0,108,120,0.0,0.0
6958,41.0,0,210,10.0,0.0
6959,53.0,0,210,1.0,0.0
6960,65.0,120,120,0.0,0.0
6961,41.0,0,210,10.0,0.0
6962,72.0,108,120,0.0,0.0
6963,56.0,0,210,1.0,0.0
6964,29.0,12,210,10.0,0.0
6965,68.0,120,120,0.0,0.0
6966,60.0,0,210,1.0,0.0
6967,29.0,0,210,10.0,0.0
6968,77.0,108,120,0.0,0.0
6969,41.0,12,210,10.0,0.0
6970,72.0,66,120,0.0,0.0
6971,65.0,0,210,1.0,0.0
6972,80.0,60,60,0.0,0.0
6973,29.0,18,210,10.0,0.0
6974,41.0,0,210,10.0,0.0
6975,79.0,60,60,0.0,0.0
6976,77.0,42,60,0.0,0.0
6977,76.0,114,60,0.0,0.0
6978,77.0,108,120,0.0,0.0
6979,60.0,0,210,1.0,0.0
6980,41.0,0,210,10.0,0.0
6981,29.0,12,210,10.0,0.0
6982,80.0,120,120,0.0,0.0
6983,72.0,66,120,0.0,0.0
6984,29.0,0,210,10.0,0.0
6985,41.0,0,210,10.0,0.0
6986,56.0,18,210,1.0,0.0
6987,77.0,42,60,0.0,0.0
6988,76.0,114,60,0.0,0.0
6989,29.0,0,210,10.0,0.0
6990,77.0,36,120,0.0,0.0
6991,53.0,0,210,1.0,0.0
6992,41.0,12,210,10.0,0.0
6993,72.0,120,120,0.0,0.0
6994,61.0,0,1620,8.0,0.0
6995,29.0,18,210,10.0,0.0
6996,68.0,66,120,0.0,0.0
6997,41.0,0,210,10.0,0.0
6998,73.0,0,60,0.0,0.0
6999,65.0,42,60,1.0,0.0
7000,72.0,114,60,0.0,0.0
7001,63.0,0,60,1.0,0.0
7002,65.0,0,120,1.0,0.0
7003,73.0,108,120,0.0,0.0
7004,29.0,12,210,10.0,0.0
7005,41.0,0,210,10.0,0.0
7006,61.0,0,120,1.0,0.0
7007,68.0,120,120,0.0,0.0
7008,65.0,108,120,0.0,0.0
7009,29.0,0,210,10.0,0.0
7010,41.0,12,210,10.0,0.0
7011,56.0,0,120,1.0,0.0
7012,61.0,0,120,0.0,0.0
7013,53.0,120,120,1.0,0.0
7014,41.0,12,210,10.0,0.0
7015,68.0,0,120,0.0,0.0
7016,29.0,0,210,10.0,0.0
7017,49.0,108,120,1.0,0.0
7018,54.0,120,120,1.0,0.0
7019,60.0,0,120,0.0,0.0
7020,41.0,0,210,10.0,0.0
7021,29.0,18,210,10.0,0.0
7022,61.0,66,120,0.0,0.0
7023,53.0,0,210,1.0,0.0
7024,65.0,42,60,0.0,0.0
7025,61.0,114,60,0.0,0.0
7026,29.0,18,210,10.0,0.0
7027,56.0,66,120,1.0,0.0
7028,41.0,0,210,10.0,0.0
7029,61.0,42,60,1.0,0.0
7030,56.0,114,60,1.0,0.0
7031,29.0,18,210,10.0,0.0
7032,41.0,0,210,10.0,0.0
7033,53.0,60,120,1.0,0.0
7034,56.0,42,60,1.0,0.0
7035,53.0,114,60,1.0,0.0
7036,29.0,0,210,10.0,0.0
7037,61.0,12,210,8.0,0.0
7038,49.0,66,120,1.0,0.0
7039,79.0,0,120,6.0,0.0
7040,41.0,0,210,10.0,0.0
7041,68.0,0,210,7.0,0.0
7042,53.0,42,60,1.0,0.0
7043,77.0,6,120,6.0,0.0
7044,49.0,114,60,1.0,0.0
7045,74.0,0,210,6.0,0.0
7046,62.0,0,210,8.0,0.0
7047,68.0,0,210,7.0,0.0
7048,29.0,12,210,10.0,0.0
7049,47.0,108,120,1.0,0.0
7050,41.0,0,210,10.0,0.0
7051,50.0,120,120,1.0,0.0
7052,53.0,108,120,1.0,0.0
7053,56.0,0,210,10.0,0.0
7054,44.0,12,210,10.0,0.0
7055,56.0,120,120,1.0,0.0
7056,53.0,0,210,10.0,0.0
7057,41.0,12,210,10.0,0.0
7058,62.0,108,120,0.0,0.0
7059,65.0,120,120,0.0,0.0
7060,50.0,12,210,10.0,0.0
7061,59.0,108,120,0.0,0.0
7062,38.0,0,210,10.0,0.0
7063,62.0,120,120,0.0,0.0
7064,47.0,0,210,10.0,0.0
7065,74.0,0,210,7.0,0.0
7066,65.0,0,210,8.0,0.0
7067,35.0,0,210,10.0,0.0
7068,80.0,12,210,6.0,0.0
7069,53.0,108,120,1.0,0.0
7070,59.0,120,120,1.0,0.0
7071,62.0,108,120,1.0,0.0
7072,41.0,12,210,10.0,0.0
7073,53.0,0,210,10.0,0.0
7074,65.0,120,120,0.0,0.0
7075,68.0,108,120,0.0,0.0
7076,50.0,0,210,10.0,0.0
7077,38.0,12,210,10.0,0.0
7078,74.0,120,120,0.0,0.0
7079,65.0,108,120,0.0,0.0
7080,35.0,0,210,10.0,0.0
7081,47.0,12,210,10.0,0.0
7082,68.0,120,120,0.0,0.0
7083,43.0,12,210,10.0,0.0
7084,62.0,108,120,1.0,0.0
7085,31.0,0,210,10.0,0.0
7086,65.0,120,120,1.0,0.0
7087,67.0,0,210,7.0,0.0
7088,71.0,12,210,6.0,0.0
7089,71.0,108,120,1.0,0.0
7090,62.0,0,210,8.0,0.0
7091,31.0,0,210,10.0,0.0
7092,43.0,0,210,10.0,0.0
7093,74.0,120,120,0.0,0.0
7094,77.0,108,120,0.0,0.0
7095,67.0,0,210,7.0,0.0
7096,62.0,12,210,8.0,0.0
7097,71.0,0,210,6.0,0.0
7098,31.0,0,210,10.0,0.0
7099,43.0,0,210,10.0,0.0
7100,65.0,120,120,1.0,0.0
7101,80.0,0,120,0.0,0.0
7102,62.0,0,210,8.0,0.0
7103,31.0,0,210,10.0,0.0
7104,67.0,0,210,7.0,0.0
7105,71.0,0,210,6.0,0.0
7106,79.0,108,120,0.0,0.0
7107,63.0,0,120,1.0,0.0
7108,43.0,12,210,10.0,0.0
7109,77.0,66,120,0.0,0.0
7110,62.0,0,120,1.0,0.0
7111,36.0,0,210,10.0,0.0
7112,48.0,0,210,10.0,0.0
7113,60.0,18,210,1.0,0.0
7114,63.0,0,870,8.0,0.0
7115,67.0,30,870,7.0,0.0
7116,75.0,60,60,0.0,0.0
7117,72.0,18,2130,6.0,0.0
7118,77.0,60,60,0.0,0.0
7119,79.0,42,60,0.0,0.0
7120,77.0,60,60,0.0,0.0
7121,48.0,18,210,10.0,0.0
7122,75.0,60,60,0.0,0.0
7123,36.0,0,210,10.0,0.0
7124,74.0,60,60,0.0,0.0
7125,72.0,42,60,0.0,0.0
7126,71.0,60,60,0.0,0.0
7127,63.0,0,60,1.0,0.0
7128,72.0,60,60,0.0,0.0
7129,36.0,18,210,10.0,0.0
7130,48.0,0,210,10.0,0.0
7131,74.0,60,60,0.0,0.0
7132,65.0,0,60,1.0,0.0
7133,75.0,0,60,0.0,0.0
7134,67.0,42,60,1.0,0.0
7135,65.0,60,60,1.0,0.0
7136,74.0,0,60,0.0,0.0
7137,72.0,0,60,0.0,0.0
7138,63.0,60,60,1.0,0.0
7139,48.0,0,210,10.0,0.0
7140,36.0,18,210,10.0,0.0
7141,62.0,30,60,1.0,0.0
7142,70.0,0,60,0.0,0.0
7143,60.0,0,60,1.0,0.0
7144,68.0,42,60,0.0,0.0
7145,58.0,0,60,1.0,0.0
7146,67.0,60,60,0.0,0.0
7147,44.0,18,210,10.0,0.0
7148,65.0,30,870,7.0,0.0
7149,32.0,0,210,10.0,0.0
7150,65.0,60,540,0.0,0.0
7151,60.0,0,1170,8.0,0.0
7152,60.0,60,60,1.0,0.0
7153,48.0,60,60,1.0,0.0
7154,50.0,42,60,1.0,0.0
7155,52.0,60,60,1.0,0.0
7156,32.0,18,210,10.0,0.0
7157,44.0,0,210,10.0,0.0
7158,53.0,60,60,1.0,0.0
7159,55.0,60,60,1.0,0.0
7160,56.0,42,60,1.0,0.0
7161,58.0,60,60,1.0,0.0
7162,60.0,0,690,1.0,0.0
7163,32.0,18,210,10.0,0.0
7164,44.0,0,210,10.0,0.0
7165,64.0,60,60,0.0,0.0
7166,65.0,42,60,0.0,0.0
7167,67.0,60,60,0.0,0.0
7168,44.0,0,210,10.0,0.0
7169,32.0,18,210,10.0,0.0
7170,68.0,60,60,0.0,0.0
7171,70.0,30,60,0.0,0.0
7172,72.0,42,60,0.0,0.0
7173,74.0,60,60,0.0,0.0
7174,45.0,0,210,10.0,0.0
7175,75.0,60,60,0.0,0.0
7176,33.0,0,210,10.0,0.0
7177,66.0,0,210,7.0,0.0
7178,74.0,60,60,0.0,0.0
7179,72.0,42,60,0.0,0.0
7180,71.0,114,60,0.0,0.0
7181,63.0,12,210,1.0,0.0
7182,72.0,108,120,0.0,0.0
7183,69.0,120,120,0.0,0.0
7184,75.0,108,120,0.0,0.0
7185,60.0,12,210,1.0,0.0
7186,69.0,120,120,0.0,0.0
7187,72.0,108,120,0.0,0.0
7188,57.0,12,210,1.0,0.0
7189,66.0,66,120,0.0,0.0
7190,30.0,18,210,10.0,0.0
7191,75.0,0,210,6.0,0.0
7192,69.0,60,60,0.0,0.0
7193,42.0,0,210,10.0,0.0
7194,72.0,0,210,7.0,0.0
7195,60.0,0,210,1.0,0.0
7196,57.0,0,210,8.0,0.0
7197,67.0,60,60,0.0,0.0
7198,66.0,42,60,0.0,0.0
7199,64.0,114,60,0.0,0.0
7200,66.0,108,120,0.0,0.0
7201,57.0,12,210,1.0,0.0
7202,60.0,120,120,0.0,0.0
7203,69.0,108,120,0.0,0.0
7204,51.0,12,210,1.0,0.0
7205,60.0,120,120,0.0,0.0
7206,63.0,108,120,0.0,0.0
7207,48.0,12,210,1.0,0.0
7208,57.0,66,120,0.0,0.0
7209,54.0,0,210,1.0,0.0
7210,38.0,0,210,10.0,0.0
7211,26.0,18,210,10.0,0.0
7212,60.0,60,60,0.0,0.0
7213,58.0,60,60,0.0,0.0
7214,57.0,42,60,0.0,0.0
7215,55.0,114,60,0.0,0.0
7216,57.0,108,120,0.0,0.0
7217,45.0,0,210,1.0,0.0
7218,38.0,0,210,10.0,0.0
7219,72.0,0,210,7.0,0.0
7220,38.0,12,210,1.0,0.0
7221,69.0,0,210,8.0,0.0
7222,78.0,0,210,6.0,0.0
7223,42.0,0,210,1.0,0.0
7224,26.0,0,210,10.0,0.0
7225,54.0,120,120,0.0,0.0
7226,38.0,0,210,1.0,0.0
7227,42.0,0,210,1.0,0.0
7228,45.0,0,210,1.0,0.0
7229,63.0,108,120,0.0,0.0
7230,72.0,0,210,7.0,0.0
7231,38.0,0,210,10.0,0.0
7232,26.0,0,210,10.0,0.0
7233,78.0,12,210,6.0,0.0
7234,69.0,0,210,8.0,0.0
7235,57.0,120,120,0.0,0.0
7236,72.0,0,210,7.0,0.0
7237,62.0,0,210,8.0,0.0
7238,38.0,0,210,1.0,0.0
7239,26.0,0,210,10.0,0.0
7240,38.0,0,210,10.0,0.0
7241,78.0,0,210,6.0,0.0
7242,45.0,12,210,1.0,0.0
7243,42.0,0,210,1.0,0.0
7244,60.0,108,120,0.0,0.0
7245,54.0,120,120,0.0,0.0
7246,71.0,72,870,7.0,0.0
7247,43.0,108,120,1.0,0.0
7248,43.0,0,210,10.0,0.0
7249,79.0,0,1830,6.0,0.0
7250,62.0,0,870,8.0,0.0
7251,31.0,12,210,10.0,0.0
7252,47.0,120,120,1.0,0.0
7253,50.0,108,120,1.0,0.0
7254,43.0,0,210,10.0,0.0
7255,31.0,12,210,10.0,0.0
7256,54.0,120,120,1.0,0.0
7257,55.0,108,120,0.0,0.0
7258,43.0,0,210,10.0,0.0
7259,31.0,12,210,10.0,0.0
7260,59.0,120,120,0.0,0.0
7261,55.0,36,120,0.0,0.0
7262,43.0,0,210,10.0,0.0
7263,31.0,12,210,10.0,0.0
7264,62.0,120,120,0.0,0.0
7265,31.0,0,210,10.0,0.0
7266,43.0,108,120,1.0,0.0
7267,63.0,0,870,8.0,0.0
7268,72.0,72,870,7.0,0.0
7269,43.0,12,210,10.0,0.0
7270,48.0,120,120,1.0,0.0
7271,31.0,12,210,10.0,0.0
7272,43.0,0,210,10.0,0.0
7273,51.0,108,120,1.0,0.0
7274,54.0,120,120,1.0,0.0
7275,43.0,0,210,10.0,0.0
7276,55.0,108,120,0.0,0.0
7277,31.0,12,210,10.0,0.0
7278,60.0,120,120,0.0,0.0
7279,55.0,36,120,0.0,0.0
7280,31.0,0,210,10.0,0.0
7281,43.0,12,210,10.0,0.0
7282,63.0,120,120,0.0,0.0
7283,77.0,72,870,6.0,0.0
7284,43.0,108,120,1.0,0.0
7285,59.0,0,870,8.0,0.0
7286,74.0,0,870,7.0,0.0
7287,43.0,12,210,10.0,0.0
7288,31.0,0,210,10.0,0.0
7289,50.0,120,120,1.0,0.0
7290,31.0,12,210,10.0,0.0
7291,53.0,108,120,1.0,0.0
7292,43.0,0,210,10.0,0.0
7293,55.0,120,120,0.0,0.0
7294,31.0,12,210,10.0,0.0
7295,59.0,108,120,0.0,0.0
7296,43.0,0,210,10.0,0.0
7297,55.0,120,120,0.0,0.0
7298,59.0,36,120,0.0,0.0
7299,43.0,0,210,10.0,0.0
7300,31.0,12,210,10.0,0.0
7301,65.0,120,120,0.0,0.0
7302,60.0,0,1830,8.0,0.0
7303,75.0,24,2340,6.0,0.0
7304,67.0,72,870,7.0,0.0
7305,43.0,12,210,10.0,0.0
7306,43.0,108,120,1.0,0.0
7307,31.0,0,210,10.0,0.0
7308,48.0,120,120,1.0,0.0
7309,51.0,108,120,1.0,0.0
7310,31.0,0,210,10.0,0.0
7311,43.0,12,210,10.0,0.0
7312,55.0,120,120,0.0,0.0
7313,60.0,108,120,0.0,0.0
7314,31.0,12,210,10.0,0.0
7315,43.0,0,210,10.0,0.0
7316,63.0,120,120,0.0,0.0
7317,43.0,12,210,10.0,0.0
7318,60.0,36,120,0.0,0.0
7319,31.0,0,210,10.0,0.0
7320,67.0,120,120,0.0,0.0
7321,43.0,12,210,10.0,0.0
7322,31.0,0,210,10.0,0.0
7323,69.0,72,870,7.0,0.0
7324,43.0,108,120,1.0,0.0
7325,48.0,120,120,1.0,0.0
7326,51.0,108,120,1.0,0.0
7327,31.0,0,210,10.0,0.0
7328,43.0,12,210,10.0,0.0
7329,57.0,120,120,0.0,0.0
7330,31.0,12,210,10.0,0.0
7331,60.0,108,120,0.0,0.0
7332,43.0,0,210,10.0,0.0
7333,63.0,120,120,0.0,0.0
7334,60.0,36,120,0.0,0.0
7335,31.0,0,210,10.0,0.0
7336,43.0,12,210,10.0,0.0
7337,67.0,120,120,0.0,0.0
7338,31.0,0,210,10.0,0.0
7339,43.0,108,120,1.0,0.0
7340,57.0,0,870,8.0,0.0
7341,66.0,48,870,7.0,0.0
7342,43.0,12,210,10.0,0.0
7343,48.0,120,120,1.0,0.0
7344,51.0,84,120,1.0,0.0
7345,31.0,0,210,10.0,0.0
7346,43.0,12,210,10.0,0.0
7347,57.0,120,120,0.0,0.0
7348,60.0,108,120,0.0,0.0
7349,31.0,0,210,10.0,0.0
7350,43.0,12,210,10.0,0.0
7351,72.0,24,420,6.0,0.0
7352,63.0,120,120,0.0,0.0
7353,60.0,36,120,0.0,0.0
7354,31.0,0,210,10.0,0.0
7355,43.0,12,210,10.0,0.0
7356,66.0,120,120,0.0,0.0
7357,43.0,0,210,10.0,0.0
7358,31.0,12,210,10.0,0.0
7359,71.0,0,210,6.0,0.0
7360,67.0,0,210,7.0,0.0
7361,62.0,0,210,8.0,0.0
7362,43.0,108,120,1.0,0.0
7363,47.0,120,120,1.0,0.0
7364,50.0,120,120,1.0,0.0
7365,55.0,120,120,1.0,0.0
7366,59.0,120,120,0.0,0.0
7367,62.0,120,120,0.0,0.0
7368,67.0,120,120,0.0,0.0
7369,55.0,120,120,1.0,0.0
7370,59.0,120,120,1.0,0.0
7371,62.0,120,120,1.0,0.0
7372,67.0,120,120,1.0,0.0
7373,71.0,120,120,0.0,0.0
7374,74.0,120,120,0.0,0.0
7375,79.0,120,120,0.0,0.0
7376,80.0,120,120,0.0,0.0
7377,78.0,120,120,0.0,0.0
7378,79.0,120,120,0.0,0.0
7379,75.0,120,120,0.0,0.0
7380,77.0,120,120,0.0,0.0
7381,74.0,120,120,0.0,0.0
7382,75.0,120,120,0.0,0.0
7383,72.0,120,120,0.0,0.0
7384,73.0,120,120,0.0,0.0
7385,71.0,120,120,0.0,0.0
7386,72.0,120,120,0.0,0.0
7387,68.0,120,120,0.0,0.0
7388,66.0,120,120,0.0,0.0
7389,67.0,120,120,0.0,0.0
7390,62.0,120,120,0.0,0.0
7391,63.0,120,120,0.0,0.0
7392,59.0,120,120,0.0,0.0
7393,60.0,120,120,0.0,0.0
7394,55.0,120,120,1.0,0.0
7395,63.0,120,120,1.0,0.0
7396,59.0,120,120,1.0,0.0
7397,60.0,120,120,1.0,0.0
7398,55.0,120,120,1.0,0.0
7399,56.0,120,120,1.0,0.0
7400,53.0,120,120,1.0,0.0
7401,55.0,120,120,1.0,0.0
7402,51.0,120,120,1.0,0.0
7403,60.0,120,120,1.0,0.0
7404,54.0,120,120,1.0,0.0
7405,55.0,120,120,1.0,0.0
7406,50.0,120,120,1.0,0.0
7407,51.0,120,120,1.0,0.0
7408,47.0,120,120,1.0,0.0
7409,48.0,120,120,1.0,0.0
7410,43.0,120,120,1.0,0.0
7411,51.0,120,120,1.0,0.0
7412,47.0,120,120,1.0,0.0
7413,48.0,120,120,1.0,0.0
7414,43.0,120,120,1.0,0.0
7415,44.0,120,120,1.0,0.0
7416,42.0,120,120,1.0,0.0
7417,43.0,360,120,1.0,0.0
7418,60.0,48,870,3.0,0.0
7419,48.0,0,870,10.0,0.0
7420,36.0,36,420,1.0,0.0
7421,60.0,0,870,10.0,0.0
7422,55.0,0,120,4.0,0.0
7423,52.0,84,120,5.0,0.0
7424,60.0,0,120,0.0,0.0
7425,60.0,0,120,6.0,0.0
7426,50.0,0,120,5.0,0.0
7427,59.0,120,120,0.0,0.0
7428,53.0,0,120,4.0,0.0
7429,59.0,0,120,6.0,0.0
7430,52.0,0,120,5.0,0.0
7431,60.0,0,120,0.0,0.0
7432,48.0,36,420,1.0,0.0
7433,55.0,0,120,4.0,0.0
7434,60.0,120,120,6.0,0.0
7435,62.0,0,120,6.0,0.0
7436,53.0,0,120,5.0,0.0
7437,62.0,0,120,0.0,0.0
7438,57.0,120,120,4.0,0.0
7439,64.0,0,120,6.0,0.0
7440,64.0,36,120,0.0,0.0
7441,55.0,0,120,5.0,0.0
7442,59.0,0,120,4.0,0.0
7443,57.0,0,120,5.0,0.0
7444,65.0,0,120,0.0,0.0
7445,60.0,0,120,4.0,0.0
7446,65.0,120,120,6.0,0.0
7447,67.0,0,120,6.0,0.0
7448,59.0,72,870,10.0,0.0
7449,59.0,0,870,3.0,0.0
7450,47.0,0,870,1.0,0.0
7451,67.0,0,120,0.0,0.0
7452,47.0,0,870,10.0,0.0
7453,62.0,12,210,4.0,0.0
7454,59.0,108,120,5.0,0.0
7455,66.0,0,120,0.0,0.0
7456,66.0,120,120,6.0,0.0
7457,57.0,0,120,5.0,0.0
7458,67.0,0,120,6.0,0.0
7459,67.0,108,120,0.0,0.0
7460,74.0,0,210,4.0,0.0
7461,62.0,0,210,7.0,0.0
7462,62.0,12,210,2.0,0.0
7463,59.0,0,120,5.0,0.0
7464,69.0,0,120,0.0,0.0
7465,60.0,0,120,5.0,0.0
7466,69.0,120,120,6.0,0.0
7467,67.0,0,210,7.0,0.0
7468,71.0,108,120,6.0,0.0
7469,67.0,12,210,2.0,0.0
7470,71.0,0,210,4.0,0.0
7471,62.0,0,120,5.0,0.0
7472,71.0,0,120,0.0,0.0
7473,69.0,0,120,6.0,0.0
7474,60.0,0,120,5.0,0.0
7475,69.0,120,120,0.0,0.0
7476,62.0,0,120,5.0,0.0
7477,71.0,36,120,0.0,0.0
7478,67.0,0,210,4.0,0.0
7479,67.0,12,210,2.0,0.0
7480,67.0,0,210,7.0,0.0
7481,71.0,0,120,6.0,0.0
7482,59.0,0,120,5.0,0.0
7483,67.0,0,120,0.0,0.0
7484,67.0,120,120,6.0,0.0
7485,72.0,0,120,0.0,0.0
7486,76.0,0,210,4.0,0.0
7487,45.0,30,870,10.0,0.0
7488,67.0,12,210,7.0,0.0
7489,57.0,0,870,10.0,0.0
7490,45.0,0,870,1.0,0.0
7491,60.0,108,120,5.0,0.0
7492,57.0,0,870,3.0,0.0
7493,72.0,0,120,6.0,0.0
7494,67.0,0,210,2.0,0.0
7495,71.0,0,120,0.0,0.0
7496,71.0,120,120,6.0,0.0
7497,64.0,0,120,5.0,0.0
7498,72.0,12,210,4.0,0.0
7499,66.0,0,120,7.0,0.0
7500,57.0,0,120,5.0,0.0
7501,66.0,0,120,2.0,0.0
7502,72.0,108,120,0.0,0.0
7503,72.0,0,120,6.0,0.0
7504,64.0,0,120,2.0,0.0
7505,64.0,0,120,7.0,0.0
7506,59.0,0,120,5.0,0.0
7507,74.0,0,120,0.0,0.0
7508,74.0,120,120,6.0,0.0
7509,72.0,0,120,6.0,0.0
7510,66.0,0,120,2.0,0.0
7511,66.0,120,120,7.0,0.0
7512,69.0,24,330,4.0,0.0
7513,72.0,0,120,0.0,0.0
7514,60.0,0,120,5.0,0.0
7515,76.0,0,120,6.0,0.0
7516,76.0,0,120,0.0,0.0
7517,67.0,0,120,2.0,0.0
7518,57.0,0,120,5.0,0.0
7519,67.0,96,120,7.0,0.0
7520,74.0,36,120,0.0,0.0
7521,64.0,0,120,2.0,0.0
7522,74.0,0,120,6.0,0.0
7523,59.0,0,120,5.0,0.0
7524,64.0,0,120,7.0,0.0
7525,66.0,0,120,7.0,0.0
7526,72.0,0,120,6.0,0.0
7527,60.0,6,120,5.0,0.0
7528,72.0,0,120,0.0,0.0
7529,66.0,0,120,2.0,0.0
7530,67.0,54,60,4.0,0.0
7531,69.0,114,60,4.0,0.0
7532,71.0,0,120,6.0,0.0
7533,71.0,0,120,0.0,0.0
7534,71.0,12,210,4.0,0.0
7535,43.0,0,120,10.0,0.0
7536,55.0,0,120,10.0,0.0
7537,55.0,0,120,3.0,0.0
7538,67.0,0,120,2.0,0.0
7539,62.0,0,120,5.0,0.0
7540,43.0,0,210,1.0,0.0
7541,67.0,108,120,7.0,0.0
7542,74.0,0,120,6.0,0.0
7543,71.0,0,120,2.0,0.0
7544,71.0,0,120,7.0,0.0
7545,57.0,120,120,10.0,0.0
7546,45.0,0,120,10.0,0.0
7547,65.0,0,120,5.0,0.0
7548,74.0,0,120,0.0,0.0
7549,50.0,0,120,3.0,0.0
7550,43.0,0,120,10.0,0.0
7551,72.0,0,120,2.0,0.0
7552,55.0,0,120,10.0,0.0
7553,72.0,0,120,7.0,0.0
7554,55.0,0,120,1.0,0.0
7555,67.0,0,120,6.0,0.0
7556,52.0,0,120,3.0,0.0
7557,64.0,0,120,5.0,0.0
7558,67.0,0,120,0.0,0.0
7559,62.0,120,120,5.0,0.0
7560,74.0,0,120,7.0,0.0
7561,71.0,0,120,6.0,0.0
7562,74.0,0,120,2.0,0.0
7563,53.0,0,120,1.0,0.0
7564,71.0,0,120,0.0,0.0
7565,53.0,0,120,3.0,0.0
7566,53.0,0,120,10.0,0.0
7567,41.0,0,120,10.0,0.0
7568,76.0,12,210,7.0,0.0
7569,55.0,0,120,3.0,0.0
7570,72.0,108,120,0.0,0.0
7571,40.0,0,120,10.0,0.0
7572,60.0,0,120,5.0,0.0
7573,67.0,0,600,8.0,0.0
7574,76.0,0,210,2.0,0.0
7575,52.0,0,120,1.0,0.0
7576,67.0,108,600,4.0,0.0
7577,52.0,0,120,10.0,0.0
7578,72.0,0,120,6.0,0.0
7579,50.0,0,120,10.0,0.0
7580,76.0,0,120,0.0,0.0
7581,55.0,120,120,5.0,0.0
7582,55.0,0,120,1.0,0.0
7583,76.0,0,120,6.0,0.0
7584,38.0,0,120,10.0,0.0
7585,60.0,0,120,3.0,0.0
7586,67.0,0,120,0.0,0.0
7587,67.0,108,120,6.0,0.0
7588,52.0,0,120,3.0,0.0
7589,52.0,0,120,1.0,0.0
7590,76.0,0,210,7.0,0.0
7591,60.0,0,120,5.0,0.0
7592,52.0,0,120,10.0,0.0
7593,40.0,0,120,10.0,0.0
7594,76.0,0,210,2.0,0.0
7595,71.0,0,120,0.0,0.0
7596,48.0,120,120,1.0,0.0
7597,52.0,0,120,5.0,0.0
7598,36.0,0,90,10.0,0.0
7599,71.0,0,120,6.0,0.0
7600,55.0,0,120,3.0,0.0
7601,48.0,0,90,10.0,0.0
7602,69.0,0,120,6.0,0.0
7603,53.0,0,600,3.0,0.0
7604,53.0,0,120,10.0,0.0
7605,76.0,0,210,7.0,0.0
7606,69.0,0,120,0.0,0.0
7607,41.0,0,120,10.0,0.0
7608,76.0,12,210,2.0,0.0
7609,53.0,0,120,1.0,0.0
7610,53.0,108,600,5.0,0.0
7611,72.0,0,120,0.0,0.0
7612,43.0,0,120,10.0,0.0
7613,55.0,0,120,10.0,0.0
7614,60.0,120,120,8.0,0.0
7615,72.0,0,120,6.0,0.0
7616,60.0,0,120,4.0,0.0
7617,41.0,0,120,1.0,0.0
7618,41.0,0,120,10.0,0.0
7619,53.0,108,120,1.0,0.0
7620,74.0,0,120,2.0,0.0
7621,65.0,0,120,0.0,0.0
7622,57.0,0,120,8.0,0.0
7623,74.0,0,120,7.0,0.0
7624,53.0,0,120,10.0,0.0
7625,65.0,0,120,6.0,0.0
7626,57.0,0,120,4.0,0.0
7627,52.0,0,90,10.0,0.0
7628,69.0,0,120,0.0,0.0
7629,69.0,0,120,6.0,0.0
7630,60.0,0,120,8.0,0.0
7631,72.0,0,120,7.0,0.0
7632,52.0,0,120,1.0,0.0
7633,60.0,0,120,4.0,0.0
7634,40.0,0,90,10.0,0.0
7635,72.0,120,120,2.0,0.0
7636,65.0,0,600,8.0,0.0
7637,50.0,0,120,10.0,0.0
7638,74.0,12,210,2.0,0.0
7639,71.0,0,120,6.0,0.0
7640,38.0,0,120,10.0,0.0
7641,74.0,0,210,7.0,0.0
7642,50.0,0,120,1.0,0.0
7643,65.0,0,600,4.0,0.0
7644,71.0,0,120,0.0,0.0
7645,53.0,0,120,5.0,0.0
7646,59.0,0,120,3.0,0.0
7647,53.0,0,120,1.0,0.0
7648,48.0,0,120,10.0,0.0
7649,36.0,120,120,10.0,0.0
7650,74.0,0,120,0.0,0.0
7651,74.0,0,120,6.0,0.0
7652,74.0,0,210,2.0,0.0
7653,65.0,0,120,0.0,0.0
7654,50.0,0,120,10.0,0.0
7655,65.0,0,120,6.0,0.0
7656,38.0,108,120,10.0,0.0
7657,50.0,0,120,1.0,0.0
7658,50.0,0,120,3.0,0.0
7659,59.0,0,120,5.0,0.0
7660,74.0,0,210,7.0,0.0
7661,53.0,120,120,3.0,0.0
7662,35.0,0,90,10.0,0.0
7663,50.0,0,120,5.0,0.0
7664,47.0,0,120,1.0,0.0
7665,69.0,0,120,6.0,0.0
7666,47.0,0,90,10.0,0.0
7667,69.0,0,120,0.0,0.0
7668,74.0,120,120,2.0,0.0
7669,74.0,0,120,7.0,0.0
7670,67.0,0,120,0.0,0.0
7671,52.0,0,600,5.0,0.0
7672,52.0,0,600,3.0,0.0
7673,52.0,0,120,10.0,0.0
7674,67.0,0,120,6.0,0.0
7675,40.0,0,120,10.0,0.0
7676,52.0,0,120,1.0,0.0
7677,53.0,0,120,10.0,0.0
7678,40.0,0,120,1.0,0.0
7679,41.0,0,120,10.0,0.0
7680,71.0,0,120,0.0,0.0
7681,59.0,120,120,8.0,0.0
7682,67.0,0,120,2.0,0.0
7683,67.0,0,120,7.0,0.0
7684,59.0,0,120,4.0,0.0
7685,71.0,0,120,6.0,0.0
7686,52.0,0,120,10.0,0.0
7687,69.0,0,120,2.0,0.0
7688,69.0,0,120,7.0,0.0
7689,55.0,0,120,8.0,0.0
7690,55.0,0,120,4.0,0.0
7691,64.0,0,120,6.0,0.0
7692,64.0,0,120,0.0,0.0
7693,40.0,0,120,10.0,0.0
7694,52.0,0,120,1.0,0.0
7695,67.0,120,120,6.0,0.0
7696,50.0,0,120,1.0,0.0
7697,38.0,0,120,10.0,0.0
7698,71.0,0,120,7.0,0.0
7699,71.0,0,120,2.0,0.0
7700,59.0,0,120,8.0,0.0
7701,50.0,0,120,10.0,0.0
7702,67.0,0,120,0.0,0.0
7703,59.0,0,120,4.0,0.0
7704,69.0,0,120,0.0,0.0
7705,36.0,0,120,10.0,0.0
7706,72.0,0,210,7.0,0.0
7707,64.0,0,600,4.0,0.0
7708,48.0,0,120,10.0,0.0
7709,72.0,12,210,2.0,0.0
7710,64.0,0,600,8.0,0.0
7711,48.0,0,120,1.0,0.0
7712,69.0,108,120,6.0,0.0
7713,72.0,0,120,6.0,0.0
7714,35.0,0,120,10.0,0.0
7715,57.0,120,120,3.0,0.0
7716,52.0,0,120,5.0,0.0
7717,72.0,0,120,0.0,0.0
7718,52.0,0,120,1.0,0.0
7719,47.0,0,120,10.0,0.0
7720,48.0,0,120,10.0,0.0
7721,48.0,0,120,3.0,0.0
7722,64.0,0,120,0.0,0.0
7723,57.0,0,120,5.0,0.0
7724,64.0,0,120,6.0,0.0
7725,72.0,12,210,7.0,0.0
7726,48.0,0,120,1.0,0.0
7727,36.0,108,120,10.0,0.0
7728,72.0,0,210,2.0,0.0
7729,52.0,0,120,3.0,0.0
7730,67.0,120,120,0.0,0.0
7731,48.0,0,120,5.0,0.0
7732,45.0,0,90,10.0,0.0
7733,33.0,0,90,10.0,0.0
7734,45.0,0,120,1.0,0.0
7735,67.0,0,120,6.0,0.0
7736,65.0,0,120,6.0,0.0
7737,72.0,12,210,2.0,0.0
7738,50.0,108,600,3.0,0.0
7739,38.0,0,120,10.0,0.0
7740,65.0,108,120,0.0,0.0
7741,50.0,0,600,5.0,0.0
7742,50.0,0,120,1.0,0.0
7743,72.0,0,210,7.0,0.0
7744,50.0,0,120,10.0,0.0
7745,69.0,0,120,6.0,0.0
7746,57.0,0,120,4.0,0.0
7747,69.0,0,120,0.0,0.0
7748,38.0,0,120,1.0,0.0
7749,40.0,120,120,10.0,0.0
7750,57.0,0,120,8.0,0.0
7751,52.0,0,120,10.0,0.0
7752,38.0,0,120,10.0,0.0
7753,50.0,0,120,1.0,0.0
7754,53.0,0,120,4.0,0.0
7755,62.0,0,120,6.0,0.0
7756,71.0,0,120,2.0,0.0
7757,53.0,0,120,8.0,0.0
7758,50.0,0,120,10.0,0.0
7759,62.0,0,120,0.0,0.0
7760,71.0,108,120,7.0,0.0
7761,69.0,0,120,7.0,0.0
7762,48.0,120,120,1.0,0.0
7763,65.0,0,120,0.0,0.0
7764,65.0,0,120,6.0,0.0
7765,69.0,0,120,2.0,0.0
7766,48.0,0,90,10.0,0.0
7767,36.0,0,90,10.0,0.0
7768,57.0,0,120,8.0,0.0
7769,57.0,0,120,4.0,0.0
7770,62.0,0,600,4.0,0.0
7771,67.0,0,600,7.0,0.0
7772,67.0,12,210,2.0,0.0
7773,67.0,0,120,6.0,0.0
7774,35.0,0,120,10.0,0.0
7775,67.0,0,120,0.0,0.0
7776,47.0,0,120,10.0,0.0
7777,62.0,0,600,8.0,0.0
7778,47.0,0,120,1.0,0.0
7779,71.0,0,120,0.0,0.0
7780,71.0,0,120,6.0,0.0
7781,45.0,0,120,10.0,0.0
7782,33.0,120,120,10.0,0.0
7783,55.0,0,120,3.0,0.0
7784,50.0,0,120,1.0,0.0
7785,50.0,0,120,5.0,0.0
7786,62.0,0,120,0.0,0.0
7787,62.0,0,120,6.0,0.0
7788,55.0,0,120,5.0,0.0
7789,79.0,108,360,2.0,0.0
7790,47.0,0,120,10.0,0.0
7791,47.0,0,120,3.0,0.0
7792,35.0,108,120,10.0,0.0
7793,47.0,0,120,1.0,0.0
7794,43.0,0,120,1.0,0.0
7795,65.0,0,120,6.0,0.0
7796,50.0,120,120,3.0,0.0
7797,43.0,0,90,10.0,0.0
7798,65.0,0,120,0.0,0.0
7799,31.0,0,90,10.0,0.0
7800,47.0,0,120,5.0,0.0
7801,64.0,0,120,6.0,0.0
7802,48.0,0,210,3.0,0.0
7803,48.0,0,210,10.0,0.0
7804,64.0,0,120,0.0,0.0
7805,48.0,0,120,1.0,0.0
7806,48.0,0,600,5.0,0.0
7807,36.0,0,210,10.0,0.0
7808,67.0,0,120,6.0,0.0
7809,55.0,0,120,4.0,0.0
7810,36.0,0,120,1.0,0.0
7811,55.0,120,120,8.0,0.0
7812,76.0,0,120,2.0,0.0
7813,67.0,0,120,0.0,0.0
7814,64.0,0,120,7.0,0.0
7815,52.0,0,120,4.0,0.0
7816,48.0,12,210,3.0,0.0
7817,72.0,108,120,2.0,0.0
7818,48.0,0,120,1.0,0.0
7819,52.0,0,120,8.0,0.0
7820,67.0,0,120,7.0,0.0
7821,60.0,0,120,0.0,0.0
7822,60.0,0,120,6.0,0.0
7823,67.0,0,120,2.0,0.0
7824,55.0,0,120,4.0,0.0
7825,64.0,0,120,0.0,0.0
7826,55.0,0,120,8.0,0.0
7827,64.0,0,120,6.0,0.0
7828,72.0,0,120,7.0,0.0
7829,46.0,120,120,1.0,0.0
7830,45.0,108,120,1.0,0.0
7831,65.0,0,120,6.0,0.0
7832,69.0,0,120,7.0,0.0
7833,60.0,0,210,8.0,0.0
7834,60.0,0,600,4.0,0.0
7835,48.0,12,210,3.0,0.0
7836,69.0,0,120,2.0,0.0
7837,65.0,0,120,0.0,0.0
7838,69.0,0,120,6.0,0.0
7839,65.0,0,120,2.0,0.0
7840,48.0,0,120,1.0,0.0
7841,45.0,0,120,5.0,0.0
7842,69.0,120,120,0.0,0.0
7843,65.0,0,120,7.0,0.0
7844,41.0,0,120,5.0,0.0
7845,36.0,0,210,3.0,0.0
7846,57.0,0,210,8.0,0.0
7847,69.0,0,120,7.0,0.0
7848,45.0,0,120,1.0,0.0
7849,48.0,0,210,10.0,0.0
7850,36.0,0,210,10.0,0.0
7851,69.0,0,120,2.0,0.0
7852,60.0,0,120,0.0,0.0
7853,60.0,108,120,6.0,0.0
7854,65.0,0,120,0.0,0.0
7855,72.0,0,120,7.0,0.0
7856,65.0,120,120,6.0,0.0
7857,36.0,0,120,5.0,0.0
7858,41.0,0,120,1.0,0.0
7859,72.0,0,120,2.0,0.0
7860,64.0,0,120,6.0,0.0
7861,48.0,0,120,1.0,0.0
7862,60.0,0,120,7.0,0.0
7863,48.0,0,600,5.0,0.0
7864,36.0,12,210,10.0,0.0
7865,64.0,108,120,0.0,0.0
7866,55.0,0,210,8.0,0.0
7867,67.0,0,120,2.0,0.0
7868,48.0,0,210,10.0,0.0
7869,36.0,120,120,1.0,0.0
7870,55.0,0,120,4.0,0.0
7871,67.0,0,120,0.0,0.0
7872,67.0,0,120,6.0,0.0
7873,64.0,0,120,7.0,0.0
7874,64.0,0,120,2.0,0.0
7875,24.0,0,210,10.0,0.0
7876,52.0,0,120,4.0,0.0
7877,67.0,0,120,2.0,0.0
7878,60.0,0,120,0.0,0.0
7879,67.0,0,120,7.0,0.0
7880,64.0,12,210,8.0,0.0
7881,48.0,108,120,1.0,0.0
7882,36.0,0,210,10.0,0.0
7883,48.0,0,210,3.0,0.0
7884,60.0,0,120,6.0,0.0
7885,72.0,0,120,7.0,0.0
7886,64.0,120,120,0.0,0.0
7887,72.0,0,120,2.0,0.0
7888,55.0,0,120,4.0,0.0
7889,64.0,0,120,6.0,0.0
7890,46.0,0,120,1.0,0.0
7891,65.0,0,120,7.0,0.0
7892,65.0,0,120,0.0,0.0
7893,65.0,108,120,6.0,0.0
7894,48.0,12,210,3.0,0.0
7895,65.0,0,120,2.0,0.0
7896,45.0,0,120,1.0,0.0
7897,60.0,0,600,4.0,0.0
7898,60.0,0,210,8.0,0.0
7899,69.0,120,120,6.0,0.0
7900,69.0,0,120,0.0,0.0
7901,45.0,0,120,5.0,0.0
7902,60.0,0,120,2.0,0.0
7903,48.0,0,120,1.0,0.0
7904,60.0,0,120,7.0,0.0
7905,60.0,0,120,0.0,0.0
7906,45.0,0,120,1.0,0.0
7907,65.0,0,120,2.0,0.0
7908,65.0,0,120,7.0,0.0
7909,36.0,0,210,3.0,0.0
7910,41.0,0,120,5.0,0.0
7911,36.0,0,210,10.0,0.0
7912,60.0,108,120,6.0,0.0
7913,48.0,0,210,10.0,0.0
7914,69.0,12,210,8.0,0.0
7915,65.0,0,120,6.0,0.0
7916,69.0,120,120,2.0,0.0
7917,41.0,0,120,1.0,0.0
7918,69.0,0,120,7.0,0.0
7919,65.0,0,120,0.0,0.0
7920,36.0,0,120,5.0,0.0
7921,36.0,0,210,10.0,0.0
7922,64.0,108,120,0.0,0.0
7923,48.0,0,210,3.0,0.0
7924,48.0,0,210,10.0,0.0
7925,64.0,0,120,6.0,0.0
7926,72.0,0,210,7.0,0.0
7927,67.0,0,210,8.0,0.0
7928,48.0,0,210,1.0,0.0
7929,48.0,12,210,5.0,0.0
7930,64.0,0,120,2.0,0.0
7931,60.0,0,120,4.0,0.0
7932,60.0,120,120,6.0,0.0
7933,60.0,0,120,0.0,0.0
7934,60.0,0,120,2.0,0.0
7935,62.0,0,120,2.0,0.0
7936,62.0,0,120,4.0,0.0
7937,62.0,0,120,0.0,0.0
7938,62.0,120,120,6.0,0.0
7939,64.0,120,120,6.0,0.0
7940,64.0,0,120,0.0,0.0
7941,64.0,0,120,4.0,0.0
7942,64.0,0,120,2.0,0.0
7943,65.0,0,120,0.0,0.0
7944,65.0,0,120,2.0,0.0
7945,65.0,120,120,4.0,0.0
7946,65.0,0,120,6.0,0.0
7947,67.0,120,120,2.0,0.0
7948,67.0,0,120,0.0,0.0
7949,67.0,0,120,6.0,0.0
7950,67.0,0,120,4.0,0.0
7951,69.0,0,120,2.0,0.0
7952,65.0,0,210,7.0,0.0
7953,50.0,0,210,1.0,0.0
7954,50.0,0,210,5.0,0.0
7955,69.0,108,120,6.0,0.0
7956,69.0,0,120,0.0,0.0
7957,50.0,0,210,3.0,0.0
7958,62.0,12,210,8.0,0.0
7959,50.0,0,210,10.0,0.0
7960,38.0,0,210,10.0,0.0
7961,69.0,0,120,4.0,0.0
7962,71.0,0,120,0.0,0.0
7963,71.0,228,120,4.0,0.0
7964,71.0,0,120,2.0,0.0
7965,71.0,0,120,6.0,0.0
7966,40.0,0,210,10.0,0.0
7967,72.0,0,210,6.0,0.0
7968,52.0,0,210,3.0,0.0
7969,72.0,240,210,0.0,0.0
7970,67.0,0,210,7.0,0.0
7971,52.0,0,210,5.0,0.0
7972,52.0,0,210,10.0,0.0
7973,52.0,0,210,1.0,0.0
7974,72.0,0,210,4.0,0.0
7975,72.0,0,210,2.0,0.0
7976,60.0,0,210,8.0,0.0
7977,65.0,0,210,0.0,0.0
7978,69.0,0,210,0.0,0.0
7979,65.0,0,210,8.0,0.0
7980,74.0,240,210,0.0,0.0
7981,53.0,0,210,3.0,0.0
7982,74.0,0,210,6.0,0.0
7983,53.0,0,210,1.0,0.0
7984,53.0,0,210,10.0,0.0
7985,74.0,0,210,4.0,0.0
7986,69.0,0,210,4.0,0.0
7987,69.0,0,210,7.0,0.0
7988,65.0,0,210,4.0,0.0
7989,41.0,0,210,10.0,0.0
7990,69.0,0,210,2.0,0.0
7991,65.0,0,210,2.0,0.0
7992,74.0,0,210,2.0,0.0
7993,53.0,0,210,5.0,0.0
7994,55.0,0,210,10.0,0.0
7995,67.0,0,210,4.0,0.0
7996,64.0,0,210,4.0,0.0
7997,64.0,0,210,8.0,0.0
7998,55.0,0,210,5.0,0.0
7999,55.0,0,210,3.0,0.0
8000,67.0,0,210,6.0,0.0
8001,64.0,0,210,0.0,0.0
8002,43.0,0,210,10.0,0.0
8003,67.0,132,210,0.0,0.0
8004,67.0,0,210,2.0,0.0
8005,55.0,0,210,1.0,0.0
8006,67.0,0,210,7.0,0.0
8007,64.0,0,210,2.0,0.0
8008,62.0,0,210,8.0,0.0
8009,43.0,0,210,10.0,0.0
8010,65.0,0,210,7.0,0.0
8011,62.0,0,210,0.0,0.0
8012,65.0,0,210,0.0,0.0
8013,43.0,0,120,5.0,0.0
8014,71.0,0,210,0.0,0.0
8015,43.0,0,120,3.0,0.0
8016,31.0,12,210,10.0,0.0
8017,62.0,0,210,2.0,0.0
8018,65.0,0,210,2.0,0.0
8019,71.0,0,210,6.0,0.0
8020,43.0,108,120,1.0,0.0
8021,71.0,0,210,2.0,0.0
8022,65.0,0,210,4.0,0.0
8023,62.0,0,210,4.0,0.0
8024,71.0,0,210,4.0,0.0
8025,50.0,0,120,1.0,0.0
8026,50.0,120,120,3.0,0.0
8027,50.0,0,120,5.0,0.0
8028,72.0,0,210,4.0,0.0
8029,67.0,0,210,4.0,0.0
8030,72.0,0,210,2.0,0.0
8031,67.0,0,210,2.0,0.0
8032,64.0,0,210,4.0,0.0
8033,60.0,0,210,4.0,0.0
8034,48.0,0,210,10.0,0.0
8035,64.0,0,210,7.0,0.0
8036,52.0,0,120,1.0,0.0
8037,67.0,0,210,0.0,0.0
8038,72.0,0,600,6.0,0.0
8039,72.0,0,600,0.0,0.0
8040,60.0,0,210,0.0,0.0
8041,64.0,0,210,0.0,0.0
8042,60.0,0,210,8.0,0.0
8043,36.0,12,210,10.0,0.0
8044,60.0,0,210,2.0,0.0
8045,52.0,108,120,3.0,0.0
8046,52.0,0,120,5.0,0.0
8047,64.0,0,210,2.0,0.0
8048,55.0,0,120,1.0,0.0
8049,55.0,0,120,3.0,0.0
8050,55.0,120,120,5.0,0.0
8051,70.0,12,210,2.0,0.0
8052,67.0,0,210,4.0,0.0
8053,67.0,0,210,8.0,0.0
8054,24.0,0,210,10.0,0.0
8055,48.0,108,120,1.0,0.0
8056,36.0,0,210,10.0,0.0
8057,48.0,0,120,3.0,0.0
8058,70.0,0,210,7.0,0.0
8059,48.0,0,120,5.0,0.0
8060,52.0,0,120,5.0,0.0
8061,52.0,0,120,1.0,0.0
8062,52.0,120,120,3.0,0.0
8063,69.0,0,330,2.0,0.0
8064,53.0,108,120,1.0,0.0
8065,36.0,0,210,10.0,0.0
8066,24.0,0,210,10.0,0.0
8067,65.0,24,330,4.0,0.0
8068,69.0,0,210,7.0,0.0
8069,53.0,0,120,5.0,0.0
8070,65.0,12,210,8.0,0.0
8071,53.0,0,120,3.0,0.0
8072,57.0,0,120,5.0,0.0
8073,57.0,96,120,3.0,0.0
8074,57.0,0,120,1.0,0.0
8075,74.0,0,120,6.0,0.0
8076,74.0,0,120,0.0,0.0
8077,65.0,12,210,7.0,0.0
8078,36.0,0,210,10.0,0.0
8079,48.0,0,120,3.0,0.0
8080,48.0,0,120,1.0,0.0
8081,57.0,0,210,8.0,0.0
8082,72.0,0,120,6.0,0.0
8083,72.0,0,120,0.0,0.0
8084,48.0,0,210,10.0,0.0
8085,48.0,66,120,5.0,0.0
8086,53.0,0,120,5.0,0.0
8087,74.0,0,120,0.0,0.0
8088,64.0,0,60,4.0,0.0
8089,70.0,42,60,2.0,0.0
8090,74.0,0,120,6.0,0.0
8091,53.0,6,120,3.0,0.0
8092,53.0,0,120,1.0,0.0
8093,65.0,114,60,4.0,0.0
8094,69.0,0,60,2.0,0.0
8095,60.0,12,210,8.0,0.0
8096,67.0,0,210,2.0,0.0
8097,52.0,0,120,5.0,0.0
8098,72.0,0,600,6.0,0.0
8099,52.0,0,120,1.0,0.0
8100,72.0,0,600,0.0,0.0
8101,52.0,108,120,3.0,0.0
8102,48.0,0,210,10.0,0.0
8103,36.0,0,210,10.0,0.0
8104,67.0,0,210,7.0,0.0
8105,72.0,0,210,4.0,0.0
8106,55.0,0,120,1.0,0.0
8107,55.0,0,120,5.0,0.0
8108,55.0,120,120,3.0,0.0
8109,70.0,0,210,7.0,0.0
8110,36.0,0,210,10.0,0.0
8111,48.0,0,120,3.0,0.0
8112,48.0,0,120,5.0,0.0
8113,67.0,0,210,4.0,0.0
8114,24.0,12,210,10.0,0.0
8115,48.0,108,120,1.0,0.0
8116,70.0,0,210,2.0,0.0
8117,67.0,0,210,8.0,0.0
8118,52.0,120,120,5.0,0.0
8119,52.0,0,120,3.0,0.0
8120,52.0,0,120,1.0,0.0
8121,69.0,0,330,2.0,0.0
8122,65.0,0,210,8.0,0.0
8123,69.0,0,210,7.0,0.0
8124,53.0,108,120,3.0,0.0
8125,65.0,24,330,4.0,0.0
8126,53.0,0,120,5.0,0.0
8127,36.0,12,210,10.0,0.0
8128,24.0,0,210,10.0,0.0
8129,53.0,0,120,1.0,0.0
8130,57.0,0,120,5.0,0.0
8131,74.0,0,120,0.0,0.0
8132,57.0,96,120,1.0,0.0
8133,57.0,0,120,3.0,0.0
8134,74.0,0,120,6.0,0.0
8135,48.0,12,210,10.0,0.0
8136,57.0,0,210,8.0,0.0
8137,48.0,0,120,3.0,0.0
8138,65.0,0,210,7.0,0.0
8139,48.0,0,120,5.0,0.0
8140,48.0,0,120,1.0,0.0
8141,36.0,0,210,10.0,0.0
8142,72.0,0,120,6.0,0.0
8143,72.0,66,120,0.0,0.0
8144,53.0,0,120,1.0,0.0
8145,53.0,0,120,3.0,0.0
8146,74.0,0,120,0.0,0.0
8147,74.0,6,120,6.0,0.0
8148,64.0,42,60,4.0,0.0
8149,53.0,0,120,5.0,0.0
8150,70.0,0,60,2.0,0.0
8151,69.0,0,60,2.0,0.0
8152,65.0,222,60,4.0,0.0
8153,52.0,0,210,3.0,0.0
8154,72.0,96,210,6.0,0.0
8155,60.0,0,210,8.0,0.0
8156,48.0,0,210,10.0,0.0
8157,36.0,0,210,10.0,0.0
8158,52.0,0,210,1.0,0.0
8159,67.0,0,210,7.0,0.0
8160,67.0,0,210,2.0,0.0
8161,52.0,0,210,5.0,0.0
8162,60.0,0,210,4.0,0.0
8163,72.0,0,210,0.0,0.0
8164,72.0,0,210,4.0,0.0
8165,67.0,0,210,4.0,0.0
8166,79.0,0,60,0.0,0.0
8167,64.0,80,60,1.0,0.0
8168,77.0,0,60,0.0,0.0
8169,62.0,80,60,1.0,0.0
8170,64.0,80,60,1.0,0.0
8171,79.0,0,60,0.0,0.0
8172,65.0,0,60,1.0,0.0
8173,81.0,80,60,0.0,0.0
8174,79.0,0,60,0.0,0.0
8175,64.0,80,60,1.0,0.0
8176,65.0,0,60,1.0,0.0
8177,81.0,80,60,0.0,0.0
8178,62.0,0,60,1.0,0.0
8179,83.0,80,60,0.0,0.0
8180,60.0,0,60,1.0,0.0
8181,81.0,80,60,0.0,0.0
8182,83.0,0,60,0.0,0.0
8183,62.0,224,60,1.0,0.0
8184,55.0,0,210,5.0,0.0
8185,52.0,0,210,5.0,0.0
8186,48.0,96,210,5.0,0.0
8187,24.0,0,210,10.0,0.0
8188,76.0,0,210,6.0,0.0
8189,84.0,0,210,0.0,0.0
8190,60.0,0,210,4.0,0.0
8191,64.0,0,210,4.0,0.0
8192,67.0,0,210,4.0,0.0
8193,64.0,0,210,1.0,0.0
8194,36.0,0,210,10.0,0.0
8195,67.0,0,210,8.0,0.0
8196,72.0,0,210,7.0,0.0
8197,55.0,0,60,3.0,0.0
8198,76.0,80,60,2.0,0.0
8199,74.0,0,60,2.0,0.0
8200,53.0,80,60,3.0,0.0
8201,76.0,0,60,2.0,0.0
8202,55.0,80,60,3.0,0.0
8203,77.0,0,60,2.0,0.0
8204,57.0,80,60,3.0,0.0
8205,76.0,0,60,2.0,0.0
8206,55.0,80,60,3.0,0.0
8207,77.0,0,60,2.0,0.0
8208,57.0,80,60,3.0,0.0
8209,59.0,80,60,3.0,0.0
8210,74.0,0,60,2.0,0.0
8211,72.0,0,60,2.0,0.0
8212,57.0,80,60,3.0,0.0
8213,74.0,0,60,2.0,0.0
8214,59.0,224,60,3.0,0.0
8215,60.0,0,210,1.0,0.0
8216,76.0,0,210,7.0,0.0
8217,48.0,96,210,10.0,0.0
8218,84.0,0,210,0.0,0.0
8219,72.0,0,210,0.0,0.0
8220,76.0,0,210,2.0,0.0
8221,76.0,0,210,0.0,0.0
8222,79.0,0,210,0.0,0.0
8223,36.0,0,210,10.0,0.0
8224,72.0,0,210,8.0,0.0
8225,60.0,0,210,3.0,0.0
8226,79.0,0,210,6.0,0.0
8227,64.0,0,210,1.0,0.0
8228,67.0,0,210,1.0,0.0
8229,67.0,0,60,4.0,0.0
8230,52.0,80,60,5.0,0.0
8231,65.0,80,60,4.0,0.0
8232,50.0,0,60,5.0,0.0
8233,52.0,80,60,5.0,0.0
8234,67.0,0,60,4.0,0.0
8235,69.0,80,60,4.0,0.0
8236,53.0,0,60,5.0,0.0
8237,67.0,0,60,4.0,0.0
8238,52.0,80,60,5.0,0.0
8239,53.0,80,60,5.0,0.0
8240,69.0,0,60,4.0,0.0
8241,71.0,80,60,4.0,0.0
8242,50.0,0,60,5.0,0.0
8243,69.0,80,60,4.0,0.0
8244,48.0,0,60,5.0,0.0
8245,50.0,224,60,5.0,0.0
8246,71.0,0,60,4.0,0.0
8247,72.0,0,210,7.0,0.0
8248,60.0,240,210,10.0,0.0
8249,76.0,0,210,6.0,0.0
8250,52.0,0,210,5.0,0.0
8251,67.0,0,210,8.0,0.0
8252,48.0,0,210,10.0,0.0
8253,72.0,0,210,4.0,0.0
8254,65.0,0,210,0.0,0.0
8255,69.0,0,210,0.0,0.0
8256,74.0,0,210,0.0,0.0
8257,65.0,0,210,8.0,0.0
8258,41.0,0,210,10.0,0.0
8259,53.0,0,210,10.0,0.0
8260,53.0,0,210,1.0,0.0
8261,65.0,0,210,2.0,0.0
8262,69.0,0,210,2.0,0.0
8263,69.0,0,210,7.0,0.0
8264,74.0,0,210,2.0,0.0
8265,74.0,0,210,4.0,0.0
8266,74.0,0,210,6.0,0.0
8267,65.0,0,210,4.0,0.0
8268,69.0,240,210,4.0,0.0
8269,53.0,0,210,3.0,0.0
8270,53.0,0,210,5.0,0.0
8271,55.0,0,210,3.0,0.0
8272,43.0,0,210,10.0,0.0
8273,67.0,0,210,2.0,0.0
8274,64.0,0,210,2.0,0.0
8275,67.0,0,210,7.0,0.0
8276,64.0,240,210,8.0,0.0
8277,55.0,0,210,5.0,0.0
8278,64.0,0,210,0.0,0.0
8279,67.0,0,210,0.0,0.0
8280,55.0,0,210,1.0,0.0
8281,64.0,0,210,4.0,0.0
8282,67.0,0,210,4.0,0.0
8283,67.0,0,210,6.0,0.0
8284,55.0,0,210,10.0,0.0
8285,62.0,0,210,2.0,0.0
8286,62.0,0,210,4.0,0.0
8287,65.0,0,210,4.0,0.0
8288,67.0,0,210,4.0,0.0
8289,31.0,0,210,10.0,0.0
8290,62.0,0,210,0.0,0.0
8291,43.0,888,210,3.0,0.0
8292,71.0,0,210,2.0,0.0
8293,67.0,0,210,2.0,0.0
8294,65.0,0,210,2.0,0.0
8295,71.0,0,210,4.0,0.0
8296,65.0,0,210,0.0,0.0
8297,43.0,0,210,10.0,0.0
8298,71.0,0,210,0.0,0.0
8299,71.0,0,210,6.0,0.0
8300,62.0,0,210,8.0,0.0
8301,67.0,0,210,7.0,0.0
8302,67.0,0,210,0.0,0.0
8303,43.0,0,210,1.0,0.0
8304,43.0,0,210,5.0,0.0
8305,24.0,0,870,10.0,0.0
8306,72.0,0,870,4.0,0.0
8307,67.0,0,870,4.0,0.0
8308,64.0,0,870,4.0,0.0
8309,60.0,0,870,4.0,0.0
8310,36.0,0,870,10.0,0.0
8311,67.0,0,870,7.0,0.0
8312,72.0,0,870,6.0,0.0
8313,48.0,0,870,1.0,0.0
8314,48.0,0,870,5.0,0.0
8315,36.0,0,870,1.0,0.0
8316,36.0,0,870,5.0,0.0
8317,60.0,0,870,0.0,0.0
8318,60.0,0,870,2.0,0.0
8319,64.0,0,870,2.0,0.0
8320,64.0,0,870,0.0,0.0
8321,67.0,0,870,0.0,0.0
8322,48.0,0,870,3.0,0.0
8323,36.0,0,870,3.0,0.0
8324,72.0,0,870,0.0,0.0
8325,64.0,0,870,8.0,0.0
8326,72.0,0,870,2.0,0.0
8327,67.0,0,870,2.0,0.0
