tick,type,numerator,denominator,clocks_per_click,notated_32nd_notes_per_beat,time,meta,track,tempo,program,channel,control,value,note,velocity
0,time_signature,3,4,24,8,0,1,0,,,,,,,
0,track_name,,,,,0,1,6,,,,,,,
0,program_change,,,,,0,0,6,,40,10,,,,
0,control_change,,,,,0,0,6,,,10,7,100,,
0,program_change,,,,,0,0,4,,70,7,,,,
0,control_change,,,,,0,0,12,,,7,7,100,,
0,program_change,,,,,0,0,12,,70,7,,,,
0,track_name,,,,,0,1,12,,,,,,,
0,track_name,,,,,0,1,7,,,,,,,
0,program_change,,,,,0,0,7,,41,11,,,,
0,control_change,,,,,0,0,7,,,11,7,100,,
0,control_change,,,,,0,0,9,,,4,7,100,,
0,program_change,,,,,0,0,9,,68,4,,,,
0,track_name,,,,,0,1,9,,,,,,,
0,track_name,,,,,0,1,10,,,,,,,
0,program_change,,,,,0,0,10,,68,5,,,,
0,control_change,,,,,0,0,10,,,5,7,100,,
0,track_name,,,,,0,1,8,,,,,,,
0,track_name,,,,,0,1,13,,,,,,,
0,program_change,,,,,0,0,13,,40,8,,,,
0,control_change,,,,,0,0,13,,,8,7,100,,
0,track_name,,,,,0,1,14,,,,,,,
0,control_change,,,,,0,0,4,,,7,7,100,,
0,track_name,,,,,0,1,15,,,,,,,
0,program_change,,,,,0,0,15,,41,11,,,,
0,control_change,,,,,0,0,15,,,11,7,100,,
0,control_change,,,,,0,0,3,,,6,7,100,,
0,program_change,,,,,0,0,3,,68,6,,,,
0,track_name,,,,,0,1,3,,,,,,,
0,track_name,,,,,0,1,5,,,,,,,
0,program_change,,,,,0,0,8,,42,12,,,,
0,program_change,,,,,0,0,5,,40,8,,,,
0,control_change,,,,,0,0,2,,,5,7,100,,
0,program_change,,,,,0,0,2,,68,5,,,,
0,track_name,,,,,0,1,2,,,,,,,
0,track_name,,,,,0,1,16,,,,,,,
0,program_change,,,,,0,0,16,,42,12,,,,
0,control_change,,,,,0,0,16,,,12,7,100,,
0,control_change,,,,,0,0,14,,,10,7,100,,
0,program_change,,,,,0,0,14,,40,10,,,,
0,control_change,,,,,0,0,5,,,8,7,100,,
0,control_change,,,,,0,0,8,,,12,7,100,,
0,track_name,,,,,0,1,4,,,,,,,
0,program_change,,,,,0,0,1,,68,4,,,,
0,set_tempo,,,,,0,1,0,535714,,,,,,
0,control_change,,,,,0,0,11,,,6,7,100,,
0,control_change,,,,,0,0,1,,,4,7,100,,
0,program_change,,,,,0,0,11,,68,6,,,,
0,track_name,,,,,0,1,11,,,,,,,
0,track_name,,,,,0,1,1,,,,,,,
0,marker,,,,,0,1,0,,,,,,,
705,note_on,,,,,705,0,6,,,10,,,74,66
709,note_on,,,,,709,0,1,,,4,,,78,66
710,note_on,,,,,710,0,5,,,8,,,78,76
712,note_on,,,,,712,0,7,,,11,,,69,72
715,note_on,,,,,715,0,4,,,7,,,62,74
715,note_on,,,,,715,0,2,,,5,,,74,63
718,note_on,,,,,718,0,8,,,12,,,62,78
728,note_on,,,,,728,0,3,,,6,,,69,66
806,note_off,,,,,97,0,1,,,4,,,78,64
811,note_off,,,,,101,0,5,,,8,,,78,64
819,note_on,,,,,8,0,5,,,8,,,79,76
819,note_on,,,,,13,0,1,,,4,,,79,72
826,note_on,,,,,111,0,4,,,7,,,61,57
829,note_on,,,,,111,0,8,,,12,,,61,63
834,note_off,,,,,106,0,3,,,6,,,69,64
834,note_off,,,,,8,0,4,,,7,,,62,64
840,note_off,,,,,128,0,7,,,11,,,69,64
843,note_off,,,,,14,0,8,,,12,,,62,64
877,note_off,,,,,172,0,6,,,10,,,74,64
912,note_off,,,,,197,0,2,,,5,,,74,64
930,note_off,,,,,111,0,1,,,4,,,79,64
934,note_off,,,,,115,0,5,,,8,,,79,64
937,note_on,,,,,7,0,1,,,4,,,81,64
946,note_on,,,,,12,0,5,,,8,,,81,66
948,note_on,,,,,36,0,2,,,5,,,74,72
948,note_on,,,,,105,0,8,,,12,,,59,64
948,note_on,,,,,114,0,4,,,7,,,59,61
950,note_on,,,,,110,0,7,,,11,,,62,64
952,note_on,,,,,118,0,3,,,6,,,62,70
956,note_on,,,,,79,0,6,,,10,,,74,70
956,note_off,,,,,8,0,8,,,12,,,61,64
961,note_off,,,,,13,0,4,,,7,,,61,64
1035,note_on,,,,,98,0,1,,,4,,,79,52
1036,note_off,,,,,1,0,1,,,4,,,81,64
1038,note_on,,,,,92,0,5,,,8,,,79,57
1040,note_off,,,,,2,0,5,,,8,,,81,64
1055,note_on,,,,,99,0,8,,,12,,,57,60
1057,note_off,,,,,2,0,8,,,12,,,59,64
1058,note_off,,,,,110,0,2,,,5,,,74,64
1061,note_off,,,,,100,0,4,,,7,,,59,64
1062,note_on,,,,,1,0,4,,,7,,,57,59
1066,note_on,,,,,110,0,6,,,10,,,73,59
1068,note_on,,,,,10,0,2,,,5,,,73,54
1069,note_off,,,,,117,0,3,,,6,,,62,64
1075,note_off,,,,,9,0,6,,,10,,,74,64
1083,note_off,,,,,47,0,1,,,4,,,79,64
1087,note_off,,,,,47,0,5,,,8,,,79,64
1087,note_on,,,,,0,0,5,,,8,,,81,62
1087,note_off,,,,,137,0,7,,,11,,,62,64
1091,note_on,,,,,8,0,1,,,4,,,81,57
1128,note_on,,,,,41,0,5,,,8,,,79,58
1130,note_on,,,,,0,0,1,,,4,,,79,57
1130,note_off,,,,,39,0,1,,,4,,,81,64
1131,note_off,,,,,3,0,5,,,8,,,81,64
1158,note_off,,,,,90,0,2,,,5,,,73,64
1160,note_off,,,,,98,0,4,,,7,,,57,64
1161,note_off,,,,,30,0,5,,,8,,,79,64
1161,note_on,,,,,0,0,5,,,8,,,81,59
1165,note_on,,,,,0,0,1,,,4,,,81,66
1165,note_off,,,,,108,0,8,,,12,,,57,64
1165,note_off,,,,,90,0,6,,,10,,,73,64
1165,note_off,,,,,35,0,1,,,4,,,79,64
1174,note_on,,,,,16,0,2,,,5,,,74,70
1176,note_on,,,,,11,0,6,,,10,,,74,76
1179,note_on,,,,,19,0,4,,,7,,,59,63
1184,note_on,,,,,97,0,7,,,11,,,71,78
1184,note_on,,,,,19,0,8,,,12,,,59,74
1187,note_on,,,,,118,0,3,,,6,,,71,76
1189,note_on,,,,,28,0,5,,,8,,,79,57
1192,note_off,,,,,3,0,5,,,8,,,81,64
1200,note_off,,,,,35,0,1,,,4,,,81,64
1200,note_on,,,,,0,0,1,,,4,,,79,63
1214,note_on,,,,,22,0,5,,,8,,,81,64
1215,note_off,,,,,1,0,5,,,8,,,79,64
1231,note_off,,,,,31,0,1,,,4,,,79,64
1232,note_on,,,,,1,0,1,,,4,,,81,72
1244,note_on,,,,,29,0,5,,,8,,,79,72
1270,note_off,,,,,91,0,4,,,7,,,59,64
1270,note_on,,,,,38,0,1,,,4,,,79,62
1276,note_off,,,,,6,0,1,,,4,,,81,64
1285,note_off,,,,,101,0,8,,,12,,,59,64
1288,note_on,,,,,18,0,4,,,7,,,55,63
1290,note_off,,,,,103,0,3,,,6,,,71,64
1294,note_on,,,,,9,0,8,,,12,,,55,72
1297,note_off,,,,,53,0,5,,,8,,,81,64
1305,note_off,,,,,131,0,2,,,5,,,74,64
1306,note_on,,,,,9,0,5,,,8,,,78,58
1307,note_off,,,,,131,0,6,,,10,,,74,64
1312,note_on,,,,,36,0,1,,,4,,,78,60
1316,note_off,,,,,132,0,7,,,11,,,71,64
1317,note_off,,,,,5,0,1,,,4,,,79,64
1328,note_off,,,,,22,0,5,,,8,,,79,64
1358,note_off,,,,,41,0,1,,,4,,,78,64
1358,note_on,,,,,30,0,5,,,8,,,79,80
1359,note_on,,,,,1,0,1,,,4,,,79,72
1388,note_off,,,,,30,0,5,,,8,,,78,64
1403,note_off,,,,,115,0,4,,,7,,,55,64
1414,note_off,,,,,120,0,8,,,12,,,55,64
1415,note_on,,,,,110,0,2,,,5,,,74,68
1424,note_off,,,,,36,0,5,,,8,,,79,64
1425,note_on,,,,,118,0,6,,,10,,,74,74
1425,note_on,,,,,22,0,4,,,7,,,54,57
1430,note_on,,,,,6,0,5,,,8,,,81,70
1432,note_on,,,,,18,0,8,,,12,,,54,63
1432,note_off,,,,,73,0,1,,,4,,,79,64
1436,note_on,,,,,120,0,7,,,11,,,69,70
1449,note_on,,,,,159,0,3,,,6,,,69,55
1450,note_on,,,,,18,0,1,,,4,,,81,78
1548,note_on,,,,,118,0,5,,,8,,,79,64
1551,note_off,,,,,101,0,1,,,4,,,81,64
1554,note_off,,,,,6,0,5,,,8,,,81,64
1559,note_on,,,,,8,0,1,,,4,,,79,70
1657,note_off,,,,,98,0,1,,,4,,,79,64
1664,note_on,,,,,110,0,5,,,8,,,78,66
1674,note_on,,,,,17,0,1,,,4,,,78,60
1678,note_off,,,,,14,0,5,,,8,,,79,64
1767,note_on,,,,,89,0,5,,,8,,,79,80
1770,note_off,,,,,3,0,5,,,8,,,78,64
1784,note_on,,,,,110,0,1,,,4,,,76,62
1789,note_off,,,,,5,0,1,,,4,,,78,64
1875,note_off,,,,,105,0,5,,,8,,,79,64
1890,note_off,,,,,101,0,1,,,4,,,76,64
1901,note_on,,,,,26,0,5,,,8,,,81,89
1902,note_on,,,,,12,0,1,,,4,,,74,70
2018,note_off,,,,,116,0,1,,,4,,,74,64
2018,note_on,,,,,0,0,1,,,4,,,73,57
2043,note_off,,,,,618,0,4,,,7,,,54,64
2049,note_off,,,,,600,0,3,,,6,,,69,64
2058,note_off,,,,,626,0,8,,,12,,,54,64
2060,note_off,,,,,635,0,6,,,10,,,74,64
2071,note_off,,,,,635,0,7,,,11,,,69,64
2072,note_off,,,,,171,0,5,,,8,,,81,64
2081,note_off,,,,,666,0,2,,,5,,,74,64
2129,note_off,,,,,111,0,1,,,4,,,73,64
2146,note_on,,,,,75,0,7,,,11,,,62,64
2146,note_on,,,,,88,0,8,,,12,,,55,78
2146,note_on,,,,,86,0,6,,,10,,,67,60
2146,note_on,,,,,74,0,5,,,8,,,71,64
2148,note_on,,,,,105,0,4,,,7,,,55,68
2148,note_on,,,,,19,0,1,,,4,,,71,66
2155,note_on,,,,,106,0,3,,,6,,,62,58
2159,note_on,,,,,78,0,2,,,5,,,67,80
2247,note_off,,,,,99,0,4,,,7,,,55,64
2253,note_off,,,,,105,0,1,,,4,,,71,64
2255,note_off,,,,,109,0,5,,,8,,,71,64
2262,note_off,,,,,103,0,2,,,5,,,67,64
2266,note_off,,,,,111,0,3,,,6,,,62,64
2272,note_off,,,,,126,0,8,,,12,,,55,64
2274,note_off,,,,,128,0,6,,,10,,,67,64
2278,note_off,,,,,132,0,7,,,11,,,62,64
2386,note_on,,,,,108,0,7,,,11,,,67,70
2388,note_on,,,,,133,0,5,,,8,,,76,85
2394,note_on,,,,,128,0,3,,,6,,,67,66
2396,note_on,,,,,122,0,6,,,10,,,71,72
2396,note_on,,,,,124,0,8,,,12,,,52,80
2399,note_on,,,,,137,0,2,,,5,,,71,68
2399,note_on,,,,,146,0,1,,,4,,,76,76
2401,note_on,,,,,154,0,4,,,7,,,52,72
2485,note_off,,,,,86,0,1,,,4,,,76,64
2504,note_off,,,,,103,0,4,,,7,,,52,64
2505,note_off,,,,,117,0,5,,,8,,,76,64
2505,note_off,,,,,106,0,2,,,5,,,71,64
2506,note_off,,,,,112,0,3,,,6,,,67,64
2511,note_off,,,,,115,0,8,,,12,,,52,64
2519,note_off,,,,,133,0,7,,,11,,,67,64
2522,note_off,,,,,126,0,6,,,10,,,71,64
2629,note_on,,,,,110,0,7,,,11,,,64,68
2636,note_on,,,,,131,0,5,,,8,,,73,60
2637,note_on,,,,,126,0,8,,,12,,,57,80
2640,note_on,,,,,155,0,1,,,4,,,73,62
2641,note_on,,,,,135,0,3,,,6,,,64,61
2641,note_on,,,,,119,0,6,,,10,,,69,64
2641,note_on,,,,,137,0,4,,,7,,,57,70
2643,note_on,,,,,138,0,2,,,5,,,69,62
2721,note_off,,,,,81,0,1,,,4,,,73,64
2735,note_off,,,,,92,0,2,,,5,,,69,64
2743,note_off,,,,,102,0,4,,,7,,,57,64
2752,note_off,,,,,115,0,8,,,12,,,57,64
2756,note_off,,,,,120,0,5,,,8,,,73,64
2756,note_off,,,,,115,0,3,,,6,,,64,64
2769,note_off,,,,,128,0,6,,,10,,,69,64
2781,note_off,,,,,152,0,7,,,11,,,64,64
2874,note_on,,,,,153,0,1,,,4,,,74,76
2875,note_on,,,,,119,0,3,,,6,,,66,58
2878,note_on,,,,,126,0,8,,,12,,,54,68
2878,note_on,,,,,97,0,7,,,11,,,66,76
2882,note_on,,,,,126,0,5,,,8,,,74,85
2883,note_on,,,,,114,0,6,,,10,,,69,63
2890,note_on,,,,,147,0,4,,,7,,,54,64
2890,note_on,,,,,155,0,2,,,5,,,69,59
2983,note_off,,,,,109,0,1,,,4,,,74,64
2987,note_on,,,,,4,0,1,,,4,,,73,49
2990,note_on,,,,,112,0,7,,,11,,,64,70
2995,note_off,,,,,120,0,3,,,6,,,66,64
2997,note_off,,,,,107,0,4,,,7,,,54,64
2997,note_on,,,,,115,0,5,,,8,,,73,58
2997,note_on,,,,,2,0,3,,,6,,,64,59
3000,note_off,,,,,10,0,7,,,11,,,66,64
3002,note_off,,,,,5,0,5,,,8,,,74,64
3006,note_off,,,,,128,0,8,,,12,,,54,64
3106,note_off,,,,,119,0,1,,,4,,,73,64
3109,note_off,,,,,107,0,5,,,8,,,73,64
3113,note_on,,,,,113,0,7,,,11,,,66,68
3113,note_on,,,,,7,0,1,,,4,,,74,70
3118,note_on,,,,,112,0,8,,,12,,,52,82
3118,note_on,,,,,9,0,5,,,8,,,74,68
3122,note_on,,,,,125,0,3,,,6,,,66,60
3123,note_off,,,,,10,0,7,,,11,,,64,64
3126,note_on,,,,,129,0,4,,,7,,,52,80
3133,note_off,,,,,11,0,3,,,6,,,64,64
3214,note_off,,,,,88,0,4,,,7,,,52,64
3218,note_off,,,,,100,0,8,,,12,,,52,64
3221,note_off,,,,,331,0,2,,,5,,,69,64
3225,note_on,,,,,107,0,5,,,8,,,76,72
3228,note_off,,,,,115,0,1,,,4,,,74,64
3229,note_on,,,,,106,0,7,,,11,,,67,74
3232,note_on,,,,,4,0,1,,,4,,,76,68
3235,note_off,,,,,102,0,3,,,6,,,66,64
3237,note_off,,,,,12,0,5,,,8,,,74,64
3240,note_on,,,,,5,0,3,,,6,,,67,68
3246,note_off,,,,,17,0,7,,,11,,,66,64
3269,note_off,,,,,386,0,6,,,10,,,69,64
3323,note_off,,,,,91,0,1,,,4,,,76,64
3332,note_off,,,,,95,0,5,,,8,,,76,64
3341,note_on,,,,,9,0,5,,,8,,,78,68
3342,note_off,,,,,102,0,3,,,6,,,67,64
3346,note_on,,,,,23,0,1,,,4,,,78,66
3348,note_on,,,,,130,0,8,,,12,,,50,68
3350,note_off,,,,,104,0,7,,,11,,,67,64
3350,note_on,,,,,0,0,7,,,11,,,69,70
3352,note_on,,,,,131,0,2,,,5,,,74,70
3355,note_on,,,,,141,0,4,,,7,,,50,68
3363,note_on,,,,,21,0,3,,,6,,,69,76
3365,note_on,,,,,96,0,6,,,10,,,74,68
3443,note_off,,,,,97,0,1,,,4,,,78,64
3447,note_off,,,,,106,0,5,,,8,,,78,64
3457,note_off,,,,,109,0,8,,,12,,,50,64
3460,note_off,,,,,108,0,2,,,5,,,74,64
3464,note_off,,,,,109,0,4,,,7,,,50,64
3465,note_on,,,,,18,0,5,,,8,,,74,76
3466,note_on,,,,,23,0,1,,,4,,,74,68
3483,note_off,,,,,118,0,6,,,10,,,74,64
3501,note_off,,,,,151,0,7,,,11,,,69,64
3507,note_off,,,,,144,0,3,,,6,,,69,64
3560,note_off,,,,,95,0,5,,,8,,,74,64
3561,note_off,,,,,95,0,1,,,4,,,74,64
3584,note_on,,,,,24,0,5,,,8,,,76,82
3586,note_on,,,,,126,0,2,,,5,,,69,64
3588,note_on,,,,,27,0,1,,,4,,,76,85
3592,note_on,,,,,135,0,8,,,12,,,49,78
3592,note_on,,,,,128,0,4,,,7,,,49,64
3592,note_on,,,,,91,0,7,,,11,,,64,76
3597,note_on,,,,,114,0,6,,,10,,,69,70
3613,note_on,,,,,106,0,3,,,6,,,64,64
3692,note_off,,,,,100,0,8,,,12,,,49,64
3695,note_off,,,,,107,0,1,,,4,,,76,64
3695,note_on,,,,,3,0,8,,,12,,,47,76
3700,note_off,,,,,114,0,2,,,5,,,69,64
3701,note_off,,,,,109,0,4,,,7,,,49,64
3702,note_off,,,,,118,0,5,,,8,,,76,64
3702,note_off,,,,,110,0,7,,,11,,,64,64
3702,note_on,,,,,1,0,4,,,7,,,47,70
3706,note_on,,,,,4,0,5,,,8,,,78,64
3709,note_on,,,,,14,0,1,,,4,,,78,60
3720,note_off,,,,,107,0,3,,,6,,,64,64
3720,note_off,,,,,123,0,6,,,10,,,69,64
3803,note_off,,,,,94,0,1,,,4,,,78,64
3810,note_on,,,,,104,0,5,,,8,,,79,76
3814,note_off,,,,,112,0,4,,,7,,,47,64
3815,note_on,,,,,120,0,8,,,12,,,45,64
3816,note_off,,,,,6,0,5,,,8,,,78,64
3816,note_on,,,,,2,0,4,,,7,,,45,59
3819,note_off,,,,,4,0,8,,,12,,,47,64
3819,note_on,,,,,16,0,1,,,4,,,79,80
3823,note_on,,,,,123,0,2,,,5,,,73,63
3825,note_on,,,,,123,0,7,,,11,,,69,80
3837,note_on,,,,,117,0,3,,,6,,,69,76
3840,note_on,,,,,120,0,6,,,10,,,73,64
3895,note_on,,,,,79,0,5,,,8,,,78,62
3897,note_off,,,,,2,0,5,,,8,,,79,64
3919,note_on,,,,,100,0,1,,,4,,,78,57
3921,note_off,,,,,2,0,1,,,4,,,79,64
3924,note_off,,,,,105,0,8,,,12,,,45,64
3925,note_off,,,,,109,0,4,,,7,,,45,64
3929,note_on,,,,,5,0,8,,,12,,,43,74
3930,note_on,,,,,5,0,4,,,7,,,43,66
3934,note_off,,,,,111,0,2,,,5,,,73,64
3943,note_off,,,,,103,0,6,,,10,,,73,64
3943,note_off,,,,,118,0,7,,,11,,,69,64
3943,note_off,,,,,46,0,5,,,8,,,78,64
3946,note_off,,,,,109,0,3,,,6,,,69,64
3949,note_on,,,,,6,0,5,,,8,,,79,66
3969,note_off,,,,,48,0,1,,,4,,,78,64
3974,note_on,,,,,5,0,1,,,4,,,79,64
3987,note_on,,,,,38,0,5,,,8,,,78,57
3990,note_off,,,,,3,0,5,,,8,,,79,64
4016,note_on,,,,,42,0,1,,,4,,,78,62
4017,note_off,,,,,27,0,5,,,8,,,78,64
4020,note_on,,,,,3,0,5,,,8,,,79,63
4022,note_off,,,,,6,0,1,,,4,,,79,64
4043,note_off,,,,,114,0,8,,,12,,,43,64
4043,note_on,,,,,0,0,8,,,12,,,45,66
4043,note_off,,,,,113,0,4,,,7,,,43,64
4050,note_on,,,,,30,0,5,,,8,,,78,57
4050,note_on,,,,,7,0,4,,,7,,,45,66
4050,note_on,,,,,0,0,1,,,4,,,79,63
4050,note_off,,,,,28,0,1,,,4,,,78,64
4056,note_off,,,,,6,0,5,,,8,,,79,64
4063,note_on,,,,,120,0,7,,,11,,,61,63
4063,note_on,,,,,129,0,2,,,5,,,69,70
4069,note_on,,,,,123,0,3,,,6,,,61,58
4069,note_on,,,,,126,0,6,,,10,,,69,62
4081,note_off,,,,,25,0,5,,,8,,,78,64
4082,note_on,,,,,1,0,5,,,8,,,79,70
4086,note_on,,,,,36,0,1,,,4,,,78,53
4087,note_off,,,,,1,0,1,,,4,,,79,64
4104,note_off,,,,,17,0,1,,,4,,,78,64
4114,note_on,,,,,10,0,1,,,4,,,79,57
4116,note_off,,,,,34,0,5,,,8,,,79,64
4136,note_on,,,,,20,0,5,,,8,,,79,59
4143,note_on,,,,,29,0,1,,,4,,,78,60
4161,note_on,,,,,25,0,5,,,8,,,78,60
4162,note_off,,,,,19,0,1,,,4,,,79,64
4162,note_off,,,,,119,0,8,,,12,,,45,64
4162,note_on,,,,,0,0,8,,,12,,,42,60
4170,note_off,,,,,107,0,2,,,5,,,69,64
4173,note_on,,,,,123,0,4,,,7,,,42,54
4173,note_off,,,,,12,0,5,,,8,,,79,64
4177,note_off,,,,,108,0,6,,,10,,,69,64
4177,note_off,,,,,108,0,3,,,6,,,61,64
4178,note_off,,,,,115,0,7,,,11,,,61,64
4182,note_off,,,,,9,0,4,,,7,,,45,64
4190,note_off,,,,,28,0,1,,,4,,,78,64
4190,note_on,,,,,17,0,5,,,8,,,76,68
4195,note_on,,,,,5,0,1,,,4,,,76,70
4200,note_off,,,,,10,0,5,,,8,,,78,64
4238,note_on,,,,,38,0,5,,,8,,,78,70
4249,note_on,,,,,54,0,1,,,4,,,78,59
4262,note_off,,,,,24,0,5,,,8,,,76,64
4273,note_off,,,,,111,0,8,,,12,,,42,64
4274,note_off,,,,,25,0,1,,,4,,,76,64
4286,note_off,,,,,104,0,4,,,7,,,42,64
4286,note_off,,,,,24,0,5,,,8,,,78,64
4293,note_on,,,,,20,0,8,,,12,,,47,82
4298,note_on,,,,,12,0,5,,,8,,,79,87
4301,note_on,,,,,124,0,6,,,10,,,74,78
4301,note_on,,,,,131,0,2,,,5,,,74,74
4302,note_off,,,,,28,0,1,,,4,,,78,64
4306,note_on,,,,,20,0,4,,,7,,,47,66
4310,note_on,,,,,132,0,7,,,11,,,62,68
4310,note_on,,,,,133,0,3,,,6,,,62,76
4317,note_on,,,,,15,0,1,,,4,,,79,76
4407,note_off,,,,,106,0,2,,,5,,,74,64
4414,note_off,,,,,121,0,8,,,12,,,47,64
4415,note_on,,,,,117,0,5,,,8,,,78,59
4415,note_off,,,,,114,0,6,,,10,,,74,64
4418,note_off,,,,,108,0,3,,,6,,,62,64
4424,note_off,,,,,114,0,7,,,11,,,62,64
4428,note_off,,,,,13,0,5,,,8,,,79,64
4435,note_on,,,,,118,0,1,,,4,,,78,63
4438,note_off,,,,,3,0,1,,,4,,,79,64
4441,note_off,,,,,135,0,4,,,7,,,47,64
4517,note_off,,,,,89,0,5,,,8,,,78,64
4525,note_on,,,,,8,0,5,,,8,,,76,63
4536,note_off,,,,,98,0,1,,,4,,,78,64
4542,note_on,,,,,101,0,4,,,7,,,49,57
4543,note_on,,,,,129,0,8,,,12,,,49,70
4545,note_on,,,,,130,0,6,,,10,,,76,78
4547,note_on,,,,,140,0,2,,,5,,,76,80
4552,note_on,,,,,128,0,7,,,11,,,69,78
4552,note_on,,,,,134,0,3,,,6,,,69,68
4558,note_on,,,,,22,0,1,,,4,,,76,70
4638,note_on,,,,,113,0,5,,,8,,,78,61
4642,note_off,,,,,97,0,6,,,10,,,76,64
4646,note_off,,,,,104,0,4,,,7,,,49,64
4648,note_off,,,,,101,0,2,,,5,,,76,64
4651,note_off,,,,,13,0,5,,,8,,,76,64
4660,note_off,,,,,117,0,8,,,12,,,49,64
4668,note_on,,,,,110,0,1,,,4,,,78,62
4672,note_off,,,,,4,0,1,,,4,,,76,64
4757,note_off,,,,,106,0,5,,,8,,,78,64
4764,note_off,,,,,92,0,1,,,4,,,78,64
4765,note_on,,,,,8,0,5,,,8,,,79,68
4774,note_on,,,,,132,0,6,,,10,,,73,54
4779,note_on,,,,,119,0,8,,,12,,,45,60
4782,note_on,,,,,18,0,1,,,4,,,79,70
4786,note_on,,,,,138,0,2,,,5,,,73,57
4791,note_on,,,,,145,0,4,,,7,,,45,64
4875,note_off,,,,,110,0,5,,,8,,,79,64
4887,note_off,,,,,105,0,1,,,4,,,79,64
4889,note_on,,,,,14,0,5,,,8,,,76,70
4891,note_off,,,,,100,0,4,,,7,,,45,64
4894,note_off,,,,,120,0,6,,,10,,,73,64
4899,note_on,,,,,12,0,1,,,4,,,76,68
4902,note_off,,,,,116,0,2,,,5,,,73,64
4909,note_off,,,,,130,0,8,,,12,,,45,64
4914,note_off,,,,,362,0,3,,,6,,,69,64
4932,note_off,,,,,380,0,7,,,11,,,69,64
4971,note_off,,,,,82,0,5,,,8,,,76,64
4989,note_off,,,,,90,0,1,,,4,,,76,64
5005,note_on,,,,,111,0,6,,,10,,,74,70
5015,note_on,,,,,44,0,5,,,8,,,78,64
5019,note_on,,,,,117,0,2,,,5,,,74,78
5020,note_on,,,,,111,0,8,,,12,,,50,82
5023,note_on,,,,,34,0,1,,,4,,,78,64
5027,note_on,,,,,113,0,3,,,6,,,69,72
5028,note_on,,,,,137,0,4,,,7,,,50,68
5032,note_on,,,,,100,0,7,,,11,,,69,76
5116,note_off,,,,,111,0,6,,,10,,,74,64
5120,note_off,,,,,92,0,4,,,7,,,50,64
5125,note_off,,,,,102,0,1,,,4,,,78,64
5125,note_off,,,,,110,0,5,,,8,,,78,64
5125,note_off,,,,,106,0,2,,,5,,,74,64
5133,note_on,,,,,17,0,6,,,10,,,76,64
5134,note_on,,,,,9,0,5,,,8,,,80,70
5142,note_on,,,,,17,0,2,,,5,,,76,68
5142,note_off,,,,,122,0,8,,,12,,,50,64
5142,note_off,,,,,115,0,3,,,6,,,69,64
5145,note_on,,,,,20,0,1,,,4,,,80,74
5153,note_off,,,,,121,0,7,,,11,,,69,64
5228,note_off,,,,,94,0,5,,,8,,,80,64
5232,note_off,,,,,87,0,1,,,4,,,80,64
5237,note_off,,,,,95,0,2,,,5,,,76,64
5245,note_on,,,,,17,0,5,,,8,,,81,66
5251,note_on,,,,,109,0,8,,,12,,,47,64
5254,note_on,,,,,121,0,6,,,10,,,74,80
5260,note_on,,,,,23,0,2,,,5,,,74,78
5265,note_on,,,,,112,0,7,,,11,,,62,70
5267,note_on,,,,,35,0,1,,,4,,,81,80
5267,note_on,,,,,125,0,3,,,6,,,62,82
5269,note_off,,,,,15,0,6,,,10,,,76,64
5277,note_on,,,,,157,0,4,,,7,,,47,68
5337,note_on,,,,,0,0,5,,,8,,,80,60
5337,note_off,,,,,92,0,5,,,8,,,81,64
5352,note_on,,,,,85,0,1,,,4,,,80,64
5359,note_off,,,,,7,0,1,,,4,,,81,64
5365,note_off,,,,,105,0,2,,,5,,,74,64
5368,note_off,,,,,91,0,4,,,7,,,47,64
5368,note_on,,,,,99,0,6,,,10,,,73,66
5375,note_off,,,,,124,0,8,,,12,,,47,64
5375,note_off,,,,,108,0,3,,,6,,,62,64
5381,note_off,,,,,116,0,7,,,11,,,62,64
5382,note_on,,,,,17,0,2,,,5,,,73,60
5386,note_off,,,,,18,0,6,,,10,,,74,64
5386,note_off,,,,,49,0,5,,,8,,,80,64
5389,note_on,,,,,3,0,5,,,8,,,81,64
5399,note_off,,,,,40,0,1,,,4,,,80,64
5405,note_on,,,,,6,0,1,,,4,,,81,61
5434,note_on,,,,,45,0,5,,,8,,,80,55
5435,note_off,,,,,1,0,5,,,8,,,81,64
5445,note_on,,,,,40,0,1,,,4,,,80,62
5449,note_off,,,,,4,0,1,,,4,,,81,64
5457,note_off,,,,,22,0,5,,,8,,,80,64
5460,note_on,,,,,3,0,5,,,8,,,81,66
5477,note_off,,,,,95,0,2,,,5,,,73,64
5477,note_off,,,,,28,0,1,,,4,,,80,64
5480,note_on,,,,,3,0,1,,,4,,,81,66
5491,note_on,,,,,105,0,6,,,10,,,74,66
5492,note_off,,,,,1,0,6,,,10,,,73,64
5496,note_on,,,,,19,0,2,,,5,,,74,72
5497,note_on,,,,,37,0,5,,,8,,,80,60
5499,note_off,,,,,2,0,5,,,8,,,81,64
5500,note_on,,,,,125,0,8,,,12,,,52,82
5502,note_on,,,,,134,0,4,,,7,,,52,68
5505,note_on,,,,,130,0,3,,,6,,,64,70
5506,note_on,,,,,125,0,7,,,11,,,64,70
5515,note_on,,,,,35,0,1,,,4,,,80,60
5518,note_off,,,,,3,0,1,,,4,,,81,64
5524,note_on,,,,,25,0,5,,,8,,,81,66
5528,note_off,,,,,4,0,5,,,8,,,80,64
5541,note_off,,,,,23,0,1,,,4,,,80,64
5548,note_on,,,,,7,0,1,,,4,,,81,54
5561,note_on,,,,,33,0,5,,,8,,,80,62
5578,note_off,,,,,17,0,5,,,8,,,81,64
5580,note_on,,,,,32,0,1,,,4,,,80,66
5592,note_off,,,,,12,0,1,,,4,,,81,64
5596,note_off,,,,,100,0,2,,,5,,,74,64
5606,note_off,,,,,104,0,4,,,7,,,52,64
5607,note_off,,,,,107,0,8,,,12,,,52,64
5609,note_off,,,,,117,0,6,,,10,,,74,64
5611,note_on,,,,,2,0,6,,,10,,,71,66
5611,note_off,,,,,33,0,5,,,8,,,80,64
5613,note_off,,,,,108,0,3,,,6,,,64,64
5613,note_on,,,,,2,0,5,,,8,,,78,51
5618,note_off,,,,,112,0,7,,,11,,,64,64
5618,note_on,,,,,22,0,2,,,5,,,71,68
5626,note_off,,,,,34,0,1,,,4,,,80,64
5640,note_on,,,,,14,0,1,,,4,,,78,53
5651,note_on,,,,,38,0,5,,,8,,,80,64
5675,note_off,,,,,24,0,5,,,8,,,78,64
5676,note_on,,,,,36,0,1,,,4,,,80,53
5692,note_off,,,,,74,0,2,,,5,,,71,64
5699,note_off,,,,,23,0,1,,,4,,,78,64
5714,note_off,,,,,39,0,5,,,8,,,80,64
5731,note_on,,,,,17,0,5,,,8,,,81,68
5736,note_off,,,,,37,0,1,,,4,,,80,64
5737,note_off,,,,,126,0,6,,,10,,,71,64
5740,note_on,,,,,48,0,2,,,5,,,73,59
5747,note_on,,,,,10,0,6,,,10,,,73,57
5751,note_on,,,,,144,0,8,,,12,,,45,64
5753,note_on,,,,,17,0,1,,,4,,,81,64
5759,note_on,,,,,146,0,3,,,6,,,64,64
5759,note_on,,,,,141,0,7,,,11,,,64,80
5763,note_on,,,,,157,0,4,,,7,,,45,76
5889,note_off,,,,,126,0,4,,,7,,,45,64
5937,note_off,,,,,186,0,8,,,12,,,45,64
5998,note_on,,,,,61,0,8,,,12,,,57,66
5999,note_on,,,,,110,0,4,,,7,,,57,68
6099,note_off,,,,,100,0,4,,,7,,,57,64
6100,note_on,,,,,102,0,8,,,12,,,59,70
6104,note_off,,,,,4,0,8,,,12,,,57,64
6110,note_on,,,,,11,0,4,,,7,,,59,64
6192,note_off,,,,,88,0,8,,,12,,,59,64
6195,note_off,,,,,85,0,4,,,7,,,59,64
6224,note_on,,,,,32,0,8,,,12,,,61,80
6235,note_on,,,,,40,0,4,,,7,,,61,64
6301,note_off,,,,,548,0,1,,,4,,,81,64
6302,note_off,,,,,562,0,2,,,5,,,73,64
6319,note_off,,,,,572,0,6,,,10,,,73,64
6328,note_off,,,,,104,0,8,,,12,,,61,64
6328,note_off,,,,,597,0,5,,,8,,,81,64
6329,note_on,,,,,1,0,8,,,12,,,57,72
6333,note_off,,,,,574,0,7,,,11,,,64,64
6334,note_off,,,,,99,0,4,,,7,,,61,64
6341,note_on,,,,,7,0,4,,,7,,,57,64
6350,note_off,,,,,591,0,3,,,6,,,64,64
6412,note_off,,,,,83,0,8,,,12,,,57,64
6412,note_off,,,,,71,0,4,,,7,,,57,64
6459,note_on,,,,,140,0,6,,,10,,,74,70
6460,note_on,,,,,48,0,8,,,12,,,62,89
6467,note_on,,,,,134,0,7,,,11,,,69,78
6467,note_on,,,,,166,0,1,,,4,,,78,70
6467,note_on,,,,,55,0,4,,,7,,,62,80
6474,note_on,,,,,146,0,5,,,8,,,78,63
6474,note_on,,,,,124,0,3,,,6,,,69,68
6480,note_on,,,,,178,0,2,,,5,,,74,70
6561,note_off,,,,,94,0,1,,,4,,,78,64
6568,note_off,,,,,101,0,4,,,7,,,62,64
6577,note_off,,,,,103,0,5,,,8,,,78,64
6581,note_on,,,,,4,0,5,,,8,,,79,78
6586,note_off,,,,,119,0,7,,,11,,,69,64
6587,note_on,,,,,19,0,4,,,7,,,61,55
6587,note_on,,,,,26,0,1,,,4,,,79,70
6589,note_on,,,,,129,0,8,,,12,,,61,62
6592,note_off,,,,,118,0,3,,,6,,,69,64
6605,note_off,,,,,16,0,8,,,12,,,62,64
6607,note_off,,,,,148,0,6,,,10,,,74,64
6608,note_off,,,,,128,0,2,,,5,,,74,64
6668,note_off,,,,,63,0,8,,,12,,,61,64
6687,note_off,,,,,100,0,1,,,4,,,79,64
6687,note_on,,,,,19,0,8,,,12,,,59,60
6690,note_off,,,,,103,0,4,,,7,,,61,64
6690,note_off,,,,,109,0,5,,,8,,,79,64
6692,note_on,,,,,2,0,5,,,8,,,81,66
6693,note_on,,,,,3,0,4,,,7,,,59,78
6693,note_on,,,,,6,0,1,,,4,,,81,68
6701,note_on,,,,,94,0,6,,,10,,,74,80
6705,note_on,,,,,97,0,2,,,5,,,74,72
6706,note_on,,,,,114,0,3,,,6,,,62,62
6712,note_on,,,,,126,0,7,,,11,,,62,78
6796,note_on,,,,,104,0,5,,,8,,,79,51
6796,note_off,,,,,103,0,4,,,7,,,59,64
6797,note_off,,,,,104,0,1,,,4,,,81,64
6798,note_on,,,,,1,0,1,,,4,,,79,52
6799,note_off,,,,,3,0,5,,,8,,,81,64
6806,note_off,,,,,105,0,6,,,10,,,74,64
6809,note_off,,,,,122,0,8,,,12,,,59,64
6811,note_on,,,,,2,0,8,,,12,,,57,56
6813,note_on,,,,,7,0,6,,,10,,,73,64
6815,note_off,,,,,110,0,2,,,5,,,74,64
6815,note_on,,,,,19,0,4,,,7,,,57,64
6820,note_on,,,,,5,0,2,,,5,,,73,61
6829,note_off,,,,,123,0,3,,,6,,,62,64
6830,note_off,,,,,118,0,7,,,11,,,62,64
6839,note_on,,,,,40,0,5,,,8,,,81,66
6840,note_off,,,,,42,0,1,,,4,,,79,64
6840,note_off,,,,,1,0,5,,,8,,,79,64
6848,note_on,,,,,8,0,1,,,4,,,81,57
6883,note_off,,,,,43,0,5,,,8,,,81,64
6883,note_on,,,,,0,0,5,,,8,,,79,55
6887,note_off,,,,,39,0,1,,,4,,,81,64
6887,note_on,,,,,0,0,1,,,4,,,79,57
6907,note_off,,,,,92,0,4,,,7,,,57,64
6911,note_off,,,,,100,0,8,,,12,,,57,64
6914,note_off,,,,,31,0,5,,,8,,,79,64
6914,note_on,,,,,0,0,5,,,8,,,81,66
6918,note_off,,,,,31,0,1,,,4,,,79,64
6919,note_on,,,,,1,0,1,,,4,,,81,64
6923,note_off,,,,,103,0,2,,,5,,,73,64
6923,note_off,,,,,110,0,6,,,10,,,73,64
6931,note_on,,,,,20,0,8,,,12,,,59,72
6931,note_on,,,,,8,0,6,,,10,,,74,82
6931,note_on,,,,,8,0,2,,,5,,,74,76
6936,note_on,,,,,29,0,4,,,7,,,59,74
6944,note_on,,,,,30,0,5,,,8,,,79,66
6946,note_on,,,,,117,0,3,,,6,,,71,82
6946,note_on,,,,,116,0,7,,,11,,,71,82
6950,note_off,,,,,6,0,5,,,8,,,81,64
6954,note_on,,,,,35,0,1,,,4,,,79,70
6955,note_off,,,,,1,0,1,,,4,,,81,64
6980,note_on,,,,,0,0,5,,,8,,,81,60
6980,note_off,,,,,30,0,5,,,8,,,79,64
6988,note_off,,,,,33,0,1,,,4,,,79,64
6990,note_on,,,,,2,0,1,,,4,,,81,58
7005,note_on,,,,,25,0,5,,,8,,,79,56
7020,note_off,,,,,15,0,5,,,8,,,81,64
7024,note_on,,,,,34,0,1,,,4,,,79,60
7034,note_off,,,,,10,0,1,,,4,,,81,64
7038,note_off,,,,,107,0,8,,,12,,,59,64
7038,note_off,,,,,102,0,4,,,7,,,59,64
7043,note_off,,,,,112,0,2,,,5,,,74,64
7049,note_on,,,,,11,0,8,,,12,,,55,68
7049,note_on,,,,,29,0,5,,,8,,,78,68
7051,note_on,,,,,13,0,4,,,7,,,55,72
7055,note_off,,,,,109,0,3,,,6,,,71,64
7056,note_off,,,,,7,0,5,,,8,,,79,64
7059,note_off,,,,,128,0,6,,,10,,,74,64
7068,note_off,,,,,34,0,1,,,4,,,79,64
7069,note_off,,,,,123,0,7,,,11,,,71,64
7072,note_on,,,,,4,0,1,,,4,,,78,55
7093,note_on,,,,,37,0,5,,,8,,,79,72
7109,note_off,,,,,16,0,5,,,8,,,78,64
7109,note_on,,,,,37,0,1,,,4,,,79,72
7122,note_off,,,,,13,0,1,,,4,,,78,64
7132,note_off,,,,,81,0,4,,,7,,,55,64
7159,note_off,,,,,110,0,8,,,12,,,55,64
7167,note_off,,,,,45,0,1,,,4,,,79,64
7172,note_on,,,,,129,0,2,,,5,,,74,72
7172,note_off,,,,,63,0,5,,,8,,,79,64
7177,note_on,,,,,5,0,5,,,8,,,81,82
7180,note_on,,,,,21,0,8,,,12,,,54,61
7181,note_on,,,,,122,0,6,,,10,,,74,70
7182,note_on,,,,,50,0,4,,,7,,,54,55
7190,note_on,,,,,23,0,1,,,4,,,81,78
7191,note_on,,,,,136,0,3,,,6,,,69,66
7194,note_on,,,,,125,0,7,,,11,,,69,80
7295,note_on,,,,,118,0,5,,,8,,,79,68
7303,note_off,,,,,8,0,5,,,8,,,81,64
7306,note_off,,,,,116,0,1,,,4,,,81,64
7309,note_on,,,,,3,0,1,,,4,,,79,64
7410,note_on,,,,,107,0,5,,,8,,,78,58
7417,note_off,,,,,7,0,5,,,8,,,79,64
7421,note_off,,,,,112,0,1,,,4,,,79,64
7427,note_on,,,,,6,0,1,,,4,,,78,60
7522,note_on,,,,,105,0,5,,,8,,,79,70
7523,note_off,,,,,1,0,5,,,8,,,78,64
7549,note_off,,,,,122,0,1,,,4,,,78,64
7555,note_on,,,,,6,0,1,,,4,,,76,64
7644,note_on,,,,,121,0,5,,,8,,,81,68
7645,note_off,,,,,1,0,5,,,8,,,79,64
7658,note_off,,,,,103,0,1,,,4,,,76,64
7671,note_on,,,,,13,0,1,,,4,,,74,64
7783,note_off,,,,,112,0,1,,,4,,,74,64
7787,note_on,,,,,4,0,1,,,4,,,73,58
7794,note_off,,,,,600,0,7,,,11,,,69,64
7803,note_off,,,,,621,0,4,,,7,,,54,64
7812,note_off,,,,,167,0,5,,,8,,,81,64
7815,note_off,,,,,635,0,8,,,12,,,54,64
7822,note_off,,,,,650,0,2,,,5,,,74,64
7831,note_off,,,,,650,0,6,,,10,,,74,64
7838,note_off,,,,,647,0,3,,,6,,,69,64
7891,note_on,,,,,60,0,6,,,10,,,67,70
7892,note_off,,,,,105,0,1,,,4,,,73,64
7897,note_on,,,,,103,0,7,,,11,,,62,68
7901,note_on,,,,,89,0,5,,,8,,,71,72
7903,note_on,,,,,81,0,2,,,5,,,67,68
7909,note_on,,,,,106,0,4,,,7,,,55,78
7909,note_on,,,,,17,0,1,,,4,,,71,68
7912,note_on,,,,,74,0,3,,,6,,,62,60
7913,note_on,,,,,98,0,8,,,12,,,55,85
8010,note_off,,,,,119,0,6,,,10,,,67,64
8012,note_off,,,,,111,0,5,,,8,,,71,64
8015,note_off,,,,,112,0,2,,,5,,,67,64
8017,note_off,,,,,120,0,7,,,11,,,62,64
8018,note_off,,,,,106,0,3,,,6,,,62,64
8022,note_off,,,,,113,0,4,,,7,,,55,64
8028,note_off,,,,,119,0,1,,,4,,,71,64
8045,note_off,,,,,132,0,8,,,12,,,55,64
8136,note_on,,,,,126,0,6,,,10,,,71,70
8144,note_on,,,,,129,0,2,,,5,,,71,64
8148,note_on,,,,,103,0,8,,,12,,,52,57
8151,note_on,,,,,139,0,5,,,8,,,76,82
8151,note_on,,,,,133,0,3,,,6,,,67,66
8153,note_on,,,,,136,0,7,,,11,,,67,82
8154,note_on,,,,,126,0,1,,,4,,,76,70
8156,note_on,,,,,134,0,4,,,7,,,52,58
8250,note_off,,,,,96,0,1,,,4,,,76,64
8253,note_off,,,,,109,0,2,,,5,,,71,64
8256,note_off,,,,,120,0,6,,,10,,,71,64
8259,note_off,,,,,108,0,5,,,8,,,76,64
8260,note_off,,,,,109,0,3,,,6,,,67,64
8262,note_off,,,,,106,0,4,,,7,,,52,64
8266,note_off,,,,,118,0,8,,,12,,,52,64
8268,note_off,,,,,115,0,7,,,11,,,67,64
8385,note_on,,,,,132,0,2,,,5,,,69,63
8386,note_on,,,,,120,0,8,,,12,,,57,82
8386,note_on,,,,,118,0,7,,,11,,,64,72
8387,note_on,,,,,137,0,1,,,4,,,73,59
8391,note_on,,,,,129,0,4,,,7,,,57,80
8393,note_on,,,,,137,0,6,,,10,,,69,58
8394,note_on,,,,,135,0,5,,,8,,,73,56
8398,note_on,,,,,138,0,3,,,6,,,64,68
8486,note_off,,,,,101,0,2,,,5,,,69,64
8490,note_off,,,,,103,0,1,,,4,,,73,64
8499,note_off,,,,,106,0,6,,,10,,,69,64
8503,note_off,,,,,109,0,5,,,8,,,73,64
8505,note_off,,,,,119,0,8,,,12,,,57,64
8508,note_off,,,,,117,0,4,,,7,,,57,64
8509,note_off,,,,,111,0,3,,,6,,,64,64
8514,note_off,,,,,128,0,7,,,11,,,64,64
8623,note_on,,,,,114,0,3,,,6,,,66,57
8626,note_on,,,,,123,0,5,,,8,,,74,72
8628,note_on,,,,,142,0,2,,,5,,,69,60
8628,note_on,,,,,129,0,6,,,10,,,69,63
8630,note_on,,,,,140,0,1,,,4,,,74,78
8630,note_on,,,,,125,0,8,,,12,,,54,68
8630,note_on,,,,,116,0,7,,,11,,,66,80
8635,note_on,,,,,127,0,4,,,7,,,54,63
8740,note_off,,,,,117,0,3,,,6,,,66,64
8740,note_off,,,,,110,0,1,,,4,,,74,64
8742,note_on,,,,,2,0,3,,,6,,,64,57
8744,note_on,,,,,114,0,7,,,11,,,64,68
8744,note_on,,,,,118,0,5,,,8,,,73,58
8748,note_on,,,,,8,0,1,,,4,,,73,62
8750,note_off,,,,,6,0,7,,,11,,,66,64
8757,note_off,,,,,122,0,4,,,7,,,54,64
8757,note_off,,,,,13,0,5,,,8,,,74,64
8763,note_off,,,,,133,0,8,,,12,,,54,64
8850,note_off,,,,,102,0,1,,,4,,,73,64
8855,note_on,,,,,92,0,8,,,12,,,52,57
8856,note_off,,,,,106,0,7,,,11,,,64,64
8856,note_on,,,,,0,0,7,,,11,,,66,78
8864,note_off,,,,,122,0,3,,,6,,,64,64
8867,note_on,,,,,110,0,5,,,8,,,74,66
8867,note_on,,,,,3,0,3,,,6,,,66,60
8875,note_on,,,,,25,0,1,,,4,,,74,78
8877,note_on,,,,,120,0,4,,,7,,,52,68
8880,note_off,,,,,13,0,5,,,8,,,73,64
8965,note_on,,,,,109,0,7,,,11,,,67,70
8971,note_off,,,,,94,0,4,,,7,,,52,64
8976,note_off,,,,,121,0,8,,,12,,,52,64
8978,note_off,,,,,13,0,7,,,11,,,66,64
8980,note_on,,,,,100,0,5,,,8,,,76,76
8984,note_on,,,,,117,0,3,,,6,,,67,68
8985,note_off,,,,,1,0,3,,,6,,,66,64
8990,note_off,,,,,115,0,1,,,4,,,74,64
8994,note_off,,,,,14,0,5,,,8,,,74,64
8995,note_on,,,,,5,0,1,,,4,,,76,60
8995,note_off,,,,,367,0,6,,,10,,,69,64
8999,note_off,,,,,371,0,2,,,5,,,69,64
9092,note_on,,,,,98,0,5,,,8,,,78,64
9094,note_off,,,,,109,0,3,,,6,,,67,64
9094,note_on,,,,,116,0,7,,,11,,,69,85
9097,note_off,,,,,3,0,7,,,11,,,67,64
9099,note_on,,,,,123,0,8,,,12,,,50,63
9100,note_off,,,,,105,0,1,,,4,,,76,64
9104,note_off,,,,,12,0,5,,,8,,,76,64
9108,note_on,,,,,14,0,3,,,6,,,69,70
9108,note_on,,,,,113,0,6,,,10,,,74,72
9111,note_on,,,,,140,0,4,,,7,,,50,66
9111,note_on,,,,,112,0,2,,,5,,,74,70
9116,note_on,,,,,16,0,1,,,4,,,78,63
9204,note_off,,,,,93,0,4,,,7,,,50,64
9206,note_off,,,,,102,0,5,,,8,,,78,64
9209,note_off,,,,,93,0,1,,,4,,,78,64
9213,note_off,,,,,114,0,8,,,12,,,50,64
9215,note_on,,,,,9,0,5,,,8,,,74,70
9217,note_off,,,,,106,0,2,,,5,,,74,64
9227,note_off,,,,,119,0,6,,,10,,,74,64
9235,note_on,,,,,26,0,1,,,4,,,74,74
9258,note_off,,,,,161,0,7,,,11,,,69,64
9269,note_off,,,,,161,0,3,,,6,,,69,64
9311,note_off,,,,,96,0,5,,,8,,,74,64
9340,note_on,,,,,127,0,8,,,12,,,49,98
9340,note_on,,,,,29,0,5,,,8,,,76,87
9340,note_off,,,,,105,0,1,,,4,,,74,64
9342,note_on,,,,,115,0,6,,,10,,,69,66
9344,note_on,,,,,140,0,4,,,7,,,49,64
9344,note_on,,,,,86,0,7,,,11,,,64,74
9353,note_on,,,,,136,0,2,,,5,,,69,70
9354,note_on,,,,,14,0,1,,,4,,,76,78
9361,note_on,,,,,92,0,3,,,6,,,64,70
9442,note_off,,,,,102,0,8,,,12,,,49,64
9453,note_off,,,,,109,0,7,,,11,,,64,64
9455,note_on,,,,,13,0,8,,,12,,,47,66
9457,note_on,,,,,113,0,4,,,7,,,47,72
9458,note_off,,,,,1,0,4,,,7,,,49,64
9463,note_on,,,,,123,0,5,,,8,,,78,66
9464,note_off,,,,,110,0,1,,,4,,,76,64
9464,note_off,,,,,111,0,2,,,5,,,69,64
9471,note_on,,,,,7,0,1,,,4,,,78,60
9471,note_off,,,,,129,0,6,,,10,,,69,64
9472,note_off,,,,,9,0,5,,,8,,,76,64
9473,note_off,,,,,112,0,3,,,6,,,64,64
9566,note_off,,,,,94,0,5,,,8,,,78,64
9571,note_off,,,,,116,0,8,,,12,,,47,64
9571,note_on,,,,,5,0,5,,,8,,,79,80
9572,note_on,,,,,1,0,8,,,12,,,45,57
9577,note_off,,,,,119,0,4,,,7,,,47,64
9577,note_on,,,,,124,0,7,,,11,,,69,82
9580,note_off,,,,,109,0,1,,,4,,,78,64
9585,note_on,,,,,114,0,6,,,10,,,73,68
9585,note_on,,,,,5,0,1,,,4,,,79,76
9589,note_on,,,,,12,0,4,,,7,,,45,57
9589,note_on,,,,,125,0,2,,,5,,,73,63
9591,note_on,,,,,118,0,3,,,6,,,69,72
9659,note_on,,,,,88,0,5,,,8,,,78,57
9664,note_off,,,,,5,0,5,,,8,,,79,64
9672,note_off,,,,,87,0,1,,,4,,,79,64
9674,note_on,,,,,2,0,1,,,4,,,78,57
9678,note_off,,,,,89,0,4,,,7,,,45,64
9681,note_off,,,,,92,0,2,,,5,,,73,64
9689,note_off,,,,,117,0,8,,,12,,,45,64
9691,note_on,,,,,2,0,8,,,12,,,43,68
9698,note_off,,,,,121,0,7,,,11,,,69,64
9698,note_on,,,,,20,0,4,,,7,,,43,66
9700,note_off,,,,,115,0,6,,,10,,,73,64
9705,note_off,,,,,114,0,3,,,6,,,69,64
9711,note_off,,,,,47,0,5,,,8,,,78,64
9712,note_on,,,,,1,0,5,,,8,,,79,70
9718,note_off,,,,,44,0,1,,,4,,,78,64
9726,note_on,,,,,8,0,1,,,4,,,79,61
9756,note_on,,,,,44,0,5,,,8,,,78,58
9761,note_off,,,,,5,0,5,,,8,,,79,64
9764,note_on,,,,,38,0,1,,,4,,,78,59
9765,note_off,,,,,1,0,1,,,4,,,79,64
9784,note_off,,,,,23,0,5,,,8,,,78,64
9784,note_on,,,,,0,0,5,,,8,,,79,68
9792,note_off,,,,,27,0,1,,,4,,,78,64
9795,note_off,,,,,104,0,8,,,12,,,43,64
9796,note_on,,,,,4,0,1,,,4,,,79,66
9800,note_off,,,,,102,0,4,,,7,,,43,64
9809,note_on,,,,,14,0,8,,,12,,,45,82
9815,note_on,,,,,134,0,2,,,5,,,69,58
9819,note_on,,,,,19,0,4,,,7,,,45,85
9821,note_on,,,,,37,0,5,,,8,,,78,57
9821,note_on,,,,,121,0,6,,,10,,,69,63
9822,note_off,,,,,1,0,5,,,8,,,79,64
9824,note_on,,,,,126,0,7,,,11,,,61,70
9828,note_on,,,,,32,0,1,,,4,,,78,54
9830,note_on,,,,,125,0,3,,,6,,,61,57
9831,note_off,,,,,3,0,1,,,4,,,79,64
9847,note_on,,,,,25,0,5,,,8,,,79,66
9849,note_off,,,,,2,0,5,,,8,,,78,64
9857,note_off,,,,,26,0,1,,,4,,,78,64
9865,note_on,,,,,8,0,1,,,4,,,79,53
9876,note_on,,,,,27,0,5,,,8,,,78,59
9889,note_on,,,,,24,0,1,,,4,,,78,55
9897,note_off,,,,,21,0,5,,,8,,,79,64
9908,note_off,,,,,89,0,4,,,7,,,45,64
9910,note_off,,,,,21,0,1,,,4,,,78,64
9917,note_off,,,,,102,0,2,,,5,,,69,64
9924,note_off,,,,,27,0,5,,,8,,,78,64
9924,note_on,,,,,0,0,5,,,8,,,76,68
9927,note_on,,,,,17,0,1,,,4,,,78,62
9932,note_off,,,,,108,0,7,,,11,,,61,64
9933,note_off,,,,,103,0,3,,,6,,,61,64
9933,note_on,,,,,25,0,4,,,7,,,42,60
9933,note_on,,,,,0,0,8,,,12,,,42,59
9933,note_off,,,,,124,0,8,,,12,,,45,64
9940,note_off,,,,,13,0,1,,,4,,,79,64
9945,note_off,,,,,124,0,6,,,10,,,69,64
9971,note_on,,,,,47,0,5,,,8,,,78,68
9972,note_off,,,,,32,0,1,,,4,,,78,64
9975,note_on,,,,,3,0,1,,,4,,,76,63
10005,note_off,,,,,34,0,5,,,8,,,76,64
10015,note_on,,,,,40,0,1,,,4,,,78,64
10033,note_off,,,,,100,0,4,,,7,,,42,64
10034,note_off,,,,,29,0,5,,,8,,,78,64
10038,note_off,,,,,23,0,1,,,4,,,76,64
10042,note_off,,,,,109,0,8,,,12,,,42,64
10045,note_on,,,,,11,0,5,,,8,,,79,72
10049,note_on,,,,,7,0,8,,,12,,,47,76
10059,note_on,,,,,26,0,4,,,7,,,47,74
10063,note_off,,,,,25,0,1,,,4,,,78,64
10064,note_on,,,,,119,0,6,,,10,,,74,76
10066,note_on,,,,,149,0,2,,,5,,,74,76
10068,note_on,,,,,136,0,7,,,11,,,62,78
10073,note_on,,,,,140,0,3,,,6,,,62,68
10077,note_on,,,,,14,0,1,,,4,,,79,85
10165,note_on,,,,,120,0,5,,,8,,,78,55
10172,note_off,,,,,106,0,2,,,5,,,74,64
10172,note_off,,,,,104,0,7,,,11,,,62,64
10181,note_off,,,,,16,0,5,,,8,,,79,64
10181,note_off,,,,,122,0,4,,,7,,,47,64
10187,note_off,,,,,123,0,6,,,10,,,74,64
10187,note_off,,,,,114,0,3,,,6,,,62,64
10194,note_on,,,,,117,0,1,,,4,,,78,58
10199,note_off,,,,,150,0,8,,,12,,,47,64
10202,note_off,,,,,8,0,1,,,4,,,79,64
10285,note_off,,,,,104,0,5,,,8,,,78,64
10287,note_on,,,,,2,0,5,,,8,,,76,63
10295,note_off,,,,,93,0,1,,,4,,,78,64
10296,note_on,,,,,97,0,8,,,12,,,49,63
10300,note_on,,,,,113,0,6,,,10,,,76,80
10303,note_on,,,,,122,0,4,,,7,,,49,66
10304,note_on,,,,,132,0,7,,,11,,,69,82
10307,note_on,,,,,135,0,2,,,5,,,76,80
10313,note_on,,,,,18,0,1,,,4,,,76,74
10318,note_on,,,,,131,0,3,,,6,,,69,80
10401,note_on,,,,,114,0,5,,,8,,,78,60
10407,note_off,,,,,100,0,2,,,5,,,76,64
10416,note_off,,,,,116,0,6,,,10,,,76,64
10416,note_off,,,,,113,0,4,,,7,,,49,64
10422,note_off,,,,,126,0,8,,,12,,,49,64
10426,note_off,,,,,25,0,5,,,8,,,76,64
10432,note_on,,,,,119,0,1,,,4,,,78,60
10436,note_off,,,,,4,0,1,,,4,,,76,64
10518,note_off,,,,,92,0,5,,,8,,,78,64
10523,note_on,,,,,107,0,6,,,10,,,73,53
10530,note_on,,,,,12,0,5,,,8,,,79,72
10546,note_on,,,,,124,0,8,,,12,,,45,68
10546,note_on,,,,,139,0,2,,,5,,,73,52
10549,note_off,,,,,113,0,1,,,4,,,78,64
10553,note_on,,,,,137,0,4,,,7,,,45,85
10554,note_on,,,,,5,0,1,,,4,,,79,66
10638,note_off,,,,,108,0,5,,,8,,,79,64
10651,note_off,,,,,105,0,2,,,5,,,73,64
10655,note_off,,,,,101,0,1,,,4,,,79,64
10655,note_on,,,,,17,0,5,,,8,,,76,66
10661,note_off,,,,,357,0,7,,,11,,,69,64
10663,note_off,,,,,345,0,3,,,6,,,69,64
10666,note_on,,,,,11,0,1,,,4,,,76,64
10669,note_off,,,,,116,0,4,,,7,,,45,64
10676,note_off,,,,,153,0,6,,,10,,,73,64
10685,note_off,,,,,139,0,8,,,12,,,45,64
10756,note_off,,,,,101,0,5,,,8,,,76,64
10758,note_off,,,,,92,0,1,,,4,,,76,64
10772,note_on,,,,,96,0,6,,,10,,,74,80
10778,note_on,,,,,93,0,8,,,12,,,50,76
10781,note_on,,,,,118,0,3,,,6,,,69,68
10781,note_on,,,,,120,0,7,,,11,,,69,85
10782,note_on,,,,,131,0,2,,,5,,,74,80
10785,note_on,,,,,29,0,5,,,8,,,78,76
10790,note_on,,,,,32,0,1,,,4,,,78,72
10791,note_on,,,,,122,0,4,,,7,,,50,80
10885,note_off,,,,,107,0,8,,,12,,,50,64
10886,note_off,,,,,114,0,6,,,10,,,74,64
10886,note_off,,,,,104,0,2,,,5,,,74,64
10890,note_off,,,,,100,0,1,,,4,,,78,64
10892,note_off,,,,,111,0,3,,,6,,,69,64
10892,note_on,,,,,6,0,6,,,10,,,76,68
10895,note_off,,,,,114,0,7,,,11,,,69,64
10898,note_off,,,,,113,0,5,,,8,,,78,64
10898,note_on,,,,,12,0,2,,,5,,,76,59
10899,note_off,,,,,108,0,4,,,7,,,50,64
10907,note_on,,,,,9,0,5,,,8,,,80,76
10907,note_on,,,,,17,0,1,,,4,,,80,68
11000,note_off,,,,,93,0,5,,,8,,,80,64
11007,note_off,,,,,100,0,1,,,4,,,80,64
11010,note_on,,,,,125,0,8,,,12,,,47,82
11010,note_on,,,,,10,0,5,,,8,,,81,63
11013,note_on,,,,,6,0,1,,,4,,,81,60
11014,note_on,,,,,122,0,6,,,10,,,74,80
11023,note_on,,,,,125,0,2,,,5,,,74,78
11023,note_on,,,,,131,0,3,,,6,,,62,68
11023,note_on,,,,,128,0,7,,,11,,,62,76
11029,note_on,,,,,130,0,4,,,7,,,47,82
11031,note_off,,,,,17,0,6,,,10,,,76,64
11032,note_off,,,,,9,0,2,,,5,,,76,64
11084,note_off,,,,,71,0,1,,,4,,,81,64
11090,note_on,,,,,6,0,1,,,4,,,80,55
11092,note_on,,,,,0,0,5,,,8,,,80,66
11092,note_off,,,,,82,0,5,,,8,,,81,64
11127,note_off,,,,,37,0,1,,,4,,,80,64
11128,note_off,,,,,96,0,2,,,5,,,74,64
11134,note_off,,,,,111,0,3,,,6,,,62,64
11134,note_on,,,,,103,0,6,,,10,,,73,64
11135,note_off,,,,,106,0,4,,,7,,,47,64
11135,note_off,,,,,125,0,8,,,12,,,47,64
11136,note_off,,,,,44,0,5,,,8,,,80,64
11136,note_on,,,,,9,0,1,,,4,,,81,63
11140,note_on,,,,,4,0,5,,,8,,,81,68
11140,note_off,,,,,117,0,7,,,11,,,62,64
11140,note_on,,,,,12,0,2,,,5,,,73,55
11141,note_off,,,,,7,0,6,,,10,,,74,64
11172,note_off,,,,,36,0,1,,,4,,,81,64
11174,note_on,,,,,2,0,1,,,4,,,80,52
11184,note_on,,,,,0,0,5,,,8,,,80,52
11184,note_off,,,,,44,0,5,,,8,,,81,64
11200,note_off,,,,,26,0,1,,,4,,,80,64
11205,note_on,,,,,5,0,1,,,4,,,81,63
11209,note_off,,,,,25,0,5,,,8,,,80,64
11210,note_on,,,,,1,0,5,,,8,,,81,63
11237,note_off,,,,,97,0,2,,,5,,,73,64
11239,note_off,,,,,34,0,1,,,4,,,81,64
11239,note_on,,,,,0,0,1,,,4,,,80,57
11245,note_on,,,,,35,0,5,,,8,,,80,63
11250,note_off,,,,,109,0,6,,,10,,,73,64
11252,note_off,,,,,7,0,5,,,8,,,81,64
11257,note_on,,,,,122,0,8,,,12,,,52,85
11258,note_on,,,,,8,0,6,,,10,,,74,66
11259,note_on,,,,,22,0,2,,,5,,,74,76
11259,note_off,,,,,20,0,1,,,4,,,80,64
11267,note_on,,,,,132,0,4,,,7,,,52,82
11267,note_on,,,,,133,0,3,,,6,,,64,70
11271,note_on,,,,,12,0,1,,,4,,,81,38
11274,note_on,,,,,22,0,5,,,8,,,81,57
11275,note_on,,,,,135,0,7,,,11,,,64,82
11275,note_off,,,,,1,0,5,,,8,,,80,64
11281,note_off,,,,,10,0,1,,,4,,,81,64
11299,note_off,,,,,24,0,5,,,8,,,81,64
11305,note_on,,,,,6,0,5,,,8,,,80,51
11306,note_on,,,,,25,0,1,,,4,,,81,74
11320,note_on,,,,,15,0,5,,,8,,,81,66
11350,note_on,,,,,44,0,1,,,4,,,80,60
11355,note_off,,,,,96,0,2,,,5,,,74,64
11358,note_off,,,,,8,0,1,,,4,,,81,64
11360,note_off,,,,,40,0,5,,,8,,,81,64
11362,note_off,,,,,95,0,4,,,7,,,52,64
11366,note_off,,,,,99,0,3,,,6,,,64,64
11372,note_on,,,,,17,0,2,,,5,,,71,64
11375,note_off,,,,,100,0,7,,,11,,,64,64
11376,note_on,,,,,118,0,6,,,10,,,71,74
11376,note_off,,,,,119,0,8,,,12,,,52,64
11380,note_off,,,,,4,0,6,,,10,,,74,64
11385,note_off,,,,,27,0,1,,,4,,,80,64
11390,note_on,,,,,30,0,5,,,8,,,78,53
11395,note_off,,,,,5,0,5,,,8,,,80,64
11406,note_on,,,,,21,0,1,,,4,,,78,48
11426,note_on,,,,,20,0,1,,,4,,,80,61
11429,note_on,,,,,34,0,5,,,8,,,80,63
11451,note_off,,,,,22,0,5,,,8,,,78,64
11456,note_off,,,,,84,0,2,,,5,,,71,64
11456,note_off,,,,,30,0,1,,,4,,,78,64
11483,note_off,,,,,103,0,6,,,10,,,71,64
11485,note_off,,,,,29,0,1,,,4,,,80,64
11487,note_off,,,,,36,0,5,,,8,,,80,64
11500,note_on,,,,,15,0,1,,,4,,,81,63
11500,note_on,,,,,13,0,5,,,8,,,81,68
11506,note_on,,,,,130,0,8,,,12,,,45,74
11509,note_on,,,,,26,0,6,,,10,,,73,57
11511,note_on,,,,,149,0,4,,,7,,,45,70
11512,note_on,,,,,56,0,2,,,5,,,73,59
11517,note_on,,,,,151,0,3,,,6,,,64,70
11521,note_on,,,,,146,0,7,,,11,,,64,72
11618,note_off,,,,,107,0,4,,,7,,,45,64
11636,note_off,,,,,130,0,8,,,12,,,45,64
11743,note_on,,,,,107,0,8,,,12,,,49,70
11745,note_on,,,,,127,0,4,,,7,,,49,66
11845,note_off,,,,,100,0,4,,,7,,,49,64
11859,note_off,,,,,116,0,8,,,12,,,49,64
11984,note_on,,,,,125,0,8,,,12,,,52,80
11995,note_on,,,,,150,0,4,,,7,,,52,80
12030,note_off,,,,,518,0,2,,,5,,,73,64
12052,note_off,,,,,552,0,1,,,4,,,81,64
12071,note_off,,,,,571,0,5,,,8,,,81,64
12080,note_off,,,,,563,0,3,,,6,,,64,64
12080,note_off,,,,,559,0,7,,,11,,,64,64
12087,note_off,,,,,578,0,6,,,10,,,73,64
12089,note_off,,,,,94,0,4,,,7,,,52,64
12094,note_off,,,,,110,0,8,,,12,,,52,64
12228,note_on,,,,,12228,0,9,,,4,,,76,72
12234,note_on,,,,,12234,0,13,,,8,,,76,68
12239,note_on,,,,,12239,0,15,,,11,,,69,85
12239,note_on,,,,,12239,0,14,,,10,,,73,59
12240,note_on,,,,,12240,0,11,,,6,,,69,68
12243,note_on,,,,,12243,0,10,,,5,,,73,52
12254,note_on,,,,,12254,0,16,,,12,,,57,66
12262,note_on,,,,,12262,0,12,,,7,,,57,64
12356,note_off,,,,,116,0,11,,,6,,,69,64
12364,note_off,,,,,125,0,15,,,11,,,69,64
12417,note_off,,,,,189,0,9,,,4,,,76,64
12433,note_off,,,,,194,0,14,,,10,,,73,64
12447,note_off,,,,,213,0,13,,,8,,,76,64
12456,note_off,,,,,213,0,10,,,5,,,73,64
12461,note_on,,,,,44,0,9,,,4,,,74,72
12468,note_on,,,,,112,0,11,,,6,,,66,57
12469,note_on,,,,,13,0,10,,,5,,,71,68
12473,note_on,,,,,40,0,14,,,10,,,71,63
12477,note_on,,,,,30,0,13,,,8,,,74,78
12478,note_on,,,,,114,0,15,,,11,,,66,60
12576,note_on,,,,,115,0,9,,,4,,,73,59
12579,note_off,,,,,3,0,9,,,4,,,74,64
12580,note_off,,,,,112,0,11,,,6,,,66,64
12586,note_on,,,,,109,0,13,,,8,,,73,55
12589,note_off,,,,,116,0,14,,,10,,,71,64
12589,note_on,,,,,120,0,10,,,5,,,69,72
12589,note_on,,,,,0,0,14,,,10,,,69,64
12591,note_off,,,,,5,0,13,,,8,,,74,64
12595,note_off,,,,,6,0,10,,,5,,,71,64
12598,note_off,,,,,120,0,15,,,11,,,66,64
12622,note_off,,,,,360,0,12,,,7,,,57,64
12634,note_off,,,,,380,0,16,,,12,,,57,64
12690,note_off,,,,,111,0,9,,,4,,,73,64
12694,note_on,,,,,4,0,9,,,4,,,74,60
12696,note_off,,,,,105,0,13,,,8,,,73,64
12698,note_on,,,,,2,0,13,,,8,,,74,64
12700,note_off,,,,,105,0,10,,,5,,,69,64
12702,note_off,,,,,113,0,14,,,10,,,69,64
12714,note_on,,,,,134,0,11,,,6,,,64,57
12714,note_on,,,,,116,0,15,,,11,,,64,64
12715,note_on,,,,,93,0,12,,,7,,,56,64
12719,note_on,,,,,85,0,16,,,12,,,56,63
12721,note_on,,,,,19,0,14,,,10,,,71,64
12723,note_on,,,,,23,0,10,,,5,,,71,66
12801,note_off,,,,,86,0,12,,,7,,,56,64
12814,note_off,,,,,100,0,11,,,6,,,64,64
12816,note_on,,,,,122,0,9,,,4,,,71,64
12820,note_on,,,,,0,0,13,,,8,,,71,63
12820,note_off,,,,,106,0,15,,,11,,,64,64
12820,note_off,,,,,122,0,13,,,8,,,74,64
12823,note_off,,,,,7,0,9,,,4,,,74,64
12828,note_off,,,,,109,0,16,,,12,,,56,64
12885,note_off,,,,,164,0,14,,,10,,,71,64
12899,note_off,,,,,176,0,10,,,5,,,71,64
12917,note_off,,,,,94,0,9,,,4,,,71,64
12919,note_off,,,,,99,0,13,,,8,,,71,64
12942,note_on,,,,,25,0,9,,,4,,,73,66
12942,note_on,,,,,141,0,12,,,7,,,57,66
12947,note_on,,,,,28,0,13,,,8,,,73,57
12954,note_on,,,,,126,0,16,,,12,,,57,63
12955,note_on,,,,,70,0,14,,,10,,,69,64
12955,note_on,,,,,141,0,11,,,6,,,64,60
12957,note_on,,,,,58,0,10,,,5,,,69,61
12961,note_on,,,,,141,0,15,,,11,,,64,59
13051,note_on,,,,,109,0,9,,,4,,,74,76
13060,note_on,,,,,103,0,10,,,5,,,71,63
13060,note_on,,,,,113,0,13,,,8,,,74,74
13061,note_off,,,,,106,0,11,,,6,,,64,64
13068,note_off,,,,,17,0,9,,,4,,,73,64
13068,note_off,,,,,107,0,15,,,11,,,64,64
13074,note_on,,,,,119,0,14,,,10,,,71,66
13079,note_off,,,,,19,0,10,,,5,,,69,64
13084,note_off,,,,,24,0,13,,,8,,,73,64
13084,note_off,,,,,10,0,14,,,10,,,69,64
13129,note_off,,,,,175,0,16,,,12,,,57,64
13140,note_off,,,,,198,0,12,,,7,,,57,64
13162,note_off,,,,,94,0,9,,,4,,,74,64
13183,note_on,,,,,21,0,9,,,4,,,76,85
13184,note_off,,,,,100,0,13,,,8,,,74,64
13189,note_on,,,,,49,0,12,,,7,,,55,78
13191,note_on,,,,,107,0,14,,,10,,,73,61
13195,note_on,,,,,11,0,13,,,8,,,76,76
13196,note_on,,,,,128,0,15,,,11,,,69,78
13197,note_off,,,,,6,0,14,,,10,,,71,64
13197,note_on,,,,,136,0,11,,,6,,,69,59
13201,note_on,,,,,72,0,16,,,12,,,55,70
13201,note_on,,,,,122,0,10,,,5,,,73,59
13208,note_off,,,,,7,0,10,,,5,,,71,64
13284,note_off,,,,,95,0,12,,,7,,,55,64
13287,note_on,,,,,90,0,14,,,10,,,74,74
13289,note_off,,,,,2,0,14,,,10,,,73,64
13291,note_on,,,,,7,0,12,,,7,,,54,58
13304,note_on,,,,,96,0,10,,,5,,,74,70
13304,note_off,,,,,121,0,9,,,4,,,76,64
13306,note_on,,,,,105,0,16,,,12,,,54,62
13309,note_off,,,,,3,0,16,,,12,,,55,64
13313,note_off,,,,,118,0,13,,,8,,,76,64
13316,note_off,,,,,12,0,10,,,5,,,73,64
13396,note_off,,,,,105,0,12,,,7,,,54,64
13398,note_off,,,,,89,0,16,,,12,,,54,64
13401,note_off,,,,,112,0,14,,,10,,,74,64
13414,note_on,,,,,13,0,14,,,10,,,76,76
13415,note_off,,,,,99,0,10,,,5,,,74,64
13415,note_on,,,,,19,0,12,,,7,,,55,66
13423,note_on,,,,,110,0,13,,,8,,,69,62
13424,note_on,,,,,120,0,9,,,4,,,69,56
13424,note_on,,,,,26,0,16,,,12,,,55,72
13428,note_on,,,,,13,0,10,,,5,,,76,68
13508,note_off,,,,,93,0,12,,,7,,,55,64
13520,note_off,,,,,96,0,16,,,12,,,55,64
13523,note_off,,,,,109,0,14,,,10,,,76,64
13528,note_on,,,,,20,0,12,,,7,,,52,68
13529,note_on,,,,,6,0,14,,,10,,,73,63
13530,note_on,,,,,10,0,16,,,12,,,52,63
13535,note_off,,,,,112,0,13,,,8,,,69,64
13541,note_on,,,,,113,0,10,,,5,,,73,58
13545,note_off,,,,,4,0,10,,,5,,,76,64
13550,note_off,,,,,126,0,9,,,4,,,69,64
13582,note_off,,,,,386,0,15,,,11,,,69,64
13582,note_off,,,,,385,0,11,,,6,,,69,64
13617,note_off,,,,,89,0,12,,,7,,,52,64
13632,note_off,,,,,102,0,16,,,12,,,52,64
13635,note_off,,,,,106,0,14,,,10,,,73,64
13648,note_on,,,,,13,0,14,,,10,,,74,74
13659,note_on,,,,,27,0,16,,,12,,,54,66
13660,note_on,,,,,43,0,12,,,7,,,54,82
13661,note_on,,,,,111,0,9,,,4,,,74,68
13665,note_off,,,,,120,0,10,,,5,,,73,64
13669,note_on,,,,,134,0,13,,,8,,,74,70
13672,note_on,,,,,7,0,10,,,5,,,74,66
13675,note_on,,,,,93,0,11,,,6,,,69,64
13679,note_on,,,,,97,0,15,,,11,,,69,80
13762,note_off,,,,,93,0,13,,,8,,,74,64
13773,note_on,,,,,112,0,9,,,4,,,76,76
13773,note_off,,,,,125,0,14,,,10,,,74,64
13775,note_off,,,,,116,0,16,,,12,,,54,64
13780,note_off,,,,,7,0,9,,,4,,,74,64
13783,note_on,,,,,21,0,13,,,8,,,76,78
13783,note_off,,,,,123,0,12,,,7,,,54,64
13791,note_off,,,,,112,0,15,,,11,,,69,64
13803,note_off,,,,,128,0,11,,,6,,,69,64
13807,note_off,,,,,135,0,10,,,5,,,74,64
13853,note_off,,,,,70,0,13,,,8,,,76,64
13875,note_off,,,,,95,0,9,,,4,,,76,64
13885,note_on,,,,,32,0,13,,,8,,,78,68
13898,note_on,,,,,23,0,9,,,4,,,78,62
13901,note_on,,,,,128,0,14,,,10,,,74,78
13905,note_on,,,,,130,0,16,,,12,,,55,76
13906,note_on,,,,,123,0,12,,,7,,,55,76
13913,note_on,,,,,106,0,10,,,5,,,74,68
13915,note_on,,,,,112,0,11,,,6,,,71,64
13917,note_on,,,,,126,0,15,,,11,,,71,82
13986,note_on,,,,,88,0,9,,,4,,,76,58
13997,note_off,,,,,11,0,9,,,4,,,78,64
14001,note_on,,,,,116,0,13,,,8,,,76,56
14012,note_off,,,,,11,0,13,,,8,,,78,64
14018,note_off,,,,,103,0,11,,,6,,,71,64
14019,note_off,,,,,113,0,12,,,7,,,55,64
14019,note_off,,,,,106,0,10,,,5,,,74,64
14021,note_off,,,,,120,0,14,,,10,,,74,64
14021,note_off,,,,,116,0,16,,,12,,,55,64
14025,note_off,,,,,108,0,15,,,11,,,71,64
14036,note_off,,,,,39,0,9,,,4,,,76,64
14036,note_on,,,,,0,0,9,,,4,,,78,56
14046,note_on,,,,,34,0,13,,,8,,,78,59
14047,note_off,,,,,1,0,13,,,8,,,76,64
14075,note_on,,,,,39,0,9,,,4,,,76,57
14077,note_off,,,,,2,0,9,,,4,,,78,64
14086,note_off,,,,,39,0,13,,,8,,,78,64
14088,note_on,,,,,2,0,13,,,8,,,76,58
14107,note_on,,,,,30,0,9,,,4,,,78,60
14115,note_off,,,,,8,0,9,,,4,,,76,64
14119,note_on,,,,,31,0,13,,,8,,,78,72
14129,note_off,,,,,10,0,13,,,8,,,76,64
14136,note_on,,,,,115,0,14,,,10,,,73,62
14137,note_off,,,,,22,0,9,,,4,,,78,64
14137,note_on,,,,,0,0,9,,,4,,,76,56
14141,note_on,,,,,123,0,11,,,6,,,69,63
14143,note_on,,,,,124,0,10,,,5,,,73,60
14145,note_on,,,,,124,0,16,,,12,,,57,70
14147,note_on,,,,,128,0,12,,,7,,,57,66
14148,note_off,,,,,19,0,13,,,8,,,78,64
14148,note_on,,,,,123,0,15,,,11,,,69,70
14151,note_on,,,,,3,0,13,,,8,,,76,39
14172,note_off,,,,,35,0,9,,,4,,,76,64
14172,note_on,,,,,0,0,9,,,4,,,78,78
14181,note_on,,,,,30,0,13,,,8,,,78,85
14185,note_off,,,,,4,0,13,,,8,,,76,64
14206,note_on,,,,,21,0,13,,,8,,,76,51
14207,note_on,,,,,35,0,9,,,4,,,76,66
14225,note_off,,,,,18,0,9,,,4,,,78,64
14235,note_off,,,,,29,0,13,,,8,,,78,64
14242,note_off,,,,,99,0,10,,,5,,,73,64
14243,note_off,,,,,98,0,16,,,12,,,57,64
14248,note_on,,,,,23,0,9,,,4,,,74,64
14252,note_off,,,,,111,0,11,,,6,,,69,64
14256,note_on,,,,,21,0,13,,,8,,,74,72
14256,note_off,,,,,109,0,12,,,7,,,57,64
14257,note_off,,,,,9,0,9,,,4,,,76,64
14266,note_off,,,,,10,0,13,,,8,,,76,64
14271,note_off,,,,,135,0,14,,,10,,,73,64
14276,note_off,,,,,128,0,15,,,11,,,69,64
14300,note_on,,,,,43,0,9,,,4,,,76,66
14310,note_on,,,,,44,0,13,,,8,,,76,64
14321,note_off,,,,,21,0,9,,,4,,,74,64
14330,note_off,,,,,20,0,13,,,8,,,74,64
14373,note_off,,,,,52,0,9,,,4,,,76,64
14373,note_on,,,,,102,0,14,,,10,,,74,76
14373,note_off,,,,,43,0,13,,,8,,,76,64
14383,note_on,,,,,131,0,11,,,6,,,69,66
14383,note_on,,,,,141,0,10,,,5,,,74,78
14383,note_on,,,,,10,0,13,,,8,,,78,72
14383,note_on,,,,,107,0,15,,,11,,,69,76
14388,note_on,,,,,15,0,9,,,4,,,78,63
14388,note_on,,,,,132,0,12,,,7,,,50,85
14391,note_on,,,,,148,0,16,,,12,,,50,85
14496,note_off,,,,,113,0,11,,,6,,,69,64
14496,note_on,,,,,0,0,11,,,6,,,67,60
14498,note_off,,,,,115,0,10,,,5,,,74,64
14501,note_off,,,,,113,0,12,,,7,,,50,64
14501,note_on,,,,,113,0,9,,,4,,,76,64
14501,note_on,,,,,118,0,15,,,11,,,67,70
14504,note_on,,,,,121,0,13,,,8,,,76,64
14505,note_off,,,,,4,0,9,,,4,,,78,64
14506,note_off,,,,,133,0,14,,,10,,,74,64
14507,note_off,,,,,6,0,15,,,11,,,69,64
14513,note_off,,,,,122,0,16,,,12,,,50,64
14526,note_off,,,,,22,0,13,,,8,,,78,64
14603,note_off,,,,,107,0,11,,,6,,,67,64
14611,note_on,,,,,8,0,11,,,6,,,66,57
14616,note_off,,,,,90,0,13,,,8,,,76,64
14616,note_on,,,,,110,0,14,,,10,,,69,66
14622,note_off,,,,,117,0,9,,,4,,,76,64
14623,note_on,,,,,0,0,15,,,11,,,66,74
14623,note_off,,,,,116,0,15,,,11,,,67,64
14625,note_on,,,,,9,0,13,,,8,,,74,68
14625,note_on,,,,,3,0,9,,,4,,,74,72
14625,note_on,,,,,112,0,16,,,12,,,62,87
14628,note_on,,,,,130,0,10,,,5,,,69,64
14632,note_on,,,,,131,0,12,,,7,,,62,91
14723,note_off,,,,,95,0,10,,,5,,,69,64
14734,note_off,,,,,102,0,12,,,7,,,62,64
14734,note_on,,,,,109,0,13,,,8,,,76,66
14736,note_off,,,,,111,0,16,,,12,,,62,64
14736,note_off,,,,,125,0,11,,,6,,,66,64
14736,note_on,,,,,111,0,9,,,4,,,76,64
14739,note_on,,,,,3,0,11,,,6,,,67,60
14741,note_off,,,,,125,0,14,,,10,,,69,64
14742,note_off,,,,,6,0,9,,,4,,,74,64
14743,note_on,,,,,120,0,15,,,11,,,67,82
14751,note_off,,,,,8,0,15,,,11,,,66,64
14754,note_off,,,,,20,0,13,,,8,,,74,64
14837,note_off,,,,,86,0,15,,,11,,,67,64
14850,note_on,,,,,13,0,15,,,11,,,69,70
14852,note_off,,,,,110,0,9,,,4,,,76,64
14859,note_off,,,,,120,0,11,,,6,,,67,64
14859,note_on,,,,,118,0,14,,,10,,,74,78
14860,note_on,,,,,8,0,9,,,4,,,78,54
14861,note_on,,,,,107,0,13,,,8,,,78,64
14865,note_on,,,,,142,0,10,,,5,,,74,78
14865,note_on,,,,,6,0,11,,,6,,,69,70
14868,note_on,,,,,132,0,16,,,12,,,57,72
14870,note_on,,,,,136,0,12,,,7,,,57,70
14876,note_off,,,,,15,0,13,,,8,,,76,64
14944,note_off,,,,,94,0,15,,,11,,,69,64
14958,note_on,,,,,14,0,15,,,11,,,71,64
14965,note_on,,,,,89,0,13,,,8,,,79,72
14968,note_off,,,,,108,0,9,,,4,,,78,64
14969,note_on,,,,,1,0,9,,,4,,,79,63
14970,note_off,,,,,105,0,10,,,5,,,74,64
14970,note_off,,,,,5,0,13,,,8,,,78,64
14971,note_off,,,,,103,0,16,,,12,,,57,64
14974,note_off,,,,,115,0,14,,,10,,,74,64
14982,note_off,,,,,117,0,11,,,6,,,69,64
14982,note_on,,,,,0,0,11,,,6,,,71,76
14984,note_off,,,,,114,0,12,,,7,,,57,64
15073,note_off,,,,,115,0,15,,,11,,,71,64
15080,note_off,,,,,111,0,9,,,4,,,79,64
15088,note_off,,,,,118,0,13,,,8,,,79,64
15093,note_off,,,,,111,0,11,,,6,,,71,64
15095,note_on,,,,,22,0,15,,,11,,,72,68
15097,note_on,,,,,9,0,13,,,8,,,81,78
15100,note_on,,,,,126,0,14,,,10,,,75,66
15101,note_on,,,,,131,0,10,,,5,,,75,80
15106,note_on,,,,,13,0,11,,,6,,,72,78
15109,note_on,,,,,29,0,9,,,4,,,81,82
15115,note_on,,,,,144,0,16,,,12,,,54,85
15115,note_on,,,,,131,0,12,,,7,,,54,82
15189,note_off,,,,,88,0,10,,,5,,,75,64
15203,note_off,,,,,103,0,14,,,10,,,75,64
15203,note_on,,,,,14,0,10,,,5,,,76,76
15207,note_on,,,,,4,0,14,,,10,,,76,72
15215,note_on,,,,,100,0,16,,,12,,,52,72
15218,note_off,,,,,3,0,16,,,12,,,54,64
15218,note_off,,,,,103,0,12,,,7,,,54,64
15219,note_on,,,,,1,0,12,,,7,,,52,76
15225,note_off,,,,,130,0,15,,,11,,,72,64
15233,note_off,,,,,136,0,13,,,8,,,81,64
15253,note_off,,,,,147,0,11,,,6,,,72,64
15270,note_off,,,,,161,0,9,,,4,,,81,64
15295,note_off,,,,,92,0,10,,,5,,,76,64
15314,note_off,,,,,96,0,16,,,12,,,52,64
15320,note_off,,,,,101,0,12,,,7,,,52,64
15327,note_on,,,,,13,0,16,,,12,,,51,64
15328,note_off,,,,,121,0,14,,,10,,,76,64
15329,note_on,,,,,1,0,14,,,10,,,78,76
15332,note_on,,,,,37,0,10,,,5,,,78,76
15332,note_on,,,,,12,0,12,,,7,,,51,66
15333,note_on,,,,,108,0,15,,,11,,,71,80
15336,note_on,,,,,103,0,13,,,8,,,79,82
15345,note_on,,,,,92,0,11,,,6,,,71,62
15350,note_on,,,,,80,0,9,,,4,,,79,76
15428,note_off,,,,,99,0,14,,,10,,,78,64
15434,note_off,,,,,102,0,10,,,5,,,78,64
15435,note_off,,,,,108,0,16,,,12,,,51,64
15439,note_off,,,,,107,0,12,,,7,,,51,64
15441,note_on,,,,,105,0,13,,,8,,,78,51
15442,note_on,,,,,3,0,12,,,7,,,49,56
15446,note_on,,,,,11,0,16,,,12,,,49,56
15448,note_on,,,,,98,0,9,,,4,,,78,51
15450,note_off,,,,,9,0,13,,,8,,,79,64
15453,note_off,,,,,120,0,15,,,11,,,71,64
15459,note_off,,,,,11,0,9,,,4,,,79,64
15474,note_off,,,,,129,0,11,,,6,,,71,64
15490,note_off,,,,,40,0,13,,,8,,,78,64
15490,note_on,,,,,0,0,13,,,8,,,79,63
15491,note_on,,,,,32,0,9,,,4,,,79,63
15492,note_off,,,,,1,0,9,,,4,,,78,64
15526,note_on,,,,,36,0,13,,,8,,,78,55
15534,note_off,,,,,8,0,13,,,8,,,79,64
15534,note_on,,,,,42,0,9,,,4,,,78,52
15539,note_off,,,,,5,0,9,,,4,,,79,64
15551,note_off,,,,,109,0,12,,,7,,,49,64
15555,note_off,,,,,109,0,16,,,12,,,49,64
15557,note_on,,,,,23,0,13,,,8,,,79,72
15562,note_off,,,,,5,0,13,,,8,,,78,64
15570,note_on,,,,,31,0,9,,,4,,,79,66
15570,note_on,,,,,142,0,14,,,10,,,71,82
15572,note_off,,,,,2,0,9,,,4,,,78,64
15574,note_on,,,,,121,0,15,,,11,,,69,74
15575,note_on,,,,,20,0,16,,,12,,,51,59
15577,note_on,,,,,26,0,12,,,7,,,51,61
15582,note_on,,,,,148,0,10,,,5,,,71,70
15584,note_on,,,,,110,0,11,,,6,,,69,66
15600,note_off,,,,,28,0,9,,,4,,,79,64
15601,note_on,,,,,1,0,9,,,4,,,78,39
15616,note_off,,,,,15,0,9,,,4,,,78,64
15626,note_on,,,,,10,0,9,,,4,,,79,58
15644,note_on,,,,,82,0,13,,,8,,,78,59
15654,note_on,,,,,28,0,9,,,4,,,78,60
15665,note_off,,,,,21,0,13,,,8,,,79,64
15673,note_off,,,,,19,0,9,,,4,,,79,64
15679,note_off,,,,,104,0,16,,,12,,,51,64
15680,note_on,,,,,1,0,16,,,12,,,47,61
15686,note_off,,,,,112,0,15,,,11,,,69,64
15687,note_off,,,,,110,0,12,,,7,,,51,64
15696,note_on,,,,,9,0,12,,,7,,,47,66
15700,note_off,,,,,27,0,9,,,4,,,78,64
15702,note_on,,,,,37,0,13,,,8,,,76,68
15704,note_on,,,,,4,0,9,,,4,,,76,64
15704,note_off,,,,,120,0,11,,,6,,,69,64
15706,note_off,,,,,4,0,13,,,8,,,78,64
15743,note_on,,,,,37,0,13,,,8,,,78,60
15750,note_on,,,,,46,0,9,,,4,,,78,66
15778,note_off,,,,,82,0,12,,,7,,,47,64
15779,note_off,,,,,99,0,16,,,12,,,47,64
15783,note_off,,,,,40,0,13,,,8,,,76,64
15783,note_off,,,,,33,0,9,,,4,,,76,64
15802,note_on,,,,,116,0,15,,,11,,,67,68
15806,note_on,,,,,27,0,16,,,12,,,52,68
15811,note_on,,,,,28,0,13,,,8,,,79,82
15813,note_off,,,,,2,0,13,,,8,,,78,64
15823,note_on,,,,,45,0,12,,,7,,,52,64
15826,note_on,,,,,122,0,11,,,6,,,67,78
15831,note_off,,,,,48,0,9,,,4,,,78,64
15833,note_on,,,,,2,0,9,,,4,,,79,66
15910,note_off,,,,,104,0,16,,,12,,,52,64
15913,note_off,,,,,90,0,12,,,7,,,52,64
15938,note_off,,,,,136,0,15,,,11,,,67,64
15956,note_off,,,,,143,0,13,,,8,,,79,64
15962,note_off,,,,,129,0,9,,,4,,,79,64
15964,note_off,,,,,138,0,11,,,6,,,67,64
15981,note_off,,,,,399,0,10,,,5,,,71,64
16033,note_off,,,,,463,0,14,,,10,,,71,64
16050,note_on,,,,,112,0,15,,,11,,,66,72
16051,note_on,,,,,95,0,13,,,8,,,75,70
16055,note_on,,,,,145,0,16,,,12,,,59,80
16059,note_on,,,,,95,0,11,,,6,,,66,59
16065,note_on,,,,,84,0,10,,,5,,,69,64
16069,note_on,,,,,156,0,12,,,7,,,59,82
16077,note_on,,,,,115,0,9,,,4,,,75,63
16078,note_on,,,,,45,0,14,,,10,,,69,68
16146,note_off,,,,,95,0,13,,,8,,,75,64
16155,note_off,,,,,90,0,10,,,5,,,69,64
16170,note_off,,,,,115,0,16,,,12,,,59,64
16179,note_off,,,,,101,0,14,,,10,,,69,64
16187,note_off,,,,,118,0,12,,,7,,,59,64
16187,note_off,,,,,110,0,9,,,4,,,75,64
16190,note_off,,,,,131,0,11,,,6,,,66,64
16196,note_off,,,,,146,0,15,,,11,,,66,64
16295,note_on,,,,,140,0,10,,,5,,,67,60
16300,note_on,,,,,154,0,13,,,8,,,76,82
16302,note_on,,,,,123,0,14,,,10,,,67,61
16304,note_on,,,,,134,0,16,,,12,,,60,68
16310,note_on,,,,,120,0,11,,,6,,,64,63
16312,note_on,,,,,116,0,15,,,11,,,64,66
16318,note_on,,,,,131,0,12,,,7,,,60,68
16319,note_on,,,,,132,0,9,,,4,,,76,63
16400,note_off,,,,,105,0,10,,,5,,,67,64
16413,note_off,,,,,109,0,16,,,12,,,60,64
16413,note_off,,,,,95,0,12,,,7,,,60,64
16424,note_off,,,,,122,0,14,,,10,,,67,64
16427,note_off,,,,,117,0,11,,,6,,,64,64
16542,note_on,,,,,129,0,16,,,12,,,57,78
16545,note_on,,,,,121,0,14,,,10,,,72,80
16545,note_on,,,,,145,0,10,,,5,,,72,80
16546,note_on,,,,,119,0,11,,,6,,,69,70
16559,note_on,,,,,146,0,12,,,7,,,57,72
16582,note_off,,,,,282,0,13,,,8,,,76,64
16589,note_off,,,,,270,0,9,,,4,,,76,64
16637,note_off,,,,,91,0,11,,,6,,,69,64
16648,note_on,,,,,66,0,13,,,8,,,78,63
16656,note_off,,,,,111,0,10,,,5,,,72,64
16659,note_off,,,,,117,0,16,,,12,,,57,64
16665,note_off,,,,,106,0,12,,,7,,,57,64
16667,note_on,,,,,78,0,9,,,4,,,78,66
16676,note_off,,,,,131,0,14,,,10,,,72,64
16720,note_off,,,,,72,0,13,,,8,,,78,64
16731,note_off,,,,,419,0,15,,,11,,,64,64
16734,note_off,,,,,67,0,9,,,4,,,78,64
16769,note_on,,,,,49,0,13,,,8,,,79,80
16781,note_on,,,,,144,0,11,,,6,,,64,70
16781,note_on,,,,,105,0,14,,,10,,,71,61
16781,note_on,,,,,47,0,9,,,4,,,79,74
16785,note_on,,,,,129,0,10,,,5,,,71,72
16786,note_on,,,,,55,0,15,,,11,,,63,64
16786,note_on,,,,,127,0,16,,,12,,,59,63
16799,note_on,,,,,134,0,12,,,7,,,59,66
16862,note_on,,,,,93,0,13,,,8,,,78,60
16866,note_off,,,,,4,0,13,,,8,,,79,64
16868,note_on,,,,,87,0,9,,,4,,,78,52
16874,note_off,,,,,6,0,9,,,4,,,79,64
16875,note_off,,,,,76,0,12,,,7,,,59,64
16875,note_off,,,,,89,0,16,,,12,,,59,64
16887,note_off,,,,,102,0,10,,,5,,,71,64
16890,note_off,,,,,109,0,11,,,6,,,64,64
16892,note_on,,,,,2,0,11,,,6,,,63,55
16896,note_off,,,,,110,0,15,,,11,,,63,64
16899,note_on,,,,,33,0,13,,,8,,,79,70
16900,note_off,,,,,1,0,13,,,8,,,78,64
16901,note_off,,,,,27,0,9,,,4,,,78,64
16908,note_off,,,,,127,0,14,,,10,,,71,64
16910,note_on,,,,,9,0,9,,,4,,,79,61
16915,note_on,,,,,23,0,11,,,6,,,64,64
16919,note_off,,,,,4,0,11,,,6,,,63,64
16932,note_on,,,,,32,0,13,,,8,,,78,61
16936,note_on,,,,,26,0,9,,,4,,,78,59
16940,note_off,,,,,8,0,13,,,8,,,79,64
16941,note_off,,,,,5,0,9,,,4,,,79,64
16958,note_on,,,,,39,0,11,,,6,,,63,60
16966,note_off,,,,,8,0,11,,,6,,,64,64
16970,note_on,,,,,30,0,13,,,8,,,79,66
16972,note_off,,,,,2,0,13,,,8,,,78,64
16975,note_off,,,,,34,0,9,,,4,,,78,64
16979,note_on,,,,,4,0,9,,,4,,,79,82
16992,note_on,,,,,26,0,11,,,6,,,64,68
16995,note_on,,,,,23,0,13,,,8,,,78,57
16996,note_off,,,,,1,0,13,,,8,,,79,64
16998,note_off,,,,,6,0,11,,,6,,,63,64
17010,note_on,,,,,14,0,13,,,8,,,79,55
17017,note_on,,,,,38,0,9,,,4,,,78,61
17017,note_on,,,,,121,0,15,,,11,,,59,74
17018,note_on,,,,,131,0,10,,,5,,,69,68
17022,note_on,,,,,24,0,11,,,6,,,63,66
17024,note_on,,,,,116,0,14,,,10,,,69,62
17024,note_off,,,,,14,0,13,,,8,,,78,64
17028,note_on,,,,,153,0,12,,,7,,,47,72
17030,note_on,,,,,155,0,16,,,12,,,47,66
17033,note_off,,,,,16,0,9,,,4,,,79,64
17041,note_off,,,,,19,0,11,,,6,,,64,64
17041,note_on,,,,,17,0,13,,,8,,,78,63
17064,note_off,,,,,23,0,13,,,8,,,79,64
17103,note_off,,,,,85,0,10,,,5,,,69,64
17124,note_off,,,,,91,0,9,,,4,,,78,64
17125,note_off,,,,,101,0,14,,,10,,,69,64
17125,note_off,,,,,108,0,15,,,11,,,59,64
17125,note_off,,,,,97,0,12,,,7,,,47,64
17127,note_on,,,,,86,0,11,,,6,,,64,63
17132,note_off,,,,,5,0,11,,,6,,,63,64
17134,note_on,,,,,10,0,9,,,4,,,76,68
17134,note_off,,,,,104,0,16,,,12,,,47,64
17151,note_on,,,,,87,0,13,,,8,,,76,82
17169,note_off,,,,,18,0,13,,,8,,,78,64
17207,note_off,,,,,75,0,11,,,6,,,64,64
17208,note_off,,,,,74,0,9,,,4,,,76,64
17217,note_off,,,,,48,0,13,,,8,,,76,64
17263,note_on,,,,,160,0,10,,,5,,,67,62
17268,note_on,,,,,143,0,14,,,10,,,67,66
17269,note_on,,,,,62,0,11,,,6,,,64,64
17273,note_on,,,,,139,0,16,,,12,,,52,76
17273,note_on,,,,,148,0,12,,,7,,,52,82
17277,note_on,,,,,152,0,15,,,11,,,59,74
17282,note_on,,,,,74,0,9,,,4,,,76,63
17284,note_on,,,,,67,0,13,,,8,,,76,66
17355,note_off,,,,,82,0,12,,,7,,,52,64
17379,note_off,,,,,106,0,16,,,12,,,52,64
17512,note_on,,,,,157,0,12,,,7,,,43,68
17512,note_on,,,,,133,0,16,,,12,,,43,70
17606,note_off,,,,,94,0,12,,,7,,,43,64
17617,note_off,,,,,105,0,16,,,12,,,43,64
17745,note_on,,,,,139,0,12,,,7,,,47,72
17747,note_on,,,,,130,0,16,,,12,,,47,68
17823,note_off,,,,,554,0,11,,,6,,,64,64
17832,note_off,,,,,87,0,12,,,7,,,47,64
17846,note_off,,,,,99,0,16,,,12,,,47,64
17852,note_off,,,,,584,0,14,,,10,,,67,64
17859,note_off,,,,,582,0,15,,,11,,,59,64
17864,note_off,,,,,582,0,9,,,4,,,76,64
17867,note_off,,,,,604,0,10,,,5,,,67,64
17876,note_off,,,,,592,0,13,,,8,,,76,64
17979,note_on,,,,,127,0,14,,,10,,,76,68
17990,note_on,,,,,144,0,16,,,12,,,40,80
17991,note_on,,,,,115,0,13,,,8,,,79,85
17991,note_on,,,,,159,0,12,,,7,,,40,74
17994,note_on,,,,,130,0,9,,,4,,,79,82
17994,note_on,,,,,127,0,10,,,5,,,76,78
17995,note_on,,,,,136,0,15,,,11,,,71,80
17996,note_on,,,,,173,0,11,,,6,,,71,78
18097,note_off,,,,,103,0,9,,,4,,,79,64
18100,note_on,,,,,3,0,9,,,4,,,81,64
18102,note_on,,,,,111,0,13,,,8,,,81,74
18104,note_on,,,,,125,0,14,,,10,,,78,64
18105,note_on,,,,,109,0,11,,,6,,,69,64
18106,note_on,,,,,112,0,10,,,5,,,78,60
18109,note_off,,,,,3,0,10,,,5,,,76,64
18112,note_off,,,,,10,0,13,,,8,,,79,64
18113,note_off,,,,,8,0,11,,,6,,,71,64
18116,note_off,,,,,12,0,14,,,10,,,76,64
18117,note_on,,,,,122,0,15,,,11,,,69,80
18121,note_off,,,,,131,0,16,,,12,,,40,64
18135,note_off,,,,,18,0,15,,,11,,,71,64
18158,note_off,,,,,167,0,12,,,7,,,40,64
18191,note_off,,,,,91,0,9,,,4,,,81,64
18205,note_off,,,,,93,0,13,,,8,,,81,64
18219,note_off,,,,,110,0,10,,,5,,,78,64
18222,note_off,,,,,87,0,15,,,11,,,69,64
18226,note_on,,,,,105,0,16,,,12,,,52,70
18226,note_on,,,,,113,0,11,,,6,,,67,62
18227,note_on,,,,,22,0,13,,,8,,,83,82
18228,note_off,,,,,112,0,14,,,10,,,78,64
18230,note_off,,,,,4,0,11,,,6,,,69,64
18230,note_on,,,,,11,0,10,,,5,,,79,68
18232,note_on,,,,,10,0,15,,,11,,,67,78
18232,note_on,,,,,41,0,9,,,4,,,83,85
18235,note_on,,,,,7,0,14,,,10,,,79,76
18240,note_on,,,,,82,0,12,,,7,,,52,68
18333,note_off,,,,,106,0,13,,,8,,,83,64
18338,note_off,,,,,106,0,9,,,4,,,83,64
18338,note_off,,,,,112,0,16,,,12,,,52,64
18341,note_on,,,,,109,0,15,,,11,,,69,72
18342,note_on,,,,,4,0,16,,,12,,,54,64
18345,note_off,,,,,105,0,12,,,7,,,52,64
18346,note_on,,,,,116,0,11,,,6,,,69,66
18346,note_on,,,,,1,0,12,,,7,,,54,59
18349,note_off,,,,,3,0,11,,,6,,,67,64
18351,note_off,,,,,10,0,15,,,11,,,67,64
18438,note_off,,,,,96,0,16,,,12,,,54,64
18441,note_off,,,,,95,0,12,,,7,,,54,64
18450,note_off,,,,,99,0,15,,,11,,,69,64
18453,note_off,,,,,104,0,11,,,6,,,69,64
18455,note_on,,,,,17,0,16,,,12,,,55,72
18459,note_on,,,,,9,0,15,,,11,,,71,70
18469,note_on,,,,,28,0,12,,,7,,,55,70
18473,note_on,,,,,20,0,11,,,6,,,71,68
18478,note_on,,,,,140,0,9,,,4,,,74,60
18478,note_on,,,,,145,0,13,,,8,,,74,70
18546,note_off,,,,,91,0,16,,,12,,,55,64
18552,note_off,,,,,83,0,12,,,7,,,55,64
18568,note_off,,,,,95,0,11,,,6,,,71,64
18572,note_off,,,,,113,0,15,,,11,,,71,64
18573,note_on,,,,,1,0,15,,,11,,,67,78
18577,note_on,,,,,31,0,16,,,12,,,52,59
18578,note_on,,,,,10,0,11,,,6,,,67,62
18583,note_on,,,,,31,0,12,,,7,,,52,58
18583,note_off,,,,,105,0,13,,,8,,,74,64
18587,note_off,,,,,109,0,9,,,4,,,74,64
18651,note_off,,,,,68,0,12,,,7,,,52,64
18660,note_off,,,,,83,0,16,,,12,,,52,64
18673,note_off,,,,,100,0,15,,,11,,,67,64
18678,note_off,,,,,100,0,11,,,6,,,67,64
18700,note_on,,,,,27,0,15,,,11,,,64,62
18703,note_on,,,,,43,0,16,,,12,,,57,82
18704,note_on,,,,,53,0,12,,,7,,,57,78
18708,note_on,,,,,125,0,13,,,8,,,73,62
18712,note_on,,,,,34,0,11,,,6,,,64,62
18721,note_on,,,,,134,0,9,,,4,,,73,60
18802,note_off,,,,,99,0,16,,,12,,,57,64
18802,note_off,,,,,98,0,12,,,7,,,57,64
18813,note_on,,,,,11,0,12,,,7,,,55,68
18815,note_on,,,,,13,0,16,,,12,,,55,66
18817,note_off,,,,,109,0,13,,,8,,,73,64
18836,note_off,,,,,115,0,9,,,4,,,73,64
18841,note_off,,,,,141,0,15,,,11,,,64,64
18842,note_off,,,,,130,0,11,,,6,,,64,64
18850,note_off,,,,,620,0,10,,,5,,,79,64
18872,note_off,,,,,637,0,14,,,10,,,79,64
18928,note_off,,,,,113,0,16,,,12,,,55,64
18931,note_off,,,,,118,0,12,,,7,,,55,64
18936,note_on,,,,,5,0,12,,,7,,,57,66
18944,note_on,,,,,16,0,16,,,12,,,57,66
18954,note_on,,,,,104,0,10,,,5,,,78,66
18954,note_on,,,,,82,0,14,,,10,,,78,61
18954,note_on,,,,,112,0,11,,,6,,,73,63
18958,note_on,,,,,141,0,13,,,8,,,81,82
18961,note_on,,,,,120,0,15,,,11,,,73,82
18963,note_on,,,,,127,0,9,,,4,,,81,70
19045,note_off,,,,,109,0,12,,,7,,,57,64
19051,note_off,,,,,107,0,16,,,12,,,57,64
19059,note_on,,,,,8,0,16,,,12,,,59,66
19059,note_on,,,,,14,0,12,,,7,,,59,68
19069,note_off,,,,,115,0,10,,,5,,,78,64
19073,note_off,,,,,119,0,11,,,6,,,73,64
19082,note_off,,,,,128,0,14,,,10,,,78,64
19088,note_off,,,,,127,0,15,,,11,,,73,64
19160,note_off,,,,,101,0,12,,,7,,,59,64
19164,note_off,,,,,105,0,16,,,12,,,59,64
19178,note_on,,,,,18,0,12,,,7,,,61,59
19180,note_on,,,,,16,0,16,,,12,,,61,60
19186,note_on,,,,,104,0,14,,,10,,,76,56
19189,note_on,,,,,120,0,10,,,5,,,76,64
19198,note_on,,,,,125,0,11,,,6,,,69,70
19207,note_on,,,,,119,0,15,,,11,,,69,80
19272,note_off,,,,,92,0,16,,,12,,,61,64
19277,note_on,,,,,5,0,16,,,12,,,57,66
19286,note_off,,,,,108,0,12,,,7,,,61,64
19292,note_on,,,,,6,0,12,,,7,,,57,66
19299,note_off,,,,,110,0,10,,,5,,,76,64
19307,note_off,,,,,121,0,14,,,10,,,76,64
19310,note_off,,,,,352,0,13,,,8,,,81,64
19329,note_off,,,,,366,0,9,,,4,,,81,64
19378,note_off,,,,,101,0,16,,,12,,,57,64
19379,note_off,,,,,87,0,12,,,7,,,57,64
19417,note_on,,,,,107,0,13,,,8,,,78,80
19418,note_on,,,,,40,0,16,,,12,,,62,85
19418,note_on,,,,,111,0,14,,,10,,,74,66
19421,note_on,,,,,42,0,12,,,7,,,62,82
19435,note_on,,,,,136,0,10,,,5,,,74,76
19435,note_on,,,,,106,0,9,,,4,,,78,85
19529,note_off,,,,,331,0,11,,,6,,,69,64
19533,note_off,,,,,115,0,14,,,10,,,74,64
19533,note_on,,,,,4,0,11,,,6,,,67,66
19533,note_on,,,,,116,0,13,,,8,,,79,70
19533,note_off,,,,,326,0,15,,,11,,,69,64
19536,note_on,,,,,3,0,14,,,10,,,76,66
19539,note_off,,,,,6,0,13,,,8,,,78,64
19539,note_on,,,,,6,0,15,,,11,,,67,70
19542,note_off,,,,,107,0,9,,,4,,,78,64
19544,note_on,,,,,0,0,10,,,5,,,76,64
19544,note_off,,,,,109,0,10,,,5,,,74,64
19549,note_on,,,,,7,0,9,,,4,,,79,70
19549,note_off,,,,,131,0,16,,,12,,,62,64
19555,note_off,,,,,134,0,12,,,7,,,62,64
19631,note_off,,,,,92,0,15,,,11,,,67,64
19640,note_off,,,,,101,0,13,,,8,,,79,64
19644,note_off,,,,,95,0,9,,,4,,,79,64
19650,note_on,,,,,19,0,15,,,11,,,66,66
19655,note_on,,,,,119,0,14,,,10,,,78,58
19655,note_off,,,,,111,0,10,,,5,,,76,64
19655,note_off,,,,,122,0,11,,,6,,,67,64
19656,note_off,,,,,1,0,14,,,10,,,76,64
19660,note_on,,,,,16,0,9,,,4,,,81,74
19660,note_on,,,,,5,0,11,,,6,,,66,60
19663,note_on,,,,,114,0,16,,,12,,,50,70
19664,note_on,,,,,24,0,13,,,8,,,81,78
19666,note_on,,,,,111,0,12,,,7,,,50,66
19675,note_on,,,,,20,0,10,,,5,,,78,58
19756,note_off,,,,,96,0,11,,,6,,,66,64
19761,note_on,,,,,111,0,15,,,11,,,67,68
19761,note_on,,,,,5,0,11,,,6,,,67,60
19764,note_off,,,,,100,0,13,,,8,,,81,64
19768,note_on,,,,,105,0,16,,,12,,,52,66
19771,note_off,,,,,10,0,15,,,11,,,66,64
19772,note_off,,,,,112,0,9,,,4,,,81,64
19773,note_on,,,,,107,0,12,,,7,,,52,64
19773,note_off,,,,,5,0,16,,,12,,,50,64
19785,note_off,,,,,12,0,12,,,7,,,50,64
19866,note_off,,,,,81,0,12,,,7,,,52,64
19866,note_off,,,,,93,0,16,,,12,,,52,64
19883,note_off,,,,,112,0,15,,,11,,,67,64
19886,note_on,,,,,20,0,16,,,12,,,54,60
19887,note_on,,,,,4,0,15,,,11,,,69,68
19891,note_off,,,,,130,0,11,,,6,,,67,64
19899,note_on,,,,,135,0,13,,,8,,,72,68
19899,note_on,,,,,8,0,11,,,6,,,69,63
19900,note_on,,,,,34,0,12,,,7,,,54,58
19904,note_on,,,,,132,0,9,,,4,,,72,66
19988,note_off,,,,,102,0,16,,,12,,,54,64
19991,note_off,,,,,91,0,12,,,7,,,54,64
19995,note_off,,,,,96,0,11,,,6,,,69,64
19999,note_on,,,,,11,0,16,,,12,,,50,66
19999,note_on,,,,,0,0,15,,,11,,,66,82
19999,note_off,,,,,112,0,15,,,11,,,69,64
20001,note_off,,,,,102,0,13,,,8,,,72,64
20008,note_on,,,,,13,0,11,,,6,,,66,58
20008,note_on,,,,,17,0,12,,,7,,,50,63
20010,note_off,,,,,106,0,9,,,4,,,72,64
20083,note_off,,,,,75,0,12,,,7,,,50,64
20101,note_off,,,,,102,0,16,,,12,,,50,64
20105,note_off,,,,,97,0,11,,,6,,,66,64
20113,note_off,,,,,114,0,15,,,11,,,66,64
20120,note_on,,,,,19,0,16,,,12,,,55,82
20126,note_on,,,,,13,0,15,,,11,,,62,78
20137,note_on,,,,,32,0,11,,,6,,,62,66
20139,note_on,,,,,56,0,12,,,7,,,55,70
20141,note_on,,,,,131,0,9,,,4,,,71,60
20144,note_on,,,,,143,0,13,,,8,,,71,66
20232,note_off,,,,,112,0,16,,,12,,,55,64
20240,note_on,,,,,8,0,16,,,12,,,54,59
20240,note_off,,,,,101,0,12,,,7,,,55,64
20246,note_on,,,,,6,0,12,,,7,,,54,55
20250,note_off,,,,,106,0,13,,,8,,,71,64
20254,note_off,,,,,113,0,9,,,4,,,71,64
20262,note_off,,,,,125,0,11,,,6,,,62,64
20271,note_off,,,,,145,0,15,,,11,,,62,64
20275,note_off,,,,,619,0,14,,,10,,,78,64
20298,note_off,,,,,623,0,10,,,5,,,78,64
20359,note_off,,,,,113,0,12,,,7,,,54,64
20363,note_on,,,,,123,0,16,,,12,,,55,66
20367,note_off,,,,,4,0,16,,,12,,,54,64
20372,note_on,,,,,101,0,15,,,11,,,71,82
20374,note_on,,,,,15,0,12,,,7,,,55,60
20378,note_on,,,,,116,0,11,,,6,,,71,82
20380,note_on,,,,,105,0,14,,,10,,,76,68
20383,note_on,,,,,129,0,9,,,4,,,79,72
20391,note_on,,,,,93,0,10,,,5,,,76,63
20397,note_on,,,,,147,0,13,,,8,,,79,85
20455,note_off,,,,,88,0,16,,,12,,,55,64
20479,note_on,,,,,24,0,16,,,12,,,57,66
20485,note_off,,,,,107,0,11,,,6,,,71,64
20489,note_off,,,,,109,0,14,,,10,,,76,64
20495,note_off,,,,,123,0,15,,,11,,,71,64
20496,note_off,,,,,122,0,12,,,7,,,55,64
20498,note_off,,,,,107,0,10,,,5,,,76,64
20504,note_on,,,,,8,0,12,,,7,,,57,64
20588,note_off,,,,,84,0,12,,,7,,,57,64
20592,note_off,,,,,113,0,16,,,12,,,57,64
20597,note_on,,,,,5,0,16,,,12,,,59,72
20612,note_on,,,,,24,0,12,,,7,,,59,68
20613,note_on,,,,,118,0,15,,,11,,,67,80
20622,note_on,,,,,133,0,14,,,10,,,74,80
20626,note_on,,,,,141,0,11,,,6,,,67,72
20634,note_on,,,,,136,0,10,,,5,,,74,60
20697,note_off,,,,,85,0,12,,,7,,,59,64
20714,note_off,,,,,117,0,16,,,12,,,59,64
20718,note_on,,,,,4,0,16,,,12,,,55,68
20723,note_off,,,,,101,0,14,,,10,,,74,64
20724,note_on,,,,,27,0,12,,,7,,,55,66
20741,note_off,,,,,107,0,10,,,5,,,74,64
20761,note_off,,,,,364,0,13,,,8,,,79,64
20762,note_off,,,,,379,0,9,,,4,,,79,64
20815,note_off,,,,,97,0,16,,,12,,,55,64
20822,note_off,,,,,98,0,12,,,7,,,55,64
20848,note_on,,,,,33,0,16,,,12,,,57,78
20853,note_on,,,,,31,0,12,,,7,,,57,74
20867,note_on,,,,,144,0,14,,,10,,,69,68
20871,note_on,,,,,110,0,13,,,8,,,73,74
20876,note_on,,,,,135,0,10,,,5,,,69,57
20886,note_on,,,,,124,0,9,,,4,,,73,68
20977,note_off,,,,,351,0,11,,,6,,,67,64
20978,note_on,,,,,107,0,13,,,8,,,74,78
20982,note_off,,,,,4,0,13,,,8,,,73,64
20985,note_on,,,,,99,0,9,,,4,,,74,78
20997,note_off,,,,,144,0,12,,,7,,,57,64
20999,note_off,,,,,14,0,9,,,4,,,73,64
21002,note_off,,,,,154,0,16,,,12,,,57,64
21045,note_off,,,,,432,0,15,,,11,,,67,64
21085,note_off,,,,,86,0,9,,,4,,,74,64
21085,note_off,,,,,103,0,13,,,8,,,74,64
21096,note_on,,,,,94,0,16,,,12,,,55,68
21104,note_on,,,,,107,0,12,,,7,,,55,70
21105,note_on,,,,,20,0,13,,,8,,,76,76
21108,note_on,,,,,23,0,9,,,4,,,76,76
21111,note_on,,,,,66,0,15,,,11,,,61,76
21112,note_on,,,,,135,0,11,,,6,,,74,78
21202,note_off,,,,,106,0,16,,,12,,,55,64
21203,note_on,,,,,91,0,11,,,6,,,73,54
21204,note_off,,,,,99,0,13,,,8,,,76,64
21207,note_off,,,,,99,0,9,,,4,,,76,64
21208,note_on,,,,,6,0,16,,,12,,,54,60
21212,note_off,,,,,9,0,11,,,6,,,74,64
21218,note_off,,,,,114,0,12,,,7,,,55,64
21223,note_on,,,,,5,0,12,,,7,,,54,64
21227,note_off,,,,,116,0,15,,,11,,,61,64
21239,note_on,,,,,27,0,11,,,6,,,74,58
21244,note_off,,,,,5,0,11,,,6,,,73,64
21280,note_on,,,,,36,0,11,,,6,,,73,58
21288,note_off,,,,,8,0,11,,,6,,,74,64
21311,note_off,,,,,103,0,16,,,12,,,54,64
21317,note_on,,,,,29,0,11,,,6,,,74,57
21323,note_off,,,,,6,0,11,,,6,,,73,64
21327,note_on,,,,,16,0,16,,,12,,,55,66
21328,note_off,,,,,105,0,12,,,7,,,54,64
21343,note_on,,,,,15,0,12,,,7,,,55,66
21344,note_on,,,,,140,0,13,,,8,,,69,68
21344,note_on,,,,,21,0,11,,,6,,,73,29
21345,note_off,,,,,1,0,11,,,6,,,74,64
21345,note_on,,,,,118,0,15,,,11,,,64,78
21350,note_on,,,,,143,0,9,,,4,,,69,68
21362,note_on,,,,,0,0,11,,,6,,,74,63
21362,note_off,,,,,17,0,11,,,6,,,73,64
21401,note_on,,,,,39,0,11,,,6,,,73,59
21419,note_off,,,,,18,0,11,,,6,,,74,64
21436,note_off,,,,,109,0,16,,,12,,,55,64
21438,note_off,,,,,94,0,13,,,8,,,69,64
21440,note_off,,,,,97,0,12,,,7,,,55,64
21450,note_on,,,,,14,0,16,,,12,,,52,64
21457,note_off,,,,,107,0,9,,,4,,,69,64
21459,note_on,,,,,19,0,12,,,7,,,52,61
21463,note_off,,,,,44,0,11,,,6,,,73,64
21463,note_on,,,,,0,0,11,,,6,,,71,66
21508,note_on,,,,,45,0,11,,,6,,,73,57
21532,note_off,,,,,82,0,16,,,12,,,52,64
21532,note_off,,,,,187,0,15,,,11,,,64,64
21537,note_off,,,,,78,0,12,,,7,,,52,64
21543,note_off,,,,,35,0,11,,,6,,,71,64
21566,note_off,,,,,23,0,11,,,6,,,73,64
21576,note_on,,,,,138,0,13,,,8,,,74,70
21576,note_on,,,,,44,0,16,,,12,,,54,82
21580,note_on,,,,,14,0,11,,,6,,,74,85
21580,note_on,,,,,48,0,15,,,11,,,66,80
21586,note_on,,,,,49,0,12,,,7,,,54,70
21588,note_on,,,,,131,0,9,,,4,,,74,68
21681,note_on,,,,,101,0,15,,,11,,,67,80
21685,note_on,,,,,109,0,16,,,12,,,52,63
21690,note_off,,,,,5,0,16,,,12,,,54,64
21694,note_on,,,,,118,0,13,,,8,,,76,76
21694,note_off,,,,,13,0,15,,,11,,,66,64
21699,note_on,,,,,113,0,12,,,7,,,52,64
21702,note_off,,,,,8,0,13,,,8,,,74,64
21702,note_on,,,,,114,0,9,,,4,,,76,66
21702,note_off,,,,,3,0,12,,,7,,,54,64
21703,note_off,,,,,123,0,11,,,6,,,74,64
21709,note_off,,,,,7,0,9,,,4,,,74,64
21742,note_off,,,,,875,0,14,,,10,,,69,64
21747,note_off,,,,,871,0,10,,,5,,,69,64
21787,note_off,,,,,97,0,16,,,12,,,52,64
21800,note_off,,,,,106,0,15,,,11,,,67,64
21804,note_on,,,,,17,0,16,,,12,,,50,78
21808,note_off,,,,,106,0,12,,,7,,,52,64
21813,note_on,,,,,13,0,15,,,11,,,69,74
21813,note_on,,,,,104,0,9,,,4,,,78,59
21816,note_off,,,,,3,0,9,,,4,,,76,64
21817,note_on,,,,,114,0,11,,,6,,,69,72
21817,note_on,,,,,75,0,14,,,10,,,74,80
21818,note_on,,,,,116,0,13,,,8,,,78,60
21821,note_on,,,,,13,0,12,,,7,,,50,66
21826,note_on,,,,,79,0,10,,,5,,,74,82
21834,note_off,,,,,16,0,13,,,8,,,76,64
21918,note_on,,,,,114,0,16,,,12,,,52,72
21922,note_off,,,,,96,0,10,,,5,,,74,64
21927,note_off,,,,,110,0,14,,,10,,,74,64
21928,note_off,,,,,111,0,11,,,6,,,69,64
21929,note_off,,,,,11,0,16,,,12,,,50,64
21932,note_on,,,,,5,0,14,,,10,,,73,62
21934,note_on,,,,,113,0,12,,,7,,,52,64
21935,note_off,,,,,122,0,15,,,11,,,69,64
21936,note_on,,,,,120,0,9,,,4,,,79,74
21936,note_on,,,,,102,0,13,,,8,,,79,78
21937,note_on,,,,,15,0,10,,,5,,,73,60
21939,note_off,,,,,3,0,9,,,4,,,78,64
21947,note_off,,,,,13,0,12,,,7,,,50,64
21952,note_off,,,,,16,0,13,,,8,,,78,64
22013,note_off,,,,,84,0,16,,,12,,,52,64
22015,note_off,,,,,78,0,10,,,5,,,73,64
22024,note_off,,,,,77,0,12,,,7,,,52,64
22027,note_off,,,,,95,0,14,,,10,,,73,64
22040,note_on,,,,,27,0,16,,,12,,,54,72
22044,note_off,,,,,92,0,13,,,8,,,79,64
22044,note_on,,,,,29,0,10,,,5,,,74,78
22050,note_off,,,,,111,0,9,,,4,,,79,64
22052,note_on,,,,,117,0,15,,,11,,,66,74
22054,note_on,,,,,10,0,13,,,8,,,81,85
22055,note_on,,,,,28,0,14,,,10,,,74,82
22058,note_on,,,,,8,0,9,,,4,,,81,80
22058,note_on,,,,,130,0,11,,,6,,,66,62
22064,note_on,,,,,40,0,12,,,7,,,54,68
22155,note_on,,,,,0,0,16,,,12,,,50,66
22155,note_off,,,,,115,0,16,,,12,,,54,64
22158,note_on,,,,,104,0,13,,,8,,,72,64
22160,note_off,,,,,116,0,10,,,5,,,74,64
22164,note_off,,,,,6,0,13,,,8,,,81,64
22167,note_off,,,,,103,0,12,,,7,,,54,64
22168,note_on,,,,,1,0,12,,,7,,,50,68
22169,note_off,,,,,111,0,9,,,4,,,81,64
22172,note_off,,,,,114,0,11,,,6,,,66,64
22172,note_on,,,,,3,0,9,,,4,,,72,72
22189,note_off,,,,,134,0,14,,,10,,,74,64
22204,note_off,,,,,152,0,15,,,11,,,66,64
22248,note_off,,,,,84,0,13,,,8,,,72,64
22249,note_off,,,,,77,0,9,,,4,,,72,64
22258,note_off,,,,,90,0,12,,,7,,,50,64
22259,note_off,,,,,104,0,16,,,12,,,50,64
22278,note_on,,,,,30,0,13,,,8,,,71,68
22289,note_on,,,,,40,0,9,,,4,,,71,66
22290,note_on,,,,,31,0,16,,,12,,,55,82
22292,note_on,,,,,34,0,12,,,7,,,55,78
22293,note_on,,,,,133,0,10,,,5,,,67,60
22296,note_on,,,,,107,0,14,,,10,,,67,74
22307,note_on,,,,,103,0,15,,,11,,,62,76
22310,note_on,,,,,138,0,11,,,6,,,62,68
22401,note_off,,,,,108,0,10,,,5,,,67,64
22407,note_off,,,,,118,0,9,,,4,,,71,64
22410,note_off,,,,,118,0,12,,,7,,,55,64
22413,note_off,,,,,117,0,14,,,10,,,67,64
22414,note_off,,,,,136,0,13,,,8,,,71,64
22426,note_off,,,,,119,0,15,,,11,,,62,64
22427,note_off,,,,,137,0,16,,,12,,,55,64
22434,note_off,,,,,124,0,11,,,6,,,62,64
22528,note_on,,,,,114,0,13,,,8,,,73,63
22535,note_on,,,,,108,0,16,,,12,,,52,76
22536,note_on,,,,,110,0,15,,,11,,,64,78
22536,note_on,,,,,123,0,14,,,10,,,67,72
22538,note_on,,,,,128,0,12,,,7,,,52,70
22538,note_on,,,,,137,0,10,,,5,,,67,63
22539,note_on,,,,,132,0,9,,,4,,,73,64
22545,note_on,,,,,111,0,11,,,6,,,64,64
22631,note_off,,,,,93,0,12,,,7,,,52,64
22645,note_off,,,,,110,0,16,,,12,,,52,64
22652,note_off,,,,,114,0,10,,,5,,,67,64
22658,note_off,,,,,119,0,9,,,4,,,73,64
22659,note_off,,,,,123,0,14,,,10,,,67,64
22665,note_off,,,,,137,0,13,,,8,,,73,64
22667,note_off,,,,,131,0,15,,,11,,,64,64
22675,note_off,,,,,130,0,11,,,6,,,64,64
22772,note_on,,,,,113,0,14,,,10,,,69,64
22777,note_on,,,,,125,0,10,,,5,,,69,63
22777,note_on,,,,,112,0,13,,,8,,,74,82
22779,note_on,,,,,112,0,15,,,11,,,66,72
22784,note_on,,,,,153,0,12,,,7,,,50,74
22784,note_on,,,,,126,0,9,,,4,,,74,76
22785,note_on,,,,,140,0,16,,,12,,,50,82
22793,note_on,,,,,118,0,11,,,6,,,66,59
22886,note_off,,,,,109,0,13,,,8,,,74,64
22891,note_off,,,,,107,0,9,,,4,,,74,64
22894,note_off,,,,,117,0,10,,,5,,,69,64
22899,note_off,,,,,115,0,12,,,7,,,50,64
22903,note_off,,,,,110,0,11,,,6,,,66,64
22904,note_off,,,,,125,0,15,,,11,,,66,64
22908,note_off,,,,,123,0,16,,,12,,,50,64
22915,note_off,,,,,143,0,14,,,10,,,69,64
23022,note_on,,,,,136,0,13,,,8,,,76,82
23022,note_on,,,,,118,0,15,,,11,,,69,85
23024,note_on,,,,,133,0,9,,,4,,,76,80
23025,note_on,,,,,110,0,14,,,10,,,73,62
23030,note_on,,,,,136,0,10,,,5,,,73,66
23032,note_on,,,,,133,0,12,,,7,,,57,74
23036,note_on,,,,,128,0,16,,,12,,,57,80
23036,note_on,,,,,133,0,11,,,6,,,69,76
23144,note_off,,,,,114,0,10,,,5,,,73,64
23153,note_off,,,,,131,0,15,,,11,,,69,64
23160,note_off,,,,,124,0,11,,,6,,,69,64
23180,note_off,,,,,155,0,14,,,10,,,73,64
23211,note_off,,,,,187,0,9,,,4,,,76,64
23215,note_off,,,,,193,0,13,,,8,,,76,64
23254,note_on,,,,,74,0,14,,,10,,,69,64
23257,note_on,,,,,104,0,15,,,11,,,64,80
23265,note_on,,,,,50,0,13,,,8,,,74,85
23267,note_on,,,,,123,0,10,,,5,,,69,70
23269,note_on,,,,,58,0,9,,,4,,,74,80
23280,note_on,,,,,120,0,11,,,6,,,64,64
23372,note_off,,,,,103,0,9,,,4,,,74,64
23376,note_on,,,,,111,0,13,,,8,,,73,62
23380,note_off,,,,,113,0,10,,,5,,,69,64
23381,note_off,,,,,5,0,13,,,8,,,74,64
23382,note_on,,,,,10,0,9,,,4,,,73,55
23386,note_off,,,,,129,0,15,,,11,,,64,64
23397,note_off,,,,,143,0,14,,,10,,,69,64
23432,note_off,,,,,396,0,16,,,12,,,57,64
23447,note_off,,,,,415,0,12,,,7,,,57,64
23493,note_on,,,,,96,0,14,,,10,,,64,58
23497,note_on,,,,,111,0,15,,,11,,,61,60
23498,note_off,,,,,117,0,13,,,8,,,73,64
23498,note_on,,,,,0,0,13,,,8,,,71,64
23500,note_on,,,,,118,0,9,,,4,,,71,66
23504,note_on,,,,,72,0,16,,,12,,,55,68
23506,note_on,,,,,126,0,10,,,5,,,64,64
23507,note_on,,,,,60,0,12,,,7,,,55,66
23508,note_off,,,,,8,0,9,,,4,,,73,64
23592,note_off,,,,,84,0,9,,,4,,,71,64
23599,note_off,,,,,101,0,13,,,8,,,71,64
23612,note_on,,,,,13,0,13,,,8,,,69,70
23617,note_off,,,,,111,0,10,,,5,,,64,64
23620,note_on,,,,,28,0,9,,,4,,,69,74
23637,note_off,,,,,357,0,11,,,6,,,64,64
23642,note_off,,,,,138,0,16,,,12,,,55,64
23643,note_off,,,,,150,0,14,,,10,,,64,64
23646,note_off,,,,,149,0,15,,,11,,,61,64
23660,note_off,,,,,153,0,12,,,7,,,55,64
23692,note_off,,,,,80,0,13,,,8,,,69,64
23704,note_off,,,,,84,0,9,,,4,,,69,64
23739,note_on,,,,,47,0,13,,,8,,,74,82
23743,note_on,,,,,97,0,15,,,11,,,62,66
23745,note_on,,,,,108,0,11,,,6,,,62,60
23745,note_on,,,,,41,0,9,,,4,,,74,78
23750,note_on,,,,,133,0,10,,,5,,,69,64
23754,note_on,,,,,94,0,12,,,7,,,54,63
23754,note_on,,,,,111,0,14,,,10,,,69,60
23756,note_on,,,,,114,0,16,,,12,,,54,62
23845,note_off,,,,,100,0,9,,,4,,,74,64
23850,note_off,,,,,111,0,13,,,8,,,74,64
23856,note_on,,,,,11,0,9,,,4,,,73,62
23858,note_on,,,,,102,0,16,,,12,,,52,64
23859,note_on,,,,,9,0,13,,,8,,,73,66
23863,note_off,,,,,109,0,12,,,7,,,54,64
23866,note_off,,,,,8,0,16,,,12,,,54,64
23867,note_on,,,,,4,0,12,,,7,,,52,62
23881,note_off,,,,,138,0,15,,,11,,,62,64
23885,note_off,,,,,140,0,11,,,6,,,62,64
23945,note_off,,,,,89,0,9,,,4,,,73,64
23950,note_off,,,,,91,0,13,,,8,,,73,64
23975,note_off,,,,,109,0,16,,,12,,,52,64
23976,note_on,,,,,31,0,9,,,4,,,74,68
23976,note_on,,,,,1,0,16,,,12,,,54,64
23977,note_on,,,,,110,0,12,,,7,,,54,60
23980,note_off,,,,,3,0,12,,,7,,,52,64
23980,note_on,,,,,30,0,13,,,8,,,74,80
23985,note_on,,,,,104,0,15,,,11,,,62,57
23993,note_on,,,,,108,0,11,,,6,,,62,53
24082,note_off,,,,,102,0,12,,,7,,,54,64
24082,note_off,,,,,106,0,9,,,4,,,74,64
24085,note_off,,,,,109,0,16,,,12,,,54,64
24090,note_on,,,,,8,0,12,,,7,,,55,70
24090,note_on,,,,,5,0,16,,,12,,,55,82
24097,note_off,,,,,117,0,13,,,8,,,74,64
24111,note_off,,,,,126,0,15,,,11,,,62,64
24116,note_off,,,,,123,0,11,,,6,,,62,64
24205,note_off,,,,,115,0,12,,,7,,,55,64
24216,note_off,,,,,126,0,16,,,12,,,55,64
24216,note_on,,,,,0,0,16,,,12,,,57,74
24217,note_on,,,,,12,0,12,,,7,,,57,66
24224,note_on,,,,,127,0,13,,,8,,,69,68
24225,note_on,,,,,143,0,9,,,4,,,69,63
24229,note_on,,,,,118,0,15,,,11,,,62,66
24231,note_on,,,,,115,0,11,,,6,,,62,53
24326,note_off,,,,,110,0,16,,,12,,,57,64
24330,note_on,,,,,4,0,16,,,12,,,59,72
24330,note_off,,,,,113,0,12,,,7,,,57,64
24331,note_off,,,,,107,0,13,,,8,,,69,64
24334,note_on,,,,,4,0,12,,,7,,,59,76
24340,note_off,,,,,115,0,9,,,4,,,69,64
24357,note_off,,,,,126,0,11,,,6,,,62,64
24369,note_off,,,,,140,0,15,,,11,,,62,64
24440,note_off,,,,,110,0,16,,,12,,,59,64
24450,note_on,,,,,10,0,16,,,12,,,60,74
24450,note_off,,,,,116,0,12,,,7,,,59,64
24456,note_on,,,,,125,0,13,,,8,,,66,61
24458,note_on,,,,,8,0,12,,,7,,,60,76
24466,note_on,,,,,97,0,15,,,11,,,62,64
24467,note_on,,,,,127,0,9,,,4,,,66,57
24474,note_on,,,,,117,0,11,,,6,,,62,64
24551,note_off,,,,,797,0,14,,,10,,,69,64
24559,note_off,,,,,809,0,10,,,5,,,69,64
24568,note_on,,,,,17,0,14,,,10,,,71,68
24570,note_off,,,,,114,0,13,,,8,,,66,64
24579,note_on,,,,,20,0,10,,,5,,,71,68
24588,note_off,,,,,121,0,9,,,4,,,66,64
24609,note_off,,,,,143,0,15,,,11,,,62,64
24612,note_off,,,,,162,0,16,,,12,,,60,64
24621,note_off,,,,,147,0,11,,,6,,,62,64
24628,note_off,,,,,170,0,12,,,7,,,60,64
24676,note_off,,,,,108,0,14,,,10,,,71,64
24688,note_off,,,,,109,0,10,,,5,,,71,64
24689,note_on,,,,,77,0,16,,,12,,,54,64
24690,note_on,,,,,14,0,14,,,10,,,69,64
24695,note_on,,,,,7,0,10,,,5,,,69,60
24701,note_on,,,,,131,0,13,,,8,,,72,74
24702,note_on,,,,,93,0,15,,,11,,,62,60
24710,note_on,,,,,89,0,11,,,6,,,62,53
24711,note_on,,,,,83,0,12,,,7,,,54,63
24713,note_on,,,,,125,0,9,,,4,,,72,66
24802,note_off,,,,,113,0,16,,,12,,,54,64
24802,note_on,,,,,0,0,16,,,12,,,52,62
24808,note_on,,,,,118,0,14,,,10,,,67,66
24809,note_on,,,,,98,0,12,,,7,,,52,57
24811,note_off,,,,,3,0,14,,,10,,,69,64
24813,note_off,,,,,4,0,12,,,7,,,54,64
24815,note_on,,,,,120,0,10,,,5,,,67,66
24818,note_off,,,,,3,0,10,,,5,,,69,64
24838,note_off,,,,,136,0,15,,,11,,,62,64
24843,note_off,,,,,133,0,11,,,6,,,62,64
24918,note_off,,,,,105,0,12,,,7,,,52,64
24920,note_off,,,,,118,0,16,,,12,,,52,64
24930,note_on,,,,,119,0,14,,,10,,,69,70
24930,note_on,,,,,10,0,16,,,12,,,54,64
24931,note_off,,,,,113,0,10,,,5,,,67,64
24934,note_on,,,,,96,0,15,,,11,,,62,62
24938,note_off,,,,,8,0,14,,,10,,,67,64
24939,note_on,,,,,21,0,12,,,7,,,54,64
24939,note_on,,,,,96,0,11,,,6,,,62,60
24939,note_on,,,,,8,0,10,,,5,,,69,70
25044,note_on,,,,,114,0,16,,,12,,,50,66
25044,note_off,,,,,105,0,10,,,5,,,69,64
25047,note_off,,,,,109,0,14,,,10,,,69,64
25050,note_off,,,,,6,0,16,,,12,,,54,64
25050,note_on,,,,,3,0,14,,,10,,,66,60
25052,note_on,,,,,113,0,12,,,7,,,50,64
25053,note_on,,,,,9,0,10,,,5,,,66,60
25056,note_off,,,,,4,0,12,,,7,,,54,64
25061,note_off,,,,,127,0,15,,,11,,,62,64
25073,note_off,,,,,134,0,11,,,6,,,62,64
25073,note_off,,,,,360,0,9,,,4,,,72,64
25084,note_off,,,,,383,0,13,,,8,,,72,64
25131,note_off,,,,,81,0,16,,,12,,,50,64
25139,note_off,,,,,83,0,12,,,7,,,50,64
25153,note_off,,,,,100,0,10,,,5,,,66,64
25161,note_off,,,,,111,0,14,,,10,,,66,64
25170,note_on,,,,,39,0,16,,,12,,,55,78
25171,note_on,,,,,32,0,12,,,7,,,55,85
25172,note_on,,,,,11,0,14,,,10,,,67,78
25174,note_on,,,,,113,0,15,,,11,,,62,64
25179,note_on,,,,,95,0,13,,,8,,,71,68
25183,note_on,,,,,30,0,10,,,5,,,67,70
25189,note_on,,,,,116,0,9,,,4,,,71,68
25190,note_on,,,,,117,0,11,,,6,,,62,70
25288,note_on,,,,,117,0,12,,,7,,,57,63
25293,note_on,,,,,123,0,16,,,12,,,57,68
25303,note_off,,,,,10,0,16,,,12,,,55,64
25304,note_off,,,,,16,0,12,,,7,,,55,64
25312,note_off,,,,,138,0,15,,,11,,,62,64
25312,note_off,,,,,129,0,10,,,5,,,67,64
25317,note_off,,,,,145,0,14,,,10,,,67,64
25332,note_off,,,,,142,0,11,,,6,,,62,64
25381,note_off,,,,,77,0,12,,,7,,,57,64
25393,note_off,,,,,214,0,13,,,8,,,71,64
25396,note_off,,,,,207,0,9,,,4,,,71,64
25409,note_on,,,,,106,0,16,,,12,,,55,68
25411,note_on,,,,,30,0,12,,,7,,,55,70
25412,note_on,,,,,100,0,15,,,11,,,69,64
25415,note_off,,,,,6,0,16,,,12,,,57,64
25421,note_on,,,,,89,0,11,,,6,,,69,63
25428,note_on,,,,,35,0,13,,,8,,,73,63
25431,note_on,,,,,35,0,9,,,4,,,73,64
25433,note_on,,,,,116,0,14,,,10,,,76,82
25438,note_on,,,,,126,0,10,,,5,,,76,74
25523,note_off,,,,,108,0,16,,,12,,,55,64
25524,note_on,,,,,1,0,16,,,12,,,54,59
25533,note_on,,,,,122,0,12,,,7,,,54,60
25540,note_off,,,,,7,0,12,,,7,,,55,64
25542,note_on,,,,,111,0,9,,,4,,,74,68
25543,note_on,,,,,115,0,13,,,8,,,74,72
25551,note_off,,,,,9,0,9,,,4,,,73,64
25551,note_off,,,,,139,0,15,,,11,,,69,64
25566,note_off,,,,,145,0,11,,,6,,,69,64
25570,note_off,,,,,27,0,13,,,8,,,73,64
25632,note_off,,,,,81,0,9,,,4,,,74,64
25647,note_on,,,,,96,0,15,,,11,,,69,66
25649,note_off,,,,,125,0,16,,,12,,,54,64
25652,note_off,,,,,82,0,13,,,8,,,74,64
25653,note_on,,,,,113,0,12,,,7,,,52,60
25653,note_on,,,,,4,0,16,,,12,,,52,61
25660,note_off,,,,,7,0,12,,,7,,,54,64
25666,note_on,,,,,34,0,9,,,4,,,76,74
25670,note_on,,,,,104,0,11,,,6,,,69,60
25674,note_on,,,,,22,0,13,,,8,,,76,78
25768,note_off,,,,,102,0,9,,,4,,,76,64
25775,note_off,,,,,115,0,12,,,7,,,52,64
25776,note_on,,,,,102,0,13,,,8,,,78,64
25778,note_off,,,,,125,0,16,,,12,,,52,64
25778,note_on,,,,,10,0,9,,,4,,,78,70
25780,note_on,,,,,2,0,16,,,12,,,50,68
25781,note_off,,,,,5,0,13,,,8,,,76,64
25781,note_on,,,,,6,0,12,,,7,,,50,66
25810,note_off,,,,,163,0,15,,,11,,,69,64
25816,note_off,,,,,146,0,11,,,6,,,69,64
25873,note_off,,,,,93,0,16,,,12,,,50,64
25876,note_off,,,,,95,0,13,,,8,,,78,64
25876,note_off,,,,,98,0,9,,,4,,,78,64
25879,note_off,,,,,98,0,12,,,7,,,50,64
25888,note_on,,,,,15,0,16,,,12,,,49,63
25892,note_on,,,,,82,0,15,,,11,,,69,70
25898,note_on,,,,,19,0,12,,,7,,,49,63
25899,note_on,,,,,23,0,9,,,4,,,79,85
25902,note_on,,,,,26,0,13,,,8,,,79,85
25920,note_on,,,,,104,0,11,,,6,,,69,68
25964,note_off,,,,,531,0,14,,,10,,,76,64
26003,note_on,,,,,39,0,14,,,10,,,78,61
26004,note_off,,,,,102,0,13,,,8,,,79,64
26006,note_off,,,,,568,0,10,,,5,,,76,64
26008,note_on,,,,,120,0,16,,,12,,,50,68
26011,note_on,,,,,113,0,12,,,7,,,50,66
26016,note_off,,,,,8,0,16,,,12,,,49,64
26022,note_on,,,,,16,0,10,,,5,,,78,60
26026,note_off,,,,,15,0,12,,,7,,,49,64
26028,note_off,,,,,129,0,9,,,4,,,79,64
26051,note_off,,,,,131,0,11,,,6,,,69,64
26055,note_off,,,,,163,0,15,,,11,,,69,64
26111,note_off,,,,,85,0,12,,,7,,,50,64
26118,note_off,,,,,115,0,14,,,10,,,78,64
26121,note_off,,,,,105,0,16,,,12,,,50,64
26129,note_on,,,,,8,0,16,,,12,,,49,76
26129,note_on,,,,,11,0,14,,,10,,,76,64
26134,note_on,,,,,23,0,12,,,7,,,49,72
26135,note_on,,,,,131,0,13,,,8,,,69,66
26138,note_off,,,,,116,0,10,,,5,,,78,64
26138,note_on,,,,,83,0,15,,,11,,,69,74
26143,note_on,,,,,5,0,10,,,5,,,76,60
26151,note_on,,,,,100,0,11,,,6,,,69,64
26152,note_on,,,,,124,0,9,,,4,,,69,57
26235,note_off,,,,,106,0,16,,,12,,,49,64
26241,note_off,,,,,112,0,14,,,10,,,76,64
26248,note_on,,,,,7,0,14,,,10,,,74,66
26249,note_on,,,,,115,0,12,,,7,,,47,66
26250,note_off,,,,,1,0,12,,,7,,,49,64
26251,note_on,,,,,16,0,16,,,12,,,47,62
26256,note_off,,,,,113,0,10,,,5,,,76,64
26257,note_on,,,,,1,0,10,,,5,,,74,66
26283,note_off,,,,,132,0,11,,,6,,,69,64
26286,note_off,,,,,148,0,15,,,11,,,69,64
26340,note_off,,,,,92,0,14,,,10,,,74,64
26358,note_off,,,,,107,0,16,,,12,,,47,64
26361,note_off,,,,,104,0,10,,,5,,,74,64
26362,note_off,,,,,112,0,12,,,7,,,47,64
26368,note_on,,,,,10,0,16,,,12,,,49,57
26370,note_on,,,,,30,0,14,,,10,,,76,78
26372,note_on,,,,,10,0,12,,,7,,,49,57
26372,note_on,,,,,86,0,15,,,11,,,69,70
26383,note_on,,,,,22,0,10,,,5,,,76,70
26398,note_on,,,,,115,0,11,,,6,,,69,70
26466,note_off,,,,,331,0,13,,,8,,,69,64
26483,note_off,,,,,111,0,12,,,7,,,49,64
26485,note_on,,,,,2,0,12,,,7,,,45,64
26489,note_off,,,,,117,0,15,,,11,,,69,64
26490,note_on,,,,,0,0,16,,,12,,,45,68
26490,note_off,,,,,122,0,16,,,12,,,49,64
26492,note_off,,,,,94,0,11,,,6,,,69,64
26494,note_on,,,,,124,0,14,,,10,,,73,64
26495,note_off,,,,,343,0,9,,,4,,,69,64
26495,note_off,,,,,1,0,14,,,10,,,76,64
26502,note_off,,,,,119,0,10,,,5,,,76,64
26506,note_on,,,,,4,0,10,,,5,,,73,59
26590,note_off,,,,,105,0,12,,,7,,,45,64
26594,note_off,,,,,104,0,16,,,12,,,45,64
26595,note_off,,,,,100,0,14,,,10,,,73,64
26610,note_off,,,,,104,0,10,,,5,,,73,64
26612,note_on,,,,,22,0,12,,,7,,,50,68
26613,note_on,,,,,124,0,15,,,11,,,62,76
26613,note_on,,,,,19,0,16,,,12,,,50,76
26617,note_on,,,,,22,0,14,,,10,,,69,76
26625,note_on,,,,,133,0,11,,,6,,,62,60
26625,note_on,,,,,159,0,13,,,8,,,78,64
26630,note_on,,,,,20,0,10,,,5,,,69,64
26632,note_on,,,,,137,0,9,,,4,,,78,62
26733,note_on,,,,,120,0,16,,,12,,,49,66
26735,note_on,,,,,123,0,12,,,7,,,49,63
26735,note_off,,,,,110,0,13,,,8,,,78,64
26737,note_off,,,,,4,0,16,,,12,,,50,64
26738,note_off,,,,,106,0,9,,,4,,,78,64
26743,note_on,,,,,5,0,9,,,4,,,79,72
26747,note_on,,,,,12,0,13,,,8,,,79,72
26748,note_off,,,,,13,0,12,,,7,,,50,64
26761,note_off,,,,,131,0,10,,,5,,,69,64
26782,note_off,,,,,165,0,14,,,10,,,69,64
26843,note_off,,,,,100,0,9,,,4,,,79,64
26848,note_on,,,,,0,0,16,,,12,,,47,66
26848,note_off,,,,,111,0,16,,,12,,,49,64
26852,note_on,,,,,104,0,12,,,7,,,47,66
26853,note_off,,,,,106,0,13,,,8,,,79,64
26856,note_on,,,,,13,0,9,,,4,,,81,63
26857,note_off,,,,,5,0,12,,,7,,,49,64
26862,note_on,,,,,9,0,13,,,8,,,81,66
26866,note_on,,,,,84,0,14,,,10,,,74,74
26867,note_on,,,,,106,0,10,,,5,,,74,70
26949,note_on,,,,,93,0,9,,,4,,,79,55
26954,note_off,,,,,5,0,9,,,4,,,81,64
26959,note_on,,,,,102,0,12,,,7,,,45,53
26967,note_off,,,,,101,0,14,,,10,,,74,64
26969,note_off,,,,,107,0,13,,,8,,,81,64
26970,note_off,,,,,11,0,12,,,7,,,47,64
26970,note_on,,,,,3,0,14,,,10,,,73,66
26971,note_on,,,,,123,0,16,,,12,,,45,66
26972,note_on,,,,,3,0,13,,,8,,,79,51
26975,note_off,,,,,4,0,16,,,12,,,47,64
26975,note_off,,,,,108,0,10,,,5,,,74,64
26983,note_on,,,,,8,0,10,,,5,,,73,58
26996,note_off,,,,,42,0,9,,,4,,,79,64
26997,note_on,,,,,1,0,9,,,4,,,81,64
27010,note_off,,,,,38,0,13,,,8,,,79,64
27013,note_on,,,,,3,0,13,,,8,,,81,68
27016,note_off,,,,,391,0,11,,,6,,,62,64
27043,note_off,,,,,46,0,9,,,4,,,81,64
27045,note_on,,,,,2,0,9,,,4,,,79,50
27053,note_off,,,,,440,0,15,,,11,,,62,64
27053,note_on,,,,,40,0,13,,,8,,,79,58
27057,note_off,,,,,4,0,13,,,8,,,81,64
27066,note_off,,,,,96,0,14,,,10,,,73,64
27068,note_off,,,,,85,0,10,,,5,,,73,64
27074,note_on,,,,,29,0,9,,,4,,,81,64
27076,note_off,,,,,106,0,12,,,7,,,45,64
27083,note_off,,,,,9,0,9,,,4,,,79,64
27083,note_off,,,,,108,0,16,,,12,,,45,64
27088,note_on,,,,,31,0,13,,,8,,,81,78
27088,note_on,,,,,5,0,16,,,12,,,47,72
27096,note_on,,,,,20,0,12,,,7,,,47,70
27097,note_on,,,,,31,0,14,,,10,,,74,74
27099,note_off,,,,,11,0,13,,,8,,,79,64
27103,note_on,,,,,35,0,10,,,5,,,74,64
27108,note_on,,,,,25,0,9,,,4,,,79,34
27110,note_off,,,,,2,0,9,,,4,,,81,64
27115,note_on,,,,,62,0,15,,,11,,,71,78
27118,note_on,,,,,102,0,11,,,6,,,71,72
27119,note_on,,,,,20,0,13,,,8,,,79,46
27124,note_off,,,,,5,0,13,,,8,,,81,64
27132,note_off,,,,,22,0,9,,,4,,,79,64
27133,note_on,,,,,1,0,9,,,4,,,81,63
27145,note_off,,,,,21,0,13,,,8,,,79,64
27154,note_on,,,,,9,0,13,,,8,,,81,56
27157,note_on,,,,,24,0,9,,,4,,,79,51
27175,note_off,,,,,87,0,16,,,12,,,47,64
27175,note_off,,,,,18,0,9,,,4,,,81,64
27176,note_on,,,,,22,0,13,,,8,,,79,54
27181,note_off,,,,,85,0,12,,,7,,,47,64
27186,note_off,,,,,89,0,14,,,10,,,74,64
27191,note_on,,,,,16,0,16,,,12,,,43,70
27198,note_off,,,,,22,0,13,,,8,,,81,64
27201,note_on,,,,,20,0,12,,,7,,,43,64
27213,note_on,,,,,38,0,9,,,4,,,78,60
27215,note_on,,,,,17,0,13,,,8,,,78,63
27219,note_off,,,,,6,0,9,,,4,,,79,64
27226,note_off,,,,,11,0,13,,,8,,,79,64
27236,note_off,,,,,118,0,11,,,6,,,71,64
27236,note_off,,,,,133,0,10,,,5,,,74,64
27241,note_off,,,,,126,0,15,,,11,,,71,64
27263,note_on,,,,,37,0,13,,,8,,,79,85
27267,note_on,,,,,48,0,9,,,4,,,79,72
27274,note_off,,,,,11,0,13,,,8,,,78,64
27278,note_off,,,,,11,0,9,,,4,,,78,64
27309,note_off,,,,,118,0,16,,,12,,,43,64
27324,note_off,,,,,50,0,13,,,8,,,79,64
27324,note_off,,,,,46,0,9,,,4,,,79,64
27333,note_on,,,,,24,0,16,,,12,,,42,74
27339,note_on,,,,,15,0,13,,,8,,,81,85
27343,note_on,,,,,19,0,9,,,4,,,81,72
27348,note_on,,,,,112,0,10,,,5,,,74,70
27348,note_on,,,,,162,0,14,,,10,,,74,80
27351,note_off,,,,,150,0,12,,,7,,,43,64
27351,note_on,,,,,0,0,12,,,7,,,42,70
27355,note_on,,,,,114,0,15,,,11,,,69,85
27361,note_on,,,,,125,0,11,,,6,,,69,78
27431,note_on,,,,,92,0,13,,,8,,,79,53
27448,note_off,,,,,105,0,9,,,4,,,81,64
27451,note_on,,,,,3,0,9,,,4,,,79,60
27465,note_off,,,,,34,0,13,,,8,,,81,64
27553,note_off,,,,,102,0,9,,,4,,,79,64
27560,note_off,,,,,95,0,13,,,8,,,79,64
27561,note_on,,,,,1,0,13,,,8,,,78,64
27575,note_on,,,,,22,0,9,,,4,,,78,64
27654,note_off,,,,,93,0,13,,,8,,,78,64
27681,note_on,,,,,27,0,13,,,8,,,79,68
27693,note_on,,,,,118,0,9,,,4,,,76,62
27707,note_off,,,,,14,0,9,,,4,,,78,64
27767,note_off,,,,,86,0,13,,,8,,,79,64
27798,note_off,,,,,91,0,9,,,4,,,76,64
27811,note_on,,,,,44,0,13,,,8,,,81,70
27820,note_on,,,,,22,0,9,,,4,,,74,70
27930,note_on,,,,,0,0,9,,,4,,,73,57
27930,note_off,,,,,119,0,13,,,8,,,81,64
27930,note_off,,,,,110,0,9,,,4,,,74,64
27935,note_off,,,,,602,0,16,,,12,,,42,64
27937,note_off,,,,,586,0,12,,,7,,,42,64
27948,note_off,,,,,587,0,11,,,6,,,69,64
27963,note_off,,,,,608,0,15,,,11,,,69,64
27983,note_off,,,,,635,0,10,,,5,,,74,64
27995,note_off,,,,,647,0,14,,,10,,,74,64
28035,note_off,,,,,105,0,9,,,4,,,73,64
28055,note_on,,,,,125,0,13,,,8,,,71,66
28057,note_on,,,,,120,0,12,,,7,,,43,87
28057,note_on,,,,,122,0,16,,,12,,,43,85
28062,note_on,,,,,67,0,14,,,10,,,67,68
28062,note_on,,,,,99,0,15,,,11,,,62,68
28063,note_on,,,,,28,0,9,,,4,,,71,68
28068,note_on,,,,,120,0,11,,,6,,,62,60
28068,note_on,,,,,85,0,10,,,5,,,67,68
28161,note_off,,,,,104,0,12,,,7,,,43,64
28161,note_off,,,,,98,0,9,,,4,,,71,64
28163,note_off,,,,,108,0,13,,,8,,,71,64
28173,note_off,,,,,105,0,11,,,6,,,62,64
28174,note_off,,,,,106,0,10,,,5,,,67,64
28176,note_off,,,,,119,0,16,,,12,,,43,64
28187,note_off,,,,,125,0,14,,,10,,,67,64
28195,note_off,,,,,133,0,15,,,11,,,62,64
28294,note_on,,,,,99,0,15,,,11,,,67,82
28297,note_on,,,,,110,0,14,,,10,,,71,80
28300,note_on,,,,,126,0,10,,,5,,,71,66
28301,note_on,,,,,128,0,11,,,6,,,67,70
28302,note_on,,,,,139,0,13,,,8,,,76,82
28305,note_on,,,,,129,0,16,,,12,,,40,68
28309,note_on,,,,,148,0,9,,,4,,,76,78
28309,note_on,,,,,148,0,12,,,7,,,40,66
28389,note_off,,,,,87,0,13,,,8,,,76,64
28404,note_off,,,,,95,0,9,,,4,,,76,64
28407,note_off,,,,,106,0,11,,,6,,,67,64
28415,note_off,,,,,121,0,15,,,11,,,67,64
28419,note_off,,,,,119,0,10,,,5,,,71,64
28421,note_off,,,,,116,0,16,,,12,,,40,64
28425,note_off,,,,,116,0,12,,,7,,,40,64
28445,note_off,,,,,148,0,14,,,10,,,71,64
28541,note_on,,,,,96,0,14,,,10,,,69,70
28541,note_on,,,,,134,0,11,,,6,,,64,63
28544,note_on,,,,,155,0,13,,,8,,,73,68
28544,note_on,,,,,129,0,15,,,11,,,64,63
28546,note_on,,,,,121,0,12,,,7,,,45,78
28546,note_on,,,,,127,0,10,,,5,,,69,60
28551,note_on,,,,,130,0,16,,,12,,,45,66
28554,note_on,,,,,150,0,9,,,4,,,73,57
28646,note_off,,,,,102,0,13,,,8,,,73,64
28655,note_off,,,,,104,0,16,,,12,,,45,64
28656,note_off,,,,,102,0,9,,,4,,,73,64
28656,note_off,,,,,110,0,10,,,5,,,69,64
28660,note_off,,,,,119,0,11,,,6,,,64,64
28666,note_off,,,,,125,0,14,,,10,,,69,64
28673,note_off,,,,,127,0,12,,,7,,,45,64
28679,note_off,,,,,135,0,15,,,11,,,64,64
28783,note_on,,,,,123,0,11,,,6,,,66,59
28784,note_on,,,,,105,0,15,,,11,,,66,66
28789,note_on,,,,,123,0,14,,,10,,,69,68
28791,note_on,,,,,145,0,13,,,8,,,74,64
28796,note_on,,,,,140,0,9,,,4,,,74,68
28797,note_on,,,,,141,0,10,,,5,,,69,59
28798,note_on,,,,,143,0,16,,,12,,,38,74
28801,note_on,,,,,128,0,12,,,7,,,38,78
29342,note_off,,,,,551,0,13,,,8,,,74,64
29343,note_off,,,,,547,0,9,,,4,,,74,64
29358,note_off,,,,,575,0,11,,,6,,,66,64
29380,note_off,,,,,582,0,16,,,12,,,38,64
29383,note_off,,,,,594,0,14,,,10,,,69,64
29387,note_off,,,,,603,0,15,,,11,,,66,64
29391,note_off,,,,,594,0,10,,,5,,,69,64
29395,note_off,,,,,594,0,12,,,7,,,38,64
29507,note_on,,,,,124,0,14,,,10,,,73,80
29511,note_on,,,,,124,0,15,,,11,,,69,78
29511,note_on,,,,,131,0,16,,,12,,,57,66
29514,note_on,,,,,123,0,10,,,5,,,73,60
29517,note_on,,,,,159,0,11,,,6,,,69,72
29522,note_on,,,,,180,0,13,,,8,,,76,78
29524,note_on,,,,,181,0,9,,,4,,,76,80
29524,note_on,,,,,129,0,12,,,7,,,57,63
29653,note_off,,,,,136,0,11,,,6,,,69,64
29658,note_off,,,,,147,0,15,,,11,,,69,64
29693,note_off,,,,,169,0,9,,,4,,,76,64
29698,note_off,,,,,191,0,14,,,10,,,73,64
29706,note_off,,,,,184,0,13,,,8,,,76,64
29713,note_off,,,,,199,0,10,,,5,,,73,64
29747,note_on,,,,,49,0,14,,,10,,,71,66
29756,note_on,,,,,98,0,15,,,11,,,66,70
29759,note_on,,,,,46,0,10,,,5,,,71,66
29760,note_on,,,,,67,0,9,,,4,,,74,78
29765,note_on,,,,,59,0,13,,,8,,,74,80
29765,note_on,,,,,112,0,11,,,6,,,66,61
29856,note_off,,,,,109,0,14,,,10,,,71,64
29862,note_on,,,,,6,0,14,,,10,,,69,68
29865,note_off,,,,,105,0,9,,,4,,,74,64
29868,note_off,,,,,103,0,13,,,8,,,74,64
29868,note_on,,,,,3,0,9,,,4,,,73,62
29872,note_on,,,,,113,0,10,,,5,,,69,80
29874,note_on,,,,,6,0,13,,,8,,,73,63
29875,note_off,,,,,3,0,10,,,5,,,71,64
29883,note_off,,,,,118,0,11,,,6,,,66,64
29888,note_off,,,,,132,0,15,,,11,,,66,64
29932,note_off,,,,,408,0,12,,,7,,,57,64
29947,note_off,,,,,436,0,16,,,12,,,57,64
29973,note_off,,,,,98,0,10,,,5,,,69,64
29973,note_off,,,,,111,0,14,,,10,,,69,64
29980,note_on,,,,,112,0,9,,,4,,,74,66
29984,note_off,,,,,4,0,9,,,4,,,73,64
29987,note_on,,,,,14,0,14,,,10,,,71,68
29990,note_on,,,,,17,0,10,,,5,,,71,72
29995,note_on,,,,,121,0,13,,,8,,,74,70
29995,note_on,,,,,48,0,16,,,12,,,56,64
29996,note_on,,,,,108,0,15,,,11,,,64,64
30002,note_on,,,,,119,0,11,,,6,,,64,57
30006,note_on,,,,,74,0,12,,,7,,,56,64
30007,note_off,,,,,12,0,13,,,8,,,73,64
30089,note_off,,,,,105,0,9,,,4,,,74,64
30093,note_off,,,,,91,0,11,,,6,,,64,64
30098,note_off,,,,,91,0,13,,,8,,,74,64
30098,note_on,,,,,9,0,9,,,4,,,71,64
30101,note_on,,,,,3,0,13,,,8,,,71,70
30110,note_off,,,,,114,0,15,,,11,,,64,64
30120,note_off,,,,,114,0,12,,,7,,,56,64
30122,note_off,,,,,127,0,16,,,12,,,56,64
30137,note_off,,,,,150,0,14,,,10,,,71,64
30155,note_off,,,,,165,0,10,,,5,,,71,64
30186,note_off,,,,,88,0,9,,,4,,,71,64
30203,note_off,,,,,102,0,13,,,8,,,71,64
30221,note_on,,,,,35,0,9,,,4,,,73,66
30224,note_on,,,,,87,0,14,,,10,,,69,74
30231,note_on,,,,,28,0,13,,,8,,,73,63
30236,note_on,,,,,116,0,12,,,7,,,57,63
30236,note_on,,,,,81,0,10,,,5,,,69,78
30237,note_on,,,,,144,0,11,,,6,,,64,64
30240,note_on,,,,,118,0,16,,,12,,,57,68
30240,note_on,,,,,130,0,15,,,11,,,64,78
30334,note_on,,,,,113,0,9,,,4,,,74,70
30343,note_on,,,,,112,0,13,,,8,,,74,68
30343,note_off,,,,,106,0,11,,,6,,,64,64
30347,note_off,,,,,107,0,15,,,11,,,64,64
30347,note_off,,,,,13,0,9,,,4,,,73,64
30348,note_on,,,,,112,0,10,,,5,,,71,66
30348,note_on,,,,,124,0,14,,,10,,,71,72
30355,note_off,,,,,12,0,13,,,8,,,73,64
30358,note_off,,,,,10,0,10,,,5,,,69,64
30373,note_off,,,,,25,0,14,,,10,,,69,64
30409,note_off,,,,,173,0,12,,,7,,,57,64
30428,note_off,,,,,188,0,16,,,12,,,57,64
30439,note_off,,,,,84,0,13,,,8,,,74,64
30447,note_off,,,,,100,0,9,,,4,,,74,64
30466,note_on,,,,,19,0,9,,,4,,,76,78
30470,note_on,,,,,31,0,13,,,8,,,76,80
30472,note_on,,,,,129,0,11,,,6,,,69,66
30473,note_on,,,,,64,0,12,,,7,,,55,78
30474,note_on,,,,,101,0,14,,,10,,,73,62
30476,note_on,,,,,118,0,10,,,5,,,73,58
30478,note_on,,,,,50,0,16,,,12,,,55,80
30481,note_off,,,,,7,0,14,,,10,,,71,64
30482,note_on,,,,,135,0,15,,,11,,,69,85
30486,note_off,,,,,10,0,10,,,5,,,71,64
30573,note_on,,,,,92,0,14,,,10,,,74,76
30579,note_off,,,,,109,0,13,,,8,,,76,64
30582,note_off,,,,,116,0,9,,,4,,,76,64
30582,note_on,,,,,96,0,10,,,5,,,74,80
30583,note_on,,,,,110,0,12,,,7,,,54,63
30586,note_on,,,,,108,0,16,,,12,,,54,76
30587,note_off,,,,,4,0,12,,,7,,,55,64
30588,note_off,,,,,2,0,16,,,12,,,55,64
30592,note_off,,,,,19,0,14,,,10,,,73,64
30595,note_off,,,,,13,0,10,,,5,,,73,64
30675,note_off,,,,,83,0,14,,,10,,,74,64
30684,note_off,,,,,89,0,10,,,5,,,74,64
30684,note_off,,,,,97,0,12,,,7,,,54,64
30696,note_on,,,,,21,0,14,,,10,,,76,85
30700,note_off,,,,,112,0,16,,,12,,,54,64
30701,note_on,,,,,122,0,13,,,8,,,69,68
30704,note_on,,,,,20,0,10,,,5,,,76,76
30705,note_on,,,,,123,0,9,,,4,,,69,68
30707,note_on,,,,,7,0,16,,,12,,,55,64
30709,note_on,,,,,25,0,12,,,7,,,55,70
30797,note_off,,,,,88,0,12,,,7,,,55,64
30802,note_off,,,,,95,0,16,,,12,,,55,64
30809,note_on,,,,,12,0,12,,,7,,,52,60
30814,note_on,,,,,118,0,14,,,10,,,73,62
30815,note_off,,,,,114,0,13,,,8,,,69,64
30815,note_on,,,,,111,0,10,,,5,,,73,62
30816,note_on,,,,,14,0,16,,,12,,,52,72
30819,note_off,,,,,4,0,10,,,5,,,76,64
30824,note_off,,,,,10,0,14,,,10,,,76,64
30828,note_off,,,,,123,0,9,,,4,,,69,64
30870,note_off,,,,,398,0,11,,,6,,,69,64
30872,note_off,,,,,390,0,15,,,11,,,69,64
30903,note_off,,,,,79,0,14,,,10,,,73,64
30903,note_off,,,,,94,0,12,,,7,,,52,64
30915,note_off,,,,,99,0,16,,,12,,,52,64
30925,note_off,,,,,106,0,10,,,5,,,73,64
30930,note_on,,,,,27,0,14,,,10,,,74,74
30934,note_on,,,,,19,0,16,,,12,,,54,76
30941,note_on,,,,,38,0,12,,,7,,,54,74
30945,note_on,,,,,130,0,13,,,8,,,74,72
30946,note_on,,,,,74,0,15,,,11,,,69,78
30946,note_on,,,,,118,0,9,,,4,,,74,72
30946,note_on,,,,,21,0,10,,,5,,,74,78
30950,note_on,,,,,80,0,11,,,6,,,69,68
31037,note_off,,,,,92,0,13,,,8,,,74,64
31054,note_off,,,,,124,0,14,,,10,,,74,64
31054,note_off,,,,,108,0,9,,,4,,,74,64
31057,note_on,,,,,20,0,13,,,8,,,76,78
31061,note_off,,,,,115,0,15,,,11,,,69,64
31061,note_on,,,,,7,0,9,,,4,,,76,68
31077,note_off,,,,,127,0,11,,,6,,,69,64
31086,note_off,,,,,152,0,16,,,12,,,54,64
31087,note_off,,,,,146,0,12,,,7,,,54,64
31089,note_off,,,,,143,0,10,,,5,,,74,64
31139,note_off,,,,,82,0,13,,,8,,,76,64
31160,note_off,,,,,99,0,9,,,4,,,76,64
31168,note_on,,,,,29,0,13,,,8,,,78,78
31175,note_on,,,,,15,0,9,,,4,,,78,58
31179,note_on,,,,,125,0,14,,,10,,,74,78
31183,note_on,,,,,97,0,16,,,12,,,55,80
31187,note_on,,,,,126,0,15,,,11,,,71,82
31188,note_on,,,,,101,0,12,,,7,,,55,78
31190,note_on,,,,,113,0,11,,,6,,,71,66
31191,note_on,,,,,102,0,10,,,5,,,74,70
31251,note_on,,,,,76,0,9,,,4,,,76,47
31257,note_off,,,,,6,0,9,,,4,,,78,64
31280,note_on,,,,,112,0,13,,,8,,,76,55
31292,note_off,,,,,12,0,13,,,8,,,78,64
31293,note_off,,,,,106,0,15,,,11,,,71,64
31295,note_on,,,,,38,0,9,,,4,,,78,58
31297,note_off,,,,,2,0,9,,,4,,,76,64
31300,note_off,,,,,110,0,11,,,6,,,71,64
31304,note_off,,,,,116,0,12,,,7,,,55,64
31311,note_off,,,,,128,0,16,,,12,,,55,64
31315,note_off,,,,,124,0,10,,,5,,,74,64
31322,note_off,,,,,143,0,14,,,10,,,74,64
31333,note_on,,,,,36,0,9,,,4,,,76,57
31333,note_off,,,,,41,0,13,,,8,,,76,64
31336,note_off,,,,,3,0,9,,,4,,,78,64
31336,note_on,,,,,3,0,13,,,8,,,78,57
31368,note_on,,,,,32,0,9,,,4,,,78,60
31370,note_on,,,,,34,0,13,,,8,,,76,59
31374,note_off,,,,,6,0,9,,,4,,,76,64
31375,note_off,,,,,5,0,13,,,8,,,78,64
31400,note_on,,,,,26,0,9,,,4,,,76,53
31401,note_off,,,,,1,0,9,,,4,,,78,64
31403,note_on,,,,,81,0,14,,,10,,,74,85
31405,note_on,,,,,30,0,13,,,8,,,78,60
31411,note_off,,,,,6,0,13,,,8,,,76,64
31419,note_on,,,,,126,0,15,,,11,,,69,78
31425,note_on,,,,,110,0,10,,,5,,,73,58
31425,note_on,,,,,114,0,16,,,12,,,57,78
31427,note_on,,,,,127,0,11,,,6,,,69,62
31433,note_off,,,,,32,0,9,,,4,,,76,64
31433,note_on,,,,,0,0,9,,,4,,,78,74
31433,note_on,,,,,129,0,12,,,7,,,57,80
31435,note_off,,,,,24,0,13,,,8,,,78,64
31450,note_on,,,,,47,0,14,,,10,,,73,48
31451,note_off,,,,,1,0,14,,,10,,,74,64
31462,note_on,,,,,29,0,9,,,4,,,76,62
31463,note_on,,,,,28,0,13,,,8,,,78,66
31479,note_off,,,,,17,0,9,,,4,,,78,64
31481,note_on,,,,,30,0,14,,,10,,,74,72
31489,note_on,,,,,26,0,13,,,8,,,76,60
31489,note_off,,,,,8,0,14,,,10,,,73,64
31519,note_on,,,,,40,0,9,,,4,,,74,63
31519,note_off,,,,,30,0,13,,,8,,,78,64
31521,note_on,,,,,32,0,14,,,10,,,73,68
31529,note_off,,,,,10,0,9,,,4,,,76,64
31537,note_on,,,,,18,0,13,,,8,,,74,72
31540,note_off,,,,,19,0,14,,,10,,,74,64
31542,note_off,,,,,115,0,11,,,6,,,69,64
31542,note_off,,,,,117,0,16,,,12,,,57,64
31542,note_off,,,,,109,0,12,,,7,,,57,64
31543,note_off,,,,,118,0,10,,,5,,,73,64
31545,note_off,,,,,8,0,13,,,8,,,76,64
31575,note_off,,,,,156,0,15,,,11,,,69,64
31575,note_on,,,,,46,0,9,,,4,,,76,68
31587,note_on,,,,,42,0,13,,,8,,,76,70
31598,note_off,,,,,23,0,9,,,4,,,74,64
31610,note_off,,,,,23,0,13,,,8,,,74,64
31615,note_off,,,,,75,0,14,,,10,,,73,64
31648,note_on,,,,,33,0,14,,,10,,,74,80
31651,note_off,,,,,53,0,9,,,4,,,76,64
31654,note_on,,,,,79,0,15,,,11,,,69,80
31655,note_off,,,,,45,0,13,,,8,,,76,64
31660,note_on,,,,,5,0,13,,,8,,,78,85
31660,note_on,,,,,9,0,9,,,4,,,78,68
31665,note_on,,,,,123,0,16,,,12,,,50,82
31669,note_on,,,,,126,0,10,,,5,,,74,82
31670,note_on,,,,,128,0,11,,,6,,,69,64
31674,note_on,,,,,132,0,12,,,7,,,50,68
31769,note_on,,,,,115,0,15,,,11,,,67,66
31770,note_on,,,,,110,0,9,,,4,,,76,66
31774,note_off,,,,,126,0,14,,,10,,,74,64
31775,note_on,,,,,115,0,13,,,8,,,76,68
31777,note_off,,,,,8,0,15,,,11,,,69,64
31779,note_off,,,,,9,0,9,,,4,,,78,64
31781,note_on,,,,,111,0,11,,,6,,,67,70
31783,note_off,,,,,114,0,10,,,5,,,74,64
31790,note_off,,,,,15,0,13,,,8,,,78,64
31791,note_off,,,,,117,0,12,,,7,,,50,64
31792,note_off,,,,,11,0,11,,,6,,,69,64
31804,note_off,,,,,139,0,16,,,12,,,50,64
31871,note_off,,,,,94,0,15,,,11,,,67,64
31883,note_on,,,,,12,0,15,,,11,,,66,74
31886,note_off,,,,,107,0,9,,,4,,,76,64
31891,note_off,,,,,99,0,11,,,6,,,67,64
31893,note_on,,,,,119,0,14,,,10,,,69,64
31893,note_off,,,,,103,0,13,,,8,,,76,64
31897,note_on,,,,,6,0,11,,,6,,,66,60
31899,note_on,,,,,6,0,13,,,8,,,74,72
31905,note_on,,,,,19,0,9,,,4,,,74,72
31908,note_on,,,,,104,0,16,,,12,,,62,89
31909,note_on,,,,,126,0,10,,,5,,,69,68
31911,note_on,,,,,120,0,12,,,7,,,62,85
32007,note_on,,,,,124,0,15,,,11,,,67,68
32010,note_on,,,,,113,0,11,,,6,,,67,66
32011,note_off,,,,,1,0,11,,,6,,,66,64
32014,note_off,,,,,7,0,15,,,11,,,66,64
32014,note_on,,,,,115,0,13,,,8,,,76,68
32015,note_off,,,,,106,0,10,,,5,,,69,64
32019,note_off,,,,,126,0,14,,,10,,,69,64
32020,note_off,,,,,115,0,9,,,4,,,74,64
32020,note_on,,,,,0,0,9,,,4,,,76,66
32023,note_off,,,,,9,0,13,,,8,,,74,64
32029,note_off,,,,,118,0,12,,,7,,,62,64
32040,note_off,,,,,132,0,16,,,12,,,62,64
32092,note_off,,,,,78,0,15,,,11,,,67,64
32118,note_on,,,,,26,0,15,,,11,,,69,68
32124,note_off,,,,,104,0,9,,,4,,,76,64
32128,note_off,,,,,117,0,11,,,6,,,67,64
32130,note_on,,,,,111,0,14,,,10,,,74,78
32132,note_on,,,,,109,0,13,,,8,,,78,62
32137,note_on,,,,,9,0,11,,,6,,,69,74
32143,note_on,,,,,19,0,9,,,4,,,78,57
32143,note_off,,,,,11,0,13,,,8,,,76,64
32148,note_on,,,,,133,0,10,,,5,,,74,76
32156,note_on,,,,,116,0,16,,,12,,,57,78
32158,note_on,,,,,129,0,12,,,7,,,57,76
32229,note_off,,,,,111,0,15,,,11,,,69,64
32239,note_on,,,,,96,0,13,,,8,,,79,85
32242,note_on,,,,,13,0,15,,,11,,,71,63
32254,note_on,,,,,117,0,11,,,6,,,71,78
32256,note_off,,,,,2,0,11,,,6,,,69,64
32258,note_on,,,,,115,0,9,,,4,,,79,70
32258,note_off,,,,,110,0,10,,,5,,,74,64
32259,note_off,,,,,1,0,9,,,4,,,78,64
32264,note_off,,,,,108,0,16,,,12,,,57,64
32265,note_off,,,,,26,0,13,,,8,,,78,64
32280,note_off,,,,,122,0,12,,,7,,,57,64
32283,note_off,,,,,153,0,14,,,10,,,74,64
32351,note_off,,,,,92,0,9,,,4,,,79,64
32353,note_off,,,,,111,0,15,,,11,,,71,64
32359,note_off,,,,,94,0,13,,,8,,,79,64
32362,note_off,,,,,106,0,11,,,6,,,71,64
32369,note_on,,,,,10,0,13,,,8,,,81,85
32375,note_on,,,,,22,0,15,,,11,,,72,68
32377,note_on,,,,,113,0,16,,,12,,,54,68
32378,note_on,,,,,95,0,14,,,10,,,75,68
32379,note_on,,,,,17,0,11,,,6,,,72,80
32383,note_on,,,,,125,0,10,,,5,,,75,64
32386,note_on,,,,,106,0,12,,,7,,,54,64
32394,note_on,,,,,43,0,9,,,4,,,81,82
32471,note_off,,,,,93,0,14,,,10,,,75,64
32480,note_off,,,,,97,0,10,,,5,,,75,64
32484,note_on,,,,,107,0,16,,,12,,,52,66
32486,note_on,,,,,15,0,14,,,10,,,76,74
32488,note_off,,,,,4,0,16,,,12,,,54,64
32492,note_on,,,,,12,0,10,,,5,,,76,64
32504,note_off,,,,,118,0,12,,,7,,,54,64
32505,note_on,,,,,1,0,12,,,7,,,52,63
32521,note_off,,,,,127,0,9,,,4,,,81,64
32521,note_off,,,,,142,0,11,,,6,,,72,64
32522,note_off,,,,,147,0,15,,,11,,,72,64
32541,note_off,,,,,172,0,13,,,8,,,81,64
32594,note_off,,,,,102,0,10,,,5,,,76,64
32598,note_off,,,,,110,0,16,,,12,,,52,64
32598,note_off,,,,,112,0,14,,,10,,,76,64
32601,note_on,,,,,3,0,16,,,12,,,51,63
32605,note_off,,,,,100,0,12,,,7,,,52,64
32605,note_on,,,,,7,0,14,,,10,,,78,66
32611,note_on,,,,,89,0,15,,,11,,,71,80
32614,note_on,,,,,73,0,13,,,8,,,79,85
32614,note_on,,,,,93,0,11,,,6,,,71,66
32618,note_on,,,,,24,0,10,,,5,,,78,68
32620,note_on,,,,,99,0,9,,,4,,,79,72
32622,note_on,,,,,17,0,12,,,7,,,51,57
32703,note_off,,,,,98,0,14,,,10,,,78,64
32710,note_on,,,,,90,0,9,,,4,,,78,42
32714,note_on,,,,,100,0,13,,,8,,,78,57
32719,note_off,,,,,9,0,9,,,4,,,79,64
32721,note_off,,,,,7,0,13,,,8,,,79,64
32723,note_on,,,,,122,0,16,,,12,,,49,59
32724,note_off,,,,,1,0,16,,,12,,,51,64
32727,note_off,,,,,109,0,10,,,5,,,78,64
32736,note_on,,,,,114,0,12,,,7,,,49,59
32736,note_off,,,,,122,0,11,,,6,,,71,64
32741,note_off,,,,,5,0,12,,,7,,,51,64
32742,note_off,,,,,131,0,15,,,11,,,71,64
32755,note_on,,,,,34,0,13,,,8,,,79,70
32755,note_off,,,,,36,0,9,,,4,,,78,64
32758,note_off,,,,,3,0,13,,,8,,,78,64
32759,note_on,,,,,4,0,9,,,4,,,79,57
32791,note_on,,,,,32,0,9,,,4,,,78,57
32795,note_on,,,,,37,0,13,,,8,,,78,60
32797,note_off,,,,,6,0,9,,,4,,,79,64
32802,note_off,,,,,7,0,13,,,8,,,79,64
32828,note_on,,,,,26,0,13,,,8,,,79,66
32830,note_off,,,,,33,0,9,,,4,,,78,64
32830,note_on,,,,,0,0,9,,,4,,,79,58
32830,note_off,,,,,2,0,13,,,8,,,78,64
32837,note_off,,,,,113,0,16,,,12,,,49,64
32842,note_on,,,,,139,0,14,,,10,,,71,78
32845,note_off,,,,,104,0,12,,,7,,,49,64
32852,note_on,,,,,15,0,16,,,12,,,51,64
32858,note_on,,,,,28,0,9,,,4,,,78,45
32861,note_on,,,,,125,0,11,,,6,,,69,64
32861,note_off,,,,,3,0,9,,,4,,,79,64
32861,note_on,,,,,31,0,13,,,8,,,78,63
32861,note_on,,,,,134,0,10,,,5,,,71,72
32863,note_on,,,,,121,0,15,,,11,,,69,72
32868,note_off,,,,,7,0,13,,,8,,,79,64
32871,note_on,,,,,26,0,12,,,7,,,51,58
32882,note_off,,,,,21,0,9,,,4,,,78,64
32883,note_on,,,,,1,0,9,,,4,,,79,66
32891,note_on,,,,,23,0,13,,,8,,,79,78
32895,note_off,,,,,4,0,13,,,8,,,78,64
32918,note_on,,,,,35,0,9,,,4,,,78,59
32922,note_on,,,,,27,0,13,,,8,,,78,61
32931,note_off,,,,,13,0,9,,,4,,,79,64
32948,note_off,,,,,26,0,13,,,8,,,79,64
32963,note_off,,,,,111,0,16,,,12,,,51,64
32968,note_off,,,,,97,0,12,,,7,,,51,64
32970,note_off,,,,,107,0,15,,,11,,,69,64
32970,note_on,,,,,22,0,13,,,8,,,76,66
32973,note_on,,,,,10,0,16,,,12,,,47,68
32974,note_off,,,,,4,0,13,,,8,,,78,64
32977,note_on,,,,,46,0,9,,,4,,,76,64
32981,note_on,,,,,13,0,12,,,7,,,47,68
32983,note_off,,,,,6,0,9,,,4,,,78,64
32987,note_off,,,,,126,0,11,,,6,,,69,64
33021,note_on,,,,,47,0,13,,,8,,,78,59
33034,note_on,,,,,51,0,9,,,4,,,78,59
33056,note_off,,,,,35,0,13,,,8,,,76,64
33062,note_off,,,,,89,0,16,,,12,,,47,64
33069,note_off,,,,,35,0,9,,,4,,,76,64
33087,note_off,,,,,106,0,12,,,7,,,47,64
33088,note_off,,,,,32,0,13,,,8,,,78,64
33090,note_on,,,,,28,0,16,,,12,,,52,70
33090,note_on,,,,,2,0,13,,,8,,,79,80
33099,note_on,,,,,129,0,15,,,11,,,67,82
33101,note_on,,,,,114,0,11,,,6,,,67,68
33104,note_on,,,,,17,0,12,,,7,,,52,60
33112,note_off,,,,,43,0,9,,,4,,,78,64
33125,note_on,,,,,13,0,9,,,4,,,79,70
33197,note_off,,,,,107,0,16,,,12,,,52,64
33198,note_off,,,,,94,0,12,,,7,,,52,64
33222,note_off,,,,,123,0,15,,,11,,,67,64
33226,note_off,,,,,125,0,11,,,6,,,67,64
33227,note_off,,,,,137,0,13,,,8,,,79,64
33246,note_off,,,,,121,0,9,,,4,,,79,64
33258,note_off,,,,,416,0,14,,,10,,,71,64
33287,note_off,,,,,426,0,10,,,5,,,71,64
33338,note_on,,,,,111,0,13,,,8,,,75,78
33341,note_on,,,,,144,0,16,,,12,,,59,76
33342,note_on,,,,,84,0,14,,,10,,,69,74
33342,note_on,,,,,116,0,11,,,6,,,66,59
33344,note_on,,,,,146,0,12,,,7,,,59,68
33347,note_on,,,,,125,0,15,,,11,,,66,80
33359,note_on,,,,,72,0,10,,,5,,,69,66
33364,note_on,,,,,118,0,9,,,4,,,75,66
33433,note_off,,,,,95,0,13,,,8,,,75,64
33437,note_off,,,,,90,0,15,,,11,,,66,64
33443,note_off,,,,,101,0,14,,,10,,,69,64
33443,note_off,,,,,102,0,16,,,12,,,59,64
33458,note_off,,,,,99,0,10,,,5,,,69,64
33459,note_off,,,,,95,0,9,,,4,,,75,64
33469,note_off,,,,,125,0,12,,,7,,,59,64
33469,note_off,,,,,127,0,11,,,6,,,66,64
33577,note_on,,,,,144,0,13,,,8,,,76,85
33585,note_on,,,,,142,0,14,,,10,,,67,72
33587,note_on,,,,,144,0,16,,,12,,,60,80
33588,note_on,,,,,130,0,10,,,5,,,67,64
33594,note_on,,,,,125,0,11,,,6,,,64,64
33596,note_on,,,,,159,0,15,,,11,,,64,82
33599,note_on,,,,,130,0,12,,,7,,,60,70
33603,note_on,,,,,144,0,9,,,4,,,76,76
33699,note_off,,,,,105,0,11,,,6,,,64,64
33706,note_off,,,,,118,0,10,,,5,,,67,64
33708,note_off,,,,,109,0,12,,,7,,,60,64
33708,note_off,,,,,123,0,14,,,10,,,67,64
33709,note_off,,,,,122,0,16,,,12,,,60,64
33830,note_on,,,,,122,0,14,,,10,,,72,82
33830,note_on,,,,,121,0,16,,,12,,,57,60
33830,note_on,,,,,124,0,10,,,5,,,72,82
33833,note_on,,,,,134,0,11,,,6,,,69,80
33836,note_on,,,,,128,0,12,,,7,,,57,70
33874,note_off,,,,,271,0,9,,,4,,,76,64
33910,note_off,,,,,333,0,13,,,8,,,76,64
33937,note_off,,,,,104,0,11,,,6,,,69,64
33940,note_on,,,,,30,0,13,,,8,,,78,68
33941,note_off,,,,,111,0,10,,,5,,,72,64
33942,note_on,,,,,68,0,9,,,4,,,78,64
33946,note_off,,,,,110,0,12,,,7,,,57,64
33949,note_off,,,,,119,0,16,,,12,,,57,64
33951,note_off,,,,,121,0,14,,,10,,,72,64
33966,note_off,,,,,370,0,15,,,11,,,64,64
34019,note_off,,,,,77,0,9,,,4,,,78,64
34024,note_off,,,,,84,0,13,,,8,,,78,64
34058,note_on,,,,,117,0,10,,,5,,,71,74
34059,note_on,,,,,35,0,13,,,8,,,79,74
34060,note_on,,,,,41,0,9,,,4,,,79,62
34068,note_on,,,,,131,0,11,,,6,,,64,70
34072,note_on,,,,,106,0,15,,,11,,,63,78
34072,note_on,,,,,121,0,14,,,10,,,71,76
34077,note_on,,,,,128,0,16,,,12,,,59,78
34077,note_on,,,,,131,0,12,,,7,,,59,78
34147,note_on,,,,,88,0,13,,,8,,,78,59
34148,note_on,,,,,88,0,9,,,4,,,78,49
34156,note_off,,,,,9,0,13,,,8,,,79,64
34157,note_off,,,,,9,0,9,,,4,,,79,64
34172,note_off,,,,,114,0,10,,,5,,,71,64
34179,note_on,,,,,111,0,11,,,6,,,63,57
34181,note_off,,,,,2,0,11,,,6,,,64,64
34185,note_off,,,,,108,0,16,,,12,,,59,64
34186,note_off,,,,,30,0,13,,,8,,,78,64
34187,note_off,,,,,30,0,9,,,4,,,78,64
34189,note_off,,,,,117,0,15,,,11,,,63,64
34189,note_on,,,,,3,0,13,,,8,,,79,68
34190,note_off,,,,,113,0,12,,,7,,,59,64
34191,note_on,,,,,4,0,9,,,4,,,79,57
34199,note_off,,,,,127,0,14,,,10,,,71,64
34213,note_off,,,,,32,0,11,,,6,,,63,64
34213,note_on,,,,,0,0,11,,,6,,,64,63
34224,note_on,,,,,35,0,13,,,8,,,78,60
34225,note_on,,,,,34,0,9,,,4,,,78,56
34229,note_off,,,,,5,0,13,,,8,,,79,64
34230,note_off,,,,,5,0,9,,,4,,,79,64
34251,note_on,,,,,38,0,11,,,6,,,63,64
34256,note_off,,,,,26,0,9,,,4,,,78,64
34257,note_on,,,,,28,0,13,,,8,,,79,74
34260,note_off,,,,,9,0,11,,,6,,,64,64
34262,note_on,,,,,6,0,9,,,4,,,79,64
34266,note_off,,,,,9,0,13,,,8,,,78,64
34284,note_on,,,,,24,0,11,,,6,,,64,61
34290,note_on,,,,,28,0,9,,,4,,,78,64
34294,note_off,,,,,10,0,11,,,6,,,63,64
34297,note_on,,,,,125,0,10,,,5,,,69,68
34306,note_on,,,,,121,0,16,,,12,,,47,70
34306,note_on,,,,,107,0,14,,,10,,,71,74
34308,note_on,,,,,119,0,15,,,11,,,59,78
34309,note_off,,,,,19,0,9,,,4,,,79,64
34312,note_on,,,,,122,0,12,,,7,,,47,70
34321,note_on,,,,,27,0,11,,,6,,,63,68
34329,note_on,,,,,63,0,13,,,8,,,78,66
34338,note_off,,,,,17,0,11,,,6,,,64,64
34340,note_off,,,,,11,0,13,,,8,,,79,64
34349,note_on,,,,,43,0,14,,,10,,,69,60
34354,note_off,,,,,5,0,14,,,10,,,71,64
34379,note_on,,,,,25,0,14,,,10,,,71,68
34392,note_off,,,,,13,0,14,,,10,,,69,64
34400,note_off,,,,,103,0,10,,,5,,,69,64
34408,note_off,,,,,99,0,9,,,4,,,78,64
34411,note_off,,,,,103,0,15,,,11,,,59,64
34411,note_off,,,,,105,0,16,,,12,,,47,64
34414,note_on,,,,,22,0,14,,,10,,,69,51
34418,note_on,,,,,10,0,9,,,4,,,76,68
34419,note_off,,,,,107,0,12,,,7,,,47,64
34421,note_off,,,,,83,0,11,,,6,,,63,64
34423,note_on,,,,,2,0,11,,,6,,,64,70
34426,note_on,,,,,86,0,13,,,8,,,76,76
34436,note_off,,,,,22,0,14,,,10,,,71,64
34439,note_off,,,,,13,0,13,,,8,,,78,64
34493,note_off,,,,,70,0,11,,,6,,,64,64
34495,note_off,,,,,77,0,9,,,4,,,76,64
34501,note_off,,,,,65,0,14,,,10,,,69,64
34503,note_off,,,,,64,0,13,,,8,,,76,64
34510,note_on,,,,,99,0,16,,,12,,,52,53
34535,note_on,,,,,135,0,10,,,5,,,67,64
34546,note_on,,,,,127,0,12,,,7,,,52,68
34550,note_on,,,,,57,0,11,,,6,,,64,66
34555,note_on,,,,,144,0,15,,,11,,,59,72
34557,note_on,,,,,56,0,14,,,10,,,67,66
34559,note_on,,,,,56,0,13,,,8,,,76,66
34563,note_on,,,,,68,0,9,,,4,,,76,66
34641,note_off,,,,,131,0,16,,,12,,,52,64
34645,note_off,,,,,99,0,12,,,7,,,52,64
34783,note_on,,,,,142,0,16,,,12,,,43,78
34791,note_on,,,,,146,0,12,,,7,,,43,85
34895,note_off,,,,,104,0,12,,,7,,,43,64
34904,note_off,,,,,121,0,16,,,12,,,43,64
35023,note_on,,,,,119,0,16,,,12,,,47,76
35024,note_on,,,,,129,0,12,,,7,,,47,60
35113,note_off,,,,,578,0,10,,,5,,,67,64
35124,note_off,,,,,567,0,14,,,10,,,67,64
35127,note_off,,,,,103,0,12,,,7,,,47,64
35128,note_off,,,,,105,0,16,,,12,,,47,64
35151,note_off,,,,,588,0,9,,,4,,,76,64
35151,note_off,,,,,601,0,11,,,6,,,64,64
35160,note_off,,,,,601,0,13,,,8,,,76,64
35180,note_off,,,,,625,0,15,,,11,,,59,64
35268,note_on,,,,,140,0,16,,,12,,,40,62
35271,note_on,,,,,158,0,10,,,5,,,76,66
35271,note_on,,,,,120,0,11,,,6,,,71,80
35271,note_on,,,,,144,0,12,,,7,,,40,64
35272,note_on,,,,,121,0,9,,,4,,,79,85
35276,note_on,,,,,116,0,13,,,8,,,79,82
35285,note_on,,,,,161,0,14,,,10,,,76,78
35320,note_on,,,,,140,0,15,,,11,,,71,80
35377,note_on,,,,,105,0,9,,,4,,,81,68
35381,note_off,,,,,4,0,9,,,4,,,79,64
35382,note_off,,,,,111,0,11,,,6,,,71,64
35382,note_on,,,,,111,0,10,,,5,,,78,64
35383,note_off,,,,,107,0,13,,,8,,,79,64
35383,note_on,,,,,1,0,11,,,6,,,69,61
35386,note_on,,,,,3,0,13,,,8,,,81,70
35386,note_off,,,,,4,0,10,,,5,,,76,64
35389,note_on,,,,,104,0,14,,,10,,,78,64
35395,note_off,,,,,6,0,14,,,10,,,76,64
35408,note_on,,,,,88,0,15,,,11,,,69,70
35411,note_off,,,,,3,0,15,,,11,,,71,64
35412,note_off,,,,,141,0,12,,,7,,,40,64
35453,note_off,,,,,185,0,16,,,12,,,40,64
35472,note_off,,,,,91,0,9,,,4,,,81,64
35478,note_off,,,,,92,0,13,,,8,,,81,64
35492,note_off,,,,,106,0,10,,,5,,,78,64
35495,note_off,,,,,100,0,14,,,10,,,78,64
35498,note_off,,,,,115,0,11,,,6,,,69,64
35500,note_on,,,,,28,0,9,,,4,,,83,72
35500,note_on,,,,,2,0,11,,,6,,,67,57
35505,note_on,,,,,13,0,10,,,5,,,79,74
35508,note_on,,,,,13,0,14,,,10,,,79,78
35509,note_on,,,,,31,0,13,,,8,,,83,85
35513,note_on,,,,,101,0,12,,,7,,,52,66
35517,note_on,,,,,64,0,16,,,12,,,52,68
35517,note_off,,,,,106,0,15,,,11,,,69,64
35525,note_on,,,,,8,0,15,,,11,,,67,70
35610,note_off,,,,,101,0,13,,,8,,,83,64
35614,note_on,,,,,114,0,11,,,6,,,69,66
35618,note_off,,,,,118,0,9,,,4,,,83,64
35621,note_on,,,,,108,0,12,,,7,,,54,61
35622,note_off,,,,,8,0,11,,,6,,,67,64
35628,note_on,,,,,0,0,16,,,12,,,54,63
35628,note_off,,,,,111,0,16,,,12,,,52,64
35633,note_off,,,,,12,0,12,,,7,,,52,64
35643,note_on,,,,,118,0,15,,,11,,,69,68
35658,note_off,,,,,15,0,15,,,11,,,67,64
35718,note_off,,,,,85,0,12,,,7,,,54,64
35726,note_off,,,,,98,0,16,,,12,,,54,64
35728,note_off,,,,,106,0,11,,,6,,,69,64
35739,note_on,,,,,11,0,11,,,6,,,71,60
35744,note_on,,,,,18,0,16,,,12,,,55,68
35749,note_on,,,,,139,0,13,,,8,,,74,68
35750,note_on,,,,,32,0,12,,,7,,,55,68
35750,note_on,,,,,132,0,9,,,4,,,74,72
35752,note_off,,,,,94,0,15,,,11,,,69,64
35759,note_on,,,,,7,0,15,,,11,,,71,66
35819,note_off,,,,,75,0,16,,,12,,,55,64
35837,note_off,,,,,87,0,12,,,7,,,55,64
35847,note_off,,,,,108,0,11,,,6,,,71,64
35850,note_on,,,,,31,0,16,,,12,,,52,64
35855,note_on,,,,,8,0,11,,,6,,,67,60
35856,note_off,,,,,107,0,13,,,8,,,74,64
35858,note_on,,,,,21,0,12,,,7,,,52,59
35871,note_on,,,,,112,0,15,,,11,,,67,80
35872,note_off,,,,,122,0,9,,,4,,,74,64
35877,note_off,,,,,6,0,15,,,11,,,71,64
35929,note_off,,,,,79,0,16,,,12,,,52,64
35937,note_off,,,,,79,0,12,,,7,,,52,64
35942,note_off,,,,,87,0,11,,,6,,,67,64
35976,note_on,,,,,47,0,16,,,12,,,57,74
35977,note_off,,,,,100,0,15,,,11,,,67,64
35980,note_on,,,,,43,0,12,,,7,,,57,80
35984,note_on,,,,,42,0,11,,,6,,,64,66
35984,note_on,,,,,128,0,13,,,8,,,73,64
35999,note_on,,,,,22,0,15,,,11,,,64,78
36000,note_on,,,,,128,0,9,,,4,,,73,58
36090,note_on,,,,,110,0,12,,,7,,,55,60
36092,note_off,,,,,2,0,12,,,7,,,57,64
36098,note_off,,,,,98,0,9,,,4,,,73,64
36099,note_on,,,,,123,0,16,,,12,,,55,64
36100,note_off,,,,,116,0,13,,,8,,,73,64
36107,note_off,,,,,8,0,16,,,12,,,57,64
36112,note_off,,,,,128,0,11,,,6,,,64,64
36133,note_off,,,,,134,0,15,,,11,,,64,64
36134,note_off,,,,,629,0,10,,,5,,,79,64
36157,note_off,,,,,649,0,14,,,10,,,79,64
36213,note_off,,,,,121,0,12,,,7,,,55,64
36214,note_off,,,,,107,0,16,,,12,,,55,64
36225,note_on,,,,,12,0,12,,,7,,,57,60
36231,note_on,,,,,74,0,14,,,10,,,78,61
36231,note_on,,,,,119,0,11,,,6,,,73,64
36231,note_on,,,,,131,0,13,,,8,,,81,80
36231,note_on,,,,,17,0,16,,,12,,,57,64
36235,note_on,,,,,137,0,9,,,4,,,81,66
36239,note_on,,,,,105,0,10,,,5,,,78,64
36240,note_on,,,,,107,0,15,,,11,,,73,85
36327,note_off,,,,,102,0,12,,,7,,,57,64
36332,note_off,,,,,101,0,11,,,6,,,73,64
36337,note_on,,,,,10,0,12,,,7,,,59,62
36348,note_on,,,,,117,0,16,,,12,,,59,72
36349,note_off,,,,,110,0,10,,,5,,,78,64
36352,note_off,,,,,4,0,16,,,12,,,57,64
36353,note_off,,,,,113,0,15,,,11,,,73,64
36372,note_off,,,,,141,0,14,,,10,,,78,64
36459,note_off,,,,,122,0,12,,,7,,,59,64
36460,note_on,,,,,1,0,12,,,7,,,61,59
36463,note_on,,,,,111,0,16,,,12,,,61,61
36470,note_off,,,,,7,0,16,,,12,,,59,64
36470,note_on,,,,,98,0,14,,,10,,,76,64
36477,note_on,,,,,128,0,10,,,5,,,76,64
36481,note_on,,,,,128,0,15,,,11,,,69,85
36481,note_on,,,,,149,0,11,,,6,,,69,76
36569,note_off,,,,,109,0,12,,,7,,,61,64
36571,note_on,,,,,2,0,12,,,7,,,57,64
36571,note_on,,,,,101,0,16,,,12,,,57,74
36572,note_off,,,,,1,0,16,,,12,,,61,64
36586,note_off,,,,,109,0,10,,,5,,,76,64
36600,note_off,,,,,365,0,9,,,4,,,81,64
36606,note_off,,,,,375,0,13,,,8,,,81,64
36609,note_off,,,,,139,0,14,,,10,,,76,64
36656,note_off,,,,,85,0,12,,,7,,,57,64
36666,note_off,,,,,94,0,16,,,12,,,57,64
36703,note_on,,,,,37,0,16,,,12,,,62,80
36704,note_on,,,,,98,0,13,,,8,,,78,87
36707,note_on,,,,,107,0,9,,,4,,,78,82
36711,note_on,,,,,102,0,14,,,10,,,74,66
36712,note_on,,,,,56,0,12,,,7,,,62,82
36714,note_on,,,,,128,0,10,,,5,,,74,70
36813,note_off,,,,,332,0,11,,,6,,,69,64
36819,note_on,,,,,105,0,10,,,5,,,76,72
36819,note_on,,,,,108,0,14,,,10,,,76,78
36821,note_on,,,,,340,0,15,,,11,,,67,64
36822,note_on,,,,,118,0,13,,,8,,,79,78
36823,note_on,,,,,10,0,11,,,6,,,67,70
36823,note_off,,,,,1,0,13,,,8,,,78,64
36825,note_off,,,,,4,0,15,,,11,,,69,64
36826,note_off,,,,,7,0,14,,,10,,,74,64
36826,note_on,,,,,119,0,9,,,4,,,79,72
36834,note_off,,,,,15,0,10,,,5,,,74,64
36839,note_off,,,,,13,0,9,,,4,,,78,64
36840,note_off,,,,,128,0,12,,,7,,,62,64
36874,note_off,,,,,171,0,16,,,12,,,62,64
36921,note_off,,,,,82,0,9,,,4,,,79,64
36923,note_off,,,,,100,0,13,,,8,,,79,64
36940,note_off,,,,,114,0,14,,,10,,,76,64
36940,note_on,,,,,0,0,15,,,11,,,66,66
36940,note_off,,,,,115,0,15,,,11,,,67,64
36943,note_on,,,,,20,0,13,,,8,,,81,82
36943,note_on,,,,,22,0,9,,,4,,,81,80
36943,note_off,,,,,120,0,11,,,6,,,67,64
36943,note_on,,,,,0,0,11,,,6,,,66,55
36944,note_on,,,,,4,0,14,,,10,,,78,63
36945,note_on,,,,,105,0,12,,,7,,,50,64
36945,note_on,,,,,71,0,16,,,12,,,50,57
36950,note_on,,,,,116,0,10,,,5,,,78,64
36959,note_off,,,,,9,0,10,,,5,,,76,64
37049,note_off,,,,,106,0,9,,,4,,,81,64
37049,note_on,,,,,109,0,15,,,11,,,67,66
37049,note_on,,,,,106,0,11,,,6,,,67,63
37050,note_off,,,,,107,0,13,,,8,,,81,64
37053,note_off,,,,,4,0,11,,,6,,,66,64
37058,note_on,,,,,113,0,16,,,12,,,52,66
37059,note_off,,,,,10,0,15,,,11,,,66,64
37063,note_on,,,,,118,0,12,,,7,,,52,68
37072,note_off,,,,,9,0,12,,,7,,,50,64
37075,note_off,,,,,17,0,16,,,12,,,50,64
37154,note_off,,,,,79,0,16,,,12,,,52,64
37163,note_off,,,,,91,0,12,,,7,,,52,64
37171,note_off,,,,,112,0,15,,,11,,,67,64
37175,note_on,,,,,4,0,15,,,11,,,69,70
37175,note_on,,,,,21,0,16,,,12,,,54,59
37177,note_on,,,,,127,0,13,,,8,,,72,66
37177,note_on,,,,,124,0,11,,,6,,,69,61
37178,note_on,,,,,15,0,12,,,7,,,54,60
37185,note_off,,,,,8,0,11,,,6,,,67,64
37185,note_on,,,,,136,0,9,,,4,,,72,62
37272,note_off,,,,,97,0,16,,,12,,,54,64
37276,note_off,,,,,98,0,12,,,7,,,54,64
37278,note_off,,,,,93,0,11,,,6,,,69,64
37280,note_off,,,,,103,0,13,,,8,,,72,64
37285,note_on,,,,,7,0,11,,,6,,,66,60
37285,note_off,,,,,110,0,15,,,11,,,69,64
37287,note_on,,,,,15,0,16,,,12,,,50,68
37287,note_on,,,,,2,0,15,,,11,,,66,78
37289,note_off,,,,,104,0,9,,,4,,,72,64
37292,note_on,,,,,16,0,12,,,7,,,50,68
37383,note_off,,,,,96,0,16,,,12,,,50,64
37387,note_off,,,,,95,0,12,,,7,,,50,64
37392,note_off,,,,,107,0,11,,,6,,,66,64
37401,note_off,,,,,114,0,15,,,11,,,66,64
37413,note_on,,,,,21,0,11,,,6,,,62,78
37418,note_on,,,,,35,0,16,,,12,,,55,76
37419,note_on,,,,,18,0,15,,,11,,,62,70
37423,note_on,,,,,143,0,13,,,8,,,71,68
37426,note_on,,,,,39,0,12,,,7,,,55,82
37429,note_on,,,,,140,0,9,,,4,,,71,61
37523,note_on,,,,,105,0,16,,,12,,,54,53
37526,note_off,,,,,3,0,16,,,12,,,55,64
37530,note_off,,,,,107,0,13,,,8,,,71,64
37530,note_off,,,,,117,0,11,,,6,,,62,64
37536,note_off,,,,,107,0,9,,,4,,,71,64
37537,note_on,,,,,111,0,12,,,7,,,54,56
37539,note_off,,,,,2,0,12,,,7,,,55,64
37549,note_off,,,,,130,0,15,,,11,,,62,64
37567,note_off,,,,,608,0,10,,,5,,,78,64
37584,note_off,,,,,640,0,14,,,10,,,78,64
37652,note_on,,,,,126,0,16,,,12,,,55,64
37653,note_on,,,,,69,0,14,,,10,,,76,64
37657,note_off,,,,,5,0,16,,,12,,,54,64
37659,note_on,,,,,110,0,15,,,11,,,71,87
37663,note_on,,,,,124,0,12,,,7,,,55,64
37664,note_on,,,,,134,0,11,,,6,,,71,68
37668,note_off,,,,,5,0,12,,,7,,,54,64
37671,note_on,,,,,104,0,10,,,5,,,76,66
37673,note_on,,,,,143,0,13,,,8,,,79,85
37677,note_on,,,,,141,0,9,,,4,,,79,82
37741,note_off,,,,,84,0,16,,,12,,,55,64
37756,note_off,,,,,88,0,12,,,7,,,55,64
37769,note_on,,,,,28,0,16,,,12,,,57,68
37769,note_off,,,,,105,0,11,,,6,,,71,64
37777,note_off,,,,,118,0,15,,,11,,,71,64
37782,note_on,,,,,26,0,12,,,7,,,57,64
37786,note_off,,,,,133,0,14,,,10,,,76,64
37790,note_off,,,,,119,0,10,,,5,,,76,64
37881,note_off,,,,,112,0,16,,,12,,,57,64
37887,note_on,,,,,6,0,16,,,12,,,59,66
37895,note_on,,,,,113,0,12,,,7,,,59,64
37902,note_off,,,,,7,0,12,,,7,,,57,64
37905,note_on,,,,,119,0,14,,,10,,,74,70
37912,note_on,,,,,135,0,15,,,11,,,67,76
37916,note_on,,,,,126,0,10,,,5,,,74,59
37920,note_on,,,,,151,0,11,,,6,,,67,66
38004,note_on,,,,,117,0,16,,,12,,,55,63
38005,note_off,,,,,1,0,16,,,12,,,59,64
38014,note_off,,,,,112,0,12,,,7,,,59,64
38017,note_on,,,,,3,0,12,,,7,,,55,68
38023,note_off,,,,,107,0,10,,,5,,,74,64
38026,note_off,,,,,353,0,13,,,8,,,79,64
38036,note_off,,,,,131,0,14,,,10,,,74,64
38058,note_off,,,,,381,0,9,,,4,,,79,64
38092,note_off,,,,,87,0,16,,,12,,,55,64
38117,note_off,,,,,100,0,12,,,7,,,55,64
38143,note_on,,,,,117,0,13,,,8,,,73,78
38144,note_on,,,,,52,0,16,,,12,,,57,72
38148,note_on,,,,,31,0,12,,,7,,,57,82
38153,note_on,,,,,130,0,10,,,5,,,69,57
38156,note_on,,,,,120,0,14,,,10,,,69,70
38162,note_on,,,,,104,0,9,,,4,,,73,63
38255,note_on,,,,,112,0,13,,,8,,,74,78
38258,note_off,,,,,3,0,13,,,8,,,73,64
38266,note_off,,,,,104,0,9,,,4,,,73,64
38270,note_on,,,,,4,0,9,,,4,,,74,70
38294,note_off,,,,,374,0,11,,,6,,,67,64
38331,note_off,,,,,183,0,12,,,7,,,57,64
38336,note_off,,,,,192,0,16,,,12,,,57,64
38336,note_off,,,,,424,0,15,,,11,,,67,64
38356,note_off,,,,,98,0,13,,,8,,,74,64
38372,note_off,,,,,102,0,9,,,4,,,74,64
38376,note_on,,,,,20,0,13,,,8,,,76,70
38386,note_on,,,,,50,0,16,,,12,,,55,66
38390,note_on,,,,,18,0,9,,,4,,,76,70
38394,note_on,,,,,63,0,12,,,7,,,55,72
38394,note_on,,,,,58,0,15,,,11,,,61,78
38402,note_on,,,,,108,0,11,,,6,,,74,70
38476,note_off,,,,,100,0,13,,,8,,,76,64
38495,note_on,,,,,93,0,11,,,6,,,73,46
38499,note_off,,,,,109,0,9,,,4,,,76,64
38499,note_on,,,,,113,0,16,,,12,,,54,62
38499,note_off,,,,,4,0,11,,,6,,,74,64
38499,note_off,,,,,105,0,12,,,7,,,55,64
38502,note_on,,,,,3,0,12,,,7,,,54,60
38504,note_off,,,,,5,0,16,,,12,,,55,64
38511,note_off,,,,,117,0,15,,,11,,,61,64
38526,note_on,,,,,27,0,11,,,6,,,74,58
38530,note_off,,,,,4,0,11,,,6,,,73,64
38573,note_on,,,,,43,0,11,,,6,,,73,51
38576,note_off,,,,,3,0,11,,,6,,,74,64
38594,note_off,,,,,92,0,12,,,7,,,54,64
38603,note_on,,,,,27,0,11,,,6,,,74,61
38608,note_on,,,,,132,0,13,,,8,,,69,70
38608,note_off,,,,,5,0,11,,,6,,,73,64
38610,note_off,,,,,106,0,16,,,12,,,54,64
38614,note_on,,,,,4,0,16,,,12,,,55,60
38621,note_on,,,,,27,0,12,,,7,,,55,64
38626,note_on,,,,,115,0,15,,,11,,,64,76
38629,note_on,,,,,130,0,9,,,4,,,69,70
38642,note_off,,,,,34,0,11,,,6,,,74,64
38655,note_on,,,,,13,0,11,,,6,,,74,49
38695,note_on,,,,,40,0,11,,,6,,,73,57
38713,note_off,,,,,105,0,13,,,8,,,69,64
38713,note_off,,,,,18,0,11,,,6,,,74,64
38721,note_off,,,,,107,0,16,,,12,,,55,64
38728,note_off,,,,,107,0,12,,,7,,,55,64
38731,note_off,,,,,102,0,9,,,4,,,69,64
38738,note_on,,,,,17,0,16,,,12,,,52,64
38740,note_on,,,,,12,0,12,,,7,,,52,66
38749,note_on,,,,,36,0,11,,,6,,,71,70
38754,note_off,,,,,5,0,11,,,6,,,73,64
38776,note_off,,,,,150,0,15,,,11,,,64,64
38801,note_on,,,,,47,0,11,,,6,,,73,57
38826,note_off,,,,,86,0,12,,,7,,,52,64
38830,note_off,,,,,29,0,11,,,6,,,71,64
38837,note_off,,,,,99,0,16,,,12,,,52,64
38855,note_on,,,,,142,0,13,,,8,,,74,74
38859,note_on,,,,,22,0,16,,,12,,,54,72
38859,note_on,,,,,33,0,12,,,7,,,54,64
38866,note_on,,,,,90,0,15,,,11,,,66,82
38867,note_off,,,,,37,0,11,,,6,,,73,64
38868,note_on,,,,,137,0,9,,,4,,,74,70
38874,note_on,,,,,7,0,11,,,6,,,74,70
38967,note_off,,,,,101,0,15,,,11,,,66,64
38969,note_on,,,,,2,0,15,,,11,,,67,76
38976,note_off,,,,,121,0,13,,,8,,,74,64
38977,note_on,,,,,1,0,13,,,8,,,76,70
38977,note_off,,,,,118,0,12,,,7,,,54,64
38980,note_on,,,,,121,0,16,,,12,,,52,68
38980,note_on,,,,,3,0,12,,,7,,,52,59
38982,note_off,,,,,114,0,9,,,4,,,74,64
38990,note_on,,,,,8,0,9,,,4,,,76,64
38999,note_off,,,,,125,0,11,,,6,,,74,64
39000,note_off,,,,,20,0,16,,,12,,,54,64
39011,note_off,,,,,858,0,10,,,5,,,69,64
39027,note_off,,,,,871,0,14,,,10,,,69,64
39078,note_off,,,,,109,0,15,,,11,,,67,64
39084,note_off,,,,,104,0,12,,,7,,,52,64
39094,note_on,,,,,67,0,14,,,10,,,74,85
39095,note_on,,,,,17,0,15,,,11,,,69,85
39098,note_on,,,,,98,0,16,,,12,,,50,68
39100,note_off,,,,,123,0,13,,,8,,,76,64
39102,note_off,,,,,4,0,16,,,12,,,52,64
39104,note_on,,,,,4,0,13,,,8,,,78,58
39106,note_on,,,,,22,0,12,,,7,,,50,66
39108,note_on,,,,,97,0,10,,,5,,,74,78
39113,note_on,,,,,123,0,9,,,4,,,78,57
39119,note_on,,,,,120,0,11,,,6,,,69,72
39120,note_off,,,,,7,0,9,,,4,,,76,64
39205,note_on,,,,,111,0,14,,,10,,,73,66
39207,note_on,,,,,105,0,16,,,12,,,52,63
39207,note_on,,,,,103,0,13,,,8,,,79,78
39211,note_off,,,,,6,0,14,,,10,,,74,64
39211,note_off,,,,,92,0,11,,,6,,,69,64
39214,note_on,,,,,108,0,12,,,7,,,52,60
39218,note_off,,,,,110,0,10,,,5,,,74,64
39221,note_on,,,,,3,0,10,,,5,,,73,64
39225,note_off,,,,,18,0,16,,,12,,,50,64
39227,note_on,,,,,107,0,9,,,4,,,79,72
39228,note_off,,,,,1,0,9,,,4,,,78,64
39229,note_off,,,,,22,0,13,,,8,,,78,64
39233,note_off,,,,,19,0,12,,,7,,,50,64
39247,note_off,,,,,152,0,15,,,11,,,69,64
39310,note_off,,,,,99,0,14,,,10,,,73,64
39318,note_off,,,,,85,0,12,,,7,,,52,64
39318,note_off,,,,,97,0,10,,,5,,,73,64
39323,note_off,,,,,98,0,16,,,12,,,52,64
39323,note_on,,,,,0,0,16,,,12,,,54,60
39326,note_off,,,,,97,0,13,,,8,,,79,64
39331,note_on,,,,,21,0,14,,,10,,,74,82
39332,note_on,,,,,6,0,13,,,8,,,81,85
39336,note_on,,,,,89,0,15,,,11,,,66,76
39339,note_on,,,,,21,0,12,,,7,,,54,60
39340,note_on,,,,,22,0,10,,,5,,,74,82
39341,note_off,,,,,113,0,9,,,4,,,79,64
39345,note_on,,,,,134,0,11,,,6,,,66,60
39349,note_on,,,,,8,0,9,,,4,,,81,82
39433,note_off,,,,,101,0,13,,,8,,,81,64
39437,note_on,,,,,4,0,13,,,8,,,72,74
39443,note_on,,,,,120,0,16,,,12,,,50,68
39453,note_off,,,,,104,0,9,,,4,,,81,64
39454,note_on,,,,,115,0,12,,,7,,,50,66
39455,note_off,,,,,1,0,12,,,7,,,54,64
39457,note_on,,,,,4,0,9,,,4,,,72,70
39459,note_off,,,,,16,0,16,,,12,,,54,64
39470,note_off,,,,,125,0,11,,,6,,,66,64
39478,note_off,,,,,147,0,14,,,10,,,74,64
39483,note_off,,,,,147,0,15,,,11,,,66,64
39502,note_off,,,,,162,0,10,,,5,,,74,64
39520,note_off,,,,,83,0,13,,,8,,,72,64
39542,note_off,,,,,83,0,16,,,12,,,50,64
39550,note_off,,,,,93,0,9,,,4,,,72,64
39559,note_on,,,,,39,0,13,,,8,,,71,78
39567,note_off,,,,,112,0,12,,,7,,,50,64
39576,note_on,,,,,34,0,16,,,12,,,55,80
39580,note_on,,,,,102,0,14,,,10,,,67,74
39581,note_on,,,,,31,0,9,,,4,,,71,76
39584,note_on,,,,,17,0,12,,,7,,,55,78
39588,note_on,,,,,86,0,10,,,5,,,67,68
39589,note_on,,,,,119,0,11,,,6,,,62,64
39590,note_on,,,,,107,0,15,,,11,,,62,78
39691,note_off,,,,,132,0,13,,,8,,,71,64
39698,note_off,,,,,117,0,9,,,4,,,71,64
39700,note_off,,,,,120,0,14,,,10,,,67,64
39706,note_off,,,,,117,0,11,,,6,,,62,64
39715,note_off,,,,,127,0,10,,,5,,,67,64
39716,note_off,,,,,132,0,12,,,7,,,55,64
39721,note_off,,,,,145,0,16,,,12,,,55,64
39729,note_off,,,,,139,0,15,,,11,,,62,64
39812,note_on,,,,,112,0,14,,,10,,,67,62
39819,note_on,,,,,128,0,13,,,8,,,73,78
39820,note_on,,,,,99,0,16,,,12,,,52,74
39822,note_on,,,,,93,0,15,,,11,,,64,80
39827,note_on,,,,,121,0,11,,,6,,,64,68
39833,note_on,,,,,117,0,12,,,7,,,52,78
39833,note_on,,,,,135,0,9,,,4,,,73,63
39834,note_on,,,,,119,0,10,,,5,,,67,72
39926,note_off,,,,,114,0,14,,,10,,,67,64
39931,note_off,,,,,98,0,12,,,7,,,52,64
39935,note_off,,,,,115,0,16,,,12,,,52,64
39951,note_off,,,,,132,0,13,,,8,,,73,64
39951,note_off,,,,,124,0,11,,,6,,,64,64
39959,note_off,,,,,125,0,10,,,5,,,67,64
39960,note_off,,,,,127,0,9,,,4,,,73,64
39976,note_off,,,,,154,0,15,,,11,,,64,64
40061,note_on,,,,,110,0,13,,,8,,,74,76
40062,note_on,,,,,86,0,15,,,11,,,66,64
40065,note_on,,,,,139,0,14,,,10,,,69,72
40074,note_on,,,,,139,0,16,,,12,,,50,80
40075,note_on,,,,,124,0,11,,,6,,,66,60
40076,note_on,,,,,145,0,12,,,7,,,50,78
40079,note_on,,,,,120,0,10,,,5,,,69,64
40079,note_on,,,,,119,0,9,,,4,,,74,74
40186,note_off,,,,,125,0,13,,,8,,,74,64
40189,note_off,,,,,110,0,9,,,4,,,74,64
40189,note_off,,,,,115,0,16,,,12,,,50,64
40190,note_off,,,,,111,0,10,,,5,,,69,64
40192,note_off,,,,,116,0,12,,,7,,,50,64
40194,note_off,,,,,119,0,11,,,6,,,66,64
40201,note_off,,,,,139,0,15,,,11,,,66,64
40202,note_off,,,,,137,0,14,,,10,,,69,64
40306,note_on,,,,,105,0,15,,,11,,,69,80
40310,note_on,,,,,124,0,13,,,8,,,76,80
40313,note_on,,,,,124,0,9,,,4,,,76,78
40316,note_on,,,,,126,0,10,,,5,,,73,60
40317,note_on,,,,,115,0,14,,,10,,,73,66
40321,note_on,,,,,127,0,11,,,6,,,69,80
40321,note_on,,,,,129,0,12,,,7,,,57,74
40326,note_on,,,,,137,0,16,,,12,,,57,80
40430,note_off,,,,,109,0,11,,,6,,,69,64
40440,note_off,,,,,134,0,15,,,11,,,69,64
40444,note_off,,,,,128,0,10,,,5,,,73,64
40459,note_off,,,,,142,0,14,,,10,,,73,64
40481,note_off,,,,,168,0,9,,,4,,,76,64
40501,note_off,,,,,191,0,13,,,8,,,76,64
40547,note_on,,,,,107,0,15,,,11,,,64,80
40550,note_on,,,,,106,0,10,,,5,,,69,62
40552,note_on,,,,,93,0,14,,,10,,,69,72
40552,note_on,,,,,51,0,13,,,8,,,74,85
40553,note_on,,,,,72,0,9,,,4,,,74,80
40565,note_on,,,,,135,0,11,,,6,,,64,57
40657,note_off,,,,,107,0,10,,,5,,,69,64
40661,note_on,,,,,109,0,13,,,8,,,73,70
40669,note_off,,,,,8,0,13,,,8,,,74,64
40669,note_on,,,,,116,0,9,,,4,,,73,64
40671,note_off,,,,,124,0,15,,,11,,,64,64
40680,note_off,,,,,128,0,14,,,10,,,69,64
40682,note_off,,,,,13,0,9,,,4,,,74,64
40726,note_off,,,,,405,0,12,,,7,,,57,64
40754,note_off,,,,,428,0,16,,,12,,,57,64
40785,note_on,,,,,128,0,10,,,5,,,64,66
40786,note_off,,,,,117,0,13,,,8,,,73,64
40786,note_on,,,,,0,0,13,,,8,,,71,64
40788,note_off,,,,,106,0,9,,,4,,,73,64
40789,note_on,,,,,118,0,15,,,11,,,61,64
40789,note_on,,,,,35,0,16,,,12,,,55,68
40792,note_on,,,,,112,0,14,,,10,,,64,68
40792,note_on,,,,,4,0,9,,,4,,,71,59
40793,note_on,,,,,67,0,12,,,7,,,55,57
40889,note_off,,,,,103,0,13,,,8,,,71,64
40890,note_off,,,,,105,0,10,,,5,,,64,64
40899,note_on,,,,,10,0,13,,,8,,,69,63
40904,note_off,,,,,112,0,9,,,4,,,71,64
40908,note_on,,,,,4,0,9,,,4,,,69,64
40910,note_off,,,,,345,0,11,,,6,,,64,64
40923,note_off,,,,,134,0,15,,,11,,,61,64
40933,note_off,,,,,141,0,14,,,10,,,64,64
40936,note_off,,,,,143,0,12,,,7,,,55,64
40951,note_off,,,,,162,0,16,,,12,,,55,64
40978,note_off,,,,,79,0,13,,,8,,,69,64
40999,note_off,,,,,91,0,9,,,4,,,69,64
41024,note_on,,,,,46,0,13,,,8,,,74,80
41028,note_on,,,,,138,0,10,,,5,,,69,64
41030,note_on,,,,,94,0,12,,,7,,,54,60
41030,note_on,,,,,79,0,16,,,12,,,54,68
41030,note_on,,,,,31,0,9,,,4,,,74,80
41030,note_on,,,,,97,0,14,,,10,,,69,76
41033,note_on,,,,,123,0,11,,,6,,,62,52
41038,note_on,,,,,115,0,15,,,11,,,62,57
41130,note_off,,,,,106,0,13,,,8,,,74,64
41136,note_off,,,,,106,0,12,,,7,,,54,64
41139,note_on,,,,,9,0,13,,,8,,,73,68
41140,note_off,,,,,110,0,9,,,4,,,74,64
41143,note_on,,,,,113,0,16,,,12,,,52,62
41143,note_on,,,,,7,0,12,,,7,,,52,64
41145,note_on,,,,,5,0,9,,,4,,,73,60
41153,note_off,,,,,10,0,16,,,12,,,54,64
41169,note_off,,,,,131,0,15,,,11,,,62,64
41221,note_off,,,,,188,0,11,,,6,,,62,64
41232,note_off,,,,,93,0,13,,,8,,,73,64
41235,note_off,,,,,90,0,9,,,4,,,73,64
41258,note_on,,,,,115,0,12,,,7,,,54,62
41260,note_off,,,,,2,0,12,,,7,,,52,64
41262,note_on,,,,,30,0,13,,,8,,,74,66
41263,note_off,,,,,110,0,16,,,12,,,52,64
41263,note_on,,,,,0,0,16,,,12,,,54,70
41270,note_on,,,,,101,0,15,,,11,,,62,64
41272,note_on,,,,,37,0,9,,,4,,,74,78
41275,note_on,,,,,54,0,11,,,6,,,62,60
41361,note_off,,,,,99,0,13,,,8,,,74,64
41363,note_off,,,,,100,0,16,,,12,,,54,64
41364,note_off,,,,,104,0,12,,,7,,,54,64
41371,note_on,,,,,8,0,16,,,12,,,55,80
41374,note_on,,,,,10,0,12,,,7,,,55,80
41381,note_off,,,,,109,0,9,,,4,,,74,64
41409,note_off,,,,,139,0,15,,,11,,,62,64
41412,note_off,,,,,137,0,11,,,6,,,62,64
41497,note_off,,,,,126,0,16,,,12,,,55,64
41497,note_on,,,,,0,0,16,,,12,,,57,64
41497,note_off,,,,,123,0,12,,,7,,,55,64
41501,note_on,,,,,140,0,13,,,8,,,69,64
41510,note_on,,,,,101,0,15,,,11,,,62,68
41510,note_on,,,,,13,0,12,,,7,,,57,64
41515,note_on,,,,,103,0,11,,,6,,,62,60
41517,note_on,,,,,136,0,9,,,4,,,69,59
41608,note_off,,,,,107,0,13,,,8,,,69,64
41613,note_on,,,,,116,0,16,,,12,,,59,70
41618,note_off,,,,,5,0,16,,,12,,,57,64
41622,note_on,,,,,112,0,12,,,7,,,59,74
41624,note_off,,,,,2,0,12,,,7,,,57,64
41638,note_off,,,,,121,0,9,,,4,,,69,64
41639,note_off,,,,,129,0,15,,,11,,,62,64
41643,note_off,,,,,128,0,11,,,6,,,62,64
41734,note_off,,,,,110,0,12,,,7,,,59,64
41735,note_off,,,,,117,0,16,,,12,,,59,64
41739,note_on,,,,,4,0,16,,,12,,,60,80
41742,note_on,,,,,103,0,15,,,11,,,62,64
41744,note_on,,,,,136,0,13,,,8,,,66,61
41747,note_on,,,,,13,0,12,,,7,,,60,72
41760,note_on,,,,,117,0,11,,,6,,,62,57
41762,note_on,,,,,124,0,9,,,4,,,66,58
41839,note_off,,,,,809,0,14,,,10,,,69,64
41841,note_off,,,,,813,0,10,,,5,,,69,64
41850,note_off,,,,,106,0,13,,,8,,,66,64
41862,note_on,,,,,21,0,10,,,5,,,71,66
41862,note_on,,,,,23,0,14,,,10,,,71,70
41880,note_off,,,,,138,0,15,,,11,,,62,64
41881,note_off,,,,,121,0,11,,,6,,,62,64
41884,note_off,,,,,122,0,9,,,4,,,66,64
41905,note_off,,,,,158,0,12,,,7,,,60,64
41917,note_off,,,,,178,0,16,,,12,,,60,64
41966,note_off,,,,,104,0,14,,,10,,,71,64
41978,note_on,,,,,12,0,14,,,10,,,69,63
41983,note_on,,,,,103,0,15,,,11,,,62,70
41984,note_off,,,,,122,0,10,,,5,,,71,64
41988,note_on,,,,,71,0,16,,,12,,,54,63
41990,note_on,,,,,6,0,10,,,5,,,69,68
41992,note_on,,,,,87,0,12,,,7,,,54,66
41993,note_on,,,,,143,0,13,,,8,,,72,70
41996,note_on,,,,,112,0,9,,,4,,,72,68
42003,note_on,,,,,122,0,11,,,6,,,62,60
42089,note_on,,,,,0,0,14,,,10,,,67,62
42089,note_off,,,,,111,0,14,,,10,,,69,64
42095,note_on,,,,,107,0,16,,,12,,,52,64
42098,note_on,,,,,108,0,10,,,5,,,67,66
42099,note_on,,,,,107,0,12,,,7,,,52,59
42100,note_off,,,,,2,0,10,,,5,,,69,64
42101,note_off,,,,,2,0,12,,,7,,,54,64
42105,note_off,,,,,10,0,16,,,12,,,54,64
42114,note_off,,,,,111,0,11,,,6,,,62,64
42125,note_off,,,,,142,0,15,,,11,,,62,64
42202,note_off,,,,,101,0,12,,,7,,,52,64
42204,note_off,,,,,104,0,10,,,5,,,67,64
42207,note_off,,,,,118,0,14,,,10,,,67,64
42213,note_on,,,,,9,0,10,,,5,,,69,64
42213,note_on,,,,,6,0,14,,,10,,,69,68
42219,note_on,,,,,114,0,16,,,12,,,54,57
42222,note_off,,,,,3,0,16,,,12,,,52,64
42229,note_on,,,,,104,0,15,,,11,,,62,68
42232,note_on,,,,,118,0,11,,,6,,,62,52
42232,note_on,,,,,30,0,12,,,7,,,54,57
42320,note_off,,,,,107,0,10,,,5,,,69,64
42327,note_off,,,,,114,0,14,,,10,,,69,64
42330,note_on,,,,,3,0,14,,,10,,,66,59
42331,note_on,,,,,109,0,16,,,12,,,50,66
42333,note_on,,,,,13,0,10,,,5,,,66,58
42340,note_off,,,,,9,0,16,,,12,,,54,64
42340,note_on,,,,,108,0,12,,,7,,,50,68
42342,note_off,,,,,2,0,12,,,7,,,54,64
42351,note_off,,,,,122,0,15,,,11,,,62,64
42359,note_off,,,,,363,0,9,,,4,,,72,64
42361,note_off,,,,,129,0,11,,,6,,,62,64
42368,note_off,,,,,375,0,13,,,8,,,72,64
42419,note_off,,,,,79,0,16,,,12,,,50,64
42423,note_off,,,,,81,0,12,,,7,,,50,64
42435,note_off,,,,,105,0,14,,,10,,,66,64
42438,note_off,,,,,105,0,10,,,5,,,66,64
42452,note_on,,,,,17,0,14,,,10,,,67,74
42457,note_on,,,,,19,0,10,,,5,,,67,68
42458,note_on,,,,,35,0,12,,,7,,,55,76
42461,note_on,,,,,42,0,16,,,12,,,55,85
42467,note_on,,,,,99,0,13,,,8,,,71,68
42469,note_on,,,,,110,0,9,,,4,,,71,52
42469,note_on,,,,,118,0,15,,,11,,,62,76
42475,note_on,,,,,114,0,11,,,6,,,62,66
42575,note_off,,,,,117,0,12,,,7,,,55,64
42576,note_on,,,,,1,0,12,,,7,,,57,68
42580,note_off,,,,,111,0,15,,,11,,,62,64
42581,note_on,,,,,120,0,16,,,12,,,57,74
42588,note_off,,,,,131,0,10,,,5,,,67,64
42588,note_off,,,,,113,0,11,,,6,,,62,64
42592,note_off,,,,,140,0,14,,,10,,,67,64
42593,note_off,,,,,12,0,16,,,12,,,55,64
42650,note_off,,,,,183,0,13,,,8,,,71,64
42657,note_off,,,,,188,0,9,,,4,,,71,64
42692,note_on,,,,,116,0,12,,,7,,,55,66
42693,note_on,,,,,113,0,15,,,11,,,69,68
42695,note_off,,,,,3,0,12,,,7,,,57,64
42699,note_on,,,,,106,0,16,,,12,,,55,68
42701,note_off,,,,,2,0,16,,,12,,,57,64
42705,note_on,,,,,113,0,14,,,10,,,76,82
42705,note_on,,,,,117,0,10,,,5,,,76,72
42714,note_on,,,,,64,0,13,,,8,,,73,74
42715,note_on,,,,,127,0,11,,,6,,,69,59
42716,note_on,,,,,59,0,9,,,4,,,73,64
42806,note_off,,,,,111,0,12,,,7,,,55,64
42810,note_off,,,,,109,0,16,,,12,,,55,64
42810,note_on,,,,,0,0,16,,,12,,,54,60
42811,note_on,,,,,5,0,12,,,7,,,54,58
42822,note_on,,,,,108,0,13,,,8,,,74,70
42825,note_off,,,,,109,0,9,,,4,,,73,64
42826,note_on,,,,,1,0,9,,,4,,,74,78
42826,note_off,,,,,133,0,15,,,11,,,69,64
42834,note_off,,,,,119,0,11,,,6,,,69,64
42848,note_off,,,,,26,0,13,,,8,,,73,64
42921,note_off,,,,,73,0,13,,,8,,,74,64
42924,note_off,,,,,114,0,16,,,12,,,54,64
42930,note_off,,,,,104,0,9,,,4,,,74,64
42931,note_off,,,,,120,0,12,,,7,,,54,64
42933,note_on,,,,,9,0,16,,,12,,,52,57
42939,note_on,,,,,8,0,12,,,7,,,52,62
42942,note_on,,,,,116,0,15,,,11,,,69,70
42946,note_on,,,,,112,0,11,,,6,,,69,55
42948,note_on,,,,,27,0,13,,,8,,,76,80
42959,note_on,,,,,29,0,9,,,4,,,76,82
43048,note_off,,,,,115,0,16,,,12,,,52,64
43054,note_on,,,,,106,0,13,,,8,,,78,63
43054,note_on,,,,,6,0,16,,,12,,,50,66
43058,note_off,,,,,4,0,13,,,8,,,76,64
43062,note_on,,,,,0,0,9,,,4,,,78,70
43062,note_off,,,,,103,0,9,,,4,,,76,64
43062,note_on,,,,,123,0,12,,,7,,,50,66
43064,note_off,,,,,2,0,12,,,7,,,52,64
43065,note_off,,,,,119,0,11,,,6,,,69,64
43069,note_off,,,,,127,0,15,,,11,,,69,64
43146,note_off,,,,,92,0,16,,,12,,,50,64
43154,note_off,,,,,92,0,9,,,4,,,78,64
43158,note_off,,,,,100,0,13,,,8,,,78,64
43167,note_on,,,,,21,0,16,,,12,,,49,68
43174,note_off,,,,,110,0,12,,,7,,,50,64
43178,note_on,,,,,109,0,15,,,11,,,69,64
43179,note_on,,,,,5,0,12,,,7,,,49,59
43181,note_on,,,,,27,0,9,,,4,,,79,85
43187,note_on,,,,,29,0,13,,,8,,,79,98
43189,note_on,,,,,124,0,11,,,6,,,69,62
43279,note_on,,,,,112,0,16,,,12,,,50,63
43280,note_off,,,,,575,0,10,,,5,,,76,64
43280,note_off,,,,,93,0,13,,,8,,,79,64
43283,note_off,,,,,4,0,16,,,12,,,49,64
43286,note_off,,,,,105,0,9,,,4,,,79,64
43292,note_off,,,,,113,0,12,,,7,,,49,64
43293,note_on,,,,,13,0,10,,,5,,,78,60
43294,note_off,,,,,589,0,14,,,10,,,76,64
43297,note_on,,,,,5,0,12,,,7,,,50,78
43302,note_off,,,,,124,0,15,,,11,,,69,64
43310,note_on,,,,,16,0,14,,,10,,,78,78
43311,note_off,,,,,122,0,11,,,6,,,69,64
43376,note_off,,,,,93,0,16,,,12,,,50,64
43397,note_on,,,,,21,0,16,,,12,,,49,58
43412,note_on,,,,,119,0,10,,,5,,,76,66
43416,note_on,,,,,114,0,15,,,11,,,69,70
43419,note_off,,,,,7,0,10,,,5,,,78,64
43424,note_on,,,,,127,0,12,,,7,,,49,80
43426,note_on,,,,,140,0,9,,,4,,,69,59
43428,note_off,,,,,4,0,12,,,7,,,50,64
43428,note_on,,,,,118,0,14,,,10,,,76,66
43428,note_on,,,,,148,0,13,,,8,,,69,58
43429,note_on,,,,,118,0,11,,,6,,,69,64
43442,note_off,,,,,14,0,14,,,10,,,78,64
43522,note_on,,,,,0,0,16,,,12,,,47,57
43522,note_off,,,,,125,0,16,,,12,,,49,64
43530,note_off,,,,,111,0,10,,,5,,,76,64
43533,note_on,,,,,3,0,10,,,5,,,74,62
43537,note_off,,,,,108,0,11,,,6,,,69,64
43538,note_off,,,,,96,0,14,,,10,,,76,64
43538,note_on,,,,,0,0,14,,,10,,,74,72
43539,note_off,,,,,111,0,12,,,7,,,49,64
43540,note_on,,,,,1,0,12,,,7,,,47,62
43563,note_off,,,,,147,0,15,,,11,,,69,64
43636,note_off,,,,,98,0,14,,,10,,,74,64
43638,note_off,,,,,105,0,10,,,5,,,74,64
43643,note_on,,,,,121,0,16,,,12,,,49,62
43647,note_on,,,,,11,0,14,,,10,,,76,70
43649,note_off,,,,,6,0,16,,,12,,,47,64
43653,note_on,,,,,90,0,15,,,11,,,69,78
43656,note_on,,,,,18,0,10,,,5,,,76,68
43662,note_off,,,,,122,0,12,,,7,,,47,64
43664,note_on,,,,,2,0,12,,,7,,,49,57
43674,note_on,,,,,137,0,11,,,6,,,69,70
43748,note_off,,,,,322,0,9,,,4,,,69,64
43748,note_off,,,,,99,0,16,,,12,,,49,64
43754,note_on,,,,,6,0,16,,,12,,,45,66
43754,note_off,,,,,326,0,13,,,8,,,69,64
43761,note_off,,,,,87,0,11,,,6,,,69,64
43762,note_off,,,,,109,0,15,,,11,,,69,64
43766,note_on,,,,,119,0,14,,,10,,,73,58
43769,note_off,,,,,3,0,14,,,10,,,76,64
43770,note_off,,,,,106,0,12,,,7,,,49,64
43772,note_off,,,,,116,0,10,,,5,,,76,64
43774,note_on,,,,,4,0,12,,,7,,,45,68
43774,note_on,,,,,2,0,10,,,5,,,73,57
43861,note_off,,,,,107,0,16,,,12,,,45,64
43862,note_off,,,,,93,0,14,,,10,,,73,64
43866,note_off,,,,,92,0,12,,,7,,,45,64
43883,note_on,,,,,22,0,16,,,12,,,50,78
43884,note_off,,,,,110,0,10,,,5,,,73,64
43893,note_on,,,,,31,0,14,,,10,,,69,64
43893,note_on,,,,,131,0,15,,,11,,,62,72
43902,note_on,,,,,18,0,10,,,5,,,69,66
43903,note_on,,,,,37,0,12,,,7,,,50,70
43911,note_on,,,,,150,0,11,,,6,,,62,68
43911,note_on,,,,,157,0,13,,,8,,,78,64
43923,note_on,,,,,175,0,9,,,4,,,78,60
44008,note_on,,,,,125,0,16,,,12,,,49,62
44012,note_off,,,,,101,0,13,,,8,,,78,64
44019,note_on,,,,,116,0,12,,,7,,,49,61
44024,note_off,,,,,101,0,9,,,4,,,78,64
44025,note_on,,,,,13,0,13,,,8,,,79,82
44026,note_off,,,,,18,0,16,,,12,,,50,64
44028,note_on,,,,,4,0,9,,,4,,,79,76
44038,note_off,,,,,19,0,12,,,7,,,50,64
44046,note_off,,,,,144,0,10,,,5,,,69,64
44060,note_off,,,,,167,0,14,,,10,,,69,64
44121,note_off,,,,,96,0,13,,,8,,,79,64
44126,note_on,,,,,100,0,16,,,12,,,47,64
44129,note_off,,,,,3,0,16,,,12,,,49,64
44138,note_on,,,,,100,0,12,,,7,,,47,60
44141,note_off,,,,,113,0,9,,,4,,,79,64
44142,note_off,,,,,4,0,12,,,7,,,49,64
44142,note_on,,,,,21,0,13,,,8,,,81,66
44147,note_on,,,,,101,0,10,,,5,,,74,72
44147,note_on,,,,,6,0,9,,,4,,,81,66
44152,note_on,,,,,92,0,14,,,10,,,74,78
44230,note_off,,,,,88,0,13,,,8,,,81,64
44231,note_on,,,,,1,0,13,,,8,,,79,55
44240,note_on,,,,,93,0,9,,,4,,,79,50
44246,note_off,,,,,99,0,10,,,5,,,74,64
44246,note_on,,,,,117,0,16,,,12,,,45,60
44246,note_off,,,,,6,0,9,,,4,,,81,64
44251,note_off,,,,,5,0,16,,,12,,,47,64
44255,note_on,,,,,113,0,12,,,7,,,45,60
44255,note_on,,,,,103,0,14,,,10,,,73,68
44257,note_off,,,,,2,0,14,,,10,,,74,64
44258,note_on,,,,,12,0,10,,,5,,,73,60
44262,note_off,,,,,351,0,11,,,6,,,62,64
44265,note_off,,,,,10,0,12,,,7,,,47,64
44275,note_off,,,,,382,0,15,,,11,,,62,64
44277,note_on,,,,,46,0,13,,,8,,,81,68
44279,note_off,,,,,2,0,13,,,8,,,79,64
44290,note_off,,,,,44,0,9,,,4,,,79,64
44292,note_on,,,,,2,0,9,,,4,,,81,59
44319,note_on,,,,,40,0,13,,,8,,,79,60
44321,note_off,,,,,2,0,13,,,8,,,81,64
44338,note_on,,,,,46,0,9,,,4,,,79,51
44339,note_off,,,,,1,0,9,,,4,,,81,64
44347,note_off,,,,,90,0,14,,,10,,,73,64
44352,note_off,,,,,101,0,16,,,12,,,45,64
44352,note_on,,,,,31,0,13,,,8,,,81,74
44354,note_off,,,,,2,0,13,,,8,,,79,64
44365,note_on,,,,,13,0,16,,,12,,,47,64
44366,note_on,,,,,27,0,9,,,4,,,81,56
44370,note_on,,,,,23,0,14,,,10,,,74,72
44370,note_off,,,,,4,0,9,,,4,,,79,64
44371,note_off,,,,,106,0,12,,,7,,,45,64
44374,note_off,,,,,116,0,10,,,5,,,73,64
44384,note_on,,,,,13,0,12,,,7,,,47,70
44385,note_on,,,,,110,0,15,,,11,,,71,82
44386,note_off,,,,,32,0,13,,,8,,,81,64
44386,note_on,,,,,0,0,13,,,8,,,79,72
44388,note_on,,,,,14,0,10,,,5,,,74,72
44396,note_on,,,,,134,0,11,,,6,,,71,82
44401,note_off,,,,,31,0,9,,,4,,,81,64
44401,note_on,,,,,0,0,9,,,4,,,79,53
44417,note_on,,,,,31,0,13,,,8,,,81,78
44422,note_on,,,,,21,0,9,,,4,,,81,57
44424,note_off,,,,,7,0,13,,,8,,,79,64
44426,note_off,,,,,4,0,9,,,4,,,79,64
44453,note_on,,,,,29,0,13,,,8,,,79,61
44455,note_on,,,,,29,0,9,,,4,,,79,51
44466,note_off,,,,,13,0,13,,,8,,,81,64
44471,note_off,,,,,16,0,9,,,4,,,81,64
44476,note_off,,,,,106,0,14,,,10,,,74,64
44479,note_off,,,,,114,0,16,,,12,,,47,64
44482,note_on,,,,,3,0,16,,,12,,,43,70
44488,note_off,,,,,92,0,11,,,6,,,71,64
44500,note_on,,,,,34,0,13,,,8,,,78,62
44500,note_off,,,,,116,0,12,,,7,,,47,64
44501,note_on,,,,,30,0,9,,,4,,,78,72
44502,note_off,,,,,117,0,15,,,11,,,71,64
44505,note_off,,,,,117,0,10,,,5,,,74,64
44506,note_off,,,,,6,0,13,,,8,,,79,64
44507,note_on,,,,,7,0,12,,,7,,,43,63
44510,note_off,,,,,9,0,9,,,4,,,79,64
44535,note_on,,,,,29,0,13,,,8,,,79,82
44555,note_off,,,,,20,0,13,,,8,,,78,64
44555,note_on,,,,,45,0,9,,,4,,,79,74
44567,note_off,,,,,12,0,9,,,4,,,78,64
44599,note_off,,,,,44,0,13,,,8,,,79,64
44599,note_off,,,,,117,0,16,,,12,,,43,64
44610,note_off,,,,,43,0,9,,,4,,,79,64
44615,note_on,,,,,16,0,13,,,8,,,81,80
44620,note_off,,,,,113,0,12,,,7,,,43,64
44624,note_on,,,,,148,0,14,,,10,,,74,78
44627,note_on,,,,,17,0,9,,,4,,,81,72
44627,note_on,,,,,28,0,16,,,12,,,42,80
44630,note_on,,,,,125,0,10,,,5,,,74,74
44636,note_on,,,,,134,0,15,,,11,,,69,87
44636,note_on,,,,,16,0,12,,,7,,,42,68
44643,note_on,,,,,155,0,11,,,6,,,69,78
44729,note_on,,,,,114,0,13,,,8,,,79,68
44732,note_off,,,,,3,0,13,,,8,,,81,64
44738,note_off,,,,,111,0,9,,,4,,,81,64
44741,note_on,,,,,3,0,9,,,4,,,79,59
44838,note_off,,,,,106,0,13,,,8,,,79,64
44849,note_off,,,,,108,0,9,,,4,,,79,64
44850,note_on,,,,,12,0,13,,,8,,,78,62
44860,note_on,,,,,11,0,9,,,4,,,78,59
44967,note_on,,,,,117,0,13,,,8,,,79,72
44971,note_off,,,,,4,0,13,,,8,,,78,64
44979,note_on,,,,,0,0,9,,,4,,,76,64
44979,note_off,,,,,119,0,9,,,4,,,78,64
45062,note_off,,,,,91,0,13,,,8,,,79,64
45087,note_off,,,,,108,0,9,,,4,,,76,64
45088,note_on,,,,,26,0,13,,,8,,,81,82
45102,note_on,,,,,15,0,9,,,4,,,74,70
45202,note_off,,,,,114,0,13,,,8,,,81,64
45212,note_on,,,,,0,0,9,,,4,,,73,59
45212,note_off,,,,,110,0,9,,,4,,,74,64
45225,note_off,,,,,598,0,16,,,12,,,42,64
45232,note_off,,,,,596,0,15,,,11,,,69,64
45237,note_off,,,,,594,0,11,,,6,,,69,64
45260,note_off,,,,,636,0,14,,,10,,,74,64
45268,note_off,,,,,638,0,10,,,5,,,74,64
45281,note_off,,,,,645,0,12,,,7,,,42,64
45304,note_off,,,,,92,0,9,,,4,,,73,64
45324,note_on,,,,,122,0,13,,,8,,,71,68
45334,note_on,,,,,102,0,15,,,11,,,62,66
45338,note_on,,,,,78,0,14,,,10,,,67,68
45339,note_on,,,,,114,0,16,,,12,,,43,87
45342,note_on,,,,,38,0,9,,,4,,,71,64
45346,note_on,,,,,78,0,10,,,5,,,67,68
45350,note_on,,,,,69,0,12,,,7,,,43,78
45354,note_on,,,,,117,0,11,,,6,,,62,68
45430,note_off,,,,,106,0,13,,,8,,,71,64
45439,note_off,,,,,89,0,12,,,7,,,43,64
45444,note_off,,,,,102,0,9,,,4,,,71,64
45456,note_off,,,,,102,0,11,,,6,,,62,64
45456,note_off,,,,,117,0,16,,,12,,,43,64
45457,note_off,,,,,123,0,15,,,11,,,62,64
45457,note_off,,,,,111,0,10,,,5,,,67,64
45482,note_off,,,,,144,0,14,,,10,,,67,64
45575,note_on,,,,,119,0,16,,,12,,,40,82
45576,note_on,,,,,119,0,15,,,11,,,67,74
45580,note_on,,,,,123,0,10,,,5,,,71,70
45582,note_on,,,,,100,0,14,,,10,,,71,78
45583,note_on,,,,,153,0,13,,,8,,,76,80
45589,note_on,,,,,150,0,12,,,7,,,40,80
45590,note_on,,,,,146,0,9,,,4,,,76,82
45596,note_on,,,,,140,0,11,,,6,,,67,78
45666,note_off,,,,,76,0,9,,,4,,,76,64
45689,note_off,,,,,106,0,13,,,8,,,76,64
45690,note_off,,,,,110,0,10,,,5,,,71,64
45700,note_off,,,,,125,0,16,,,12,,,40,64
45714,note_off,,,,,125,0,12,,,7,,,40,64
45714,note_off,,,,,132,0,14,,,10,,,71,64
45714,note_off,,,,,118,0,11,,,6,,,67,64
45723,note_off,,,,,147,0,15,,,11,,,67,64
45819,note_on,,,,,129,0,10,,,5,,,69,61
45825,note_on,,,,,111,0,14,,,10,,,69,60
45829,note_on,,,,,106,0,15,,,11,,,66,82
45829,note_on,,,,,163,0,9,,,4,,,74,60
45831,note_on,,,,,131,0,16,,,12,,,45,87
45831,note_on,,,,,117,0,11,,,6,,,66,68
45838,note_on,,,,,124,0,12,,,7,,,45,82
45838,note_on,,,,,149,0,13,,,8,,,74,82
45863,note_on,,,,,34,0,9,,,4,,,73,57
45864,note_on,,,,,33,0,11,,,6,,,64,63
45871,note_on,,,,,42,0,15,,,11,,,64,72
45871,note_off,,,,,8,0,9,,,4,,,74,64
45872,note_off,,,,,8,0,11,,,6,,,66,64
45875,note_off,,,,,4,0,15,,,11,,,66,64
45884,note_on,,,,,46,0,13,,,8,,,73,80
45888,note_off,,,,,4,0,13,,,8,,,74,64
45894,note_on,,,,,23,0,9,,,4,,,74,70
45902,note_on,,,,,27,0,15,,,11,,,66,70
45902,note_off,,,,,8,0,9,,,4,,,73,64
45903,note_on,,,,,31,0,11,,,6,,,66,74
45910,note_off,,,,,8,0,15,,,11,,,64,64
45913,note_off,,,,,10,0,11,,,6,,,64,64
45920,note_on,,,,,32,0,13,,,8,,,74,76
45926,note_off,,,,,95,0,16,,,12,,,45,64
45926,note_off,,,,,6,0,13,,,8,,,73,64
45930,note_off,,,,,92,0,12,,,7,,,45,64
45932,note_off,,,,,113,0,10,,,5,,,69,64
45938,note_on,,,,,28,0,15,,,11,,,64,82
45938,note_on,,,,,36,0,9,,,4,,,73,60
45942,note_on,,,,,29,0,11,,,6,,,64,59
45951,note_off,,,,,13,0,15,,,11,,,66,64
45955,note_on,,,,,29,0,13,,,8,,,73,64
45956,note_off,,,,,131,0,14,,,10,,,69,64
45956,note_off,,,,,18,0,9,,,4,,,74,64
45959,note_off,,,,,17,0,11,,,6,,,66,64
45973,note_off,,,,,18,0,13,,,8,,,74,64
45993,note_off,,,,,37,0,9,,,4,,,73,64
46012,note_off,,,,,39,0,13,,,8,,,73,64
46028,note_off,,,,,77,0,15,,,11,,,64,64
46037,note_off,,,,,78,0,11,,,6,,,64,64
46068,note_on,,,,,136,0,10,,,5,,,69,59
46074,note_on,,,,,62,0,13,,,8,,,74,80
46082,note_on,,,,,54,0,15,,,11,,,66,80
46083,note_on,,,,,90,0,9,,,4,,,74,66
46085,note_on,,,,,129,0,14,,,10,,,69,62
46085,note_on,,,,,48,0,11,,,6,,,66,63
46086,note_on,,,,,156,0,12,,,7,,,38,70
46092,note_on,,,,,166,0,16,,,12,,,38,82
46589,note_off,,,,,497,0,16,,,12,,,38,64
46607,note_off,,,,,524,0,9,,,4,,,74,64
46651,note_off,,,,,565,0,12,,,7,,,38,64
46655,note_off,,,,,570,0,11,,,6,,,66,64
46679,note_off,,,,,611,0,10,,,5,,,69,64
46696,note_off,,,,,614,0,15,,,11,,,66,64
46698,note_off,,,,,624,0,13,,,8,,,74,64
46736,note_off,,,,,651,0,14,,,10,,,69,64
46787,note_on,,,,,34700,0,6,,,10,,,62,52
46792,note_on,,,,,34712,0,7,,,11,,,57,48
46798,note_on,,,,,34704,0,8,,,12,,,50,60
46799,note_on,,,,,34728,0,5,,,8,,,66,58
46800,set_tempo,,,,,46800,1,0,555556,,,,,,
46800,marker,,,,,0,1,0,,,,,,,
46916,note_off,,,,,117,0,5,,,8,,,66,64
46916,note_on,,,,,118,0,8,,,12,,,52,63
46917,note_off,,,,,130,0,6,,,10,,,62,64
46931,note_off,,,,,139,0,7,,,11,,,57,64
46941,note_off,,,,,25,0,8,,,12,,,50,64
47034,note_on,,,,,117,0,6,,,10,,,57,46
47038,note_on,,,,,107,0,7,,,11,,,54,53
47043,note_on,,,,,102,0,8,,,12,,,54,57
47048,note_on,,,,,132,0,5,,,8,,,62,59
47066,note_off,,,,,23,0,8,,,12,,,52,64
47152,note_off,,,,,114,0,7,,,11,,,54,64
47152,note_on,,,,,0,0,7,,,11,,,52,59
47165,note_on,,,,,99,0,8,,,12,,,55,62
47184,note_off,,,,,19,0,8,,,12,,,54,64
47199,note_off,,,,,165,0,6,,,10,,,57,64
47257,note_off,,,,,73,0,8,,,12,,,55,64
47258,note_off,,,,,106,0,7,,,11,,,52,64
47266,note_on,,,,,8,0,7,,,11,,,54,47
47269,note_on,,,,,70,0,6,,,10,,,57,53
47301,note_on,,,,,44,0,8,,,12,,,57,57
47341,note_off,,,,,293,0,5,,,8,,,62,64
47370,note_on,,,,,104,0,7,,,11,,,56,53
47374,note_off,,,,,4,0,7,,,11,,,54,64
47383,note_on,,,,,42,0,5,,,8,,,61,56
47388,note_off,,,,,119,0,6,,,10,,,57,64
47392,note_on,,,,,4,0,6,,,10,,,59,66
47428,note_on,,,,,45,0,5,,,8,,,62,64
47440,note_off,,,,,139,0,8,,,12,,,57,64
47440,note_off,,,,,12,0,5,,,8,,,61,64
47479,note_off,,,,,105,0,7,,,11,,,56,64
47489,note_off,,,,,97,0,6,,,10,,,59,64
47494,note_on,,,,,15,0,7,,,11,,,57,54
47494,note_on,,,,,0,0,5,,,8,,,64,63
47494,note_off,,,,,54,0,5,,,8,,,62,64
47508,note_on,,,,,19,0,6,,,10,,,61,57
47550,note_on,,,,,110,0,8,,,12,,,57,59
47617,note_on,,,,,123,0,5,,,8,,,66,58
47622,note_off,,,,,5,0,5,,,8,,,64,64
47645,note_off,,,,,151,0,7,,,11,,,57,64
47647,note_off,,,,,139,0,6,,,10,,,61,64
47744,note_on,,,,,99,0,7,,,11,,,59,52
47748,note_on,,,,,126,0,5,,,8,,,67,74
47753,note_off,,,,,5,0,5,,,8,,,66,64
47755,note_on,,,,,108,0,6,,,10,,,62,58
47846,note_off,,,,,93,0,5,,,8,,,67,64
47860,note_on,,,,,14,0,5,,,8,,,64,59
47887,note_off,,,,,132,0,6,,,10,,,62,64
47888,note_off,,,,,144,0,7,,,11,,,59,64
47981,note_off,,,,,121,0,5,,,8,,,64,64
47986,note_on,,,,,98,0,7,,,11,,,61,55
47993,note_on,,,,,12,0,5,,,8,,,69,72
47997,note_on,,,,,110,0,6,,,10,,,64,55
48106,note_off,,,,,109,0,6,,,10,,,64,64
48115,note_off,,,,,122,0,5,,,8,,,69,64
48123,note_off,,,,,137,0,7,,,11,,,61,64
48137,note_off,,,,,587,0,8,,,12,,,57,64
48233,note_on,,,,,110,0,7,,,11,,,57,59
48234,note_on,,,,,119,0,5,,,8,,,66,57
48235,note_on,,,,,98,0,8,,,12,,,50,68
48235,note_on,,,,,129,0,6,,,10,,,62,63
48343,note_on,,,,,108,0,8,,,12,,,52,62
48350,note_off,,,,,115,0,6,,,10,,,62,64
48357,note_off,,,,,123,0,5,,,8,,,66,64
48365,note_off,,,,,22,0,8,,,12,,,50,64
48365,note_off,,,,,132,0,7,,,11,,,57,64
48465,note_on,,,,,100,0,8,,,12,,,54,59
48467,note_on,,,,,117,0,6,,,10,,,61,57
48469,note_on,,,,,104,0,7,,,11,,,55,51
48477,note_on,,,,,120,0,5,,,8,,,64,62
48484,note_off,,,,,19,0,8,,,12,,,52,64
48566,note_off,,,,,99,0,6,,,10,,,61,64
48581,note_on,,,,,97,0,8,,,12,,,55,66
48587,note_off,,,,,110,0,5,,,8,,,64,64
48596,note_off,,,,,127,0,7,,,11,,,55,64
48596,note_off,,,,,15,0,8,,,12,,,54,64
48693,note_on,,,,,127,0,6,,,10,,,57,40
48696,note_on,,,,,109,0,5,,,8,,,62,58
48702,note_off,,,,,106,0,8,,,12,,,55,64
48706,note_on,,,,,110,0,7,,,11,,,54,48
48723,note_on,,,,,21,0,8,,,12,,,57,64
48807,note_off,,,,,114,0,6,,,10,,,57,64
48833,note_off,,,,,127,0,7,,,11,,,54,64
48836,note_off,,,,,140,0,5,,,8,,,62,64
48867,note_off,,,,,144,0,8,,,12,,,57,64
48940,note_on,,,,,104,0,5,,,8,,,61,58
48948,note_on,,,,,141,0,6,,,10,,,57,48
48951,note_on,,,,,118,0,7,,,11,,,52,48
48972,note_on,,,,,105,0,8,,,12,,,57,58
49051,note_on,,,,,111,0,5,,,8,,,62,66
49056,note_off,,,,,5,0,5,,,8,,,61,64
49145,note_off,,,,,89,0,5,,,8,,,62,64
49172,note_on,,,,,27,0,5,,,8,,,64,47
49316,note_off,,,,,144,0,5,,,8,,,64,64
49419,note_on,,,,,103,0,5,,,8,,,57,47
49542,note_off,,,,,570,0,8,,,12,,,57,64
49544,note_off,,,,,593,0,7,,,11,,,52,64
49555,note_off,,,,,607,0,6,,,10,,,57,64
49563,note_off,,,,,144,0,5,,,8,,,57,64
49649,note_on,,,,,105,0,7,,,11,,,55,59
49664,note_on,,,,,109,0,6,,,10,,,64,57
49664,note_on,,,,,122,0,8,,,12,,,55,76
49669,note_on,,,,,106,0,5,,,8,,,71,64
49776,note_on,,,,,112,0,8,,,12,,,54,59
49783,note_on,,,,,114,0,5,,,8,,,73,57
49789,note_off,,,,,13,0,8,,,12,,,55,64
49794,note_off,,,,,130,0,6,,,10,,,64,64
49797,note_off,,,,,148,0,7,,,11,,,55,64
49798,note_off,,,,,15,0,5,,,8,,,71,64
49868,note_off,,,,,79,0,8,,,12,,,54,64
49898,note_on,,,,,100,0,5,,,8,,,74,60
49906,note_on,,,,,38,0,8,,,12,,,54,61
49910,note_off,,,,,12,0,5,,,8,,,73,64
49911,note_on,,,,,114,0,7,,,11,,,57,52
49918,note_on,,,,,124,0,6,,,10,,,64,58
49967,note_on,,,,,57,0,5,,,8,,,73,51
49973,note_off,,,,,6,0,5,,,8,,,74,64
50008,note_on,,,,,35,0,5,,,8,,,74,64
50012,note_off,,,,,4,0,5,,,8,,,73,64
50017,note_on,,,,,111,0,8,,,12,,,52,60
50042,note_off,,,,,25,0,8,,,12,,,54,64
50055,note_on,,,,,43,0,5,,,8,,,73,52
50059,note_off,,,,,4,0,5,,,8,,,74,64
50085,note_off,,,,,43,0,8,,,12,,,52,64
50093,note_on,,,,,34,0,5,,,8,,,74,59
50098,note_off,,,,,5,0,5,,,8,,,73,64
50122,note_on,,,,,24,0,5,,,8,,,73,45
50132,note_off,,,,,10,0,5,,,8,,,74,64
50138,note_on,,,,,53,0,8,,,12,,,52,58
50152,note_on,,,,,20,0,5,,,8,,,74,66
50156,note_off,,,,,4,0,5,,,8,,,73,64
50186,note_on,,,,,30,0,5,,,8,,,73,58
50189,note_off,,,,,3,0,5,,,8,,,74,64
50218,note_off,,,,,29,0,5,,,8,,,73,64
50220,note_on,,,,,2,0,5,,,8,,,74,60
50251,note_on,,,,,31,0,5,,,8,,,73,54
50253,note_off,,,,,342,0,7,,,11,,,57,64
50257,note_on,,,,,119,0,8,,,12,,,54,63
50268,note_off,,,,,17,0,5,,,8,,,74,64
50274,note_off,,,,,17,0,8,,,12,,,52,64
50279,note_on,,,,,11,0,5,,,8,,,71,61
50294,note_off,,,,,15,0,5,,,8,,,73,64
50331,note_on,,,,,37,0,5,,,8,,,73,58
50337,note_off,,,,,63,0,8,,,12,,,54,64
50345,note_off,,,,,427,0,6,,,10,,,64,64
50353,note_off,,,,,22,0,5,,,8,,,71,64
50380,note_on,,,,,43,0,8,,,12,,,54,62
50386,note_on,,,,,133,0,7,,,11,,,57,58
50387,note_on,,,,,34,0,5,,,8,,,74,57
50392,note_on,,,,,47,0,6,,,10,,,66,59
50398,note_off,,,,,11,0,5,,,8,,,73,64
50493,note_on,,,,,113,0,8,,,12,,,56,62
50527,note_off,,,,,34,0,8,,,12,,,54,64
50542,note_off,,,,,156,0,7,,,11,,,57,64
50544,note_off,,,,,152,0,6,,,10,,,66,64
50572,note_off,,,,,45,0,8,,,12,,,56,64
50579,note_off,,,,,181,0,5,,,8,,,74,64
50614,note_on,,,,,42,0,8,,,12,,,56,66
50628,note_on,,,,,86,0,7,,,11,,,64,62
50630,note_on,,,,,51,0,5,,,8,,,73,57
50642,note_on,,,,,98,0,6,,,10,,,64,56
50720,note_on,,,,,106,0,8,,,12,,,57,76
50739,note_on,,,,,109,0,5,,,8,,,71,66
50748,note_off,,,,,28,0,8,,,12,,,56,64
50752,note_off,,,,,124,0,7,,,11,,,64,64
50764,note_off,,,,,25,0,5,,,8,,,73,64
50768,note_off,,,,,126,0,6,,,10,,,64,64
50787,note_off,,,,,39,0,8,,,12,,,57,64
50843,note_on,,,,,56,0,8,,,12,,,59,70
50862,note_on,,,,,110,0,7,,,11,,,57,48
50864,note_off,,,,,100,0,5,,,8,,,71,64
50869,note_on,,,,,101,0,6,,,10,,,62,52
50871,note_on,,,,,7,0,5,,,8,,,73,50
50884,note_on,,,,,41,0,8,,,12,,,57,70
50892,note_off,,,,,8,0,8,,,12,,,59,64
50919,note_off,,,,,27,0,8,,,12,,,57,64
50921,note_on,,,,,2,0,8,,,12,,,59,64
50963,note_on,,,,,42,0,8,,,12,,,57,68
50974,note_off,,,,,11,0,8,,,12,,,59,64
50984,note_on,,,,,113,0,5,,,8,,,74,80
50993,note_off,,,,,9,0,5,,,8,,,73,64
51006,note_off,,,,,144,0,7,,,11,,,57,64
51014,note_off,,,,,145,0,6,,,10,,,62,64
51028,note_off,,,,,54,0,8,,,12,,,57,64
51084,note_off,,,,,91,0,5,,,8,,,74,64
51105,note_on,,,,,99,0,7,,,11,,,61,57
51111,note_on,,,,,97,0,6,,,10,,,69,63
51116,note_on,,,,,32,0,5,,,8,,,76,59
51120,note_on,,,,,92,0,8,,,12,,,49,56
51221,note_off,,,,,116,0,7,,,11,,,61,64
51229,note_off,,,,,113,0,5,,,8,,,76,64
51233,note_on,,,,,113,0,8,,,12,,,47,68
51234,note_off,,,,,123,0,6,,,10,,,69,64
51259,note_off,,,,,26,0,8,,,12,,,49,64
51313,note_off,,,,,54,0,8,,,12,,,47,64
51343,note_on,,,,,30,0,8,,,12,,,49,64
51345,note_on,,,,,116,0,5,,,8,,,69,59
51348,note_on,,,,,114,0,6,,,10,,,64,59
51350,note_on,,,,,129,0,7,,,11,,,61,52
51461,note_on,,,,,118,0,8,,,12,,,50,78
51462,note_off,,,,,114,0,6,,,10,,,64,64
51469,note_off,,,,,124,0,5,,,8,,,69,64
51479,note_off,,,,,18,0,8,,,12,,,49,64
51482,note_off,,,,,132,0,7,,,11,,,61,64
51540,note_off,,,,,61,0,8,,,12,,,50,64
51583,note_on,,,,,101,0,7,,,11,,,59,53
51584,note_on,,,,,44,0,8,,,12,,,52,68
51584,note_on,,,,,122,0,6,,,10,,,64,53
51591,note_on,,,,,122,0,5,,,8,,,68,55
51704,note_off,,,,,113,0,5,,,8,,,68,64
51705,note_off,,,,,121,0,6,,,10,,,64,64
51714,note_off,,,,,131,0,7,,,11,,,59,64
51715,note_off,,,,,131,0,8,,,12,,,52,64
51827,note_on,,,,,123,0,5,,,8,,,69,57
51831,note_on,,,,,116,0,8,,,12,,,45,54
51834,note_on,,,,,120,0,7,,,11,,,61,46
51837,note_on,,,,,132,0,6,,,10,,,64,53
52166,note_off,,,,,339,0,5,,,8,,,69,64
52197,note_on,,,,,31,0,5,,,8,,,67,59
52297,note_off,,,,,100,0,5,,,8,,,67,64
52323,note_on,,,,,26,0,5,,,8,,,66,43
52422,note_off,,,,,99,0,5,,,8,,,66,64
52423,note_off,,,,,589,0,7,,,11,,,61,64
52431,note_off,,,,,600,0,8,,,12,,,45,64
52431,note_on,,,,,9,0,5,,,8,,,64,47
52444,note_off,,,,,607,0,6,,,10,,,64,64
52528,note_off,,,,,97,0,5,,,8,,,64,64
52539,note_on,,,,,95,0,6,,,10,,,62,57
52554,note_on,,,,,123,0,8,,,12,,,50,63
52560,note_on,,,,,32,0,5,,,8,,,66,47
52560,note_on,,,,,137,0,7,,,11,,,57,52
52664,note_off,,,,,125,0,6,,,10,,,62,64
52668,note_on,,,,,114,0,8,,,12,,,52,66
52685,note_off,,,,,17,0,8,,,12,,,50,64
52692,note_off,,,,,132,0,5,,,8,,,66,64
52711,note_off,,,,,151,0,7,,,11,,,57,64
52793,note_on,,,,,82,0,7,,,11,,,54,44
52793,note_on,,,,,108,0,8,,,12,,,54,60
52803,note_on,,,,,139,0,6,,,10,,,57,48
52812,note_off,,,,,19,0,8,,,12,,,52,64
52816,note_on,,,,,124,0,5,,,8,,,62,59
52904,note_on,,,,,92,0,8,,,12,,,55,64
52905,note_on,,,,,112,0,7,,,11,,,52,58
52915,note_off,,,,,10,0,7,,,11,,,54,64
52922,note_off,,,,,18,0,8,,,12,,,54,64
52970,note_off,,,,,167,0,6,,,10,,,57,64
53013,note_off,,,,,98,0,7,,,11,,,52,64
53025,note_off,,,,,103,0,8,,,12,,,55,64
53026,note_on,,,,,13,0,7,,,11,,,54,46
53033,note_on,,,,,63,0,6,,,10,,,57,58
53038,note_on,,,,,13,0,8,,,12,,,57,57
53097,note_off,,,,,281,0,5,,,8,,,62,64
53124,note_on,,,,,27,0,5,,,8,,,61,52
53138,note_off,,,,,105,0,6,,,10,,,57,64
53141,note_on,,,,,115,0,7,,,11,,,56,57
53142,note_off,,,,,1,0,7,,,11,,,54,64
53143,note_on,,,,,5,0,6,,,10,,,59,64
53169,note_off,,,,,131,0,8,,,12,,,57,64
53178,note_on,,,,,54,0,5,,,8,,,62,66
53181,note_off,,,,,3,0,5,,,8,,,61,64
53233,note_off,,,,,90,0,6,,,10,,,59,64
53248,note_off,,,,,106,0,7,,,11,,,56,64
53255,note_on,,,,,74,0,5,,,8,,,64,57
53257,note_off,,,,,2,0,5,,,8,,,62,64
53261,note_on,,,,,28,0,6,,,10,,,61,57
53267,note_on,,,,,19,0,7,,,11,,,57,59
53276,note_on,,,,,107,0,8,,,12,,,57,58
53378,note_on,,,,,121,0,5,,,8,,,66,55
53384,note_off,,,,,6,0,5,,,8,,,64,64
53406,note_off,,,,,145,0,6,,,10,,,61,64
53410,note_off,,,,,143,0,7,,,11,,,57,64
53502,note_on,,,,,96,0,6,,,10,,,62,53
53506,note_on,,,,,122,0,5,,,8,,,67,58
53517,note_off,,,,,11,0,5,,,8,,,66,64
53522,note_on,,,,,112,0,7,,,11,,,59,53
53623,note_on,,,,,106,0,5,,,8,,,64,59
53624,note_off,,,,,1,0,5,,,8,,,67,64
53649,note_off,,,,,147,0,6,,,10,,,62,64
53655,note_off,,,,,133,0,7,,,11,,,59,64
53742,note_on,,,,,93,0,6,,,10,,,64,54
53743,note_off,,,,,119,0,5,,,8,,,64,64
53756,note_on,,,,,101,0,7,,,11,,,61,57
53758,note_on,,,,,15,0,5,,,8,,,69,58
53874,note_off,,,,,132,0,6,,,10,,,64,64
53880,note_off,,,,,122,0,5,,,8,,,69,64
53882,note_off,,,,,126,0,7,,,11,,,61,64
53891,note_off,,,,,615,0,8,,,12,,,57,64
53983,note_on,,,,,109,0,6,,,10,,,62,58
53987,note_on,,,,,107,0,5,,,8,,,66,52
53994,note_on,,,,,112,0,7,,,11,,,57,55
54000,note_on,,,,,109,0,8,,,12,,,50,66
54112,note_on,,,,,112,0,8,,,12,,,52,64
54127,note_off,,,,,144,0,6,,,10,,,62,64
54128,note_off,,,,,16,0,8,,,12,,,50,64
54139,note_off,,,,,152,0,5,,,8,,,66,64
54144,note_off,,,,,150,0,7,,,11,,,57,64
54221,note_on,,,,,94,0,6,,,10,,,61,52
54232,note_on,,,,,104,0,8,,,12,,,54,60
54233,note_on,,,,,94,0,5,,,8,,,64,48
54241,note_on,,,,,97,0,7,,,11,,,55,51
54251,note_off,,,,,19,0,8,,,12,,,52,64
54349,note_on,,,,,98,0,8,,,12,,,55,70
54359,note_off,,,,,138,0,6,,,10,,,61,64
54364,note_off,,,,,123,0,7,,,11,,,55,64
54367,note_off,,,,,134,0,5,,,8,,,64,64
54369,note_off,,,,,20,0,8,,,12,,,54,64
54460,note_on,,,,,93,0,5,,,8,,,62,55
54473,note_off,,,,,104,0,8,,,12,,,55,64
54473,note_on,,,,,109,0,7,,,11,,,54,52
54474,note_on,,,,,115,0,6,,,10,,,57,46
54478,note_on,,,,,5,0,8,,,12,,,57,63
54599,note_off,,,,,125,0,6,,,10,,,57,64
54600,note_off,,,,,140,0,5,,,8,,,62,64
54607,note_off,,,,,134,0,7,,,11,,,54,64
54621,note_off,,,,,143,0,8,,,12,,,57,64
54700,note_on,,,,,100,0,5,,,8,,,61,56
54718,note_on,,,,,111,0,7,,,11,,,52,45
54721,note_on,,,,,122,0,6,,,10,,,57,47
54727,note_on,,,,,106,0,8,,,12,,,57,53
54814,note_on,,,,,114,0,5,,,8,,,62,66
54829,note_off,,,,,15,0,5,,,8,,,61,64
54924,note_off,,,,,95,0,5,,,8,,,62,64
54950,note_on,,,,,26,0,5,,,8,,,64,57
55049,note_off,,,,,99,0,5,,,8,,,64,64
55186,note_on,,,,,137,0,5,,,8,,,57,48
55300,note_off,,,,,114,0,5,,,8,,,57,64
55308,note_off,,,,,587,0,6,,,10,,,57,64
55311,note_off,,,,,593,0,7,,,11,,,52,64
55321,note_off,,,,,594,0,8,,,12,,,57,64
55419,note_on,,,,,111,0,6,,,10,,,64,58
55424,note_on,,,,,113,0,7,,,11,,,55,53
55428,note_on,,,,,107,0,8,,,12,,,55,66
55441,note_on,,,,,141,0,5,,,8,,,71,53
55542,note_on,,,,,114,0,8,,,12,,,54,62
55555,note_on,,,,,114,0,5,,,8,,,73,55
55559,note_off,,,,,17,0,8,,,12,,,55,64
55568,note_off,,,,,13,0,5,,,8,,,71,64
55570,note_off,,,,,146,0,7,,,11,,,55,64
55572,note_off,,,,,153,0,6,,,10,,,64,64
55629,note_off,,,,,70,0,8,,,12,,,54,64
55663,note_on,,,,,34,0,8,,,12,,,54,64
55667,note_on,,,,,95,0,6,,,10,,,64,54
55669,note_on,,,,,101,0,5,,,8,,,74,58
55674,note_on,,,,,104,0,7,,,11,,,57,57
55685,note_off,,,,,16,0,5,,,8,,,73,64
55756,note_on,,,,,71,0,5,,,8,,,73,49
55768,note_off,,,,,12,0,5,,,8,,,74,64
55782,note_on,,,,,119,0,8,,,12,,,52,68
55800,note_on,,,,,32,0,5,,,8,,,74,59
55803,note_off,,,,,21,0,8,,,12,,,54,64
55805,note_off,,,,,5,0,5,,,8,,,73,64
55844,note_on,,,,,39,0,5,,,8,,,73,52
55848,note_off,,,,,4,0,5,,,8,,,74,64
55859,note_off,,,,,56,0,8,,,12,,,52,64
55875,note_on,,,,,0,0,5,,,8,,,74,62
55875,note_off,,,,,27,0,5,,,8,,,73,64
55904,note_on,,,,,45,0,8,,,12,,,52,63
55908,note_on,,,,,33,0,5,,,8,,,73,58
55909,note_off,,,,,1,0,5,,,8,,,74,64
55940,note_off,,,,,31,0,5,,,8,,,73,64
55941,note_on,,,,,1,0,5,,,8,,,74,60
55973,note_on,,,,,32,0,5,,,8,,,73,57
55988,note_off,,,,,15,0,5,,,8,,,74,64
56013,note_on,,,,,25,0,5,,,8,,,71,60
56024,note_on,,,,,120,0,8,,,12,,,54,66
56027,note_off,,,,,14,0,5,,,8,,,73,64
56030,note_off,,,,,356,0,7,,,11,,,57,64
56046,note_off,,,,,22,0,8,,,12,,,52,64
56070,note_on,,,,,43,0,5,,,8,,,73,52
56083,note_off,,,,,416,0,6,,,10,,,64,64
56096,note_off,,,,,26,0,5,,,8,,,71,64
56098,note_off,,,,,52,0,8,,,12,,,54,64
56129,note_on,,,,,33,0,5,,,8,,,74,52
56135,note_on,,,,,105,0,7,,,11,,,57,60
56140,note_off,,,,,11,0,5,,,8,,,73,64
56146,note_on,,,,,63,0,6,,,10,,,66,53
56149,note_on,,,,,51,0,8,,,12,,,54,70
56256,note_on,,,,,107,0,8,,,12,,,56,63
56273,note_off,,,,,17,0,8,,,12,,,54,64
56278,note_off,,,,,143,0,7,,,11,,,57,64
56312,note_off,,,,,166,0,6,,,10,,,66,64
56322,note_off,,,,,182,0,5,,,8,,,74,64
56348,note_off,,,,,75,0,8,,,12,,,56,64
56385,note_on,,,,,63,0,5,,,8,,,73,52
56386,note_on,,,,,74,0,6,,,10,,,64,41
56390,note_on,,,,,42,0,8,,,12,,,56,66
56395,note_on,,,,,117,0,7,,,11,,,64,70
56495,note_on,,,,,105,0,8,,,12,,,57,80
56496,note_on,,,,,111,0,5,,,8,,,71,76
56507,note_off,,,,,11,0,5,,,8,,,73,64
56508,note_off,,,,,113,0,7,,,11,,,64,64
56517,note_off,,,,,131,0,6,,,10,,,64,64
56523,note_off,,,,,28,0,8,,,12,,,56,64
56569,note_off,,,,,46,0,8,,,12,,,57,64
56619,note_on,,,,,50,0,8,,,12,,,59,85
56623,note_on,,,,,106,0,6,,,10,,,62,47
56626,note_on,,,,,119,0,5,,,8,,,73,61
56628,note_off,,,,,2,0,5,,,8,,,71,64
56630,note_on,,,,,122,0,7,,,11,,,57,57
56656,note_on,,,,,37,0,8,,,12,,,57,63
56662,note_off,,,,,6,0,8,,,12,,,59,64
56688,note_off,,,,,26,0,8,,,12,,,57,64
56688,note_on,,,,,0,0,8,,,12,,,59,66
56729,note_on,,,,,41,0,8,,,12,,,57,72
56730,note_on,,,,,102,0,5,,,8,,,74,80
56739,note_off,,,,,10,0,8,,,12,,,59,64
56739,note_off,,,,,9,0,5,,,8,,,73,64
56746,note_off,,,,,123,0,6,,,10,,,62,64
56754,note_off,,,,,124,0,7,,,11,,,57,64
56806,note_off,,,,,67,0,8,,,12,,,57,64
56829,note_off,,,,,90,0,5,,,8,,,74,64
56853,note_on,,,,,24,0,5,,,8,,,76,62
56872,note_on,,,,,118,0,7,,,11,,,61,59
56872,note_on,,,,,126,0,6,,,10,,,69,61
56882,note_on,,,,,76,0,8,,,12,,,49,70
56968,note_off,,,,,115,0,5,,,8,,,76,64
56973,note_on,,,,,91,0,8,,,12,,,47,61
56993,note_off,,,,,20,0,8,,,12,,,49,64
56998,note_off,,,,,126,0,6,,,10,,,69,64
57003,note_off,,,,,131,0,7,,,11,,,61,64
57070,note_off,,,,,77,0,8,,,12,,,47,64
57096,note_on,,,,,26,0,8,,,12,,,49,68
57099,note_on,,,,,131,0,5,,,8,,,69,62
57113,note_on,,,,,110,0,7,,,11,,,61,61
57113,note_on,,,,,115,0,6,,,10,,,64,51
57213,note_on,,,,,117,0,8,,,12,,,50,80
57215,note_off,,,,,102,0,7,,,11,,,61,64
57223,note_off,,,,,124,0,5,,,8,,,69,64
57228,note_off,,,,,115,0,6,,,10,,,64,64
57231,note_off,,,,,18,0,8,,,12,,,49,64
57309,note_off,,,,,78,0,8,,,12,,,50,64
57345,note_on,,,,,117,0,6,,,10,,,64,47
57345,note_on,,,,,36,0,8,,,12,,,52,74
57354,note_on,,,,,131,0,5,,,8,,,68,58
57366,note_on,,,,,151,0,7,,,11,,,59,55
57465,note_off,,,,,120,0,6,,,10,,,64,64
57467,note_off,,,,,113,0,5,,,8,,,68,64
57486,note_off,,,,,141,0,8,,,12,,,52,64
57493,note_off,,,,,127,0,7,,,11,,,59,64
57595,note_on,,,,,130,0,6,,,10,,,64,52
57599,note_on,,,,,113,0,8,,,12,,,45,53
57603,note_on,,,,,110,0,7,,,11,,,61,59
57611,note_on,,,,,144,0,5,,,8,,,69,55
58139,note_off,,,,,528,0,5,,,8,,,69,64
58162,note_off,,,,,567,0,6,,,10,,,64,64
58171,note_off,,,,,568,0,7,,,11,,,61,64
58180,note_off,,,,,581,0,8,,,12,,,45,64
58297,note_on,,,,,11561,0,14,,,10,,,73,45
58300,note_on,,,,,11711,0,16,,,12,,,57,48
58312,note_on,,,,,11616,0,15,,,11,,,69,56
58325,note_on,,,,,11627,0,13,,,8,,,76,57
58445,note_off,,,,,133,0,15,,,11,,,69,64
58494,note_off,,,,,194,0,16,,,12,,,57,64
58496,note_off,,,,,199,0,14,,,10,,,73,64
58545,note_on,,,,,100,0,15,,,11,,,64,48
58548,note_on,,,,,52,0,14,,,10,,,74,63
58561,note_on,,,,,67,0,16,,,12,,,59,60
58664,note_off,,,,,116,0,14,,,10,,,74,64
58667,note_on,,,,,3,0,14,,,10,,,73,54
58671,note_off,,,,,126,0,15,,,11,,,64,64
58676,note_on,,,,,115,0,16,,,12,,,57,66
58681,note_off,,,,,5,0,16,,,12,,,59,64
58773,note_off,,,,,106,0,14,,,10,,,73,64
58778,note_off,,,,,97,0,16,,,12,,,57,64
58780,note_on,,,,,109,0,15,,,11,,,67,51
58781,note_on,,,,,8,0,14,,,10,,,71,53
58786,note_on,,,,,8,0,16,,,12,,,55,60
58887,note_off,,,,,101,0,16,,,12,,,55,64
58890,note_off,,,,,109,0,14,,,10,,,71,64
58895,note_on,,,,,8,0,16,,,12,,,57,57
58895,note_on,,,,,5,0,14,,,10,,,73,52
58903,note_off,,,,,123,0,15,,,11,,,67,64
59010,note_off,,,,,115,0,16,,,12,,,57,64
59015,note_off,,,,,120,0,14,,,10,,,73,64
59025,note_on,,,,,122,0,15,,,11,,,61,50
59030,note_on,,,,,20,0,16,,,12,,,54,47
59036,note_on,,,,,21,0,14,,,10,,,70,29
59110,note_off,,,,,785,0,13,,,8,,,76,64
59118,note_on,,,,,8,0,13,,,8,,,79,74
59166,note_off,,,,,141,0,15,,,11,,,61,64
59249,note_off,,,,,131,0,13,,,8,,,79,64
59249,note_on,,,,,0,0,13,,,8,,,78,60
59257,note_on,,,,,91,0,15,,,11,,,62,55
59365,note_on,,,,,116,0,13,,,8,,,76,72
59373,note_off,,,,,8,0,13,,,8,,,78,64
59377,note_off,,,,,120,0,15,,,11,,,62,64
59481,note_off,,,,,108,0,13,,,8,,,76,64
59487,note_on,,,,,6,0,13,,,8,,,74,70
59503,note_on,,,,,126,0,15,,,11,,,64,51
59590,note_on,,,,,103,0,13,,,8,,,73,52
59603,note_off,,,,,13,0,13,,,8,,,74,64
59616,note_off,,,,,113,0,15,,,11,,,64,64
59667,note_off,,,,,637,0,16,,,12,,,54,64
59674,note_off,,,,,638,0,14,,,10,,,70,64
59715,note_off,,,,,112,0,13,,,8,,,73,64
59731,note_on,,,,,115,0,15,,,11,,,62,66
59731,note_on,,,,,16,0,13,,,8,,,71,55
59739,note_on,,,,,65,0,14,,,10,,,71,66
59748,note_on,,,,,81,0,16,,,12,,,55,72
59847,note_off,,,,,116,0,13,,,8,,,71,64
59860,note_on,,,,,112,0,16,,,12,,,54,61
59863,note_off,,,,,132,0,15,,,11,,,62,64
59865,note_off,,,,,5,0,16,,,12,,,55,64
59867,note_off,,,,,128,0,14,,,10,,,71,64
59978,note_on,,,,,131,0,13,,,8,,,82,58
59984,note_on,,,,,117,0,14,,,10,,,73,48
59984,note_on,,,,,119,0,16,,,12,,,52,58
59987,note_on,,,,,124,0,15,,,11,,,64,62
59989,note_off,,,,,5,0,16,,,12,,,54,64
60095,note_off,,,,,106,0,16,,,12,,,52,64
60098,note_on,,,,,3,0,16,,,12,,,50,61
60117,note_off,,,,,130,0,15,,,11,,,64,64
60121,note_off,,,,,143,0,13,,,8,,,82,64
60129,note_off,,,,,145,0,14,,,10,,,73,64
60203,note_off,,,,,105,0,16,,,12,,,50,64
60217,note_on,,,,,14,0,16,,,12,,,49,52
60221,note_on,,,,,92,0,14,,,10,,,74,57
60234,note_on,,,,,113,0,13,,,8,,,83,66
60240,note_on,,,,,123,0,15,,,11,,,66,57
60323,note_off,,,,,106,0,16,,,12,,,49,64
60327,note_on,,,,,4,0,16,,,12,,,47,66
60347,note_off,,,,,107,0,15,,,11,,,66,64
60368,note_off,,,,,147,0,14,,,10,,,74,64
60378,note_off,,,,,144,0,13,,,8,,,83,64
60441,note_off,,,,,114,0,16,,,12,,,47,64
60457,note_on,,,,,79,0,13,,,8,,,85,57
60460,note_on,,,,,19,0,16,,,12,,,46,59
60470,note_on,,,,,102,0,14,,,10,,,73,30
60476,note_on,,,,,129,0,15,,,11,,,66,68
60575,note_on,,,,,115,0,16,,,12,,,47,66
60585,note_on,,,,,109,0,15,,,11,,,68,62
60591,note_off,,,,,16,0,16,,,12,,,46,64
60606,note_off,,,,,21,0,15,,,11,,,66,64
60639,note_off,,,,,182,0,13,,,8,,,85,64
60640,note_off,,,,,170,0,14,,,10,,,73,64
60680,note_off,,,,,89,0,16,,,12,,,47,64
60698,note_off,,,,,92,0,15,,,11,,,68,64
60703,note_on,,,,,23,0,16,,,12,,,49,62
60708,note_on,,,,,10,0,15,,,11,,,70,64
60714,note_on,,,,,74,0,14,,,10,,,73,57
60717,note_on,,,,,78,0,13,,,8,,,76,66
60816,note_off,,,,,113,0,16,,,12,,,49,64
60822,note_off,,,,,105,0,13,,,8,,,76,64
60822,note_on,,,,,0,0,13,,,8,,,74,58
60825,note_on,,,,,111,0,14,,,10,,,71,64
60831,note_off,,,,,6,0,14,,,10,,,73,64
60846,note_off,,,,,138,0,15,,,11,,,70,64
60921,note_off,,,,,99,0,13,,,8,,,74,64
60940,note_on,,,,,109,0,14,,,10,,,73,52
60943,note_off,,,,,3,0,14,,,10,,,71,64
60943,note_on,,,,,97,0,15,,,11,,,66,60
60946,note_on,,,,,25,0,13,,,8,,,76,51
60954,note_on,,,,,138,0,16,,,12,,,42,57
61045,note_off,,,,,99,0,13,,,8,,,76,64
61051,note_off,,,,,108,0,14,,,10,,,73,64
61054,note_on,,,,,9,0,13,,,8,,,73,42
61059,note_on,,,,,8,0,14,,,10,,,70,55
61069,note_off,,,,,126,0,15,,,11,,,66,64
61073,note_off,,,,,119,0,16,,,12,,,42,64
61154,note_off,,,,,95,0,14,,,10,,,70,64
61159,note_off,,,,,105,0,13,,,8,,,73,64
61172,note_on,,,,,18,0,14,,,10,,,71,52
61180,note_on,,,,,107,0,16,,,12,,,47,60
61182,note_on,,,,,23,0,13,,,8,,,74,70
61192,note_on,,,,,123,0,15,,,11,,,66,63
61287,note_on,,,,,105,0,13,,,8,,,76,66
61295,note_on,,,,,115,0,16,,,12,,,49,58
61299,note_on,,,,,107,0,15,,,11,,,64,62
61302,note_off,,,,,15,0,13,,,8,,,74,64
61311,note_off,,,,,16,0,16,,,12,,,47,64
61312,note_off,,,,,13,0,15,,,11,,,66,64
61322,note_off,,,,,150,0,14,,,10,,,71,64
61360,note_off,,,,,49,0,16,,,12,,,49,64
61410,note_off,,,,,108,0,13,,,8,,,76,64
61410,note_off,,,,,98,0,15,,,11,,,64,64
61413,note_on,,,,,53,0,16,,,12,,,50,64
61416,note_on,,,,,6,0,13,,,8,,,78,60
61420,note_on,,,,,10,0,15,,,11,,,62,62
61430,note_on,,,,,108,0,14,,,10,,,71,53
61526,note_off,,,,,106,0,15,,,11,,,62,64
61530,note_on,,,,,4,0,15,,,11,,,61,55
61531,note_on,,,,,118,0,16,,,12,,,52,70
61535,note_off,,,,,4,0,16,,,12,,,50,64
61537,note_off,,,,,121,0,13,,,8,,,78,64
61562,note_off,,,,,132,0,14,,,10,,,71,64
61617,note_off,,,,,82,0,16,,,12,,,52,64
61640,note_off,,,,,110,0,15,,,11,,,61,64
61646,note_on,,,,,109,0,13,,,8,,,71,56
61653,note_on,,,,,36,0,16,,,12,,,54,60
61661,note_on,,,,,99,0,14,,,10,,,66,36
61665,note_on,,,,,25,0,15,,,11,,,62,64
61770,note_off,,,,,105,0,15,,,11,,,62,64
61777,note_off,,,,,124,0,16,,,12,,,54,64
61788,note_off,,,,,142,0,13,,,8,,,71,64
61802,note_off,,,,,141,0,14,,,10,,,66,64
61899,note_on,,,,,129,0,15,,,11,,,61,62
61906,note_on,,,,,118,0,13,,,8,,,70,50
61908,note_on,,,,,131,0,16,,,12,,,54,57
61909,note_on,,,,,107,0,14,,,10,,,66,34
62022,note_on,,,,,116,0,13,,,8,,,73,53
62026,note_off,,,,,4,0,13,,,8,,,70,64
62068,note_off,,,,,159,0,14,,,10,,,66,64
62134,note_off,,,,,108,0,13,,,8,,,73,64
62140,note_on,,,,,6,0,13,,,8,,,76,74
62156,note_on,,,,,88,0,14,,,10,,,70,52
62239,note_off,,,,,99,0,13,,,8,,,76,64
62254,note_on,,,,,15,0,13,,,8,,,73,52
62268,note_off,,,,,112,0,14,,,10,,,70,64
62290,note_off,,,,,391,0,15,,,11,,,61,64
62349,note_off,,,,,95,0,13,,,8,,,73,64
62376,note_on,,,,,27,0,13,,,8,,,74,58
62384,note_on,,,,,94,0,15,,,11,,,59,68
62395,note_on,,,,,127,0,14,,,10,,,71,57
62481,note_off,,,,,105,0,13,,,8,,,74,64
62490,note_on,,,,,106,0,15,,,11,,,61,72
62491,note_off,,,,,583,0,16,,,12,,,54,64
62493,note_on,,,,,12,0,13,,,8,,,71,56
62500,note_off,,,,,10,0,15,,,11,,,59,64
62584,note_off,,,,,84,0,15,,,11,,,61,64
62586,note_off,,,,,93,0,13,,,8,,,71,64
62617,note_on,,,,,31,0,13,,,8,,,66,57
62621,note_on,,,,,37,0,15,,,11,,,62,66
62626,note_on,,,,,135,0,16,,,12,,,50,70
62734,note_off,,,,,108,0,16,,,12,,,50,64
62738,note_on,,,,,4,0,16,,,12,,,49,63
62739,note_off,,,,,118,0,15,,,11,,,62,64
62745,note_off,,,,,350,0,14,,,10,,,71,64
62766,note_off,,,,,149,0,13,,,8,,,66,64
62826,note_off,,,,,88,0,16,,,12,,,49,64
62855,note_on,,,,,89,0,13,,,8,,,64,64
62865,note_on,,,,,120,0,14,,,10,,,59,54
62866,note_on,,,,,40,0,16,,,12,,,50,68
62869,note_on,,,,,130,0,15,,,11,,,54,53
62958,note_off,,,,,103,0,13,,,8,,,64,64
62960,note_on,,,,,2,0,13,,,8,,,62,64
62967,note_on,,,,,101,0,16,,,12,,,52,66
62977,note_off,,,,,10,0,16,,,12,,,50,64
62987,note_off,,,,,118,0,15,,,11,,,54,64
63005,note_off,,,,,140,0,14,,,10,,,59,64
63052,note_off,,,,,75,0,16,,,12,,,52,64
63067,note_off,,,,,107,0,13,,,8,,,62,64
63077,note_on,,,,,10,0,13,,,8,,,61,58
63094,note_on,,,,,42,0,16,,,12,,,54,62
63106,note_on,,,,,101,0,14,,,10,,,58,47
63115,note_on,,,,,128,0,15,,,11,,,54,57
63191,note_off,,,,,114,0,13,,,8,,,61,64
63195,note_on,,,,,4,0,13,,,8,,,62,66
63205,note_off,,,,,111,0,16,,,12,,,54,64
63214,note_off,,,,,108,0,14,,,10,,,58,64
63230,note_off,,,,,115,0,15,,,11,,,54,64
63295,note_off,,,,,100,0,13,,,8,,,62,64
63334,note_on,,,,,120,0,14,,,10,,,59,57
63334,note_on,,,,,39,0,13,,,8,,,59,61
63341,note_on,,,,,111,0,15,,,11,,,54,53
63353,note_on,,,,,148,0,16,,,12,,,47,62
63442,note_off,,,,,101,0,15,,,11,,,54,64
63466,note_off,,,,,132,0,13,,,8,,,59,64
63471,note_off,,,,,137,0,14,,,10,,,59,64
63585,note_on,,,,,119,0,13,,,8,,,67,51
63587,note_on,,,,,116,0,14,,,10,,,62,54
63590,note_on,,,,,148,0,15,,,11,,,59,51
63656,note_off,,,,,303,0,16,,,12,,,47,64
63702,note_on,,,,,46,0,16,,,12,,,45,59
63795,note_off,,,,,93,0,16,,,12,,,45,64
63826,note_on,,,,,31,0,16,,,12,,,47,72
63839,note_off,,,,,254,0,13,,,8,,,67,64
63843,note_off,,,,,253,0,15,,,11,,,59,64
63856,note_off,,,,,269,0,14,,,10,,,62,64
63936,note_on,,,,,110,0,16,,,12,,,49,58
63940,note_off,,,,,4,0,16,,,12,,,47,64
64008,note_off,,,,,68,0,16,,,12,,,49,64
64053,note_on,,,,,210,0,15,,,11,,,57,49
64057,note_on,,,,,218,0,13,,,8,,,66,44
64067,note_on,,,,,211,0,14,,,10,,,62,49
64067,note_on,,,,,59,0,16,,,12,,,50,66
64174,note_off,,,,,121,0,15,,,11,,,57,64
64175,note_on,,,,,108,0,16,,,12,,,52,74
64176,note_off,,,,,109,0,14,,,10,,,62,64
64183,note_off,,,,,8,0,16,,,12,,,50,64
64186,note_off,,,,,129,0,13,,,8,,,66,64
64247,note_off,,,,,64,0,16,,,12,,,52,64
64299,note_on,,,,,52,0,16,,,12,,,54,64
64300,note_on,,,,,126,0,15,,,11,,,66,55
64301,note_on,,,,,125,0,14,,,10,,,69,48
64311,note_on,,,,,125,0,13,,,8,,,74,45
64407,note_on,,,,,108,0,16,,,12,,,55,70
64416,note_off,,,,,9,0,16,,,12,,,54,64
64498,note_off,,,,,82,0,16,,,12,,,55,64
64539,note_on,,,,,41,0,16,,,12,,,57,64
64551,note_off,,,,,251,0,15,,,11,,,66,64
64557,note_off,,,,,246,0,13,,,8,,,74,64
64560,note_off,,,,,259,0,14,,,10,,,69,64
64671,note_off,,,,,132,0,16,,,12,,,57,64
64768,note_on,,,,,211,0,13,,,8,,,73,52
64775,note_on,,,,,215,0,14,,,10,,,69,64
64777,note_on,,,,,226,0,15,,,11,,,64,54
64794,note_on,,,,,123,0,16,,,12,,,57,56
64879,note_on,,,,,111,0,13,,,8,,,74,62
64892,note_off,,,,,13,0,13,,,8,,,73,64
64892,note_on,,,,,117,0,14,,,10,,,71,61
64898,note_off,,,,,6,0,14,,,10,,,69,64
64900,note_off,,,,,123,0,15,,,11,,,64,64
65012,note_on,,,,,112,0,15,,,11,,,69,74
65017,note_off,,,,,119,0,14,,,10,,,71,64
65020,note_on,,,,,128,0,13,,,8,,,76,78
65021,note_on,,,,,4,0,14,,,10,,,73,63
65024,note_off,,,,,4,0,13,,,8,,,74,64
65122,note_on,,,,,101,0,14,,,10,,,74,82
65130,note_on,,,,,106,0,13,,,8,,,78,64
65132,note_off,,,,,120,0,15,,,11,,,69,64
65134,note_off,,,,,4,0,13,,,8,,,76,64
65144,note_off,,,,,22,0,14,,,10,,,73,64
65217,note_off,,,,,73,0,14,,,10,,,74,64
65239,note_off,,,,,105,0,13,,,8,,,78,64
65240,note_on,,,,,23,0,14,,,10,,,76,66
65249,note_on,,,,,10,0,13,,,8,,,79,76
65252,note_on,,,,,120,0,15,,,11,,,61,51
65359,note_on,,,,,119,0,14,,,10,,,73,50
65359,note_off,,,,,565,0,16,,,12,,,57,64
65361,note_off,,,,,112,0,13,,,8,,,79,64
65370,note_off,,,,,11,0,14,,,10,,,76,64
65370,note_on,,,,,9,0,13,,,8,,,76,53
65392,note_off,,,,,140,0,15,,,11,,,61,64
65466,note_off,,,,,96,0,13,,,8,,,76,64
65472,note_off,,,,,102,0,14,,,10,,,73,64
65480,note_on,,,,,121,0,16,,,12,,,50,68
65489,note_on,,,,,97,0,15,,,11,,,69,68
65490,note_on,,,,,18,0,14,,,10,,,74,42
65503,note_on,,,,,37,0,13,,,8,,,78,59
65585,note_off,,,,,105,0,16,,,12,,,50,64
65594,note_on,,,,,9,0,16,,,12,,,52,72
65635,note_off,,,,,145,0,14,,,10,,,74,64
65635,note_off,,,,,132,0,13,,,8,,,78,64
65645,note_off,,,,,156,0,15,,,11,,,69,64
65686,note_off,,,,,92,0,16,,,12,,,52,64
65721,note_on,,,,,35,0,16,,,12,,,54,63
65735,note_on,,,,,100,0,13,,,8,,,76,60
65736,note_on,,,,,91,0,15,,,11,,,67,53
65751,note_on,,,,,116,0,14,,,10,,,73,47
65831,note_on,,,,,110,0,16,,,12,,,55,68
65839,note_off,,,,,8,0,16,,,12,,,54,64
65848,note_off,,,,,112,0,15,,,11,,,67,64
65870,note_off,,,,,135,0,13,,,8,,,76,64
65873,note_off,,,,,122,0,14,,,10,,,73,64
65914,note_off,,,,,75,0,16,,,12,,,55,64
65970,note_on,,,,,56,0,16,,,12,,,57,68
65970,note_on,,,,,122,0,15,,,11,,,66,21
65976,note_on,,,,,103,0,14,,,10,,,74,56
65981,note_on,,,,,111,0,13,,,8,,,74,64
66086,note_off,,,,,116,0,16,,,12,,,57,64
66090,note_off,,,,,114,0,14,,,10,,,74,64
66115,note_off,,,,,145,0,15,,,11,,,66,64
66121,note_off,,,,,140,0,13,,,8,,,74,64
66226,note_on,,,,,111,0,15,,,11,,,64,52
66230,note_on,,,,,109,0,13,,,8,,,73,64
66232,note_on,,,,,142,0,14,,,10,,,69,40
66237,note_on,,,,,151,0,16,,,12,,,57,57
66343,note_on,,,,,113,0,13,,,8,,,74,74
66347,note_on,,,,,0,0,15,,,11,,,62,57
66347,note_off,,,,,121,0,15,,,11,,,64,64
66352,note_off,,,,,9,0,13,,,8,,,73,64
66423,note_off,,,,,71,0,13,,,8,,,74,64
66445,note_off,,,,,98,0,15,,,11,,,62,64
66458,note_on,,,,,13,0,15,,,11,,,61,57
66465,note_on,,,,,42,0,13,,,8,,,76,64
66566,note_off,,,,,334,0,14,,,10,,,69,64
66575,note_off,,,,,110,0,13,,,8,,,76,64
66575,note_on,,,,,117,0,15,,,11,,,62,68
66578,note_off,,,,,3,0,15,,,11,,,61,64
66682,note_off,,,,,104,0,15,,,11,,,62,64
66697,note_on,,,,,15,0,15,,,11,,,64,70
66699,note_on,,,,,124,0,13,,,8,,,69,60
66707,note_on,,,,,141,0,14,,,10,,,61,46
66777,note_off,,,,,540,0,16,,,12,,,57,64
66780,note_off,,,,,83,0,15,,,11,,,64,64
66801,note_on,,,,,21,0,15,,,11,,,61,58
66825,note_off,,,,,126,0,13,,,8,,,69,64
66845,note_off,,,,,138,0,14,,,10,,,61,64
66888,note_off,,,,,87,0,15,,,11,,,61,64
66930,note_on,,,,,42,0,15,,,11,,,57,52
66944,note_on,,,,,167,0,16,,,12,,,48,70
66947,note_on,,,,,102,0,14,,,10,,,66,59
66950,note_on,,,,,125,0,13,,,8,,,74,68
67055,note_off,,,,,111,0,16,,,12,,,48,64
67058,note_on,,,,,3,0,16,,,12,,,47,58
67071,note_off,,,,,124,0,14,,,10,,,66,64
67073,note_off,,,,,143,0,15,,,11,,,57,64
67086,note_off,,,,,136,0,13,,,8,,,74,64
67147,note_off,,,,,89,0,16,,,12,,,47,64
67176,note_on,,,,,90,0,13,,,8,,,67,64
67188,note_on,,,,,41,0,16,,,12,,,47,66
67192,note_on,,,,,121,0,14,,,10,,,62,53
67196,note_on,,,,,123,0,15,,,11,,,59,63
67287,note_on,,,,,111,0,13,,,8,,,66,54
67296,note_on,,,,,108,0,16,,,12,,,45,68
67299,note_off,,,,,3,0,16,,,12,,,47,64
67305,note_off,,,,,18,0,13,,,8,,,67,64
67326,note_off,,,,,130,0,15,,,11,,,59,64
67332,note_on,,,,,27,0,13,,,8,,,67,58
67338,note_off,,,,,6,0,13,,,8,,,66,64
67373,note_on,,,,,35,0,13,,,8,,,66,60
67379,note_off,,,,,80,0,16,,,12,,,45,64
67380,note_off,,,,,7,0,13,,,8,,,67,64
67411,note_on,,,,,31,0,13,,,8,,,67,62
67412,note_off,,,,,1,0,13,,,8,,,66,64
67416,note_on,,,,,37,0,16,,,12,,,45,63
67439,note_on,,,,,113,0,15,,,11,,,60,52
67441,note_on,,,,,29,0,13,,,8,,,66,63
67461,note_off,,,,,20,0,13,,,8,,,67,64
67508,note_on,,,,,47,0,13,,,8,,,64,56
67524,note_off,,,,,16,0,13,,,8,,,66,64
67530,note_on,,,,,114,0,16,,,12,,,47,66
67537,note_off,,,,,7,0,16,,,12,,,45,64
67557,note_off,,,,,118,0,15,,,11,,,60,64
67564,note_on,,,,,40,0,13,,,8,,,66,57
67595,note_off,,,,,58,0,16,,,12,,,47,64
67596,note_off,,,,,32,0,13,,,8,,,64,64
67633,note_off,,,,,37,0,13,,,8,,,66,64
67634,note_on,,,,,1,0,13,,,8,,,67,57
67652,note_on,,,,,57,0,16,,,12,,,47,68
67670,note_on,,,,,113,0,15,,,11,,,59,51
67765,note_on,,,,,113,0,16,,,12,,,49,66
67773,note_off,,,,,8,0,16,,,12,,,47,64
67778,note_off,,,,,108,0,15,,,11,,,59,64
67819,note_off,,,,,185,0,13,,,8,,,67,64
67836,note_off,,,,,63,0,16,,,12,,,49,64
67836,note_off,,,,,644,0,14,,,10,,,62,64
67892,note_on,,,,,56,0,16,,,12,,,50,64
67893,note_on,,,,,57,0,14,,,10,,,64,59
67896,note_on,,,,,118,0,15,,,11,,,57,53
67900,note_on,,,,,81,0,13,,,8,,,66,54
67945,note_on,,,,,53,0,16,,,12,,,49,63
67959,note_off,,,,,14,0,16,,,12,,,50,64
67982,note_off,,,,,23,0,16,,,12,,,49,64
67982,note_off,,,,,86,0,15,,,11,,,57,64
67989,note_on,,,,,7,0,16,,,12,,,50,60
68007,note_off,,,,,107,0,13,,,8,,,66,64
68012,note_on,,,,,5,0,13,,,8,,,64,66
68015,note_off,,,,,122,0,14,,,10,,,64,64
68023,note_on,,,,,34,0,16,,,12,,,49,60
68046,note_off,,,,,23,0,16,,,12,,,50,64
68062,note_on,,,,,16,0,16,,,12,,,47,60
68075,note_off,,,,,13,0,16,,,12,,,49,64
68106,note_on,,,,,31,0,16,,,12,,,49,64
68108,note_off,,,,,96,0,13,,,8,,,64,64
68129,note_on,,,,,21,0,13,,,8,,,66,62
68130,note_off,,,,,24,0,16,,,12,,,47,64
68143,note_on,,,,,128,0,14,,,10,,,62,63
68147,note_on,,,,,165,0,15,,,11,,,57,63
68160,note_on,,,,,30,0,16,,,12,,,50,61
68165,note_off,,,,,5,0,16,,,12,,,49,64
68244,note_on,,,,,115,0,13,,,8,,,67,72
68252,note_off,,,,,8,0,13,,,8,,,66,64
68299,note_off,,,,,134,0,16,,,12,,,50,64
68339,note_off,,,,,87,0,13,,,8,,,67,64
68380,note_on,,,,,41,0,13,,,8,,,69,68
68392,note_on,,,,,93,0,16,,,12,,,42,63
68484,note_off,,,,,92,0,16,,,12,,,42,64
68488,note_on,,,,,4,0,16,,,12,,,40,63
68494,note_off,,,,,351,0,14,,,10,,,62,64
68501,note_off,,,,,121,0,13,,,8,,,69,64
68501,note_off,,,,,354,0,15,,,11,,,57,64
68584,note_off,,,,,96,0,16,,,12,,,40,64
68603,note_on,,,,,19,0,16,,,12,,,42,68
68613,note_on,,,,,112,0,15,,,11,,,54,57
68630,note_on,,,,,136,0,14,,,10,,,57,49
68630,note_on,,,,,129,0,13,,,8,,,62,56
68699,note_off,,,,,96,0,16,,,12,,,42,64
68720,note_off,,,,,107,0,15,,,11,,,54,64
68722,note_on,,,,,23,0,16,,,12,,,43,70
68729,note_off,,,,,99,0,14,,,10,,,57,64
68748,note_off,,,,,118,0,13,,,8,,,62,64
68817,note_off,,,,,95,0,16,,,12,,,43,64
68853,note_on,,,,,124,0,14,,,10,,,57,52
68856,note_on,,,,,136,0,15,,,11,,,52,53
68866,note_on,,,,,49,0,16,,,12,,,45,66
68868,note_on,,,,,120,0,13,,,8,,,61,43
68967,note_off,,,,,111,0,15,,,11,,,52,64
68973,note_off,,,,,120,0,14,,,10,,,57,64
68982,note_off,,,,,114,0,13,,,8,,,61,64
68996,note_off,,,,,130,0,16,,,12,,,45,64
69108,note_on,,,,,141,0,15,,,11,,,54,54
69109,note_on,,,,,136,0,14,,,10,,,57,51
69110,note_on,,,,,128,0,13,,,8,,,62,51
69127,note_on,,,,,131,0,16,,,12,,,38,59
69609,note_off,,,,,499,0,13,,,8,,,62,64
69653,note_off,,,,,545,0,15,,,11,,,54,64
69674,note_off,,,,,565,0,14,,,10,,,57,64
69680,note_off,,,,,553,0,16,,,12,,,38,64
69819,note_on,,,,,139,0,16,,,12,,,57,62
69821,note_on,,,,,168,0,15,,,11,,,69,64
69826,note_on,,,,,152,0,14,,,10,,,73,52
69847,note_on,,,,,238,0,13,,,8,,,76,58
69958,note_off,,,,,137,0,15,,,11,,,69,64
70008,note_off,,,,,189,0,16,,,12,,,57,64
70016,note_off,,,,,190,0,14,,,10,,,73,64
70058,note_on,,,,,100,0,15,,,11,,,64,52
70065,note_on,,,,,57,0,16,,,12,,,59,64
70085,note_on,,,,,69,0,14,,,10,,,74,80
70170,note_on,,,,,105,0,16,,,12,,,57,60
70170,note_off,,,,,112,0,15,,,11,,,64,64
70173,note_off,,,,,3,0,16,,,12,,,59,64
70196,note_on,,,,,111,0,14,,,10,,,73,61
70206,note_off,,,,,10,0,14,,,10,,,74,64
70270,note_off,,,,,97,0,16,,,12,,,57,64
70283,note_on,,,,,13,0,16,,,12,,,55,64
70293,note_off,,,,,87,0,14,,,10,,,73,64
70309,note_on,,,,,139,0,15,,,11,,,67,57
70317,note_on,,,,,24,0,14,,,10,,,71,56
70411,note_off,,,,,94,0,14,,,10,,,71,64
70412,note_on,,,,,129,0,16,,,12,,,57,66
70415,note_off,,,,,3,0,16,,,12,,,55,64
70425,note_on,,,,,14,0,14,,,10,,,73,47
70450,note_off,,,,,141,0,15,,,11,,,67,64
70520,note_off,,,,,95,0,14,,,10,,,73,64
70525,note_off,,,,,110,0,16,,,12,,,57,64
70538,note_on,,,,,13,0,16,,,12,,,54,42
70540,note_on,,,,,90,0,15,,,11,,,61,53
70559,note_on,,,,,39,0,14,,,10,,,70,44
70633,note_off,,,,,786,0,13,,,8,,,76,64
70644,note_on,,,,,11,0,13,,,8,,,79,68
70681,note_off,,,,,141,0,15,,,11,,,61,64
70760,note_on,,,,,0,0,13,,,8,,,78,57
70760,note_off,,,,,116,0,13,,,8,,,79,64
70785,note_on,,,,,104,0,15,,,11,,,62,56
70880,note_on,,,,,0,0,13,,,8,,,76,66
70880,note_off,,,,,120,0,13,,,8,,,78,64
70905,note_off,,,,,120,0,15,,,11,,,62,64
71001,note_off,,,,,121,0,13,,,8,,,76,64
71013,note_on,,,,,12,0,13,,,8,,,74,62
71017,note_on,,,,,112,0,15,,,11,,,64,54
71114,note_on,,,,,101,0,13,,,8,,,73,57
71119,note_off,,,,,5,0,13,,,8,,,74,64
71128,note_off,,,,,111,0,15,,,11,,,64,64
71169,note_off,,,,,631,0,16,,,12,,,54,64
71187,note_off,,,,,628,0,14,,,10,,,70,64
71243,note_off,,,,,124,0,13,,,8,,,73,64
71245,note_on,,,,,117,0,15,,,11,,,62,66
71254,note_on,,,,,85,0,16,,,12,,,55,70
71256,note_on,,,,,13,0,13,,,8,,,71,56
71267,note_on,,,,,80,0,14,,,10,,,71,61
71365,note_on,,,,,111,0,16,,,12,,,54,60
71369,note_off,,,,,4,0,16,,,12,,,55,64
71377,note_off,,,,,121,0,13,,,8,,,71,64
71384,note_off,,,,,139,0,15,,,11,,,62,64
71403,note_off,,,,,136,0,14,,,10,,,71,64
71474,note_off,,,,,105,0,16,,,12,,,54,64
71480,note_on,,,,,6,0,16,,,12,,,52,62
71498,note_on,,,,,114,0,15,,,11,,,64,57
71505,note_on,,,,,128,0,13,,,8,,,82,63
71506,note_on,,,,,103,0,14,,,10,,,73,52
71599,note_off,,,,,119,0,16,,,12,,,52,64
71605,note_on,,,,,6,0,16,,,12,,,50,66
71627,note_off,,,,,129,0,15,,,11,,,64,64
71642,note_off,,,,,137,0,13,,,8,,,82,64
71642,note_off,,,,,136,0,14,,,10,,,73,64
71698,note_off,,,,,93,0,16,,,12,,,50,64
71720,note_on,,,,,22,0,16,,,12,,,49,62
71746,note_on,,,,,119,0,15,,,11,,,66,57
71749,note_on,,,,,107,0,13,,,8,,,83,60
71755,note_on,,,,,113,0,14,,,10,,,74,57
71837,note_off,,,,,117,0,16,,,12,,,49,64
71843,note_on,,,,,6,0,16,,,12,,,47,64
71868,note_off,,,,,122,0,15,,,11,,,66,64
71886,note_off,,,,,131,0,14,,,10,,,74,64
71894,note_off,,,,,145,0,13,,,8,,,83,64
71960,note_off,,,,,117,0,16,,,12,,,47,64
71968,note_on,,,,,8,0,16,,,12,,,46,60
71985,note_on,,,,,91,0,13,,,8,,,85,66
71990,note_on,,,,,104,0,14,,,10,,,73,34
71997,note_on,,,,,129,0,15,,,11,,,66,70
72091,note_on,,,,,123,0,16,,,12,,,47,68
72095,note_off,,,,,4,0,16,,,12,,,46,64
72115,note_on,,,,,118,0,15,,,11,,,68,62
72121,note_off,,,,,6,0,15,,,11,,,66,64
72137,note_off,,,,,152,0,13,,,8,,,85,64
72148,note_off,,,,,158,0,14,,,10,,,73,64
72199,note_off,,,,,78,0,15,,,11,,,68,64
72202,note_off,,,,,107,0,16,,,12,,,47,64
72215,note_on,,,,,13,0,16,,,12,,,49,61
72222,note_on,,,,,85,0,13,,,8,,,76,61
72229,note_on,,,,,30,0,15,,,11,,,70,72
72232,note_on,,,,,84,0,14,,,10,,,73,59
72337,note_on,,,,,105,0,14,,,10,,,71,62
72340,note_on,,,,,0,0,13,,,8,,,74,64
72340,note_off,,,,,118,0,13,,,8,,,76,64
72346,note_off,,,,,9,0,14,,,10,,,73,64
72349,note_off,,,,,134,0,16,,,12,,,49,64
72356,note_off,,,,,127,0,15,,,11,,,70,64
72425,note_off,,,,,85,0,13,,,8,,,74,64
72437,note_off,,,,,91,0,14,,,10,,,71,64
72456,note_on,,,,,19,0,14,,,10,,,73,57
72456,note_on,,,,,31,0,13,,,8,,,76,76
72460,note_on,,,,,111,0,16,,,12,,,42,57
72464,note_on,,,,,108,0,15,,,11,,,66,63
72557,note_on,,,,,101,0,14,,,10,,,70,52
72566,note_off,,,,,9,0,14,,,10,,,73,64
72571,note_off,,,,,115,0,13,,,8,,,76,64
72575,note_on,,,,,4,0,13,,,8,,,73,48
72577,note_off,,,,,113,0,15,,,11,,,66,64
72578,note_off,,,,,118,0,16,,,12,,,42,64
72670,note_off,,,,,104,0,14,,,10,,,70,64
72680,note_off,,,,,105,0,13,,,8,,,73,64
72693,note_on,,,,,115,0,16,,,12,,,47,68
72701,note_on,,,,,31,0,14,,,10,,,71,49
72708,note_on,,,,,28,0,13,,,8,,,74,68
72712,note_on,,,,,135,0,15,,,11,,,66,68
72800,note_on,,,,,107,0,16,,,12,,,49,64
72815,note_off,,,,,15,0,16,,,12,,,47,64
72818,note_on,,,,,110,0,13,,,8,,,76,68
72822,note_off,,,,,121,0,14,,,10,,,71,64
72826,note_off,,,,,114,0,15,,,11,,,66,64
72826,note_on,,,,,0,0,15,,,11,,,64,68
72830,note_off,,,,,12,0,13,,,8,,,74,64
72889,note_off,,,,,74,0,16,,,12,,,49,64
72926,note_off,,,,,100,0,15,,,11,,,64,64
72932,note_on,,,,,43,0,16,,,12,,,50,63
72938,note_off,,,,,108,0,13,,,8,,,76,64
72941,note_on,,,,,15,0,15,,,11,,,62,60
72944,note_on,,,,,122,0,14,,,10,,,71,57
72945,note_on,,,,,7,0,13,,,8,,,78,64
73044,note_off,,,,,103,0,15,,,11,,,62,64
73049,note_on,,,,,117,0,16,,,12,,,52,68
73050,note_on,,,,,6,0,15,,,11,,,61,57
73059,note_off,,,,,10,0,16,,,12,,,50,64
73064,note_off,,,,,119,0,13,,,8,,,78,64
73078,note_off,,,,,134,0,14,,,10,,,71,64
73135,note_off,,,,,76,0,16,,,12,,,52,64
73155,note_off,,,,,105,0,15,,,11,,,61,64
73176,note_on,,,,,112,0,13,,,8,,,71,60
73183,note_on,,,,,48,0,16,,,12,,,54,57
73185,note_on,,,,,30,0,15,,,11,,,62,68
73186,note_on,,,,,108,0,14,,,10,,,66,38
73287,note_off,,,,,102,0,15,,,11,,,62,64
73305,note_off,,,,,129,0,13,,,8,,,71,64
73310,note_off,,,,,127,0,16,,,12,,,54,64
73315,note_off,,,,,129,0,14,,,10,,,66,64
73420,note_on,,,,,115,0,13,,,8,,,70,60
73430,note_on,,,,,115,0,14,,,10,,,66,42
73430,note_on,,,,,143,0,15,,,11,,,61,59
73435,note_on,,,,,125,0,16,,,12,,,54,57
73538,note_on,,,,,118,0,13,,,8,,,73,56
73539,note_off,,,,,1,0,13,,,8,,,70,64
73566,note_off,,,,,136,0,14,,,10,,,66,64
73633,note_off,,,,,94,0,13,,,8,,,73,64
73660,note_on,,,,,27,0,13,,,8,,,76,60
73668,note_on,,,,,102,0,14,,,10,,,70,57
73760,note_off,,,,,100,0,13,,,8,,,76,64
73765,note_off,,,,,97,0,14,,,10,,,70,64
73774,note_on,,,,,14,0,13,,,8,,,73,55
73825,note_off,,,,,395,0,15,,,11,,,61,64
73878,note_off,,,,,104,0,13,,,8,,,73,64
73899,note_on,,,,,74,0,15,,,11,,,59,72
73904,note_on,,,,,26,0,13,,,8,,,74,57
73912,note_on,,,,,147,0,14,,,10,,,71,53
74000,note_on,,,,,0,0,15,,,11,,,61,68
74000,note_off,,,,,101,0,15,,,11,,,59,64
74019,note_on,,,,,115,0,13,,,8,,,71,76
74019,note_off,,,,,584,0,16,,,12,,,54,64
74026,note_off,,,,,7,0,13,,,8,,,74,64
74084,note_off,,,,,58,0,13,,,8,,,71,64
74095,note_off,,,,,95,0,15,,,11,,,61,64
74140,note_on,,,,,45,0,15,,,11,,,62,60
74142,note_on,,,,,123,0,16,,,12,,,50,80
74157,note_on,,,,,73,0,13,,,8,,,66,53
74245,note_on,,,,,103,0,16,,,12,,,49,60
74267,note_off,,,,,22,0,16,,,12,,,50,64
74267,note_off,,,,,127,0,15,,,11,,,62,64
74285,note_off,,,,,373,0,14,,,10,,,71,64
74334,note_off,,,,,177,0,13,,,8,,,66,64
74334,note_off,,,,,67,0,16,,,12,,,49,64
74372,note_on,,,,,38,0,16,,,12,,,50,58
74377,note_on,,,,,110,0,15,,,11,,,54,52
74380,note_on,,,,,46,0,13,,,8,,,64,68
74394,note_on,,,,,109,0,14,,,10,,,59,59
74484,note_off,,,,,104,0,13,,,8,,,64,64
74490,note_on,,,,,118,0,16,,,12,,,52,63
74494,note_on,,,,,10,0,13,,,8,,,62,62
74495,note_off,,,,,5,0,16,,,12,,,50,64
74500,note_off,,,,,123,0,15,,,11,,,54,64
74527,note_off,,,,,133,0,14,,,10,,,59,64
74578,note_off,,,,,84,0,13,,,8,,,62,64
74586,note_off,,,,,91,0,16,,,12,,,52,64
74610,note_on,,,,,32,0,13,,,8,,,61,63
74621,note_on,,,,,94,0,14,,,10,,,58,47
74623,note_on,,,,,37,0,16,,,12,,,54,62
74625,note_on,,,,,125,0,15,,,11,,,54,48
74718,note_off,,,,,108,0,13,,,8,,,61,64
74729,note_on,,,,,11,0,13,,,8,,,62,68
74731,note_off,,,,,108,0,16,,,12,,,54,64
74745,note_off,,,,,124,0,14,,,10,,,58,64
74745,note_off,,,,,120,0,15,,,11,,,54,64
74834,note_off,,,,,105,0,13,,,8,,,62,64
74860,note_on,,,,,115,0,14,,,10,,,59,53
74861,note_on,,,,,116,0,15,,,11,,,54,48
74876,note_on,,,,,42,0,13,,,8,,,59,54
74889,note_on,,,,,158,0,16,,,12,,,47,53
75003,note_off,,,,,143,0,14,,,10,,,59,64
75015,note_off,,,,,154,0,15,,,11,,,54,64
75035,note_off,,,,,159,0,13,,,8,,,59,64
75123,note_on,,,,,88,0,13,,,8,,,67,58
75124,note_on,,,,,109,0,15,,,11,,,59,52
75125,note_on,,,,,122,0,14,,,10,,,62,46
75175,note_off,,,,,286,0,16,,,12,,,47,64
75218,note_on,,,,,43,0,16,,,12,,,45,53
75340,note_off,,,,,122,0,16,,,12,,,45,64
75342,note_off,,,,,218,0,15,,,11,,,59,64
75349,note_on,,,,,9,0,16,,,12,,,47,64
75367,note_off,,,,,242,0,14,,,10,,,62,64
75374,note_off,,,,,251,0,13,,,8,,,67,64
75451,note_off,,,,,102,0,16,,,12,,,47,64
75460,note_on,,,,,9,0,16,,,12,,,49,57
75549,note_off,,,,,89,0,16,,,12,,,49,64
75568,note_on,,,,,226,0,15,,,11,,,57,45
75573,note_on,,,,,206,0,14,,,10,,,62,51
75580,note_on,,,,,31,0,16,,,12,,,50,61
75589,note_on,,,,,215,0,13,,,8,,,66,49
75696,note_on,,,,,116,0,16,,,12,,,52,64
75705,note_off,,,,,132,0,14,,,10,,,62,64
75707,note_off,,,,,11,0,16,,,12,,,50,64
75711,note_off,,,,,143,0,15,,,11,,,57,64
75736,note_off,,,,,147,0,13,,,8,,,66,64
75777,note_off,,,,,70,0,16,,,12,,,52,64
75822,note_on,,,,,45,0,16,,,12,,,54,59
75825,note_on,,,,,120,0,14,,,10,,,69,38
75837,note_on,,,,,126,0,15,,,11,,,66,41
75838,note_on,,,,,102,0,13,,,8,,,74,47
75928,note_on,,,,,106,0,16,,,12,,,55,72
75950,note_off,,,,,22,0,16,,,12,,,54,64
76020,note_off,,,,,70,0,16,,,12,,,55,64
76060,note_off,,,,,223,0,15,,,11,,,66,64
76063,note_on,,,,,43,0,16,,,12,,,57,70
76089,note_off,,,,,264,0,14,,,10,,,69,64
76093,note_off,,,,,255,0,13,,,8,,,74,64
76189,note_off,,,,,126,0,16,,,12,,,57,64
76282,note_on,,,,,222,0,15,,,11,,,64,55
76301,note_on,,,,,212,0,14,,,10,,,69,63
76305,note_on,,,,,212,0,13,,,8,,,73,55
76318,note_on,,,,,129,0,16,,,12,,,57,57
76409,note_off,,,,,127,0,15,,,11,,,64,64
76416,note_on,,,,,115,0,14,,,10,,,71,64
76419,note_off,,,,,3,0,14,,,10,,,69,64
76419,note_on,,,,,114,0,13,,,8,,,74,59
76423,note_off,,,,,4,0,13,,,8,,,73,64
76527,note_off,,,,,104,0,13,,,8,,,74,64
76531,note_on,,,,,122,0,15,,,11,,,69,60
76540,note_off,,,,,121,0,14,,,10,,,71,64
76545,note_on,,,,,18,0,13,,,8,,,76,68
76545,note_on,,,,,5,0,14,,,10,,,73,57
76644,note_on,,,,,99,0,14,,,10,,,74,80
76648,note_on,,,,,103,0,13,,,8,,,78,60
76654,note_off,,,,,6,0,13,,,8,,,76,64
76678,note_off,,,,,147,0,15,,,11,,,69,64
76692,note_off,,,,,48,0,14,,,10,,,73,64
76748,note_off,,,,,94,0,13,,,8,,,78,64
76764,note_off,,,,,72,0,14,,,10,,,74,64
76768,note_on,,,,,20,0,13,,,8,,,79,70
76769,note_on,,,,,5,0,14,,,10,,,76,64
76780,note_on,,,,,102,0,15,,,11,,,61,64
76874,note_off,,,,,556,0,16,,,12,,,57,64
76878,note_on,,,,,110,0,13,,,8,,,76,70
76881,note_off,,,,,3,0,13,,,8,,,79,64
76887,note_on,,,,,118,0,14,,,10,,,73,58
76890,note_off,,,,,3,0,14,,,10,,,76,64
76901,note_off,,,,,121,0,15,,,11,,,61,64
76978,note_off,,,,,97,0,13,,,8,,,76,64
76979,note_off,,,,,89,0,14,,,10,,,73,64
77004,note_on,,,,,130,0,16,,,12,,,50,63
77013,note_on,,,,,35,0,13,,,8,,,78,58
77013,note_on,,,,,34,0,14,,,10,,,74,63
77019,note_on,,,,,118,0,15,,,11,,,69,70
77119,note_on,,,,,115,0,16,,,12,,,52,64
77141,note_off,,,,,22,0,16,,,12,,,50,64
77152,note_off,,,,,139,0,14,,,10,,,74,64
77162,note_off,,,,,149,0,13,,,8,,,78,64
77178,note_off,,,,,159,0,15,,,11,,,69,64
77210,note_off,,,,,69,0,16,,,12,,,52,64
77236,note_on,,,,,26,0,16,,,12,,,54,66
77257,note_on,,,,,95,0,13,,,8,,,76,60
77264,note_on,,,,,86,0,15,,,11,,,67,57
77264,note_on,,,,,112,0,14,,,10,,,73,51
77353,note_on,,,,,117,0,16,,,12,,,55,72
77368,note_off,,,,,15,0,16,,,12,,,54,64
77376,note_off,,,,,112,0,15,,,11,,,67,64
77390,note_off,,,,,126,0,14,,,10,,,73,64
77398,note_off,,,,,141,0,13,,,8,,,76,64
77452,note_off,,,,,84,0,16,,,12,,,55,64
77491,note_on,,,,,39,0,16,,,12,,,57,61
77501,note_on,,,,,125,0,15,,,11,,,66,47
77503,note_on,,,,,113,0,14,,,10,,,74,49
77515,note_on,,,,,117,0,13,,,8,,,74,66
77610,note_off,,,,,107,0,14,,,10,,,74,64
77631,note_off,,,,,140,0,16,,,12,,,57,64
77639,note_off,,,,,138,0,15,,,11,,,66,64
77653,note_off,,,,,138,0,13,,,8,,,74,64
77747,note_on,,,,,94,0,13,,,8,,,73,66
77747,note_on,,,,,137,0,14,,,10,,,69,41
77752,note_on,,,,,113,0,15,,,11,,,64,57
77756,note_on,,,,,125,0,16,,,12,,,57,55
77857,note_on,,,,,110,0,13,,,8,,,74,70
77867,note_on,,,,,0,0,15,,,11,,,62,62
77867,note_off,,,,,115,0,15,,,11,,,64,64
77870,note_off,,,,,13,0,13,,,8,,,73,64
77951,note_off,,,,,81,0,13,,,8,,,74,64
77967,note_off,,,,,100,0,15,,,11,,,62,64
77975,note_on,,,,,8,0,15,,,11,,,61,57
77988,note_on,,,,,37,0,13,,,8,,,76,61
78092,note_on,,,,,117,0,15,,,11,,,62,61
78098,note_off,,,,,6,0,15,,,11,,,61,64
78109,note_off,,,,,362,0,14,,,10,,,69,64
78111,note_off,,,,,123,0,13,,,8,,,76,64
78185,note_off,,,,,87,0,15,,,11,,,62,64
78216,note_on,,,,,31,0,15,,,11,,,64,70
78222,note_on,,,,,111,0,13,,,8,,,69,57
78223,note_on,,,,,114,0,14,,,10,,,61,53
78306,note_off,,,,,90,0,15,,,11,,,64,64
78329,note_on,,,,,23,0,15,,,11,,,61,60
78334,note_off,,,,,578,0,16,,,12,,,57,64
78336,note_off,,,,,114,0,13,,,8,,,69,64
78366,note_off,,,,,143,0,14,,,10,,,61,64
78412,note_off,,,,,83,0,15,,,11,,,61,64
78453,note_on,,,,,119,0,16,,,12,,,48,78
78453,note_on,,,,,41,0,15,,,11,,,57,49
78462,note_on,,,,,126,0,13,,,8,,,74,53
78468,note_on,,,,,102,0,14,,,10,,,66,58
78569,note_on,,,,,116,0,16,,,12,,,47,68
78571,note_off,,,,,2,0,16,,,12,,,48,64
78581,note_off,,,,,113,0,14,,,10,,,66,64
78597,note_off,,,,,135,0,13,,,8,,,74,64
78619,note_off,,,,,166,0,15,,,11,,,57,64
78658,note_off,,,,,87,0,16,,,12,,,47,64
78687,note_on,,,,,90,0,13,,,8,,,67,58
78694,note_on,,,,,36,0,16,,,12,,,47,60
78706,note_on,,,,,87,0,15,,,11,,,59,52
78707,note_on,,,,,126,0,14,,,10,,,62,52
78799,note_on,,,,,112,0,13,,,8,,,66,51
78814,note_off,,,,,15,0,13,,,8,,,67,64
78816,note_on,,,,,122,0,16,,,12,,,45,58
78827,note_off,,,,,11,0,16,,,12,,,47,64
78840,note_on,,,,,26,0,13,,,8,,,67,58
78846,note_off,,,,,6,0,13,,,8,,,66,64
78854,note_off,,,,,148,0,15,,,11,,,59,64
78884,note_on,,,,,38,0,13,,,8,,,66,60
78893,note_off,,,,,9,0,13,,,8,,,67,64
78895,note_off,,,,,68,0,16,,,12,,,45,64
78926,note_on,,,,,33,0,13,,,8,,,67,57
78928,note_off,,,,,2,0,13,,,8,,,66,64
78941,note_on,,,,,46,0,16,,,12,,,45,58
78943,note_on,,,,,89,0,15,,,11,,,60,53
78956,note_on,,,,,28,0,13,,,8,,,66,47
78978,note_off,,,,,22,0,13,,,8,,,66,64
79006,note_on,,,,,28,0,13,,,8,,,66,52
79027,note_off,,,,,21,0,13,,,8,,,67,64
79048,note_on,,,,,21,0,13,,,8,,,64,57
79053,note_on,,,,,112,0,16,,,12,,,47,66
79063,note_off,,,,,15,0,13,,,8,,,66,64
79070,note_off,,,,,17,0,16,,,12,,,45,64
79088,note_off,,,,,145,0,15,,,11,,,60,64
79105,note_on,,,,,42,0,13,,,8,,,66,59
79131,note_off,,,,,61,0,16,,,12,,,47,64
79138,note_off,,,,,33,0,13,,,8,,,64,64
79170,note_off,,,,,32,0,13,,,8,,,66,64
79173,note_on,,,,,3,0,13,,,8,,,67,56
79175,note_on,,,,,44,0,16,,,12,,,47,60
79178,note_on,,,,,90,0,15,,,11,,,59,52
79276,note_off,,,,,101,0,16,,,12,,,47,64
79295,note_on,,,,,19,0,16,,,12,,,49,58
79329,note_off,,,,,622,0,14,,,10,,,62,64
79350,note_off,,,,,177,0,13,,,8,,,67,64
79353,note_off,,,,,175,0,15,,,11,,,59,64
79391,note_off,,,,,96,0,16,,,12,,,49,64
79407,note_on,,,,,54,0,15,,,11,,,57,39
79411,note_on,,,,,20,0,16,,,12,,,50,66
79420,note_on,,,,,70,0,13,,,8,,,66,58
79431,note_on,,,,,102,0,14,,,10,,,64,60
79482,note_on,,,,,71,0,16,,,12,,,49,57
79488,note_off,,,,,6,0,16,,,12,,,50,64
79516,note_off,,,,,28,0,16,,,12,,,49,64
79521,note_on,,,,,5,0,16,,,12,,,50,66
79529,note_off,,,,,109,0,13,,,8,,,66,64
79530,note_on,,,,,1,0,13,,,8,,,64,64
79532,note_off,,,,,101,0,14,,,10,,,64,64
79535,note_off,,,,,128,0,15,,,11,,,57,64
79557,note_on,,,,,36,0,16,,,12,,,49,70
79571,note_off,,,,,14,0,16,,,12,,,50,64
79605,note_on,,,,,34,0,16,,,12,,,47,70
79619,note_off,,,,,14,0,16,,,12,,,49,64
79648,note_off,,,,,118,0,13,,,8,,,64,64
79655,note_on,,,,,7,0,13,,,8,,,66,62
79661,note_on,,,,,42,0,16,,,12,,,49,64
79672,note_on,,,,,140,0,14,,,10,,,62,61
79675,note_on,,,,,140,0,15,,,11,,,57,58
79694,note_off,,,,,33,0,16,,,12,,,47,64
79698,note_on,,,,,4,0,16,,,12,,,50,68
79714,note_off,,,,,16,0,16,,,12,,,49,64
79768,note_on,,,,,113,0,13,,,8,,,67,70
79772,note_off,,,,,4,0,13,,,8,,,66,64
79841,note_off,,,,,127,0,16,,,12,,,50,64
79859,note_off,,,,,87,0,13,,,8,,,67,64
79902,note_on,,,,,43,0,13,,,8,,,69,72
79924,note_on,,,,,83,0,16,,,12,,,42,60
80018,note_off,,,,,94,0,16,,,12,,,42,64
80021,note_off,,,,,119,0,13,,,8,,,69,64
80022,note_on,,,,,4,0,16,,,12,,,40,62
80050,note_off,,,,,378,0,14,,,10,,,62,64
80064,note_off,,,,,389,0,15,,,11,,,57,64
80116,note_off,,,,,94,0,16,,,12,,,40,64
80135,note_on,,,,,114,0,13,,,8,,,62,66
80139,note_on,,,,,23,0,16,,,12,,,42,64
80154,note_on,,,,,104,0,14,,,10,,,57,56
80159,note_on,,,,,95,0,15,,,11,,,54,58
80245,note_on,,,,,106,0,16,,,12,,,43,70
80256,note_off,,,,,121,0,13,,,8,,,62,64
80259,note_off,,,,,14,0,16,,,12,,,42,64
80263,note_off,,,,,109,0,14,,,10,,,57,64
80282,note_off,,,,,123,0,15,,,11,,,54,64
80344,note_off,,,,,85,0,16,,,12,,,43,64
80374,note_on,,,,,118,0,13,,,8,,,62,59
80377,note_on,,,,,33,0,16,,,12,,,45,63
80390,note_on,,,,,108,0,15,,,11,,,52,51
80396,note_on,,,,,133,0,14,,,10,,,57,52
80407,note_on,,,,,33,0,13,,,8,,,61,72
80421,note_off,,,,,14,0,13,,,8,,,62,64
80445,note_off,,,,,24,0,13,,,8,,,61,64
80449,note_on,,,,,4,0,13,,,8,,,62,66
80480,note_on,,,,,31,0,13,,,8,,,61,68
80502,note_off,,,,,106,0,14,,,10,,,57,64
80504,note_off,,,,,127,0,16,,,12,,,45,64
80507,note_off,,,,,27,0,13,,,8,,,62,64
80510,note_off,,,,,120,0,15,,,11,,,52,64
80548,note_off,,,,,41,0,13,,,8,,,61,64
80624,note_on,,,,,122,0,14,,,10,,,57,46
80640,note_on,,,,,92,0,13,,,8,,,62,57
80644,note_on,,,,,140,0,16,,,12,,,38,59
80647,note_on,,,,,137,0,15,,,11,,,54,53
81139,note_off,,,,,499,0,13,,,8,,,62,64
81187,note_off,,,,,543,0,16,,,12,,,38,64
81188,note_off,,,,,541,0,15,,,11,,,54,64
81212,note_off,,,,,588,0,14,,,10,,,57,64
81345,note_on,,,,,23183,0,6,,,10,,,74,66
81349,note_on,,,,,69297,0,1,,,4,,,78,66
81350,note_on,,,,,23211,0,5,,,8,,,78,76
81352,note_on,,,,,23181,0,7,,,11,,,69,72
81355,note_on,,,,,69266,0,4,,,7,,,62,74
81355,note_on,,,,,69325,0,2,,,5,,,74,63
81358,note_on,,,,,23178,0,8,,,12,,,62,78
81360,set_tempo,,,,,34560,1,0,535714,,,,,,
81360,marker,,,,,0,1,0,,,,,,,
81368,note_on,,,,,69288,0,3,,,6,,,69,66
81446,note_off,,,,,97,0,1,,,4,,,78,64
81451,note_off,,,,,101,0,5,,,8,,,78,64
81459,note_on,,,,,13,0,1,,,4,,,79,72
81459,note_on,,,,,8,0,5,,,8,,,79,76
81466,note_on,,,,,111,0,4,,,7,,,61,57
81469,note_on,,,,,111,0,8,,,12,,,61,63
81474,note_off,,,,,8,0,4,,,7,,,62,64
81474,note_off,,,,,106,0,3,,,6,,,69,64
81480,note_off,,,,,128,0,7,,,11,,,69,64
81483,note_off,,,,,14,0,8,,,12,,,62,64
81517,note_off,,,,,172,0,6,,,10,,,74,64
81552,note_off,,,,,197,0,2,,,5,,,74,64
81570,note_off,,,,,111,0,1,,,4,,,79,64
81574,note_off,,,,,115,0,5,,,8,,,79,64
81577,note_on,,,,,7,0,1,,,4,,,81,64
81586,note_on,,,,,12,0,5,,,8,,,81,66
81588,note_on,,,,,114,0,4,,,7,,,59,61
81588,note_on,,,,,36,0,2,,,5,,,74,72
81588,note_on,,,,,105,0,8,,,12,,,59,64
81590,note_on,,,,,110,0,7,,,11,,,62,64
81592,note_on,,,,,118,0,3,,,6,,,62,70
81596,note_off,,,,,8,0,8,,,12,,,61,64
81596,note_on,,,,,79,0,6,,,10,,,74,70
81601,note_off,,,,,13,0,4,,,7,,,61,64
81675,note_on,,,,,98,0,1,,,4,,,79,52
81676,note_off,,,,,1,0,1,,,4,,,81,64
81678,note_on,,,,,92,0,5,,,8,,,79,57
81680,note_off,,,,,2,0,5,,,8,,,81,64
81695,note_on,,,,,99,0,8,,,12,,,57,60
81697,note_off,,,,,2,0,8,,,12,,,59,64
81698,note_off,,,,,110,0,2,,,5,,,74,64
81701,note_off,,,,,100,0,4,,,7,,,59,64
81702,note_on,,,,,1,0,4,,,7,,,57,59
81706,note_on,,,,,110,0,6,,,10,,,73,59
81708,note_on,,,,,10,0,2,,,5,,,73,54
81709,note_off,,,,,117,0,3,,,6,,,62,64
81715,note_off,,,,,9,0,6,,,10,,,74,64
81723,note_off,,,,,47,0,1,,,4,,,79,64
81727,note_on,,,,,0,0,5,,,8,,,81,62
81727,note_off,,,,,47,0,5,,,8,,,79,64
81727,note_off,,,,,137,0,7,,,11,,,62,64
81731,note_on,,,,,8,0,1,,,4,,,81,57
81768,note_on,,,,,41,0,5,,,8,,,79,58
81770,note_off,,,,,39,0,1,,,4,,,81,64
81770,note_on,,,,,0,0,1,,,4,,,79,57
81771,note_off,,,,,3,0,5,,,8,,,81,64
81798,note_off,,,,,90,0,2,,,5,,,73,64
81800,note_off,,,,,98,0,4,,,7,,,57,64
81801,note_on,,,,,0,0,5,,,8,,,81,59
81801,note_off,,,,,30,0,5,,,8,,,79,64
81805,note_off,,,,,35,0,1,,,4,,,79,64
81805,note_off,,,,,90,0,6,,,10,,,73,64
81805,note_off,,,,,108,0,8,,,12,,,57,64
81805,note_on,,,,,0,0,1,,,4,,,81,66
81814,note_on,,,,,16,0,2,,,5,,,74,70
81816,note_on,,,,,11,0,6,,,10,,,74,76
81819,note_on,,,,,19,0,4,,,7,,,59,63
81824,note_on,,,,,97,0,7,,,11,,,71,78
81824,note_on,,,,,19,0,8,,,12,,,59,74
81827,note_on,,,,,118,0,3,,,6,,,71,76
81829,note_on,,,,,28,0,5,,,8,,,79,57
81832,note_off,,,,,3,0,5,,,8,,,81,64
81840,note_on,,,,,0,0,1,,,4,,,79,63
81840,note_off,,,,,35,0,1,,,4,,,81,64
81854,note_on,,,,,22,0,5,,,8,,,81,64
81855,note_off,,,,,1,0,5,,,8,,,79,64
81871,note_off,,,,,31,0,1,,,4,,,79,64
81872,note_on,,,,,1,0,1,,,4,,,81,72
81884,note_on,,,,,29,0,5,,,8,,,79,72
81910,note_on,,,,,38,0,1,,,4,,,79,62
81910,note_off,,,,,91,0,4,,,7,,,59,64
81916,note_off,,,,,6,0,1,,,4,,,81,64
81925,note_off,,,,,101,0,8,,,12,,,59,64
81928,note_on,,,,,18,0,4,,,7,,,55,63
81930,note_off,,,,,103,0,3,,,6,,,71,64
81934,note_on,,,,,9,0,8,,,12,,,55,72
81937,note_off,,,,,53,0,5,,,8,,,81,64
81945,note_off,,,,,131,0,2,,,5,,,74,64
81946,note_on,,,,,9,0,5,,,8,,,78,58
81947,note_off,,,,,131,0,6,,,10,,,74,64
81952,note_on,,,,,36,0,1,,,4,,,78,60
81956,note_off,,,,,132,0,7,,,11,,,71,64
81957,note_off,,,,,5,0,1,,,4,,,79,64
81968,note_off,,,,,22,0,5,,,8,,,79,64
81998,note_off,,,,,41,0,1,,,4,,,78,64
81998,note_on,,,,,30,0,5,,,8,,,79,80
81999,note_on,,,,,1,0,1,,,4,,,79,72
82028,note_off,,,,,30,0,5,,,8,,,78,64
82043,note_off,,,,,115,0,4,,,7,,,55,64
82054,note_off,,,,,120,0,8,,,12,,,55,64
82055,note_on,,,,,110,0,2,,,5,,,74,68
82064,note_off,,,,,36,0,5,,,8,,,79,64
82065,note_on,,,,,118,0,6,,,10,,,74,74
82065,note_on,,,,,22,0,4,,,7,,,54,57
82070,note_on,,,,,6,0,5,,,8,,,81,70
82072,note_on,,,,,18,0,8,,,12,,,54,63
82072,note_off,,,,,73,0,1,,,4,,,79,64
82076,note_on,,,,,120,0,7,,,11,,,69,70
82089,note_on,,,,,159,0,3,,,6,,,69,55
82090,note_on,,,,,18,0,1,,,4,,,81,78
82188,note_on,,,,,118,0,5,,,8,,,79,64
82191,note_off,,,,,101,0,1,,,4,,,81,64
82194,note_off,,,,,6,0,5,,,8,,,81,64
82199,note_on,,,,,8,0,1,,,4,,,79,70
82297,note_off,,,,,98,0,1,,,4,,,79,64
82304,note_on,,,,,110,0,5,,,8,,,78,66
82314,note_on,,,,,17,0,1,,,4,,,78,60
82318,note_off,,,,,14,0,5,,,8,,,79,64
82407,note_on,,,,,89,0,5,,,8,,,79,80
82410,note_off,,,,,3,0,5,,,8,,,78,64
82424,note_on,,,,,110,0,1,,,4,,,76,62
82429,note_off,,,,,5,0,1,,,4,,,78,64
82515,note_off,,,,,105,0,5,,,8,,,79,64
82530,note_off,,,,,101,0,1,,,4,,,76,64
82541,note_on,,,,,26,0,5,,,8,,,81,89
82542,note_on,,,,,12,0,1,,,4,,,74,70
82658,note_off,,,,,116,0,1,,,4,,,74,64
82658,note_on,,,,,0,0,1,,,4,,,73,57
82683,note_off,,,,,618,0,4,,,7,,,54,64
82689,note_off,,,,,600,0,3,,,6,,,69,64
82698,note_off,,,,,626,0,8,,,12,,,54,64
82700,note_off,,,,,635,0,6,,,10,,,74,64
82711,note_off,,,,,635,0,7,,,11,,,69,64
82712,note_off,,,,,171,0,5,,,8,,,81,64
82721,note_off,,,,,666,0,2,,,5,,,74,64
82769,note_off,,,,,111,0,1,,,4,,,73,64
82786,note_on,,,,,75,0,7,,,11,,,62,64
82786,note_on,,,,,74,0,5,,,8,,,71,64
82786,note_on,,,,,88,0,8,,,12,,,55,78
82786,note_on,,,,,86,0,6,,,10,,,67,60
82788,note_on,,,,,19,0,1,,,4,,,71,66
82788,note_on,,,,,105,0,4,,,7,,,55,68
82795,note_on,,,,,106,0,3,,,6,,,62,58
82799,note_on,,,,,78,0,2,,,5,,,67,80
82887,note_off,,,,,99,0,4,,,7,,,55,64
82893,note_off,,,,,105,0,1,,,4,,,71,64
82895,note_off,,,,,109,0,5,,,8,,,71,64
82902,note_off,,,,,103,0,2,,,5,,,67,64
82906,note_off,,,,,111,0,3,,,6,,,62,64
82912,note_off,,,,,126,0,8,,,12,,,55,64
82914,note_off,,,,,128,0,6,,,10,,,67,64
82918,note_off,,,,,132,0,7,,,11,,,62,64
83026,note_on,,,,,108,0,7,,,11,,,67,70
83028,note_on,,,,,133,0,5,,,8,,,76,85
83034,note_on,,,,,128,0,3,,,6,,,67,66
83036,note_on,,,,,124,0,8,,,12,,,52,80
83036,note_on,,,,,122,0,6,,,10,,,71,72
83039,note_on,,,,,137,0,2,,,5,,,71,68
83039,note_on,,,,,146,0,1,,,4,,,76,76
83041,note_on,,,,,154,0,4,,,7,,,52,72
83125,note_off,,,,,86,0,1,,,4,,,76,64
83144,note_off,,,,,103,0,4,,,7,,,52,64
83145,note_off,,,,,106,0,2,,,5,,,71,64
83145,note_off,,,,,117,0,5,,,8,,,76,64
83146,note_off,,,,,112,0,3,,,6,,,67,64
83151,note_off,,,,,115,0,8,,,12,,,52,64
83159,note_off,,,,,133,0,7,,,11,,,67,64
83162,note_off,,,,,126,0,6,,,10,,,71,64
83269,note_on,,,,,110,0,7,,,11,,,64,68
83276,note_on,,,,,131,0,5,,,8,,,73,60
83277,note_on,,,,,126,0,8,,,12,,,57,80
83280,note_on,,,,,155,0,1,,,4,,,73,62
83281,note_on,,,,,137,0,4,,,7,,,57,70
83281,note_on,,,,,135,0,3,,,6,,,64,61
83281,note_on,,,,,119,0,6,,,10,,,69,64
83283,note_on,,,,,138,0,2,,,5,,,69,62
83361,note_off,,,,,81,0,1,,,4,,,73,64
83375,note_off,,,,,92,0,2,,,5,,,69,64
83383,note_off,,,,,102,0,4,,,7,,,57,64
83392,note_off,,,,,115,0,8,,,12,,,57,64
83396,note_off,,,,,120,0,5,,,8,,,73,64
83396,note_off,,,,,115,0,3,,,6,,,64,64
83409,note_off,,,,,128,0,6,,,10,,,69,64
83421,note_off,,,,,152,0,7,,,11,,,64,64
83514,note_on,,,,,153,0,1,,,4,,,74,76
83515,note_on,,,,,119,0,3,,,6,,,66,58
83518,note_on,,,,,97,0,7,,,11,,,66,76
83518,note_on,,,,,126,0,8,,,12,,,54,68
83522,note_on,,,,,126,0,5,,,8,,,74,85
83523,note_on,,,,,114,0,6,,,10,,,69,63
83530,note_on,,,,,147,0,4,,,7,,,54,64
83530,note_on,,,,,155,0,2,,,5,,,69,59
83623,note_off,,,,,109,0,1,,,4,,,74,64
83627,note_on,,,,,4,0,1,,,4,,,73,49
83630,note_on,,,,,112,0,7,,,11,,,64,70
83635,note_off,,,,,120,0,3,,,6,,,66,64
83637,note_off,,,,,107,0,4,,,7,,,54,64
83637,note_on,,,,,115,0,5,,,8,,,73,58
83637,note_on,,,,,2,0,3,,,6,,,64,59
83640,note_off,,,,,10,0,7,,,11,,,66,64
83642,note_off,,,,,5,0,5,,,8,,,74,64
83646,note_off,,,,,128,0,8,,,12,,,54,64
83746,note_off,,,,,119,0,1,,,4,,,73,64
83749,note_off,,,,,107,0,5,,,8,,,73,64
83753,note_on,,,,,7,0,1,,,4,,,74,70
83753,note_on,,,,,113,0,7,,,11,,,66,68
83758,note_on,,,,,9,0,5,,,8,,,74,68
83758,note_on,,,,,112,0,8,,,12,,,52,82
83762,note_on,,,,,125,0,3,,,6,,,66,60
83763,note_off,,,,,10,0,7,,,11,,,64,64
83766,note_on,,,,,129,0,4,,,7,,,52,80
83773,note_off,,,,,11,0,3,,,6,,,64,64
83854,note_off,,,,,88,0,4,,,7,,,52,64
83858,note_off,,,,,100,0,8,,,12,,,52,64
83861,note_off,,,,,331,0,2,,,5,,,69,64
83865,note_on,,,,,107,0,5,,,8,,,76,72
83868,note_off,,,,,115,0,1,,,4,,,74,64
83869,note_on,,,,,106,0,7,,,11,,,67,74
83872,note_on,,,,,4,0,1,,,4,,,76,68
83875,note_off,,,,,102,0,3,,,6,,,66,64
83877,note_off,,,,,12,0,5,,,8,,,74,64
83880,note_on,,,,,5,0,3,,,6,,,67,68
83886,note_off,,,,,17,0,7,,,11,,,66,64
83909,note_off,,,,,386,0,6,,,10,,,69,64
83963,note_off,,,,,91,0,1,,,4,,,76,64
83972,note_off,,,,,95,0,5,,,8,,,76,64
83981,note_on,,,,,9,0,5,,,8,,,78,68
83982,note_off,,,,,102,0,3,,,6,,,67,64
83986,note_on,,,,,23,0,1,,,4,,,78,66
83988,note_on,,,,,130,0,8,,,12,,,50,68
83990,note_off,,,,,104,0,7,,,11,,,67,64
83990,note_on,,,,,0,0,7,,,11,,,69,70
83992,note_on,,,,,131,0,2,,,5,,,74,70
83995,note_on,,,,,141,0,4,,,7,,,50,68
84003,note_on,,,,,21,0,3,,,6,,,69,76
84005,note_on,,,,,96,0,6,,,10,,,74,68
84083,note_off,,,,,97,0,1,,,4,,,78,64
84087,note_off,,,,,106,0,5,,,8,,,78,64
84097,note_off,,,,,109,0,8,,,12,,,50,64
84100,note_off,,,,,108,0,2,,,5,,,74,64
84104,note_off,,,,,109,0,4,,,7,,,50,64
84105,note_on,,,,,18,0,5,,,8,,,74,76
84106,note_on,,,,,23,0,1,,,4,,,74,68
84123,note_off,,,,,118,0,6,,,10,,,74,64
84141,note_off,,,,,151,0,7,,,11,,,69,64
84147,note_off,,,,,144,0,3,,,6,,,69,64
84200,note_off,,,,,95,0,5,,,8,,,74,64
84201,note_off,,,,,95,0,1,,,4,,,74,64
84224,note_on,,,,,24,0,5,,,8,,,76,82
84226,note_on,,,,,126,0,2,,,5,,,69,64
84228,note_on,,,,,27,0,1,,,4,,,76,85
84232,note_on,,,,,128,0,4,,,7,,,49,64
84232,note_on,,,,,135,0,8,,,12,,,49,78
84232,note_on,,,,,91,0,7,,,11,,,64,76
84237,note_on,,,,,114,0,6,,,10,,,69,70
84253,note_on,,,,,106,0,3,,,6,,,64,64
84332,note_off,,,,,100,0,8,,,12,,,49,64
84335,note_off,,,,,107,0,1,,,4,,,76,64
84335,note_on,,,,,3,0,8,,,12,,,47,76
84340,note_off,,,,,114,0,2,,,5,,,69,64
84341,note_off,,,,,109,0,4,,,7,,,49,64
84342,note_on,,,,,1,0,4,,,7,,,47,70
84342,note_off,,,,,118,0,5,,,8,,,76,64
84342,note_off,,,,,110,0,7,,,11,,,64,64
84346,note_on,,,,,4,0,5,,,8,,,78,64
84349,note_on,,,,,14,0,1,,,4,,,78,60
84360,note_off,,,,,123,0,6,,,10,,,69,64
84360,note_off,,,,,107,0,3,,,6,,,64,64
84443,note_off,,,,,94,0,1,,,4,,,78,64
84450,note_on,,,,,104,0,5,,,8,,,79,76
84454,note_off,,,,,112,0,4,,,7,,,47,64
84455,note_on,,,,,120,0,8,,,12,,,45,64
84456,note_on,,,,,2,0,4,,,7,,,45,59
84456,note_off,,,,,6,0,5,,,8,,,78,64
84459,note_off,,,,,4,0,8,,,12,,,47,64
84459,note_on,,,,,16,0,1,,,4,,,79,80
84463,note_on,,,,,123,0,2,,,5,,,73,63
84465,note_on,,,,,123,0,7,,,11,,,69,80
84477,note_on,,,,,117,0,3,,,6,,,69,76
84480,note_on,,,,,120,0,6,,,10,,,73,64
84535,note_on,,,,,79,0,5,,,8,,,78,62
84537,note_off,,,,,2,0,5,,,8,,,79,64
84559,note_on,,,,,100,0,1,,,4,,,78,57
84561,note_off,,,,,2,0,1,,,4,,,79,64
84564,note_off,,,,,105,0,8,,,12,,,45,64
84565,note_off,,,,,109,0,4,,,7,,,45,64
84569,note_on,,,,,5,0,8,,,12,,,43,74
84570,note_on,,,,,5,0,4,,,7,,,43,66
84574,note_off,,,,,111,0,2,,,5,,,73,64
84583,note_off,,,,,46,0,5,,,8,,,78,64
84583,note_off,,,,,118,0,7,,,11,,,69,64
84583,note_off,,,,,103,0,6,,,10,,,73,64
84586,note_off,,,,,109,0,3,,,6,,,69,64
84589,note_on,,,,,6,0,5,,,8,,,79,66
84609,note_off,,,,,48,0,1,,,4,,,78,64
84614,note_on,,,,,5,0,1,,,4,,,79,64
84627,note_on,,,,,38,0,5,,,8,,,78,57
84630,note_off,,,,,3,0,5,,,8,,,79,64
84656,note_on,,,,,42,0,1,,,4,,,78,62
84657,note_off,,,,,27,0,5,,,8,,,78,64
84660,note_on,,,,,3,0,5,,,8,,,79,63
84662,note_off,,,,,6,0,1,,,4,,,79,64
84683,note_off,,,,,114,0,8,,,12,,,43,64
84683,note_on,,,,,0,0,8,,,12,,,45,66
84683,note_off,,,,,113,0,4,,,7,,,43,64
84690,note_on,,,,,30,0,5,,,8,,,78,57
84690,note_on,,,,,7,0,4,,,7,,,45,66
84690,note_on,,,,,0,0,1,,,4,,,79,63
84690,note_off,,,,,28,0,1,,,4,,,78,64
84696,note_off,,,,,6,0,5,,,8,,,79,64
84703,note_on,,,,,129,0,2,,,5,,,69,70
84703,note_on,,,,,120,0,7,,,11,,,61,63
84709,note_on,,,,,123,0,3,,,6,,,61,58
84709,note_on,,,,,126,0,6,,,10,,,69,62
84721,note_off,,,,,25,0,5,,,8,,,78,64
84722,note_on,,,,,1,0,5,,,8,,,79,70
84726,note_on,,,,,36,0,1,,,4,,,78,53
84727,note_off,,,,,1,0,1,,,4,,,79,64
84744,note_off,,,,,17,0,1,,,4,,,78,64
84754,note_on,,,,,10,0,1,,,4,,,79,57
84756,note_off,,,,,34,0,5,,,8,,,79,64
84776,note_on,,,,,20,0,5,,,8,,,79,59
84783,note_on,,,,,29,0,1,,,4,,,78,60
84801,note_on,,,,,25,0,5,,,8,,,78,60
84802,note_off,,,,,19,0,1,,,4,,,79,64
84802,note_off,,,,,119,0,8,,,12,,,45,64
84802,note_on,,,,,0,0,8,,,12,,,42,60
84810,note_off,,,,,107,0,2,,,5,,,69,64
84813,note_off,,,,,12,0,5,,,8,,,79,64
84813,note_on,,,,,123,0,4,,,7,,,42,54
84817,note_off,,,,,108,0,6,,,10,,,69,64
84817,note_off,,,,,108,0,3,,,6,,,61,64
84818,note_off,,,,,115,0,7,,,11,,,61,64
84822,note_off,,,,,9,0,4,,,7,,,45,64
84830,note_off,,,,,28,0,1,,,4,,,78,64
84830,note_on,,,,,17,0,5,,,8,,,76,68
84835,note_on,,,,,5,0,1,,,4,,,76,70
84840,note_off,,,,,10,0,5,,,8,,,78,64
84878,note_on,,,,,38,0,5,,,8,,,78,70
84889,note_on,,,,,54,0,1,,,4,,,78,59
84902,note_off,,,,,24,0,5,,,8,,,76,64
84913,note_off,,,,,111,0,8,,,12,,,42,64
84914,note_off,,,,,25,0,1,,,4,,,76,64
84926,note_off,,,,,24,0,5,,,8,,,78,64
84926,note_off,,,,,104,0,4,,,7,,,42,64
84933,note_on,,,,,20,0,8,,,12,,,47,82
84938,note_on,,,,,12,0,5,,,8,,,79,87
84941,note_on,,,,,131,0,2,,,5,,,74,74
84941,note_on,,,,,124,0,6,,,10,,,74,78
84942,note_off,,,,,28,0,1,,,4,,,78,64
84946,note_on,,,,,20,0,4,,,7,,,47,66
84950,note_on,,,,,133,0,3,,,6,,,62,76
84950,note_on,,,,,132,0,7,,,11,,,62,68
84957,note_on,,,,,15,0,1,,,4,,,79,76
85047,note_off,,,,,106,0,2,,,5,,,74,64
85054,note_off,,,,,121,0,8,,,12,,,47,64
85055,note_on,,,,,117,0,5,,,8,,,78,59
85055,note_off,,,,,114,0,6,,,10,,,74,64
85058,note_off,,,,,108,0,3,,,6,,,62,64
85064,note_off,,,,,114,0,7,,,11,,,62,64
85068,note_off,,,,,13,0,5,,,8,,,79,64
85075,note_on,,,,,118,0,1,,,4,,,78,63
85078,note_off,,,,,3,0,1,,,4,,,79,64
85081,note_off,,,,,135,0,4,,,7,,,47,64
85157,note_off,,,,,89,0,5,,,8,,,78,64
85165,note_on,,,,,8,0,5,,,8,,,76,63
85176,note_off,,,,,98,0,1,,,4,,,78,64
85182,note_on,,,,,101,0,4,,,7,,,49,57
85183,note_on,,,,,129,0,8,,,12,,,49,70
85185,note_on,,,,,130,0,6,,,10,,,76,78
85187,note_on,,,,,140,0,2,,,5,,,76,80
85192,note_on,,,,,134,0,3,,,6,,,69,68
85192,note_on,,,,,128,0,7,,,11,,,69,78
85198,note_on,,,,,22,0,1,,,4,,,76,70
85278,note_on,,,,,113,0,5,,,8,,,78,61
85282,note_off,,,,,97,0,6,,,10,,,76,64
85286,note_off,,,,,104,0,4,,,7,,,49,64
85288,note_off,,,,,101,0,2,,,5,,,76,64
85291,note_off,,,,,13,0,5,,,8,,,76,64
85300,note_off,,,,,117,0,8,,,12,,,49,64
85308,note_on,,,,,110,0,1,,,4,,,78,62
85312,note_off,,,,,4,0,1,,,4,,,76,64
85397,note_off,,,,,106,0,5,,,8,,,78,64
85404,note_off,,,,,92,0,1,,,4,,,78,64
85405,note_on,,,,,8,0,5,,,8,,,79,68
85414,note_on,,,,,132,0,6,,,10,,,73,54
85419,note_on,,,,,119,0,8,,,12,,,45,60
85422,note_on,,,,,18,0,1,,,4,,,79,70
85426,note_on,,,,,138,0,2,,,5,,,73,57
85431,note_on,,,,,145,0,4,,,7,,,45,64
85515,note_off,,,,,110,0,5,,,8,,,79,64
85527,note_off,,,,,105,0,1,,,4,,,79,64
85529,note_on,,,,,14,0,5,,,8,,,76,70
85531,note_off,,,,,100,0,4,,,7,,,45,64
85534,note_off,,,,,120,0,6,,,10,,,73,64
85539,note_on,,,,,12,0,1,,,4,,,76,68
85542,note_off,,,,,116,0,2,,,5,,,73,64
85549,note_off,,,,,130,0,8,,,12,,,45,64
85554,note_off,,,,,362,0,3,,,6,,,69,64
85572,note_off,,,,,380,0,7,,,11,,,69,64
85611,note_off,,,,,82,0,5,,,8,,,76,64
85629,note_off,,,,,90,0,1,,,4,,,76,64
85645,note_on,,,,,111,0,6,,,10,,,74,70
85655,note_on,,,,,44,0,5,,,8,,,78,64
85659,note_on,,,,,117,0,2,,,5,,,74,78
85660,note_on,,,,,111,0,8,,,12,,,50,82
85663,note_on,,,,,34,0,1,,,4,,,78,64
85667,note_on,,,,,113,0,3,,,6,,,69,72
85668,note_on,,,,,137,0,4,,,7,,,50,68
85672,note_on,,,,,100,0,7,,,11,,,69,76
85756,note_off,,,,,111,0,6,,,10,,,74,64
85760,note_off,,,,,92,0,4,,,7,,,50,64
85765,note_off,,,,,102,0,1,,,4,,,78,64
85765,note_off,,,,,110,0,5,,,8,,,78,64
85765,note_off,,,,,106,0,2,,,5,,,74,64
85773,note_on,,,,,17,0,6,,,10,,,76,64
85774,note_on,,,,,9,0,5,,,8,,,80,70
85782,note_off,,,,,122,0,8,,,12,,,50,64
85782,note_off,,,,,115,0,3,,,6,,,69,64
85782,note_on,,,,,17,0,2,,,5,,,76,68
85785,note_on,,,,,20,0,1,,,4,,,80,74
85793,note_off,,,,,121,0,7,,,11,,,69,64
85868,note_off,,,,,94,0,5,,,8,,,80,64
85872,note_off,,,,,87,0,1,,,4,,,80,64
85877,note_off,,,,,95,0,2,,,5,,,76,64
85885,note_on,,,,,17,0,5,,,8,,,81,66
85891,note_on,,,,,109,0,8,,,12,,,47,64
85894,note_on,,,,,121,0,6,,,10,,,74,80
85900,note_on,,,,,23,0,2,,,5,,,74,78
85905,note_on,,,,,112,0,7,,,11,,,62,70
85907,note_on,,,,,35,0,1,,,4,,,81,80
85907,note_on,,,,,125,0,3,,,6,,,62,82
85909,note_off,,,,,15,0,6,,,10,,,76,64
85917,note_on,,,,,157,0,4,,,7,,,47,68
85977,note_on,,,,,0,0,5,,,8,,,80,60
85977,note_off,,,,,92,0,5,,,8,,,81,64
85992,note_on,,,,,85,0,1,,,4,,,80,64
85999,note_off,,,,,7,0,1,,,4,,,81,64
86005,note_off,,,,,105,0,2,,,5,,,74,64
86008,note_on,,,,,99,0,6,,,10,,,73,66
86008,note_off,,,,,91,0,4,,,7,,,47,64
86015,note_off,,,,,108,0,3,,,6,,,62,64
86015,note_off,,,,,124,0,8,,,12,,,47,64
86021,note_off,,,,,116,0,7,,,11,,,62,64
86022,note_on,,,,,17,0,2,,,5,,,73,60
86026,note_off,,,,,18,0,6,,,10,,,74,64
86026,note_off,,,,,49,0,5,,,8,,,80,64
86029,note_on,,,,,3,0,5,,,8,,,81,64
86039,note_off,,,,,40,0,1,,,4,,,80,64
86045,note_on,,,,,6,0,1,,,4,,,81,61
86074,note_on,,,,,45,0,5,,,8,,,80,55
86075,note_off,,,,,1,0,5,,,8,,,81,64
86085,note_on,,,,,40,0,1,,,4,,,80,62
86089,note_off,,,,,4,0,1,,,4,,,81,64
86097,note_off,,,,,22,0,5,,,8,,,80,64
86100,note_on,,,,,3,0,5,,,8,,,81,66
86117,note_off,,,,,28,0,1,,,4,,,80,64
86117,note_off,,,,,95,0,2,,,5,,,73,64
86120,note_on,,,,,3,0,1,,,4,,,81,66
86131,note_on,,,,,105,0,6,,,10,,,74,66
86132,note_off,,,,,1,0,6,,,10,,,73,64
86136,note_on,,,,,19,0,2,,,5,,,74,72
86137,note_on,,,,,37,0,5,,,8,,,80,60
86139,note_off,,,,,2,0,5,,,8,,,81,64
86140,note_on,,,,,125,0,8,,,12,,,52,82
86142,note_on,,,,,134,0,4,,,7,,,52,68
86145,note_on,,,,,130,0,3,,,6,,,64,70
86146,note_on,,,,,125,0,7,,,11,,,64,70
86155,note_on,,,,,35,0,1,,,4,,,80,60
86158,note_off,,,,,3,0,1,,,4,,,81,64
86164,note_on,,,,,25,0,5,,,8,,,81,66
86168,note_off,,,,,4,0,5,,,8,,,80,64
86181,note_off,,,,,23,0,1,,,4,,,80,64
86188,note_on,,,,,7,0,1,,,4,,,81,54
86201,note_on,,,,,33,0,5,,,8,,,80,62
86218,note_off,,,,,17,0,5,,,8,,,81,64
86220,note_on,,,,,32,0,1,,,4,,,80,66
86232,note_off,,,,,12,0,1,,,4,,,81,64
86236,note_off,,,,,100,0,2,,,5,,,74,64
86246,note_off,,,,,104,0,4,,,7,,,52,64
86247,note_off,,,,,107,0,8,,,12,,,52,64
86249,note_off,,,,,117,0,6,,,10,,,74,64
86251,note_on,,,,,2,0,6,,,10,,,71,66
86251,note_off,,,,,33,0,5,,,8,,,80,64
86253,note_on,,,,,2,0,5,,,8,,,78,51
86253,note_off,,,,,108,0,3,,,6,,,64,64
86258,note_off,,,,,112,0,7,,,11,,,64,64
86258,note_on,,,,,22,0,2,,,5,,,71,68
86266,note_off,,,,,34,0,1,,,4,,,80,64
86280,note_on,,,,,14,0,1,,,4,,,78,53
86291,note_on,,,,,38,0,5,,,8,,,80,64
86315,note_off,,,,,24,0,5,,,8,,,78,64
86316,note_on,,,,,36,0,1,,,4,,,80,53
86332,note_off,,,,,74,0,2,,,5,,,71,64
86339,note_off,,,,,23,0,1,,,4,,,78,64
86354,note_off,,,,,39,0,5,,,8,,,80,64
86371,note_on,,,,,17,0,5,,,8,,,81,68
86376,note_off,,,,,37,0,1,,,4,,,80,64
86377,note_off,,,,,126,0,6,,,10,,,71,64
86380,note_on,,,,,48,0,2,,,5,,,73,59
86387,note_on,,,,,10,0,6,,,10,,,73,57
86391,note_on,,,,,144,0,8,,,12,,,45,64
86393,note_on,,,,,17,0,1,,,4,,,81,64
86399,note_on,,,,,146,0,3,,,6,,,64,64
86399,note_on,,,,,141,0,7,,,11,,,64,80
86403,note_on,,,,,157,0,4,,,7,,,45,76
86529,note_off,,,,,126,0,4,,,7,,,45,64
86577,note_off,,,,,186,0,8,,,12,,,45,64
86638,note_on,,,,,61,0,8,,,12,,,57,66
86639,note_on,,,,,110,0,4,,,7,,,57,68
86739,note_off,,,,,100,0,4,,,7,,,57,64
86740,note_on,,,,,102,0,8,,,12,,,59,70
86744,note_off,,,,,4,0,8,,,12,,,57,64
86750,note_on,,,,,11,0,4,,,7,,,59,64
86832,note_off,,,,,88,0,8,,,12,,,59,64
86835,note_off,,,,,85,0,4,,,7,,,59,64
86864,note_on,,,,,32,0,8,,,12,,,61,80
86875,note_on,,,,,40,0,4,,,7,,,61,64
86941,note_off,,,,,548,0,1,,,4,,,81,64
86942,note_off,,,,,562,0,2,,,5,,,73,64
86959,note_off,,,,,572,0,6,,,10,,,73,64
86968,note_off,,,,,597,0,5,,,8,,,81,64
86968,note_off,,,,,104,0,8,,,12,,,61,64
86969,note_on,,,,,1,0,8,,,12,,,57,72
86973,note_off,,,,,574,0,7,,,11,,,64,64
86974,note_off,,,,,99,0,4,,,7,,,61,64
86981,note_on,,,,,7,0,4,,,7,,,57,64
86990,note_off,,,,,591,0,3,,,6,,,64,64
87052,note_off,,,,,71,0,4,,,7,,,57,64
87052,note_off,,,,,83,0,8,,,12,,,57,64
87099,note_on,,,,,140,0,6,,,10,,,74,70
87100,note_on,,,,,48,0,8,,,12,,,62,89
87107,note_on,,,,,166,0,1,,,4,,,78,70
87107,note_on,,,,,134,0,7,,,11,,,69,78
87107,note_on,,,,,55,0,4,,,7,,,62,80
87114,note_on,,,,,124,0,3,,,6,,,69,68
87114,note_on,,,,,146,0,5,,,8,,,78,63
87120,note_on,,,,,178,0,2,,,5,,,74,70
87201,note_off,,,,,94,0,1,,,4,,,78,64
87208,note_off,,,,,101,0,4,,,7,,,62,64
87217,note_off,,,,,103,0,5,,,8,,,78,64
87221,note_on,,,,,4,0,5,,,8,,,79,78
87226,note_off,,,,,119,0,7,,,11,,,69,64
87227,note_on,,,,,19,0,4,,,7,,,61,55
87227,note_on,,,,,26,0,1,,,4,,,79,70
87229,note_on,,,,,129,0,8,,,12,,,61,62
87232,note_off,,,,,118,0,3,,,6,,,69,64
87245,note_off,,,,,16,0,8,,,12,,,62,64
87247,note_off,,,,,148,0,6,,,10,,,74,64
87248,note_off,,,,,128,0,2,,,5,,,74,64
87308,note_off,,,,,63,0,8,,,12,,,61,64
87327,note_on,,,,,19,0,8,,,12,,,59,60
87327,note_off,,,,,100,0,1,,,4,,,79,64
87330,note_off,,,,,103,0,4,,,7,,,61,64
87330,note_off,,,,,109,0,5,,,8,,,79,64
87332,note_on,,,,,2,0,5,,,8,,,81,66
87333,note_on,,,,,3,0,4,,,7,,,59,78
87333,note_on,,,,,6,0,1,,,4,,,81,68
87341,note_on,,,,,94,0,6,,,10,,,74,80
87345,note_on,,,,,97,0,2,,,5,,,74,72
87346,note_on,,,,,114,0,3,,,6,,,62,62
87352,note_on,,,,,126,0,7,,,11,,,62,78
87436,note_off,,,,,103,0,4,,,7,,,59,64
87436,note_on,,,,,104,0,5,,,8,,,79,51
87437,note_off,,,,,104,0,1,,,4,,,81,64
87438,note_on,,,,,1,0,1,,,4,,,79,52
87439,note_off,,,,,3,0,5,,,8,,,81,64
87446,note_off,,,,,105,0,6,,,10,,,74,64
87449,note_off,,,,,122,0,8,,,12,,,59,64
87451,note_on,,,,,2,0,8,,,12,,,57,56
87453,note_on,,,,,7,0,6,,,10,,,73,64
87455,note_on,,,,,19,0,4,,,7,,,57,64
87455,note_off,,,,,110,0,2,,,5,,,74,64
87460,note_on,,,,,5,0,2,,,5,,,73,61
87469,note_off,,,,,123,0,3,,,6,,,62,64
87470,note_off,,,,,118,0,7,,,11,,,62,64
87479,note_on,,,,,40,0,5,,,8,,,81,66
87480,note_off,,,,,1,0,5,,,8,,,79,64
87480,note_off,,,,,42,0,1,,,4,,,79,64
87488,note_on,,,,,8,0,1,,,4,,,81,57
87523,note_on,,,,,0,0,5,,,8,,,79,55
87523,note_off,,,,,43,0,5,,,8,,,81,64
87527,note_on,,,,,0,0,1,,,4,,,79,57
87527,note_off,,,,,39,0,1,,,4,,,81,64
87547,note_off,,,,,92,0,4,,,7,,,57,64
87551,note_off,,,,,100,0,8,,,12,,,57,64
87554,note_on,,,,,0,0,5,,,8,,,81,66
87554,note_off,,,,,31,0,5,,,8,,,79,64
87558,note_off,,,,,31,0,1,,,4,,,79,64
87559,note_on,,,,,1,0,1,,,4,,,81,64
87563,note_off,,,,,103,0,2,,,5,,,73,64
87563,note_off,,,,,110,0,6,,,10,,,73,64
87571,note_on,,,,,20,0,8,,,12,,,59,72
87571,note_on,,,,,8,0,2,,,5,,,74,76
87571,note_on,,,,,8,0,6,,,10,,,74,82
87576,note_on,,,,,29,0,4,,,7,,,59,74
87584,note_on,,,,,30,0,5,,,8,,,79,66
87586,note_on,,,,,116,0,7,,,11,,,71,82
87586,note_on,,,,,117,0,3,,,6,,,71,82
87590,note_off,,,,,6,0,5,,,8,,,81,64
87594,note_on,,,,,35,0,1,,,4,,,79,70
87595,note_off,,,,,1,0,1,,,4,,,81,64
87620,note_on,,,,,0,0,5,,,8,,,81,60
87620,note_off,,,,,30,0,5,,,8,,,79,64
87628,note_off,,,,,33,0,1,,,4,,,79,64
87630,note_on,,,,,2,0,1,,,4,,,81,58
87645,note_on,,,,,25,0,5,,,8,,,79,56
87660,note_off,,,,,15,0,5,,,8,,,81,64
87664,note_on,,,,,34,0,1,,,4,,,79,60
87674,note_off,,,,,10,0,1,,,4,,,81,64
87678,note_off,,,,,102,0,4,,,7,,,59,64
87678,note_off,,,,,107,0,8,,,12,,,59,64
87683,note_off,,,,,112,0,2,,,5,,,74,64
87689,note_on,,,,,11,0,8,,,12,,,55,68
87689,note_on,,,,,29,0,5,,,8,,,78,68
87691,note_on,,,,,13,0,4,,,7,,,55,72
87695,note_off,,,,,109,0,3,,,6,,,71,64
87696,note_off,,,,,7,0,5,,,8,,,79,64
87699,note_off,,,,,128,0,6,,,10,,,74,64
87708,note_off,,,,,34,0,1,,,4,,,79,64
87709,note_off,,,,,123,0,7,,,11,,,71,64
87712,note_on,,,,,4,0,1,,,4,,,78,55
87733,note_on,,,,,37,0,5,,,8,,,79,72
87749,note_on,,,,,37,0,1,,,4,,,79,72
87749,note_off,,,,,16,0,5,,,8,,,78,64
87762,note_off,,,,,13,0,1,,,4,,,78,64
87772,note_off,,,,,81,0,4,,,7,,,55,64
87799,note_off,,,,,110,0,8,,,12,,,55,64
87807,note_off,,,,,45,0,1,,,4,,,79,64
87812,note_off,,,,,63,0,5,,,8,,,79,64
87812,note_on,,,,,129,0,2,,,5,,,74,72
87817,note_on,,,,,5,0,5,,,8,,,81,82
87820,note_on,,,,,21,0,8,,,12,,,54,61
87821,note_on,,,,,122,0,6,,,10,,,74,70
87822,note_on,,,,,50,0,4,,,7,,,54,55
87830,note_on,,,,,23,0,1,,,4,,,81,78
87831,note_on,,,,,136,0,3,,,6,,,69,66
87834,note_on,,,,,125,0,7,,,11,,,69,80
87935,note_on,,,,,118,0,5,,,8,,,79,68
87943,note_off,,,,,8,0,5,,,8,,,81,64
87946,note_off,,,,,116,0,1,,,4,,,81,64
87949,note_on,,,,,3,0,1,,,4,,,79,64
88050,note_on,,,,,107,0,5,,,8,,,78,58
88057,note_off,,,,,7,0,5,,,8,,,79,64
88061,note_off,,,,,112,0,1,,,4,,,79,64
88067,note_on,,,,,6,0,1,,,4,,,78,60
88162,note_on,,,,,105,0,5,,,8,,,79,70
88163,note_off,,,,,1,0,5,,,8,,,78,64
88189,note_off,,,,,122,0,1,,,4,,,78,64
88195,note_on,,,,,6,0,1,,,4,,,76,64
88284,note_on,,,,,121,0,5,,,8,,,81,68
88285,note_off,,,,,1,0,5,,,8,,,79,64
88298,note_off,,,,,103,0,1,,,4,,,76,64
88311,note_on,,,,,13,0,1,,,4,,,74,64
88423,note_off,,,,,112,0,1,,,4,,,74,64
88427,note_on,,,,,4,0,1,,,4,,,73,58
88434,note_off,,,,,600,0,7,,,11,,,69,64
88443,note_off,,,,,621,0,4,,,7,,,54,64
88452,note_off,,,,,167,0,5,,,8,,,81,64
88455,note_off,,,,,635,0,8,,,12,,,54,64
88462,note_off,,,,,650,0,2,,,5,,,74,64
88471,note_off,,,,,650,0,6,,,10,,,74,64
88478,note_off,,,,,647,0,3,,,6,,,69,64
88531,note_on,,,,,60,0,6,,,10,,,67,70
88532,note_off,,,,,105,0,1,,,4,,,73,64
88537,note_on,,,,,103,0,7,,,11,,,62,68
88541,note_on,,,,,89,0,5,,,8,,,71,72
88543,note_on,,,,,81,0,2,,,5,,,67,68
88549,note_on,,,,,106,0,4,,,7,,,55,78
88549,note_on,,,,,17,0,1,,,4,,,71,68
88552,note_on,,,,,74,0,3,,,6,,,62,60
88553,note_on,,,,,98,0,8,,,12,,,55,85
88650,note_off,,,,,119,0,6,,,10,,,67,64
88652,note_off,,,,,111,0,5,,,8,,,71,64
88655,note_off,,,,,112,0,2,,,5,,,67,64
88657,note_off,,,,,120,0,7,,,11,,,62,64
88658,note_off,,,,,106,0,3,,,6,,,62,64
88662,note_off,,,,,113,0,4,,,7,,,55,64
88668,note_off,,,,,119,0,1,,,4,,,71,64
88685,note_off,,,,,132,0,8,,,12,,,55,64
88776,note_on,,,,,126,0,6,,,10,,,71,70
88784,note_on,,,,,129,0,2,,,5,,,71,64
88788,note_on,,,,,103,0,8,,,12,,,52,57
88791,note_on,,,,,133,0,3,,,6,,,67,66
88791,note_on,,,,,139,0,5,,,8,,,76,82
88793,note_on,,,,,136,0,7,,,11,,,67,82
88794,note_on,,,,,126,0,1,,,4,,,76,70
88796,note_on,,,,,134,0,4,,,7,,,52,58
88890,note_off,,,,,96,0,1,,,4,,,76,64
88893,note_off,,,,,109,0,2,,,5,,,71,64
88896,note_off,,,,,120,0,6,,,10,,,71,64
88899,note_off,,,,,108,0,5,,,8,,,76,64
88900,note_off,,,,,109,0,3,,,6,,,67,64
88902,note_off,,,,,106,0,4,,,7,,,52,64
88906,note_off,,,,,118,0,8,,,12,,,52,64
88908,note_off,,,,,115,0,7,,,11,,,67,64
89025,note_on,,,,,132,0,2,,,5,,,69,63
89026,note_on,,,,,118,0,7,,,11,,,64,72
89026,note_on,,,,,120,0,8,,,12,,,57,82
89027,note_on,,,,,137,0,1,,,4,,,73,59
89031,note_on,,,,,129,0,4,,,7,,,57,80
89033,note_on,,,,,137,0,6,,,10,,,69,58
89034,note_on,,,,,135,0,5,,,8,,,73,56
89038,note_on,,,,,138,0,3,,,6,,,64,68
89126,note_off,,,,,101,0,2,,,5,,,69,64
89130,note_off,,,,,103,0,1,,,4,,,73,64
89139,note_off,,,,,106,0,6,,,10,,,69,64
89143,note_off,,,,,109,0,5,,,8,,,73,64
89145,note_off,,,,,119,0,8,,,12,,,57,64
89148,note_off,,,,,117,0,4,,,7,,,57,64
89149,note_off,,,,,111,0,3,,,6,,,64,64
89154,note_off,,,,,128,0,7,,,11,,,64,64
89263,note_on,,,,,114,0,3,,,6,,,66,57
89266,note_on,,,,,123,0,5,,,8,,,74,72
89268,note_on,,,,,129,0,6,,,10,,,69,63
89268,note_on,,,,,142,0,2,,,5,,,69,60
89270,note_on,,,,,116,0,7,,,11,,,66,80
89270,note_on,,,,,140,0,1,,,4,,,74,78
89270,note_on,,,,,125,0,8,,,12,,,54,68
89275,note_on,,,,,127,0,4,,,7,,,54,63
89380,note_off,,,,,110,0,1,,,4,,,74,64
89380,note_off,,,,,117,0,3,,,6,,,66,64
89382,note_on,,,,,2,0,3,,,6,,,64,57
89384,note_on,,,,,118,0,5,,,8,,,73,58
89384,note_on,,,,,114,0,7,,,11,,,64,68
89388,note_on,,,,,8,0,1,,,4,,,73,62
89390,note_off,,,,,6,0,7,,,11,,,66,64
89397,note_off,,,,,122,0,4,,,7,,,54,64
89397,note_off,,,,,13,0,5,,,8,,,74,64
89403,note_off,,,,,133,0,8,,,12,,,54,64
89490,note_off,,,,,102,0,1,,,4,,,73,64
89495,note_on,,,,,92,0,8,,,12,,,52,57
89496,note_on,,,,,0,0,7,,,11,,,66,78
89496,note_off,,,,,106,0,7,,,11,,,64,64
89504,note_off,,,,,122,0,3,,,6,,,64,64
89507,note_on,,,,,110,0,5,,,8,,,74,66
89507,note_on,,,,,3,0,3,,,6,,,66,60
89515,note_on,,,,,25,0,1,,,4,,,74,78
89517,note_on,,,,,120,0,4,,,7,,,52,68
89520,note_off,,,,,13,0,5,,,8,,,73,64
89605,note_on,,,,,109,0,7,,,11,,,67,70
89611,note_off,,,,,94,0,4,,,7,,,52,64
89616,note_off,,,,,121,0,8,,,12,,,52,64
89618,note_off,,,,,13,0,7,,,11,,,66,64
89620,note_on,,,,,100,0,5,,,8,,,76,76
89624,note_on,,,,,117,0,3,,,6,,,67,68
89625,note_off,,,,,1,0,3,,,6,,,66,64
89630,note_off,,,,,115,0,1,,,4,,,74,64
89634,note_off,,,,,14,0,5,,,8,,,74,64
89635,note_on,,,,,5,0,1,,,4,,,76,60
89635,note_off,,,,,367,0,6,,,10,,,69,64
89639,note_off,,,,,371,0,2,,,5,,,69,64
89732,note_on,,,,,98,0,5,,,8,,,78,64
89734,note_on,,,,,116,0,7,,,11,,,69,85
89734,note_off,,,,,109,0,3,,,6,,,67,64
89737,note_off,,,,,3,0,7,,,11,,,67,64
89739,note_on,,,,,123,0,8,,,12,,,50,63
89740,note_off,,,,,105,0,1,,,4,,,76,64
89744,note_off,,,,,12,0,5,,,8,,,76,64
89748,note_on,,,,,113,0,6,,,10,,,74,72
89748,note_on,,,,,14,0,3,,,6,,,69,70
89751,note_on,,,,,112,0,2,,,5,,,74,70
89751,note_on,,,,,140,0,4,,,7,,,50,66
89756,note_on,,,,,16,0,1,,,4,,,78,63
89844,note_off,,,,,93,0,4,,,7,,,50,64
89846,note_off,,,,,102,0,5,,,8,,,78,64
89849,note_off,,,,,93,0,1,,,4,,,78,64
89853,note_off,,,,,114,0,8,,,12,,,50,64
89855,note_on,,,,,9,0,5,,,8,,,74,70
89857,note_off,,,,,106,0,2,,,5,,,74,64
89867,note_off,,,,,119,0,6,,,10,,,74,64
89875,note_on,,,,,26,0,1,,,4,,,74,74
89898,note_off,,,,,161,0,7,,,11,,,69,64
89909,note_off,,,,,161,0,3,,,6,,,69,64
89951,note_off,,,,,96,0,5,,,8,,,74,64
89980,note_on,,,,,29,0,5,,,8,,,76,87
89980,note_off,,,,,105,0,1,,,4,,,74,64
89980,note_on,,,,,127,0,8,,,12,,,49,98
89982,note_on,,,,,115,0,6,,,10,,,69,66
89984,note_on,,,,,140,0,4,,,7,,,49,64
89984,note_on,,,,,86,0,7,,,11,,,64,74
89993,note_on,,,,,136,0,2,,,5,,,69,70
89994,note_on,,,,,14,0,1,,,4,,,76,78
90001,note_on,,,,,92,0,3,,,6,,,64,70
90082,note_off,,,,,102,0,8,,,12,,,49,64
90093,note_off,,,,,109,0,7,,,11,,,64,64
90095,note_on,,,,,13,0,8,,,12,,,47,66
90097,note_on,,,,,113,0,4,,,7,,,47,72
90098,note_off,,,,,1,0,4,,,7,,,49,64
90103,note_on,,,,,123,0,5,,,8,,,78,66
90104,note_off,,,,,111,0,2,,,5,,,69,64
90104,note_off,,,,,110,0,1,,,4,,,76,64
90111,note_off,,,,,129,0,6,,,10,,,69,64
90111,note_on,,,,,7,0,1,,,4,,,78,60
90112,note_off,,,,,9,0,5,,,8,,,76,64
90113,note_off,,,,,112,0,3,,,6,,,64,64
90206,note_off,,,,,94,0,5,,,8,,,78,64
90211,note_off,,,,,116,0,8,,,12,,,47,64
90211,note_on,,,,,5,0,5,,,8,,,79,80
90212,note_on,,,,,1,0,8,,,12,,,45,57
90217,note_off,,,,,119,0,4,,,7,,,47,64
90217,note_on,,,,,124,0,7,,,11,,,69,82
90220,note_off,,,,,109,0,1,,,4,,,78,64
90225,note_on,,,,,5,0,1,,,4,,,79,76
90225,note_on,,,,,114,0,6,,,10,,,73,68
90229,note_on,,,,,125,0,2,,,5,,,73,63
90229,note_on,,,,,12,0,4,,,7,,,45,57
90231,note_on,,,,,118,0,3,,,6,,,69,72
90299,note_on,,,,,88,0,5,,,8,,,78,57
90304,note_off,,,,,5,0,5,,,8,,,79,64
90312,note_off,,,,,87,0,1,,,4,,,79,64
90314,note_on,,,,,2,0,1,,,4,,,78,57
90318,note_off,,,,,89,0,4,,,7,,,45,64
90321,note_off,,,,,92,0,2,,,5,,,73,64
90329,note_off,,,,,117,0,8,,,12,,,45,64
90331,note_on,,,,,2,0,8,,,12,,,43,68
90338,note_on,,,,,20,0,4,,,7,,,43,66
90338,note_off,,,,,121,0,7,,,11,,,69,64
90340,note_off,,,,,115,0,6,,,10,,,73,64
90345,note_off,,,,,114,0,3,,,6,,,69,64
90351,note_off,,,,,47,0,5,,,8,,,78,64
90352,note_on,,,,,1,0,5,,,8,,,79,70
90358,note_off,,,,,44,0,1,,,4,,,78,64
90366,note_on,,,,,8,0,1,,,4,,,79,61
90396,note_on,,,,,44,0,5,,,8,,,78,58
90401,note_off,,,,,5,0,5,,,8,,,79,64
90404,note_on,,,,,38,0,1,,,4,,,78,59
90405,note_off,,,,,1,0,1,,,4,,,79,64
90424,note_on,,,,,0,0,5,,,8,,,79,68
90424,note_off,,,,,23,0,5,,,8,,,78,64
90432,note_off,,,,,27,0,1,,,4,,,78,64
90435,note_off,,,,,104,0,8,,,12,,,43,64
90436,note_on,,,,,4,0,1,,,4,,,79,66
90440,note_off,,,,,102,0,4,,,7,,,43,64
90449,note_on,,,,,14,0,8,,,12,,,45,82
90455,note_on,,,,,134,0,2,,,5,,,69,58
90459,note_on,,,,,19,0,4,,,7,,,45,85
90461,note_on,,,,,121,0,6,,,10,,,69,63
90461,note_on,,,,,37,0,5,,,8,,,78,57
90462,note_off,,,,,1,0,5,,,8,,,79,64
90464,note_on,,,,,126,0,7,,,11,,,61,70
90468,note_on,,,,,32,0,1,,,4,,,78,54
90470,note_on,,,,,125,0,3,,,6,,,61,57
90471,note_off,,,,,3,0,1,,,4,,,79,64
90487,note_on,,,,,25,0,5,,,8,,,79,66
90489,note_off,,,,,2,0,5,,,8,,,78,64
90497,note_off,,,,,26,0,1,,,4,,,78,64
90505,note_on,,,,,8,0,1,,,4,,,79,53
90516,note_on,,,,,27,0,5,,,8,,,78,59
90529,note_on,,,,,24,0,1,,,4,,,78,55
90537,note_off,,,,,21,0,5,,,8,,,79,64
90548,note_off,,,,,89,0,4,,,7,,,45,64
90550,note_off,,,,,21,0,1,,,4,,,78,64
90557,note_off,,,,,102,0,2,,,5,,,69,64
90564,note_off,,,,,27,0,5,,,8,,,78,64
90564,note_on,,,,,0,0,5,,,8,,,76,68
90567,note_on,,,,,17,0,1,,,4,,,78,62
90572,note_off,,,,,108,0,7,,,11,,,61,64
90573,note_on,,,,,25,0,4,,,7,,,42,60
90573,note_on,,,,,0,0,8,,,12,,,42,59
90573,note_off,,,,,124,0,8,,,12,,,45,64
90573,note_off,,,,,103,0,3,,,6,,,61,64
90580,note_off,,,,,13,0,1,,,4,,,79,64
90585,note_off,,,,,124,0,6,,,10,,,69,64
90611,note_on,,,,,47,0,5,,,8,,,78,68
90612,note_off,,,,,32,0,1,,,4,,,78,64
90615,note_on,,,,,3,0,1,,,4,,,76,63
90645,note_off,,,,,34,0,5,,,8,,,76,64
90655,note_on,,,,,40,0,1,,,4,,,78,64
90673,note_off,,,,,100,0,4,,,7,,,42,64
90674,note_off,,,,,29,0,5,,,8,,,78,64
90678,note_off,,,,,23,0,1,,,4,,,76,64
90682,note_off,,,,,109,0,8,,,12,,,42,64
90685,note_on,,,,,11,0,5,,,8,,,79,72
90689,note_on,,,,,7,0,8,,,12,,,47,76
90699,note_on,,,,,26,0,4,,,7,,,47,74
90703,note_off,,,,,25,0,1,,,4,,,78,64
90704,note_on,,,,,119,0,6,,,10,,,74,76
90706,note_on,,,,,149,0,2,,,5,,,74,76
90708,note_on,,,,,136,0,7,,,11,,,62,78
90713,note_on,,,,,140,0,3,,,6,,,62,68
90717,note_on,,,,,14,0,1,,,4,,,79,85
90805,note_on,,,,,120,0,5,,,8,,,78,55
90812,note_off,,,,,106,0,2,,,5,,,74,64
90812,note_off,,,,,104,0,7,,,11,,,62,64
90821,note_off,,,,,122,0,4,,,7,,,47,64
90821,note_off,,,,,16,0,5,,,8,,,79,64
90827,note_off,,,,,114,0,3,,,6,,,62,64
90827,note_off,,,,,123,0,6,,,10,,,74,64
90834,note_on,,,,,117,0,1,,,4,,,78,58
90839,note_off,,,,,150,0,8,,,12,,,47,64
90842,note_off,,,,,8,0,1,,,4,,,79,64
90925,note_off,,,,,104,0,5,,,8,,,78,64
90927,note_on,,,,,2,0,5,,,8,,,76,63
90935,note_off,,,,,93,0,1,,,4,,,78,64
90936,note_on,,,,,97,0,8,,,12,,,49,63
90940,note_on,,,,,113,0,6,,,10,,,76,80
90943,note_on,,,,,122,0,4,,,7,,,49,66
90944,note_on,,,,,132,0,7,,,11,,,69,82
90947,note_on,,,,,135,0,2,,,5,,,76,80
90953,note_on,,,,,18,0,1,,,4,,,76,74
90958,note_on,,,,,131,0,3,,,6,,,69,80
91041,note_on,,,,,114,0,5,,,8,,,78,60
91047,note_off,,,,,100,0,2,,,5,,,76,64
91056,note_off,,,,,113,0,4,,,7,,,49,64
91056,note_off,,,,,116,0,6,,,10,,,76,64
91062,note_off,,,,,126,0,8,,,12,,,49,64
91066,note_off,,,,,25,0,5,,,8,,,76,64
91072,note_on,,,,,119,0,1,,,4,,,78,60
91076,note_off,,,,,4,0,1,,,4,,,76,64
91158,note_off,,,,,92,0,5,,,8,,,78,64
91163,note_on,,,,,107,0,6,,,10,,,73,53
91170,note_on,,,,,12,0,5,,,8,,,79,72
91186,note_on,,,,,139,0,2,,,5,,,73,52
91186,note_on,,,,,124,0,8,,,12,,,45,68
91189,note_off,,,,,113,0,1,,,4,,,78,64
91193,note_on,,,,,137,0,4,,,7,,,45,85
91194,note_on,,,,,5,0,1,,,4,,,79,66
91278,note_off,,,,,108,0,5,,,8,,,79,64
91291,note_off,,,,,105,0,2,,,5,,,73,64
91295,note_off,,,,,101,0,1,,,4,,,79,64
91295,note_on,,,,,17,0,5,,,8,,,76,66
91301,note_off,,,,,357,0,7,,,11,,,69,64
91303,note_off,,,,,345,0,3,,,6,,,69,64
91306,note_on,,,,,11,0,1,,,4,,,76,64
91309,note_off,,,,,116,0,4,,,7,,,45,64
91316,note_off,,,,,153,0,6,,,10,,,73,64
91325,note_off,,,,,139,0,8,,,12,,,45,64
91396,note_off,,,,,101,0,5,,,8,,,76,64
91398,note_off,,,,,92,0,1,,,4,,,76,64
91412,note_on,,,,,96,0,6,,,10,,,74,80
91418,note_on,,,,,93,0,8,,,12,,,50,76
91421,note_on,,,,,120,0,7,,,11,,,69,85
91421,note_on,,,,,118,0,3,,,6,,,69,68
91422,note_on,,,,,131,0,2,,,5,,,74,80
91425,note_on,,,,,29,0,5,,,8,,,78,76
91430,note_on,,,,,32,0,1,,,4,,,78,72
91431,note_on,,,,,122,0,4,,,7,,,50,80
91525,note_off,,,,,107,0,8,,,12,,,50,64
91526,note_off,,,,,114,0,6,,,10,,,74,64
91526,note_off,,,,,104,0,2,,,5,,,74,64
91530,note_off,,,,,100,0,1,,,4,,,78,64
91532,note_on,,,,,6,0,6,,,10,,,76,68
91532,note_off,,,,,111,0,3,,,6,,,69,64
91535,note_off,,,,,114,0,7,,,11,,,69,64
91538,note_on,,,,,12,0,2,,,5,,,76,59
91538,note_off,,,,,113,0,5,,,8,,,78,64
91539,note_off,,,,,108,0,4,,,7,,,50,64
91547,note_on,,,,,17,0,1,,,4,,,80,68
91547,note_on,,,,,9,0,5,,,8,,,80,76
91640,note_off,,,,,93,0,5,,,8,,,80,64
91647,note_off,,,,,100,0,1,,,4,,,80,64
91650,note_on,,,,,125,0,8,,,12,,,47,82
91650,note_on,,,,,10,0,5,,,8,,,81,63
91653,note_on,,,,,6,0,1,,,4,,,81,60
91654,note_on,,,,,122,0,6,,,10,,,74,80
91663,note_on,,,,,128,0,7,,,11,,,62,76
91663,note_on,,,,,131,0,3,,,6,,,62,68
91663,note_on,,,,,125,0,2,,,5,,,74,78
91669,note_on,,,,,130,0,4,,,7,,,47,82
91671,note_off,,,,,17,0,6,,,10,,,76,64
91672,note_off,,,,,9,0,2,,,5,,,76,64
91724,note_off,,,,,71,0,1,,,4,,,81,64
91730,note_on,,,,,6,0,1,,,4,,,80,55
91732,note_on,,,,,0,0,5,,,8,,,80,66
91732,note_off,,,,,82,0,5,,,8,,,81,64
91767,note_off,,,,,37,0,1,,,4,,,80,64
91768,note_off,,,,,96,0,2,,,5,,,74,64
91774,note_off,,,,,111,0,3,,,6,,,62,64
91774,note_on,,,,,103,0,6,,,10,,,73,64
91775,note_off,,,,,106,0,4,,,7,,,47,64
91775,note_off,,,,,125,0,8,,,12,,,47,64
91776,note_off,,,,,44,0,5,,,8,,,80,64
91776,note_on,,,,,9,0,1,,,4,,,81,63
91780,note_on,,,,,4,0,5,,,8,,,81,68
91780,note_on,,,,,12,0,2,,,5,,,73,55
91780,note_off,,,,,117,0,7,,,11,,,62,64
91781,note_off,,,,,7,0,6,,,10,,,74,64
91812,note_off,,,,,36,0,1,,,4,,,81,64
91814,note_on,,,,,2,0,1,,,4,,,80,52
91824,note_off,,,,,44,0,5,,,8,,,81,64
91824,note_on,,,,,0,0,5,,,8,,,80,52
91840,note_off,,,,,26,0,1,,,4,,,80,64
91845,note_on,,,,,5,0,1,,,4,,,81,63
91849,note_off,,,,,25,0,5,,,8,,,80,64
91850,note_on,,,,,1,0,5,,,8,,,81,63
91877,note_off,,,,,97,0,2,,,5,,,73,64
91879,note_off,,,,,34,0,1,,,4,,,81,64
91879,note_on,,,,,0,0,1,,,4,,,80,57
91885,note_on,,,,,35,0,5,,,8,,,80,63
91890,note_off,,,,,109,0,6,,,10,,,73,64
91892,note_off,,,,,7,0,5,,,8,,,81,64
91897,note_on,,,,,122,0,8,,,12,,,52,85
91898,note_on,,,,,8,0,6,,,10,,,74,66
91899,note_on,,,,,22,0,2,,,5,,,74,76
91899,note_off,,,,,20,0,1,,,4,,,80,64
91907,note_on,,,,,133,0,3,,,6,,,64,70
91907,note_on,,,,,132,0,4,,,7,,,52,82
91911,note_on,,,,,12,0,1,,,4,,,81,38
91914,note_on,,,,,22,0,5,,,8,,,81,57
91915,note_off,,,,,1,0,5,,,8,,,80,64
91915,note_on,,,,,135,0,7,,,11,,,64,82
91921,note_off,,,,,10,0,1,,,4,,,81,64
91939,note_off,,,,,24,0,5,,,8,,,81,64
91945,note_on,,,,,6,0,5,,,8,,,80,51
91946,note_on,,,,,25,0,1,,,4,,,81,74
91960,note_on,,,,,15,0,5,,,8,,,81,66
91990,note_on,,,,,44,0,1,,,4,,,80,60
91995,note_off,,,,,96,0,2,,,5,,,74,64
91998,note_off,,,,,8,0,1,,,4,,,81,64
92000,note_off,,,,,40,0,5,,,8,,,81,64
92002,note_off,,,,,95,0,4,,,7,,,52,64
92006,note_off,,,,,99,0,3,,,6,,,64,64
92012,note_on,,,,,17,0,2,,,5,,,71,64
92015,note_off,,,,,100,0,7,,,11,,,64,64
92016,note_on,,,,,118,0,6,,,10,,,71,74
92016,note_off,,,,,119,0,8,,,12,,,52,64
92020,note_off,,,,,4,0,6,,,10,,,74,64
92025,note_off,,,,,27,0,1,,,4,,,80,64
92030,note_on,,,,,30,0,5,,,8,,,78,53
92035,note_off,,,,,5,0,5,,,8,,,80,64
92046,note_on,,,,,21,0,1,,,4,,,78,48
92066,note_on,,,,,20,0,1,,,4,,,80,61
92069,note_on,,,,,34,0,5,,,8,,,80,63
92091,note_off,,,,,22,0,5,,,8,,,78,64
92096,note_off,,,,,84,0,2,,,5,,,71,64
92096,note_off,,,,,30,0,1,,,4,,,78,64
92123,note_off,,,,,103,0,6,,,10,,,71,64
92125,note_off,,,,,29,0,1,,,4,,,80,64
92127,note_off,,,,,36,0,5,,,8,,,80,64
92140,note_on,,,,,13,0,5,,,8,,,81,68
92140,note_on,,,,,15,0,1,,,4,,,81,63
92146,note_on,,,,,130,0,8,,,12,,,45,74
92149,note_on,,,,,26,0,6,,,10,,,73,57
92151,note_on,,,,,149,0,4,,,7,,,45,70
92152,note_on,,,,,56,0,2,,,5,,,73,59
92157,note_on,,,,,151,0,3,,,6,,,64,70
92161,note_on,,,,,146,0,7,,,11,,,64,72
92258,note_off,,,,,107,0,4,,,7,,,45,64
92276,note_off,,,,,130,0,8,,,12,,,45,64
92383,note_on,,,,,107,0,8,,,12,,,49,70
92385,note_on,,,,,127,0,4,,,7,,,49,66
92485,note_off,,,,,100,0,4,,,7,,,49,64
92499,note_off,,,,,116,0,8,,,12,,,49,64
92624,note_on,,,,,125,0,8,,,12,,,52,80
92635,note_on,,,,,150,0,4,,,7,,,52,80
92670,note_off,,,,,518,0,2,,,5,,,73,64
92670,end_of_track,,,,,0,1,2,,,,,,,
92692,note_off,,,,,552,0,1,,,4,,,81,64
92692,end_of_track,,,,,0,1,1,,,,,,,
92711,end_of_track,,,,,0,1,5,,,,,,,
92711,note_off,,,,,571,0,5,,,8,,,81,64
92720,end_of_track,,,,,0,1,3,,,,,,,
92720,note_off,,,,,559,0,7,,,11,,,64,64
92720,end_of_track,,,,,0,1,7,,,,,,,
92720,note_off,,,,,563,0,3,,,6,,,64,64
92727,end_of_track,,,,,0,1,6,,,,,,,
92727,note_off,,,,,578,0,6,,,10,,,73,64
92729,end_of_track,,,,,0,1,4,,,,,,,
92729,note_off,,,,,94,0,4,,,7,,,52,64
92734,note_off,,,,,110,0,8,,,12,,,52,64
92734,end_of_track,,,,,0,1,8,,,,,,,
92868,note_on,,,,,46261,0,9,,,4,,,76,72
92874,note_on,,,,,11735,0,13,,,8,,,76,68
92879,note_on,,,,,11691,0,15,,,11,,,69,85
92879,note_on,,,,,11667,0,14,,,10,,,73,59
92880,note_on,,,,,46225,0,11,,,6,,,69,68
92883,note_on,,,,,46204,0,10,,,5,,,73,52
92894,note_on,,,,,11707,0,16,,,12,,,57,66
92902,note_on,,,,,46251,0,12,,,7,,,57,64
92996,note_off,,,,,116,0,11,,,6,,,69,64
93004,note_off,,,,,125,0,15,,,11,,,69,64
93057,note_off,,,,,189,0,9,,,4,,,76,64
93073,note_off,,,,,194,0,14,,,10,,,73,64
93087,note_off,,,,,213,0,13,,,8,,,76,64
93096,note_off,,,,,213,0,10,,,5,,,73,64
93101,note_on,,,,,44,0,9,,,4,,,74,72
93108,note_on,,,,,112,0,11,,,6,,,66,57
93109,note_on,,,,,13,0,10,,,5,,,71,68
93113,note_on,,,,,40,0,14,,,10,,,71,63
93117,note_on,,,,,30,0,13,,,8,,,74,78
93118,note_on,,,,,114,0,15,,,11,,,66,60
93216,note_on,,,,,115,0,9,,,4,,,73,59
93219,note_off,,,,,3,0,9,,,4,,,74,64
93220,note_off,,,,,112,0,11,,,6,,,66,64
93226,note_on,,,,,109,0,13,,,8,,,73,55
93229,note_on,,,,,0,0,14,,,10,,,69,64
93229,note_off,,,,,116,0,14,,,10,,,71,64
93229,note_on,,,,,120,0,10,,,5,,,69,72
93231,note_off,,,,,5,0,13,,,8,,,74,64
93235,note_off,,,,,6,0,10,,,5,,,71,64
93238,note_off,,,,,120,0,15,,,11,,,66,64
93262,note_off,,,,,360,0,12,,,7,,,57,64
93274,note_off,,,,,380,0,16,,,12,,,57,64
93330,note_off,,,,,111,0,9,,,4,,,73,64
93334,note_on,,,,,4,0,9,,,4,,,74,60
93336,note_off,,,,,105,0,13,,,8,,,73,64
93338,note_on,,,,,2,0,13,,,8,,,74,64
93340,note_off,,,,,105,0,10,,,5,,,69,64
93342,note_off,,,,,113,0,14,,,10,,,69,64
93354,note_on,,,,,134,0,11,,,6,,,64,57
93354,note_on,,,,,116,0,15,,,11,,,64,64
93355,note_on,,,,,93,0,12,,,7,,,56,64
93359,note_on,,,,,85,0,16,,,12,,,56,63
93361,note_on,,,,,19,0,14,,,10,,,71,64
93363,note_on,,,,,23,0,10,,,5,,,71,66
93441,note_off,,,,,86,0,12,,,7,,,56,64
93454,note_off,,,,,100,0,11,,,6,,,64,64
93456,note_on,,,,,122,0,9,,,4,,,71,64
93460,note_off,,,,,106,0,15,,,11,,,64,64
93460,note_off,,,,,122,0,13,,,8,,,74,64
93460,note_on,,,,,0,0,13,,,8,,,71,63
93463,note_off,,,,,7,0,9,,,4,,,74,64
93468,note_off,,,,,109,0,16,,,12,,,56,64
93525,note_off,,,,,164,0,14,,,10,,,71,64
93539,note_off,,,,,176,0,10,,,5,,,71,64
93557,note_off,,,,,94,0,9,,,4,,,71,64
93559,note_off,,,,,99,0,13,,,8,,,71,64
93582,note_on,,,,,141,0,12,,,7,,,57,66
93582,note_on,,,,,25,0,9,,,4,,,73,66
93587,note_on,,,,,28,0,13,,,8,,,73,57
93594,note_on,,,,,126,0,16,,,12,,,57,63
93595,note_on,,,,,70,0,14,,,10,,,69,64
93595,note_on,,,,,141,0,11,,,6,,,64,60
93597,note_on,,,,,58,0,10,,,5,,,69,61
93601,note_on,,,,,141,0,15,,,11,,,64,59
93691,note_on,,,,,109,0,9,,,4,,,74,76
93700,note_on,,,,,113,0,13,,,8,,,74,74
93700,note_on,,,,,103,0,10,,,5,,,71,63
93701,note_off,,,,,106,0,11,,,6,,,64,64
93708,note_off,,,,,17,0,9,,,4,,,73,64
93708,note_off,,,,,107,0,15,,,11,,,64,64
93714,note_on,,,,,119,0,14,,,10,,,71,66
93719,note_off,,,,,19,0,10,,,5,,,69,64
93724,note_off,,,,,24,0,13,,,8,,,73,64
93724,note_off,,,,,10,0,14,,,10,,,69,64
93769,note_off,,,,,175,0,16,,,12,,,57,64
93780,note_off,,,,,198,0,12,,,7,,,57,64
93802,note_off,,,,,94,0,9,,,4,,,74,64
93823,note_on,,,,,21,0,9,,,4,,,76,85
93824,note_off,,,,,100,0,13,,,8,,,74,64
93829,note_on,,,,,49,0,12,,,7,,,55,78
93831,note_on,,,,,107,0,14,,,10,,,73,61
93835,note_on,,,,,11,0,13,,,8,,,76,76
93836,note_on,,,,,128,0,15,,,11,,,69,78
93837,note_on,,,,,136,0,11,,,6,,,69,59
93837,note_off,,,,,6,0,14,,,10,,,71,64
93841,note_on,,,,,72,0,16,,,12,,,55,70
93841,note_on,,,,,122,0,10,,,5,,,73,59
93848,note_off,,,,,7,0,10,,,5,,,71,64
93924,note_off,,,,,95,0,12,,,7,,,55,64
93927,note_on,,,,,90,0,14,,,10,,,74,74
93929,note_off,,,,,2,0,14,,,10,,,73,64
93931,note_on,,,,,7,0,12,,,7,,,54,58
93944,note_off,,,,,121,0,9,,,4,,,76,64
93944,note_on,,,,,96,0,10,,,5,,,74,70
93946,note_on,,,,,105,0,16,,,12,,,54,62
93949,note_off,,,,,3,0,16,,,12,,,55,64
93953,note_off,,,,,118,0,13,,,8,,,76,64
93956,note_off,,,,,12,0,10,,,5,,,73,64
94036,note_off,,,,,105,0,12,,,7,,,54,64
94038,note_off,,,,,89,0,16,,,12,,,54,64
94041,note_off,,,,,112,0,14,,,10,,,74,64
94054,note_on,,,,,13,0,14,,,10,,,76,76
94055,note_on,,,,,19,0,12,,,7,,,55,66
94055,note_off,,,,,99,0,10,,,5,,,74,64
94063,note_on,,,,,110,0,13,,,8,,,69,62
94064,note_on,,,,,120,0,9,,,4,,,69,56
94064,note_on,,,,,26,0,16,,,12,,,55,72
94068,note_on,,,,,13,0,10,,,5,,,76,68
94148,note_off,,,,,93,0,12,,,7,,,55,64
94160,note_off,,,,,96,0,16,,,12,,,55,64
94163,note_off,,,,,109,0,14,,,10,,,76,64
94168,note_on,,,,,20,0,12,,,7,,,52,68
94169,note_on,,,,,6,0,14,,,10,,,73,63
94170,note_on,,,,,10,0,16,,,12,,,52,63
94175,note_off,,,,,112,0,13,,,8,,,69,64
94181,note_on,,,,,113,0,10,,,5,,,73,58
94185,note_off,,,,,4,0,10,,,5,,,76,64
94190,note_off,,,,,126,0,9,,,4,,,69,64
94222,note_off,,,,,386,0,15,,,11,,,69,64
94222,note_off,,,,,385,0,11,,,6,,,69,64
94257,note_off,,,,,89,0,12,,,7,,,52,64
94272,note_off,,,,,102,0,16,,,12,,,52,64
94275,note_off,,,,,106,0,14,,,10,,,73,64
94288,note_on,,,,,13,0,14,,,10,,,74,74
94299,note_on,,,,,27,0,16,,,12,,,54,66
94300,note_on,,,,,43,0,12,,,7,,,54,82
94301,note_on,,,,,111,0,9,,,4,,,74,68
94305,note_off,,,,,120,0,10,,,5,,,73,64
94309,note_on,,,,,134,0,13,,,8,,,74,70
94312,note_on,,,,,7,0,10,,,5,,,74,66
94315,note_on,,,,,93,0,11,,,6,,,69,64
94319,note_on,,,,,97,0,15,,,11,,,69,80
94402,note_off,,,,,93,0,13,,,8,,,74,64
94413,note_on,,,,,112,0,9,,,4,,,76,76
94413,note_off,,,,,125,0,14,,,10,,,74,64
94415,note_off,,,,,116,0,16,,,12,,,54,64
94420,note_off,,,,,7,0,9,,,4,,,74,64
94423,note_on,,,,,21,0,13,,,8,,,76,78
94423,note_off,,,,,123,0,12,,,7,,,54,64
94431,note_off,,,,,112,0,15,,,11,,,69,64
94443,note_off,,,,,128,0,11,,,6,,,69,64
94447,note_off,,,,,135,0,10,,,5,,,74,64
94493,note_off,,,,,70,0,13,,,8,,,76,64
94515,note_off,,,,,95,0,9,,,4,,,76,64
94525,note_on,,,,,32,0,13,,,8,,,78,68
94538,note_on,,,,,23,0,9,,,4,,,78,62
94541,note_on,,,,,128,0,14,,,10,,,74,78
94545,note_on,,,,,130,0,16,,,12,,,55,76
94546,note_on,,,,,123,0,12,,,7,,,55,76
94553,note_on,,,,,106,0,10,,,5,,,74,68
94555,note_on,,,,,112,0,11,,,6,,,71,64
94557,note_on,,,,,126,0,15,,,11,,,71,82
94626,note_on,,,,,88,0,9,,,4,,,76,58
94637,note_off,,,,,11,0,9,,,4,,,78,64
94641,note_on,,,,,116,0,13,,,8,,,76,56
94652,note_off,,,,,11,0,13,,,8,,,78,64
94658,note_off,,,,,103,0,11,,,6,,,71,64
94659,note_off,,,,,106,0,10,,,5,,,74,64
94659,note_off,,,,,113,0,12,,,7,,,55,64
94661,note_off,,,,,120,0,14,,,10,,,74,64
94661,note_off,,,,,116,0,16,,,12,,,55,64
94665,note_off,,,,,108,0,15,,,11,,,71,64
94676,note_on,,,,,0,0,9,,,4,,,78,56
94676,note_off,,,,,39,0,9,,,4,,,76,64
94686,note_on,,,,,34,0,13,,,8,,,78,59
94687,note_off,,,,,1,0,13,,,8,,,76,64
94715,note_on,,,,,39,0,9,,,4,,,76,57
94717,note_off,,,,,2,0,9,,,4,,,78,64
94726,note_off,,,,,39,0,13,,,8,,,78,64
94728,note_on,,,,,2,0,13,,,8,,,76,58
94747,note_on,,,,,30,0,9,,,4,,,78,60
94755,note_off,,,,,8,0,9,,,4,,,76,64
94759,note_on,,,,,31,0,13,,,8,,,78,72
94769,note_off,,,,,10,0,13,,,8,,,76,64
94776,note_on,,,,,115,0,14,,,10,,,73,62
94777,note_off,,,,,22,0,9,,,4,,,78,64
94777,note_on,,,,,0,0,9,,,4,,,76,56
94781,note_on,,,,,123,0,11,,,6,,,69,63
94783,note_on,,,,,124,0,10,,,5,,,73,60
94785,note_on,,,,,124,0,16,,,12,,,57,70
94787,note_on,,,,,128,0,12,,,7,,,57,66
94788,note_off,,,,,19,0,13,,,8,,,78,64
94788,note_on,,,,,123,0,15,,,11,,,69,70
94791,note_on,,,,,3,0,13,,,8,,,76,39
94812,note_on,,,,,0,0,9,,,4,,,78,78
94812,note_off,,,,,35,0,9,,,4,,,76,64
94821,note_on,,,,,30,0,13,,,8,,,78,85
94825,note_off,,,,,4,0,13,,,8,,,76,64
94846,note_on,,,,,21,0,13,,,8,,,76,51
94847,note_on,,,,,35,0,9,,,4,,,76,66
94865,note_off,,,,,18,0,9,,,4,,,78,64
94875,note_off,,,,,29,0,13,,,8,,,78,64
94882,note_off,,,,,99,0,10,,,5,,,73,64
94883,note_off,,,,,98,0,16,,,12,,,57,64
94888,note_on,,,,,23,0,9,,,4,,,74,64
94892,note_off,,,,,111,0,11,,,6,,,69,64
94896,note_off,,,,,109,0,12,,,7,,,57,64
94896,note_on,,,,,21,0,13,,,8,,,74,72
94897,note_off,,,,,9,0,9,,,4,,,76,64
94906,note_off,,,,,10,0,13,,,8,,,76,64
94911,note_off,,,,,135,0,14,,,10,,,73,64
94916,note_off,,,,,128,0,15,,,11,,,69,64
94940,note_on,,,,,43,0,9,,,4,,,76,66
94950,note_on,,,,,44,0,13,,,8,,,76,64
94961,note_off,,,,,21,0,9,,,4,,,74,64
94970,note_off,,,,,20,0,13,,,8,,,74,64
95013,note_on,,,,,102,0,14,,,10,,,74,76
95013,note_off,,,,,43,0,13,,,8,,,76,64
95013,note_off,,,,,52,0,9,,,4,,,76,64
95023,note_on,,,,,107,0,15,,,11,,,69,76
95023,note_on,,,,,131,0,11,,,6,,,69,66
95023,note_on,,,,,141,0,10,,,5,,,74,78
95023,note_on,,,,,10,0,13,,,8,,,78,72
95028,note_on,,,,,132,0,12,,,7,,,50,85
95028,note_on,,,,,15,0,9,,,4,,,78,63
95031,note_on,,,,,148,0,16,,,12,,,50,85
95136,note_off,,,,,113,0,11,,,6,,,69,64
95136,note_on,,,,,0,0,11,,,6,,,67,60
95138,note_off,,,,,115,0,10,,,5,,,74,64
95141,note_off,,,,,113,0,12,,,7,,,50,64
95141,note_on,,,,,113,0,9,,,4,,,76,64
95141,note_on,,,,,118,0,15,,,11,,,67,70
95144,note_on,,,,,121,0,13,,,8,,,76,64
95145,note_off,,,,,4,0,9,,,4,,,78,64
95146,note_off,,,,,133,0,14,,,10,,,74,64
95147,note_off,,,,,6,0,15,,,11,,,69,64
95153,note_off,,,,,122,0,16,,,12,,,50,64
95166,note_off,,,,,22,0,13,,,8,,,78,64
95243,note_off,,,,,107,0,11,,,6,,,67,64
95251,note_on,,,,,8,0,11,,,6,,,66,57
95256,note_off,,,,,90,0,13,,,8,,,76,64
95256,note_on,,,,,110,0,14,,,10,,,69,66
95262,note_off,,,,,117,0,9,,,4,,,76,64
95263,note_off,,,,,116,0,15,,,11,,,67,64
95263,note_on,,,,,0,0,15,,,11,,,66,74
95265,note_on,,,,,3,0,9,,,4,,,74,72
95265,note_on,,,,,9,0,13,,,8,,,74,68
95265,note_on,,,,,112,0,16,,,12,,,62,87
95268,note_on,,,,,130,0,10,,,5,,,69,64
95272,note_on,,,,,131,0,12,,,7,,,62,91
95363,note_off,,,,,95,0,10,,,5,,,69,64
95374,note_on,,,,,109,0,13,,,8,,,76,66
95374,note_off,,,,,102,0,12,,,7,,,62,64
95376,note_off,,,,,111,0,16,,,12,,,62,64
95376,note_on,,,,,111,0,9,,,4,,,76,64
95376,note_off,,,,,125,0,11,,,6,,,66,64
95379,note_on,,,,,3,0,11,,,6,,,67,60
95381,note_off,,,,,125,0,14,,,10,,,69,64
95382,note_off,,,,,6,0,9,,,4,,,74,64
95383,note_on,,,,,120,0,15,,,11,,,67,82
95391,note_off,,,,,8,0,15,,,11,,,66,64
95394,note_off,,,,,20,0,13,,,8,,,74,64
95477,note_off,,,,,86,0,15,,,11,,,67,64
95490,note_on,,,,,13,0,15,,,11,,,69,70
95492,note_off,,,,,110,0,9,,,4,,,76,64
95499,note_on,,,,,118,0,14,,,10,,,74,78
95499,note_off,,,,,120,0,11,,,6,,,67,64
95500,note_on,,,,,8,0,9,,,4,,,78,54
95501,note_on,,,,,107,0,13,,,8,,,78,64
95505,note_on,,,,,6,0,11,,,6,,,69,70
95505,note_on,,,,,142,0,10,,,5,,,74,78
95508,note_on,,,,,132,0,16,,,12,,,57,72
95510,note_on,,,,,136,0,12,,,7,,,57,70
95516,note_off,,,,,15,0,13,,,8,,,76,64
95584,note_off,,,,,94,0,15,,,11,,,69,64
95598,note_on,,,,,14,0,15,,,11,,,71,64
95605,note_on,,,,,89,0,13,,,8,,,79,72
95608,note_off,,,,,108,0,9,,,4,,,78,64
95609,note_on,,,,,1,0,9,,,4,,,79,63
95610,note_off,,,,,105,0,10,,,5,,,74,64
95610,note_off,,,,,5,0,13,,,8,,,78,64
95611,note_off,,,,,103,0,16,,,12,,,57,64
95614,note_off,,,,,115,0,14,,,10,,,74,64
95622,note_off,,,,,117,0,11,,,6,,,69,64
95622,note_on,,,,,0,0,11,,,6,,,71,76
95624,note_off,,,,,114,0,12,,,7,,,57,64
95713,note_off,,,,,115,0,15,,,11,,,71,64
95720,note_off,,,,,111,0,9,,,4,,,79,64
95728,note_off,,,,,118,0,13,,,8,,,79,64
95733,note_off,,,,,111,0,11,,,6,,,71,64
95735,note_on,,,,,22,0,15,,,11,,,72,68
95737,note_on,,,,,9,0,13,,,8,,,81,78
95740,note_on,,,,,126,0,14,,,10,,,75,66
95741,note_on,,,,,131,0,10,,,5,,,75,80
95746,note_on,,,,,13,0,11,,,6,,,72,78
95749,note_on,,,,,29,0,9,,,4,,,81,82
95755,note_on,,,,,131,0,12,,,7,,,54,82
95755,note_on,,,,,144,0,16,,,12,,,54,85
95829,note_off,,,,,88,0,10,,,5,,,75,64
95843,note_on,,,,,14,0,10,,,5,,,76,76
95843,note_off,,,,,103,0,14,,,10,,,75,64
95847,note_on,,,,,4,0,14,,,10,,,76,72
95855,note_on,,,,,100,0,16,,,12,,,52,72
95858,note_off,,,,,103,0,12,,,7,,,54,64
95858,note_off,,,,,3,0,16,,,12,,,54,64
95859,note_on,,,,,1,0,12,,,7,,,52,76
95865,note_off,,,,,130,0,15,,,11,,,72,64
95873,note_off,,,,,136,0,13,,,8,,,81,64
95893,note_off,,,,,147,0,11,,,6,,,72,64
95910,note_off,,,,,161,0,9,,,4,,,81,64
95935,note_off,,,,,92,0,10,,,5,,,76,64
95954,note_off,,,,,96,0,16,,,12,,,52,64
95960,note_off,,,,,101,0,12,,,7,,,52,64
95967,note_on,,,,,13,0,16,,,12,,,51,64
95968,note_off,,,,,121,0,14,,,10,,,76,64
95969,note_on,,,,,1,0,14,,,10,,,78,76
95972,note_on,,,,,37,0,10,,,5,,,78,76
95972,note_on,,,,,12,0,12,,,7,,,51,66
95973,note_on,,,,,108,0,15,,,11,,,71,80
95976,note_on,,,,,103,0,13,,,8,,,79,82
95985,note_on,,,,,92,0,11,,,6,,,71,62
95990,note_on,,,,,80,0,9,,,4,,,79,76
96068,note_off,,,,,99,0,14,,,10,,,78,64
96074,note_off,,,,,102,0,10,,,5,,,78,64
96075,note_off,,,,,108,0,16,,,12,,,51,64
96079,note_off,,,,,107,0,12,,,7,,,51,64
96081,note_on,,,,,105,0,13,,,8,,,78,51
96082,note_on,,,,,3,0,12,,,7,,,49,56
96086,note_on,,,,,11,0,16,,,12,,,49,56
96088,note_on,,,,,98,0,9,,,4,,,78,51
96090,note_off,,,,,9,0,13,,,8,,,79,64
96093,note_off,,,,,120,0,15,,,11,,,71,64
96099,note_off,,,,,11,0,9,,,4,,,79,64
96114,note_off,,,,,129,0,11,,,6,,,71,64
96130,note_on,,,,,0,0,13,,,8,,,79,63
96130,note_off,,,,,40,0,13,,,8,,,78,64
96131,note_on,,,,,32,0,9,,,4,,,79,63
96132,note_off,,,,,1,0,9,,,4,,,78,64
96166,note_on,,,,,36,0,13,,,8,,,78,55
96174,note_off,,,,,8,0,13,,,8,,,79,64
96174,note_on,,,,,42,0,9,,,4,,,78,52
96179,note_off,,,,,5,0,9,,,4,,,79,64
96191,note_off,,,,,109,0,12,,,7,,,49,64
96195,note_off,,,,,109,0,16,,,12,,,49,64
96197,note_on,,,,,23,0,13,,,8,,,79,72
96202,note_off,,,,,5,0,13,,,8,,,78,64
96210,note_on,,,,,142,0,14,,,10,,,71,82
96210,note_on,,,,,31,0,9,,,4,,,79,66
96212,note_off,,,,,2,0,9,,,4,,,78,64
96214,note_on,,,,,121,0,15,,,11,,,69,74
96215,note_on,,,,,20,0,16,,,12,,,51,59
96217,note_on,,,,,26,0,12,,,7,,,51,61
96222,note_on,,,,,148,0,10,,,5,,,71,70
96224,note_on,,,,,110,0,11,,,6,,,69,66
96240,note_off,,,,,28,0,9,,,4,,,79,64
96241,note_on,,,,,1,0,9,,,4,,,78,39
96256,note_off,,,,,15,0,9,,,4,,,78,64
96266,note_on,,,,,10,0,9,,,4,,,79,58
96284,note_on,,,,,82,0,13,,,8,,,78,59
96294,note_on,,,,,28,0,9,,,4,,,78,60
96305,note_off,,,,,21,0,13,,,8,,,79,64
96313,note_off,,,,,19,0,9,,,4,,,79,64
96319,note_off,,,,,104,0,16,,,12,,,51,64
96320,note_on,,,,,1,0,16,,,12,,,47,61
96326,note_off,,,,,112,0,15,,,11,,,69,64
96327,note_off,,,,,110,0,12,,,7,,,51,64
96336,note_on,,,,,9,0,12,,,7,,,47,66
96340,note_off,,,,,27,0,9,,,4,,,78,64
96342,note_on,,,,,37,0,13,,,8,,,76,68
96344,note_on,,,,,4,0,9,,,4,,,76,64
96344,note_off,,,,,120,0,11,,,6,,,69,64
96346,note_off,,,,,4,0,13,,,8,,,78,64
96383,note_on,,,,,37,0,13,,,8,,,78,60
96390,note_on,,,,,46,0,9,,,4,,,78,66
96418,note_off,,,,,82,0,12,,,7,,,47,64
96419,note_off,,,,,99,0,16,,,12,,,47,64
96423,note_off,,,,,40,0,13,,,8,,,76,64
96423,note_off,,,,,33,0,9,,,4,,,76,64
96442,note_on,,,,,116,0,15,,,11,,,67,68
96446,note_on,,,,,27,0,16,,,12,,,52,68
96451,note_on,,,,,28,0,13,,,8,,,79,82
96453,note_off,,,,,2,0,13,,,8,,,78,64
96463,note_on,,,,,45,0,12,,,7,,,52,64
96466,note_on,,,,,122,0,11,,,6,,,67,78
96471,note_off,,,,,48,0,9,,,4,,,78,64
96473,note_on,,,,,2,0,9,,,4,,,79,66
96550,note_off,,,,,104,0,16,,,12,,,52,64
96553,note_off,,,,,90,0,12,,,7,,,52,64
96578,note_off,,,,,136,0,15,,,11,,,67,64
96596,note_off,,,,,143,0,13,,,8,,,79,64
96602,note_off,,,,,129,0,9,,,4,,,79,64
96604,note_off,,,,,138,0,11,,,6,,,67,64
96621,note_off,,,,,399,0,10,,,5,,,71,64
96673,note_off,,,,,463,0,14,,,10,,,71,64
96690,note_on,,,,,112,0,15,,,11,,,66,72
96691,note_on,,,,,95,0,13,,,8,,,75,70
96695,note_on,,,,,145,0,16,,,12,,,59,80
96699,note_on,,,,,95,0,11,,,6,,,66,59
96705,note_on,,,,,84,0,10,,,5,,,69,64
96709,note_on,,,,,156,0,12,,,7,,,59,82
96717,note_on,,,,,115,0,9,,,4,,,75,63
96718,note_on,,,,,45,0,14,,,10,,,69,68
96786,note_off,,,,,95,0,13,,,8,,,75,64
96795,note_off,,,,,90,0,10,,,5,,,69,64
96810,note_off,,,,,115,0,16,,,12,,,59,64
96819,note_off,,,,,101,0,14,,,10,,,69,64
96827,note_off,,,,,118,0,12,,,7,,,59,64
96827,note_off,,,,,110,0,9,,,4,,,75,64
96830,note_off,,,,,131,0,11,,,6,,,66,64
96836,note_off,,,,,146,0,15,,,11,,,66,64
96935,note_on,,,,,140,0,10,,,5,,,67,60
96940,note_on,,,,,154,0,13,,,8,,,76,82
96942,note_on,,,,,123,0,14,,,10,,,67,61
96944,note_on,,,,,134,0,16,,,12,,,60,68
96950,note_on,,,,,120,0,11,,,6,,,64,63
96952,note_on,,,,,116,0,15,,,11,,,64,66
96958,note_on,,,,,131,0,12,,,7,,,60,68
96959,note_on,,,,,132,0,9,,,4,,,76,63
97040,note_off,,,,,105,0,10,,,5,,,67,64
97053,note_off,,,,,109,0,16,,,12,,,60,64
97053,note_off,,,,,95,0,12,,,7,,,60,64
97064,note_off,,,,,122,0,14,,,10,,,67,64
97067,note_off,,,,,117,0,11,,,6,,,64,64
97182,note_on,,,,,129,0,16,,,12,,,57,78
97185,note_on,,,,,121,0,14,,,10,,,72,80
97185,note_on,,,,,145,0,10,,,5,,,72,80
97186,note_on,,,,,119,0,11,,,6,,,69,70
97199,note_on,,,,,146,0,12,,,7,,,57,72
97222,note_off,,,,,282,0,13,,,8,,,76,64
97229,note_off,,,,,270,0,9,,,4,,,76,64
97277,note_off,,,,,91,0,11,,,6,,,69,64
97288,note_on,,,,,66,0,13,,,8,,,78,63
97296,note_off,,,,,111,0,10,,,5,,,72,64
97299,note_off,,,,,117,0,16,,,12,,,57,64
97305,note_off,,,,,106,0,12,,,7,,,57,64
97307,note_on,,,,,78,0,9,,,4,,,78,66
97316,note_off,,,,,131,0,14,,,10,,,72,64
97360,note_off,,,,,72,0,13,,,8,,,78,64
97371,note_off,,,,,419,0,15,,,11,,,64,64
97374,note_off,,,,,67,0,9,,,4,,,78,64
97409,note_on,,,,,49,0,13,,,8,,,79,80
97421,note_on,,,,,105,0,14,,,10,,,71,61
97421,note_on,,,,,47,0,9,,,4,,,79,74
97421,note_on,,,,,144,0,11,,,6,,,64,70
97425,note_on,,,,,129,0,10,,,5,,,71,72
97426,note_on,,,,,55,0,15,,,11,,,63,64
97426,note_on,,,,,127,0,16,,,12,,,59,63
97439,note_on,,,,,134,0,12,,,7,,,59,66
97502,note_on,,,,,93,0,13,,,8,,,78,60
97506,note_off,,,,,4,0,13,,,8,,,79,64
97508,note_on,,,,,87,0,9,,,4,,,78,52
97514,note_off,,,,,6,0,9,,,4,,,79,64
97515,note_off,,,,,76,0,12,,,7,,,59,64
97515,note_off,,,,,89,0,16,,,12,,,59,64
97527,note_off,,,,,102,0,10,,,5,,,71,64
97530,note_off,,,,,109,0,11,,,6,,,64,64
97532,note_on,,,,,2,0,11,,,6,,,63,55
97536,note_off,,,,,110,0,15,,,11,,,63,64
97539,note_on,,,,,33,0,13,,,8,,,79,70
97540,note_off,,,,,1,0,13,,,8,,,78,64
97541,note_off,,,,,27,0,9,,,4,,,78,64
97548,note_off,,,,,127,0,14,,,10,,,71,64
97550,note_on,,,,,9,0,9,,,4,,,79,61
97555,note_on,,,,,23,0,11,,,6,,,64,64
97559,note_off,,,,,4,0,11,,,6,,,63,64
97572,note_on,,,,,32,0,13,,,8,,,78,61
97576,note_on,,,,,26,0,9,,,4,,,78,59
97580,note_off,,,,,8,0,13,,,8,,,79,64
97581,note_off,,,,,5,0,9,,,4,,,79,64
97598,note_on,,,,,39,0,11,,,6,,,63,60
97606,note_off,,,,,8,0,11,,,6,,,64,64
97610,note_on,,,,,30,0,13,,,8,,,79,66
97612,note_off,,,,,2,0,13,,,8,,,78,64
97615,note_off,,,,,34,0,9,,,4,,,78,64
97619,note_on,,,,,4,0,9,,,4,,,79,82
97632,note_on,,,,,26,0,11,,,6,,,64,68
97635,note_on,,,,,23,0,13,,,8,,,78,57
97636,note_off,,,,,1,0,13,,,8,,,79,64
97638,note_off,,,,,6,0,11,,,6,,,63,64
97650,note_on,,,,,14,0,13,,,8,,,79,55
97657,note_on,,,,,38,0,9,,,4,,,78,61
97657,note_on,,,,,121,0,15,,,11,,,59,74
97658,note_on,,,,,131,0,10,,,5,,,69,68
97662,note_on,,,,,24,0,11,,,6,,,63,66
97664,note_off,,,,,14,0,13,,,8,,,78,64
97664,note_on,,,,,116,0,14,,,10,,,69,62
97668,note_on,,,,,153,0,12,,,7,,,47,72
97670,note_on,,,,,155,0,16,,,12,,,47,66
97673,note_off,,,,,16,0,9,,,4,,,79,64
97681,note_on,,,,,17,0,13,,,8,,,78,63
97681,note_off,,,,,19,0,11,,,6,,,64,64
97704,note_off,,,,,23,0,13,,,8,,,79,64
97743,note_off,,,,,85,0,10,,,5,,,69,64
97764,note_off,,,,,91,0,9,,,4,,,78,64
97765,note_off,,,,,97,0,12,,,7,,,47,64
97765,note_off,,,,,101,0,14,,,10,,,69,64
97765,note_off,,,,,108,0,15,,,11,,,59,64
97767,note_on,,,,,86,0,11,,,6,,,64,63
97772,note_off,,,,,5,0,11,,,6,,,63,64
97774,note_on,,,,,10,0,9,,,4,,,76,68
97774,note_off,,,,,104,0,16,,,12,,,47,64
97791,note_on,,,,,87,0,13,,,8,,,76,82
97809,note_off,,,,,18,0,13,,,8,,,78,64
97847,note_off,,,,,75,0,11,,,6,,,64,64
97848,note_off,,,,,74,0,9,,,4,,,76,64
97857,note_off,,,,,48,0,13,,,8,,,76,64
97903,note_on,,,,,160,0,10,,,5,,,67,62
97908,note_on,,,,,143,0,14,,,10,,,67,66
97909,note_on,,,,,62,0,11,,,6,,,64,64
97913,note_on,,,,,139,0,16,,,12,,,52,76
97913,note_on,,,,,148,0,12,,,7,,,52,82
97917,note_on,,,,,152,0,15,,,11,,,59,74
97922,note_on,,,,,74,0,9,,,4,,,76,63
97924,note_on,,,,,67,0,13,,,8,,,76,66
97995,note_off,,,,,82,0,12,,,7,,,52,64
98019,note_off,,,,,106,0,16,,,12,,,52,64
98152,note_on,,,,,157,0,12,,,7,,,43,68
98152,note_on,,,,,133,0,16,,,12,,,43,70
98246,note_off,,,,,94,0,12,,,7,,,43,64
98257,note_off,,,,,105,0,16,,,12,,,43,64
98385,note_on,,,,,139,0,12,,,7,,,47,72
98387,note_on,,,,,130,0,16,,,12,,,47,68
98463,note_off,,,,,554,0,11,,,6,,,64,64
98472,note_off,,,,,87,0,12,,,7,,,47,64
98486,note_off,,,,,99,0,16,,,12,,,47,64
98492,note_off,,,,,584,0,14,,,10,,,67,64
98499,note_off,,,,,582,0,15,,,11,,,59,64
98504,note_off,,,,,582,0,9,,,4,,,76,64
98507,note_off,,,,,604,0,10,,,5,,,67,64
98516,note_off,,,,,592,0,13,,,8,,,76,64
98619,note_on,,,,,127,0,14,,,10,,,76,68
98630,note_on,,,,,144,0,16,,,12,,,40,80
98631,note_on,,,,,115,0,13,,,8,,,79,85
98631,note_on,,,,,159,0,12,,,7,,,40,74
98634,note_on,,,,,127,0,10,,,5,,,76,78
98634,note_on,,,,,130,0,9,,,4,,,79,82
98635,note_on,,,,,136,0,15,,,11,,,71,80
98636,note_on,,,,,173,0,11,,,6,,,71,78
98737,note_off,,,,,103,0,9,,,4,,,79,64
98740,note_on,,,,,3,0,9,,,4,,,81,64
98742,note_on,,,,,111,0,13,,,8,,,81,74
98744,note_on,,,,,125,0,14,,,10,,,78,64
98745,note_on,,,,,109,0,11,,,6,,,69,64
98746,note_on,,,,,112,0,10,,,5,,,78,60
98749,note_off,,,,,3,0,10,,,5,,,76,64
98752,note_off,,,,,10,0,13,,,8,,,79,64
98753,note_off,,,,,8,0,11,,,6,,,71,64
98756,note_off,,,,,12,0,14,,,10,,,76,64
98757,note_on,,,,,122,0,15,,,11,,,69,80
98761,note_off,,,,,131,0,16,,,12,,,40,64
98775,note_off,,,,,18,0,15,,,11,,,71,64
98798,note_off,,,,,167,0,12,,,7,,,40,64
98831,note_off,,,,,91,0,9,,,4,,,81,64
98845,note_off,,,,,93,0,13,,,8,,,81,64
98859,note_off,,,,,110,0,10,,,5,,,78,64
98862,note_off,,,,,87,0,15,,,11,,,69,64
98866,note_on,,,,,105,0,16,,,12,,,52,70
98866,note_on,,,,,113,0,11,,,6,,,67,62
98867,note_on,,,,,22,0,13,,,8,,,83,82
98868,note_off,,,,,112,0,14,,,10,,,78,64
98870,note_on,,,,,11,0,10,,,5,,,79,68
98870,note_off,,,,,4,0,11,,,6,,,69,64
98872,note_on,,,,,10,0,15,,,11,,,67,78
98872,note_on,,,,,41,0,9,,,4,,,83,85
98875,note_on,,,,,7,0,14,,,10,,,79,76
98880,note_on,,,,,82,0,12,,,7,,,52,68
98973,note_off,,,,,106,0,13,,,8,,,83,64
98978,note_off,,,,,112,0,16,,,12,,,52,64
98978,note_off,,,,,106,0,9,,,4,,,83,64
98981,note_on,,,,,109,0,15,,,11,,,69,72
98982,note_on,,,,,4,0,16,,,12,,,54,64
98985,note_off,,,,,105,0,12,,,7,,,52,64
98986,note_on,,,,,1,0,12,,,7,,,54,59
98986,note_on,,,,,116,0,11,,,6,,,69,66
98989,note_off,,,,,3,0,11,,,6,,,67,64
98991,note_off,,,,,10,0,15,,,11,,,67,64
99078,note_off,,,,,96,0,16,,,12,,,54,64
99081,note_off,,,,,95,0,12,,,7,,,54,64
99090,note_off,,,,,99,0,15,,,11,,,69,64
99093,note_off,,,,,104,0,11,,,6,,,69,64
99095,note_on,,,,,17,0,16,,,12,,,55,72
99099,note_on,,,,,9,0,15,,,11,,,71,70
99109,note_on,,,,,28,0,12,,,7,,,55,70
99113,note_on,,,,,20,0,11,,,6,,,71,68
99118,note_on,,,,,140,0,9,,,4,,,74,60
99118,note_on,,,,,145,0,13,,,8,,,74,70
99186,note_off,,,,,91,0,16,,,12,,,55,64
99192,note_off,,,,,83,0,12,,,7,,,55,64
99208,note_off,,,,,95,0,11,,,6,,,71,64
99212,note_off,,,,,113,0,15,,,11,,,71,64
99213,note_on,,,,,1,0,15,,,11,,,67,78
99217,note_on,,,,,31,0,16,,,12,,,52,59
99218,note_on,,,,,10,0,11,,,6,,,67,62
99223,note_on,,,,,31,0,12,,,7,,,52,58
99223,note_off,,,,,105,0,13,,,8,,,74,64
99227,note_off,,,,,109,0,9,,,4,,,74,64
99291,note_off,,,,,68,0,12,,,7,,,52,64
99300,note_off,,,,,83,0,16,,,12,,,52,64
99313,note_off,,,,,100,0,15,,,11,,,67,64
99318,note_off,,,,,100,0,11,,,6,,,67,64
99340,note_on,,,,,27,0,15,,,11,,,64,62
99343,note_on,,,,,43,0,16,,,12,,,57,82
99344,note_on,,,,,53,0,12,,,7,,,57,78
99348,note_on,,,,,125,0,13,,,8,,,73,62
99352,note_on,,,,,34,0,11,,,6,,,64,62
99361,note_on,,,,,134,0,9,,,4,,,73,60
99442,note_off,,,,,99,0,16,,,12,,,57,64
99442,note_off,,,,,98,0,12,,,7,,,57,64
99453,note_on,,,,,11,0,12,,,7,,,55,68
99455,note_on,,,,,13,0,16,,,12,,,55,66
99457,note_off,,,,,109,0,13,,,8,,,73,64
99476,note_off,,,,,115,0,9,,,4,,,73,64
99481,note_off,,,,,141,0,15,,,11,,,64,64
99482,note_off,,,,,130,0,11,,,6,,,64,64
99490,note_off,,,,,620,0,10,,,5,,,79,64
99512,note_off,,,,,637,0,14,,,10,,,79,64
99568,note_off,,,,,113,0,16,,,12,,,55,64
99571,note_off,,,,,118,0,12,,,7,,,55,64
99576,note_on,,,,,5,0,12,,,7,,,57,66
99584,note_on,,,,,16,0,16,,,12,,,57,66
99594,note_on,,,,,104,0,10,,,5,,,78,66
99594,note_on,,,,,112,0,11,,,6,,,73,63
99594,note_on,,,,,82,0,14,,,10,,,78,61
99598,note_on,,,,,141,0,13,,,8,,,81,82
99601,note_on,,,,,120,0,15,,,11,,,73,82
99603,note_on,,,,,127,0,9,,,4,,,81,70
99685,note_off,,,,,109,0,12,,,7,,,57,64
99691,note_off,,,,,107,0,16,,,12,,,57,64
99699,note_on,,,,,14,0,12,,,7,,,59,68
99699,note_on,,,,,8,0,16,,,12,,,59,66
99709,note_off,,,,,115,0,10,,,5,,,78,64
99713,note_off,,,,,119,0,11,,,6,,,73,64
99722,note_off,,,,,128,0,14,,,10,,,78,64
99728,note_off,,,,,127,0,15,,,11,,,73,64
99800,note_off,,,,,101,0,12,,,7,,,59,64
99804,note_off,,,,,105,0,16,,,12,,,59,64
99818,note_on,,,,,18,0,12,,,7,,,61,59
99820,note_on,,,,,16,0,16,,,12,,,61,60
99826,note_on,,,,,104,0,14,,,10,,,76,56
99829,note_on,,,,,120,0,10,,,5,,,76,64
99838,note_on,,,,,125,0,11,,,6,,,69,70
99847,note_on,,,,,119,0,15,,,11,,,69,80
99912,note_off,,,,,92,0,16,,,12,,,61,64
99917,note_on,,,,,5,0,16,,,12,,,57,66
99926,note_off,,,,,108,0,12,,,7,,,61,64
99932,note_on,,,,,6,0,12,,,7,,,57,66
99939,note_off,,,,,110,0,10,,,5,,,76,64
99947,note_off,,,,,121,0,14,,,10,,,76,64
99950,note_off,,,,,352,0,13,,,8,,,81,64
99969,note_off,,,,,366,0,9,,,4,,,81,64
100018,note_off,,,,,101,0,16,,,12,,,57,64
100019,note_off,,,,,87,0,12,,,7,,,57,64
100057,note_on,,,,,107,0,13,,,8,,,78,80
100058,note_on,,,,,111,0,14,,,10,,,74,66
100058,note_on,,,,,40,0,16,,,12,,,62,85
100061,note_on,,,,,42,0,12,,,7,,,62,82
100075,note_on,,,,,136,0,10,,,5,,,74,76
100075,note_on,,,,,106,0,9,,,4,,,78,85
100169,note_off,,,,,331,0,11,,,6,,,69,64
100173,note_on,,,,,4,0,11,,,6,,,67,66
100173,note_off,,,,,115,0,14,,,10,,,74,64
100173,note_off,,,,,326,0,15,,,11,,,69,64
100173,note_on,,,,,116,0,13,,,8,,,79,70
100176,note_on,,,,,3,0,14,,,10,,,76,66
100179,note_on,,,,,6,0,15,,,11,,,67,70
100179,note_off,,,,,6,0,13,,,8,,,78,64
100182,note_off,,,,,107,0,9,,,4,,,78,64
100184,note_off,,,,,109,0,10,,,5,,,74,64
100184,note_on,,,,,0,0,10,,,5,,,76,64
100189,note_on,,,,,7,0,9,,,4,,,79,70
100189,note_off,,,,,131,0,16,,,12,,,62,64
100195,note_off,,,,,134,0,12,,,7,,,62,64
100271,note_off,,,,,92,0,15,,,11,,,67,64
100280,note_off,,,,,101,0,13,,,8,,,79,64
100284,note_off,,,,,95,0,9,,,4,,,79,64
100290,note_on,,,,,19,0,15,,,11,,,66,66
100295,note_on,,,,,119,0,14,,,10,,,78,58
100295,note_off,,,,,111,0,10,,,5,,,76,64
100295,note_off,,,,,122,0,11,,,6,,,67,64
100296,note_off,,,,,1,0,14,,,10,,,76,64
100300,note_on,,,,,5,0,11,,,6,,,66,60
100300,note_on,,,,,16,0,9,,,4,,,81,74
100303,note_on,,,,,114,0,16,,,12,,,50,70
100304,note_on,,,,,24,0,13,,,8,,,81,78
100306,note_on,,,,,111,0,12,,,7,,,50,66
100315,note_on,,,,,20,0,10,,,5,,,78,58
100396,note_off,,,,,96,0,11,,,6,,,66,64
100401,note_on,,,,,5,0,11,,,6,,,67,60
100401,note_on,,,,,111,0,15,,,11,,,67,68
100404,note_off,,,,,100,0,13,,,8,,,81,64
100408,note_on,,,,,105,0,16,,,12,,,52,66
100411,note_off,,,,,10,0,15,,,11,,,66,64
100412,note_off,,,,,112,0,9,,,4,,,81,64
100413,note_off,,,,,5,0,16,,,12,,,50,64
100413,note_on,,,,,107,0,12,,,7,,,52,64
100425,note_off,,,,,12,0,12,,,7,,,50,64
100506,note_off,,,,,81,0,12,,,7,,,52,64
100506,note_off,,,,,93,0,16,,,12,,,52,64
100523,note_off,,,,,112,0,15,,,11,,,67,64
100526,note_on,,,,,20,0,16,,,12,,,54,60
100527,note_on,,,,,4,0,15,,,11,,,69,68
100531,note_off,,,,,130,0,11,,,6,,,67,64
100539,note_on,,,,,135,0,13,,,8,,,72,68
100539,note_on,,,,,8,0,11,,,6,,,69,63
100540,note_on,,,,,34,0,12,,,7,,,54,58
100544,note_on,,,,,132,0,9,,,4,,,72,66
100628,note_off,,,,,102,0,16,,,12,,,54,64
100631,note_off,,,,,91,0,12,,,7,,,54,64
100635,note_off,,,,,96,0,11,,,6,,,69,64
100639,note_on,,,,,11,0,16,,,12,,,50,66
100639,note_on,,,,,0,0,15,,,11,,,66,82
100639,note_off,,,,,112,0,15,,,11,,,69,64
100641,note_off,,,,,102,0,13,,,8,,,72,64
100648,note_on,,,,,17,0,12,,,7,,,50,63
100648,note_on,,,,,13,0,11,,,6,,,66,58
100650,note_off,,,,,106,0,9,,,4,,,72,64
100723,note_off,,,,,75,0,12,,,7,,,50,64
100741,note_off,,,,,102,0,16,,,12,,,50,64
100745,note_off,,,,,97,0,11,,,6,,,66,64
100753,note_off,,,,,114,0,15,,,11,,,66,64
100760,note_on,,,,,19,0,16,,,12,,,55,82
100766,note_on,,,,,13,0,15,,,11,,,62,78
100777,note_on,,,,,32,0,11,,,6,,,62,66
100779,note_on,,,,,56,0,12,,,7,,,55,70
100781,note_on,,,,,131,0,9,,,4,,,71,60
100784,note_on,,,,,143,0,13,,,8,,,71,66
100872,note_off,,,,,112,0,16,,,12,,,55,64
100880,note_on,,,,,8,0,16,,,12,,,54,59
100880,note_off,,,,,101,0,12,,,7,,,55,64
100886,note_on,,,,,6,0,12,,,7,,,54,55
100890,note_off,,,,,106,0,13,,,8,,,71,64
100894,note_off,,,,,113,0,9,,,4,,,71,64
100902,note_off,,,,,125,0,11,,,6,,,62,64
100911,note_off,,,,,145,0,15,,,11,,,62,64
100915,note_off,,,,,619,0,14,,,10,,,78,64
100938,note_off,,,,,623,0,10,,,5,,,78,64
100999,note_off,,,,,113,0,12,,,7,,,54,64
101003,note_on,,,,,123,0,16,,,12,,,55,66
101007,note_off,,,,,4,0,16,,,12,,,54,64
101012,note_on,,,,,101,0,15,,,11,,,71,82
101014,note_on,,,,,15,0,12,,,7,,,55,60
101018,note_on,,,,,116,0,11,,,6,,,71,82
101020,note_on,,,,,105,0,14,,,10,,,76,68
101023,note_on,,,,,129,0,9,,,4,,,79,72
101031,note_on,,,,,93,0,10,,,5,,,76,63
101037,note_on,,,,,147,0,13,,,8,,,79,85
101095,note_off,,,,,88,0,16,,,12,,,55,64
101119,note_on,,,,,24,0,16,,,12,,,57,66
101125,note_off,,,,,107,0,11,,,6,,,71,64
101129,note_off,,,,,109,0,14,,,10,,,76,64
101135,note_off,,,,,123,0,15,,,11,,,71,64
101136,note_off,,,,,122,0,12,,,7,,,55,64
101138,note_off,,,,,107,0,10,,,5,,,76,64
101144,note_on,,,,,8,0,12,,,7,,,57,64
101228,note_off,,,,,84,0,12,,,7,,,57,64
101232,note_off,,,,,113,0,16,,,12,,,57,64
101237,note_on,,,,,5,0,16,,,12,,,59,72
101252,note_on,,,,,24,0,12,,,7,,,59,68
101253,note_on,,,,,118,0,15,,,11,,,67,80
101262,note_on,,,,,133,0,14,,,10,,,74,80
101266,note_on,,,,,141,0,11,,,6,,,67,72
101274,note_on,,,,,136,0,10,,,5,,,74,60
101337,note_off,,,,,85,0,12,,,7,,,59,64
101354,note_off,,,,,117,0,16,,,12,,,59,64
101358,note_on,,,,,4,0,16,,,12,,,55,68
101363,note_off,,,,,101,0,14,,,10,,,74,64
101364,note_on,,,,,27,0,12,,,7,,,55,66
101381,note_off,,,,,107,0,10,,,5,,,74,64
101401,note_off,,,,,364,0,13,,,8,,,79,64
101402,note_off,,,,,379,0,9,,,4,,,79,64
101455,note_off,,,,,97,0,16,,,12,,,55,64
101462,note_off,,,,,98,0,12,,,7,,,55,64
101488,note_on,,,,,33,0,16,,,12,,,57,78
101493,note_on,,,,,31,0,12,,,7,,,57,74
101507,note_on,,,,,144,0,14,,,10,,,69,68
101511,note_on,,,,,110,0,13,,,8,,,73,74
101516,note_on,,,,,135,0,10,,,5,,,69,57
101526,note_on,,,,,124,0,9,,,4,,,73,68
101617,note_off,,,,,351,0,11,,,6,,,67,64
101618,note_on,,,,,107,0,13,,,8,,,74,78
101622,note_off,,,,,4,0,13,,,8,,,73,64
101625,note_on,,,,,99,0,9,,,4,,,74,78
101637,note_off,,,,,144,0,12,,,7,,,57,64
101639,note_off,,,,,14,0,9,,,4,,,73,64
101642,note_off,,,,,154,0,16,,,12,,,57,64
101685,note_off,,,,,432,0,15,,,11,,,67,64
101725,note_off,,,,,86,0,9,,,4,,,74,64
101725,note_off,,,,,103,0,13,,,8,,,74,64
101736,note_on,,,,,94,0,16,,,12,,,55,68
101744,note_on,,,,,107,0,12,,,7,,,55,70
101745,note_on,,,,,20,0,13,,,8,,,76,76
101748,note_on,,,,,23,0,9,,,4,,,76,76
101751,note_on,,,,,66,0,15,,,11,,,61,76
101752,note_on,,,,,135,0,11,,,6,,,74,78
101842,note_off,,,,,106,0,16,,,12,,,55,64
101843,note_on,,,,,91,0,11,,,6,,,73,54
101844,note_off,,,,,99,0,13,,,8,,,76,64
101847,note_off,,,,,99,0,9,,,4,,,76,64
101848,note_on,,,,,6,0,16,,,12,,,54,60
101852,note_off,,,,,9,0,11,,,6,,,74,64
101858,note_off,,,,,114,0,12,,,7,,,55,64
101863,note_on,,,,,5,0,12,,,7,,,54,64
101867,note_off,,,,,116,0,15,,,11,,,61,64
101879,note_on,,,,,27,0,11,,,6,,,74,58
101884,note_off,,,,,5,0,11,,,6,,,73,64
101920,note_on,,,,,36,0,11,,,6,,,73,58
101928,note_off,,,,,8,0,11,,,6,,,74,64
101951,note_off,,,,,103,0,16,,,12,,,54,64
101957,note_on,,,,,29,0,11,,,6,,,74,57
101963,note_off,,,,,6,0,11,,,6,,,73,64
101967,note_on,,,,,16,0,16,,,12,,,55,66
101968,note_off,,,,,105,0,12,,,7,,,54,64
101983,note_on,,,,,15,0,12,,,7,,,55,66
101984,note_on,,,,,140,0,13,,,8,,,69,68
101984,note_on,,,,,21,0,11,,,6,,,73,29
101985,note_off,,,,,1,0,11,,,6,,,74,64
101985,note_on,,,,,118,0,15,,,11,,,64,78
101990,note_on,,,,,143,0,9,,,4,,,69,68
102002,note_on,,,,,0,0,11,,,6,,,74,63
102002,note_off,,,,,17,0,11,,,6,,,73,64
102041,note_on,,,,,39,0,11,,,6,,,73,59
102059,note_off,,,,,18,0,11,,,6,,,74,64
102076,note_off,,,,,109,0,16,,,12,,,55,64
102078,note_off,,,,,94,0,13,,,8,,,69,64
102080,note_off,,,,,97,0,12,,,7,,,55,64
102090,note_on,,,,,14,0,16,,,12,,,52,64
102097,note_off,,,,,107,0,9,,,4,,,69,64
102099,note_on,,,,,19,0,12,,,7,,,52,61
102103,note_off,,,,,44,0,11,,,6,,,73,64
102103,note_on,,,,,0,0,11,,,6,,,71,66
102148,note_on,,,,,45,0,11,,,6,,,73,57
102172,note_off,,,,,82,0,16,,,12,,,52,64
102172,note_off,,,,,187,0,15,,,11,,,64,64
102177,note_off,,,,,78,0,12,,,7,,,52,64
102183,note_off,,,,,35,0,11,,,6,,,71,64
102206,note_off,,,,,23,0,11,,,6,,,73,64
102216,note_on,,,,,44,0,16,,,12,,,54,82
102216,note_on,,,,,138,0,13,,,8,,,74,70
102220,note_on,,,,,14,0,11,,,6,,,74,85
102220,note_on,,,,,48,0,15,,,11,,,66,80
102226,note_on,,,,,49,0,12,,,7,,,54,70
102228,note_on,,,,,131,0,9,,,4,,,74,68
102321,note_on,,,,,101,0,15,,,11,,,67,80
102325,note_on,,,,,109,0,16,,,12,,,52,63
102330,note_off,,,,,5,0,16,,,12,,,54,64
102334,note_off,,,,,13,0,15,,,11,,,66,64
102334,note_on,,,,,118,0,13,,,8,,,76,76
102339,note_on,,,,,113,0,12,,,7,,,52,64
102342,note_off,,,,,3,0,12,,,7,,,54,64
102342,note_on,,,,,114,0,9,,,4,,,76,66
102342,note_off,,,,,8,0,13,,,8,,,74,64
102343,note_off,,,,,123,0,11,,,6,,,74,64
102349,note_off,,,,,7,0,9,,,4,,,74,64
102382,note_off,,,,,875,0,14,,,10,,,69,64
102387,note_off,,,,,871,0,10,,,5,,,69,64
102427,note_off,,,,,97,0,16,,,12,,,52,64
102440,note_off,,,,,106,0,15,,,11,,,67,64
102444,note_on,,,,,17,0,16,,,12,,,50,78
102448,note_off,,,,,106,0,12,,,7,,,52,64
102453,note_on,,,,,104,0,9,,,4,,,78,59
102453,note_on,,,,,13,0,15,,,11,,,69,74
102456,note_off,,,,,3,0,9,,,4,,,76,64
102457,note_on,,,,,75,0,14,,,10,,,74,80
102457,note_on,,,,,114,0,11,,,6,,,69,72
102458,note_on,,,,,116,0,13,,,8,,,78,60
102461,note_on,,,,,13,0,12,,,7,,,50,66
102466,note_on,,,,,79,0,10,,,5,,,74,82
102474,note_off,,,,,16,0,13,,,8,,,76,64
102558,note_on,,,,,114,0,16,,,12,,,52,72
102562,note_off,,,,,96,0,10,,,5,,,74,64
102567,note_off,,,,,110,0,14,,,10,,,74,64
102568,note_off,,,,,111,0,11,,,6,,,69,64
102569,note_off,,,,,11,0,16,,,12,,,50,64
102572,note_on,,,,,5,0,14,,,10,,,73,62
102574,note_on,,,,,113,0,12,,,7,,,52,64
102575,note_off,,,,,122,0,15,,,11,,,69,64
102576,note_on,,,,,120,0,9,,,4,,,79,74
102576,note_on,,,,,102,0,13,,,8,,,79,78
102577,note_on,,,,,15,0,10,,,5,,,73,60
102579,note_off,,,,,3,0,9,,,4,,,78,64
102587,note_off,,,,,13,0,12,,,7,,,50,64
102592,note_off,,,,,16,0,13,,,8,,,78,64
102653,note_off,,,,,84,0,16,,,12,,,52,64
102655,note_off,,,,,78,0,10,,,5,,,73,64
102664,note_off,,,,,77,0,12,,,7,,,52,64
102667,note_off,,,,,95,0,14,,,10,,,73,64
102680,note_on,,,,,27,0,16,,,12,,,54,72
102684,note_off,,,,,92,0,13,,,8,,,79,64
102684,note_on,,,,,29,0,10,,,5,,,74,78
102690,note_off,,,,,111,0,9,,,4,,,79,64
102692,note_on,,,,,117,0,15,,,11,,,66,74
102694,note_on,,,,,10,0,13,,,8,,,81,85
102695,note_on,,,,,28,0,14,,,10,,,74,82
102698,note_on,,,,,8,0,9,,,4,,,81,80
102698,note_on,,,,,130,0,11,,,6,,,66,62
102704,note_on,,,,,40,0,12,,,7,,,54,68
102795,note_off,,,,,115,0,16,,,12,,,54,64
102795,note_on,,,,,0,0,16,,,12,,,50,66
102798,note_on,,,,,104,0,13,,,8,,,72,64
102800,note_off,,,,,116,0,10,,,5,,,74,64
102804,note_off,,,,,6,0,13,,,8,,,81,64
102807,note_off,,,,,103,0,12,,,7,,,54,64
102808,note_on,,,,,1,0,12,,,7,,,50,68
102809,note_off,,,,,111,0,9,,,4,,,81,64
102812,note_on,,,,,3,0,9,,,4,,,72,72
102812,note_off,,,,,114,0,11,,,6,,,66,64
102829,note_off,,,,,134,0,14,,,10,,,74,64
102844,note_off,,,,,152,0,15,,,11,,,66,64
102888,note_off,,,,,84,0,13,,,8,,,72,64
102889,note_off,,,,,77,0,9,,,4,,,72,64
102898,note_off,,,,,90,0,12,,,7,,,50,64
102899,note_off,,,,,104,0,16,,,12,,,50,64
102918,note_on,,,,,30,0,13,,,8,,,71,68
102929,note_on,,,,,40,0,9,,,4,,,71,66
102930,note_on,,,,,31,0,16,,,12,,,55,82
102932,note_on,,,,,34,0,12,,,7,,,55,78
102933,note_on,,,,,133,0,10,,,5,,,67,60
102936,note_on,,,,,107,0,14,,,10,,,67,74
102947,note_on,,,,,103,0,15,,,11,,,62,76
102950,note_on,,,,,138,0,11,,,6,,,62,68
103041,note_off,,,,,108,0,10,,,5,,,67,64
103047,note_off,,,,,118,0,9,,,4,,,71,64
103050,note_off,,,,,118,0,12,,,7,,,55,64
103053,note_off,,,,,117,0,14,,,10,,,67,64
103054,note_off,,,,,136,0,13,,,8,,,71,64
103066,note_off,,,,,119,0,15,,,11,,,62,64
103067,note_off,,,,,137,0,16,,,12,,,55,64
103074,note_off,,,,,124,0,11,,,6,,,62,64
103168,note_on,,,,,114,0,13,,,8,,,73,63
103175,note_on,,,,,108,0,16,,,12,,,52,76
103176,note_on,,,,,123,0,14,,,10,,,67,72
103176,note_on,,,,,110,0,15,,,11,,,64,78
103178,note_on,,,,,128,0,12,,,7,,,52,70
103178,note_on,,,,,137,0,10,,,5,,,67,63
103179,note_on,,,,,132,0,9,,,4,,,73,64
103185,note_on,,,,,111,0,11,,,6,,,64,64
103271,note_off,,,,,93,0,12,,,7,,,52,64
103285,note_off,,,,,110,0,16,,,12,,,52,64
103292,note_off,,,,,114,0,10,,,5,,,67,64
103298,note_off,,,,,119,0,9,,,4,,,73,64
103299,note_off,,,,,123,0,14,,,10,,,67,64
103305,note_off,,,,,137,0,13,,,8,,,73,64
103307,note_off,,,,,131,0,15,,,11,,,64,64
103315,note_off,,,,,130,0,11,,,6,,,64,64
103412,note_on,,,,,113,0,14,,,10,,,69,64
103417,note_on,,,,,125,0,10,,,5,,,69,63
103417,note_on,,,,,112,0,13,,,8,,,74,82
103419,note_on,,,,,112,0,15,,,11,,,66,72
103424,note_on,,,,,126,0,9,,,4,,,74,76
103424,note_on,,,,,153,0,12,,,7,,,50,74
103425,note_on,,,,,140,0,16,,,12,,,50,82
103433,note_on,,,,,118,0,11,,,6,,,66,59
103526,note_off,,,,,109,0,13,,,8,,,74,64
103531,note_off,,,,,107,0,9,,,4,,,74,64
103534,note_off,,,,,117,0,10,,,5,,,69,64
103539,note_off,,,,,115,0,12,,,7,,,50,64
103543,note_off,,,,,110,0,11,,,6,,,66,64
103544,note_off,,,,,125,0,15,,,11,,,66,64
103548,note_off,,,,,123,0,16,,,12,,,50,64
103555,note_off,,,,,143,0,14,,,10,,,69,64
103662,note_on,,,,,136,0,13,,,8,,,76,82
103662,note_on,,,,,118,0,15,,,11,,,69,85
103664,note_on,,,,,133,0,9,,,4,,,76,80
103665,note_on,,,,,110,0,14,,,10,,,73,62
103670,note_on,,,,,136,0,10,,,5,,,73,66
103672,note_on,,,,,133,0,12,,,7,,,57,74
103676,note_on,,,,,128,0,16,,,12,,,57,80
103676,note_on,,,,,133,0,11,,,6,,,69,76
103784,note_off,,,,,114,0,10,,,5,,,73,64
103793,note_off,,,,,131,0,15,,,11,,,69,64
103800,note_off,,,,,124,0,11,,,6,,,69,64
103820,note_off,,,,,155,0,14,,,10,,,73,64
103851,note_off,,,,,187,0,9,,,4,,,76,64
103855,note_off,,,,,193,0,13,,,8,,,76,64
103894,note_on,,,,,74,0,14,,,10,,,69,64
103897,note_on,,,,,104,0,15,,,11,,,64,80
103905,note_on,,,,,50,0,13,,,8,,,74,85
103907,note_on,,,,,123,0,10,,,5,,,69,70
103909,note_on,,,,,58,0,9,,,4,,,74,80
103920,note_on,,,,,120,0,11,,,6,,,64,64
104012,note_off,,,,,103,0,9,,,4,,,74,64
104016,note_on,,,,,111,0,13,,,8,,,73,62
104020,note_off,,,,,113,0,10,,,5,,,69,64
104021,note_off,,,,,5,0,13,,,8,,,74,64
104022,note_on,,,,,10,0,9,,,4,,,73,55
104026,note_off,,,,,129,0,15,,,11,,,64,64
104037,note_off,,,,,143,0,14,,,10,,,69,64
104072,note_off,,,,,396,0,16,,,12,,,57,64
104087,note_off,,,,,415,0,12,,,7,,,57,64
104133,note_on,,,,,96,0,14,,,10,,,64,58
104137,note_on,,,,,111,0,15,,,11,,,61,60
104138,note_off,,,,,117,0,13,,,8,,,73,64
104138,note_on,,,,,0,0,13,,,8,,,71,64
104140,note_on,,,,,118,0,9,,,4,,,71,66
104144,note_on,,,,,72,0,16,,,12,,,55,68
104146,note_on,,,,,126,0,10,,,5,,,64,64
104147,note_on,,,,,60,0,12,,,7,,,55,66
104148,note_off,,,,,8,0,9,,,4,,,73,64
104232,note_off,,,,,84,0,9,,,4,,,71,64
104239,note_off,,,,,101,0,13,,,8,,,71,64
104252,note_on,,,,,13,0,13,,,8,,,69,70
104257,note_off,,,,,111,0,10,,,5,,,64,64
104260,note_on,,,,,28,0,9,,,4,,,69,74
104277,note_off,,,,,357,0,11,,,6,,,64,64
104282,note_off,,,,,138,0,16,,,12,,,55,64
104283,note_off,,,,,150,0,14,,,10,,,64,64
104286,note_off,,,,,149,0,15,,,11,,,61,64
104300,note_off,,,,,153,0,12,,,7,,,55,64
104332,note_off,,,,,80,0,13,,,8,,,69,64
104344,note_off,,,,,84,0,9,,,4,,,69,64
104379,note_on,,,,,47,0,13,,,8,,,74,82
104383,note_on,,,,,97,0,15,,,11,,,62,66
104385,note_on,,,,,41,0,9,,,4,,,74,78
104385,note_on,,,,,108,0,11,,,6,,,62,60
104390,note_on,,,,,133,0,10,,,5,,,69,64
104394,note_on,,,,,94,0,12,,,7,,,54,63
104394,note_on,,,,,111,0,14,,,10,,,69,60
104396,note_on,,,,,114,0,16,,,12,,,54,62
104485,note_off,,,,,100,0,9,,,4,,,74,64
104490,note_off,,,,,111,0,13,,,8,,,74,64
104496,note_on,,,,,11,0,9,,,4,,,73,62
104498,note_on,,,,,102,0,16,,,12,,,52,64
104499,note_on,,,,,9,0,13,,,8,,,73,66
104503,note_off,,,,,109,0,12,,,7,,,54,64
104506,note_off,,,,,8,0,16,,,12,,,54,64
104507,note_on,,,,,4,0,12,,,7,,,52,62
104521,note_off,,,,,138,0,15,,,11,,,62,64
104525,note_off,,,,,140,0,11,,,6,,,62,64
104585,note_off,,,,,89,0,9,,,4,,,73,64
104590,note_off,,,,,91,0,13,,,8,,,73,64
104615,note_off,,,,,109,0,16,,,12,,,52,64
104616,note_on,,,,,1,0,16,,,12,,,54,64
104616,note_on,,,,,31,0,9,,,4,,,74,68
104617,note_on,,,,,110,0,12,,,7,,,54,60
104620,note_off,,,,,3,0,12,,,7,,,52,64
104620,note_on,,,,,30,0,13,,,8,,,74,80
104625,note_on,,,,,104,0,15,,,11,,,62,57
104633,note_on,,,,,108,0,11,,,6,,,62,53
104722,note_off,,,,,106,0,9,,,4,,,74,64
104722,note_off,,,,,102,0,12,,,7,,,54,64
104725,note_off,,,,,109,0,16,,,12,,,54,64
104730,note_on,,,,,8,0,12,,,7,,,55,70
104730,note_on,,,,,5,0,16,,,12,,,55,82
104737,note_off,,,,,117,0,13,,,8,,,74,64
104751,note_off,,,,,126,0,15,,,11,,,62,64
104756,note_off,,,,,123,0,11,,,6,,,62,64
104845,note_off,,,,,115,0,12,,,7,,,55,64
104856,note_on,,,,,0,0,16,,,12,,,57,74
104856,note_off,,,,,126,0,16,,,12,,,55,64
104857,note_on,,,,,12,0,12,,,7,,,57,66
104864,note_on,,,,,127,0,13,,,8,,,69,68
104865,note_on,,,,,143,0,9,,,4,,,69,63
104869,note_on,,,,,118,0,15,,,11,,,62,66
104871,note_on,,,,,115,0,11,,,6,,,62,53
104966,note_off,,,,,110,0,16,,,12,,,57,64
104970,note_off,,,,,113,0,12,,,7,,,57,64
104970,note_on,,,,,4,0,16,,,12,,,59,72
104971,note_off,,,,,107,0,13,,,8,,,69,64
104974,note_on,,,,,4,0,12,,,7,,,59,76
104980,note_off,,,,,115,0,9,,,4,,,69,64
104997,note_off,,,,,126,0,11,,,6,,,62,64
105009,note_off,,,,,140,0,15,,,11,,,62,64
105080,note_off,,,,,110,0,16,,,12,,,59,64
105090,note_on,,,,,10,0,16,,,12,,,60,74
105090,note_off,,,,,116,0,12,,,7,,,59,64
105096,note_on,,,,,125,0,13,,,8,,,66,61
105098,note_on,,,,,8,0,12,,,7,,,60,76
105106,note_on,,,,,97,0,15,,,11,,,62,64
105107,note_on,,,,,127,0,9,,,4,,,66,57
105114,note_on,,,,,117,0,11,,,6,,,62,64
105191,note_off,,,,,797,0,14,,,10,,,69,64
105199,note_off,,,,,809,0,10,,,5,,,69,64
105208,note_on,,,,,17,0,14,,,10,,,71,68
105210,note_off,,,,,114,0,13,,,8,,,66,64
105219,note_on,,,,,20,0,10,,,5,,,71,68
105228,note_off,,,,,121,0,9,,,4,,,66,64
105249,note_off,,,,,143,0,15,,,11,,,62,64
105252,note_off,,,,,162,0,16,,,12,,,60,64
105261,note_off,,,,,147,0,11,,,6,,,62,64
105268,note_off,,,,,170,0,12,,,7,,,60,64
105316,note_off,,,,,108,0,14,,,10,,,71,64
105328,note_off,,,,,109,0,10,,,5,,,71,64
105329,note_on,,,,,77,0,16,,,12,,,54,64
105330,note_on,,,,,14,0,14,,,10,,,69,64
105335,note_on,,,,,7,0,10,,,5,,,69,60
105341,note_on,,,,,131,0,13,,,8,,,72,74
105342,note_on,,,,,93,0,15,,,11,,,62,60
105350,note_on,,,,,89,0,11,,,6,,,62,53
105351,note_on,,,,,83,0,12,,,7,,,54,63
105353,note_on,,,,,125,0,9,,,4,,,72,66
105442,note_off,,,,,113,0,16,,,12,,,54,64
105442,note_on,,,,,0,0,16,,,12,,,52,62
105448,note_on,,,,,118,0,14,,,10,,,67,66
105449,note_on,,,,,98,0,12,,,7,,,52,57
105451,note_off,,,,,3,0,14,,,10,,,69,64
105453,note_off,,,,,4,0,12,,,7,,,54,64
105455,note_on,,,,,120,0,10,,,5,,,67,66
105458,note_off,,,,,3,0,10,,,5,,,69,64
105478,note_off,,,,,136,0,15,,,11,,,62,64
105483,note_off,,,,,133,0,11,,,6,,,62,64
105558,note_off,,,,,105,0,12,,,7,,,52,64
105560,note_off,,,,,118,0,16,,,12,,,52,64
105570,note_on,,,,,10,0,16,,,12,,,54,64
105570,note_on,,,,,119,0,14,,,10,,,69,70
105571,note_off,,,,,113,0,10,,,5,,,67,64
105574,note_on,,,,,96,0,15,,,11,,,62,62
105578,note_off,,,,,8,0,14,,,10,,,67,64
105579,note_on,,,,,21,0,12,,,7,,,54,64
105579,note_on,,,,,96,0,11,,,6,,,62,60
105579,note_on,,,,,8,0,10,,,5,,,69,70
105684,note_on,,,,,114,0,16,,,12,,,50,66
105684,note_off,,,,,105,0,10,,,5,,,69,64
105687,note_off,,,,,109,0,14,,,10,,,69,64
105690,note_off,,,,,6,0,16,,,12,,,54,64
105690,note_on,,,,,3,0,14,,,10,,,66,60
105692,note_on,,,,,113,0,12,,,7,,,50,64
105693,note_on,,,,,9,0,10,,,5,,,66,60
105696,note_off,,,,,4,0,12,,,7,,,54,64
105701,note_off,,,,,127,0,15,,,11,,,62,64
105713,note_off,,,,,360,0,9,,,4,,,72,64
105713,note_off,,,,,134,0,11,,,6,,,62,64
105724,note_off,,,,,383,0,13,,,8,,,72,64
105771,note_off,,,,,81,0,16,,,12,,,50,64
105779,note_off,,,,,83,0,12,,,7,,,50,64
105793,note_off,,,,,100,0,10,,,5,,,66,64
105801,note_off,,,,,111,0,14,,,10,,,66,64
105810,note_on,,,,,39,0,16,,,12,,,55,78
105811,note_on,,,,,32,0,12,,,7,,,55,85
105812,note_on,,,,,11,0,14,,,10,,,67,78
105814,note_on,,,,,113,0,15,,,11,,,62,64
105819,note_on,,,,,95,0,13,,,8,,,71,68
105823,note_on,,,,,30,0,10,,,5,,,67,70
105829,note_on,,,,,116,0,9,,,4,,,71,68
105830,note_on,,,,,117,0,11,,,6,,,62,70
105928,note_on,,,,,117,0,12,,,7,,,57,63
105933,note_on,,,,,123,0,16,,,12,,,57,68
105943,note_off,,,,,10,0,16,,,12,,,55,64
105944,note_off,,,,,16,0,12,,,7,,,55,64
105952,note_off,,,,,138,0,15,,,11,,,62,64
105952,note_off,,,,,129,0,10,,,5,,,67,64
105957,note_off,,,,,145,0,14,,,10,,,67,64
105972,note_off,,,,,142,0,11,,,6,,,62,64
106021,note_off,,,,,77,0,12,,,7,,,57,64
106033,note_off,,,,,214,0,13,,,8,,,71,64
106036,note_off,,,,,207,0,9,,,4,,,71,64
106049,note_on,,,,,106,0,16,,,12,,,55,68
106051,note_on,,,,,30,0,12,,,7,,,55,70
106052,note_on,,,,,100,0,15,,,11,,,69,64
106055,note_off,,,,,6,0,16,,,12,,,57,64
106061,note_on,,,,,89,0,11,,,6,,,69,63
106068,note_on,,,,,35,0,13,,,8,,,73,63
106071,note_on,,,,,35,0,9,,,4,,,73,64
106073,note_on,,,,,116,0,14,,,10,,,76,82
106078,note_on,,,,,126,0,10,,,5,,,76,74
106163,note_off,,,,,108,0,16,,,12,,,55,64
106164,note_on,,,,,1,0,16,,,12,,,54,59
106173,note_on,,,,,122,0,12,,,7,,,54,60
106180,note_off,,,,,7,0,12,,,7,,,55,64
106182,note_on,,,,,111,0,9,,,4,,,74,68
106183,note_on,,,,,115,0,13,,,8,,,74,72
106191,note_off,,,,,139,0,15,,,11,,,69,64
106191,note_off,,,,,9,0,9,,,4,,,73,64
106206,note_off,,,,,145,0,11,,,6,,,69,64
106210,note_off,,,,,27,0,13,,,8,,,73,64
106272,note_off,,,,,81,0,9,,,4,,,74,64
106287,note_on,,,,,96,0,15,,,11,,,69,66
106289,note_off,,,,,125,0,16,,,12,,,54,64
106292,note_off,,,,,82,0,13,,,8,,,74,64
106293,note_on,,,,,113,0,12,,,7,,,52,60
106293,note_on,,,,,4,0,16,,,12,,,52,61
106300,note_off,,,,,7,0,12,,,7,,,54,64
106306,note_on,,,,,34,0,9,,,4,,,76,74
106310,note_on,,,,,104,0,11,,,6,,,69,60
106314,note_on,,,,,22,0,13,,,8,,,76,78
106408,note_off,,,,,102,0,9,,,4,,,76,64
106415,note_off,,,,,115,0,12,,,7,,,52,64
106416,note_on,,,,,102,0,13,,,8,,,78,64
106418,note_off,,,,,125,0,16,,,12,,,52,64
106418,note_on,,,,,10,0,9,,,4,,,78,70
106420,note_on,,,,,2,0,16,,,12,,,50,68
106421,note_on,,,,,6,0,12,,,7,,,50,66
106421,note_off,,,,,5,0,13,,,8,,,76,64
106450,note_off,,,,,163,0,15,,,11,,,69,64
106456,note_off,,,,,146,0,11,,,6,,,69,64
106513,note_off,,,,,93,0,16,,,12,,,50,64
106516,note_off,,,,,98,0,9,,,4,,,78,64
106516,note_off,,,,,95,0,13,,,8,,,78,64
106519,note_off,,,,,98,0,12,,,7,,,50,64
106528,note_on,,,,,15,0,16,,,12,,,49,63
106532,note_on,,,,,82,0,15,,,11,,,69,70
106538,note_on,,,,,19,0,12,,,7,,,49,63
106539,note_on,,,,,23,0,9,,,4,,,79,85
106542,note_on,,,,,26,0,13,,,8,,,79,85
106560,note_on,,,,,104,0,11,,,6,,,69,68
106604,note_off,,,,,531,0,14,,,10,,,76,64
106643,note_on,,,,,39,0,14,,,10,,,78,61
106644,note_off,,,,,102,0,13,,,8,,,79,64
106646,note_off,,,,,568,0,10,,,5,,,76,64
106648,note_on,,,,,120,0,16,,,12,,,50,68
106651,note_on,,,,,113,0,12,,,7,,,50,66
106656,note_off,,,,,8,0,16,,,12,,,49,64
106662,note_on,,,,,16,0,10,,,5,,,78,60
106666,note_off,,,,,15,0,12,,,7,,,49,64
106668,note_off,,,,,129,0,9,,,4,,,79,64
106691,note_off,,,,,131,0,11,,,6,,,69,64
106695,note_off,,,,,163,0,15,,,11,,,69,64
106751,note_off,,,,,85,0,12,,,7,,,50,64
106758,note_off,,,,,115,0,14,,,10,,,78,64
106761,note_off,,,,,105,0,16,,,12,,,50,64
106769,note_on,,,,,11,0,14,,,10,,,76,64
106769,note_on,,,,,8,0,16,,,12,,,49,76
106774,note_on,,,,,23,0,12,,,7,,,49,72
106775,note_on,,,,,131,0,13,,,8,,,69,66
106778,note_on,,,,,83,0,15,,,11,,,69,74
106778,note_off,,,,,116,0,10,,,5,,,78,64
106783,note_on,,,,,5,0,10,,,5,,,76,60
106791,note_on,,,,,100,0,11,,,6,,,69,64
106792,note_on,,,,,124,0,9,,,4,,,69,57
106875,note_off,,,,,106,0,16,,,12,,,49,64
106881,note_off,,,,,112,0,14,,,10,,,76,64
106888,note_on,,,,,7,0,14,,,10,,,74,66
106889,note_on,,,,,115,0,12,,,7,,,47,66
106890,note_off,,,,,1,0,12,,,7,,,49,64
106891,note_on,,,,,16,0,16,,,12,,,47,62
106896,note_off,,,,,113,0,10,,,5,,,76,64
106897,note_on,,,,,1,0,10,,,5,,,74,66
106923,note_off,,,,,132,0,11,,,6,,,69,64
106926,note_off,,,,,148,0,15,,,11,,,69,64
106980,note_off,,,,,92,0,14,,,10,,,74,64
106998,note_off,,,,,107,0,16,,,12,,,47,64
107001,note_off,,,,,104,0,10,,,5,,,74,64
107002,note_off,,,,,112,0,12,,,7,,,47,64
107008,note_on,,,,,10,0,16,,,12,,,49,57
107010,note_on,,,,,30,0,14,,,10,,,76,78
107012,note_on,,,,,86,0,15,,,11,,,69,70
107012,note_on,,,,,10,0,12,,,7,,,49,57
107023,note_on,,,,,22,0,10,,,5,,,76,70
107038,note_on,,,,,115,0,11,,,6,,,69,70
107106,note_off,,,,,331,0,13,,,8,,,69,64
107123,note_off,,,,,111,0,12,,,7,,,49,64
107125,note_on,,,,,2,0,12,,,7,,,45,64
107129,note_off,,,,,117,0,15,,,11,,,69,64
107130,note_on,,,,,0,0,16,,,12,,,45,68
107130,note_off,,,,,122,0,16,,,12,,,49,64
107132,note_off,,,,,94,0,11,,,6,,,69,64
107134,note_on,,,,,124,0,14,,,10,,,73,64
107135,note_off,,,,,343,0,9,,,4,,,69,64
107135,note_off,,,,,1,0,14,,,10,,,76,64
107142,note_off,,,,,119,0,10,,,5,,,76,64
107146,note_on,,,,,4,0,10,,,5,,,73,59
107230,note_off,,,,,105,0,12,,,7,,,45,64
107234,note_off,,,,,104,0,16,,,12,,,45,64
107235,note_off,,,,,100,0,14,,,10,,,73,64
107250,note_off,,,,,104,0,10,,,5,,,73,64
107252,note_on,,,,,22,0,12,,,7,,,50,68
107253,note_on,,,,,124,0,15,,,11,,,62,76
107253,note_on,,,,,19,0,16,,,12,,,50,76
107257,note_on,,,,,22,0,14,,,10,,,69,76
107265,note_on,,,,,133,0,11,,,6,,,62,60
107265,note_on,,,,,159,0,13,,,8,,,78,64
107270,note_on,,,,,20,0,10,,,5,,,69,64
107272,note_on,,,,,137,0,9,,,4,,,78,62
107373,note_on,,,,,120,0,16,,,12,,,49,66
107375,note_on,,,,,123,0,12,,,7,,,49,63
107375,note_off,,,,,110,0,13,,,8,,,78,64
107377,note_off,,,,,4,0,16,,,12,,,50,64
107378,note_off,,,,,106,0,9,,,4,,,78,64
107383,note_on,,,,,5,0,9,,,4,,,79,72
107387,note_on,,,,,12,0,13,,,8,,,79,72
107388,note_off,,,,,13,0,12,,,7,,,50,64
107401,note_off,,,,,131,0,10,,,5,,,69,64
107422,note_off,,,,,165,0,14,,,10,,,69,64
107483,note_off,,,,,100,0,9,,,4,,,79,64
107488,note_off,,,,,111,0,16,,,12,,,49,64
107488,note_on,,,,,0,0,16,,,12,,,47,66
107492,note_on,,,,,104,0,12,,,7,,,47,66
107493,note_off,,,,,106,0,13,,,8,,,79,64
107496,note_on,,,,,13,0,9,,,4,,,81,63
107497,note_off,,,,,5,0,12,,,7,,,49,64
107502,note_on,,,,,9,0,13,,,8,,,81,66
107506,note_on,,,,,84,0,14,,,10,,,74,74
107507,note_on,,,,,106,0,10,,,5,,,74,70
107589,note_on,,,,,93,0,9,,,4,,,79,55
107594,note_off,,,,,5,0,9,,,4,,,81,64
107599,note_on,,,,,102,0,12,,,7,,,45,53
107607,note_off,,,,,101,0,14,,,10,,,74,64
107609,note_off,,,,,107,0,13,,,8,,,81,64
107610,note_off,,,,,11,0,12,,,7,,,47,64
107610,note_on,,,,,3,0,14,,,10,,,73,66
107611,note_on,,,,,123,0,16,,,12,,,45,66
107612,note_on,,,,,3,0,13,,,8,,,79,51
107615,note_off,,,,,108,0,10,,,5,,,74,64
107615,note_off,,,,,4,0,16,,,12,,,47,64
107623,note_on,,,,,8,0,10,,,5,,,73,58
107636,note_off,,,,,42,0,9,,,4,,,79,64
107637,note_on,,,,,1,0,9,,,4,,,81,64
107650,note_off,,,,,38,0,13,,,8,,,79,64
107653,note_on,,,,,3,0,13,,,8,,,81,68
107656,note_off,,,,,391,0,11,,,6,,,62,64
107683,note_off,,,,,46,0,9,,,4,,,81,64
107685,note_on,,,,,2,0,9,,,4,,,79,50
107693,note_off,,,,,440,0,15,,,11,,,62,64
107693,note_on,,,,,40,0,13,,,8,,,79,58
107697,note_off,,,,,4,0,13,,,8,,,81,64
107706,note_off,,,,,96,0,14,,,10,,,73,64
107708,note_off,,,,,85,0,10,,,5,,,73,64
107714,note_on,,,,,29,0,9,,,4,,,81,64
107716,note_off,,,,,106,0,12,,,7,,,45,64
107723,note_off,,,,,108,0,16,,,12,,,45,64
107723,note_off,,,,,9,0,9,,,4,,,79,64
107728,note_on,,,,,5,0,16,,,12,,,47,72
107728,note_on,,,,,31,0,13,,,8,,,81,78
107736,note_on,,,,,20,0,12,,,7,,,47,70
107737,note_on,,,,,31,0,14,,,10,,,74,74
107739,note_off,,,,,11,0,13,,,8,,,79,64
107743,note_on,,,,,35,0,10,,,5,,,74,64
107748,note_on,,,,,25,0,9,,,4,,,79,34
107750,note_off,,,,,2,0,9,,,4,,,81,64
107755,note_on,,,,,62,0,15,,,11,,,71,78
107758,note_on,,,,,102,0,11,,,6,,,71,72
107759,note_on,,,,,20,0,13,,,8,,,79,46
107764,note_off,,,,,5,0,13,,,8,,,81,64
107772,note_off,,,,,22,0,9,,,4,,,79,64
107773,note_on,,,,,1,0,9,,,4,,,81,63
107785,note_off,,,,,21,0,13,,,8,,,79,64
107794,note_on,,,,,9,0,13,,,8,,,81,56
107797,note_on,,,,,24,0,9,,,4,,,79,51
107815,note_off,,,,,87,0,16,,,12,,,47,64
107815,note_off,,,,,18,0,9,,,4,,,81,64
107816,note_on,,,,,22,0,13,,,8,,,79,54
107821,note_off,,,,,85,0,12,,,7,,,47,64
107826,note_off,,,,,89,0,14,,,10,,,74,64
107831,note_on,,,,,16,0,16,,,12,,,43,70
107838,note_off,,,,,22,0,13,,,8,,,81,64
107841,note_on,,,,,20,0,12,,,7,,,43,64
107853,note_on,,,,,38,0,9,,,4,,,78,60
107855,note_on,,,,,17,0,13,,,8,,,78,63
107859,note_off,,,,,6,0,9,,,4,,,79,64
107866,note_off,,,,,11,0,13,,,8,,,79,64
107876,note_off,,,,,118,0,11,,,6,,,71,64
107876,note_off,,,,,133,0,10,,,5,,,74,64
107881,note_off,,,,,126,0,15,,,11,,,71,64
107903,note_on,,,,,37,0,13,,,8,,,79,85
107907,note_on,,,,,48,0,9,,,4,,,79,72
107914,note_off,,,,,11,0,13,,,8,,,78,64
107918,note_off,,,,,11,0,9,,,4,,,78,64
107949,note_off,,,,,118,0,16,,,12,,,43,64
107964,note_off,,,,,50,0,13,,,8,,,79,64
107964,note_off,,,,,46,0,9,,,4,,,79,64
107973,note_on,,,,,24,0,16,,,12,,,42,74
107979,note_on,,,,,15,0,13,,,8,,,81,85
107983,note_on,,,,,19,0,9,,,4,,,81,72
107988,note_on,,,,,162,0,14,,,10,,,74,80
107988,note_on,,,,,112,0,10,,,5,,,74,70
107991,note_off,,,,,150,0,12,,,7,,,43,64
107991,note_on,,,,,0,0,12,,,7,,,42,70
107995,note_on,,,,,114,0,15,,,11,,,69,85
108001,note_on,,,,,125,0,11,,,6,,,69,78
108071,note_on,,,,,92,0,13,,,8,,,79,53
108088,note_off,,,,,105,0,9,,,4,,,81,64
108091,note_on,,,,,3,0,9,,,4,,,79,60
108105,note_off,,,,,34,0,13,,,8,,,81,64
108193,note_off,,,,,102,0,9,,,4,,,79,64
108200,note_off,,,,,95,0,13,,,8,,,79,64
108201,note_on,,,,,1,0,13,,,8,,,78,64
108215,note_on,,,,,22,0,9,,,4,,,78,64
108294,note_off,,,,,93,0,13,,,8,,,78,64
108321,note_on,,,,,27,0,13,,,8,,,79,68
108333,note_on,,,,,118,0,9,,,4,,,76,62
108347,note_off,,,,,14,0,9,,,4,,,78,64
108407,note_off,,,,,86,0,13,,,8,,,79,64
108438,note_off,,,,,91,0,9,,,4,,,76,64
108451,note_on,,,,,44,0,13,,,8,,,81,70
108460,note_on,,,,,22,0,9,,,4,,,74,70
108570,note_off,,,,,110,0,9,,,4,,,74,64
108570,note_on,,,,,0,0,9,,,4,,,73,57
108570,note_off,,,,,119,0,13,,,8,,,81,64
108575,note_off,,,,,602,0,16,,,12,,,42,64
108577,note_off,,,,,586,0,12,,,7,,,42,64
108588,note_off,,,,,587,0,11,,,6,,,69,64
108603,note_off,,,,,608,0,15,,,11,,,69,64
108623,note_off,,,,,635,0,10,,,5,,,74,64
108635,note_off,,,,,647,0,14,,,10,,,74,64
108675,note_off,,,,,105,0,9,,,4,,,73,64
108695,note_on,,,,,125,0,13,,,8,,,71,66
108697,note_on,,,,,122,0,16,,,12,,,43,85
108697,note_on,,,,,120,0,12,,,7,,,43,87
108702,note_on,,,,,99,0,15,,,11,,,62,68
108702,note_on,,,,,67,0,14,,,10,,,67,68
108703,note_on,,,,,28,0,9,,,4,,,71,68
108708,note_on,,,,,120,0,11,,,6,,,62,60
108708,note_on,,,,,85,0,10,,,5,,,67,68
108801,note_off,,,,,98,0,9,,,4,,,71,64
108801,note_off,,,,,104,0,12,,,7,,,43,64
108803,note_off,,,,,108,0,13,,,8,,,71,64
108813,note_off,,,,,105,0,11,,,6,,,62,64
108814,note_off,,,,,106,0,10,,,5,,,67,64
108816,note_off,,,,,119,0,16,,,12,,,43,64
108827,note_off,,,,,125,0,14,,,10,,,67,64
108835,note_off,,,,,133,0,15,,,11,,,62,64
108934,note_on,,,,,99,0,15,,,11,,,67,82
108937,note_on,,,,,110,0,14,,,10,,,71,80
108940,note_on,,,,,126,0,10,,,5,,,71,66
108941,note_on,,,,,128,0,11,,,6,,,67,70
108942,note_on,,,,,139,0,13,,,8,,,76,82
108945,note_on,,,,,129,0,16,,,12,,,40,68
108949,note_on,,,,,148,0,12,,,7,,,40,66
108949,note_on,,,,,148,0,9,,,4,,,76,78
109029,note_off,,,,,87,0,13,,,8,,,76,64
109044,note_off,,,,,95,0,9,,,4,,,76,64
109047,note_off,,,,,106,0,11,,,6,,,67,64
109055,note_off,,,,,121,0,15,,,11,,,67,64
109059,note_off,,,,,119,0,10,,,5,,,71,64
109061,note_off,,,,,116,0,16,,,12,,,40,64
109065,note_off,,,,,116,0,12,,,7,,,40,64
109085,note_off,,,,,148,0,14,,,10,,,71,64
109181,note_on,,,,,134,0,11,,,6,,,64,63
109181,note_on,,,,,96,0,14,,,10,,,69,70
109184,note_on,,,,,155,0,13,,,8,,,73,68
109184,note_on,,,,,129,0,15,,,11,,,64,63
109186,note_on,,,,,127,0,10,,,5,,,69,60
109186,note_on,,,,,121,0,12,,,7,,,45,78
109191,note_on,,,,,130,0,16,,,12,,,45,66
109194,note_on,,,,,150,0,9,,,4,,,73,57
109286,note_off,,,,,102,0,13,,,8,,,73,64
109295,note_off,,,,,104,0,16,,,12,,,45,64
109296,note_off,,,,,102,0,9,,,4,,,73,64
109296,note_off,,,,,110,0,10,,,5,,,69,64
109300,note_off,,,,,119,0,11,,,6,,,64,64
109306,note_off,,,,,125,0,14,,,10,,,69,64
109313,note_off,,,,,127,0,12,,,7,,,45,64
109319,note_off,,,,,135,0,15,,,11,,,64,64
109423,note_on,,,,,123,0,11,,,6,,,66,59
109424,note_on,,,,,105,0,15,,,11,,,66,66
109429,note_on,,,,,123,0,14,,,10,,,69,68
109431,note_on,,,,,145,0,13,,,8,,,74,64
109436,note_on,,,,,140,0,9,,,4,,,74,68
109437,note_on,,,,,141,0,10,,,5,,,69,59
109438,note_on,,,,,143,0,16,,,12,,,38,74
109441,note_on,,,,,128,0,12,,,7,,,38,78
109982,note_off,,,,,551,0,13,,,8,,,74,64
109983,note_off,,,,,547,0,9,,,4,,,74,64
109998,note_off,,,,,575,0,11,,,6,,,66,64
110020,note_off,,,,,582,0,16,,,12,,,38,64
110023,note_off,,,,,594,0,14,,,10,,,69,64
110027,note_off,,,,,603,0,15,,,11,,,66,64
110031,note_off,,,,,594,0,10,,,5,,,69,64
110035,note_off,,,,,594,0,12,,,7,,,38,64
110147,note_on,,,,,124,0,14,,,10,,,73,80
110151,note_on,,,,,131,0,16,,,12,,,57,66
110151,note_on,,,,,124,0,15,,,11,,,69,78
110154,note_on,,,,,123,0,10,,,5,,,73,60
110157,note_on,,,,,159,0,11,,,6,,,69,72
110162,note_on,,,,,180,0,13,,,8,,,76,78
110164,note_on,,,,,129,0,12,,,7,,,57,63
110164,note_on,,,,,181,0,9,,,4,,,76,80
110293,note_off,,,,,136,0,11,,,6,,,69,64
110298,note_off,,,,,147,0,15,,,11,,,69,64
110333,note_off,,,,,169,0,9,,,4,,,76,64
110338,note_off,,,,,191,0,14,,,10,,,73,64
110346,note_off,,,,,184,0,13,,,8,,,76,64
110353,note_off,,,,,199,0,10,,,5,,,73,64
110387,note_on,,,,,49,0,14,,,10,,,71,66
110396,note_on,,,,,98,0,15,,,11,,,66,70
110399,note_on,,,,,46,0,10,,,5,,,71,66
110400,note_on,,,,,67,0,9,,,4,,,74,78
110405,note_on,,,,,59,0,13,,,8,,,74,80
110405,note_on,,,,,112,0,11,,,6,,,66,61
110496,note_off,,,,,109,0,14,,,10,,,71,64
110502,note_on,,,,,6,0,14,,,10,,,69,68
110505,note_off,,,,,105,0,9,,,4,,,74,64
110508,note_on,,,,,3,0,9,,,4,,,73,62
110508,note_off,,,,,103,0,13,,,8,,,74,64
110512,note_on,,,,,113,0,10,,,5,,,69,80
110514,note_on,,,,,6,0,13,,,8,,,73,63
110515,note_off,,,,,3,0,10,,,5,,,71,64
110523,note_off,,,,,118,0,11,,,6,,,66,64
110528,note_off,,,,,132,0,15,,,11,,,66,64
110572,note_off,,,,,408,0,12,,,7,,,57,64
110587,note_off,,,,,436,0,16,,,12,,,57,64
110613,note_off,,,,,111,0,14,,,10,,,69,64
110613,note_off,,,,,98,0,10,,,5,,,69,64
110620,note_on,,,,,112,0,9,,,4,,,74,66
110624,note_off,,,,,4,0,9,,,4,,,73,64
110627,note_on,,,,,14,0,14,,,10,,,71,68
110630,note_on,,,,,17,0,10,,,5,,,71,72
110635,note_on,,,,,48,0,16,,,12,,,56,64
110635,note_on,,,,,121,0,13,,,8,,,74,70
110636,note_on,,,,,108,0,15,,,11,,,64,64
110642,note_on,,,,,119,0,11,,,6,,,64,57
110646,note_on,,,,,74,0,12,,,7,,,56,64
110647,note_off,,,,,12,0,13,,,8,,,73,64
110729,note_off,,,,,105,0,9,,,4,,,74,64
110733,note_off,,,,,91,0,11,,,6,,,64,64
110738,note_off,,,,,91,0,13,,,8,,,74,64
110738,note_on,,,,,9,0,9,,,4,,,71,64
110741,note_on,,,,,3,0,13,,,8,,,71,70
110750,note_off,,,,,114,0,15,,,11,,,64,64
110760,note_off,,,,,114,0,12,,,7,,,56,64
110762,note_off,,,,,127,0,16,,,12,,,56,64
110777,note_off,,,,,150,0,14,,,10,,,71,64
110795,note_off,,,,,165,0,10,,,5,,,71,64
110826,note_off,,,,,88,0,9,,,4,,,71,64
110843,note_off,,,,,102,0,13,,,8,,,71,64
110861,note_on,,,,,35,0,9,,,4,,,73,66
110864,note_on,,,,,87,0,14,,,10,,,69,74
110871,note_on,,,,,28,0,13,,,8,,,73,63
110876,note_on,,,,,116,0,12,,,7,,,57,63
110876,note_on,,,,,81,0,10,,,5,,,69,78
110877,note_on,,,,,144,0,11,,,6,,,64,64
110880,note_on,,,,,130,0,15,,,11,,,64,78
110880,note_on,,,,,118,0,16,,,12,,,57,68
110974,note_on,,,,,113,0,9,,,4,,,74,70
110983,note_on,,,,,112,0,13,,,8,,,74,68
110983,note_off,,,,,106,0,11,,,6,,,64,64
110987,note_off,,,,,107,0,15,,,11,,,64,64
110987,note_off,,,,,13,0,9,,,4,,,73,64
110988,note_on,,,,,124,0,14,,,10,,,71,72
110988,note_on,,,,,112,0,10,,,5,,,71,66
110995,note_off,,,,,12,0,13,,,8,,,73,64
110998,note_off,,,,,10,0,10,,,5,,,69,64
111013,note_off,,,,,25,0,14,,,10,,,69,64
111049,note_off,,,,,173,0,12,,,7,,,57,64
111068,note_off,,,,,188,0,16,,,12,,,57,64
111079,note_off,,,,,84,0,13,,,8,,,74,64
111087,note_off,,,,,100,0,9,,,4,,,74,64
111106,note_on,,,,,19,0,9,,,4,,,76,78
111110,note_on,,,,,31,0,13,,,8,,,76,80
111112,note_on,,,,,129,0,11,,,6,,,69,66
111113,note_on,,,,,64,0,12,,,7,,,55,78
111114,note_on,,,,,101,0,14,,,10,,,73,62
111116,note_on,,,,,118,0,10,,,5,,,73,58
111118,note_on,,,,,50,0,16,,,12,,,55,80
111121,note_off,,,,,7,0,14,,,10,,,71,64
111122,note_on,,,,,135,0,15,,,11,,,69,85
111126,note_off,,,,,10,0,10,,,5,,,71,64
111213,note_on,,,,,92,0,14,,,10,,,74,76
111219,note_off,,,,,109,0,13,,,8,,,76,64
111222,note_on,,,,,96,0,10,,,5,,,74,80
111222,note_off,,,,,116,0,9,,,4,,,76,64
111223,note_on,,,,,110,0,12,,,7,,,54,63
111226,note_on,,,,,108,0,16,,,12,,,54,76
111227,note_off,,,,,4,0,12,,,7,,,55,64
111228,note_off,,,,,2,0,16,,,12,,,55,64
111232,note_off,,,,,19,0,14,,,10,,,73,64
111235,note_off,,,,,13,0,10,,,5,,,73,64
111315,note_off,,,,,83,0,14,,,10,,,74,64
111324,note_off,,,,,97,0,12,,,7,,,54,64
111324,note_off,,,,,89,0,10,,,5,,,74,64
111336,note_on,,,,,21,0,14,,,10,,,76,85
111340,note_off,,,,,112,0,16,,,12,,,54,64
111341,note_on,,,,,122,0,13,,,8,,,69,68
111344,note_on,,,,,20,0,10,,,5,,,76,76
111345,note_on,,,,,123,0,9,,,4,,,69,68
111347,note_on,,,,,7,0,16,,,12,,,55,64
111349,note_on,,,,,25,0,12,,,7,,,55,70
111437,note_off,,,,,88,0,12,,,7,,,55,64
111442,note_off,,,,,95,0,16,,,12,,,55,64
111449,note_on,,,,,12,0,12,,,7,,,52,60
111454,note_on,,,,,118,0,14,,,10,,,73,62
111455,note_on,,,,,111,0,10,,,5,,,73,62
111455,note_off,,,,,114,0,13,,,8,,,69,64
111456,note_on,,,,,14,0,16,,,12,,,52,72
111459,note_off,,,,,4,0,10,,,5,,,76,64
111464,note_off,,,,,10,0,14,,,10,,,76,64
111468,note_off,,,,,123,0,9,,,4,,,69,64
111510,note_off,,,,,398,0,11,,,6,,,69,64
111512,note_off,,,,,390,0,15,,,11,,,69,64
111543,note_off,,,,,79,0,14,,,10,,,73,64
111543,note_off,,,,,94,0,12,,,7,,,52,64
111555,note_off,,,,,99,0,16,,,12,,,52,64
111565,note_off,,,,,106,0,10,,,5,,,73,64
111570,note_on,,,,,27,0,14,,,10,,,74,74
111574,note_on,,,,,19,0,16,,,12,,,54,76
111581,note_on,,,,,38,0,12,,,7,,,54,74
111585,note_on,,,,,130,0,13,,,8,,,74,72
111586,note_on,,,,,21,0,10,,,5,,,74,78
111586,note_on,,,,,118,0,9,,,4,,,74,72
111586,note_on,,,,,74,0,15,,,11,,,69,78
111590,note_on,,,,,80,0,11,,,6,,,69,68
111677,note_off,,,,,92,0,13,,,8,,,74,64
111694,note_off,,,,,108,0,9,,,4,,,74,64
111694,note_off,,,,,124,0,14,,,10,,,74,64
111697,note_on,,,,,20,0,13,,,8,,,76,78
111701,note_off,,,,,115,0,15,,,11,,,69,64
111701,note_on,,,,,7,0,9,,,4,,,76,68
111717,note_off,,,,,127,0,11,,,6,,,69,64
111726,note_off,,,,,152,0,16,,,12,,,54,64
111727,note_off,,,,,146,0,12,,,7,,,54,64
111729,note_off,,,,,143,0,10,,,5,,,74,64
111779,note_off,,,,,82,0,13,,,8,,,76,64
111800,note_off,,,,,99,0,9,,,4,,,76,64
111808,note_on,,,,,29,0,13,,,8,,,78,78
111815,note_on,,,,,15,0,9,,,4,,,78,58
111819,note_on,,,,,125,0,14,,,10,,,74,78
111823,note_on,,,,,97,0,16,,,12,,,55,80
111827,note_on,,,,,126,0,15,,,11,,,71,82
111828,note_on,,,,,101,0,12,,,7,,,55,78
111830,note_on,,,,,113,0,11,,,6,,,71,66
111831,note_on,,,,,102,0,10,,,5,,,74,70
111891,note_on,,,,,76,0,9,,,4,,,76,47
111897,note_off,,,,,6,0,9,,,4,,,78,64
111920,note_on,,,,,112,0,13,,,8,,,76,55
111932,note_off,,,,,12,0,13,,,8,,,78,64
111933,note_off,,,,,106,0,15,,,11,,,71,64
111935,note_on,,,,,38,0,9,,,4,,,78,58
111937,note_off,,,,,2,0,9,,,4,,,76,64
111940,note_off,,,,,110,0,11,,,6,,,71,64
111944,note_off,,,,,116,0,12,,,7,,,55,64
111951,note_off,,,,,128,0,16,,,12,,,55,64
111955,note_off,,,,,124,0,10,,,5,,,74,64
111962,note_off,,,,,143,0,14,,,10,,,74,64
111973,note_off,,,,,41,0,13,,,8,,,76,64
111973,note_on,,,,,36,0,9,,,4,,,76,57
111976,note_on,,,,,3,0,13,,,8,,,78,57
111976,note_off,,,,,3,0,9,,,4,,,78,64
112008,note_on,,,,,32,0,9,,,4,,,78,60
112010,note_on,,,,,34,0,13,,,8,,,76,59
112014,note_off,,,,,6,0,9,,,4,,,76,64
112015,note_off,,,,,5,0,13,,,8,,,78,64
112040,note_on,,,,,26,0,9,,,4,,,76,53
112041,note_off,,,,,1,0,9,,,4,,,78,64
112043,note_on,,,,,81,0,14,,,10,,,74,85
112045,note_on,,,,,30,0,13,,,8,,,78,60
112051,note_off,,,,,6,0,13,,,8,,,76,64
112059,note_on,,,,,126,0,15,,,11,,,69,78
112065,note_on,,,,,110,0,10,,,5,,,73,58
112065,note_on,,,,,114,0,16,,,12,,,57,78
112067,note_on,,,,,127,0,11,,,6,,,69,62
112073,note_off,,,,,32,0,9,,,4,,,76,64
112073,note_on,,,,,0,0,9,,,4,,,78,74
112073,note_on,,,,,129,0,12,,,7,,,57,80
112075,note_off,,,,,24,0,13,,,8,,,78,64
112090,note_on,,,,,47,0,14,,,10,,,73,48
112091,note_off,,,,,1,0,14,,,10,,,74,64
112102,note_on,,,,,29,0,9,,,4,,,76,62
112103,note_on,,,,,28,0,13,,,8,,,78,66
112119,note_off,,,,,17,0,9,,,4,,,78,64
112121,note_on,,,,,30,0,14,,,10,,,74,72
112129,note_off,,,,,8,0,14,,,10,,,73,64
112129,note_on,,,,,26,0,13,,,8,,,76,60
112159,note_on,,,,,40,0,9,,,4,,,74,63
112159,note_off,,,,,30,0,13,,,8,,,78,64
112161,note_on,,,,,32,0,14,,,10,,,73,68
112169,note_off,,,,,10,0,9,,,4,,,76,64
112177,note_on,,,,,18,0,13,,,8,,,74,72
112180,note_off,,,,,19,0,14,,,10,,,74,64
112182,note_off,,,,,109,0,12,,,7,,,57,64
112182,note_off,,,,,117,0,16,,,12,,,57,64
112182,note_off,,,,,115,0,11,,,6,,,69,64
112183,note_off,,,,,118,0,10,,,5,,,73,64
112185,note_off,,,,,8,0,13,,,8,,,76,64
112215,note_off,,,,,156,0,15,,,11,,,69,64
112215,note_on,,,,,46,0,9,,,4,,,76,68
112227,note_on,,,,,42,0,13,,,8,,,76,70
112238,note_off,,,,,23,0,9,,,4,,,74,64
112250,note_off,,,,,23,0,13,,,8,,,74,64
112255,note_off,,,,,75,0,14,,,10,,,73,64
112288,note_on,,,,,33,0,14,,,10,,,74,80
112291,note_off,,,,,53,0,9,,,4,,,76,64
112294,note_on,,,,,79,0,15,,,11,,,69,80
112295,note_off,,,,,45,0,13,,,8,,,76,64
112300,note_on,,,,,9,0,9,,,4,,,78,68
112300,note_on,,,,,5,0,13,,,8,,,78,85
112305,note_on,,,,,123,0,16,,,12,,,50,82
112309,note_on,,,,,126,0,10,,,5,,,74,82
112310,note_on,,,,,128,0,11,,,6,,,69,64
112314,note_on,,,,,132,0,12,,,7,,,50,68
112409,note_on,,,,,115,0,15,,,11,,,67,66
112410,note_on,,,,,110,0,9,,,4,,,76,66
112414,note_off,,,,,126,0,14,,,10,,,74,64
112415,note_on,,,,,115,0,13,,,8,,,76,68
112417,note_off,,,,,8,0,15,,,11,,,69,64
112419,note_off,,,,,9,0,9,,,4,,,78,64
112421,note_on,,,,,111,0,11,,,6,,,67,70
112423,note_off,,,,,114,0,10,,,5,,,74,64
112430,note_off,,,,,15,0,13,,,8,,,78,64
112431,note_off,,,,,117,0,12,,,7,,,50,64
112432,note_off,,,,,11,0,11,,,6,,,69,64
112444,note_off,,,,,139,0,16,,,12,,,50,64
112511,note_off,,,,,94,0,15,,,11,,,67,64
112523,note_on,,,,,12,0,15,,,11,,,66,74
112526,note_off,,,,,107,0,9,,,4,,,76,64
112531,note_off,,,,,99,0,11,,,6,,,67,64
112533,note_off,,,,,103,0,13,,,8,,,76,64
112533,note_on,,,,,119,0,14,,,10,,,69,64
112537,note_on,,,,,6,0,11,,,6,,,66,60
112539,note_on,,,,,6,0,13,,,8,,,74,72
112545,note_on,,,,,19,0,9,,,4,,,74,72
112548,note_on,,,,,104,0,16,,,12,,,62,89
112549,note_on,,,,,126,0,10,,,5,,,69,68
112551,note_on,,,,,120,0,12,,,7,,,62,85
112647,note_on,,,,,124,0,15,,,11,,,67,68
112650,note_on,,,,,113,0,11,,,6,,,67,66
112651,note_off,,,,,1,0,11,,,6,,,66,64
112654,note_off,,,,,7,0,15,,,11,,,66,64
112654,note_on,,,,,115,0,13,,,8,,,76,68
112655,note_off,,,,,106,0,10,,,5,,,69,64
112659,note_off,,,,,126,0,14,,,10,,,69,64
112660,note_on,,,,,0,0,9,,,4,,,76,66
112660,note_off,,,,,115,0,9,,,4,,,74,64
112663,note_off,,,,,9,0,13,,,8,,,74,64
112669,note_off,,,,,118,0,12,,,7,,,62,64
112680,note_off,,,,,132,0,16,,,12,,,62,64
112732,note_off,,,,,78,0,15,,,11,,,67,64
112758,note_on,,,,,26,0,15,,,11,,,69,68
112764,note_off,,,,,104,0,9,,,4,,,76,64
112768,note_off,,,,,117,0,11,,,6,,,67,64
112770,note_on,,,,,111,0,14,,,10,,,74,78
112772,note_on,,,,,109,0,13,,,8,,,78,62
112777,note_on,,,,,9,0,11,,,6,,,69,74
112783,note_off,,,,,11,0,13,,,8,,,76,64
112783,note_on,,,,,19,0,9,,,4,,,78,57
112788,note_on,,,,,133,0,10,,,5,,,74,76
112796,note_on,,,,,116,0,16,,,12,,,57,78
112798,note_on,,,,,129,0,12,,,7,,,57,76
112869,note_off,,,,,111,0,15,,,11,,,69,64
112879,note_on,,,,,96,0,13,,,8,,,79,85
112882,note_on,,,,,13,0,15,,,11,,,71,63
112894,note_on,,,,,117,0,11,,,6,,,71,78
112896,note_off,,,,,2,0,11,,,6,,,69,64
112898,note_on,,,,,115,0,9,,,4,,,79,70
112898,note_off,,,,,110,0,10,,,5,,,74,64
112899,note_off,,,,,1,0,9,,,4,,,78,64
112904,note_off,,,,,108,0,16,,,12,,,57,64
112905,note_off,,,,,26,0,13,,,8,,,78,64
112920,note_off,,,,,122,0,12,,,7,,,57,64
112923,note_off,,,,,153,0,14,,,10,,,74,64
112991,note_off,,,,,92,0,9,,,4,,,79,64
112993,note_off,,,,,111,0,15,,,11,,,71,64
112999,note_off,,,,,94,0,13,,,8,,,79,64
113002,note_off,,,,,106,0,11,,,6,,,71,64
113009,note_on,,,,,10,0,13,,,8,,,81,85
113015,note_on,,,,,22,0,15,,,11,,,72,68
113017,note_on,,,,,113,0,16,,,12,,,54,68
113018,note_on,,,,,95,0,14,,,10,,,75,68
113019,note_on,,,,,17,0,11,,,6,,,72,80
113023,note_on,,,,,125,0,10,,,5,,,75,64
113026,note_on,,,,,106,0,12,,,7,,,54,64
113034,note_on,,,,,43,0,9,,,4,,,81,82
113111,note_off,,,,,93,0,14,,,10,,,75,64
113120,note_off,,,,,97,0,10,,,5,,,75,64
113124,note_on,,,,,107,0,16,,,12,,,52,66
113126,note_on,,,,,15,0,14,,,10,,,76,74
113128,note_off,,,,,4,0,16,,,12,,,54,64
113132,note_on,,,,,12,0,10,,,5,,,76,64
113144,note_off,,,,,118,0,12,,,7,,,54,64
113145,note_on,,,,,1,0,12,,,7,,,52,63
113161,note_off,,,,,142,0,11,,,6,,,72,64
113161,note_off,,,,,127,0,9,,,4,,,81,64
113162,note_off,,,,,147,0,15,,,11,,,72,64
113181,note_off,,,,,172,0,13,,,8,,,81,64
113234,note_off,,,,,102,0,10,,,5,,,76,64
113238,note_off,,,,,112,0,14,,,10,,,76,64
113238,note_off,,,,,110,0,16,,,12,,,52,64
113241,note_on,,,,,3,0,16,,,12,,,51,63
113245,note_off,,,,,100,0,12,,,7,,,52,64
113245,note_on,,,,,7,0,14,,,10,,,78,66
113251,note_on,,,,,89,0,15,,,11,,,71,80
113254,note_on,,,,,73,0,13,,,8,,,79,85
113254,note_on,,,,,93,0,11,,,6,,,71,66
113258,note_on,,,,,24,0,10,,,5,,,78,68
113260,note_on,,,,,99,0,9,,,4,,,79,72
113262,note_on,,,,,17,0,12,,,7,,,51,57
113343,note_off,,,,,98,0,14,,,10,,,78,64
113350,note_on,,,,,90,0,9,,,4,,,78,42
113354,note_on,,,,,100,0,13,,,8,,,78,57
113359,note_off,,,,,9,0,9,,,4,,,79,64
113361,note_off,,,,,7,0,13,,,8,,,79,64
113363,note_on,,,,,122,0,16,,,12,,,49,59
113364,note_off,,,,,1,0,16,,,12,,,51,64
113367,note_off,,,,,109,0,10,,,5,,,78,64
113376,note_off,,,,,122,0,11,,,6,,,71,64
113376,note_on,,,,,114,0,12,,,7,,,49,59
113381,note_off,,,,,5,0,12,,,7,,,51,64
113382,note_off,,,,,131,0,15,,,11,,,71,64
113395,note_on,,,,,34,0,13,,,8,,,79,70
113395,note_off,,,,,36,0,9,,,4,,,78,64
113398,note_off,,,,,3,0,13,,,8,,,78,64
113399,note_on,,,,,4,0,9,,,4,,,79,57
113431,note_on,,,,,32,0,9,,,4,,,78,57
113435,note_on,,,,,37,0,13,,,8,,,78,60
113437,note_off,,,,,6,0,9,,,4,,,79,64
113442,note_off,,,,,7,0,13,,,8,,,79,64
113468,note_on,,,,,26,0,13,,,8,,,79,66
113470,note_off,,,,,2,0,13,,,8,,,78,64
113470,note_on,,,,,0,0,9,,,4,,,79,58
113470,note_off,,,,,33,0,9,,,4,,,78,64
113477,note_off,,,,,113,0,16,,,12,,,49,64
113482,note_on,,,,,139,0,14,,,10,,,71,78
113485,note_off,,,,,104,0,12,,,7,,,49,64
113492,note_on,,,,,15,0,16,,,12,,,51,64
113498,note_on,,,,,28,0,9,,,4,,,78,45
113501,note_on,,,,,125,0,11,,,6,,,69,64
113501,note_on,,,,,134,0,10,,,5,,,71,72
113501,note_on,,,,,31,0,13,,,8,,,78,63
113501,note_off,,,,,3,0,9,,,4,,,79,64
113503,note_on,,,,,121,0,15,,,11,,,69,72
113508,note_off,,,,,7,0,13,,,8,,,79,64
113511,note_on,,,,,26,0,12,,,7,,,51,58
113522,note_off,,,,,21,0,9,,,4,,,78,64
113523,note_on,,,,,1,0,9,,,4,,,79,66
113531,note_on,,,,,23,0,13,,,8,,,79,78
113535,note_off,,,,,4,0,13,,,8,,,78,64
113558,note_on,,,,,35,0,9,,,4,,,78,59
113562,note_on,,,,,27,0,13,,,8,,,78,61
113571,note_off,,,,,13,0,9,,,4,,,79,64
113588,note_off,,,,,26,0,13,,,8,,,79,64
113603,note_off,,,,,111,0,16,,,12,,,51,64
113608,note_off,,,,,97,0,12,,,7,,,51,64
113610,note_on,,,,,22,0,13,,,8,,,76,66
113610,note_off,,,,,107,0,15,,,11,,,69,64
113613,note_on,,,,,10,0,16,,,12,,,47,68
113614,note_off,,,,,4,0,13,,,8,,,78,64
113617,note_on,,,,,46,0,9,,,4,,,76,64
113621,note_on,,,,,13,0,12,,,7,,,47,68
113623,note_off,,,,,6,0,9,,,4,,,78,64
113627,note_off,,,,,126,0,11,,,6,,,69,64
113661,note_on,,,,,47,0,13,,,8,,,78,59
113674,note_on,,,,,51,0,9,,,4,,,78,59
113696,note_off,,,,,35,0,13,,,8,,,76,64
113702,note_off,,,,,89,0,16,,,12,,,47,64
113709,note_off,,,,,35,0,9,,,4,,,76,64
113727,note_off,,,,,106,0,12,,,7,,,47,64
113728,note_off,,,,,32,0,13,,,8,,,78,64
113730,note_on,,,,,2,0,13,,,8,,,79,80
113730,note_on,,,,,28,0,16,,,12,,,52,70
113739,note_on,,,,,129,0,15,,,11,,,67,82
113741,note_on,,,,,114,0,11,,,6,,,67,68
113744,note_on,,,,,17,0,12,,,7,,,52,60
113752,note_off,,,,,43,0,9,,,4,,,78,64
113765,note_on,,,,,13,0,9,,,4,,,79,70
113837,note_off,,,,,107,0,16,,,12,,,52,64
113838,note_off,,,,,94,0,12,,,7,,,52,64
113862,note_off,,,,,123,0,15,,,11,,,67,64
113866,note_off,,,,,125,0,11,,,6,,,67,64
113867,note_off,,,,,137,0,13,,,8,,,79,64
113886,note_off,,,,,121,0,9,,,4,,,79,64
113898,note_off,,,,,416,0,14,,,10,,,71,64
113927,note_off,,,,,426,0,10,,,5,,,71,64
113978,note_on,,,,,111,0,13,,,8,,,75,78
113981,note_on,,,,,144,0,16,,,12,,,59,76
113982,note_on,,,,,116,0,11,,,6,,,66,59
113982,note_on,,,,,84,0,14,,,10,,,69,74
113984,note_on,,,,,146,0,12,,,7,,,59,68
113987,note_on,,,,,125,0,15,,,11,,,66,80
113999,note_on,,,,,72,0,10,,,5,,,69,66
114004,note_on,,,,,118,0,9,,,4,,,75,66
114073,note_off,,,,,95,0,13,,,8,,,75,64
114077,note_off,,,,,90,0,15,,,11,,,66,64
114083,note_off,,,,,101,0,14,,,10,,,69,64
114083,note_off,,,,,102,0,16,,,12,,,59,64
114098,note_off,,,,,99,0,10,,,5,,,69,64
114099,note_off,,,,,95,0,9,,,4,,,75,64
114109,note_off,,,,,127,0,11,,,6,,,66,64
114109,note_off,,,,,125,0,12,,,7,,,59,64
114217,note_on,,,,,144,0,13,,,8,,,76,85
114225,note_on,,,,,142,0,14,,,10,,,67,72
114227,note_on,,,,,144,0,16,,,12,,,60,80
114228,note_on,,,,,130,0,10,,,5,,,67,64
114234,note_on,,,,,125,0,11,,,6,,,64,64
114236,note_on,,,,,159,0,15,,,11,,,64,82
114239,note_on,,,,,130,0,12,,,7,,,60,70
114243,note_on,,,,,144,0,9,,,4,,,76,76
114339,note_off,,,,,105,0,11,,,6,,,64,64
114346,note_off,,,,,118,0,10,,,5,,,67,64
114348,note_off,,,,,109,0,12,,,7,,,60,64
114348,note_off,,,,,123,0,14,,,10,,,67,64
114349,note_off,,,,,122,0,16,,,12,,,60,64
114470,note_on,,,,,122,0,14,,,10,,,72,82
114470,note_on,,,,,121,0,16,,,12,,,57,60
114470,note_on,,,,,124,0,10,,,5,,,72,82
114473,note_on,,,,,134,0,11,,,6,,,69,80
114476,note_on,,,,,128,0,12,,,7,,,57,70
114514,note_off,,,,,271,0,9,,,4,,,76,64
114550,note_off,,,,,333,0,13,,,8,,,76,64
114577,note_off,,,,,104,0,11,,,6,,,69,64
114580,note_on,,,,,30,0,13,,,8,,,78,68
114581,note_off,,,,,111,0,10,,,5,,,72,64
114582,note_on,,,,,68,0,9,,,4,,,78,64
114586,note_off,,,,,110,0,12,,,7,,,57,64
114589,note_off,,,,,119,0,16,,,12,,,57,64
114591,note_off,,,,,121,0,14,,,10,,,72,64
114606,note_off,,,,,370,0,15,,,11,,,64,64
114659,note_off,,,,,77,0,9,,,4,,,78,64
114664,note_off,,,,,84,0,13,,,8,,,78,64
114698,note_on,,,,,117,0,10,,,5,,,71,74
114699,note_on,,,,,35,0,13,,,8,,,79,74
114700,note_on,,,,,41,0,9,,,4,,,79,62
114708,note_on,,,,,131,0,11,,,6,,,64,70
114712,note_on,,,,,121,0,14,,,10,,,71,76
114712,note_on,,,,,106,0,15,,,11,,,63,78
114717,note_on,,,,,128,0,16,,,12,,,59,78
114717,note_on,,,,,131,0,12,,,7,,,59,78
114787,note_on,,,,,88,0,13,,,8,,,78,59
114788,note_on,,,,,88,0,9,,,4,,,78,49
114796,note_off,,,,,9,0,13,,,8,,,79,64
114797,note_off,,,,,9,0,9,,,4,,,79,64
114812,note_off,,,,,114,0,10,,,5,,,71,64
114819,note_on,,,,,111,0,11,,,6,,,63,57
114821,note_off,,,,,2,0,11,,,6,,,64,64
114825,note_off,,,,,108,0,16,,,12,,,59,64
114826,note_off,,,,,30,0,13,,,8,,,78,64
114827,note_off,,,,,30,0,9,,,4,,,78,64
114829,note_on,,,,,3,0,13,,,8,,,79,68
114829,note_off,,,,,117,0,15,,,11,,,63,64
114830,note_off,,,,,113,0,12,,,7,,,59,64
114831,note_on,,,,,4,0,9,,,4,,,79,57
114839,note_off,,,,,127,0,14,,,10,,,71,64
114853,note_off,,,,,32,0,11,,,6,,,63,64
114853,note_on,,,,,0,0,11,,,6,,,64,63
114864,note_on,,,,,35,0,13,,,8,,,78,60
114865,note_on,,,,,34,0,9,,,4,,,78,56
114869,note_off,,,,,5,0,13,,,8,,,79,64
114870,note_off,,,,,5,0,9,,,4,,,79,64
114891,note_on,,,,,38,0,11,,,6,,,63,64
114896,note_off,,,,,26,0,9,,,4,,,78,64
114897,note_on,,,,,28,0,13,,,8,,,79,74
114900,note_off,,,,,9,0,11,,,6,,,64,64
114902,note_on,,,,,6,0,9,,,4,,,79,64
114906,note_off,,,,,9,0,13,,,8,,,78,64
114924,note_on,,,,,24,0,11,,,6,,,64,61
114930,note_on,,,,,28,0,9,,,4,,,78,64
114934,note_off,,,,,10,0,11,,,6,,,63,64
114937,note_on,,,,,125,0,10,,,5,,,69,68
114946,note_on,,,,,121,0,16,,,12,,,47,70
114946,note_on,,,,,107,0,14,,,10,,,71,74
114948,note_on,,,,,119,0,15,,,11,,,59,78
114949,note_off,,,,,19,0,9,,,4,,,79,64
114952,note_on,,,,,122,0,12,,,7,,,47,70
114961,note_on,,,,,27,0,11,,,6,,,63,68
114969,note_on,,,,,63,0,13,,,8,,,78,66
114978,note_off,,,,,17,0,11,,,6,,,64,64
114980,note_off,,,,,11,0,13,,,8,,,79,64
114989,note_on,,,,,43,0,14,,,10,,,69,60
114994,note_off,,,,,5,0,14,,,10,,,71,64
115019,note_on,,,,,25,0,14,,,10,,,71,68
115032,note_off,,,,,13,0,14,,,10,,,69,64
115040,note_off,,,,,103,0,10,,,5,,,69,64
115048,note_off,,,,,99,0,9,,,4,,,78,64
115051,note_off,,,,,105,0,16,,,12,,,47,64
115051,note_off,,,,,103,0,15,,,11,,,59,64
115054,note_on,,,,,22,0,14,,,10,,,69,51
115058,note_on,,,,,10,0,9,,,4,,,76,68
115059,note_off,,,,,107,0,12,,,7,,,47,64
115061,note_off,,,,,83,0,11,,,6,,,63,64
115063,note_on,,,,,2,0,11,,,6,,,64,70
115066,note_on,,,,,86,0,13,,,8,,,76,76
115076,note_off,,,,,22,0,14,,,10,,,71,64
115079,note_off,,,,,13,0,13,,,8,,,78,64
115133,note_off,,,,,70,0,11,,,6,,,64,64
115135,note_off,,,,,77,0,9,,,4,,,76,64
115141,note_off,,,,,65,0,14,,,10,,,69,64
115143,note_off,,,,,64,0,13,,,8,,,76,64
115150,note_on,,,,,99,0,16,,,12,,,52,53
115175,note_on,,,,,135,0,10,,,5,,,67,64
115186,note_on,,,,,127,0,12,,,7,,,52,68
115190,note_on,,,,,57,0,11,,,6,,,64,66
115195,note_on,,,,,144,0,15,,,11,,,59,72
115197,note_on,,,,,56,0,14,,,10,,,67,66
115199,note_on,,,,,56,0,13,,,8,,,76,66
115203,note_on,,,,,68,0,9,,,4,,,76,66
115281,note_off,,,,,131,0,16,,,12,,,52,64
115285,note_off,,,,,99,0,12,,,7,,,52,64
115423,note_on,,,,,142,0,16,,,12,,,43,78
115431,note_on,,,,,146,0,12,,,7,,,43,85
115535,note_off,,,,,104,0,12,,,7,,,43,64
115544,note_off,,,,,121,0,16,,,12,,,43,64
115663,note_on,,,,,119,0,16,,,12,,,47,76
115664,note_on,,,,,129,0,12,,,7,,,47,60
115753,note_off,,,,,578,0,10,,,5,,,67,64
115764,note_off,,,,,567,0,14,,,10,,,67,64
115767,note_off,,,,,103,0,12,,,7,,,47,64
115768,note_off,,,,,105,0,16,,,12,,,47,64
115791,note_off,,,,,601,0,11,,,6,,,64,64
115791,note_off,,,,,588,0,9,,,4,,,76,64
115800,note_off,,,,,601,0,13,,,8,,,76,64
115820,note_off,,,,,625,0,15,,,11,,,59,64
115908,note_on,,,,,140,0,16,,,12,,,40,62
115911,note_on,,,,,144,0,12,,,7,,,40,64
115911,note_on,,,,,120,0,11,,,6,,,71,80
115911,note_on,,,,,158,0,10,,,5,,,76,66
115912,note_on,,,,,121,0,9,,,4,,,79,85
115916,note_on,,,,,116,0,13,,,8,,,79,82
115925,note_on,,,,,161,0,14,,,10,,,76,78
115960,note_on,,,,,140,0,15,,,11,,,71,80
116017,note_on,,,,,105,0,9,,,4,,,81,68
116021,note_off,,,,,4,0,9,,,4,,,79,64
116022,note_on,,,,,111,0,10,,,5,,,78,64
116022,note_off,,,,,111,0,11,,,6,,,71,64
116023,note_off,,,,,107,0,13,,,8,,,79,64
116023,note_on,,,,,1,0,11,,,6,,,69,61
116026,note_off,,,,,4,0,10,,,5,,,76,64
116026,note_on,,,,,3,0,13,,,8,,,81,70
116029,note_on,,,,,104,0,14,,,10,,,78,64
116035,note_off,,,,,6,0,14,,,10,,,76,64
116048,note_on,,,,,88,0,15,,,11,,,69,70
116051,note_off,,,,,3,0,15,,,11,,,71,64
116052,note_off,,,,,141,0,12,,,7,,,40,64
116093,note_off,,,,,185,0,16,,,12,,,40,64
116112,note_off,,,,,91,0,9,,,4,,,81,64
116118,note_off,,,,,92,0,13,,,8,,,81,64
116132,note_off,,,,,106,0,10,,,5,,,78,64
116135,note_off,,,,,100,0,14,,,10,,,78,64
116138,note_off,,,,,115,0,11,,,6,,,69,64
116140,note_on,,,,,28,0,9,,,4,,,83,72
116140,note_on,,,,,2,0,11,,,6,,,67,57
116145,note_on,,,,,13,0,10,,,5,,,79,74
116148,note_on,,,,,13,0,14,,,10,,,79,78
116149,note_on,,,,,31,0,13,,,8,,,83,85
116153,note_on,,,,,101,0,12,,,7,,,52,66
116157,note_off,,,,,106,0,15,,,11,,,69,64
116157,note_on,,,,,64,0,16,,,12,,,52,68
116165,note_on,,,,,8,0,15,,,11,,,67,70
116250,note_off,,,,,101,0,13,,,8,,,83,64
116254,note_on,,,,,114,0,11,,,6,,,69,66
116258,note_off,,,,,118,0,9,,,4,,,83,64
116261,note_on,,,,,108,0,12,,,7,,,54,61
116262,note_off,,,,,8,0,11,,,6,,,67,64
116268,note_off,,,,,111,0,16,,,12,,,52,64
116268,note_on,,,,,0,0,16,,,12,,,54,63
116273,note_off,,,,,12,0,12,,,7,,,52,64
116283,note_on,,,,,118,0,15,,,11,,,69,68
116298,note_off,,,,,15,0,15,,,11,,,67,64
116358,note_off,,,,,85,0,12,,,7,,,54,64
116366,note_off,,,,,98,0,16,,,12,,,54,64
116368,note_off,,,,,106,0,11,,,6,,,69,64
116379,note_on,,,,,11,0,11,,,6,,,71,60
116384,note_on,,,,,18,0,16,,,12,,,55,68
116389,note_on,,,,,139,0,13,,,8,,,74,68
116390,note_on,,,,,132,0,9,,,4,,,74,72
116390,note_on,,,,,32,0,12,,,7,,,55,68
116392,note_off,,,,,94,0,15,,,11,,,69,64
116399,note_on,,,,,7,0,15,,,11,,,71,66
116459,note_off,,,,,75,0,16,,,12,,,55,64
116477,note_off,,,,,87,0,12,,,7,,,55,64
116487,note_off,,,,,108,0,11,,,6,,,71,64
116490,note_on,,,,,31,0,16,,,12,,,52,64
116495,note_on,,,,,8,0,11,,,6,,,67,60
116496,note_off,,,,,107,0,13,,,8,,,74,64
116498,note_on,,,,,21,0,12,,,7,,,52,59
116511,note_on,,,,,112,0,15,,,11,,,67,80
116512,note_off,,,,,122,0,9,,,4,,,74,64
116517,note_off,,,,,6,0,15,,,11,,,71,64
116569,note_off,,,,,79,0,16,,,12,,,52,64
116577,note_off,,,,,79,0,12,,,7,,,52,64
116582,note_off,,,,,87,0,11,,,6,,,67,64
116616,note_on,,,,,47,0,16,,,12,,,57,74
116617,note_off,,,,,100,0,15,,,11,,,67,64
116620,note_on,,,,,43,0,12,,,7,,,57,80
116624,note_on,,,,,42,0,11,,,6,,,64,66
116624,note_on,,,,,128,0,13,,,8,,,73,64
116639,note_on,,,,,22,0,15,,,11,,,64,78
116640,note_on,,,,,128,0,9,,,4,,,73,58
116730,note_on,,,,,110,0,12,,,7,,,55,60
116732,note_off,,,,,2,0,12,,,7,,,57,64
116738,note_off,,,,,98,0,9,,,4,,,73,64
116739,note_on,,,,,123,0,16,,,12,,,55,64
116740,note_off,,,,,116,0,13,,,8,,,73,64
116747,note_off,,,,,8,0,16,,,12,,,57,64
116752,note_off,,,,,128,0,11,,,6,,,64,64
116773,note_off,,,,,134,0,15,,,11,,,64,64
116774,note_off,,,,,629,0,10,,,5,,,79,64
116797,note_off,,,,,649,0,14,,,10,,,79,64
116853,note_off,,,,,121,0,12,,,7,,,55,64
116854,note_off,,,,,107,0,16,,,12,,,55,64
116865,note_on,,,,,12,0,12,,,7,,,57,60
116871,note_on,,,,,17,0,16,,,12,,,57,64
116871,note_on,,,,,131,0,13,,,8,,,81,80
116871,note_on,,,,,119,0,11,,,6,,,73,64
116871,note_on,,,,,74,0,14,,,10,,,78,61
116875,note_on,,,,,137,0,9,,,4,,,81,66
116879,note_on,,,,,105,0,10,,,5,,,78,64
116880,note_on,,,,,107,0,15,,,11,,,73,85
116967,note_off,,,,,102,0,12,,,7,,,57,64
116972,note_off,,,,,101,0,11,,,6,,,73,64
116977,note_on,,,,,10,0,12,,,7,,,59,62
116988,note_on,,,,,117,0,16,,,12,,,59,72
116989,note_off,,,,,110,0,10,,,5,,,78,64
116992,note_off,,,,,4,0,16,,,12,,,57,64
116993,note_off,,,,,113,0,15,,,11,,,73,64
117012,note_off,,,,,141,0,14,,,10,,,78,64
117099,note_off,,,,,122,0,12,,,7,,,59,64
117100,note_on,,,,,1,0,12,,,7,,,61,59
117103,note_on,,,,,111,0,16,,,12,,,61,61
117110,note_off,,,,,7,0,16,,,12,,,59,64
117110,note_on,,,,,98,0,14,,,10,,,76,64
117117,note_on,,,,,128,0,10,,,5,,,76,64
117121,note_on,,,,,128,0,15,,,11,,,69,85
117121,note_on,,,,,149,0,11,,,6,,,69,76
117209,note_off,,,,,109,0,12,,,7,,,61,64
117211,note_on,,,,,101,0,16,,,12,,,57,74
117211,note_on,,,,,2,0,12,,,7,,,57,64
117212,note_off,,,,,1,0,16,,,12,,,61,64
117226,note_off,,,,,109,0,10,,,5,,,76,64
117240,note_off,,,,,365,0,9,,,4,,,81,64
117246,note_off,,,,,375,0,13,,,8,,,81,64
117249,note_off,,,,,139,0,14,,,10,,,76,64
117296,note_off,,,,,85,0,12,,,7,,,57,64
117306,note_off,,,,,94,0,16,,,12,,,57,64
117343,note_on,,,,,37,0,16,,,12,,,62,80
117344,note_on,,,,,98,0,13,,,8,,,78,87
117347,note_on,,,,,107,0,9,,,4,,,78,82
117351,note_on,,,,,102,0,14,,,10,,,74,66
117352,note_on,,,,,56,0,12,,,7,,,62,82
117354,note_on,,,,,128,0,10,,,5,,,74,70
117453,note_off,,,,,332,0,11,,,6,,,69,64
117459,note_on,,,,,108,0,14,,,10,,,76,78
117459,note_on,,,,,105,0,10,,,5,,,76,72
117461,note_on,,,,,340,0,15,,,11,,,67,64
117462,note_on,,,,,118,0,13,,,8,,,79,78
117463,note_on,,,,,10,0,11,,,6,,,67,70
117463,note_off,,,,,1,0,13,,,8,,,78,64
117465,note_off,,,,,4,0,15,,,11,,,69,64
117466,note_off,,,,,7,0,14,,,10,,,74,64
117466,note_on,,,,,119,0,9,,,4,,,79,72
117474,note_off,,,,,15,0,10,,,5,,,74,64
117479,note_off,,,,,13,0,9,,,4,,,78,64
117480,note_off,,,,,128,0,12,,,7,,,62,64
117514,note_off,,,,,171,0,16,,,12,,,62,64
117561,note_off,,,,,82,0,9,,,4,,,79,64
117563,note_off,,,,,100,0,13,,,8,,,79,64
117580,note_off,,,,,114,0,14,,,10,,,76,64
117580,note_on,,,,,0,0,15,,,11,,,66,66
117580,note_off,,,,,115,0,15,,,11,,,67,64
117583,note_on,,,,,22,0,9,,,4,,,81,80
117583,note_on,,,,,0,0,11,,,6,,,66,55
117583,note_off,,,,,120,0,11,,,6,,,67,64
117583,note_on,,,,,20,0,13,,,8,,,81,82
117584,note_on,,,,,4,0,14,,,10,,,78,63
117585,note_on,,,,,71,0,16,,,12,,,50,57
117585,note_on,,,,,105,0,12,,,7,,,50,64
117590,note_on,,,,,116,0,10,,,5,,,78,64
117599,note_off,,,,,9,0,10,,,5,,,76,64
117689,note_on,,,,,106,0,11,,,6,,,67,63
117689,note_on,,,,,109,0,15,,,11,,,67,66
117689,note_off,,,,,106,0,9,,,4,,,81,64
117690,note_off,,,,,107,0,13,,,8,,,81,64
117693,note_off,,,,,4,0,11,,,6,,,66,64
117698,note_on,,,,,113,0,16,,,12,,,52,66
117699,note_off,,,,,10,0,15,,,11,,,66,64
117703,note_on,,,,,118,0,12,,,7,,,52,68
117712,note_off,,,,,9,0,12,,,7,,,50,64
117715,note_off,,,,,17,0,16,,,12,,,50,64
117794,note_off,,,,,79,0,16,,,12,,,52,64
117803,note_off,,,,,91,0,12,,,7,,,52,64
117811,note_off,,,,,112,0,15,,,11,,,67,64
117815,note_on,,,,,21,0,16,,,12,,,54,59
117815,note_on,,,,,4,0,15,,,11,,,69,70
117817,note_on,,,,,127,0,13,,,8,,,72,66
117817,note_on,,,,,124,0,11,,,6,,,69,61
117818,note_on,,,,,15,0,12,,,7,,,54,60
117825,note_off,,,,,8,0,11,,,6,,,67,64
117825,note_on,,,,,136,0,9,,,4,,,72,62
117912,note_off,,,,,97,0,16,,,12,,,54,64
117916,note_off,,,,,98,0,12,,,7,,,54,64
117918,note_off,,,,,93,0,11,,,6,,,69,64
117920,note_off,,,,,103,0,13,,,8,,,72,64
117925,note_off,,,,,110,0,15,,,11,,,69,64
117925,note_on,,,,,7,0,11,,,6,,,66,60
117927,note_on,,,,,15,0,16,,,12,,,50,68
117927,note_on,,,,,2,0,15,,,11,,,66,78
117929,note_off,,,,,104,0,9,,,4,,,72,64
117932,note_on,,,,,16,0,12,,,7,,,50,68
118023,note_off,,,,,96,0,16,,,12,,,50,64
118027,note_off,,,,,95,0,12,,,7,,,50,64
118032,note_off,,,,,107,0,11,,,6,,,66,64
118041,note_off,,,,,114,0,15,,,11,,,66,64
118053,note_on,,,,,21,0,11,,,6,,,62,78
118058,note_on,,,,,35,0,16,,,12,,,55,76
118059,note_on,,,,,18,0,15,,,11,,,62,70
118063,note_on,,,,,143,0,13,,,8,,,71,68
118066,note_on,,,,,39,0,12,,,7,,,55,82
118069,note_on,,,,,140,0,9,,,4,,,71,61
118163,note_on,,,,,105,0,16,,,12,,,54,53
118166,note_off,,,,,3,0,16,,,12,,,55,64
118170,note_off,,,,,107,0,13,,,8,,,71,64
118170,note_off,,,,,117,0,11,,,6,,,62,64
118176,note_off,,,,,107,0,9,,,4,,,71,64
118177,note_on,,,,,111,0,12,,,7,,,54,56
118179,note_off,,,,,2,0,12,,,7,,,55,64
118189,note_off,,,,,130,0,15,,,11,,,62,64
118207,note_off,,,,,608,0,10,,,5,,,78,64
118224,note_off,,,,,640,0,14,,,10,,,78,64
118292,note_on,,,,,126,0,16,,,12,,,55,64
118293,note_on,,,,,69,0,14,,,10,,,76,64
118297,note_off,,,,,5,0,16,,,12,,,54,64
118299,note_on,,,,,110,0,15,,,11,,,71,87
118303,note_on,,,,,124,0,12,,,7,,,55,64
118304,note_on,,,,,134,0,11,,,6,,,71,68
118308,note_off,,,,,5,0,12,,,7,,,54,64
118311,note_on,,,,,104,0,10,,,5,,,76,66
118313,note_on,,,,,143,0,13,,,8,,,79,85
118317,note_on,,,,,141,0,9,,,4,,,79,82
118381,note_off,,,,,84,0,16,,,12,,,55,64
118396,note_off,,,,,88,0,12,,,7,,,55,64
118409,note_off,,,,,105,0,11,,,6,,,71,64
118409,note_on,,,,,28,0,16,,,12,,,57,68
118417,note_off,,,,,118,0,15,,,11,,,71,64
118422,note_on,,,,,26,0,12,,,7,,,57,64
118426,note_off,,,,,133,0,14,,,10,,,76,64
118430,note_off,,,,,119,0,10,,,5,,,76,64
118521,note_off,,,,,112,0,16,,,12,,,57,64
118527,note_on,,,,,6,0,16,,,12,,,59,66
118535,note_on,,,,,113,0,12,,,7,,,59,64
118542,note_off,,,,,7,0,12,,,7,,,57,64
118545,note_on,,,,,119,0,14,,,10,,,74,70
118552,note_on,,,,,135,0,15,,,11,,,67,76
118556,note_on,,,,,126,0,10,,,5,,,74,59
118560,note_on,,,,,151,0,11,,,6,,,67,66
118644,note_on,,,,,117,0,16,,,12,,,55,63
118645,note_off,,,,,1,0,16,,,12,,,59,64
118654,note_off,,,,,112,0,12,,,7,,,59,64
118657,note_on,,,,,3,0,12,,,7,,,55,68
118663,note_off,,,,,107,0,10,,,5,,,74,64
118666,note_off,,,,,353,0,13,,,8,,,79,64
118676,note_off,,,,,131,0,14,,,10,,,74,64
118698,note_off,,,,,381,0,9,,,4,,,79,64
118732,note_off,,,,,87,0,16,,,12,,,55,64
118757,note_off,,,,,100,0,12,,,7,,,55,64
118783,note_on,,,,,117,0,13,,,8,,,73,78
118784,note_on,,,,,52,0,16,,,12,,,57,72
118788,note_on,,,,,31,0,12,,,7,,,57,82
118793,note_on,,,,,130,0,10,,,5,,,69,57
118796,note_on,,,,,120,0,14,,,10,,,69,70
118802,note_on,,,,,104,0,9,,,4,,,73,63
118895,note_on,,,,,112,0,13,,,8,,,74,78
118898,note_off,,,,,3,0,13,,,8,,,73,64
118906,note_off,,,,,104,0,9,,,4,,,73,64
118910,note_on,,,,,4,0,9,,,4,,,74,70
118934,note_off,,,,,374,0,11,,,6,,,67,64
118971,note_off,,,,,183,0,12,,,7,,,57,64
118976,note_off,,,,,424,0,15,,,11,,,67,64
118976,note_off,,,,,192,0,16,,,12,,,57,64
118996,note_off,,,,,98,0,13,,,8,,,74,64
119012,note_off,,,,,102,0,9,,,4,,,74,64
119016,note_on,,,,,20,0,13,,,8,,,76,70
119026,note_on,,,,,50,0,16,,,12,,,55,66
119030,note_on,,,,,18,0,9,,,4,,,76,70
119034,note_on,,,,,58,0,15,,,11,,,61,78
119034,note_on,,,,,63,0,12,,,7,,,55,72
119042,note_on,,,,,108,0,11,,,6,,,74,70
119116,note_off,,,,,100,0,13,,,8,,,76,64
119135,note_on,,,,,93,0,11,,,6,,,73,46
119139,note_on,,,,,113,0,16,,,12,,,54,62
119139,note_off,,,,,109,0,9,,,4,,,76,64
119139,note_off,,,,,4,0,11,,,6,,,74,64
119139,note_off,,,,,105,0,12,,,7,,,55,64
119142,note_on,,,,,3,0,12,,,7,,,54,60
119144,note_off,,,,,5,0,16,,,12,,,55,64
119151,note_off,,,,,117,0,15,,,11,,,61,64
119166,note_on,,,,,27,0,11,,,6,,,74,58
119170,note_off,,,,,4,0,11,,,6,,,73,64
119213,note_on,,,,,43,0,11,,,6,,,73,51
119216,note_off,,,,,3,0,11,,,6,,,74,64
119234,note_off,,,,,92,0,12,,,7,,,54,64
119243,note_on,,,,,27,0,11,,,6,,,74,61
119248,note_on,,,,,132,0,13,,,8,,,69,70
119248,note_off,,,,,5,0,11,,,6,,,73,64
119250,note_off,,,,,106,0,16,,,12,,,54,64
119254,note_on,,,,,4,0,16,,,12,,,55,60
119261,note_on,,,,,27,0,12,,,7,,,55,64
119266,note_on,,,,,115,0,15,,,11,,,64,76
119269,note_on,,,,,130,0,9,,,4,,,69,70
119282,note_off,,,,,34,0,11,,,6,,,74,64
119295,note_on,,,,,13,0,11,,,6,,,74,49
119335,note_on,,,,,40,0,11,,,6,,,73,57
119353,note_off,,,,,105,0,13,,,8,,,69,64
119353,note_off,,,,,18,0,11,,,6,,,74,64
119361,note_off,,,,,107,0,16,,,12,,,55,64
119368,note_off,,,,,107,0,12,,,7,,,55,64
119371,note_off,,,,,102,0,9,,,4,,,69,64
119378,note_on,,,,,17,0,16,,,12,,,52,64
119380,note_on,,,,,12,0,12,,,7,,,52,66
119389,note_on,,,,,36,0,11,,,6,,,71,70
119394,note_off,,,,,5,0,11,,,6,,,73,64
119416,note_off,,,,,150,0,15,,,11,,,64,64
119441,note_on,,,,,47,0,11,,,6,,,73,57
119466,note_off,,,,,86,0,12,,,7,,,52,64
119470,note_off,,,,,29,0,11,,,6,,,71,64
119477,note_off,,,,,99,0,16,,,12,,,52,64
119495,note_on,,,,,142,0,13,,,8,,,74,74
119499,note_on,,,,,33,0,12,,,7,,,54,64
119499,note_on,,,,,22,0,16,,,12,,,54,72
119506,note_on,,,,,90,0,15,,,11,,,66,82
119507,note_off,,,,,37,0,11,,,6,,,73,64
119508,note_on,,,,,137,0,9,,,4,,,74,70
119514,note_on,,,,,7,0,11,,,6,,,74,70
119607,note_off,,,,,101,0,15,,,11,,,66,64
119609,note_on,,,,,2,0,15,,,11,,,67,76
119616,note_off,,,,,121,0,13,,,8,,,74,64
119617,note_off,,,,,118,0,12,,,7,,,54,64
119617,note_on,,,,,1,0,13,,,8,,,76,70
119620,note_on,,,,,121,0,16,,,12,,,52,68
119620,note_on,,,,,3,0,12,,,7,,,52,59
119622,note_off,,,,,114,0,9,,,4,,,74,64
119630,note_on,,,,,8,0,9,,,4,,,76,64
119639,note_off,,,,,125,0,11,,,6,,,74,64
119640,note_off,,,,,20,0,16,,,12,,,54,64
119651,note_off,,,,,858,0,10,,,5,,,69,64
119667,note_off,,,,,871,0,14,,,10,,,69,64
119718,note_off,,,,,109,0,15,,,11,,,67,64
119724,note_off,,,,,104,0,12,,,7,,,52,64
119734,note_on,,,,,67,0,14,,,10,,,74,85
119735,note_on,,,,,17,0,15,,,11,,,69,85
119738,note_on,,,,,98,0,16,,,12,,,50,68
119740,note_off,,,,,123,0,13,,,8,,,76,64
119742,note_off,,,,,4,0,16,,,12,,,52,64
119744,note_on,,,,,4,0,13,,,8,,,78,58
119746,note_on,,,,,22,0,12,,,7,,,50,66
119748,note_on,,,,,97,0,10,,,5,,,74,78
119753,note_on,,,,,123,0,9,,,4,,,78,57
119759,note_on,,,,,120,0,11,,,6,,,69,72
119760,note_off,,,,,7,0,9,,,4,,,76,64
119845,note_on,,,,,111,0,14,,,10,,,73,66
119847,note_on,,,,,105,0,16,,,12,,,52,63
119847,note_on,,,,,103,0,13,,,8,,,79,78
119851,note_off,,,,,6,0,14,,,10,,,74,64
119851,note_off,,,,,92,0,11,,,6,,,69,64
119854,note_on,,,,,108,0,12,,,7,,,52,60
119858,note_off,,,,,110,0,10,,,5,,,74,64
119861,note_on,,,,,3,0,10,,,5,,,73,64
119865,note_off,,,,,18,0,16,,,12,,,50,64
119867,note_on,,,,,107,0,9,,,4,,,79,72
119868,note_off,,,,,1,0,9,,,4,,,78,64
119869,note_off,,,,,22,0,13,,,8,,,78,64
119873,note_off,,,,,19,0,12,,,7,,,50,64
119887,note_off,,,,,152,0,15,,,11,,,69,64
119950,note_off,,,,,99,0,14,,,10,,,73,64
119958,note_off,,,,,97,0,10,,,5,,,73,64
119958,note_off,,,,,85,0,12,,,7,,,52,64
119963,note_off,,,,,98,0,16,,,12,,,52,64
119963,note_on,,,,,0,0,16,,,12,,,54,60
119966,note_off,,,,,97,0,13,,,8,,,79,64
119971,note_on,,,,,21,0,14,,,10,,,74,82
119972,note_on,,,,,6,0,13,,,8,,,81,85
119976,note_on,,,,,89,0,15,,,11,,,66,76
119979,note_on,,,,,21,0,12,,,7,,,54,60
119980,note_on,,,,,22,0,10,,,5,,,74,82
119981,note_off,,,,,113,0,9,,,4,,,79,64
119985,note_on,,,,,134,0,11,,,6,,,66,60
119989,note_on,,,,,8,0,9,,,4,,,81,82
120073,note_off,,,,,101,0,13,,,8,,,81,64
120077,note_on,,,,,4,0,13,,,8,,,72,74
120083,note_on,,,,,120,0,16,,,12,,,50,68
120093,note_off,,,,,104,0,9,,,4,,,81,64
120094,note_on,,,,,115,0,12,,,7,,,50,66
120095,note_off,,,,,1,0,12,,,7,,,54,64
120097,note_on,,,,,4,0,9,,,4,,,72,70
120099,note_off,,,,,16,0,16,,,12,,,54,64
120110,note_off,,,,,125,0,11,,,6,,,66,64
120118,note_off,,,,,147,0,14,,,10,,,74,64
120123,note_off,,,,,147,0,15,,,11,,,66,64
120142,note_off,,,,,162,0,10,,,5,,,74,64
120160,note_off,,,,,83,0,13,,,8,,,72,64
120182,note_off,,,,,83,0,16,,,12,,,50,64
120190,note_off,,,,,93,0,9,,,4,,,72,64
120199,note_on,,,,,39,0,13,,,8,,,71,78
120207,note_off,,,,,112,0,12,,,7,,,50,64
120216,note_on,,,,,34,0,16,,,12,,,55,80
120220,note_on,,,,,102,0,14,,,10,,,67,74
120221,note_on,,,,,31,0,9,,,4,,,71,76
120224,note_on,,,,,17,0,12,,,7,,,55,78
120228,note_on,,,,,86,0,10,,,5,,,67,68
120229,note_on,,,,,119,0,11,,,6,,,62,64
120230,note_on,,,,,107,0,15,,,11,,,62,78
120331,note_off,,,,,132,0,13,,,8,,,71,64
120338,note_off,,,,,117,0,9,,,4,,,71,64
120340,note_off,,,,,120,0,14,,,10,,,67,64
120346,note_off,,,,,117,0,11,,,6,,,62,64
120355,note_off,,,,,127,0,10,,,5,,,67,64
120356,note_off,,,,,132,0,12,,,7,,,55,64
120361,note_off,,,,,145,0,16,,,12,,,55,64
120369,note_off,,,,,139,0,15,,,11,,,62,64
120452,note_on,,,,,112,0,14,,,10,,,67,62
120459,note_on,,,,,128,0,13,,,8,,,73,78
120460,note_on,,,,,99,0,16,,,12,,,52,74
120462,note_on,,,,,93,0,15,,,11,,,64,80
120467,note_on,,,,,121,0,11,,,6,,,64,68
120473,note_on,,,,,135,0,9,,,4,,,73,63
120473,note_on,,,,,117,0,12,,,7,,,52,78
120474,note_on,,,,,119,0,10,,,5,,,67,72
120566,note_off,,,,,114,0,14,,,10,,,67,64
120571,note_off,,,,,98,0,12,,,7,,,52,64
120575,note_off,,,,,115,0,16,,,12,,,52,64
120591,note_off,,,,,124,0,11,,,6,,,64,64
120591,note_off,,,,,132,0,13,,,8,,,73,64
120599,note_off,,,,,125,0,10,,,5,,,67,64
120600,note_off,,,,,127,0,9,,,4,,,73,64
120616,note_off,,,,,154,0,15,,,11,,,64,64
120701,note_on,,,,,110,0,13,,,8,,,74,76
120702,note_on,,,,,86,0,15,,,11,,,66,64
120705,note_on,,,,,139,0,14,,,10,,,69,72
120714,note_on,,,,,139,0,16,,,12,,,50,80
120715,note_on,,,,,124,0,11,,,6,,,66,60
120716,note_on,,,,,145,0,12,,,7,,,50,78
120719,note_on,,,,,119,0,9,,,4,,,74,74
120719,note_on,,,,,120,0,10,,,5,,,69,64
120826,note_off,,,,,125,0,13,,,8,,,74,64
120829,note_off,,,,,115,0,16,,,12,,,50,64
120829,note_off,,,,,110,0,9,,,4,,,74,64
120830,note_off,,,,,111,0,10,,,5,,,69,64
120832,note_off,,,,,116,0,12,,,7,,,50,64
120834,note_off,,,,,119,0,11,,,6,,,66,64
120841,note_off,,,,,139,0,15,,,11,,,66,64
120842,note_off,,,,,137,0,14,,,10,,,69,64
120946,note_on,,,,,105,0,15,,,11,,,69,80
120950,note_on,,,,,124,0,13,,,8,,,76,80
120953,note_on,,,,,124,0,9,,,4,,,76,78
120956,note_on,,,,,126,0,10,,,5,,,73,60
120957,note_on,,,,,115,0,14,,,10,,,73,66
120961,note_on,,,,,127,0,11,,,6,,,69,80
120961,note_on,,,,,129,0,12,,,7,,,57,74
120966,note_on,,,,,137,0,16,,,12,,,57,80
121070,note_off,,,,,109,0,11,,,6,,,69,64
121080,note_off,,,,,134,0,15,,,11,,,69,64
121084,note_off,,,,,128,0,10,,,5,,,73,64
121099,note_off,,,,,142,0,14,,,10,,,73,64
121121,note_off,,,,,168,0,9,,,4,,,76,64
121141,note_off,,,,,191,0,13,,,8,,,76,64
121187,note_on,,,,,107,0,15,,,11,,,64,80
121190,note_on,,,,,106,0,10,,,5,,,69,62
121192,note_on,,,,,93,0,14,,,10,,,69,72
121192,note_on,,,,,51,0,13,,,8,,,74,85
121193,note_on,,,,,72,0,9,,,4,,,74,80
121205,note_on,,,,,135,0,11,,,6,,,64,57
121297,note_off,,,,,107,0,10,,,5,,,69,64
121301,note_on,,,,,109,0,13,,,8,,,73,70
121309,note_on,,,,,116,0,9,,,4,,,73,64
121309,note_off,,,,,8,0,13,,,8,,,74,64
121311,note_off,,,,,124,0,15,,,11,,,64,64
121320,note_off,,,,,128,0,14,,,10,,,69,64
121322,note_off,,,,,13,0,9,,,4,,,74,64
121366,note_off,,,,,405,0,12,,,7,,,57,64
121394,note_off,,,,,428,0,16,,,12,,,57,64
121425,note_on,,,,,128,0,10,,,5,,,64,66
121426,note_on,,,,,0,0,13,,,8,,,71,64
121426,note_off,,,,,117,0,13,,,8,,,73,64
121428,note_off,,,,,106,0,9,,,4,,,73,64
121429,note_on,,,,,35,0,16,,,12,,,55,68
121429,note_on,,,,,118,0,15,,,11,,,61,64
121432,note_on,,,,,112,0,14,,,10,,,64,68
121432,note_on,,,,,4,0,9,,,4,,,71,59
121433,note_on,,,,,67,0,12,,,7,,,55,57
121529,note_off,,,,,103,0,13,,,8,,,71,64
121530,note_off,,,,,105,0,10,,,5,,,64,64
121539,note_on,,,,,10,0,13,,,8,,,69,63
121544,note_off,,,,,112,0,9,,,4,,,71,64
121548,note_on,,,,,4,0,9,,,4,,,69,64
121550,note_off,,,,,345,0,11,,,6,,,64,64
121563,note_off,,,,,134,0,15,,,11,,,61,64
121573,note_off,,,,,141,0,14,,,10,,,64,64
121576,note_off,,,,,143,0,12,,,7,,,55,64
121591,note_off,,,,,162,0,16,,,12,,,55,64
121618,note_off,,,,,79,0,13,,,8,,,69,64
121639,note_off,,,,,91,0,9,,,4,,,69,64
121664,note_on,,,,,46,0,13,,,8,,,74,80
121668,note_on,,,,,138,0,10,,,5,,,69,64
121670,note_on,,,,,79,0,16,,,12,,,54,68
121670,note_on,,,,,31,0,9,,,4,,,74,80
121670,note_on,,,,,94,0,12,,,7,,,54,60
121670,note_on,,,,,97,0,14,,,10,,,69,76
121673,note_on,,,,,123,0,11,,,6,,,62,52
121678,note_on,,,,,115,0,15,,,11,,,62,57
121770,note_off,,,,,106,0,13,,,8,,,74,64
121776,note_off,,,,,106,0,12,,,7,,,54,64
121779,note_on,,,,,9,0,13,,,8,,,73,68
121780,note_off,,,,,110,0,9,,,4,,,74,64
121783,note_on,,,,,7,0,12,,,7,,,52,64
121783,note_on,,,,,113,0,16,,,12,,,52,62
121785,note_on,,,,,5,0,9,,,4,,,73,60
121793,note_off,,,,,10,0,16,,,12,,,54,64
121809,note_off,,,,,131,0,15,,,11,,,62,64
121861,note_off,,,,,188,0,11,,,6,,,62,64
121872,note_off,,,,,93,0,13,,,8,,,73,64
121875,note_off,,,,,90,0,9,,,4,,,73,64
121898,note_on,,,,,115,0,12,,,7,,,54,62
121900,note_off,,,,,2,0,12,,,7,,,52,64
121902,note_on,,,,,30,0,13,,,8,,,74,66
121903,note_on,,,,,0,0,16,,,12,,,54,70
121903,note_off,,,,,110,0,16,,,12,,,52,64
121910,note_on,,,,,101,0,15,,,11,,,62,64
121912,note_on,,,,,37,0,9,,,4,,,74,78
121915,note_on,,,,,54,0,11,,,6,,,62,60
122001,note_off,,,,,99,0,13,,,8,,,74,64
122003,note_off,,,,,100,0,16,,,12,,,54,64
122004,note_off,,,,,104,0,12,,,7,,,54,64
122011,note_on,,,,,8,0,16,,,12,,,55,80
122014,note_on,,,,,10,0,12,,,7,,,55,80
122021,note_off,,,,,109,0,9,,,4,,,74,64
122049,note_off,,,,,139,0,15,,,11,,,62,64
122052,note_off,,,,,137,0,11,,,6,,,62,64
122137,note_off,,,,,123,0,12,,,7,,,55,64
122137,note_on,,,,,0,0,16,,,12,,,57,64
122137,note_off,,,,,126,0,16,,,12,,,55,64
122141,note_on,,,,,140,0,13,,,8,,,69,64
122150,note_on,,,,,101,0,15,,,11,,,62,68
122150,note_on,,,,,13,0,12,,,7,,,57,64
122155,note_on,,,,,103,0,11,,,6,,,62,60
122157,note_on,,,,,136,0,9,,,4,,,69,59
122248,note_off,,,,,107,0,13,,,8,,,69,64
122253,note_on,,,,,116,0,16,,,12,,,59,70
122258,note_off,,,,,5,0,16,,,12,,,57,64
122262,note_on,,,,,112,0,12,,,7,,,59,74
122264,note_off,,,,,2,0,12,,,7,,,57,64
122278,note_off,,,,,121,0,9,,,4,,,69,64
122279,note_off,,,,,129,0,15,,,11,,,62,64
122283,note_off,,,,,128,0,11,,,6,,,62,64
122374,note_off,,,,,110,0,12,,,7,,,59,64
122375,note_off,,,,,117,0,16,,,12,,,59,64
122379,note_on,,,,,4,0,16,,,12,,,60,80
122382,note_on,,,,,103,0,15,,,11,,,62,64
122384,note_on,,,,,136,0,13,,,8,,,66,61
122387,note_on,,,,,13,0,12,,,7,,,60,72
122400,note_on,,,,,117,0,11,,,6,,,62,57
122402,note_on,,,,,124,0,9,,,4,,,66,58
122479,note_off,,,,,809,0,14,,,10,,,69,64
122481,note_off,,,,,813,0,10,,,5,,,69,64
122490,note_off,,,,,106,0,13,,,8,,,66,64
122502,note_on,,,,,21,0,10,,,5,,,71,66
122502,note_on,,,,,23,0,14,,,10,,,71,70
122520,note_off,,,,,138,0,15,,,11,,,62,64
122521,note_off,,,,,121,0,11,,,6,,,62,64
122524,note_off,,,,,122,0,9,,,4,,,66,64
122545,note_off,,,,,158,0,12,,,7,,,60,64
122557,note_off,,,,,178,0,16,,,12,,,60,64
122606,note_off,,,,,104,0,14,,,10,,,71,64
122618,note_on,,,,,12,0,14,,,10,,,69,63
122623,note_on,,,,,103,0,15,,,11,,,62,70
122624,note_off,,,,,122,0,10,,,5,,,71,64
122628,note_on,,,,,71,0,16,,,12,,,54,63
122630,note_on,,,,,6,0,10,,,5,,,69,68
122632,note_on,,,,,87,0,12,,,7,,,54,66
122633,note_on,,,,,143,0,13,,,8,,,72,70
122636,note_on,,,,,112,0,9,,,4,,,72,68
122643,note_on,,,,,122,0,11,,,6,,,62,60
122729,note_on,,,,,0,0,14,,,10,,,67,62
122729,note_off,,,,,111,0,14,,,10,,,69,64
122735,note_on,,,,,107,0,16,,,12,,,52,64
122738,note_on,,,,,108,0,10,,,5,,,67,66
122739,note_on,,,,,107,0,12,,,7,,,52,59
122740,note_off,,,,,2,0,10,,,5,,,69,64
122741,note_off,,,,,2,0,12,,,7,,,54,64
122745,note_off,,,,,10,0,16,,,12,,,54,64
122754,note_off,,,,,111,0,11,,,6,,,62,64
122765,note_off,,,,,142,0,15,,,11,,,62,64
122842,note_off,,,,,101,0,12,,,7,,,52,64
122844,note_off,,,,,104,0,10,,,5,,,67,64
122847,note_off,,,,,118,0,14,,,10,,,67,64
122853,note_on,,,,,6,0,14,,,10,,,69,68
122853,note_on,,,,,9,0,10,,,5,,,69,64
122859,note_on,,,,,114,0,16,,,12,,,54,57
122862,note_off,,,,,3,0,16,,,12,,,52,64
122869,note_on,,,,,104,0,15,,,11,,,62,68
122872,note_on,,,,,118,0,11,,,6,,,62,52
122872,note_on,,,,,30,0,12,,,7,,,54,57
122960,note_off,,,,,107,0,10,,,5,,,69,64
122967,note_off,,,,,114,0,14,,,10,,,69,64
122970,note_on,,,,,3,0,14,,,10,,,66,59
122971,note_on,,,,,109,0,16,,,12,,,50,66
122973,note_on,,,,,13,0,10,,,5,,,66,58
122980,note_off,,,,,9,0,16,,,12,,,54,64
122980,note_on,,,,,108,0,12,,,7,,,50,68
122982,note_off,,,,,2,0,12,,,7,,,54,64
122991,note_off,,,,,122,0,15,,,11,,,62,64
122999,note_off,,,,,363,0,9,,,4,,,72,64
123001,note_off,,,,,129,0,11,,,6,,,62,64
123008,note_off,,,,,375,0,13,,,8,,,72,64
123059,note_off,,,,,79,0,16,,,12,,,50,64
123063,note_off,,,,,81,0,12,,,7,,,50,64
123075,note_off,,,,,105,0,14,,,10,,,66,64
123078,note_off,,,,,105,0,10,,,5,,,66,64
123092,note_on,,,,,17,0,14,,,10,,,67,74
123097,note_on,,,,,19,0,10,,,5,,,67,68
123098,note_on,,,,,35,0,12,,,7,,,55,76
123101,note_on,,,,,42,0,16,,,12,,,55,85
123107,note_on,,,,,99,0,13,,,8,,,71,68
123109,note_on,,,,,118,0,15,,,11,,,62,76
123109,note_on,,,,,110,0,9,,,4,,,71,52
123115,note_on,,,,,114,0,11,,,6,,,62,66
123215,note_off,,,,,117,0,12,,,7,,,55,64
123216,note_on,,,,,1,0,12,,,7,,,57,68
123220,note_off,,,,,111,0,15,,,11,,,62,64
123221,note_on,,,,,120,0,16,,,12,,,57,74
123228,note_off,,,,,131,0,10,,,5,,,67,64
123228,note_off,,,,,113,0,11,,,6,,,62,64
123232,note_off,,,,,140,0,14,,,10,,,67,64
123233,note_off,,,,,12,0,16,,,12,,,55,64
123290,note_off,,,,,183,0,13,,,8,,,71,64
123297,note_off,,,,,188,0,9,,,4,,,71,64
123332,note_on,,,,,116,0,12,,,7,,,55,66
123333,note_on,,,,,113,0,15,,,11,,,69,68
123335,note_off,,,,,3,0,12,,,7,,,57,64
123339,note_on,,,,,106,0,16,,,12,,,55,68
123341,note_off,,,,,2,0,16,,,12,,,57,64
123345,note_on,,,,,113,0,14,,,10,,,76,82
123345,note_on,,,,,117,0,10,,,5,,,76,72
123354,note_on,,,,,64,0,13,,,8,,,73,74
123355,note_on,,,,,127,0,11,,,6,,,69,59
123356,note_on,,,,,59,0,9,,,4,,,73,64
123446,note_off,,,,,111,0,12,,,7,,,55,64
123450,note_on,,,,,0,0,16,,,12,,,54,60
123450,note_off,,,,,109,0,16,,,12,,,55,64
123451,note_on,,,,,5,0,12,,,7,,,54,58
123462,note_on,,,,,108,0,13,,,8,,,74,70
123465,note_off,,,,,109,0,9,,,4,,,73,64
123466,note_off,,,,,133,0,15,,,11,,,69,64
123466,note_on,,,,,1,0,9,,,4,,,74,78
123474,note_off,,,,,119,0,11,,,6,,,69,64
123488,note_off,,,,,26,0,13,,,8,,,73,64
123561,note_off,,,,,73,0,13,,,8,,,74,64
123564,note_off,,,,,114,0,16,,,12,,,54,64
123570,note_off,,,,,104,0,9,,,4,,,74,64
123571,note_off,,,,,120,0,12,,,7,,,54,64
123573,note_on,,,,,9,0,16,,,12,,,52,57
123579,note_on,,,,,8,0,12,,,7,,,52,62
123582,note_on,,,,,116,0,15,,,11,,,69,70
123586,note_on,,,,,112,0,11,,,6,,,69,55
123588,note_on,,,,,27,0,13,,,8,,,76,80
123599,note_on,,,,,29,0,9,,,4,,,76,82
123688,note_off,,,,,115,0,16,,,12,,,52,64
123694,note_on,,,,,106,0,13,,,8,,,78,63
123694,note_on,,,,,6,0,16,,,12,,,50,66
123698,note_off,,,,,4,0,13,,,8,,,76,64
123702,note_on,,,,,0,0,9,,,4,,,78,70
123702,note_off,,,,,103,0,9,,,4,,,76,64
123702,note_on,,,,,123,0,12,,,7,,,50,66
123704,note_off,,,,,2,0,12,,,7,,,52,64
123705,note_off,,,,,119,0,11,,,6,,,69,64
123709,note_off,,,,,127,0,15,,,11,,,69,64
123786,note_off,,,,,92,0,16,,,12,,,50,64
123794,note_off,,,,,92,0,9,,,4,,,78,64
123798,note_off,,,,,100,0,13,,,8,,,78,64
123807,note_on,,,,,21,0,16,,,12,,,49,68
123814,note_off,,,,,110,0,12,,,7,,,50,64
123818,note_on,,,,,109,0,15,,,11,,,69,64
123819,note_on,,,,,5,0,12,,,7,,,49,59
123821,note_on,,,,,27,0,9,,,4,,,79,85
123827,note_on,,,,,29,0,13,,,8,,,79,98
123829,note_on,,,,,124,0,11,,,6,,,69,62
123919,note_on,,,,,112,0,16,,,12,,,50,63
123920,note_off,,,,,93,0,13,,,8,,,79,64
123920,note_off,,,,,575,0,10,,,5,,,76,64
123923,note_off,,,,,4,0,16,,,12,,,49,64
123926,note_off,,,,,105,0,9,,,4,,,79,64
123932,note_off,,,,,113,0,12,,,7,,,49,64
123933,note_on,,,,,13,0,10,,,5,,,78,60
123934,note_off,,,,,589,0,14,,,10,,,76,64
123937,note_on,,,,,5,0,12,,,7,,,50,78
123942,note_off,,,,,124,0,15,,,11,,,69,64
123950,note_on,,,,,16,0,14,,,10,,,78,78
123951,note_off,,,,,122,0,11,,,6,,,69,64
124016,note_off,,,,,93,0,16,,,12,,,50,64
124037,note_on,,,,,21,0,16,,,12,,,49,58
124052,note_on,,,,,119,0,10,,,5,,,76,66
124056,note_on,,,,,114,0,15,,,11,,,69,70
124059,note_off,,,,,7,0,10,,,5,,,78,64
124064,note_on,,,,,127,0,12,,,7,,,49,80
124066,note_on,,,,,140,0,9,,,4,,,69,59
124068,note_off,,,,,4,0,12,,,7,,,50,64
124068,note_on,,,,,118,0,14,,,10,,,76,66
124068,note_on,,,,,148,0,13,,,8,,,69,58
124069,note_on,,,,,118,0,11,,,6,,,69,64
124082,note_off,,,,,14,0,14,,,10,,,78,64
124162,note_on,,,,,0,0,16,,,12,,,47,57
124162,note_off,,,,,125,0,16,,,12,,,49,64
124170,note_off,,,,,111,0,10,,,5,,,76,64
124173,note_on,,,,,3,0,10,,,5,,,74,62
124177,note_off,,,,,108,0,11,,,6,,,69,64
124178,note_off,,,,,96,0,14,,,10,,,76,64
124178,note_on,,,,,0,0,14,,,10,,,74,72
124179,note_off,,,,,111,0,12,,,7,,,49,64
124180,note_on,,,,,1,0,12,,,7,,,47,62
124203,note_off,,,,,147,0,15,,,11,,,69,64
124276,note_off,,,,,98,0,14,,,10,,,74,64
124278,note_off,,,,,105,0,10,,,5,,,74,64
124283,note_on,,,,,121,0,16,,,12,,,49,62
124287,note_on,,,,,11,0,14,,,10,,,76,70
124289,note_off,,,,,6,0,16,,,12,,,47,64
124293,note_on,,,,,90,0,15,,,11,,,69,78
124296,note_on,,,,,18,0,10,,,5,,,76,68
124302,note_off,,,,,122,0,12,,,7,,,47,64
124304,note_on,,,,,2,0,12,,,7,,,49,57
124314,note_on,,,,,137,0,11,,,6,,,69,70
124388,note_off,,,,,99,0,16,,,12,,,49,64
124388,note_off,,,,,322,0,9,,,4,,,69,64
124394,note_on,,,,,6,0,16,,,12,,,45,66
124394,note_off,,,,,326,0,13,,,8,,,69,64
124401,note_off,,,,,87,0,11,,,6,,,69,64
124402,note_off,,,,,109,0,15,,,11,,,69,64
124406,note_on,,,,,119,0,14,,,10,,,73,58
124409,note_off,,,,,3,0,14,,,10,,,76,64
124410,note_off,,,,,106,0,12,,,7,,,49,64
124412,note_off,,,,,116,0,10,,,5,,,76,64
124414,note_on,,,,,4,0,12,,,7,,,45,68
124414,note_on,,,,,2,0,10,,,5,,,73,57
124501,note_off,,,,,107,0,16,,,12,,,45,64
124502,note_off,,,,,93,0,14,,,10,,,73,64
124506,note_off,,,,,92,0,12,,,7,,,45,64
124523,note_on,,,,,22,0,16,,,12,,,50,78
124524,note_off,,,,,110,0,10,,,5,,,73,64
124533,note_on,,,,,131,0,15,,,11,,,62,72
124533,note_on,,,,,31,0,14,,,10,,,69,64
124542,note_on,,,,,18,0,10,,,5,,,69,66
124543,note_on,,,,,37,0,12,,,7,,,50,70
124551,note_on,,,,,150,0,11,,,6,,,62,68
124551,note_on,,,,,157,0,13,,,8,,,78,64
124563,note_on,,,,,175,0,9,,,4,,,78,60
124648,note_on,,,,,125,0,16,,,12,,,49,62
124652,note_off,,,,,101,0,13,,,8,,,78,64
124659,note_on,,,,,116,0,12,,,7,,,49,61
124664,note_off,,,,,101,0,9,,,4,,,78,64
124665,note_on,,,,,13,0,13,,,8,,,79,82
124666,note_off,,,,,18,0,16,,,12,,,50,64
124668,note_on,,,,,4,0,9,,,4,,,79,76
124678,note_off,,,,,19,0,12,,,7,,,50,64
124686,note_off,,,,,144,0,10,,,5,,,69,64
124700,note_off,,,,,167,0,14,,,10,,,69,64
124761,note_off,,,,,96,0,13,,,8,,,79,64
124766,note_on,,,,,100,0,16,,,12,,,47,64
124769,note_off,,,,,3,0,16,,,12,,,49,64
124778,note_on,,,,,100,0,12,,,7,,,47,60
124781,note_off,,,,,113,0,9,,,4,,,79,64
124782,note_off,,,,,4,0,12,,,7,,,49,64
124782,note_on,,,,,21,0,13,,,8,,,81,66
124787,note_on,,,,,101,0,10,,,5,,,74,72
124787,note_on,,,,,6,0,9,,,4,,,81,66
124792,note_on,,,,,92,0,14,,,10,,,74,78
124870,note_off,,,,,88,0,13,,,8,,,81,64
124871,note_on,,,,,1,0,13,,,8,,,79,55
124880,note_on,,,,,93,0,9,,,4,,,79,50
124886,note_off,,,,,99,0,10,,,5,,,74,64
124886,note_on,,,,,117,0,16,,,12,,,45,60
124886,note_off,,,,,6,0,9,,,4,,,81,64
124891,note_off,,,,,5,0,16,,,12,,,47,64
124895,note_on,,,,,113,0,12,,,7,,,45,60
124895,note_on,,,,,103,0,14,,,10,,,73,68
124897,note_off,,,,,2,0,14,,,10,,,74,64
124898,note_on,,,,,12,0,10,,,5,,,73,60
124902,note_off,,,,,351,0,11,,,6,,,62,64
124905,note_off,,,,,10,0,12,,,7,,,47,64
124915,note_off,,,,,382,0,15,,,11,,,62,64
124917,note_on,,,,,46,0,13,,,8,,,81,68
124919,note_off,,,,,2,0,13,,,8,,,79,64
124930,note_off,,,,,44,0,9,,,4,,,79,64
124932,note_on,,,,,2,0,9,,,4,,,81,59
124959,note_on,,,,,40,0,13,,,8,,,79,60
124961,note_off,,,,,2,0,13,,,8,,,81,64
124978,note_on,,,,,46,0,9,,,4,,,79,51
124979,note_off,,,,,1,0,9,,,4,,,81,64
124987,note_off,,,,,90,0,14,,,10,,,73,64
124992,note_off,,,,,101,0,16,,,12,,,45,64
124992,note_on,,,,,31,0,13,,,8,,,81,74
124994,note_off,,,,,2,0,13,,,8,,,79,64
125005,note_on,,,,,13,0,16,,,12,,,47,64
125006,note_on,,,,,27,0,9,,,4,,,81,56
125010,note_on,,,,,23,0,14,,,10,,,74,72
125010,note_off,,,,,4,0,9,,,4,,,79,64
125011,note_off,,,,,106,0,12,,,7,,,45,64
125014,note_off,,,,,116,0,10,,,5,,,73,64
125024,note_on,,,,,13,0,12,,,7,,,47,70
125025,note_on,,,,,110,0,15,,,11,,,71,82
125026,note_on,,,,,0,0,13,,,8,,,79,72
125026,note_off,,,,,32,0,13,,,8,,,81,64
125028,note_on,,,,,14,0,10,,,5,,,74,72
125036,note_on,,,,,134,0,11,,,6,,,71,82
125041,note_off,,,,,31,0,9,,,4,,,81,64
125041,note_on,,,,,0,0,9,,,4,,,79,53
125057,note_on,,,,,31,0,13,,,8,,,81,78
125062,note_on,,,,,21,0,9,,,4,,,81,57
125064,note_off,,,,,7,0,13,,,8,,,79,64
125066,note_off,,,,,4,0,9,,,4,,,79,64
125093,note_on,,,,,29,0,13,,,8,,,79,61
125095,note_on,,,,,29,0,9,,,4,,,79,51
125106,note_off,,,,,13,0,13,,,8,,,81,64
125111,note_off,,,,,16,0,9,,,4,,,81,64
125116,note_off,,,,,106,0,14,,,10,,,74,64
125119,note_off,,,,,114,0,16,,,12,,,47,64
125122,note_on,,,,,3,0,16,,,12,,,43,70
125128,note_off,,,,,92,0,11,,,6,,,71,64
125140,note_off,,,,,116,0,12,,,7,,,47,64
125140,note_on,,,,,34,0,13,,,8,,,78,62
125141,note_on,,,,,30,0,9,,,4,,,78,72
125142,note_off,,,,,117,0,15,,,11,,,71,64
125145,note_off,,,,,117,0,10,,,5,,,74,64
125146,note_off,,,,,6,0,13,,,8,,,79,64
125147,note_on,,,,,7,0,12,,,7,,,43,63
125150,note_off,,,,,9,0,9,,,4,,,79,64
125175,note_on,,,,,29,0,13,,,8,,,79,82
125195,note_on,,,,,45,0,9,,,4,,,79,74
125195,note_off,,,,,20,0,13,,,8,,,78,64
125207,note_off,,,,,12,0,9,,,4,,,78,64
125239,note_off,,,,,44,0,13,,,8,,,79,64
125239,note_off,,,,,117,0,16,,,12,,,43,64
125250,note_off,,,,,43,0,9,,,4,,,79,64
125255,note_on,,,,,16,0,13,,,8,,,81,80
125260,note_off,,,,,113,0,12,,,7,,,43,64
125264,note_on,,,,,148,0,14,,,10,,,74,78
125267,note_on,,,,,28,0,16,,,12,,,42,80
125267,note_on,,,,,17,0,9,,,4,,,81,72
125270,note_on,,,,,125,0,10,,,5,,,74,74
125276,note_on,,,,,134,0,15,,,11,,,69,87
125276,note_on,,,,,16,0,12,,,7,,,42,68
125283,note_on,,,,,155,0,11,,,6,,,69,78
125369,note_on,,,,,114,0,13,,,8,,,79,68
125372,note_off,,,,,3,0,13,,,8,,,81,64
125378,note_off,,,,,111,0,9,,,4,,,81,64
125381,note_on,,,,,3,0,9,,,4,,,79,59
125478,note_off,,,,,106,0,13,,,8,,,79,64
125489,note_off,,,,,108,0,9,,,4,,,79,64
125490,note_on,,,,,12,0,13,,,8,,,78,62
125500,note_on,,,,,11,0,9,,,4,,,78,59
125607,note_on,,,,,117,0,13,,,8,,,79,72
125611,note_off,,,,,4,0,13,,,8,,,78,64
125619,note_off,,,,,119,0,9,,,4,,,78,64
125619,note_on,,,,,0,0,9,,,4,,,76,64
125702,note_off,,,,,91,0,13,,,8,,,79,64
125727,note_off,,,,,108,0,9,,,4,,,76,64
125728,note_on,,,,,26,0,13,,,8,,,81,82
125742,note_on,,,,,15,0,9,,,4,,,74,70
125842,note_off,,,,,114,0,13,,,8,,,81,64
125852,note_on,,,,,0,0,9,,,4,,,73,59
125852,note_off,,,,,110,0,9,,,4,,,74,64
125865,note_off,,,,,598,0,16,,,12,,,42,64
125872,note_off,,,,,596,0,15,,,11,,,69,64
125877,note_off,,,,,594,0,11,,,6,,,69,64
125900,note_off,,,,,636,0,14,,,10,,,74,64
125908,note_off,,,,,638,0,10,,,5,,,74,64
125921,note_off,,,,,645,0,12,,,7,,,42,64
125944,note_off,,,,,92,0,9,,,4,,,73,64
125964,note_on,,,,,122,0,13,,,8,,,71,68
125974,note_on,,,,,102,0,15,,,11,,,62,66
125978,note_on,,,,,78,0,14,,,10,,,67,68
125979,note_on,,,,,114,0,16,,,12,,,43,87
125982,note_on,,,,,38,0,9,,,4,,,71,64
125986,note_on,,,,,78,0,10,,,5,,,67,68
125990,note_on,,,,,69,0,12,,,7,,,43,78
125994,note_on,,,,,117,0,11,,,6,,,62,68
126070,note_off,,,,,106,0,13,,,8,,,71,64
126079,note_off,,,,,89,0,12,,,7,,,43,64
126084,note_off,,,,,102,0,9,,,4,,,71,64
126096,note_off,,,,,102,0,11,,,6,,,62,64
126096,note_off,,,,,117,0,16,,,12,,,43,64
126097,note_off,,,,,111,0,10,,,5,,,67,64
126097,note_off,,,,,123,0,15,,,11,,,62,64
126122,note_off,,,,,144,0,14,,,10,,,67,64
126215,note_on,,,,,119,0,16,,,12,,,40,82
126216,note_on,,,,,119,0,15,,,11,,,67,74
126220,note_on,,,,,123,0,10,,,5,,,71,70
126222,note_on,,,,,100,0,14,,,10,,,71,78
126223,note_on,,,,,153,0,13,,,8,,,76,80
126229,note_on,,,,,150,0,12,,,7,,,40,80
126230,note_on,,,,,146,0,9,,,4,,,76,82
126236,note_on,,,,,140,0,11,,,6,,,67,78
126276,set_tempo,,,,,44916,1,0,566038,,,,,,
126306,note_off,,,,,76,0,9,,,4,,,76,64
126329,note_off,,,,,106,0,13,,,8,,,76,64
126330,note_off,,,,,110,0,10,,,5,,,71,64
126340,note_off,,,,,125,0,16,,,12,,,40,64
126354,note_off,,,,,118,0,11,,,6,,,67,64
126354,note_off,,,,,132,0,14,,,10,,,71,64
126354,note_off,,,,,125,0,12,,,7,,,40,64
126363,note_off,,,,,147,0,15,,,11,,,67,64
126459,note_on,,,,,129,0,10,,,5,,,69,61
126465,note_on,,,,,111,0,14,,,10,,,69,60
126469,note_on,,,,,106,0,15,,,11,,,66,82
126469,note_on,,,,,163,0,9,,,4,,,74,60
126471,note_on,,,,,131,0,16,,,12,,,45,87
126471,note_on,,,,,117,0,11,,,6,,,66,68
126478,note_on,,,,,149,0,13,,,8,,,74,82
126478,note_on,,,,,124,0,12,,,7,,,45,82
126503,note_on,,,,,34,0,9,,,4,,,73,57
126504,set_tempo,,,,,228,1,0,612245,,,,,,
126504,note_on,,,,,33,0,11,,,6,,,64,63
126511,note_on,,,,,42,0,15,,,11,,,64,72
126511,note_off,,,,,8,0,9,,,4,,,74,64
126512,note_off,,,,,8,0,11,,,6,,,66,64
126515,note_off,,,,,4,0,15,,,11,,,66,64
126524,note_on,,,,,46,0,13,,,8,,,73,80
126528,note_off,,,,,4,0,13,,,8,,,74,64
126534,note_on,,,,,23,0,9,,,4,,,74,70
126542,note_on,,,,,27,0,15,,,11,,,66,70
126542,note_off,,,,,8,0,9,,,4,,,73,64
126543,note_on,,,,,31,0,11,,,6,,,66,74
126550,note_off,,,,,8,0,15,,,11,,,64,64
126553,note_off,,,,,10,0,11,,,6,,,64,64
126560,note_on,,,,,32,0,13,,,8,,,74,76
126566,note_off,,,,,6,0,13,,,8,,,73,64
126566,note_off,,,,,95,0,16,,,12,,,45,64
126570,note_off,,,,,92,0,12,,,7,,,45,64
126572,note_off,,,,,113,0,10,,,5,,,69,64
126578,note_on,,,,,28,0,15,,,11,,,64,82
126578,note_on,,,,,36,0,9,,,4,,,73,60
126582,note_on,,,,,29,0,11,,,6,,,64,59
126591,note_off,,,,,13,0,15,,,11,,,66,64
126595,note_on,,,,,29,0,13,,,8,,,73,64
126596,note_off,,,,,18,0,9,,,4,,,74,64
126596,note_off,,,,,131,0,14,,,10,,,69,64
126599,note_off,,,,,17,0,11,,,6,,,66,64
126613,note_off,,,,,18,0,13,,,8,,,74,64
126633,note_off,,,,,37,0,9,,,4,,,73,64
126652,note_off,,,,,39,0,13,,,8,,,73,64
126668,note_off,,,,,77,0,15,,,11,,,64,64
126677,note_off,,,,,78,0,11,,,6,,,64,64
126708,note_on,,,,,136,0,10,,,5,,,69,59
126714,note_on,,,,,62,0,13,,,8,,,74,80
126720,set_tempo,,,,,216,1,0,618557,,,,,,
126720,end_of_track,,,,,0,1,0,,,,,,,
126722,note_on,,,,,54,0,15,,,11,,,66,80
126723,note_on,,,,,90,0,9,,,4,,,74,66
126725,note_on,,,,,48,0,11,,,6,,,66,63
126725,note_on,,,,,129,0,14,,,10,,,69,62
126726,note_on,,,,,156,0,12,,,7,,,38,70
126732,note_on,,,,,166,0,16,,,12,,,38,82
127229,end_of_track,,,,,0,1,16,,,,,,,
127229,note_off,,,,,497,0,16,,,12,,,38,64
127247,end_of_track,,,,,0,1,9,,,,,,,
127247,note_off,,,,,524,0,9,,,4,,,74,64
127291,note_off,,,,,565,0,12,,,7,,,38,64
127291,end_of_track,,,,,0,1,12,,,,,,,
127295,note_off,,,,,570,0,11,,,6,,,66,64
127295,end_of_track,,,,,0,1,11,,,,,,,
127319,note_off,,,,,611,0,10,,,5,,,69,64
127319,end_of_track,,,,,0,1,10,,,,,,,
127336,end_of_track,,,,,0,1,15,,,,,,,
127336,note_off,,,,,614,0,15,,,11,,,66,64
127338,note_off,,,,,624,0,13,,,8,,,74,64
127338,end_of_track,,,,,0,1,13,,,,,,,
127376,note_off,,,,,651,0,14,,,10,,,69,64
127376,end_of_track,,,,,0,1,14,,,,,,,
