,note,step,duration,channel,velocity
0,66.0,0,90,5.0,0.0
1,66.0,0,90,4.0,0.0
2,62.0,120,90,11.0,0.0
3,66.0,0,90,10.0,0.0
4,67.0,240,90,4.0,0.0
5,67.0,0,90,10.0,0.0
6,67.0,0,90,5.0,0.0
7,64.0,0,90,11.0,0.0
8,69.0,0,210,5.0,0.0
9,69.0,0,210,10.0,0.0
10,69.0,0,210,4.0,0.0
11,66.0,120,210,11.0,0.0
12,69.0,0,210,11.0,0.0
13,74.0,0,210,4.0,0.0
14,66.0,0,90,12.0,0.0
15,74.0,0,210,10.0,0.0
16,62.0,15,90,14.0,0.0
17,66.0,0,210,1.0,0.0
18,74.0,0,210,5.0,0.0
19,62.0,0,90,13.0,0.0
20,69.0,15,210,0.0,0.0
21,62.0,0,210,2.0,0.0
22,50.0,105,120,3.0,0.0
23,61.0,0,90,13.0,0.0
24,61.0,0,90,14.0,0.0
25,50.0,225,120,3.0,0.0
26,64.0,0,90,12.0,0.0
27,62.0,0,240,14.0,0.0
28,66.0,15,210,11.0,0.0
29,69.0,0,240,1.0,0.0
30,62.0,0,240,13.0,0.0
31,66.0,0,240,2.0,0.0
32,69.0,0,240,4.0,0.0
33,50.0,0,240,3.0,0.0
34,66.0,0,240,12.0,0.0
35,69.0,0,240,10.0,0.0
36,69.0,225,240,5.0,0.0
37,74.0,0,240,0.0,0.0
38,67.0,0,240,4.0,0.0
39,61.0,15,210,11.0,0.0
40,67.0,0,240,10.0,0.0
41,67.0,225,240,5.0,0.0
42,66.0,0,210,5.0,0.0
43,66.0,0,210,10.0,0.0
44,66.0,0,210,4.0,0.0
45,62.0,120,210,11.0,0.0
46,66.0,0,210,1.0,0.0
47,74.0,0,210,5.0,0.0
48,74.0,0,210,10.0,0.0
49,50.0,105,120,3.0,0.0
50,61.0,0,90,14.0,0.0
51,61.0,15,90,13.0,0.0
52,69.0,0,90,12.0,0.0
53,74.0,0,210,4.0,0.0
54,69.0,0,210,0.0,0.0
55,62.0,0,210,2.0,0.0
56,66.0,15,210,11.0,0.0
57,59.0,0,90,14.0,0.0
58,67.0,0,90,12.0,0.0
59,59.0,0,90,13.0,0.0
60,50.0,225,120,3.0,0.0
61,74.0,0,240,0.0,0.0
62,69.0,225,240,1.0,0.0
63,66.0,0,240,10.0,0.0
64,66.0,0,240,4.0,0.0
65,61.0,0,240,13.0,0.0
66,61.0,0,240,14.0,0.0
67,62.0,15,210,11.0,0.0
68,69.0,0,240,12.0,0.0
69,66.0,0,240,5.0,0.0
70,50.0,0,240,3.0,0.0
71,66.0,0,240,2.0,0.0
72,64.0,225,240,10.0,0.0
73,64.0,0,240,4.0,0.0
74,58.0,15,210,11.0,0.0
75,64.0,0,240,5.0,0.0
76,62.0,0,210,4.0,0.0
77,62.0,120,210,10.0,0.0
78,62.0,0,210,5.0,0.0
79,59.0,0,210,11.0,0.0
80,66.0,0,210,2.0,0.0
81,78.0,0,90,0.0,0.0
82,59.0,15,90,13.0,0.0
83,59.0,0,90,14.0,0.0
84,74.0,0,90,1.0,0.0
85,66.0,0,90,4.0,0.0
86,62.0,0,90,12.0,0.0
87,66.0,0,90,10.0,0.0
88,50.0,105,120,3.0,0.0
89,62.0,0,90,11.0,0.0
90,66.0,0,90,5.0,0.0
91,61.0,0,90,14.0,0.0
92,64.0,0,90,12.0,0.0
93,50.0,225,120,3.0,0.0
94,64.0,0,90,10.0,0.0
95,61.0,0,90,11.0,0.0
96,61.0,0,90,13.0,0.0
97,76.0,15,90,0.0,0.0
98,64.0,0,90,5.0,0.0
99,73.0,0,90,1.0,0.0
100,64.0,0,90,4.0,0.0
101,74.0,0,210,1.0,0.0
102,66.0,0,210,5.0,0.0
103,59.0,0,210,11.0,0.0
104,62.0,15,210,13.0,0.0
105,50.0,225,240,3.0,0.0
106,62.0,0,210,2.0,0.0
107,78.0,0,210,0.0,0.0
108,66.0,0,210,10.0,0.0
109,62.0,0,210,12.0,0.0
110,66.0,0,210,4.0,0.0
111,62.0,0,210,14.0,0.0
112,59.0,0,210,13.0,0.0
113,80.0,0,210,0.0,0.0
114,50.0,105,240,3.0,0.0
115,62.0,0,210,12.0,0.0
116,68.0,0,210,4.0,0.0
117,68.0,0,210,10.0,0.0
118,64.0,0,210,11.0,0.0
119,74.0,0,210,1.0,0.0
120,62.0,0,210,2.0,0.0
121,59.0,0,210,14.0,0.0
122,68.0,15,210,5.0,0.0
123,81.0,120,90,0.0,0.0
124,69.0,0,90,5.0,0.0
125,61.0,0,210,12.0,0.0
126,76.0,15,210,1.0,0.0
127,61.0,0,210,13.0,0.0
128,45.0,105,240,3.0,0.0
129,64.0,0,210,11.0,0.0
130,69.0,0,90,4.0,0.0
131,61.0,0,210,14.0,0.0
132,69.0,0,210,2.0,0.0
133,69.0,0,90,10.0,0.0
134,68.0,0,90,4.0,0.0
135,68.0,0,90,5.0,0.0
136,80.0,0,90,0.0,0.0
137,68.0,0,90,10.0,0.0
138,69.0,15,90,10.0,0.0
139,57.0,0,210,14.0,0.0
140,81.0,0,90,0.0,0.0
141,57.0,0,210,13.0,0.0
142,69.0,0,90,1.0,0.0
143,69.0,0,90,2.0,0.0
144,45.0,105,120,3.0,0.0
145,69.0,0,90,4.0,0.0
146,69.0,0,90,5.0,0.0
147,64.0,0,210,12.0,0.0
148,61.0,15,210,11.0,0.0
149,71.0,0,90,5.0,0.0
150,83.0,0,90,0.0,0.0
151,71.0,0,90,4.0,0.0
152,69.0,0,90,1.0,0.0
153,71.0,0,90,10.0,0.0
154,45.0,105,120,3.0,0.0
155,69.0,0,90,2.0,0.0
156,69.0,0,90,10.0,0.0
157,45.0,0,240,3.0,0.0
158,62.0,15,210,12.0,0.0
159,69.0,0,90,4.0,0.0
160,81.0,0,240,0.0,0.0
161,54.0,0,210,14.0,0.0
162,57.0,0,210,11.0,0.0
163,54.0,0,210,13.0,0.0
164,69.0,120,90,5.0,0.0
165,69.0,105,240,2.0,0.0
166,69.0,0,240,1.0,0.0
167,67.0,0,90,10.0,0.0
168,67.0,0,90,5.0,0.0
169,67.0,0,90,4.0,0.0
170,57.0,0,210,14.0,0.0
171,61.0,0,210,11.0,0.0
172,57.0,0,210,12.0,0.0
173,66.0,0,90,10.0,0.0
174,66.0,120,90,4.0,0.0
175,66.0,0,90,5.0,0.0
176,57.0,0,210,13.0,0.0
177,64.0,240,90,4.0,0.0
178,64.0,0,90,10.0,0.0
179,64.0,0,90,5.0,0.0
180,66.0,0,210,5.0,0.0
181,66.0,0,210,10.0,0.0
182,50.0,0,210,13.0,0.0
183,57.0,120,210,12.0,0.0
184,66.0,0,210,4.0,0.0
185,62.0,0,210,11.0,0.0
186,50.0,0,210,14.0,0.0
187,62.0,0,90,13.0,0.0
188,66.0,0,210,2.0,0.0
189,78.0,0,210,10.0,0.0
190,62.0,0,90,14.0,0.0
191,78.0,0,210,4.0,0.0
192,78.0,0,210,0.0,0.0
193,71.0,0,90,11.0,0.0
194,74.0,0,210,1.0,0.0
195,78.0,0,210,5.0,0.0
196,66.0,15,90,12.0,0.0
197,50.0,105,120,3.0,0.0
198,50.0,225,120,3.0,0.0
199,61.0,0,90,13.0,0.0
200,61.0,0,90,14.0,0.0
201,64.0,15,90,12.0,0.0
202,69.0,0,90,11.0,0.0
203,83.0,0,240,0.0,0.0
204,66.0,0,240,12.0,0.0
205,71.0,0,240,5.0,0.0
206,78.0,0,240,1.0,0.0
207,74.0,0,240,2.0,0.0
208,50.0,0,240,3.0,0.0
209,71.0,15,210,11.0,0.0
210,71.0,0,240,4.0,0.0
211,62.0,0,240,14.0,0.0
212,71.0,0,240,10.0,0.0
213,62.0,225,240,13.0,0.0
214,69.0,0,240,10.0,0.0
215,69.0,0,240,5.0,0.0
216,62.0,15,210,11.0,0.0
217,69.0,225,240,4.0,0.0
218,68.0,0,210,5.0,0.0
219,68.0,0,210,4.0,0.0
220,68.0,0,210,10.0,0.0
221,64.0,120,210,11.0,0.0
222,83.0,0,210,4.0,0.0
223,76.0,0,210,1.0,0.0
224,74.0,0,210,2.0,0.0
225,83.0,0,210,5.0,0.0
226,71.0,0,90,12.0,0.0
227,56.0,0,90,14.0,0.0
228,56.0,15,90,13.0,0.0
229,83.0,0,210,10.0,0.0
230,50.0,105,120,3.0,0.0
231,76.0,0,90,11.0,0.0
232,76.0,0,210,0.0,0.0
233,74.0,0,90,11.0,0.0
234,69.0,0,90,12.0,0.0
235,50.0,225,120,3.0,0.0
236,54.0,15,90,13.0,0.0
237,54.0,0,90,14.0,0.0
238,56.0,0,210,14.0,0.0
239,76.0,0,240,1.0,0.0
240,76.0,0,240,4.0,0.0
241,76.0,0,240,10.0,0.0
242,71.0,0,210,12.0,0.0
243,76.0,0,240,5.0,0.0
244,50.0,0,240,3.0,0.0
245,76.0,0,210,11.0,0.0
246,74.0,225,240,2.0,0.0
247,83.0,0,240,0.0,0.0
248,56.0,15,210,13.0,0.0
249,74.0,0,240,5.0,0.0
250,52.0,0,210,14.0,0.0
251,74.0,105,240,4.0,0.0
252,74.0,0,240,10.0,0.0
253,52.0,0,210,13.0,0.0
254,59.0,0,210,12.0,0.0
255,68.0,15,210,11.0,0.0
256,57.0,0,210,12.0,0.0
257,57.0,0,210,14.0,0.0
258,57.0,0,210,13.0,0.0
259,73.0,120,90,4.0,0.0
260,73.0,0,90,10.0,0.0
261,73.0,0,90,5.0,0.0
262,64.0,0,210,11.0,0.0
263,71.0,0,90,10.0,0.0
264,71.0,0,90,4.0,0.0
265,71.0,120,90,5.0,0.0
266,73.0,0,90,4.0,0.0
267,54.0,0,210,14.0,0.0
268,61.0,0,210,12.0,0.0
269,54.0,0,210,13.0,0.0
270,73.0,120,90,10.0,0.0
271,73.0,0,90,5.0,0.0
272,69.0,0,210,11.0,0.0
273,81.0,0,210,0.0,0.0
274,45.0,105,240,3.0,0.0
275,69.0,0,210,2.0,0.0
276,76.0,15,210,1.0,0.0
277,74.0,0,90,4.0,0.0
278,74.0,0,90,10.0,0.0
279,74.0,0,90,5.0,0.0
280,73.0,120,90,4.0,0.0
281,73.0,0,90,5.0,0.0
282,50.0,0,210,13.0,0.0
283,73.0,0,90,10.0,0.0
284,62.0,0,210,12.0,0.0
285,50.0,0,210,14.0,0.0
286,66.0,0,210,11.0,0.0
287,85.0,0,90,0.0,0.0
288,74.0,0,210,2.0,0.0
289,78.0,0,210,1.0,0.0
290,50.0,105,240,3.0,0.0
291,71.0,0,90,10.0,0.0
292,71.0,0,90,4.0,0.0
293,71.0,15,90,5.0,0.0
294,83.0,0,90,0.0,0.0
295,52.0,0,210,14.0,0.0
296,52.0,0,210,13.0,0.0
297,69.0,0,90,10.0,0.0
298,81.0,0,90,0.0,0.0
299,74.0,720,210,2.0,0.0
300,64.0,0,210,11.0,0.0
301,76.0,0,210,1.0,0.0
302,69.0,0,90,5.0,0.0
303,69.0,120,90,4.0,0.0
304,59.0,0,210,12.0,0.0
305,68.0,0,90,5.0,0.0
306,80.0,0,90,0.0,0.0
307,68.0,0,90,4.0,0.0
308,68.0,0,90,10.0,0.0
309,69.0,15,690,4.0,0.0
310,45.0,0,720,3.0,0.0
311,69.0,0,690,5.0,0.0
312,69.0,105,720,2.0,0.0
313,69.0,0,690,10.0,0.0
314,64.0,0,690,11.0,0.0
315,76.0,0,720,1.0,0.0
316,45.0,0,720,13.0,0.0
317,81.0,0,720,0.0,0.0
318,45.0,0,720,14.0,0.0
319,61.0,0,720,12.0,0.0
320,66.0,0,90,5.0,0.0
321,66.0,120,90,10.0,0.0
322,66.0,0,90,4.0,0.0
323,62.0,0,90,11.0,0.0
324,67.0,0,90,5.0,0.0
325,67.0,240,90,4.0,0.0
326,64.0,0,90,11.0,0.0
327,67.0,0,90,10.0,0.0
328,69.0,0,210,4.0,0.0
329,69.0,0,210,5.0,0.0
330,69.0,0,210,10.0,0.0
331,66.0,120,210,11.0,0.0
332,74.0,0,210,10.0,0.0
333,50.0,105,120,3.0,0.0
334,69.0,0,210,11.0,0.0
335,66.0,0,210,1.0,0.0
336,62.0,0,90,14.0,0.0
337,62.0,0,210,2.0,0.0
338,74.0,0,210,5.0,0.0
339,69.0,0,210,0.0,0.0
340,62.0,15,90,13.0,0.0
341,74.0,0,210,4.0,0.0
342,66.0,0,90,12.0,0.0
343,50.0,225,120,3.0,0.0
344,64.0,15,90,12.0,0.0
345,61.0,0,90,14.0,0.0
346,61.0,0,90,13.0,0.0
347,62.0,0,240,13.0,0.0
348,66.0,0,240,12.0,0.0
349,69.0,0,240,1.0,0.0
350,50.0,225,240,3.0,0.0
351,69.0,0,240,10.0,0.0
352,66.0,0,240,2.0,0.0
353,69.0,0,240,5.0,0.0
354,62.0,0,240,14.0,0.0
355,69.0,0,240,4.0,0.0
356,66.0,15,210,11.0,0.0
357,74.0,0,240,0.0,0.0
358,67.0,225,240,10.0,0.0
359,67.0,0,240,4.0,0.0
360,67.0,0,240,5.0,0.0
361,61.0,15,210,11.0,0.0
362,66.0,0,210,5.0,0.0
363,62.0,0,210,11.0,0.0
364,66.0,0,210,10.0,0.0
365,66.0,120,210,4.0,0.0
366,62.0,0,210,2.0,0.0
367,69.0,15,90,12.0,0.0
368,50.0,105,120,3.0,0.0
369,66.0,15,210,11.0,0.0
370,74.0,0,210,10.0,0.0
371,66.0,0,210,1.0,0.0
372,61.0,0,90,14.0,0.0
373,61.0,0,90,13.0,0.0
374,74.0,0,210,4.0,0.0
375,74.0,0,210,5.0,0.0
376,69.0,0,210,0.0,0.0
377,59.0,0,90,13.0,0.0
378,59.0,0,90,14.0,0.0
379,50.0,225,120,3.0,0.0
380,67.0,0,90,12.0,0.0
381,61.0,225,240,13.0,0.0
382,66.0,0,240,5.0,0.0
383,69.0,0,240,1.0,0.0
384,69.0,0,240,12.0,0.0
385,62.0,15,210,11.0,0.0
386,66.0,0,240,4.0,0.0
387,66.0,0,240,10.0,0.0
388,74.0,0,240,0.0,0.0
389,50.0,0,240,3.0,0.0
390,66.0,0,240,2.0,0.0
391,61.0,0,240,14.0,0.0
392,64.0,0,240,10.0,0.0
393,58.0,15,210,11.0,0.0
394,64.0,0,240,5.0,0.0
395,64.0,225,240,4.0,0.0
396,59.0,120,210,11.0,0.0
397,62.0,0,210,4.0,0.0
398,62.0,0,210,10.0,0.0
399,62.0,0,210,5.0,0.0
400,62.0,0,90,11.0,0.0
401,66.0,0,210,2.0,0.0
402,78.0,0,90,0.0,0.0
403,50.0,105,120,3.0,0.0
404,74.0,0,90,1.0,0.0
405,66.0,0,90,10.0,0.0
406,59.0,0,90,14.0,0.0
407,62.0,0,90,12.0,0.0
408,66.0,15,90,5.0,0.0
409,59.0,0,90,13.0,0.0
410,66.0,0,90,4.0,0.0
411,64.0,0,90,4.0,0.0
412,76.0,0,90,0.0,0.0
413,73.0,0,90,1.0,0.0
414,61.0,0,90,14.0,0.0
415,61.0,15,90,13.0,0.0
416,50.0,225,120,3.0,0.0
417,64.0,0,90,12.0,0.0
418,64.0,0,90,5.0,0.0
419,61.0,0,90,11.0,0.0
420,64.0,0,90,10.0,0.0
421,50.0,225,240,3.0,0.0
422,62.0,0,210,2.0,0.0
423,66.0,0,210,10.0,0.0
424,59.0,0,210,11.0,0.0
425,78.0,15,210,0.0,0.0
426,62.0,0,210,14.0,0.0
427,66.0,0,210,5.0,0.0
428,74.0,0,210,1.0,0.0
429,66.0,0,210,4.0,0.0
430,62.0,0,210,12.0,0.0
431,62.0,0,210,13.0,0.0
432,59.0,15,210,14.0,0.0
433,68.0,0,210,10.0,0.0
434,74.0,0,210,1.0,0.0
435,80.0,0,210,0.0,0.0
436,64.0,0,210,11.0,0.0
437,59.0,0,210,13.0,0.0
438,50.0,105,240,3.0,0.0
439,62.0,0,210,12.0,0.0
440,62.0,0,210,2.0,0.0
441,68.0,0,210,5.0,0.0
442,68.0,0,210,4.0,0.0
443,69.0,0,90,10.0,0.0
444,69.0,0,210,2.0,0.0
445,64.0,0,210,11.0,0.0
446,61.0,15,210,12.0,0.0
447,81.0,120,90,0.0,0.0
448,45.0,105,240,3.0,0.0
449,69.0,0,90,5.0,0.0
450,69.0,0,90,4.0,0.0
451,61.0,0,210,13.0,0.0
452,76.0,0,210,1.0,0.0
453,61.0,0,210,14.0,0.0
454,68.0,0,90,10.0,0.0
455,68.0,0,90,5.0,0.0
456,80.0,0,90,0.0,0.0
457,68.0,0,90,4.0,0.0
458,69.0,0,90,5.0,0.0
459,57.0,0,210,13.0,0.0
460,69.0,0,90,10.0,0.0
461,69.0,0,90,2.0,0.0
462,45.0,105,120,3.0,0.0
463,69.0,0,90,1.0,0.0
464,61.0,0,210,11.0,0.0
465,57.0,0,210,14.0,0.0
466,81.0,15,90,0.0,0.0
467,64.0,0,210,12.0,0.0
468,69.0,0,90,4.0,0.0
469,45.0,105,120,3.0,0.0
470,71.0,0,90,10.0,0.0
471,69.0,0,90,2.0,0.0
472,83.0,0,90,0.0,0.0
473,69.0,0,90,1.0,0.0
474,71.0,15,90,5.0,0.0
475,71.0,0,90,4.0,0.0
476,69.0,0,240,1.0,0.0
477,69.0,0,90,10.0,0.0
478,57.0,0,210,11.0,0.0
479,81.0,0,240,0.0,0.0
480,69.0,0,90,5.0,0.0
481,54.0,0,210,13.0,0.0
482,69.0,120,90,4.0,0.0
483,54.0,0,210,14.0,0.0
484,69.0,105,240,2.0,0.0
485,45.0,0,240,3.0,0.0
486,62.0,0,210,12.0,0.0
487,67.0,0,90,5.0,0.0
488,67.0,0,90,10.0,0.0
489,67.0,15,90,4.0,0.0
490,61.0,0,210,11.0,0.0
491,57.0,0,210,14.0,0.0
492,66.0,0,90,4.0,0.0
493,66.0,120,90,10.0,0.0
494,66.0,0,90,5.0,0.0
495,57.0,240,210,12.0,0.0
496,57.0,0,210,13.0,0.0
497,64.0,0,90,5.0,0.0
498,64.0,0,90,4.0,0.0
499,64.0,0,90,10.0,0.0
500,62.0,0,210,11.0,0.0
501,66.0,0,210,5.0,0.0
502,66.0,0,210,4.0,0.0
503,50.0,0,210,13.0,0.0
504,50.0,0,210,14.0,0.0
505,66.0,0,210,10.0,0.0
506,57.0,120,210,12.0,0.0
507,78.0,0,210,5.0,0.0
508,66.0,15,90,12.0,0.0
509,78.0,0,210,10.0,0.0
510,50.0,105,120,3.0,0.0
511,78.0,0,210,4.0,0.0
512,74.0,0,210,1.0,0.0
513,62.0,0,90,13.0,0.0
514,71.0,0,90,11.0,0.0
515,62.0,0,90,14.0,0.0
516,78.0,0,210,0.0,0.0
517,66.0,0,210,2.0,0.0
518,61.0,0,90,14.0,0.0
519,69.0,15,90,11.0,0.0
520,50.0,225,120,3.0,0.0
521,61.0,0,90,13.0,0.0
522,64.0,0,90,12.0,0.0
523,50.0,0,240,3.0,0.0
524,71.0,0,240,4.0,0.0
525,71.0,0,240,10.0,0.0
526,66.0,0,240,12.0,0.0
527,78.0,0,240,1.0,0.0
528,71.0,15,210,11.0,0.0
529,71.0,225,240,5.0,0.0
530,62.0,0,240,14.0,0.0
531,74.0,0,240,2.0,0.0
532,62.0,0,240,13.0,0.0
533,83.0,0,240,0.0,0.0
534,69.0,0,240,10.0,0.0
535,62.0,15,210,11.0,0.0
536,69.0,225,240,5.0,0.0
537,69.0,0,240,4.0,0.0
538,64.0,0,210,11.0,0.0
539,68.0,0,210,4.0,0.0
540,68.0,0,210,10.0,0.0
541,68.0,120,210,5.0,0.0
542,76.0,0,210,0.0,0.0
543,83.0,0,210,4.0,0.0
544,56.0,0,90,14.0,0.0
545,76.0,0,210,1.0,0.0
546,56.0,0,90,13.0,0.0
547,74.0,0,210,2.0,0.0
548,71.0,0,90,12.0,0.0
549,83.0,15,210,10.0,0.0
550,83.0,0,210,5.0,0.0
551,76.0,15,90,11.0,0.0
552,50.0,105,120,3.0,0.0
553,74.0,0,90,11.0,0.0
554,54.0,0,90,13.0,0.0
555,69.0,0,90,12.0,0.0
556,50.0,225,120,3.0,0.0
557,54.0,0,90,14.0,0.0
558,83.0,0,240,0.0,0.0
559,76.0,0,240,10.0,0.0
560,76.0,0,240,4.0,0.0
561,76.0,0,240,1.0,0.0
562,56.0,15,210,14.0,0.0
563,71.0,0,210,12.0,0.0
564,76.0,0,210,11.0,0.0
565,50.0,225,240,3.0,0.0
566,74.0,0,240,2.0,0.0
567,56.0,0,210,13.0,0.0
568,76.0,0,240,5.0,0.0
569,74.0,0,240,10.0,0.0
570,68.0,0,210,11.0,0.0
571,74.0,105,240,4.0,0.0
572,52.0,0,210,14.0,0.0
573,74.0,0,240,5.0,0.0
574,59.0,15,210,12.0,0.0
575,52.0,0,210,13.0,0.0
576,73.0,0,90,10.0,0.0
577,57.0,0,210,12.0,0.0
578,57.0,0,210,14.0,0.0
579,73.0,120,90,5.0,0.0
580,73.0,0,90,4.0,0.0
581,57.0,0,210,13.0,0.0
582,64.0,0,210,11.0,0.0
583,71.0,120,90,4.0,0.0
584,71.0,0,90,5.0,0.0
585,71.0,0,90,10.0,0.0
586,73.0,0,90,4.0,0.0
587,81.0,15,210,0.0,0.0
588,73.0,0,90,10.0,0.0
589,69.0,0,210,11.0,0.0
590,54.0,0,210,13.0,0.0
591,45.0,105,240,3.0,0.0
592,69.0,0,210,2.0,0.0
593,73.0,120,90,5.0,0.0
594,76.0,0,210,1.0,0.0
595,54.0,0,210,14.0,0.0
596,61.0,0,210,12.0,0.0
597,74.0,0,90,4.0,0.0
598,74.0,0,90,5.0,0.0
599,74.0,0,90,10.0,0.0
600,50.0,105,240,3.0,0.0
601,85.0,120,90,0.0,0.0
602,50.0,0,210,13.0,0.0
603,78.0,0,210,1.0,0.0
604,73.0,0,90,5.0,0.0
605,73.0,0,90,10.0,0.0
606,74.0,0,210,2.0,0.0
607,62.0,0,210,12.0,0.0
608,66.0,15,210,11.0,0.0
609,50.0,0,210,14.0,0.0
610,73.0,0,90,4.0,0.0
611,71.0,0,90,10.0,0.0
612,71.0,0,90,4.0,0.0
613,83.0,0,90,0.0,0.0
614,71.0,0,90,5.0,0.0
615,69.0,0,90,5.0,0.0
616,52.0,720,210,14.0,0.0
617,76.0,0,210,1.0,0.0
618,69.0,0,90,4.0,0.0
619,81.0,0,90,0.0,0.0
620,59.0,0,210,12.0,0.0
621,64.0,0,210,11.0,0.0
622,69.0,120,90,10.0,0.0
623,52.0,0,210,13.0,0.0
624,74.0,0,210,2.0,0.0
625,68.0,0,90,5.0,0.0
626,68.0,0,90,4.0,0.0
627,68.0,0,90,10.0,0.0
628,80.0,0,90,0.0,0.0
629,64.0,0,690,11.0,0.0
630,61.0,0,720,12.0,0.0
631,81.0,0,720,0.0,0.0
632,69.0,0,720,2.0,0.0
633,69.0,15,690,5.0,0.0
634,45.0,105,720,3.0,0.0
635,45.0,0,720,14.0,0.0
636,69.0,0,690,10.0,0.0
637,76.0,0,720,1.0,0.0
638,45.0,0,720,13.0,0.0
639,69.0,0,690,4.0,0.0
640,73.0,0,90,10.0,0.0
641,73.0,120,90,5.0,0.0
642,69.0,0,90,11.0,0.0
643,73.0,0,90,4.0,0.0
644,71.0,0,90,11.0,0.0
645,74.0,240,90,4.0,0.0
646,74.0,0,90,5.0,0.0
647,74.0,0,90,10.0,0.0
648,76.0,0,210,5.0,0.0
649,73.0,0,210,11.0,0.0
650,76.0,0,210,4.0,0.0
651,76.0,120,210,10.0,0.0
652,57.0,0,90,13.0,0.0
653,45.0,105,120,3.0,0.0
654,76.0,15,210,11.0,0.0
655,81.0,0,210,5.0,0.0
656,73.0,0,90,12.0,0.0
657,81.0,0,210,10.0,0.0
658,69.0,15,90,2.0,0.0
659,57.0,0,90,14.0,0.0
660,69.0,0,210,1.0,0.0
661,81.0,0,210,4.0,0.0
662,76.0,0,210,0.0,0.0
663,71.0,0,90,12.0,0.0
664,56.0,0,90,14.0,0.0
665,69.0,0,90,2.0,0.0
666,56.0,0,90,13.0,0.0
667,45.0,225,120,3.0,0.0
668,76.0,0,240,5.0,0.0
669,81.0,0,240,0.0,0.0
670,57.0,0,240,14.0,0.0
671,76.0,225,240,10.0,0.0
672,76.0,0,240,4.0,0.0
673,73.0,15,210,11.0,0.0
674,57.0,0,240,13.0,0.0
675,69.0,0,240,2.0,0.0
676,76.0,0,240,1.0,0.0
677,45.0,0,240,3.0,0.0
678,73.0,0,240,12.0,0.0
679,74.0,0,240,4.0,0.0
680,74.0,0,240,10.0,0.0
681,74.0,225,240,5.0,0.0
682,68.0,15,210,11.0,0.0
683,69.0,0,210,11.0,0.0
684,73.0,0,210,4.0,0.0
685,73.0,120,210,5.0,0.0
686,73.0,0,210,10.0,0.0
687,69.0,0,210,1.0,0.0
688,45.0,105,120,3.0,0.0
689,69.0,0,90,2.0,0.0
690,81.0,0,210,4.0,0.0
691,81.0,0,210,10.0,0.0
692,55.0,15,90,14.0,0.0
693,76.0,15,210,0.0,0.0
694,55.0,0,90,13.0,0.0
695,64.0,0,90,12.0,0.0
696,73.0,0,210,11.0,0.0
697,81.0,0,210,5.0,0.0
698,54.0,0,90,13.0,0.0
699,54.0,0,90,14.0,0.0
700,69.0,0,90,2.0,0.0
701,62.0,0,90,12.0,0.0
702,45.0,225,120,3.0,0.0
703,73.0,0,240,4.0,0.0
704,55.0,0,240,13.0,0.0
705,69.0,225,240,2.0,0.0
706,55.0,0,240,14.0,0.0
707,73.0,0,240,5.0,0.0
708,73.0,0,240,10.0,0.0
709,69.0,15,210,11.0,0.0
710,64.0,0,240,12.0,0.0
711,76.0,0,240,1.0,0.0
712,45.0,0,240,3.0,0.0
713,81.0,0,240,0.0,0.0
714,71.0,225,240,10.0,0.0
715,64.0,15,210,11.0,0.0
716,71.0,0,240,4.0,0.0
717,71.0,0,240,5.0,0.0
718,66.0,240,210,11.0,0.0
719,69.0,0,210,4.0,0.0
720,69.0,0,210,10.0,0.0
721,69.0,0,210,5.0,0.0
722,74.0,0,210,2.0,0.0
723,62.0,15,210,12.0,0.0
724,78.0,0,210,1.0,0.0
725,74.0,0,210,4.0,0.0
726,50.0,225,240,3.0,0.0
727,54.0,0,210,13.0,0.0
728,74.0,0,210,5.0,0.0
729,54.0,0,210,14.0,0.0
730,69.0,0,210,11.0,0.0
731,74.0,0,210,10.0,0.0
732,74.0,0,210,0.0,0.0
733,79.0,0,210,5.0,0.0
734,52.0,0,210,14.0,0.0
735,52.0,0,210,13.0,0.0
736,76.0,0,210,1.0,0.0
737,62.0,0,210,12.0,0.0
738,74.0,15,210,2.0,0.0
739,50.0,105,240,3.0,0.0
740,71.0,0,210,11.0,0.0
741,79.0,0,210,4.0,0.0
742,79.0,0,210,10.0,0.0
743,79.0,0,210,0.0,0.0
744,78.0,0,90,5.0,0.0
745,69.0,0,210,11.0,0.0
746,45.0,105,240,3.0,0.0
747,78.0,120,90,10.0,0.0
748,57.0,15,210,14.0,0.0
749,78.0,0,90,0.0,0.0
750,69.0,0,210,2.0,0.0
751,61.0,0,210,12.0,0.0
752,76.0,0,210,1.0,0.0
753,57.0,0,210,13.0,0.0
754,78.0,0,90,4.0,0.0
755,76.0,0,90,10.0,0.0
756,76.0,0,90,0.0,0.0
757,76.0,0,90,5.0,0.0
758,76.0,0,90,4.0,0.0
759,50.0,105,240,3.0,0.0
760,74.0,0,210,1.0,0.0
761,78.0,120,90,5.0,0.0
762,50.0,15,210,13.0,0.0
763,62.0,0,210,12.0,0.0
764,50.0,0,210,14.0,0.0
765,69.0,0,210,2.0,0.0
766,69.0,0,450,11.0,0.0
767,78.0,0,90,10.0,0.0
768,78.0,0,90,0.0,0.0
769,78.0,0,90,4.0,0.0
770,79.0,0,90,0.0,0.0
771,79.0,0,90,5.0,0.0
772,79.0,0,90,10.0,0.0
773,79.0,0,90,4.0,0.0
774,50.0,105,120,3.0,0.0
775,78.0,0,90,10.0,0.0
776,78.0,0,90,4.0,0.0
777,74.0,0,90,1.0,0.0
778,78.0,0,90,0.0,0.0
779,78.0,0,90,5.0,0.0
780,69.0,0,90,2.0,0.0
781,62.0,0,90,12.0,0.0
782,62.0,15,90,14.0,0.0
783,62.0,0,90,13.0,0.0
784,76.0,0,90,5.0,0.0
785,76.0,0,90,0.0,0.0
786,69.0,0,90,2.0,0.0
787,76.0,0,90,10.0,0.0
788,64.0,0,90,12.0,0.0
789,61.0,15,90,14.0,0.0
790,76.0,0,90,4.0,0.0
791,61.0,0,90,13.0,0.0
792,74.0,0,90,1.0,0.0
793,50.0,105,120,3.0,0.0
794,69.0,0,210,11.0,0.0
795,74.0,120,90,4.0,0.0
796,66.0,0,240,2.0,0.0
797,62.0,15,210,13.0,0.0
798,66.0,105,240,12.0,0.0
799,62.0,0,210,14.0,0.0
800,74.0,0,90,5.0,0.0
801,69.0,0,240,1.0,0.0
802,74.0,0,240,0.0,0.0
803,74.0,0,90,10.0,0.0
804,50.0,0,240,3.0,0.0
805,76.0,0,90,10.0,0.0
806,76.0,0,90,4.0,0.0
807,76.0,0,90,5.0,0.0
808,78.0,0,90,5.0,0.0
809,50.0,0,210,14.0,0.0
810,50.0,0,210,13.0,0.0
811,78.0,120,90,10.0,0.0
812,69.0,135,210,11.0,0.0
813,78.0,0,90,4.0,0.0
814,74.0,0,90,4.0,0.0
815,74.0,0,90,10.0,0.0
816,74.0,0,90,5.0,0.0
817,55.0,15,210,13.0,0.0
818,71.0,0,120,4.0,0.0
819,55.0,0,210,14.0,0.0
820,71.0,0,120,5.0,0.0
821,71.0,0,120,10.0,0.0
822,71.0,105,120,11.0,0.0
823,78.0,120,120,4.0,0.0
824,78.0,0,120,10.0,0.0
825,78.0,0,120,5.0,0.0
826,75.0,0,120,11.0,0.0
827,79.0,15,450,10.0,0.0
828,76.0,0,450,11.0,0.0
829,79.0,0,450,4.0,0.0
830,59.0,0,210,13.0,0.0
831,59.0,15,210,14.0,0.0
832,79.0,0,450,5.0,0.0
833,64.0,105,120,12.0,0.0
834,63.0,225,120,12.0,0.0
835,52.0,225,240,13.0,0.0
836,64.0,0,240,12.0,0.0
837,52.0,0,240,14.0,0.0
838,78.0,0,210,4.0,0.0
839,71.0,0,210,11.0,0.0
840,78.0,0,210,5.0,0.0
841,50.0,120,240,13.0,0.0
842,50.0,0,240,14.0,0.0
843,78.0,15,210,10.0,0.0
844,67.0,0,120,5.0,0.0
845,67.0,0,120,4.0,0.0
846,67.0,105,120,10.0,0.0
847,48.0,0,210,13.0,0.0
848,48.0,15,210,14.0,0.0
849,69.0,0,120,11.0,0.0
850,75.0,120,120,10.0,0.0
851,75.0,0,120,5.0,0.0
852,66.0,0,120,11.0,0.0
853,75.0,0,120,4.0,0.0
854,60.0,15,210,14.0,0.0
855,67.0,0,450,11.0,0.0
856,60.0,0,210,13.0,0.0
857,76.0,0,450,5.0,0.0
858,76.0,15,450,4.0,0.0
859,64.0,105,120,12.0,0.0
860,76.0,0,450,10.0,0.0
861,63.0,225,120,12.0,0.0
862,64.0,0,240,12.0,0.0
863,55.0,0,240,13.0,0.0
864,55.0,225,240,14.0,0.0
865,63.0,15,210,11.0,0.0
866,54.0,120,240,13.0,0.0
867,78.0,0,210,4.0,0.0
868,78.0,0,210,5.0,0.0
869,54.0,0,240,14.0,0.0
870,78.0,0,210,10.0,0.0
871,52.0,15,210,14.0,0.0
872,71.0,0,120,10.0,0.0
873,71.0,0,120,5.0,0.0
874,52.0,0,210,13.0,0.0
875,64.0,105,120,11.0,0.0
876,71.0,0,120,4.0,0.0
877,78.0,0,120,4.0,0.0
878,78.0,0,120,10.0,0.0
879,78.0,120,120,5.0,0.0
880,75.0,0,120,11.0,0.0
881,64.0,15,210,13.0,0.0
882,64.0,105,120,12.0,0.0
883,76.0,0,450,11.0,0.0
884,79.0,0,450,10.0,0.0
885,79.0,0,450,4.0,0.0
886,79.0,15,450,5.0,0.0
887,64.0,0,210,14.0,0.0
888,63.0,225,120,12.0,0.0
889,59.0,0,240,13.0,0.0
890,59.0,225,240,14.0,0.0
891,64.0,0,210,12.0,0.0
892,78.0,0,210,10.0,0.0
893,57.0,120,240,13.0,0.0
894,66.0,0,210,12.0,0.0
895,75.0,0,210,11.0,0.0
896,57.0,0,240,14.0,0.0
897,78.0,0,210,5.0,0.0
898,78.0,15,210,4.0,0.0
899,64.0,0,120,4.0,0.0
900,55.0,0,210,13.0,0.0
901,64.0,105,120,10.0,0.0
902,76.0,15,210,11.0,0.0
903,55.0,0,210,14.0,0.0
904,59.0,0,210,12.0,0.0
905,64.0,0,120,5.0,0.0
906,75.0,0,120,10.0,0.0
907,75.0,105,120,4.0,0.0
908,75.0,0,120,5.0,0.0
909,70.0,120,90,11.0,0.0
910,76.0,15,450,4.0,0.0
911,76.0,0,450,5.0,0.0
912,64.0,0,90,12.0,0.0
913,49.0,0,90,14.0,0.0
914,76.0,0,450,10.0,0.0
915,49.0,0,90,13.0,0.0
916,47.0,240,90,14.0,0.0
917,47.0,0,90,13.0,0.0
918,62.0,0,90,12.0,0.0
919,71.0,0,90,11.0,0.0
920,49.0,0,240,13.0,0.0
921,70.0,0,210,11.0,0.0
922,49.0,0,240,14.0,0.0
923,64.0,105,240,12.0,0.0
924,70.0,0,90,10.0,0.0
925,73.0,0,210,11.0,0.0
926,70.0,120,90,5.0,0.0
927,70.0,0,90,4.0,0.0
928,71.0,240,90,10.0,0.0
929,71.0,0,90,4.0,0.0
930,71.0,0,90,5.0,0.0
931,73.0,120,210,10.0,0.0
932,73.0,0,210,5.0,0.0
933,66.0,0,210,11.0,0.0
934,73.0,0,210,4.0,0.0
935,76.0,0,210,5.0,0.0
936,73.0,0,210,11.0,0.0
937,76.0,0,210,10.0,0.0
938,58.0,120,90,14.0,0.0
939,76.0,0,210,4.0,0.0
940,58.0,0,90,13.0,0.0
941,61.0,0,90,12.0,0.0
942,56.0,0,90,14.0,0.0
943,59.0,0,90,12.0,0.0
944,56.0,240,90,13.0,0.0
945,61.0,0,240,12.0,0.0
946,58.0,0,240,14.0,0.0
947,79.0,0,240,5.0,0.0
948,58.0,105,240,13.0,0.0
949,79.0,0,240,4.0,0.0
950,79.0,0,240,10.0,0.0
951,76.0,15,210,11.0,0.0
952,78.0,0,210,5.0,0.0
953,78.0,0,210,10.0,0.0
954,78.0,240,210,4.0,0.0
955,66.0,120,90,11.0,0.0
956,68.0,0,90,11.0,0.0
957,66.0,0,210,5.0,0.0
958,66.0,0,210,10.0,0.0
959,70.0,120,210,11.0,0.0
960,66.0,0,210,4.0,0.0
961,73.0,0,210,5.0,0.0
962,54.0,0,90,13.0,0.0
963,66.0,0,210,11.0,0.0
964,73.0,240,210,10.0,0.0
965,73.0,0,210,4.0,0.0
966,54.0,120,90,14.0,0.0
967,70.0,0,90,12.0,0.0
968,68.0,0,90,12.0,0.0
969,52.0,0,90,13.0,0.0
970,52.0,0,90,14.0,0.0
971,70.0,15,210,12.0,0.0
972,76.0,0,240,5.0,0.0
973,73.0,0,210,11.0,0.0
974,76.0,225,240,10.0,0.0
975,54.0,0,210,13.0,0.0
976,76.0,0,240,4.0,0.0
977,54.0,0,210,14.0,0.0
978,71.0,0,210,11.0,0.0
979,55.0,0,210,13.0,0.0
980,74.0,0,210,4.0,0.0
981,74.0,0,210,10.0,0.0
982,55.0,0,210,14.0,0.0
983,74.0,0,210,5.0,0.0
984,71.0,120,210,12.0,0.0
985,50.0,120,90,13.0,0.0
986,83.0,0,210,10.0,0.0
987,71.0,0,210,11.0,0.0
988,66.0,0,210,12.0,0.0
989,50.0,0,90,14.0,0.0
990,83.0,0,210,4.0,0.0
991,83.0,120,210,5.0,0.0
992,49.0,0,90,13.0,0.0
993,49.0,0,90,14.0,0.0
994,50.0,120,90,13.0,0.0
995,78.0,0,90,10.0,0.0
996,74.0,0,90,11.0,0.0
997,78.0,0,90,4.0,0.0
998,78.0,0,90,5.0,0.0
999,71.0,0,210,12.0,0.0
1000,50.0,0,90,14.0,0.0
1001,76.0,0,90,5.0,0.0
1002,76.0,0,90,10.0,0.0
1003,76.0,0,90,4.0,0.0
1004,52.0,0,90,14.0,0.0
1005,73.0,0,90,11.0,0.0
1006,52.0,240,90,13.0,0.0
1007,74.0,0,210,4.0,0.0
1008,54.0,0,210,14.0,0.0
1009,54.0,0,210,13.0,0.0
1010,74.0,0,210,10.0,0.0
1011,74.0,0,210,5.0,0.0
1012,71.0,0,210,11.0,0.0
1013,66.0,240,210,12.0,0.0
1014,42.0,0,210,14.0,0.0
1015,73.0,0,210,4.0,0.0
1016,73.0,0,210,10.0,0.0
1017,70.0,0,210,11.0,0.0
1018,64.0,0,210,12.0,0.0
1019,73.0,240,210,5.0,0.0
1020,42.0,0,210,13.0,0.0
1021,71.0,0,690,4.0,0.0
1022,47.0,120,210,13.0,0.0
1023,66.0,0,690,11.0,0.0
1024,71.0,0,690,10.0,0.0
1025,71.0,15,690,5.0,0.0
1026,62.0,0,210,12.0,0.0
1027,47.0,0,210,14.0,0.0
1028,62.0,0,90,12.0,0.0
1029,59.0,120,90,13.0,0.0
1030,59.0,0,90,14.0,0.0
1031,58.0,240,90,13.0,0.0
1032,61.0,0,90,12.0,0.0
1033,58.0,0,90,14.0,0.0
1034,59.0,0,240,13.0,0.0
1035,62.0,105,240,12.0,0.0
1036,59.0,0,240,14.0,0.0
1037,66.0,120,90,5.0,0.0
1038,66.0,0,90,4.0,0.0
1039,62.0,0,90,11.0,0.0
1040,66.0,0,90,10.0,0.0
1041,67.0,0,90,5.0,0.0
1042,67.0,240,90,4.0,0.0
1043,67.0,0,90,10.0,0.0
1044,64.0,0,90,11.0,0.0
1045,66.0,0,210,11.0,0.0
1046,69.0,120,210,5.0,0.0
1047,69.0,0,210,10.0,0.0
1048,69.0,0,210,4.0,0.0
1049,74.0,0,210,10.0,0.0
1050,54.0,15,90,13.0,0.0
1051,66.0,0,210,1.0,0.0
1052,69.0,0,210,0.0,0.0
1053,74.0,15,210,4.0,0.0
1054,57.0,0,90,12.0,0.0
1055,62.0,0,210,2.0,0.0
1056,74.0,0,210,5.0,0.0
1057,54.0,0,90,14.0,0.0
1058,62.0,0,210,11.0,0.0
1059,50.0,105,120,3.0,0.0
1060,55.0,0,90,14.0,0.0
1061,50.0,240,120,3.0,0.0
1062,55.0,0,90,13.0,0.0
1063,59.0,0,90,12.0,0.0
1064,57.0,0,240,14.0,0.0
1065,66.0,0,240,5.0,0.0
1066,57.0,0,240,13.0,0.0
1067,69.0,240,240,2.0,0.0
1068,50.0,0,240,3.0,0.0
1069,74.0,0,240,0.0,0.0
1070,66.0,0,240,4.0,0.0
1071,60.0,0,240,12.0,0.0
1072,69.0,0,240,11.0,0.0
1073,66.0,0,240,10.0,0.0
1074,62.0,0,240,1.0,0.0
1075,71.0,0,240,11.0,0.0
1076,64.0,225,240,10.0,0.0
1077,64.0,0,240,5.0,0.0
1078,64.0,0,240,4.0,0.0
1079,62.0,120,210,4.0,0.0
1080,72.0,0,210,11.0,0.0
1081,62.0,0,210,5.0,0.0
1082,62.0,0,210,10.0,0.0
1083,81.0,0,210,5.0,0.0
1084,69.0,0,210,0.0,0.0
1085,62.0,15,210,11.0,0.0
1086,66.0,0,90,12.0,0.0
1087,81.0,0,210,4.0,0.0
1088,66.0,0,210,1.0,0.0
1089,50.0,15,90,14.0,0.0
1090,50.0,105,120,3.0,0.0
1091,62.0,0,210,2.0,0.0
1092,81.0,0,210,10.0,0.0
1093,50.0,0,90,13.0,0.0
1094,50.0,240,120,3.0,0.0
1095,52.0,0,90,13.0,0.0
1096,52.0,0,90,14.0,0.0
1097,67.0,0,90,12.0,0.0
1098,69.0,0,240,11.0,0.0
1099,54.0,0,240,13.0,0.0
1100,72.0,240,240,10.0,0.0
1101,72.0,0,240,4.0,0.0
1102,72.0,0,240,5.0,0.0
1103,74.0,0,240,0.0,0.0
1104,62.0,0,240,2.0,0.0
1105,50.0,0,240,3.0,0.0
1106,54.0,0,240,14.0,0.0
1107,69.0,0,240,1.0,0.0
1108,69.0,0,240,12.0,0.0
1109,71.0,0,240,10.0,0.0
1110,67.0,225,240,11.0,0.0
1111,71.0,0,240,5.0,0.0
1112,71.0,0,240,4.0,0.0
1113,72.0,0,210,10.0,0.0
1114,72.0,120,210,4.0,0.0
1115,72.0,0,210,5.0,0.0
1116,66.0,0,210,11.0,0.0
1117,50.0,105,120,3.0,0.0
1118,78.0,0,90,0.0,0.0
1119,78.0,0,90,5.0,0.0
1120,78.0,0,90,10.0,0.0
1121,69.0,0,210,12.0,0.0
1122,57.0,0,90,13.0,0.0
1123,78.0,15,90,4.0,0.0
1124,69.0,0,210,2.0,0.0
1125,74.0,0,90,1.0,0.0
1126,57.0,0,90,14.0,0.0
1127,72.0,0,90,11.0,0.0
1128,79.0,0,90,4.0,0.0
1129,79.0,0,90,10.0,0.0
1130,79.0,0,90,0.0,0.0
1131,79.0,0,90,5.0,0.0
1132,71.0,0,90,11.0,0.0
1133,55.0,15,90,14.0,0.0
1134,55.0,0,90,13.0,0.0
1135,76.0,0,90,1.0,0.0
1136,50.0,105,120,3.0,0.0
1137,78.0,120,90,1.0,0.0
1138,54.0,0,210,13.0,0.0
1139,50.0,105,240,3.0,0.0
1140,69.0,0,210,11.0,0.0
1141,81.0,15,210,4.0,0.0
1142,74.0,0,210,2.0,0.0
1143,62.0,0,210,12.0,0.0
1144,81.0,0,90,0.0,0.0
1145,81.0,0,210,5.0,0.0
1146,54.0,0,210,14.0,0.0
1147,81.0,0,210,10.0,0.0
1148,83.0,0,90,0.0,0.0
1149,79.0,0,90,1.0,0.0
1150,78.0,0,90,1.0,0.0
1151,50.0,0,210,13.0,0.0
1152,72.0,0,210,10.0,0.0
1153,50.0,105,240,3.0,0.0
1154,81.0,120,90,0.0,0.0
1155,50.0,0,210,14.0,0.0
1156,72.0,0,210,5.0,0.0
1157,66.0,15,210,11.0,0.0
1158,62.0,0,210,2.0,0.0
1159,62.0,0,210,12.0,0.0
1160,72.0,0,210,4.0,0.0
1161,76.0,0,90,1.0,0.0
1162,83.0,0,90,0.0,0.0
1163,71.0,0,120,4.0,0.0
1164,62.0,15,210,12.0,0.0
1165,71.0,105,120,5.0,0.0
1166,71.0,0,120,10.0,0.0
1167,43.0,0,210,13.0,0.0
1168,50.0,0,240,3.0,0.0
1169,43.0,0,210,14.0,0.0
1170,74.0,0,240,1.0,0.0
1171,79.0,15,90,0.0,0.0
1172,67.0,0,210,11.0,0.0
1173,62.0,0,240,2.0,0.0
1174,81.0,0,90,0.0,0.0
1175,69.0,0,120,10.0,0.0
1176,69.0,0,120,4.0,0.0
1177,69.0,105,120,5.0,0.0
1178,67.0,0,90,5.0,0.0
1179,59.0,0,210,12.0,0.0
1180,62.0,0,210,11.0,0.0
1181,67.0,0,90,4.0,0.0
1182,55.0,0,90,13.0,0.0
1183,83.0,120,90,0.0,0.0
1184,55.0,0,90,14.0,0.0
1185,67.0,0,90,10.0,0.0
1186,69.0,0,90,10.0,0.0
1187,81.0,120,90,0.0,0.0
1188,69.0,0,90,5.0,0.0
1189,69.0,0,90,4.0,0.0
1190,54.0,0,90,14.0,0.0
1191,54.0,0,90,13.0,0.0
1192,67.0,0,210,11.0,0.0
1193,71.0,0,90,10.0,0.0
1194,55.0,0,210,14.0,0.0
1195,71.0,0,90,4.0,0.0
1196,71.0,120,90,5.0,0.0
1197,64.0,0,210,12.0,0.0
1198,79.0,105,240,0.0,0.0
1199,55.0,0,210,13.0,0.0
1200,74.0,0,90,5.0,0.0
1201,74.0,0,90,4.0,0.0
1202,74.0,15,90,10.0,0.0
1203,67.0,0,210,11.0,0.0
1204,64.0,0,210,12.0,0.0
1205,73.0,0,90,10.0,0.0
1206,73.0,0,90,5.0,0.0
1207,45.0,135,210,14.0,0.0
1208,45.0,0,210,13.0,0.0
1209,73.0,120,90,4.0,0.0
1210,76.0,0,90,5.0,0.0
1211,76.0,0,90,4.0,0.0
1212,76.0,0,90,10.0,0.0
1213,74.0,0,120,10.0,0.0
1214,74.0,105,120,4.0,0.0
1215,47.0,0,210,13.0,0.0
1216,62.0,0,210,12.0,0.0
1217,66.0,15,210,11.0,0.0
1218,47.0,0,210,14.0,0.0
1219,74.0,0,120,5.0,0.0
1220,73.0,0,120,10.0,0.0
1221,73.0,105,120,4.0,0.0
1222,73.0,0,120,5.0,0.0
1223,59.0,120,90,13.0,0.0
1224,59.0,0,90,14.0,0.0
1225,62.0,0,210,11.0,0.0
1226,71.0,0,90,4.0,0.0
1227,71.0,0,90,5.0,0.0
1228,71.0,0,90,10.0,0.0
1229,66.0,0,210,12.0,0.0
1230,57.0,0,90,14.0,0.0
1231,73.0,0,90,4.0,0.0
1232,57.0,120,90,13.0,0.0
1233,73.0,0,90,10.0,0.0
1234,73.0,0,90,5.0,0.0
1235,59.0,0,210,13.0,0.0
1236,74.0,0,90,10.0,0.0
1237,59.0,0,210,14.0,0.0
1238,74.0,0,210,11.0,0.0
1239,66.0,0,210,12.0,0.0
1240,74.0,120,90,4.0,0.0
1241,74.0,0,90,5.0,0.0
1242,78.0,0,90,5.0,0.0
1243,78.0,0,90,10.0,0.0
1244,78.0,120,90,4.0,0.0
1245,49.0,0,210,14.0,0.0
1246,69.0,0,210,12.0,0.0
1247,76.0,120,90,10.0,0.0
1248,69.0,0,210,11.0,0.0
1249,76.0,0,90,4.0,0.0
1250,49.0,0,210,13.0,0.0
1251,76.0,0,90,5.0,0.0
1252,79.0,0,90,4.0,0.0
1253,79.0,0,90,5.0,0.0
1254,79.0,135,90,10.0,0.0
1255,78.0,105,120,10.0,0.0
1256,69.0,0,210,11.0,0.0
1257,78.0,0,120,5.0,0.0
1258,50.0,15,210,13.0,0.0
1259,50.0,0,210,14.0,0.0
1260,78.0,0,120,4.0,0.0
1261,62.0,0,210,12.0,0.0
1262,76.0,105,120,4.0,0.0
1263,76.0,0,120,5.0,0.0
1264,76.0,0,120,10.0,0.0
1265,74.0,0,90,4.0,0.0
1266,62.0,120,90,13.0,0.0
1267,66.0,0,210,11.0,0.0
1268,74.0,0,90,5.0,0.0
1269,57.0,0,210,12.0,0.0
1270,62.0,0,90,14.0,0.0
1271,74.0,0,90,10.0,0.0
1272,76.0,0,90,5.0,0.0
1273,76.0,0,90,10.0,0.0
1274,76.0,0,90,4.0,0.0
1275,61.0,120,90,14.0,0.0
1276,61.0,0,90,13.0,0.0
1277,62.0,0,210,14.0,0.0
1278,69.0,0,210,11.0,0.0
1279,78.0,0,90,5.0,0.0
1280,62.0,0,210,13.0,0.0
1281,62.0,0,210,12.0,0.0
1282,78.0,0,90,10.0,0.0
1283,78.0,120,90,4.0,0.0
1284,81.0,0,90,10.0,0.0
1285,81.0,0,90,5.0,0.0
1286,81.0,120,90,4.0,0.0
1287,79.0,0,90,4.0,0.0
1288,79.0,0,90,5.0,0.0
1289,67.0,120,210,12.0,0.0
1290,52.0,0,210,13.0,0.0
1291,79.0,120,90,10.0,0.0
1292,52.0,0,210,14.0,0.0
1293,73.0,0,210,11.0,0.0
1294,83.0,0,90,5.0,0.0
1295,83.0,0,90,4.0,0.0
1296,83.0,0,90,10.0,0.0
1297,54.0,0,210,14.0,0.0
1298,81.0,0,210,4.0,0.0
1299,81.0,0,210,5.0,0.0
1300,74.0,120,90,11.0,0.0
1301,54.0,0,210,13.0,0.0
1302,81.0,0,210,10.0,0.0
1303,66.0,120,210,12.0,0.0
1304,76.0,0,90,11.0,0.0
1305,59.0,0,210,13.0,0.0
1306,59.0,15,210,14.0,0.0
1307,80.0,0,120,10.0,0.0
1308,62.0,0,210,12.0,0.0
1309,80.0,0,120,4.0,0.0
1310,80.0,105,120,5.0,0.0
1311,74.0,15,90,11.0,0.0
1312,81.0,120,120,5.0,0.0
1313,81.0,0,120,10.0,0.0
1314,81.0,0,120,4.0,0.0
1315,73.0,0,90,11.0,0.0
1316,83.0,0,210,5.0,0.0
1317,57.0,105,120,13.0,0.0
1318,83.0,0,210,4.0,0.0
1319,83.0,0,210,10.0,0.0
1320,62.0,135,210,12.0,0.0
1321,57.0,0,120,14.0,0.0
1322,71.0,0,210,11.0,0.0
1323,56.0,0,90,13.0,0.0
1324,56.0,0,90,14.0,0.0
1325,68.0,0,210,11.0,0.0
1326,54.0,105,120,14.0,0.0
1327,54.0,0,120,13.0,0.0
1328,64.0,0,210,12.0,0.0
1329,74.0,0,210,5.0,0.0
1330,74.0,0,210,10.0,0.0
1331,74.0,0,210,4.0,0.0
1332,52.0,120,90,14.0,0.0
1333,52.0,0,90,13.0,0.0
1334,64.0,120,210,12.0,0.0
1335,73.0,120,90,4.0,0.0
1336,57.0,0,210,14.0,0.0
1337,73.0,0,90,10.0,0.0
1338,73.0,0,90,5.0,0.0
1339,69.0,0,210,11.0,0.0
1340,57.0,0,210,13.0,0.0
1341,74.0,0,90,4.0,0.0
1342,74.0,0,90,5.0,0.0
1343,74.0,0,90,10.0,0.0
1344,73.0,120,90,4.0,0.0
1345,55.0,0,210,13.0,0.0
1346,64.0,0,210,11.0,0.0
1347,57.0,120,210,12.0,0.0
1348,73.0,0,90,5.0,0.0
1349,55.0,0,210,14.0,0.0
1350,73.0,0,90,10.0,0.0
1351,71.0,0,90,10.0,0.0
1352,71.0,0,90,5.0,0.0
1353,71.0,0,90,4.0,0.0
1354,69.0,0,90,4.0,0.0
1355,69.0,120,90,5.0,0.0
1356,54.0,0,210,13.0,0.0
1357,66.0,0,210,11.0,0.0
1358,62.0,0,210,12.0,0.0
1359,69.0,0,90,10.0,0.0
1360,54.0,0,210,14.0,0.0
1361,71.0,0,90,10.0,0.0
1362,71.0,120,90,4.0,0.0
1363,71.0,0,90,5.0,0.0
1364,52.0,0,210,14.0,0.0
1365,64.0,0,210,12.0,0.0
1366,52.0,0,210,13.0,0.0
1367,73.0,0,90,5.0,0.0
1368,73.0,120,90,10.0,0.0
1369,73.0,0,90,4.0,0.0
1370,67.0,135,210,11.0,0.0
1371,69.0,0,90,10.0,0.0
1372,69.0,0,90,4.0,0.0
1373,69.0,0,90,5.0,0.0
1374,66.0,0,120,10.0,0.0
1375,66.0,105,120,4.0,0.0
1376,66.0,0,210,12.0,0.0
1377,50.0,15,210,13.0,0.0
1378,50.0,0,210,14.0,0.0
1379,66.0,0,120,5.0,0.0
1380,69.0,0,120,11.0,0.0
1381,73.0,0,120,10.0,0.0
1382,73.0,0,120,5.0,0.0
1383,73.0,0,120,4.0,0.0
1384,64.0,105,120,11.0,0.0
1385,59.0,0,90,13.0,0.0
1386,66.0,15,450,11.0,0.0
1387,66.0,15,210,2.0,0.0
1388,74.0,0,450,10.0,0.0
1389,62.0,15,90,12.0,0.0
1390,50.0,105,120,3.0,0.0
1391,74.0,0,450,5.0,0.0
1392,74.0,0,450,4.0,0.0
1393,78.0,0,210,0.0,0.0
1394,74.0,0,210,1.0,0.0
1395,59.0,0,90,14.0,0.0
1396,61.0,0,90,12.0,0.0
1397,57.0,0,90,14.0,0.0
1398,57.0,0,90,13.0,0.0
1399,50.0,225,120,3.0,0.0
1400,62.0,0,240,2.0,0.0
1401,83.0,0,240,0.0,0.0
1402,50.0,0,240,3.0,0.0
1403,59.0,0,240,14.0,0.0
1404,78.0,0,240,1.0,0.0
1405,62.0,105,240,12.0,0.0
1406,59.0,0,240,13.0,0.0
1407,71.0,120,90,11.0,0.0
1408,78.0,0,210,5.0,0.0
1409,78.0,135,210,4.0,0.0
1410,78.0,0,210,10.0,0.0
1411,69.0,0,90,11.0,0.0
1412,83.0,0,120,5.0,0.0
1413,83.0,0,120,10.0,0.0
1414,83.0,120,120,4.0,0.0
1415,68.0,0,120,11.0,0.0
1416,73.0,0,120,4.0,0.0
1417,69.0,0,120,11.0,0.0
1418,73.0,0,120,5.0,0.0
1419,73.0,105,120,10.0,0.0
1420,56.0,0,90,14.0,0.0
1421,56.0,15,90,13.0,0.0
1422,83.0,0,210,0.0,0.0
1423,50.0,105,120,3.0,0.0
1424,74.0,15,450,4.0,0.0
1425,64.0,0,90,12.0,0.0
1426,74.0,0,450,10.0,0.0
1427,74.0,0,450,5.0,0.0
1428,74.0,0,210,2.0,0.0
1429,71.0,0,450,11.0,0.0
1430,76.0,15,210,1.0,0.0
1431,54.0,0,90,14.0,0.0
1432,54.0,0,90,13.0,0.0
1433,50.0,225,120,3.0,0.0
1434,62.0,0,90,12.0,0.0
1435,83.0,105,240,1.0,0.0
1436,64.0,0,210,12.0,0.0
1437,56.0,0,210,13.0,0.0
1438,56.0,0,210,14.0,0.0
1439,86.0,0,240,0.0,0.0
1440,76.0,0,240,2.0,0.0
1441,50.0,0,240,3.0,0.0
1442,73.0,0,90,4.0,0.0
1443,73.0,0,90,10.0,0.0
1444,68.0,0,210,11.0,0.0
1445,73.0,120,90,5.0,0.0
1446,64.0,0,210,12.0,0.0
1447,52.0,0,210,13.0,0.0
1448,52.0,120,210,14.0,0.0
1449,71.0,0,90,5.0,0.0
1450,71.0,0,90,10.0,0.0
1451,71.0,0,90,4.0,0.0
1452,57.0,120,90,13.0,0.0
1453,73.0,0,90,5.0,0.0
1454,73.0,0,90,4.0,0.0
1455,73.0,0,90,10.0,0.0
1456,57.0,0,90,14.0,0.0
1457,69.0,120,210,11.0,0.0
1458,64.0,0,210,12.0,0.0
1459,69.0,0,90,4.0,0.0
1460,69.0,0,90,10.0,0.0
1461,55.0,0,90,13.0,0.0
1462,69.0,0,90,5.0,0.0
1463,55.0,0,90,14.0,0.0
1464,81.0,0,210,5.0,0.0
1465,81.0,0,210,10.0,0.0
1466,54.0,0,90,14.0,0.0
1467,81.0,0,210,4.0,0.0
1468,69.0,0,210,11.0,0.0
1469,69.0,0,90,2.0,0.0
1470,50.0,105,120,3.0,0.0
1471,62.0,0,90,12.0,0.0
1472,81.0,15,90,0.0,0.0
1473,78.0,0,90,1.0,0.0
1474,54.0,0,90,13.0,0.0
1475,76.0,15,90,1.0,0.0
1476,55.0,0,90,13.0,0.0
1477,69.0,0,90,2.0,0.0
1478,64.0,0,90,12.0,0.0
1479,55.0,0,90,14.0,0.0
1480,50.0,105,120,3.0,0.0
1481,79.0,0,90,0.0,0.0
1482,69.0,0,210,11.0,0.0
1483,45.0,105,240,3.0,0.0
1484,74.0,0,210,5.0,0.0
1485,69.0,0,210,2.0,0.0
1486,66.0,0,210,12.0,0.0
1487,57.0,0,210,13.0,0.0
1488,74.0,0,210,10.0,0.0
1489,74.0,0,210,1.0,0.0
1490,78.0,120,90,0.0,0.0
1491,74.0,0,210,4.0,0.0
1492,57.0,15,210,14.0,0.0
1493,79.0,0,90,0.0,0.0
1494,81.0,0,90,0.0,0.0
1495,64.0,0,210,12.0,0.0
1496,45.0,0,210,14.0,0.0
1497,76.0,0,90,10.0,0.0
1498,76.0,120,90,4.0,0.0
1499,45.0,705,240,3.0,0.0
1500,45.0,0,210,13.0,0.0
1501,69.0,0,210,11.0,0.0
1502,69.0,0,210,2.0,0.0
1503,76.0,0,90,5.0,0.0
1504,76.0,15,210,1.0,0.0
1505,73.0,0,90,5.0,0.0
1506,73.0,0,90,4.0,0.0
1507,73.0,0,90,10.0,0.0
1508,79.0,0,90,0.0,0.0
1509,50.0,0,720,3.0,0.0
1510,50.0,0,720,14.0,0.0
1511,74.0,0,690,10.0,0.0
1512,74.0,15,690,4.0,0.0
1513,78.0,0,720,0.0,0.0
1514,74.0,0,690,5.0,0.0
1515,69.0,0,720,2.0,0.0
1516,50.0,105,720,13.0,0.0
1517,69.0,0,690,11.0,0.0
1518,74.0,0,720,1.0,0.0
1519,66.0,0,720,12.0,0.0
1520,69.0,120,90,11.0,0.0
1521,73.0,0,90,5.0,0.0
1522,73.0,0,90,4.0,0.0
1523,73.0,0,90,10.0,0.0
1524,74.0,0,90,5.0,0.0
1525,71.0,0,90,11.0,0.0
1526,74.0,0,90,4.0,0.0
1527,74.0,240,90,10.0,0.0
1528,76.0,0,210,10.0,0.0
1529,73.0,0,210,11.0,0.0
1530,76.0,0,210,5.0,0.0
1531,76.0,120,210,4.0,0.0
1532,57.0,0,90,13.0,0.0
1533,73.0,0,90,12.0,0.0
1534,81.0,0,210,4.0,0.0
1535,76.0,0,210,11.0,0.0
1536,69.0,0,210,1.0,0.0
1537,76.0,0,210,0.0,0.0
1538,57.0,0,90,14.0,0.0
1539,45.0,105,120,3.0,0.0
1540,81.0,0,210,10.0,0.0
1541,81.0,0,210,5.0,0.0
1542,69.0,15,90,2.0,0.0
1543,69.0,0,90,2.0,0.0
1544,56.0,0,90,14.0,0.0
1545,56.0,15,90,13.0,0.0
1546,71.0,0,90,12.0,0.0
1547,45.0,225,120,3.0,0.0
1548,69.0,0,240,2.0,0.0
1549,57.0,0,240,14.0,0.0
1550,45.0,0,240,3.0,0.0
1551,76.0,0,240,4.0,0.0
1552,57.0,0,240,13.0,0.0
1553,76.0,0,240,1.0,0.0
1554,73.0,15,210,11.0,0.0
1555,73.0,225,240,12.0,0.0
1556,81.0,0,240,0.0,0.0
1557,76.0,0,240,5.0,0.0
1558,76.0,0,240,10.0,0.0
1559,74.0,0,240,10.0,0.0
1560,74.0,0,240,4.0,0.0
1561,68.0,15,210,11.0,0.0
1562,74.0,225,240,5.0,0.0
1563,73.0,0,210,10.0,0.0
1564,73.0,0,210,4.0,0.0
1565,73.0,120,210,5.0,0.0
1566,69.0,0,210,11.0,0.0
1567,45.0,105,120,3.0,0.0
1568,55.0,15,90,14.0,0.0
1569,73.0,0,210,11.0,0.0
1570,69.0,0,210,1.0,0.0
1571,81.0,0,210,4.0,0.0
1572,76.0,0,210,0.0,0.0
1573,69.0,0,90,2.0,0.0
1574,55.0,0,90,13.0,0.0
1575,81.0,0,210,5.0,0.0
1576,64.0,0,90,12.0,0.0
1577,81.0,0,210,10.0,0.0
1578,62.0,0,90,12.0,0.0
1579,45.0,225,120,3.0,0.0
1580,69.0,15,90,2.0,0.0
1581,54.0,0,90,14.0,0.0
1582,54.0,0,90,13.0,0.0
1583,73.0,0,240,4.0,0.0
1584,45.0,0,240,3.0,0.0
1585,76.0,0,240,1.0,0.0
1586,69.0,0,240,2.0,0.0
1587,73.0,225,240,10.0,0.0
1588,73.0,0,240,5.0,0.0
1589,64.0,0,240,12.0,0.0
1590,69.0,15,210,11.0,0.0
1591,81.0,0,240,0.0,0.0
1592,55.0,0,240,13.0,0.0
1593,55.0,0,240,14.0,0.0
1594,64.0,15,210,11.0,0.0
1595,71.0,0,240,5.0,0.0
1596,71.0,0,240,10.0,0.0
1597,71.0,225,240,4.0,0.0
1598,66.0,0,210,11.0,0.0
1599,69.0,0,210,5.0,0.0
1600,69.0,0,210,10.0,0.0
1601,69.0,240,210,4.0,0.0
1602,74.0,15,210,4.0,0.0
1603,74.0,0,210,10.0,0.0
1604,74.0,0,210,2.0,0.0
1605,74.0,0,210,0.0,0.0
1606,50.0,225,240,3.0,0.0
1607,78.0,0,210,1.0,0.0
1608,54.0,0,210,14.0,0.0
1609,54.0,0,210,13.0,0.0
1610,69.0,0,210,11.0,0.0
1611,62.0,0,210,12.0,0.0
1612,74.0,0,210,5.0,0.0
1613,50.0,105,240,3.0,0.0
1614,79.0,15,210,10.0,0.0
1615,76.0,0,210,1.0,0.0
1616,71.0,0,210,11.0,0.0
1617,52.0,0,210,14.0,0.0
1618,79.0,0,210,0.0,0.0
1619,62.0,0,210,12.0,0.0
1620,52.0,0,210,13.0,0.0
1621,74.0,0,210,2.0,0.0
1622,79.0,0,210,5.0,0.0
1623,79.0,0,210,4.0,0.0
1624,76.0,0,210,1.0,0.0
1625,78.0,0,90,5.0,0.0
1626,61.0,0,210,12.0,0.0
1627,78.0,0,90,4.0,0.0
1628,57.0,0,210,14.0,0.0
1629,45.0,105,240,3.0,0.0
1630,69.0,0,210,11.0,0.0
1631,78.0,120,90,10.0,0.0
1632,57.0,0,210,13.0,0.0
1633,78.0,0,90,0.0,0.0
1634,69.0,0,210,2.0,0.0
1635,76.0,0,90,5.0,0.0
1636,76.0,0,90,0.0,0.0
1637,76.0,15,90,10.0,0.0
1638,76.0,0,90,4.0,0.0
1639,78.0,120,90,4.0,0.0
1640,50.0,0,210,14.0,0.0
1641,69.0,0,450,11.0,0.0
1642,74.0,0,210,1.0,0.0
1643,69.0,0,210,2.0,0.0
1644,62.0,0,210,12.0,0.0
1645,50.0,0,210,13.0,0.0
1646,50.0,105,240,3.0,0.0
1647,78.0,0,90,0.0,0.0
1648,78.0,0,90,10.0,0.0
1649,78.0,0,90,5.0,0.0
1650,79.0,0,90,10.0,0.0
1651,79.0,0,90,4.0,0.0
1652,79.0,0,90,0.0,0.0
1653,79.0,15,90,5.0,0.0
1654,62.0,0,90,14.0,0.0
1655,78.0,0,90,0.0,0.0
1656,78.0,0,90,10.0,0.0
1657,78.0,0,90,4.0,0.0
1658,78.0,0,90,5.0,0.0
1659,74.0,15,90,1.0,0.0
1660,69.0,0,90,2.0,0.0
1661,62.0,0,90,13.0,0.0
1662,62.0,0,90,12.0,0.0
1663,50.0,105,120,3.0,0.0
1664,61.0,0,90,13.0,0.0
1665,76.0,0,90,0.0,0.0
1666,64.0,0,90,12.0,0.0
1667,50.0,105,120,3.0,0.0
1668,76.0,0,90,5.0,0.0
1669,76.0,0,90,10.0,0.0
1670,76.0,0,90,4.0,0.0
1671,69.0,0,90,2.0,0.0
1672,61.0,0,90,14.0,0.0
1673,74.0,15,90,1.0,0.0
1674,66.0,0,240,12.0,0.0
1675,69.0,0,210,11.0,0.0
1676,74.0,0,240,0.0,0.0
1677,50.0,0,240,3.0,0.0
1678,66.0,0,240,2.0,0.0
1679,74.0,120,90,10.0,0.0
1680,62.0,0,210,13.0,0.0
1681,74.0,0,90,4.0,0.0
1682,74.0,0,90,5.0,0.0
1683,69.0,105,240,1.0,0.0
1684,62.0,0,210,14.0,0.0
1685,76.0,0,90,4.0,0.0
1686,76.0,15,90,5.0,0.0
1687,76.0,0,90,10.0,0.0
1688,78.0,0,90,10.0,0.0
1689,69.0,0,210,11.0,0.0
1690,78.0,0,90,4.0,0.0
1691,78.0,120,90,5.0,0.0
1692,50.0,135,210,13.0,0.0
1693,50.0,0,210,14.0,0.0
1694,74.0,0,90,5.0,0.0
1695,74.0,0,90,10.0,0.0
1696,74.0,0,90,4.0,0.0
1697,71.0,105,120,10.0,0.0
1698,71.0,0,120,11.0,0.0
1699,71.0,0,120,4.0,0.0
1700,71.0,0,120,5.0,0.0
1701,55.0,0,210,14.0,0.0
1702,55.0,15,210,13.0,0.0
1703,75.0,0,120,11.0,0.0
1704,78.0,0,120,5.0,0.0
1705,78.0,120,120,4.0,0.0
1706,78.0,0,120,10.0,0.0
1707,59.0,15,210,14.0,0.0
1708,76.0,0,450,11.0,0.0
1709,59.0,0,210,13.0,0.0
1710,64.0,105,120,12.0,0.0
1711,79.0,0,450,5.0,0.0
1712,79.0,0,450,4.0,0.0
1713,79.0,15,450,10.0,0.0
1714,63.0,225,120,12.0,0.0
1715,64.0,225,240,12.0,0.0
1716,52.0,0,240,14.0,0.0
1717,52.0,0,240,13.0,0.0
1718,71.0,0,210,11.0,0.0
1719,78.0,0,210,10.0,0.0
1720,50.0,120,240,13.0,0.0
1721,50.0,0,240,14.0,0.0
1722,78.0,15,210,5.0,0.0
1723,78.0,0,210,4.0,0.0
1724,48.0,15,210,14.0,0.0
1725,69.0,0,120,11.0,0.0
1726,67.0,0,120,10.0,0.0
1727,48.0,0,210,13.0,0.0
1728,67.0,0,120,5.0,0.0
1729,67.0,105,120,4.0,0.0
1730,75.0,120,120,4.0,0.0
1731,75.0,0,120,10.0,0.0
1732,66.0,0,120,11.0,0.0
1733,75.0,0,120,5.0,0.0
1734,60.0,0,210,13.0,0.0
1735,76.0,0,450,10.0,0.0
1736,64.0,105,120,12.0,0.0
1737,76.0,0,450,5.0,0.0
1738,67.0,15,450,11.0,0.0
1739,76.0,0,450,4.0,0.0
1740,60.0,15,210,14.0,0.0
1741,63.0,225,120,12.0,0.0
1742,55.0,0,240,14.0,0.0
1743,64.0,0,240,12.0,0.0
1744,55.0,225,240,13.0,0.0
1745,78.0,0,210,10.0,0.0
1746,54.0,0,240,13.0,0.0
1747,63.0,0,210,11.0,0.0
1748,54.0,120,240,14.0,0.0
1749,78.0,0,210,4.0,0.0
1750,78.0,15,210,5.0,0.0
1751,52.0,0,210,13.0,0.0
1752,64.0,105,120,11.0,0.0
1753,52.0,15,210,14.0,0.0
1754,71.0,0,120,10.0,0.0
1755,71.0,0,120,4.0,0.0
1756,71.0,0,120,5.0,0.0
1757,78.0,0,120,10.0,0.0
1758,78.0,0,120,4.0,0.0
1759,75.0,0,120,11.0,0.0
1760,78.0,120,120,5.0,0.0
1761,64.0,15,210,14.0,0.0
1762,79.0,0,450,10.0,0.0
1763,64.0,0,210,13.0,0.0
1764,64.0,105,120,12.0,0.0
1765,79.0,0,450,5.0,0.0
1766,76.0,15,450,11.0,0.0
1767,79.0,0,450,4.0,0.0
1768,63.0,225,120,12.0,0.0
1769,59.0,0,240,13.0,0.0
1770,59.0,225,240,14.0,0.0
1771,64.0,0,210,12.0,0.0
1772,78.0,15,210,10.0,0.0
1773,66.0,0,210,12.0,0.0
1774,75.0,0,210,11.0,0.0
1775,78.0,0,210,5.0,0.0
1776,57.0,0,240,13.0,0.0
1777,57.0,120,240,14.0,0.0
1778,78.0,0,210,4.0,0.0
1779,64.0,105,120,5.0,0.0
1780,55.0,0,210,14.0,0.0
1781,76.0,0,210,11.0,0.0
1782,59.0,0,210,12.0,0.0
1783,55.0,15,210,13.0,0.0
1784,64.0,0,120,10.0,0.0
1785,64.0,0,120,4.0,0.0
1786,75.0,105,120,10.0,0.0
1787,75.0,0,120,5.0,0.0
1788,75.0,0,120,4.0,0.0
1789,76.0,15,450,4.0,0.0
1790,70.0,0,90,11.0,0.0
1791,49.0,0,90,13.0,0.0
1792,64.0,0,90,12.0,0.0
1793,49.0,120,90,14.0,0.0
1794,76.0,0,450,5.0,0.0
1795,76.0,0,450,10.0,0.0
1796,62.0,0,90,12.0,0.0
1797,47.0,0,90,13.0,0.0
1798,71.0,0,90,11.0,0.0
1799,47.0,240,90,14.0,0.0
1800,49.0,0,240,14.0,0.0
1801,70.0,0,210,11.0,0.0
1802,49.0,0,240,13.0,0.0
1803,64.0,105,240,12.0,0.0
1804,70.0,0,90,5.0,0.0
1805,70.0,0,90,4.0,0.0
1806,73.0,0,210,11.0,0.0
1807,70.0,120,90,10.0,0.0
1808,71.0,0,90,10.0,0.0
1809,71.0,0,90,4.0,0.0
1810,71.0,240,90,5.0,0.0
1811,73.0,0,210,5.0,0.0
1812,73.0,0,210,4.0,0.0
1813,73.0,0,210,10.0,0.0
1814,66.0,120,210,11.0,0.0
1815,76.0,0,210,5.0,0.0
1816,58.0,120,90,14.0,0.0
1817,61.0,0,90,12.0,0.0
1818,73.0,0,210,11.0,0.0
1819,76.0,0,210,4.0,0.0
1820,76.0,0,210,10.0,0.0
1821,58.0,0,90,13.0,0.0
1822,59.0,240,90,12.0,0.0
1823,56.0,0,90,13.0,0.0
1824,56.0,0,90,14.0,0.0
1825,79.0,0,240,5.0,0.0
1826,58.0,0,240,14.0,0.0
1827,76.0,15,210,11.0,0.0
1828,79.0,105,240,10.0,0.0
1829,58.0,0,240,13.0,0.0
1830,61.0,0,240,12.0,0.0
1831,79.0,0,240,4.0,0.0
1832,66.0,120,90,11.0,0.0
1833,78.0,0,210,5.0,0.0
1834,78.0,240,210,4.0,0.0
1835,78.0,0,210,10.0,0.0
1836,68.0,0,90,11.0,0.0
1837,70.0,0,210,11.0,0.0
1838,66.0,0,210,5.0,0.0
1839,66.0,0,210,4.0,0.0
1840,66.0,120,210,10.0,0.0
1841,54.0,120,90,14.0,0.0
1842,73.0,0,210,5.0,0.0
1843,73.0,240,210,4.0,0.0
1844,54.0,0,90,13.0,0.0
1845,70.0,0,90,12.0,0.0
1846,66.0,0,210,11.0,0.0
1847,73.0,0,210,10.0,0.0
1848,52.0,0,90,14.0,0.0
1849,68.0,0,90,12.0,0.0
1850,52.0,0,90,13.0,0.0
1851,73.0,15,210,11.0,0.0
1852,54.0,0,210,14.0,0.0
1853,76.0,0,240,4.0,0.0
1854,76.0,0,240,10.0,0.0
1855,70.0,0,210,12.0,0.0
1856,76.0,225,240,5.0,0.0
1857,54.0,0,210,13.0,0.0
1858,74.0,0,210,5.0,0.0
1859,71.0,0,210,11.0,0.0
1860,71.0,0,210,12.0,0.0
1861,74.0,0,210,4.0,0.0
1862,55.0,0,210,13.0,0.0
1863,74.0,120,210,10.0,0.0
1864,55.0,0,210,14.0,0.0
1865,83.0,0,210,4.0,0.0
1866,66.0,0,210,12.0,0.0
1867,50.0,0,90,13.0,0.0
1868,71.0,0,210,11.0,0.0
1869,50.0,120,90,14.0,0.0
1870,83.0,0,210,5.0,0.0
1871,83.0,0,210,10.0,0.0
1872,49.0,0,90,14.0,0.0
1873,49.0,120,90,13.0,0.0
1874,78.0,120,90,10.0,0.0
1875,50.0,0,90,14.0,0.0
1876,71.0,0,210,12.0,0.0
1877,74.0,0,90,11.0,0.0
1878,78.0,0,90,5.0,0.0
1879,78.0,0,90,4.0,0.0
1880,50.0,0,90,13.0,0.0
1881,76.0,0,90,4.0,0.0
1882,52.0,0,90,13.0,0.0
1883,73.0,0,90,11.0,0.0
1884,76.0,240,90,5.0,0.0
1885,52.0,0,90,14.0,0.0
1886,76.0,0,90,10.0,0.0
1887,74.0,0,210,5.0,0.0
1888,54.0,0,210,13.0,0.0
1889,74.0,0,210,10.0,0.0
1890,74.0,0,210,4.0,0.0
1891,54.0,0,210,14.0,0.0
1892,66.0,0,210,12.0,0.0
1893,71.0,240,210,11.0,0.0
1894,73.0,0,210,4.0,0.0
1895,64.0,0,210,12.0,0.0
1896,73.0,0,210,5.0,0.0
1897,42.0,0,210,14.0,0.0
1898,73.0,0,210,10.0,0.0
1899,70.0,0,210,11.0,0.0
1900,42.0,240,210,13.0,0.0
1901,71.0,15,690,4.0,0.0
1902,62.0,0,210,12.0,0.0
1903,47.0,120,210,14.0,0.0
1904,47.0,0,210,13.0,0.0
1905,71.0,0,690,5.0,0.0
1906,71.0,0,690,10.0,0.0
1907,66.0,0,690,11.0,0.0
1908,59.0,0,90,13.0,0.0
1909,62.0,0,90,12.0,0.0
1910,59.0,120,90,14.0,0.0
1911,61.0,0,90,12.0,0.0
1912,58.0,0,90,13.0,0.0
1913,58.0,240,90,14.0,0.0
1914,62.0,0,240,12.0,0.0
1915,59.0,0,240,13.0,0.0
1916,59.0,105,240,14.0,0.0
1917,62.0,0,90,11.0,0.0
1918,66.0,0,90,5.0,0.0
1919,66.0,0,90,4.0,0.0
1920,66.0,120,90,10.0,0.0
1921,64.0,0,90,11.0,0.0
1922,67.0,0,90,4.0,0.0
1923,67.0,240,90,10.0,0.0
1924,67.0,0,90,5.0,0.0
1925,69.0,0,210,5.0,0.0
1926,69.0,120,210,4.0,0.0
1927,66.0,0,210,11.0,0.0
1928,69.0,0,210,10.0,0.0
1929,62.0,0,210,11.0,0.0
1930,69.0,0,210,0.0,0.0
1931,54.0,15,90,13.0,0.0
1932,54.0,0,90,14.0,0.0
1933,74.0,0,210,4.0,0.0
1934,66.0,15,210,1.0,0.0
1935,74.0,0,210,5.0,0.0
1936,57.0,0,90,12.0,0.0
1937,50.0,105,120,3.0,0.0
1938,62.0,0,210,2.0,0.0
1939,74.0,0,210,10.0,0.0
1940,55.0,0,90,14.0,0.0
1941,50.0,240,120,3.0,0.0
1942,55.0,0,90,13.0,0.0
1943,59.0,0,90,12.0,0.0
1944,62.0,0,240,1.0,0.0
1945,66.0,0,240,4.0,0.0
1946,60.0,240,240,12.0,0.0
1947,57.0,0,240,14.0,0.0
1948,57.0,0,240,13.0,0.0
1949,66.0,0,240,10.0,0.0
1950,66.0,0,240,5.0,0.0
1951,74.0,0,240,0.0,0.0
1952,69.0,0,240,2.0,0.0
1953,50.0,0,240,3.0,0.0
1954,69.0,0,240,11.0,0.0
1955,71.0,225,240,11.0,0.0
1956,64.0,0,240,10.0,0.0
1957,64.0,0,240,5.0,0.0
1958,64.0,0,240,4.0,0.0
1959,72.0,0,210,11.0,0.0
1960,62.0,0,210,10.0,0.0
1961,62.0,0,210,4.0,0.0
1962,62.0,120,210,5.0,0.0
1963,81.0,15,210,10.0,0.0
1964,62.0,0,210,2.0,0.0
1965,66.0,0,210,1.0,0.0
1966,50.0,105,120,3.0,0.0
1967,62.0,0,210,11.0,0.0
1968,81.0,0,210,4.0,0.0
1969,69.0,0,210,0.0,0.0
1970,50.0,15,90,14.0,0.0
1971,81.0,0,210,5.0,0.0
1972,66.0,0,90,12.0,0.0
1973,50.0,0,90,13.0,0.0
1974,52.0,0,90,14.0,0.0
1975,67.0,0,90,12.0,0.0
1976,50.0,240,120,3.0,0.0
1977,52.0,0,90,13.0,0.0
1978,72.0,0,240,10.0,0.0
1979,54.0,0,240,14.0,0.0
1980,72.0,0,240,4.0,0.0
1981,54.0,240,240,13.0,0.0
1982,62.0,0,240,2.0,0.0
1983,74.0,0,240,0.0,0.0
1984,69.0,0,240,12.0,0.0
1985,50.0,0,240,3.0,0.0
1986,69.0,0,240,1.0,0.0
1987,69.0,0,240,11.0,0.0
1988,72.0,0,240,5.0,0.0
1989,71.0,0,240,4.0,0.0
1990,71.0,0,240,5.0,0.0
1991,67.0,225,240,11.0,0.0
1992,71.0,0,240,10.0,0.0
1993,66.0,0,210,11.0,0.0
1994,72.0,0,210,5.0,0.0
1995,72.0,0,210,4.0,0.0
1996,72.0,120,210,10.0,0.0
1997,57.0,0,90,14.0,0.0
1998,78.0,0,90,0.0,0.0
1999,78.0,0,90,4.0,0.0
2000,50.0,105,120,3.0,0.0
2001,78.0,0,90,10.0,0.0
2002,57.0,0,90,13.0,0.0
2003,78.0,0,90,5.0,0.0
2004,69.0,0,210,2.0,0.0
2005,69.0,0,210,12.0,0.0
2006,74.0,15,90,1.0,0.0
2007,72.0,0,90,11.0,0.0
2008,79.0,0,90,10.0,0.0
2009,55.0,0,90,13.0,0.0
2010,71.0,0,90,11.0,0.0
2011,79.0,0,90,4.0,0.0
2012,55.0,0,90,14.0,0.0
2013,76.0,0,90,1.0,0.0
2014,79.0,0,90,5.0,0.0
2015,79.0,15,90,0.0,0.0
2016,50.0,105,120,3.0,0.0
2017,78.0,120,90,1.0,0.0
2018,54.0,0,210,13.0,0.0
2019,81.0,0,210,10.0,0.0
2020,74.0,0,210,2.0,0.0
2021,62.0,0,210,12.0,0.0
2022,81.0,0,210,4.0,0.0
2023,81.0,15,210,5.0,0.0
2024,81.0,0,90,0.0,0.0
2025,54.0,0,210,14.0,0.0
2026,50.0,105,240,3.0,0.0
2027,69.0,0,210,11.0,0.0
2028,83.0,0,90,0.0,0.0
2029,79.0,0,90,1.0,0.0
2030,50.0,0,210,13.0,0.0
2031,72.0,0,210,4.0,0.0
2032,50.0,0,210,14.0,0.0
2033,72.0,15,210,10.0,0.0
2034,62.0,0,210,2.0,0.0
2035,50.0,105,240,3.0,0.0
2036,78.0,0,90,1.0,0.0
2037,62.0,0,210,12.0,0.0
2038,66.0,0,210,11.0,0.0
2039,72.0,0,210,5.0,0.0
2040,81.0,120,90,0.0,0.0
2041,83.0,0,90,0.0,0.0
2042,76.0,0,90,1.0,0.0
2043,71.0,0,120,10.0,0.0
2044,50.0,0,240,3.0,0.0
2045,62.0,105,240,2.0,0.0
2046,43.0,0,210,13.0,0.0
2047,79.0,15,90,0.0,0.0
2048,43.0,0,210,14.0,0.0
2049,71.0,0,120,5.0,0.0
2050,67.0,15,210,11.0,0.0
2051,71.0,105,120,4.0,0.0
2052,62.0,0,210,12.0,0.0
2053,74.0,0,240,1.0,0.0
2054,69.0,0,120,10.0,0.0
2055,69.0,0,120,5.0,0.0
2056,81.0,0,90,0.0,0.0
2057,69.0,0,120,4.0,0.0
2058,55.0,0,90,14.0,0.0
2059,62.0,0,210,11.0,0.0
2060,67.0,0,90,10.0,0.0
2061,67.0,0,90,5.0,0.0
2062,67.0,0,90,4.0,0.0
2063,83.0,120,90,0.0,0.0
2064,59.0,0,210,12.0,0.0
2065,55.0,0,90,13.0,0.0
2066,54.0,0,90,14.0,0.0
2067,69.0,0,90,4.0,0.0
2068,69.0,0,90,5.0,0.0
2069,54.0,0,90,13.0,0.0
2070,81.0,0,90,0.0,0.0
2071,69.0,120,90,10.0,0.0
2072,64.0,0,210,12.0,0.0
2073,55.0,0,210,13.0,0.0
2074,71.0,0,90,4.0,0.0
2075,67.0,0,210,11.0,0.0
2076,55.0,0,210,14.0,0.0
2077,71.0,120,90,10.0,0.0
2078,79.0,105,240,0.0,0.0
2079,71.0,0,90,5.0,0.0
2080,74.0,0,90,5.0,0.0
2081,74.0,15,90,4.0,0.0
2082,74.0,0,90,10.0,0.0
2083,45.0,0,210,13.0,0.0
2084,67.0,0,210,11.0,0.0
2085,73.0,120,90,4.0,0.0
2086,73.0,0,90,5.0,0.0
2087,73.0,0,90,10.0,0.0
2088,64.0,0,210,12.0,0.0
2089,45.0,0,210,14.0,0.0
2090,76.0,0,90,4.0,0.0
2091,76.0,0,90,5.0,0.0
2092,76.0,135,90,10.0,0.0
2093,47.0,15,210,13.0,0.0
2094,47.0,0,210,14.0,0.0
2095,74.0,0,120,10.0,0.0
2096,66.0,0,210,11.0,0.0
2097,62.0,0,210,12.0,0.0
2098,74.0,0,120,4.0,0.0
2099,74.0,105,120,5.0,0.0
2100,73.0,0,120,10.0,0.0
2101,73.0,105,120,4.0,0.0
2102,73.0,0,120,5.0,0.0
2103,62.0,0,210,11.0,0.0
2104,71.0,0,90,10.0,0.0
2105,71.0,0,90,4.0,0.0
2106,66.0,0,210,12.0,0.0
2107,59.0,0,90,14.0,0.0
2108,71.0,0,90,5.0,0.0
2109,59.0,120,90,13.0,0.0
2110,73.0,0,90,4.0,0.0
2111,57.0,0,90,14.0,0.0
2112,73.0,0,90,10.0,0.0
2113,57.0,120,90,13.0,0.0
2114,73.0,0,90,5.0,0.0
2115,74.0,0,90,10.0,0.0
2116,66.0,0,210,12.0,0.0
2117,74.0,0,210,11.0,0.0
2118,74.0,0,90,5.0,0.0
2119,59.0,0,210,14.0,0.0
2120,74.0,120,90,4.0,0.0
2121,59.0,0,210,13.0,0.0
2122,78.0,0,90,5.0,0.0
2123,78.0,0,90,10.0,0.0
2124,78.0,120,90,4.0,0.0
2125,76.0,0,90,10.0,0.0
2126,69.0,0,210,12.0,0.0
2127,49.0,0,210,13.0,0.0
2128,49.0,135,210,14.0,0.0
2129,76.0,120,90,5.0,0.0
2130,69.0,0,210,11.0,0.0
2131,76.0,0,90,4.0,0.0
2132,79.0,0,90,4.0,0.0
2133,79.0,0,90,10.0,0.0
2134,79.0,0,90,5.0,0.0
2135,50.0,15,210,13.0,0.0
2136,78.0,105,120,5.0,0.0
2137,78.0,0,120,4.0,0.0
2138,69.0,0,210,11.0,0.0
2139,78.0,0,120,10.0,0.0
2140,50.0,0,210,14.0,0.0
2141,62.0,0,210,12.0,0.0
2142,76.0,0,120,4.0,0.0
2143,76.0,105,120,10.0,0.0
2144,76.0,0,120,5.0,0.0
2145,74.0,0,90,5.0,0.0
2146,66.0,0,210,11.0,0.0
2147,62.0,0,90,14.0,0.0
2148,74.0,120,90,10.0,0.0
2149,62.0,0,90,13.0,0.0
2150,74.0,0,90,4.0,0.0
2151,57.0,120,210,12.0,0.0
2152,61.0,0,90,13.0,0.0
2153,61.0,0,90,14.0,0.0
2154,76.0,0,90,5.0,0.0
2155,76.0,0,90,4.0,0.0
2156,76.0,0,90,10.0,0.0
2157,78.0,0,90,10.0,0.0
2158,78.0,120,90,4.0,0.0
2159,62.0,0,210,14.0,0.0
2160,78.0,0,90,5.0,0.0
2161,62.0,0,210,12.0,0.0
2162,69.0,0,210,11.0,0.0
2163,62.0,0,210,13.0,0.0
2164,81.0,0,90,10.0,0.0
2165,81.0,0,90,4.0,0.0
2166,81.0,120,90,5.0,0.0
2167,73.0,0,210,11.0,0.0
2168,52.0,0,210,14.0,0.0
2169,67.0,0,210,12.0,0.0
2170,52.0,0,210,13.0,0.0
2171,79.0,120,90,10.0,0.0
2172,79.0,0,90,4.0,0.0
2173,79.0,0,90,5.0,0.0
2174,83.0,120,90,4.0,0.0
2175,83.0,0,90,10.0,0.0
2176,83.0,0,90,5.0,0.0
2177,54.0,0,210,13.0,0.0
2178,54.0,120,210,14.0,0.0
2179,66.0,0,210,12.0,0.0
2180,74.0,120,90,11.0,0.0
2181,81.0,0,210,5.0,0.0
2182,81.0,0,210,10.0,0.0
2183,81.0,0,210,4.0,0.0
2184,76.0,0,90,11.0,0.0
2185,74.0,15,90,11.0,0.0
2186,80.0,0,120,10.0,0.0
2187,80.0,0,120,5.0,0.0
2188,59.0,15,210,13.0,0.0
2189,80.0,105,120,4.0,0.0
2190,59.0,0,210,14.0,0.0
2191,62.0,0,210,12.0,0.0
2192,81.0,120,120,4.0,0.0
2193,81.0,0,120,5.0,0.0
2194,73.0,0,90,11.0,0.0
2195,81.0,0,120,10.0,0.0
2196,71.0,0,210,11.0,0.0
2197,83.0,0,210,4.0,0.0
2198,57.0,105,120,14.0,0.0
2199,62.0,0,210,12.0,0.0
2200,57.0,0,120,13.0,0.0
2201,83.0,135,210,10.0,0.0
2202,83.0,0,210,5.0,0.0
2203,56.0,0,90,14.0,0.0
2204,56.0,0,90,13.0,0.0
2205,74.0,0,210,4.0,0.0
2206,54.0,0,120,14.0,0.0
2207,74.0,120,210,5.0,0.0
2208,64.0,0,210,12.0,0.0
2209,68.0,0,210,11.0,0.0
2210,74.0,0,210,10.0,0.0
2211,54.0,105,120,13.0,0.0
2212,52.0,0,90,13.0,0.0
2213,52.0,0,90,14.0,0.0
2214,57.0,0,210,13.0,0.0
2215,64.0,0,210,12.0,0.0
2216,57.0,0,210,14.0,0.0
2217,69.0,0,210,11.0,0.0
2218,73.0,0,90,10.0,0.0
2219,73.0,0,90,5.0,0.0
2220,73.0,120,90,4.0,0.0
2221,74.0,120,90,10.0,0.0
2222,74.0,0,90,4.0,0.0
2223,74.0,0,90,5.0,0.0
2224,57.0,0,210,12.0,0.0
2225,64.0,0,210,11.0,0.0
2226,73.0,0,90,5.0,0.0
2227,73.0,0,90,4.0,0.0
2228,55.0,0,210,14.0,0.0
2229,73.0,120,90,10.0,0.0
2230,55.0,0,210,13.0,0.0
2231,71.0,0,90,5.0,0.0
2232,71.0,0,90,10.0,0.0
2233,71.0,120,90,4.0,0.0
2234,62.0,0,210,12.0,0.0
2235,54.0,0,210,13.0,0.0
2236,54.0,0,210,14.0,0.0
2237,69.0,0,90,5.0,0.0
2238,66.0,0,210,11.0,0.0
2239,69.0,120,90,10.0,0.0
2240,69.0,0,90,4.0,0.0
2241,71.0,0,90,5.0,0.0
2242,71.0,0,90,10.0,0.0
2243,71.0,120,90,4.0,0.0
2244,73.0,0,90,5.0,0.0
2245,67.0,0,210,11.0,0.0
2246,64.0,0,210,12.0,0.0
2247,52.0,0,210,14.0,0.0
2248,73.0,0,90,4.0,0.0
2249,52.0,0,210,13.0,0.0
2250,73.0,120,90,10.0,0.0
2251,69.0,0,90,4.0,0.0
2252,69.0,135,90,10.0,0.0
2253,69.0,0,90,5.0,0.0
2254,66.0,105,120,5.0,0.0
2255,66.0,0,120,10.0,0.0
2256,50.0,15,210,13.0,0.0
2257,69.0,0,120,11.0,0.0
2258,66.0,0,120,4.0,0.0
2259,66.0,0,210,12.0,0.0
2260,50.0,0,210,14.0,0.0
2261,73.0,0,120,4.0,0.0
2262,73.0,105,120,10.0,0.0
2263,73.0,0,120,5.0,0.0
2264,64.0,0,120,11.0,0.0
2265,74.0,0,450,5.0,0.0
2266,74.0,15,450,4.0,0.0
2267,59.0,0,90,13.0,0.0
2268,66.0,0,210,2.0,0.0
2269,59.0,0,90,14.0,0.0
2270,74.0,0,210,1.0,0.0
2271,74.0,0,450,10.0,0.0
2272,66.0,0,450,11.0,0.0
2273,62.0,15,90,12.0,0.0
2274,50.0,105,120,3.0,0.0
2275,78.0,15,210,0.0,0.0
2276,61.0,0,90,12.0,0.0
2277,57.0,0,90,13.0,0.0
2278,57.0,0,90,14.0,0.0
2279,50.0,225,120,3.0,0.0
2280,59.0,0,240,14.0,0.0
2281,62.0,0,240,2.0,0.0
2282,62.0,0,240,12.0,0.0
2283,50.0,0,240,3.0,0.0
2284,83.0,105,240,0.0,0.0
2285,78.0,0,240,1.0,0.0
2286,59.0,0,240,13.0,0.0
2287,78.0,135,210,4.0,0.0
2288,78.0,0,210,10.0,0.0
2289,78.0,0,210,5.0,0.0
2290,71.0,120,90,11.0,0.0
2291,69.0,0,90,11.0,0.0
2292,83.0,0,120,10.0,0.0
2293,83.0,120,120,5.0,0.0
2294,68.0,0,120,11.0,0.0
2295,83.0,0,120,4.0,0.0
2296,69.0,0,120,11.0,0.0
2297,73.0,0,120,10.0,0.0
2298,73.0,0,120,4.0,0.0
2299,73.0,105,120,5.0,0.0
2300,74.0,0,210,2.0,0.0
2301,50.0,105,120,3.0,0.0
2302,74.0,0,450,10.0,0.0
2303,76.0,0,210,1.0,0.0
2304,56.0,0,90,13.0,0.0
2305,56.0,15,90,14.0,0.0
2306,71.0,0,450,11.0,0.0
2307,83.0,15,210,0.0,0.0
2308,74.0,15,450,5.0,0.0
2309,64.0,0,90,12.0,0.0
2310,74.0,0,450,4.0,0.0
2311,54.0,0,90,14.0,0.0
2312,50.0,225,120,3.0,0.0
2313,54.0,0,90,13.0,0.0
2314,62.0,0,90,12.0,0.0
2315,83.0,0,240,1.0,0.0
2316,56.0,0,210,13.0,0.0
2317,56.0,0,210,14.0,0.0
2318,86.0,105,240,0.0,0.0
2319,50.0,0,240,3.0,0.0
2320,76.0,0,240,2.0,0.0
2321,64.0,0,210,12.0,0.0
2322,64.0,0,210,12.0,0.0
2323,73.0,0,90,5.0,0.0
2324,68.0,0,210,11.0,0.0
2325,73.0,0,90,10.0,0.0
2326,52.0,0,210,13.0,0.0
2327,73.0,120,90,4.0,0.0
2328,52.0,0,210,14.0,0.0
2329,71.0,0,90,10.0,0.0
2330,71.0,120,90,4.0,0.0
2331,71.0,0,90,5.0,0.0
2332,57.0,0,90,14.0,0.0
2333,73.0,0,90,4.0,0.0
2334,57.0,0,90,13.0,0.0
2335,73.0,120,90,5.0,0.0
2336,73.0,0,90,10.0,0.0
2337,69.0,120,210,11.0,0.0
2338,64.0,0,210,12.0,0.0
2339,55.0,0,90,14.0,0.0
2340,55.0,0,90,13.0,0.0
2341,69.0,0,90,10.0,0.0
2342,69.0,0,90,5.0,0.0
2343,69.0,0,90,4.0,0.0
2344,81.0,0,210,5.0,0.0
2345,81.0,0,210,4.0,0.0
2346,81.0,0,210,10.0,0.0
2347,78.0,15,90,1.0,0.0
2348,69.0,0,90,2.0,0.0
2349,69.0,15,210,11.0,0.0
2350,81.0,0,90,0.0,0.0
2351,62.0,0,90,12.0,0.0
2352,50.0,105,120,3.0,0.0
2353,54.0,0,90,14.0,0.0
2354,54.0,0,90,13.0,0.0
2355,55.0,0,90,14.0,0.0
2356,55.0,0,90,13.0,0.0
2357,79.0,0,90,0.0,0.0
2358,69.0,0,90,2.0,0.0
2359,76.0,0,90,1.0,0.0
2360,50.0,105,120,3.0,0.0
2361,64.0,0,90,12.0,0.0
2362,45.0,105,240,3.0,0.0
2363,74.0,0,210,10.0,0.0
2364,69.0,15,210,11.0,0.0
2365,57.0,0,210,14.0,0.0
2366,74.0,0,210,4.0,0.0
2367,66.0,0,210,12.0,0.0
2368,57.0,0,210,13.0,0.0
2369,74.0,0,210,1.0,0.0
2370,74.0,0,210,5.0,0.0
2371,78.0,120,90,0.0,0.0
2372,69.0,0,210,2.0,0.0
2373,79.0,0,90,0.0,0.0
2374,45.0,705,240,3.0,0.0
2375,64.0,0,210,12.0,0.0
2376,76.0,0,90,10.0,0.0
2377,45.0,0,210,14.0,0.0
2378,76.0,0,210,1.0,0.0
2379,76.0,120,90,4.0,0.0
2380,81.0,0,90,0.0,0.0
2381,69.0,0,210,11.0,0.0
2382,45.0,0,210,13.0,0.0
2383,76.0,0,90,5.0,0.0
2384,69.0,0,210,2.0,0.0
2385,79.0,0,90,0.0,0.0
2386,73.0,0,90,10.0,0.0
2387,73.0,15,90,4.0,0.0
2388,73.0,0,90,5.0,0.0
2389,50.0,0,720,3.0,0.0
2390,69.0,0,720,2.0,0.0
2391,74.0,0,720,4.0,0.0
2392,50.0,0,720,13.0,0.0
2393,66.0,15,690,12.0,0.0
2394,69.0,0,720,11.0,0.0
2395,50.0,0,720,14.0,0.0
2396,74.0,0,720,1.0,0.0
2397,74.0,0,720,5.0,0.0
2398,74.0,0,720,10.0,0.0
2399,78.0,481,720,0.0,0.0
