,note,step,duration,channel,velocity
0,50.0,15,14,3.0,0.0
1,62.0,0,293,4.0,0.0
2,62.0,0,293,5.0,0.0
3,78.0,0,119,1.0,0.0
4,74.0,0,119,2.0,0.0
5,50.0,15,959,13.0,0.0
6,50.0,0,959,14.0,0.0
7,62.0,6,293,10.0,0.0
8,81.0,0,119,0.0,0.0
9,50.0,15,14,3.0,0.0
10,50.0,15,14,3.0,0.0
11,50.0,15,14,3.0,0.0
12,50.0,15,14,3.0,0.0
13,50.0,15,14,3.0,0.0
14,50.0,15,14,3.0,0.0
15,50.0,15,14,3.0,0.0
16,50.0,15,14,3.0,0.0
17,50.0,15,14,3.0,0.0
18,50.0,15,14,3.0,0.0
19,50.0,15,14,3.0,0.0
20,50.0,15,14,3.0,0.0
21,69.0,6,53,11.0,0.0
22,50.0,15,14,3.0,0.0
23,50.0,9,14,3.0,0.0
24,50.0,15,14,3.0,0.0
25,50.0,15,14,3.0,0.0
26,69.0,0,173,11.0,0.0
27,50.0,15,14,3.0,0.0
28,50.0,9,14,3.0,0.0
29,50.0,15,14,3.0,0.0
30,66.0,0,53,4.0,0.0
31,50.0,15,14,3.0,0.0
32,66.0,6,53,5.0,0.0
33,66.0,0,53,10.0,0.0
34,50.0,15,14,3.0,0.0
35,50.0,9,14,3.0,0.0
36,50.0,15,14,3.0,0.0
37,64.0,6,53,4.0,0.0
38,64.0,0,53,5.0,0.0
39,64.0,0,53,10.0,0.0
40,50.0,15,14,3.0,0.0
41,50.0,15,14,3.0,0.0
42,50.0,9,14,3.0,0.0
43,50.0,15,14,3.0,0.0
44,62.0,0,53,4.0,0.0
45,62.0,6,53,5.0,0.0
46,66.0,0,53,11.0,0.0
47,50.0,15,14,3.0,0.0
48,62.0,0,53,10.0,0.0
49,69.0,0,53,12.0,0.0
50,50.0,15,14,3.0,0.0
51,50.0,9,14,3.0,0.0
52,50.0,15,14,3.0,0.0
53,50.0,15,14,3.0,0.0
54,74.0,0,119,2.0,0.0
55,81.0,0,119,0.0,0.0
56,69.0,6,173,12.0,0.0
57,71.0,0,293,10.0,0.0
58,71.0,0,293,4.0,0.0
59,71.0,6,293,5.0,0.0
60,78.0,15,119,1.0,0.0
61,66.0,0,173,11.0,0.0
62,50.0,15,14,3.0,0.0
63,50.0,15,14,3.0,0.0
64,50.0,15,14,3.0,0.0
65,50.0,15,14,3.0,0.0
66,50.0,15,14,3.0,0.0
67,50.0,15,14,3.0,0.0
68,50.0,0,14,3.0,0.0
69,50.0,15,14,3.0,0.0
70,50.0,15,14,3.0,0.0
71,50.0,9,14,3.0,0.0
72,50.0,15,14,3.0,0.0
73,50.0,15,14,3.0,0.0
74,62.0,6,53,11.0,0.0
75,66.0,0,53,12.0,0.0
76,50.0,15,14,3.0,0.0
77,50.0,9,14,3.0,0.0
78,50.0,15,14,3.0,0.0
79,62.0,0,173,11.0,0.0
80,66.0,0,173,12.0,0.0
81,50.0,15,14,3.0,0.0
82,50.0,15,14,3.0,0.0
83,50.0,9,14,3.0,0.0
84,50.0,15,14,3.0,0.0
85,74.0,0,53,10.0,0.0
86,74.0,6,53,5.0,0.0
87,50.0,15,14,3.0,0.0
88,74.0,0,53,4.0,0.0
89,50.0,15,14,3.0,0.0
90,50.0,9,14,3.0,0.0
91,50.0,15,14,3.0,0.0
92,50.0,15,14,3.0,0.0
93,73.0,0,53,4.0,0.0
94,73.0,0,53,5.0,0.0
95,73.0,6,53,10.0,0.0
96,50.0,15,14,3.0,0.0
97,50.0,9,14,3.0,0.0
98,50.0,15,14,3.0,0.0
99,62.0,6,53,12.0,0.0
100,71.0,0,53,4.0,0.0
101,71.0,0,53,11.0,0.0
102,71.0,0,53,5.0,0.0
103,71.0,0,53,10.0,0.0
104,50.0,15,14,3.0,0.0
105,50.0,15,14,3.0,0.0
106,50.0,9,14,3.0,0.0
107,50.0,0,14,3.0,0.0
108,79.0,6,293,4.0,0.0
109,50.0,0,959,13.0,0.0
110,83.0,0,119,0.0,0.0
111,50.0,15,14,3.0,0.0
112,79.0,0,293,10.0,0.0
113,62.0,6,173,12.0,0.0
114,50.0,0,959,14.0,0.0
115,79.0,15,119,1.0,0.0
116,74.0,0,119,2.0,0.0
117,79.0,0,293,5.0,0.0
118,71.0,0,173,11.0,0.0
119,50.0,15,14,3.0,0.0
120,50.0,15,14,3.0,0.0
121,50.0,15,14,3.0,0.0
122,50.0,15,14,3.0,0.0
123,50.0,15,14,3.0,0.0
124,50.0,15,14,3.0,0.0
125,50.0,0,14,3.0,0.0
126,50.0,15,14,3.0,0.0
127,50.0,15,14,3.0,0.0
128,50.0,9,14,3.0,0.0
129,50.0,15,14,3.0,0.0
130,71.0,0,53,12.0,0.0
131,67.0,6,53,11.0,0.0
132,50.0,15,14,3.0,0.0
133,50.0,15,14,3.0,0.0
134,50.0,9,14,3.0,0.0
135,50.0,15,14,3.0,0.0
136,71.0,6,173,12.0,0.0
137,67.0,0,173,11.0,0.0
138,50.0,15,14,3.0,0.0
139,50.0,15,14,3.0,0.0
140,50.0,9,14,3.0,0.0
141,50.0,15,14,3.0,0.0
142,76.0,0,53,5.0,0.0
143,76.0,0,53,10.0,0.0
144,76.0,6,53,4.0,0.0
145,50.0,15,14,3.0,0.0
146,50.0,15,14,3.0,0.0
147,50.0,9,14,3.0,0.0
148,50.0,15,14,3.0,0.0
149,50.0,15,14,3.0,0.0
150,78.0,0,53,10.0,0.0
151,78.0,0,53,5.0,0.0
152,78.0,0,53,4.0,0.0
153,50.0,15,14,3.0,0.0
154,50.0,9,14,3.0,0.0
155,50.0,15,14,3.0,0.0
156,64.0,0,53,11.0,0.0
157,67.0,0,53,12.0,0.0
158,50.0,15,14,3.0,0.0
159,79.0,6,53,5.0,0.0
160,79.0,0,53,10.0,0.0
161,79.0,0,53,4.0,0.0
162,50.0,15,14,3.0,0.0
163,50.0,9,14,3.0,0.0
164,50.0,15,14,3.0,0.0
165,73.0,6,293,4.0,0.0
166,73.0,0,293,10.0,0.0
167,50.0,15,14,3.0,0.0
168,76.0,0,119,1.0,0.0
169,79.0,15,119,0.0,0.0
170,73.0,0,293,5.0,0.0
171,69.0,0,119,2.0,0.0
172,64.0,6,173,11.0,0.0
173,67.0,0,173,12.0,0.0
174,50.0,15,14,3.0,0.0
175,50.0,15,14,3.0,0.0
176,50.0,15,14,3.0,0.0
177,50.0,15,14,3.0,0.0
178,50.0,15,14,3.0,0.0
179,50.0,15,14,3.0,0.0
180,50.0,0,14,3.0,0.0
181,50.0,15,14,3.0,0.0
182,50.0,15,14,3.0,0.0
183,50.0,9,14,3.0,0.0
184,50.0,15,14,3.0,0.0
185,50.0,15,14,3.0,0.0
186,76.0,6,53,11.0,0.0
187,67.0,0,53,12.0,0.0
188,50.0,15,14,3.0,0.0
189,50.0,9,14,3.0,0.0
190,50.0,15,14,3.0,0.0
191,67.0,0,173,12.0,0.0
192,76.0,6,173,11.0,0.0
193,50.0,15,14,3.0,0.0
194,50.0,15,14,3.0,0.0
195,50.0,9,14,3.0,0.0
196,50.0,15,14,3.0,0.0
197,69.0,0,53,5.0,0.0
198,69.0,0,53,4.0,0.0
199,50.0,15,14,3.0,0.0
200,69.0,6,53,10.0,0.0
201,50.0,15,14,3.0,0.0
202,50.0,9,14,3.0,0.0
203,50.0,15,14,3.0,0.0
204,71.0,0,53,10.0,0.0
205,71.0,0,53,4.0,0.0
206,71.0,0,53,5.0,0.0
207,50.0,15,14,3.0,0.0
208,50.0,15,14,3.0,0.0
209,50.0,9,14,3.0,0.0
210,50.0,15,14,3.0,0.0
211,73.0,0,53,10.0,0.0
212,73.0,0,53,4.0,0.0
213,64.0,6,53,12.0,0.0
214,73.0,0,53,5.0,0.0
215,50.0,15,14,3.0,0.0
216,73.0,0,53,11.0,0.0
217,50.0,15,14,3.0,0.0
218,50.0,9,14,3.0,0.0
219,50.0,174,14,3.0,0.0
220,64.0,0,347,5.0,0.0
221,50.0,54,179,3.0,0.0
222,50.0,48,299,14.0,0.0
223,50.0,6,293,13.0,0.0
224,67.0,0,173,12.0,0.0
225,73.0,6,173,11.0,0.0
226,64.0,6,347,4.0,0.0
227,64.0,0,347,10.0,0.0
228,67.0,0,53,11.0,0.0
229,79.0,0,53,0.0,0.0
230,69.0,0,53,2.0,0.0
231,61.0,6,53,12.0,0.0
232,76.0,0,53,1.0,0.0
233,50.0,54,59,3.0,0.0
234,76.0,0,173,1.0,0.0
235,79.0,0,173,0.0,0.0
236,69.0,0,173,2.0,0.0
237,50.0,0,59,3.0,0.0
238,61.0,6,173,12.0,0.0
239,67.0,0,173,11.0,0.0
240,54.0,6,53,13.0,0.0
241,54.0,0,59,14.0,0.0
242,50.0,54,59,3.0,0.0
243,52.0,48,59,14.0,0.0
244,64.0,6,107,4.0,0.0
245,64.0,0,107,10.0,0.0
246,52.0,0,53,13.0,0.0
247,64.0,0,107,5.0,0.0
248,50.0,0,59,3.0,0.0
249,69.0,0,53,2.0,0.0
250,50.0,0,53,13.0,0.0
251,81.0,0,53,1.0,0.0
252,76.0,0,53,0.0,0.0
253,79.0,6,53,11.0,0.0
254,64.0,0,53,12.0,0.0
255,50.0,0,59,3.0,0.0
256,50.0,174,59,14.0,0.0
257,81.0,0,173,1.0,0.0
258,76.0,0,173,4.0,0.0
259,69.0,0,173,2.0,0.0
260,49.0,54,179,14.0,0.0
261,76.0,6,173,0.0,0.0
262,57.0,0,173,12.0,0.0
263,79.0,0,173,11.0,0.0
264,49.0,0,173,13.0,0.0
265,76.0,0,173,10.0,0.0
266,76.0,0,173,5.0,0.0
267,45.0,0,179,3.0,0.0
268,73.0,0,53,4.0,0.0
269,69.0,0,53,12.0,0.0
270,76.0,0,53,11.0,0.0
271,69.0,0,53,2.0,0.0
272,52.0,6,53,13.0,0.0
273,73.0,0,53,5.0,0.0
274,45.0,174,59,3.0,0.0
275,73.0,0,53,10.0,0.0
276,81.0,0,53,0.0,0.0
277,52.0,0,59,14.0,0.0
278,76.0,0,53,1.0,0.0
279,76.0,0,173,1.0,0.0
280,69.0,0,173,2.0,0.0
281,49.0,0,173,13.0,0.0
282,69.0,6,173,12.0,0.0
283,81.0,0,173,0.0,0.0
284,49.0,54,179,14.0,0.0
285,45.0,0,179,3.0,0.0
286,69.0,0,173,10.0,0.0
287,69.0,0,173,5.0,0.0
288,76.0,0,173,11.0,0.0
289,69.0,0,173,4.0,0.0
290,67.0,0,53,10.0,0.0
291,76.0,0,53,1.0,0.0
292,45.0,15,59,3.0,0.0
293,73.0,0,53,11.0,0.0
294,45.0,0,59,14.0,0.0
295,69.0,0,53,2.0,0.0
296,45.0,0,53,13.0,0.0
297,76.0,0,53,0.0,0.0
298,67.0,0,53,5.0,0.0
299,69.0,0,53,12.0,0.0
300,67.0,6,53,4.0,0.0
301,74.0,6,653,11.0,0.0
302,66.0,0,173,4.0,0.0
303,66.0,0,173,10.0,0.0
304,50.0,0,539,14.0,0.0
305,69.0,0,653,12.0,0.0
306,50.0,6,533,13.0,0.0
307,50.0,15,14,3.0,0.0
308,66.0,6,173,5.0,0.0
309,74.0,0,173,1.0,0.0
310,78.0,0,173,0.0,0.0
311,69.0,0,173,2.0,0.0
312,50.0,15,14,3.0,0.0
313,50.0,15,14,3.0,0.0
314,50.0,15,14,3.0,0.0
315,50.0,15,14,3.0,0.0
316,50.0,15,14,3.0,0.0
317,50.0,15,14,3.0,0.0
318,50.0,15,14,3.0,0.0
319,50.0,15,14,3.0,0.0
320,50.0,15,14,3.0,0.0
321,50.0,9,14,3.0,0.0
322,50.0,15,14,3.0,0.0
323,74.0,0,53,2.0,0.0
324,62.0,0,53,4.0,0.0
325,62.0,0,53,10.0,0.0
326,81.0,6,53,0.0,0.0
327,78.0,0,53,1.0,0.0
328,62.0,0,53,5.0,0.0
329,50.0,15,14,3.0,0.0
330,50.0,15,14,3.0,0.0
331,50.0,9,14,3.0,0.0
332,50.0,15,14,3.0,0.0
333,74.0,0,173,2.0,0.0
334,66.0,6,173,5.0,0.0
335,78.0,0,173,1.0,0.0
336,50.0,15,14,3.0,0.0
337,81.0,0,173,0.0,0.0
338,66.0,0,173,4.0,0.0
339,66.0,0,173,10.0,0.0
340,50.0,15,14,3.0,0.0
341,50.0,15,14,3.0,0.0
342,50.0,15,14,3.0,0.0
343,50.0,15,14,3.0,0.0
344,50.0,15,14,3.0,0.0
345,50.0,15,14,3.0,0.0
346,50.0,15,14,3.0,0.0
347,50.0,15,14,3.0,0.0
348,50.0,15,14,3.0,0.0
349,50.0,9,14,3.0,0.0
350,50.0,15,14,3.0,0.0
351,69.0,0,53,2.0,0.0
352,78.0,6,53,0.0,0.0
353,69.0,0,53,4.0,0.0
354,74.0,0,53,1.0,0.0
355,69.0,0,53,5.0,0.0
356,69.0,0,53,10.0,0.0
357,50.0,15,14,3.0,0.0
358,50.0,15,14,3.0,0.0
359,50.0,9,14,3.0,0.0
360,50.0,15,14,3.0,0.0
361,74.0,0,173,4.0,0.0
362,78.0,0,173,0.0,0.0
363,69.0,0,173,2.0,0.0
364,50.0,15,14,3.0,0.0
365,74.0,0,173,10.0,0.0
366,74.0,0,173,1.0,0.0
367,74.0,0,173,5.0,0.0
368,50.0,15,14,3.0,0.0
369,50.0,9,14,3.0,0.0
370,50.0,15,14,3.0,0.0
371,50.0,15,59,14.0,0.0
372,50.0,15,14,3.0,0.0
373,50.0,6,53,13.0,0.0
374,50.0,15,14,3.0,0.0
375,50.0,9,14,3.0,0.0
376,50.0,0,14,3.0,0.0
377,50.0,15,14,3.0,0.0
378,49.0,15,59,14.0,0.0
379,49.0,0,53,13.0,0.0
380,50.0,15,14,3.0,0.0
381,50.0,9,14,3.0,0.0
382,50.0,0,14,3.0,0.0
383,66.0,0,53,2.0,0.0
384,50.0,15,14,3.0,0.0
385,74.0,0,53,0.0,0.0
386,47.0,0,53,13.0,0.0
387,69.0,0,53,10.0,0.0
388,69.0,0,53,5.0,0.0
389,62.0,0,53,12.0,0.0
390,69.0,0,53,4.0,0.0
391,47.0,0,59,14.0,0.0
392,66.0,6,53,11.0,0.0
393,69.0,0,53,1.0,0.0
394,50.0,15,14,3.0,0.0
395,50.0,9,14,3.0,0.0
396,50.0,15,14,3.0,0.0
397,66.0,0,173,2.0,0.0
398,45.0,15,59,14.0,0.0
399,74.0,0,173,4.0,0.0
400,69.0,0,173,11.0,0.0
401,69.0,0,173,1.0,0.0
402,74.0,0,173,10.0,0.0
403,66.0,6,173,12.0,0.0
404,74.0,0,173,0.0,0.0
405,50.0,15,14,3.0,0.0
406,45.0,6,53,13.0,0.0
407,74.0,0,173,5.0,0.0
408,50.0,15,14,3.0,0.0
409,50.0,9,14,3.0,0.0
410,50.0,0,14,3.0,0.0
411,50.0,15,14,3.0,0.0
412,43.0,6,53,13.0,0.0
413,43.0,15,59,14.0,0.0
414,50.0,15,14,3.0,0.0
415,50.0,9,14,3.0,0.0
416,50.0,0,14,3.0,0.0
417,50.0,15,14,3.0,0.0
418,42.0,15,59,14.0,0.0
419,42.0,0,53,13.0,0.0
420,50.0,15,14,3.0,0.0
421,50.0,9,14,3.0,0.0
422,50.0,0,14,3.0,0.0
423,40.0,174,59,14.0,0.0
424,40.0,0,53,13.0,0.0
425,67.0,6,53,12.0,0.0
426,66.0,0,53,1.0,0.0
427,62.0,0,53,2.0,0.0
428,76.0,0,53,10.0,0.0
429,69.0,0,53,0.0,0.0
430,76.0,0,53,5.0,0.0
431,76.0,0,53,4.0,0.0
432,73.0,0,53,11.0,0.0
433,50.0,15,14,3.0,0.0
434,50.0,15,14,3.0,0.0
435,50.0,9,14,3.0,0.0
436,50.0,0,14,3.0,0.0
437,50.0,20,179,3.0,0.0
438,78.0,60,293,10.0,0.0
439,38.0,120,479,14.0,0.0
440,78.0,0,293,5.0,0.0
441,66.0,0,173,1.0,0.0
442,74.0,0,173,11.0,0.0
443,78.0,0,293,4.0,0.0
444,62.0,0,173,2.0,0.0
445,38.0,6,467,13.0,0.0
446,69.0,6,173,12.0,0.0
447,69.0,0,173,0.0,0.0
448,69.0,0,53,1.0,0.0
449,69.0,6,53,0.0,0.0
450,69.0,0,53,2.0,0.0
451,78.0,0,53,11.0,0.0
452,74.0,0,53,12.0,0.0
453,50.0,20,19,3.0,0.0
454,50.0,14,19,3.0,0.0
455,50.0,54,19,3.0,0.0
456,50.0,48,179,3.0,0.0
457,78.0,0,173,11.0,0.0
458,69.0,6,173,2.0,0.0
459,69.0,0,173,0.0,0.0
460,69.0,0,173,1.0,0.0
461,74.0,0,173,12.0,0.0
462,79.0,60,53,4.0,0.0
463,79.0,0,53,10.0,0.0
464,79.0,0,53,5.0,0.0
465,81.0,0,53,4.0,0.0
466,81.0,0,53,5.0,0.0
467,81.0,0,53,10.0,0.0
468,66.0,0,53,2.0,0.0
469,78.0,0,53,10.0,0.0
470,69.0,0,53,12.0,0.0
471,66.0,0,53,0.0,0.0
472,66.0,6,53,1.0,0.0
473,78.0,0,53,4.0,0.0
474,74.0,0,53,11.0,0.0
475,78.0,0,53,5.0,0.0
476,50.0,0,59,3.0,0.0
477,50.0,0,653,13.0,0.0
478,50.0,54,659,14.0,0.0
479,74.0,0,173,11.0,0.0
480,83.0,0,293,4.0,0.0
481,62.0,54,119,2.0,0.0
482,62.0,0,119,0.0,0.0
483,62.0,0,119,1.0,0.0
484,83.0,0,293,5.0,0.0
485,83.0,60,293,10.0,0.0
486,66.0,60,173,12.0,0.0
487,50.0,0,119,3.0,0.0
488,71.0,0,53,11.0,0.0
489,62.0,60,53,12.0,0.0
490,71.0,0,173,11.0,0.0
491,62.0,0,173,12.0,0.0
492,80.0,60,53,5.0,0.0
493,80.0,0,53,10.0,0.0
494,80.0,0,53,4.0,0.0
495,81.0,60,53,5.0,0.0
496,81.0,0,53,4.0,0.0
497,81.0,0,53,10.0,0.0
498,83.0,180,53,10.0,0.0
499,83.0,0,53,5.0,0.0
500,83.0,0,53,4.0,0.0
501,59.0,0,53,12.0,0.0
502,68.0,0,53,11.0,0.0
503,76.0,0,293,4.0,0.0
504,76.0,0,293,5.0,0.0
505,68.0,6,173,11.0,0.0
506,59.0,0,173,12.0,0.0
507,76.0,60,293,10.0,0.0
508,71.0,0,53,11.0,0.0
509,56.0,6,53,12.0,0.0
510,50.0,0,53,13.0,0.0
511,50.0,54,59,14.0,0.0
512,49.0,54,179,14.0,0.0
513,56.0,0,173,12.0,0.0
514,71.0,0,173,11.0,0.0
515,49.0,6,173,13.0,0.0
516,76.0,60,53,5.0,0.0
517,76.0,0,53,10.0,0.0
518,76.0,0,53,4.0,0.0
519,78.0,0,53,5.0,0.0
520,78.0,0,53,4.0,0.0
521,78.0,0,53,10.0,0.0
522,59.0,0,53,12.0,0.0
523,80.0,0,53,10.0,0.0
524,47.0,174,59,14.0,0.0
525,68.0,6,53,11.0,0.0
526,80.0,0,53,5.0,0.0
527,47.0,0,53,13.0,0.0
528,80.0,0,53,4.0,0.0
529,81.0,54,173,4.0,0.0
530,64.0,0,227,11.0,0.0
531,81.0,0,173,5.0,0.0
532,49.0,174,239,14.0,0.0
533,81.0,0,173,10.0,0.0
534,64.0,0,227,12.0,0.0
535,49.0,6,227,13.0,0.0
536,76.0,0,53,4.0,0.0
537,76.0,0,53,5.0,0.0
538,76.0,6,53,10.0,0.0
539,69.0,6,413,11.0,0.0
540,54.0,6,227,13.0,0.0
541,73.0,54,173,5.0,0.0
542,73.0,0,173,10.0,0.0
543,54.0,54,239,14.0,0.0
544,66.0,0,227,12.0,0.0
545,73.0,0,173,4.0,0.0
546,69.0,0,53,4.0,0.0
547,69.0,6,53,10.0,0.0
548,69.0,0,53,5.0,0.0
549,47.0,54,59,14.0,0.0
550,66.0,0,173,12.0,0.0
551,74.0,6,347,4.0,0.0
552,47.0,6,53,13.0,0.0
553,74.0,0,347,10.0,0.0
554,74.0,0,347,5.0,0.0
555,49.0,6,53,13.0,0.0
556,49.0,54,59,14.0,0.0
557,50.0,0,53,13.0,0.0
558,50.0,54,59,14.0,0.0
559,52.0,54,59,14.0,0.0
560,68.0,0,53,11.0,0.0
561,64.0,0,53,12.0,0.0
562,52.0,6,53,13.0,0.0
563,62.0,0,173,12.0,0.0
564,54.0,6,53,13.0,0.0
565,69.0,0,173,11.0,0.0
566,54.0,48,59,14.0,0.0
567,56.0,6,53,13.0,0.0
568,56.0,54,59,14.0,0.0
569,57.0,48,59,14.0,0.0
570,57.0,6,53,13.0,0.0
571,74.0,0,107,4.0,0.0
572,74.0,6,107,10.0,0.0
573,74.0,0,107,5.0,0.0
574,71.0,6,53,11.0,0.0
575,54.0,0,53,13.0,0.0
576,54.0,174,59,14.0,0.0
577,61.0,0,53,12.0,0.0
578,74.0,0,173,10.0,0.0
579,59.0,0,227,12.0,0.0
580,56.0,12,347,13.0,0.0
581,64.0,8,227,11.0,0.0
582,56.0,54,359,14.0,0.0
583,74.0,0,173,5.0,0.0
584,74.0,32,173,4.0,0.0
585,76.0,0,25,10.0,0.0
586,76.0,0,25,5.0,0.0
587,76.0,22,25,4.0,0.0
588,78.0,0,25,4.0,0.0
589,78.0,0,25,5.0,0.0
590,78.0,112,25,10.0,0.0
591,76.0,0,173,10.0,0.0
592,71.0,6,227,11.0,0.0
593,64.0,0,227,12.0,0.0
594,76.0,0,173,4.0,0.0
595,76.0,6,173,5.0,0.0
596,54.0,0,53,13.0,0.0
597,54.0,48,59,14.0,0.0
598,74.0,0,53,4.0,0.0
599,74.0,6,53,5.0,0.0
600,56.0,0,53,13.0,0.0
601,74.0,0,53,10.0,0.0
602,56.0,174,59,14.0,0.0
603,73.0,0,173,4.0,0.0
604,73.0,0,173,5.0,0.0
605,69.0,0,173,11.0,0.0
606,57.0,6,1013,13.0,0.0
607,73.0,0,173,10.0,0.0
608,64.0,60,173,12.0,0.0
609,57.0,54,1019,14.0,0.0
610,69.0,0,53,5.0,0.0
611,69.0,0,53,10.0,0.0
612,64.0,0,53,11.0,0.0
613,69.0,0,53,4.0,0.0
614,61.0,180,53,12.0,0.0
615,73.0,0,173,4.0,0.0
616,69.0,0,173,11.0,0.0
617,73.0,0,173,10.0,0.0
618,73.0,0,173,5.0,0.0
619,64.0,60,173,12.0,0.0
620,76.0,0,53,10.0,0.0
621,76.0,180,53,5.0,0.0
622,76.0,0,53,4.0,0.0
623,71.0,0,53,11.0,0.0
624,67.0,0,53,12.0,0.0
625,81.0,0,173,4.0,0.0
626,81.0,0,173,10.0,0.0
627,81.0,32,173,5.0,0.0
628,72.0,66,347,11.0,0.0
629,66.0,0,173,12.0,0.0
630,79.0,0,25,10.0,0.0
631,63.0,2,53,12.0,0.0
632,79.0,0,25,4.0,0.0
633,79.0,28,25,5.0,0.0
634,78.0,0,25,4.0,0.0
635,78.0,0,25,10.0,0.0
636,78.0,112,25,5.0,0.0
637,79.0,54,173,10.0,0.0
638,79.0,0,173,5.0,0.0
639,64.0,0,173,12.0,0.0
640,79.0,0,173,4.0,0.0
641,72.0,6,107,11.0,0.0
642,76.0,60,53,5.0,0.0
643,76.0,0,53,10.0,0.0
644,76.0,0,53,4.0,0.0
645,67.0,0,53,12.0,0.0
646,83.0,6,347,4.0,0.0
647,83.0,0,347,5.0,0.0
648,66.0,6,227,12.0,0.0
649,83.0,0,347,10.0,0.0
650,63.0,0,227,11.0,0.0
651,55.0,6,53,13.0,0.0
652,55.0,54,59,14.0,0.0
653,54.0,6,53,13.0,0.0
654,54.0,48,59,14.0,0.0
655,52.0,6,53,13.0,0.0
656,52.0,54,59,14.0,0.0
657,51.0,48,59,14.0,0.0
658,51.0,6,53,13.0,0.0
659,66.0,0,227,11.0,0.0
660,71.0,0,413,12.0,0.0
661,49.0,54,59,14.0,0.0
662,49.0,6,53,13.0,0.0
663,75.0,6,107,10.0,0.0
664,47.0,48,59,14.0,0.0
665,75.0,0,107,5.0,0.0
666,75.0,0,107,4.0,0.0
667,47.0,6,53,13.0,0.0
668,45.0,174,59,14.0,0.0
669,45.0,6,53,13.0,0.0
670,76.0,6,173,4.0,0.0
671,43.0,54,179,14.0,0.0
672,71.0,0,173,11.0,0.0
673,76.0,0,173,10.0,0.0
674,43.0,0,173,13.0,0.0
675,76.0,0,173,5.0,0.0
676,43.0,0,53,13.0,0.0
677,64.0,6,53,12.0,0.0
678,71.0,0,53,11.0,0.0
679,78.0,0,53,5.0,0.0
680,43.0,15,59,14.0,0.0
681,78.0,0,53,10.0,0.0
682,78.0,0,53,4.0,0.0
683,72.0,0,173,11.0,0.0
684,78.0,0,14,10.0,0.0
685,64.0,0,173,12.0,0.0
686,78.0,15,14,5.0,0.0
687,45.0,6,173,13.0,0.0
688,45.0,26,179,14.0,0.0
689,78.0,0,14,4.0,0.0
690,79.0,0,14,5.0,0.0
691,79.0,0,14,4.0,0.0
692,79.0,15,14,10.0,0.0
693,78.0,0,14,5.0,0.0
694,78.0,0,14,4.0,0.0
695,78.0,15,14,10.0,0.0
696,79.0,15,14,5.0,0.0
697,79.0,0,14,4.0,0.0
698,79.0,0,14,10.0,0.0
699,78.0,0,14,10.0,0.0
700,78.0,15,14,4.0,0.0
701,78.0,0,14,5.0,0.0
702,79.0,0,14,4.0,0.0
703,79.0,0,14,5.0,0.0
704,79.0,15,14,10.0,0.0
705,78.0,15,14,4.0,0.0
706,78.0,0,14,10.0,0.0
707,78.0,0,14,5.0,0.0
708,79.0,0,14,4.0,0.0
709,79.0,0,14,5.0,0.0
710,79.0,15,14,10.0,0.0
711,78.0,0,14,5.0,0.0
712,78.0,15,14,4.0,0.0
713,78.0,0,14,10.0,0.0
714,79.0,0,14,5.0,0.0
715,79.0,0,14,10.0,0.0
716,79.0,15,14,4.0,0.0
717,78.0,9,14,5.0,0.0
718,78.0,0,14,10.0,0.0
719,78.0,0,14,4.0,0.0
720,79.0,0,14,10.0,0.0
721,79.0,0,14,4.0,0.0
722,79.0,0,14,5.0,0.0
723,47.0,2,53,13.0,0.0
724,47.0,174,59,14.0,0.0
725,71.0,0,53,11.0,0.0
726,76.0,0,25,10.0,0.0
727,76.0,28,25,4.0,0.0
728,76.0,0,25,5.0,0.0
729,63.0,0,53,12.0,0.0
730,78.0,0,25,5.0,0.0
731,78.0,0,25,10.0,0.0
732,78.0,4,25,4.0,0.0
733,40.0,174,479,14.0,0.0
734,40.0,6,467,13.0,0.0
735,79.0,0,293,10.0,0.0
736,79.0,0,293,5.0,0.0
737,79.0,60,293,4.0,0.0
738,64.0,0,173,12.0,0.0
739,71.0,60,173,11.0,0.0
740,76.0,60,53,11.0,0.0
741,71.0,0,53,12.0,0.0
742,71.0,0,173,12.0,0.0
743,76.0,0,173,11.0,0.0
744,78.0,0,53,4.0,0.0
745,78.0,0,53,10.0,0.0
746,78.0,60,53,5.0,0.0
747,76.0,0,53,5.0,0.0
748,76.0,0,53,10.0,0.0
749,76.0,54,53,4.0,0.0
750,74.0,0,53,10.0,0.0
751,74.0,6,53,4.0,0.0
752,74.0,0,53,5.0,0.0
753,71.0,0,53,11.0,0.0
754,67.0,0,53,12.0,0.0
755,64.0,66,347,12.0,0.0
756,72.0,0,173,4.0,0.0
757,67.0,0,347,11.0,0.0
758,52.0,54,659,14.0,0.0
759,52.0,6,653,13.0,0.0
760,72.0,0,173,5.0,0.0
761,72.0,60,173,10.0,0.0
762,72.0,0,53,4.0,0.0
763,72.0,0,53,10.0,0.0
764,72.0,114,53,5.0,0.0
765,74.0,0,173,10.0,0.0
766,74.0,0,173,4.0,0.0
767,74.0,40,173,5.0,0.0
768,67.0,0,107,11.0,0.0
769,62.0,6,107,12.0,0.0
770,76.0,0,33,4.0,0.0
771,76.0,6,53,10.0,0.0
772,76.0,14,33,5.0,0.0
773,71.0,0,19,5.0,0.0
774,71.0,174,19,4.0,0.0
775,70.0,0,347,5.0,0.0
776,70.0,0,347,10.0,0.0
777,70.0,0,347,4.0,0.0
778,61.0,0,347,12.0,0.0
779,66.0,66,347,11.0,0.0
780,55.0,6,53,13.0,0.0
781,55.0,108,59,14.0,0.0
782,54.0,48,179,14.0,0.0
783,54.0,6,173,13.0,0.0
784,61.0,0,107,12.0,0.0
785,70.0,0,107,11.0,0.0
786,79.0,0,107,10.0,0.0
787,79.0,0,107,4.0,0.0
788,79.0,6,107,5.0,0.0
789,52.0,174,59,14.0,0.0
790,52.0,6,53,13.0,0.0
791,62.0,0,173,12.0,0.0
792,50.0,6,173,13.0,0.0
793,71.0,66,347,11.0,0.0
794,78.0,0,173,4.0,0.0
795,50.0,54,179,14.0,0.0
796,78.0,0,173,10.0,0.0
797,78.0,0,173,5.0,0.0
798,64.0,0,53,12.0,0.0
799,49.0,108,59,14.0,0.0
800,49.0,0,53,13.0,0.0
801,76.0,6,53,10.0,0.0
802,76.0,0,53,5.0,0.0
803,76.0,0,53,4.0,0.0
804,74.0,0,173,4.0,0.0
805,74.0,0,173,5.0,0.0
806,47.0,48,179,14.0,0.0
807,66.0,0,413,12.0,0.0
808,74.0,6,173,10.0,0.0
809,47.0,0,173,13.0,0.0
810,73.0,6,107,11.0,0.0
811,46.0,174,59,14.0,0.0
812,46.0,6,53,13.0,0.0
813,73.0,0,53,4.0,0.0
814,73.0,0,53,5.0,0.0
815,73.0,0,53,10.0,0.0
816,74.0,0,173,5.0,0.0
817,71.0,6,173,11.0,0.0
818,74.0,0,173,4.0,0.0
819,47.0,54,179,14.0,0.0
820,47.0,0,173,13.0,0.0
821,74.0,0,173,10.0,0.0
822,73.0,0,53,4.0,0.0
823,70.0,0,53,11.0,0.0
824,73.0,6,53,5.0,0.0
825,73.0,0,53,10.0,0.0
826,64.0,0,53,12.0,0.0
827,49.0,0,53,13.0,0.0
828,49.0,174,59,14.0,0.0
829,50.0,54,179,14.0,0.0
830,71.0,0,173,5.0,0.0
831,71.0,0,173,11.0,0.0
832,71.0,0,173,10.0,0.0
833,71.0,0,173,4.0,0.0
834,50.0,0,173,13.0,0.0
835,66.0,6,173,12.0,0.0
836,73.0,0,53,10.0,0.0
837,71.0,0,53,11.0,0.0
838,73.0,0,53,4.0,0.0
839,52.0,174,59,14.0,0.0
840,73.0,6,53,5.0,0.0
841,67.0,0,53,12.0,0.0
842,52.0,0,53,13.0,0.0
843,54.0,26,179,14.0,0.0
844,73.0,0,347,5.0,0.0
845,54.0,6,173,13.0,0.0
846,66.0,8,227,12.0,0.0
847,73.0,0,347,10.0,0.0
848,73.0,0,347,4.0,0.0
849,70.0,66,347,11.0,0.0
850,52.0,4,25,13.0,0.0
851,52.0,18,29,14.0,0.0
852,50.0,4,25,13.0,0.0
853,50.0,108,29,14.0,0.0
854,52.0,6,173,13.0,0.0
855,66.0,0,227,12.0,0.0
856,52.0,48,179,14.0,0.0
857,71.0,6,107,5.0,0.0
858,71.0,0,107,11.0,0.0
859,71.0,0,107,4.0,0.0
860,71.0,0,107,10.0,0.0
861,54.0,6,53,13.0,0.0
862,54.0,174,59,14.0,0.0
863,71.0,0,293,10.0,0.0
864,51.0,54,539,14.0,0.0
865,51.0,6,533,13.0,0.0
866,71.0,60,293,5.0,0.0
867,66.0,54,479,12.0,0.0
868,71.0,0,293,4.0,0.0
869,71.0,60,173,11.0,0.0
870,59.0,60,53,11.0,0.0
871,59.0,60,173,11.0,0.0
872,71.0,0,53,10.0,0.0
873,71.0,60,53,4.0,0.0
874,71.0,0,53,5.0,0.0
875,69.0,0,53,10.0,0.0
876,69.0,0,53,4.0,0.0
877,69.0,0,53,5.0,0.0
878,63.0,0,53,11.0,0.0
879,68.0,6,53,4.0,0.0
880,68.0,0,53,5.0,0.0
881,68.0,0,53,10.0,0.0
882,66.0,6,347,11.0,0.0
883,69.0,0,173,10.0,0.0
884,69.0,6,173,5.0,0.0
885,69.0,0,173,4.0,0.0
886,49.0,54,59,14.0,0.0
887,49.0,6,53,13.0,0.0
888,47.0,54,59,14.0,0.0
889,47.0,0,53,13.0,0.0
890,78.0,0,53,5.0,0.0
891,78.0,0,53,10.0,0.0
892,49.0,6,53,13.0,0.0
893,59.0,0,53,12.0,0.0
894,49.0,54,59,14.0,0.0
895,78.0,0,53,4.0,0.0
896,51.0,6,53,13.0,0.0
897,71.0,0,173,10.0,0.0
898,71.0,0,173,4.0,0.0
899,71.0,6,173,5.0,0.0
900,59.0,0,173,12.0,0.0
901,51.0,48,59,14.0,0.0
902,49.0,54,59,14.0,0.0
903,49.0,6,53,13.0,0.0
904,66.0,6,107,11.0,0.0
905,51.0,48,59,14.0,0.0
906,51.0,0,53,13.0,0.0
907,47.0,174,59,14.0,0.0
908,47.0,0,53,13.0,0.0
909,69.0,0,53,4.0,0.0
910,69.0,0,53,5.0,0.0
911,63.0,0,53,12.0,0.0
912,69.0,6,53,10.0,0.0
913,68.0,0,173,4.0,0.0
914,52.0,54,539,14.0,0.0
915,59.0,0,173,12.0,0.0
916,64.0,60,173,11.0,0.0
917,68.0,0,173,5.0,0.0
918,52.0,6,533,13.0,0.0
919,68.0,0,173,10.0,0.0
920,64.0,0,53,10.0,0.0
921,64.0,0,53,5.0,0.0
922,56.0,0,53,12.0,0.0
923,76.0,0,53,11.0,0.0
924,64.0,180,53,4.0,0.0
925,76.0,0,173,11.0,0.0
926,68.0,0,173,10.0,0.0
927,68.0,0,173,5.0,0.0
928,59.0,60,173,12.0,0.0
929,68.0,0,173,4.0,0.0
930,71.0,0,53,10.0,0.0
931,71.0,0,53,4.0,0.0
932,71.0,0,53,5.0,0.0
933,64.0,0,53,12.0,0.0
934,74.0,60,53,11.0,0.0
935,76.0,6,347,10.0,0.0
936,76.0,0,347,5.0,0.0
937,73.0,0,173,11.0,0.0
938,76.0,0,347,4.0,0.0
939,68.0,0,347,12.0,0.0
940,50.0,6,53,13.0,0.0
941,50.0,54,59,14.0,0.0
942,49.0,54,59,14.0,0.0
943,49.0,6,53,13.0,0.0
944,50.0,54,59,14.0,0.0
945,50.0,0,53,13.0,0.0
946,73.0,6,53,11.0,0.0
947,73.0,0,173,11.0,0.0
948,52.0,6,53,13.0,0.0
949,52.0,48,59,14.0,0.0
950,50.0,6,53,13.0,0.0
951,50.0,54,59,14.0,0.0
952,52.0,6,53,13.0,0.0
953,76.0,6,107,4.0,0.0
954,76.0,0,107,10.0,0.0
955,64.0,0,107,12.0,0.0
956,76.0,0,107,5.0,0.0
957,52.0,48,59,14.0,0.0
958,71.0,0,53,11.0,0.0
959,49.0,6,53,13.0,0.0
960,49.0,174,59,14.0,0.0
961,54.0,0,533,13.0,0.0
962,76.0,54,293,4.0,0.0
963,61.0,60,173,12.0,0.0
964,54.0,54,539,14.0,0.0
965,76.0,0,293,10.0,0.0
966,69.0,6,347,11.0,0.0
967,76.0,0,293,5.0,0.0
968,69.0,60,53,12.0,0.0
969,69.0,54,173,12.0,0.0
970,69.0,60,53,10.0,0.0
971,69.0,0,53,4.0,0.0
972,69.0,0,53,5.0,0.0
973,71.0,0,53,4.0,0.0
974,71.0,0,53,5.0,0.0
975,71.0,0,53,10.0,0.0
976,69.0,6,107,11.0,0.0
977,67.0,0,53,12.0,0.0
978,73.0,0,53,5.0,0.0
979,73.0,0,53,10.0,0.0
980,73.0,60,53,4.0,0.0
981,74.0,0,53,4.0,0.0
982,66.0,6,173,12.0,0.0
983,74.0,6,53,5.0,0.0
984,69.0,6,347,11.0,0.0
985,74.0,0,53,10.0,0.0
986,73.0,0,53,4.0,0.0
987,73.0,6,53,10.0,0.0
988,73.0,0,53,5.0,0.0
989,55.0,54,59,14.0,0.0
990,55.0,0,53,13.0,0.0
991,54.0,54,59,14.0,0.0
992,54.0,0,53,13.0,0.0
993,74.0,0,53,4.0,0.0
994,74.0,0,53,10.0,0.0
995,74.0,0,53,5.0,0.0
996,76.0,0,53,5.0,0.0
997,52.0,0,53,13.0,0.0
998,52.0,54,59,14.0,0.0
999,66.0,6,53,12.0,0.0
1000,76.0,0,53,10.0,0.0
1001,76.0,0,53,4.0,0.0
1002,78.0,0,53,4.0,0.0
1003,50.0,6,53,13.0,0.0
1004,66.0,6,173,12.0,0.0
1005,50.0,48,59,14.0,0.0
1006,78.0,0,53,5.0,0.0
1007,78.0,0,53,10.0,0.0
1008,76.0,6,53,4.0,0.0
1009,76.0,0,53,10.0,0.0
1010,76.0,0,53,5.0,0.0
1011,52.0,54,59,14.0,0.0
1012,52.0,0,53,13.0,0.0
1013,50.0,0,53,13.0,0.0
1014,69.0,6,107,11.0,0.0
1015,78.0,0,53,5.0,0.0
1016,50.0,48,59,14.0,0.0
1017,78.0,0,53,10.0,0.0
1018,78.0,0,53,4.0,0.0
1019,80.0,0,53,10.0,0.0
1020,80.0,0,53,5.0,0.0
1021,80.0,0,53,4.0,0.0
1022,49.0,60,59,14.0,0.0
1023,64.0,6,53,12.0,0.0
1024,49.0,0,53,13.0,0.0
1025,81.0,0,59,4.0,0.0
1026,81.0,114,59,10.0,0.0
1027,47.0,0,299,14.0,0.0
1028,81.0,0,59,5.0,0.0
1029,71.0,60,173,11.0,0.0
1030,47.0,6,293,13.0,0.0
1031,62.0,6,653,12.0,0.0
1032,80.0,0,173,5.0,0.0
1033,80.0,0,173,4.0,0.0
1034,80.0,0,173,10.0,0.0
1035,69.0,60,53,11.0,0.0
1036,78.0,54,59,10.0,0.0
1037,78.0,0,59,4.0,0.0
1038,68.0,0,173,11.0,0.0
1039,78.0,0,59,5.0,0.0
1040,76.0,0,173,5.0,0.0
1041,76.0,0,173,4.0,0.0
1042,76.0,0,173,10.0,0.0
1043,47.0,6,53,13.0,0.0
1044,47.0,54,59,14.0,0.0
1045,49.0,54,59,14.0,0.0
1046,49.0,6,53,13.0,0.0
1047,50.0,174,59,14.0,0.0
1048,50.0,6,53,13.0,0.0
1049,66.0,0,53,11.0,0.0
1050,44.0,54,179,14.0,0.0
1051,83.0,0,347,10.0,0.0
1052,44.0,0,173,13.0,0.0
1053,64.0,0,173,11.0,0.0
1054,83.0,66,347,4.0,0.0
1055,83.0,0,347,5.0,0.0
1056,40.0,108,59,14.0,0.0
1057,68.0,0,53,11.0,0.0
1058,40.0,6,53,13.0,0.0
1059,62.0,0,53,12.0,0.0
1060,42.0,48,179,14.0,0.0
1061,69.0,0,173,11.0,0.0
1062,61.0,6,173,12.0,0.0
1063,42.0,0,173,13.0,0.0
1064,74.0,0,107,10.0,0.0
1065,74.0,6,107,4.0,0.0
1066,74.0,0,107,5.0,0.0
1067,44.0,174,59,14.0,0.0
1068,59.0,6,53,12.0,0.0
1069,71.0,0,53,11.0,0.0
1070,44.0,0,53,13.0,0.0
1071,73.0,66,347,5.0,0.0
1072,64.0,0,173,12.0,0.0
1073,73.0,0,347,10.0,0.0
1074,45.0,6,173,13.0,0.0
1075,73.0,0,347,4.0,0.0
1076,45.0,54,179,14.0,0.0
1077,69.0,0,347,11.0,0.0
1078,47.0,108,59,14.0,0.0
1079,47.0,0,53,13.0,0.0
1080,62.0,6,53,12.0,0.0
1081,49.0,48,179,14.0,0.0
1082,49.0,0,173,13.0,0.0
1083,64.0,6,173,12.0,0.0
1084,69.0,6,107,11.0,0.0
1085,71.0,0,107,5.0,0.0
1086,71.0,0,107,4.0,0.0
1087,71.0,0,107,10.0,0.0
1088,50.0,6,53,13.0,0.0
1089,50.0,228,59,14.0,0.0
1090,66.0,0,53,12.0,0.0
1091,52.0,108,239,14.0,0.0
1092,68.0,0,347,11.0,0.0
1093,52.0,12,227,13.0,0.0
1094,71.0,0,347,5.0,0.0
1095,71.0,0,347,4.0,0.0
1096,64.0,0,227,12.0,0.0
1097,71.0,120,347,10.0,0.0
1098,40.0,15,239,14.0,0.0
1099,40.0,0,227,13.0,0.0
1100,62.0,12,227,12.0,0.0
1101,64.0,0,107,11.0,0.0
1102,69.0,0,107,5.0,0.0
1103,69.0,0,107,10.0,0.0
1104,69.0,0,107,4.0,0.0
1105,64.0,6,173,11.0,0.0
1106,61.0,0,653,12.0,0.0
1107,69.0,6,293,10.0,0.0
1108,45.0,15,14,3.0,0.0
1109,69.0,0,325,5.0,0.0
1110,45.0,120,479,13.0,0.0
1111,69.0,4,325,4.0,0.0
1112,45.0,0,479,14.0,0.0
1113,45.0,15,14,3.0,0.0
1114,45.0,15,14,3.0,0.0
1115,45.0,15,14,3.0,0.0
1116,45.0,15,14,3.0,0.0
1117,45.0,15,14,3.0,0.0
1118,45.0,15,14,3.0,0.0
1119,45.0,15,14,3.0,0.0
1120,45.0,15,14,3.0,0.0
1121,45.0,15,14,3.0,0.0
1122,45.0,9,14,3.0,0.0
1123,45.0,15,14,3.0,0.0
1124,45.0,15,14,3.0,0.0
1125,81.0,0,53,1.0,0.0
1126,76.0,0,53,2.0,0.0
1127,76.0,0,53,11.0,0.0
1128,85.0,6,53,0.0,0.0
1129,45.0,15,14,3.0,0.0
1130,45.0,9,14,3.0,0.0
1131,45.0,15,14,3.0,0.0
1132,85.0,2,173,0.0,0.0
1133,45.0,15,14,3.0,0.0
1134,76.0,0,173,11.0,0.0
1135,76.0,0,173,2.0,0.0
1136,81.0,0,173,1.0,0.0
1137,45.0,15,14,3.0,0.0
1138,45.0,9,14,3.0,0.0
1139,45.0,15,14,3.0,0.0
1140,45.0,11,14,3.0,0.0
1141,73.0,2,53,10.0,0.0
1142,45.0,15,14,3.0,0.0
1143,71.0,0,25,4.0,0.0
1144,45.0,9,14,3.0,0.0
1145,71.0,4,25,5.0,0.0
1146,45.0,15,14,3.0,0.0
1147,71.0,0,53,10.0,0.0
1148,73.0,0,25,4.0,0.0
1149,73.0,4,25,5.0,0.0
1150,45.0,11,14,3.0,0.0
1151,45.0,15,14,3.0,0.0
1152,74.0,0,25,5.0,0.0
1153,45.0,9,14,3.0,0.0
1154,74.0,4,25,4.0,0.0
1155,45.0,15,14,3.0,0.0
1156,76.0,4,25,5.0,0.0
1157,81.0,0,53,0.0,0.0
1158,69.0,0,53,2.0,0.0
1159,76.0,0,25,4.0,0.0
1160,45.0,11,14,3.0,0.0
1161,69.0,2,53,10.0,0.0
1162,76.0,0,53,1.0,0.0
1163,73.0,0,53,11.0,0.0
1164,45.0,15,14,3.0,0.0
1165,45.0,9,14,3.0,0.0
1166,78.0,0,25,4.0,0.0
1167,78.0,4,25,5.0,0.0
1168,45.0,0,14,3.0,0.0
1169,69.0,0,119,2.0,0.0
1170,45.0,54,179,3.0,0.0
1171,69.0,6,293,11.0,0.0
1172,45.0,54,299,14.0,0.0
1173,79.0,0,173,4.0,0.0
1174,79.0,6,173,5.0,0.0
1175,45.0,0,293,13.0,0.0
1176,76.0,0,119,1.0,0.0
1177,79.0,0,173,10.0,0.0
1178,81.0,54,119,0.0,0.0
1179,76.0,6,53,5.0,0.0
1180,76.0,0,53,10.0,0.0
1181,61.0,0,53,12.0,0.0
1182,76.0,0,53,4.0,0.0
1183,45.0,54,59,3.0,0.0
1184,78.0,0,173,10.0,0.0
1185,78.0,0,173,5.0,0.0
1186,78.0,6,173,4.0,0.0
1187,45.0,54,179,3.0,0.0
1188,62.0,0,173,12.0,0.0
1189,47.0,0,53,13.0,0.0
1190,67.0,6,53,11.0,0.0
1191,47.0,54,59,14.0,0.0
1192,45.0,0,53,13.0,0.0
1193,45.0,0,59,14.0,0.0
1194,66.0,0,53,11.0,0.0
1195,79.0,0,53,10.0,0.0
1196,64.0,6,53,11.0,0.0
1197,43.0,0,53,13.0,0.0
1198,79.0,0,53,4.0,0.0
1199,43.0,0,59,14.0,0.0
1200,45.0,15,59,3.0,0.0
1201,64.0,0,53,12.0,0.0
1202,79.0,0,53,5.0,0.0
1203,50.0,15,14,3.0,0.0
1204,42.0,0,299,14.0,0.0
1205,81.0,6,347,10.0,0.0
1206,62.0,0,347,11.0,0.0
1207,66.0,6,173,12.0,0.0
1208,81.0,0,347,5.0,0.0
1209,81.0,0,347,4.0,0.0
1210,42.0,6,293,13.0,0.0
1211,50.0,15,14,3.0,0.0
1212,50.0,15,14,3.0,0.0
1213,50.0,15,14,3.0,0.0
1214,50.0,15,14,3.0,0.0
1215,50.0,15,14,3.0,0.0
1216,50.0,15,14,3.0,0.0
1217,50.0,15,14,3.0,0.0
1218,50.0,15,14,3.0,0.0
1219,50.0,15,14,3.0,0.0
1220,50.0,9,14,3.0,0.0
1221,50.0,15,14,3.0,0.0
1222,78.0,6,53,1.0,0.0
1223,50.0,15,14,3.0,0.0
1224,69.0,0,53,2.0,0.0
1225,69.0,0,53,12.0,0.0
1226,86.0,0,53,0.0,0.0
1227,50.0,15,14,3.0,0.0
1228,50.0,9,14,3.0,0.0
1229,50.0,15,14,3.0,0.0
1230,78.0,0,173,1.0,0.0
1231,50.0,15,14,3.0,0.0
1232,86.0,0,173,0.0,0.0
1233,69.0,0,173,12.0,0.0
1234,69.0,0,173,2.0,0.0
1235,50.0,15,14,3.0,0.0
1236,50.0,9,14,3.0,0.0
1237,50.0,15,14,3.0,0.0
1238,43.0,6,53,13.0,0.0
1239,43.0,0,59,14.0,0.0
1240,50.0,15,14,3.0,0.0
1241,50.0,15,14,3.0,0.0
1242,50.0,3,14,3.0,0.0
1243,50.0,15,14,3.0,0.0
1244,57.0,0,107,11.0,0.0
1245,72.0,6,107,10.0,0.0
1246,50.0,15,14,3.0,0.0
1247,72.0,0,107,5.0,0.0
1248,42.0,0,59,14.0,0.0
1249,42.0,6,53,13.0,0.0
1250,72.0,0,107,4.0,0.0
1251,50.0,15,14,3.0,0.0
1252,50.0,9,14,3.0,0.0
1253,50.0,15,14,3.0,0.0
1254,66.0,0,53,12.0,0.0
1255,74.0,0,53,1.0,0.0
1256,40.0,15,59,14.0,0.0
1257,40.0,0,53,13.0,0.0
1258,81.0,0,53,0.0,0.0
1259,66.0,6,53,2.0,0.0
1260,50.0,15,14,3.0,0.0
1261,50.0,15,14,3.0,0.0
1262,50.0,3,14,3.0,0.0
1263,50.0,0,14,3.0,0.0
1264,66.0,0,119,2.0,0.0
1265,66.0,6,227,12.0,0.0
1266,72.0,0,14,5.0,0.0
1267,38.0,0,179,14.0,0.0
1268,69.0,6,173,11.0,0.0
1269,50.0,0,179,3.0,0.0
1270,81.0,0,119,0.0,0.0
1271,74.0,0,119,1.0,0.0
1272,72.0,15,14,4.0,0.0
1273,72.0,0,14,10.0,0.0
1274,38.0,0,173,13.0,0.0
1275,74.0,15,14,4.0,0.0
1276,74.0,0,14,5.0,0.0
1277,74.0,0,14,10.0,0.0
1278,72.0,0,14,5.0,0.0
1279,72.0,0,14,4.0,0.0
1280,72.0,15,14,10.0,0.0
1281,74.0,15,14,10.0,0.0
1282,74.0,0,14,4.0,0.0
1283,74.0,0,14,5.0,0.0
1284,72.0,0,14,4.0,0.0
1285,72.0,0,14,5.0,0.0
1286,72.0,15,14,10.0,0.0
1287,74.0,0,14,4.0,0.0
1288,74.0,15,14,10.0,0.0
1289,74.0,0,14,5.0,0.0
1290,72.0,0,14,5.0,0.0
1291,72.0,0,14,10.0,0.0
1292,72.0,15,14,4.0,0.0
1293,74.0,0,14,4.0,0.0
1294,74.0,0,14,10.0,0.0
1295,74.0,15,14,5.0,0.0
1296,72.0,15,14,5.0,0.0
1297,72.0,0,14,4.0,0.0
1298,72.0,0,14,10.0,0.0
1299,74.0,0,14,5.0,0.0
1300,74.0,15,14,10.0,0.0
1301,74.0,0,14,4.0,0.0
1302,72.0,0,14,5.0,0.0
1303,72.0,0,14,10.0,0.0
1304,72.0,9,14,4.0,0.0
1305,74.0,0,14,5.0,0.0
1306,74.0,0,14,10.0,0.0
1307,74.0,26,14,4.0,0.0
1308,40.0,174,59,14.0,0.0
1309,50.0,0,59,3.0,0.0
1310,40.0,2,53,13.0,0.0
1311,71.0,0,25,5.0,0.0
1312,71.0,0,25,10.0,0.0
1313,71.0,22,25,4.0,0.0
1314,67.0,0,53,11.0,0.0
1315,72.0,0,25,10.0,0.0
1316,72.0,4,25,5.0,0.0
1317,72.0,0,25,4.0,0.0
1318,50.0,0,179,3.0,0.0
1319,74.0,0,173,5.0,0.0
1320,42.0,0,173,13.0,0.0
1321,74.0,0,173,10.0,0.0
1322,74.0,6,173,4.0,0.0
1323,42.0,54,179,14.0,0.0
1324,69.0,0,173,11.0,0.0
1325,62.0,60,413,12.0,0.0
1326,69.0,0,53,5.0,0.0
1327,50.0,0,59,3.0,0.0
1328,38.0,120,59,14.0,0.0
1329,38.0,0,53,13.0,0.0
1330,69.0,6,53,4.0,0.0
1331,69.0,0,53,10.0,0.0
1332,66.0,0,53,11.0,0.0
1333,71.0,0,293,10.0,0.0
1334,67.0,0,173,11.0,0.0
1335,71.0,60,293,4.0,0.0
1336,43.0,54,479,14.0,0.0
1337,71.0,0,293,5.0,0.0
1338,50.0,54,119,3.0,0.0
1339,43.0,6,467,13.0,0.0
1340,62.0,0,53,12.0,0.0
1341,66.0,60,53,11.0,0.0
1342,67.0,0,173,11.0,0.0
1343,64.0,0,173,12.0,0.0
1344,69.0,0,53,10.0,0.0
1345,69.0,60,53,5.0,0.0
1346,69.0,0,53,4.0,0.0
1347,67.0,54,53,5.0,0.0
1348,67.0,0,53,10.0,0.0
1349,67.0,0,53,4.0,0.0
1350,66.0,0,53,12.0,0.0
1351,66.0,0,53,10.0,0.0
1352,69.0,6,53,11.0,0.0
1353,66.0,0,53,5.0,0.0
1354,66.0,0,53,4.0,0.0
1355,55.0,0,479,13.0,0.0
1356,64.0,0,53,5.0,0.0
1357,67.0,60,173,12.0,0.0
1358,71.0,0,173,11.0,0.0
1359,55.0,15,479,14.0,0.0
1360,64.0,0,53,4.0,0.0
1361,64.0,60,53,10.0,0.0
1362,66.0,60,53,4.0,0.0
1363,66.0,0,53,10.0,0.0
1364,66.0,0,53,5.0,0.0
1365,67.0,0,53,10.0,0.0
1366,67.0,0,53,5.0,0.0
1367,67.0,0,53,4.0,0.0
1368,69.0,0,53,5.0,0.0
1369,64.0,0,53,12.0,0.0
1370,69.0,0,53,4.0,0.0
1371,69.0,60,53,10.0,0.0
1372,73.0,0,53,11.0,0.0
1373,71.0,0,53,10.0,0.0
1374,66.0,0,173,12.0,0.0
1375,74.0,0,173,11.0,0.0
1376,71.0,0,53,5.0,0.0
1377,71.0,60,53,4.0,0.0
1378,73.0,0,53,4.0,0.0
1379,73.0,60,53,10.0,0.0
1380,73.0,0,53,5.0,0.0
1381,74.0,60,53,4.0,0.0
1382,74.0,0,53,10.0,0.0
1383,74.0,0,53,5.0,0.0
1384,71.0,0,53,10.0,0.0
1385,71.0,0,53,4.0,0.0
1386,71.0,0,53,5.0,0.0
1387,67.0,0,53,12.0,0.0
1388,76.0,6,53,11.0,0.0
1389,45.0,15,14,3.0,0.0
1390,73.0,6,53,5.0,0.0
1391,69.0,6,173,11.0,0.0
1392,55.0,6,293,13.0,0.0
1393,55.0,0,299,14.0,0.0
1394,73.0,0,53,4.0,0.0
1395,64.0,0,173,12.0,0.0
1396,73.0,0,53,10.0,0.0
1397,45.0,15,14,3.0,0.0
1398,45.0,9,14,3.0,0.0
1399,45.0,15,14,3.0,0.0
1400,74.0,0,53,5.0,0.0
1401,45.0,15,14,3.0,0.0
1402,74.0,6,53,10.0,0.0
1403,74.0,0,53,4.0,0.0
1404,45.0,15,14,3.0,0.0
1405,45.0,9,14,3.0,0.0
1406,45.0,15,14,3.0,0.0
1407,73.0,0,53,5.0,0.0
1408,45.0,15,14,3.0,0.0
1409,73.0,0,53,4.0,0.0
1410,73.0,0,53,10.0,0.0
1411,45.0,15,14,3.0,0.0
1412,45.0,9,14,3.0,0.0
1413,45.0,15,14,3.0,0.0
1414,71.0,0,53,4.0,0.0
1415,71.0,0,53,10.0,0.0
1416,76.0,6,53,0.0,0.0
1417,64.0,0,53,11.0,0.0
1418,45.0,15,14,3.0,0.0
1419,69.0,0,53,1.0,0.0
1420,71.0,0,53,5.0,0.0
1421,69.0,0,53,12.0,0.0
1422,45.0,15,14,3.0,0.0
1423,45.0,9,14,3.0,0.0
1424,45.0,15,14,3.0,0.0
1425,76.0,0,173,0.0,0.0
1426,69.0,0,53,5.0,0.0
1427,45.0,15,14,3.0,0.0
1428,69.0,0,173,1.0,0.0
1429,69.0,0,53,4.0,0.0
1430,61.0,0,173,11.0,0.0
1431,69.0,6,173,12.0,0.0
1432,69.0,0,53,10.0,0.0
1433,45.0,15,14,3.0,0.0
1434,45.0,9,14,3.0,0.0
1435,45.0,15,14,3.0,0.0
1436,45.0,15,14,3.0,0.0
1437,71.0,6,53,5.0,0.0
1438,54.0,0,59,14.0,0.0
1439,71.0,0,53,10.0,0.0
1440,54.0,0,53,13.0,0.0
1441,71.0,0,53,4.0,0.0
1442,45.0,15,14,3.0,0.0
1443,45.0,9,14,3.0,0.0
1444,45.0,15,14,3.0,0.0
1445,73.0,0,53,4.0,0.0
1446,52.0,15,59,14.0,0.0
1447,45.0,15,14,3.0,0.0
1448,73.0,0,53,10.0,0.0
1449,73.0,0,53,5.0,0.0
1450,52.0,0,53,13.0,0.0
1451,45.0,15,14,3.0,0.0
1452,45.0,9,14,3.0,0.0
1453,45.0,0,14,3.0,0.0
1454,50.0,0,59,14.0,0.0
1455,74.0,0,53,5.0,0.0
1456,64.0,0,53,12.0,0.0
1457,45.0,15,14,3.0,0.0
1458,57.0,0,53,11.0,0.0
1459,76.0,6,53,1.0,0.0
1460,50.0,0,53,13.0,0.0
1461,74.0,0,53,10.0,0.0
1462,74.0,0,53,4.0,0.0
1463,81.0,0,53,0.0,0.0
1464,45.0,15,14,3.0,0.0
1465,45.0,9,14,3.0,0.0
1466,45.0,54,14,3.0,0.0
1467,76.0,0,53,10.0,0.0
1468,76.0,0,173,1.0,0.0
1469,76.0,60,53,5.0,0.0
1470,76.0,0,53,4.0,0.0
1471,81.0,0,173,0.0,0.0
1472,69.0,0,173,11.0,0.0
1473,45.0,0,179,3.0,0.0
1474,64.0,0,173,12.0,0.0
1475,49.0,54,179,14.0,0.0
1476,49.0,0,173,13.0,0.0
1477,78.0,0,53,5.0,0.0
1478,78.0,60,53,10.0,0.0
1479,78.0,0,53,4.0,0.0
1480,79.0,0,53,10.0,0.0
1481,79.0,0,53,5.0,0.0
1482,79.0,6,53,4.0,0.0
1483,61.0,0,53,12.0,0.0
1484,81.0,0,53,5.0,0.0
1485,81.0,0,53,10.0,0.0
1486,45.0,0,59,14.0,0.0
1487,81.0,0,53,4.0,0.0
1488,69.0,0,53,2.0,0.0
1489,81.0,6,53,0.0,0.0
1490,45.0,0,53,13.0,0.0
1491,78.0,0,53,1.0,0.0
1492,45.0,54,59,3.0,0.0
1493,66.0,0,53,11.0,0.0
1494,79.0,0,173,0.0,0.0
1495,78.0,0,173,1.0,0.0
1496,62.0,0,173,2.0,0.0
1497,50.0,54,179,3.0,0.0
1498,47.0,6,173,13.0,0.0
1499,62.0,0,173,11.0,0.0
1500,62.0,0,173,12.0,0.0
1501,79.0,0,53,10.0,0.0
1502,47.0,0,179,14.0,0.0
1503,79.0,0,53,5.0,0.0
1504,79.0,60,53,4.0,0.0
1505,78.0,0,53,4.0,0.0
1506,78.0,60,53,10.0,0.0
1507,78.0,0,53,5.0,0.0
1508,79.0,0,53,4.0,0.0
1509,79.0,0,53,10.0,0.0
1510,79.0,0,53,5.0,0.0
1511,76.0,0,53,1.0,0.0
1512,49.0,0,53,13.0,0.0
1513,49.0,0,59,14.0,0.0
1514,76.0,0,53,10.0,0.0
1515,64.0,6,53,12.0,0.0
1516,69.0,0,53,2.0,0.0
1517,45.0,120,59,3.0,0.0
1518,69.0,0,53,11.0,0.0
1519,76.0,0,53,4.0,0.0
1520,81.0,0,53,0.0,0.0
1521,76.0,0,53,5.0,0.0
1522,78.0,6,173,5.0,0.0
1523,50.0,54,179,14.0,0.0
1524,69.0,0,347,11.0,0.0
1525,78.0,0,173,0.0,0.0
1526,62.0,66,347,12.0,0.0
1527,69.0,0,119,1.0,0.0
1528,50.0,0,119,3.0,0.0
1529,78.0,0,173,10.0,0.0
1530,50.0,0,173,13.0,0.0
1531,78.0,0,173,4.0,0.0
1532,74.0,54,119,2.0,0.0
1533,52.0,108,59,14.0,0.0
1534,79.0,0,53,0.0,0.0
1535,52.0,0,53,13.0,0.0
1536,79.0,0,53,10.0,0.0
1537,79.0,6,53,4.0,0.0
1538,79.0,0,53,5.0,0.0
1539,54.0,0,173,13.0,0.0
1540,81.0,0,173,0.0,0.0
1541,54.0,48,179,14.0,0.0
1542,81.0,0,173,5.0,0.0
1543,81.0,0,173,10.0,0.0
1544,81.0,6,173,4.0,0.0
1545,67.0,6,107,11.0,0.0
1546,62.0,0,107,12.0,0.0
1547,55.0,0,53,13.0,0.0
1548,83.0,0,53,0.0,0.0
1549,83.0,0,53,10.0,0.0
1550,83.0,0,53,5.0,0.0
1551,55.0,54,59,14.0,0.0
1552,83.0,6,53,4.0,0.0
1553,45.0,0,119,3.0,0.0
1554,57.0,6,53,13.0,0.0
1555,57.0,54,59,14.0,0.0
1556,73.0,0,173,4.0,0.0
1557,81.0,0,119,2.0,0.0
1558,69.0,54,119,1.0,0.0
1559,69.0,6,173,12.0,0.0
1560,73.0,0,173,5.0,0.0
1561,73.0,0,173,10.0,0.0
1562,76.0,0,173,0.0,0.0
1563,64.0,0,173,11.0,0.0
1564,59.0,0,59,14.0,0.0
1565,59.0,6,53,13.0,0.0
1566,57.0,0,53,13.0,0.0
1567,57.0,54,59,14.0,0.0
1568,74.0,0,53,5.0,0.0
1569,74.0,0,53,10.0,0.0
1570,66.0,0,53,11.0,0.0
1571,69.0,0,53,12.0,0.0
1572,55.0,15,59,14.0,0.0
1573,81.0,0,53,0.0,0.0
1574,55.0,0,53,13.0,0.0
1575,74.0,6,53,4.0,0.0
1576,74.0,0,14,4.0,0.0
1577,69.0,0,173,12.0,0.0
1578,54.0,6,53,13.0,0.0
1579,74.0,15,14,5.0,0.0
1580,66.0,6,173,11.0,0.0
1581,74.0,0,14,10.0,0.0
1582,54.0,0,59,14.0,0.0
1583,74.0,0,173,0.0,0.0
1584,76.0,0,14,5.0,0.0
1585,76.0,0,14,4.0,0.0
1586,76.0,15,14,10.0,0.0
1587,74.0,0,14,4.0,0.0
1588,74.0,9,14,10.0,0.0
1589,74.0,0,14,5.0,0.0
1590,76.0,15,14,4.0,0.0
1591,76.0,0,14,10.0,0.0
1592,76.0,0,14,5.0,0.0
1593,74.0,15,14,10.0,0.0
1594,74.0,0,14,4.0,0.0
1595,55.0,0,59,14.0,0.0
1596,55.0,6,53,13.0,0.0
1597,74.0,0,14,5.0,0.0
1598,76.0,15,14,4.0,0.0
1599,76.0,0,14,10.0,0.0
1600,76.0,0,14,5.0,0.0
1601,74.0,0,14,4.0,0.0
1602,74.0,9,14,10.0,0.0
1603,74.0,0,14,5.0,0.0
1604,76.0,15,14,10.0,0.0
1605,76.0,0,14,5.0,0.0
1606,76.0,0,14,4.0,0.0
1607,74.0,0,14,5.0,0.0
1608,74.0,15,14,4.0,0.0
1609,57.0,0,59,14.0,0.0
1610,57.0,0,53,13.0,0.0
1611,74.0,0,14,10.0,0.0
1612,76.0,15,14,10.0,0.0
1613,76.0,0,14,4.0,0.0
1614,76.0,0,14,5.0,0.0
1615,74.0,0,14,5.0,0.0
1616,74.0,0,14,4.0,0.0
1617,74.0,9,14,10.0,0.0
1618,76.0,0,14,5.0,0.0
1619,76.0,0,14,4.0,0.0
1620,76.0,26,14,10.0,0.0
1621,73.0,28,25,10.0,0.0
1622,81.0,0,53,0.0,0.0
1623,73.0,0,25,4.0,0.0
1624,66.0,2,53,12.0,0.0
1625,62.0,0,53,11.0,0.0
1626,73.0,0,25,5.0,0.0
1627,59.0,0,53,13.0,0.0
1628,59.0,54,59,14.0,0.0
1629,74.0,0,25,4.0,0.0
1630,74.0,4,25,5.0,0.0
1631,74.0,0,25,10.0,0.0
1632,76.0,0,173,10.0,0.0
1633,69.0,6,173,0.0,0.0
1634,61.0,54,59,14.0,0.0
1635,76.0,0,173,5.0,0.0
1636,64.0,0,173,12.0,0.0
1637,61.0,6,53,13.0,0.0
1638,76.0,0,173,4.0,0.0
1639,69.0,6,347,11.0,0.0
1640,59.0,54,59,14.0,0.0
1641,59.0,6,53,13.0,0.0
1642,57.0,0,53,13.0,0.0
1643,57.0,54,59,14.0,0.0
1644,45.0,0,59,3.0,0.0
1645,59.0,0,53,13.0,0.0
1646,69.0,6,53,2.0,0.0
1647,76.0,0,53,1.0,0.0
1648,59.0,54,59,14.0,0.0
1649,81.0,0,53,0.0,0.0
1650,62.0,0,53,12.0,0.0
1651,69.0,0,53,4.0,0.0
1652,69.0,0,53,5.0,0.0
1653,69.0,0,53,10.0,0.0
1654,64.0,6,173,12.0,0.0
1655,79.0,0,173,0.0,0.0
1656,69.0,0,173,2.0,0.0
1657,76.0,0,173,1.0,0.0
1658,61.0,6,53,13.0,0.0
1659,45.0,0,179,3.0,0.0
1660,79.0,0,173,10.0,0.0
1661,79.0,0,173,4.0,0.0
1662,61.0,48,59,14.0,0.0
1663,79.0,0,173,5.0,0.0
1664,62.0,54,59,14.0,0.0
1665,62.0,6,53,13.0,0.0
1666,64.0,0,53,13.0,0.0
1667,64.0,20,59,14.0,0.0
1668,69.0,6,107,11.0,0.0
1669,76.0,0,53,1.0,0.0
1670,61.0,0,59,14.0,0.0
1671,78.0,20,19,4.0,0.0
1672,69.0,0,53,2.0,0.0
1673,81.0,0,53,0.0,0.0
1674,78.0,0,19,10.0,0.0
1675,78.0,0,19,5.0,0.0
1676,61.0,0,53,13.0,0.0
1677,57.0,6,53,12.0,0.0
1678,45.0,0,59,3.0,0.0
1679,76.0,8,19,5.0,0.0
1680,76.0,0,19,4.0,0.0
1681,76.0,0,19,10.0,0.0
1682,78.0,0,19,4.0,0.0
1683,78.0,0,19,5.0,0.0
1684,78.0,15,19,10.0,0.0
1685,50.0,0,179,3.0,0.0
1686,78.0,6,173,0.0,0.0
1687,62.0,6,227,13.0,0.0
1688,78.0,0,14,4.0,0.0
1689,69.0,0,173,2.0,0.0
1690,78.0,0,14,5.0,0.0
1691,62.0,15,239,14.0,0.0
1692,74.0,0,173,1.0,0.0
1693,69.0,0,227,12.0,0.0
1694,78.0,15,14,10.0,0.0
1695,69.0,0,173,11.0,0.0
1696,79.0,15,14,4.0,0.0
1697,79.0,0,14,10.0,0.0
1698,79.0,0,14,5.0,0.0
1699,78.0,0,14,4.0,0.0
1700,78.0,15,14,10.0,0.0
1701,78.0,0,14,5.0,0.0
1702,79.0,0,14,10.0,0.0
1703,79.0,0,14,5.0,0.0
1704,79.0,15,14,4.0,0.0
1705,78.0,0,14,10.0,0.0
1706,78.0,15,14,5.0,0.0
1707,78.0,0,14,4.0,0.0
1708,79.0,0,14,4.0,0.0
1709,79.0,0,14,10.0,0.0
1710,79.0,15,14,5.0,0.0
1711,78.0,0,14,4.0,0.0
1712,78.0,0,14,5.0,0.0
1713,78.0,15,14,10.0,0.0
1714,79.0,0,14,4.0,0.0
1715,79.0,0,14,10.0,0.0
1716,79.0,15,14,5.0,0.0
1717,78.0,0,14,5.0,0.0
1718,78.0,0,14,4.0,0.0
1719,78.0,15,14,10.0,0.0
1720,79.0,0,14,5.0,0.0
1721,79.0,0,14,10.0,0.0
1722,79.0,15,14,4.0,0.0
1723,78.0,0,14,10.0,0.0
1724,78.0,0,14,4.0,0.0
1725,78.0,9,14,5.0,0.0
1726,79.0,0,14,10.0,0.0
1727,79.0,15,14,5.0,0.0
1728,79.0,0,14,4.0,0.0
1729,78.0,0,14,4.0,0.0
1730,50.0,0,59,3.0,0.0
1731,74.0,4,25,11.0,0.0
1732,78.0,0,53,1.0,0.0
1733,78.0,11,14,5.0,0.0
1734,74.0,2,53,2.0,0.0
1735,78.0,0,14,10.0,0.0
1736,81.0,0,53,0.0,0.0
1737,79.0,0,14,5.0,0.0
1738,79.0,0,14,10.0,0.0
1739,79.0,15,14,4.0,0.0
1740,78.0,0,14,5.0,0.0
1741,73.0,4,25,11.0,0.0
1742,78.0,0,14,10.0,0.0
1743,78.0,3,14,4.0,0.0
1744,79.0,0,14,4.0,0.0
1745,79.0,0,14,10.0,0.0
1746,79.0,0,14,5.0,0.0
1747,74.0,0,173,11.0,0.0
1748,78.0,0,14,10.0,0.0
1749,78.0,0,173,2.0,0.0
1750,50.0,48,179,3.0,0.0
1751,78.0,15,14,5.0,0.0
1752,81.0,6,173,1.0,0.0
1753,50.0,0,239,14.0,0.0
1754,69.0,0,227,12.0,0.0
1755,78.0,0,14,4.0,0.0
1756,50.0,6,227,13.0,0.0
1757,86.0,0,173,0.0,0.0
1758,79.0,15,14,10.0,0.0
1759,79.0,0,14,5.0,0.0
1760,79.0,0,14,4.0,0.0
1761,78.0,0,14,5.0,0.0
1762,78.0,15,14,4.0,0.0
1763,78.0,0,14,10.0,0.0
1764,79.0,0,14,5.0,0.0
1765,79.0,0,14,10.0,0.0
1766,79.0,15,14,4.0,0.0
1767,78.0,0,14,4.0,0.0
1768,78.0,15,14,10.0,0.0
1769,78.0,0,14,5.0,0.0
1770,79.0,0,14,4.0,0.0
1771,79.0,15,14,5.0,0.0
1772,79.0,0,14,10.0,0.0
1773,76.0,0,14,4.0,0.0
1774,76.0,0,14,5.0,0.0
1775,76.0,15,14,10.0,0.0
1776,78.0,0,14,4.0,0.0
1777,78.0,54,14,5.0,0.0
1778,78.0,0,14,10.0,0.0
1779,76.0,0,107,10.0,0.0
1780,76.0,0,107,4.0,0.0
1781,76.0,0,107,5.0,0.0
1782,83.0,6,53,0.0,0.0
1783,50.0,174,59,3.0,0.0
1784,80.0,0,53,1.0,0.0
1785,76.0,0,53,11.0,0.0
1786,74.0,0,53,2.0,0.0
1787,85.0,0,479,0.0,0.0
1788,81.0,0,479,1.0,0.0
1789,45.0,54,179,14.0,0.0
1790,69.0,15,959,12.0,0.0
1791,45.0,0,479,3.0,0.0
1792,76.0,6,947,10.0,0.0
1793,76.0,0,479,2.0,0.0
1794,73.0,0,959,11.0,0.0
1795,76.0,174,479,5.0,0.0
1796,76.0,0,479,4.0,0.0
1797,45.0,6,173,13.0,0.0
1798,57.0,174,59,14.0,0.0
1799,57.0,6,53,13.0,0.0
1800,57.0,6,173,13.0,0.0
1801,57.0,54,179,14.0,0.0
1802,52.0,6,53,13.0,0.0
1803,52.0,0,59,14.0,0.0
1804,52.0,6,173,13.0,0.0
1805,52.0,54,179,14.0,0.0
1806,49.0,6,53,13.0,0.0
1807,49.0,174,59,14.0,0.0
1808,49.0,6,173,13.0,0.0
1809,49.0,48,179,14.0,0.0
1810,45.0,0,59,14.0,0.0
1811,45.0,6,53,13.0,0.0
1812,62.0,6,293,4.0,0.0
1813,50.0,0,959,13.0,0.0
1814,50.0,0,959,14.0,0.0
1815,62.0,0,293,5.0,0.0
1816,74.0,0,119,2.0,0.0
1817,50.0,15,14,3.0,0.0
1818,81.0,15,119,0.0,0.0
1819,78.0,0,119,1.0,0.0
1820,62.0,0,293,10.0,0.0
1821,50.0,15,14,3.0,0.0
1822,50.0,15,14,3.0,0.0
1823,50.0,15,14,3.0,0.0
1824,50.0,15,14,3.0,0.0
1825,50.0,15,14,3.0,0.0
1826,50.0,15,14,3.0,0.0
1827,50.0,0,14,3.0,0.0
1828,50.0,15,14,3.0,0.0
1829,50.0,15,14,3.0,0.0
1830,50.0,15,14,3.0,0.0
1831,50.0,15,14,3.0,0.0
1832,50.0,15,14,3.0,0.0
1833,69.0,6,53,11.0,0.0
1834,50.0,15,14,3.0,0.0
1835,50.0,9,14,3.0,0.0
1836,50.0,15,14,3.0,0.0
1837,69.0,0,173,11.0,0.0
1838,50.0,15,14,3.0,0.0
1839,50.0,15,14,3.0,0.0
1840,50.0,9,14,3.0,0.0
1841,50.0,15,14,3.0,0.0
1842,66.0,0,53,5.0,0.0
1843,50.0,15,14,3.0,0.0
1844,66.0,0,53,10.0,0.0
1845,66.0,6,53,4.0,0.0
1846,50.0,15,14,3.0,0.0
1847,50.0,9,14,3.0,0.0
1848,50.0,15,14,3.0,0.0
1849,64.0,0,53,10.0,0.0
1850,50.0,15,14,3.0,0.0
1851,64.0,0,53,4.0,0.0
1852,64.0,6,53,5.0,0.0
1853,50.0,15,14,3.0,0.0
1854,50.0,9,14,3.0,0.0
1855,50.0,15,14,3.0,0.0
1856,50.0,15,14,3.0,0.0
1857,62.0,0,53,5.0,0.0
1858,69.0,0,53,12.0,0.0
1859,62.0,0,53,4.0,0.0
1860,66.0,0,53,11.0,0.0
1861,62.0,6,53,10.0,0.0
1862,50.0,15,14,3.0,0.0
1863,50.0,9,14,3.0,0.0
1864,50.0,15,14,3.0,0.0
1865,69.0,6,173,12.0,0.0
1866,74.0,0,119,2.0,0.0
1867,78.0,0,119,1.0,0.0
1868,66.0,0,173,11.0,0.0
1869,71.0,6,293,10.0,0.0
1870,71.0,0,293,5.0,0.0
1871,81.0,0,119,0.0,0.0
1872,71.0,0,293,4.0,0.0
1873,50.0,15,14,3.0,0.0
1874,50.0,15,14,3.0,0.0
1875,50.0,15,14,3.0,0.0
1876,50.0,15,14,3.0,0.0
1877,50.0,15,14,3.0,0.0
1878,50.0,15,14,3.0,0.0
1879,50.0,15,14,3.0,0.0
1880,50.0,15,14,3.0,0.0
1881,50.0,15,14,3.0,0.0
1882,50.0,15,14,3.0,0.0
1883,50.0,9,14,3.0,0.0
1884,50.0,15,14,3.0,0.0
1885,50.0,15,14,3.0,0.0
1886,66.0,0,53,12.0,0.0
1887,62.0,6,53,11.0,0.0
1888,50.0,15,14,3.0,0.0
1889,50.0,9,14,3.0,0.0
1890,50.0,15,14,3.0,0.0
1891,66.0,0,173,12.0,0.0
1892,62.0,0,173,11.0,0.0
1893,50.0,15,14,3.0,0.0
1894,50.0,15,14,3.0,0.0
1895,50.0,9,14,3.0,0.0
1896,50.0,15,14,3.0,0.0
1897,74.0,6,53,4.0,0.0
1898,74.0,0,53,5.0,0.0
1899,74.0,0,53,10.0,0.0
1900,50.0,15,14,3.0,0.0
1901,50.0,15,14,3.0,0.0
1902,50.0,9,14,3.0,0.0
1903,50.0,15,14,3.0,0.0
1904,73.0,0,53,5.0,0.0
1905,50.0,15,14,3.0,0.0
1906,73.0,0,53,10.0,0.0
1907,73.0,6,53,4.0,0.0
1908,50.0,15,14,3.0,0.0
1909,50.0,9,14,3.0,0.0
1910,50.0,15,14,3.0,0.0
1911,71.0,6,53,4.0,0.0
1912,71.0,0,53,11.0,0.0
1913,71.0,0,53,5.0,0.0
1914,62.0,0,53,12.0,0.0
1915,71.0,0,53,10.0,0.0
1916,50.0,15,14,3.0,0.0
1917,50.0,15,14,3.0,0.0
1918,50.0,9,14,3.0,0.0
1919,50.0,15,14,3.0,0.0
1920,71.0,0,173,11.0,0.0
1921,79.0,0,293,4.0,0.0
1922,50.0,15,14,3.0,0.0
1923,83.0,0,119,0.0,0.0
1924,62.0,6,173,12.0,0.0
1925,79.0,6,293,5.0,0.0
1926,79.0,15,119,1.0,0.0
1927,79.0,0,293,10.0,0.0
1928,50.0,0,959,13.0,0.0
1929,74.0,0,119,2.0,0.0
1930,50.0,174,959,14.0,0.0
1931,50.0,15,14,3.0,0.0
1932,50.0,15,14,3.0,0.0
1933,50.0,15,14,3.0,0.0
1934,50.0,15,14,3.0,0.0
1935,50.0,15,14,3.0,0.0
1936,50.0,15,14,3.0,0.0
1937,50.0,0,14,3.0,0.0
1938,50.0,15,14,3.0,0.0
1939,50.0,15,14,3.0,0.0
1940,50.0,9,14,3.0,0.0
1941,50.0,15,14,3.0,0.0
1942,67.0,6,53,11.0,0.0
1943,50.0,15,14,3.0,0.0
1944,71.0,0,53,12.0,0.0
1945,50.0,15,14,3.0,0.0
1946,50.0,9,14,3.0,0.0
1947,50.0,15,14,3.0,0.0
1948,71.0,0,173,12.0,0.0
1949,67.0,0,173,11.0,0.0
1950,50.0,15,14,3.0,0.0
1951,50.0,15,14,3.0,0.0
1952,50.0,9,14,3.0,0.0
1953,50.0,15,14,3.0,0.0
1954,76.0,0,53,4.0,0.0
1955,50.0,15,14,3.0,0.0
1956,76.0,6,53,10.0,0.0
1957,76.0,0,53,5.0,0.0
1958,50.0,15,14,3.0,0.0
1959,50.0,9,14,3.0,0.0
1960,50.0,15,14,3.0,0.0
1961,78.0,0,53,4.0,0.0
1962,50.0,15,14,3.0,0.0
1963,78.0,0,53,5.0,0.0
1964,78.0,6,53,10.0,0.0
1965,50.0,15,14,3.0,0.0
1966,50.0,9,14,3.0,0.0
1967,50.0,15,14,3.0,0.0
1968,79.0,6,53,10.0,0.0
1969,79.0,0,53,5.0,0.0
1970,50.0,15,14,3.0,0.0
1971,64.0,0,53,11.0,0.0
1972,79.0,0,53,4.0,0.0
1973,67.0,0,53,12.0,0.0
1974,50.0,15,14,3.0,0.0
1975,50.0,9,14,3.0,0.0
1976,50.0,15,14,3.0,0.0
1977,67.0,0,173,12.0,0.0
1978,73.0,0,293,4.0,0.0
1979,64.0,6,173,11.0,0.0
1980,79.0,0,119,0.0,0.0
1981,73.0,6,293,5.0,0.0
1982,73.0,0,293,10.0,0.0
1983,76.0,0,119,1.0,0.0
1984,69.0,15,119,2.0,0.0
1985,50.0,15,14,3.0,0.0
1986,50.0,15,14,3.0,0.0
1987,50.0,15,14,3.0,0.0
1988,50.0,15,14,3.0,0.0
1989,50.0,15,14,3.0,0.0
1990,50.0,15,14,3.0,0.0
1991,50.0,15,14,3.0,0.0
1992,50.0,0,14,3.0,0.0
1993,50.0,15,14,3.0,0.0
1994,50.0,15,14,3.0,0.0
1995,50.0,9,14,3.0,0.0
1996,50.0,15,14,3.0,0.0
1997,67.0,0,53,12.0,0.0
1998,50.0,15,14,3.0,0.0
1999,76.0,6,53,11.0,0.0
2000,50.0,15,14,3.0,0.0
2001,50.0,9,14,3.0,0.0
2002,50.0,15,14,3.0,0.0
2003,76.0,0,173,11.0,0.0
2004,50.0,15,14,3.0,0.0
2005,67.0,0,173,12.0,0.0
2006,50.0,15,14,3.0,0.0
2007,50.0,9,14,3.0,0.0
2008,50.0,15,14,3.0,0.0
2009,69.0,6,53,5.0,0.0
2010,69.0,0,53,4.0,0.0
2011,50.0,15,14,3.0,0.0
2012,69.0,0,53,10.0,0.0
2013,50.0,15,14,3.0,0.0
2014,50.0,9,14,3.0,0.0
2015,50.0,15,14,3.0,0.0
2016,71.0,0,53,10.0,0.0
2017,71.0,6,53,5.0,0.0
2018,71.0,0,53,4.0,0.0
2019,50.0,15,14,3.0,0.0
2020,50.0,15,14,3.0,0.0
2021,50.0,9,14,3.0,0.0
2022,50.0,15,14,3.0,0.0
2023,73.0,0,53,5.0,0.0
2024,64.0,0,53,12.0,0.0
2025,50.0,15,14,3.0,0.0
2026,73.0,0,53,10.0,0.0
2027,73.0,6,53,4.0,0.0
2028,73.0,0,53,11.0,0.0
2029,50.0,15,14,3.0,0.0
2030,50.0,9,14,3.0,0.0
2031,50.0,0,14,3.0,0.0
2032,50.0,6,293,13.0,0.0
2033,50.0,54,179,3.0,0.0
2034,64.0,0,347,10.0,0.0
2035,67.0,6,173,12.0,0.0
2036,64.0,0,347,4.0,0.0
2037,50.0,48,299,14.0,0.0
2038,73.0,0,173,11.0,0.0
2039,64.0,6,347,5.0,0.0
2040,67.0,0,53,11.0,0.0
2041,69.0,0,53,2.0,0.0
2042,50.0,54,59,3.0,0.0
2043,61.0,0,53,12.0,0.0
2044,79.0,6,53,0.0,0.0
2045,76.0,0,53,1.0,0.0
2046,67.0,0,173,11.0,0.0
2047,61.0,6,173,12.0,0.0
2048,79.0,0,173,0.0,0.0
2049,69.0,0,173,2.0,0.0
2050,76.0,0,173,1.0,0.0
2051,50.0,0,59,3.0,0.0
2052,50.0,54,59,3.0,0.0
2053,54.0,6,53,13.0,0.0
2054,54.0,0,59,14.0,0.0
2055,64.0,0,107,4.0,0.0
2056,52.0,48,59,14.0,0.0
2057,52.0,0,53,13.0,0.0
2058,50.0,0,59,3.0,0.0
2059,64.0,0,107,5.0,0.0
2060,64.0,6,107,10.0,0.0
2061,50.0,0,53,13.0,0.0
2062,50.0,174,59,14.0,0.0
2063,64.0,0,53,12.0,0.0
2064,76.0,0,53,0.0,0.0
2065,81.0,0,53,1.0,0.0
2066,79.0,6,53,11.0,0.0
2067,69.0,0,53,2.0,0.0
2068,50.0,0,59,3.0,0.0
2069,76.0,0,173,5.0,0.0
2070,76.0,0,173,4.0,0.0
2071,49.0,0,173,13.0,0.0
2072,49.0,0,179,14.0,0.0
2073,57.0,0,173,12.0,0.0
2074,76.0,0,173,0.0,0.0
2075,81.0,0,173,1.0,0.0
2076,76.0,0,173,10.0,0.0
2077,45.0,54,179,3.0,0.0
2078,79.0,0,173,11.0,0.0
2079,69.0,6,173,2.0,0.0
2080,69.0,0,53,2.0,0.0
2081,73.0,6,53,5.0,0.0
2082,52.0,0,53,13.0,0.0
2083,73.0,0,53,10.0,0.0
2084,76.0,0,53,11.0,0.0
2085,52.0,174,59,14.0,0.0
2086,76.0,0,53,1.0,0.0
2087,73.0,0,53,4.0,0.0
2088,69.0,0,53,12.0,0.0
2089,45.0,0,59,3.0,0.0
2090,81.0,0,53,0.0,0.0
2091,69.0,0,173,10.0,0.0
2092,49.0,0,173,13.0,0.0
2093,45.0,54,179,3.0,0.0
2094,69.0,0,173,12.0,0.0
2095,69.0,0,173,5.0,0.0
2096,76.0,0,173,1.0,0.0
2097,69.0,0,173,4.0,0.0
2098,76.0,6,173,11.0,0.0
2099,69.0,0,173,2.0,0.0
2100,49.0,0,179,14.0,0.0
2101,81.0,0,173,0.0,0.0
2102,67.0,0,53,5.0,0.0
2103,67.0,0,53,10.0,0.0
2104,76.0,0,53,0.0,0.0
2105,45.0,15,59,14.0,0.0
2106,69.0,0,53,12.0,0.0
2107,76.0,6,53,1.0,0.0
2108,45.0,0,59,3.0,0.0
2109,67.0,0,53,4.0,0.0
2110,73.0,0,53,11.0,0.0
2111,69.0,0,53,2.0,0.0
2112,45.0,0,53,13.0,0.0
2113,74.0,0,173,1.0,0.0
2114,69.0,0,173,2.0,0.0
2115,69.0,0,653,12.0,0.0
2116,66.0,0,173,4.0,0.0
2117,66.0,0,173,5.0,0.0
2118,50.0,15,539,14.0,0.0
2119,74.0,0,653,11.0,0.0
2120,50.0,6,533,13.0,0.0
2121,78.0,0,173,0.0,0.0
2122,66.0,6,173,10.0,0.0
2123,50.0,15,14,3.0,0.0
2124,50.0,15,14,3.0,0.0
2125,50.0,15,14,3.0,0.0
2126,50.0,15,14,3.0,0.0
2127,50.0,15,14,3.0,0.0
2128,50.0,15,14,3.0,0.0
2129,50.0,15,14,3.0,0.0
2130,50.0,15,14,3.0,0.0
2131,50.0,15,14,3.0,0.0
2132,50.0,15,14,3.0,0.0
2133,50.0,9,14,3.0,0.0
2134,50.0,15,14,3.0,0.0
2135,78.0,0,53,1.0,0.0
2136,74.0,0,53,2.0,0.0
2137,50.0,15,14,3.0,0.0
2138,62.0,6,53,4.0,0.0
2139,62.0,0,53,10.0,0.0
2140,62.0,0,53,5.0,0.0
2141,81.0,0,53,0.0,0.0
2142,50.0,15,14,3.0,0.0
2143,50.0,9,14,3.0,0.0
2144,50.0,15,14,3.0,0.0
2145,66.0,0,173,5.0,0.0
2146,66.0,0,173,10.0,0.0
2147,81.0,0,173,0.0,0.0
2148,78.0,0,173,1.0,0.0
2149,74.0,6,173,2.0,0.0
2150,50.0,15,14,3.0,0.0
2151,66.0,0,173,4.0,0.0
2152,50.0,15,14,3.0,0.0
2153,50.0,15,14,3.0,0.0
2154,50.0,15,14,3.0,0.0
2155,50.0,15,14,3.0,0.0
2156,50.0,15,14,3.0,0.0
2157,50.0,15,14,3.0,0.0
2158,50.0,15,14,3.0,0.0
2159,50.0,15,14,3.0,0.0
2160,50.0,15,14,3.0,0.0
2161,50.0,9,14,3.0,0.0
2162,50.0,15,14,3.0,0.0
2163,69.0,0,53,2.0,0.0
2164,74.0,0,53,1.0,0.0
2165,69.0,6,53,10.0,0.0
2166,78.0,0,53,0.0,0.0
2167,50.0,15,14,3.0,0.0
2168,69.0,0,53,4.0,0.0
2169,69.0,0,53,5.0,0.0
2170,50.0,15,14,3.0,0.0
2171,50.0,9,14,3.0,0.0
2172,50.0,15,14,3.0,0.0
2173,74.0,0,173,1.0,0.0
2174,74.0,0,173,10.0,0.0
2175,74.0,0,173,4.0,0.0
2176,69.0,6,173,2.0,0.0
2177,78.0,0,173,0.0,0.0
2178,50.0,15,14,3.0,0.0
2179,74.0,0,173,5.0,0.0
2180,50.0,15,14,3.0,0.0
2181,50.0,9,14,3.0,0.0
2182,50.0,0,14,3.0,0.0
2183,50.0,15,14,3.0,0.0
2184,50.0,0,59,14.0,0.0
2185,50.0,6,53,13.0,0.0
2186,50.0,15,14,3.0,0.0
2187,50.0,9,14,3.0,0.0
2188,50.0,15,14,3.0,0.0
2189,49.0,0,53,13.0,0.0
2190,49.0,0,59,14.0,0.0
2191,50.0,15,14,3.0,0.0
2192,50.0,15,14,3.0,0.0
2193,50.0,9,14,3.0,0.0
2194,50.0,15,14,3.0,0.0
2195,47.0,15,59,14.0,0.0
2196,74.0,0,53,0.0,0.0
2197,47.0,0,53,13.0,0.0
2198,69.0,0,53,4.0,0.0
2199,66.0,0,53,2.0,0.0
2200,62.0,0,53,12.0,0.0
2201,66.0,6,53,11.0,0.0
2202,69.0,0,53,5.0,0.0
2203,69.0,0,53,10.0,0.0
2204,69.0,0,53,1.0,0.0
2205,50.0,15,14,3.0,0.0
2206,50.0,15,14,3.0,0.0
2207,50.0,9,14,3.0,0.0
2208,50.0,0,14,3.0,0.0
2209,45.0,15,59,14.0,0.0
2210,74.0,0,173,0.0,0.0
2211,66.0,0,173,2.0,0.0
2212,74.0,0,173,4.0,0.0
2213,74.0,0,173,10.0,0.0
2214,69.0,6,173,11.0,0.0
2215,74.0,0,173,5.0,0.0
2216,69.0,0,173,1.0,0.0
2217,45.0,6,53,13.0,0.0
2218,50.0,15,14,3.0,0.0
2219,66.0,0,173,12.0,0.0
2220,50.0,15,14,3.0,0.0
2221,50.0,9,14,3.0,0.0
2222,50.0,0,14,3.0,0.0
2223,43.0,0,59,14.0,0.0
2224,50.0,15,14,3.0,0.0
2225,43.0,6,53,13.0,0.0
2226,50.0,15,14,3.0,0.0
2227,50.0,9,14,3.0,0.0
2228,50.0,15,14,3.0,0.0
2229,50.0,15,14,3.0,0.0
2230,42.0,0,59,14.0,0.0
2231,42.0,0,53,13.0,0.0
2232,50.0,15,14,3.0,0.0
2233,50.0,9,14,3.0,0.0
2234,50.0,15,14,3.0,0.0
2235,62.0,0,53,2.0,0.0
2236,69.0,0,53,0.0,0.0
2237,40.0,0,59,14.0,0.0
2238,73.0,0,53,11.0,0.0
2239,67.0,0,53,12.0,0.0
2240,50.0,15,14,3.0,0.0
2241,76.0,0,53,4.0,0.0
2242,40.0,0,53,13.0,0.0
2243,66.0,6,53,1.0,0.0
2244,76.0,0,53,5.0,0.0
2245,76.0,0,53,10.0,0.0
2246,50.0,15,14,3.0,0.0
2247,50.0,9,14,3.0,0.0
2248,50.0,174,14,3.0,0.0
2249,78.0,60,293,4.0,0.0
2250,38.0,6,467,13.0,0.0
2251,38.0,120,479,14.0,0.0
2252,66.0,0,173,1.0,0.0
2253,69.0,0,173,12.0,0.0
2254,74.0,6,173,11.0,0.0
2255,50.0,20,179,3.0,0.0
2256,62.0,0,173,2.0,0.0
2257,78.0,0,293,10.0,0.0
2258,78.0,0,293,5.0,0.0
2259,69.0,0,173,0.0,0.0
2260,50.0,20,19,3.0,0.0
2261,69.0,0,53,2.0,0.0
2262,74.0,0,53,12.0,0.0
2263,69.0,0,53,0.0,0.0
2264,69.0,6,53,1.0,0.0
2265,78.0,0,53,11.0,0.0
2266,50.0,14,19,3.0,0.0
2267,50.0,54,19,3.0,0.0
2268,69.0,0,173,2.0,0.0
2269,78.0,0,173,11.0,0.0
2270,69.0,6,173,0.0,0.0
2271,74.0,0,173,12.0,0.0
2272,69.0,0,173,1.0,0.0
2273,50.0,48,179,3.0,0.0
2274,79.0,60,53,4.0,0.0
2275,79.0,0,53,5.0,0.0
2276,79.0,0,53,10.0,0.0
2277,81.0,0,53,4.0,0.0
2278,81.0,0,53,10.0,0.0
2279,81.0,0,53,5.0,0.0
2280,74.0,0,53,11.0,0.0
2281,78.0,0,53,4.0,0.0
2282,66.0,0,53,1.0,0.0
2283,50.0,0,59,3.0,0.0
2284,78.0,6,53,5.0,0.0
2285,66.0,0,53,2.0,0.0
2286,66.0,0,53,0.0,0.0
2287,78.0,0,53,10.0,0.0
2288,69.0,0,53,12.0,0.0
2289,66.0,60,173,12.0,0.0
2290,50.0,54,119,3.0,0.0
2291,62.0,0,119,2.0,0.0
2292,62.0,0,119,0.0,0.0
2293,83.0,0,293,10.0,0.0
2294,74.0,0,173,11.0,0.0
2295,83.0,60,293,5.0,0.0
2296,62.0,0,119,1.0,0.0
2297,50.0,54,659,14.0,0.0
2298,83.0,0,293,4.0,0.0
2299,50.0,6,653,13.0,0.0
2300,71.0,0,53,11.0,0.0
2301,62.0,60,53,12.0,0.0
2302,71.0,0,173,11.0,0.0
2303,62.0,0,173,12.0,0.0
2304,80.0,0,53,5.0,0.0
2305,80.0,0,53,10.0,0.0
2306,80.0,60,53,4.0,0.0
2307,81.0,0,53,10.0,0.0
2308,81.0,0,53,4.0,0.0
2309,81.0,60,53,5.0,0.0
2310,83.0,0,53,10.0,0.0
2311,83.0,180,53,5.0,0.0
2312,59.0,0,53,12.0,0.0
2313,68.0,0,53,11.0,0.0
2314,83.0,0,53,4.0,0.0
2315,76.0,0,293,4.0,0.0
2316,59.0,0,173,12.0,0.0
2317,76.0,60,293,5.0,0.0
2318,76.0,0,293,10.0,0.0
2319,68.0,0,173,11.0,0.0
2320,56.0,0,53,12.0,0.0
2321,50.0,54,59,14.0,0.0
2322,50.0,6,53,13.0,0.0
2323,71.0,0,53,11.0,0.0
2324,56.0,0,173,12.0,0.0
2325,71.0,0,173,11.0,0.0
2326,49.0,6,173,13.0,0.0
2327,49.0,54,179,14.0,0.0
2328,76.0,0,53,10.0,0.0
2329,76.0,0,53,5.0,0.0
2330,76.0,60,53,4.0,0.0
2331,78.0,0,53,5.0,0.0
2332,78.0,0,53,4.0,0.0
2333,78.0,0,53,10.0,0.0
2334,59.0,0,53,12.0,0.0
2335,68.0,6,53,11.0,0.0
2336,47.0,174,59,14.0,0.0
2337,80.0,0,53,10.0,0.0
2338,80.0,0,53,4.0,0.0
2339,80.0,0,53,5.0,0.0
2340,47.0,0,53,13.0,0.0
2341,81.0,54,173,5.0,0.0
2342,64.0,0,227,11.0,0.0
2343,49.0,0,227,13.0,0.0
2344,49.0,174,239,14.0,0.0
2345,64.0,6,227,12.0,0.0
2346,81.0,0,173,4.0,0.0
2347,81.0,0,173,10.0,0.0
2348,76.0,6,53,10.0,0.0
2349,76.0,0,53,4.0,0.0
2350,76.0,0,53,5.0,0.0
2351,54.0,6,227,13.0,0.0
2352,73.0,54,173,10.0,0.0
2353,66.0,0,227,12.0,0.0
2354,54.0,54,239,14.0,0.0
2355,73.0,0,173,4.0,0.0
2356,73.0,0,173,5.0,0.0
2357,69.0,0,413,11.0,0.0
2358,69.0,0,53,5.0,0.0
2359,69.0,6,53,10.0,0.0
2360,69.0,0,53,4.0,0.0
2361,66.0,0,173,12.0,0.0
2362,74.0,0,347,10.0,0.0
2363,47.0,54,59,14.0,0.0
2364,47.0,6,53,13.0,0.0
2365,74.0,0,347,4.0,0.0
2366,74.0,6,347,5.0,0.0
2367,49.0,54,59,14.0,0.0
2368,49.0,6,53,13.0,0.0
2369,50.0,6,53,13.0,0.0
2370,50.0,54,59,14.0,0.0
2371,68.0,6,53,11.0,0.0
2372,64.0,0,53,12.0,0.0
2373,52.0,54,59,14.0,0.0
2374,52.0,0,53,13.0,0.0
2375,54.0,6,53,13.0,0.0
2376,54.0,48,59,14.0,0.0
2377,62.0,6,173,12.0,0.0
2378,69.0,0,173,11.0,0.0
2379,56.0,54,59,14.0,0.0
2380,56.0,6,53,13.0,0.0
2381,57.0,0,53,13.0,0.0
2382,74.0,6,107,5.0,0.0
2383,57.0,48,59,14.0,0.0
2384,74.0,0,107,10.0,0.0
2385,74.0,0,107,4.0,0.0
2386,54.0,174,59,14.0,0.0
2387,61.0,0,53,12.0,0.0
2388,71.0,6,53,11.0,0.0
2389,54.0,0,53,13.0,0.0
2390,74.0,0,173,4.0,0.0
2391,74.0,0,173,10.0,0.0
2392,74.0,32,173,5.0,0.0
2393,59.0,8,227,12.0,0.0
2394,56.0,12,347,13.0,0.0
2395,64.0,0,227,11.0,0.0
2396,56.0,54,359,14.0,0.0
2397,76.0,0,25,10.0,0.0
2398,76.0,22,25,5.0,0.0
2399,76.0,0,25,4.0,0.0
2400,78.0,0,25,5.0,0.0
2401,78.0,0,25,10.0,0.0
2402,78.0,112,25,4.0,0.0
2403,76.0,0,173,10.0,0.0
2404,76.0,6,173,5.0,0.0
2405,71.0,0,227,11.0,0.0
2406,64.0,6,227,12.0,0.0
2407,76.0,0,173,4.0,0.0
2408,54.0,48,59,14.0,0.0
2409,54.0,0,53,13.0,0.0
2410,74.0,0,53,4.0,0.0
2411,74.0,0,53,5.0,0.0
2412,74.0,6,53,10.0,0.0
2413,56.0,0,53,13.0,0.0
2414,56.0,174,59,14.0,0.0
2415,73.0,0,173,10.0,0.0
2416,73.0,0,173,5.0,0.0
2417,73.0,0,173,4.0,0.0
2418,57.0,54,1019,14.0,0.0
2419,64.0,0,173,12.0,0.0
2420,69.0,60,173,11.0,0.0
2421,57.0,6,1013,13.0,0.0
2422,69.0,0,53,4.0,0.0
2423,64.0,0,53,11.0,0.0
2424,61.0,0,53,12.0,0.0
2425,69.0,0,53,10.0,0.0
2426,69.0,180,53,5.0,0.0
2427,73.0,0,173,10.0,0.0
2428,73.0,0,173,4.0,0.0
2429,73.0,0,173,5.0,0.0
2430,69.0,60,173,11.0,0.0
2431,64.0,0,173,12.0,0.0
2432,67.0,0,53,12.0,0.0
2433,76.0,0,53,5.0,0.0
2434,71.0,180,53,11.0,0.0
2435,76.0,0,53,4.0,0.0
2436,76.0,0,53,10.0,0.0
2437,72.0,66,347,11.0,0.0
2438,81.0,0,173,4.0,0.0
2439,81.0,0,173,5.0,0.0
2440,81.0,0,173,10.0,0.0
2441,66.0,32,173,12.0,0.0
2442,79.0,0,25,5.0,0.0
2443,79.0,28,25,4.0,0.0
2444,63.0,2,53,12.0,0.0
2445,79.0,0,25,10.0,0.0
2446,78.0,0,25,10.0,0.0
2447,78.0,112,25,4.0,0.0
2448,78.0,0,25,5.0,0.0
2449,79.0,0,173,4.0,0.0
2450,79.0,0,173,10.0,0.0
2451,79.0,54,173,5.0,0.0
2452,64.0,0,173,12.0,0.0
2453,72.0,6,107,11.0,0.0
2454,76.0,0,53,10.0,0.0
2455,76.0,0,53,4.0,0.0
2456,67.0,60,53,12.0,0.0
2457,76.0,0,53,5.0,0.0
2458,66.0,0,227,12.0,0.0
2459,83.0,0,347,4.0,0.0
2460,83.0,6,347,10.0,0.0
2461,63.0,6,227,11.0,0.0
2462,83.0,0,347,5.0,0.0
2463,55.0,6,53,13.0,0.0
2464,55.0,54,59,14.0,0.0
2465,54.0,6,53,13.0,0.0
2466,54.0,48,59,14.0,0.0
2467,52.0,6,53,13.0,0.0
2468,52.0,54,59,14.0,0.0
2469,66.0,0,227,11.0,0.0
2470,71.0,0,413,12.0,0.0
2471,51.0,6,53,13.0,0.0
2472,51.0,48,59,14.0,0.0
2473,49.0,54,59,14.0,0.0
2474,49.0,6,53,13.0,0.0
2475,75.0,0,107,4.0,0.0
2476,75.0,6,107,5.0,0.0
2477,47.0,6,53,13.0,0.0
2478,75.0,0,107,10.0,0.0
2479,47.0,48,59,14.0,0.0
2480,45.0,6,53,13.0,0.0
2481,45.0,174,59,14.0,0.0
2482,43.0,6,173,13.0,0.0
2483,43.0,54,179,14.0,0.0
2484,71.0,0,173,11.0,0.0
2485,76.0,0,173,4.0,0.0
2486,76.0,0,173,10.0,0.0
2487,76.0,0,173,5.0,0.0
2488,43.0,15,59,14.0,0.0
2489,71.0,0,53,11.0,0.0
2490,43.0,0,53,13.0,0.0
2491,78.0,0,53,10.0,0.0
2492,64.0,0,53,12.0,0.0
2493,78.0,6,53,5.0,0.0
2494,78.0,0,53,4.0,0.0
2495,78.0,0,14,4.0,0.0
2496,45.0,0,173,13.0,0.0
2497,72.0,0,173,11.0,0.0
2498,64.0,6,173,12.0,0.0
2499,78.0,0,14,5.0,0.0
2500,45.0,0,179,14.0,0.0
2501,78.0,15,14,10.0,0.0
2502,79.0,15,14,4.0,0.0
2503,79.0,0,14,10.0,0.0
2504,79.0,0,14,5.0,0.0
2505,78.0,0,14,10.0,0.0
2506,78.0,15,14,5.0,0.0
2507,78.0,0,14,4.0,0.0
2508,79.0,0,14,5.0,0.0
2509,79.0,15,14,4.0,0.0
2510,79.0,0,14,10.0,0.0
2511,78.0,0,14,4.0,0.0
2512,78.0,0,14,10.0,0.0
2513,78.0,15,14,5.0,0.0
2514,79.0,0,14,10.0,0.0
2515,79.0,15,14,5.0,0.0
2516,79.0,0,14,4.0,0.0
2517,78.0,0,14,4.0,0.0
2518,78.0,0,14,10.0,0.0
2519,78.0,15,14,5.0,0.0
2520,79.0,0,14,4.0,0.0
2521,79.0,0,14,5.0,0.0
2522,79.0,15,14,10.0,0.0
2523,78.0,0,14,5.0,0.0
2524,78.0,15,14,10.0,0.0
2525,78.0,0,14,4.0,0.0
2526,79.0,15,14,4.0,0.0
2527,79.0,0,14,5.0,0.0
2528,79.0,0,14,10.0,0.0
2529,78.0,0,14,4.0,0.0
2530,78.0,9,14,5.0,0.0
2531,78.0,0,14,10.0,0.0
2532,79.0,0,14,4.0,0.0
2533,79.0,0,14,5.0,0.0
2534,79.0,26,14,10.0,0.0
2535,63.0,0,53,12.0,0.0
2536,76.0,0,25,10.0,0.0
2537,71.0,2,53,11.0,0.0
2538,76.0,28,25,4.0,0.0
2539,47.0,0,53,13.0,0.0
2540,47.0,174,59,14.0,0.0
2541,76.0,0,25,5.0,0.0
2542,78.0,0,25,4.0,0.0
2543,78.0,4,25,5.0,0.0
2544,78.0,0,25,10.0,0.0
2545,40.0,6,467,13.0,0.0
2546,79.0,60,293,10.0,0.0
2547,64.0,0,173,12.0,0.0
2548,71.0,60,173,11.0,0.0
2549,40.0,174,479,14.0,0.0
2550,79.0,0,293,4.0,0.0
2551,79.0,0,293,5.0,0.0
2552,71.0,60,53,12.0,0.0
2553,76.0,0,53,11.0,0.0
2554,71.0,0,173,12.0,0.0
2555,76.0,0,173,11.0,0.0
2556,78.0,0,53,5.0,0.0
2557,78.0,60,53,10.0,0.0
2558,78.0,0,53,4.0,0.0
2559,76.0,0,53,5.0,0.0
2560,76.0,0,53,10.0,0.0
2561,76.0,54,53,4.0,0.0
2562,71.0,0,53,11.0,0.0
2563,67.0,0,53,12.0,0.0
2564,74.0,0,53,10.0,0.0
2565,74.0,6,53,5.0,0.0
2566,74.0,0,53,4.0,0.0
2567,72.0,60,173,10.0,0.0
2568,72.0,0,173,5.0,0.0
2569,52.0,54,659,14.0,0.0
2570,64.0,66,347,12.0,0.0
2571,67.0,0,347,11.0,0.0
2572,52.0,6,653,13.0,0.0
2573,72.0,0,173,4.0,0.0
2574,72.0,0,53,4.0,0.0
2575,72.0,0,53,5.0,0.0
2576,72.0,114,53,10.0,0.0
2577,74.0,40,173,4.0,0.0
2578,74.0,0,173,10.0,0.0
2579,74.0,0,173,5.0,0.0
2580,62.0,0,107,12.0,0.0
2581,67.0,6,107,11.0,0.0
2582,76.0,0,33,4.0,0.0
2583,76.0,6,53,10.0,0.0
2584,76.0,14,33,5.0,0.0
2585,71.0,0,19,5.0,0.0
2586,71.0,174,19,4.0,0.0
2587,70.0,0,347,5.0,0.0
2588,61.0,0,347,12.0,0.0
2589,70.0,0,347,4.0,0.0
2590,70.0,0,347,10.0,0.0
2591,66.0,66,347,11.0,0.0
2592,55.0,108,59,14.0,0.0
2593,55.0,6,53,13.0,0.0
2594,54.0,6,173,13.0,0.0
2595,54.0,48,179,14.0,0.0
2596,79.0,0,107,4.0,0.0
2597,79.0,0,107,5.0,0.0
2598,61.0,0,107,12.0,0.0
2599,79.0,0,107,10.0,0.0
2600,70.0,6,107,11.0,0.0
2601,52.0,6,53,13.0,0.0
2602,52.0,174,59,14.0,0.0
2603,71.0,66,347,11.0,0.0
2604,78.0,0,173,5.0,0.0
2605,50.0,54,179,14.0,0.0
2606,78.0,0,173,4.0,0.0
2607,62.0,0,173,12.0,0.0
2608,78.0,6,173,10.0,0.0
2609,50.0,0,173,13.0,0.0
2610,76.0,0,53,5.0,0.0
2611,76.0,0,53,10.0,0.0
2612,49.0,108,59,14.0,0.0
2613,64.0,0,53,12.0,0.0
2614,76.0,0,53,4.0,0.0
2615,49.0,6,53,13.0,0.0
2616,74.0,0,173,4.0,0.0
2617,74.0,6,173,10.0,0.0
2618,47.0,48,179,14.0,0.0
2619,66.0,6,413,12.0,0.0
2620,47.0,0,173,13.0,0.0
2621,74.0,0,173,5.0,0.0
2622,73.0,6,107,11.0,0.0
2623,46.0,174,59,14.0,0.0
2624,73.0,0,53,5.0,0.0
2625,73.0,0,53,4.0,0.0
2626,73.0,6,53,10.0,0.0
2627,46.0,0,53,13.0,0.0
2628,71.0,0,173,11.0,0.0
2629,74.0,0,173,5.0,0.0
2630,74.0,0,173,4.0,0.0
2631,47.0,0,173,13.0,0.0
2632,74.0,0,173,10.0,0.0
2633,47.0,54,179,14.0,0.0
2634,73.0,0,53,5.0,0.0
2635,49.0,174,59,14.0,0.0
2636,70.0,0,53,11.0,0.0
2637,49.0,6,53,13.0,0.0
2638,64.0,0,53,12.0,0.0
2639,73.0,0,53,4.0,0.0
2640,73.0,0,53,10.0,0.0
2641,71.0,6,173,10.0,0.0
2642,71.0,0,173,11.0,0.0
2643,50.0,0,173,13.0,0.0
2644,71.0,0,173,4.0,0.0
2645,50.0,54,179,14.0,0.0
2646,71.0,0,173,5.0,0.0
2647,66.0,0,173,12.0,0.0
2648,67.0,0,53,12.0,0.0
2649,73.0,0,53,4.0,0.0
2650,73.0,6,53,10.0,0.0
2651,52.0,0,53,13.0,0.0
2652,73.0,0,53,5.0,0.0
2653,71.0,0,53,11.0,0.0
2654,52.0,174,59,14.0,0.0
2655,73.0,66,347,5.0,0.0
2656,70.0,0,347,11.0,0.0
2657,73.0,0,347,4.0,0.0
2658,73.0,0,347,10.0,0.0
2659,66.0,8,227,12.0,0.0
2660,54.0,26,179,14.0,0.0
2661,54.0,6,173,13.0,0.0
2662,52.0,18,29,14.0,0.0
2663,52.0,4,25,13.0,0.0
2664,50.0,108,29,14.0,0.0
2665,50.0,4,25,13.0,0.0
2666,52.0,6,173,13.0,0.0
2667,66.0,0,227,12.0,0.0
2668,52.0,48,179,14.0,0.0
2669,71.0,0,107,10.0,0.0
2670,71.0,0,107,5.0,0.0
2671,71.0,6,107,11.0,0.0
2672,71.0,0,107,4.0,0.0
2673,54.0,174,59,14.0,0.0
2674,54.0,6,53,13.0,0.0
2675,71.0,60,173,11.0,0.0
2676,71.0,60,293,10.0,0.0
2677,71.0,0,293,4.0,0.0
2678,51.0,6,533,13.0,0.0
2679,71.0,0,293,5.0,0.0
2680,51.0,54,539,14.0,0.0
2681,66.0,54,479,12.0,0.0
2682,59.0,60,53,11.0,0.0
2683,59.0,0,173,11.0,0.0
2684,71.0,0,53,5.0,0.0
2685,71.0,60,53,10.0,0.0
2686,71.0,0,53,4.0,0.0
2687,69.0,60,53,4.0,0.0
2688,69.0,0,53,5.0,0.0
2689,69.0,0,53,10.0,0.0
2690,68.0,6,53,5.0,0.0
2691,68.0,0,53,4.0,0.0
2692,63.0,0,53,11.0,0.0
2693,68.0,0,53,10.0,0.0
2694,69.0,0,173,10.0,0.0
2695,66.0,6,347,11.0,0.0
2696,69.0,0,173,4.0,0.0
2697,69.0,0,173,5.0,0.0
2698,49.0,6,53,13.0,0.0
2699,49.0,54,59,14.0,0.0
2700,47.0,54,59,14.0,0.0
2701,47.0,6,53,13.0,0.0
2702,78.0,6,53,4.0,0.0
2703,78.0,0,53,5.0,0.0
2704,49.0,54,59,14.0,0.0
2705,49.0,0,53,13.0,0.0
2706,78.0,0,53,10.0,0.0
2707,59.0,0,53,12.0,0.0
2708,71.0,0,173,5.0,0.0
2709,71.0,6,173,4.0,0.0
2710,59.0,0,173,12.0,0.0
2711,51.0,6,53,13.0,0.0
2712,51.0,48,59,14.0,0.0
2713,71.0,0,173,10.0,0.0
2714,49.0,54,59,14.0,0.0
2715,49.0,6,53,13.0,0.0
2716,51.0,48,59,14.0,0.0
2717,66.0,6,107,11.0,0.0
2718,51.0,0,53,13.0,0.0
2719,69.0,0,53,4.0,0.0
2720,63.0,0,53,12.0,0.0
2721,69.0,6,53,5.0,0.0
2722,69.0,0,53,10.0,0.0
2723,47.0,0,53,13.0,0.0
2724,47.0,174,59,14.0,0.0
2725,68.0,60,173,5.0,0.0
2726,52.0,6,533,13.0,0.0
2727,59.0,0,173,12.0,0.0
2728,68.0,0,173,10.0,0.0
2729,68.0,0,173,4.0,0.0
2730,64.0,0,173,11.0,0.0
2731,52.0,54,539,14.0,0.0
2732,64.0,0,53,10.0,0.0
2733,56.0,0,53,12.0,0.0
2734,76.0,0,53,11.0,0.0
2735,64.0,0,53,4.0,0.0
2736,64.0,180,53,5.0,0.0
2737,76.0,60,173,11.0,0.0
2738,59.0,0,173,12.0,0.0
2739,68.0,0,173,5.0,0.0
2740,68.0,0,173,4.0,0.0
2741,68.0,0,173,10.0,0.0
2742,71.0,0,53,4.0,0.0
2743,71.0,0,53,10.0,0.0
2744,71.0,60,53,5.0,0.0
2745,74.0,0,53,11.0,0.0
2746,64.0,0,53,12.0,0.0
2747,68.0,0,347,12.0,0.0
2748,76.0,0,347,10.0,0.0
2749,76.0,0,347,4.0,0.0
2750,76.0,6,347,5.0,0.0
2751,73.0,0,173,11.0,0.0
2752,50.0,6,53,13.0,0.0
2753,50.0,54,59,14.0,0.0
2754,49.0,54,59,14.0,0.0
2755,49.0,6,53,13.0,0.0
2756,50.0,54,59,14.0,0.0
2757,73.0,6,53,11.0,0.0
2758,50.0,0,53,13.0,0.0
2759,52.0,6,53,13.0,0.0
2760,73.0,0,173,11.0,0.0
2761,52.0,48,59,14.0,0.0
2762,50.0,6,53,13.0,0.0
2763,50.0,54,59,14.0,0.0
2764,52.0,6,53,13.0,0.0
2765,76.0,0,107,4.0,0.0
2766,64.0,0,107,12.0,0.0
2767,52.0,48,59,14.0,0.0
2768,76.0,6,107,5.0,0.0
2769,76.0,0,107,10.0,0.0
2770,71.0,0,53,11.0,0.0
2771,49.0,174,59,14.0,0.0
2772,49.0,6,53,13.0,0.0
2773,54.0,54,539,14.0,0.0
2774,76.0,0,293,10.0,0.0
2775,76.0,0,293,5.0,0.0
2776,54.0,0,533,13.0,0.0
2777,76.0,54,293,4.0,0.0
2778,61.0,60,173,12.0,0.0
2779,69.0,6,347,11.0,0.0
2780,69.0,60,53,12.0,0.0
2781,69.0,0,173,12.0,0.0
2782,69.0,60,53,5.0,0.0
2783,69.0,0,53,10.0,0.0
2784,69.0,0,53,4.0,0.0
2785,71.0,0,53,10.0,0.0
2786,71.0,0,53,5.0,0.0
2787,71.0,54,53,4.0,0.0
2788,69.0,6,107,11.0,0.0
2789,73.0,0,53,4.0,0.0
2790,73.0,60,53,10.0,0.0
2791,73.0,0,53,5.0,0.0
2792,67.0,0,53,12.0,0.0
2793,74.0,0,53,4.0,0.0
2794,74.0,6,53,10.0,0.0
2795,74.0,0,53,5.0,0.0
2796,69.0,6,347,11.0,0.0
2797,66.0,0,173,12.0,0.0
2798,73.0,0,53,5.0,0.0
2799,73.0,0,53,4.0,0.0
2800,55.0,54,59,14.0,0.0
2801,73.0,6,53,10.0,0.0
2802,55.0,0,53,13.0,0.0
2803,54.0,54,59,14.0,0.0
2804,54.0,0,53,13.0,0.0
2805,74.0,0,53,5.0,0.0
2806,74.0,0,53,4.0,0.0
2807,74.0,6,53,10.0,0.0
2808,66.0,0,53,12.0,0.0
2809,76.0,0,53,10.0,0.0
2810,52.0,0,53,13.0,0.0
2811,76.0,6,53,4.0,0.0
2812,76.0,0,53,5.0,0.0
2813,52.0,54,59,14.0,0.0
2814,78.0,0,53,10.0,0.0
2815,78.0,0,53,4.0,0.0
2816,78.0,6,53,5.0,0.0
2817,50.0,0,53,13.0,0.0
2818,50.0,48,59,14.0,0.0
2819,66.0,0,173,12.0,0.0
2820,76.0,0,53,5.0,0.0
2821,76.0,6,53,10.0,0.0
2822,52.0,0,53,13.0,0.0
2823,76.0,0,53,4.0,0.0
2824,52.0,54,59,14.0,0.0
2825,50.0,0,53,13.0,0.0
2826,50.0,48,59,14.0,0.0
2827,78.0,0,53,4.0,0.0
2828,69.0,6,107,11.0,0.0
2829,78.0,0,53,10.0,0.0
2830,78.0,6,53,5.0,0.0
2831,49.0,60,59,14.0,0.0
2832,80.0,0,53,10.0,0.0
2833,64.0,6,53,12.0,0.0
2834,49.0,0,53,13.0,0.0
2835,80.0,0,53,5.0,0.0
2836,80.0,0,53,4.0,0.0
2837,81.0,0,59,10.0,0.0
2838,71.0,60,173,11.0,0.0
2839,47.0,6,293,13.0,0.0
2840,62.0,0,653,12.0,0.0
2841,81.0,114,59,4.0,0.0
2842,47.0,0,299,14.0,0.0
2843,81.0,0,59,5.0,0.0
2844,80.0,0,173,10.0,0.0
2845,80.0,0,173,4.0,0.0
2846,80.0,0,173,5.0,0.0
2847,69.0,60,53,11.0,0.0
2848,78.0,0,59,5.0,0.0
2849,78.0,0,59,10.0,0.0
2850,68.0,0,173,11.0,0.0
2851,78.0,54,59,4.0,0.0
2852,76.0,6,173,5.0,0.0
2853,76.0,0,173,10.0,0.0
2854,47.0,6,53,13.0,0.0
2855,47.0,54,59,14.0,0.0
2856,76.0,0,173,4.0,0.0
2857,49.0,54,59,14.0,0.0
2858,49.0,6,53,13.0,0.0
2859,50.0,174,59,14.0,0.0
2860,50.0,0,53,13.0,0.0
2861,66.0,0,53,11.0,0.0
2862,44.0,54,179,14.0,0.0
2863,83.0,0,347,4.0,0.0
2864,83.0,66,347,5.0,0.0
2865,83.0,0,347,10.0,0.0
2866,64.0,6,173,11.0,0.0
2867,44.0,0,173,13.0,0.0
2868,68.0,0,53,11.0,0.0
2869,62.0,0,53,12.0,0.0
2870,40.0,108,59,14.0,0.0
2871,40.0,6,53,13.0,0.0
2872,42.0,48,179,14.0,0.0
2873,42.0,0,173,13.0,0.0
2874,69.0,6,173,11.0,0.0
2875,61.0,0,173,12.0,0.0
2876,74.0,0,107,5.0,0.0
2877,74.0,6,107,4.0,0.0
2878,74.0,0,107,10.0,0.0
2879,59.0,0,53,12.0,0.0
2880,44.0,0,53,13.0,0.0
2881,44.0,174,59,14.0,0.0
2882,71.0,6,53,11.0,0.0
2883,73.0,0,347,10.0,0.0
2884,73.0,0,347,5.0,0.0
2885,45.0,0,173,13.0,0.0
2886,73.0,0,347,4.0,0.0
2887,64.0,6,173,12.0,0.0
2888,45.0,54,179,14.0,0.0
2889,69.0,66,347,11.0,0.0
2890,47.0,0,53,13.0,0.0
2891,47.0,108,59,14.0,0.0
2892,62.0,6,53,12.0,0.0
2893,64.0,0,173,12.0,0.0
2894,49.0,48,179,14.0,0.0
2895,49.0,6,173,13.0,0.0
2896,71.0,6,107,10.0,0.0
2897,71.0,0,107,5.0,0.0
2898,69.0,0,107,11.0,0.0
2899,71.0,0,107,4.0,0.0
2900,50.0,228,59,14.0,0.0
2901,50.0,0,53,13.0,0.0
2902,66.0,6,53,12.0,0.0
2903,71.0,0,347,4.0,0.0
2904,71.0,120,347,5.0,0.0
2905,71.0,0,347,10.0,0.0
2906,52.0,108,239,14.0,0.0
2907,52.0,12,227,13.0,0.0
2908,64.0,0,227,12.0,0.0
2909,68.0,0,347,11.0,0.0
2910,62.0,0,227,12.0,0.0
2911,40.0,15,239,14.0,0.0
2912,40.0,12,227,13.0,0.0
2913,69.0,0,107,4.0,0.0
2914,64.0,0,107,11.0,0.0
2915,69.0,0,107,10.0,0.0
2916,69.0,0,107,5.0,0.0
2917,69.0,0,325,4.0,0.0
2918,69.0,4,325,5.0,0.0
2919,45.0,15,14,3.0,0.0
2920,69.0,6,293,10.0,0.0
2921,45.0,120,479,14.0,0.0
2922,45.0,0,479,13.0,0.0
2923,61.0,0,653,12.0,0.0
2924,64.0,6,173,11.0,0.0
2925,45.0,15,14,3.0,0.0
2926,45.0,15,14,3.0,0.0
2927,45.0,15,14,3.0,0.0
2928,45.0,15,14,3.0,0.0
2929,45.0,15,14,3.0,0.0
2930,45.0,15,14,3.0,0.0
2931,45.0,15,14,3.0,0.0
2932,45.0,15,14,3.0,0.0
2933,45.0,15,14,3.0,0.0
2934,45.0,9,14,3.0,0.0
2935,45.0,15,14,3.0,0.0
2936,85.0,0,53,0.0,0.0
2937,45.0,15,14,3.0,0.0
2938,81.0,6,53,1.0,0.0
2939,76.0,0,53,2.0,0.0
2940,76.0,0,53,11.0,0.0
2941,45.0,15,14,3.0,0.0
2942,45.0,9,14,3.0,0.0
2943,45.0,15,14,3.0,0.0
2944,81.0,0,173,1.0,0.0
2945,45.0,15,14,3.0,0.0
2946,76.0,0,173,11.0,0.0
2947,85.0,2,173,0.0,0.0
2948,76.0,0,173,2.0,0.0
2949,45.0,15,14,3.0,0.0
2950,45.0,9,14,3.0,0.0
2951,45.0,15,14,3.0,0.0
2952,45.0,11,14,3.0,0.0
2953,73.0,2,53,10.0,0.0
2954,45.0,15,14,3.0,0.0
2955,45.0,9,14,3.0,0.0
2956,71.0,0,25,4.0,0.0
2957,71.0,4,25,5.0,0.0
2958,45.0,15,14,3.0,0.0
2959,71.0,0,53,10.0,0.0
2960,73.0,0,25,5.0,0.0
2961,73.0,4,25,4.0,0.0
2962,45.0,11,14,3.0,0.0
2963,45.0,15,14,3.0,0.0
2964,45.0,9,14,3.0,0.0
2965,74.0,4,25,5.0,0.0
2966,74.0,0,25,4.0,0.0
2967,45.0,15,14,3.0,0.0
2968,81.0,0,53,0.0,0.0
2969,73.0,0,53,11.0,0.0
2970,69.0,0,53,10.0,0.0
2971,76.0,2,53,1.0,0.0
2972,76.0,4,25,4.0,0.0
2973,45.0,11,14,3.0,0.0
2974,76.0,0,25,5.0,0.0
2975,69.0,0,53,2.0,0.0
2976,45.0,15,14,3.0,0.0
2977,78.0,4,25,4.0,0.0
2978,78.0,0,25,5.0,0.0
2979,45.0,9,14,3.0,0.0
2980,45.0,0,14,3.0,0.0
2981,79.0,0,173,4.0,0.0
2982,79.0,6,173,5.0,0.0
2983,69.0,0,293,11.0,0.0
2984,76.0,0,119,1.0,0.0
2985,69.0,0,119,2.0,0.0
2986,79.0,0,173,10.0,0.0
2987,45.0,54,179,3.0,0.0
2988,45.0,6,293,13.0,0.0
2989,81.0,54,119,0.0,0.0
2990,45.0,54,299,14.0,0.0
2991,76.0,0,53,5.0,0.0
2992,45.0,54,59,3.0,0.0
2993,61.0,0,53,12.0,0.0
2994,76.0,0,53,4.0,0.0
2995,76.0,6,53,10.0,0.0
2996,78.0,0,173,5.0,0.0
2997,78.0,0,173,10.0,0.0
2998,78.0,0,173,4.0,0.0
2999,62.0,6,173,12.0,0.0
3000,45.0,0,179,3.0,0.0
3001,47.0,0,53,13.0,0.0
3002,47.0,54,59,14.0,0.0
3003,67.0,6,53,11.0,0.0
3004,45.0,0,53,13.0,0.0
3005,66.0,0,53,11.0,0.0
3006,45.0,54,59,14.0,0.0
3007,79.0,0,53,10.0,0.0
3008,45.0,15,59,3.0,0.0
3009,79.0,0,53,5.0,0.0
3010,43.0,0,59,14.0,0.0
3011,64.0,0,53,12.0,0.0
3012,79.0,0,53,4.0,0.0
3013,64.0,0,53,11.0,0.0
3014,43.0,6,53,13.0,0.0
3015,81.0,0,347,5.0,0.0
3016,81.0,0,347,4.0,0.0
3017,62.0,0,347,11.0,0.0
3018,42.0,15,299,14.0,0.0
3019,81.0,6,347,10.0,0.0
3020,42.0,6,293,13.0,0.0
3021,66.0,6,173,12.0,0.0
3022,50.0,15,14,3.0,0.0
3023,50.0,15,14,3.0,0.0
3024,50.0,15,14,3.0,0.0
3025,50.0,15,14,3.0,0.0
3026,50.0,15,14,3.0,0.0
3027,50.0,15,14,3.0,0.0
3028,50.0,15,14,3.0,0.0
3029,50.0,15,14,3.0,0.0
3030,50.0,15,14,3.0,0.0
3031,50.0,15,14,3.0,0.0
3032,50.0,9,14,3.0,0.0
3033,50.0,15,14,3.0,0.0
3034,69.0,0,53,12.0,0.0
3035,69.0,0,53,2.0,0.0
3036,86.0,6,53,0.0,0.0
3037,50.0,15,14,3.0,0.0
3038,78.0,0,53,1.0,0.0
3039,50.0,15,14,3.0,0.0
3040,50.0,9,14,3.0,0.0
3041,50.0,15,14,3.0,0.0
3042,86.0,0,173,0.0,0.0
3043,69.0,0,173,2.0,0.0
3044,78.0,0,173,1.0,0.0
3045,69.0,0,173,12.0,0.0
3046,50.0,15,14,3.0,0.0
3047,50.0,15,14,3.0,0.0
3048,50.0,9,14,3.0,0.0
3049,50.0,0,14,3.0,0.0
3050,43.0,6,53,13.0,0.0
3051,43.0,15,59,14.0,0.0
3052,50.0,15,14,3.0,0.0
3053,50.0,15,14,3.0,0.0
3054,50.0,3,14,3.0,0.0
3055,50.0,0,14,3.0,0.0
3056,42.0,15,59,14.0,0.0
3057,72.0,0,107,5.0,0.0
3058,72.0,6,107,10.0,0.0
3059,42.0,6,53,13.0,0.0
3060,57.0,0,107,11.0,0.0
3061,72.0,0,107,4.0,0.0
3062,50.0,15,14,3.0,0.0
3063,50.0,15,14,3.0,0.0
3064,50.0,9,14,3.0,0.0
3065,50.0,0,14,3.0,0.0
3066,40.0,0,53,13.0,0.0
3067,74.0,6,53,1.0,0.0
3068,66.0,0,53,2.0,0.0
3069,66.0,0,53,12.0,0.0
3070,81.0,0,53,0.0,0.0
3071,40.0,0,59,14.0,0.0
3072,50.0,15,14,3.0,0.0
3073,50.0,15,14,3.0,0.0
3074,50.0,3,14,3.0,0.0
3075,50.0,15,14,3.0,0.0
3076,50.0,26,179,3.0,0.0
3077,38.0,0,179,14.0,0.0
3078,69.0,0,173,11.0,0.0
3079,81.0,0,119,0.0,0.0
3080,74.0,15,119,1.0,0.0
3081,66.0,6,227,12.0,0.0
3082,38.0,6,173,13.0,0.0
3083,66.0,0,119,2.0,0.0
3084,72.0,15,14,4.0,0.0
3085,72.0,0,14,10.0,0.0
3086,72.0,0,14,5.0,0.0
3087,74.0,0,14,5.0,0.0
3088,74.0,0,14,4.0,0.0
3089,74.0,15,14,10.0,0.0
3090,72.0,15,14,10.0,0.0
3091,72.0,0,14,5.0,0.0
3092,72.0,0,14,4.0,0.0
3093,74.0,15,14,10.0,0.0
3094,74.0,0,14,5.0,0.0
3095,74.0,0,14,4.0,0.0
3096,72.0,15,14,5.0,0.0
3097,72.0,0,14,4.0,0.0
3098,72.0,0,14,10.0,0.0
3099,74.0,0,14,4.0,0.0
3100,74.0,0,14,10.0,0.0
3101,74.0,15,14,5.0,0.0
3102,72.0,15,14,4.0,0.0
3103,72.0,0,14,5.0,0.0
3104,72.0,0,14,10.0,0.0
3105,74.0,0,14,5.0,0.0
3106,74.0,0,14,4.0,0.0
3107,74.0,0,14,10.0,0.0
3108,72.0,0,14,10.0,0.0
3109,72.0,15,14,4.0,0.0
3110,72.0,0,14,5.0,0.0
3111,74.0,15,14,5.0,0.0
3112,74.0,0,14,10.0,0.0
3113,74.0,0,14,4.0,0.0
3114,72.0,9,14,4.0,0.0
3115,72.0,0,14,5.0,0.0
3116,72.0,0,14,10.0,0.0
3117,74.0,0,14,5.0,0.0
3118,74.0,0,14,10.0,0.0
3119,74.0,0,14,4.0,0.0
3120,71.0,22,25,10.0,0.0
3121,50.0,0,59,3.0,0.0
3122,71.0,0,25,5.0,0.0
3123,40.0,2,53,13.0,0.0
3124,40.0,174,59,14.0,0.0
3125,67.0,0,53,11.0,0.0
3126,71.0,0,25,4.0,0.0
3127,72.0,0,25,4.0,0.0
3128,72.0,4,25,5.0,0.0
3129,72.0,0,25,10.0,0.0
3130,74.0,6,173,10.0,0.0
3131,74.0,0,173,5.0,0.0
3132,42.0,0,173,13.0,0.0
3133,62.0,0,413,12.0,0.0
3134,42.0,0,179,14.0,0.0
3135,69.0,0,173,11.0,0.0
3136,50.0,54,179,3.0,0.0
3137,74.0,0,173,4.0,0.0
3138,69.0,0,53,4.0,0.0
3139,66.0,0,53,11.0,0.0
3140,38.0,0,53,13.0,0.0
3141,38.0,120,59,14.0,0.0
3142,69.0,0,53,10.0,0.0
3143,50.0,0,59,3.0,0.0
3144,69.0,6,53,5.0,0.0
3145,71.0,60,293,10.0,0.0
3146,67.0,60,173,11.0,0.0
3147,50.0,54,119,3.0,0.0
3148,43.0,6,467,13.0,0.0
3149,43.0,54,479,14.0,0.0
3150,71.0,0,293,5.0,0.0
3151,71.0,0,293,4.0,0.0
3152,66.0,0,53,11.0,0.0
3153,62.0,60,53,12.0,0.0
3154,67.0,0,173,11.0,0.0
3155,64.0,0,173,12.0,0.0
3156,69.0,0,53,5.0,0.0
3157,69.0,60,53,4.0,0.0
3158,69.0,0,53,10.0,0.0
3159,67.0,0,53,5.0,0.0
3160,67.0,0,53,10.0,0.0
3161,67.0,54,53,4.0,0.0
3162,69.0,0,53,11.0,0.0
3163,66.0,0,53,5.0,0.0
3164,66.0,6,53,12.0,0.0
3165,66.0,0,53,4.0,0.0
3166,66.0,0,53,10.0,0.0
3167,71.0,0,173,11.0,0.0
3168,64.0,0,53,4.0,0.0
3169,64.0,60,53,5.0,0.0
3170,67.0,60,173,12.0,0.0
3171,55.0,0,479,13.0,0.0
3172,55.0,15,479,14.0,0.0
3173,64.0,0,53,10.0,0.0
3174,66.0,0,53,10.0,0.0
3175,66.0,0,53,5.0,0.0
3176,66.0,60,53,4.0,0.0
3177,67.0,0,53,5.0,0.0
3178,67.0,0,53,10.0,0.0
3179,67.0,0,53,4.0,0.0
3180,64.0,0,53,12.0,0.0
3181,69.0,0,53,10.0,0.0
3182,69.0,60,53,4.0,0.0
3183,73.0,0,53,11.0,0.0
3184,69.0,0,53,5.0,0.0
3185,71.0,60,53,5.0,0.0
3186,71.0,0,53,10.0,0.0
3187,66.0,0,173,12.0,0.0
3188,74.0,0,173,11.0,0.0
3189,71.0,0,53,4.0,0.0
3190,73.0,0,53,4.0,0.0
3191,73.0,0,53,5.0,0.0
3192,73.0,60,53,10.0,0.0
3193,74.0,60,53,4.0,0.0
3194,74.0,0,53,5.0,0.0
3195,74.0,0,53,10.0,0.0
3196,71.0,0,53,10.0,0.0
3197,71.0,0,53,4.0,0.0
3198,76.0,0,53,11.0,0.0
3199,71.0,6,53,5.0,0.0
3200,67.0,0,53,12.0,0.0
3201,55.0,0,299,14.0,0.0
3202,73.0,0,53,10.0,0.0
3203,73.0,6,53,4.0,0.0
3204,69.0,0,173,11.0,0.0
3205,64.0,0,173,12.0,0.0
3206,55.0,0,293,13.0,0.0
3207,73.0,0,53,5.0,0.0
3208,45.0,15,14,3.0,0.0
3209,45.0,15,14,3.0,0.0
3210,45.0,9,14,3.0,0.0
3211,45.0,15,14,3.0,0.0
3212,45.0,15,14,3.0,0.0
3213,74.0,6,53,5.0,0.0
3214,74.0,0,53,4.0,0.0
3215,74.0,0,53,10.0,0.0
3216,45.0,15,14,3.0,0.0
3217,45.0,9,14,3.0,0.0
3218,45.0,15,14,3.0,0.0
3219,73.0,0,53,10.0,0.0
3220,45.0,15,14,3.0,0.0
3221,73.0,0,53,4.0,0.0
3222,73.0,6,53,5.0,0.0
3223,45.0,15,14,3.0,0.0
3224,45.0,9,14,3.0,0.0
3225,45.0,15,14,3.0,0.0
3226,69.0,0,53,12.0,0.0
3227,71.0,0,53,10.0,0.0
3228,71.0,0,53,5.0,0.0
3229,71.0,0,53,4.0,0.0
3230,45.0,15,14,3.0,0.0
3231,76.0,0,53,0.0,0.0
3232,64.0,0,53,11.0,0.0
3233,69.0,6,53,1.0,0.0
3234,45.0,15,14,3.0,0.0
3235,45.0,9,14,3.0,0.0
3236,45.0,15,14,3.0,0.0
3237,69.0,0,53,10.0,0.0
3238,69.0,0,53,5.0,0.0
3239,76.0,0,173,0.0,0.0
3240,69.0,0,173,1.0,0.0
3241,45.0,15,14,3.0,0.0
3242,69.0,6,53,4.0,0.0
3243,69.0,0,173,12.0,0.0
3244,61.0,0,173,11.0,0.0
3245,45.0,15,14,3.0,0.0
3246,45.0,9,14,3.0,0.0
3247,45.0,15,14,3.0,0.0
3248,71.0,6,53,4.0,0.0
3249,71.0,0,53,10.0,0.0
3250,71.0,0,53,5.0,0.0
3251,54.0,0,53,13.0,0.0
3252,45.0,15,14,3.0,0.0
3253,54.0,0,59,14.0,0.0
3254,45.0,15,14,3.0,0.0
3255,45.0,9,14,3.0,0.0
3256,45.0,15,14,3.0,0.0
3257,45.0,15,14,3.0,0.0
3258,73.0,6,53,10.0,0.0
3259,73.0,0,53,5.0,0.0
3260,52.0,0,53,13.0,0.0
3261,73.0,0,53,4.0,0.0
3262,52.0,15,59,14.0,0.0
3263,45.0,15,14,3.0,0.0
3264,45.0,9,14,3.0,0.0
3265,45.0,0,14,3.0,0.0
3266,74.0,6,53,5.0,0.0
3267,45.0,15,14,3.0,0.0
3268,81.0,0,53,0.0,0.0
3269,74.0,0,53,4.0,0.0
3270,57.0,0,53,11.0,0.0
3271,64.0,0,53,12.0,0.0
3272,50.0,54,59,14.0,0.0
3273,50.0,0,53,13.0,0.0
3274,76.0,0,53,1.0,0.0
3275,74.0,0,53,10.0,0.0
3276,45.0,15,14,3.0,0.0
3277,45.0,9,14,3.0,0.0
3278,45.0,0,14,3.0,0.0
3279,64.0,0,173,12.0,0.0
3280,49.0,0,173,13.0,0.0
3281,76.0,0,53,5.0,0.0
3282,49.0,54,179,14.0,0.0
3283,69.0,0,173,11.0,0.0
3284,76.0,60,53,10.0,0.0
3285,81.0,0,173,0.0,0.0
3286,45.0,0,179,3.0,0.0
3287,76.0,0,53,4.0,0.0
3288,76.0,0,173,1.0,0.0
3289,78.0,60,53,4.0,0.0
3290,78.0,0,53,10.0,0.0
3291,78.0,0,53,5.0,0.0
3292,79.0,0,53,10.0,0.0
3293,79.0,6,53,5.0,0.0
3294,79.0,0,53,4.0,0.0
3295,45.0,0,59,14.0,0.0
3296,81.0,0,53,10.0,0.0
3297,69.0,0,53,2.0,0.0
3298,81.0,0,53,5.0,0.0
3299,45.0,0,53,13.0,0.0
3300,81.0,0,53,0.0,0.0
3301,61.0,0,53,12.0,0.0
3302,45.0,54,59,3.0,0.0
3303,78.0,6,53,1.0,0.0
3304,81.0,0,53,4.0,0.0
3305,66.0,0,53,11.0,0.0
3306,47.0,0,173,13.0,0.0
3307,62.0,0,173,11.0,0.0
3308,62.0,0,173,2.0,0.0
3309,62.0,0,173,12.0,0.0
3310,79.0,0,173,0.0,0.0
3311,50.0,54,179,3.0,0.0
3312,79.0,60,53,4.0,0.0
3313,79.0,0,53,5.0,0.0
3314,79.0,0,53,10.0,0.0
3315,78.0,0,173,1.0,0.0
3316,47.0,0,179,14.0,0.0
3317,78.0,0,53,4.0,0.0
3318,78.0,60,53,5.0,0.0
3319,78.0,0,53,10.0,0.0
3320,79.0,0,53,4.0,0.0
3321,79.0,6,53,5.0,0.0
3322,79.0,0,53,10.0,0.0
3323,76.0,0,53,1.0,0.0
3324,76.0,0,53,5.0,0.0
3325,45.0,120,59,3.0,0.0
3326,76.0,0,53,4.0,0.0
3327,69.0,0,53,11.0,0.0
3328,76.0,0,53,10.0,0.0
3329,49.0,0,53,13.0,0.0
3330,69.0,6,53,2.0,0.0
3331,64.0,0,53,12.0,0.0
3332,49.0,0,59,14.0,0.0
3333,81.0,0,53,0.0,0.0
3334,78.0,6,173,10.0,0.0
3335,50.0,54,179,14.0,0.0
3336,78.0,0,173,0.0,0.0
3337,78.0,0,173,4.0,0.0
3338,69.0,66,347,11.0,0.0
3339,69.0,0,119,1.0,0.0
3340,50.0,54,119,3.0,0.0
3341,62.0,0,347,12.0,0.0
3342,78.0,0,173,5.0,0.0
3343,74.0,0,119,2.0,0.0
3344,50.0,0,173,13.0,0.0
3345,79.0,0,53,5.0,0.0
3346,52.0,0,53,13.0,0.0
3347,79.0,0,53,10.0,0.0
3348,52.0,108,59,14.0,0.0
3349,79.0,0,53,4.0,0.0
3350,79.0,6,53,0.0,0.0
3351,81.0,0,173,0.0,0.0
3352,81.0,0,173,4.0,0.0
3353,81.0,0,173,10.0,0.0
3354,54.0,6,173,13.0,0.0
3355,81.0,0,173,5.0,0.0
3356,54.0,48,179,14.0,0.0
3357,67.0,0,107,11.0,0.0
3358,62.0,6,107,12.0,0.0
3359,83.0,0,53,4.0,0.0
3360,83.0,0,53,0.0,0.0
3361,55.0,54,59,14.0,0.0
3362,83.0,0,53,5.0,0.0
3363,83.0,0,53,10.0,0.0
3364,55.0,6,53,13.0,0.0
3365,57.0,54,59,14.0,0.0
3366,81.0,54,119,2.0,0.0
3367,45.0,0,119,3.0,0.0
3368,64.0,6,173,11.0,0.0
3369,57.0,6,53,13.0,0.0
3370,73.0,0,173,4.0,0.0
3371,69.0,0,173,12.0,0.0
3372,73.0,0,173,5.0,0.0
3373,69.0,0,119,1.0,0.0
3374,76.0,0,173,0.0,0.0
3375,73.0,0,173,10.0,0.0
3376,59.0,0,59,14.0,0.0
3377,59.0,6,53,13.0,0.0
3378,57.0,0,53,13.0,0.0
3379,57.0,54,59,14.0,0.0
3380,55.0,15,59,14.0,0.0
3381,66.0,0,53,11.0,0.0
3382,69.0,0,53,12.0,0.0
3383,74.0,0,53,5.0,0.0
3384,74.0,6,53,4.0,0.0
3385,55.0,0,53,13.0,0.0
3386,81.0,0,53,0.0,0.0
3387,74.0,0,53,10.0,0.0
3388,54.0,0,59,14.0,0.0
3389,66.0,6,173,11.0,0.0
3390,74.0,0,173,0.0,0.0
3391,74.0,0,14,10.0,0.0
3392,54.0,6,53,13.0,0.0
3393,74.0,0,14,5.0,0.0
3394,74.0,15,14,4.0,0.0
3395,69.0,0,173,12.0,0.0
3396,76.0,15,14,4.0,0.0
3397,76.0,0,14,10.0,0.0
3398,76.0,0,14,5.0,0.0
3399,74.0,9,14,10.0,0.0
3400,74.0,0,14,5.0,0.0
3401,74.0,0,14,4.0,0.0
3402,76.0,0,14,4.0,0.0
3403,76.0,0,14,5.0,0.0
3404,76.0,15,14,10.0,0.0
3405,55.0,15,59,14.0,0.0
3406,74.0,0,14,4.0,0.0
3407,74.0,0,14,5.0,0.0
3408,74.0,15,14,10.0,0.0
3409,55.0,6,53,13.0,0.0
3410,76.0,15,14,10.0,0.0
3411,76.0,0,14,4.0,0.0
3412,76.0,0,14,5.0,0.0
3413,74.0,9,14,4.0,0.0
3414,74.0,0,14,5.0,0.0
3415,74.0,0,14,10.0,0.0
3416,76.0,0,14,4.0,0.0
3417,76.0,0,14,10.0,0.0
3418,76.0,0,14,5.0,0.0
3419,74.0,15,14,5.0,0.0
3420,57.0,0,53,13.0,0.0
3421,57.0,26,59,14.0,0.0
3422,74.0,0,14,4.0,0.0
3423,74.0,0,14,10.0,0.0
3424,76.0,0,14,10.0,0.0
3425,76.0,0,14,4.0,0.0
3426,76.0,15,14,5.0,0.0
3427,74.0,0,14,10.0,0.0
3428,74.0,9,14,4.0,0.0
3429,74.0,0,14,5.0,0.0
3430,76.0,0,14,10.0,0.0
3431,76.0,0,14,5.0,0.0
3432,76.0,0,14,4.0,0.0
3433,81.0,0,53,0.0,0.0
3434,59.0,0,53,13.0,0.0
3435,73.0,0,25,10.0,0.0
3436,62.0,0,53,11.0,0.0
3437,73.0,28,25,4.0,0.0
3438,66.0,2,53,12.0,0.0
3439,59.0,54,59,14.0,0.0
3440,73.0,0,25,5.0,0.0
3441,74.0,0,25,4.0,0.0
3442,74.0,4,25,5.0,0.0
3443,74.0,0,25,10.0,0.0
3444,76.0,0,173,4.0,0.0
3445,76.0,0,173,5.0,0.0
3446,76.0,0,173,10.0,0.0
3447,69.0,6,347,11.0,0.0
3448,69.0,6,173,0.0,0.0
3449,61.0,6,53,13.0,0.0
3450,61.0,54,59,14.0,0.0
3451,64.0,0,173,12.0,0.0
3452,59.0,6,53,13.0,0.0
3453,59.0,54,59,14.0,0.0
3454,57.0,54,59,14.0,0.0
3455,57.0,0,53,13.0,0.0
3456,69.0,0,53,4.0,0.0
3457,45.0,0,59,3.0,0.0
3458,81.0,0,53,0.0,0.0
3459,69.0,0,53,10.0,0.0
3460,69.0,0,53,5.0,0.0
3461,59.0,54,59,14.0,0.0
3462,59.0,0,53,13.0,0.0
3463,76.0,0,53,1.0,0.0
3464,69.0,0,53,2.0,0.0
3465,62.0,6,53,12.0,0.0
3466,64.0,0,173,12.0,0.0
3467,76.0,0,173,1.0,0.0
3468,79.0,6,173,5.0,0.0
3469,61.0,48,59,14.0,0.0
3470,79.0,0,173,0.0,0.0
3471,69.0,0,173,2.0,0.0
3472,61.0,6,53,13.0,0.0
3473,79.0,0,173,4.0,0.0
3474,79.0,0,173,10.0,0.0
3475,45.0,20,179,3.0,0.0
3476,62.0,6,53,13.0,0.0
3477,62.0,54,59,14.0,0.0
3478,64.0,0,53,13.0,0.0
3479,69.0,6,107,11.0,0.0
3480,64.0,0,59,14.0,0.0
3481,78.0,0,19,10.0,0.0
3482,45.0,0,59,3.0,0.0
3483,57.0,0,53,12.0,0.0
3484,76.0,0,53,1.0,0.0
3485,78.0,20,19,4.0,0.0
3486,81.0,0,53,0.0,0.0
3487,61.0,0,59,14.0,0.0
3488,78.0,0,19,5.0,0.0
3489,69.0,6,53,2.0,0.0
3490,61.0,0,53,13.0,0.0
3491,76.0,0,19,4.0,0.0
3492,76.0,0,19,10.0,0.0
3493,76.0,8,19,5.0,0.0
3494,78.0,0,19,5.0,0.0
3495,78.0,0,19,4.0,0.0
3496,78.0,15,19,10.0,0.0
3497,62.0,6,227,13.0,0.0
3498,69.0,0,227,12.0,0.0
3499,69.0,0,173,11.0,0.0
3500,78.0,0,14,4.0,0.0
3501,62.0,0,239,14.0,0.0
3502,78.0,0,14,10.0,0.0
3503,69.0,0,173,2.0,0.0
3504,78.0,15,14,5.0,0.0
3505,78.0,0,173,0.0,0.0
3506,74.0,6,173,1.0,0.0
3507,50.0,15,179,3.0,0.0
3508,79.0,0,14,10.0,0.0
3509,79.0,15,14,4.0,0.0
3510,79.0,0,14,5.0,0.0
3511,78.0,15,14,4.0,0.0
3512,78.0,0,14,10.0,0.0
3513,78.0,0,14,5.0,0.0
3514,79.0,0,14,4.0,0.0
3515,79.0,0,14,10.0,0.0
3516,79.0,15,14,5.0,0.0
3517,78.0,0,14,10.0,0.0
3518,78.0,0,14,4.0,0.0
3519,78.0,15,14,5.0,0.0
3520,79.0,0,14,4.0,0.0
3521,79.0,15,14,5.0,0.0
3522,79.0,0,14,10.0,0.0
3523,78.0,0,14,5.0,0.0
3524,78.0,0,14,4.0,0.0
3525,78.0,15,14,10.0,0.0
3526,79.0,0,14,4.0,0.0
3527,79.0,0,14,10.0,0.0
3528,79.0,15,14,5.0,0.0
3529,78.0,0,14,4.0,0.0
3530,78.0,0,14,5.0,0.0
3531,78.0,15,14,10.0,0.0
3532,79.0,15,14,5.0,0.0
3533,79.0,0,14,10.0,0.0
3534,79.0,0,14,4.0,0.0
3535,78.0,0,14,10.0,0.0
3536,78.0,9,14,4.0,0.0
3537,78.0,0,14,5.0,0.0
3538,79.0,0,14,10.0,0.0
3539,79.0,0,14,4.0,0.0
3540,79.0,0,14,5.0,0.0
3541,50.0,15,59,3.0,0.0
3542,78.0,0,14,4.0,0.0
3543,78.0,0,53,1.0,0.0
3544,74.0,0,53,2.0,0.0
3545,78.0,0,14,10.0,0.0
3546,78.0,11,14,5.0,0.0
3547,81.0,2,53,0.0,0.0
3548,74.0,4,25,11.0,0.0
3549,79.0,0,14,10.0,0.0
3550,79.0,15,14,5.0,0.0
3551,79.0,0,14,4.0,0.0
3552,73.0,4,25,11.0,0.0
3553,78.0,0,14,10.0,0.0
3554,78.0,0,14,4.0,0.0
3555,78.0,3,14,5.0,0.0
3556,79.0,0,14,4.0,0.0
3557,79.0,0,14,10.0,0.0
3558,79.0,0,14,5.0,0.0
3559,50.0,6,227,13.0,0.0
3560,86.0,6,173,0.0,0.0
3561,78.0,0,14,4.0,0.0
3562,78.0,0,173,2.0,0.0
3563,50.0,105,239,14.0,0.0
3564,74.0,0,173,11.0,0.0
3565,50.0,48,179,3.0,0.0
3566,78.0,15,14,5.0,0.0
3567,81.0,0,173,1.0,0.0
3568,69.0,0,227,12.0,0.0
3569,78.0,0,14,10.0,0.0
3570,79.0,0,14,5.0,0.0
3571,79.0,0,14,4.0,0.0
3572,79.0,15,14,10.0,0.0
3573,78.0,0,14,4.0,0.0
3574,78.0,0,14,5.0,0.0
3575,78.0,15,14,10.0,0.0
3576,79.0,0,14,5.0,0.0
3577,79.0,0,14,10.0,0.0
3578,79.0,15,14,4.0,0.0
3579,78.0,0,14,5.0,0.0
3580,78.0,0,14,10.0,0.0
3581,78.0,15,14,4.0,0.0
3582,79.0,0,14,5.0,0.0
3583,79.0,15,14,10.0,0.0
3584,79.0,0,14,4.0,0.0
3585,76.0,0,14,10.0,0.0
3586,76.0,0,14,5.0,0.0
3587,76.0,15,14,4.0,0.0
3588,78.0,54,14,4.0,0.0
3589,78.0,0,14,10.0,0.0
3590,78.0,0,14,5.0,0.0
3591,76.0,0,107,10.0,0.0
3592,76.0,0,107,4.0,0.0
3593,76.0,0,107,5.0,0.0
3594,83.0,0,53,0.0,0.0
3595,80.0,0,53,1.0,0.0
3596,74.0,6,53,2.0,0.0
3597,76.0,0,53,11.0,0.0
3598,50.0,0,59,3.0,0.0
3599,76.0,0,239,5.0,0.0
3600,76.0,0,239,2.0,0.0
3601,45.0,0,239,13.0,0.0
3602,69.0,0,239,12.0,0.0
3603,81.0,0,239,1.0,0.0
3604,45.0,0,239,14.0,0.0
3605,76.0,67,104,4.0,0.0
3606,85.0,0,239,0.0,0.0
3607,76.0,0,104,10.0,0.0
3608,73.0,0,239,11.0,0.0
3609,45.0,105,239,3.0,0.0
3610,69.0,60,51,4.0,0.0
3611,69.0,0,51,10.0,0.0
3612,71.0,0,51,4.0,0.0
3613,71.0,8,51,10.0,0.0
3614,73.0,67,104,10.0,0.0
3615,73.0,0,104,4.0,0.0
3616,73.0,0,51,4.0,0.0
3617,73.0,60,51,10.0,0.0
3618,74.0,113,51,4.0,0.0
3619,74.0,0,51,10.0,0.0
3620,76.0,0,104,4.0,0.0
3621,76.0,67,104,10.0,0.0
3622,73.0,60,51,4.0,0.0
3623,73.0,0,51,10.0,0.0
3624,74.0,113,51,10.0,0.0
3625,74.0,0,51,4.0,0.0
3626,76.0,0,104,10.0,0.0
3627,76.0,67,104,4.0,0.0
3628,76.0,0,51,10.0,0.0
3629,76.0,60,51,4.0,0.0
3630,78.0,0,51,10.0,0.0
3631,78.0,113,51,4.0,0.0
3632,79.0,0,104,4.0,0.0
3633,79.0,63,104,10.0,0.0
3634,79.0,60,47,4.0,0.0
3635,79.0,0,47,10.0,0.0
3636,78.0,117,47,10.0,0.0
3637,78.0,0,47,4.0,0.0
3638,79.0,63,104,4.0,0.0
3639,79.0,0,104,10.0,0.0
3640,81.0,0,47,4.0,0.0
3641,81.0,60,47,10.0,0.0
3642,79.0,117,47,4.0,0.0
3643,79.0,0,47,10.0,0.0
3644,78.0,0,104,4.0,0.0
3645,78.0,63,104,10.0,0.0
3646,81.0,3,104,4.0,0.0
3647,62.0,0,47,11.0,0.0
3648,81.0,0,104,10.0,0.0
3649,62.0,57,47,5.0,0.0
3650,64.0,0,47,11.0,0.0
3651,64.0,117,47,5.0,0.0
3652,66.0,0,104,11.0,0.0
3653,74.0,63,104,10.0,0.0
3654,66.0,0,104,5.0,0.0
3655,74.0,0,104,4.0,0.0
3656,66.0,0,47,5.0,0.0
3657,78.0,0,224,10.0,0.0
3658,78.0,0,224,4.0,0.0
3659,66.0,60,47,11.0,0.0
3660,67.0,0,47,11.0,0.0
3661,67.0,117,47,5.0,0.0
3662,69.0,0,104,11.0,0.0
3663,69.0,63,104,5.0,0.0
3664,81.0,3,104,10.0,0.0
3665,81.0,0,104,4.0,0.0
3666,66.0,57,47,11.0,0.0
3667,66.0,0,47,5.0,0.0
3668,67.0,0,47,5.0,0.0
3669,67.0,117,47,11.0,0.0
3670,72.0,0,104,4.0,0.0
3671,72.0,0,104,10.0,0.0
3672,69.0,63,104,11.0,0.0
3673,69.0,0,104,5.0,0.0
3674,69.0,0,47,5.0,0.0
3675,78.0,63,224,4.0,0.0
3676,69.0,60,47,11.0,0.0
3677,78.0,0,224,10.0,0.0
3678,71.0,0,47,5.0,0.0
3679,71.0,117,47,11.0,0.0
3680,72.0,0,104,5.0,0.0
3681,72.0,0,104,11.0,0.0
3682,81.0,3,104,4.0,0.0
3683,72.0,57,47,11.0,0.0
3684,72.0,0,47,5.0,0.0
3685,81.0,0,104,10.0,0.0
3686,71.0,0,47,5.0,0.0
3687,71.0,117,47,11.0,0.0
3688,74.0,0,104,4.0,0.0
3689,72.0,63,104,11.0,0.0
3690,72.0,0,104,5.0,0.0
3691,74.0,0,104,10.0,0.0
3692,78.0,0,104,10.0,0.0
3693,74.0,57,47,11.0,0.0
3694,74.0,0,47,5.0,0.0
3695,78.0,3,104,4.0,0.0
3696,72.0,0,47,5.0,0.0
3697,72.0,117,47,11.0,0.0
3698,79.0,0,104,10.0,0.0
3699,71.0,0,104,11.0,0.0
3700,79.0,63,104,4.0,0.0
3701,71.0,0,104,5.0,0.0
3702,83.0,3,104,4.0,0.0
3703,83.0,0,104,10.0,0.0
3704,67.0,57,47,5.0,0.0
3705,67.0,0,47,11.0,0.0
3706,69.0,0,47,11.0,0.0
3707,69.0,117,47,5.0,0.0
3708,74.0,0,104,10.0,0.0
3709,71.0,0,104,11.0,0.0
3710,74.0,63,104,4.0,0.0
3711,71.0,0,104,5.0,0.0
3712,71.0,60,47,11.0,0.0
3713,80.0,0,224,10.0,0.0
3714,80.0,63,224,4.0,0.0
3715,71.0,0,47,5.0,0.0
3716,73.0,0,47,11.0,0.0
3717,73.0,117,47,5.0,0.0
3718,74.0,0,104,11.0,0.0
3719,74.0,0,104,5.0,0.0
3720,83.0,0,104,10.0,0.0
3721,74.0,0,47,11.0,0.0
3722,74.0,57,47,5.0,0.0
3723,83.0,3,104,4.0,0.0
3724,73.0,0,47,11.0,0.0
3725,73.0,117,47,5.0,0.0
3726,76.0,0,104,4.0,0.0
3727,74.0,0,104,5.0,0.0
3728,76.0,63,104,10.0,0.0
3729,74.0,0,104,11.0,0.0
3730,76.0,57,47,5.0,0.0
3731,80.0,0,104,10.0,0.0
3732,80.0,3,104,4.0,0.0
3733,76.0,0,47,11.0,0.0
3734,74.0,0,47,5.0,0.0
3735,74.0,60,47,11.0,0.0
3736,73.0,0,104,11.0,0.0
3737,81.0,57,47,4.0,0.0
3738,81.0,0,47,10.0,0.0
3739,73.0,3,104,5.0,0.0
3740,76.0,60,47,10.0,0.0
3741,76.0,0,47,4.0,0.0
3742,73.0,0,47,10.0,0.0
3743,76.0,0,104,11.0,0.0
3744,73.0,57,47,4.0,0.0
3745,57.0,0,47,12.0,0.0
3746,76.0,3,104,5.0,0.0
3747,74.0,0,47,4.0,0.0
3748,59.0,0,47,12.0,0.0
3749,74.0,60,47,10.0,0.0
3750,69.0,0,104,11.0,0.0
3751,61.0,3,104,12.0,0.0
3752,76.0,0,47,10.0,0.0
3753,76.0,57,47,4.0,0.0
3754,69.0,0,104,5.0,0.0
3755,78.0,0,47,4.0,0.0
3756,78.0,60,47,10.0,0.0
3757,61.0,0,47,12.0,0.0
3758,76.0,0,47,10.0,0.0
3759,76.0,60,47,4.0,0.0
3760,73.0,0,224,11.0,0.0
3761,73.0,0,224,5.0,0.0
3762,78.0,60,47,4.0,0.0
3763,78.0,0,47,10.0,0.0
3764,62.0,0,47,12.0,0.0
3765,79.0,0,47,10.0,0.0
3766,79.0,57,47,4.0,0.0
3767,64.0,3,104,12.0,0.0
3768,76.0,60,47,4.0,0.0
3769,76.0,0,47,10.0,0.0
3770,76.0,3,104,11.0,0.0
3771,61.0,57,47,12.0,0.0
3772,76.0,0,104,5.0,0.0
3773,69.0,0,47,4.0,0.0
3774,69.0,0,47,10.0,0.0
3775,62.0,0,47,12.0,0.0
3776,71.0,0,47,4.0,0.0
3777,71.0,60,47,10.0,0.0
3778,67.0,0,104,5.0,0.0
3779,73.0,0,47,4.0,0.0
3780,64.0,0,104,12.0,0.0
3781,67.0,3,104,11.0,0.0
3782,73.0,57,47,10.0,0.0
3783,74.0,0,47,10.0,0.0
3784,74.0,60,47,4.0,0.0
3785,64.0,60,47,12.0,0.0
3786,73.0,0,224,11.0,0.0
3787,73.0,0,47,10.0,0.0
3788,73.0,3,224,5.0,0.0
3789,73.0,0,47,4.0,0.0
3790,66.0,0,47,12.0,0.0
3791,74.0,0,47,4.0,0.0
3792,74.0,60,47,10.0,0.0
3793,76.0,57,47,4.0,0.0
3794,76.0,0,47,10.0,0.0
3795,67.0,0,104,12.0,0.0
3796,74.0,0,47,10.0,0.0
3797,74.0,60,47,4.0,0.0
3798,73.0,57,47,10.0,0.0
3799,67.0,0,47,12.0,0.0
3800,73.0,0,47,4.0,0.0
3801,76.0,0,104,11.0,0.0
3802,76.0,3,104,5.0,0.0
3803,66.0,0,47,12.0,0.0
3804,74.0,60,47,4.0,0.0
3805,74.0,0,47,10.0,0.0
3806,69.0,0,104,5.0,0.0
3807,76.0,0,47,4.0,0.0
3808,69.0,0,104,11.0,0.0
3809,67.0,3,104,12.0,0.0
3810,76.0,57,47,10.0,0.0
3811,74.0,60,47,4.0,0.0
3812,74.0,0,47,10.0,0.0
3813,73.0,0,47,4.0,0.0
3814,73.0,57,47,10.0,0.0
3815,73.0,0,104,5.0,0.0
3816,69.0,0,47,12.0,0.0
3817,73.0,3,104,11.0,0.0
3818,71.0,60,47,10.0,0.0
3819,67.0,0,47,12.0,0.0
3820,71.0,0,47,4.0,0.0
3821,74.0,0,47,11.0,0.0
3822,66.0,3,104,12.0,0.0
3823,74.0,0,47,5.0,0.0
3824,69.0,0,47,4.0,0.0
3825,69.0,57,47,10.0,0.0
3826,74.0,0,47,10.0,0.0
3827,69.0,0,47,11.0,0.0
3828,74.0,60,47,4.0,0.0
3829,69.0,0,47,5.0,0.0
3830,66.0,0,47,11.0,0.0
3831,73.0,0,47,10.0,0.0
3832,73.0,12,47,4.0,0.0
3833,50.0,45,59,14.0,0.0
3834,69.0,3,104,12.0,0.0
3835,66.0,0,47,5.0,0.0
3836,50.0,0,47,13.0,0.0
3837,52.0,48,59,14.0,0.0
3838,67.0,0,47,5.0,0.0
3839,67.0,0,47,11.0,0.0
3840,71.0,0,47,10.0,0.0
3841,52.0,0,47,13.0,0.0
3842,71.0,12,47,4.0,0.0
3843,54.0,0,104,13.0,0.0
3844,62.0,3,104,12.0,0.0
3845,69.0,0,47,4.0,0.0
3846,69.0,0,47,10.0,0.0
3847,54.0,48,119,14.0,0.0
3848,69.0,0,47,5.0,0.0
3849,69.0,57,47,11.0,0.0
3850,71.0,0,47,11.0,0.0
3851,67.0,12,47,10.0,0.0
3852,71.0,0,47,5.0,0.0
3853,67.0,0,47,4.0,0.0
3854,66.0,0,47,4.0,0.0
3855,66.0,0,224,12.0,0.0
3856,54.0,48,59,14.0,0.0
3857,69.0,0,47,11.0,0.0
3858,66.0,0,47,10.0,0.0
3859,69.0,0,47,5.0,0.0
3860,54.0,12,47,13.0,0.0
3861,71.0,12,47,11.0,0.0
3862,64.0,0,47,4.0,0.0
3863,55.0,48,59,14.0,0.0
3864,55.0,0,47,13.0,0.0
3865,71.0,0,47,5.0,0.0
3866,64.0,0,47,10.0,0.0
3867,62.0,0,104,10.0,0.0
3868,72.0,57,47,5.0,0.0
3869,57.0,48,119,14.0,0.0
3870,62.0,0,104,4.0,0.0
3871,72.0,0,47,11.0,0.0
3872,57.0,3,104,13.0,0.0
3873,69.0,0,47,5.0,0.0
3874,69.0,12,47,11.0,0.0
3875,62.0,0,47,11.0,0.0
3876,74.0,0,104,10.0,0.0
3877,54.0,12,47,13.0,0.0
3878,62.0,0,47,5.0,0.0
3879,74.0,15,89,0.0,0.0
3880,54.0,30,59,14.0,0.0
3881,69.0,3,104,12.0,0.0
3882,74.0,0,104,4.0,0.0
3883,64.0,0,47,11.0,0.0
3884,55.0,48,59,14.0,0.0
3885,64.0,0,47,5.0,0.0
3886,55.0,12,47,13.0,0.0
3887,74.0,15,89,0.0,0.0
3888,74.0,0,104,4.0,0.0
3889,66.0,0,47,11.0,0.0
3890,60.0,3,104,12.0,0.0
3891,57.0,0,104,13.0,0.0
3892,57.0,48,119,14.0,0.0
3893,74.0,0,104,10.0,0.0
3894,66.0,42,47,5.0,0.0
3895,67.0,12,47,11.0,0.0
3896,67.0,0,47,5.0,0.0
3897,57.0,0,47,13.0,0.0
3898,74.0,3,104,4.0,0.0
3899,74.0,0,104,10.0,0.0
3900,66.0,0,47,11.0,0.0
3901,66.0,12,47,5.0,0.0
3902,57.0,30,59,14.0,0.0
3903,74.0,15,89,0.0,0.0
3904,66.0,0,224,12.0,0.0
3905,67.0,0,47,5.0,0.0
3906,59.0,48,59,14.0,0.0
3907,67.0,0,47,11.0,0.0
3908,59.0,12,47,13.0,0.0
3909,74.0,0,104,0.0,0.0
3910,60.0,48,119,14.0,0.0
3911,69.0,0,47,5.0,0.0
3912,74.0,0,104,10.0,0.0
3913,60.0,3,104,13.0,0.0
3914,69.0,57,47,11.0,0.0
3915,74.0,0,104,4.0,0.0
3916,67.0,12,47,11.0,0.0
3917,67.0,0,47,5.0,0.0
3918,66.0,12,47,11.0,0.0
3919,60.0,30,59,14.0,0.0
3920,66.0,0,47,5.0,0.0
3921,60.0,0,47,13.0,0.0
3922,69.0,0,104,12.0,0.0
3923,74.0,0,104,4.0,0.0
3924,69.0,0,104,2.0,0.0
3925,50.0,0,119,3.0,0.0
3926,74.0,0,104,10.0,0.0
3927,74.0,15,89,1.0,0.0
3928,78.0,3,104,0.0,0.0
3929,67.0,12,47,5.0,0.0
3930,59.0,0,47,13.0,0.0
3931,59.0,48,59,14.0,0.0
3932,67.0,0,47,11.0,0.0
3933,74.0,0,104,10.0,0.0
3934,50.0,0,119,3.0,0.0
3935,69.0,42,47,5.0,0.0
3936,78.0,0,104,0.0,0.0
3937,60.0,0,104,13.0,0.0
3938,74.0,15,89,1.0,0.0
3939,74.0,0,104,4.0,0.0
3940,69.0,3,104,2.0,0.0
3941,62.0,0,104,12.0,0.0
3942,60.0,48,119,14.0,0.0
3943,69.0,0,47,11.0,0.0
3944,67.0,0,47,5.0,0.0
3945,67.0,12,47,11.0,0.0
3946,50.0,0,119,3.0,0.0
3947,66.0,12,47,5.0,0.0
3948,62.0,0,47,13.0,0.0
3949,66.0,0,104,2.0,0.0
3950,74.0,0,104,4.0,0.0
3951,66.0,3,104,12.0,0.0
3952,66.0,0,47,11.0,0.0
3953,62.0,30,59,14.0,0.0
3954,74.0,15,89,1.0,0.0
3955,81.0,0,104,0.0,0.0
3956,74.0,0,104,10.0,0.0
3957,64.0,0,47,11.0,0.0
3958,60.0,0,47,13.0,0.0
3959,64.0,12,47,5.0,0.0
3960,60.0,48,59,14.0,0.0
3961,74.0,0,104,4.0,0.0
3962,79.0,0,119,0.0,0.0
3963,59.0,0,104,13.0,0.0
3964,50.0,0,119,3.0,0.0
3965,74.0,0,104,10.0,0.0
3966,62.0,48,119,2.0,0.0
3967,62.0,0,104,11.0,0.0
3968,74.0,0,119,1.0,0.0
3969,62.0,3,104,5.0,0.0
3970,59.0,0,119,14.0,0.0
3971,67.0,57,47,12.0,0.0
3972,71.0,12,47,12.0,0.0
3973,52.0,45,59,14.0,0.0
3974,76.0,0,104,4.0,0.0
3975,76.0,0,104,10.0,0.0
3976,71.0,3,104,5.0,0.0
3977,71.0,0,104,11.0,0.0
3978,68.0,0,47,12.0,0.0
3979,52.0,12,47,13.0,0.0
3980,69.0,12,47,12.0,0.0
3981,54.0,0,47,13.0,0.0
3982,54.0,48,59,14.0,0.0
3983,56.0,0,104,13.0,0.0
3984,76.0,0,104,10.0,0.0
3985,64.0,0,104,5.0,0.0
3986,71.0,57,47,12.0,0.0
3987,76.0,0,104,4.0,0.0
3988,64.0,3,104,11.0,0.0
3989,56.0,48,119,14.0,0.0
3990,73.0,12,47,12.0,0.0
3991,76.0,0,104,10.0,0.0
3992,56.0,12,47,13.0,0.0
3993,68.0,0,224,11.0,0.0
3994,68.0,3,224,5.0,0.0
3995,71.0,0,47,12.0,0.0
3996,76.0,3,104,4.0,0.0
3997,56.0,45,59,14.0,0.0
3998,57.0,48,59,14.0,0.0
3999,57.0,0,47,13.0,0.0
4000,73.0,12,47,12.0,0.0
4001,74.0,57,47,12.0,0.0
4002,76.0,0,104,4.0,0.0
4003,59.0,0,104,13.0,0.0
4004,59.0,48,119,14.0,0.0
4005,76.0,0,104,10.0,0.0
4006,71.0,12,47,12.0,0.0
4007,56.0,12,47,13.0,0.0
4008,76.0,0,104,10.0,0.0
4009,76.0,15,89,0.0,0.0
4010,76.0,3,104,4.0,0.0
4011,71.0,0,104,11.0,0.0
4012,56.0,30,59,14.0,0.0
4013,71.0,0,104,5.0,0.0
4014,64.0,0,47,12.0,0.0
4015,57.0,48,59,14.0,0.0
4016,66.0,12,47,12.0,0.0
4017,57.0,0,47,13.0,0.0
4018,59.0,48,119,14.0,0.0
4019,59.0,0,104,13.0,0.0
4020,62.0,3,104,11.0,0.0
4021,76.0,0,104,10.0,0.0
4022,68.0,42,47,12.0,0.0
4023,62.0,0,104,5.0,0.0
4024,76.0,15,89,0.0,0.0
4025,76.0,0,104,4.0,0.0
4026,69.0,12,47,12.0,0.0
4027,59.0,12,47,13.0,0.0
4028,68.0,0,47,12.0,0.0
4029,68.0,0,224,11.0,0.0
4030,76.0,3,104,4.0,0.0
4031,59.0,30,59,14.0,0.0
4032,76.0,15,89,0.0,0.0
4033,76.0,0,104,10.0,0.0
4034,68.0,0,224,5.0,0.0
4035,61.0,48,59,14.0,0.0
4036,69.0,12,47,12.0,0.0
4037,61.0,0,47,13.0,0.0
4038,62.0,48,119,14.0,0.0
4039,62.0,0,104,13.0,0.0
4040,76.0,0,104,10.0,0.0
4041,76.0,0,104,0.0,0.0
4042,76.0,3,104,4.0,0.0
4043,71.0,57,47,12.0,0.0
4044,69.0,12,47,12.0,0.0
4045,80.0,0,104,0.0,0.0
4046,71.0,0,104,5.0,0.0
4047,76.0,0,104,4.0,0.0
4048,62.0,0,104,2.0,0.0
4049,62.0,0,47,13.0,0.0
4050,62.0,30,59,14.0,0.0
4051,76.0,15,89,1.0,0.0
4052,71.0,3,104,11.0,0.0
4053,76.0,0,104,10.0,0.0
4054,50.0,48,119,3.0,0.0
4055,68.0,12,47,12.0,0.0
4056,61.0,0,59,14.0,0.0
4057,61.0,12,47,13.0,0.0
4058,69.0,0,47,12.0,0.0
4059,76.0,15,89,1.0,0.0
4060,71.0,42,47,12.0,0.0
4061,62.0,3,104,13.0,0.0
4062,64.0,0,104,11.0,0.0
4063,76.0,0,104,10.0,0.0
4064,62.0,0,104,2.0,0.0
4065,80.0,0,104,0.0,0.0
4066,64.0,0,104,5.0,0.0
4067,76.0,0,104,4.0,0.0
4068,50.0,0,119,3.0,0.0
4069,62.0,48,119,14.0,0.0
4070,69.0,12,47,12.0,0.0
4071,64.0,0,47,13.0,0.0
4072,64.0,30,59,14.0,0.0
4073,68.0,0,104,5.0,0.0
4074,76.0,15,89,1.0,0.0
4075,68.0,0,104,11.0,0.0
4076,76.0,3,104,10.0,0.0
4077,83.0,0,104,0.0,0.0
4078,76.0,0,104,4.0,0.0
4079,62.0,0,104,2.0,0.0
4080,50.0,0,119,3.0,0.0
4081,68.0,12,47,12.0,0.0
4082,66.0,0,47,12.0,0.0
4083,62.0,48,59,14.0,0.0
4084,62.0,12,47,13.0,0.0
4085,45.0,48,119,3.0,0.0
4086,69.0,0,119,2.0,0.0
4087,69.0,0,47,11.0,0.0
4088,76.0,3,104,4.0,0.0
4089,61.0,0,119,14.0,0.0
4090,76.0,0,104,10.0,0.0
4091,69.0,57,47,5.0,0.0
4092,76.0,0,119,1.0,0.0
4093,61.0,0,104,13.0,0.0
4094,64.0,0,239,12.0,0.0
4095,81.0,0,119,0.0,0.0
4096,81.0,12,47,11.0,0.0
4097,81.0,0,47,5.0,0.0
4098,73.0,0,47,5.0,0.0
4099,69.0,0,47,10.0,0.0
4100,73.0,0,47,11.0,0.0
4101,69.0,57,47,4.0,0.0
4102,64.0,3,104,13.0,0.0
4103,64.0,48,119,14.0,0.0
4104,71.0,0,47,4.0,0.0
4105,71.0,12,47,10.0,0.0
4106,74.0,0,47,11.0,0.0
4107,74.0,0,47,5.0,0.0
4108,73.0,0,104,10.0,0.0
4109,76.0,57,47,11.0,0.0
4110,57.0,48,119,14.0,0.0
4111,57.0,0,104,13.0,0.0
4112,76.0,0,47,5.0,0.0
4113,73.0,3,104,4.0,0.0
4114,78.0,12,47,5.0,0.0
4115,78.0,0,47,11.0,0.0
4116,73.0,57,47,4.0,0.0
4117,61.0,48,239,14.0,0.0
4118,76.0,0,47,11.0,0.0
4119,76.0,0,47,5.0,0.0
4120,69.0,3,104,12.0,0.0
4121,61.0,0,224,13.0,0.0
4122,73.0,0,47,10.0,0.0
4123,78.0,60,47,11.0,0.0
4124,74.0,0,47,10.0,0.0
4125,74.0,0,47,4.0,0.0
4126,78.0,0,47,5.0,0.0
4127,79.0,57,47,5.0,0.0
4128,79.0,0,47,11.0,0.0
4129,76.0,0,104,10.0,0.0
4130,76.0,3,104,4.0,0.0
4131,69.0,0,104,12.0,0.0
4132,76.0,0,47,11.0,0.0
4133,76.0,12,47,5.0,0.0
4134,64.0,0,104,13.0,0.0
4135,69.0,0,47,5.0,0.0
4136,73.0,57,47,10.0,0.0
4137,64.0,48,119,14.0,0.0
4138,73.0,0,47,4.0,0.0
4139,69.0,0,47,11.0,0.0
4140,69.0,3,104,12.0,0.0
4141,74.0,0,47,10.0,0.0
4142,71.0,0,47,11.0,0.0
4143,71.0,0,47,5.0,0.0
4144,74.0,12,47,4.0,0.0
4145,76.0,0,104,10.0,0.0
4146,73.0,0,47,11.0,0.0
4147,73.0,57,47,5.0,0.0
4148,55.0,0,104,13.0,0.0
4149,76.0,3,104,4.0,0.0
4150,55.0,48,119,14.0,0.0
4151,69.0,0,104,12.0,0.0
4152,74.0,12,47,11.0,0.0
4153,74.0,0,47,5.0,0.0
4154,73.0,0,47,5.0,0.0
4155,69.0,3,104,12.0,0.0
4156,73.0,0,47,11.0,0.0
4157,76.0,57,47,4.0,0.0
4158,61.0,0,224,13.0,0.0
4159,61.0,48,239,14.0,0.0
4160,76.0,0,47,10.0,0.0
4161,78.0,0,47,4.0,0.0
4162,74.0,0,47,5.0,0.0
4163,78.0,0,47,10.0,0.0
4164,74.0,60,47,11.0,0.0
4165,76.0,0,47,5.0,0.0
4166,79.0,0,104,10.0,0.0
4167,79.0,0,104,4.0,0.0
4168,69.0,3,104,12.0,0.0
4169,76.0,57,47,11.0,0.0
4170,74.0,0,47,5.0,0.0
4171,74.0,12,47,11.0,0.0
4172,79.0,0,47,10.0,0.0
4173,73.0,57,47,5.0,0.0
4174,64.0,0,104,13.0,0.0
4175,64.0,48,119,14.0,0.0
4176,79.0,0,47,4.0,0.0
4177,69.0,3,104,12.0,0.0
4178,73.0,0,47,11.0,0.0
4179,78.0,0,47,4.0,0.0
4180,74.0,0,47,11.0,0.0
4181,74.0,0,47,5.0,0.0
4182,78.0,12,47,10.0,0.0
4183,76.0,0,47,5.0,0.0
4184,57.0,48,119,14.0,0.0
4185,57.0,0,104,13.0,0.0
4186,79.0,3,104,10.0,0.0
4187,79.0,0,104,4.0,0.0
4188,69.0,0,104,12.0,0.0
4189,76.0,57,47,11.0,0.0
4190,74.0,0,47,11.0,0.0
4191,74.0,12,47,5.0,0.0
4192,81.0,0,47,10.0,0.0
4193,61.0,105,119,14.0,0.0
4194,73.0,0,47,11.0,0.0
4195,61.0,3,104,13.0,0.0
4196,81.0,0,47,4.0,0.0
4197,73.0,57,47,5.0,0.0
4198,69.0,0,104,12.0,0.0
4199,79.0,0,47,4.0,0.0
4200,71.0,12,47,5.0,0.0
4201,71.0,0,47,11.0,0.0
4202,79.0,0,47,10.0,0.0
4203,69.0,0,104,12.0,0.0
4204,78.0,0,104,4.0,0.0
4205,78.0,0,104,10.0,0.0
4206,50.0,0,104,13.0,0.0
4207,69.0,15,104,5.0,0.0
4208,50.0,48,119,14.0,0.0
4209,69.0,0,104,11.0,0.0
4210,62.0,0,104,13.0,0.0
4211,66.0,3,104,11.0,0.0
4212,62.0,0,47,12.0,0.0
4213,78.0,0,47,10.0,0.0
4214,66.0,0,104,5.0,0.0
4215,62.0,48,119,14.0,0.0
4216,78.0,57,47,4.0,0.0
4217,76.0,0,47,4.0,0.0
4218,76.0,0,47,10.0,0.0
4219,64.0,12,47,12.0,0.0
4220,55.0,3,104,13.0,0.0
4221,71.0,3,344,5.0,0.0
4222,55.0,48,119,14.0,0.0
4223,78.0,0,104,4.0,0.0
4224,78.0,0,104,10.0,0.0
4225,62.0,57,47,12.0,0.0
4226,71.0,0,344,11.0,0.0
4227,61.0,12,47,12.0,0.0
4228,59.0,48,119,14.0,0.0
4229,79.0,0,47,10.0,0.0
4230,79.0,57,47,4.0,0.0
4231,59.0,0,47,12.0,0.0
4232,59.0,3,104,13.0,0.0
4233,62.0,0,47,12.0,0.0
4234,78.0,12,47,10.0,0.0
4235,78.0,0,47,4.0,0.0
4236,76.0,0,104,4.0,0.0
4237,61.0,57,47,12.0,0.0
4238,49.0,48,119,14.0,0.0
4239,49.0,0,104,13.0,0.0
4240,76.0,0,104,10.0,0.0
4241,62.0,12,47,12.0,0.0
4242,76.0,57,47,10.0,0.0
4243,61.0,0,47,12.0,0.0
4244,61.0,48,119,14.0,0.0
4245,70.0,0,47,11.0,0.0
4246,61.0,3,104,13.0,0.0
4247,76.0,0,47,4.0,0.0
4248,70.0,0,47,5.0,0.0
4249,74.0,0,47,10.0,0.0
4250,71.0,0,47,11.0,0.0
4251,71.0,0,47,5.0,0.0
4252,59.0,0,47,12.0,0.0
4253,74.0,12,47,4.0,0.0
4254,76.0,0,104,4.0,0.0
4255,73.0,57,47,11.0,0.0
4256,54.0,48,119,14.0,0.0
4257,54.0,0,104,13.0,0.0
4258,58.0,0,104,12.0,0.0
4259,73.0,0,47,5.0,0.0
4260,76.0,3,104,10.0,0.0
4261,71.0,0,47,5.0,0.0
4262,71.0,12,47,11.0,0.0
4263,70.0,57,47,5.0,0.0
4264,58.0,0,104,13.0,0.0
4265,58.0,48,119,14.0,0.0
4266,70.0,0,47,11.0,0.0
4267,61.0,3,104,12.0,0.0
4268,78.0,0,47,4.0,0.0
4269,78.0,0,47,10.0,0.0
4270,76.0,0,47,10.0,0.0
4271,76.0,0,47,4.0,0.0
4272,68.0,0,47,5.0,0.0
4273,68.0,12,47,11.0,0.0
4274,66.0,0,47,5.0,0.0
4275,66.0,57,47,11.0,0.0
4276,47.0,48,119,14.0,0.0
4277,47.0,0,104,13.0,0.0
4278,74.0,0,104,4.0,0.0
4279,62.0,0,104,12.0,0.0
4280,74.0,3,104,10.0,0.0
4281,78.0,12,47,5.0,0.0
4282,78.0,0,47,11.0,0.0
4283,62.0,3,104,1.0,0.0
4284,59.0,0,104,13.0,0.0
4285,59.0,48,119,14.0,0.0
4286,66.0,0,104,12.0,0.0
4287,74.0,0,47,10.0,0.0
4288,74.0,57,47,4.0,0.0
4289,71.0,0,47,5.0,0.0
4290,74.0,0,47,0.0,0.0
4291,71.0,0,47,11.0,0.0
4292,76.0,12,47,0.0,0.0
4293,76.0,0,47,10.0,0.0
4294,73.0,0,47,11.0,0.0
4295,76.0,0,47,4.0,0.0
4296,73.0,0,47,5.0,0.0
4297,74.0,57,47,5.0,0.0
4298,62.0,0,104,1.0,0.0
4299,57.0,0,104,13.0,0.0
4300,57.0,48,119,14.0,0.0
4301,78.0,0,104,0.0,0.0
4302,59.0,3,104,12.0,0.0
4303,78.0,0,104,10.0,0.0
4304,78.0,0,104,4.0,0.0
4305,74.0,0,47,11.0,0.0
4306,76.0,12,47,5.0,0.0
4307,76.0,0,47,11.0,0.0
4308,55.0,48,119,14.0,0.0
4309,62.0,0,224,12.0,0.0
4310,62.0,0,104,1.0,0.0
4311,78.0,0,47,10.0,0.0
4312,74.0,0,47,11.0,0.0
4313,78.0,0,47,4.0,0.0
4314,55.0,3,104,13.0,0.0
4315,74.0,57,47,5.0,0.0
4316,78.0,0,47,0.0,0.0
4317,79.0,0,47,4.0,0.0
4318,79.0,0,47,0.0,0.0
4319,76.0,12,47,11.0,0.0
4320,79.0,0,47,10.0,0.0
4321,76.0,0,47,5.0,0.0
4322,81.0,0,104,10.0,0.0
4323,54.0,0,104,13.0,0.0
4324,62.0,0,104,1.0,0.0
4325,78.0,0,47,11.0,0.0
4326,54.0,48,119,14.0,0.0
4327,81.0,3,104,0.0,0.0
4328,81.0,0,104,4.0,0.0
4329,78.0,57,47,5.0,0.0
4330,81.0,12,47,5.0,0.0
4331,81.0,0,47,11.0,0.0
4332,78.0,0,47,0.0,0.0
4333,78.0,0,47,10.0,0.0
4334,74.0,0,47,5.0,0.0
4335,74.0,57,47,11.0,0.0
4336,78.0,0,47,4.0,0.0
4337,62.0,0,104,2.0,0.0
4338,59.0,0,104,13.0,0.0
4339,59.0,48,119,14.0,0.0
4340,74.0,3,104,12.0,0.0
4341,62.0,0,104,1.0,0.0
4342,76.0,0,47,5.0,0.0
4343,76.0,0,47,11.0,0.0
4344,79.0,0,47,4.0,0.0
4345,79.0,12,47,10.0,0.0
4346,79.0,0,47,0.0,0.0
4347,62.0,0,104,1.0,0.0
4348,57.0,0,104,13.0,0.0
4349,74.0,0,104,12.0,0.0
4350,81.0,0,104,0.0,0.0
4351,78.0,57,47,11.0,0.0
4352,57.0,48,119,14.0,0.0
4353,78.0,0,47,5.0,0.0
4354,81.0,0,104,4.0,0.0
4355,62.0,0,104,2.0,0.0
4356,81.0,3,104,10.0,0.0
4357,79.0,0,47,5.0,0.0
4358,79.0,12,47,11.0,0.0
4359,62.0,3,104,1.0,0.0
4360,81.0,0,47,4.0,0.0
4361,78.0,57,47,11.0,0.0
4362,55.0,48,119,14.0,0.0
4363,81.0,0,47,0.0,0.0
4364,55.0,0,104,13.0,0.0
4365,78.0,0,47,5.0,0.0
4366,74.0,0,104,12.0,0.0
4367,81.0,0,47,10.0,0.0
4368,62.0,0,104,2.0,0.0
4369,79.0,12,47,5.0,0.0
4370,83.0,0,47,0.0,0.0
4371,83.0,0,47,4.0,0.0
4372,79.0,0,47,11.0,0.0
4373,83.0,0,47,10.0,0.0
4374,54.0,48,119,14.0,0.0
4375,81.0,57,47,11.0,0.0
4376,84.0,0,104,4.0,0.0
4377,62.0,0,104,1.0,0.0
4378,81.0,0,47,5.0,0.0
4379,74.0,0,104,12.0,0.0
4380,54.0,3,104,13.0,0.0
4381,84.0,0,104,10.0,0.0
4382,62.0,0,104,2.0,0.0
4383,84.0,0,104,0.0,0.0
4384,79.0,0,47,5.0,0.0
4385,79.0,12,47,11.0,0.0
4386,84.0,0,47,0.0,0.0
4387,57.0,0,104,13.0,0.0
4388,57.0,0,119,14.0,0.0
4389,84.0,57,47,4.0,0.0
4390,78.0,0,47,1.0,0.0
4391,84.0,0,47,10.0,0.0
4392,78.0,0,47,5.0,0.0
4393,50.0,48,119,3.0,0.0
4394,78.0,0,47,11.0,0.0
4395,74.0,3,104,12.0,0.0
4396,62.0,0,104,2.0,0.0
4397,83.0,0,47,4.0,0.0
4398,79.0,0,47,1.0,0.0
4399,83.0,0,47,0.0,0.0
4400,83.0,0,47,10.0,0.0
4401,79.0,0,47,11.0,0.0
4402,79.0,12,47,5.0,0.0
4403,84.0,0,104,4.0,0.0
4404,81.0,0,104,1.0,0.0
4405,50.0,48,119,14.0,0.0
4406,74.0,0,104,12.0,0.0
4407,50.0,0,119,3.0,0.0
4408,81.0,0,47,5.0,0.0
4409,84.0,0,104,0.0,0.0
4410,50.0,0,104,13.0,0.0
4411,81.0,57,47,11.0,0.0
4412,84.0,0,104,10.0,0.0
4413,66.0,3,104,2.0,0.0
4414,79.0,12,47,11.0,0.0
4415,79.0,0,47,5.0,0.0
4416,69.0,0,104,12.0,0.0
4417,62.0,0,104,2.0,0.0
4418,86.0,0,47,4.0,0.0
4419,54.0,0,119,14.0,0.0
4420,78.0,0,47,11.0,0.0
4421,86.0,0,47,0.0,0.0
4422,54.0,3,104,13.0,0.0
4423,50.0,48,119,3.0,0.0
4424,83.0,0,47,1.0,0.0
4425,78.0,57,47,5.0,0.0
4426,86.0,0,47,10.0,0.0
4427,84.0,0,47,0.0,0.0
4428,81.0,0,47,1.0,0.0
4429,84.0,0,47,10.0,0.0
4430,76.0,12,47,11.0,0.0
4431,84.0,0,47,4.0,0.0
4432,76.0,0,47,5.0,0.0
4433,43.0,0,119,14.0,0.0
4434,83.0,57,47,10.0,0.0
4435,83.0,0,119,0.0,0.0
4436,50.0,0,119,3.0,0.0
4437,43.0,3,104,13.0,0.0
4438,74.0,48,119,2.0,0.0
4439,74.0,0,104,11.0,0.0
4440,83.0,0,47,4.0,0.0
4441,74.0,0,104,5.0,0.0
4442,79.0,0,119,1.0,0.0
4443,71.0,0,104,12.0,0.0
4444,79.0,12,47,4.0,0.0
4445,79.0,0,47,10.0,0.0
4446,71.0,0,104,12.0,0.0
4447,55.0,48,119,14.0,0.0
4448,76.0,57,47,4.0,0.0
4449,71.0,3,104,5.0,0.0
4450,76.0,0,47,10.0,0.0
4451,55.0,0,104,13.0,0.0
4452,71.0,0,104,11.0,0.0
4453,78.0,0,47,10.0,0.0
4454,78.0,12,47,4.0,0.0
4455,49.0,3,104,13.0,0.0
4456,76.0,0,344,11.0,0.0
4457,79.0,0,47,4.0,0.0
4458,71.0,0,104,12.0,0.0
4459,79.0,57,47,10.0,0.0
4460,49.0,48,119,14.0,0.0
4461,76.0,0,344,5.0,0.0
4462,81.0,0,47,4.0,0.0
4463,81.0,12,47,10.0,0.0
4464,71.0,0,104,12.0,0.0
4465,83.0,0,104,0.0,0.0
4466,79.0,3,104,1.0,0.0
4467,52.0,0,104,13.0,0.0
4468,78.0,57,47,4.0,0.0
4469,78.0,0,47,10.0,0.0
4470,76.0,0,104,2.0,0.0
4471,52.0,48,119,14.0,0.0
4472,79.0,12,47,4.0,0.0
4473,79.0,0,47,10.0,0.0
4474,42.0,3,104,13.0,0.0
4475,81.0,57,47,4.0,0.0
4476,78.0,0,119,1.0,0.0
4477,42.0,48,119,14.0,0.0
4478,69.0,0,104,12.0,0.0
4479,45.0,0,119,3.0,0.0
4480,76.0,0,119,2.0,0.0
4481,81.0,0,119,0.0,0.0
4482,81.0,0,47,10.0,0.0
4483,78.0,0,47,10.0,0.0
4484,78.0,12,47,4.0,0.0
4485,69.0,3,104,11.0,0.0
4486,54.0,0,104,13.0,0.0
4487,74.0,0,47,4.0,0.0
4488,69.0,0,104,12.0,0.0
4489,54.0,48,119,14.0,0.0
4490,69.0,0,104,5.0,0.0
4491,74.0,57,47,10.0,0.0
4492,76.0,0,47,10.0,0.0
4493,76.0,12,47,4.0,0.0
4494,74.0,0,344,11.0,0.0
4495,47.0,48,119,14.0,0.0
4496,78.0,0,47,4.0,0.0
4497,78.0,57,47,10.0,0.0
4498,69.0,3,104,12.0,0.0
4499,47.0,0,104,13.0,0.0
4500,74.0,0,344,5.0,0.0
4501,79.0,0,47,10.0,0.0
4502,79.0,12,47,4.0,0.0
4503,81.0,0,104,0.0,0.0
4504,69.0,3,104,12.0,0.0
4505,50.0,48,119,14.0,0.0
4506,50.0,0,104,13.0,0.0
4507,78.0,0,104,1.0,0.0
4508,74.0,0,104,2.0,0.0
4509,76.0,0,47,4.0,0.0
4510,76.0,57,47,10.0,0.0
4511,78.0,12,47,10.0,0.0
4512,78.0,0,47,4.0,0.0
4513,79.0,0,47,0.0,0.0
4514,79.0,57,47,10.0,0.0
4515,40.0,48,119,14.0,0.0
4516,40.0,0,104,13.0,0.0
4517,74.0,0,104,2.0,0.0
4518,76.0,0,104,1.0,0.0
4519,79.0,0,47,4.0,0.0
4520,67.0,3,104,12.0,0.0
4521,78.0,0,47,10.0,0.0
4522,78.0,12,47,4.0,0.0
4523,78.0,0,47,0.0,0.0
4524,73.0,0,104,5.0,0.0
4525,76.0,57,47,0.0,0.0
4526,45.0,48,119,14.0,0.0
4527,45.0,0,104,13.0,0.0
4528,81.0,0,104,1.0,0.0
4529,73.0,0,104,11.0,0.0
4530,69.0,3,104,2.0,0.0
4531,45.0,0,119,3.0,0.0
4532,69.0,0,104,12.0,0.0
4533,76.0,0,47,4.0,0.0
4534,76.0,0,47,10.0,0.0
4535,79.0,12,47,10.0,0.0
4536,79.0,0,47,4.0,0.0
4537,79.0,0,47,0.0,0.0
4538,74.0,0,47,11.0,0.0
4539,69.0,0,104,12.0,0.0
4540,50.0,48,119,14.0,0.0
4541,78.0,0,47,4.0,0.0
4542,50.0,0,119,3.0,0.0
4543,74.0,0,47,5.0,0.0
4544,78.0,57,47,10.0,0.0
4545,50.0,0,104,13.0,0.0
4546,78.0,0,47,0.0,0.0
4547,81.0,3,104,1.0,0.0
4548,69.0,0,104,2.0,0.0
4549,76.0,0,47,0.0,0.0
4550,73.0,0,47,11.0,0.0
4551,73.0,12,47,5.0,0.0
4552,76.0,0,47,10.0,0.0
4553,76.0,0,47,4.0,0.0
4554,74.0,0,47,0.0,0.0
4555,71.0,0,47,11.0,0.0
4556,69.0,0,104,2.0,0.0
4557,69.0,0,104,12.0,0.0
4558,38.0,0,104,13.0,0.0
4559,74.0,57,47,4.0,0.0
4560,81.0,3,104,1.0,0.0
4561,50.0,0,119,3.0,0.0
4562,71.0,0,47,5.0,0.0
4563,74.0,0,47,10.0,0.0
4564,38.0,48,119,14.0,0.0
4565,78.0,0,47,4.0,0.0
4566,78.0,0,47,0.0,0.0
4567,74.0,0,47,11.0,0.0
4568,74.0,12,47,5.0,0.0
4569,78.0,0,47,10.0,0.0
4570,69.0,0,119,2.0,0.0
4571,73.0,0,104,11.0,0.0
4572,76.0,0,119,0.0,0.0
4573,45.0,0,119,14.0,0.0
4574,73.0,0,104,5.0,0.0
4575,45.0,3,104,13.0,0.0
4576,76.0,57,47,10.0,0.0
4577,81.0,0,119,1.0,0.0
4578,45.0,48,119,3.0,0.0
4579,69.0,0,104,12.0,0.0
4580,76.0,0,47,4.0,0.0
4581,81.0,12,47,10.0,0.0
4582,81.0,0,47,4.0,0.0
4583,69.0,3,104,12.0,0.0
4584,73.0,0,47,4.0,0.0
4585,76.0,0,104,5.0,0.0
4586,45.0,45,59,14.0,0.0
4587,76.0,0,104,11.0,0.0
4588,73.0,12,47,10.0,0.0
4589,45.0,0,47,13.0,0.0
4590,47.0,48,59,14.0,0.0
4591,74.0,0,47,4.0,0.0
4592,47.0,0,47,13.0,0.0
4593,74.0,12,47,10.0,0.0
4594,76.0,57,47,4.0,0.0
4595,76.0,0,47,10.0,0.0
4596,49.0,48,119,14.0,0.0
4597,69.0,0,104,5.0,0.0
4598,69.0,3,104,11.0,0.0
4599,69.0,0,104,12.0,0.0
4600,49.0,0,104,13.0,0.0
4601,78.0,12,47,10.0,0.0
4602,78.0,0,47,4.0,0.0
4603,73.0,0,224,11.0,0.0
4604,49.0,0,47,13.0,0.0
4605,76.0,0,47,4.0,0.0
4606,73.0,3,224,5.0,0.0
4607,69.0,3,104,12.0,0.0
4608,49.0,45,59,14.0,0.0
4609,76.0,12,47,10.0,0.0
4610,78.0,0,47,4.0,0.0
4611,50.0,48,59,14.0,0.0
4612,78.0,12,47,10.0,0.0
4613,50.0,0,47,13.0,0.0
4614,52.0,48,119,14.0,0.0
4615,52.0,0,104,13.0,0.0
4616,79.0,0,47,4.0,0.0
4617,69.0,0,104,12.0,0.0
4618,79.0,57,47,10.0,0.0
4619,76.0,12,47,4.0,0.0
4620,76.0,0,47,10.0,0.0
4621,69.0,0,47,10.0,0.0
4622,69.0,0,47,4.0,0.0
4623,76.0,0,104,11.0,0.0
4624,49.0,12,47,13.0,0.0
4625,69.0,15,89,0.0,0.0
4626,49.0,30,59,14.0,0.0
4627,69.0,3,104,12.0,0.0
4628,76.0,0,104,5.0,0.0
4629,71.0,0,47,10.0,0.0
4630,71.0,0,47,4.0,0.0
4631,50.0,48,59,14.0,0.0
4632,50.0,12,47,13.0,0.0
4633,67.0,0,104,11.0,0.0
4634,52.0,48,119,14.0,0.0
4635,73.0,0,47,4.0,0.0
4636,69.0,15,89,0.0,0.0
4637,69.0,0,104,12.0,0.0
4638,67.0,0,104,5.0,0.0
4639,73.0,42,47,10.0,0.0
4640,52.0,3,104,13.0,0.0
4641,74.0,0,47,10.0,0.0
4642,74.0,12,47,4.0,0.0
4643,73.0,0,224,11.0,0.0
4644,69.0,15,89,0.0,0.0
4645,73.0,0,47,4.0,0.0
4646,73.0,0,224,5.0,0.0
4647,52.0,30,59,14.0,0.0
4648,73.0,12,47,10.0,0.0
4649,52.0,0,47,13.0,0.0
4650,69.0,3,104,12.0,0.0
4651,74.0,12,47,4.0,0.0
4652,74.0,0,47,10.0,0.0
4653,54.0,48,59,14.0,0.0
4654,54.0,0,47,13.0,0.0
4655,69.0,3,104,12.0,0.0
4656,69.0,0,104,0.0,0.0
4657,55.0,48,119,14.0,0.0
4658,76.0,0,47,10.0,0.0
4659,55.0,0,104,13.0,0.0
4660,76.0,57,47,4.0,0.0
4661,74.0,0,47,10.0,0.0
4662,74.0,12,47,4.0,0.0
4663,45.0,0,119,3.0,0.0
4664,55.0,45,59,14.0,0.0
4665,73.0,0,47,10.0,0.0
4666,69.0,3,104,1.0,0.0
4667,73.0,0,47,4.0,0.0
4668,76.0,0,104,5.0,0.0
4669,76.0,0,104,11.0,0.0
4670,76.0,0,104,0.0,0.0
4671,69.0,0,104,12.0,0.0
4672,55.0,12,47,13.0,0.0
4673,69.0,0,104,2.0,0.0
4674,74.0,12,47,4.0,0.0
4675,74.0,0,47,10.0,0.0
4676,54.0,48,59,14.0,0.0
4677,54.0,0,47,13.0,0.0
4678,55.0,0,104,13.0,0.0
4679,55.0,48,119,14.0,0.0
4680,69.0,3,104,1.0,0.0
4681,69.0,0,104,11.0,0.0
4682,76.0,0,47,4.0,0.0
4683,76.0,0,104,0.0,0.0
4684,45.0,0,119,3.0,0.0
4685,69.0,0,104,2.0,0.0
4686,69.0,0,104,5.0,0.0
4687,69.0,0,104,12.0,0.0
4688,76.0,57,47,10.0,0.0
4689,79.0,0,47,10.0,0.0
4690,79.0,12,47,4.0,0.0
4691,57.0,45,59,14.0,0.0
4692,45.0,48,119,3.0,0.0
4693,57.0,12,47,13.0,0.0
4694,76.0,0,104,1.0,0.0
4695,78.0,0,47,4.0,0.0
4696,69.0,0,104,12.0,0.0
4697,73.0,0,104,5.0,0.0
4698,69.0,3,104,2.0,0.0
4699,81.0,0,104,0.0,0.0
4700,78.0,0,47,10.0,0.0
4701,73.0,0,104,11.0,0.0
4702,55.0,0,47,13.0,0.0
4703,76.0,0,47,10.0,0.0
4704,76.0,12,47,4.0,0.0
4705,55.0,0,59,14.0,0.0
4706,81.0,0,119,0.0,0.0
4707,62.0,0,119,2.0,0.0
4708,54.0,48,119,14.0,0.0
4709,54.0,0,104,13.0,0.0
4710,74.0,3,104,11.0,0.0
4711,81.0,0,47,4.0,0.0
4712,74.0,0,104,5.0,0.0
4713,69.0,0,104,12.0,0.0
4714,81.0,57,47,10.0,0.0
4715,50.0,0,119,3.0,0.0
4716,78.0,0,104,1.0,0.0
4717,79.0,12,47,10.0,0.0
4718,79.0,0,47,4.0,0.0
4719,81.0,0,47,1.0,0.0
4720,78.0,0,47,10.0,0.0
4721,54.0,45,59,14.0,0.0
4722,69.0,3,104,11.0,0.0
4723,62.0,0,104,12.0,0.0
4724,78.0,12,47,4.0,0.0
4725,54.0,0,47,13.0,0.0
4726,69.0,0,104,5.0,0.0
4727,52.0,12,47,13.0,0.0
4728,79.0,0,47,1.0,0.0
4729,79.0,0,47,4.0,0.0
4730,79.0,0,47,10.0,0.0
4731,52.0,48,59,14.0,0.0
4732,54.0,0,104,13.0,0.0
4733,78.0,3,104,1.0,0.0
4734,81.0,57,47,10.0,0.0
4735,74.0,3,344,11.0,0.0
4736,74.0,0,344,5.0,0.0
4737,66.0,0,104,12.0,0.0
4738,54.0,48,119,14.0,0.0
4739,81.0,0,47,4.0,0.0
4740,78.0,12,47,4.0,0.0
4741,78.0,0,47,10.0,0.0
4742,74.0,0,47,4.0,0.0
4743,74.0,0,47,10.0,0.0
4744,74.0,3,104,1.0,0.0
4745,55.0,45,59,14.0,0.0
4746,55.0,0,47,13.0,0.0
4747,71.0,0,104,12.0,0.0
4748,83.0,12,47,0.0,0.0
4749,78.0,0,47,4.0,0.0
4750,54.0,0,47,13.0,0.0
4751,81.0,12,47,0.0,0.0
4752,54.0,48,59,14.0,0.0
4753,78.0,0,47,10.0,0.0
4754,79.0,57,47,10.0,0.0
4755,76.0,0,104,1.0,0.0
4756,79.0,0,47,4.0,0.0
4757,79.0,0,119,0.0,0.0
4758,52.0,48,119,14.0,0.0
4759,71.0,0,104,12.0,0.0
4760,52.0,0,104,13.0,0.0
4761,78.0,12,47,10.0,0.0
4762,78.0,0,47,4.0,0.0
4763,73.0,0,104,5.0,0.0
4764,73.0,3,104,11.0,0.0
4765,52.0,0,47,13.0,0.0
4766,52.0,45,59,14.0,0.0
4767,76.0,0,47,4.0,0.0
4768,73.0,12,47,12.0,0.0
4769,76.0,0,47,10.0,0.0
4770,79.0,0,47,1.0,0.0
4771,78.0,0,47,10.0,0.0
4772,74.0,0,47,12.0,0.0
4773,78.0,0,47,1.0,0.0
4774,50.0,48,59,14.0,0.0
4775,78.0,0,47,4.0,0.0
4776,50.0,12,47,13.0,0.0
4777,79.0,0,47,10.0,0.0
4778,76.0,0,104,11.0,0.0
4779,52.0,0,104,13.0,0.0
4780,79.0,57,47,4.0,0.0
4781,76.0,0,104,1.0,0.0
4782,76.0,0,104,5.0,0.0
4783,73.0,3,104,12.0,0.0
4784,52.0,48,119,14.0,0.0
4785,83.0,12,47,10.0,0.0
4786,83.0,0,47,4.0,0.0
4787,73.0,0,104,11.0,0.0
4788,81.0,0,47,10.0,0.0
4789,54.0,45,59,14.0,0.0
4790,73.0,0,104,5.0,0.0
4791,54.0,0,47,13.0,0.0
4792,45.0,48,119,3.0,0.0
4793,76.0,0,104,2.0,0.0
4794,69.0,0,104,12.0,0.0
4795,69.0,3,104,1.0,0.0
4796,81.0,0,47,0.0,0.0
4797,81.0,12,47,4.0,0.0
4798,52.0,12,47,13.0,0.0
4799,52.0,0,59,14.0,0.0
4800,79.0,0,47,4.0,0.0
4801,79.0,0,47,10.0,0.0
4802,79.0,0,47,0.0,0.0
4803,50.0,45,59,14.0,0.0
4804,78.0,0,104,0.0,0.0
4805,69.0,3,104,12.0,0.0
4806,69.0,0,104,1.0,0.0
4807,78.0,0,104,4.0,0.0
4808,78.0,0,104,10.0,0.0
4809,74.0,0,104,5.0,0.0
4810,50.0,12,47,13.0,0.0
4811,78.0,48,119,2.0,0.0
4812,74.0,0,104,11.0,0.0
4813,50.0,0,119,3.0,0.0
4814,52.0,12,47,13.0,0.0
4815,52.0,0,59,14.0,0.0
4816,69.0,0,104,11.0,0.0
4817,69.0,0,104,12.0,0.0
4818,81.0,0,104,0.0,0.0
4819,54.0,45,59,14.0,0.0
4820,74.0,0,104,10.0,0.0
4821,74.0,0,104,4.0,0.0
4822,74.0,3,104,1.0,0.0
4823,54.0,12,47,13.0,0.0
4824,69.0,0,104,5.0,0.0
4825,50.0,48,59,14.0,0.0
4826,50.0,12,47,13.0,0.0
4827,71.0,0,104,4.0,0.0
4828,67.0,0,104,12.0,0.0
4829,83.0,0,104,0.0,0.0
4830,55.0,12,47,13.0,0.0
4831,71.0,0,104,10.0,0.0
4832,62.0,3,104,5.0,0.0
4833,50.0,0,119,3.0,0.0
4834,74.0,0,104,1.0,0.0
4835,79.0,48,119,2.0,0.0
4836,55.0,45,59,14.0,0.0
4837,62.0,0,104,11.0,0.0
4838,57.0,12,47,13.0,0.0
4839,57.0,0,59,14.0,0.0
4840,54.0,45,59,14.0,0.0
4841,54.0,12,47,13.0,0.0
4842,71.0,0,104,12.0,0.0
4843,76.0,3,104,4.0,0.0
4844,67.0,0,104,11.0,0.0
4845,76.0,0,104,1.0,0.0
4846,76.0,0,104,10.0,0.0
4847,67.0,0,104,5.0,0.0
4848,79.0,0,104,0.0,0.0
4849,55.0,12,47,13.0,0.0
4850,55.0,48,59,14.0,0.0
4851,69.0,0,104,12.0,0.0
4852,57.0,0,119,14.0,0.0
4853,76.0,48,119,2.0,0.0
4854,69.0,0,104,1.0,0.0
4855,57.0,3,104,13.0,0.0
4856,73.0,0,47,10.0,0.0
4857,64.0,48,239,5.0,0.0
4858,85.0,0,104,0.0,0.0
4859,73.0,57,47,4.0,0.0
4860,64.0,0,47,11.0,0.0
4861,45.0,0,119,3.0,0.0
4862,69.0,12,47,10.0,0.0
4863,69.0,0,47,4.0,0.0
4864,61.0,0,47,11.0,0.0
4865,55.0,0,119,14.0,0.0
4866,64.0,0,104,12.0,0.0
4867,81.0,0,104,0.0,0.0
4868,71.0,0,47,10.0,0.0
4869,76.0,0,104,1.0,0.0
4870,71.0,0,47,4.0,0.0
4871,62.0,57,47,11.0,0.0
4872,55.0,3,104,13.0,0.0
4873,73.0,0,47,4.0,0.0
4874,73.0,12,47,10.0,0.0
4875,64.0,0,47,11.0,0.0
4876,57.0,0,104,11.0,0.0
4877,86.0,0,104,0.0,0.0
4878,45.0,0,119,3.0,0.0
4879,69.0,0,104,2.0,0.0
4880,74.0,57,47,4.0,0.0
4881,54.0,48,119,14.0,0.0
4882,69.0,3,104,12.0,0.0
4883,74.0,0,47,10.0,0.0
4884,78.0,0,47,1.0,0.0
4885,54.0,0,104,13.0,0.0
4886,76.0,0,47,10.0,0.0
4887,76.0,12,47,1.0,0.0
4888,76.0,0,47,4.0,0.0
4889,78.0,0,47,1.0,0.0
4890,78.0,57,47,10.0,0.0
4891,78.0,0,47,4.0,0.0
4892,69.0,0,104,12.0,0.0
4893,79.0,0,104,0.0,0.0
4894,45.0,0,119,3.0,0.0
4895,52.0,0,104,13.0,0.0
4896,69.0,3,104,2.0,0.0
4897,73.0,0,104,11.0,0.0
4898,73.0,0,104,5.0,0.0
4899,52.0,48,119,14.0,0.0
4900,79.0,0,47,4.0,0.0
4901,79.0,12,47,1.0,0.0
4902,79.0,0,47,10.0,0.0
4903,81.0,0,119,1.0,0.0
4904,50.0,0,104,13.0,0.0
4905,74.0,0,104,11.0,0.0
4906,78.0,48,119,0.0,0.0
4907,69.0,0,119,2.0,0.0
4908,50.0,0,119,14.0,0.0
4909,69.0,0,47,12.0,0.0
4910,50.0,0,119,3.0,0.0
4911,74.0,3,104,5.0,0.0
4912,78.0,0,47,10.0,0.0
4913,78.0,57,47,4.0,0.0
4914,67.0,0,47,12.0,0.0
4915,76.0,0,47,10.0,0.0
4916,76.0,12,47,4.0,0.0
4917,55.0,48,119,14.0,0.0
4918,66.0,0,47,12.0,0.0
4919,55.0,3,104,13.0,0.0
4920,74.0,57,47,4.0,0.0
4921,74.0,0,47,10.0,0.0
4922,71.0,0,104,5.0,0.0
4923,71.0,0,104,11.0,0.0
4924,67.0,0,47,12.0,0.0
4925,76.0,0,47,10.0,0.0
4926,76.0,12,47,4.0,0.0
4927,76.0,0,119,0.0,0.0
4928,69.0,0,119,2.0,0.0
4929,69.0,0,104,5.0,0.0
4930,57.0,0,119,14.0,0.0
4931,69.0,3,104,4.0,0.0
4932,64.0,57,47,12.0,0.0
4933,57.0,0,104,13.0,0.0
4934,69.0,0,104,11.0,0.0
4935,79.0,0,119,1.0,0.0
4936,69.0,0,104,10.0,0.0
4937,45.0,48,119,3.0,0.0
4938,66.0,12,47,12.0,0.0
4939,67.0,57,47,12.0,0.0
4940,73.0,0,104,10.0,0.0
4941,69.0,0,104,5.0,0.0
4942,69.0,0,104,11.0,0.0
4943,45.0,48,119,14.0,0.0
4944,73.0,0,104,4.0,0.0
4945,45.0,3,104,13.0,0.0
4946,64.0,12,47,12.0,0.0
4947,74.0,0,119,4.0,0.0
4948,50.0,0,239,14.0,0.0
4949,74.0,60,47,10.0,0.0
4950,50.0,0,119,3.0,0.0
4951,78.0,48,119,1.0,0.0
4952,69.0,48,239,11.0,0.0
4953,66.0,0,239,12.0,0.0
4954,74.0,0,119,0.0,0.0
4955,50.0,0,239,13.0,0.0
4956,69.0,0,119,5.0,0.0
4957,69.0,0,119,2.0,0.0
4958,69.0,12,47,10.0,0.0
4959,66.0,60,47,10.0,0.0
4960,69.0,12,47,10.0,0.0
4961,62.0,60,47,10.0,0.0
4962,66.0,60,47,10.0,0.0
4963,69.0,0,104,11.0,0.0
4964,49.0,48,119,14.0,0.0
4965,64.0,0,104,12.0,0.0
4966,49.0,3,104,13.0,0.0
4967,64.0,57,47,10.0,0.0
4968,67.0,12,47,10.0,0.0
4969,69.0,0,104,11.0,0.0
4970,50.0,0,104,13.0,0.0
4971,50.0,48,119,14.0,0.0
4972,66.0,57,47,10.0,0.0
4973,62.0,3,104,12.0,0.0
4974,69.0,12,47,10.0,0.0
4975,71.0,0,104,11.0,0.0
4976,47.0,48,119,14.0,0.0
4977,47.0,0,104,13.0,0.0
4978,74.0,57,47,10.0,0.0
4979,66.0,3,104,12.0,0.0
4980,66.0,12,47,10.0,0.0
4981,43.0,0,104,13.0,0.0
4982,71.0,3,104,11.0,0.0
4983,43.0,48,119,14.0,0.0
4984,64.0,57,47,10.0,0.0
4985,67.0,0,104,12.0,0.0
4986,74.0,12,47,10.0,0.0
4987,69.0,0,104,11.0,0.0
4988,45.0,48,119,14.0,0.0
4989,45.0,0,104,13.0,0.0
4990,67.0,3,104,12.0,0.0
4991,64.0,57,47,10.0,0.0
4992,73.0,12,47,10.0,0.0
4993,69.0,0,239,11.0,0.0
4994,38.0,48,239,13.0,0.0
4995,74.0,60,47,10.0,0.0
4996,38.0,0,239,14.0,0.0
4997,66.0,0,239,12.0,0.0
4998,69.0,60,47,10.0,0.0
4999,74.0,60,47,10.0,0.0
5000,76.0,12,47,10.0,0.0
5001,78.0,60,47,10.0,0.0
5002,81.0,60,47,10.0,0.0
5003,64.0,0,104,12.0,0.0
5004,50.0,48,119,14.0,0.0
5005,50.0,3,104,13.0,0.0
5006,80.0,57,47,10.0,0.0
5007,71.0,0,104,11.0,0.0
5008,83.0,12,47,10.0,0.0
5009,49.0,3,104,13.0,0.0
5010,64.0,0,104,12.0,0.0
5011,73.0,0,104,11.0,0.0
5012,49.0,48,119,14.0,0.0
5013,81.0,57,47,10.0,0.0
5014,76.0,12,47,10.0,0.0
5015,54.0,0,104,13.0,0.0
5016,66.0,0,104,12.0,0.0
5017,73.0,57,47,10.0,0.0
5018,69.0,3,104,11.0,0.0
5019,54.0,48,119,14.0,0.0
5020,81.0,12,47,10.0,0.0
5021,71.0,57,47,10.0,0.0
5022,50.0,0,104,13.0,0.0
5023,50.0,48,119,14.0,0.0
5024,66.0,0,104,12.0,0.0
5025,78.0,3,104,11.0,0.0
5026,81.0,12,47,10.0,0.0
5027,71.0,57,47,10.0,0.0
5028,71.0,0,104,12.0,0.0
5029,76.0,0,104,11.0,0.0
5030,52.0,48,119,14.0,0.0
5031,52.0,3,104,13.0,0.0
5032,80.0,12,47,10.0,0.0
5033,73.0,0,239,12.0,0.0
5034,45.0,60,119,14.0,0.0
5035,81.0,57,47,10.0,0.0
5036,45.0,3,104,13.0,0.0
5037,76.0,0,239,11.0,0.0
5038,76.0,12,47,10.0,0.0
5039,73.0,45,59,10.0,0.0
5040,57.0,0,119,14.0,0.0
5041,57.0,15,104,13.0,0.0
5042,74.0,48,59,10.0,0.0
5043,57.0,3,104,13.0,0.0
5044,57.0,48,119,14.0,0.0
5045,76.0,57,47,10.0,0.0
5046,78.0,12,47,10.0,0.0
5047,57.0,0,119,14.0,0.0
5048,76.0,0,104,11.0,0.0
5049,57.0,48,119,13.0,0.0
5050,73.0,3,104,12.0,0.0
5051,76.0,57,47,10.0,0.0
5052,78.0,12,47,10.0,0.0
5053,76.0,0,104,11.0,0.0
5054,79.0,57,47,10.0,0.0
5055,73.0,3,104,12.0,0.0
5056,76.0,72,47,10.0,0.0
5057,55.0,0,119,14.0,0.0
5058,76.0,0,119,11.0,0.0
5059,73.0,48,119,12.0,0.0
5060,55.0,15,104,13.0,0.0
5061,69.0,45,59,10.0,0.0
5062,71.0,0,59,10.0,0.0
5063,55.0,3,104,13.0,0.0
5064,55.0,48,119,14.0,0.0
5065,73.0,57,47,10.0,0.0
5066,74.0,12,47,10.0,0.0
5067,73.0,57,47,10.0,0.0
5068,76.0,0,104,11.0,0.0
5069,55.0,0,119,14.0,0.0
5070,55.0,48,119,13.0,0.0
5071,71.0,3,104,12.0,0.0
5072,74.0,12,47,10.0,0.0
5073,70.0,3,104,12.0,0.0
5074,73.0,0,104,11.0,0.0
5075,76.0,57,47,10.0,0.0
5076,74.0,60,47,10.0,0.0
5077,54.0,3,104,13.0,0.0
5078,73.0,57,47,10.0,0.0
5079,73.0,0,119,11.0,0.0
5080,54.0,0,119,14.0,0.0
5081,70.0,48,119,12.0,0.0
5082,74.0,12,47,10.0,0.0
5083,76.0,57,47,10.0,0.0
5084,54.0,48,119,14.0,0.0
5085,54.0,3,104,13.0,0.0
5086,74.0,12,47,10.0,0.0
5087,73.0,57,47,10.0,0.0
5088,73.0,0,104,11.0,0.0
5089,54.0,48,119,14.0,0.0
5090,54.0,0,119,13.0,0.0
5091,70.0,3,104,12.0,0.0
5092,71.0,12,47,10.0,0.0
5093,70.0,57,47,10.0,0.0
5094,66.0,15,104,12.0,0.0
5095,73.0,0,104,11.0,0.0
5096,76.0,60,59,10.0,0.0
5097,70.0,0,119,11.0,0.0
5098,42.0,0,119,14.0,0.0
5099,42.0,3,104,13.0,0.0
5100,78.0,45,59,10.0,0.0
5101,66.0,48,119,12.0,0.0
5102,79.0,12,47,10.0,0.0
5103,42.0,48,119,14.0,0.0
5104,42.0,3,104,13.0,0.0
5105,78.0,57,47,10.0,0.0
5106,76.0,12,47,10.0,0.0
5107,42.0,0,119,14.0,0.0
5108,74.0,57,47,10.0,0.0
5109,70.0,0,104,11.0,0.0
5110,42.0,48,119,13.0,0.0
5111,66.0,3,104,12.0,0.0
5112,73.0,12,47,10.0,0.0
5113,74.0,57,47,10.0,0.0
5114,71.0,3,104,11.0,0.0
5115,66.0,0,104,12.0,0.0
5116,78.0,72,47,10.0,0.0
5117,71.0,45,59,10.0,0.0
5118,62.0,0,119,12.0,0.0
5119,47.0,0,119,14.0,0.0
5120,47.0,15,104,13.0,0.0
5121,66.0,0,119,11.0,0.0
5122,73.0,48,59,10.0,0.0
5123,47.0,3,104,13.0,0.0
5124,74.0,57,47,10.0,0.0
5125,47.0,48,119,14.0,0.0
5126,76.0,12,47,10.0,0.0
5127,47.0,0,119,13.0,0.0
5128,66.0,3,104,12.0,0.0
5129,47.0,48,119,14.0,0.0
5130,71.0,0,104,11.0,0.0
5131,74.0,57,47,10.0,0.0
5132,76.0,12,47,10.0,0.0
5133,72.0,0,104,11.0,0.0
5134,78.0,57,47,10.0,0.0
5135,63.0,3,104,12.0,0.0
5136,81.0,72,47,10.0,0.0
5137,54.0,0,119,14.0,0.0
5138,72.0,0,119,11.0,0.0
5139,54.0,15,104,13.0,0.0
5140,69.0,0,119,12.0,0.0
5141,75.0,45,59,10.0,0.0
5142,76.0,48,59,10.0,0.0
5143,54.0,48,119,14.0,0.0
5144,54.0,3,104,13.0,0.0
5145,78.0,57,47,10.0,0.0
5146,79.0,12,47,10.0,0.0
5147,54.0,48,119,14.0,0.0
5148,72.0,0,104,11.0,0.0
5149,78.0,57,47,10.0,0.0
5150,63.0,3,104,12.0,0.0
5151,54.0,0,119,13.0,0.0
5152,79.0,12,47,10.0,0.0
5153,63.0,15,104,12.0,0.0
5154,66.0,0,104,11.0,0.0
5155,81.0,57,47,10.0,0.0
5156,72.0,60,59,10.0,0.0
5157,69.0,48,119,11.0,0.0
5158,66.0,0,119,12.0,0.0
5159,51.0,3,104,13.0,0.0
5160,51.0,0,119,14.0,0.0
5161,71.0,45,59,10.0,0.0
5162,72.0,12,47,10.0,0.0
5163,51.0,15,104,13.0,0.0
5164,81.0,57,47,10.0,0.0
5165,51.0,0,119,14.0,0.0
5166,72.0,60,59,10.0,0.0
5167,69.0,3,104,11.0,0.0
5168,66.0,0,104,12.0,0.0
5169,71.0,45,59,10.0,0.0
5170,51.0,48,119,13.0,0.0
5171,51.0,0,119,14.0,0.0
5172,69.0,12,47,10.0,0.0
5173,66.0,3,104,12.0,0.0
5174,71.0,57,47,10.0,0.0
5175,63.0,0,104,11.0,0.0
5176,73.0,60,47,10.0,0.0
5177,75.0,57,47,10.0,0.0
5178,66.0,0,119,12.0,0.0
5179,71.0,0,119,11.0,0.0
5180,47.0,3,104,13.0,0.0
5181,47.0,48,119,14.0,0.0
5182,76.0,12,47,10.0,0.0
5183,47.0,48,119,14.0,0.0
5184,78.0,57,47,10.0,0.0
5185,47.0,3,104,13.0,0.0
5186,79.0,12,47,10.0,0.0
5187,47.0,0,104,13.0,0.0
5188,47.0,48,119,14.0,0.0
5189,75.0,0,104,11.0,0.0
5190,71.0,3,104,12.0,0.0
5191,81.0,57,47,10.0,0.0
5192,78.0,12,47,10.0,0.0
5193,76.0,0,239,11.0,0.0
5194,71.0,0,239,12.0,0.0
5195,79.0,57,47,10.0,0.0
5196,52.0,48,119,14.0,0.0
5197,52.0,3,104,13.0,0.0
5198,76.0,12,47,10.0,0.0
5199,64.0,48,119,14.0,0.0
5200,71.0,57,47,10.0,0.0
5201,64.0,3,104,13.0,0.0
5202,74.0,12,47,10.0,0.0
5203,57.0,48,119,14.0,0.0
5204,57.0,3,104,13.0,0.0
5205,73.0,57,47,10.0,0.0
5206,76.0,12,47,10.0,0.0
5207,61.0,48,119,14.0,0.0
5208,61.0,3,104,13.0,0.0
5209,69.0,57,47,10.0,0.0
5210,79.0,12,47,10.0,0.0
5211,78.0,57,47,10.0,0.0
5212,50.0,48,119,14.0,0.0
5213,50.0,3,104,13.0,0.0
5214,74.0,12,47,10.0,0.0
5215,62.0,48,119,14.0,0.0
5216,62.0,3,104,13.0,0.0
5217,69.0,57,47,10.0,0.0
5218,72.0,12,47,10.0,0.0
5219,55.0,48,119,14.0,0.0
5220,55.0,3,104,13.0,0.0
5221,71.0,57,47,10.0,0.0
5222,74.0,12,47,10.0,0.0
5223,67.0,57,47,10.0,0.0
5224,59.0,48,119,14.0,0.0
5225,59.0,3,104,13.0,0.0
5226,78.0,12,47,10.0,0.0
5227,49.0,48,119,14.0,0.0
5228,76.0,57,47,10.0,0.0
5229,49.0,3,104,13.0,0.0
5230,73.0,12,47,10.0,0.0
5231,61.0,48,119,14.0,0.0
5232,61.0,3,104,13.0,0.0
5233,68.0,57,47,10.0,0.0
5234,71.0,12,47,10.0,0.0
5235,70.0,57,47,10.0,0.0
5236,54.0,3,104,13.0,0.0
5237,54.0,48,119,14.0,0.0
5238,73.0,12,47,10.0,0.0
5239,58.0,48,119,14.0,0.0
5240,66.0,57,47,10.0,0.0
5241,58.0,3,104,13.0,0.0
5242,76.0,12,47,10.0,0.0
5243,47.0,48,119,14.0,0.0
5244,47.0,3,104,13.0,0.0
5245,74.0,57,47,10.0,0.0
5246,71.0,12,47,10.0,0.0
5247,59.0,48,119,14.0,0.0
5248,73.0,57,47,10.0,0.0
5249,59.0,3,104,13.0,0.0
5250,74.0,12,47,10.0,0.0
5251,55.0,3,104,13.0,0.0
5252,55.0,48,119,14.0,0.0
5253,76.0,57,47,10.0,0.0
5254,78.0,12,47,10.0,0.0
5255,79.0,57,47,10.0,0.0
5256,52.0,48,119,14.0,0.0
5257,52.0,3,104,13.0,0.0
5258,76.0,12,47,10.0,0.0
5259,70.0,72,47,10.0,0.0
5260,54.0,0,239,13.0,0.0
5261,76.0,0,1184,4.0,0.0
5262,54.0,0,239,14.0,0.0
5263,76.0,48,59,10.0,0.0
5264,78.0,48,59,10.0,0.0
5265,66.0,48,119,0.0,0.0
5266,66.0,12,47,11.0,0.0
5267,76.0,0,47,10.0,0.0
5268,68.0,12,47,11.0,0.0
5269,73.0,48,239,12.0,0.0
5270,78.0,57,47,10.0,0.0
5271,70.0,3,104,11.0,0.0
5272,66.0,48,119,0.0,0.0
5273,76.0,12,47,10.0,0.0
5274,70.0,0,47,11.0,0.0
5275,66.0,3,104,0.0,0.0
5276,78.0,57,47,10.0,0.0
5277,71.0,12,47,11.0,0.0
5278,76.0,0,47,10.0,0.0
5279,70.0,57,47,10.0,0.0
5280,73.0,15,104,11.0,0.0
5281,66.0,0,119,0.0,0.0
5282,42.0,0,239,13.0,0.0
5283,42.0,0,239,14.0,0.0
5284,76.0,48,59,10.0,0.0
5285,66.0,0,119,1.0,0.0
5286,66.0,48,119,0.0,0.0
5287,78.0,48,59,10.0,0.0
5288,70.0,12,47,11.0,0.0
5289,76.0,0,47,10.0,0.0
5290,71.0,12,47,11.0,0.0
5291,66.0,48,119,0.0,0.0
5292,66.0,0,119,1.0,0.0
5293,78.0,57,47,10.0,0.0
5294,70.0,48,239,12.0,0.0
5295,73.0,3,104,11.0,0.0
5296,76.0,12,47,10.0,0.0
5297,73.0,0,47,11.0,0.0
5298,66.0,3,104,1.0,0.0
5299,66.0,0,104,0.0,0.0
5300,78.0,57,47,10.0,0.0
5301,76.0,12,47,10.0,0.0
5302,74.0,0,47,11.0,0.0
5303,66.0,0,119,1.0,0.0
5304,66.0,0,119,0.0,0.0
5305,70.0,57,47,10.0,0.0
5306,76.0,15,104,11.0,0.0
5307,76.0,48,59,10.0,0.0
5308,66.0,0,119,0.0,0.0
5309,54.0,3,104,13.0,0.0
5310,78.0,45,59,10.0,0.0
5311,54.0,48,119,14.0,0.0
5312,76.0,12,47,11.0,0.0
5313,66.0,0,119,2.0,0.0
5314,66.0,0,119,1.0,0.0
5315,79.0,0,47,10.0,0.0
5316,74.0,12,47,11.0,0.0
5317,78.0,57,47,10.0,0.0
5318,73.0,0,224,4.0,0.0
5319,66.0,0,119,0.0,0.0
5320,76.0,3,104,11.0,0.0
5321,66.0,48,119,2.0,0.0
5322,58.0,0,104,13.0,0.0
5323,66.0,0,119,1.0,0.0
5324,66.0,0,239,12.0,0.0
5325,58.0,0,119,14.0,0.0
5326,76.0,12,47,10.0,0.0
5327,75.0,0,47,10.0,0.0
5328,66.0,0,104,0.0,0.0
5329,78.0,57,47,11.0,0.0
5330,66.0,0,104,1.0,0.0
5331,54.0,48,119,14.0,0.0
5332,66.0,0,104,2.0,0.0
5333,54.0,3,104,13.0,0.0
5334,73.0,0,47,10.0,0.0
5335,76.0,12,47,11.0,0.0
5336,75.0,3,224,11.0,0.0
5337,59.0,0,239,14.0,0.0
5338,69.0,72,47,10.0,0.0
5339,66.0,0,119,1.0,0.0
5340,59.0,48,239,13.0,0.0
5341,66.0,0,119,0.0,0.0
5342,66.0,0,119,2.0,0.0
5343,75.0,0,1424,4.0,0.0
5344,69.0,0,1184,5.0,0.0
5345,75.0,48,59,10.0,0.0
5346,78.0,45,59,10.0,0.0
5347,59.0,12,47,12.0,0.0
5348,75.0,0,47,10.0,0.0
5349,61.0,12,47,12.0,0.0
5350,71.0,48,239,11.0,0.0
5351,78.0,57,47,10.0,0.0
5352,63.0,3,104,12.0,0.0
5353,75.0,60,47,10.0,0.0
5354,63.0,60,47,12.0,0.0
5355,78.0,0,47,10.0,0.0
5356,75.0,12,47,10.0,0.0
5357,64.0,0,47,12.0,0.0
5358,47.0,48,239,14.0,0.0
5359,66.0,15,104,12.0,0.0
5360,47.0,0,239,13.0,0.0
5361,69.0,57,47,10.0,0.0
5362,75.0,48,59,10.0,0.0
5363,63.0,12,47,12.0,0.0
5364,78.0,48,59,10.0,0.0
5365,75.0,0,47,10.0,0.0
5366,64.0,12,47,12.0,0.0
5367,75.0,48,239,11.0,0.0
5368,66.0,3,104,12.0,0.0
5369,78.0,57,47,10.0,0.0
5370,75.0,60,47,10.0,0.0
5371,78.0,0,47,10.0,0.0
5372,66.0,60,47,12.0,0.0
5373,68.0,0,47,12.0,0.0
5374,75.0,12,47,10.0,0.0
5375,69.0,15,104,12.0,0.0
5376,69.0,57,47,10.0,0.0
5377,75.0,48,59,10.0,0.0
5378,78.0,45,59,10.0,0.0
5379,59.0,48,119,14.0,0.0
5380,69.0,12,47,12.0,0.0
5381,59.0,3,104,13.0,0.0
5382,76.0,0,47,10.0,0.0
5383,68.0,12,47,12.0,0.0
5384,66.0,3,224,5.0,0.0
5385,78.0,0,239,11.0,0.0
5386,69.0,3,104,12.0,0.0
5387,47.0,48,119,14.0,0.0
5388,75.0,57,47,10.0,0.0
5389,47.0,0,104,13.0,0.0
5390,73.0,12,47,10.0,0.0
5391,51.0,0,104,13.0,0.0
5392,51.0,48,119,14.0,0.0
5393,71.0,57,47,12.0,0.0
5394,71.0,0,47,10.0,0.0
5395,69.0,12,47,10.0,0.0
5396,69.0,0,47,12.0,0.0
5397,68.0,0,1424,5.0,0.0
5398,74.0,3,1424,4.0,0.0
5399,52.0,0,239,14.0,0.0
5400,68.0,3,224,12.0,0.0
5401,52.0,48,239,13.0,0.0
5402,68.0,72,47,10.0,0.0
5403,74.0,48,59,10.0,0.0
5404,76.0,45,59,10.0,0.0
5405,64.0,12,47,11.0,0.0
5406,74.0,0,47,10.0,0.0
5407,66.0,12,47,11.0,0.0
5408,68.0,3,104,11.0,0.0
5409,76.0,57,47,10.0,0.0
5410,71.0,48,239,12.0,0.0
5411,74.0,60,47,10.0,0.0
5412,68.0,60,47,11.0,0.0
5413,76.0,0,47,10.0,0.0
5414,69.0,0,47,11.0,0.0
5415,74.0,12,47,10.0,0.0
5416,40.0,0,239,13.0,0.0
5417,68.0,57,47,10.0,0.0
5418,40.0,48,239,14.0,0.0
5419,71.0,15,104,11.0,0.0
5420,74.0,48,59,10.0,0.0
5421,76.0,48,59,10.0,0.0
5422,68.0,12,47,11.0,0.0
5423,69.0,12,47,11.0,0.0
5424,74.0,0,47,10.0,0.0
5425,76.0,57,47,10.0,0.0
5426,68.0,48,239,12.0,0.0
5427,71.0,3,104,11.0,0.0
5428,74.0,60,47,10.0,0.0
5429,76.0,0,47,10.0,0.0
5430,71.0,60,47,11.0,0.0
5431,74.0,0,47,10.0,0.0
5432,73.0,12,47,11.0,0.0
5433,68.0,57,47,10.0,0.0
5434,74.0,15,104,11.0,0.0
5435,74.0,48,59,10.0,0.0
5436,52.0,3,104,13.0,0.0
5437,52.0,48,119,14.0,0.0
5438,74.0,12,47,11.0,0.0
5439,76.0,45,59,10.0,0.0
5440,78.0,0,47,10.0,0.0
5441,73.0,12,47,11.0,0.0
5442,56.0,48,119,14.0,0.0
5443,56.0,3,104,13.0,0.0
5444,74.0,0,104,11.0,0.0
5445,76.0,57,47,10.0,0.0
5446,64.0,48,239,12.0,0.0
5447,74.0,12,47,10.0,0.0
5448,52.0,0,104,13.0,0.0
5449,52.0,0,119,14.0,0.0
5450,73.0,57,47,10.0,0.0
5451,76.0,0,47,11.0,0.0
5452,74.0,12,47,11.0,0.0
5453,71.0,0,47,10.0,0.0
5454,67.0,72,47,10.0,0.0
5455,67.0,0,1424,5.0,0.0
5456,73.0,0,1424,4.0,0.0
5457,57.0,0,239,14.0,0.0
5458,57.0,48,239,13.0,0.0
5459,73.0,3,224,11.0,0.0
5460,73.0,48,59,10.0,0.0
5461,69.0,0,119,0.0,0.0
5462,57.0,12,47,12.0,0.0
5463,76.0,45,59,10.0,0.0
5464,73.0,12,47,10.0,0.0
5465,59.0,0,47,12.0,0.0
5466,61.0,3,104,12.0,0.0
5467,69.0,48,119,0.0,0.0
5468,69.0,48,239,11.0,0.0
5469,76.0,57,47,10.0,0.0
5470,73.0,12,47,10.0,0.0
5471,76.0,57,47,10.0,0.0
5472,61.0,0,47,12.0,0.0
5473,69.0,3,104,0.0,0.0
5474,62.0,0,47,12.0,0.0
5475,73.0,12,47,10.0,0.0
5476,45.0,0,239,14.0,0.0
5477,67.0,57,47,10.0,0.0
5478,64.0,15,104,12.0,0.0
5479,69.0,0,104,0.0,0.0
5480,45.0,48,239,13.0,0.0
5481,73.0,48,59,10.0,0.0
5482,61.0,12,47,12.0,0.0
5483,69.0,3,104,0.0,0.0
5484,76.0,45,59,10.0,0.0
5485,69.0,0,119,1.0,0.0
5486,73.0,0,47,10.0,0.0
5487,62.0,12,47,12.0,0.0
5488,76.0,57,47,10.0,0.0
5489,73.0,48,239,11.0,0.0
5490,69.0,48,119,1.0,0.0
5491,69.0,0,104,0.0,0.0
5492,64.0,3,104,12.0,0.0
5493,73.0,12,47,10.0,0.0
5494,76.0,57,47,10.0,0.0
5495,69.0,0,104,0.0,0.0
5496,69.0,3,104,1.0,0.0
5497,64.0,0,47,12.0,0.0
5498,73.0,0,47,10.0,0.0
5499,66.0,12,47,12.0,0.0
5500,69.0,0,104,1.0,0.0
5501,67.0,15,104,12.0,0.0
5502,67.0,57,47,10.0,0.0
5503,69.0,0,104,0.0,0.0
5504,73.0,48,59,10.0,0.0
5505,57.0,3,104,13.0,0.0
5506,67.0,12,47,12.0,0.0
5507,76.0,0,104,0.0,0.0
5508,45.0,0,119,3.0,0.0
5509,76.0,45,59,10.0,0.0
5510,69.0,0,104,1.0,0.0
5511,69.0,0,119,2.0,0.0
5512,57.0,60,119,14.0,0.0
5513,74.0,0,47,10.0,0.0
5514,66.0,12,47,12.0,0.0
5515,69.0,48,119,2.0,0.0
5516,45.0,0,119,14.0,0.0
5517,73.0,45,59,10.0,0.0
5518,45.0,0,119,3.0,0.0
5519,76.0,0,104,1.0,0.0
5520,81.0,0,104,0.0,0.0
5521,76.0,0,224,11.0,0.0
5522,45.0,0,104,13.0,0.0
5523,67.0,15,104,12.0,0.0
5524,71.0,0,59,10.0,0.0
5525,49.0,48,119,14.0,0.0
5526,69.0,45,59,10.0,0.0
5527,69.0,0,104,1.0,0.0
5528,76.0,0,104,0.0,0.0
5529,45.0,0,119,3.0,0.0
5530,69.0,12,47,12.0,0.0
5531,69.0,0,104,2.0,0.0
5532,49.0,3,104,13.0,0.0
5533,67.0,0,47,12.0,0.0
5534,67.0,12,47,10.0,0.0
5535,50.0,3,104,13.0,0.0
5536,66.0,57,47,10.0,0.0
5537,66.0,0,119,5.0,0.0
5538,50.0,48,119,3.0,0.0
5539,74.0,0,239,11.0,0.0
5540,50.0,0,119,14.0,0.0
5541,74.0,0,119,4.0,0.0
5542,66.0,0,239,12.0,0.0
5543,62.0,0,119,2.0,0.0
5544,78.0,0,119,0.0,0.0
5545,69.0,0,119,1.0,0.0
5546,62.0,12,47,10.0,0.0
5547,64.0,57,47,10.0,0.0
5548,49.0,48,119,14.0,0.0
5549,49.0,3,104,13.0,0.0
5550,67.0,12,47,10.0,0.0
5551,50.0,3,104,13.0,0.0
5552,66.0,57,47,10.0,0.0
5553,50.0,48,119,14.0,0.0
5554,69.0,12,47,10.0,0.0
5555,68.0,57,47,10.0,0.0
5556,52.0,3,104,13.0,0.0
5557,52.0,48,119,14.0,0.0
5558,71.0,12,47,10.0,0.0
5559,54.0,48,119,14.0,0.0
5560,69.0,57,47,10.0,0.0
5561,54.0,3,104,13.0,0.0
5562,66.0,12,47,10.0,0.0
5563,52.0,48,119,14.0,0.0
5564,68.0,57,47,10.0,0.0
5565,52.0,3,104,13.0,0.0
5566,71.0,12,47,10.0,0.0
5567,54.0,3,104,13.0,0.0
5568,69.0,57,47,10.0,0.0
5569,54.0,48,119,14.0,0.0
5570,73.0,12,47,10.0,0.0
5571,56.0,48,119,14.0,0.0
5572,56.0,3,104,13.0,0.0
5573,71.0,57,47,10.0,0.0
5574,74.0,12,47,10.0,0.0
5575,57.0,3,104,13.0,0.0
5576,57.0,48,119,14.0,0.0
5577,73.0,57,47,10.0,0.0
5578,69.0,12,47,10.0,0.0
5579,56.0,3,104,13.0,0.0
5580,71.0,57,47,10.0,0.0
5581,56.0,48,119,14.0,0.0
5582,74.0,12,47,10.0,0.0
5583,57.0,3,104,13.0,0.0
5584,73.0,57,47,10.0,0.0
5585,57.0,48,119,14.0,0.0
5586,76.0,12,47,10.0,0.0
5587,74.0,57,47,10.0,0.0
5588,54.0,3,104,13.0,0.0
5589,54.0,105,119,14.0,0.0
5590,78.0,12,47,10.0,0.0
5591,76.0,57,167,10.0,0.0
5592,49.0,15,104,13.0,0.0
5593,49.0,48,119,14.0,0.0
5594,50.0,3,104,13.0,0.0
5595,50.0,105,119,14.0,0.0
5596,78.0,12,47,10.0,0.0
5597,71.0,57,167,10.0,0.0
5598,52.0,48,119,14.0,0.0
5599,52.0,15,104,13.0,0.0
5600,40.0,48,119,14.0,0.0
5601,40.0,3,104,13.0,0.0
5602,69.0,12,47,10.0,0.0
5603,45.0,48,119,14.0,0.0
5604,45.0,3,104,13.0,0.0
5605,69.0,57,47,10.0,0.0
5606,71.0,12,47,10.0,0.0
5607,45.0,0,47,13.0,0.0
5608,73.0,12,47,10.0,0.0
5609,73.0,0,47,4.0,0.0
5610,45.0,45,59,14.0,0.0
5611,76.0,0,104,5.0,0.0
5612,69.0,0,104,12.0,0.0
5613,76.0,0,104,0.0,0.0
5614,76.0,3,104,11.0,0.0
5615,74.0,0,47,4.0,0.0
5616,74.0,0,47,10.0,0.0
5617,47.0,48,59,14.0,0.0
5618,47.0,12,47,13.0,0.0
5619,69.0,0,104,12.0,0.0
5620,81.0,0,104,0.0,0.0
5621,76.0,0,47,10.0,0.0
5622,76.0,57,47,4.0,0.0
5623,49.0,48,119,14.0,0.0
5624,49.0,0,104,13.0,0.0
5625,69.0,3,104,5.0,0.0
5626,69.0,0,104,11.0,0.0
5627,78.0,0,47,4.0,0.0
5628,78.0,12,47,10.0,0.0
5629,69.0,3,104,12.0,0.0
5630,76.0,0,47,4.0,0.0
5631,76.0,12,47,10.0,0.0
5632,73.0,3,224,5.0,0.0
5633,49.0,45,59,14.0,0.0
5634,49.0,0,47,13.0,0.0
5635,76.0,0,104,1.0,0.0
5636,73.0,0,224,11.0,0.0
5637,76.0,48,119,0.0,0.0
5638,78.0,12,47,4.0,0.0
5639,50.0,0,59,14.0,0.0
5640,78.0,0,47,10.0,0.0
5641,50.0,0,47,13.0,0.0
5642,79.0,57,47,10.0,0.0
5643,79.0,0,104,1.0,0.0
5644,52.0,48,119,14.0,0.0
5645,69.0,0,104,12.0,0.0
5646,52.0,0,104,13.0,0.0
5647,79.0,0,47,4.0,0.0
5648,76.0,0,47,4.0,0.0
5649,76.0,12,47,10.0,0.0
5650,76.0,0,119,1.0,0.0
5651,76.0,0,104,0.0,0.0
5652,49.0,0,47,13.0,0.0
5653,76.0,0,104,11.0,0.0
5654,76.0,3,104,5.0,0.0
5655,49.0,45,59,14.0,0.0
5656,69.0,0,47,10.0,0.0
5657,69.0,12,47,4.0,0.0
5658,69.0,0,104,12.0,0.0
5659,50.0,48,59,14.0,0.0
5660,50.0,0,47,13.0,0.0
5661,71.0,0,47,10.0,0.0
5662,71.0,12,47,4.0,0.0
5663,73.0,57,47,10.0,0.0
5664,52.0,48,119,14.0,0.0
5665,69.0,3,104,12.0,0.0
5666,67.0,0,104,5.0,0.0
5667,67.0,0,104,11.0,0.0
5668,52.0,0,104,13.0,0.0
5669,79.0,0,104,0.0,0.0
5670,73.0,0,47,4.0,0.0
5671,74.0,0,47,10.0,0.0
5672,74.0,12,47,4.0,0.0
5673,73.0,0,224,5.0,0.0
5674,76.0,0,119,0.0,0.0
5675,73.0,12,47,4.0,0.0
5676,76.0,0,104,1.0,0.0
5677,73.0,0,224,11.0,0.0
5678,69.0,3,104,12.0,0.0
5679,52.0,0,47,13.0,0.0
5680,73.0,0,47,10.0,0.0
5681,52.0,45,59,14.0,0.0
5682,54.0,48,59,14.0,0.0
5683,74.0,0,47,10.0,0.0
5684,74.0,0,47,4.0,0.0
5685,54.0,12,47,13.0,0.0
5686,69.0,3,104,12.0,0.0
5687,55.0,48,119,14.0,0.0
5688,76.0,57,47,10.0,0.0
5689,81.0,0,104,1.0,0.0
5690,76.0,0,47,4.0,0.0
5691,55.0,0,104,13.0,0.0
5692,74.0,12,47,10.0,0.0
5693,74.0,0,47,4.0,0.0
5694,55.0,0,47,13.0,0.0
5695,76.0,0,104,11.0,0.0
5696,55.0,45,59,14.0,0.0
5697,45.0,48,119,3.0,0.0
5698,73.0,0,47,4.0,0.0
5699,76.0,0,104,5.0,0.0
5700,69.0,0,104,2.0,0.0
5701,69.0,0,104,1.0,0.0
5702,69.0,3,104,12.0,0.0
5703,73.0,0,47,10.0,0.0
5704,76.0,12,47,0.0,0.0
5705,74.0,12,47,4.0,0.0
5706,74.0,0,47,0.0,0.0
5707,74.0,0,47,10.0,0.0
5708,54.0,0,59,14.0,0.0
5709,54.0,0,47,13.0,0.0
5710,69.0,0,104,2.0,0.0
5711,55.0,0,119,14.0,0.0
5712,69.0,0,104,5.0,0.0
5713,45.0,48,119,3.0,0.0
5714,69.0,0,104,11.0,0.0
5715,69.0,0,104,1.0,0.0
5716,76.0,0,47,10.0,0.0
5717,76.0,57,47,4.0,0.0
5718,76.0,3,104,0.0,0.0
5719,69.0,0,104,12.0,0.0
5720,55.0,0,104,13.0,0.0
5721,74.0,0,47,4.0,0.0
5722,74.0,12,47,10.0,0.0
5723,69.0,0,104,1.0,0.0
5724,69.0,3,104,12.0,0.0
5725,73.0,0,104,5.0,0.0
5726,57.0,45,59,14.0,0.0
5727,57.0,0,47,13.0,0.0
5728,69.0,0,104,2.0,0.0
5729,73.0,12,47,10.0,0.0
5730,73.0,0,47,4.0,0.0
5731,73.0,0,104,11.0,0.0
5732,78.0,0,47,0.0,0.0
5733,45.0,0,119,3.0,0.0
5734,71.0,0,47,4.0,0.0
5735,55.0,12,47,13.0,0.0
5736,55.0,48,59,14.0,0.0
5737,71.0,0,47,10.0,0.0
5738,76.0,0,47,0.0,0.0
5739,74.0,0,104,0.0,0.0
5740,69.0,0,104,4.0,0.0
5741,69.0,3,104,12.0,0.0
5742,62.0,0,119,2.0,0.0
5743,69.0,0,119,1.0,0.0
5744,54.0,48,119,14.0,0.0
5745,69.0,0,104,10.0,0.0
5746,74.0,0,47,11.0,0.0
5747,50.0,0,119,3.0,0.0
5748,54.0,0,104,13.0,0.0
5749,74.0,57,47,5.0,0.0
5750,73.0,0,47,11.0,0.0
5751,73.0,12,47,5.0,0.0
5752,74.0,0,47,5.0,0.0
5753,78.0,3,104,0.0,0.0
5754,74.0,12,47,11.0,0.0
5755,78.0,0,104,4.0,0.0
5756,71.0,0,104,12.0,0.0
5757,47.0,45,59,14.0,0.0
5758,47.0,0,47,13.0,0.0
5759,78.0,0,104,10.0,0.0
5760,49.0,48,59,14.0,0.0
5761,49.0,0,47,13.0,0.0
5762,76.0,0,47,11.0,0.0
5763,76.0,12,47,5.0,0.0
5764,78.0,0,47,11.0,0.0
5765,51.0,3,104,13.0,0.0
5766,71.0,0,104,12.0,0.0
5767,83.0,0,104,0.0,0.0
5768,71.0,0,104,10.0,0.0
5769,51.0,48,119,14.0,0.0
5770,78.0,57,47,5.0,0.0
5771,71.0,0,104,4.0,0.0
5772,79.0,12,47,5.0,0.0
5773,79.0,0,47,11.0,0.0
5774,78.0,48,119,0.0,0.0
5775,71.0,3,104,12.0,0.0
5776,75.0,0,224,4.0,0.0
5777,78.0,0,47,11.0,0.0
5778,78.0,0,104,1.0,0.0
5779,78.0,0,47,5.0,0.0
5780,75.0,0,224,10.0,0.0
5781,51.0,12,47,13.0,0.0
5782,51.0,45,59,14.0,0.0
5783,52.0,0,47,13.0,0.0
5784,79.0,12,47,5.0,0.0
5785,52.0,0,59,14.0,0.0
5786,79.0,0,47,11.0,0.0
5787,71.0,3,104,12.0,0.0
5788,54.0,0,104,13.0,0.0
5789,81.0,57,47,11.0,0.0
5790,54.0,48,119,14.0,0.0
5791,81.0,0,104,1.0,0.0
5792,81.0,0,47,5.0,0.0
5793,78.0,12,47,11.0,0.0
5794,78.0,0,47,5.0,0.0
5795,78.0,0,104,4.0,0.0
5796,71.0,3,104,12.0,0.0
5797,71.0,12,47,11.0,0.0
5798,51.0,45,59,14.0,0.0
5799,78.0,0,104,0.0,0.0
5800,71.0,0,47,5.0,0.0
5801,51.0,0,47,13.0,0.0
5802,78.0,0,119,1.0,0.0
5803,78.0,0,104,10.0,0.0
5804,52.0,0,47,13.0,0.0
5805,52.0,48,59,14.0,0.0
5806,73.0,0,47,5.0,0.0
5807,73.0,12,47,11.0,0.0
5808,54.0,0,104,13.0,0.0
5809,75.0,57,47,11.0,0.0
5810,75.0,0,47,5.0,0.0
5811,69.0,0,104,4.0,0.0
5812,69.0,0,104,10.0,0.0
5813,71.0,3,104,12.0,0.0
5814,54.0,48,119,14.0,0.0
5815,81.0,0,104,0.0,0.0
5816,76.0,12,47,5.0,0.0
5817,76.0,0,47,11.0,0.0
5818,75.0,0,47,5.0,0.0
5819,78.0,0,119,0.0,0.0
5820,75.0,0,224,4.0,0.0
5821,54.0,45,59,14.0,0.0
5822,75.0,3,224,10.0,0.0
5823,54.0,0,47,13.0,0.0
5824,75.0,12,47,11.0,0.0
5825,78.0,0,104,1.0,0.0
5826,71.0,3,104,12.0,0.0
5827,76.0,0,47,5.0,0.0
5828,76.0,0,47,11.0,0.0
5829,56.0,12,47,13.0,0.0
5830,56.0,48,59,14.0,0.0
5831,83.0,0,104,1.0,0.0
5832,78.0,0,47,11.0,0.0
5833,57.0,48,119,14.0,0.0
5834,57.0,0,104,13.0,0.0
5835,71.0,0,104,12.0,0.0
5836,78.0,57,47,5.0,0.0
5837,76.0,12,47,5.0,0.0
5838,76.0,0,47,11.0,0.0
5839,57.0,45,59,14.0,0.0
5840,75.0,0,47,11.0,0.0
5841,71.0,0,104,12.0,0.0
5842,75.0,0,47,5.0,0.0
5843,57.0,0,47,13.0,0.0
5844,78.0,12,47,0.0,0.0
5845,78.0,3,104,4.0,0.0
5846,78.0,0,119,1.0,0.0
5847,78.0,0,104,10.0,0.0
5848,76.0,0,47,11.0,0.0
5849,76.0,0,47,5.0,0.0
5850,56.0,12,47,13.0,0.0
5851,76.0,0,47,0.0,0.0
5852,56.0,48,59,14.0,0.0
5853,57.0,48,119,14.0,0.0
5854,71.0,3,104,4.0,0.0
5855,78.0,0,104,0.0,0.0
5856,71.0,0,104,12.0,0.0
5857,71.0,0,104,10.0,0.0
5858,78.0,57,47,11.0,0.0
5859,57.0,0,104,13.0,0.0
5860,78.0,0,47,5.0,0.0
5861,76.0,0,47,11.0,0.0
5862,76.0,12,47,5.0,0.0
5863,59.0,45,59,14.0,0.0
5864,80.0,0,47,0.0,0.0
5865,75.0,0,47,11.0,0.0
5866,71.0,0,104,12.0,0.0
5867,75.0,0,104,4.0,0.0
5868,59.0,12,47,13.0,0.0
5869,75.0,3,104,10.0,0.0
5870,75.0,0,47,5.0,0.0
5871,73.0,0,47,5.0,0.0
5872,57.0,48,59,14.0,0.0
5873,57.0,12,47,13.0,0.0
5874,78.0,0,47,0.0,0.0
5875,73.0,0,47,11.0,0.0
5876,56.0,48,119,14.0,0.0
5877,76.0,0,119,0.0,0.0
5878,76.0,0,104,10.0,0.0
5879,76.0,0,104,4.0,0.0
5880,71.0,57,47,12.0,0.0
5881,71.0,0,104,5.0,0.0
5882,71.0,0,104,11.0,0.0
5883,56.0,3,104,13.0,0.0
5884,76.0,12,47,12.0,0.0
5885,59.0,3,104,13.0,0.0
5886,68.0,0,47,12.0,0.0
5887,64.0,0,47,10.0,0.0
5888,64.0,57,47,4.0,0.0
5889,76.0,0,104,5.0,0.0
5890,76.0,0,119,0.0,0.0
5891,59.0,48,119,14.0,0.0
5892,76.0,0,104,11.0,0.0
5893,69.0,12,47,12.0,0.0
5894,66.0,0,47,10.0,0.0
5895,66.0,0,47,4.0,0.0
5896,76.0,0,104,5.0,0.0
5897,68.0,0,104,10.0,0.0
5898,68.0,3,104,4.0,0.0
5899,71.0,57,47,12.0,0.0
5900,76.0,0,119,0.0,0.0
5901,76.0,0,104,11.0,0.0
5902,52.0,48,119,14.0,0.0
5903,52.0,0,104,13.0,0.0
5904,73.0,12,47,12.0,0.0
5905,76.0,0,104,5.0,0.0
5906,76.0,3,104,11.0,0.0
5907,68.0,0,47,4.0,0.0
5908,68.0,57,47,10.0,0.0
5909,56.0,0,224,13.0,0.0
5910,76.0,0,104,0.0,0.0
5911,71.0,0,47,12.0,0.0
5912,56.0,48,239,14.0,0.0
5913,69.0,0,47,4.0,0.0
5914,69.0,60,47,10.0,0.0
5915,73.0,0,47,12.0,0.0
5916,71.0,3,104,4.0,0.0
5917,76.0,0,119,0.0,0.0
5918,71.0,0,104,10.0,0.0
5919,74.0,57,47,12.0,0.0
5920,76.0,0,104,5.0,0.0
5921,76.0,0,104,11.0,0.0
5922,71.0,12,47,12.0,0.0
5923,76.0,0,104,11.0,0.0
5924,68.0,0,47,4.0,0.0
5925,59.0,48,119,14.0,0.0
5926,59.0,0,104,13.0,0.0
5927,76.0,0,104,1.0,0.0
5928,76.0,0,119,0.0,0.0
5929,68.0,57,47,10.0,0.0
5930,64.0,0,47,12.0,0.0
5931,76.0,3,104,5.0,0.0
5932,69.0,0,47,4.0,0.0
5933,69.0,12,47,10.0,0.0
5934,66.0,0,47,12.0,0.0
5935,76.0,0,119,0.0,0.0
5936,68.0,57,47,12.0,0.0
5937,71.0,3,104,4.0,0.0
5938,76.0,0,104,5.0,0.0
5939,76.0,0,104,11.0,0.0
5940,71.0,0,104,10.0,0.0
5941,50.0,48,119,14.0,0.0
5942,50.0,0,104,13.0,0.0
5943,76.0,0,104,1.0,0.0
5944,69.0,12,47,12.0,0.0
5945,76.0,3,104,5.0,0.0
5946,76.0,0,104,0.0,0.0
5947,71.0,0,47,4.0,0.0
5948,71.0,57,47,10.0,0.0
5949,76.0,0,104,1.0,0.0
5950,76.0,0,104,11.0,0.0
5951,56.0,48,239,14.0,0.0
5952,56.0,0,224,13.0,0.0
5953,68.0,0,47,12.0,0.0
5954,73.0,60,47,10.0,0.0
5955,73.0,0,47,4.0,0.0
5956,69.0,0,47,12.0,0.0
5957,76.0,0,104,0.0,0.0
5958,71.0,57,47,12.0,0.0
5959,74.0,0,104,4.0,0.0
5960,74.0,0,104,10.0,0.0
5961,76.0,3,104,5.0,0.0
5962,76.0,0,104,11.0,0.0
5963,76.0,0,104,1.0,0.0
5964,69.0,12,47,12.0,0.0
5965,76.0,0,104,11.0,0.0
5966,74.0,57,47,10.0,0.0
5967,76.0,3,104,5.0,0.0
5968,59.0,0,104,13.0,0.0
5969,80.0,0,104,1.0,0.0
5970,68.0,0,47,12.0,0.0
5971,74.0,0,47,4.0,0.0
5972,83.0,0,119,0.0,0.0
5973,59.0,48,119,14.0,0.0
5974,76.0,0,104,2.0,0.0
5975,73.0,12,47,4.0,0.0
5976,73.0,0,47,10.0,0.0
5977,69.0,0,47,12.0,0.0
5978,76.0,0,104,2.0,0.0
5979,80.0,0,119,0.0,0.0
5980,52.0,0,104,13.0,0.0
5981,52.0,48,119,14.0,0.0
5982,83.0,0,104,1.0,0.0
5983,76.0,0,104,5.0,0.0
5984,71.0,57,47,12.0,0.0
5985,74.0,0,104,10.0,0.0
5986,76.0,0,104,11.0,0.0
5987,74.0,3,104,4.0,0.0
5988,69.0,12,47,12.0,0.0
5989,68.0,0,47,12.0,0.0
5990,76.0,57,47,4.0,0.0
5991,56.0,48,119,14.0,0.0
5992,83.0,0,104,0.0,0.0
5993,56.0,0,104,13.0,0.0
5994,80.0,0,104,1.0,0.0
5995,76.0,0,47,10.0,0.0
5996,76.0,0,104,2.0,0.0
5997,71.0,0,104,11.0,0.0
5998,71.0,3,104,5.0,0.0
5999,74.0,0,47,10.0,0.0
6000,74.0,0,47,4.0,0.0
6001,66.0,12,47,12.0,0.0
6002,45.0,0,119,14.0,0.0
6003,45.0,0,104,13.0,0.0
6004,69.0,57,47,5.0,0.0
6005,76.0,0,119,1.0,0.0
6006,85.0,0,119,0.0,0.0
6007,73.0,0,104,10.0,0.0
6008,45.0,48,119,3.0,0.0
6009,73.0,0,104,4.0,0.0
6010,76.0,0,119,2.0,0.0
6011,69.0,0,47,11.0,0.0
6012,64.0,3,104,12.0,0.0
6013,68.0,12,47,11.0,0.0
6014,68.0,0,47,5.0,0.0
6015,61.0,0,104,12.0,0.0
6016,73.0,57,47,10.0,0.0
6017,69.0,0,47,5.0,0.0
6018,73.0,0,47,4.0,0.0
6019,69.0,0,47,11.0,0.0
6020,57.0,3,104,13.0,0.0
6021,57.0,48,119,14.0,0.0
6022,71.0,0,47,4.0,0.0
6023,71.0,12,47,5.0,0.0
6024,71.0,0,47,10.0,0.0
6025,71.0,0,47,11.0,0.0
6026,73.0,0,104,4.0,0.0
6027,69.0,0,47,11.0,0.0
6028,66.0,0,344,12.0,0.0
6029,73.0,0,104,10.0,0.0
6030,69.0,57,47,5.0,0.0
6031,50.0,48,119,14.0,0.0
6032,50.0,3,104,13.0,0.0
6033,68.0,12,47,5.0,0.0
6034,68.0,0,47,11.0,0.0
6035,54.0,48,119,14.0,0.0
6036,74.0,57,47,4.0,0.0
6037,66.0,0,47,11.0,0.0
6038,74.0,0,47,10.0,0.0
6039,54.0,3,104,13.0,0.0
6040,66.0,0,47,5.0,0.0
6041,73.0,12,47,4.0,0.0
6042,69.0,0,47,5.0,0.0
6043,73.0,0,47,10.0,0.0
6044,69.0,0,47,11.0,0.0
6045,68.0,0,47,11.0,0.0
6046,71.0,0,104,4.0,0.0
6047,44.0,0,104,13.0,0.0
6048,68.0,57,47,5.0,0.0
6049,44.0,48,119,14.0,0.0
6050,71.0,3,104,10.0,0.0
6051,69.0,0,47,5.0,0.0
6052,69.0,12,47,11.0,0.0
6053,68.0,0,47,5.0,0.0
6054,65.0,0,47,12.0,0.0
6055,56.0,48,119,14.0,0.0
6056,68.0,57,47,11.0,0.0
6057,56.0,3,104,13.0,0.0
6058,71.0,0,47,10.0,0.0
6059,71.0,0,47,4.0,0.0
6060,66.0,12,47,12.0,0.0
6061,66.0,0,47,11.0,0.0
6062,69.0,0,47,4.0,0.0
6063,69.0,0,47,10.0,0.0
6064,66.0,0,47,5.0,0.0
6065,71.0,3,104,4.0,0.0
6066,65.0,0,104,5.0,0.0
6067,68.0,57,47,12.0,0.0
6068,65.0,0,104,11.0,0.0
6069,71.0,0,104,10.0,0.0
6070,49.0,0,104,13.0,0.0
6071,49.0,48,119,14.0,0.0
6072,66.0,12,47,12.0,0.0
6073,68.0,3,104,11.0,0.0
6074,73.0,0,47,10.0,0.0
6075,68.0,0,104,5.0,0.0
6076,73.0,0,47,4.0,0.0
6077,65.0,57,47,12.0,0.0
6078,53.0,0,104,13.0,0.0
6079,53.0,48,119,14.0,0.0
6080,63.0,12,47,12.0,0.0
6081,71.0,0,47,4.0,0.0
6082,71.0,0,47,10.0,0.0
6083,69.0,57,47,5.0,0.0
6084,69.0,0,104,4.0,0.0
6085,42.0,48,119,14.0,0.0
6086,42.0,0,104,13.0,0.0
6087,69.0,3,104,10.0,0.0
6088,69.0,0,47,11.0,0.0
6089,61.0,0,104,12.0,0.0
6090,73.0,0,47,5.0,0.0
6091,73.0,12,47,11.0,0.0
6092,54.0,3,104,13.0,0.0
6093,69.0,0,47,4.0,0.0
6094,69.0,0,47,10.0,0.0
6095,66.0,57,47,5.0,0.0
6096,61.0,0,104,12.0,0.0
6097,66.0,0,47,11.0,0.0
6098,54.0,48,119,14.0,0.0
6099,71.0,0,47,10.0,0.0
6100,68.0,12,47,11.0,0.0
6101,71.0,0,47,4.0,0.0
6102,68.0,0,47,5.0,0.0
6103,52.0,0,104,13.0,0.0
6104,69.0,0,47,11.0,0.0
6105,54.0,0,104,12.0,0.0
6106,73.0,0,104,4.0,0.0
6107,69.0,57,47,5.0,0.0
6108,52.0,48,119,14.0,0.0
6109,73.0,3,104,10.0,0.0
6110,71.0,12,47,11.0,0.0
6111,71.0,0,47,5.0,0.0
6112,50.0,3,104,13.0,0.0
6113,57.0,3,224,12.0,0.0
6114,69.0,57,47,5.0,0.0
6115,73.0,0,47,10.0,0.0
6116,69.0,0,47,11.0,0.0
6117,73.0,0,47,4.0,0.0
6118,50.0,48,119,14.0,0.0
6119,74.0,12,47,4.0,0.0
6120,74.0,0,47,10.0,0.0
6121,71.0,0,47,5.0,0.0
6122,71.0,0,47,11.0,0.0
6123,49.0,0,104,13.0,0.0
6124,76.0,0,104,10.0,0.0
6125,49.0,48,119,14.0,0.0
6126,76.0,0,104,4.0,0.0
6127,73.0,0,47,11.0,0.0
6128,73.0,57,47,5.0,0.0
6129,76.0,12,47,11.0,0.0
6130,76.0,0,47,5.0,0.0
6131,73.0,57,47,10.0,0.0
6132,54.0,48,119,14.0,0.0
6133,73.0,0,47,4.0,0.0
6134,69.0,0,47,11.0,0.0
6135,69.0,0,47,5.0,0.0
6136,69.0,3,104,12.0,0.0
6137,54.0,0,104,13.0,0.0
6138,74.0,12,47,10.0,0.0
6139,71.0,0,47,11.0,0.0
6140,71.0,0,47,5.0,0.0
6141,74.0,0,47,4.0,0.0
6142,73.0,57,47,11.0,0.0
6143,52.0,48,119,14.0,0.0
6144,69.0,0,104,12.0,0.0
6145,76.0,0,104,10.0,0.0
6146,76.0,0,104,4.0,0.0
6147,73.0,0,47,5.0,0.0
6148,52.0,3,104,13.0,0.0
6149,74.0,12,47,5.0,0.0
6150,74.0,0,47,11.0,0.0
6151,76.0,0,47,10.0,0.0
6152,76.0,57,47,4.0,0.0
6153,69.0,0,104,12.0,0.0
6154,73.0,0,47,11.0,0.0
6155,73.0,0,47,5.0,0.0
6156,50.0,3,104,13.0,0.0
6157,50.0,48,119,14.0,0.0
6158,74.0,0,47,11.0,0.0
6159,78.0,0,47,10.0,0.0
6160,74.0,0,47,5.0,0.0
6161,78.0,12,47,4.0,0.0
6162,69.0,0,104,12.0,0.0
6163,49.0,48,119,14.0,0.0
6164,79.0,3,104,4.0,0.0
6165,49.0,0,104,13.0,0.0
6166,76.0,57,47,5.0,0.0
6167,79.0,0,104,10.0,0.0
6168,76.0,0,47,11.0,0.0
6169,74.0,12,47,11.0,0.0
6170,74.0,0,47,5.0,0.0
6171,52.0,48,119,14.0,0.0
6172,79.0,0,47,10.0,0.0
6173,69.0,0,104,12.0,0.0
6174,73.0,0,47,5.0,0.0
6175,52.0,3,104,13.0,0.0
6176,73.0,57,47,11.0,0.0
6177,79.0,0,47,4.0,0.0
6178,78.0,12,47,4.0,0.0
6179,74.0,0,47,5.0,0.0
6180,74.0,0,47,11.0,0.0
6181,78.0,0,47,10.0,0.0
6182,45.0,48,119,14.0,0.0
6183,45.0,3,104,13.0,0.0
6184,76.0,0,47,11.0,0.0
6185,76.0,57,47,5.0,0.0
6186,79.0,0,104,10.0,0.0
6187,69.0,0,104,12.0,0.0
6188,79.0,0,104,4.0,0.0
6189,74.0,0,47,11.0,0.0
6190,74.0,12,47,5.0,0.0
6191,81.0,57,47,10.0,0.0
6192,73.0,0,47,11.0,0.0
6193,64.0,3,104,12.0,0.0
6194,49.0,0,104,13.0,0.0
6195,49.0,48,119,14.0,0.0
6196,73.0,0,47,5.0,0.0
6197,81.0,0,47,4.0,0.0
6198,79.0,0,47,10.0,0.0
6199,79.0,0,47,4.0,0.0
6200,71.0,12,47,5.0,0.0
6201,71.0,0,47,11.0,0.0
6202,69.0,0,104,11.0,0.0
6203,50.0,48,119,14.0,0.0
6204,78.0,0,47,10.0,0.0
6205,69.0,0,104,5.0,0.0
6206,66.0,0,104,12.0,0.0
6207,50.0,3,104,13.0,0.0
6208,78.0,57,47,4.0,0.0
6209,74.0,0,47,4.0,0.0
6210,74.0,12,47,10.0,0.0
6211,71.0,0,47,4.0,0.0
6212,71.0,57,47,10.0,0.0
6213,66.0,3,104,11.0,0.0
6214,62.0,0,104,13.0,0.0
6215,66.0,0,104,12.0,0.0
6216,66.0,0,104,5.0,0.0
6217,62.0,48,119,14.0,0.0
6218,73.0,0,47,10.0,0.0
6219,73.0,12,47,4.0,0.0
6220,55.0,48,119,14.0,0.0
6221,71.0,0,344,11.0,0.0
6222,55.0,3,104,13.0,0.0
6223,74.0,0,47,10.0,0.0
6224,66.0,0,104,12.0,0.0
6225,71.0,0,344,5.0,0.0
6226,74.0,57,47,4.0,0.0
6227,76.0,0,47,10.0,0.0
6228,76.0,12,47,4.0,0.0
6229,59.0,48,119,14.0,0.0
6230,59.0,0,104,13.0,0.0
6231,66.0,3,104,12.0,0.0
6232,73.0,0,47,10.0,0.0
6233,73.0,57,47,4.0,0.0
6234,74.0,0,47,4.0,0.0
6235,74.0,12,47,10.0,0.0
6236,76.0,57,47,10.0,0.0
6237,64.0,3,104,12.0,0.0
6238,76.0,0,47,4.0,0.0
6239,49.0,48,119,14.0,0.0
6240,49.0,0,104,13.0,0.0
6241,73.0,0,47,10.0,0.0
6242,73.0,12,47,4.0,0.0
6243,76.0,3,104,11.0,0.0
6244,76.0,0,104,5.0,0.0
6245,61.0,0,104,13.0,0.0
6246,70.0,0,47,4.0,0.0
6247,61.0,48,119,14.0,0.0
6248,67.0,0,104,12.0,0.0
6249,70.0,57,47,10.0,0.0
6250,71.0,12,47,10.0,0.0
6251,71.0,0,47,4.0,0.0
6252,70.0,0,104,11.0,0.0
6253,54.0,3,104,13.0,0.0
6254,70.0,0,104,5.0,0.0
6255,73.0,0,47,10.0,0.0
6256,73.0,57,47,4.0,0.0
6257,66.0,0,104,12.0,0.0
6258,54.0,48,119,14.0,0.0
6259,74.0,0,47,10.0,0.0
6260,74.0,12,47,4.0,0.0
6261,71.0,0,47,4.0,0.0
6262,58.0,48,119,14.0,0.0
6263,66.0,0,167,11.0,0.0
6264,71.0,57,47,10.0,0.0
6265,66.0,0,104,12.0,0.0
6266,66.0,0,167,5.0,0.0
6267,58.0,3,104,13.0,0.0
6268,73.0,12,47,4.0,0.0
6269,73.0,0,47,10.0,0.0
6270,47.0,0,104,13.0,0.0
6271,74.0,57,47,10.0,0.0
6272,47.0,48,119,14.0,0.0
6273,71.0,3,104,12.0,0.0
6274,74.0,0,47,4.0,0.0
6275,76.0,12,47,4.0,0.0
6276,67.0,0,47,11.0,0.0
6277,67.0,0,47,5.0,0.0
6278,76.0,0,47,10.0,0.0
6279,59.0,48,119,14.0,0.0
6280,59.0,3,104,13.0,0.0
6281,64.0,57,47,5.0,0.0
6282,73.0,0,47,4.0,0.0
6283,64.0,0,47,11.0,0.0
6284,66.0,0,104,12.0,0.0
6285,73.0,0,47,10.0,0.0
6286,66.0,0,47,5.0,0.0
6287,74.0,0,47,4.0,0.0
6288,74.0,0,47,10.0,0.0
6289,66.0,12,47,11.0,0.0
6290,52.0,48,119,14.0,0.0
6291,76.0,57,47,4.0,0.0
6292,76.0,0,47,10.0,0.0
6293,71.0,0,104,12.0,0.0
6294,67.0,0,104,5.0,0.0
6295,67.0,0,104,11.0,0.0
6296,52.0,3,104,13.0,0.0
6297,74.0,0,47,10.0,0.0
6298,74.0,12,47,4.0,0.0
6299,55.0,48,119,14.0,0.0
6300,64.0,0,104,5.0,0.0
6301,73.0,0,47,4.0,0.0
6302,73.0,57,47,10.0,0.0
6303,55.0,3,104,13.0,0.0
6304,71.0,0,104,12.0,0.0
6305,64.0,0,104,11.0,0.0
6306,71.0,0,47,4.0,0.0
6307,71.0,12,47,10.0,0.0
6308,54.0,48,119,14.0,0.0
6309,73.0,57,47,11.0,0.0
6310,73.0,0,47,5.0,0.0
6311,78.0,0,104,4.0,0.0
6312,70.0,0,104,12.0,0.0
6313,54.0,3,104,13.0,0.0
6314,78.0,0,104,10.0,0.0
6315,78.0,0,47,5.0,0.0
6316,78.0,12,47,11.0,0.0
6317,73.0,0,104,12.0,0.0
6318,70.0,0,47,5.0,0.0
6319,78.0,15,89,0.0,0.0
6320,42.0,30,59,14.0,0.0
6321,78.0,0,104,4.0,0.0
6322,42.0,12,47,13.0,0.0
6323,70.0,0,47,11.0,0.0
6324,78.0,3,104,10.0,0.0
6325,71.0,0,47,11.0,0.0
6326,44.0,12,47,13.0,0.0
6327,71.0,0,47,5.0,0.0
6328,44.0,48,59,14.0,0.0
6329,46.0,0,104,13.0,0.0
6330,73.0,0,47,5.0,0.0
6331,66.0,0,104,12.0,0.0
6332,78.0,15,89,0.0,0.0
6333,73.0,42,47,11.0,0.0
6334,46.0,48,119,14.0,0.0
6335,78.0,0,104,4.0,0.0
6336,78.0,3,104,10.0,0.0
6337,74.0,0,47,5.0,0.0
6338,74.0,12,47,11.0,0.0
6339,78.0,0,104,4.0,0.0
6340,73.0,12,47,5.0,0.0
6341,73.0,0,47,11.0,0.0
6342,78.0,15,89,0.0,0.0
6343,46.0,0,47,13.0,0.0
6344,78.0,3,104,10.0,0.0
6345,46.0,30,59,14.0,0.0
6346,70.0,0,224,12.0,0.0
6347,74.0,12,47,5.0,0.0
6348,47.0,48,59,14.0,0.0
6349,47.0,0,47,13.0,0.0
6350,74.0,0,47,11.0,0.0
6351,76.0,42,47,5.0,0.0
6352,78.0,0,104,4.0,0.0
6353,49.0,0,104,13.0,0.0
6354,49.0,48,119,14.0,0.0
6355,78.0,3,104,10.0,0.0
6356,76.0,0,47,11.0,0.0
6357,78.0,15,89,0.0,0.0
6358,73.0,12,47,11.0,0.0
6359,73.0,0,47,5.0,0.0
6360,66.0,0,47,11.0,0.0
6361,78.0,15,89,0.0,0.0
6362,78.0,48,119,1.0,0.0
6363,66.0,0,47,5.0,0.0
6364,78.0,0,104,4.0,0.0
6365,46.0,30,59,14.0,0.0
6366,46.0,12,47,13.0,0.0
6367,73.0,3,104,12.0,0.0
6368,78.0,0,104,10.0,0.0
6369,68.0,0,47,11.0,0.0
6370,68.0,0,47,5.0,0.0
6371,47.0,0,59,14.0,0.0
6372,47.0,12,47,13.0,0.0
6373,70.0,42,47,11.0,0.0
6374,64.0,3,104,12.0,0.0
6375,78.0,0,104,10.0,0.0
6376,70.0,0,47,5.0,0.0
6377,78.0,15,89,0.0,0.0
6378,78.0,0,104,4.0,0.0
6379,49.0,0,104,13.0,0.0
6380,78.0,0,119,1.0,0.0
6381,49.0,48,119,14.0,0.0
6382,71.0,0,47,5.0,0.0
6383,71.0,12,47,11.0,0.0
6384,70.0,0,47,5.0,0.0
6385,78.0,3,104,4.0,0.0
6386,49.0,30,59,14.0,0.0
6387,78.0,0,104,10.0,0.0
6388,70.0,3,224,12.0,0.0
6389,70.0,0,47,11.0,0.0
6390,78.0,15,89,0.0,0.0
6391,78.0,0,104,1.0,0.0
6392,49.0,12,47,13.0,0.0
6393,50.0,48,59,14.0,0.0
6394,71.0,12,47,11.0,0.0
6395,50.0,0,47,13.0,0.0
6396,71.0,0,47,5.0,0.0
6397,78.0,0,119,1.0,0.0
6398,73.0,42,47,5.0,0.0
6399,78.0,0,104,4.0,0.0
6400,78.0,0,104,10.0,0.0
6401,78.0,15,89,0.0,0.0
6402,52.0,0,104,13.0,0.0
6403,73.0,0,47,11.0,0.0
6404,52.0,48,119,14.0,0.0
6405,71.0,12,47,5.0,0.0
6406,71.0,0,47,11.0,0.0
6407,78.0,3,104,10.0,0.0
6408,52.0,0,47,13.0,0.0
6409,73.0,0,104,12.0,0.0
6410,78.0,0,104,4.0,0.0
6411,70.0,12,47,11.0,0.0
6412,78.0,15,89,0.0,0.0
6413,52.0,30,59,14.0,0.0
6414,78.0,48,119,1.0,0.0
6415,70.0,0,47,5.0,0.0
6416,78.0,0,104,2.0,0.0
6417,71.0,12,47,5.0,0.0
6418,50.0,0,47,13.0,0.0
6419,50.0,0,59,14.0,0.0
6420,71.0,0,47,11.0,0.0
6421,52.0,48,119,14.0,0.0
6422,73.0,42,47,11.0,0.0
6423,78.0,0,104,10.0,0.0
6424,73.0,0,47,5.0,0.0
6425,52.0,3,104,13.0,0.0
6426,78.0,0,104,2.0,0.0
6427,66.0,0,104,12.0,0.0
6428,78.0,0,104,4.0,0.0
6429,78.0,15,89,0.0,0.0
6430,78.0,0,119,1.0,0.0
6431,76.0,12,47,11.0,0.0
6432,76.0,0,47,5.0,0.0
6433,74.0,12,47,11.0,0.0
6434,54.0,30,59,14.0,0.0
6435,54.0,0,47,13.0,0.0
6436,78.0,0,104,2.0,0.0
6437,78.0,15,89,0.0,0.0
6438,78.0,3,104,4.0,0.0
6439,78.0,0,104,10.0,0.0
6440,78.0,0,104,1.0,0.0
6441,74.0,0,47,5.0,0.0
6442,70.0,0,104,12.0,0.0
6443,52.0,48,59,14.0,0.0
6444,73.0,0,47,11.0,0.0
6445,52.0,12,47,13.0,0.0
6446,73.0,0,47,5.0,0.0
6447,78.0,0,47,10.0,0.0
6448,50.0,3,104,13.0,0.0
6449,50.0,0,119,14.0,0.0
6450,83.0,0,119,0.0,0.0
6451,71.0,0,104,12.0,0.0
6452,78.0,0,119,1.0,0.0
6453,71.0,0,104,11.0,0.0
6454,71.0,0,104,5.0,0.0
6455,66.0,0,119,2.0,0.0
6456,78.0,57,47,4.0,0.0
6457,50.0,48,119,3.0,0.0
6458,76.0,12,47,10.0,0.0
6459,76.0,0,47,4.0,0.0
6460,78.0,0,47,10.0,0.0
6461,59.0,0,104,12.0,0.0
6462,66.0,3,104,11.0,0.0
6463,50.0,45,59,14.0,0.0
6464,78.0,0,47,4.0,0.0
6465,66.0,0,104,5.0,0.0
6466,50.0,12,47,13.0,0.0
6467,79.0,0,47,10.0,0.0
6468,79.0,0,47,4.0,0.0
6469,49.0,12,47,13.0,0.0
6470,49.0,48,59,14.0,0.0
6471,78.0,57,47,10.0,0.0
6472,78.0,0,47,4.0,0.0
6473,50.0,48,119,14.0,0.0
6474,62.0,3,104,12.0,0.0
6475,71.0,0,344,5.0,0.0
6476,50.0,0,104,13.0,0.0
6477,71.0,0,344,11.0,0.0
6478,83.0,12,47,10.0,0.0
6479,83.0,0,47,4.0,0.0
6480,82.0,12,47,4.0,0.0
6481,52.0,0,47,13.0,0.0
6482,66.0,3,104,12.0,0.0
6483,82.0,0,47,10.0,0.0
6484,52.0,45,59,14.0,0.0
6485,83.0,0,47,10.0,0.0
6486,50.0,48,59,14.0,0.0
6487,50.0,0,47,13.0,0.0
6488,83.0,12,47,4.0,0.0
6489,76.0,57,47,4.0,0.0
6490,49.0,0,104,13.0,0.0
6491,76.0,0,47,10.0,0.0
6492,49.0,48,119,14.0,0.0
6493,67.0,3,104,12.0,0.0
6494,74.0,0,47,4.0,0.0
6495,74.0,12,47,10.0,0.0
6496,64.0,0,104,5.0,0.0
6497,49.0,45,59,14.0,0.0
6498,76.0,0,47,10.0,0.0
6499,76.0,12,47,4.0,0.0
6500,71.0,0,104,12.0,0.0
6501,64.0,3,104,11.0,0.0
6502,49.0,0,47,13.0,0.0
6503,78.0,0,47,4.0,0.0
6504,47.0,0,47,13.0,0.0
6505,47.0,48,59,14.0,0.0
6506,78.0,12,47,10.0,0.0
6507,49.0,48,119,14.0,0.0
6508,49.0,0,104,13.0,0.0
6509,76.0,57,47,10.0,0.0
6510,76.0,0,47,4.0,0.0
6511,61.0,0,104,11.0,0.0
6512,61.0,0,104,5.0,0.0
6513,70.0,3,104,12.0,0.0
6514,79.0,12,47,4.0,0.0
6515,79.0,0,47,10.0,0.0
6516,66.0,3,104,12.0,0.0
6517,70.0,0,104,5.0,0.0
6518,78.0,0,47,10.0,0.0
6519,78.0,0,47,4.0,0.0
6520,70.0,0,104,11.0,0.0
6521,50.0,12,47,13.0,0.0
6522,50.0,45,59,14.0,0.0
6523,49.0,48,59,14.0,0.0
6524,76.0,0,47,4.0,0.0
6525,49.0,0,47,13.0,0.0
6526,76.0,12,47,10.0,0.0
6527,66.0,0,104,12.0,0.0
6528,74.0,0,104,4.0,0.0
6529,71.0,0,104,11.0,0.0
6530,47.0,45,59,14.0,0.0
6531,47.0,12,47,13.0,0.0
6532,74.0,0,104,10.0,0.0
6533,71.0,3,104,5.0,0.0
6534,49.0,48,59,14.0,0.0
6535,49.0,12,47,13.0,0.0
6536,50.0,12,47,13.0,0.0
6537,78.0,0,104,10.0,0.0
6538,71.0,0,104,11.0,0.0
6539,62.0,3,104,12.0,0.0
6540,50.0,45,59,14.0,0.0
6541,78.0,0,104,4.0,0.0
6542,71.0,0,104,5.0,0.0
6543,47.0,48,59,14.0,0.0
6544,47.0,12,47,13.0,0.0
6545,79.0,3,104,4.0,0.0
6546,71.0,0,104,5.0,0.0
6547,71.0,0,104,11.0,0.0
6548,59.0,0,104,12.0,0.0
6549,79.0,0,104,10.0,0.0
6550,52.0,12,47,13.0,0.0
6551,52.0,45,59,14.0,0.0
6552,54.0,48,59,14.0,0.0
6553,54.0,12,47,13.0,0.0
6554,55.0,12,47,13.0,0.0
6555,71.0,0,104,10.0,0.0
6556,67.0,0,104,5.0,0.0
6557,55.0,45,59,14.0,0.0
6558,71.0,0,104,4.0,0.0
6559,64.0,0,104,11.0,0.0
6560,59.0,3,104,12.0,0.0
6561,52.0,48,59,14.0,0.0
6562,52.0,12,47,13.0,0.0
6563,54.0,0,239,13.0,0.0
6564,70.0,0,47,10.0,0.0
6565,66.0,48,239,5.0,0.0
6566,54.0,0,239,14.0,0.0
6567,61.0,0,239,11.0,0.0
6568,70.0,60,47,4.0,0.0
6569,66.0,48,119,12.0,0.0
6570,66.0,0,47,10.0,0.0
6571,66.0,12,47,4.0,0.0
6572,68.0,60,47,10.0,0.0
6573,68.0,0,47,4.0,0.0
6574,70.0,0,47,4.0,0.0
6575,70.0,12,47,10.0,0.0
6576,71.0,60,47,4.0,0.0
6577,71.0,0,47,10.0,0.0
6578,73.0,0,47,4.0,0.0
6579,73.0,60,47,10.0,0.0
6580,74.0,0,47,4.0,0.0
6581,52.0,3,104,13.0,0.0
6582,73.0,0,104,5.0,0.0
6583,73.0,0,104,11.0,0.0
6584,70.0,0,104,12.0,0.0
6585,52.0,48,119,14.0,0.0
6586,74.0,57,47,10.0,0.0
6587,76.0,12,47,4.0,0.0
6588,76.0,0,47,10.0,0.0
6589,78.0,0,47,10.0,0.0
6590,78.0,57,47,4.0,0.0
6591,71.0,0,104,5.0,0.0
6592,71.0,3,104,11.0,0.0
6593,50.0,48,119,14.0,0.0
6594,50.0,0,104,13.0,0.0
6595,66.0,0,104,12.0,0.0
6596,79.0,0,47,4.0,0.0
6597,79.0,12,47,10.0,0.0
6598,78.0,57,47,4.0,0.0
6599,54.0,3,104,13.0,0.0
6600,70.0,0,104,5.0,0.0
6601,70.0,0,104,11.0,0.0
6602,61.0,0,104,12.0,0.0
6603,78.0,0,47,10.0,0.0
6604,54.0,48,119,14.0,0.0
6605,76.0,12,47,10.0,0.0
6606,76.0,0,47,4.0,0.0
6607,59.0,48,119,14.0,0.0
6608,59.0,3,104,13.0,0.0
6609,59.0,0,104,12.0,0.0
6610,74.0,0,47,10.0,0.0
6611,74.0,57,47,4.0,0.0
6612,66.0,0,104,5.0,0.0
6613,66.0,0,104,11.0,0.0
6614,73.0,12,47,10.0,0.0
6615,73.0,0,47,4.0,0.0
6616,66.0,0,104,5.0,0.0
6617,54.0,0,104,13.0,0.0
6618,71.0,57,47,10.0,0.0
6619,54.0,105,119,14.0,0.0
6620,62.0,3,104,12.0,0.0
6621,66.0,0,104,11.0,0.0
6622,71.0,0,47,4.0,0.0
6623,70.0,0,47,10.0,0.0
6624,70.0,12,47,4.0,0.0
6625,55.0,105,119,14.0,0.0
6626,59.0,0,104,12.0,0.0
6627,62.0,0,104,11.0,0.0
6628,55.0,0,104,13.0,0.0
6629,71.0,15,104,10.0,0.0
6630,71.0,0,104,4.0,0.0
6631,62.0,0,104,5.0,0.0
6632,73.0,15,104,10.0,0.0
6633,52.0,105,119,14.0,0.0
6634,52.0,0,104,13.0,0.0
6635,64.0,0,104,12.0,0.0
6636,73.0,0,104,4.0,0.0
6637,67.0,0,104,11.0,0.0
6638,67.0,0,104,5.0,0.0
6639,66.0,0,104,5.0,0.0
6640,66.0,0,104,4.0,0.0
6641,54.0,0,104,13.0,0.0
6642,66.0,15,104,11.0,0.0
6643,66.0,0,104,10.0,0.0
6644,54.0,105,119,14.0,0.0
6645,62.0,0,104,12.0,0.0
6646,66.0,15,104,5.0,0.0
6647,42.0,0,104,13.0,0.0
6648,42.0,48,119,14.0,0.0
6649,70.0,0,104,10.0,0.0
6650,61.0,0,104,12.0,0.0
6651,70.0,0,104,4.0,0.0
6652,66.0,0,104,11.0,0.0
6653,47.0,0,239,13.0,0.0
6654,66.0,0,239,11.0,0.0
6655,71.0,48,119,4.0,0.0
6656,62.0,48,239,12.0,0.0
6657,71.0,60,47,10.0,0.0
6658,47.0,0,239,14.0,0.0
6659,66.0,0,119,5.0,0.0
6660,66.0,12,47,10.0,0.0
6661,62.0,60,47,10.0,0.0
6662,66.0,12,47,10.0,0.0
6663,71.0,60,47,10.0,0.0
6664,74.0,60,47,10.0,0.0
6665,61.0,0,104,12.0,0.0
6666,73.0,57,47,10.0,0.0
6667,66.0,3,104,11.0,0.0
6668,58.0,48,119,14.0,0.0
6669,58.0,0,104,13.0,0.0
6670,76.0,12,47,10.0,0.0
6671,59.0,48,119,14.0,0.0
6672,66.0,3,104,11.0,0.0
6673,59.0,0,104,13.0,0.0
6674,59.0,0,104,12.0,0.0
6675,74.0,57,47,10.0,0.0
6676,78.0,12,47,10.0,0.0
6677,67.0,0,104,11.0,0.0
6678,62.0,0,104,12.0,0.0
6679,83.0,57,47,10.0,0.0
6680,55.0,48,119,14.0,0.0
6681,55.0,3,104,13.0,0.0
6682,74.0,12,47,10.0,0.0
6683,61.0,0,104,12.0,0.0
6684,73.0,57,47,10.0,0.0
6685,52.0,48,119,14.0,0.0
6686,52.0,0,104,13.0,0.0
6687,67.0,3,104,11.0,0.0
6688,83.0,12,47,10.0,0.0
6689,66.0,0,104,11.0,0.0
6690,54.0,48,119,14.0,0.0
6691,61.0,3,104,12.0,0.0
6692,73.0,57,47,10.0,0.0
6693,54.0,0,104,13.0,0.0
6694,82.0,12,47,10.0,0.0
6695,47.0,0,239,14.0,0.0
6696,62.0,0,239,12.0,0.0
6697,66.0,0,239,11.0,0.0
6698,83.0,60,47,10.0,0.0
6699,47.0,48,239,13.0,0.0
6700,78.0,60,47,10.0,0.0
6701,74.0,60,47,10.0,0.0
6702,78.0,12,47,10.0,0.0
6703,71.0,60,47,10.0,0.0
6704,74.0,60,47,10.0,0.0
6705,59.0,0,104,13.0,0.0
6706,73.0,0,104,11.0,0.0
6707,59.0,48,119,14.0,0.0
6708,68.0,3,104,12.0,0.0
6709,68.0,57,47,10.0,0.0
6710,77.0,12,47,10.0,0.0
6711,73.0,0,104,11.0,0.0
6712,78.0,57,47,10.0,0.0
6713,69.0,3,104,12.0,0.0
6714,57.0,0,104,13.0,0.0
6715,57.0,48,119,14.0,0.0
6716,73.0,12,47,10.0,0.0
6717,62.0,48,119,14.0,0.0
6718,66.0,3,104,12.0,0.0
6719,62.0,0,104,13.0,0.0
6720,74.0,0,104,11.0,0.0
6721,69.0,57,47,10.0,0.0
6722,78.0,12,47,10.0,0.0
6723,74.0,0,104,11.0,0.0
6724,59.0,48,119,14.0,0.0
6725,59.0,3,104,13.0,0.0
6726,68.0,57,47,10.0,0.0
6727,71.0,0,104,12.0,0.0
6728,78.0,12,47,10.0,0.0
6729,61.0,0,104,13.0,0.0
6730,61.0,48,119,14.0,0.0
6731,73.0,0,104,11.0,0.0
6732,71.0,3,104,12.0,0.0
6733,68.0,57,47,10.0,0.0
6734,77.0,12,47,10.0,0.0
6735,54.0,48,119,14.0,0.0
6736,54.0,3,104,13.0,0.0
6737,73.0,48,239,11.0,0.0
6738,78.0,57,47,10.0,0.0
6739,69.0,0,239,12.0,0.0
6740,73.0,12,47,10.0,0.0
6741,54.0,0,119,14.0,0.0
6742,69.0,57,47,10.0,0.0
6743,54.0,3,104,13.0,0.0
6744,73.0,12,47,10.0,0.0
6745,54.0,48,119,14.0,0.0
6746,54.0,3,104,13.0,0.0
6747,78.0,57,47,10.0,0.0
6748,79.0,12,47,10.0,0.0
6749,54.0,60,119,14.0,0.0
6750,81.0,57,47,10.0,0.0
6751,54.0,0,119,13.0,0.0
6752,66.0,3,104,12.0,0.0
6753,73.0,0,104,11.0,0.0
6754,78.0,12,47,10.0,0.0
6755,66.0,0,104,12.0,0.0
6756,69.0,15,104,11.0,0.0
6757,72.0,45,59,10.0,0.0
6758,71.0,48,59,10.0,0.0
6759,52.0,0,119,14.0,0.0
6760,69.0,60,119,11.0,0.0
6761,72.0,57,47,10.0,0.0
6762,52.0,3,104,13.0,0.0
6763,66.0,0,119,12.0,0.0
6764,81.0,12,47,10.0,0.0
6765,72.0,45,59,10.0,0.0
6766,52.0,48,119,14.0,0.0
6767,52.0,15,104,13.0,0.0
6768,71.0,0,59,10.0,0.0
6769,52.0,0,119,13.0,0.0
6770,66.0,3,104,12.0,0.0
6771,52.0,48,119,14.0,0.0
6772,72.0,57,47,10.0,0.0
6773,69.0,0,104,11.0,0.0
6774,81.0,12,47,10.0,0.0
6775,63.0,3,104,11.0,0.0
6776,66.0,0,104,12.0,0.0
6777,71.0,57,47,10.0,0.0
6778,69.0,60,47,10.0,0.0
6779,71.0,57,47,10.0,0.0
6780,69.0,0,119,11.0,0.0
6781,66.0,0,119,12.0,0.0
6782,51.0,48,119,14.0,0.0
6783,51.0,3,104,13.0,0.0
6784,73.0,12,47,10.0,0.0
6785,51.0,3,104,13.0,0.0
6786,75.0,57,47,10.0,0.0
6787,51.0,48,119,14.0,0.0
6788,76.0,12,47,10.0,0.0
6789,51.0,48,119,14.0,0.0
6790,78.0,57,47,10.0,0.0
6791,51.0,0,119,13.0,0.0
6792,66.0,3,104,12.0,0.0
6793,71.0,0,104,11.0,0.0
6794,79.0,12,47,10.0,0.0
6795,71.0,0,104,11.0,0.0
6796,81.0,57,47,10.0,0.0
6797,63.0,3,104,12.0,0.0
6798,78.0,60,47,10.0,0.0
6799,75.0,57,47,10.0,0.0
6800,47.0,3,104,13.0,0.0
6801,66.0,0,119,12.0,0.0
6802,47.0,0,119,14.0,0.0
6803,71.0,48,119,11.0,0.0
6804,78.0,12,47,10.0,0.0
6805,47.0,3,104,13.0,0.0
6806,47.0,48,119,14.0,0.0
6807,71.0,57,47,10.0,0.0
6808,81.0,12,47,10.0,0.0
6809,47.0,48,119,14.0,0.0
6810,47.0,0,119,13.0,0.0
6811,79.0,57,47,10.0,0.0
6812,63.0,0,104,12.0,0.0
6813,71.0,3,104,11.0,0.0
6814,78.0,12,47,10.0,0.0
6815,64.0,0,104,12.0,0.0
6816,71.0,3,104,11.0,0.0
6817,79.0,57,47,10.0,0.0
6818,76.0,60,47,10.0,0.0
6819,52.0,3,104,13.0,0.0
6820,52.0,0,119,14.0,0.0
6821,67.0,48,119,12.0,0.0
6822,76.0,0,119,11.0,0.0
6823,71.0,57,47,10.0,0.0
6824,67.0,12,47,10.0,0.0
6825,52.0,48,119,14.0,0.0
6826,52.0,3,104,13.0,0.0
6827,71.0,57,47,10.0,0.0
6828,76.0,12,47,10.0,0.0
6829,79.0,57,47,10.0,0.0
6830,76.0,0,104,11.0,0.0
6831,52.0,60,119,13.0,0.0
6832,52.0,0,119,14.0,0.0
6833,71.0,3,104,12.0,0.0
6834,81.0,12,47,10.0,0.0
6835,64.0,0,104,12.0,0.0
6836,71.0,15,104,11.0,0.0
6837,80.0,45,59,10.0,0.0
6838,78.0,48,59,10.0,0.0
6839,50.0,3,104,13.0,0.0
6840,50.0,0,119,14.0,0.0
6841,64.0,0,119,12.0,0.0
6842,80.0,57,47,10.0,0.0
6843,71.0,60,119,11.0,0.0
6844,83.0,12,47,10.0,0.0
6845,80.0,45,59,10.0,0.0
6846,50.0,15,104,13.0,0.0
6847,50.0,48,119,14.0,0.0
6848,78.0,0,59,10.0,0.0
6849,71.0,3,104,11.0,0.0
6850,64.0,0,104,12.0,0.0
6851,50.0,0,119,13.0,0.0
6852,50.0,48,119,14.0,0.0
6853,80.0,57,47,10.0,0.0
6854,83.0,12,47,10.0,0.0
6855,64.0,3,104,12.0,0.0
6856,73.0,0,104,11.0,0.0
6857,81.0,57,47,10.0,0.0
6858,76.0,60,47,10.0,0.0
6859,69.0,0,119,12.0,0.0
6860,49.0,3,104,13.0,0.0
6861,76.0,0,119,11.0,0.0
6862,73.0,57,47,10.0,0.0
6863,49.0,48,119,14.0,0.0
6864,76.0,12,47,10.0,0.0
6865,69.0,57,47,10.0,0.0
6866,49.0,3,104,13.0,0.0
6867,49.0,48,119,14.0,0.0
6868,71.0,12,47,10.0,0.0
6869,76.0,3,104,11.0,0.0
6870,69.0,0,104,12.0,0.0
6871,73.0,57,47,10.0,0.0
6872,49.0,48,119,14.0,0.0
6873,49.0,0,119,13.0,0.0
6874,74.0,12,47,10.0,0.0
6875,76.0,57,47,10.0,0.0
6876,69.0,0,104,12.0,0.0
6877,73.0,3,104,11.0,0.0
6878,78.0,60,47,10.0,0.0
6879,79.0,57,47,10.0,0.0
6880,73.0,48,119,11.0,0.0
6881,64.0,0,119,12.0,0.0
6882,45.0,3,104,13.0,0.0
6883,45.0,0,119,14.0,0.0
6884,81.0,12,47,10.0,0.0
6885,79.0,57,47,10.0,0.0
6886,45.0,3,104,13.0,0.0
6887,45.0,48,119,14.0,0.0
6888,78.0,12,47,10.0,0.0
6889,73.0,0,104,11.0,0.0
6890,45.0,48,119,14.0,0.0
6891,76.0,0,104,5.0,0.0
6892,79.0,57,47,10.0,0.0
6893,79.0,3,104,4.0,0.0
6894,69.0,0,104,12.0,0.0
6895,45.0,0,104,13.0,0.0
6896,76.0,12,47,10.0,0.0
6897,74.0,0,104,5.0,0.0
6898,74.0,3,104,11.0,0.0
6899,50.0,0,104,13.0,0.0
6900,78.0,0,119,4.0,0.0
6901,78.0,57,47,10.0,0.0
6902,50.0,48,119,14.0,0.0
6903,69.0,0,119,12.0,0.0
6904,74.0,12,47,10.0,0.0
6905,69.0,57,47,10.0,0.0
6906,62.0,3,104,13.0,0.0
6907,69.0,0,104,5.0,0.0
6908,78.0,0,104,11.0,0.0
6909,62.0,48,119,14.0,0.0
6910,72.0,12,47,10.0,0.0
6911,55.0,48,119,14.0,0.0
6912,78.0,0,119,11.0,0.0
6913,55.0,3,104,13.0,0.0
6914,71.0,57,47,10.0,0.0
6915,71.0,0,119,5.0,0.0
6916,74.0,12,47,10.0,0.0
6917,78.0,0,104,4.0,0.0
6918,59.0,3,104,13.0,0.0
6919,59.0,48,119,14.0,0.0
6920,67.0,57,47,10.0,0.0
6921,67.0,0,104,12.0,0.0
6922,78.0,12,47,10.0,0.0
6923,76.0,0,119,4.0,0.0
6924,67.0,0,119,12.0,0.0
6925,76.0,57,47,10.0,0.0
6926,49.0,3,104,13.0,0.0
6927,49.0,48,119,14.0,0.0
6928,73.0,12,47,10.0,0.0
6929,61.0,48,119,14.0,0.0
6930,71.0,0,104,5.0,0.0
6931,76.0,0,104,11.0,0.0
6932,67.0,57,47,10.0,0.0
6933,61.0,3,104,13.0,0.0
6934,71.0,12,47,10.0,0.0
6935,54.0,0,119,14.0,0.0
6936,69.0,48,119,5.0,0.0
6937,54.0,3,104,13.0,0.0
6938,69.0,57,47,10.0,0.0
6939,76.0,0,119,11.0,0.0
6940,73.0,12,47,10.0,0.0
6941,57.0,0,104,13.0,0.0
6942,76.0,0,104,4.0,0.0
6943,66.0,57,47,10.0,0.0
6944,57.0,48,119,14.0,0.0
6945,66.0,3,104,12.0,0.0
6946,76.0,12,47,10.0,0.0
6947,74.0,0,119,4.0,0.0
6948,74.0,57,47,10.0,0.0
6949,47.0,0,119,14.0,0.0
6950,47.0,3,104,13.0,0.0
6951,66.0,48,119,12.0,0.0
6952,71.0,12,47,10.0,0.0
6953,69.0,0,104,5.0,0.0
6954,59.0,0,104,13.0,0.0
6955,66.0,57,47,10.0,0.0
6956,74.0,3,104,11.0,0.0
6957,59.0,48,119,14.0,0.0
6958,69.0,12,47,10.0,0.0
6959,67.0,57,47,10.0,0.0
6960,67.0,0,104,5.0,0.0
6961,74.0,48,119,11.0,0.0
6962,52.0,0,119,14.0,0.0
6963,52.0,3,104,13.0,0.0
6964,71.0,12,47,10.0,0.0
6965,71.0,0,104,5.0,0.0
6966,74.0,3,104,4.0,0.0
6967,55.0,0,104,13.0,0.0
6968,64.0,57,47,10.0,0.0
6969,55.0,30,119,14.0,0.0
6970,64.0,0,104,12.0,0.0
6971,74.0,12,47,10.0,0.0
6972,45.0,0,479,13.0,0.0
6973,69.0,0,104,5.0,0.0
6974,45.0,18,29,3.0,0.0
6975,64.0,3,104,12.0,0.0
6976,45.0,30,479,14.0,0.0
6977,69.0,30,119,2.0,0.0
6978,81.0,0,119,1.0,0.0
6979,76.0,0,119,0.0,0.0
6980,73.0,12,47,10.0,0.0
6981,73.0,0,89,4.0,0.0
6982,45.0,30,29,3.0,0.0
6983,45.0,15,29,3.0,0.0
6984,76.0,12,47,10.0,0.0
6985,45.0,0,29,3.0,0.0
6986,73.0,0,104,5.0,0.0
6987,67.0,3,104,12.0,0.0
6988,69.0,12,47,10.0,0.0
6989,76.0,0,104,11.0,0.0
6990,76.0,15,89,4.0,0.0
6991,45.0,18,29,3.0,0.0
6992,45.0,30,29,3.0,0.0
6993,45.0,0,29,3.0,0.0
6994,73.0,12,47,10.0,0.0
6995,45.0,30,29,3.0,0.0
6996,69.0,0,119,2.0,0.0
6997,45.0,18,29,3.0,0.0
6998,74.0,15,89,4.0,0.0
6999,66.0,0,104,12.0,0.0
7000,69.0,0,104,5.0,0.0
7001,74.0,0,119,1.0,0.0
7002,69.0,3,104,11.0,0.0
7003,78.0,30,119,0.0,0.0
7004,74.0,12,47,10.0,0.0
7005,45.0,30,29,3.0,0.0
7006,45.0,0,29,3.0,0.0
7007,78.0,12,47,10.0,0.0
7008,45.0,0,29,3.0,0.0
7009,45.0,18,29,3.0,0.0
7010,78.0,15,89,4.0,0.0
7011,78.0,0,104,11.0,0.0
7012,62.0,0,104,12.0,0.0
7013,74.0,3,104,5.0,0.0
7014,69.0,12,47,10.0,0.0
7015,45.0,30,29,3.0,0.0
7016,74.0,12,47,10.0,0.0
7017,45.0,0,29,3.0,0.0
7018,45.0,0,29,3.0,0.0
7019,79.0,0,119,0.0,0.0
7020,73.0,0,104,5.0,0.0
7021,76.0,0,119,1.0,0.0
7022,45.0,0,959,13.0,0.0
7023,45.0,18,29,3.0,0.0
7024,69.0,0,119,2.0,0.0
7025,73.0,0,104,11.0,0.0
7026,45.0,0,959,14.0,0.0
7027,76.0,0,104,4.0,0.0
7028,69.0,3,104,12.0,0.0
7029,76.0,12,47,10.0,0.0
7030,45.0,30,29,3.0,0.0
7031,79.0,12,47,10.0,0.0
7032,45.0,15,29,3.0,0.0
7033,45.0,30,29,3.0,0.0
7034,45.0,18,29,3.0,0.0
7035,61.0,3,104,12.0,0.0
7036,76.0,0,104,11.0,0.0
7037,76.0,0,104,5.0,0.0
7038,69.0,12,47,10.0,0.0
7039,79.0,0,104,4.0,0.0
7040,45.0,30,29,3.0,0.0
7041,45.0,15,29,3.0,0.0
7042,76.0,12,47,10.0,0.0
7043,45.0,30,29,3.0,0.0
7044,45.0,18,29,3.0,0.0
7045,69.0,0,119,2.0,0.0
7046,78.0,0,104,4.0,0.0
7047,62.0,0,104,12.0,0.0
7048,78.0,12,47,10.0,0.0
7049,78.0,0,119,0.0,0.0
7050,74.0,30,119,1.0,0.0
7051,74.0,0,104,5.0,0.0
7052,69.0,3,104,11.0,0.0
7053,45.0,30,29,3.0,0.0
7054,81.0,12,47,10.0,0.0
7055,45.0,15,29,3.0,0.0
7056,45.0,0,29,3.0,0.0
7057,66.0,0,104,12.0,0.0
7058,66.0,0,104,5.0,0.0
7059,81.0,0,104,4.0,0.0
7060,74.0,12,47,10.0,0.0
7061,69.0,3,104,11.0,0.0
7062,45.0,18,29,3.0,0.0
7063,45.0,30,29,3.0,0.0
7064,45.0,15,29,3.0,0.0
7065,78.0,12,47,10.0,0.0
7066,45.0,30,29,3.0,0.0
7067,81.0,0,119,1.0,0.0
7068,45.0,18,29,3.0,0.0
7069,69.0,0,584,11.0,0.0
7070,64.0,3,104,12.0,0.0
7071,73.0,12,47,10.0,0.0
7072,76.0,0,119,0.0,0.0
7073,73.0,0,104,4.0,0.0
7074,69.0,0,104,5.0,0.0
7075,69.0,30,119,2.0,0.0
7076,45.0,30,29,3.0,0.0
7077,76.0,12,47,10.0,0.0
7078,45.0,15,29,3.0,0.0
7079,45.0,0,29,3.0,0.0
7080,67.0,0,104,12.0,0.0
7081,69.0,12,47,10.0,0.0
7082,76.0,3,104,4.0,0.0
7083,73.0,0,104,5.0,0.0
7084,45.0,18,29,3.0,0.0
7085,45.0,30,29,3.0,0.0
7086,45.0,15,29,3.0,0.0
7087,73.0,12,47,10.0,0.0
7088,45.0,30,29,3.0,0.0
7089,45.0,18,29,3.0,0.0
7090,61.0,0,104,12.0,0.0
7091,76.0,3,104,5.0,0.0
7092,69.0,0,119,2.0,0.0
7093,69.0,0,104,4.0,0.0
7094,76.0,12,47,10.0,0.0
7095,81.0,30,119,0.0,0.0
7096,76.0,0,119,1.0,0.0
7097,45.0,30,29,3.0,0.0
7098,79.0,12,47,10.0,0.0
7099,45.0,15,29,3.0,0.0
7100,45.0,0,29,3.0,0.0
7101,57.0,0,104,12.0,0.0
7102,78.0,12,47,10.0,0.0
7103,73.0,3,104,4.0,0.0
7104,45.0,18,29,3.0,0.0
7105,81.0,0,104,5.0,0.0
7106,45.0,30,29,3.0,0.0
7107,45.0,15,29,3.0,0.0
7108,76.0,12,47,10.0,0.0
7109,45.0,30,29,3.0,0.0
7110,74.0,0,119,1.0,0.0
7111,78.0,12,47,10.0,0.0
7112,78.0,0,104,5.0,0.0
7113,45.0,0,584,13.0,0.0
7114,45.0,18,29,3.0,0.0
7115,62.0,3,464,12.0,0.0
7116,78.0,0,119,0.0,0.0
7117,74.0,3,104,4.0,0.0
7118,45.0,0,599,14.0,0.0
7119,69.0,0,119,2.0,0.0
7120,45.0,30,29,3.0,0.0
7121,74.0,12,47,10.0,0.0
7122,45.0,15,29,3.0,0.0
7123,45.0,30,29,3.0,0.0
7124,45.0,18,29,3.0,0.0
7125,71.0,0,104,4.0,0.0
7126,74.0,0,104,5.0,0.0
7127,71.0,12,47,10.0,0.0
7128,78.0,3,104,11.0,0.0
7129,45.0,30,29,3.0,0.0
7130,45.0,15,29,3.0,0.0
7131,74.0,12,47,10.0,0.0
7132,45.0,30,29,3.0,0.0
7133,74.0,0,119,1.0,0.0
7134,80.0,0,119,0.0,0.0
7135,62.0,30,119,2.0,0.0
7136,45.0,18,29,3.0,0.0
7137,71.0,0,104,11.0,0.0
7138,68.0,3,104,4.0,0.0
7139,68.0,12,47,10.0,0.0
7140,71.0,0,104,5.0,0.0
7141,45.0,30,29,3.0,0.0
7142,45.0,15,29,3.0,0.0
7143,78.0,12,47,10.0,0.0
7144,45.0,0,29,3.0,0.0
7145,71.0,0,104,4.0,0.0
7146,80.0,0,104,5.0,0.0
7147,80.0,0,104,11.0,0.0
7148,45.0,18,29,3.0,0.0
7149,76.0,12,47,10.0,0.0
7150,45.0,30,29,3.0,0.0
7151,74.0,12,47,10.0,0.0
7152,45.0,15,29,3.0,0.0
7153,45.0,48,29,3.0,0.0
7154,73.0,57,47,10.0,0.0
7155,45.0,48,119,3.0,0.0
7156,69.0,0,104,2.0,0.0
7157,81.0,0,119,5.0,0.0
7158,73.0,0,119,4.0,0.0
7159,76.0,0,104,1.0,0.0
7160,64.0,0,239,12.0,0.0
7161,81.0,0,239,11.0,0.0
7162,81.0,3,104,0.0,0.0
7163,74.0,12,47,10.0,0.0
7164,73.0,0,47,10.0,0.0
7165,47.0,48,119,14.0,0.0
7166,69.0,57,47,0.0,0.0
7167,47.0,3,104,13.0,0.0
7168,69.0,0,47,1.0,0.0
7169,69.0,0,47,2.0,0.0
7170,69.0,0,47,1.0,0.0
7171,69.0,0,47,2.0,0.0
7172,69.0,0,47,0.0,0.0
7173,71.0,12,47,10.0,0.0
7174,69.0,0,104,0.0,0.0
7175,69.0,57,47,10.0,0.0
7176,49.0,48,119,14.0,0.0
7177,49.0,3,104,13.0,0.0
7178,69.0,0,104,2.0,0.0
7179,69.0,0,104,1.0,0.0
7180,67.0,12,47,10.0,0.0
7181,45.0,48,119,14.0,0.0
7182,66.0,57,47,10.0,0.0
7183,69.0,0,104,0.0,0.0
7184,45.0,0,104,13.0,0.0
7185,69.0,0,104,2.0,0.0
7186,69.0,3,104,1.0,0.0
7187,64.0,12,47,10.0,0.0
7188,63.0,72,47,10.0,0.0
7189,69.0,3,224,11.0,0.0
7190,69.0,0,119,1.0,0.0
7191,69.0,3,1184,5.0,0.0
7192,42.0,48,239,14.0,0.0
7193,42.0,0,239,13.0,0.0
7194,69.0,0,119,0.0,0.0
7195,69.0,0,119,2.0,0.0
7196,69.0,48,59,10.0,0.0
7197,59.0,12,47,12.0,0.0
7198,71.0,45,59,10.0,0.0
7199,69.0,12,47,10.0,0.0
7200,61.0,0,47,12.0,0.0
7201,78.0,48,239,11.0,0.0
7202,63.0,3,104,12.0,0.0
7203,71.0,57,47,10.0,0.0
7204,69.0,60,47,10.0,0.0
7205,71.0,0,47,10.0,0.0
7206,63.0,60,47,12.0,0.0
7207,69.0,0,47,10.0,0.0
7208,64.0,12,47,12.0,0.0
7209,66.0,15,104,12.0,0.0
7210,47.0,0,239,14.0,0.0
7211,62.0,57,47,10.0,0.0
7212,47.0,48,239,13.0,0.0
7213,69.0,48,59,10.0,0.0
7214,63.0,12,47,12.0,0.0
7215,71.0,48,59,10.0,0.0
7216,64.0,0,47,12.0,0.0
7217,69.0,12,47,10.0,0.0
7218,66.0,3,104,12.0,0.0
7219,75.0,60,239,11.0,0.0
7220,71.0,57,47,10.0,0.0
7221,69.0,60,47,10.0,0.0
7222,71.0,60,47,10.0,0.0
7223,66.0,0,47,12.0,0.0
7224,69.0,0,47,10.0,0.0
7225,67.0,12,47,12.0,0.0
7226,69.0,15,104,12.0,0.0
7227,63.0,45,59,10.0,0.0
7228,69.0,48,59,10.0,0.0
7229,69.0,0,47,12.0,0.0
7230,47.0,0,104,13.0,0.0
7231,71.0,57,47,10.0,0.0
7232,47.0,48,119,14.0,0.0
7233,68.0,0,47,12.0,0.0
7234,72.0,12,47,10.0,0.0
7235,69.0,0,104,12.0,0.0
7236,71.0,0,239,11.0,0.0
7237,51.0,48,119,14.0,0.0
7238,51.0,3,104,13.0,0.0
7239,71.0,57,47,10.0,0.0
7240,66.0,3,224,5.0,0.0
7241,69.0,12,47,10.0,0.0
7242,68.0,57,47,10.0,0.0
7243,47.0,60,119,14.0,0.0
7244,71.0,0,47,12.0,0.0
7245,47.0,0,104,13.0,0.0
7246,69.0,0,47,12.0,0.0
7247,66.0,12,47,10.0,0.0
7248,74.0,0,1184,4.0,0.0
7249,68.0,0,1424,5.0,0.0
7250,52.0,48,239,13.0,0.0
7251,52.0,0,239,14.0,0.0
7252,68.0,3,224,12.0,0.0
7253,62.0,60,59,10.0,0.0
7254,68.0,48,59,10.0,0.0
7255,71.0,0,47,10.0,0.0
7256,64.0,57,47,11.0,0.0
7257,68.0,0,47,10.0,0.0
7258,66.0,12,47,11.0,0.0
7259,71.0,57,47,10.0,0.0
7260,64.0,60,239,12.0,0.0
7261,68.0,3,104,11.0,0.0
7262,68.0,60,47,10.0,0.0
7263,68.0,0,47,11.0,0.0
7264,71.0,60,47,10.0,0.0
7265,69.0,0,47,11.0,0.0
7266,68.0,12,47,10.0,0.0
7267,62.0,45,59,10.0,0.0
7268,40.0,48,239,14.0,0.0
7269,71.0,15,104,11.0,0.0
7270,40.0,0,239,13.0,0.0
7271,68.0,48,59,10.0,0.0
7272,68.0,0,47,11.0,0.0
7273,71.0,60,47,10.0,0.0
7274,69.0,12,47,11.0,0.0
7275,68.0,0,47,10.0,0.0
7276,71.0,3,104,11.0,0.0
7277,68.0,60,239,12.0,0.0
7278,71.0,57,47,10.0,0.0
7279,68.0,60,47,10.0,0.0
7280,71.0,0,47,11.0,0.0
7281,71.0,60,47,10.0,0.0
7282,73.0,12,47,11.0,0.0
7283,68.0,0,47,10.0,0.0
7284,74.0,15,104,11.0,0.0
7285,62.0,45,59,10.0,0.0
7286,68.0,48,59,10.0,0.0
7287,40.0,3,104,13.0,0.0
7288,74.0,57,47,11.0,0.0
7289,40.0,48,119,14.0,0.0
7290,71.0,0,47,10.0,0.0
7291,73.0,0,47,11.0,0.0
7292,69.0,12,47,10.0,0.0
7293,52.0,3,104,13.0,0.0
7294,68.0,57,47,10.0,0.0
7295,52.0,48,119,14.0,0.0
7296,71.0,60,239,12.0,0.0
7297,74.0,0,104,11.0,0.0
7298,71.0,0,224,4.0,0.0
7299,66.0,12,47,10.0,0.0
7300,44.0,0,119,14.0,0.0
7301,64.0,0,47,10.0,0.0
7302,73.0,57,47,11.0,0.0
7303,44.0,3,104,13.0,0.0
7304,62.0,0,47,10.0,0.0
7305,71.0,12,47,11.0,0.0
7306,45.0,0,239,13.0,0.0
7307,67.0,3,1184,5.0,0.0
7308,45.0,48,239,14.0,0.0
7309,73.0,3,224,11.0,0.0
7310,73.0,0,1424,4.0,0.0
7311,61.0,60,59,10.0,0.0
7312,67.0,48,59,10.0,0.0
7313,69.0,0,119,0.0,0.0
7314,57.0,0,47,12.0,0.0
7315,69.0,57,47,10.0,0.0
7316,67.0,0,47,10.0,0.0
7317,59.0,12,47,12.0,0.0
7318,76.0,60,239,11.0,0.0
7319,61.0,3,104,12.0,0.0
7320,69.0,48,119,0.0,0.0
7321,69.0,57,47,10.0,0.0
7322,67.0,12,47,10.0,0.0
7323,69.0,0,47,10.0,0.0
7324,61.0,57,47,12.0,0.0
7325,69.0,3,104,0.0,0.0
7326,62.0,0,47,12.0,0.0
7327,67.0,12,47,10.0,0.0
7328,64.0,15,104,12.0,0.0
7329,57.0,0,239,13.0,0.0
7330,57.0,0,239,14.0,0.0
7331,61.0,45,59,10.0,0.0
7332,69.0,48,119,0.0,0.0
7333,67.0,0,59,10.0,0.0
7334,69.0,48,119,1.0,0.0
7335,61.0,0,47,12.0,0.0
7336,69.0,60,47,10.0,0.0
7337,69.0,0,119,0.0,0.0
7338,62.0,12,47,12.0,0.0
7339,67.0,0,47,10.0,0.0
7340,69.0,48,119,1.0,0.0
7341,69.0,57,47,10.0,0.0
7342,69.0,0,119,0.0,0.0
7343,73.0,60,239,11.0,0.0
7344,64.0,3,104,12.0,0.0
7345,67.0,12,47,10.0,0.0
7346,69.0,0,104,0.0,0.0
7347,64.0,0,47,12.0,0.0
7348,69.0,57,47,10.0,0.0
7349,69.0,3,104,1.0,0.0
7350,66.0,12,47,12.0,0.0
7351,67.0,0,47,10.0,0.0
7352,61.0,45,59,10.0,0.0
7353,69.0,15,104,1.0,0.0
7354,67.0,0,104,12.0,0.0
7355,69.0,0,104,0.0,0.0
7356,67.0,48,59,10.0,0.0
7357,45.0,0,104,13.0,0.0
7358,69.0,57,47,10.0,0.0
7359,69.0,0,119,2.0,0.0
7360,45.0,48,119,3.0,0.0
7361,69.0,0,104,1.0,0.0
7362,67.0,0,47,12.0,0.0
7363,45.0,0,119,14.0,0.0
7364,76.0,0,104,0.0,0.0
7365,71.0,0,47,10.0,0.0
7366,66.0,12,47,12.0,0.0
7367,67.0,0,104,12.0,0.0
7368,45.0,0,119,3.0,0.0
7369,49.0,0,119,14.0,0.0
7370,76.0,3,104,0.0,0.0
7371,69.0,57,47,10.0,0.0
7372,64.0,0,224,5.0,0.0
7373,49.0,0,104,13.0,0.0
7374,69.0,0,104,1.0,0.0
7375,69.0,0,239,11.0,0.0
7376,69.0,48,119,2.0,0.0
7377,67.0,12,47,10.0,0.0
7378,69.0,0,104,2.0,0.0
7379,66.0,57,47,10.0,0.0
7380,76.0,3,104,1.0,0.0
7381,45.0,0,119,14.0,0.0
7382,45.0,0,104,13.0,0.0
7383,69.0,0,47,12.0,0.0
7384,81.0,0,104,0.0,0.0
7385,45.0,30,119,3.0,0.0
7386,67.0,12,47,12.0,0.0
7387,64.0,0,47,10.0,0.0
7388,69.0,0,104,2.0,0.0
7389,78.0,0,104,0.0,0.0
7390,66.0,0,224,12.0,0.0
7391,50.0,0,239,14.0,0.0
7392,72.0,0,1064,4.0,0.0
7393,50.0,0,239,13.0,0.0
7394,60.0,0,59,10.0,0.0
7395,74.0,15,104,1.0,0.0
7396,66.0,0,1424,5.0,0.0
7397,50.0,30,29,3.0,0.0
7398,50.0,30,29,3.0,0.0
7399,66.0,30,59,10.0,0.0
7400,50.0,15,29,3.0,0.0
7401,50.0,0,29,3.0,0.0
7402,69.0,0,47,10.0,0.0
7403,66.0,0,104,0.0,0.0
7404,62.0,0,104,1.0,0.0
7405,57.0,3,104,2.0,0.0
7406,50.0,18,29,3.0,0.0
7407,62.0,12,47,11.0,0.0
7408,50.0,30,29,3.0,0.0
7409,50.0,15,29,3.0,0.0
7410,64.0,0,47,11.0,0.0
7411,66.0,12,47,10.0,0.0
7412,50.0,30,29,3.0,0.0
7413,62.0,0,119,1.0,0.0
7414,57.0,0,119,2.0,0.0
7415,50.0,18,29,3.0,0.0
7416,66.0,30,119,0.0,0.0
7417,62.0,30,239,12.0,0.0
7418,66.0,3,104,11.0,0.0
7419,69.0,12,47,10.0,0.0
7420,50.0,30,29,3.0,0.0
7421,66.0,12,47,10.0,0.0
7422,50.0,15,29,3.0,0.0
7423,50.0,0,29,3.0,0.0
7424,50.0,18,29,3.0,0.0
7425,66.0,3,104,1.0,0.0
7426,62.0,0,104,2.0,0.0
7427,66.0,0,47,11.0,0.0
7428,69.0,12,47,10.0,0.0
7429,69.0,0,104,0.0,0.0
7430,50.0,30,29,3.0,0.0
7431,50.0,15,29,3.0,0.0
7432,67.0,12,47,11.0,0.0
7433,66.0,0,47,10.0,0.0
7434,50.0,0,29,3.0,0.0
7435,69.0,30,119,0.0,0.0
7436,38.0,0,239,13.0,0.0
7437,66.0,0,119,1.0,0.0
7438,38.0,30,239,14.0,0.0
7439,62.0,0,119,2.0,0.0
7440,60.0,0,59,10.0,0.0
7441,50.0,30,29,3.0,0.0
7442,69.0,15,104,11.0,0.0
7443,50.0,30,29,3.0,0.0
7444,66.0,0,59,10.0,0.0
7445,50.0,15,29,3.0,0.0
7446,50.0,0,29,3.0,0.0
7447,66.0,0,47,11.0,0.0
7448,74.0,0,104,0.0,0.0
7449,69.0,0,104,1.0,0.0
7450,66.0,3,104,2.0,0.0
7451,69.0,12,47,10.0,0.0
7452,50.0,18,29,3.0,0.0
7453,50.0,30,29,3.0,0.0
7454,66.0,0,47,10.0,0.0
7455,67.0,12,47,11.0,0.0
7456,50.0,15,29,3.0,0.0
7457,50.0,0,29,3.0,0.0
7458,50.0,18,29,3.0,0.0
7459,74.0,0,119,0.0,0.0
7460,66.0,0,239,12.0,0.0
7461,69.0,3,104,11.0,0.0
7462,69.0,12,47,10.0,0.0
7463,69.0,30,119,1.0,0.0
7464,66.0,0,119,2.0,0.0
7465,50.0,30,29,3.0,0.0
7466,50.0,15,29,3.0,0.0
7467,66.0,12,47,10.0,0.0
7468,50.0,0,29,3.0,0.0
7469,69.0,0,104,2.0,0.0
7470,69.0,12,47,11.0,0.0
7471,78.0,3,104,0.0,0.0
7472,74.0,0,104,1.0,0.0
7473,69.0,0,47,10.0,0.0
7474,50.0,18,29,3.0,0.0
7475,50.0,30,29,3.0,0.0
7476,71.0,0,47,11.0,0.0
7477,50.0,15,29,3.0,0.0
7478,66.0,12,47,10.0,0.0
7479,50.0,30,29,3.0,0.0
7480,78.0,0,119,0.0,0.0
7481,69.0,30,119,2.0,0.0
7482,72.0,15,104,11.0,0.0
7483,74.0,0,119,1.0,0.0
7484,60.0,0,59,10.0,0.0
7485,50.0,30,29,3.0,0.0
7486,50.0,30,29,3.0,0.0
7487,66.0,0,59,10.0,0.0
7488,50.0,15,29,3.0,0.0
7489,50.0,0,29,3.0,0.0
7490,81.0,0,104,0.0,0.0
7491,72.0,0,47,11.0,0.0
7492,74.0,0,104,2.0,0.0
7493,50.0,30,119,14.0,0.0
7494,69.0,12,47,10.0,0.0
7495,69.0,3,104,4.0,0.0
7496,78.0,0,104,1.0,0.0
7497,50.0,18,29,3.0,0.0
7498,50.0,0,104,13.0,0.0
7499,50.0,30,29,3.0,0.0
7500,67.0,0,47,10.0,0.0
7501,71.0,12,47,11.0,0.0
7502,50.0,15,29,3.0,0.0
7503,50.0,0,29,3.0,0.0
7504,66.0,12,47,10.0,0.0
7505,38.0,0,119,14.0,0.0
7506,74.0,0,119,2.0,0.0
7507,69.0,0,224,12.0,0.0
7508,50.0,18,29,3.0,0.0
7509,81.0,30,119,0.0,0.0
7510,38.0,3,104,13.0,0.0
7511,72.0,0,104,11.0,0.0
7512,78.0,0,119,1.0,0.0
7513,66.0,0,104,4.0,0.0
7514,50.0,30,29,3.0,0.0
7515,50.0,15,29,3.0,0.0
7516,64.0,12,47,10.0,0.0
7517,50.0,0,29,3.0,0.0
7518,81.0,0,104,1.0,0.0
7519,62.0,12,47,10.0,0.0
7520,42.0,0,104,13.0,0.0
7521,71.0,0,47,11.0,0.0
7522,86.0,0,104,0.0,0.0
7523,62.0,3,104,4.0,0.0
7524,78.0,0,104,2.0,0.0
7525,50.0,18,29,3.0,0.0
7526,42.0,0,119,14.0,0.0
7527,50.0,30,29,3.0,0.0
7528,69.0,12,47,11.0,0.0
7529,60.0,0,47,10.0,0.0
7530,50.0,15,29,3.0,0.0
7531,50.0,48,29,3.0,0.0
7532,71.0,0,239,11.0,0.0
7533,79.0,0,119,2.0,0.0
7534,71.0,0,119,4.0,0.0
7535,43.0,3,104,13.0,0.0
7536,43.0,48,119,14.0,0.0
7537,59.0,57,47,10.0,0.0
7538,50.0,0,119,3.0,0.0
7539,62.0,0,239,12.0,0.0
7540,83.0,0,119,1.0,0.0
7541,86.0,0,119,0.0,0.0
7542,62.0,0,119,5.0,0.0
7543,55.0,12,47,10.0,0.0
7544,42.0,48,119,14.0,0.0
7545,42.0,3,104,13.0,0.0
7546,57.0,57,47,10.0,0.0
7547,60.0,12,47,10.0,0.0
7548,43.0,3,104,13.0,0.0
7549,59.0,57,47,10.0,0.0
7550,43.0,48,119,14.0,0.0
7551,62.0,12,47,10.0,0.0
7552,45.0,48,119,14.0,0.0
7553,61.0,57,47,10.0,0.0
7554,45.0,3,104,13.0,0.0
7555,64.0,12,47,10.0,0.0
7556,47.0,3,104,13.0,0.0
7557,62.0,57,47,10.0,0.0
7558,47.0,48,119,14.0,0.0
7559,59.0,12,47,10.0,0.0
7560,45.0,48,119,14.0,0.0
7561,45.0,3,104,13.0,0.0
7562,61.0,57,47,10.0,0.0
7563,64.0,12,47,10.0,0.0
7564,47.0,48,119,14.0,0.0
7565,62.0,57,47,10.0,0.0
7566,47.0,3,104,13.0,0.0
7567,66.0,12,47,10.0,0.0
7568,49.0,48,119,14.0,0.0
7569,49.0,3,104,13.0,0.0
7570,64.0,57,47,10.0,0.0
7571,67.0,12,47,10.0,0.0
7572,66.0,57,47,10.0,0.0
7573,50.0,3,104,13.0,0.0
7574,50.0,48,119,14.0,0.0
7575,62.0,12,47,10.0,0.0
7576,49.0,48,119,14.0,0.0
7577,49.0,3,104,13.0,0.0
7578,64.0,57,47,10.0,0.0
7579,67.0,12,47,10.0,0.0
7580,66.0,57,47,10.0,0.0
7581,50.0,48,119,14.0,0.0
7582,50.0,3,104,13.0,0.0
7583,69.0,12,47,10.0,0.0
7584,52.0,48,119,14.0,0.0
7585,52.0,3,104,13.0,0.0
7586,67.0,57,47,10.0,0.0
7587,71.0,12,47,10.0,0.0
7588,69.0,57,47,10.0,0.0
7589,54.0,3,104,13.0,0.0
7590,54.0,48,119,14.0,0.0
7591,62.0,12,47,10.0,0.0
7592,52.0,3,104,13.0,0.0
7593,52.0,48,119,14.0,0.0
7594,66.0,57,47,10.0,0.0
7595,69.0,12,47,10.0,0.0
7596,74.0,57,47,10.0,0.0
7597,54.0,3,104,13.0,0.0
7598,54.0,48,119,14.0,0.0
7599,78.0,12,47,10.0,0.0
7600,76.0,57,47,10.0,0.0
7601,55.0,3,104,13.0,0.0
7602,55.0,105,119,14.0,0.0
7603,74.0,12,47,10.0,0.0
7604,57.0,48,119,14.0,0.0
7605,73.0,15,104,10.0,0.0
7606,57.0,0,104,13.0,0.0
7607,57.0,0,104,13.0,0.0
7608,45.0,45,59,3.0,0.0
7609,76.0,0,104,11.0,0.0
7610,57.0,48,119,14.0,0.0
7611,69.0,12,47,4.0,0.0
7612,61.0,0,47,12.0,0.0
7613,69.0,0,47,10.0,0.0
7614,76.0,3,104,5.0,0.0
7615,71.0,0,47,4.0,0.0
7616,71.0,0,47,10.0,0.0
7617,62.0,12,47,12.0,0.0
7618,76.0,0,119,1.0,0.0
7619,73.0,0,104,4.0,0.0
7620,69.0,0,104,5.0,0.0
7621,45.0,45,59,3.0,0.0
7622,69.0,3,104,11.0,0.0
7623,57.0,0,104,13.0,0.0
7624,57.0,0,119,14.0,0.0
7625,64.0,12,47,12.0,0.0
7626,73.0,0,104,10.0,0.0
7627,69.0,48,119,2.0,0.0
7628,81.0,0,119,0.0,0.0
7629,66.0,12,47,12.0,0.0
7630,73.0,0,47,4.0,0.0
7631,64.0,12,47,12.0,0.0
7632,73.0,0,47,10.0,0.0
7633,57.0,3,104,13.0,0.0
7634,57.0,48,119,14.0,0.0
7635,73.0,0,224,11.0,0.0
7636,45.0,45,59,3.0,0.0
7637,73.0,0,224,5.0,0.0
7638,74.0,12,47,4.0,0.0
7639,74.0,0,47,10.0,0.0
7640,66.0,0,47,12.0,0.0
7641,57.0,0,104,13.0,0.0
7642,67.0,12,47,12.0,0.0
7643,81.0,0,119,0.0,0.0
7644,45.0,45,59,3.0,0.0
7645,76.0,0,104,10.0,0.0
7646,57.0,0,119,14.0,0.0
7647,69.0,48,119,2.0,0.0
7648,76.0,3,104,4.0,0.0
7649,76.0,0,119,1.0,0.0
7650,64.0,12,47,12.0,0.0
7651,57.0,0,47,12.0,0.0
7652,57.0,48,119,14.0,0.0
7653,76.0,0,104,5.0,0.0
7654,73.0,0,47,10.0,0.0
7655,57.0,3,104,13.0,0.0
7656,73.0,12,47,4.0,0.0
7657,76.0,0,104,11.0,0.0
7658,45.0,45,59,3.0,0.0
7659,74.0,0,47,10.0,0.0
7660,74.0,0,47,4.0,0.0
7661,59.0,12,47,12.0,0.0
7662,45.0,45,59,3.0,0.0
7663,81.0,48,119,1.0,0.0
7664,67.0,0,104,5.0,0.0
7665,76.0,0,119,0.0,0.0
7666,61.0,12,47,12.0,0.0
7667,76.0,0,104,4.0,0.0
7668,76.0,0,104,10.0,0.0
7669,57.0,3,104,13.0,0.0
7670,57.0,0,119,14.0,0.0
7671,69.0,0,119,2.0,0.0
7672,67.0,0,104,11.0,0.0
7673,62.0,12,47,12.0,0.0
7674,73.0,0,224,11.0,0.0
7675,57.0,3,104,13.0,0.0
7676,76.0,12,47,10.0,0.0
7677,76.0,0,47,4.0,0.0
7678,61.0,0,47,12.0,0.0
7679,73.0,0,224,5.0,0.0
7680,45.0,45,59,3.0,0.0
7681,57.0,48,119,14.0,0.0
7682,78.0,0,47,4.0,0.0
7683,78.0,12,47,10.0,0.0
7684,62.0,0,47,12.0,0.0
7685,64.0,12,47,12.0,0.0
7686,57.0,0,104,13.0,0.0
7687,69.0,0,119,2.0,0.0
7688,81.0,48,119,1.0,0.0
7689,57.0,0,119,14.0,0.0
7690,45.0,45,59,3.0,0.0
7691,79.0,0,104,10.0,0.0
7692,76.0,0,119,0.0,0.0
7693,79.0,3,104,4.0,0.0
7694,62.0,12,47,12.0,0.0
7695,52.0,48,119,14.0,0.0
7696,79.0,0,47,4.0,0.0
7697,52.0,0,104,13.0,0.0
7698,61.0,0,47,12.0,0.0
7699,76.0,3,104,11.0,0.0
7700,45.0,45,59,3.0,0.0
7701,79.0,12,47,10.0,0.0
7702,76.0,0,104,5.0,0.0
7703,62.0,12,47,12.0,0.0
7704,78.0,0,47,4.0,0.0
7705,78.0,0,47,10.0,0.0
7706,79.0,0,119,0.0,0.0
7707,64.0,12,47,12.0,0.0
7708,69.0,0,104,5.0,0.0
7709,76.0,0,119,1.0,0.0
7710,79.0,0,104,10.0,0.0
7711,69.0,0,104,11.0,0.0
7712,45.0,45,59,3.0,0.0
7713,49.0,0,119,14.0,0.0
7714,79.0,0,104,4.0,0.0
7715,69.0,48,119,2.0,0.0
7716,49.0,3,104,13.0,0.0
7717,62.0,12,47,12.0,0.0
7718,45.0,48,119,14.0,0.0
7719,45.0,3,104,13.0,0.0
7720,73.0,0,104,11.0,0.0
7721,81.0,0,47,4.0,0.0
7722,45.0,45,59,3.0,0.0
7723,61.0,0,47,12.0,0.0
7724,81.0,12,47,10.0,0.0
7725,73.0,0,104,5.0,0.0
7726,79.0,0,47,10.0,0.0
7727,79.0,0,47,4.0,0.0
7728,59.0,12,47,12.0,0.0
7729,57.0,57,47,12.0,0.0
7730,78.0,0,119,0.0,0.0
7731,50.0,0,104,13.0,0.0
7732,74.0,3,104,5.0,0.0
7733,50.0,48,119,3.0,0.0
7734,74.0,0,119,1.0,0.0
7735,50.0,0,119,14.0,0.0
7736,78.0,0,104,10.0,0.0
7737,69.0,0,104,2.0,0.0
7738,74.0,0,104,11.0,0.0
7739,78.0,0,104,4.0,0.0
7740,69.0,12,47,12.0,0.0
7741,62.0,57,47,11.0,0.0
7742,62.0,0,47,5.0,0.0
7743,81.0,0,104,10.0,0.0
7744,81.0,0,104,4.0,0.0
7745,66.0,0,47,12.0,0.0
7746,62.0,3,104,13.0,0.0
7747,62.0,48,119,2.0,0.0
7748,62.0,0,119,14.0,0.0
7749,64.0,0,47,5.0,0.0
7750,67.0,0,47,12.0,0.0
7751,64.0,12,47,11.0,0.0
7752,74.0,0,104,10.0,0.0
7753,62.0,0,119,2.0,0.0
7754,66.0,0,104,11.0,0.0
7755,66.0,0,104,5.0,0.0
7756,62.0,0,104,13.0,0.0
7757,69.0,57,47,12.0,0.0
7758,62.0,48,119,14.0,0.0
7759,74.0,3,104,4.0,0.0
7760,71.0,12,47,12.0,0.0
7761,62.0,3,104,13.0,0.0
7762,50.0,45,59,3.0,0.0
7763,78.0,0,224,4.0,0.0
7764,62.0,0,104,2.0,0.0
7765,69.0,0,47,12.0,0.0
7766,78.0,0,224,10.0,0.0
7767,66.0,12,47,11.0,0.0
7768,62.0,0,119,14.0,0.0
7769,62.0,0,104,1.0,0.0
7770,66.0,0,47,5.0,0.0
7771,67.0,0,47,5.0,0.0
7772,67.0,12,47,11.0,0.0
7773,50.0,48,59,3.0,0.0
7774,71.0,0,47,12.0,0.0
7775,62.0,0,104,2.0,0.0
7776,72.0,57,47,12.0,0.0
7777,62.0,3,104,1.0,0.0
7778,62.0,48,119,14.0,0.0
7779,62.0,0,104,13.0,0.0
7780,69.0,0,104,5.0,0.0
7781,50.0,0,119,3.0,0.0
7782,69.0,0,104,11.0,0.0
7783,69.0,12,47,12.0,0.0
7784,62.0,0,119,14.0,0.0
7785,62.0,0,119,0.0,0.0
7786,81.0,3,104,10.0,0.0
7787,66.0,57,47,11.0,0.0
7788,62.0,48,119,1.0,0.0
7789,62.0,0,47,12.0,0.0
7790,81.0,0,104,4.0,0.0
7791,66.0,0,47,5.0,0.0
7792,62.0,0,104,13.0,0.0
7793,62.0,0,104,2.0,0.0
7794,67.0,0,47,5.0,0.0
7795,64.0,12,47,12.0,0.0
7796,67.0,0,47,11.0,0.0
7797,62.0,0,119,14.0,0.0
7798,66.0,57,47,12.0,0.0
7799,72.0,3,104,10.0,0.0
7800,62.0,48,119,0.0,0.0
7801,62.0,0,119,1.0,0.0
7802,62.0,0,104,13.0,0.0
7803,72.0,0,104,4.0,0.0
7804,69.0,0,104,5.0,0.0
7805,62.0,0,104,2.0,0.0
7806,69.0,0,104,11.0,0.0
7807,67.0,12,47,12.0,0.0
7808,62.0,0,104,13.0,0.0
7809,62.0,0,119,14.0,0.0
7810,69.0,0,47,11.0,0.0
7811,78.0,0,224,4.0,0.0
7812,62.0,0,104,2.0,0.0
7813,50.0,45,59,3.0,0.0
7814,69.0,12,47,5.0,0.0
7815,62.0,0,104,1.0,0.0
7816,66.0,0,47,12.0,0.0
7817,62.0,3,104,0.0,0.0
7818,78.0,0,224,10.0,0.0
7819,71.0,0,47,11.0,0.0
7820,71.0,0,47,5.0,0.0
7821,50.0,48,59,3.0,0.0
7822,67.0,12,47,12.0,0.0
7823,50.0,0,119,3.0,0.0
7824,62.0,0,104,0.0,0.0
7825,72.0,0,104,5.0,0.0
7826,62.0,0,104,13.0,0.0
7827,62.0,48,119,14.0,0.0
7828,62.0,0,104,2.0,0.0
7829,62.0,3,104,1.0,0.0
7830,72.0,0,104,11.0,0.0
7831,69.0,57,47,12.0,0.0
7832,67.0,12,47,12.0,0.0
7833,81.0,0,104,10.0,0.0
7834,74.0,3,104,2.0,0.0
7835,78.0,0,104,1.0,0.0
7836,81.0,0,104,4.0,0.0
7837,72.0,0,47,11.0,0.0
7838,72.0,0,47,5.0,0.0
7839,57.0,48,119,14.0,0.0
7840,50.0,0,119,3.0,0.0
7841,57.0,0,104,13.0,0.0
7842,66.0,57,47,12.0,0.0
7843,81.0,0,104,0.0,0.0
7844,71.0,0,47,11.0,0.0
7845,71.0,12,47,5.0,0.0
7846,67.0,0,47,12.0,0.0
7847,54.0,0,119,14.0,0.0
7848,74.0,0,104,4.0,0.0
7849,86.0,0,104,0.0,0.0
7850,72.0,0,104,5.0,0.0
7851,69.0,0,104,2.0,0.0
7852,54.0,0,104,13.0,0.0
7853,69.0,57,47,12.0,0.0
7854,50.0,48,119,3.0,0.0
7855,74.0,0,104,10.0,0.0
7856,72.0,0,104,11.0,0.0
7857,74.0,3,104,1.0,0.0
7858,67.0,12,47,12.0,0.0
7859,50.0,0,104,13.0,0.0
7860,50.0,48,119,14.0,0.0
7861,66.0,57,47,12.0,0.0
7862,81.0,0,104,0.0,0.0
7863,78.0,3,104,4.0,0.0
7864,78.0,0,104,10.0,0.0
7865,74.0,0,47,5.0,0.0
7866,50.0,0,119,3.0,0.0
7867,74.0,0,47,11.0,0.0
7868,78.0,0,104,1.0,0.0
7869,74.0,0,104,2.0,0.0
7870,64.0,0,47,12.0,0.0
7871,72.0,0,47,5.0,0.0
7872,72.0,12,47,11.0,0.0
7873,79.0,0,104,10.0,0.0
7874,55.0,0,104,13.0,0.0
7875,83.0,0,119,0.0,0.0
7876,79.0,0,104,4.0,0.0
7877,71.0,0,104,5.0,0.0
7878,74.0,0,119,2.0,0.0
7879,79.0,0,119,1.0,0.0
7880,71.0,3,104,11.0,0.0
7881,62.0,57,47,12.0,0.0
7882,50.0,0,119,3.0,0.0
7883,55.0,48,119,14.0,0.0
7884,59.0,12,47,12.0,0.0
7885,67.0,57,47,5.0,0.0
7886,64.0,0,47,12.0,0.0
7887,67.0,0,47,11.0,0.0
7888,64.0,0,104,13.0,0.0
7889,64.0,48,119,14.0,0.0
7890,83.0,3,104,10.0,0.0
7891,83.0,0,104,4.0,0.0
7892,66.0,12,47,12.0,0.0
7893,69.0,0,47,11.0,0.0
7894,69.0,0,47,5.0,0.0
7895,71.0,0,104,11.0,0.0
7896,71.0,0,104,5.0,0.0
7897,74.0,3,104,4.0,0.0
7898,64.0,48,119,14.0,0.0
7899,74.0,0,104,10.0,0.0
7900,68.0,57,47,12.0,0.0
7901,64.0,0,104,13.0,0.0
7902,69.0,12,47,12.0,0.0
7903,64.0,48,119,14.0,0.0
7904,71.0,0,47,5.0,0.0
7905,80.0,0,224,10.0,0.0
7906,71.0,57,47,11.0,0.0
7907,64.0,3,104,13.0,0.0
7908,80.0,0,224,4.0,0.0
7909,68.0,0,47,12.0,0.0
7910,73.0,0,47,11.0,0.0
7911,69.0,12,47,12.0,0.0
7912,73.0,0,47,5.0,0.0
7913,64.0,0,104,13.0,0.0
7914,64.0,48,119,14.0,0.0
7915,71.0,57,47,12.0,0.0
7916,74.0,3,104,5.0,0.0
7917,74.0,0,104,11.0,0.0
7918,69.0,12,47,12.0,0.0
7919,59.0,48,119,14.0,0.0
7920,68.0,0,47,12.0,0.0
7921,74.0,0,47,11.0,0.0
7922,59.0,3,104,13.0,0.0
7923,74.0,57,47,5.0,0.0
7924,83.0,0,104,10.0,0.0
7925,83.0,0,104,4.0,0.0
7926,73.0,0,47,11.0,0.0
7927,69.0,0,47,12.0,0.0
7928,73.0,12,47,5.0,0.0
7929,74.0,3,104,11.0,0.0
7930,76.0,0,104,10.0,0.0
7931,71.0,57,47,12.0,0.0
7932,76.0,0,104,4.0,0.0
7933,74.0,0,104,5.0,0.0
7934,56.0,0,104,13.0,0.0
7935,56.0,48,119,14.0,0.0
7936,69.0,12,47,12.0,0.0
7937,52.0,48,119,14.0,0.0
7938,68.0,0,47,12.0,0.0
7939,80.0,0,104,10.0,0.0
7940,52.0,3,104,13.0,0.0
7941,80.0,0,104,4.0,0.0
7942,76.0,0,47,11.0,0.0
7943,76.0,57,47,5.0,0.0
7944,74.0,0,47,11.0,0.0
7945,74.0,12,47,5.0,0.0
7946,66.0,0,47,12.0,0.0
7947,57.0,48,239,14.0,0.0
7948,81.0,57,47,10.0,0.0
7949,73.0,0,104,11.0,0.0
7950,64.0,0,104,12.0,0.0
7951,81.0,0,47,4.0,0.0
7952,73.0,3,104,5.0,0.0
7953,57.0,0,239,13.0,0.0
7954,76.0,0,47,10.0,0.0
7955,76.0,60,47,4.0,0.0
7956,76.0,0,104,11.0,0.0
7957,73.0,0,47,4.0,0.0
7958,57.0,0,47,12.0,0.0
7959,73.0,57,47,10.0,0.0
7960,76.0,3,104,5.0,0.0
7961,74.0,0,47,4.0,0.0
7962,59.0,12,47,12.0,0.0
7963,74.0,0,47,10.0,0.0
7964,76.0,57,47,10.0,0.0
7965,61.0,0,104,12.0,0.0
7966,69.0,0,104,5.0,0.0
7967,76.0,0,47,4.0,0.0
7968,69.0,3,104,11.0,0.0
7969,78.0,60,47,10.0,0.0
7970,78.0,0,47,4.0,0.0
7971,76.0,60,47,10.0,0.0
7972,76.0,0,47,4.0,0.0
7973,61.0,0,47,12.0,0.0
7974,73.0,0,224,5.0,0.0
7975,73.0,0,224,11.0,0.0
7976,78.0,0,47,4.0,0.0
7977,78.0,60,47,10.0,0.0
7978,62.0,0,47,12.0,0.0
7979,79.0,0,47,10.0,0.0
7980,79.0,57,47,4.0,0.0
7981,45.0,48,239,14.0,0.0
7982,45.0,0,239,13.0,0.0
7983,64.0,3,104,12.0,0.0
7984,76.0,60,47,4.0,0.0
7985,76.0,0,47,10.0,0.0
7986,61.0,57,47,12.0,0.0
7987,76.0,3,104,5.0,0.0
7988,69.0,0,47,4.0,0.0
7989,76.0,0,104,11.0,0.0
7990,69.0,0,47,10.0,0.0
7991,71.0,0,47,4.0,0.0
7992,62.0,12,47,12.0,0.0
7993,71.0,0,47,10.0,0.0
7994,64.0,0,104,12.0,0.0
7995,67.0,0,104,5.0,0.0
7996,67.0,3,104,11.0,0.0
7997,73.0,57,47,4.0,0.0
7998,73.0,0,47,10.0,0.0
7999,74.0,60,47,4.0,0.0
8000,74.0,0,47,10.0,0.0
8001,64.0,60,47,12.0,0.0
8002,73.0,0,47,4.0,0.0
8003,73.0,0,47,10.0,0.0
8004,73.0,0,224,11.0,0.0
8005,73.0,0,224,5.0,0.0
8006,74.0,0,47,10.0,0.0
8007,74.0,0,47,4.0,0.0
8008,66.0,60,47,12.0,0.0
8009,76.0,57,47,10.0,0.0
8010,57.0,0,239,14.0,0.0
8011,76.0,0,47,4.0,0.0
8012,57.0,48,239,13.0,0.0
8013,67.0,3,104,12.0,0.0
8014,74.0,60,47,10.0,0.0
8015,74.0,0,47,4.0,0.0
8016,76.0,0,104,11.0,0.0
8017,67.0,57,47,12.0,0.0
8018,73.0,0,47,4.0,0.0
8019,73.0,0,47,10.0,0.0
8020,76.0,3,104,5.0,0.0
8021,74.0,0,47,10.0,0.0
8022,74.0,0,47,4.0,0.0
8023,66.0,12,47,12.0,0.0
8024,69.0,0,104,5.0,0.0
8025,76.0,57,47,10.0,0.0
8026,76.0,0,47,4.0,0.0
8027,67.0,0,104,12.0,0.0
8028,69.0,3,104,11.0,0.0
8029,74.0,0,47,4.0,0.0
8030,74.0,60,47,10.0,0.0
8031,73.0,3,104,5.0,0.0
8032,73.0,0,47,4.0,0.0
8033,69.0,57,47,12.0,0.0
8034,73.0,0,47,10.0,0.0
8035,73.0,0,104,11.0,0.0
8036,71.0,0,47,10.0,0.0
8037,67.0,0,47,12.0,0.0
8038,71.0,60,47,4.0,0.0
8039,66.0,3,104,12.0,0.0
8040,74.0,0,47,11.0,0.0
8041,69.0,0,47,10.0,0.0
8042,69.0,57,47,4.0,0.0
8043,74.0,0,47,5.0,0.0
8044,74.0,0,47,4.0,0.0
8045,69.0,60,47,11.0,0.0
8046,69.0,0,47,5.0,0.0
8047,74.0,0,47,10.0,0.0
8048,66.0,0,47,5.0,0.0
8049,50.0,0,47,13.0,0.0
8050,66.0,0,47,11.0,0.0
8051,73.0,0,47,10.0,0.0
8052,50.0,45,59,14.0,0.0
8053,73.0,12,47,4.0,0.0
8054,69.0,3,104,12.0,0.0
8055,67.0,0,47,5.0,0.0
8056,52.0,0,47,13.0,0.0
8057,52.0,48,59,14.0,0.0
8058,71.0,0,47,4.0,0.0
8059,67.0,0,47,11.0,0.0
8060,71.0,12,47,10.0,0.0
8061,54.0,0,104,13.0,0.0
8062,69.0,57,47,11.0,0.0
8063,62.0,3,104,12.0,0.0
8064,69.0,0,47,10.0,0.0
8065,69.0,0,47,4.0,0.0
8066,69.0,0,47,5.0,0.0
8067,54.0,48,119,14.0,0.0
8068,67.0,0,47,10.0,0.0
8069,71.0,0,47,11.0,0.0
8070,71.0,0,47,5.0,0.0
8071,67.0,12,47,4.0,0.0
8072,54.0,48,59,14.0,0.0
8073,69.0,0,47,5.0,0.0
8074,66.0,12,47,4.0,0.0
8075,66.0,3,224,12.0,0.0
8076,69.0,0,47,11.0,0.0
8077,54.0,0,47,13.0,0.0
8078,66.0,0,47,10.0,0.0
8079,64.0,0,47,10.0,0.0
8080,64.0,0,47,4.0,0.0
8081,55.0,0,47,13.0,0.0
8082,71.0,0,47,5.0,0.0
8083,55.0,48,59,14.0,0.0
8084,71.0,12,47,11.0,0.0
8085,72.0,57,47,11.0,0.0
8086,57.0,0,104,13.0,0.0
8087,62.0,0,104,10.0,0.0
8088,72.0,0,47,5.0,0.0
8089,57.0,48,119,14.0,0.0
8090,62.0,0,104,4.0,0.0
8091,69.0,12,47,5.0,0.0
8092,69.0,0,47,11.0,0.0
8093,54.0,30,59,14.0,0.0
8094,69.0,0,104,12.0,0.0
8095,74.0,3,104,4.0,0.0
8096,74.0,0,104,10.0,0.0
8097,62.0,0,47,5.0,0.0
8098,62.0,0,47,11.0,0.0
8099,54.0,12,47,13.0,0.0
8100,74.0,15,89,0.0,0.0
8101,55.0,48,59,14.0,0.0
8102,55.0,12,47,13.0,0.0
8103,64.0,0,47,11.0,0.0
8104,64.0,0,47,5.0,0.0
8105,66.0,0,47,5.0,0.0
8106,74.0,0,104,4.0,0.0
8107,57.0,48,119,14.0,0.0
8108,74.0,3,104,10.0,0.0
8109,74.0,15,89,0.0,0.0
8110,60.0,0,104,12.0,0.0
8111,66.0,42,47,11.0,0.0
8112,57.0,0,104,13.0,0.0
8113,67.0,0,47,5.0,0.0
8114,67.0,12,47,11.0,0.0
8115,57.0,30,59,14.0,0.0
8116,66.0,12,47,5.0,0.0
8117,66.0,0,47,11.0,0.0
8118,74.0,15,89,0.0,0.0
8119,74.0,0,104,4.0,0.0
8120,74.0,3,104,10.0,0.0
8121,57.0,0,47,13.0,0.0
8122,66.0,3,224,12.0,0.0
8123,59.0,48,59,14.0,0.0
8124,67.0,0,47,5.0,0.0
8125,67.0,12,47,11.0,0.0
8126,59.0,0,47,13.0,0.0
8127,69.0,57,47,5.0,0.0
8128,74.0,0,104,10.0,0.0
8129,60.0,0,104,13.0,0.0
8130,69.0,0,47,11.0,0.0
8131,74.0,0,104,4.0,0.0
8132,74.0,0,104,0.0,0.0
8133,60.0,48,119,14.0,0.0
8134,67.0,12,47,5.0,0.0
8135,67.0,0,47,11.0,0.0
8136,69.0,0,104,2.0,0.0
8137,69.0,0,104,12.0,0.0
8138,60.0,45,59,14.0,0.0
8139,66.0,0,47,5.0,0.0
8140,78.0,0,104,0.0,0.0
8141,66.0,12,47,11.0,0.0
8142,50.0,48,119,3.0,0.0
8143,74.0,0,104,4.0,0.0
8144,60.0,0,47,13.0,0.0
8145,74.0,0,104,10.0,0.0
8146,74.0,3,104,1.0,0.0
8147,67.0,0,47,11.0,0.0
8148,59.0,0,47,13.0,0.0
8149,67.0,12,47,5.0,0.0
8150,59.0,0,59,14.0,0.0
8151,78.0,0,104,0.0,0.0
8152,69.0,0,104,2.0,0.0
8153,74.0,0,104,4.0,0.0
8154,69.0,0,47,11.0,0.0
8155,69.0,57,47,5.0,0.0
8156,74.0,3,104,1.0,0.0
8157,60.0,0,104,13.0,0.0
8158,62.0,0,104,12.0,0.0
8159,74.0,0,104,10.0,0.0
8160,60.0,0,119,14.0,0.0
8161,50.0,48,119,3.0,0.0
8162,67.0,0,47,11.0,0.0
8163,67.0,12,47,5.0,0.0
8164,66.0,0,104,2.0,0.0
8165,66.0,12,47,5.0,0.0
8166,66.0,0,104,12.0,0.0
8167,62.0,0,47,13.0,0.0
8168,74.0,0,104,10.0,0.0
8169,74.0,0,104,4.0,0.0
8170,50.0,48,119,3.0,0.0
8171,74.0,3,104,1.0,0.0
8172,62.0,45,59,14.0,0.0
8173,66.0,0,47,11.0,0.0
8174,81.0,0,104,0.0,0.0
8175,64.0,0,47,5.0,0.0
8176,60.0,0,59,14.0,0.0
8177,60.0,0,47,13.0,0.0
8178,64.0,12,47,11.0,0.0
8179,74.0,0,119,1.0,0.0
8180,62.0,0,119,2.0,0.0
8181,62.0,0,104,11.0,0.0
8182,74.0,0,104,4.0,0.0
8183,74.0,0,104,10.0,0.0
8184,59.0,0,104,13.0,0.0
8185,79.0,48,119,0.0,0.0
8186,50.0,0,119,3.0,0.0
8187,59.0,0,119,14.0,0.0
8188,62.0,3,104,5.0,0.0
8189,67.0,57,47,12.0,0.0
8190,71.0,12,47,12.0,0.0
8191,76.0,0,104,4.0,0.0
8192,52.0,45,59,14.0,0.0
8193,76.0,3,104,10.0,0.0
8194,71.0,0,104,5.0,0.0
8195,52.0,0,47,13.0,0.0
8196,71.0,0,104,11.0,0.0
8197,68.0,12,47,12.0,0.0
8198,54.0,48,59,14.0,0.0
8199,69.0,0,47,12.0,0.0
8200,54.0,12,47,13.0,0.0
8201,71.0,57,47,12.0,0.0
8202,64.0,0,104,5.0,0.0
8203,76.0,0,104,4.0,0.0
8204,56.0,48,119,14.0,0.0
8205,56.0,0,104,13.0,0.0
8206,76.0,3,104,10.0,0.0
8207,64.0,0,104,11.0,0.0
8208,73.0,12,47,12.0,0.0
8209,56.0,45,59,14.0,0.0
8210,68.0,0,224,5.0,0.0
8211,56.0,0,47,13.0,0.0
8212,71.0,12,47,12.0,0.0
8213,76.0,3,104,4.0,0.0
8214,68.0,3,224,11.0,0.0
8215,76.0,0,104,10.0,0.0
8216,57.0,48,59,14.0,0.0
8217,57.0,0,47,13.0,0.0
8218,73.0,12,47,12.0,0.0
8219,76.0,0,104,10.0,0.0
8220,74.0,57,47,12.0,0.0
8221,59.0,0,104,13.0,0.0
8222,59.0,48,119,14.0,0.0
8223,76.0,0,104,4.0,0.0
8224,71.0,12,47,12.0,0.0
8225,56.0,0,47,13.0,0.0
8226,71.0,0,104,5.0,0.0
8227,71.0,3,104,11.0,0.0
8228,76.0,0,104,10.0,0.0
8229,76.0,0,104,4.0,0.0
8230,64.0,12,47,12.0,0.0
8231,56.0,45,59,14.0,0.0
8232,76.0,0,104,0.0,0.0
8233,57.0,12,47,13.0,0.0
8234,57.0,48,59,14.0,0.0
8235,66.0,0,47,12.0,0.0
8236,62.0,0,104,11.0,0.0
8237,76.0,0,104,10.0,0.0
8238,76.0,0,104,0.0,0.0
8239,59.0,0,104,13.0,0.0
8240,68.0,57,47,12.0,0.0
8241,62.0,0,104,5.0,0.0
8242,59.0,48,119,14.0,0.0
8243,76.0,3,104,4.0,0.0
8244,69.0,12,47,12.0,0.0
8245,76.0,3,104,0.0,0.0
8246,68.0,0,224,5.0,0.0
8247,68.0,0,47,12.0,0.0
8248,59.0,12,47,13.0,0.0
8249,68.0,0,224,11.0,0.0
8250,76.0,0,104,10.0,0.0
8251,59.0,45,59,14.0,0.0
8252,76.0,0,104,4.0,0.0
8253,69.0,0,47,12.0,0.0
8254,61.0,12,47,13.0,0.0
8255,61.0,48,59,14.0,0.0
8256,76.0,3,104,0.0,0.0
8257,71.0,57,47,12.0,0.0
8258,62.0,0,104,13.0,0.0
8259,76.0,0,104,4.0,0.0
8260,62.0,48,119,14.0,0.0
8261,76.0,0,104,10.0,0.0
8262,69.0,12,47,12.0,0.0
8263,71.0,0,104,5.0,0.0
8264,76.0,3,104,10.0,0.0
8265,62.0,0,47,13.0,0.0
8266,76.0,0,104,4.0,0.0
8267,71.0,0,104,11.0,0.0
8268,68.0,12,47,12.0,0.0
8269,80.0,0,104,0.0,0.0
8270,50.0,48,119,3.0,0.0
8271,62.0,45,59,14.0,0.0
8272,62.0,0,104,2.0,0.0
8273,76.0,0,104,1.0,0.0
8274,61.0,0,47,13.0,0.0
8275,69.0,12,47,12.0,0.0
8276,61.0,0,59,14.0,0.0
8277,76.0,0,104,10.0,0.0
8278,62.0,3,104,2.0,0.0
8279,80.0,0,104,0.0,0.0
8280,50.0,0,119,3.0,0.0
8281,76.0,0,104,1.0,0.0
8282,62.0,48,119,14.0,0.0
8283,64.0,0,104,11.0,0.0
8284,76.0,0,104,4.0,0.0
8285,64.0,0,104,5.0,0.0
8286,62.0,0,104,13.0,0.0
8287,71.0,57,47,12.0,0.0
8288,69.0,12,47,12.0,0.0
8289,76.0,0,104,10.0,0.0
8290,64.0,45,59,14.0,0.0
8291,68.0,0,47,12.0,0.0
8292,68.0,0,104,11.0,0.0
8293,76.0,0,104,4.0,0.0
8294,68.0,3,104,5.0,0.0
8295,62.0,0,104,2.0,0.0
8296,76.0,0,104,1.0,0.0
8297,50.0,0,119,3.0,0.0
8298,64.0,12,47,13.0,0.0
8299,83.0,0,104,0.0,0.0
8300,66.0,0,47,12.0,0.0
8301,62.0,12,47,13.0,0.0
8302,62.0,48,59,14.0,0.0
8303,69.0,0,47,5.0,0.0
8304,64.0,0,104,12.0,0.0
8305,69.0,0,119,2.0,0.0
8306,61.0,0,104,13.0,0.0
8307,76.0,3,104,4.0,0.0
8308,81.0,48,119,0.0,0.0
8309,45.0,0,119,3.0,0.0
8310,69.0,57,47,11.0,0.0
8311,76.0,0,119,1.0,0.0
8312,76.0,0,104,10.0,0.0
8313,61.0,0,119,14.0,0.0
8314,81.0,0,47,11.0,0.0
8315,81.0,12,47,5.0,0.0
8316,64.0,48,119,14.0,0.0
8317,69.0,57,47,4.0,0.0
8318,64.0,0,104,13.0,0.0
8319,69.0,3,104,12.0,0.0
8320,73.0,0,47,5.0,0.0
8321,73.0,0,47,11.0,0.0
8322,69.0,0,47,10.0,0.0
8323,71.0,12,47,10.0,0.0
8324,74.0,0,47,5.0,0.0
8325,74.0,0,47,11.0,0.0
8326,71.0,0,47,4.0,0.0
8327,76.0,57,47,11.0,0.0
8328,69.0,3,104,12.0,0.0
8329,73.0,0,104,10.0,0.0
8330,57.0,0,104,13.0,0.0
8331,73.0,0,104,4.0,0.0
8332,57.0,48,119,14.0,0.0
8333,76.0,0,47,5.0,0.0
8334,78.0,12,47,5.0,0.0
8335,78.0,0,47,11.0,0.0
8336,61.0,0,224,13.0,0.0
8337,73.0,57,47,4.0,0.0
8338,76.0,0,47,5.0,0.0
8339,76.0,0,47,11.0,0.0
8340,61.0,48,239,14.0,0.0
8341,73.0,0,47,10.0,0.0
8342,69.0,3,104,12.0,0.0
8343,74.0,0,47,10.0,0.0
8344,74.0,0,47,4.0,0.0
8345,78.0,0,47,5.0,0.0
8346,78.0,60,47,11.0,0.0
8347,79.0,0,47,11.0,0.0
8348,76.0,0,104,10.0,0.0
8349,69.0,3,104,12.0,0.0
8350,79.0,57,47,5.0,0.0
8351,76.0,0,104,4.0,0.0
8352,76.0,0,47,5.0,0.0
8353,76.0,12,47,11.0,0.0
8354,69.0,0,47,5.0,0.0
8355,69.0,0,104,12.0,0.0
8356,64.0,3,104,13.0,0.0
8357,69.0,0,47,11.0,0.0
8358,64.0,48,119,14.0,0.0
8359,73.0,0,47,10.0,0.0
8360,73.0,57,47,4.0,0.0
8361,74.0,12,47,10.0,0.0
8362,71.0,0,47,5.0,0.0
8363,71.0,0,47,11.0,0.0
8364,74.0,0,47,4.0,0.0
8365,69.0,0,104,12.0,0.0
8366,55.0,48,119,14.0,0.0
8367,76.0,3,104,4.0,0.0
8368,55.0,0,104,13.0,0.0
8369,73.0,0,47,11.0,0.0
8370,73.0,57,47,5.0,0.0
8371,76.0,0,104,10.0,0.0
8372,74.0,12,47,11.0,0.0
8373,74.0,0,47,5.0,0.0
8374,76.0,0,47,10.0,0.0
8375,73.0,57,47,5.0,0.0
8376,61.0,48,239,14.0,0.0
8377,69.0,3,104,12.0,0.0
8378,76.0,0,47,4.0,0.0
8379,61.0,0,224,13.0,0.0
8380,73.0,0,47,11.0,0.0
8381,74.0,0,47,11.0,0.0
8382,78.0,0,47,4.0,0.0
8383,74.0,60,47,5.0,0.0
8384,78.0,0,47,10.0,0.0
8385,79.0,0,104,4.0,0.0
8386,76.0,57,47,5.0,0.0
8387,79.0,0,104,10.0,0.0
8388,69.0,3,104,12.0,0.0
8389,76.0,0,47,11.0,0.0
8390,74.0,12,47,11.0,0.0
8391,74.0,0,47,5.0,0.0
8392,79.0,0,47,10.0,0.0
8393,73.0,57,47,11.0,0.0
8394,64.0,3,104,13.0,0.0
8395,69.0,0,104,12.0,0.0
8396,64.0,48,119,14.0,0.0
8397,73.0,0,47,5.0,0.0
8398,79.0,0,47,4.0,0.0
8399,78.0,0,47,4.0,0.0
8400,74.0,0,47,5.0,0.0
8401,74.0,0,47,11.0,0.0
8402,78.0,12,47,10.0,0.0
8403,76.0,57,47,5.0,0.0
8404,69.0,0,104,12.0,0.0
8405,57.0,48,119,14.0,0.0
8406,57.0,0,104,13.0,0.0
8407,79.0,0,104,10.0,0.0
8408,79.0,3,104,4.0,0.0
8409,76.0,0,47,11.0,0.0
8410,74.0,0,47,11.0,0.0
8411,74.0,12,47,5.0,0.0
8412,61.0,3,104,13.0,0.0
8413,81.0,0,47,4.0,0.0
8414,73.0,57,47,11.0,0.0
8415,61.0,105,119,14.0,0.0
8416,81.0,0,47,10.0,0.0
8417,69.0,0,104,12.0,0.0
8418,73.0,0,47,5.0,0.0
8419,79.0,0,47,10.0,0.0
8420,71.0,0,47,5.0,0.0
8421,79.0,0,47,4.0,0.0
8422,71.0,12,47,11.0,0.0
8423,69.0,0,104,11.0,0.0
8424,69.0,0,104,5.0,0.0
8425,50.0,0,104,13.0,0.0
8426,69.0,15,104,12.0,0.0
8427,78.0,0,104,4.0,0.0
8428,78.0,0,104,10.0,0.0
8429,50.0,48,119,14.0,0.0
8430,78.0,0,47,10.0,0.0
8431,62.0,0,104,13.0,0.0
8432,66.0,0,104,11.0,0.0
8433,62.0,0,47,12.0,0.0
8434,66.0,3,104,5.0,0.0
8435,62.0,48,119,14.0,0.0
8436,78.0,57,47,4.0,0.0
8437,76.0,0,47,10.0,0.0
8438,76.0,0,47,4.0,0.0
8439,64.0,12,47,12.0,0.0
8440,55.0,0,104,13.0,0.0
8441,62.0,57,47,12.0,0.0
8442,71.0,0,344,11.0,0.0
8443,78.0,3,104,4.0,0.0
8444,78.0,0,104,10.0,0.0
8445,71.0,0,344,5.0,0.0
8446,55.0,48,119,14.0,0.0
8447,61.0,12,47,12.0,0.0
8448,59.0,48,119,14.0,0.0
8449,59.0,57,47,12.0,0.0
8450,79.0,0,47,4.0,0.0
8451,59.0,3,104,13.0,0.0
8452,79.0,0,47,10.0,0.0
8453,78.0,12,47,4.0,0.0
8454,62.0,0,47,12.0,0.0
8455,78.0,0,47,10.0,0.0
8456,76.0,3,104,4.0,0.0
8457,61.0,57,47,12.0,0.0
8458,49.0,0,104,13.0,0.0
8459,49.0,48,119,14.0,0.0
8460,76.0,0,104,10.0,0.0
8461,62.0,12,47,12.0,0.0
8462,61.0,3,104,13.0,0.0
8463,61.0,0,47,12.0,0.0
8464,76.0,57,47,10.0,0.0
8465,70.0,0,47,11.0,0.0
8466,70.0,0,47,5.0,0.0
8467,76.0,0,47,4.0,0.0
8468,61.0,48,119,14.0,0.0
8469,74.0,0,47,4.0,0.0
8470,71.0,12,47,5.0,0.0
8471,71.0,0,47,11.0,0.0
8472,59.0,0,47,12.0,0.0
8473,74.0,0,47,10.0,0.0
8474,73.0,0,47,11.0,0.0
8475,76.0,0,104,4.0,0.0
8476,54.0,48,119,14.0,0.0
8477,76.0,3,104,10.0,0.0
8478,73.0,57,47,5.0,0.0
8479,54.0,0,104,13.0,0.0
8480,58.0,0,104,12.0,0.0
8481,71.0,0,47,5.0,0.0
8482,71.0,12,47,11.0,0.0
8483,78.0,0,47,4.0,0.0
8484,61.0,0,104,12.0,0.0
8485,78.0,0,47,10.0,0.0
8486,58.0,3,104,13.0,0.0
8487,70.0,57,47,5.0,0.0
8488,70.0,0,47,11.0,0.0
8489,58.0,48,119,14.0,0.0
8490,76.0,0,47,10.0,0.0
8491,76.0,0,47,4.0,0.0
8492,68.0,12,47,11.0,0.0
8493,68.0,0,47,5.0,0.0
8494,74.0,0,104,10.0,0.0
8495,47.0,3,104,13.0,0.0
8496,62.0,0,104,12.0,0.0
8497,74.0,0,104,4.0,0.0
8498,66.0,0,47,11.0,0.0
8499,47.0,48,119,14.0,0.0
8500,66.0,57,47,5.0,0.0
8501,78.0,0,47,11.0,0.0
8502,78.0,12,47,5.0,0.0
8503,74.0,0,47,0.0,0.0
8504,71.0,57,47,5.0,0.0
8505,71.0,0,47,11.0,0.0
8506,59.0,48,119,14.0,0.0
8507,66.0,3,104,12.0,0.0
8508,74.0,0,47,4.0,0.0
8509,74.0,0,47,10.0,0.0
8510,59.0,0,104,13.0,0.0
8511,62.0,0,119,1.0,0.0
8512,73.0,0,47,11.0,0.0
8513,76.0,12,47,0.0,0.0
8514,73.0,0,47,5.0,0.0
8515,76.0,0,47,10.0,0.0
8516,76.0,0,47,4.0,0.0
8517,74.0,57,47,5.0,0.0
8518,62.0,48,119,1.0,0.0
8519,78.0,3,104,10.0,0.0
8520,78.0,0,104,4.0,0.0
8521,78.0,0,104,0.0,0.0
8522,57.0,0,104,13.0,0.0
8523,57.0,0,119,14.0,0.0
8524,59.0,0,104,12.0,0.0
8525,74.0,0,47,11.0,0.0
8526,76.0,0,47,5.0,0.0
8527,76.0,12,47,11.0,0.0
8528,78.0,0,47,0.0,0.0
8529,74.0,0,47,11.0,0.0
8530,55.0,48,119,14.0,0.0
8531,78.0,0,47,10.0,0.0
8532,78.0,0,47,4.0,0.0
8533,62.0,0,224,12.0,0.0
8534,55.0,3,104,13.0,0.0
8535,74.0,57,47,5.0,0.0
8536,62.0,0,104,1.0,0.0
8537,79.0,0,47,0.0,0.0
8538,79.0,12,47,10.0,0.0
8539,76.0,0,47,5.0,0.0
8540,76.0,0,47,11.0,0.0
8541,79.0,0,47,4.0,0.0
8542,81.0,0,104,0.0,0.0
8543,54.0,48,119,14.0,0.0
8544,54.0,0,104,13.0,0.0
8545,62.0,0,119,1.0,0.0
8546,78.0,0,47,5.0,0.0
8547,81.0,3,104,10.0,0.0
8548,81.0,0,104,4.0,0.0
8549,78.0,57,47,11.0,0.0
8550,81.0,0,47,11.0,0.0
8551,81.0,12,47,5.0,0.0
8552,74.0,0,104,12.0,0.0
8553,74.0,0,47,11.0,0.0
8554,59.0,48,119,14.0,0.0
8555,62.0,0,119,1.0,0.0
8556,74.0,57,47,5.0,0.0
8557,59.0,3,104,13.0,0.0
8558,78.0,0,47,0.0,0.0
8559,62.0,0,119,2.0,0.0
8560,78.0,0,47,4.0,0.0
8561,78.0,0,47,10.0,0.0
8562,76.0,12,47,5.0,0.0
8563,79.0,0,47,4.0,0.0
8564,76.0,0,47,11.0,0.0
8565,79.0,0,47,10.0,0.0
8566,79.0,0,47,0.0,0.0
8567,78.0,0,47,11.0,0.0
8568,81.0,3,104,0.0,0.0
8569,62.0,48,119,1.0,0.0
8570,78.0,57,47,5.0,0.0
8571,81.0,0,104,10.0,0.0
8572,57.0,0,104,13.0,0.0
8573,62.0,0,119,2.0,0.0
8574,74.0,0,104,12.0,0.0
8575,57.0,0,119,14.0,0.0
8576,81.0,0,104,4.0,0.0
8577,79.0,0,47,11.0,0.0
8578,79.0,12,47,5.0,0.0
8579,81.0,57,47,0.0,0.0
8580,81.0,0,47,4.0,0.0
8581,74.0,3,104,12.0,0.0
8582,78.0,0,47,5.0,0.0
8583,78.0,0,47,11.0,0.0
8584,55.0,48,119,14.0,0.0
8585,62.0,0,104,2.0,0.0
8586,62.0,0,104,1.0,0.0
8587,81.0,0,47,10.0,0.0
8588,55.0,0,104,13.0,0.0
8589,83.0,0,47,4.0,0.0
8590,79.0,0,47,5.0,0.0
8591,83.0,12,47,10.0,0.0
8592,83.0,0,47,0.0,0.0
8593,79.0,0,47,11.0,0.0
8594,81.0,57,47,11.0,0.0
8595,74.0,0,104,12.0,0.0
8596,84.0,0,104,10.0,0.0
8597,81.0,0,104,5.0,0.0
8598,62.0,0,104,1.0,0.0
8599,84.0,0,104,0.0,0.0
8600,54.0,48,119,14.0,0.0
8601,54.0,0,104,13.0,0.0
8602,84.0,3,104,4.0,0.0
8603,62.0,0,104,2.0,0.0
8604,79.0,12,47,11.0,0.0
8605,78.0,0,47,11.0,0.0
8606,84.0,0,47,10.0,0.0
8607,74.0,0,104,12.0,0.0
8608,62.0,0,104,2.0,0.0
8609,57.0,0,104,13.0,0.0
8610,50.0,0,119,3.0,0.0
8611,57.0,48,119,14.0,0.0
8612,79.0,3,104,5.0,0.0
8613,84.0,57,47,4.0,0.0
8614,84.0,0,47,0.0,0.0
8615,78.0,0,47,1.0,0.0
8616,83.0,0,47,10.0,0.0
8617,83.0,12,47,0.0,0.0
8618,79.0,0,47,1.0,0.0
8619,83.0,0,47,4.0,0.0
8620,79.0,0,47,11.0,0.0
8621,66.0,3,104,2.0,0.0
8622,50.0,48,119,14.0,0.0
8623,78.0,0,104,5.0,0.0
8624,81.0,0,104,1.0,0.0
8625,81.0,57,47,11.0,0.0
8626,50.0,0,104,13.0,0.0
8627,50.0,0,119,3.0,0.0
8628,84.0,0,104,0.0,0.0
8629,84.0,0,104,4.0,0.0
8630,84.0,0,104,10.0,0.0
8631,74.0,0,104,12.0,0.0
8632,79.0,12,47,11.0,0.0
8633,83.0,0,47,1.0,0.0
8634,76.0,0,104,5.0,0.0
8635,78.0,0,47,11.0,0.0
8636,69.0,0,104,12.0,0.0
8637,54.0,48,119,14.0,0.0
8638,86.0,0,47,0.0,0.0
8639,86.0,57,47,4.0,0.0
8640,54.0,0,104,13.0,0.0
8641,50.0,0,119,3.0,0.0
8642,62.0,3,104,2.0,0.0
8643,86.0,0,47,10.0,0.0
8644,84.0,0,47,4.0,0.0
8645,81.0,0,47,1.0,0.0
8646,76.0,12,47,11.0,0.0
8647,84.0,0,47,10.0,0.0
8648,84.0,0,47,0.0,0.0
8649,74.0,0,119,2.0,0.0
8650,83.0,57,47,4.0,0.0
8651,71.0,0,104,12.0,0.0
8652,50.0,0,119,3.0,0.0
8653,83.0,0,47,10.0,0.0
8654,43.0,0,119,14.0,0.0
8655,83.0,48,119,0.0,0.0
8656,74.0,0,104,11.0,0.0
8657,43.0,0,104,13.0,0.0
8658,74.0,3,104,5.0,0.0
8659,79.0,0,119,1.0,0.0
8660,79.0,12,47,4.0,0.0
8661,79.0,0,47,10.0,0.0
8662,71.0,0,104,5.0,0.0
8663,76.0,57,47,4.0,0.0
8664,71.0,0,104,12.0,0.0
8665,71.0,0,104,11.0,0.0
8666,55.0,48,119,14.0,0.0
8667,55.0,3,104,13.0,0.0
8668,76.0,0,47,10.0,0.0
8669,78.0,12,47,10.0,0.0
8670,78.0,0,47,4.0,0.0
8671,49.0,48,119,14.0,0.0
8672,79.0,57,47,10.0,0.0
8673,76.0,0,344,5.0,0.0
8674,76.0,3,344,11.0,0.0
8675,71.0,3,104,12.0,0.0
8676,79.0,0,47,4.0,0.0
8677,49.0,0,104,13.0,0.0
8678,81.0,0,47,4.0,0.0
8679,81.0,12,47,10.0,0.0
8680,79.0,0,104,1.0,0.0
8681,83.0,0,104,0.0,0.0
8682,71.0,3,104,12.0,0.0
8683,78.0,0,47,10.0,0.0
8684,52.0,0,104,13.0,0.0
8685,78.0,57,47,4.0,0.0
8686,76.0,0,104,2.0,0.0
8687,52.0,48,119,14.0,0.0
8688,79.0,0,47,4.0,0.0
8689,79.0,12,47,10.0,0.0
8690,45.0,48,119,3.0,0.0
8691,78.0,0,119,1.0,0.0
8692,81.0,57,47,4.0,0.0
8693,81.0,0,47,10.0,0.0
8694,76.0,0,119,2.0,0.0
8695,42.0,0,104,13.0,0.0
8696,42.0,0,119,14.0,0.0
8697,69.0,0,104,12.0,0.0
8698,81.0,0,119,0.0,0.0
8699,78.0,12,47,10.0,0.0
8700,78.0,0,47,4.0,0.0
8701,54.0,48,119,14.0,0.0
8702,74.0,0,47,10.0,0.0
8703,54.0,0,104,13.0,0.0
8704,74.0,57,47,4.0,0.0
8705,69.0,0,104,11.0,0.0
8706,69.0,0,104,12.0,0.0
8707,69.0,3,104,5.0,0.0
8708,76.0,12,47,10.0,0.0
8709,76.0,0,47,4.0,0.0
8710,69.0,3,104,12.0,0.0
8711,78.0,57,47,4.0,0.0
8712,78.0,0,47,10.0,0.0
8713,74.0,0,344,11.0,0.0
8714,47.0,0,104,13.0,0.0
8715,47.0,48,119,14.0,0.0
8716,74.0,0,344,5.0,0.0
8717,79.0,0,47,10.0,0.0
8718,79.0,12,47,4.0,0.0
8719,76.0,57,47,4.0,0.0
8720,78.0,0,104,1.0,0.0
8721,76.0,0,47,10.0,0.0
8722,50.0,48,119,14.0,0.0
8723,69.0,0,104,12.0,0.0
8724,74.0,0,104,2.0,0.0
8725,50.0,0,104,13.0,0.0
8726,81.0,3,104,0.0,0.0
8727,78.0,0,47,4.0,0.0
8728,78.0,12,47,10.0,0.0
8729,74.0,0,104,2.0,0.0
8730,79.0,57,47,4.0,0.0
8731,79.0,0,47,10.0,0.0
8732,40.0,3,104,13.0,0.0
8733,40.0,48,119,14.0,0.0
8734,79.0,0,47,0.0,0.0
8735,76.0,0,104,1.0,0.0
8736,67.0,0,104,12.0,0.0
8737,78.0,0,47,10.0,0.0
8738,78.0,0,47,0.0,0.0
8739,78.0,12,47,4.0,0.0
8740,76.0,0,47,10.0,0.0
8741,69.0,3,104,12.0,0.0
8742,45.0,0,104,13.0,0.0
8743,81.0,0,104,1.0,0.0
8744,73.0,0,104,11.0,0.0
8745,76.0,57,47,4.0,0.0
8746,69.0,0,104,2.0,0.0
8747,76.0,0,47,0.0,0.0
8748,45.0,0,119,3.0,0.0
8749,73.0,0,104,5.0,0.0
8750,45.0,48,119,14.0,0.0
8751,79.0,0,47,4.0,0.0
8752,79.0,12,47,0.0,0.0
8753,79.0,0,47,10.0,0.0
8754,74.0,0,47,5.0,0.0
8755,50.0,48,119,3.0,0.0
8756,78.0,0,47,10.0,0.0
8757,50.0,0,119,14.0,0.0
8758,78.0,57,47,0.0,0.0
8759,69.0,3,104,2.0,0.0
8760,78.0,0,47,4.0,0.0
8761,81.0,0,104,1.0,0.0
8762,74.0,0,47,11.0,0.0
8763,69.0,0,104,12.0,0.0
8764,50.0,0,104,13.0,0.0
8765,76.0,12,47,0.0,0.0
8766,73.0,0,47,5.0,0.0
8767,76.0,0,47,4.0,0.0
8768,73.0,0,47,11.0,0.0
8769,76.0,0,47,10.0,0.0
8770,74.0,0,47,10.0,0.0
8771,81.0,0,104,1.0,0.0
8772,69.0,0,104,2.0,0.0
8773,38.0,48,119,14.0,0.0
8774,38.0,0,104,13.0,0.0
8775,71.0,0,47,11.0,0.0
8776,50.0,0,119,3.0,0.0
8777,74.0,57,47,4.0,0.0
8778,74.0,0,47,0.0,0.0
8779,69.0,3,104,12.0,0.0
8780,71.0,0,47,5.0,0.0
8781,74.0,0,47,5.0,0.0
8782,78.0,0,47,4.0,0.0
8783,74.0,0,47,11.0,0.0
8784,78.0,0,47,0.0,0.0
8785,78.0,12,47,10.0,0.0
8786,76.0,0,119,0.0,0.0
8787,69.0,0,119,2.0,0.0
8788,69.0,3,104,12.0,0.0
8789,76.0,57,47,4.0,0.0
8790,73.0,0,104,11.0,0.0
8791,45.0,0,104,13.0,0.0
8792,81.0,0,119,1.0,0.0
8793,45.0,48,119,14.0,0.0
8794,45.0,0,119,3.0,0.0
8795,73.0,0,104,5.0,0.0
8796,76.0,0,47,10.0,0.0
8797,81.0,0,47,10.0,0.0
8798,81.0,12,47,4.0,0.0
8799,76.0,0,104,11.0,0.0
8800,69.0,3,104,12.0,0.0
8801,73.0,0,47,10.0,0.0
8802,73.0,12,47,4.0,0.0
8803,45.0,45,59,14.0,0.0
8804,45.0,0,47,13.0,0.0
8805,76.0,0,104,5.0,0.0
8806,47.0,48,59,14.0,0.0
8807,47.0,0,47,13.0,0.0
8808,74.0,12,47,4.0,0.0
8809,74.0,0,47,10.0,0.0
8810,49.0,48,119,14.0,0.0
8811,69.0,0,104,5.0,0.0
8812,76.0,0,47,4.0,0.0
8813,76.0,57,47,10.0,0.0
8814,49.0,3,104,13.0,0.0
8815,69.0,0,104,11.0,0.0
8816,69.0,0,104,12.0,0.0
8817,78.0,0,47,10.0,0.0
8818,78.0,12,47,4.0,0.0
8819,49.0,45,59,14.0,0.0
8820,76.0,0,47,10.0,0.0
8821,73.0,0,224,5.0,0.0
8822,76.0,0,47,4.0,0.0
8823,69.0,3,104,12.0,0.0
8824,49.0,12,47,13.0,0.0
8825,73.0,0,224,11.0,0.0
8826,50.0,12,47,13.0,0.0
8827,78.0,0,47,4.0,0.0
8828,78.0,0,47,10.0,0.0
8829,50.0,48,59,14.0,0.0
8830,79.0,57,47,10.0,0.0
8831,79.0,0,47,4.0,0.0
8832,52.0,3,104,13.0,0.0
8833,52.0,48,119,14.0,0.0
8834,69.0,0,104,12.0,0.0
8835,76.0,12,47,4.0,0.0
8836,76.0,0,47,10.0,0.0
8837,69.0,0,47,4.0,0.0
8838,69.0,3,104,12.0,0.0
8839,69.0,0,47,10.0,0.0
8840,49.0,12,47,13.0,0.0
8841,49.0,45,59,14.0,0.0
8842,69.0,0,119,0.0,0.0
8843,76.0,0,104,11.0,0.0
8844,76.0,0,104,5.0,0.0
8845,50.0,12,47,13.0,0.0
8846,71.0,0,47,10.0,0.0
8847,50.0,48,59,14.0,0.0
8848,71.0,0,47,4.0,0.0
8849,67.0,0,104,11.0,0.0
8850,73.0,57,47,4.0,0.0
8851,69.0,48,119,0.0,0.0
8852,52.0,0,119,14.0,0.0
8853,69.0,0,104,12.0,0.0
8854,67.0,0,104,5.0,0.0
8855,52.0,3,104,13.0,0.0
8856,73.0,0,47,10.0,0.0
8857,74.0,12,47,4.0,0.0
8858,74.0,0,47,10.0,0.0
8859,52.0,0,47,13.0,0.0
8860,52.0,45,59,14.0,0.0
8861,69.0,3,104,0.0,0.0
8862,73.0,0,224,5.0,0.0
8863,73.0,0,224,11.0,0.0
8864,73.0,12,47,4.0,0.0
8865,73.0,0,47,10.0,0.0
8866,69.0,0,104,12.0,0.0
8867,54.0,12,47,13.0,0.0
8868,74.0,0,47,4.0,0.0
8869,74.0,0,47,10.0,0.0
8870,54.0,48,59,14.0,0.0
8871,69.0,0,104,12.0,0.0
8872,76.0,0,47,10.0,0.0
8873,55.0,0,104,13.0,0.0
8874,69.0,3,104,0.0,0.0
8875,55.0,48,119,14.0,0.0
8876,76.0,57,47,4.0,0.0
8877,74.0,0,47,10.0,0.0
8878,74.0,12,47,4.0,0.0
8879,73.0,12,47,4.0,0.0
8880,73.0,0,47,10.0,0.0
8881,55.0,0,47,13.0,0.0
8882,69.0,48,119,2.0,0.0
8883,76.0,0,104,11.0,0.0
8884,45.0,0,119,3.0,0.0
8885,69.0,3,104,12.0,0.0
8886,76.0,0,104,0.0,0.0
8887,55.0,45,59,14.0,0.0
8888,69.0,0,104,1.0,0.0
8889,76.0,0,104,5.0,0.0
8890,54.0,0,59,14.0,0.0
8891,54.0,12,47,13.0,0.0
8892,74.0,0,47,10.0,0.0
8893,74.0,0,47,4.0,0.0
8894,76.0,0,104,0.0,0.0
8895,45.0,0,119,3.0,0.0
8896,69.0,0,104,12.0,0.0
8897,69.0,48,119,2.0,0.0
8898,55.0,0,119,14.0,0.0
8899,69.0,0,104,11.0,0.0
8900,69.0,0,104,1.0,0.0
8901,76.0,0,47,4.0,0.0
8902,76.0,57,47,10.0,0.0
8903,69.0,3,104,5.0,0.0
8904,55.0,0,104,13.0,0.0
8905,79.0,0,47,10.0,0.0
8906,79.0,12,47,4.0,0.0
8907,69.0,0,104,2.0,0.0
8908,57.0,45,59,14.0,0.0
8909,78.0,0,47,4.0,0.0
8910,57.0,12,47,13.0,0.0
8911,69.0,0,104,12.0,0.0
8912,73.0,0,104,11.0,0.0
8913,81.0,0,104,0.0,0.0
8914,78.0,0,47,10.0,0.0
8915,45.0,0,119,3.0,0.0
8916,76.0,3,104,1.0,0.0
8917,73.0,0,104,5.0,0.0
8918,76.0,0,47,10.0,0.0
8919,76.0,0,47,4.0,0.0
8920,55.0,48,59,14.0,0.0
8921,55.0,12,47,13.0,0.0
8922,74.0,0,104,5.0,0.0
8923,81.0,57,47,4.0,0.0
8924,78.0,3,104,1.0,0.0
8925,69.0,0,104,12.0,0.0
8926,81.0,48,119,0.0,0.0
8927,54.0,0,119,14.0,0.0
8928,74.0,0,104,11.0,0.0
8929,62.0,0,119,2.0,0.0
8930,54.0,0,104,13.0,0.0
8931,81.0,0,47,10.0,0.0
8932,50.0,0,119,3.0,0.0
8933,79.0,12,47,4.0,0.0
8934,79.0,0,47,10.0,0.0
8935,69.0,0,104,11.0,0.0
8936,69.0,0,104,5.0,0.0
8937,78.0,0,47,10.0,0.0
8938,78.0,0,47,4.0,0.0
8939,54.0,12,47,13.0,0.0
8940,54.0,45,59,14.0,0.0
8941,62.0,3,104,12.0,0.0
8942,81.0,0,47,1.0,0.0
8943,79.0,0,47,4.0,0.0
8944,79.0,12,47,1.0,0.0
8945,79.0,0,47,10.0,0.0
8946,52.0,48,59,14.0,0.0
8947,52.0,0,47,13.0,0.0
8948,74.0,0,344,5.0,0.0
8949,74.0,3,344,11.0,0.0
8950,81.0,0,47,10.0,0.0
8951,54.0,3,104,13.0,0.0
8952,54.0,48,119,14.0,0.0
8953,66.0,0,104,12.0,0.0
8954,81.0,57,47,4.0,0.0
8955,78.0,0,104,1.0,0.0
8956,78.0,12,47,10.0,0.0
8957,78.0,0,47,4.0,0.0
8958,71.0,0,104,12.0,0.0
8959,83.0,0,47,0.0,0.0
8960,55.0,45,59,14.0,0.0
8961,74.0,3,104,1.0,0.0
8962,74.0,12,47,4.0,0.0
8963,74.0,0,47,10.0,0.0
8964,55.0,0,47,13.0,0.0
8965,81.0,0,47,0.0,0.0
8966,78.0,0,47,4.0,0.0
8967,54.0,48,59,14.0,0.0
8968,78.0,12,47,10.0,0.0
8969,54.0,0,47,13.0,0.0
8970,71.0,0,104,12.0,0.0
8971,76.0,0,104,1.0,0.0
8972,79.0,0,119,0.0,0.0
8973,52.0,0,104,13.0,0.0
8974,52.0,48,119,14.0,0.0
8975,79.0,0,47,10.0,0.0
8976,79.0,57,47,4.0,0.0
8977,78.0,12,47,4.0,0.0
8978,78.0,0,47,10.0,0.0
8979,76.0,12,47,10.0,0.0
8980,73.0,0,104,5.0,0.0
8981,79.0,0,47,1.0,0.0
8982,67.0,3,104,11.0,0.0
8983,52.0,45,59,14.0,0.0
8984,73.0,0,47,12.0,0.0
8985,76.0,0,47,4.0,0.0
8986,52.0,0,47,13.0,0.0
8987,74.0,12,47,12.0,0.0
8988,78.0,0,47,1.0,0.0
8989,78.0,0,47,4.0,0.0
8990,78.0,0,47,10.0,0.0
8991,50.0,0,47,13.0,0.0
8992,50.0,48,59,14.0,0.0
8993,79.0,57,47,10.0,0.0
8994,76.0,0,104,5.0,0.0
8995,79.0,0,47,4.0,0.0
8996,52.0,48,119,14.0,0.0
8997,73.0,0,104,12.0,0.0
8998,76.0,3,104,1.0,0.0
8999,64.0,0,104,11.0,0.0
9000,52.0,0,104,13.0,0.0
9001,83.0,0,47,4.0,0.0
9002,83.0,12,47,10.0,0.0
9003,81.0,0,47,10.0,0.0
9004,73.0,0,104,5.0,0.0
9005,81.0,12,47,4.0,0.0
9006,54.0,0,47,13.0,0.0
9007,45.0,48,119,3.0,0.0
9008,73.0,0,104,11.0,0.0
9009,54.0,45,59,14.0,0.0
9010,69.0,3,104,1.0,0.0
9011,69.0,0,104,12.0,0.0
9012,81.0,0,47,0.0,0.0
9013,76.0,0,104,2.0,0.0
9014,79.0,12,47,0.0,0.0
9015,52.0,0,47,13.0,0.0
9016,52.0,0,59,14.0,0.0
9017,79.0,0,47,4.0,0.0
9018,79.0,0,47,10.0,0.0
9019,78.0,15,89,0.0,0.0
9020,74.0,3,104,5.0,0.0
9021,74.0,0,104,11.0,0.0
9022,78.0,0,104,10.0,0.0
9023,50.0,12,47,13.0,0.0
9024,78.0,0,119,2.0,0.0
9025,69.0,0,104,12.0,0.0
9026,50.0,30,59,14.0,0.0
9027,50.0,48,119,3.0,0.0
9028,69.0,0,104,1.0,0.0
9029,78.0,0,104,4.0,0.0
9030,52.0,12,47,13.0,0.0
9031,52.0,0,59,14.0,0.0
9032,69.0,0,104,11.0,0.0
9033,69.0,0,104,12.0,0.0
9034,74.0,0,104,4.0,0.0
9035,74.0,0,104,1.0,0.0
9036,74.0,3,104,10.0,0.0
9037,81.0,15,89,0.0,0.0
9038,69.0,0,104,5.0,0.0
9039,54.0,12,47,13.0,0.0
9040,54.0,30,59,14.0,0.0
9041,50.0,48,59,14.0,0.0
9042,50.0,12,47,13.0,0.0
9043,62.0,0,104,5.0,0.0
9044,55.0,12,47,13.0,0.0
9045,83.0,15,89,0.0,0.0
9046,71.0,0,104,10.0,0.0
9047,79.0,0,119,2.0,0.0
9048,67.0,0,104,12.0,0.0
9049,50.0,48,119,3.0,0.0
9050,74.0,3,104,1.0,0.0
9051,62.0,0,104,11.0,0.0
9052,55.0,30,59,14.0,0.0
9053,71.0,0,104,4.0,0.0
9054,57.0,12,47,13.0,0.0
9055,57.0,0,59,14.0,0.0
9056,54.0,12,47,13.0,0.0
9057,76.0,0,104,1.0,0.0
9058,54.0,30,59,14.0,0.0
9059,74.0,0,104,5.0,0.0
9060,76.0,0,104,10.0,0.0
9061,67.0,0,104,11.0,0.0
9062,76.0,3,104,4.0,0.0
9063,79.0,15,89,0.0,0.0
9064,71.0,0,104,12.0,0.0
9065,55.0,12,47,13.0,0.0
9066,55.0,48,59,14.0,0.0
9067,69.0,3,104,12.0,0.0
9068,85.0,0,104,0.0,0.0
9069,73.0,57,47,4.0,0.0
9070,64.0,0,47,11.0,0.0
9071,73.0,0,47,10.0,0.0
9072,57.0,48,119,14.0,0.0
9073,45.0,0,119,3.0,0.0
9074,64.0,48,239,5.0,0.0
9075,57.0,0,104,13.0,0.0
9076,76.0,0,119,2.0,0.0
9077,69.0,0,104,1.0,0.0
9078,69.0,12,47,4.0,0.0
9079,61.0,0,47,11.0,0.0
9080,69.0,0,47,10.0,0.0
9081,62.0,0,47,11.0,0.0
9082,55.0,0,104,13.0,0.0
9083,55.0,0,119,14.0,0.0
9084,71.0,57,47,4.0,0.0
9085,71.0,0,47,10.0,0.0
9086,76.0,0,104,1.0,0.0
9087,81.0,3,104,0.0,0.0
9088,64.0,0,104,12.0,0.0
9089,64.0,0,47,11.0,0.0
9090,73.0,0,47,10.0,0.0
9091,73.0,12,47,4.0,0.0
9092,45.0,0,119,3.0,0.0
9093,57.0,3,104,11.0,0.0
9094,54.0,0,104,13.0,0.0
9095,74.0,57,47,4.0,0.0
9096,74.0,0,47,10.0,0.0
9097,78.0,0,47,1.0,0.0
9098,69.0,0,104,12.0,0.0
9099,69.0,0,104,2.0,0.0
9100,54.0,48,119,14.0,0.0
9101,86.0,0,104,0.0,0.0
9102,76.0,12,47,1.0,0.0
9103,76.0,0,47,4.0,0.0
9104,76.0,0,47,10.0,0.0
9105,45.0,0,119,3.0,0.0
9106,69.0,0,104,12.0,0.0
9107,78.0,0,47,10.0,0.0
9108,52.0,48,119,14.0,0.0
9109,69.0,3,104,2.0,0.0
9110,73.0,0,104,5.0,0.0
9111,73.0,0,104,11.0,0.0
9112,52.0,0,104,13.0,0.0
9113,79.0,0,104,0.0,0.0
9114,78.0,57,47,1.0,0.0
9115,78.0,0,47,4.0,0.0
9116,79.0,0,47,4.0,0.0
9117,79.0,12,47,10.0,0.0
9118,79.0,0,47,1.0,0.0
9119,78.0,0,47,4.0,0.0
9120,69.0,57,47,12.0,0.0
9121,69.0,48,119,2.0,0.0
9122,78.0,0,47,10.0,0.0
9123,50.0,0,119,3.0,0.0
9124,81.0,0,119,1.0,0.0
9125,50.0,3,104,13.0,0.0
9126,74.0,0,104,11.0,0.0
9127,78.0,0,119,0.0,0.0
9128,74.0,0,104,5.0,0.0
9129,50.0,0,119,14.0,0.0
9130,76.0,12,47,10.0,0.0
9131,67.0,0,47,12.0,0.0
9132,76.0,0,47,4.0,0.0
9133,74.0,57,47,10.0,0.0
9134,55.0,105,119,14.0,0.0
9135,71.0,0,104,5.0,0.0
9136,71.0,0,104,11.0,0.0
9137,66.0,0,47,12.0,0.0
9138,55.0,3,104,13.0,0.0
9139,74.0,0,47,4.0,0.0
9140,67.0,12,47,12.0,0.0
9141,76.0,0,47,10.0,0.0
9142,76.0,0,47,4.0,0.0
9143,64.0,0,104,12.0,0.0
9144,69.0,0,104,11.0,0.0
9145,45.0,0,119,3.0,0.0
9146,79.0,0,119,1.0,0.0
9147,57.0,0,119,14.0,0.0
9148,69.0,0,104,4.0,0.0
9149,69.0,0,104,10.0,0.0
9150,69.0,15,104,5.0,0.0
9151,76.0,0,104,0.0,0.0
9152,69.0,105,119,2.0,0.0
9153,57.0,0,104,13.0,0.0
9154,45.0,15,119,14.0,0.0
9155,69.0,0,104,11.0,0.0
9156,45.0,0,104,13.0,0.0
9157,64.0,0,104,12.0,0.0
9158,73.0,0,104,10.0,0.0
9159,69.0,0,104,5.0,0.0
9160,73.0,15,104,4.0,0.0
9161,66.0,15,239,12.0,0.0
9162,50.0,0,959,13.0,0.0
9163,69.0,0,293,5.0,0.0
9164,74.0,0,119,0.0,0.0
9165,74.0,0,293,10.0,0.0
9166,69.0,6,173,11.0,0.0
9167,78.0,0,119,1.0,0.0
9168,74.0,6,293,4.0,0.0
9169,69.0,0,119,2.0,0.0
9170,50.0,15,14,3.0,0.0
9171,50.0,15,959,14.0,0.0
9172,50.0,15,14,3.0,0.0
9173,50.0,15,14,3.0,0.0
9174,50.0,15,14,3.0,0.0
9175,50.0,15,14,3.0,0.0
9176,50.0,15,14,3.0,0.0
9177,50.0,15,14,3.0,0.0
9178,50.0,15,14,3.0,0.0
9179,50.0,15,14,3.0,0.0
9180,50.0,15,14,3.0,0.0
9181,50.0,9,14,3.0,0.0
9182,50.0,15,14,3.0,0.0
9183,62.0,6,53,11.0,0.0
9184,50.0,15,14,3.0,0.0
9185,50.0,15,14,3.0,0.0
9186,50.0,9,14,3.0,0.0
9187,50.0,0,14,3.0,0.0
9188,62.0,0,173,11.0,0.0
9189,50.0,15,14,3.0,0.0
9190,50.0,15,14,3.0,0.0
9191,50.0,9,14,3.0,0.0
9192,50.0,15,14,3.0,0.0
9193,50.0,15,14,3.0,0.0
9194,76.0,6,53,5.0,0.0
9195,76.0,0,53,10.0,0.0
9196,76.0,0,53,4.0,0.0
9197,50.0,15,14,3.0,0.0
9198,50.0,9,14,3.0,0.0
9199,50.0,15,14,3.0,0.0
9200,50.0,15,14,3.0,0.0
9201,78.0,6,53,5.0,0.0
9202,78.0,0,53,4.0,0.0
9203,78.0,0,53,10.0,0.0
9204,50.0,15,14,3.0,0.0
9205,50.0,9,14,3.0,0.0
9206,50.0,15,14,3.0,0.0
9207,62.0,0,53,12.0,0.0
9208,74.0,0,53,4.0,0.0
9209,50.0,15,14,3.0,0.0
9210,74.0,0,53,5.0,0.0
9211,74.0,0,53,10.0,0.0
9212,66.0,6,53,11.0,0.0
9213,50.0,15,14,3.0,0.0
9214,50.0,9,14,3.0,0.0
9215,50.0,15,14,3.0,0.0
9216,69.0,15,119,2.0,0.0
9217,74.0,0,119,1.0,0.0
9218,62.0,6,173,12.0,0.0
9219,66.0,0,173,11.0,0.0
9220,78.0,0,119,0.0,0.0
9221,50.0,15,14,3.0,0.0
9222,69.0,6,293,10.0,0.0
9223,69.0,0,293,5.0,0.0
9224,69.0,0,293,4.0,0.0
9225,50.0,15,14,3.0,0.0
9226,50.0,15,14,3.0,0.0
9227,50.0,15,14,3.0,0.0
9228,50.0,15,14,3.0,0.0
9229,50.0,15,14,3.0,0.0
9230,50.0,15,14,3.0,0.0
9231,50.0,0,14,3.0,0.0
9232,50.0,15,14,3.0,0.0
9233,50.0,15,14,3.0,0.0
9234,50.0,9,14,3.0,0.0
9235,50.0,15,14,3.0,0.0
9236,50.0,15,14,3.0,0.0
9237,69.0,6,53,11.0,0.0
9238,66.0,0,53,12.0,0.0
9239,50.0,15,14,3.0,0.0
9240,50.0,9,14,3.0,0.0
9241,50.0,15,14,3.0,0.0
9242,69.0,0,173,11.0,0.0
9243,50.0,15,14,3.0,0.0
9244,66.0,0,173,12.0,0.0
9245,50.0,15,14,3.0,0.0
9246,50.0,9,14,3.0,0.0
9247,50.0,15,14,3.0,0.0
9248,50.0,15,14,3.0,0.0
9249,71.0,0,53,10.0,0.0
9250,71.0,6,53,5.0,0.0
9251,71.0,0,53,4.0,0.0
9252,50.0,15,14,3.0,0.0
9253,50.0,9,14,3.0,0.0
9254,50.0,15,14,3.0,0.0
9255,72.0,0,53,10.0,0.0
9256,72.0,6,53,4.0,0.0
9257,72.0,0,53,5.0,0.0
9258,50.0,15,14,3.0,0.0
9259,50.0,15,14,3.0,0.0
9260,50.0,9,14,3.0,0.0
9261,50.0,15,14,3.0,0.0
9262,69.0,0,53,10.0,0.0
9263,69.0,0,53,4.0,0.0
9264,50.0,15,14,3.0,0.0
9265,69.0,6,53,12.0,0.0
9266,69.0,0,53,5.0,0.0
9267,66.0,0,53,11.0,0.0
9268,50.0,15,14,3.0,0.0
9269,50.0,9,14,3.0,0.0
9270,50.0,0,14,3.0,0.0
9271,81.0,15,119,0.0,0.0
9272,78.0,0,119,1.0,0.0
9273,66.0,0,293,10.0,0.0
9274,50.0,0,959,14.0,0.0
9275,50.0,15,14,3.0,0.0
9276,62.0,0,173,11.0,0.0
9277,66.0,6,293,5.0,0.0
9278,50.0,0,959,13.0,0.0
9279,69.0,6,173,12.0,0.0
9280,66.0,0,293,4.0,0.0
9281,74.0,0,119,2.0,0.0
9282,50.0,15,14,3.0,0.0
9283,50.0,15,14,3.0,0.0
9284,50.0,15,14,3.0,0.0
9285,50.0,15,14,3.0,0.0
9286,50.0,15,14,3.0,0.0
9287,50.0,15,14,3.0,0.0
9288,50.0,0,14,3.0,0.0
9289,50.0,15,14,3.0,0.0
9290,50.0,15,14,3.0,0.0
9291,50.0,9,14,3.0,0.0
9292,50.0,15,14,3.0,0.0
9293,57.0,6,53,12.0,0.0
9294,66.0,0,53,11.0,0.0
9295,50.0,15,14,3.0,0.0
9296,50.0,15,14,3.0,0.0
9297,50.0,9,14,3.0,0.0
9298,50.0,15,14,3.0,0.0
9299,57.0,0,173,12.0,0.0
9300,50.0,15,14,3.0,0.0
9301,66.0,0,173,11.0,0.0
9302,50.0,15,14,3.0,0.0
9303,50.0,9,14,3.0,0.0
9304,50.0,15,14,3.0,0.0
9305,67.0,6,53,10.0,0.0
9306,67.0,0,53,4.0,0.0
9307,67.0,0,53,5.0,0.0
9308,50.0,15,14,3.0,0.0
9309,50.0,15,14,3.0,0.0
9310,50.0,9,14,3.0,0.0
9311,50.0,15,14,3.0,0.0
9312,69.0,0,53,10.0,0.0
9313,69.0,6,53,5.0,0.0
9314,50.0,15,14,3.0,0.0
9315,69.0,0,53,4.0,0.0
9316,50.0,15,14,3.0,0.0
9317,50.0,9,14,3.0,0.0
9318,50.0,15,14,3.0,0.0
9319,66.0,0,53,4.0,0.0
9320,66.0,6,53,10.0,0.0
9321,50.0,15,14,3.0,0.0
9322,66.0,0,53,5.0,0.0
9323,62.0,0,53,12.0,0.0
9324,69.0,0,53,11.0,0.0
9325,50.0,15,14,3.0,0.0
9326,50.0,9,14,3.0,0.0
9327,50.0,15,14,3.0,0.0
9328,62.0,0,325,4.0,0.0
9329,62.0,0,325,10.0,0.0
9330,62.0,4,325,5.0,0.0
9331,81.0,0,119,1.0,0.0
9332,66.0,6,173,12.0,0.0
9333,86.0,15,119,0.0,0.0
9334,69.0,0,173,11.0,0.0
9335,50.0,15,14,3.0,0.0
9336,78.0,0,119,2.0,0.0
9337,50.0,15,14,3.0,0.0
9338,50.0,15,14,3.0,0.0
9339,50.0,15,14,3.0,0.0
9340,50.0,15,14,3.0,0.0
9341,50.0,15,14,3.0,0.0
9342,50.0,15,14,3.0,0.0
9343,50.0,0,14,3.0,0.0
9344,50.0,15,14,3.0,0.0
9345,50.0,15,14,3.0,0.0
9346,50.0,9,14,3.0,0.0
9347,50.0,15,14,3.0,0.0
9348,69.0,0,53,12.0,0.0
9349,50.0,15,14,3.0,0.0
9350,72.0,6,53,11.0,0.0
9351,50.0,15,14,3.0,0.0
9352,50.0,9,14,3.0,0.0
9353,50.0,15,14,3.0,0.0
9354,50.0,15,14,3.0,0.0
9355,72.0,0,173,11.0,0.0
9356,69.0,2,173,12.0,0.0
9357,50.0,15,14,3.0,0.0
9358,50.0,15,14,3.0,0.0
9359,50.0,15,14,3.0,0.0
9360,50.0,11,14,3.0,0.0
9361,50.0,15,14,3.0,0.0
9362,64.0,0,25,4.0,0.0
9363,64.0,0,25,10.0,0.0
9364,64.0,4,25,5.0,0.0
9365,50.0,11,14,3.0,0.0
9366,50.0,15,14,3.0,0.0
9367,66.0,0,25,4.0,0.0
9368,50.0,11,14,3.0,0.0
9369,66.0,4,25,5.0,0.0
9370,66.0,0,25,10.0,0.0
9371,50.0,15,14,3.0,0.0
9372,50.0,9,14,3.0,0.0
9373,67.0,0,25,5.0,0.0
9374,67.0,4,25,4.0,0.0
9375,67.0,0,25,10.0,0.0
9376,50.0,15,14,3.0,0.0
9377,69.0,0,25,5.0,0.0
9378,69.0,4,25,10.0,0.0
9379,69.0,0,25,4.0,0.0
9380,50.0,11,14,3.0,0.0
9381,69.0,2,53,11.0,0.0
9382,66.0,0,53,12.0,0.0
9383,50.0,15,14,3.0,0.0
9384,71.0,0,25,10.0,0.0
9385,71.0,4,25,5.0,0.0
9386,50.0,9,14,3.0,0.0
9387,71.0,0,25,4.0,0.0
9388,50.0,15,14,3.0,0.0
9389,62.0,6,173,12.0,0.0
9390,66.0,6,347,11.0,0.0
9391,50.0,48,299,14.0,0.0
9392,72.0,0,173,4.0,0.0
9393,50.0,15,14,3.0,0.0
9394,72.0,0,173,10.0,0.0
9395,72.0,0,173,5.0,0.0
9396,50.0,6,293,13.0,0.0
9397,50.0,15,14,3.0,0.0
9398,50.0,15,14,3.0,0.0
9399,50.0,15,14,3.0,0.0
9400,50.0,15,14,3.0,0.0
9401,50.0,15,14,3.0,0.0
9402,50.0,15,14,3.0,0.0
9403,50.0,15,14,3.0,0.0
9404,50.0,15,14,3.0,0.0
9405,50.0,15,14,3.0,0.0
9406,50.0,9,14,3.0,0.0
9407,50.0,15,14,3.0,0.0
9408,50.0,15,14,3.0,0.0
9409,72.0,0,53,10.0,0.0
9410,74.0,0,53,2.0,0.0
9411,72.0,0,53,4.0,0.0
9412,81.0,0,53,0.0,0.0
9413,72.0,0,53,5.0,0.0
9414,78.0,0,53,1.0,0.0
9415,57.0,6,53,12.0,0.0
9416,50.0,15,14,3.0,0.0
9417,50.0,9,14,3.0,0.0
9418,50.0,54,14,3.0,0.0
9419,74.0,6,173,4.0,0.0
9420,74.0,0,173,10.0,0.0
9421,57.0,0,173,12.0,0.0
9422,74.0,0,173,5.0,0.0
9423,81.0,0,173,0.0,0.0
9424,74.0,0,173,2.0,0.0
9425,78.0,0,173,1.0,0.0
9426,50.0,0,59,3.0,0.0
9427,48.0,54,59,14.0,0.0
9428,48.0,6,53,13.0,0.0
9429,50.0,0,59,3.0,0.0
9430,50.0,0,59,3.0,0.0
9431,47.0,0,53,13.0,0.0
9432,66.0,6,107,11.0,0.0
9433,47.0,48,59,14.0,0.0
9434,76.0,0,53,4.0,0.0
9435,45.0,174,59,14.0,0.0
9436,60.0,6,53,12.0,0.0
9437,76.0,0,53,5.0,0.0
9438,76.0,0,53,10.0,0.0
9439,45.0,0,53,13.0,0.0
9440,81.0,0,53,1.0,0.0
9441,78.0,0,53,2.0,0.0
9442,81.0,0,53,0.0,0.0
9443,50.0,0,59,3.0,0.0
9444,86.0,0,173,0.0,0.0
9445,47.0,0,173,13.0,0.0
9446,79.0,0,173,1.0,0.0
9447,74.0,0,173,10.0,0.0
9448,74.0,0,173,4.0,0.0
9449,62.0,0,173,12.0,0.0
9450,67.0,0,173,11.0,0.0
9451,74.0,0,173,5.0,0.0
9452,74.0,6,173,2.0,0.0
9453,50.0,0,179,3.0,0.0
9454,47.0,54,179,14.0,0.0
9455,74.0,0,53,2.0,0.0
9456,50.0,174,59,3.0,0.0
9457,48.0,0,53,13.0,0.0
9458,64.0,0,53,12.0,0.0
9459,48.0,0,59,14.0,0.0
9460,72.0,0,53,5.0,0.0
9461,79.0,0,53,1.0,0.0
9462,81.0,0,53,0.0,0.0
9463,72.0,6,53,10.0,0.0
9464,72.0,0,53,4.0,0.0
9465,69.0,0,53,11.0,0.0
9466,67.0,0,173,11.0,0.0
9467,50.0,54,179,14.0,0.0
9468,50.0,0,179,3.0,0.0
9469,71.0,6,173,4.0,0.0
9470,62.0,0,173,12.0,0.0
9471,74.0,0,173,2.0,0.0
9472,71.0,0,173,5.0,0.0
9473,79.0,0,173,1.0,0.0
9474,50.0,0,173,13.0,0.0
9475,83.0,0,173,0.0,0.0
9476,71.0,0,173,10.0,0.0
9477,74.0,0,53,2.0,0.0
9478,50.0,0,59,3.0,0.0
9479,62.0,0,53,12.0,0.0
9480,69.0,0,53,4.0,0.0
9481,38.0,174,59,14.0,0.0
9482,84.0,0,53,0.0,0.0
9483,66.0,0,53,11.0,0.0
9484,38.0,0,53,13.0,0.0
9485,79.0,6,53,1.0,0.0
9486,69.0,0,53,10.0,0.0
9487,69.0,0,53,5.0,0.0
9488,71.0,6,227,10.0,0.0
9489,43.0,6,467,13.0,0.0
9490,71.0,0,227,4.0,0.0
9491,67.0,54,173,11.0,0.0
9492,71.0,0,227,5.0,0.0
9493,74.0,0,239,2.0,0.0
9494,83.0,0,239,0.0,0.0
9495,62.0,66,347,12.0,0.0
9496,79.0,0,239,1.0,0.0
9497,43.0,174,479,14.0,0.0
9498,50.0,108,239,3.0,0.0
9499,71.0,6,53,11.0,0.0
9500,67.0,0,227,10.0,0.0
9501,67.0,0,227,4.0,0.0
9502,67.0,0,227,5.0,0.0
9503,71.0,54,173,11.0,0.0
9504,62.0,0,107,12.0,0.0
9505,67.0,6,53,11.0,0.0
9506,71.0,0,347,5.0,0.0
9507,67.0,60,173,12.0,0.0
9508,71.0,0,347,4.0,0.0
9509,55.0,0,467,13.0,0.0
9510,62.0,66,347,11.0,0.0
9511,71.0,0,347,10.0,0.0
9512,55.0,174,479,14.0,0.0
9513,71.0,114,53,12.0,0.0
9514,71.0,54,173,12.0,0.0
9515,73.0,0,107,4.0,0.0
9516,73.0,6,107,10.0,0.0
9517,64.0,0,107,11.0,0.0
9518,73.0,0,107,5.0,0.0
9519,67.0,6,53,12.0,0.0
9520,57.0,60,173,11.0,0.0
9521,74.0,0,293,4.0,0.0
9522,74.0,54,293,10.0,0.0
9523,54.0,6,533,13.0,0.0
9524,69.0,6,347,12.0,0.0
9525,54.0,0,539,14.0,0.0
9526,74.0,0,293,5.0,0.0
9527,62.0,60,53,11.0,0.0
9528,66.0,0,173,11.0,0.0
9529,73.0,0,53,4.0,0.0
9530,73.0,60,53,5.0,0.0
9531,73.0,0,53,10.0,0.0
9532,74.0,0,53,10.0,0.0
9533,74.0,0,53,5.0,0.0
9534,74.0,54,53,4.0,0.0
9535,67.0,6,107,12.0,0.0
9536,76.0,21,53,10.0,0.0
9537,67.0,0,53,11.0,0.0
9538,76.0,0,53,4.0,0.0
9539,76.0,0,53,5.0,0.0
9540,66.0,6,173,12.0,0.0
9541,75.0,0,14,10.0,0.0
9542,69.0,0,173,11.0,0.0
9543,75.0,0,14,5.0,0.0
9544,75.0,15,14,4.0,0.0
9545,76.0,0,14,5.0,0.0
9546,76.0,15,14,10.0,0.0
9547,76.0,0,14,4.0,0.0
9548,75.0,0,14,4.0,0.0
9549,75.0,9,14,10.0,0.0
9550,75.0,0,14,5.0,0.0
9551,76.0,0,14,4.0,0.0
9552,76.0,0,14,10.0,0.0
9553,76.0,15,14,5.0,0.0
9554,75.0,0,14,5.0,0.0
9555,75.0,0,14,10.0,0.0
9556,75.0,15,14,4.0,0.0
9557,55.0,0,59,14.0,0.0
9558,55.0,6,53,13.0,0.0
9559,76.0,0,14,5.0,0.0
9560,76.0,0,14,10.0,0.0
9561,76.0,15,14,4.0,0.0
9562,75.0,0,14,10.0,0.0
9563,75.0,0,14,5.0,0.0
9564,75.0,9,14,4.0,0.0
9565,76.0,15,14,4.0,0.0
9566,76.0,0,14,5.0,0.0
9567,76.0,0,14,10.0,0.0
9568,57.0,0,53,13.0,0.0
9569,75.0,0,14,5.0,0.0
9570,57.0,0,59,14.0,0.0
9571,75.0,0,14,10.0,0.0
9572,75.0,15,14,4.0,0.0
9573,76.0,0,14,5.0,0.0
9574,76.0,15,14,4.0,0.0
9575,76.0,0,14,10.0,0.0
9576,75.0,0,14,5.0,0.0
9577,75.0,9,14,4.0,0.0
9578,75.0,0,14,10.0,0.0
9579,76.0,0,14,10.0,0.0
9580,76.0,0,14,5.0,0.0
9581,76.0,15,14,4.0,0.0
9582,72.0,6,53,11.0,0.0
9583,59.0,0,53,13.0,0.0
9584,75.0,0,14,4.0,0.0
9585,59.0,0,59,14.0,0.0
9586,75.0,15,14,10.0,0.0
9587,64.0,0,53,12.0,0.0
9588,75.0,0,14,5.0,0.0
9589,76.0,0,14,4.0,0.0
9590,76.0,15,14,5.0,0.0
9591,76.0,0,14,10.0,0.0
9592,75.0,9,14,10.0,0.0
9593,75.0,0,14,5.0,0.0
9594,75.0,0,14,4.0,0.0
9595,76.0,0,14,5.0,0.0
9596,76.0,15,14,10.0,0.0
9597,76.0,0,14,4.0,0.0
9598,66.0,6,173,12.0,0.0
9599,57.0,0,59,14.0,0.0
9600,75.0,0,14,5.0,0.0
9601,57.0,6,53,13.0,0.0
9602,72.0,0,173,11.0,0.0
9603,75.0,0,14,10.0,0.0
9604,75.0,15,14,4.0,0.0
9605,76.0,0,14,10.0,0.0
9606,76.0,15,14,5.0,0.0
9607,76.0,0,14,4.0,0.0
9608,75.0,0,14,4.0,0.0
9609,75.0,9,14,10.0,0.0
9610,75.0,0,14,5.0,0.0
9611,76.0,0,14,10.0,0.0
9612,76.0,15,14,5.0,0.0
9613,76.0,0,14,4.0,0.0
9614,55.0,6,53,13.0,0.0
9615,75.0,0,14,10.0,0.0
9616,75.0,0,14,5.0,0.0
9617,75.0,15,14,4.0,0.0
9618,55.0,0,59,14.0,0.0
9619,76.0,0,14,10.0,0.0
9620,76.0,15,14,4.0,0.0
9621,76.0,0,14,5.0,0.0
9622,73.0,0,14,10.0,0.0
9623,73.0,0,14,5.0,0.0
9624,73.0,9,14,4.0,0.0
9625,75.0,0,14,5.0,0.0
9626,75.0,54,14,10.0,0.0
9627,75.0,0,14,4.0,0.0
9628,54.0,0,53,13.0,0.0
9629,76.0,0,107,4.0,0.0
9630,76.0,6,107,10.0,0.0
9631,54.0,48,59,14.0,0.0
9632,76.0,0,107,5.0,0.0
9633,71.0,0,53,11.0,0.0
9634,67.0,0,53,12.0,0.0
9635,52.0,174,59,14.0,0.0
9636,52.0,6,53,13.0,0.0
9637,71.0,60,173,11.0,0.0
9638,51.0,0,653,13.0,0.0
9639,66.0,0,173,12.0,0.0
9640,78.0,60,293,10.0,0.0
9641,78.0,0,293,4.0,0.0
9642,78.0,0,293,5.0,0.0
9643,51.0,54,659,14.0,0.0
9644,69.0,60,53,12.0,0.0
9645,66.0,0,53,11.0,0.0
9646,69.0,60,173,12.0,0.0
9647,63.0,0,173,11.0,0.0
9648,81.0,60,53,4.0,0.0
9649,81.0,0,53,5.0,0.0
9650,81.0,0,53,10.0,0.0
9651,79.0,0,53,5.0,0.0
9652,79.0,0,53,4.0,0.0
9653,79.0,0,53,10.0,0.0
9654,78.0,180,53,5.0,0.0
9655,72.0,0,53,12.0,0.0
9656,78.0,0,53,4.0,0.0
9657,69.0,0,53,11.0,0.0
9658,78.0,0,53,10.0,0.0
9659,66.0,0,173,12.0,0.0
9660,59.0,0,173,11.0,0.0
9661,83.0,0,173,5.0,0.0
9662,83.0,0,173,4.0,0.0
9663,83.0,6,173,10.0,0.0
9664,81.0,0,53,10.0,0.0
9665,59.0,0,53,12.0,0.0
9666,47.0,174,59,14.0,0.0
9667,81.0,0,53,5.0,0.0
9668,75.0,6,53,11.0,0.0
9669,81.0,0,53,4.0,0.0
9670,47.0,0,53,13.0,0.0
9671,76.0,6,173,11.0,0.0
9672,64.0,0,173,12.0,0.0
9673,79.0,0,173,5.0,0.0
9674,79.0,0,173,4.0,0.0
9675,79.0,0,173,10.0,0.0
9676,49.0,0,173,13.0,0.0
9677,49.0,54,179,14.0,0.0
9678,51.0,174,59,14.0,0.0
9679,78.0,0,53,10.0,0.0
9680,78.0,0,53,5.0,0.0
9681,78.0,0,53,11.0,0.0
9682,71.0,6,53,12.0,0.0
9683,78.0,0,53,4.0,0.0
9684,51.0,0,53,13.0,0.0
9685,52.0,54,179,14.0,0.0
9686,79.0,0,173,5.0,0.0
9687,79.0,0,173,10.0,0.0
9688,79.0,0,173,4.0,0.0
9689,52.0,0,173,13.0,0.0
9690,71.0,6,173,12.0,0.0
9691,76.0,0,173,11.0,0.0
9692,78.0,0,53,5.0,0.0
9693,69.0,6,53,12.0,0.0
9694,75.0,0,53,11.0,0.0
9695,78.0,0,53,10.0,0.0
9696,78.0,0,53,4.0,0.0
9697,54.0,0,53,13.0,0.0
9698,54.0,174,59,14.0,0.0
9699,55.0,0,173,13.0,0.0
9700,76.0,6,173,5.0,0.0
9701,76.0,0,173,11.0,0.0
9702,55.0,54,179,14.0,0.0
9703,71.0,0,173,12.0,0.0
9704,76.0,0,173,10.0,0.0
9705,76.0,0,173,4.0,0.0
9706,57.0,0,53,13.0,0.0
9707,78.0,6,53,4.0,0.0
9708,78.0,0,53,11.0,0.0
9709,78.0,0,53,10.0,0.0
9710,72.0,0,53,12.0,0.0
9711,57.0,15,59,14.0,0.0
9712,78.0,0,53,5.0,0.0
9713,71.0,12,347,12.0,0.0
9714,78.0,0,14,5.0,0.0
9715,78.0,15,14,4.0,0.0
9716,59.0,0,179,14.0,0.0
9717,59.0,6,173,13.0,0.0
9718,75.0,0,347,11.0,0.0
9719,78.0,0,14,10.0,0.0
9720,79.0,0,14,10.0,0.0
9721,79.0,0,14,5.0,0.0
9722,79.0,15,14,4.0,0.0
9723,78.0,0,14,10.0,0.0
9724,78.0,0,14,5.0,0.0
9725,78.0,15,14,4.0,0.0
9726,79.0,0,14,5.0,0.0
9727,79.0,0,14,10.0,0.0
9728,79.0,15,14,4.0,0.0
9729,78.0,0,14,5.0,0.0
9730,78.0,15,14,4.0,0.0
9731,78.0,0,14,10.0,0.0
9732,79.0,0,14,10.0,0.0
9733,79.0,0,14,4.0,0.0
9734,79.0,15,14,5.0,0.0
9735,78.0,0,14,10.0,0.0
9736,78.0,0,14,5.0,0.0
9737,78.0,15,14,4.0,0.0
9738,79.0,0,14,10.0,0.0
9739,79.0,0,14,4.0,0.0
9740,79.0,15,14,5.0,0.0
9741,78.0,0,14,4.0,0.0
9742,78.0,0,14,5.0,0.0
9743,78.0,15,14,10.0,0.0
9744,79.0,0,14,4.0,0.0
9745,79.0,0,14,5.0,0.0
9746,79.0,15,14,10.0,0.0
9747,78.0,0,14,10.0,0.0
9748,78.0,9,14,4.0,0.0
9749,78.0,0,14,5.0,0.0
9750,79.0,0,14,5.0,0.0
9751,79.0,0,14,10.0,0.0
9752,79.0,15,14,4.0,0.0
9753,57.0,15,29,14.0,0.0
9754,78.0,0,14,5.0,0.0
9755,78.0,0,14,10.0,0.0
9756,57.0,4,25,13.0,0.0
9757,78.0,11,14,4.0,0.0
9758,79.0,0,14,4.0,0.0
9759,79.0,0,14,5.0,0.0
9760,79.0,0,14,10.0,0.0
9761,78.0,0,14,5.0,0.0
9762,56.0,0,29,14.0,0.0
9763,78.0,11,14,10.0,0.0
9764,56.0,4,25,13.0,0.0
9765,78.0,0,14,4.0,0.0
9766,79.0,0,14,4.0,0.0
9767,79.0,15,14,5.0,0.0
9768,79.0,0,14,10.0,0.0
9769,57.0,48,179,14.0,0.0
9770,78.0,15,14,5.0,0.0
9771,78.0,0,14,4.0,0.0
9772,78.0,0,14,10.0,0.0
9773,57.0,6,173,13.0,0.0
9774,79.0,0,14,4.0,0.0
9775,79.0,0,14,5.0,0.0
9776,79.0,15,14,10.0,0.0
9777,78.0,15,14,4.0,0.0
9778,78.0,0,14,5.0,0.0
9779,78.0,0,14,10.0,0.0
9780,79.0,0,14,5.0,0.0
9781,79.0,15,14,10.0,0.0
9782,79.0,0,14,4.0,0.0
9783,78.0,0,14,10.0,0.0
9784,78.0,15,14,4.0,0.0
9785,78.0,0,14,5.0,0.0
9786,79.0,0,14,10.0,0.0
9787,79.0,0,14,4.0,0.0
9788,79.0,15,14,5.0,0.0
9789,76.0,0,14,10.0,0.0
9790,76.0,0,14,5.0,0.0
9791,76.0,3,14,4.0,0.0
9792,78.0,54,14,10.0,0.0
9793,78.0,0,14,5.0,0.0
9794,78.0,0,14,4.0,0.0
9795,76.0,0,107,4.0,0.0
9796,76.0,6,107,5.0,0.0
9797,76.0,0,107,11.0,0.0
9798,76.0,0,107,10.0,0.0
9799,71.0,0,107,12.0,0.0
9800,59.0,174,59,14.0,0.0
9801,59.0,6,53,13.0,0.0
9802,56.0,54,539,14.0,0.0
9803,76.0,0,293,10.0,0.0
9804,76.0,60,173,11.0,0.0
9805,76.0,60,293,5.0,0.0
9806,76.0,0,293,4.0,0.0
9807,71.0,54,479,12.0,0.0
9808,56.0,6,533,13.0,0.0
9809,64.0,60,53,11.0,0.0
9810,64.0,0,173,11.0,0.0
9811,76.0,60,53,10.0,0.0
9812,76.0,0,53,5.0,0.0
9813,76.0,0,53,4.0,0.0
9814,74.0,60,53,10.0,0.0
9815,74.0,0,53,4.0,0.0
9816,74.0,0,53,5.0,0.0
9817,73.0,0,53,4.0,0.0
9818,73.0,6,53,10.0,0.0
9819,73.0,0,53,5.0,0.0
9820,68.0,0,53,11.0,0.0
9821,74.0,0,173,4.0,0.0
9822,74.0,0,173,10.0,0.0
9823,71.0,6,347,11.0,0.0
9824,74.0,0,173,5.0,0.0
9825,54.0,54,59,14.0,0.0
9826,54.0,6,53,13.0,0.0
9827,52.0,54,59,14.0,0.0
9828,52.0,6,53,13.0,0.0
9829,83.0,0,53,5.0,0.0
9830,83.0,6,53,4.0,0.0
9831,54.0,0,53,13.0,0.0
9832,64.0,0,53,12.0,0.0
9833,83.0,0,53,10.0,0.0
9834,54.0,54,59,14.0,0.0
9835,76.0,6,173,5.0,0.0
9836,76.0,0,173,4.0,0.0
9837,64.0,0,173,12.0,0.0
9838,76.0,0,173,10.0,0.0
9839,56.0,48,59,14.0,0.0
9840,56.0,6,53,13.0,0.0
9841,54.0,54,59,14.0,0.0
9842,54.0,6,53,13.0,0.0
9843,56.0,0,53,13.0,0.0
9844,56.0,48,59,14.0,0.0
9845,71.0,6,107,11.0,0.0
9846,74.0,6,53,4.0,0.0
9847,68.0,0,53,12.0,0.0
9848,74.0,0,53,10.0,0.0
9849,52.0,0,53,13.0,0.0
9850,52.0,174,59,14.0,0.0
9851,74.0,0,53,5.0,0.0
9852,73.0,0,173,10.0,0.0
9853,69.0,0,173,11.0,0.0
9854,73.0,0,173,5.0,0.0
9855,73.0,60,173,4.0,0.0
9856,57.0,54,539,14.0,0.0
9857,57.0,6,533,13.0,0.0
9858,64.0,0,173,12.0,0.0
9859,61.0,0,53,11.0,0.0
9860,69.0,0,53,12.0,0.0
9861,69.0,0,53,10.0,0.0
9862,69.0,180,53,5.0,0.0
9863,69.0,0,53,4.0,0.0
9864,64.0,60,173,11.0,0.0
9865,73.0,0,173,10.0,0.0
9866,73.0,0,173,5.0,0.0
9867,69.0,0,173,12.0,0.0
9868,73.0,0,173,4.0,0.0
9869,67.0,0,53,12.0,0.0
9870,69.0,0,53,11.0,0.0
9871,76.0,0,53,10.0,0.0
9872,76.0,0,53,4.0,0.0
9873,76.0,60,53,5.0,0.0
9874,81.0,0,347,4.0,0.0
9875,66.0,0,173,12.0,0.0
9876,81.0,0,347,10.0,0.0
9877,81.0,6,347,5.0,0.0
9878,74.0,0,347,11.0,0.0
9879,55.0,54,59,14.0,0.0
9880,55.0,6,53,13.0,0.0
9881,54.0,6,53,13.0,0.0
9882,54.0,54,59,14.0,0.0
9883,55.0,54,59,14.0,0.0
9884,66.0,0,53,12.0,0.0
9885,55.0,6,53,13.0,0.0
9886,57.0,48,59,14.0,0.0
9887,66.0,0,173,12.0,0.0
9888,57.0,6,53,13.0,0.0
9889,55.0,6,53,13.0,0.0
9890,55.0,54,59,14.0,0.0
9891,81.0,0,107,10.0,0.0
9892,69.0,6,107,11.0,0.0
9893,57.0,6,53,13.0,0.0
9894,81.0,0,107,5.0,0.0
9895,81.0,0,107,4.0,0.0
9896,57.0,48,59,14.0,0.0
9897,64.0,0,53,12.0,0.0
9898,54.0,6,53,13.0,0.0
9899,54.0,174,59,14.0,0.0
9900,59.0,54,539,14.0,0.0
9901,62.0,0,173,12.0,0.0
9902,81.0,0,325,4.0,0.0
9903,59.0,6,533,13.0,0.0
9904,81.0,30,325,5.0,0.0
9905,81.0,0,325,10.0,0.0
9906,66.0,60,173,11.0,0.0
9907,59.0,0,53,12.0,0.0
9908,74.0,92,53,11.0,0.0
9909,74.0,0,173,11.0,0.0
9910,66.0,2,173,12.0,0.0
9911,71.0,30,25,5.0,0.0
9912,71.0,0,25,10.0,0.0
9913,71.0,0,25,4.0,0.0
9914,73.0,28,25,5.0,0.0
9915,73.0,0,25,10.0,0.0
9916,73.0,0,25,4.0,0.0
9917,74.0,30,25,10.0,0.0
9918,74.0,0,25,4.0,0.0
9919,74.0,0,25,5.0,0.0
9920,76.0,0,25,5.0,0.0
9921,73.0,2,53,11.0,0.0
9922,76.0,0,25,4.0,0.0
9923,76.0,28,25,10.0,0.0
9924,62.0,0,53,12.0,0.0
9925,78.0,0,25,4.0,0.0
9926,78.0,0,25,10.0,0.0
9927,78.0,58,25,5.0,0.0
9928,79.0,0,347,4.0,0.0
9929,79.0,6,347,10.0,0.0
9930,79.0,0,347,5.0,0.0
9931,62.0,6,173,12.0,0.0
9932,71.0,0,347,11.0,0.0
9933,60.0,54,59,14.0,0.0
9934,60.0,6,53,13.0,0.0
9935,59.0,0,53,13.0,0.0
9936,59.0,54,59,14.0,0.0
9937,57.0,54,59,14.0,0.0
9938,59.0,6,53,12.0,0.0
9939,57.0,0,53,13.0,0.0
9940,55.0,48,59,14.0,0.0
9941,64.0,6,173,12.0,0.0
9942,55.0,6,53,13.0,0.0
9943,54.0,6,53,13.0,0.0
9944,54.0,54,59,14.0,0.0
9945,79.0,0,107,10.0,0.0
9946,79.0,0,107,5.0,0.0
9947,71.0,0,107,11.0,0.0
9948,52.0,48,59,14.0,0.0
9949,79.0,6,107,4.0,0.0
9950,52.0,0,53,13.0,0.0
9951,50.0,174,59,14.0,0.0
9952,64.0,0,53,12.0,0.0
9953,50.0,6,53,13.0,0.0
9954,64.0,0,173,12.0,0.0
9955,79.0,0,325,5.0,0.0
9956,49.0,6,533,13.0,0.0
9957,49.0,54,539,14.0,0.0
9958,79.0,30,325,4.0,0.0
9959,79.0,0,325,10.0,0.0
9960,69.0,60,173,11.0,0.0
9961,69.0,0,53,12.0,0.0
9962,73.0,92,53,11.0,0.0
9963,69.0,2,173,12.0,0.0
9964,73.0,0,173,11.0,0.0
9965,78.0,0,25,5.0,0.0
9966,78.0,0,25,10.0,0.0
9967,78.0,30,25,4.0,0.0
9968,76.0,0,25,5.0,0.0
9969,76.0,28,25,10.0,0.0
9970,76.0,0,25,4.0,0.0
9971,74.0,0,25,5.0,0.0
9972,74.0,30,25,4.0,0.0
9973,74.0,0,25,10.0,0.0
9974,73.0,0,25,10.0,0.0
9975,64.0,0,53,12.0,0.0
9976,76.0,2,53,11.0,0.0
9977,73.0,0,25,4.0,0.0
9978,73.0,28,25,5.0,0.0
9979,71.0,58,25,4.0,0.0
9980,71.0,0,25,5.0,0.0
9981,71.0,0,25,10.0,0.0
9982,69.0,0,173,10.0,0.0
9983,69.0,0,173,5.0,0.0
9984,76.0,0,173,11.0,0.0
9985,69.0,6,173,4.0,0.0
9986,69.0,6,347,12.0,0.0
9987,50.0,54,59,14.0,0.0
9988,50.0,6,53,13.0,0.0
9989,49.0,26,59,14.0,0.0
9990,49.0,0,53,13.0,0.0
9991,47.0,54,59,14.0,0.0
9992,67.0,0,25,4.0,0.0
9993,67.0,0,25,10.0,0.0
9994,47.0,0,53,13.0,0.0
9995,74.0,2,53,11.0,0.0
9996,67.0,28,25,5.0,0.0
9997,66.0,0,25,5.0,0.0
9998,66.0,4,25,4.0,0.0
9999,66.0,0,25,10.0,0.0
10000,45.0,6,53,13.0,0.0
10001,67.0,0,173,10.0,0.0
10002,67.0,6,173,4.0,0.0
10003,76.0,0,173,11.0,0.0
10004,45.0,48,59,14.0,0.0
10005,67.0,0,173,5.0,0.0
10006,47.0,54,59,14.0,0.0
10007,47.0,6,53,13.0,0.0
10008,49.0,48,59,14.0,0.0
10009,49.0,0,53,13.0,0.0
10010,69.0,6,107,12.0,0.0
10011,76.0,0,53,10.0,0.0
10012,45.0,15,59,14.0,0.0
10013,76.0,0,53,4.0,0.0
10014,76.0,6,53,5.0,0.0
10015,73.0,0,53,11.0,0.0
10016,45.0,0,53,13.0,0.0
10017,66.0,0,293,4.0,0.0
10018,66.0,6,293,5.0,0.0
10019,50.0,15,14,3.0,0.0
10020,69.0,6,173,12.0,0.0
10021,74.0,0,173,11.0,0.0
10022,66.0,0,293,10.0,0.0
10023,50.0,0,539,14.0,0.0
10024,50.0,6,533,13.0,0.0
10025,50.0,15,14,3.0,0.0
10026,50.0,15,14,3.0,0.0
10027,50.0,15,14,3.0,0.0
10028,50.0,15,14,3.0,0.0
10029,50.0,15,14,3.0,0.0
10030,50.0,15,14,3.0,0.0
10031,50.0,15,14,3.0,0.0
10032,50.0,15,14,3.0,0.0
10033,50.0,15,14,3.0,0.0
10034,50.0,9,14,3.0,0.0
10035,50.0,15,14,3.0,0.0
10036,66.0,0,53,12.0,0.0
10037,50.0,15,14,3.0,0.0
10038,69.0,6,53,11.0,0.0
10039,66.0,0,53,2.0,0.0
10040,69.0,0,53,1.0,0.0
10041,74.0,0,53,0.0,0.0
10042,50.0,15,14,3.0,0.0
10043,50.0,9,14,3.0,0.0
10044,50.0,15,14,3.0,0.0
10045,69.0,6,173,1.0,0.0
10046,69.0,0,173,11.0,0.0
10047,74.0,0,173,0.0,0.0
10048,66.0,0,173,2.0,0.0
10049,50.0,15,14,3.0,0.0
10050,66.0,0,173,12.0,0.0
10051,50.0,15,14,3.0,0.0
10052,50.0,9,14,3.0,0.0
10053,50.0,15,14,3.0,0.0
10054,50.0,15,14,3.0,0.0
10055,67.0,6,53,4.0,0.0
10056,67.0,0,53,5.0,0.0
10057,67.0,0,53,10.0,0.0
10058,50.0,15,14,3.0,0.0
10059,50.0,9,14,3.0,0.0
10060,50.0,15,14,3.0,0.0
10061,69.0,0,53,5.0,0.0
10062,69.0,0,53,10.0,0.0
10063,50.0,15,14,3.0,0.0
10064,69.0,0,53,4.0,0.0
10065,50.0,15,14,3.0,0.0
10066,50.0,9,14,3.0,0.0
10067,50.0,15,14,3.0,0.0
10068,69.0,0,53,2.0,0.0
10069,50.0,15,14,3.0,0.0
10070,71.0,0,53,10.0,0.0
10071,62.0,6,53,12.0,0.0
10072,78.0,0,53,0.0,0.0
10073,74.0,0,53,1.0,0.0
10074,71.0,0,53,5.0,0.0
10075,66.0,0,53,11.0,0.0
10076,71.0,0,53,4.0,0.0
10077,50.0,15,14,3.0,0.0
10078,50.0,9,14,3.0,0.0
10079,50.0,15,14,3.0,0.0
10080,69.0,0,173,2.0,0.0
10081,74.0,0,173,1.0,0.0
10082,50.0,15,14,3.0,0.0
10083,57.0,0,173,12.0,0.0
10084,78.0,0,173,0.0,0.0
10085,72.0,6,347,5.0,0.0
10086,72.0,0,347,4.0,0.0
10087,66.0,6,173,11.0,0.0
10088,72.0,0,347,10.0,0.0
10089,50.0,15,14,3.0,0.0
10090,50.0,9,14,3.0,0.0
10091,50.0,15,14,3.0,0.0
10092,52.0,6,53,13.0,0.0
10093,50.0,15,14,3.0,0.0
10094,52.0,0,59,14.0,0.0
10095,50.0,15,14,3.0,0.0
10096,50.0,9,14,3.0,0.0
10097,50.0,15,14,3.0,0.0
10098,50.0,15,14,3.0,0.0
10099,50.0,0,53,13.0,0.0
10100,50.0,15,59,14.0,0.0
10101,50.0,15,14,3.0,0.0
10102,50.0,9,14,3.0,0.0
10103,50.0,0,14,3.0,0.0
10104,50.0,15,14,3.0,0.0
10105,62.0,0,53,12.0,0.0
10106,48.0,15,59,14.0,0.0
10107,78.0,0,53,1.0,0.0
10108,48.0,0,53,13.0,0.0
10109,74.0,0,53,2.0,0.0
10110,62.0,6,53,11.0,0.0
10111,81.0,0,53,0.0,0.0
10112,50.0,15,14,3.0,0.0
10113,50.0,9,14,3.0,0.0
10114,50.0,0,14,3.0,0.0
10115,74.0,6,173,2.0,0.0
10116,62.0,6,413,11.0,0.0
10117,47.0,0,59,14.0,0.0
10118,47.0,6,53,13.0,0.0
10119,66.0,0,173,12.0,0.0
10120,81.0,0,173,0.0,0.0
10121,50.0,15,14,3.0,0.0
10122,78.0,0,173,1.0,0.0
10123,50.0,15,14,3.0,0.0
10124,50.0,9,14,3.0,0.0
10125,50.0,15,14,3.0,0.0
10126,45.0,6,53,13.0,0.0
10127,45.0,15,59,14.0,0.0
10128,50.0,15,14,3.0,0.0
10129,50.0,15,14,3.0,0.0
10130,50.0,3,14,3.0,0.0
10131,50.0,0,14,3.0,0.0
10132,74.0,6,107,5.0,0.0
10133,43.0,0,53,13.0,0.0
10134,74.0,0,107,10.0,0.0
10135,50.0,15,14,3.0,0.0
10136,43.0,0,59,14.0,0.0
10137,74.0,0,107,4.0,0.0
10138,50.0,15,14,3.0,0.0
10139,50.0,9,14,3.0,0.0
10140,50.0,15,14,3.0,0.0
10141,83.0,0,53,0.0,0.0
10142,69.0,0,53,12.0,0.0
10143,42.0,6,53,13.0,0.0
10144,42.0,120,59,14.0,0.0
10145,79.0,0,53,1.0,0.0
10146,74.0,0,53,2.0,0.0
10147,50.0,15,14,3.0,0.0
10148,50.0,15,14,3.0,0.0
10149,50.0,3,14,3.0,0.0
10150,50.0,0,14,3.0,0.0
10151,79.0,54,119,1.0,0.0
10152,67.0,0,173,12.0,0.0
10153,83.0,0,119,0.0,0.0
10154,50.0,20,179,3.0,0.0
10155,71.0,0,293,4.0,0.0
10156,43.0,0,959,13.0,0.0
10157,74.0,0,119,2.0,0.0
10158,43.0,15,959,14.0,0.0
10159,71.0,60,293,10.0,0.0
10160,71.0,0,293,5.0,0.0
10161,50.0,20,19,3.0,0.0
10162,66.0,6,53,11.0,0.0
10163,62.0,0,53,12.0,0.0
10164,50.0,14,19,3.0,0.0
10165,50.0,54,19,3.0,0.0
10166,64.0,6,173,12.0,0.0
10167,67.0,0,173,11.0,0.0
10168,50.0,54,179,3.0,0.0
10169,69.0,0,53,5.0,0.0
10170,69.0,0,53,4.0,0.0
10171,69.0,60,53,10.0,0.0
10172,67.0,0,53,4.0,0.0
10173,67.0,0,53,10.0,0.0
10174,67.0,0,53,5.0,0.0
10175,66.0,0,53,12.0,0.0
10176,66.0,0,53,10.0,0.0
10177,50.0,54,59,3.0,0.0
10178,69.0,0,53,11.0,0.0
10179,66.0,0,53,4.0,0.0
10180,66.0,6,53,5.0,0.0
10181,50.0,0,119,3.0,0.0
10182,76.0,54,119,2.0,0.0
10183,79.0,0,119,0.0,0.0
10184,67.0,0,173,12.0,0.0
10185,64.0,0,53,5.0,0.0
10186,71.0,60,173,11.0,0.0
10187,83.0,0,119,1.0,0.0
10188,64.0,60,53,10.0,0.0
10189,64.0,0,53,4.0,0.0
10190,66.0,0,53,4.0,0.0
10191,66.0,0,53,10.0,0.0
10192,66.0,6,53,5.0,0.0
10193,67.0,0,53,10.0,0.0
10194,67.0,0,53,4.0,0.0
10195,67.0,0,53,5.0,0.0
10196,64.0,60,53,12.0,0.0
10197,69.0,0,53,5.0,0.0
10198,69.0,0,53,4.0,0.0
10199,69.0,0,53,10.0,0.0
10200,73.0,0,53,11.0,0.0
10201,66.0,0,173,12.0,0.0
10202,71.0,0,53,5.0,0.0
10203,71.0,60,53,4.0,0.0
10204,71.0,0,53,10.0,0.0
10205,74.0,60,173,11.0,0.0
10206,73.0,0,53,10.0,0.0
10207,73.0,0,53,5.0,0.0
10208,73.0,60,53,4.0,0.0
10209,74.0,0,53,5.0,0.0
10210,74.0,0,53,10.0,0.0
10211,74.0,0,53,4.0,0.0
10212,67.0,6,53,12.0,0.0
10213,71.0,0,53,10.0,0.0
10214,71.0,0,53,5.0,0.0
10215,71.0,0,53,4.0,0.0
10216,76.0,0,53,11.0,0.0
10217,69.0,6,173,11.0,0.0
10218,64.0,0,173,12.0,0.0
10219,45.0,15,14,3.0,0.0
10220,43.0,0,293,13.0,0.0
10221,73.0,0,53,5.0,0.0
10222,73.0,0,53,4.0,0.0
10223,43.0,0,299,14.0,0.0
10224,73.0,6,53,10.0,0.0
10225,45.0,15,14,3.0,0.0
10226,45.0,9,14,3.0,0.0
10227,45.0,15,14,3.0,0.0
10228,45.0,15,14,3.0,0.0
10229,74.0,6,53,4.0,0.0
10230,74.0,0,53,10.0,0.0
10231,74.0,0,53,5.0,0.0
10232,45.0,15,14,3.0,0.0
10233,45.0,9,14,3.0,0.0
10234,45.0,15,14,3.0,0.0
10235,45.0,15,14,3.0,0.0
10236,73.0,0,53,4.0,0.0
10237,73.0,0,53,10.0,0.0
10238,73.0,0,53,5.0,0.0
10239,45.0,15,14,3.0,0.0
10240,45.0,9,14,3.0,0.0
10241,45.0,15,14,3.0,0.0
10242,71.0,0,53,5.0,0.0
10243,45.0,15,14,3.0,0.0
10244,69.0,0,53,1.0,0.0
10245,71.0,6,53,10.0,0.0
10246,76.0,0,53,0.0,0.0
10247,71.0,0,53,4.0,0.0
10248,69.0,0,53,12.0,0.0
10249,64.0,0,53,11.0,0.0
10250,69.0,0,53,2.0,0.0
10251,45.0,15,14,3.0,0.0
10252,45.0,9,14,3.0,0.0
10253,45.0,15,14,3.0,0.0
10254,69.0,0,173,1.0,0.0
10255,45.0,15,14,3.0,0.0
10256,61.0,0,173,11.0,0.0
10257,69.0,0,173,2.0,0.0
10258,76.0,0,173,0.0,0.0
10259,69.0,0,53,4.0,0.0
10260,69.0,6,53,10.0,0.0
10261,69.0,0,173,12.0,0.0
10262,69.0,0,53,5.0,0.0
10263,45.0,15,14,3.0,0.0
10264,45.0,9,14,3.0,0.0
10265,45.0,15,14,3.0,0.0
10266,45.0,15,14,3.0,0.0
10267,42.0,6,53,13.0,0.0
10268,42.0,0,59,14.0,0.0
10269,71.0,0,53,4.0,0.0
10270,71.0,0,53,10.0,0.0
10271,71.0,0,53,5.0,0.0
10272,45.0,15,14,3.0,0.0
10273,45.0,9,14,3.0,0.0
10274,45.0,15,14,3.0,0.0
10275,73.0,0,53,10.0,0.0
10276,40.0,15,59,14.0,0.0
10277,73.0,0,53,4.0,0.0
10278,45.0,15,14,3.0,0.0
10279,40.0,6,53,13.0,0.0
10280,73.0,0,53,5.0,0.0
10281,45.0,15,14,3.0,0.0
10282,45.0,9,14,3.0,0.0
10283,45.0,0,14,3.0,0.0
10284,74.0,0,53,10.0,0.0
10285,76.0,0,53,1.0,0.0
10286,38.0,0,59,14.0,0.0
10287,57.0,0,53,11.0,0.0
10288,74.0,0,53,5.0,0.0
10289,38.0,0,53,13.0,0.0
10290,64.0,0,53,12.0,0.0
10291,81.0,0,53,0.0,0.0
10292,45.0,15,14,3.0,0.0
10293,69.0,0,53,2.0,0.0
10294,74.0,6,53,4.0,0.0
10295,45.0,15,14,3.0,0.0
10296,45.0,9,14,3.0,0.0
10297,45.0,54,14,3.0,0.0
10298,76.0,0,173,1.0,0.0
10299,69.0,0,173,2.0,0.0
10300,76.0,60,53,4.0,0.0
10301,76.0,0,53,10.0,0.0
10302,37.0,20,179,14.0,0.0
10303,69.0,0,173,11.0,0.0
10304,37.0,0,173,13.0,0.0
10305,76.0,0,53,5.0,0.0
10306,64.0,0,173,12.0,0.0
10307,81.0,0,173,0.0,0.0
10308,45.0,0,179,3.0,0.0
10309,78.0,60,53,5.0,0.0
10310,78.0,0,53,4.0,0.0
10311,78.0,0,53,10.0,0.0
10312,79.0,0,53,4.0,0.0
10313,79.0,6,53,10.0,0.0
10314,79.0,0,53,5.0,0.0
10315,66.0,0,53,11.0,0.0
10316,61.0,0,53,12.0,0.0
10317,45.0,0,59,14.0,0.0
10318,45.0,0,53,13.0,0.0
10319,45.0,20,19,3.0,0.0
10320,81.0,0,53,4.0,0.0
10321,83.0,0,53,0.0,0.0
10322,66.0,6,53,2.0,0.0
10323,81.0,0,53,10.0,0.0
10324,78.0,0,53,1.0,0.0
10325,81.0,0,53,5.0,0.0
10326,45.0,14,19,3.0,0.0
10327,45.0,54,19,3.0,0.0
10328,79.0,6,173,0.0,0.0
10329,78.0,0,173,1.0,0.0
10330,79.0,60,53,4.0,0.0
10331,47.0,0,179,14.0,0.0
10332,62.0,0,173,11.0,0.0
10333,62.0,0,173,12.0,0.0
10334,62.0,0,173,2.0,0.0
10335,50.0,54,179,3.0,0.0
10336,79.0,0,53,5.0,0.0
10337,47.0,0,173,13.0,0.0
10338,79.0,0,53,10.0,0.0
10339,78.0,0,53,5.0,0.0
10340,78.0,0,53,10.0,0.0
10341,78.0,60,53,4.0,0.0
10342,79.0,0,53,4.0,0.0
10343,79.0,0,53,5.0,0.0
10344,79.0,0,53,10.0,0.0
10345,81.0,0,53,0.0,0.0
10346,76.0,6,53,10.0,0.0
10347,49.0,0,53,13.0,0.0
10348,49.0,0,59,14.0,0.0
10349,76.0,0,53,4.0,0.0
10350,69.0,0,53,2.0,0.0
10351,76.0,0,53,5.0,0.0
10352,76.0,0,53,1.0,0.0
10353,69.0,0,53,11.0,0.0
10354,64.0,0,53,12.0,0.0
10355,45.0,174,59,3.0,0.0
10356,50.0,0,173,13.0,0.0
10357,78.0,0,173,0.0,0.0
10358,57.0,0,173,12.0,0.0
10359,78.0,6,173,5.0,0.0
10360,69.0,0,173,2.0,0.0
10361,69.0,0,173,11.0,0.0
10362,78.0,0,173,10.0,0.0
10363,78.0,0,173,4.0,0.0
10364,74.0,0,173,1.0,0.0
10365,50.0,0,179,14.0,0.0
10366,50.0,16,179,3.0,0.0
10367,64.0,0,53,12.0,0.0
10368,76.0,0,15,4.0,0.0
10369,52.0,0,53,13.0,0.0
10370,69.0,0,53,2.0,0.0
10371,52.0,174,59,14.0,0.0
10372,67.0,0,53,11.0,0.0
10373,45.0,0,59,3.0,0.0
10374,69.0,2,53,1.0,0.0
10375,76.0,0,15,10.0,0.0
10376,79.0,0,53,0.0,0.0
10377,76.0,20,15,5.0,0.0
10378,74.0,0,15,5.0,0.0
10379,74.0,0,15,4.0,0.0
10380,74.0,18,15,10.0,0.0
10381,73.0,0,15,5.0,0.0
10382,73.0,0,15,10.0,0.0
10383,73.0,4,15,4.0,0.0
10384,74.0,0,173,5.0,0.0
10385,50.0,54,179,3.0,0.0
10386,62.0,0,173,12.0,0.0
10387,74.0,0,173,1.0,0.0
10388,74.0,0,173,10.0,0.0
10389,74.0,0,173,4.0,0.0
10390,54.0,6,173,13.0,0.0
10391,78.0,0,173,0.0,0.0
10392,69.0,0,173,2.0,0.0
10393,69.0,0,173,11.0,0.0
10394,54.0,0,179,14.0,0.0
10395,71.0,6,53,11.0,0.0
10396,67.0,0,53,12.0,0.0
10397,55.0,120,59,14.0,0.0
10398,69.0,0,53,2.0,0.0
10399,71.0,0,53,4.0,0.0
10400,69.0,0,53,1.0,0.0
10401,71.0,0,53,5.0,0.0
10402,76.0,0,53,0.0,0.0
10403,55.0,0,53,13.0,0.0
10404,50.0,0,59,3.0,0.0
10405,71.0,0,53,10.0,0.0
10406,73.0,0,347,5.0,0.0
10407,69.0,6,173,1.0,0.0
10408,45.0,54,119,3.0,0.0
10409,76.0,0,347,0.0,0.0
10410,57.0,0,239,14.0,0.0
10411,73.0,0,347,4.0,0.0
10412,64.0,0,347,12.0,0.0
10413,69.0,0,347,2.0,0.0
10414,69.0,0,227,11.0,0.0
10415,73.0,66,347,10.0,0.0
10416,57.0,6,227,13.0,0.0
10417,45.0,48,59,3.0,0.0
10418,66.0,6,53,1.0,0.0
10419,45.0,108,59,3.0,0.0
10420,45.0,0,227,13.0,0.0
10421,45.0,48,179,3.0,0.0
10422,69.0,6,173,1.0,0.0
10423,45.0,0,239,14.0,0.0
10424,69.0,0,227,11.0,0.0
10425,69.0,0,107,2.0,0.0
10426,74.0,0,107,0.0,0.0
10427,74.0,0,107,4.0,0.0
10428,66.0,0,107,12.0,0.0
10429,74.0,0,107,5.0,0.0
10430,74.0,6,107,10.0,0.0
10431,69.0,6,53,1.0,0.0
10432,45.0,105,59,3.0,0.0
10433,74.0,63,104,10.0,0.0
10434,50.0,0,239,3.0,0.0
10435,38.0,0,239,14.0,0.0
10436,74.0,0,104,4.0,0.0
10437,69.0,105,239,11.0,0.0
10438,38.0,0,239,13.0,0.0
10439,74.0,0,239,0.0,0.0
10440,66.0,0,239,1.0,0.0
10441,74.0,0,239,5.0,0.0
10442,66.0,0,239,12.0,0.0
10443,69.0,0,239,2.0,0.0
10444,69.0,0,47,4.0,0.0
10445,69.0,60,47,10.0,0.0
10446,71.0,0,47,4.0,0.0
10447,71.0,12,47,10.0,0.0
10448,73.0,63,104,10.0,0.0
10449,73.0,0,104,4.0,0.0
10450,73.0,0,47,4.0,0.0
10451,73.0,60,47,10.0,0.0
10452,74.0,117,47,4.0,0.0
10453,74.0,0,47,10.0,0.0
10454,76.0,0,104,10.0,0.0
10455,76.0,63,104,4.0,0.0
10456,73.0,0,47,4.0,0.0
10457,73.0,60,47,10.0,0.0
10458,74.0,0,47,10.0,0.0
10459,74.0,117,47,4.0,0.0
10460,76.0,63,104,10.0,0.0
10461,76.0,0,104,4.0,0.0
10462,76.0,0,47,4.0,0.0
10463,76.0,60,47,10.0,0.0
10464,78.0,117,47,10.0,0.0
10465,78.0,0,47,4.0,0.0
10466,79.0,63,104,4.0,0.0
10467,79.0,0,104,10.0,0.0
10468,79.0,60,47,4.0,0.0
10469,79.0,0,47,10.0,0.0
10470,78.0,117,47,10.0,0.0
10471,78.0,0,47,4.0,0.0
10472,79.0,63,104,10.0,0.0
10473,79.0,0,104,4.0,0.0
10474,81.0,0,47,4.0,0.0
10475,81.0,60,47,10.0,0.0
10476,79.0,0,47,4.0,0.0
10477,79.0,117,47,10.0,0.0
10478,78.0,63,104,4.0,0.0
10479,78.0,0,104,10.0,0.0
10480,81.0,0,104,10.0,0.0
10481,81.0,3,104,4.0,0.0
10482,62.0,0,47,11.0,0.0
10483,62.0,57,47,5.0,0.0
10484,64.0,117,47,5.0,0.0
10485,64.0,0,47,11.0,0.0
10486,66.0,0,104,11.0,0.0
10487,74.0,0,104,4.0,0.0
10488,74.0,0,104,10.0,0.0
10489,66.0,63,104,5.0,0.0
10490,78.0,0,224,4.0,0.0
10491,66.0,0,47,11.0,0.0
10492,78.0,0,224,10.0,0.0
10493,66.0,60,47,5.0,0.0
10494,67.0,117,47,5.0,0.0
10495,67.0,0,47,11.0,0.0
10496,69.0,0,104,5.0,0.0
10497,69.0,63,104,11.0,0.0
10498,66.0,0,47,5.0,0.0
10499,81.0,3,104,4.0,0.0
10500,66.0,57,47,11.0,0.0
10501,81.0,0,104,10.0,0.0
10502,67.0,0,47,5.0,0.0
10503,67.0,117,47,11.0,0.0
10504,69.0,0,104,11.0,0.0
10505,69.0,0,104,5.0,0.0
10506,72.0,63,104,4.0,0.0
10507,72.0,0,104,10.0,0.0
10508,69.0,60,47,11.0,0.0
10509,78.0,63,224,4.0,0.0
10510,78.0,0,224,10.0,0.0
10511,69.0,0,47,5.0,0.0
10512,71.0,117,47,11.0,0.0
10513,71.0,0,47,5.0,0.0
10514,72.0,0,104,5.0,0.0
10515,72.0,0,104,11.0,0.0
10516,72.0,0,47,11.0,0.0
10517,72.0,57,47,5.0,0.0
10518,81.0,3,104,4.0,0.0
10519,81.0,0,104,10.0,0.0
10520,71.0,0,47,11.0,0.0
10521,71.0,117,47,5.0,0.0
10522,74.0,0,104,4.0,0.0
10523,74.0,0,104,10.0,0.0
10524,72.0,63,104,11.0,0.0
10525,72.0,0,104,5.0,0.0
10526,78.0,0,104,10.0,0.0
10527,74.0,57,47,5.0,0.0
10528,78.0,3,104,4.0,0.0
10529,74.0,0,47,11.0,0.0
10530,72.0,0,47,5.0,0.0
10531,72.0,117,47,11.0,0.0
10532,71.0,0,104,11.0,0.0
10533,71.0,0,104,5.0,0.0
10534,79.0,0,104,10.0,0.0
10535,79.0,63,104,4.0,0.0
10536,67.0,0,47,11.0,0.0
10537,83.0,3,104,10.0,0.0
10538,83.0,0,104,4.0,0.0
10539,67.0,57,47,5.0,0.0
10540,69.0,0,47,5.0,0.0
10541,69.0,117,47,11.0,0.0
10542,71.0,0,104,5.0,0.0
10543,74.0,0,104,4.0,0.0
10544,71.0,0,104,11.0,0.0
10545,74.0,63,104,10.0,0.0
10546,80.0,0,224,4.0,0.0
10547,80.0,0,224,10.0,0.0
10548,71.0,60,47,5.0,0.0
10549,71.0,0,47,11.0,0.0
10550,73.0,0,47,11.0,0.0
10551,73.0,117,47,5.0,0.0
10552,74.0,63,104,5.0,0.0
10553,74.0,0,104,11.0,0.0
10554,83.0,3,104,4.0,0.0
10555,74.0,57,47,11.0,0.0
10556,74.0,0,47,5.0,0.0
10557,83.0,0,104,10.0,0.0
10558,73.0,0,47,11.0,0.0
10559,73.0,117,47,5.0,0.0
10560,76.0,0,104,4.0,0.0
10561,76.0,0,104,10.0,0.0
10562,74.0,0,104,5.0,0.0
10563,74.0,63,104,11.0,0.0
10564,76.0,0,47,5.0,0.0
10565,76.0,57,47,11.0,0.0
10566,80.0,0,104,10.0,0.0
10567,80.0,3,104,4.0,0.0
10568,74.0,0,47,11.0,0.0
10569,74.0,60,47,5.0,0.0
10570,81.0,57,47,4.0,0.0
10571,81.0,0,47,10.0,0.0
10572,73.0,3,104,11.0,0.0
10573,73.0,0,104,5.0,0.0
10574,76.0,60,47,4.0,0.0
10575,76.0,0,47,10.0,0.0
10576,73.0,0,47,10.0,0.0
10577,73.0,0,47,4.0,0.0
10578,57.0,57,47,12.0,0.0
10579,76.0,3,104,11.0,0.0
10580,76.0,0,104,5.0,0.0
10581,74.0,60,47,4.0,0.0
10582,59.0,0,47,12.0,0.0
10583,74.0,0,47,10.0,0.0
10584,76.0,0,47,10.0,0.0
10585,61.0,0,104,12.0,0.0
10586,76.0,57,47,4.0,0.0
10587,69.0,0,104,11.0,0.0
10588,69.0,3,104,5.0,0.0
10589,78.0,0,47,10.0,0.0
10590,78.0,60,47,4.0,0.0
10591,76.0,0,47,10.0,0.0
10592,73.0,0,224,11.0,0.0
10593,76.0,60,47,4.0,0.0
10594,73.0,3,224,5.0,0.0
10595,61.0,0,47,12.0,0.0
10596,62.0,60,47,12.0,0.0
10597,78.0,0,47,10.0,0.0
10598,78.0,0,47,4.0,0.0
10599,64.0,0,104,12.0,0.0
10600,79.0,0,47,10.0,0.0
10601,79.0,57,47,4.0,0.0
10602,76.0,60,47,10.0,0.0
10603,76.0,0,47,4.0,0.0
10604,76.0,3,104,11.0,0.0
10605,76.0,0,104,5.0,0.0
10606,69.0,0,47,4.0,0.0
10607,61.0,57,47,12.0,0.0
10608,69.0,0,47,10.0,0.0
10609,62.0,60,47,12.0,0.0
10610,71.0,0,47,10.0,0.0
10611,71.0,0,47,4.0,0.0
10612,64.0,3,104,12.0,0.0
10613,67.0,0,104,11.0,0.0
10614,73.0,0,47,10.0,0.0
10615,67.0,0,104,5.0,0.0
10616,73.0,57,47,4.0,0.0
10617,74.0,60,47,10.0,0.0
10618,74.0,0,47,4.0,0.0
10619,73.0,60,47,4.0,0.0
10620,73.0,0,47,10.0,0.0
10621,64.0,0,47,12.0,0.0
10622,73.0,3,224,5.0,0.0
10623,73.0,0,224,11.0,0.0
10624,66.0,0,47,12.0,0.0
10625,74.0,60,47,10.0,0.0
10626,74.0,0,47,4.0,0.0
10627,76.0,0,47,10.0,0.0
10628,67.0,0,104,12.0,0.0
10629,76.0,57,47,4.0,0.0
10630,74.0,60,47,10.0,0.0
10631,74.0,0,47,4.0,0.0
10632,73.0,0,47,4.0,0.0
10633,73.0,57,47,10.0,0.0
10634,76.0,3,104,5.0,0.0
10635,67.0,0,47,12.0,0.0
10636,76.0,0,104,11.0,0.0
10637,66.0,0,47,12.0,0.0
10638,74.0,0,47,4.0,0.0
10639,74.0,60,47,10.0,0.0
10640,69.0,0,104,11.0,0.0
10641,69.0,3,104,5.0,0.0
10642,76.0,57,47,4.0,0.0
10643,76.0,0,47,10.0,0.0
10644,67.0,0,104,12.0,0.0
10645,74.0,0,47,10.0,0.0
10646,74.0,60,47,4.0,0.0
10647,73.0,57,47,4.0,0.0
10648,73.0,0,104,11.0,0.0
10649,73.0,0,47,10.0,0.0
10650,69.0,0,47,12.0,0.0
10651,73.0,3,104,5.0,0.0
10652,71.0,0,47,10.0,0.0
10653,71.0,0,47,4.0,0.0
10654,67.0,60,47,12.0,0.0
10655,69.0,0,47,4.0,0.0
10656,69.0,0,47,10.0,0.0
10657,74.0,57,47,5.0,0.0
10658,74.0,0,47,11.0,0.0
10659,66.0,3,104,12.0,0.0
10660,69.0,0,47,11.0,0.0
10661,74.0,0,47,4.0,0.0
10662,74.0,60,47,10.0,0.0
10663,69.0,0,47,5.0,0.0
10664,73.0,0,47,10.0,0.0
10665,69.0,3,104,12.0,0.0
10666,50.0,0,47,13.0,0.0
10667,73.0,0,47,4.0,0.0
10668,66.0,12,47,11.0,0.0
10669,50.0,45,59,14.0,0.0
10670,66.0,0,47,5.0,0.0
10671,52.0,48,59,14.0,0.0
10672,52.0,0,47,13.0,0.0
10673,67.0,0,47,5.0,0.0
10674,71.0,12,47,4.0,0.0
10675,67.0,0,47,11.0,0.0
10676,71.0,0,47,10.0,0.0
10677,69.0,0,47,10.0,0.0
10678,54.0,3,104,13.0,0.0
10679,69.0,0,47,5.0,0.0
10680,62.0,0,104,12.0,0.0
10681,69.0,57,47,4.0,0.0
10682,69.0,0,47,11.0,0.0
10683,54.0,48,119,14.0,0.0
10684,67.0,0,47,4.0,0.0
10685,71.0,0,47,5.0,0.0
10686,71.0,0,47,11.0,0.0
10687,67.0,12,47,10.0,0.0
10688,66.0,0,47,10.0,0.0
10689,69.0,12,47,5.0,0.0
10690,54.0,48,59,14.0,0.0
10691,66.0,0,47,4.0,0.0
10692,66.0,3,224,12.0,0.0
10693,54.0,0,47,13.0,0.0
10694,69.0,0,47,11.0,0.0
10695,71.0,0,47,11.0,0.0
10696,71.0,0,47,5.0,0.0
10697,64.0,12,47,10.0,0.0
10698,64.0,0,47,4.0,0.0
10699,55.0,48,59,14.0,0.0
10700,55.0,0,47,13.0,0.0
10701,72.0,57,47,5.0,0.0
10702,62.0,0,104,4.0,0.0
10703,62.0,0,104,10.0,0.0
10704,57.0,0,104,13.0,0.0
10705,57.0,48,119,14.0,0.0
10706,72.0,0,47,11.0,0.0
10707,69.0,12,47,11.0,0.0
10708,69.0,0,47,5.0,0.0
10709,54.0,30,59,14.0,0.0
10710,74.0,15,89,0.0,0.0
10711,54.0,12,47,13.0,0.0
10712,62.0,0,47,5.0,0.0
10713,62.0,0,47,11.0,0.0
10714,69.0,3,104,12.0,0.0
10715,74.0,0,104,4.0,0.0
10716,74.0,0,104,10.0,0.0
10717,64.0,0,47,11.0,0.0
10718,64.0,0,47,5.0,0.0
10719,55.0,48,59,14.0,0.0
10720,55.0,12,47,13.0,0.0
10721,66.0,0,47,11.0,0.0
10722,66.0,42,47,5.0,0.0
10723,74.0,15,89,0.0,0.0
10724,57.0,48,119,14.0,0.0
10725,74.0,0,104,4.0,0.0
10726,74.0,0,104,10.0,0.0
10727,60.0,0,104,12.0,0.0
10728,57.0,3,104,13.0,0.0
10729,67.0,12,47,5.0,0.0
10730,67.0,0,47,11.0,0.0
10731,66.0,12,47,11.0,0.0
10732,74.0,15,89,0.0,0.0
10733,57.0,0,47,13.0,0.0
10734,66.0,0,224,12.0,0.0
10735,74.0,3,104,10.0,0.0
10736,66.0,0,47,5.0,0.0
10737,74.0,0,104,4.0,0.0
10738,57.0,30,59,14.0,0.0
10739,67.0,12,47,5.0,0.0
10740,67.0,0,47,11.0,0.0
10741,59.0,48,59,14.0,0.0
10742,59.0,0,47,13.0,0.0
10743,60.0,0,104,13.0,0.0
10744,74.0,0,104,0.0,0.0
10745,69.0,57,47,5.0,0.0
10746,74.0,0,104,4.0,0.0
10747,60.0,48,119,14.0,0.0
10748,69.0,0,47,11.0,0.0
10749,74.0,3,104,10.0,0.0
10750,67.0,0,47,11.0,0.0
10751,67.0,12,47,5.0,0.0
10752,50.0,0,119,3.0,0.0
10753,60.0,0,47,13.0,0.0
10754,60.0,30,59,14.0,0.0
10755,69.0,0,104,2.0,0.0
10756,74.0,15,89,1.0,0.0
10757,74.0,0,104,4.0,0.0
10758,69.0,0,104,12.0,0.0
10759,74.0,0,104,10.0,0.0
10760,78.0,3,104,0.0,0.0
10761,66.0,0,47,5.0,0.0
10762,66.0,12,47,11.0,0.0
10763,67.0,0,47,5.0,0.0
10764,59.0,48,59,14.0,0.0
10765,59.0,12,47,13.0,0.0
10766,67.0,0,47,11.0,0.0
10767,60.0,0,119,14.0,0.0
10768,50.0,48,119,3.0,0.0
10769,60.0,0,104,13.0,0.0
10770,69.0,0,104,2.0,0.0
10771,74.0,15,89,1.0,0.0
10772,74.0,0,104,10.0,0.0
10773,74.0,0,104,4.0,0.0
10774,62.0,0,104,12.0,0.0
10775,69.0,42,47,5.0,0.0
10776,69.0,0,47,11.0,0.0
10777,78.0,3,104,0.0,0.0
10778,67.0,12,47,11.0,0.0
10779,67.0,0,47,5.0,0.0
10780,66.0,0,47,11.0,0.0
10781,66.0,0,104,2.0,0.0
10782,50.0,0,119,3.0,0.0
10783,66.0,3,104,12.0,0.0
10784,74.0,15,89,1.0,0.0
10785,81.0,0,104,0.0,0.0
10786,74.0,0,104,10.0,0.0
10787,62.0,30,59,14.0,0.0
10788,62.0,0,47,13.0,0.0
10789,74.0,0,104,4.0,0.0
10790,66.0,12,47,5.0,0.0
10791,60.0,0,47,13.0,0.0
10792,60.0,48,59,14.0,0.0
10793,64.0,0,47,11.0,0.0
10794,64.0,12,47,5.0,0.0
10795,67.0,57,47,12.0,0.0
10796,62.0,0,104,5.0,0.0
10797,79.0,0,119,0.0,0.0
10798,74.0,0,119,1.0,0.0
10799,74.0,0,104,4.0,0.0
10800,59.0,0,104,13.0,0.0
10801,74.0,0,104,10.0,0.0
10802,62.0,48,119,2.0,0.0
10803,59.0,0,119,14.0,0.0
10804,62.0,3,104,11.0,0.0
10805,50.0,0,119,3.0,0.0
10806,71.0,12,47,12.0,0.0
10807,52.0,0,47,13.0,0.0
10808,71.0,3,104,11.0,0.0
10809,76.0,0,104,10.0,0.0
10810,52.0,45,59,14.0,0.0
10811,71.0,0,104,5.0,0.0
10812,76.0,0,104,4.0,0.0
10813,68.0,12,47,12.0,0.0
10814,69.0,0,47,12.0,0.0
10815,54.0,12,47,13.0,0.0
10816,54.0,48,59,14.0,0.0
10817,76.0,0,104,4.0,0.0
10818,56.0,48,119,14.0,0.0
10819,56.0,0,104,13.0,0.0
10820,64.0,0,104,11.0,0.0
10821,71.0,57,47,12.0,0.0
10822,64.0,3,104,5.0,0.0
10823,76.0,0,104,10.0,0.0
10824,73.0,12,47,12.0,0.0
10825,71.0,0,47,12.0,0.0
10826,56.0,12,47,13.0,0.0
10827,56.0,45,59,14.0,0.0
10828,68.0,0,224,5.0,0.0
10829,68.0,0,224,11.0,0.0
10830,76.0,3,104,10.0,0.0
10831,76.0,0,104,4.0,0.0
10832,57.0,0,47,13.0,0.0
10833,73.0,12,47,12.0,0.0
10834,57.0,48,59,14.0,0.0
10835,76.0,0,104,10.0,0.0
10836,59.0,48,119,14.0,0.0
10837,76.0,0,104,4.0,0.0
10838,59.0,3,104,13.0,0.0
10839,74.0,57,47,12.0,0.0
10840,71.0,12,47,12.0,0.0
10841,64.0,12,47,12.0,0.0
10842,76.0,15,89,0.0,0.0
10843,56.0,0,47,13.0,0.0
10844,71.0,0,104,11.0,0.0
10845,71.0,0,104,5.0,0.0
10846,56.0,30,59,14.0,0.0
10847,76.0,3,104,10.0,0.0
10848,76.0,0,104,4.0,0.0
10849,57.0,0,47,13.0,0.0
10850,57.0,48,59,14.0,0.0
10851,66.0,12,47,12.0,0.0
10852,59.0,48,119,14.0,0.0
10853,76.0,0,104,10.0,0.0
10854,68.0,42,47,12.0,0.0
10855,76.0,3,104,4.0,0.0
10856,76.0,15,89,0.0,0.0
10857,62.0,0,104,5.0,0.0
10858,59.0,0,104,13.0,0.0
10859,62.0,0,104,11.0,0.0
10860,69.0,12,47,12.0,0.0
10861,68.0,0,224,5.0,0.0
10862,59.0,30,59,14.0,0.0
10863,59.0,0,47,13.0,0.0
10864,68.0,12,47,12.0,0.0
10865,76.0,3,104,4.0,0.0
10866,76.0,0,104,10.0,0.0
10867,68.0,0,224,11.0,0.0
10868,76.0,15,89,0.0,0.0
10869,61.0,48,59,14.0,0.0
10870,61.0,12,47,13.0,0.0
10871,69.0,0,47,12.0,0.0
10872,76.0,0,104,10.0,0.0
10873,76.0,3,104,4.0,0.0
10874,76.0,0,104,0.0,0.0
10875,62.0,48,119,14.0,0.0
10876,62.0,0,104,13.0,0.0
10877,71.0,57,47,12.0,0.0
10878,69.0,12,47,12.0,0.0
10879,62.0,30,59,14.0,0.0
10880,62.0,0,104,2.0,0.0
10881,76.0,0,104,10.0,0.0
10882,62.0,0,47,13.0,0.0
10883,71.0,0,104,11.0,0.0
10884,50.0,0,119,3.0,0.0
10885,76.0,0,104,4.0,0.0
10886,71.0,0,104,5.0,0.0
10887,68.0,12,47,12.0,0.0
10888,76.0,15,89,1.0,0.0
10889,80.0,3,104,0.0,0.0
10890,61.0,12,47,13.0,0.0
10891,61.0,48,59,14.0,0.0
10892,69.0,0,47,12.0,0.0
10893,50.0,0,119,3.0,0.0
10894,76.0,0,104,10.0,0.0
10895,62.0,0,104,2.0,0.0
10896,62.0,48,119,14.0,0.0
10897,64.0,3,104,5.0,0.0
10898,62.0,0,104,13.0,0.0
10899,76.0,0,104,4.0,0.0
10900,76.0,15,89,1.0,0.0
10901,80.0,0,104,0.0,0.0
10902,64.0,0,104,11.0,0.0
10903,71.0,42,47,12.0,0.0
10904,69.0,12,47,12.0,0.0
10905,68.0,0,104,5.0,0.0
10906,76.0,0,104,4.0,0.0
10907,83.0,3,104,0.0,0.0
10908,68.0,0,47,12.0,0.0
10909,50.0,48,119,3.0,0.0
10910,76.0,15,89,1.0,0.0
10911,62.0,0,104,2.0,0.0
10912,68.0,0,104,11.0,0.0
10913,76.0,0,104,10.0,0.0
10914,64.0,30,59,14.0,0.0
10915,64.0,12,47,13.0,0.0
10916,66.0,12,47,12.0,0.0
10917,62.0,0,59,14.0,0.0
10918,62.0,0,47,13.0,0.0
10919,61.0,0,119,14.0,0.0
10920,69.0,0,47,5.0,0.0
10921,76.0,3,104,10.0,0.0
10922,76.0,0,119,1.0,0.0
10923,64.0,0,239,12.0,0.0
10924,69.0,48,119,2.0,0.0
10925,45.0,0,119,3.0,0.0
10926,61.0,0,104,13.0,0.0
10927,69.0,57,47,11.0,0.0
10928,76.0,0,104,4.0,0.0
10929,81.0,0,119,0.0,0.0
10930,81.0,0,47,5.0,0.0
10931,81.0,12,47,11.0,0.0
10932,73.0,0,47,11.0,0.0
10933,69.0,0,47,10.0,0.0
10934,73.0,57,47,5.0,0.0
10935,69.0,0,47,4.0,0.0
10936,64.0,48,119,14.0,0.0
10937,64.0,3,104,13.0,0.0
10938,71.0,0,47,4.0,0.0
10939,71.0,12,47,10.0,0.0
10940,74.0,0,47,5.0,0.0
10941,74.0,0,47,11.0,0.0
10942,76.0,0,47,5.0,0.0
10943,76.0,57,47,11.0,0.0
10944,73.0,3,104,4.0,0.0
10945,57.0,48,119,14.0,0.0
10946,73.0,0,104,10.0,0.0
10947,57.0,0,104,13.0,0.0
10948,78.0,12,47,11.0,0.0
10949,78.0,0,47,5.0,0.0
10950,73.0,57,47,4.0,0.0
10951,76.0,0,47,5.0,0.0
10952,61.0,48,239,14.0,0.0
10953,61.0,3,224,13.0,0.0
10954,76.0,0,47,11.0,0.0
10955,73.0,0,47,10.0,0.0
10956,69.0,3,104,12.0,0.0
10957,78.0,0,47,5.0,0.0
10958,74.0,0,47,4.0,0.0
10959,74.0,60,47,10.0,0.0
10960,78.0,0,47,11.0,0.0
10961,79.0,57,47,11.0,0.0
10962,76.0,0,104,10.0,0.0
10963,76.0,0,104,4.0,0.0
10964,79.0,0,47,5.0,0.0
10965,69.0,0,104,12.0,0.0
10966,76.0,12,47,5.0,0.0
10967,76.0,0,47,11.0,0.0
10968,64.0,0,104,13.0,0.0
10969,73.0,0,47,4.0,0.0
10970,69.0,0,47,5.0,0.0
10971,69.0,0,47,11.0,0.0
10972,69.0,3,104,12.0,0.0
10973,73.0,57,47,10.0,0.0
10974,64.0,48,119,14.0,0.0
10975,71.0,0,47,5.0,0.0
10976,74.0,0,47,4.0,0.0
10977,71.0,0,47,11.0,0.0
10978,74.0,12,47,10.0,0.0
10979,73.0,57,47,5.0,0.0
10980,69.0,0,104,12.0,0.0
10981,76.0,0,104,10.0,0.0
10982,73.0,0,47,11.0,0.0
10983,76.0,3,104,4.0,0.0
10984,55.0,0,104,13.0,0.0
10985,55.0,48,119,14.0,0.0
10986,74.0,12,47,11.0,0.0
10987,74.0,0,47,5.0,0.0
10988,73.0,57,47,5.0,0.0
10989,61.0,48,239,14.0,0.0
10990,61.0,3,224,13.0,0.0
10991,69.0,3,104,12.0,0.0
10992,76.0,0,47,10.0,0.0
10993,76.0,0,47,4.0,0.0
10994,73.0,0,47,11.0,0.0
10995,74.0,0,47,11.0,0.0
10996,78.0,0,47,10.0,0.0
10997,78.0,0,47,4.0,0.0
10998,74.0,60,47,5.0,0.0
10999,79.0,0,104,10.0,0.0
11000,69.0,0,104,12.0,0.0
11001,76.0,57,47,5.0,0.0
11002,79.0,0,104,4.0,0.0
11003,76.0,0,47,11.0,0.0
11004,74.0,0,47,5.0,0.0
11005,74.0,12,47,11.0,0.0
11006,73.0,0,47,5.0,0.0
11007,79.0,57,47,4.0,0.0
11008,69.0,0,104,12.0,0.0
11009,79.0,0,47,10.0,0.0
11010,64.0,48,119,14.0,0.0
11011,73.0,0,47,11.0,0.0
11012,64.0,3,104,13.0,0.0
11013,78.0,0,47,4.0,0.0
11014,74.0,12,47,11.0,0.0
11015,74.0,0,47,5.0,0.0
11016,78.0,0,47,10.0,0.0
11017,79.0,0,104,10.0,0.0
11018,57.0,48,119,14.0,0.0
11019,69.0,0,104,12.0,0.0
11020,79.0,0,104,4.0,0.0
11021,76.0,57,47,11.0,0.0
11022,76.0,0,47,5.0,0.0
11023,57.0,3,104,13.0,0.0
11024,74.0,0,47,5.0,0.0
11025,74.0,12,47,11.0,0.0
11026,73.0,57,47,11.0,0.0
11027,81.0,0,47,4.0,0.0
11028,61.0,0,104,13.0,0.0
11029,61.0,105,119,14.0,0.0
11030,73.0,0,47,5.0,0.0
11031,81.0,0,47,10.0,0.0
11032,69.0,3,104,12.0,0.0
11033,79.0,12,47,10.0,0.0
11034,79.0,0,47,4.0,0.0
11035,71.0,0,47,5.0,0.0
11036,71.0,0,47,11.0,0.0
11037,50.0,48,119,14.0,0.0
11038,50.0,0,104,13.0,0.0
11039,69.0,0,104,12.0,0.0
11040,78.0,15,104,4.0,0.0
11041,69.0,0,104,5.0,0.0
11042,69.0,0,104,11.0,0.0
11043,78.0,0,104,10.0,0.0
11044,62.0,0,47,12.0,0.0
11045,62.0,48,119,14.0,0.0
11046,62.0,0,104,13.0,0.0
11047,78.0,0,47,10.0,0.0
11048,66.0,0,104,5.0,0.0
11049,66.0,3,104,11.0,0.0
11050,78.0,57,47,4.0,0.0
11051,64.0,12,47,12.0,0.0
11052,76.0,0,47,4.0,0.0
11053,76.0,0,47,10.0,0.0
11054,62.0,57,47,12.0,0.0
11055,55.0,48,119,14.0,0.0
11056,71.0,0,344,11.0,0.0
11057,71.0,0,344,5.0,0.0
11058,55.0,0,104,13.0,0.0
11059,78.0,0,104,4.0,0.0
11060,78.0,3,104,10.0,0.0
11061,61.0,12,47,12.0,0.0
11062,79.0,57,47,4.0,0.0
11063,59.0,0,47,12.0,0.0
11064,59.0,3,104,13.0,0.0
11065,79.0,0,47,10.0,0.0
11066,59.0,48,119,14.0,0.0
11067,62.0,12,47,12.0,0.0
11068,78.0,0,47,10.0,0.0
11069,78.0,0,47,4.0,0.0
11070,61.0,57,47,12.0,0.0
11071,76.0,3,104,4.0,0.0
11072,76.0,0,104,10.0,0.0
11073,49.0,48,119,14.0,0.0
11074,49.0,0,104,13.0,0.0
11075,62.0,12,47,12.0,0.0
11076,61.0,3,104,13.0,0.0
11077,76.0,0,47,10.0,0.0
11078,61.0,48,119,14.0,0.0
11079,70.0,0,47,5.0,0.0
11080,76.0,57,47,4.0,0.0
11081,61.0,0,47,12.0,0.0
11082,70.0,0,47,11.0,0.0
11083,59.0,12,47,12.0,0.0
11084,71.0,0,47,11.0,0.0
11085,74.0,0,47,4.0,0.0
11086,74.0,0,47,10.0,0.0
11087,71.0,0,47,5.0,0.0
11088,73.0,57,47,5.0,0.0
11089,58.0,0,104,12.0,0.0
11090,76.0,0,104,10.0,0.0
11091,73.0,0,47,11.0,0.0
11092,54.0,48,119,14.0,0.0
11093,54.0,3,104,13.0,0.0
11094,76.0,0,104,4.0,0.0
11095,71.0,12,47,11.0,0.0
11096,71.0,0,47,5.0,0.0
11097,78.0,0,47,10.0,0.0
11098,58.0,0,104,13.0,0.0
11099,61.0,3,104,12.0,0.0
11100,78.0,0,47,4.0,0.0
11101,58.0,48,119,14.0,0.0
11102,70.0,57,47,11.0,0.0
11103,70.0,0,47,5.0,0.0
11104,76.0,0,47,4.0,0.0
11105,68.0,0,47,5.0,0.0
11106,68.0,0,47,11.0,0.0
11107,76.0,12,47,10.0,0.0
11108,66.0,57,47,11.0,0.0
11109,47.0,0,104,13.0,0.0
11110,66.0,0,47,5.0,0.0
11111,47.0,48,119,14.0,0.0
11112,74.0,3,104,4.0,0.0
11113,62.0,0,104,12.0,0.0
11114,74.0,0,104,10.0,0.0
11115,78.0,0,47,11.0,0.0
11116,78.0,12,47,5.0,0.0
11117,59.0,48,119,14.0,0.0
11118,74.0,0,47,0.0,0.0
11119,74.0,0,47,4.0,0.0
11120,59.0,0,104,13.0,0.0
11121,71.0,0,47,11.0,0.0
11122,66.0,3,104,12.0,0.0
11123,71.0,57,47,5.0,0.0
11124,74.0,0,47,10.0,0.0
11125,62.0,0,104,1.0,0.0
11126,76.0,0,47,4.0,0.0
11127,73.0,0,47,5.0,0.0
11128,76.0,12,47,10.0,0.0
11129,76.0,0,47,0.0,0.0
11130,73.0,0,47,11.0,0.0
11131,78.0,0,104,10.0,0.0
11132,74.0,0,47,5.0,0.0
11133,78.0,0,104,4.0,0.0
11134,62.0,0,104,1.0,0.0
11135,74.0,57,47,11.0,0.0
11136,57.0,0,104,13.0,0.0
11137,59.0,3,104,12.0,0.0
11138,78.0,0,104,0.0,0.0
11139,57.0,48,119,14.0,0.0
11140,76.0,0,47,5.0,0.0
11141,76.0,12,47,11.0,0.0
11142,55.0,3,104,13.0,0.0
11143,78.0,0,47,4.0,0.0
11144,74.0,0,47,5.0,0.0
11145,62.0,0,224,12.0,0.0
11146,62.0,0,104,1.0,0.0
11147,78.0,0,47,0.0,0.0
11148,55.0,48,119,14.0,0.0
11149,78.0,57,47,10.0,0.0
11150,74.0,0,47,11.0,0.0
11151,79.0,0,47,0.0,0.0
11152,79.0,0,47,10.0,0.0
11153,79.0,0,47,4.0,0.0
11154,76.0,0,47,11.0,0.0
11155,76.0,12,47,5.0,0.0
11156,78.0,57,47,5.0,0.0
11157,62.0,0,104,1.0,0.0
11158,54.0,48,119,14.0,0.0
11159,81.0,3,104,0.0,0.0
11160,81.0,0,104,4.0,0.0
11161,54.0,0,104,13.0,0.0
11162,78.0,0,47,11.0,0.0
11163,81.0,0,104,10.0,0.0
11164,81.0,0,47,11.0,0.0
11165,81.0,12,47,5.0,0.0
11166,74.0,0,47,11.0,0.0
11167,59.0,48,119,14.0,0.0
11168,74.0,3,104,12.0,0.0
11169,62.0,0,104,1.0,0.0
11170,78.0,0,47,10.0,0.0
11171,62.0,0,104,2.0,0.0
11172,78.0,0,47,4.0,0.0
11173,74.0,57,47,5.0,0.0
11174,78.0,0,47,0.0,0.0
11175,59.0,0,104,13.0,0.0
11176,79.0,0,47,10.0,0.0
11177,76.0,0,47,5.0,0.0
11178,79.0,12,47,0.0,0.0
11179,76.0,0,47,11.0,0.0
11180,79.0,0,47,4.0,0.0
11181,62.0,0,104,2.0,0.0
11182,57.0,48,119,14.0,0.0
11183,78.0,57,47,11.0,0.0
11184,81.0,3,104,0.0,0.0
11185,57.0,0,104,13.0,0.0
11186,81.0,0,104,10.0,0.0
11187,78.0,0,47,5.0,0.0
11188,74.0,0,104,12.0,0.0
11189,62.0,0,104,1.0,0.0
11190,81.0,0,104,4.0,0.0
11191,79.0,12,47,11.0,0.0
11192,79.0,0,47,5.0,0.0
11193,81.0,0,47,4.0,0.0
11194,74.0,3,104,12.0,0.0
11195,62.0,0,104,1.0,0.0
11196,62.0,0,104,2.0,0.0
11197,81.0,0,47,0.0,0.0
11198,55.0,48,119,14.0,0.0
11199,81.0,57,47,10.0,0.0
11200,78.0,0,47,11.0,0.0
11201,55.0,0,104,13.0,0.0
11202,78.0,0,47,5.0,0.0
11203,83.0,0,47,4.0,0.0
11204,79.0,12,47,11.0,0.0
11205,83.0,0,47,0.0,0.0
11206,79.0,0,47,5.0,0.0
11207,83.0,0,47,10.0,0.0
11208,54.0,48,119,14.0,0.0
11209,84.0,0,104,4.0,0.0
11210,54.0,0,104,13.0,0.0
11211,81.0,0,47,5.0,0.0
11212,62.0,3,104,1.0,0.0
11213,62.0,0,104,2.0,0.0
11214,74.0,0,104,12.0,0.0
11215,84.0,0,104,0.0,0.0
11216,84.0,0,104,10.0,0.0
11217,81.0,57,47,11.0,0.0
11218,79.0,12,47,11.0,0.0
11219,79.0,0,47,5.0,0.0
11220,57.0,0,104,13.0,0.0
11221,74.0,0,104,12.0,0.0
11222,78.0,0,47,5.0,0.0
11223,50.0,48,119,3.0,0.0
11224,78.0,0,47,11.0,0.0
11225,57.0,0,119,14.0,0.0
11226,84.0,57,47,10.0,0.0
11227,84.0,0,47,4.0,0.0
11228,84.0,0,47,0.0,0.0
11229,78.0,0,47,1.0,0.0
11230,62.0,3,104,2.0,0.0
11231,79.0,0,47,11.0,0.0
11232,83.0,0,47,4.0,0.0
11233,79.0,12,47,5.0,0.0
11234,83.0,0,47,0.0,0.0
11235,79.0,0,47,1.0,0.0
11236,83.0,0,47,10.0,0.0
11237,50.0,0,119,3.0,0.0
11238,84.0,0,104,4.0,0.0
11239,81.0,57,47,11.0,0.0
11240,50.0,48,119,14.0,0.0
11241,84.0,0,104,10.0,0.0
11242,50.0,3,104,13.0,0.0
11243,74.0,0,104,12.0,0.0
11244,81.0,0,104,1.0,0.0
11245,84.0,0,104,0.0,0.0
11246,66.0,0,104,2.0,0.0
11247,81.0,0,47,5.0,0.0
11248,79.0,12,47,11.0,0.0
11249,79.0,0,47,5.0,0.0
11250,54.0,48,119,14.0,0.0
11251,78.0,0,47,11.0,0.0
11252,69.0,0,104,12.0,0.0
11253,50.0,0,119,3.0,0.0
11254,86.0,57,47,10.0,0.0
11255,78.0,0,47,5.0,0.0
11256,62.0,0,104,2.0,0.0
11257,83.0,0,47,1.0,0.0
11258,54.0,3,104,13.0,0.0
11259,86.0,0,47,4.0,0.0
11260,86.0,0,47,0.0,0.0
11261,84.0,0,47,4.0,0.0
11262,76.0,0,47,11.0,0.0
11263,84.0,0,47,0.0,0.0
11264,84.0,0,47,10.0,0.0
11265,76.0,0,47,5.0,0.0
11266,81.0,12,47,1.0,0.0
11267,74.0,3,104,11.0,0.0
11268,74.0,0,104,5.0,0.0
11269,83.0,57,47,4.0,0.0
11270,50.0,0,119,3.0,0.0
11271,83.0,0,119,0.0,0.0
11272,71.0,0,104,12.0,0.0
11273,83.0,0,47,10.0,0.0
11274,43.0,0,104,13.0,0.0
11275,74.0,0,119,2.0,0.0
11276,43.0,0,119,14.0,0.0
11277,79.0,48,119,1.0,0.0
11278,79.0,12,47,10.0,0.0
11279,79.0,0,47,4.0,0.0
11280,76.0,0,47,4.0,0.0
11281,55.0,0,104,13.0,0.0
11282,71.0,0,104,12.0,0.0
11283,71.0,0,104,5.0,0.0
11284,71.0,3,104,11.0,0.0
11285,76.0,57,47,10.0,0.0
11286,55.0,48,119,14.0,0.0
11287,78.0,0,47,10.0,0.0
11288,78.0,12,47,4.0,0.0
11289,79.0,0,47,4.0,0.0
11290,49.0,48,119,14.0,0.0
11291,76.0,0,344,11.0,0.0
11292,71.0,0,104,12.0,0.0
11293,49.0,3,104,13.0,0.0
11294,79.0,57,47,10.0,0.0
11295,76.0,0,344,5.0,0.0
11296,81.0,12,47,4.0,0.0
11297,81.0,0,47,10.0,0.0
11298,71.0,0,104,12.0,0.0
11299,52.0,48,119,14.0,0.0
11300,78.0,57,47,4.0,0.0
11301,52.0,0,104,13.0,0.0
11302,79.0,0,104,1.0,0.0
11303,78.0,0,47,10.0,0.0
11304,83.0,0,104,0.0,0.0
11305,76.0,3,104,2.0,0.0
11306,79.0,12,47,4.0,0.0
11307,79.0,0,47,10.0,0.0
11308,69.0,0,104,12.0,0.0
11309,76.0,0,119,2.0,0.0
11310,78.0,48,119,1.0,0.0
11311,42.0,3,104,13.0,0.0
11312,45.0,0,119,3.0,0.0
11313,81.0,0,47,4.0,0.0
11314,81.0,57,47,10.0,0.0
11315,42.0,0,119,14.0,0.0
11316,81.0,0,119,0.0,0.0
11317,78.0,12,47,4.0,0.0
11318,78.0,0,47,10.0,0.0
11319,69.0,0,104,11.0,0.0
11320,54.0,48,119,14.0,0.0
11321,74.0,0,47,4.0,0.0
11322,69.0,0,104,5.0,0.0
11323,69.0,0,104,12.0,0.0
11324,54.0,3,104,13.0,0.0
11325,74.0,57,47,10.0,0.0
11326,76.0,12,47,4.0,0.0
11327,76.0,0,47,10.0,0.0
11328,74.0,0,344,11.0,0.0
11329,69.0,0,104,12.0,0.0
11330,47.0,48,119,14.0,0.0
11331,74.0,0,344,5.0,0.0
11332,47.0,3,104,13.0,0.0
11333,78.0,57,47,4.0,0.0
11334,78.0,0,47,10.0,0.0
11335,79.0,12,47,10.0,0.0
11336,79.0,0,47,4.0,0.0
11337,50.0,48,119,14.0,0.0
11338,81.0,0,104,0.0,0.0
11339,78.0,0,104,1.0,0.0
11340,76.0,57,47,10.0,0.0
11341,69.0,0,104,12.0,0.0
11342,50.0,3,104,13.0,0.0
11343,76.0,0,47,4.0,0.0
11344,74.0,0,104,2.0,0.0
11345,78.0,0,47,10.0,0.0
11346,78.0,12,47,4.0,0.0
11347,76.0,0,104,1.0,0.0
11348,79.0,0,47,10.0,0.0
11349,79.0,0,47,4.0,0.0
11350,40.0,3,104,13.0,0.0
11351,67.0,0,104,12.0,0.0
11352,79.0,57,47,0.0,0.0
11353,40.0,48,119,14.0,0.0
11354,74.0,0,104,2.0,0.0
11355,78.0,0,47,4.0,0.0
11356,78.0,12,47,10.0,0.0
11357,78.0,0,47,0.0,0.0
11358,73.0,0,104,5.0,0.0
11359,69.0,0,104,2.0,0.0
11360,45.0,0,119,14.0,0.0
11361,81.0,3,104,1.0,0.0
11362,45.0,48,119,3.0,0.0
11363,69.0,0,104,12.0,0.0
11364,76.0,57,47,0.0,0.0
11365,73.0,0,104,11.0,0.0
11366,76.0,0,47,10.0,0.0
11367,76.0,0,47,4.0,0.0
11368,45.0,0,104,13.0,0.0
11369,79.0,0,47,4.0,0.0
11370,79.0,12,47,0.0,0.0
11371,79.0,0,47,10.0,0.0
11372,74.0,0,47,11.0,0.0
11373,74.0,57,47,5.0,0.0
11374,78.0,0,47,0.0,0.0
11375,78.0,0,47,4.0,0.0
11376,69.0,0,104,12.0,0.0
11377,78.0,0,47,10.0,0.0
11378,50.0,0,104,13.0,0.0
11379,81.0,3,104,1.0,0.0
11380,69.0,0,104,2.0,0.0
11381,50.0,48,119,3.0,0.0
11382,50.0,0,119,14.0,0.0
11383,76.0,0,47,0.0,0.0
11384,76.0,12,47,4.0,0.0
11385,73.0,0,47,5.0,0.0
11386,76.0,0,47,10.0,0.0
11387,73.0,0,47,11.0,0.0
11388,38.0,0,119,14.0,0.0
11389,74.0,0,47,0.0,0.0
11390,69.0,0,104,2.0,0.0
11391,74.0,0,47,10.0,0.0
11392,38.0,0,104,13.0,0.0
11393,81.0,0,104,1.0,0.0
11394,71.0,0,47,11.0,0.0
11395,74.0,57,47,4.0,0.0
11396,69.0,3,104,12.0,0.0
11397,71.0,0,47,5.0,0.0
11398,50.0,48,119,3.0,0.0
11399,78.0,12,47,10.0,0.0
11400,78.0,0,47,4.0,0.0
11401,78.0,0,47,0.0,0.0
11402,74.0,0,47,11.0,0.0
11403,74.0,0,47,5.0,0.0
11404,76.0,0,47,10.0,0.0
11405,69.0,3,104,12.0,0.0
11406,81.0,0,119,1.0,0.0
11407,73.0,0,104,11.0,0.0
11408,45.0,0,119,3.0,0.0
11409,73.0,0,104,5.0,0.0
11410,45.0,0,119,14.0,0.0
11411,76.0,0,119,0.0,0.0
11412,45.0,0,104,13.0,0.0
11413,69.0,48,119,2.0,0.0
11414,76.0,57,47,4.0,0.0
11415,81.0,12,47,4.0,0.0
11416,81.0,0,47,10.0,0.0
11417,69.0,0,104,12.0,0.0
11418,45.0,45,59,14.0,0.0
11419,76.0,3,104,5.0,0.0
11420,73.0,12,47,4.0,0.0
11421,73.0,0,47,10.0,0.0
11422,76.0,0,104,11.0,0.0
11423,45.0,0,47,13.0,0.0
11424,47.0,12,47,13.0,0.0
11425,74.0,0,47,4.0,0.0
11426,47.0,48,59,14.0,0.0
11427,74.0,0,47,10.0,0.0
11428,49.0,48,119,14.0,0.0
11429,76.0,57,47,4.0,0.0
11430,69.0,0,104,12.0,0.0
11431,49.0,0,104,13.0,0.0
11432,69.0,0,104,5.0,0.0
11433,76.0,0,47,10.0,0.0
11434,69.0,3,104,11.0,0.0
11435,78.0,0,47,10.0,0.0
11436,78.0,12,47,4.0,0.0
11437,73.0,0,224,5.0,0.0
11438,76.0,12,47,10.0,0.0
11439,73.0,3,224,11.0,0.0
11440,76.0,0,47,4.0,0.0
11441,49.0,45,59,14.0,0.0
11442,69.0,3,104,12.0,0.0
11443,49.0,0,47,13.0,0.0
11444,78.0,12,47,4.0,0.0
11445,50.0,48,59,14.0,0.0
11446,50.0,0,47,13.0,0.0
11447,78.0,0,47,10.0,0.0
11448,79.0,57,47,10.0,0.0
11449,52.0,48,119,14.0,0.0
11450,79.0,0,47,4.0,0.0
11451,52.0,0,104,13.0,0.0
11452,69.0,0,104,12.0,0.0
11453,76.0,12,47,10.0,0.0
11454,76.0,0,47,4.0,0.0
11455,49.0,30,59,14.0,0.0
11456,69.0,12,47,4.0,0.0
11457,49.0,0,47,13.0,0.0
11458,69.0,15,89,0.0,0.0
11459,69.0,0,47,10.0,0.0
11460,69.0,0,104,12.0,0.0
11461,76.0,3,104,5.0,0.0
11462,76.0,0,104,11.0,0.0
11463,71.0,0,47,4.0,0.0
11464,71.0,0,47,10.0,0.0
11465,50.0,12,47,13.0,0.0
11466,50.0,48,59,14.0,0.0
11467,73.0,0,47,10.0,0.0
11468,67.0,3,104,11.0,0.0
11469,69.0,0,104,12.0,0.0
11470,52.0,48,119,14.0,0.0
11471,52.0,0,104,13.0,0.0
11472,69.0,15,89,0.0,0.0
11473,73.0,42,47,4.0,0.0
11474,67.0,0,104,5.0,0.0
11475,74.0,12,47,10.0,0.0
11476,74.0,0,47,4.0,0.0
11477,73.0,3,224,11.0,0.0
11478,52.0,30,59,14.0,0.0
11479,73.0,0,47,4.0,0.0
11480,69.0,15,89,0.0,0.0
11481,69.0,3,104,12.0,0.0
11482,73.0,0,47,10.0,0.0
11483,73.0,0,224,5.0,0.0
11484,52.0,12,47,13.0,0.0
11485,54.0,48,59,14.0,0.0
11486,74.0,0,47,4.0,0.0
11487,74.0,0,47,10.0,0.0
11488,54.0,12,47,13.0,0.0
11489,76.0,0,47,10.0,0.0
11490,76.0,57,47,4.0,0.0
11491,55.0,0,104,13.0,0.0
11492,55.0,48,119,14.0,0.0
11493,69.0,0,104,12.0,0.0
11494,69.0,0,104,0.0,0.0
11495,74.0,12,47,4.0,0.0
11496,74.0,0,47,10.0,0.0
11497,73.0,0,47,10.0,0.0
11498,69.0,0,104,1.0,0.0
11499,55.0,45,59,14.0,0.0
11500,76.0,0,104,0.0,0.0
11501,73.0,12,47,4.0,0.0
11502,76.0,3,104,5.0,0.0
11503,76.0,0,104,11.0,0.0
11504,69.0,0,104,2.0,0.0
11505,45.0,0,119,3.0,0.0
11506,69.0,0,104,12.0,0.0
11507,55.0,0,47,13.0,0.0
11508,54.0,12,47,13.0,0.0
11509,74.0,0,47,4.0,0.0
11510,54.0,48,59,14.0,0.0
11511,74.0,0,47,10.0,0.0
11512,69.0,0,104,12.0,0.0
11513,55.0,0,104,13.0,0.0
11514,45.0,48,119,3.0,0.0
11515,69.0,0,104,11.0,0.0
11516,55.0,0,119,14.0,0.0
11517,76.0,57,47,10.0,0.0
11518,76.0,0,104,0.0,0.0
11519,69.0,3,104,1.0,0.0
11520,76.0,0,47,4.0,0.0
11521,69.0,0,104,5.0,0.0
11522,69.0,0,104,2.0,0.0
11523,79.0,12,47,10.0,0.0
11524,79.0,0,47,4.0,0.0
11525,81.0,0,104,0.0,0.0
11526,57.0,0,47,13.0,0.0
11527,78.0,0,47,4.0,0.0
11528,57.0,45,59,14.0,0.0
11529,69.0,0,104,2.0,0.0
11530,73.0,0,104,11.0,0.0
11531,76.0,0,104,1.0,0.0
11532,73.0,0,104,5.0,0.0
11533,78.0,12,47,10.0,0.0
11534,45.0,0,119,3.0,0.0
11535,69.0,3,104,12.0,0.0
11536,55.0,0,47,13.0,0.0
11537,76.0,12,47,10.0,0.0
11538,55.0,48,59,14.0,0.0
11539,76.0,0,47,4.0,0.0
11540,78.0,0,104,1.0,0.0
11541,74.0,3,104,5.0,0.0
11542,81.0,0,47,10.0,0.0
11543,50.0,0,119,3.0,0.0
11544,69.0,0,104,12.0,0.0
11545,81.0,0,119,0.0,0.0
11546,54.0,48,119,14.0,0.0
11547,81.0,57,47,4.0,0.0
11548,74.0,0,104,11.0,0.0
11549,62.0,0,119,2.0,0.0
11550,54.0,0,104,13.0,0.0
11551,79.0,0,47,10.0,0.0
11552,79.0,12,47,4.0,0.0
11553,81.0,0,47,1.0,0.0
11554,54.0,45,59,14.0,0.0
11555,78.0,0,47,10.0,0.0
11556,54.0,12,47,13.0,0.0
11557,69.0,3,104,11.0,0.0
11558,62.0,0,104,12.0,0.0
11559,78.0,0,47,4.0,0.0
11560,69.0,0,104,5.0,0.0
11561,52.0,12,47,13.0,0.0
11562,79.0,0,47,10.0,0.0
11563,52.0,48,59,14.0,0.0
11564,79.0,0,47,4.0,0.0
11565,79.0,0,47,1.0,0.0
11566,81.0,57,47,4.0,0.0
11567,54.0,48,119,14.0,0.0
11568,66.0,3,104,12.0,0.0
11569,81.0,0,47,10.0,0.0
11570,78.0,0,104,1.0,0.0
11571,74.0,0,344,11.0,0.0
11572,54.0,0,104,13.0,0.0
11573,74.0,0,344,5.0,0.0
11574,78.0,0,47,10.0,0.0
11575,78.0,12,47,4.0,0.0
11576,55.0,0,47,13.0,0.0
11577,74.0,0,47,4.0,0.0
11578,74.0,12,47,10.0,0.0
11579,83.0,0,47,0.0,0.0
11580,55.0,45,59,14.0,0.0
11581,74.0,3,104,1.0,0.0
11582,71.0,0,104,12.0,0.0
11583,54.0,48,59,14.0,0.0
11584,78.0,0,47,10.0,0.0
11585,81.0,0,47,0.0,0.0
11586,78.0,12,47,4.0,0.0
11587,54.0,0,47,13.0,0.0
11588,79.0,0,119,0.0,0.0
11589,52.0,48,119,14.0,0.0
11590,79.0,57,47,10.0,0.0
11591,79.0,0,47,4.0,0.0
11592,71.0,0,104,12.0,0.0
11593,52.0,0,104,13.0,0.0
11594,76.0,3,104,1.0,0.0
11595,78.0,0,47,10.0,0.0
11596,78.0,12,47,4.0,0.0
11597,73.0,0,104,5.0,0.0
11598,76.0,0,47,10.0,0.0
11599,73.0,3,104,11.0,0.0
11600,73.0,12,47,12.0,0.0
11601,76.0,0,47,4.0,0.0
11602,52.0,45,59,14.0,0.0
11603,79.0,0,47,1.0,0.0
11604,52.0,0,47,13.0,0.0
11605,78.0,0,47,1.0,0.0
11606,50.0,0,47,13.0,0.0
11607,74.0,0,47,12.0,0.0
11608,78.0,0,47,4.0,0.0
11609,50.0,48,59,14.0,0.0
11610,78.0,12,47,10.0,0.0
11611,76.0,0,104,1.0,0.0
11612,79.0,0,47,10.0,0.0
11613,79.0,57,47,4.0,0.0
11614,52.0,3,104,13.0,0.0
11615,76.0,0,104,11.0,0.0
11616,52.0,48,119,14.0,0.0
11617,76.0,0,104,5.0,0.0
11618,73.0,0,104,12.0,0.0
11619,83.0,12,47,10.0,0.0
11620,83.0,0,47,4.0,0.0
11621,73.0,0,104,5.0,0.0
11622,45.0,0,119,3.0,0.0
11623,69.0,0,104,12.0,0.0
11624,73.0,3,104,11.0,0.0
11625,54.0,45,59,14.0,0.0
11626,69.0,0,104,1.0,0.0
11627,54.0,0,47,13.0,0.0
11628,81.0,12,47,10.0,0.0
11629,76.0,0,104,2.0,0.0
11630,81.0,0,47,0.0,0.0
11631,81.0,0,47,4.0,0.0
11632,52.0,48,59,14.0,0.0
11633,79.0,0,47,4.0,0.0
11634,52.0,0,47,13.0,0.0
11635,79.0,12,47,0.0,0.0
11636,79.0,0,47,10.0,0.0
11637,78.0,0,104,4.0,0.0
11638,50.0,12,47,13.0,0.0
11639,78.0,0,104,0.0,0.0
11640,74.0,0,104,5.0,0.0
11641,69.0,0,104,1.0,0.0
11642,69.0,3,104,12.0,0.0
11643,78.0,0,104,10.0,0.0
11644,74.0,0,104,11.0,0.0
11645,50.0,45,59,14.0,0.0
11646,78.0,0,119,2.0,0.0
11647,50.0,48,119,3.0,0.0
11648,52.0,12,47,13.0,0.0
11649,52.0,0,59,14.0,0.0
11650,74.0,0,104,4.0,0.0
11651,69.0,0,104,12.0,0.0
11652,74.0,0,104,1.0,0.0
11653,54.0,45,59,14.0,0.0
11654,54.0,12,47,13.0,0.0
11655,69.0,0,104,5.0,0.0
11656,81.0,0,104,0.0,0.0
11657,74.0,3,104,10.0,0.0
11658,69.0,0,104,11.0,0.0
11659,50.0,12,47,13.0,0.0
11660,50.0,48,59,14.0,0.0
11661,50.0,0,119,3.0,0.0
11662,71.0,0,104,4.0,0.0
11663,74.0,0,104,1.0,0.0
11664,83.0,3,104,0.0,0.0
11665,62.0,0,104,5.0,0.0
11666,62.0,0,104,11.0,0.0
11667,71.0,0,104,10.0,0.0
11668,67.0,0,104,12.0,0.0
11669,79.0,48,119,2.0,0.0
11670,55.0,12,47,13.0,0.0
11671,55.0,45,59,14.0,0.0
11672,57.0,0,59,14.0,0.0
11673,57.0,12,47,13.0,0.0
11674,54.0,12,47,13.0,0.0
11675,76.0,0,104,4.0,0.0
11676,79.0,0,104,0.0,0.0
11677,76.0,0,104,10.0,0.0
11678,54.0,45,59,14.0,0.0
11679,67.0,0,104,11.0,0.0
11680,67.0,0,104,5.0,0.0
11681,71.0,0,104,12.0,0.0
11682,76.0,3,104,1.0,0.0
11683,55.0,12,47,13.0,0.0
11684,55.0,48,59,14.0,0.0
11685,69.0,0,104,1.0,0.0
11686,85.0,0,104,0.0,0.0
11687,45.0,0,119,3.0,0.0
11688,73.0,57,47,10.0,0.0
11689,76.0,0,119,2.0,0.0
11690,64.0,0,47,11.0,0.0
11691,57.0,48,119,14.0,0.0
11692,69.0,0,104,12.0,0.0
11693,73.0,0,47,4.0,0.0
11694,64.0,48,239,5.0,0.0
11695,57.0,3,104,13.0,0.0
11696,61.0,0,47,11.0,0.0
11697,69.0,0,47,10.0,0.0
11698,69.0,12,47,4.0,0.0
11699,81.0,3,104,0.0,0.0
11700,64.0,0,104,12.0,0.0
11701,55.0,0,119,14.0,0.0
11702,71.0,57,47,4.0,0.0
11703,71.0,0,47,10.0,0.0
11704,62.0,0,47,11.0,0.0
11705,76.0,0,104,1.0,0.0
11706,55.0,0,104,13.0,0.0
11707,73.0,12,47,10.0,0.0
11708,64.0,0,47,11.0,0.0
11709,73.0,0,47,4.0,0.0
11710,69.0,0,104,12.0,0.0
11711,86.0,0,104,0.0,0.0
11712,74.0,0,47,4.0,0.0
11713,57.0,0,104,11.0,0.0
11714,54.0,48,119,14.0,0.0
11715,74.0,57,47,10.0,0.0
11716,69.0,3,104,2.0,0.0
11717,78.0,0,47,1.0,0.0
11718,54.0,0,104,13.0,0.0
11719,45.0,0,119,3.0,0.0
11720,76.0,12,47,1.0,0.0
11721,76.0,0,47,4.0,0.0
11722,76.0,0,47,10.0,0.0
11723,52.0,3,104,13.0,0.0
11724,52.0,0,119,14.0,0.0
11725,73.0,0,104,11.0,0.0
11726,78.0,0,47,4.0,0.0
11727,69.0,0,104,2.0,0.0
11728,45.0,48,119,3.0,0.0
11729,79.0,0,104,0.0,0.0
11730,69.0,0,104,12.0,0.0
11731,78.0,57,47,10.0,0.0
11732,73.0,0,104,5.0,0.0
11733,78.0,0,47,1.0,0.0
11734,79.0,12,47,4.0,0.0
11735,79.0,0,47,10.0,0.0
11736,79.0,0,47,1.0,0.0
11737,74.0,3,104,11.0,0.0
11738,50.0,0,119,14.0,0.0
11739,81.0,0,119,1.0,0.0
11740,50.0,48,119,3.0,0.0
11741,78.0,0,119,0.0,0.0
11742,78.0,57,47,4.0,0.0
11743,78.0,0,47,10.0,0.0
11744,50.0,0,104,13.0,0.0
11745,69.0,0,47,12.0,0.0
11746,69.0,0,119,2.0,0.0
11747,74.0,0,104,5.0,0.0
11748,67.0,0,47,12.0,0.0
11749,76.0,0,47,4.0,0.0
11750,76.0,12,47,10.0,0.0
11751,74.0,57,47,4.0,0.0
11752,71.0,0,104,11.0,0.0
11753,55.0,48,119,14.0,0.0
11754,55.0,0,104,13.0,0.0
11755,74.0,0,47,10.0,0.0
11756,66.0,0,47,12.0,0.0
11757,71.0,3,104,5.0,0.0
11758,67.0,0,47,12.0,0.0
11759,76.0,0,47,4.0,0.0
11760,76.0,12,47,10.0,0.0
11761,69.0,0,104,5.0,0.0
11762,69.0,0,104,11.0,0.0
11763,57.0,3,104,13.0,0.0
11764,69.0,48,119,2.0,0.0
11765,45.0,0,119,3.0,0.0
11766,69.0,0,104,4.0,0.0
11767,76.0,0,119,0.0,0.0
11768,69.0,0,104,10.0,0.0
11769,57.0,0,119,14.0,0.0
11770,79.0,0,119,1.0,0.0
11771,64.0,57,47,12.0,0.0
11772,66.0,12,47,12.0,0.0
11773,73.0,0,104,10.0,0.0
11774,69.0,0,104,5.0,0.0
11775,45.0,0,104,13.0,0.0
11776,67.0,57,47,12.0,0.0
11777,45.0,48,119,14.0,0.0
11778,69.0,3,104,11.0,0.0
11779,73.0,0,104,4.0,0.0
11780,64.0,12,47,12.0,0.0
11781,69.0,0,119,2.0,0.0
11782,69.0,48,239,11.0,0.0
11783,69.0,0,119,5.0,0.0
11784,50.0,0,239,13.0,0.0
11785,50.0,0,119,3.0,0.0
11786,66.0,0,239,12.0,0.0
11787,50.0,0,239,14.0,0.0
11788,78.0,48,119,1.0,0.0
11789,74.0,0,119,0.0,0.0
11790,74.0,0,119,4.0,0.0
11791,74.0,60,47,10.0,0.0
11792,69.0,12,47,10.0,0.0
11793,66.0,60,47,10.0,0.0
11794,69.0,12,47,10.0,0.0
11795,62.0,60,47,10.0,0.0
11796,66.0,60,47,10.0,0.0
11797,69.0,3,104,11.0,0.0
11798,49.0,48,119,14.0,0.0
11799,64.0,0,104,12.0,0.0
11800,64.0,57,47,10.0,0.0
11801,49.0,0,104,13.0,0.0
11802,67.0,12,47,10.0,0.0
11803,69.0,0,104,11.0,0.0
11804,50.0,48,119,14.0,0.0
11805,50.0,0,104,13.0,0.0
11806,62.0,3,104,12.0,0.0
11807,66.0,57,47,10.0,0.0
11808,69.0,12,47,10.0,0.0
11809,66.0,0,104,12.0,0.0
11810,47.0,48,119,14.0,0.0
11811,74.0,57,47,10.0,0.0
11812,71.0,0,104,11.0,0.0
11813,47.0,3,104,13.0,0.0
11814,66.0,12,47,10.0,0.0
11815,71.0,0,104,11.0,0.0
11816,43.0,0,104,13.0,0.0
11817,64.0,57,47,10.0,0.0
11818,67.0,3,104,12.0,0.0
11819,43.0,48,119,14.0,0.0
11820,74.0,12,47,10.0,0.0
11821,69.0,0,104,11.0,0.0
11822,45.0,48,119,14.0,0.0
11823,64.0,57,47,10.0,0.0
11824,45.0,3,104,13.0,0.0
11825,67.0,0,104,12.0,0.0
11826,73.0,12,47,10.0,0.0
11827,74.0,60,47,10.0,0.0
11828,66.0,0,239,12.0,0.0
11829,38.0,0,239,14.0,0.0
11830,38.0,48,239,13.0,0.0
11831,69.0,0,239,11.0,0.0
11832,69.0,60,47,10.0,0.0
11833,74.0,60,47,10.0,0.0
11834,76.0,12,47,10.0,0.0
11835,78.0,60,47,10.0,0.0
11836,81.0,60,47,10.0,0.0
11837,80.0,57,47,10.0,0.0
11838,50.0,48,119,14.0,0.0
11839,71.0,0,104,11.0,0.0
11840,64.0,0,104,12.0,0.0
11841,50.0,3,104,13.0,0.0
11842,83.0,12,47,10.0,0.0
11843,73.0,3,104,11.0,0.0
11844,81.0,57,47,10.0,0.0
11845,64.0,0,104,12.0,0.0
11846,49.0,48,119,14.0,0.0
11847,49.0,0,104,13.0,0.0
11848,76.0,12,47,10.0,0.0
11849,54.0,3,104,13.0,0.0
11850,69.0,0,104,11.0,0.0
11851,73.0,57,47,10.0,0.0
11852,66.0,0,104,12.0,0.0
11853,54.0,48,119,14.0,0.0
11854,81.0,12,47,10.0,0.0
11855,66.0,0,104,12.0,0.0
11856,50.0,48,119,14.0,0.0
11857,50.0,0,104,13.0,0.0
11858,71.0,57,47,10.0,0.0
11859,78.0,3,104,11.0,0.0
11860,81.0,12,47,10.0,0.0
11861,52.0,48,119,14.0,0.0
11862,76.0,0,104,11.0,0.0
11863,52.0,3,104,13.0,0.0
11864,71.0,57,47,10.0,0.0
11865,71.0,0,104,12.0,0.0
11866,80.0,12,47,10.0,0.0
11867,73.0,0,239,12.0,0.0
11868,76.0,48,239,11.0,0.0
11869,45.0,60,119,14.0,0.0
11870,81.0,57,47,10.0,0.0
11871,45.0,3,104,13.0,0.0
11872,76.0,12,47,10.0,0.0
11873,57.0,0,119,14.0,0.0
11874,73.0,45,59,10.0,0.0
11875,57.0,15,104,13.0,0.0
11876,74.0,0,59,10.0,0.0
11877,57.0,48,119,14.0,0.0
11878,57.0,3,104,13.0,0.0
11879,76.0,57,47,10.0,0.0
11880,78.0,12,47,10.0,0.0
11881,73.0,0,104,12.0,0.0
11882,57.0,48,119,14.0,0.0
11883,76.0,3,104,11.0,0.0
11884,76.0,57,47,10.0,0.0
11885,57.0,0,119,13.0,0.0
11886,78.0,12,47,10.0,0.0
11887,73.0,0,104,12.0,0.0
11888,76.0,3,104,11.0,0.0
11889,79.0,57,47,10.0,0.0
11890,76.0,72,47,10.0,0.0
11891,76.0,0,119,11.0,0.0
11892,69.0,45,59,10.0,0.0
11893,55.0,0,119,14.0,0.0
11894,73.0,0,119,12.0,0.0
11895,55.0,15,104,13.0,0.0
11896,71.0,48,59,10.0,0.0
11897,73.0,57,47,10.0,0.0
11898,55.0,3,104,13.0,0.0
11899,55.0,48,119,14.0,0.0
11900,74.0,12,47,10.0,0.0
11901,73.0,57,47,10.0,0.0
11902,55.0,48,119,13.0,0.0
11903,76.0,3,104,11.0,0.0
11904,55.0,0,119,14.0,0.0
11905,71.0,0,104,12.0,0.0
11906,74.0,12,47,10.0,0.0
11907,73.0,3,104,11.0,0.0
11908,70.0,0,104,12.0,0.0
11909,76.0,57,47,10.0,0.0
11910,74.0,60,47,10.0,0.0
11911,73.0,57,47,10.0,0.0
11912,54.0,0,119,14.0,0.0
11913,70.0,0,119,12.0,0.0
11914,54.0,3,104,13.0,0.0
11915,73.0,48,119,11.0,0.0
11916,74.0,12,47,10.0,0.0
11917,54.0,48,119,14.0,0.0
11918,54.0,3,104,13.0,0.0
11919,76.0,57,47,10.0,0.0
11920,74.0,12,47,10.0,0.0
11921,73.0,3,104,11.0,0.0
11922,73.0,57,47,10.0,0.0
11923,70.0,0,104,12.0,0.0
11924,54.0,0,119,14.0,0.0
11925,54.0,48,119,13.0,0.0
11926,71.0,12,47,10.0,0.0
11927,70.0,57,47,10.0,0.0
11928,73.0,0,104,11.0,0.0
11929,66.0,15,104,12.0,0.0
11930,76.0,60,59,10.0,0.0
11931,42.0,48,119,14.0,0.0
11932,70.0,0,119,11.0,0.0
11933,78.0,45,59,10.0,0.0
11934,42.0,3,104,13.0,0.0
11935,66.0,0,119,12.0,0.0
11936,79.0,12,47,10.0,0.0
11937,42.0,48,119,14.0,0.0
11938,42.0,3,104,13.0,0.0
11939,78.0,57,47,10.0,0.0
11940,76.0,12,47,10.0,0.0
11941,42.0,48,119,13.0,0.0
11942,66.0,3,104,12.0,0.0
11943,42.0,0,119,14.0,0.0
11944,70.0,0,104,11.0,0.0
11945,74.0,57,47,10.0,0.0
11946,73.0,12,47,10.0,0.0
11947,66.0,3,104,12.0,0.0
11948,71.0,0,104,11.0,0.0
11949,74.0,57,47,10.0,0.0
11950,78.0,72,47,10.0,0.0
11951,47.0,48,119,14.0,0.0
11952,62.0,0,119,12.0,0.0
11953,71.0,45,59,10.0,0.0
11954,66.0,0,119,11.0,0.0
11955,47.0,15,104,13.0,0.0
11956,73.0,0,59,10.0,0.0
11957,74.0,57,47,10.0,0.0
11958,47.0,3,104,13.0,0.0
11959,47.0,48,119,14.0,0.0
11960,76.0,12,47,10.0,0.0
11961,47.0,48,119,13.0,0.0
11962,47.0,0,119,14.0,0.0
11963,71.0,3,104,11.0,0.0
11964,74.0,57,47,10.0,0.0
11965,66.0,0,104,12.0,0.0
11966,76.0,12,47,10.0,0.0
11967,63.0,3,104,12.0,0.0
11968,72.0,0,104,11.0,0.0
11969,78.0,57,47,10.0,0.0
11970,81.0,72,47,10.0,0.0
11971,54.0,15,104,13.0,0.0
11972,54.0,0,119,14.0,0.0
11973,72.0,0,119,11.0,0.0
11974,75.0,45,59,10.0,0.0
11975,69.0,0,119,12.0,0.0
11976,76.0,48,59,10.0,0.0
11977,78.0,57,47,10.0,0.0
11978,54.0,48,119,14.0,0.0
11979,54.0,3,104,13.0,0.0
11980,79.0,12,47,10.0,0.0
11981,78.0,57,47,10.0,0.0
11982,54.0,0,119,13.0,0.0
11983,54.0,48,119,14.0,0.0
11984,72.0,3,104,11.0,0.0
11985,63.0,0,104,12.0,0.0
11986,79.0,12,47,10.0,0.0
11987,63.0,0,104,12.0,0.0
11988,66.0,15,104,11.0,0.0
11989,81.0,57,47,10.0,0.0
11990,72.0,60,59,10.0,0.0
11991,51.0,0,119,14.0,0.0
11992,71.0,45,59,10.0,0.0
11993,66.0,0,119,12.0,0.0
11994,51.0,3,104,13.0,0.0
11995,69.0,48,119,11.0,0.0
11996,72.0,12,47,10.0,0.0
11997,51.0,60,119,14.0,0.0
11998,81.0,57,47,10.0,0.0
11999,51.0,15,104,13.0,0.0
12000,72.0,0,59,10.0,0.0
12001,51.0,48,119,13.0,0.0
12002,71.0,45,59,10.0,0.0
12003,66.0,0,104,12.0,0.0
12004,51.0,0,119,14.0,0.0
12005,69.0,3,104,11.0,0.0
12006,69.0,12,47,10.0,0.0
12007,66.0,0,104,12.0,0.0
12008,71.0,57,47,10.0,0.0
12009,63.0,3,104,11.0,0.0
12010,73.0,60,47,10.0,0.0
12011,47.0,3,104,13.0,0.0
12012,71.0,0,119,11.0,0.0
12013,75.0,57,47,10.0,0.0
12014,66.0,48,119,12.0,0.0
12015,47.0,0,119,14.0,0.0
12016,76.0,12,47,10.0,0.0
12017,78.0,57,47,10.0,0.0
12018,47.0,48,119,14.0,0.0
12019,47.0,3,104,13.0,0.0
12020,79.0,12,47,10.0,0.0
12021,71.0,0,104,12.0,0.0
12022,75.0,3,104,11.0,0.0
12023,47.0,48,119,14.0,0.0
12024,47.0,0,104,13.0,0.0
12025,81.0,57,47,10.0,0.0
12026,78.0,12,47,10.0,0.0
12027,71.0,0,239,12.0,0.0
12028,52.0,48,119,14.0,0.0
12029,76.0,48,239,11.0,0.0
12030,79.0,57,47,10.0,0.0
12031,52.0,3,104,13.0,0.0
12032,76.0,12,47,10.0,0.0
12033,71.0,57,47,10.0,0.0
12034,64.0,3,104,13.0,0.0
12035,64.0,0,119,14.0,0.0
12036,74.0,12,47,10.0,0.0
12037,73.0,57,47,10.0,0.0
12038,57.0,48,119,14.0,0.0
12039,57.0,3,104,13.0,0.0
12040,76.0,12,47,10.0,0.0
12041,69.0,57,47,10.0,0.0
12042,61.0,3,104,13.0,0.0
12043,61.0,48,119,14.0,0.0
12044,79.0,12,47,10.0,0.0
12045,50.0,48,119,14.0,0.0
12046,50.0,3,104,13.0,0.0
12047,78.0,57,47,10.0,0.0
12048,74.0,12,47,10.0,0.0
12049,69.0,57,47,10.0,0.0
12050,62.0,48,119,14.0,0.0
12051,62.0,3,104,13.0,0.0
12052,72.0,12,47,10.0,0.0
12053,55.0,3,104,13.0,0.0
12054,55.0,48,119,14.0,0.0
12055,71.0,57,47,10.0,0.0
12056,74.0,12,47,10.0,0.0
12057,59.0,48,119,14.0,0.0
12058,67.0,57,47,10.0,0.0
12059,59.0,3,104,13.0,0.0
12060,78.0,12,47,10.0,0.0
12061,76.0,57,47,10.0,0.0
12062,49.0,48,119,14.0,0.0
12063,49.0,3,104,13.0,0.0
12064,73.0,12,47,10.0,0.0
12065,61.0,48,119,14.0,0.0
12066,68.0,57,47,10.0,0.0
12067,61.0,3,104,13.0,0.0
12068,71.0,12,47,10.0,0.0
12069,70.0,57,47,10.0,0.0
12070,54.0,48,119,14.0,0.0
12071,54.0,3,104,13.0,0.0
12072,73.0,12,47,10.0,0.0
12073,58.0,3,104,13.0,0.0
12074,58.0,48,119,14.0,0.0
12075,66.0,57,47,10.0,0.0
12076,76.0,12,47,10.0,0.0
12077,74.0,57,47,10.0,0.0
12078,47.0,48,119,14.0,0.0
12079,47.0,3,104,13.0,0.0
12080,71.0,12,47,10.0,0.0
12081,59.0,3,104,13.0,0.0
12082,59.0,48,119,14.0,0.0
12083,73.0,57,47,10.0,0.0
12084,74.0,12,47,10.0,0.0
12085,55.0,48,119,14.0,0.0
12086,55.0,3,104,13.0,0.0
12087,76.0,57,47,10.0,0.0
12088,78.0,12,47,10.0,0.0
12089,79.0,57,47,10.0,0.0
12090,52.0,48,119,14.0,0.0
12091,52.0,3,104,13.0,0.0
12092,76.0,12,47,10.0,0.0
12093,54.0,0,239,14.0,0.0
12094,54.0,0,239,13.0,0.0
12095,76.0,3,1184,4.0,0.0
12096,70.0,72,47,10.0,0.0
12097,76.0,48,59,10.0,0.0
12098,78.0,48,59,10.0,0.0
12099,66.0,12,47,11.0,0.0
12100,66.0,48,119,0.0,0.0
12101,76.0,0,47,10.0,0.0
12102,68.0,12,47,11.0,0.0
12103,78.0,57,47,10.0,0.0
12104,70.0,3,104,11.0,0.0
12105,73.0,48,239,12.0,0.0
12106,66.0,48,119,0.0,0.0
12107,76.0,12,47,10.0,0.0
12108,70.0,57,47,11.0,0.0
12109,66.0,3,104,0.0,0.0
12110,78.0,0,47,10.0,0.0
12111,76.0,12,47,10.0,0.0
12112,71.0,0,47,11.0,0.0
12113,42.0,0,239,13.0,0.0
12114,66.0,48,119,0.0,0.0
12115,70.0,57,47,10.0,0.0
12116,73.0,15,104,11.0,0.0
12117,42.0,0,239,14.0,0.0
12118,76.0,0,59,10.0,0.0
12119,78.0,48,59,10.0,0.0
12120,66.0,48,119,0.0,0.0
12121,70.0,12,47,11.0,0.0
12122,66.0,0,119,1.0,0.0
12123,76.0,0,47,10.0,0.0
12124,71.0,12,47,11.0,0.0
12125,73.0,3,104,11.0,0.0
12126,66.0,48,119,0.0,0.0
12127,70.0,48,239,12.0,0.0
12128,78.0,57,47,10.0,0.0
12129,66.0,0,119,1.0,0.0
12130,76.0,12,47,10.0,0.0
12131,78.0,0,47,10.0,0.0
12132,66.0,0,104,1.0,0.0
12133,66.0,3,104,0.0,0.0
12134,73.0,57,47,11.0,0.0
12135,74.0,0,47,11.0,0.0
12136,76.0,12,47,10.0,0.0
12137,66.0,48,119,1.0,0.0
12138,70.0,57,47,10.0,0.0
12139,66.0,0,119,0.0,0.0
12140,76.0,15,104,11.0,0.0
12141,76.0,0,59,10.0,0.0
12142,66.0,0,119,0.0,0.0
12143,54.0,48,119,14.0,0.0
12144,78.0,45,59,10.0,0.0
12145,66.0,0,119,2.0,0.0
12146,54.0,0,104,13.0,0.0
12147,66.0,0,119,1.0,0.0
12148,76.0,12,47,11.0,0.0
12149,79.0,12,47,10.0,0.0
12150,74.0,0,47,11.0,0.0
12151,66.0,0,119,0.0,0.0
12152,66.0,0,119,2.0,0.0
12153,66.0,48,119,1.0,0.0
12154,66.0,48,239,12.0,0.0
12155,58.0,0,119,14.0,0.0
12156,73.0,3,224,4.0,0.0
12157,76.0,3,104,11.0,0.0
12158,78.0,57,47,10.0,0.0
12159,58.0,0,104,13.0,0.0
12160,76.0,12,47,10.0,0.0
12161,54.0,0,119,14.0,0.0
12162,78.0,57,47,11.0,0.0
12163,66.0,0,104,1.0,0.0
12164,54.0,0,104,13.0,0.0
12165,66.0,0,104,2.0,0.0
12166,75.0,0,47,10.0,0.0
12167,66.0,0,104,0.0,0.0
12168,76.0,0,47,11.0,0.0
12169,73.0,12,47,10.0,0.0
12170,66.0,48,119,0.0,0.0
12171,69.0,3,1184,5.0,0.0
12172,59.0,48,239,13.0,0.0
12173,69.0,72,47,10.0,0.0
12174,66.0,0,119,2.0,0.0
12175,59.0,0,239,14.0,0.0
12176,75.0,3,1424,4.0,0.0
12177,66.0,0,119,1.0,0.0
12178,75.0,3,224,11.0,0.0
12179,75.0,0,59,10.0,0.0
12180,78.0,45,59,10.0,0.0
12181,59.0,12,47,12.0,0.0
12182,61.0,0,47,12.0,0.0
12183,75.0,12,47,10.0,0.0
12184,78.0,57,47,10.0,0.0
12185,63.0,3,104,12.0,0.0
12186,71.0,48,239,11.0,0.0
12187,75.0,60,47,10.0,0.0
12188,63.0,0,47,12.0,0.0
12189,78.0,60,47,10.0,0.0
12190,64.0,12,47,12.0,0.0
12191,75.0,0,47,10.0,0.0
12192,69.0,57,47,10.0,0.0
12193,47.0,0,239,14.0,0.0
12194,66.0,15,104,12.0,0.0
12195,47.0,48,239,13.0,0.0
12196,75.0,48,59,10.0,0.0
12197,63.0,12,47,12.0,0.0
12198,78.0,48,59,10.0,0.0
12199,75.0,12,47,10.0,0.0
12200,64.0,0,47,12.0,0.0
12201,66.0,3,104,12.0,0.0
12202,78.0,57,47,10.0,0.0
12203,75.0,48,239,11.0,0.0
12204,75.0,60,47,10.0,0.0
12205,78.0,0,47,10.0,0.0
12206,66.0,60,47,12.0,0.0
12207,68.0,0,47,12.0,0.0
12208,75.0,12,47,10.0,0.0
12209,69.0,15,104,12.0,0.0
12210,69.0,57,47,10.0,0.0
12211,75.0,48,59,10.0,0.0
12212,78.0,45,59,10.0,0.0
12213,59.0,48,119,14.0,0.0
12214,59.0,0,104,13.0,0.0
12215,69.0,12,47,12.0,0.0
12216,68.0,0,47,12.0,0.0
12217,76.0,12,47,10.0,0.0
12218,69.0,3,104,12.0,0.0
12219,78.0,48,239,11.0,0.0
12220,47.0,48,119,14.0,0.0
12221,47.0,0,104,13.0,0.0
12222,66.0,0,224,5.0,0.0
12223,75.0,57,47,10.0,0.0
12224,73.0,12,47,10.0,0.0
12225,51.0,0,104,13.0,0.0
12226,71.0,57,47,12.0,0.0
12227,51.0,0,119,14.0,0.0
12228,71.0,0,47,10.0,0.0
12229,69.0,0,47,12.0,0.0
12230,69.0,12,47,10.0,0.0
12231,74.0,0,1424,4.0,0.0
12232,52.0,48,239,13.0,0.0
12233,52.0,0,239,14.0,0.0
12234,68.0,72,47,10.0,0.0
12235,68.0,3,224,12.0,0.0
12236,68.0,0,1424,5.0,0.0
12237,74.0,48,59,10.0,0.0
12238,64.0,12,47,11.0,0.0
12239,76.0,45,59,10.0,0.0
12240,66.0,12,47,11.0,0.0
12241,74.0,0,47,10.0,0.0
12242,76.0,57,47,10.0,0.0
12243,71.0,48,239,12.0,0.0
12244,68.0,3,104,11.0,0.0
12245,74.0,60,47,10.0,0.0
12246,76.0,60,47,10.0,0.0
12247,68.0,0,47,11.0,0.0
12248,69.0,12,47,11.0,0.0
12249,74.0,0,47,10.0,0.0
12250,40.0,0,239,14.0,0.0
12251,71.0,15,104,11.0,0.0
12252,68.0,57,47,10.0,0.0
12253,40.0,48,239,13.0,0.0
12254,74.0,48,59,10.0,0.0
12255,76.0,48,59,10.0,0.0
12256,68.0,12,47,11.0,0.0
12257,69.0,0,47,11.0,0.0
12258,74.0,12,47,10.0,0.0
12259,68.0,48,239,12.0,0.0
12260,71.0,3,104,11.0,0.0
12261,76.0,57,47,10.0,0.0
12262,74.0,60,47,10.0,0.0
12263,76.0,0,47,10.0,0.0
12264,71.0,60,47,11.0,0.0
12265,74.0,0,47,10.0,0.0
12266,73.0,12,47,11.0,0.0
12267,74.0,15,104,11.0,0.0
12268,68.0,57,47,10.0,0.0
12269,74.0,48,59,10.0,0.0
12270,52.0,48,119,14.0,0.0
12271,74.0,12,47,11.0,0.0
12272,76.0,45,59,10.0,0.0
12273,52.0,3,104,13.0,0.0
12274,78.0,12,47,10.0,0.0
12275,73.0,0,47,11.0,0.0
12276,64.0,48,239,12.0,0.0
12277,76.0,57,47,10.0,0.0
12278,56.0,48,119,14.0,0.0
12279,56.0,0,104,13.0,0.0
12280,74.0,3,104,11.0,0.0
12281,74.0,12,47,10.0,0.0
12282,76.0,0,47,11.0,0.0
12283,52.0,0,119,14.0,0.0
12284,52.0,3,104,13.0,0.0
12285,73.0,57,47,10.0,0.0
12286,71.0,0,47,10.0,0.0
12287,74.0,12,47,11.0,0.0
12288,67.0,0,1424,5.0,0.0
12289,73.0,3,224,11.0,0.0
12290,67.0,72,47,10.0,0.0
12291,57.0,0,239,13.0,0.0
12292,57.0,0,239,14.0,0.0
12293,73.0,0,1424,4.0,0.0
12294,73.0,48,59,10.0,0.0
12295,69.0,48,119,0.0,0.0
12296,76.0,45,59,10.0,0.0
12297,57.0,12,47,12.0,0.0
12298,59.0,12,47,12.0,0.0
12299,73.0,0,47,10.0,0.0
12300,61.0,3,104,12.0,0.0
12301,69.0,48,119,0.0,0.0
12302,76.0,57,47,10.0,0.0
12303,69.0,48,239,11.0,0.0
12304,73.0,12,47,10.0,0.0
12305,69.0,3,104,0.0,0.0
12306,76.0,0,47,10.0,0.0
12307,61.0,57,47,12.0,0.0
12308,62.0,0,47,12.0,0.0
12309,73.0,12,47,10.0,0.0
12310,69.0,15,104,0.0,0.0
12311,67.0,57,47,10.0,0.0
12312,45.0,0,239,13.0,0.0
12313,64.0,0,104,12.0,0.0
12314,45.0,48,239,14.0,0.0
12315,73.0,48,59,10.0,0.0
12316,61.0,12,47,12.0,0.0
12317,76.0,45,59,10.0,0.0
12318,69.0,3,104,0.0,0.0
12319,69.0,0,119,1.0,0.0
12320,73.0,12,47,10.0,0.0
12321,62.0,0,47,12.0,0.0
12322,76.0,57,47,10.0,0.0
12323,64.0,0,104,12.0,0.0
12324,69.0,48,119,1.0,0.0
12325,69.0,3,104,0.0,0.0
12326,73.0,48,239,11.0,0.0
12327,73.0,12,47,10.0,0.0
12328,76.0,57,47,10.0,0.0
12329,64.0,0,47,12.0,0.0
12330,69.0,0,104,1.0,0.0
12331,69.0,3,104,0.0,0.0
12332,73.0,0,47,10.0,0.0
12333,66.0,12,47,12.0,0.0
12334,67.0,57,47,10.0,0.0
12335,69.0,15,104,1.0,0.0
12336,69.0,0,104,0.0,0.0
12337,67.0,0,104,12.0,0.0
12338,73.0,48,59,10.0,0.0
12339,69.0,0,104,1.0,0.0
12340,76.0,45,59,10.0,0.0
12341,45.0,0,119,3.0,0.0
12342,57.0,0,119,14.0,0.0
12343,57.0,3,104,13.0,0.0
12344,67.0,12,47,12.0,0.0
12345,69.0,60,119,2.0,0.0
12346,76.0,0,104,0.0,0.0
12347,66.0,0,47,12.0,0.0
12348,74.0,12,47,10.0,0.0
12349,45.0,0,119,14.0,0.0
12350,81.0,0,104,0.0,0.0
12351,45.0,0,104,13.0,0.0
12352,76.0,15,104,1.0,0.0
12353,73.0,45,59,10.0,0.0
12354,76.0,0,224,11.0,0.0
12355,69.0,48,119,2.0,0.0
12356,45.0,0,119,3.0,0.0
12357,67.0,0,104,12.0,0.0
12358,71.0,0,59,10.0,0.0
12359,69.0,0,104,1.0,0.0
12360,45.0,0,119,3.0,0.0
12361,49.0,3,104,13.0,0.0
12362,69.0,0,104,2.0,0.0
12363,69.0,12,47,12.0,0.0
12364,76.0,0,104,0.0,0.0
12365,69.0,45,59,10.0,0.0
12366,49.0,48,119,14.0,0.0
12367,67.0,12,47,10.0,0.0
12368,67.0,0,47,12.0,0.0
12369,74.0,0,119,4.0,0.0
12370,50.0,0,119,14.0,0.0
12371,66.0,57,47,10.0,0.0
12372,62.0,0,119,2.0,0.0
12373,78.0,0,119,0.0,0.0
12374,50.0,3,104,13.0,0.0
12375,74.0,48,239,11.0,0.0
12376,50.0,48,119,3.0,0.0
12377,66.0,0,119,5.0,0.0
12378,66.0,0,239,12.0,0.0
12379,69.0,0,119,1.0,0.0
12380,62.0,12,47,10.0,0.0
12381,49.0,3,104,13.0,0.0
12382,64.0,57,47,10.0,0.0
12383,49.0,0,119,14.0,0.0
12384,67.0,12,47,10.0,0.0
12385,50.0,48,119,14.0,0.0
12386,66.0,57,47,10.0,0.0
12387,50.0,3,104,13.0,0.0
12388,69.0,12,47,10.0,0.0
12389,52.0,48,119,14.0,0.0
12390,52.0,3,104,13.0,0.0
12391,68.0,57,47,10.0,0.0
12392,71.0,12,47,10.0,0.0
12393,54.0,48,119,14.0,0.0
12394,54.0,3,104,13.0,0.0
12395,69.0,57,47,10.0,0.0
12396,66.0,12,47,10.0,0.0
12397,68.0,57,47,10.0,0.0
12398,52.0,3,104,13.0,0.0
12399,52.0,48,119,14.0,0.0
12400,71.0,12,47,10.0,0.0
12401,54.0,3,104,13.0,0.0
12402,69.0,57,47,10.0,0.0
12403,54.0,48,119,14.0,0.0
12404,73.0,12,47,10.0,0.0
12405,56.0,3,104,13.0,0.0
12406,56.0,48,119,14.0,0.0
12407,71.0,57,47,10.0,0.0
12408,74.0,12,47,10.0,0.0
12409,73.0,57,47,10.0,0.0
12410,57.0,3,104,13.0,0.0
12411,57.0,48,119,14.0,0.0
12412,69.0,12,47,10.0,0.0
12413,71.0,57,47,10.0,0.0
12414,56.0,48,119,14.0,0.0
12415,56.0,3,104,13.0,0.0
12416,74.0,12,47,10.0,0.0
12417,57.0,3,104,13.0,0.0
12418,57.0,48,119,14.0,0.0
12419,73.0,57,47,10.0,0.0
12420,76.0,12,47,10.0,0.0
12421,54.0,3,104,13.0,0.0
12422,74.0,57,47,10.0,0.0
12423,54.0,105,119,14.0,0.0
12424,78.0,12,47,10.0,0.0
12425,76.0,57,167,10.0,0.0
12426,49.0,15,104,13.0,0.0
12427,49.0,48,119,14.0,0.0
12428,50.0,105,119,14.0,0.0
12429,50.0,3,104,13.0,0.0
12430,78.0,12,47,10.0,0.0
12431,71.0,57,167,10.0,0.0
12432,52.0,15,104,13.0,0.0
12433,52.0,48,119,14.0,0.0
12434,40.0,3,104,13.0,0.0
12435,40.0,48,119,14.0,0.0
12436,69.0,12,47,10.0,0.0
12437,69.0,57,47,10.0,0.0
12438,45.0,48,119,14.0,0.0
12439,45.0,3,104,13.0,0.0
12440,71.0,12,47,10.0,0.0
12441,45.0,12,47,13.0,0.0
12442,45.0,45,59,14.0,0.0
12443,73.0,0,47,4.0,0.0
12444,76.0,0,104,0.0,0.0
12445,69.0,0,104,12.0,0.0
12446,73.0,0,47,10.0,0.0
12447,76.0,3,104,11.0,0.0
12448,76.0,0,104,5.0,0.0
12449,47.0,12,47,13.0,0.0
12450,74.0,0,47,10.0,0.0
12451,74.0,0,47,4.0,0.0
12452,47.0,48,59,14.0,0.0
12453,81.0,0,104,0.0,0.0
12454,49.0,0,104,13.0,0.0
12455,49.0,48,119,14.0,0.0
12456,76.0,57,47,4.0,0.0
12457,69.0,3,104,12.0,0.0
12458,76.0,0,47,10.0,0.0
12459,69.0,0,104,5.0,0.0
12460,69.0,0,104,11.0,0.0
12461,78.0,0,47,10.0,0.0
12462,78.0,12,47,4.0,0.0
12463,76.0,3,104,1.0,0.0
12464,76.0,0,47,10.0,0.0
12465,76.0,0,119,0.0,0.0
12466,73.0,3,224,5.0,0.0
12467,69.0,0,104,12.0,0.0
12468,49.0,45,59,14.0,0.0
12469,76.0,12,47,4.0,0.0
12470,73.0,0,224,11.0,0.0
12471,49.0,0,47,13.0,0.0
12472,78.0,0,47,4.0,0.0
12473,78.0,0,47,10.0,0.0
12474,50.0,12,47,13.0,0.0
12475,50.0,48,59,14.0,0.0
12476,52.0,0,104,13.0,0.0
12477,69.0,0,104,12.0,0.0
12478,79.0,57,47,10.0,0.0
12479,52.0,48,119,14.0,0.0
12480,79.0,0,47,4.0,0.0
12481,79.0,0,104,1.0,0.0
12482,76.0,12,47,10.0,0.0
12483,76.0,0,47,4.0,0.0
12484,49.0,0,47,13.0,0.0
12485,76.0,0,104,0.0,0.0
12486,76.0,0,119,1.0,0.0
12487,76.0,0,104,5.0,0.0
12488,69.0,12,47,4.0,0.0
12489,69.0,3,104,12.0,0.0
12490,76.0,0,104,11.0,0.0
12491,69.0,0,47,10.0,0.0
12492,49.0,45,59,14.0,0.0
12493,50.0,12,47,13.0,0.0
12494,50.0,48,59,14.0,0.0
12495,71.0,0,47,10.0,0.0
12496,71.0,0,47,4.0,0.0
12497,73.0,0,47,10.0,0.0
12498,52.0,48,119,14.0,0.0
12499,67.0,0,104,11.0,0.0
12500,69.0,0,104,12.0,0.0
12501,67.0,0,104,5.0,0.0
12502,79.0,3,104,0.0,0.0
12503,73.0,57,47,4.0,0.0
12504,52.0,0,104,13.0,0.0
12505,74.0,12,47,4.0,0.0
12506,74.0,0,47,10.0,0.0
12507,76.0,3,104,1.0,0.0
12508,73.0,0,47,10.0,0.0
12509,73.0,0,224,11.0,0.0
12510,73.0,0,224,5.0,0.0
12511,52.0,45,59,14.0,0.0
12512,69.0,0,104,12.0,0.0
12513,76.0,0,119,0.0,0.0
12514,52.0,0,47,13.0,0.0
12515,73.0,12,47,4.0,0.0
12516,54.0,48,59,14.0,0.0
12517,54.0,0,47,13.0,0.0
12518,74.0,0,47,10.0,0.0
12519,74.0,12,47,4.0,0.0
12520,81.0,3,104,1.0,0.0
12521,69.0,0,104,12.0,0.0
12522,76.0,57,47,10.0,0.0
12523,55.0,0,104,13.0,0.0
12524,76.0,0,47,4.0,0.0
12525,55.0,48,119,14.0,0.0
12526,74.0,0,47,4.0,0.0
12527,74.0,12,47,10.0,0.0
12528,76.0,0,104,5.0,0.0
12529,69.0,0,104,1.0,0.0
12530,76.0,3,104,11.0,0.0
12531,76.0,0,47,0.0,0.0
12532,55.0,12,47,13.0,0.0
12533,45.0,0,119,3.0,0.0
12534,69.0,0,104,2.0,0.0
12535,69.0,0,104,12.0,0.0
12536,55.0,45,59,14.0,0.0
12537,73.0,0,47,10.0,0.0
12538,73.0,0,47,4.0,0.0
12539,54.0,48,59,14.0,0.0
12540,74.0,0,47,0.0,0.0
12541,74.0,12,47,4.0,0.0
12542,54.0,0,47,13.0,0.0
12543,74.0,0,47,10.0,0.0
12544,45.0,48,119,3.0,0.0
12545,76.0,0,104,0.0,0.0
12546,69.0,3,104,12.0,0.0
12547,55.0,0,119,14.0,0.0
12548,69.0,0,104,2.0,0.0
12549,69.0,0,104,1.0,0.0
12550,76.0,57,47,4.0,0.0
12551,69.0,0,104,11.0,0.0
12552,76.0,0,47,10.0,0.0
12553,55.0,0,104,13.0,0.0
12554,69.0,0,104,5.0,0.0
12555,74.0,12,47,10.0,0.0
12556,74.0,0,47,4.0,0.0
12557,73.0,3,104,5.0,0.0
12558,69.0,0,104,12.0,0.0
12559,45.0,0,119,3.0,0.0
12560,73.0,0,47,10.0,0.0
12561,69.0,0,104,1.0,0.0
12562,57.0,45,59,14.0,0.0
12563,69.0,0,104,2.0,0.0
12564,57.0,0,47,13.0,0.0
12565,73.0,0,104,11.0,0.0
12566,78.0,12,47,0.0,0.0
12567,73.0,0,47,4.0,0.0
12568,71.0,12,47,10.0,0.0
12569,55.0,48,59,14.0,0.0
12570,71.0,0,47,4.0,0.0
12571,55.0,0,47,13.0,0.0
12572,76.0,0,47,0.0,0.0
12573,69.0,0,104,12.0,0.0
12574,62.0,0,119,2.0,0.0
12575,74.0,57,47,5.0,0.0
12576,74.0,0,104,0.0,0.0
12577,69.0,3,104,4.0,0.0
12578,74.0,0,47,11.0,0.0
12579,69.0,0,104,10.0,0.0
12580,54.0,48,119,14.0,0.0
12581,50.0,0,119,3.0,0.0
12582,54.0,0,104,13.0,0.0
12583,69.0,0,119,1.0,0.0
12584,73.0,12,47,11.0,0.0
12585,73.0,0,47,5.0,0.0
12586,74.0,12,47,5.0,0.0
12587,74.0,0,47,11.0,0.0
12588,47.0,45,59,14.0,0.0
12589,78.0,0,104,10.0,0.0
12590,78.0,3,104,4.0,0.0
12591,71.0,0,104,12.0,0.0
12592,78.0,0,104,0.0,0.0
12593,47.0,0,47,13.0,0.0
12594,49.0,12,47,13.0,0.0
12595,76.0,0,47,11.0,0.0
12596,76.0,0,47,5.0,0.0
12597,49.0,48,59,14.0,0.0
12598,71.0,3,104,4.0,0.0
12599,83.0,0,104,0.0,0.0
12600,51.0,48,119,14.0,0.0
12601,78.0,57,47,11.0,0.0
12602,71.0,0,104,10.0,0.0
12603,71.0,0,104,12.0,0.0
12604,78.0,0,47,5.0,0.0
12605,51.0,0,104,13.0,0.0
12606,79.0,12,47,11.0,0.0
12607,79.0,0,47,5.0,0.0
12608,51.0,0,47,13.0,0.0
12609,78.0,0,47,5.0,0.0
12610,78.0,48,119,0.0,0.0
12611,78.0,3,104,1.0,0.0
12612,78.0,12,47,11.0,0.0
12613,75.0,3,224,10.0,0.0
12614,75.0,0,224,4.0,0.0
12615,71.0,0,104,12.0,0.0
12616,51.0,45,59,14.0,0.0
12617,79.0,0,47,11.0,0.0
12618,52.0,0,59,14.0,0.0
12619,79.0,12,47,5.0,0.0
12620,52.0,0,47,13.0,0.0
12621,71.0,0,104,12.0,0.0
12622,81.0,57,47,11.0,0.0
12623,54.0,0,104,13.0,0.0
12624,54.0,48,119,14.0,0.0
12625,81.0,0,47,5.0,0.0
12626,81.0,0,104,1.0,0.0
12627,78.0,0,47,5.0,0.0
12628,78.0,12,47,11.0,0.0
12629,78.0,0,104,4.0,0.0
12630,51.0,45,59,14.0,0.0
12631,71.0,0,104,12.0,0.0
12632,78.0,0,104,0.0,0.0
12633,78.0,0,119,1.0,0.0
12634,71.0,0,47,5.0,0.0
12635,78.0,3,104,10.0,0.0
12636,51.0,12,47,13.0,0.0
12637,71.0,0,47,11.0,0.0
12638,52.0,0,47,13.0,0.0
12639,73.0,12,47,11.0,0.0
12640,73.0,0,47,5.0,0.0
12641,52.0,48,59,14.0,0.0
12642,75.0,0,47,5.0,0.0
12643,54.0,48,119,14.0,0.0
12644,75.0,57,47,11.0,0.0
12645,69.0,0,104,10.0,0.0
12646,81.0,0,104,0.0,0.0
12647,54.0,0,104,13.0,0.0
12648,69.0,3,104,4.0,0.0
12649,71.0,0,104,12.0,0.0
12650,76.0,0,47,5.0,0.0
12651,76.0,12,47,11.0,0.0
12652,75.0,0,47,5.0,0.0
12653,71.0,3,104,12.0,0.0
12654,75.0,0,47,11.0,0.0
12655,54.0,12,47,13.0,0.0
12656,78.0,0,104,1.0,0.0
12657,75.0,0,224,10.0,0.0
12658,54.0,45,59,14.0,0.0
12659,75.0,0,224,4.0,0.0
12660,78.0,48,119,0.0,0.0
12661,76.0,0,47,5.0,0.0
12662,56.0,12,47,13.0,0.0
12663,76.0,0,47,11.0,0.0
12664,56.0,0,59,14.0,0.0
12665,78.0,57,47,11.0,0.0
12666,57.0,48,119,14.0,0.0
12667,71.0,0,104,12.0,0.0
12668,57.0,3,104,13.0,0.0
12669,83.0,0,104,1.0,0.0
12670,78.0,0,47,5.0,0.0
12671,76.0,0,47,5.0,0.0
12672,76.0,12,47,11.0,0.0
12673,57.0,12,47,13.0,0.0
12674,71.0,0,104,12.0,0.0
12675,78.0,48,119,1.0,0.0
12676,75.0,0,47,5.0,0.0
12677,57.0,45,59,14.0,0.0
12678,75.0,0,47,11.0,0.0
12679,78.0,0,47,0.0,0.0
12680,78.0,0,104,4.0,0.0
12681,78.0,3,104,10.0,0.0
12682,76.0,0,47,0.0,0.0
12683,76.0,12,47,11.0,0.0
12684,56.0,0,47,13.0,0.0
12685,56.0,0,59,14.0,0.0
12686,76.0,0,47,5.0,0.0
12687,57.0,0,104,13.0,0.0
12688,78.0,0,47,5.0,0.0
12689,71.0,3,104,12.0,0.0
12690,71.0,0,104,4.0,0.0
12691,78.0,57,47,11.0,0.0
12692,78.0,0,104,0.0,0.0
12693,71.0,0,104,10.0,0.0
12694,57.0,48,119,14.0,0.0
12695,76.0,0,47,11.0,0.0
12696,76.0,12,47,5.0,0.0
12697,59.0,0,47,13.0,0.0
12698,71.0,0,104,12.0,0.0
12699,75.0,3,104,10.0,0.0
12700,75.0,12,47,11.0,0.0
12701,75.0,0,104,4.0,0.0
12702,80.0,0,47,0.0,0.0
12703,59.0,45,59,14.0,0.0
12704,75.0,0,47,5.0,0.0
12705,73.0,0,47,11.0,0.0
12706,57.0,48,59,14.0,0.0
12707,57.0,12,47,13.0,0.0
12708,73.0,0,47,5.0,0.0
12709,78.0,0,47,0.0,0.0
12710,56.0,0,119,14.0,0.0
12711,76.0,48,119,0.0,0.0
12712,76.0,0,104,4.0,0.0
12713,71.0,0,104,11.0,0.0
12714,71.0,57,47,12.0,0.0
12715,71.0,3,104,5.0,0.0
12716,76.0,0,104,10.0,0.0
12717,56.0,0,104,13.0,0.0
12718,76.0,12,47,12.0,0.0
12719,64.0,0,47,4.0,0.0
12720,59.0,48,119,14.0,0.0
12721,76.0,0,119,0.0,0.0
12722,59.0,0,104,13.0,0.0
12723,76.0,3,104,5.0,0.0
12724,76.0,0,104,11.0,0.0
12725,64.0,57,47,10.0,0.0
12726,68.0,0,47,12.0,0.0
12727,66.0,0,47,10.0,0.0
12728,69.0,12,47,12.0,0.0
12729,66.0,0,47,4.0,0.0
12730,68.0,3,104,4.0,0.0
12731,76.0,0,104,11.0,0.0
12732,76.0,0,104,5.0,0.0
12733,71.0,57,47,12.0,0.0
12734,52.0,48,119,14.0,0.0
12735,76.0,0,119,0.0,0.0
12736,52.0,0,104,13.0,0.0
12737,68.0,0,104,10.0,0.0
12738,73.0,12,47,12.0,0.0
12739,56.0,0,239,14.0,0.0
12740,56.0,0,224,13.0,0.0
12741,76.0,0,104,5.0,0.0
12742,76.0,0,104,11.0,0.0
12743,76.0,3,104,0.0,0.0
12744,71.0,0,47,12.0,0.0
12745,68.0,0,47,10.0,0.0
12746,68.0,57,47,4.0,0.0
12747,73.0,60,47,12.0,0.0
12748,69.0,0,47,4.0,0.0
12749,69.0,0,47,10.0,0.0
12750,76.0,0,104,5.0,0.0
12751,76.0,0,104,11.0,0.0
12752,71.0,3,104,10.0,0.0
12753,76.0,48,119,0.0,0.0
12754,74.0,57,47,12.0,0.0
12755,71.0,0,104,4.0,0.0
12756,71.0,12,47,12.0,0.0
12757,68.0,0,47,4.0,0.0
12758,59.0,0,104,13.0,0.0
12759,76.0,3,104,11.0,0.0
12760,68.0,57,47,10.0,0.0
12761,64.0,0,47,12.0,0.0
12762,59.0,0,119,14.0,0.0
12763,76.0,0,104,5.0,0.0
12764,76.0,0,104,1.0,0.0
12765,76.0,48,119,0.0,0.0
12766,66.0,0,47,12.0,0.0
12767,69.0,0,47,4.0,0.0
12768,69.0,12,47,10.0,0.0
12769,50.0,0,119,14.0,0.0
12770,76.0,3,104,5.0,0.0
12771,76.0,0,104,11.0,0.0
12772,71.0,0,104,10.0,0.0
12773,76.0,48,119,0.0,0.0
12774,71.0,0,104,4.0,0.0
12775,76.0,0,104,1.0,0.0
12776,50.0,0,104,13.0,0.0
12777,68.0,57,47,12.0,0.0
12778,69.0,12,47,12.0,0.0
12779,56.0,48,239,14.0,0.0
12780,71.0,57,47,10.0,0.0
12781,76.0,0,104,1.0,0.0
12782,76.0,0,104,5.0,0.0
12783,71.0,0,47,4.0,0.0
12784,68.0,0,47,12.0,0.0
12785,76.0,0,104,11.0,0.0
12786,76.0,3,104,0.0,0.0
12787,56.0,0,224,13.0,0.0
12788,69.0,0,47,12.0,0.0
12789,73.0,0,47,4.0,0.0
12790,73.0,60,47,10.0,0.0
12791,74.0,0,104,10.0,0.0
12792,76.0,0,104,11.0,0.0
12793,76.0,0,104,5.0,0.0
12794,76.0,3,104,1.0,0.0
12795,74.0,0,104,4.0,0.0
12796,71.0,57,47,12.0,0.0
12797,76.0,0,104,0.0,0.0
12798,69.0,12,47,12.0,0.0
12799,80.0,0,104,1.0,0.0
12800,68.0,57,47,12.0,0.0
12801,76.0,0,104,5.0,0.0
12802,74.0,0,47,10.0,0.0
12803,59.0,0,119,14.0,0.0
12804,59.0,3,104,13.0,0.0
12805,76.0,0,104,2.0,0.0
12806,83.0,48,119,0.0,0.0
12807,76.0,0,104,11.0,0.0
12808,74.0,0,47,4.0,0.0
12809,69.0,0,47,12.0,0.0
12810,73.0,0,47,4.0,0.0
12811,73.0,12,47,10.0,0.0
12812,83.0,0,104,1.0,0.0
12813,52.0,0,119,14.0,0.0
12814,71.0,57,47,12.0,0.0
12815,80.0,48,119,0.0,0.0
12816,52.0,3,104,13.0,0.0
12817,74.0,0,104,4.0,0.0
12818,76.0,0,104,11.0,0.0
12819,76.0,0,104,2.0,0.0
12820,74.0,0,104,10.0,0.0
12821,76.0,0,104,5.0,0.0
12822,69.0,12,47,12.0,0.0
12823,76.0,0,47,4.0,0.0
12824,56.0,0,104,13.0,0.0
12825,83.0,3,104,0.0,0.0
12826,80.0,0,104,1.0,0.0
12827,71.0,0,104,5.0,0.0
12828,71.0,0,104,11.0,0.0
12829,68.0,57,47,12.0,0.0
12830,76.0,0,104,2.0,0.0
12831,76.0,0,47,10.0,0.0
12832,56.0,48,119,14.0,0.0
12833,74.0,12,47,10.0,0.0
12834,66.0,0,47,12.0,0.0
12835,74.0,0,47,4.0,0.0
12836,64.0,0,104,12.0,0.0
12837,85.0,0,119,0.0,0.0
12838,69.0,0,47,5.0,0.0
12839,76.0,0,119,1.0,0.0
12840,45.0,0,104,13.0,0.0
12841,45.0,0,119,14.0,0.0
12842,73.0,3,104,4.0,0.0
12843,69.0,57,47,11.0,0.0
12844,45.0,48,119,3.0,0.0
12845,73.0,0,104,10.0,0.0
12846,76.0,0,119,2.0,0.0
12847,68.0,0,47,5.0,0.0
12848,68.0,12,47,11.0,0.0
12849,73.0,57,47,4.0,0.0
12850,73.0,0,47,10.0,0.0
12851,57.0,48,119,14.0,0.0
12852,69.0,0,47,11.0,0.0
12853,57.0,0,104,13.0,0.0
12854,69.0,0,47,5.0,0.0
12855,61.0,3,104,12.0,0.0
12856,71.0,0,47,5.0,0.0
12857,71.0,0,47,4.0,0.0
12858,71.0,0,47,10.0,0.0
12859,71.0,12,47,11.0,0.0
12860,73.0,0,104,10.0,0.0
12861,66.0,0,344,12.0,0.0
12862,69.0,0,47,5.0,0.0
12863,50.0,0,104,13.0,0.0
12864,69.0,57,47,11.0,0.0
12865,73.0,3,104,4.0,0.0
12866,50.0,48,119,14.0,0.0
12867,68.0,0,47,5.0,0.0
12868,68.0,12,47,11.0,0.0
12869,74.0,0,47,10.0,0.0
12870,66.0,0,47,5.0,0.0
12871,66.0,0,47,11.0,0.0
12872,54.0,3,104,13.0,0.0
12873,74.0,57,47,4.0,0.0
12874,54.0,48,119,14.0,0.0
12875,69.0,12,47,11.0,0.0
12876,73.0,0,47,10.0,0.0
12877,69.0,0,47,5.0,0.0
12878,73.0,0,47,4.0,0.0
12879,68.0,0,47,5.0,0.0
12880,71.0,3,104,4.0,0.0
12881,71.0,0,104,10.0,0.0
12882,44.0,0,104,13.0,0.0
12883,68.0,57,47,11.0,0.0
12884,44.0,48,119,14.0,0.0
12885,69.0,12,47,5.0,0.0
12886,69.0,0,47,11.0,0.0
12887,71.0,0,47,10.0,0.0
12888,56.0,3,104,13.0,0.0
12889,68.0,0,47,11.0,0.0
12890,71.0,0,47,4.0,0.0
12891,56.0,48,119,14.0,0.0
12892,65.0,57,47,12.0,0.0
12893,68.0,0,47,5.0,0.0
12894,69.0,0,47,4.0,0.0
12895,66.0,0,47,11.0,0.0
12896,66.0,0,47,12.0,0.0
12897,66.0,0,47,5.0,0.0
12898,69.0,12,47,10.0,0.0
12899,65.0,0,104,11.0,0.0
12900,49.0,48,119,14.0,0.0
12901,65.0,0,104,5.0,0.0
12902,71.0,0,104,10.0,0.0
12903,68.0,57,47,12.0,0.0
12904,71.0,3,104,4.0,0.0
12905,49.0,0,104,13.0,0.0
12906,66.0,12,47,12.0,0.0
12907,65.0,57,47,12.0,0.0
12908,68.0,0,104,11.0,0.0
12909,73.0,0,47,4.0,0.0
12910,53.0,0,104,13.0,0.0
12911,53.0,48,119,14.0,0.0
12912,73.0,0,47,10.0,0.0
12913,68.0,3,104,5.0,0.0
12914,71.0,0,47,10.0,0.0
12915,63.0,12,47,12.0,0.0
12916,71.0,0,47,4.0,0.0
12917,69.0,0,104,4.0,0.0
12918,69.0,3,104,10.0,0.0
12919,69.0,0,47,5.0,0.0
12920,69.0,57,47,11.0,0.0
12921,42.0,48,119,14.0,0.0
12922,42.0,0,104,13.0,0.0
12923,61.0,0,104,12.0,0.0
12924,73.0,0,47,5.0,0.0
12925,73.0,12,47,11.0,0.0
12926,54.0,48,119,14.0,0.0
12927,69.0,0,47,4.0,0.0
12928,61.0,0,104,12.0,0.0
12929,66.0,0,47,5.0,0.0
12930,69.0,57,47,10.0,0.0
12931,66.0,0,47,11.0,0.0
12932,54.0,3,104,13.0,0.0
12933,71.0,12,47,10.0,0.0
12934,68.0,0,47,5.0,0.0
12935,71.0,0,47,4.0,0.0
12936,68.0,0,47,11.0,0.0
12937,54.0,0,104,12.0,0.0
12938,52.0,0,104,13.0,0.0
12939,73.0,3,104,10.0,0.0
12940,69.0,57,47,11.0,0.0
12941,73.0,0,104,4.0,0.0
12942,52.0,48,119,14.0,0.0
12943,69.0,0,47,5.0,0.0
12944,71.0,12,47,5.0,0.0
12945,71.0,0,47,11.0,0.0
12946,69.0,57,47,11.0,0.0
12947,50.0,3,104,13.0,0.0
12948,69.0,0,47,5.0,0.0
12949,73.0,0,47,10.0,0.0
12950,57.0,0,224,12.0,0.0
12951,73.0,0,47,4.0,0.0
12952,50.0,48,119,14.0,0.0
12953,74.0,12,47,4.0,0.0
12954,74.0,0,47,10.0,0.0
12955,71.0,0,47,5.0,0.0
12956,71.0,0,47,11.0,0.0
12957,49.0,3,104,13.0,0.0
12958,73.0,57,47,5.0,0.0
12959,76.0,0,104,4.0,0.0
12960,73.0,0,47,11.0,0.0
12961,76.0,0,104,10.0,0.0
12962,49.0,48,119,14.0,0.0
12963,76.0,12,47,5.0,0.0
12964,76.0,0,47,11.0,0.0
12965,69.0,3,104,12.0,0.0
12966,69.0,0,47,5.0,0.0
12967,73.0,0,47,10.0,0.0
12968,69.0,57,47,11.0,0.0
12969,73.0,0,47,4.0,0.0
12970,54.0,48,119,14.0,0.0
12971,54.0,0,104,13.0,0.0
12972,74.0,0,47,10.0,0.0
12973,74.0,12,47,4.0,0.0
12974,71.0,0,47,5.0,0.0
12975,71.0,0,47,11.0,0.0
12976,76.0,0,104,10.0,0.0
12977,73.0,0,47,5.0,0.0
12978,76.0,3,104,4.0,0.0
12979,73.0,57,47,11.0,0.0
12980,69.0,0,104,12.0,0.0
12981,52.0,48,119,14.0,0.0
12982,52.0,0,104,13.0,0.0
12983,74.0,0,47,5.0,0.0
12984,74.0,12,47,11.0,0.0
12985,50.0,48,119,14.0,0.0
12986,50.0,3,104,13.0,0.0
12987,73.0,0,47,11.0,0.0
12988,69.0,0,104,12.0,0.0
12989,76.0,0,47,10.0,0.0
12990,76.0,0,47,4.0,0.0
12991,73.0,57,47,5.0,0.0
12992,74.0,12,47,11.0,0.0
12993,78.0,0,47,10.0,0.0
12994,74.0,0,47,5.0,0.0
12995,78.0,0,47,4.0,0.0
12996,79.0,3,104,4.0,0.0
12997,76.0,57,47,11.0,0.0
12998,49.0,48,119,14.0,0.0
12999,49.0,0,104,13.0,0.0
13000,69.0,0,104,12.0,0.0
13001,76.0,0,47,5.0,0.0
13002,79.0,0,104,10.0,0.0
13003,74.0,12,47,11.0,0.0
13004,74.0,0,47,5.0,0.0
13005,79.0,0,47,10.0,0.0
13006,52.0,48,119,14.0,0.0
13007,73.0,0,47,11.0,0.0
13008,79.0,57,47,4.0,0.0
13009,69.0,3,104,12.0,0.0
13010,52.0,0,104,13.0,0.0
13011,73.0,0,47,5.0,0.0
13012,74.0,12,47,5.0,0.0
13013,74.0,0,47,11.0,0.0
13014,78.0,0,47,10.0,0.0
13015,78.0,0,47,4.0,0.0
13016,45.0,48,119,14.0,0.0
13017,45.0,0,104,13.0,0.0
13018,79.0,0,104,10.0,0.0
13019,69.0,0,104,12.0,0.0
13020,76.0,0,47,5.0,0.0
13021,76.0,57,47,11.0,0.0
13022,79.0,3,104,4.0,0.0
13023,74.0,0,47,11.0,0.0
13024,74.0,12,47,5.0,0.0
13025,81.0,57,47,4.0,0.0
13026,81.0,0,47,10.0,0.0
13027,73.0,0,47,5.0,0.0
13028,49.0,48,119,14.0,0.0
13029,73.0,0,47,11.0,0.0
13030,49.0,0,104,13.0,0.0
13031,64.0,3,104,12.0,0.0
13032,71.0,12,47,5.0,0.0
13033,79.0,0,47,10.0,0.0
13034,79.0,0,47,4.0,0.0
13035,71.0,0,47,11.0,0.0
13036,78.0,57,47,4.0,0.0
13037,69.0,0,104,11.0,0.0
13038,78.0,0,47,10.0,0.0
13039,69.0,0,104,5.0,0.0
13040,50.0,3,104,13.0,0.0
13041,66.0,0,104,12.0,0.0
13042,50.0,48,119,14.0,0.0
13043,74.0,12,47,10.0,0.0
13044,74.0,0,47,4.0,0.0
13045,71.0,0,47,10.0,0.0
13046,66.0,0,104,5.0,0.0
13047,71.0,57,47,4.0,0.0
13048,66.0,3,104,11.0,0.0
13049,66.0,0,104,12.0,0.0
13050,62.0,0,104,13.0,0.0
13051,62.0,48,119,14.0,0.0
13052,73.0,12,47,4.0,0.0
13053,73.0,0,47,10.0,0.0
13054,71.0,0,344,11.0,0.0
13055,55.0,48,119,14.0,0.0
13056,71.0,3,344,5.0,0.0
13057,74.0,57,47,4.0,0.0
13058,66.0,0,104,12.0,0.0
13059,55.0,3,104,13.0,0.0
13060,74.0,0,47,10.0,0.0
13061,76.0,12,47,10.0,0.0
13062,76.0,0,47,4.0,0.0
13063,59.0,48,119,14.0,0.0
13064,73.0,0,47,10.0,0.0
13065,59.0,3,104,13.0,0.0
13066,66.0,0,104,12.0,0.0
13067,73.0,57,47,4.0,0.0
13068,74.0,0,47,4.0,0.0
13069,74.0,12,47,10.0,0.0
13070,76.0,57,47,4.0,0.0
13071,64.0,0,104,12.0,0.0
13072,76.0,0,47,10.0,0.0
13073,49.0,0,104,13.0,0.0
13074,49.0,48,119,14.0,0.0
13075,73.0,12,47,10.0,0.0
13076,73.0,0,47,4.0,0.0
13077,76.0,3,104,5.0,0.0
13078,70.0,57,47,10.0,0.0
13079,76.0,0,104,11.0,0.0
13080,70.0,0,47,4.0,0.0
13081,61.0,0,104,13.0,0.0
13082,61.0,48,119,14.0,0.0
13083,67.0,0,104,12.0,0.0
13084,71.0,12,47,4.0,0.0
13085,71.0,0,47,10.0,0.0
13086,70.0,0,104,11.0,0.0
13087,70.0,0,104,5.0,0.0
13088,54.0,48,119,14.0,0.0
13089,73.0,57,47,10.0,0.0
13090,54.0,0,104,13.0,0.0
13091,73.0,0,47,4.0,0.0
13092,66.0,3,104,12.0,0.0
13093,74.0,12,47,10.0,0.0
13094,74.0,0,47,4.0,0.0
13095,58.0,48,119,14.0,0.0
13096,58.0,0,104,13.0,0.0
13097,71.0,57,47,10.0,0.0
13098,66.0,0,167,5.0,0.0
13099,66.0,57,167,11.0,0.0
13100,66.0,3,104,12.0,0.0
13101,71.0,0,47,4.0,0.0
13102,73.0,12,47,4.0,0.0
13103,73.0,0,47,10.0,0.0
13104,47.0,3,104,13.0,0.0
13105,47.0,48,119,14.0,0.0
13106,74.0,0,47,10.0,0.0
13107,71.0,0,104,12.0,0.0
13108,74.0,0,47,4.0,0.0
13109,67.0,0,47,5.0,0.0
13110,67.0,0,47,11.0,0.0
13111,76.0,0,47,10.0,0.0
13112,76.0,12,47,4.0,0.0
13113,64.0,57,47,11.0,0.0
13114,73.0,0,47,10.0,0.0
13115,73.0,0,47,4.0,0.0
13116,59.0,48,119,14.0,0.0
13117,59.0,0,104,13.0,0.0
13118,66.0,3,104,12.0,0.0
13119,64.0,0,47,5.0,0.0
13120,66.0,0,47,11.0,0.0
13121,66.0,0,47,5.0,0.0
13122,74.0,12,47,10.0,0.0
13123,74.0,0,47,4.0,0.0
13124,67.0,0,104,11.0,0.0
13125,52.0,0,104,13.0,0.0
13126,76.0,57,47,10.0,0.0
13127,67.0,0,104,5.0,0.0
13128,76.0,0,47,4.0,0.0
13129,71.0,3,104,12.0,0.0
13130,52.0,48,119,14.0,0.0
13131,74.0,0,47,4.0,0.0
13132,74.0,12,47,10.0,0.0
13133,73.0,0,47,4.0,0.0
13134,55.0,48,119,14.0,0.0
13135,64.0,3,104,5.0,0.0
13136,73.0,57,47,10.0,0.0
13137,55.0,0,104,13.0,0.0
13138,64.0,0,104,11.0,0.0
13139,71.0,0,104,12.0,0.0
13140,71.0,12,47,10.0,0.0
13141,71.0,0,47,4.0,0.0
13142,54.0,0,104,13.0,0.0
13143,73.0,57,47,11.0,0.0
13144,78.0,0,104,4.0,0.0
13145,78.0,0,104,10.0,0.0
13146,54.0,48,119,14.0,0.0
13147,73.0,0,47,5.0,0.0
13148,70.0,3,104,12.0,0.0
13149,78.0,0,47,11.0,0.0
13150,78.0,12,47,5.0,0.0
13151,42.0,30,59,14.0,0.0
13152,42.0,12,47,13.0,0.0
13153,70.0,0,47,11.0,0.0
13154,78.0,15,89,0.0,0.0
13155,78.0,0,104,4.0,0.0
13156,78.0,3,104,10.0,0.0
13157,70.0,0,47,5.0,0.0
13158,73.0,0,104,12.0,0.0
13159,44.0,0,47,13.0,0.0
13160,44.0,48,59,14.0,0.0
13161,71.0,0,47,5.0,0.0
13162,71.0,12,47,11.0,0.0
13163,78.0,0,104,10.0,0.0
13164,46.0,48,119,14.0,0.0
13165,46.0,0,104,13.0,0.0
13166,73.0,0,47,11.0,0.0
13167,66.0,3,104,12.0,0.0
13168,78.0,15,89,0.0,0.0
13169,73.0,42,47,5.0,0.0
13170,78.0,0,104,4.0,0.0
13171,74.0,12,47,11.0,0.0
13172,74.0,0,47,5.0,0.0
13173,73.0,0,47,11.0,0.0
13174,46.0,12,47,13.0,0.0
13175,70.0,0,224,12.0,0.0
13176,73.0,0,47,5.0,0.0
13177,78.0,0,104,10.0,0.0
13178,78.0,15,89,0.0,0.0
13179,46.0,30,59,14.0,0.0
13180,78.0,3,104,4.0,0.0
13181,74.0,0,47,11.0,0.0
13182,74.0,0,47,5.0,0.0
13183,47.0,48,59,14.0,0.0
13184,47.0,12,47,13.0,0.0
13185,49.0,48,119,14.0,0.0
13186,78.0,3,104,4.0,0.0
13187,78.0,0,104,10.0,0.0
13188,76.0,42,47,11.0,0.0
13189,49.0,0,104,13.0,0.0
13190,76.0,0,47,5.0,0.0
13191,78.0,15,89,0.0,0.0
13192,73.0,12,47,5.0,0.0
13193,73.0,0,47,11.0,0.0
13194,78.0,0,104,10.0,0.0
13195,66.0,0,47,11.0,0.0
13196,78.0,48,119,1.0,0.0
13197,46.0,30,59,14.0,0.0
13198,66.0,12,47,5.0,0.0
13199,46.0,0,47,13.0,0.0
13200,78.0,15,89,0.0,0.0
13201,78.0,3,104,4.0,0.0
13202,73.0,0,104,12.0,0.0
13203,47.0,0,59,14.0,0.0
13204,47.0,12,47,13.0,0.0
13205,68.0,0,47,5.0,0.0
13206,68.0,0,47,11.0,0.0
13207,70.0,42,47,11.0,0.0
13208,78.0,48,119,1.0,0.0
13209,70.0,0,47,5.0,0.0
13210,78.0,0,104,10.0,0.0
13211,78.0,3,104,4.0,0.0
13212,49.0,0,104,13.0,0.0
13213,64.0,0,104,12.0,0.0
13214,78.0,15,89,0.0,0.0
13215,49.0,0,119,14.0,0.0
13216,71.0,12,47,11.0,0.0
13217,71.0,0,47,5.0,0.0
13218,70.0,0,224,12.0,0.0
13219,78.0,15,89,0.0,0.0
13220,49.0,0,47,13.0,0.0
13221,49.0,30,59,14.0,0.0
13222,70.0,12,47,5.0,0.0
13223,78.0,3,104,10.0,0.0
13224,78.0,0,104,4.0,0.0
13225,70.0,0,47,11.0,0.0
13226,78.0,0,104,1.0,0.0
13227,50.0,0,47,13.0,0.0
13228,71.0,12,47,5.0,0.0
13229,71.0,0,47,11.0,0.0
13230,50.0,48,59,14.0,0.0
13231,73.0,42,47,11.0,0.0
13232,78.0,15,89,0.0,0.0
13233,78.0,0,104,4.0,0.0
13234,52.0,48,119,14.0,0.0
13235,78.0,3,104,10.0,0.0
13236,73.0,0,47,5.0,0.0
13237,52.0,0,104,13.0,0.0
13238,78.0,0,119,1.0,0.0
13239,71.0,12,47,5.0,0.0
13240,71.0,0,47,11.0,0.0
13241,70.0,0,47,11.0,0.0
13242,52.0,30,59,14.0,0.0
13243,78.0,3,104,4.0,0.0
13244,78.0,0,104,2.0,0.0
13245,70.0,12,47,5.0,0.0
13246,78.0,15,89,0.0,0.0
13247,52.0,0,47,13.0,0.0
13248,78.0,0,104,10.0,0.0
13249,78.0,0,119,1.0,0.0
13250,73.0,0,104,12.0,0.0
13251,71.0,0,47,11.0,0.0
13252,71.0,0,47,5.0,0.0
13253,50.0,12,47,13.0,0.0
13254,50.0,48,59,14.0,0.0
13255,78.0,0,104,10.0,0.0
13256,78.0,0,104,2.0,0.0
13257,52.0,3,104,13.0,0.0
13258,52.0,48,119,14.0,0.0
13259,78.0,15,89,0.0,0.0
13260,73.0,42,47,11.0,0.0
13261,66.0,0,104,12.0,0.0
13262,78.0,0,119,1.0,0.0
13263,78.0,0,104,4.0,0.0
13264,73.0,0,47,5.0,0.0
13265,76.0,0,47,11.0,0.0
13266,76.0,12,47,5.0,0.0
13267,78.0,0,104,4.0,0.0
13268,74.0,12,47,5.0,0.0
13269,74.0,0,47,11.0,0.0
13270,78.0,0,104,2.0,0.0
13271,78.0,3,104,1.0,0.0
13272,54.0,30,59,14.0,0.0
13273,78.0,15,89,0.0,0.0
13274,54.0,0,47,13.0,0.0
13275,78.0,0,104,10.0,0.0
13276,70.0,0,104,12.0,0.0
13277,73.0,0,47,5.0,0.0
13278,52.0,48,59,14.0,0.0
13279,52.0,12,47,13.0,0.0
13280,73.0,0,47,11.0,0.0
13281,71.0,0,104,11.0,0.0
13282,71.0,0,104,5.0,0.0
13283,78.0,0,47,4.0,0.0
13284,66.0,0,119,2.0,0.0
13285,78.0,57,47,10.0,0.0
13286,83.0,0,119,0.0,0.0
13287,50.0,3,104,13.0,0.0
13288,50.0,0,119,3.0,0.0
13289,71.0,0,104,12.0,0.0
13290,50.0,0,119,14.0,0.0
13291,78.0,48,119,1.0,0.0
13292,76.0,12,47,10.0,0.0
13293,76.0,0,47,4.0,0.0
13294,50.0,45,59,14.0,0.0
13295,59.0,3,104,12.0,0.0
13296,50.0,0,47,13.0,0.0
13297,78.0,0,47,10.0,0.0
13298,66.0,0,104,11.0,0.0
13299,78.0,12,47,4.0,0.0
13300,66.0,0,104,5.0,0.0
13301,79.0,12,47,10.0,0.0
13302,49.0,0,47,13.0,0.0
13303,79.0,0,47,4.0,0.0
13304,49.0,48,59,14.0,0.0
13305,50.0,0,104,13.0,0.0
13306,78.0,0,47,4.0,0.0
13307,62.0,3,104,12.0,0.0
13308,71.0,0,344,5.0,0.0
13309,71.0,0,344,11.0,0.0
13310,50.0,48,119,14.0,0.0
13311,78.0,57,47,10.0,0.0
13312,83.0,12,47,4.0,0.0
13313,83.0,0,47,10.0,0.0
13314,82.0,0,47,10.0,0.0
13315,82.0,0,47,4.0,0.0
13316,52.0,45,59,14.0,0.0
13317,66.0,3,104,12.0,0.0
13318,52.0,12,47,13.0,0.0
13319,50.0,48,59,14.0,0.0
13320,83.0,0,47,4.0,0.0
13321,83.0,0,47,10.0,0.0
13322,50.0,12,47,13.0,0.0
13323,76.0,0,47,10.0,0.0
13324,67.0,0,104,12.0,0.0
13325,76.0,57,47,4.0,0.0
13326,49.0,3,104,13.0,0.0
13327,49.0,48,119,14.0,0.0
13328,74.0,12,47,4.0,0.0
13329,74.0,0,47,10.0,0.0
13330,49.0,45,59,14.0,0.0
13331,71.0,3,104,12.0,0.0
13332,49.0,0,47,13.0,0.0
13333,76.0,0,47,10.0,0.0
13334,64.0,0,104,5.0,0.0
13335,76.0,12,47,4.0,0.0
13336,64.0,0,104,11.0,0.0
13337,47.0,48,59,14.0,0.0
13338,78.0,0,47,10.0,0.0
13339,78.0,12,47,4.0,0.0
13340,47.0,0,47,13.0,0.0
13341,76.0,0,47,10.0,0.0
13342,61.0,0,104,11.0,0.0
13343,70.0,0,104,12.0,0.0
13344,49.0,48,119,14.0,0.0
13345,61.0,3,104,5.0,0.0
13346,76.0,57,47,4.0,0.0
13347,49.0,0,104,13.0,0.0
13348,79.0,0,47,4.0,0.0
13349,79.0,12,47,10.0,0.0
13350,50.0,0,47,13.0,0.0
13351,70.0,0,104,5.0,0.0
13352,50.0,45,59,14.0,0.0
13353,78.0,12,47,10.0,0.0
13354,66.0,3,104,12.0,0.0
13355,78.0,0,47,4.0,0.0
13356,70.0,0,104,11.0,0.0
13357,76.0,0,47,4.0,0.0
13358,49.0,48,59,14.0,0.0
13359,49.0,12,47,13.0,0.0
13360,76.0,0,47,10.0,0.0
13361,74.0,0,104,4.0,0.0
13362,66.0,0,104,12.0,0.0
13363,47.0,12,47,13.0,0.0
13364,47.0,45,59,14.0,0.0
13365,71.0,3,104,5.0,0.0
13366,71.0,0,104,11.0,0.0
13367,74.0,0,104,10.0,0.0
13368,49.0,12,47,13.0,0.0
13369,49.0,48,59,14.0,0.0
13370,78.0,0,104,10.0,0.0
13371,78.0,3,104,4.0,0.0
13372,71.0,0,104,5.0,0.0
13373,71.0,0,104,11.0,0.0
13374,62.0,0,104,12.0,0.0
13375,50.0,12,47,13.0,0.0
13376,50.0,45,59,14.0,0.0
13377,47.0,48,59,14.0,0.0
13378,47.0,12,47,13.0,0.0
13379,71.0,0,104,5.0,0.0
13380,52.0,12,47,13.0,0.0
13381,52.0,45,59,14.0,0.0
13382,79.0,0,104,4.0,0.0
13383,59.0,0,104,12.0,0.0
13384,71.0,3,104,11.0,0.0
13385,79.0,0,104,10.0,0.0
13386,54.0,12,47,13.0,0.0
13387,54.0,48,59,14.0,0.0
13388,55.0,12,47,13.0,0.0
13389,67.0,0,104,5.0,0.0
13390,59.0,0,104,12.0,0.0
13391,55.0,45,59,14.0,0.0
13392,71.0,3,104,10.0,0.0
13393,71.0,0,104,4.0,0.0
13394,64.0,0,104,11.0,0.0
13395,52.0,48,59,14.0,0.0
13396,52.0,12,47,13.0,0.0
13397,66.0,0,239,5.0,0.0
13398,66.0,48,119,12.0,0.0
13399,61.0,48,239,11.0,0.0
13400,54.0,0,239,14.0,0.0
13401,70.0,0,47,10.0,0.0
13402,70.0,60,47,4.0,0.0
13403,54.0,0,239,13.0,0.0
13404,66.0,0,47,4.0,0.0
13405,66.0,12,47,10.0,0.0
13406,68.0,0,47,4.0,0.0
13407,68.0,60,47,10.0,0.0
13408,70.0,0,47,10.0,0.0
13409,70.0,12,47,4.0,0.0
13410,71.0,0,47,10.0,0.0
13411,71.0,60,47,4.0,0.0
13412,73.0,0,47,4.0,0.0
13413,73.0,60,47,10.0,0.0
13414,70.0,0,104,12.0,0.0
13415,74.0,0,47,10.0,0.0
13416,52.0,48,119,14.0,0.0
13417,52.0,3,104,13.0,0.0
13418,73.0,0,104,5.0,0.0
13419,73.0,0,104,11.0,0.0
13420,74.0,57,47,4.0,0.0
13421,76.0,12,47,10.0,0.0
13422,76.0,0,47,4.0,0.0
13423,71.0,0,104,5.0,0.0
13424,78.0,57,47,10.0,0.0
13425,50.0,0,104,13.0,0.0
13426,50.0,48,119,14.0,0.0
13427,66.0,0,104,12.0,0.0
13428,71.0,3,104,11.0,0.0
13429,78.0,0,47,4.0,0.0
13430,79.0,12,47,10.0,0.0
13431,79.0,0,47,4.0,0.0
13432,78.0,57,47,10.0,0.0
13433,54.0,48,119,14.0,0.0
13434,54.0,0,104,13.0,0.0
13435,70.0,0,104,5.0,0.0
13436,61.0,3,104,12.0,0.0
13437,70.0,0,104,11.0,0.0
13438,78.0,0,47,4.0,0.0
13439,76.0,0,47,10.0,0.0
13440,76.0,12,47,4.0,0.0
13441,74.0,0,47,4.0,0.0
13442,66.0,0,104,11.0,0.0
13443,66.0,0,104,5.0,0.0
13444,59.0,3,104,12.0,0.0
13445,74.0,57,47,10.0,0.0
13446,59.0,0,104,13.0,0.0
13447,59.0,48,119,14.0,0.0
13448,73.0,12,47,4.0,0.0
13449,73.0,0,47,10.0,0.0
13450,62.0,3,104,12.0,0.0
13451,54.0,105,119,14.0,0.0
13452,54.0,0,104,13.0,0.0
13453,71.0,0,47,10.0,0.0
13454,71.0,57,47,4.0,0.0
13455,66.0,0,104,5.0,0.0
13456,66.0,0,104,11.0,0.0
13457,70.0,0,47,10.0,0.0
13458,70.0,12,47,4.0,0.0
13459,62.0,0,104,5.0,0.0
13460,55.0,0,104,13.0,0.0
13461,59.0,0,104,12.0,0.0
13462,62.0,0,104,11.0,0.0
13463,55.0,105,119,14.0,0.0
13464,71.0,0,104,4.0,0.0
13465,71.0,15,104,10.0,0.0
13466,52.0,105,119,14.0,0.0
13467,52.0,0,104,13.0,0.0
13468,73.0,0,104,10.0,0.0
13469,64.0,0,104,12.0,0.0
13470,73.0,0,104,4.0,0.0
13471,67.0,0,104,11.0,0.0
13472,67.0,15,104,5.0,0.0
13473,54.0,0,104,13.0,0.0
13474,66.0,0,104,10.0,0.0
13475,54.0,105,119,14.0,0.0
13476,62.0,15,104,12.0,0.0
13477,66.0,0,104,11.0,0.0
13478,66.0,0,104,5.0,0.0
13479,66.0,0,104,4.0,0.0
13480,70.0,0,104,10.0,0.0
13481,70.0,15,104,4.0,0.0
13482,42.0,48,119,14.0,0.0
13483,61.0,0,104,12.0,0.0
13484,66.0,0,104,11.0,0.0
13485,66.0,0,104,5.0,0.0
13486,42.0,0,104,13.0,0.0
13487,62.0,0,239,12.0,0.0
13488,47.0,0,239,13.0,0.0
13489,66.0,0,119,5.0,0.0
13490,47.0,48,239,14.0,0.0
13491,66.0,0,239,11.0,0.0
13492,71.0,48,119,4.0,0.0
13493,71.0,60,47,10.0,0.0
13494,66.0,12,47,10.0,0.0
13495,62.0,60,47,10.0,0.0
13496,66.0,12,47,10.0,0.0
13497,71.0,60,47,10.0,0.0
13498,74.0,60,47,10.0,0.0
13499,58.0,48,119,14.0,0.0
13500,66.0,0,104,11.0,0.0
13501,58.0,3,104,13.0,0.0
13502,73.0,57,47,10.0,0.0
13503,61.0,0,104,12.0,0.0
13504,76.0,12,47,10.0,0.0
13505,59.0,3,104,12.0,0.0
13506,74.0,57,47,10.0,0.0
13507,66.0,0,104,11.0,0.0
13508,59.0,48,119,14.0,0.0
13509,59.0,0,104,13.0,0.0
13510,78.0,12,47,10.0,0.0
13511,83.0,57,47,10.0,0.0
13512,62.0,0,104,12.0,0.0
13513,67.0,0,104,11.0,0.0
13514,55.0,3,104,13.0,0.0
13515,55.0,48,119,14.0,0.0
13516,74.0,12,47,10.0,0.0
13517,67.0,0,104,11.0,0.0
13518,73.0,57,47,10.0,0.0
13519,52.0,48,119,14.0,0.0
13520,61.0,3,104,12.0,0.0
13521,52.0,0,104,13.0,0.0
13522,83.0,12,47,10.0,0.0
13523,54.0,48,119,14.0,0.0
13524,73.0,57,47,10.0,0.0
13525,66.0,3,104,11.0,0.0
13526,54.0,0,104,13.0,0.0
13527,61.0,0,104,12.0,0.0
13528,82.0,12,47,10.0,0.0
13529,83.0,60,47,10.0,0.0
13530,66.0,0,239,11.0,0.0
13531,47.0,48,239,14.0,0.0
13532,62.0,0,239,12.0,0.0
13533,47.0,0,239,13.0,0.0
13534,78.0,60,47,10.0,0.0
13535,74.0,60,47,10.0,0.0
13536,78.0,12,47,10.0,0.0
13537,71.0,60,47,10.0,0.0
13538,74.0,60,47,10.0,0.0
13539,73.0,0,104,11.0,0.0
13540,59.0,3,104,13.0,0.0
13541,68.0,0,104,12.0,0.0
13542,68.0,57,47,10.0,0.0
13543,59.0,48,119,14.0,0.0
13544,77.0,12,47,10.0,0.0
13545,78.0,57,47,10.0,0.0
13546,69.0,0,104,12.0,0.0
13547,57.0,48,119,14.0,0.0
13548,73.0,0,104,11.0,0.0
13549,57.0,3,104,13.0,0.0
13550,73.0,12,47,10.0,0.0
13551,74.0,0,104,11.0,0.0
13552,66.0,0,104,12.0,0.0
13553,69.0,57,47,10.0,0.0
13554,62.0,3,104,13.0,0.0
13555,62.0,48,119,14.0,0.0
13556,78.0,12,47,10.0,0.0
13557,59.0,48,119,14.0,0.0
13558,71.0,0,104,12.0,0.0
13559,74.0,0,104,11.0,0.0
13560,68.0,57,47,10.0,0.0
13561,59.0,3,104,13.0,0.0
13562,78.0,12,47,10.0,0.0
13563,61.0,48,119,14.0,0.0
13564,68.0,57,47,10.0,0.0
13565,73.0,0,104,11.0,0.0
13566,61.0,0,104,13.0,0.0
13567,71.0,3,104,12.0,0.0
13568,77.0,12,47,10.0,0.0
13569,54.0,3,104,13.0,0.0
13570,54.0,48,119,14.0,0.0
13571,73.0,48,239,11.0,0.0
13572,78.0,57,47,10.0,0.0
13573,69.0,0,239,12.0,0.0
13574,73.0,12,47,10.0,0.0
13575,54.0,3,104,13.0,0.0
13576,69.0,57,47,10.0,0.0
13577,54.0,0,119,14.0,0.0
13578,73.0,12,47,10.0,0.0
13579,54.0,48,119,14.0,0.0
13580,54.0,3,104,13.0,0.0
13581,78.0,57,47,10.0,0.0
13582,79.0,12,47,10.0,0.0
13583,54.0,60,119,13.0,0.0
13584,73.0,0,104,11.0,0.0
13585,54.0,0,119,14.0,0.0
13586,66.0,3,104,12.0,0.0
13587,81.0,57,47,10.0,0.0
13588,78.0,12,47,10.0,0.0
13589,69.0,0,104,11.0,0.0
13590,72.0,45,59,10.0,0.0
13591,66.0,15,104,12.0,0.0
13592,71.0,48,59,10.0,0.0
13593,69.0,60,119,11.0,0.0
13594,72.0,57,47,10.0,0.0
13595,66.0,0,119,12.0,0.0
13596,52.0,3,104,13.0,0.0
13597,52.0,0,119,14.0,0.0
13598,81.0,12,47,10.0,0.0
13599,52.0,15,104,13.0,0.0
13600,72.0,45,59,10.0,0.0
13601,52.0,0,119,14.0,0.0
13602,71.0,48,59,10.0,0.0
13603,72.0,57,47,10.0,0.0
13604,66.0,0,104,12.0,0.0
13605,52.0,0,119,13.0,0.0
13606,69.0,3,104,11.0,0.0
13607,52.0,48,119,14.0,0.0
13608,81.0,12,47,10.0,0.0
13609,63.0,0,104,11.0,0.0
13610,71.0,57,47,10.0,0.0
13611,66.0,3,104,12.0,0.0
13612,69.0,60,47,10.0,0.0
13613,71.0,57,47,10.0,0.0
13614,66.0,0,119,12.0,0.0
13615,51.0,3,104,13.0,0.0
13616,51.0,0,119,14.0,0.0
13617,69.0,48,119,11.0,0.0
13618,73.0,12,47,10.0,0.0
13619,51.0,3,104,13.0,0.0
13620,51.0,48,119,14.0,0.0
13621,75.0,57,47,10.0,0.0
13622,76.0,12,47,10.0,0.0
13623,71.0,0,104,11.0,0.0
13624,51.0,0,119,14.0,0.0
13625,51.0,48,119,13.0,0.0
13626,66.0,3,104,12.0,0.0
13627,78.0,57,47,10.0,0.0
13628,79.0,12,47,10.0,0.0
13629,63.0,0,104,12.0,0.0
13630,81.0,57,47,10.0,0.0
13631,71.0,3,104,11.0,0.0
13632,78.0,60,47,10.0,0.0
13633,75.0,57,47,10.0,0.0
13634,47.0,0,119,14.0,0.0
13635,47.0,3,104,13.0,0.0
13636,66.0,0,119,12.0,0.0
13637,71.0,48,119,11.0,0.0
13638,78.0,12,47,10.0,0.0
13639,47.0,48,119,14.0,0.0
13640,47.0,3,104,13.0,0.0
13641,71.0,57,47,10.0,0.0
13642,81.0,12,47,10.0,0.0
13643,71.0,3,104,11.0,0.0
13644,47.0,48,119,14.0,0.0
13645,63.0,0,104,12.0,0.0
13646,79.0,57,47,10.0,0.0
13647,47.0,0,119,13.0,0.0
13648,78.0,12,47,10.0,0.0
13649,79.0,57,47,10.0,0.0
13650,71.0,3,104,11.0,0.0
13651,64.0,0,104,12.0,0.0
13652,76.0,60,47,10.0,0.0
13653,52.0,0,119,14.0,0.0
13654,67.0,0,119,12.0,0.0
13655,71.0,57,47,10.0,0.0
13656,76.0,48,119,11.0,0.0
13657,52.0,3,104,13.0,0.0
13658,67.0,12,47,10.0,0.0
13659,52.0,48,119,14.0,0.0
13660,71.0,57,47,10.0,0.0
13661,52.0,3,104,13.0,0.0
13662,76.0,12,47,10.0,0.0
13663,71.0,3,104,12.0,0.0
13664,52.0,0,119,13.0,0.0
13665,79.0,57,47,10.0,0.0
13666,52.0,60,119,14.0,0.0
13667,76.0,0,104,11.0,0.0
13668,81.0,12,47,10.0,0.0
13669,80.0,45,59,10.0,0.0
13670,64.0,0,104,12.0,0.0
13671,71.0,15,104,11.0,0.0
13672,78.0,48,59,10.0,0.0
13673,64.0,60,119,12.0,0.0
13674,50.0,3,104,13.0,0.0
13675,50.0,0,119,14.0,0.0
13676,71.0,0,119,11.0,0.0
13677,80.0,57,47,10.0,0.0
13678,83.0,12,47,10.0,0.0
13679,50.0,15,104,13.0,0.0
13680,80.0,45,59,10.0,0.0
13681,50.0,0,119,14.0,0.0
13682,78.0,48,59,10.0,0.0
13683,50.0,0,119,14.0,0.0
13684,80.0,57,47,10.0,0.0
13685,71.0,0,104,11.0,0.0
13686,50.0,48,119,13.0,0.0
13687,64.0,3,104,12.0,0.0
13688,83.0,12,47,10.0,0.0
13689,64.0,3,104,12.0,0.0
13690,73.0,0,104,11.0,0.0
13691,81.0,57,47,10.0,0.0
13692,76.0,60,47,10.0,0.0
13693,49.0,3,104,13.0,0.0
13694,73.0,57,47,10.0,0.0
13695,76.0,0,119,11.0,0.0
13696,49.0,48,119,14.0,0.0
13697,69.0,0,119,12.0,0.0
13698,76.0,12,47,10.0,0.0
13699,49.0,3,104,13.0,0.0
13700,69.0,57,47,10.0,0.0
13701,49.0,48,119,14.0,0.0
13702,71.0,12,47,10.0,0.0
13703,69.0,0,104,12.0,0.0
13704,73.0,57,47,10.0,0.0
13705,49.0,48,119,14.0,0.0
13706,49.0,0,119,13.0,0.0
13707,76.0,3,104,11.0,0.0
13708,74.0,12,47,10.0,0.0
13709,69.0,0,104,12.0,0.0
13710,73.0,3,104,11.0,0.0
13711,76.0,57,47,10.0,0.0
13712,78.0,60,47,10.0,0.0
13713,45.0,0,119,14.0,0.0
13714,73.0,48,119,11.0,0.0
13715,64.0,0,119,12.0,0.0
13716,45.0,3,104,13.0,0.0
13717,79.0,57,47,10.0,0.0
13718,81.0,12,47,10.0,0.0
13719,79.0,57,47,10.0,0.0
13720,45.0,3,104,13.0,0.0
13721,45.0,48,119,14.0,0.0
13722,78.0,12,47,10.0,0.0
13723,45.0,48,119,14.0,0.0
13724,79.0,57,47,10.0,0.0
13725,73.0,0,104,11.0,0.0
13726,79.0,0,104,4.0,0.0
13727,45.0,0,104,13.0,0.0
13728,76.0,3,104,5.0,0.0
13729,69.0,0,104,12.0,0.0
13730,76.0,12,47,10.0,0.0
13731,74.0,0,104,11.0,0.0
13732,50.0,0,119,14.0,0.0
13733,78.0,0,119,4.0,0.0
13734,74.0,3,104,5.0,0.0
13735,78.0,57,47,10.0,0.0
13736,50.0,0,104,13.0,0.0
13737,69.0,48,119,12.0,0.0
13738,74.0,12,47,10.0,0.0
13739,69.0,57,47,10.0,0.0
13740,78.0,0,104,11.0,0.0
13741,62.0,48,119,14.0,0.0
13742,62.0,3,104,13.0,0.0
13743,69.0,0,104,5.0,0.0
13744,72.0,12,47,10.0,0.0
13745,55.0,0,119,14.0,0.0
13746,55.0,3,104,13.0,0.0
13747,71.0,57,47,10.0,0.0
13748,78.0,0,119,11.0,0.0
13749,71.0,48,119,5.0,0.0
13750,74.0,12,47,10.0,0.0
13751,59.0,0,104,13.0,0.0
13752,78.0,3,104,4.0,0.0
13753,67.0,57,47,10.0,0.0
13754,59.0,48,119,14.0,0.0
13755,67.0,0,104,12.0,0.0
13756,78.0,12,47,10.0,0.0
13757,49.0,3,104,13.0,0.0
13758,67.0,48,119,12.0,0.0
13759,76.0,57,47,10.0,0.0
13760,76.0,0,119,4.0,0.0
13761,49.0,0,119,14.0,0.0
13762,73.0,12,47,10.0,0.0
13763,61.0,48,119,14.0,0.0
13764,71.0,3,104,5.0,0.0
13765,67.0,57,47,10.0,0.0
13766,61.0,0,104,13.0,0.0
13767,76.0,0,104,11.0,0.0
13768,71.0,12,47,10.0,0.0
13769,54.0,0,119,14.0,0.0
13770,54.0,3,104,13.0,0.0
13771,69.0,0,119,5.0,0.0
13772,69.0,57,47,10.0,0.0
13773,76.0,48,119,11.0,0.0
13774,73.0,12,47,10.0,0.0
13775,57.0,48,119,14.0,0.0
13776,76.0,3,104,4.0,0.0
13777,66.0,0,104,12.0,0.0
13778,66.0,57,47,10.0,0.0
13779,57.0,0,104,13.0,0.0
13780,76.0,12,47,10.0,0.0
13781,47.0,3,104,13.0,0.0
13782,74.0,57,47,10.0,0.0
13783,74.0,0,119,4.0,0.0
13784,66.0,48,119,12.0,0.0
13785,47.0,0,119,14.0,0.0
13786,71.0,12,47,10.0,0.0
13787,59.0,48,119,14.0,0.0
13788,69.0,3,104,5.0,0.0
13789,59.0,0,104,13.0,0.0
13790,66.0,57,47,10.0,0.0
13791,74.0,0,104,11.0,0.0
13792,69.0,12,47,10.0,0.0
13793,74.0,48,119,11.0,0.0
13794,67.0,57,47,10.0,0.0
13795,52.0,0,119,14.0,0.0
13796,67.0,0,104,5.0,0.0
13797,52.0,3,104,13.0,0.0
13798,71.0,12,47,10.0,0.0
13799,55.0,0,104,13.0,0.0
13800,64.0,57,47,10.0,0.0
13801,55.0,30,119,14.0,0.0
13802,74.0,0,104,4.0,0.0
13803,71.0,3,104,5.0,0.0
13804,64.0,0,104,12.0,0.0
13805,74.0,12,47,10.0,0.0
13806,73.0,12,47,10.0,0.0
13807,45.0,18,29,3.0,0.0
13808,76.0,0,119,0.0,0.0
13809,69.0,0,119,2.0,0.0
13810,45.0,0,479,14.0,0.0
13811,45.0,0,479,13.0,0.0
13812,64.0,3,104,12.0,0.0
13813,73.0,15,89,4.0,0.0
13814,69.0,0,104,5.0,0.0
13815,81.0,30,119,1.0,0.0
13816,45.0,30,29,3.0,0.0
13817,76.0,12,47,10.0,0.0
13818,45.0,0,29,3.0,0.0
13819,45.0,0,29,3.0,0.0
13820,73.0,0,104,5.0,0.0
13821,76.0,3,104,11.0,0.0
13822,69.0,12,47,10.0,0.0
13823,67.0,0,104,12.0,0.0
13824,76.0,0,89,4.0,0.0
13825,45.0,18,29,3.0,0.0
13826,45.0,30,29,3.0,0.0
13827,45.0,15,29,3.0,0.0
13828,73.0,12,47,10.0,0.0
13829,45.0,30,29,3.0,0.0
13830,74.0,30,119,1.0,0.0
13831,78.0,0,119,0.0,0.0
13832,66.0,3,104,12.0,0.0
13833,69.0,0,104,5.0,0.0
13834,74.0,12,47,10.0,0.0
13835,69.0,0,119,2.0,0.0
13836,74.0,15,89,4.0,0.0
13837,45.0,18,29,3.0,0.0
13838,69.0,0,104,11.0,0.0
13839,45.0,30,29,3.0,0.0
13840,45.0,0,29,3.0,0.0
13841,78.0,12,47,10.0,0.0
13842,45.0,0,29,3.0,0.0
13843,69.0,12,47,10.0,0.0
13844,78.0,3,104,11.0,0.0
13845,74.0,0,104,5.0,0.0
13846,45.0,18,29,3.0,0.0
13847,78.0,15,89,4.0,0.0
13848,62.0,0,104,12.0,0.0
13849,45.0,30,29,3.0,0.0
13850,45.0,0,29,3.0,0.0
13851,74.0,12,47,10.0,0.0
13852,45.0,30,29,3.0,0.0
13853,76.0,30,119,1.0,0.0
13854,73.0,3,104,5.0,0.0
13855,76.0,0,104,4.0,0.0
13856,76.0,12,47,10.0,0.0
13857,69.0,0,104,12.0,0.0
13858,45.0,18,29,3.0,0.0
13859,45.0,0,959,13.0,0.0
13860,45.0,0,959,14.0,0.0
13861,69.0,0,119,2.0,0.0
13862,79.0,0,119,0.0,0.0
13863,73.0,0,104,11.0,0.0
13864,45.0,30,29,3.0,0.0
13865,45.0,15,29,3.0,0.0
13866,79.0,12,47,10.0,0.0
13867,45.0,0,29,3.0,0.0
13868,61.0,0,104,12.0,0.0
13869,69.0,12,47,10.0,0.0
13870,76.0,0,104,11.0,0.0
13871,79.0,3,104,4.0,0.0
13872,76.0,0,104,5.0,0.0
13873,45.0,18,29,3.0,0.0
13874,45.0,30,29,3.0,0.0
13875,76.0,12,47,10.0,0.0
13876,45.0,15,29,3.0,0.0
13877,45.0,30,29,3.0,0.0
13878,78.0,0,104,4.0,0.0
13879,45.0,18,29,3.0,0.0
13880,78.0,12,47,10.0,0.0
13881,62.0,0,104,12.0,0.0
13882,69.0,0,104,11.0,0.0
13883,69.0,0,119,2.0,0.0
13884,78.0,30,119,0.0,0.0
13885,74.0,3,104,5.0,0.0
13886,74.0,0,119,1.0,0.0
13887,45.0,30,29,3.0,0.0
13888,81.0,12,47,10.0,0.0
13889,45.0,15,29,3.0,0.0
13890,45.0,0,29,3.0,0.0
13891,66.0,0,104,5.0,0.0
13892,81.0,0,104,4.0,0.0
13893,69.0,0,104,11.0,0.0
13894,66.0,3,104,12.0,0.0
13895,74.0,12,47,10.0,0.0
13896,45.0,18,29,3.0,0.0
13897,45.0,30,29,3.0,0.0
13898,78.0,12,47,10.0,0.0
13899,45.0,15,29,3.0,0.0
13900,45.0,30,29,3.0,0.0
13901,69.0,30,119,2.0,0.0
13902,69.0,3,584,11.0,0.0
13903,73.0,12,47,10.0,0.0
13904,76.0,0,119,0.0,0.0
13905,69.0,3,104,5.0,0.0
13906,73.0,0,104,4.0,0.0
13907,45.0,18,29,3.0,0.0
13908,64.0,0,104,12.0,0.0
13909,81.0,0,119,1.0,0.0
13910,45.0,30,29,3.0,0.0
13911,45.0,15,29,3.0,0.0
13912,76.0,12,47,10.0,0.0
13913,45.0,0,29,3.0,0.0
13914,45.0,18,29,3.0,0.0
13915,69.0,12,47,10.0,0.0
13916,67.0,0,104,12.0,0.0
13917,73.0,0,104,5.0,0.0
13918,76.0,3,104,4.0,0.0
13919,45.0,30,29,3.0,0.0
13920,73.0,12,47,10.0,0.0
13921,45.0,15,29,3.0,0.0
13922,45.0,30,29,3.0,0.0
13923,69.0,0,104,4.0,0.0
13924,81.0,0,119,0.0,0.0
13925,76.0,0,104,5.0,0.0
13926,76.0,0,119,1.0,0.0
13927,45.0,18,29,3.0,0.0
13928,69.0,0,119,2.0,0.0
13929,61.0,3,104,12.0,0.0
13930,76.0,12,47,10.0,0.0
13931,45.0,30,29,3.0,0.0
13932,45.0,15,29,3.0,0.0
13933,79.0,12,47,10.0,0.0
13934,45.0,30,29,3.0,0.0
13935,45.0,18,29,3.0,0.0
13936,57.0,3,104,12.0,0.0
13937,73.0,0,104,4.0,0.0
13938,81.0,0,104,5.0,0.0
13939,78.0,12,47,10.0,0.0
13940,45.0,30,29,3.0,0.0
13941,45.0,15,29,3.0,0.0
13942,76.0,12,47,10.0,0.0
13943,45.0,30,29,3.0,0.0
13944,78.0,0,119,0.0,0.0
13945,45.0,0,584,13.0,0.0
13946,78.0,12,47,10.0,0.0
13947,45.0,18,29,3.0,0.0
13948,69.0,0,119,2.0,0.0
13949,74.0,30,119,1.0,0.0
13950,74.0,0,104,4.0,0.0
13951,45.0,0,599,14.0,0.0
13952,62.0,3,464,12.0,0.0
13953,78.0,0,104,5.0,0.0
13954,45.0,30,29,3.0,0.0
13955,45.0,15,29,3.0,0.0
13956,74.0,12,47,10.0,0.0
13957,45.0,0,29,3.0,0.0
13958,74.0,0,104,5.0,0.0
13959,45.0,18,29,3.0,0.0
13960,71.0,12,47,10.0,0.0
13961,78.0,0,104,11.0,0.0
13962,71.0,3,104,4.0,0.0
13963,45.0,30,29,3.0,0.0
13964,74.0,12,47,10.0,0.0
13965,45.0,15,29,3.0,0.0
13966,45.0,30,29,3.0,0.0
13967,74.0,0,119,1.0,0.0
13968,68.0,12,47,10.0,0.0
13969,45.0,18,29,3.0,0.0
13970,71.0,3,104,11.0,0.0
13971,68.0,0,104,4.0,0.0
13972,71.0,0,104,5.0,0.0
13973,80.0,0,119,0.0,0.0
13974,62.0,0,119,2.0,0.0
13975,45.0,30,29,3.0,0.0
13976,78.0,12,47,10.0,0.0
13977,45.0,15,29,3.0,0.0
13978,45.0,30,29,3.0,0.0
13979,76.0,12,47,10.0,0.0
13980,71.0,0,104,4.0,0.0
13981,80.0,0,104,11.0,0.0
13982,80.0,0,104,5.0,0.0
13983,45.0,18,29,3.0,0.0
13984,45.0,30,29,3.0,0.0
13985,45.0,15,29,3.0,0.0
13986,74.0,12,47,10.0,0.0
13987,45.0,48,29,3.0,0.0
13988,73.0,48,119,4.0,0.0
13989,81.0,0,119,5.0,0.0
13990,69.0,0,104,2.0,0.0
13991,73.0,57,47,10.0,0.0
13992,45.0,0,119,3.0,0.0
13993,76.0,0,104,1.0,0.0
13994,64.0,0,239,12.0,0.0
13995,81.0,48,239,11.0,0.0
13996,81.0,3,104,0.0,0.0
13997,74.0,12,47,10.0,0.0
13998,47.0,3,104,13.0,0.0
13999,69.0,57,47,0.0,0.0
14000,69.0,0,47,2.0,0.0
14001,47.0,0,119,14.0,0.0
14002,73.0,0,47,10.0,0.0
14003,69.0,0,47,1.0,0.0
14004,69.0,0,47,2.0,0.0
14005,69.0,0,47,1.0,0.0
14006,71.0,0,47,10.0,0.0
14007,69.0,12,47,0.0,0.0
14008,69.0,0,104,2.0,0.0
14009,69.0,0,104,0.0,0.0
14010,69.0,57,47,10.0,0.0
14011,69.0,3,104,1.0,0.0
14012,49.0,48,119,14.0,0.0
14013,49.0,0,104,13.0,0.0
14014,67.0,12,47,10.0,0.0
14015,69.0,0,104,0.0,0.0
14016,45.0,0,104,13.0,0.0
14017,69.0,3,104,2.0,0.0
14018,45.0,48,119,14.0,0.0
14019,66.0,57,47,10.0,0.0
14020,69.0,0,104,1.0,0.0
14021,64.0,12,47,10.0,0.0
14022,69.0,3,224,11.0,0.0
14023,69.0,3,1184,5.0,0.0
14024,69.0,0,119,1.0,0.0
14025,69.0,48,119,0.0,0.0
14026,42.0,0,239,13.0,0.0
14027,63.0,72,47,10.0,0.0
14028,69.0,0,119,2.0,0.0
14029,42.0,48,239,14.0,0.0
14030,69.0,0,59,10.0,0.0
14031,71.0,45,59,10.0,0.0
14032,59.0,12,47,12.0,0.0
14033,69.0,0,47,10.0,0.0
14034,61.0,12,47,12.0,0.0
14035,63.0,3,104,12.0,0.0
14036,78.0,48,239,11.0,0.0
14037,71.0,57,47,10.0,0.0
14038,69.0,60,47,10.0,0.0
14039,63.0,60,47,12.0,0.0
14040,71.0,0,47,10.0,0.0
14041,69.0,0,47,10.0,0.0
14042,64.0,12,47,12.0,0.0
14043,47.0,0,239,13.0,0.0
14044,66.0,15,104,12.0,0.0
14045,47.0,48,239,14.0,0.0
14046,62.0,57,47,10.0,0.0
14047,69.0,48,59,10.0,0.0
14048,71.0,48,59,10.0,0.0
14049,63.0,12,47,12.0,0.0
14050,64.0,12,47,12.0,0.0
14051,69.0,0,47,10.0,0.0
14052,75.0,60,239,11.0,0.0
14053,66.0,3,104,12.0,0.0
14054,71.0,57,47,10.0,0.0
14055,69.0,60,47,10.0,0.0
14056,71.0,0,47,10.0,0.0
14057,66.0,60,47,12.0,0.0
14058,69.0,12,47,10.0,0.0
14059,67.0,0,47,12.0,0.0
14060,69.0,15,104,12.0,0.0
14061,63.0,45,59,10.0,0.0
14062,69.0,48,59,10.0,0.0
14063,71.0,57,47,10.0,0.0
14064,69.0,0,47,12.0,0.0
14065,47.0,48,119,14.0,0.0
14066,47.0,0,104,13.0,0.0
14067,68.0,0,47,12.0,0.0
14068,72.0,12,47,10.0,0.0
14069,71.0,57,47,10.0,0.0
14070,51.0,3,104,13.0,0.0
14071,66.0,0,224,5.0,0.0
14072,51.0,48,119,14.0,0.0
14073,69.0,0,104,12.0,0.0
14074,71.0,60,239,11.0,0.0
14075,69.0,12,47,10.0,0.0
14076,47.0,3,104,13.0,0.0
14077,68.0,57,47,10.0,0.0
14078,71.0,0,47,12.0,0.0
14079,47.0,0,119,14.0,0.0
14080,69.0,0,47,12.0,0.0
14081,66.0,12,47,10.0,0.0
14082,52.0,0,239,14.0,0.0
14083,68.0,3,224,12.0,0.0
14084,68.0,3,1424,5.0,0.0
14085,62.0,60,59,10.0,0.0
14086,52.0,48,239,13.0,0.0
14087,74.0,0,1184,4.0,0.0
14088,68.0,48,59,10.0,0.0
14089,71.0,0,47,10.0,0.0
14090,64.0,57,47,11.0,0.0
14091,68.0,0,47,10.0,0.0
14092,66.0,12,47,11.0,0.0
14093,68.0,3,104,11.0,0.0
14094,71.0,57,47,10.0,0.0
14095,64.0,60,239,12.0,0.0
14096,68.0,60,47,10.0,0.0
14097,68.0,0,47,11.0,0.0
14098,71.0,60,47,10.0,0.0
14099,68.0,12,47,10.0,0.0
14100,69.0,0,47,11.0,0.0
14101,40.0,0,239,14.0,0.0
14102,62.0,45,59,10.0,0.0
14103,40.0,48,239,13.0,0.0
14104,71.0,15,104,11.0,0.0
14105,68.0,48,59,10.0,0.0
14106,71.0,60,47,10.0,0.0
14107,68.0,0,47,11.0,0.0
14108,68.0,12,47,10.0,0.0
14109,69.0,0,47,11.0,0.0
14110,71.0,57,47,10.0,0.0
14111,68.0,60,239,12.0,0.0
14112,71.0,3,104,11.0,0.0
14113,68.0,60,47,10.0,0.0
14114,71.0,0,47,10.0,0.0
14115,71.0,60,47,11.0,0.0
14116,68.0,0,47,10.0,0.0
14117,73.0,12,47,11.0,0.0
14118,62.0,45,59,10.0,0.0
14119,74.0,15,104,11.0,0.0
14120,68.0,48,59,10.0,0.0
14121,40.0,48,119,14.0,0.0
14122,74.0,0,47,11.0,0.0
14123,40.0,3,104,13.0,0.0
14124,71.0,57,47,10.0,0.0
14125,73.0,12,47,11.0,0.0
14126,69.0,0,47,10.0,0.0
14127,68.0,57,47,10.0,0.0
14128,52.0,48,119,14.0,0.0
14129,71.0,0,224,4.0,0.0
14130,74.0,3,104,11.0,0.0
14131,52.0,0,104,13.0,0.0
14132,71.0,60,239,12.0,0.0
14133,66.0,12,47,10.0,0.0
14134,64.0,57,47,10.0,0.0
14135,73.0,0,47,11.0,0.0
14136,44.0,0,104,13.0,0.0
14137,44.0,0,119,14.0,0.0
14138,71.0,12,47,11.0,0.0
14139,62.0,0,47,10.0,0.0
14140,73.0,3,1424,4.0,0.0
14141,45.0,48,239,14.0,0.0
14142,45.0,0,239,13.0,0.0
14143,73.0,3,224,11.0,0.0
14144,61.0,60,59,10.0,0.0
14145,67.0,0,1184,5.0,0.0
14146,67.0,48,59,10.0,0.0
14147,69.0,57,47,10.0,0.0
14148,69.0,0,119,0.0,0.0
14149,57.0,0,47,12.0,0.0
14150,67.0,0,47,10.0,0.0
14151,59.0,12,47,12.0,0.0
14152,61.0,3,104,12.0,0.0
14153,76.0,60,239,11.0,0.0
14154,69.0,48,119,0.0,0.0
14155,69.0,57,47,10.0,0.0
14156,67.0,12,47,10.0,0.0
14157,61.0,0,47,12.0,0.0
14158,69.0,57,47,10.0,0.0
14159,69.0,3,104,0.0,0.0
14160,62.0,0,47,12.0,0.0
14161,67.0,12,47,10.0,0.0
14162,61.0,45,59,10.0,0.0
14163,57.0,0,239,13.0,0.0
14164,64.0,15,104,12.0,0.0
14165,57.0,0,239,14.0,0.0
14166,69.0,0,119,0.0,0.0
14167,67.0,48,59,10.0,0.0
14168,69.0,0,47,10.0,0.0
14169,69.0,48,119,1.0,0.0
14170,61.0,60,47,12.0,0.0
14171,69.0,0,119,0.0,0.0
14172,62.0,12,47,12.0,0.0
14173,67.0,0,47,10.0,0.0
14174,64.0,3,104,12.0,0.0
14175,73.0,60,239,11.0,0.0
14176,69.0,48,119,0.0,0.0
14177,69.0,57,47,10.0,0.0
14178,69.0,0,119,1.0,0.0
14179,67.0,12,47,10.0,0.0
14180,69.0,0,104,1.0,0.0
14181,69.0,3,104,0.0,0.0
14182,69.0,57,47,10.0,0.0
14183,64.0,0,47,12.0,0.0
14184,66.0,0,47,12.0,0.0
14185,67.0,12,47,10.0,0.0
14186,67.0,15,104,12.0,0.0
14187,69.0,0,104,1.0,0.0
14188,69.0,0,104,0.0,0.0
14189,61.0,45,59,10.0,0.0
14190,67.0,48,59,10.0,0.0
14191,76.0,0,104,0.0,0.0
14192,67.0,0,47,12.0,0.0
14193,69.0,57,47,10.0,0.0
14194,45.0,0,119,3.0,0.0
14195,69.0,0,104,1.0,0.0
14196,45.0,3,104,13.0,0.0
14197,69.0,0,119,2.0,0.0
14198,45.0,48,119,14.0,0.0
14199,71.0,12,47,10.0,0.0
14200,66.0,0,47,12.0,0.0
14201,64.0,0,224,5.0,0.0
14202,69.0,3,104,1.0,0.0
14203,69.0,57,47,10.0,0.0
14204,67.0,0,104,12.0,0.0
14205,69.0,30,239,11.0,0.0
14206,49.0,0,119,14.0,0.0
14207,49.0,0,104,13.0,0.0
14208,69.0,0,119,2.0,0.0
14209,76.0,0,104,0.0,0.0
14210,45.0,48,119,3.0,0.0
14211,67.0,12,47,10.0,0.0
14212,76.0,0,104,1.0,0.0
14213,66.0,57,47,10.0,0.0
14214,45.0,0,119,3.0,0.0
14215,81.0,0,104,0.0,0.0
14216,69.0,0,47,12.0,0.0
14217,45.0,0,104,13.0,0.0
14218,69.0,0,104,2.0,0.0
14219,45.0,0,119,14.0,0.0
14220,64.0,0,47,10.0,0.0
14221,67.0,12,47,12.0,0.0
14222,50.0,0,239,14.0,0.0
14223,66.0,0,1424,5.0,0.0
14224,60.0,30,59,10.0,0.0
14225,74.0,15,104,1.0,0.0
14226,50.0,0,239,13.0,0.0
14227,78.0,0,104,0.0,0.0
14228,69.0,0,104,2.0,0.0
14229,72.0,0,1064,4.0,0.0
14230,50.0,30,29,3.0,0.0
14231,66.0,0,224,12.0,0.0
14232,50.0,0,29,3.0,0.0
14233,66.0,0,59,10.0,0.0
14234,50.0,15,29,3.0,0.0
14235,50.0,30,29,3.0,0.0
14236,50.0,18,29,3.0,0.0
14237,66.0,3,104,0.0,0.0
14238,57.0,0,104,2.0,0.0
14239,62.0,12,47,11.0,0.0
14240,62.0,0,104,1.0,0.0
14241,69.0,0,47,10.0,0.0
14242,50.0,30,29,3.0,0.0
14243,64.0,12,47,11.0,0.0
14244,66.0,0,47,10.0,0.0
14245,50.0,15,29,3.0,0.0
14246,50.0,30,29,3.0,0.0
14247,66.0,0,119,0.0,0.0
14248,62.0,30,239,12.0,0.0
14249,66.0,3,104,11.0,0.0
14250,62.0,30,119,1.0,0.0
14251,57.0,0,119,2.0,0.0
14252,69.0,12,47,10.0,0.0
14253,50.0,18,29,3.0,0.0
14254,50.0,30,29,3.0,0.0
14255,50.0,15,29,3.0,0.0
14256,66.0,12,47,10.0,0.0
14257,50.0,0,29,3.0,0.0
14258,50.0,18,29,3.0,0.0
14259,66.0,12,47,11.0,0.0
14260,69.0,0,104,0.0,0.0
14261,66.0,0,104,1.0,0.0
14262,69.0,0,47,10.0,0.0
14263,62.0,3,104,2.0,0.0
14264,50.0,30,29,3.0,0.0
14265,67.0,0,47,11.0,0.0
14266,66.0,12,47,10.0,0.0
14267,50.0,15,29,3.0,0.0
14268,50.0,0,29,3.0,0.0
14269,60.0,0,59,10.0,0.0
14270,38.0,0,239,14.0,0.0
14271,66.0,0,119,1.0,0.0
14272,69.0,0,119,0.0,0.0
14273,62.0,0,119,2.0,0.0
14274,38.0,0,239,13.0,0.0
14275,50.0,30,29,3.0,0.0
14276,69.0,15,104,11.0,0.0
14277,50.0,30,29,3.0,0.0
14278,50.0,15,29,3.0,0.0
14279,66.0,30,59,10.0,0.0
14280,50.0,0,29,3.0,0.0
14281,50.0,18,29,3.0,0.0
14282,69.0,0,47,10.0,0.0
14283,66.0,12,47,11.0,0.0
14284,74.0,0,104,0.0,0.0
14285,69.0,0,104,1.0,0.0
14286,66.0,3,104,2.0,0.0
14287,50.0,30,29,3.0,0.0
14288,66.0,0,47,10.0,0.0
14289,50.0,15,29,3.0,0.0
14290,67.0,12,47,11.0,0.0
14291,50.0,30,29,3.0,0.0
14292,69.0,3,104,11.0,0.0
14293,69.0,12,47,10.0,0.0
14294,66.0,30,239,12.0,0.0
14295,74.0,0,119,0.0,0.0
14296,69.0,30,119,1.0,0.0
14297,50.0,18,29,3.0,0.0
14298,66.0,0,119,2.0,0.0
14299,50.0,30,29,3.0,0.0
14300,50.0,15,29,3.0,0.0
14301,66.0,12,47,10.0,0.0
14302,50.0,0,29,3.0,0.0
14303,78.0,0,104,0.0,0.0
14304,69.0,12,47,11.0,0.0
14305,69.0,0,47,10.0,0.0
14306,69.0,0,104,2.0,0.0
14307,74.0,3,104,1.0,0.0
14308,50.0,18,29,3.0,0.0
14309,50.0,30,29,3.0,0.0
14310,71.0,12,47,11.0,0.0
14311,66.0,0,47,10.0,0.0
14312,50.0,15,29,3.0,0.0
14313,50.0,0,29,3.0,0.0
14314,50.0,30,29,3.0,0.0
14315,74.0,0,119,1.0,0.0
14316,78.0,0,119,0.0,0.0
14317,69.0,30,119,2.0,0.0
14318,72.0,15,104,11.0,0.0
14319,60.0,30,59,10.0,0.0
14320,50.0,0,29,3.0,0.0
14321,50.0,15,29,3.0,0.0
14322,66.0,0,59,10.0,0.0
14323,50.0,0,29,3.0,0.0
14324,78.0,0,104,1.0,0.0
14325,50.0,30,119,14.0,0.0
14326,50.0,18,29,3.0,0.0
14327,72.0,12,47,11.0,0.0
14328,69.0,0,104,4.0,0.0
14329,50.0,3,104,13.0,0.0
14330,81.0,0,104,0.0,0.0
14331,69.0,0,47,10.0,0.0
14332,74.0,0,104,2.0,0.0
14333,50.0,30,29,3.0,0.0
14334,67.0,12,47,10.0,0.0
14335,71.0,0,47,11.0,0.0
14336,50.0,15,29,3.0,0.0
14337,50.0,0,29,3.0,0.0
14338,81.0,30,119,0.0,0.0
14339,50.0,18,29,3.0,0.0
14340,38.0,0,119,14.0,0.0
14341,78.0,0,119,1.0,0.0
14342,66.0,12,47,10.0,0.0
14343,72.0,3,104,11.0,0.0
14344,38.0,0,104,13.0,0.0
14345,74.0,0,119,2.0,0.0
14346,69.0,3,224,12.0,0.0
14347,66.0,0,104,4.0,0.0
14348,50.0,30,29,3.0,0.0
14349,64.0,12,47,10.0,0.0
14350,50.0,15,29,3.0,0.0
14351,50.0,0,29,3.0,0.0
14352,62.0,0,104,4.0,0.0
14353,62.0,12,47,10.0,0.0
14354,42.0,0,104,13.0,0.0
14355,81.0,0,104,1.0,0.0
14356,86.0,0,104,0.0,0.0
14357,50.0,18,29,3.0,0.0
14358,42.0,48,119,14.0,0.0
14359,71.0,0,47,11.0,0.0
14360,78.0,0,104,2.0,0.0
14361,50.0,30,29,3.0,0.0
14362,69.0,12,47,11.0,0.0
14363,50.0,15,29,3.0,0.0
14364,60.0,0,47,10.0,0.0
14365,50.0,0,29,3.0,0.0
14366,71.0,0,119,4.0,0.0
14367,79.0,48,119,2.0,0.0
14368,50.0,0,119,3.0,0.0
14369,62.0,0,239,12.0,0.0
14370,71.0,48,239,11.0,0.0
14371,62.0,0,119,5.0,0.0
14372,43.0,0,119,14.0,0.0
14373,43.0,3,104,13.0,0.0
14374,59.0,57,47,10.0,0.0
14375,83.0,0,119,1.0,0.0
14376,86.0,0,119,0.0,0.0
14377,55.0,12,47,10.0,0.0
14378,42.0,0,119,14.0,0.0
14379,57.0,57,47,10.0,0.0
14380,42.0,3,104,13.0,0.0
14381,60.0,12,47,10.0,0.0
14382,43.0,48,119,14.0,0.0
14383,59.0,57,47,10.0,0.0
14384,43.0,3,104,13.0,0.0
14385,62.0,12,47,10.0,0.0
14386,45.0,48,119,14.0,0.0
14387,61.0,57,47,10.0,0.0
14388,45.0,3,104,13.0,0.0
14389,64.0,12,47,10.0,0.0
14390,47.0,48,119,14.0,0.0
14391,47.0,3,104,13.0,0.0
14392,62.0,57,47,10.0,0.0
14393,59.0,12,47,10.0,0.0
14394,61.0,57,47,10.0,0.0
14395,45.0,3,104,13.0,0.0
14396,45.0,48,119,14.0,0.0
14397,64.0,12,47,10.0,0.0
14398,62.0,57,47,10.0,0.0
14399,47.0,48,119,14.0,0.0
14400,47.0,3,104,13.0,0.0
14401,66.0,12,47,10.0,0.0
14402,49.0,48,119,14.0,0.0
14403,64.0,57,47,10.0,0.0
14404,49.0,3,104,13.0,0.0
14405,67.0,12,47,10.0,0.0
14406,66.0,57,47,10.0,0.0
14407,50.0,3,104,13.0,0.0
14408,50.0,48,119,14.0,0.0
14409,62.0,12,47,10.0,0.0
14410,49.0,48,119,14.0,0.0
14411,49.0,3,104,13.0,0.0
14412,64.0,57,47,10.0,0.0
14413,67.0,12,47,10.0,0.0
14414,50.0,3,104,13.0,0.0
14415,66.0,57,47,10.0,0.0
14416,50.0,48,119,14.0,0.0
14417,69.0,12,47,10.0,0.0
14418,52.0,3,104,13.0,0.0
14419,67.0,57,47,10.0,0.0
14420,52.0,48,119,14.0,0.0
14421,71.0,12,47,10.0,0.0
14422,69.0,57,47,10.0,0.0
14423,54.0,48,119,14.0,0.0
14424,54.0,3,104,13.0,0.0
14425,62.0,12,47,10.0,0.0
14426,66.0,57,47,10.0,0.0
14427,52.0,48,119,14.0,0.0
14428,52.0,3,104,13.0,0.0
14429,69.0,12,47,10.0,0.0
14430,54.0,48,119,14.0,0.0
14431,74.0,57,47,10.0,0.0
14432,54.0,3,104,13.0,0.0
14433,78.0,12,47,10.0,0.0
14434,55.0,3,104,13.0,0.0
14435,76.0,57,47,10.0,0.0
14436,55.0,105,119,14.0,0.0
14437,74.0,12,47,10.0,0.0
14438,57.0,48,119,14.0,0.0
14439,57.0,0,104,13.0,0.0
14440,73.0,15,104,10.0,0.0
14441,57.0,0,104,13.0,0.0
14442,69.0,12,47,10.0,0.0
14443,69.0,0,47,4.0,0.0
14444,76.0,3,104,11.0,0.0
14445,61.0,0,47,12.0,0.0
14446,57.0,48,119,14.0,0.0
14447,45.0,45,59,3.0,0.0
14448,76.0,0,104,5.0,0.0
14449,71.0,0,47,10.0,0.0
14450,62.0,0,47,12.0,0.0
14451,71.0,12,47,4.0,0.0
14452,81.0,0,119,0.0,0.0
14453,73.0,0,104,4.0,0.0
14454,69.0,0,104,11.0,0.0
14455,69.0,0,119,2.0,0.0
14456,64.0,12,47,12.0,0.0
14457,57.0,0,104,13.0,0.0
14458,73.0,0,104,10.0,0.0
14459,57.0,48,119,14.0,0.0
14460,45.0,45,59,3.0,0.0
14461,69.0,3,104,5.0,0.0
14462,76.0,0,119,1.0,0.0
14463,66.0,12,47,12.0,0.0
14464,73.0,0,224,11.0,0.0
14465,45.0,45,59,3.0,0.0
14466,57.0,3,104,13.0,0.0
14467,73.0,0,47,10.0,0.0
14468,73.0,0,47,4.0,0.0
14469,57.0,48,119,14.0,0.0
14470,73.0,3,224,5.0,0.0
14471,64.0,12,47,12.0,0.0
14472,74.0,0,47,4.0,0.0
14473,66.0,0,47,12.0,0.0
14474,74.0,12,47,10.0,0.0
14475,67.0,12,47,12.0,0.0
14476,45.0,45,59,3.0,0.0
14477,57.0,0,104,13.0,0.0
14478,81.0,0,119,0.0,0.0
14479,76.0,0,104,4.0,0.0
14480,57.0,0,119,14.0,0.0
14481,69.0,48,119,2.0,0.0
14482,76.0,0,119,1.0,0.0
14483,76.0,0,104,10.0,0.0
14484,64.0,12,47,12.0,0.0
14485,57.0,12,47,12.0,0.0
14486,57.0,0,104,13.0,0.0
14487,57.0,48,119,14.0,0.0
14488,76.0,0,104,5.0,0.0
14489,45.0,45,59,3.0,0.0
14490,76.0,3,104,11.0,0.0
14491,73.0,0,47,10.0,0.0
14492,73.0,0,47,4.0,0.0
14493,74.0,0,47,10.0,0.0
14494,74.0,0,47,4.0,0.0
14495,59.0,12,47,12.0,0.0
14496,81.0,0,119,1.0,0.0
14497,57.0,0,104,13.0,0.0
14498,69.0,48,119,2.0,0.0
14499,76.0,0,119,0.0,0.0
14500,67.0,0,104,11.0,0.0
14501,57.0,0,119,14.0,0.0
14502,61.0,12,47,12.0,0.0
14503,67.0,0,104,5.0,0.0
14504,76.0,3,104,10.0,0.0
14505,45.0,45,59,3.0,0.0
14506,76.0,0,104,4.0,0.0
14507,62.0,12,47,12.0,0.0
14508,73.0,0,224,5.0,0.0
14509,57.0,48,119,14.0,0.0
14510,73.0,0,224,11.0,0.0
14511,57.0,3,104,13.0,0.0
14512,76.0,12,47,4.0,0.0
14513,61.0,0,47,12.0,0.0
14514,45.0,45,59,3.0,0.0
14515,76.0,0,47,10.0,0.0
14516,78.0,0,47,10.0,0.0
14517,62.0,0,47,12.0,0.0
14518,78.0,12,47,4.0,0.0
14519,79.0,0,104,4.0,0.0
14520,76.0,48,119,0.0,0.0
14521,57.0,3,104,13.0,0.0
14522,57.0,0,119,14.0,0.0
14523,81.0,0,119,1.0,0.0
14524,69.0,0,119,2.0,0.0
14525,64.0,12,47,12.0,0.0
14526,79.0,0,104,10.0,0.0
14527,45.0,45,59,3.0,0.0
14528,62.0,12,47,12.0,0.0
14529,52.0,0,104,13.0,0.0
14530,79.0,0,47,10.0,0.0
14531,76.0,0,104,5.0,0.0
14532,45.0,45,59,3.0,0.0
14533,61.0,0,47,12.0,0.0
14534,52.0,48,119,14.0,0.0
14535,76.0,3,104,11.0,0.0
14536,79.0,12,47,4.0,0.0
14537,78.0,0,47,4.0,0.0
14538,78.0,0,47,10.0,0.0
14539,62.0,12,47,12.0,0.0
14540,49.0,0,119,14.0,0.0
14541,69.0,3,104,11.0,0.0
14542,64.0,12,47,12.0,0.0
14543,69.0,0,104,5.0,0.0
14544,79.0,0,119,0.0,0.0
14545,79.0,0,104,10.0,0.0
14546,76.0,0,119,1.0,0.0
14547,49.0,0,104,13.0,0.0
14548,79.0,0,104,4.0,0.0
14549,45.0,45,59,3.0,0.0
14550,69.0,48,119,2.0,0.0
14551,62.0,12,47,12.0,0.0
14552,45.0,45,59,3.0,0.0
14553,45.0,48,119,14.0,0.0
14554,61.0,12,47,12.0,0.0
14555,81.0,0,47,4.0,0.0
14556,81.0,0,47,10.0,0.0
14557,73.0,3,104,11.0,0.0
14558,73.0,0,104,5.0,0.0
14559,45.0,0,104,13.0,0.0
14560,79.0,0,47,10.0,0.0
14561,79.0,0,47,4.0,0.0
14562,59.0,12,47,12.0,0.0
14563,74.0,0,119,1.0,0.0
14564,78.0,0,104,10.0,0.0
14565,50.0,0,119,14.0,0.0
14566,50.0,0,104,13.0,0.0
14567,78.0,3,104,4.0,0.0
14568,78.0,48,119,0.0,0.0
14569,50.0,0,119,3.0,0.0
14570,57.0,57,47,12.0,0.0
14571,69.0,0,104,2.0,0.0
14572,74.0,0,104,11.0,0.0
14573,74.0,0,104,5.0,0.0
14574,69.0,12,47,12.0,0.0
14575,62.0,3,104,13.0,0.0
14576,81.0,0,104,4.0,0.0
14577,81.0,0,104,10.0,0.0
14578,62.0,0,119,14.0,0.0
14579,62.0,0,47,11.0,0.0
14580,62.0,0,47,5.0,0.0
14581,66.0,57,47,12.0,0.0
14582,62.0,48,119,2.0,0.0
14583,67.0,12,47,12.0,0.0
14584,64.0,0,47,11.0,0.0
14585,64.0,0,47,5.0,0.0
14586,62.0,48,119,2.0,0.0
14587,66.0,0,104,5.0,0.0
14588,74.0,0,104,10.0,0.0
14589,62.0,0,104,13.0,0.0
14590,69.0,57,47,12.0,0.0
14591,74.0,3,104,4.0,0.0
14592,62.0,0,119,14.0,0.0
14593,66.0,0,104,11.0,0.0
14594,71.0,12,47,12.0,0.0
14595,78.0,0,224,10.0,0.0
14596,50.0,45,59,3.0,0.0
14597,62.0,48,119,14.0,0.0
14598,62.0,3,104,2.0,0.0
14599,62.0,0,104,1.0,0.0
14600,78.0,0,224,4.0,0.0
14601,66.0,12,47,11.0,0.0
14602,66.0,0,47,5.0,0.0
14603,69.0,0,47,12.0,0.0
14604,62.0,0,104,13.0,0.0
14605,71.0,0,47,12.0,0.0
14606,67.0,12,47,11.0,0.0
14607,50.0,0,59,3.0,0.0
14608,67.0,0,47,5.0,0.0
14609,62.0,3,104,13.0,0.0
14610,62.0,48,119,14.0,0.0
14611,72.0,57,47,12.0,0.0
14612,50.0,0,119,3.0,0.0
14613,62.0,0,104,1.0,0.0
14614,69.0,0,104,11.0,0.0
14615,62.0,0,104,2.0,0.0
14616,69.0,0,104,5.0,0.0
14617,69.0,12,47,12.0,0.0
14618,66.0,0,47,11.0,0.0
14619,62.0,48,119,1.0,0.0
14620,62.0,0,119,0.0,0.0
14621,62.0,0,104,13.0,0.0
14622,81.0,3,104,4.0,0.0
14623,66.0,0,47,5.0,0.0
14624,81.0,0,104,10.0,0.0
14625,62.0,0,119,14.0,0.0
14626,62.0,0,104,2.0,0.0
14627,62.0,57,47,12.0,0.0
14628,64.0,0,47,12.0,0.0
14629,67.0,0,47,11.0,0.0
14630,67.0,12,47,5.0,0.0
14631,62.0,0,119,1.0,0.0
14632,62.0,0,104,2.0,0.0
14633,62.0,48,119,14.0,0.0
14634,72.0,0,104,4.0,0.0
14635,62.0,0,119,0.0,0.0
14636,69.0,0,104,11.0,0.0
14637,69.0,3,104,5.0,0.0
14638,62.0,0,104,13.0,0.0
14639,72.0,0,104,10.0,0.0
14640,66.0,57,47,12.0,0.0
14641,67.0,12,47,12.0,0.0
14642,62.0,0,104,0.0,0.0
14643,62.0,3,104,13.0,0.0
14644,50.0,45,59,3.0,0.0
14645,69.0,12,47,5.0,0.0
14646,78.0,0,224,4.0,0.0
14647,69.0,0,47,11.0,0.0
14648,62.0,0,104,1.0,0.0
14649,78.0,0,224,10.0,0.0
14650,62.0,0,119,14.0,0.0
14651,62.0,0,104,2.0,0.0
14652,66.0,0,47,12.0,0.0
14653,50.0,48,59,3.0,0.0
14654,71.0,0,47,11.0,0.0
14655,71.0,12,47,5.0,0.0
14656,67.0,0,47,12.0,0.0
14657,62.0,0,119,14.0,0.0
14658,69.0,57,47,12.0,0.0
14659,72.0,0,104,5.0,0.0
14660,72.0,0,104,11.0,0.0
14661,62.0,0,104,2.0,0.0
14662,62.0,3,104,1.0,0.0
14663,50.0,48,119,3.0,0.0
14664,62.0,0,104,13.0,0.0
14665,62.0,0,104,0.0,0.0
14666,67.0,12,47,12.0,0.0
14667,57.0,0,119,14.0,0.0
14668,78.0,0,104,1.0,0.0
14669,72.0,0,47,11.0,0.0
14670,81.0,0,104,10.0,0.0
14671,50.0,48,119,3.0,0.0
14672,74.0,0,104,2.0,0.0
14673,66.0,57,47,12.0,0.0
14674,72.0,0,47,5.0,0.0
14675,81.0,3,104,4.0,0.0
14676,81.0,0,104,0.0,0.0
14677,57.0,0,104,13.0,0.0
14678,71.0,0,47,11.0,0.0
14679,67.0,0,47,12.0,0.0
14680,71.0,12,47,5.0,0.0
14681,74.0,3,104,10.0,0.0
14682,54.0,48,119,14.0,0.0
14683,69.0,0,104,2.0,0.0
14684,72.0,0,104,11.0,0.0
14685,54.0,0,104,13.0,0.0
14686,74.0,0,104,4.0,0.0
14687,86.0,0,104,0.0,0.0
14688,74.0,0,104,1.0,0.0
14689,50.0,0,119,3.0,0.0
14690,69.0,57,47,12.0,0.0
14691,72.0,0,104,5.0,0.0
14692,67.0,12,47,12.0,0.0
14693,74.0,0,104,2.0,0.0
14694,78.0,0,104,1.0,0.0
14695,66.0,57,47,12.0,0.0
14696,74.0,0,47,5.0,0.0
14697,78.0,0,104,4.0,0.0
14698,81.0,0,104,0.0,0.0
14699,50.0,0,119,3.0,0.0
14700,50.0,48,119,14.0,0.0
14701,74.0,0,47,11.0,0.0
14702,78.0,0,104,10.0,0.0
14703,50.0,3,104,13.0,0.0
14704,72.0,0,47,11.0,0.0
14705,64.0,0,47,12.0,0.0
14706,72.0,12,47,5.0,0.0
14707,79.0,0,104,4.0,0.0
14708,83.0,0,119,0.0,0.0
14709,55.0,0,104,13.0,0.0
14710,74.0,0,119,2.0,0.0
14711,79.0,0,104,10.0,0.0
14712,79.0,0,119,1.0,0.0
14713,71.0,0,104,5.0,0.0
14714,55.0,48,119,14.0,0.0
14715,62.0,57,47,12.0,0.0
14716,50.0,0,119,3.0,0.0
14717,71.0,3,104,11.0,0.0
14718,59.0,12,47,12.0,0.0
14719,83.0,0,104,4.0,0.0
14720,67.0,0,47,11.0,0.0
14721,83.0,0,104,10.0,0.0
14722,64.0,3,104,13.0,0.0
14723,67.0,57,47,5.0,0.0
14724,64.0,48,119,14.0,0.0
14725,64.0,0,47,12.0,0.0
14726,69.0,0,47,5.0,0.0
14727,69.0,12,47,11.0,0.0
14728,66.0,0,47,12.0,0.0
14729,68.0,57,47,12.0,0.0
14730,71.0,0,104,11.0,0.0
14731,64.0,48,119,14.0,0.0
14732,64.0,3,104,13.0,0.0
14733,74.0,0,104,4.0,0.0
14734,74.0,0,104,10.0,0.0
14735,71.0,0,104,5.0,0.0
14736,69.0,12,47,12.0,0.0
14737,71.0,0,47,11.0,0.0
14738,71.0,0,47,5.0,0.0
14739,80.0,0,224,10.0,0.0
14740,64.0,3,104,13.0,0.0
14741,64.0,48,119,14.0,0.0
14742,68.0,57,47,12.0,0.0
14743,80.0,3,224,4.0,0.0
14744,69.0,12,47,12.0,0.0
14745,73.0,0,47,11.0,0.0
14746,73.0,0,47,5.0,0.0
14747,74.0,0,104,5.0,0.0
14748,64.0,48,119,14.0,0.0
14749,74.0,0,104,11.0,0.0
14750,71.0,57,47,12.0,0.0
14751,64.0,0,104,13.0,0.0
14752,69.0,12,47,12.0,0.0
14753,74.0,0,47,5.0,0.0
14754,59.0,48,119,14.0,0.0
14755,83.0,0,104,4.0,0.0
14756,59.0,3,104,13.0,0.0
14757,83.0,0,104,10.0,0.0
14758,68.0,57,47,12.0,0.0
14759,74.0,0,47,11.0,0.0
14760,69.0,0,47,12.0,0.0
14761,73.0,0,47,5.0,0.0
14762,73.0,12,47,11.0,0.0
14763,71.0,57,47,12.0,0.0
14764,76.0,0,104,10.0,0.0
14765,76.0,0,104,4.0,0.0
14766,74.0,0,104,5.0,0.0
14767,56.0,48,119,14.0,0.0
14768,74.0,0,104,11.0,0.0
14769,56.0,3,104,13.0,0.0
14770,69.0,12,47,12.0,0.0
14771,80.0,0,104,10.0,0.0
14772,80.0,0,104,4.0,0.0
14773,76.0,0,47,11.0,0.0
14774,68.0,0,47,12.0,0.0
14775,76.0,57,47,5.0,0.0
14776,52.0,3,104,13.0,0.0
14777,52.0,48,119,14.0,0.0
14778,66.0,0,47,12.0,0.0
14779,74.0,12,47,5.0,0.0
14780,74.0,0,47,11.0,0.0
14781,73.0,3,104,11.0,0.0
14782,73.0,0,104,5.0,0.0
14783,57.0,0,239,13.0,0.0
14784,57.0,48,239,14.0,0.0
14785,81.0,57,47,10.0,0.0
14786,64.0,0,104,12.0,0.0
14787,81.0,0,47,4.0,0.0
14788,76.0,0,47,10.0,0.0
14789,76.0,60,47,4.0,0.0
14790,76.0,3,104,11.0,0.0
14791,57.0,57,47,12.0,0.0
14792,73.0,0,47,10.0,0.0
14793,73.0,0,47,4.0,0.0
14794,76.0,0,104,5.0,0.0
14795,74.0,0,47,10.0,0.0
14796,74.0,0,47,4.0,0.0
14797,59.0,12,47,12.0,0.0
14798,69.0,0,104,11.0,0.0
14799,69.0,3,104,5.0,0.0
14800,76.0,57,47,4.0,0.0
14801,76.0,0,47,10.0,0.0
14802,61.0,0,104,12.0,0.0
14803,78.0,0,47,4.0,0.0
14804,78.0,60,47,10.0,0.0
14805,76.0,60,47,4.0,0.0
14806,76.0,0,47,10.0,0.0
14807,61.0,0,47,12.0,0.0
14808,73.0,3,224,11.0,0.0
14809,73.0,0,224,5.0,0.0
14810,78.0,0,47,10.0,0.0
14811,62.0,0,47,12.0,0.0
14812,78.0,60,47,4.0,0.0
14813,79.0,57,47,10.0,0.0
14814,79.0,0,47,4.0,0.0
14815,45.0,0,239,14.0,0.0
14816,64.0,0,104,12.0,0.0
14817,45.0,48,239,13.0,0.0
14818,76.0,60,47,4.0,0.0
14819,76.0,0,47,10.0,0.0
14820,61.0,0,47,12.0,0.0
14821,69.0,0,47,10.0,0.0
14822,76.0,3,104,5.0,0.0
14823,69.0,57,47,4.0,0.0
14824,76.0,0,104,11.0,0.0
14825,71.0,12,47,4.0,0.0
14826,62.0,0,47,12.0,0.0
14827,71.0,0,47,10.0,0.0
14828,64.0,3,104,12.0,0.0
14829,67.0,0,104,11.0,0.0
14830,73.0,0,47,10.0,0.0
14831,67.0,0,104,5.0,0.0
14832,73.0,57,47,4.0,0.0
14833,74.0,60,47,10.0,0.0
14834,74.0,0,47,4.0,0.0
14835,73.0,0,224,11.0,0.0
14836,64.0,0,47,12.0,0.0
14837,73.0,60,47,4.0,0.0
14838,73.0,0,47,10.0,0.0
14839,73.0,3,224,5.0,0.0
14840,66.0,60,47,12.0,0.0
14841,74.0,0,47,4.0,0.0
14842,74.0,0,47,10.0,0.0
14843,67.0,0,104,12.0,0.0
14844,76.0,57,47,4.0,0.0
14845,57.0,0,239,13.0,0.0
14846,76.0,0,47,10.0,0.0
14847,57.0,48,239,14.0,0.0
14848,74.0,0,47,10.0,0.0
14849,74.0,60,47,4.0,0.0
14850,73.0,57,47,10.0,0.0
14851,76.0,0,104,5.0,0.0
14852,67.0,0,47,12.0,0.0
14853,76.0,3,104,11.0,0.0
14854,73.0,0,47,4.0,0.0
14855,74.0,12,47,4.0,0.0
14856,74.0,0,47,10.0,0.0
14857,66.0,0,47,12.0,0.0
14858,69.0,0,104,11.0,0.0
14859,69.0,0,104,5.0,0.0
14860,76.0,0,47,10.0,0.0
14861,67.0,3,104,12.0,0.0
14862,76.0,57,47,4.0,0.0
14863,74.0,0,47,4.0,0.0
14864,74.0,60,47,10.0,0.0
14865,73.0,57,47,4.0,0.0
14866,69.0,0,47,12.0,0.0
14867,73.0,0,47,10.0,0.0
14868,73.0,3,104,5.0,0.0
14869,73.0,0,104,11.0,0.0
14870,67.0,60,47,12.0,0.0
14871,71.0,0,47,10.0,0.0
14872,71.0,0,47,4.0,0.0
14873,69.0,0,47,4.0,0.0
14874,74.0,57,47,5.0,0.0
14875,66.0,3,104,12.0,0.0
14876,74.0,0,47,11.0,0.0
14877,69.0,0,47,10.0,0.0
14878,69.0,0,47,11.0,0.0
14879,74.0,0,47,10.0,0.0
14880,74.0,60,47,4.0,0.0
14881,69.0,0,47,5.0,0.0
14882,69.0,3,104,12.0,0.0
14883,66.0,12,47,11.0,0.0
14884,73.0,0,47,10.0,0.0
14885,73.0,0,47,4.0,0.0
14886,66.0,0,47,5.0,0.0
14887,50.0,45,59,14.0,0.0
14888,50.0,0,47,13.0,0.0
14889,67.0,0,47,5.0,0.0
14890,52.0,48,59,14.0,0.0
14891,67.0,0,47,11.0,0.0
14892,71.0,0,47,10.0,0.0
14893,52.0,0,47,13.0,0.0
14894,71.0,12,47,4.0,0.0
14895,69.0,57,47,11.0,0.0
14896,54.0,3,104,13.0,0.0
14897,69.0,0,47,4.0,0.0
14898,62.0,0,104,12.0,0.0
14899,69.0,0,47,10.0,0.0
14900,69.0,0,47,5.0,0.0
14901,54.0,48,119,14.0,0.0
14902,71.0,0,47,5.0,0.0
14903,67.0,0,47,10.0,0.0
14904,71.0,12,47,11.0,0.0
14905,67.0,0,47,4.0,0.0
14906,54.0,0,47,13.0,0.0
14907,66.0,0,47,4.0,0.0
14908,66.0,0,47,10.0,0.0
14909,69.0,0,47,5.0,0.0
14910,66.0,0,224,12.0,0.0
14911,69.0,12,47,11.0,0.0
14912,54.0,48,59,14.0,0.0
14913,55.0,12,47,13.0,0.0
14914,55.0,48,59,14.0,0.0
14915,64.0,0,47,10.0,0.0
14916,71.0,0,47,11.0,0.0
14917,64.0,0,47,4.0,0.0
14918,71.0,0,47,5.0,0.0
14919,62.0,0,104,4.0,0.0
14920,72.0,57,47,5.0,0.0
14921,72.0,0,47,11.0,0.0
14922,62.0,3,104,10.0,0.0
14923,57.0,0,104,13.0,0.0
14924,57.0,48,119,14.0,0.0
14925,69.0,12,47,5.0,0.0
14926,69.0,0,47,11.0,0.0
14927,62.0,12,47,11.0,0.0
14928,69.0,0,104,12.0,0.0
14929,54.0,0,47,13.0,0.0
14930,74.0,0,104,10.0,0.0
14931,54.0,30,59,14.0,0.0
14932,74.0,15,89,0.0,0.0
14933,74.0,3,104,4.0,0.0
14934,62.0,0,47,5.0,0.0
14935,55.0,0,47,13.0,0.0
14936,64.0,0,47,5.0,0.0
14937,55.0,48,59,14.0,0.0
14938,64.0,12,47,11.0,0.0
14939,66.0,42,47,11.0,0.0
14940,66.0,0,47,5.0,0.0
14941,60.0,0,104,12.0,0.0
14942,74.0,3,104,10.0,0.0
14943,74.0,15,89,0.0,0.0
14944,74.0,0,104,4.0,0.0
14945,57.0,0,104,13.0,0.0
14946,57.0,48,119,14.0,0.0
14947,67.0,0,47,5.0,0.0
14948,67.0,12,47,11.0,0.0
14949,74.0,3,104,4.0,0.0
14950,74.0,15,89,0.0,0.0
14951,74.0,0,104,10.0,0.0
14952,57.0,30,59,14.0,0.0
14953,66.0,0,224,12.0,0.0
14954,57.0,0,47,13.0,0.0
14955,66.0,12,47,11.0,0.0
14956,66.0,0,47,5.0,0.0
14957,59.0,12,47,13.0,0.0
14958,67.0,0,47,11.0,0.0
14959,67.0,0,47,5.0,0.0
14960,59.0,48,59,14.0,0.0
14961,69.0,0,47,5.0,0.0
14962,60.0,0,104,13.0,0.0
14963,60.0,48,119,14.0,0.0
14964,69.0,57,47,11.0,0.0
14965,74.0,3,104,4.0,0.0
14966,74.0,0,104,10.0,0.0
14967,74.0,0,104,0.0,0.0
14968,67.0,12,47,11.0,0.0
14969,67.0,0,47,5.0,0.0
14970,69.0,0,104,2.0,0.0
14971,60.0,45,59,14.0,0.0
14972,74.0,3,104,4.0,0.0
14973,66.0,0,47,5.0,0.0
14974,69.0,0,104,12.0,0.0
14975,60.0,12,47,13.0,0.0
14976,74.0,0,104,10.0,0.0
14977,50.0,48,119,3.0,0.0
14978,74.0,0,104,1.0,0.0
14979,66.0,0,47,11.0,0.0
14980,78.0,0,104,0.0,0.0
14981,59.0,0,47,13.0,0.0
14982,67.0,0,47,5.0,0.0
14983,59.0,0,59,14.0,0.0
14984,67.0,12,47,11.0,0.0
14985,60.0,0,119,14.0,0.0
14986,74.0,0,104,1.0,0.0
14987,69.0,57,47,5.0,0.0
14988,62.0,0,104,12.0,0.0
14989,69.0,0,104,2.0,0.0
14990,60.0,0,104,13.0,0.0
14991,69.0,0,47,11.0,0.0
14992,50.0,48,119,3.0,0.0
14993,74.0,0,104,10.0,0.0
14994,78.0,0,104,0.0,0.0
14995,74.0,3,104,4.0,0.0
14996,67.0,0,47,11.0,0.0
14997,67.0,12,47,5.0,0.0
14998,74.0,0,104,4.0,0.0
14999,62.0,45,59,14.0,0.0
15000,74.0,0,104,1.0,0.0
15001,66.0,3,104,2.0,0.0
15002,66.0,0,47,11.0,0.0
15003,74.0,0,104,10.0,0.0
15004,62.0,0,47,13.0,0.0
15005,81.0,0,104,0.0,0.0
15006,66.0,0,104,12.0,0.0
15007,50.0,48,119,3.0,0.0
15008,66.0,12,47,5.0,0.0
15009,60.0,0,59,14.0,0.0
15010,60.0,0,47,13.0,0.0
15011,64.0,0,47,5.0,0.0
15012,64.0,12,47,11.0,0.0
15013,62.0,0,119,2.0,0.0
15014,59.0,0,104,13.0,0.0
15015,74.0,0,104,10.0,0.0
15016,50.0,0,119,3.0,0.0
15017,74.0,0,104,4.0,0.0
15018,79.0,0,119,0.0,0.0
15019,62.0,3,104,5.0,0.0
15020,62.0,0,104,11.0,0.0
15021,59.0,48,119,14.0,0.0
15022,67.0,57,47,12.0,0.0
15023,74.0,0,119,1.0,0.0
15024,71.0,12,47,12.0,0.0
15025,52.0,45,59,14.0,0.0
15026,71.0,3,104,11.0,0.0
15027,68.0,12,47,12.0,0.0
15028,76.0,0,104,4.0,0.0
15029,76.0,0,104,10.0,0.0
15030,52.0,0,47,13.0,0.0
15031,71.0,0,104,5.0,0.0
15032,69.0,0,47,12.0,0.0
15033,54.0,12,47,13.0,0.0
15034,54.0,48,59,14.0,0.0
15035,76.0,0,104,10.0,0.0
15036,56.0,0,104,13.0,0.0
15037,76.0,0,104,4.0,0.0
15038,71.0,57,47,12.0,0.0
15039,64.0,3,104,11.0,0.0
15040,64.0,0,104,5.0,0.0
15041,56.0,48,119,14.0,0.0
15042,73.0,12,47,12.0,0.0
15043,76.0,0,104,4.0,0.0
15044,71.0,12,47,12.0,0.0
15045,68.0,0,224,5.0,0.0
15046,56.0,0,47,13.0,0.0
15047,56.0,45,59,14.0,0.0
15048,68.0,0,224,11.0,0.0
15049,76.0,3,104,10.0,0.0
15050,57.0,0,47,13.0,0.0
15051,73.0,12,47,12.0,0.0
15052,57.0,48,59,14.0,0.0
15053,59.0,3,104,13.0,0.0
15054,76.0,0,104,4.0,0.0
15055,59.0,48,119,14.0,0.0
15056,74.0,57,47,12.0,0.0
15057,76.0,0,104,10.0,0.0
15058,71.0,12,47,12.0,0.0
15059,76.0,0,104,4.0,0.0
15060,76.0,0,104,10.0,0.0
15061,71.0,0,104,5.0,0.0
15062,56.0,45,59,14.0,0.0
15063,71.0,0,104,11.0,0.0
15064,76.0,3,104,0.0,0.0
15065,56.0,0,47,13.0,0.0
15066,64.0,12,47,12.0,0.0
15067,57.0,12,47,13.0,0.0
15068,66.0,0,47,12.0,0.0
15069,57.0,48,59,14.0,0.0
15070,76.0,0,104,0.0,0.0
15071,68.0,57,47,12.0,0.0
15072,76.0,0,104,10.0,0.0
15073,62.0,0,104,11.0,0.0
15074,59.0,48,119,14.0,0.0
15075,76.0,0,104,4.0,0.0
15076,59.0,0,104,13.0,0.0
15077,62.0,3,104,5.0,0.0
15078,69.0,12,47,12.0,0.0
15079,76.0,0,104,4.0,0.0
15080,76.0,3,104,10.0,0.0
15081,68.0,12,47,12.0,0.0
15082,59.0,0,47,13.0,0.0
15083,68.0,0,224,11.0,0.0
15084,59.0,45,59,14.0,0.0
15085,68.0,0,224,5.0,0.0
15086,76.0,0,104,0.0,0.0
15087,61.0,0,47,13.0,0.0
15088,69.0,12,47,12.0,0.0
15089,61.0,48,59,14.0,0.0
15090,62.0,0,104,13.0,0.0
15091,76.0,0,104,10.0,0.0
15092,76.0,0,104,4.0,0.0
15093,62.0,48,119,14.0,0.0
15094,76.0,3,104,0.0,0.0
15095,71.0,57,47,12.0,0.0
15096,69.0,12,47,12.0,0.0
15097,68.0,12,47,12.0,0.0
15098,62.0,45,59,14.0,0.0
15099,62.0,0,47,13.0,0.0
15100,71.0,0,104,5.0,0.0
15101,76.0,0,104,1.0,0.0
15102,50.0,48,119,3.0,0.0
15103,76.0,0,104,10.0,0.0
15104,76.0,0,104,4.0,0.0
15105,80.0,0,104,0.0,0.0
15106,71.0,3,104,11.0,0.0
15107,62.0,0,104,2.0,0.0
15108,61.0,0,47,13.0,0.0
15109,61.0,0,59,14.0,0.0
15110,69.0,12,47,12.0,0.0
15111,62.0,48,119,14.0,0.0
15112,76.0,0,104,1.0,0.0
15113,62.0,0,104,13.0,0.0
15114,76.0,0,104,4.0,0.0
15115,64.0,0,104,5.0,0.0
15116,62.0,3,104,2.0,0.0
15117,64.0,0,104,11.0,0.0
15118,71.0,57,47,12.0,0.0
15119,80.0,0,104,0.0,0.0
15120,76.0,0,104,10.0,0.0
15121,50.0,0,119,3.0,0.0
15122,69.0,12,47,12.0,0.0
15123,68.0,0,104,5.0,0.0
15124,76.0,0,104,10.0,0.0
15125,68.0,0,104,11.0,0.0
15126,64.0,45,59,14.0,0.0
15127,76.0,3,104,1.0,0.0
15128,76.0,0,104,4.0,0.0
15129,83.0,0,104,0.0,0.0
15130,64.0,12,47,13.0,0.0
15131,50.0,0,119,3.0,0.0
15132,62.0,0,104,2.0,0.0
15133,68.0,0,47,12.0,0.0
15134,62.0,48,59,14.0,0.0
15135,62.0,0,47,13.0,0.0
15136,66.0,12,47,12.0,0.0
15137,69.0,0,119,2.0,0.0
15138,69.0,57,47,11.0,0.0
15139,81.0,0,119,0.0,0.0
15140,45.0,0,119,3.0,0.0
15141,76.0,0,104,4.0,0.0
15142,64.0,0,104,12.0,0.0
15143,69.0,0,47,5.0,0.0
15144,76.0,0,104,10.0,0.0
15145,61.0,0,119,14.0,0.0
15146,61.0,3,104,13.0,0.0
15147,76.0,48,119,1.0,0.0
15148,81.0,12,47,5.0,0.0
15149,81.0,0,47,11.0,0.0
15150,73.0,0,47,11.0,0.0
15151,64.0,48,119,14.0,0.0
15152,69.0,0,47,10.0,0.0
15153,73.0,57,47,5.0,0.0
15154,64.0,0,104,13.0,0.0
15155,69.0,3,104,12.0,0.0
15156,69.0,0,47,4.0,0.0
15157,71.0,0,47,4.0,0.0
15158,74.0,0,47,11.0,0.0
15159,71.0,0,47,10.0,0.0
15160,74.0,12,47,5.0,0.0
15161,76.0,0,47,5.0,0.0
15162,57.0,48,119,14.0,0.0
15163,57.0,0,104,13.0,0.0
15164,73.0,0,104,10.0,0.0
15165,73.0,3,104,4.0,0.0
15166,69.0,0,104,12.0,0.0
15167,76.0,57,47,11.0,0.0
15168,78.0,0,47,11.0,0.0
15169,78.0,12,47,5.0,0.0
15170,61.0,3,224,13.0,0.0
15171,76.0,0,47,11.0,0.0
15172,69.0,3,104,12.0,0.0
15173,76.0,57,47,5.0,0.0
15174,61.0,48,239,14.0,0.0
15175,73.0,0,47,4.0,0.0
15176,73.0,0,47,10.0,0.0
15177,78.0,0,47,11.0,0.0
15178,78.0,0,47,5.0,0.0
15179,74.0,0,47,4.0,0.0
15180,74.0,60,47,10.0,0.0
15181,79.0,0,47,5.0,0.0
15182,76.0,0,104,4.0,0.0
15183,79.0,57,47,11.0,0.0
15184,76.0,0,104,10.0,0.0
15185,69.0,0,104,12.0,0.0
15186,76.0,12,47,5.0,0.0
15187,76.0,0,47,11.0,0.0
15188,73.0,0,47,4.0,0.0
15189,64.0,48,119,14.0,0.0
15190,69.0,0,47,11.0,0.0
15191,64.0,3,104,13.0,0.0
15192,69.0,57,47,5.0,0.0
15193,69.0,0,104,12.0,0.0
15194,73.0,0,47,10.0,0.0
15195,71.0,0,47,5.0,0.0
15196,74.0,0,47,10.0,0.0
15197,71.0,0,47,11.0,0.0
15198,74.0,12,47,4.0,0.0
15199,55.0,48,119,14.0,0.0
15200,76.0,0,104,10.0,0.0
15201,69.0,0,104,12.0,0.0
15202,73.0,0,47,5.0,0.0
15203,73.0,57,47,11.0,0.0
15204,55.0,0,104,13.0,0.0
15205,76.0,3,104,4.0,0.0
15206,74.0,12,47,5.0,0.0
15207,74.0,0,47,11.0,0.0
15208,69.0,3,104,12.0,0.0
15209,61.0,0,224,13.0,0.0
15210,61.0,48,239,14.0,0.0
15211,73.0,0,47,11.0,0.0
15212,76.0,0,47,10.0,0.0
15213,73.0,0,47,5.0,0.0
15214,76.0,57,47,4.0,0.0
15215,74.0,60,47,5.0,0.0
15216,78.0,0,47,4.0,0.0
15217,78.0,0,47,10.0,0.0
15218,74.0,0,47,11.0,0.0
15219,79.0,0,104,4.0,0.0
15220,76.0,0,47,11.0,0.0
15221,76.0,57,47,5.0,0.0
15222,69.0,0,104,12.0,0.0
15223,79.0,3,104,10.0,0.0
15224,74.0,0,47,11.0,0.0
15225,74.0,12,47,5.0,0.0
15226,73.0,57,47,5.0,0.0
15227,64.0,48,119,14.0,0.0
15228,79.0,0,47,4.0,0.0
15229,64.0,3,104,13.0,0.0
15230,73.0,0,47,11.0,0.0
15231,79.0,0,47,10.0,0.0
15232,69.0,0,104,12.0,0.0
15233,74.0,0,47,11.0,0.0
15234,78.0,0,47,4.0,0.0
15235,78.0,0,47,10.0,0.0
15236,74.0,12,47,5.0,0.0
15237,79.0,0,104,4.0,0.0
15238,69.0,3,104,12.0,0.0
15239,57.0,0,104,13.0,0.0
15240,57.0,48,119,14.0,0.0
15241,76.0,0,47,11.0,0.0
15242,79.0,0,104,10.0,0.0
15243,76.0,57,47,5.0,0.0
15244,74.0,12,47,11.0,0.0
15245,74.0,0,47,5.0,0.0
15246,73.0,57,47,11.0,0.0
15247,81.0,0,47,4.0,0.0
15248,73.0,0,47,5.0,0.0
15249,61.0,3,104,13.0,0.0
15250,69.0,0,104,12.0,0.0
15251,61.0,105,119,14.0,0.0
15252,81.0,0,47,10.0,0.0
15253,71.0,12,47,11.0,0.0
15254,79.0,0,47,4.0,0.0
15255,71.0,0,47,5.0,0.0
15256,79.0,0,47,10.0,0.0
15257,69.0,0,104,12.0,0.0
15258,78.0,0,104,10.0,0.0
15259,50.0,48,119,14.0,0.0
15260,78.0,0,104,4.0,0.0
15261,50.0,0,104,13.0,0.0
15262,69.0,15,104,11.0,0.0
15263,69.0,0,104,5.0,0.0
15264,62.0,3,104,13.0,0.0
15265,62.0,0,47,12.0,0.0
15266,66.0,0,104,5.0,0.0
15267,78.0,0,47,4.0,0.0
15268,78.0,57,47,10.0,0.0
15269,66.0,0,104,11.0,0.0
15270,62.0,48,119,14.0,0.0
15271,76.0,0,47,10.0,0.0
15272,64.0,12,47,12.0,0.0
15273,76.0,0,47,4.0,0.0
15274,78.0,3,104,10.0,0.0
15275,71.0,3,344,11.0,0.0
15276,71.0,0,344,5.0,0.0
15277,78.0,0,104,4.0,0.0
15278,55.0,48,119,14.0,0.0
15279,55.0,0,104,13.0,0.0
15280,62.0,57,47,12.0,0.0
15281,61.0,12,47,12.0,0.0
15282,79.0,0,47,10.0,0.0
15283,59.0,48,119,14.0,0.0
15284,79.0,57,47,4.0,0.0
15285,59.0,0,47,12.0,0.0
15286,59.0,3,104,13.0,0.0
15287,62.0,12,47,12.0,0.0
15288,78.0,0,47,4.0,0.0
15289,78.0,0,47,10.0,0.0
15290,76.0,0,104,10.0,0.0
15291,49.0,48,119,14.0,0.0
15292,61.0,57,47,12.0,0.0
15293,76.0,0,104,4.0,0.0
15294,49.0,0,104,13.0,0.0
15295,62.0,12,47,12.0,0.0
15296,70.0,0,47,11.0,0.0
15297,61.0,48,119,14.0,0.0
15298,76.0,57,47,10.0,0.0
15299,61.0,0,47,12.0,0.0
15300,70.0,0,47,5.0,0.0
15301,61.0,3,104,13.0,0.0
15302,76.0,0,47,4.0,0.0
15303,71.0,12,47,5.0,0.0
15304,71.0,0,47,11.0,0.0
15305,74.0,0,47,4.0,0.0
15306,59.0,0,47,12.0,0.0
15307,74.0,0,47,10.0,0.0
15308,73.0,57,47,11.0,0.0
15309,73.0,0,47,5.0,0.0
15310,54.0,3,104,13.0,0.0
15311,76.0,0,104,10.0,0.0
15312,76.0,0,104,4.0,0.0
15313,54.0,48,119,14.0,0.0
15314,58.0,0,104,12.0,0.0
15315,71.0,0,47,5.0,0.0
15316,71.0,12,47,11.0,0.0
15317,58.0,3,104,13.0,0.0
15318,70.0,0,47,11.0,0.0
15319,78.0,0,47,10.0,0.0
15320,78.0,0,47,4.0,0.0
15321,61.0,0,104,12.0,0.0
15322,70.0,57,47,5.0,0.0
15323,58.0,48,119,14.0,0.0
15324,76.0,0,47,10.0,0.0
15325,68.0,0,47,5.0,0.0
15326,68.0,12,47,11.0,0.0
15327,76.0,0,47,4.0,0.0
15328,74.0,3,104,4.0,0.0
15329,62.0,0,104,12.0,0.0
15330,66.0,0,47,11.0,0.0
15331,74.0,0,104,10.0,0.0
15332,47.0,0,104,13.0,0.0
15333,47.0,48,119,14.0,0.0
15334,66.0,57,47,5.0,0.0
15335,78.0,0,47,11.0,0.0
15336,78.0,12,47,5.0,0.0
15337,59.0,0,119,14.0,0.0
15338,59.0,3,104,13.0,0.0
15339,71.0,57,47,5.0,0.0
15340,62.0,48,119,1.0,0.0
15341,66.0,0,104,12.0,0.0
15342,74.0,0,47,10.0,0.0
15343,74.0,0,47,4.0,0.0
15344,74.0,0,47,0.0,0.0
15345,71.0,0,47,11.0,0.0
15346,76.0,0,47,10.0,0.0
15347,76.0,0,47,0.0,0.0
15348,73.0,12,47,5.0,0.0
15349,76.0,0,47,4.0,0.0
15350,73.0,0,47,11.0,0.0
15351,74.0,57,47,11.0,0.0
15352,59.0,0,104,12.0,0.0
15353,57.0,0,119,14.0,0.0
15354,62.0,48,119,1.0,0.0
15355,78.0,0,104,4.0,0.0
15356,74.0,0,47,5.0,0.0
15357,78.0,0,104,0.0,0.0
15358,78.0,0,104,10.0,0.0
15359,57.0,3,104,13.0,0.0
15360,76.0,12,47,5.0,0.0
15361,76.0,0,47,11.0,0.0
15362,78.0,0,47,0.0,0.0
15363,62.0,3,104,1.0,0.0
15364,62.0,0,224,12.0,0.0
15365,74.0,0,47,11.0,0.0
15366,78.0,0,47,4.0,0.0
15367,78.0,0,47,10.0,0.0
15368,55.0,48,119,14.0,0.0
15369,55.0,0,104,13.0,0.0
15370,74.0,57,47,5.0,0.0
15371,79.0,0,47,4.0,0.0
15372,79.0,0,47,10.0,0.0
15373,76.0,0,47,5.0,0.0
15374,76.0,0,47,11.0,0.0
15375,79.0,12,47,0.0,0.0
15376,81.0,0,104,4.0,0.0
15377,54.0,0,104,13.0,0.0
15378,78.0,57,47,5.0,0.0
15379,78.0,0,47,11.0,0.0
15380,62.0,48,119,1.0,0.0
15381,81.0,0,104,0.0,0.0
15382,81.0,3,104,10.0,0.0
15383,54.0,0,119,14.0,0.0
15384,81.0,12,47,11.0,0.0
15385,81.0,0,47,5.0,0.0
15386,62.0,0,119,2.0,0.0
15387,59.0,3,104,13.0,0.0
15388,78.0,57,47,10.0,0.0
15389,62.0,0,119,1.0,0.0
15390,74.0,0,47,5.0,0.0
15391,59.0,48,119,14.0,0.0
15392,78.0,0,47,4.0,0.0
15393,78.0,0,47,0.0,0.0
15394,74.0,0,47,11.0,0.0
15395,74.0,0,104,12.0,0.0
15396,79.0,0,47,0.0,0.0
15397,76.0,0,47,5.0,0.0
15398,76.0,0,47,11.0,0.0
15399,79.0,0,47,4.0,0.0
15400,79.0,12,47,10.0,0.0
15401,78.0,57,47,5.0,0.0
15402,57.0,48,119,14.0,0.0
15403,81.0,0,104,10.0,0.0
15404,57.0,0,104,13.0,0.0
15405,74.0,3,104,12.0,0.0
15406,81.0,0,104,4.0,0.0
15407,81.0,0,104,0.0,0.0
15408,62.0,0,119,2.0,0.0
15409,62.0,0,119,1.0,0.0
15410,78.0,0,47,11.0,0.0
15411,79.0,12,47,11.0,0.0
15412,79.0,0,47,5.0,0.0
15413,78.0,0,47,11.0,0.0
15414,62.0,0,104,1.0,0.0
15415,81.0,0,47,10.0,0.0
15416,55.0,3,104,13.0,0.0
15417,81.0,57,47,4.0,0.0
15418,81.0,0,47,0.0,0.0
15419,55.0,48,119,14.0,0.0
15420,62.0,0,104,2.0,0.0
15421,74.0,0,104,12.0,0.0
15422,78.0,0,47,5.0,0.0
15423,79.0,0,47,5.0,0.0
15424,83.0,12,47,4.0,0.0
15425,83.0,0,47,0.0,0.0
15426,79.0,0,47,11.0,0.0
15427,83.0,0,47,10.0,0.0
15428,62.0,0,104,1.0,0.0
15429,74.0,0,104,12.0,0.0
15430,81.0,3,104,5.0,0.0
15431,54.0,48,119,14.0,0.0
15432,84.0,0,104,4.0,0.0
15433,62.0,0,104,2.0,0.0
15434,54.0,0,104,13.0,0.0
15435,84.0,0,104,10.0,0.0
15436,84.0,0,104,0.0,0.0
15437,81.0,57,47,11.0,0.0
15438,79.0,12,47,11.0,0.0
15439,57.0,0,104,13.0,0.0
15440,79.0,3,104,5.0,0.0
15441,84.0,0,47,0.0,0.0
15442,78.0,0,47,1.0,0.0
15443,84.0,57,47,10.0,0.0
15444,57.0,0,119,14.0,0.0
15445,84.0,0,47,4.0,0.0
15446,62.0,0,104,2.0,0.0
15447,78.0,0,47,11.0,0.0
15448,50.0,48,119,3.0,0.0
15449,74.0,0,104,12.0,0.0
15450,83.0,12,47,4.0,0.0
15451,83.0,0,47,0.0,0.0
15452,79.0,0,47,11.0,0.0
15453,83.0,0,47,10.0,0.0
15454,79.0,0,47,1.0,0.0
15455,81.0,0,104,1.0,0.0
15456,84.0,0,104,0.0,0.0
15457,84.0,0,104,10.0,0.0
15458,84.0,0,104,4.0,0.0
15459,50.0,48,119,14.0,0.0
15460,74.0,3,104,12.0,0.0
15461,81.0,57,47,11.0,0.0
15462,50.0,0,119,3.0,0.0
15463,66.0,0,104,2.0,0.0
15464,78.0,0,104,5.0,0.0
15465,50.0,0,104,13.0,0.0
15466,79.0,12,47,11.0,0.0
15467,86.0,0,47,0.0,0.0
15468,76.0,0,104,5.0,0.0
15469,54.0,3,104,13.0,0.0
15470,78.0,0,47,11.0,0.0
15471,69.0,0,104,12.0,0.0
15472,50.0,0,119,3.0,0.0
15473,62.0,0,104,2.0,0.0
15474,86.0,0,47,4.0,0.0
15475,86.0,57,47,10.0,0.0
15476,83.0,0,47,1.0,0.0
15477,54.0,48,119,14.0,0.0
15478,76.0,0,47,11.0,0.0
15479,84.0,0,47,4.0,0.0
15480,84.0,0,47,10.0,0.0
15481,84.0,0,47,0.0,0.0
15482,81.0,12,47,1.0,0.0
15483,83.0,57,47,4.0,0.0
15484,74.0,0,119,2.0,0.0
15485,79.0,0,119,1.0,0.0
15486,43.0,48,119,14.0,0.0
15487,83.0,0,119,0.0,0.0
15488,74.0,0,104,5.0,0.0
15489,71.0,0,104,12.0,0.0
15490,83.0,0,47,10.0,0.0
15491,50.0,0,119,3.0,0.0
15492,74.0,3,104,11.0,0.0
15493,43.0,0,104,13.0,0.0
15494,79.0,12,47,10.0,0.0
15495,79.0,0,47,4.0,0.0
15496,71.0,0,104,12.0,0.0
15497,55.0,0,104,13.0,0.0
15498,76.0,57,47,4.0,0.0
15499,55.0,48,119,14.0,0.0
15500,76.0,0,47,10.0,0.0
15501,71.0,3,104,11.0,0.0
15502,71.0,0,104,5.0,0.0
15503,78.0,0,47,4.0,0.0
15504,78.0,12,47,10.0,0.0
15505,71.0,0,104,12.0,0.0
15506,79.0,57,47,4.0,0.0
15507,79.0,0,47,10.0,0.0
15508,76.0,0,344,5.0,0.0
15509,76.0,0,344,11.0,0.0
15510,49.0,48,119,14.0,0.0
15511,49.0,3,104,13.0,0.0
15512,81.0,12,47,10.0,0.0
15513,81.0,0,47,4.0,0.0
15514,76.0,0,104,2.0,0.0
15515,78.0,57,47,4.0,0.0
15516,79.0,0,104,1.0,0.0
15517,52.0,0,104,13.0,0.0
15518,52.0,48,119,14.0,0.0
15519,78.0,0,47,10.0,0.0
15520,83.0,3,104,0.0,0.0
15521,71.0,0,104,12.0,0.0
15522,79.0,12,47,10.0,0.0
15523,79.0,0,47,4.0,0.0
15524,81.0,0,47,4.0,0.0
15525,81.0,57,47,10.0,0.0
15526,42.0,3,104,13.0,0.0
15527,76.0,0,119,2.0,0.0
15528,45.0,0,119,3.0,0.0
15529,78.0,0,119,1.0,0.0
15530,81.0,48,119,0.0,0.0
15531,69.0,0,104,12.0,0.0
15532,42.0,0,119,14.0,0.0
15533,78.0,0,47,4.0,0.0
15534,78.0,12,47,10.0,0.0
15535,74.0,57,47,10.0,0.0
15536,69.0,0,104,11.0,0.0
15537,54.0,3,104,13.0,0.0
15538,74.0,0,47,4.0,0.0
15539,69.0,0,104,5.0,0.0
15540,69.0,0,104,12.0,0.0
15541,54.0,48,119,14.0,0.0
15542,76.0,12,47,4.0,0.0
15543,76.0,0,47,10.0,0.0
15544,74.0,0,344,11.0,0.0
15545,74.0,3,344,5.0,0.0
15546,78.0,0,47,4.0,0.0
15547,47.0,48,119,14.0,0.0
15548,78.0,57,47,10.0,0.0
15549,47.0,3,104,13.0,0.0
15550,69.0,0,104,12.0,0.0
15551,79.0,12,47,10.0,0.0
15552,79.0,0,47,4.0,0.0
15553,78.0,0,104,1.0,0.0
15554,74.0,3,104,2.0,0.0
15555,50.0,48,119,14.0,0.0
15556,50.0,0,104,13.0,0.0
15557,69.0,0,104,12.0,0.0
15558,81.0,0,104,0.0,0.0
15559,76.0,57,47,4.0,0.0
15560,76.0,0,47,10.0,0.0
15561,78.0,12,47,10.0,0.0
15562,78.0,0,47,4.0,0.0
15563,79.0,57,47,4.0,0.0
15564,40.0,0,104,13.0,0.0
15565,76.0,0,104,1.0,0.0
15566,74.0,0,104,2.0,0.0
15567,40.0,48,119,14.0,0.0
15568,79.0,0,47,0.0,0.0
15569,79.0,0,47,10.0,0.0
15570,67.0,0,104,12.0,0.0
15571,78.0,12,47,0.0,0.0
15572,78.0,0,47,4.0,0.0
15573,78.0,0,47,10.0,0.0
15574,69.0,0,104,12.0,0.0
15575,73.0,0,104,5.0,0.0
15576,76.0,0,47,0.0,0.0
15577,69.0,0,104,2.0,0.0
15578,45.0,48,119,14.0,0.0
15579,45.0,0,119,3.0,0.0
15580,73.0,3,104,11.0,0.0
15581,81.0,0,104,1.0,0.0
15582,76.0,57,47,4.0,0.0
15583,76.0,0,47,10.0,0.0
15584,45.0,0,104,13.0,0.0
15585,79.0,12,47,10.0,0.0
15586,79.0,0,47,4.0,0.0
15587,79.0,0,47,0.0,0.0
15588,69.0,0,104,2.0,0.0
15589,50.0,48,119,14.0,0.0
15590,69.0,3,104,12.0,0.0
15591,78.0,0,47,10.0,0.0
15592,81.0,0,104,1.0,0.0
15593,74.0,57,47,11.0,0.0
15594,50.0,0,104,13.0,0.0
15595,78.0,0,47,0.0,0.0
15596,50.0,0,119,3.0,0.0
15597,74.0,0,47,5.0,0.0
15598,78.0,0,47,4.0,0.0
15599,76.0,0,47,10.0,0.0
15600,73.0,0,47,11.0,0.0
15601,76.0,0,47,0.0,0.0
15602,76.0,12,47,4.0,0.0
15603,73.0,0,47,5.0,0.0
15604,50.0,48,119,3.0,0.0
15605,38.0,0,119,14.0,0.0
15606,69.0,3,104,2.0,0.0
15607,71.0,0,47,5.0,0.0
15608,74.0,0,47,0.0,0.0
15609,69.0,0,104,12.0,0.0
15610,38.0,0,104,13.0,0.0
15611,81.0,0,104,1.0,0.0
15612,74.0,0,47,4.0,0.0
15613,74.0,0,47,10.0,0.0
15614,71.0,57,47,11.0,0.0
15615,74.0,0,47,11.0,0.0
15616,74.0,0,47,5.0,0.0
15617,78.0,0,47,10.0,0.0
15618,78.0,12,47,4.0,0.0
15619,78.0,0,47,0.0,0.0
15620,69.0,48,119,2.0,0.0
15621,76.0,0,47,10.0,0.0
15622,73.0,0,104,5.0,0.0
15623,69.0,0,104,12.0,0.0
15624,45.0,0,119,14.0,0.0
15625,76.0,0,119,0.0,0.0
15626,73.0,3,104,11.0,0.0
15627,45.0,0,119,3.0,0.0
15628,76.0,57,47,4.0,0.0
15629,45.0,0,104,13.0,0.0
15630,81.0,0,119,1.0,0.0
15631,81.0,12,47,10.0,0.0
15632,81.0,0,47,4.0,0.0
15633,73.0,12,47,4.0,0.0
15634,45.0,45,59,14.0,0.0
15635,76.0,0,104,5.0,0.0
15636,69.0,3,104,12.0,0.0
15637,76.0,0,104,11.0,0.0
15638,45.0,0,47,13.0,0.0
15639,73.0,0,47,10.0,0.0
15640,74.0,12,47,4.0,0.0
15641,47.0,48,59,14.0,0.0
15642,74.0,0,47,10.0,0.0
15643,47.0,0,47,13.0,0.0
15644,49.0,48,119,14.0,0.0
15645,69.0,0,104,5.0,0.0
15646,49.0,3,104,13.0,0.0
15647,69.0,0,104,12.0,0.0
15648,76.0,0,47,10.0,0.0
15649,76.0,57,47,4.0,0.0
15650,69.0,0,104,11.0,0.0
15651,78.0,12,47,10.0,0.0
15652,78.0,0,47,4.0,0.0
15653,49.0,0,47,13.0,0.0
15654,76.0,12,47,10.0,0.0
15655,69.0,3,104,12.0,0.0
15656,73.0,3,224,11.0,0.0
15657,49.0,45,59,14.0,0.0
15658,76.0,0,47,4.0,0.0
15659,73.0,0,224,5.0,0.0
15660,78.0,0,47,4.0,0.0
15661,50.0,0,47,13.0,0.0
15662,78.0,12,47,10.0,0.0
15663,50.0,48,59,14.0,0.0
15664,79.0,57,47,10.0,0.0
15665,52.0,48,119,14.0,0.0
15666,79.0,0,47,4.0,0.0
15667,52.0,0,104,13.0,0.0
15668,69.0,0,104,12.0,0.0
15669,76.0,12,47,4.0,0.0
15670,76.0,0,47,10.0,0.0
15671,76.0,0,104,5.0,0.0
15672,69.0,0,47,4.0,0.0
15673,69.0,12,47,10.0,0.0
15674,69.0,0,119,0.0,0.0
15675,49.0,0,47,13.0,0.0
15676,49.0,45,59,14.0,0.0
15677,76.0,3,104,11.0,0.0
15678,69.0,0,104,12.0,0.0
15679,71.0,0,47,4.0,0.0
15680,50.0,48,59,14.0,0.0
15681,50.0,0,47,13.0,0.0
15682,71.0,12,47,10.0,0.0
15683,69.0,0,119,0.0,0.0
15684,67.0,0,104,11.0,0.0
15685,52.0,48,119,14.0,0.0
15686,69.0,0,104,12.0,0.0
15687,73.0,0,47,4.0,0.0
15688,52.0,0,104,13.0,0.0
15689,67.0,3,104,5.0,0.0
15690,73.0,57,47,10.0,0.0
15691,74.0,12,47,10.0,0.0
15692,74.0,0,47,4.0,0.0
15693,73.0,12,47,10.0,0.0
15694,69.0,3,104,0.0,0.0
15695,52.0,0,47,13.0,0.0
15696,69.0,0,104,12.0,0.0
15697,73.0,0,224,5.0,0.0
15698,73.0,0,224,11.0,0.0
15699,52.0,45,59,14.0,0.0
15700,73.0,0,47,4.0,0.0
15701,54.0,12,47,13.0,0.0
15702,74.0,0,47,10.0,0.0
15703,74.0,0,47,4.0,0.0
15704,54.0,48,59,14.0,0.0
15705,55.0,0,104,13.0,0.0
15706,76.0,57,47,10.0,0.0
15707,69.0,0,104,0.0,0.0
15708,55.0,48,119,14.0,0.0
15709,76.0,0,47,4.0,0.0
15710,69.0,3,104,12.0,0.0
15711,74.0,0,47,4.0,0.0
15712,74.0,12,47,10.0,0.0
15713,69.0,0,119,2.0,0.0
15714,69.0,3,104,12.0,0.0
15715,76.0,0,104,5.0,0.0
15716,69.0,0,104,1.0,0.0
15717,55.0,45,59,14.0,0.0
15718,73.0,0,47,4.0,0.0
15719,45.0,48,119,3.0,0.0
15720,76.0,0,104,0.0,0.0
15721,76.0,0,104,11.0,0.0
15722,73.0,0,47,10.0,0.0
15723,55.0,12,47,13.0,0.0
15724,74.0,0,47,10.0,0.0
15725,54.0,0,47,13.0,0.0
15726,74.0,12,47,4.0,0.0
15727,54.0,0,59,14.0,0.0
15728,76.0,57,47,10.0,0.0
15729,55.0,48,119,14.0,0.0
15730,69.0,0,104,1.0,0.0
15731,69.0,0,119,2.0,0.0
15732,55.0,0,104,13.0,0.0
15733,69.0,3,104,12.0,0.0
15734,69.0,0,104,5.0,0.0
15735,76.0,0,104,0.0,0.0
15736,76.0,0,47,4.0,0.0
15737,45.0,0,119,3.0,0.0
15738,69.0,0,104,11.0,0.0
15739,79.0,12,47,4.0,0.0
15740,79.0,0,47,10.0,0.0
15741,57.0,0,47,13.0,0.0
15742,73.0,0,104,11.0,0.0
15743,45.0,0,119,3.0,0.0
15744,76.0,3,104,1.0,0.0
15745,78.0,0,47,4.0,0.0
15746,81.0,0,104,0.0,0.0
15747,69.0,0,104,12.0,0.0
15748,73.0,0,104,5.0,0.0
15749,78.0,12,47,10.0,0.0
15750,69.0,0,104,2.0,0.0
15751,57.0,45,59,14.0,0.0
15752,76.0,0,47,4.0,0.0
15753,76.0,12,47,10.0,0.0
15754,55.0,0,47,13.0,0.0
15755,55.0,48,59,14.0,0.0
15756,69.0,0,104,12.0,0.0
15757,81.0,0,47,10.0,0.0
15758,81.0,0,119,0.0,0.0
15759,54.0,0,119,14.0,0.0
15760,62.0,0,119,2.0,0.0
15761,81.0,57,47,4.0,0.0
15762,78.0,0,104,1.0,0.0
15763,74.0,0,104,5.0,0.0
15764,74.0,3,104,11.0,0.0
15765,54.0,0,104,13.0,0.0
15766,50.0,48,119,3.0,0.0
15767,79.0,12,47,4.0,0.0
15768,79.0,0,47,10.0,0.0
15769,69.0,0,104,11.0,0.0
15770,81.0,0,47,1.0,0.0
15771,54.0,45,59,14.0,0.0
15772,78.0,12,47,10.0,0.0
15773,54.0,0,47,13.0,0.0
15774,69.0,0,104,5.0,0.0
15775,78.0,0,47,4.0,0.0
15776,62.0,3,104,12.0,0.0
15777,52.0,0,47,13.0,0.0
15778,79.0,12,47,4.0,0.0
15779,52.0,48,59,14.0,0.0
15780,79.0,0,47,10.0,0.0
15781,79.0,0,47,1.0,0.0
15782,74.0,0,344,11.0,0.0
15783,66.0,0,104,12.0,0.0
15784,54.0,0,104,13.0,0.0
15785,81.0,0,47,4.0,0.0
15786,81.0,57,47,10.0,0.0
15787,54.0,48,119,14.0,0.0
15788,74.0,3,344,5.0,0.0
15789,78.0,3,104,1.0,0.0
15790,78.0,0,47,10.0,0.0
15791,78.0,12,47,4.0,0.0
15792,55.0,0,47,13.0,0.0
15793,74.0,3,104,1.0,0.0
15794,55.0,45,59,14.0,0.0
15795,74.0,0,47,4.0,0.0
15796,83.0,0,47,0.0,0.0
15797,74.0,12,47,10.0,0.0
15798,71.0,0,104,12.0,0.0
15799,78.0,0,47,10.0,0.0
15800,81.0,0,47,0.0,0.0
15801,54.0,48,59,14.0,0.0
15802,78.0,0,47,4.0,0.0
15803,54.0,12,47,13.0,0.0
15804,71.0,0,104,12.0,0.0
15805,79.0,48,119,0.0,0.0
15806,52.0,0,119,14.0,0.0
15807,76.0,0,104,1.0,0.0
15808,79.0,0,47,4.0,0.0
15809,52.0,0,104,13.0,0.0
15810,79.0,57,47,10.0,0.0
15811,78.0,12,47,4.0,0.0
15812,78.0,0,47,10.0,0.0
15813,73.0,0,47,12.0,0.0
15814,79.0,0,47,1.0,0.0
15815,73.0,3,104,5.0,0.0
15816,76.0,12,47,10.0,0.0
15817,76.0,0,47,4.0,0.0
15818,52.0,0,47,13.0,0.0
15819,52.0,45,59,14.0,0.0
15820,67.0,0,104,11.0,0.0
15821,78.0,0,47,4.0,0.0
15822,78.0,12,47,1.0,0.0
15823,78.0,0,47,10.0,0.0
15824,50.0,48,59,14.0,0.0
15825,74.0,0,47,12.0,0.0
15826,50.0,0,47,13.0,0.0
15827,76.0,0,104,5.0,0.0
15828,76.0,0,104,1.0,0.0
15829,64.0,0,104,11.0,0.0
15830,79.0,57,47,10.0,0.0
15831,73.0,3,104,12.0,0.0
15832,52.0,0,104,13.0,0.0
15833,79.0,0,47,4.0,0.0
15834,52.0,48,119,14.0,0.0
15835,83.0,0,47,4.0,0.0
15836,83.0,12,47,10.0,0.0
15837,54.0,0,47,13.0,0.0
15838,81.0,0,47,10.0,0.0
15839,76.0,0,104,2.0,0.0
15840,73.0,0,104,5.0,0.0
15841,69.0,0,104,1.0,0.0
15842,45.0,48,119,3.0,0.0
15843,73.0,3,104,11.0,0.0
15844,54.0,45,59,14.0,0.0
15845,69.0,0,104,12.0,0.0
15846,81.0,12,47,0.0,0.0
15847,81.0,0,47,4.0,0.0
15848,52.0,0,59,14.0,0.0
15849,52.0,12,47,13.0,0.0
15850,79.0,0,47,0.0,0.0
15851,79.0,0,47,4.0,0.0
15852,79.0,0,47,10.0,0.0
15853,69.0,0,104,12.0,0.0
15854,74.0,0,104,11.0,0.0
15855,50.0,30,59,14.0,0.0
15856,78.0,0,104,4.0,0.0
15857,50.0,0,119,3.0,0.0
15858,69.0,0,104,1.0,0.0
15859,78.0,15,89,0.0,0.0
15860,74.0,3,104,5.0,0.0
15861,78.0,48,119,2.0,0.0
15862,50.0,12,47,13.0,0.0
15863,78.0,0,104,10.0,0.0
15864,52.0,12,47,13.0,0.0
15865,52.0,0,59,14.0,0.0
15866,74.0,0,104,1.0,0.0
15867,54.0,30,59,14.0,0.0
15868,54.0,12,47,13.0,0.0
15869,74.0,3,104,4.0,0.0
15870,81.0,15,89,0.0,0.0
15871,69.0,0,104,12.0,0.0
15872,69.0,0,104,5.0,0.0
15873,74.0,0,104,10.0,0.0
15874,69.0,0,104,11.0,0.0
15875,50.0,48,59,14.0,0.0
15876,50.0,12,47,13.0,0.0
15877,74.0,3,104,1.0,0.0
15878,55.0,30,59,14.0,0.0
15879,62.0,0,104,5.0,0.0
15880,71.0,0,104,10.0,0.0
15881,83.0,15,89,0.0,0.0
15882,71.0,0,104,4.0,0.0
15883,50.0,0,119,3.0,0.0
15884,62.0,0,104,11.0,0.0
15885,79.0,48,119,2.0,0.0
15886,55.0,12,47,13.0,0.0
15887,67.0,0,104,12.0,0.0
15888,57.0,12,47,13.0,0.0
15889,57.0,0,59,14.0,0.0
15890,76.0,0,104,10.0,0.0
15891,54.0,12,47,13.0,0.0
15892,67.0,0,104,11.0,0.0
15893,74.0,0,104,5.0,0.0
15894,76.0,0,104,1.0,0.0
15895,54.0,30,59,14.0,0.0
15896,71.0,3,104,12.0,0.0
15897,79.0,15,89,0.0,0.0
15898,76.0,0,104,4.0,0.0
15899,55.0,48,59,14.0,0.0
15900,55.0,12,47,13.0,0.0
15901,73.0,0,47,4.0,0.0
15902,64.0,57,47,11.0,0.0
15903,85.0,0,104,0.0,0.0
15904,73.0,0,47,10.0,0.0
15905,57.0,0,104,13.0,0.0
15906,45.0,48,119,3.0,0.0
15907,57.0,0,119,14.0,0.0
15908,69.0,0,104,1.0,0.0
15909,76.0,0,119,2.0,0.0
15910,64.0,0,239,5.0,0.0
15911,69.0,3,104,12.0,0.0
15912,69.0,12,47,10.0,0.0
15913,61.0,0,47,11.0,0.0
15914,69.0,0,47,4.0,0.0
15915,55.0,0,104,13.0,0.0
15916,71.0,0,47,10.0,0.0
15917,71.0,57,47,4.0,0.0
15918,55.0,48,119,14.0,0.0
15919,81.0,0,104,0.0,0.0
15920,62.0,0,47,11.0,0.0
15921,64.0,0,104,12.0,0.0
15922,76.0,3,104,1.0,0.0
15923,73.0,0,47,10.0,0.0
15924,64.0,12,47,11.0,0.0
15925,73.0,0,47,4.0,0.0
15926,45.0,0,119,3.0,0.0
15927,86.0,0,104,0.0,0.0
15928,69.0,0,104,12.0,0.0
15929,78.0,0,47,1.0,0.0
15930,54.0,48,119,14.0,0.0
15931,54.0,3,104,13.0,0.0
15932,69.0,0,104,2.0,0.0
15933,57.0,0,104,11.0,0.0
15934,74.0,57,47,10.0,0.0
15935,74.0,0,47,4.0,0.0
15936,76.0,0,47,10.0,0.0
15937,76.0,12,47,1.0,0.0
15938,76.0,0,47,4.0,0.0
15939,78.0,0,47,4.0,0.0
15940,78.0,0,47,10.0,0.0
15941,79.0,3,104,0.0,0.0
15942,69.0,0,104,12.0,0.0
15943,52.0,48,119,14.0,0.0
15944,73.0,0,104,5.0,0.0
15945,45.0,0,119,3.0,0.0
15946,78.0,57,47,1.0,0.0
15947,52.0,0,104,13.0,0.0
15948,73.0,0,104,11.0,0.0
15949,69.0,0,104,2.0,0.0
15950,79.0,0,47,4.0,0.0
15951,79.0,0,47,10.0,0.0
15952,79.0,12,47,1.0,0.0
15953,78.0,0,47,10.0,0.0
15954,74.0,0,104,5.0,0.0
15955,74.0,0,104,11.0,0.0
15956,50.0,48,119,3.0,0.0
15957,78.0,57,47,4.0,0.0
15958,50.0,3,104,13.0,0.0
15959,50.0,0,119,14.0,0.0
15960,69.0,0,47,12.0,0.0
15961,78.0,0,119,0.0,0.0
15962,81.0,0,119,1.0,0.0
15963,69.0,0,119,2.0,0.0
15964,67.0,0,47,12.0,0.0
15965,76.0,12,47,10.0,0.0
15966,76.0,0,47,4.0,0.0
15967,55.0,105,119,14.0,0.0
15968,74.0,0,47,4.0,0.0
15969,71.0,0,104,5.0,0.0
15970,74.0,57,47,10.0,0.0
15971,71.0,3,104,11.0,0.0
15972,55.0,0,104,13.0,0.0
15973,66.0,0,47,12.0,0.0
15974,76.0,0,47,10.0,0.0
15975,76.0,0,47,4.0,0.0
15976,67.0,12,47,12.0,0.0
15977,76.0,15,104,0.0,0.0
15978,69.0,0,104,4.0,0.0
15979,64.0,0,104,12.0,0.0
15980,69.0,0,104,11.0,0.0
15981,57.0,0,104,13.0,0.0
15982,69.0,0,104,10.0,0.0
15983,69.0,0,104,5.0,0.0
15984,45.0,0,119,3.0,0.0
15985,79.0,0,119,1.0,0.0
15986,57.0,105,119,14.0,0.0
15987,69.0,0,119,2.0,0.0
15988,73.0,0,104,4.0,0.0
15989,45.0,0,104,13.0,0.0
15990,73.0,0,104,10.0,0.0
15991,45.0,15,119,14.0,0.0
15992,69.0,15,104,11.0,0.0
15993,64.0,0,104,12.0,0.0
15994,69.0,0,104,5.0,0.0
15995,74.0,0,293,10.0,0.0
15996,69.0,6,293,5.0,0.0
15997,50.0,0,959,13.0,0.0
15998,50.0,0,959,14.0,0.0
15999,78.0,0,119,1.0,0.0
16000,66.0,0,239,12.0,0.0
16001,74.0,0,293,4.0,0.0
16002,69.0,0,119,2.0,0.0
16003,74.0,0,119,0.0,0.0
16004,50.0,15,14,3.0,0.0
16005,69.0,6,173,11.0,0.0
16006,50.0,15,14,3.0,0.0
16007,50.0,15,14,3.0,0.0
16008,50.0,15,14,3.0,0.0
16009,50.0,15,14,3.0,0.0
16010,50.0,15,14,3.0,0.0
16011,50.0,15,14,3.0,0.0
16012,50.0,15,14,3.0,0.0
16013,50.0,15,14,3.0,0.0
16014,50.0,15,14,3.0,0.0
16015,50.0,9,14,3.0,0.0
16016,50.0,15,14,3.0,0.0
16017,62.0,6,53,11.0,0.0
16018,50.0,15,14,3.0,0.0
16019,50.0,15,14,3.0,0.0
16020,50.0,9,14,3.0,0.0
16021,50.0,15,14,3.0,0.0
16022,62.0,0,173,11.0,0.0
16023,50.0,15,14,3.0,0.0
16024,50.0,15,14,3.0,0.0
16025,50.0,9,14,3.0,0.0
16026,50.0,15,14,3.0,0.0
16027,76.0,0,53,10.0,0.0
16028,50.0,15,14,3.0,0.0
16029,76.0,6,53,4.0,0.0
16030,76.0,0,53,5.0,0.0
16031,50.0,15,14,3.0,0.0
16032,50.0,9,14,3.0,0.0
16033,50.0,15,14,3.0,0.0
16034,78.0,0,53,10.0,0.0
16035,78.0,0,53,5.0,0.0
16036,50.0,15,14,3.0,0.0
16037,78.0,6,53,4.0,0.0
16038,50.0,15,14,3.0,0.0
16039,50.0,9,14,3.0,0.0
16040,50.0,15,14,3.0,0.0
16041,66.0,0,53,11.0,0.0
16042,74.0,6,53,4.0,0.0
16043,50.0,15,14,3.0,0.0
16044,74.0,0,53,10.0,0.0
16045,74.0,0,53,5.0,0.0
16046,62.0,0,53,12.0,0.0
16047,50.0,15,14,3.0,0.0
16048,50.0,9,14,3.0,0.0
16049,50.0,15,14,3.0,0.0
16050,50.0,15,14,3.0,0.0
16051,69.0,0,119,2.0,0.0
16052,66.0,6,173,11.0,0.0
16053,78.0,0,119,0.0,0.0
16054,69.0,6,293,5.0,0.0
16055,69.0,0,293,10.0,0.0
16056,62.0,0,173,12.0,0.0
16057,69.0,0,293,4.0,0.0
16058,74.0,0,119,1.0,0.0
16059,50.0,15,14,3.0,0.0
16060,50.0,15,14,3.0,0.0
16061,50.0,15,14,3.0,0.0
16062,50.0,15,14,3.0,0.0
16063,50.0,15,14,3.0,0.0
16064,50.0,15,14,3.0,0.0
16065,50.0,15,14,3.0,0.0
16066,50.0,15,14,3.0,0.0
16067,50.0,15,14,3.0,0.0
16068,50.0,9,14,3.0,0.0
16069,50.0,15,14,3.0,0.0
16070,69.0,6,53,11.0,0.0
16071,66.0,0,53,12.0,0.0
16072,50.0,15,14,3.0,0.0
16073,50.0,15,14,3.0,0.0
16074,50.0,9,14,3.0,0.0
16075,50.0,15,14,3.0,0.0
16076,69.0,0,173,11.0,0.0
16077,66.0,0,173,12.0,0.0
16078,50.0,15,14,3.0,0.0
16079,50.0,15,14,3.0,0.0
16080,50.0,9,14,3.0,0.0
16081,50.0,15,14,3.0,0.0
16082,71.0,6,53,4.0,0.0
16083,50.0,15,14,3.0,0.0
16084,71.0,0,53,5.0,0.0
16085,71.0,0,53,10.0,0.0
16086,50.0,15,14,3.0,0.0
16087,50.0,9,14,3.0,0.0
16088,50.0,15,14,3.0,0.0
16089,72.0,6,53,4.0,0.0
16090,72.0,0,53,10.0,0.0
16091,72.0,0,53,5.0,0.0
16092,50.0,15,14,3.0,0.0
16093,50.0,15,14,3.0,0.0
16094,50.0,9,14,3.0,0.0
16095,50.0,15,14,3.0,0.0
16096,69.0,6,53,4.0,0.0
16097,69.0,0,53,5.0,0.0
16098,69.0,0,53,12.0,0.0
16099,69.0,0,53,10.0,0.0
16100,66.0,0,53,11.0,0.0
16101,50.0,15,14,3.0,0.0
16102,50.0,15,14,3.0,0.0
16103,50.0,9,14,3.0,0.0
16104,50.0,15,14,3.0,0.0
16105,50.0,15,14,3.0,0.0
16106,66.0,0,293,4.0,0.0
16107,62.0,6,173,11.0,0.0
16108,74.0,0,119,2.0,0.0
16109,50.0,0,959,14.0,0.0
16110,66.0,0,293,10.0,0.0
16111,69.0,0,173,12.0,0.0
16112,50.0,15,959,13.0,0.0
16113,78.0,0,119,1.0,0.0
16114,66.0,6,293,5.0,0.0
16115,81.0,15,119,0.0,0.0
16116,50.0,15,14,3.0,0.0
16117,50.0,15,14,3.0,0.0
16118,50.0,15,14,3.0,0.0
16119,50.0,15,14,3.0,0.0
16120,50.0,15,14,3.0,0.0
16121,50.0,15,14,3.0,0.0
16122,50.0,0,14,3.0,0.0
16123,50.0,15,14,3.0,0.0
16124,50.0,15,14,3.0,0.0
16125,50.0,9,14,3.0,0.0
16126,50.0,15,14,3.0,0.0
16127,57.0,0,53,12.0,0.0
16128,50.0,15,14,3.0,0.0
16129,66.0,6,53,11.0,0.0
16130,50.0,15,14,3.0,0.0
16131,50.0,9,14,3.0,0.0
16132,50.0,15,14,3.0,0.0
16133,50.0,15,14,3.0,0.0
16134,57.0,6,173,12.0,0.0
16135,66.0,0,173,11.0,0.0
16136,50.0,15,14,3.0,0.0
16137,50.0,9,14,3.0,0.0
16138,50.0,15,14,3.0,0.0
16139,67.0,6,53,4.0,0.0
16140,67.0,0,53,5.0,0.0
16141,67.0,0,53,10.0,0.0
16142,50.0,15,14,3.0,0.0
16143,50.0,15,14,3.0,0.0
16144,50.0,9,14,3.0,0.0
16145,50.0,15,14,3.0,0.0
16146,69.0,0,53,10.0,0.0
16147,69.0,0,53,4.0,0.0
16148,50.0,15,14,3.0,0.0
16149,69.0,0,53,5.0,0.0
16150,50.0,15,14,3.0,0.0
16151,50.0,9,14,3.0,0.0
16152,50.0,15,14,3.0,0.0
16153,66.0,0,53,5.0,0.0
16154,69.0,0,53,11.0,0.0
16155,66.0,0,53,4.0,0.0
16156,50.0,15,14,3.0,0.0
16157,66.0,0,53,10.0,0.0
16158,62.0,6,53,12.0,0.0
16159,50.0,15,14,3.0,0.0
16160,50.0,9,14,3.0,0.0
16161,50.0,15,14,3.0,0.0
16162,66.0,0,173,12.0,0.0
16163,78.0,15,119,2.0,0.0
16164,62.0,4,325,5.0,0.0
16165,50.0,15,14,3.0,0.0
16166,62.0,0,325,10.0,0.0
16167,69.0,6,173,11.0,0.0
16168,62.0,0,325,4.0,0.0
16169,81.0,0,119,1.0,0.0
16170,86.0,0,119,0.0,0.0
16171,50.0,15,14,3.0,0.0
16172,50.0,15,14,3.0,0.0
16173,50.0,15,14,3.0,0.0
16174,50.0,15,14,3.0,0.0
16175,50.0,15,14,3.0,0.0
16176,50.0,15,14,3.0,0.0
16177,50.0,0,14,3.0,0.0
16178,50.0,15,14,3.0,0.0
16179,50.0,15,14,3.0,0.0
16180,50.0,9,14,3.0,0.0
16181,50.0,15,14,3.0,0.0
16182,50.0,15,14,3.0,0.0
16183,72.0,6,53,11.0,0.0
16184,69.0,0,53,12.0,0.0
16185,50.0,15,14,3.0,0.0
16186,50.0,9,14,3.0,0.0
16187,50.0,15,14,3.0,0.0
16188,69.0,2,173,12.0,0.0
16189,50.0,15,14,3.0,0.0
16190,72.0,0,173,11.0,0.0
16191,50.0,15,14,3.0,0.0
16192,50.0,15,14,3.0,0.0
16193,50.0,15,14,3.0,0.0
16194,50.0,11,14,3.0,0.0
16195,50.0,15,14,3.0,0.0
16196,64.0,0,25,5.0,0.0
16197,50.0,11,14,3.0,0.0
16198,64.0,0,25,4.0,0.0
16199,64.0,4,25,10.0,0.0
16200,50.0,15,14,3.0,0.0
16201,66.0,0,25,4.0,0.0
16202,66.0,4,25,5.0,0.0
16203,66.0,0,25,10.0,0.0
16204,50.0,11,14,3.0,0.0
16205,50.0,15,14,3.0,0.0
16206,67.0,0,25,5.0,0.0
16207,67.0,4,25,10.0,0.0
16208,67.0,0,25,4.0,0.0
16209,50.0,9,14,3.0,0.0
16210,50.0,15,14,3.0,0.0
16211,66.0,0,53,12.0,0.0
16212,69.0,2,53,11.0,0.0
16213,50.0,11,14,3.0,0.0
16214,69.0,0,25,4.0,0.0
16215,69.0,4,25,10.0,0.0
16216,69.0,0,25,5.0,0.0
16217,50.0,15,14,3.0,0.0
16218,71.0,0,25,4.0,0.0
16219,50.0,9,14,3.0,0.0
16220,71.0,0,25,5.0,0.0
16221,71.0,4,25,10.0,0.0
16222,50.0,0,14,3.0,0.0
16223,50.0,15,14,3.0,0.0
16224,72.0,6,173,5.0,0.0
16225,66.0,6,347,11.0,0.0
16226,72.0,0,173,4.0,0.0
16227,72.0,0,173,10.0,0.0
16228,62.0,0,173,12.0,0.0
16229,50.0,0,299,14.0,0.0
16230,50.0,6,293,13.0,0.0
16231,50.0,15,14,3.0,0.0
16232,50.0,15,14,3.0,0.0
16233,50.0,15,14,3.0,0.0
16234,50.0,15,14,3.0,0.0
16235,50.0,15,14,3.0,0.0
16236,50.0,15,14,3.0,0.0
16237,50.0,15,14,3.0,0.0
16238,50.0,15,14,3.0,0.0
16239,50.0,15,14,3.0,0.0
16240,50.0,9,14,3.0,0.0
16241,50.0,15,14,3.0,0.0
16242,57.0,0,53,12.0,0.0
16243,72.0,0,53,4.0,0.0
16244,72.0,0,53,5.0,0.0
16245,50.0,15,14,3.0,0.0
16246,72.0,0,53,10.0,0.0
16247,78.0,6,53,1.0,0.0
16248,81.0,0,53,0.0,0.0
16249,74.0,0,53,2.0,0.0
16250,50.0,15,14,3.0,0.0
16251,50.0,9,14,3.0,0.0
16252,50.0,54,14,3.0,0.0
16253,57.0,0,173,12.0,0.0
16254,74.0,0,173,10.0,0.0
16255,74.0,0,173,2.0,0.0
16256,74.0,6,173,5.0,0.0
16257,81.0,0,173,0.0,0.0
16258,50.0,48,59,3.0,0.0
16259,74.0,0,173,4.0,0.0
16260,78.0,0,173,1.0,0.0
16261,50.0,0,59,3.0,0.0
16262,48.0,6,53,13.0,0.0
16263,48.0,54,59,14.0,0.0
16264,47.0,0,59,14.0,0.0
16265,50.0,48,59,3.0,0.0
16266,47.0,0,53,13.0,0.0
16267,66.0,6,107,11.0,0.0
16268,45.0,0,59,14.0,0.0
16269,76.0,0,53,10.0,0.0
16270,50.0,174,59,3.0,0.0
16271,45.0,6,53,13.0,0.0
16272,81.0,0,53,0.0,0.0
16273,81.0,0,53,1.0,0.0
16274,76.0,0,53,4.0,0.0
16275,60.0,0,53,12.0,0.0
16276,78.0,0,53,2.0,0.0
16277,76.0,0,53,5.0,0.0
16278,74.0,6,173,10.0,0.0
16279,74.0,0,173,4.0,0.0
16280,67.0,0,173,11.0,0.0
16281,62.0,0,173,12.0,0.0
16282,74.0,0,173,5.0,0.0
16283,86.0,0,173,0.0,0.0
16284,47.0,0,173,13.0,0.0
16285,79.0,0,173,1.0,0.0
16286,50.0,0,179,3.0,0.0
16287,74.0,0,173,2.0,0.0
16288,47.0,54,179,14.0,0.0
16289,81.0,0,53,0.0,0.0
16290,48.0,174,59,14.0,0.0
16291,72.0,0,53,4.0,0.0
16292,69.0,0,53,11.0,0.0
16293,72.0,0,53,10.0,0.0
16294,72.0,0,53,5.0,0.0
16295,64.0,0,53,12.0,0.0
16296,50.0,0,59,3.0,0.0
16297,79.0,0,53,1.0,0.0
16298,74.0,0,53,2.0,0.0
16299,48.0,6,53,13.0,0.0
16300,50.0,0,173,13.0,0.0
16301,74.0,0,173,2.0,0.0
16302,79.0,0,173,1.0,0.0
16303,67.0,6,173,11.0,0.0
16304,71.0,0,173,10.0,0.0
16305,50.0,0,179,14.0,0.0
16306,50.0,54,179,3.0,0.0
16307,71.0,0,173,4.0,0.0
16308,71.0,0,173,5.0,0.0
16309,62.0,0,173,12.0,0.0
16310,83.0,0,173,0.0,0.0
16311,38.0,0,53,13.0,0.0
16312,50.0,174,59,3.0,0.0
16313,66.0,0,53,11.0,0.0
16314,79.0,0,53,1.0,0.0
16315,74.0,0,53,2.0,0.0
16316,38.0,0,59,14.0,0.0
16317,62.0,0,53,12.0,0.0
16318,69.0,0,53,4.0,0.0
16319,69.0,0,53,10.0,0.0
16320,69.0,0,53,5.0,0.0
16321,84.0,6,53,0.0,0.0
16322,79.0,0,239,1.0,0.0
16323,43.0,174,479,14.0,0.0
16324,67.0,54,173,11.0,0.0
16325,71.0,0,227,10.0,0.0
16326,62.0,66,347,12.0,0.0
16327,74.0,0,239,2.0,0.0
16328,83.0,108,239,0.0,0.0
16329,43.0,0,467,13.0,0.0
16330,50.0,0,239,3.0,0.0
16331,71.0,0,227,4.0,0.0
16332,71.0,6,227,5.0,0.0
16333,71.0,6,53,11.0,0.0
16334,67.0,0,227,4.0,0.0
16335,67.0,0,227,5.0,0.0
16336,67.0,6,227,10.0,0.0
16337,71.0,54,173,11.0,0.0
16338,62.0,0,107,12.0,0.0
16339,67.0,6,53,11.0,0.0
16340,71.0,66,347,10.0,0.0
16341,55.0,174,479,14.0,0.0
16342,62.0,0,347,11.0,0.0
16343,71.0,0,347,4.0,0.0
16344,67.0,60,173,12.0,0.0
16345,71.0,0,347,5.0,0.0
16346,55.0,6,467,13.0,0.0
16347,71.0,114,53,12.0,0.0
16348,71.0,54,173,12.0,0.0
16349,73.0,0,107,4.0,0.0
16350,64.0,0,107,11.0,0.0
16351,73.0,0,107,5.0,0.0
16352,73.0,0,107,10.0,0.0
16353,67.0,6,53,12.0,0.0
16354,74.0,0,293,10.0,0.0
16355,74.0,0,293,5.0,0.0
16356,54.0,6,533,13.0,0.0
16357,69.0,6,347,12.0,0.0
16358,74.0,54,293,4.0,0.0
16359,57.0,60,173,11.0,0.0
16360,54.0,0,539,14.0,0.0
16361,62.0,60,53,11.0,0.0
16362,66.0,0,173,11.0,0.0
16363,73.0,0,53,5.0,0.0
16364,73.0,0,53,10.0,0.0
16365,73.0,60,53,4.0,0.0
16366,74.0,0,53,10.0,0.0
16367,74.0,0,53,4.0,0.0
16368,67.0,6,107,12.0,0.0
16369,74.0,54,53,5.0,0.0
16370,76.0,0,53,4.0,0.0
16371,76.0,21,53,5.0,0.0
16372,76.0,0,53,10.0,0.0
16373,67.0,0,53,11.0,0.0
16374,75.0,0,14,5.0,0.0
16375,75.0,15,14,10.0,0.0
16376,75.0,0,14,4.0,0.0
16377,66.0,6,173,12.0,0.0
16378,69.0,0,173,11.0,0.0
16379,76.0,0,14,4.0,0.0
16380,76.0,0,14,10.0,0.0
16381,76.0,15,14,5.0,0.0
16382,75.0,0,14,10.0,0.0
16383,75.0,0,14,4.0,0.0
16384,75.0,9,14,5.0,0.0
16385,76.0,0,14,10.0,0.0
16386,76.0,0,14,5.0,0.0
16387,76.0,15,14,4.0,0.0
16388,75.0,0,14,5.0,0.0
16389,55.0,6,53,13.0,0.0
16390,55.0,0,59,14.0,0.0
16391,75.0,15,14,10.0,0.0
16392,75.0,0,14,4.0,0.0
16393,76.0,15,14,10.0,0.0
16394,76.0,0,14,5.0,0.0
16395,76.0,0,14,4.0,0.0
16396,75.0,0,14,10.0,0.0
16397,75.0,0,14,5.0,0.0
16398,75.0,9,14,4.0,0.0
16399,76.0,15,14,5.0,0.0
16400,76.0,0,14,10.0,0.0
16401,76.0,0,14,4.0,0.0
16402,75.0,0,14,10.0,0.0
16403,57.0,0,53,13.0,0.0
16404,75.0,15,14,5.0,0.0
16405,57.0,0,59,14.0,0.0
16406,75.0,0,14,4.0,0.0
16407,76.0,0,14,5.0,0.0
16408,76.0,0,14,4.0,0.0
16409,76.0,15,14,10.0,0.0
16410,75.0,0,14,5.0,0.0
16411,75.0,9,14,4.0,0.0
16412,75.0,0,14,10.0,0.0
16413,76.0,0,14,10.0,0.0
16414,76.0,0,14,5.0,0.0
16415,76.0,15,14,4.0,0.0
16416,59.0,0,59,14.0,0.0
16417,64.0,0,53,12.0,0.0
16418,72.0,6,53,11.0,0.0
16419,59.0,0,53,13.0,0.0
16420,75.0,0,14,5.0,0.0
16421,75.0,15,14,4.0,0.0
16422,75.0,0,14,10.0,0.0
16423,76.0,15,14,10.0,0.0
16424,76.0,0,14,5.0,0.0
16425,76.0,0,14,4.0,0.0
16426,75.0,0,14,4.0,0.0
16427,75.0,0,14,5.0,0.0
16428,75.0,9,14,10.0,0.0
16429,76.0,0,14,5.0,0.0
16430,76.0,15,14,10.0,0.0
16431,76.0,0,14,4.0,0.0
16432,75.0,0,14,10.0,0.0
16433,57.0,0,59,14.0,0.0
16434,66.0,6,173,12.0,0.0
16435,57.0,6,53,13.0,0.0
16436,75.0,15,14,4.0,0.0
16437,72.0,0,173,11.0,0.0
16438,75.0,0,14,5.0,0.0
16439,76.0,0,14,4.0,0.0
16440,76.0,0,14,10.0,0.0
16441,76.0,15,14,5.0,0.0
16442,75.0,0,14,4.0,0.0
16443,75.0,9,14,10.0,0.0
16444,75.0,0,14,5.0,0.0
16445,76.0,0,14,5.0,0.0
16446,76.0,15,14,4.0,0.0
16447,76.0,0,14,10.0,0.0
16448,75.0,0,14,4.0,0.0
16449,55.0,6,53,13.0,0.0
16450,75.0,15,14,10.0,0.0
16451,55.0,0,59,14.0,0.0
16452,75.0,0,14,5.0,0.0
16453,76.0,0,14,5.0,0.0
16454,76.0,0,14,4.0,0.0
16455,76.0,15,14,10.0,0.0
16456,73.0,9,14,4.0,0.0
16457,73.0,0,14,5.0,0.0
16458,73.0,0,14,10.0,0.0
16459,75.0,0,14,10.0,0.0
16460,75.0,0,14,4.0,0.0
16461,75.0,54,14,5.0,0.0
16462,76.0,6,107,5.0,0.0
16463,76.0,0,107,10.0,0.0
16464,54.0,48,59,14.0,0.0
16465,54.0,0,53,13.0,0.0
16466,76.0,0,107,4.0,0.0
16467,71.0,0,53,11.0,0.0
16468,52.0,174,59,14.0,0.0
16469,52.0,0,53,13.0,0.0
16470,67.0,6,53,12.0,0.0
16471,78.0,60,293,5.0,0.0
16472,78.0,0,293,4.0,0.0
16473,51.0,0,653,13.0,0.0
16474,66.0,60,173,12.0,0.0
16475,78.0,0,293,10.0,0.0
16476,71.0,0,173,11.0,0.0
16477,51.0,54,659,14.0,0.0
16478,66.0,0,53,11.0,0.0
16479,69.0,60,53,12.0,0.0
16480,63.0,0,173,11.0,0.0
16481,69.0,0,173,12.0,0.0
16482,81.0,60,53,5.0,0.0
16483,81.0,0,53,4.0,0.0
16484,81.0,0,53,10.0,0.0
16485,79.0,60,53,4.0,0.0
16486,79.0,0,53,10.0,0.0
16487,79.0,0,53,5.0,0.0
16488,78.0,0,53,5.0,0.0
16489,72.0,0,53,12.0,0.0
16490,78.0,180,53,10.0,0.0
16491,78.0,0,53,4.0,0.0
16492,69.0,0,53,11.0,0.0
16493,83.0,0,173,10.0,0.0
16494,66.0,0,173,12.0,0.0
16495,83.0,0,173,5.0,0.0
16496,59.0,0,173,11.0,0.0
16497,83.0,6,173,4.0,0.0
16498,47.0,0,53,13.0,0.0
16499,81.0,0,53,4.0,0.0
16500,75.0,0,53,11.0,0.0
16501,81.0,0,53,10.0,0.0
16502,47.0,174,59,14.0,0.0
16503,81.0,6,53,5.0,0.0
16504,59.0,0,53,12.0,0.0
16505,79.0,0,173,5.0,0.0
16506,79.0,6,173,4.0,0.0
16507,79.0,0,173,10.0,0.0
16508,49.0,54,179,14.0,0.0
16509,76.0,0,173,11.0,0.0
16510,49.0,0,173,13.0,0.0
16511,64.0,0,173,12.0,0.0
16512,78.0,0,53,11.0,0.0
16513,71.0,0,53,12.0,0.0
16514,78.0,0,53,4.0,0.0
16515,78.0,0,53,5.0,0.0
16516,51.0,174,59,14.0,0.0
16517,78.0,6,53,10.0,0.0
16518,51.0,0,53,13.0,0.0
16519,76.0,6,173,11.0,0.0
16520,52.0,0,173,13.0,0.0
16521,79.0,0,173,10.0,0.0
16522,52.0,54,179,14.0,0.0
16523,79.0,0,173,4.0,0.0
16524,79.0,0,173,5.0,0.0
16525,71.0,0,173,12.0,0.0
16526,69.0,6,53,12.0,0.0
16527,75.0,0,53,11.0,0.0
16528,78.0,0,53,5.0,0.0
16529,78.0,0,53,10.0,0.0
16530,54.0,0,53,13.0,0.0
16531,78.0,0,53,4.0,0.0
16532,54.0,174,59,14.0,0.0
16533,76.0,0,173,10.0,0.0
16534,55.0,54,179,14.0,0.0
16535,76.0,6,173,4.0,0.0
16536,71.0,0,173,12.0,0.0
16537,76.0,0,173,5.0,0.0
16538,55.0,0,173,13.0,0.0
16539,76.0,0,173,11.0,0.0
16540,78.0,6,53,11.0,0.0
16541,57.0,0,53,13.0,0.0
16542,78.0,0,53,5.0,0.0
16543,78.0,0,53,4.0,0.0
16544,78.0,0,53,10.0,0.0
16545,57.0,15,59,14.0,0.0
16546,72.0,0,53,12.0,0.0
16547,78.0,0,14,4.0,0.0
16548,59.0,6,173,13.0,0.0
16549,59.0,0,179,14.0,0.0
16550,78.0,0,14,5.0,0.0
16551,75.0,0,347,11.0,0.0
16552,78.0,15,14,10.0,0.0
16553,71.0,12,347,12.0,0.0
16554,79.0,0,14,4.0,0.0
16555,79.0,0,14,10.0,0.0
16556,79.0,15,14,5.0,0.0
16557,78.0,15,14,10.0,0.0
16558,78.0,0,14,4.0,0.0
16559,78.0,0,14,5.0,0.0
16560,79.0,15,14,5.0,0.0
16561,79.0,0,14,4.0,0.0
16562,79.0,0,14,10.0,0.0
16563,78.0,0,14,10.0,0.0
16564,78.0,0,14,4.0,0.0
16565,78.0,15,14,5.0,0.0
16566,79.0,0,14,5.0,0.0
16567,79.0,15,14,4.0,0.0
16568,79.0,0,14,10.0,0.0
16569,78.0,0,14,5.0,0.0
16570,78.0,0,14,4.0,0.0
16571,78.0,15,14,10.0,0.0
16572,79.0,0,14,4.0,0.0
16573,79.0,0,14,5.0,0.0
16574,79.0,15,14,10.0,0.0
16575,78.0,0,14,4.0,0.0
16576,78.0,15,14,5.0,0.0
16577,78.0,0,14,10.0,0.0
16578,79.0,0,14,10.0,0.0
16579,79.0,15,14,4.0,0.0
16580,79.0,0,14,5.0,0.0
16581,78.0,9,14,5.0,0.0
16582,78.0,0,14,10.0,0.0
16583,78.0,0,14,4.0,0.0
16584,79.0,0,14,10.0,0.0
16585,79.0,0,14,4.0,0.0
16586,79.0,15,14,5.0,0.0
16587,57.0,0,29,14.0,0.0
16588,78.0,0,14,5.0,0.0
16589,57.0,4,25,13.0,0.0
16590,78.0,0,14,4.0,0.0
16591,78.0,11,14,10.0,0.0
16592,79.0,0,14,10.0,0.0
16593,79.0,15,14,4.0,0.0
16594,79.0,0,14,5.0,0.0
16595,56.0,4,25,13.0,0.0
16596,78.0,11,14,5.0,0.0
16597,78.0,0,14,10.0,0.0
16598,78.0,0,14,4.0,0.0
16599,56.0,0,29,14.0,0.0
16600,79.0,15,14,5.0,0.0
16601,79.0,0,14,10.0,0.0
16602,79.0,0,14,4.0,0.0
16603,78.0,0,14,10.0,0.0
16604,78.0,0,14,4.0,0.0
16605,57.0,48,179,14.0,0.0
16606,78.0,15,14,5.0,0.0
16607,57.0,6,173,13.0,0.0
16608,79.0,0,14,5.0,0.0
16609,79.0,15,14,10.0,0.0
16610,79.0,0,14,4.0,0.0
16611,78.0,15,14,5.0,0.0
16612,78.0,0,14,4.0,0.0
16613,78.0,0,14,10.0,0.0
16614,79.0,0,14,5.0,0.0
16615,79.0,0,14,4.0,0.0
16616,79.0,15,14,10.0,0.0
16617,78.0,0,14,5.0,0.0
16618,78.0,0,14,4.0,0.0
16619,78.0,15,14,10.0,0.0
16620,79.0,0,14,5.0,0.0
16621,79.0,0,14,4.0,0.0
16622,79.0,15,14,10.0,0.0
16623,76.0,0,14,4.0,0.0
16624,76.0,3,14,10.0,0.0
16625,76.0,0,14,5.0,0.0
16626,78.0,0,14,4.0,0.0
16627,78.0,0,14,5.0,0.0
16628,78.0,54,14,10.0,0.0
16629,76.0,0,107,4.0,0.0
16630,76.0,0,107,5.0,0.0
16631,76.0,0,107,10.0,0.0
16632,71.0,6,107,12.0,0.0
16633,76.0,0,107,11.0,0.0
16634,59.0,6,53,13.0,0.0
16635,59.0,174,59,14.0,0.0
16636,76.0,60,293,10.0,0.0
16637,76.0,0,293,5.0,0.0
16638,71.0,54,479,12.0,0.0
16639,56.0,54,539,14.0,0.0
16640,76.0,0,293,4.0,0.0
16641,76.0,60,173,11.0,0.0
16642,56.0,6,533,13.0,0.0
16643,64.0,60,53,11.0,0.0
16644,64.0,0,173,11.0,0.0
16645,76.0,0,53,10.0,0.0
16646,76.0,60,53,5.0,0.0
16647,76.0,0,53,4.0,0.0
16648,74.0,0,53,4.0,0.0
16649,74.0,0,53,5.0,0.0
16650,74.0,60,53,10.0,0.0
16651,68.0,6,53,11.0,0.0
16652,73.0,0,53,10.0,0.0
16653,73.0,0,53,5.0,0.0
16654,73.0,0,53,4.0,0.0
16655,74.0,6,173,10.0,0.0
16656,71.0,6,347,11.0,0.0
16657,74.0,0,173,5.0,0.0
16658,74.0,0,173,4.0,0.0
16659,54.0,6,53,13.0,0.0
16660,54.0,54,59,14.0,0.0
16661,52.0,0,53,13.0,0.0
16662,52.0,54,59,14.0,0.0
16663,83.0,0,53,10.0,0.0
16664,54.0,0,53,13.0,0.0
16665,54.0,54,59,14.0,0.0
16666,64.0,0,53,12.0,0.0
16667,83.0,6,53,4.0,0.0
16668,83.0,0,53,5.0,0.0
16669,76.0,0,173,4.0,0.0
16670,76.0,0,173,10.0,0.0
16671,76.0,6,173,5.0,0.0
16672,56.0,48,59,14.0,0.0
16673,64.0,0,173,12.0,0.0
16674,56.0,6,53,13.0,0.0
16675,54.0,6,53,13.0,0.0
16676,54.0,54,59,14.0,0.0
16677,71.0,6,107,11.0,0.0
16678,56.0,48,59,14.0,0.0
16679,56.0,0,53,13.0,0.0
16680,52.0,174,59,14.0,0.0
16681,74.0,6,53,10.0,0.0
16682,74.0,0,53,5.0,0.0
16683,68.0,0,53,12.0,0.0
16684,52.0,0,53,13.0,0.0
16685,74.0,0,53,4.0,0.0
16686,57.0,54,539,14.0,0.0
16687,69.0,60,173,11.0,0.0
16688,57.0,6,533,13.0,0.0
16689,64.0,0,173,12.0,0.0
16690,73.0,0,173,4.0,0.0
16691,73.0,0,173,10.0,0.0
16692,73.0,0,173,5.0,0.0
16693,69.0,0,53,5.0,0.0
16694,69.0,180,53,4.0,0.0
16695,61.0,0,53,11.0,0.0
16696,69.0,0,53,12.0,0.0
16697,69.0,0,53,10.0,0.0
16698,73.0,0,173,5.0,0.0
16699,73.0,60,173,10.0,0.0
16700,73.0,0,173,4.0,0.0
16701,69.0,0,173,12.0,0.0
16702,64.0,0,173,11.0,0.0
16703,76.0,0,53,4.0,0.0
16704,76.0,0,53,10.0,0.0
16705,67.0,0,53,12.0,0.0
16706,69.0,60,53,11.0,0.0
16707,76.0,0,53,5.0,0.0
16708,66.0,6,173,12.0,0.0
16709,74.0,0,347,11.0,0.0
16710,81.0,0,347,5.0,0.0
16711,81.0,6,347,10.0,0.0
16712,81.0,0,347,4.0,0.0
16713,55.0,54,59,14.0,0.0
16714,55.0,6,53,13.0,0.0
16715,54.0,0,53,13.0,0.0
16716,54.0,54,59,14.0,0.0
16717,66.0,0,53,12.0,0.0
16718,55.0,6,53,13.0,0.0
16719,55.0,54,59,14.0,0.0
16720,57.0,48,59,14.0,0.0
16721,66.0,6,173,12.0,0.0
16722,57.0,6,53,13.0,0.0
16723,55.0,54,59,14.0,0.0
16724,55.0,6,53,13.0,0.0
16725,81.0,0,107,5.0,0.0
16726,81.0,0,107,10.0,0.0
16727,81.0,0,107,4.0,0.0
16728,69.0,6,107,11.0,0.0
16729,57.0,48,59,14.0,0.0
16730,57.0,0,53,13.0,0.0
16731,64.0,0,53,12.0,0.0
16732,54.0,6,53,13.0,0.0
16733,54.0,174,59,14.0,0.0
16734,62.0,60,173,12.0,0.0
16735,59.0,54,539,14.0,0.0
16736,81.0,0,325,4.0,0.0
16737,66.0,0,173,11.0,0.0
16738,81.0,30,325,5.0,0.0
16739,59.0,6,533,13.0,0.0
16740,81.0,0,325,10.0,0.0
16741,74.0,0,53,11.0,0.0
16742,59.0,92,53,12.0,0.0
16743,74.0,2,173,11.0,0.0
16744,66.0,0,173,12.0,0.0
16745,71.0,0,25,10.0,0.0
16746,71.0,30,25,4.0,0.0
16747,71.0,0,25,5.0,0.0
16748,73.0,0,25,5.0,0.0
16749,73.0,28,25,4.0,0.0
16750,73.0,0,25,10.0,0.0
16751,74.0,0,25,5.0,0.0
16752,74.0,0,25,4.0,0.0
16753,74.0,30,25,10.0,0.0
16754,73.0,0,53,11.0,0.0
16755,76.0,0,25,5.0,0.0
16756,76.0,28,25,10.0,0.0
16757,62.0,2,53,12.0,0.0
16758,76.0,0,25,4.0,0.0
16759,78.0,0,25,4.0,0.0
16760,78.0,0,25,10.0,0.0
16761,78.0,58,25,5.0,0.0
16762,62.0,6,173,12.0,0.0
16763,79.0,0,347,10.0,0.0
16764,79.0,0,347,4.0,0.0
16765,79.0,0,347,5.0,0.0
16766,71.0,6,347,11.0,0.0
16767,60.0,54,59,14.0,0.0
16768,60.0,6,53,13.0,0.0
16769,59.0,54,59,14.0,0.0
16770,59.0,0,53,13.0,0.0
16771,57.0,6,53,13.0,0.0
16772,57.0,54,59,14.0,0.0
16773,59.0,0,53,12.0,0.0
16774,64.0,0,173,12.0,0.0
16775,55.0,48,59,14.0,0.0
16776,55.0,6,53,13.0,0.0
16777,54.0,54,59,14.0,0.0
16778,54.0,6,53,13.0,0.0
16779,79.0,6,107,10.0,0.0
16780,71.0,0,107,11.0,0.0
16781,79.0,0,107,5.0,0.0
16782,52.0,6,53,13.0,0.0
16783,79.0,0,107,4.0,0.0
16784,52.0,48,59,14.0,0.0
16785,50.0,174,59,14.0,0.0
16786,50.0,6,53,13.0,0.0
16787,64.0,0,53,12.0,0.0
16788,79.0,0,325,10.0,0.0
16789,49.0,6,533,13.0,0.0
16790,69.0,60,173,11.0,0.0
16791,49.0,54,539,14.0,0.0
16792,79.0,0,325,5.0,0.0
16793,79.0,30,325,4.0,0.0
16794,64.0,0,173,12.0,0.0
16795,69.0,0,53,12.0,0.0
16796,73.0,92,53,11.0,0.0
16797,69.0,2,173,12.0,0.0
16798,73.0,0,173,11.0,0.0
16799,78.0,30,25,5.0,0.0
16800,78.0,0,25,10.0,0.0
16801,78.0,0,25,4.0,0.0
16802,76.0,28,25,4.0,0.0
16803,76.0,0,25,5.0,0.0
16804,76.0,0,25,10.0,0.0
16805,74.0,0,25,10.0,0.0
16806,74.0,0,25,4.0,0.0
16807,74.0,30,25,5.0,0.0
16808,73.0,28,25,4.0,0.0
16809,73.0,0,25,5.0,0.0
16810,64.0,0,53,12.0,0.0
16811,76.0,2,53,11.0,0.0
16812,73.0,0,25,10.0,0.0
16813,71.0,0,25,5.0,0.0
16814,71.0,0,25,10.0,0.0
16815,71.0,58,25,4.0,0.0
16816,76.0,0,173,11.0,0.0
16817,69.0,6,347,12.0,0.0
16818,69.0,6,173,4.0,0.0
16819,69.0,0,173,10.0,0.0
16820,69.0,0,173,5.0,0.0
16821,50.0,6,53,13.0,0.0
16822,50.0,54,59,14.0,0.0
16823,49.0,26,59,14.0,0.0
16824,49.0,0,53,13.0,0.0
16825,74.0,0,53,11.0,0.0
16826,67.0,0,25,5.0,0.0
16827,67.0,0,25,10.0,0.0
16828,47.0,2,53,13.0,0.0
16829,67.0,28,25,4.0,0.0
16830,47.0,54,59,14.0,0.0
16831,66.0,4,25,5.0,0.0
16832,66.0,0,25,4.0,0.0
16833,66.0,0,25,10.0,0.0
16834,45.0,48,59,14.0,0.0
16835,67.0,0,173,10.0,0.0
16836,45.0,6,53,13.0,0.0
16837,67.0,0,173,5.0,0.0
16838,67.0,0,173,4.0,0.0
16839,76.0,0,173,11.0,0.0
16840,47.0,54,59,14.0,0.0
16841,47.0,6,53,13.0,0.0
16842,69.0,6,107,12.0,0.0
16843,49.0,48,59,14.0,0.0
16844,49.0,6,53,13.0,0.0
16845,45.0,6,53,13.0,0.0
16846,76.0,0,53,10.0,0.0
16847,45.0,15,59,14.0,0.0
16848,73.0,0,53,11.0,0.0
16849,76.0,0,53,4.0,0.0
16850,76.0,0,53,5.0,0.0
16851,50.0,6,533,13.0,0.0
16852,50.0,15,14,3.0,0.0
16853,66.0,6,293,10.0,0.0
16854,50.0,15,539,14.0,0.0
16855,74.0,6,173,11.0,0.0
16856,66.0,0,293,4.0,0.0
16857,69.0,0,173,12.0,0.0
16858,66.0,0,293,5.0,0.0
16859,50.0,15,14,3.0,0.0
16860,50.0,15,14,3.0,0.0
16861,50.0,15,14,3.0,0.0
16862,50.0,15,14,3.0,0.0
16863,50.0,15,14,3.0,0.0
16864,50.0,15,14,3.0,0.0
16865,50.0,15,14,3.0,0.0
16866,50.0,15,14,3.0,0.0
16867,50.0,15,14,3.0,0.0
16868,50.0,9,14,3.0,0.0
16869,50.0,15,14,3.0,0.0
16870,74.0,0,53,0.0,0.0
16871,66.0,0,53,2.0,0.0
16872,66.0,0,53,12.0,0.0
16873,50.0,15,14,3.0,0.0
16874,69.0,6,53,1.0,0.0
16875,69.0,0,53,11.0,0.0
16876,50.0,15,14,3.0,0.0
16877,50.0,9,14,3.0,0.0
16878,50.0,15,14,3.0,0.0
16879,50.0,15,14,3.0,0.0
16880,66.0,0,173,2.0,0.0
16881,74.0,6,173,0.0,0.0
16882,69.0,0,173,11.0,0.0
16883,69.0,0,173,1.0,0.0
16884,66.0,0,173,12.0,0.0
16885,50.0,15,14,3.0,0.0
16886,50.0,9,14,3.0,0.0
16887,50.0,15,14,3.0,0.0
16888,67.0,0,53,4.0,0.0
16889,67.0,0,53,10.0,0.0
16890,50.0,15,14,3.0,0.0
16891,67.0,6,53,5.0,0.0
16892,50.0,15,14,3.0,0.0
16893,50.0,9,14,3.0,0.0
16894,50.0,15,14,3.0,0.0
16895,69.0,0,53,4.0,0.0
16896,50.0,15,14,3.0,0.0
16897,69.0,0,53,5.0,0.0
16898,69.0,0,53,10.0,0.0
16899,50.0,15,14,3.0,0.0
16900,50.0,9,14,3.0,0.0
16901,50.0,15,14,3.0,0.0
16902,78.0,0,53,0.0,0.0
16903,50.0,15,14,3.0,0.0
16904,74.0,0,53,1.0,0.0
16905,66.0,0,53,11.0,0.0
16906,71.0,0,53,10.0,0.0
16907,71.0,6,53,5.0,0.0
16908,71.0,0,53,4.0,0.0
16909,69.0,0,53,2.0,0.0
16910,62.0,0,53,12.0,0.0
16911,50.0,15,14,3.0,0.0
16912,50.0,9,14,3.0,0.0
16913,50.0,15,14,3.0,0.0
16914,78.0,0,173,0.0,0.0
16915,50.0,15,14,3.0,0.0
16916,74.0,0,173,1.0,0.0
16917,72.0,0,347,4.0,0.0
16918,66.0,0,173,11.0,0.0
16919,57.0,6,173,12.0,0.0
16920,72.0,6,347,5.0,0.0
16921,69.0,0,173,2.0,0.0
16922,72.0,0,347,10.0,0.0
16923,50.0,15,14,3.0,0.0
16924,50.0,9,14,3.0,0.0
16925,50.0,0,14,3.0,0.0
16926,50.0,15,14,3.0,0.0
16927,52.0,15,59,14.0,0.0
16928,52.0,6,53,13.0,0.0
16929,50.0,15,14,3.0,0.0
16930,50.0,9,14,3.0,0.0
16931,50.0,0,14,3.0,0.0
16932,50.0,0,53,13.0,0.0
16933,50.0,15,59,14.0,0.0
16934,50.0,15,14,3.0,0.0
16935,50.0,15,14,3.0,0.0
16936,50.0,9,14,3.0,0.0
16937,50.0,0,14,3.0,0.0
16938,74.0,0,53,2.0,0.0
16939,50.0,15,14,3.0,0.0
16940,81.0,0,53,0.0,0.0
16941,78.0,6,53,1.0,0.0
16942,48.0,0,53,13.0,0.0
16943,62.0,0,53,11.0,0.0
16944,62.0,0,53,12.0,0.0
16945,48.0,15,59,14.0,0.0
16946,50.0,15,14,3.0,0.0
16947,50.0,9,14,3.0,0.0
16948,50.0,0,14,3.0,0.0
16949,62.0,0,413,11.0,0.0
16950,81.0,6,173,0.0,0.0
16951,74.0,0,173,2.0,0.0
16952,47.0,0,59,14.0,0.0
16953,78.0,0,173,1.0,0.0
16954,66.0,0,173,12.0,0.0
16955,50.0,15,14,3.0,0.0
16956,47.0,6,53,13.0,0.0
16957,50.0,15,14,3.0,0.0
16958,50.0,9,14,3.0,0.0
16959,50.0,15,14,3.0,0.0
16960,45.0,0,59,14.0,0.0
16961,50.0,15,14,3.0,0.0
16962,45.0,6,53,13.0,0.0
16963,50.0,15,14,3.0,0.0
16964,50.0,3,14,3.0,0.0
16965,50.0,15,14,3.0,0.0
16966,74.0,0,107,5.0,0.0
16967,74.0,0,107,4.0,0.0
16968,74.0,6,107,10.0,0.0
16969,43.0,0,59,14.0,0.0
16970,43.0,0,53,13.0,0.0
16971,50.0,15,14,3.0,0.0
16972,50.0,15,14,3.0,0.0
16973,50.0,9,14,3.0,0.0
16974,50.0,15,14,3.0,0.0
16975,69.0,0,53,12.0,0.0
16976,42.0,0,59,14.0,0.0
16977,74.0,0,53,2.0,0.0
16978,83.0,6,53,0.0,0.0
16979,50.0,15,14,3.0,0.0
16980,42.0,0,53,13.0,0.0
16981,79.0,0,53,1.0,0.0
16982,50.0,15,14,3.0,0.0
16983,50.0,3,14,3.0,0.0
16984,50.0,120,14,3.0,0.0
16985,50.0,20,179,3.0,0.0
16986,71.0,0,293,5.0,0.0
16987,43.0,15,959,13.0,0.0
16988,67.0,6,173,12.0,0.0
16989,83.0,0,119,0.0,0.0
16990,71.0,60,293,10.0,0.0
16991,74.0,0,119,2.0,0.0
16992,71.0,0,293,4.0,0.0
16993,79.0,54,119,1.0,0.0
16994,43.0,0,959,14.0,0.0
16995,66.0,6,53,11.0,0.0
16996,62.0,0,53,12.0,0.0
16997,50.0,20,19,3.0,0.0
16998,50.0,14,19,3.0,0.0
16999,50.0,54,19,3.0,0.0
17000,50.0,54,179,3.0,0.0
17001,67.0,0,173,11.0,0.0
17002,64.0,0,173,12.0,0.0
17003,69.0,0,53,10.0,0.0
17004,69.0,0,53,4.0,0.0
17005,69.0,60,53,5.0,0.0
17006,67.0,0,53,10.0,0.0
17007,67.0,6,53,4.0,0.0
17008,67.0,0,53,5.0,0.0
17009,50.0,54,59,3.0,0.0
17010,66.0,0,53,5.0,0.0
17011,69.0,0,53,11.0,0.0
17012,66.0,6,53,10.0,0.0
17013,66.0,0,53,4.0,0.0
17014,66.0,0,53,12.0,0.0
17015,64.0,0,53,5.0,0.0
17016,79.0,0,119,0.0,0.0
17017,83.0,0,119,1.0,0.0
17018,50.0,0,119,3.0,0.0
17019,76.0,54,119,2.0,0.0
17020,71.0,0,173,11.0,0.0
17021,64.0,60,53,4.0,0.0
17022,67.0,60,173,12.0,0.0
17023,64.0,0,53,10.0,0.0
17024,66.0,0,53,4.0,0.0
17025,66.0,6,53,10.0,0.0
17026,66.0,0,53,5.0,0.0
17027,67.0,0,53,5.0,0.0
17028,67.0,0,53,10.0,0.0
17029,67.0,0,53,4.0,0.0
17030,69.0,0,53,5.0,0.0
17031,69.0,0,53,10.0,0.0
17032,69.0,0,53,4.0,0.0
17033,64.0,60,53,12.0,0.0
17034,73.0,0,53,11.0,0.0
17035,71.0,0,53,10.0,0.0
17036,71.0,60,53,5.0,0.0
17037,66.0,0,173,12.0,0.0
17038,74.0,0,173,11.0,0.0
17039,71.0,0,53,4.0,0.0
17040,73.0,60,53,5.0,0.0
17041,73.0,0,53,4.0,0.0
17042,73.0,0,53,10.0,0.0
17043,74.0,0,53,4.0,0.0
17044,74.0,0,53,10.0,0.0
17045,74.0,60,53,5.0,0.0
17046,67.0,6,53,12.0,0.0
17047,71.0,0,53,10.0,0.0
17048,71.0,0,53,5.0,0.0
17049,71.0,0,53,4.0,0.0
17050,76.0,0,53,11.0,0.0
17051,73.0,6,53,10.0,0.0
17052,64.0,6,173,12.0,0.0
17053,73.0,0,53,5.0,0.0
17054,43.0,0,293,13.0,0.0
17055,73.0,0,53,4.0,0.0
17056,43.0,0,299,14.0,0.0
17057,69.0,0,173,11.0,0.0
17058,45.0,15,14,3.0,0.0
17059,45.0,15,14,3.0,0.0
17060,45.0,9,14,3.0,0.0
17061,45.0,15,14,3.0,0.0
17062,74.0,6,53,5.0,0.0
17063,74.0,0,53,4.0,0.0
17064,45.0,15,14,3.0,0.0
17065,74.0,0,53,10.0,0.0
17066,45.0,15,14,3.0,0.0
17067,45.0,9,14,3.0,0.0
17068,45.0,15,14,3.0,0.0
17069,45.0,15,14,3.0,0.0
17070,73.0,0,53,4.0,0.0
17071,73.0,0,53,10.0,0.0
17072,73.0,0,53,5.0,0.0
17073,45.0,15,14,3.0,0.0
17074,45.0,9,14,3.0,0.0
17075,45.0,15,14,3.0,0.0
17076,45.0,15,14,3.0,0.0
17077,69.0,0,53,2.0,0.0
17078,71.0,0,53,10.0,0.0
17079,71.0,0,53,5.0,0.0
17080,69.0,0,53,12.0,0.0
17081,71.0,0,53,4.0,0.0
17082,76.0,0,53,0.0,0.0
17083,64.0,6,53,11.0,0.0
17084,69.0,0,53,1.0,0.0
17085,45.0,15,14,3.0,0.0
17086,45.0,9,14,3.0,0.0
17087,45.0,15,14,3.0,0.0
17088,69.0,6,53,4.0,0.0
17089,69.0,0,173,12.0,0.0
17090,69.0,0,173,2.0,0.0
17091,69.0,0,53,10.0,0.0
17092,76.0,0,173,0.0,0.0
17093,69.0,0,173,1.0,0.0
17094,45.0,15,14,3.0,0.0
17095,61.0,0,173,11.0,0.0
17096,69.0,0,53,5.0,0.0
17097,45.0,15,14,3.0,0.0
17098,45.0,9,14,3.0,0.0
17099,45.0,15,14,3.0,0.0
17100,71.0,0,53,5.0,0.0
17101,42.0,0,53,13.0,0.0
17102,42.0,15,59,14.0,0.0
17103,71.0,0,53,10.0,0.0
17104,71.0,6,53,4.0,0.0
17105,45.0,15,14,3.0,0.0
17106,45.0,15,14,3.0,0.0
17107,45.0,9,14,3.0,0.0
17108,45.0,0,14,3.0,0.0
17109,73.0,0,53,4.0,0.0
17110,40.0,6,53,13.0,0.0
17111,73.0,0,53,10.0,0.0
17112,73.0,0,53,5.0,0.0
17113,45.0,15,14,3.0,0.0
17114,40.0,15,59,14.0,0.0
17115,45.0,15,14,3.0,0.0
17116,45.0,9,14,3.0,0.0
17117,45.0,0,14,3.0,0.0
17118,45.0,15,14,3.0,0.0
17119,74.0,0,53,10.0,0.0
17120,57.0,0,53,11.0,0.0
17121,74.0,0,53,5.0,0.0
17122,81.0,6,53,0.0,0.0
17123,69.0,0,53,2.0,0.0
17124,38.0,0,53,13.0,0.0
17125,38.0,0,59,14.0,0.0
17126,76.0,0,53,1.0,0.0
17127,74.0,0,53,4.0,0.0
17128,64.0,0,53,12.0,0.0
17129,45.0,15,14,3.0,0.0
17130,45.0,9,14,3.0,0.0
17131,45.0,54,14,3.0,0.0
17132,37.0,0,179,14.0,0.0
17133,76.0,0,53,4.0,0.0
17134,45.0,20,179,3.0,0.0
17135,76.0,0,173,1.0,0.0
17136,64.0,0,173,12.0,0.0
17137,76.0,60,53,10.0,0.0
17138,37.0,6,173,13.0,0.0
17139,69.0,0,173,2.0,0.0
17140,69.0,0,173,11.0,0.0
17141,81.0,0,173,0.0,0.0
17142,76.0,0,53,5.0,0.0
17143,78.0,0,53,10.0,0.0
17144,78.0,60,53,4.0,0.0
17145,78.0,0,53,5.0,0.0
17146,79.0,0,53,4.0,0.0
17147,79.0,0,53,10.0,0.0
17148,79.0,0,53,5.0,0.0
17149,81.0,0,53,4.0,0.0
17150,45.0,20,19,3.0,0.0
17151,61.0,0,53,12.0,0.0
17152,83.0,0,53,0.0,0.0
17153,81.0,0,53,5.0,0.0
17154,78.0,0,53,1.0,0.0
17155,45.0,54,59,14.0,0.0
17156,81.0,0,53,10.0,0.0
17157,45.0,0,53,13.0,0.0
17158,66.0,6,53,11.0,0.0
17159,66.0,0,53,2.0,0.0
17160,45.0,14,19,3.0,0.0
17161,45.0,0,19,3.0,0.0
17162,79.0,0,53,4.0,0.0
17163,78.0,6,173,1.0,0.0
17164,62.0,0,173,2.0,0.0
17165,79.0,60,53,10.0,0.0
17166,47.0,0,173,13.0,0.0
17167,62.0,0,173,12.0,0.0
17168,62.0,0,173,11.0,0.0
17169,79.0,0,173,0.0,0.0
17170,50.0,0,179,3.0,0.0
17171,79.0,0,53,5.0,0.0
17172,47.0,54,179,14.0,0.0
17173,78.0,0,53,4.0,0.0
17174,78.0,60,53,5.0,0.0
17175,78.0,0,53,10.0,0.0
17176,79.0,0,53,4.0,0.0
17177,79.0,0,53,10.0,0.0
17178,79.0,0,53,5.0,0.0
17179,49.0,174,59,14.0,0.0
17180,49.0,0,53,13.0,0.0
17181,69.0,0,53,11.0,0.0
17182,64.0,0,53,12.0,0.0
17183,76.0,6,53,1.0,0.0
17184,81.0,0,53,0.0,0.0
17185,76.0,0,53,5.0,0.0
17186,69.0,0,53,2.0,0.0
17187,45.0,0,59,3.0,0.0
17188,76.0,0,53,4.0,0.0
17189,76.0,0,53,10.0,0.0
17190,74.0,0,173,1.0,0.0
17191,50.0,0,179,3.0,0.0
17192,69.0,6,173,2.0,0.0
17193,78.0,0,173,10.0,0.0
17194,78.0,0,173,0.0,0.0
17195,57.0,0,173,12.0,0.0
17196,69.0,0,173,11.0,0.0
17197,78.0,0,173,4.0,0.0
17198,78.0,0,173,5.0,0.0
17199,50.0,0,173,13.0,0.0
17200,50.0,16,179,14.0,0.0
17201,76.0,20,15,10.0,0.0
17202,52.0,174,59,14.0,0.0
17203,76.0,0,15,4.0,0.0
17204,79.0,0,53,0.0,0.0
17205,64.0,0,53,12.0,0.0
17206,69.0,0,53,2.0,0.0
17207,67.0,2,53,11.0,0.0
17208,69.0,0,53,1.0,0.0
17209,76.0,0,15,5.0,0.0
17210,52.0,0,53,13.0,0.0
17211,45.0,0,59,3.0,0.0
17212,74.0,0,15,5.0,0.0
17213,74.0,18,15,4.0,0.0
17214,74.0,0,15,10.0,0.0
17215,73.0,0,15,5.0,0.0
17216,73.0,0,15,10.0,0.0
17217,73.0,4,15,4.0,0.0
17218,54.0,54,179,14.0,0.0
17219,50.0,0,179,3.0,0.0
17220,78.0,0,173,0.0,0.0
17221,69.0,6,173,2.0,0.0
17222,74.0,0,173,10.0,0.0
17223,54.0,0,173,13.0,0.0
17224,74.0,0,173,1.0,0.0
17225,69.0,0,173,11.0,0.0
17226,74.0,0,173,4.0,0.0
17227,62.0,0,173,12.0,0.0
17228,74.0,0,173,5.0,0.0
17229,71.0,0,53,11.0,0.0
17230,50.0,120,59,3.0,0.0
17231,69.0,0,53,1.0,0.0
17232,71.0,0,53,10.0,0.0
17233,76.0,0,53,0.0,0.0
17234,71.0,0,53,4.0,0.0
17235,69.0,0,53,2.0,0.0
17236,67.0,0,53,12.0,0.0
17237,71.0,6,53,5.0,0.0
17238,55.0,0,59,14.0,0.0
17239,55.0,0,53,13.0,0.0
17240,73.0,0,347,5.0,0.0
17241,76.0,0,347,0.0,0.0
17242,69.0,0,227,11.0,0.0
17243,64.0,0,347,12.0,0.0
17244,45.0,54,119,3.0,0.0
17245,73.0,0,347,10.0,0.0
17246,57.0,6,227,13.0,0.0
17247,73.0,0,347,4.0,0.0
17248,69.0,6,173,1.0,0.0
17249,57.0,0,239,14.0,0.0
17250,69.0,66,347,2.0,0.0
17251,45.0,48,59,3.0,0.0
17252,45.0,108,59,3.0,0.0
17253,66.0,6,53,1.0,0.0
17254,69.0,6,173,1.0,0.0
17255,45.0,48,179,3.0,0.0
17256,45.0,0,227,13.0,0.0
17257,69.0,6,227,11.0,0.0
17258,45.0,960,239,14.0,0.0
17259,69.0,0,107,2.0,0.0
17260,74.0,0,107,4.0,0.0
17261,74.0,0,107,10.0,0.0
17262,74.0,0,107,0.0,0.0
17263,74.0,0,107,5.0,0.0
17264,66.0,0,107,12.0,0.0
17265,45.0,0,59,3.0,0.0
17266,69.0,6,53,1.0,0.0
17267,38.0,0,959,14.0,0.0
17268,66.0,0,959,12.0,0.0
17269,69.0,0,959,2.0,0.0
17270,66.0,0,959,1.0,0.0
17271,74.0,0,959,5.0,0.0
17272,69.0,0,959,11.0,0.0
17273,74.0,961,959,0.0,0.0
17274,50.0,0,959,3.0,0.0
17275,74.0,0,959,10.0,0.0
17276,74.0,0,959,4.0,0.0
17277,38.0,0,959,13.0,0.0
