,note,step,duration,channel,velocity
0,60.0,30,150,4.0,0.0
1,67.0,0,150,3.0,0.0
2,72.0,0,150,2.0,0.0
3,67.0,0,150,5.0,0.0
4,72.0,0,150,5.0,0.0
5,76.0,0,150,5.0,0.0
6,55.0,0,150,8.0,0.0
7,52.0,0,150,8.0,0.0
8,48.0,0,150,8.0,0.0
9,67.0,48,90,7.0,0.0
10,64.0,0,90,7.0,0.0
11,60.0,0,150,6.0,0.0
12,60.0,0,90,7.0,0.0
13,76.0,18,150,1.0,0.0
14,69.0,0,40,7.0,0.0
15,67.0,0,40,7.0,0.0
16,77.0,24,40,1.0,0.0
17,77.0,0,40,5.0,0.0
18,60.0,0,150,6.0,0.0
19,45.0,6,150,8.0,0.0
20,57.0,0,150,6.0,0.0
21,72.0,0,150,2.0,0.0
22,69.0,0,150,3.0,0.0
23,48.0,0,150,8.0,0.0
24,79.0,24,20,1.0,0.0
25,72.0,0,150,5.0,0.0
26,57.0,0,150,4.0,0.0
27,60.0,0,90,7.0,0.0
28,65.0,0,40,7.0,0.0
29,57.0,0,150,8.0,0.0
30,79.0,0,20,5.0,0.0
31,77.0,0,20,5.0,0.0
32,77.0,24,20,1.0,0.0
33,79.0,0,20,1.0,0.0
34,64.0,0,40,7.0,0.0
35,79.0,24,20,5.0,0.0
36,77.0,0,20,5.0,0.0
37,77.0,24,20,1.0,0.0
38,62.0,0,40,7.0,0.0
39,79.0,24,20,5.0,0.0
40,79.0,0,20,1.0,0.0
41,77.0,0,20,1.0,0.0
42,77.0,18,20,5.0,0.0
43,76.0,0,20,5.0,0.0
44,76.0,24,20,1.0,0.0
45,60.0,48,40,7.0,0.0
46,77.0,0,20,5.0,0.0
47,77.0,0,20,1.0,0.0
48,52.0,0,90,4.0,0.0
49,79.0,0,90,1.0,0.0
50,72.0,0,90,2.0,0.0
51,52.0,0,90,6.0,0.0
52,55.0,0,90,6.0,0.0
53,60.0,0,90,6.0,0.0
54,67.0,0,90,3.0,0.0
55,79.0,0,90,5.0,0.0
56,67.0,0,90,5.0,0.0
57,72.0,48,40,7.0,0.0
58,72.0,0,90,5.0,0.0
59,40.0,0,90,8.0,0.0
60,43.0,48,90,8.0,0.0
61,48.0,0,90,8.0,0.0
62,67.0,0,40,7.0,0.0
63,72.0,48,40,7.0,0.0
64,76.0,96,40,7.0,0.0
65,79.0,0,90,7.0,0.0
66,64.0,0,40,6.0,0.0
67,79.0,48,40,5.0,0.0
68,62.0,0,40,6.0,0.0
69,77.0,48,40,5.0,0.0
70,79.0,0,40,5.0,0.0
71,64.0,48,40,6.0,0.0
72,69.0,0,40,5.0,0.0
73,53.0,48,40,6.0,0.0
74,79.0,0,40,5.0,0.0
75,64.0,48,40,6.0,0.0
76,77.0,0,40,5.0,0.0
77,62.0,48,40,6.0,0.0
78,60.0,48,40,6.0,0.0
79,76.0,0,40,5.0,0.0
80,77.0,48,40,5.0,0.0
81,62.0,0,40,6.0,0.0
82,69.0,0,40,5.0,0.0
83,53.0,48,40,6.0,0.0
84,71.0,0,40,5.0,0.0
85,55.0,48,40,6.0,0.0
86,62.0,0,40,6.0,0.0
87,77.0,48,40,5.0,0.0
88,57.0,0,40,6.0,0.0
89,72.0,48,40,5.0,0.0
90,77.0,0,40,5.0,0.0
91,62.0,48,40,6.0,0.0
92,60.0,0,40,6.0,0.0
93,76.0,48,40,5.0,0.0
94,59.0,96,40,6.0,0.0
95,74.0,0,40,5.0,0.0
96,60.0,0,90,6.0,0.0
97,76.0,0,90,5.0,0.0
98,76.0,0,40,7.0,0.0
99,67.0,48,40,8.0,0.0
100,65.0,48,40,8.0,0.0
101,74.0,0,40,7.0,0.0
102,67.0,48,40,8.0,0.0
103,76.0,0,40,7.0,0.0
104,57.0,0,40,8.0,0.0
105,65.0,48,40,7.0,0.0
106,76.0,0,40,7.0,0.0
107,67.0,48,40,8.0,0.0
108,65.0,0,40,8.0,0.0
109,74.0,48,40,7.0,0.0
110,64.0,0,40,8.0,0.0
111,72.0,48,40,7.0,0.0
112,65.0,0,40,8.0,0.0
113,74.0,48,40,7.0,0.0
114,57.0,0,40,8.0,0.0
115,65.0,48,40,7.0,0.0
116,67.0,48,40,7.0,0.0
117,59.0,0,40,8.0,0.0
118,74.0,0,40,7.0,0.0
119,65.0,48,40,8.0,0.0
120,60.0,48,40,8.0,0.0
121,64.0,0,40,7.0,0.0
122,74.0,0,40,7.0,0.0
123,65.0,48,40,8.0,0.0
124,64.0,0,40,8.0,0.0
125,72.0,48,40,7.0,0.0
126,71.0,96,40,7.0,0.0
127,62.0,0,40,8.0,0.0
128,64.0,0,90,8.0,0.0
129,72.0,96,90,7.0,0.0
130,67.0,0,90,7.0,0.0
131,67.0,0,90,1.0,0.0
132,52.0,0,90,6.0,0.0
133,60.0,96,90,3.0,0.0
134,52.0,0,90,4.0,0.0
135,67.0,0,90,5.0,0.0
136,52.0,0,90,8.0,0.0
137,60.0,0,90,8.0,0.0
138,67.0,0,90,2.0,0.0
139,60.0,0,90,6.0,0.0
140,53.0,0,90,8.0,0.0
141,67.0,0,90,2.0,0.0
142,53.0,96,90,4.0,0.0
143,60.0,0,90,3.0,0.0
144,67.0,0,90,5.0,0.0
145,69.0,0,90,5.0,0.0
146,60.0,0,90,6.0,0.0
147,69.0,0,90,7.0,0.0
148,67.0,0,90,7.0,0.0
149,53.0,0,90,6.0,0.0
150,69.0,0,90,1.0,0.0
151,60.0,0,90,8.0,0.0
152,62.0,0,90,3.0,0.0
153,62.0,0,90,6.0,0.0
154,47.0,0,90,6.0,0.0
155,65.0,0,90,7.0,0.0
156,65.0,0,90,5.0,0.0
157,71.0,0,90,5.0,0.0
158,50.0,0,90,4.0,0.0
159,71.0,0,90,7.0,0.0
160,47.0,48,90,8.0,0.0
161,62.0,0,90,8.0,0.0
162,65.0,0,90,2.0,0.0
163,71.0,0,90,1.0,0.0
164,67.0,0,90,2.0,0.0
165,55.0,0,90,3.0,0.0
166,52.0,0,90,6.0,0.0
167,55.0,0,90,6.0,0.0
168,72.0,48,40,7.0,0.0
169,52.0,0,90,8.0,0.0
170,55.0,48,90,8.0,0.0
171,67.0,30,150,5.0,0.0
172,72.0,0,40,5.0,0.0
173,52.0,0,90,4.0,0.0
174,72.0,0,40,1.0,0.0
175,67.0,0,150,7.0,0.0
176,74.0,0,40,7.0,0.0
177,74.0,0,40,5.0,0.0
178,74.0,0,40,1.0,0.0
179,48.0,0,90,6.0,0.0
180,48.0,0,90,4.0,0.0
181,60.0,0,90,6.0,0.0
182,76.0,0,40,1.0,0.0
183,76.0,0,40,7.0,0.0
184,67.0,0,90,3.0,0.0
185,72.0,0,90,2.0,0.0
186,76.0,18,40,5.0,0.0
187,60.0,48,90,8.0,0.0
188,48.0,0,90,8.0,0.0
189,72.0,0,40,7.0,0.0
190,72.0,0,40,1.0,0.0
191,72.0,0,40,5.0,0.0
192,67.0,0,90,5.0,0.0
193,74.0,0,40,5.0,0.0
194,74.0,48,40,7.0,0.0
195,67.0,0,90,7.0,0.0
196,74.0,0,40,1.0,0.0
197,55.0,0,90,6.0,0.0
198,55.0,0,90,8.0,0.0
199,55.0,0,90,4.0,0.0
200,59.0,48,90,6.0,0.0
201,71.0,0,90,2.0,0.0
202,59.0,0,90,8.0,0.0
203,67.0,0,90,3.0,0.0
204,72.0,0,40,1.0,0.0
205,72.0,0,40,7.0,0.0
206,72.0,0,40,5.0,0.0
207,71.0,48,40,5.0,0.0
208,71.0,0,40,7.0,0.0
209,67.0,0,90,2.0,0.0
210,71.0,0,40,1.0,0.0
211,62.0,0,90,3.0,0.0
212,43.0,0,90,4.0,0.0
213,69.0,48,40,1.0,0.0
214,69.0,0,40,7.0,0.0
215,69.0,0,40,5.0,0.0
216,67.0,0,90,7.0,0.0
217,67.0,48,40,5.0,0.0
218,59.0,0,90,3.0,0.0
219,67.0,48,90,1.0,0.0
220,62.0,0,90,2.0,0.0
221,47.0,0,40,6.0,0.0
222,74.0,0,40,5.0,0.0
223,48.0,0,40,6.0,0.0
224,76.0,48,40,5.0,0.0
225,77.0,48,40,5.0,0.0
226,50.0,0,40,6.0,0.0
227,52.0,0,90,6.0,0.0
228,79.0,48,40,5.0,0.0
229,76.0,48,40,5.0,0.0
230,70.0,0,90,3.0,0.0
231,50.0,0,90,4.0,0.0
232,79.0,48,40,5.0,0.0
233,79.0,0,90,1.0,0.0
234,76.0,0,90,2.0,0.0
235,50.0,0,90,6.0,0.0
236,70.0,48,40,5.0,0.0
237,69.0,0,90,3.0,0.0
238,69.0,48,40,5.0,0.0
239,49.0,0,90,6.0,0.0
240,79.0,48,90,1.0,0.0
241,76.0,0,90,2.0,0.0
242,49.0,0,90,4.0,0.0
243,69.0,0,40,7.0,0.0
244,79.0,0,40,5.0,0.0
245,61.0,0,40,8.0,0.0
246,71.0,0,40,7.0,0.0
247,62.0,48,40,8.0,0.0
248,45.0,0,90,6.0,0.0
249,77.0,0,40,5.0,0.0
250,73.0,0,40,7.0,0.0
251,64.0,0,40,8.0,0.0
252,76.0,48,40,5.0,0.0
253,77.0,0,90,5.0,0.0
254,50.0,0,90,6.0,0.0
255,53.0,0,90,8.0,0.0
256,74.0,48,40,7.0,0.0
257,69.0,48,40,7.0,0.0
258,74.0,48,40,7.0,0.0
259,62.0,0,90,3.0,0.0
260,74.0,0,90,2.0,0.0
261,59.0,0,90,8.0,0.0
262,38.0,0,90,6.0,0.0
263,77.0,0,90,1.0,0.0
264,74.0,48,90,5.0,0.0
265,50.0,0,90,4.0,0.0
266,65.0,0,40,7.0,0.0
267,64.0,48,40,7.0,0.0
268,56.0,0,90,8.0,0.0
269,44.0,0,90,4.0,0.0
270,71.0,0,90,1.0,0.0
271,64.0,48,90,3.0,0.0
272,74.0,0,90,2.0,0.0
273,76.0,0,40,5.0,0.0
274,74.0,0,40,7.0,0.0
275,56.0,0,40,6.0,0.0
276,72.0,0,40,7.0,0.0
277,52.0,0,90,8.0,0.0
278,57.0,0,40,6.0,0.0
279,78.0,48,40,5.0,0.0
280,71.0,0,40,7.0,0.0
281,59.0,48,40,6.0,0.0
282,80.0,0,40,5.0,0.0
283,48.0,0,90,6.0,0.0
284,81.0,48,40,5.0,0.0
285,72.0,48,90,7.0,0.0
286,57.0,0,90,8.0,0.0
287,76.0,0,40,5.0,0.0
288,54.0,0,90,6.0,0.0
289,81.0,48,40,5.0,0.0
290,81.0,0,90,1.0,0.0
291,45.0,48,90,8.0,0.0
292,57.0,0,90,4.0,0.0
293,57.0,0,90,3.0,0.0
294,69.0,0,90,7.0,0.0
295,72.0,0,90,2.0,0.0
296,72.0,0,40,5.0,0.0
297,51.0,0,90,6.0,0.0
298,66.0,0,90,3.0,0.0
299,51.0,0,90,4.0,0.0
300,71.0,48,90,2.0,0.0
301,71.0,48,40,5.0,0.0
302,81.0,0,90,1.0,0.0
303,71.0,0,40,7.0,0.0
304,63.0,0,40,8.0,0.0
305,81.0,0,40,5.0,0.0
306,64.0,48,40,8.0,0.0
307,79.0,0,40,5.0,0.0
308,73.0,0,40,7.0,0.0
309,47.0,0,90,6.0,0.0
310,66.0,0,40,8.0,0.0
311,75.0,0,40,7.0,0.0
312,78.0,48,40,5.0,0.0
313,76.0,48,40,7.0,0.0
314,52.0,48,90,6.0,0.0
315,55.0,0,90,8.0,0.0
316,79.0,0,40,5.0,0.0
317,76.0,0,40,5.0,0.0
318,71.0,0,40,7.0,0.0
319,79.0,0,90,1.0,0.0
320,76.0,0,40,7.0,0.0
321,52.0,0,90,8.0,0.0
322,50.0,0,90,6.0,0.0
323,64.0,0,90,3.0,0.0
324,70.0,0,90,2.0,0.0
325,79.0,48,40,5.0,0.0
326,50.0,0,90,4.0,0.0
327,67.0,48,40,7.0,0.0
328,70.0,0,40,5.0,0.0
329,64.0,48,40,7.0,0.0
330,79.0,0,90,1.0,0.0
331,49.0,48,90,6.0,0.0
332,64.0,0,90,3.0,0.0
333,69.0,0,40,5.0,0.0
334,57.0,0,90,8.0,0.0
335,69.0,0,90,2.0,0.0
336,49.0,0,90,4.0,0.0
337,79.0,0,40,5.0,0.0
338,76.0,0,40,7.0,0.0
339,74.0,0,40,7.0,0.0
340,77.0,48,40,5.0,0.0
341,45.0,0,90,8.0,0.0
342,57.0,0,90,6.0,0.0
343,76.0,48,40,5.0,0.0
344,73.0,0,40,7.0,0.0
345,53.0,0,90,8.0,0.0
346,50.0,48,90,6.0,0.0
347,77.0,0,40,5.0,0.0
348,74.0,48,40,7.0,0.0
349,69.0,0,40,7.0,0.0
350,74.0,0,40,5.0,0.0
351,77.0,0,40,5.0,0.0
352,77.0,0,90,1.0,0.0
353,69.0,48,90,2.0,0.0
354,48.0,0,90,6.0,0.0
355,48.0,0,90,4.0,0.0
356,62.0,0,90,3.0,0.0
357,50.0,0,90,8.0,0.0
358,74.0,48,40,7.0,0.0
359,65.0,0,40,7.0,0.0
360,69.0,0,40,5.0,0.0
361,67.0,48,40,5.0,0.0
362,62.0,0,90,3.0,0.0
363,55.0,48,90,8.0,0.0
364,62.0,0,40,7.0,0.0
365,77.0,0,90,1.0,0.0
366,67.0,0,90,2.0,0.0
367,47.0,0,90,6.0,0.0
368,47.0,0,90,4.0,0.0
369,77.0,0,40,5.0,0.0
370,74.0,0,40,7.0,0.0
371,76.0,48,40,5.0,0.0
372,72.0,0,40,7.0,0.0
373,43.0,0,90,8.0,0.0
374,55.0,0,90,6.0,0.0
375,74.0,48,40,5.0,0.0
376,71.0,0,40,7.0,0.0
377,52.0,0,90,8.0,0.0
378,48.0,48,90,6.0,0.0
379,72.0,0,40,7.0,0.0
380,76.0,48,40,5.0,0.0
381,67.0,0,40,7.0,0.0
382,72.0,0,40,5.0,0.0
383,72.0,0,40,7.0,0.0
384,60.0,0,90,3.0,0.0
385,67.0,0,90,2.0,0.0
386,76.0,0,90,1.0,0.0
387,47.0,0,90,6.0,0.0
388,48.0,0,90,4.0,0.0
389,48.0,48,90,8.0,0.0
390,76.0,48,40,5.0,0.0
391,67.0,0,40,5.0,0.0
392,64.0,0,40,7.0,0.0
393,76.0,0,90,1.0,0.0
394,45.0,0,90,6.0,0.0
395,65.0,0,40,5.0,0.0
396,53.0,48,90,8.0,0.0
397,69.0,0,90,2.0,0.0
398,53.0,0,90,4.0,0.0
399,60.0,0,90,3.0,0.0
400,69.0,48,40,7.0,0.0
401,76.0,0,40,5.0,0.0
402,67.0,0,40,7.0,0.0
403,41.0,48,90,4.0,0.0
404,74.0,0,40,5.0,0.0
405,69.0,0,90,2.0,0.0
406,53.0,0,90,6.0,0.0
407,41.0,0,90,8.0,0.0
408,65.0,0,90,3.0,0.0
409,65.0,48,40,7.0,0.0
410,74.0,0,40,1.0,0.0
411,64.0,0,40,7.0,0.0
412,72.0,0,40,5.0,0.0
413,72.0,0,40,1.0,0.0
414,67.0,16,720,2.0,0.0
415,43.0,0,2940,4.0,0.0
416,71.0,48,40,5.0,0.0
417,71.0,46,330,1.0,0.0
418,43.0,0,90,8.0,0.0
419,62.0,48,90,7.0,0.0
420,62.0,0,330,3.0,0.0
421,55.0,0,90,6.0,0.0
422,67.0,0,40,5.0,0.0
423,74.0,48,40,5.0,0.0
424,77.0,48,90,7.0,0.0
425,55.0,0,90,8.0,0.0
426,43.0,0,90,6.0,0.0
427,71.0,0,40,5.0,0.0
428,77.0,48,40,5.0,0.0
429,55.0,0,90,8.0,0.0
430,74.0,0,40,5.0,0.0
431,77.0,48,40,7.0,0.0
432,43.0,48,90,8.0,0.0
433,76.0,2,40,7.0,0.0
434,72.0,0,40,5.0,0.0
435,55.0,0,90,6.0,0.0
436,74.0,0,40,7.0,0.0
437,71.0,0,40,5.0,0.0
438,55.0,0,90,6.0,0.0
439,72.0,48,40,5.0,0.0
440,72.0,0,330,1.0,0.0
441,60.0,30,150,3.0,0.0
442,76.0,48,90,7.0,0.0
443,67.0,0,40,5.0,0.0
444,76.0,18,40,5.0,0.0
445,55.0,0,90,8.0,0.0
446,79.0,48,90,7.0,0.0
447,43.0,0,90,6.0,0.0
448,72.0,0,40,5.0,0.0
449,64.0,30,150,3.0,0.0
450,79.0,48,40,5.0,0.0
451,55.0,48,90,8.0,0.0
452,79.0,0,40,7.0,0.0
453,76.0,0,40,5.0,0.0
454,74.0,2,40,5.0,0.0
455,55.0,0,90,6.0,0.0
456,77.0,0,40,7.0,0.0
457,43.0,0,90,8.0,0.0
458,72.0,48,40,5.0,0.0
459,76.0,0,40,7.0,0.0
460,55.0,0,90,6.0,0.0
461,71.0,0,330,2.0,0.0
462,62.0,46,330,3.0,0.0
463,77.0,48,90,7.0,0.0
464,74.0,48,40,5.0,0.0
465,74.0,0,330,1.0,0.0
466,71.0,0,40,5.0,0.0
467,81.0,0,90,7.0,0.0
468,62.0,48,90,8.0,0.0
469,43.0,0,90,6.0,0.0
470,77.0,48,40,5.0,0.0
471,74.0,0,40,5.0,0.0
472,81.0,48,40,5.0,0.0
473,60.0,48,90,8.0,0.0
474,77.0,0,40,5.0,0.0
475,81.0,0,40,7.0,0.0
476,55.0,48,90,6.0,0.0
477,79.0,0,40,7.0,0.0
478,59.0,0,90,8.0,0.0
479,76.0,2,40,5.0,0.0
480,77.0,0,40,7.0,0.0
481,74.0,0,40,5.0,0.0
482,67.0,0,330,2.0,0.0
483,76.0,0,40,7.0,0.0
484,76.0,48,40,5.0,0.0
485,60.0,0,40,6.0,0.0
486,60.0,0,40,8.0,0.0
487,60.0,30,150,3.0,0.0
488,76.0,16,330,1.0,0.0
489,55.0,0,40,8.0,0.0
490,79.0,0,40,7.0,0.0
491,64.0,0,40,6.0,0.0
492,72.0,48,40,5.0,0.0
493,72.0,0,40,7.0,0.0
494,52.0,18,40,8.0,0.0
495,79.0,0,40,5.0,0.0
496,55.0,0,40,6.0,0.0
497,76.0,0,40,5.0,0.0
498,53.0,0,40,8.0,0.0
499,76.0,0,40,7.0,0.0
500,60.0,48,40,6.0,0.0
501,84.0,48,40,5.0,0.0
502,48.0,0,90,8.0,0.0
503,72.0,30,150,3.0,0.0
504,67.0,0,40,7.0,0.0
505,52.0,0,90,6.0,0.0
506,76.0,48,40,7.0,0.0
507,79.0,0,40,5.0,0.0
508,74.0,0,40,7.0,0.0
509,77.0,2,40,5.0,0.0
510,57.0,0,90,6.0,0.0
511,53.0,48,90,8.0,0.0
512,72.0,0,40,7.0,0.0
513,76.0,0,40,5.0,0.0
514,62.0,0,90,6.0,0.0
515,71.0,30,1410,3.0,0.0
516,71.0,48,40,7.0,0.0
517,77.0,0,40,5.0,0.0
518,77.0,0,1410,1.0,0.0
519,55.0,0,90,8.0,0.0
520,74.0,0,1410,2.0,0.0
521,74.0,0,40,5.0,0.0
522,77.0,48,40,7.0,0.0
523,57.0,0,90,8.0,0.0
524,77.0,48,40,5.0,0.0
525,69.0,0,40,7.0,0.0
526,77.0,0,40,7.0,0.0
527,72.0,48,40,5.0,0.0
528,67.0,0,40,7.0,0.0
529,59.0,0,90,8.0,0.0
530,62.0,0,90,6.0,0.0
531,77.0,48,40,5.0,0.0
532,71.0,0,40,5.0,0.0
533,77.0,48,40,7.0,0.0
534,77.0,48,40,5.0,0.0
535,60.0,0,90,8.0,0.0
536,69.0,0,40,7.0,0.0
537,60.0,0,90,6.0,0.0
538,69.0,0,40,5.0,0.0
539,77.0,48,40,7.0,0.0
540,62.0,0,90,8.0,0.0
541,77.0,48,40,5.0,0.0
542,71.0,0,40,7.0,0.0
543,59.0,0,90,6.0,0.0
544,67.0,48,40,5.0,0.0
545,77.0,0,40,7.0,0.0
546,60.0,0,90,8.0,0.0
547,77.0,48,40,5.0,0.0
548,57.0,0,90,6.0,0.0
549,72.0,0,40,7.0,0.0
550,77.0,48,40,7.0,0.0
551,69.0,0,40,5.0,0.0
552,77.0,48,40,5.0,0.0
553,59.0,0,90,8.0,0.0
554,74.0,0,40,7.0,0.0
555,55.0,0,90,6.0,0.0
556,71.0,0,40,5.0,0.0
557,77.0,48,40,7.0,0.0
558,57.0,0,90,6.0,0.0
559,72.0,0,40,7.0,0.0
560,57.0,0,90,8.0,0.0
561,77.0,48,40,5.0,0.0
562,77.0,48,40,7.0,0.0
563,72.0,0,40,5.0,0.0
564,55.0,0,90,8.0,0.0
565,71.0,0,40,7.0,0.0
566,77.0,48,40,5.0,0.0
567,59.0,0,90,6.0,0.0
568,77.0,48,40,7.0,0.0
569,74.0,0,40,5.0,0.0
570,60.0,48,90,6.0,0.0
571,69.0,0,40,7.0,0.0
572,77.0,48,40,5.0,0.0
573,57.0,0,90,8.0,0.0
574,72.0,0,40,5.0,0.0
575,77.0,0,40,7.0,0.0
576,77.0,0,40,5.0,0.0
577,59.0,0,90,8.0,0.0
578,67.0,48,40,7.0,0.0
579,62.0,0,90,6.0,0.0
580,71.0,0,40,5.0,0.0
581,77.0,48,40,7.0,0.0
582,69.0,48,40,7.0,0.0
583,77.0,0,40,5.0,0.0
584,60.0,0,90,8.0,0.0
585,60.0,48,90,6.0,0.0
586,69.0,0,40,5.0,0.0
587,77.0,0,40,7.0,0.0
588,62.0,0,90,8.0,0.0
589,59.0,0,90,6.0,0.0
590,71.0,0,40,7.0,0.0
591,77.0,48,40,5.0,0.0
592,67.0,0,40,5.0,0.0
593,77.0,48,40,7.0,0.0
594,72.0,48,40,7.0,0.0
595,60.0,0,90,8.0,0.0
596,77.0,0,40,5.0,0.0
597,57.0,0,90,6.0,0.0
598,69.0,0,40,5.0,0.0
599,77.0,48,40,7.0,0.0
600,74.0,0,40,7.0,0.0
601,59.0,34,90,8.0,0.0
602,77.0,18,40,5.0,0.0
603,55.0,0,90,6.0,0.0
604,77.0,0,40,7.0,0.0
605,71.0,0,40,5.0,0.0
606,74.0,0,90,2.0,0.0
607,47.0,0,90,4.0,0.0
608,79.0,0,90,5.0,0.0
609,79.0,0,90,1.0,0.0
610,67.0,0,90,3.0,0.0
611,55.0,96,90,8.0,0.0
612,79.0,62,30,7.0,0.0
613,59.0,0,90,6.0,0.0
614,60.0,0,90,8.0,0.0
615,48.0,0,90,4.0,0.0
616,76.0,0,90,5.0,0.0
617,76.0,0,90,1.0,0.0
618,76.0,0,90,7.0,0.0
619,72.0,0,90,2.0,0.0
620,60.0,0,90,6.0,0.0
621,67.0,48,90,3.0,0.0
622,74.0,0,40,1.0,0.0
623,57.0,0,90,6.0,0.0
624,69.0,0,90,3.0,0.0
625,64.0,0,90,5.0,0.0
626,74.0,48,40,7.0,0.0
627,57.0,0,90,8.0,0.0
628,64.0,0,90,8.0,0.0
629,69.0,0,90,5.0,0.0
630,69.0,0,90,8.0,0.0
631,45.0,0,90,4.0,0.0
632,64.0,0,90,2.0,0.0
633,74.0,0,40,5.0,0.0
634,72.0,0,40,5.0,0.0
635,72.0,0,40,7.0,0.0
636,72.0,48,40,1.0,0.0
637,65.0,0,90,2.0,0.0
638,76.0,48,40,7.0,0.0
639,76.0,0,40,5.0,0.0
640,69.0,0,90,5.0,0.0
641,69.0,0,90,3.0,0.0
642,41.0,48,90,4.0,0.0
643,53.0,0,90,8.0,0.0
644,69.0,0,90,8.0,0.0
645,76.0,0,40,1.0,0.0
646,53.0,0,90,6.0,0.0
647,65.0,0,90,5.0,0.0
648,65.0,0,90,8.0,0.0
649,74.0,0,40,7.0,0.0
650,74.0,0,40,1.0,0.0
651,74.0,0,40,5.0,0.0
652,55.0,0,90,8.0,0.0
653,67.0,0,90,3.0,0.0
654,67.0,0,90,8.0,0.0
655,72.0,48,40,5.0,0.0
656,62.0,0,90,2.0,0.0
657,55.0,48,90,6.0,0.0
658,62.0,0,90,5.0,0.0
659,62.0,0,90,8.0,0.0
660,72.0,0,40,7.0,0.0
661,67.0,0,90,5.0,0.0
662,43.0,0,90,4.0,0.0
663,72.0,0,40,1.0,0.0
664,71.0,0,40,1.0,0.0
665,71.0,0,40,5.0,0.0
666,71.0,0,40,7.0,0.0
667,48.0,0,90,8.0,0.0
668,64.0,0,90,7.0,0.0
669,67.0,0,90,7.0,0.0
670,72.0,0,90,7.0,0.0
671,72.0,0,90,5.0,0.0
672,67.0,0,90,5.0,0.0
673,64.0,0,90,2.0,0.0
674,64.0,0,90,5.0,0.0
675,72.0,0,90,1.0,0.0
676,67.0,0,90,3.0,0.0
677,36.0,0,90,4.0,0.0
678,48.0,48,40,6.0,0.0
679,60.0,48,40,6.0,0.0
680,47.0,48,40,8.0,0.0
681,59.0,0,40,6.0,0.0
682,45.0,0,40,8.0,0.0
683,57.0,48,40,6.0,0.0
684,55.0,48,40,6.0,0.0
685,43.0,0,40,8.0,0.0
686,41.0,0,40,8.0,0.0
687,53.0,48,40,6.0,0.0
688,60.0,0,90,5.0,0.0
689,52.0,48,40,6.0,0.0
690,64.0,0,90,5.0,0.0
691,67.0,0,90,5.0,0.0
692,40.0,0,40,8.0,0.0
693,38.0,48,40,8.0,0.0
694,50.0,0,40,6.0,0.0
695,48.0,48,40,6.0,0.0
696,60.0,0,90,5.0,0.0
697,64.0,0,90,5.0,0.0
698,67.0,0,90,5.0,0.0
699,36.0,48,90,8.0,0.0
700,60.0,0,40,6.0,0.0
701,59.0,0,40,6.0,0.0
702,60.0,0,40,5.0,0.0
703,64.0,48,40,5.0,0.0
704,65.0,0,40,5.0,0.0
705,62.0,0,40,5.0,0.0
706,57.0,48,40,6.0,0.0
707,64.0,0,90,5.0,0.0
708,67.0,0,90,5.0,0.0
709,55.0,48,40,6.0,0.0
710,53.0,48,40,6.0,0.0
711,69.0,0,40,5.0,0.0
712,52.0,48,40,6.0,0.0
713,60.0,0,40,5.0,0.0
714,50.0,0,40,6.0,0.0
715,71.0,96,40,5.0,0.0
716,62.0,0,40,5.0,0.0
717,72.0,0,90,5.0,0.0
718,64.0,48,90,5.0,0.0
719,48.0,0,90,6.0,0.0
720,60.0,0,40,8.0,0.0
721,47.0,0,40,6.0,0.0
722,65.0,0,40,5.0,0.0
723,59.0,0,40,8.0,0.0
724,74.0,48,40,5.0,0.0
725,45.0,48,40,6.0,0.0
726,57.0,0,40,8.0,0.0
727,62.0,0,40,5.0,0.0
728,71.0,0,40,5.0,0.0
729,55.0,0,40,8.0,0.0
730,72.0,0,90,5.0,0.0
731,64.0,0,90,5.0,0.0
732,43.0,48,40,6.0,0.0
733,41.0,48,40,6.0,0.0
734,53.0,0,40,8.0,0.0
735,67.0,0,90,7.0,0.0
736,40.0,0,40,6.0,0.0
737,52.0,48,40,8.0,0.0
738,64.0,0,90,7.0,0.0
739,60.0,0,90,7.0,0.0
740,50.0,48,40,8.0,0.0
741,38.0,0,40,6.0,0.0
742,48.0,48,40,8.0,0.0
743,60.0,0,90,7.0,0.0
744,36.0,0,90,6.0,0.0
745,64.0,0,90,7.0,0.0
746,67.0,48,90,7.0,0.0
747,60.0,0,40,8.0,0.0
748,64.0,0,40,7.0,0.0
749,59.0,48,40,8.0,0.0
750,60.0,0,40,7.0,0.0
751,62.0,48,40,7.0,0.0
752,65.0,0,40,7.0,0.0
753,57.0,0,40,8.0,0.0
754,64.0,48,90,7.0,0.0
755,55.0,48,40,8.0,0.0
756,67.0,0,90,7.0,0.0
757,53.0,0,40,8.0,0.0
758,52.0,0,40,8.0,0.0
759,60.0,48,40,7.0,0.0
760,69.0,0,40,7.0,0.0
761,62.0,0,40,7.0,0.0
762,71.0,0,40,7.0,0.0
763,50.0,96,40,8.0,0.0
764,48.0,0,90,8.0,0.0
765,64.0,0,90,7.0,0.0
766,72.0,0,90,7.0,0.0
767,72.0,48,40,5.0,0.0
768,65.0,0,40,7.0,0.0
769,74.0,0,40,7.0,0.0
770,71.0,0,40,5.0,0.0
771,47.0,48,40,8.0,0.0
772,45.0,0,40,8.0,0.0
773,62.0,48,40,7.0,0.0
774,71.0,0,40,7.0,0.0
775,69.0,0,40,5.0,0.0
776,67.0,0,40,5.0,0.0
777,64.0,0,90,7.0,0.0
778,72.0,48,90,7.0,0.0
779,43.0,48,40,8.0,0.0
780,41.0,0,40,8.0,0.0
781,65.0,0,40,5.0,0.0
782,64.0,0,40,5.0,0.0
783,72.0,0,90,5.0,0.0
784,76.0,0,90,5.0,0.0
785,67.0,0,90,5.0,0.0
786,40.0,48,40,8.0,0.0
787,62.0,0,40,5.0,0.0
788,38.0,48,40,8.0,0.0
789,76.0,0,90,5.0,0.0
790,72.0,0,90,5.0,0.0
791,67.0,0,90,5.0,0.0
792,60.0,48,40,6.0,0.0
793,36.0,48,90,8.0,0.0
794,62.0,0,40,6.0,0.0
795,64.0,0,40,6.0,0.0
796,72.0,48,40,5.0,0.0
797,74.0,48,40,5.0,0.0
798,62.0,0,40,6.0,0.0
799,76.0,48,90,5.0,0.0
800,60.0,48,40,6.0,0.0
801,59.0,0,40,6.0,0.0
802,78.0,0,40,5.0,0.0
803,57.0,48,40,6.0,0.0
804,79.0,0,40,5.0,0.0
805,55.0,48,40,6.0,0.0
806,81.0,48,90,5.0,0.0
807,54.0,48,40,6.0,0.0
808,60.0,0,40,6.0,0.0
809,83.0,48,40,5.0,0.0
810,52.0,0,40,6.0,0.0
811,79.0,48,40,5.0,0.0
812,60.0,0,40,6.0,0.0
813,81.0,48,90,5.0,0.0
814,54.0,48,40,6.0,0.0
815,60.0,0,40,6.0,0.0
816,50.0,48,40,6.0,0.0
817,66.0,0,90,5.0,0.0
818,69.0,0,90,5.0,0.0
819,74.0,48,90,5.0,0.0
820,60.0,0,40,6.0,0.0
821,59.0,48,40,6.0,0.0
822,71.0,0,90,5.0,0.0
823,74.0,48,90,5.0,0.0
824,67.0,0,90,5.0,0.0
825,60.0,0,40,6.0,0.0
826,62.0,0,40,6.0,0.0
827,71.0,48,40,5.0,0.0
828,60.0,0,40,6.0,0.0
829,72.0,48,40,5.0,0.0
830,59.0,48,40,6.0,0.0
831,74.0,48,90,5.0,0.0
832,57.0,0,40,6.0,0.0
833,76.0,0,40,5.0,0.0
834,55.0,48,40,6.0,0.0
835,54.0,0,40,6.0,0.0
836,78.0,48,40,5.0,0.0
837,79.0,0,90,5.0,0.0
838,52.0,48,40,6.0,0.0
839,59.0,48,40,6.0,0.0
840,81.0,48,40,5.0,0.0
841,50.0,0,40,6.0,0.0
842,78.0,0,40,5.0,0.0
843,59.0,48,40,6.0,0.0
844,79.0,0,90,5.0,0.0
845,52.0,48,40,6.0,0.0
846,59.0,48,40,6.0,0.0
847,67.0,0,90,5.0,0.0
848,72.0,0,90,5.0,0.0
849,64.0,0,90,5.0,0.0
850,48.0,48,40,6.0,0.0
851,59.0,48,40,6.0,0.0
852,57.0,48,40,6.0,0.0
853,64.0,0,90,5.0,0.0
854,69.0,0,90,5.0,0.0
855,72.0,0,90,5.0,0.0
856,59.0,48,40,6.0,0.0
857,69.0,48,40,5.0,0.0
858,60.0,0,40,6.0,0.0
859,59.0,0,40,6.0,0.0
860,71.0,48,40,5.0,0.0
861,57.0,48,40,6.0,0.0
862,72.0,48,90,5.0,0.0
863,60.0,0,40,6.0,0.0
864,76.0,0,90,5.0,0.0
865,55.0,48,40,6.0,0.0
866,60.0,48,40,6.0,0.0
867,72.0,48,90,5.0,0.0
868,54.0,48,40,6.0,0.0
869,55.0,0,40,6.0,0.0
870,69.0,0,40,5.0,0.0
871,57.0,48,40,6.0,0.0
872,55.0,0,40,6.0,0.0
873,71.0,48,40,5.0,0.0
874,72.0,0,90,5.0,0.0
875,54.0,48,40,6.0,0.0
876,57.0,48,40,6.0,0.0
877,50.0,48,40,6.0,0.0
878,78.0,0,90,5.0,0.0
879,57.0,48,40,6.0,0.0
880,45.0,48,40,6.0,0.0
881,72.0,48,90,5.0,0.0
882,47.0,0,40,6.0,0.0
883,48.0,0,40,6.0,0.0
884,69.0,48,40,5.0,0.0
885,47.0,48,40,6.0,0.0
886,71.0,0,40,5.0,0.0
887,72.0,0,90,5.0,0.0
888,45.0,48,40,6.0,0.0
889,48.0,48,40,6.0,0.0
890,79.0,0,90,5.0,0.0
891,43.0,48,40,6.0,0.0
892,48.0,48,40,6.0,0.0
893,42.0,48,40,6.0,0.0
894,72.0,48,90,5.0,0.0
895,43.0,0,40,6.0,0.0
896,69.0,0,40,5.0,0.0
897,45.0,48,40,6.0,0.0
898,43.0,0,40,6.0,0.0
899,71.0,48,40,5.0,0.0
900,42.0,48,40,6.0,0.0
901,72.0,48,90,5.0,0.0
902,45.0,0,40,6.0,0.0
903,38.0,48,40,6.0,0.0
904,81.0,48,90,5.0,0.0
905,42.0,0,40,6.0,0.0
906,83.0,48,40,5.0,0.0
907,43.0,48,90,6.0,0.0
908,81.0,0,40,5.0,0.0
909,47.0,0,90,6.0,0.0
910,79.0,48,40,5.0,0.0
911,83.0,48,40,5.0,0.0
912,81.0,48,40,5.0,0.0
913,48.0,0,90,6.0,0.0
914,79.0,48,40,5.0,0.0
915,50.0,0,90,6.0,0.0
916,78.0,48,40,5.0,0.0
917,81.0,48,40,5.0,0.0
918,52.0,48,90,6.0,0.0
919,79.0,48,40,5.0,0.0
920,81.0,0,40,5.0,0.0
921,55.0,0,90,6.0,0.0
922,79.0,48,40,5.0,0.0
923,77.0,48,40,5.0,0.0
924,57.0,48,90,6.0,0.0
925,76.0,48,40,5.0,0.0
926,74.0,0,40,5.0,0.0
927,59.0,0,90,6.0,0.0
928,72.0,48,40,5.0,0.0
929,71.0,48,40,5.0,0.0
930,60.0,48,90,6.0,0.0
931,76.0,48,40,5.0,0.0
932,77.0,0,40,5.0,0.0
933,76.0,48,40,5.0,0.0
934,62.0,48,90,6.0,0.0
935,74.0,0,40,5.0,0.0
936,64.0,0,90,6.0,0.0
937,72.0,48,40,5.0,0.0
938,71.0,48,40,5.0,0.0
939,69.0,48,40,5.0,0.0
940,60.0,0,90,6.0,0.0
941,67.0,48,40,5.0,0.0
942,66.0,48,40,5.0,0.0
943,62.0,0,90,6.0,0.0
944,62.0,48,40,5.0,0.0
945,64.0,48,40,5.0,0.0
946,60.0,48,90,6.0,0.0
947,66.0,0,40,5.0,0.0
948,67.0,48,40,5.0,0.0
949,59.0,48,90,6.0,0.0
950,69.0,0,40,5.0,0.0
951,57.0,0,90,6.0,0.0
952,71.0,48,40,5.0,0.0
953,72.0,96,40,5.0,0.0
954,59.0,0,90,6.0,0.0
955,55.0,30,150,4.0,0.0
956,67.0,18,150,1.0,0.0
957,59.0,0,150,3.0,0.0
958,62.0,0,90,2.0,0.0
959,74.0,48,90,5.0,0.0
960,67.0,0,90,6.0,0.0
961,62.0,24,90,6.0,0.0
962,55.0,0,90,6.0,0.0
963,67.0,6,150,2.0,0.0
964,72.0,0,40,5.0,0.0
965,69.0,0,40,1.0,0.0
966,71.0,0,40,5.0,0.0
967,62.0,6,150,3.0,0.0
968,71.0,24,20,1.0,0.0
969,62.0,0,90,6.0,0.0
970,50.0,0,150,4.0,0.0
971,72.0,18,40,5.0,0.0
972,67.0,0,90,6.0,0.0
973,69.0,0,20,1.0,0.0
974,71.0,24,20,1.0,0.0
975,71.0,24,40,5.0,0.0
976,69.0,0,20,1.0,0.0
977,71.0,24,20,1.0,0.0
978,69.0,18,40,5.0,0.0
979,66.0,96,90,6.0,0.0
980,66.0,0,90,2.0,0.0
981,50.0,0,90,6.0,0.0
982,60.0,0,90,6.0,0.0
983,69.0,0,20,1.0,0.0
984,67.0,24,20,1.0,0.0
985,72.0,0,40,5.0,0.0
986,69.0,0,20,1.0,0.0
987,62.0,0,90,5.0,0.0
988,59.0,0,90,5.0,0.0
989,67.0,0,90,5.0,0.0
990,62.0,0,90,3.0,0.0
991,71.0,0,90,1.0,0.0
992,43.0,0,90,4.0,0.0
993,67.0,48,90,2.0,0.0
994,55.0,0,90,6.0,0.0
995,50.0,0,40,8.0,0.0
996,52.0,48,40,8.0,0.0
997,54.0,48,40,8.0,0.0
998,55.0,48,40,8.0,0.0
999,57.0,48,40,8.0,0.0
1000,59.0,48,40,8.0,0.0
1001,71.0,0,90,7.0,0.0
1002,74.0,48,90,7.0,0.0
1003,67.0,0,90,7.0,0.0
1004,55.0,0,40,8.0,0.0
1005,72.0,0,90,7.0,0.0
1006,67.0,0,90,7.0,0.0
1007,60.0,48,40,8.0,0.0
1008,76.0,0,90,7.0,0.0
1009,62.0,48,40,8.0,0.0
1010,72.0,0,40,7.0,0.0
1011,64.0,48,40,8.0,0.0
1012,62.0,0,40,8.0,0.0
1013,74.0,48,40,7.0,0.0
1014,76.0,48,90,7.0,0.0
1015,60.0,48,40,8.0,0.0
1016,59.0,0,40,8.0,0.0
1017,57.0,0,40,8.0,0.0
1018,78.0,48,40,7.0,0.0
1019,55.0,48,40,8.0,0.0
1020,79.0,0,40,7.0,0.0
1021,54.0,48,40,8.0,0.0
1022,81.0,48,90,7.0,0.0
1023,60.0,0,40,8.0,0.0
1024,83.0,48,40,7.0,0.0
1025,52.0,0,40,8.0,0.0
1026,60.0,0,40,8.0,0.0
1027,79.0,48,40,7.0,0.0
1028,81.0,0,90,7.0,0.0
1029,54.0,48,40,8.0,0.0
1030,60.0,48,40,8.0,0.0
1031,50.0,48,40,8.0,0.0
1032,74.0,0,90,7.0,0.0
1033,69.0,0,90,7.0,0.0
1034,66.0,0,90,7.0,0.0
1035,60.0,48,40,8.0,0.0
1036,67.0,0,90,7.0,0.0
1037,71.0,48,90,7.0,0.0
1038,74.0,0,90,7.0,0.0
1039,59.0,48,40,8.0,0.0
1040,60.0,0,40,8.0,0.0
1041,71.0,48,40,7.0,0.0
1042,62.0,0,40,8.0,0.0
1043,72.0,0,40,7.0,0.0
1044,60.0,48,40,8.0,0.0
1045,74.0,48,90,7.0,0.0
1046,59.0,48,40,8.0,0.0
1047,57.0,0,40,8.0,0.0
1048,55.0,0,40,8.0,0.0
1049,76.0,48,40,7.0,0.0
1050,78.0,48,40,7.0,0.0
1051,54.0,0,40,8.0,0.0
1052,52.0,48,40,8.0,0.0
1053,79.0,48,90,7.0,0.0
1054,59.0,0,40,8.0,0.0
1055,50.0,48,40,8.0,0.0
1056,81.0,0,40,7.0,0.0
1057,78.0,48,40,7.0,0.0
1058,59.0,0,40,8.0,0.0
1059,79.0,0,90,7.0,0.0
1060,52.0,48,40,8.0,0.0
1061,59.0,48,40,8.0,0.0
1062,64.0,48,90,7.0,0.0
1063,72.0,0,90,7.0,0.0
1064,67.0,0,90,7.0,0.0
1065,48.0,48,40,8.0,0.0
1066,59.0,0,40,8.0,0.0
1067,72.0,48,90,7.0,0.0
1068,57.0,48,40,8.0,0.0
1069,69.0,0,90,7.0,0.0
1070,64.0,0,90,7.0,0.0
1071,59.0,0,40,8.0,0.0
1072,69.0,48,40,7.0,0.0
1073,60.0,0,40,8.0,0.0
1074,71.0,48,40,7.0,0.0
1075,59.0,0,40,8.0,0.0
1076,72.0,0,90,7.0,0.0
1077,57.0,48,40,8.0,0.0
1078,60.0,48,40,8.0,0.0
1079,55.0,48,40,8.0,0.0
1080,76.0,48,90,7.0,0.0
1081,60.0,0,40,8.0,0.0
1082,54.0,48,40,8.0,0.0
1083,72.0,48,90,7.0,0.0
1084,55.0,0,40,8.0,0.0
1085,57.0,0,40,8.0,0.0
1086,69.0,48,40,7.0,0.0
1087,55.0,0,40,8.0,0.0
1088,71.0,48,40,7.0,0.0
1089,54.0,48,40,8.0,0.0
1090,72.0,48,90,7.0,0.0
1091,57.0,0,40,8.0,0.0
1092,50.0,48,40,8.0,0.0
1093,78.0,48,90,7.0,0.0
1094,57.0,0,40,8.0,0.0
1095,72.0,48,90,7.0,0.0
1096,45.0,48,40,8.0,0.0
1097,47.0,0,40,8.0,0.0
1098,69.0,0,40,7.0,0.0
1099,48.0,48,40,8.0,0.0
1100,71.0,48,40,7.0,0.0
1101,47.0,0,40,8.0,0.0
1102,72.0,48,90,7.0,0.0
1103,45.0,48,40,8.0,0.0
1104,48.0,0,40,8.0,0.0
1105,43.0,48,40,8.0,0.0
1106,79.0,48,90,7.0,0.0
1107,48.0,0,40,8.0,0.0
1108,42.0,48,40,8.0,0.0
1109,72.0,0,90,7.0,0.0
1110,43.0,48,40,8.0,0.0
1111,45.0,0,40,8.0,0.0
1112,69.0,48,40,7.0,0.0
1113,43.0,48,40,8.0,0.0
1114,71.0,0,40,7.0,0.0
1115,72.0,0,90,7.0,0.0
1116,42.0,48,40,8.0,0.0
1117,45.0,48,40,8.0,0.0
1118,81.0,0,90,7.0,0.0
1119,38.0,48,40,8.0,0.0
1120,42.0,48,40,8.0,0.0
1121,83.0,48,40,7.0,0.0
1122,43.0,48,90,8.0,0.0
1123,81.0,0,40,7.0,0.0
1124,47.0,48,90,8.0,0.0
1125,79.0,48,40,7.0,0.0
1126,83.0,0,40,7.0,0.0
1127,81.0,48,40,7.0,0.0
1128,48.0,48,90,8.0,0.0
1129,79.0,0,40,7.0,0.0
1130,78.0,48,40,7.0,0.0
1131,50.0,0,90,8.0,0.0
1132,81.0,48,40,7.0,0.0
1133,79.0,48,40,7.0,0.0
1134,52.0,0,90,8.0,0.0
1135,81.0,48,40,7.0,0.0
1136,79.0,48,40,7.0,0.0
1137,55.0,0,90,8.0,0.0
1138,77.0,48,40,7.0,0.0
1139,76.0,48,40,7.0,0.0
1140,57.0,0,90,8.0,0.0
1141,74.0,48,40,7.0,0.0
1142,59.0,48,90,8.0,0.0
1143,72.0,48,40,7.0,0.0
1144,71.0,0,40,7.0,0.0
1145,60.0,0,90,8.0,0.0
1146,76.0,48,40,7.0,0.0
1147,77.0,48,40,7.0,0.0
1148,76.0,48,40,7.0,0.0
1149,62.0,0,90,8.0,0.0
1150,74.0,48,40,7.0,0.0
1151,72.0,48,40,7.0,0.0
1152,64.0,48,90,8.0,0.0
1153,71.0,0,40,7.0,0.0
1154,69.0,48,40,7.0,0.0
1155,60.0,0,90,8.0,0.0
1156,67.0,48,40,7.0,0.0
1157,62.0,48,90,8.0,0.0
1158,66.0,48,40,7.0,0.0
1159,62.0,0,40,7.0,0.0
1160,64.0,48,40,7.0,0.0
1161,60.0,0,90,8.0,0.0
1162,66.0,48,40,7.0,0.0
1163,67.0,48,40,7.0,0.0
1164,59.0,48,90,8.0,0.0
1165,69.0,0,40,7.0,0.0
1166,71.0,48,40,7.0,0.0
1167,57.0,96,90,8.0,0.0
1168,72.0,0,40,7.0,0.0
1169,59.0,48,90,3.0,0.0
1170,79.0,0,150,1.0,0.0
1171,74.0,0,90,7.0,0.0
1172,55.0,30,150,4.0,0.0
1173,59.0,0,90,8.0,0.0
1174,74.0,0,150,2.0,0.0
1175,67.0,24,90,7.0,0.0
1176,62.0,0,90,7.0,0.0
1177,55.0,0,90,8.0,0.0
1178,72.0,18,40,7.0,0.0
1179,67.0,6,150,3.0,0.0
1180,81.0,0,40,1.0,0.0
1181,71.0,0,40,7.0,0.0
1182,50.0,6,150,4.0,0.0
1183,83.0,24,20,1.0,0.0
1184,74.0,0,150,2.0,0.0
1185,62.0,0,90,8.0,0.0
1186,62.0,0,90,7.0,0.0
1187,67.0,0,90,7.0,0.0
1188,72.0,18,40,7.0,0.0
1189,81.0,0,20,1.0,0.0
1190,83.0,24,20,1.0,0.0
1191,71.0,24,40,7.0,0.0
1192,81.0,0,20,1.0,0.0
1193,66.0,0,90,7.0,0.0
1194,60.0,0,90,7.0,0.0
1195,69.0,18,40,7.0,0.0
1196,50.0,0,90,8.0,0.0
1197,66.0,0,90,3.0,0.0
1198,83.0,24,20,1.0,0.0
1199,81.0,0,20,1.0,0.0
1200,79.0,24,20,1.0,0.0
1201,71.0,0,40,7.0,0.0
1202,81.0,96,20,1.0,0.0
1203,74.0,0,90,2.0,0.0
1204,67.0,0,90,3.0,0.0
1205,55.0,0,90,8.0,0.0
1206,43.0,0,90,4.0,0.0
1207,83.0,0,90,1.0,0.0
1208,59.0,48,90,7.0,0.0
1209,62.0,0,90,7.0,0.0
1210,67.0,0,90,7.0,0.0
1211,43.0,0,90,6.0,0.0
1212,71.0,18,150,5.0,0.0
1213,67.0,0,150,5.0,0.0
1214,62.0,30,150,5.0,0.0
1215,55.0,24,90,6.0,0.0
1216,72.0,0,40,5.0,0.0
1217,67.0,6,150,5.0,0.0
1218,74.0,24,20,5.0,0.0
1219,60.0,0,90,6.0,0.0
1220,52.0,24,90,6.0,0.0
1221,55.0,0,90,6.0,0.0
1222,72.0,24,20,5.0,0.0
1223,74.0,24,20,5.0,0.0
1224,72.0,0,20,5.0,0.0
1225,74.0,24,20,5.0,0.0
1226,52.0,0,90,6.0,0.0
1227,55.0,0,90,6.0,0.0
1228,48.0,0,90,6.0,0.0
1229,72.0,18,20,5.0,0.0
1230,71.0,24,20,5.0,0.0
1231,72.0,96,20,5.0,0.0
1232,74.0,0,90,5.0,0.0
1233,62.0,0,150,7.0,0.0
1234,71.0,0,90,5.0,0.0
1235,71.0,18,150,7.0,0.0
1236,43.0,0,90,6.0,0.0
1237,50.0,0,90,6.0,0.0
1238,55.0,48,90,6.0,0.0
1239,67.0,30,150,7.0,0.0
1240,43.0,0,90,8.0,0.0
1241,67.0,0,90,5.0,0.0
1242,55.0,24,90,8.0,0.0
1243,72.0,0,40,7.0,0.0
1244,67.0,6,150,7.0,0.0
1245,52.0,0,90,8.0,0.0
1246,55.0,0,90,8.0,0.0
1247,60.0,0,90,8.0,0.0
1248,74.0,24,20,7.0,0.0
1249,72.0,24,20,7.0,0.0
1250,74.0,24,20,7.0,0.0
1251,72.0,24,20,7.0,0.0
1252,55.0,0,90,8.0,0.0
1253,74.0,24,20,7.0,0.0
1254,48.0,48,90,8.0,0.0
1255,52.0,0,90,8.0,0.0
1256,72.0,18,20,7.0,0.0
1257,71.0,24,20,7.0,0.0
1258,72.0,0,20,7.0,0.0
1259,50.0,0,90,8.0,0.0
1260,71.0,0,90,7.0,0.0
1261,74.0,0,90,7.0,0.0
1262,43.0,0,90,8.0,0.0
1263,43.0,48,90,6.0,0.0
1264,67.0,0,90,7.0,0.0
1265,55.0,0,90,8.0,0.0
1266,71.0,30,150,5.0,0.0
1267,74.0,48,40,5.0,0.0
1268,76.0,0,40,5.0,0.0
1269,55.0,24,90,6.0,0.0
1270,74.0,18,40,5.0,0.0
1271,76.0,0,40,5.0,0.0
1272,53.0,24,90,6.0,0.0
1273,73.0,6,150,5.0,0.0
1274,77.0,24,20,5.0,0.0
1275,76.0,24,20,5.0,0.0
1276,77.0,24,20,5.0,0.0
1277,76.0,0,20,5.0,0.0
1278,77.0,24,20,5.0,0.0
1279,52.0,48,90,6.0,0.0
1280,76.0,18,20,5.0,0.0
1281,74.0,24,20,5.0,0.0
1282,76.0,0,20,5.0,0.0
1283,62.0,0,90,8.0,0.0
1284,74.0,0,90,5.0,0.0
1285,69.0,48,40,7.0,0.0
1286,77.0,0,90,5.0,0.0
1287,50.0,48,90,6.0,0.0
1288,65.0,0,90,7.0,0.0
1289,71.0,0,40,7.0,0.0
1290,60.0,0,90,8.0,0.0
1291,66.0,24,90,7.0,0.0
1292,69.0,48,40,7.0,0.0
1293,71.0,0,40,7.0,0.0
1294,72.0,24,20,7.0,0.0
1295,59.0,0,90,8.0,0.0
1296,68.0,6,150,7.0,0.0
1297,71.0,24,20,7.0,0.0
1298,72.0,24,20,7.0,0.0
1299,71.0,24,20,7.0,0.0
1300,72.0,24,20,7.0,0.0
1301,64.0,0,90,8.0,0.0
1302,71.0,18,20,7.0,0.0
1303,69.0,24,20,7.0,0.0
1304,71.0,96,20,7.0,0.0
1305,45.0,48,90,6.0,0.0
1306,64.0,30,150,5.0,0.0
1307,69.0,0,150,5.0,0.0
1308,72.0,18,150,5.0,0.0
1309,57.0,0,90,8.0,0.0
1310,72.0,0,90,7.0,0.0
1311,69.0,0,90,7.0,0.0
1312,57.0,0,90,6.0,0.0
1313,74.0,24,40,5.0,0.0
1314,53.0,0,90,6.0,0.0
1315,57.0,0,90,6.0,0.0
1316,62.0,24,90,6.0,0.0
1317,69.0,6,150,5.0,0.0
1318,76.0,24,20,5.0,0.0
1319,74.0,24,20,5.0,0.0
1320,76.0,24,20,5.0,0.0
1321,74.0,0,20,5.0,0.0
1322,53.0,96,90,6.0,0.0
1323,50.0,0,90,6.0,0.0
1324,57.0,0,90,6.0,0.0
1325,76.0,24,20,5.0,0.0
1326,74.0,18,20,5.0,0.0
1327,72.0,24,20,5.0,0.0
1328,74.0,0,20,5.0,0.0
1329,45.0,48,90,8.0,0.0
1330,52.0,0,90,6.0,0.0
1331,57.0,0,90,6.0,0.0
1332,72.0,0,90,5.0,0.0
1333,76.0,0,90,5.0,0.0
1334,69.0,0,90,5.0,0.0
1335,64.0,0,150,7.0,0.0
1336,69.0,30,150,7.0,0.0
1337,72.0,18,150,7.0,0.0
1338,45.0,0,90,6.0,0.0
1339,57.0,0,90,8.0,0.0
1340,74.0,24,40,7.0,0.0
1341,69.0,6,150,7.0,0.0
1342,76.0,24,20,7.0,0.0
1343,53.0,0,90,8.0,0.0
1344,57.0,0,90,8.0,0.0
1345,62.0,0,90,8.0,0.0
1346,74.0,24,20,7.0,0.0
1347,76.0,24,20,7.0,0.0
1348,74.0,24,20,7.0,0.0
1349,50.0,48,90,8.0,0.0
1350,53.0,0,90,8.0,0.0
1351,76.0,24,20,7.0,0.0
1352,57.0,0,90,8.0,0.0
1353,74.0,18,20,7.0,0.0
1354,72.0,24,20,7.0,0.0
1355,74.0,0,20,7.0,0.0
1356,45.0,0,90,6.0,0.0
1357,52.0,0,90,8.0,0.0
1358,57.0,0,90,8.0,0.0
1359,69.0,0,90,7.0,0.0
1360,45.0,0,90,8.0,0.0
1361,72.0,48,90,7.0,0.0
1362,76.0,0,90,7.0,0.0
1363,72.0,30,150,5.0,0.0
1364,76.0,48,40,5.0,0.0
1365,77.0,0,40,5.0,0.0
1366,57.0,24,90,6.0,0.0
1367,76.0,18,40,5.0,0.0
1368,77.0,0,40,5.0,0.0
1369,74.0,6,150,5.0,0.0
1370,55.0,24,90,6.0,0.0
1371,79.0,24,20,5.0,0.0
1372,77.0,24,20,5.0,0.0
1373,79.0,24,20,5.0,0.0
1374,77.0,0,20,5.0,0.0
1375,79.0,24,20,5.0,0.0
1376,53.0,48,90,6.0,0.0
1377,77.0,18,20,5.0,0.0
1378,76.0,24,20,5.0,0.0
1379,77.0,0,20,5.0,0.0
1380,48.0,0,90,8.0,0.0
1381,79.0,0,90,5.0,0.0
1382,76.0,0,90,5.0,0.0
1383,67.0,48,40,7.0,0.0
1384,64.0,30,150,7.0,0.0
1385,52.0,0,90,6.0,0.0
1386,69.0,48,40,7.0,0.0
1387,67.0,18,40,7.0,0.0
1388,60.0,24,90,8.0,0.0
1389,69.0,0,40,7.0,0.0
1390,59.0,0,90,8.0,0.0
1391,71.0,24,20,7.0,0.0
1392,62.0,0,90,8.0,0.0
1393,69.0,24,20,7.0,0.0
1394,66.0,0,40,6.0,0.0
1395,71.0,24,20,7.0,0.0
1396,74.0,24,40,5.0,0.0
1397,69.0,0,20,7.0,0.0
1398,57.0,0,90,8.0,0.0
1399,71.0,24,20,7.0,0.0
1400,76.0,24,40,5.0,0.0
1401,60.0,0,90,8.0,0.0
1402,67.0,0,40,6.0,0.0
1403,69.0,0,20,7.0,0.0
1404,78.0,48,40,5.0,0.0
1405,69.0,0,40,6.0,0.0
1406,67.0,24,20,7.0,0.0
1407,69.0,0,20,7.0,0.0
1408,59.0,0,90,6.0,0.0
1409,71.0,48,90,7.0,0.0
1410,79.0,48,40,5.0,0.0
1411,55.0,0,90,8.0,0.0
1412,62.0,0,90,8.0,0.0
1413,74.0,0,40,5.0,0.0
1414,64.0,48,90,6.0,0.0
1415,79.0,48,40,5.0,0.0
1416,70.0,0,90,3.0,0.0
1417,52.0,0,90,4.0,0.0
1418,79.0,0,90,1.0,0.0
1419,76.0,0,90,2.0,0.0
1420,70.0,0,40,5.0,0.0
1421,69.0,48,40,5.0,0.0
1422,76.0,0,90,2.0,0.0
1423,69.0,0,90,3.0,0.0
1424,49.0,0,90,4.0,0.0
1425,61.0,0,90,6.0,0.0
1426,79.0,0,90,1.0,0.0
1427,79.0,0,40,5.0,0.0
1428,61.0,0,40,8.0,0.0
1429,69.0,48,40,7.0,0.0
1430,77.0,0,40,5.0,0.0
1431,62.0,0,40,8.0,0.0
1432,71.0,48,40,7.0,0.0
1433,57.0,48,90,6.0,0.0
1434,64.0,0,40,8.0,0.0
1435,73.0,0,40,7.0,0.0
1436,76.0,0,40,5.0,0.0
1437,74.0,48,40,7.0,0.0
1438,77.0,0,90,5.0,0.0
1439,53.0,0,90,8.0,0.0
1440,62.0,48,90,6.0,0.0
1441,69.0,0,40,7.0,0.0
1442,59.0,0,90,8.0,0.0
1443,74.0,48,40,7.0,0.0
1444,50.0,0,90,4.0,0.0
1445,62.0,0,90,3.0,0.0
1446,74.0,0,90,2.0,0.0
1447,74.0,0,90,5.0,0.0
1448,77.0,0,90,1.0,0.0
1449,50.0,0,90,6.0,0.0
1450,65.0,48,40,7.0,0.0
1451,64.0,48,40,7.0,0.0
1452,71.0,0,90,1.0,0.0
1453,56.0,0,90,8.0,0.0
1454,74.0,48,90,2.0,0.0
1455,44.0,0,90,4.0,0.0
1456,64.0,0,90,3.0,0.0
1457,76.0,0,40,5.0,0.0
1458,74.0,0,40,7.0,0.0
1459,68.0,0,40,6.0,0.0
1460,78.0,48,40,5.0,0.0
1461,72.0,0,40,7.0,0.0
1462,52.0,0,90,8.0,0.0
1463,69.0,0,40,6.0,0.0
1464,71.0,0,40,7.0,0.0
1465,71.0,0,40,6.0,0.0
1466,80.0,48,40,5.0,0.0
1467,60.0,0,90,6.0,0.0
1468,72.0,0,90,7.0,0.0
1469,57.0,48,90,8.0,0.0
1470,81.0,48,40,5.0,0.0
1471,76.0,0,40,5.0,0.0
1472,72.0,0,90,2.0,0.0
1473,45.0,0,90,8.0,0.0
1474,57.0,0,90,4.0,0.0
1475,66.0,0,90,6.0,0.0
1476,81.0,0,90,1.0,0.0
1477,69.0,48,90,3.0,0.0
1478,81.0,48,40,5.0,0.0
1479,69.0,0,90,7.0,0.0
1480,69.0,0,40,5.0,0.0
1481,66.0,0,90,3.0,0.0
1482,81.0,48,90,1.0,0.0
1483,68.0,48,40,5.0,0.0
1484,63.0,0,90,6.0,0.0
1485,51.0,0,90,4.0,0.0
1486,71.0,0,90,2.0,0.0
1487,81.0,0,40,5.0,0.0
1488,71.0,0,40,7.0,0.0
1489,63.0,0,40,8.0,0.0
1490,79.0,0,40,5.0,0.0
1491,59.0,0,90,6.0,0.0
1492,64.0,0,40,8.0,0.0
1493,73.0,48,40,7.0,0.0
1494,75.0,0,40,7.0,0.0
1495,78.0,0,40,5.0,0.0
1496,65.0,48,40,8.0,0.0
1497,64.0,48,90,6.0,0.0
1498,55.0,0,90,8.0,0.0
1499,79.0,0,90,5.0,0.0
1500,76.0,48,40,7.0,0.0
1501,71.0,0,40,7.0,0.0
1502,64.0,0,90,3.0,0.0
1503,76.0,0,90,5.0,0.0
1504,52.0,0,90,4.0,0.0
1505,52.0,0,90,6.0,0.0
1506,76.0,48,40,7.0,0.0
1507,61.0,48,90,8.0,0.0
1508,76.0,0,90,2.0,0.0
1509,79.0,0,90,1.0,0.0
1510,67.0,0,40,7.0,0.0
1511,76.0,48,90,2.0,0.0
1512,66.0,48,40,7.0,0.0
1513,46.0,0,90,4.0,0.0
1514,66.0,0,90,3.0,0.0
1515,73.0,0,90,1.0,0.0
1516,58.0,0,90,8.0,0.0
1517,78.0,0,40,5.0,0.0
1518,70.0,0,40,6.0,0.0
1519,76.0,0,40,7.0,0.0
1520,74.0,0,40,7.0,0.0
1521,80.0,0,40,5.0,0.0
1522,54.0,0,90,8.0,0.0
1523,71.0,48,40,6.0,0.0
1524,73.0,0,40,6.0,0.0
1525,73.0,48,40,7.0,0.0
1526,82.0,0,40,5.0,0.0
1527,74.0,0,40,7.0,0.0
1528,59.0,0,90,8.0,0.0
1529,83.0,48,40,5.0,0.0
1530,62.0,0,90,6.0,0.0
1531,78.0,48,40,5.0,0.0
1532,71.0,0,40,7.0,0.0
1533,74.0,0,90,2.0,0.0
1534,45.0,0,90,4.0,0.0
1535,65.0,48,90,3.0,0.0
1536,74.0,0,40,7.0,0.0
1537,83.0,0,90,1.0,0.0
1538,83.0,48,40,5.0,0.0
1539,59.0,0,90,6.0,0.0
1540,57.0,0,90,8.0,0.0
1541,74.0,0,40,5.0,0.0
1542,65.0,0,40,7.0,0.0
1543,56.0,0,90,8.0,0.0
1544,64.0,0,90,6.0,0.0
1545,83.0,0,90,1.0,0.0
1546,74.0,0,90,2.0,0.0
1547,64.0,48,40,7.0,0.0
1548,64.0,0,90,3.0,0.0
1549,44.0,0,90,4.0,0.0
1550,71.0,0,40,5.0,0.0
1551,74.0,48,40,7.0,0.0
1552,83.0,0,40,5.0,0.0
1553,64.0,0,90,8.0,0.0
1554,72.0,48,40,7.0,0.0
1555,81.0,0,40,5.0,0.0
1556,52.0,0,90,6.0,0.0
1557,71.0,48,40,7.0,0.0
1558,80.0,0,40,5.0,0.0
1559,60.0,0,90,6.0,0.0
1560,81.0,0,40,5.0,0.0
1561,57.0,0,90,8.0,0.0
1562,72.0,48,40,7.0,0.0
1563,69.0,48,40,7.0,0.0
1564,76.0,0,40,5.0,0.0
1565,81.0,0,90,1.0,0.0
1566,57.0,0,90,6.0,0.0
1567,43.0,0,90,4.0,0.0
1568,81.0,0,40,5.0,0.0
1569,72.0,48,40,7.0,0.0
1570,55.0,0,90,8.0,0.0
1571,72.0,0,90,2.0,0.0
1572,64.0,0,90,3.0,0.0
1573,72.0,0,40,5.0,0.0
1574,64.0,48,40,7.0,0.0
1575,54.0,0,90,8.0,0.0
1576,81.0,0,90,1.0,0.0
1577,62.0,0,90,6.0,0.0
1578,62.0,0,40,7.0,0.0
1579,72.0,0,90,2.0,0.0
1580,69.0,48,40,5.0,0.0
1581,62.0,0,90,3.0,0.0
1582,42.0,48,90,4.0,0.0
1583,81.0,0,40,5.0,0.0
1584,72.0,0,40,7.0,0.0
1585,50.0,0,90,6.0,0.0
1586,79.0,48,40,5.0,0.0
1587,71.0,0,40,7.0,0.0
1588,62.0,0,90,8.0,0.0
1589,69.0,48,40,7.0,0.0
1590,78.0,0,40,5.0,0.0
1591,55.0,0,90,8.0,0.0
1592,59.0,0,90,6.0,0.0
1593,79.0,48,40,5.0,0.0
1594,71.0,0,40,7.0,0.0
1595,74.0,0,40,5.0,0.0
1596,67.0,48,40,7.0,0.0
1597,71.0,48,40,7.0,0.0
1598,62.0,0,90,3.0,0.0
1599,54.0,0,90,8.0,0.0
1600,55.0,0,90,6.0,0.0
1601,71.0,0,90,2.0,0.0
1602,79.0,0,40,5.0,0.0
1603,43.0,0,90,4.0,0.0
1604,79.0,48,90,1.0,0.0
1605,62.0,0,40,7.0,0.0
1606,71.0,0,40,5.0,0.0
1607,48.0,0,90,4.0,0.0
1608,79.0,0,90,1.0,0.0
1609,64.0,0,90,3.0,0.0
1610,60.0,0,40,7.0,0.0
1611,71.0,0,90,2.0,0.0
1612,52.0,0,90,8.0,0.0
1613,60.0,0,90,6.0,0.0
1614,76.0,48,40,5.0,0.0
1615,71.0,0,40,7.0,0.0
1616,74.0,48,40,5.0,0.0
1617,69.0,0,40,7.0,0.0
1618,36.0,0,90,4.0,0.0
1619,69.0,0,40,2.0,0.0
1620,72.0,48,40,5.0,0.0
1621,57.0,0,90,3.0,0.0
1622,78.0,0,40,1.0,0.0
1623,48.0,0,90,6.0,0.0
1624,60.0,48,90,8.0,0.0
1625,67.0,0,40,7.0,0.0
1626,67.0,0,40,2.0,0.0
1627,76.0,0,40,1.0,0.0
1628,71.0,0,40,5.0,0.0
1629,66.0,48,40,7.0,0.0
1630,38.0,0,1110,4.0,0.0
1631,69.0,0,90,5.0,0.0
1632,50.0,0,90,6.0,0.0
1633,74.0,0,150,2.0,0.0
1634,62.0,0,90,8.0,0.0
1635,78.0,30,150,1.0,0.0
1636,57.0,16,330,3.0,0.0
1637,62.0,48,40,7.0,0.0
1638,72.0,0,90,5.0,0.0
1639,62.0,48,90,6.0,0.0
1640,69.0,18,40,7.0,0.0
1641,50.0,0,90,8.0,0.0
1642,66.0,0,40,7.0,0.0
1643,62.0,0,540,2.0,0.0
1644,66.0,30,150,1.0,0.0
1645,72.0,48,40,7.0,0.0
1646,62.0,0,90,6.0,0.0
1647,72.0,48,40,5.0,0.0
1648,69.0,0,40,7.0,0.0
1649,67.0,0,40,7.0,0.0
1650,71.0,2,40,5.0,0.0
1651,50.0,0,90,6.0,0.0
1652,50.0,48,90,8.0,0.0
1653,69.0,0,40,5.0,0.0
1654,66.0,0,40,7.0,0.0
1655,50.0,0,90,8.0,0.0
1656,67.0,16,330,1.0,0.0
1657,55.0,30,150,3.0,0.0
1658,71.0,0,90,5.0,0.0
1659,67.0,48,40,7.0,0.0
1660,62.0,48,40,7.0,0.0
1661,62.0,48,90,6.0,0.0
1662,74.0,0,90,5.0,0.0
1663,38.0,0,90,8.0,0.0
1664,71.0,18,40,7.0,0.0
1665,67.0,0,40,7.0,0.0
1666,74.0,48,40,7.0,0.0
1667,62.0,0,90,6.0,0.0
1668,59.0,30,150,3.0,0.0
1669,71.0,0,40,7.0,0.0
1670,74.0,48,40,5.0,0.0
1671,72.0,0,40,5.0,0.0
1672,69.0,2,40,7.0,0.0
1673,50.0,0,90,6.0,0.0
1674,50.0,0,90,8.0,0.0
1675,67.0,0,40,7.0,0.0
1676,71.0,48,40,5.0,0.0
1677,57.0,0,330,3.0,0.0
1678,69.0,48,40,7.0,0.0
1679,72.0,0,90,5.0,0.0
1680,66.0,46,330,2.0,0.0
1681,69.0,0,330,1.0,0.0
1682,50.0,48,90,8.0,0.0
1683,66.0,0,40,7.0,0.0
1684,38.0,0,90,8.0,0.0
1685,76.0,0,90,5.0,0.0
1686,57.0,0,90,6.0,0.0
1687,72.0,48,40,7.0,0.0
1688,69.0,48,40,7.0,0.0
1689,55.0,0,90,6.0,0.0
1690,76.0,48,40,7.0,0.0
1691,72.0,0,40,7.0,0.0
1692,76.0,48,40,5.0,0.0
1693,71.0,0,40,7.0,0.0
1694,54.0,0,90,6.0,0.0
1695,50.0,48,90,8.0,0.0
1696,74.0,2,40,5.0,0.0
1697,72.0,0,40,5.0,0.0
1698,69.0,0,40,7.0,0.0
1699,43.0,0,150,4.0,0.0
1700,67.0,0,150,7.0,0.0
1701,62.0,48,90,6.0,0.0
1702,62.0,0,150,2.0,0.0
1703,71.0,48,40,5.0,0.0
1704,71.0,18,150,7.0,0.0
1705,62.0,0,150,7.0,0.0
1706,55.0,0,150,6.0,0.0
1707,55.0,0,150,8.0,0.0
1708,71.0,0,150,1.0,0.0
1709,55.0,30,150,3.0,0.0
1710,67.0,0,40,5.0,0.0
1711,59.0,0,90,6.0,0.0
1712,76.0,0,40,5.0,0.0
1713,74.0,0,40,5.0,0.0
1714,72.0,24,40,7.0,0.0
1715,72.0,0,40,1.0,0.0
1716,52.0,0,150,8.0,0.0
1717,60.0,6,150,8.0,0.0
1718,52.0,0,150,4.0,0.0
1719,55.0,0,150,6.0,0.0
1720,52.0,0,150,6.0,0.0
1721,74.0,24,20,1.0,0.0
1722,55.0,0,150,3.0,0.0
1723,74.0,0,20,7.0,0.0
1724,67.0,0,150,2.0,0.0
1725,72.0,24,40,5.0,0.0
1726,55.0,0,150,8.0,0.0
1727,67.0,0,150,7.0,0.0
1728,72.0,0,20,7.0,0.0
1729,72.0,0,20,1.0,0.0
1730,74.0,0,20,7.0,0.0
1731,71.0,0,40,5.0,0.0
1732,74.0,24,20,1.0,0.0
1733,72.0,0,20,1.0,0.0
1734,72.0,24,20,7.0,0.0
1735,74.0,0,20,1.0,0.0
1736,69.0,0,40,5.0,0.0
1737,74.0,24,20,7.0,0.0
1738,72.0,0,20,1.0,0.0
1739,72.0,18,20,7.0,0.0
1740,71.0,24,20,1.0,0.0
1741,67.0,0,150,5.0,0.0
1742,71.0,0,20,7.0,0.0
1743,72.0,48,20,1.0,0.0
1744,72.0,0,20,7.0,0.0
1745,67.0,0,90,7.0,0.0
1746,62.0,0,90,7.0,0.0
1747,74.0,0,90,5.0,0.0
1748,74.0,0,90,7.0,0.0
1749,79.0,0,90,5.0,0.0
1750,62.0,0,90,3.0,0.0
1751,67.0,0,90,2.0,0.0
1752,47.0,0,90,8.0,0.0
1753,50.0,0,90,8.0,0.0
1754,55.0,0,90,8.0,0.0
1755,47.0,48,40,6.0,0.0
1756,47.0,48,90,4.0,0.0
1757,74.0,0,90,1.0,0.0
1758,50.0,0,40,6.0,0.0
1759,55.0,48,40,6.0,0.0
1760,59.0,96,40,6.0,0.0
1761,62.0,0,90,6.0,0.0
1762,74.0,0,40,7.0,0.0
1763,59.0,48,40,8.0,0.0
1764,57.0,0,40,8.0,0.0
1765,72.0,48,40,7.0,0.0
1766,74.0,0,40,7.0,0.0
1767,59.0,48,40,8.0,0.0
1768,64.0,0,40,7.0,0.0
1769,48.0,48,40,8.0,0.0
1770,59.0,48,40,8.0,0.0
1771,74.0,0,40,7.0,0.0
1772,57.0,0,40,8.0,0.0
1773,72.0,48,40,7.0,0.0
1774,71.0,48,40,7.0,0.0
1775,55.0,0,40,8.0,0.0
1776,72.0,48,40,7.0,0.0
1777,57.0,0,40,8.0,0.0
1778,64.0,0,40,7.0,0.0
1779,48.0,48,40,8.0,0.0
1780,50.0,0,40,8.0,0.0
1781,66.0,48,40,7.0,0.0
1782,72.0,48,40,7.0,0.0
1783,57.0,0,40,8.0,0.0
1784,52.0,48,40,8.0,0.0
1785,67.0,0,40,7.0,0.0
1786,72.0,48,40,7.0,0.0
1787,57.0,0,40,8.0,0.0
1788,71.0,0,40,7.0,0.0
1789,55.0,48,40,8.0,0.0
1790,69.0,96,40,7.0,0.0
1791,54.0,0,40,8.0,0.0
1792,71.0,48,90,7.0,0.0
1793,55.0,0,90,8.0,0.0
1794,62.0,0,40,6.0,0.0
1795,71.0,0,40,5.0,0.0
1796,60.0,48,40,6.0,0.0
1797,69.0,0,40,5.0,0.0
1798,62.0,0,40,6.0,0.0
1799,71.0,48,40,5.0,0.0
1800,52.0,48,40,6.0,0.0
1801,60.0,0,40,5.0,0.0
1802,62.0,48,40,6.0,0.0
1803,71.0,0,40,5.0,0.0
1804,69.0,0,40,5.0,0.0
1805,60.0,48,40,6.0,0.0
1806,59.0,48,40,6.0,0.0
1807,67.0,0,40,5.0,0.0
1808,69.0,0,40,5.0,0.0
1809,60.0,48,40,6.0,0.0
1810,60.0,48,40,5.0,0.0
1811,52.0,0,40,6.0,0.0
1812,54.0,0,40,6.0,0.0
1813,62.0,48,40,5.0,0.0
1814,60.0,0,40,6.0,0.0
1815,69.0,48,40,5.0,0.0
1816,55.0,48,40,6.0,0.0
1817,59.0,0,40,5.0,0.0
1818,60.0,48,40,6.0,0.0
1819,69.0,0,40,5.0,0.0
1820,67.0,48,40,5.0,0.0
1821,59.0,0,40,6.0,0.0
1822,66.0,0,40,5.0,0.0
1823,57.0,96,40,6.0,0.0
1824,59.0,96,90,6.0,0.0
1825,67.0,0,90,5.0,0.0
1826,55.0,0,90,8.0,0.0
1827,62.0,0,90,5.0,0.0
1828,62.0,96,90,1.0,0.0
1829,62.0,0,90,7.0,0.0
1830,55.0,0,90,3.0,0.0
1831,47.0,0,90,6.0,0.0
1832,55.0,0,90,6.0,0.0
1833,62.0,0,90,2.0,0.0
1834,47.0,0,90,8.0,0.0
1835,47.0,0,90,4.0,0.0
1836,55.0,0,90,8.0,0.0
1837,62.0,0,90,2.0,0.0
1838,48.0,0,90,4.0,0.0
1839,48.0,0,90,6.0,0.0
1840,55.0,0,90,6.0,0.0
1841,64.0,96,90,7.0,0.0
1842,55.0,0,90,3.0,0.0
1843,64.0,0,90,5.0,0.0
1844,62.0,0,90,5.0,0.0
1845,64.0,0,90,1.0,0.0
1846,62.0,0,90,7.0,0.0
1847,48.0,0,90,8.0,0.0
1848,66.0,0,90,5.0,0.0
1849,60.0,0,90,5.0,0.0
1850,57.0,0,90,3.0,0.0
1851,66.0,0,90,7.0,0.0
1852,57.0,0,90,6.0,0.0
1853,45.0,0,90,6.0,0.0
1854,45.0,48,90,4.0,0.0
1855,66.0,0,90,1.0,0.0
1856,60.0,0,90,2.0,0.0
1857,45.0,0,90,8.0,0.0
1858,57.0,0,90,8.0,0.0
1859,60.0,0,90,7.0,0.0
1860,47.0,48,90,6.0,0.0
1861,50.0,0,90,6.0,0.0
1862,62.0,0,150,7.0,0.0
1863,50.0,0,90,3.0,0.0
1864,67.0,0,40,1.0,0.0
1865,67.0,0,40,7.0,0.0
1866,62.0,0,90,2.0,0.0
1867,50.0,0,90,8.0,0.0
1868,47.0,0,90,8.0,0.0
1869,47.0,0,90,4.0,0.0
1870,62.0,30,150,5.0,0.0
1871,67.0,48,40,5.0,0.0
1872,69.0,0,40,7.0,0.0
1873,69.0,0,40,5.0,0.0
1874,69.0,0,40,1.0,0.0
1875,71.0,18,40,7.0,0.0
1876,55.0,0,90,6.0,0.0
1877,67.0,0,90,2.0,0.0
1878,43.0,0,90,4.0,0.0
1879,55.0,0,90,8.0,0.0
1880,43.0,0,90,8.0,0.0
1881,71.0,0,40,5.0,0.0
1882,71.0,0,40,1.0,0.0
1883,43.0,0,90,6.0,0.0
1884,62.0,48,90,3.0,0.0
1885,67.0,0,40,7.0,0.0
1886,67.0,0,40,5.0,0.0
1887,67.0,0,40,1.0,0.0
1888,66.0,0,1410,3.0,0.0
1889,72.0,48,40,7.0,0.0
1890,57.0,0,90,6.0,0.0
1891,66.0,0,90,7.0,0.0
1892,50.0,0,90,8.0,0.0
1893,57.0,0,90,8.0,0.0
1894,50.0,0,90,6.0,0.0
1895,50.0,0,1410,4.0,0.0
1896,66.0,0,40,5.0,0.0
1897,72.0,30,1410,1.0,0.0
1898,69.0,0,1410,2.0,0.0
1899,69.0,0,40,7.0,0.0
1900,72.0,48,40,5.0,0.0
1901,72.0,48,40,7.0,0.0
1902,64.0,0,40,5.0,0.0
1903,52.0,48,90,6.0,0.0
1904,72.0,0,40,5.0,0.0
1905,67.0,0,40,7.0,0.0
1906,62.0,0,40,5.0,0.0
1907,72.0,48,40,7.0,0.0
1908,54.0,0,90,6.0,0.0
1909,57.0,0,90,8.0,0.0
1910,66.0,0,40,7.0,0.0
1911,72.0,48,40,5.0,0.0
1912,64.0,48,40,5.0,0.0
1913,55.0,0,90,8.0,0.0
1914,55.0,0,90,6.0,0.0
1915,72.0,0,40,7.0,0.0
1916,64.0,0,40,7.0,0.0
1917,72.0,48,40,5.0,0.0
1918,72.0,0,40,7.0,0.0
1919,54.0,0,90,8.0,0.0
1920,57.0,48,90,6.0,0.0
1921,66.0,48,40,5.0,0.0
1922,62.0,0,40,7.0,0.0
1923,72.0,0,40,5.0,0.0
1924,52.0,0,90,8.0,0.0
1925,72.0,0,40,7.0,0.0
1926,55.0,48,90,6.0,0.0
1927,67.0,48,40,5.0,0.0
1928,72.0,0,40,5.0,0.0
1929,64.0,0,40,7.0,0.0
1930,54.0,48,90,6.0,0.0
1931,72.0,48,40,7.0,0.0
1932,69.0,0,40,5.0,0.0
1933,50.0,0,90,8.0,0.0
1934,66.0,0,40,7.0,0.0
1935,72.0,0,40,5.0,0.0
1936,52.0,0,90,8.0,0.0
1937,72.0,0,40,7.0,0.0
1938,52.0,0,90,6.0,0.0
1939,67.0,48,40,5.0,0.0
1940,67.0,48,40,7.0,0.0
1941,72.0,0,40,5.0,0.0
1942,50.0,0,90,6.0,0.0
1943,66.0,0,40,5.0,0.0
1944,72.0,48,40,7.0,0.0
1945,54.0,0,90,8.0,0.0
1946,72.0,0,40,5.0,0.0
1947,69.0,48,40,7.0,0.0
1948,72.0,48,40,7.0,0.0
1949,55.0,0,90,8.0,0.0
1950,64.0,0,40,5.0,0.0
1951,52.0,0,90,6.0,0.0
1952,72.0,0,40,5.0,0.0
1953,67.0,48,40,7.0,0.0
1954,54.0,0,90,6.0,0.0
1955,72.0,0,40,7.0,0.0
1956,62.0,48,40,5.0,0.0
1957,57.0,0,90,8.0,0.0
1958,66.0,0,40,7.0,0.0
1959,72.0,48,40,5.0,0.0
1960,64.0,48,40,5.0,0.0
1961,55.0,0,90,8.0,0.0
1962,55.0,0,90,6.0,0.0
1963,72.0,0,40,7.0,0.0
1964,72.0,0,40,5.0,0.0
1965,64.0,48,40,7.0,0.0
1966,54.0,0,90,8.0,0.0
1967,72.0,48,40,7.0,0.0
1968,66.0,0,40,5.0,0.0
1969,57.0,0,90,6.0,0.0
1970,62.0,0,40,7.0,0.0
1971,72.0,48,40,5.0,0.0
1972,67.0,48,40,5.0,0.0
1973,52.0,48,90,8.0,0.0
1974,55.0,0,90,6.0,0.0
1975,72.0,0,40,7.0,0.0
1976,64.0,0,40,7.0,0.0
1977,72.0,0,40,5.0,0.0
1978,72.0,0,40,7.0,0.0
1979,50.0,0,90,8.0,0.0
1980,69.0,18,40,5.0,0.0
1981,54.0,96,90,6.0,0.0
1982,72.0,0,40,5.0,0.0
1983,66.0,0,40,7.0,0.0
1984,74.0,96,90,7.0,0.0
1985,50.0,0,90,6.0,0.0
1986,74.0,0,90,1.0,0.0
1987,62.0,0,90,3.0,0.0
1988,74.0,0,90,5.0,0.0
1989,54.0,0,90,8.0,0.0
1990,54.0,0,90,4.0,0.0
1991,69.0,0,90,2.0,0.0
1992,55.0,0,90,4.0,0.0
1993,55.0,0,90,6.0,0.0
1994,67.0,0,90,2.0,0.0
1995,55.0,0,90,8.0,0.0
1996,71.0,0,90,7.0,0.0
1997,71.0,0,90,1.0,0.0
1998,62.0,0,90,3.0,0.0
1999,71.0,48,90,5.0,0.0
2000,69.0,0,40,1.0,0.0
2001,64.0,0,90,5.0,0.0
2002,52.0,0,90,4.0,0.0
2003,64.0,48,90,7.0,0.0
2004,69.0,0,40,5.0,0.0
2005,59.0,0,90,6.0,0.0
2006,52.0,0,90,6.0,0.0
2007,59.0,0,90,2.0,0.0
2008,52.0,0,90,8.0,0.0
2009,59.0,0,90,8.0,0.0
2010,64.0,0,90,3.0,0.0
2011,69.0,48,40,7.0,0.0
2012,67.0,0,40,5.0,0.0
2013,67.0,0,40,7.0,0.0
2014,67.0,0,40,1.0,0.0
2015,71.0,0,40,5.0,0.0
2016,64.0,48,90,5.0,0.0
2017,71.0,48,40,7.0,0.0
2018,48.0,0,90,6.0,0.0
2019,60.0,0,90,6.0,0.0
2020,60.0,0,90,8.0,0.0
2021,60.0,0,90,2.0,0.0
2022,64.0,0,90,7.0,0.0
2023,48.0,0,90,4.0,0.0
2024,71.0,0,40,1.0,0.0
2025,64.0,0,90,3.0,0.0
2026,48.0,0,90,8.0,0.0
2027,69.0,0,40,1.0,0.0
2028,69.0,0,40,5.0,0.0
2029,69.0,0,40,7.0,0.0
2030,62.0,0,90,7.0,0.0
2031,67.0,0,40,7.0,0.0
2032,50.0,0,90,8.0,0.0
2033,57.0,48,90,8.0,0.0
2034,62.0,0,90,3.0,0.0
2035,62.0,0,90,5.0,0.0
2036,57.0,0,90,2.0,0.0
2037,57.0,0,90,6.0,0.0
2038,50.0,0,90,4.0,0.0
2039,67.0,0,40,5.0,0.0
2040,67.0,48,40,1.0,0.0
2041,50.0,0,90,6.0,0.0
2042,66.0,0,40,5.0,0.0
2043,66.0,0,40,7.0,0.0
2044,66.0,0,40,1.0,0.0
2045,43.0,48,90,4.0,0.0
2046,67.0,0,90,1.0,0.0
2047,62.0,0,90,3.0,0.0
2048,62.0,0,150,5.0,0.0
2049,67.0,48,40,7.0,0.0
2050,62.0,0,90,7.0,0.0
2051,59.0,0,90,2.0,0.0
2052,59.0,0,150,6.0,0.0
2053,55.0,30,150,6.0,0.0
2054,59.0,0,90,8.0,0.0
2055,55.0,0,90,8.0,0.0
2056,67.0,0,150,5.0,0.0
2057,71.0,0,40,7.0,0.0
2058,69.0,18,40,7.0,0.0
2059,54.0,0,40,8.0,0.0
2060,67.0,0,40,7.0,0.0
2061,52.0,48,40,8.0,0.0
2062,50.0,48,40,8.0,0.0
2063,66.0,0,40,7.0,0.0
2064,48.0,48,40,8.0,0.0
2065,64.0,0,40,7.0,0.0
2066,62.0,48,40,7.0,0.0
2067,74.0,0,90,5.0,0.0
2068,59.0,48,90,6.0,0.0
2069,47.0,0,40,8.0,0.0
2070,60.0,0,40,7.0,0.0
2071,45.0,0,40,8.0,0.0
2072,43.0,48,40,8.0,0.0
2073,74.0,48,90,5.0,0.0
2074,59.0,0,40,7.0,0.0
2075,59.0,0,90,6.0,0.0
2076,60.0,0,40,7.0,0.0
2077,55.0,0,40,8.0,0.0
2078,71.0,48,40,5.0,0.0
2079,62.0,0,40,7.0,0.0
2080,54.0,0,40,8.0,0.0
2081,55.0,0,40,6.0,0.0
2082,52.0,0,40,8.0,0.0
2083,57.0,0,40,6.0,0.0
2084,60.0,0,40,7.0,0.0
2085,72.0,48,40,5.0,0.0
2086,59.0,48,40,7.0,0.0
2087,59.0,0,90,6.0,0.0
2088,50.0,0,40,8.0,0.0
2089,74.0,0,90,5.0,0.0
2090,48.0,48,40,8.0,0.0
2091,60.0,0,40,7.0,0.0
2092,55.0,0,40,6.0,0.0
2093,76.0,0,40,5.0,0.0
2094,62.0,0,40,7.0,0.0
2095,47.0,48,40,8.0,0.0
2096,57.0,0,40,6.0,0.0
2097,78.0,0,40,5.0,0.0
2098,45.0,0,40,8.0,0.0
2099,60.0,48,40,7.0,0.0
2100,59.0,26,90,6.0,0.0
2101,79.0,0,90,5.0,0.0
2102,59.0,48,40,7.0,0.0
2103,43.0,0,90,8.0,0.0
2104,60.0,0,40,7.0,0.0
2105,60.0,2,40,6.0,0.0
2106,57.0,0,40,7.0,0.0
2107,74.0,0,90,2.0,0.0
2108,81.0,0,40,5.0,0.0
2109,66.0,0,90,3.0,0.0
2110,81.0,22,20,1.0,0.0
2111,50.0,0,90,8.0,0.0
2112,50.0,0,90,4.0,0.0
2113,79.0,46,20,1.0,0.0
2114,78.0,46,40,1.0,0.0
2115,57.0,2,40,6.0,0.0
2116,60.0,0,40,7.0,0.0
2117,78.0,0,40,5.0,0.0
2118,71.0,0,90,3.0,0.0
2119,74.0,0,90,2.0,0.0
2120,55.0,0,90,8.0,0.0
2121,79.0,0,40,5.0,0.0
2122,43.0,0,90,4.0,0.0
2123,59.0,0,90,7.0,0.0
2124,79.0,0,90,1.0,0.0
2125,59.0,48,40,6.0,0.0
2126,57.0,0,40,6.0,0.0
2127,72.0,48,40,5.0,0.0
2128,55.0,0,90,8.0,0.0
2129,71.0,0,90,7.0,0.0
2130,55.0,0,40,6.0,0.0
2131,71.0,48,40,5.0,0.0
2132,54.0,0,40,6.0,0.0
2133,69.0,48,40,5.0,0.0
2134,71.0,0,90,7.0,0.0
2135,55.0,0,90,8.0,0.0
2136,67.0,0,40,5.0,0.0
2137,52.0,48,40,6.0,0.0
2138,64.0,48,40,6.0,0.0
2139,69.0,0,40,5.0,0.0
2140,63.0,0,40,6.0,0.0
2141,71.0,0,40,5.0,0.0
2142,67.0,0,40,7.0,0.0
2143,52.0,48,40,8.0,0.0
2144,61.0,48,40,6.0,0.0
2145,69.0,0,40,5.0,0.0
2146,54.0,0,40,8.0,0.0
2147,69.0,0,40,7.0,0.0
2148,67.0,48,40,5.0,0.0
2149,55.0,0,90,8.0,0.0
2150,71.0,0,90,7.0,0.0
2151,59.0,0,40,6.0,0.0
2152,69.0,0,40,5.0,0.0
2153,57.0,48,40,6.0,0.0
2154,52.0,0,40,8.0,0.0
2155,55.0,0,40,6.0,0.0
2156,73.0,0,40,7.0,0.0
2157,71.0,48,40,5.0,0.0
2158,69.0,0,40,5.0,0.0
2159,75.0,0,40,7.0,0.0
2160,54.0,48,40,8.0,0.0
2161,54.0,0,40,6.0,0.0
2162,76.0,0,90,7.0,0.0
2163,55.0,26,90,8.0,0.0
2164,67.0,48,40,5.0,0.0
2165,52.0,0,90,6.0,0.0
2166,69.0,0,40,5.0,0.0
2167,63.0,2,90,3.0,0.0
2168,47.0,0,90,6.0,0.0
2169,78.0,2,40,7.0,0.0
2170,66.0,0,40,5.0,0.0
2171,57.0,0,40,8.0,0.0
2172,78.0,22,20,1.0,0.0
2173,47.0,0,90,4.0,0.0
2174,71.0,0,90,2.0,0.0
2175,76.0,46,20,1.0,0.0
2176,75.0,0,40,7.0,0.0
2177,75.0,46,40,1.0,0.0
2178,54.0,0,40,8.0,0.0
2179,69.0,0,40,5.0,0.0
2180,55.0,0,40,8.0,0.0
2181,71.0,0,90,2.0,0.0
2182,40.0,0,90,6.0,0.0
2183,76.0,48,40,7.0,0.0
2184,67.0,0,90,5.0,0.0
2185,67.0,0,90,3.0,0.0
2186,76.0,0,90,1.0,0.0
2187,40.0,0,90,4.0,0.0
2188,74.0,48,40,7.0,0.0
2189,59.0,0,40,8.0,0.0
2190,52.0,0,90,6.0,0.0
2191,76.0,0,90,5.0,0.0
2192,57.0,0,40,8.0,0.0
2193,72.0,48,40,7.0,0.0
2194,56.0,0,40,8.0,0.0
2195,71.0,48,40,7.0,0.0
2196,60.0,0,90,6.0,0.0
2197,57.0,0,40,8.0,0.0
2198,72.0,48,40,7.0,0.0
2199,76.0,0,90,5.0,0.0
2200,74.0,0,40,7.0,0.0
2201,69.0,48,40,8.0,0.0
2202,72.0,0,40,5.0,0.0
2203,57.0,0,40,6.0,0.0
2204,68.0,0,40,8.0,0.0
2205,76.0,48,40,7.0,0.0
2206,74.0,0,40,7.0,0.0
2207,59.0,48,40,6.0,0.0
2208,66.0,0,40,8.0,0.0
2209,74.0,0,40,5.0,0.0
2210,64.0,0,40,8.0,0.0
2211,72.0,48,40,7.0,0.0
2212,60.0,0,90,6.0,0.0
2213,76.0,0,90,5.0,0.0
2214,62.0,48,40,8.0,0.0
2215,74.0,0,40,7.0,0.0
2216,60.0,0,40,8.0,0.0
2217,78.0,48,40,5.0,0.0
2218,57.0,0,40,6.0,0.0
2219,76.0,0,40,7.0,0.0
2220,80.0,48,40,5.0,0.0
2221,59.0,0,40,6.0,0.0
2222,59.0,0,40,8.0,0.0
2223,74.0,0,40,7.0,0.0
2224,81.0,0,90,5.0,0.0
2225,60.0,26,90,6.0,0.0
2226,72.0,48,40,7.0,0.0
2227,57.0,0,90,8.0,0.0
2228,74.0,0,40,7.0,0.0
2229,52.0,0,90,4.0,0.0
2230,83.0,22,20,1.0,0.0
2231,68.0,2,90,3.0,0.0
2232,71.0,0,40,7.0,0.0
2233,76.0,0,90,2.0,0.0
2234,83.0,2,40,5.0,0.0
2235,52.0,0,90,8.0,0.0
2236,62.0,0,40,6.0,0.0
2237,81.0,46,20,1.0,0.0
2238,59.0,0,40,6.0,0.0
2239,74.0,0,40,7.0,0.0
2240,80.0,46,40,1.0,0.0
2241,80.0,0,40,5.0,0.0
2242,81.0,0,40,5.0,0.0
2243,76.0,0,90,2.0,0.0
2244,72.0,0,90,7.0,0.0
2245,45.0,0,90,4.0,0.0
2246,81.0,0,90,1.0,0.0
2247,72.0,0,90,3.0,0.0
2248,45.0,0,90,8.0,0.0
2249,60.0,48,40,6.0,0.0
2250,77.0,48,40,5.0,0.0
2251,62.0,0,40,6.0,0.0
2252,72.0,0,90,7.0,0.0
2253,60.0,0,40,6.0,0.0
2254,76.0,48,40,5.0,0.0
2255,57.0,48,90,8.0,0.0
2256,59.0,0,40,6.0,0.0
2257,74.0,0,40,5.0,0.0
2258,72.0,0,40,5.0,0.0
2259,57.0,0,90,8.0,0.0
2260,57.0,48,40,6.0,0.0
2261,72.0,48,90,7.0,0.0
2262,59.0,0,40,6.0,0.0
2263,74.0,0,40,5.0,0.0
2264,54.0,48,40,8.0,0.0
2265,69.0,0,40,7.0,0.0
2266,76.0,0,40,5.0,0.0
2267,60.0,0,40,6.0,0.0
2268,71.0,0,40,7.0,0.0
2269,59.0,0,40,6.0,0.0
2270,74.0,0,40,5.0,0.0
2271,56.0,48,40,8.0,0.0
2272,57.0,0,40,6.0,0.0
2273,72.0,48,90,7.0,0.0
2274,72.0,48,40,5.0,0.0
2275,57.0,0,90,8.0,0.0
2276,55.0,0,40,6.0,0.0
2277,71.0,0,40,5.0,0.0
2278,74.0,48,40,7.0,0.0
2279,53.0,0,40,6.0,0.0
2280,59.0,0,40,8.0,0.0
2281,69.0,0,40,5.0,0.0
2282,52.0,48,40,6.0,0.0
2283,61.0,0,40,8.0,0.0
2284,67.0,0,40,5.0,0.0
2285,76.0,0,40,7.0,0.0
2286,62.0,0,90,8.0,0.0
2287,77.0,0,90,7.0,0.0
2288,65.0,48,40,5.0,0.0
2289,50.0,26,90,6.0,0.0
2290,67.0,0,40,5.0,0.0
2291,61.0,0,90,3.0,0.0
2292,79.0,22,20,1.0,0.0
2293,45.0,0,90,4.0,0.0
2294,79.0,0,40,7.0,0.0
2295,64.0,0,40,8.0,0.0
2296,64.0,2,40,5.0,0.0
2297,69.0,2,90,2.0,0.0
2298,45.0,0,90,6.0,0.0
2299,77.0,46,20,1.0,0.0
2300,61.0,0,40,8.0,0.0
2301,76.0,0,40,7.0,0.0
2302,76.0,46,40,1.0,0.0
2303,67.0,0,40,5.0,0.0
2304,38.0,48,90,4.0,0.0
2305,62.0,0,90,3.0,0.0
2306,62.0,0,90,8.0,0.0
2307,38.0,0,90,6.0,0.0
2308,77.0,0,90,7.0,0.0
2309,65.0,48,40,5.0,0.0
2310,69.0,0,90,2.0,0.0
2311,77.0,0,90,1.0,0.0
2312,69.0,0,40,5.0,0.0
2313,74.0,48,40,5.0,0.0
2314,76.0,96,40,5.0,0.0
2315,77.0,0,90,5.0,0.0
2316,67.0,48,40,6.0,0.0
2317,74.0,0,40,5.0,0.0
2318,65.0,48,40,6.0,0.0
2319,76.0,48,40,5.0,0.0
2320,64.0,0,40,6.0,0.0
2321,62.0,48,40,6.0,0.0
2322,77.0,0,90,5.0,0.0
2323,60.0,48,40,6.0,0.0
2324,80.0,0,40,5.0,0.0
2325,59.0,48,40,6.0,0.0
2326,57.0,48,40,6.0,0.0
2327,81.0,0,40,5.0,0.0
2328,56.0,48,40,6.0,0.0
2329,83.0,0,90,5.0,0.0
2330,62.0,48,40,6.0,0.0
2331,84.0,48,40,5.0,0.0
2332,54.0,0,40,6.0,0.0
2333,62.0,0,40,6.0,0.0
2334,81.0,48,40,5.0,0.0
2335,56.0,48,40,6.0,0.0
2336,83.0,48,90,5.0,0.0
2337,62.0,0,40,6.0,0.0
2338,76.0,0,90,5.0,0.0
2339,52.0,48,40,6.0,0.0
2340,62.0,48,40,6.0,0.0
2341,76.0,0,90,5.0,0.0
2342,60.0,48,40,6.0,0.0
2343,62.0,48,40,6.0,0.0
2344,64.0,48,40,6.0,0.0
2345,72.0,0,40,5.0,0.0
2346,62.0,0,40,6.0,0.0
2347,74.0,48,40,5.0,0.0
2348,60.0,48,40,6.0,0.0
2349,76.0,48,90,5.0,0.0
2350,59.0,0,40,6.0,0.0
2351,77.0,0,40,5.0,0.0
2352,57.0,48,40,6.0,0.0
2353,79.0,48,40,5.0,0.0
2354,55.0,0,40,6.0,0.0
2355,81.0,48,90,5.0,0.0
2356,53.0,48,40,6.0,0.0
2357,60.0,0,40,6.0,0.0
2358,52.0,0,40,6.0,0.0
2359,83.0,48,40,5.0,0.0
2360,80.0,48,40,5.0,0.0
2361,60.0,0,40,6.0,0.0
2362,53.0,48,40,6.0,0.0
2363,81.0,0,90,5.0,0.0
2364,60.0,48,40,6.0,0.0
2365,50.0,48,40,6.0,0.0
2366,74.0,0,90,5.0,0.0
2367,60.0,48,40,6.0,0.0
2368,74.0,0,90,5.0,0.0
2369,59.0,48,40,6.0,0.0
2370,60.0,48,40,6.0,0.0
2371,62.0,0,40,6.0,0.0
2372,71.0,48,40,5.0,0.0
2373,72.0,0,40,5.0,0.0
2374,60.0,48,40,6.0,0.0
2375,59.0,48,40,6.0,0.0
2376,74.0,48,90,5.0,0.0
2377,62.0,0,40,6.0,0.0
2378,57.0,48,40,6.0,0.0
2379,77.0,48,90,5.0,0.0
2380,62.0,0,40,6.0,0.0
2381,56.0,48,40,6.0,0.0
2382,74.0,0,90,5.0,0.0
2383,57.0,48,40,6.0,0.0
2384,59.0,0,40,6.0,0.0
2385,71.0,48,40,5.0,0.0
2386,72.0,48,40,5.0,0.0
2387,57.0,0,40,6.0,0.0
2388,56.0,48,40,6.0,0.0
2389,74.0,48,90,5.0,0.0
2390,59.0,0,40,6.0,0.0
2391,80.0,48,90,5.0,0.0
2392,52.0,48,40,6.0,0.0
2393,59.0,0,40,6.0,0.0
2394,47.0,48,40,6.0,0.0
2395,74.0,48,90,5.0,0.0
2396,48.0,0,40,6.0,0.0
2397,50.0,48,40,6.0,0.0
2398,71.0,0,40,5.0,0.0
2399,72.0,0,40,5.0,0.0
2400,48.0,48,40,6.0,0.0
2401,74.0,0,90,5.0,0.0
2402,47.0,48,40,6.0,0.0
2403,50.0,48,40,6.0,0.0
2404,45.0,48,40,6.0,0.0
2405,81.0,48,90,5.0,0.0
2406,50.0,0,40,6.0,0.0
2407,74.0,0,90,5.0,0.0
2408,44.0,48,40,6.0,0.0
2409,45.0,48,40,6.0,0.0
2410,71.0,0,40,5.0,0.0
2411,47.0,48,40,6.0,0.0
2412,45.0,0,40,6.0,0.0
2413,72.0,48,40,5.0,0.0
2414,74.0,0,90,5.0,0.0
2415,44.0,48,40,6.0,0.0
2416,47.0,48,40,6.0,0.0
2417,83.0,48,90,5.0,0.0
2418,40.0,48,40,6.0,0.0
2419,44.0,0,40,6.0,0.0
2420,45.0,0,90,6.0,0.0
2421,84.0,48,40,5.0,0.0
2422,83.0,48,40,5.0,0.0
2423,48.0,0,90,6.0,0.0
2424,81.0,48,40,5.0,0.0
2425,84.0,48,40,5.0,0.0
2426,50.0,48,90,6.0,0.0
2427,83.0,48,40,5.0,0.0
2428,81.0,0,40,5.0,0.0
2429,52.0,48,90,6.0,0.0
2430,80.0,48,40,5.0,0.0
2431,83.0,0,40,5.0,0.0
2432,81.0,48,40,5.0,0.0
2433,53.0,0,90,6.0,0.0
2434,83.0,48,40,5.0,0.0
2435,55.0,48,90,6.0,0.0
2436,81.0,48,40,5.0,0.0
2437,79.0,0,40,5.0,0.0
2438,77.0,48,40,5.0,0.0
2439,57.0,0,90,6.0,0.0
2440,76.0,48,40,5.0,0.0
2441,45.0,0,90,6.0,0.0
2442,74.0,48,40,5.0,0.0
2443,73.0,48,40,5.0,0.0
2444,77.0,48,40,5.0,0.0
2445,50.0,0,90,6.0,0.0
2446,79.0,48,40,5.0,0.0
2447,52.0,0,90,6.0,0.0
2448,77.0,48,40,5.0,0.0
2449,76.0,48,40,5.0,0.0
2450,53.0,0,90,6.0,0.0
2451,74.0,48,40,5.0,0.0
2452,72.0,48,40,5.0,0.0
2453,71.0,48,40,5.0,0.0
2454,50.0,48,90,6.0,0.0
2455,69.0,0,40,5.0,0.0
2456,68.0,48,40,5.0,0.0
2457,52.0,48,90,6.0,0.0
2458,64.0,0,40,5.0,0.0
2459,66.0,48,40,5.0,0.0
2460,50.0,0,90,6.0,0.0
2461,68.0,48,40,5.0,0.0
2462,48.0,48,90,6.0,0.0
2463,69.0,48,40,5.0,0.0
2464,71.0,0,40,5.0,0.0
2465,47.0,0,90,6.0,0.0
2466,72.0,48,40,5.0,0.0
2467,74.0,96,40,5.0,0.0
2468,48.0,0,90,6.0,0.0
2469,60.0,0,150,2.0,0.0
2470,52.0,0,90,3.0,0.0
2471,76.0,48,90,5.0,0.0
2472,69.0,18,150,1.0,0.0
2473,45.0,30,150,4.0,0.0
2474,74.0,0,40,5.0,0.0
2475,57.0,0,90,6.0,0.0
2476,45.0,0,90,6.0,0.0
2477,57.0,6,150,3.0,0.0
2478,64.0,0,90,5.0,0.0
2479,72.0,0,40,5.0,0.0
2480,71.0,24,40,1.0,0.0
2481,64.0,0,90,5.0,0.0
2482,72.0,24,20,1.0,0.0
2483,74.0,18,40,5.0,0.0
2484,52.0,0,90,6.0,0.0
2485,64.0,6,150,2.0,0.0
2486,57.0,24,90,6.0,0.0
2487,40.0,0,150,4.0,0.0
2488,71.0,0,20,1.0,0.0
2489,72.0,0,40,5.0,0.0
2490,72.0,24,20,1.0,0.0
2491,71.0,0,20,1.0,0.0
2492,71.0,18,40,5.0,0.0
2493,56.0,0,90,3.0,0.0
2494,72.0,24,20,1.0,0.0
2495,56.0,0,90,6.0,0.0
2496,52.0,0,90,6.0,0.0
2497,64.0,0,90,5.0,0.0
2498,71.0,0,20,1.0,0.0
2499,69.0,24,20,1.0,0.0
2500,72.0,0,40,5.0,0.0
2501,71.0,96,20,1.0,0.0
2502,45.0,0,90,4.0,0.0
2503,64.0,0,90,2.0,0.0
2504,72.0,0,90,1.0,0.0
2505,45.0,0,90,6.0,0.0
2506,57.0,0,90,6.0,0.0
2507,64.0,0,90,5.0,0.0
2508,60.0,48,90,5.0,0.0
2509,57.0,0,90,3.0,0.0
2510,69.0,0,90,5.0,0.0
2511,64.0,0,40,7.0,0.0
2512,66.0,48,40,7.0,0.0
2513,68.0,48,40,7.0,0.0
2514,69.0,48,40,7.0,0.0
2515,71.0,48,40,7.0,0.0
2516,57.0,48,90,8.0,0.0
2517,72.0,48,40,7.0,0.0
2518,69.0,0,40,7.0,0.0
2519,53.0,0,90,8.0,0.0
2520,74.0,48,40,7.0,0.0
2521,76.0,48,40,7.0,0.0
2522,50.0,0,40,8.0,0.0
2523,77.0,48,40,7.0,0.0
2524,52.0,48,40,8.0,0.0
2525,76.0,0,40,7.0,0.0
2526,74.0,48,40,7.0,0.0
2527,53.0,48,90,8.0,0.0
2528,72.0,0,40,7.0,0.0
2529,71.0,0,40,7.0,0.0
2530,56.0,48,40,8.0,0.0
2531,69.0,48,40,7.0,0.0
2532,57.0,0,40,8.0,0.0
2533,68.0,48,40,7.0,0.0
2534,59.0,48,90,8.0,0.0
2535,74.0,0,40,7.0,0.0
2536,60.0,48,40,8.0,0.0
2537,66.0,0,40,7.0,0.0
2538,57.0,48,40,8.0,0.0
2539,74.0,0,40,7.0,0.0
2540,68.0,48,40,7.0,0.0
2541,59.0,48,90,8.0,0.0
2542,74.0,0,40,7.0,0.0
2543,64.0,48,40,7.0,0.0
2544,56.0,48,90,8.0,0.0
2545,74.0,0,40,7.0,0.0
2546,52.0,0,90,8.0,0.0
2547,72.0,48,40,7.0,0.0
2548,74.0,48,40,7.0,0.0
2549,76.0,0,40,7.0,0.0
2550,48.0,48,40,8.0,0.0
2551,50.0,0,40,8.0,0.0
2552,74.0,48,40,7.0,0.0
2553,72.0,48,40,7.0,0.0
2554,52.0,0,90,8.0,0.0
2555,71.0,48,40,7.0,0.0
2556,53.0,0,40,8.0,0.0
2557,69.0,48,40,7.0,0.0
2558,67.0,0,40,7.0,0.0
2559,55.0,48,40,8.0,0.0
2560,65.0,48,40,7.0,0.0
2561,57.0,0,90,8.0,0.0
2562,72.0,48,40,7.0,0.0
2563,59.0,0,40,8.0,0.0
2564,64.0,48,40,7.0,0.0
2565,72.0,0,40,7.0,0.0
2566,56.0,48,40,8.0,0.0
2567,65.0,48,40,7.0,0.0
2568,57.0,48,90,8.0,0.0
2569,72.0,0,40,7.0,0.0
2570,62.0,48,40,7.0,0.0
2571,53.0,48,90,8.0,0.0
2572,72.0,0,40,7.0,0.0
2573,71.0,48,40,7.0,0.0
2574,50.0,0,90,8.0,0.0
2575,72.0,48,40,7.0,0.0
2576,47.0,48,40,8.0,0.0
2577,74.0,0,40,7.0,0.0
2578,48.0,48,40,8.0,0.0
2579,72.0,0,40,7.0,0.0
2580,71.0,48,40,7.0,0.0
2581,50.0,48,90,8.0,0.0
2582,74.0,0,40,7.0,0.0
2583,53.0,0,90,8.0,0.0
2584,69.0,48,40,7.0,0.0
2585,74.0,48,40,7.0,0.0
2586,50.0,0,90,8.0,0.0
2587,68.0,48,40,7.0,0.0
2588,69.0,48,40,7.0,0.0
2589,71.0,0,40,7.0,0.0
2590,47.0,48,40,8.0,0.0
2591,69.0,0,40,7.0,0.0
2592,48.0,48,40,8.0,0.0
2593,68.0,48,40,7.0,0.0
2594,50.0,48,90,8.0,0.0
2595,71.0,0,40,7.0,0.0
2596,56.0,48,90,8.0,0.0
2597,64.0,48,40,7.0,0.0
2598,71.0,0,40,7.0,0.0
2599,74.0,48,90,7.0,0.0
2600,59.0,48,40,8.0,0.0
2601,60.0,0,40,8.0,0.0
2602,62.0,48,40,8.0,0.0
2603,71.0,0,40,7.0,0.0
2604,72.0,0,40,7.0,0.0
2605,60.0,48,40,8.0,0.0
2606,59.0,48,40,8.0,0.0
2607,74.0,0,90,7.0,0.0
2608,62.0,48,40,8.0,0.0
2609,81.0,48,90,7.0,0.0
2610,57.0,48,40,8.0,0.0
2611,62.0,0,40,8.0,0.0
2612,56.0,48,40,8.0,0.0
2613,74.0,48,90,7.0,0.0
2614,57.0,0,40,8.0,0.0
2615,59.0,0,40,8.0,0.0
2616,71.0,48,40,7.0,0.0
2617,72.0,0,40,7.0,0.0
2618,57.0,48,40,8.0,0.0
2619,74.0,48,90,7.0,0.0
2620,56.0,48,40,8.0,0.0
2621,59.0,0,40,8.0,0.0
2622,52.0,48,40,8.0,0.0
2623,83.0,48,90,7.0,0.0
2624,56.0,0,40,8.0,0.0
2625,45.0,0,90,8.0,0.0
2626,84.0,48,40,7.0,0.0
2627,83.0,48,40,7.0,0.0
2628,48.0,0,90,8.0,0.0
2629,81.0,48,40,7.0,0.0
2630,84.0,48,40,7.0,0.0
2631,50.0,48,90,8.0,0.0
2632,83.0,48,40,7.0,0.0
2633,81.0,0,40,7.0,0.0
2634,52.0,48,90,8.0,0.0
2635,80.0,48,40,7.0,0.0
2636,83.0,0,40,7.0,0.0
2637,53.0,0,90,8.0,0.0
2638,81.0,48,40,7.0,0.0
2639,83.0,48,40,7.0,0.0
2640,81.0,48,40,7.0,0.0
2641,55.0,48,90,8.0,0.0
2642,79.0,0,40,7.0,0.0
2643,77.0,48,40,7.0,0.0
2644,57.0,0,90,8.0,0.0
2645,76.0,48,40,7.0,0.0
2646,45.0,0,90,8.0,0.0
2647,74.0,48,40,7.0,0.0
2648,73.0,48,40,7.0,0.0
2649,50.0,48,90,8.0,0.0
2650,77.0,48,40,7.0,0.0
2651,79.0,0,40,7.0,0.0
2652,77.0,48,40,7.0,0.0
2653,52.0,48,90,8.0,0.0
2654,76.0,0,40,7.0,0.0
2655,74.0,48,40,7.0,0.0
2656,53.0,48,90,8.0,0.0
2657,72.0,0,40,7.0,0.0
2658,50.0,0,90,8.0,0.0
2659,71.0,48,40,7.0,0.0
2660,69.0,48,40,7.0,0.0
2661,68.0,48,40,7.0,0.0
2662,52.0,48,90,8.0,0.0
2663,64.0,0,40,7.0,0.0
2664,66.0,48,40,7.0,0.0
2665,50.0,0,90,8.0,0.0
2666,68.0,48,40,7.0,0.0
2667,48.0,0,90,8.0,0.0
2668,69.0,48,40,7.0,0.0
2669,71.0,48,40,7.0,0.0
2670,47.0,96,90,8.0,0.0
2671,72.0,48,40,7.0,0.0
2672,74.0,0,40,7.0,0.0
2673,64.0,48,90,3.0,0.0
2674,72.0,30,150,2.0,0.0
2675,57.0,0,150,4.0,0.0
2676,81.0,0,150,1.0,0.0
2677,48.0,0,90,8.0,0.0
2678,76.0,0,90,7.0,0.0
2679,57.0,0,90,8.0,0.0
2680,45.0,0,90,8.0,0.0
2681,69.0,6,150,3.0,0.0
2682,74.0,18,40,7.0,0.0
2683,64.0,24,90,7.0,0.0
2684,72.0,0,40,7.0,0.0
2685,83.0,0,40,1.0,0.0
2686,76.0,6,150,2.0,0.0
2687,52.0,0,90,8.0,0.0
2688,52.0,0,150,4.0,0.0
2689,64.0,24,90,7.0,0.0
2690,74.0,18,40,7.0,0.0
2691,84.0,24,20,1.0,0.0
2692,57.0,0,90,8.0,0.0
2693,83.0,0,20,1.0,0.0
2694,72.0,0,40,7.0,0.0
2695,84.0,24,20,1.0,0.0
2696,83.0,0,20,1.0,0.0
2697,84.0,24,20,1.0,0.0
2698,68.0,0,90,3.0,0.0
2699,52.0,0,90,8.0,0.0
2700,56.0,0,90,8.0,0.0
2701,71.0,0,40,7.0,0.0
2702,64.0,0,90,7.0,0.0
2703,83.0,18,20,1.0,0.0
2704,72.0,0,40,7.0,0.0
2705,81.0,24,20,1.0,0.0
2706,83.0,96,20,1.0,0.0
2707,57.0,0,90,8.0,0.0
2708,45.0,48,90,8.0,0.0
2709,45.0,0,90,4.0,0.0
2710,69.0,0,90,3.0,0.0
2711,69.0,0,90,7.0,0.0
2712,76.0,0,90,2.0,0.0
2713,64.0,30,150,5.0,0.0
2714,60.0,0,150,5.0,0.0
2715,60.0,0,90,7.0,0.0
2716,84.0,0,90,1.0,0.0
2717,69.0,18,150,5.0,0.0
2718,45.0,0,90,6.0,0.0
2719,57.0,24,90,6.0,0.0
2720,71.0,0,40,5.0,0.0
2721,56.0,0,90,6.0,0.0
2722,72.0,24,20,5.0,0.0
2723,59.0,0,90,6.0,0.0
2724,64.0,6,150,5.0,0.0
2725,71.0,24,20,5.0,0.0
2726,72.0,24,20,5.0,0.0
2727,71.0,24,20,5.0,0.0
2728,52.0,0,90,6.0,0.0
2729,56.0,96,90,6.0,0.0
2730,72.0,24,20,5.0,0.0
2731,71.0,18,20,5.0,0.0
2732,69.0,24,20,5.0,0.0
2733,71.0,0,20,5.0,0.0
2734,57.0,0,90,6.0,0.0
2735,45.0,0,90,6.0,0.0
2736,64.0,30,150,7.0,0.0
2737,69.0,18,150,7.0,0.0
2738,60.0,0,150,7.0,0.0
2739,72.0,0,90,5.0,0.0
2740,64.0,0,90,5.0,0.0
2741,45.0,48,90,8.0,0.0
2742,57.0,0,90,8.0,0.0
2743,71.0,24,40,7.0,0.0
2744,56.0,0,90,8.0,0.0
2745,59.0,0,90,8.0,0.0
2746,72.0,24,20,7.0,0.0
2747,64.0,6,150,7.0,0.0
2748,71.0,24,20,7.0,0.0
2749,72.0,24,20,7.0,0.0
2750,76.0,0,40,5.0,0.0
2751,71.0,24,20,7.0,0.0
2752,56.0,96,90,8.0,0.0
2753,74.0,18,40,5.0,0.0
2754,52.0,0,90,8.0,0.0
2755,72.0,24,20,7.0,0.0
2756,71.0,0,20,7.0,0.0
2757,69.0,24,20,7.0,0.0
2758,76.0,0,40,5.0,0.0
2759,71.0,0,20,7.0,0.0
2760,57.0,0,90,8.0,0.0
2761,45.0,0,90,8.0,0.0
2762,64.0,48,90,7.0,0.0
2763,72.0,0,90,7.0,0.0
2764,72.0,0,90,5.0,0.0
2765,69.0,0,40,6.0,0.0
2766,76.0,48,90,5.0,0.0
2767,67.0,48,40,6.0,0.0
2768,69.0,0,40,6.0,0.0
2769,65.0,0,90,6.0,0.0
2770,81.0,48,40,5.0,0.0
2771,74.0,48,40,5.0,0.0
2772,79.0,48,40,5.0,0.0
2773,64.0,0,90,6.0,0.0
2774,73.0,96,40,5.0,0.0
2775,69.0,0,150,7.0,0.0
2776,62.0,48,90,6.0,0.0
2777,74.0,18,150,7.0,0.0
2778,74.0,0,90,5.0,0.0
2779,50.0,0,90,8.0,0.0
2780,65.0,30,150,7.0,0.0
2781,77.0,0,90,5.0,0.0
2782,62.0,0,90,8.0,0.0
2783,76.0,24,40,7.0,0.0
2784,61.0,0,90,8.0,0.0
2785,64.0,0,90,8.0,0.0
2786,69.0,6,150,7.0,0.0
2787,77.0,24,20,7.0,0.0
2788,76.0,24,20,7.0,0.0
2789,77.0,24,20,7.0,0.0
2790,76.0,24,20,7.0,0.0
2791,61.0,0,90,8.0,0.0
2792,57.0,0,90,8.0,0.0
2793,77.0,24,20,7.0,0.0
2794,76.0,18,20,7.0,0.0
2795,74.0,24,20,7.0,0.0
2796,76.0,96,20,7.0,0.0
2797,69.0,0,150,5.0,0.0
2798,65.0,30,150,5.0,0.0
2799,50.0,0,90,8.0,0.0
2800,74.0,18,150,5.0,0.0
2801,62.0,0,90,8.0,0.0
2802,69.0,0,90,7.0,0.0
2803,77.0,0,90,7.0,0.0
2804,50.0,48,90,6.0,0.0
2805,62.0,0,90,6.0,0.0
2806,76.0,24,40,5.0,0.0
2807,64.0,24,90,6.0,0.0
2808,61.0,0,90,6.0,0.0
2809,69.0,6,150,5.0,0.0
2810,77.0,24,20,5.0,0.0
2811,76.0,24,20,5.0,0.0
2812,77.0,24,20,5.0,0.0
2813,69.0,0,40,7.0,0.0
2814,76.0,0,20,5.0,0.0
2815,77.0,24,20,5.0,0.0
2816,67.0,0,40,7.0,0.0
2817,57.0,96,90,6.0,0.0
2818,61.0,0,90,6.0,0.0
2819,76.0,18,20,5.0,0.0
2820,69.0,0,40,7.0,0.0
2821,74.0,24,20,5.0,0.0
2822,76.0,0,20,5.0,0.0
2823,77.0,0,90,5.0,0.0
2824,65.0,0,90,7.0,0.0
2825,62.0,0,90,6.0,0.0
2826,69.0,48,90,5.0,0.0
2827,50.0,0,90,6.0,0.0
2828,62.0,0,40,8.0,0.0
2829,69.0,0,90,7.0,0.0
2830,60.0,48,40,8.0,0.0
2831,62.0,48,40,8.0,0.0
2832,59.0,0,90,8.0,0.0
2833,74.0,48,40,7.0,0.0
2834,67.0,48,40,7.0,0.0
2835,50.0,0,90,6.0,0.0
2836,57.0,0,90,8.0,0.0
2837,72.0,48,40,7.0,0.0
2838,69.0,48,90,5.0,0.0
2839,74.0,0,90,5.0,0.0
2840,66.0,0,40,7.0,0.0
2841,71.0,0,90,7.0,0.0
2842,55.0,48,40,6.0,0.0
2843,74.0,0,90,5.0,0.0
2844,71.0,48,90,5.0,0.0
2845,55.0,0,90,8.0,0.0
2846,67.0,0,90,7.0,0.0
2847,57.0,0,40,6.0,0.0
2848,67.0,48,40,5.0,0.0
2849,71.0,0,40,5.0,0.0
2850,59.0,0,40,6.0,0.0
2851,69.0,0,40,5.0,0.0
2852,57.0,0,40,6.0,0.0
2853,72.0,48,40,5.0,0.0
2854,74.0,48,90,5.0,0.0
2855,71.0,0,90,5.0,0.0
2856,55.0,48,40,6.0,0.0
2857,59.0,0,40,6.0,0.0
2858,50.0,0,40,6.0,0.0
2859,74.0,0,40,5.0,0.0
2860,71.0,48,40,5.0,0.0
2861,72.0,48,40,5.0,0.0
2862,76.0,0,40,5.0,0.0
2863,55.0,0,40,6.0,0.0
2864,47.0,48,40,6.0,0.0
2865,77.0,0,90,5.0,0.0
2866,74.0,0,90,5.0,0.0
2867,50.0,26,40,6.0,0.0
2868,43.0,2,40,6.0,0.0
2869,79.0,0,40,5.0,0.0
2870,76.0,0,40,5.0,0.0
2871,76.0,0,20,2.0,0.0
2872,67.0,2,90,3.0,0.0
2873,79.0,22,20,1.0,0.0
2874,77.0,46,20,1.0,0.0
2875,74.0,0,20,2.0,0.0
2876,48.0,0,40,6.0,0.0
2877,76.0,46,40,1.0,0.0
2878,72.0,0,40,2.0,0.0
2879,76.0,0,40,5.0,0.0
2880,72.0,0,40,5.0,0.0
2881,77.0,0,90,5.0,0.0
2882,77.0,0,90,1.0,0.0
2883,47.0,48,40,6.0,0.0
2884,55.0,0,90,3.0,0.0
2885,74.0,0,90,2.0,0.0
2886,74.0,0,90,5.0,0.0
2887,50.0,48,40,6.0,0.0
2888,43.0,48,90,8.0,0.0
2889,59.0,0,90,8.0,0.0
2890,62.0,0,90,7.0,0.0
2891,43.0,48,40,6.0,0.0
2892,67.0,0,90,7.0,0.0
2893,47.0,0,40,6.0,0.0
2894,48.0,48,40,8.0,0.0
2895,55.0,0,90,8.0,0.0
2896,67.0,0,90,7.0,0.0
2897,64.0,0,90,7.0,0.0
2898,48.0,48,90,6.0,0.0
2899,50.0,0,40,8.0,0.0
2900,60.0,48,40,7.0,0.0
2901,52.0,0,40,8.0,0.0
2902,36.0,0,90,6.0,0.0
2903,64.0,0,40,7.0,0.0
2904,65.0,0,40,7.0,0.0
2905,62.0,0,40,7.0,0.0
2906,50.0,48,40,8.0,0.0
2907,48.0,48,40,8.0,0.0
2908,67.0,0,90,7.0,0.0
2909,64.0,0,90,7.0,0.0
2910,52.0,48,40,8.0,0.0
2911,43.0,48,40,8.0,0.0
2912,67.0,0,40,7.0,0.0
2913,64.0,0,40,7.0,0.0
2914,69.0,0,40,7.0,0.0
2915,65.0,0,40,7.0,0.0
2916,48.0,48,40,8.0,0.0
2917,67.0,0,90,7.0,0.0
2918,70.0,0,90,7.0,0.0
2919,40.0,48,40,8.0,0.0
2920,43.0,26,40,8.0,0.0
2921,69.0,2,40,7.0,0.0
2922,69.0,0,20,2.0,0.0
2923,72.0,22,20,1.0,0.0
2924,60.0,0,90,3.0,0.0
2925,36.0,0,40,8.0,0.0
2926,72.0,0,40,7.0,0.0
2927,67.0,0,20,2.0,0.0
2928,70.0,46,20,1.0,0.0
2929,65.0,0,40,7.0,0.0
2930,41.0,0,40,8.0,0.0
2931,69.0,2,40,7.0,0.0
2932,65.0,0,40,2.0,0.0
2933,69.0,46,40,1.0,0.0
2934,40.0,48,40,8.0,0.0
2935,67.0,0,90,2.0,0.0
2936,70.0,0,90,7.0,0.0
2937,70.0,0,90,1.0,0.0
2938,67.0,0,90,7.0,0.0
2939,48.0,48,90,3.0,0.0
2940,43.0,0,40,8.0,0.0
2941,60.0,0,90,6.0,0.0
2942,52.0,0,90,6.0,0.0
2943,52.0,96,90,4.0,0.0
2944,36.0,48,40,8.0,0.0
2945,67.0,0,90,2.0,0.0
2946,67.0,0,90,5.0,0.0
2947,60.0,0,90,7.0,0.0
2948,67.0,0,90,7.0,0.0
2949,67.0,0,90,1.0,0.0
2950,60.0,0,90,3.0,0.0
2951,40.0,0,40,8.0,0.0
2952,60.0,0,90,6.0,0.0
2953,53.0,0,90,6.0,0.0
2954,67.0,0,90,5.0,0.0
2955,69.0,0,90,5.0,0.0
2956,69.0,0,90,1.0,0.0
2957,60.0,96,90,3.0,0.0
2958,41.0,0,90,8.0,0.0
2959,67.0,0,90,2.0,0.0
2960,53.0,0,90,4.0,0.0
2961,69.0,0,90,7.0,0.0
2962,67.0,0,90,7.0,0.0
2963,60.0,0,90,7.0,0.0
2964,50.0,0,90,4.0,0.0
2965,62.0,0,90,6.0,0.0
2966,50.0,48,90,6.0,0.0
2967,65.0,0,90,2.0,0.0
2968,71.0,0,90,7.0,0.0
2969,62.0,0,90,7.0,0.0
2970,62.0,0,90,3.0,0.0
2971,65.0,0,90,7.0,0.0
2972,71.0,0,90,1.0,0.0
2973,50.0,0,90,8.0,0.0
2974,71.0,0,90,5.0,0.0
2975,65.0,0,90,5.0,0.0
2976,55.0,0,90,6.0,0.0
2977,72.0,0,40,1.0,0.0
2978,52.0,0,90,8.0,0.0
2979,55.0,0,90,8.0,0.0
2980,55.0,0,90,3.0,0.0
2981,52.0,0,90,6.0,0.0
2982,67.0,0,150,7.0,0.0
2983,72.0,0,40,7.0,0.0
2984,67.0,0,90,2.0,0.0
2985,67.0,30,150,5.0,0.0
2986,52.0,0,90,4.0,0.0
2987,72.0,48,40,5.0,0.0
2988,74.0,48,40,1.0,0.0
2989,74.0,0,40,7.0,0.0
2990,74.0,0,40,5.0,0.0
2991,48.0,0,90,8.0,0.0
2992,48.0,0,90,4.0,0.0
2993,72.0,0,90,2.0,0.0
2994,76.0,18,40,7.0,0.0
2995,60.0,0,90,8.0,0.0
2996,76.0,0,40,5.0,0.0
2997,67.0,0,90,3.0,0.0
2998,48.0,0,90,6.0,0.0
2999,60.0,48,90,6.0,0.0
3000,76.0,0,40,1.0,0.0
3001,72.0,0,40,5.0,0.0
3002,72.0,0,40,1.0,0.0
3003,72.0,0,40,7.0,0.0
3004,74.0,0,40,1.0,0.0
3005,59.0,0,90,8.0,0.0
3006,55.0,0,90,8.0,0.0
3007,67.0,0,90,7.0,0.0
3008,74.0,0,40,7.0,0.0
3009,67.0,48,90,5.0,0.0
3010,74.0,48,40,5.0,0.0
3011,59.0,0,90,6.0,0.0
3012,55.0,0,90,6.0,0.0
3013,55.0,0,90,4.0,0.0
3014,67.0,0,90,3.0,0.0
3015,71.0,0,90,2.0,0.0
3016,72.0,0,40,1.0,0.0
3017,72.0,0,40,5.0,0.0
3018,72.0,0,40,7.0,0.0
3019,71.0,0,40,5.0,0.0
3020,43.0,0,90,4.0,0.0
3021,71.0,48,40,7.0,0.0
3022,67.0,96,90,2.0,0.0
3023,71.0,0,40,1.0,0.0
3024,62.0,0,90,3.0,0.0
3025,69.0,0,40,1.0,0.0
3026,69.0,0,40,7.0,0.0
3027,69.0,0,40,5.0,0.0
3028,59.0,0,90,3.0,0.0
3029,67.0,48,90,5.0,0.0
3030,62.0,0,90,2.0,0.0
3031,67.0,0,90,7.0,0.0
3032,67.0,0,90,1.0,0.0
3033,55.0,0,40,6.0,0.0
3034,79.0,0,90,5.0,0.0
3035,57.0,48,40,6.0,0.0
3036,59.0,48,40,6.0,0.0
3037,60.0,48,40,6.0,0.0
3038,76.0,48,90,5.0,0.0
3039,62.0,0,40,6.0,0.0
3040,64.0,0,40,6.0,0.0
3041,72.0,48,40,5.0,0.0
3042,62.0,48,40,6.0,0.0
3043,74.0,0,40,5.0,0.0
3044,60.0,48,40,6.0,0.0
3045,76.0,0,90,5.0,0.0
3046,48.0,0,40,8.0,0.0
3047,58.0,48,40,6.0,0.0
3048,77.0,0,40,5.0,0.0
3049,50.0,0,40,8.0,0.0
3050,72.0,0,90,7.0,0.0
3051,57.0,48,40,6.0,0.0
3052,52.0,0,40,8.0,0.0
3053,79.0,0,40,5.0,0.0
3054,55.0,48,40,6.0,0.0
3055,53.0,0,90,6.0,0.0
3056,53.0,48,40,8.0,0.0
3057,81.0,48,90,5.0,0.0
3058,69.0,0,90,7.0,0.0
3059,55.0,0,40,8.0,0.0
3060,57.0,48,40,8.0,0.0
3061,41.0,0,90,6.0,0.0
3062,84.0,0,40,5.0,0.0
3063,81.0,0,90,1.0,0.0
3064,72.0,0,90,3.0,0.0
3065,77.0,0,90,2.0,0.0
3066,65.0,0,40,7.0,0.0
3067,53.0,0,90,4.0,0.0
3068,82.0,0,40,5.0,0.0
3069,67.0,48,40,7.0,0.0
3070,55.0,0,40,8.0,0.0
3071,53.0,48,40,8.0,0.0
3072,81.0,0,90,1.0,0.0
3073,72.0,0,90,3.0,0.0
3074,41.0,0,90,4.0,0.0
3075,77.0,0,90,2.0,0.0
3076,81.0,48,90,5.0,0.0
3077,69.0,0,90,7.0,0.0
3078,53.0,0,40,6.0,0.0
3079,52.0,0,40,8.0,0.0
3080,50.0,0,40,8.0,0.0
3081,77.0,0,90,5.0,0.0
3082,71.0,0,40,7.0,0.0
3083,55.0,48,40,6.0,0.0
3084,48.0,0,40,8.0,0.0
3085,72.0,48,40,7.0,0.0
3086,57.0,0,40,6.0,0.0
3087,59.0,48,40,6.0,0.0
3088,74.0,48,90,5.0,0.0
3089,74.0,0,90,7.0,0.0
3090,47.0,0,90,8.0,0.0
3091,60.0,0,40,6.0,0.0
3092,77.0,0,90,2.0,0.0
3093,71.0,0,40,5.0,0.0
3094,59.0,0,90,4.0,0.0
3095,81.0,0,90,1.0,0.0
3096,59.0,0,90,8.0,0.0
3097,77.0,48,40,7.0,0.0
3098,62.0,0,40,6.0,0.0
3099,74.0,0,90,3.0,0.0
3100,76.0,0,40,7.0,0.0
3101,72.0,48,40,5.0,0.0
3102,60.0,0,40,6.0,0.0
3103,47.0,48,90,4.0,0.0
3104,74.0,0,90,7.0,0.0
3105,74.0,0,90,5.0,0.0
3106,77.0,0,90,2.0,0.0
3107,74.0,0,90,3.0,0.0
3108,81.0,0,90,1.0,0.0
3109,59.0,48,40,6.0,0.0
3110,47.0,0,40,8.0,0.0
3111,57.0,0,40,6.0,0.0
3112,48.0,48,40,8.0,0.0
3113,76.0,0,40,5.0,0.0
3114,55.0,0,40,6.0,0.0
3115,71.0,0,90,7.0,0.0
3116,50.0,0,40,8.0,0.0
3117,53.0,0,40,6.0,0.0
3118,77.0,48,40,5.0,0.0
3119,52.0,48,40,8.0,0.0
3120,79.0,0,90,5.0,0.0
3121,52.0,0,90,6.0,0.0
3122,67.0,48,90,7.0,0.0
3123,53.0,0,40,8.0,0.0
3124,76.0,0,90,2.0,0.0
3125,71.0,0,90,3.0,0.0
3126,55.0,48,40,8.0,0.0
3127,52.0,0,90,4.0,0.0
3128,83.0,0,40,5.0,0.0
3129,79.0,0,90,1.0,0.0
3130,64.0,0,40,7.0,0.0
3131,40.0,0,90,6.0,0.0
3132,65.0,48,40,7.0,0.0
3133,81.0,0,40,5.0,0.0
3134,53.0,0,40,8.0,0.0
3135,76.0,0,90,2.0,0.0
3136,79.0,0,90,5.0,0.0
3137,40.0,0,90,4.0,0.0
3138,71.0,0,90,3.0,0.0
3139,52.0,48,40,8.0,0.0
3140,67.0,0,90,7.0,0.0
3141,79.0,0,90,1.0,0.0
3142,50.0,48,40,8.0,0.0
3143,52.0,0,40,6.0,0.0
3144,53.0,0,40,6.0,0.0
3145,69.0,0,40,7.0,0.0
3146,48.0,48,40,8.0,0.0
3147,76.0,0,90,5.0,0.0
3148,55.0,48,40,6.0,0.0
3149,71.0,0,40,7.0,0.0
3150,47.0,0,40,8.0,0.0
3151,45.0,0,90,8.0,0.0
3152,72.0,48,90,7.0,0.0
3153,72.0,0,90,5.0,0.0
3154,57.0,48,40,6.0,0.0
3155,59.0,0,40,6.0,0.0
3156,60.0,0,40,6.0,0.0
3157,79.0,0,90,1.0,0.0
3158,69.0,0,40,5.0,0.0
3159,72.0,48,90,3.0,0.0
3160,76.0,0,90,2.0,0.0
3161,57.0,0,90,8.0,0.0
3162,57.0,0,90,4.0,0.0
3163,76.0,48,40,7.0,0.0
3164,74.0,0,40,7.0,0.0
3165,71.0,0,40,5.0,0.0
3166,59.0,0,40,6.0,0.0
3167,45.0,0,90,4.0,0.0
3168,57.0,48,40,6.0,0.0
3169,72.0,0,90,3.0,0.0
3170,76.0,0,90,2.0,0.0
3171,79.0,0,90,1.0,0.0
3172,72.0,48,90,7.0,0.0
3173,72.0,0,90,5.0,0.0
3174,55.0,0,40,6.0,0.0
3175,45.0,0,40,8.0,0.0
3176,47.0,0,40,8.0,0.0
3177,74.0,0,40,5.0,0.0
3178,53.0,48,40,6.0,0.0
3179,69.0,48,90,7.0,0.0
3180,48.0,0,40,8.0,0.0
3181,76.0,0,40,5.0,0.0
3182,52.0,0,40,6.0,0.0
3183,65.0,0,90,7.0,0.0
3184,50.0,0,90,6.0,0.0
3185,77.0,0,90,5.0,0.0
3186,50.0,48,40,8.0,0.0
3187,52.0,48,40,8.0,0.0
3188,50.0,0,90,4.0,0.0
3189,81.0,0,40,5.0,0.0
3190,69.0,0,90,3.0,0.0
3191,77.0,0,90,1.0,0.0
3192,62.0,0,40,7.0,0.0
3193,53.0,48,40,8.0,0.0
3194,74.0,0,90,2.0,0.0
3195,38.0,48,90,6.0,0.0
3196,52.0,0,40,8.0,0.0
3197,79.0,0,40,5.0,0.0
3198,64.0,0,40,7.0,0.0
3199,77.0,48,90,1.0,0.0
3200,65.0,0,90,7.0,0.0
3201,69.0,0,90,3.0,0.0
3202,77.0,0,90,5.0,0.0
3203,38.0,0,90,4.0,0.0
3204,74.0,0,90,2.0,0.0
3205,50.0,48,40,8.0,0.0
3206,48.0,0,40,8.0,0.0
3207,50.0,0,40,6.0,0.0
3208,47.0,0,40,8.0,0.0
3209,74.0,48,90,5.0,0.0
3210,52.0,0,40,6.0,0.0
3211,67.0,48,40,7.0,0.0
3212,45.0,0,40,8.0,0.0
3213,53.0,0,40,6.0,0.0
3214,69.0,0,40,7.0,0.0
3215,71.0,0,90,7.0,0.0
3216,55.0,48,40,6.0,0.0
3217,43.0,0,90,8.0,0.0
3218,71.0,48,90,5.0,0.0
3219,57.0,0,40,6.0,0.0
3220,74.0,0,40,7.0,0.0
3221,67.0,48,40,5.0,0.0
3222,55.0,0,90,8.0,0.0
3223,59.0,0,40,6.0,0.0
3224,77.0,0,90,1.0,0.0
3225,74.0,0,90,2.0,0.0
3226,55.0,48,90,4.0,0.0
3227,71.0,0,90,3.0,0.0
3228,57.0,0,40,6.0,0.0
3229,72.0,0,40,7.0,0.0
3230,69.0,0,40,5.0,0.0
3231,55.0,48,40,6.0,0.0
3232,71.0,48,90,5.0,0.0
3233,43.0,0,90,4.0,0.0
3234,77.0,0,90,1.0,0.0
3235,71.0,0,90,3.0,0.0
3236,71.0,0,90,7.0,0.0
3237,74.0,0,90,2.0,0.0
3238,53.0,0,40,6.0,0.0
3239,43.0,0,40,8.0,0.0
3240,45.0,0,40,8.0,0.0
3241,72.0,48,40,5.0,0.0
3242,52.0,0,40,6.0,0.0
3243,67.0,0,90,7.0,0.0
3244,74.0,48,40,5.0,0.0
3245,50.0,0,40,6.0,0.0
3246,47.0,0,40,8.0,0.0
3247,48.0,48,40,8.0,0.0
3248,76.0,0,90,5.0,0.0
3249,48.0,0,90,6.0,0.0
3250,64.0,0,90,7.0,0.0
3251,50.0,48,40,8.0,0.0
3252,52.0,0,40,8.0,0.0
3253,67.0,0,90,3.0,0.0
3254,48.0,0,90,4.0,0.0
3255,36.0,0,90,6.0,0.0
3256,76.0,0,90,1.0,0.0
3257,72.0,48,90,2.0,0.0
3258,60.0,48,40,7.0,0.0
3259,50.0,0,40,8.0,0.0
3260,62.0,0,40,7.0,0.0
3261,76.0,0,90,1.0,0.0
3262,67.0,0,90,3.0,0.0
3263,64.0,0,90,7.0,0.0
3264,36.0,0,90,4.0,0.0
3265,48.0,48,40,8.0,0.0
3266,72.0,0,90,2.0,0.0
3267,79.0,0,40,5.0,0.0
3268,47.0,48,40,8.0,0.0
3269,62.0,0,40,6.0,0.0
3270,60.0,0,40,6.0,0.0
3271,66.0,0,40,7.0,0.0
3272,45.0,0,40,8.0,0.0
3273,81.0,48,40,5.0,0.0
3274,83.0,0,40,5.0,0.0
3275,59.0,0,40,6.0,0.0
3276,67.0,48,40,7.0,0.0
3277,43.0,0,40,8.0,0.0
3278,42.0,0,90,8.0,0.0
3279,72.0,0,40,5.0,0.0
3280,57.0,48,40,6.0,0.0
3281,69.0,0,90,7.0,0.0
3282,67.0,48,40,6.0,0.0
3283,83.0,0,40,5.0,0.0
3284,81.0,0,40,5.0,0.0
3285,66.0,48,40,6.0,0.0
3286,54.0,48,90,8.0,0.0
3287,64.0,0,40,6.0,0.0
3288,79.0,0,40,5.0,0.0
3289,66.0,48,40,6.0,0.0
3290,81.0,0,40,5.0,0.0
3291,73.0,0,40,5.0,0.0
3292,57.0,48,40,6.0,0.0
3293,59.0,48,40,6.0,0.0
3294,75.0,0,40,5.0,0.0
3295,66.0,0,40,6.0,0.0
3296,81.0,48,40,5.0,0.0
3297,60.0,0,40,6.0,0.0
3298,76.0,48,40,5.0,0.0
3299,66.0,0,40,6.0,0.0
3300,81.0,48,40,5.0,0.0
3301,64.0,0,40,6.0,0.0
3302,79.0,48,40,5.0,0.0
3303,63.0,0,40,6.0,0.0
3304,78.0,96,40,5.0,0.0
3305,79.0,0,90,5.0,0.0
3306,64.0,0,90,6.0,0.0
3307,76.0,0,40,7.0,0.0
3308,67.0,48,40,8.0,0.0
3309,69.0,0,40,8.0,0.0
3310,78.0,48,40,7.0,0.0
3311,71.0,0,40,8.0,0.0
3312,79.0,48,40,7.0,0.0
3313,69.0,0,40,7.0,0.0
3314,61.0,48,40,8.0,0.0
3315,71.0,48,40,8.0,0.0
3316,79.0,0,40,7.0,0.0
3317,78.0,0,40,7.0,0.0
3318,69.0,48,40,8.0,0.0
3319,67.0,0,40,8.0,0.0
3320,76.0,48,40,7.0,0.0
3321,69.0,48,40,8.0,0.0
3322,78.0,0,40,7.0,0.0
3323,61.0,48,40,8.0,0.0
3324,69.0,0,40,7.0,0.0
3325,63.0,48,40,8.0,0.0
3326,71.0,0,40,7.0,0.0
3327,69.0,0,40,8.0,0.0
3328,78.0,48,40,7.0,0.0
3329,64.0,48,40,8.0,0.0
3330,67.0,0,40,7.0,0.0
3331,78.0,0,40,7.0,0.0
3332,69.0,48,40,8.0,0.0
3333,76.0,48,40,7.0,0.0
3334,67.0,0,40,8.0,0.0
3335,75.0,0,40,7.0,0.0
3336,66.0,96,40,8.0,0.0
3337,67.0,96,90,8.0,0.0
3338,76.0,0,90,7.0,0.0
3339,43.0,0,90,4.0,0.0
3340,71.0,0,90,7.0,0.0
3341,55.0,0,90,6.0,0.0
3342,64.0,0,90,6.0,0.0
3343,71.0,0,90,1.0,0.0
3344,64.0,0,90,3.0,0.0
3345,71.0,0,90,2.0,0.0
3346,64.0,0,90,8.0,0.0
3347,55.0,0,90,8.0,0.0
3348,71.0,96,90,5.0,0.0
3349,71.0,0,90,5.0,0.0
3350,73.0,0,90,7.0,0.0
3351,71.0,0,90,7.0,0.0
3352,64.0,96,90,3.0,0.0
3353,71.0,0,90,2.0,0.0
3354,45.0,0,90,4.0,0.0
3355,73.0,0,90,1.0,0.0
3356,64.0,0,90,8.0,0.0
3357,57.0,0,90,6.0,0.0
3358,57.0,0,90,8.0,0.0
3359,73.0,0,90,5.0,0.0
3360,64.0,0,90,6.0,0.0
3361,66.0,48,90,8.0,0.0
3362,69.0,0,90,7.0,0.0
3363,75.0,0,90,7.0,0.0
3364,75.0,0,90,1.0,0.0
3365,54.0,0,90,6.0,0.0
3366,42.0,0,90,4.0,0.0
3367,66.0,0,90,6.0,0.0
3368,54.0,0,90,8.0,0.0
3369,66.0,0,90,3.0,0.0
3370,75.0,0,90,5.0,0.0
3371,69.0,0,90,5.0,0.0
3372,69.0,0,90,2.0,0.0
3373,76.0,0,40,1.0,0.0
3374,76.0,0,40,5.0,0.0
3375,76.0,48,40,7.0,0.0
3376,71.0,30,150,7.0,0.0
3377,55.0,0,90,6.0,0.0
3378,59.0,0,90,6.0,0.0
3379,71.0,0,90,2.0,0.0
3380,59.0,0,90,8.0,0.0
3381,43.0,0,90,4.0,0.0
3382,55.0,0,90,8.0,0.0
3383,71.0,0,150,5.0,0.0
3384,59.0,0,90,3.0,0.0
3385,78.0,0,40,7.0,0.0
3386,78.0,48,40,1.0,0.0
3387,78.0,0,40,5.0,0.0
3388,79.0,0,40,7.0,0.0
3389,40.0,0,90,4.0,0.0
3390,76.0,48,90,2.0,0.0
3391,52.0,0,90,6.0,0.0
3392,71.0,0,90,3.0,0.0
3393,64.0,0,90,6.0,0.0
3394,79.0,18,40,5.0,0.0
3395,64.0,0,90,8.0,0.0
3396,52.0,0,90,8.0,0.0
3397,79.0,0,40,1.0,0.0
3398,76.0,0,40,5.0,0.0
3399,76.0,0,40,7.0,0.0
3400,76.0,0,40,1.0,0.0
3401,75.0,30,1410,2.0,0.0
3402,75.0,48,40,7.0,0.0
3403,81.0,0,1410,1.0,0.0
3404,71.0,30,150,3.0,0.0
3405,59.0,0,90,6.0,0.0
3406,66.0,0,90,6.0,0.0
3407,47.0,0,1410,4.0,0.0
3408,81.0,0,40,5.0,0.0
3409,47.0,0,90,8.0,0.0
3410,81.0,48,40,7.0,0.0
3411,78.0,0,40,5.0,0.0
3412,73.0,18,40,7.0,0.0
3413,81.0,0,40,5.0,0.0
3414,49.0,48,90,8.0,0.0
3415,76.0,0,40,5.0,0.0
3416,81.0,0,40,7.0,0.0
3417,51.0,48,90,8.0,0.0
3418,66.0,0,90,6.0,0.0
3419,71.0,0,40,7.0,0.0
3420,81.0,48,40,5.0,0.0
3421,66.0,0,1230,3.0,0.0
3422,81.0,0,40,7.0,0.0
3423,75.0,0,40,5.0,0.0
3424,64.0,48,90,6.0,0.0
3425,73.0,0,40,7.0,0.0
3426,52.0,0,90,8.0,0.0
3427,81.0,48,40,5.0,0.0
3428,81.0,0,40,7.0,0.0
3429,73.0,0,40,5.0,0.0
3430,81.0,0,40,5.0,0.0
3431,75.0,48,40,7.0,0.0
3432,63.0,0,90,6.0,0.0
3433,54.0,48,90,8.0,0.0
3434,71.0,0,40,5.0,0.0
3435,81.0,0,40,7.0,0.0
3436,52.0,48,90,8.0,0.0
3437,61.0,0,90,6.0,0.0
3438,81.0,0,40,5.0,0.0
3439,76.0,48,40,7.0,0.0
3440,73.0,0,40,5.0,0.0
3441,81.0,0,40,7.0,0.0
3442,59.0,48,90,6.0,0.0
3443,78.0,0,40,7.0,0.0
3444,51.0,0,90,8.0,0.0
3445,81.0,48,40,5.0,0.0
3446,81.0,0,40,7.0,0.0
3447,75.0,0,40,5.0,0.0
3448,61.0,0,90,6.0,0.0
3449,76.0,0,40,7.0,0.0
3450,81.0,48,40,5.0,0.0
3451,49.0,0,90,8.0,0.0
3452,81.0,0,40,7.0,0.0
3453,76.0,48,40,5.0,0.0
3454,81.0,0,40,5.0,0.0
3455,47.0,0,90,8.0,0.0
3456,75.0,48,40,7.0,0.0
3457,63.0,48,90,6.0,0.0
3458,81.0,0,40,7.0,0.0
3459,78.0,0,40,5.0,0.0
3460,81.0,48,40,5.0,0.0
3461,73.0,0,40,7.0,0.0
3462,64.0,48,90,6.0,0.0
3463,49.0,0,90,8.0,0.0
3464,76.0,0,40,5.0,0.0
3465,81.0,0,40,7.0,0.0
3466,51.0,48,90,8.0,0.0
3467,81.0,0,40,5.0,0.0
3468,71.0,48,40,7.0,0.0
3469,66.0,0,90,6.0,0.0
3470,75.0,0,40,5.0,0.0
3471,81.0,0,40,7.0,0.0
3472,64.0,0,90,6.0,0.0
3473,73.0,48,40,7.0,0.0
3474,52.0,48,90,8.0,0.0
3475,81.0,0,40,5.0,0.0
3476,73.0,0,40,5.0,0.0
3477,81.0,0,40,7.0,0.0
3478,75.0,0,40,7.0,0.0
3479,81.0,48,40,5.0,0.0
3480,63.0,0,90,6.0,0.0
3481,54.0,0,90,8.0,0.0
3482,71.0,48,40,5.0,0.0
3483,81.0,0,40,7.0,0.0
3484,76.0,0,40,7.0,0.0
3485,52.0,0,90,8.0,0.0
3486,61.0,0,90,6.0,0.0
3487,81.0,48,40,5.0,0.0
3488,81.0,0,40,7.0,0.0
3489,73.0,48,40,5.0,0.0
3490,81.0,0,40,5.0,0.0
3491,51.0,0,90,8.0,0.0
3492,59.0,48,90,6.0,0.0
3493,78.0,18,40,7.0,0.0
3494,75.0,0,40,5.0,0.0
3495,81.0,0,40,7.0,0.0
3496,79.0,0,40,7.0,0.0
3497,47.0,48,90,8.0,0.0
3498,59.0,0,90,4.0,0.0
3499,76.0,0,40,2.0,0.0
3500,71.0,0,90,3.0,0.0
3501,71.0,0,90,6.0,0.0
3502,79.0,0,40,1.0,0.0
3503,76.0,48,40,5.0,0.0
3504,75.0,0,40,5.0,0.0
3505,75.0,0,40,2.0,0.0
3506,78.0,0,40,1.0,0.0
3507,78.0,0,40,7.0,0.0
3508,67.0,0,90,6.0,0.0
3509,76.0,0,90,2.0,0.0
3510,79.0,0,90,1.0,0.0
3511,71.0,0,90,3.0,0.0
3512,76.0,0,40,5.0,0.0
3513,79.0,48,40,7.0,0.0
3514,52.0,0,90,4.0,0.0
3515,52.0,48,90,8.0,0.0
3516,79.0,0,40,5.0,0.0
3517,76.0,0,40,7.0,0.0
3518,83.0,0,40,5.0,0.0
3519,79.0,48,40,7.0,0.0
3520,40.0,0,90,8.0,0.0
3521,64.0,0,90,6.0,0.0
3522,76.0,48,40,5.0,0.0
3523,71.0,0,40,7.0,0.0
3524,69.0,48,40,7.0,0.0
3525,76.0,48,90,2.0,0.0
3526,69.0,0,90,3.0,0.0
3527,45.0,0,90,4.0,0.0
3528,84.0,0,90,1.0,0.0
3529,84.0,48,240,5.0,0.0
3530,60.0,0,40,6.0,0.0
3531,79.0,0,40,7.0,0.0
3532,45.0,0,40,8.0,0.0
3533,78.0,0,40,7.0,0.0
3534,47.0,48,40,8.0,0.0
3535,62.0,0,40,6.0,0.0
3536,76.0,0,40,7.0,0.0
3537,48.0,0,40,8.0,0.0
3538,64.0,48,40,6.0,0.0
3539,50.0,0,90,4.0,0.0
3540,50.0,0,90,8.0,0.0
3541,69.0,0,90,3.0,0.0
3542,84.0,0,90,1.0,0.0
3543,78.0,0,90,2.0,0.0
3544,78.0,0,40,7.0,0.0
3545,57.0,0,90,6.0,0.0
3546,74.0,0,40,7.0,0.0
3547,78.0,48,40,5.0,0.0
3548,38.0,0,90,8.0,0.0
3549,81.0,0,40,5.0,0.0
3550,62.0,0,90,6.0,0.0
3551,78.0,48,40,7.0,0.0
3552,74.0,0,40,5.0,0.0
3553,69.0,48,40,7.0,0.0
3554,77.0,0,90,2.0,0.0
3555,67.0,0,90,3.0,0.0
3556,67.0,48,40,7.0,0.0
3557,83.0,48,240,5.0,0.0
3558,83.0,0,90,1.0,0.0
3559,43.0,48,90,4.0,0.0
3560,77.0,0,40,7.0,0.0
3561,59.0,0,40,6.0,0.0
3562,43.0,0,40,8.0,0.0
3563,60.0,48,40,6.0,0.0
3564,45.0,0,40,8.0,0.0
3565,76.0,0,40,7.0,0.0
3566,62.0,0,40,6.0,0.0
3567,47.0,0,40,8.0,0.0
3568,74.0,48,40,7.0,0.0
3569,67.0,0,90,3.0,0.0
3570,76.0,48,90,2.0,0.0
3571,76.0,0,40,7.0,0.0
3572,48.0,0,90,8.0,0.0
3573,48.0,0,90,4.0,0.0
3574,55.0,0,90,6.0,0.0
3575,83.0,0,90,1.0,0.0
3576,76.0,0,40,5.0,0.0
3577,72.0,0,40,7.0,0.0
3578,36.0,48,90,8.0,0.0
3579,76.0,48,40,7.0,0.0
3580,79.0,0,40,5.0,0.0
3581,60.0,0,90,6.0,0.0
3582,72.0,0,40,5.0,0.0
3583,67.0,0,40,7.0,0.0
3584,81.0,0,300,5.0,0.0
3585,81.0,0,90,1.0,0.0
3586,76.0,0,90,2.0,0.0
3587,66.0,0,90,3.0,0.0
3588,66.0,48,40,7.0,0.0
3589,42.0,0,90,4.0,0.0
3590,57.0,0,40,6.0,0.0
3591,42.0,0,40,8.0,0.0
3592,76.0,48,40,7.0,0.0
3593,75.0,0,40,7.0,0.0
3594,43.0,0,40,8.0,0.0
3595,59.0,48,40,6.0,0.0
3596,73.0,0,40,7.0,0.0
3597,60.0,0,40,6.0,0.0
3598,45.0,48,40,8.0,0.0
3599,66.0,48,90,3.0,0.0
3600,47.0,0,90,4.0,0.0
3601,75.0,0,90,7.0,0.0
3602,47.0,0,90,8.0,0.0
3603,81.0,0,90,1.0,0.0
3604,75.0,0,90,2.0,0.0
3605,54.0,48,40,6.0,0.0
3606,52.0,0,40,6.0,0.0
3607,51.0,0,40,6.0,0.0
3608,71.0,48,40,5.0,0.0
3609,49.0,0,40,6.0,0.0
3610,73.0,48,40,5.0,0.0
3611,75.0,48,90,5.0,0.0
3612,47.0,48,40,6.0,0.0
3613,45.0,0,40,6.0,0.0
3614,59.0,0,40,8.0,0.0
3615,76.0,0,40,5.0,0.0
3616,71.0,0,90,7.0,0.0
3617,69.0,0,90,7.0,0.0
3618,66.0,48,90,7.0,0.0
3619,43.0,0,40,6.0,0.0
3620,61.0,48,40,8.0,0.0
3621,42.0,0,40,6.0,0.0
3622,78.0,0,40,5.0,0.0
3623,63.0,0,40,8.0,0.0
3624,64.0,0,90,7.0,0.0
3625,79.0,0,90,1.0,0.0
3626,40.0,48,90,4.0,0.0
3627,71.0,0,90,7.0,0.0
3628,67.0,0,90,7.0,0.0
3629,64.0,48,40,8.0,0.0
3630,76.0,0,90,5.0,0.0
3631,71.0,0,90,5.0,0.0
3632,40.0,0,90,6.0,0.0
3633,71.0,0,90,3.0,0.0
3634,76.0,0,90,2.0,0.0
3635,79.0,0,90,5.0,0.0
3636,52.0,0,40,8.0,0.0
3637,50.0,0,40,8.0,0.0
3638,67.0,48,40,7.0,0.0
3639,69.0,0,40,7.0,0.0
3640,48.0,48,40,8.0,0.0
3641,47.0,48,40,8.0,0.0
3642,71.0,48,90,7.0,0.0
3643,45.0,0,40,8.0,0.0
3644,59.0,0,90,6.0,0.0
3645,43.0,0,40,8.0,0.0
3646,83.0,0,90,5.0,0.0
3647,78.0,48,90,5.0,0.0
3648,71.0,0,90,5.0,0.0
3649,73.0,48,40,7.0,0.0
3650,42.0,0,40,8.0,0.0
3651,75.0,0,40,7.0,0.0
3652,64.0,48,40,6.0,0.0
3653,76.0,0,90,1.0,0.0
3654,76.0,0,90,7.0,0.0
3655,79.0,0,90,5.0,0.0
3656,71.0,0,90,5.0,0.0
3657,67.0,0,90,3.0,0.0
3658,76.0,0,90,5.0,0.0
3659,40.0,0,90,8.0,0.0
3660,71.0,0,90,2.0,0.0
3661,43.0,0,90,4.0,0.0
3662,66.0,48,40,6.0,0.0
3663,76.0,0,40,5.0,0.0
3664,67.0,48,40,6.0,0.0
3665,78.0,48,40,5.0,0.0
3666,66.0,0,40,6.0,0.0
3667,64.0,48,40,6.0,0.0
3668,79.0,48,90,5.0,0.0
3669,62.0,0,40,6.0,0.0
3670,81.0,48,40,5.0,0.0
3671,60.0,0,40,6.0,0.0
3672,60.0,0,90,8.0,0.0
3673,69.0,0,90,7.0,0.0
3674,59.0,48,40,6.0,0.0
3675,83.0,0,40,5.0,0.0
3676,66.0,0,90,3.0,0.0
3677,69.0,0,90,7.0,0.0
3678,69.0,48,90,2.0,0.0
3679,75.0,0,90,1.0,0.0
3680,84.0,0,90,5.0,0.0
3681,48.0,0,90,4.0,0.0
3682,57.0,0,90,6.0,0.0
3683,54.0,48,40,8.0,0.0
3684,55.0,0,40,8.0,0.0
3685,57.0,0,40,8.0,0.0
3686,66.0,48,40,7.0,0.0
3687,67.0,0,40,7.0,0.0
3688,55.0,48,40,8.0,0.0
3689,54.0,48,40,8.0,0.0
3690,69.0,48,90,7.0,0.0
3691,57.0,0,40,8.0,0.0
3692,81.0,0,180,5.0,0.0
3693,72.0,0,90,7.0,0.0
3694,52.0,48,40,8.0,0.0
3695,54.0,48,90,6.0,0.0
3696,57.0,0,40,8.0,0.0
3697,66.0,0,40,5.0,0.0
3698,45.0,0,90,4.0,0.0
3699,69.0,0,90,3.0,0.0
3700,51.0,48,40,8.0,0.0
3701,72.0,0,90,2.0,0.0
3702,78.0,0,90,1.0,0.0
3703,69.0,48,90,7.0,0.0
3704,52.0,0,40,8.0,0.0
3705,67.0,0,40,5.0,0.0
3706,54.0,0,40,8.0,0.0
3707,69.0,0,40,5.0,0.0
3708,75.0,48,40,5.0,0.0
3709,66.0,0,40,7.0,0.0
3710,52.0,0,40,8.0,0.0
3711,76.0,0,40,5.0,0.0
3712,67.0,48,40,5.0,0.0
3713,67.0,0,40,7.0,0.0
3714,51.0,0,40,8.0,0.0
3715,78.0,48,90,5.0,0.0
3716,69.0,0,90,7.0,0.0
3717,66.0,48,40,5.0,0.0
3718,54.0,0,40,8.0,0.0
3719,69.0,0,40,5.0,0.0
3720,66.0,48,40,5.0,0.0
3721,81.0,0,180,5.0,0.0
3722,75.0,0,90,7.0,0.0
3723,47.0,0,40,8.0,0.0
3724,63.0,0,40,5.0,0.0
3725,54.0,48,40,8.0,0.0
3726,42.0,48,90,4.0,0.0
3727,72.0,0,90,3.0,0.0
3728,69.0,0,90,7.0,0.0
3729,81.0,0,90,1.0,0.0
3730,78.0,0,90,2.0,0.0
3731,57.0,48,40,6.0,0.0
3732,42.0,0,40,8.0,0.0
3733,59.0,0,40,6.0,0.0
3734,43.0,0,40,8.0,0.0
3735,45.0,48,40,8.0,0.0
3736,75.0,0,40,5.0,0.0
3737,60.0,0,40,6.0,0.0
3738,66.0,0,40,7.0,0.0
3739,67.0,0,40,7.0,0.0
3740,59.0,48,40,6.0,0.0
3741,76.0,0,40,5.0,0.0
3742,43.0,0,40,8.0,0.0
3743,57.0,0,40,6.0,0.0
3744,69.0,0,90,7.0,0.0
3745,42.0,48,40,8.0,0.0
3746,78.0,0,90,5.0,0.0
3747,60.0,48,40,6.0,0.0
3748,45.0,0,40,8.0,0.0
3749,55.0,0,40,6.0,0.0
3750,76.0,0,90,7.0,0.0
3751,81.0,0,180,5.0,0.0
3752,40.0,48,40,8.0,0.0
3753,60.0,0,40,6.0,0.0
3754,45.0,48,40,8.0,0.0
3755,39.0,48,40,8.0,0.0
3756,69.0,0,90,7.0,0.0
3757,84.0,0,90,1.0,0.0
3758,66.0,0,90,3.0,0.0
3759,81.0,0,90,2.0,0.0
3760,54.0,0,40,6.0,0.0
3761,39.0,0,90,4.0,0.0
3762,40.0,0,40,8.0,0.0
3763,55.0,48,40,6.0,0.0
3764,75.0,48,40,5.0,0.0
3765,42.0,0,40,8.0,0.0
3766,66.0,0,40,7.0,0.0
3767,57.0,0,40,6.0,0.0
3768,67.0,0,40,7.0,0.0
3769,40.0,0,40,8.0,0.0
3770,55.0,48,40,6.0,0.0
3771,76.0,0,40,5.0,0.0
3772,69.0,48,90,7.0,0.0
3773,78.0,0,40,5.0,0.0
3774,39.0,48,40,8.0,0.0
3775,54.0,0,40,6.0,0.0
3776,42.0,0,40,8.0,0.0
3777,71.0,0,40,5.0,0.0
3778,51.0,0,40,6.0,0.0
3779,78.0,0,90,7.0,0.0
3780,51.0,0,90,4.0,0.0
3781,75.0,0,40,5.0,0.0
3782,54.0,48,40,6.0,0.0
3783,71.0,48,90,3.0,0.0
3784,47.0,0,40,8.0,0.0
3785,78.0,0,90,2.0,0.0
3786,83.0,0,90,1.0,0.0
3787,78.0,0,40,5.0,0.0
3788,51.0,0,40,8.0,0.0
3789,59.0,0,40,6.0,0.0
3790,71.0,0,90,3.0,0.0
3791,76.0,0,90,2.0,0.0
3792,79.0,48,90,1.0,0.0
3793,83.0,0,40,5.0,0.0
3794,79.0,48,40,7.0,0.0
3795,52.0,0,90,8.0,0.0
3796,52.0,0,90,4.0,0.0
3797,52.0,0,90,6.0,0.0
3798,78.0,0,40,7.0,0.0
3799,81.0,0,40,5.0,0.0
3800,76.0,48,40,7.0,0.0
3801,79.0,0,40,5.0,0.0
3802,55.0,48,90,6.0,0.0
3803,79.0,0,40,7.0,0.0
3804,83.0,0,40,5.0,0.0
3805,81.0,0,40,5.0,0.0
3806,54.0,0,90,4.0,0.0
3807,78.0,0,90,1.0,0.0
3808,75.0,48,90,2.0,0.0
3809,57.0,0,90,6.0,0.0
3810,78.0,48,40,7.0,0.0
3811,71.0,0,90,3.0,0.0
3812,76.0,0,40,7.0,0.0
3813,79.0,0,40,5.0,0.0
3814,75.0,0,40,7.0,0.0
3815,59.0,0,90,6.0,0.0
3816,78.0,48,40,5.0,0.0
3817,78.0,0,40,7.0,0.0
3818,81.0,48,40,5.0,0.0
3819,71.0,0,40,7.0,0.0
3820,71.0,0,90,3.0,0.0
3821,71.0,0,90,2.0,0.0
3822,64.0,48,90,6.0,0.0
3823,55.0,0,90,4.0,0.0
3824,76.0,0,90,1.0,0.0
3825,79.0,48,40,5.0,0.0
3826,78.0,0,40,5.0,0.0
3827,69.0,0,40,7.0,0.0
3828,67.0,48,40,7.0,0.0
3829,76.0,0,40,5.0,0.0
3830,48.0,0,90,8.0,0.0
3831,55.0,0,90,6.0,0.0
3832,71.0,48,40,7.0,0.0
3833,79.0,0,40,5.0,0.0
3834,69.0,0,40,7.0,0.0
3835,45.0,48,90,8.0,0.0
3836,60.0,0,90,6.0,0.0
3837,78.0,48,40,5.0,0.0
3838,67.0,0,40,7.0,0.0
3839,76.0,0,40,5.0,0.0
3840,59.0,0,90,4.0,0.0
3841,63.0,0,90,3.0,0.0
3842,66.0,48,40,7.0,0.0
3843,75.0,0,40,5.0,0.0
3844,54.0,0,90,6.0,0.0
3845,71.0,0,90,1.0,0.0
3846,66.0,0,90,2.0,0.0
3847,47.0,48,90,8.0,0.0
3848,78.0,0,40,5.0,0.0
3849,69.0,0,40,7.0,0.0
3850,52.0,0,90,4.0,0.0
3851,59.0,0,90,6.0,0.0
3852,59.0,0,90,3.0,0.0
3853,71.0,0,40,5.0,0.0
3854,64.0,0,90,2.0,0.0
3855,67.0,0,90,1.0,0.0
3856,52.0,0,90,8.0,0.0
3857,67.0,48,40,7.0,0.0
3858,69.0,0,40,5.0,0.0
3859,66.0,48,40,7.0,0.0
3860,64.0,48,40,7.0,0.0
3861,40.0,0,90,8.0,0.0
3862,67.0,0,40,5.0,0.0
3863,64.0,0,90,6.0,0.0
3864,71.0,48,40,5.0,0.0
3865,67.0,0,40,7.0,0.0
3866,69.0,0,40,5.0,0.0
3867,63.0,0,90,2.0,0.0
3868,66.0,48,90,1.0,0.0
3869,52.0,0,90,4.0,0.0
3870,60.0,0,90,3.0,0.0
3871,66.0,48,40,7.0,0.0
3872,60.0,0,90,6.0,0.0
3873,67.0,0,40,5.0,0.0
3874,64.0,0,40,7.0,0.0
3875,63.0,0,40,7.0,0.0
3876,57.0,48,90,6.0,0.0
3877,66.0,48,40,5.0,0.0
3878,66.0,0,40,7.0,0.0
3879,69.0,0,40,5.0,0.0
3880,52.0,0,90,4.0,0.0
3881,55.0,48,90,2.0,0.0
3882,52.0,0,40,6.0,0.0
3883,59.0,0,40,7.0,0.0
3884,59.0,0,90,3.0,0.0
3885,67.0,48,40,5.0,0.0
3886,64.0,0,90,1.0,0.0
3887,54.0,0,40,6.0,0.0
3888,66.0,0,40,5.0,0.0
3889,57.0,0,40,7.0,0.0
3890,64.0,0,40,5.0,0.0
3891,48.0,0,90,8.0,0.0
3892,55.0,48,40,7.0,0.0
3893,55.0,0,40,6.0,0.0
3894,52.0,48,40,6.0,0.0
3895,59.0,0,40,7.0,0.0
3896,67.0,0,40,5.0,0.0
3897,57.0,48,40,7.0,0.0
3898,54.0,0,40,6.0,0.0
3899,66.0,0,40,5.0,0.0
3900,45.0,0,90,8.0,0.0
3901,55.0,48,40,6.0,0.0
3902,55.0,0,40,7.0,0.0
3903,64.0,0,40,5.0,0.0
3904,63.0,0,40,5.0,0.0
3905,57.0,48,40,6.0,0.0
3906,47.0,48,90,8.0,0.0
3907,54.0,0,40,7.0,0.0
3908,54.0,0,40,6.0,0.0
3909,57.0,0,40,7.0,0.0
3910,66.0,0,40,5.0,0.0
3911,56.0,48,40,6.0,0.0
3912,59.0,30,1410,3.0,0.0
3913,68.0,0,1410,2.0,0.0
3914,40.0,0,1410,4.0,0.0
3915,52.0,0,40,8.0,0.0
3916,56.0,0,90,7.0,0.0
3917,74.0,0,1410,1.0,0.0
3918,64.0,0,90,5.0,0.0
3919,50.0,0,40,8.0,0.0
3920,64.0,48,40,6.0,0.0
3921,66.0,0,90,5.0,0.0
3922,52.0,0,40,8.0,0.0
3923,57.0,48,40,6.0,0.0
3924,64.0,0,90,7.0,0.0
3925,64.0,48,40,6.0,0.0
3926,48.0,0,40,8.0,0.0
3927,59.0,0,40,6.0,0.0
3928,62.0,48,90,7.0,0.0
3929,68.0,0,90,5.0,0.0
3930,52.0,48,40,8.0,0.0
3931,64.0,0,40,6.0,0.0
3932,47.0,0,40,8.0,0.0
3933,69.0,48,90,5.0,0.0
3934,60.0,0,90,7.0,0.0
3935,60.0,48,40,6.0,0.0
3936,52.0,0,40,8.0,0.0
3937,45.0,0,40,8.0,0.0
3938,64.0,0,40,6.0,0.0
3939,62.0,0,40,6.0,0.0
3940,71.0,0,90,5.0,0.0
3941,52.0,48,40,8.0,0.0
3942,59.0,48,90,7.0,0.0
3943,64.0,0,40,6.0,0.0
3944,44.0,0,40,8.0,0.0
3945,60.0,0,40,6.0,0.0
3946,52.0,48,40,8.0,0.0
3947,72.0,0,90,5.0,0.0
3948,57.0,0,90,7.0,0.0
3949,64.0,48,40,6.0,0.0
3950,45.0,0,40,8.0,0.0
3951,74.0,0,90,5.0,0.0
3952,52.0,48,40,8.0,0.0
3953,56.0,0,90,7.0,0.0
3954,59.0,0,40,6.0,0.0
3955,64.0,0,40,6.0,0.0
3956,47.0,48,40,8.0,0.0
3957,72.0,48,90,5.0,0.0
3958,57.0,48,40,6.0,0.0
3959,57.0,0,90,7.0,0.0
3960,52.0,0,40,8.0,0.0
3961,64.0,0,40,6.0,0.0
3962,48.0,0,40,8.0,0.0
3963,59.0,0,90,7.0,0.0
3964,56.0,48,40,6.0,0.0
3965,52.0,0,40,8.0,0.0
3966,71.0,0,90,5.0,0.0
3967,64.0,48,40,6.0,0.0
3968,50.0,0,40,8.0,0.0
3969,52.0,0,40,8.0,0.0
3970,69.0,0,90,5.0,0.0
3971,60.0,0,90,7.0,0.0
3972,57.0,48,40,6.0,0.0
3973,48.0,0,40,8.0,0.0
3974,64.0,48,40,6.0,0.0
3975,52.0,48,40,8.0,0.0
3976,68.0,0,90,5.0,0.0
3977,62.0,0,90,7.0,0.0
3978,59.0,0,40,6.0,0.0
3979,47.0,48,40,8.0,0.0
3980,64.0,0,40,6.0,0.0
3981,52.0,48,40,8.0,0.0
3982,69.0,0,90,5.0,0.0
3983,60.0,0,90,7.0,0.0
3984,60.0,0,40,6.0,0.0
3985,45.0,48,40,8.0,0.0
3986,64.0,0,40,6.0,0.0
3987,71.0,0,90,5.0,0.0
3988,52.0,0,40,8.0,0.0
3989,59.0,0,90,7.0,0.0
3990,62.0,48,40,6.0,0.0
3991,64.0,0,40,6.0,0.0
3992,44.0,48,40,8.0,0.0
3993,57.0,48,90,7.0,0.0
3994,60.0,0,40,6.0,0.0
3995,52.0,48,40,8.0,0.0
3996,72.0,0,90,5.0,0.0
3997,64.0,0,40,6.0,0.0
3998,45.0,0,40,8.0,0.0
3999,59.0,0,40,6.0,0.0
4000,52.0,18,40,8.0,0.0
4001,56.0,0,90,7.0,0.0
4002,74.0,0,90,5.0,0.0
4003,47.0,0,40,8.0,0.0
4004,64.0,48,40,6.0,0.0
4005,44.0,0,90,4.0,0.0
4006,64.0,0,90,3.0,0.0
4007,76.0,0,90,5.0,0.0
4008,64.0,48,90,2.0,0.0
4009,52.0,0,40,8.0,0.0
4010,59.0,0,90,7.0,0.0
4011,56.0,48,40,6.0,0.0
4012,72.0,0,40,1.0,0.0
4013,44.0,0,40,8.0,0.0
4014,64.0,0,40,6.0,0.0
4015,71.0,0,40,1.0,0.0
4016,57.0,0,90,3.0,0.0
4017,45.0,48,90,8.0,0.0
4018,84.0,48,40,5.0,0.0
4019,57.0,48,240,6.0,0.0
4020,72.0,0,90,1.0,0.0
4021,57.0,0,40,7.0,0.0
4022,64.0,0,90,2.0,0.0
4023,45.0,0,90,4.0,0.0
4024,60.0,0,40,7.0,0.0
4025,81.0,0,40,5.0,0.0
4026,47.0,0,90,8.0,0.0
4027,76.0,0,90,1.0,0.0
4028,84.0,0,40,5.0,0.0
4029,64.0,48,40,7.0,0.0
4030,67.0,48,40,7.0,0.0
4031,76.0,0,40,5.0,0.0
4032,48.0,48,90,8.0,0.0
4033,66.0,0,240,7.0,0.0
4034,81.0,0,300,1.0,0.0
4035,75.0,0,40,5.0,0.0
4036,55.0,0,40,6.0,0.0
4037,83.0,0,40,5.0,0.0
4038,54.0,0,40,6.0,0.0
4039,72.0,0,90,2.0,0.0
4040,66.0,0,90,3.0,0.0
4041,45.0,0,90,8.0,0.0
4042,81.0,48,40,5.0,0.0
4043,57.0,0,90,4.0,0.0
4044,79.0,0,40,5.0,0.0
4045,52.0,48,40,6.0,0.0
4046,66.0,0,90,3.0,0.0
4047,60.0,0,90,6.0,0.0
4048,81.0,48,40,5.0,0.0
4049,39.0,30,150,8.0,0.0
4050,51.0,0,90,4.0,0.0
4051,71.0,0,90,2.0,0.0
4052,78.0,48,40,5.0,0.0
4053,69.0,0,40,7.0,0.0
4054,81.0,0,40,5.0,0.0
4055,72.0,18,40,7.0,0.0
4056,75.0,48,90,1.0,0.0
4057,54.0,48,150,6.0,0.0
4058,76.0,0,40,7.0,0.0
4059,72.0,0,40,5.0,0.0
4060,75.0,0,40,7.0,0.0
4061,71.0,0,40,5.0,0.0
4062,84.0,0,90,1.0,0.0
4063,59.0,48,40,6.0,0.0
4064,84.0,0,40,7.0,0.0
4065,81.0,0,40,5.0,0.0
4066,71.0,0,90,2.0,0.0
4067,79.0,48,40,5.0,0.0
4068,51.0,0,90,8.0,0.0
4069,61.0,0,40,6.0,0.0
4070,71.0,0,90,3.0,0.0
4071,83.0,0,40,7.0,0.0
4072,63.0,0,90,4.0,0.0
4073,83.0,48,90,1.0,0.0
4074,81.0,0,40,7.0,0.0
4075,78.0,0,40,5.0,0.0
4076,63.0,0,40,6.0,0.0
4077,81.0,46,40,1.0,0.0
4078,64.0,0,90,6.0,0.0
4079,64.0,0,90,3.0,0.0
4080,81.0,2,40,5.0,0.0
4081,71.0,0,40,7.0,0.0
4082,71.0,48,90,2.0,0.0
4083,64.0,0,90,4.0,0.0
4084,52.0,0,90,8.0,0.0
4085,79.0,0,40,1.0,0.0
4086,79.0,0,40,5.0,0.0
4087,83.0,0,40,7.0,0.0
4088,78.0,0,40,5.0,0.0
4089,55.0,2,40,4.0,0.0
4090,55.0,0,40,8.0,0.0
4091,78.0,46,40,1.0,0.0
4092,71.0,0,90,2.0,0.0
4093,81.0,0,40,7.0,0.0
4094,55.0,0,40,6.0,0.0
4095,59.0,0,90,3.0,0.0
4096,76.0,0,40,5.0,0.0
4097,57.0,0,40,4.0,0.0
4098,57.0,48,40,8.0,0.0
4099,57.0,0,40,6.0,0.0
4100,79.0,0,40,7.0,0.0
4101,76.0,0,40,1.0,0.0
4102,59.0,0,90,3.0,0.0
4103,59.0,0,90,6.0,0.0
4104,79.0,0,40,5.0,0.0
4105,59.0,0,90,8.0,0.0
4106,71.0,2,40,7.0,0.0
4107,59.0,0,90,4.0,0.0
4108,79.0,46,40,1.0,0.0
4109,71.0,0,90,2.0,0.0
4110,78.0,0,40,1.0,0.0
4111,78.0,48,40,5.0,0.0
4112,81.0,0,40,7.0,0.0
4113,76.0,46,40,1.0,0.0
4114,47.0,162,90,4.0,0.0
4115,76.0,2,40,5.0,0.0
4116,79.0,0,40,7.0,0.0
4117,47.0,0,90,8.0,0.0
4118,71.0,0,90,2.0,0.0
4119,47.0,0,90,6.0,0.0
4120,66.0,0,90,3.0,0.0
4121,75.0,0,40,5.0,0.0
4122,78.0,0,40,7.0,0.0
4123,75.0,0,40,1.0,0.0
4124,52.0,0,150,6.0,0.0
4125,40.0,0,150,8.0,0.0
4126,67.0,0,150,3.0,0.0
4127,76.0,0,150,5.0,0.0
4128,76.0,0,150,7.0,0.0
4129,40.0,0,150,4.0,0.0
4130,71.0,0,150,2.0,0.0
4131,76.0,318,150,1.0,0.0
4132,55.0,30,150,7.0,0.0
4133,60.0,0,150,7.0,0.0
4134,64.0,18,150,7.0,0.0
4135,36.0,48,90,8.0,0.0
4136,48.0,0,90,8.0,0.0
4137,65.0,24,40,7.0,0.0
4138,67.0,24,20,7.0,0.0
4139,45.0,0,90,8.0,0.0
4140,48.0,0,150,8.0,0.0
4141,53.0,6,150,8.0,0.0
4142,60.0,0,150,7.0,0.0
4143,65.0,24,20,7.0,0.0
4144,67.0,24,20,7.0,0.0
4145,65.0,24,20,7.0,0.0
4146,41.0,96,90,8.0,0.0
4147,67.0,24,20,7.0,0.0
4148,65.0,18,20,7.0,0.0
4149,64.0,24,20,7.0,0.0
4150,65.0,0,20,7.0,0.0
4151,64.0,0,90,7.0,0.0
4152,67.0,0,90,7.0,0.0
4153,48.0,48,90,6.0,0.0
4154,36.0,0,90,8.0,0.0
4155,48.0,0,90,8.0,0.0
4156,60.0,0,90,7.0,0.0
4157,72.0,0,150,5.0,0.0
4158,76.0,18,150,5.0,0.0
4159,67.0,30,150,5.0,0.0
4160,60.0,0,90,6.0,0.0
4161,77.0,24,40,5.0,0.0
4162,60.0,0,90,6.0,0.0
4163,65.0,0,90,6.0,0.0
4164,72.0,6,150,5.0,0.0
4165,79.0,24,20,5.0,0.0
4166,57.0,0,90,6.0,0.0
4167,77.0,24,20,5.0,0.0
4168,79.0,24,20,5.0,0.0
4169,77.0,24,20,5.0,0.0
4170,60.0,0,90,6.0,0.0
4171,57.0,0,90,6.0,0.0
4172,53.0,48,90,6.0,0.0
4173,79.0,24,20,5.0,0.0
4174,77.0,18,20,5.0,0.0
4175,76.0,24,20,5.0,0.0
4176,77.0,0,20,5.0,0.0
4177,72.0,0,90,5.0,0.0
4178,76.0,0,90,5.0,0.0
4179,79.0,48,90,5.0,0.0
4180,60.0,0,90,6.0,0.0
4181,48.0,0,90,8.0,0.0
4182,48.0,0,90,6.0,0.0
4183,55.0,0,90,6.0,0.0
4184,67.0,48,40,7.0,0.0
4185,64.0,30,150,7.0,0.0
4186,69.0,0,40,7.0,0.0
4187,60.0,24,90,8.0,0.0
4188,67.0,18,40,7.0,0.0
4189,69.0,0,40,7.0,0.0
4190,58.0,0,90,8.0,0.0
4191,70.0,24,20,7.0,0.0
4192,66.0,6,150,7.0,0.0
4193,69.0,24,20,7.0,0.0
4194,70.0,24,20,7.0,0.0
4195,69.0,24,20,7.0,0.0
4196,70.0,24,20,7.0,0.0
4197,57.0,0,90,8.0,0.0
4198,69.0,18,20,7.0,0.0
4199,67.0,24,20,7.0,0.0
4200,69.0,48,20,7.0,0.0
4201,67.0,0,90,6.0,0.0
4202,74.0,48,40,5.0,0.0
4203,70.0,48,90,5.0,0.0
4204,55.0,0,90,8.0,0.0
4205,67.0,0,90,7.0,0.0
4206,70.0,0,90,7.0,0.0
4207,76.0,0,40,5.0,0.0
4208,65.0,0,90,6.0,0.0
4209,71.0,24,90,5.0,0.0
4210,74.0,48,40,5.0,0.0
4211,76.0,0,40,5.0,0.0
4212,64.0,0,90,6.0,0.0
4213,73.0,6,150,5.0,0.0
4214,77.0,24,20,5.0,0.0
4215,76.0,24,20,5.0,0.0
4216,77.0,24,20,5.0,0.0
4217,76.0,24,20,5.0,0.0
4218,77.0,24,20,5.0,0.0
4219,69.0,96,90,6.0,0.0
4220,76.0,18,20,5.0,0.0
4221,74.0,24,20,5.0,0.0
4222,76.0,0,20,5.0,0.0
4223,38.0,48,90,8.0,0.0
4224,74.0,0,90,5.0,0.0
4225,77.0,0,90,5.0,0.0
4226,65.0,18,150,7.0,0.0
4227,57.0,30,150,7.0,0.0
4228,62.0,0,150,7.0,0.0
4229,62.0,0,90,6.0,0.0
4230,50.0,24,90,8.0,0.0
4231,67.0,0,40,7.0,0.0
4232,50.0,24,90,8.0,0.0
4233,55.0,6,150,8.0,0.0
4234,69.0,24,20,7.0,0.0
4235,62.0,0,150,7.0,0.0
4236,46.0,0,90,8.0,0.0
4237,67.0,24,20,7.0,0.0
4238,69.0,24,20,7.0,0.0
4239,67.0,0,20,7.0,0.0
4240,69.0,24,20,7.0,0.0
4241,43.0,0,90,8.0,0.0
4242,67.0,18,20,7.0,0.0
4243,65.0,24,20,7.0,0.0
4244,67.0,96,20,7.0,0.0
4245,65.0,0,90,7.0,0.0
4246,50.0,0,90,8.0,0.0
4247,38.0,48,90,8.0,0.0
4248,62.0,0,90,7.0,0.0
4249,69.0,0,150,5.0,0.0
4250,74.0,30,150,5.0,0.0
4251,77.0,18,150,5.0,0.0
4252,50.0,0,90,6.0,0.0
4253,69.0,0,90,7.0,0.0
4254,62.0,24,90,6.0,0.0
4255,79.0,0,40,5.0,0.0
4256,74.0,6,150,5.0,0.0
4257,81.0,24,20,5.0,0.0
4258,58.0,0,90,6.0,0.0
4259,62.0,0,90,6.0,0.0
4260,67.0,0,90,6.0,0.0
4261,79.0,24,20,5.0,0.0
4262,81.0,24,20,5.0,0.0
4263,79.0,24,20,5.0,0.0
4264,81.0,24,20,5.0,0.0
4265,62.0,48,90,6.0,0.0
4266,58.0,0,90,6.0,0.0
4267,55.0,0,90,6.0,0.0
4268,79.0,18,20,5.0,0.0
4269,77.0,24,20,5.0,0.0
4270,79.0,0,20,5.0,0.0
4271,69.0,48,40,7.0,0.0
4272,50.0,0,90,6.0,0.0
4273,57.0,0,90,6.0,0.0
4274,62.0,0,90,6.0,0.0
4275,81.0,0,90,5.0,0.0
4276,77.0,0,90,5.0,0.0
4277,74.0,48,90,5.0,0.0
4278,50.0,0,90,8.0,0.0
4279,65.0,30,150,7.0,0.0
4280,70.0,0,40,7.0,0.0
4281,62.0,0,90,8.0,0.0
4282,69.0,18,40,7.0,0.0
4283,70.0,24,40,7.0,0.0
4284,67.0,6,150,7.0,0.0
4285,72.0,24,20,7.0,0.0
4286,60.0,24,90,8.0,0.0
4287,70.0,24,20,7.0,0.0
4288,72.0,24,20,7.0,0.0
4289,70.0,0,20,7.0,0.0
4290,58.0,48,90,8.0,0.0
4291,72.0,24,20,7.0,0.0
4292,70.0,18,20,7.0,0.0
4293,69.0,24,20,7.0,0.0
4294,70.0,0,20,7.0,0.0
4295,72.0,48,40,5.0,0.0
4296,69.0,30,150,5.0,0.0
4297,72.0,0,90,7.0,0.0
4298,69.0,0,90,7.0,0.0
4299,57.0,48,90,8.0,0.0
4300,53.0,0,90,6.0,0.0
4301,74.0,0,40,5.0,0.0
4302,65.0,24,90,6.0,0.0
4303,72.0,18,40,5.0,0.0
4304,74.0,0,40,5.0,0.0
4305,67.0,0,90,6.0,0.0
4306,64.0,0,90,6.0,0.0
4307,76.0,24,20,5.0,0.0
4308,74.0,24,20,5.0,0.0
4309,67.0,0,40,7.0,0.0
4310,76.0,24,20,5.0,0.0
4311,59.0,24,40,8.0,0.0
4312,74.0,0,20,5.0,0.0
4313,62.0,48,90,6.0,0.0
4314,65.0,0,90,6.0,0.0
4315,60.0,0,40,8.0,0.0
4316,76.0,24,20,5.0,0.0
4317,69.0,0,40,7.0,0.0
4318,74.0,24,20,5.0,0.0
4319,62.0,0,40,8.0,0.0
4320,72.0,24,20,5.0,0.0
4321,71.0,0,40,7.0,0.0
4322,74.0,0,20,5.0,0.0
4323,60.0,0,90,6.0,0.0
4324,67.0,0,90,6.0,0.0
4325,52.0,48,90,8.0,0.0
4326,76.0,0,90,5.0,0.0
4327,72.0,48,40,7.0,0.0
4328,67.0,0,40,7.0,0.0
4329,57.0,0,90,8.0,0.0
4330,72.0,48,40,7.0,0.0
4331,63.0,48,40,7.0,0.0
4332,54.0,48,90,8.0,0.0
4333,62.0,48,40,7.0,0.0
4334,74.0,0,40,5.0,0.0
4335,72.0,0,40,7.0,0.0
4336,66.0,0,40,6.0,0.0
4337,67.0,48,40,6.0,0.0
4338,50.0,0,90,8.0,0.0
4339,76.0,0,40,5.0,0.0
4340,70.0,0,40,7.0,0.0
4341,69.0,0,40,6.0,0.0
4342,69.0,48,40,7.0,0.0
4343,78.0,0,40,5.0,0.0
4344,58.0,0,90,6.0,0.0
4345,55.0,0,90,8.0,0.0
4346,79.0,48,40,5.0,0.0
4347,70.0,48,90,7.0,0.0
4348,74.0,0,40,5.0,0.0
4349,64.0,0,90,6.0,0.0
4350,70.0,0,90,3.0,0.0
4351,79.0,48,40,5.0,0.0
4352,76.0,0,90,2.0,0.0
4353,67.0,0,90,7.0,0.0
4354,79.0,48,90,1.0,0.0
4355,52.0,0,90,4.0,0.0
4356,43.0,0,90,8.0,0.0
4357,70.0,0,40,5.0,0.0
4358,69.0,48,40,5.0,0.0
4359,61.0,0,90,6.0,0.0
4360,79.0,0,90,1.0,0.0
4361,49.0,0,90,4.0,0.0
4362,69.0,0,90,3.0,0.0
4363,76.0,0,90,2.0,0.0
4364,69.0,48,40,7.0,0.0
4365,79.0,0,40,5.0,0.0
4366,61.0,0,40,8.0,0.0
4367,77.0,0,40,5.0,0.0
4368,71.0,48,40,7.0,0.0
4369,62.0,0,40,8.0,0.0
4370,57.0,0,90,6.0,0.0
4371,76.0,0,40,5.0,0.0
4372,73.0,0,40,7.0,0.0
4373,64.0,48,40,8.0,0.0
4374,53.0,0,90,8.0,0.0
4375,62.0,0,90,6.0,0.0
4376,77.0,0,90,5.0,0.0
4377,74.0,48,40,7.0,0.0
4378,69.0,48,40,7.0,0.0
4379,77.0,0,90,1.0,0.0
4380,74.0,0,90,5.0,0.0
4381,62.0,0,90,3.0,0.0
4382,74.0,0,90,2.0,0.0
4383,74.0,48,40,7.0,0.0
4384,59.0,0,90,8.0,0.0
4385,50.0,0,90,4.0,0.0
4386,50.0,0,90,6.0,0.0
4387,65.0,48,40,7.0,0.0
4388,71.0,0,90,1.0,0.0
4389,44.0,0,90,4.0,0.0
4390,74.0,0,90,2.0,0.0
4391,56.0,0,90,8.0,0.0
4392,64.0,0,90,3.0,0.0
4393,64.0,48,40,7.0,0.0
4394,74.0,0,40,7.0,0.0
4395,76.0,48,40,5.0,0.0
4396,68.0,0,40,6.0,0.0
4397,52.0,0,90,8.0,0.0
4398,72.0,48,40,7.0,0.0
4399,78.0,0,40,5.0,0.0
4400,69.0,0,40,6.0,0.0
4401,80.0,0,40,5.0,0.0
4402,71.0,0,40,6.0,0.0
4403,71.0,48,40,7.0,0.0
4404,81.0,48,40,5.0,0.0
4405,57.0,48,90,8.0,0.0
4406,72.0,0,90,7.0,0.0
4407,60.0,0,90,6.0,0.0
4408,76.0,0,40,5.0,0.0
4409,66.0,0,90,6.0,0.0
4410,69.0,48,90,7.0,0.0
4411,81.0,48,40,5.0,0.0
4412,57.0,0,90,4.0,0.0
4413,45.0,0,90,8.0,0.0
4414,69.0,0,90,3.0,0.0
4415,81.0,0,90,1.0,0.0
4416,72.0,0,90,2.0,0.0
4417,72.0,0,40,5.0,0.0
4418,66.0,0,90,3.0,0.0
4419,51.0,0,90,4.0,0.0
4420,63.0,0,90,6.0,0.0
4421,71.0,0,90,2.0,0.0
4422,81.0,0,90,1.0,0.0
4423,71.0,48,40,5.0,0.0
4424,63.0,0,40,8.0,0.0
4425,81.0,0,40,5.0,0.0
4426,71.0,48,40,7.0,0.0
4427,59.0,0,90,6.0,0.0
4428,64.0,0,40,8.0,0.0
4429,79.0,0,40,5.0,0.0
4430,73.0,48,40,7.0,0.0
4431,75.0,0,40,7.0,0.0
4432,66.0,0,40,8.0,0.0
4433,78.0,48,40,5.0,0.0
4434,55.0,48,90,8.0,0.0
4435,64.0,0,90,6.0,0.0
4436,76.0,48,40,7.0,0.0
4437,79.0,0,40,5.0,0.0
4438,76.0,0,40,5.0,0.0
4439,71.0,0,40,7.0,0.0
4440,76.0,0,40,7.0,0.0
4441,52.0,0,90,4.0,0.0
4442,79.0,48,40,5.0,0.0
4443,79.0,0,90,1.0,0.0
4444,64.0,0,90,3.0,0.0
4445,62.0,0,90,6.0,0.0
4446,52.0,48,90,8.0,0.0
4447,70.0,0,90,2.0,0.0
4448,67.0,0,40,7.0,0.0
4449,70.0,0,40,5.0,0.0
4450,61.0,48,90,6.0,0.0
4451,69.0,0,90,2.0,0.0
4452,79.0,0,90,1.0,0.0
4453,64.0,48,40,7.0,0.0
4454,57.0,0,90,8.0,0.0
4455,69.0,0,40,5.0,0.0
4456,57.0,0,90,4.0,0.0
4457,61.0,0,90,3.0,0.0
4458,79.0,0,40,5.0,0.0
4459,76.0,0,40,7.0,0.0
4460,74.0,0,40,7.0,0.0
4461,45.0,0,90,8.0,0.0
4462,77.0,48,40,5.0,0.0
4463,69.0,48,90,6.0,0.0
4464,73.0,0,40,7.0,0.0
4465,76.0,0,40,5.0,0.0
4466,62.0,48,90,6.0,0.0
4467,53.0,0,90,8.0,0.0
4468,77.0,48,40,5.0,0.0
4469,74.0,0,40,7.0,0.0
4470,74.0,0,40,5.0,0.0
4471,69.0,0,40,7.0,0.0
4472,50.0,0,90,4.0,0.0
4473,62.0,0,90,3.0,0.0
4474,69.0,0,90,2.0,0.0
4475,50.0,0,90,8.0,0.0
4476,77.0,0,90,1.0,0.0
4477,60.0,0,90,6.0,0.0
4478,74.0,0,40,7.0,0.0
4479,77.0,48,40,5.0,0.0
4480,69.0,48,40,5.0,0.0
4481,65.0,0,40,7.0,0.0
4482,62.0,48,40,7.0,0.0
4483,67.0,0,90,2.0,0.0
4484,55.0,0,90,4.0,0.0
4485,59.0,0,90,3.0,0.0
4486,59.0,0,90,6.0,0.0
4487,77.0,48,90,1.0,0.0
4488,55.0,0,90,8.0,0.0
4489,67.0,0,40,5.0,0.0
4490,74.0,0,40,7.0,0.0
4491,77.0,0,40,5.0,0.0
4492,67.0,0,90,6.0,0.0
4493,72.0,48,40,7.0,0.0
4494,43.0,48,90,8.0,0.0
4495,76.0,0,40,5.0,0.0
4496,74.0,0,40,5.0,0.0
4497,71.0,0,40,7.0,0.0
4498,52.0,0,90,8.0,0.0
4499,76.0,48,40,5.0,0.0
4500,60.0,0,90,6.0,0.0
4501,72.0,0,40,7.0,0.0
4502,67.0,0,40,7.0,0.0
4503,72.0,48,40,5.0,0.0
4504,60.0,0,90,3.0,0.0
4505,76.0,48,40,5.0,0.0
4506,48.0,0,90,8.0,0.0
4507,48.0,48,90,4.0,0.0
4508,76.0,0,90,1.0,0.0
4509,59.0,0,90,6.0,0.0
4510,72.0,0,40,7.0,0.0
4511,67.0,0,90,2.0,0.0
4512,64.0,0,40,7.0,0.0
4513,67.0,0,40,5.0,0.0
4514,69.0,0,90,2.0,0.0
4515,53.0,0,90,8.0,0.0
4516,76.0,48,90,1.0,0.0
4517,53.0,0,90,4.0,0.0
4518,65.0,0,40,5.0,0.0
4519,57.0,0,90,6.0,0.0
4520,69.0,48,40,7.0,0.0
4521,60.0,0,90,3.0,0.0
4522,67.0,0,40,7.0,0.0
4523,76.0,0,40,5.0,0.0
4524,41.0,0,90,8.0,0.0
4525,74.0,0,40,5.0,0.0
4526,65.0,0,90,6.0,0.0
4527,41.0,0,90,4.0,0.0
4528,74.0,0,40,1.0,0.0
4529,65.0,0,90,3.0,0.0
4530,69.0,48,90,2.0,0.0
4531,65.0,48,40,7.0,0.0
4532,72.0,0,40,1.0,0.0
4533,64.0,0,40,7.0,0.0
4534,72.0,0,40,5.0,0.0
4535,71.0,0,330,1.0,0.0
4536,43.0,46,1110,4.0,0.0
4537,67.0,0,90,6.0,0.0
4538,62.0,0,330,3.0,0.0
4539,67.0,46,330,2.0,0.0
4540,62.0,0,90,7.0,0.0
4541,71.0,48,40,5.0,0.0
4542,43.0,0,90,8.0,0.0
4543,67.0,48,40,5.0,0.0
4544,55.0,48,90,6.0,0.0
4545,74.0,48,40,5.0,0.0
4546,55.0,0,90,8.0,0.0
4547,77.0,0,90,7.0,0.0
4548,71.0,0,40,5.0,0.0
4549,55.0,0,90,8.0,0.0
4550,77.0,48,40,5.0,0.0
4551,77.0,48,40,7.0,0.0
4552,74.0,0,40,5.0,0.0
4553,76.0,0,40,7.0,0.0
4554,55.0,48,90,6.0,0.0
4555,43.0,0,90,8.0,0.0
4556,72.0,2,40,5.0,0.0
4557,74.0,0,40,7.0,0.0
4558,71.0,0,40,5.0,0.0
4559,72.0,48,40,5.0,0.0
4560,60.0,30,150,3.0,0.0
4561,67.0,0,330,2.0,0.0
4562,76.0,0,90,7.0,0.0
4563,72.0,16,330,1.0,0.0
4564,55.0,0,90,6.0,0.0
4565,67.0,48,40,5.0,0.0
4566,55.0,0,90,8.0,0.0
4567,79.0,48,90,7.0,0.0
4568,43.0,0,90,6.0,0.0
4569,76.0,18,40,5.0,0.0
4570,72.0,0,40,5.0,0.0
4571,64.0,30,150,3.0,0.0
4572,55.0,48,90,8.0,0.0
4573,79.0,48,40,5.0,0.0
4574,76.0,0,40,5.0,0.0
4575,79.0,0,40,7.0,0.0
4576,77.0,0,40,7.0,0.0
4577,55.0,0,90,6.0,0.0
4578,43.0,0,90,8.0,0.0
4579,74.0,2,40,5.0,0.0
4580,76.0,0,40,7.0,0.0
4581,72.0,48,40,5.0,0.0
4582,62.0,0,330,3.0,0.0
4583,71.0,0,330,2.0,0.0
4584,74.0,0,330,1.0,0.0
4585,55.0,48,90,6.0,0.0
4586,74.0,48,40,5.0,0.0
4587,77.0,0,90,7.0,0.0
4588,71.0,0,40,5.0,0.0
4589,43.0,48,90,6.0,0.0
4590,77.0,48,40,5.0,0.0
4591,62.0,0,90,8.0,0.0
4592,81.0,0,90,7.0,0.0
4593,74.0,0,40,5.0,0.0
4594,81.0,48,40,5.0,0.0
4595,60.0,0,90,8.0,0.0
4596,77.0,0,40,5.0,0.0
4597,81.0,48,40,7.0,0.0
4598,55.0,0,90,6.0,0.0
4599,59.0,0,90,8.0,0.0
4600,76.0,2,40,5.0,0.0
4601,79.0,0,40,7.0,0.0
4602,77.0,0,40,7.0,0.0
4603,74.0,48,40,5.0,0.0
4604,60.0,0,150,8.0,0.0
4605,76.0,48,40,7.0,0.0
4606,67.0,48,90,8.0,0.0
4607,60.0,0,150,6.0,0.0
4608,72.0,0,150,5.0,0.0
4609,67.0,0,150,5.0,0.0
4610,76.0,0,150,5.0,0.0
4611,48.0,0,150,4.0,0.0
4612,67.0,30,150,2.0,0.0
4613,60.0,0,150,3.0,0.0
4614,76.0,18,150,1.0,0.0
4615,72.0,0,40,7.0,0.0
4616,81.0,0,40,7.0,0.0
4617,64.0,0,90,8.0,0.0
4618,77.0,0,40,1.0,0.0
4619,79.0,24,40,7.0,0.0
4620,77.0,0,40,5.0,0.0
4621,79.0,0,20,1.0,0.0
4622,60.0,0,150,3.0,0.0
4623,72.0,0,150,5.0,0.0
4624,57.0,0,150,8.0,0.0
4625,77.0,0,40,7.0,0.0
4626,69.0,0,150,2.0,0.0
4627,60.0,0,150,8.0,0.0
4628,45.0,6,150,4.0,0.0
4629,57.0,0,150,6.0,0.0
4630,60.0,0,150,6.0,0.0
4631,65.0,0,150,6.0,0.0
4632,79.0,24,20,5.0,0.0
4633,77.0,0,20,5.0,0.0
4634,77.0,24,20,1.0,0.0
4635,79.0,24,20,1.0,0.0
4636,79.0,0,20,5.0,0.0
4637,76.0,24,40,7.0,0.0
4638,77.0,0,20,1.0,0.0
4639,77.0,0,20,5.0,0.0
4640,79.0,24,20,5.0,0.0
4641,74.0,18,40,7.0,0.0
4642,79.0,0,20,1.0,0.0
4643,77.0,0,20,1.0,0.0
4644,77.0,0,20,5.0,0.0
4645,76.0,24,20,5.0,0.0
4646,76.0,0,20,1.0,0.0
4647,72.0,0,150,7.0,0.0
4648,77.0,0,20,1.0,0.0
4649,77.0,48,20,5.0,0.0
4650,79.0,0,90,1.0,0.0
4651,84.0,0,90,7.0,0.0
4652,79.0,0,90,7.0,0.0
4653,79.0,0,90,5.0,0.0
4654,72.0,0,90,2.0,0.0
4655,52.0,48,40,8.0,0.0
4656,52.0,0,90,6.0,0.0
4657,72.0,0,90,5.0,0.0
4658,60.0,0,90,3.0,0.0
4659,40.0,48,90,4.0,0.0
4660,60.0,0,90,6.0,0.0
4661,55.0,0,40,8.0,0.0
4662,60.0,48,40,8.0,0.0
4663,64.0,96,40,8.0,0.0
4664,67.0,0,90,8.0,0.0
4665,64.0,48,40,6.0,0.0
4666,79.0,0,40,5.0,0.0
4667,62.0,0,40,6.0,0.0
4668,77.0,48,40,5.0,0.0
4669,79.0,0,40,5.0,0.0
4670,64.0,48,40,6.0,0.0
4671,69.0,48,40,5.0,0.0
4672,53.0,0,40,6.0,0.0
4673,79.0,48,40,5.0,0.0
4674,64.0,0,40,6.0,0.0
4675,77.0,0,40,5.0,0.0
4676,62.0,48,40,6.0,0.0
4677,60.0,48,40,6.0,0.0
4678,76.0,0,40,5.0,0.0
4679,62.0,0,40,6.0,0.0
4680,77.0,48,40,5.0,0.0
4681,53.0,0,40,6.0,0.0
4682,69.0,48,40,5.0,0.0
4683,55.0,48,40,6.0,0.0
4684,71.0,0,40,5.0,0.0
4685,77.0,0,40,5.0,0.0
4686,62.0,48,40,6.0,0.0
4687,57.0,48,40,6.0,0.0
4688,72.0,0,40,5.0,0.0
4689,62.0,48,40,6.0,0.0
4690,77.0,0,40,5.0,0.0
4691,76.0,0,40,5.0,0.0
4692,60.0,48,40,6.0,0.0
4693,59.0,0,40,6.0,0.0
4694,74.0,96,40,5.0,0.0
4695,76.0,0,90,5.0,0.0
4696,60.0,0,90,6.0,0.0
4697,76.0,0,40,7.0,0.0
4698,67.0,48,40,8.0,0.0
4699,65.0,0,40,8.0,0.0
4700,74.0,48,40,7.0,0.0
4701,67.0,0,40,8.0,0.0
4702,76.0,48,40,7.0,0.0
4703,57.0,48,40,8.0,0.0
4704,65.0,0,40,7.0,0.0
4705,76.0,0,40,7.0,0.0
4706,67.0,48,40,8.0,0.0
4707,65.0,48,40,8.0,0.0
4708,74.0,0,40,7.0,0.0
4709,64.0,0,40,8.0,0.0
4710,72.0,48,40,7.0,0.0
4711,74.0,48,40,7.0,0.0
4712,65.0,0,40,8.0,0.0
4713,65.0,0,40,7.0,0.0
4714,57.0,48,40,8.0,0.0
4715,67.0,0,40,7.0,0.0
4716,59.0,48,40,8.0,0.0
4717,74.0,48,40,7.0,0.0
4718,65.0,0,40,8.0,0.0
4719,64.0,48,40,7.0,0.0
4720,60.0,0,40,8.0,0.0
4721,74.0,0,40,7.0,0.0
4722,65.0,48,40,8.0,0.0
4723,72.0,0,40,7.0,0.0
4724,64.0,48,40,8.0,0.0
4725,62.0,96,40,8.0,0.0
4726,71.0,0,40,7.0,0.0
4727,72.0,0,90,7.0,0.0
4728,64.0,96,90,8.0,0.0
4729,67.0,0,90,5.0,0.0
4730,67.0,0,90,7.0,0.0
4731,67.0,96,90,1.0,0.0
4732,60.0,0,90,8.0,0.0
4733,52.0,0,90,8.0,0.0
4734,67.0,0,90,2.0,0.0
4735,60.0,0,90,3.0,0.0
4736,52.0,0,90,4.0,0.0
4737,60.0,0,90,6.0,0.0
4738,52.0,0,90,6.0,0.0
4739,67.0,0,90,7.0,0.0
4740,53.0,96,90,6.0,0.0
4741,69.0,0,90,7.0,0.0
4742,67.0,0,90,2.0,0.0
4743,53.0,0,90,4.0,0.0
4744,69.0,0,90,1.0,0.0
4745,60.0,0,90,6.0,0.0
4746,53.0,0,90,8.0,0.0
4747,60.0,0,90,3.0,0.0
4748,67.0,0,90,5.0,0.0
4749,69.0,0,90,5.0,0.0
4750,60.0,0,90,8.0,0.0
4751,71.0,0,90,5.0,0.0
4752,65.0,0,90,5.0,0.0
4753,62.0,48,90,3.0,0.0
4754,50.0,0,90,4.0,0.0
4755,65.0,0,90,2.0,0.0
4756,62.0,0,90,8.0,0.0
4757,62.0,0,90,6.0,0.0
4758,50.0,0,90,6.0,0.0
4759,71.0,0,90,1.0,0.0
4760,50.0,0,90,8.0,0.0
4761,65.0,0,90,7.0,0.0
4762,71.0,0,90,7.0,0.0
4763,55.0,0,90,3.0,0.0
4764,67.0,30,150,5.0,0.0
4765,72.0,0,40,5.0,0.0
4766,52.0,0,90,4.0,0.0
4767,72.0,0,40,1.0,0.0
4768,52.0,0,90,8.0,0.0
4769,52.0,0,90,6.0,0.0
4770,67.0,0,90,2.0,0.0
4771,67.0,0,150,7.0,0.0
4772,72.0,48,40,7.0,0.0
4773,55.0,0,90,8.0,0.0
4774,55.0,0,90,6.0,0.0
4775,74.0,0,40,7.0,0.0
4776,74.0,48,40,5.0,0.0
4777,74.0,0,40,1.0,0.0
4778,76.0,18,40,1.0,0.0
4779,67.0,0,90,3.0,0.0
4780,72.0,0,90,2.0,0.0
4781,60.0,0,90,6.0,0.0
4782,48.0,0,90,6.0,0.0
4783,76.0,0,40,5.0,0.0
4784,76.0,0,40,7.0,0.0
4785,60.0,0,90,8.0,0.0
4786,48.0,0,90,8.0,0.0
4787,48.0,0,90,4.0,0.0
4788,72.0,0,40,5.0,0.0
4789,72.0,0,40,7.0,0.0
4790,72.0,48,40,1.0,0.0
4791,55.0,0,40,6.0,0.0
4792,74.0,48,40,1.0,0.0
4793,67.0,0,90,3.0,0.0
4794,67.0,0,90,5.0,0.0
4795,55.0,0,90,4.0,0.0
4796,55.0,0,90,8.0,0.0
4797,74.0,0,90,7.0,0.0
4798,67.0,0,90,7.0,0.0
4799,71.0,48,90,2.0,0.0
4800,59.0,0,40,6.0,0.0
4801,59.0,0,90,8.0,0.0
4802,74.0,0,40,5.0,0.0
4803,72.0,0,40,1.0,0.0
4804,72.0,0,40,5.0,0.0
4805,64.0,0,40,6.0,0.0
4806,67.0,48,90,2.0,0.0
4807,62.0,0,90,3.0,0.0
4808,43.0,0,90,8.0,0.0
4809,67.0,0,90,7.0,0.0
4810,62.0,0,90,7.0,0.0
4811,59.0,0,90,7.0,0.0
4812,71.0,48,40,5.0,0.0
4813,62.0,0,40,6.0,0.0
4814,71.0,0,40,1.0,0.0
4815,43.0,0,90,4.0,0.0
4816,69.0,0,40,1.0,0.0
4817,60.0,0,40,6.0,0.0
4818,69.0,0,40,5.0,0.0
4819,59.0,0,90,3.0,0.0
4820,62.0,0,90,2.0,0.0
4821,59.0,48,40,6.0,0.0
4822,67.0,0,90,1.0,0.0
4823,67.0,0,90,5.0,0.0
4824,76.0,48,40,7.0,0.0
4825,60.0,0,40,6.0,0.0
4826,74.0,0,40,7.0,0.0
4827,59.0,48,40,6.0,0.0
4828,57.0,48,40,6.0,0.0
4829,72.0,0,40,7.0,0.0
4830,55.0,0,90,6.0,0.0
4831,71.0,48,40,7.0,0.0
4832,64.0,0,40,8.0,0.0
4833,67.0,0,40,5.0,0.0
4834,72.0,34,40,7.0,0.0
4835,62.0,0,40,8.0,0.0
4836,65.0,0,40,5.0,0.0
4837,43.0,0,90,6.0,0.0
4838,55.0,14,30,1.0,0.0
4839,71.0,48,40,7.0,0.0
4840,64.0,0,40,5.0,0.0
4841,60.0,34,40,8.0,0.0
4842,69.0,0,40,7.0,0.0
4843,62.0,48,40,5.0,0.0
4844,59.0,0,40,8.0,0.0
4845,67.0,0,90,7.0,0.0
4846,55.0,14,30,1.0,0.0
4847,43.0,0,40,6.0,0.0
4848,60.0,0,40,8.0,0.0
4849,64.0,34,40,5.0,0.0
4850,55.0,0,40,6.0,0.0
4851,62.0,0,40,5.0,0.0
4852,55.0,0,30,2.0,0.0
4853,59.0,48,40,8.0,0.0
4854,59.0,14,30,1.0,0.0
4855,53.0,0,40,6.0,0.0
4856,60.0,0,40,5.0,0.0
4857,52.0,0,40,6.0,0.0
4858,57.0,34,40,8.0,0.0
4859,59.0,0,30,1.0,0.0
4860,50.0,48,40,6.0,0.0
4861,59.0,0,90,5.0,0.0
4862,55.0,14,30,2.0,0.0
4863,55.0,34,90,8.0,0.0
4864,67.0,0,40,7.0,0.0
4865,52.0,0,40,6.0,0.0
4866,59.0,0,30,2.0,0.0
4867,62.0,14,30,1.0,0.0
4868,55.0,0,30,3.0,0.0
4869,43.0,34,90,8.0,0.0
4870,50.0,0,40,6.0,0.0
4871,65.0,48,40,7.0,0.0
4872,64.0,0,40,7.0,0.0
4873,48.0,0,40,6.0,0.0
4874,62.0,0,40,7.0,0.0
4875,55.0,14,30,3.0,0.0
4876,62.0,0,30,1.0,0.0
4877,47.0,0,90,6.0,0.0
4878,59.0,0,30,2.0,0.0
4879,43.0,48,40,8.0,0.0
4880,55.0,34,40,8.0,0.0
4881,64.0,0,40,7.0,0.0
4882,74.0,0,90,5.0,0.0
4883,71.0,0,90,5.0,0.0
4884,67.0,34,90,5.0,0.0
4885,62.0,0,40,7.0,0.0
4886,53.0,48,40,8.0,0.0
4887,62.0,0,30,2.0,0.0
4888,59.0,0,30,3.0,0.0
4889,67.0,14,30,1.0,0.0
4890,43.0,0,90,6.0,0.0
4891,60.0,0,40,7.0,0.0
4892,52.0,0,40,8.0,0.0
4893,53.0,0,90,6.0,0.0
4894,67.0,0,90,1.0,0.0
4895,62.0,0,90,2.0,0.0
4896,59.0,0,90,7.0,0.0
4897,59.0,14,30,3.0,0.0
4898,50.0,0,40,8.0,0.0
4899,79.0,0,40,5.0,0.0
4900,71.0,0,40,5.0,0.0
4901,74.0,48,40,5.0,0.0
4902,52.0,34,40,8.0,0.0
4903,84.0,0,40,5.0,0.0
4904,50.0,48,40,8.0,0.0
4905,83.0,0,40,5.0,0.0
4906,62.0,14,30,3.0,0.0
4907,71.0,34,90,1.0,0.0
4908,67.0,0,90,2.0,0.0
4909,81.0,0,40,5.0,0.0
4910,48.0,0,40,8.0,0.0
4911,71.0,48,90,1.0,0.0
4912,67.0,0,90,2.0,0.0
4913,79.0,48,40,5.0,0.0
4914,62.0,14,30,3.0,0.0
4915,47.0,0,90,8.0,0.0
4916,81.0,0,40,5.0,0.0
4917,72.0,0,40,5.0,0.0
4918,43.0,0,90,4.0,0.0
4919,71.0,0,90,2.0,0.0
4920,71.0,48,40,5.0,0.0
4921,67.0,48,90,7.0,0.0
4922,79.0,0,40,5.0,0.0
4923,62.0,0,90,7.0,0.0
4924,74.0,0,90,1.0,0.0
4925,67.0,0,90,3.0,0.0
4926,43.0,0,90,8.0,0.0
4927,71.0,0,90,7.0,0.0
4928,69.0,0,40,5.0,0.0
4929,77.0,0,40,5.0,0.0
4930,76.0,0,90,5.0,0.0
4931,76.0,0,90,1.0,0.0
4932,67.0,0,40,5.0,0.0
4933,48.0,0,90,8.0,0.0
4934,67.0,48,40,7.0,0.0
4935,72.0,0,40,7.0,0.0
4936,48.0,48,90,4.0,0.0
4937,67.0,0,90,3.0,0.0
4938,72.0,0,90,2.0,0.0
4939,64.0,0,40,7.0,0.0
4940,69.0,0,40,5.0,0.0
4941,84.0,0,40,7.0,0.0
4942,36.0,48,90,4.0,0.0
4943,67.0,48,40,5.0,0.0
4944,83.0,0,40,7.0,0.0
4945,65.0,0,40,5.0,0.0
4946,81.0,0,40,7.0,0.0
4947,79.0,48,40,7.0,0.0
4948,64.0,48,90,5.0,0.0
4949,72.0,0,40,8.0,0.0
4950,81.0,0,40,7.0,0.0
4951,79.0,0,90,5.0,0.0
4952,79.0,0,40,7.0,0.0
4953,55.0,2,90,6.0,0.0
4954,74.0,46,90,3.0,0.0
4955,83.0,0,90,5.0,0.0
4956,74.0,0,90,5.0,0.0
4957,71.0,48,40,8.0,0.0
4958,69.0,0,40,8.0,0.0
4959,77.0,0,40,7.0,0.0
4960,60.0,48,90,6.0,0.0
4961,76.0,0,40,5.0,0.0
4962,79.0,0,40,5.0,0.0
4963,84.0,48,40,5.0,0.0
4964,67.0,0,40,8.0,0.0
4965,76.0,0,90,3.0,0.0
4966,76.0,0,90,7.0,0.0
4967,72.0,0,40,5.0,0.0
4968,69.0,0,40,8.0,0.0
4969,71.0,0,40,5.0,0.0
4970,74.0,0,90,2.0,0.0
4971,71.0,46,90,3.0,0.0
4972,67.0,48,40,8.0,0.0
4973,65.0,2,40,8.0,0.0
4974,69.0,0,40,5.0,0.0
4975,76.0,0,90,2.0,0.0
4976,67.0,48,40,5.0,0.0
4977,64.0,0,90,8.0,0.0
4978,72.0,0,90,3.0,0.0
4979,69.0,0,40,5.0,0.0
4980,60.0,48,40,6.0,0.0
4981,79.0,0,90,7.0,0.0
4982,71.0,46,90,2.0,0.0
4983,67.0,0,90,3.0,0.0
4984,74.0,0,90,1.0,0.0
4985,55.0,0,90,8.0,0.0
4986,59.0,0,40,6.0,0.0
4987,67.0,48,40,5.0,0.0
4988,74.0,0,90,7.0,0.0
4989,83.0,2,90,7.0,0.0
4990,65.0,0,40,5.0,0.0
4991,57.0,0,40,6.0,0.0
4992,60.0,0,90,3.0,0.0
4993,55.0,0,40,6.0,0.0
4994,76.0,48,90,1.0,0.0
4995,64.0,0,90,5.0,0.0
4996,67.0,0,90,2.0,0.0
4997,79.0,0,40,7.0,0.0
4998,76.0,0,40,7.0,0.0
4999,48.0,0,90,8.0,0.0
5000,84.0,48,40,7.0,0.0
5001,72.0,0,40,7.0,0.0
5002,57.0,0,40,6.0,0.0
5003,55.0,0,40,6.0,0.0
5004,62.0,46,90,3.0,0.0
5005,71.0,0,90,1.0,0.0
5006,71.0,48,40,7.0,0.0
5007,53.0,0,40,6.0,0.0
5008,69.0,2,40,7.0,0.0
5009,72.0,0,90,1.0,0.0
5010,67.0,48,40,7.0,0.0
5011,64.0,0,90,3.0,0.0
5012,67.0,0,15,2.0,0.0
5013,52.0,0,90,6.0,0.0
5014,69.0,48,40,7.0,0.0
5015,60.0,0,40,8.0,0.0
5016,59.0,48,40,8.0,0.0
5017,43.0,2,90,6.0,0.0
5018,62.0,0,90,5.0,0.0
5019,67.0,0,90,5.0,0.0
5020,71.0,0,90,5.0,0.0
5021,59.0,46,90,3.0,0.0
5022,62.0,0,90,2.0,0.0
5023,67.0,0,40,7.0,0.0
5024,67.0,0,90,1.0,0.0
5025,57.0,0,40,8.0,0.0
5026,65.0,0,40,7.0,0.0
5027,64.0,0,90,7.0,0.0
5028,67.0,0,90,1.0,0.0
5029,64.0,0,90,2.0,0.0
5030,48.0,0,90,6.0,0.0
5031,55.0,48,90,3.0,0.0
5032,64.0,0,40,5.0,0.0
5033,55.0,0,40,8.0,0.0
5034,67.0,48,40,5.0,0.0
5035,72.0,0,40,5.0,0.0
5036,57.0,0,40,8.0,0.0
5037,77.0,0,40,5.0,0.0
5038,76.0,0,40,5.0,0.0
5039,59.0,0,90,2.0,0.0
5040,62.0,0,90,1.0,0.0
5041,55.0,46,90,3.0,0.0
5042,55.0,48,40,8.0,0.0
5043,53.0,2,40,8.0,0.0
5044,74.0,0,40,5.0,0.0
5045,52.0,0,90,8.0,0.0
5046,60.0,0,90,2.0,0.0
5047,64.0,0,90,1.0,0.0
5048,72.0,48,40,5.0,0.0
5049,55.0,0,90,3.0,0.0
5050,74.0,48,40,5.0,0.0
5051,65.0,0,40,6.0,0.0
5052,64.0,48,40,6.0,0.0
5053,68.0,0,90,1.0,0.0
5054,59.0,0,90,3.0,0.0
5055,64.0,0,90,7.0,0.0
5056,64.0,0,90,2.0,0.0
5057,68.0,0,90,7.0,0.0
5058,72.0,0,40,5.0,0.0
5059,52.0,0,90,4.0,0.0
5060,40.0,0,90,8.0,0.0
5061,59.0,0,90,7.0,0.0
5062,71.0,0,40,5.0,0.0
5063,62.0,48,40,6.0,0.0
5064,57.0,0,90,4.0,0.0
5065,64.0,48,40,7.0,0.0
5066,60.0,0,40,7.0,0.0
5067,69.0,0,40,7.0,0.0
5068,69.0,0,90,1.0,0.0
5069,60.0,0,90,3.0,0.0
5070,64.0,0,90,2.0,0.0
5071,45.0,0,90,8.0,0.0
5072,69.0,48,90,5.0,0.0
5073,60.0,0,40,6.0,0.0
5074,62.0,0,40,6.0,0.0
5075,77.0,0,40,7.0,0.0
5076,60.0,0,40,6.0,0.0
5077,76.0,48,40,7.0,0.0
5078,45.0,0,90,4.0,0.0
5079,74.0,48,40,7.0,0.0
5080,59.0,0,40,6.0,0.0
5081,57.0,0,90,6.0,0.0
5082,72.0,48,40,7.0,0.0
5083,65.0,0,40,8.0,0.0
5084,74.0,48,40,7.0,0.0
5085,69.0,0,40,5.0,0.0
5086,67.0,0,40,5.0,0.0
5087,72.0,0,40,7.0,0.0
5088,64.0,48,40,8.0,0.0
5089,45.0,0,90,6.0,0.0
5090,71.0,0,40,7.0,0.0
5091,65.0,0,40,5.0,0.0
5092,62.0,48,40,8.0,0.0
5093,60.0,0,40,8.0,0.0
5094,64.0,0,40,5.0,0.0
5095,69.0,34,90,7.0,0.0
5096,45.0,48,40,6.0,0.0
5097,62.0,0,40,8.0,0.0
5098,57.0,0,40,6.0,0.0
5099,65.0,0,40,5.0,0.0
5100,57.0,14,30,1.0,0.0
5101,55.0,0,40,6.0,0.0
5102,64.0,48,40,5.0,0.0
5103,60.0,0,40,8.0,0.0
5104,59.0,0,40,8.0,0.0
5105,53.0,34,40,6.0,0.0
5106,62.0,0,40,5.0,0.0
5107,60.0,0,90,5.0,0.0
5108,57.0,14,30,1.0,0.0
5109,57.0,34,90,8.0,0.0
5110,52.0,48,40,6.0,0.0
5111,53.0,0,40,6.0,0.0
5112,69.0,0,40,7.0,0.0
5113,52.0,0,40,6.0,0.0
5114,57.0,0,30,2.0,0.0
5115,61.0,14,30,1.0,0.0
5116,67.0,48,40,7.0,0.0
5117,45.0,34,90,8.0,0.0
5118,65.0,0,40,7.0,0.0
5119,50.0,0,40,6.0,0.0
5120,57.0,14,30,2.0,0.0
5121,49.0,0,90,6.0,0.0
5122,61.0,0,30,1.0,0.0
5123,64.0,48,40,7.0,0.0
5124,45.0,0,40,8.0,0.0
5125,57.0,34,40,8.0,0.0
5126,65.0,0,40,7.0,0.0
5127,64.0,0,40,7.0,0.0
5128,45.0,0,90,6.0,0.0
5129,57.0,0,30,3.0,0.0
5130,64.0,14,30,1.0,0.0
5131,57.0,0,90,5.0,0.0
5132,61.0,0,90,5.0,0.0
5133,55.0,48,40,8.0,0.0
5134,64.0,34,90,5.0,0.0
5135,61.0,0,30,2.0,0.0
5136,62.0,0,40,7.0,0.0
5137,53.0,0,40,8.0,0.0
5138,61.0,0,30,2.0,0.0
5139,61.0,48,40,5.0,0.0
5140,64.0,0,40,5.0,0.0
5141,69.0,0,40,5.0,0.0
5142,57.0,14,30,3.0,0.0
5143,64.0,0,30,1.0,0.0
5144,55.0,0,90,6.0,0.0
5145,52.0,0,40,8.0,0.0
5146,61.0,0,90,7.0,0.0
5147,74.0,34,40,5.0,0.0
5148,53.0,0,40,8.0,0.0
5149,69.0,0,30,1.0,0.0
5150,61.0,0,30,3.0,0.0
5151,73.0,48,40,5.0,0.0
5152,64.0,14,30,2.0,0.0
5153,52.0,0,40,8.0,0.0
5154,71.0,0,40,5.0,0.0
5155,50.0,48,40,8.0,0.0
5156,49.0,48,90,8.0,0.0
5157,69.0,48,40,5.0,0.0
5158,64.0,0,90,2.0,0.0
5159,69.0,0,90,1.0,0.0
5160,61.0,0,90,3.0,0.0
5161,62.0,0,40,6.0,0.0
5162,70.0,0,40,5.0,0.0
5163,69.0,48,40,5.0,0.0
5164,69.0,0,90,2.0,0.0
5165,52.0,0,90,8.0,0.0
5166,45.0,0,90,8.0,0.0
5167,61.0,0,40,6.0,0.0
5168,45.0,0,90,4.0,0.0
5169,64.0,0,90,3.0,0.0
5170,61.0,0,90,7.0,0.0
5171,73.0,0,90,1.0,0.0
5172,57.0,0,90,8.0,0.0
5173,59.0,0,40,6.0,0.0
5174,67.0,48,40,5.0,0.0
5175,57.0,0,40,8.0,0.0
5176,53.0,0,40,8.0,0.0
5177,50.0,0,40,8.0,0.0
5178,50.0,0,90,4.0,0.0
5179,65.0,0,90,3.0,0.0
5180,62.0,0,40,7.0,0.0
5181,65.0,0,90,5.0,0.0
5182,74.0,48,90,1.0,0.0
5183,69.0,0,90,2.0,0.0
5184,57.0,48,40,6.0,0.0
5185,74.0,0,40,7.0,0.0
5186,58.0,0,40,6.0,0.0
5187,73.0,0,40,7.0,0.0
5188,57.0,48,40,6.0,0.0
5189,71.0,0,40,7.0,0.0
5190,55.0,48,40,6.0,0.0
5191,69.0,0,40,7.0,0.0
5192,53.0,0,90,6.0,0.0
5193,62.0,48,40,8.0,0.0
5194,70.0,0,40,7.0,0.0
5195,61.0,48,40,8.0,0.0
5196,59.0,48,40,8.0,0.0
5197,69.0,0,40,7.0,0.0
5198,45.0,2,90,6.0,0.0
5199,64.0,0,90,5.0,0.0
5200,69.0,0,90,5.0,0.0
5201,73.0,0,90,5.0,0.0
5202,64.0,46,90,3.0,0.0
5203,67.0,0,40,7.0,0.0
5204,57.0,0,40,8.0,0.0
5205,74.0,0,40,5.0,0.0
5206,69.0,0,40,5.0,0.0
5207,65.0,48,40,5.0,0.0
5208,50.0,0,90,6.0,0.0
5209,58.0,0,40,8.0,0.0
5210,65.0,0,90,7.0,0.0
5211,65.0,0,90,3.0,0.0
5212,57.0,0,40,8.0,0.0
5213,62.0,48,40,5.0,0.0
5214,61.0,48,40,5.0,0.0
5215,61.0,0,90,3.0,0.0
5216,64.0,46,90,2.0,0.0
5217,55.0,0,40,8.0,0.0
5218,59.0,2,40,5.0,0.0
5219,53.0,0,150,8.0,0.0
5220,65.0,0,90,2.0,0.0
5221,62.0,48,90,3.0,0.0
5222,57.0,48,40,5.0,0.0
5223,50.0,0,40,6.0,0.0
5224,58.0,0,40,5.0,0.0
5225,69.0,2,90,7.0,0.0
5226,64.0,0,90,7.0,0.0
5227,49.0,48,40,6.0,0.0
5228,57.0,0,90,3.0,0.0
5229,57.0,0,40,5.0,0.0
5230,64.0,46,90,1.0,0.0
5231,45.0,0,90,8.0,0.0
5232,73.0,0,90,7.0,0.0
5233,61.0,0,90,2.0,0.0
5234,47.0,0,40,6.0,0.0
5235,55.0,0,40,5.0,0.0
5236,74.0,0,40,7.0,0.0
5237,69.0,48,40,7.0,0.0
5238,65.0,0,40,7.0,0.0
5239,65.0,0,90,1.0,0.0
5240,62.0,0,90,2.0,0.0
5241,57.0,0,90,3.0,0.0
5242,53.0,0,90,5.0,0.0
5243,38.0,0,90,8.0,0.0
5244,45.0,0,40,6.0,0.0
5245,46.0,0,40,6.0,0.0
5246,62.0,48,40,7.0,0.0
5247,52.0,46,90,3.0,0.0
5248,61.0,0,90,1.0,0.0
5249,57.0,0,90,2.0,0.0
5250,45.0,0,40,6.0,0.0
5251,61.0,48,40,7.0,0.0
5252,43.0,2,40,6.0,0.0
5253,59.0,0,40,7.0,0.0
5254,62.0,0,90,1.0,0.0
5255,42.0,0,90,6.0,0.0
5256,57.0,48,40,7.0,0.0
5257,57.0,0,90,2.0,0.0
5258,54.0,0,90,3.0,0.0
5259,50.0,48,40,8.0,0.0
5260,58.0,0,40,7.0,0.0
5261,57.0,0,40,7.0,0.0
5262,66.0,46,90,1.0,0.0
5263,49.0,48,40,8.0,0.0
5264,62.0,0,90,2.0,0.0
5265,69.0,2,90,5.0,0.0
5266,66.0,0,90,5.0,0.0
5267,60.0,0,90,5.0,0.0
5268,45.0,0,90,6.0,0.0
5269,57.0,0,90,3.0,0.0
5270,47.0,0,40,8.0,0.0
5271,55.0,0,40,7.0,0.0
5272,62.0,0,90,2.0,0.0
5273,38.0,0,90,6.0,0.0
5274,57.0,0,90,3.0,0.0
5275,45.0,48,40,8.0,0.0
5276,54.0,0,90,7.0,0.0
5277,72.0,0,40,5.0,0.0
5278,69.0,0,40,5.0,0.0
5279,66.0,0,40,5.0,0.0
5280,62.0,0,40,5.0,0.0
5281,66.0,48,90,1.0,0.0
5282,79.0,0,40,5.0,0.0
5283,46.0,0,40,8.0,0.0
5284,78.0,0,40,5.0,0.0
5285,62.0,46,90,3.0,0.0
5286,45.0,48,40,8.0,0.0
5287,76.0,2,40,5.0,0.0
5288,43.0,0,40,8.0,0.0
5289,69.0,0,15,1.0,0.0
5290,42.0,0,90,8.0,0.0
5291,66.0,0,15,2.0,0.0
5292,62.0,0,90,3.0,0.0
5293,74.0,48,40,5.0,0.0
5294,75.0,0,40,5.0,0.0
5295,67.0,0,40,6.0,0.0
5296,72.0,48,90,1.0,0.0
5297,66.0,0,40,6.0,0.0
5298,57.0,0,90,7.0,0.0
5299,62.0,0,90,7.0,0.0
5300,66.0,0,90,7.0,0.0
5301,38.0,0,90,8.0,0.0
5302,38.0,0,90,4.0,0.0
5303,66.0,0,90,3.0,0.0
5304,74.0,48,40,5.0,0.0
5305,69.0,0,90,2.0,0.0
5306,64.0,0,40,6.0,0.0
5307,72.0,0,40,5.0,0.0
5308,62.0,0,40,6.0,0.0
5309,58.0,0,40,7.0,0.0
5310,62.0,48,40,7.0,0.0
5311,62.0,0,90,3.0,0.0
5312,43.0,48,90,8.0,0.0
5313,70.0,0,90,5.0,0.0
5314,43.0,0,90,4.0,0.0
5315,67.0,0,90,2.0,0.0
5316,70.0,0,90,1.0,0.0
5317,67.0,0,40,7.0,0.0
5318,63.0,0,40,6.0,0.0
5319,79.0,0,40,7.0,0.0
5320,78.0,48,40,7.0,0.0
5321,81.0,46,90,1.0,0.0
5322,62.0,0,40,6.0,0.0
5323,76.0,2,40,7.0,0.0
5324,60.0,0,40,6.0,0.0
5325,74.0,48,40,7.0,0.0
5326,58.0,48,90,6.0,0.0
5327,82.0,0,90,1.0,0.0
5328,67.0,0,40,8.0,0.0
5329,75.0,0,40,7.0,0.0
5330,66.0,48,40,8.0,0.0
5331,74.0,0,40,7.0,0.0
5332,74.0,0,90,5.0,0.0
5333,69.0,0,90,5.0,0.0
5334,78.0,0,90,5.0,0.0
5335,78.0,46,90,1.0,0.0
5336,69.0,0,90,2.0,0.0
5337,62.0,2,90,6.0,0.0
5338,72.0,0,40,7.0,0.0
5339,64.0,0,40,8.0,0.0
5340,55.0,0,90,6.0,0.0
5341,70.0,48,40,5.0,0.0
5342,74.0,0,40,5.0,0.0
5343,79.0,0,40,5.0,0.0
5344,79.0,0,90,1.0,0.0
5345,70.0,0,90,2.0,0.0
5346,62.0,0,40,8.0,0.0
5347,70.0,48,90,7.0,0.0
5348,63.0,0,40,8.0,0.0
5349,67.0,0,40,5.0,0.0
5350,74.0,46,90,1.0,0.0
5351,66.0,0,90,2.0,0.0
5352,62.0,0,40,8.0,0.0
5353,57.0,0,90,3.0,0.0
5354,66.0,48,40,5.0,0.0
5355,60.0,2,40,8.0,0.0
5356,64.0,0,40,5.0,0.0
5357,67.0,0,90,2.0,0.0
5358,58.0,0,90,3.0,0.0
5359,58.0,0,90,8.0,0.0
5360,62.0,48,40,5.0,0.0
5361,74.0,48,90,1.0,0.0
5362,55.0,0,40,6.0,0.0
5363,63.0,0,40,5.0,0.0
5364,54.0,0,90,3.0,0.0
5365,69.0,0,90,7.0,0.0
5366,74.0,0,90,7.0,0.0
5367,62.0,48,40,5.0,0.0
5368,78.0,0,90,7.0,0.0
5369,69.0,0,90,2.0,0.0
5370,54.0,0,40,6.0,0.0
5371,50.0,0,90,8.0,0.0
5372,60.0,2,40,5.0,0.0
5373,52.0,0,40,6.0,0.0
5374,43.0,0,90,8.0,0.0
5375,55.0,0,90,3.0,0.0
5376,70.0,0,90,2.0,0.0
5377,74.0,46,15,1.0,0.0
5378,70.0,0,40,7.0,0.0
5379,58.0,0,90,5.0,0.0
5380,50.0,0,40,6.0,0.0
5381,74.0,0,40,7.0,0.0
5382,79.0,48,40,7.0,0.0
5383,51.0,48,40,6.0,0.0
5384,67.0,0,40,7.0,0.0
5385,66.0,0,40,7.0,0.0
5386,66.0,46,90,2.0,0.0
5387,74.0,0,90,1.0,0.0
5388,57.0,0,90,3.0,0.0
5389,50.0,48,40,6.0,0.0
5390,64.0,0,40,7.0,0.0
5391,48.0,2,40,6.0,0.0
5392,46.0,0,90,6.0,0.0
5393,58.0,48,90,3.0,0.0
5394,74.0,0,90,1.0,0.0
5395,62.0,48,40,7.0,0.0
5396,67.0,0,90,2.0,0.0
5397,63.0,0,40,7.0,0.0
5398,55.0,0,40,8.0,0.0
5399,54.0,48,40,8.0,0.0
5400,57.0,0,90,3.0,0.0
5401,62.0,0,40,7.0,0.0
5402,66.0,46,90,1.0,0.0
5403,66.0,2,90,5.0,0.0
5404,62.0,0,90,5.0,0.0
5405,62.0,0,90,2.0,0.0
5406,57.0,0,90,6.0,0.0
5407,50.0,0,90,6.0,0.0
5408,52.0,0,40,8.0,0.0
5409,60.0,0,40,7.0,0.0
5410,62.0,0,90,5.0,0.0
5411,58.0,0,90,3.0,0.0
5412,58.0,0,90,7.0,0.0
5413,58.0,0,90,6.0,0.0
5414,43.0,0,90,6.0,0.0
5415,67.0,48,90,1.0,0.0
5416,50.0,48,40,8.0,0.0
5417,62.0,0,90,2.0,0.0
5418,67.0,0,90,5.0,0.0
5419,51.0,0,40,8.0,0.0
5420,55.0,0,90,3.0,0.0
5421,55.0,0,90,6.0,0.0
5422,46.0,0,90,4.0,0.0
5423,46.0,0,90,6.0,0.0
5424,62.0,96,90,5.0,0.0
5425,62.0,0,90,1.0,0.0
5426,62.0,0,90,7.0,0.0
5427,50.0,48,40,8.0,0.0
5428,62.0,0,90,2.0,0.0
5429,48.0,0,40,8.0,0.0
5430,60.0,0,90,5.0,0.0
5431,55.0,0,90,6.0,0.0
5432,64.0,0,90,5.0,0.0
5433,64.0,0,90,7.0,0.0
5434,46.0,0,90,4.0,0.0
5435,64.0,0,90,1.0,0.0
5436,60.0,96,90,2.0,0.0
5437,46.0,0,90,8.0,0.0
5438,55.0,0,90,8.0,0.0
5439,46.0,0,90,6.0,0.0
5440,60.0,0,90,7.0,0.0
5441,55.0,0,90,3.0,0.0
5442,60.0,0,90,2.0,0.0
5443,45.0,0,90,4.0,0.0
5444,57.0,0,90,6.0,0.0
5445,66.0,0,90,1.0,0.0
5446,60.0,0,90,7.0,0.0
5447,45.0,0,90,6.0,0.0
5448,57.0,0,90,3.0,0.0
5449,60.0,0,90,5.0,0.0
5450,66.0,0,90,5.0,0.0
5451,45.0,0,90,8.0,0.0
5452,57.0,0,90,8.0,0.0
5453,66.0,48,90,7.0,0.0
5454,67.0,0,40,7.0,0.0
5455,50.0,0,90,8.0,0.0
5456,46.0,0,90,8.0,0.0
5457,67.0,48,40,5.0,0.0
5458,62.0,30,150,5.0,0.0
5459,62.0,0,150,7.0,0.0
5460,50.0,0,90,3.0,0.0
5461,50.0,0,90,6.0,0.0
5462,46.0,0,90,6.0,0.0
5463,67.0,0,40,1.0,0.0
5464,62.0,0,90,2.0,0.0
5465,46.0,0,90,4.0,0.0
5466,69.0,0,40,1.0,0.0
5467,69.0,0,40,7.0,0.0
5468,69.0,48,40,5.0,0.0
5469,43.0,0,90,8.0,0.0
5470,70.0,0,40,7.0,0.0
5471,70.0,18,40,5.0,0.0
5472,55.0,0,90,8.0,0.0
5473,43.0,0,90,4.0,0.0
5474,62.0,0,90,2.0,0.0
5475,43.0,0,90,6.0,0.0
5476,70.0,0,40,1.0,0.0
5477,55.0,0,90,3.0,0.0
5478,55.0,0,90,6.0,0.0
5479,67.0,0,40,1.0,0.0
5480,67.0,48,40,7.0,0.0
5481,67.0,0,40,5.0,0.0
5482,50.0,0,90,6.0,0.0
5483,57.0,48,90,6.0,0.0
5484,50.0,0,90,8.0,0.0
5485,57.0,0,90,8.0,0.0
5486,38.0,30,1410,4.0,0.0
5487,66.0,48,40,5.0,0.0
5488,57.0,0,1410,3.0,0.0
5489,72.0,0,40,7.0,0.0
5490,72.0,0,1410,1.0,0.0
5491,66.0,0,1410,2.0,0.0
5492,66.0,0,90,7.0,0.0
5493,72.0,0,40,5.0,0.0
5494,69.0,0,40,7.0,0.0
5495,64.0,48,40,5.0,0.0
5496,72.0,0,40,7.0,0.0
5497,52.0,0,90,6.0,0.0
5498,67.0,0,40,7.0,0.0
5499,72.0,34,40,5.0,0.0
5500,54.0,34,90,6.0,0.0
5501,62.0,0,40,5.0,0.0
5502,72.0,48,40,7.0,0.0
5503,57.0,14,30,8.0,0.0
5504,66.0,0,40,7.0,0.0
5505,72.0,0,40,5.0,0.0
5506,64.0,48,40,5.0,0.0
5507,55.0,14,30,8.0,0.0
5508,72.0,0,40,7.0,0.0
5509,55.0,48,90,6.0,0.0
5510,64.0,0,40,7.0,0.0
5511,72.0,0,40,5.0,0.0
5512,66.0,48,40,5.0,0.0
5513,54.0,0,90,8.0,0.0
5514,72.0,0,40,7.0,0.0
5515,57.0,48,90,6.0,0.0
5516,62.0,0,40,7.0,0.0
5517,72.0,0,40,5.0,0.0
5518,52.0,0,90,8.0,0.0
5519,55.0,0,90,6.0,0.0
5520,72.0,48,40,7.0,0.0
5521,67.0,0,40,5.0,0.0
5522,64.0,48,40,7.0,0.0
5523,72.0,0,40,5.0,0.0
5524,50.0,48,90,8.0,0.0
5525,69.0,0,40,5.0,0.0
5526,72.0,48,40,7.0,0.0
5527,54.0,0,90,6.0,0.0
5528,72.0,0,40,5.0,0.0
5529,66.0,0,40,7.0,0.0
5530,52.0,0,90,6.0,0.0
5531,52.0,0,90,8.0,0.0
5532,67.0,48,40,5.0,0.0
5533,72.0,0,40,7.0,0.0
5534,72.0,48,40,5.0,0.0
5535,67.0,0,40,7.0,0.0
5536,66.0,48,40,5.0,0.0
5537,72.0,0,40,7.0,0.0
5538,54.0,0,90,8.0,0.0
5539,50.0,0,90,6.0,0.0
5540,72.0,48,40,5.0,0.0
5541,69.0,0,40,7.0,0.0
5542,55.0,0,90,8.0,0.0
5543,64.0,0,40,5.0,0.0
5544,52.0,0,90,6.0,0.0
5545,72.0,48,40,7.0,0.0
5546,67.0,48,40,7.0,0.0
5547,72.0,0,40,5.0,0.0
5548,57.0,0,90,8.0,0.0
5549,54.0,0,90,6.0,0.0
5550,72.0,48,40,7.0,0.0
5551,62.0,0,40,5.0,0.0
5552,66.0,0,40,7.0,0.0
5553,72.0,48,40,5.0,0.0
5554,72.0,48,40,7.0,0.0
5555,55.0,0,90,8.0,0.0
5556,64.0,0,40,5.0,0.0
5557,55.0,0,90,6.0,0.0
5558,64.0,0,40,7.0,0.0
5559,72.0,48,40,5.0,0.0
5560,57.0,0,90,6.0,0.0
5561,54.0,0,90,8.0,0.0
5562,66.0,0,40,5.0,0.0
5563,72.0,48,40,7.0,0.0
5564,72.0,48,40,5.0,0.0
5565,62.0,0,40,7.0,0.0
5566,55.0,48,90,6.0,0.0
5567,72.0,48,40,7.0,0.0
5568,67.0,0,40,5.0,0.0
5569,52.0,0,90,8.0,0.0
5570,72.0,0,40,5.0,0.0
5571,64.0,0,40,7.0,0.0
5572,50.0,0,90,8.0,0.0
5573,72.0,0,40,7.0,0.0
5574,69.0,18,40,5.0,0.0
5575,54.0,0,90,6.0,0.0
5576,72.0,48,40,5.0,0.0
5577,66.0,0,40,7.0,0.0
5578,70.0,0,40,5.0,0.0
5579,50.0,0,90,6.0,0.0
5580,62.0,0,90,8.0,0.0
5581,62.0,0,90,3.0,0.0
5582,50.0,0,90,4.0,0.0
5583,67.0,48,40,2.0,0.0
5584,70.0,0,40,1.0,0.0
5585,67.0,0,40,7.0,0.0
5586,66.0,0,40,2.0,0.0
5587,69.0,48,40,5.0,0.0
5588,69.0,0,40,1.0,0.0
5589,66.0,0,40,7.0,0.0
5590,67.0,0,40,7.0,0.0
5591,55.0,0,90,6.0,0.0
5592,70.0,0,90,1.0,0.0
5593,62.0,0,90,3.0,0.0
5594,67.0,0,90,2.0,0.0
5595,58.0,0,90,8.0,0.0
5596,70.0,48,40,5.0,0.0
5597,55.0,48,90,4.0,0.0
5598,67.0,0,40,5.0,0.0
5599,70.0,0,40,7.0,0.0
5600,74.0,48,40,7.0,0.0
5601,70.0,0,40,5.0,0.0
5602,43.0,0,90,6.0,0.0
5603,55.0,0,90,8.0,0.0
5604,67.0,0,40,7.0,0.0
5605,62.0,48,40,5.0,0.0
5606,60.0,48,90,3.0,0.0
5607,75.0,0,90,1.0,0.0
5608,67.0,0,90,2.0,0.0
5609,60.0,48,40,5.0,0.0
5610,75.0,48,240,7.0,0.0
5611,48.0,0,90,4.0,0.0
5612,48.0,0,40,6.0,0.0
5613,63.0,0,40,8.0,0.0
5614,70.0,0,40,5.0,0.0
5615,69.0,48,40,5.0,0.0
5616,65.0,0,40,8.0,0.0
5617,50.0,0,40,6.0,0.0
5618,67.0,0,40,8.0,0.0
5619,51.0,0,40,6.0,0.0
5620,67.0,48,40,5.0,0.0
5621,60.0,0,90,8.0,0.0
5622,53.0,0,90,4.0,0.0
5623,60.0,48,90,3.0,0.0
5624,69.0,0,40,5.0,0.0
5625,69.0,0,90,2.0,0.0
5626,75.0,0,90,1.0,0.0
5627,53.0,0,90,6.0,0.0
5628,65.0,0,40,5.0,0.0
5629,69.0,0,40,7.0,0.0
5630,69.0,0,40,5.0,0.0
5631,72.0,48,40,7.0,0.0
5632,57.0,0,90,8.0,0.0
5633,41.0,0,90,6.0,0.0
5634,60.0,48,40,5.0,0.0
5635,65.0,0,40,7.0,0.0
5636,46.0,0,90,4.0,0.0
5637,74.0,0,90,1.0,0.0
5638,58.0,0,90,3.0,0.0
5639,74.0,0,240,7.0,0.0
5640,68.0,0,90,2.0,0.0
5641,58.0,48,40,5.0,0.0
5642,68.0,48,40,5.0,0.0
5643,46.0,0,40,6.0,0.0
5644,62.0,0,40,8.0,0.0
5645,64.0,0,40,8.0,0.0
5646,48.0,48,40,6.0,0.0
5647,67.0,0,40,5.0,0.0
5648,50.0,0,40,6.0,0.0
5649,66.0,0,40,5.0,0.0
5650,66.0,48,40,8.0,0.0
5651,51.0,0,90,4.0,0.0
5652,67.0,48,40,5.0,0.0
5653,67.0,0,90,2.0,0.0
5654,58.0,0,90,8.0,0.0
5655,74.0,0,90,1.0,0.0
5656,51.0,48,90,6.0,0.0
5657,58.0,0,90,3.0,0.0
5658,63.0,0,40,5.0,0.0
5659,67.0,0,40,7.0,0.0
5660,70.0,48,40,7.0,0.0
5661,55.0,48,90,8.0,0.0
5662,67.0,0,40,5.0,0.0
5663,39.0,0,90,6.0,0.0
5664,58.0,0,40,5.0,0.0
5665,63.0,0,40,7.0,0.0
5666,72.0,0,90,1.0,0.0
5667,72.0,0,300,7.0,0.0
5668,67.0,0,90,2.0,0.0
5669,45.0,0,90,4.0,0.0
5670,57.0,0,90,3.0,0.0
5671,57.0,48,40,5.0,0.0
5672,60.0,48,40,8.0,0.0
5673,45.0,0,40,6.0,0.0
5674,67.0,0,40,5.0,0.0
5675,46.0,0,40,6.0,0.0
5676,62.0,0,40,8.0,0.0
5677,66.0,48,40,5.0,0.0
5678,48.0,0,40,6.0,0.0
5679,64.0,0,40,5.0,0.0
5680,63.0,48,40,8.0,0.0
5681,66.0,0,90,5.0,0.0
5682,66.0,0,90,2.0,0.0
5683,50.0,0,90,4.0,0.0
5684,72.0,0,90,1.0,0.0
5685,50.0,48,90,6.0,0.0
5686,57.0,0,90,3.0,0.0
5687,57.0,48,40,8.0,0.0
5688,55.0,0,40,8.0,0.0
5689,54.0,48,40,8.0,0.0
5690,62.0,0,40,7.0,0.0
5691,64.0,0,40,7.0,0.0
5692,52.0,48,40,8.0,0.0
5693,66.0,0,90,7.0,0.0
5694,50.0,48,40,8.0,0.0
5695,62.0,48,40,6.0,0.0
5696,48.0,0,40,8.0,0.0
5697,67.0,0,40,7.0,0.0
5698,46.0,0,40,8.0,0.0
5699,69.0,0,90,5.0,0.0
5700,72.0,0,90,5.0,0.0
5701,74.0,0,90,5.0,0.0
5702,64.0,48,40,6.0,0.0
5703,66.0,0,40,6.0,0.0
5704,45.0,0,40,8.0,0.0
5705,69.0,48,40,7.0,0.0
5706,67.0,0,90,7.0,0.0
5707,70.0,0,90,5.0,0.0
5708,67.0,0,90,5.0,0.0
5709,70.0,0,90,1.0,0.0
5710,67.0,0,90,2.0,0.0
5711,62.0,0,90,7.0,0.0
5712,70.0,0,90,7.0,0.0
5713,43.0,0,90,4.0,0.0
5714,43.0,48,90,8.0,0.0
5715,62.0,0,90,3.0,0.0
5716,74.0,0,90,5.0,0.0
5717,67.0,48,40,6.0,0.0
5718,55.0,0,40,6.0,0.0
5719,70.0,0,40,5.0,0.0
5720,54.0,48,40,6.0,0.0
5721,52.0,0,40,6.0,0.0
5722,72.0,48,40,5.0,0.0
5723,50.0,48,40,6.0,0.0
5724,74.0,0,90,5.0,0.0
5725,48.0,48,40,6.0,0.0
5726,46.0,48,40,6.0,0.0
5727,50.0,0,90,8.0,0.0
5728,62.0,0,90,7.0,0.0
5729,69.0,0,90,7.0,0.0
5730,74.0,0,90,7.0,0.0
5731,76.0,0,40,5.0,0.0
5732,45.0,48,40,6.0,0.0
5733,78.0,0,40,5.0,0.0
5734,67.0,0,90,7.0,0.0
5735,62.0,0,90,7.0,0.0
5736,58.0,0,90,3.0,0.0
5737,67.0,0,90,1.0,0.0
5738,62.0,0,90,2.0,0.0
5739,70.0,0,90,7.0,0.0
5740,55.0,48,40,8.0,0.0
5741,43.0,48,90,6.0,0.0
5742,46.0,0,90,4.0,0.0
5743,79.0,0,90,5.0,0.0
5744,57.0,0,40,8.0,0.0
5745,58.0,0,40,8.0,0.0
5746,67.0,48,40,7.0,0.0
5747,57.0,48,40,8.0,0.0
5748,69.0,0,40,7.0,0.0
5749,55.0,48,40,8.0,0.0
5750,70.0,0,90,7.0,0.0
5751,53.0,48,40,8.0,0.0
5752,72.0,0,40,7.0,0.0
5753,63.0,0,90,6.0,0.0
5754,51.0,48,40,8.0,0.0
5755,72.0,0,90,5.0,0.0
5756,74.0,0,40,7.0,0.0
5757,50.0,48,40,8.0,0.0
5758,57.0,0,90,3.0,0.0
5759,57.0,48,40,6.0,0.0
5760,60.0,0,90,2.0,0.0
5761,72.0,0,90,5.0,0.0
5762,51.0,0,90,4.0,0.0
5763,75.0,0,90,7.0,0.0
5764,66.0,0,90,1.0,0.0
5765,48.0,0,90,8.0,0.0
5766,58.0,48,40,6.0,0.0
5767,60.0,0,40,6.0,0.0
5768,69.0,48,40,5.0,0.0
5769,58.0,0,40,6.0,0.0
5770,70.0,48,40,5.0,0.0
5771,57.0,48,40,6.0,0.0
5772,72.0,48,90,5.0,0.0
5773,60.0,0,40,6.0,0.0
5774,57.0,48,90,8.0,0.0
5775,72.0,0,180,7.0,0.0
5776,55.0,48,40,6.0,0.0
5777,75.0,0,90,5.0,0.0
5778,60.0,0,40,6.0,0.0
5779,63.0,0,90,2.0,0.0
5780,54.0,0,40,6.0,0.0
5781,69.0,0,90,1.0,0.0
5782,69.0,48,40,8.0,0.0
5783,72.0,48,90,5.0,0.0
5784,48.0,0,90,4.0,0.0
5785,60.0,0,90,3.0,0.0
5786,55.0,0,40,6.0,0.0
5787,70.0,0,40,8.0,0.0
5788,57.0,0,40,6.0,0.0
5789,78.0,48,40,7.0,0.0
5790,69.0,0,40,5.0,0.0
5791,72.0,0,40,8.0,0.0
5792,70.0,48,40,8.0,0.0
5793,79.0,0,40,7.0,0.0
5794,55.0,0,40,6.0,0.0
5795,70.0,0,40,5.0,0.0
5796,72.0,0,90,5.0,0.0
5797,69.0,0,40,8.0,0.0
5798,54.0,48,40,6.0,0.0
5799,81.0,0,90,7.0,0.0
5800,72.0,0,40,8.0,0.0
5801,57.0,48,40,6.0,0.0
5802,78.0,48,90,5.0,0.0
5803,72.0,48,180,7.0,0.0
5804,69.0,0,40,8.0,0.0
5805,50.0,48,40,6.0,0.0
5806,66.0,0,40,8.0,0.0
5807,57.0,0,40,6.0,0.0
5808,45.0,48,40,6.0,0.0
5809,69.0,0,90,2.0,0.0
5810,72.0,0,90,5.0,0.0
5811,72.0,0,90,1.0,0.0
5812,45.0,0,90,4.0,0.0
5813,60.0,0,40,8.0,0.0
5814,63.0,0,90,3.0,0.0
5815,46.0,0,40,6.0,0.0
5816,62.0,0,40,8.0,0.0
5817,78.0,0,40,7.0,0.0
5818,69.0,0,40,5.0,0.0
5819,48.0,0,40,6.0,0.0
5820,63.0,48,40,8.0,0.0
5821,46.0,48,40,6.0,0.0
5822,70.0,0,40,5.0,0.0
5823,79.0,0,40,7.0,0.0
5824,62.0,0,40,8.0,0.0
5825,72.0,0,90,5.0,0.0
5826,60.0,48,40,8.0,0.0
5827,81.0,0,90,7.0,0.0
5828,45.0,0,40,6.0,0.0
5829,63.0,48,40,8.0,0.0
5830,48.0,0,40,6.0,0.0
5831,58.0,0,40,8.0,0.0
5832,79.0,48,90,5.0,0.0
5833,72.0,0,180,7.0,0.0
5834,43.0,48,40,6.0,0.0
5835,48.0,0,40,6.0,0.0
5836,63.0,0,40,8.0,0.0
5837,72.0,0,90,2.0,0.0
5838,72.0,0,90,5.0,0.0
5839,42.0,0,90,4.0,0.0
5840,57.0,0,40,8.0,0.0
5841,75.0,0,90,1.0,0.0
5842,42.0,48,40,6.0,0.0
5843,57.0,0,90,3.0,0.0
5844,58.0,0,40,8.0,0.0
5845,43.0,48,40,6.0,0.0
5846,69.0,0,40,5.0,0.0
5847,78.0,0,40,7.0,0.0
5848,45.0,0,40,6.0,0.0
5849,60.0,48,40,8.0,0.0
5850,79.0,0,40,7.0,0.0
5851,70.0,0,40,5.0,0.0
5852,43.0,48,40,6.0,0.0
5853,58.0,0,40,8.0,0.0
5854,57.0,0,40,8.0,0.0
5855,81.0,0,40,7.0,0.0
5856,72.0,0,90,5.0,0.0
5857,42.0,48,40,6.0,0.0
5858,74.0,0,40,7.0,0.0
5859,54.0,0,40,8.0,0.0
5860,45.0,48,40,6.0,0.0
5861,50.0,0,90,4.0,0.0
5862,81.0,0,90,5.0,0.0
5863,78.0,0,90,2.0,0.0
5864,62.0,48,90,3.0,0.0
5865,74.0,0,90,1.0,0.0
5866,57.0,0,40,8.0,0.0
5867,78.0,48,40,7.0,0.0
5868,50.0,0,40,6.0,0.0
5869,81.0,0,40,7.0,0.0
5870,54.0,0,40,6.0,0.0
5871,62.0,0,40,8.0,0.0
5872,82.0,0,90,1.0,0.0
5873,58.0,0,90,8.0,0.0
5874,74.0,0,90,7.0,0.0
5875,55.0,0,90,6.0,0.0
5876,74.0,0,90,3.0,0.0
5877,55.0,0,90,4.0,0.0
5878,82.0,48,40,5.0,0.0
5879,79.0,0,90,2.0,0.0
5880,81.0,48,40,5.0,0.0
5881,63.0,0,40,8.0,0.0
5882,79.0,48,40,5.0,0.0
5883,82.0,48,90,7.0,0.0
5884,62.0,0,40,8.0,0.0
5885,82.0,0,40,5.0,0.0
5886,57.0,0,90,4.0,0.0
5887,78.0,0,90,2.0,0.0
5888,81.0,48,40,5.0,0.0
5889,72.0,0,90,7.0,0.0
5890,63.0,0,90,8.0,0.0
5891,72.0,0,90,3.0,0.0
5892,81.0,48,90,1.0,0.0
5893,79.0,0,40,5.0,0.0
5894,60.0,0,90,8.0,0.0
5895,78.0,48,40,5.0,0.0
5896,81.0,0,90,7.0,0.0
5897,81.0,48,40,5.0,0.0
5898,58.0,0,90,4.0,0.0
5899,74.0,0,40,5.0,0.0
5900,82.0,48,40,7.0,0.0
5901,79.0,0,90,2.0,0.0
5902,74.0,0,90,3.0,0.0
5903,79.0,0,90,1.0,0.0
5904,67.0,0,90,8.0,0.0
5905,72.0,0,40,5.0,0.0
5906,81.0,48,40,7.0,0.0
5907,55.0,48,90,6.0,0.0
5908,79.0,0,40,7.0,0.0
5909,70.0,48,40,5.0,0.0
5910,82.0,0,40,7.0,0.0
5911,74.0,0,40,5.0,0.0
5912,48.0,0,90,6.0,0.0
5913,81.0,0,40,7.0,0.0
5914,72.0,48,40,5.0,0.0
5915,70.0,48,40,5.0,0.0
5916,79.0,0,40,7.0,0.0
5917,62.0,0,90,4.0,0.0
5918,66.0,0,90,3.0,0.0
5919,69.0,0,90,2.0,0.0
5920,69.0,0,40,5.0,0.0
5921,78.0,48,40,7.0,0.0
5922,50.0,0,90,6.0,0.0
5923,74.0,48,90,1.0,0.0
5924,72.0,0,40,5.0,0.0
5925,81.0,0,40,7.0,0.0
5926,74.0,0,40,7.0,0.0
5927,55.0,0,90,4.0,0.0
5928,62.0,0,90,3.0,0.0
5929,55.0,0,90,6.0,0.0
5930,70.0,48,40,5.0,0.0
5931,70.0,0,90,1.0,0.0
5932,67.0,0,90,2.0,0.0
5933,72.0,0,40,7.0,0.0
5934,69.0,48,40,5.0,0.0
5935,67.0,48,40,5.0,0.0
5936,70.0,0,40,7.0,0.0
5937,43.0,0,90,6.0,0.0
5938,63.0,48,90,8.0,0.0
5939,74.0,0,40,7.0,0.0
5940,70.0,0,40,5.0,0.0
5941,66.0,0,90,2.0,0.0
5942,69.0,0,90,1.0,0.0
5943,72.0,48,40,7.0,0.0
5944,60.0,48,90,3.0,0.0
5945,69.0,0,40,5.0,0.0
5946,60.0,0,90,8.0,0.0
5947,55.0,0,90,4.0,0.0
5948,70.0,0,40,7.0,0.0
5949,67.0,0,40,5.0,0.0
5950,66.0,0,40,5.0,0.0
5951,69.0,48,40,7.0,0.0
5952,62.0,0,90,8.0,0.0
5953,69.0,0,40,5.0,0.0
5954,72.0,48,40,7.0,0.0
5955,62.0,0,40,5.0,0.0
5956,55.0,48,90,4.0,0.0
5957,62.0,0,90,2.0,0.0
5958,70.0,48,40,7.0,0.0
5959,55.0,0,40,8.0,0.0
5960,58.0,0,90,3.0,0.0
5961,67.0,0,90,1.0,0.0
5962,57.0,0,40,8.0,0.0
5963,60.0,0,40,5.0,0.0
5964,69.0,0,40,7.0,0.0
5965,58.0,0,40,8.0,0.0
5966,67.0,48,40,7.0,0.0
5967,58.0,0,40,5.0,0.0
5968,51.0,0,90,6.0,0.0
5969,55.0,0,40,8.0,0.0
5970,62.0,48,40,5.0,0.0
5971,70.0,0,40,7.0,0.0
5972,60.0,0,40,5.0,0.0
5973,69.0,0,40,7.0,0.0
5974,48.0,0,90,6.0,0.0
5975,57.0,48,40,8.0,0.0
5976,58.0,0,40,5.0,0.0
5977,67.0,0,40,7.0,0.0
5978,58.0,48,40,8.0,0.0
5979,50.0,0,90,6.0,0.0
5980,57.0,0,40,5.0,0.0
5981,66.0,48,40,7.0,0.0
5982,60.0,0,40,8.0,0.0
5983,60.0,0,40,5.0,0.0
5984,69.0,0,40,7.0,0.0
5985,57.0,48,40,8.0,0.0
5986,55.0,0,40,6.0,0.0
5987,59.0,48,40,8.0,0.0
5988,43.0,0,1410,4.0,0.0
5989,67.0,0,90,7.0,0.0
5990,62.0,0,1410,3.0,0.0
5991,77.0,0,1410,1.0,0.0
5992,71.0,30,1410,2.0,0.0
5993,59.0,0,90,5.0,0.0
5994,67.0,0,40,8.0,0.0
5995,53.0,48,40,6.0,0.0
5996,69.0,0,90,7.0,0.0
5997,60.0,0,40,8.0,0.0
5998,55.0,48,40,6.0,0.0
5999,67.0,48,90,5.0,0.0
6000,67.0,0,40,8.0,0.0
6001,51.0,0,40,6.0,0.0
6002,71.0,0,90,7.0,0.0
6003,65.0,48,90,5.0,0.0
6004,55.0,48,40,6.0,0.0
6005,62.0,0,40,8.0,0.0
6006,50.0,0,40,6.0,0.0
6007,67.0,0,40,8.0,0.0
6008,63.0,0,40,8.0,0.0
6009,63.0,0,90,5.0,0.0
6010,55.0,48,40,6.0,0.0
6011,72.0,0,90,7.0,0.0
6012,48.0,48,40,6.0,0.0
6013,67.0,0,40,8.0,0.0
6014,62.0,48,90,5.0,0.0
6015,65.0,48,40,8.0,0.0
6016,74.0,0,90,7.0,0.0
6017,55.0,0,40,6.0,0.0
6018,47.0,0,40,6.0,0.0
6019,67.0,0,40,8.0,0.0
6020,63.0,0,40,8.0,0.0
6021,60.0,0,90,5.0,0.0
6022,55.0,48,40,6.0,0.0
6023,75.0,48,90,7.0,0.0
6024,67.0,0,40,8.0,0.0
6025,48.0,0,40,6.0,0.0
6026,55.0,0,40,6.0,0.0
6027,59.0,48,90,5.0,0.0
6028,77.0,0,90,7.0,0.0
6029,62.0,48,40,8.0,0.0
6030,50.0,0,40,6.0,0.0
6031,67.0,0,40,8.0,0.0
6032,60.0,0,90,5.0,0.0
6033,60.0,0,40,8.0,0.0
6034,55.0,48,40,6.0,0.0
6035,75.0,48,90,7.0,0.0
6036,51.0,0,40,6.0,0.0
6037,67.0,0,40,8.0,0.0
6038,62.0,0,90,5.0,0.0
6039,74.0,0,90,7.0,0.0
6040,55.0,48,40,6.0,0.0
6041,59.0,0,40,8.0,0.0
6042,53.0,0,40,6.0,0.0
6043,67.0,48,40,8.0,0.0
6044,72.0,48,90,7.0,0.0
6045,55.0,0,40,6.0,0.0
6046,60.0,48,40,8.0,0.0
6047,63.0,0,90,5.0,0.0
6048,67.0,0,40,8.0,0.0
6049,51.0,0,40,6.0,0.0
6050,62.0,0,40,8.0,0.0
6051,55.0,48,40,6.0,0.0
6052,71.0,0,90,7.0,0.0
6053,65.0,0,90,5.0,0.0
6054,67.0,0,40,8.0,0.0
6055,50.0,48,40,6.0,0.0
6056,55.0,48,40,6.0,0.0
6057,63.0,0,40,8.0,0.0
6058,63.0,48,90,5.0,0.0
6059,72.0,0,90,7.0,0.0
6060,48.0,0,40,6.0,0.0
6061,67.0,0,40,8.0,0.0
6062,62.0,0,90,5.0,0.0
6063,65.0,48,40,8.0,0.0
6064,74.0,48,90,7.0,0.0
6065,55.0,0,40,6.0,0.0
6066,47.0,0,40,6.0,0.0
6067,67.0,0,40,8.0,0.0
6068,60.0,0,90,5.0,0.0
6069,75.0,0,90,7.0,0.0
6070,55.0,48,40,6.0,0.0
6071,63.0,0,40,8.0,0.0
6072,48.0,48,40,6.0,0.0
6073,67.0,0,40,8.0,0.0
6074,62.0,0,40,8.0,0.0
6075,59.0,0,90,5.0,0.0
6076,77.0,48,90,7.0,0.0
6077,55.0,18,40,6.0,0.0
6078,67.0,0,40,8.0,0.0
6079,50.0,0,40,6.0,0.0
6080,47.0,48,90,4.0,0.0
6081,75.0,0,40,1.0,0.0
6082,62.0,0,90,5.0,0.0
6083,79.0,0,90,7.0,0.0
6084,67.0,0,90,3.0,0.0
6085,55.0,48,40,6.0,0.0
6086,67.0,0,90,2.0,0.0
6087,59.0,0,40,8.0,0.0
6088,67.0,0,40,8.0,0.0
6089,74.0,0,40,1.0,0.0
6090,47.0,0,40,6.0,0.0
6091,75.0,0,40,7.0,0.0
6092,60.0,0,90,3.0,0.0
6093,60.0,48,240,8.0,0.0
6094,75.0,48,90,1.0,0.0
6095,48.0,0,90,6.0,0.0
6096,48.0,0,90,4.0,0.0
6097,60.0,48,40,5.0,0.0
6098,67.0,0,90,2.0,0.0
6099,72.0,0,40,7.0,0.0
6100,63.0,0,40,5.0,0.0
6101,75.0,48,40,7.0,0.0
6102,67.0,0,90,1.0,0.0
6103,50.0,0,90,6.0,0.0
6104,67.0,0,40,5.0,0.0
6105,67.0,48,40,7.0,0.0
6106,70.0,0,40,5.0,0.0
6107,69.0,0,240,5.0,0.0
6108,66.0,0,40,7.0,0.0
6109,72.0,0,300,1.0,0.0
6110,51.0,48,90,6.0,0.0
6111,58.0,0,40,8.0,0.0
6112,74.0,0,40,7.0,0.0
6113,63.0,0,90,3.0,0.0
6114,57.0,48,40,8.0,0.0
6115,48.0,48,90,4.0,0.0
6116,69.0,0,90,2.0,0.0
6117,72.0,0,40,7.0,0.0
6118,48.0,0,90,6.0,0.0
6119,70.0,0,40,7.0,0.0
6120,55.0,0,40,8.0,0.0
6121,72.0,48,40,7.0,0.0
6122,42.0,48,90,4.0,0.0
6123,62.0,0,90,3.0,0.0
6124,63.0,0,90,8.0,0.0
6125,42.0,30,150,6.0,0.0
6126,69.0,0,90,2.0,0.0
6127,72.0,0,40,5.0,0.0
6128,69.0,0,40,7.0,0.0
6129,57.0,0,150,8.0,0.0
6130,78.0,0,90,1.0,0.0
6131,72.0,0,40,7.0,0.0
6132,75.0,18,40,5.0,0.0
6133,79.0,48,40,5.0,0.0
6134,63.0,0,40,7.0,0.0
6135,62.0,0,40,7.0,0.0
6136,81.0,0,90,1.0,0.0
6137,78.0,48,40,5.0,0.0
6138,62.0,0,40,8.0,0.0
6139,75.0,48,40,5.0,0.0
6140,72.0,0,40,7.0,0.0
6141,74.0,0,90,1.0,0.0
6142,64.0,0,40,8.0,0.0
6143,74.0,0,40,5.0,0.0
6144,54.0,0,90,4.0,0.0
6145,70.0,48,40,7.0,0.0
6146,54.0,0,90,6.0,0.0
6147,62.0,0,90,2.0,0.0
6148,62.0,0,90,3.0,0.0
6149,69.0,0,40,7.0,0.0
6150,72.0,48,40,5.0,0.0
6151,66.0,0,40,8.0,0.0
6152,72.0,2,40,7.0,0.0
6153,67.0,0,90,8.0,0.0
6154,55.0,0,90,3.0,0.0
6155,72.0,46,40,1.0,0.0
6156,75.0,0,40,5.0,0.0
6157,62.0,0,90,2.0,0.0
6158,55.0,0,90,4.0,0.0
6159,55.0,0,90,6.0,0.0
6160,70.0,0,40,1.0,0.0
6161,70.0,0,40,7.0,0.0
6162,74.0,48,40,5.0,0.0
6163,58.0,0,40,8.0,0.0
6164,50.0,0,90,3.0,0.0
6165,72.0,0,40,5.0,0.0
6166,46.0,0,40,6.0,0.0
6167,62.0,0,90,2.0,0.0
6168,46.0,2,40,4.0,0.0
6169,69.0,0,40,7.0,0.0
6170,69.0,46,40,1.0,0.0
6171,67.0,0,40,1.0,0.0
6172,67.0,0,40,7.0,0.0
6173,48.0,0,40,6.0,0.0
6174,48.0,0,40,4.0,0.0
6175,75.0,48,40,5.0,0.0
6176,60.0,0,40,8.0,0.0
6177,70.0,46,40,1.0,0.0
6178,70.0,0,40,7.0,0.0
6179,62.0,0,90,2.0,0.0
6180,50.0,0,90,4.0,0.0
6181,50.0,0,90,3.0,0.0
6182,74.0,2,40,5.0,0.0
6183,62.0,0,90,8.0,0.0
6184,50.0,48,90,6.0,0.0
6185,72.0,0,40,5.0,0.0
6186,69.0,0,40,1.0,0.0
6187,69.0,0,40,7.0,0.0
6188,38.0,0,90,6.0,0.0
6189,67.0,2,40,7.0,0.0
6190,67.0,46,40,1.0,0.0
6191,62.0,24,90,2.0,0.0
6192,70.0,0,40,5.0,0.0
6193,50.0,0,90,8.0,0.0
6194,38.0,0,90,4.0,0.0
6195,57.0,0,90,3.0,0.0
6196,69.0,0,40,5.0,0.0
6197,66.0,0,40,1.0,0.0
6198,66.0,0,40,7.0,0.0
6199,67.0,0,90,1.0,0.0
6200,62.0,0,90,2.0,0.0
6201,43.0,24,20,6.0,0.0
6202,55.0,0,150,8.0,0.0
6203,43.0,0,90,4.0,0.0
6204,67.0,6,150,7.0,0.0
6205,67.0,24,90,5.0,0.0
6206,59.0,0,90,3.0,0.0
6207,50.0,24,20,6.0,0.0
6208,52.0,24,20,6.0,0.0
6209,53.0,0,20,6.0,0.0
6210,55.0,24,20,6.0,0.0
6211,57.0,18,20,6.0,0.0
6212,59.0,24,20,6.0,0.0
6213,60.0,24,20,6.0,0.0
6214,62.0,24,20,5.0,0.0
6215,64.0,24,20,5.0,0.0
6216,65.0,24,20,5.0,0.0
6217,67.0,24,20,5.0,0.0
6218,69.0,24,20,5.0,0.0
6219,71.0,24,20,5.0,0.0
6220,72.0,24,20,5.0,0.0
6221,74.0,48,20,5.0,0.0
6222,76.0,0,150,5.0,0.0
6223,48.0,0,90,6.0,0.0
6224,72.0,0,150,5.0,0.0
6225,67.0,6,150,5.0,0.0
6226,48.0,24,20,8.0,0.0
6227,50.0,24,20,8.0,0.0
6228,52.0,24,20,8.0,0.0
6229,60.0,0,90,6.0,0.0
6230,53.0,24,20,8.0,0.0
6231,55.0,18,20,8.0,0.0
6232,77.0,24,40,5.0,0.0
6233,57.0,24,20,8.0,0.0
6234,59.0,0,20,8.0,0.0
6235,57.0,0,90,6.0,0.0
6236,60.0,0,20,7.0,0.0
6237,79.0,24,20,5.0,0.0
6238,65.0,0,90,6.0,0.0
6239,60.0,0,90,6.0,0.0
6240,72.0,6,150,5.0,0.0
6241,62.0,24,20,7.0,0.0
6242,77.0,0,20,5.0,0.0
6243,79.0,24,20,5.0,0.0
6244,64.0,0,20,7.0,0.0
6245,65.0,0,20,7.0,0.0
6246,77.0,24,20,5.0,0.0
6247,53.0,96,90,6.0,0.0
6248,57.0,0,90,6.0,0.0
6249,60.0,0,90,6.0,0.0
6250,79.0,0,20,5.0,0.0
6251,67.0,24,20,7.0,0.0
6252,69.0,12,20,7.0,0.0
6253,77.0,0,20,5.0,0.0
6254,76.0,0,20,5.0,0.0
6255,71.0,6,15,7.0,0.0
6256,72.0,24,15,7.0,0.0
6257,77.0,0,20,5.0,0.0
6258,74.0,0,20,7.0,0.0
6259,67.0,0,150,5.0,0.0
6260,60.0,0,150,6.0,0.0
6261,55.0,0,150,6.0,0.0
6262,52.0,0,150,6.0,0.0
6263,72.0,0,150,5.0,0.0
6264,79.0,30,150,5.0,0.0
6265,67.0,0,150,7.0,0.0
6266,72.0,0,150,7.0,0.0
6267,76.0,18,150,7.0,0.0
6268,48.0,48,90,8.0,0.0
6269,60.0,24,90,8.0,0.0
6270,77.0,0,40,7.0,0.0
6271,57.0,0,90,8.0,0.0
6272,79.0,24,20,7.0,0.0
6273,72.0,6,150,7.0,0.0
6274,60.0,0,90,8.0,0.0
6275,65.0,0,90,8.0,0.0
6276,77.0,24,20,7.0,0.0
6277,79.0,24,20,7.0,0.0
6278,77.0,24,20,7.0,0.0
6279,79.0,24,20,7.0,0.0
6280,60.0,0,90,8.0,0.0
6281,57.0,0,90,8.0,0.0
6282,53.0,48,90,8.0,0.0
6283,77.0,18,20,7.0,0.0
6284,76.0,24,20,7.0,0.0
6285,77.0,0,20,7.0,0.0
6286,67.0,0,150,7.0,0.0
6287,52.0,0,150,8.0,0.0
6288,72.0,0,150,7.0,0.0
6289,64.0,30,150,5.0,0.0
6290,67.0,48,40,5.0,0.0
6291,60.0,0,150,8.0,0.0
6292,55.0,0,150,8.0,0.0
6293,79.0,0,150,7.0,0.0
6294,48.0,0,90,6.0,0.0
6295,69.0,48,40,5.0,0.0
6296,60.0,24,90,6.0,0.0
6297,67.0,18,40,5.0,0.0
6298,69.0,0,40,5.0,0.0
6299,58.0,24,90,6.0,0.0
6300,70.0,24,20,5.0,0.0
6301,66.0,6,150,5.0,0.0
6302,69.0,24,20,5.0,0.0
6303,70.0,24,20,5.0,0.0
6304,69.0,0,20,5.0,0.0
6305,70.0,24,20,5.0,0.0
6306,57.0,48,90,6.0,0.0
6307,69.0,18,20,5.0,0.0
6308,67.0,24,20,5.0,0.0
6309,69.0,0,20,5.0,0.0
6310,55.0,0,90,6.0,0.0
6311,70.0,0,90,5.0,0.0
6312,67.0,48,90,5.0,0.0
6313,55.0,0,90,8.0,0.0
6314,70.0,48,40,7.0,0.0
6315,74.0,0,40,7.0,0.0
6316,76.0,0,40,7.0,0.0
6317,71.0,48,40,7.0,0.0
6318,67.0,24,90,8.0,0.0
6319,74.0,0,40,7.0,0.0
6320,76.0,0,40,7.0,0.0
6321,73.0,6,150,7.0,0.0
6322,77.0,24,20,7.0,0.0
6323,65.0,0,90,8.0,0.0
6324,76.0,24,20,7.0,0.0
6325,77.0,24,20,7.0,0.0
6326,76.0,24,20,7.0,0.0
6327,64.0,48,90,8.0,0.0
6328,77.0,24,20,7.0,0.0
6329,76.0,18,20,7.0,0.0
6330,74.0,24,20,7.0,0.0
6331,76.0,0,20,7.0,0.0
6332,77.0,0,90,7.0,0.0
6333,50.0,0,90,6.0,0.0
6334,74.0,0,90,7.0,0.0
6335,62.0,30,150,5.0,0.0
6336,65.0,48,40,5.0,0.0
6337,62.0,0,90,8.0,0.0
6338,67.0,48,40,5.0,0.0
6339,58.0,0,90,6.0,0.0
6340,65.0,18,40,5.0,0.0
6341,67.0,24,40,5.0,0.0
6342,64.0,6,150,5.0,0.0
6343,69.0,24,20,5.0,0.0
6344,57.0,0,90,6.0,0.0
6345,60.0,0,90,6.0,0.0
6346,67.0,24,20,5.0,0.0
6347,69.0,24,20,5.0,0.0
6348,67.0,24,20,5.0,0.0
6349,55.0,48,90,6.0,0.0
6350,58.0,0,90,6.0,0.0
6351,69.0,24,20,5.0,0.0
6352,67.0,18,20,5.0,0.0
6353,65.0,24,20,5.0,0.0
6354,67.0,0,20,5.0,0.0
6355,53.0,0,90,8.0,0.0
6356,53.0,0,90,6.0,0.0
6357,60.0,0,90,6.0,0.0
6358,69.0,48,90,7.0,0.0
6359,69.0,0,90,5.0,0.0
6360,65.0,0,90,5.0,0.0
6361,72.0,48,40,7.0,0.0
6362,74.0,0,40,7.0,0.0
6363,72.0,48,40,7.0,0.0
6364,65.0,0,90,8.0,0.0
6365,69.0,0,90,7.0,0.0
6366,74.0,24,40,7.0,0.0
6367,64.0,0,90,8.0,0.0
6368,67.0,24,90,8.0,0.0
6369,76.0,24,20,7.0,0.0
6370,71.0,6,150,7.0,0.0
6371,74.0,24,20,7.0,0.0
6372,55.0,0,40,6.0,0.0
6373,76.0,24,20,7.0,0.0
6374,74.0,0,20,7.0,0.0
6375,62.0,0,90,8.0,0.0
6376,79.0,0,90,5.0,0.0
6377,57.0,0,40,6.0,0.0
6378,65.0,0,90,8.0,0.0
6379,76.0,24,20,7.0,0.0
6380,74.0,18,20,7.0,0.0
6381,59.0,0,40,6.0,0.0
6382,72.0,24,20,7.0,0.0
6383,74.0,48,20,7.0,0.0
6384,76.0,0,90,7.0,0.0
6385,60.0,0,90,8.0,0.0
6386,76.0,0,90,5.0,0.0
6387,67.0,0,90,8.0,0.0
6388,60.0,48,40,6.0,0.0
6389,72.0,48,90,7.0,0.0
6390,62.0,0,40,6.0,0.0
6391,72.0,0,40,5.0,0.0
6392,64.0,48,40,6.0,0.0
6393,74.0,0,40,5.0,0.0
6394,62.0,48,40,6.0,0.0
6395,76.0,0,90,5.0,0.0
6396,60.0,48,40,6.0,0.0
6397,58.0,0,40,6.0,0.0
6398,48.0,48,40,8.0,0.0
6399,57.0,0,40,6.0,0.0
6400,72.0,0,90,7.0,0.0
6401,50.0,48,40,8.0,0.0
6402,77.0,0,40,5.0,0.0
6403,52.0,48,40,8.0,0.0
6404,79.0,0,40,5.0,0.0
6405,55.0,0,40,6.0,0.0
6406,53.0,0,90,6.0,0.0
6407,81.0,48,90,5.0,0.0
6408,69.0,0,90,7.0,0.0
6409,53.0,48,40,8.0,0.0
6410,55.0,0,40,8.0,0.0
6411,57.0,48,40,8.0,0.0
6412,84.0,0,40,5.0,0.0
6413,77.0,0,90,2.0,0.0
6414,53.0,0,90,4.0,0.0
6415,81.0,0,90,1.0,0.0
6416,65.0,0,40,7.0,0.0
6417,41.0,0,90,6.0,0.0
6418,72.0,0,90,3.0,0.0
6419,82.0,0,40,5.0,0.0
6420,67.0,0,40,7.0,0.0
6421,55.0,48,40,8.0,0.0
6422,81.0,0,90,1.0,0.0
6423,77.0,0,90,2.0,0.0
6424,41.0,0,90,4.0,0.0
6425,69.0,48,90,7.0,0.0
6426,81.0,0,90,5.0,0.0
6427,53.0,48,40,8.0,0.0
6428,72.0,0,90,3.0,0.0
6429,52.0,0,40,8.0,0.0
6430,53.0,0,40,6.0,0.0
6431,77.0,48,90,5.0,0.0
6432,71.0,0,40,7.0,0.0
6433,50.0,0,40,8.0,0.0
6434,55.0,48,40,6.0,0.0
6435,57.0,0,40,6.0,0.0
6436,72.0,0,40,7.0,0.0
6437,48.0,0,40,8.0,0.0
6438,47.0,48,90,8.0,0.0
6439,74.0,0,90,7.0,0.0
6440,74.0,0,90,5.0,0.0
6441,59.0,48,40,6.0,0.0
6442,60.0,0,40,6.0,0.0
6443,71.0,0,40,5.0,0.0
6444,59.0,0,90,4.0,0.0
6445,62.0,0,40,6.0,0.0
6446,77.0,48,40,7.0,0.0
6447,59.0,0,90,8.0,0.0
6448,81.0,0,90,1.0,0.0
6449,74.0,0,90,3.0,0.0
6450,77.0,0,90,2.0,0.0
6451,72.0,0,40,5.0,0.0
6452,60.0,0,40,6.0,0.0
6453,76.0,48,40,7.0,0.0
6454,74.0,0,90,7.0,0.0
6455,77.0,0,90,2.0,0.0
6456,74.0,0,90,5.0,0.0
6457,47.0,48,90,4.0,0.0
6458,59.0,48,40,6.0,0.0
6459,74.0,0,90,3.0,0.0
6460,81.0,0,90,1.0,0.0
6461,57.0,0,40,6.0,0.0
6462,47.0,0,40,8.0,0.0
6463,76.0,0,40,5.0,0.0
6464,55.0,0,40,6.0,0.0
6465,71.0,0,90,7.0,0.0
6466,48.0,48,40,8.0,0.0
6467,50.0,48,40,8.0,0.0
6468,53.0,0,40,6.0,0.0
6469,77.0,0,40,5.0,0.0
6470,52.0,0,90,6.0,0.0
6471,67.0,48,90,7.0,0.0
6472,52.0,48,40,8.0,0.0
6473,79.0,0,90,5.0,0.0
6474,53.0,0,40,8.0,0.0
6475,79.0,0,90,1.0,0.0
6476,55.0,0,40,8.0,0.0
6477,83.0,0,40,5.0,0.0
6478,76.0,0,90,2.0,0.0
6479,52.0,0,90,4.0,0.0
6480,71.0,48,90,3.0,0.0
6481,40.0,0,90,6.0,0.0
6482,64.0,48,40,7.0,0.0
6483,53.0,0,40,8.0,0.0
6484,81.0,0,40,5.0,0.0
6485,65.0,0,40,7.0,0.0
6486,79.0,0,90,1.0,0.0
6487,76.0,0,90,2.0,0.0
6488,79.0,0,90,5.0,0.0
6489,52.0,48,40,8.0,0.0
6490,40.0,0,90,4.0,0.0
6491,67.0,0,90,7.0,0.0
6492,71.0,0,90,3.0,0.0
6493,50.0,0,40,8.0,0.0
6494,52.0,48,40,6.0,0.0
6495,69.0,0,40,7.0,0.0
6496,76.0,0,90,5.0,0.0
6497,53.0,48,40,6.0,0.0
6498,48.0,0,40,8.0,0.0
6499,55.0,0,40,6.0,0.0
6500,47.0,48,40,8.0,0.0
6501,71.0,0,40,7.0,0.0
6502,72.0,0,90,7.0,0.0
6503,45.0,0,90,8.0,0.0
6504,72.0,48,90,5.0,0.0
6505,57.0,48,40,6.0,0.0
6506,59.0,0,40,6.0,0.0
6507,76.0,0,40,7.0,0.0
6508,69.0,0,40,5.0,0.0
6509,60.0,48,40,6.0,0.0
6510,57.0,0,90,4.0,0.0
6511,79.0,0,90,1.0,0.0
6512,72.0,0,90,3.0,0.0
6513,57.0,48,90,8.0,0.0
6514,76.0,0,90,2.0,0.0
6515,71.0,0,40,5.0,0.0
6516,74.0,0,40,7.0,0.0
6517,59.0,0,40,6.0,0.0
6518,72.0,0,90,7.0,0.0
6519,45.0,48,90,4.0,0.0
6520,72.0,0,90,5.0,0.0
6521,79.0,0,90,1.0,0.0
6522,76.0,0,90,2.0,0.0
6523,72.0,0,90,3.0,0.0
6524,57.0,48,40,6.0,0.0
6525,55.0,0,40,6.0,0.0
6526,45.0,0,40,8.0,0.0
6527,74.0,0,40,5.0,0.0
6528,53.0,48,40,6.0,0.0
6529,69.0,0,90,7.0,0.0
6530,47.0,0,40,8.0,0.0
6531,52.0,0,40,6.0,0.0
6532,48.0,48,40,8.0,0.0
6533,76.0,0,40,5.0,0.0
6534,50.0,48,40,8.0,0.0
6535,65.0,0,90,7.0,0.0
6536,50.0,0,90,6.0,0.0
6537,77.0,48,90,5.0,0.0
6538,52.0,0,40,8.0,0.0
6539,62.0,0,40,7.0,0.0
6540,50.0,48,90,4.0,0.0
6541,53.0,0,40,8.0,0.0
6542,69.0,0,90,3.0,0.0
6543,77.0,0,90,1.0,0.0
6544,38.0,0,90,6.0,0.0
6545,81.0,48,40,5.0,0.0
6546,74.0,0,90,2.0,0.0
6547,79.0,0,40,5.0,0.0
6548,64.0,0,40,7.0,0.0
6549,52.0,0,40,8.0,0.0
6550,69.0,0,90,3.0,0.0
6551,77.0,0,90,5.0,0.0
6552,65.0,0,90,7.0,0.0
6553,50.0,48,40,8.0,0.0
6554,77.0,0,90,1.0,0.0
6555,38.0,0,90,4.0,0.0
6556,74.0,48,90,2.0,0.0
6557,48.0,0,40,8.0,0.0
6558,50.0,0,40,6.0,0.0
6559,52.0,0,40,6.0,0.0
6560,47.0,0,40,8.0,0.0
6561,74.0,0,90,5.0,0.0
6562,67.0,48,40,7.0,0.0
6563,45.0,0,40,8.0,0.0
6564,53.0,0,40,6.0,0.0
6565,69.0,48,40,7.0,0.0
6566,71.0,0,90,5.0,0.0
6567,71.0,48,90,7.0,0.0
6568,43.0,0,90,8.0,0.0
6569,55.0,48,40,6.0,0.0
6570,57.0,0,40,6.0,0.0
6571,74.0,48,40,7.0,0.0
6572,55.0,48,90,8.0,0.0
6573,59.0,0,40,6.0,0.0
6574,77.0,0,90,1.0,0.0
6575,55.0,0,90,4.0,0.0
6576,67.0,0,40,5.0,0.0
6577,74.0,0,90,2.0,0.0
6578,71.0,0,90,3.0,0.0
6579,57.0,0,40,6.0,0.0
6580,69.0,0,40,5.0,0.0
6581,72.0,0,40,7.0,0.0
6582,55.0,48,40,6.0,0.0
6583,77.0,0,90,1.0,0.0
6584,71.0,0,90,7.0,0.0
6585,74.0,0,90,2.0,0.0
6586,71.0,0,90,3.0,0.0
6587,43.0,0,90,4.0,0.0
6588,71.0,0,90,5.0,0.0
6589,43.0,48,40,8.0,0.0
6590,53.0,0,40,6.0,0.0
6591,45.0,0,40,8.0,0.0
6592,52.0,0,40,6.0,0.0
6593,72.0,48,40,5.0,0.0
6594,67.0,0,90,7.0,0.0
6595,50.0,0,40,6.0,0.0
6596,47.0,0,40,8.0,0.0
6597,74.0,48,40,5.0,0.0
6598,76.0,0,90,5.0,0.0
6599,48.0,48,40,8.0,0.0
6600,64.0,0,90,7.0,0.0
6601,48.0,0,90,6.0,0.0
6602,50.0,48,40,8.0,0.0
6603,76.0,0,90,1.0,0.0
6604,52.0,48,40,8.0,0.0
6605,60.0,0,40,7.0,0.0
6606,72.0,48,90,2.0,0.0
6607,67.0,0,90,3.0,0.0
6608,48.0,0,90,4.0,0.0
6609,36.0,0,90,6.0,0.0
6610,50.0,0,40,8.0,0.0
6611,62.0,0,40,7.0,0.0
6612,67.0,0,90,3.0,0.0
6613,36.0,0,90,4.0,0.0
6614,64.0,0,90,7.0,0.0
6615,76.0,0,90,1.0,0.0
6616,72.0,0,90,2.0,0.0
6617,48.0,48,40,8.0,0.0
6618,46.0,48,40,8.0,0.0
6619,60.0,48,150,6.0,0.0
6620,45.0,0,40,8.0,0.0
6621,76.0,46,90,5.0,0.0
6622,65.0,48,40,7.0,0.0
6623,67.0,2,40,7.0,0.0
6624,43.0,0,40,8.0,0.0
6625,76.0,0,40,5.0,0.0
6626,69.0,48,90,7.0,0.0
6627,41.0,0,90,8.0,0.0
6628,79.0,0,40,5.0,0.0
6629,58.0,0,40,6.0,0.0
6630,77.0,0,40,5.0,0.0
6631,69.0,0,90,3.0,0.0
6632,53.0,0,90,8.0,0.0
6633,53.0,48,90,4.0,0.0
6634,57.0,48,40,6.0,0.0
6635,65.0,0,90,7.0,0.0
6636,72.0,0,90,2.0,0.0
6637,74.0,0,90,1.0,0.0
6638,55.0,0,40,6.0,0.0
6639,76.0,0,40,5.0,0.0
6640,74.0,0,90,1.0,0.0
6641,69.0,0,90,3.0,0.0
6642,41.0,48,90,4.0,0.0
6643,53.0,48,40,6.0,0.0
6644,72.0,0,90,2.0,0.0
6645,74.0,0,40,5.0,0.0
6646,72.0,0,40,5.0,0.0
6647,57.0,0,40,6.0,0.0
6648,55.0,48,40,6.0,0.0
6649,71.0,0,40,5.0,0.0
6650,77.0,0,150,7.0,0.0
6651,62.0,48,150,8.0,0.0
6652,53.0,0,40,6.0,0.0
6653,69.0,48,40,5.0,0.0
6654,55.0,48,90,6.0,0.0
6655,71.0,0,90,5.0,0.0
6656,60.0,0,40,8.0,0.0
6657,81.0,0,40,7.0,0.0
6658,74.0,0,90,1.0,0.0
6659,67.0,0,90,3.0,0.0
6660,55.0,0,90,4.0,0.0
6661,67.0,48,90,5.0,0.0
6662,59.0,48,40,8.0,0.0
6663,43.0,0,90,6.0,0.0
6664,79.0,0,40,7.0,0.0
6665,71.0,0,90,2.0,0.0
6666,77.0,0,40,7.0,0.0
6667,57.0,0,40,8.0,0.0
6668,67.0,0,90,3.0,0.0
6669,76.0,48,40,7.0,0.0
6670,43.0,0,90,4.0,0.0
6671,71.0,0,90,2.0,0.0
6672,55.0,0,40,8.0,0.0
6673,76.0,0,90,1.0,0.0
6674,59.0,0,40,8.0,0.0
6675,74.0,48,40,7.0,0.0
6676,72.0,48,40,7.0,0.0
6677,64.0,48,150,6.0,0.0
6678,57.0,0,40,8.0,0.0
6679,79.0,46,90,5.0,0.0
6680,71.0,2,40,7.0,0.0
6681,55.0,0,40,8.0,0.0
6682,79.0,0,40,5.0,0.0
6683,57.0,48,90,8.0,0.0
6684,72.0,0,90,7.0,0.0
6685,82.0,0,40,5.0,0.0
6686,62.0,0,40,6.0,0.0
6687,60.0,0,40,6.0,0.0
6688,69.0,0,90,7.0,0.0
6689,72.0,0,90,2.0,0.0
6690,64.0,48,90,3.0,0.0
6691,81.0,48,40,5.0,0.0
6692,45.0,0,90,8.0,0.0
6693,76.0,0,90,1.0,0.0
6694,57.0,0,90,4.0,0.0
6695,79.0,0,40,5.0,0.0
6696,58.0,0,40,6.0,0.0
6697,77.0,48,40,5.0,0.0
6698,72.0,0,90,2.0,0.0
6699,45.0,0,90,4.0,0.0
6700,69.0,0,90,3.0,0.0
6701,57.0,0,40,6.0,0.0
6702,77.0,0,90,1.0,0.0
6703,76.0,48,40,5.0,0.0
6704,60.0,0,40,6.0,0.0
6705,81.0,48,150,7.0,0.0
6706,74.0,0,40,5.0,0.0
6707,65.0,0,150,8.0,0.0
6708,59.0,48,40,6.0,0.0
6709,57.0,0,40,6.0,0.0
6710,72.0,48,40,5.0,0.0
6711,59.0,48,90,6.0,0.0
6712,74.0,0,90,5.0,0.0
6713,64.0,0,40,8.0,0.0
6714,84.0,0,40,7.0,0.0
6715,83.0,0,40,7.0,0.0
6716,74.0,0,90,2.0,0.0
6717,69.0,0,90,3.0,0.0
6718,59.0,0,90,4.0,0.0
6719,77.0,0,90,1.0,0.0
6720,47.0,0,90,6.0,0.0
6721,71.0,0,90,5.0,0.0
6722,62.0,48,40,8.0,0.0
6723,60.0,0,40,8.0,0.0
6724,81.0,48,40,7.0,0.0
6725,47.0,0,90,4.0,0.0
6726,79.0,0,90,1.0,0.0
6727,79.0,0,40,7.0,0.0
6728,59.0,48,40,8.0,0.0
6729,67.0,0,90,3.0,0.0
6730,74.0,0,90,2.0,0.0
6731,62.0,0,40,8.0,0.0
6732,57.0,0,40,6.0,0.0
6733,77.0,48,40,7.0,0.0
6734,76.0,0,40,7.0,0.0
6735,55.0,48,40,6.0,0.0
6736,60.0,0,40,8.0,0.0
6737,74.0,0,40,7.0,0.0
6738,53.0,2,40,6.0,0.0
6739,59.0,0,40,8.0,0.0
6740,60.0,0,90,8.0,0.0
6741,79.0,46,15,5.0,0.0
6742,52.0,48,40,6.0,0.0
6743,76.0,48,90,7.0,0.0
6744,77.0,0,40,5.0,0.0
6745,50.0,0,40,6.0,0.0
6746,48.0,0,40,6.0,0.0
6747,76.0,0,90,2.0,0.0
6748,79.0,48,90,1.0,0.0
6749,72.0,0,90,3.0,0.0
6750,60.0,0,90,4.0,0.0
6751,76.0,48,40,5.0,0.0
6752,79.0,0,90,7.0,0.0
6753,48.0,0,90,8.0,0.0
6754,50.0,0,40,6.0,0.0
6755,74.0,0,40,5.0,0.0
6756,48.0,48,90,4.0,0.0
6757,67.0,0,90,3.0,0.0
6758,72.0,48,40,5.0,0.0
6759,72.0,0,90,2.0,0.0
6760,76.0,0,90,1.0,0.0
6761,52.0,0,40,6.0,0.0
6762,70.0,0,40,5.0,0.0
6763,55.0,0,40,6.0,0.0
6764,52.0,0,90,8.0,0.0
6765,60.0,0,90,7.0,0.0
6766,67.0,0,90,2.0,0.0
6767,60.0,0,90,3.0,0.0
6768,52.0,0,90,4.0,0.0
6769,53.0,48,40,6.0,0.0
6770,72.0,0,90,1.0,0.0
6771,67.0,0,90,7.0,0.0
6772,69.0,0,40,5.0,0.0
6773,70.0,0,90,7.0,0.0
6774,67.0,0,40,5.0,0.0
6775,52.0,96,40,6.0,0.0
6776,69.0,0,90,5.0,0.0
6777,53.0,0,90,8.0,0.0
6778,67.0,96,90,2.0,0.0
6779,53.0,0,90,6.0,0.0
6780,60.0,0,90,7.0,0.0
6781,67.0,0,90,7.0,0.0
6782,69.0,0,90,7.0,0.0
6783,53.0,0,90,4.0,0.0
6784,69.0,0,90,1.0,0.0
6785,60.0,0,90,3.0,0.0
6786,50.0,0,90,8.0,0.0
6787,65.0,0,90,5.0,0.0
6788,62.0,0,90,6.0,0.0
6789,62.0,0,90,3.0,0.0
6790,50.0,0,90,4.0,0.0
6791,50.0,0,90,6.0,0.0
6792,71.0,48,90,5.0,0.0
6793,71.0,0,90,1.0,0.0
6794,65.0,0,90,2.0,0.0
6795,71.0,0,90,7.0,0.0
6796,65.0,0,90,7.0,0.0
6797,62.0,0,90,7.0,0.0
6798,55.0,0,90,8.0,0.0
6799,52.0,0,90,8.0,0.0
6800,72.0,0,40,5.0,0.0
6801,55.0,0,90,3.0,0.0
6802,67.0,0,90,2.0,0.0
6803,52.0,48,90,4.0,0.0
6804,67.0,30,150,5.0,0.0
6805,72.0,48,40,7.0,0.0
6806,52.0,0,90,6.0,0.0
6807,72.0,0,40,1.0,0.0
6808,55.0,0,90,6.0,0.0
6809,67.0,0,150,7.0,0.0
6810,74.0,0,40,1.0,0.0
6811,74.0,0,40,5.0,0.0
6812,74.0,0,40,7.0,0.0
6813,48.0,0,90,6.0,0.0
6814,60.0,0,90,6.0,0.0
6815,60.0,0,90,8.0,0.0
6816,67.0,48,90,3.0,0.0
6817,72.0,0,90,2.0,0.0
6818,48.0,0,90,8.0,0.0
6819,76.0,18,40,7.0,0.0
6820,76.0,0,40,5.0,0.0
6821,76.0,0,40,1.0,0.0
6822,48.0,0,90,4.0,0.0
6823,72.0,0,40,1.0,0.0
6824,72.0,0,40,7.0,0.0
6825,72.0,0,40,5.0,0.0
6826,67.0,0,90,7.0,0.0
6827,74.0,0,40,7.0,0.0
6828,59.0,0,90,6.0,0.0
6829,67.0,0,90,5.0,0.0
6830,74.0,0,40,5.0,0.0
6831,55.0,0,90,8.0,0.0
6832,59.0,0,90,8.0,0.0
6833,55.0,0,90,6.0,0.0
6834,55.0,0,90,4.0,0.0
6835,67.0,0,90,3.0,0.0
6836,71.0,48,90,2.0,0.0
6837,74.0,48,40,1.0,0.0
6838,72.0,0,40,1.0,0.0
6839,72.0,0,40,5.0,0.0
6840,72.0,0,40,7.0,0.0
6841,62.0,0,90,3.0,0.0
6842,71.0,0,40,1.0,0.0
6843,67.0,48,90,2.0,0.0
6844,71.0,48,40,5.0,0.0
6845,71.0,0,40,7.0,0.0
6846,43.0,0,90,4.0,0.0
6847,69.0,0,40,1.0,0.0
6848,69.0,0,40,5.0,0.0
6849,69.0,0,40,7.0,0.0
6850,59.0,0,90,3.0,0.0
6851,62.0,0,90,2.0,0.0
6852,67.0,0,90,7.0,0.0
6853,67.0,48,40,5.0,0.0
6854,67.0,0,90,1.0,0.0
6855,59.0,48,40,6.0,0.0
6856,74.0,0,40,5.0,0.0
6857,76.0,0,40,5.0,0.0
6858,61.0,48,40,6.0,0.0
6859,77.0,0,40,5.0,0.0
6860,62.0,48,40,6.0,0.0
6861,52.0,0,90,6.0,0.0
6862,79.0,48,40,5.0,0.0
6863,76.0,48,40,5.0,0.0
6864,79.0,0,90,1.0,0.0
6865,70.0,48,90,3.0,0.0
6866,50.0,0,90,6.0,0.0
6867,52.0,0,90,4.0,0.0
6868,79.0,48,40,5.0,0.0
6869,76.0,0,90,2.0,0.0
6870,70.0,0,40,5.0,0.0
6871,69.0,48,40,5.0,0.0
6872,69.0,48,90,3.0,0.0
6873,79.0,0,90,1.0,0.0
6874,76.0,0,90,2.0,0.0
6875,49.0,0,90,4.0,0.0
6876,49.0,0,90,6.0,0.0
6877,61.0,0,40,8.0,0.0
6878,79.0,0,40,5.0,0.0
6879,69.0,0,40,7.0,0.0
6880,71.0,48,40,7.0,0.0
6881,62.0,0,40,8.0,0.0
6882,77.0,0,40,5.0,0.0
6883,45.0,0,90,6.0,0.0
6884,76.0,0,40,5.0,0.0
6885,64.0,0,40,8.0,0.0
6886,73.0,48,40,7.0,0.0
6887,77.0,0,90,5.0,0.0
6888,74.0,48,40,7.0,0.0
6889,50.0,0,90,6.0,0.0
6890,53.0,48,90,8.0,0.0
6891,69.0,0,40,7.0,0.0
6892,74.0,0,90,5.0,0.0
6893,77.0,0,90,1.0,0.0
6894,38.0,0,90,6.0,0.0
6895,62.0,0,90,3.0,0.0
6896,50.0,48,90,4.0,0.0
6897,74.0,0,90,2.0,0.0
6898,74.0,48,40,7.0,0.0
6899,59.0,0,90,8.0,0.0
6900,65.0,0,40,7.0,0.0
6901,74.0,48,90,2.0,0.0
6902,71.0,0,90,1.0,0.0
6903,64.0,0,90,3.0,0.0
6904,64.0,48,40,7.0,0.0
6905,56.0,0,90,8.0,0.0
6906,44.0,0,90,4.0,0.0
6907,74.0,0,40,7.0,0.0
6908,76.0,0,40,5.0,0.0
6909,56.0,0,40,6.0,0.0
6910,57.0,0,40,6.0,0.0
6911,52.0,0,90,8.0,0.0
6912,72.0,48,40,7.0,0.0
6913,78.0,0,40,5.0,0.0
6914,71.0,48,40,7.0,0.0
6915,80.0,0,40,5.0,0.0
6916,59.0,0,40,6.0,0.0
6917,81.0,48,40,5.0,0.0
6918,48.0,0,90,6.0,0.0
6919,57.0,0,90,8.0,0.0
6920,72.0,0,90,7.0,0.0
6921,76.0,48,40,5.0,0.0
6922,69.0,0,90,7.0,0.0
6923,45.0,0,90,8.0,0.0
6924,54.0,0,90,6.0,0.0
6925,81.0,48,40,5.0,0.0
6926,81.0,0,90,1.0,0.0
6927,72.0,0,90,2.0,0.0
6928,57.0,0,90,4.0,0.0
6929,62.0,48,90,3.0,0.0
6930,72.0,0,40,5.0,0.0
6931,71.0,0,90,2.0,0.0
6932,60.0,0,90,3.0,0.0
6933,71.0,48,40,5.0,0.0
6934,81.0,0,90,1.0,0.0
6935,51.0,0,90,4.0,0.0
6936,51.0,0,90,6.0,0.0
6937,81.0,48,40,5.0,0.0
6938,63.0,0,40,8.0,0.0
6939,71.0,0,40,7.0,0.0
6940,73.0,0,40,7.0,0.0
6941,64.0,0,40,8.0,0.0
6942,79.0,48,40,5.0,0.0
6943,47.0,0,90,6.0,0.0
6944,66.0,0,40,8.0,0.0
6945,78.0,48,40,5.0,0.0
6946,75.0,0,40,7.0,0.0
6947,55.0,0,90,8.0,0.0
6948,76.0,48,40,7.0,0.0
6949,79.0,0,40,5.0,0.0
6950,52.0,48,90,6.0,0.0
6951,71.0,0,40,7.0,0.0
6952,76.0,0,40,5.0,0.0
6953,50.0,0,90,4.0,0.0
6954,50.0,0,90,6.0,0.0
6955,70.0,0,90,2.0,0.0
6956,52.0,0,90,8.0,0.0
6957,79.0,48,90,1.0,0.0
6958,79.0,48,40,5.0,0.0
6959,76.0,0,40,7.0,0.0
6960,59.0,0,90,3.0,0.0
6961,67.0,0,40,7.0,0.0
6962,70.0,0,40,5.0,0.0
6963,49.0,0,90,4.0,0.0
6964,57.0,0,90,8.0,0.0
6965,69.0,0,90,2.0,0.0
6966,69.0,48,40,5.0,0.0
6967,64.0,0,40,7.0,0.0
6968,59.0,0,90,3.0,0.0
6969,49.0,48,90,6.0,0.0
6970,79.0,0,90,1.0,0.0
6971,79.0,0,40,5.0,0.0
6972,76.0,0,40,7.0,0.0
6973,57.0,0,90,6.0,0.0
6974,77.0,48,40,5.0,0.0
6975,45.0,0,90,8.0,0.0
6976,74.0,0,40,7.0,0.0
6977,73.0,0,40,7.0,0.0
6978,76.0,48,40,5.0,0.0
6979,50.0,0,90,6.0,0.0
6980,53.0,0,90,8.0,0.0
6981,74.0,48,40,7.0,0.0
6982,77.0,0,40,5.0,0.0
6983,74.0,0,40,5.0,0.0
6984,69.0,48,40,7.0,0.0
6985,50.0,0,90,8.0,0.0
6986,48.0,0,90,6.0,0.0
6987,77.0,0,90,1.0,0.0
6988,48.0,0,90,4.0,0.0
6989,74.0,48,40,7.0,0.0
6990,77.0,0,40,5.0,0.0
6991,69.0,0,90,2.0,0.0
6992,62.0,0,90,3.0,0.0
6993,69.0,48,40,5.0,0.0
6994,65.0,0,40,7.0,0.0
6995,55.0,0,90,8.0,0.0
6996,47.0,0,90,4.0,0.0
6997,62.0,0,90,3.0,0.0
6998,47.0,48,90,6.0,0.0
6999,77.0,0,90,1.0,0.0
7000,62.0,48,40,7.0,0.0
7001,67.0,0,90,2.0,0.0
7002,67.0,0,40,5.0,0.0
7003,74.0,0,40,7.0,0.0
7004,77.0,0,40,5.0,0.0
7005,43.0,48,90,8.0,0.0
7006,72.0,48,40,7.0,0.0
7007,55.0,0,90,6.0,0.0
7008,76.0,0,40,5.0,0.0
7009,74.0,0,40,5.0,0.0
7010,71.0,0,40,7.0,0.0
7011,76.0,0,40,5.0,0.0
7012,52.0,48,90,8.0,0.0
7013,48.0,0,90,6.0,0.0
7014,72.0,48,40,7.0,0.0
7015,67.0,0,40,7.0,0.0
7016,72.0,0,40,5.0,0.0
7017,67.0,0,90,2.0,0.0
7018,47.0,0,90,6.0,0.0
7019,76.0,48,40,5.0,0.0
7020,76.0,0,90,1.0,0.0
7021,72.0,0,40,7.0,0.0
7022,48.0,0,90,8.0,0.0
7023,60.0,0,90,3.0,0.0
7024,48.0,0,90,4.0,0.0
7025,64.0,0,40,7.0,0.0
7026,67.0,48,40,5.0,0.0
7027,60.0,0,90,3.0,0.0
7028,45.0,0,90,6.0,0.0
7029,53.0,0,90,4.0,0.0
7030,65.0,0,40,5.0,0.0
7031,69.0,48,40,7.0,0.0
7032,69.0,0,90,2.0,0.0
7033,53.0,0,90,8.0,0.0
7034,76.0,48,90,1.0,0.0
7035,76.0,0,40,5.0,0.0
7036,67.0,0,40,7.0,0.0
7037,53.0,0,90,6.0,0.0
7038,41.0,0,90,4.0,0.0
7039,69.0,0,90,2.0,0.0
7040,65.0,48,90,3.0,0.0
7041,41.0,0,90,8.0,0.0
7042,74.0,0,40,5.0,0.0
7043,74.0,48,40,1.0,0.0
7044,65.0,0,40,7.0,0.0
7045,72.0,0,40,1.0,0.0
7046,72.0,0,40,5.0,0.0
7047,64.0,0,40,7.0,0.0
7048,55.0,0,90,6.0,0.0
7049,62.0,48,90,7.0,0.0
7050,43.0,0,90,8.0,0.0
7051,43.0,30,2940,4.0,0.0
7052,67.0,16,720,2.0,0.0
7053,74.0,46,330,1.0,0.0
7054,71.0,48,40,5.0,0.0
7055,62.0,0,330,3.0,0.0
7056,67.0,0,40,5.0,0.0
7057,55.0,0,90,8.0,0.0
7058,77.0,48,90,7.0,0.0
7059,74.0,48,40,5.0,0.0
7060,43.0,0,90,6.0,0.0
7061,71.0,0,40,5.0,0.0
7062,77.0,48,40,5.0,0.0
7063,55.0,48,90,8.0,0.0
7064,74.0,0,40,5.0,0.0
7065,77.0,0,40,7.0,0.0
7066,43.0,0,90,8.0,0.0
7067,55.0,0,90,6.0,0.0
7068,76.0,2,40,7.0,0.0
7069,72.0,0,40,5.0,0.0
7070,71.0,48,40,5.0,0.0
7071,74.0,0,40,7.0,0.0
7072,72.0,48,40,5.0,0.0
7073,55.0,0,90,6.0,0.0
7074,76.0,48,90,7.0,0.0
7075,72.0,0,330,1.0,0.0
7076,60.0,30,150,3.0,0.0
7077,67.0,0,40,5.0,0.0
7078,55.0,0,90,8.0,0.0
7079,79.0,0,90,7.0,0.0
7080,43.0,48,90,6.0,0.0
7081,76.0,18,40,5.0,0.0
7082,72.0,0,40,5.0,0.0
7083,79.0,48,40,5.0,0.0
7084,55.0,0,90,8.0,0.0
7085,64.0,30,150,3.0,0.0
7086,76.0,48,40,5.0,0.0
7087,79.0,0,40,7.0,0.0
7088,74.0,0,40,5.0,0.0
7089,43.0,0,90,8.0,0.0
7090,77.0,2,40,7.0,0.0
7091,55.0,0,90,6.0,0.0
7092,72.0,0,40,5.0,0.0
7093,76.0,48,40,7.0,0.0
7094,62.0,0,330,3.0,0.0
7095,71.0,0,330,2.0,0.0
7096,74.0,48,40,5.0,0.0
7097,55.0,0,90,6.0,0.0
7098,77.0,0,90,7.0,0.0
7099,74.0,46,330,1.0,0.0
7100,71.0,48,40,5.0,0.0
7101,81.0,0,90,7.0,0.0
7102,62.0,0,90,8.0,0.0
7103,43.0,48,90,6.0,0.0
7104,77.0,48,40,5.0,0.0
7105,74.0,0,40,5.0,0.0
7106,81.0,48,40,5.0,0.0
7107,60.0,0,90,8.0,0.0
7108,81.0,0,40,7.0,0.0
7109,77.0,48,40,5.0,0.0
7110,79.0,0,40,7.0,0.0
7111,55.0,48,90,6.0,0.0
7112,59.0,0,90,8.0,0.0
7113,76.0,2,40,5.0,0.0
7114,77.0,0,40,7.0,0.0
7115,74.0,0,40,5.0,0.0
7116,60.0,0,40,6.0,0.0
7117,76.0,16,330,1.0,0.0
7118,76.0,48,40,7.0,0.0
7119,67.0,0,330,2.0,0.0
7120,60.0,0,40,8.0,0.0
7121,76.0,0,40,5.0,0.0
7122,60.0,30,150,3.0,0.0
7123,72.0,0,40,5.0,0.0
7124,62.0,48,40,6.0,0.0
7125,55.0,0,40,8.0,0.0
7126,79.0,0,40,7.0,0.0
7127,79.0,18,40,5.0,0.0
7128,52.0,0,40,8.0,0.0
7129,55.0,0,40,6.0,0.0
7130,72.0,0,40,7.0,0.0
7131,76.0,0,40,7.0,0.0
7132,76.0,0,40,5.0,0.0
7133,60.0,0,40,6.0,0.0
7134,55.0,48,40,8.0,0.0
7135,67.0,0,40,7.0,0.0
7136,48.0,48,90,8.0,0.0
7137,72.0,30,150,3.0,0.0
7138,52.0,0,90,6.0,0.0
7139,84.0,48,40,5.0,0.0
7140,76.0,0,40,7.0,0.0
7141,79.0,0,40,5.0,0.0
7142,57.0,48,90,6.0,0.0
7143,74.0,0,40,7.0,0.0
7144,53.0,0,90,8.0,0.0
7145,77.0,2,40,5.0,0.0
7146,72.0,0,40,7.0,0.0
7147,76.0,0,40,5.0,0.0
7148,74.0,0,1410,2.0,0.0
7149,77.0,48,40,5.0,0.0
7150,62.0,0,90,6.0,0.0
7151,55.0,0,90,8.0,0.0
7152,71.0,0,40,7.0,0.0
7153,77.0,0,1410,1.0,0.0
7154,71.0,0,1410,3.0,0.0
7155,74.0,0,40,5.0,0.0
7156,77.0,48,40,7.0,0.0
7157,77.0,0,40,5.0,0.0
7158,69.0,48,40,7.0,0.0
7159,57.0,0,90,8.0,0.0
7160,77.0,48,40,7.0,0.0
7161,72.0,0,40,5.0,0.0
7162,77.0,0,40,5.0,0.0
7163,67.0,48,40,7.0,0.0
7164,62.0,0,90,6.0,0.0
7165,59.0,0,90,8.0,0.0
7166,71.0,0,40,5.0,0.0
7167,77.0,48,40,7.0,0.0
7168,60.0,0,90,8.0,0.0
7169,60.0,0,90,6.0,0.0
7170,69.0,48,40,7.0,0.0
7171,77.0,0,40,5.0,0.0
7172,77.0,0,40,7.0,0.0
7173,69.0,48,40,5.0,0.0
7174,62.0,0,90,8.0,0.0
7175,77.0,0,40,5.0,0.0
7176,59.0,0,90,6.0,0.0
7177,71.0,48,40,7.0,0.0
7178,67.0,48,40,5.0,0.0
7179,77.0,0,40,7.0,0.0
7180,77.0,0,40,5.0,0.0
7181,72.0,48,40,7.0,0.0
7182,57.0,0,90,6.0,0.0
7183,60.0,0,90,8.0,0.0
7184,77.0,48,40,7.0,0.0
7185,69.0,0,40,5.0,0.0
7186,55.0,0,90,6.0,0.0
7187,59.0,0,90,8.0,0.0
7188,77.0,0,40,5.0,0.0
7189,74.0,48,40,7.0,0.0
7190,77.0,0,40,7.0,0.0
7191,71.0,48,40,5.0,0.0
7192,77.0,0,40,5.0,0.0
7193,57.0,0,90,8.0,0.0
7194,57.0,0,90,6.0,0.0
7195,72.0,48,40,7.0,0.0
7196,77.0,0,40,7.0,0.0
7197,72.0,48,40,5.0,0.0
7198,59.0,0,90,6.0,0.0
7199,71.0,48,40,7.0,0.0
7200,77.0,0,40,5.0,0.0
7201,55.0,0,90,8.0,0.0
7202,74.0,48,40,5.0,0.0
7203,77.0,0,40,7.0,0.0
7204,69.0,0,40,7.0,0.0
7205,60.0,0,90,6.0,0.0
7206,77.0,48,40,5.0,0.0
7207,57.0,48,90,8.0,0.0
7208,77.0,0,40,7.0,0.0
7209,72.0,0,40,5.0,0.0
7210,77.0,48,40,5.0,0.0
7211,62.0,0,90,6.0,0.0
7212,59.0,0,90,8.0,0.0
7213,67.0,0,40,7.0,0.0
7214,71.0,48,40,5.0,0.0
7215,77.0,0,40,7.0,0.0
7216,77.0,48,40,5.0,0.0
7217,60.0,48,90,6.0,0.0
7218,60.0,0,90,8.0,0.0
7219,69.0,0,40,7.0,0.0
7220,69.0,0,40,5.0,0.0
7221,77.0,0,40,7.0,0.0
7222,62.0,0,90,8.0,0.0
7223,77.0,48,40,5.0,0.0
7224,59.0,0,90,6.0,0.0
7225,71.0,0,40,7.0,0.0
7226,77.0,48,40,7.0,0.0
7227,67.0,0,40,5.0,0.0
7228,60.0,48,90,8.0,0.0
7229,77.0,0,40,5.0,0.0
7230,57.0,0,90,6.0,0.0
7231,72.0,48,40,7.0,0.0
7232,69.0,0,40,5.0,0.0
7233,77.0,0,40,7.0,0.0
7234,74.0,0,40,7.0,0.0
7235,77.0,18,40,5.0,0.0
7236,55.0,0,90,6.0,0.0
7237,59.0,0,90,8.0,0.0
7238,71.0,96,40,5.0,0.0
7239,77.0,0,40,7.0,0.0
7240,79.0,0,90,1.0,0.0
7241,79.0,96,90,7.0,0.0
7242,55.0,0,90,8.0,0.0
7243,67.0,0,90,3.0,0.0
7244,59.0,0,90,6.0,0.0
7245,74.0,0,90,2.0,0.0
7246,47.0,0,90,4.0,0.0
7247,79.0,0,90,5.0,0.0
7248,67.0,0,90,3.0,0.0
7249,72.0,0,90,2.0,0.0
7250,48.0,0,90,4.0,0.0
7251,76.0,0,90,7.0,0.0
7252,76.0,0,90,1.0,0.0
7253,60.0,0,90,8.0,0.0
7254,60.0,0,90,6.0,0.0
7255,76.0,48,90,5.0,0.0
7256,74.0,0,40,5.0,0.0
7257,57.0,0,90,6.0,0.0
7258,69.0,0,90,5.0,0.0
7259,57.0,0,90,8.0,0.0
7260,64.0,0,90,5.0,0.0
7261,64.0,0,90,2.0,0.0
7262,69.0,0,90,3.0,0.0
7263,74.0,48,40,7.0,0.0
7264,69.0,0,90,7.0,0.0
7265,45.0,48,90,4.0,0.0
7266,74.0,0,40,1.0,0.0
7267,64.0,0,90,7.0,0.0
7268,72.0,0,40,5.0,0.0
7269,72.0,0,40,1.0,0.0
7270,72.0,0,40,7.0,0.0
7271,65.0,0,90,7.0,0.0
7272,69.0,0,90,7.0,0.0
7273,76.0,0,40,7.0,0.0
7274,53.0,48,90,6.0,0.0
7275,69.0,0,90,3.0,0.0
7276,41.0,0,90,4.0,0.0
7277,53.0,0,90,8.0,0.0
7278,65.0,0,90,5.0,0.0
7279,69.0,0,90,5.0,0.0
7280,65.0,0,90,2.0,0.0
7281,76.0,0,40,1.0,0.0
7282,76.0,48,40,5.0,0.0
7283,74.0,0,40,1.0,0.0
7284,74.0,0,40,7.0,0.0
7285,74.0,0,40,5.0,0.0
7286,62.0,0,90,7.0,0.0
7287,55.0,0,90,8.0,0.0
7288,55.0,0,90,6.0,0.0
7289,72.0,0,40,1.0,0.0
7290,62.0,0,90,2.0,0.0
7291,67.0,0,90,5.0,0.0
7292,67.0,0,90,3.0,0.0
7293,72.0,0,40,5.0,0.0
7294,62.0,0,90,5.0,0.0
7295,43.0,0,90,4.0,0.0
7296,72.0,48,40,7.0,0.0
7297,67.0,0,90,7.0,0.0
7298,71.0,0,40,5.0,0.0
7299,71.0,48,40,1.0,0.0
7300,71.0,0,40,7.0,0.0
7301,64.0,0,90,7.0,0.0
7302,64.0,48,90,2.0,0.0
7303,72.0,0,90,7.0,0.0
7304,67.0,0,90,3.0,0.0
7305,48.0,0,90,8.0,0.0
7306,72.0,0,90,1.0,0.0
7307,48.0,48,40,6.0,0.0
7308,64.0,0,90,5.0,0.0
7309,67.0,0,90,5.0,0.0
7310,72.0,0,90,5.0,0.0
7311,67.0,0,90,7.0,0.0
7312,36.0,0,90,4.0,0.0
7313,60.0,0,40,6.0,0.0
7314,59.0,0,40,6.0,0.0
7315,47.0,48,40,8.0,0.0
7316,57.0,0,40,6.0,0.0
7317,45.0,48,40,8.0,0.0
7318,55.0,0,40,6.0,0.0
7319,43.0,48,40,8.0,0.0
7320,41.0,48,40,8.0,0.0
7321,53.0,0,40,6.0,0.0
7322,40.0,0,40,8.0,0.0
7323,52.0,48,40,6.0,0.0
7324,60.0,0,90,5.0,0.0
7325,64.0,0,90,5.0,0.0
7326,67.0,48,90,5.0,0.0
7327,38.0,0,40,8.0,0.0
7328,50.0,0,40,6.0,0.0
7329,60.0,0,90,5.0,0.0
7330,64.0,0,90,5.0,0.0
7331,67.0,0,90,5.0,0.0
7332,48.0,48,40,6.0,0.0
7333,36.0,48,90,8.0,0.0
7334,60.0,0,40,6.0,0.0
7335,60.0,0,40,5.0,0.0
7336,64.0,0,40,5.0,0.0
7337,59.0,48,40,6.0,0.0
7338,57.0,0,40,6.0,0.0
7339,65.0,48,40,5.0,0.0
7340,62.0,0,40,5.0,0.0
7341,55.0,48,40,6.0,0.0
7342,67.0,0,90,5.0,0.0
7343,64.0,48,90,5.0,0.0
7344,53.0,0,40,6.0,0.0
7345,60.0,0,40,5.0,0.0
7346,69.0,0,40,5.0,0.0
7347,52.0,48,40,6.0,0.0
7348,71.0,96,40,5.0,0.0
7349,50.0,0,40,6.0,0.0
7350,62.0,0,40,5.0,0.0
7351,72.0,0,90,5.0,0.0
7352,64.0,48,90,5.0,0.0
7353,48.0,0,90,6.0,0.0
7354,60.0,0,40,8.0,0.0
7355,47.0,0,40,6.0,0.0
7356,65.0,48,40,5.0,0.0
7357,74.0,0,40,5.0,0.0
7358,59.0,0,40,8.0,0.0
7359,45.0,0,40,6.0,0.0
7360,71.0,48,40,5.0,0.0
7361,62.0,0,40,5.0,0.0
7362,57.0,0,40,8.0,0.0
7363,64.0,0,90,5.0,0.0
7364,43.0,48,40,6.0,0.0
7365,55.0,0,40,8.0,0.0
7366,72.0,0,90,5.0,0.0
7367,41.0,48,40,6.0,0.0
7368,53.0,0,40,8.0,0.0
7369,64.0,0,90,7.0,0.0
7370,67.0,48,90,7.0,0.0
7371,40.0,0,40,6.0,0.0
7372,52.0,48,40,8.0,0.0
7373,60.0,0,90,7.0,0.0
7374,38.0,0,40,6.0,0.0
7375,50.0,0,40,8.0,0.0
7376,67.0,48,90,7.0,0.0
7377,64.0,0,90,7.0,0.0
7378,36.0,0,90,6.0,0.0
7379,60.0,0,90,7.0,0.0
7380,48.0,48,40,8.0,0.0
7381,60.0,0,40,8.0,0.0
7382,64.0,0,40,7.0,0.0
7383,60.0,48,40,7.0,0.0
7384,59.0,0,40,8.0,0.0
7385,65.0,48,40,7.0,0.0
7386,57.0,0,40,8.0,0.0
7387,62.0,0,40,7.0,0.0
7388,67.0,48,90,7.0,0.0
7389,55.0,48,40,8.0,0.0
7390,64.0,0,90,7.0,0.0
7391,53.0,0,40,8.0,0.0
7392,52.0,0,40,8.0,0.0
7393,60.0,0,40,7.0,0.0
7394,69.0,48,40,7.0,0.0
7395,50.0,0,40,8.0,0.0
7396,62.0,0,40,7.0,0.0
7397,71.0,96,40,7.0,0.0
7398,72.0,0,90,7.0,0.0
7399,64.0,0,90,7.0,0.0
7400,48.0,48,90,8.0,0.0
7401,52.0,0,40,6.0,0.0
7402,74.0,0,40,7.0,0.0
7403,65.0,0,40,7.0,0.0
7404,50.0,0,40,6.0,0.0
7405,47.0,48,40,8.0,0.0
7406,53.0,0,40,6.0,0.0
7407,71.0,0,40,7.0,0.0
7408,62.0,48,40,7.0,0.0
7409,45.0,0,40,8.0,0.0
7410,43.0,0,40,8.0,0.0
7411,64.0,0,90,7.0,0.0
7412,52.0,48,40,6.0,0.0
7413,72.0,48,90,7.0,0.0
7414,55.0,0,40,6.0,0.0
7415,48.0,0,40,8.0,0.0
7416,46.0,48,40,8.0,0.0
7417,64.0,48,90,5.0,0.0
7418,52.0,0,40,6.0,0.0
7419,60.0,0,90,5.0,0.0
7420,67.0,0,90,5.0,0.0
7421,48.0,0,40,8.0,0.0
7422,48.0,0,40,6.0,0.0
7423,53.0,48,40,6.0,0.0
7424,65.0,0,90,5.0,0.0
7425,60.0,48,90,5.0,0.0
7426,69.0,0,90,5.0,0.0
7427,41.0,0,90,8.0,0.0
7428,55.0,0,40,6.0,0.0
7429,65.0,0,40,5.0,0.0
7430,57.0,48,40,6.0,0.0
7431,67.0,48,40,5.0,0.0
7432,55.0,0,40,6.0,0.0
7433,53.0,48,40,6.0,0.0
7434,69.0,0,90,5.0,0.0
7435,52.0,48,40,6.0,0.0
7436,71.0,48,40,5.0,0.0
7437,50.0,0,40,6.0,0.0
7438,48.0,48,40,6.0,0.0
7439,72.0,0,40,5.0,0.0
7440,74.0,48,90,5.0,0.0
7441,47.0,48,40,6.0,0.0
7442,53.0,0,40,6.0,0.0
7443,45.0,0,40,6.0,0.0
7444,76.0,48,40,5.0,0.0
7445,53.0,0,40,6.0,0.0
7446,72.0,48,40,5.0,0.0
7447,74.0,48,90,5.0,0.0
7448,47.0,48,40,6.0,0.0
7449,53.0,0,40,6.0,0.0
7450,62.0,48,90,5.0,0.0
7451,43.0,48,40,6.0,0.0
7452,67.0,0,90,5.0,0.0
7453,59.0,0,90,5.0,0.0
7454,53.0,0,40,6.0,0.0
7455,52.0,48,40,6.0,0.0
7456,64.0,0,90,5.0,0.0
7457,67.0,0,90,5.0,0.0
7458,60.0,0,90,5.0,0.0
7459,53.0,48,40,6.0,0.0
7460,64.0,0,40,5.0,0.0
7461,55.0,48,40,6.0,0.0
7462,65.0,48,40,5.0,0.0
7463,53.0,0,40,6.0,0.0
7464,52.0,48,40,6.0,0.0
7465,67.0,48,90,5.0,0.0
7466,50.0,0,40,6.0,0.0
7467,69.0,0,40,5.0,0.0
7468,48.0,48,40,6.0,0.0
7469,47.0,48,40,6.0,0.0
7470,71.0,0,40,5.0,0.0
7471,45.0,48,40,6.0,0.0
7472,72.0,48,90,5.0,0.0
7473,52.0,0,40,6.0,0.0
7474,43.0,48,40,6.0,0.0
7475,74.0,0,40,5.0,0.0
7476,71.0,48,40,5.0,0.0
7477,52.0,0,40,6.0,0.0
7478,45.0,48,40,6.0,0.0
7479,72.0,48,90,5.0,0.0
7480,52.0,0,40,6.0,0.0
7481,41.0,48,40,6.0,0.0
7482,57.0,48,90,5.0,0.0
7483,60.0,0,90,5.0,0.0
7484,65.0,0,90,5.0,0.0
7485,52.0,0,40,6.0,0.0
7486,65.0,0,90,5.0,0.0
7487,62.0,0,90,5.0,0.0
7488,57.0,0,90,5.0,0.0
7489,50.0,48,40,6.0,0.0
7490,52.0,48,40,6.0,0.0
7491,62.0,0,40,5.0,0.0
7492,53.0,48,40,6.0,0.0
7493,52.0,0,40,6.0,0.0
7494,64.0,48,40,5.0,0.0
7495,50.0,48,40,6.0,0.0
7496,65.0,0,90,5.0,0.0
7497,53.0,48,40,6.0,0.0
7498,48.0,48,40,6.0,0.0
7499,69.0,0,90,5.0,0.0
7500,53.0,48,40,6.0,0.0
7501,47.0,48,40,6.0,0.0
7502,65.0,48,90,5.0,0.0
7503,48.0,0,40,6.0,0.0
7504,62.0,48,40,5.0,0.0
7505,50.0,0,40,6.0,0.0
7506,64.0,48,40,5.0,0.0
7507,48.0,0,40,6.0,0.0
7508,47.0,48,40,6.0,0.0
7509,65.0,0,90,5.0,0.0
7510,50.0,48,40,6.0,0.0
7511,43.0,48,40,6.0,0.0
7512,71.0,48,90,5.0,0.0
7513,50.0,0,40,6.0,0.0
7514,41.0,48,90,6.0,0.0
7515,74.0,48,40,5.0,0.0
7516,76.0,0,40,5.0,0.0
7517,77.0,0,40,5.0,0.0
7518,38.0,48,40,6.0,0.0
7519,76.0,0,40,5.0,0.0
7520,40.0,48,40,6.0,0.0
7521,41.0,0,90,6.0,0.0
7522,74.0,48,40,5.0,0.0
7523,77.0,48,40,5.0,0.0
7524,45.0,0,90,6.0,0.0
7525,72.0,48,40,5.0,0.0
7526,77.0,48,40,5.0,0.0
7527,71.0,48,40,5.0,0.0
7528,41.0,0,90,6.0,0.0
7529,72.0,48,40,5.0,0.0
7530,38.0,0,40,6.0,0.0
7531,74.0,48,40,5.0,0.0
7532,40.0,48,40,6.0,0.0
7533,72.0,0,40,5.0,0.0
7534,71.0,48,40,5.0,0.0
7535,41.0,48,90,6.0,0.0
7536,74.0,0,40,5.0,0.0
7537,47.0,48,90,6.0,0.0
7538,67.0,48,40,5.0,0.0
7539,71.0,0,40,5.0,0.0
7540,48.0,0,90,6.0,0.0
7541,76.0,48,40,5.0,0.0
7542,74.0,48,40,5.0,0.0
7543,52.0,0,90,6.0,0.0
7544,72.0,48,40,5.0,0.0
7545,76.0,48,40,5.0,0.0
7546,74.0,48,40,5.0,0.0
7547,53.0,48,90,6.0,0.0
7548,72.0,0,40,5.0,0.0
7549,71.0,48,40,5.0,0.0
7550,55.0,48,90,6.0,0.0
7551,74.0,0,40,5.0,0.0
7552,72.0,48,40,5.0,0.0
7553,57.0,48,90,6.0,0.0
7554,74.0,0,40,5.0,0.0
7555,58.0,0,90,6.0,0.0
7556,72.0,48,40,5.0,0.0
7557,70.0,48,40,5.0,0.0
7558,60.0,48,90,6.0,0.0
7559,69.0,48,40,5.0,0.0
7560,67.0,0,40,5.0,0.0
7561,65.0,48,40,5.0,0.0
7562,48.0,48,90,6.0,0.0
7563,64.0,0,40,5.0,0.0
7564,69.0,48,40,5.0,0.0
7565,53.0,48,90,6.0,0.0
7566,70.0,0,40,5.0,0.0
7567,55.0,48,90,6.0,0.0
7568,69.0,48,40,5.0,0.0
7569,67.0,0,40,5.0,0.0
7570,65.0,48,40,5.0,0.0
7571,57.0,48,90,6.0,0.0
7572,64.0,0,40,5.0,0.0
7573,62.0,48,40,5.0,0.0
7574,53.0,48,90,6.0,0.0
7575,60.0,0,40,5.0,0.0
7576,59.0,48,40,5.0,0.0
7577,55.0,48,90,6.0,0.0
7578,67.0,0,40,5.0,0.0
7579,53.0,48,90,6.0,0.0
7580,69.0,48,40,5.0,0.0
7581,71.0,0,40,5.0,0.0
7582,72.0,48,40,5.0,0.0
7583,52.0,48,90,6.0,0.0
7584,74.0,0,40,5.0,0.0
7585,76.0,48,40,5.0,0.0
7586,50.0,0,90,6.0,0.0
7587,77.0,96,40,5.0,0.0
7588,52.0,30,150,3.0,0.0
7589,79.0,0,90,5.0,0.0
7590,55.0,0,90,2.0,0.0
7591,60.0,18,150,1.0,0.0
7592,52.0,48,90,6.0,0.0
7593,48.0,0,150,4.0,0.0
7594,60.0,24,90,6.0,0.0
7595,48.0,0,90,6.0,0.0
7596,60.0,6,150,2.0,0.0
7597,67.0,0,90,5.0,0.0
7598,77.0,0,40,5.0,0.0
7599,62.0,0,40,1.0,0.0
7600,76.0,0,40,5.0,0.0
7601,77.0,18,40,5.0,0.0
7602,55.0,0,150,3.0,0.0
7603,55.0,0,90,6.0,0.0
7604,60.0,0,90,6.0,0.0
7605,43.0,6,150,4.0,0.0
7606,67.0,0,90,5.0,0.0
7607,64.0,24,20,1.0,0.0
7608,62.0,0,20,1.0,0.0
7609,76.0,24,40,5.0,0.0
7610,79.0,0,40,7.0,0.0
7611,64.0,24,20,1.0,0.0
7612,62.0,0,20,1.0,0.0
7613,64.0,24,20,1.0,0.0
7614,77.0,0,40,7.0,0.0
7615,55.0,0,90,6.0,0.0
7616,59.0,0,90,6.0,0.0
7617,74.0,0,40,5.0,0.0
7618,67.0,0,90,5.0,0.0
7619,59.0,48,90,2.0,0.0
7620,62.0,18,20,1.0,0.0
7621,79.0,0,40,7.0,0.0
7622,60.0,24,20,1.0,0.0
7623,76.0,0,40,5.0,0.0
7624,62.0,0,20,1.0,0.0
7625,72.0,0,90,5.0,0.0
7626,64.0,0,90,1.0,0.0
7627,52.0,0,90,6.0,0.0
7628,36.0,48,90,4.0,0.0
7629,60.0,0,90,2.0,0.0
7630,76.0,48,40,7.0,0.0
7631,55.0,0,90,3.0,0.0
7632,64.0,0,90,5.0,0.0
7633,67.0,0,90,5.0,0.0
7634,60.0,0,90,6.0,0.0
7635,84.0,0,40,7.0,0.0
7636,67.0,0,40,8.0,0.0
7637,65.0,48,40,8.0,0.0
7638,74.0,0,40,7.0,0.0
7639,83.0,0,40,7.0,0.0
7640,67.0,48,40,8.0,0.0
7641,64.0,48,40,8.0,0.0
7642,72.0,48,90,7.0,0.0
7643,62.0,0,40,8.0,0.0
7644,74.0,0,40,7.0,0.0
7645,60.0,48,40,8.0,0.0
7646,58.0,48,40,8.0,0.0
7647,76.0,0,40,7.0,0.0
7648,77.0,48,40,7.0,0.0
7649,57.0,0,90,8.0,0.0
7650,79.0,48,40,7.0,0.0
7651,53.0,48,40,8.0,0.0
7652,81.0,0,40,7.0,0.0
7653,55.0,0,40,8.0,0.0
7654,79.0,48,40,7.0,0.0
7655,57.0,0,90,8.0,0.0
7656,77.0,48,40,7.0,0.0
7657,76.0,48,40,7.0,0.0
7658,74.0,48,40,7.0,0.0
7659,59.0,0,40,8.0,0.0
7660,72.0,48,40,7.0,0.0
7661,60.0,0,40,8.0,0.0
7662,71.0,48,40,7.0,0.0
7663,62.0,0,90,8.0,0.0
7664,77.0,48,40,7.0,0.0
7665,69.0,48,40,7.0,0.0
7666,64.0,0,40,8.0,0.0
7667,60.0,48,40,8.0,0.0
7668,77.0,0,40,7.0,0.0
7669,71.0,48,40,7.0,0.0
7670,62.0,48,90,8.0,0.0
7671,77.0,0,40,7.0,0.0
7672,67.0,48,40,7.0,0.0
7673,59.0,0,90,8.0,0.0
7674,77.0,48,40,7.0,0.0
7675,55.0,0,90,8.0,0.0
7676,76.0,48,40,7.0,0.0
7677,77.0,48,40,7.0,0.0
7678,52.0,0,40,8.0,0.0
7679,79.0,48,40,7.0,0.0
7680,53.0,0,40,8.0,0.0
7681,77.0,48,40,7.0,0.0
7682,76.0,48,40,7.0,0.0
7683,55.0,48,90,8.0,0.0
7684,74.0,0,40,7.0,0.0
7685,57.0,48,40,8.0,0.0
7686,72.0,0,40,7.0,0.0
7687,71.0,48,40,7.0,0.0
7688,59.0,0,40,8.0,0.0
7689,69.0,48,40,7.0,0.0
7690,60.0,48,90,8.0,0.0
7691,76.0,0,40,7.0,0.0
7692,67.0,0,40,7.0,0.0
7693,62.0,48,40,8.0,0.0
7694,76.0,48,40,7.0,0.0
7695,59.0,0,40,8.0,0.0
7696,69.0,48,40,7.0,0.0
7697,60.0,48,90,8.0,0.0
7698,76.0,0,40,7.0,0.0
7699,57.0,48,90,8.0,0.0
7700,65.0,48,40,7.0,0.0
7701,76.0,0,40,7.0,0.0
7702,74.0,48,40,7.0,0.0
7703,53.0,0,90,8.0,0.0
7704,76.0,48,40,7.0,0.0
7705,50.0,0,40,8.0,0.0
7706,77.0,48,40,7.0,0.0
7707,52.0,48,40,8.0,0.0
7708,76.0,0,40,7.0,0.0
7709,74.0,48,40,7.0,0.0
7710,53.0,0,90,8.0,0.0
7711,77.0,48,40,7.0,0.0
7712,72.0,48,40,7.0,0.0
7713,69.0,48,90,6.0,0.0
7714,57.0,0,90,8.0,0.0
7715,77.0,48,180,5.0,0.0
7716,77.0,0,40,7.0,0.0
7717,50.0,0,90,4.0,0.0
7718,65.0,0,90,3.0,0.0
7719,71.0,48,40,7.0,0.0
7720,67.0,0,90,2.0,0.0
7721,53.0,0,90,8.0,0.0
7722,62.0,0,40,6.0,0.0
7723,71.0,0,90,1.0,0.0
7724,72.0,0,40,7.0,0.0
7725,64.0,0,40,6.0,0.0
7726,50.0,0,40,8.0,0.0
7727,71.0,0,40,5.0,0.0
7728,65.0,48,40,6.0,0.0
7729,74.0,0,40,7.0,0.0
7730,72.0,0,40,5.0,0.0
7731,64.0,0,40,6.0,0.0
7732,72.0,48,40,7.0,0.0
7733,52.0,0,40,8.0,0.0
7734,74.0,0,90,5.0,0.0
7735,62.0,0,40,6.0,0.0
7736,53.0,48,90,8.0,0.0
7737,71.0,48,40,7.0,0.0
7738,74.0,0,40,7.0,0.0
7739,65.0,0,40,6.0,0.0
7740,77.0,0,180,5.0,0.0
7741,59.0,0,90,8.0,0.0
7742,59.0,0,40,6.0,0.0
7743,67.0,48,40,7.0,0.0
7744,62.0,0,40,6.0,0.0
7745,71.0,48,40,7.0,0.0
7746,67.0,0,90,2.0,0.0
7747,62.0,0,40,8.0,0.0
7748,74.0,0,90,1.0,0.0
7749,47.0,0,90,4.0,0.0
7750,55.0,48,40,6.0,0.0
7751,62.0,0,90,3.0,0.0
7752,77.0,48,90,7.0,0.0
7753,60.0,0,40,6.0,0.0
7754,64.0,0,40,8.0,0.0
7755,74.0,0,40,7.0,0.0
7756,65.0,0,40,8.0,0.0
7757,71.0,0,40,5.0,0.0
7758,62.0,48,40,6.0,0.0
7759,64.0,0,40,8.0,0.0
7760,72.0,48,40,5.0,0.0
7761,60.0,0,40,6.0,0.0
7762,76.0,0,40,7.0,0.0
7763,59.0,48,40,6.0,0.0
7764,74.0,0,90,5.0,0.0
7765,77.0,48,90,7.0,0.0
7766,62.0,0,40,8.0,0.0
7767,65.0,0,40,8.0,0.0
7768,62.0,0,40,6.0,0.0
7769,77.0,0,180,5.0,0.0
7770,60.0,48,40,8.0,0.0
7771,81.0,0,90,7.0,0.0
7772,57.0,0,40,6.0,0.0
7773,60.0,48,40,6.0,0.0
7774,65.0,0,40,8.0,0.0
7775,59.0,48,40,8.0,0.0
7776,74.0,0,90,2.0,0.0
7777,77.0,0,90,1.0,0.0
7778,59.0,0,90,3.0,0.0
7779,43.0,48,90,4.0,0.0
7780,77.0,0,90,7.0,0.0
7781,62.0,0,40,6.0,0.0
7782,64.0,0,40,6.0,0.0
7783,60.0,0,40,8.0,0.0
7784,62.0,0,40,8.0,0.0
7785,74.0,0,40,5.0,0.0
7786,74.0,0,40,7.0,0.0
7787,65.0,48,40,6.0,0.0
7788,76.0,48,40,7.0,0.0
7789,64.0,0,40,6.0,0.0
7790,60.0,0,40,8.0,0.0
7791,76.0,0,40,5.0,0.0
7792,77.0,0,90,5.0,0.0
7793,62.0,0,90,6.0,0.0
7794,77.0,0,90,7.0,0.0
7795,59.0,48,40,8.0,0.0
7796,62.0,48,40,8.0,0.0
7797,55.0,48,40,8.0,0.0
7798,79.0,0,90,1.0,0.0
7799,74.0,0,90,2.0,0.0
7800,55.0,0,90,3.0,0.0
7801,47.0,0,90,4.0,0.0
7802,79.0,0,90,7.0,0.0
7803,59.0,48,40,8.0,0.0
7804,67.0,0,90,3.0,0.0
7805,76.0,0,90,1.0,0.0
7806,72.0,48,90,2.0,0.0
7807,48.0,0,90,8.0,0.0
7808,76.0,48,40,7.0,0.0
7809,48.0,0,90,4.0,0.0
7810,74.0,0,40,7.0,0.0
7811,64.0,0,90,2.0,0.0
7812,72.0,48,40,7.0,0.0
7813,69.0,0,90,5.0,0.0
7814,72.0,0,90,5.0,0.0
7815,72.0,0,90,1.0,0.0
7816,69.0,0,90,3.0,0.0
7817,57.0,0,90,8.0,0.0
7818,45.0,48,90,4.0,0.0
7819,76.0,0,90,5.0,0.0
7820,57.0,0,90,6.0,0.0
7821,76.0,0,40,7.0,0.0
7822,77.0,0,90,5.0,0.0
7823,74.0,0,90,5.0,0.0
7824,69.0,0,90,5.0,0.0
7825,50.0,0,90,6.0,0.0
7826,53.0,0,90,8.0,0.0
7827,69.0,0,90,2.0,0.0
7828,74.0,48,40,7.0,0.0
7829,74.0,0,90,1.0,0.0
7830,62.0,0,90,3.0,0.0
7831,41.0,0,90,4.0,0.0
7832,72.0,48,40,7.0,0.0
7833,55.0,0,90,8.0,0.0
7834,65.0,48,90,3.0,0.0
7835,55.0,0,90,6.0,0.0
7836,43.0,0,90,4.0,0.0
7837,71.0,0,90,1.0,0.0
7838,67.0,0,90,2.0,0.0
7839,71.0,48,40,7.0,0.0
7840,67.0,0,90,5.0,0.0
7841,71.0,0,90,5.0,0.0
7842,74.0,0,90,5.0,0.0
7843,74.0,0,40,7.0,0.0
7844,72.0,0,90,5.0,0.0
7845,72.0,48,40,7.0,0.0
7846,36.0,0,90,4.0,0.0
7847,76.0,0,90,5.0,0.0
7848,67.0,0,90,2.0,0.0
7849,67.0,0,90,5.0,0.0
7850,72.0,48,90,1.0,0.0
7851,64.0,0,90,3.0,0.0
7852,48.0,0,90,8.0,0.0
7853,48.0,0,90,6.0,0.0
7854,74.0,0,40,7.0,0.0
7855,50.0,48,90,8.0,0.0
7856,72.0,48,40,7.0,0.0
7857,70.0,0,40,7.0,0.0
7858,52.0,48,90,8.0,0.0
7859,69.0,48,40,7.0,0.0
7860,67.0,0,40,7.0,0.0
7861,52.0,0,40,6.0,0.0
7862,60.0,0,90,3.0,0.0
7863,67.0,0,90,2.0,0.0
7864,53.0,48,40,6.0,0.0
7865,48.0,48,90,8.0,0.0
7866,79.0,0,180,5.0,0.0
7867,40.0,0,90,4.0,0.0
7868,65.0,0,40,7.0,0.0
7869,70.0,0,90,1.0,0.0
7870,64.0,0,40,7.0,0.0
7871,55.0,0,40,6.0,0.0
7872,53.0,48,90,8.0,0.0
7873,60.0,0,90,3.0,0.0
7874,69.0,48,40,7.0,0.0
7875,41.0,0,90,4.0,0.0
7876,69.0,0,90,1.0,0.0
7877,69.0,0,90,2.0,0.0
7878,57.0,0,40,6.0,0.0
7879,70.0,0,40,7.0,0.0
7880,48.0,0,40,6.0,0.0
7881,55.0,0,90,8.0,0.0
7882,50.0,0,40,6.0,0.0
7883,69.0,48,40,7.0,0.0
7884,77.0,0,40,5.0,0.0
7885,52.0,48,40,6.0,0.0
7886,76.0,0,40,5.0,0.0
7887,67.0,0,40,7.0,0.0
7888,57.0,0,90,8.0,0.0
7889,74.0,0,40,5.0,0.0
7890,53.0,48,240,6.0,0.0
7891,65.0,48,40,7.0,0.0
7892,72.0,0,40,5.0,0.0
7893,64.0,48,40,7.0,0.0
7894,62.0,0,40,7.0,0.0
7895,74.0,48,90,1.0,0.0
7896,71.0,48,40,5.0,0.0
7897,41.0,0,90,4.0,0.0
7898,65.0,0,90,3.0,0.0
7899,53.0,0,90,8.0,0.0
7900,69.0,0,90,2.0,0.0
7901,60.0,0,40,7.0,0.0
7902,69.0,0,40,5.0,0.0
7903,74.0,0,40,5.0,0.0
7904,55.0,48,90,8.0,0.0
7905,62.0,0,90,2.0,0.0
7906,53.0,0,90,4.0,0.0
7907,67.0,0,90,1.0,0.0
7908,59.0,0,90,3.0,0.0
7909,59.0,0,40,7.0,0.0
7910,62.0,0,40,5.0,0.0
7911,67.0,0,40,7.0,0.0
7912,47.0,0,40,6.0,0.0
7913,64.0,0,40,5.0,0.0
7914,53.0,0,90,8.0,0.0
7915,48.0,0,40,6.0,0.0
7916,69.0,48,40,7.0,0.0
7917,65.0,0,40,5.0,0.0
7918,50.0,0,40,6.0,0.0
7919,71.0,48,40,7.0,0.0
7920,52.0,0,90,8.0,0.0
7921,72.0,0,40,7.0,0.0
7922,52.0,48,40,6.0,0.0
7923,67.0,0,40,5.0,0.0
7924,53.0,0,40,6.0,0.0
7925,69.0,48,40,5.0,0.0
7926,74.0,0,40,7.0,0.0
7927,71.0,48,40,5.0,0.0
7928,76.0,0,40,7.0,0.0
7929,67.0,0,90,1.0,0.0
7930,62.0,0,90,3.0,0.0
7931,50.0,0,90,8.0,0.0
7932,71.0,0,90,2.0,0.0
7933,55.0,0,40,6.0,0.0
7934,53.0,0,90,4.0,0.0
7935,53.0,96,40,6.0,0.0
7936,77.0,0,40,7.0,0.0
7937,67.0,0,40,5.0,0.0
7938,52.0,0,90,6.0,0.0
7939,52.0,0,90,8.0,0.0
7940,60.0,0,90,3.0,0.0
7941,79.0,0,90,7.0,0.0
7942,52.0,0,90,4.0,0.0
7943,79.0,48,90,1.0,0.0
7944,72.0,0,90,5.0,0.0
7945,72.0,0,90,2.0,0.0
7946,48.0,0,90,6.0,0.0
7947,77.0,0,40,1.0,0.0
7948,72.0,0,90,2.0,0.0
7949,48.0,0,90,4.0,0.0
7950,74.0,0,40,5.0,0.0
7951,48.0,0,90,8.0,0.0
7952,67.0,0,90,3.0,0.0
7953,77.0,48,40,7.0,0.0
7954,76.0,0,40,5.0,0.0
7955,76.0,0,40,1.0,0.0
7956,76.0,48,40,7.0,0.0
7957,55.0,0,90,4.0,0.0
7958,77.0,46,40,1.0,0.0
7959,55.0,0,90,8.0,0.0
7960,67.0,0,90,3.0,0.0
7961,77.0,2,40,7.0,0.0
7962,67.0,0,90,5.0,0.0
7963,55.0,2,90,6.0,0.0
7964,72.0,0,90,2.0,0.0
7965,76.0,0,40,7.0,0.0
7966,76.0,46,40,1.0,0.0
7967,71.0,0,90,5.0,0.0
7968,43.0,0,90,4.0,0.0
7969,53.0,0,90,6.0,0.0
7970,74.0,2,40,7.0,0.0
7971,74.0,46,40,1.0,0.0
7972,62.0,0,90,3.0,0.0
7973,71.0,0,90,2.0,0.0
7974,43.0,0,90,8.0,0.0
7975,72.0,48,40,1.0,0.0
7976,76.0,0,40,7.0,0.0
7977,36.0,0,1410,4.0,0.0
7978,82.0,0,1410,1.0,0.0
7979,72.0,30,150,7.0,0.0
7980,52.0,48,40,6.0,0.0
7981,64.0,30,1410,3.0,0.0
7982,72.0,0,1410,2.0,0.0
7983,48.0,0,40,8.0,0.0
7984,72.0,0,90,5.0,0.0
7985,60.0,48,40,6.0,0.0
7986,46.0,0,40,8.0,0.0
7987,48.0,0,40,8.0,0.0
7988,74.0,0,90,5.0,0.0
7989,53.0,18,40,6.0,0.0
7990,60.0,24,40,6.0,0.0
7991,45.0,0,40,8.0,0.0
7992,76.0,48,90,5.0,0.0
7993,72.0,24,20,7.0,0.0
7994,55.0,0,40,6.0,0.0
7995,48.0,24,40,8.0,0.0
7996,70.0,0,20,7.0,0.0
7997,60.0,0,40,6.0,0.0
7998,72.0,24,20,7.0,0.0
7999,43.0,0,40,8.0,0.0
8000,70.0,0,20,7.0,0.0
8001,77.0,0,90,5.0,0.0
8002,57.0,0,40,6.0,0.0
8003,48.0,48,40,8.0,0.0
8004,69.0,0,90,7.0,0.0
8005,60.0,48,40,6.0,0.0
8006,41.0,0,40,8.0,0.0
8007,67.0,0,90,7.0,0.0
8008,48.0,0,40,8.0,0.0
8009,79.0,0,90,5.0,0.0
8010,58.0,48,40,6.0,0.0
8011,40.0,0,40,8.0,0.0
8012,60.0,48,40,6.0,0.0
8013,81.0,0,90,5.0,0.0
8014,65.0,0,90,7.0,0.0
8015,48.0,0,40,8.0,0.0
8016,57.0,48,40,6.0,0.0
8017,60.0,0,40,6.0,0.0
8018,41.0,48,40,8.0,0.0
8019,55.0,0,40,6.0,0.0
8020,82.0,0,90,5.0,0.0
8021,64.0,0,90,7.0,0.0
8022,48.0,48,40,8.0,0.0
8023,43.0,48,40,8.0,0.0
8024,60.0,0,40,6.0,0.0
8025,53.0,48,40,6.0,0.0
8026,48.0,0,40,8.0,0.0
8027,65.0,48,90,7.0,0.0
8028,81.0,0,90,5.0,0.0
8029,45.0,0,40,8.0,0.0
8030,60.0,0,40,6.0,0.0
8031,79.0,0,90,5.0,0.0
8032,48.0,48,40,8.0,0.0
8033,52.0,0,40,6.0,0.0
8034,67.0,0,90,7.0,0.0
8035,46.0,0,40,8.0,0.0
8036,60.0,48,40,6.0,0.0
8037,69.0,0,90,7.0,0.0
8038,48.0,48,40,8.0,0.0
8039,53.0,0,40,6.0,0.0
8040,77.0,0,90,5.0,0.0
8041,60.0,0,40,6.0,0.0
8042,45.0,48,40,8.0,0.0
8043,55.0,48,40,6.0,0.0
8044,48.0,0,40,8.0,0.0
8045,70.0,0,90,7.0,0.0
8046,76.0,48,90,5.0,0.0
8047,60.0,0,40,6.0,0.0
8048,43.0,0,40,8.0,0.0
8049,57.0,48,40,6.0,0.0
8050,77.0,48,90,5.0,0.0
8051,69.0,0,90,7.0,0.0
8052,48.0,0,40,8.0,0.0
8053,41.0,0,40,8.0,0.0
8054,60.0,0,40,6.0,0.0
8055,79.0,48,90,5.0,0.0
8056,58.0,0,40,6.0,0.0
8057,48.0,48,40,8.0,0.0
8058,67.0,0,90,7.0,0.0
8059,60.0,0,40,6.0,0.0
8060,40.0,0,40,8.0,0.0
8061,81.0,48,90,5.0,0.0
8062,65.0,0,90,7.0,0.0
8063,48.0,0,40,8.0,0.0
8064,57.0,48,40,6.0,0.0
8065,41.0,0,40,8.0,0.0
8066,60.0,0,40,6.0,0.0
8067,48.0,0,40,8.0,0.0
8068,64.0,0,40,7.0,0.0
8069,55.0,18,40,6.0,0.0
8070,82.0,0,90,5.0,0.0
8071,43.0,48,40,8.0,0.0
8072,67.0,0,40,7.0,0.0
8073,60.0,0,40,6.0,0.0
8074,48.0,48,90,4.0,0.0
8075,79.0,0,90,5.0,0.0
8076,81.0,0,40,1.0,0.0
8077,64.0,0,40,7.0,0.0
8078,64.0,0,90,3.0,0.0
8079,72.0,0,90,2.0,0.0
8080,58.0,0,40,6.0,0.0
8081,48.0,48,40,8.0,0.0
8082,60.0,0,40,6.0,0.0
8083,79.0,0,40,1.0,0.0
8084,60.0,0,40,7.0,0.0
8085,40.0,0,40,8.0,0.0
8086,57.0,0,40,7.0,0.0
8087,41.0,0,90,4.0,0.0
8088,72.0,0,90,2.0,0.0
8089,41.0,0,90,8.0,0.0
8090,81.0,0,90,1.0,0.0
8091,53.0,0,90,6.0,0.0
8092,81.0,48,40,5.0,0.0
8093,65.0,0,90,3.0,0.0
8094,60.0,48,40,7.0,0.0
8095,77.0,0,40,5.0,0.0
8096,53.0,0,90,4.0,0.0
8097,52.0,0,90,6.0,0.0
8098,72.0,0,90,2.0,0.0
8099,81.0,0,90,1.0,0.0
8100,81.0,48,40,5.0,0.0
8101,65.0,0,90,3.0,0.0
8102,65.0,48,90,7.0,0.0
8103,72.0,0,40,5.0,0.0
8104,47.0,48,90,4.0,0.0
8105,50.0,0,90,6.0,0.0
8106,65.0,0,90,3.0,0.0
8107,71.0,48,40,5.0,0.0
8108,74.0,0,90,2.0,0.0
8109,81.0,0,90,1.0,0.0
8110,71.0,0,40,7.0,0.0
8111,81.0,0,40,5.0,0.0
8112,62.0,0,40,8.0,0.0
8113,72.0,0,40,7.0,0.0
8114,79.0,0,40,5.0,0.0
8115,64.0,48,40,8.0,0.0
8116,59.0,0,90,6.0,0.0
8117,65.0,48,40,8.0,0.0
8118,74.0,0,40,7.0,0.0
8119,77.0,0,40,5.0,0.0
8120,76.0,48,40,7.0,0.0
8121,52.0,0,90,6.0,0.0
8122,55.0,0,90,8.0,0.0
8123,79.0,0,40,5.0,0.0
8124,76.0,48,40,5.0,0.0
8125,71.0,0,40,7.0,0.0
8126,52.0,48,90,4.0,0.0
8127,71.0,0,90,2.0,0.0
8128,76.0,0,40,7.0,0.0
8129,50.0,0,90,6.0,0.0
8130,79.0,0,90,1.0,0.0
8131,67.0,0,90,3.0,0.0
8132,52.0,0,90,8.0,0.0
8133,79.0,48,40,5.0,0.0
8134,70.0,0,40,5.0,0.0
8135,67.0,0,40,7.0,0.0
8136,79.0,0,90,1.0,0.0
8137,64.0,48,40,7.0,0.0
8138,69.0,0,40,5.0,0.0
8139,73.0,0,90,2.0,0.0
8140,49.0,0,90,6.0,0.0
8141,64.0,0,90,3.0,0.0
8142,45.0,0,90,4.0,0.0
8143,57.0,48,90,8.0,0.0
8144,76.0,0,40,7.0,0.0
8145,79.0,0,40,5.0,0.0
8146,45.0,0,90,8.0,0.0
8147,57.0,0,90,6.0,0.0
8148,74.0,48,40,7.0,0.0
8149,77.0,0,40,5.0,0.0
8150,76.0,0,40,5.0,0.0
8151,73.0,48,40,7.0,0.0
8152,74.0,0,40,7.0,0.0
8153,77.0,48,40,5.0,0.0
8154,53.0,0,90,8.0,0.0
8155,50.0,0,90,6.0,0.0
8156,74.0,0,40,5.0,0.0
8157,69.0,48,40,7.0,0.0
8158,50.0,48,90,8.0,0.0
8159,77.0,0,90,1.0,0.0
8160,50.0,0,90,4.0,0.0
8161,69.0,0,90,2.0,0.0
8162,65.0,0,90,3.0,0.0
8163,77.0,48,40,5.0,0.0
8164,48.0,0,90,6.0,0.0
8165,74.0,0,40,7.0,0.0
8166,69.0,0,40,5.0,0.0
8167,65.0,0,40,7.0,0.0
8168,67.0,48,40,5.0,0.0
8169,62.0,0,90,3.0,0.0
8170,71.0,48,90,2.0,0.0
8171,55.0,0,90,8.0,0.0
8172,47.0,0,90,6.0,0.0
8173,62.0,0,40,7.0,0.0
8174,43.0,0,90,4.0,0.0
8175,77.0,0,90,1.0,0.0
8176,77.0,0,40,5.0,0.0
8177,74.0,0,40,7.0,0.0
8178,76.0,48,40,5.0,0.0
8179,55.0,0,90,6.0,0.0
8180,72.0,0,40,7.0,0.0
8181,43.0,48,90,8.0,0.0
8182,71.0,0,40,7.0,0.0
8183,74.0,0,40,5.0,0.0
8184,48.0,48,90,6.0,0.0
8185,76.0,0,40,5.0,0.0
8186,72.0,48,40,7.0,0.0
8187,52.0,0,90,8.0,0.0
8188,72.0,0,40,5.0,0.0
8189,67.0,0,40,7.0,0.0
8190,47.0,0,90,6.0,0.0
8191,67.0,0,90,2.0,0.0
8192,48.0,0,90,4.0,0.0
8193,48.0,48,90,8.0,0.0
8194,76.0,0,90,1.0,0.0
8195,72.0,48,40,7.0,0.0
8196,76.0,0,40,5.0,0.0
8197,64.0,0,90,3.0,0.0
8198,67.0,0,40,5.0,0.0
8199,64.0,0,40,7.0,0.0
8200,60.0,0,90,3.0,0.0
8201,69.0,0,90,2.0,0.0
8202,76.0,48,90,1.0,0.0
8203,65.0,48,40,5.0,0.0
8204,53.0,0,90,4.0,0.0
8205,45.0,0,90,6.0,0.0
8206,53.0,0,90,8.0,0.0
8207,69.0,0,40,7.0,0.0
8208,67.0,0,40,7.0,0.0
8209,76.0,0,40,5.0,0.0
8210,57.0,48,90,3.0,0.0
8211,65.0,0,90,2.0,0.0
8212,74.0,0,40,1.0,0.0
8213,74.0,0,40,5.0,0.0
8214,53.0,0,90,6.0,0.0
8215,41.0,0,90,8.0,0.0
8216,41.0,0,90,4.0,0.0
8217,65.0,48,40,7.0,0.0
8218,72.0,0,40,1.0,0.0
8219,64.0,0,40,7.0,0.0
8220,72.0,0,40,5.0,0.0
8221,43.0,0,90,8.0,0.0
8222,43.0,0,1110,4.0,0.0
8223,71.0,48,40,5.0,0.0
8224,55.0,46,330,3.0,0.0
8225,71.0,0,330,1.0,0.0
8226,62.0,0,330,2.0,0.0
8227,62.0,0,90,7.0,0.0
8228,55.0,48,90,6.0,0.0
8229,67.0,0,40,5.0,0.0
8230,65.0,0,90,7.0,0.0
8231,43.0,0,90,6.0,0.0
8232,74.0,48,40,5.0,0.0
8233,55.0,0,90,8.0,0.0
8234,71.0,48,40,5.0,0.0
8235,55.0,48,90,8.0,0.0
8236,77.0,48,40,5.0,0.0
8237,74.0,0,40,5.0,0.0
8238,65.0,0,40,7.0,0.0
8239,55.0,0,90,6.0,0.0
8240,43.0,0,90,8.0,0.0
8241,72.0,0,40,5.0,0.0
8242,64.0,2,40,7.0,0.0
8243,71.0,48,40,5.0,0.0
8244,62.0,0,40,7.0,0.0
8245,64.0,0,330,2.0,0.0
8246,55.0,0,90,6.0,0.0
8247,72.0,0,330,1.0,0.0
8248,64.0,0,90,7.0,0.0
8249,72.0,48,40,5.0,0.0
8250,67.0,46,330,3.0,0.0
8251,67.0,48,40,5.0,0.0
8252,67.0,0,90,7.0,0.0
8253,55.0,0,90,8.0,0.0
8254,43.0,48,90,6.0,0.0
8255,76.0,48,40,5.0,0.0
8256,72.0,0,40,5.0,0.0
8257,79.0,48,40,5.0,0.0
8258,55.0,48,90,8.0,0.0
8259,67.0,0,40,7.0,0.0
8260,76.0,0,40,5.0,0.0
8261,43.0,0,90,8.0,0.0
8262,55.0,48,90,6.0,0.0
8263,74.0,2,40,5.0,0.0
8264,65.0,0,40,7.0,0.0
8265,64.0,0,40,7.0,0.0
8266,72.0,0,40,5.0,0.0
8267,59.0,0,330,3.0,0.0
8268,74.0,0,330,1.0,0.0
8269,65.0,0,90,7.0,0.0
8270,67.0,46,330,2.0,0.0
8271,74.0,48,40,5.0,0.0
8272,55.0,48,90,6.0,0.0
8273,71.0,0,40,5.0,0.0
8274,50.0,48,90,8.0,0.0
8275,69.0,0,90,7.0,0.0
8276,77.0,48,40,5.0,0.0
8277,43.0,0,90,6.0,0.0
8278,74.0,0,40,5.0,0.0
8279,81.0,48,40,5.0,0.0
8280,48.0,0,90,8.0,0.0
8281,77.0,48,40,5.0,0.0
8282,69.0,0,40,7.0,0.0
8283,76.0,0,40,5.0,0.0
8284,47.0,0,90,8.0,0.0
8285,55.0,48,90,6.0,0.0
8286,67.0,2,40,7.0,0.0
8287,65.0,0,40,7.0,0.0
8288,74.0,0,40,5.0,0.0
8289,48.0,0,40,8.0,0.0
8290,67.0,0,240,2.0,0.0
8291,76.0,0,240,1.0,0.0
8292,76.0,0,40,5.0,0.0
8293,36.0,0,40,4.0,0.0
8294,55.0,0,240,3.0,0.0
8295,64.0,0,40,7.0,0.0
8296,60.0,48,40,6.0,0.0
8297,36.0,48,40,8.0,0.0
8298,79.0,0,40,5.0,0.0
8299,48.0,0,40,4.0,0.0
8300,55.0,0,40,7.0,0.0
8301,64.0,0,40,6.0,0.0
8302,52.0,0,40,4.0,0.0
8303,40.0,0,40,8.0,0.0
8304,60.0,0,40,6.0,0.0
8305,60.0,0,40,7.0,0.0
8306,76.0,48,40,5.0,0.0
8307,64.0,48,40,7.0,0.0
8308,55.0,0,40,6.0,0.0
8309,72.0,0,40,5.0,0.0
8310,43.0,0,40,8.0,0.0
8311,55.0,0,40,4.0,0.0
8312,67.0,0,40,5.0,0.0
8313,48.0,0,40,8.0,0.0
8314,60.0,0,90,4.0,0.0
8315,52.0,0,40,6.0,0.0
8316,67.0,48,40,7.0,0.0
8317,64.0,0,40,7.0,0.0
8318,72.0,0,40,5.0,0.0
8319,55.0,0,40,6.0,0.0
8320,72.0,0,40,1.0,0.0
8321,55.0,0,40,3.0,0.0
8322,64.0,48,40,2.0,0.0
8323,47.0,0,40,8.0,0.0
8324,52.0,0,40,6.0,0.0
8325,67.0,0,40,1.0,0.0
8326,48.0,0,40,8.0,0.0
8327,60.0,0,40,7.0,0.0
8328,48.0,48,40,4.0,0.0
8329,60.0,0,40,2.0,0.0
8330,67.0,0,40,5.0,0.0
8331,52.0,0,40,3.0,0.0
8332,64.0,0,40,1.0,0.0
8333,48.0,0,40,6.0,0.0
8334,48.0,0,40,3.0,0.0
8335,55.0,0,40,2.0,0.0
8336,36.0,0,40,8.0,0.0
8337,64.0,0,40,5.0,0.0
8338,55.0,48,40,7.0,0.0
8339,52.0,0,40,4.0,0.0
8340,65.0,0,1260,1.0,0.0
8341,59.0,48,40,7.0,0.0
8342,43.0,0,90,8.0,0.0
8343,65.0,0,40,5.0,0.0
8344,50.0,0,90,6.0,0.0
8345,59.0,0,1260,3.0,0.0
8346,55.0,0,1260,4.0,0.0
8347,62.0,0,1260,2.0,0.0
8348,62.0,0,40,5.0,0.0
8349,65.0,48,40,7.0,0.0
8350,45.0,0,90,8.0,0.0
8351,57.0,0,40,7.0,0.0
8352,65.0,48,40,5.0,0.0
8353,65.0,0,40,7.0,0.0
8354,60.0,48,40,5.0,0.0
8355,65.0,0,40,5.0,0.0
8356,55.0,48,40,7.0,0.0
8357,50.0,0,90,6.0,0.0
8358,47.0,48,90,8.0,0.0
8359,59.0,0,40,5.0,0.0
8360,65.0,0,40,7.0,0.0
8361,48.0,0,90,6.0,0.0
8362,65.0,0,40,5.0,0.0
8363,48.0,0,90,8.0,0.0
8364,57.0,48,40,7.0,0.0
8365,57.0,0,40,5.0,0.0
8366,65.0,48,40,7.0,0.0
8367,59.0,48,40,7.0,0.0
8368,47.0,0,90,6.0,0.0
8369,50.0,0,90,8.0,0.0
8370,65.0,0,40,5.0,0.0
8371,55.0,0,40,5.0,0.0
8372,65.0,48,40,7.0,0.0
8373,45.0,0,90,6.0,0.0
8374,48.0,0,90,8.0,0.0
8375,60.0,0,40,7.0,0.0
8376,65.0,48,40,5.0,0.0
8377,65.0,48,40,7.0,0.0
8378,57.0,0,40,5.0,0.0
8379,47.0,48,90,8.0,0.0
8380,65.0,48,40,5.0,0.0
8381,62.0,0,40,7.0,0.0
8382,43.0,0,90,6.0,0.0
8383,65.0,0,40,7.0,0.0
8384,59.0,0,40,5.0,0.0
8385,60.0,0,40,7.0,0.0
8386,65.0,48,40,5.0,0.0
8387,45.0,0,90,6.0,0.0
8388,45.0,0,90,8.0,0.0
8389,60.0,0,40,5.0,0.0
8390,65.0,48,40,7.0,0.0
8391,43.0,0,90,8.0,0.0
8392,47.0,0,90,6.0,0.0
8393,65.0,0,40,5.0,0.0
8394,59.0,48,40,7.0,0.0
8395,62.0,48,40,5.0,0.0
8396,65.0,0,40,7.0,0.0
8397,48.0,0,90,6.0,0.0
8398,45.0,48,90,8.0,0.0
8399,57.0,48,40,7.0,0.0
8400,65.0,0,40,5.0,0.0
8401,60.0,0,40,5.0,0.0
8402,65.0,0,40,7.0,0.0
8403,65.0,0,40,5.0,0.0
8404,50.0,0,90,6.0,0.0
8405,47.0,0,90,8.0,0.0
8406,55.0,48,40,7.0,0.0
8407,65.0,0,40,7.0,0.0
8408,59.0,48,40,5.0,0.0
8409,65.0,48,40,5.0,0.0
8410,48.0,0,90,8.0,0.0
8411,57.0,0,40,7.0,0.0
8412,48.0,48,90,6.0,0.0
8413,57.0,0,40,5.0,0.0
8414,65.0,0,40,7.0,0.0
8415,59.0,0,90,7.0,0.0
8416,65.0,768,90,5.0,0.0
8417,50.0,0,90,8.0,0.0
8418,47.0,48,40,6.0,0.0
8419,43.0,0,810,6.0,0.0
8420,47.0,0,780,6.0,0.0
8421,50.0,0,720,6.0,0.0
8422,55.0,0,660,6.0,0.0
8423,62.0,0,630,5.0,0.0
8424,65.0,0,570,5.0,0.0
8425,67.0,192,540,5.0,0.0
8426,71.0,0,480,5.0,0.0
8427,55.0,0,420,8.0,0.0
8428,59.0,0,390,8.0,0.0
8429,62.0,0,330,8.0,0.0
8430,67.0,0,300,8.0,0.0
8431,74.0,0,240,7.0,0.0
8432,77.0,0,180,7.0,0.0
8433,79.0,0,150,7.0,0.0
8434,83.0,0,90,7.0,0.0
8435,54.0,0,150,6.0,0.0
8436,72.0,16,330,1.0,0.0
8437,69.0,0,150,2.0,0.0
8438,75.0,24,240,5.0,0.0
8439,54.0,0,150,4.0,0.0
8440,69.0,0,150,5.0,0.0
8441,72.0,0,300,5.0,0.0
8442,72.0,0,300,7.0,0.0
8443,69.0,30,150,7.0,0.0
8444,57.0,66,90,3.0,0.0
8445,42.0,0,150,8.0,0.0
8446,63.0,0,300,7.0,0.0
8447,60.0,48,90,3.0,0.0
8448,67.0,24,90,7.0,0.0
8449,67.0,0,90,5.0,0.0
8450,63.0,0,90,3.0,0.0
8451,43.0,0,360,8.0,0.0
8452,55.0,0,360,6.0,0.0
8453,55.0,30,150,4.0,0.0
8454,67.0,16,330,2.0,0.0
8455,77.0,24,20,5.0,0.0
8456,75.0,0,20,5.0,0.0
8457,74.0,0,20,5.0,0.0
8458,65.0,12,90,3.0,0.0
8459,65.0,24,20,7.0,0.0
8460,75.0,0,20,5.0,0.0
8461,67.0,2,20,7.0,0.0
8462,63.0,0,40,7.0,0.0
8463,72.0,0,40,5.0,0.0
8464,67.0,0,90,3.0,0.0
8465,67.0,0,150,6.0,0.0
8466,72.0,12,15,5.0,0.0
8467,71.0,0,150,1.0,0.0
8468,55.0,12,90,8.0,0.0
8469,62.0,0,40,5.0,0.0
8470,43.0,0,150,4.0,0.0
8471,59.0,30,150,7.0,0.0
8472,63.0,0,15,7.0,0.0
8473,62.0,12,15,7.0,0.0
8474,71.0,0,15,5.0,0.0
8475,63.0,0,15,7.0,0.0
8476,72.0,12,15,5.0,0.0
8477,62.0,12,15,7.0,0.0
8478,71.0,0,15,5.0,0.0
8479,64.0,0,40,5.0,0.0
8480,72.0,0,15,5.0,0.0
8481,63.0,12,15,7.0,0.0
8482,71.0,12,15,5.0,0.0
8483,62.0,0,15,7.0,0.0
8484,72.0,0,15,5.0,0.0
8485,63.0,12,15,7.0,0.0
8486,62.0,0,15,7.0,0.0
8487,71.0,0,15,5.0,0.0
8488,50.0,0,90,8.0,0.0
8489,62.0,0,90,3.0,0.0
8490,72.0,12,15,5.0,0.0
8491,65.0,722,90,5.0,0.0
8492,63.0,0,15,7.0,0.0
8493,62.0,0,15,7.0,0.0
8494,71.0,12,15,5.0,0.0
8495,63.0,0,15,7.0,0.0
8496,72.0,12,15,5.0,0.0
8497,71.0,0,15,5.0,0.0
8498,62.0,2,15,7.0,0.0
8499,72.0,0,40,5.0,0.0
8500,60.0,0,40,7.0,0.0
8501,36.0,0,720,8.0,0.0
8502,48.0,0,720,8.0,0.0
8503,52.0,0,720,8.0,0.0
8504,55.0,0,720,8.0,0.0
8505,72.0,0,720,1.0,0.0
8506,72.0,0,720,5.0,0.0
8507,67.0,0,720,5.0,0.0
8508,64.0,0,720,5.0,0.0
8509,67.0,0,720,2.0,0.0
8510,48.0,0,720,6.0,0.0
8511,48.0,0,720,4.0,0.0
8512,60.0,958,720,7.0,0.0
8513,64.0,0,720,3.0,0.0
8514,45.0,32,150,6.0,0.0
8515,60.0,18,120,5.0,0.0
8516,64.0,0,120,5.0,0.0
8517,69.0,0,120,5.0,0.0
8518,76.0,94,40,5.0,0.0
8519,77.0,48,90,5.0,0.0
8520,76.0,48,40,5.0,0.0
8521,74.0,50,40,5.0,0.0
8522,72.0,48,40,5.0,0.0
8523,71.0,48,40,5.0,0.0
8524,72.0,46,40,5.0,0.0
8525,69.0,144,40,5.0,0.0
8526,68.0,32,150,5.0,0.0
8527,52.0,18,150,6.0,0.0
8528,64.0,94,40,6.0,0.0
8529,65.0,0,90,6.0,0.0
8530,69.0,48,90,5.0,0.0
8531,64.0,48,40,6.0,0.0
8532,71.0,0,90,5.0,0.0
8533,62.0,50,40,6.0,0.0
8534,64.0,2,90,5.0,0.0
8535,60.0,46,40,6.0,0.0
8536,59.0,48,40,6.0,0.0
8537,69.0,48,90,5.0,0.0
8538,60.0,46,40,6.0,0.0
8539,57.0,0,40,6.0,0.0
8540,56.0,32,150,6.0,0.0
8541,74.0,48,40,5.0,0.0
8542,76.0,48,40,5.0,0.0
8543,77.0,18,40,5.0,0.0
8544,76.0,94,40,5.0,0.0
8545,77.0,48,150,5.0,0.0
8546,57.0,48,90,6.0,0.0
8547,59.0,2,90,6.0,0.0
8548,76.0,46,40,5.0,0.0
8549,57.0,0,90,6.0,0.0
8550,74.0,48,40,5.0,0.0
8551,83.0,48,40,5.0,0.0
8552,76.0,48,40,5.0,0.0
8553,56.0,0,90,6.0,0.0
8554,74.0,96,40,5.0,0.0
8555,57.0,48,90,6.0,0.0
8556,45.0,0,150,8.0,0.0
8557,72.0,30,150,5.0,0.0
8558,60.0,18,120,7.0,0.0
8559,64.0,0,120,7.0,0.0
8560,69.0,0,120,7.0,0.0
8561,45.0,2,90,6.0,0.0
8562,76.0,94,40,7.0,0.0
8563,71.0,48,90,5.0,0.0
8564,77.0,0,90,7.0,0.0
8565,56.0,0,90,6.0,0.0
8566,76.0,48,40,7.0,0.0
8567,72.0,0,40,5.0,0.0
8568,57.0,0,90,6.0,0.0
8569,74.0,24,40,5.0,0.0
8570,74.0,0,40,7.0,0.0
8571,76.0,24,20,5.0,0.0
8572,72.0,22,40,7.0,0.0
8573,55.0,2,90,6.0,0.0
8574,74.0,2,20,5.0,0.0
8575,71.0,22,40,7.0,0.0
8576,76.0,24,20,5.0,0.0
8577,74.0,0,20,5.0,0.0
8578,76.0,24,20,5.0,0.0
8579,72.0,22,40,7.0,0.0
8580,53.0,24,90,6.0,0.0
8581,74.0,2,20,5.0,0.0
8582,72.0,24,20,5.0,0.0
8583,69.0,0,40,7.0,0.0
8584,74.0,0,20,5.0,0.0
8585,76.0,0,150,5.0,0.0
8586,52.0,12,150,8.0,0.0
8587,69.0,24,20,7.0,0.0
8588,52.0,6,150,6.0,0.0
8589,68.0,24,20,7.0,0.0
8590,69.0,18,20,7.0,0.0
8591,68.0,18,15,7.0,0.0
8592,69.0,12,15,7.0,0.0
8593,68.0,12,15,7.0,0.0
8594,69.0,12,15,7.0,0.0
8595,68.0,0,15,7.0,0.0
8596,64.0,94,40,8.0,0.0
8597,69.0,6,15,7.0,0.0
8598,68.0,12,15,7.0,0.0
8599,69.0,12,15,7.0,0.0
8600,68.0,2,15,7.0,0.0
8601,65.0,48,90,8.0,0.0
8602,69.0,0,90,7.0,0.0
8603,71.0,0,90,7.0,0.0
8604,64.0,48,40,8.0,0.0
8605,62.0,50,40,8.0,0.0
8606,64.0,2,90,7.0,0.0
8607,60.0,46,40,8.0,0.0
8608,59.0,48,40,8.0,0.0
8609,69.0,48,90,7.0,0.0
8610,60.0,46,40,8.0,0.0
8611,57.0,0,40,8.0,0.0
8612,56.0,30,150,8.0,0.0
8613,74.0,48,40,7.0,0.0
8614,76.0,48,40,7.0,0.0
8615,77.0,18,40,7.0,0.0
8616,76.0,96,40,7.0,0.0
8617,57.0,48,90,8.0,0.0
8618,77.0,48,150,7.0,0.0
8619,59.0,48,90,8.0,0.0
8620,76.0,0,40,7.0,0.0
8621,74.0,48,40,7.0,0.0
8622,57.0,0,90,8.0,0.0
8623,83.0,48,40,7.0,0.0
8624,76.0,48,40,7.0,0.0
8625,56.0,96,90,8.0,0.0
8626,74.0,0,40,7.0,0.0
8627,72.0,30,150,7.0,0.0
8628,57.0,66,90,8.0,0.0
8629,45.0,96,90,8.0,0.0
8630,56.0,0,90,6.0,0.0
8631,71.0,48,90,7.0,0.0
8632,52.0,0,90,8.0,0.0
8633,57.0,0,40,6.0,0.0
8634,57.0,0,90,8.0,0.0
8635,72.0,48,40,7.0,0.0
8636,52.0,24,40,6.0,0.0
8637,74.0,0,40,7.0,0.0
8638,55.0,0,90,8.0,0.0
8639,76.0,24,20,7.0,0.0
8640,57.0,24,40,6.0,0.0
8641,74.0,0,20,7.0,0.0
8642,76.0,24,20,7.0,0.0
8643,60.0,0,40,6.0,0.0
8644,74.0,24,20,7.0,0.0
8645,53.0,0,90,8.0,0.0
8646,59.0,0,40,6.0,0.0
8647,76.0,24,20,7.0,0.0
8648,81.0,0,180,5.0,0.0
8649,74.0,24,20,7.0,0.0
8650,57.0,0,40,6.0,0.0
8651,72.0,24,20,7.0,0.0
8652,74.0,48,20,7.0,0.0
8653,52.0,48,90,8.0,0.0
8654,59.0,48,40,6.0,0.0
8655,76.0,48,630,7.0,0.0
8656,52.0,0,40,6.0,0.0
8657,79.0,0,40,5.0,0.0
8658,59.0,48,40,6.0,0.0
8659,55.0,0,90,8.0,0.0
8660,77.0,48,40,5.0,0.0
8661,62.0,0,40,6.0,0.0
8662,79.0,30,150,5.0,0.0
8663,61.0,48,40,6.0,0.0
8664,52.0,0,90,8.0,0.0
8665,59.0,48,40,6.0,0.0
8666,57.0,30,150,8.0,0.0
8667,61.0,18,40,6.0,0.0
8668,57.0,48,40,6.0,0.0
8669,76.0,0,90,5.0,0.0
8670,61.0,18,40,6.0,0.0
8671,64.0,48,40,6.0,0.0
8672,81.0,0,90,5.0,0.0
8673,62.0,48,40,6.0,0.0
8674,45.0,0,90,8.0,0.0
8675,61.0,48,40,6.0,0.0
8676,62.0,0,40,6.0,0.0
8677,50.0,0,90,8.0,0.0
8678,77.0,48,330,5.0,0.0
8679,58.0,0,40,6.0,0.0
8680,74.0,48,40,7.0,0.0
8681,57.0,48,40,6.0,0.0
8682,53.0,48,90,8.0,0.0
8683,72.0,0,40,7.0,0.0
8684,71.0,0,40,7.0,0.0
8685,55.0,0,40,6.0,0.0
8686,57.0,0,40,6.0,0.0
8687,50.0,0,90,8.0,0.0
8688,72.0,48,40,7.0,0.0
8689,69.0,48,40,7.0,0.0
8690,62.0,0,40,6.0,0.0
8691,71.0,48,330,7.0,0.0
8692,52.0,2,90,6.0,0.0
8693,56.0,0,90,8.0,0.0
8694,76.0,46,40,5.0,0.0
8695,56.0,50,90,6.0,0.0
8696,74.0,48,40,5.0,0.0
8697,59.0,0,90,8.0,0.0
8698,83.0,0,40,5.0,0.0
8699,56.0,48,90,8.0,0.0
8700,52.0,0,90,6.0,0.0
8701,76.0,46,40,5.0,0.0
8702,74.0,0,40,5.0,0.0
8703,45.0,0,90,6.0,0.0
8704,72.0,48,330,5.0,0.0
8705,52.0,0,90,8.0,0.0
8706,69.0,48,40,7.0,0.0
8707,57.0,2,300,8.0,0.0
8708,48.0,0,90,6.0,0.0
8709,67.0,48,40,7.0,0.0
8710,65.0,48,40,7.0,0.0
8711,45.0,48,90,6.0,0.0
8712,67.0,48,40,7.0,0.0
8713,64.0,0,40,7.0,0.0
8714,50.0,0,90,6.0,0.0
8715,65.0,0,330,7.0,0.0
8716,71.0,46,40,5.0,0.0
8717,62.0,48,40,8.0,0.0
8718,69.0,0,40,5.0,0.0
8719,53.0,0,90,6.0,0.0
8720,77.0,0,40,5.0,0.0
8721,60.0,48,40,8.0,0.0
8722,70.0,46,40,5.0,0.0
8723,50.0,0,90,6.0,0.0
8724,62.0,2,40,8.0,0.0
8725,65.0,48,40,8.0,0.0
8726,69.0,0,40,5.0,0.0
8727,52.0,0,90,6.0,0.0
8728,68.0,48,90,5.0,0.0
8729,59.0,48,40,8.0,0.0
8730,64.0,0,40,7.0,0.0
8731,60.0,0,40,8.0,0.0
8732,62.0,48,40,7.0,0.0
8733,53.0,0,90,6.0,0.0
8734,69.0,0,240,5.0,0.0
8735,59.0,0,40,8.0,0.0
8736,57.0,0,40,8.0,0.0
8737,60.0,48,40,7.0,0.0
8738,62.0,0,40,7.0,0.0
8739,50.0,48,90,6.0,0.0
8740,59.0,48,40,8.0,0.0
8741,56.0,0,40,8.0,0.0
8742,59.0,0,40,7.0,0.0
8743,57.0,48,40,8.0,0.0
8744,60.0,0,40,7.0,0.0
8745,52.0,0,90,6.0,0.0
8746,71.0,0,40,5.0,0.0
8747,50.0,0,40,8.0,0.0
8748,62.0,24,40,7.0,0.0
8749,60.0,0,40,7.0,0.0
8750,69.0,24,20,5.0,0.0
8751,52.0,0,90,8.0,0.0
8752,40.0,12,90,6.0,0.0
8753,68.0,24,20,5.0,0.0
8754,59.0,0,40,7.0,0.0
8755,69.0,18,20,5.0,0.0
8756,68.0,6,15,5.0,0.0
8757,69.0,12,15,5.0,0.0
8758,40.0,0,90,8.0,0.0
8759,52.0,0,90,6.0,0.0
8760,64.0,0,90,7.0,0.0
8761,68.0,12,15,5.0,0.0
8762,69.0,12,15,5.0,0.0
8763,68.0,12,15,5.0,0.0
8764,69.0,12,15,5.0,0.0
8765,68.0,12,15,5.0,0.0
8766,69.0,12,15,5.0,0.0
8767,68.0,48,15,5.0,0.0
8768,45.0,30,150,8.0,0.0
8769,62.0,46,90,7.0,0.0
8770,45.0,48,40,6.0,0.0
8771,69.0,18,150,5.0,0.0
8772,48.0,2,40,6.0,0.0
8773,52.0,0,40,6.0,0.0
8774,60.0,0,90,7.0,0.0
8775,57.0,2,40,6.0,0.0
8776,76.0,46,40,5.0,0.0
8777,47.0,48,40,6.0,0.0
8778,77.0,48,90,5.0,0.0
8779,56.0,0,40,6.0,0.0
8780,48.0,0,40,6.0,0.0
8781,76.0,48,40,5.0,0.0
8782,52.0,0,40,6.0,0.0
8783,74.0,48,40,5.0,0.0
8784,72.0,46,40,5.0,0.0
8785,57.0,2,40,6.0,0.0
8786,56.0,2,40,6.0,0.0
8787,71.0,46,40,5.0,0.0
8788,72.0,46,40,5.0,0.0
8789,57.0,2,40,6.0,0.0
8790,69.0,48,40,5.0,0.0
8791,53.0,0,40,6.0,0.0
8792,62.0,0,150,7.0,0.0
8793,50.0,48,40,8.0,0.0
8794,77.0,48,630,5.0,0.0
8795,50.0,30,150,6.0,0.0
8796,53.0,48,40,8.0,0.0
8797,57.0,18,40,8.0,0.0
8798,69.0,46,40,7.0,0.0
8799,62.0,2,40,8.0,0.0
8800,52.0,48,40,8.0,0.0
8801,70.0,48,90,7.0,0.0
8802,61.0,0,40,8.0,0.0
8803,53.0,48,40,8.0,0.0
8804,69.0,0,40,7.0,0.0
8805,67.0,0,40,7.0,0.0
8806,57.0,50,40,8.0,0.0
8807,65.0,48,40,7.0,0.0
8808,62.0,0,40,8.0,0.0
8809,64.0,48,40,7.0,0.0
8810,61.0,0,40,8.0,0.0
8811,65.0,46,40,7.0,0.0
8812,62.0,0,40,8.0,0.0
8813,62.0,48,40,7.0,0.0
8814,59.0,0,40,8.0,0.0
8815,55.0,30,150,8.0,0.0
8816,71.0,48,330,7.0,0.0
8817,55.0,18,150,6.0,0.0
8818,76.0,48,40,5.0,0.0
8819,74.0,0,40,5.0,0.0
8820,77.0,0,40,5.0,0.0
8821,62.0,48,40,6.0,0.0
8822,64.0,48,90,6.0,0.0
8823,71.0,48,40,5.0,0.0
8824,69.0,0,40,5.0,0.0
8825,62.0,0,40,6.0,0.0
8826,71.0,0,40,5.0,0.0
8827,60.0,0,40,6.0,0.0
8828,74.0,48,40,5.0,0.0
8829,72.0,0,40,7.0,0.0
8830,59.0,48,40,6.0,0.0
8831,74.0,0,90,7.0,0.0
8832,79.0,0,90,5.0,0.0
8833,57.0,48,40,6.0,0.0
8834,67.0,0,150,7.0,0.0
8835,59.0,48,40,6.0,0.0
8836,77.0,0,90,5.0,0.0
8837,55.0,48,40,6.0,0.0
8838,76.0,48,40,5.0,0.0
8839,48.0,48,150,8.0,0.0
8840,60.0,0,630,6.0,0.0
8841,65.0,0,40,7.0,0.0
8842,74.0,48,40,5.0,0.0
8843,64.0,0,40,7.0,0.0
8844,72.0,0,40,5.0,0.0
8845,55.0,0,40,8.0,0.0
8846,72.0,48,40,7.0,0.0
8847,76.0,0,40,5.0,0.0
8848,72.0,0,40,5.0,0.0
8849,64.0,48,40,7.0,0.0
8850,57.0,48,90,8.0,0.0
8851,71.0,0,40,5.0,0.0
8852,62.0,0,40,7.0,0.0
8853,55.0,48,40,8.0,0.0
8854,64.0,0,40,7.0,0.0
8855,72.0,0,90,5.0,0.0
8856,53.0,0,40,8.0,0.0
8857,67.0,48,40,7.0,0.0
8858,72.0,0,90,7.0,0.0
8859,67.0,0,90,5.0,0.0
8860,52.0,48,40,8.0,0.0
8861,50.0,48,40,8.0,0.0
8862,52.0,48,40,8.0,0.0
8863,79.0,48,150,5.0,0.0
8864,70.0,0,90,7.0,0.0
8865,48.0,48,40,8.0,0.0
8866,53.0,0,390,8.0,0.0
8867,69.0,48,330,7.0,0.0
8868,77.0,48,40,5.0,0.0
8869,62.0,0,40,6.0,0.0
8870,60.0,48,40,6.0,0.0
8871,76.0,0,40,5.0,0.0
8872,74.0,0,40,5.0,0.0
8873,59.0,48,40,6.0,0.0
8874,60.0,0,40,6.0,0.0
8875,76.0,48,40,5.0,0.0
8876,65.0,48,40,6.0,0.0
8877,72.0,0,40,5.0,0.0
8878,74.0,48,330,5.0,0.0
8879,59.0,48,90,6.0,0.0
8880,67.0,0,40,7.0,0.0
8881,62.0,0,90,6.0,0.0
8882,47.0,48,90,8.0,0.0
8883,65.0,48,40,7.0,0.0
8884,74.0,0,40,7.0,0.0
8885,43.0,48,90,8.0,0.0
8886,67.0,48,40,7.0,0.0
8887,59.0,0,90,6.0,0.0
8888,65.0,0,40,7.0,0.0
8889,64.0,48,90,7.0,0.0
8890,55.0,0,90,6.0,0.0
8891,48.0,0,90,8.0,0.0
8892,72.0,0,40,5.0,0.0
8893,70.0,48,40,5.0,0.0
8894,52.0,0,90,8.0,0.0
8895,60.0,30,270,6.0,0.0
8896,76.0,18,240,7.0,0.0
8897,69.0,48,40,5.0,0.0
8898,70.0,48,40,5.0,0.0
8899,48.0,0,90,8.0,0.0
8900,67.0,48,40,5.0,0.0
8901,53.0,48,90,8.0,0.0
8902,69.0,48,330,5.0,0.0
8903,74.0,0,40,7.0,0.0
8904,65.0,0,40,6.0,0.0
8905,57.0,0,90,8.0,0.0
8906,72.0,48,40,7.0,0.0
8907,81.0,0,40,7.0,0.0
8908,64.0,48,40,6.0,0.0
8909,74.0,0,40,7.0,0.0
8910,53.0,0,90,8.0,0.0
8911,65.0,48,40,6.0,0.0
8912,72.0,48,40,7.0,0.0
8913,69.0,0,40,6.0,0.0
8914,71.0,0,90,7.0,0.0
8915,55.0,0,90,8.0,0.0
8916,62.0,0,40,5.0,0.0
8917,67.0,0,40,5.0,0.0
8918,64.0,48,40,5.0,0.0
8919,62.0,48,40,5.0,0.0
8920,57.0,48,90,8.0,0.0
8921,72.0,0,240,7.0,0.0
8922,65.0,0,40,5.0,0.0
8923,60.0,0,40,5.0,0.0
8924,64.0,0,40,5.0,0.0
8925,62.0,0,40,5.0,0.0
8926,65.0,48,40,5.0,0.0
8927,53.0,48,90,8.0,0.0
8928,59.0,0,40,5.0,0.0
8929,62.0,0,40,5.0,0.0
8930,55.0,0,90,8.0,0.0
8931,60.0,0,40,5.0,0.0
8932,64.0,48,40,5.0,0.0
8933,53.0,24,40,6.0,0.0
8934,74.0,0,40,7.0,0.0
8935,65.0,0,40,5.0,0.0
8936,43.0,0,90,8.0,0.0
8937,72.0,24,20,7.0,0.0
8938,55.0,12,90,6.0,0.0
8939,64.0,0,40,5.0,0.0
8940,71.0,24,20,7.0,0.0
8941,72.0,18,20,7.0,0.0
8942,62.0,0,40,5.0,0.0
8943,71.0,6,15,7.0,0.0
8944,72.0,12,15,7.0,0.0
8945,67.0,98,90,5.0,0.0
8946,55.0,0,90,8.0,0.0
8947,43.0,0,90,6.0,0.0
8948,71.0,12,15,7.0,0.0
8949,72.0,12,15,7.0,0.0
8950,71.0,12,15,7.0,0.0
8951,72.0,12,15,7.0,0.0
8952,71.0,12,15,7.0,0.0
8953,72.0,12,15,7.0,0.0
8954,71.0,0,15,7.0,0.0
8955,72.0,18,150,7.0,0.0
8956,48.0,0,150,6.0,0.0
8957,65.0,46,90,5.0,0.0
8958,48.0,30,150,8.0,0.0
8959,64.0,2,90,5.0,0.0
8960,79.0,94,40,7.0,0.0
8961,81.0,48,90,7.0,0.0
8962,79.0,48,40,7.0,0.0
8963,77.0,50,40,7.0,0.0
8964,76.0,48,40,7.0,0.0
8965,74.0,48,40,7.0,0.0
8966,76.0,46,40,7.0,0.0
8967,72.0,144,40,7.0,0.0
8968,71.0,32,150,7.0,0.0
8969,43.0,18,150,8.0,0.0
8970,55.0,94,40,8.0,0.0
8971,72.0,48,90,7.0,0.0
8972,57.0,0,90,8.0,0.0
8973,55.0,48,40,8.0,0.0
8974,74.0,50,90,7.0,0.0
8975,53.0,0,40,8.0,0.0
8976,52.0,46,40,8.0,0.0
8977,67.0,2,90,7.0,0.0
8978,50.0,48,40,8.0,0.0
8979,72.0,48,90,7.0,0.0
8980,52.0,46,40,8.0,0.0
8981,48.0,0,40,8.0,0.0
8982,47.0,30,150,8.0,0.0
8983,65.0,48,40,7.0,0.0
8984,67.0,48,40,7.0,0.0
8985,69.0,18,40,7.0,0.0
8986,67.0,96,40,7.0,0.0
8987,69.0,48,150,7.0,0.0
8988,48.0,48,90,8.0,0.0
8989,50.0,0,90,8.0,0.0
8990,67.0,48,40,7.0,0.0
8991,65.0,48,40,7.0,0.0
8992,48.0,48,90,8.0,0.0
8993,74.0,0,40,7.0,0.0
8994,47.0,0,90,8.0,0.0
8995,67.0,48,40,7.0,0.0
8996,65.0,96,40,7.0,0.0
8997,72.0,18,150,5.0,0.0
8998,48.0,48,90,8.0,0.0
8999,64.0,24,240,7.0,0.0
9000,48.0,30,150,6.0,0.0
9001,60.0,2,90,8.0,0.0
9002,79.0,46,40,5.0,0.0
9003,61.0,48,90,8.0,0.0
9004,82.0,0,90,5.0,0.0
9005,65.0,24,20,7.0,0.0
9006,67.0,0,20,7.0,0.0
9007,81.0,0,40,5.0,0.0
9008,65.0,48,40,7.0,0.0
9009,62.0,0,90,8.0,0.0
9010,79.0,0,40,5.0,0.0
9011,67.0,24,40,7.0,0.0
9012,77.0,22,40,5.0,0.0
9013,60.0,0,90,8.0,0.0
9014,69.0,24,20,7.0,0.0
9015,67.0,2,20,7.0,0.0
9016,76.0,22,40,5.0,0.0
9017,69.0,24,20,7.0,0.0
9018,67.0,2,20,7.0,0.0
9019,77.0,22,40,5.0,0.0
9020,69.0,24,20,7.0,0.0
9021,58.0,144,90,8.0,0.0
9022,67.0,2,20,7.0,0.0
9023,65.0,24,20,7.0,0.0
9024,74.0,0,40,5.0,0.0
9025,67.0,0,20,7.0,0.0
9026,45.0,18,150,6.0,0.0
9027,57.0,32,150,8.0,0.0
9028,69.0,0,150,7.0,0.0
9029,73.0,0,150,5.0,0.0
9030,57.0,94,40,6.0,0.0
9031,58.0,48,90,6.0,0.0
9032,74.0,0,90,5.0,0.0
9033,76.0,50,90,5.0,0.0
9034,57.0,48,40,6.0,0.0
9035,55.0,0,40,6.0,0.0
9036,69.0,2,90,5.0,0.0
9037,53.0,46,40,6.0,0.0
9038,52.0,48,40,6.0,0.0
9039,53.0,46,40,6.0,0.0
9040,74.0,48,90,5.0,0.0
9041,50.0,0,40,6.0,0.0
9042,49.0,30,150,6.0,0.0
9043,67.0,48,40,5.0,0.0
9044,69.0,48,40,5.0,0.0
9045,70.0,18,40,5.0,0.0
9046,69.0,96,40,5.0,0.0
9047,50.0,48,90,6.0,0.0
9048,70.0,48,150,5.0,0.0
9049,52.0,0,90,6.0,0.0
9050,69.0,48,40,5.0,0.0
9051,67.0,48,40,5.0,0.0
9052,50.0,0,90,6.0,0.0
9053,76.0,48,40,5.0,0.0
9054,49.0,96,90,6.0,0.0
9055,69.0,48,40,5.0,0.0
9056,67.0,0,40,5.0,0.0
9057,65.0,30,150,5.0,0.0
9058,50.0,66,90,6.0,0.0
9059,38.0,96,90,6.0,0.0
9060,45.0,0,90,6.0,0.0
9061,49.0,0,90,8.0,0.0
9062,64.0,48,90,5.0,0.0
9063,50.0,0,90,6.0,0.0
9064,65.0,0,40,5.0,0.0
9065,50.0,48,40,8.0,0.0
9066,67.0,0,40,5.0,0.0
9067,45.0,24,40,8.0,0.0
9068,50.0,0,40,8.0,0.0
9069,69.0,24,20,5.0,0.0
9070,48.0,0,90,6.0,0.0
9071,67.0,24,20,5.0,0.0
9072,53.0,24,40,8.0,0.0
9073,69.0,24,20,5.0,0.0
9074,67.0,0,20,5.0,0.0
9075,46.0,0,90,6.0,0.0
9076,74.0,48,180,7.0,0.0
9077,69.0,24,20,5.0,0.0
9078,52.0,0,40,8.0,0.0
9079,67.0,24,20,5.0,0.0
9080,65.0,24,20,5.0,0.0
9081,50.0,0,40,8.0,0.0
9082,67.0,48,20,5.0,0.0
9083,45.0,0,90,6.0,0.0
9084,52.0,48,40,8.0,0.0
9085,69.0,0,660,5.0,0.0
9086,45.0,0,40,8.0,0.0
9087,52.0,48,40,8.0,0.0
9088,72.0,0,40,7.0,0.0
9089,48.0,48,90,6.0,0.0
9090,55.0,0,40,8.0,0.0
9091,70.0,0,40,7.0,0.0
9092,45.0,48,90,6.0,0.0
9093,54.0,48,40,8.0,0.0
9094,72.0,30,150,7.0,0.0
9095,52.0,0,40,8.0,0.0
9096,54.0,0,40,8.0,0.0
9097,50.0,18,40,6.0,0.0
9098,45.0,48,40,6.0,0.0
9099,50.0,0,40,8.0,0.0
9100,69.0,0,90,7.0,0.0
9101,50.0,48,40,6.0,0.0
9102,54.0,0,40,8.0,0.0
9103,54.0,48,40,6.0,0.0
9104,57.0,0,40,8.0,0.0
9105,55.0,0,40,8.0,0.0
9106,52.0,48,40,6.0,0.0
9107,74.0,48,90,7.0,0.0
9108,50.0,0,40,6.0,0.0
9109,54.0,0,40,8.0,0.0
9110,55.0,0,40,8.0,0.0
9111,55.0,48,40,6.0,0.0
9112,70.0,30,150,7.0,0.0
9113,57.0,48,40,8.0,0.0
9114,50.0,0,40,6.0,0.0
9115,55.0,0,40,6.0,0.0
9116,67.0,18,40,5.0,0.0
9117,58.0,0,40,8.0,0.0
9118,65.0,0,40,5.0,0.0
9119,62.0,0,40,8.0,0.0
9120,58.0,48,40,6.0,0.0
9121,57.0,0,40,6.0,0.0
9122,67.0,30,150,5.0,0.0
9123,61.0,48,40,8.0,0.0
9124,55.0,48,40,6.0,0.0
9125,59.0,0,40,8.0,0.0
9126,61.0,0,40,8.0,0.0
9127,57.0,18,40,6.0,0.0
9128,52.0,0,40,6.0,0.0
9129,59.0,48,40,8.0,0.0
9130,64.0,48,90,5.0,0.0
9131,61.0,48,40,8.0,0.0
9132,57.0,0,40,6.0,0.0
9133,61.0,0,40,6.0,0.0
9134,64.0,0,40,8.0,0.0
9135,76.0,0,180,7.0,0.0
9136,59.0,0,40,6.0,0.0
9137,69.0,0,90,5.0,0.0
9138,62.0,48,40,8.0,0.0
9139,57.0,48,40,6.0,0.0
9140,61.0,0,40,8.0,0.0
9141,62.0,48,40,6.0,0.0
9142,62.0,2,90,8.0,0.0
9143,65.0,2,150,5.0,0.0
9144,58.0,46,40,6.0,0.0
9145,57.0,46,40,6.0,0.0
9146,50.0,0,90,8.0,0.0
9147,74.0,0,40,7.0,0.0
9148,72.0,0,40,7.0,0.0
9149,55.0,46,40,6.0,0.0
9150,64.0,2,40,5.0,0.0
9151,74.0,30,150,7.0,0.0
9152,62.0,2,40,5.0,0.0
9153,48.0,0,90,8.0,0.0
9154,53.0,46,40,6.0,0.0
9155,64.0,0,40,5.0,0.0
9156,52.0,48,40,6.0,0.0
9157,66.0,18,40,5.0,0.0
9158,50.0,0,40,6.0,0.0
9159,47.0,0,90,8.0,0.0
9160,68.0,24,40,5.0,0.0
9161,47.0,0,40,6.0,0.0
9162,52.0,0,90,8.0,0.0
9163,52.0,24,40,6.0,0.0
9164,71.0,0,90,7.0,0.0
9165,69.0,24,20,5.0,0.0
9166,68.0,0,20,5.0,0.0
9167,50.0,0,40,6.0,0.0
9168,69.0,24,20,5.0,0.0
9169,68.0,24,20,5.0,0.0
9170,48.0,0,40,6.0,0.0
9171,76.0,0,90,7.0,0.0
9172,40.0,0,90,8.0,0.0
9173,69.0,24,20,5.0,0.0
9174,68.0,24,20,5.0,0.0
9175,66.0,24,20,5.0,0.0
9176,47.0,0,40,6.0,0.0
9177,68.0,48,20,5.0,0.0
9178,72.0,30,150,7.0,0.0
9179,69.0,18,150,5.0,0.0
9180,45.0,48,90,8.0,0.0
9181,45.0,48,40,6.0,0.0
9182,48.0,0,40,6.0,0.0
9183,57.0,2,90,8.0,0.0
9184,52.0,0,40,6.0,0.0
9185,76.0,46,40,5.0,0.0
9186,57.0,0,40,6.0,0.0
9187,50.0,48,40,6.0,0.0
9188,77.0,0,90,5.0,0.0
9189,71.0,0,90,7.0,0.0
9190,56.0,48,90,8.0,0.0
9191,56.0,0,40,6.0,0.0
9192,57.0,24,90,8.0,0.0
9193,72.0,0,40,7.0,0.0
9194,76.0,48,40,5.0,0.0
9195,48.0,0,40,6.0,0.0
9196,74.0,0,40,5.0,0.0
9197,74.0,0,40,7.0,0.0
9198,59.0,0,40,6.0,0.0
9199,57.0,2,40,6.0,0.0
9200,76.0,24,20,7.0,0.0
9201,55.0,0,90,8.0,0.0
9202,72.0,22,40,5.0,0.0
9203,74.0,0,20,7.0,0.0
9204,56.0,2,40,6.0,0.0
9205,71.0,22,40,5.0,0.0
9206,76.0,24,20,7.0,0.0
9207,74.0,0,20,7.0,0.0
9208,76.0,24,20,7.0,0.0
9209,72.0,22,40,5.0,0.0
9210,53.0,0,90,8.0,0.0
9211,57.0,0,40,6.0,0.0
9212,74.0,2,20,7.0,0.0
9213,72.0,24,20,7.0,0.0
9214,69.0,0,40,5.0,0.0
9215,62.0,0,40,6.0,0.0
9216,74.0,48,20,7.0,0.0
9217,52.0,0,150,8.0,0.0
9218,68.0,30,150,5.0,0.0
9219,76.0,0,150,7.0,0.0
9220,59.0,48,40,6.0,0.0
9221,64.0,48,40,6.0,0.0
9222,63.0,18,40,6.0,0.0
9223,64.0,2,40,6.0,0.0
9224,83.0,46,40,7.0,0.0
9225,84.0,0,90,7.0,0.0
9226,69.0,48,90,5.0,0.0
9227,63.0,48,40,6.0,0.0
9228,64.0,0,40,6.0,0.0
9229,83.0,48,40,7.0,0.0
9230,71.0,0,90,5.0,0.0
9231,52.0,50,90,6.0,0.0
9232,81.0,0,40,7.0,0.0
9233,55.0,0,90,6.0,0.0
9234,79.0,46,40,7.0,0.0
9235,64.0,2,90,5.0,0.0
9236,78.0,48,40,7.0,0.0
9237,60.0,0,90,6.0,0.0
9238,79.0,46,40,7.0,0.0
9239,76.0,96,40,7.0,0.0
9240,47.0,18,150,8.0,0.0
9241,59.0,48,90,6.0,0.0
9242,75.0,30,150,7.0,0.0
9243,47.0,2,90,6.0,0.0
9244,59.0,94,40,8.0,0.0
9245,76.0,0,90,7.0,0.0
9246,60.0,48,90,8.0,0.0
9247,59.0,48,40,8.0,0.0
9248,78.0,0,90,7.0,0.0
9249,57.0,50,40,8.0,0.0
9250,71.0,2,90,7.0,0.0
9251,55.0,46,40,8.0,0.0
9252,54.0,48,40,8.0,0.0
9253,55.0,46,40,8.0,0.0
9254,76.0,48,90,7.0,0.0
9255,52.0,0,40,8.0,0.0
9256,69.0,48,40,7.0,0.0
9257,51.0,30,150,8.0,0.0
9258,71.0,48,40,7.0,0.0
9259,72.0,18,40,7.0,0.0
9260,71.0,96,40,7.0,0.0
9261,72.0,48,150,7.0,0.0
9262,52.0,48,90,8.0,0.0
9263,54.0,0,90,8.0,0.0
9264,71.0,48,40,7.0,0.0
9265,52.0,0,90,8.0,0.0
9266,69.0,48,40,7.0,0.0
9267,78.0,48,40,7.0,0.0
9268,71.0,48,40,7.0,0.0
9269,51.0,96,90,8.0,0.0
9270,69.0,0,40,7.0,0.0
9271,52.0,48,90,8.0,0.0
9272,76.0,18,150,5.0,0.0
9273,67.0,30,150,7.0,0.0
9274,52.0,0,150,6.0,0.0
9275,40.0,2,90,8.0,0.0
9276,83.0,94,40,5.0,0.0
9277,51.0,0,90,8.0,0.0
9278,66.0,48,90,7.0,0.0
9279,84.0,0,90,5.0,0.0
9280,52.0,24,90,8.0,0.0
9281,67.0,0,40,7.0,0.0
9282,83.0,48,40,5.0,0.0
9283,81.0,0,40,5.0,0.0
9284,69.0,0,40,7.0,0.0
9285,79.0,22,40,5.0,0.0
9286,50.0,0,90,8.0,0.0
9287,71.0,24,20,7.0,0.0
9288,69.0,2,20,7.0,0.0
9289,71.0,24,20,7.0,0.0
9290,78.0,22,40,5.0,0.0
9291,69.0,2,20,7.0,0.0
9292,79.0,22,40,5.0,0.0
9293,71.0,24,20,7.0,0.0
9294,48.0,0,90,8.0,0.0
9295,69.0,2,20,7.0,0.0
9296,76.0,0,40,5.0,0.0
9297,67.0,24,20,7.0,0.0
9298,69.0,144,20,7.0,0.0
9299,47.0,32,150,8.0,0.0
9300,71.0,0,150,7.0,0.0
9301,47.0,18,150,6.0,0.0
9302,75.0,0,150,5.0,0.0
9303,59.0,94,40,6.0,0.0
9304,60.0,0,90,6.0,0.0
9305,76.0,48,90,5.0,0.0
9306,78.0,0,90,5.0,0.0
9307,59.0,48,40,6.0,0.0
9308,57.0,50,40,6.0,0.0
9309,55.0,46,40,6.0,0.0
9310,71.0,2,90,5.0,0.0
9311,54.0,48,40,6.0,0.0
9312,55.0,46,40,6.0,0.0
9313,76.0,0,90,5.0,0.0
9314,52.0,48,40,6.0,0.0
9315,51.0,30,150,6.0,0.0
9316,69.0,48,40,5.0,0.0
9317,71.0,48,40,5.0,0.0
9318,72.0,18,40,5.0,0.0
9319,71.0,96,40,5.0,0.0
9320,52.0,48,90,6.0,0.0
9321,72.0,48,150,5.0,0.0
9322,54.0,0,90,6.0,0.0
9323,71.0,48,40,5.0,0.0
9324,69.0,48,40,5.0,0.0
9325,52.0,48,90,6.0,0.0
9326,78.0,0,40,5.0,0.0
9327,71.0,48,40,5.0,0.0
9328,51.0,96,90,6.0,0.0
9329,69.0,0,40,5.0,0.0
9330,52.0,66,90,6.0,0.0
9331,67.0,30,150,5.0,0.0
9332,40.0,96,90,6.0,0.0
9333,51.0,0,90,6.0,0.0
9334,51.0,48,90,8.0,0.0
9335,66.0,0,90,5.0,0.0
9336,52.0,0,40,8.0,0.0
9337,67.0,48,40,5.0,0.0
9338,52.0,0,90,6.0,0.0
9339,47.0,24,40,8.0,0.0
9340,69.0,0,40,5.0,0.0
9341,71.0,24,20,5.0,0.0
9342,50.0,0,90,6.0,0.0
9343,52.0,24,40,8.0,0.0
9344,69.0,0,20,5.0,0.0
9345,71.0,24,20,5.0,0.0
9346,55.0,24,40,8.0,0.0
9347,69.0,0,20,5.0,0.0
9348,54.0,0,40,8.0,0.0
9349,71.0,24,20,5.0,0.0
9350,76.0,48,180,7.0,0.0
9351,48.0,0,90,6.0,0.0
9352,69.0,24,20,5.0,0.0
9353,52.0,48,40,8.0,0.0
9354,67.0,24,20,5.0,0.0
9355,69.0,0,20,5.0,0.0
9356,47.0,0,90,6.0,0.0
9357,71.0,30,270,5.0,0.0
9358,54.0,48,40,8.0,0.0
9359,47.0,0,40,8.0,0.0
9360,74.0,0,40,7.0,0.0
9361,50.0,0,90,6.0,0.0
9362,54.0,48,40,8.0,0.0
9363,57.0,48,40,8.0,0.0
9364,72.0,0,40,7.0,0.0
9365,74.0,0,180,7.0,0.0
9366,47.0,0,90,6.0,0.0
9367,56.0,18,40,8.0,0.0
9368,54.0,48,40,8.0,0.0
9369,83.0,0,330,5.0,0.0
9370,56.0,48,40,8.0,0.0
9371,52.0,30,150,6.0,0.0
9372,52.0,48,40,8.0,0.0
9373,56.0,18,40,8.0,0.0
9374,71.0,48,90,7.0,0.0
9375,59.0,0,40,8.0,0.0
9376,76.0,0,90,7.0,0.0
9377,40.0,48,90,6.0,0.0
9378,57.0,48,40,8.0,0.0
9379,56.0,0,40,8.0,0.0
9380,72.0,48,330,7.0,0.0
9381,57.0,48,40,8.0,0.0
9382,45.0,0,90,6.0,0.0
9383,53.0,48,40,8.0,0.0
9384,81.0,0,40,5.0,0.0
9385,79.0,0,40,5.0,0.0
9386,48.0,48,90,6.0,0.0
9387,52.0,48,40,8.0,0.0
9388,78.0,0,40,5.0,0.0
9389,50.0,0,40,8.0,0.0
9390,52.0,0,40,8.0,0.0
9391,45.0,0,90,6.0,0.0
9392,79.0,48,40,5.0,0.0
9393,57.0,0,40,8.0,0.0
9394,76.0,48,40,5.0,0.0
9395,51.0,0,90,6.0,0.0
9396,47.0,0,90,8.0,0.0
9397,71.0,48,40,7.0,0.0
9398,54.0,0,90,6.0,0.0
9399,51.0,0,90,8.0,0.0
9400,69.0,48,40,7.0,0.0
9401,78.0,48,40,7.0,0.0
9402,51.0,0,90,6.0,0.0
9403,47.0,48,90,8.0,0.0
9404,71.0,48,40,7.0,0.0
9405,69.0,0,40,7.0,0.0
9406,67.0,18,330,7.0,0.0
9407,40.0,0,90,8.0,0.0
9408,47.0,0,90,6.0,0.0
9409,76.0,48,40,5.0,0.0
9410,74.0,48,40,5.0,0.0
9411,52.0,30,270,6.0,0.0
9412,43.0,48,90,8.0,0.0
9413,72.0,0,40,5.0,0.0
9414,40.0,0,90,8.0,0.0
9415,74.0,48,40,5.0,0.0
9416,71.0,48,40,5.0,0.0
9417,72.0,48,330,5.0,0.0
9418,45.0,0,90,8.0,0.0
9419,66.0,48,40,7.0,0.0
9420,48.0,0,90,8.0,0.0
9421,57.0,0,40,6.0,0.0
9422,64.0,48,40,7.0,0.0
9423,55.0,48,40,6.0,0.0
9424,72.0,0,40,7.0,0.0
9425,65.0,0,40,7.0,0.0
9426,45.0,48,90,8.0,0.0
9427,57.0,48,40,6.0,0.0
9428,60.0,0,40,6.0,0.0
9429,64.0,0,40,7.0,0.0
9430,63.0,48,90,7.0,0.0
9431,54.0,0,40,6.0,0.0
9432,47.0,0,90,8.0,0.0
9433,55.0,0,40,6.0,0.0
9434,71.0,0,40,5.0,0.0
9435,48.0,0,90,8.0,0.0
9436,64.0,0,240,7.0,0.0
9437,69.0,48,40,5.0,0.0
9438,54.0,0,40,6.0,0.0
9439,67.0,0,40,5.0,0.0
9440,52.0,48,40,6.0,0.0
9441,45.0,0,90,8.0,0.0
9442,54.0,48,40,6.0,0.0
9443,69.0,0,40,5.0,0.0
9444,51.0,0,40,6.0,0.0
9445,66.0,48,40,5.0,0.0
9446,52.0,48,40,6.0,0.0
9447,67.0,0,40,5.0,0.0
9448,47.0,0,90,8.0,0.0
9449,69.0,0,40,5.0,0.0
9450,66.0,0,40,7.0,0.0
9451,57.0,24,40,6.0,0.0
9452,67.0,0,40,5.0,0.0
9453,64.0,24,20,7.0,0.0
9454,45.0,6,90,8.0,0.0
9455,59.0,0,90,6.0,0.0
9456,63.0,18,20,7.0,0.0
9457,66.0,0,40,5.0,0.0
9458,64.0,18,15,7.0,0.0
9459,63.0,12,15,7.0,0.0
9460,64.0,18,15,7.0,0.0
9461,71.0,48,90,5.0,0.0
9462,47.0,0,90,8.0,0.0
9463,47.0,0,90,6.0,0.0
9464,63.0,12,15,7.0,0.0
9465,64.0,12,15,7.0,0.0
9466,63.0,12,15,7.0,0.0
9467,64.0,12,15,7.0,0.0
9468,63.0,12,15,7.0,0.0
9469,64.0,12,15,7.0,0.0
9470,63.0,0,15,7.0,0.0
9471,40.0,48,40,8.0,0.0
9472,69.0,46,90,5.0,0.0
9473,52.0,30,150,6.0,0.0
9474,64.0,0,150,7.0,0.0
9475,43.0,2,40,8.0,0.0
9476,47.0,18,40,8.0,0.0
9477,67.0,0,90,5.0,0.0
9478,52.0,2,40,8.0,0.0
9479,71.0,46,40,7.0,0.0
9480,42.0,48,40,8.0,0.0
9481,72.0,0,90,7.0,0.0
9482,51.0,48,40,8.0,0.0
9483,71.0,0,40,7.0,0.0
9484,43.0,48,40,8.0,0.0
9485,47.0,0,40,8.0,0.0
9486,69.0,48,40,7.0,0.0
9487,52.0,48,40,8.0,0.0
9488,67.0,0,40,7.0,0.0
9489,66.0,0,40,7.0,0.0
9490,51.0,48,40,8.0,0.0
9491,67.0,0,40,7.0,0.0
9492,52.0,48,40,8.0,0.0
9493,48.0,0,40,8.0,0.0
9494,64.0,48,40,7.0,0.0
9495,69.0,18,150,5.0,0.0
9496,45.0,48,40,6.0,0.0
9497,45.0,30,150,8.0,0.0
9498,72.0,48,630,7.0,0.0
9499,48.0,48,40,6.0,0.0
9500,52.0,0,40,6.0,0.0
9501,76.0,46,40,5.0,0.0
9502,57.0,2,40,6.0,0.0
9503,47.0,48,40,6.0,0.0
9504,77.0,0,90,5.0,0.0
9505,56.0,48,40,6.0,0.0
9506,48.0,0,40,6.0,0.0
9507,76.0,48,40,5.0,0.0
9508,52.0,0,40,6.0,0.0
9509,74.0,50,40,5.0,0.0
9510,72.0,48,40,5.0,0.0
9511,57.0,0,40,6.0,0.0
9512,56.0,48,40,6.0,0.0
9513,71.0,0,40,5.0,0.0
9514,72.0,0,40,5.0,0.0
9515,57.0,46,40,6.0,0.0
9516,53.0,48,40,6.0,0.0
9517,69.0,0,40,5.0,0.0
9518,77.0,0,330,5.0,0.0
9519,50.0,30,150,6.0,0.0
9520,50.0,18,150,8.0,0.0
9521,71.0,48,40,7.0,0.0
9522,69.0,0,40,7.0,0.0
9523,72.0,2,40,7.0,0.0
9524,57.0,46,40,8.0,0.0
9525,58.0,48,90,8.0,0.0
9526,65.0,48,40,7.0,0.0
9527,64.0,0,40,7.0,0.0
9528,65.0,0,40,7.0,0.0
9529,57.0,48,40,8.0,0.0
9530,79.0,0,40,5.0,0.0
9531,69.0,0,40,7.0,0.0
9532,55.0,48,40,8.0,0.0
9533,53.0,48,40,8.0,0.0
9534,81.0,48,90,5.0,0.0
9535,74.0,0,90,7.0,0.0
9536,52.0,0,40,8.0,0.0
9537,53.0,48,40,8.0,0.0
9538,74.0,0,150,5.0,0.0
9539,72.0,0,90,7.0,0.0
9540,50.0,48,40,8.0,0.0
9541,55.0,48,630,8.0,0.0
9542,43.0,0,150,6.0,0.0
9543,71.0,48,40,7.0,0.0
9544,72.0,0,40,5.0,0.0
9545,69.0,48,40,7.0,0.0
9546,67.0,0,40,7.0,0.0
9547,71.0,48,40,5.0,0.0
9548,71.0,0,40,7.0,0.0
9549,50.0,46,40,6.0,0.0
9550,79.0,2,40,5.0,0.0
9551,67.0,48,40,7.0,0.0
9552,71.0,0,40,5.0,0.0
9553,52.0,48,90,6.0,0.0
9554,69.0,0,40,5.0,0.0
9555,66.0,0,40,7.0,0.0
9556,50.0,48,40,6.0,0.0
9557,67.0,0,90,7.0,0.0
9558,71.0,0,40,5.0,0.0
9559,74.0,0,40,5.0,0.0
9560,48.0,50,40,6.0,0.0
9561,79.0,2,90,5.0,0.0
9562,62.0,0,90,7.0,0.0
9563,47.0,46,40,6.0,0.0
9564,45.0,48,40,6.0,0.0
9565,74.0,0,150,7.0,0.0
9566,77.0,0,90,5.0,0.0
9567,47.0,46,40,6.0,0.0
9568,43.0,48,40,6.0,0.0
9569,76.0,48,330,5.0,0.0
9570,48.0,48,390,6.0,0.0
9571,57.0,48,40,8.0,0.0
9572,72.0,0,40,7.0,0.0
9573,55.0,0,40,8.0,0.0
9574,71.0,48,40,7.0,0.0
9575,54.0,0,40,8.0,0.0
9576,69.0,48,40,7.0,0.0
9577,55.0,48,40,8.0,0.0
9578,71.0,0,40,7.0,0.0
9579,60.0,48,40,8.0,0.0
9580,67.0,0,40,7.0,0.0
9581,69.0,48,330,7.0,0.0
9582,54.0,0,90,8.0,0.0
9583,74.0,0,40,5.0,0.0
9584,72.0,48,40,5.0,0.0
9585,42.0,48,90,6.0,0.0
9586,57.0,0,90,8.0,0.0
9587,81.0,0,40,5.0,0.0
9588,74.0,48,40,5.0,0.0
9589,38.0,0,90,6.0,0.0
9590,54.0,0,90,8.0,0.0
9591,72.0,48,40,5.0,0.0
9592,43.0,0,90,6.0,0.0
9593,50.0,0,90,8.0,0.0
9594,71.0,48,330,5.0,0.0
9595,67.0,48,40,7.0,0.0
9596,65.0,48,40,7.0,0.0
9597,55.0,0,300,8.0,0.0
9598,47.0,48,90,6.0,0.0
9599,64.0,0,40,7.0,0.0
9600,65.0,48,40,7.0,0.0
9601,43.0,48,90,6.0,0.0
9602,62.0,0,40,7.0,0.0
9603,64.0,48,330,7.0,0.0
9604,48.0,48,90,6.0,0.0
9605,69.0,0,40,5.0,0.0
9606,67.0,48,40,5.0,0.0
9607,48.0,0,40,8.0,0.0
9608,52.0,0,90,6.0,0.0
9609,47.0,48,40,8.0,0.0
9610,76.0,0,40,5.0,0.0
9611,48.0,0,40,8.0,0.0
9612,69.0,48,40,5.0,0.0
9613,48.0,0,90,6.0,0.0
9614,67.0,48,40,5.0,0.0
9615,52.0,0,40,8.0,0.0
9616,57.0,0,40,8.0,0.0
9617,66.0,0,90,5.0,0.0
9618,50.0,0,90,6.0,0.0
9619,62.0,48,40,7.0,0.0
9620,59.0,0,40,8.0,0.0
9621,60.0,48,40,7.0,0.0
9622,67.0,0,240,5.0,0.0
9623,57.0,0,40,8.0,0.0
9624,52.0,0,90,6.0,0.0
9625,59.0,0,40,7.0,0.0
9626,55.0,48,40,8.0,0.0
9627,57.0,0,40,8.0,0.0
9628,48.0,48,90,6.0,0.0
9629,60.0,48,40,7.0,0.0
9630,54.0,0,40,8.0,0.0
9631,57.0,0,40,7.0,0.0
9632,55.0,48,40,8.0,0.0
9633,50.0,0,90,6.0,0.0
9634,59.0,0,40,7.0,0.0
9635,60.0,24,40,7.0,0.0
9636,48.0,0,40,8.0,0.0
9637,69.0,0,40,5.0,0.0
9638,38.0,0,90,6.0,0.0
9639,50.0,0,90,8.0,0.0
9640,59.0,0,40,7.0,0.0
9641,67.0,24,20,5.0,0.0
9642,66.0,18,20,5.0,0.0
9643,67.0,18,15,5.0,0.0
9644,57.0,6,40,7.0,0.0
9645,66.0,12,15,5.0,0.0
9646,67.0,18,15,5.0,0.0
9647,38.0,0,90,8.0,0.0
9648,50.0,0,90,6.0,0.0
9649,62.0,0,90,7.0,0.0
9650,66.0,12,15,5.0,0.0
9651,67.0,12,15,5.0,0.0
9652,66.0,12,15,5.0,0.0
9653,67.0,12,15,5.0,0.0
9654,66.0,12,15,5.0,0.0
9655,67.0,12,15,5.0,0.0
9656,66.0,48,15,5.0,0.0
9657,67.0,0,150,5.0,0.0
9658,55.0,48,40,6.0,0.0
9659,43.0,0,150,8.0,0.0
9660,59.0,30,150,7.0,0.0
9661,50.0,48,40,6.0,0.0
9662,55.0,18,40,6.0,0.0
9663,59.0,48,40,6.0,0.0
9664,57.0,48,40,6.0,0.0
9665,79.0,30,150,5.0,0.0
9666,55.0,48,40,6.0,0.0
9667,57.0,18,40,6.0,0.0
9668,50.0,48,40,6.0,0.0
9669,57.0,0,40,6.0,0.0
9670,77.0,48,40,5.0,0.0
9671,76.0,0,40,5.0,0.0
9672,60.0,48,40,6.0,0.0
9673,50.0,0,90,8.0,0.0
9674,77.0,0,180,5.0,0.0
9675,59.0,48,40,6.0,0.0
9676,57.0,48,40,6.0,0.0
9677,62.0,0,40,8.0,0.0
9678,59.0,48,40,6.0,0.0
9679,55.0,0,40,8.0,0.0
9680,55.0,48,40,6.0,0.0
9681,62.0,48,40,8.0,0.0
9682,74.0,0,90,5.0,0.0
9683,59.0,0,40,6.0,0.0
9684,65.0,0,40,8.0,0.0
9685,62.0,48,40,6.0,0.0
9686,64.0,0,40,8.0,0.0
9687,60.0,48,40,6.0,0.0
9688,74.0,30,150,7.0,0.0
9689,79.0,0,90,5.0,0.0
9690,59.0,48,40,6.0,0.0
9691,62.0,0,40,8.0,0.0
9692,64.0,0,40,8.0,0.0
9693,76.0,30,150,5.0,0.0
9694,60.0,18,40,6.0,0.0
9695,60.0,48,40,8.0,0.0
9696,55.0,0,40,6.0,0.0
9697,64.0,18,40,8.0,0.0
9698,60.0,0,40,6.0,0.0
9699,72.0,0,40,7.0,0.0
9700,71.0,0,40,7.0,0.0
9701,64.0,0,40,6.0,0.0
9702,67.0,48,40,8.0,0.0
9703,66.0,0,40,8.0,0.0
9704,72.0,0,180,7.0,0.0
9705,62.0,48,40,6.0,0.0
9706,64.0,48,40,8.0,0.0
9707,60.0,0,40,6.0,0.0
9708,66.0,0,40,8.0,0.0
9709,62.0,48,40,6.0,0.0
9710,62.0,48,40,8.0,0.0
9711,57.0,0,40,6.0,0.0
9712,62.0,0,40,6.0,0.0
9713,69.0,0,90,7.0,0.0
9714,66.0,48,40,8.0,0.0
9715,69.0,0,40,8.0,0.0
9716,66.0,48,40,6.0,0.0
9717,74.0,0,90,7.0,0.0
9718,64.0,0,40,6.0,0.0
9719,67.0,48,40,8.0,0.0
9720,81.0,30,150,5.0,0.0
9721,62.0,0,40,6.0,0.0
9722,66.0,48,40,8.0,0.0
9723,67.0,0,90,8.0,0.0
9724,71.0,30,150,7.0,0.0
9725,67.0,18,40,6.0,0.0
9726,62.0,48,40,6.0,0.0
9727,79.0,0,40,5.0,0.0
9728,55.0,0,90,8.0,0.0
9729,67.0,18,40,6.0,0.0
9730,70.0,48,40,6.0,0.0
9731,77.0,0,40,5.0,0.0
9732,79.0,0,180,5.0,0.0
9733,69.0,48,40,6.0,0.0
9734,67.0,48,40,6.0,0.0
9735,69.0,48,40,6.0,0.0
9736,64.0,48,40,6.0,0.0
9737,69.0,48,40,6.0,0.0
9738,76.0,48,90,5.0,0.0
9739,73.0,0,40,6.0,0.0
9740,81.0,48,90,5.0,0.0
9741,49.0,0,90,8.0,0.0
9742,76.0,30,150,7.0,0.0
9743,71.0,48,40,6.0,0.0
9744,69.0,0,40,6.0,0.0
9745,77.0,30,150,5.0,0.0
9746,74.0,0,90,6.0,0.0
9747,50.0,18,40,8.0,0.0
9748,45.0,48,40,8.0,0.0
9749,62.0,0,90,6.0,0.0
9750,50.0,18,40,8.0,0.0
9751,74.0,0,40,7.0,0.0
9752,72.0,48,40,7.0,0.0
9753,53.0,0,40,8.0,0.0
9754,74.0,48,180,7.0,0.0
9755,52.0,48,40,8.0,0.0
9756,50.0,48,40,8.0,0.0
9757,52.0,48,40,8.0,0.0
9758,47.0,0,40,8.0,0.0
9759,71.0,0,90,7.0,0.0
9760,52.0,48,40,8.0,0.0
9761,59.0,0,40,6.0,0.0
9762,56.0,48,40,8.0,0.0
9763,83.0,30,150,5.0,0.0
9764,54.0,0,40,8.0,0.0
9765,57.0,48,40,6.0,0.0
9766,76.0,48,90,7.0,0.0
9767,52.0,0,40,8.0,0.0
9768,56.0,0,40,6.0,0.0
9769,57.0,18,40,6.0,0.0
9770,72.0,30,150,7.0,0.0
9771,57.0,0,40,8.0,0.0
9772,52.0,48,40,8.0,0.0
9773,59.0,0,40,6.0,0.0
9774,57.0,18,40,8.0,0.0
9775,81.0,0,40,5.0,0.0
9776,60.0,0,40,6.0,0.0
9777,80.0,0,40,5.0,0.0
9778,64.0,48,40,6.0,0.0
9779,60.0,0,40,8.0,0.0
9780,81.0,48,180,5.0,0.0
9781,59.0,48,40,8.0,0.0
9782,63.0,0,40,6.0,0.0
9783,57.0,0,40,8.0,0.0
9784,61.0,48,40,6.0,0.0
9785,59.0,48,40,8.0,0.0
9786,63.0,0,40,6.0,0.0
9787,54.0,0,40,8.0,0.0
9788,59.0,0,40,6.0,0.0
9789,59.0,48,40,8.0,0.0
9790,63.0,0,40,6.0,0.0
9791,78.0,0,90,5.0,0.0
9792,66.0,48,40,6.0,0.0
9793,63.0,0,40,8.0,0.0
9794,83.0,0,90,5.0,0.0
9795,64.0,0,40,6.0,0.0
9796,61.0,48,40,8.0,0.0
9797,63.0,0,40,6.0,0.0
9798,59.0,96,40,8.0,0.0
9799,64.0,48,90,8.0,0.0
9800,64.0,18,150,6.0,0.0
9801,80.0,30,150,5.0,0.0
9802,52.0,2,90,8.0,0.0
9803,52.0,94,40,6.0,0.0
9804,81.0,0,90,5.0,0.0
9805,53.0,48,90,6.0,0.0
9806,52.0,48,40,6.0,0.0
9807,83.0,50,90,5.0,0.0
9808,50.0,0,40,6.0,0.0
9809,48.0,46,40,6.0,0.0
9810,76.0,2,90,5.0,0.0
9811,47.0,48,40,6.0,0.0
9812,48.0,46,40,6.0,0.0
9813,81.0,48,90,5.0,0.0
9814,45.0,0,40,6.0,0.0
9815,74.0,48,40,5.0,0.0
9816,44.0,30,150,6.0,0.0
9817,76.0,48,40,5.0,0.0
9818,77.0,18,40,5.0,0.0
9819,76.0,96,40,5.0,0.0
9820,77.0,48,150,5.0,0.0
9821,45.0,48,90,6.0,0.0
9822,47.0,48,90,6.0,0.0
9823,76.0,0,40,5.0,0.0
9824,74.0,48,40,5.0,0.0
9825,45.0,48,90,6.0,0.0
9826,83.0,0,40,5.0,0.0
9827,76.0,48,40,5.0,0.0
9828,44.0,96,90,6.0,0.0
9829,74.0,0,40,5.0,0.0
9830,45.0,30,150,8.0,0.0
9831,69.0,18,150,7.0,0.0
9832,45.0,48,90,6.0,0.0
9833,72.0,0,150,5.0,0.0
9834,57.0,2,90,6.0,0.0
9835,76.0,94,40,7.0,0.0
9836,71.0,48,90,5.0,0.0
9837,56.0,0,90,6.0,0.0
9838,77.0,0,90,7.0,0.0
9839,72.0,48,40,5.0,0.0
9840,57.0,24,90,6.0,0.0
9841,76.0,0,40,7.0,0.0
9842,74.0,0,40,5.0,0.0
9843,74.0,0,40,7.0,0.0
9844,76.0,24,20,5.0,0.0
9845,55.0,24,90,6.0,0.0
9846,72.0,24,40,7.0,0.0
9847,74.0,0,20,5.0,0.0
9848,76.0,24,20,5.0,0.0
9849,71.0,0,40,7.0,0.0
9850,74.0,0,20,5.0,0.0
9851,72.0,0,40,7.0,0.0
9852,53.0,0,90,6.0,0.0
9853,76.0,24,20,5.0,0.0
9854,74.0,24,20,5.0,0.0
9855,69.0,144,40,7.0,0.0
9856,72.0,24,20,5.0,0.0
9857,74.0,0,20,5.0,0.0
9858,52.0,0,150,6.0,0.0
9859,40.0,18,150,8.0,0.0
9860,76.0,32,150,5.0,0.0
9861,68.0,0,150,7.0,0.0
9862,52.0,94,40,8.0,0.0
9863,53.0,0,90,8.0,0.0
9864,69.0,48,90,7.0,0.0
9865,71.0,50,90,7.0,0.0
9866,52.0,48,40,8.0,0.0
9867,50.0,0,40,8.0,0.0
9868,64.0,2,90,7.0,0.0
9869,48.0,46,40,8.0,0.0
9870,47.0,48,40,8.0,0.0
9871,69.0,48,90,7.0,0.0
9872,48.0,46,40,8.0,0.0
9873,45.0,0,40,8.0,0.0
9874,74.0,48,40,7.0,0.0
9875,44.0,30,150,8.0,0.0
9876,76.0,48,40,7.0,0.0
9877,77.0,18,40,7.0,0.0
9878,76.0,96,40,7.0,0.0
9879,77.0,48,150,7.0,0.0
9880,45.0,48,90,8.0,0.0
9881,47.0,0,90,8.0,0.0
9882,76.0,48,40,7.0,0.0
9883,45.0,48,90,8.0,0.0
9884,74.0,48,40,7.0,0.0
9885,83.0,0,40,7.0,0.0
9886,44.0,0,90,8.0,0.0
9887,76.0,48,40,7.0,0.0
9888,74.0,96,40,7.0,0.0
9889,45.0,66,90,8.0,0.0
9890,72.0,30,150,7.0,0.0
9891,57.0,96,90,8.0,0.0
9892,52.0,0,90,8.0,0.0
9893,71.0,0,90,7.0,0.0
9894,56.0,48,90,6.0,0.0
9895,72.0,0,40,7.0,0.0
9896,45.0,0,90,8.0,0.0
9897,57.0,48,40,6.0,0.0
9898,74.0,24,40,7.0,0.0
9899,52.0,0,40,6.0,0.0
9900,43.0,0,90,8.0,0.0
9901,76.0,24,20,7.0,0.0
9902,57.0,0,40,6.0,0.0
9903,74.0,24,20,7.0,0.0
9904,60.0,0,40,6.0,0.0
9905,76.0,24,20,7.0,0.0
9906,74.0,24,20,7.0,0.0
9907,41.0,0,90,8.0,0.0
9908,81.0,30,150,5.0,0.0
9909,59.0,24,40,6.0,0.0
9910,76.0,24,20,7.0,0.0
9911,74.0,0,20,7.0,0.0
9912,57.0,0,40,6.0,0.0
9913,72.0,24,20,7.0,0.0
9914,74.0,48,20,7.0,0.0
9915,59.0,18,40,6.0,0.0
9916,76.0,48,630,7.0,0.0
9917,40.0,48,90,8.0,0.0
9918,52.0,0,40,6.0,0.0
9919,59.0,0,40,6.0,0.0
9920,43.0,48,90,8.0,0.0
9921,79.0,48,40,5.0,0.0
9922,62.0,0,40,6.0,0.0
9923,77.0,0,40,5.0,0.0
9924,61.0,48,40,6.0,0.0
9925,40.0,0,90,8.0,0.0
9926,79.0,0,180,5.0,0.0
9927,59.0,48,40,6.0,0.0
9928,61.0,48,40,6.0,0.0
9929,45.0,48,90,8.0,0.0
9930,57.0,0,40,6.0,0.0
9931,61.0,48,40,6.0,0.0
9932,76.0,0,90,5.0,0.0
9933,57.0,48,90,8.0,0.0
9934,64.0,0,40,6.0,0.0
9935,62.0,48,40,6.0,0.0
9936,45.0,0,90,8.0,0.0
9937,81.0,0,90,5.0,0.0
9938,61.0,48,40,6.0,0.0
9939,50.0,48,90,8.0,0.0
9940,77.0,48,330,5.0,0.0
9941,62.0,0,40,6.0,0.0
9942,58.0,0,40,6.0,0.0
9943,74.0,0,40,7.0,0.0
9944,72.0,0,40,7.0,0.0
9945,53.0,0,90,8.0,0.0
9946,57.0,48,40,6.0,0.0
9947,71.0,48,40,7.0,0.0
9948,56.0,0,40,6.0,0.0
9949,50.0,0,90,8.0,0.0
9950,72.0,0,40,7.0,0.0
9951,57.0,48,40,6.0,0.0
9952,69.0,0,40,7.0,0.0
9953,62.0,48,40,6.0,0.0
9954,56.0,0,90,8.0,0.0
9955,71.0,48,330,7.0,0.0
9956,52.0,48,90,6.0,0.0
9957,76.0,0,40,5.0,0.0
9958,56.0,48,90,6.0,0.0
9959,59.0,0,90,8.0,0.0
9960,74.0,48,40,5.0,0.0
9961,83.0,0,40,5.0,0.0
9962,52.0,0,90,6.0,0.0
9963,76.0,48,40,5.0,0.0
9964,56.0,48,90,8.0,0.0
9965,74.0,0,40,5.0,0.0
9966,45.0,0,90,6.0,0.0
9967,72.0,48,330,5.0,0.0
9968,52.0,48,90,8.0,0.0
9969,69.0,0,40,7.0,0.0
9970,48.0,0,90,6.0,0.0
9971,57.0,0,300,8.0,0.0
9972,67.0,48,40,7.0,0.0
9973,65.0,48,40,7.0,0.0
9974,45.0,0,90,6.0,0.0
9975,67.0,48,40,7.0,0.0
9976,64.0,48,40,7.0,0.0
9977,50.0,0,90,6.0,0.0
9978,65.0,48,330,7.0,0.0
9979,71.0,48,40,5.0,0.0
9980,69.0,0,40,5.0,0.0
9981,62.0,48,40,8.0,0.0
9982,53.0,0,90,6.0,0.0
9983,77.0,0,40,5.0,0.0
9984,61.0,48,40,8.0,0.0
9985,50.0,0,90,6.0,0.0
9986,62.0,0,40,8.0,0.0
9987,70.0,48,40,5.0,0.0
9988,65.0,0,40,8.0,0.0
9989,69.0,48,40,5.0,0.0
9990,52.0,48,90,6.0,0.0
9991,59.0,0,40,8.0,0.0
9992,68.0,0,90,5.0,0.0
9993,64.0,0,40,7.0,0.0
9994,60.0,0,40,8.0,0.0
9995,62.0,48,40,7.0,0.0
9996,69.0,0,240,5.0,0.0
9997,59.0,0,40,8.0,0.0
9998,53.0,0,90,6.0,0.0
9999,60.0,0,40,7.0,0.0
10000,57.0,48,40,8.0,0.0
10001,59.0,0,40,8.0,0.0
10002,62.0,48,40,7.0,0.0
10003,50.0,48,90,6.0,0.0
10004,56.0,0,40,8.0,0.0
10005,59.0,0,40,7.0,0.0
10006,60.0,0,40,7.0,0.0
10007,52.0,24,90,6.0,0.0
10008,57.0,48,40,8.0,0.0
10009,71.0,0,40,5.0,0.0
10010,50.0,0,40,8.0,0.0
10011,62.0,0,40,7.0,0.0
10012,52.0,0,90,8.0,0.0
10013,69.0,24,20,5.0,0.0
10014,40.0,6,90,6.0,0.0
10015,60.0,0,40,7.0,0.0
10016,68.0,18,20,5.0,0.0
10017,59.0,0,40,7.0,0.0
10018,69.0,18,15,5.0,0.0
10019,68.0,12,15,5.0,0.0
10020,69.0,18,15,5.0,0.0
10021,52.0,96,90,6.0,0.0
10022,40.0,0,90,8.0,0.0
10023,64.0,0,90,7.0,0.0
10024,68.0,12,15,5.0,0.0
10025,69.0,12,15,5.0,0.0
10026,68.0,12,15,5.0,0.0
10027,69.0,12,15,5.0,0.0
10028,68.0,12,15,5.0,0.0
10029,69.0,12,15,5.0,0.0
10030,68.0,0,15,5.0,0.0
10031,62.0,194,90,7.0,0.0
10032,69.0,0,300,5.0,0.0
10033,45.0,718,300,6.0,0.0
10034,45.0,0,300,8.0,0.0
10035,61.0,0,180,7.0,0.0
10036,60.0,48,40,5.0,0.0
10037,62.0,34,40,5.0,0.0
10038,64.0,96,30,5.0,0.0
10039,60.0,96,30,5.0,0.0
10040,67.0,96,30,5.0,0.0
10041,64.0,158,30,5.0,0.0
10042,69.0,48,90,5.0,0.0
10043,67.0,48,40,5.0,0.0
10044,65.0,162,40,5.0,0.0
10045,67.0,78,150,5.0,0.0
10046,69.0,48,40,5.0,0.0
10047,72.0,48,40,5.0,0.0
10048,65.0,48,40,5.0,0.0
10049,69.0,48,40,5.0,0.0
10050,67.0,48,40,5.0,0.0
10051,65.0,48,40,5.0,0.0
10052,64.0,48,40,5.0,0.0
10053,67.0,48,40,5.0,0.0
10054,65.0,48,40,5.0,0.0
10055,69.0,48,40,5.0,0.0
10056,62.0,48,40,5.0,0.0
10057,65.0,48,40,5.0,0.0
10058,64.0,48,40,5.0,0.0
10059,62.0,48,40,5.0,0.0
10060,60.0,48,40,5.0,0.0
10061,62.0,48,40,5.0,0.0
10062,64.0,48,40,5.0,0.0
10063,65.0,96,40,5.0,0.0
10064,67.0,34,90,5.0,0.0
10065,57.0,96,30,5.0,0.0
10066,60.0,158,30,5.0,0.0
10067,62.0,96,90,5.0,0.0
10068,65.0,34,90,5.0,0.0
10069,55.0,96,30,6.0,0.0
10070,59.0,158,30,6.0,0.0
10071,60.0,96,90,6.0,0.0
10072,64.0,48,90,6.0,0.0
10073,53.0,48,40,6.0,0.0
10074,64.0,48,40,6.0,0.0
10075,62.0,48,40,6.0,0.0
10076,60.0,48,40,6.0,0.0
10077,55.0,48,40,6.0,0.0
10078,62.0,48,40,6.0,0.0
10079,60.0,48,40,6.0,0.0
10080,59.0,144,40,6.0,0.0
10081,60.0,30,150,6.0,0.0
10082,67.0,18,40,5.0,0.0
10083,69.0,34,40,5.0,0.0
10084,71.0,96,30,5.0,0.0
10085,55.0,48,40,6.0,0.0
10086,67.0,14,30,5.0,0.0
10087,53.0,34,40,6.0,0.0
10088,52.0,48,40,6.0,0.0
10089,72.0,14,30,5.0,0.0
10090,53.0,34,40,6.0,0.0
10091,50.0,48,40,6.0,0.0
10092,71.0,14,30,5.0,0.0
10093,52.0,96,40,6.0,0.0
10094,48.0,0,90,6.0,0.0
10095,76.0,48,90,5.0,0.0
10096,60.0,48,150,6.0,0.0
10097,74.0,48,40,5.0,0.0
10098,72.0,48,40,5.0,0.0
10099,74.0,30,150,5.0,0.0
10100,59.0,48,40,6.0,0.0
10101,57.0,18,40,6.0,0.0
10102,59.0,48,40,6.0,0.0
10103,76.0,48,40,5.0,0.0
10104,60.0,0,90,6.0,0.0
10105,79.0,48,40,5.0,0.0
10106,72.0,48,40,5.0,0.0
10107,69.0,0,90,6.0,0.0
10108,76.0,48,40,5.0,0.0
10109,59.0,48,90,6.0,0.0
10110,74.0,48,40,5.0,0.0
10111,72.0,0,40,5.0,0.0
10112,71.0,48,40,5.0,0.0
10113,67.0,0,90,6.0,0.0
10114,74.0,48,40,5.0,0.0
10115,57.0,48,90,6.0,0.0
10116,72.0,48,40,5.0,0.0
10117,76.0,0,40,5.0,0.0
10118,66.0,0,90,6.0,0.0
10119,69.0,48,40,5.0,0.0
10120,72.0,48,40,5.0,0.0
10121,71.0,0,40,5.0,0.0
10122,55.0,48,40,6.0,0.0
10123,60.0,0,40,6.0,0.0
10124,69.0,48,40,5.0,0.0
10125,59.0,0,40,6.0,0.0
10126,67.0,48,40,5.0,0.0
10127,57.0,48,40,6.0,0.0
10128,69.0,0,40,5.0,0.0
10129,71.0,0,40,5.0,0.0
10130,55.0,48,40,6.0,0.0
10131,72.0,48,40,5.0,0.0
10132,53.0,0,40,6.0,0.0
10133,52.0,48,40,6.0,0.0
10134,74.0,34,90,5.0,0.0
10135,50.0,0,40,6.0,0.0
10136,48.0,48,40,6.0,0.0
10137,64.0,14,30,5.0,0.0
10138,59.0,34,40,6.0,0.0
10139,57.0,48,40,6.0,0.0
10140,67.0,14,30,5.0,0.0
10141,55.0,48,40,6.0,0.0
10142,69.0,48,90,5.0,0.0
10143,54.0,48,40,6.0,0.0
10144,52.0,0,40,6.0,0.0
10145,50.0,48,40,6.0,0.0
10146,72.0,0,90,5.0,0.0
10147,48.0,34,40,6.0,0.0
10148,47.0,48,40,6.0,0.0
10149,62.0,14,30,5.0,0.0
10150,57.0,34,40,6.0,0.0
10151,55.0,48,40,6.0,0.0
10152,66.0,14,30,5.0,0.0
10153,54.0,48,40,6.0,0.0
10154,52.0,48,40,6.0,0.0
10155,67.0,0,90,5.0,0.0
10156,50.0,48,40,6.0,0.0
10157,71.0,48,90,5.0,0.0
10158,48.0,48,40,6.0,0.0
10159,47.0,0,40,6.0,0.0
10160,60.0,48,40,5.0,0.0
10161,45.0,0,40,6.0,0.0
10162,55.0,0,40,6.0,0.0
10163,71.0,48,40,5.0,0.0
10164,69.0,48,40,5.0,0.0
10165,54.0,0,40,6.0,0.0
10166,67.0,0,40,5.0,0.0
10167,52.0,48,40,6.0,0.0
10168,62.0,48,40,5.0,0.0
10169,50.0,0,40,6.0,0.0
10170,69.0,48,40,5.0,0.0
10171,48.0,0,40,6.0,0.0
10172,47.0,0,40,6.0,0.0
10173,67.0,48,40,5.0,0.0
10174,66.0,48,40,5.0,0.0
10175,45.0,0,40,6.0,0.0
10176,43.0,48,40,6.0,0.0
10177,67.0,30,150,5.0,0.0
10178,55.0,48,40,6.0,0.0
10179,59.0,18,40,6.0,0.0
10180,62.0,96,40,6.0,0.0
10181,64.0,48,240,6.0,0.0
10182,72.0,48,40,5.0,0.0
10183,76.0,48,40,5.0,0.0
10184,79.0,48,40,5.0,0.0
10185,81.0,48,240,5.0,0.0
10186,53.0,48,40,6.0,0.0
10187,57.0,48,40,6.0,0.0
10188,60.0,48,40,6.0,0.0
10189,62.0,48,240,6.0,0.0
10190,71.0,48,40,5.0,0.0
10191,74.0,48,40,5.0,0.0
10192,77.0,48,40,5.0,0.0
10193,79.0,48,240,5.0,0.0
10194,52.0,48,40,6.0,0.0
10195,55.0,48,40,6.0,0.0
10196,59.0,48,40,6.0,0.0
10197,60.0,48,240,6.0,0.0
10198,69.0,48,40,5.0,0.0
10199,72.0,48,40,5.0,0.0
10200,76.0,48,40,5.0,0.0
10201,77.0,0,240,5.0,0.0
10202,50.0,48,40,6.0,0.0
10203,53.0,48,40,6.0,0.0
10204,57.0,48,40,6.0,0.0
10205,59.0,48,40,6.0,0.0
10206,62.0,0,40,6.0,0.0
10207,67.0,48,40,5.0,0.0
10208,55.0,0,40,6.0,0.0
10209,71.0,48,40,5.0,0.0
10210,74.0,48,40,5.0,0.0
10211,59.0,0,40,6.0,0.0
10212,60.0,48,40,6.0,0.0
10213,76.0,48,90,5.0,0.0
10214,62.0,0,40,6.0,0.0
10215,64.0,0,40,5.0,0.0
10216,48.0,48,40,6.0,0.0
10217,65.0,34,40,5.0,0.0
10218,50.0,0,40,6.0,0.0
10219,67.0,48,40,5.0,0.0
10220,52.0,14,30,6.0,0.0
10221,69.0,34,40,5.0,0.0
10222,71.0,48,40,5.0,0.0
10223,48.0,14,30,6.0,0.0
10224,72.0,34,40,5.0,0.0
10225,55.0,14,30,6.0,0.0
10226,71.0,48,40,5.0,0.0
10227,69.0,34,40,5.0,0.0
10228,67.0,48,40,5.0,0.0
10229,52.0,14,30,6.0,0.0
10230,65.0,96,40,5.0,0.0
10231,64.0,48,90,5.0,0.0
10232,72.0,48,240,5.0,0.0
10233,57.0,0,90,6.0,0.0
10234,69.0,0,90,5.0,0.0
10235,55.0,48,40,6.0,0.0
10236,53.0,48,40,6.0,0.0
10237,55.0,30,150,6.0,0.0
10238,62.0,0,150,5.0,0.0
10239,71.0,48,40,5.0,0.0
10240,69.0,18,40,5.0,0.0
10241,71.0,48,40,5.0,0.0
10242,72.0,0,90,5.0,0.0
10243,57.0,48,40,6.0,0.0
10244,60.0,48,40,6.0,0.0
10245,53.0,48,40,6.0,0.0
10246,81.0,0,90,5.0,0.0
10247,57.0,48,40,6.0,0.0
10248,55.0,48,40,6.0,0.0
10249,71.0,48,90,5.0,0.0
10250,53.0,0,40,6.0,0.0
10251,79.0,0,90,5.0,0.0
10252,52.0,48,40,6.0,0.0
10253,55.0,48,40,6.0,0.0
10254,69.0,48,90,5.0,0.0
10255,53.0,48,40,6.0,0.0
10256,57.0,0,40,6.0,0.0
10257,50.0,48,40,6.0,0.0
10258,77.0,48,90,5.0,0.0
10259,53.0,0,40,6.0,0.0
10260,52.0,48,40,6.0,0.0
10261,67.0,48,90,5.0,0.0
10262,50.0,0,40,6.0,0.0
10263,48.0,48,40,6.0,0.0
10264,69.0,0,40,5.0,0.0
10265,50.0,48,40,6.0,0.0
10266,71.0,0,40,5.0,0.0
10267,52.0,2,40,6.0,0.0
10268,67.0,0,330,5.0,0.0
10269,72.0,46,40,5.0,0.0
10270,74.0,48,40,5.0,0.0
10271,53.0,2,40,6.0,0.0
10272,55.0,34,90,6.0,0.0
10273,72.0,46,40,5.0,0.0
10274,71.0,0,40,5.0,0.0
10275,74.0,48,40,5.0,0.0
10276,45.0,16,30,6.0,0.0
10277,72.0,32,40,5.0,0.0
10278,71.0,46,40,5.0,0.0
10279,48.0,16,30,6.0,0.0
10280,69.0,96,40,5.0,0.0
10281,50.0,2,90,6.0,0.0
10282,65.0,30,360,5.0,0.0
10283,72.0,48,40,5.0,0.0
10284,53.0,0,90,6.0,0.0
10285,71.0,46,40,5.0,0.0
10286,69.0,34,40,5.0,0.0
10287,43.0,16,30,6.0,0.0
10288,72.0,48,40,5.0,0.0
10289,71.0,32,40,5.0,0.0
10290,47.0,16,30,6.0,0.0
10291,69.0,16,40,5.0,0.0
10292,67.0,96,40,5.0,0.0
10293,48.0,2,90,6.0,0.0
10294,64.0,48,240,5.0,0.0
10295,70.0,48,40,5.0,0.0
10296,69.0,46,40,5.0,0.0
10297,52.0,0,90,6.0,0.0
10298,67.0,48,40,5.0,0.0
10299,41.0,0,40,6.0,0.0
10300,69.0,30,150,5.0,0.0
10301,52.0,0,40,6.0,0.0
10302,67.0,48,40,5.0,0.0
10303,50.0,0,40,6.0,0.0
10304,65.0,18,40,5.0,0.0
10305,64.0,0,40,5.0,0.0
10306,48.0,48,40,6.0,0.0
10307,71.0,0,300,5.0,0.0
10308,62.0,0,40,5.0,0.0
10309,43.0,48,40,6.0,0.0
10310,64.0,0,40,5.0,0.0
10311,50.0,48,40,6.0,0.0
10312,48.0,0,40,6.0,0.0
10313,65.0,48,40,5.0,0.0
10314,47.0,0,40,6.0,0.0
10315,67.0,48,40,5.0,0.0
10316,65.0,48,40,5.0,0.0
10317,48.0,48,90,6.0,0.0
10318,64.0,0,150,5.0,0.0
10319,67.0,48,40,5.0,0.0
10320,52.0,0,90,6.0,0.0
10321,71.0,96,40,5.0,0.0
10322,72.0,0,300,5.0,0.0
10323,45.0,48,90,6.0,0.0
10324,66.0,0,40,5.0,0.0
10325,67.0,48,40,5.0,0.0
10326,48.0,0,90,6.0,0.0
10327,69.0,48,40,5.0,0.0
10328,67.0,48,40,5.0,0.0
10329,50.0,48,90,6.0,0.0
10330,66.0,96,150,5.0,0.0
10331,69.0,48,40,5.0,0.0
10332,54.0,0,90,6.0,0.0
10333,72.0,0,40,5.0,0.0
10334,74.0,0,300,5.0,0.0
10335,47.0,48,90,6.0,0.0
10336,67.0,0,40,5.0,0.0
10337,50.0,0,90,6.0,0.0
10338,69.0,48,40,5.0,0.0
10339,71.0,48,40,5.0,0.0
10340,52.0,48,90,6.0,0.0
10341,69.0,48,40,5.0,0.0
10342,67.0,0,150,5.0,0.0
10343,71.0,48,40,5.0,0.0
10344,55.0,96,90,6.0,0.0
10345,74.0,0,40,5.0,0.0
10346,76.0,0,300,5.0,0.0
10347,48.0,0,90,6.0,0.0
10348,69.0,48,40,5.0,0.0
10349,71.0,48,40,5.0,0.0
10350,52.0,48,90,6.0,0.0
10351,72.0,0,40,5.0,0.0
10352,71.0,48,40,5.0,0.0
10353,54.0,48,90,6.0,0.0
10354,69.0,48,390,5.0,0.0
10355,57.0,0,90,6.0,0.0
10356,74.0,48,40,5.0,0.0
10357,78.0,48,40,5.0,0.0
10358,50.0,0,90,6.0,0.0
10359,81.0,48,40,5.0,0.0
10360,76.0,48,40,5.0,0.0
10361,54.0,48,90,6.0,0.0
10362,74.0,48,40,5.0,0.0
10363,72.0,0,40,5.0,0.0
10364,55.0,30,150,6.0,0.0
10365,71.0,0,90,5.0,0.0
10366,57.0,48,40,5.0,0.0
10367,59.0,0,40,5.0,0.0
10368,55.0,18,40,8.0,0.0
10369,60.0,34,40,5.0,0.0
10370,57.0,0,40,8.0,0.0
10371,59.0,14,30,8.0,0.0
10372,62.0,48,40,5.0,0.0
10373,64.0,34,40,5.0,0.0
10374,55.0,14,30,8.0,0.0
10375,65.0,48,40,5.0,0.0
10376,67.0,34,40,5.0,0.0
10377,60.0,62,30,8.0,0.0
10378,64.0,34,90,5.0,0.0
10379,67.0,0,40,5.0,0.0
10380,69.0,48,40,5.0,0.0
10381,59.0,14,30,8.0,0.0
10382,71.0,48,40,5.0,0.0
10383,64.0,0,90,8.0,0.0
10384,72.0,48,40,5.0,0.0
10385,48.0,0,240,6.0,0.0
10386,74.0,48,40,5.0,0.0
10387,62.0,0,40,8.0,0.0
10388,76.0,48,40,5.0,0.0
10389,77.0,48,40,5.0,0.0
10390,60.0,0,40,8.0,0.0
10391,62.0,30,150,8.0,0.0
10392,79.0,48,40,5.0,0.0
10393,47.0,48,40,6.0,0.0
10394,81.0,0,40,5.0,0.0
10395,45.0,0,40,6.0,0.0
10396,77.0,18,40,5.0,0.0
10397,79.0,0,40,5.0,0.0
10398,47.0,48,40,6.0,0.0
10399,76.0,48,40,5.0,0.0
10400,48.0,48,90,6.0,0.0
10401,64.0,0,40,8.0,0.0
10402,72.0,0,40,5.0,0.0
10403,67.0,0,40,8.0,0.0
10404,60.0,48,40,8.0,0.0
10405,57.0,48,90,6.0,0.0
10406,69.0,0,40,5.0,0.0
10407,64.0,0,90,5.0,0.0
10408,64.0,0,40,8.0,0.0
10409,72.0,0,40,5.0,0.0
10410,62.0,48,40,8.0,0.0
10411,66.0,0,90,5.0,0.0
10412,74.0,0,90,5.0,0.0
10413,47.0,48,90,6.0,0.0
10414,60.0,0,40,8.0,0.0
10415,76.0,0,90,5.0,0.0
10416,55.0,0,90,6.0,0.0
10417,67.0,48,90,5.0,0.0
10418,59.0,48,40,8.0,0.0
10419,62.0,0,40,8.0,0.0
10420,69.0,0,240,5.0,0.0
10421,78.0,0,40,5.0,0.0
10422,45.0,0,90,6.0,0.0
10423,60.0,48,40,8.0,0.0
10424,64.0,0,40,8.0,0.0
10425,79.0,48,40,5.0,0.0
10426,54.0,0,90,6.0,0.0
10427,81.0,48,90,5.0,0.0
10428,57.0,48,40,8.0,0.0
10429,60.0,0,40,8.0,0.0
10430,74.0,30,150,5.0,0.0
10431,43.0,0,150,6.0,0.0
10432,59.0,48,40,8.0,0.0
10433,57.0,0,40,8.0,0.0
10434,72.0,48,40,5.0,0.0
10435,55.0,0,40,8.0,0.0
10436,71.0,18,40,5.0,0.0
10437,57.0,0,40,8.0,0.0
10438,69.0,48,40,5.0,0.0
10439,59.0,48,40,8.0,0.0
10440,67.0,0,40,5.0,0.0
10441,65.0,0,40,5.0,0.0
10442,60.0,48,40,8.0,0.0
10443,62.0,0,90,8.0,0.0
10444,64.0,48,40,5.0,0.0
10445,59.0,30,150,6.0,0.0
10446,74.0,18,150,5.0,0.0
10447,62.0,34,40,5.0,0.0
10448,52.0,14,30,8.0,0.0
10449,67.0,48,240,5.0,0.0
10450,77.0,34,40,5.0,0.0
10451,76.0,48,40,5.0,0.0
10452,52.0,48,90,6.0,0.0
10453,55.0,14,30,8.0,0.0
10454,74.0,0,40,5.0,0.0
10455,57.0,34,300,6.0,0.0
10456,72.0,48,240,5.0,0.0
10457,57.0,48,90,8.0,0.0
10458,71.0,0,40,5.0,0.0
10459,69.0,48,40,5.0,0.0
10460,60.0,0,90,8.0,0.0
10461,67.0,34,40,5.0,0.0
10462,50.0,14,30,8.0,0.0
10463,66.0,30,150,5.0,0.0
10464,76.0,0,40,5.0,0.0
10465,54.0,14,30,8.0,0.0
10466,74.0,18,40,5.0,0.0
10467,50.0,96,90,6.0,0.0
10468,72.0,0,40,5.0,0.0
10469,71.0,0,240,5.0,0.0
10470,55.0,0,90,8.0,0.0
10471,55.0,0,300,6.0,0.0
10472,69.0,48,40,5.0,0.0
10473,67.0,48,40,5.0,0.0
10474,59.0,0,90,8.0,0.0
10475,66.0,48,40,5.0,0.0
10476,48.0,48,40,8.0,0.0
10477,64.0,30,150,5.0,0.0
10478,74.0,0,40,5.0,0.0
10479,59.0,48,40,8.0,0.0
10480,57.0,0,40,8.0,0.0
10481,48.0,0,90,6.0,0.0
10482,72.0,18,40,5.0,0.0
10483,55.0,0,40,8.0,0.0
10484,71.0,48,40,5.0,0.0
10485,69.0,0,40,5.0,0.0
10486,66.0,30,150,5.0,0.0
10487,50.0,48,40,8.0,0.0
10488,50.0,0,90,6.0,0.0
10489,57.0,48,40,8.0,0.0
10490,72.0,0,40,5.0,0.0
10491,38.0,0,90,6.0,0.0
10492,71.0,0,40,5.0,0.0
10493,55.0,18,40,8.0,0.0
10494,54.0,96,40,8.0,0.0
10495,69.0,0,40,5.0,0.0
10496,43.0,48,90,6.0,0.0
10497,55.0,0,240,8.0,0.0
10498,71.0,48,180,5.0,0.0
10499,69.0,0,40,5.0,0.0
10500,50.0,0,90,6.0,0.0
10501,67.0,48,40,5.0,0.0
10502,65.0,0,40,5.0,0.0
10503,55.0,0,300,6.0,0.0
10504,64.0,48,40,5.0,0.0
10505,62.0,48,40,5.0,0.0
10506,47.0,0,40,8.0,0.0
10507,45.0,0,40,8.0,0.0
10508,60.0,48,40,5.0,0.0
10509,76.0,0,150,5.0,0.0
10510,59.0,48,40,5.0,0.0
10511,43.0,0,40,8.0,0.0
10512,45.0,48,40,8.0,0.0
10513,60.0,0,240,6.0,0.0
10514,76.0,0,40,5.0,0.0
10515,55.0,48,40,8.0,0.0
10516,48.0,0,90,6.0,0.0
10517,74.0,0,40,5.0,0.0
10518,53.0,48,40,8.0,0.0
10519,72.0,0,40,5.0,0.0
10520,52.0,48,40,8.0,0.0
10521,74.0,0,240,5.0,0.0
10522,53.0,0,300,6.0,0.0
10523,53.0,48,40,8.0,0.0
10524,69.0,48,40,6.0,0.0
10525,48.0,0,40,8.0,0.0
10526,67.0,0,40,6.0,0.0
10527,47.0,48,40,8.0,0.0
10528,65.0,48,40,6.0,0.0
10529,45.0,0,40,8.0,0.0
10530,47.0,48,40,8.0,0.0
10531,67.0,0,240,5.0,0.0
10532,74.0,48,40,5.0,0.0
10533,53.0,0,40,8.0,0.0
10534,52.0,0,40,8.0,0.0
10535,43.0,34,90,6.0,0.0
10536,60.0,0,40,7.0,0.0
10537,72.0,48,40,5.0,0.0
10538,71.0,0,40,5.0,0.0
10539,62.0,0,40,7.0,0.0
10540,50.0,0,40,8.0,0.0
10541,72.0,48,240,5.0,0.0
10542,48.0,48,40,8.0,0.0
10543,48.0,34,300,6.0,0.0
10544,64.0,14,30,7.0,0.0
10545,65.0,34,40,5.0,0.0
10546,47.0,0,40,8.0,0.0
10547,60.0,14,30,7.0,0.0
10548,48.0,48,40,8.0,0.0
10549,64.0,0,40,5.0,0.0
10550,50.0,34,40,8.0,0.0
10551,62.0,0,40,5.0,0.0
10552,60.0,0,300,5.0,0.0
10553,67.0,14,30,7.0,0.0
10554,52.0,0,40,8.0,0.0
10555,53.0,0,40,8.0,0.0
10556,69.0,0,40,5.0,0.0
10557,70.0,0,40,5.0,0.0
10558,36.0,0,90,6.0,0.0
10559,55.0,48,40,8.0,0.0
10560,64.0,14,30,7.0,0.0
10561,52.0,0,40,8.0,0.0
10562,67.0,48,40,5.0,0.0
10563,48.0,0,90,6.0,0.0
10564,53.0,0,40,8.0,0.0
10565,69.0,48,40,5.0,0.0
10566,69.0,0,90,7.0,0.0
10567,55.0,48,40,8.0,0.0
10568,71.0,0,40,5.0,0.0
10569,67.0,0,40,7.0,0.0
10570,36.0,0,90,6.0,0.0
10571,57.0,0,40,8.0,0.0
10572,72.0,48,40,5.0,0.0
10573,69.0,0,90,5.0,0.0
10574,65.0,0,40,7.0,0.0
10575,74.0,48,40,5.0,0.0
10576,59.0,0,40,8.0,0.0
10577,48.0,0,90,6.0,0.0
10578,76.0,0,90,5.0,0.0
10579,60.0,48,40,8.0,0.0
10580,67.0,30,150,7.0,0.0
10581,67.0,0,90,5.0,0.0
10582,62.0,48,40,8.0,0.0
10583,64.0,18,40,8.0,0.0
10584,60.0,48,40,8.0,0.0
10585,69.0,48,40,7.0,0.0
10586,36.0,0,90,6.0,0.0
10587,69.0,0,90,5.0,0.0
10588,53.0,0,90,8.0,0.0
10589,72.0,48,90,5.0,0.0
10590,77.0,0,90,5.0,0.0
10591,72.0,0,40,7.0,0.0
10592,62.0,0,90,8.0,0.0
10593,65.0,48,40,7.0,0.0
10594,69.0,48,40,7.0,0.0
10595,79.0,0,90,5.0,0.0
10596,48.0,48,90,6.0,0.0
10597,52.0,0,90,8.0,0.0
10598,72.0,0,90,5.0,0.0
10599,67.0,48,40,7.0,0.0
10600,76.0,0,90,5.0,0.0
10601,65.0,0,40,7.0,0.0
10602,64.0,48,40,7.0,0.0
10603,60.0,48,90,8.0,0.0
10604,67.0,0,40,7.0,0.0
10605,77.0,48,90,5.0,0.0
10606,65.0,48,40,7.0,0.0
10607,36.0,0,90,6.0,0.0
10608,50.0,0,90,8.0,0.0
10609,74.0,0,90,5.0,0.0
10610,83.0,0,90,5.0,0.0
10611,69.0,0,40,7.0,0.0
10612,62.0,48,40,7.0,0.0
10613,59.0,48,90,8.0,0.0
10614,65.0,0,40,7.0,0.0
10615,48.0,0,90,6.0,0.0
10616,84.0,0,90,5.0,0.0
10617,79.0,0,90,5.0,0.0
10618,48.0,48,40,8.0,0.0
10619,64.0,0,40,7.0,0.0
10620,76.0,0,90,5.0,0.0
10621,62.0,0,40,7.0,0.0
10622,53.0,48,40,8.0,0.0
10623,52.0,48,40,8.0,0.0
10624,60.0,0,40,7.0,0.0
10625,62.0,0,40,7.0,0.0
10626,50.0,48,40,8.0,0.0
10627,64.0,0,40,7.0,0.0
10628,48.0,48,40,8.0,0.0
10629,65.0,0,40,7.0,0.0
10630,46.0,48,40,8.0,0.0
10631,67.0,34,90,7.0,0.0
10632,45.0,48,40,8.0,0.0
10633,43.0,0,40,8.0,0.0
10634,41.0,48,40,8.0,0.0
10635,57.0,14,30,7.0,0.0
10636,52.0,34,40,8.0,0.0
10637,60.0,14,30,7.0,0.0
10638,50.0,48,40,8.0,0.0
10639,48.0,48,40,8.0,0.0
10640,62.0,0,90,7.0,0.0
10641,47.0,48,40,8.0,0.0
10642,45.0,48,40,8.0,0.0
10643,65.0,0,90,7.0,0.0
10644,43.0,48,40,8.0,0.0
10645,41.0,34,40,8.0,0.0
10646,55.0,14,30,7.0,0.0
10647,40.0,48,40,8.0,0.0
10648,50.0,34,40,8.0,0.0
10649,59.0,14,30,7.0,0.0
10650,48.0,48,40,8.0,0.0
10651,47.0,48,40,8.0,0.0
10652,45.0,48,40,8.0,0.0
10653,60.0,0,90,7.0,0.0
10654,43.0,48,40,8.0,0.0
10655,41.0,48,40,8.0,0.0
10656,64.0,48,90,7.0,0.0
10657,40.0,0,40,8.0,0.0
10658,53.0,48,40,7.0,0.0
10659,38.0,0,40,8.0,0.0
10660,48.0,0,40,8.0,0.0
10661,64.0,48,40,7.0,0.0
10662,62.0,48,40,7.0,0.0
10663,47.0,0,40,8.0,0.0
10664,60.0,0,40,7.0,0.0
10665,45.0,48,40,8.0,0.0
10666,55.0,48,40,7.0,0.0
10667,43.0,0,40,8.0,0.0
10668,41.0,48,40,8.0,0.0
10669,62.0,0,40,7.0,0.0
10670,40.0,48,40,8.0,0.0
10671,60.0,0,40,7.0,0.0
10672,38.0,48,40,8.0,0.0
10673,59.0,0,40,7.0,0.0
10674,60.0,48,40,7.0,0.0
10675,36.0,30,150,8.0,0.0
10676,64.0,48,40,7.0,0.0
10677,67.0,18,40,7.0,0.0
10678,71.0,96,40,7.0,0.0
10679,72.0,48,240,7.0,0.0
10680,45.0,48,40,8.0,0.0
10681,48.0,48,40,8.0,0.0
10682,52.0,48,40,8.0,0.0
10683,54.0,48,240,8.0,0.0
10684,62.0,48,40,7.0,0.0
10685,66.0,48,40,7.0,0.0
10686,69.0,48,40,7.0,0.0
10687,71.0,48,240,7.0,0.0
10688,43.0,48,40,8.0,0.0
10689,47.0,48,40,8.0,0.0
10690,50.0,48,40,8.0,0.0
10691,52.0,48,240,8.0,0.0
10692,60.0,48,40,7.0,0.0
10693,64.0,48,40,7.0,0.0
10694,67.0,48,40,7.0,0.0
10695,69.0,48,240,7.0,0.0
10696,42.0,48,40,8.0,0.0
10697,45.0,48,40,8.0,0.0
10698,48.0,48,40,8.0,0.0
10699,50.0,48,240,8.0,0.0
10700,59.0,48,40,7.0,0.0
10701,67.0,0,40,7.0,0.0
10702,62.0,48,40,7.0,0.0
10703,66.0,48,40,7.0,0.0
10704,69.0,0,40,7.0,0.0
10705,67.0,0,90,7.0,0.0
10706,71.0,48,90,7.0,0.0
10707,43.0,0,40,8.0,0.0
10708,47.0,48,40,8.0,0.0
10709,67.0,30,360,7.0,0.0
10710,50.0,48,40,8.0,0.0
10711,52.0,48,40,8.0,0.0
10712,72.0,48,90,7.0,0.0
10713,48.0,0,40,8.0,0.0
10714,52.0,48,40,8.0,0.0
10715,71.0,0,90,7.0,0.0
10716,55.0,48,40,8.0,0.0
10717,60.0,18,40,8.0,0.0
10718,76.0,48,90,7.0,0.0
10719,55.0,0,40,8.0,0.0
10720,74.0,48,40,7.0,0.0
10721,60.0,0,40,8.0,0.0
10722,69.0,0,90,7.0,0.0
10723,64.0,0,40,8.0,0.0
10724,72.0,48,40,7.0,0.0
10725,74.0,30,150,7.0,0.0
10726,71.0,48,300,7.0,0.0
10727,67.0,48,40,8.0,0.0
10728,65.0,48,40,8.0,0.0
10729,64.0,18,40,8.0,0.0
10730,62.0,48,40,8.0,0.0
10731,60.0,30,150,8.0,0.0
10732,76.0,48,40,7.0,0.0
10733,79.0,0,40,7.0,0.0
10734,72.0,18,40,7.0,0.0
10735,69.0,48,180,7.0,0.0
10736,76.0,48,40,7.0,0.0
10737,74.0,48,40,7.0,0.0
10738,59.0,30,150,8.0,0.0
10739,72.0,0,40,7.0,0.0
10740,67.0,30,150,7.0,0.0
10741,71.0,18,40,7.0,0.0
10742,74.0,48,40,7.0,0.0
10743,72.0,18,40,7.0,0.0
10744,57.0,30,150,8.0,0.0
10745,76.0,48,40,7.0,0.0
10746,66.0,48,90,7.0,0.0
10747,69.0,18,40,7.0,0.0
10748,72.0,0,40,7.0,0.0
10749,71.0,48,40,7.0,0.0
10750,67.0,0,90,7.0,0.0
10751,55.0,0,40,8.0,0.0
10752,69.0,48,40,7.0,0.0
10753,50.0,0,40,8.0,0.0
10754,67.0,0,40,7.0,0.0
10755,52.0,48,40,8.0,0.0
10756,69.0,0,40,7.0,0.0
10757,54.0,48,40,8.0,0.0
10758,62.0,30,360,7.0,0.0
10759,71.0,48,40,7.0,0.0
10760,55.0,0,40,8.0,0.0
10761,57.0,0,40,8.0,0.0
10762,72.0,48,40,7.0,0.0
10763,74.0,0,90,7.0,0.0
10764,55.0,48,40,8.0,0.0
10765,54.0,34,40,8.0,0.0
10766,64.0,14,30,7.0,0.0
10767,57.0,48,40,8.0,0.0
10768,55.0,34,40,8.0,0.0
10769,67.0,14,30,7.0,0.0
10770,54.0,18,40,8.0,0.0
10771,52.0,96,40,8.0,0.0
10772,60.0,46,330,7.0,0.0
10773,69.0,48,90,7.0,0.0
10774,55.0,0,40,8.0,0.0
10775,54.0,48,40,8.0,0.0
10776,72.0,34,90,7.0,0.0
10777,52.0,0,40,8.0,0.0
10778,55.0,48,40,8.0,0.0
10779,62.0,14,30,7.0,0.0
10780,54.0,34,40,8.0,0.0
10781,52.0,2,40,8.0,0.0
10782,66.0,14,30,7.0,0.0
10783,50.0,96,40,8.0,0.0
10784,67.0,0,90,7.0,0.0
10785,59.0,0,240,7.0,0.0
10786,53.0,48,40,8.0,0.0
10787,71.0,0,90,7.0,0.0
10788,52.0,48,40,8.0,0.0
10789,50.0,48,40,8.0,0.0
10790,52.0,0,90,8.0,0.0
10791,60.0,48,40,7.0,0.0
10792,71.0,48,40,7.0,0.0
10793,62.0,0,40,7.0,0.0
10794,48.0,0,90,8.0,0.0
10795,60.0,48,40,7.0,0.0
10796,69.0,0,40,7.0,0.0
10797,59.0,0,40,7.0,0.0
10798,67.0,48,40,7.0,0.0
10799,57.0,0,40,8.0,0.0
10800,62.0,48,40,7.0,0.0
10801,50.0,30,150,8.0,0.0
10802,69.0,0,40,7.0,0.0
10803,60.0,48,40,8.0,0.0
10804,59.0,18,40,8.0,0.0
10805,67.0,0,40,7.0,0.0
10806,57.0,48,40,8.0,0.0
10807,66.0,0,40,7.0,0.0
10808,55.0,48,90,8.0,0.0
10809,67.0,48,40,7.0,0.0
10810,43.0,0,90,8.0,0.0
10811,59.0,0,40,7.0,0.0
10812,47.0,0,90,8.0,0.0
10813,62.0,48,40,7.0,0.0
10814,66.0,96,40,7.0,0.0
10815,67.0,0,300,7.0,0.0
10816,52.0,0,90,8.0,0.0
10817,60.0,48,40,7.0,0.0
10818,55.0,0,90,8.0,0.0
10819,62.0,48,40,7.0,0.0
10820,64.0,48,40,7.0,0.0
10821,45.0,48,90,8.0,0.0
10822,62.0,48,40,7.0,0.0
10823,60.0,0,150,7.0,0.0
10824,48.0,96,90,8.0,0.0
10825,64.0,48,40,7.0,0.0
10826,67.0,0,40,7.0,0.0
10827,69.0,0,300,7.0,0.0
10828,53.0,48,90,8.0,0.0
10829,62.0,0,40,7.0,0.0
10830,57.0,0,90,8.0,0.0
10831,64.0,48,40,7.0,0.0
10832,65.0,48,40,7.0,0.0
10833,47.0,48,90,8.0,0.0
10834,64.0,48,40,7.0,0.0
10835,62.0,48,390,7.0,0.0
10836,67.0,48,40,7.0,0.0
10837,50.0,48,90,8.0,0.0
10838,71.0,0,40,7.0,0.0
10839,55.0,48,90,8.0,0.0
10840,74.0,48,40,7.0,0.0
10841,69.0,0,40,7.0,0.0
10842,59.0,48,90,8.0,0.0
10843,67.0,48,40,7.0,0.0
10844,65.0,0,40,7.0,0.0
10845,64.0,0,150,7.0,0.0
10846,48.0,30,150,8.0,0.0
10847,60.0,48,40,7.0,0.0
10848,72.0,0,40,5.0,0.0
10849,59.0,18,40,7.0,0.0
10850,72.0,0,40,1.0,0.0
10851,74.0,0,40,5.0,0.0
10852,74.0,34,40,1.0,0.0
10853,57.0,0,40,7.0,0.0
10854,55.0,48,40,8.0,0.0
10855,76.0,14,30,5.0,0.0
10856,76.0,0,30,1.0,0.0
10857,53.0,34,40,8.0,0.0
10858,72.0,14,30,1.0,0.0
10859,72.0,0,30,5.0,0.0
10860,52.0,48,40,8.0,0.0
10861,50.0,34,40,8.0,0.0
10862,79.0,0,30,5.0,0.0
10863,79.0,62,30,1.0,0.0
10864,52.0,0,90,8.0,0.0
10865,36.0,0,40,8.0,0.0
10866,72.0,34,40,7.0,0.0
10867,76.0,14,30,5.0,0.0
10868,76.0,0,30,1.0,0.0
10869,71.0,48,40,7.0,0.0
10870,38.0,0,40,8.0,0.0
10871,40.0,0,40,8.0,0.0
10872,69.0,48,40,7.0,0.0
10873,41.0,0,40,8.0,0.0
10874,67.0,48,40,7.0,0.0
10875,81.0,0,90,1.0,0.0
10876,81.0,0,90,5.0,0.0
10877,43.0,0,40,8.0,0.0
10878,65.0,48,40,7.0,0.0
10879,79.0,0,40,1.0,0.0
10880,79.0,0,40,5.0,0.0
10881,64.0,48,40,7.0,0.0
10882,45.0,0,40,8.0,0.0
10883,77.0,0,40,5.0,0.0
10884,47.0,0,40,8.0,0.0
10885,62.0,0,40,7.0,0.0
10886,77.0,48,40,1.0,0.0
10887,48.0,48,40,8.0,0.0
10888,79.0,30,150,5.0,0.0
10889,64.0,0,40,7.0,0.0
10890,79.0,0,150,1.0,0.0
10891,50.0,0,40,8.0,0.0
10892,67.0,48,40,7.0,0.0
10893,52.0,18,40,8.0,0.0
10894,64.0,30,150,7.0,0.0
10895,72.0,0,40,7.0,0.0
10896,48.0,0,40,8.0,0.0
10897,70.0,48,40,7.0,0.0
10898,81.0,0,40,5.0,0.0
10899,53.0,30,150,8.0,0.0
10900,81.0,18,40,1.0,0.0
10901,69.0,0,40,7.0,0.0
10902,84.0,0,40,5.0,0.0
10903,65.0,0,40,7.0,0.0
10904,84.0,48,40,1.0,0.0
10905,69.0,18,40,7.0,0.0
10906,77.0,0,40,1.0,0.0
10907,62.0,30,150,7.0,0.0
10908,77.0,0,40,5.0,0.0
10909,81.0,0,40,5.0,0.0
10910,81.0,48,40,1.0,0.0
10911,74.0,0,40,7.0,0.0
10912,52.0,0,180,8.0,0.0
10913,79.0,0,40,5.0,0.0
10914,72.0,18,40,7.0,0.0
10915,79.0,0,40,1.0,0.0
10916,77.0,0,40,1.0,0.0
10917,77.0,48,40,5.0,0.0
10918,67.0,0,40,7.0,0.0
10919,76.0,48,40,5.0,0.0
10920,76.0,0,40,1.0,0.0
10921,60.0,0,180,8.0,0.0
10922,72.0,0,40,7.0,0.0
10923,79.0,48,40,5.0,0.0
10924,79.0,0,40,1.0,0.0
10925,76.0,0,40,7.0,0.0
10926,69.0,0,40,7.0,0.0
10927,77.0,48,40,1.0,0.0
10928,77.0,0,40,5.0,0.0
10929,50.0,48,180,8.0,0.0
10930,81.0,0,40,5.0,0.0
10931,81.0,48,40,1.0,0.0
10932,74.0,0,40,7.0,0.0
10933,59.0,0,90,8.0,0.0
10934,74.0,0,40,1.0,0.0
10935,74.0,0,40,5.0,0.0
10936,77.0,48,40,7.0,0.0
10937,74.0,0,40,7.0,0.0
10938,77.0,0,40,1.0,0.0
10939,77.0,0,40,5.0,0.0
10940,76.0,0,40,1.0,0.0
10941,48.0,30,150,8.0,0.0
10942,76.0,48,40,5.0,0.0
10943,79.0,0,40,7.0,0.0
10944,60.0,0,150,8.0,0.0
10945,74.0,0,40,5.0,0.0
10946,77.0,0,40,7.0,0.0
10947,74.0,48,40,1.0,0.0
10948,76.0,0,40,7.0,0.0
10949,72.0,0,40,5.0,0.0
10950,72.0,18,40,1.0,0.0
10951,74.0,0,40,5.0,0.0
10952,74.0,48,40,1.0,0.0
10953,77.0,0,40,7.0,0.0
10954,79.0,30,360,7.0,0.0
10955,76.0,48,40,5.0,0.0
10956,76.0,0,40,1.0,0.0
10957,77.0,0,40,1.0,0.0
10958,50.0,0,40,8.0,0.0
10959,77.0,48,40,5.0,0.0
10960,79.0,34,90,1.0,0.0
10961,79.0,0,90,5.0,0.0
10962,52.0,48,40,8.0,0.0
10963,76.0,0,90,7.0,0.0
10964,48.0,0,40,8.0,0.0
10965,53.0,48,40,8.0,0.0
10966,72.0,34,90,7.0,0.0
10967,69.0,14,30,5.0,0.0
10968,69.0,0,30,1.0,0.0
10969,55.0,0,40,8.0,0.0
10970,53.0,18,40,8.0,0.0
10971,69.0,48,90,7.0,0.0
10972,72.0,14,30,1.0,0.0
10973,72.0,0,30,5.0,0.0
10974,52.0,0,40,8.0,0.0
10975,74.0,0,90,5.0,0.0
10976,50.0,48,40,8.0,0.0
10977,77.0,30,360,7.0,0.0
10978,74.0,48,90,1.0,0.0
10979,48.0,0,40,8.0,0.0
10980,74.0,0,90,7.0,0.0
10981,77.0,34,90,1.0,0.0
10982,50.0,48,40,8.0,0.0
10983,77.0,0,90,5.0,0.0
10984,47.0,0,40,8.0,0.0
10985,71.0,0,90,7.0,0.0
10986,67.0,0,30,5.0,0.0
10987,67.0,14,30,1.0,0.0
10988,52.0,48,40,8.0,0.0
10989,53.0,34,40,8.0,0.0
10990,71.0,0,30,5.0,0.0
10991,52.0,18,40,8.0,0.0
10992,71.0,14,30,1.0,0.0
10993,67.0,48,90,7.0,0.0
10994,50.0,0,40,8.0,0.0
10995,48.0,48,40,8.0,0.0
10996,76.0,48,240,7.0,0.0
10997,72.0,0,90,5.0,0.0
10998,72.0,0,90,1.0,0.0
10999,47.0,48,40,8.0,0.0
11000,76.0,34,90,5.0,0.0
11001,76.0,0,90,1.0,0.0
11002,45.0,48,40,8.0,0.0
11003,72.0,0,90,7.0,0.0
11004,43.0,0,40,8.0,0.0
11005,69.0,30,150,7.0,0.0
11006,41.0,2,90,8.0,0.0
11007,65.0,0,30,1.0,0.0
11008,65.0,14,30,5.0,0.0
11009,76.0,46,40,1.0,0.0
11010,79.0,0,40,7.0,0.0
11011,76.0,0,40,5.0,0.0
11012,77.0,2,40,7.0,0.0
11013,74.0,0,40,5.0,0.0
11014,53.0,0,90,8.0,0.0
11015,74.0,16,40,1.0,0.0
11016,72.0,0,40,1.0,0.0
11017,72.0,0,40,5.0,0.0
11018,76.0,34,40,7.0,0.0
11019,67.0,0,30,1.0,0.0
11020,74.0,48,40,7.0,0.0
11021,71.0,30,150,7.0,0.0
11022,67.0,14,30,5.0,0.0
11023,55.0,0,90,8.0,0.0
11024,77.0,2,40,7.0,0.0
11025,74.0,46,40,5.0,0.0
11026,74.0,0,40,1.0,0.0
11027,76.0,2,40,7.0,0.0
11028,72.0,16,40,1.0,0.0
11029,72.0,0,40,5.0,0.0
11030,43.0,0,90,8.0,0.0
11031,74.0,48,40,7.0,0.0
11032,71.0,0,40,1.0,0.0
11033,71.0,0,40,5.0,0.0
11034,72.0,48,40,5.0,0.0
11035,48.0,48,90,8.0,0.0
11036,72.0,0,40,1.0,0.0
11037,76.0,0,90,7.0,0.0
11038,74.0,0,40,1.0,0.0
11039,74.0,0,40,5.0,0.0
11040,74.0,0,40,7.0,0.0
11041,76.0,0,40,5.0,0.0
11042,76.0,0,40,1.0,0.0
11043,67.0,0,40,6.0,0.0
11044,47.0,0,40,8.0,0.0
11045,67.0,18,40,2.0,0.0
11046,69.0,0,40,2.0,0.0
11047,78.0,0,40,5.0,0.0
11048,45.0,0,40,8.0,0.0
11049,72.0,30,15,7.0,0.0
11050,78.0,0,40,1.0,0.0
11051,69.0,0,40,6.0,0.0
11052,71.0,30,150,7.0,0.0
11053,79.0,48,40,5.0,0.0
11054,79.0,0,40,1.0,0.0
11055,52.0,48,240,8.0,0.0
11056,71.0,14,30,6.0,0.0
11057,71.0,0,30,2.0,0.0
11058,81.0,0,40,1.0,0.0
11059,66.0,0,40,8.0,0.0
11060,81.0,34,40,5.0,0.0
11061,67.0,0,40,8.0,0.0
11062,67.0,14,30,2.0,0.0
11063,67.0,0,30,6.0,0.0
11064,83.0,0,40,5.0,0.0
11065,83.0,18,40,1.0,0.0
11066,64.0,0,40,8.0,0.0
11067,79.0,0,40,1.0,0.0
11068,79.0,34,40,5.0,0.0
11069,72.0,14,30,2.0,0.0
11070,60.0,0,90,8.0,0.0
11071,76.0,0,40,5.0,0.0
11072,72.0,0,30,6.0,0.0
11073,76.0,0,40,1.0,0.0
11074,50.0,0,40,8.0,0.0
11075,76.0,0,40,7.0,0.0
11076,78.0,34,40,5.0,0.0
11077,78.0,0,40,1.0,0.0
11078,74.0,0,40,7.0,0.0
11079,71.0,14,30,6.0,0.0
11080,55.0,0,90,8.0,0.0
11081,52.0,48,40,8.0,0.0
11082,79.0,0,40,1.0,0.0
11083,71.0,0,30,2.0,0.0
11084,79.0,0,40,5.0,0.0
11085,54.0,48,40,8.0,0.0
11086,72.0,0,40,7.0,0.0
11087,81.0,0,40,1.0,0.0
11088,81.0,0,40,5.0,0.0
11089,76.0,0,90,2.0,0.0
11090,83.0,0,40,5.0,0.0
11091,71.0,48,40,7.0,0.0
11092,76.0,0,90,6.0,0.0
11093,83.0,0,40,1.0,0.0
11094,55.0,0,300,8.0,0.0
11095,72.0,0,40,7.0,0.0
11096,79.0,48,40,1.0,0.0
11097,79.0,0,40,5.0,0.0
11098,84.0,0,150,5.0,0.0
11099,74.0,0,40,2.0,0.0
11100,71.0,48,40,7.0,0.0
11101,74.0,0,40,6.0,0.0
11102,84.0,48,150,1.0,0.0
11103,72.0,0,40,6.0,0.0
11104,72.0,48,40,2.0,0.0
11105,69.0,0,40,7.0,0.0
11106,74.0,0,150,2.0,0.0
11107,74.0,30,150,6.0,0.0
11108,81.0,0,40,1.0,0.0
11109,81.0,0,40,5.0,0.0
11110,66.0,48,40,7.0,0.0
11111,83.0,0,90,1.0,0.0
11112,67.0,18,40,7.0,0.0
11113,43.0,48,90,8.0,0.0
11114,83.0,0,90,5.0,0.0
11115,64.0,0,40,7.0,0.0
11116,60.0,0,90,7.0,0.0
11117,84.0,0,40,1.0,0.0
11118,55.0,0,90,8.0,0.0
11119,76.0,0,40,2.0,0.0
11120,76.0,0,40,6.0,0.0
11121,64.0,0,90,7.0,0.0
11122,84.0,48,40,5.0,0.0
11123,79.0,0,40,6.0,0.0
11124,79.0,48,40,2.0,0.0
11125,83.0,0,40,5.0,0.0
11126,83.0,0,40,1.0,0.0
11127,72.0,0,40,6.0,0.0
11128,72.0,48,40,2.0,0.0
11129,81.0,0,40,5.0,0.0
11130,81.0,0,40,1.0,0.0
11131,84.0,0,40,5.0,0.0
11132,76.0,0,40,6.0,0.0
11133,84.0,0,40,1.0,0.0
11134,76.0,48,40,2.0,0.0
11135,74.0,48,40,6.0,0.0
11136,83.0,0,40,1.0,0.0
11137,59.0,0,90,7.0,0.0
11138,62.0,0,90,7.0,0.0
11139,74.0,0,40,2.0,0.0
11140,67.0,0,90,7.0,0.0
11141,43.0,0,90,8.0,0.0
11142,83.0,0,40,5.0,0.0
11143,81.0,0,40,1.0,0.0
11144,81.0,0,40,5.0,0.0
11145,72.0,0,40,2.0,0.0
11146,72.0,48,40,6.0,0.0
11147,71.0,0,40,6.0,0.0
11148,79.0,0,40,5.0,0.0
11149,79.0,48,40,1.0,0.0
11150,71.0,0,40,2.0,0.0
11151,74.0,0,40,6.0,0.0
11152,83.0,0,40,5.0,0.0
11153,74.0,0,40,2.0,0.0
11154,83.0,48,40,1.0,0.0
11155,72.0,48,40,6.0,0.0
11156,55.0,48,90,8.0,0.0
11157,60.0,0,90,7.0,0.0
11158,66.0,0,90,7.0,0.0
11159,81.0,0,40,5.0,0.0
11160,69.0,0,90,7.0,0.0
11161,72.0,0,40,2.0,0.0
11162,81.0,0,40,1.0,0.0
11163,84.0,0,40,1.0,0.0
11164,76.0,0,40,2.0,0.0
11165,84.0,0,40,5.0,0.0
11166,76.0,0,40,6.0,0.0
11167,69.0,0,40,6.0,0.0
11168,69.0,48,40,2.0,0.0
11169,78.0,0,40,5.0,0.0
11170,78.0,0,40,1.0,0.0
11171,72.0,0,40,6.0,0.0
11172,72.0,0,40,2.0,0.0
11173,81.0,48,40,5.0,0.0
11174,81.0,0,40,1.0,0.0
11175,43.0,48,90,8.0,0.0
11176,62.0,0,90,7.0,0.0
11177,71.0,48,40,2.0,0.0
11178,79.0,0,90,5.0,0.0
11179,67.0,0,90,7.0,0.0
11180,79.0,0,90,1.0,0.0
11181,71.0,0,40,6.0,0.0
11182,71.0,0,90,7.0,0.0
11183,69.0,0,40,2.0,0.0
11184,69.0,0,40,6.0,0.0
11185,67.0,0,40,2.0,0.0
11186,67.0,48,40,6.0,0.0
11187,74.0,0,40,7.0,0.0
11188,72.0,0,40,7.0,0.0
11189,69.0,48,40,6.0,0.0
11190,69.0,0,40,2.0,0.0
11191,71.0,48,40,7.0,0.0
11192,71.0,0,40,6.0,0.0
11193,71.0,0,40,2.0,0.0
11194,72.0,0,40,6.0,0.0
11195,72.0,0,40,2.0,0.0
11196,84.0,48,40,5.0,0.0
11197,69.0,0,40,7.0,0.0
11198,84.0,0,40,1.0,0.0
11199,74.0,0,90,2.0,0.0
11200,67.0,0,40,7.0,0.0
11201,83.0,48,40,5.0,0.0
11202,83.0,0,40,1.0,0.0
11203,74.0,0,90,6.0,0.0
11204,81.0,0,40,1.0,0.0
11205,81.0,34,40,5.0,0.0
11206,66.0,0,40,7.0,0.0
11207,64.0,14,30,6.0,0.0
11208,64.0,0,240,7.0,0.0
11209,79.0,48,40,1.0,0.0
11210,79.0,0,40,5.0,0.0
11211,64.0,0,30,2.0,0.0
11212,78.0,0,40,5.0,0.0
11213,62.0,34,40,8.0,0.0
11214,78.0,0,40,1.0,0.0
11215,67.0,14,30,6.0,0.0
11216,76.0,0,40,5.0,0.0
11217,76.0,0,40,1.0,0.0
11218,67.0,0,30,2.0,0.0
11219,60.0,48,40,8.0,0.0
11220,74.0,0,40,5.0,0.0
11221,74.0,48,40,1.0,0.0
11222,59.0,0,40,8.0,0.0
11223,72.0,0,40,5.0,0.0
11224,69.0,0,90,2.0,0.0
11225,69.0,0,90,6.0,0.0
11226,57.0,0,40,8.0,0.0
11227,72.0,48,40,1.0,0.0
11228,83.0,48,40,5.0,0.0
11229,83.0,0,40,1.0,0.0
11230,64.0,0,40,7.0,0.0
11231,55.0,0,40,8.0,0.0
11232,81.0,48,40,1.0,0.0
11233,66.0,0,40,7.0,0.0
11234,72.0,0,90,6.0,0.0
11235,81.0,0,40,5.0,0.0
11236,54.0,0,40,8.0,0.0
11237,72.0,0,90,2.0,0.0
11238,67.0,34,40,7.0,0.0
11239,52.0,0,40,8.0,0.0
11240,79.0,0,40,1.0,0.0
11241,79.0,0,40,5.0,0.0
11242,62.0,14,30,6.0,0.0
11243,69.0,34,90,7.0,0.0
11244,78.0,48,40,5.0,0.0
11245,78.0,0,40,1.0,0.0
11246,62.0,0,30,2.0,0.0
11247,50.0,0,240,8.0,0.0
11248,76.0,0,40,5.0,0.0
11249,48.0,0,40,8.0,0.0
11250,76.0,0,40,1.0,0.0
11251,74.0,0,40,1.0,0.0
11252,66.0,14,30,2.0,0.0
11253,74.0,48,40,5.0,0.0
11254,62.0,0,90,7.0,0.0
11255,47.0,0,40,8.0,0.0
11256,66.0,0,30,6.0,0.0
11257,72.0,0,40,5.0,0.0
11258,45.0,48,40,8.0,0.0
11259,72.0,0,40,1.0,0.0
11260,67.0,0,90,6.0,0.0
11261,71.0,0,40,1.0,0.0
11262,71.0,0,40,5.0,0.0
11263,67.0,0,90,2.0,0.0
11264,43.0,48,40,8.0,0.0
11265,42.0,0,40,8.0,0.0
11266,81.0,0,40,1.0,0.0
11267,50.0,0,40,8.0,0.0
11268,81.0,48,40,5.0,0.0
11269,71.0,34,90,6.0,0.0
11270,40.0,48,40,8.0,0.0
11271,79.0,0,40,5.0,0.0
11272,79.0,0,40,1.0,0.0
11273,71.0,0,90,2.0,0.0
11274,52.0,0,40,8.0,0.0
11275,78.0,0,40,5.0,0.0
11276,78.0,0,40,1.0,0.0
11277,38.0,0,40,8.0,0.0
11278,54.0,0,40,8.0,0.0
11279,36.0,0,90,8.0,0.0
11280,55.0,0,40,8.0,0.0
11281,76.0,0,40,5.0,0.0
11282,60.0,48,40,6.0,0.0
11283,76.0,0,40,1.0,0.0
11284,60.0,14,30,2.0,0.0
11285,74.0,2,40,1.0,0.0
11286,71.0,46,40,2.0,0.0
11287,74.0,0,40,5.0,0.0
11288,57.0,0,40,8.0,0.0
11289,71.0,0,40,6.0,0.0
11290,59.0,2,40,8.0,0.0
11291,69.0,0,40,6.0,0.0
11292,48.0,0,90,8.0,0.0
11293,72.0,0,40,5.0,0.0
11294,72.0,0,40,1.0,0.0
11295,69.0,46,40,2.0,0.0
11296,67.0,34,40,2.0,0.0
11297,60.0,0,40,8.0,0.0
11298,71.0,0,40,5.0,0.0
11299,71.0,0,40,1.0,0.0
11300,67.0,0,40,6.0,0.0
11301,62.0,0,40,6.0,0.0
11302,69.0,0,40,1.0,0.0
11303,54.0,0,90,8.0,0.0
11304,62.0,14,30,2.0,0.0
11305,50.0,0,90,8.0,0.0
11306,69.0,48,40,5.0,0.0
11307,69.0,46,40,2.0,0.0
11308,72.0,0,40,5.0,0.0
11309,72.0,0,40,1.0,0.0
11310,69.0,0,40,6.0,0.0
11311,69.0,2,40,7.0,0.0
11312,67.0,0,40,6.0,0.0
11313,62.0,0,90,8.0,0.0
11314,71.0,2,40,1.0,0.0
11315,67.0,46,40,2.0,0.0
11316,38.0,0,90,8.0,0.0
11317,71.0,0,40,7.0,0.0
11318,71.0,0,40,5.0,0.0
11319,66.0,0,40,6.0,0.0
11320,69.0,0,40,1.0,0.0
11321,66.0,48,40,2.0,0.0
11322,72.0,0,40,7.0,0.0
11323,69.0,0,40,5.0,0.0
11324,67.0,2,90,2.0,0.0
11325,62.0,0,90,7.0,0.0
11326,71.0,0,90,7.0,0.0
11327,71.0,0,40,1.0,0.0
11328,43.0,0,90,8.0,0.0
11329,71.0,48,40,5.0,0.0
11330,67.0,0,90,6.0,0.0
11331,67.0,46,40,1.0,0.0
11332,67.0,0,40,5.0,0.0
11333,69.0,46,40,1.0,0.0
11334,69.0,2,40,5.0,0.0
11335,71.0,2,40,5.0,0.0
11336,71.0,46,40,1.0,0.0
11337,72.0,2,40,5.0,0.0
11338,47.0,2,90,8.0,0.0
11339,74.0,0,90,7.0,0.0
11340,79.0,0,90,7.0,0.0
11341,72.0,46,40,1.0,0.0
11342,71.0,46,40,1.0,0.0
11343,71.0,0,40,5.0,0.0
11344,69.0,2,40,5.0,0.0
11345,69.0,46,40,1.0,0.0
11346,67.0,0,40,5.0,0.0
11347,67.0,96,40,1.0,0.0
11348,69.0,0,90,5.0,0.0
11349,50.0,0,90,8.0,0.0
11350,69.0,2,90,1.0,0.0
11351,74.0,0,90,7.0,0.0
11352,77.0,0,90,7.0,0.0
11353,62.0,0,40,6.0,0.0
11354,62.0,46,40,2.0,0.0
11355,74.0,0,90,5.0,0.0
11356,64.0,46,40,2.0,0.0
11357,64.0,2,40,6.0,0.0
11358,74.0,2,90,1.0,0.0
11359,65.0,46,40,2.0,0.0
11360,65.0,0,40,6.0,0.0
11361,67.0,2,40,6.0,0.0
11362,67.0,46,40,2.0,0.0
11363,69.0,0,90,7.0,0.0
11364,74.0,2,90,7.0,0.0
11365,53.0,0,90,8.0,0.0
11366,65.0,46,40,2.0,0.0
11367,65.0,0,40,6.0,0.0
11368,74.0,0,90,1.0,0.0
11369,64.0,46,40,2.0,0.0
11370,64.0,2,40,6.0,0.0
11371,74.0,0,90,5.0,0.0
11372,62.0,0,40,2.0,0.0
11373,62.0,48,40,6.0,0.0
11374,64.0,0,90,6.0,0.0
11375,64.0,0,90,2.0,0.0
11376,57.0,0,90,8.0,0.0
11377,72.0,2,40,5.0,0.0
11378,72.0,46,40,1.0,0.0
11379,69.0,0,90,7.0,0.0
11380,72.0,2,90,7.0,0.0
11381,69.0,0,40,5.0,0.0
11382,69.0,46,40,1.0,0.0
11383,57.0,0,90,6.0,0.0
11384,71.0,46,40,1.0,0.0
11385,71.0,2,40,5.0,0.0
11386,69.0,2,90,2.0,0.0
11387,72.0,0,40,5.0,0.0
11388,72.0,46,40,1.0,0.0
11389,48.0,2,90,8.0,0.0
11390,74.0,2,40,5.0,0.0
11391,76.0,0,90,7.0,0.0
11392,81.0,0,90,7.0,0.0
11393,74.0,46,40,1.0,0.0
11394,72.0,46,40,1.0,0.0
11395,72.0,0,40,5.0,0.0
11396,57.0,0,90,6.0,0.0
11397,71.0,2,40,5.0,0.0
11398,71.0,46,40,1.0,0.0
11399,64.0,48,90,2.0,0.0
11400,69.0,0,40,1.0,0.0
11401,69.0,0,40,5.0,0.0
11402,76.0,0,90,7.0,0.0
11403,71.0,0,90,5.0,0.0
11404,52.0,48,40,6.0,0.0
11405,67.0,0,40,2.0,0.0
11406,52.0,2,90,8.0,0.0
11407,79.0,0,90,7.0,0.0
11408,71.0,0,90,1.0,0.0
11409,64.0,0,40,6.0,0.0
11410,64.0,46,40,2.0,0.0
11411,65.0,46,40,2.0,0.0
11412,76.0,0,90,5.0,0.0
11413,76.0,2,90,1.0,0.0
11414,65.0,2,40,6.0,0.0
11415,67.0,0,40,6.0,0.0
11416,67.0,46,40,2.0,0.0
11417,69.0,2,40,6.0,0.0
11418,69.0,46,40,2.0,0.0
11419,71.0,0,90,7.0,0.0
11420,79.0,0,90,7.0,0.0
11421,55.0,2,90,8.0,0.0
11422,67.0,0,40,6.0,0.0
11423,67.0,46,40,2.0,0.0
11424,65.0,2,40,6.0,0.0
11425,76.0,0,90,5.0,0.0
11426,76.0,0,90,1.0,0.0
11427,65.0,46,40,2.0,0.0
11428,64.0,24,40,6.0,0.0
11429,64.0,0,40,2.0,0.0
11430,65.0,0,40,6.0,0.0
11431,77.0,10,20,1.0,0.0
11432,65.0,14,30,2.0,0.0
11433,69.0,0,90,7.0,0.0
11434,77.0,0,90,7.0,0.0
11435,76.0,0,90,5.0,0.0
11436,57.0,0,90,8.0,0.0
11437,76.0,24,20,1.0,0.0
11438,62.0,0,40,2.0,0.0
11439,62.0,2,40,6.0,0.0
11440,77.0,24,20,1.0,0.0
11441,76.0,46,20,1.0,0.0
11442,74.0,0,90,1.0,0.0
11443,64.0,2,40,6.0,0.0
11444,74.0,2,90,5.0,0.0
11445,64.0,46,40,2.0,0.0
11446,65.0,0,40,6.0,0.0
11447,65.0,46,40,2.0,0.0
11448,67.0,2,40,6.0,0.0
11449,77.0,0,90,7.0,0.0
11450,67.0,0,90,7.0,0.0
11451,67.0,46,40,2.0,0.0
11452,59.0,0,90,8.0,0.0
11453,65.0,2,40,6.0,0.0
11454,65.0,46,40,2.0,0.0
11455,74.0,0,90,5.0,0.0
11456,74.0,0,90,1.0,0.0
11457,64.0,46,40,2.0,0.0
11458,64.0,2,40,6.0,0.0
11459,62.0,24,40,2.0,0.0
11460,62.0,0,40,6.0,0.0
11461,74.0,0,90,5.0,0.0
11462,76.0,10,20,1.0,0.0
11463,67.0,0,90,7.0,0.0
11464,76.0,0,90,7.0,0.0
11465,64.0,24,40,6.0,0.0
11466,60.0,0,90,8.0,0.0
11467,64.0,14,30,2.0,0.0
11468,74.0,0,20,1.0,0.0
11469,76.0,24,20,1.0,0.0
11470,60.0,2,40,6.0,0.0
11471,60.0,46,40,2.0,0.0
11472,74.0,0,20,1.0,0.0
11473,72.0,0,90,1.0,0.0
11474,72.0,2,90,5.0,0.0
11475,62.0,2,40,6.0,0.0
11476,62.0,46,40,2.0,0.0
11477,64.0,46,40,2.0,0.0
11478,64.0,0,40,6.0,0.0
11479,65.0,2,40,6.0,0.0
11480,72.0,0,90,7.0,0.0
11481,57.0,2,90,8.0,0.0
11482,81.0,0,90,7.0,0.0
11483,65.0,46,40,2.0,0.0
11484,64.0,0,40,6.0,0.0
11485,64.0,46,40,2.0,0.0
11486,62.0,46,40,2.0,0.0
11487,72.0,0,150,5.0,0.0
11488,72.0,46,90,1.0,0.0
11489,62.0,2,40,6.0,0.0
11490,60.0,2,40,6.0,0.0
11491,60.0,0,40,2.0,0.0
11492,81.0,2,90,7.0,0.0
11493,72.0,0,90,7.0,0.0
11494,62.0,0,40,6.0,0.0
11495,62.0,0,40,2.0,0.0
11496,53.0,0,90,8.0,0.0
11497,72.0,48,40,1.0,0.0
11498,69.0,0,40,5.0,0.0
11499,60.0,46,40,2.0,0.0
11500,60.0,0,40,6.0,0.0
11501,69.0,0,40,1.0,0.0
11502,71.0,46,40,1.0,0.0
11503,71.0,2,40,5.0,0.0
11504,62.0,0,40,2.0,0.0
11505,62.0,0,40,6.0,0.0
11506,72.0,46,40,1.0,0.0
11507,64.0,2,40,6.0,0.0
11508,72.0,0,40,5.0,0.0
11509,64.0,0,40,2.0,0.0
11510,72.0,0,90,7.0,0.0
11511,74.0,46,40,1.0,0.0
11512,65.0,0,240,6.0,0.0
11513,65.0,0,240,2.0,0.0
11514,50.0,0,90,8.0,0.0
11515,74.0,2,40,5.0,0.0
11516,77.0,0,90,7.0,0.0
11517,72.0,2,40,5.0,0.0
11518,72.0,46,40,1.0,0.0
11519,71.0,46,40,1.0,0.0
11520,71.0,2,40,5.0,0.0
11521,69.0,0,40,5.0,0.0
11522,69.0,48,40,1.0,0.0
11523,71.0,0,40,5.0,0.0
11524,55.0,2,90,8.0,0.0
11525,74.0,0,90,7.0,0.0
11526,71.0,48,40,1.0,0.0
11527,71.0,0,90,7.0,0.0
11528,59.0,0,40,2.0,0.0
11529,59.0,0,40,6.0,0.0
11530,74.0,46,40,1.0,0.0
11531,74.0,0,40,5.0,0.0
11532,76.0,2,40,5.0,0.0
11533,60.0,0,40,2.0,0.0
11534,60.0,0,40,6.0,0.0
11535,76.0,46,40,1.0,0.0
11536,62.0,0,40,6.0,0.0
11537,77.0,0,40,1.0,0.0
11538,77.0,2,40,5.0,0.0
11539,62.0,46,40,2.0,0.0
11540,71.0,2,90,7.0,0.0
11541,79.0,0,40,5.0,0.0
11542,64.0,46,40,2.0,0.0
11543,79.0,0,40,1.0,0.0
11544,67.0,0,90,7.0,0.0
11545,64.0,2,40,6.0,0.0
11546,43.0,0,90,8.0,0.0
11547,62.0,0,40,2.0,0.0
11548,62.0,0,40,6.0,0.0
11549,77.0,46,40,1.0,0.0
11550,77.0,0,40,5.0,0.0
11551,60.0,0,40,2.0,0.0
11552,60.0,2,40,6.0,0.0
11553,76.0,46,40,1.0,0.0
11554,76.0,0,40,5.0,0.0
11555,59.0,0,40,6.0,0.0
11556,59.0,0,40,2.0,0.0
11557,74.0,48,40,5.0,0.0
11558,74.0,0,40,1.0,0.0
11559,76.0,0,90,1.0,0.0
11560,64.0,48,90,7.0,0.0
11561,67.0,0,90,7.0,0.0
11562,60.0,0,90,2.0,0.0
11563,60.0,48,40,5.0,0.0
11564,76.0,30,150,5.0,0.0
11565,62.0,0,40,5.0,0.0
11566,64.0,0,40,3.0,0.0
11567,55.0,34,90,2.0,0.0
11568,64.0,18,40,5.0,0.0
11569,48.0,0,40,8.0,0.0
11570,60.0,0,40,6.0,0.0
11571,72.0,0,90,1.0,0.0
11572,48.0,0,40,4.0,0.0
11573,50.0,0,40,4.0,0.0
11574,65.0,0,40,5.0,0.0
11575,65.0,0,40,3.0,0.0
11576,62.0,0,40,6.0,0.0
11577,50.0,0,40,8.0,0.0
11578,52.0,0,30,8.0,0.0
11579,67.0,48,40,5.0,0.0
11580,52.0,14,30,4.0,0.0
11581,64.0,0,30,6.0,0.0
11582,67.0,0,40,3.0,0.0
11583,69.0,34,40,5.0,0.0
11584,69.0,0,40,3.0,0.0
11585,76.0,0,90,5.0,0.0
11586,71.0,0,40,3.0,0.0
11587,60.0,14,30,6.0,0.0
11588,76.0,0,90,1.0,0.0
11589,67.0,48,40,7.0,0.0
11590,71.0,0,40,5.0,0.0
11591,67.0,0,40,2.0,0.0
11592,48.0,0,30,8.0,0.0
11593,48.0,0,30,4.0,0.0
11594,72.0,34,40,5.0,0.0
11595,72.0,0,40,3.0,0.0
11596,69.0,0,40,2.0,0.0
11597,69.0,0,40,7.0,0.0
11598,74.0,0,90,5.0,0.0
11599,67.0,0,30,6.0,0.0
11600,74.0,0,90,1.0,0.0
11601,55.0,0,30,8.0,0.0
11602,71.0,0,90,5.0,0.0
11603,71.0,48,40,7.0,0.0
11604,74.0,34,90,3.0,0.0
11605,55.0,14,30,4.0,0.0
11606,71.0,0,40,2.0,0.0
11607,72.0,0,40,2.0,0.0
11608,72.0,0,40,7.0,0.0
11609,79.0,96,90,5.0,0.0
11610,79.0,0,90,1.0,0.0
11611,74.0,48,40,2.0,0.0
11612,52.0,14,30,8.0,0.0
11613,64.0,0,30,6.0,0.0
11614,71.0,0,90,5.0,0.0
11615,52.0,0,30,4.0,0.0
11616,67.0,0,90,3.0,0.0
11617,74.0,0,40,7.0,0.0
11618,76.0,0,40,7.0,0.0
11619,76.0,0,40,2.0,0.0
11620,69.0,0,90,6.0,0.0
11621,57.0,0,90,8.0,0.0
11622,72.0,0,90,3.0,0.0
11623,77.0,0,240,7.0,0.0
11624,77.0,48,240,2.0,0.0
11625,57.0,0,90,4.0,0.0
11626,72.0,0,180,5.0,0.0
11627,77.0,0,40,1.0,0.0
11628,77.0,0,40,5.0,0.0
11629,72.0,48,40,7.0,0.0
11630,79.0,48,40,1.0,0.0
11631,55.0,0,40,4.0,0.0
11632,71.0,0,40,3.0,0.0
11633,55.0,0,40,8.0,0.0
11634,67.0,0,40,6.0,0.0
11635,71.0,0,40,7.0,0.0
11636,79.0,0,40,5.0,0.0
11637,65.0,0,40,6.0,0.0
11638,69.0,48,40,3.0,0.0
11639,53.0,0,40,4.0,0.0
11640,53.0,0,40,8.0,0.0
11641,81.0,0,40,1.0,0.0
11642,69.0,0,40,7.0,0.0
11643,81.0,0,40,5.0,0.0
11644,71.0,0,90,3.0,0.0
11645,74.0,0,90,1.0,0.0
11646,55.0,0,150,8.0,0.0
11647,55.0,0,150,4.0,0.0
11648,71.0,30,150,7.0,0.0
11649,71.0,0,90,5.0,0.0
11650,67.0,0,150,6.0,0.0
11651,74.0,0,90,5.0,0.0
11652,81.0,0,40,7.0,0.0
11653,77.0,48,40,2.0,0.0
11654,76.0,0,40,2.0,0.0
11655,76.0,30,150,3.0,0.0
11656,79.0,18,40,7.0,0.0
11657,79.0,0,150,1.0,0.0
11658,79.0,0,150,5.0,0.0
11659,76.0,0,150,5.0,0.0
11660,77.0,0,40,7.0,0.0
11661,74.0,48,40,2.0,0.0
11662,57.0,18,40,4.0,0.0
11663,72.0,0,90,2.0,0.0
11664,57.0,0,40,8.0,0.0
11665,76.0,0,90,7.0,0.0
11666,69.0,0,40,6.0,0.0
11667,72.0,0,90,7.0,0.0
11668,60.0,0,40,4.0,0.0
11669,60.0,48,40,8.0,0.0
11670,72.0,0,40,6.0,0.0
11671,77.0,0,150,1.0,0.0
11672,81.0,0,90,2.0,0.0
11673,74.0,30,150,3.0,0.0
11674,53.0,0,40,8.0,0.0
11675,81.0,0,90,7.0,0.0
11676,53.0,48,40,4.0,0.0
11677,77.0,18,150,5.0,0.0
11678,74.0,0,150,5.0,0.0
11679,65.0,0,40,6.0,0.0
11680,77.0,0,90,7.0,0.0
11681,57.0,48,40,4.0,0.0
11682,69.0,0,40,6.0,0.0
11683,57.0,0,40,8.0,0.0
11684,74.0,0,90,7.0,0.0
11685,55.0,0,40,8.0,0.0
11686,67.0,0,40,6.0,0.0
11687,71.0,0,90,7.0,0.0
11688,55.0,0,40,4.0,0.0
11689,71.0,0,90,2.0,0.0
11690,65.0,0,40,6.0,0.0
11691,53.0,0,40,4.0,0.0
11692,71.0,0,40,5.0,0.0
11693,53.0,0,40,8.0,0.0
11694,74.0,0,40,1.0,0.0
11695,74.0,48,40,5.0,0.0
11696,72.0,0,150,3.0,0.0
11697,76.0,0,90,7.0,0.0
11698,79.0,0,90,2.0,0.0
11699,76.0,30,150,5.0,0.0
11700,64.0,0,40,6.0,0.0
11701,79.0,0,90,7.0,0.0
11702,52.0,48,40,8.0,0.0
11703,52.0,0,40,4.0,0.0
11704,76.0,0,150,1.0,0.0
11705,72.0,0,150,5.0,0.0
11706,55.0,48,40,4.0,0.0
11707,55.0,0,40,8.0,0.0
11708,67.0,0,40,6.0,0.0
11709,72.0,0,90,7.0,0.0
11710,69.0,0,90,7.0,0.0
11711,53.0,0,40,8.0,0.0
11712,65.0,18,40,6.0,0.0
11713,69.0,0,90,2.0,0.0
11714,53.0,0,40,4.0,0.0
11715,57.0,48,40,8.0,0.0
11716,57.0,0,40,4.0,0.0
11717,69.0,0,40,6.0,0.0
11718,74.0,0,90,7.0,0.0
11719,50.0,0,40,4.0,0.0
11720,62.0,48,40,6.0,0.0
11721,71.0,0,180,5.0,0.0
11722,74.0,48,180,5.0,0.0
11723,50.0,0,40,8.0,0.0
11724,77.0,0,180,7.0,0.0
11725,71.0,0,180,3.0,0.0
11726,74.0,0,180,1.0,0.0
11727,77.0,0,90,2.0,0.0
11728,53.0,48,40,4.0,0.0
11729,65.0,0,40,6.0,0.0
11730,53.0,0,40,8.0,0.0
11731,67.0,0,270,7.0,0.0
11732,52.0,48,40,4.0,0.0
11733,67.0,30,150,2.0,0.0
11734,64.0,0,40,6.0,0.0
11735,52.0,0,40,8.0,0.0
11736,62.0,0,40,6.0,0.0
11737,50.0,0,40,8.0,0.0
11738,50.0,0,40,4.0,0.0
11739,72.0,0,90,5.0,0.0
11740,76.0,0,40,5.0,0.0
11741,48.0,0,40,8.0,0.0
11742,48.0,0,40,4.0,0.0
11743,76.0,30,150,7.0,0.0
11744,76.0,0,40,1.0,0.0
11745,60.0,18,40,6.0,0.0
11746,72.0,0,90,3.0,0.0
11747,77.0,0,40,1.0,0.0
11748,77.0,0,40,5.0,0.0
11749,62.0,0,40,6.0,0.0
11750,50.0,0,40,4.0,0.0
11751,50.0,48,40,8.0,0.0
11752,64.0,0,40,6.0,0.0
11753,52.0,18,40,4.0,0.0
11754,79.0,0,40,1.0,0.0
11755,79.0,0,40,5.0,0.0
11756,67.0,0,90,3.0,0.0
11757,52.0,0,40,8.0,0.0
11758,65.0,0,40,6.0,0.0
11759,53.0,0,40,8.0,0.0
11760,81.0,0,40,5.0,0.0
11761,53.0,48,40,4.0,0.0
11762,81.0,0,40,1.0,0.0
11763,65.0,0,90,7.0,0.0
11764,74.0,0,90,7.0,0.0
11765,67.0,0,90,6.0,0.0
11766,55.0,0,90,4.0,0.0
11767,83.0,0,40,5.0,0.0
11768,65.0,0,90,3.0,0.0
11769,83.0,48,40,1.0,0.0
11770,55.0,0,90,8.0,0.0
11771,79.0,48,150,2.0,0.0
11772,79.0,0,40,5.0,0.0
11773,79.0,34,40,1.0,0.0
11774,72.0,0,90,7.0,0.0
11775,57.0,14,30,6.0,0.0
11776,84.0,18,240,1.0,0.0
11777,64.0,34,90,7.0,0.0
11778,45.0,0,30,4.0,0.0
11779,84.0,30,360,5.0,0.0
11780,45.0,0,30,8.0,0.0
11781,64.0,0,90,3.0,0.0
11782,83.0,0,40,5.0,0.0
11783,79.0,0,40,2.0,0.0
11784,69.0,30,150,3.0,0.0
11785,60.0,14,30,6.0,0.0
11786,48.0,0,30,4.0,0.0
11787,81.0,0,40,5.0,0.0
11788,77.0,48,40,2.0,0.0
11789,48.0,0,30,8.0,0.0
11790,76.0,48,90,7.0,0.0
11791,76.0,0,40,2.0,0.0
11792,79.0,0,40,5.0,0.0
11793,77.0,48,240,2.0,0.0
11794,50.0,0,90,8.0,0.0
11795,77.0,0,240,7.0,0.0
11796,50.0,0,90,4.0,0.0
11797,77.0,0,90,5.0,0.0
11798,62.0,0,90,6.0,0.0
11799,84.0,48,40,1.0,0.0
11800,72.0,0,40,7.0,0.0
11801,83.0,0,40,1.0,0.0
11802,62.0,0,180,3.0,0.0
11803,81.0,0,150,5.0,0.0
11804,74.0,18,40,7.0,0.0
11805,53.0,0,90,8.0,0.0
11806,53.0,0,90,4.0,0.0
11807,65.0,0,90,6.0,0.0
11808,76.0,34,40,7.0,0.0
11809,81.0,0,40,1.0,0.0
11810,83.0,0,150,5.0,0.0
11811,43.0,0,30,8.0,0.0
11812,83.0,0,150,1.0,0.0
11813,43.0,0,30,4.0,0.0
11814,55.0,14,30,6.0,0.0
11815,77.0,34,40,7.0,0.0
11816,77.0,0,40,2.0,0.0
11817,81.0,0,40,5.0,0.0
11818,76.0,0,40,7.0,0.0
11819,47.0,0,30,8.0,0.0
11820,59.0,0,30,6.0,0.0
11821,47.0,14,30,4.0,0.0
11822,79.0,18,40,5.0,0.0
11823,76.0,0,40,2.0,0.0
11824,67.0,30,150,3.0,0.0
11825,74.0,30,15,7.0,0.0
11826,74.0,66,40,2.0,0.0
11827,77.0,0,40,5.0,0.0
11828,76.0,0,90,5.0,0.0
11829,60.0,48,90,6.0,0.0
11830,76.0,0,90,2.0,0.0
11831,76.0,0,240,7.0,0.0
11832,48.0,0,90,8.0,0.0
11833,48.0,0,90,4.0,0.0
11834,71.0,0,40,7.0,0.0
11835,79.0,0,90,2.0,0.0
11836,82.0,0,90,5.0,0.0
11837,79.0,0,90,5.0,0.0
11838,72.0,48,90,5.0,0.0
11839,82.0,0,90,1.0,0.0
11840,64.0,0,90,6.0,0.0
11841,60.0,0,90,3.0,0.0
11842,52.0,0,90,8.0,0.0
11843,52.0,0,90,4.0,0.0
11844,72.0,48,40,7.0,0.0
11845,74.0,0,40,7.0,0.0
11846,41.0,0,40,8.0,0.0
11847,81.0,0,90,5.0,0.0
11848,77.0,0,90,5.0,0.0
11849,77.0,0,90,2.0,0.0
11850,81.0,0,90,1.0,0.0
11851,72.0,0,90,3.0,0.0
11852,41.0,0,90,4.0,0.0
11853,53.0,48,40,6.0,0.0
11854,72.0,48,90,5.0,0.0
11855,52.0,0,40,8.0,0.0
11856,72.0,0,40,7.0,0.0
11857,64.0,0,40,6.0,0.0
11858,74.0,0,90,7.0,0.0
11859,62.0,48,40,6.0,0.0
11860,72.0,0,90,7.0,0.0
11861,69.0,0,90,7.0,0.0
11862,50.0,0,40,8.0,0.0
11863,60.0,0,40,6.0,0.0
11864,48.0,48,40,8.0,0.0
11865,76.0,0,90,2.0,0.0
11866,43.0,48,40,8.0,0.0
11867,55.0,0,40,6.0,0.0
11868,43.0,0,90,4.0,0.0
11869,72.0,0,90,5.0,0.0
11870,76.0,0,90,5.0,0.0
11871,79.0,0,90,5.0,0.0
11872,72.0,48,90,3.0,0.0
11873,79.0,0,90,1.0,0.0
11874,64.0,0,40,6.0,0.0
11875,52.0,0,40,8.0,0.0
11876,50.0,48,40,8.0,0.0
11877,62.0,0,40,6.0,0.0
11878,76.0,48,90,7.0,0.0
11879,72.0,0,90,7.0,0.0
11880,67.0,0,90,7.0,0.0
11881,60.0,0,40,6.0,0.0
11882,48.0,0,40,8.0,0.0
11883,45.0,48,40,8.0,0.0
11884,77.0,0,90,5.0,0.0
11885,77.0,48,90,1.0,0.0
11886,72.0,0,90,5.0,0.0
11887,65.0,0,90,5.0,0.0
11888,72.0,0,90,2.0,0.0
11889,45.0,0,90,4.0,0.0
11890,57.0,0,40,6.0,0.0
11891,65.0,0,90,3.0,0.0
11892,52.0,0,40,8.0,0.0
11893,64.0,0,40,6.0,0.0
11894,62.0,0,40,6.0,0.0
11895,65.0,0,90,7.0,0.0
11896,72.0,0,90,7.0,0.0
11897,77.0,0,90,7.0,0.0
11898,50.0,48,40,8.0,0.0
11899,60.0,0,40,6.0,0.0
11900,48.0,48,40,8.0,0.0
11901,40.0,0,40,8.0,0.0
11902,67.0,0,90,3.0,0.0
11903,72.0,0,90,2.0,0.0
11904,40.0,48,90,4.0,0.0
11905,67.0,0,90,5.0,0.0
11906,72.0,0,90,5.0,0.0
11907,76.0,0,90,5.0,0.0
11908,52.0,48,40,6.0,0.0
11909,76.0,0,90,1.0,0.0
11910,64.0,0,40,6.0,0.0
11911,52.0,0,40,8.0,0.0
11912,50.0,0,40,8.0,0.0
11913,62.0,48,40,6.0,0.0
11914,72.0,0,90,7.0,0.0
11915,76.0,0,90,7.0,0.0
11916,79.0,0,90,7.0,0.0
11917,48.0,0,40,8.0,0.0
11918,60.0,48,40,6.0,0.0
11919,72.0,0,90,2.0,0.0
11920,41.0,0,40,8.0,0.0
11921,74.0,0,90,5.0,0.0
11922,72.0,0,90,5.0,0.0
11923,69.0,0,90,5.0,0.0
11924,41.0,0,90,4.0,0.0
11925,53.0,48,40,6.0,0.0
11926,69.0,0,90,3.0,0.0
11927,74.0,48,90,1.0,0.0
11928,52.0,0,40,8.0,0.0
11929,64.0,0,40,6.0,0.0
11930,50.0,48,40,8.0,0.0
11931,81.0,48,90,7.0,0.0
11932,62.0,0,40,6.0,0.0
11933,72.0,0,90,7.0,0.0
11934,74.0,0,90,7.0,0.0
11935,60.0,0,40,6.0,0.0
11936,48.0,0,40,8.0,0.0
11937,67.0,0,90,5.0,0.0
11938,72.0,0,90,5.0,0.0
11939,72.0,0,90,2.0,0.0
11940,43.0,48,40,8.0,0.0
11941,76.0,0,90,1.0,0.0
11942,76.0,48,90,5.0,0.0
11943,55.0,0,40,6.0,0.0
11944,43.0,0,90,4.0,0.0
11945,67.0,0,90,3.0,0.0
11946,62.0,0,40,6.0,0.0
11947,52.0,0,40,8.0,0.0
11948,79.0,0,90,7.0,0.0
11949,50.0,0,40,8.0,0.0
11950,60.0,48,40,6.0,0.0
11951,76.0,0,90,7.0,0.0
11952,72.0,0,90,7.0,0.0
11953,59.0,0,40,6.0,0.0
11954,48.0,48,40,8.0,0.0
11955,45.0,0,40,8.0,0.0
11956,57.0,48,40,6.0,0.0
11957,77.0,0,90,1.0,0.0
11958,72.0,48,90,2.0,0.0
11959,45.0,0,90,4.0,0.0
11960,65.0,0,90,5.0,0.0
11961,72.0,0,90,5.0,0.0
11962,65.0,0,90,3.0,0.0
11963,77.0,0,90,5.0,0.0
11964,52.0,0,40,8.0,0.0
11965,60.0,0,40,6.0,0.0
11966,77.0,0,90,7.0,0.0
11967,50.0,48,40,8.0,0.0
11968,65.0,48,90,7.0,0.0
11969,72.0,0,90,7.0,0.0
11970,59.0,0,40,6.0,0.0
11971,57.0,0,40,6.0,0.0
11972,48.0,0,40,8.0,0.0
11973,72.0,0,90,3.0,0.0
11974,79.0,0,90,1.0,0.0
11975,76.0,0,90,5.0,0.0
11976,52.0,48,40,6.0,0.0
11977,40.0,0,40,8.0,0.0
11978,76.0,0,90,2.0,0.0
11979,72.0,0,90,5.0,0.0
11980,40.0,0,90,4.0,0.0
11981,79.0,0,90,5.0,0.0
11982,58.0,48,40,6.0,0.0
11983,46.0,0,40,8.0,0.0
11984,67.0,48,90,7.0,0.0
11985,72.0,0,90,7.0,0.0
11986,45.0,48,40,8.0,0.0
11987,57.0,0,40,6.0,0.0
11988,76.0,0,90,7.0,0.0
11989,43.0,0,40,8.0,0.0
11990,55.0,0,40,6.0,0.0
11991,74.0,0,90,2.0,0.0
11992,81.0,48,90,1.0,0.0
11993,41.0,0,40,8.0,0.0
11994,72.0,0,90,5.0,0.0
11995,72.0,0,90,3.0,0.0
11996,41.0,0,90,4.0,0.0
11997,74.0,0,90,5.0,0.0
11998,81.0,0,90,5.0,0.0
11999,53.0,48,40,6.0,0.0
12000,45.0,0,40,8.0,0.0
12001,57.0,0,40,6.0,0.0
12002,69.0,0,90,7.0,0.0
12003,74.0,0,90,7.0,0.0
12004,55.0,0,40,6.0,0.0
12005,62.0,0,90,7.0,0.0
12006,43.0,48,40,8.0,0.0
12007,41.0,0,40,8.0,0.0
12008,53.0,34,40,6.0,0.0
12009,74.0,0,30,2.0,0.0
12010,62.0,0,90,7.0,0.0
12011,79.0,14,30,1.0,0.0
12012,79.0,0,90,5.0,0.0
12013,55.0,0,90,6.0,0.0
12014,74.0,0,90,5.0,0.0
12015,43.0,48,40,4.0,0.0
12016,67.0,0,90,7.0,0.0
12017,43.0,0,90,8.0,0.0
12018,71.0,0,30,3.0,0.0
12019,71.0,0,90,5.0,0.0
12020,59.0,0,90,7.0,0.0
12021,41.0,34,40,4.0,0.0
12022,71.0,0,90,5.0,0.0
12023,43.0,0,90,6.0,0.0
12024,74.0,0,90,5.0,0.0
12025,71.0,0,30,3.0,0.0
12026,43.0,0,30,4.0,0.0
12027,77.0,0,90,5.0,0.0
12028,67.0,0,90,7.0,0.0
12029,77.0,0,30,1.0,0.0
12030,62.0,0,90,7.0,0.0
12031,43.0,0,90,8.0,0.0
12032,71.0,48,90,7.0,0.0
12033,74.0,62,30,2.0,0.0
12034,36.0,0,90,4.0,0.0
12035,67.0,0,90,7.0,0.0
12036,67.0,0,90,3.0,0.0
12037,64.0,0,90,7.0,0.0
12038,72.0,0,90,7.0,0.0
12039,36.0,48,90,8.0,0.0
12040,76.0,0,90,1.0,0.0
12041,72.0,0,90,2.0,0.0
12042,72.0,0,90,5.0,0.0
12043,67.0,0,90,5.0,0.0
12044,36.0,48,40,6.0,0.0
12045,76.0,0,90,5.0,0.0
12046,48.0,0,40,6.0,0.0
12047,50.0,48,40,6.0,0.0
12048,52.0,48,40,6.0,0.0
12049,53.0,48,40,6.0,0.0
12050,52.0,48,40,6.0,0.0
12051,50.0,48,40,6.0,0.0
12052,48.0,96,40,6.0,0.0
12053,55.0,30,150,6.0,0.0
12054,67.0,48,40,5.0,0.0
12055,71.0,18,40,5.0,0.0
12056,74.0,96,40,5.0,0.0
12057,79.0,0,180,5.0,0.0
12058,76.0,48,40,5.0,0.0
12059,73.0,48,40,5.0,0.0
12060,70.0,96,40,5.0,0.0
12061,69.0,0,150,5.0,0.0
12062,74.0,30,150,5.0,0.0
12063,77.0,0,150,5.0,0.0
12064,50.0,48,40,6.0,0.0
12065,52.0,18,40,6.0,0.0
12066,53.0,48,40,6.0,0.0
12067,55.0,48,40,6.0,0.0
12068,53.0,48,40,6.0,0.0
12069,52.0,48,40,6.0,0.0
12070,50.0,96,40,6.0,0.0
12071,57.0,30,150,6.0,0.0
12072,69.0,48,40,5.0,0.0
12073,72.0,18,40,5.0,0.0
12074,76.0,96,40,5.0,0.0
12075,81.0,48,180,5.0,0.0
12076,78.0,48,40,5.0,0.0
12077,75.0,48,40,5.0,0.0
12078,72.0,0,40,5.0,0.0
12079,79.0,0,480,5.0,0.0
12080,52.0,0,90,6.0,0.0
12081,67.0,48,40,6.0,0.0
12082,76.0,30,150,5.0,0.0
12083,64.0,48,40,5.0,0.0
12084,65.0,18,40,5.0,0.0
12085,67.0,48,40,5.0,0.0
12086,69.0,48,40,5.0,0.0
12087,67.0,48,40,5.0,0.0
12088,65.0,48,40,5.0,0.0
12089,64.0,96,40,5.0,0.0
12090,69.0,46,330,5.0,0.0
12091,53.0,48,40,6.0,0.0
12092,77.0,0,90,5.0,0.0
12093,55.0,48,40,6.0,0.0
12094,57.0,48,40,6.0,0.0
12095,72.0,0,90,5.0,0.0
12096,58.0,48,40,6.0,0.0
12097,57.0,48,40,6.0,0.0
12098,55.0,2,40,6.0,0.0
12099,77.0,48,90,5.0,0.0
12100,53.0,0,40,6.0,0.0
12101,76.0,30,360,5.0,0.0
12102,60.0,48,40,6.0,0.0
12103,48.0,48,40,6.0,0.0
12104,72.0,0,90,5.0,0.0
12105,50.0,48,40,6.0,0.0
12106,52.0,48,40,6.0,0.0
12107,67.0,0,90,5.0,0.0
12108,53.0,48,40,6.0,0.0
12109,52.0,48,40,6.0,0.0
12110,50.0,18,40,6.0,0.0
12111,72.0,0,90,5.0,0.0
12112,48.0,48,40,6.0,0.0
12113,71.0,30,360,5.0,0.0
12114,55.0,48,40,6.0,0.0
12115,43.0,48,40,6.0,0.0
12116,45.0,48,40,6.0,0.0
12117,79.0,48,90,5.0,0.0
12118,47.0,0,40,6.0,0.0
12119,48.0,48,40,6.0,0.0
12120,74.0,0,90,5.0,0.0
12121,47.0,48,40,6.0,0.0
12122,79.0,0,90,5.0,0.0
12123,45.0,18,40,6.0,0.0
12124,43.0,48,40,6.0,0.0
12125,50.0,48,40,6.0,0.0
12126,77.0,30,360,5.0,0.0
12127,38.0,48,40,6.0,0.0
12128,74.0,48,90,5.0,0.0
12129,40.0,48,40,6.0,0.0
12130,41.0,0,40,6.0,0.0
12131,69.0,0,90,5.0,0.0
12132,43.0,48,40,6.0,0.0
12133,41.0,48,40,6.0,0.0
12134,74.0,0,90,5.0,0.0
12135,40.0,18,40,6.0,0.0
12136,38.0,48,40,6.0,0.0
12137,72.0,30,360,5.0,0.0
12138,45.0,48,40,6.0,0.0
12139,57.0,48,40,6.0,0.0
12140,59.0,48,40,6.0,0.0
12141,81.0,48,90,5.0,0.0
12142,60.0,0,40,6.0,0.0
12143,76.0,48,90,5.0,0.0
12144,62.0,48,40,6.0,0.0
12145,60.0,0,40,6.0,0.0
12146,59.0,18,40,6.0,0.0
12147,81.0,0,90,5.0,0.0
12148,57.0,96,40,6.0,0.0
12149,79.0,48,420,5.0,0.0
12150,64.0,0,90,6.0,0.0
12151,71.0,48,40,5.0,0.0
12152,62.0,0,90,6.0,0.0
12153,73.0,48,40,5.0,0.0
12154,74.0,48,40,5.0,0.0
12155,76.0,48,40,5.0,0.0
12156,61.0,0,90,6.0,0.0
12157,74.0,48,40,5.0,0.0
12158,73.0,48,40,5.0,0.0
12159,57.0,48,90,6.0,0.0
12160,71.0,0,40,5.0,0.0
12161,69.0,48,90,5.0,0.0
12162,62.0,30,540,6.0,0.0
12163,77.0,0,40,5.0,0.0
12164,67.0,48,90,5.0,0.0
12165,79.0,48,40,5.0,0.0
12166,81.0,0,40,5.0,0.0
12167,82.0,48,40,5.0,0.0
12168,65.0,48,90,5.0,0.0
12169,81.0,0,40,5.0,0.0
12170,70.0,48,90,5.0,0.0
12171,79.0,48,40,5.0,0.0
12172,77.0,0,40,5.0,0.0
12173,77.0,48,40,5.0,0.0
12174,67.0,48,90,6.0,0.0
12175,76.0,0,40,5.0,0.0
12176,65.0,48,90,6.0,0.0
12177,77.0,18,40,5.0,0.0
12178,79.0,0,40,5.0,0.0
12179,81.0,48,40,5.0,0.0
12180,60.0,46,330,6.0,0.0
12181,64.0,48,90,6.0,0.0
12182,79.0,0,40,5.0,0.0
12183,77.0,48,40,5.0,0.0
12184,69.0,0,90,6.0,0.0
12185,76.0,48,40,5.0,0.0
12186,76.0,48,40,5.0,0.0
12187,65.0,0,90,6.0,0.0
12188,74.0,48,40,5.0,0.0
12189,64.0,48,90,6.0,0.0
12190,76.0,2,40,5.0,0.0
12191,77.0,0,40,5.0,0.0
12192,79.0,48,40,5.0,0.0
12193,58.0,48,240,6.0,0.0
12194,62.0,0,90,6.0,0.0
12195,77.0,48,40,5.0,0.0
12196,76.0,48,40,5.0,0.0
12197,67.0,48,90,6.0,0.0
12198,74.0,0,40,5.0,0.0
12199,64.0,48,90,5.0,0.0
12200,72.0,30,540,5.0,0.0
12201,58.0,0,40,6.0,0.0
12202,57.0,0,40,6.0,0.0
12203,66.0,48,40,5.0,0.0
12204,55.0,0,40,6.0,0.0
12205,67.0,48,40,5.0,0.0
12206,69.0,48,40,5.0,0.0
12207,54.0,0,40,6.0,0.0
12208,55.0,0,40,6.0,0.0
12209,67.0,48,40,5.0,0.0
12210,66.0,0,40,5.0,0.0
12211,57.0,48,40,6.0,0.0
12212,54.0,48,40,6.0,0.0
12213,64.0,0,40,5.0,0.0
12214,46.0,48,240,6.0,0.0
12215,67.0,48,40,5.0,0.0
12216,66.0,48,40,5.0,0.0
12217,64.0,18,40,5.0,0.0
12218,62.0,48,40,5.0,0.0
12219,67.0,46,540,5.0,0.0
12220,70.0,48,300,5.0,0.0
12221,46.0,48,40,6.0,0.0
12222,48.0,48,40,6.0,0.0
12223,50.0,48,40,6.0,0.0
12224,51.0,48,40,6.0,0.0
12225,50.0,0,40,6.0,0.0
12226,48.0,48,40,6.0,0.0
12227,70.0,0,90,5.0,0.0
12228,46.0,48,40,6.0,0.0
12229,75.0,0,90,5.0,0.0
12230,48.0,48,40,6.0,0.0
12231,43.0,48,40,6.0,0.0
12232,45.0,2,40,6.0,0.0
12233,72.0,0,90,5.0,0.0
12234,46.0,48,40,6.0,0.0
12235,70.0,48,40,5.0,0.0
12236,66.0,48,90,5.0,0.0
12237,36.0,0,90,6.0,0.0
12238,69.0,0,40,5.0,0.0
12239,57.0,0,90,5.0,0.0
12240,48.0,96,90,6.0,0.0
12241,67.0,48,40,5.0,0.0
12242,66.0,0,40,5.0,0.0
12243,67.0,30,360,5.0,0.0
12244,46.0,48,90,6.0,0.0
12245,58.0,0,40,5.0,0.0
12246,60.0,0,40,5.0,0.0
12247,45.0,48,40,6.0,0.0
12248,62.0,0,40,5.0,0.0
12249,43.0,48,40,6.0,0.0
12250,63.0,48,40,5.0,0.0
12251,48.0,0,90,6.0,0.0
12252,62.0,48,40,5.0,0.0
12253,45.0,48,90,6.0,0.0
12254,60.0,18,40,5.0,0.0
12255,58.0,0,40,5.0,0.0
12256,66.0,30,150,5.0,0.0
12257,50.0,48,90,6.0,0.0
12258,57.0,48,40,5.0,0.0
12259,59.0,0,40,5.0,0.0
12260,60.0,18,40,5.0,0.0
12261,38.0,48,90,6.0,0.0
12262,62.0,0,40,5.0,0.0
12263,43.0,0,150,6.0,0.0
12264,67.0,30,150,5.0,0.0
12265,60.0,48,40,5.0,0.0
12266,59.0,0,40,5.0,0.0
12267,43.0,48,40,8.0,0.0
12268,57.0,0,40,5.0,0.0
12269,45.0,18,40,8.0,0.0
12270,55.0,48,40,5.0,0.0
12271,47.0,0,40,8.0,0.0
12272,48.0,48,40,8.0,0.0
12273,47.0,48,40,8.0,0.0
12274,45.0,48,40,8.0,0.0
12275,43.0,96,40,8.0,0.0
12276,50.0,30,150,8.0,0.0
12277,62.0,48,40,7.0,0.0
12278,66.0,18,40,7.0,0.0
12279,69.0,48,40,7.0,0.0
12280,74.0,48,40,7.0,0.0
12281,71.0,48,40,7.0,0.0
12282,68.0,48,40,7.0,0.0
12283,65.0,96,40,7.0,0.0
12284,72.0,0,150,7.0,0.0
12285,64.0,30,150,7.0,0.0
12286,69.0,0,150,7.0,0.0
12287,45.0,48,40,8.0,0.0
12288,47.0,18,40,8.0,0.0
12289,48.0,48,40,8.0,0.0
12290,50.0,48,40,8.0,0.0
12291,48.0,48,40,8.0,0.0
12292,47.0,48,40,8.0,0.0
12293,45.0,96,40,8.0,0.0
12294,52.0,30,150,8.0,0.0
12295,64.0,48,40,7.0,0.0
12296,67.0,18,40,7.0,0.0
12297,71.0,48,40,7.0,0.0
12298,76.0,48,40,7.0,0.0
12299,73.0,48,40,7.0,0.0
12300,70.0,48,40,7.0,0.0
12301,67.0,48,40,7.0,0.0
12302,47.0,30,150,8.0,0.0
12303,66.0,48,40,7.0,0.0
12304,71.0,46,330,7.0,0.0
12305,74.0,0,480,7.0,0.0
12306,59.0,48,40,7.0,0.0
12307,60.0,18,40,7.0,0.0
12308,62.0,48,40,7.0,0.0
12309,64.0,48,40,7.0,0.0
12310,62.0,48,40,7.0,0.0
12311,60.0,2,40,7.0,0.0
12312,59.0,96,40,7.0,0.0
12313,64.0,46,330,7.0,0.0
12314,48.0,48,40,8.0,0.0
12315,50.0,48,40,8.0,0.0
12316,72.0,48,90,7.0,0.0
12317,52.0,0,40,8.0,0.0
12318,67.0,0,90,7.0,0.0
12319,53.0,48,40,8.0,0.0
12320,52.0,48,40,8.0,0.0
12321,50.0,2,40,8.0,0.0
12322,72.0,48,90,7.0,0.0
12323,48.0,0,40,8.0,0.0
12324,71.0,30,360,7.0,0.0
12325,55.0,48,40,8.0,0.0
12326,43.0,48,40,8.0,0.0
12327,67.0,48,90,7.0,0.0
12328,45.0,48,40,8.0,0.0
12329,47.0,0,40,8.0,0.0
12330,48.0,48,40,8.0,0.0
12331,62.0,48,90,7.0,0.0
12332,47.0,0,40,8.0,0.0
12333,67.0,48,90,7.0,0.0
12334,45.0,18,40,8.0,0.0
12335,43.0,0,40,8.0,0.0
12336,50.0,48,40,8.0,0.0
12337,66.0,30,360,7.0,0.0
12338,38.0,48,40,8.0,0.0
12339,40.0,48,40,8.0,0.0
12340,74.0,0,90,7.0,0.0
12341,42.0,48,40,8.0,0.0
12342,43.0,48,40,8.0,0.0
12343,69.0,48,90,7.0,0.0
12344,42.0,0,40,8.0,0.0
12345,74.0,48,90,7.0,0.0
12346,40.0,18,40,8.0,0.0
12347,38.0,0,40,8.0,0.0
12348,72.0,30,360,7.0,0.0
12349,45.0,48,40,8.0,0.0
12350,57.0,48,40,8.0,0.0
12351,69.0,48,90,7.0,0.0
12352,59.0,48,40,8.0,0.0
12353,60.0,0,40,8.0,0.0
12354,64.0,0,90,7.0,0.0
12355,62.0,48,40,8.0,0.0
12356,60.0,48,40,8.0,0.0
12357,69.0,48,90,7.0,0.0
12358,59.0,18,40,8.0,0.0
12359,57.0,0,40,8.0,0.0
12360,67.0,30,360,7.0,0.0
12361,64.0,48,40,8.0,0.0
12362,52.0,48,40,8.0,0.0
12363,54.0,48,40,8.0,0.0
12364,76.0,48,90,7.0,0.0
12365,55.0,0,40,8.0,0.0
12366,71.0,0,90,7.0,0.0
12367,57.0,48,40,8.0,0.0
12368,55.0,48,40,8.0,0.0
12369,76.0,96,90,7.0,0.0
12370,54.0,18,40,8.0,0.0
12371,52.0,0,40,8.0,0.0
12372,74.0,48,420,7.0,0.0
12373,59.0,48,90,8.0,0.0
12374,66.0,0,40,7.0,0.0
12375,68.0,48,40,7.0,0.0
12376,57.0,48,90,8.0,0.0
12377,69.0,0,40,7.0,0.0
12378,56.0,0,90,8.0,0.0
12379,71.0,48,40,7.0,0.0
12380,69.0,48,40,7.0,0.0
12381,68.0,48,40,7.0,0.0
12382,52.0,0,90,8.0,0.0
12383,66.0,48,40,7.0,0.0
12384,64.0,48,90,7.0,0.0
12385,57.0,46,540,8.0,0.0
12386,72.0,0,40,7.0,0.0
12387,62.0,48,90,7.0,0.0
12388,74.0,48,40,7.0,0.0
12389,76.0,0,40,7.0,0.0
12390,77.0,48,40,7.0,0.0
12391,60.0,0,90,7.0,0.0
12392,76.0,48,40,7.0,0.0
12393,74.0,48,40,7.0,0.0
12394,65.0,48,90,7.0,0.0
12395,72.0,0,40,7.0,0.0
12396,72.0,48,40,7.0,0.0
12397,62.0,0,90,7.0,0.0
12398,71.0,48,40,7.0,0.0
12399,60.0,48,90,7.0,0.0
12400,72.0,2,40,7.0,0.0
12401,74.0,0,40,7.0,0.0
12402,59.0,0,90,7.0,0.0
12403,76.0,48,40,7.0,0.0
12404,55.0,30,360,8.0,0.0
12405,74.0,48,40,7.0,0.0
12406,72.0,48,40,7.0,0.0
12407,64.0,48,90,7.0,0.0
12408,71.0,0,40,7.0,0.0
12409,60.0,48,90,7.0,0.0
12410,71.0,48,40,7.0,0.0
12411,69.0,0,40,7.0,0.0
12412,59.0,0,90,7.0,0.0
12413,71.0,18,40,7.0,0.0
12414,72.0,48,40,7.0,0.0
12415,53.0,48,240,8.0,0.0
12416,57.0,0,90,7.0,0.0
12417,74.0,48,40,7.0,0.0
12418,72.0,48,40,7.0,0.0
12419,62.0,48,90,7.0,0.0
12420,71.0,48,40,7.0,0.0
12421,69.0,0,40,7.0,0.0
12422,59.0,0,90,7.0,0.0
12423,67.0,30,540,7.0,0.0
12424,53.0,48,40,8.0,0.0
12425,52.0,0,40,8.0,0.0
12426,61.0,48,40,7.0,0.0
12427,50.0,48,40,8.0,0.0
12428,62.0,0,40,7.0,0.0
12429,49.0,48,40,8.0,0.0
12430,64.0,0,40,7.0,0.0
12431,50.0,48,40,8.0,0.0
12432,62.0,0,40,7.0,0.0
12433,61.0,0,40,7.0,0.0
12434,52.0,48,40,8.0,0.0
12435,59.0,48,40,7.0,0.0
12436,49.0,0,40,8.0,0.0
12437,62.0,48,40,7.0,0.0
12438,41.0,48,240,8.0,0.0
12439,61.0,48,40,7.0,0.0
12440,59.0,18,40,7.0,0.0
12441,57.0,48,40,7.0,0.0
12442,65.0,48,300,7.0,0.0
12443,62.0,48,660,7.0,0.0
12444,41.0,48,40,8.0,0.0
12445,43.0,48,40,8.0,0.0
12446,45.0,48,40,8.0,0.0
12447,46.0,48,40,8.0,0.0
12448,45.0,0,40,8.0,0.0
12449,65.0,0,90,7.0,0.0
12450,43.0,48,40,8.0,0.0
12451,41.0,48,40,8.0,0.0
12452,70.0,0,90,7.0,0.0
12453,43.0,48,40,8.0,0.0
12454,38.0,48,40,8.0,0.0
12455,67.0,48,90,7.0,0.0
12456,40.0,48,40,8.0,0.0
12457,41.0,0,40,8.0,0.0
12458,65.0,48,40,7.0,0.0
12459,43.0,0,90,8.0,0.0
12460,64.0,0,40,7.0,0.0
12461,45.0,96,90,8.0,0.0
12462,55.0,0,90,7.0,0.0
12463,62.0,48,40,7.0,0.0
12464,61.0,0,40,7.0,0.0
12465,46.0,0,90,8.0,0.0
12466,62.0,46,330,7.0,0.0
12467,53.0,48,40,8.0,0.0
12468,45.0,48,90,8.0,0.0
12469,55.0,48,40,8.0,0.0
12470,57.0,0,40,8.0,0.0
12471,43.0,48,90,8.0,0.0
12472,58.0,48,40,8.0,0.0
12473,57.0,0,40,8.0,0.0
12474,40.0,48,90,8.0,0.0
12475,55.0,2,40,8.0,0.0
12476,53.0,0,40,8.0,0.0
12477,52.0,48,40,8.0,0.0
12478,61.0,30,150,7.0,0.0
12479,45.0,48,90,8.0,0.0
12480,53.0,0,40,8.0,0.0
12481,45.0,48,90,8.0,0.0
12482,55.0,18,40,8.0,0.0
12483,57.0,0,40,8.0,0.0
12484,62.0,30,150,7.0,0.0
12485,38.0,0,150,8.0,0.0
12486,55.0,48,40,8.0,0.0
12487,53.0,48,40,8.0,0.0
12488,52.0,18,40,8.0,0.0
12489,50.0,96,40,8.0,0.0
12490,70.0,48,420,5.0,0.0
12491,62.0,48,40,5.0,0.0
12492,64.0,48,40,5.0,0.0
12493,55.0,0,40,6.0,0.0
12494,53.0,48,40,6.0,0.0
12495,65.0,0,40,5.0,0.0
12496,52.0,48,90,6.0,0.0
12497,67.0,48,40,5.0,0.0
12498,65.0,0,40,5.0,0.0
12499,64.0,48,40,5.0,0.0
12500,55.0,48,90,6.0,0.0
12501,62.0,0,40,5.0,0.0
12502,64.0,0,90,5.0,0.0
12503,48.0,0,90,6.0,0.0
12504,69.0,96,40,5.0,0.0
12505,52.0,0,90,6.0,0.0
12506,67.0,0,90,5.0,0.0
12507,69.0,48,40,5.0,0.0
12508,53.0,0,90,6.0,0.0
12509,70.0,48,40,5.0,0.0
12510,60.0,30,150,5.0,0.0
12511,69.0,48,40,5.0,0.0
12512,41.0,0,90,6.0,0.0
12513,67.0,18,40,5.0,0.0
12514,65.0,96,40,5.0,0.0
12515,72.0,48,420,7.0,0.0
12516,64.0,48,40,7.0,0.0
12517,57.0,0,40,8.0,0.0
12518,66.0,48,40,7.0,0.0
12519,55.0,0,40,8.0,0.0
12520,67.0,48,40,7.0,0.0
12521,69.0,48,40,7.0,0.0
12522,54.0,48,90,8.0,0.0
12523,67.0,0,40,7.0,0.0
12524,57.0,48,90,8.0,0.0
12525,66.0,48,40,7.0,0.0
12526,64.0,0,40,7.0,0.0
12527,50.0,96,90,8.0,0.0
12528,66.0,0,90,7.0,0.0
12529,70.0,0,40,7.0,0.0
12530,69.0,48,90,7.0,0.0
12531,54.0,0,90,8.0,0.0
12532,70.0,0,40,7.0,0.0
12533,55.0,0,90,8.0,0.0
12534,72.0,48,40,7.0,0.0
12535,62.0,30,150,7.0,0.0
12536,70.0,48,40,7.0,0.0
12537,43.0,96,90,8.0,0.0
12538,69.0,18,40,7.0,0.0
12539,67.0,0,40,7.0,0.0
12540,74.0,48,420,5.0,0.0
12541,66.0,48,40,5.0,0.0
12542,59.0,0,40,6.0,0.0
12543,68.0,48,40,5.0,0.0
12544,57.0,48,40,6.0,0.0
12545,69.0,0,40,5.0,0.0
12546,56.0,0,90,6.0,0.0
12547,71.0,48,40,5.0,0.0
12548,69.0,48,40,5.0,0.0
12549,59.0,48,90,6.0,0.0
12550,68.0,48,40,5.0,0.0
12551,66.0,0,40,5.0,0.0
12552,52.0,96,90,6.0,0.0
12553,68.0,0,90,5.0,0.0
12554,72.0,0,40,5.0,0.0
12555,56.0,48,90,6.0,0.0
12556,71.0,0,90,5.0,0.0
12557,72.0,0,40,5.0,0.0
12558,64.0,30,150,5.0,0.0
12559,74.0,48,40,5.0,0.0
12560,57.0,48,90,6.0,0.0
12561,72.0,0,40,5.0,0.0
12562,71.0,18,40,5.0,0.0
12563,45.0,96,90,6.0,0.0
12564,69.0,0,40,5.0,0.0
12565,77.0,48,420,7.0,0.0
12566,69.0,48,40,7.0,0.0
12567,62.0,0,40,8.0,0.0
12568,71.0,48,40,7.0,0.0
12569,60.0,0,40,8.0,0.0
12570,72.0,48,40,7.0,0.0
12571,74.0,48,40,7.0,0.0
12572,59.0,0,90,8.0,0.0
12573,72.0,48,40,7.0,0.0
12574,71.0,48,40,7.0,0.0
12575,62.0,0,90,8.0,0.0
12576,69.0,48,40,7.0,0.0
12577,71.0,0,90,7.0,0.0
12578,55.0,0,90,8.0,0.0
12579,76.0,96,40,7.0,0.0
12580,59.0,0,90,8.0,0.0
12581,74.0,48,90,7.0,0.0
12582,76.0,0,40,7.0,0.0
12583,60.0,0,90,8.0,0.0
12584,67.0,30,150,7.0,0.0
12585,77.0,48,40,7.0,0.0
12586,76.0,0,40,7.0,0.0
12587,67.0,48,40,5.0,0.0
12588,48.0,0,90,8.0,0.0
12589,48.0,0,40,6.0,0.0
12590,74.0,0,40,7.0,0.0
12591,69.0,18,40,5.0,0.0
12592,72.0,0,40,7.0,0.0
12593,50.0,0,40,6.0,0.0
12594,71.0,34,40,5.0,0.0
12595,52.0,14,30,6.0,0.0
12596,72.0,48,40,5.0,0.0
12597,74.0,34,40,5.0,0.0
12598,76.0,48,40,5.0,0.0
12599,48.0,14,30,6.0,0.0
12600,77.0,34,40,5.0,0.0
12601,55.0,14,30,6.0,0.0
12602,76.0,48,40,5.0,0.0
12603,74.0,34,40,5.0,0.0
12604,52.0,14,30,6.0,0.0
12605,72.0,48,40,5.0,0.0
12606,71.0,96,40,5.0,0.0
12607,72.0,0,150,5.0,0.0
12608,57.0,0,90,6.0,0.0
12609,71.0,48,40,5.0,0.0
12610,55.0,48,40,6.0,0.0
12611,69.0,48,150,5.0,0.0
12612,53.0,0,40,6.0,0.0
12613,77.0,48,40,5.0,0.0
12614,71.0,18,150,5.0,0.0
12615,55.0,30,150,6.0,0.0
12616,69.0,48,40,5.0,0.0
12617,67.0,48,90,5.0,0.0
12618,76.0,48,90,5.0,0.0
12619,65.0,48,150,5.0,0.0
12620,57.0,0,40,6.0,0.0
12621,69.0,48,40,5.0,0.0
12622,60.0,0,40,6.0,0.0
12623,53.0,0,40,6.0,0.0
12624,74.0,0,150,5.0,0.0
12625,57.0,48,40,6.0,0.0
12626,65.0,0,40,5.0,0.0
12627,55.0,48,40,6.0,0.0
12628,64.0,0,40,5.0,0.0
12629,67.0,0,40,5.0,0.0
12630,53.0,48,40,6.0,0.0
12631,72.0,0,150,5.0,0.0
12632,52.0,48,40,6.0,0.0
12633,55.0,0,40,6.0,0.0
12634,64.0,48,40,5.0,0.0
12635,62.0,0,150,5.0,0.0
12636,53.0,48,40,6.0,0.0
12637,65.0,0,40,5.0,0.0
12638,57.0,48,40,6.0,0.0
12639,71.0,0,90,5.0,0.0
12640,50.0,48,40,6.0,0.0
12641,53.0,0,40,6.0,0.0
12642,62.0,48,40,5.0,0.0
12643,60.0,30,150,5.0,0.0
12644,52.0,48,40,6.0,0.0
12645,72.0,48,90,5.0,0.0
12646,50.0,0,40,6.0,0.0
12647,48.0,0,40,6.0,0.0
12648,71.0,18,40,5.0,0.0
12649,69.0,0,40,5.0,0.0
12650,50.0,48,40,6.0,0.0
12651,67.0,30,360,5.0,0.0
12652,52.0,48,40,6.0,0.0
12653,62.0,48,40,5.0,0.0
12654,53.0,0,40,6.0,0.0
12655,60.0,48,40,5.0,0.0
12656,55.0,34,90,6.0,0.0
12657,59.0,0,40,5.0,0.0
12658,62.0,48,40,5.0,0.0
12659,45.0,14,30,6.0,0.0
12660,60.0,34,40,5.0,0.0
12661,59.0,18,40,5.0,0.0
12662,48.0,14,30,6.0,0.0
12663,57.0,96,40,5.0,0.0
12664,50.0,48,90,6.0,0.0
12665,65.0,30,360,5.0,0.0
12666,60.0,0,40,5.0,0.0
12667,59.0,48,40,5.0,0.0
12668,53.0,34,90,6.0,0.0
12669,57.0,0,40,5.0,0.0
12670,60.0,48,40,5.0,0.0
12671,43.0,14,30,6.0,0.0
12672,59.0,34,40,5.0,0.0
12673,57.0,18,40,5.0,0.0
12674,47.0,14,30,6.0,0.0
12675,55.0,96,40,5.0,0.0
12676,48.0,0,90,6.0,0.0
12677,64.0,48,240,5.0,0.0
12678,58.0,48,40,5.0,0.0
12679,52.0,0,90,6.0,0.0
12680,57.0,48,40,5.0,0.0
12681,55.0,48,40,5.0,0.0
12682,57.0,30,150,5.0,0.0
12683,41.0,0,40,6.0,0.0
12684,52.0,0,40,6.0,0.0
12685,67.0,48,40,5.0,0.0
12686,50.0,18,40,6.0,0.0
12687,65.0,0,40,5.0,0.0
12688,48.0,48,40,6.0,0.0
12689,64.0,0,40,5.0,0.0
12690,43.0,48,40,6.0,0.0
12691,62.0,0,40,5.0,0.0
12692,59.0,0,240,5.0,0.0
12693,65.0,48,40,5.0,0.0
12694,50.0,0,40,6.0,0.0
12695,48.0,48,40,6.0,0.0
12696,64.0,0,40,5.0,0.0
12697,47.0,48,40,6.0,0.0
12698,62.0,0,40,5.0,0.0
12699,67.0,48,240,5.0,0.0
12700,40.0,48,40,6.0,0.0
12701,65.0,48,40,5.0,0.0
12702,50.0,0,40,6.0,0.0
12703,48.0,48,40,6.0,0.0
12704,64.0,0,40,5.0,0.0
12705,62.0,48,40,5.0,0.0
12706,47.0,0,40,6.0,0.0
12707,45.0,0,40,6.0,0.0
12708,60.0,0,240,5.0,0.0
12709,70.0,0,40,5.0,0.0
12710,43.0,48,40,6.0,0.0
12711,69.0,0,40,5.0,0.0
12712,41.0,48,40,6.0,0.0
12713,67.0,0,40,5.0,0.0
12714,40.0,48,40,6.0,0.0
12715,38.0,48,40,6.0,0.0
12716,65.0,48,240,5.0,0.0
12717,48.0,48,40,6.0,0.0
12718,64.0,0,40,5.0,0.0
12719,62.0,0,40,5.0,0.0
12720,47.0,48,40,6.0,0.0
12721,45.0,48,40,6.0,0.0
12722,60.0,0,40,5.0,0.0
12723,59.0,30,150,5.0,0.0
12724,43.0,0,40,6.0,0.0
12725,69.0,0,40,5.0,0.0
12726,41.0,48,40,6.0,0.0
12727,67.0,0,40,5.0,0.0
12728,40.0,18,40,6.0,0.0
12729,65.0,48,40,5.0,0.0
12730,38.0,0,40,6.0,0.0
12731,36.0,48,40,6.0,0.0
12732,64.0,0,150,5.0,0.0
12733,55.0,0,40,5.0,0.0
12734,47.0,48,40,6.0,0.0
12735,60.0,48,150,5.0,0.0
12736,45.0,48,40,6.0,0.0
12737,43.0,48,40,6.0,0.0
12738,64.0,0,40,5.0,0.0
12739,38.0,0,40,6.0,0.0
12740,66.0,48,150,5.0,0.0
12741,48.0,0,40,6.0,0.0
12742,57.0,48,40,5.0,0.0
12743,47.0,0,40,6.0,0.0
12744,62.0,48,150,5.0,0.0
12745,66.0,0,40,5.0,0.0
12746,45.0,48,40,6.0,0.0
12747,40.0,0,40,6.0,0.0
12748,67.0,48,150,5.0,0.0
12749,59.0,48,40,5.0,0.0
12750,50.0,0,40,6.0,0.0
12751,48.0,0,40,6.0,0.0
12752,64.0,48,150,5.0,0.0
12753,47.0,0,40,6.0,0.0
12754,67.0,48,40,5.0,0.0
12755,42.0,0,40,6.0,0.0
12756,69.0,48,150,5.0,0.0
12757,48.0,0,40,6.0,0.0
12758,57.0,48,40,5.0,0.0
12759,47.0,0,40,6.0,0.0
12760,62.0,0,90,5.0,0.0
12761,69.0,0,40,5.0,0.0
12762,45.0,96,40,6.0,0.0
12763,43.0,0,90,6.0,0.0
12764,67.0,0,90,5.0,0.0
12765,62.0,48,90,5.0,0.0
12766,71.0,0,90,5.0,0.0
12767,74.0,0,40,7.0,0.0
12768,55.0,48,40,8.0,0.0
12769,76.0,0,40,7.0,0.0
12770,78.0,0,40,7.0,0.0
12771,57.0,34,40,8.0,0.0
12772,59.0,14,30,8.0,0.0
12773,79.0,48,40,7.0,0.0
12774,81.0,34,40,7.0,0.0
12775,55.0,14,30,8.0,0.0
12776,83.0,48,40,7.0,0.0
12777,84.0,34,40,7.0,0.0
12778,62.0,14,30,8.0,0.0
12779,83.0,48,40,7.0,0.0
12780,81.0,34,40,7.0,0.0
12781,59.0,14,30,8.0,0.0
12782,79.0,48,40,7.0,0.0
12783,78.0,96,40,7.0,0.0
12784,79.0,0,150,7.0,0.0
12785,64.0,48,90,8.0,0.0
12786,78.0,0,40,7.0,0.0
12787,62.0,48,40,8.0,0.0
12788,76.0,48,150,7.0,0.0
12789,84.0,48,40,7.0,0.0
12790,60.0,0,40,8.0,0.0
12791,78.0,18,150,7.0,0.0
12792,62.0,30,150,8.0,0.0
12793,76.0,48,40,7.0,0.0
12794,74.0,48,90,7.0,0.0
12795,83.0,48,90,7.0,0.0
12796,72.0,48,150,7.0,0.0
12797,64.0,0,40,8.0,0.0
12798,67.0,0,40,8.0,0.0
12799,76.0,48,40,7.0,0.0
12800,81.0,48,150,7.0,0.0
12801,60.0,0,40,8.0,0.0
12802,72.0,0,40,7.0,0.0
12803,64.0,48,40,8.0,0.0
12804,62.0,0,40,8.0,0.0
12805,71.0,0,150,7.0,0.0
12806,74.0,48,40,7.0,0.0
12807,60.0,0,40,8.0,0.0
12808,59.0,48,40,8.0,0.0
12809,79.0,48,150,7.0,0.0
12810,71.0,48,40,7.0,0.0
12811,62.0,0,40,8.0,0.0
12812,60.0,0,40,8.0,0.0
12813,69.0,48,150,7.0,0.0
12814,64.0,48,40,8.0,0.0
12815,72.0,0,40,7.0,0.0
12816,78.0,48,90,7.0,0.0
12817,57.0,0,40,8.0,0.0
12818,60.0,0,40,8.0,0.0
12819,69.0,0,40,7.0,0.0
12820,59.0,48,40,8.0,0.0
12821,79.0,0,90,7.0,0.0
12822,67.0,30,150,7.0,0.0
12823,57.0,48,40,8.0,0.0
12824,55.0,0,40,8.0,0.0
12825,78.0,18,40,7.0,0.0
12826,57.0,0,40,8.0,0.0
12827,76.0,48,40,7.0,0.0
12828,74.0,30,360,7.0,0.0
12829,59.0,48,40,8.0,0.0
12830,69.0,0,40,7.0,0.0
12831,60.0,48,40,8.0,0.0
12832,67.0,48,40,7.0,0.0
12833,62.0,0,90,8.0,0.0
12834,66.0,34,40,7.0,0.0
12835,52.0,14,30,8.0,0.0
12836,69.0,48,40,7.0,0.0
12837,67.0,34,40,7.0,0.0
12838,55.0,14,30,8.0,0.0
12839,66.0,18,40,7.0,0.0
12840,64.0,96,40,7.0,0.0
12841,72.0,30,360,7.0,0.0
12842,57.0,48,90,8.0,0.0
12843,67.0,0,40,7.0,0.0
12844,60.0,34,90,8.0,0.0
12845,66.0,48,40,7.0,0.0
12846,64.0,0,40,7.0,0.0
12847,67.0,48,40,7.0,0.0
12848,50.0,14,30,8.0,0.0
12849,66.0,34,40,7.0,0.0
12850,64.0,18,40,7.0,0.0
12851,54.0,14,30,8.0,0.0
12852,62.0,96,40,7.0,0.0
12853,55.0,48,90,8.0,0.0
12854,71.0,0,240,7.0,0.0
12855,65.0,0,40,7.0,0.0
12856,64.0,48,40,7.0,0.0
12857,59.0,48,90,8.0,0.0
12858,62.0,0,40,7.0,0.0
12859,64.0,30,150,7.0,0.0
12860,48.0,48,40,8.0,0.0
12861,59.0,48,40,8.0,0.0
12862,74.0,0,40,7.0,0.0
12863,57.0,0,40,8.0,0.0
12864,72.0,18,40,7.0,0.0
12865,55.0,0,40,8.0,0.0
12866,71.0,48,40,7.0,0.0
12867,66.0,48,240,7.0,0.0
12868,69.0,48,40,7.0,0.0
12869,50.0,0,40,8.0,0.0
12870,57.0,48,40,8.0,0.0
12871,72.0,0,40,7.0,0.0
12872,71.0,48,40,7.0,0.0
12873,55.0,0,40,8.0,0.0
12874,69.0,0,40,7.0,0.0
12875,54.0,48,40,8.0,0.0
12876,74.0,0,240,7.0,0.0
12877,47.0,0,40,8.0,0.0
12878,57.0,0,40,8.0,0.0
12879,72.0,48,40,7.0,0.0
12880,55.0,0,40,8.0,0.0
12881,71.0,48,40,7.0,0.0
12882,54.0,48,40,8.0,0.0
12883,69.0,0,40,7.0,0.0
12884,52.0,48,40,8.0,0.0
12885,67.0,48,240,7.0,0.0
12886,50.0,48,40,8.0,0.0
12887,77.0,0,40,7.0,0.0
12888,48.0,48,40,8.0,0.0
12889,76.0,0,40,7.0,0.0
12890,74.0,0,40,7.0,0.0
12891,47.0,48,40,8.0,0.0
12892,45.0,0,40,8.0,0.0
12893,72.0,0,240,7.0,0.0
12894,71.0,48,40,7.0,0.0
12895,55.0,0,40,8.0,0.0
12896,69.0,48,40,7.0,0.0
12897,54.0,0,40,8.0,0.0
12898,67.0,0,40,7.0,0.0
12899,52.0,48,40,8.0,0.0
12900,50.0,48,40,8.0,0.0
12901,66.0,0,240,7.0,0.0
12902,48.0,0,40,8.0,0.0
12903,76.0,48,40,7.0,0.0
12904,47.0,48,40,8.0,0.0
12905,74.0,0,40,7.0,0.0
12906,45.0,0,40,8.0,0.0
12907,72.0,48,40,7.0,0.0
12908,43.0,48,40,8.0,0.0
12909,71.0,0,240,7.0,0.0
12910,69.0,0,40,7.0,0.0
12911,54.0,48,40,8.0,0.0
12912,67.0,0,40,7.0,0.0
12913,52.0,48,40,8.0,0.0
12914,66.0,48,40,7.0,0.0
12915,50.0,0,40,8.0,0.0
12916,48.0,48,40,8.0,0.0
12917,76.0,0,40,7.0,0.0
12918,47.0,48,40,8.0,0.0
12919,45.0,48,40,8.0,0.0
12920,78.0,0,40,7.0,0.0
12921,79.0,48,40,7.0,0.0
12922,43.0,0,40,8.0,0.0
12923,42.0,48,40,8.0,0.0
12924,81.0,0,240,7.0,0.0
12925,52.0,48,40,8.0,0.0
12926,79.0,0,40,7.0,0.0
12927,78.0,0,40,7.0,0.0
12928,51.0,48,40,8.0,0.0
12929,76.0,0,40,7.0,0.0
12930,49.0,48,40,8.0,0.0
12931,75.0,30,150,7.0,0.0
12932,47.0,48,40,8.0,0.0
12933,78.0,0,40,7.0,0.0
12934,45.0,48,40,8.0,0.0
12935,83.0,0,40,7.0,0.0
12936,43.0,18,40,8.0,0.0
12937,42.0,48,40,8.0,0.0
12938,81.0,0,40,7.0,0.0
12939,79.0,48,40,7.0,0.0
12940,40.0,48,90,8.0,0.0
12941,40.0,0,90,4.0,0.0
12942,76.0,0,870,5.0,0.0
12943,76.0,0,90,7.0,0.0
12944,76.0,0,810,1.0,0.0
12945,81.0,0,40,7.0,0.0
12946,79.0,0,40,7.0,0.0
12947,64.0,0,40,2.0,0.0
12948,64.0,48,40,5.0,0.0
12949,78.0,34,40,7.0,0.0
12950,66.0,0,40,5.0,0.0
12951,66.0,0,40,2.0,0.0
12952,67.0,14,30,2.0,0.0
12953,76.0,48,40,7.0,0.0
12954,67.0,0,30,5.0,0.0
12955,69.0,34,40,7.0,0.0
12956,72.0,0,40,7.0,0.0
12957,64.0,14,30,2.0,0.0
12958,52.0,0,40,6.0,0.0
12959,64.0,0,30,5.0,0.0
12960,52.0,0,40,3.0,0.0
12961,71.0,0,40,7.0,0.0
12962,67.0,48,40,7.0,0.0
12963,54.0,0,40,3.0,0.0
12964,66.0,34,40,7.0,0.0
12965,69.0,0,40,7.0,0.0
12966,54.0,0,40,6.0,0.0
12967,67.0,0,90,7.0,0.0
12968,64.0,0,90,7.0,0.0
12969,40.0,0,90,4.0,0.0
12970,71.0,0,30,5.0,0.0
12971,71.0,14,30,2.0,0.0
12972,55.0,48,40,3.0,0.0
12973,40.0,34,90,8.0,0.0
12974,55.0,0,40,6.0,0.0
12975,59.0,0,40,3.0,0.0
12976,59.0,0,40,6.0,0.0
12977,52.0,0,40,6.0,0.0
12978,52.0,48,40,3.0,0.0
12979,67.0,14,30,5.0,0.0
12980,67.0,0,30,2.0,0.0
12981,71.0,0,90,7.0,0.0
12982,67.0,0,90,7.0,0.0
12983,55.0,48,40,6.0,0.0
12984,55.0,0,40,3.0,0.0
12985,72.0,0,90,2.0,0.0
12986,57.0,48,40,6.0,0.0
12987,57.0,0,40,3.0,0.0
12988,69.0,48,90,7.0,0.0
12989,66.0,0,90,7.0,0.0
12990,72.0,0,90,5.0,0.0
12991,60.0,0,40,6.0,0.0
12992,60.0,0,40,3.0,0.0
12993,71.0,0,40,5.0,0.0
12994,72.0,0,90,7.0,0.0
12995,69.0,0,90,7.0,0.0
12996,71.0,0,40,2.0,0.0
12997,52.0,0,40,3.0,0.0
12998,52.0,48,40,6.0,0.0
12999,54.0,0,40,6.0,0.0
13000,54.0,0,40,3.0,0.0
13001,69.0,48,40,5.0,0.0
13002,69.0,0,40,2.0,0.0
13003,40.0,0,90,8.0,0.0
13004,55.0,48,40,6.0,0.0
13005,40.0,0,90,4.0,0.0
13006,71.0,0,150,2.0,0.0
13007,71.0,0,90,7.0,0.0
13008,67.0,0,90,7.0,0.0
13009,55.0,0,40,3.0,0.0
13010,71.0,30,150,5.0,0.0
13011,59.0,0,40,3.0,0.0
13012,78.0,0,40,1.0,0.0
13013,59.0,48,40,6.0,0.0
13014,52.0,18,40,3.0,0.0
13015,52.0,0,40,6.0,0.0
13016,79.0,30,150,1.0,0.0
13017,79.0,2,180,5.0,0.0
13018,76.0,48,90,7.0,0.0
13019,55.0,0,40,3.0,0.0
13020,55.0,0,40,6.0,0.0
13021,72.0,18,40,5.0,0.0
13022,69.0,46,90,7.0,0.0
13023,76.0,0,90,7.0,0.0
13024,57.0,0,90,3.0,0.0
13025,52.0,0,90,8.0,0.0
13026,72.0,0,40,2.0,0.0
13027,57.0,0,90,6.0,0.0
13028,76.0,0,40,2.0,0.0
13029,76.0,0,40,5.0,0.0
13030,69.0,0,40,5.0,0.0
13031,78.0,0,150,5.0,0.0
13032,69.0,48,40,2.0,0.0
13033,75.0,0,90,7.0,0.0
13034,78.0,30,150,1.0,0.0
13035,72.0,48,40,5.0,0.0
13036,72.0,0,40,2.0,0.0
13037,71.0,0,90,7.0,0.0
13038,75.0,46,90,7.0,0.0
13039,55.0,2,90,3.0,0.0
13040,40.0,0,90,4.0,0.0
13041,55.0,0,90,6.0,0.0
13042,71.0,18,40,2.0,0.0
13043,40.0,0,90,8.0,0.0
13044,71.0,0,40,5.0,0.0
13045,69.0,0,40,5.0,0.0
13046,69.0,0,40,2.0,0.0
13047,76.0,0,150,5.0,0.0
13048,76.0,30,150,1.0,0.0
13049,67.0,0,40,5.0,0.0
13050,76.0,0,90,7.0,0.0
13051,67.0,48,40,2.0,0.0
13052,71.0,48,40,5.0,0.0
13053,71.0,0,40,2.0,0.0
13054,54.0,0,90,6.0,0.0
13055,72.0,46,90,7.0,0.0
13056,52.0,2,90,8.0,0.0
13057,76.0,0,90,7.0,0.0
13058,54.0,0,90,3.0,0.0
13059,69.0,0,40,5.0,0.0
13060,69.0,18,40,2.0,0.0
13061,72.0,0,40,2.0,0.0
13062,72.0,0,40,5.0,0.0
13063,66.0,0,40,5.0,0.0
13064,75.0,0,90,5.0,0.0
13065,75.0,0,90,1.0,0.0
13066,66.0,48,40,2.0,0.0
13067,78.0,0,90,7.0,0.0
13068,69.0,48,40,2.0,0.0
13069,69.0,0,40,5.0,0.0
13070,52.0,0,90,3.0,0.0
13071,52.0,0,90,6.0,0.0
13072,71.0,46,90,7.0,0.0
13073,40.0,0,90,8.0,0.0
13074,40.0,0,90,4.0,0.0
13075,67.0,48,40,5.0,0.0
13076,76.0,0,90,5.0,0.0
13077,76.0,0,90,1.0,0.0
13078,67.0,0,40,2.0,0.0
13079,78.0,0,90,7.0,0.0
13080,66.0,2,40,2.0,0.0
13081,66.0,0,40,5.0,0.0
13082,64.0,48,40,5.0,0.0
13083,79.0,48,90,7.0,0.0
13084,64.0,0,40,2.0,0.0
13085,66.0,0,40,2.0,0.0
13086,66.0,0,40,5.0,0.0
13087,67.0,0,40,2.0,0.0
13088,67.0,48,40,5.0,0.0
13089,59.0,30,360,6.0,0.0
13090,59.0,16,330,3.0,0.0
13091,78.0,0,40,5.0,0.0
13092,69.0,2,40,2.0,0.0
13093,69.0,0,40,5.0,0.0
13094,78.0,46,40,1.0,0.0
13095,76.0,2,40,5.0,0.0
13096,76.0,46,40,1.0,0.0
13097,71.0,0,90,2.0,0.0
13098,71.0,0,90,5.0,0.0
13099,75.0,34,40,1.0,0.0
13100,75.0,0,40,5.0,0.0
13101,78.0,46,40,1.0,0.0
13102,61.0,14,30,2.0,0.0
13103,78.0,2,40,5.0,0.0
13104,61.0,0,90,6.0,0.0
13105,76.0,2,40,5.0,0.0
13106,76.0,46,40,1.0,0.0
13107,65.0,0,90,2.0,0.0
13108,75.0,0,40,1.0,0.0
13109,64.0,96,90,6.0,0.0
13110,75.0,2,40,5.0,0.0
13111,73.0,0,40,1.0,0.0
13112,73.0,0,40,5.0,0.0
13113,57.0,0,360,3.0,0.0
13114,57.0,30,360,6.0,0.0
13115,66.0,0,90,6.0,0.0
13116,66.0,0,90,2.0,0.0
13117,76.0,2,40,5.0,0.0
13118,76.0,46,40,1.0,0.0
13119,69.0,0,90,2.0,0.0
13120,75.0,46,40,1.0,0.0
13121,75.0,2,40,5.0,0.0
13122,69.0,34,90,6.0,0.0
13123,73.0,0,40,5.0,0.0
13124,73.0,0,40,1.0,0.0
13125,59.0,2,90,6.0,0.0
13126,76.0,2,40,5.0,0.0
13127,76.0,46,40,1.0,0.0
13128,59.0,14,30,2.0,0.0
13129,75.0,32,40,1.0,0.0
13130,75.0,0,40,5.0,0.0
13131,62.0,0,90,6.0,0.0
13132,73.0,16,40,1.0,0.0
13133,63.0,14,30,2.0,0.0
13134,73.0,2,40,5.0,0.0
13135,71.0,96,40,1.0,0.0
13136,71.0,0,40,5.0,0.0
13137,64.0,0,90,6.0,0.0
13138,55.0,0,150,6.0,0.0
13139,64.0,0,90,2.0,0.0
13140,55.0,30,150,3.0,0.0
13141,74.0,2,40,5.0,0.0
13142,74.0,46,40,1.0,0.0
13143,67.0,34,90,2.0,0.0
13144,72.0,2,40,5.0,0.0
13145,72.0,16,40,1.0,0.0
13146,67.0,0,90,6.0,0.0
13147,71.0,0,40,5.0,0.0
13148,71.0,0,40,1.0,0.0
13149,57.0,2,40,5.0,0.0
13150,72.0,0,40,5.0,0.0
13151,57.0,14,30,2.0,0.0
13152,72.0,46,40,1.0,0.0
13153,54.0,0,90,6.0,0.0
13154,54.0,2,90,3.0,0.0
13155,71.0,0,40,1.0,0.0
13156,67.0,0,40,5.0,0.0
13157,67.0,46,40,2.0,0.0
13158,71.0,0,40,5.0,0.0
13159,55.0,0,90,3.0,0.0
13160,69.0,2,40,5.0,0.0
13161,66.0,0,40,5.0,0.0
13162,55.0,0,90,6.0,0.0
13163,69.0,46,40,1.0,0.0
13164,66.0,0,40,2.0,0.0
13165,64.0,0,40,2.0,0.0
13166,64.0,34,40,5.0,0.0
13167,67.0,0,40,1.0,0.0
13168,67.0,0,40,5.0,0.0
13169,57.0,2,90,3.0,0.0
13170,63.0,14,30,2.0,0.0
13171,66.0,46,40,1.0,0.0
13172,66.0,2,40,5.0,0.0
13173,63.0,0,40,5.0,0.0
13174,57.0,0,90,6.0,0.0
13175,66.0,0,40,5.0,0.0
13176,69.0,0,40,1.0,0.0
13177,66.0,46,40,2.0,0.0
13178,69.0,0,40,5.0,0.0
13179,64.0,2,40,5.0,0.0
13180,67.0,0,40,5.0,0.0
13181,59.0,48,90,3.0,0.0
13182,59.0,0,90,6.0,0.0
13183,67.0,0,40,1.0,0.0
13184,64.0,46,40,2.0,0.0
13185,66.0,0,40,1.0,0.0
13186,63.0,0,40,5.0,0.0
13187,66.0,0,40,5.0,0.0
13188,63.0,0,40,2.0,0.0
13189,64.0,0,90,5.0,0.0
13190,67.0,0,90,5.0,0.0
13191,52.0,48,40,7.0,0.0
13192,67.0,48,90,1.0,0.0
13193,52.0,0,40,3.0,0.0
13194,64.0,0,90,2.0,0.0
13195,52.0,0,40,6.0,0.0
13196,54.0,0,40,7.0,0.0
13197,51.0,0,40,6.0,0.0
13198,54.0,0,40,3.0,0.0
13199,59.0,0,90,2.0,0.0
13200,64.0,34,90,1.0,0.0
13201,40.0,0,40,8.0,0.0
13202,55.0,0,40,7.0,0.0
13203,55.0,48,40,3.0,0.0
13204,52.0,0,40,6.0,0.0
13205,52.0,0,40,4.0,0.0
13206,57.0,0,40,7.0,0.0
13207,42.0,0,40,8.0,0.0
13208,57.0,0,40,3.0,0.0
13209,54.0,0,40,4.0,0.0
13210,54.0,0,40,6.0,0.0
13211,59.0,48,40,7.0,0.0
13212,43.0,0,30,8.0,0.0
13213,55.0,0,30,4.0,0.0
13214,59.0,0,40,3.0,0.0
13215,55.0,14,30,6.0,0.0
13216,61.0,0,40,3.0,0.0
13217,61.0,34,40,7.0,0.0
13218,67.0,0,90,2.0,0.0
13219,63.0,48,40,3.0,0.0
13220,52.0,0,30,6.0,0.0
13221,71.0,0,40,5.0,0.0
13222,67.0,0,90,7.0,0.0
13223,63.0,0,40,7.0,0.0
13224,40.0,14,30,8.0,0.0
13225,52.0,0,30,4.0,0.0
13226,71.0,0,40,1.0,0.0
13227,73.0,0,40,1.0,0.0
13228,73.0,0,40,5.0,0.0
13229,64.0,0,40,3.0,0.0
13230,64.0,34,40,7.0,0.0
13231,59.0,0,30,6.0,0.0
13232,66.0,0,90,7.0,0.0
13233,63.0,30,150,7.0,0.0
13234,59.0,14,30,4.0,0.0
13235,47.0,0,30,8.0,0.0
13236,66.0,0,90,2.0,0.0
13237,75.0,0,40,1.0,0.0
13238,75.0,48,40,5.0,0.0
13239,66.0,0,90,3.0,0.0
13240,76.0,0,40,5.0,0.0
13241,76.0,34,40,1.0,0.0
13242,71.0,0,90,2.0,0.0
13243,59.0,0,90,3.0,0.0
13244,78.0,18,40,1.0,0.0
13245,71.0,96,90,7.0,0.0
13246,43.0,14,30,8.0,0.0
13247,55.0,0,30,6.0,0.0
13248,78.0,0,40,5.0,0.0
13249,55.0,0,30,4.0,0.0
13250,79.0,0,40,5.0,0.0
13251,79.0,0,40,1.0,0.0
13252,64.0,0,180,7.0,0.0
13253,48.0,0,90,8.0,0.0
13254,64.0,0,90,3.0,0.0
13255,60.0,0,90,6.0,0.0
13256,81.0,48,240,1.0,0.0
13257,81.0,0,240,5.0,0.0
13258,60.0,0,90,4.0,0.0
13259,76.0,48,40,5.0,0.0
13260,69.0,0,40,7.0,0.0
13261,69.0,0,40,2.0,0.0
13262,71.0,0,40,7.0,0.0
13263,47.0,0,40,8.0,0.0
13264,64.0,0,90,3.0,0.0
13265,75.0,0,40,5.0,0.0
13266,71.0,0,40,2.0,0.0
13267,59.0,0,40,4.0,0.0
13268,59.0,48,40,6.0,0.0
13269,57.0,0,40,4.0,0.0
13270,72.0,48,40,2.0,0.0
13271,76.0,0,40,5.0,0.0
13272,72.0,0,40,7.0,0.0
13273,45.0,0,40,8.0,0.0
13274,57.0,0,40,6.0,0.0
13275,75.0,30,150,5.0,0.0
13276,47.0,0,150,8.0,0.0
13277,66.0,0,90,2.0,0.0
13278,63.0,0,90,7.0,0.0
13279,59.0,0,150,4.0,0.0
13280,66.0,48,90,7.0,0.0
13281,63.0,0,90,3.0,0.0
13282,59.0,0,150,6.0,0.0
13283,84.0,0,40,5.0,0.0
13284,81.0,0,40,1.0,0.0
13285,83.0,0,40,5.0,0.0
13286,71.0,0,150,2.0,0.0
13287,79.0,18,40,1.0,0.0
13288,71.0,0,150,7.0,0.0
13289,67.0,0,150,3.0,0.0
13290,67.0,30,150,7.0,0.0
13291,81.0,0,40,5.0,0.0
13292,78.0,48,40,1.0,0.0
13293,60.0,0,40,4.0,0.0
13294,76.0,0,90,5.0,0.0
13295,60.0,0,40,6.0,0.0
13296,79.0,0,90,5.0,0.0
13297,76.0,0,90,1.0,0.0
13298,48.0,18,40,8.0,0.0
13299,52.0,0,40,8.0,0.0
13300,64.0,0,40,4.0,0.0
13301,64.0,48,40,6.0,0.0
13302,81.0,0,90,5.0,0.0
13303,84.0,48,90,5.0,0.0
13304,69.0,0,150,2.0,0.0
13305,45.0,0,40,8.0,0.0
13306,69.0,0,150,7.0,0.0
13307,66.0,18,150,7.0,0.0
13308,66.0,30,150,3.0,0.0
13309,84.0,0,90,1.0,0.0
13310,57.0,48,40,4.0,0.0
13311,57.0,0,40,6.0,0.0
13312,48.0,0,40,8.0,0.0
13313,60.0,0,40,6.0,0.0
13314,60.0,0,40,4.0,0.0
13315,75.0,0,90,5.0,0.0
13316,78.0,0,90,5.0,0.0
13317,59.0,0,40,4.0,0.0
13318,75.0,0,90,1.0,0.0
13319,47.0,0,40,8.0,0.0
13320,59.0,0,40,6.0,0.0
13321,57.0,0,40,6.0,0.0
13322,66.0,0,40,7.0,0.0
13323,45.0,48,40,8.0,0.0
13324,63.0,0,40,7.0,0.0
13325,57.0,0,40,4.0,0.0
13326,66.0,0,40,2.0,0.0
13327,67.0,0,150,2.0,0.0
13328,83.0,0,90,1.0,0.0
13329,43.0,48,40,8.0,0.0
13330,67.0,0,150,7.0,0.0
13331,64.0,30,150,7.0,0.0
13332,55.0,0,40,4.0,0.0
13333,83.0,48,90,5.0,0.0
13334,79.0,0,90,5.0,0.0
13335,64.0,0,150,3.0,0.0
13336,55.0,0,40,6.0,0.0
13337,59.0,0,40,4.0,0.0
13338,59.0,0,40,6.0,0.0
13339,47.0,0,40,8.0,0.0
13340,57.0,18,40,4.0,0.0
13341,72.0,0,90,1.0,0.0
13342,57.0,0,40,6.0,0.0
13343,72.0,48,90,5.0,0.0
13344,45.0,0,40,8.0,0.0
13345,76.0,0,90,5.0,0.0
13346,60.0,0,40,6.0,0.0
13347,48.0,0,40,8.0,0.0
13348,60.0,0,40,4.0,0.0
13349,54.0,0,40,6.0,0.0
13350,66.0,0,180,7.0,0.0
13351,54.0,48,40,4.0,0.0
13352,78.0,0,90,5.0,0.0
13353,81.0,0,180,5.0,0.0
13354,42.0,0,40,8.0,0.0
13355,66.0,0,180,2.0,0.0
13356,63.0,48,180,7.0,0.0
13357,81.0,0,90,1.0,0.0
13358,63.0,0,180,3.0,0.0
13359,45.0,0,40,8.0,0.0
13360,57.0,0,40,6.0,0.0
13361,57.0,48,40,4.0,0.0
13362,55.0,0,40,4.0,0.0
13363,55.0,48,40,6.0,0.0
13364,71.0,48,300,5.0,0.0
13365,43.0,0,40,8.0,0.0
13366,71.0,30,150,1.0,0.0
13367,54.0,0,40,6.0,0.0
13368,42.0,0,40,8.0,0.0
13369,54.0,0,40,4.0,0.0
13370,40.0,0,40,8.0,0.0
13371,52.0,0,40,6.0,0.0
13372,79.0,0,180,5.0,0.0
13373,67.0,0,40,2.0,0.0
13374,67.0,18,40,7.0,0.0
13375,52.0,0,40,4.0,0.0
13376,64.0,0,90,3.0,0.0
13377,64.0,0,40,7.0,0.0
13378,42.0,0,40,8.0,0.0
13379,69.0,48,40,2.0,0.0
13380,54.0,0,40,6.0,0.0
13381,69.0,0,40,7.0,0.0
13382,54.0,0,40,4.0,0.0
13383,55.0,48,40,6.0,0.0
13384,55.0,0,40,4.0,0.0
13385,71.0,0,40,2.0,0.0
13386,43.0,0,40,8.0,0.0
13387,59.0,0,90,3.0,0.0
13388,71.0,0,40,7.0,0.0
13389,73.0,0,40,2.0,0.0
13390,57.0,0,40,4.0,0.0
13391,73.0,0,40,7.0,0.0
13392,45.0,0,40,8.0,0.0
13393,57.0,0,40,6.0,0.0
13394,69.0,0,90,5.0,0.0
13395,78.0,0,90,5.0,0.0
13396,83.0,48,150,1.0,0.0
13397,47.0,0,90,8.0,0.0
13398,59.0,0,90,6.0,0.0
13399,75.0,0,40,2.0,0.0
13400,75.0,48,40,7.0,0.0
13401,57.0,34,90,3.0,0.0
13402,59.0,0,90,4.0,0.0
13403,71.0,0,40,2.0,0.0
13404,71.0,0,40,7.0,0.0
13405,76.0,30,360,7.0,0.0
13406,76.0,34,90,5.0,0.0
13407,48.0,0,30,6.0,0.0
13408,48.0,14,30,4.0,0.0
13409,55.0,0,90,3.0,0.0
13410,76.0,18,240,2.0,0.0
13411,67.0,0,90,5.0,0.0
13412,48.0,0,90,8.0,0.0
13413,74.0,0,40,7.0,0.0
13414,83.0,0,40,1.0,0.0
13415,81.0,48,40,1.0,0.0
13416,52.0,0,30,6.0,0.0
13417,52.0,14,30,4.0,0.0
13418,52.0,0,90,8.0,0.0
13419,72.0,0,40,7.0,0.0
13420,79.0,48,90,5.0,0.0
13421,72.0,30,150,3.0,0.0
13422,71.0,0,40,7.0,0.0
13423,79.0,0,40,1.0,0.0
13424,81.0,0,240,1.0,0.0
13425,54.0,0,90,4.0,0.0
13426,54.0,0,90,6.0,0.0
13427,42.0,0,90,8.0,0.0
13428,69.0,0,90,7.0,0.0
13429,81.0,48,240,5.0,0.0
13430,76.0,48,40,5.0,0.0
13431,79.0,0,40,2.0,0.0
13432,57.0,0,90,6.0,0.0
13433,57.0,0,90,4.0,0.0
13434,72.0,0,150,7.0,0.0
13435,45.0,34,90,8.0,0.0
13436,78.0,0,40,5.0,0.0
13437,78.0,18,40,2.0,0.0
13438,66.0,0,180,3.0,0.0
13439,79.0,0,40,5.0,0.0
13440,76.0,0,40,2.0,0.0
13441,47.0,14,30,6.0,0.0
13442,78.0,0,90,5.0,0.0
13443,47.0,0,30,4.0,0.0
13444,75.0,0,90,2.0,0.0
13445,47.0,0,90,8.0,0.0
13446,75.0,30,150,7.0,0.0
13447,81.0,0,40,5.0,0.0
13448,72.0,0,40,7.0,0.0
13449,81.0,34,40,1.0,0.0
13450,71.0,30,150,3.0,0.0
13451,79.0,0,40,1.0,0.0
13452,51.0,0,90,8.0,0.0
13453,51.0,0,30,6.0,0.0
13454,79.0,18,40,5.0,0.0
13455,51.0,14,30,4.0,0.0
13456,71.0,66,90,2.0,0.0
13457,71.0,0,40,7.0,0.0
13458,78.0,0,40,1.0,0.0
13459,78.0,0,40,5.0,0.0
13460,69.0,0,40,7.0,0.0
13461,79.0,48,240,5.0,0.0
13462,79.0,0,90,1.0,0.0
13463,67.0,48,90,7.0,0.0
13464,52.0,0,90,6.0,0.0
13465,40.0,0,90,8.0,0.0
13466,52.0,0,90,4.0,0.0
13467,75.0,0,40,5.0,0.0
13468,55.0,0,90,4.0,0.0
13469,55.0,0,90,6.0,0.0
13470,64.0,0,90,7.0,0.0
13471,71.0,0,90,7.0,0.0
13472,76.0,0,90,7.0,0.0
13473,71.0,0,90,3.0,0.0
13474,43.0,0,90,8.0,0.0
13475,76.0,48,90,2.0,0.0
13476,76.0,48,40,5.0,0.0
13477,76.0,0,90,1.0,0.0
13478,78.0,0,40,5.0,0.0
13479,69.0,0,90,7.0,0.0
13480,45.0,0,40,6.0,0.0
13481,45.0,0,90,4.0,0.0
13482,45.0,0,40,8.0,0.0
13483,64.0,0,90,7.0,0.0
13484,72.0,0,90,7.0,0.0
13485,55.0,0,40,6.0,0.0
13486,55.0,0,40,8.0,0.0
13487,76.0,0,40,5.0,0.0
13488,76.0,0,90,5.0,0.0
13489,78.0,0,90,1.0,0.0
13490,78.0,48,90,5.0,0.0
13491,76.0,0,90,2.0,0.0
13492,54.0,0,40,8.0,0.0
13493,54.0,48,40,6.0,0.0
13494,72.0,0,90,3.0,0.0
13495,72.0,0,90,5.0,0.0
13496,52.0,0,40,8.0,0.0
13497,52.0,0,40,6.0,0.0
13498,47.0,48,40,6.0,0.0
13499,64.0,0,90,7.0,0.0
13500,71.0,48,90,7.0,0.0
13501,67.0,0,90,7.0,0.0
13502,47.0,0,40,8.0,0.0
13503,47.0,0,90,4.0,0.0
13504,55.0,0,40,8.0,0.0
13505,55.0,0,40,6.0,0.0
13506,71.0,48,90,3.0,0.0
13507,54.0,0,40,8.0,0.0
13508,54.0,48,40,6.0,0.0
13509,79.0,0,90,1.0,0.0
13510,76.0,0,90,5.0,0.0
13511,79.0,0,90,5.0,0.0
13512,71.0,0,90,5.0,0.0
13513,76.0,0,90,2.0,0.0
13514,52.0,0,40,8.0,0.0
13515,52.0,0,40,6.0,0.0
13516,57.0,0,90,7.0,0.0
13517,64.0,48,90,7.0,0.0
13518,48.0,48,40,8.0,0.0
13519,48.0,0,40,6.0,0.0
13520,48.0,0,90,4.0,0.0
13521,69.0,0,90,7.0,0.0
13522,55.0,0,40,8.0,0.0
13523,55.0,0,40,6.0,0.0
13524,54.0,48,40,6.0,0.0
13525,69.0,0,90,5.0,0.0
13526,76.0,0,90,5.0,0.0
13527,81.0,0,90,5.0,0.0
13528,69.0,0,90,3.0,0.0
13529,54.0,0,40,8.0,0.0
13530,81.0,0,90,1.0,0.0
13531,76.0,48,90,2.0,0.0
13532,52.0,0,40,8.0,0.0
13533,52.0,0,40,6.0,0.0
13534,59.0,48,90,7.0,0.0
13535,64.0,0,90,7.0,0.0
13536,67.0,0,90,7.0,0.0
13537,43.0,0,40,8.0,0.0
13538,43.0,48,40,6.0,0.0
13539,43.0,0,90,4.0,0.0
13540,55.0,0,40,6.0,0.0
13541,55.0,0,40,8.0,0.0
13542,79.0,0,90,5.0,0.0
13543,83.0,0,90,5.0,0.0
13544,54.0,0,40,6.0,0.0
13545,76.0,0,90,5.0,0.0
13546,79.0,0,90,2.0,0.0
13547,76.0,0,90,3.0,0.0
13548,83.0,0,90,1.0,0.0
13549,54.0,48,40,8.0,0.0
13550,52.0,0,40,6.0,0.0
13551,52.0,48,40,8.0,0.0
13552,66.0,0,90,7.0,0.0
13553,60.0,0,90,7.0,0.0
13554,45.0,0,40,6.0,0.0
13555,45.0,48,40,8.0,0.0
13556,45.0,0,90,4.0,0.0
13557,64.0,0,90,7.0,0.0
13558,55.0,48,40,8.0,0.0
13559,55.0,0,40,6.0,0.0
13560,76.0,0,90,5.0,0.0
13561,78.0,0,90,2.0,0.0
13562,54.0,0,40,8.0,0.0
13563,84.0,0,90,5.0,0.0
13564,78.0,0,90,5.0,0.0
13565,76.0,48,90,3.0,0.0
13566,54.0,48,40,6.0,0.0
13567,84.0,0,90,1.0,0.0
13568,52.0,0,40,6.0,0.0
13569,52.0,0,40,8.0,0.0
13570,47.0,0,40,6.0,0.0
13571,59.0,0,90,7.0,0.0
13572,67.0,0,90,7.0,0.0
13573,64.0,0,90,7.0,0.0
13574,47.0,48,40,8.0,0.0
13575,47.0,0,90,4.0,0.0
13576,54.0,0,40,8.0,0.0
13577,54.0,48,40,6.0,0.0
13578,52.0,48,40,6.0,0.0
13579,83.0,0,90,1.0,0.0
13580,79.0,0,90,2.0,0.0
13581,52.0,0,40,8.0,0.0
13582,76.0,48,90,5.0,0.0
13583,79.0,0,90,5.0,0.0
13584,76.0,0,90,3.0,0.0
13585,83.0,0,90,5.0,0.0
13586,51.0,0,40,6.0,0.0
13587,51.0,0,40,8.0,0.0
13588,48.0,0,40,8.0,0.0
13589,69.0,0,90,7.0,0.0
13590,48.0,48,40,6.0,0.0
13591,64.0,0,90,7.0,0.0
13592,57.0,0,90,7.0,0.0
13593,48.0,0,90,4.0,0.0
13594,52.0,48,40,8.0,0.0
13595,52.0,0,40,6.0,0.0
13596,76.0,0,90,2.0,0.0
13597,81.0,0,90,1.0,0.0
13598,69.0,0,90,3.0,0.0
13599,50.0,48,40,6.0,0.0
13600,69.0,0,90,5.0,0.0
13601,76.0,48,90,5.0,0.0
13602,81.0,0,90,5.0,0.0
13603,50.0,0,40,8.0,0.0
13604,48.0,0,40,8.0,0.0
13605,48.0,0,40,6.0,0.0
13606,43.0,48,90,4.0,0.0
13607,71.0,0,90,7.0,0.0
13608,67.0,0,90,7.0,0.0
13609,64.0,0,90,7.0,0.0
13610,43.0,0,40,6.0,0.0
13611,43.0,48,40,8.0,0.0
13612,50.0,0,40,6.0,0.0
13613,50.0,0,40,8.0,0.0
13614,71.0,0,90,3.0,0.0
13615,48.0,48,40,8.0,0.0
13616,79.0,0,90,1.0,0.0
13617,71.0,0,90,5.0,0.0
13618,76.0,0,90,2.0,0.0
13619,79.0,0,90,5.0,0.0
13620,48.0,0,40,6.0,0.0
13621,76.0,0,90,5.0,0.0
13622,47.0,48,40,8.0,0.0
13623,47.0,0,40,6.0,0.0
13624,64.0,0,90,7.0,0.0
13625,72.0,48,90,7.0,0.0
13626,45.0,48,40,8.0,0.0
13627,66.0,0,90,7.0,0.0
13628,45.0,0,40,6.0,0.0
13629,45.0,0,90,4.0,0.0
13630,48.0,0,40,6.0,0.0
13631,48.0,0,40,8.0,0.0
13632,69.0,0,90,3.0,0.0
13633,72.0,48,90,2.0,0.0
13634,69.0,0,90,5.0,0.0
13635,47.0,48,40,8.0,0.0
13636,47.0,0,40,6.0,0.0
13637,78.0,0,90,1.0,0.0
13638,72.0,0,90,5.0,0.0
13639,78.0,0,90,5.0,0.0
13640,45.0,0,40,6.0,0.0
13641,45.0,0,40,8.0,0.0
13642,47.0,48,40,4.0,0.0
13643,47.0,0,90,6.0,0.0
13644,47.0,0,90,8.0,0.0
13645,71.0,0,90,5.0,0.0
13646,63.0,0,90,3.0,0.0
13647,66.0,96,90,2.0,0.0
13648,66.0,0,90,5.0,0.0
13649,63.0,0,90,5.0,0.0
13650,66.0,0,90,7.0,0.0
13651,71.0,0,90,1.0,0.0
13652,71.0,0,90,7.0,0.0
13653,63.0,0,90,7.0,0.0
13654,45.0,0,40,4.0,0.0
13655,75.0,0,90,5.0,0.0
13656,75.0,0,90,1.0,0.0
13657,47.0,0,90,4.0,0.0
13658,59.0,0,90,6.0,0.0
13659,66.0,0,90,5.0,0.0
13660,71.0,0,90,5.0,0.0
13661,47.0,0,90,8.0,0.0
13662,66.0,48,90,3.0,0.0
13663,63.0,0,90,7.0,0.0
13664,71.0,0,90,2.0,0.0
13665,66.0,0,90,7.0,0.0
13666,69.0,0,90,7.0,0.0
13667,71.0,0,90,5.0,0.0
13668,67.0,0,40,7.0,0.0
13669,64.0,0,40,7.0,0.0
13670,59.0,48,40,7.0,0.0
13671,67.0,0,90,3.0,0.0
13672,76.0,0,90,5.0,0.0
13673,71.0,0,90,2.0,0.0
13674,76.0,0,90,1.0,0.0
13675,52.0,48,90,6.0,0.0
13676,40.0,0,90,8.0,0.0
13677,40.0,0,90,4.0,0.0
13678,67.0,0,90,5.0,0.0
13679,64.0,0,40,7.0,0.0
13680,66.0,48,40,7.0,0.0
13681,67.0,48,40,7.0,0.0
13682,69.0,48,40,7.0,0.0
13683,67.0,48,40,7.0,0.0
13684,66.0,48,40,7.0,0.0
13685,64.0,96,40,7.0,0.0
13686,72.0,30,750,7.0,0.0
13687,52.0,48,40,8.0,0.0
13688,54.0,48,40,8.0,0.0
13689,55.0,48,40,8.0,0.0
13690,57.0,48,40,8.0,0.0
13691,55.0,48,40,8.0,0.0
13692,54.0,48,40,8.0,0.0
13693,52.0,96,40,8.0,0.0
13694,54.0,0,90,8.0,0.0
13695,62.0,48,40,7.0,0.0
13696,64.0,48,40,7.0,0.0
13697,57.0,48,90,8.0,0.0
13698,66.0,0,40,7.0,0.0
13699,67.0,48,40,7.0,0.0
13700,50.0,48,90,8.0,0.0
13701,66.0,0,40,7.0,0.0
13702,64.0,18,40,7.0,0.0
13703,54.0,96,90,8.0,0.0
13704,62.0,0,150,7.0,0.0
13705,43.0,0,90,8.0,0.0
13706,67.0,0,90,7.0,0.0
13707,71.0,0,90,7.0,0.0
13708,67.0,48,40,5.0,0.0
13709,69.0,48,40,5.0,0.0
13710,71.0,48,40,5.0,0.0
13711,72.0,48,40,5.0,0.0
13712,71.0,48,40,5.0,0.0
13713,69.0,48,40,5.0,0.0
13714,67.0,96,40,5.0,0.0
13715,76.0,30,750,5.0,0.0
13716,56.0,48,40,6.0,0.0
13717,58.0,48,40,6.0,0.0
13718,59.0,48,40,6.0,0.0
13719,61.0,48,40,6.0,0.0
13720,59.0,48,40,6.0,0.0
13721,58.0,48,40,6.0,0.0
13722,56.0,96,40,6.0,0.0
13723,58.0,48,90,6.0,0.0
13724,66.0,0,40,5.0,0.0
13725,61.0,0,90,6.0,0.0
13726,68.0,48,40,5.0,0.0
13727,70.0,48,40,5.0,0.0
13728,54.0,0,90,6.0,0.0
13729,71.0,48,40,5.0,0.0
13730,70.0,48,40,5.0,0.0
13731,58.0,96,90,6.0,0.0
13732,68.0,18,40,5.0,0.0
13733,66.0,0,150,5.0,0.0
13734,71.0,0,90,5.0,0.0
13735,74.0,0,90,5.0,0.0
13736,47.0,0,90,6.0,0.0
13737,62.0,48,40,7.0,0.0
13738,64.0,48,40,7.0,0.0
13739,66.0,48,40,7.0,0.0
13740,67.0,48,40,7.0,0.0
13741,66.0,48,40,7.0,0.0
13742,64.0,48,40,7.0,0.0
13743,62.0,96,40,7.0,0.0
13744,69.0,30,750,7.0,0.0
13745,49.0,48,40,8.0,0.0
13746,51.0,48,40,8.0,0.0
13747,52.0,48,40,8.0,0.0
13748,54.0,48,40,8.0,0.0
13749,52.0,48,40,8.0,0.0
13750,51.0,48,40,8.0,0.0
13751,49.0,96,40,8.0,0.0
13752,51.0,0,90,8.0,0.0
13753,59.0,48,40,7.0,0.0
13754,54.0,0,90,8.0,0.0
13755,61.0,48,40,7.0,0.0
13756,63.0,48,40,7.0,0.0
13757,47.0,48,90,8.0,0.0
13758,64.0,48,40,7.0,0.0
13759,63.0,0,40,7.0,0.0
13760,61.0,18,40,7.0,0.0
13761,51.0,96,90,8.0,0.0
13762,59.0,0,150,7.0,0.0
13763,40.0,0,90,8.0,0.0
13764,67.0,0,90,7.0,0.0
13765,64.0,48,90,7.0,0.0
13766,67.0,0,40,5.0,0.0
13767,69.0,48,40,5.0,0.0
13768,71.0,48,40,5.0,0.0
13769,72.0,48,40,5.0,0.0
13770,71.0,48,40,5.0,0.0
13771,69.0,48,40,5.0,0.0
13772,67.0,96,40,5.0,0.0
13773,74.0,30,750,5.0,0.0
13774,54.0,48,40,6.0,0.0
13775,56.0,48,40,6.0,0.0
13776,57.0,48,40,6.0,0.0
13777,59.0,48,40,6.0,0.0
13778,57.0,48,40,6.0,0.0
13779,56.0,48,40,6.0,0.0
13780,54.0,96,40,6.0,0.0
13781,56.0,48,90,6.0,0.0
13782,64.0,0,40,5.0,0.0
13783,66.0,48,40,5.0,0.0
13784,59.0,48,90,6.0,0.0
13785,68.0,0,40,5.0,0.0
13786,52.0,48,90,6.0,0.0
13787,69.0,48,40,5.0,0.0
13788,68.0,0,40,5.0,0.0
13789,66.0,18,40,5.0,0.0
13790,56.0,48,90,6.0,0.0
13791,64.0,48,150,5.0,0.0
13792,81.0,0,870,7.0,0.0
13793,45.0,0,90,4.0,0.0
13794,45.0,0,90,6.0,0.0
13795,81.0,48,810,1.0,0.0
13796,69.0,0,90,5.0,0.0
13797,72.0,48,40,5.0,0.0
13798,74.0,0,40,5.0,0.0
13799,69.0,48,40,7.0,0.0
13800,69.0,0,40,2.0,0.0
13801,72.0,0,40,5.0,0.0
13802,71.0,34,40,5.0,0.0
13803,71.0,0,40,2.0,0.0
13804,71.0,0,40,7.0,0.0
13805,72.0,0,30,2.0,0.0
13806,69.0,48,40,5.0,0.0
13807,72.0,14,30,7.0,0.0
13808,62.0,34,40,5.0,0.0
13809,65.0,0,40,5.0,0.0
13810,69.0,14,30,2.0,0.0
13811,57.0,0,40,8.0,0.0
13812,64.0,0,40,5.0,0.0
13813,60.0,48,40,5.0,0.0
13814,57.0,0,40,3.0,0.0
13815,69.0,0,30,7.0,0.0
13816,59.0,0,40,8.0,0.0
13817,59.0,0,40,3.0,0.0
13818,62.0,34,40,5.0,0.0
13819,59.0,0,40,5.0,0.0
13820,60.0,0,40,8.0,0.0
13821,60.0,48,40,3.0,0.0
13822,60.0,0,90,5.0,0.0
13823,57.0,0,90,5.0,0.0
13824,76.0,14,30,7.0,0.0
13825,76.0,0,30,2.0,0.0
13826,45.0,34,90,4.0,0.0
13827,45.0,0,90,6.0,0.0
13828,64.0,0,40,8.0,0.0
13829,64.0,0,40,3.0,0.0
13830,64.0,0,90,5.0,0.0
13831,72.0,0,30,7.0,0.0
13832,72.0,14,30,2.0,0.0
13833,57.0,0,40,3.0,0.0
13834,57.0,48,40,8.0,0.0
13835,60.0,48,90,5.0,0.0
13836,60.0,0,40,8.0,0.0
13837,60.0,0,40,3.0,0.0
13838,77.0,0,90,2.0,0.0
13839,62.0,48,40,8.0,0.0
13840,62.0,0,40,3.0,0.0
13841,77.0,0,90,7.0,0.0
13842,62.0,0,90,5.0,0.0
13843,59.0,0,90,5.0,0.0
13844,65.0,48,40,3.0,0.0
13845,65.0,0,40,8.0,0.0
13846,57.0,48,40,8.0,0.0
13847,76.0,0,40,2.0,0.0
13848,65.0,0,90,5.0,0.0
13849,62.0,48,90,5.0,0.0
13850,57.0,0,40,3.0,0.0
13851,76.0,0,40,7.0,0.0
13852,59.0,0,40,3.0,0.0
13853,59.0,0,40,8.0,0.0
13854,74.0,0,40,2.0,0.0
13855,74.0,0,40,7.0,0.0
13856,76.0,30,150,2.0,0.0
13857,60.0,0,40,8.0,0.0
13858,60.0,0,40,3.0,0.0
13859,76.0,0,150,7.0,0.0
13860,45.0,48,90,6.0,0.0
13861,45.0,0,90,4.0,0.0
13862,60.0,0,90,5.0,0.0
13863,64.0,0,90,5.0,0.0
13864,83.0,0,40,1.0,0.0
13865,64.0,0,40,3.0,0.0
13866,64.0,0,40,8.0,0.0
13867,57.0,18,40,3.0,0.0
13868,84.0,0,180,7.0,0.0
13869,84.0,30,150,1.0,0.0
13870,57.0,0,40,8.0,0.0
13871,69.0,0,90,5.0,0.0
13872,60.0,0,40,8.0,0.0
13873,60.0,48,40,3.0,0.0
13874,62.0,0,90,8.0,0.0
13875,62.0,46,90,5.0,0.0
13876,69.0,0,90,5.0,0.0
13877,77.0,0,40,7.0,0.0
13878,62.0,0,90,3.0,0.0
13879,57.0,0,90,6.0,0.0
13880,77.0,18,40,2.0,0.0
13881,81.0,0,40,7.0,0.0
13882,81.0,2,40,2.0,0.0
13883,68.0,0,90,5.0,0.0
13884,74.0,48,40,2.0,0.0
13885,83.0,30,150,1.0,0.0
13886,74.0,0,40,7.0,0.0
13887,83.0,0,180,7.0,0.0
13888,77.0,0,40,7.0,0.0
13889,77.0,48,40,2.0,0.0
13890,76.0,18,40,2.0,0.0
13891,76.0,0,40,7.0,0.0
13892,45.0,2,90,4.0,0.0
13893,45.0,0,90,6.0,0.0
13894,60.0,0,90,8.0,0.0
13895,60.0,0,90,3.0,0.0
13896,68.0,46,90,5.0,0.0
13897,64.0,0,90,5.0,0.0
13898,74.0,0,40,2.0,0.0
13899,74.0,0,40,7.0,0.0
13900,81.0,0,180,7.0,0.0
13901,72.0,48,40,7.0,0.0
13902,69.0,0,90,5.0,0.0
13903,81.0,30,150,1.0,0.0
13904,72.0,0,40,2.0,0.0
13905,76.0,0,40,7.0,0.0
13906,76.0,48,40,2.0,0.0
13907,57.0,0,90,6.0,0.0
13908,69.0,46,90,5.0,0.0
13909,65.0,0,90,5.0,0.0
13910,74.0,0,40,7.0,0.0
13911,59.0,0,90,8.0,0.0
13912,59.0,0,90,3.0,0.0
13913,74.0,18,40,2.0,0.0
13914,77.0,0,40,7.0,0.0
13915,77.0,2,40,2.0,0.0
13916,80.0,0,90,7.0,0.0
13917,71.0,0,40,7.0,0.0
13918,71.0,48,40,2.0,0.0
13919,71.0,0,90,5.0,0.0
13920,80.0,0,90,1.0,0.0
13921,74.0,0,40,2.0,0.0
13922,74.0,48,40,7.0,0.0
13923,57.0,2,90,8.0,0.0
13924,45.0,0,90,6.0,0.0
13925,45.0,0,90,4.0,0.0
13926,72.0,48,40,2.0,0.0
13927,71.0,46,90,5.0,0.0
13928,64.0,0,90,5.0,0.0
13929,57.0,0,90,3.0,0.0
13930,72.0,0,40,7.0,0.0
13931,81.0,0,90,1.0,0.0
13932,81.0,0,90,7.0,0.0
13933,71.0,0,40,7.0,0.0
13934,71.0,0,40,2.0,0.0
13935,69.0,48,40,2.0,0.0
13936,69.0,0,40,7.0,0.0
13937,72.0,48,90,5.0,0.0
13938,71.0,0,40,7.0,0.0
13939,71.0,0,40,2.0,0.0
13940,64.0,0,330,3.0,0.0
13941,72.0,48,40,2.0,0.0
13942,64.0,30,360,8.0,0.0
13943,72.0,0,40,7.0,0.0
13944,74.0,2,40,7.0,0.0
13945,83.0,0,40,7.0,0.0
13946,74.0,0,40,2.0,0.0
13947,83.0,46,40,1.0,0.0
13948,76.0,0,90,2.0,0.0
13949,81.0,46,40,1.0,0.0
13950,76.0,0,90,7.0,0.0
13951,81.0,2,40,7.0,0.0
13952,80.0,0,40,7.0,0.0
13953,80.0,34,40,1.0,0.0
13954,83.0,46,40,1.0,0.0
13955,83.0,2,40,7.0,0.0
13956,66.0,14,30,2.0,0.0
13957,66.0,2,90,8.0,0.0
13958,81.0,32,40,1.0,0.0
13959,81.0,0,40,7.0,0.0
13960,69.0,0,90,8.0,0.0
13961,80.0,16,40,1.0,0.0
13962,80.0,2,40,7.0,0.0
13963,69.0,14,30,2.0,0.0
13964,78.0,0,40,7.0,0.0
13965,78.0,96,40,1.0,0.0
13966,71.0,0,90,8.0,0.0
13967,62.0,0,360,3.0,0.0
13968,71.0,2,90,2.0,0.0
13969,62.0,30,360,8.0,0.0
13970,81.0,46,40,1.0,0.0
13971,81.0,0,40,7.0,0.0
13972,80.0,2,40,7.0,0.0
13973,74.0,0,90,8.0,0.0
13974,80.0,46,40,1.0,0.0
13975,74.0,0,90,2.0,0.0
13976,78.0,0,40,1.0,0.0
13977,78.0,34,40,7.0,0.0
13978,64.0,2,90,8.0,0.0
13979,64.0,14,30,2.0,0.0
13980,81.0,46,40,1.0,0.0
13981,81.0,2,40,7.0,0.0
13982,80.0,0,40,7.0,0.0
13983,80.0,32,40,1.0,0.0
13984,78.0,16,40,1.0,0.0
13985,68.0,0,90,8.0,0.0
13986,68.0,14,30,2.0,0.0
13987,78.0,2,40,7.0,0.0
13988,76.0,0,40,7.0,0.0
13989,76.0,96,40,1.0,0.0
13990,69.0,0,90,2.0,0.0
13991,60.0,0,150,3.0,0.0
13992,60.0,30,150,8.0,0.0
13993,69.0,0,90,8.0,0.0
13994,79.0,2,40,7.0,0.0
13995,79.0,46,40,1.0,0.0
13996,77.0,16,40,1.0,0.0
13997,72.0,0,90,2.0,0.0
13998,77.0,2,40,7.0,0.0
13999,72.0,0,90,8.0,0.0
14000,76.0,34,40,7.0,0.0
14001,76.0,0,40,1.0,0.0
14002,77.0,46,40,1.0,0.0
14003,77.0,0,40,7.0,0.0
14004,62.0,2,40,7.0,0.0
14005,59.0,2,90,8.0,0.0
14006,62.0,14,30,2.0,0.0
14007,59.0,0,90,3.0,0.0
14008,72.0,0,40,2.0,0.0
14009,76.0,46,40,1.0,0.0
14010,76.0,0,40,7.0,0.0
14011,72.0,0,40,7.0,0.0
14012,60.0,0,90,3.0,0.0
14013,60.0,0,90,8.0,0.0
14014,71.0,0,40,2.0,0.0
14015,71.0,0,40,7.0,0.0
14016,74.0,46,40,1.0,0.0
14017,74.0,2,40,7.0,0.0
14018,69.0,0,40,2.0,0.0
14019,72.0,0,40,7.0,0.0
14020,69.0,0,40,7.0,0.0
14021,72.0,34,40,1.0,0.0
14022,71.0,46,40,1.0,0.0
14023,62.0,0,90,3.0,0.0
14024,68.0,14,30,2.0,0.0
14025,71.0,2,40,7.0,0.0
14026,62.0,0,90,8.0,0.0
14027,68.0,0,40,7.0,0.0
14028,74.0,0,40,1.0,0.0
14029,74.0,0,40,7.0,0.0
14030,71.0,46,40,2.0,0.0
14031,71.0,2,40,7.0,0.0
14032,64.0,0,90,3.0,0.0
14033,69.0,2,40,7.0,0.0
14034,72.0,0,40,7.0,0.0
14035,72.0,0,40,1.0,0.0
14036,69.0,46,40,2.0,0.0
14037,64.0,48,90,8.0,0.0
14038,68.0,0,40,7.0,0.0
14039,71.0,0,40,7.0,0.0
14040,71.0,0,40,1.0,0.0
14041,68.0,0,40,2.0,0.0
14042,57.0,0,90,8.0,0.0
14043,72.0,0,90,1.0,0.0
14044,69.0,0,90,2.0,0.0
14045,57.0,48,40,3.0,0.0
14046,57.0,0,40,5.0,0.0
14047,72.0,0,90,7.0,0.0
14048,69.0,0,90,7.0,0.0
14049,59.0,0,40,3.0,0.0
14050,59.0,48,40,5.0,0.0
14051,64.0,0,90,2.0,0.0
14052,45.0,0,40,8.0,0.0
14053,60.0,0,40,5.0,0.0
14054,57.0,0,40,6.0,0.0
14055,69.0,0,90,1.0,0.0
14056,45.0,0,40,4.0,0.0
14057,60.0,48,40,3.0,0.0
14058,59.0,0,40,6.0,0.0
14059,47.0,34,40,4.0,0.0
14060,47.0,0,40,8.0,0.0
14061,62.0,0,40,5.0,0.0
14062,62.0,0,40,3.0,0.0
14063,48.0,0,30,8.0,0.0
14064,48.0,0,30,4.0,0.0
14065,60.0,14,30,6.0,0.0
14066,64.0,48,40,3.0,0.0
14067,64.0,0,40,5.0,0.0
14068,66.0,0,40,3.0,0.0
14069,66.0,34,40,5.0,0.0
14070,72.0,0,90,1.0,0.0
14071,64.0,0,40,2.0,0.0
14072,68.0,0,40,3.0,0.0
14073,57.0,0,30,6.0,0.0
14074,45.0,0,30,8.0,0.0
14075,45.0,14,30,4.0,0.0
14076,64.0,0,40,7.0,0.0
14077,72.0,0,90,5.0,0.0
14078,68.0,48,40,5.0,0.0
14079,66.0,0,40,7.0,0.0
14080,66.0,0,40,2.0,0.0
14081,69.0,0,40,5.0,0.0
14082,69.0,34,40,3.0,0.0
14083,52.0,14,30,4.0,0.0
14084,68.0,0,40,2.0,0.0
14085,68.0,30,150,5.0,0.0
14086,71.0,0,90,5.0,0.0
14087,68.0,48,40,7.0,0.0
14088,64.0,0,30,6.0,0.0
14089,52.0,0,30,8.0,0.0
14090,71.0,0,90,1.0,0.0
14091,71.0,0,90,3.0,0.0
14092,69.0,34,40,2.0,0.0
14093,69.0,0,40,7.0,0.0
14094,64.0,0,90,3.0,0.0
14095,48.0,0,30,8.0,0.0
14096,71.0,18,40,7.0,0.0
14097,76.0,96,90,1.0,0.0
14098,71.0,0,40,2.0,0.0
14099,48.0,0,30,4.0,0.0
14100,60.0,14,30,6.0,0.0
14101,76.0,0,90,5.0,0.0
14102,72.0,0,40,2.0,0.0
14103,72.0,0,40,7.0,0.0
14104,53.0,0,90,4.0,0.0
14105,65.0,0,90,6.0,0.0
14106,74.0,0,240,7.0,0.0
14107,69.0,48,90,3.0,0.0
14108,53.0,0,90,8.0,0.0
14109,74.0,48,240,2.0,0.0
14110,69.0,0,180,5.0,0.0
14111,69.0,0,40,7.0,0.0
14112,74.0,0,40,1.0,0.0
14113,74.0,0,40,5.0,0.0
14114,69.0,0,90,3.0,0.0
14115,76.0,0,40,1.0,0.0
14116,64.0,0,40,6.0,0.0
14117,68.0,0,40,7.0,0.0
14118,76.0,48,40,5.0,0.0
14119,52.0,0,40,4.0,0.0
14120,52.0,0,40,8.0,0.0
14121,50.0,0,40,8.0,0.0
14122,62.0,48,40,6.0,0.0
14123,50.0,0,40,4.0,0.0
14124,77.0,0,40,5.0,0.0
14125,77.0,0,40,1.0,0.0
14126,69.0,0,40,7.0,0.0
14127,68.0,48,90,5.0,0.0
14128,52.0,0,150,4.0,0.0
14129,68.0,30,150,7.0,0.0
14130,52.0,0,150,8.0,0.0
14131,71.0,0,90,5.0,0.0
14132,68.0,0,90,3.0,0.0
14133,64.0,0,150,6.0,0.0
14134,71.0,0,90,1.0,0.0
14135,74.0,0,40,2.0,0.0
14136,77.0,0,40,7.0,0.0
14137,72.0,0,150,5.0,0.0
14138,72.0,30,150,3.0,0.0
14139,76.0,0,150,5.0,0.0
14140,76.0,0,150,1.0,0.0
14141,76.0,18,40,7.0,0.0
14142,72.0,0,40,2.0,0.0
14143,71.0,48,40,2.0,0.0
14144,74.0,0,40,7.0,0.0
14145,53.0,0,40,4.0,0.0
14146,53.0,0,40,8.0,0.0
14147,65.0,18,40,6.0,0.0
14148,69.0,0,90,7.0,0.0
14149,72.0,48,90,7.0,0.0
14150,69.0,0,90,2.0,0.0
14151,57.0,0,40,8.0,0.0
14152,57.0,0,40,4.0,0.0
14153,69.0,0,40,6.0,0.0
14154,50.0,48,40,4.0,0.0
14155,71.0,0,150,5.0,0.0
14156,71.0,30,150,3.0,0.0
14157,77.0,0,90,2.0,0.0
14158,77.0,0,90,7.0,0.0
14159,50.0,0,40,8.0,0.0
14160,74.0,0,150,5.0,0.0
14161,74.0,0,90,7.0,0.0
14162,62.0,0,40,6.0,0.0
14163,74.0,18,150,1.0,0.0
14164,53.0,0,40,8.0,0.0
14165,65.0,0,40,6.0,0.0
14166,53.0,48,40,4.0,0.0
14167,52.0,0,40,4.0,0.0
14168,52.0,0,40,8.0,0.0
14169,64.0,0,40,6.0,0.0
14170,71.0,0,90,7.0,0.0
14171,68.0,48,90,7.0,0.0
14172,68.0,0,90,2.0,0.0
14173,68.0,0,40,5.0,0.0
14174,50.0,0,40,8.0,0.0
14175,50.0,0,40,4.0,0.0
14176,62.0,0,40,6.0,0.0
14177,71.0,0,40,1.0,0.0
14178,71.0,0,40,5.0,0.0
14179,48.0,0,40,4.0,0.0
14180,76.0,0,90,7.0,0.0
14181,72.0,0,90,7.0,0.0
14182,69.0,0,150,3.0,0.0
14183,72.0,0,150,5.0,0.0
14184,69.0,0,150,5.0,0.0
14185,76.0,0,90,2.0,0.0
14186,60.0,48,40,6.0,0.0
14187,48.0,0,40,8.0,0.0
14188,72.0,30,150,1.0,0.0
14189,64.0,0,40,6.0,0.0
14190,52.0,0,40,8.0,0.0
14191,52.0,48,40,4.0,0.0
14192,50.0,18,40,8.0,0.0
14193,50.0,0,40,4.0,0.0
14194,65.0,0,90,2.0,0.0
14195,62.0,0,40,6.0,0.0
14196,69.0,0,90,7.0,0.0
14197,65.0,0,90,7.0,0.0
14198,53.0,0,40,4.0,0.0
14199,53.0,48,40,8.0,0.0
14200,65.0,0,40,6.0,0.0
14201,71.0,0,180,1.0,0.0
14202,71.0,0,90,7.0,0.0
14203,74.0,0,180,7.0,0.0
14204,68.0,0,180,3.0,0.0
14205,59.0,0,40,6.0,0.0
14206,47.0,48,40,8.0,0.0
14207,71.0,0,180,5.0,0.0
14208,74.0,0,90,2.0,0.0
14209,47.0,0,40,4.0,0.0
14210,50.0,0,40,4.0,0.0
14211,50.0,48,40,8.0,0.0
14212,62.0,0,40,6.0,0.0
14213,48.0,0,40,4.0,0.0
14214,64.0,30,150,2.0,0.0
14215,64.0,30,270,7.0,0.0
14216,60.0,0,40,6.0,0.0
14217,48.0,48,40,8.0,0.0
14218,47.0,0,40,4.0,0.0
14219,47.0,48,40,8.0,0.0
14220,59.0,0,40,6.0,0.0
14221,72.0,0,40,5.0,0.0
14222,72.0,0,40,1.0,0.0
14223,72.0,0,150,7.0,0.0
14224,45.0,0,40,4.0,0.0
14225,69.0,0,90,3.0,0.0
14226,45.0,18,40,8.0,0.0
14227,69.0,0,90,5.0,0.0
14228,57.0,0,40,6.0,0.0
14229,74.0,48,40,5.0,0.0
14230,59.0,0,40,6.0,0.0
14231,74.0,0,40,1.0,0.0
14232,47.0,0,40,4.0,0.0
14233,47.0,0,40,8.0,0.0
14234,48.0,0,40,4.0,0.0
14235,76.0,0,40,1.0,0.0
14236,60.0,0,40,6.0,0.0
14237,64.0,0,90,3.0,0.0
14238,48.0,0,40,8.0,0.0
14239,76.0,18,40,5.0,0.0
14240,62.0,0,40,6.0,0.0
14241,50.0,48,40,4.0,0.0
14242,50.0,0,40,8.0,0.0
14243,78.0,0,40,5.0,0.0
14244,78.0,0,40,1.0,0.0
14245,76.0,48,150,2.0,0.0
14246,71.0,0,90,7.0,0.0
14247,62.0,0,90,3.0,0.0
14248,80.0,0,40,5.0,0.0
14249,62.0,34,90,7.0,0.0
14250,64.0,0,90,6.0,0.0
14251,80.0,48,40,1.0,0.0
14252,52.0,0,90,4.0,0.0
14253,52.0,0,90,8.0,0.0
14254,76.0,0,40,5.0,0.0
14255,76.0,0,40,1.0,0.0
14256,41.0,14,30,4.0,0.0
14257,53.0,0,30,6.0,0.0
14258,60.0,0,90,7.0,0.0
14259,69.0,0,90,7.0,0.0
14260,81.0,30,360,5.0,0.0
14261,60.0,0,90,3.0,0.0
14262,81.0,18,240,1.0,0.0
14263,41.0,0,30,8.0,0.0
14264,76.0,34,40,2.0,0.0
14265,79.0,0,40,5.0,0.0
14266,74.0,48,40,2.0,0.0
14267,65.0,30,150,3.0,0.0
14268,57.0,14,30,6.0,0.0
14269,45.0,0,30,4.0,0.0
14270,77.0,0,40,5.0,0.0
14271,45.0,0,30,8.0,0.0
14272,72.0,48,90,7.0,0.0
14273,72.0,0,40,2.0,0.0
14274,76.0,0,40,5.0,0.0
14275,74.0,0,240,7.0,0.0
14276,59.0,0,90,6.0,0.0
14277,47.0,0,90,4.0,0.0
14278,74.0,48,240,2.0,0.0
14279,74.0,48,90,5.0,0.0
14280,47.0,0,90,8.0,0.0
14281,69.0,0,40,7.0,0.0
14282,84.0,0,40,1.0,0.0
14283,59.0,0,180,3.0,0.0
14284,50.0,0,90,4.0,0.0
14285,77.0,0,150,5.0,0.0
14286,71.0,0,40,7.0,0.0
14287,50.0,0,90,8.0,0.0
14288,62.0,34,90,6.0,0.0
14289,83.0,18,40,1.0,0.0
14290,72.0,0,40,7.0,0.0
14291,81.0,0,40,1.0,0.0
14292,52.0,14,30,6.0,0.0
14293,80.0,0,90,1.0,0.0
14294,40.0,0,30,4.0,0.0
14295,40.0,0,30,8.0,0.0
14296,80.0,30,150,5.0,0.0
14297,77.0,34,40,5.0,0.0
14298,74.0,0,40,2.0,0.0
14299,74.0,0,40,7.0,0.0
14300,72.0,0,40,7.0,0.0
14301,44.0,0,30,8.0,0.0
14302,44.0,0,30,4.0,0.0
14303,64.0,30,150,3.0,0.0
14304,76.0,0,40,5.0,0.0
14305,76.0,0,90,1.0,0.0
14306,56.0,14,30,6.0,0.0
14307,72.0,18,40,2.0,0.0
14308,71.0,0,40,2.0,0.0
14309,71.0,0,15,7.0,0.0
14310,74.0,0,40,5.0,0.0
14311,45.0,0,90,4.0,0.0
14312,72.0,0,90,5.0,0.0
14313,72.0,0,90,2.0,0.0
14314,45.0,0,90,8.0,0.0
14315,57.0,0,90,6.0,0.0
14316,72.0,0,240,7.0,0.0
14317,68.0,48,40,7.0,0.0
14318,48.0,0,90,8.0,0.0
14319,69.0,48,40,7.0,0.0
14320,57.0,48,90,3.0,0.0
14321,81.0,0,90,1.0,0.0
14322,69.0,0,90,5.0,0.0
14323,76.0,0,90,5.0,0.0
14324,81.0,0,90,5.0,0.0
14325,48.0,0,90,4.0,0.0
14326,60.0,0,90,6.0,0.0
14327,76.0,0,90,2.0,0.0
14328,71.0,0,40,7.0,0.0
14329,38.0,0,40,8.0,0.0
14330,50.0,48,40,6.0,0.0
14331,50.0,0,90,4.0,0.0
14332,74.0,0,90,2.0,0.0
14333,77.0,0,90,5.0,0.0
14334,74.0,0,90,5.0,0.0
14335,69.0,0,90,5.0,0.0
14336,77.0,0,90,1.0,0.0
14337,69.0,0,90,3.0,0.0
14338,69.0,0,40,7.0,0.0
14339,48.0,0,40,8.0,0.0
14340,60.0,48,40,6.0,0.0
14341,59.0,48,40,6.0,0.0
14342,69.0,0,90,7.0,0.0
14343,71.0,0,90,7.0,0.0
14344,47.0,0,40,8.0,0.0
14345,65.0,0,90,7.0,0.0
14346,45.0,0,40,8.0,0.0
14347,57.0,48,40,6.0,0.0
14348,76.0,48,90,1.0,0.0
14349,40.0,48,40,8.0,0.0
14350,69.0,0,90,3.0,0.0
14351,52.0,0,90,4.0,0.0
14352,52.0,0,40,6.0,0.0
14353,69.0,0,90,5.0,0.0
14354,72.0,0,90,5.0,0.0
14355,76.0,0,90,5.0,0.0
14356,72.0,0,90,2.0,0.0
14357,60.0,0,40,6.0,0.0
14358,48.0,0,40,8.0,0.0
14359,59.0,0,40,6.0,0.0
14360,47.0,48,40,8.0,0.0
14361,69.0,0,90,7.0,0.0
14362,64.0,48,90,7.0,0.0
14363,72.0,0,90,7.0,0.0
14364,57.0,0,40,6.0,0.0
14365,45.0,0,40,8.0,0.0
14366,74.0,0,90,5.0,0.0
14367,62.0,0,90,5.0,0.0
14368,69.0,0,90,5.0,0.0
14369,53.0,48,90,4.0,0.0
14370,74.0,0,90,1.0,0.0
14371,69.0,0,90,2.0,0.0
14372,53.0,0,40,6.0,0.0
14373,62.0,0,90,3.0,0.0
14374,41.0,48,40,8.0,0.0
14375,48.0,0,40,8.0,0.0
14376,60.0,0,40,6.0,0.0
14377,47.0,0,40,8.0,0.0
14378,59.0,48,40,6.0,0.0
14379,74.0,48,90,7.0,0.0
14380,62.0,0,90,7.0,0.0
14381,69.0,0,90,7.0,0.0
14382,57.0,0,40,6.0,0.0
14383,45.0,0,40,8.0,0.0
14384,69.0,0,90,2.0,0.0
14385,64.0,0,90,3.0,0.0
14386,72.0,0,90,1.0,0.0
14387,48.0,48,40,6.0,0.0
14388,48.0,0,90,4.0,0.0
14389,64.0,0,90,5.0,0.0
14390,36.0,0,40,8.0,0.0
14391,69.0,0,90,5.0,0.0
14392,72.0,0,90,5.0,0.0
14393,60.0,48,40,6.0,0.0
14394,48.0,0,40,8.0,0.0
14395,76.0,0,90,7.0,0.0
14396,69.0,48,90,7.0,0.0
14397,47.0,48,40,8.0,0.0
14398,59.0,0,40,6.0,0.0
14399,72.0,0,90,7.0,0.0
14400,57.0,0,40,6.0,0.0
14401,45.0,0,40,8.0,0.0
14402,65.0,0,90,5.0,0.0
14403,69.0,48,90,2.0,0.0
14404,38.0,0,40,8.0,0.0
14405,65.0,0,90,3.0,0.0
14406,71.0,0,90,1.0,0.0
14407,50.0,48,40,6.0,0.0
14408,50.0,0,90,4.0,0.0
14409,71.0,0,90,5.0,0.0
14410,69.0,0,90,5.0,0.0
14411,60.0,0,40,6.0,0.0
14412,48.0,0,40,8.0,0.0
14413,59.0,0,40,6.0,0.0
14414,47.0,48,40,8.0,0.0
14415,77.0,48,90,7.0,0.0
14416,71.0,0,90,7.0,0.0
14417,69.0,0,90,7.0,0.0
14418,45.0,0,40,8.0,0.0
14419,57.0,0,40,6.0,0.0
14420,40.0,48,40,8.0,0.0
14421,52.0,0,40,6.0,0.0
14422,64.0,0,90,3.0,0.0
14423,72.0,48,90,1.0,0.0
14424,52.0,0,90,4.0,0.0
14425,64.0,0,90,5.0,0.0
14426,69.0,0,90,5.0,0.0
14427,69.0,0,90,2.0,0.0
14428,72.0,0,90,5.0,0.0
14429,47.0,0,40,8.0,0.0
14430,59.0,0,40,6.0,0.0
14431,57.0,48,40,6.0,0.0
14432,72.0,0,90,7.0,0.0
14433,45.0,0,40,8.0,0.0
14434,69.0,0,90,7.0,0.0
14435,76.0,0,90,7.0,0.0
14436,56.0,48,40,6.0,0.0
14437,44.0,0,40,8.0,0.0
14438,74.0,0,90,1.0,0.0
14439,69.0,0,90,5.0,0.0
14440,62.0,0,90,3.0,0.0
14441,53.0,0,90,4.0,0.0
14442,69.0,0,90,2.0,0.0
14443,53.0,48,40,6.0,0.0
14444,41.0,0,40,8.0,0.0
14445,62.0,48,90,5.0,0.0
14446,74.0,0,90,5.0,0.0
14447,45.0,0,40,8.0,0.0
14448,57.0,0,40,6.0,0.0
14449,43.0,48,40,8.0,0.0
14450,55.0,0,40,6.0,0.0
14451,74.0,0,90,7.0,0.0
14452,62.0,0,90,7.0,0.0
14453,69.0,0,90,7.0,0.0
14454,53.0,0,40,6.0,0.0
14455,41.0,48,40,8.0,0.0
14456,72.0,0,90,2.0,0.0
14457,76.0,0,90,5.0,0.0
14458,69.0,0,90,3.0,0.0
14459,48.0,0,90,4.0,0.0
14460,76.0,0,90,1.0,0.0
14461,69.0,0,90,5.0,0.0
14462,48.0,0,40,6.0,0.0
14463,36.0,48,40,8.0,0.0
14464,72.0,48,90,5.0,0.0
14465,43.0,0,40,8.0,0.0
14466,55.0,0,40,6.0,0.0
14467,72.0,0,90,7.0,0.0
14468,41.0,0,40,8.0,0.0
14469,53.0,48,40,6.0,0.0
14470,64.0,0,90,7.0,0.0
14471,69.0,0,90,7.0,0.0
14472,52.0,0,40,6.0,0.0
14473,40.0,48,40,8.0,0.0
14474,38.0,0,40,8.0,0.0
14475,77.0,48,90,1.0,0.0
14476,71.0,0,90,2.0,0.0
14477,69.0,0,90,3.0,0.0
14478,50.0,0,90,4.0,0.0
14479,77.0,0,90,5.0,0.0
14480,71.0,0,90,5.0,0.0
14481,69.0,0,90,5.0,0.0
14482,50.0,48,40,6.0,0.0
14483,41.0,0,40,8.0,0.0
14484,53.0,0,40,6.0,0.0
14485,62.0,0,90,7.0,0.0
14486,65.0,0,90,7.0,0.0
14487,40.0,0,40,8.0,0.0
14488,71.0,0,90,7.0,0.0
14489,52.0,48,40,6.0,0.0
14490,50.0,48,40,6.0,0.0
14491,38.0,0,40,8.0,0.0
14492,40.0,0,90,8.0,0.0
14493,52.0,48,40,4.0,0.0
14494,52.0,0,90,6.0,0.0
14495,71.0,0,90,2.0,0.0
14496,68.0,0,90,3.0,0.0
14497,56.0,0,90,7.0,0.0
14498,76.0,0,90,1.0,0.0
14499,68.0,0,90,5.0,0.0
14500,64.0,0,90,7.0,0.0
14501,71.0,0,90,5.0,0.0
14502,59.0,0,90,7.0,0.0
14503,76.0,0,90,5.0,0.0
14504,50.0,96,40,4.0,0.0
14505,52.0,96,90,8.0,0.0
14506,68.0,0,90,5.0,0.0
14507,40.0,0,90,6.0,0.0
14508,59.0,0,90,7.0,0.0
14509,64.0,0,90,7.0,0.0
14510,68.0,0,90,7.0,0.0
14511,71.0,0,90,2.0,0.0
14512,71.0,0,90,5.0,0.0
14513,52.0,0,90,4.0,0.0
14514,74.0,0,90,1.0,0.0
14515,68.0,0,90,3.0,0.0
14516,74.0,0,90,5.0,0.0
14517,64.0,48,90,3.0,0.0
14518,72.0,0,90,5.0,0.0
14519,69.0,0,90,5.0,0.0
14520,69.0,0,90,7.0,0.0
14521,64.0,0,90,5.0,0.0
14522,45.0,30,150,8.0,0.0
14523,72.0,0,90,1.0,0.0
14524,60.0,0,90,7.0,0.0
14525,64.0,0,90,7.0,0.0
14526,69.0,0,90,2.0,0.0
14527,45.0,0,90,6.0,0.0
14528,45.0,0,90,4.0,0.0
14529,69.0,18,40,7.0,0.0
14530,71.0,34,40,7.0,0.0
14531,72.0,96,30,7.0,0.0
14532,69.0,14,30,7.0,0.0
14533,69.0,48,40,5.0,0.0
14534,71.0,34,40,5.0,0.0
14535,76.0,14,30,7.0,0.0
14536,73.0,48,40,5.0,0.0
14537,76.0,34,40,5.0,0.0
14538,69.0,48,40,5.0,0.0
14539,73.0,14,30,7.0,0.0
14540,73.0,48,40,5.0,0.0
14541,76.0,48,40,5.0,0.0
14542,79.0,0,90,7.0,0.0
14543,79.0,48,40,5.0,0.0
14544,73.0,48,40,5.0,0.0
14545,45.0,0,90,4.0,0.0
14546,73.0,0,90,1.0,0.0
14547,69.0,48,90,2.0,0.0
14548,77.0,0,40,7.0,0.0
14549,55.0,0,90,3.0,0.0
14550,76.0,0,40,7.0,0.0
14551,76.0,0,40,5.0,0.0
14552,65.0,0,90,3.0,0.0
14553,38.0,0,90,4.0,0.0
14554,81.0,2,40,5.0,0.0
14555,62.0,0,90,6.0,0.0
14556,69.0,0,90,2.0,0.0
14557,74.0,46,40,1.0,0.0
14558,57.0,2,90,6.0,0.0
14559,50.0,0,90,6.0,0.0
14560,53.0,0,90,6.0,0.0
14561,77.0,0,90,7.0,0.0
14562,50.0,30,150,8.0,0.0
14563,45.0,0,150,8.0,0.0
14564,38.0,0,150,8.0,0.0
14565,79.0,0,40,5.0,0.0
14566,76.0,46,40,1.0,0.0
14567,62.0,2,40,7.0,0.0
14568,77.0,16,40,1.0,0.0
14569,77.0,0,40,5.0,0.0
14570,79.0,32,40,1.0,0.0
14571,64.0,2,40,7.0,0.0
14572,76.0,0,40,5.0,0.0
14573,74.0,34,90,5.0,0.0
14574,65.0,62,30,7.0,0.0
14575,81.0,0,90,1.0,0.0
14576,62.0,48,40,5.0,0.0
14577,62.0,14,30,7.0,0.0
14578,64.0,34,40,5.0,0.0
14579,66.0,48,40,5.0,0.0
14580,69.0,14,30,7.0,0.0
14581,69.0,34,40,5.0,0.0
14582,66.0,14,30,7.0,0.0
14583,62.0,48,40,5.0,0.0
14584,66.0,48,40,5.0,0.0
14585,69.0,48,40,5.0,0.0
14586,72.0,48,90,7.0,0.0
14587,72.0,0,40,5.0,0.0
14588,66.0,0,90,1.0,0.0
14589,60.0,0,90,3.0,0.0
14590,50.0,0,90,4.0,0.0
14591,66.0,0,40,5.0,0.0
14592,62.0,0,90,2.0,0.0
14593,71.0,48,40,7.0,0.0
14594,69.0,0,40,5.0,0.0
14595,69.0,48,40,7.0,0.0
14596,50.0,30,150,8.0,0.0
14597,62.0,0,90,2.0,0.0
14598,47.0,0,90,6.0,0.0
14599,43.0,0,90,6.0,0.0
14600,71.0,2,90,7.0,0.0
14601,50.0,0,90,6.0,0.0
14602,59.0,0,90,3.0,0.0
14603,55.0,0,90,6.0,0.0
14604,67.0,46,40,1.0,0.0
14605,43.0,0,90,4.0,0.0
14606,74.0,2,40,5.0,0.0
14607,43.0,0,150,8.0,0.0
14608,69.0,46,40,1.0,0.0
14609,72.0,0,40,5.0,0.0
14610,71.0,16,40,1.0,0.0
14611,71.0,0,40,5.0,0.0
14612,67.0,2,40,7.0,0.0
14613,69.0,2,40,7.0,0.0
14614,72.0,32,40,1.0,0.0
14615,69.0,0,40,5.0,0.0
14616,67.0,48,40,5.0,0.0
14617,71.0,14,30,7.0,0.0
14618,74.0,0,90,1.0,0.0
14619,66.0,34,40,5.0,0.0
14620,67.0,14,30,7.0,0.0
14621,67.0,48,40,5.0,0.0
14622,69.0,34,40,5.0,0.0
14623,74.0,14,30,7.0,0.0
14624,71.0,48,40,5.0,0.0
14625,74.0,34,40,5.0,0.0
14626,71.0,14,30,7.0,0.0
14627,67.0,48,40,5.0,0.0
14628,71.0,48,40,5.0,0.0
14629,77.0,48,90,7.0,0.0
14630,74.0,48,40,5.0,0.0
14631,77.0,0,40,5.0,0.0
14632,65.0,48,90,3.0,0.0
14633,76.0,48,40,7.0,0.0
14634,67.0,0,90,2.0,0.0
14635,43.0,0,90,4.0,0.0
14636,71.0,0,40,5.0,0.0
14637,71.0,0,90,1.0,0.0
14638,74.0,0,40,5.0,0.0
14639,74.0,0,40,7.0,0.0
14640,67.0,0,90,2.0,0.0
14641,48.0,0,90,6.0,0.0
14642,76.0,0,90,7.0,0.0
14643,79.0,2,40,5.0,0.0
14644,48.0,0,150,8.0,0.0
14645,36.0,30,150,8.0,0.0
14646,72.0,46,40,1.0,0.0
14647,52.0,0,90,6.0,0.0
14648,55.0,2,90,6.0,0.0
14649,60.0,0,90,6.0,0.0
14650,36.0,0,90,4.0,0.0
14651,64.0,0,90,3.0,0.0
14652,77.0,0,40,5.0,0.0
14653,74.0,46,40,1.0,0.0
14654,76.0,16,40,1.0,0.0
14655,60.0,2,40,7.0,0.0
14656,76.0,0,40,5.0,0.0
14657,62.0,0,40,7.0,0.0
14658,74.0,2,40,5.0,0.0
14659,77.0,32,40,1.0,0.0
14660,72.0,48,40,5.0,0.0
14661,79.0,34,90,1.0,0.0
14662,64.0,14,30,7.0,0.0
14663,71.0,0,40,5.0,0.0
14664,72.0,48,40,5.0,0.0
14665,60.0,14,30,7.0,0.0
14666,74.0,34,40,5.0,0.0
14667,67.0,14,30,7.0,0.0
14668,76.0,48,40,5.0,0.0
14669,79.0,34,40,5.0,0.0
14670,64.0,14,30,7.0,0.0
14671,72.0,48,40,5.0,0.0
14672,76.0,48,40,5.0,0.0
14673,70.0,0,90,7.0,0.0
14674,79.0,48,40,5.0,0.0
14675,82.0,48,40,5.0,0.0
14676,48.0,48,90,4.0,0.0
14677,58.0,0,90,3.0,0.0
14678,64.0,0,90,1.0,0.0
14679,69.0,0,40,7.0,0.0
14680,60.0,0,90,2.0,0.0
14681,76.0,48,40,5.0,0.0
14682,79.0,0,40,5.0,0.0
14683,67.0,0,40,7.0,0.0
14684,41.0,0,90,6.0,0.0
14685,48.0,0,90,6.0,0.0
14686,57.0,0,90,3.0,0.0
14687,65.0,0,90,1.0,0.0
14688,69.0,30,360,7.0,0.0
14689,45.0,0,90,6.0,0.0
14690,53.0,0,90,6.0,0.0
14691,41.0,0,90,4.0,0.0
14692,84.0,48,40,5.0,0.0
14693,60.0,0,90,2.0,0.0
14694,41.0,0,40,8.0,0.0
14695,53.0,0,40,8.0,0.0
14696,82.0,48,40,5.0,0.0
14697,65.0,48,90,7.0,0.0
14698,81.0,48,40,5.0,0.0
14699,55.0,0,40,8.0,0.0
14700,79.0,0,40,5.0,0.0
14701,57.0,0,40,8.0,0.0
14702,77.0,0,90,5.0,0.0
14703,58.0,48,40,8.0,0.0
14704,60.0,0,90,7.0,0.0
14705,57.0,48,40,8.0,0.0
14706,55.0,18,40,8.0,0.0
14707,65.0,48,90,7.0,0.0
14708,53.0,0,40,8.0,0.0
14709,64.0,30,360,7.0,0.0
14710,60.0,48,40,8.0,0.0
14711,48.0,48,40,8.0,0.0
14712,50.0,48,40,8.0,0.0
14713,72.0,0,90,7.0,0.0
14714,52.0,48,40,8.0,0.0
14715,67.0,48,90,7.0,0.0
14716,53.0,48,40,8.0,0.0
14717,52.0,0,40,8.0,0.0
14718,50.0,18,40,8.0,0.0
14719,72.0,0,90,7.0,0.0
14720,48.0,48,40,8.0,0.0
14721,70.0,30,360,7.0,0.0
14722,55.0,48,40,8.0,0.0
14723,43.0,48,40,8.0,0.0
14724,45.0,48,40,8.0,0.0
14725,67.0,48,90,7.0,0.0
14726,46.0,0,40,8.0,0.0
14727,48.0,48,40,8.0,0.0
14728,62.0,0,90,7.0,0.0
14729,46.0,48,40,8.0,0.0
14730,45.0,18,40,8.0,0.0
14731,67.0,0,90,7.0,0.0
14732,43.0,48,40,8.0,0.0
14733,65.0,30,360,7.0,0.0
14734,50.0,48,40,8.0,0.0
14735,38.0,48,40,8.0,0.0
14736,40.0,48,40,8.0,0.0
14737,74.0,48,90,7.0,0.0
14738,41.0,0,40,8.0,0.0
14739,69.0,48,90,7.0,0.0
14740,43.0,48,40,8.0,0.0
14741,41.0,0,40,8.0,0.0
14742,74.0,0,90,7.0,0.0
14743,40.0,18,40,8.0,0.0
14744,38.0,96,40,8.0,0.0
14745,45.0,0,90,8.0,0.0
14746,72.0,48,420,7.0,0.0
14747,64.0,48,40,7.0,0.0
14748,66.0,48,40,7.0,0.0
14749,57.0,0,40,8.0,0.0
14750,67.0,0,40,7.0,0.0
14751,55.0,48,40,8.0,0.0
14752,69.0,48,40,7.0,0.0
14753,54.0,48,90,8.0,0.0
14754,67.0,0,40,7.0,0.0
14755,66.0,48,40,7.0,0.0
14756,50.0,0,90,8.0,0.0
14757,64.0,48,40,7.0,0.0
14758,62.0,0,90,7.0,0.0
14759,55.0,30,540,8.0,0.0
14760,62.0,0,90,8.0,0.0
14761,70.0,48,40,7.0,0.0
14762,72.0,48,40,7.0,0.0
14763,60.0,0,90,8.0,0.0
14764,74.0,48,40,7.0,0.0
14765,58.0,48,90,8.0,0.0
14766,75.0,48,40,7.0,0.0
14767,74.0,0,40,7.0,0.0
14768,63.0,48,90,8.0,0.0
14769,72.0,48,40,7.0,0.0
14770,70.0,0,40,7.0,0.0
14771,60.0,0,90,8.0,0.0
14772,70.0,48,40,7.0,0.0
14773,69.0,48,40,7.0,0.0
14774,70.0,18,40,7.0,0.0
14775,58.0,48,90,8.0,0.0
14776,72.0,0,40,7.0,0.0
14777,74.0,48,40,7.0,0.0
14778,53.0,46,330,8.0,0.0
14779,57.0,48,90,8.0,0.0
14780,72.0,0,40,7.0,0.0
14781,62.0,48,90,8.0,0.0
14782,71.0,48,40,7.0,0.0
14783,69.0,0,40,7.0,0.0
14784,69.0,48,40,7.0,0.0
14785,59.0,0,90,8.0,0.0
14786,67.0,48,40,7.0,0.0
14787,69.0,2,40,7.0,0.0
14788,57.0,0,90,8.0,0.0
14789,71.0,48,40,7.0,0.0
14790,51.0,48,240,8.0,0.0
14791,72.0,48,40,7.0,0.0
14792,55.0,48,90,8.0,0.0
14793,70.0,0,40,7.0,0.0
14794,68.0,48,40,7.0,0.0
14795,60.0,48,90,8.0,0.0
14796,67.0,0,40,7.0,0.0
14797,65.0,30,540,7.0,0.0
14798,57.0,0,90,7.0,0.0
14799,51.0,48,40,8.0,0.0
14800,59.0,48,40,7.0,0.0
14801,50.0,0,40,8.0,0.0
14802,48.0,0,40,8.0,0.0
14803,60.0,48,40,7.0,0.0
14804,47.0,48,40,8.0,0.0
14805,62.0,0,40,7.0,0.0
14806,48.0,0,40,8.0,0.0
14807,60.0,48,40,7.0,0.0
14808,50.0,48,40,8.0,0.0
14809,59.0,0,40,7.0,0.0
14810,47.0,0,40,8.0,0.0
14811,57.0,48,40,7.0,0.0
14812,39.0,48,240,8.0,0.0
14813,60.0,48,40,7.0,0.0
14814,59.0,48,40,7.0,0.0
14815,57.0,18,40,7.0,0.0
14816,55.0,48,40,7.0,0.0
14817,63.0,48,300,7.0,0.0
14818,60.0,0,660,7.0,0.0
14819,39.0,48,40,8.0,0.0
14820,41.0,48,40,8.0,0.0
14821,43.0,48,40,8.0,0.0
14822,44.0,48,40,8.0,0.0
14823,43.0,0,40,8.0,0.0
14824,41.0,48,40,8.0,0.0
14825,63.0,48,90,7.0,0.0
14826,39.0,0,40,8.0,0.0
14827,68.0,48,90,7.0,0.0
14828,41.0,48,40,8.0,0.0
14829,36.0,0,40,8.0,0.0
14830,65.0,0,90,7.0,0.0
14831,38.0,48,40,8.0,0.0
14832,39.0,48,40,8.0,0.0
14833,63.0,48,40,7.0,0.0
14834,41.0,48,90,8.0,0.0
14835,62.0,0,40,7.0,0.0
14836,43.0,0,90,8.0,0.0
14837,60.0,48,40,7.0,0.0
14838,53.0,96,90,7.0,0.0
14839,59.0,0,40,7.0,0.0
14840,60.0,30,360,7.0,0.0
14841,44.0,48,90,8.0,0.0
14842,51.0,0,40,8.0,0.0
14843,43.0,0,90,8.0,0.0
14844,53.0,48,40,8.0,0.0
14845,55.0,48,40,8.0,0.0
14846,56.0,48,40,8.0,0.0
14847,41.0,48,90,8.0,0.0
14848,55.0,0,40,8.0,0.0
14849,53.0,18,40,8.0,0.0
14850,38.0,48,90,8.0,0.0
14851,51.0,0,40,8.0,0.0
14852,43.0,48,90,8.0,0.0
14853,50.0,48,40,8.0,0.0
14854,59.0,30,150,7.0,0.0
14855,51.0,0,40,8.0,0.0
14856,43.0,0,90,8.0,0.0
14857,53.0,18,40,8.0,0.0
14858,55.0,48,40,8.0,0.0
14859,53.0,48,40,8.0,0.0
14860,36.0,0,150,8.0,0.0
14861,60.0,30,150,7.0,0.0
14862,51.0,0,40,8.0,0.0
14863,60.0,48,40,6.0,0.0
14864,62.0,0,40,6.0,0.0
14865,50.0,18,40,8.0,0.0
14866,84.0,48,90,5.0,0.0
14867,48.0,0,40,8.0,0.0
14868,63.0,0,40,6.0,0.0
14869,65.0,48,40,6.0,0.0
14870,79.0,48,90,5.0,0.0
14871,63.0,0,40,6.0,0.0
14872,84.0,48,90,5.0,0.0
14873,62.0,48,40,6.0,0.0
14874,60.0,0,40,6.0,0.0
14875,83.0,30,360,5.0,0.0
14876,67.0,48,40,6.0,0.0
14877,55.0,48,40,6.0,0.0
14878,57.0,48,40,6.0,0.0
14879,79.0,0,90,5.0,0.0
14880,59.0,48,40,6.0,0.0
14881,60.0,48,40,6.0,0.0
14882,74.0,48,90,5.0,0.0
14883,59.0,0,40,6.0,0.0
14884,79.0,48,90,5.0,0.0
14885,57.0,18,40,6.0,0.0
14886,55.0,0,40,6.0,0.0
14887,75.0,30,360,5.0,0.0
14888,60.0,48,40,6.0,0.0
14889,48.0,48,40,6.0,0.0
14890,84.0,48,90,5.0,0.0
14891,50.0,48,40,6.0,0.0
14892,51.0,0,40,6.0,0.0
14893,53.0,48,40,6.0,0.0
14894,79.0,48,90,5.0,0.0
14895,51.0,0,40,6.0,0.0
14896,84.0,48,90,5.0,0.0
14897,50.0,18,40,6.0,0.0
14898,48.0,0,40,6.0,0.0
14899,53.0,48,40,6.0,0.0
14900,81.0,30,360,5.0,0.0
14901,41.0,48,40,6.0,0.0
14902,43.0,48,40,6.0,0.0
14903,77.0,0,90,5.0,0.0
14904,45.0,48,40,6.0,0.0
14905,46.0,48,40,6.0,0.0
14906,72.0,48,90,5.0,0.0
14907,45.0,0,40,6.0,0.0
14908,43.0,18,40,6.0,0.0
14909,77.0,0,90,5.0,0.0
14910,41.0,48,40,6.0,0.0
14911,74.0,48,420,5.0,0.0
14912,46.0,48,40,6.0,0.0
14913,58.0,48,40,6.0,0.0
14914,82.0,48,90,5.0,0.0
14915,60.0,48,40,6.0,0.0
14916,62.0,0,40,6.0,0.0
14917,60.0,48,40,6.0,0.0
14918,77.0,0,90,5.0,0.0
14919,58.0,48,40,6.0,0.0
14920,82.0,0,90,5.0,0.0
14921,57.0,48,40,6.0,0.0
14922,55.0,48,40,6.0,0.0
14923,79.0,48,420,5.0,0.0
14924,64.0,48,90,6.0,0.0
14925,71.0,0,40,5.0,0.0
14926,73.0,48,40,5.0,0.0
14927,62.0,48,90,6.0,0.0
14928,74.0,0,40,5.0,0.0
14929,76.0,48,40,5.0,0.0
14930,61.0,48,90,6.0,0.0
14931,74.0,0,40,5.0,0.0
14932,73.0,48,40,5.0,0.0
14933,57.0,0,90,6.0,0.0
14934,71.0,48,40,5.0,0.0
14935,69.0,0,90,6.0,0.0
14936,62.0,30,540,6.0,0.0
14937,77.0,48,40,5.0,0.0
14938,67.0,0,90,6.0,0.0
14939,79.0,48,40,5.0,0.0
14940,81.0,48,40,5.0,0.0
14941,65.0,0,90,6.0,0.0
14942,82.0,48,40,5.0,0.0
14943,81.0,48,40,5.0,0.0
14944,79.0,48,40,5.0,0.0
14945,70.0,0,90,6.0,0.0
14946,77.0,48,40,5.0,0.0
14947,77.0,48,40,5.0,0.0
14948,67.0,48,90,6.0,0.0
14949,76.0,0,40,5.0,0.0
14950,77.0,18,40,5.0,0.0
14951,65.0,48,90,6.0,0.0
14952,79.0,0,40,5.0,0.0
14953,64.0,48,90,6.0,0.0
14954,60.0,46,330,6.0,0.0
14955,81.0,48,40,5.0,0.0
14956,79.0,0,40,5.0,0.0
14957,69.0,48,90,6.0,0.0
14958,78.0,48,40,5.0,0.0
14959,76.0,0,40,5.0,0.0
14960,76.0,48,40,5.0,0.0
14961,66.0,48,90,6.0,0.0
14962,74.0,0,40,5.0,0.0
14963,76.0,2,40,5.0,0.0
14964,64.0,0,90,6.0,0.0
14965,78.0,48,40,5.0,0.0
14966,79.0,48,40,5.0,0.0
14967,58.0,48,240,6.0,0.0
14968,62.0,48,90,6.0,0.0
14969,77.0,0,40,5.0,0.0
14970,75.0,48,40,5.0,0.0
14971,67.0,0,90,6.0,0.0
14972,74.0,48,40,5.0,0.0
14973,72.0,30,540,5.0,0.0
14974,64.0,48,90,5.0,0.0
14975,58.0,0,40,6.0,0.0
14976,57.0,0,40,6.0,0.0
14977,66.0,48,40,5.0,0.0
14978,55.0,0,40,6.0,0.0
14979,67.0,48,40,5.0,0.0
14980,69.0,48,40,5.0,0.0
14981,54.0,0,40,6.0,0.0
14982,55.0,0,40,6.0,0.0
14983,67.0,48,40,5.0,0.0
14984,66.0,48,40,5.0,0.0
14985,57.0,0,40,6.0,0.0
14986,64.0,48,40,5.0,0.0
14987,54.0,0,40,6.0,0.0
14988,46.0,48,240,6.0,0.0
14989,67.0,48,40,5.0,0.0
14990,66.0,48,40,5.0,0.0
14991,64.0,18,40,5.0,0.0
14992,62.0,48,40,5.0,0.0
14993,67.0,46,540,5.0,0.0
14994,70.0,0,300,5.0,0.0
14995,46.0,48,40,6.0,0.0
14996,48.0,48,40,6.0,0.0
14997,50.0,48,40,6.0,0.0
14998,51.0,48,40,6.0,0.0
14999,50.0,48,40,6.0,0.0
15000,70.0,48,90,5.0,0.0
15001,48.0,48,40,6.0,0.0
15002,46.0,0,40,6.0,0.0
15003,75.0,48,90,5.0,0.0
15004,48.0,48,40,6.0,0.0
15005,43.0,0,40,6.0,0.0
15006,45.0,2,40,6.0,0.0
15007,72.0,0,90,5.0,0.0
15008,46.0,48,40,6.0,0.0
15009,70.0,48,40,5.0,0.0
15010,36.0,0,90,6.0,0.0
15011,66.0,48,90,5.0,0.0
15012,69.0,0,40,5.0,0.0
15013,57.0,96,90,5.0,0.0
15014,48.0,0,90,6.0,0.0
15015,67.0,48,40,5.0,0.0
15016,66.0,0,40,5.0,0.0
15017,46.0,48,90,6.0,0.0
15018,67.0,30,360,5.0,0.0
15019,58.0,0,40,5.0,0.0
15020,60.0,0,40,5.0,0.0
15021,45.0,48,40,6.0,0.0
15022,62.0,48,40,5.0,0.0
15023,43.0,0,40,6.0,0.0
15024,48.0,48,90,6.0,0.0
15025,63.0,48,40,5.0,0.0
15026,62.0,0,40,5.0,0.0
15027,60.0,18,40,5.0,0.0
15028,45.0,48,90,6.0,0.0
15029,58.0,0,40,5.0,0.0
15030,57.0,48,40,5.0,0.0
15031,66.0,30,150,5.0,0.0
15032,50.0,48,90,6.0,0.0
15033,59.0,0,40,5.0,0.0
15034,60.0,18,40,5.0,0.0
15035,38.0,0,90,6.0,0.0
15036,62.0,48,40,5.0,0.0
15037,71.0,0,90,3.0,0.0
15038,60.0,48,40,5.0,0.0
15039,79.0,48,90,1.0,0.0
15040,74.0,0,90,2.0,0.0
15041,43.0,0,150,6.0,0.0
15042,43.0,0,90,4.0,0.0
15043,67.0,30,150,5.0,0.0
15044,59.0,0,40,5.0,0.0
15045,57.0,0,40,5.0,0.0
15046,43.0,18,40,8.0,0.0
15047,55.0,34,40,5.0,0.0
15048,45.0,0,40,8.0,0.0
15049,47.0,96,30,8.0,0.0
15050,43.0,14,30,8.0,0.0
15051,43.0,48,40,6.0,0.0
15052,45.0,34,40,6.0,0.0
15053,50.0,14,30,8.0,0.0
15054,47.0,48,40,6.0,0.0
15055,50.0,34,40,6.0,0.0
15056,43.0,48,40,6.0,0.0
15057,47.0,14,30,8.0,0.0
15058,47.0,48,40,6.0,0.0
15059,53.0,48,90,8.0,0.0
15060,50.0,48,40,6.0,0.0
15061,53.0,0,40,6.0,0.0
15062,47.0,0,40,6.0,0.0
15063,52.0,48,40,8.0,0.0
15064,50.0,0,40,6.0,0.0
15065,50.0,48,40,8.0,0.0
15066,48.0,0,90,4.0,0.0
15067,72.0,0,90,3.0,0.0
15068,55.0,0,40,6.0,0.0
15069,76.0,48,90,2.0,0.0
15070,52.0,48,40,8.0,0.0
15071,79.0,0,90,1.0,0.0
15072,53.0,0,40,6.0,0.0
15073,50.0,0,40,8.0,0.0
15074,52.0,0,40,6.0,0.0
15075,48.0,48,40,8.0,0.0
15076,50.0,0,40,6.0,0.0
15077,50.0,34,40,8.0,0.0
15078,48.0,48,40,6.0,0.0
15079,52.0,14,30,8.0,0.0
15080,47.0,34,40,6.0,0.0
15081,48.0,14,30,8.0,0.0
15082,48.0,48,40,6.0,0.0
15083,50.0,34,40,6.0,0.0
15084,55.0,14,30,8.0,0.0
15085,52.0,48,40,6.0,0.0
15086,55.0,34,40,6.0,0.0
15087,48.0,48,40,6.0,0.0
15088,52.0,14,30,8.0,0.0
15089,52.0,48,40,6.0,0.0
15090,55.0,48,40,6.0,0.0
15091,60.0,0,90,8.0,0.0
15092,60.0,48,40,6.0,0.0
15093,54.0,0,40,6.0,0.0
15094,59.0,48,40,8.0,0.0
15095,57.0,0,40,6.0,0.0
15096,57.0,48,40,8.0,0.0
15097,71.0,48,90,3.0,0.0
15098,74.0,0,90,2.0,0.0
15099,55.0,0,90,4.0,0.0
15100,62.0,0,40,6.0,0.0
15101,79.0,0,90,1.0,0.0
15102,59.0,48,40,8.0,0.0
15103,57.0,0,40,8.0,0.0
15104,60.0,0,40,6.0,0.0
15105,55.0,48,40,8.0,0.0
15106,59.0,0,40,6.0,0.0
15107,57.0,0,40,8.0,0.0
15108,57.0,34,40,6.0,0.0
15109,55.0,48,40,6.0,0.0
15110,59.0,14,30,8.0,0.0
15111,54.0,34,40,6.0,0.0
15112,55.0,48,40,6.0,0.0
15113,55.0,14,30,8.0,0.0
15114,57.0,34,40,6.0,0.0
15115,59.0,48,40,6.0,0.0
15116,62.0,14,30,8.0,0.0
15117,62.0,34,40,6.0,0.0
15118,59.0,14,30,8.0,0.0
15119,55.0,48,40,6.0,0.0
15120,59.0,48,40,6.0,0.0
15121,65.0,0,90,8.0,0.0
15122,62.0,48,40,5.0,0.0
15123,65.0,48,40,5.0,0.0
15124,59.0,48,40,5.0,0.0
15125,64.0,0,40,8.0,0.0
15126,62.0,48,40,8.0,0.0
15127,62.0,0,40,5.0,0.0
15128,72.0,0,90,3.0,0.0
15129,79.0,0,90,1.0,0.0
15130,76.0,48,90,2.0,0.0
15131,60.0,0,90,4.0,0.0
15132,64.0,48,40,8.0,0.0
15133,67.0,0,40,5.0,0.0
15134,65.0,0,40,5.0,0.0
15135,62.0,0,40,8.0,0.0
15136,64.0,0,40,5.0,0.0
15137,60.0,48,40,8.0,0.0
15138,62.0,0,40,8.0,0.0
15139,62.0,34,40,5.0,0.0
15140,64.0,14,30,8.0,0.0
15141,60.0,48,40,5.0,0.0
15142,59.0,34,40,5.0,0.0
15143,60.0,14,30,8.0,0.0
15144,60.0,48,40,5.0,0.0
15145,62.0,34,40,5.0,0.0
15146,64.0,48,40,5.0,0.0
15147,67.0,14,30,7.0,0.0
15148,67.0,34,40,5.0,0.0
15149,64.0,14,30,7.0,0.0
15150,60.0,48,40,5.0,0.0
15151,64.0,48,40,5.0,0.0
15152,72.0,48,90,7.0,0.0
15153,67.0,48,40,5.0,0.0
15154,72.0,0,40,5.0,0.0
15155,66.0,48,40,5.0,0.0
15156,71.0,0,40,7.0,0.0
15157,69.0,48,40,7.0,0.0
15158,69.0,0,40,5.0,0.0
15159,79.0,0,90,1.0,0.0
15160,74.0,0,40,5.0,0.0
15161,71.0,48,40,7.0,0.0
15162,71.0,0,90,3.0,0.0
15163,55.0,0,90,4.0,0.0
15164,74.0,0,90,2.0,0.0
15165,72.0,0,40,5.0,0.0
15166,69.0,48,40,7.0,0.0
15167,71.0,48,40,5.0,0.0
15168,67.0,0,40,7.0,0.0
15169,69.0,0,40,7.0,0.0
15170,69.0,34,40,5.0,0.0
15171,71.0,14,30,7.0,0.0
15172,67.0,48,40,5.0,0.0
15173,66.0,34,40,5.0,0.0
15174,67.0,14,30,7.0,0.0
15175,67.0,48,40,5.0,0.0
15176,69.0,34,40,5.0,0.0
15177,71.0,48,40,5.0,0.0
15178,74.0,14,30,7.0,0.0
15179,74.0,34,40,5.0,0.0
15180,67.0,48,40,5.0,0.0
15181,71.0,14,30,7.0,0.0
15182,71.0,48,40,5.0,0.0
15183,74.0,48,40,5.0,0.0
15184,77.0,0,90,7.0,0.0
15185,77.0,48,40,5.0,0.0
15186,71.0,48,40,5.0,0.0
15187,76.0,0,40,7.0,0.0
15188,74.0,48,40,5.0,0.0
15189,74.0,0,40,7.0,0.0
15190,60.0,0,90,4.0,0.0
15191,79.0,48,40,5.0,0.0
15192,76.0,0,90,1.0,0.0
15193,76.0,0,40,7.0,0.0
15194,72.0,48,90,2.0,0.0
15195,62.0,0,40,7.0,0.0
15196,77.0,0,40,5.0,0.0
15197,36.0,0,40,8.0,0.0
15198,76.0,0,40,5.0,0.0
15199,67.0,0,90,2.0,0.0
15200,48.0,0,40,4.0,0.0
15201,64.0,0,40,7.0,0.0
15202,48.0,48,40,6.0,0.0
15203,72.0,0,90,1.0,0.0
15204,64.0,0,40,3.0,0.0
15205,65.0,34,40,7.0,0.0
15206,50.0,0,40,4.0,0.0
15207,65.0,0,40,3.0,0.0
15208,50.0,0,40,6.0,0.0
15209,74.0,0,40,5.0,0.0
15210,38.0,0,40,8.0,0.0
15211,52.0,14,30,4.0,0.0
15212,67.0,48,40,3.0,0.0
15213,52.0,0,30,6.0,0.0
15214,67.0,0,40,7.0,0.0
15215,40.0,0,30,8.0,0.0
15216,72.0,34,90,5.0,0.0
15217,69.0,0,40,7.0,0.0
15218,69.0,0,40,3.0,0.0
15219,76.0,0,90,2.0,0.0
15220,48.0,14,30,4.0,0.0
15221,48.0,0,30,6.0,0.0
15222,71.0,0,40,3.0,0.0
15223,71.0,48,40,7.0,0.0
15224,76.0,0,90,7.0,0.0
15225,67.0,0,40,5.0,0.0
15226,36.0,0,30,8.0,0.0
15227,67.0,0,40,1.0,0.0
15228,69.0,0,40,5.0,0.0
15229,72.0,0,40,3.0,0.0
15230,72.0,0,40,7.0,0.0
15231,69.0,34,40,1.0,0.0
15232,71.0,0,40,1.0,0.0
15233,43.0,0,30,8.0,0.0
15234,55.0,0,30,6.0,0.0
15235,71.0,48,40,5.0,0.0
15236,71.0,0,90,7.0,0.0
15237,55.0,14,30,4.0,0.0
15238,74.0,0,90,3.0,0.0
15239,74.0,34,90,2.0,0.0
15240,74.0,0,90,7.0,0.0
15241,72.0,0,40,5.0,0.0
15242,72.0,0,40,1.0,0.0
15243,52.0,0,30,6.0,0.0
15244,74.0,48,40,5.0,0.0
15245,52.0,0,30,4.0,0.0
15246,79.0,0,90,7.0,0.0
15247,67.0,96,90,3.0,0.0
15248,74.0,0,40,1.0,0.0
15249,71.0,0,90,7.0,0.0
15250,40.0,14,30,8.0,0.0
15251,79.0,0,90,2.0,0.0
15252,76.0,0,40,1.0,0.0
15253,76.0,0,40,5.0,0.0
15254,77.0,0,240,5.0,0.0
15255,45.0,48,90,8.0,0.0
15256,72.0,0,180,7.0,0.0
15257,77.0,48,240,1.0,0.0
15258,57.0,0,90,6.0,0.0
15259,57.0,0,90,4.0,0.0
15260,72.0,0,90,3.0,0.0
15261,77.0,0,40,7.0,0.0
15262,77.0,0,40,2.0,0.0
15263,72.0,0,40,5.0,0.0
15264,55.0,48,40,4.0,0.0
15265,55.0,0,40,6.0,0.0
15266,79.0,0,40,7.0,0.0
15267,79.0,0,40,2.0,0.0
15268,71.0,0,40,3.0,0.0
15269,71.0,0,40,5.0,0.0
15270,43.0,0,40,8.0,0.0
15271,81.0,48,40,2.0,0.0
15272,69.0,0,40,3.0,0.0
15273,81.0,0,40,7.0,0.0
15274,41.0,0,40,8.0,0.0
15275,53.0,0,40,6.0,0.0
15276,69.0,0,40,5.0,0.0
15277,53.0,0,40,4.0,0.0
15278,43.0,0,150,8.0,0.0
15279,71.0,0,150,5.0,0.0
15280,71.0,0,90,3.0,0.0
15281,71.0,0,90,7.0,0.0
15282,74.0,48,90,7.0,0.0
15283,74.0,0,90,2.0,0.0
15284,55.0,30,150,6.0,0.0
15285,55.0,0,150,4.0,0.0
15286,81.0,0,40,5.0,0.0
15287,77.0,0,40,1.0,0.0
15288,64.0,0,150,3.0,0.0
15289,79.0,0,40,5.0,0.0
15290,76.0,18,40,1.0,0.0
15291,64.0,30,150,7.0,0.0
15292,67.0,0,150,7.0,0.0
15293,67.0,0,150,2.0,0.0
15294,74.0,48,40,1.0,0.0
15295,77.0,0,40,5.0,0.0
15296,76.0,48,90,5.0,0.0
15297,72.0,0,90,5.0,0.0
15298,57.0,0,40,4.0,0.0
15299,45.0,18,40,8.0,0.0
15300,72.0,0,90,1.0,0.0
15301,57.0,0,40,6.0,0.0
15302,60.0,0,40,6.0,0.0
15303,60.0,0,40,4.0,0.0
15304,48.0,0,40,8.0,0.0
15305,77.0,0,90,5.0,0.0
15306,53.0,0,40,6.0,0.0
15307,62.0,0,150,7.0,0.0
15308,81.0,0,90,5.0,0.0
15309,65.0,48,150,2.0,0.0
15310,41.0,0,40,8.0,0.0
15311,81.0,0,90,1.0,0.0
15312,62.0,0,180,3.0,0.0
15313,53.0,48,40,4.0,0.0
15314,65.0,0,150,7.0,0.0
15315,45.0,0,40,8.0,0.0
15316,57.0,0,40,4.0,0.0
15317,57.0,48,40,6.0,0.0
15318,55.0,0,40,6.0,0.0
15319,71.0,0,90,1.0,0.0
15320,43.0,0,40,8.0,0.0
15321,55.0,0,40,4.0,0.0
15322,71.0,0,90,5.0,0.0
15323,74.0,0,90,5.0,0.0
15324,62.0,48,40,7.0,0.0
15325,53.0,0,40,4.0,0.0
15326,62.0,0,40,2.0,0.0
15327,41.0,0,40,8.0,0.0
15328,53.0,0,40,6.0,0.0
15329,59.0,0,40,7.0,0.0
15330,60.0,0,150,7.0,0.0
15331,76.0,0,90,5.0,0.0
15332,79.0,48,90,1.0,0.0
15333,79.0,0,90,5.0,0.0
15334,40.0,0,40,8.0,0.0
15335,64.0,0,150,7.0,0.0
15336,52.0,0,40,6.0,0.0
15337,64.0,48,180,2.0,0.0
15338,52.0,48,40,4.0,0.0
15339,60.0,30,150,3.0,0.0
15340,55.0,0,40,4.0,0.0
15341,55.0,0,40,6.0,0.0
15342,43.0,0,40,8.0,0.0
15343,53.0,0,40,4.0,0.0
15344,53.0,0,40,6.0,0.0
15345,69.0,0,90,5.0,0.0
15346,69.0,0,90,1.0,0.0
15347,72.0,0,90,5.0,0.0
15348,41.0,18,40,8.0,0.0
15349,57.0,0,40,4.0,0.0
15350,45.0,0,40,8.0,0.0
15351,57.0,0,40,6.0,0.0
15352,50.0,48,40,4.0,0.0
15353,59.0,0,150,7.0,0.0
15354,59.0,30,150,3.0,0.0
15355,38.0,0,40,8.0,0.0
15356,77.0,0,90,1.0,0.0
15357,50.0,0,40,6.0,0.0
15358,77.0,0,180,5.0,0.0
15359,74.0,0,90,5.0,0.0
15360,62.0,0,180,2.0,0.0
15361,62.0,0,150,7.0,0.0
15362,53.0,0,40,6.0,0.0
15363,41.0,0,40,8.0,0.0
15364,53.0,48,40,4.0,0.0
15365,67.0,30,150,1.0,0.0
15366,52.0,0,40,6.0,0.0
15367,67.0,0,270,5.0,0.0
15368,52.0,0,40,4.0,0.0
15369,40.0,18,40,8.0,0.0
15370,50.0,0,40,6.0,0.0
15371,50.0,48,40,4.0,0.0
15372,38.0,0,40,8.0,0.0
15373,48.0,18,40,6.0,0.0
15374,76.0,30,150,5.0,0.0
15375,60.0,0,90,7.0,0.0
15376,64.0,0,40,7.0,0.0
15377,36.0,0,40,8.0,0.0
15378,60.0,0,90,3.0,0.0
15379,48.0,0,40,4.0,0.0
15380,64.0,0,40,2.0,0.0
15381,65.0,0,40,2.0,0.0
15382,50.0,0,40,6.0,0.0
15383,65.0,0,40,7.0,0.0
15384,38.0,0,40,8.0,0.0
15385,50.0,48,40,4.0,0.0
15386,52.0,18,40,6.0,0.0
15387,67.0,0,40,7.0,0.0
15388,52.0,0,40,4.0,0.0
15389,67.0,0,40,2.0,0.0
15390,55.0,0,90,3.0,0.0
15391,40.0,0,40,8.0,0.0
15392,69.0,0,40,2.0,0.0
15393,41.0,0,40,8.0,0.0
15394,53.0,48,40,4.0,0.0
15395,53.0,0,40,6.0,0.0
15396,69.0,0,40,7.0,0.0
15397,55.0,0,90,6.0,0.0
15398,71.0,48,40,2.0,0.0
15399,71.0,0,40,7.0,0.0
15400,43.0,0,90,8.0,0.0
15401,79.0,48,150,1.0,0.0
15402,65.0,34,90,5.0,0.0
15403,55.0,0,90,4.0,0.0
15404,74.0,0,90,5.0,0.0
15405,53.0,0,90,3.0,0.0
15406,67.0,0,40,7.0,0.0
15407,67.0,0,40,2.0,0.0
15408,72.0,30,360,7.0,0.0
15409,72.0,18,240,2.0,0.0
15410,45.0,0,30,8.0,0.0
15411,72.0,34,90,5.0,0.0
15412,45.0,14,30,4.0,0.0
15413,64.0,0,90,5.0,0.0
15414,45.0,0,30,6.0,0.0
15415,52.0,0,90,3.0,0.0
15416,71.0,0,40,7.0,0.0
15417,79.0,0,40,1.0,0.0
15418,48.0,0,30,8.0,0.0
15419,69.0,0,40,7.0,0.0
15420,76.0,0,90,5.0,0.0
15421,48.0,0,30,6.0,0.0
15422,48.0,14,30,4.0,0.0
15423,57.0,30,150,3.0,0.0
15424,77.0,48,40,1.0,0.0
15425,76.0,48,40,1.0,0.0
15426,67.0,0,40,7.0,0.0
15427,50.0,0,90,6.0,0.0
15428,77.0,18,240,5.0,0.0
15429,65.0,0,90,7.0,0.0
15430,50.0,0,90,4.0,0.0
15431,38.0,0,90,8.0,0.0
15432,77.0,0,240,1.0,0.0
15433,72.0,0,40,5.0,0.0
15434,72.0,48,40,2.0,0.0
15435,74.0,18,40,5.0,0.0
15436,69.0,0,150,7.0,0.0
15437,53.0,0,90,6.0,0.0
15438,53.0,0,90,4.0,0.0
15439,62.0,30,150,3.0,0.0
15440,41.0,34,90,8.0,0.0
15441,71.0,0,40,2.0,0.0
15442,69.0,0,40,2.0,0.0
15443,76.0,0,40,5.0,0.0
15444,43.0,0,30,8.0,0.0
15445,74.0,0,90,5.0,0.0
15446,71.0,0,90,2.0,0.0
15447,71.0,30,150,7.0,0.0
15448,43.0,14,30,6.0,0.0
15449,43.0,0,30,4.0,0.0
15450,77.0,0,40,1.0,0.0
15451,77.0,0,40,5.0,0.0
15452,69.0,34,40,7.0,0.0
15453,76.0,0,40,5.0,0.0
15454,55.0,30,150,3.0,0.0
15455,47.0,0,30,8.0,0.0
15456,47.0,0,30,4.0,0.0
15457,47.0,14,30,6.0,0.0
15458,76.0,18,40,1.0,0.0
15459,67.0,0,40,7.0,0.0
15460,67.0,66,90,2.0,0.0
15461,65.0,0,40,7.0,0.0
15462,74.0,0,40,5.0,0.0
15463,74.0,0,40,1.0,0.0
15464,64.0,0,90,7.0,0.0
15465,36.0,0,90,8.0,0.0
15466,76.0,0,240,1.0,0.0
15467,48.0,0,90,6.0,0.0
15468,48.0,0,90,4.0,0.0
15469,76.0,48,240,5.0,0.0
15470,71.0,48,40,5.0,0.0
15471,60.0,0,180,3.0,0.0
15472,70.0,0,90,2.0,0.0
15473,72.0,48,40,5.0,0.0
15474,67.0,0,90,7.0,0.0
15475,70.0,0,90,7.0,0.0
15476,52.0,0,90,4.0,0.0
15477,52.0,0,90,6.0,0.0
15478,40.0,48,90,8.0,0.0
15479,74.0,0,40,5.0,0.0
15480,69.0,0,90,7.0,0.0
15481,65.0,0,90,7.0,0.0
15482,53.0,0,40,6.0,0.0
15483,60.0,0,90,7.0,0.0
15484,69.0,0,90,2.0,0.0
15485,41.0,0,40,8.0,0.0
15486,41.0,0,90,4.0,0.0
15487,72.0,0,40,1.0,0.0
15488,52.0,0,40,8.0,0.0
15489,72.0,0,40,5.0,0.0
15490,64.0,0,40,6.0,0.0
15491,72.0,48,90,2.0,0.0
15492,62.0,0,40,6.0,0.0
15493,69.0,0,90,3.0,0.0
15494,50.0,48,40,8.0,0.0
15495,74.0,0,90,5.0,0.0
15496,74.0,0,90,1.0,0.0
15497,69.0,0,90,5.0,0.0
15498,72.0,0,90,5.0,0.0
15499,48.0,0,40,8.0,0.0
15500,60.0,0,40,6.0,0.0
15501,55.0,0,40,6.0,0.0
15502,43.0,48,40,8.0,0.0
15503,43.0,0,90,4.0,0.0
15504,67.0,0,90,7.0,0.0
15505,60.0,0,90,7.0,0.0
15506,64.0,48,90,7.0,0.0
15507,52.0,0,40,8.0,0.0
15508,64.0,0,40,6.0,0.0
15509,50.0,48,40,8.0,0.0
15510,67.0,0,90,3.0,0.0
15511,76.0,48,90,1.0,0.0
15512,67.0,0,90,5.0,0.0
15513,72.0,0,90,2.0,0.0
15514,62.0,0,40,6.0,0.0
15515,72.0,0,90,5.0,0.0
15516,76.0,0,90,5.0,0.0
15517,48.0,0,40,8.0,0.0
15518,60.0,0,40,6.0,0.0
15519,45.0,0,90,4.0,0.0
15520,65.0,0,90,7.0,0.0
15521,57.0,48,40,6.0,0.0
15522,53.0,0,90,7.0,0.0
15523,60.0,0,90,7.0,0.0
15524,45.0,0,40,8.0,0.0
15525,64.0,48,40,6.0,0.0
15526,52.0,0,40,8.0,0.0
15527,72.0,0,90,5.0,0.0
15528,65.0,0,90,5.0,0.0
15529,77.0,0,90,5.0,0.0
15530,72.0,0,90,2.0,0.0
15531,50.0,48,40,8.0,0.0
15532,65.0,0,90,3.0,0.0
15533,62.0,0,40,6.0,0.0
15534,77.0,48,90,1.0,0.0
15535,48.0,0,40,8.0,0.0
15536,60.0,0,40,6.0,0.0
15537,52.0,0,40,6.0,0.0
15538,55.0,0,90,7.0,0.0
15539,60.0,0,90,7.0,0.0
15540,40.0,0,90,4.0,0.0
15541,40.0,48,40,8.0,0.0
15542,64.0,0,90,7.0,0.0
15543,52.0,0,40,8.0,0.0
15544,64.0,48,40,6.0,0.0
15545,76.0,0,90,2.0,0.0
15546,50.0,0,40,8.0,0.0
15547,79.0,0,90,5.0,0.0
15548,76.0,0,90,5.0,0.0
15549,72.0,48,90,3.0,0.0
15550,72.0,0,90,5.0,0.0
15551,79.0,0,90,1.0,0.0
15552,62.0,48,40,6.0,0.0
15553,48.0,0,40,8.0,0.0
15554,60.0,0,40,6.0,0.0
15555,41.0,0,90,4.0,0.0
15556,57.0,0,90,7.0,0.0
15557,60.0,48,90,7.0,0.0
15558,41.0,0,40,8.0,0.0
15559,62.0,0,90,7.0,0.0
15560,53.0,48,40,6.0,0.0
15561,52.0,0,40,8.0,0.0
15562,64.0,0,40,6.0,0.0
15563,50.0,48,40,8.0,0.0
15564,72.0,0,90,3.0,0.0
15565,62.0,0,40,6.0,0.0
15566,74.0,0,90,2.0,0.0
15567,74.0,0,90,5.0,0.0
15568,72.0,0,90,5.0,0.0
15569,81.0,0,90,5.0,0.0
15570,81.0,48,90,1.0,0.0
15571,60.0,0,40,6.0,0.0
15572,48.0,0,40,8.0,0.0
15573,43.0,0,90,4.0,0.0
15574,55.0,0,40,6.0,0.0
15575,55.0,0,90,7.0,0.0
15576,43.0,48,40,8.0,0.0
15577,60.0,0,90,7.0,0.0
15578,64.0,0,90,7.0,0.0
15579,50.0,0,40,8.0,0.0
15580,62.0,48,40,6.0,0.0
15581,79.0,0,90,1.0,0.0
15582,76.0,0,90,5.0,0.0
15583,76.0,0,90,2.0,0.0
15584,72.0,0,90,3.0,0.0
15585,79.0,0,90,5.0,0.0
15586,48.0,48,40,8.0,0.0
15587,72.0,48,90,5.0,0.0
15588,60.0,0,40,6.0,0.0
15589,47.0,0,40,8.0,0.0
15590,59.0,0,40,6.0,0.0
15591,57.0,0,40,6.0,0.0
15592,45.0,48,40,8.0,0.0
15593,65.0,0,90,7.0,0.0
15594,60.0,0,90,7.0,0.0
15595,53.0,0,90,7.0,0.0
15596,45.0,0,90,4.0,0.0
15597,48.0,48,40,8.0,0.0
15598,60.0,0,40,6.0,0.0
15599,59.0,48,40,6.0,0.0
15600,77.0,0,90,5.0,0.0
15601,72.0,0,90,5.0,0.0
15602,65.0,0,90,5.0,0.0
15603,65.0,48,90,3.0,0.0
15604,72.0,0,90,2.0,0.0
15605,77.0,0,90,1.0,0.0
15606,47.0,0,40,8.0,0.0
15607,57.0,0,40,6.0,0.0
15608,45.0,0,40,8.0,0.0
15609,40.0,0,90,4.0,0.0
15610,67.0,0,90,7.0,0.0
15611,40.0,0,40,8.0,0.0
15612,52.0,48,40,6.0,0.0
15613,60.0,0,90,7.0,0.0
15614,64.0,0,90,7.0,0.0
15615,58.0,0,40,6.0,0.0
15616,46.0,48,40,8.0,0.0
15617,67.0,48,90,3.0,0.0
15618,76.0,0,90,5.0,0.0
15619,72.0,0,90,5.0,0.0
15620,45.0,0,40,8.0,0.0
15621,67.0,0,90,5.0,0.0
15622,57.0,48,40,6.0,0.0
15623,76.0,0,90,1.0,0.0
15624,72.0,0,90,2.0,0.0
15625,43.0,0,40,8.0,0.0
15626,55.0,0,40,6.0,0.0
15627,41.0,0,90,4.0,0.0
15628,69.0,0,90,7.0,0.0
15629,62.0,48,90,7.0,0.0
15630,60.0,0,90,7.0,0.0
15631,41.0,0,40,8.0,0.0
15632,53.0,48,40,6.0,0.0
15633,45.0,0,40,8.0,0.0
15634,57.0,0,40,6.0,0.0
15635,43.0,48,40,8.0,0.0
15636,74.0,0,90,5.0,0.0
15637,69.0,0,90,2.0,0.0
15638,62.0,0,90,3.0,0.0
15639,55.0,0,40,6.0,0.0
15640,69.0,0,90,5.0,0.0
15641,62.0,34,90,5.0,0.0
15642,74.0,0,90,1.0,0.0
15643,41.0,0,40,8.0,0.0
15644,53.0,0,40,6.0,0.0
15645,67.0,0,90,5.0,0.0
15646,62.0,34,90,5.0,0.0
15647,67.0,14,30,1.0,0.0
15648,62.0,0,30,2.0,0.0
15649,67.0,0,90,7.0,0.0
15650,62.0,0,90,7.0,0.0
15651,59.0,0,90,7.0,0.0
15652,43.0,0,90,8.0,0.0
15653,59.0,0,30,3.0,0.0
15654,59.0,0,90,5.0,0.0
15655,43.0,48,40,4.0,0.0
15656,55.0,0,90,6.0,0.0
15657,41.0,0,40,4.0,0.0
15658,43.0,0,30,4.0,0.0
15659,67.0,0,30,2.0,0.0
15660,62.0,62,30,3.0,0.0
15661,67.0,0,90,5.0,0.0
15662,71.0,0,90,5.0,0.0
15663,71.0,0,30,1.0,0.0
15664,43.0,0,90,8.0,0.0
15665,65.0,0,90,7.0,0.0
15666,62.0,0,90,7.0,0.0
15667,59.0,0,90,7.0,0.0
15668,62.0,0,90,5.0,0.0
15669,43.0,338,90,6.0,0.0
15670,60.0,0,330,7.0,0.0
15671,64.0,0,330,3.0,0.0
15672,48.0,0,330,8.0,0.0
15673,36.0,0,330,8.0,0.0
15674,48.0,0,330,6.0,0.0
15675,64.0,0,330,7.0,0.0
15676,72.0,0,330,5.0,0.0
15677,67.0,0,330,5.0,0.0
15678,64.0,0,330,5.0,0.0
15679,72.0,0,330,1.0,0.0
15680,36.0,0,330,6.0,0.0
15681,36.0,0,330,4.0,0.0
15682,67.0,0,330,2.0,0.0
15683,55.0,0,330,7.0,0.0
