tick,type,time,meta,track,numerator,denominator,clocks_per_click,notated_32nd_notes_per_beat,key,tempo,program,channel,control,value,note,velocity
0,track_name,0,1,0,,,,,,,,,,,,
0,control_change,0,0,6,,,,,,,,5,7,62,,
0,program_change,0,0,6,,,,,,,6,5,,,,
0,track_name,0,1,6,,,,,,,,,,,,
0,control_change,0,0,5,,,,,,,,4,10,58,,
0,control_change,0,0,5,,,,,,,,4,7,66,,
0,program_change,0,0,5,,,,,,,6,4,,,,
0,track_name,0,1,5,,,,,,,,,,,,
0,control_change,0,0,4,,,,,,,,3,10,67,,
0,control_change,0,0,4,,,,,,,,3,7,64,,
0,program_change,0,0,4,,,,,,,6,3,,,,
0,track_name,0,1,4,,,,,,,,,,,,
0,control_change,0,0,3,,,,,,,,2,10,68,,
0,control_change,0,0,3,,,,,,,,2,7,65,,
0,program_change,0,0,3,,,,,,,6,2,,,,
0,track_name,0,1,3,,,,,,,,,,,,
0,note_on,0,0,2,,,,,,,,1,,,57,110
0,control_change,0,0,2,,,,,,,,1,10,62,,
0,control_change,0,0,2,,,,,,,,1,7,62,,
0,program_change,0,0,2,,,,,,,6,1,,,,
0,track_name,0,1,2,,,,,,,,,,,,
0,note_on,0,0,1,,,,,,,,0,,,76,110
0,control_change,0,0,1,,,,,,,,0,10,63,,
0,control_change,0,0,1,,,,,,,,0,7,68,,
0,control_change,0,0,6,,,,,,,,5,10,57,,
0,track_name,0,1,7,,,,,,,,,,,,
0,program_change,0,0,7,,,,,,,6,6,,,,
0,control_change,0,0,7,,,,,,,,6,7,66,,
0,control_change,0,0,12,,,,,,,,12,10,39,,
0,control_change,0,0,12,,,,,,,,12,7,127,,
0,program_change,0,0,12,,,,,,,43,12,,,,
0,track_name,0,1,12,,,,,,,,,,,,
0,control_change,0,0,11,,,,,,,,11,10,41,,
0,control_change,0,0,11,,,,,,,,11,7,127,,
0,program_change,0,0,11,,,,,,,41,11,,,,
0,track_name,0,1,11,,,,,,,,,,,,
0,program_change,0,0,10,,,,,,,48,10,,,,
0,control_change,0,0,10,,,,,,,,10,32,0,,
0,control_change,0,0,10,,,,,,,,10,32,0,,
0,program_change,0,0,1,,,,,,,6,0,,,,
0,control_change,0,0,10,,,,,,,,10,10,46,,
0,control_change,0,0,10,,,,,,,,10,0,0,,
0,track_name,0,1,10,,,,,,,,,,,,
0,control_change,0,0,9,,,,,,,,8,10,48,,
0,control_change,0,0,9,,,,,,,,8,7,120,,
0,program_change,0,0,9,,,,,,,48,8,,,,
0,track_name,0,1,9,,,,,,,,,,,,
0,control_change,0,0,8,,,,,,,,7,10,72,,
0,control_change,0,0,8,,,,,,,,7,7,65,,
0,program_change,0,0,8,,,,,,,6,7,,,,
0,track_name,0,1,8,,,,,,,,,,,,
0,control_change,0,0,7,,,,,,,,6,10,73,,
0,control_change,0,0,10,,,,,,,,10,7,120,,
0,track_name,0,1,1,,,,,,,,,,,,
0,end_of_track,0,1,13,,,,,,,,,,,,
0,copyright,0,1,0,,,,,,,,,,,,
0,text,0,1,0,,,,,,,,,,,,
0,time_signature,0,1,0,4,4,24,8,,,,,,,,
0,text,0,1,0,,,,,,,,,,,,
0,key_signature,0,1,0,,,,,C,,,,,,,
0,set_tempo,0,1,0,,,,,,508475,,,,,,
0,marker,0,1,0,,,,,,,,,,,,
160,note_on,160,0,2,,,,,,,,1,,,57,0
160,note_on,160,0,1,,,,,,,,0,,,76,0
288,note_on,128,0,1,,,,,,,,0,,,76,110
382,note_on,94,0,1,,,,,,,,0,,,76,0
384,note_on,224,0,2,,,,,,,,1,,,57,110
384,note_on,2,0,1,,,,,,,,0,,,76,110
384,note_on,384,0,3,,,,,,,,2,,,76,110
478,note_on,94,0,1,,,,,,,,0,,,76,0
480,note_on,2,0,1,,,,,,,,0,,,76,110
544,note_on,160,0,3,,,,,,,,2,,,76,0
544,note_on,160,0,2,,,,,,,,1,,,57,0
574,note_on,94,0,1,,,,,,,,0,,,76,0
576,note_on,2,0,1,,,,,,,,0,,,76,110
576,note_on,576,0,4,,,,,,,,3,,,57,110
670,note_on,94,0,1,,,,,,,,0,,,76,0
672,note_on,128,0,3,,,,,,,,2,,,76,110
672,note_on,2,0,1,,,,,,,,0,,,76,110
736,note_on,160,0,4,,,,,,,,3,,,57,0
766,note_on,94,0,1,,,,,,,,0,,,76,0
766,note_on,94,0,3,,,,,,,,2,,,76,0
768,note_on,2,0,3,,,,,,,,2,,,72,110
768,note_on,224,0,2,,,,,,,,1,,,57,110
768,note_on,2,0,1,,,,,,,,0,,,81,110
862,note_on,94,0,3,,,,,,,,2,,,72,0
862,note_on,94,0,1,,,,,,,,0,,,81,0
864,note_on,2,0,3,,,,,,,,2,,,69,110
864,note_on,2,0,1,,,,,,,,0,,,76,110
928,note_on,160,0,2,,,,,,,,1,,,57,0
958,note_on,94,0,1,,,,,,,,0,,,76,0
958,note_on,94,0,3,,,,,,,,2,,,69,0
960,note_on,2,0,1,,,,,,,,0,,,76,110
960,note_on,224,0,4,,,,,,,,3,,,57,110
1054,note_on,94,0,1,,,,,,,,0,,,76,0
1056,note_on,2,0,1,,,,,,,,0,,,76,110
1056,note_on,98,0,3,,,,,,,,2,,,76,110
1120,note_on,160,0,4,,,,,,,,3,,,57,0
1150,note_on,94,0,3,,,,,,,,2,,,76,0
1150,note_on,94,0,1,,,,,,,,0,,,76,0
1152,note_on,2,0,1,,,,,,,,0,,,81,110
1152,note_on,224,0,2,,,,,,,,1,,,57,110
1152,note_on,2,0,3,,,,,,,,2,,,72,110
1246,note_on,94,0,1,,,,,,,,0,,,81,0
1246,note_on,94,0,3,,,,,,,,2,,,72,0
1248,note_on,2,0,1,,,,,,,,0,,,76,110
1248,note_on,2,0,3,,,,,,,,2,,,69,110
1312,note_on,160,0,2,,,,,,,,1,,,57,0
1342,note_on,94,0,3,,,,,,,,2,,,69,0
1342,note_on,94,0,1,,,,,,,,0,,,76,0
1344,note_on,224,0,4,,,,,,,,3,,,57,110
1344,note_on,2,0,1,,,,,,,,0,,,76,110
1438,note_on,94,0,1,,,,,,,,0,,,76,0
1440,note_on,2,0,1,,,,,,,,0,,,76,110
1440,note_on,98,0,3,,,,,,,,2,,,76,110
1504,note_on,160,0,4,,,,,,,,3,,,57,0
1534,note_on,94,0,1,,,,,,,,0,,,76,0
1534,note_on,94,0,3,,,,,,,,2,,,76,0
1536,note_on,2,0,1,,,,,,,,0,,,77,110
1536,note_on,224,0,2,,,,,,,,1,,,57,110
1536,note_on,2,0,3,,,,,,,,2,,,74,110
1558,note_on,22,0,1,,,,,,,,0,,,77,0
1558,note_on,22,0,3,,,,,,,,2,,,74,0
1560,note_on,2,0,1,,,,,,,,0,,,76,110
1560,note_on,2,0,3,,,,,,,,2,,,72,110
1582,note_on,22,0,1,,,,,,,,0,,,76,0
1582,note_on,22,0,3,,,,,,,,2,,,72,0
1584,note_on,2,0,3,,,,,,,,2,,,74,110
1584,note_on,2,0,1,,,,,,,,0,,,77,110
1606,note_on,22,0,3,,,,,,,,2,,,74,0
1606,note_on,22,0,1,,,,,,,,0,,,77,0
1608,note_on,2,0,3,,,,,,,,2,,,72,110
1608,note_on,2,0,1,,,,,,,,0,,,76,110
1630,note_on,22,0,3,,,,,,,,2,,,72,0
1630,note_on,22,0,1,,,,,,,,0,,,76,0
1632,note_on,2,0,3,,,,,,,,2,,,69,110
1632,note_on,2,0,1,,,,,,,,0,,,72,110
1632,note_on,128,0,4,,,,,,,,3,,,64,110
1678,note_on,46,0,1,,,,,,,,0,,,72,0
1678,note_on,46,0,3,,,,,,,,2,,,69,0
1680,note_on,2,0,3,,,,,,,,2,,,71,110
1680,note_on,2,0,1,,,,,,,,0,,,74,110
1696,note_on,160,0,2,,,,,,,,1,,,57,0
1726,note_on,46,0,1,,,,,,,,0,,,74,0
1726,note_on,46,0,3,,,,,,,,2,,,71,0
1726,note_on,94,0,4,,,,,,,,3,,,64,0
1728,note_on,2,0,4,,,,,,,,3,,,69,110
1728,note_on,32,0,2,,,,,,,,1,,,57,110
1728,note_on,2,0,1,,,,,,,,0,,,76,110
1728,note_on,2,0,3,,,,,,,,2,,,72,110
1822,note_on,94,0,1,,,,,,,,0,,,76,0
1822,note_on,94,0,4,,,,,,,,3,,,69,0
1822,note_on,94,0,3,,,,,,,,2,,,72,0
1824,note_on,2,0,3,,,,,,,,2,,,72,110
1824,note_on,2,0,1,,,,,,,,0,,,76,110
1824,note_on,2,0,4,,,,,,,,3,,,64,110
1888,note_on,160,0,2,,,,,,,,1,,,57,0
1918,note_on,94,0,3,,,,,,,,2,,,72,0
1918,note_on,94,0,4,,,,,,,,3,,,64,0
1918,note_on,94,0,1,,,,,,,,0,,,76,0
1920,note_on,32,0,2,,,,,,,,1,,,57,110
1920,note_on,2,0,3,,,,,,,,2,,,74,110
1920,note_on,2,0,1,,,,,,,,0,,,77,110
1942,note_on,22,0,1,,,,,,,,0,,,77,0
1942,note_on,22,0,3,,,,,,,,2,,,74,0
1944,note_on,2,0,1,,,,,,,,0,,,76,110
1944,note_on,2,0,3,,,,,,,,2,,,72,110
1966,note_on,22,0,1,,,,,,,,0,,,76,0
1966,note_on,22,0,3,,,,,,,,2,,,72,0
1968,note_on,2,0,1,,,,,,,,0,,,77,110
1968,note_on,2,0,3,,,,,,,,2,,,74,110
1990,note_on,22,0,1,,,,,,,,0,,,77,0
1990,note_on,22,0,3,,,,,,,,2,,,74,0
1992,note_on,2,0,1,,,,,,,,0,,,76,110
1992,note_on,2,0,3,,,,,,,,2,,,72,110
2014,note_on,22,0,1,,,,,,,,0,,,76,0
2014,note_on,22,0,3,,,,,,,,2,,,72,0
2016,note_on,98,0,4,,,,,,,,3,,,64,110
2016,note_on,2,0,3,,,,,,,,2,,,69,110
2016,note_on,2,0,1,,,,,,,,0,,,72,110
2062,note_on,46,0,1,,,,,,,,0,,,72,0
2062,note_on,46,0,3,,,,,,,,2,,,69,0
2064,note_on,2,0,3,,,,,,,,2,,,71,110
2064,note_on,2,0,1,,,,,,,,0,,,74,110
2080,note_on,160,0,2,,,,,,,,1,,,57,0
2110,note_on,46,0,1,,,,,,,,0,,,74,0
2110,note_on,94,0,4,,,,,,,,3,,,64,0
2110,note_on,46,0,3,,,,,,,,2,,,71,0
2112,note_on,32,0,2,,,,,,,,1,,,57,110
2112,note_on,2,0,1,,,,,,,,0,,,76,110
2112,note_on,2,0,4,,,,,,,,3,,,69,110
2112,note_on,2,0,3,,,,,,,,2,,,72,110
2206,note_on,94,0,1,,,,,,,,0,,,76,0
2206,note_on,94,0,4,,,,,,,,3,,,69,0
2206,note_on,94,0,3,,,,,,,,2,,,72,0
2208,note_on,2,0,1,,,,,,,,0,,,76,110
2208,note_on,2,0,3,,,,,,,,2,,,72,110
2208,note_on,2,0,4,,,,,,,,3,,,64,110
2272,note_on,160,0,2,,,,,,,,1,,,57,0
2302,note_on,94,0,1,,,,,,,,0,,,76,0
2302,note_on,94,0,4,,,,,,,,3,,,64,0
2302,note_on,94,0,3,,,,,,,,2,,,72,0
2304,note_on,32,0,2,,,,,,,,1,,,57,110
2304,note_on,2,0,1,,,,,,,,0,,,76,110
2304,note_on,2,0,3,,,,,,,,2,,,72,110
2398,note_on,94,0,1,,,,,,,,0,,,76,0
2398,note_on,94,0,3,,,,,,,,2,,,72,0
2400,note_on,2,0,1,,,,,,,,0,,,76,110
2400,note_on,2,0,3,,,,,,,,2,,,72,110
2400,note_on,98,0,4,,,,,,,,3,,,64,110
2464,note_on,160,0,2,,,,,,,,1,,,57,0
2494,note_on,94,0,1,,,,,,,,0,,,76,0
2494,note_on,94,0,3,,,,,,,,2,,,72,0
2494,note_on,94,0,4,,,,,,,,3,,,64,0
2496,note_on,2,0,4,,,,,,,,3,,,69,110
2496,note_on,2,0,3,,,,,,,,2,,,72,110
2496,note_on,2,0,1,,,,,,,,0,,,76,110
2590,note_on,94,0,1,,,,,,,,0,,,76,0
2590,note_on,94,0,3,,,,,,,,2,,,72,0
2590,note_on,94,0,4,,,,,,,,3,,,69,0
2592,note_on,128,0,2,,,,,,,,1,,,57,110
2592,note_on,2,0,4,,,,,,,,3,,,64,110
2592,note_on,2,0,3,,,,,,,,2,,,71,110
2592,note_on,2,0,1,,,,,,,,0,,,74,110
2638,note_on,46,0,1,,,,,,,,0,,,74,0
2638,note_on,46,0,3,,,,,,,,2,,,71,0
2640,note_on,2,0,1,,,,,,,,0,,,72,110
2640,note_on,2,0,3,,,,,,,,2,,,69,110
2686,note_on,94,0,4,,,,,,,,3,,,64,0
2686,note_on,46,0,1,,,,,,,,0,,,72,0
2686,note_on,94,0,2,,,,,,,,1,,,57,0
2686,note_on,46,0,3,,,,,,,,2,,,69,0
2688,note_on,2,0,1,,,,,,,,0,,,71,110
2688,note_on,2,0,2,,,,,,,,1,,,52,110
2688,note_on,2,0,3,,,,,,,,2,,,68,110
2736,note_on,50,0,4,,,,,,,,3,,,64,110
2782,note_on,46,0,4,,,,,,,,3,,,64,0
2782,note_on,94,0,2,,,,,,,,1,,,52,0
2782,note_on,94,0,3,,,,,,,,2,,,68,0
2782,note_on,94,0,1,,,,,,,,0,,,71,0
2784,note_on,2,0,4,,,,,,,,3,,,62,110
2784,note_on,2,0,1,,,,,,,,0,,,64,110
2784,note_on,2,0,2,,,,,,,,1,,,54,110
2784,note_on,2,0,3,,,,,,,,2,,,69,110
2830,note_on,46,0,4,,,,,,,,3,,,62,0
2832,note_on,2,0,4,,,,,,,,3,,,60,110
2878,note_on,94,0,3,,,,,,,,2,,,69,0
2878,note_on,94,0,1,,,,,,,,0,,,64,0
2878,note_on,94,0,2,,,,,,,,1,,,54,0
2878,note_on,46,0,4,,,,,,,,3,,,60,0
2880,note_on,2,0,3,,,,,,,,2,,,71,110
2880,note_on,2,0,4,,,,,,,,3,,,59,110
2880,note_on,2,0,2,,,,,,,,1,,,56,110
2926,note_on,46,0,4,,,,,,,,3,,,59,0
2928,note_on,2,0,4,,,,,,,,3,,,62,110
2974,note_on,94,0,3,,,,,,,,2,,,71,0
2974,note_on,94,0,2,,,,,,,,1,,,56,0
2974,note_on,46,0,4,,,,,,,,3,,,62,0
2976,note_on,2,0,2,,,,,,,,1,,,52,110
2976,note_on,2,0,3,,,,,,,,2,,,68,110
2976,note_on,2,0,4,,,,,,,,3,,,60,110
3022,note_on,46,0,4,,,,,,,,3,,,60,0
3024,note_on,2,0,4,,,,,,,,3,,,59,110
3070,note_on,94,0,2,,,,,,,,1,,,52,0
3070,note_on,46,0,4,,,,,,,,3,,,59,0
3070,note_on,94,0,3,,,,,,,,2,,,68,0
3072,note_on,0,0,6,,,,,,,,5,,,57,110
3072,note_on,3072,0,8,,,,,,,,7,,,57,110
3072,note_on,0,0,8,,,,,,,,7,,,60,110
3072,note_on,0,0,4,,,,,,,,3,,,60,110
3072,note_on,0,0,5,,,,,,,,4,,,76,110
3072,note_on,3072,0,10,,,,,,,,10,,,72,110
3072,note_on,0,0,5,,,,,,,,4,,,69,110
3072,note_on,3072,0,5,,,,,,,,4,,,64,110
3072,note_on,0,0,7,,,,,,,,6,,,69,110
3072,note_on,0,0,6,,,,,,,,5,,,52,110
3072,note_on,0,0,7,,,,,,,,6,,,72,110
3072,note_on,0,0,1,,,,,,,,0,,,76,110
3072,note_on,3072,0,6,,,,,,,,5,,,45,110
3072,note_on,0,0,1,,,,,,,,0,,,69,110
3072,note_on,194,0,1,,,,,,,,0,,,64,110
3072,note_on,0,0,6,,,,,,,,5,,,48,110
3072,note_on,3072,0,11,,,,,,,,11,,,69,110
3072,note_on,3072,0,7,,,,,,,,6,,,64,110
3072,note_on,0,0,1,,,,,,,,0,,,72,110
3072,note_on,0,0,5,,,,,,,,4,,,72,110
3072,note_on,3072,0,12,,,,,,,,12,,,45,110
3072,note_on,2,0,2,,,,,,,,1,,,45,110
3072,note_on,0,0,2,,,,,,,,1,,,48,110
3072,note_on,2,0,4,,,,,,,,3,,,57,110
3072,note_on,3072,0,9,,,,,,,,8,,,76,110
3072,note_on,0,0,2,,,,,,,,1,,,52,110
3072,note_on,0,0,2,,,,,,,,1,,,57,110
3072,note_on,2,0,3,,,,,,,,2,,,64,110
3072,note_on,0,0,3,,,,,,,,2,,,69,110
3072,note_on,0,0,3,,,,,,,,2,,,72,110
3232,note_on,160,0,9,,,,,,,,8,,,76,0
3232,note_on,160,0,11,,,,,,,,11,,,69,0
3232,note_on,0,0,4,,,,,,,,3,,,57,0
3232,note_on,160,0,4,,,,,,,,3,,,60,0
3232,note_on,160,0,6,,,,,,,,5,,,57,0
3232,note_on,0,0,1,,,,,,,,0,,,64,0
3232,note_on,0,0,2,,,,,,,,1,,,48,0
3232,note_on,0,0,2,,,,,,,,1,,,45,0
3232,note_on,160,0,1,,,,,,,,0,,,76,0
3232,note_on,160,0,10,,,,,,,,10,,,72,0
3232,note_on,0,0,8,,,,,,,,7,,,57,0
3232,note_on,160,0,8,,,,,,,,7,,,60,0
3232,note_on,0,0,2,,,,,,,,1,,,52,0
3232,note_on,160,0,2,,,,,,,,1,,,57,0
3232,note_on,0,0,1,,,,,,,,0,,,72,0
3232,note_on,0,0,6,,,,,,,,5,,,52,0
3232,note_on,0,0,6,,,,,,,,5,,,45,0
3232,note_on,0,0,6,,,,,,,,5,,,48,0
3232,note_on,0,0,3,,,,,,,,2,,,69,0
3232,note_on,160,0,3,,,,,,,,2,,,72,0
3232,note_on,0,0,3,,,,,,,,2,,,64,0
3232,note_on,0,0,1,,,,,,,,0,,,69,0
3232,note_on,160,0,5,,,,,,,,4,,,76,0
3232,note_on,0,0,5,,,,,,,,4,,,69,0
3232,note_on,160,0,7,,,,,,,,6,,,72,0
3232,note_on,0,0,7,,,,,,,,6,,,69,0
3232,note_on,0,0,5,,,,,,,,4,,,72,0
3232,note_on,0,0,7,,,,,,,,6,,,64,0
3232,note_on,0,0,5,,,,,,,,4,,,64,0
3232,note_on,160,0,12,,,,,,,,12,,,45,0
3360,note_on,128,0,10,,,,,,,,10,,,76,110
3360,note_on,128,0,6,,,,,,,,5,,,57,110
3360,note_on,128,0,1,,,,,,,,0,,,76,110
3360,note_on,128,0,4,,,,,,,,3,,,57,110
3360,note_on,128,0,2,,,,,,,,1,,,57,110
3360,note_on,128,0,5,,,,,,,,4,,,76,110
3360,note_on,128,0,11,,,,,,,,11,,,60,110
3360,note_on,128,0,3,,,,,,,,2,,,72,110
3360,note_on,128,0,9,,,,,,,,8,,,76,110
3360,note_on,128,0,7,,,,,,,,6,,,69,110
3360,note_on,128,0,12,,,,,,,,12,,,57,110
3454,note_on,94,0,11,,,,,,,,11,,,60,0
3454,note_on,94,0,10,,,,,,,,10,,,76,0
3454,note_on,94,0,6,,,,,,,,5,,,57,0
3454,note_on,94,0,12,,,,,,,,12,,,57,0
3454,note_on,94,0,3,,,,,,,,2,,,72,0
3454,note_on,94,0,4,,,,,,,,3,,,57,0
3454,note_on,94,0,2,,,,,,,,1,,,57,0
3454,note_on,94,0,5,,,,,,,,4,,,76,0
3454,note_on,94,0,7,,,,,,,,6,,,69,0
3454,note_on,94,0,1,,,,,,,,0,,,76,0
3454,note_on,94,0,9,,,,,,,,8,,,76,0
3456,note_on,2,0,10,,,,,,,,10,,,72,110
3456,note_on,2,0,2,,,,,,,,1,,,45,110
3456,note_on,2,0,11,,,,,,,,11,,,64,110
3456,note_on,2,0,6,,,,,,,,5,,,45,110
3456,note_on,2,0,3,,,,,,,,2,,,72,110
3456,note_on,2,0,5,,,,,,,,4,,,72,110
3456,note_on,2,0,9,,,,,,,,8,,,76,110
3456,note_on,2,0,4,,,,,,,,3,,,57,110
3456,note_on,2,0,7,,,,,,,,6,,,76,110
3456,note_on,2,0,12,,,,,,,,12,,,45,110
3456,note_on,2,0,1,,,,,,,,0,,,76,110
3502,note_on,46,0,3,,,,,,,,2,,,72,0
3502,note_on,46,0,7,,,,,,,,6,,,76,0
3504,note_on,2,0,3,,,,,,,,2,,,69,110
3504,note_on,2,0,7,,,,,,,,6,,,74,110
3550,note_on,94,0,11,,,,,,,,11,,,64,0
3550,note_on,94,0,10,,,,,,,,10,,,72,0
3550,note_on,94,0,5,,,,,,,,4,,,72,0
3550,note_on,94,0,2,,,,,,,,1,,,45,0
3550,note_on,94,0,4,,,,,,,,3,,,57,0
3550,note_on,46,0,3,,,,,,,,2,,,69,0
3550,note_on,94,0,6,,,,,,,,5,,,45,0
3550,note_on,94,0,12,,,,,,,,12,,,45,0
3550,note_on,94,0,9,,,,,,,,8,,,76,0
3550,note_on,46,0,7,,,,,,,,6,,,74,0
3550,note_on,94,0,1,,,,,,,,0,,,76,0
3552,note_on,320,0,8,,,,,,,,7,,,60,110
3552,note_on,2,0,2,,,,,,,,1,,,57,110
3552,note_on,2,0,10,,,,,,,,10,,,69,110
3552,note_on,2,0,7,,,,,,,,6,,,76,110
3552,note_on,2,0,1,,,,,,,,0,,,76,110
3552,note_on,2,0,9,,,,,,,,8,,,76,110
3552,note_on,2,0,12,,,,,,,,12,,,57,110
3552,note_on,2,0,6,,,,,,,,5,,,57,110
3552,note_on,2,0,11,,,,,,,,11,,,60,110
3552,note_on,2,0,4,,,,,,,,3,,,64,110
3552,note_on,2,0,3,,,,,,,,2,,,72,110
3552,note_on,2,0,5,,,,,,,,4,,,69,110
3598,note_on,46,0,3,,,,,,,,2,,,72,0
3600,note_on,2,0,3,,,,,,,,2,,,76,110
3646,note_on,94,0,2,,,,,,,,1,,,57,0
3646,note_on,46,0,3,,,,,,,,2,,,76,0
3646,note_on,94,0,12,,,,,,,,12,,,57,0
3646,note_on,94,0,9,,,,,,,,8,,,76,0
3646,note_on,94,0,10,,,,,,,,10,,,69,0
3646,note_on,94,0,7,,,,,,,,6,,,76,0
3646,note_on,94,0,6,,,,,,,,5,,,57,0
3646,note_on,94,0,11,,,,,,,,11,,,60,0
3646,note_on,94,0,5,,,,,,,,4,,,69,0
3646,note_on,94,0,8,,,,,,,,7,,,60,0
3646,note_on,94,0,1,,,,,,,,0,,,76,0
3646,note_on,94,0,4,,,,,,,,3,,,64,0
3648,note_on,2,0,3,,,,,,,,2,,,76,110
3648,note_on,2,0,8,,,,,,,,7,,,59,110
3648,note_on,2,0,1,,,,,,,,0,,,76,110
3648,note_on,2,0,12,,,,,,,,12,,,56,110
3648,note_on,2,0,6,,,,,,,,5,,,56,110
3648,note_on,2,0,11,,,,,,,,11,,,59,110
3648,note_on,2,0,2,,,,,,,,1,,,56,110
3648,note_on,2,0,9,,,,,,,,8,,,76,110
3694,note_on,46,0,3,,,,,,,,2,,,76,0
3696,note_on,2,0,3,,,,,,,,2,,,74,110
3696,note_on,50,0,7,,,,,,,,6,,,68,110
3742,note_on,46,0,3,,,,,,,,2,,,74,0
3742,note_on,46,0,7,,,,,,,,6,,,68,0
3742,note_on,94,0,11,,,,,,,,11,,,59,0
3742,note_on,94,0,6,,,,,,,,5,,,56,0
3742,note_on,94,0,9,,,,,,,,8,,,76,0
3742,note_on,94,0,8,,,,,,,,7,,,59,0
3742,note_on,94,0,12,,,,,,,,12,,,56,0
3742,note_on,94,0,1,,,,,,,,0,,,76,0
3742,note_on,94,0,2,,,,,,,,1,,,56,0
3744,note_on,2,0,2,,,,,,,,1,,,52,110
3744,note_on,2,0,3,,,,,,,,2,,,76,110
3744,note_on,98,0,4,,,,,,,,3,,,56,110
3744,note_on,2,0,8,,,,,,,,7,,,56,110
3744,note_on,2,0,9,,,,,,,,8,,,76,110
3744,note_on,2,0,12,,,,,,,,12,,,52,110
3744,note_on,98,0,10,,,,,,,,10,,,76,110
3744,note_on,2,0,6,,,,,,,,5,,,52,110
3744,note_on,2,0,1,,,,,,,,0,,,76,110
3744,note_on,2,0,11,,,,,,,,11,,,56,110
3744,note_on,2,0,7,,,,,,,,6,,,71,110
3744,note_on,98,0,5,,,,,,,,4,,,76,110
3790,note_on,46,0,7,,,,,,,,6,,,71,0
3792,note_on,2,0,7,,,,,,,,6,,,76,110
3838,note_on,94,0,9,,,,,,,,8,,,76,0
3838,note_on,94,0,10,,,,,,,,10,,,76,0
3838,note_on,94,0,5,,,,,,,,4,,,76,0
3838,note_on,94,0,6,,,,,,,,5,,,52,0
3838,note_on,94,0,11,,,,,,,,11,,,56,0
3838,note_on,94,0,4,,,,,,,,3,,,56,0
3838,note_on,94,0,8,,,,,,,,7,,,56,0
3838,note_on,94,0,2,,,,,,,,1,,,52,0
3838,note_on,94,0,3,,,,,,,,2,,,76,0
3838,note_on,94,0,1,,,,,,,,0,,,76,0
3838,note_on,94,0,12,,,,,,,,12,,,52,0
3838,note_on,46,0,7,,,,,,,,6,,,76,0
3840,note_on,2,0,10,,,,,,,,10,,,72,110
3840,note_on,2,0,7,,,,,,,,6,,,76,110
3840,note_on,2,0,1,,,,,,,,0,,,81,110
3840,note_on,2,0,9,,,,,,,,8,,,81,110
3840,note_on,2,0,4,,,,,,,,3,,,57,110
3840,note_on,2,0,5,,,,,,,,4,,,72,110
3886,note_on,46,0,7,,,,,,,,6,,,76,0
3888,note_on,50,0,3,,,,,,,,2,,,69,110
3888,note_on,2,0,7,,,,,,,,6,,,74,110
3934,note_on,94,0,1,,,,,,,,0,,,81,0
3934,note_on,94,0,9,,,,,,,,8,,,81,0
3934,note_on,94,0,10,,,,,,,,10,,,72,0
3934,note_on,46,0,7,,,,,,,,6,,,74,0
3934,note_on,94,0,5,,,,,,,,4,,,72,0
3934,note_on,46,0,3,,,,,,,,2,,,69,0
3934,note_on,94,0,4,,,,,,,,3,,,57,0
3936,note_on,98,0,12,,,,,,,,12,,,57,110
3936,note_on,2,0,3,,,,,,,,2,,,72,110
3936,note_on,2,0,1,,,,,,,,0,,,76,110
3936,note_on,98,0,2,,,,,,,,1,,,57,110
3936,note_on,2,0,9,,,,,,,,8,,,76,110
3936,note_on,2,0,4,,,,,,,,3,,,45,110
3936,note_on,2,0,10,,,,,,,,10,,,69,110
3936,note_on,98,0,8,,,,,,,,7,,,60,110
3936,note_on,2,0,7,,,,,,,,6,,,76,110
3936,note_on,2,0,5,,,,,,,,4,,,69,110
3936,note_on,98,0,6,,,,,,,,5,,,57,110
3936,note_on,98,0,11,,,,,,,,11,,,60,110
3982,note_on,46,0,3,,,,,,,,2,,,72,0
3984,note_on,2,0,3,,,,,,,,2,,,76,110
4030,note_on,94,0,10,,,,,,,,10,,,69,0
4030,note_on,94,0,2,,,,,,,,1,,,57,0
4030,note_on,94,0,8,,,,,,,,7,,,60,0
4030,note_on,94,0,1,,,,,,,,0,,,76,0
4030,note_on,94,0,12,,,,,,,,12,,,57,0
4030,note_on,94,0,9,,,,,,,,8,,,76,0
4030,note_on,94,0,4,,,,,,,,3,,,45,0
4030,note_on,94,0,11,,,,,,,,11,,,60,0
4030,note_on,94,0,7,,,,,,,,6,,,76,0
4030,note_on,94,0,5,,,,,,,,4,,,69,0
4030,note_on,46,0,3,,,,,,,,2,,,76,0
4030,note_on,94,0,6,,,,,,,,5,,,57,0
4032,note_on,2,0,9,,,,,,,,8,,,76,110
4032,note_on,2,0,8,,,,,,,,7,,,59,110
4032,note_on,2,0,6,,,,,,,,5,,,56,110
4032,note_on,2,0,2,,,,,,,,1,,,56,110
4032,note_on,2,0,1,,,,,,,,0,,,76,110
4032,note_on,2,0,11,,,,,,,,11,,,59,110
4032,note_on,2,0,3,,,,,,,,2,,,76,110
4032,note_on,2,0,12,,,,,,,,12,,,56,110
4078,note_on,46,0,3,,,,,,,,2,,,76,0
4080,note_on,50,0,7,,,,,,,,6,,,68,110
4080,note_on,2,0,3,,,,,,,,2,,,74,110
4126,note_on,46,0,7,,,,,,,,6,,,68,0
4126,note_on,94,0,8,,,,,,,,7,,,59,0
4126,note_on,46,0,3,,,,,,,,2,,,74,0
4126,note_on,94,0,6,,,,,,,,5,,,56,0
4126,note_on,94,0,2,,,,,,,,1,,,56,0
4126,note_on,94,0,12,,,,,,,,12,,,56,0
4126,note_on,94,0,1,,,,,,,,0,,,76,0
4126,note_on,94,0,9,,,,,,,,8,,,76,0
4126,note_on,94,0,11,,,,,,,,11,,,59,0
4128,note_on,2,0,3,,,,,,,,2,,,76,110
4128,note_on,2,0,8,,,,,,,,7,,,56,110
4128,note_on,2,0,9,,,,,,,,8,,,76,110
4128,note_on,98,0,4,,,,,,,,3,,,56,110
4128,note_on,2,0,6,,,,,,,,5,,,52,110
4128,note_on,98,0,10,,,,,,,,10,,,76,110
4128,note_on,2,0,7,,,,,,,,6,,,71,110
4128,note_on,2,0,11,,,,,,,,11,,,56,110
4128,note_on,98,0,5,,,,,,,,4,,,76,110
4128,note_on,2,0,12,,,,,,,,12,,,52,110
4128,note_on,2,0,1,,,,,,,,0,,,76,110
4128,note_on,2,0,2,,,,,,,,1,,,52,110
4174,note_on,46,0,7,,,,,,,,6,,,71,0
4176,note_on,2,0,7,,,,,,,,6,,,76,110
4222,note_on,94,0,4,,,,,,,,3,,,56,0
4222,note_on,94,0,3,,,,,,,,2,,,76,0
4222,note_on,94,0,11,,,,,,,,11,,,56,0
4222,note_on,94,0,5,,,,,,,,4,,,76,0
4222,note_on,94,0,12,,,,,,,,12,,,52,0
4222,note_on,94,0,1,,,,,,,,0,,,76,0
4222,note_on,94,0,10,,,,,,,,10,,,76,0
4222,note_on,94,0,9,,,,,,,,8,,,76,0
4222,note_on,94,0,6,,,,,,,,5,,,52,0
4222,note_on,94,0,8,,,,,,,,7,,,56,0
4222,note_on,46,0,7,,,,,,,,6,,,76,0
4222,note_on,94,0,2,,,,,,,,1,,,52,0
4224,note_on,2,0,9,,,,,,,,8,,,81,110
4224,note_on,2,0,10,,,,,,,,10,,,72,110
4224,note_on,2,0,4,,,,,,,,3,,,57,110
4224,note_on,2,0,1,,,,,,,,0,,,81,110
4224,note_on,2,0,7,,,,,,,,6,,,76,110
4224,note_on,2,0,5,,,,,,,,4,,,72,110
4270,note_on,46,0,7,,,,,,,,6,,,76,0
4272,note_on,50,0,3,,,,,,,,2,,,69,110
4272,note_on,2,0,7,,,,,,,,6,,,74,110
4318,note_on,46,0,7,,,,,,,,6,,,74,0
4318,note_on,94,0,1,,,,,,,,0,,,81,0
4318,note_on,94,0,10,,,,,,,,10,,,72,0
4318,note_on,94,0,4,,,,,,,,3,,,57,0
4318,note_on,94,0,9,,,,,,,,8,,,81,0
4318,note_on,94,0,5,,,,,,,,4,,,72,0
4318,note_on,46,0,3,,,,,,,,2,,,69,0
4320,note_on,2,0,1,,,,,,,,0,,,76,110
4320,note_on,98,0,8,,,,,,,,7,,,60,110
4320,note_on,2,0,10,,,,,,,,10,,,69,110
4320,note_on,2,0,7,,,,,,,,6,,,76,110
4320,note_on,98,0,6,,,,,,,,5,,,57,110
4320,note_on,2,0,5,,,,,,,,4,,,69,110
4320,note_on,2,0,9,,,,,,,,8,,,76,110
4320,note_on,2,0,3,,,,,,,,2,,,72,110
4320,note_on,2,0,4,,,,,,,,3,,,45,110
4320,note_on,98,0,2,,,,,,,,1,,,57,110
4320,note_on,98,0,11,,,,,,,,11,,,60,110
4320,note_on,98,0,12,,,,,,,,12,,,57,110
4366,note_on,46,0,3,,,,,,,,2,,,72,0
4368,note_on,2,0,3,,,,,,,,2,,,76,110
4414,note_on,94,0,12,,,,,,,,12,,,57,0
4414,note_on,94,0,10,,,,,,,,10,,,69,0
4414,note_on,94,0,9,,,,,,,,8,,,76,0
4414,note_on,94,0,11,,,,,,,,11,,,60,0
4414,note_on,94,0,2,,,,,,,,1,,,57,0
4414,note_on,46,0,3,,,,,,,,2,,,76,0
4414,note_on,94,0,6,,,,,,,,5,,,57,0
4414,note_on,94,0,4,,,,,,,,3,,,45,0
4414,note_on,94,0,8,,,,,,,,7,,,60,0
4414,note_on,94,0,1,,,,,,,,0,,,76,0
4414,note_on,94,0,7,,,,,,,,6,,,76,0
4414,note_on,94,0,5,,,,,,,,4,,,69,0
4416,note_on,2,0,1,,,,,,,,0,,,76,110
4416,note_on,2,0,8,,,,,,,,7,,,59,110
4416,note_on,2,0,3,,,,,,,,2,,,76,110
4416,note_on,2,0,12,,,,,,,,12,,,56,110
4416,note_on,2,0,6,,,,,,,,5,,,56,110
4416,note_on,2,0,11,,,,,,,,11,,,59,110
4416,note_on,2,0,2,,,,,,,,1,,,56,110
4416,note_on,2,0,9,,,,,,,,8,,,76,110
4462,note_on,46,0,3,,,,,,,,2,,,76,0
4464,note_on,50,0,7,,,,,,,,6,,,68,110
4464,note_on,2,0,3,,,,,,,,2,,,74,110
4510,note_on,46,0,3,,,,,,,,2,,,74,0
4510,note_on,94,0,11,,,,,,,,11,,,59,0
4510,note_on,46,0,7,,,,,,,,6,,,68,0
4510,note_on,94,0,1,,,,,,,,0,,,76,0
4510,note_on,94,0,12,,,,,,,,12,,,56,0
4510,note_on,94,0,6,,,,,,,,5,,,56,0
4510,note_on,94,0,8,,,,,,,,7,,,59,0
4510,note_on,94,0,2,,,,,,,,1,,,56,0
4510,note_on,94,0,9,,,,,,,,8,,,76,0
4512,note_on,2,0,2,,,,,,,,1,,,52,110
4512,note_on,2,0,3,,,,,,,,2,,,76,110
4512,note_on,2,0,7,,,,,,,,6,,,71,110
4512,note_on,98,0,10,,,,,,,,10,,,76,110
4512,note_on,2,0,1,,,,,,,,0,,,76,110
4512,note_on,98,0,5,,,,,,,,4,,,76,110
4512,note_on,2,0,6,,,,,,,,5,,,52,110
4512,note_on,98,0,4,,,,,,,,3,,,68,110
4512,note_on,2,0,8,,,,,,,,7,,,56,110
4512,note_on,2,0,9,,,,,,,,8,,,76,110
4512,note_on,2,0,11,,,,,,,,11,,,56,110
4512,note_on,2,0,12,,,,,,,,12,,,52,110
4558,note_on,46,0,7,,,,,,,,6,,,71,0
4560,note_on,2,0,7,,,,,,,,6,,,76,110
4606,note_on,94,0,9,,,,,,,,8,,,76,0
4606,note_on,94,0,10,,,,,,,,10,,,76,0
4606,note_on,94,0,11,,,,,,,,11,,,56,0
4606,note_on,94,0,12,,,,,,,,12,,,52,0
4606,note_on,94,0,1,,,,,,,,0,,,76,0
4606,note_on,46,0,7,,,,,,,,6,,,76,0
4606,note_on,94,0,2,,,,,,,,1,,,52,0
4606,note_on,94,0,6,,,,,,,,5,,,52,0
4606,note_on,94,0,5,,,,,,,,4,,,76,0
4606,note_on,94,0,8,,,,,,,,7,,,56,0
4606,note_on,94,0,4,,,,,,,,3,,,68,0
4606,note_on,94,0,3,,,,,,,,2,,,76,0
4608,note_on,2,0,2,,,,,,,,1,,,45,110
4608,note_on,2,0,6,,,,,,,,5,,,45,110
4608,note_on,2,0,12,,,,,,,,12,,,45,110
4608,note_on,2,0,1,,,,,,,,0,,,77,110
4608,note_on,2,0,9,,,,,,,,8,,,77,110
4608,note_on,2,0,4,,,,,,,,3,,,69,110
4608,note_on,2,0,8,,,,,,,,7,,,52,110
4608,note_on,2,0,7,,,,,,,,6,,,76,110
4608,note_on,2,0,11,,,,,,,,11,,,52,110
4608,note_on,2,0,5,,,,,,,,4,,,74,110
4608,note_on,2,0,10,,,,,,,,10,,,74,110
4630,note_on,22,0,5,,,,,,,,4,,,74,0
4630,note_on,22,0,9,,,,,,,,8,,,77,0
4630,note_on,22,0,1,,,,,,,,0,,,77,0
4630,note_on,22,0,10,,,,,,,,10,,,74,0
4632,note_on,2,0,10,,,,,,,,10,,,72,110
4632,note_on,2,0,1,,,,,,,,0,,,76,110
4632,note_on,2,0,9,,,,,,,,8,,,76,110
4632,note_on,2,0,5,,,,,,,,4,,,72,110
4654,note_on,22,0,10,,,,,,,,10,,,72,0
4654,note_on,22,0,5,,,,,,,,4,,,72,0
4654,note_on,46,0,7,,,,,,,,6,,,76,0
4654,note_on,22,0,9,,,,,,,,8,,,76,0
4654,note_on,22,0,1,,,,,,,,0,,,76,0
4656,note_on,2,0,7,,,,,,,,6,,,74,110
4656,note_on,2,0,10,,,,,,,,10,,,74,110
4656,note_on,2,0,9,,,,,,,,8,,,77,110
4656,note_on,2,0,5,,,,,,,,4,,,74,110
4656,note_on,2,0,1,,,,,,,,0,,,77,110
4678,note_on,22,0,10,,,,,,,,10,,,74,0
4678,note_on,22,0,5,,,,,,,,4,,,74,0
4678,note_on,22,0,1,,,,,,,,0,,,77,0
4678,note_on,22,0,9,,,,,,,,8,,,77,0
4680,note_on,2,0,1,,,,,,,,0,,,76,110
4680,note_on,2,0,9,,,,,,,,8,,,76,110
4680,note_on,2,0,10,,,,,,,,10,,,72,110
4680,note_on,2,0,5,,,,,,,,4,,,72,110
4702,note_on,22,0,1,,,,,,,,0,,,76,0
4702,note_on,22,0,5,,,,,,,,4,,,72,0
4702,note_on,94,0,8,,,,,,,,7,,,52,0
4702,note_on,94,0,11,,,,,,,,11,,,52,0
4702,note_on,22,0,9,,,,,,,,8,,,76,0
4702,note_on,46,0,7,,,,,,,,6,,,74,0
4702,note_on,94,0,4,,,,,,,,3,,,69,0
4702,note_on,94,0,2,,,,,,,,1,,,45,0
4702,note_on,22,0,10,,,,,,,,10,,,72,0
4704,note_on,2,0,2,,,,,,,,1,,,57,110
4704,note_on,2,0,5,,,,,,,,4,,,69,110
4704,note_on,2,0,8,,,,,,,,7,,,60,110
4704,note_on,2,0,10,,,,,,,,10,,,69,110
4704,note_on,98,0,3,,,,,,,,2,,,76,110
4704,note_on,2,0,11,,,,,,,,11,,,64,110
4704,note_on,2,0,1,,,,,,,,0,,,72,110
4704,note_on,2,0,4,,,,,,,,3,,,64,110
4704,note_on,2,0,7,,,,,,,,6,,,76,110
4704,note_on,2,0,9,,,,,,,,8,,,72,110
4750,note_on,46,0,9,,,,,,,,8,,,72,0
4750,note_on,46,0,10,,,,,,,,10,,,69,0
4750,note_on,46,0,5,,,,,,,,4,,,69,0
4750,note_on,46,0,1,,,,,,,,0,,,72,0
4752,note_on,2,0,1,,,,,,,,0,,,74,110
4752,note_on,2,0,9,,,,,,,,8,,,74,110
4752,note_on,2,0,10,,,,,,,,10,,,71,110
4752,note_on,2,0,5,,,,,,,,4,,,71,110
4768,note_on,160,0,12,,,,,,,,12,,,45,0
4768,note_on,160,0,6,,,,,,,,5,,,45,0
4798,note_on,94,0,2,,,,,,,,1,,,57,0
4798,note_on,46,0,9,,,,,,,,8,,,74,0
4798,note_on,94,0,4,,,,,,,,3,,,64,0
4798,note_on,94,0,7,,,,,,,,6,,,76,0
4798,note_on,46,0,10,,,,,,,,10,,,71,0
4798,note_on,94,0,3,,,,,,,,2,,,76,0
4798,note_on,46,0,1,,,,,,,,0,,,74,0
4798,note_on,94,0,8,,,,,,,,7,,,60,0
4798,note_on,94,0,11,,,,,,,,11,,,64,0
4798,note_on,46,0,5,,,,,,,,4,,,71,0
4800,note_on,2,0,5,,,,,,,,4,,,72,110
4800,note_on,2,0,3,,,,,,,,2,,,81,110
4800,note_on,2,0,11,,,,,,,,11,,,60,110
4800,note_on,2,0,9,,,,,,,,8,,,76,110
4800,note_on,2,0,2,,,,,,,,1,,,45,110
4800,note_on,2,0,8,,,,,,,,7,,,57,110
4800,note_on,2,0,4,,,,,,,,3,,,60,110
4800,note_on,2,0,10,,,,,,,,10,,,72,110
4800,note_on,2,0,1,,,,,,,,0,,,76,110
4894,note_on,94,0,9,,,,,,,,8,,,76,0
4894,note_on,94,0,4,,,,,,,,3,,,60,0
4894,note_on,94,0,1,,,,,,,,0,,,76,0
4894,note_on,94,0,10,,,,,,,,10,,,72,0
4894,note_on,94,0,5,,,,,,,,4,,,72,0
4894,note_on,94,0,11,,,,,,,,11,,,60,0
4896,note_on,2,0,10,,,,,,,,10,,,72,110
4896,note_on,2,0,11,,,,,,,,11,,,57,110
4896,note_on,2,0,9,,,,,,,,8,,,76,110
4896,note_on,128,0,6,,,,,,,,5,,,57,110
4896,note_on,2,0,5,,,,,,,,4,,,72,110
4896,note_on,2,0,4,,,,,,,,3,,,57,110
4896,note_on,98,0,7,,,,,,,,6,,,76,110
4896,note_on,2,0,1,,,,,,,,0,,,76,110
4960,note_on,160,0,8,,,,,,,,7,,,57,0
4960,note_on,160,0,3,,,,,,,,2,,,81,0
4960,note_on,160,0,2,,,,,,,,1,,,45,0
4990,note_on,94,0,6,,,,,,,,5,,,57,0
4990,note_on,94,0,10,,,,,,,,10,,,72,0
4990,note_on,94,0,5,,,,,,,,4,,,72,0
4990,note_on,94,0,11,,,,,,,,11,,,57,0
4990,note_on,94,0,9,,,,,,,,8,,,76,0
4990,note_on,94,0,1,,,,,,,,0,,,76,0
4990,note_on,94,0,4,,,,,,,,3,,,57,0
4990,note_on,94,0,7,,,,,,,,6,,,76,0
4992,note_on,2,0,5,,,,,,,,4,,,74,110
4992,note_on,2,0,11,,,,,,,,11,,,52,110
4992,note_on,2,0,9,,,,,,,,8,,,77,110
4992,note_on,2,0,1,,,,,,,,0,,,77,110
4992,note_on,2,0,4,,,,,,,,3,,,60,110
4992,note_on,2,0,6,,,,,,,,5,,,45,110
4992,note_on,224,0,12,,,,,,,,12,,,45,110
4992,note_on,2,0,10,,,,,,,,10,,,74,110
4992,note_on,2,0,7,,,,,,,,6,,,81,110
5014,note_on,22,0,9,,,,,,,,8,,,77,0
5014,note_on,22,0,5,,,,,,,,4,,,74,0
5014,note_on,22,0,1,,,,,,,,0,,,77,0
5014,note_on,22,0,10,,,,,,,,10,,,74,0
5016,note_on,2,0,9,,,,,,,,8,,,76,110
5016,note_on,2,0,5,,,,,,,,4,,,72,110
5016,note_on,2,0,10,,,,,,,,10,,,72,110
5016,note_on,2,0,1,,,,,,,,0,,,76,110
5038,note_on,22,0,1,,,,,,,,0,,,76,0
5038,note_on,22,0,9,,,,,,,,8,,,76,0
5038,note_on,22,0,5,,,,,,,,4,,,72,0
5038,note_on,22,0,10,,,,,,,,10,,,72,0
5040,note_on,2,0,10,,,,,,,,10,,,74,110
5040,note_on,2,0,9,,,,,,,,8,,,77,110
5040,note_on,2,0,5,,,,,,,,4,,,74,110
5040,note_on,2,0,1,,,,,,,,0,,,77,110
5062,note_on,22,0,10,,,,,,,,10,,,74,0
5062,note_on,22,0,9,,,,,,,,8,,,77,0
5062,note_on,22,0,5,,,,,,,,4,,,74,0
5062,note_on,22,0,1,,,,,,,,0,,,77,0
5064,note_on,2,0,1,,,,,,,,0,,,76,110
5064,note_on,2,0,10,,,,,,,,10,,,72,110
5064,note_on,2,0,5,,,,,,,,4,,,72,110
5064,note_on,2,0,9,,,,,,,,8,,,76,110
5086,note_on,22,0,1,,,,,,,,0,,,76,0
5086,note_on,22,0,5,,,,,,,,4,,,72,0
5086,note_on,22,0,10,,,,,,,,10,,,72,0
5086,note_on,94,0,11,,,,,,,,11,,,52,0
5086,note_on,94,0,4,,,,,,,,3,,,60,0
5086,note_on,22,0,9,,,,,,,,8,,,76,0
5088,note_on,2,0,10,,,,,,,,10,,,69,110
5088,note_on,128,0,3,,,,,,,,2,,,76,110
5088,note_on,2,0,4,,,,,,,,3,,,64,110
5088,note_on,2,0,1,,,,,,,,0,,,72,110
5088,note_on,2,0,9,,,,,,,,8,,,72,110
5088,note_on,128,0,2,,,,,,,,1,,,57,110
5088,note_on,2,0,11,,,,,,,,11,,,64,110
5088,note_on,2,0,5,,,,,,,,4,,,69,110
5088,note_on,128,0,8,,,,,,,,7,,,60,110
5134,note_on,46,0,10,,,,,,,,10,,,69,0
5134,note_on,46,0,9,,,,,,,,8,,,72,0
5134,note_on,46,0,5,,,,,,,,4,,,69,0
5134,note_on,46,0,1,,,,,,,,0,,,72,0
5136,note_on,2,0,10,,,,,,,,10,,,71,110
5136,note_on,2,0,5,,,,,,,,4,,,71,110
5136,note_on,2,0,1,,,,,,,,0,,,74,110
5136,note_on,2,0,9,,,,,,,,8,,,74,110
5152,note_on,160,0,12,,,,,,,,12,,,45,0
5152,note_on,160,0,6,,,,,,,,5,,,45,0
5152,note_on,160,0,7,,,,,,,,6,,,81,0
5182,note_on,46,0,9,,,,,,,,8,,,74,0
5182,note_on,46,0,1,,,,,,,,0,,,74,0
5182,note_on,46,0,5,,,,,,,,4,,,71,0
5182,note_on,46,0,10,,,,,,,,10,,,71,0
5182,note_on,94,0,11,,,,,,,,11,,,64,0
5182,note_on,94,0,2,,,,,,,,1,,,57,0
5182,note_on,94,0,3,,,,,,,,2,,,76,0
5182,note_on,94,0,4,,,,,,,,3,,,64,0
5182,note_on,94,0,8,,,,,,,,7,,,60,0
5184,note_on,2,0,9,,,,,,,,8,,,76,110
5184,note_on,2,0,2,,,,,,,,1,,,45,110
5184,note_on,2,0,4,,,,,,,,3,,,60,110
5184,note_on,2,0,11,,,,,,,,11,,,60,110
5184,note_on,2,0,8,,,,,,,,7,,,57,110
5184,note_on,2,0,10,,,,,,,,10,,,72,110
5184,note_on,2,0,5,,,,,,,,4,,,72,110
5184,note_on,2,0,1,,,,,,,,0,,,76,110
5184,note_on,2,0,3,,,,,,,,2,,,81,110
5278,note_on,94,0,10,,,,,,,,10,,,72,0
5278,note_on,94,0,5,,,,,,,,4,,,72,0
5278,note_on,94,0,4,,,,,,,,3,,,60,0
5278,note_on,94,0,1,,,,,,,,0,,,76,0
5278,note_on,94,0,9,,,,,,,,8,,,76,0
5278,note_on,94,0,11,,,,,,,,11,,,60,0
5280,note_on,128,0,7,,,,,,,,6,,,76,110
5280,note_on,128,0,6,,,,,,,,5,,,57,110
5280,note_on,2,0,11,,,,,,,,11,,,57,110
5280,note_on,2,0,1,,,,,,,,0,,,76,110
5280,note_on,2,0,4,,,,,,,,3,,,57,110
5280,note_on,2,0,10,,,,,,,,10,,,72,110
5280,note_on,2,0,5,,,,,,,,4,,,72,110
5280,note_on,2,0,9,,,,,,,,8,,,76,110
5326,note_on,46,0,4,,,,,,,,3,,,57,0
5328,note_on,2,0,4,,,,,,,,3,,,59,110
5344,note_on,160,0,2,,,,,,,,1,,,45,0
5344,note_on,160,0,8,,,,,,,,7,,,57,0
5344,note_on,160,0,3,,,,,,,,2,,,81,0
5374,note_on,94,0,11,,,,,,,,11,,,57,0
5374,note_on,94,0,7,,,,,,,,6,,,76,0
5374,note_on,94,0,5,,,,,,,,4,,,72,0
5374,note_on,46,0,4,,,,,,,,3,,,59,0
5374,note_on,94,0,9,,,,,,,,8,,,76,0
5374,note_on,94,0,6,,,,,,,,5,,,57,0
5374,note_on,94,0,10,,,,,,,,10,,,72,0
5374,note_on,94,0,1,,,,,,,,0,,,76,0
5376,note_on,2,0,1,,,,,,,,0,,,76,110
5376,note_on,2,0,9,,,,,,,,8,,,76,110
5376,note_on,2,0,10,,,,,,,,10,,,72,110
5376,note_on,2,0,11,,,,,,,,11,,,52,110
5376,note_on,2,0,4,,,,,,,,3,,,60,110
5376,note_on,2,0,7,,,,,,,,6,,,81,110
5376,note_on,2,0,5,,,,,,,,4,,,72,110
5376,note_on,2,0,6,,,,,,,,5,,,45,110
5376,note_on,224,0,12,,,,,,,,12,,,45,110
5422,note_on,46,0,4,,,,,,,,3,,,60,0
5424,note_on,2,0,4,,,,,,,,3,,,62,110
5470,note_on,94,0,6,,,,,,,,5,,,45,0
5470,note_on,94,0,9,,,,,,,,8,,,76,0
5470,note_on,94,0,1,,,,,,,,0,,,76,0
5470,note_on,94,0,10,,,,,,,,10,,,72,0
5470,note_on,46,0,4,,,,,,,,3,,,62,0
5470,note_on,94,0,5,,,,,,,,4,,,72,0
5470,note_on,94,0,12,,,,,,,,12,,,45,0
5470,note_on,94,0,11,,,,,,,,11,,,52,0
5472,note_on,128,0,2,,,,,,,,1,,,57,110
5472,note_on,2,0,6,,,,,,,,5,,,57,110
5472,note_on,2,0,10,,,,,,,,10,,,72,110
5472,note_on,2,0,4,,,,,,,,3,,,64,110
5472,note_on,2,0,11,,,,,,,,11,,,57,110
5472,note_on,2,0,12,,,,,,,,12,,,57,110
5472,note_on,2,0,9,,,,,,,,8,,,76,110
5472,note_on,2,0,5,,,,,,,,4,,,72,110
5472,note_on,128,0,3,,,,,,,,2,,,76,110
5472,note_on,128,0,8,,,,,,,,7,,,60,110
5472,note_on,2,0,1,,,,,,,,0,,,76,110
5518,note_on,46,0,4,,,,,,,,3,,,64,0
5518,note_on,46,0,6,,,,,,,,5,,,57,0
5518,note_on,46,0,2,,,,,,,,1,,,57,0
5518,note_on,46,0,12,,,,,,,,12,,,57,0
5520,note_on,2,0,6,,,,,,,,5,,,56,110
5520,note_on,2,0,4,,,,,,,,3,,,62,110
5520,note_on,2,0,12,,,,,,,,12,,,56,110
5520,note_on,2,0,2,,,,,,,,1,,,56,110
5536,note_on,160,0,7,,,,,,,,6,,,81,0
5566,note_on,94,0,11,,,,,,,,11,,,57,0
5566,note_on,94,0,5,,,,,,,,4,,,72,0
5566,note_on,46,0,4,,,,,,,,3,,,62,0
5566,note_on,94,0,8,,,,,,,,7,,,60,0
5566,note_on,94,0,1,,,,,,,,0,,,76,0
5566,note_on,94,0,3,,,,,,,,2,,,76,0
5566,note_on,46,0,6,,,,,,,,5,,,56,0
5566,note_on,46,0,12,,,,,,,,12,,,56,0
5566,note_on,46,0,2,,,,,,,,1,,,56,0
5566,note_on,94,0,9,,,,,,,,8,,,76,0
5566,note_on,94,0,10,,,,,,,,10,,,72,0
5568,note_on,2,0,2,,,,,,,,1,,,57,110
5568,note_on,2,0,4,,,,,,,,3,,,60,110
5568,note_on,2,0,10,,,,,,,,10,,,74,110
5568,note_on,2,0,8,,,,,,,,7,,,57,110
5568,note_on,2,0,12,,,,,,,,12,,,57,110
5568,note_on,2,0,5,,,,,,,,4,,,72,110
5568,note_on,2,0,1,,,,,,,,0,,,76,110
5568,note_on,2,0,11,,,,,,,,11,,,60,110
5568,note_on,2,0,6,,,,,,,,5,,,57,110
5568,note_on,2,0,3,,,,,,,,2,,,81,110
5568,note_on,2,0,9,,,,,,,,8,,,77,110
5590,note_on,22,0,10,,,,,,,,10,,,74,0
5590,note_on,22,0,9,,,,,,,,8,,,77,0
5592,note_on,2,0,9,,,,,,,,8,,,76,110
5592,note_on,2,0,10,,,,,,,,10,,,72,110
5614,note_on,22,0,10,,,,,,,,10,,,72,0
5614,note_on,22,0,9,,,,,,,,8,,,76,0
5614,note_on,46,0,4,,,,,,,,3,,,60,0
5614,note_on,46,0,3,,,,,,,,2,,,81,0
5616,note_on,2,0,10,,,,,,,,10,,,74,110
5616,note_on,2,0,9,,,,,,,,8,,,77,110
5616,note_on,2,0,4,,,,,,,,3,,,64,110
5616,note_on,80,0,7,,,,,,,,6,,,72,110
5616,note_on,2,0,3,,,,,,,,2,,,72,110
5638,note_on,22,0,9,,,,,,,,8,,,77,0
5638,note_on,22,0,10,,,,,,,,10,,,74,0
5640,note_on,2,0,9,,,,,,,,8,,,76,110
5640,note_on,2,0,10,,,,,,,,10,,,72,110
5662,note_on,22,0,9,,,,,,,,8,,,76,0
5662,note_on,22,0,10,,,,,,,,10,,,72,0
5662,note_on,94,0,5,,,,,,,,4,,,72,0
5662,note_on,46,0,7,,,,,,,,6,,,72,0
5662,note_on,94,0,8,,,,,,,,7,,,57,0
5662,note_on,46,0,3,,,,,,,,2,,,72,0
5662,note_on,94,0,6,,,,,,,,5,,,57,0
5662,note_on,94,0,2,,,,,,,,1,,,57,0
5662,note_on,94,0,11,,,,,,,,11,,,60,0
5662,note_on,46,0,4,,,,,,,,3,,,64,0
5662,note_on,94,0,12,,,,,,,,12,,,57,0
5662,note_on,94,0,1,,,,,,,,0,,,76,0
5664,note_on,2,0,1,,,,,,,,0,,,74,110
5664,note_on,2,0,9,,,,,,,,8,,,74,110
5664,note_on,2,0,2,,,,,,,,1,,,45,110
5664,note_on,2,0,11,,,,,,,,11,,,64,110
5664,note_on,2,0,8,,,,,,,,7,,,52,110
5664,note_on,2,0,12,,,,,,,,12,,,45,110
5664,note_on,2,0,10,,,,,,,,10,,,71,110
5664,note_on,2,0,7,,,,,,,,6,,,74,110
5664,note_on,2,0,6,,,,,,,,5,,,45,110
5664,note_on,2,0,3,,,,,,,,2,,,74,110
5664,note_on,2,0,4,,,,,,,,3,,,65,110
5664,note_on,2,0,5,,,,,,,,4,,,71,110
5710,note_on,46,0,3,,,,,,,,2,,,74,0
5710,note_on,46,0,5,,,,,,,,4,,,71,0
5710,note_on,46,0,9,,,,,,,,8,,,74,0
5710,note_on,46,0,4,,,,,,,,3,,,65,0
5710,note_on,46,0,10,,,,,,,,10,,,71,0
5710,note_on,46,0,7,,,,,,,,6,,,74,0
5710,note_on,46,0,1,,,,,,,,0,,,74,0
5712,note_on,2,0,1,,,,,,,,0,,,72,110
5712,note_on,2,0,5,,,,,,,,4,,,69,110
5712,note_on,2,0,9,,,,,,,,8,,,72,110
5712,note_on,2,0,3,,,,,,,,2,,,76,110
5712,note_on,2,0,10,,,,,,,,10,,,69,110
5712,note_on,2,0,7,,,,,,,,6,,,76,110
5712,note_on,2,0,4,,,,,,,,3,,,64,110
5758,note_on,46,0,1,,,,,,,,0,,,72,0
5758,note_on,46,0,5,,,,,,,,4,,,69,0
5758,note_on,46,0,7,,,,,,,,6,,,76,0
5758,note_on,94,0,2,,,,,,,,1,,,45,0
5758,note_on,46,0,3,,,,,,,,2,,,76,0
5758,note_on,46,0,9,,,,,,,,8,,,72,0
5758,note_on,94,0,8,,,,,,,,7,,,52,0
5758,note_on,94,0,12,,,,,,,,12,,,45,0
5758,note_on,46,0,10,,,,,,,,10,,,69,0
5758,note_on,94,0,6,,,,,,,,5,,,45,0
5758,note_on,94,0,11,,,,,,,,11,,,64,0
5758,note_on,46,0,4,,,,,,,,3,,,64,0
5760,note_on,2,0,10,,,,,,,,10,,,68,110
5760,note_on,2,0,5,,,,,,,,4,,,68,110
5760,note_on,2,0,1,,,,,,,,0,,,71,110
5760,note_on,2,0,8,,,,,,,,7,,,64,110
5760,note_on,2,0,11,,,,,,,,11,,,64,110
5760,note_on,2,0,6,,,,,,,,5,,,52,110
5760,note_on,2,0,7,,,,,,,,6,,,69,110
5760,note_on,2,0,9,,,,,,,,8,,,71,110
5760,note_on,2,0,2,,,,,,,,1,,,52,110
5760,note_on,2,0,12,,,,,,,,12,,,52,110
5760,note_on,2,0,4,,,,,,,,3,,,52,110
5760,note_on,2,0,3,,,,,,,,2,,,71,110
5782,note_on,22,0,7,,,,,,,,6,,,69,0
5784,note_on,2,0,7,,,,,,,,6,,,68,110
5806,note_on,46,0,4,,,,,,,,3,,,52,0
5806,note_on,22,0,7,,,,,,,,6,,,68,0
5808,note_on,2,0,4,,,,,,,,3,,,64,110
5808,note_on,2,0,7,,,,,,,,6,,,69,110
5830,note_on,22,0,7,,,,,,,,6,,,69,0
5832,note_on,2,0,7,,,,,,,,6,,,68,110
5854,note_on,46,0,4,,,,,,,,3,,,64,0
5854,note_on,22,0,7,,,,,,,,6,,,68,0
5854,note_on,94,0,3,,,,,,,,2,,,71,0
5854,note_on,94,0,1,,,,,,,,0,,,71,0
5854,note_on,94,0,6,,,,,,,,5,,,52,0
5854,note_on,94,0,9,,,,,,,,8,,,71,0
5856,note_on,2,0,6,,,,,,,,5,,,54,110
5856,note_on,2,0,3,,,,,,,,2,,,64,110
5856,note_on,2,0,7,,,,,,,,6,,,69,110
5856,note_on,2,0,4,,,,,,,,3,,,62,110
5856,note_on,2,0,1,,,,,,,,0,,,64,110
5856,note_on,2,0,9,,,,,,,,8,,,64,110
5878,note_on,22,0,7,,,,,,,,6,,,69,0
5880,note_on,2,0,7,,,,,,,,6,,,68,110
5902,note_on,22,0,7,,,,,,,,6,,,68,0
5902,note_on,46,0,4,,,,,,,,3,,,62,0
5904,note_on,2,0,7,,,,,,,,6,,,69,110
5904,note_on,2,0,4,,,,,,,,3,,,60,110
5920,note_on,160,0,2,,,,,,,,1,,,52,0
5920,note_on,160,0,12,,,,,,,,12,,,52,0
5920,note_on,160,0,10,,,,,,,,10,,,68,0
5920,note_on,160,0,11,,,,,,,,11,,,64,0
5920,note_on,160,0,8,,,,,,,,7,,,64,0
5920,note_on,160,0,5,,,,,,,,4,,,68,0
5926,note_on,22,0,7,,,,,,,,6,,,69,0
5928,note_on,2,0,7,,,,,,,,6,,,68,110
5950,note_on,22,0,7,,,,,,,,6,,,68,0
5950,note_on,94,0,9,,,,,,,,8,,,64,0
5950,note_on,46,0,4,,,,,,,,3,,,60,0
5950,note_on,94,0,3,,,,,,,,2,,,64,0
5950,note_on,94,0,1,,,,,,,,0,,,64,0
5950,note_on,94,0,6,,,,,,,,5,,,54,0
5952,note_on,2,0,4,,,,,,,,3,,,59,110
5952,note_on,2,0,6,,,,,,,,5,,,56,110
5998,note_on,46,0,4,,,,,,,,3,,,59,0
6000,note_on,80,0,5,,,,,,,,4,,,71,110
6000,note_on,50,0,3,,,,,,,,2,,,68,110
6000,note_on,2,0,4,,,,,,,,3,,,62,110
6046,note_on,46,0,5,,,,,,,,4,,,71,0
6046,note_on,46,0,3,,,,,,,,2,,,68,0
6046,note_on,46,0,4,,,,,,,,3,,,62,0
6046,note_on,94,0,6,,,,,,,,5,,,56,0
6048,note_on,2,0,5,,,,,,,,4,,,72,110
6048,note_on,2,0,6,,,,,,,,5,,,52,110
6048,note_on,2,0,3,,,,,,,,2,,,69,110
6048,note_on,2,0,4,,,,,,,,3,,,60,110
6094,note_on,46,0,5,,,,,,,,4,,,72,0
6094,note_on,46,0,3,,,,,,,,2,,,69,0
6094,note_on,46,0,4,,,,,,,,3,,,60,0
6096,note_on,2,0,4,,,,,,,,3,,,59,110
6096,note_on,2,0,3,,,,,,,,2,,,71,110
6096,note_on,2,0,5,,,,,,,,4,,,74,110
6142,note_on,46,0,3,,,,,,,,2,,,71,0
6142,note_on,46,0,4,,,,,,,,3,,,59,0
6142,note_on,94,0,6,,,,,,,,5,,,52,0
6142,note_on,46,0,5,,,,,,,,4,,,74,0
6144,note_on,2,0,3,,,,,,,,2,,,72,110
6144,note_on,2,0,5,,,,,,,,4,,,72,110
6144,note_on,2,0,4,,,,,,,,3,,,57,110
6144,note_on,2,0,6,,,,,,,,5,,,45,110
6190,note_on,46,0,3,,,,,,,,2,,,72,0
6190,note_on,46,0,5,,,,,,,,4,,,72,0
6192,note_on,2,0,3,,,,,,,,2,,,74,110
6192,note_on,2,0,5,,,,,,,,4,,,71,110
6238,note_on,46,0,5,,,,,,,,4,,,71,0
6238,note_on,46,0,3,,,,,,,,2,,,74,0
6238,note_on,94,0,6,,,,,,,,5,,,45,0
6240,note_on,2,0,5,,,,,,,,4,,,69,110
6240,note_on,2,0,3,,,,,,,,2,,,76,110
6240,note_on,2,0,6,,,,,,,,5,,,57,110
6286,note_on,46,0,5,,,,,,,,4,,,69,0
6288,note_on,2,0,5,,,,,,,,4,,,72,110
6304,note_on,160,0,4,,,,,,,,3,,,57,0
6334,note_on,94,0,3,,,,,,,,2,,,76,0
6334,note_on,46,0,5,,,,,,,,4,,,72,0
6334,note_on,94,0,6,,,,,,,,5,,,57,0
6336,note_on,2,0,5,,,,,,,,4,,,76,110
6336,note_on,2,0,6,,,,,,,,5,,,56,110
6382,note_on,46,0,5,,,,,,,,4,,,76,0
6384,note_on,2,0,5,,,,,,,,4,,,71,110
6430,note_on,46,0,5,,,,,,,,4,,,71,0
6430,note_on,94,0,6,,,,,,,,5,,,56,0
6432,note_on,2,0,6,,,,,,,,5,,,52,110
6432,note_on,2,0,5,,,,,,,,4,,,72,110
6478,note_on,46,0,5,,,,,,,,4,,,72,0
6480,note_on,2,0,5,,,,,,,,4,,,74,110
6526,note_on,94,0,6,,,,,,,,5,,,52,0
6526,note_on,46,0,5,,,,,,,,4,,,74,0
6528,note_on,2,0,5,,,,,,,,4,,,72,110
6528,note_on,2,0,6,,,,,,,,5,,,45,110
6574,note_on,46,0,5,,,,,,,,4,,,72,0
6576,note_on,2,0,5,,,,,,,,4,,,71,110
6622,note_on,46,0,5,,,,,,,,4,,,71,0
6622,note_on,94,0,6,,,,,,,,5,,,45,0
6624,note_on,2,0,5,,,,,,,,4,,,69,110
6624,note_on,2,0,6,,,,,,,,5,,,57,110
6670,note_on,46,0,5,,,,,,,,4,,,69,0
6672,note_on,2,0,5,,,,,,,,4,,,72,110
6718,note_on,94,0,6,,,,,,,,5,,,57,0
6718,note_on,46,0,5,,,,,,,,4,,,72,0
6720,note_on,2,0,6,,,,,,,,5,,,56,110
6720,note_on,2,0,5,,,,,,,,4,,,76,110
6766,note_on,46,0,5,,,,,,,,4,,,76,0
6768,note_on,2,0,5,,,,,,,,4,,,71,110
6814,note_on,94,0,6,,,,,,,,5,,,56,0
6814,note_on,46,0,5,,,,,,,,4,,,71,0
6816,note_on,2,0,6,,,,,,,,5,,,52,110
6816,note_on,2,0,5,,,,,,,,4,,,72,110
6862,note_on,46,0,5,,,,,,,,4,,,72,0
6864,note_on,2,0,5,,,,,,,,4,,,74,110
6910,note_on,94,0,6,,,,,,,,5,,,52,0
6910,note_on,46,0,5,,,,,,,,4,,,74,0
6912,note_on,2,0,5,,,,,,,,4,,,72,110
6912,note_on,2,0,6,,,,,,,,5,,,45,110
6958,note_on,46,0,5,,,,,,,,4,,,72,0
6960,note_on,2,0,5,,,,,,,,4,,,71,110
7006,note_on,94,0,6,,,,,,,,5,,,45,0
7006,note_on,46,0,5,,,,,,,,4,,,71,0
7008,note_on,2,0,5,,,,,,,,4,,,69,110
7008,note_on,2,0,6,,,,,,,,5,,,57,110
7054,note_on,46,0,5,,,,,,,,4,,,69,0
7056,note_on,2,0,5,,,,,,,,4,,,72,110
7102,note_on,94,0,6,,,,,,,,5,,,57,0
7102,note_on,46,0,5,,,,,,,,4,,,72,0
7104,note_on,2,0,6,,,,,,,,5,,,56,110
7104,note_on,2,0,5,,,,,,,,4,,,76,110
7150,note_on,46,0,5,,,,,,,,4,,,76,0
7152,note_on,2,0,5,,,,,,,,4,,,71,110
7198,note_on,46,0,5,,,,,,,,4,,,71,0
7198,note_on,94,0,6,,,,,,,,5,,,56,0
7200,note_on,2,0,5,,,,,,,,4,,,72,110
7200,note_on,2,0,6,,,,,,,,5,,,52,110
7246,note_on,46,0,5,,,,,,,,4,,,72,0
7248,note_on,2,0,5,,,,,,,,4,,,74,110
7294,note_on,94,0,6,,,,,,,,5,,,52,0
7294,note_on,46,0,5,,,,,,,,4,,,74,0
7296,note_on,2,0,6,,,,,,,,5,,,45,110
7296,note_on,2,0,5,,,,,,,,4,,,72,110
7342,note_on,46,0,5,,,,,,,,4,,,72,0
7344,note_on,2,0,5,,,,,,,,4,,,69,110
7390,note_on,46,0,5,,,,,,,,4,,,69,0
7390,note_on,94,0,6,,,,,,,,5,,,45,0
7392,note_on,2,0,5,,,,,,,,4,,,72,110
7392,note_on,2,0,6,,,,,,,,5,,,57,110
7438,note_on,46,0,5,,,,,,,,4,,,72,0
7440,note_on,2,0,5,,,,,,,,4,,,76,110
7486,note_on,46,0,5,,,,,,,,4,,,76,0
7486,note_on,94,0,6,,,,,,,,5,,,57,0
7488,note_on,2,0,6,,,,,,,,5,,,60,110
7488,note_on,2,0,5,,,,,,,,4,,,81,110
7534,note_on,46,0,5,,,,,,,,4,,,81,0
7536,note_on,2,0,5,,,,,,,,4,,,69,110
7582,note_on,46,0,5,,,,,,,,4,,,69,0
7582,note_on,94,0,6,,,,,,,,5,,,60,0
7584,note_on,2,0,5,,,,,,,,4,,,72,110
7584,note_on,2,0,6,,,,,,,,5,,,57,110
7630,note_on,46,0,5,,,,,,,,4,,,72,0
7632,note_on,2,0,5,,,,,,,,4,,,76,110
7678,note_on,46,0,5,,,,,,,,4,,,76,0
7678,note_on,94,0,6,,,,,,,,5,,,57,0
7680,note_on,2,0,5,,,,,,,,4,,,81,110
7680,note_on,2,0,6,,,,,,,,5,,,45,110
7726,note_on,46,0,5,,,,,,,,4,,,81,0
7728,note_on,2,0,5,,,,,,,,4,,,69,110
7774,note_on,94,0,6,,,,,,,,5,,,45,0
7774,note_on,46,0,5,,,,,,,,4,,,69,0
7776,note_on,2,0,6,,,,,,,,5,,,57,110
7776,note_on,2,0,5,,,,,,,,4,,,72,110
7822,note_on,46,0,5,,,,,,,,4,,,72,0
7824,note_on,2,0,5,,,,,,,,4,,,76,110
7870,note_on,94,0,6,,,,,,,,5,,,57,0
7870,note_on,46,0,5,,,,,,,,4,,,76,0
7872,note_on,2,0,5,,,,,,,,4,,,81,110
7872,note_on,2,0,6,,,,,,,,5,,,60,110
7918,note_on,46,0,5,,,,,,,,4,,,81,0
7920,note_on,2,0,5,,,,,,,,4,,,69,110
7966,note_on,94,0,6,,,,,,,,5,,,60,0
7966,note_on,46,0,5,,,,,,,,4,,,69,0
7968,note_on,2,0,6,,,,,,,,5,,,57,110
7968,note_on,2,0,5,,,,,,,,4,,,72,110
8014,note_on,46,0,5,,,,,,,,4,,,72,0
8016,note_on,2,0,5,,,,,,,,4,,,76,110
8062,note_on,94,0,6,,,,,,,,5,,,57,0
8062,note_on,46,0,5,,,,,,,,4,,,76,0
8064,note_on,2,0,6,,,,,,,,5,,,45,110
8064,note_on,2,0,5,,,,,,,,4,,,81,110
8110,note_on,46,0,5,,,,,,,,4,,,81,0
8112,note_on,2,0,5,,,,,,,,4,,,76,110
8158,note_on,46,0,5,,,,,,,,4,,,76,0
8160,note_on,2,0,5,,,,,,,,4,,,72,110
8206,note_on,46,0,5,,,,,,,,4,,,72,0
8208,note_on,2,0,5,,,,,,,,4,,,76,110
8224,note_on,160,0,6,,,,,,,,5,,,45,0
8254,note_on,46,0,5,,,,,,,,4,,,76,0
8256,note_on,2,0,5,,,,,,,,4,,,69,110
8302,note_on,46,0,5,,,,,,,,4,,,69,0
8304,note_on,80,0,6,,,,,,,,5,,,64,110
8304,note_on,2,0,5,,,,,,,,4,,,72,110
8350,note_on,46,0,6,,,,,,,,5,,,64,0
8350,note_on,46,0,5,,,,,,,,4,,,72,0
8352,note_on,2,0,6,,,,,,,,5,,,60,110
8352,note_on,2,0,5,,,,,,,,4,,,69,110
8398,note_on,46,0,6,,,,,,,,5,,,60,0
8398,note_on,46,0,5,,,,,,,,4,,,69,0
8400,note_on,2,0,6,,,,,,,,5,,,64,110
8400,note_on,2,0,5,,,,,,,,4,,,72,110
8446,note_on,46,0,5,,,,,,,,4,,,72,0
8446,note_on,46,0,6,,,,,,,,5,,,64,0
8448,note_on,2,0,6,,,,,,,,5,,,57,110
8448,note_on,2,0,5,,,,,,,,4,,,64,110
8494,note_on,46,0,5,,,,,,,,4,,,64,0
8496,note_on,2,0,5,,,,,,,,4,,,69,110
8542,note_on,46,0,5,,,,,,,,4,,,69,0
8544,note_on,2,0,5,,,,,,,,4,,,64,110
8590,note_on,46,0,5,,,,,,,,4,,,64,0
8592,note_on,2,0,5,,,,,,,,4,,,69,110
8608,note_on,160,0,6,,,,,,,,5,,,57,0
8638,note_on,46,0,5,,,,,,,,4,,,69,0
8640,note_on,2,0,5,,,,,,,,4,,,60,110
8686,note_on,46,0,5,,,,,,,,4,,,60,0
8688,note_on,80,0,6,,,,,,,,5,,,52,110
8688,note_on,2,0,5,,,,,,,,4,,,64,110
8734,note_on,46,0,6,,,,,,,,5,,,52,0
8734,note_on,46,0,5,,,,,,,,4,,,64,0
8736,note_on,2,0,5,,,,,,,,4,,,60,110
8736,note_on,2,0,6,,,,,,,,5,,,48,110
8782,note_on,46,0,6,,,,,,,,5,,,48,0
8782,note_on,46,0,5,,,,,,,,4,,,60,0
8784,note_on,2,0,6,,,,,,,,5,,,52,110
8784,note_on,2,0,5,,,,,,,,4,,,64,110
8830,note_on,46,0,5,,,,,,,,4,,,64,0
8830,note_on,46,0,6,,,,,,,,5,,,52,0
8832,note_on,2912,0,2,,,,,,,,1,,,57,110
8832,note_on,0,0,4,,,,,,,,3,,,48,110
8832,note_on,2528,0,4,,,,,,,,3,,,45,110
8832,note_on,2,0,5,,,,,,,,4,,,57,110
8832,note_on,2912,0,12,,,,,,,,12,,,45,110
8832,note_on,0,0,7,,,,,,,,6,,,76,110
8832,note_on,0,0,7,,,,,,,,6,,,72,110
8832,note_on,0,0,7,,,,,,,,6,,,69,110
8832,note_on,2882,0,7,,,,,,,,6,,,64,110
8832,note_on,2,0,6,,,,,,,,5,,,45,110
8832,note_on,0,0,2,,,,,,,,1,,,60,110
8832,note_on,0,0,4,,,,,,,,3,,,57,110
8832,note_on,0,0,4,,,,,,,,3,,,52,110
8832,note_on,2912,0,11,,,,,,,,11,,,69,110
8832,note_on,0,0,8,,,,,,,,7,,,57,110
8832,note_on,0,0,3,,,,,,,,2,,,69,110
8832,note_on,2498,0,3,,,,,,,,2,,,64,110
8832,note_on,2882,0,1,,,,,,,,0,,,64,110
8832,note_on,0,0,1,,,,,,,,0,,,69,110
8832,note_on,0,0,1,,,,,,,,0,,,72,110
8832,note_on,2882,0,9,,,,,,,,8,,,76,110
8832,note_on,0,0,3,,,,,,,,2,,,72,110
8832,note_on,2912,0,8,,,,,,,,7,,,45,110
8832,note_on,0,0,8,,,,,,,,7,,,48,110
8832,note_on,0,0,3,,,,,,,,2,,,76,110
8832,note_on,2912,0,10,,,,,,,,10,,,72,110
8832,note_on,0,0,8,,,,,,,,7,,,52,110
8992,note_on,0,0,7,,,,,,,,6,,,72,0
8992,note_on,160,0,11,,,,,,,,11,,,69,0
8992,note_on,0,0,3,,,,,,,,2,,,72,0
8992,note_on,0,0,3,,,,,,,,2,,,69,0
8992,note_on,160,0,8,,,,,,,,7,,,57,0
8992,note_on,0,0,8,,,,,,,,7,,,45,0
8992,note_on,0,0,8,,,,,,,,7,,,48,0
8992,note_on,0,0,2,,,,,,,,1,,,57,0
8992,note_on,160,0,2,,,,,,,,1,,,60,0
8992,note_on,160,0,9,,,,,,,,8,,,76,0
8992,note_on,0,0,3,,,,,,,,2,,,64,0
8992,note_on,160,0,6,,,,,,,,5,,,45,0
8992,note_on,160,0,5,,,,,,,,4,,,57,0
8992,note_on,0,0,8,,,,,,,,7,,,52,0
8992,note_on,0,0,7,,,,,,,,6,,,69,0
8992,note_on,0,0,7,,,,,,,,6,,,64,0
8992,note_on,160,0,12,,,,,,,,12,,,45,0
8992,note_on,160,0,10,,,,,,,,10,,,72,0
8992,note_on,160,0,4,,,,,,,,3,,,57,0
8992,note_on,0,0,4,,,,,,,,3,,,45,0
8992,note_on,160,0,3,,,,,,,,2,,,76,0
8992,note_on,0,0,4,,,,,,,,3,,,48,0
8992,note_on,160,0,7,,,,,,,,6,,,76,0
8992,note_on,0,0,1,,,,,,,,0,,,64,0
8992,note_on,0,0,1,,,,,,,,0,,,69,0
8992,note_on,160,0,1,,,,,,,,0,,,72,0
8992,note_on,0,0,4,,,,,,,,3,,,52,0
9120,note_on,128,0,1,,,,,,,,0,,,72,110
9120,note_on,128,0,3,,,,,,,,2,,,76,110
9120,note_on,128,0,11,,,,,,,,11,,,60,110
9120,note_on,128,0,12,,,,,,,,12,,,57,110
9120,note_on,128,0,5,,,,,,,,4,,,69,110
9120,note_on,128,0,8,,,,,,,,7,,,57,110
9120,note_on,128,0,10,,,,,,,,10,,,76,110
9120,note_on,128,0,7,,,,,,,,6,,,76,110
9120,note_on,128,0,4,,,,,,,,3,,,57,110
9120,note_on,128,0,9,,,,,,,,8,,,76,110
9120,note_on,128,0,2,,,,,,,,1,,,57,110
9214,note_on,94,0,4,,,,,,,,3,,,57,0
9214,note_on,94,0,12,,,,,,,,12,,,57,0
9214,note_on,94,0,11,,,,,,,,11,,,60,0
9214,note_on,94,0,5,,,,,,,,4,,,69,0
9214,note_on,94,0,1,,,,,,,,0,,,72,0
9214,note_on,94,0,9,,,,,,,,8,,,76,0
9214,note_on,94,0,10,,,,,,,,10,,,76,0
9214,note_on,94,0,2,,,,,,,,1,,,57,0
9214,note_on,94,0,3,,,,,,,,2,,,76,0
9214,note_on,94,0,7,,,,,,,,6,,,76,0
9214,note_on,94,0,8,,,,,,,,7,,,57,0
9216,note_on,2,0,9,,,,,,,,8,,,76,110
9216,note_on,2,0,10,,,,,,,,10,,,72,110
9216,note_on,2,0,7,,,,,,,,6,,,72,110
9216,note_on,2,0,1,,,,,,,,0,,,72,110
9216,note_on,2,0,12,,,,,,,,12,,,45,110
9216,note_on,2,0,5,,,,,,,,4,,,77,110
9216,note_on,2,0,4,,,,,,,,3,,,45,110
9216,note_on,2,0,8,,,,,,,,7,,,45,110
9216,note_on,2,0,2,,,,,,,,1,,,57,110
9216,note_on,2,0,11,,,,,,,,11,,,64,110
9216,note_on,2,0,3,,,,,,,,2,,,76,110
9226,note_on,10,0,5,,,,,,,,4,,,77,0
9228,note_on,2,0,5,,,,,,,,4,,,76,110
9238,note_on,10,0,5,,,,,,,,4,,,76,0
9240,note_on,2,0,5,,,,,,,,4,,,77,110
9250,note_on,10,0,5,,,,,,,,4,,,77,0
9252,note_on,2,0,5,,,,,,,,4,,,76,110
9262,note_on,10,0,5,,,,,,,,4,,,76,0
9262,note_on,46,0,1,,,,,,,,0,,,72,0
9264,note_on,2,0,5,,,,,,,,4,,,74,110
9264,note_on,2,0,1,,,,,,,,0,,,69,110
9310,note_on,94,0,2,,,,,,,,1,,,57,0
9310,note_on,94,0,11,,,,,,,,11,,,64,0
9310,note_on,94,0,10,,,,,,,,10,,,72,0
9310,note_on,46,0,1,,,,,,,,0,,,69,0
9310,note_on,94,0,12,,,,,,,,12,,,45,0
9310,note_on,94,0,7,,,,,,,,6,,,72,0
9310,note_on,94,0,4,,,,,,,,3,,,45,0
9310,note_on,94,0,9,,,,,,,,8,,,76,0
9310,note_on,94,0,8,,,,,,,,7,,,45,0
9310,note_on,94,0,3,,,,,,,,2,,,76,0
9310,note_on,46,0,5,,,,,,,,4,,,74,0
9312,note_on,2,0,3,,,,,,,,2,,,76,110
9312,note_on,2,0,9,,,,,,,,8,,,76,110
9312,note_on,2,0,10,,,,,,,,10,,,69,110
9312,note_on,2,0,11,,,,,,,,11,,,60,110
9312,note_on,2,0,12,,,,,,,,12,,,57,110
9312,note_on,320,0,6,,,,,,,,5,,,60,110
9312,note_on,2,0,8,,,,,,,,7,,,57,110
9312,note_on,2,0,5,,,,,,,,4,,,76,110
9312,note_on,2,0,4,,,,,,,,3,,,57,110
9312,note_on,2,0,2,,,,,,,,1,,,64,110
9312,note_on,2,0,7,,,,,,,,6,,,69,110
9312,note_on,2,0,1,,,,,,,,0,,,72,110
9358,note_on,46,0,1,,,,,,,,0,,,72,0
9360,note_on,2,0,1,,,,,,,,0,,,76,110
9406,note_on,46,0,1,,,,,,,,0,,,76,0
9406,note_on,94,0,4,,,,,,,,3,,,57,0
9406,note_on,94,0,12,,,,,,,,12,,,57,0
9406,note_on,94,0,9,,,,,,,,8,,,76,0
9406,note_on,94,0,2,,,,,,,,1,,,64,0
9406,note_on,94,0,10,,,,,,,,10,,,69,0
9406,note_on,94,0,6,,,,,,,,5,,,60,0
9406,note_on,94,0,8,,,,,,,,7,,,57,0
9406,note_on,94,0,3,,,,,,,,2,,,76,0
9406,note_on,94,0,5,,,,,,,,4,,,76,0
9406,note_on,94,0,11,,,,,,,,11,,,60,0
9406,note_on,94,0,7,,,,,,,,6,,,69,0
9408,note_on,2,0,6,,,,,,,,5,,,59,110
9408,note_on,2,0,8,,,,,,,,7,,,56,110
9408,note_on,2,0,11,,,,,,,,11,,,59,110
9408,note_on,2,0,9,,,,,,,,8,,,76,110
9408,note_on,2,0,4,,,,,,,,3,,,56,110
9408,note_on,2,0,1,,,,,,,,0,,,76,110
9408,note_on,2,0,3,,,,,,,,2,,,76,110
9408,note_on,2,0,12,,,,,,,,12,,,56,110
9454,note_on,46,0,1,,,,,,,,0,,,76,0
9456,note_on,50,0,5,,,,,,,,4,,,68,110
9456,note_on,2,0,1,,,,,,,,0,,,74,110
9502,note_on,46,0,1,,,,,,,,0,,,74,0
9502,note_on,46,0,5,,,,,,,,4,,,68,0
9502,note_on,94,0,3,,,,,,,,2,,,76,0
9502,note_on,94,0,12,,,,,,,,12,,,56,0
9502,note_on,94,0,6,,,,,,,,5,,,59,0
9502,note_on,94,0,4,,,,,,,,3,,,56,0
9502,note_on,94,0,9,,,,,,,,8,,,76,0
9502,note_on,94,0,8,,,,,,,,7,,,56,0
9502,note_on,94,0,11,,,,,,,,11,,,59,0
9504,note_on,2,0,4,,,,,,,,3,,,52,110
9504,note_on,98,0,7,,,,,,,,6,,,76,110
9504,note_on,2,0,1,,,,,,,,0,,,76,110
9504,note_on,2,0,5,,,,,,,,4,,,71,110
9504,note_on,2,0,11,,,,,,,,11,,,56,110
9504,note_on,98,0,2,,,,,,,,1,,,56,110
9504,note_on,2,0,9,,,,,,,,8,,,76,110
9504,note_on,2,0,3,,,,,,,,2,,,76,110
9504,note_on,98,0,10,,,,,,,,10,,,76,110
9504,note_on,2,0,12,,,,,,,,12,,,52,110
9504,note_on,2,0,6,,,,,,,,5,,,56,110
9504,note_on,2,0,8,,,,,,,,7,,,52,110
9550,note_on,46,0,5,,,,,,,,4,,,71,0
9552,note_on,2,0,5,,,,,,,,4,,,76,110
9598,note_on,94,0,10,,,,,,,,10,,,76,0
9598,note_on,94,0,12,,,,,,,,12,,,52,0
9598,note_on,94,0,3,,,,,,,,2,,,76,0
9598,note_on,94,0,9,,,,,,,,8,,,76,0
9598,note_on,94,0,4,,,,,,,,3,,,52,0
9598,note_on,94,0,1,,,,,,,,0,,,76,0
9598,note_on,94,0,11,,,,,,,,11,,,56,0
9598,note_on,46,0,5,,,,,,,,4,,,76,0
9598,note_on,94,0,8,,,,,,,,7,,,52,0
9598,note_on,94,0,7,,,,,,,,6,,,76,0
9598,note_on,94,0,6,,,,,,,,5,,,56,0
9598,note_on,94,0,2,,,,,,,,1,,,56,0
9600,note_on,2,0,3,,,,,,,,2,,,81,110
9600,note_on,2,0,2,,,,,,,,1,,,57,110
9600,note_on,2,0,10,,,,,,,,10,,,72,110
9600,note_on,2,0,5,,,,,,,,4,,,77,110
9600,note_on,2,0,7,,,,,,,,6,,,72,110
9600,note_on,2,0,9,,,,,,,,8,,,81,110
9610,note_on,10,0,5,,,,,,,,4,,,77,0
9612,note_on,2,0,5,,,,,,,,4,,,76,110
9622,note_on,10,0,5,,,,,,,,4,,,76,0
9624,note_on,2,0,5,,,,,,,,4,,,77,110
9634,note_on,10,0,5,,,,,,,,4,,,77,0
9636,note_on,2,0,5,,,,,,,,4,,,76,110
9646,note_on,10,0,5,,,,,,,,4,,,76,0
9648,note_on,50,0,1,,,,,,,,0,,,69,110
9648,note_on,2,0,5,,,,,,,,4,,,74,110
9694,note_on,46,0,5,,,,,,,,4,,,74,0
9694,note_on,94,0,2,,,,,,,,1,,,57,0
9694,note_on,94,0,10,,,,,,,,10,,,72,0
9694,note_on,94,0,9,,,,,,,,8,,,81,0
9694,note_on,94,0,7,,,,,,,,6,,,72,0
9694,note_on,46,0,1,,,,,,,,0,,,69,0
9694,note_on,94,0,3,,,,,,,,2,,,81,0
9696,note_on,2,0,9,,,,,,,,8,,,76,110
9696,note_on,98,0,8,,,,,,,,7,,,57,110
9696,note_on,2,0,3,,,,,,,,2,,,76,110
9696,note_on,98,0,11,,,,,,,,11,,,60,110
9696,note_on,98,0,6,,,,,,,,5,,,60,110
9696,note_on,2,0,2,,,,,,,,1,,,45,110
9696,note_on,2,0,10,,,,,,,,10,,,69,110
9696,note_on,98,0,12,,,,,,,,12,,,57,110
9696,note_on,98,0,4,,,,,,,,3,,,57,110
9696,note_on,2,0,7,,,,,,,,6,,,69,110
9696,note_on,2,0,5,,,,,,,,4,,,76,110
9696,note_on,2,0,1,,,,,,,,0,,,72,110
9742,note_on,46,0,1,,,,,,,,0,,,72,0
9744,note_on,2,0,1,,,,,,,,0,,,76,110
9790,note_on,94,0,5,,,,,,,,4,,,76,0
9790,note_on,94,0,3,,,,,,,,2,,,76,0
9790,note_on,94,0,7,,,,,,,,6,,,69,0
9790,note_on,94,0,6,,,,,,,,5,,,60,0
9790,note_on,94,0,12,,,,,,,,12,,,57,0
9790,note_on,94,0,9,,,,,,,,8,,,76,0
9790,note_on,94,0,11,,,,,,,,11,,,60,0
9790,note_on,94,0,2,,,,,,,,1,,,45,0
9790,note_on,94,0,4,,,,,,,,3,,,57,0
9790,note_on,94,0,8,,,,,,,,7,,,57,0
9790,note_on,46,0,1,,,,,,,,0,,,76,0
9790,note_on,94,0,10,,,,,,,,10,,,69,0
9792,note_on,2,0,9,,,,,,,,8,,,76,110
9792,note_on,2,0,8,,,,,,,,7,,,56,110
9792,note_on,2,0,12,,,,,,,,12,,,56,110
9792,note_on,2,0,4,,,,,,,,3,,,56,110
9792,note_on,2,0,1,,,,,,,,0,,,76,110
9792,note_on,2,0,3,,,,,,,,2,,,76,110
9792,note_on,2,0,11,,,,,,,,11,,,59,110
9792,note_on,2,0,6,,,,,,,,5,,,59,110
9838,note_on,46,0,1,,,,,,,,0,,,76,0
9840,note_on,50,0,5,,,,,,,,4,,,68,110
9840,note_on,2,0,1,,,,,,,,0,,,74,110
9886,note_on,94,0,3,,,,,,,,2,,,76,0
9886,note_on,94,0,12,,,,,,,,12,,,56,0
9886,note_on,46,0,1,,,,,,,,0,,,74,0
9886,note_on,94,0,9,,,,,,,,8,,,76,0
9886,note_on,94,0,11,,,,,,,,11,,,59,0
9886,note_on,94,0,8,,,,,,,,7,,,56,0
9886,note_on,94,0,4,,,,,,,,3,,,56,0
9886,note_on,94,0,6,,,,,,,,5,,,59,0
9886,note_on,46,0,5,,,,,,,,4,,,68,0
9888,note_on,2,0,6,,,,,,,,5,,,56,110
9888,note_on,98,0,7,,,,,,,,6,,,76,110
9888,note_on,2,0,11,,,,,,,,11,,,56,110
9888,note_on,98,0,2,,,,,,,,1,,,56,110
9888,note_on,98,0,10,,,,,,,,10,,,76,110
9888,note_on,2,0,8,,,,,,,,7,,,52,110
9888,note_on,2,0,4,,,,,,,,3,,,52,110
9888,note_on,2,0,9,,,,,,,,8,,,76,110
9888,note_on,2,0,3,,,,,,,,2,,,76,110
9888,note_on,2,0,12,,,,,,,,12,,,52,110
9888,note_on,2,0,1,,,,,,,,0,,,76,110
9888,note_on,2,0,5,,,,,,,,4,,,71,110
9934,note_on,46,0,5,,,,,,,,4,,,71,0
9936,note_on,2,0,5,,,,,,,,4,,,76,110
9982,note_on,94,0,6,,,,,,,,5,,,56,0
9982,note_on,94,0,1,,,,,,,,0,,,76,0
9982,note_on,94,0,9,,,,,,,,8,,,76,0
9982,note_on,94,0,10,,,,,,,,10,,,76,0
9982,note_on,94,0,8,,,,,,,,7,,,52,0
9982,note_on,94,0,2,,,,,,,,1,,,56,0
9982,note_on,94,0,11,,,,,,,,11,,,56,0
9982,note_on,46,0,5,,,,,,,,4,,,76,0
9982,note_on,94,0,3,,,,,,,,2,,,76,0
9982,note_on,94,0,12,,,,,,,,12,,,52,0
9982,note_on,94,0,4,,,,,,,,3,,,52,0
9982,note_on,94,0,7,,,,,,,,6,,,76,0
9984,note_on,2,0,9,,,,,,,,8,,,81,110
9984,note_on,2,0,3,,,,,,,,2,,,81,110
9984,note_on,2,0,10,,,,,,,,10,,,72,110
9984,note_on,2,0,7,,,,,,,,6,,,72,110
9984,note_on,2,0,5,,,,,,,,4,,,77,110
9984,note_on,2,0,2,,,,,,,,1,,,57,110
9994,note_on,10,0,5,,,,,,,,4,,,77,0
9996,note_on,2,0,5,,,,,,,,4,,,76,110
10006,note_on,10,0,5,,,,,,,,4,,,76,0
10008,note_on,2,0,5,,,,,,,,4,,,77,110
10018,note_on,10,0,5,,,,,,,,4,,,77,0
10020,note_on,2,0,5,,,,,,,,4,,,76,110
10030,note_on,10,0,5,,,,,,,,4,,,76,0
10032,note_on,50,0,1,,,,,,,,0,,,69,110
10032,note_on,2,0,5,,,,,,,,4,,,74,110
10078,note_on,94,0,2,,,,,,,,1,,,57,0
10078,note_on,94,0,3,,,,,,,,2,,,81,0
10078,note_on,46,0,1,,,,,,,,0,,,69,0
10078,note_on,94,0,7,,,,,,,,6,,,72,0
10078,note_on,46,0,5,,,,,,,,4,,,74,0
10078,note_on,94,0,9,,,,,,,,8,,,81,0
10078,note_on,94,0,10,,,,,,,,10,,,72,0
10080,note_on,2,0,9,,,,,,,,8,,,76,110
10080,note_on,98,0,8,,,,,,,,7,,,57,110
10080,note_on,2,0,3,,,,,,,,2,,,76,110
10080,note_on,2,0,1,,,,,,,,0,,,72,110
10080,note_on,98,0,6,,,,,,,,5,,,60,110
10080,note_on,98,0,12,,,,,,,,12,,,57,110
10080,note_on,98,0,4,,,,,,,,3,,,57,110
10080,note_on,2,0,10,,,,,,,,10,,,69,110
10080,note_on,98,0,11,,,,,,,,11,,,60,110
10080,note_on,2,0,2,,,,,,,,1,,,45,110
10080,note_on,2,0,5,,,,,,,,4,,,76,110
10080,note_on,2,0,7,,,,,,,,6,,,69,110
10126,note_on,46,0,1,,,,,,,,0,,,72,0
10128,note_on,2,0,1,,,,,,,,0,,,76,110
10174,note_on,94,0,11,,,,,,,,11,,,60,0
10174,note_on,94,0,8,,,,,,,,7,,,57,0
10174,note_on,46,0,1,,,,,,,,0,,,76,0
10174,note_on,94,0,2,,,,,,,,1,,,45,0
10174,note_on,94,0,10,,,,,,,,10,,,69,0
10174,note_on,94,0,7,,,,,,,,6,,,69,0
10174,note_on,94,0,4,,,,,,,,3,,,57,0
10174,note_on,94,0,5,,,,,,,,4,,,76,0
10174,note_on,94,0,6,,,,,,,,5,,,60,0
10174,note_on,94,0,3,,,,,,,,2,,,76,0
10174,note_on,94,0,12,,,,,,,,12,,,57,0
10174,note_on,94,0,9,,,,,,,,8,,,76,0
10176,note_on,2,0,9,,,,,,,,8,,,76,110
10176,note_on,2,0,4,,,,,,,,3,,,56,110
10176,note_on,2,0,1,,,,,,,,0,,,76,110
10176,note_on,2,0,8,,,,,,,,7,,,56,110
10176,note_on,2,0,12,,,,,,,,12,,,56,110
10176,note_on,2,0,3,,,,,,,,2,,,76,110
10176,note_on,2,0,11,,,,,,,,11,,,59,110
10176,note_on,2,0,6,,,,,,,,5,,,59,110
10222,note_on,46,0,1,,,,,,,,0,,,76,0
10224,note_on,2,0,1,,,,,,,,0,,,74,110
10224,note_on,50,0,5,,,,,,,,4,,,68,110
10270,note_on,94,0,4,,,,,,,,3,,,56,0
10270,note_on,94,0,12,,,,,,,,12,,,56,0
10270,note_on,94,0,3,,,,,,,,2,,,76,0
10270,note_on,94,0,6,,,,,,,,5,,,59,0
10270,note_on,46,0,5,,,,,,,,4,,,68,0
10270,note_on,46,0,1,,,,,,,,0,,,74,0
10270,note_on,94,0,8,,,,,,,,7,,,56,0
10270,note_on,94,0,11,,,,,,,,11,,,59,0
10270,note_on,94,0,9,,,,,,,,8,,,76,0
10272,note_on,2,0,5,,,,,,,,4,,,71,110
10272,note_on,2,0,12,,,,,,,,12,,,52,110
10272,note_on,2,0,4,,,,,,,,3,,,52,110
10272,note_on,98,0,10,,,,,,,,10,,,76,110
10272,note_on,2,0,6,,,,,,,,5,,,56,110
10272,note_on,2,0,8,,,,,,,,7,,,52,110
10272,note_on,2,0,11,,,,,,,,11,,,56,110
10272,note_on,2,0,9,,,,,,,,8,,,76,110
10272,note_on,98,0,2,,,,,,,,1,,,68,110
10272,note_on,98,0,7,,,,,,,,6,,,76,110
10272,note_on,2,0,3,,,,,,,,2,,,76,110
10272,note_on,2,0,1,,,,,,,,0,,,76,110
10318,note_on,46,0,5,,,,,,,,4,,,71,0
10320,note_on,2,0,5,,,,,,,,4,,,76,110
10366,note_on,94,0,12,,,,,,,,12,,,52,0
10366,note_on,94,0,1,,,,,,,,0,,,76,0
10366,note_on,94,0,7,,,,,,,,6,,,76,0
10366,note_on,94,0,4,,,,,,,,3,,,52,0
10366,note_on,94,0,6,,,,,,,,5,,,56,0
10366,note_on,94,0,9,,,,,,,,8,,,76,0
10366,note_on,46,0,5,,,,,,,,4,,,76,0
10366,note_on,94,0,10,,,,,,,,10,,,76,0
10366,note_on,94,0,8,,,,,,,,7,,,52,0
10366,note_on,94,0,2,,,,,,,,1,,,68,0
10366,note_on,94,0,3,,,,,,,,2,,,76,0
10366,note_on,94,0,11,,,,,,,,11,,,56,0
10368,note_on,2,0,5,,,,,,,,4,,,77,110
10368,note_on,2,0,12,,,,,,,,12,,,45,110
10368,note_on,2,0,10,,,,,,,,10,,,74,110
10368,note_on,2,0,6,,,,,,,,5,,,52,110
10368,note_on,2,0,2,,,,,,,,1,,,69,110
10368,note_on,2,0,9,,,,,,,,8,,,77,110
10368,note_on,2,0,3,,,,,,,,2,,,77,110
10368,note_on,2,0,4,,,,,,,,3,,,45,110
10368,note_on,2,0,7,,,,,,,,6,,,74,110
10368,note_on,2,0,8,,,,,,,,7,,,45,110
10368,note_on,2,0,11,,,,,,,,11,,,52,110
10378,note_on,10,0,5,,,,,,,,4,,,77,0
10380,note_on,2,0,5,,,,,,,,4,,,76,110
10390,note_on,22,0,9,,,,,,,,8,,,77,0
10390,note_on,22,0,10,,,,,,,,10,,,74,0
10390,note_on,22,0,7,,,,,,,,6,,,74,0
10390,note_on,22,0,3,,,,,,,,2,,,77,0
10390,note_on,10,0,5,,,,,,,,4,,,76,0
10392,note_on,2,0,10,,,,,,,,10,,,72,110
10392,note_on,2,0,7,,,,,,,,6,,,72,110
10392,note_on,2,0,5,,,,,,,,4,,,77,110
10392,note_on,2,0,9,,,,,,,,8,,,76,110
10392,note_on,2,0,3,,,,,,,,2,,,76,110
10402,note_on,10,0,5,,,,,,,,4,,,77,0
10404,note_on,2,0,5,,,,,,,,4,,,76,110
10414,note_on,22,0,10,,,,,,,,10,,,72,0
10414,note_on,10,0,5,,,,,,,,4,,,76,0
10414,note_on,22,0,9,,,,,,,,8,,,76,0
10414,note_on,22,0,7,,,,,,,,6,,,72,0
10414,note_on,22,0,3,,,,,,,,2,,,76,0
10416,note_on,2,0,9,,,,,,,,8,,,77,110
10416,note_on,2,0,3,,,,,,,,2,,,77,110
10416,note_on,2,0,7,,,,,,,,6,,,74,110
10416,note_on,2,0,10,,,,,,,,10,,,74,110
10416,note_on,2,0,5,,,,,,,,4,,,74,110
10438,note_on,22,0,3,,,,,,,,2,,,77,0
10438,note_on,22,0,10,,,,,,,,10,,,74,0
10438,note_on,22,0,9,,,,,,,,8,,,77,0
10438,note_on,22,0,7,,,,,,,,6,,,74,0
10440,note_on,2,0,10,,,,,,,,10,,,72,110
10440,note_on,2,0,9,,,,,,,,8,,,76,110
10440,note_on,2,0,3,,,,,,,,2,,,76,110
10440,note_on,2,0,7,,,,,,,,6,,,72,110
10462,note_on,94,0,4,,,,,,,,3,,,45,0
10462,note_on,94,0,6,,,,,,,,5,,,52,0
10462,note_on,94,0,2,,,,,,,,1,,,69,0
10462,note_on,22,0,7,,,,,,,,6,,,72,0
10462,note_on,22,0,10,,,,,,,,10,,,72,0
10462,note_on,46,0,5,,,,,,,,4,,,74,0
10462,note_on,22,0,9,,,,,,,,8,,,76,0
10462,note_on,94,0,11,,,,,,,,11,,,52,0
10462,note_on,22,0,3,,,,,,,,2,,,76,0
10464,note_on,2,0,10,,,,,,,,10,,,69,110
10464,note_on,2,0,4,,,,,,,,3,,,57,110
10464,note_on,98,0,1,,,,,,,,0,,,76,110
10464,note_on,2,0,2,,,,,,,,1,,,64,110
10464,note_on,2,0,9,,,,,,,,8,,,72,110
10464,note_on,2,0,11,,,,,,,,11,,,64,110
10464,note_on,2,0,5,,,,,,,,4,,,76,110
10464,note_on,2,0,7,,,,,,,,6,,,69,110
10464,note_on,2,0,3,,,,,,,,2,,,72,110
10464,note_on,2,0,6,,,,,,,,5,,,60,110
10510,note_on,46,0,3,,,,,,,,2,,,72,0
10510,note_on,46,0,7,,,,,,,,6,,,69,0
10510,note_on,46,0,9,,,,,,,,8,,,72,0
10510,note_on,46,0,10,,,,,,,,10,,,69,0
10512,note_on,2,0,7,,,,,,,,6,,,71,110
10512,note_on,2,0,3,,,,,,,,2,,,74,110
10512,note_on,2,0,10,,,,,,,,10,,,71,110
10512,note_on,2,0,9,,,,,,,,8,,,74,110
10528,note_on,160,0,8,,,,,,,,7,,,45,0
10528,note_on,160,0,12,,,,,,,,12,,,45,0
10558,note_on,94,0,6,,,,,,,,5,,,60,0
10558,note_on,94,0,11,,,,,,,,11,,,64,0
10558,note_on,94,0,2,,,,,,,,1,,,64,0
10558,note_on,46,0,9,,,,,,,,8,,,74,0
10558,note_on,46,0,7,,,,,,,,6,,,71,0
10558,note_on,46,0,10,,,,,,,,10,,,71,0
10558,note_on,94,0,4,,,,,,,,3,,,57,0
10558,note_on,94,0,1,,,,,,,,0,,,76,0
10558,note_on,46,0,3,,,,,,,,2,,,74,0
10558,note_on,94,0,5,,,,,,,,4,,,76,0
10560,note_on,2,0,3,,,,,,,,2,,,76,110
10560,note_on,2,0,10,,,,,,,,10,,,72,110
10560,note_on,2,0,11,,,,,,,,11,,,60,110
10560,note_on,2,0,4,,,,,,,,3,,,45,110
10560,note_on,2,0,2,,,,,,,,1,,,60,110
10560,note_on,2,0,1,,,,,,,,0,,,81,110
10560,note_on,2,0,7,,,,,,,,6,,,72,110
10560,note_on,2,0,6,,,,,,,,5,,,57,110
10560,note_on,2,0,9,,,,,,,,8,,,76,110
10654,note_on,94,0,10,,,,,,,,10,,,72,0
10654,note_on,94,0,7,,,,,,,,6,,,72,0
10654,note_on,94,0,3,,,,,,,,2,,,76,0
10654,note_on,94,0,11,,,,,,,,11,,,60,0
10654,note_on,94,0,9,,,,,,,,8,,,76,0
10654,note_on,94,0,2,,,,,,,,1,,,60,0
10656,note_on,2,0,2,,,,,,,,1,,,57,110
10656,note_on,2,0,3,,,,,,,,2,,,76,110
10656,note_on,2,0,9,,,,,,,,8,,,76,110
10656,note_on,128,0,8,,,,,,,,7,,,57,110
10656,note_on,2,0,10,,,,,,,,10,,,72,110
10656,note_on,2,0,11,,,,,,,,11,,,57,110
10656,note_on,98,0,5,,,,,,,,4,,,76,110
10656,note_on,2,0,7,,,,,,,,6,,,72,110
10720,note_on,160,0,1,,,,,,,,0,,,81,0
10720,note_on,160,0,4,,,,,,,,3,,,45,0
10720,note_on,160,0,6,,,,,,,,5,,,57,0
10750,note_on,94,0,9,,,,,,,,8,,,76,0
10750,note_on,94,0,11,,,,,,,,11,,,57,0
10750,note_on,94,0,7,,,,,,,,6,,,72,0
10750,note_on,94,0,5,,,,,,,,4,,,76,0
10750,note_on,94,0,2,,,,,,,,1,,,57,0
10750,note_on,94,0,3,,,,,,,,2,,,76,0
10750,note_on,94,0,10,,,,,,,,10,,,72,0
10750,note_on,94,0,8,,,,,,,,7,,,57,0
10752,note_on,2,0,7,,,,,,,,6,,,74,110
10752,note_on,2,0,3,,,,,,,,2,,,77,110
10752,note_on,2,0,5,,,,,,,,4,,,81,110
10752,note_on,224,0,12,,,,,,,,12,,,45,110
10752,note_on,2,0,11,,,,,,,,11,,,52,110
10752,note_on,2,0,8,,,,,,,,7,,,45,110
10752,note_on,2,0,9,,,,,,,,8,,,77,110
10752,note_on,2,0,2,,,,,,,,1,,,60,110
10752,note_on,2,0,10,,,,,,,,10,,,74,110
10774,note_on,22,0,7,,,,,,,,6,,,74,0
10774,note_on,22,0,3,,,,,,,,2,,,77,0
10774,note_on,22,0,9,,,,,,,,8,,,77,0
10774,note_on,22,0,10,,,,,,,,10,,,74,0
10776,note_on,2,0,10,,,,,,,,10,,,72,110
10776,note_on,2,0,7,,,,,,,,6,,,72,110
10776,note_on,2,0,3,,,,,,,,2,,,76,110
10776,note_on,2,0,9,,,,,,,,8,,,76,110
10798,note_on,22,0,10,,,,,,,,10,,,72,0
10798,note_on,22,0,7,,,,,,,,6,,,72,0
10798,note_on,22,0,3,,,,,,,,2,,,76,0
10798,note_on,22,0,9,,,,,,,,8,,,76,0
10800,note_on,2,0,10,,,,,,,,10,,,74,110
10800,note_on,2,0,7,,,,,,,,6,,,74,110
10800,note_on,2,0,9,,,,,,,,8,,,77,110
10800,note_on,2,0,3,,,,,,,,2,,,77,110
10822,note_on,22,0,9,,,,,,,,8,,,77,0
10822,note_on,22,0,7,,,,,,,,6,,,74,0
10822,note_on,22,0,3,,,,,,,,2,,,77,0
10822,note_on,22,0,10,,,,,,,,10,,,74,0
10824,note_on,2,0,10,,,,,,,,10,,,72,110
10824,note_on,2,0,3,,,,,,,,2,,,76,110
10824,note_on,2,0,7,,,,,,,,6,,,72,110
10824,note_on,2,0,9,,,,,,,,8,,,76,110
10846,note_on,22,0,3,,,,,,,,2,,,76,0
10846,note_on,22,0,10,,,,,,,,10,,,72,0
10846,note_on,22,0,9,,,,,,,,8,,,76,0
10846,note_on,22,0,7,,,,,,,,6,,,72,0
10846,note_on,94,0,2,,,,,,,,1,,,60,0
10846,note_on,94,0,11,,,,,,,,11,,,52,0
10848,note_on,128,0,4,,,,,,,,3,,,57,110
10848,note_on,2,0,9,,,,,,,,8,,,72,110
10848,note_on,128,0,6,,,,,,,,5,,,60,110
10848,note_on,2,0,3,,,,,,,,2,,,72,110
10848,note_on,2,0,2,,,,,,,,1,,,64,110
10848,note_on,2,0,11,,,,,,,,11,,,64,110
10848,note_on,2,0,7,,,,,,,,6,,,69,110
10848,note_on,2,0,10,,,,,,,,10,,,69,110
10848,note_on,128,0,1,,,,,,,,0,,,76,110
10894,note_on,46,0,7,,,,,,,,6,,,69,0
10894,note_on,46,0,9,,,,,,,,8,,,72,0
10894,note_on,46,0,10,,,,,,,,10,,,69,0
10894,note_on,46,0,3,,,,,,,,2,,,72,0
10896,note_on,2,0,10,,,,,,,,10,,,71,110
10896,note_on,2,0,7,,,,,,,,6,,,71,110
10896,note_on,2,0,3,,,,,,,,2,,,74,110
10896,note_on,2,0,9,,,,,,,,8,,,74,110
10912,note_on,160,0,5,,,,,,,,4,,,81,0
10912,note_on,160,0,8,,,,,,,,7,,,45,0
10912,note_on,160,0,12,,,,,,,,12,,,45,0
10942,note_on,94,0,6,,,,,,,,5,,,60,0
10942,note_on,46,0,7,,,,,,,,6,,,71,0
10942,note_on,46,0,3,,,,,,,,2,,,74,0
10942,note_on,94,0,4,,,,,,,,3,,,57,0
10942,note_on,94,0,2,,,,,,,,1,,,64,0
10942,note_on,94,0,11,,,,,,,,11,,,64,0
10942,note_on,46,0,10,,,,,,,,10,,,71,0
10942,note_on,46,0,9,,,,,,,,8,,,74,0
10942,note_on,94,0,1,,,,,,,,0,,,76,0
10944,note_on,2,0,3,,,,,,,,2,,,76,110
10944,note_on,2,0,11,,,,,,,,11,,,60,110
10944,note_on,2,0,4,,,,,,,,3,,,45,110
10944,note_on,2,0,7,,,,,,,,6,,,72,110
10944,note_on,2,0,10,,,,,,,,10,,,72,110
10944,note_on,2,0,9,,,,,,,,8,,,76,110
10944,note_on,2,0,2,,,,,,,,1,,,60,110
10944,note_on,2,0,6,,,,,,,,5,,,57,110
10944,note_on,2,0,1,,,,,,,,0,,,81,110
11038,note_on,94,0,7,,,,,,,,6,,,72,0
11038,note_on,94,0,10,,,,,,,,10,,,72,0
11038,note_on,94,0,2,,,,,,,,1,,,60,0
11038,note_on,94,0,11,,,,,,,,11,,,60,0
11038,note_on,94,0,3,,,,,,,,2,,,76,0
11038,note_on,94,0,9,,,,,,,,8,,,76,0
11040,note_on,2,0,3,,,,,,,,2,,,76,110
11040,note_on,2,0,2,,,,,,,,1,,,57,110
11040,note_on,128,0,8,,,,,,,,7,,,57,110
11040,note_on,2,0,10,,,,,,,,10,,,72,110
11040,note_on,2,0,9,,,,,,,,8,,,76,110
11040,note_on,2,0,7,,,,,,,,6,,,72,110
11040,note_on,2,0,11,,,,,,,,11,,,57,110
11040,note_on,128,0,5,,,,,,,,4,,,76,110
11086,note_on,46,0,2,,,,,,,,1,,,57,0
11088,note_on,2,0,2,,,,,,,,1,,,59,110
11104,note_on,160,0,1,,,,,,,,0,,,81,0
11104,note_on,160,0,6,,,,,,,,5,,,57,0
11104,note_on,160,0,4,,,,,,,,3,,,45,0
11134,note_on,94,0,9,,,,,,,,8,,,76,0
11134,note_on,94,0,10,,,,,,,,10,,,72,0
11134,note_on,46,0,2,,,,,,,,1,,,59,0
11134,note_on,94,0,8,,,,,,,,7,,,57,0
11134,note_on,94,0,5,,,,,,,,4,,,76,0
11134,note_on,94,0,11,,,,,,,,11,,,57,0
11134,note_on,94,0,3,,,,,,,,2,,,76,0
11134,note_on,94,0,7,,,,,,,,6,,,72,0
11136,note_on,2,0,3,,,,,,,,2,,,76,110
11136,note_on,2,0,11,,,,,,,,11,,,52,110
11136,note_on,224,0,12,,,,,,,,12,,,45,110
11136,note_on,2,0,5,,,,,,,,4,,,81,110
11136,note_on,2,0,8,,,,,,,,7,,,45,110
11136,note_on,2,0,2,,,,,,,,1,,,60,110
11136,note_on,2,0,7,,,,,,,,6,,,72,110
11136,note_on,2,0,9,,,,,,,,8,,,76,110
11136,note_on,2,0,10,,,,,,,,10,,,72,110
11182,note_on,46,0,2,,,,,,,,1,,,60,0
11184,note_on,2,0,2,,,,,,,,1,,,62,110
11230,note_on,94,0,7,,,,,,,,6,,,72,0
11230,note_on,46,0,2,,,,,,,,1,,,62,0
11230,note_on,94,0,11,,,,,,,,11,,,52,0
11230,note_on,94,0,3,,,,,,,,2,,,76,0
11230,note_on,94,0,12,,,,,,,,12,,,45,0
11230,note_on,94,0,10,,,,,,,,10,,,72,0
11230,note_on,94,0,9,,,,,,,,8,,,76,0
11230,note_on,94,0,8,,,,,,,,7,,,45,0
11232,note_on,2,0,7,,,,,,,,6,,,72,110
11232,note_on,2,0,11,,,,,,,,11,,,57,110
11232,note_on,2,0,12,,,,,,,,12,,,57,110
11232,note_on,128,0,4,,,,,,,,3,,,57,110
11232,note_on,2,0,10,,,,,,,,10,,,72,110
11232,note_on,2,0,3,,,,,,,,2,,,76,110
11232,note_on,128,0,1,,,,,,,,0,,,76,110
11232,note_on,128,0,6,,,,,,,,5,,,60,110
11232,note_on,2,0,8,,,,,,,,7,,,57,110
11232,note_on,2,0,9,,,,,,,,8,,,76,110
11232,note_on,2,0,2,,,,,,,,1,,,64,110
11278,note_on,46,0,2,,,,,,,,1,,,64,0
11278,note_on,46,0,12,,,,,,,,12,,,57,0
11278,note_on,46,0,8,,,,,,,,7,,,57,0
11278,note_on,46,0,4,,,,,,,,3,,,57,0
11280,note_on,2,0,2,,,,,,,,1,,,62,110
11280,note_on,2,0,12,,,,,,,,12,,,56,110
11280,note_on,2,0,4,,,,,,,,3,,,56,110
11280,note_on,2,0,8,,,,,,,,7,,,56,110
11296,note_on,160,0,5,,,,,,,,4,,,81,0
11326,note_on,46,0,8,,,,,,,,7,,,56,0
11326,note_on,46,0,2,,,,,,,,1,,,62,0
11326,note_on,46,0,4,,,,,,,,3,,,56,0
11326,note_on,94,0,11,,,,,,,,11,,,57,0
11326,note_on,94,0,1,,,,,,,,0,,,76,0
11326,note_on,94,0,6,,,,,,,,5,,,60,0
11326,note_on,94,0,10,,,,,,,,10,,,72,0
11326,note_on,46,0,12,,,,,,,,12,,,56,0
11326,note_on,94,0,3,,,,,,,,2,,,76,0
11326,note_on,94,0,7,,,,,,,,6,,,72,0
11326,note_on,94,0,9,,,,,,,,8,,,76,0
11328,note_on,2,0,11,,,,,,,,11,,,60,110
11328,note_on,2,0,6,,,,,,,,5,,,57,110
11328,note_on,2,0,8,,,,,,,,7,,,57,110
11328,note_on,2,0,12,,,,,,,,12,,,57,110
11328,note_on,2,0,10,,,,,,,,10,,,74,110
11328,note_on,2,0,7,,,,,,,,6,,,74,110
11328,note_on,2,0,2,,,,,,,,1,,,60,110
11328,note_on,2,0,9,,,,,,,,8,,,77,110
11328,note_on,2,0,4,,,,,,,,3,,,57,110
11328,note_on,2,0,1,,,,,,,,0,,,81,110
11328,note_on,2,0,3,,,,,,,,2,,,77,110
11350,note_on,22,0,9,,,,,,,,8,,,77,0
11350,note_on,22,0,7,,,,,,,,6,,,74,0
11350,note_on,22,0,10,,,,,,,,10,,,74,0
11350,note_on,22,0,3,,,,,,,,2,,,77,0
11352,note_on,2,0,3,,,,,,,,2,,,76,110
11352,note_on,2,0,10,,,,,,,,10,,,72,110
11352,note_on,2,0,9,,,,,,,,8,,,76,110
11352,note_on,2,0,7,,,,,,,,6,,,72,110
11374,note_on,46,0,2,,,,,,,,1,,,60,0
11374,note_on,22,0,3,,,,,,,,2,,,76,0
11374,note_on,46,0,1,,,,,,,,0,,,81,0
11374,note_on,22,0,7,,,,,,,,6,,,72,0
11374,note_on,22,0,9,,,,,,,,8,,,76,0
11374,note_on,22,0,10,,,,,,,,10,,,72,0
11376,note_on,80,0,5,,,,,,,,4,,,69,110
11376,note_on,2,0,9,,,,,,,,8,,,77,110
11376,note_on,2,0,2,,,,,,,,1,,,64,110
11376,note_on,2,0,3,,,,,,,,2,,,77,110
11376,note_on,2,0,10,,,,,,,,10,,,74,110
11376,note_on,2,0,1,,,,,,,,0,,,72,110
11376,note_on,2,0,7,,,,,,,,6,,,74,110
11398,note_on,22,0,7,,,,,,,,6,,,74,0
11398,note_on,22,0,10,,,,,,,,10,,,74,0
11398,note_on,22,0,3,,,,,,,,2,,,77,0
11398,note_on,22,0,9,,,,,,,,8,,,77,0
11400,note_on,2,0,10,,,,,,,,10,,,72,110
11400,note_on,2,0,9,,,,,,,,8,,,76,110
11400,note_on,2,0,3,,,,,,,,2,,,76,110
11400,note_on,2,0,7,,,,,,,,6,,,72,110
11422,note_on,46,0,5,,,,,,,,4,,,69,0
11422,note_on,94,0,6,,,,,,,,5,,,57,0
11422,note_on,46,0,1,,,,,,,,0,,,72,0
11422,note_on,94,0,4,,,,,,,,3,,,57,0
11422,note_on,94,0,8,,,,,,,,7,,,57,0
11422,note_on,22,0,7,,,,,,,,6,,,72,0
11422,note_on,46,0,2,,,,,,,,1,,,64,0
11422,note_on,22,0,3,,,,,,,,2,,,76,0
11422,note_on,22,0,9,,,,,,,,8,,,76,0
11422,note_on,22,0,10,,,,,,,,10,,,72,0
11422,note_on,94,0,11,,,,,,,,11,,,60,0
11422,note_on,94,0,12,,,,,,,,12,,,57,0
11424,note_on,2,0,6,,,,,,,,5,,,52,110
11424,note_on,2,0,7,,,,,,,,6,,,71,110
11424,note_on,2,0,2,,,,,,,,1,,,65,110
11424,note_on,2,0,1,,,,,,,,0,,,74,110
11424,note_on,2,0,9,,,,,,,,8,,,74,110
11424,note_on,2,0,10,,,,,,,,10,,,71,110
11424,note_on,2,0,8,,,,,,,,7,,,45,110
11424,note_on,2,0,4,,,,,,,,3,,,45,110
11424,note_on,2,0,3,,,,,,,,2,,,74,110
11424,note_on,2,0,11,,,,,,,,11,,,64,110
11424,note_on,2,0,12,,,,,,,,12,,,45,110
11424,note_on,2,0,5,,,,,,,,4,,,71,110
11470,note_on,46,0,2,,,,,,,,1,,,65,0
11470,note_on,46,0,10,,,,,,,,10,,,71,0
11470,note_on,46,0,7,,,,,,,,6,,,71,0
11470,note_on,46,0,9,,,,,,,,8,,,74,0
11470,note_on,46,0,3,,,,,,,,2,,,74,0
11470,note_on,46,0,5,,,,,,,,4,,,71,0
11470,note_on,46,0,1,,,,,,,,0,,,74,0
11472,note_on,2,0,1,,,,,,,,0,,,76,110
11472,note_on,2,0,10,,,,,,,,10,,,69,110
11472,note_on,2,0,7,,,,,,,,6,,,69,110
11472,note_on,2,0,9,,,,,,,,8,,,72,110
11472,note_on,2,0,2,,,,,,,,1,,,64,110
11472,note_on,2,0,3,,,,,,,,2,,,72,110
11472,note_on,2,0,5,,,,,,,,4,,,72,110
11518,note_on,94,0,12,,,,,,,,12,,,45,0
11518,note_on,94,0,8,,,,,,,,7,,,45,0
11518,note_on,46,0,10,,,,,,,,10,,,69,0
11518,note_on,46,0,7,,,,,,,,6,,,69,0
11518,note_on,46,0,5,,,,,,,,4,,,72,0
11518,note_on,46,0,9,,,,,,,,8,,,72,0
11518,note_on,46,0,1,,,,,,,,0,,,76,0
11518,note_on,46,0,3,,,,,,,,2,,,72,0
11518,note_on,94,0,11,,,,,,,,11,,,64,0
11518,note_on,46,0,2,,,,,,,,1,,,64,0
11518,note_on,94,0,6,,,,,,,,5,,,52,0
11518,note_on,94,0,4,,,,,,,,3,,,45,0
11520,note_on,2,0,12,,,,,,,,12,,,52,110
11520,note_on,2,0,6,,,,,,,,5,,,64,110
11520,note_on,2,0,8,,,,,,,,7,,,52,110
11520,note_on,2,0,1,,,,,,,,0,,,71,110
11520,note_on,2,0,4,,,,,,,,3,,,52,110
11520,note_on,2,0,10,,,,,,,,10,,,68,110
11520,note_on,2,0,7,,,,,,,,6,,,68,110
11520,note_on,2,0,11,,,,,,,,11,,,64,110
11520,note_on,2,0,3,,,,,,,,2,,,71,110
11520,note_on,2,0,2,,,,,,,,1,,,52,110
11520,note_on,2,0,5,,,,,,,,4,,,68,110
11520,note_on,2,0,9,,,,,,,,8,,,71,110
11566,note_on,46,0,2,,,,,,,,1,,,52,0
11568,note_on,2,0,2,,,,,,,,1,,,64,110
11614,note_on,94,0,9,,,,,,,,8,,,71,0
11614,note_on,46,0,2,,,,,,,,1,,,64,0
11614,note_on,94,0,8,,,,,,,,7,,,52,0
11614,note_on,94,0,1,,,,,,,,0,,,71,0
11614,note_on,94,0,3,,,,,,,,2,,,71,0
11616,note_on,2,0,9,,,,,,,,8,,,64,110
11616,note_on,2,0,2,,,,,,,,1,,,62,110
11616,note_on,2,0,1,,,,,,,,0,,,64,110
11616,note_on,2,0,8,,,,,,,,7,,,54,110
11616,note_on,2,0,3,,,,,,,,2,,,64,110
11662,note_on,46,0,2,,,,,,,,1,,,62,0
11664,note_on,2,0,2,,,,,,,,1,,,60,110
11680,note_on,160,0,5,,,,,,,,4,,,68,0
11680,note_on,160,0,11,,,,,,,,11,,,64,0
11680,note_on,160,0,10,,,,,,,,10,,,68,0
11680,note_on,160,0,7,,,,,,,,6,,,68,0
11680,note_on,160,0,6,,,,,,,,5,,,64,0
11680,note_on,160,0,12,,,,,,,,12,,,52,0
11680,note_on,160,0,4,,,,,,,,3,,,52,0
11710,note_on,94,0,1,,,,,,,,0,,,64,0
11710,note_on,46,0,2,,,,,,,,1,,,60,0
11710,note_on,94,0,9,,,,,,,,8,,,64,0
11710,note_on,94,0,8,,,,,,,,7,,,54,0
11710,note_on,94,0,3,,,,,,,,2,,,64,0
11712,note_on,2,0,8,,,,,,,,7,,,56,110
11712,note_on,2,0,2,,,,,,,,1,,,59,110
11758,note_on,46,0,2,,,,,,,,1,,,59,0
11760,note_on,2,0,2,,,,,,,,1,,,62,110
11760,note_on,50,0,1,,,,,,,,0,,,68,110
11760,note_on,80,0,7,,,,,,,,6,,,71,110
11806,note_on,46,0,1,,,,,,,,0,,,68,0
11806,note_on,46,0,7,,,,,,,,6,,,71,0
11806,note_on,94,0,8,,,,,,,,7,,,56,0
11806,note_on,46,0,2,,,,,,,,1,,,62,0
11808,note_on,2,0,1,,,,,,,,0,,,69,110
11808,note_on,2,0,2,,,,,,,,1,,,60,110
11808,note_on,2,0,7,,,,,,,,6,,,72,110
11808,note_on,2,0,8,,,,,,,,7,,,52,110
11854,note_on,46,0,1,,,,,,,,0,,,69,0
11854,note_on,46,0,2,,,,,,,,1,,,60,0
11854,note_on,46,0,7,,,,,,,,6,,,72,0
11856,note_on,2,0,7,,,,,,,,6,,,74,110
11856,note_on,2,0,1,,,,,,,,0,,,71,110
11856,note_on,2,0,2,,,,,,,,1,,,59,110
11902,note_on,46,0,2,,,,,,,,1,,,59,0
11902,note_on,46,0,7,,,,,,,,6,,,74,0
11902,note_on,46,0,1,,,,,,,,0,,,71,0
11902,note_on,94,0,8,,,,,,,,7,,,52,0
11904,note_on,2,0,2,,,,,,,,1,,,57,110
11904,note_on,2,0,1,,,,,,,,0,,,72,110
11904,note_on,2,0,8,,,,,,,,7,,,45,110
11904,note_on,2,0,7,,,,,,,,6,,,72,110
11950,note_on,46,0,1,,,,,,,,0,,,72,0
11950,note_on,46,0,7,,,,,,,,6,,,72,0
11952,note_on,2,0,7,,,,,,,,6,,,71,110
11952,note_on,2,0,1,,,,,,,,0,,,74,110
11998,note_on,46,0,7,,,,,,,,6,,,71,0
11998,note_on,94,0,8,,,,,,,,7,,,45,0
11998,note_on,46,0,1,,,,,,,,0,,,74,0
12000,note_on,2,0,1,,,,,,,,0,,,76,110
12000,note_on,2,0,7,,,,,,,,6,,,69,110
12000,note_on,2,0,8,,,,,,,,7,,,57,110
12046,note_on,46,0,7,,,,,,,,6,,,69,0
12048,note_on,2,0,7,,,,,,,,6,,,72,110
12064,note_on,160,0,2,,,,,,,,1,,,57,0
12094,note_on,94,0,1,,,,,,,,0,,,76,0
12094,note_on,46,0,7,,,,,,,,6,,,72,0
12094,note_on,94,0,8,,,,,,,,7,,,57,0
12096,note_on,2,0,7,,,,,,,,6,,,76,110
12096,note_on,2,0,8,,,,,,,,7,,,56,110
12142,note_on,46,0,7,,,,,,,,6,,,76,0
12144,note_on,2,0,7,,,,,,,,6,,,71,110
12190,note_on,94,0,8,,,,,,,,7,,,56,0
12190,note_on,46,0,7,,,,,,,,6,,,71,0
12192,note_on,2,0,8,,,,,,,,7,,,52,110
12192,note_on,2,0,7,,,,,,,,6,,,72,110
12238,note_on,46,0,7,,,,,,,,6,,,72,0
12240,note_on,2,0,7,,,,,,,,6,,,74,110
12286,note_on,94,0,8,,,,,,,,7,,,52,0
12286,note_on,46,0,7,,,,,,,,6,,,74,0
12288,note_on,2,0,7,,,,,,,,6,,,72,110
12288,note_on,2,0,8,,,,,,,,7,,,45,110
12334,note_on,46,0,7,,,,,,,,6,,,72,0
12336,note_on,2,0,7,,,,,,,,6,,,71,110
12382,note_on,46,0,7,,,,,,,,6,,,71,0
12382,note_on,94,0,8,,,,,,,,7,,,45,0
12384,note_on,2,0,8,,,,,,,,7,,,57,110
12384,note_on,2,0,7,,,,,,,,6,,,69,110
12430,note_on,46,0,7,,,,,,,,6,,,69,0
12432,note_on,2,0,7,,,,,,,,6,,,72,110
12478,note_on,46,0,7,,,,,,,,6,,,72,0
12478,note_on,94,0,8,,,,,,,,7,,,57,0
12480,note_on,2,0,8,,,,,,,,7,,,56,110
12480,note_on,2,0,7,,,,,,,,6,,,76,110
12526,note_on,46,0,7,,,,,,,,6,,,76,0
12528,note_on,2,0,7,,,,,,,,6,,,71,110
12574,note_on,46,0,7,,,,,,,,6,,,71,0
12574,note_on,94,0,8,,,,,,,,7,,,56,0
12576,note_on,2,0,8,,,,,,,,7,,,52,110
12576,note_on,2,0,7,,,,,,,,6,,,72,110
12622,note_on,46,0,7,,,,,,,,6,,,72,0
12624,note_on,2,0,7,,,,,,,,6,,,74,110
12670,note_on,46,0,7,,,,,,,,6,,,74,0
12670,note_on,94,0,8,,,,,,,,7,,,52,0
12672,note_on,2,0,7,,,,,,,,6,,,72,110
12672,note_on,2,0,8,,,,,,,,7,,,45,110
12718,note_on,46,0,7,,,,,,,,6,,,72,0
12720,note_on,2,0,7,,,,,,,,6,,,71,110
12766,note_on,46,0,7,,,,,,,,6,,,71,0
12766,note_on,94,0,8,,,,,,,,7,,,45,0
12768,note_on,2,0,7,,,,,,,,6,,,69,110
12768,note_on,2,0,8,,,,,,,,7,,,57,110
12814,note_on,46,0,7,,,,,,,,6,,,69,0
12816,note_on,2,0,7,,,,,,,,6,,,72,110
12862,note_on,46,0,7,,,,,,,,6,,,72,0
12862,note_on,94,0,8,,,,,,,,7,,,57,0
12864,note_on,2,0,7,,,,,,,,6,,,76,110
12864,note_on,2,0,8,,,,,,,,7,,,56,110
12910,note_on,46,0,7,,,,,,,,6,,,76,0
12912,note_on,2,0,7,,,,,,,,6,,,71,110
12958,note_on,94,0,8,,,,,,,,7,,,56,0
12958,note_on,46,0,7,,,,,,,,6,,,71,0
12960,note_on,2,0,7,,,,,,,,6,,,72,110
12960,note_on,2,0,8,,,,,,,,7,,,52,110
13006,note_on,46,0,7,,,,,,,,6,,,72,0
13008,note_on,2,0,7,,,,,,,,6,,,74,110
13054,note_on,94,0,8,,,,,,,,7,,,52,0
13054,note_on,46,0,7,,,,,,,,6,,,74,0
13056,note_on,2,0,7,,,,,,,,6,,,72,110
13056,note_on,2,0,8,,,,,,,,7,,,45,110
13102,note_on,46,0,7,,,,,,,,6,,,72,0
13104,note_on,2,0,7,,,,,,,,6,,,69,110
13150,note_on,94,0,8,,,,,,,,7,,,45,0
13150,note_on,46,0,7,,,,,,,,6,,,69,0
13152,note_on,2,0,8,,,,,,,,7,,,57,110
13152,note_on,2,0,7,,,,,,,,6,,,72,110
13198,note_on,46,0,7,,,,,,,,6,,,72,0
13200,note_on,2,0,7,,,,,,,,6,,,76,110
13246,note_on,46,0,7,,,,,,,,6,,,76,0
13246,note_on,94,0,8,,,,,,,,7,,,57,0
13248,note_on,2,0,8,,,,,,,,7,,,60,110
13248,note_on,2,0,7,,,,,,,,6,,,81,110
13294,note_on,46,0,7,,,,,,,,6,,,81,0
13296,note_on,2,0,7,,,,,,,,6,,,69,110
13342,note_on,94,0,8,,,,,,,,7,,,60,0
13342,note_on,46,0,7,,,,,,,,6,,,69,0
13344,note_on,2,0,7,,,,,,,,6,,,72,110
13344,note_on,2,0,8,,,,,,,,7,,,57,110
13390,note_on,46,0,7,,,,,,,,6,,,72,0
13392,note_on,2,0,7,,,,,,,,6,,,76,110
13438,note_on,94,0,8,,,,,,,,7,,,57,0
13438,note_on,46,0,7,,,,,,,,6,,,76,0
13440,note_on,2,0,8,,,,,,,,7,,,45,110
13440,note_on,2,0,7,,,,,,,,6,,,81,110
13486,note_on,46,0,7,,,,,,,,6,,,81,0
13488,note_on,2,0,7,,,,,,,,6,,,69,110
13534,note_on,94,0,8,,,,,,,,7,,,45,0
13534,note_on,46,0,7,,,,,,,,6,,,69,0
13536,note_on,2,0,8,,,,,,,,7,,,57,110
13536,note_on,2,0,7,,,,,,,,6,,,72,110
13582,note_on,46,0,7,,,,,,,,6,,,72,0
13584,note_on,2,0,7,,,,,,,,6,,,76,110
13630,note_on,94,0,8,,,,,,,,7,,,57,0
13630,note_on,46,0,7,,,,,,,,6,,,76,0
13632,note_on,2,0,8,,,,,,,,7,,,60,110
13632,note_on,2,0,7,,,,,,,,6,,,81,110
13678,note_on,46,0,7,,,,,,,,6,,,81,0
13680,note_on,2,0,7,,,,,,,,6,,,79,110
13726,note_on,94,0,8,,,,,,,,7,,,60,0
13726,note_on,46,0,7,,,,,,,,6,,,79,0
13728,note_on,2,0,7,,,,,,,,6,,,77,110
13728,note_on,2,0,8,,,,,,,,7,,,57,110
13774,note_on,46,0,7,,,,,,,,6,,,77,0
13776,note_on,2,0,7,,,,,,,,6,,,76,110
13822,note_on,46,0,7,,,,,,,,6,,,76,0
13822,note_on,94,0,8,,,,,,,,7,,,57,0
13824,note_on,2,0,7,,,,,,,,6,,,77,110
13824,note_on,2,0,8,,,,,,,,7,,,50,110
13870,note_on,46,0,7,,,,,,,,6,,,77,0
13872,note_on,2,0,7,,,,,,,,6,,,74,110
13918,note_on,46,0,7,,,,,,,,6,,,74,0
13918,note_on,94,0,8,,,,,,,,7,,,50,0
13920,note_on,2,0,7,,,,,,,,6,,,72,110
13920,note_on,2,0,8,,,,,,,,7,,,62,110
13966,note_on,46,0,7,,,,,,,,6,,,72,0
13968,note_on,2,0,7,,,,,,,,6,,,74,110
14014,note_on,94,0,8,,,,,,,,7,,,62,0
14014,note_on,46,0,7,,,,,,,,6,,,74,0
14016,note_on,2,0,7,,,,,,,,6,,,79,110
14016,note_on,2,0,8,,,,,,,,7,,,59,110
14062,note_on,46,0,7,,,,,,,,6,,,79,0
14064,note_on,2,0,7,,,,,,,,6,,,77,110
14110,note_on,46,0,7,,,,,,,,6,,,77,0
14110,note_on,94,0,8,,,,,,,,7,,,59,0
14112,note_on,2,0,7,,,,,,,,6,,,76,110
14112,note_on,2,0,8,,,,,,,,7,,,55,110
14158,note_on,46,0,7,,,,,,,,6,,,76,0
14160,note_on,2,0,7,,,,,,,,6,,,74,110
14206,note_on,46,0,7,,,,,,,,6,,,74,0
14206,note_on,94,0,8,,,,,,,,7,,,55,0
14208,note_on,2,0,8,,,,,,,,7,,,48,110
14208,note_on,2,0,7,,,,,,,,6,,,76,110
14254,note_on,46,0,7,,,,,,,,6,,,76,0
14256,note_on,2,0,7,,,,,,,,6,,,72,110
14302,note_on,94,0,8,,,,,,,,7,,,48,0
14302,note_on,46,0,7,,,,,,,,6,,,72,0
14304,note_on,2,0,8,,,,,,,,7,,,60,110
14304,note_on,2,0,7,,,,,,,,6,,,71,110
14350,note_on,46,0,7,,,,,,,,6,,,71,0
14352,note_on,2,0,7,,,,,,,,6,,,72,110
14398,note_on,46,0,7,,,,,,,,6,,,72,0
14398,note_on,94,0,8,,,,,,,,7,,,60,0
14400,note_on,2,0,7,,,,,,,,6,,,77,110
14400,note_on,2,0,8,,,,,,,,7,,,57,110
14446,note_on,46,0,7,,,,,,,,6,,,77,0
14448,note_on,2,0,7,,,,,,,,6,,,76,110
14494,note_on,46,0,7,,,,,,,,6,,,76,0
14494,note_on,94,0,8,,,,,,,,7,,,57,0
14496,note_on,2,0,8,,,,,,,,7,,,53,110
14496,note_on,2,0,7,,,,,,,,6,,,74,110
14542,note_on,46,0,7,,,,,,,,6,,,74,0
14544,note_on,2,0,7,,,,,,,,6,,,72,110
14590,note_on,94,0,8,,,,,,,,7,,,53,0
14590,note_on,46,0,7,,,,,,,,6,,,72,0
14592,note_on,2,0,8,,,,,,,,7,,,47,110
14592,note_on,2,0,7,,,,,,,,6,,,74,110
14638,note_on,46,0,7,,,,,,,,6,,,74,0
14640,note_on,2,0,7,,,,,,,,6,,,71,110
14686,note_on,46,0,7,,,,,,,,6,,,71,0
14686,note_on,94,0,8,,,,,,,,7,,,47,0
14688,note_on,2,0,7,,,,,,,,6,,,69,110
14688,note_on,2,0,8,,,,,,,,7,,,59,110
14734,note_on,46,0,7,,,,,,,,6,,,69,0
14736,note_on,2,0,7,,,,,,,,6,,,71,110
14782,note_on,94,0,8,,,,,,,,7,,,59,0
14782,note_on,46,0,7,,,,,,,,6,,,71,0
14784,note_on,3104,0,10,,,,,,,,10,,,71,110
14784,note_on,2,0,8,,,,,,,,7,,,56,110
14784,note_on,2,0,7,,,,,,,,6,,,76,110
14830,note_on,46,0,7,,,,,,,,6,,,76,0
14832,note_on,2,0,7,,,,,,,,6,,,74,110
14832,note_on,2768,0,2,,,,,,,,1,,,64,110
14878,note_on,46,0,2,,,,,,,,1,,,64,0
14878,note_on,94,0,8,,,,,,,,7,,,56,0
14878,note_on,46,0,7,,,,,,,,6,,,74,0
14880,note_on,3200,0,12,,,,,,,,12,,,52,110
14880,note_on,2,0,2,,,,,,,,1,,,66,110
14880,note_on,2,0,7,,,,,,,,6,,,72,110
14880,note_on,2,0,8,,,,,,,,7,,,52,110
14926,note_on,46,0,7,,,,,,,,6,,,72,0
14926,note_on,46,0,2,,,,,,,,1,,,66,0
14928,note_on,2,0,7,,,,,,,,6,,,71,110
14928,note_on,2,0,2,,,,,,,,1,,,68,110
14944,note_on,160,0,10,,,,,,,,10,,,71,0
14974,note_on,94,0,8,,,,,,,,7,,,52,0
14974,note_on,46,0,2,,,,,,,,1,,,68,0
14974,note_on,94,0,12,,,,,,,,12,,,52,0
14974,note_on,46,0,7,,,,,,,,6,,,71,0
14976,note_on,2,0,8,,,,,,,,7,,,57,110
14976,note_on,2,0,12,,,,,,,,12,,,57,110
14976,note_on,32,0,10,,,,,,,,10,,,72,110
14976,note_on,2882,0,1,,,,,,,,0,,,81,110
14976,note_on,2,0,2,,,,,,,,1,,,69,110
14976,note_on,2,0,7,,,,,,,,6,,,74,110
14998,note_on,22,0,7,,,,,,,,6,,,74,0
15000,note_on,2,0,7,,,,,,,,6,,,72,110
15022,note_on,46,0,1,,,,,,,,0,,,81,0
15022,note_on,22,0,7,,,,,,,,6,,,72,0
15024,note_on,2,0,7,,,,,,,,6,,,74,110
15024,note_on,2,0,1,,,,,,,,0,,,76,110
15046,note_on,22,0,7,,,,,,,,6,,,74,0
15048,note_on,2,0,7,,,,,,,,6,,,72,110
15070,note_on,22,0,7,,,,,,,,6,,,72,0
15070,note_on,94,0,8,,,,,,,,7,,,57,0
15070,note_on,94,0,2,,,,,,,,1,,,69,0
15070,note_on,94,0,12,,,,,,,,12,,,57,0
15070,note_on,46,0,1,,,,,,,,0,,,76,0
15072,note_on,2,0,8,,,,,,,,7,,,45,110
15072,note_on,3392,0,6,,,,,,,,5,,,52,110
15072,note_on,2,0,2,,,,,,,,1,,,64,110
15072,note_on,2,0,7,,,,,,,,6,,,74,110
15072,note_on,2,0,1,,,,,,,,0,,,72,110
15072,note_on,2,0,12,,,,,,,,12,,,45,110
15072,note_on,3392,0,11,,,,,,,,11,,,64,110
15094,note_on,22,0,7,,,,,,,,6,,,74,0
15096,note_on,2,0,7,,,,,,,,6,,,72,110
15118,note_on,46,0,1,,,,,,,,0,,,72,0
15118,note_on,22,0,7,,,,,,,,6,,,72,0
15120,note_on,2,0,1,,,,,,,,0,,,81,110
15120,note_on,2,0,7,,,,,,,,6,,,74,110
15142,note_on,22,0,7,,,,,,,,6,,,74,0
15144,note_on,2,0,7,,,,,,,,6,,,72,110
15166,note_on,46,0,1,,,,,,,,0,,,81,0
15166,note_on,94,0,8,,,,,,,,7,,,45,0
15166,note_on,94,0,12,,,,,,,,12,,,45,0
15166,note_on,94,0,6,,,,,,,,5,,,52,0
15166,note_on,94,0,2,,,,,,,,1,,,64,0
15166,note_on,94,0,11,,,,,,,,11,,,64,0
15166,note_on,22,0,7,,,,,,,,6,,,72,0
15168,note_on,2,0,7,,,,,,,,6,,,74,110
15168,note_on,3488,0,5,,,,,,,,4,,,76,110
15168,note_on,3458,0,9,,,,,,,,8,,,76,110
15168,note_on,2,0,6,,,,,,,,5,,,57,110
15168,note_on,2,0,2,,,,,,,,1,,,60,110
15168,note_on,2,0,11,,,,,,,,11,,,60,110
15168,note_on,2,0,1,,,,,,,,0,,,81,110
15190,note_on,22,0,7,,,,,,,,6,,,74,0
15192,note_on,2,0,7,,,,,,,,6,,,72,110
15214,note_on,22,0,7,,,,,,,,6,,,72,0
15214,note_on,46,0,1,,,,,,,,0,,,81,0
15216,note_on,3536,0,4,,,,,,,,3,,,60,110
15216,note_on,2,0,1,,,,,,,,0,,,76,110
15216,note_on,2,0,7,,,,,,,,6,,,74,110
15238,note_on,22,0,7,,,,,,,,6,,,74,0
15240,note_on,2,0,7,,,,,,,,6,,,72,110
15262,note_on,46,0,1,,,,,,,,0,,,76,0
15262,note_on,94,0,2,,,,,,,,1,,,60,0
15262,note_on,94,0,11,,,,,,,,11,,,60,0
15262,note_on,46,0,4,,,,,,,,3,,,60,0
15262,note_on,22,0,7,,,,,,,,6,,,72,0
15262,note_on,94,0,6,,,,,,,,5,,,57,0
15264,note_on,2,0,7,,,,,,,,6,,,74,110
15264,note_on,2,0,2,,,,,,,,1,,,57,110
15264,note_on,2,0,1,,,,,,,,0,,,72,110
15264,note_on,98,0,12,,,,,,,,12,,,45,110
15264,note_on,2,0,6,,,,,,,,5,,,45,110
15264,note_on,2,0,4,,,,,,,,3,,,59,110
15264,note_on,98,0,8,,,,,,,,7,,,45,110
15264,note_on,2,0,11,,,,,,,,11,,,57,110
15286,note_on,22,0,7,,,,,,,,6,,,74,0
15288,note_on,2,0,7,,,,,,,,6,,,72,110
15310,note_on,22,0,7,,,,,,,,6,,,72,0
15310,note_on,46,0,4,,,,,,,,3,,,59,0
15310,note_on,46,0,1,,,,,,,,0,,,72,0
15312,note_on,2,0,1,,,,,,,,0,,,81,110
15312,note_on,2,0,7,,,,,,,,6,,,74,110
15312,note_on,2,0,4,,,,,,,,3,,,60,110
15328,note_on,160,0,9,,,,,,,,8,,,76,0
15328,note_on,160,0,5,,,,,,,,4,,,76,0
15334,note_on,22,0,7,,,,,,,,6,,,74,0
15336,note_on,2,0,7,,,,,,,,6,,,72,110
15358,note_on,46,0,4,,,,,,,,3,,,60,0
15358,note_on,46,0,1,,,,,,,,0,,,81,0
15358,note_on,94,0,6,,,,,,,,5,,,45,0
15358,note_on,94,0,8,,,,,,,,7,,,45,0
15358,note_on,94,0,2,,,,,,,,1,,,57,0
15358,note_on,22,0,7,,,,,,,,6,,,72,0
15358,note_on,94,0,11,,,,,,,,11,,,57,0
15358,note_on,94,0,12,,,,,,,,12,,,45,0
15360,note_on,3650,0,3,,,,,,,,2,,,74,110
15360,note_on,2,0,2,,,,,,,,1,,,65,110
15360,note_on,32,0,9,,,,,,,,8,,,77,110
15360,note_on,2,0,12,,,,,,,,12,,,50,110
15360,note_on,2,0,4,,,,,,,,3,,,62,110
15360,note_on,2,0,1,,,,,,,,0,,,81,110
15360,note_on,2,0,8,,,,,,,,7,,,50,110
15360,note_on,2,0,7,,,,,,,,6,,,74,110
15360,note_on,32,0,5,,,,,,,,4,,,79,110
15382,note_on,22,0,5,,,,,,,,4,,,79,0
15382,note_on,22,0,7,,,,,,,,6,,,74,0
15384,note_on,2,0,7,,,,,,,,6,,,72,110
15384,note_on,2,0,5,,,,,,,,4,,,77,110
15406,note_on,22,0,5,,,,,,,,4,,,77,0
15406,note_on,46,0,3,,,,,,,,2,,,74,0
15406,note_on,22,0,7,,,,,,,,6,,,72,0
15406,note_on,46,0,2,,,,,,,,1,,,65,0
15408,note_on,2,0,3,,,,,,,,2,,,69,110
15408,note_on,2,0,7,,,,,,,,6,,,74,110
15408,note_on,2,0,2,,,,,,,,1,,,64,110
15408,note_on,2,0,5,,,,,,,,4,,,79,110
15430,note_on,22,0,5,,,,,,,,4,,,79,0
15430,note_on,22,0,7,,,,,,,,6,,,74,0
15432,note_on,2,0,5,,,,,,,,4,,,77,110
15432,note_on,2,0,7,,,,,,,,6,,,72,110
15454,note_on,46,0,2,,,,,,,,1,,,64,0
15454,note_on,94,0,4,,,,,,,,3,,,62,0
15454,note_on,94,0,1,,,,,,,,0,,,81,0
15454,note_on,22,0,7,,,,,,,,6,,,72,0
15454,note_on,94,0,12,,,,,,,,12,,,50,0
15454,note_on,46,0,3,,,,,,,,2,,,69,0
15454,note_on,22,0,5,,,,,,,,4,,,77,0
15454,note_on,94,0,8,,,,,,,,7,,,50,0
15456,note_on,2,0,12,,,,,,,,12,,,38,110
15456,note_on,2,0,7,,,,,,,,6,,,74,110
15456,note_on,98,0,11,,,,,,,,11,,,57,110
15456,note_on,2,0,4,,,,,,,,3,,,57,110
15456,note_on,2,0,5,,,,,,,,4,,,79,110
15456,note_on,2,0,8,,,,,,,,7,,,38,110
15456,note_on,2,0,1,,,,,,,,0,,,74,110
15456,note_on,2,0,2,,,,,,,,1,,,65,110
15456,note_on,98,0,6,,,,,,,,5,,,57,110
15456,note_on,2,0,3,,,,,,,,2,,,65,110
15478,note_on,22,0,5,,,,,,,,4,,,79,0
15478,note_on,22,0,7,,,,,,,,6,,,74,0
15480,note_on,2,0,7,,,,,,,,6,,,72,110
15480,note_on,2,0,5,,,,,,,,4,,,77,110
15502,note_on,22,0,5,,,,,,,,4,,,77,0
15502,note_on,22,0,7,,,,,,,,6,,,72,0
15502,note_on,46,0,3,,,,,,,,2,,,65,0
15504,note_on,2,0,7,,,,,,,,6,,,74,110
15504,note_on,2,0,5,,,,,,,,4,,,79,110
15504,note_on,2,0,3,,,,,,,,2,,,74,110
15526,note_on,22,0,5,,,,,,,,4,,,79,0
15526,note_on,22,0,7,,,,,,,,6,,,74,0
15528,note_on,2,0,5,,,,,,,,4,,,77,110
15528,note_on,2,0,7,,,,,,,,6,,,72,110
15550,note_on,94,0,4,,,,,,,,3,,,57,0
15550,note_on,22,0,5,,,,,,,,4,,,77,0
15550,note_on,94,0,8,,,,,,,,7,,,38,0
15550,note_on,94,0,2,,,,,,,,1,,,65,0
15550,note_on,46,0,3,,,,,,,,2,,,74,0
15550,note_on,94,0,1,,,,,,,,0,,,74,0
15550,note_on,94,0,6,,,,,,,,5,,,57,0
15550,note_on,94,0,12,,,,,,,,12,,,38,0
15550,note_on,94,0,11,,,,,,,,11,,,57,0
15550,note_on,22,0,7,,,,,,,,6,,,72,0
15552,note_on,2,0,6,,,,,,,,5,,,62,110
15552,note_on,2,0,1,,,,,,,,0,,,77,110
15552,note_on,2,0,3,,,,,,,,2,,,74,110
15552,note_on,2,0,7,,,,,,,,6,,,74,110
15552,note_on,2,0,4,,,,,,,,3,,,53,110
15552,note_on,2,0,11,,,,,,,,11,,,62,110
15552,note_on,2,0,5,,,,,,,,4,,,79,110
15574,note_on,22,0,7,,,,,,,,6,,,74,0
15574,note_on,22,0,5,,,,,,,,4,,,79,0
15576,note_on,2,0,7,,,,,,,,6,,,72,110
15576,note_on,2,0,5,,,,,,,,4,,,77,110
15598,note_on,22,0,5,,,,,,,,4,,,77,0
15598,note_on,46,0,3,,,,,,,,2,,,74,0
15598,note_on,22,0,7,,,,,,,,6,,,72,0
15600,note_on,2,0,3,,,,,,,,2,,,69,110
15600,note_on,2,0,7,,,,,,,,6,,,74,110
15600,note_on,2,0,5,,,,,,,,4,,,79,110
15622,note_on,22,0,5,,,,,,,,4,,,79,0
15622,note_on,22,0,7,,,,,,,,6,,,74,0
15624,note_on,2,0,7,,,,,,,,6,,,72,110
15624,note_on,2,0,5,,,,,,,,4,,,77,110
15646,note_on,22,0,7,,,,,,,,6,,,72,0
15646,note_on,46,0,3,,,,,,,,2,,,69,0
15646,note_on,94,0,6,,,,,,,,5,,,62,0
15646,note_on,94,0,11,,,,,,,,11,,,62,0
15646,note_on,94,0,4,,,,,,,,3,,,53,0
15646,note_on,94,0,1,,,,,,,,0,,,77,0
15646,note_on,22,0,5,,,,,,,,4,,,77,0
15648,note_on,2,0,4,,,,,,,,3,,,50,110
15648,note_on,2,0,11,,,,,,,,11,,,65,110
15648,note_on,2,0,6,,,,,,,,5,,,50,110
15648,note_on,2,0,1,,,,,,,,0,,,81,110
15648,note_on,98,0,8,,,,,,,,7,,,50,110
15648,note_on,98,0,2,,,,,,,,1,,,67,110
15648,note_on,2,0,5,,,,,,,,4,,,79,110
15648,note_on,98,0,12,,,,,,,,12,,,50,110
15648,note_on,2,0,3,,,,,,,,2,,,65,110
15648,note_on,2,0,7,,,,,,,,6,,,74,110
15670,note_on,22,0,5,,,,,,,,4,,,79,0
15670,note_on,22,0,7,,,,,,,,6,,,74,0
15670,note_on,22,0,2,,,,,,,,1,,,67,0
15672,note_on,2,0,5,,,,,,,,4,,,77,110
15672,note_on,2,0,7,,,,,,,,6,,,72,110
15672,note_on,2,0,2,,,,,,,,1,,,65,110
15694,note_on,22,0,5,,,,,,,,4,,,77,0
15694,note_on,22,0,2,,,,,,,,1,,,65,0
15694,note_on,46,0,3,,,,,,,,2,,,65,0
15694,note_on,22,0,7,,,,,,,,6,,,72,0
15696,note_on,2,0,3,,,,,,,,2,,,74,110
15696,note_on,720,0,10,,,,,,,,10,,,72,0
15696,note_on,2,0,2,,,,,,,,1,,,67,110
15696,note_on,2,0,7,,,,,,,,6,,,74,110
15696,note_on,2,0,5,,,,,,,,4,,,79,110
15718,note_on,22,0,2,,,,,,,,1,,,67,0
15718,note_on,22,0,7,,,,,,,,6,,,74,0
15718,note_on,22,0,5,,,,,,,,4,,,79,0
15720,note_on,2,0,2,,,,,,,,1,,,65,110
15720,note_on,2,0,7,,,,,,,,6,,,72,110
15720,note_on,2,0,5,,,,,,,,4,,,77,110
15742,note_on,94,0,4,,,,,,,,3,,,50,0
15742,note_on,22,0,7,,,,,,,,6,,,72,0
15742,note_on,22,0,5,,,,,,,,4,,,77,0
15742,note_on,22,0,2,,,,,,,,1,,,65,0
15742,note_on,46,0,3,,,,,,,,2,,,74,0
15742,note_on,94,0,11,,,,,,,,11,,,65,0
15742,note_on,94,0,6,,,,,,,,5,,,50,0
15742,note_on,94,0,1,,,,,,,,0,,,81,0
15742,note_on,94,0,12,,,,,,,,12,,,50,0
15742,note_on,94,0,8,,,,,,,,7,,,50,0
15744,note_on,2,0,3,,,,,,,,2,,,74,110
15744,note_on,2,0,2,,,,,,,,1,,,67,110
15744,note_on,2,0,4,,,,,,,,3,,,59,110
15744,note_on,48,0,10,,,,,,,,10,,,71,110
15744,note_on,2,0,7,,,,,,,,6,,,72,110
15744,note_on,2,0,8,,,,,,,,7,,,55,110
15744,note_on,2,0,1,,,,,,,,0,,,79,110
15744,note_on,2,0,12,,,,,,,,12,,,55,110
15744,note_on,2,0,5,,,,,,,,4,,,79,110
15766,note_on,22,0,5,,,,,,,,4,,,79,0
15766,note_on,22,0,7,,,,,,,,6,,,72,0
15768,note_on,2,0,5,,,,,,,,4,,,77,110
15768,note_on,2,0,7,,,,,,,,6,,,71,110
15790,note_on,22,0,5,,,,,,,,4,,,77,0
15790,note_on,46,0,4,,,,,,,,3,,,59,0
15790,note_on,22,0,7,,,,,,,,6,,,71,0
15790,note_on,46,0,1,,,,,,,,0,,,79,0
15792,note_on,2,0,5,,,,,,,,4,,,79,110
15792,note_on,2,0,1,,,,,,,,0,,,74,110
15792,note_on,2,0,4,,,,,,,,3,,,57,110
15792,note_on,2,0,7,,,,,,,,6,,,72,110
15814,note_on,22,0,7,,,,,,,,6,,,72,0
15814,note_on,22,0,5,,,,,,,,4,,,79,0
15816,note_on,2,0,7,,,,,,,,6,,,71,110
15816,note_on,2,0,5,,,,,,,,4,,,77,110
15838,note_on,94,0,3,,,,,,,,2,,,74,0
15838,note_on,46,0,1,,,,,,,,0,,,74,0
15838,note_on,46,0,4,,,,,,,,3,,,57,0
15838,note_on,22,0,7,,,,,,,,6,,,71,0
15838,note_on,94,0,2,,,,,,,,1,,,67,0
15838,note_on,22,0,5,,,,,,,,4,,,77,0
15838,note_on,94,0,12,,,,,,,,12,,,55,0
15838,note_on,94,0,8,,,,,,,,7,,,55,0
15840,note_on,2,0,2,,,,,,,,1,,,62,110
15840,note_on,2,0,1,,,,,,,,0,,,71,110
15840,note_on,2,0,7,,,,,,,,6,,,72,110
15840,note_on,2,0,5,,,,,,,,4,,,79,110
15840,note_on,98,0,6,,,,,,,,5,,,50,110
15840,note_on,98,0,11,,,,,,,,11,,,62,110
15840,note_on,2,0,4,,,,,,,,3,,,59,110
15840,note_on,2,0,3,,,,,,,,2,,,67,110
15840,note_on,2,0,8,,,,,,,,7,,,43,110
15840,note_on,2,0,12,,,,,,,,12,,,43,110
15862,note_on,22,0,5,,,,,,,,4,,,79,0
15862,note_on,22,0,7,,,,,,,,6,,,72,0
15864,note_on,2,0,5,,,,,,,,4,,,77,110
15864,note_on,2,0,7,,,,,,,,6,,,71,110
15886,note_on,22,0,7,,,,,,,,6,,,71,0
15886,note_on,46,0,1,,,,,,,,0,,,71,0
15886,note_on,22,0,5,,,,,,,,4,,,77,0
15888,note_on,2,0,5,,,,,,,,4,,,79,110
15888,note_on,2,0,7,,,,,,,,6,,,72,110
15888,note_on,2,0,1,,,,,,,,0,,,79,110
15910,note_on,22,0,5,,,,,,,,4,,,79,0
15910,note_on,22,0,7,,,,,,,,6,,,72,0
15912,note_on,2,0,5,,,,,,,,4,,,77,110
15912,note_on,2,0,7,,,,,,,,6,,,71,110
15934,note_on,22,0,7,,,,,,,,6,,,71,0
15934,note_on,22,0,5,,,,,,,,4,,,77,0
15934,note_on,94,0,3,,,,,,,,2,,,67,0
15934,note_on,94,0,11,,,,,,,,11,,,62,0
15934,note_on,94,0,12,,,,,,,,12,,,43,0
15934,note_on,94,0,6,,,,,,,,5,,,50,0
15934,note_on,94,0,4,,,,,,,,3,,,59,0
15934,note_on,94,0,2,,,,,,,,1,,,62,0
15934,note_on,46,0,1,,,,,,,,0,,,79,0
15934,note_on,94,0,8,,,,,,,,7,,,43,0
15936,note_on,2,0,7,,,,,,,,6,,,72,110
15936,note_on,2,0,3,,,,,,,,2,,,71,110
15936,note_on,2,0,11,,,,,,,,11,,,59,110
15936,note_on,2,0,2,,,,,,,,1,,,59,110
15936,note_on,2,0,1,,,,,,,,0,,,79,110
15936,note_on,2,0,5,,,,,,,,4,,,79,110
15936,note_on,2,0,6,,,,,,,,5,,,55,110
15958,note_on,22,0,5,,,,,,,,4,,,79,0
15958,note_on,22,0,7,,,,,,,,6,,,72,0
15960,note_on,2,0,5,,,,,,,,4,,,77,110
15960,note_on,2,0,7,,,,,,,,6,,,71,110
15982,note_on,22,0,7,,,,,,,,6,,,71,0
15982,note_on,46,0,1,,,,,,,,0,,,79,0
15982,note_on,22,0,5,,,,,,,,4,,,77,0
15984,note_on,2,0,1,,,,,,,,0,,,74,110
15984,note_on,2,0,5,,,,,,,,4,,,79,110
15984,note_on,2,0,7,,,,,,,,6,,,72,110
16006,note_on,22,0,7,,,,,,,,6,,,72,0
16006,note_on,22,0,5,,,,,,,,4,,,79,0
16008,note_on,2,0,5,,,,,,,,4,,,77,110
16008,note_on,2,0,7,,,,,,,,6,,,71,110
16030,note_on,94,0,11,,,,,,,,11,,,59,0
16030,note_on,94,0,3,,,,,,,,2,,,71,0
16030,note_on,46,0,1,,,,,,,,0,,,74,0
16030,note_on,94,0,6,,,,,,,,5,,,55,0
16030,note_on,94,0,2,,,,,,,,1,,,59,0
16030,note_on,22,0,7,,,,,,,,6,,,71,0
16030,note_on,22,0,5,,,,,,,,4,,,77,0
16032,note_on,2,0,1,,,,,,,,0,,,71,110
16032,note_on,2,0,3,,,,,,,,2,,,74,110
16032,note_on,98,0,4,,,,,,,,3,,,60,110
16032,note_on,2,0,11,,,,,,,,11,,,55,110
16032,note_on,98,0,12,,,,,,,,12,,,43,110
16032,note_on,2,0,2,,,,,,,,1,,,55,110
16032,note_on,2,0,6,,,,,,,,5,,,43,110
16032,note_on,98,0,8,,,,,,,,7,,,43,110
16032,note_on,2,0,7,,,,,,,,6,,,72,110
16032,note_on,2,0,5,,,,,,,,4,,,79,110
16054,note_on,22,0,7,,,,,,,,6,,,72,0
16054,note_on,22,0,5,,,,,,,,4,,,79,0
16054,note_on,22,0,4,,,,,,,,3,,,60,0
16056,note_on,2,0,7,,,,,,,,6,,,71,110
16056,note_on,2,0,4,,,,,,,,3,,,59,110
16056,note_on,2,0,5,,,,,,,,4,,,77,110
16078,note_on,22,0,7,,,,,,,,6,,,71,0
16078,note_on,46,0,1,,,,,,,,0,,,71,0
16078,note_on,22,0,5,,,,,,,,4,,,77,0
16078,note_on,22,0,4,,,,,,,,3,,,59,0
16080,note_on,2,0,1,,,,,,,,0,,,79,110
16080,note_on,2,0,5,,,,,,,,4,,,79,110
16080,note_on,2,0,4,,,,,,,,3,,,60,110
16080,note_on,2,0,7,,,,,,,,6,,,72,110
16080,note_on,720,0,9,,,,,,,,8,,,77,0
16102,note_on,22,0,7,,,,,,,,6,,,72,0
16102,note_on,22,0,4,,,,,,,,3,,,60,0
16102,note_on,22,0,5,,,,,,,,4,,,79,0
16104,note_on,2,0,5,,,,,,,,4,,,77,110
16104,note_on,2,0,4,,,,,,,,3,,,59,110
16104,note_on,2,0,7,,,,,,,,6,,,71,110
16126,note_on,94,0,11,,,,,,,,11,,,55,0
16126,note_on,46,0,1,,,,,,,,0,,,79,0
16126,note_on,94,0,6,,,,,,,,5,,,43,0
16126,note_on,94,0,12,,,,,,,,12,,,43,0
16126,note_on,94,0,3,,,,,,,,2,,,74,0
16126,note_on,22,0,5,,,,,,,,4,,,77,0
16126,note_on,94,0,8,,,,,,,,7,,,43,0
16126,note_on,94,0,2,,,,,,,,1,,,55,0
16126,note_on,22,0,4,,,,,,,,3,,,59,0
16126,note_on,22,0,7,,,,,,,,6,,,71,0
16128,note_on,2,0,1,,,,,,,,0,,,79,110
16128,note_on,2,0,2,,,,,,,,1,,,64,110
16128,note_on,2,0,7,,,,,,,,6,,,72,110
16128,note_on,2,0,12,,,,,,,,12,,,48,110
16128,note_on,2,0,8,,,,,,,,7,,,48,110
16128,note_on,2,0,3,,,,,,,,2,,,72,110
16128,note_on,2,0,5,,,,,,,,4,,,77,110
16128,note_on,48,0,9,,,,,,,,8,,,76,110
16128,note_on,2,0,4,,,,,,,,3,,,60,110
16150,note_on,22,0,5,,,,,,,,4,,,77,0
16150,note_on,22,0,7,,,,,,,,6,,,72,0
16152,note_on,2,0,7,,,,,,,,6,,,71,110
16152,note_on,2,0,5,,,,,,,,4,,,76,110
16174,note_on,46,0,3,,,,,,,,2,,,72,0
16174,note_on,22,0,7,,,,,,,,6,,,71,0
16174,note_on,22,0,5,,,,,,,,4,,,76,0
16174,note_on,46,0,2,,,,,,,,1,,,64,0
16176,note_on,2,0,3,,,,,,,,2,,,67,110
16176,note_on,2,0,2,,,,,,,,1,,,62,110
16176,note_on,2,0,7,,,,,,,,6,,,72,110
16176,note_on,2,0,5,,,,,,,,4,,,77,110
16198,note_on,22,0,7,,,,,,,,6,,,72,0
16198,note_on,22,0,5,,,,,,,,4,,,77,0
16200,note_on,2,0,7,,,,,,,,6,,,71,110
16200,note_on,2,0,5,,,,,,,,4,,,76,110
16222,note_on,94,0,8,,,,,,,,7,,,48,0
16222,note_on,94,0,4,,,,,,,,3,,,60,0
16222,note_on,22,0,5,,,,,,,,4,,,76,0
16222,note_on,22,0,7,,,,,,,,6,,,71,0
16222,note_on,46,0,2,,,,,,,,1,,,62,0
16222,note_on,94,0,1,,,,,,,,0,,,79,0
16222,note_on,94,0,12,,,,,,,,12,,,48,0
16222,note_on,46,0,3,,,,,,,,2,,,67,0
16224,note_on,2,0,7,,,,,,,,6,,,72,110
16224,note_on,98,0,6,,,,,,,,5,,,55,110
16224,note_on,98,0,11,,,,,,,,11,,,55,110
16224,note_on,2,0,12,,,,,,,,12,,,36,110
16224,note_on,2,0,4,,,,,,,,3,,,55,110
16224,note_on,2,0,3,,,,,,,,2,,,64,110
16224,note_on,2,0,8,,,,,,,,7,,,36,110
16224,note_on,2,0,5,,,,,,,,4,,,77,110
16224,note_on,2,0,1,,,,,,,,0,,,72,110
16224,note_on,2,0,2,,,,,,,,1,,,64,110
16246,note_on,22,0,7,,,,,,,,6,,,72,0
16246,note_on,22,0,5,,,,,,,,4,,,77,0
16248,note_on,2,0,7,,,,,,,,6,,,71,110
16248,note_on,2,0,5,,,,,,,,4,,,76,110
16270,note_on,46,0,3,,,,,,,,2,,,64,0
16270,note_on,22,0,7,,,,,,,,6,,,71,0
16270,note_on,22,0,5,,,,,,,,4,,,76,0
16272,note_on,2,0,3,,,,,,,,2,,,72,110
16272,note_on,2,0,5,,,,,,,,4,,,77,110
16272,note_on,2,0,7,,,,,,,,6,,,72,110
16294,note_on,22,0,7,,,,,,,,6,,,72,0
16294,note_on,22,0,5,,,,,,,,4,,,77,0
16296,note_on,2,0,7,,,,,,,,6,,,71,110
16296,note_on,2,0,5,,,,,,,,4,,,76,110
16318,note_on,22,0,5,,,,,,,,4,,,76,0
16318,note_on,94,0,6,,,,,,,,5,,,55,0
16318,note_on,94,0,2,,,,,,,,1,,,64,0
16318,note_on,22,0,7,,,,,,,,6,,,71,0
16318,note_on,46,0,3,,,,,,,,2,,,72,0
16318,note_on,94,0,8,,,,,,,,7,,,36,0
16318,note_on,94,0,12,,,,,,,,12,,,36,0
16318,note_on,94,0,1,,,,,,,,0,,,72,0
16318,note_on,94,0,11,,,,,,,,11,,,55,0
16318,note_on,94,0,4,,,,,,,,3,,,55,0
16320,note_on,2,0,7,,,,,,,,6,,,72,110
16320,note_on,2,0,11,,,,,,,,11,,,60,110
16320,note_on,2,0,1,,,,,,,,0,,,76,110
16320,note_on,2,0,5,,,,,,,,4,,,77,110
16320,note_on,2,0,6,,,,,,,,5,,,60,110
16320,note_on,2,0,4,,,,,,,,3,,,52,110
16320,note_on,2,0,3,,,,,,,,2,,,72,110
16342,note_on,22,0,7,,,,,,,,6,,,72,0
16342,note_on,22,0,5,,,,,,,,4,,,77,0
16344,note_on,2,0,5,,,,,,,,4,,,76,110
16344,note_on,2,0,7,,,,,,,,6,,,71,110
16366,note_on,46,0,3,,,,,,,,2,,,72,0
16366,note_on,22,0,7,,,,,,,,6,,,71,0
16366,note_on,22,0,5,,,,,,,,4,,,76,0
16368,note_on,2,0,3,,,,,,,,2,,,67,110
16368,note_on,2,0,5,,,,,,,,4,,,77,110
16368,note_on,2,0,7,,,,,,,,6,,,72,110
16390,note_on,22,0,5,,,,,,,,4,,,77,0
16390,note_on,22,0,7,,,,,,,,6,,,72,0
16392,note_on,2,0,5,,,,,,,,4,,,76,110
16392,note_on,2,0,7,,,,,,,,6,,,71,110
16414,note_on,94,0,1,,,,,,,,0,,,76,0
16414,note_on,22,0,5,,,,,,,,4,,,76,0
16414,note_on,94,0,4,,,,,,,,3,,,52,0
16414,note_on,94,0,6,,,,,,,,5,,,60,0
16414,note_on,22,0,7,,,,,,,,6,,,71,0
16414,note_on,46,0,3,,,,,,,,2,,,67,0
16414,note_on,94,0,11,,,,,,,,11,,,60,0
16416,note_on,2,0,3,,,,,,,,2,,,64,110
16416,note_on,98,0,8,,,,,,,,7,,,48,110
16416,note_on,2,0,5,,,,,,,,4,,,77,110
16416,note_on,2,0,1,,,,,,,,0,,,79,110
16416,note_on,2,0,4,,,,,,,,3,,,48,110
16416,note_on,2,0,6,,,,,,,,5,,,48,110
16416,note_on,98,0,2,,,,,,,,1,,,65,110
16416,note_on,2,0,7,,,,,,,,6,,,72,110
16416,note_on,2,0,11,,,,,,,,11,,,64,110
16416,note_on,98,0,12,,,,,,,,12,,,48,110
16438,note_on,22,0,5,,,,,,,,4,,,77,0
16438,note_on,22,0,2,,,,,,,,1,,,65,0
16438,note_on,22,0,7,,,,,,,,6,,,72,0
16440,note_on,2,0,2,,,,,,,,1,,,64,110
16440,note_on,2,0,7,,,,,,,,6,,,71,110
16440,note_on,2,0,5,,,,,,,,4,,,76,110
16462,note_on,22,0,7,,,,,,,,6,,,71,0
16462,note_on,46,0,3,,,,,,,,2,,,64,0
16462,note_on,22,0,5,,,,,,,,4,,,76,0
16462,note_on,22,0,2,,,,,,,,1,,,64,0
16464,note_on,720,0,10,,,,,,,,10,,,71,0
16464,note_on,2,0,7,,,,,,,,6,,,72,110
16464,note_on,2,0,3,,,,,,,,2,,,72,110
16464,note_on,2,0,5,,,,,,,,4,,,77,110
16464,note_on,2,0,2,,,,,,,,1,,,65,110
16486,note_on,22,0,2,,,,,,,,1,,,65,0
16486,note_on,22,0,7,,,,,,,,6,,,72,0
16486,note_on,22,0,5,,,,,,,,4,,,77,0
16488,note_on,2,0,7,,,,,,,,6,,,71,110
16488,note_on,2,0,5,,,,,,,,4,,,76,110
16488,note_on,2,0,2,,,,,,,,1,,,64,110
16510,note_on,94,0,8,,,,,,,,7,,,48,0
16510,note_on,94,0,1,,,,,,,,0,,,79,0
16510,note_on,94,0,12,,,,,,,,12,,,48,0
16510,note_on,94,0,6,,,,,,,,5,,,48,0
16510,note_on,22,0,5,,,,,,,,4,,,76,0
16510,note_on,46,0,3,,,,,,,,2,,,72,0
16510,note_on,94,0,11,,,,,,,,11,,,64,0
16510,note_on,22,0,7,,,,,,,,6,,,71,0
16510,note_on,94,0,4,,,,,,,,3,,,48,0
16510,note_on,22,0,2,,,,,,,,1,,,64,0
16512,note_on,2,0,2,,,,,,,,1,,,65,110
16512,note_on,2,0,3,,,,,,,,2,,,72,110
16512,note_on,2,0,4,,,,,,,,3,,,57,110
16512,note_on,48,0,10,,,,,,,,10,,,69,110
16512,note_on,2,0,12,,,,,,,,12,,,53,110
16512,note_on,2,0,8,,,,,,,,7,,,53,110
16512,note_on,2,0,7,,,,,,,,6,,,71,110
16512,note_on,2,0,1,,,,,,,,0,,,77,110
16512,note_on,2,0,5,,,,,,,,4,,,77,110
16534,note_on,22,0,7,,,,,,,,6,,,71,0
16534,note_on,22,0,5,,,,,,,,4,,,77,0
16536,note_on,2,0,7,,,,,,,,6,,,69,110
16536,note_on,2,0,5,,,,,,,,4,,,76,110
16558,note_on,22,0,7,,,,,,,,6,,,69,0
16558,note_on,22,0,5,,,,,,,,4,,,76,0
16558,note_on,46,0,1,,,,,,,,0,,,77,0
16558,note_on,46,0,4,,,,,,,,3,,,57,0
16560,note_on,2,0,1,,,,,,,,0,,,72,110
16560,note_on,2,0,4,,,,,,,,3,,,56,110
16560,note_on,2,0,5,,,,,,,,4,,,77,110
16560,note_on,2,0,7,,,,,,,,6,,,71,110
16582,note_on,22,0,7,,,,,,,,6,,,71,0
16582,note_on,22,0,5,,,,,,,,4,,,77,0
16584,note_on,2,0,7,,,,,,,,6,,,69,110
16584,note_on,2,0,5,,,,,,,,4,,,76,110
16606,note_on,94,0,2,,,,,,,,1,,,65,0
16606,note_on,22,0,5,,,,,,,,4,,,76,0
16606,note_on,46,0,4,,,,,,,,3,,,56,0
16606,note_on,22,0,7,,,,,,,,6,,,69,0
16606,note_on,94,0,12,,,,,,,,12,,,53,0
16606,note_on,94,0,8,,,,,,,,7,,,53,0
16606,note_on,46,0,1,,,,,,,,0,,,72,0
16606,note_on,94,0,3,,,,,,,,2,,,72,0
16608,note_on,2,0,2,,,,,,,,1,,,60,110
16608,note_on,98,0,6,,,,,,,,5,,,48,110
16608,note_on,2,0,4,,,,,,,,3,,,57,110
16608,note_on,2,0,8,,,,,,,,7,,,41,110
16608,note_on,2,0,1,,,,,,,,0,,,69,110
16608,note_on,2,0,3,,,,,,,,2,,,65,110
16608,note_on,2,0,12,,,,,,,,12,,,41,110
16608,note_on,2,0,7,,,,,,,,6,,,71,110
16608,note_on,2,0,5,,,,,,,,4,,,77,110
16608,note_on,98,0,11,,,,,,,,11,,,60,110
16630,note_on,22,0,5,,,,,,,,4,,,77,0
16630,note_on,22,0,7,,,,,,,,6,,,71,0
16632,note_on,2,0,7,,,,,,,,6,,,69,110
16632,note_on,2,0,5,,,,,,,,4,,,76,110
16654,note_on,46,0,1,,,,,,,,0,,,69,0
16654,note_on,22,0,5,,,,,,,,4,,,76,0
16654,note_on,22,0,7,,,,,,,,6,,,69,0
16656,note_on,2,0,5,,,,,,,,4,,,77,110
16656,note_on,2,0,7,,,,,,,,6,,,71,110
16656,note_on,2,0,1,,,,,,,,0,,,77,110
16678,note_on,22,0,7,,,,,,,,6,,,71,0
16678,note_on,22,0,5,,,,,,,,4,,,77,0
16680,note_on,2,0,5,,,,,,,,4,,,76,110
16680,note_on,2,0,7,,,,,,,,6,,,69,110
16702,note_on,94,0,12,,,,,,,,12,,,41,0
16702,note_on,94,0,2,,,,,,,,1,,,60,0
16702,note_on,94,0,11,,,,,,,,11,,,60,0
16702,note_on,94,0,3,,,,,,,,2,,,65,0
16702,note_on,22,0,5,,,,,,,,4,,,76,0
16702,note_on,22,0,7,,,,,,,,6,,,69,0
16702,note_on,94,0,6,,,,,,,,5,,,48,0
16702,note_on,46,0,1,,,,,,,,0,,,77,0
16702,note_on,94,0,8,,,,,,,,7,,,41,0
16702,note_on,94,0,4,,,,,,,,3,,,57,0
16704,note_on,2,0,7,,,,,,,,6,,,71,110
16704,note_on,2,0,11,,,,,,,,11,,,57,110
16704,note_on,2,0,2,,,,,,,,1,,,57,110
16704,note_on,2,0,5,,,,,,,,4,,,77,110
16704,note_on,2,0,1,,,,,,,,0,,,77,110
16704,note_on,2,0,6,,,,,,,,5,,,53,110
16704,note_on,2,0,3,,,,,,,,2,,,69,110
16726,note_on,22,0,7,,,,,,,,6,,,71,0
16726,note_on,22,0,5,,,,,,,,4,,,77,0
16728,note_on,2,0,5,,,,,,,,4,,,76,110
16728,note_on,2,0,7,,,,,,,,6,,,69,110
16750,note_on,46,0,1,,,,,,,,0,,,77,0
16750,note_on,22,0,7,,,,,,,,6,,,69,0
16750,note_on,22,0,5,,,,,,,,4,,,76,0
16752,note_on,2,0,1,,,,,,,,0,,,72,110
16752,note_on,2,0,5,,,,,,,,4,,,77,110
16752,note_on,2,0,7,,,,,,,,6,,,71,110
16774,note_on,22,0,5,,,,,,,,4,,,77,0
16774,note_on,22,0,7,,,,,,,,6,,,71,0
16776,note_on,2,0,5,,,,,,,,4,,,76,110
16776,note_on,2,0,7,,,,,,,,6,,,69,110
16798,note_on,94,0,2,,,,,,,,1,,,57,0
16798,note_on,22,0,7,,,,,,,,6,,,69,0
16798,note_on,94,0,3,,,,,,,,2,,,69,0
16798,note_on,94,0,11,,,,,,,,11,,,57,0
16798,note_on,22,0,5,,,,,,,,4,,,76,0
16798,note_on,46,0,1,,,,,,,,0,,,72,0
16798,note_on,94,0,6,,,,,,,,5,,,53,0
16800,note_on,2,0,2,,,,,,,,1,,,53,110
16800,note_on,2,0,5,,,,,,,,4,,,77,110
16800,note_on,98,0,8,,,,,,,,7,,,53,110
16800,note_on,2,0,3,,,,,,,,2,,,72,110
16800,note_on,98,0,4,,,,,,,,3,,,59,110
16800,note_on,98,0,12,,,,,,,,12,,,53,110
16800,note_on,2,0,6,,,,,,,,5,,,41,110
16800,note_on,2,0,7,,,,,,,,6,,,71,110
16800,note_on,2,0,11,,,,,,,,11,,,53,110
16800,note_on,2,0,1,,,,,,,,0,,,69,110
16822,note_on,22,0,7,,,,,,,,6,,,71,0
16822,note_on,22,0,5,,,,,,,,4,,,77,0
16822,note_on,22,0,4,,,,,,,,3,,,59,0
16824,note_on,2,0,7,,,,,,,,6,,,69,110
16824,note_on,2,0,5,,,,,,,,4,,,76,110
16824,note_on,2,0,4,,,,,,,,3,,,57,110
16846,note_on,46,0,1,,,,,,,,0,,,69,0
16846,note_on,22,0,7,,,,,,,,6,,,69,0
16846,note_on,22,0,4,,,,,,,,3,,,57,0
16846,note_on,22,0,5,,,,,,,,4,,,76,0
16848,note_on,2,0,7,,,,,,,,6,,,71,110
16848,note_on,2,0,4,,,,,,,,3,,,59,110
16848,note_on,2,0,1,,,,,,,,0,,,77,110
16848,note_on,720,0,9,,,,,,,,8,,,76,0
16848,note_on,2,0,5,,,,,,,,4,,,77,110
16870,note_on,22,0,7,,,,,,,,6,,,71,0
16870,note_on,22,0,4,,,,,,,,3,,,59,0
16870,note_on,22,0,5,,,,,,,,4,,,77,0
16872,note_on,2,0,7,,,,,,,,6,,,69,110
16872,note_on,2,0,4,,,,,,,,3,,,57,110
16872,note_on,2,0,5,,,,,,,,4,,,76,110
16894,note_on,22,0,5,,,,,,,,4,,,76,0
16894,note_on,22,0,4,,,,,,,,3,,,57,0
16894,note_on,94,0,6,,,,,,,,5,,,41,0
16894,note_on,94,0,11,,,,,,,,11,,,53,0
16894,note_on,46,0,1,,,,,,,,0,,,77,0
16894,note_on,94,0,3,,,,,,,,2,,,72,0
16894,note_on,22,0,7,,,,,,,,6,,,69,0
16894,note_on,94,0,12,,,,,,,,12,,,53,0
16894,note_on,94,0,8,,,,,,,,7,,,53,0
16894,note_on,94,0,2,,,,,,,,1,,,53,0
16896,note_on,2,0,3,,,,,,,,2,,,71,110
16896,note_on,2,0,7,,,,,,,,6,,,71,110
16896,note_on,2,0,12,,,,,,,,12,,,47,110
16896,note_on,2,0,5,,,,,,,,4,,,76,110
16896,note_on,2,0,4,,,,,,,,3,,,59,110
16896,note_on,2,0,2,,,,,,,,1,,,62,110
16896,note_on,2,0,1,,,,,,,,0,,,77,110
16896,note_on,48,0,9,,,,,,,,8,,,74,110
16896,note_on,2,0,8,,,,,,,,7,,,47,110
16918,note_on,22,0,7,,,,,,,,6,,,71,0
16918,note_on,22,0,5,,,,,,,,4,,,76,0
16920,note_on,2,0,5,,,,,,,,4,,,74,110
16920,note_on,2,0,7,,,,,,,,6,,,69,110
16942,note_on,22,0,7,,,,,,,,6,,,69,0
16942,note_on,46,0,2,,,,,,,,1,,,62,0
16942,note_on,22,0,5,,,,,,,,4,,,74,0
16942,note_on,46,0,3,,,,,,,,2,,,71,0
16944,note_on,2,0,2,,,,,,,,1,,,60,110
16944,note_on,2,0,5,,,,,,,,4,,,76,110
16944,note_on,2,0,7,,,,,,,,6,,,71,110
16944,note_on,2,0,3,,,,,,,,2,,,65,110
16966,note_on,22,0,5,,,,,,,,4,,,76,0
16966,note_on,22,0,7,,,,,,,,6,,,71,0
16968,note_on,2,0,5,,,,,,,,4,,,74,110
16968,note_on,2,0,7,,,,,,,,6,,,69,110
16990,note_on,46,0,3,,,,,,,,2,,,65,0
16990,note_on,94,0,8,,,,,,,,7,,,47,0
16990,note_on,94,0,4,,,,,,,,3,,,59,0
16990,note_on,22,0,5,,,,,,,,4,,,74,0
16990,note_on,94,0,1,,,,,,,,0,,,77,0
16990,note_on,22,0,7,,,,,,,,6,,,69,0
16990,note_on,94,0,12,,,,,,,,12,,,47,0
16990,note_on,46,0,2,,,,,,,,1,,,60,0
16992,note_on,2,0,7,,,,,,,,6,,,71,110
16992,note_on,2,0,3,,,,,,,,2,,,62,110
16992,note_on,2,0,2,,,,,,,,1,,,62,110
16992,note_on,2,0,1,,,,,,,,0,,,71,110
16992,note_on,2,0,12,,,,,,,,12,,,59,110
16992,note_on,2,0,8,,,,,,,,7,,,59,110
16992,note_on,2,0,5,,,,,,,,4,,,76,110
16992,note_on,98,0,11,,,,,,,,11,,,53,110
16992,note_on,2,0,4,,,,,,,,3,,,53,110
16992,note_on,98,0,6,,,,,,,,5,,,53,110
17014,note_on,22,0,7,,,,,,,,6,,,71,0
17014,note_on,22,0,5,,,,,,,,4,,,76,0
17016,note_on,2,0,5,,,,,,,,4,,,74,110
17016,note_on,2,0,7,,,,,,,,6,,,69,110
17038,note_on,22,0,5,,,,,,,,4,,,74,0
17038,note_on,22,0,7,,,,,,,,6,,,69,0
17038,note_on,46,0,3,,,,,,,,2,,,62,0
17040,note_on,2,0,3,,,,,,,,2,,,71,110
17040,note_on,2,0,5,,,,,,,,4,,,76,110
17040,note_on,2,0,7,,,,,,,,6,,,71,110
17062,note_on,22,0,5,,,,,,,,4,,,76,0
17062,note_on,22,0,7,,,,,,,,6,,,71,0
17064,note_on,2,0,5,,,,,,,,4,,,74,110
17064,note_on,2,0,7,,,,,,,,6,,,69,110
17086,note_on,22,0,7,,,,,,,,6,,,69,0
17086,note_on,94,0,11,,,,,,,,11,,,53,0
17086,note_on,22,0,5,,,,,,,,4,,,74,0
17086,note_on,94,0,4,,,,,,,,3,,,53,0
17086,note_on,94,0,8,,,,,,,,7,,,59,0
17086,note_on,94,0,1,,,,,,,,0,,,71,0
17086,note_on,94,0,12,,,,,,,,12,,,59,0
17086,note_on,94,0,2,,,,,,,,1,,,62,0
17086,note_on,46,0,3,,,,,,,,2,,,71,0
17086,note_on,94,0,6,,,,,,,,5,,,53,0
17088,note_on,2,0,5,,,,,,,,4,,,76,110
17088,note_on,2,0,11,,,,,,,,11,,,59,110
17088,note_on,2,0,6,,,,,,,,5,,,47,110
17088,note_on,2,0,1,,,,,,,,0,,,74,110
17088,note_on,2,0,4,,,,,,,,3,,,50,110
17088,note_on,2,0,7,,,,,,,,6,,,71,110
17088,note_on,2,0,3,,,,,,,,2,,,71,110
17110,note_on,22,0,5,,,,,,,,4,,,76,0
17110,note_on,22,0,7,,,,,,,,6,,,71,0
17112,note_on,2,0,5,,,,,,,,4,,,74,110
17112,note_on,2,0,7,,,,,,,,6,,,69,110
17134,note_on,22,0,5,,,,,,,,4,,,74,0
17134,note_on,22,0,7,,,,,,,,6,,,69,0
17134,note_on,46,0,3,,,,,,,,2,,,71,0
17136,note_on,2,0,5,,,,,,,,4,,,76,110
17136,note_on,2,0,3,,,,,,,,2,,,65,110
17136,note_on,2,0,7,,,,,,,,6,,,71,110
17158,note_on,22,0,7,,,,,,,,6,,,71,0
17158,note_on,22,0,5,,,,,,,,4,,,76,0
17160,note_on,2,0,5,,,,,,,,4,,,74,110
17160,note_on,2,0,7,,,,,,,,6,,,69,110
17182,note_on,22,0,5,,,,,,,,4,,,74,0
17182,note_on,94,0,6,,,,,,,,5,,,47,0
17182,note_on,94,0,11,,,,,,,,11,,,59,0
17182,note_on,46,0,3,,,,,,,,2,,,65,0
17182,note_on,22,0,7,,,,,,,,6,,,69,0
17182,note_on,94,0,1,,,,,,,,0,,,74,0
17182,note_on,94,0,4,,,,,,,,3,,,50,0
17184,note_on,98,0,2,,,,,,,,1,,,64,110
17184,note_on,2,0,4,,,,,,,,3,,,47,110
17184,note_on,98,0,8,,,,,,,,7,,,47,110
17184,note_on,2,0,3,,,,,,,,2,,,62,110
17184,note_on,2,0,11,,,,,,,,11,,,62,110
17184,note_on,2,0,7,,,,,,,,6,,,71,110
17184,note_on,98,0,12,,,,,,,,12,,,47,110
17184,note_on,2,0,1,,,,,,,,0,,,77,110
17184,note_on,2,0,5,,,,,,,,4,,,76,110
17184,note_on,2,0,6,,,,,,,,5,,,59,110
17206,note_on,22,0,5,,,,,,,,4,,,76,0
17206,note_on,22,0,7,,,,,,,,6,,,71,0
17206,note_on,22,0,2,,,,,,,,1,,,64,0
17208,note_on,2,0,2,,,,,,,,1,,,62,110
17208,note_on,2,0,7,,,,,,,,6,,,69,110
17208,note_on,2,0,5,,,,,,,,4,,,74,110
17230,note_on,22,0,2,,,,,,,,1,,,62,0
17230,note_on,22,0,7,,,,,,,,6,,,69,0
17230,note_on,22,0,5,,,,,,,,4,,,74,0
17230,note_on,46,0,3,,,,,,,,2,,,62,0
17232,note_on,2,0,3,,,,,,,,2,,,71,110
17232,note_on,720,0,10,,,,,,,,10,,,69,0
17232,note_on,2,0,7,,,,,,,,6,,,71,110
17232,note_on,2,0,2,,,,,,,,1,,,64,110
17232,note_on,2,0,5,,,,,,,,4,,,76,110
17254,note_on,22,0,7,,,,,,,,6,,,71,0
17254,note_on,22,0,2,,,,,,,,1,,,64,0
17254,note_on,22,0,5,,,,,,,,4,,,76,0
17256,note_on,2,0,5,,,,,,,,4,,,74,110
17256,note_on,2,0,7,,,,,,,,6,,,69,110
17256,note_on,2,0,2,,,,,,,,1,,,62,110
17278,note_on,94,0,6,,,,,,,,5,,,59,0
17278,note_on,94,0,12,,,,,,,,12,,,47,0
17278,note_on,22,0,5,,,,,,,,4,,,74,0
17278,note_on,22,0,2,,,,,,,,1,,,62,0
17278,note_on,46,0,3,,,,,,,,2,,,71,0
17278,note_on,94,0,1,,,,,,,,0,,,77,0
17278,note_on,22,0,7,,,,,,,,6,,,69,0
17278,note_on,94,0,8,,,,,,,,7,,,47,0
17278,note_on,94,0,11,,,,,,,,11,,,62,0
17278,note_on,94,0,4,,,,,,,,3,,,47,0
17280,note_on,2,0,7,,,,,,,,6,,,69,110
17280,note_on,2,0,12,,,,,,,,12,,,52,110
17280,note_on,2,0,5,,,,,,,,4,,,76,110
17280,note_on,48,0,10,,,,,,,,10,,,68,110
17280,note_on,2,0,2,,,,,,,,1,,,64,110
17280,note_on,2,0,4,,,,,,,,3,,,56,110
17280,note_on,2,0,3,,,,,,,,2,,,71,110
17280,note_on,2,0,1,,,,,,,,0,,,76,110
17280,note_on,2,0,8,,,,,,,,7,,,52,110
17302,note_on,22,0,7,,,,,,,,6,,,69,0
17302,note_on,22,0,5,,,,,,,,4,,,76,0
17304,note_on,2,0,5,,,,,,,,4,,,74,110
17304,note_on,2,0,7,,,,,,,,6,,,68,110
17326,note_on,46,0,4,,,,,,,,3,,,56,0
17326,note_on,22,0,5,,,,,,,,4,,,74,0
17326,note_on,22,0,7,,,,,,,,6,,,68,0
17326,note_on,46,0,1,,,,,,,,0,,,76,0
17328,note_on,2,0,1,,,,,,,,0,,,71,110
17328,note_on,2,0,4,,,,,,,,3,,,54,110
17328,note_on,2,0,7,,,,,,,,6,,,69,110
17328,note_on,2,0,5,,,,,,,,4,,,76,110
17350,note_on,22,0,7,,,,,,,,6,,,69,0
17350,note_on,22,0,5,,,,,,,,4,,,76,0
17352,note_on,2,0,7,,,,,,,,6,,,68,110
17352,note_on,2,0,5,,,,,,,,4,,,74,110
17374,note_on,94,0,12,,,,,,,,12,,,52,0
17374,note_on,22,0,5,,,,,,,,4,,,74,0
17374,note_on,94,0,8,,,,,,,,7,,,52,0
17374,note_on,22,0,7,,,,,,,,6,,,68,0
17374,note_on,46,0,4,,,,,,,,3,,,54,0
17374,note_on,94,0,3,,,,,,,,2,,,71,0
17374,note_on,94,0,2,,,,,,,,1,,,64,0
17374,note_on,46,0,1,,,,,,,,0,,,71,0
17376,note_on,2,0,4,,,,,,,,3,,,56,110
17376,note_on,2,0,5,,,,,,,,4,,,76,110
17376,note_on,98,0,11,,,,,,,,11,,,59,110
17376,note_on,2,0,2,,,,,,,,1,,,59,110
17376,note_on,2,0,12,,,,,,,,12,,,40,110
17376,note_on,98,0,6,,,,,,,,5,,,47,110
17376,note_on,2,0,7,,,,,,,,6,,,69,110
17376,note_on,2,0,1,,,,,,,,0,,,68,110
17376,note_on,2,0,3,,,,,,,,2,,,64,110
17376,note_on,2,0,8,,,,,,,,7,,,40,110
17398,note_on,22,0,5,,,,,,,,4,,,76,0
17398,note_on,22,0,7,,,,,,,,6,,,69,0
17400,note_on,2,0,7,,,,,,,,6,,,68,110
17400,note_on,2,0,5,,,,,,,,4,,,74,110
17422,note_on,22,0,5,,,,,,,,4,,,74,0
17422,note_on,46,0,1,,,,,,,,0,,,68,0
17422,note_on,22,0,7,,,,,,,,6,,,68,0
17424,note_on,2,0,5,,,,,,,,4,,,76,110
17424,note_on,2,0,7,,,,,,,,6,,,69,110
17424,note_on,2,0,1,,,,,,,,0,,,76,110
17446,note_on,22,0,5,,,,,,,,4,,,76,0
17446,note_on,22,0,7,,,,,,,,6,,,69,0
17448,note_on,2,0,7,,,,,,,,6,,,68,110
17448,note_on,2,0,5,,,,,,,,4,,,74,110
17470,note_on,94,0,6,,,,,,,,5,,,47,0
17470,note_on,94,0,12,,,,,,,,12,,,40,0
17470,note_on,94,0,2,,,,,,,,1,,,59,0
17470,note_on,94,0,4,,,,,,,,3,,,56,0
17470,note_on,94,0,11,,,,,,,,11,,,59,0
17470,note_on,94,0,8,,,,,,,,7,,,40,0
17470,note_on,22,0,5,,,,,,,,4,,,74,0
17470,note_on,94,0,3,,,,,,,,2,,,64,0
17470,note_on,22,0,7,,,,,,,,6,,,68,0
17470,note_on,46,0,1,,,,,,,,0,,,76,0
17472,note_on,2,0,1,,,,,,,,0,,,76,110
17472,note_on,2,0,2,,,,,,,,1,,,56,110
17472,note_on,2,0,5,,,,,,,,4,,,76,110
17472,note_on,2,0,7,,,,,,,,6,,,69,110
17472,note_on,2,0,6,,,,,,,,5,,,52,110
17472,note_on,2,0,3,,,,,,,,2,,,68,110
17472,note_on,2,0,11,,,,,,,,11,,,56,110
17494,note_on,22,0,7,,,,,,,,6,,,69,0
17494,note_on,22,0,5,,,,,,,,4,,,76,0
17496,note_on,2,0,7,,,,,,,,6,,,68,110
17496,note_on,2,0,5,,,,,,,,4,,,74,110
17518,note_on,22,0,7,,,,,,,,6,,,68,0
17518,note_on,46,0,1,,,,,,,,0,,,76,0
17518,note_on,22,0,5,,,,,,,,4,,,74,0
17520,note_on,2,0,5,,,,,,,,4,,,76,110
17520,note_on,2,0,1,,,,,,,,0,,,71,110
17520,note_on,2,0,7,,,,,,,,6,,,69,110
17542,note_on,22,0,5,,,,,,,,4,,,76,0
17542,note_on,22,0,7,,,,,,,,6,,,69,0
17544,note_on,2,0,5,,,,,,,,4,,,74,110
17544,note_on,2,0,7,,,,,,,,6,,,68,110
17566,note_on,22,0,5,,,,,,,,4,,,74,0
17566,note_on,94,0,11,,,,,,,,11,,,56,0
17566,note_on,46,0,1,,,,,,,,0,,,71,0
17566,note_on,94,0,6,,,,,,,,5,,,52,0
17566,note_on,94,0,3,,,,,,,,2,,,68,0
17566,note_on,22,0,7,,,,,,,,6,,,68,0
17566,note_on,94,0,2,,,,,,,,1,,,56,0
17568,note_on,2,0,3,,,,,,,,2,,,71,110
17568,note_on,2,0,6,,,,,,,,5,,,40,110
17568,note_on,2,0,1,,,,,,,,0,,,68,110
17568,note_on,2,0,7,,,,,,,,6,,,69,110
17568,note_on,98,0,12,,,,,,,,12,,,52,110
17568,note_on,2,0,5,,,,,,,,4,,,76,110
17568,note_on,2,0,11,,,,,,,,11,,,52,110
17568,note_on,98,0,4,,,,,,,,3,,,56,110
17568,note_on,2,0,2,,,,,,,,1,,,52,110
17568,note_on,98,0,8,,,,,,,,7,,,52,110
17590,note_on,22,0,7,,,,,,,,6,,,69,0
17590,note_on,22,0,5,,,,,,,,4,,,76,0
17592,note_on,2,0,7,,,,,,,,6,,,68,110
17592,note_on,2,0,5,,,,,,,,4,,,74,110
17614,note_on,46,0,1,,,,,,,,0,,,68,0
17614,note_on,22,0,5,,,,,,,,4,,,74,0
17614,note_on,22,0,7,,,,,,,,6,,,68,0
17616,note_on,2,0,5,,,,,,,,4,,,76,110
17616,note_on,720,0,9,,,,,,,,8,,,74,0
17616,note_on,2,0,1,,,,,,,,0,,,76,110
17616,note_on,336,0,10,,,,,,,,10,,,68,0
17616,note_on,2,0,7,,,,,,,,6,,,69,110
17638,note_on,22,0,5,,,,,,,,4,,,76,0
17638,note_on,22,0,7,,,,,,,,6,,,69,0
17640,note_on,2,0,5,,,,,,,,4,,,74,110
17640,note_on,2,0,7,,,,,,,,6,,,68,110
17662,note_on,94,0,6,,,,,,,,5,,,40,0
17662,note_on,94,0,2,,,,,,,,1,,,52,0
17662,note_on,22,0,7,,,,,,,,6,,,68,0
17662,note_on,94,0,8,,,,,,,,7,,,52,0
17662,note_on,22,0,5,,,,,,,,4,,,74,0
17662,note_on,94,0,12,,,,,,,,12,,,52,0
17662,note_on,94,0,3,,,,,,,,2,,,71,0
17662,note_on,94,0,4,,,,,,,,3,,,56,0
17662,note_on,46,0,1,,,,,,,,0,,,76,0
17662,note_on,94,0,11,,,,,,,,11,,,52,0
17664,note_on,2,0,2,,,,,,,,1,,,57,110
17664,note_on,2,0,1,,,,,,,,0,,,76,110
17664,note_on,2,0,7,,,,,,,,6,,,69,110
17664,note_on,2,0,8,,,,,,,,7,,,45,110
17664,note_on,2,0,12,,,,,,,,12,,,57,110
17664,note_on,48,0,10,,,,,,,,10,,,69,110
17664,note_on,2,0,6,,,,,,,,5,,,45,110
17664,note_on,48,0,9,,,,,,,,8,,,72,110
17664,note_on,2,0,3,,,,,,,,2,,,72,110
17664,note_on,2,0,4,,,,,,,,3,,,52,110
17664,note_on,2,0,5,,,,,,,,4,,,72,110
17710,note_on,46,0,8,,,,,,,,7,,,45,0
17710,note_on,46,0,2,,,,,,,,1,,,57,0
17710,note_on,46,0,4,,,,,,,,3,,,52,0
17710,note_on,46,0,6,,,,,,,,5,,,45,0
17712,note_on,2,0,2,,,,,,,,1,,,56,110
17712,note_on,2,0,8,,,,,,,,7,,,52,110
17712,note_on,2,0,6,,,,,,,,5,,,52,110
17712,note_on,2,0,4,,,,,,,,3,,,56,110
17712,note_on,50,0,11,,,,,,,,11,,,64,110
17758,note_on,94,0,9,,,,,,,,8,,,72,0
17758,note_on,94,0,1,,,,,,,,0,,,76,0
17758,note_on,46,0,4,,,,,,,,3,,,56,0
17758,note_on,46,0,8,,,,,,,,7,,,52,0
17758,note_on,94,0,7,,,,,,,,6,,,69,0
17758,note_on,94,0,10,,,,,,,,10,,,69,0
17758,note_on,94,0,12,,,,,,,,12,,,57,0
17758,note_on,46,0,11,,,,,,,,11,,,64,0
17758,note_on,46,0,6,,,,,,,,5,,,52,0
17758,note_on,94,0,3,,,,,,,,2,,,72,0
17758,note_on,46,0,2,,,,,,,,1,,,56,0
17760,note_on,2,0,2,,,,,,,,1,,,57,110
17760,note_on,2,0,1,,,,,,,,0,,,69,110
17760,note_on,2,0,6,,,,,,,,5,,,54,110
17760,note_on,2,0,4,,,,,,,,3,,,57,110
17760,note_on,2,0,12,,,,,,,,12,,,45,110
17760,note_on,2,0,9,,,,,,,,8,,,69,110
17760,note_on,2,0,11,,,,,,,,11,,,64,110
17760,note_on,2,0,10,,,,,,,,10,,,64,110
17760,note_on,2,0,8,,,,,,,,7,,,54,110
17760,note_on,2,0,3,,,,,,,,2,,,69,110
17760,note_on,2,0,7,,,,,,,,6,,,72,110
17806,note_on,46,0,4,,,,,,,,3,,,57,0
17806,note_on,46,0,2,,,,,,,,1,,,57,0
17806,note_on,46,0,12,,,,,,,,12,,,45,0
17806,note_on,46,0,8,,,,,,,,7,,,54,0
17806,note_on,46,0,6,,,,,,,,5,,,54,0
17806,note_on,46,0,11,,,,,,,,11,,,64,0
17806,note_on,46,0,7,,,,,,,,6,,,72,0
17808,note_on,2,0,2,,,,,,,,1,,,59,110
17808,note_on,2,0,4,,,,,,,,3,,,59,110
17808,note_on,2,0,6,,,,,,,,5,,,56,110
17808,note_on,2,0,8,,,,,,,,7,,,56,110
17808,note_on,2,0,11,,,,,,,,11,,,64,110
17808,note_on,2,0,7,,,,,,,,6,,,71,110
17808,note_on,2,0,12,,,,,,,,12,,,47,110
17824,note_on,160,0,5,,,,,,,,4,,,72,0
17854,note_on,46,0,7,,,,,,,,6,,,71,0
17854,note_on,46,0,4,,,,,,,,3,,,59,0
17854,note_on,94,0,1,,,,,,,,0,,,69,0
17854,note_on,46,0,12,,,,,,,,12,,,47,0
17854,note_on,46,0,8,,,,,,,,7,,,56,0
17854,note_on,94,0,10,,,,,,,,10,,,64,0
17854,note_on,46,0,11,,,,,,,,11,,,64,0
17854,note_on,46,0,2,,,,,,,,1,,,59,0
17854,note_on,94,0,9,,,,,,,,8,,,69,0
17854,note_on,94,0,3,,,,,,,,2,,,69,0
17854,note_on,46,0,6,,,,,,,,5,,,56,0
17856,note_on,2,0,10,,,,,,,,10,,,69,110
17856,note_on,2,0,11,,,,,,,,11,,,64,110
17856,note_on,2,0,12,,,,,,,,12,,,48,110
17856,note_on,2,0,6,,,,,,,,5,,,57,110
17856,note_on,2,0,2,,,,,,,,1,,,60,110
17856,note_on,2,0,7,,,,,,,,6,,,69,110
17856,note_on,2,0,4,,,,,,,,3,,,60,110
17856,note_on,2,0,8,,,,,,,,7,,,57,110
17902,note_on,46,0,2,,,,,,,,1,,,60,0
17902,note_on,46,0,11,,,,,,,,11,,,64,0
17902,note_on,46,0,4,,,,,,,,3,,,60,0
17904,note_on,2,0,2,,,,,,,,1,,,59,110
17904,note_on,2,0,4,,,,,,,,3,,,59,110
17904,note_on,2,0,11,,,,,,,,11,,,64,110
17904,note_on,80,0,5,,,,,,,,4,,,76,110
17950,note_on,94,0,7,,,,,,,,6,,,69,0
17950,note_on,46,0,5,,,,,,,,4,,,76,0
17950,note_on,94,0,10,,,,,,,,10,,,69,0
17950,note_on,46,0,11,,,,,,,,11,,,64,0
17950,note_on,94,0,8,,,,,,,,7,,,57,0
17950,note_on,46,0,4,,,,,,,,3,,,59,0
17950,note_on,94,0,12,,,,,,,,12,,,48,0
17950,note_on,46,0,2,,,,,,,,1,,,59,0
17950,note_on,94,0,6,,,,,,,,5,,,57,0
17952,note_on,2,0,4,,,,,,,,3,,,60,110
17952,note_on,2,0,5,,,,,,,,4,,,76,110
17952,note_on,2,0,7,,,,,,,,6,,,72,110
17952,note_on,2,0,8,,,,,,,,7,,,45,110
17952,note_on,98,0,9,,,,,,,,8,,,81,110
17952,note_on,98,0,1,,,,,,,,0,,,81,110
17952,note_on,2,0,6,,,,,,,,5,,,45,110
17952,note_on,2,0,2,,,,,,,,1,,,60,110
17952,note_on,2,0,11,,,,,,,,11,,,64,110
17952,note_on,2,0,12,,,,,,,,12,,,45,110
17952,note_on,2,0,10,,,,,,,,10,,,72,110
17998,note_on,46,0,5,,,,,,,,4,,,76,0
17998,note_on,46,0,11,,,,,,,,11,,,64,0
17998,note_on,46,0,4,,,,,,,,3,,,60,0
17998,note_on,46,0,2,,,,,,,,1,,,60,0
18000,note_on,2,0,4,,,,,,,,3,,,62,110
18000,note_on,2,0,2,,,,,,,,1,,,62,110
18000,note_on,2,0,11,,,,,,,,11,,,64,110
18000,note_on,2,0,5,,,,,,,,4,,,76,110
18046,note_on,46,0,4,,,,,,,,3,,,62,0
18046,note_on,94,0,8,,,,,,,,7,,,45,0
18046,note_on,94,0,1,,,,,,,,0,,,81,0
18046,note_on,46,0,2,,,,,,,,1,,,62,0
18046,note_on,94,0,7,,,,,,,,6,,,72,0
18046,note_on,46,0,5,,,,,,,,4,,,76,0
18046,note_on,94,0,9,,,,,,,,8,,,81,0
18046,note_on,94,0,6,,,,,,,,5,,,45,0
18046,note_on,46,0,11,,,,,,,,11,,,64,0
18046,note_on,94,0,10,,,,,,,,10,,,72,0
18046,note_on,94,0,12,,,,,,,,12,,,45,0
18048,note_on,2,0,1,,,,,,,,0,,,80,110
18048,note_on,2,0,10,,,,,,,,10,,,71,110
18048,note_on,2,0,7,,,,,,,,6,,,71,110
18048,note_on,2,0,6,,,,,,,,5,,,52,110
18048,note_on,2,0,8,,,,,,,,7,,,40,110
18048,note_on,2,0,5,,,,,,,,4,,,76,110
18048,note_on,2,0,4,,,,,,,,3,,,64,110
18048,note_on,2,0,12,,,,,,,,12,,,40,110
18048,note_on,2,0,2,,,,,,,,1,,,64,110
18048,note_on,2,0,11,,,,,,,,11,,,64,110
18048,note_on,2,0,9,,,,,,,,8,,,80,110
18094,note_on,46,0,2,,,,,,,,1,,,64,0
18094,note_on,46,0,5,,,,,,,,4,,,76,0
18094,note_on,46,0,11,,,,,,,,11,,,64,0
18096,note_on,2,0,5,,,,,,,,4,,,76,110
18096,note_on,2,0,11,,,,,,,,11,,,64,110
18096,note_on,2,0,2,,,,,,,,1,,,52,110
18142,note_on,94,0,8,,,,,,,,7,,,40,0
18142,note_on,94,0,12,,,,,,,,12,,,40,0
18142,note_on,94,0,1,,,,,,,,0,,,80,0
18142,note_on,94,0,4,,,,,,,,3,,,64,0
18142,note_on,46,0,11,,,,,,,,11,,,64,0
18142,note_on,94,0,6,,,,,,,,5,,,52,0
18142,note_on,94,0,10,,,,,,,,10,,,71,0
18142,note_on,94,0,9,,,,,,,,8,,,80,0
18142,note_on,46,0,2,,,,,,,,1,,,52,0
18142,note_on,46,0,5,,,,,,,,4,,,76,0
18144,note_on,2,0,2,,,,,,,,1,,,56,110
18144,note_on,2,0,10,,,,,,,,10,,,80,110
18144,note_on,2,0,1,,,,,,,,0,,,76,110
18144,note_on,2,0,9,,,,,,,,8,,,76,110
18144,note_on,290,0,3,,,,,,,,2,,,80,110
18144,note_on,2,0,5,,,,,,,,4,,,76,110
18144,note_on,2,0,11,,,,,,,,11,,,64,110
18144,note_on,2,0,8,,,,,,,,7,,,52,110
18144,note_on,2,0,4,,,,,,,,3,,,59,110
18144,note_on,2,0,6,,,,,,,,5,,,64,110
18144,note_on,2,0,12,,,,,,,,12,,,52,110
18190,note_on,46,0,2,,,,,,,,1,,,56,0
18190,note_on,46,0,5,,,,,,,,4,,,76,0
18190,note_on,46,0,11,,,,,,,,11,,,64,0
18192,note_on,2,0,11,,,,,,,,11,,,64,110
18192,note_on,2,0,5,,,,,,,,4,,,76,110
18192,note_on,2,0,2,,,,,,,,1,,,52,110
18208,note_on,160,0,7,,,,,,,,6,,,71,0
18238,note_on,94,0,4,,,,,,,,3,,,59,0
18238,note_on,94,0,3,,,,,,,,2,,,80,0
18238,note_on,46,0,2,,,,,,,,1,,,52,0
18238,note_on,94,0,9,,,,,,,,8,,,76,0
18238,note_on,46,0,11,,,,,,,,11,,,64,0
18238,note_on,94,0,10,,,,,,,,10,,,80,0
18238,note_on,94,0,12,,,,,,,,12,,,52,0
18238,note_on,94,0,6,,,,,,,,5,,,64,0
18238,note_on,46,0,5,,,,,,,,4,,,76,0
18238,note_on,94,0,8,,,,,,,,7,,,52,0
18238,note_on,94,0,1,,,,,,,,0,,,76,0
18240,note_on,2,0,5,,,,,,,,4,,,76,110
18240,note_on,2,0,8,,,,,,,,7,,,48,110
18240,note_on,2,0,12,,,,,,,,12,,,48,110
18240,note_on,2,0,2,,,,,,,,1,,,57,110
18240,note_on,2,0,3,,,,,,,,2,,,81,110
18240,note_on,2,0,10,,,,,,,,10,,,81,110
18240,note_on,2,0,11,,,,,,,,11,,,64,110
18286,note_on,46,0,11,,,,,,,,11,,,64,0
18286,note_on,46,0,2,,,,,,,,1,,,57,0
18286,note_on,46,0,5,,,,,,,,4,,,76,0
18288,note_on,50,0,6,,,,,,,,5,,,57,110
18288,note_on,2,0,2,,,,,,,,1,,,52,110
18288,note_on,2,0,5,,,,,,,,4,,,76,110
18288,note_on,2,0,11,,,,,,,,11,,,64,110
18288,note_on,50,0,4,,,,,,,,3,,,52,110
18334,note_on,46,0,11,,,,,,,,11,,,64,0
18334,note_on,46,0,6,,,,,,,,5,,,57,0
18334,note_on,46,0,2,,,,,,,,1,,,52,0
18334,note_on,94,0,10,,,,,,,,10,,,81,0
18334,note_on,46,0,4,,,,,,,,3,,,52,0
18334,note_on,94,0,3,,,,,,,,2,,,81,0
18334,note_on,46,0,5,,,,,,,,4,,,76,0
18334,note_on,94,0,12,,,,,,,,12,,,48,0
18334,note_on,94,0,8,,,,,,,,7,,,48,0
18336,note_on,2,0,6,,,,,,,,5,,,60,110
18336,note_on,2,0,11,,,,,,,,11,,,64,110
18336,note_on,98,0,9,,,,,,,,8,,,81,110
18336,note_on,2,0,5,,,,,,,,4,,,76,110
18336,note_on,98,0,1,,,,,,,,0,,,81,110
18336,note_on,2,0,4,,,,,,,,3,,,57,110
18336,note_on,2,0,10,,,,,,,,10,,,72,110
18336,note_on,2,0,8,,,,,,,,7,,,45,110
18336,note_on,2,0,3,,,,,,,,2,,,69,110
18336,note_on,2,0,12,,,,,,,,12,,,45,110
18336,note_on,2,0,2,,,,,,,,1,,,48,110
18336,note_on,128,0,7,,,,,,,,6,,,72,110
18382,note_on,46,0,2,,,,,,,,1,,,48,0
18382,note_on,46,0,6,,,,,,,,5,,,60,0
18382,note_on,46,0,11,,,,,,,,11,,,64,0
18382,note_on,46,0,4,,,,,,,,3,,,57,0
18382,note_on,46,0,5,,,,,,,,4,,,76,0
18384,note_on,2,0,4,,,,,,,,3,,,60,110
18384,note_on,2,0,6,,,,,,,,5,,,64,110
18384,note_on,2,0,11,,,,,,,,11,,,64,110
18384,note_on,2,0,5,,,,,,,,4,,,76,110
18384,note_on,2,0,2,,,,,,,,1,,,45,110
18430,note_on,46,0,11,,,,,,,,11,,,64,0
18430,note_on,94,0,8,,,,,,,,7,,,45,0
18430,note_on,94,0,12,,,,,,,,12,,,45,0
18430,note_on,94,0,9,,,,,,,,8,,,81,0
18430,note_on,94,0,1,,,,,,,,0,,,81,0
18430,note_on,94,0,10,,,,,,,,10,,,72,0
18430,note_on,46,0,6,,,,,,,,5,,,64,0
18430,note_on,46,0,4,,,,,,,,3,,,60,0
18430,note_on,46,0,5,,,,,,,,4,,,76,0
18430,note_on,94,0,3,,,,,,,,2,,,69,0
18430,note_on,94,0,7,,,,,,,,6,,,72,0
18430,note_on,46,0,2,,,,,,,,1,,,45,0
18432,note_on,2,0,2,,,,,,,,1,,,40,110
18432,note_on,2,0,6,,,,,,,,5,,,52,110
18432,note_on,2,0,5,,,,,,,,4,,,76,110
18432,note_on,2,0,1,,,,,,,,0,,,80,110
18432,note_on,2,0,11,,,,,,,,11,,,64,110
18432,note_on,2,0,9,,,,,,,,8,,,80,110
18432,note_on,2,0,4,,,,,,,,3,,,64,110
18432,note_on,2,0,10,,,,,,,,10,,,71,110
18432,note_on,2,0,7,,,,,,,,6,,,71,110
18478,note_on,46,0,11,,,,,,,,11,,,64,0
18478,note_on,46,0,5,,,,,,,,4,,,76,0
18478,note_on,46,0,2,,,,,,,,1,,,40,0
18480,note_on,2,0,5,,,,,,,,4,,,76,110
18480,note_on,2,0,2,,,,,,,,1,,,52,110
18480,note_on,2,0,11,,,,,,,,11,,,64,110
18526,note_on,94,0,1,,,,,,,,0,,,80,0
18526,note_on,94,0,9,,,,,,,,8,,,80,0
18526,note_on,94,0,10,,,,,,,,10,,,71,0
18526,note_on,94,0,6,,,,,,,,5,,,52,0
18526,note_on,94,0,4,,,,,,,,3,,,64,0
18526,note_on,46,0,2,,,,,,,,1,,,52,0
18526,note_on,46,0,5,,,,,,,,4,,,76,0
18526,note_on,46,0,11,,,,,,,,11,,,64,0
18528,note_on,98,0,12,,,,,,,,12,,,52,110
18528,note_on,2,0,11,,,,,,,,11,,,64,110
18528,note_on,2,0,4,,,,,,,,3,,,59,110
18528,note_on,98,0,8,,,,,,,,7,,,52,110
18528,note_on,2,0,9,,,,,,,,8,,,76,110
18528,note_on,2,0,5,,,,,,,,4,,,76,110
18528,note_on,2,0,1,,,,,,,,0,,,76,110
18528,note_on,2,0,2,,,,,,,,1,,,56,110
18528,note_on,98,0,3,,,,,,,,2,,,80,110
18528,note_on,2,0,10,,,,,,,,10,,,80,110
18528,note_on,2,0,6,,,,,,,,5,,,64,110
18574,note_on,46,0,5,,,,,,,,4,,,76,0
18574,note_on,46,0,11,,,,,,,,11,,,64,0
18574,note_on,46,0,2,,,,,,,,1,,,56,0
18576,note_on,2,0,2,,,,,,,,1,,,52,110
18576,note_on,2,0,5,,,,,,,,4,,,76,110
18576,note_on,2,0,11,,,,,,,,11,,,64,110
18592,note_on,160,0,7,,,,,,,,6,,,71,0
18622,note_on,46,0,5,,,,,,,,4,,,76,0
18622,note_on,94,0,8,,,,,,,,7,,,52,0
18622,note_on,94,0,10,,,,,,,,10,,,80,0
18622,note_on,94,0,9,,,,,,,,8,,,76,0
18622,note_on,94,0,12,,,,,,,,12,,,52,0
18622,note_on,94,0,6,,,,,,,,5,,,64,0
18622,note_on,94,0,1,,,,,,,,0,,,76,0
18622,note_on,94,0,4,,,,,,,,3,,,59,0
18622,note_on,94,0,3,,,,,,,,2,,,80,0
18622,note_on,46,0,2,,,,,,,,1,,,52,0
18622,note_on,46,0,11,,,,,,,,11,,,64,0
18624,note_on,2,0,11,,,,,,,,11,,,64,110
18624,note_on,2,0,8,,,,,,,,7,,,48,110
18624,note_on,2,0,5,,,,,,,,4,,,76,110
18624,note_on,2,0,3,,,,,,,,2,,,81,110
18624,note_on,2,0,10,,,,,,,,10,,,81,110
18624,note_on,2,0,2,,,,,,,,1,,,57,110
18624,note_on,2,0,12,,,,,,,,12,,,48,110
18670,note_on,46,0,11,,,,,,,,11,,,64,0
18670,note_on,46,0,5,,,,,,,,4,,,76,0
18670,note_on,46,0,2,,,,,,,,1,,,57,0
18672,note_on,2,0,11,,,,,,,,11,,,64,110
18672,note_on,50,0,4,,,,,,,,3,,,52,110
18672,note_on,2,0,2,,,,,,,,1,,,52,110
18672,note_on,2,0,5,,,,,,,,4,,,76,110
18672,note_on,50,0,6,,,,,,,,5,,,57,110
18718,note_on,46,0,2,,,,,,,,1,,,52,0
18718,note_on,46,0,5,,,,,,,,4,,,76,0
18718,note_on,94,0,8,,,,,,,,7,,,48,0
18718,note_on,94,0,12,,,,,,,,12,,,48,0
18718,note_on,46,0,4,,,,,,,,3,,,52,0
18718,note_on,94,0,3,,,,,,,,2,,,81,0
18718,note_on,46,0,6,,,,,,,,5,,,57,0
18718,note_on,46,0,11,,,,,,,,11,,,64,0
18718,note_on,94,0,10,,,,,,,,10,,,81,0
18720,note_on,98,0,9,,,,,,,,8,,,81,110
18720,note_on,98,0,1,,,,,,,,0,,,81,110
18720,note_on,2,0,12,,,,,,,,12,,,45,110
18720,note_on,128,0,7,,,,,,,,6,,,72,110
18720,note_on,2,0,6,,,,,,,,5,,,60,110
18720,note_on,2,0,2,,,,,,,,1,,,48,110
18720,note_on,2,0,5,,,,,,,,4,,,76,110
18720,note_on,2,0,10,,,,,,,,10,,,72,110
18720,note_on,2,0,3,,,,,,,,2,,,69,110
18720,note_on,2,0,11,,,,,,,,11,,,64,110
18720,note_on,2,0,4,,,,,,,,3,,,57,110
18720,note_on,2,0,8,,,,,,,,7,,,45,110
18766,note_on,46,0,2,,,,,,,,1,,,48,0
18766,note_on,46,0,6,,,,,,,,5,,,60,0
18766,note_on,46,0,4,,,,,,,,3,,,57,0
18766,note_on,46,0,11,,,,,,,,11,,,64,0
18766,note_on,46,0,5,,,,,,,,4,,,76,0
18768,note_on,2,0,4,,,,,,,,3,,,60,110
18768,note_on,2,0,5,,,,,,,,4,,,76,110
18768,note_on,2,0,2,,,,,,,,1,,,45,110
18768,note_on,2,0,11,,,,,,,,11,,,64,110
18768,note_on,2,0,6,,,,,,,,5,,,64,110
18814,note_on,46,0,6,,,,,,,,5,,,64,0
18814,note_on,46,0,11,,,,,,,,11,,,64,0
18814,note_on,94,0,12,,,,,,,,12,,,45,0
18814,note_on,94,0,7,,,,,,,,6,,,72,0
18814,note_on,94,0,10,,,,,,,,10,,,72,0
18814,note_on,46,0,5,,,,,,,,4,,,76,0
18814,note_on,94,0,1,,,,,,,,0,,,81,0
18814,note_on,46,0,4,,,,,,,,3,,,60,0
18814,note_on,94,0,9,,,,,,,,8,,,81,0
18814,note_on,94,0,3,,,,,,,,2,,,69,0
18814,note_on,46,0,2,,,,,,,,1,,,45,0
18814,note_on,94,0,8,,,,,,,,7,,,45,0
18816,note_on,2,0,6,,,,,,,,5,,,52,110
18816,note_on,2,0,11,,,,,,,,11,,,64,110
18816,note_on,2,0,4,,,,,,,,3,,,64,110
18816,note_on,2,0,7,,,,,,,,6,,,71,110
18816,note_on,2,0,1,,,,,,,,0,,,80,110
18816,note_on,2,0,2,,,,,,,,1,,,40,110
18816,note_on,2,0,10,,,,,,,,10,,,71,110
18816,note_on,2,0,9,,,,,,,,8,,,80,110
18816,note_on,2,0,5,,,,,,,,4,,,76,110
18862,note_on,46,0,2,,,,,,,,1,,,40,0
18862,note_on,46,0,11,,,,,,,,11,,,64,0
18862,note_on,46,0,5,,,,,,,,4,,,76,0
18864,note_on,2,0,5,,,,,,,,4,,,76,110
18864,note_on,2,0,11,,,,,,,,11,,,64,110
18864,note_on,2,0,2,,,,,,,,1,,,52,110
18910,note_on,94,0,10,,,,,,,,10,,,71,0
18910,note_on,46,0,2,,,,,,,,1,,,52,0
18910,note_on,46,0,11,,,,,,,,11,,,64,0
18910,note_on,94,0,9,,,,,,,,8,,,80,0
18910,note_on,94,0,6,,,,,,,,5,,,52,0
18910,note_on,94,0,1,,,,,,,,0,,,80,0
18910,note_on,94,0,4,,,,,,,,3,,,64,0
18910,note_on,46,0,5,,,,,,,,4,,,76,0
18912,note_on,2,0,11,,,,,,,,11,,,64,110
18912,note_on,2,0,10,,,,,,,,10,,,80,110
18912,note_on,2,0,9,,,,,,,,8,,,76,110
18912,note_on,98,0,3,,,,,,,,2,,,80,110
18912,note_on,2,0,5,,,,,,,,4,,,76,110
18912,note_on,2,0,2,,,,,,,,1,,,56,110
18912,note_on,2,0,6,,,,,,,,5,,,64,110
18912,note_on,98,0,12,,,,,,,,12,,,52,110
18912,note_on,2,0,4,,,,,,,,3,,,59,110
18912,note_on,2,0,1,,,,,,,,0,,,76,110
18912,note_on,98,0,8,,,,,,,,7,,,52,110
18958,note_on,46,0,2,,,,,,,,1,,,56,0
18958,note_on,46,0,11,,,,,,,,11,,,64,0
18958,note_on,46,0,5,,,,,,,,4,,,76,0
18960,note_on,2,0,11,,,,,,,,11,,,64,110
18960,note_on,2,0,5,,,,,,,,4,,,76,110
18960,note_on,2,0,2,,,,,,,,1,,,52,110
18976,note_on,160,0,7,,,,,,,,6,,,71,0
19006,note_on,94,0,8,,,,,,,,7,,,52,0
19006,note_on,46,0,2,,,,,,,,1,,,52,0
19006,note_on,94,0,6,,,,,,,,5,,,64,0
19006,note_on,94,0,9,,,,,,,,8,,,76,0
19006,note_on,94,0,1,,,,,,,,0,,,76,0
19006,note_on,94,0,10,,,,,,,,10,,,80,0
19006,note_on,46,0,5,,,,,,,,4,,,76,0
19006,note_on,46,0,11,,,,,,,,11,,,64,0
19006,note_on,94,0,12,,,,,,,,12,,,52,0
19006,note_on,94,0,4,,,,,,,,3,,,59,0
19006,note_on,94,0,3,,,,,,,,2,,,80,0
19008,note_on,2,0,10,,,,,,,,10,,,81,110
19008,note_on,2,0,12,,,,,,,,12,,,48,110
19008,note_on,2,0,2,,,,,,,,1,,,57,110
19008,note_on,2,0,3,,,,,,,,2,,,81,110
19008,note_on,2,0,8,,,,,,,,7,,,48,110
19008,note_on,2,0,11,,,,,,,,11,,,64,110
19008,note_on,2,0,5,,,,,,,,4,,,76,110
19054,note_on,46,0,5,,,,,,,,4,,,76,0
19054,note_on,46,0,3,,,,,,,,2,,,81,0
19054,note_on,46,0,10,,,,,,,,10,,,81,0
19054,note_on,46,0,2,,,,,,,,1,,,57,0
19056,note_on,80,0,7,,,,,,,,6,,,76,110
19056,note_on,2,0,3,,,,,,,,2,,,76,110
19056,note_on,2,0,2,,,,,,,,1,,,52,110
19056,note_on,50,0,1,,,,,,,,0,,,76,110
19056,note_on,2,0,10,,,,,,,,10,,,76,110
19056,note_on,50,0,9,,,,,,,,8,,,76,110
19056,note_on,50,0,4,,,,,,,,3,,,52,110
19056,note_on,50,0,6,,,,,,,,5,,,57,110
19056,note_on,2,0,5,,,,,,,,4,,,76,110
19102,note_on,46,0,9,,,,,,,,8,,,76,0
19102,note_on,46,0,5,,,,,,,,4,,,76,0
19102,note_on,46,0,7,,,,,,,,6,,,76,0
19102,note_on,94,0,11,,,,,,,,11,,,64,0
19102,note_on,46,0,6,,,,,,,,5,,,57,0
19102,note_on,46,0,10,,,,,,,,10,,,76,0
19102,note_on,46,0,3,,,,,,,,2,,,76,0
19102,note_on,94,0,8,,,,,,,,7,,,48,0
19102,note_on,46,0,2,,,,,,,,1,,,52,0
19102,note_on,46,0,1,,,,,,,,0,,,76,0
19102,note_on,94,0,12,,,,,,,,12,,,48,0
19102,note_on,46,0,4,,,,,,,,3,,,52,0
19104,note_on,2,0,12,,,,,,,,12,,,45,110
19104,note_on,2,0,3,,,,,,,,2,,,76,110
19104,note_on,2,0,1,,,,,,,,0,,,76,110
19104,note_on,2,0,8,,,,,,,,7,,,45,110
19104,note_on,2,0,10,,,,,,,,10,,,76,110
19104,note_on,2,0,9,,,,,,,,8,,,76,110
19104,note_on,2,0,4,,,,,,,,3,,,57,110
19104,note_on,2,0,7,,,,,,,,6,,,76,110
19104,note_on,2,0,2,,,,,,,,1,,,48,110
19104,note_on,2,0,11,,,,,,,,11,,,60,110
19104,note_on,2,0,5,,,,,,,,4,,,76,110
19104,note_on,2,0,6,,,,,,,,5,,,60,110
19150,note_on,46,0,5,,,,,,,,4,,,76,0
19150,note_on,46,0,1,,,,,,,,0,,,76,0
19150,note_on,46,0,4,,,,,,,,3,,,57,0
19150,note_on,46,0,6,,,,,,,,5,,,60,0
19150,note_on,46,0,7,,,,,,,,6,,,76,0
19150,note_on,46,0,10,,,,,,,,10,,,76,0
19150,note_on,46,0,2,,,,,,,,1,,,48,0
19150,note_on,46,0,3,,,,,,,,2,,,76,0
19150,note_on,46,0,9,,,,,,,,8,,,76,0
19152,note_on,2,0,1,,,,,,,,0,,,76,110
19152,note_on,2,0,4,,,,,,,,3,,,59,110
19152,note_on,2,0,10,,,,,,,,10,,,76,110
19152,note_on,2,0,3,,,,,,,,2,,,76,110
19152,note_on,2,0,2,,,,,,,,1,,,45,110
19152,note_on,2,0,5,,,,,,,,4,,,76,110
19152,note_on,2,0,9,,,,,,,,8,,,76,110
19152,note_on,2,0,6,,,,,,,,5,,,64,110
19152,note_on,2,0,7,,,,,,,,6,,,76,110
19198,note_on,46,0,9,,,,,,,,8,,,76,0
19198,note_on,94,0,11,,,,,,,,11,,,60,0
19198,note_on,46,0,6,,,,,,,,5,,,64,0
19198,note_on,46,0,5,,,,,,,,4,,,76,0
19198,note_on,46,0,4,,,,,,,,3,,,59,0
19198,note_on,46,0,1,,,,,,,,0,,,76,0
19198,note_on,46,0,10,,,,,,,,10,,,76,0
19198,note_on,46,0,2,,,,,,,,1,,,45,0
19198,note_on,46,0,3,,,,,,,,2,,,76,0
19198,note_on,94,0,12,,,,,,,,12,,,45,0
19198,note_on,46,0,7,,,,,,,,6,,,76,0
19198,note_on,94,0,8,,,,,,,,7,,,45,0
19200,note_on,2,0,11,,,,,,,,11,,,60,110
19200,note_on,2,0,1,,,,,,,,0,,,81,110
19200,note_on,2,0,3,,,,,,,,2,,,81,110
19200,note_on,2,0,4,,,,,,,,3,,,60,110
19200,note_on,2,0,2,,,,,,,,1,,,57,110
19200,note_on,2,0,10,,,,,,,,10,,,81,110
19200,note_on,2,0,6,,,,,,,,5,,,60,110
19200,note_on,2,0,7,,,,,,,,6,,,81,110
19200,note_on,2,0,5,,,,,,,,4,,,81,110
19200,note_on,2,0,9,,,,,,,,8,,,81,110
19246,note_on,46,0,1,,,,,,,,0,,,81,0
19246,note_on,46,0,6,,,,,,,,5,,,60,0
19246,note_on,46,0,5,,,,,,,,4,,,81,0
19246,note_on,46,0,10,,,,,,,,10,,,81,0
19246,note_on,46,0,4,,,,,,,,3,,,60,0
19246,note_on,46,0,9,,,,,,,,8,,,81,0
19246,note_on,46,0,7,,,,,,,,6,,,81,0
19246,note_on,46,0,3,,,,,,,,2,,,81,0
19248,note_on,2,0,10,,,,,,,,10,,,76,110
19248,note_on,2,0,9,,,,,,,,8,,,76,110
19248,note_on,2,0,1,,,,,,,,0,,,76,110
19248,note_on,2,0,3,,,,,,,,2,,,76,110
19248,note_on,2,0,7,,,,,,,,6,,,76,110
19248,note_on,2,0,5,,,,,,,,4,,,76,110
19248,note_on,2,0,4,,,,,,,,3,,,57,110
19248,note_on,2,0,6,,,,,,,,5,,,64,110
19294,note_on,46,0,1,,,,,,,,0,,,76,0
19294,note_on,46,0,9,,,,,,,,8,,,76,0
19294,note_on,46,0,7,,,,,,,,6,,,76,0
19294,note_on,46,0,6,,,,,,,,5,,,64,0
19294,note_on,94,0,11,,,,,,,,11,,,60,0
19294,note_on,46,0,4,,,,,,,,3,,,57,0
19294,note_on,46,0,3,,,,,,,,2,,,76,0
19294,note_on,46,0,10,,,,,,,,10,,,76,0
19294,note_on,46,0,5,,,,,,,,4,,,76,0
19296,note_on,2,0,11,,,,,,,,11,,,57,110
19296,note_on,2,0,6,,,,,,,,5,,,69,110
19296,note_on,2,0,1,,,,,,,,0,,,76,110
19296,note_on,2,0,5,,,,,,,,4,,,76,110
19296,note_on,98,0,12,,,,,,,,12,,,57,110
19296,note_on,98,0,8,,,,,,,,7,,,57,110
19296,note_on,2,0,10,,,,,,,,10,,,76,110
19296,note_on,2,0,7,,,,,,,,6,,,76,110
19296,note_on,2,0,3,,,,,,,,2,,,76,110
19296,note_on,2,0,9,,,,,,,,8,,,76,110
19296,note_on,2,0,4,,,,,,,,3,,,60,110
19342,note_on,46,0,1,,,,,,,,0,,,76,0
19342,note_on,46,0,7,,,,,,,,6,,,76,0
19342,note_on,46,0,10,,,,,,,,10,,,76,0
19342,note_on,46,0,9,,,,,,,,8,,,76,0
19342,note_on,46,0,5,,,,,,,,4,,,76,0
19342,note_on,46,0,3,,,,,,,,2,,,76,0
19342,note_on,46,0,6,,,,,,,,5,,,69,0
19342,note_on,46,0,4,,,,,,,,3,,,60,0
19344,note_on,2,0,5,,,,,,,,4,,,76,110
19344,note_on,2,0,6,,,,,,,,5,,,57,110
19344,note_on,2,0,7,,,,,,,,6,,,76,110
19344,note_on,2,0,1,,,,,,,,0,,,76,110
19344,note_on,2,0,10,,,,,,,,10,,,76,110
19344,note_on,2,0,4,,,,,,,,3,,,64,110
19344,note_on,2,0,3,,,,,,,,2,,,76,110
19344,note_on,2,0,9,,,,,,,,8,,,76,110
19360,note_on,160,0,2,,,,,,,,1,,,57,0
19390,note_on,46,0,5,,,,,,,,4,,,76,0
19390,note_on,46,0,1,,,,,,,,0,,,76,0
19390,note_on,46,0,4,,,,,,,,3,,,64,0
19390,note_on,46,0,10,,,,,,,,10,,,76,0
19390,note_on,46,0,7,,,,,,,,6,,,76,0
19390,note_on,46,0,9,,,,,,,,8,,,76,0
19390,note_on,46,0,6,,,,,,,,5,,,57,0
19390,note_on,94,0,12,,,,,,,,12,,,57,0
19390,note_on,46,0,3,,,,,,,,2,,,76,0
19390,note_on,94,0,8,,,,,,,,7,,,57,0
19390,note_on,94,0,11,,,,,,,,11,,,57,0
19392,note_on,2,0,8,,,,,,,,7,,,45,110
19392,note_on,2,0,7,,,,,,,,6,,,81,110
19392,note_on,2,0,5,,,,,,,,4,,,81,110
19392,note_on,2,0,4,,,,,,,,3,,,60,110
19392,note_on,2,0,12,,,,,,,,12,,,45,110
19392,note_on,2,0,1,,,,,,,,0,,,81,110
19392,note_on,2,0,9,,,,,,,,8,,,81,110
19392,note_on,2,0,6,,,,,,,,5,,,60,110
19392,note_on,2,0,10,,,,,,,,10,,,81,110
19392,note_on,2,0,3,,,,,,,,2,,,81,110
19438,note_on,46,0,9,,,,,,,,8,,,81,0
19438,note_on,46,0,6,,,,,,,,5,,,60,0
19438,note_on,46,0,3,,,,,,,,2,,,81,0
19438,note_on,46,0,7,,,,,,,,6,,,81,0
19438,note_on,46,0,4,,,,,,,,3,,,60,0
19438,note_on,46,0,1,,,,,,,,0,,,81,0
19438,note_on,46,0,5,,,,,,,,4,,,81,0
19438,note_on,46,0,10,,,,,,,,10,,,81,0
19440,note_on,2,0,4,,,,,,,,3,,,57,110
19440,note_on,2,0,7,,,,,,,,6,,,76,110
19440,note_on,2,0,6,,,,,,,,5,,,64,110
19440,note_on,2,0,10,,,,,,,,10,,,76,110
19440,note_on,2,0,1,,,,,,,,0,,,76,110
19440,note_on,2,0,5,,,,,,,,4,,,76,110
19440,note_on,2,0,3,,,,,,,,2,,,76,110
19440,note_on,2,0,9,,,,,,,,8,,,76,110
19486,note_on,46,0,4,,,,,,,,3,,,57,0
19486,note_on,46,0,1,,,,,,,,0,,,76,0
19486,note_on,46,0,6,,,,,,,,5,,,64,0
19486,note_on,46,0,5,,,,,,,,4,,,76,0
19486,note_on,46,0,7,,,,,,,,6,,,76,0
19486,note_on,46,0,9,,,,,,,,8,,,76,0
19486,note_on,46,0,3,,,,,,,,2,,,76,0
19486,note_on,46,0,10,,,,,,,,10,,,76,0
19488,note_on,2,0,4,,,,,,,,3,,,60,110
19488,note_on,128,0,2,,,,,,,,1,,,57,110
19488,note_on,2,0,6,,,,,,,,5,,,69,110
19488,note_on,2,0,10,,,,,,,,10,,,76,110
19488,note_on,2,0,3,,,,,,,,2,,,76,110
19488,note_on,2,0,5,,,,,,,,4,,,76,110
19488,note_on,98,0,11,,,,,,,,11,,,64,110
19488,note_on,2,0,1,,,,,,,,0,,,76,110
19488,note_on,2,0,9,,,,,,,,8,,,76,110
19488,note_on,2,0,7,,,,,,,,6,,,76,110
19534,note_on,46,0,5,,,,,,,,4,,,76,0
19534,note_on,46,0,9,,,,,,,,8,,,76,0
19534,note_on,46,0,6,,,,,,,,5,,,69,0
19534,note_on,46,0,4,,,,,,,,3,,,60,0
19534,note_on,46,0,10,,,,,,,,10,,,76,0
19534,note_on,46,0,1,,,,,,,,0,,,76,0
19534,note_on,46,0,7,,,,,,,,6,,,76,0
19534,note_on,46,0,3,,,,,,,,2,,,76,0
19536,note_on,2,0,7,,,,,,,,6,,,76,110
19536,note_on,2,0,4,,,,,,,,3,,,64,110
19536,note_on,2,0,5,,,,,,,,4,,,76,110
19536,note_on,2,0,3,,,,,,,,2,,,76,110
19536,note_on,2,0,9,,,,,,,,8,,,76,110
19536,note_on,2,0,6,,,,,,,,5,,,57,110
19536,note_on,2,0,10,,,,,,,,10,,,76,110
19536,note_on,2,0,1,,,,,,,,0,,,76,110
19552,note_on,160,0,8,,,,,,,,7,,,45,0
19552,note_on,160,0,12,,,,,,,,12,,,45,0
19582,note_on,94,0,11,,,,,,,,11,,,64,0
19582,note_on,46,0,3,,,,,,,,2,,,76,0
19582,note_on,46,0,5,,,,,,,,4,,,76,0
19582,note_on,46,0,10,,,,,,,,10,,,76,0
19582,note_on,46,0,1,,,,,,,,0,,,76,0
19582,note_on,46,0,4,,,,,,,,3,,,64,0
19582,note_on,46,0,6,,,,,,,,5,,,57,0
19582,note_on,94,0,2,,,,,,,,1,,,57,0
19582,note_on,46,0,7,,,,,,,,6,,,76,0
19582,note_on,46,0,9,,,,,,,,8,,,76,0
19584,note_on,2,0,2,,,,,,,,1,,,45,110
19584,note_on,2,0,10,,,,,,,,10,,,81,110
19584,note_on,2,0,11,,,,,,,,11,,,60,110
19584,note_on,2,0,7,,,,,,,,6,,,81,110
19584,note_on,2,0,1,,,,,,,,0,,,81,110
19584,note_on,2,0,4,,,,,,,,3,,,60,110
19584,note_on,2,0,5,,,,,,,,4,,,81,110
19584,note_on,2,0,6,,,,,,,,5,,,60,110
19584,note_on,2,0,3,,,,,,,,2,,,81,110
19584,note_on,2,0,9,,,,,,,,8,,,81,110
19630,note_on,46,0,1,,,,,,,,0,,,81,0
19630,note_on,46,0,4,,,,,,,,3,,,60,0
19630,note_on,46,0,9,,,,,,,,8,,,81,0
19630,note_on,46,0,5,,,,,,,,4,,,81,0
19630,note_on,46,0,6,,,,,,,,5,,,60,0
19630,note_on,46,0,7,,,,,,,,6,,,81,0
19630,note_on,46,0,3,,,,,,,,2,,,81,0
19630,note_on,46,0,10,,,,,,,,10,,,81,0
19632,note_on,2,0,6,,,,,,,,5,,,64,110
19632,note_on,2,0,3,,,,,,,,2,,,76,110
19632,note_on,2,0,10,,,,,,,,10,,,76,110
19632,note_on,2,0,1,,,,,,,,0,,,76,110
19632,note_on,2,0,5,,,,,,,,4,,,76,110
19632,note_on,2,0,9,,,,,,,,8,,,76,110
19632,note_on,2,0,4,,,,,,,,3,,,57,110
19632,note_on,2,0,7,,,,,,,,6,,,76,110
19678,note_on,46,0,5,,,,,,,,4,,,76,0
19678,note_on,46,0,1,,,,,,,,0,,,76,0
19678,note_on,46,0,4,,,,,,,,3,,,57,0
19678,note_on,46,0,10,,,,,,,,10,,,76,0
19678,note_on,46,0,9,,,,,,,,8,,,76,0
19678,note_on,46,0,3,,,,,,,,2,,,76,0
19678,note_on,46,0,7,,,,,,,,6,,,76,0
19678,note_on,46,0,6,,,,,,,,5,,,64,0
19678,note_on,94,0,11,,,,,,,,11,,,60,0
19680,note_on,2,0,4,,,,,,,,3,,,60,110
19680,note_on,2,0,5,,,,,,,,4,,,76,110
19680,note_on,2,0,11,,,,,,,,11,,,57,110
19680,note_on,2,0,3,,,,,,,,2,,,76,110
19680,note_on,128,0,12,,,,,,,,12,,,57,110
19680,note_on,2,0,9,,,,,,,,8,,,76,110
19680,note_on,2,0,10,,,,,,,,10,,,76,110
19680,note_on,2,0,1,,,,,,,,0,,,76,110
19680,note_on,128,0,8,,,,,,,,7,,,57,110
19680,note_on,2,0,7,,,,,,,,6,,,76,110
19680,note_on,2,0,6,,,,,,,,5,,,69,110
19726,note_on,46,0,7,,,,,,,,6,,,76,0
19726,note_on,46,0,3,,,,,,,,2,,,76,0
19726,note_on,46,0,9,,,,,,,,8,,,76,0
19726,note_on,46,0,1,,,,,,,,0,,,76,0
19726,note_on,46,0,4,,,,,,,,3,,,60,0
19726,note_on,46,0,10,,,,,,,,10,,,76,0
19726,note_on,46,0,5,,,,,,,,4,,,76,0
19726,note_on,46,0,6,,,,,,,,5,,,69,0
19728,note_on,2,0,6,,,,,,,,5,,,57,110
19728,note_on,2,0,4,,,,,,,,3,,,64,110
19728,note_on,2,0,10,,,,,,,,10,,,76,110
19728,note_on,2,0,3,,,,,,,,2,,,76,110
19728,note_on,2,0,1,,,,,,,,0,,,76,110
19728,note_on,2,0,9,,,,,,,,8,,,76,110
19728,note_on,2,0,5,,,,,,,,4,,,76,110
19728,note_on,2,0,7,,,,,,,,6,,,76,110
19744,note_on,160,0,2,,,,,,,,1,,,45,0
19774,note_on,46,0,3,,,,,,,,2,,,76,0
19774,note_on,94,0,8,,,,,,,,7,,,57,0
19774,note_on,46,0,7,,,,,,,,6,,,76,0
19774,note_on,94,0,11,,,,,,,,11,,,57,0
19774,note_on,94,0,12,,,,,,,,12,,,57,0
19774,note_on,46,0,5,,,,,,,,4,,,76,0
19774,note_on,46,0,9,,,,,,,,8,,,76,0
19774,note_on,46,0,4,,,,,,,,3,,,64,0
19774,note_on,46,0,10,,,,,,,,10,,,76,0
19774,note_on,46,0,6,,,,,,,,5,,,57,0
19774,note_on,46,0,1,,,,,,,,0,,,76,0
19776,note_on,2,0,1,,,,,,,,0,,,81,110
19776,note_on,2,0,4,,,,,,,,3,,,60,110
19776,note_on,2,0,12,,,,,,,,12,,,45,110
19776,note_on,2,0,10,,,,,,,,10,,,81,110
19776,note_on,2,0,3,,,,,,,,2,,,81,110
19776,note_on,2,0,7,,,,,,,,6,,,81,110
19776,note_on,2,0,5,,,,,,,,4,,,81,110
19776,note_on,2,0,9,,,,,,,,8,,,81,110
19776,note_on,2,0,8,,,,,,,,7,,,45,110
19776,note_on,2,0,6,,,,,,,,5,,,60,110
19822,note_on,46,0,1,,,,,,,,0,,,81,0
19822,note_on,46,0,4,,,,,,,,3,,,60,0
19822,note_on,46,0,6,,,,,,,,5,,,60,0
19822,note_on,46,0,7,,,,,,,,6,,,81,0
19822,note_on,46,0,3,,,,,,,,2,,,81,0
19822,note_on,46,0,5,,,,,,,,4,,,81,0
19822,note_on,46,0,9,,,,,,,,8,,,81,0
19822,note_on,46,0,10,,,,,,,,10,,,81,0
19824,note_on,2,0,5,,,,,,,,4,,,76,110
19824,note_on,2,0,4,,,,,,,,3,,,57,110
19824,note_on,2,0,10,,,,,,,,10,,,76,110
19824,note_on,2,0,6,,,,,,,,5,,,64,110
19824,note_on,2,0,1,,,,,,,,0,,,76,110
19824,note_on,2,0,3,,,,,,,,2,,,76,110
19824,note_on,2,0,7,,,,,,,,6,,,76,110
19824,note_on,2,0,9,,,,,,,,8,,,76,110
19870,note_on,46,0,5,,,,,,,,4,,,76,0
19870,note_on,46,0,4,,,,,,,,3,,,57,0
19870,note_on,46,0,6,,,,,,,,5,,,64,0
19870,note_on,46,0,10,,,,,,,,10,,,76,0
19870,note_on,46,0,7,,,,,,,,6,,,76,0
19870,note_on,46,0,3,,,,,,,,2,,,76,0
19870,note_on,46,0,9,,,,,,,,8,,,76,0
19870,note_on,46,0,1,,,,,,,,0,,,76,0
19872,note_on,2,0,4,,,,,,,,3,,,60,110
19872,note_on,2,0,10,,,,,,,,10,,,76,110
19872,note_on,2,0,3,,,,,,,,2,,,76,110
19872,note_on,2,0,1,,,,,,,,0,,,76,110
19872,note_on,128,0,2,,,,,,,,1,,,57,110
19872,note_on,98,0,11,,,,,,,,11,,,64,110
19872,note_on,2,0,6,,,,,,,,5,,,69,110
19872,note_on,2,0,5,,,,,,,,4,,,76,110
19872,note_on,2,0,9,,,,,,,,8,,,76,110
19872,note_on,2,0,7,,,,,,,,6,,,76,110
19918,note_on,46,0,3,,,,,,,,2,,,76,0
19918,note_on,46,0,4,,,,,,,,3,,,60,0
19918,note_on,46,0,1,,,,,,,,0,,,76,0
19918,note_on,46,0,10,,,,,,,,10,,,76,0
19918,note_on,46,0,9,,,,,,,,8,,,76,0
19918,note_on,46,0,6,,,,,,,,5,,,69,0
19918,note_on,46,0,5,,,,,,,,4,,,76,0
19918,note_on,46,0,7,,,,,,,,6,,,76,0
19920,note_on,2,0,1,,,,,,,,0,,,76,110
19920,note_on,2,0,9,,,,,,,,8,,,76,110
19920,note_on,2,0,6,,,,,,,,5,,,57,110
19920,note_on,2,0,5,,,,,,,,4,,,76,110
19920,note_on,2,0,10,,,,,,,,10,,,76,110
19920,note_on,2,0,3,,,,,,,,2,,,76,110
19920,note_on,2,0,4,,,,,,,,3,,,64,110
19920,note_on,2,0,7,,,,,,,,6,,,76,110
19936,note_on,160,0,8,,,,,,,,7,,,45,0
19936,note_on,160,0,12,,,,,,,,12,,,45,0
19966,note_on,46,0,9,,,,,,,,8,,,76,0
19966,note_on,94,0,2,,,,,,,,1,,,57,0
19966,note_on,46,0,6,,,,,,,,5,,,57,0
19966,note_on,94,0,11,,,,,,,,11,,,64,0
19966,note_on,46,0,4,,,,,,,,3,,,64,0
19966,note_on,46,0,10,,,,,,,,10,,,76,0
19966,note_on,46,0,7,,,,,,,,6,,,76,0
19966,note_on,46,0,1,,,,,,,,0,,,76,0
19966,note_on,46,0,3,,,,,,,,2,,,76,0
19966,note_on,46,0,5,,,,,,,,4,,,76,0
19968,note_on,2,0,9,,,,,,,,8,,,81,110
19968,note_on,2,0,11,,,,,,,,11,,,64,110
19968,note_on,2,0,6,,,,,,,,5,,,60,110
19968,note_on,2,0,3,,,,,,,,2,,,81,110
19968,note_on,2,0,10,,,,,,,,10,,,81,110
19968,note_on,2,0,2,,,,,,,,1,,,45,110
19968,note_on,2,0,5,,,,,,,,4,,,81,110
19968,note_on,2,0,4,,,,,,,,3,,,60,110
19968,note_on,2,0,7,,,,,,,,6,,,81,110
19968,note_on,2,0,1,,,,,,,,0,,,81,110
20014,note_on,46,0,6,,,,,,,,5,,,60,0
20014,note_on,46,0,4,,,,,,,,3,,,60,0
20016,note_on,2,0,6,,,,,,,,5,,,64,110
20016,note_on,2,0,4,,,,,,,,3,,,59,110
20062,note_on,94,0,5,,,,,,,,4,,,81,0
20062,note_on,94,0,11,,,,,,,,11,,,64,0
20062,note_on,46,0,6,,,,,,,,5,,,64,0
20062,note_on,94,0,2,,,,,,,,1,,,45,0
20062,note_on,94,0,7,,,,,,,,6,,,81,0
20062,note_on,94,0,10,,,,,,,,10,,,81,0
20062,note_on,46,0,4,,,,,,,,3,,,59,0
20062,note_on,94,0,1,,,,,,,,0,,,81,0
20062,note_on,94,0,3,,,,,,,,2,,,81,0
20062,note_on,94,0,9,,,,,,,,8,,,81,0
20064,note_on,2,0,7,,,,,,,,6,,,79,110
20064,note_on,128,0,12,,,,,,,,12,,,57,110
20064,note_on,2,0,3,,,,,,,,2,,,79,110
20064,note_on,2,0,4,,,,,,,,3,,,60,110
20064,note_on,2,0,11,,,,,,,,11,,,72,110
20064,note_on,2,0,6,,,,,,,,5,,,69,110
20064,note_on,2,0,10,,,,,,,,10,,,79,110
20064,note_on,2,0,1,,,,,,,,0,,,79,110
20064,note_on,2,0,2,,,,,,,,1,,,57,110
20064,note_on,2,0,5,,,,,,,,4,,,79,110
20064,note_on,128,0,8,,,,,,,,7,,,57,110
20064,note_on,2,0,9,,,,,,,,8,,,79,110
20110,note_on,46,0,7,,,,,,,,6,,,79,0
20110,note_on,46,0,3,,,,,,,,2,,,79,0
20110,note_on,46,0,4,,,,,,,,3,,,60,0
20110,note_on,46,0,9,,,,,,,,8,,,79,0
20110,note_on,46,0,5,,,,,,,,4,,,79,0
20110,note_on,46,0,10,,,,,,,,10,,,79,0
20110,note_on,46,0,1,,,,,,,,0,,,79,0
20112,note_on,2,0,4,,,,,,,,3,,,62,110
20112,note_on,2,0,9,,,,,,,,8,,,77,110
20112,note_on,2,0,7,,,,,,,,6,,,77,110
20112,note_on,2,0,10,,,,,,,,10,,,77,110
20112,note_on,2,0,3,,,,,,,,2,,,77,110
20112,note_on,2,0,5,,,,,,,,4,,,77,110
20112,note_on,2,0,1,,,,,,,,0,,,77,110
20158,note_on,46,0,4,,,,,,,,3,,,62,0
20158,note_on,94,0,11,,,,,,,,11,,,72,0
20158,note_on,94,0,8,,,,,,,,7,,,57,0
20158,note_on,46,0,3,,,,,,,,2,,,77,0
20158,note_on,46,0,10,,,,,,,,10,,,77,0
20158,note_on,46,0,5,,,,,,,,4,,,77,0
20158,note_on,46,0,1,,,,,,,,0,,,77,0
20158,note_on,94,0,12,,,,,,,,12,,,57,0
20158,note_on,46,0,7,,,,,,,,6,,,77,0
20158,note_on,46,0,9,,,,,,,,8,,,77,0
20158,note_on,94,0,6,,,,,,,,5,,,69,0
20158,note_on,94,0,2,,,,,,,,1,,,57,0
20160,note_on,2,0,9,,,,,,,,8,,,76,110
20160,note_on,2,0,7,,,,,,,,6,,,76,110
20160,note_on,2,0,8,,,,,,,,7,,,56,110
20160,note_on,2,0,10,,,,,,,,10,,,76,110
20160,note_on,2,0,4,,,,,,,,3,,,64,110
20160,note_on,2,0,1,,,,,,,,0,,,76,110
20160,note_on,2,0,2,,,,,,,,1,,,56,110
20160,note_on,2,0,3,,,,,,,,2,,,76,110
20160,note_on,2,0,11,,,,,,,,11,,,71,110
20160,note_on,2,0,12,,,,,,,,12,,,56,110
20160,note_on,2,0,5,,,,,,,,4,,,76,110
20206,note_on,46,0,4,,,,,,,,3,,,64,0
20208,note_on,2,0,4,,,,,,,,3,,,66,110
20208,note_on,50,0,6,,,,,,,,5,,,57,110
20254,note_on,94,0,8,,,,,,,,7,,,56,0
20254,note_on,46,0,4,,,,,,,,3,,,66,0
20254,note_on,94,0,7,,,,,,,,6,,,76,0
20254,note_on,94,0,3,,,,,,,,2,,,76,0
20254,note_on,94,0,11,,,,,,,,11,,,71,0
20254,note_on,94,0,2,,,,,,,,1,,,56,0
20254,note_on,94,0,5,,,,,,,,4,,,76,0
20254,note_on,94,0,9,,,,,,,,8,,,76,0
20254,note_on,94,0,12,,,,,,,,12,,,56,0
20254,note_on,94,0,1,,,,,,,,0,,,76,0
20254,note_on,46,0,6,,,,,,,,5,,,57,0
20254,note_on,94,0,10,,,,,,,,10,,,76,0
20256,note_on,2,0,8,,,,,,,,7,,,52,110
20256,note_on,2,0,7,,,,,,,,6,,,74,110
20256,note_on,2,0,11,,,,,,,,11,,,68,110
20256,note_on,2,0,1,,,,,,,,0,,,74,110
20256,note_on,2,0,12,,,,,,,,12,,,52,110
20256,note_on,2,0,10,,,,,,,,10,,,74,110
20256,note_on,2,0,5,,,,,,,,4,,,74,110
20256,note_on,2,0,4,,,,,,,,3,,,68,110
20256,note_on,2,0,2,,,,,,,,1,,,52,110
20256,note_on,2,0,9,,,,,,,,8,,,74,110
20256,note_on,2,0,3,,,,,,,,2,,,74,110
20256,note_on,2,0,6,,,,,,,,5,,,59,110
20302,note_on,46,0,6,,,,,,,,5,,,59,0
20302,note_on,46,0,4,,,,,,,,3,,,68,0
20304,note_on,2,0,6,,,,,,,,5,,,56,110
20304,note_on,2,0,4,,,,,,,,3,,,64,110
20350,note_on,94,0,7,,,,,,,,6,,,74,0
20350,note_on,46,0,4,,,,,,,,3,,,64,0
20350,note_on,94,0,5,,,,,,,,4,,,74,0
20350,note_on,94,0,12,,,,,,,,12,,,52,0
20350,note_on,94,0,10,,,,,,,,10,,,74,0
20350,note_on,94,0,9,,,,,,,,8,,,74,0
20350,note_on,94,0,11,,,,,,,,11,,,68,0
20350,note_on,46,0,6,,,,,,,,5,,,56,0
20350,note_on,94,0,3,,,,,,,,2,,,74,0
20350,note_on,94,0,2,,,,,,,,1,,,52,0
20350,note_on,94,0,1,,,,,,,,0,,,74,0
20350,note_on,94,0,8,,,,,,,,7,,,52,0
20352,note_on,2,0,12,,,,,,,,12,,,45,110
20352,note_on,2,0,6,,,,,,,,5,,,57,110
20352,note_on,2,0,4,,,,,,,,3,,,69,110
20352,note_on,2,0,10,,,,,,,,10,,,72,110
20352,note_on,2,0,9,,,,,,,,8,,,72,110
20352,note_on,2,0,8,,,,,,,,7,,,45,110
20352,note_on,2,0,1,,,,,,,,0,,,72,110
20352,note_on,2,0,5,,,,,,,,4,,,72,110
20352,note_on,2,0,11,,,,,,,,11,,,64,110
20352,note_on,2,0,7,,,,,,,,6,,,72,110
20352,note_on,2,0,2,,,,,,,,1,,,45,110
20352,note_on,2,0,3,,,,,,,,2,,,72,110
20398,note_on,46,0,10,,,,,,,,10,,,72,0
20398,note_on,46,0,4,,,,,,,,3,,,69,0
20398,note_on,46,0,6,,,,,,,,5,,,57,0
20400,note_on,2,0,6,,,,,,,,5,,,59,110
20400,note_on,2,0,10,,,,,,,,10,,,71,110
20400,note_on,2,0,4,,,,,,,,3,,,67,110
20446,note_on,94,0,7,,,,,,,,6,,,72,0
20446,note_on,94,0,2,,,,,,,,1,,,45,0
20446,note_on,46,0,6,,,,,,,,5,,,59,0
20446,note_on,94,0,8,,,,,,,,7,,,45,0
20446,note_on,46,0,10,,,,,,,,10,,,71,0
20446,note_on,94,0,5,,,,,,,,4,,,72,0
20446,note_on,94,0,12,,,,,,,,12,,,45,0
20446,note_on,94,0,11,,,,,,,,11,,,64,0
20446,note_on,46,0,4,,,,,,,,3,,,67,0
20448,note_on,2,0,5,,,,,,,,4,,,69,110
20448,note_on,2,0,8,,,,,,,,7,,,50,110
20448,note_on,2,0,6,,,,,,,,5,,,60,110
20448,note_on,2,0,11,,,,,,,,11,,,65,110
20448,note_on,2,0,4,,,,,,,,3,,,65,110
20448,note_on,2,0,7,,,,,,,,6,,,69,110
20448,note_on,2,0,10,,,,,,,,10,,,69,110
20448,note_on,2,0,12,,,,,,,,12,,,50,110
20448,note_on,2,0,2,,,,,,,,1,,,50,110
20494,note_on,46,0,4,,,,,,,,3,,,65,0
20494,note_on,46,0,6,,,,,,,,5,,,60,0
20496,note_on,2,0,6,,,,,,,,5,,,57,110
20496,note_on,2,0,4,,,,,,,,3,,,64,110
20512,note_on,160,0,1,,,,,,,,0,,,72,0
20512,note_on,160,0,9,,,,,,,,8,,,72,0
20512,note_on,160,0,3,,,,,,,,2,,,72,0
20542,note_on,46,0,4,,,,,,,,3,,,64,0
20542,note_on,94,0,11,,,,,,,,11,,,65,0
20542,note_on,94,0,12,,,,,,,,12,,,50,0
20542,note_on,94,0,8,,,,,,,,7,,,50,0
20542,note_on,94,0,2,,,,,,,,1,,,50,0
20542,note_on,46,0,6,,,,,,,,5,,,57,0
20544,note_on,2,0,2,,,,,,,,1,,,52,110
20544,note_on,32,0,1,,,,,,,,0,,,72,110
20544,note_on,2,0,12,,,,,,,,12,,,52,110
20544,note_on,32,0,9,,,,,,,,8,,,72,110
20544,note_on,2,0,11,,,,,,,,11,,,59,110
20544,note_on,2,0,4,,,,,,,,3,,,62,110
20544,note_on,2,0,6,,,,,,,,5,,,52,110
20544,note_on,2,0,8,,,,,,,,7,,,52,110
20544,note_on,32,0,3,,,,,,,,2,,,71,110
20566,note_on,22,0,9,,,,,,,,8,,,72,0
20566,note_on,22,0,1,,,,,,,,0,,,72,0
20568,note_on,2,0,1,,,,,,,,0,,,71,110
20568,note_on,2,0,9,,,,,,,,8,,,71,110
20590,note_on,46,0,4,,,,,,,,3,,,62,0
20590,note_on,46,0,6,,,,,,,,5,,,52,0
20590,note_on,22,0,1,,,,,,,,0,,,71,0
20590,note_on,22,0,9,,,,,,,,8,,,71,0
20592,note_on,2,0,4,,,,,,,,3,,,65,110
20592,note_on,2,0,1,,,,,,,,0,,,72,110
20592,note_on,2,0,9,,,,,,,,8,,,72,110
20592,note_on,2,0,6,,,,,,,,5,,,59,110
20608,note_on,160,0,10,,,,,,,,10,,,69,0
20608,note_on,160,0,5,,,,,,,,4,,,69,0
20608,note_on,160,0,7,,,,,,,,6,,,69,0
20614,note_on,22,0,9,,,,,,,,8,,,72,0
20614,note_on,22,0,1,,,,,,,,0,,,72,0
20616,note_on,2,0,1,,,,,,,,0,,,71,110
20616,note_on,2,0,9,,,,,,,,8,,,71,110
20638,note_on,22,0,9,,,,,,,,8,,,71,0
20638,note_on,46,0,6,,,,,,,,5,,,59,0
20638,note_on,94,0,11,,,,,,,,11,,,59,0
20638,note_on,46,0,4,,,,,,,,3,,,65,0
20638,note_on,94,0,8,,,,,,,,7,,,52,0
20638,note_on,94,0,12,,,,,,,,12,,,52,0
20638,note_on,22,0,1,,,,,,,,0,,,71,0
20638,note_on,94,0,2,,,,,,,,1,,,52,0
20640,note_on,2,0,9,,,,,,,,8,,,72,110
20640,note_on,32,0,7,,,,,,,,6,,,68,110
20640,note_on,2,0,1,,,,,,,,0,,,72,110
20640,note_on,32,0,10,,,,,,,,10,,,69,110
20640,note_on,2,0,12,,,,,,,,12,,,40,110
20640,note_on,2,0,6,,,,,,,,5,,,64,110
20640,note_on,2,0,11,,,,,,,,11,,,64,110
20640,note_on,2,0,4,,,,,,,,3,,,64,110
20640,note_on,2,0,8,,,,,,,,7,,,40,110
20640,note_on,32,0,5,,,,,,,,4,,,68,110
20640,note_on,2,0,2,,,,,,,,1,,,40,110
20662,note_on,22,0,9,,,,,,,,8,,,72,0
20662,note_on,22,0,10,,,,,,,,10,,,69,0
20662,note_on,22,0,1,,,,,,,,0,,,72,0
20664,note_on,2,0,1,,,,,,,,0,,,71,110
20664,note_on,2,0,9,,,,,,,,8,,,71,110
20664,note_on,2,0,10,,,,,,,,10,,,68,110
20686,note_on,46,0,6,,,,,,,,5,,,64,0
20686,note_on,22,0,9,,,,,,,,8,,,71,0
20686,note_on,22,0,1,,,,,,,,0,,,71,0
20686,note_on,22,0,10,,,,,,,,10,,,68,0
20686,note_on,46,0,4,,,,,,,,3,,,64,0
20688,note_on,2,0,4,,,,,,,,3,,,62,110
20688,note_on,2,0,1,,,,,,,,0,,,72,110
20688,note_on,2,0,9,,,,,,,,8,,,72,110
20688,note_on,2,0,6,,,,,,,,5,,,59,110
20688,note_on,2,0,10,,,,,,,,10,,,69,110
20704,note_on,160,0,3,,,,,,,,2,,,71,0
20710,note_on,22,0,1,,,,,,,,0,,,72,0
20710,note_on,22,0,9,,,,,,,,8,,,72,0
20710,note_on,22,0,10,,,,,,,,10,,,69,0
20712,note_on,2,0,1,,,,,,,,0,,,71,110
20712,note_on,2,0,9,,,,,,,,8,,,71,110
20712,note_on,2,0,10,,,,,,,,10,,,68,110
20734,note_on,22,0,1,,,,,,,,0,,,71,0
20734,note_on,94,0,12,,,,,,,,12,,,40,0
20734,note_on,94,0,2,,,,,,,,1,,,40,0
20734,note_on,94,0,5,,,,,,,,4,,,68,0
20734,note_on,46,0,6,,,,,,,,5,,,59,0
20734,note_on,22,0,10,,,,,,,,10,,,68,0
20734,note_on,94,0,8,,,,,,,,7,,,40,0
20734,note_on,94,0,7,,,,,,,,6,,,68,0
20734,note_on,94,0,11,,,,,,,,11,,,64,0
20734,note_on,22,0,9,,,,,,,,8,,,71,0
20734,note_on,46,0,4,,,,,,,,3,,,62,0
20736,note_on,2,0,10,,,,,,,,10,,,64,110
20736,note_on,0,0,10,,,,,,,,10,,,69,110
20736,note_on,2,0,8,,,,,,,,7,,,45,110
20736,note_on,2,0,12,,,,,,,,12,,,45,110
20736,note_on,2,0,7,,,,,,,,6,,,69,110
20736,note_on,32,0,3,,,,,,,,2,,,69,110
20736,note_on,2,0,5,,,,,,,,4,,,69,110
20736,note_on,2,0,2,,,,,,,,1,,,45,110
20736,note_on,2,0,1,,,,,,,,0,,,69,110
20736,note_on,2,0,11,,,,,,,,11,,,60,110
20736,note_on,2,0,9,,,,,,,,8,,,69,110
20736,note_on,2,0,4,,,,,,,,3,,,60,110
20736,note_on,2,0,6,,,,,,,,5,,,60,110
20784,note_on,0,0,1,,,,,,,,0,,,72,110
20784,note_on,48,0,1,,,,,,,,0,,,69,0
20830,note_on,94,0,4,,,,,,,,3,,,60,0
20832,note_on,0,0,1,,,,,,,,0,,,71,110
20832,note_on,48,0,1,,,,,,,,0,,,72,0
20832,note_on,2,0,4,,,,,,,,3,,,64,110
20878,note_on,46,0,1,,,,,,,,0,,,71,0
20880,note_on,2,0,1,,,,,,,,0,,,69,110
20896,note_on,160,0,7,,,,,,,,6,,,69,0
20896,note_on,160,0,11,,,,,,,,11,,,60,0
20896,note_on,160,0,9,,,,,,,,8,,,69,0
20896,note_on,160,0,8,,,,,,,,7,,,45,0
20896,note_on,160,0,6,,,,,,,,5,,,60,0
20896,note_on,160,0,10,,,,,,,,10,,,69,0
20896,note_on,160,0,3,,,,,,,,2,,,69,0
20896,note_on,160,0,2,,,,,,,,1,,,45,0
20896,note_on,160,0,12,,,,,,,,12,,,45,0
20896,note_on,160,0,5,,,,,,,,4,,,69,0
20896,note_on,0,0,10,,,,,,,,10,,,64,0
20926,note_on,94,0,4,,,,,,,,3,,,64,0
20926,note_on,46,0,1,,,,,,,,0,,,69,0
20928,note_on,2,0,1,,,,,,,,0,,,76,110
20928,note_on,2,0,4,,,,,,,,3,,,57,110
20974,note_on,46,0,1,,,,,,,,0,,,76,0
20976,note_on,2,0,1,,,,,,,,0,,,72,110
21022,note_on,94,0,4,,,,,,,,3,,,57,0
21022,note_on,46,0,1,,,,,,,,0,,,72,0
21024,note_on,2,0,1,,,,,,,,0,,,71,110
21024,note_on,128,0,6,,,,,,,,5,,,64,110
21024,note_on,2,0,4,,,,,,,,3,,,60,110
21070,note_on,46,0,1,,,,,,,,0,,,71,0
21072,note_on,2,0,1,,,,,,,,0,,,69,110
21118,note_on,94,0,4,,,,,,,,3,,,60,0
21118,note_on,94,0,6,,,,,,,,5,,,64,0
21118,note_on,46,0,1,,,,,,,,0,,,69,0
21120,note_on,224,0,12,,,,,,,,12,,,45,45
21120,note_on,2,0,6,,,,,,,,5,,,57,110
21120,note_on,224,0,11,,,,,,,,11,,,57,45
21120,note_on,2,0,1,,,,,,,,0,,,64,110
21120,note_on,224,0,9,,,,,,,,8,,,64,45
21120,note_on,2,0,4,,,,,,,,3,,,52,110
21120,note_on,224,0,2,,,,,,,,1,,,45,110
21120,note_on,224,0,10,,,,,,,,10,,,60,45
21168,note_on,0,0,1,,,,,,,,0,,,72,110
21168,note_on,48,0,1,,,,,,,,0,,,64,0
21214,note_on,94,0,4,,,,,,,,3,,,52,0
21214,note_on,94,0,6,,,,,,,,5,,,57,0
21216,note_on,0,0,1,,,,,,,,0,,,71,110
21216,note_on,320,0,8,,,,,,,,7,,,64,110
21216,note_on,48,0,1,,,,,,,,0,,,72,0
21216,note_on,2,0,4,,,,,,,,3,,,57,110
21216,note_on,2,0,6,,,,,,,,5,,,60,110
21262,note_on,46,0,1,,,,,,,,0,,,71,0
21264,note_on,2,0,1,,,,,,,,0,,,69,110
21280,note_on,160,0,9,,,,,,,,8,,,64,0
21280,note_on,160,0,12,,,,,,,,12,,,45,0
21280,note_on,160,0,11,,,,,,,,11,,,57,0
21280,note_on,160,0,10,,,,,,,,10,,,60,0
21280,note_on,160,0,2,,,,,,,,1,,,45,0
21310,note_on,94,0,8,,,,,,,,7,,,64,0
21310,note_on,46,0,1,,,,,,,,0,,,69,0
21310,note_on,94,0,4,,,,,,,,3,,,57,0
21310,note_on,94,0,6,,,,,,,,5,,,60,0
21312,note_on,2,0,4,,,,,,,,3,,,48,110
21312,note_on,2,0,8,,,,,,,,7,,,57,110
21312,note_on,2,0,1,,,,,,,,0,,,76,110
21312,note_on,2,0,6,,,,,,,,5,,,52,110
21358,note_on,46,0,1,,,,,,,,0,,,76,0
21360,note_on,2,0,1,,,,,,,,0,,,72,110
21406,note_on,94,0,4,,,,,,,,3,,,48,0
21406,note_on,46,0,1,,,,,,,,0,,,72,0
21406,note_on,94,0,8,,,,,,,,7,,,57,0
21406,note_on,94,0,6,,,,,,,,5,,,52,0
21408,note_on,2,0,6,,,,,,,,5,,,57,110
21408,note_on,2,0,1,,,,,,,,0,,,71,110
21408,note_on,2,0,8,,,,,,,,7,,,60,110
21408,note_on,2,0,4,,,,,,,,3,,,52,110
21454,note_on,46,0,1,,,,,,,,0,,,71,0
21456,note_on,2,0,1,,,,,,,,0,,,69,110
21502,note_on,94,0,6,,,,,,,,5,,,57,0
21502,note_on,94,0,8,,,,,,,,7,,,60,0
21502,note_on,46,0,1,,,,,,,,0,,,69,0
21502,note_on,94,0,4,,,,,,,,3,,,52,0
21504,note_on,2,0,6,,,,,,,,5,,,48,110
21504,note_on,224,0,9,,,,,,,,8,,,69,45
21504,note_on,224,0,11,,,,,,,,11,,,60,45
21504,note_on,2,0,1,,,,,,,,0,,,64,110
21504,note_on,224,0,2,,,,,,,,1,,,45,110
21504,note_on,224,0,12,,,,,,,,12,,,45,45
21504,note_on,224,0,10,,,,,,,,10,,,64,45
21504,note_on,2,0,4,,,,,,,,3,,,45,110
21504,note_on,2,0,8,,,,,,,,7,,,52,110
21552,note_on,0,0,1,,,,,,,,0,,,72,110
21552,note_on,48,0,1,,,,,,,,0,,,64,0
21598,note_on,94,0,8,,,,,,,,7,,,52,0
21598,note_on,94,0,6,,,,,,,,5,,,48,0
21600,note_on,2,0,8,,,,,,,,7,,,57,110
21600,note_on,48,0,1,,,,,,,,0,,,72,0
21600,note_on,704,0,3,,,,,,,,2,,,84,110
21600,note_on,0,0,1,,,,,,,,0,,,71,110
21600,note_on,2,0,6,,,,,,,,5,,,52,110
21646,note_on,46,0,1,,,,,,,,0,,,71,0
21648,note_on,2,0,1,,,,,,,,0,,,69,110
21664,note_on,160,0,12,,,,,,,,12,,,45,0
21664,note_on,160,0,11,,,,,,,,11,,,60,0
21664,note_on,160,0,4,,,,,,,,3,,,45,0
21664,note_on,160,0,2,,,,,,,,1,,,45,0
21664,note_on,160,0,10,,,,,,,,10,,,64,0
21664,note_on,160,0,9,,,,,,,,8,,,69,0
21694,note_on,46,0,1,,,,,,,,0,,,69,0
21694,note_on,94,0,8,,,,,,,,7,,,57,0
21694,note_on,94,0,6,,,,,,,,5,,,52,0
21694,note_on,94,0,3,,,,,,,,2,,,84,0
21696,note_on,2,0,8,,,,,,,,7,,,48,110
21696,note_on,2,0,1,,,,,,,,0,,,76,110
21696,note_on,2,0,3,,,,,,,,2,,,76,110
21696,note_on,2,0,6,,,,,,,,5,,,45,110
21742,note_on,46,0,1,,,,,,,,0,,,76,0
21744,note_on,2,0,1,,,,,,,,0,,,72,110
21790,note_on,46,0,1,,,,,,,,0,,,72,0
21790,note_on,94,0,3,,,,,,,,2,,,76,0
21790,note_on,94,0,8,,,,,,,,7,,,48,0
21792,note_on,896,0,5,,,,,,,,4,,,84,110
21792,note_on,2,0,1,,,,,,,,0,,,71,110
21792,note_on,2,0,3,,,,,,,,2,,,81,110
21792,note_on,2,0,8,,,,,,,,7,,,52,110
21838,note_on,46,0,1,,,,,,,,0,,,71,0
21840,note_on,2,0,1,,,,,,,,0,,,69,110
21856,note_on,160,0,6,,,,,,,,5,,,45,0
21886,note_on,94,0,8,,,,,,,,7,,,52,0
21886,note_on,46,0,1,,,,,,,,0,,,69,0
21886,note_on,94,0,5,,,,,,,,4,,,84,0
21886,note_on,94,0,3,,,,,,,,2,,,81,0
21888,note_on,2,0,8,,,,,,,,7,,,45,110
21888,note_on,224,0,2,,,,,,,,1,,,45,110
21888,note_on,2,0,5,,,,,,,,4,,,76,110
21888,note_on,224,0,10,,,,,,,,10,,,69,45
21888,note_on,224,0,9,,,,,,,,8,,,72,45
21888,note_on,2,0,3,,,,,,,,2,,,72,110
21888,note_on,224,0,12,,,,,,,,12,,,45,45
21888,note_on,224,0,11,,,,,,,,11,,,64,45
21888,note_on,2,0,1,,,,,,,,0,,,81,110
21936,note_on,48,0,1,,,,,,,,0,,,81,0
21936,note_on,0,0,1,,,,,,,,0,,,72,110
21982,note_on,94,0,5,,,,,,,,4,,,76,0
21982,note_on,94,0,3,,,,,,,,2,,,72,0
21984,note_on,2,0,5,,,,,,,,4,,,81,110
21984,note_on,48,0,1,,,,,,,,0,,,72,0
21984,note_on,0,0,1,,,,,,,,0,,,71,110
21984,note_on,1088,0,7,,,,,,,,6,,,84,110
21984,note_on,2,0,3,,,,,,,,2,,,76,110
22030,note_on,46,0,1,,,,,,,,0,,,71,0
22032,note_on,2,0,1,,,,,,,,0,,,69,110
22048,note_on,160,0,12,,,,,,,,12,,,45,0
22048,note_on,160,0,8,,,,,,,,7,,,45,0
22048,note_on,160,0,2,,,,,,,,1,,,45,0
22048,note_on,160,0,11,,,,,,,,11,,,64,0
22048,note_on,160,0,9,,,,,,,,8,,,72,0
22048,note_on,160,0,10,,,,,,,,10,,,69,0
22078,note_on,94,0,5,,,,,,,,4,,,81,0
22078,note_on,94,0,3,,,,,,,,2,,,76,0
22078,note_on,46,0,1,,,,,,,,0,,,69,0
22078,note_on,94,0,7,,,,,,,,6,,,84,0
22080,note_on,2,0,7,,,,,,,,6,,,76,110
22080,note_on,2,0,1,,,,,,,,0,,,76,110
22080,note_on,2,0,3,,,,,,,,2,,,69,110
22080,note_on,2,0,5,,,,,,,,4,,,72,110
22126,note_on,46,0,1,,,,,,,,0,,,76,0
22128,note_on,2,0,1,,,,,,,,0,,,72,110
22174,note_on,46,0,1,,,,,,,,0,,,72,0
22174,note_on,94,0,5,,,,,,,,4,,,72,0
22174,note_on,94,0,7,,,,,,,,6,,,76,0
22174,note_on,94,0,3,,,,,,,,2,,,69,0
22176,note_on,2,0,7,,,,,,,,6,,,81,110
22176,note_on,2,0,5,,,,,,,,4,,,76,110
22176,note_on,2,0,1,,,,,,,,0,,,71,110
22176,note_on,2,0,3,,,,,,,,2,,,72,110
22222,note_on,46,0,1,,,,,,,,0,,,71,0
22224,note_on,2,0,1,,,,,,,,0,,,69,110
22270,note_on,46,0,1,,,,,,,,0,,,69,0
22270,note_on,94,0,7,,,,,,,,6,,,81,0
22270,note_on,94,0,5,,,,,,,,4,,,76,0
22270,note_on,94,0,3,,,,,,,,2,,,72,0
22272,note_on,2,0,7,,,,,,,,6,,,72,110
22272,note_on,2,0,3,,,,,,,,2,,,64,110
22272,note_on,224,0,10,,,,,,,,10,,,72,45
22272,note_on,224,0,2,,,,,,,,1,,,45,110
22272,note_on,2,0,5,,,,,,,,4,,,69,110
22272,note_on,2,0,1,,,,,,,,0,,,81,110
22272,note_on,224,0,12,,,,,,,,12,,,45,45
22272,note_on,224,0,9,,,,,,,,8,,,76,45
22272,note_on,224,0,11,,,,,,,,11,,,69,45
22320,note_on,0,0,1,,,,,,,,0,,,72,110
22320,note_on,48,0,1,,,,,,,,0,,,81,0
22366,note_on,94,0,3,,,,,,,,2,,,64,0
22366,note_on,94,0,7,,,,,,,,6,,,72,0
22366,note_on,94,0,5,,,,,,,,4,,,69,0
22368,note_on,0,0,1,,,,,,,,0,,,71,110
22368,note_on,48,0,1,,,,,,,,0,,,72,0
22368,note_on,2,0,7,,,,,,,,6,,,76,110
22368,note_on,2,0,3,,,,,,,,2,,,69,110
22368,note_on,2,0,5,,,,,,,,4,,,72,110
22414,note_on,46,0,1,,,,,,,,0,,,71,0
22416,note_on,2,0,1,,,,,,,,0,,,69,110
22432,note_on,160,0,12,,,,,,,,12,,,45,0
22432,note_on,160,0,10,,,,,,,,10,,,72,0
22432,note_on,160,0,9,,,,,,,,8,,,76,0
22432,note_on,160,0,11,,,,,,,,11,,,69,0
22432,note_on,160,0,2,,,,,,,,1,,,45,0
22462,note_on,94,0,5,,,,,,,,4,,,72,0
22462,note_on,94,0,3,,,,,,,,2,,,69,0
22462,note_on,94,0,7,,,,,,,,6,,,76,0
22462,note_on,46,0,1,,,,,,,,0,,,69,0
22464,note_on,2,0,5,,,,,,,,4,,,64,110
22464,note_on,2,0,1,,,,,,,,0,,,76,110
22464,note_on,2,0,7,,,,,,,,6,,,69,110
22464,note_on,2,0,3,,,,,,,,2,,,60,110
22510,note_on,46,0,1,,,,,,,,0,,,76,0
22512,note_on,2,0,1,,,,,,,,0,,,72,110
22558,note_on,46,0,1,,,,,,,,0,,,72,0
22558,note_on,94,0,5,,,,,,,,4,,,64,0
22558,note_on,94,0,7,,,,,,,,6,,,69,0
22558,note_on,94,0,3,,,,,,,,2,,,60,0
22560,note_on,2,0,7,,,,,,,,6,,,72,110
22560,note_on,2,0,5,,,,,,,,4,,,69,110
22560,note_on,2,0,3,,,,,,,,2,,,64,110
22560,note_on,2,0,1,,,,,,,,0,,,71,110
22606,note_on,46,0,1,,,,,,,,0,,,71,0
22608,note_on,2,0,1,,,,,,,,0,,,69,110
22654,note_on,46,0,1,,,,,,,,0,,,69,0
22654,note_on,94,0,5,,,,,,,,4,,,69,0
22654,note_on,94,0,3,,,,,,,,2,,,64,0
22654,note_on,94,0,7,,,,,,,,6,,,72,0
22656,note_on,224,0,10,,,,,,,,10,,,76,45
22656,note_on,2,0,5,,,,,,,,4,,,60,110
22656,note_on,224,0,11,,,,,,,,11,,,72,45
22656,note_on,224,0,2,,,,,,,,1,,,45,110
22656,note_on,224,0,12,,,,,,,,12,,,45,45
22656,note_on,2,0,1,,,,,,,,0,,,81,110
22656,note_on,2,0,7,,,,,,,,6,,,64,110
22656,note_on,224,0,9,,,,,,,,8,,,81,45
22656,note_on,2,0,3,,,,,,,,2,,,57,110
22750,note_on,94,0,1,,,,,,,,0,,,81,0
22750,note_on,94,0,5,,,,,,,,4,,,60,0
22750,note_on,94,0,7,,,,,,,,6,,,64,0
22752,note_on,2,0,7,,,,,,,,6,,,69,110
22752,note_on,2,0,1,,,,,,,,0,,,69,110
22752,note_on,2,0,5,,,,,,,,4,,,64,110
22816,note_on,160,0,10,,,,,,,,10,,,76,0
22816,note_on,160,0,3,,,,,,,,2,,,57,0
22816,note_on,160,0,11,,,,,,,,11,,,72,0
22816,note_on,160,0,12,,,,,,,,12,,,45,0
22816,note_on,160,0,2,,,,,,,,1,,,45,0
22816,note_on,160,0,9,,,,,,,,8,,,81,0
22846,note_on,94,0,7,,,,,,,,6,,,69,0
22846,note_on,94,0,5,,,,,,,,4,,,64,0
22846,note_on,94,0,1,,,,,,,,0,,,69,0
22848,note_on,2,0,7,,,,,,,,6,,,60,110
22848,note_on,2,0,5,,,,,,,,4,,,57,110
22896,note_on,50,0,1,,,,,,,,0,,,76,110
22942,note_on,94,0,7,,,,,,,,6,,,60,0
22942,note_on,46,0,1,,,,,,,,0,,,76,0
22944,note_on,2,0,7,,,,,,,,6,,,64,110
22944,note_on,2,0,1,,,,,,,,0,,,72,110
22990,note_on,46,0,1,,,,,,,,0,,,72,0
22992,note_on,2,0,1,,,,,,,,0,,,69,110
23008,note_on,160,0,5,,,,,,,,4,,,57,0
23038,note_on,46,0,1,,,,,,,,0,,,69,0
23038,note_on,94,0,7,,,,,,,,6,,,64,0
23040,note_on,2,0,7,,,,,,,,6,,,57,110
23040,note_on,224,0,2,,,,,,,,1,,,45,110
23040,note_on,2,0,1,,,,,,,,0,,,81,110
23086,note_on,46,0,1,,,,,,,,0,,,81,0
23088,note_on,2,0,1,,,,,,,,0,,,76,110
23134,note_on,94,0,2,,,,,,,,1,,,45,0
23134,note_on,46,0,1,,,,,,,,0,,,76,0
23136,note_on,2,0,2,,,,,,,,1,,,47,110
23136,note_on,2,0,1,,,,,,,,0,,,72,110
23182,note_on,46,0,1,,,,,,,,0,,,72,0
23184,note_on,2,0,1,,,,,,,,0,,,69,110
23200,note_on,160,0,7,,,,,,,,6,,,57,0
23230,note_on,94,0,2,,,,,,,,1,,,47,0
23230,note_on,46,0,1,,,,,,,,0,,,69,0
23232,note_on,2,0,2,,,,,,,,1,,,48,110
23232,note_on,2,0,1,,,,,,,,0,,,81,110
23278,note_on,46,0,1,,,,,,,,0,,,81,0
23280,note_on,2,0,1,,,,,,,,0,,,79,110
23326,note_on,94,0,2,,,,,,,,1,,,48,0
23326,note_on,46,0,1,,,,,,,,0,,,79,0
23328,note_on,2,0,1,,,,,,,,0,,,77,110
23328,note_on,2,0,2,,,,,,,,1,,,45,110
23374,note_on,46,0,1,,,,,,,,0,,,77,0
23376,note_on,2,0,1,,,,,,,,0,,,76,110
23422,note_on,46,0,1,,,,,,,,0,,,76,0
23422,note_on,94,0,2,,,,,,,,1,,,45,0
23424,note_on,2,0,1,,,,,,,,0,,,77,110
23424,note_on,2,0,2,,,,,,,,1,,,50,110
23470,note_on,46,0,1,,,,,,,,0,,,77,0
23472,note_on,2,0,1,,,,,,,,0,,,81,110
23518,note_on,46,0,1,,,,,,,,0,,,81,0
23520,note_on,2,0,1,,,,,,,,0,,,79,110
23566,note_on,46,0,1,,,,,,,,0,,,79,0
23568,note_on,2,0,1,,,,,,,,0,,,81,110
23584,note_on,160,0,2,,,,,,,,1,,,50,0
23614,note_on,46,0,1,,,,,,,,0,,,81,0
23616,note_on,2,0,1,,,,,,,,0,,,77,110
23662,note_on,46,0,1,,,,,,,,0,,,77,0
23664,note_on,2,0,1,,,,,,,,0,,,79,110
23710,note_on,46,0,1,,,,,,,,0,,,79,0
23712,note_on,2,0,1,,,,,,,,0,,,76,110
23758,note_on,46,0,1,,,,,,,,0,,,76,0
23760,note_on,2,0,1,,,,,,,,0,,,77,110
23806,note_on,46,0,1,,,,,,,,0,,,77,0
23808,note_on,224,0,2,,,,,,,,1,,,53,110
23808,note_on,2,0,1,,,,,,,,0,,,74,110
23854,note_on,46,0,1,,,,,,,,0,,,74,0
23854,note_on,46,0,2,,,,,,,,1,,,53,0
23856,note_on,2,0,1,,,,,,,,0,,,77,110
23856,note_on,2,0,2,,,,,,,,1,,,57,110
23902,note_on,46,0,1,,,,,,,,0,,,77,0
23902,note_on,46,0,2,,,,,,,,1,,,57,0
23904,note_on,2,0,1,,,,,,,,0,,,76,110
23904,note_on,2,0,2,,,,,,,,1,,,55,110
23950,note_on,46,0,1,,,,,,,,0,,,76,0
23950,note_on,46,0,2,,,,,,,,1,,,55,0
23952,note_on,2,0,1,,,,,,,,0,,,77,110
23952,note_on,2,0,2,,,,,,,,1,,,57,110
23998,note_on,46,0,1,,,,,,,,0,,,77,0
23998,note_on,46,0,2,,,,,,,,1,,,57,0
24000,note_on,2,0,2,,,,,,,,1,,,53,110
24000,note_on,2,0,1,,,,,,,,0,,,74,110
24046,note_on,46,0,1,,,,,,,,0,,,74,0
24046,note_on,46,0,2,,,,,,,,1,,,53,0
24048,note_on,2,0,2,,,,,,,,1,,,55,110
24048,note_on,2,0,1,,,,,,,,0,,,76,110
24094,note_on,46,0,2,,,,,,,,1,,,55,0
24094,note_on,46,0,1,,,,,,,,0,,,76,0
24096,note_on,2,0,2,,,,,,,,1,,,52,110
24096,note_on,2,0,1,,,,,,,,0,,,72,110
24142,note_on,46,0,1,,,,,,,,0,,,72,0
24142,note_on,46,0,2,,,,,,,,1,,,52,0
24144,note_on,2,0,2,,,,,,,,1,,,53,110
24144,note_on,2,0,1,,,,,,,,0,,,74,110
24190,note_on,46,0,2,,,,,,,,1,,,53,0
24190,note_on,46,0,1,,,,,,,,0,,,74,0
24192,note_on,2,0,2,,,,,,,,1,,,50,110
24192,note_on,2,0,1,,,,,,,,0,,,71,110
24238,note_on,46,0,2,,,,,,,,1,,,50,0
24238,note_on,46,0,1,,,,,,,,0,,,71,0
24240,note_on,2,0,1,,,,,,,,0,,,74,110
24240,note_on,2,0,2,,,,,,,,1,,,53,110
24286,note_on,46,0,1,,,,,,,,0,,,74,0
24286,note_on,46,0,2,,,,,,,,1,,,53,0
24288,note_on,2,0,1,,,,,,,,0,,,72,110
24288,note_on,2,0,2,,,,,,,,1,,,52,110
24334,note_on,46,0,1,,,,,,,,0,,,72,0
24334,note_on,46,0,2,,,,,,,,1,,,52,0
24336,note_on,2,0,1,,,,,,,,0,,,74,110
24336,note_on,2,0,2,,,,,,,,1,,,53,110
24382,note_on,46,0,1,,,,,,,,0,,,74,0
24382,note_on,46,0,2,,,,,,,,1,,,53,0
24384,note_on,2,0,1,,,,,,,,0,,,71,110
24384,note_on,2,0,2,,,,,,,,1,,,50,110
24430,note_on,46,0,2,,,,,,,,1,,,50,0
24430,note_on,46,0,1,,,,,,,,0,,,71,0
24432,note_on,2,0,1,,,,,,,,0,,,72,110
24432,note_on,2,0,2,,,,,,,,1,,,52,110
24478,note_on,46,0,2,,,,,,,,1,,,52,0
24478,note_on,46,0,1,,,,,,,,0,,,72,0
24480,note_on,2,0,2,,,,,,,,1,,,48,110
24480,note_on,2,0,1,,,,,,,,0,,,69,110
24526,note_on,46,0,1,,,,,,,,0,,,69,0
24526,note_on,46,0,2,,,,,,,,1,,,48,0
24528,note_on,2,0,1,,,,,,,,0,,,71,110
24528,note_on,2,0,2,,,,,,,,1,,,50,110
24574,note_on,46,0,2,,,,,,,,1,,,50,0
24574,note_on,46,0,1,,,,,,,,0,,,71,0
24576,note_on,2,0,2,,,,,,,,1,,,47,110
24576,note_on,2,0,1,,,,,,,,0,,,67,110
24622,note_on,46,0,2,,,,,,,,1,,,47,0
24622,note_on,46,0,1,,,,,,,,0,,,67,0
24624,note_on,2,0,1,,,,,,,,0,,,71,110
24624,note_on,2,0,2,,,,,,,,1,,,43,110
24670,note_on,46,0,1,,,,,,,,0,,,71,0
24670,note_on,46,0,2,,,,,,,,1,,,43,0
24672,note_on,2,0,1,,,,,,,,0,,,74,110
24672,note_on,2,0,2,,,,,,,,1,,,47,110
24718,note_on,46,0,1,,,,,,,,0,,,74,0
24718,note_on,46,0,2,,,,,,,,1,,,47,0
24720,note_on,2,0,1,,,,,,,,0,,,71,110
24720,note_on,2,0,2,,,,,,,,1,,,50,110
24766,note_on,46,0,1,,,,,,,,0,,,71,0
24766,note_on,46,0,2,,,,,,,,1,,,50,0
24768,note_on,2,0,1,,,,,,,,0,,,67,110
24768,note_on,2,0,2,,,,,,,,1,,,53,110
24814,note_on,46,0,1,,,,,,,,0,,,67,0
24816,note_on,2,0,1,,,,,,,,0,,,71,110
24862,note_on,46,0,1,,,,,,,,0,,,71,0
24862,note_on,94,0,2,,,,,,,,1,,,53,0
24864,note_on,2,0,2,,,,,,,,1,,,41,110
24864,note_on,2,0,1,,,,,,,,0,,,69,110
24910,note_on,46,0,1,,,,,,,,0,,,69,0
24912,note_on,2,0,1,,,,,,,,0,,,67,110
24958,note_on,46,0,1,,,,,,,,0,,,67,0
24958,note_on,94,0,2,,,,,,,,1,,,41,0
24960,note_on,2,0,1,,,,,,,,0,,,72,110
24960,note_on,2,0,2,,,,,,,,1,,,40,110
25006,note_on,46,0,1,,,,,,,,0,,,72,0
25008,note_on,2,0,1,,,,,,,,0,,,64,110
25008,note_on,2960,0,8,,,,,,,,7,,,55,110
25054,note_on,46,0,8,,,,,,,,7,,,55,0
25054,note_on,46,0,1,,,,,,,,0,,,64,0
25056,note_on,2,0,8,,,,,,,,7,,,53,110
25056,note_on,1856,0,7,,,,,,,,6,,,72,110
25056,note_on,2,0,1,,,,,,,,0,,,62,110
25102,note_on,46,0,1,,,,,,,,0,,,62,0
25102,note_on,46,0,8,,,,,,,,7,,,53,0
25104,note_on,2,0,1,,,,,,,,0,,,64,110
25104,note_on,2,0,8,,,,,,,,7,,,55,110
25120,note_on,160,0,2,,,,,,,,1,,,40,0
25150,note_on,46,0,1,,,,,,,,0,,,64,0
25150,note_on,46,0,8,,,,,,,,7,,,55,0
25150,note_on,94,0,7,,,,,,,,6,,,72,0
25152,note_on,2,0,8,,,,,,,,7,,,52,110
25152,note_on,2,0,7,,,,,,,,6,,,67,110
25152,note_on,2,0,1,,,,,,,,0,,,72,110
25198,note_on,46,0,1,,,,,,,,0,,,72,0
25200,note_on,2,0,1,,,,,,,,0,,,71,110
25200,note_on,80,0,2,,,,,,,,1,,,48,110
25246,note_on,94,0,8,,,,,,,,7,,,52,0
25246,note_on,46,0,2,,,,,,,,1,,,48,0
25246,note_on,94,0,7,,,,,,,,6,,,67,0
25246,note_on,46,0,1,,,,,,,,0,,,71,0
25248,note_on,2,0,8,,,,,,,,7,,,60,110
25248,note_on,2,0,2,,,,,,,,1,,,50,110
25248,note_on,2,0,7,,,,,,,,6,,,64,110
25248,note_on,2,0,1,,,,,,,,0,,,69,110
25294,note_on,46,0,1,,,,,,,,0,,,69,0
25294,note_on,46,0,2,,,,,,,,1,,,50,0
25296,note_on,2,0,1,,,,,,,,0,,,67,110
25296,note_on,2,0,2,,,,,,,,1,,,52,110
25342,note_on,46,0,2,,,,,,,,1,,,52,0
25342,note_on,94,0,8,,,,,,,,7,,,60,0
25342,note_on,46,0,1,,,,,,,,0,,,67,0
25342,note_on,94,0,7,,,,,,,,6,,,64,0
25344,note_on,2,0,2,,,,,,,,1,,,41,110
25344,note_on,2,0,1,,,,,,,,0,,,69,110
25390,note_on,46,0,1,,,,,,,,0,,,69,0
25392,note_on,50,0,8,,,,,,,,7,,,57,110
25392,note_on,2,0,1,,,,,,,,0,,,65,110
25438,note_on,46,0,1,,,,,,,,0,,,65,0
25438,note_on,46,0,8,,,,,,,,7,,,57,0
25440,note_on,98,0,7,,,,,,,,6,,,72,110
25440,note_on,2,0,8,,,,,,,,7,,,55,110
25440,note_on,2,0,1,,,,,,,,0,,,64,110
25486,note_on,46,0,8,,,,,,,,7,,,55,0
25486,note_on,46,0,1,,,,,,,,0,,,64,0
25488,note_on,2,0,8,,,,,,,,7,,,57,110
25488,note_on,2,0,1,,,,,,,,0,,,65,110
25504,note_on,160,0,2,,,,,,,,1,,,41,0
25534,note_on,46,0,1,,,,,,,,0,,,65,0
25534,note_on,94,0,7,,,,,,,,6,,,72,0
25534,note_on,46,0,8,,,,,,,,7,,,57,0
25536,note_on,2,0,8,,,,,,,,7,,,53,110
25536,note_on,2,0,7,,,,,,,,6,,,69,110
25536,note_on,2,0,1,,,,,,,,0,,,74,110
25582,note_on,46,0,1,,,,,,,,0,,,74,0
25584,note_on,2,0,1,,,,,,,,0,,,72,110
25584,note_on,80,0,2,,,,,,,,1,,,50,110
25630,note_on,94,0,7,,,,,,,,6,,,69,0
25630,note_on,94,0,8,,,,,,,,7,,,53,0
25630,note_on,46,0,2,,,,,,,,1,,,50,0
25630,note_on,46,0,1,,,,,,,,0,,,72,0
25632,note_on,2,0,1,,,,,,,,0,,,71,110
25632,note_on,2,0,7,,,,,,,,6,,,65,110
25632,note_on,2,0,2,,,,,,,,1,,,52,110
25632,note_on,2,0,8,,,,,,,,7,,,62,110
25678,note_on,46,0,2,,,,,,,,1,,,52,0
25678,note_on,46,0,1,,,,,,,,0,,,71,0
25680,note_on,2,0,2,,,,,,,,1,,,53,110
25680,note_on,2,0,1,,,,,,,,0,,,69,110
25726,note_on,46,0,2,,,,,,,,1,,,53,0
25726,note_on,94,0,7,,,,,,,,6,,,65,0
25726,note_on,94,0,8,,,,,,,,7,,,62,0
25726,note_on,46,0,1,,,,,,,,0,,,69,0
25728,note_on,2,0,2,,,,,,,,1,,,43,110
25728,note_on,2,0,1,,,,,,,,0,,,71,110
25774,note_on,46,0,1,,,,,,,,0,,,71,0
25776,note_on,2,0,1,,,,,,,,0,,,67,110
25776,note_on,50,0,8,,,,,,,,7,,,59,110
25822,note_on,46,0,8,,,,,,,,7,,,59,0
25822,note_on,46,0,1,,,,,,,,0,,,67,0
25824,note_on,2,0,8,,,,,,,,7,,,57,110
25824,note_on,98,0,7,,,,,,,,6,,,74,110
25824,note_on,2,0,1,,,,,,,,0,,,65,110
25870,note_on,46,0,1,,,,,,,,0,,,65,0
25870,note_on,46,0,8,,,,,,,,7,,,57,0
25872,note_on,2,0,1,,,,,,,,0,,,67,110
25872,note_on,2,0,8,,,,,,,,7,,,59,110
25888,note_on,160,0,2,,,,,,,,1,,,43,0
25918,note_on,94,0,7,,,,,,,,6,,,74,0
25918,note_on,46,0,1,,,,,,,,0,,,67,0
25918,note_on,46,0,8,,,,,,,,7,,,59,0
25920,note_on,2,0,7,,,,,,,,6,,,71,110
25920,note_on,2,0,8,,,,,,,,7,,,55,110
25920,note_on,2,0,1,,,,,,,,0,,,76,110
25966,note_on,46,0,1,,,,,,,,0,,,76,0
25968,note_on,2,0,1,,,,,,,,0,,,74,110
25968,note_on,80,0,2,,,,,,,,1,,,52,110
26014,note_on,94,0,7,,,,,,,,6,,,71,0
26014,note_on,94,0,8,,,,,,,,7,,,55,0
26014,note_on,46,0,2,,,,,,,,1,,,52,0
26014,note_on,46,0,1,,,,,,,,0,,,74,0
26016,note_on,2,0,8,,,,,,,,7,,,64,110
26016,note_on,2,0,1,,,,,,,,0,,,72,110
26016,note_on,2,0,7,,,,,,,,6,,,67,110
26016,note_on,2,0,2,,,,,,,,1,,,53,110
26062,note_on,46,0,2,,,,,,,,1,,,53,0
26062,note_on,46,0,1,,,,,,,,0,,,72,0
26064,note_on,2,0,1,,,,,,,,0,,,71,110
26064,note_on,2,0,2,,,,,,,,1,,,55,110
26110,note_on,94,0,7,,,,,,,,6,,,67,0
26110,note_on,46,0,1,,,,,,,,0,,,71,0
26110,note_on,46,0,2,,,,,,,,1,,,55,0
26110,note_on,94,0,8,,,,,,,,7,,,64,0
26112,note_on,2,0,2,,,,,,,,1,,,45,110
26112,note_on,2,0,1,,,,,,,,0,,,72,110
26158,note_on,46,0,1,,,,,,,,0,,,72,0
26160,note_on,2,0,1,,,,,,,,0,,,69,110
26160,note_on,50,0,8,,,,,,,,7,,,60,110
26206,note_on,46,0,8,,,,,,,,7,,,60,0
26208,note_on,2,0,8,,,,,,,,7,,,59,110
26208,note_on,98,0,7,,,,,,,,6,,,76,110
26208,note_on,48,0,1,,,,,,,,0,,,69,0
26208,note_on,0,0,1,,,,,,,,0,,,67,110
26254,note_on,46,0,8,,,,,,,,7,,,59,0
26256,note_on,48,0,1,,,,,,,,0,,,67,0
26256,note_on,2,0,8,,,,,,,,7,,,60,110
26256,note_on,0,0,1,,,,,,,,0,,,69,110
26272,note_on,160,0,2,,,,,,,,1,,,45,0
26302,note_on,46,0,8,,,,,,,,7,,,60,0
26302,note_on,46,0,1,,,,,,,,0,,,69,0
26302,note_on,94,0,7,,,,,,,,6,,,76,0
26304,note_on,2,0,1,,,,,,,,0,,,77,110
26304,note_on,2,0,7,,,,,,,,6,,,72,110
26304,note_on,2,0,8,,,,,,,,7,,,57,110
26350,note_on,46,0,1,,,,,,,,0,,,77,0
26352,note_on,80,0,2,,,,,,,,1,,,53,110
26352,note_on,2,0,1,,,,,,,,0,,,76,110
26398,note_on,94,0,7,,,,,,,,6,,,72,0
26398,note_on,94,0,8,,,,,,,,7,,,57,0
26398,note_on,46,0,1,,,,,,,,0,,,76,0
26398,note_on,46,0,2,,,,,,,,1,,,53,0
26400,note_on,2,0,2,,,,,,,,1,,,55,110
26400,note_on,2,0,7,,,,,,,,6,,,69,110
26400,note_on,2,0,1,,,,,,,,0,,,74,110
26400,note_on,2,0,8,,,,,,,,7,,,65,110
26446,note_on,46,0,1,,,,,,,,0,,,74,0
26446,note_on,46,0,2,,,,,,,,1,,,55,0
26448,note_on,2,0,1,,,,,,,,0,,,72,110
26448,note_on,2,0,2,,,,,,,,1,,,57,110
26494,note_on,94,0,8,,,,,,,,7,,,65,0
26494,note_on,46,0,1,,,,,,,,0,,,72,0
26494,note_on,46,0,2,,,,,,,,1,,,57,0
26494,note_on,94,0,7,,,,,,,,6,,,69,0
26496,note_on,2,0,2,,,,,,,,1,,,47,110
26496,note_on,2,0,1,,,,,,,,0,,,74,110
26542,note_on,46,0,1,,,,,,,,0,,,74,0
26544,note_on,2,0,1,,,,,,,,0,,,71,110
26544,note_on,50,0,8,,,,,,,,7,,,62,110
26590,note_on,46,0,8,,,,,,,,7,,,62,0
26592,note_on,98,0,7,,,,,,,,6,,,77,110
26592,note_on,48,0,1,,,,,,,,0,,,71,0
26592,note_on,0,0,1,,,,,,,,0,,,69,110
26592,note_on,2,0,8,,,,,,,,7,,,60,110
26638,note_on,46,0,8,,,,,,,,7,,,60,0
26640,note_on,48,0,1,,,,,,,,0,,,69,0
26640,note_on,0,0,1,,,,,,,,0,,,71,110
26640,note_on,2,0,8,,,,,,,,7,,,62,110
26656,note_on,160,0,2,,,,,,,,1,,,47,0
26686,note_on,46,0,8,,,,,,,,7,,,62,0
26686,note_on,94,0,7,,,,,,,,6,,,77,0
26686,note_on,46,0,1,,,,,,,,0,,,71,0
26688,note_on,2,0,7,,,,,,,,6,,,74,110
26688,note_on,2,0,8,,,,,,,,7,,,59,110
26688,note_on,2,0,1,,,,,,,,0,,,79,110
26734,note_on,46,0,1,,,,,,,,0,,,79,0
26736,note_on,80,0,2,,,,,,,,1,,,55,110
26736,note_on,2,0,1,,,,,,,,0,,,77,110
26782,note_on,46,0,1,,,,,,,,0,,,77,0
26782,note_on,94,0,8,,,,,,,,7,,,59,0
26782,note_on,46,0,2,,,,,,,,1,,,55,0
26782,note_on,94,0,7,,,,,,,,6,,,74,0
26784,note_on,2,0,8,,,,,,,,7,,,67,110
26784,note_on,2,0,7,,,,,,,,6,,,71,110
26784,note_on,2,0,1,,,,,,,,0,,,76,110
26784,note_on,2,0,2,,,,,,,,1,,,57,110
26830,note_on,46,0,1,,,,,,,,0,,,76,0
26830,note_on,46,0,2,,,,,,,,1,,,57,0
26832,note_on,2,0,2,,,,,,,,1,,,59,110
26832,note_on,2,0,1,,,,,,,,0,,,74,110
26878,note_on,46,0,2,,,,,,,,1,,,59,0
26878,note_on,94,0,7,,,,,,,,6,,,71,0
26878,note_on,94,0,8,,,,,,,,7,,,67,0
26878,note_on,46,0,1,,,,,,,,0,,,74,0
26880,note_on,2,0,1,,,,,,,,0,,,76,110
26880,note_on,2,0,2,,,,,,,,1,,,48,110
26926,note_on,46,0,1,,,,,,,,0,,,76,0
26928,note_on,50,0,8,,,,,,,,7,,,64,110
26928,note_on,2,0,1,,,,,,,,0,,,72,110
26974,note_on,46,0,1,,,,,,,,0,,,72,0
26974,note_on,46,0,8,,,,,,,,7,,,64,0
26976,note_on,2,0,1,,,,,,,,0,,,71,110
26976,note_on,2,0,8,,,,,,,,7,,,62,110
26976,note_on,98,0,7,,,,,,,,6,,,79,110
27022,note_on,46,0,8,,,,,,,,7,,,62,0
27022,note_on,46,0,1,,,,,,,,0,,,71,0
27024,note_on,2,0,8,,,,,,,,7,,,64,110
27024,note_on,2,0,1,,,,,,,,0,,,72,110
27040,note_on,160,0,2,,,,,,,,1,,,48,0
27070,note_on,46,0,1,,,,,,,,0,,,72,0
27070,note_on,46,0,8,,,,,,,,7,,,64,0
27070,note_on,94,0,7,,,,,,,,6,,,79,0
27072,note_on,2,0,8,,,,,,,,7,,,60,110
27072,note_on,2,0,1,,,,,,,,0,,,84,110
27072,note_on,2,0,7,,,,,,,,6,,,76,110
27118,note_on,46,0,1,,,,,,,,0,,,84,0
27118,note_on,46,0,8,,,,,,,,7,,,60,0
27120,note_on,80,0,2,,,,,,,,1,,,48,110
27120,note_on,2,0,1,,,,,,,,0,,,83,110
27120,note_on,2,0,8,,,,,,,,7,,,64,110
27166,note_on,46,0,2,,,,,,,,1,,,48,0
27166,note_on,94,0,7,,,,,,,,6,,,76,0
27166,note_on,46,0,1,,,,,,,,0,,,83,0
27166,note_on,46,0,8,,,,,,,,7,,,64,0
27168,note_on,2,0,8,,,,,,,,7,,,65,110
27168,note_on,2,0,2,,,,,,,,1,,,50,110
27168,note_on,2,0,7,,,,,,,,6,,,72,110
27168,note_on,2,0,1,,,,,,,,0,,,81,110
27214,note_on,46,0,1,,,,,,,,0,,,81,0
27214,note_on,46,0,2,,,,,,,,1,,,50,0
27214,note_on,46,0,8,,,,,,,,7,,,65,0
27216,note_on,2,0,1,,,,,,,,0,,,79,110
27216,note_on,2,0,2,,,,,,,,1,,,52,110
27216,note_on,2,0,8,,,,,,,,7,,,67,110
27262,note_on,46,0,8,,,,,,,,7,,,67,0
27262,note_on,46,0,2,,,,,,,,1,,,52,0
27262,note_on,94,0,7,,,,,,,,6,,,72,0
27262,note_on,46,0,1,,,,,,,,0,,,79,0
27264,note_on,2,0,2,,,,,,,,1,,,41,110
27264,note_on,2,0,8,,,,,,,,7,,,60,110
27264,note_on,2,0,1,,,,,,,,0,,,81,110
27310,note_on,46,0,8,,,,,,,,7,,,60,0
27310,note_on,46,0,1,,,,,,,,0,,,81,0
27312,note_on,2,0,1,,,,,,,,0,,,77,110
27312,note_on,2,0,8,,,,,,,,7,,,69,110
27358,note_on,46,0,1,,,,,,,,0,,,77,0
27358,note_on,46,0,8,,,,,,,,7,,,69,0
27360,note_on,2,0,8,,,,,,,,7,,,67,110
27360,note_on,98,0,7,,,,,,,,6,,,81,110
27360,note_on,2,0,1,,,,,,,,0,,,76,110
27406,note_on,46,0,8,,,,,,,,7,,,67,0
27406,note_on,46,0,1,,,,,,,,0,,,76,0
27408,note_on,2,0,1,,,,,,,,0,,,77,110
27408,note_on,2,0,8,,,,,,,,7,,,69,110
27424,note_on,160,0,2,,,,,,,,1,,,41,0
27454,note_on,94,0,7,,,,,,,,6,,,81,0
27454,note_on,46,0,8,,,,,,,,7,,,69,0
27454,note_on,46,0,1,,,,,,,,0,,,77,0
27456,note_on,2,0,8,,,,,,,,7,,,62,110
27456,note_on,2,0,1,,,,,,,,0,,,86,110
27456,note_on,2,0,7,,,,,,,,6,,,81,110
27502,note_on,46,0,1,,,,,,,,0,,,86,0
27502,note_on,46,0,8,,,,,,,,7,,,62,0
27504,note_on,2,0,8,,,,,,,,7,,,66,110
27504,note_on,80,0,2,,,,,,,,1,,,50,110
27504,note_on,2,0,1,,,,,,,,0,,,84,110
27550,note_on,46,0,1,,,,,,,,0,,,84,0
27550,note_on,46,0,2,,,,,,,,1,,,50,0
27550,note_on,94,0,7,,,,,,,,6,,,81,0
27550,note_on,46,0,8,,,,,,,,7,,,66,0
27552,note_on,2,0,1,,,,,,,,0,,,83,110
27552,note_on,2,0,8,,,,,,,,7,,,67,110
27552,note_on,2,0,2,,,,,,,,1,,,52,110
27552,note_on,2,0,7,,,,,,,,6,,,74,110
27598,note_on,46,0,1,,,,,,,,0,,,83,0
27598,note_on,46,0,2,,,,,,,,1,,,52,0
27598,note_on,46,0,8,,,,,,,,7,,,67,0
27600,note_on,2,0,1,,,,,,,,0,,,81,110
27600,note_on,2,0,2,,,,,,,,1,,,54,110
27600,note_on,2,0,8,,,,,,,,7,,,69,110
27646,note_on,46,0,1,,,,,,,,0,,,81,0
27646,note_on,46,0,2,,,,,,,,1,,,54,0
27646,note_on,94,0,7,,,,,,,,6,,,74,0
27646,note_on,46,0,8,,,,,,,,7,,,69,0
27648,note_on,0,0,5,,,,,,,,4,,,74,110
27648,note_on,4832,0,3,,,,,,,,2,,,71,110
27648,note_on,2,0,2,,,,,,,,1,,,43,110
27648,note_on,0,0,5,,,,,,,,4,,,79,110
27648,note_on,5984,0,4,,,,,,,,3,,,55,110
27648,note_on,0,0,5,,,,,,,,4,,,71,110
27648,note_on,4640,0,5,,,,,,,,4,,,67,110
27648,note_on,2,0,1,,,,,,,,0,,,83,110
27648,note_on,4832,0,12,,,,,,,,12,,,55,92
27648,note_on,4832,0,10,,,,,,,,10,,,74,92
27648,note_on,2,0,8,,,,,,,,7,,,62,110
27648,note_on,5792,0,6,,,,,,,,5,,,55,110
27648,note_on,2,0,7,,,,,,,,6,,,71,110
27648,note_on,4832,0,11,,,,,,,,11,,,71,92
27648,note_on,4832,0,9,,,,,,,,8,,,79,92
27648,note_on,0,0,3,,,,,,,,2,,,74,110
27694,note_on,46,0,4,,,,,,,,3,,,55,0
27694,note_on,46,0,8,,,,,,,,7,,,62,0
27696,note_on,2,0,4,,,,,,,,3,,,67,110
27696,note_on,2,0,8,,,,,,,,7,,,64,110
27742,note_on,94,0,12,,,,,,,,12,,,55,0
27742,note_on,46,0,8,,,,,,,,7,,,64,0
27742,note_on,94,0,2,,,,,,,,1,,,43,0
27742,note_on,94,0,1,,,,,,,,0,,,83,0
27742,note_on,94,0,6,,,,,,,,5,,,55,0
27742,note_on,46,0,4,,,,,,,,3,,,67,0
27744,note_on,2,0,8,,,,,,,,7,,,62,110
27744,note_on,2,0,12,,,,,,,,12,,,43,92
27744,note_on,2,0,1,,,,,,,,0,,,79,110
27744,note_on,2,0,4,,,,,,,,3,,,65,110
27744,note_on,2,0,6,,,,,,,,5,,,43,110
27744,note_on,2,0,2,,,,,,,,1,,,55,110
27790,note_on,46,0,12,,,,,,,,12,,,43,0
27790,note_on,46,0,6,,,,,,,,5,,,43,0
27790,note_on,46,0,4,,,,,,,,3,,,65,0
27790,note_on,46,0,8,,,,,,,,7,,,62,0
27790,note_on,46,0,2,,,,,,,,1,,,55,0
27792,note_on,2,0,8,,,,,,,,7,,,60,110
27792,note_on,2,0,6,,,,,,,,5,,,45,110
27792,note_on,2,0,12,,,,,,,,12,,,45,92
27792,note_on,2,0,4,,,,,,,,3,,,64,110
27792,note_on,2,0,2,,,,,,,,1,,,57,110
27808,note_on,160,0,11,,,,,,,,11,,,71,0
27808,note_on,160,0,7,,,,,,,,6,,,71,0
27808,note_on,160,0,10,,,,,,,,10,,,74,0
27808,note_on,160,0,9,,,,,,,,8,,,79,0
27808,note_on,0,0,3,,,,,,,,2,,,71,0
27808,note_on,160,0,3,,,,,,,,2,,,74,0
27808,note_on,160,0,5,,,,,,,,4,,,79,0
27808,note_on,0,0,5,,,,,,,,4,,,67,0
27808,note_on,0,0,5,,,,,,,,4,,,71,0
27808,note_on,0,0,5,,,,,,,,4,,,74,0
27838,note_on,46,0,6,,,,,,,,5,,,45,0
27838,note_on,46,0,4,,,,,,,,3,,,64,0
27838,note_on,94,0,1,,,,,,,,0,,,79,0
27838,note_on,46,0,8,,,,,,,,7,,,60,0
27838,note_on,46,0,2,,,,,,,,1,,,57,0
27838,note_on,46,0,12,,,,,,,,12,,,45,0
27840,note_on,2,0,2,,,,,,,,1,,,59,110
27840,note_on,2,0,4,,,,,,,,3,,,62,110
27840,note_on,2,0,6,,,,,,,,5,,,47,110
27840,note_on,2,0,12,,,,,,,,12,,,47,92
27840,note_on,2,0,8,,,,,,,,7,,,59,110
27886,note_on,46,0,8,,,,,,,,7,,,59,0
27886,note_on,46,0,4,,,,,,,,3,,,62,0
27888,note_on,2,0,4,,,,,,,,3,,,60,110
27888,note_on,2,0,8,,,,,,,,7,,,55,110
27934,note_on,94,0,12,,,,,,,,12,,,47,0
27934,note_on,94,0,6,,,,,,,,5,,,47,0
27934,note_on,46,0,4,,,,,,,,3,,,60,0
27934,note_on,46,0,8,,,,,,,,7,,,55,0
27934,note_on,94,0,2,,,,,,,,1,,,59,0
27936,note_on,2,0,6,,,,,,,,5,,,43,110
27936,note_on,128,0,11,,,,,,,,11,,,71,92
27936,note_on,128,0,7,,,,,,,,6,,,71,110
27936,note_on,2,0,2,,,,,,,,1,,,55,110
27936,note_on,128,0,10,,,,,,,,10,,,79,92
27936,note_on,128,0,9,,,,,,,,8,,,79,92
27936,note_on,2,0,8,,,,,,,,7,,,62,110
27936,note_on,128,0,5,,,,,,,,4,,,79,110
27936,note_on,2,0,4,,,,,,,,3,,,59,110
27936,note_on,2,0,12,,,,,,,,12,,,43,92
27936,note_on,128,0,3,,,,,,,,2,,,74,110
27936,note_on,98,0,1,,,,,,,,0,,,79,110
27982,note_on,46,0,4,,,,,,,,3,,,59,0
27984,note_on,2,0,4,,,,,,,,3,,,57,110
28030,note_on,46,0,4,,,,,,,,3,,,57,0
28030,note_on,94,0,12,,,,,,,,12,,,43,0
28030,note_on,94,0,5,,,,,,,,4,,,79,0
28030,note_on,94,0,11,,,,,,,,11,,,71,0
28030,note_on,94,0,8,,,,,,,,7,,,62,0
28030,note_on,94,0,9,,,,,,,,8,,,79,0
28030,note_on,94,0,10,,,,,,,,10,,,79,0
28030,note_on,94,0,1,,,,,,,,0,,,79,0
28030,note_on,94,0,7,,,,,,,,6,,,71,0
28030,note_on,94,0,2,,,,,,,,1,,,55,0
28030,note_on,94,0,6,,,,,,,,5,,,43,0
28030,note_on,94,0,3,,,,,,,,2,,,74,0
28032,note_on,2,0,2,,,,,,,,1,,,48,110
28032,note_on,2,0,11,,,,,,,,11,,,72,92
28032,note_on,2,0,12,,,,,,,,12,,,48,92
28032,note_on,2,0,6,,,,,,,,5,,,48,110
28032,note_on,2,0,3,,,,,,,,2,,,76,110
28032,note_on,2,0,7,,,,,,,,6,,,72,110
28032,note_on,2,0,1,,,,,,,,0,,,76,110
28032,note_on,2,0,5,,,,,,,,4,,,79,110
28032,note_on,2,0,10,,,,,,,,10,,,76,92
28032,note_on,2,0,9,,,,,,,,8,,,79,92
28032,note_on,2,0,4,,,,,,,,3,,,55,110
28078,note_on,46,0,3,,,,,,,,2,,,76,0
28080,note_on,2,0,3,,,,,,,,2,,,72,110
28126,note_on,94,0,4,,,,,,,,3,,,55,0
28126,note_on,94,0,1,,,,,,,,0,,,76,0
28126,note_on,46,0,3,,,,,,,,2,,,72,0
28126,note_on,94,0,11,,,,,,,,11,,,72,0
28126,note_on,94,0,10,,,,,,,,10,,,76,0
28126,note_on,94,0,6,,,,,,,,5,,,48,0
28126,note_on,94,0,2,,,,,,,,1,,,48,0
28126,note_on,94,0,5,,,,,,,,4,,,79,0
28126,note_on,94,0,12,,,,,,,,12,,,48,0
28126,note_on,94,0,9,,,,,,,,8,,,79,0
28128,note_on,2,0,11,,,,,,,,11,,,64,92
28128,note_on,2,0,6,,,,,,,,5,,,60,110
28128,note_on,2,0,4,,,,,,,,3,,,60,110
28128,note_on,2,0,12,,,,,,,,12,,,60,92
28128,note_on,2,0,2,,,,,,,,1,,,60,110
28128,note_on,2,0,1,,,,,,,,0,,,72,110
28128,note_on,2,0,9,,,,,,,,8,,,79,92
28128,note_on,2,0,5,,,,,,,,4,,,79,110
28128,note_on,2,0,10,,,,,,,,10,,,72,92
28128,note_on,98,0,8,,,,,,,,7,,,64,110
28128,note_on,2,0,3,,,,,,,,2,,,76,110
28174,note_on,46,0,3,,,,,,,,2,,,76,0
28176,note_on,2,0,3,,,,,,,,2,,,79,110
28192,note_on,160,0,7,,,,,,,,6,,,72,0
28222,note_on,94,0,1,,,,,,,,0,,,72,0
28222,note_on,94,0,4,,,,,,,,3,,,60,0
28222,note_on,94,0,11,,,,,,,,11,,,64,0
28222,note_on,94,0,6,,,,,,,,5,,,60,0
28222,note_on,94,0,10,,,,,,,,10,,,72,0
28222,note_on,94,0,9,,,,,,,,8,,,79,0
28222,note_on,46,0,3,,,,,,,,2,,,79,0
28222,note_on,94,0,12,,,,,,,,12,,,60,0
28222,note_on,94,0,2,,,,,,,,1,,,60,0
28222,note_on,94,0,5,,,,,,,,4,,,79,0
28222,note_on,94,0,8,,,,,,,,7,,,64,0
28224,note_on,2,0,11,,,,,,,,11,,,62,92
28224,note_on,2,0,5,,,,,,,,4,,,79,110
28224,note_on,2,0,2,,,,,,,,1,,,59,110
28224,note_on,2,0,3,,,,,,,,2,,,79,110
28224,note_on,2,0,12,,,,,,,,12,,,59,92
28224,note_on,2,0,6,,,,,,,,5,,,59,110
28224,note_on,2,0,8,,,,,,,,7,,,62,110
28224,note_on,2,0,9,,,,,,,,8,,,79,92
28272,note_on,80,0,7,,,,,,,,6,,,71,110
28272,note_on,0,0,3,,,,,,,,2,,,77,110
28272,note_on,48,0,3,,,,,,,,2,,,79,0
28318,note_on,94,0,8,,,,,,,,7,,,62,0
28318,note_on,46,0,3,,,,,,,,2,,,77,0
28318,note_on,46,0,7,,,,,,,,6,,,71,0
28318,note_on,94,0,5,,,,,,,,4,,,79,0
28318,note_on,94,0,9,,,,,,,,8,,,79,0
28318,note_on,94,0,12,,,,,,,,12,,,59,0
28318,note_on,94,0,2,,,,,,,,1,,,59,0
28318,note_on,94,0,11,,,,,,,,11,,,62,0
28318,note_on,94,0,6,,,,,,,,5,,,59,0
28320,note_on,2,0,3,,,,,,,,2,,,79,110
28320,note_on,2,0,6,,,,,,,,5,,,55,110
28320,note_on,2,0,11,,,,,,,,11,,,59,92
28320,note_on,2,0,7,,,,,,,,6,,,74,110
28320,note_on,2,0,9,,,,,,,,8,,,79,92
28320,note_on,2,0,12,,,,,,,,12,,,55,92
28320,note_on,98,0,1,,,,,,,,0,,,79,110
28320,note_on,2,0,5,,,,,,,,4,,,79,110
28320,note_on,98,0,10,,,,,,,,10,,,79,92
28320,note_on,98,0,4,,,,,,,,3,,,59,110
28320,note_on,2,0,2,,,,,,,,1,,,55,110
28320,note_on,2,0,8,,,,,,,,7,,,59,110
28366,note_on,46,0,7,,,,,,,,6,,,74,0
28368,note_on,2,0,7,,,,,,,,6,,,79,110
28414,note_on,46,0,7,,,,,,,,6,,,79,0
28414,note_on,94,0,4,,,,,,,,3,,,59,0
28414,note_on,94,0,3,,,,,,,,2,,,79,0
28414,note_on,94,0,1,,,,,,,,0,,,79,0
28414,note_on,94,0,6,,,,,,,,5,,,55,0
28414,note_on,94,0,2,,,,,,,,1,,,55,0
28414,note_on,94,0,11,,,,,,,,11,,,59,0
28414,note_on,94,0,12,,,,,,,,12,,,55,0
28414,note_on,94,0,9,,,,,,,,8,,,79,0
28414,note_on,94,0,8,,,,,,,,7,,,59,0
28414,note_on,94,0,10,,,,,,,,10,,,79,0
28414,note_on,94,0,5,,,,,,,,4,,,79,0
28416,note_on,2,0,7,,,,,,,,6,,,79,110
28416,note_on,2,0,10,,,,,,,,10,,,76,92
28416,note_on,2,0,5,,,,,,,,4,,,84,110
28416,note_on,2,0,9,,,,,,,,8,,,84,92
28416,note_on,2,0,1,,,,,,,,0,,,76,110
28416,note_on,2,0,4,,,,,,,,3,,,60,110
28462,note_on,46,0,7,,,,,,,,6,,,79,0
28464,note_on,50,0,3,,,,,,,,2,,,72,110
28464,note_on,2,0,7,,,,,,,,6,,,77,110
28510,note_on,94,0,5,,,,,,,,4,,,84,0
28510,note_on,46,0,3,,,,,,,,2,,,72,0
28510,note_on,46,0,7,,,,,,,,6,,,77,0
28510,note_on,94,0,1,,,,,,,,0,,,76,0
28510,note_on,94,0,9,,,,,,,,8,,,84,0
28510,note_on,94,0,4,,,,,,,,3,,,60,0
28510,note_on,94,0,10,,,,,,,,10,,,76,0
28512,note_on,2,0,3,,,,,,,,2,,,76,110
28512,note_on,98,0,6,,,,,,,,5,,,60,110
28512,note_on,2,0,1,,,,,,,,0,,,72,110
28512,note_on,2,0,9,,,,,,,,8,,,79,92
28512,note_on,2,0,10,,,,,,,,10,,,72,92
28512,note_on,98,0,11,,,,,,,,11,,,64,92
28512,note_on,98,0,2,,,,,,,,1,,,60,110
28512,note_on,98,0,12,,,,,,,,12,,,60,92
28512,note_on,2,0,5,,,,,,,,4,,,79,110
28512,note_on,98,0,8,,,,,,,,7,,,64,110
28512,note_on,2,0,7,,,,,,,,6,,,79,110
28512,note_on,2,0,4,,,,,,,,3,,,48,110
28558,note_on,46,0,3,,,,,,,,2,,,76,0
28560,note_on,2,0,3,,,,,,,,2,,,79,110
28606,note_on,94,0,12,,,,,,,,12,,,60,0
28606,note_on,94,0,8,,,,,,,,7,,,64,0
28606,note_on,94,0,9,,,,,,,,8,,,79,0
28606,note_on,94,0,6,,,,,,,,5,,,60,0
28606,note_on,94,0,7,,,,,,,,6,,,79,0
28606,note_on,94,0,5,,,,,,,,4,,,79,0
28606,note_on,94,0,2,,,,,,,,1,,,60,0
28606,note_on,94,0,11,,,,,,,,11,,,64,0
28606,note_on,46,0,3,,,,,,,,2,,,79,0
28606,note_on,94,0,10,,,,,,,,10,,,72,0
28606,note_on,94,0,1,,,,,,,,0,,,72,0
28606,note_on,94,0,4,,,,,,,,3,,,48,0
28608,note_on,2,0,6,,,,,,,,5,,,59,110
28608,note_on,2,0,9,,,,,,,,8,,,79,92
28608,note_on,2,0,11,,,,,,,,11,,,62,92
28608,note_on,2,0,2,,,,,,,,1,,,59,110
28608,note_on,2,0,12,,,,,,,,12,,,59,92
28608,note_on,2,0,5,,,,,,,,4,,,79,110
28608,note_on,2,0,8,,,,,,,,7,,,62,110
28608,note_on,2,0,3,,,,,,,,2,,,79,110
28656,note_on,0,0,3,,,,,,,,2,,,77,110
28656,note_on,48,0,3,,,,,,,,2,,,79,0
28656,note_on,50,0,7,,,,,,,,6,,,71,110
28702,note_on,94,0,5,,,,,,,,4,,,79,0
28702,note_on,94,0,9,,,,,,,,8,,,79,0
28702,note_on,94,0,12,,,,,,,,12,,,59,0
28702,note_on,94,0,8,,,,,,,,7,,,62,0
28702,note_on,94,0,2,,,,,,,,1,,,59,0
28702,note_on,46,0,3,,,,,,,,2,,,77,0
28702,note_on,46,0,7,,,,,,,,6,,,71,0
28702,note_on,94,0,6,,,,,,,,5,,,59,0
28702,note_on,94,0,11,,,,,,,,11,,,62,0
28704,note_on,98,0,1,,,,,,,,0,,,79,110
28704,note_on,2,0,9,,,,,,,,8,,,79,92
28704,note_on,98,0,4,,,,,,,,3,,,59,110
28704,note_on,2,0,3,,,,,,,,2,,,79,110
28704,note_on,2,0,5,,,,,,,,4,,,79,110
28704,note_on,2,0,2,,,,,,,,1,,,55,110
28704,note_on,2,0,7,,,,,,,,6,,,74,110
28704,note_on,2,0,6,,,,,,,,5,,,55,110
28704,note_on,2,0,12,,,,,,,,12,,,55,92
28704,note_on,2,0,8,,,,,,,,7,,,59,110
28704,note_on,2,0,11,,,,,,,,11,,,59,92
28704,note_on,98,0,10,,,,,,,,10,,,79,92
28750,note_on,46,0,7,,,,,,,,6,,,74,0
28752,note_on,2,0,7,,,,,,,,6,,,79,110
28798,note_on,94,0,5,,,,,,,,4,,,79,0
28798,note_on,94,0,1,,,,,,,,0,,,79,0
28798,note_on,94,0,9,,,,,,,,8,,,79,0
28798,note_on,94,0,4,,,,,,,,3,,,59,0
28798,note_on,94,0,8,,,,,,,,7,,,59,0
28798,note_on,94,0,10,,,,,,,,10,,,79,0
28798,note_on,94,0,3,,,,,,,,2,,,79,0
28798,note_on,94,0,12,,,,,,,,12,,,55,0
28798,note_on,46,0,7,,,,,,,,6,,,79,0
28798,note_on,94,0,11,,,,,,,,11,,,59,0
28798,note_on,94,0,2,,,,,,,,1,,,55,0
28798,note_on,94,0,6,,,,,,,,5,,,55,0
28800,note_on,2,0,9,,,,,,,,8,,,84,92
28800,note_on,2,0,10,,,,,,,,10,,,76,92
28800,note_on,2,0,5,,,,,,,,4,,,84,110
28800,note_on,2,0,4,,,,,,,,3,,,60,110
28800,note_on,2,0,1,,,,,,,,0,,,76,110
28800,note_on,2,0,7,,,,,,,,6,,,79,110
28846,note_on,46,0,7,,,,,,,,6,,,79,0
28848,note_on,50,0,3,,,,,,,,2,,,72,110
28848,note_on,2,0,7,,,,,,,,6,,,77,110
28894,note_on,94,0,5,,,,,,,,4,,,84,0
28894,note_on,94,0,1,,,,,,,,0,,,76,0
28894,note_on,46,0,3,,,,,,,,2,,,72,0
28894,note_on,46,0,7,,,,,,,,6,,,77,0
28894,note_on,94,0,9,,,,,,,,8,,,84,0
28894,note_on,94,0,4,,,,,,,,3,,,60,0
28894,note_on,94,0,10,,,,,,,,10,,,76,0
28896,note_on,98,0,2,,,,,,,,1,,,60,110
28896,note_on,2,0,5,,,,,,,,4,,,79,110
28896,note_on,2,0,3,,,,,,,,2,,,76,110
28896,note_on,98,0,6,,,,,,,,5,,,60,110
28896,note_on,2,0,10,,,,,,,,10,,,72,92
28896,note_on,98,0,11,,,,,,,,11,,,64,92
28896,note_on,2,0,9,,,,,,,,8,,,79,92
28896,note_on,2,0,1,,,,,,,,0,,,72,110
28896,note_on,98,0,8,,,,,,,,7,,,64,110
28896,note_on,2,0,4,,,,,,,,3,,,48,110
28896,note_on,98,0,12,,,,,,,,12,,,60,92
28896,note_on,2,0,7,,,,,,,,6,,,79,110
28942,note_on,46,0,3,,,,,,,,2,,,76,0
28944,note_on,2,0,3,,,,,,,,2,,,79,110
28990,note_on,46,0,3,,,,,,,,2,,,79,0
28990,note_on,94,0,1,,,,,,,,0,,,72,0
28990,note_on,94,0,6,,,,,,,,5,,,60,0
28990,note_on,94,0,8,,,,,,,,7,,,64,0
28990,note_on,94,0,9,,,,,,,,8,,,79,0
28990,note_on,94,0,4,,,,,,,,3,,,48,0
28990,note_on,94,0,12,,,,,,,,12,,,60,0
28990,note_on,94,0,10,,,,,,,,10,,,72,0
28990,note_on,94,0,7,,,,,,,,6,,,79,0
28990,note_on,94,0,11,,,,,,,,11,,,64,0
28990,note_on,94,0,5,,,,,,,,4,,,79,0
28990,note_on,94,0,2,,,,,,,,1,,,60,0
28992,note_on,2,0,6,,,,,,,,5,,,59,110
28992,note_on,2,0,3,,,,,,,,2,,,79,110
28992,note_on,2,0,11,,,,,,,,11,,,62,92
28992,note_on,2,0,12,,,,,,,,12,,,59,92
28992,note_on,2,0,8,,,,,,,,7,,,62,110
28992,note_on,2,0,9,,,,,,,,8,,,79,92
28992,note_on,2,0,5,,,,,,,,4,,,79,110
28992,note_on,2,0,2,,,,,,,,1,,,59,110
29040,note_on,50,0,7,,,,,,,,6,,,71,110
29040,note_on,48,0,3,,,,,,,,2,,,79,0
29040,note_on,0,0,3,,,,,,,,2,,,77,110
29086,note_on,94,0,2,,,,,,,,1,,,59,0
29086,note_on,94,0,12,,,,,,,,12,,,59,0
29086,note_on,94,0,9,,,,,,,,8,,,79,0
29086,note_on,46,0,3,,,,,,,,2,,,77,0
29086,note_on,94,0,8,,,,,,,,7,,,62,0
29086,note_on,94,0,11,,,,,,,,11,,,62,0
29086,note_on,94,0,5,,,,,,,,4,,,79,0
29086,note_on,94,0,6,,,,,,,,5,,,59,0
29086,note_on,46,0,7,,,,,,,,6,,,71,0
29088,note_on,98,0,4,,,,,,,,3,,,71,110
29088,note_on,98,0,10,,,,,,,,10,,,79,92
29088,note_on,2,0,3,,,,,,,,2,,,79,110
29088,note_on,2,0,2,,,,,,,,1,,,55,110
29088,note_on,2,0,8,,,,,,,,7,,,59,110
29088,note_on,98,0,1,,,,,,,,0,,,79,110
29088,note_on,2,0,12,,,,,,,,12,,,55,92
29088,note_on,2,0,6,,,,,,,,5,,,55,110
29088,note_on,2,0,9,,,,,,,,8,,,79,92
29088,note_on,2,0,5,,,,,,,,4,,,79,110
29088,note_on,2,0,7,,,,,,,,6,,,74,110
29088,note_on,2,0,11,,,,,,,,11,,,59,92
29134,note_on,46,0,7,,,,,,,,6,,,74,0
29136,note_on,2,0,7,,,,,,,,6,,,79,110
29182,note_on,94,0,1,,,,,,,,0,,,79,0
29182,note_on,94,0,2,,,,,,,,1,,,55,0
29182,note_on,94,0,5,,,,,,,,4,,,79,0
29182,note_on,94,0,8,,,,,,,,7,,,59,0
29182,note_on,94,0,10,,,,,,,,10,,,79,0
29182,note_on,94,0,12,,,,,,,,12,,,55,0
29182,note_on,94,0,9,,,,,,,,8,,,79,0
29182,note_on,94,0,4,,,,,,,,3,,,71,0
29182,note_on,46,0,7,,,,,,,,6,,,79,0
29182,note_on,94,0,6,,,,,,,,5,,,55,0
29182,note_on,94,0,3,,,,,,,,2,,,79,0
29182,note_on,94,0,11,,,,,,,,11,,,59,0
29184,note_on,2,0,5,,,,,,,,4,,,81,110
29184,note_on,2,0,7,,,,,,,,6,,,79,110
29184,note_on,2,0,10,,,,,,,,10,,,77,92
29184,note_on,2,0,2,,,,,,,,1,,,48,110
29184,note_on,2,0,12,,,,,,,,12,,,48,92
29184,note_on,2,0,6,,,,,,,,5,,,48,110
29184,note_on,2,0,4,,,,,,,,3,,,72,110
29184,note_on,2,0,1,,,,,,,,0,,,76,110
29184,note_on,2,0,8,,,,,,,,7,,,55,110
29184,note_on,2,0,11,,,,,,,,11,,,55,92
29184,note_on,2,0,9,,,,,,,,8,,,81,92
29206,note_on,22,0,5,,,,,,,,4,,,81,0
29206,note_on,22,0,9,,,,,,,,8,,,81,0
29206,note_on,22,0,10,,,,,,,,10,,,77,0
29208,note_on,2,0,10,,,,,,,,10,,,76,92
29208,note_on,2,0,9,,,,,,,,8,,,79,92
29208,note_on,2,0,5,,,,,,,,4,,,79,110
29230,note_on,22,0,10,,,,,,,,10,,,76,0
29230,note_on,22,0,5,,,,,,,,4,,,79,0
29230,note_on,46,0,7,,,,,,,,6,,,79,0
29230,note_on,22,0,9,,,,,,,,8,,,79,0
29232,note_on,2,0,10,,,,,,,,10,,,77,92
29232,note_on,2,0,9,,,,,,,,8,,,81,92
29232,note_on,2,0,5,,,,,,,,4,,,81,110
29232,note_on,2,0,7,,,,,,,,6,,,77,110
29254,note_on,22,0,5,,,,,,,,4,,,81,0
29254,note_on,22,0,10,,,,,,,,10,,,77,0
29254,note_on,22,0,9,,,,,,,,8,,,81,0
29256,note_on,2,0,9,,,,,,,,8,,,79,92
29256,note_on,2,0,5,,,,,,,,4,,,79,110
29256,note_on,2,0,10,,,,,,,,10,,,76,92
29278,note_on,22,0,5,,,,,,,,4,,,79,0
29278,note_on,94,0,1,,,,,,,,0,,,76,0
29278,note_on,94,0,2,,,,,,,,1,,,48,0
29278,note_on,94,0,11,,,,,,,,11,,,55,0
29278,note_on,94,0,8,,,,,,,,7,,,55,0
29278,note_on,94,0,4,,,,,,,,3,,,72,0
29278,note_on,22,0,9,,,,,,,,8,,,79,0
29278,note_on,46,0,7,,,,,,,,6,,,77,0
29278,note_on,22,0,10,,,,,,,,10,,,76,0
29280,note_on,2,0,2,,,,,,,,1,,,60,110
29280,note_on,2,0,4,,,,,,,,3,,,67,110
29280,note_on,2,0,5,,,,,,,,4,,,76,110
29280,note_on,2,0,9,,,,,,,,8,,,76,92
29280,note_on,2,0,10,,,,,,,,10,,,72,92
29280,note_on,98,0,3,,,,,,,,2,,,79,110
29280,note_on,2,0,7,,,,,,,,6,,,79,110
29280,note_on,2,0,1,,,,,,,,0,,,72,110
29280,note_on,2,0,8,,,,,,,,7,,,64,110
29280,note_on,2,0,11,,,,,,,,11,,,67,92
29326,note_on,46,0,10,,,,,,,,10,,,72,0
29326,note_on,46,0,9,,,,,,,,8,,,76,0
29326,note_on,46,0,1,,,,,,,,0,,,72,0
29326,note_on,46,0,5,,,,,,,,4,,,76,0
29328,note_on,2,0,10,,,,,,,,10,,,74,92
29328,note_on,2,0,9,,,,,,,,8,,,77,92
29328,note_on,2,0,1,,,,,,,,0,,,74,110
29328,note_on,2,0,5,,,,,,,,4,,,77,110
29344,note_on,160,0,12,,,,,,,,12,,,48,0
29344,note_on,160,0,6,,,,,,,,5,,,48,0
29374,note_on,46,0,5,,,,,,,,4,,,77,0
29374,note_on,94,0,7,,,,,,,,6,,,79,0
29374,note_on,94,0,8,,,,,,,,7,,,64,0
29374,note_on,94,0,3,,,,,,,,2,,,79,0
29374,note_on,94,0,11,,,,,,,,11,,,67,0
29374,note_on,94,0,2,,,,,,,,1,,,60,0
29374,note_on,46,0,1,,,,,,,,0,,,74,0
29374,note_on,94,0,4,,,,,,,,3,,,67,0
29374,note_on,46,0,10,,,,,,,,10,,,74,0
29374,note_on,46,0,9,,,,,,,,8,,,77,0
29376,note_on,2,0,3,,,,,,,,2,,,84,110
29376,note_on,2,0,11,,,,,,,,11,,,64,92
29376,note_on,2,0,2,,,,,,,,1,,,48,110
29376,note_on,2,0,10,,,,,,,,10,,,76,92
29376,note_on,2,0,9,,,,,,,,8,,,79,92
29376,note_on,2,0,5,,,,,,,,4,,,79,110
29376,note_on,2,0,8,,,,,,,,7,,,60,110
29376,note_on,2,0,4,,,,,,,,3,,,64,110
29376,note_on,2,0,1,,,,,,,,0,,,76,110
29470,note_on,94,0,9,,,,,,,,8,,,79,0
29470,note_on,94,0,5,,,,,,,,4,,,79,0
29470,note_on,94,0,11,,,,,,,,11,,,64,0
29470,note_on,94,0,1,,,,,,,,0,,,76,0
29470,note_on,94,0,10,,,,,,,,10,,,76,0
29470,note_on,94,0,4,,,,,,,,3,,,64,0
29472,note_on,2,0,4,,,,,,,,3,,,60,110
29472,note_on,2,0,5,,,,,,,,4,,,79,110
29472,note_on,2,0,1,,,,,,,,0,,,76,110
29472,note_on,128,0,6,,,,,,,,5,,,60,110
29472,note_on,2,0,11,,,,,,,,11,,,60,92
29472,note_on,2,0,10,,,,,,,,10,,,76,92
29472,note_on,98,0,7,,,,,,,,6,,,79,110
29472,note_on,2,0,9,,,,,,,,8,,,79,92
29536,note_on,160,0,2,,,,,,,,1,,,48,0
29536,note_on,160,0,3,,,,,,,,2,,,84,0
29536,note_on,160,0,8,,,,,,,,7,,,60,0
29566,note_on,94,0,6,,,,,,,,5,,,60,0
29566,note_on,94,0,10,,,,,,,,10,,,76,0
29566,note_on,94,0,1,,,,,,,,0,,,76,0
29566,note_on,94,0,9,,,,,,,,8,,,79,0
29566,note_on,94,0,4,,,,,,,,3,,,60,0
29566,note_on,94,0,7,,,,,,,,6,,,79,0
29566,note_on,94,0,5,,,,,,,,4,,,79,0
29566,note_on,94,0,11,,,,,,,,11,,,60,0
29568,note_on,2,0,4,,,,,,,,3,,,64,110
29568,note_on,2,0,11,,,,,,,,11,,,55,92
29568,note_on,224,0,12,,,,,,,,12,,,48,92
29568,note_on,2,0,10,,,,,,,,10,,,77,92
29568,note_on,2,0,9,,,,,,,,8,,,81,92
29568,note_on,2,0,1,,,,,,,,0,,,76,110
29568,note_on,2,0,6,,,,,,,,5,,,48,110
29568,note_on,2,0,5,,,,,,,,4,,,81,110
29568,note_on,2,0,7,,,,,,,,6,,,84,110
29590,note_on,22,0,5,,,,,,,,4,,,81,0
29590,note_on,22,0,10,,,,,,,,10,,,77,0
29590,note_on,22,0,9,,,,,,,,8,,,81,0
29592,note_on,2,0,10,,,,,,,,10,,,76,92
29592,note_on,2,0,5,,,,,,,,4,,,79,110
29592,note_on,2,0,9,,,,,,,,8,,,79,92
29614,note_on,22,0,10,,,,,,,,10,,,76,0
29614,note_on,22,0,5,,,,,,,,4,,,79,0
29614,note_on,22,0,9,,,,,,,,8,,,79,0
29616,note_on,2,0,9,,,,,,,,8,,,81,92
29616,note_on,2,0,5,,,,,,,,4,,,81,110
29616,note_on,2,0,10,,,,,,,,10,,,77,92
29638,note_on,22,0,10,,,,,,,,10,,,77,0
29638,note_on,22,0,9,,,,,,,,8,,,81,0
29638,note_on,22,0,5,,,,,,,,4,,,81,0
29640,note_on,2,0,9,,,,,,,,8,,,79,92
29640,note_on,2,0,10,,,,,,,,10,,,76,92
29640,note_on,2,0,5,,,,,,,,4,,,79,110
29662,note_on,22,0,10,,,,,,,,10,,,76,0
29662,note_on,22,0,5,,,,,,,,4,,,79,0
29662,note_on,94,0,11,,,,,,,,11,,,55,0
29662,note_on,22,0,9,,,,,,,,8,,,79,0
29662,note_on,94,0,1,,,,,,,,0,,,76,0
29662,note_on,94,0,4,,,,,,,,3,,,64,0
29664,note_on,128,0,3,,,,,,,,2,,,79,110
29664,note_on,128,0,8,,,,,,,,7,,,64,110
29664,note_on,2,0,10,,,,,,,,10,,,72,92
29664,note_on,2,0,4,,,,,,,,3,,,67,110
29664,note_on,2,0,11,,,,,,,,11,,,67,92
29664,note_on,2,0,1,,,,,,,,0,,,72,110
29664,note_on,128,0,2,,,,,,,,1,,,60,110
29664,note_on,2,0,5,,,,,,,,4,,,76,110
29664,note_on,2,0,9,,,,,,,,8,,,76,92
29710,note_on,46,0,5,,,,,,,,4,,,76,0
29710,note_on,46,0,9,,,,,,,,8,,,76,0
29710,note_on,46,0,1,,,,,,,,0,,,72,0
29710,note_on,46,0,10,,,,,,,,10,,,72,0
29712,note_on,2,0,1,,,,,,,,0,,,74,110
29712,note_on,2,0,5,,,,,,,,4,,,77,110
29712,note_on,2,0,9,,,,,,,,8,,,77,92
29712,note_on,2,0,10,,,,,,,,10,,,74,92
29728,note_on,160,0,12,,,,,,,,12,,,48,0
29728,note_on,160,0,6,,,,,,,,5,,,48,0
29728,note_on,160,0,7,,,,,,,,6,,,84,0
29758,note_on,94,0,2,,,,,,,,1,,,60,0
29758,note_on,46,0,9,,,,,,,,8,,,77,0
29758,note_on,46,0,1,,,,,,,,0,,,74,0
29758,note_on,94,0,4,,,,,,,,3,,,67,0
29758,note_on,94,0,8,,,,,,,,7,,,64,0
29758,note_on,94,0,3,,,,,,,,2,,,79,0
29758,note_on,94,0,11,,,,,,,,11,,,67,0
29758,note_on,46,0,5,,,,,,,,4,,,77,0
29758,note_on,46,0,10,,,,,,,,10,,,74,0
29760,note_on,2,0,11,,,,,,,,11,,,64,92
29760,note_on,2,0,8,,,,,,,,7,,,60,110
29760,note_on,2,0,3,,,,,,,,2,,,84,110
29760,note_on,2,0,1,,,,,,,,0,,,76,110
29760,note_on,2,0,5,,,,,,,,4,,,79,110
29760,note_on,2,0,9,,,,,,,,8,,,79,92
29760,note_on,2,0,2,,,,,,,,1,,,48,110
29760,note_on,2,0,4,,,,,,,,3,,,64,110
29760,note_on,2,0,10,,,,,,,,10,,,76,92
29854,note_on,94,0,10,,,,,,,,10,,,76,0
29854,note_on,94,0,5,,,,,,,,4,,,79,0
29854,note_on,94,0,1,,,,,,,,0,,,76,0
29854,note_on,94,0,11,,,,,,,,11,,,64,0
29854,note_on,94,0,9,,,,,,,,8,,,79,0
29854,note_on,94,0,4,,,,,,,,3,,,64,0
29856,note_on,2,0,10,,,,,,,,10,,,76,92
29856,note_on,2,0,5,,,,,,,,4,,,79,110
29856,note_on,2,0,1,,,,,,,,0,,,76,110
29856,note_on,128,0,6,,,,,,,,5,,,60,110
29856,note_on,128,0,7,,,,,,,,6,,,79,110
29856,note_on,2,0,11,,,,,,,,11,,,60,92
29856,note_on,2,0,9,,,,,,,,8,,,79,92
29856,note_on,2,0,4,,,,,,,,3,,,60,110
29902,note_on,46,0,4,,,,,,,,3,,,60,0
29904,note_on,2,0,4,,,,,,,,3,,,62,110
29920,note_on,160,0,3,,,,,,,,2,,,84,0
29920,note_on,160,0,8,,,,,,,,7,,,60,0
29920,note_on,160,0,2,,,,,,,,1,,,48,0
29950,note_on,94,0,10,,,,,,,,10,,,76,0
29950,note_on,94,0,1,,,,,,,,0,,,76,0
29950,note_on,46,0,4,,,,,,,,3,,,62,0
29950,note_on,94,0,9,,,,,,,,8,,,79,0
29950,note_on,94,0,6,,,,,,,,5,,,60,0
29950,note_on,94,0,5,,,,,,,,4,,,79,0
29950,note_on,94,0,11,,,,,,,,11,,,60,0
29950,note_on,94,0,7,,,,,,,,6,,,79,0
29952,note_on,2,0,5,,,,,,,,4,,,79,110
29952,note_on,2,0,7,,,,,,,,6,,,84,110
29952,note_on,2,0,4,,,,,,,,3,,,64,110
29952,note_on,2,0,11,,,,,,,,11,,,55,92
29952,note_on,2,0,6,,,,,,,,5,,,48,110
29952,note_on,2,0,1,,,,,,,,0,,,76,110
29952,note_on,2,0,10,,,,,,,,10,,,76,92
29952,note_on,2,0,9,,,,,,,,8,,,79,92
29952,note_on,224,0,12,,,,,,,,12,,,48,92
29998,note_on,46,0,4,,,,,,,,3,,,64,0
30000,note_on,2,0,4,,,,,,,,3,,,65,110
30046,note_on,94,0,1,,,,,,,,0,,,76,0
30046,note_on,94,0,5,,,,,,,,4,,,79,0
30046,note_on,94,0,6,,,,,,,,5,,,48,0
30046,note_on,94,0,9,,,,,,,,8,,,79,0
30046,note_on,94,0,12,,,,,,,,12,,,48,0
30046,note_on,94,0,11,,,,,,,,11,,,55,0
30046,note_on,94,0,10,,,,,,,,10,,,76,0
30046,note_on,46,0,4,,,,,,,,3,,,65,0
30048,note_on,128,0,8,,,,,,,,7,,,64,110
30048,note_on,2,0,9,,,,,,,,8,,,79,92
30048,note_on,2,0,11,,,,,,,,11,,,60,92
30048,note_on,2,0,10,,,,,,,,10,,,76,92
30048,note_on,2,0,12,,,,,,,,12,,,60,92
30048,note_on,2,0,5,,,,,,,,4,,,79,110
30048,note_on,2,0,1,,,,,,,,0,,,76,110
30048,note_on,128,0,2,,,,,,,,1,,,60,110
30048,note_on,128,0,3,,,,,,,,2,,,79,110
30048,note_on,2,0,6,,,,,,,,5,,,60,110
30048,note_on,2,0,4,,,,,,,,3,,,67,110
30094,note_on,46,0,12,,,,,,,,12,,,60,0
30094,note_on,46,0,6,,,,,,,,5,,,60,0
30094,note_on,46,0,2,,,,,,,,1,,,60,0
30094,note_on,46,0,4,,,,,,,,3,,,67,0
30096,note_on,2,0,6,,,,,,,,5,,,59,110
30096,note_on,2,0,2,,,,,,,,1,,,59,110
30096,note_on,2,0,12,,,,,,,,12,,,59,92
30096,note_on,2,0,4,,,,,,,,3,,,65,110
30112,note_on,160,0,7,,,,,,,,6,,,84,0
30142,note_on,94,0,3,,,,,,,,2,,,79,0
30142,note_on,46,0,6,,,,,,,,5,,,59,0
30142,note_on,46,0,2,,,,,,,,1,,,59,0
30142,note_on,94,0,9,,,,,,,,8,,,79,0
30142,note_on,94,0,5,,,,,,,,4,,,79,0
30142,note_on,94,0,1,,,,,,,,0,,,76,0
30142,note_on,94,0,10,,,,,,,,10,,,76,0
30142,note_on,94,0,8,,,,,,,,7,,,64,0
30142,note_on,46,0,12,,,,,,,,12,,,59,0
30142,note_on,94,0,11,,,,,,,,11,,,60,0
30142,note_on,46,0,4,,,,,,,,3,,,65,0
30144,note_on,2,0,9,,,,,,,,8,,,81,92
30144,note_on,2,0,12,,,,,,,,12,,,60,92
30144,note_on,2,0,5,,,,,,,,4,,,81,110
30144,note_on,2,0,2,,,,,,,,1,,,60,110
30144,note_on,2,0,11,,,,,,,,11,,,64,92
30144,note_on,2,0,4,,,,,,,,3,,,64,110
30144,note_on,2,0,3,,,,,,,,2,,,84,110
30144,note_on,2,0,1,,,,,,,,0,,,76,110
30144,note_on,2,0,8,,,,,,,,7,,,60,110
30144,note_on,2,0,6,,,,,,,,5,,,60,110
30144,note_on,2,0,10,,,,,,,,10,,,77,92
30166,note_on,22,0,10,,,,,,,,10,,,77,0
30166,note_on,22,0,9,,,,,,,,8,,,81,0
30166,note_on,22,0,5,,,,,,,,4,,,81,0
30168,note_on,2,0,5,,,,,,,,4,,,79,110
30168,note_on,2,0,10,,,,,,,,10,,,76,92
30168,note_on,2,0,9,,,,,,,,8,,,79,92
30190,note_on,22,0,9,,,,,,,,8,,,79,0
30190,note_on,46,0,3,,,,,,,,2,,,84,0
30190,note_on,22,0,10,,,,,,,,10,,,76,0
30190,note_on,22,0,5,,,,,,,,4,,,79,0
30190,note_on,46,0,4,,,,,,,,3,,,64,0
30192,note_on,2,0,9,,,,,,,,8,,,81,92
30192,note_on,80,0,7,,,,,,,,6,,,72,110
30192,note_on,2,0,5,,,,,,,,4,,,81,110
30192,note_on,2,0,3,,,,,,,,2,,,76,110
30192,note_on,2,0,10,,,,,,,,10,,,77,92
30192,note_on,2,0,4,,,,,,,,3,,,67,110
30214,note_on,22,0,9,,,,,,,,8,,,81,0
30214,note_on,22,0,5,,,,,,,,4,,,81,0
30214,note_on,22,0,10,,,,,,,,10,,,77,0
30216,note_on,2,0,5,,,,,,,,4,,,79,110
30216,note_on,2,0,9,,,,,,,,8,,,79,92
30216,note_on,2,0,10,,,,,,,,10,,,76,92
30238,note_on,46,0,7,,,,,,,,6,,,72,0
30238,note_on,94,0,12,,,,,,,,12,,,60,0
30238,note_on,46,0,4,,,,,,,,3,,,67,0
30238,note_on,22,0,5,,,,,,,,4,,,79,0
30238,note_on,46,0,3,,,,,,,,2,,,76,0
30238,note_on,94,0,6,,,,,,,,5,,,60,0
30238,note_on,94,0,2,,,,,,,,1,,,60,0
30238,note_on,22,0,10,,,,,,,,10,,,76,0
30238,note_on,22,0,9,,,,,,,,8,,,79,0
30238,note_on,94,0,8,,,,,,,,7,,,60,0
30238,note_on,94,0,1,,,,,,,,0,,,76,0
30238,note_on,94,0,11,,,,,,,,11,,,64,0
30240,note_on,2,0,8,,,,,,,,7,,,55,110
30240,note_on,2,0,9,,,,,,,,8,,,77,92
30240,note_on,2,0,1,,,,,,,,0,,,74,110
30240,note_on,2,0,12,,,,,,,,12,,,48,92
30240,note_on,2,0,11,,,,,,,,11,,,67,92
30240,note_on,2,0,2,,,,,,,,1,,,48,110
30240,note_on,2,0,10,,,,,,,,10,,,74,92
30240,note_on,2,0,7,,,,,,,,6,,,74,110
30240,note_on,2,0,4,,,,,,,,3,,,69,110
30240,note_on,2,0,3,,,,,,,,2,,,77,110
30240,note_on,2,0,5,,,,,,,,4,,,77,110
30240,note_on,2,0,6,,,,,,,,5,,,48,110
30286,note_on,46,0,10,,,,,,,,10,,,74,0
30286,note_on,46,0,1,,,,,,,,0,,,74,0
30286,note_on,46,0,5,,,,,,,,4,,,77,0
30286,note_on,46,0,4,,,,,,,,3,,,69,0
30286,note_on,46,0,9,,,,,,,,8,,,77,0
30286,note_on,46,0,7,,,,,,,,6,,,74,0
30286,note_on,46,0,3,,,,,,,,2,,,77,0
30288,note_on,2,0,10,,,,,,,,10,,,72,92
30288,note_on,2,0,1,,,,,,,,0,,,72,110
30288,note_on,2,0,9,,,,,,,,8,,,76,92
30288,note_on,2,0,5,,,,,,,,4,,,76,110
30288,note_on,2,0,7,,,,,,,,6,,,76,110
30288,note_on,2,0,3,,,,,,,,2,,,79,110
30288,note_on,2,0,4,,,,,,,,3,,,67,110
30334,note_on,46,0,4,,,,,,,,3,,,67,0
30334,note_on,94,0,12,,,,,,,,12,,,48,0
30334,note_on,46,0,9,,,,,,,,8,,,76,0
30334,note_on,94,0,2,,,,,,,,1,,,48,0
30334,note_on,94,0,11,,,,,,,,11,,,67,0
30334,note_on,46,0,3,,,,,,,,2,,,79,0
30334,note_on,46,0,1,,,,,,,,0,,,72,0
30334,note_on,46,0,5,,,,,,,,4,,,76,0
30334,note_on,94,0,8,,,,,,,,7,,,55,0
30334,note_on,94,0,6,,,,,,,,5,,,48,0
30334,note_on,46,0,7,,,,,,,,6,,,76,0
30334,note_on,46,0,10,,,,,,,,10,,,72,0
30336,note_on,2,0,3,,,,,,,,2,,,74,110
30336,note_on,2,0,5,,,,,,,,4,,,74,110
30336,note_on,2,0,1,,,,,,,,0,,,71,110
30336,note_on,2,0,2,,,,,,,,1,,,55,110
30336,note_on,2,0,11,,,,,,,,11,,,67,92
30336,note_on,2,0,10,,,,,,,,10,,,71,92
30336,note_on,2,0,7,,,,,,,,6,,,71,110
30336,note_on,2,0,6,,,,,,,,5,,,55,110
30336,note_on,2,0,12,,,,,,,,12,,,55,92
30336,note_on,2,0,8,,,,,,,,7,,,67,110
30336,note_on,2,0,9,,,,,,,,8,,,74,92
30336,note_on,2,0,4,,,,,,,,3,,,55,110
30382,note_on,46,0,4,,,,,,,,3,,,55,0
30384,note_on,2,0,4,,,,,,,,3,,,60,110
30430,note_on,94,0,9,,,,,,,,8,,,74,0
30430,note_on,94,0,6,,,,,,,,5,,,55,0
30430,note_on,94,0,5,,,,,,,,4,,,74,0
30430,note_on,46,0,4,,,,,,,,3,,,60,0
30432,note_on,2,0,5,,,,,,,,4,,,67,110
30432,note_on,2,0,6,,,,,,,,5,,,43,110
30432,note_on,2,0,9,,,,,,,,8,,,67,92
30432,note_on,2,0,4,,,,,,,,3,,,59,110
30478,note_on,46,0,4,,,,,,,,3,,,59,0
30480,note_on,2,0,4,,,,,,,,3,,,57,110
30496,note_on,160,0,1,,,,,,,,0,,,71,0
30496,note_on,160,0,3,,,,,,,,2,,,74,0
30496,note_on,160,0,8,,,,,,,,7,,,67,0
30496,note_on,160,0,11,,,,,,,,11,,,67,0
30496,note_on,160,0,7,,,,,,,,6,,,71,0
30496,note_on,160,0,12,,,,,,,,12,,,55,0
30496,note_on,160,0,10,,,,,,,,10,,,71,0
30496,note_on,160,0,2,,,,,,,,1,,,55,0
30526,note_on,94,0,6,,,,,,,,5,,,43,0
30526,note_on,94,0,5,,,,,,,,4,,,67,0
30526,note_on,94,0,9,,,,,,,,8,,,67,0
30526,note_on,46,0,4,,,,,,,,3,,,57,0
30528,note_on,2,0,4,,,,,,,,3,,,55,110
30574,note_on,46,0,4,,,,,,,,3,,,55,0
30576,note_on,80,0,3,,,,,,,,2,,,67,110
30576,note_on,2,0,4,,,,,,,,3,,,53,110
30622,note_on,46,0,3,,,,,,,,2,,,67,0
30622,note_on,46,0,4,,,,,,,,3,,,53,0
30624,note_on,2,0,3,,,,,,,,2,,,69,110
30624,note_on,2,0,4,,,,,,,,3,,,52,110
30670,note_on,46,0,4,,,,,,,,3,,,52,0
30670,note_on,46,0,3,,,,,,,,2,,,69,0
30672,note_on,2,0,4,,,,,,,,3,,,50,110
30672,note_on,2,0,3,,,,,,,,2,,,71,110
30718,note_on,46,0,3,,,,,,,,2,,,71,0
30718,note_on,46,0,4,,,,,,,,3,,,50,0
30720,note_on,2,0,3,,,,,,,,2,,,72,110
30720,note_on,2,0,4,,,,,,,,3,,,52,110
30766,note_on,46,0,3,,,,,,,,2,,,72,0
30768,note_on,2,0,3,,,,,,,,2,,,74,110
30814,note_on,46,0,3,,,,,,,,2,,,74,0
30814,note_on,94,0,4,,,,,,,,3,,,52,0
30816,note_on,2,0,3,,,,,,,,2,,,76,110
30816,note_on,2,0,4,,,,,,,,3,,,48,110
30862,note_on,46,0,3,,,,,,,,2,,,76,0
30864,note_on,2,0,3,,,,,,,,2,,,77,110
30910,note_on,46,0,3,,,,,,,,2,,,77,0
30910,note_on,94,0,4,,,,,,,,3,,,48,0
30912,note_on,2,0,3,,,,,,,,2,,,79,110
30912,note_on,416,0,10,,,,,,,,10,,,64,45
30912,note_on,416,0,11,,,,,,,,11,,,64,45
30912,note_on,386,0,9,,,,,,,,8,,,64,45
30958,note_on,46,0,3,,,,,,,,2,,,79,0
30960,note_on,2,0,3,,,,,,,,2,,,70,110
31008,note_on,0,0,3,,,,,,,,2,,,69,110
31008,note_on,48,0,3,,,,,,,,2,,,70,0
31008,note_on,98,0,4,,,,,,,,3,,,55,110
31056,note_on,48,0,3,,,,,,,,2,,,69,0
31056,note_on,0,0,3,,,,,,,,2,,,70,110
31072,note_on,160,0,11,,,,,,,,11,,,64,0
31072,note_on,160,0,10,,,,,,,,10,,,64,0
31072,note_on,160,0,9,,,,,,,,8,,,64,0
31102,note_on,94,0,4,,,,,,,,3,,,55,0
31102,note_on,46,0,3,,,,,,,,2,,,70,0
31104,note_on,2,0,4,,,,,,,,3,,,52,110
31104,note_on,2,0,3,,,,,,,,2,,,79,110
31150,note_on,46,0,3,,,,,,,,2,,,79,0
31152,note_on,2,0,3,,,,,,,,2,,,70,110
31198,note_on,94,0,4,,,,,,,,3,,,52,0
31200,note_on,2,0,4,,,,,,,,3,,,48,110
31200,note_on,48,0,3,,,,,,,,2,,,70,0
31200,note_on,0,0,3,,,,,,,,2,,,69,110
31248,note_on,48,0,3,,,,,,,,2,,,69,0
31248,note_on,0,0,3,,,,,,,,2,,,70,110
31294,note_on,94,0,4,,,,,,,,3,,,48,0
31294,note_on,46,0,3,,,,,,,,2,,,70,0
31296,note_on,224,0,9,,,,,,,,8,,,64,45
31296,note_on,2,0,3,,,,,,,,2,,,79,110
31296,note_on,224,0,10,,,,,,,,10,,,64,45
31296,note_on,224,0,11,,,,,,,,11,,,64,45
31342,note_on,46,0,3,,,,,,,,2,,,79,0
31344,note_on,2,0,3,,,,,,,,2,,,70,110
31392,note_on,0,0,3,,,,,,,,2,,,69,110
31392,note_on,98,0,4,,,,,,,,3,,,52,110
31392,note_on,48,0,3,,,,,,,,2,,,70,0
31440,note_on,0,0,3,,,,,,,,2,,,67,110
31440,note_on,48,0,3,,,,,,,,2,,,69,0
31456,note_on,160,0,9,,,,,,,,8,,,64,0
31456,note_on,160,0,11,,,,,,,,11,,,64,0
31456,note_on,160,0,10,,,,,,,,10,,,64,0
31486,note_on,46,0,3,,,,,,,,2,,,67,0
31486,note_on,94,0,4,,,,,,,,3,,,52,0
31488,note_on,2,0,4,,,,,,,,3,,,53,110
31488,note_on,2,0,3,,,,,,,,2,,,69,110
31582,note_on,94,0,4,,,,,,,,3,,,53,0
31582,note_on,94,0,3,,,,,,,,2,,,69,0
31584,note_on,2,0,4,,,,,,,,3,,,55,110
31584,note_on,2,0,3,,,,,,,,2,,,65,110
31678,note_on,94,0,3,,,,,,,,2,,,65,0
31678,note_on,94,0,4,,,,,,,,3,,,55,0
31680,note_on,224,0,11,,,,,,,,11,,,65,45
31680,note_on,2,0,4,,,,,,,,3,,,57,110
31680,note_on,224,0,10,,,,,,,,10,,,65,45
31680,note_on,224,0,9,,,,,,,,8,,,65,45
31728,note_on,50,0,3,,,,,,,,2,,,69,110
31774,note_on,46,0,3,,,,,,,,2,,,69,0
31774,note_on,94,0,4,,,,,,,,3,,,57,0
31776,note_on,2,0,3,,,,,,,,2,,,71,110
31776,note_on,2,0,4,,,,,,,,3,,,55,110
31822,note_on,46,0,3,,,,,,,,2,,,71,0
31824,note_on,2,0,3,,,,,,,,2,,,73,110
31840,note_on,160,0,11,,,,,,,,11,,,65,0
31840,note_on,160,0,9,,,,,,,,8,,,65,0
31840,note_on,160,0,10,,,,,,,,10,,,65,0
31870,note_on,94,0,4,,,,,,,,3,,,55,0
31870,note_on,46,0,3,,,,,,,,2,,,73,0
31872,note_on,2,0,3,,,,,,,,2,,,74,110
31872,note_on,2,0,4,,,,,,,,3,,,54,110
31918,note_on,46,0,3,,,,,,,,2,,,74,0
31920,note_on,2,0,3,,,,,,,,2,,,76,110
31966,note_on,94,0,4,,,,,,,,3,,,54,0
31966,note_on,46,0,3,,,,,,,,2,,,76,0
31968,note_on,2,0,4,,,,,,,,3,,,50,110
31968,note_on,2,0,3,,,,,,,,2,,,78,110
32014,note_on,46,0,3,,,,,,,,2,,,78,0
32016,note_on,2,0,3,,,,,,,,2,,,79,110
32062,note_on,94,0,4,,,,,,,,3,,,50,0
32062,note_on,46,0,3,,,,,,,,2,,,79,0
32064,note_on,2,0,3,,,,,,,,2,,,81,110
32064,note_on,224,0,9,,,,,,,,8,,,66,45
32064,note_on,224,0,11,,,,,,,,11,,,66,45
32064,note_on,224,0,10,,,,,,,,10,,,66,45
32110,note_on,46,0,3,,,,,,,,2,,,81,0
32112,note_on,2,0,3,,,,,,,,2,,,72,110
32160,note_on,48,0,3,,,,,,,,2,,,72,0
32160,note_on,0,0,3,,,,,,,,2,,,71,110
32160,note_on,98,0,4,,,,,,,,3,,,57,110
32208,note_on,0,0,3,,,,,,,,2,,,72,110
32208,note_on,48,0,3,,,,,,,,2,,,71,0
32224,note_on,160,0,10,,,,,,,,10,,,66,0
32224,note_on,160,0,11,,,,,,,,11,,,66,0
32224,note_on,160,0,9,,,,,,,,8,,,66,0
32254,note_on,94,0,4,,,,,,,,3,,,57,0
32254,note_on,46,0,3,,,,,,,,2,,,72,0
32256,note_on,2,0,4,,,,,,,,3,,,54,110
32256,note_on,2,0,3,,,,,,,,2,,,81,110
32302,note_on,46,0,3,,,,,,,,2,,,81,0
32304,note_on,2,0,3,,,,,,,,2,,,72,110
32350,note_on,94,0,4,,,,,,,,3,,,54,0
32352,note_on,0,0,3,,,,,,,,2,,,71,110
32352,note_on,48,0,3,,,,,,,,2,,,72,0
32352,note_on,2,0,4,,,,,,,,3,,,50,110
32400,note_on,0,0,3,,,,,,,,2,,,72,110
32400,note_on,48,0,3,,,,,,,,2,,,71,0
32446,note_on,46,0,3,,,,,,,,2,,,72,0
32446,note_on,94,0,4,,,,,,,,3,,,50,0
32448,note_on,224,0,11,,,,,,,,11,,,66,45
32448,note_on,224,0,9,,,,,,,,8,,,66,45
32448,note_on,2,0,3,,,,,,,,2,,,81,110
32448,note_on,224,0,10,,,,,,,,10,,,66,45
32494,note_on,46,0,3,,,,,,,,2,,,81,0
32496,note_on,2,0,3,,,,,,,,2,,,72,110
32544,note_on,48,0,3,,,,,,,,2,,,72,0
32544,note_on,0,0,3,,,,,,,,2,,,71,110
32544,note_on,98,0,4,,,,,,,,3,,,54,110
32592,note_on,48,0,3,,,,,,,,2,,,71,0
32592,note_on,0,0,3,,,,,,,,2,,,69,110
32608,note_on,160,0,11,,,,,,,,11,,,66,0
32608,note_on,160,0,10,,,,,,,,10,,,66,0
32608,note_on,160,0,9,,,,,,,,8,,,66,0
32638,note_on,94,0,4,,,,,,,,3,,,54,0
32638,note_on,46,0,3,,,,,,,,2,,,69,0
32640,note_on,2,0,4,,,,,,,,3,,,55,110
32640,note_on,2,0,3,,,,,,,,2,,,71,110
32686,note_on,46,0,4,,,,,,,,3,,,55,0
32688,note_on,2,0,4,,,,,,,,3,,,43,110
32734,note_on,94,0,3,,,,,,,,2,,,71,0
32734,note_on,46,0,4,,,,,,,,3,,,43,0
32736,note_on,128,0,11,,,,,,,,11,,,67,45
32736,note_on,2,0,3,,,,,,,,2,,,67,110
32736,note_on,128,0,9,,,,,,,,8,,,67,45
32736,note_on,128,0,10,,,,,,,,10,,,67,45
32736,note_on,2,0,4,,,,,,,,3,,,45,110
32782,note_on,46,0,4,,,,,,,,3,,,45,0
32784,note_on,2,0,4,,,,,,,,3,,,47,110
32830,note_on,46,0,4,,,,,,,,3,,,47,0
32830,note_on,94,0,10,,,,,,,,10,,,67,0
32830,note_on,94,0,11,,,,,,,,11,,,67,0
32830,note_on,94,0,9,,,,,,,,8,,,67,0
32830,note_on,94,0,3,,,,,,,,2,,,67,0
32832,note_on,2,0,10,,,,,,,,10,,,55,45
32832,note_on,2,0,9,,,,,,,,8,,,55,45
32832,note_on,2,0,4,,,,,,,,3,,,48,110
32832,note_on,2,0,11,,,,,,,,11,,,55,45
32878,note_on,46,0,4,,,,,,,,3,,,48,0
32880,note_on,50,0,3,,,,,,,,2,,,71,110
32880,note_on,2,0,4,,,,,,,,3,,,50,110
32926,note_on,46,0,4,,,,,,,,3,,,50,0
32926,note_on,46,0,3,,,,,,,,2,,,71,0
32928,note_on,2,0,4,,,,,,,,3,,,52,110
32928,note_on,2,0,3,,,,,,,,2,,,72,110
32974,note_on,46,0,4,,,,,,,,3,,,52,0
32974,note_on,46,0,3,,,,,,,,2,,,72,0
32976,note_on,2,0,4,,,,,,,,3,,,53,110
32976,note_on,2,0,3,,,,,,,,2,,,74,110
32992,note_on,160,0,10,,,,,,,,10,,,55,0
32992,note_on,160,0,9,,,,,,,,8,,,55,0
32992,note_on,160,0,11,,,,,,,,11,,,55,0
33022,note_on,46,0,3,,,,,,,,2,,,74,0
33022,note_on,46,0,4,,,,,,,,3,,,53,0
33024,note_on,2,0,4,,,,,,,,3,,,55,110
33024,note_on,2,0,3,,,,,,,,2,,,76,110
33070,note_on,46,0,3,,,,,,,,2,,,76,0
33072,note_on,2,0,3,,,,,,,,2,,,77,110
33118,note_on,94,0,4,,,,,,,,3,,,55,0
33118,note_on,46,0,3,,,,,,,,2,,,77,0
33120,note_on,2,0,4,,,,,,,,3,,,59,110
33120,note_on,2,0,3,,,,,,,,2,,,76,110
33166,note_on,46,0,3,,,,,,,,2,,,76,0
33168,note_on,2,0,3,,,,,,,,2,,,77,110
33214,note_on,46,0,3,,,,,,,,2,,,77,0
33214,note_on,94,0,4,,,,,,,,3,,,59,0
33216,note_on,2,0,4,,,,,,,,3,,,55,110
33216,note_on,2720,0,12,,,,,,,,12,,,55,45
33216,note_on,2,0,3,,,,,,,,2,,,76,110
33262,note_on,46,0,3,,,,,,,,2,,,76,0
33264,note_on,2,0,3,,,,,,,,2,,,77,110
33310,note_on,94,0,4,,,,,,,,3,,,55,0
33310,note_on,46,0,3,,,,,,,,2,,,77,0
33312,note_on,2,0,4,,,,,,,,3,,,52,110
33312,note_on,2,0,3,,,,,,,,2,,,76,110
33358,note_on,46,0,3,,,,,,,,2,,,76,0
33360,note_on,2,0,3,,,,,,,,2,,,74,110
33376,note_on,160,0,12,,,,,,,,12,,,55,0
33406,note_on,94,0,4,,,,,,,,3,,,52,0
33406,note_on,46,0,3,,,,,,,,2,,,74,0
33408,note_on,2,0,4,,,,,,,,3,,,57,110
33408,note_on,2,0,3,,,,,,,,2,,,72,110
33454,note_on,46,0,3,,,,,,,,2,,,72,0
33456,note_on,2,0,3,,,,,,,,2,,,71,110
33502,note_on,94,0,4,,,,,,,,3,,,57,0
33502,note_on,46,0,3,,,,,,,,2,,,71,0
33504,note_on,2,0,3,,,,,,,,2,,,72,110
33504,note_on,2,0,4,,,,,,,,3,,,64,110
33550,note_on,46,0,3,,,,,,,,2,,,72,0
33552,note_on,2,0,3,,,,,,,,2,,,71,110
33598,note_on,94,0,4,,,,,,,,3,,,64,0
33598,note_on,46,0,3,,,,,,,,2,,,71,0
33600,note_on,2,0,4,,,,,,,,3,,,60,110
33600,note_on,224,0,12,,,,,,,,12,,,57,45
33600,note_on,2,0,3,,,,,,,,2,,,69,110
33646,note_on,46,0,3,,,,,,,,2,,,69,0
33648,note_on,2,0,3,,,,,,,,2,,,72,110
33694,note_on,46,0,3,,,,,,,,2,,,72,0
33694,note_on,94,0,4,,,,,,,,3,,,60,0
33696,note_on,2,0,3,,,,,,,,2,,,74,110
33696,note_on,2,0,4,,,,,,,,3,,,59,110
33742,note_on,46,0,3,,,,,,,,2,,,74,0
33744,note_on,2,0,3,,,,,,,,2,,,76,110
33760,note_on,160,0,12,,,,,,,,12,,,57,0
33790,note_on,94,0,4,,,,,,,,3,,,59,0
33790,note_on,46,0,3,,,,,,,,2,,,76,0
33792,note_on,2,0,3,,,,,,,,2,,,77,110
33792,note_on,2,0,4,,,,,,,,3,,,57,110
33838,note_on,46,0,3,,,,,,,,2,,,77,0
33840,note_on,2,0,3,,,,,,,,2,,,79,110
33886,note_on,46,0,3,,,,,,,,2,,,79,0
33886,note_on,94,0,4,,,,,,,,3,,,57,0
33888,note_on,2,0,4,,,,,,,,3,,,60,110
33888,note_on,2,0,3,,,,,,,,2,,,77,110
33934,note_on,46,0,3,,,,,,,,2,,,77,0
33936,note_on,2,0,3,,,,,,,,2,,,79,110
33982,note_on,94,0,4,,,,,,,,3,,,60,0
33982,note_on,46,0,3,,,,,,,,2,,,79,0
33984,note_on,224,0,12,,,,,,,,12,,,57,45
33984,note_on,2,0,4,,,,,,,,3,,,57,110
33984,note_on,2,0,3,,,,,,,,2,,,77,110
34030,note_on,46,0,3,,,,,,,,2,,,77,0
34032,note_on,2,0,3,,,,,,,,2,,,79,110
34078,note_on,46,0,3,,,,,,,,2,,,79,0
34078,note_on,94,0,4,,,,,,,,3,,,57,0
34080,note_on,2,0,4,,,,,,,,3,,,53,110
34080,note_on,2,0,3,,,,,,,,2,,,77,110
34126,note_on,46,0,3,,,,,,,,2,,,77,0
34128,note_on,2,0,3,,,,,,,,2,,,76,110
34144,note_on,160,0,12,,,,,,,,12,,,57,0
34174,note_on,46,0,3,,,,,,,,2,,,76,0
34174,note_on,94,0,4,,,,,,,,3,,,53,0
34176,note_on,2,0,4,,,,,,,,3,,,59,110
34176,note_on,2,0,3,,,,,,,,2,,,74,110
34222,note_on,46,0,3,,,,,,,,2,,,74,0
34224,note_on,2,0,3,,,,,,,,2,,,72,110
34270,note_on,94,0,4,,,,,,,,3,,,59,0
34270,note_on,46,0,3,,,,,,,,2,,,72,0
34272,note_on,2,0,4,,,,,,,,3,,,65,110
34272,note_on,2,0,3,,,,,,,,2,,,74,110
34318,note_on,46,0,3,,,,,,,,2,,,74,0
34320,note_on,2,0,3,,,,,,,,2,,,72,110
34366,note_on,46,0,3,,,,,,,,2,,,72,0
34366,note_on,94,0,4,,,,,,,,3,,,65,0
34368,note_on,2,0,3,,,,,,,,2,,,71,110
34368,note_on,224,0,12,,,,,,,,12,,,59,45
34368,note_on,2,0,4,,,,,,,,3,,,62,110
34414,note_on,46,0,3,,,,,,,,2,,,71,0
34416,note_on,2,0,3,,,,,,,,2,,,74,110
34462,note_on,94,0,4,,,,,,,,3,,,62,0
34462,note_on,46,0,3,,,,,,,,2,,,74,0
34464,note_on,2,0,4,,,,,,,,3,,,60,110
34464,note_on,2,0,3,,,,,,,,2,,,76,110
34510,note_on,46,0,3,,,,,,,,2,,,76,0
34512,note_on,2,0,3,,,,,,,,2,,,77,110
34528,note_on,160,0,12,,,,,,,,12,,,59,0
34558,note_on,46,0,3,,,,,,,,2,,,77,0
34558,note_on,94,0,4,,,,,,,,3,,,60,0
34560,note_on,2,0,4,,,,,,,,3,,,59,110
34560,note_on,2,0,3,,,,,,,,2,,,79,110
34606,note_on,46,0,3,,,,,,,,2,,,79,0
34608,note_on,2,0,3,,,,,,,,2,,,81,110
34654,note_on,94,0,4,,,,,,,,3,,,59,0
34654,note_on,46,0,3,,,,,,,,2,,,81,0
34656,note_on,2,0,4,,,,,,,,3,,,62,110
34656,note_on,2,0,3,,,,,,,,2,,,79,110
34702,note_on,46,0,3,,,,,,,,2,,,79,0
34704,note_on,2,0,3,,,,,,,,2,,,81,110
34750,note_on,94,0,4,,,,,,,,3,,,62,0
34750,note_on,46,0,3,,,,,,,,2,,,81,0
34752,note_on,2,0,3,,,,,,,,2,,,79,110
34752,note_on,224,0,12,,,,,,,,12,,,59,45
34752,note_on,2,0,4,,,,,,,,3,,,59,110
34798,note_on,46,0,3,,,,,,,,2,,,79,0
34800,note_on,2,0,3,,,,,,,,2,,,81,110
34846,note_on,46,0,3,,,,,,,,2,,,81,0
34846,note_on,94,0,4,,,,,,,,3,,,59,0
34848,note_on,2,0,3,,,,,,,,2,,,79,110
34848,note_on,2,0,4,,,,,,,,3,,,55,110
34894,note_on,46,0,3,,,,,,,,2,,,79,0
34896,note_on,2,0,3,,,,,,,,2,,,77,110
34912,note_on,160,0,12,,,,,,,,12,,,59,0
34942,note_on,94,0,4,,,,,,,,3,,,55,0
34942,note_on,46,0,3,,,,,,,,2,,,77,0
34944,note_on,2,0,4,,,,,,,,3,,,60,110
34944,note_on,2,0,3,,,,,,,,2,,,76,110
34990,note_on,46,0,3,,,,,,,,2,,,76,0
34992,note_on,2,0,3,,,,,,,,2,,,74,110
35038,note_on,46,0,3,,,,,,,,2,,,74,0
35038,note_on,94,0,4,,,,,,,,3,,,60,0
35040,note_on,2,0,3,,,,,,,,2,,,76,110
35040,note_on,2,0,4,,,,,,,,3,,,67,110
35086,note_on,46,0,3,,,,,,,,2,,,76,0
35088,note_on,2,0,3,,,,,,,,2,,,74,110
35134,note_on,46,0,3,,,,,,,,2,,,74,0
35134,note_on,94,0,4,,,,,,,,3,,,67,0
35136,note_on,224,0,12,,,,,,,,12,,,60,45
35136,note_on,2,0,3,,,,,,,,2,,,72,110
35136,note_on,2,0,4,,,,,,,,3,,,64,110
35182,note_on,46,0,3,,,,,,,,2,,,72,0
35184,note_on,2,0,3,,,,,,,,2,,,79,110
35230,note_on,94,0,4,,,,,,,,3,,,64,0
35230,note_on,46,0,3,,,,,,,,2,,,79,0
35232,note_on,2,0,4,,,,,,,,3,,,62,110
35232,note_on,2,0,3,,,,,,,,2,,,81,110
35278,note_on,46,0,3,,,,,,,,2,,,81,0
35280,note_on,2,0,3,,,,,,,,2,,,83,110
35296,note_on,160,0,12,,,,,,,,12,,,60,0
35326,note_on,94,0,4,,,,,,,,3,,,62,0
35326,note_on,46,0,3,,,,,,,,2,,,83,0
35328,note_on,4802,0,5,,,,,,,,4,,,76,110
35328,note_on,2,0,3,,,,,,,,2,,,84,110
35328,note_on,2336,0,11,,,,,,,,11,,,60,45
35328,note_on,4802,0,6,,,,,,,,5,,,60,110
35328,note_on,2,0,4,,,,,,,,3,,,60,110
35374,note_on,46,0,3,,,,,,,,2,,,84,0
35374,note_on,46,0,5,,,,,,,,4,,,76,0
35376,note_on,2,0,3,,,,,,,,2,,,83,110
35376,note_on,2,0,5,,,,,,,,4,,,74,110
35422,note_on,46,0,3,,,,,,,,2,,,83,0
35422,note_on,94,0,6,,,,,,,,5,,,60,0
35422,note_on,46,0,5,,,,,,,,4,,,74,0
35422,note_on,94,0,11,,,,,,,,11,,,60,0
35422,note_on,94,0,4,,,,,,,,3,,,60,0
35424,note_on,2,0,6,,,,,,,,5,,,60,110
35424,note_on,2,0,3,,,,,,,,2,,,84,110
35424,note_on,2,0,5,,,,,,,,4,,,76,110
35424,note_on,2,0,4,,,,,,,,3,,,60,110
35470,note_on,46,0,3,,,,,,,,2,,,84,0
35470,note_on,46,0,5,,,,,,,,4,,,76,0
35472,note_on,2,0,3,,,,,,,,2,,,83,110
35472,note_on,2,0,5,,,,,,,,4,,,74,110
35518,note_on,46,0,3,,,,,,,,2,,,83,0
35518,note_on,94,0,6,,,,,,,,5,,,60,0
35518,note_on,46,0,5,,,,,,,,4,,,74,0
35518,note_on,94,0,4,,,,,,,,3,,,60,0
35520,note_on,2,0,3,,,,,,,,2,,,81,110
35520,note_on,2,0,5,,,,,,,,4,,,72,110
35520,note_on,2,0,4,,,,,,,,3,,,62,110
35520,note_on,2,0,6,,,,,,,,5,,,62,110
35520,note_on,98,0,11,,,,,,,,11,,,62,45
35566,note_on,46,0,3,,,,,,,,2,,,81,0
35566,note_on,46,0,5,,,,,,,,4,,,72,0
35568,note_on,2,0,5,,,,,,,,4,,,76,110
35568,note_on,2,0,3,,,,,,,,2,,,84,110
35614,note_on,94,0,6,,,,,,,,5,,,62,0
35614,note_on,94,0,11,,,,,,,,11,,,62,0
35614,note_on,46,0,5,,,,,,,,4,,,76,0
35614,note_on,46,0,3,,,,,,,,2,,,84,0
35614,note_on,94,0,4,,,,,,,,3,,,62,0
35616,note_on,2,0,6,,,,,,,,5,,,62,110
35616,note_on,2,0,3,,,,,,,,2,,,83,110
35616,note_on,2,0,4,,,,,,,,3,,,62,110
35616,note_on,2,0,5,,,,,,,,4,,,74,110
35662,note_on,46,0,5,,,,,,,,4,,,74,0
35662,note_on,46,0,3,,,,,,,,2,,,83,0
35664,note_on,2,0,5,,,,,,,,4,,,72,110
35664,note_on,2,0,3,,,,,,,,2,,,81,110
35710,note_on,46,0,3,,,,,,,,2,,,81,0
35710,note_on,94,0,6,,,,,,,,5,,,62,0
35710,note_on,94,0,4,,,,,,,,3,,,62,0
35710,note_on,46,0,5,,,,,,,,4,,,72,0
35712,note_on,2,0,6,,,,,,,,5,,,64,110
35712,note_on,98,0,11,,,,,,,,11,,,64,45
35712,note_on,2,0,4,,,,,,,,3,,,64,110
35712,note_on,2,0,3,,,,,,,,2,,,80,110
35712,note_on,2,0,5,,,,,,,,4,,,71,110
35758,note_on,46,0,3,,,,,,,,2,,,80,0
35758,note_on,46,0,5,,,,,,,,4,,,71,0
35760,note_on,2,0,3,,,,,,,,2,,,81,110
35760,note_on,2,0,5,,,,,,,,4,,,72,110
35806,note_on,94,0,11,,,,,,,,11,,,64,0
35806,note_on,46,0,3,,,,,,,,2,,,81,0
35806,note_on,46,0,5,,,,,,,,4,,,72,0
35806,note_on,94,0,6,,,,,,,,5,,,64,0
35806,note_on,94,0,4,,,,,,,,3,,,64,0
35808,note_on,2,0,5,,,,,,,,4,,,74,110
35808,note_on,2,0,6,,,,,,,,5,,,64,110
35808,note_on,2816,0,10,,,,,,,,10,,,68,45
35808,note_on,2816,0,9,,,,,,,,8,,,71,45
35808,note_on,2,0,4,,,,,,,,3,,,64,110
35808,note_on,2,0,3,,,,,,,,2,,,83,110
35854,note_on,46,0,10,,,,,,,,10,,,68,0
35854,note_on,46,0,5,,,,,,,,4,,,74,0
35854,note_on,46,0,9,,,,,,,,8,,,71,0
35854,note_on,46,0,3,,,,,,,,2,,,83,0
35856,note_on,2,0,9,,,,,,,,8,,,72,45
35856,note_on,2,0,10,,,,,,,,10,,,69,45
35856,note_on,2,0,5,,,,,,,,4,,,72,110
35856,note_on,2,0,3,,,,,,,,2,,,81,110
35902,note_on,94,0,4,,,,,,,,3,,,64,0
35902,note_on,46,0,9,,,,,,,,8,,,72,0
35902,note_on,46,0,3,,,,,,,,2,,,81,0
35902,note_on,94,0,6,,,,,,,,5,,,64,0
35902,note_on,46,0,10,,,,,,,,10,,,69,0
35902,note_on,46,0,5,,,,,,,,4,,,72,0
35904,note_on,2,0,3,,,,,,,,2,,,80,110
35904,note_on,2,0,5,,,,,,,,4,,,71,110
35904,note_on,2,0,9,,,,,,,,8,,,74,45
35904,note_on,2,0,10,,,,,,,,10,,,71,45
35904,note_on,2,0,4,,,,,,,,3,,,64,110
35904,note_on,2,0,6,,,,,,,,5,,,64,110
35950,note_on,46,0,3,,,,,,,,2,,,80,0
35950,note_on,46,0,5,,,,,,,,4,,,71,0
35952,note_on,2,0,5,,,,,,,,4,,,74,110
35952,note_on,2,0,3,,,,,,,,2,,,83,110
35998,note_on,46,0,5,,,,,,,,4,,,74,0
35998,note_on,46,0,3,,,,,,,,2,,,83,0
35998,note_on,94,0,10,,,,,,,,10,,,71,0
35998,note_on,94,0,6,,,,,,,,5,,,64,0
35998,note_on,94,0,9,,,,,,,,8,,,74,0
35998,note_on,94,0,4,,,,,,,,3,,,64,0
36000,note_on,194,0,11,,,,,,,,11,,,52,45
36000,note_on,2,0,3,,,,,,,,2,,,81,110
36000,note_on,2,0,4,,,,,,,,3,,,64,110
36000,note_on,2,0,6,,,,,,,,5,,,64,110
36000,note_on,2,0,5,,,,,,,,4,,,72,110
36046,note_on,46,0,3,,,,,,,,2,,,81,0
36046,note_on,46,0,5,,,,,,,,4,,,72,0
36048,note_on,2,0,3,,,,,,,,2,,,80,110
36048,note_on,2,0,5,,,,,,,,4,,,71,110
36094,note_on,46,0,5,,,,,,,,4,,,71,0
36094,note_on,46,0,3,,,,,,,,2,,,80,0
36094,note_on,94,0,6,,,,,,,,5,,,64,0
36094,note_on,94,0,11,,,,,,,,11,,,52,0
36094,note_on,94,0,4,,,,,,,,3,,,64,0
36096,note_on,2,0,5,,,,,,,,4,,,72,110
36096,note_on,2,0,4,,,,,,,,3,,,64,110
36096,note_on,2,0,11,,,,,,,,11,,,64,45
36096,note_on,2,0,3,,,,,,,,2,,,81,110
36096,note_on,2,0,6,,,,,,,,5,,,64,110
36142,note_on,46,0,5,,,,,,,,4,,,72,0
36142,note_on,46,0,3,,,,,,,,2,,,81,0
36144,note_on,2,0,5,,,,,,,,4,,,74,110
36144,note_on,2,0,3,,,,,,,,2,,,83,110
36190,note_on,94,0,4,,,,,,,,3,,,64,0
36190,note_on,94,0,6,,,,,,,,5,,,64,0
36190,note_on,46,0,5,,,,,,,,4,,,74,0
36190,note_on,46,0,3,,,,,,,,2,,,83,0
36190,note_on,94,0,11,,,,,,,,11,,,64,0
36192,note_on,194,0,9,,,,,,,,8,,,72,60
36192,note_on,194,0,10,,,,,,,,10,,,69,60
36192,note_on,2,0,6,,,,,,,,5,,,64,110
36192,note_on,2,0,4,,,,,,,,3,,,64,110
36192,note_on,2,0,5,,,,,,,,4,,,76,110
36192,note_on,2,0,3,,,,,,,,2,,,84,110
36238,note_on,46,0,9,,,,,,,,8,,,72,0
36238,note_on,46,0,10,,,,,,,,10,,,69,0
36238,note_on,46,0,5,,,,,,,,4,,,76,0
36238,note_on,46,0,3,,,,,,,,2,,,84,0
36240,note_on,2,0,10,,,,,,,,10,,,71,60
36240,note_on,2,0,9,,,,,,,,8,,,74,60
36240,note_on,2,0,5,,,,,,,,4,,,74,110
36240,note_on,2,0,3,,,,,,,,2,,,83,110
36286,note_on,46,0,10,,,,,,,,10,,,71,0
36286,note_on,46,0,9,,,,,,,,8,,,74,0
36286,note_on,46,0,5,,,,,,,,4,,,74,0
36286,note_on,46,0,3,,,,,,,,2,,,83,0
36286,note_on,94,0,4,,,,,,,,3,,,64,0
36286,note_on,94,0,6,,,,,,,,5,,,64,0
36288,note_on,2,0,10,,,,,,,,10,,,72,60
36288,note_on,2,0,3,,,,,,,,2,,,81,110
36288,note_on,2,0,9,,,,,,,,8,,,76,60
36288,note_on,2,0,6,,,,,,,,5,,,64,110
36288,note_on,2,0,4,,,,,,,,3,,,64,110
36288,note_on,2,0,5,,,,,,,,4,,,72,110
36334,note_on,46,0,5,,,,,,,,4,,,72,0
36334,note_on,46,0,3,,,,,,,,2,,,81,0
36336,note_on,2,0,5,,,,,,,,4,,,76,110
36336,note_on,2,0,3,,,,,,,,2,,,84,110
36382,note_on,94,0,6,,,,,,,,5,,,64,0
36382,note_on,94,0,4,,,,,,,,3,,,64,0
36382,note_on,46,0,3,,,,,,,,2,,,84,0
36382,note_on,94,0,9,,,,,,,,8,,,76,0
36382,note_on,46,0,5,,,,,,,,4,,,76,0
36382,note_on,94,0,10,,,,,,,,10,,,72,0
36384,note_on,2,0,6,,,,,,,,5,,,64,110
36384,note_on,2,0,5,,,,,,,,4,,,74,110
36384,note_on,2,0,3,,,,,,,,2,,,83,110
36384,note_on,2,0,4,,,,,,,,3,,,64,110
36384,note_on,194,0,11,,,,,,,,11,,,52,60
36430,note_on,46,0,5,,,,,,,,4,,,74,0
36430,note_on,46,0,3,,,,,,,,2,,,83,0
36432,note_on,2,0,5,,,,,,,,4,,,72,110
36432,note_on,2,0,3,,,,,,,,2,,,81,110
36478,note_on,46,0,3,,,,,,,,2,,,81,0
36478,note_on,46,0,5,,,,,,,,4,,,72,0
36478,note_on,94,0,6,,,,,,,,5,,,64,0
36478,note_on,94,0,4,,,,,,,,3,,,64,0
36478,note_on,94,0,11,,,,,,,,11,,,52,0
36480,note_on,2,0,11,,,,,,,,11,,,64,60
36480,note_on,2,0,5,,,,,,,,4,,,71,110
36480,note_on,2,0,3,,,,,,,,2,,,80,110
36480,note_on,2,0,6,,,,,,,,5,,,64,110
36480,note_on,2,0,4,,,,,,,,3,,,64,110
36526,note_on,46,0,5,,,,,,,,4,,,71,0
36526,note_on,46,0,3,,,,,,,,2,,,80,0
36528,note_on,2,0,5,,,,,,,,4,,,72,110
36528,note_on,2,0,3,,,,,,,,2,,,81,110
36574,note_on,46,0,5,,,,,,,,4,,,72,0
36574,note_on,94,0,6,,,,,,,,5,,,64,0
36574,note_on,94,0,4,,,,,,,,3,,,64,0
36574,note_on,46,0,3,,,,,,,,2,,,81,0
36574,note_on,94,0,11,,,,,,,,11,,,64,0
36576,note_on,2,0,6,,,,,,,,5,,,64,110
36576,note_on,2,0,4,,,,,,,,3,,,64,110
36576,note_on,194,0,10,,,,,,,,10,,,68,60
36576,note_on,2,0,5,,,,,,,,4,,,74,110
36576,note_on,194,0,9,,,,,,,,8,,,71,60
36576,note_on,2,0,3,,,,,,,,2,,,83,110
36622,note_on,46,0,10,,,,,,,,10,,,68,0
36622,note_on,46,0,5,,,,,,,,4,,,74,0
36622,note_on,46,0,9,,,,,,,,8,,,71,0
36622,note_on,46,0,3,,,,,,,,2,,,83,0
36624,note_on,2,0,5,,,,,,,,4,,,72,110
36624,note_on,2,0,9,,,,,,,,8,,,72,60
36624,note_on,2,0,10,,,,,,,,10,,,69,60
36624,note_on,2,0,3,,,,,,,,2,,,81,110
36670,note_on,94,0,4,,,,,,,,3,,,64,0
36670,note_on,94,0,6,,,,,,,,5,,,64,0
36670,note_on,46,0,10,,,,,,,,10,,,69,0
36670,note_on,46,0,9,,,,,,,,8,,,72,0
36670,note_on,46,0,3,,,,,,,,2,,,81,0
36670,note_on,46,0,5,,,,,,,,4,,,72,0
36672,note_on,2,0,6,,,,,,,,5,,,64,110
36672,note_on,2,0,4,,,,,,,,3,,,64,110
36672,note_on,2,0,3,,,,,,,,2,,,80,110
36672,note_on,2,0,10,,,,,,,,10,,,71,60
36672,note_on,2,0,9,,,,,,,,8,,,74,60
36672,note_on,2,0,5,,,,,,,,4,,,71,110
36718,note_on,46,0,3,,,,,,,,2,,,80,0
36718,note_on,46,0,5,,,,,,,,4,,,71,0
36720,note_on,2,0,5,,,,,,,,4,,,74,110
36720,note_on,2,0,3,,,,,,,,2,,,83,110
36766,note_on,94,0,6,,,,,,,,5,,,64,0
36766,note_on,94,0,9,,,,,,,,8,,,74,0
36766,note_on,94,0,4,,,,,,,,3,,,64,0
36766,note_on,46,0,5,,,,,,,,4,,,74,0
36766,note_on,46,0,3,,,,,,,,2,,,83,0
36766,note_on,94,0,10,,,,,,,,10,,,71,0
36768,note_on,2,0,4,,,,,,,,3,,,64,110
36768,note_on,194,0,11,,,,,,,,11,,,52,60
36768,note_on,2,0,6,,,,,,,,5,,,64,110
36768,note_on,2,0,3,,,,,,,,2,,,81,110
36768,note_on,2,0,5,,,,,,,,4,,,72,110
36814,note_on,46,0,3,,,,,,,,2,,,81,0
36814,note_on,46,0,5,,,,,,,,4,,,72,0
36816,note_on,2,0,3,,,,,,,,2,,,80,110
36816,note_on,2,0,5,,,,,,,,4,,,71,110
36862,note_on,46,0,3,,,,,,,,2,,,80,0
36862,note_on,94,0,11,,,,,,,,11,,,52,0
36862,note_on,46,0,5,,,,,,,,4,,,71,0
36862,note_on,94,0,6,,,,,,,,5,,,64,0
36862,note_on,94,0,4,,,,,,,,3,,,64,0
36864,note_on,2,0,3,,,,,,,,2,,,81,110
36864,note_on,2,0,6,,,,,,,,5,,,64,110
36864,note_on,2,0,5,,,,,,,,4,,,72,110
36864,note_on,2,0,4,,,,,,,,3,,,64,110
36864,note_on,2,0,11,,,,,,,,11,,,64,60
36910,note_on,46,0,3,,,,,,,,2,,,81,0
36910,note_on,46,0,5,,,,,,,,4,,,72,0
36912,note_on,2,0,3,,,,,,,,2,,,83,110
36912,note_on,2,0,5,,,,,,,,4,,,74,110
36958,note_on,46,0,5,,,,,,,,4,,,74,0
36958,note_on,94,0,11,,,,,,,,11,,,64,0
36958,note_on,94,0,6,,,,,,,,5,,,64,0
36958,note_on,46,0,3,,,,,,,,2,,,83,0
36958,note_on,94,0,4,,,,,,,,3,,,64,0
36960,note_on,2,0,3,,,,,,,,2,,,84,110
36960,note_on,194,0,10,,,,,,,,10,,,69,60
36960,note_on,2,0,5,,,,,,,,4,,,76,110
36960,note_on,2,0,6,,,,,,,,5,,,64,110
36960,note_on,194,0,9,,,,,,,,8,,,72,60
36960,note_on,2,0,4,,,,,,,,3,,,64,110
37006,note_on,46,0,10,,,,,,,,10,,,69,0
37006,note_on,46,0,5,,,,,,,,4,,,76,0
37006,note_on,46,0,3,,,,,,,,2,,,84,0
37006,note_on,46,0,9,,,,,,,,8,,,72,0
37008,note_on,2,0,5,,,,,,,,4,,,74,110
37008,note_on,2,0,3,,,,,,,,2,,,83,110
37008,note_on,2,0,10,,,,,,,,10,,,71,60
37008,note_on,2,0,9,,,,,,,,8,,,74,60
37054,note_on,46,0,5,,,,,,,,4,,,74,0
37054,note_on,46,0,3,,,,,,,,2,,,83,0
37054,note_on,94,0,4,,,,,,,,3,,,64,0
37054,note_on,46,0,9,,,,,,,,8,,,74,0
37054,note_on,94,0,6,,,,,,,,5,,,64,0
37054,note_on,46,0,10,,,,,,,,10,,,71,0
37056,note_on,2,0,4,,,,,,,,3,,,64,110
37056,note_on,2,0,5,,,,,,,,4,,,72,110
37056,note_on,2,0,9,,,,,,,,8,,,76,60
37056,note_on,2,0,3,,,,,,,,2,,,81,110
37056,note_on,2,0,6,,,,,,,,5,,,64,110
37056,note_on,2,0,10,,,,,,,,10,,,72,60
37102,note_on,46,0,5,,,,,,,,4,,,72,0
37102,note_on,46,0,3,,,,,,,,2,,,81,0
37104,note_on,2,0,5,,,,,,,,4,,,76,110
37104,note_on,2,0,3,,,,,,,,2,,,84,110
37150,note_on,46,0,3,,,,,,,,2,,,84,0
37150,note_on,94,0,4,,,,,,,,3,,,64,0
37150,note_on,46,0,5,,,,,,,,4,,,76,0
37150,note_on,94,0,10,,,,,,,,10,,,72,0
37150,note_on,94,0,9,,,,,,,,8,,,76,0
37150,note_on,94,0,6,,,,,,,,5,,,64,0
37152,note_on,194,0,11,,,,,,,,11,,,52,60
37152,note_on,2,0,4,,,,,,,,3,,,64,110
37152,note_on,2,0,5,,,,,,,,4,,,74,110
37152,note_on,2,0,6,,,,,,,,5,,,64,110
37152,note_on,2,0,3,,,,,,,,2,,,83,110
37198,note_on,46,0,5,,,,,,,,4,,,74,0
37198,note_on,46,0,3,,,,,,,,2,,,83,0
37200,note_on,2,0,5,,,,,,,,4,,,72,110
37200,note_on,2,0,3,,,,,,,,2,,,81,110
37246,note_on,46,0,3,,,,,,,,2,,,81,0
37246,note_on,94,0,4,,,,,,,,3,,,64,0
37246,note_on,94,0,11,,,,,,,,11,,,52,0
37246,note_on,46,0,5,,,,,,,,4,,,72,0
37246,note_on,94,0,6,,,,,,,,5,,,64,0
37248,note_on,2,0,3,,,,,,,,2,,,80,110
37248,note_on,2,0,4,,,,,,,,3,,,64,110
37248,note_on,2,0,5,,,,,,,,4,,,71,110
37248,note_on,2,0,11,,,,,,,,11,,,64,60
37248,note_on,2,0,6,,,,,,,,5,,,64,110
37342,note_on,94,0,4,,,,,,,,3,,,64,0
37342,note_on,94,0,3,,,,,,,,2,,,80,0
37344,note_on,194,0,9,,,,,,,,8,,,76,60
37344,note_on,2,0,4,,,,,,,,3,,,52,110
37344,note_on,2,0,3,,,,,,,,2,,,76,110
37344,note_on,194,0,10,,,,,,,,10,,,76,60
37390,note_on,46,0,4,,,,,,,,3,,,52,0
37392,note_on,2,0,4,,,,,,,,3,,,50,110
37408,note_on,160,0,5,,,,,,,,4,,,71,0
37408,note_on,160,0,6,,,,,,,,5,,,64,0
37408,note_on,160,0,11,,,,,,,,11,,,64,0
37438,note_on,94,0,9,,,,,,,,8,,,76,0
37438,note_on,94,0,3,,,,,,,,2,,,76,0
37438,note_on,46,0,4,,,,,,,,3,,,50,0
37438,note_on,94,0,10,,,,,,,,10,,,76,0
37440,note_on,2,0,9,,,,,,,,8,,,64,60
37440,note_on,2,0,10,,,,,,,,10,,,64,60
37440,note_on,2,0,4,,,,,,,,3,,,48,110
37488,note_on,50,0,3,,,,,,,,2,,,76,110
37534,note_on,46,0,3,,,,,,,,2,,,76,0
37534,note_on,94,0,4,,,,,,,,3,,,48,0
37536,note_on,2,0,3,,,,,,,,2,,,81,110
37536,note_on,2,0,4,,,,,,,,3,,,45,110
37582,note_on,46,0,3,,,,,,,,2,,,81,0
37584,note_on,2,0,3,,,,,,,,2,,,79,110
37600,note_on,160,0,10,,,,,,,,10,,,64,0
37600,note_on,160,0,9,,,,,,,,8,,,64,0
37630,note_on,94,0,4,,,,,,,,3,,,45,0
37630,note_on,46,0,3,,,,,,,,2,,,79,0
37632,note_on,2,0,3,,,,,,,,2,,,77,110
37632,note_on,2,0,4,,,,,,,,3,,,50,110
37678,note_on,46,0,3,,,,,,,,2,,,77,0
37680,note_on,2,0,3,,,,,,,,2,,,74,110
37726,note_on,94,0,4,,,,,,,,3,,,50,0
37726,note_on,46,0,3,,,,,,,,2,,,74,0
37728,note_on,2,0,3,,,,,,,,2,,,76,110
37728,note_on,2,0,4,,,,,,,,3,,,53,110
37774,note_on,46,0,3,,,,,,,,2,,,76,0
37776,note_on,2,0,3,,,,,,,,2,,,72,110
37822,note_on,94,0,4,,,,,,,,3,,,53,0
37822,note_on,46,0,3,,,,,,,,2,,,72,0
37824,note_on,2,0,4,,,,,,,,3,,,55,110
37824,note_on,2,0,3,,,,,,,,2,,,71,110
37870,note_on,46,0,3,,,,,,,,2,,,71,0
37872,note_on,2,0,3,,,,,,,,2,,,74,110
37918,note_on,94,0,4,,,,,,,,3,,,55,0
37918,note_on,46,0,3,,,,,,,,2,,,74,0
37920,note_on,2,0,4,,,,,,,,3,,,47,110
37920,note_on,2,0,3,,,,,,,,2,,,79,110
37966,note_on,46,0,3,,,,,,,,2,,,79,0
37968,note_on,2,0,3,,,,,,,,2,,,77,110
38014,note_on,46,0,3,,,,,,,,2,,,77,0
38014,note_on,94,0,4,,,,,,,,3,,,47,0
38016,note_on,2,0,3,,,,,,,,2,,,76,110
38016,note_on,2,0,4,,,,,,,,3,,,48,110
38062,note_on,46,0,3,,,,,,,,2,,,76,0
38064,note_on,2,0,3,,,,,,,,2,,,72,110
38110,note_on,94,0,4,,,,,,,,3,,,48,0
38110,note_on,46,0,3,,,,,,,,2,,,72,0
38112,note_on,2,0,4,,,,,,,,3,,,52,110
38112,note_on,2,0,3,,,,,,,,2,,,74,110
38158,note_on,46,0,3,,,,,,,,2,,,74,0
38160,note_on,2,0,3,,,,,,,,2,,,71,110
38206,note_on,46,0,3,,,,,,,,2,,,71,0
38206,note_on,94,0,4,,,,,,,,3,,,52,0
38208,note_on,2,0,4,,,,,,,,3,,,53,110
38208,note_on,2,0,3,,,,,,,,2,,,69,110
38254,note_on,46,0,3,,,,,,,,2,,,69,0
38256,note_on,2,0,3,,,,,,,,2,,,72,110
38302,note_on,94,0,4,,,,,,,,3,,,53,0
38302,note_on,46,0,3,,,,,,,,2,,,72,0
38304,note_on,2,0,4,,,,,,,,3,,,45,110
38304,note_on,2,0,3,,,,,,,,2,,,77,110
38350,note_on,46,0,3,,,,,,,,2,,,77,0
38352,note_on,2,0,3,,,,,,,,2,,,76,110
38398,note_on,94,0,4,,,,,,,,3,,,45,0
38398,note_on,46,0,3,,,,,,,,2,,,76,0
38400,note_on,2,0,3,,,,,,,,2,,,74,110
38400,note_on,2,0,4,,,,,,,,3,,,47,110
38446,note_on,46,0,3,,,,,,,,2,,,74,0
38448,note_on,2,0,3,,,,,,,,2,,,71,110
38494,note_on,46,0,3,,,,,,,,2,,,71,0
38494,note_on,94,0,4,,,,,,,,3,,,47,0
38496,note_on,2,0,3,,,,,,,,2,,,72,110
38496,note_on,2,0,4,,,,,,,,3,,,50,110
38542,note_on,46,0,3,,,,,,,,2,,,72,0
38544,note_on,2,0,3,,,,,,,,2,,,69,110
38590,note_on,94,0,4,,,,,,,,3,,,50,0
38590,note_on,46,0,3,,,,,,,,2,,,69,0
38592,note_on,2,0,4,,,,,,,,3,,,52,110
38592,note_on,2,0,3,,,,,,,,2,,,68,110
38638,note_on,46,0,3,,,,,,,,2,,,68,0
38640,note_on,2,0,3,,,,,,,,2,,,71,110
38686,note_on,46,0,3,,,,,,,,2,,,71,0
38686,note_on,94,0,4,,,,,,,,3,,,52,0
38688,note_on,2,0,3,,,,,,,,2,,,76,110
38688,note_on,2,0,4,,,,,,,,3,,,44,110
38734,note_on,46,0,3,,,,,,,,2,,,76,0
38736,note_on,2,0,3,,,,,,,,2,,,74,110
38782,note_on,94,0,4,,,,,,,,3,,,44,0
38782,note_on,46,0,3,,,,,,,,2,,,74,0
38784,note_on,2,0,3,,,,,,,,2,,,72,110
38784,note_on,2,0,4,,,,,,,,3,,,45,110
38830,note_on,46,0,3,,,,,,,,2,,,72,0
38832,note_on,2,0,3,,,,,,,,2,,,69,110
38878,note_on,46,0,3,,,,,,,,2,,,69,0
38878,note_on,94,0,4,,,,,,,,3,,,45,0
38880,note_on,2,0,4,,,,,,,,3,,,57,110
38880,note_on,2,0,3,,,,,,,,2,,,71,110
38926,note_on,46,0,3,,,,,,,,2,,,71,0
38928,note_on,2,0,3,,,,,,,,2,,,72,110
38974,note_on,46,0,3,,,,,,,,2,,,72,0
38974,note_on,94,0,4,,,,,,,,3,,,57,0
38976,note_on,2,0,4,,,,,,,,3,,,54,110
38976,note_on,2,0,3,,,,,,,,2,,,63,110
39022,note_on,46,0,3,,,,,,,,2,,,63,0
39024,note_on,2,0,3,,,,,,,,2,,,72,110
39070,note_on,46,0,3,,,,,,,,2,,,72,0
39070,note_on,94,0,4,,,,,,,,3,,,54,0
39072,note_on,2,0,4,,,,,,,,3,,,51,110
39072,note_on,2,0,3,,,,,,,,2,,,71,110
39118,note_on,46,0,3,,,,,,,,2,,,71,0
39120,note_on,2,0,3,,,,,,,,2,,,69,110
39166,note_on,46,0,3,,,,,,,,2,,,69,0
39166,note_on,94,0,4,,,,,,,,3,,,51,0
39168,note_on,2,0,3,,,,,,,,2,,,67,110
39168,note_on,2,0,4,,,,,,,,3,,,52,110
39214,note_on,46,0,3,,,,,,,,2,,,67,0
39216,note_on,2,0,3,,,,,,,,2,,,66,110
39262,note_on,46,0,3,,,,,,,,2,,,66,0
39262,note_on,94,0,4,,,,,,,,3,,,52,0
39264,note_on,2,0,4,,,,,,,,3,,,55,110
39264,note_on,2,0,3,,,,,,,,2,,,64,110
39310,note_on,46,0,3,,,,,,,,2,,,64,0
39312,note_on,2,0,3,,,,,,,,2,,,74,110
39358,note_on,94,0,4,,,,,,,,3,,,55,0
39358,note_on,46,0,3,,,,,,,,2,,,74,0
39360,note_on,2,0,3,,,,,,,,2,,,72,110
39360,note_on,2,0,4,,,,,,,,3,,,57,110
39406,note_on,46,0,3,,,,,,,,2,,,72,0
39408,note_on,2,0,3,,,,,,,,2,,,71,110
39454,note_on,46,0,3,,,,,,,,2,,,71,0
39454,note_on,94,0,4,,,,,,,,3,,,57,0
39456,note_on,2,0,3,,,,,,,,2,,,69,110
39456,note_on,2,0,4,,,,,,,,3,,,60,110
39502,note_on,46,0,3,,,,,,,,2,,,69,0
39504,note_on,2,0,3,,,,,,,,2,,,78,110
39550,note_on,94,0,4,,,,,,,,3,,,60,0
39550,note_on,46,0,3,,,,,,,,2,,,78,0
39552,note_on,2,0,4,,,,,,,,3,,,59,110
39552,note_on,2,0,3,,,,,,,,2,,,75,110
39598,note_on,46,0,3,,,,,,,,2,,,75,0
39600,note_on,2,0,3,,,,,,,,2,,,73,110
39646,note_on,94,0,4,,,,,,,,3,,,59,0
39646,note_on,46,0,3,,,,,,,,2,,,73,0
39648,note_on,2,0,3,,,,,,,,2,,,71,110
39648,note_on,2,0,4,,,,,,,,3,,,51,110
39694,note_on,46,0,3,,,,,,,,2,,,71,0
39696,note_on,2,0,3,,,,,,,,2,,,69,110
39742,note_on,94,0,4,,,,,,,,3,,,51,0
39742,note_on,46,0,3,,,,,,,,2,,,69,0
39744,note_on,2,0,4,,,,,,,,3,,,52,110
39744,note_on,2,0,3,,,,,,,,2,,,67,110
39790,note_on,46,0,3,,,,,,,,2,,,67,0
39792,note_on,2,0,3,,,,,,,,2,,,66,110
39838,note_on,94,0,4,,,,,,,,3,,,52,0
39838,note_on,46,0,3,,,,,,,,2,,,66,0
39840,note_on,2,0,4,,,,,,,,3,,,47,110
39840,note_on,2,0,3,,,,,,,,2,,,64,110
39886,note_on,46,0,3,,,,,,,,2,,,64,0
39888,note_on,2,0,3,,,,,,,,2,,,63,110
39934,note_on,46,0,3,,,,,,,,2,,,63,0
39934,note_on,94,0,4,,,,,,,,3,,,47,0
39936,note_on,2,0,4,,,,,,,,3,,,48,110
39936,note_on,2,0,3,,,,,,,,2,,,64,110
39982,note_on,46,0,3,,,,,,,,2,,,64,0
39984,note_on,2,0,3,,,,,,,,2,,,57,110
40030,note_on,94,0,4,,,,,,,,3,,,48,0
40030,note_on,46,0,3,,,,,,,,2,,,57,0
40032,note_on,2,0,3,,,,,,,,2,,,64,110
40032,note_on,2,0,4,,,,,,,,3,,,43,110
40078,note_on,46,0,3,,,,,,,,2,,,64,0
40080,note_on,2,0,3,,,,,,,,2,,,55,110
40126,note_on,94,0,4,,,,,,,,3,,,43,0
40126,note_on,46,0,3,,,,,,,,2,,,55,0
40128,note_on,2,0,4,,,,,,,,3,,,45,110
40128,note_on,2,0,3,,,,,,,,2,,,54,110
40174,note_on,46,0,3,,,,,,,,2,,,54,0
40176,note_on,2,0,3,,,,,,,,2,,,64,110
40222,note_on,46,0,3,,,,,,,,2,,,64,0
40222,note_on,94,0,4,,,,,,,,3,,,45,0
40224,note_on,2,0,4,,,,,,,,3,,,47,110
40224,note_on,2816,0,6,,,,,,,,5,,,59,110
40224,note_on,2,0,3,,,,,,,,2,,,54,110
40270,note_on,46,0,3,,,,,,,,2,,,54,0
40272,note_on,2,0,3,,,,,,,,2,,,63,110
40318,note_on,94,0,4,,,,,,,,3,,,47,0
40318,note_on,46,0,3,,,,,,,,2,,,63,0
40318,note_on,94,0,6,,,,,,,,5,,,59,0
40320,note_on,9824,0,2,,,,,,,,1,,,52,110
40320,note_on,2,0,3,,,,,,,,2,,,64,110
40320,note_on,9824,0,1,,,,,,,,0,,,77,110
40320,note_on,5024,0,12,,,,,,,,12,,,40,92
40320,note_on,2,0,6,,,,,,,,5,,,55,110
40320,note_on,2720,0,9,,,,,,,,8,,,76,92
40320,note_on,2,0,4,,,,,,,,3,,,40,110
40342,note_on,22,0,1,,,,,,,,0,,,77,0
40344,note_on,2,0,1,,,,,,,,0,,,76,110
40366,note_on,22,0,1,,,,,,,,0,,,76,0
40368,note_on,2960,0,5,,,,,,,,4,,,67,110
40368,note_on,2,0,1,,,,,,,,0,,,77,110
40390,note_on,22,0,1,,,,,,,,0,,,77,0
40392,note_on,2,0,1,,,,,,,,0,,,76,110
40414,note_on,94,0,2,,,,,,,,1,,,52,0
40414,note_on,22,0,1,,,,,,,,0,,,76,0
40414,note_on,46,0,5,,,,,,,,4,,,67,0
40414,note_on,94,0,4,,,,,,,,3,,,40,0
40414,note_on,94,0,6,,,,,,,,5,,,55,0
40414,note_on,94,0,12,,,,,,,,12,,,40,0
40416,note_on,2,0,1,,,,,,,,0,,,77,110
40416,note_on,2,0,4,,,,,,,,3,,,52,110
40416,note_on,2,0,6,,,,,,,,5,,,52,110
40416,note_on,9920,0,8,,,,,,,,7,,,59,110
40416,note_on,2,0,12,,,,,,,,12,,,40,92
40416,note_on,2,0,5,,,,,,,,4,,,71,110
40416,note_on,2,0,2,,,,,,,,1,,,40,110
40416,note_on,3008,0,11,,,,,,,,11,,,59,92
40438,note_on,22,0,1,,,,,,,,0,,,77,0
40440,note_on,2,0,1,,,,,,,,0,,,76,110
40462,note_on,46,0,4,,,,,,,,3,,,52,0
40462,note_on,46,0,5,,,,,,,,4,,,71,0
40462,note_on,22,0,1,,,,,,,,0,,,76,0
40464,note_on,2,0,1,,,,,,,,0,,,77,110
40464,note_on,2,0,4,,,,,,,,3,,,54,110
40464,note_on,2,0,5,,,,,,,,4,,,76,110
40480,note_on,160,0,3,,,,,,,,2,,,64,0
40486,note_on,22,0,1,,,,,,,,0,,,77,0
40488,note_on,2,0,1,,,,,,,,0,,,76,110
40510,note_on,22,0,1,,,,,,,,0,,,76,0
40510,note_on,46,0,4,,,,,,,,3,,,54,0
40510,note_on,94,0,8,,,,,,,,7,,,59,0
40510,note_on,94,0,11,,,,,,,,11,,,59,0
40510,note_on,94,0,6,,,,,,,,5,,,52,0
40510,note_on,94,0,12,,,,,,,,12,,,40,0
40510,note_on,46,0,5,,,,,,,,4,,,76,0
40510,note_on,94,0,2,,,,,,,,1,,,40,0
40512,note_on,2,0,11,,,,,,,,11,,,55,92
40512,note_on,2,0,12,,,,,,,,12,,,43,92
40512,note_on,2,0,5,,,,,,,,4,,,76,110
40512,note_on,2,0,8,,,,,,,,7,,,55,110
40512,note_on,2,0,4,,,,,,,,3,,,55,110
40512,note_on,2,0,1,,,,,,,,0,,,77,110
40534,note_on,22,0,1,,,,,,,,0,,,77,0
40536,note_on,2,0,1,,,,,,,,0,,,76,110
40558,note_on,22,0,1,,,,,,,,0,,,76,0
40560,note_on,10064,0,7,,,,,,,,6,,,67,110
40560,note_on,0,0,5,,,,,,,,4,,,74,110
40560,note_on,48,0,5,,,,,,,,4,,,76,0
40560,note_on,2,0,1,,,,,,,,0,,,77,110
40582,note_on,22,0,1,,,,,,,,0,,,77,0
40584,note_on,2,0,1,,,,,,,,0,,,76,110
40606,note_on,46,0,5,,,,,,,,4,,,74,0
40606,note_on,94,0,12,,,,,,,,12,,,43,0
40606,note_on,22,0,1,,,,,,,,0,,,76,0
40606,note_on,94,0,4,,,,,,,,3,,,55,0
40606,note_on,94,0,8,,,,,,,,7,,,55,0
40606,note_on,94,0,11,,,,,,,,11,,,55,0
40606,note_on,46,0,7,,,,,,,,6,,,67,0
40608,note_on,98,0,2,,,,,,,,1,,,55,110
40608,note_on,2,0,7,,,,,,,,6,,,71,110
40608,note_on,3008,0,10,,,,,,,,10,,,71,92
40608,note_on,128,0,3,,,,,,,,2,,,71,110
40608,note_on,2,0,5,,,,,,,,4,,,76,110
40608,note_on,2,0,4,,,,,,,,3,,,43,110
40608,note_on,2,0,8,,,,,,,,7,,,52,110
40608,note_on,2,0,12,,,,,,,,12,,,43,92
40608,note_on,2,0,1,,,,,,,,0,,,77,110
40608,note_on,2,0,11,,,,,,,,11,,,52,92
40608,note_on,98,0,6,,,,,,,,5,,,52,110
40630,note_on,22,0,1,,,,,,,,0,,,77,0
40632,note_on,2,0,1,,,,,,,,0,,,76,110
40654,note_on,22,0,1,,,,,,,,0,,,76,0
40654,note_on,46,0,7,,,,,,,,6,,,71,0
40656,note_on,2,0,1,,,,,,,,0,,,77,110
40656,note_on,2,0,7,,,,,,,,6,,,76,110
40678,note_on,22,0,1,,,,,,,,0,,,77,0
40680,note_on,2,0,1,,,,,,,,0,,,76,110
40702,note_on,94,0,6,,,,,,,,5,,,52,0
40702,note_on,94,0,3,,,,,,,,2,,,71,0
40702,note_on,46,0,7,,,,,,,,6,,,76,0
40702,note_on,94,0,2,,,,,,,,1,,,55,0
40702,note_on,22,0,1,,,,,,,,0,,,76,0
40702,note_on,94,0,8,,,,,,,,7,,,52,0
40702,note_on,94,0,5,,,,,,,,4,,,76,0
40702,note_on,94,0,12,,,,,,,,12,,,43,0
40702,note_on,94,0,4,,,,,,,,3,,,43,0
40702,note_on,94,0,10,,,,,,,,10,,,71,0
40702,note_on,94,0,11,,,,,,,,11,,,52,0
40704,note_on,2,0,12,,,,,,,,12,,,45,92
40704,note_on,2,0,1,,,,,,,,0,,,77,110
40704,note_on,2,0,7,,,,,,,,6,,,73,110
40704,note_on,2,0,3,,,,,,,,2,,,74,110
40704,note_on,2,0,6,,,,,,,,5,,,57,110
40704,note_on,2,0,10,,,,,,,,10,,,73,92
40704,note_on,2,0,2,,,,,,,,1,,,57,110
40726,note_on,22,0,3,,,,,,,,2,,,74,0
40726,note_on,22,0,1,,,,,,,,0,,,77,0
40728,note_on,2,0,1,,,,,,,,0,,,76,110
40728,note_on,2,0,3,,,,,,,,2,,,73,110
40750,note_on,22,0,3,,,,,,,,2,,,73,0
40750,note_on,22,0,1,,,,,,,,0,,,76,0
40752,note_on,2,0,3,,,,,,,,2,,,74,110
40752,note_on,2,0,1,,,,,,,,0,,,77,110
40752,note_on,50,0,5,,,,,,,,4,,,69,110
40774,note_on,22,0,1,,,,,,,,0,,,77,0
40774,note_on,22,0,3,,,,,,,,2,,,74,0
40776,note_on,2,0,3,,,,,,,,2,,,73,110
40776,note_on,2,0,1,,,,,,,,0,,,76,110
40798,note_on,22,0,3,,,,,,,,2,,,73,0
40798,note_on,46,0,5,,,,,,,,4,,,69,0
40798,note_on,94,0,2,,,,,,,,1,,,57,0
40798,note_on,94,0,7,,,,,,,,6,,,73,0
40798,note_on,22,0,1,,,,,,,,0,,,76,0
40798,note_on,94,0,6,,,,,,,,5,,,57,0
40798,note_on,94,0,12,,,,,,,,12,,,45,0
40800,note_on,2,0,7,,,,,,,,6,,,69,110
40800,note_on,2,0,3,,,,,,,,2,,,74,110
40800,note_on,2,0,5,,,,,,,,4,,,73,110
40800,note_on,2,0,12,,,,,,,,12,,,45,92
40800,note_on,98,0,11,,,,,,,,11,,,64,92
40800,note_on,98,0,4,,,,,,,,3,,,57,110
40800,note_on,2,0,6,,,,,,,,5,,,64,110
40800,note_on,98,0,8,,,,,,,,7,,,61,110
40800,note_on,2,0,1,,,,,,,,0,,,77,110
40800,note_on,2,0,2,,,,,,,,1,,,45,110
40822,note_on,22,0,3,,,,,,,,2,,,74,0
40822,note_on,22,0,1,,,,,,,,0,,,77,0
40824,note_on,2,0,3,,,,,,,,2,,,73,110
40824,note_on,2,0,1,,,,,,,,0,,,76,110
40846,note_on,22,0,3,,,,,,,,2,,,73,0
40846,note_on,22,0,1,,,,,,,,0,,,76,0
40846,note_on,46,0,5,,,,,,,,4,,,73,0
40848,note_on,2,0,3,,,,,,,,2,,,74,110
40848,note_on,2,0,5,,,,,,,,4,,,76,110
40848,note_on,2,0,1,,,,,,,,0,,,77,110
40870,note_on,22,0,1,,,,,,,,0,,,77,0
40870,note_on,22,0,3,,,,,,,,2,,,74,0
40872,note_on,2,0,1,,,,,,,,0,,,76,110
40872,note_on,2,0,3,,,,,,,,2,,,73,110
40894,note_on,94,0,11,,,,,,,,11,,,64,0
40894,note_on,94,0,6,,,,,,,,5,,,64,0
40894,note_on,94,0,12,,,,,,,,12,,,45,0
40894,note_on,46,0,5,,,,,,,,4,,,76,0
40894,note_on,22,0,1,,,,,,,,0,,,76,0
40894,note_on,94,0,7,,,,,,,,6,,,69,0
40894,note_on,94,0,4,,,,,,,,3,,,57,0
40894,note_on,94,0,8,,,,,,,,7,,,61,0
40894,note_on,94,0,2,,,,,,,,1,,,45,0
40894,note_on,22,0,3,,,,,,,,2,,,73,0
40896,note_on,2,0,12,,,,,,,,12,,,45,92
40896,note_on,2,0,4,,,,,,,,3,,,57,110
40896,note_on,2,0,5,,,,,,,,4,,,76,110
40896,note_on,2,0,3,,,,,,,,2,,,74,110
40896,note_on,2,0,1,,,,,,,,0,,,77,110
40896,note_on,2,0,8,,,,,,,,7,,,57,110
40896,note_on,2,0,11,,,,,,,,11,,,61,92
40918,note_on,22,0,3,,,,,,,,2,,,74,0
40918,note_on,22,0,1,,,,,,,,0,,,77,0
40920,note_on,2,0,3,,,,,,,,2,,,73,110
40920,note_on,2,0,1,,,,,,,,0,,,76,110
40942,note_on,22,0,3,,,,,,,,2,,,73,0
40942,note_on,22,0,1,,,,,,,,0,,,76,0
40944,note_on,48,0,5,,,,,,,,4,,,76,0
40944,note_on,0,0,5,,,,,,,,4,,,74,110
40944,note_on,2,0,3,,,,,,,,2,,,74,110
40944,note_on,2,0,1,,,,,,,,0,,,77,110
40944,note_on,50,0,7,,,,,,,,6,,,69,110
40966,note_on,22,0,3,,,,,,,,2,,,74,0
40966,note_on,22,0,1,,,,,,,,0,,,77,0
40968,note_on,2,0,1,,,,,,,,0,,,76,110
40968,note_on,2,0,3,,,,,,,,2,,,73,110
40990,note_on,94,0,4,,,,,,,,3,,,57,0
40990,note_on,46,0,5,,,,,,,,4,,,74,0
40990,note_on,22,0,3,,,,,,,,2,,,73,0
40990,note_on,94,0,8,,,,,,,,7,,,57,0
40990,note_on,46,0,7,,,,,,,,6,,,69,0
40990,note_on,22,0,1,,,,,,,,0,,,76,0
40990,note_on,94,0,12,,,,,,,,12,,,45,0
40990,note_on,94,0,11,,,,,,,,11,,,61,0
40992,note_on,98,0,2,,,,,,,,1,,,57,110
40992,note_on,2,0,1,,,,,,,,0,,,77,110
40992,note_on,2,0,4,,,,,,,,3,,,45,110
40992,note_on,2,0,7,,,,,,,,6,,,73,110
40992,note_on,2,0,5,,,,,,,,4,,,76,110
40992,note_on,98,0,6,,,,,,,,5,,,61,110
40992,note_on,2,0,11,,,,,,,,11,,,57,92
40992,note_on,2,0,12,,,,,,,,12,,,45,92
40992,note_on,2,0,3,,,,,,,,2,,,74,110
40992,note_on,2,0,8,,,,,,,,7,,,52,110
41014,note_on,22,0,1,,,,,,,,0,,,77,0
41014,note_on,22,0,3,,,,,,,,2,,,74,0
41016,note_on,2,0,3,,,,,,,,2,,,73,110
41016,note_on,2,0,1,,,,,,,,0,,,76,110
41038,note_on,46,0,7,,,,,,,,6,,,73,0
41038,note_on,22,0,3,,,,,,,,2,,,73,0
41038,note_on,22,0,1,,,,,,,,0,,,76,0
41040,note_on,2,0,7,,,,,,,,6,,,76,110
41040,note_on,2,0,1,,,,,,,,0,,,77,110
41040,note_on,720,0,9,,,,,,,,8,,,76,0
41040,note_on,2,0,3,,,,,,,,2,,,74,110
41062,note_on,22,0,3,,,,,,,,2,,,74,0
41062,note_on,22,0,1,,,,,,,,0,,,77,0
41064,note_on,2,0,3,,,,,,,,2,,,73,110
41064,note_on,2,0,1,,,,,,,,0,,,76,110
41086,note_on,94,0,5,,,,,,,,4,,,76,0
41086,note_on,22,0,3,,,,,,,,2,,,73,0
41086,note_on,94,0,11,,,,,,,,11,,,57,0
41086,note_on,94,0,2,,,,,,,,1,,,57,0
41086,note_on,46,0,7,,,,,,,,6,,,76,0
41086,note_on,22,0,1,,,,,,,,0,,,76,0
41086,note_on,94,0,12,,,,,,,,12,,,45,0
41086,note_on,94,0,6,,,,,,,,5,,,61,0
41086,note_on,94,0,4,,,,,,,,3,,,45,0
41086,note_on,94,0,8,,,,,,,,7,,,52,0
41088,note_on,2,0,1,,,,,,,,0,,,79,110
41088,note_on,2,0,2,,,,,,,,1,,,58,110
41088,note_on,48,0,9,,,,,,,,8,,,78,92
41088,note_on,2,0,7,,,,,,,,6,,,73,110
41088,note_on,2,0,3,,,,,,,,2,,,74,110
41088,note_on,2,0,6,,,,,,,,5,,,58,110
41088,note_on,2,0,12,,,,,,,,12,,,46,92
41110,note_on,22,0,1,,,,,,,,0,,,79,0
41110,note_on,22,0,3,,,,,,,,2,,,74,0
41112,note_on,2,0,1,,,,,,,,0,,,78,110
41112,note_on,2,0,3,,,,,,,,2,,,73,110
41134,note_on,22,0,1,,,,,,,,0,,,78,0
41134,note_on,22,0,3,,,,,,,,2,,,73,0
41136,note_on,2,0,3,,,,,,,,2,,,74,110
41136,note_on,50,0,5,,,,,,,,4,,,70,110
41136,note_on,2,0,1,,,,,,,,0,,,79,110
41158,note_on,22,0,3,,,,,,,,2,,,74,0
41158,note_on,22,0,1,,,,,,,,0,,,79,0
41160,note_on,2,0,3,,,,,,,,2,,,73,110
41160,note_on,2,0,1,,,,,,,,0,,,78,110
41182,note_on,94,0,7,,,,,,,,6,,,73,0
41182,note_on,94,0,12,,,,,,,,12,,,46,0
41182,note_on,94,0,2,,,,,,,,1,,,58,0
41182,note_on,94,0,6,,,,,,,,5,,,58,0
41182,note_on,22,0,3,,,,,,,,2,,,73,0
41182,note_on,22,0,1,,,,,,,,0,,,78,0
41182,note_on,46,0,5,,,,,,,,4,,,70,0
41184,note_on,98,0,11,,,,,,,,11,,,61,92
41184,note_on,2,0,12,,,,,,,,12,,,46,92
41184,note_on,2,0,3,,,,,,,,2,,,74,110
41184,note_on,2,0,5,,,,,,,,4,,,73,110
41184,note_on,2,0,6,,,,,,,,5,,,54,110
41184,note_on,2,0,7,,,,,,,,6,,,70,110
41184,note_on,2,0,2,,,,,,,,1,,,46,110
41184,note_on,98,0,4,,,,,,,,3,,,58,110
41184,note_on,98,0,8,,,,,,,,7,,,61,110
41184,note_on,2,0,1,,,,,,,,0,,,79,110
41206,note_on,22,0,3,,,,,,,,2,,,74,0
41206,note_on,22,0,1,,,,,,,,0,,,79,0
41208,note_on,2,0,1,,,,,,,,0,,,78,110
41208,note_on,2,0,3,,,,,,,,2,,,73,110
41230,note_on,22,0,1,,,,,,,,0,,,78,0
41230,note_on,46,0,5,,,,,,,,4,,,73,0
41230,note_on,22,0,3,,,,,,,,2,,,73,0
41232,note_on,2,0,3,,,,,,,,2,,,74,110
41232,note_on,2,0,1,,,,,,,,0,,,79,110
41232,note_on,2,0,5,,,,,,,,4,,,78,110
41254,note_on,22,0,3,,,,,,,,2,,,74,0
41254,note_on,22,0,1,,,,,,,,0,,,79,0
41256,note_on,2,0,3,,,,,,,,2,,,73,110
41256,note_on,2,0,1,,,,,,,,0,,,78,110
41278,note_on,94,0,8,,,,,,,,7,,,61,0
41278,note_on,22,0,3,,,,,,,,2,,,73,0
41278,note_on,94,0,7,,,,,,,,6,,,70,0
41278,note_on,94,0,6,,,,,,,,5,,,54,0
41278,note_on,94,0,12,,,,,,,,12,,,46,0
41278,note_on,94,0,11,,,,,,,,11,,,61,0
41278,note_on,22,0,1,,,,,,,,0,,,78,0
41278,note_on,94,0,2,,,,,,,,1,,,46,0
41278,note_on,46,0,5,,,,,,,,4,,,78,0
41278,note_on,94,0,4,,,,,,,,3,,,58,0
41280,note_on,2,0,1,,,,,,,,0,,,79,110
41280,note_on,2,0,3,,,,,,,,2,,,74,110
41280,note_on,2,0,12,,,,,,,,12,,,46,92
41280,note_on,2,0,5,,,,,,,,4,,,78,110
41280,note_on,2,0,8,,,,,,,,7,,,58,110
41280,note_on,2,0,11,,,,,,,,11,,,58,92
41280,note_on,2,0,4,,,,,,,,3,,,58,110
41302,note_on,22,0,1,,,,,,,,0,,,79,0
41302,note_on,22,0,3,,,,,,,,2,,,74,0
41304,note_on,2,0,1,,,,,,,,0,,,78,110
41304,note_on,2,0,3,,,,,,,,2,,,73,110
41326,note_on,22,0,3,,,,,,,,2,,,73,0
41326,note_on,22,0,1,,,,,,,,0,,,78,0
41328,note_on,2,0,1,,,,,,,,0,,,79,110
41328,note_on,2,0,3,,,,,,,,2,,,74,110
41328,note_on,0,0,5,,,,,,,,4,,,76,110
41328,note_on,48,0,5,,,,,,,,4,,,78,0
41328,note_on,50,0,7,,,,,,,,6,,,70,110
41350,note_on,22,0,1,,,,,,,,0,,,79,0
41350,note_on,22,0,3,,,,,,,,2,,,74,0
41352,note_on,2,0,1,,,,,,,,0,,,78,110
41352,note_on,2,0,3,,,,,,,,2,,,73,110
41374,note_on,22,0,3,,,,,,,,2,,,73,0
41374,note_on,46,0,5,,,,,,,,4,,,76,0
41374,note_on,22,0,1,,,,,,,,0,,,78,0
41374,note_on,46,0,7,,,,,,,,6,,,70,0
41374,note_on,94,0,8,,,,,,,,7,,,58,0
41374,note_on,94,0,4,,,,,,,,3,,,58,0
41374,note_on,94,0,12,,,,,,,,12,,,46,0
41374,note_on,94,0,11,,,,,,,,11,,,58,0
41376,note_on,98,0,2,,,,,,,,1,,,58,110
41376,note_on,2,0,8,,,,,,,,7,,,54,110
41376,note_on,98,0,6,,,,,,,,5,,,54,110
41376,note_on,2,0,5,,,,,,,,4,,,78,110
41376,note_on,2,0,12,,,,,,,,12,,,46,92
41376,note_on,2,0,4,,,,,,,,3,,,46,110
41376,note_on,2,0,11,,,,,,,,11,,,54,92
41376,note_on,2,0,1,,,,,,,,0,,,79,110
41376,note_on,2,0,7,,,,,,,,6,,,73,110
41376,note_on,2,0,3,,,,,,,,2,,,74,110
41398,note_on,22,0,3,,,,,,,,2,,,74,0
41398,note_on,22,0,1,,,,,,,,0,,,79,0
41400,note_on,2,0,1,,,,,,,,0,,,78,110
41400,note_on,2,0,3,,,,,,,,2,,,73,110
41422,note_on,46,0,7,,,,,,,,6,,,73,0
41422,note_on,22,0,3,,,,,,,,2,,,73,0
41422,note_on,22,0,1,,,,,,,,0,,,78,0
41424,note_on,720,0,10,,,,,,,,10,,,73,0
41424,note_on,2,0,7,,,,,,,,6,,,78,110
41424,note_on,2,0,3,,,,,,,,2,,,74,110
41424,note_on,2,0,1,,,,,,,,0,,,79,110
41446,note_on,22,0,3,,,,,,,,2,,,74,0
41446,note_on,22,0,1,,,,,,,,0,,,79,0
41448,note_on,2,0,3,,,,,,,,2,,,73,110
41448,note_on,2,0,1,,,,,,,,0,,,78,110
41470,note_on,94,0,4,,,,,,,,3,,,46,0
41470,note_on,94,0,11,,,,,,,,11,,,54,0
41470,note_on,94,0,2,,,,,,,,1,,,58,0
41470,note_on,94,0,12,,,,,,,,12,,,46,0
41470,note_on,22,0,1,,,,,,,,0,,,78,0
41470,note_on,94,0,8,,,,,,,,7,,,54,0
41470,note_on,94,0,6,,,,,,,,5,,,54,0
41470,note_on,22,0,3,,,,,,,,2,,,73,0
41470,note_on,46,0,7,,,,,,,,6,,,78,0
41470,note_on,94,0,5,,,,,,,,4,,,78,0
41472,note_on,2,0,1,,,,,,,,0,,,79,110
41472,note_on,2,0,6,,,,,,,,5,,,59,110
41472,note_on,2,0,7,,,,,,,,6,,,75,110
41472,note_on,2,0,12,,,,,,,,12,,,47,92
41472,note_on,48,0,10,,,,,,,,10,,,75,92
41472,note_on,2,0,3,,,,,,,,2,,,76,110
41472,note_on,2,0,2,,,,,,,,1,,,59,110
41494,note_on,22,0,1,,,,,,,,0,,,79,0
41494,note_on,22,0,3,,,,,,,,2,,,76,0
41496,note_on,2,0,1,,,,,,,,0,,,78,110
41496,note_on,2,0,3,,,,,,,,2,,,75,110
41518,note_on,22,0,1,,,,,,,,0,,,78,0
41518,note_on,22,0,3,,,,,,,,2,,,75,0
41520,note_on,2,0,1,,,,,,,,0,,,79,110
41520,note_on,2,0,3,,,,,,,,2,,,76,110
41520,note_on,50,0,5,,,,,,,,4,,,71,110
41542,note_on,22,0,1,,,,,,,,0,,,79,0
41542,note_on,22,0,3,,,,,,,,2,,,76,0
41544,note_on,2,0,1,,,,,,,,0,,,78,110
41544,note_on,2,0,3,,,,,,,,2,,,75,110
41566,note_on,22,0,1,,,,,,,,0,,,78,0
41566,note_on,94,0,7,,,,,,,,6,,,75,0
41566,note_on,94,0,2,,,,,,,,1,,,59,0
41566,note_on,94,0,6,,,,,,,,5,,,59,0
41566,note_on,22,0,3,,,,,,,,2,,,75,0
41566,note_on,46,0,5,,,,,,,,4,,,71,0
41566,note_on,94,0,12,,,,,,,,12,,,47,0
41568,note_on,2,0,2,,,,,,,,1,,,47,110
41568,note_on,2,0,6,,,,,,,,5,,,66,110
41568,note_on,98,0,4,,,,,,,,3,,,59,110
41568,note_on,2,0,3,,,,,,,,2,,,76,110
41568,note_on,2,0,5,,,,,,,,4,,,75,110
41568,note_on,98,0,11,,,,,,,,11,,,66,92
41568,note_on,98,0,8,,,,,,,,7,,,63,110
41568,note_on,2,0,7,,,,,,,,6,,,71,110
41568,note_on,2,0,1,,,,,,,,0,,,79,110
41568,note_on,2,0,12,,,,,,,,12,,,47,92
41590,note_on,22,0,3,,,,,,,,2,,,76,0
41590,note_on,22,0,1,,,,,,,,0,,,79,0
41592,note_on,2,0,3,,,,,,,,2,,,75,110
41592,note_on,2,0,1,,,,,,,,0,,,78,110
41614,note_on,22,0,3,,,,,,,,2,,,75,0
41614,note_on,46,0,5,,,,,,,,4,,,75,0
41614,note_on,22,0,1,,,,,,,,0,,,78,0
41616,note_on,2,0,3,,,,,,,,2,,,76,110
41616,note_on,2,0,1,,,,,,,,0,,,79,110
41616,note_on,2,0,5,,,,,,,,4,,,78,110
41638,note_on,22,0,1,,,,,,,,0,,,79,0
41638,note_on,22,0,3,,,,,,,,2,,,76,0
41640,note_on,2,0,1,,,,,,,,0,,,78,110
41640,note_on,2,0,3,,,,,,,,2,,,75,110
41662,note_on,46,0,5,,,,,,,,4,,,78,0
41662,note_on,94,0,7,,,,,,,,6,,,71,0
41662,note_on,22,0,3,,,,,,,,2,,,75,0
41662,note_on,94,0,6,,,,,,,,5,,,66,0
41662,note_on,94,0,8,,,,,,,,7,,,63,0
41662,note_on,94,0,11,,,,,,,,11,,,66,0
41662,note_on,94,0,4,,,,,,,,3,,,59,0
41662,note_on,94,0,2,,,,,,,,1,,,47,0
41662,note_on,22,0,1,,,,,,,,0,,,78,0
41662,note_on,94,0,12,,,,,,,,12,,,47,0
41664,note_on,2,0,12,,,,,,,,12,,,47,92
41664,note_on,2,0,5,,,,,,,,4,,,78,110
41664,note_on,2,0,1,,,,,,,,0,,,79,110
41664,note_on,2,0,3,,,,,,,,2,,,76,110
41664,note_on,2,0,8,,,,,,,,7,,,59,110
41664,note_on,2,0,4,,,,,,,,3,,,59,110
41664,note_on,2,0,11,,,,,,,,11,,,63,92
41686,note_on,22,0,3,,,,,,,,2,,,76,0
41686,note_on,22,0,1,,,,,,,,0,,,79,0
41688,note_on,2,0,3,,,,,,,,2,,,75,110
41688,note_on,2,0,1,,,,,,,,0,,,78,110
41710,note_on,22,0,1,,,,,,,,0,,,78,0
41710,note_on,22,0,3,,,,,,,,2,,,75,0
41712,note_on,2,0,3,,,,,,,,2,,,76,110
41712,note_on,2,0,1,,,,,,,,0,,,79,110
41712,note_on,48,0,5,,,,,,,,4,,,78,0
41712,note_on,50,0,7,,,,,,,,6,,,71,110
41712,note_on,0,0,5,,,,,,,,4,,,76,110
41734,note_on,22,0,3,,,,,,,,2,,,76,0
41734,note_on,22,0,1,,,,,,,,0,,,79,0
41736,note_on,2,0,1,,,,,,,,0,,,78,110
41736,note_on,2,0,3,,,,,,,,2,,,75,110
41758,note_on,22,0,1,,,,,,,,0,,,78,0
41758,note_on,94,0,11,,,,,,,,11,,,63,0
41758,note_on,46,0,7,,,,,,,,6,,,71,0
41758,note_on,94,0,4,,,,,,,,3,,,59,0
41758,note_on,46,0,5,,,,,,,,4,,,76,0
41758,note_on,94,0,12,,,,,,,,12,,,47,0
41758,note_on,22,0,3,,,,,,,,2,,,75,0
41758,note_on,94,0,8,,,,,,,,7,,,59,0
41760,note_on,2,0,8,,,,,,,,7,,,54,110
41760,note_on,2,0,4,,,,,,,,3,,,47,110
41760,note_on,2,0,12,,,,,,,,12,,,47,92
41760,note_on,2,0,7,,,,,,,,6,,,75,110
41760,note_on,2,0,3,,,,,,,,2,,,76,110
41760,note_on,2,0,1,,,,,,,,0,,,79,110
41760,note_on,98,0,2,,,,,,,,1,,,59,110
41760,note_on,98,0,6,,,,,,,,5,,,63,110
41760,note_on,2,0,5,,,,,,,,4,,,78,110
41760,note_on,2,0,11,,,,,,,,11,,,59,92
41782,note_on,22,0,1,,,,,,,,0,,,79,0
41782,note_on,22,0,3,,,,,,,,2,,,76,0
41784,note_on,2,0,3,,,,,,,,2,,,75,110
41784,note_on,2,0,1,,,,,,,,0,,,78,110
41806,note_on,22,0,1,,,,,,,,0,,,78,0
41806,note_on,46,0,7,,,,,,,,6,,,75,0
41806,note_on,22,0,3,,,,,,,,2,,,75,0
41808,note_on,720,0,9,,,,,,,,8,,,78,0
41808,note_on,2,0,3,,,,,,,,2,,,76,110
41808,note_on,2,0,1,,,,,,,,0,,,79,110
41808,note_on,2,0,7,,,,,,,,6,,,78,110
41830,note_on,22,0,3,,,,,,,,2,,,76,0
41830,note_on,22,0,1,,,,,,,,0,,,79,0
41832,note_on,2,0,1,,,,,,,,0,,,78,110
41832,note_on,2,0,3,,,,,,,,2,,,75,110
41854,note_on,22,0,3,,,,,,,,2,,,75,0
41854,note_on,94,0,4,,,,,,,,3,,,47,0
41854,note_on,22,0,1,,,,,,,,0,,,78,0
41854,note_on,94,0,2,,,,,,,,1,,,59,0
41854,note_on,94,0,11,,,,,,,,11,,,59,0
41854,note_on,94,0,6,,,,,,,,5,,,63,0
41854,note_on,46,0,7,,,,,,,,6,,,78,0
41854,note_on,94,0,5,,,,,,,,4,,,78,0
41854,note_on,94,0,8,,,,,,,,7,,,54,0
41854,note_on,94,0,12,,,,,,,,12,,,47,0
41856,note_on,2,0,2,,,,,,,,1,,,59,110
41856,note_on,48,0,9,,,,,,,,8,,,79,92
41856,note_on,2,0,6,,,,,,,,5,,,59,110
41856,note_on,2,0,7,,,,,,,,6,,,75,110
41856,note_on,2,0,3,,,,,,,,2,,,76,110
41856,note_on,2,0,1,,,,,,,,0,,,81,110
41856,note_on,2,0,12,,,,,,,,12,,,47,92
41878,note_on,22,0,1,,,,,,,,0,,,81,0
41878,note_on,22,0,3,,,,,,,,2,,,76,0
41880,note_on,2,0,3,,,,,,,,2,,,75,110
41880,note_on,2,0,1,,,,,,,,0,,,79,110
41902,note_on,22,0,3,,,,,,,,2,,,75,0
41902,note_on,22,0,1,,,,,,,,0,,,79,0
41904,note_on,50,0,5,,,,,,,,4,,,71,110
41904,note_on,2,0,1,,,,,,,,0,,,81,110
41904,note_on,2,0,3,,,,,,,,2,,,76,110
41926,note_on,22,0,1,,,,,,,,0,,,81,0
41926,note_on,22,0,3,,,,,,,,2,,,76,0
41928,note_on,2,0,1,,,,,,,,0,,,79,110
41928,note_on,2,0,3,,,,,,,,2,,,75,110
41950,note_on,94,0,2,,,,,,,,1,,,59,0
41950,note_on,94,0,6,,,,,,,,5,,,59,0
41950,note_on,46,0,5,,,,,,,,4,,,71,0
41950,note_on,94,0,12,,,,,,,,12,,,47,0
41950,note_on,22,0,1,,,,,,,,0,,,79,0
41950,note_on,22,0,3,,,,,,,,2,,,75,0
41950,note_on,94,0,7,,,,,,,,6,,,75,0
41952,note_on,2,0,7,,,,,,,,6,,,71,110
41952,note_on,98,0,8,,,,,,,,7,,,63,110
41952,note_on,2,0,1,,,,,,,,0,,,81,110
41952,note_on,2,0,12,,,,,,,,12,,,47,92
41952,note_on,2,0,5,,,,,,,,4,,,75,110
41952,note_on,2,0,2,,,,,,,,1,,,47,110
41952,note_on,98,0,11,,,,,,,,11,,,63,92
41952,note_on,98,0,4,,,,,,,,3,,,59,110
41952,note_on,2,0,6,,,,,,,,5,,,55,110
41952,note_on,2,0,3,,,,,,,,2,,,76,110
41974,note_on,22,0,1,,,,,,,,0,,,81,0
41974,note_on,22,0,3,,,,,,,,2,,,76,0
41976,note_on,2,0,3,,,,,,,,2,,,75,110
41976,note_on,2,0,1,,,,,,,,0,,,79,110
41998,note_on,22,0,1,,,,,,,,0,,,79,0
41998,note_on,22,0,3,,,,,,,,2,,,75,0
41998,note_on,46,0,5,,,,,,,,4,,,75,0
42000,note_on,2,0,5,,,,,,,,4,,,79,110
42000,note_on,2,0,3,,,,,,,,2,,,76,110
42000,note_on,2,0,1,,,,,,,,0,,,81,110
42022,note_on,22,0,3,,,,,,,,2,,,76,0
42022,note_on,22,0,1,,,,,,,,0,,,81,0
42024,note_on,2,0,3,,,,,,,,2,,,75,110
42024,note_on,2,0,1,,,,,,,,0,,,79,110
42046,note_on,94,0,8,,,,,,,,7,,,63,0
42046,note_on,94,0,6,,,,,,,,5,,,55,0
42046,note_on,94,0,4,,,,,,,,3,,,59,0
42046,note_on,94,0,12,,,,,,,,12,,,47,0
42046,note_on,46,0,5,,,,,,,,4,,,79,0
42046,note_on,22,0,1,,,,,,,,0,,,79,0
42046,note_on,94,0,11,,,,,,,,11,,,63,0
42046,note_on,94,0,2,,,,,,,,1,,,47,0
42046,note_on,22,0,3,,,,,,,,2,,,75,0
42046,note_on,94,0,7,,,,,,,,6,,,71,0
42048,note_on,2,0,5,,,,,,,,4,,,79,110
42048,note_on,2,0,12,,,,,,,,12,,,47,92
42048,note_on,2,0,4,,,,,,,,3,,,59,110
42048,note_on,2,0,11,,,,,,,,11,,,59,92
42048,note_on,2,0,3,,,,,,,,2,,,76,110
42048,note_on,2,0,1,,,,,,,,0,,,81,110
42048,note_on,2,0,8,,,,,,,,7,,,59,110
42070,note_on,22,0,3,,,,,,,,2,,,76,0
42070,note_on,22,0,1,,,,,,,,0,,,81,0
42072,note_on,2,0,3,,,,,,,,2,,,75,110
42072,note_on,2,0,1,,,,,,,,0,,,79,110
42094,note_on,22,0,1,,,,,,,,0,,,79,0
42094,note_on,22,0,3,,,,,,,,2,,,75,0
42096,note_on,48,0,5,,,,,,,,4,,,79,0
42096,note_on,0,0,5,,,,,,,,4,,,78,110
42096,note_on,2,0,3,,,,,,,,2,,,76,110
42096,note_on,2,0,1,,,,,,,,0,,,81,110
42096,note_on,50,0,7,,,,,,,,6,,,71,110
42118,note_on,22,0,1,,,,,,,,0,,,81,0
42118,note_on,22,0,3,,,,,,,,2,,,76,0
42120,note_on,2,0,1,,,,,,,,0,,,79,110
42120,note_on,2,0,3,,,,,,,,2,,,75,110
42142,note_on,22,0,3,,,,,,,,2,,,75,0
42142,note_on,94,0,4,,,,,,,,3,,,59,0
42142,note_on,94,0,12,,,,,,,,12,,,47,0
42142,note_on,46,0,5,,,,,,,,4,,,78,0
42142,note_on,22,0,1,,,,,,,,0,,,79,0
42142,note_on,94,0,11,,,,,,,,11,,,59,0
42142,note_on,46,0,7,,,,,,,,6,,,71,0
42142,note_on,94,0,8,,,,,,,,7,,,59,0
42144,note_on,2,0,12,,,,,,,,12,,,47,92
42144,note_on,2,0,1,,,,,,,,0,,,81,110
42144,note_on,98,0,2,,,,,,,,1,,,59,110
42144,note_on,2,0,7,,,,,,,,6,,,75,110
42144,note_on,2,0,3,,,,,,,,2,,,76,110
42144,note_on,98,0,6,,,,,,,,5,,,55,110
42144,note_on,2,0,11,,,,,,,,11,,,55,92
42144,note_on,2,0,5,,,,,,,,4,,,79,110
42144,note_on,2,0,4,,,,,,,,3,,,47,110
42144,note_on,2,0,8,,,,,,,,7,,,55,110
42166,note_on,22,0,3,,,,,,,,2,,,76,0
42166,note_on,22,0,1,,,,,,,,0,,,81,0
42168,note_on,2,0,3,,,,,,,,2,,,75,110
42168,note_on,2,0,1,,,,,,,,0,,,79,110
42190,note_on,22,0,1,,,,,,,,0,,,79,0
42190,note_on,46,0,7,,,,,,,,6,,,75,0
42190,note_on,22,0,3,,,,,,,,2,,,75,0
42192,note_on,2,0,3,,,,,,,,2,,,76,110
42192,note_on,2,0,7,,,,,,,,6,,,79,110
42192,note_on,720,0,10,,,,,,,,10,,,75,0
42192,note_on,2,0,1,,,,,,,,0,,,81,110
42214,note_on,22,0,3,,,,,,,,2,,,76,0
42214,note_on,22,0,1,,,,,,,,0,,,81,0
42216,note_on,2,0,1,,,,,,,,0,,,79,110
42216,note_on,2,0,3,,,,,,,,2,,,75,110
42238,note_on,94,0,2,,,,,,,,1,,,59,0
42238,note_on,94,0,5,,,,,,,,4,,,79,0
42238,note_on,94,0,4,,,,,,,,3,,,47,0
42238,note_on,94,0,11,,,,,,,,11,,,55,0
42238,note_on,94,0,12,,,,,,,,12,,,47,0
42238,note_on,94,0,6,,,,,,,,5,,,55,0
42238,note_on,46,0,7,,,,,,,,6,,,79,0
42238,note_on,22,0,1,,,,,,,,0,,,79,0
42238,note_on,22,0,3,,,,,,,,2,,,75,0
42238,note_on,94,0,8,,,,,,,,7,,,55,0
42240,note_on,48,0,10,,,,,,,,10,,,76,92
42240,note_on,0,0,9,,,,,,,,8,,,79,92
42240,note_on,2,0,12,,,,,,,,12,,,48,92
42240,note_on,2,0,2,,,,,,,,1,,,60,110
42240,note_on,2,0,7,,,,,,,,6,,,76,110
42240,note_on,384,0,9,,,,,,,,8,,,79,0
42240,note_on,2,0,3,,,,,,,,2,,,77,110
42240,note_on,2,0,1,,,,,,,,0,,,81,110
42240,note_on,2,0,6,,,,,,,,5,,,60,110
42262,note_on,22,0,1,,,,,,,,0,,,81,0
42262,note_on,22,0,3,,,,,,,,2,,,77,0
42264,note_on,2,0,1,,,,,,,,0,,,79,110
42264,note_on,2,0,3,,,,,,,,2,,,76,110
42286,note_on,22,0,1,,,,,,,,0,,,79,0
42286,note_on,22,0,3,,,,,,,,2,,,76,0
42288,note_on,2,0,3,,,,,,,,2,,,77,110
42288,note_on,2,0,1,,,,,,,,0,,,81,110
42288,note_on,50,0,5,,,,,,,,4,,,72,110
42310,note_on,22,0,3,,,,,,,,2,,,77,0
42310,note_on,22,0,1,,,,,,,,0,,,81,0
42312,note_on,2,0,3,,,,,,,,2,,,76,110
42312,note_on,2,0,1,,,,,,,,0,,,79,110
42334,note_on,94,0,7,,,,,,,,6,,,76,0
42334,note_on,94,0,2,,,,,,,,1,,,60,0
42334,note_on,94,0,12,,,,,,,,12,,,48,0
42334,note_on,46,0,5,,,,,,,,4,,,72,0
42334,note_on,94,0,6,,,,,,,,5,,,60,0
42334,note_on,22,0,1,,,,,,,,0,,,79,0
42334,note_on,22,0,3,,,,,,,,2,,,76,0
42336,note_on,2,0,6,,,,,,,,5,,,67,110
42336,note_on,98,0,4,,,,,,,,3,,,60,110
42336,note_on,2,0,1,,,,,,,,0,,,81,110
42336,note_on,2,0,2,,,,,,,,1,,,48,110
42336,note_on,2,0,12,,,,,,,,12,,,48,92
42336,note_on,98,0,11,,,,,,,,11,,,67,92
42336,note_on,2,0,7,,,,,,,,6,,,72,110
42336,note_on,2,0,3,,,,,,,,2,,,77,110
42336,note_on,2,0,5,,,,,,,,4,,,76,110
42336,note_on,98,0,8,,,,,,,,7,,,64,110
42358,note_on,22,0,1,,,,,,,,0,,,81,0
42358,note_on,22,0,3,,,,,,,,2,,,77,0
42360,note_on,2,0,1,,,,,,,,0,,,79,110
42360,note_on,2,0,3,,,,,,,,2,,,76,110
42382,note_on,22,0,3,,,,,,,,2,,,76,0
42382,note_on,22,0,1,,,,,,,,0,,,79,0
42382,note_on,46,0,5,,,,,,,,4,,,76,0
42384,note_on,2,0,3,,,,,,,,2,,,77,110
42384,note_on,2,0,5,,,,,,,,4,,,79,110
42384,note_on,2,0,1,,,,,,,,0,,,81,110
42406,note_on,22,0,3,,,,,,,,2,,,77,0
42406,note_on,22,0,1,,,,,,,,0,,,81,0
42408,note_on,2,0,3,,,,,,,,2,,,76,110
42408,note_on,2,0,1,,,,,,,,0,,,79,110
42430,note_on,22,0,3,,,,,,,,2,,,76,0
42430,note_on,94,0,4,,,,,,,,3,,,60,0
42430,note_on,94,0,6,,,,,,,,5,,,67,0
42430,note_on,22,0,1,,,,,,,,0,,,79,0
42430,note_on,46,0,5,,,,,,,,4,,,79,0
42430,note_on,94,0,11,,,,,,,,11,,,67,0
42430,note_on,94,0,2,,,,,,,,1,,,48,0
42430,note_on,94,0,12,,,,,,,,12,,,48,0
42430,note_on,94,0,7,,,,,,,,6,,,72,0
42430,note_on,94,0,8,,,,,,,,7,,,64,0
42432,note_on,2,0,1,,,,,,,,0,,,81,110
42432,note_on,2,0,3,,,,,,,,2,,,77,110
42432,note_on,2,0,11,,,,,,,,11,,,64,92
42432,note_on,2,0,4,,,,,,,,3,,,60,110
42432,note_on,2,0,12,,,,,,,,12,,,48,92
42432,note_on,2,0,5,,,,,,,,4,,,79,110
42432,note_on,2,0,8,,,,,,,,7,,,60,110
42454,note_on,22,0,1,,,,,,,,0,,,81,0
42454,note_on,22,0,3,,,,,,,,2,,,77,0
42456,note_on,2,0,1,,,,,,,,0,,,79,110
42456,note_on,2,0,3,,,,,,,,2,,,76,110
42478,note_on,22,0,3,,,,,,,,2,,,76,0
42478,note_on,22,0,1,,,,,,,,0,,,79,0
42480,note_on,0,0,5,,,,,,,,4,,,78,110
42480,note_on,2,0,1,,,,,,,,0,,,81,110
42480,note_on,2,0,3,,,,,,,,2,,,77,110
42480,note_on,50,0,7,,,,,,,,6,,,72,110
42480,note_on,48,0,5,,,,,,,,4,,,79,0
42502,note_on,22,0,3,,,,,,,,2,,,77,0
42502,note_on,22,0,1,,,,,,,,0,,,81,0
42504,note_on,2,0,3,,,,,,,,2,,,76,110
42504,note_on,2,0,1,,,,,,,,0,,,79,110
42526,note_on,22,0,1,,,,,,,,0,,,79,0
42526,note_on,94,0,8,,,,,,,,7,,,60,0
42526,note_on,22,0,3,,,,,,,,2,,,76,0
42526,note_on,94,0,12,,,,,,,,12,,,48,0
42526,note_on,94,0,11,,,,,,,,11,,,64,0
42526,note_on,46,0,7,,,,,,,,6,,,72,0
42526,note_on,94,0,4,,,,,,,,3,,,60,0
42526,note_on,46,0,5,,,,,,,,4,,,78,0
42528,note_on,2,0,7,,,,,,,,6,,,76,110
42528,note_on,2,0,4,,,,,,,,3,,,48,110
42528,note_on,2,0,1,,,,,,,,0,,,81,110
42528,note_on,2,0,3,,,,,,,,2,,,77,110
42528,note_on,98,0,2,,,,,,,,1,,,60,110
42528,note_on,2,0,5,,,,,,,,4,,,79,110
42528,note_on,2,0,11,,,,,,,,11,,,60,92
42528,note_on,98,0,6,,,,,,,,5,,,64,110
42528,note_on,2,0,12,,,,,,,,12,,,48,92
42528,note_on,2,0,8,,,,,,,,7,,,55,110
42550,note_on,22,0,1,,,,,,,,0,,,81,0
42550,note_on,22,0,3,,,,,,,,2,,,77,0
42552,note_on,2,0,3,,,,,,,,2,,,76,110
42552,note_on,2,0,1,,,,,,,,0,,,79,110
42574,note_on,46,0,7,,,,,,,,6,,,76,0
42574,note_on,22,0,1,,,,,,,,0,,,79,0
42574,note_on,22,0,3,,,,,,,,2,,,76,0
42576,note_on,2,0,1,,,,,,,,0,,,81,110
42576,note_on,2,0,3,,,,,,,,2,,,77,110
42576,note_on,336,0,9,,,,,,,,8,,,79,0
42576,note_on,2,0,7,,,,,,,,6,,,79,110
42598,note_on,22,0,1,,,,,,,,0,,,81,0
42598,note_on,22,0,3,,,,,,,,2,,,77,0
42600,note_on,2,0,1,,,,,,,,0,,,79,110
42600,note_on,2,0,3,,,,,,,,2,,,76,110
42622,note_on,46,0,7,,,,,,,,6,,,79,0
42622,note_on,94,0,8,,,,,,,,7,,,55,0
42622,note_on,22,0,1,,,,,,,,0,,,79,0
42622,note_on,94,0,4,,,,,,,,3,,,48,0
42622,note_on,94,0,5,,,,,,,,4,,,79,0
42622,note_on,94,0,12,,,,,,,,12,,,48,0
42622,note_on,94,0,6,,,,,,,,5,,,64,0
42622,note_on,94,0,11,,,,,,,,11,,,60,0
42622,note_on,94,0,2,,,,,,,,1,,,60,0
42622,note_on,22,0,3,,,,,,,,2,,,76,0
42624,note_on,2,0,3,,,,,,,,2,,,77,110
42624,note_on,2,0,6,,,,,,,,5,,,60,110
42624,note_on,2,0,12,,,,,,,,12,,,48,92
42624,note_on,2,0,1,,,,,,,,0,,,83,110
42624,note_on,2,0,2,,,,,,,,1,,,60,110
42624,note_on,2,0,7,,,,,,,,6,,,76,110
42624,note_on,48,0,9,,,,,,,,8,,,81,92
42646,note_on,22,0,1,,,,,,,,0,,,83,0
42646,note_on,22,0,3,,,,,,,,2,,,77,0
42648,note_on,2,0,3,,,,,,,,2,,,76,110
42648,note_on,2,0,1,,,,,,,,0,,,81,110
42670,note_on,22,0,3,,,,,,,,2,,,76,0
42670,note_on,22,0,1,,,,,,,,0,,,81,0
42672,note_on,50,0,5,,,,,,,,4,,,72,110
42672,note_on,2,0,3,,,,,,,,2,,,77,110
42672,note_on,2,0,1,,,,,,,,0,,,83,110
42694,note_on,22,0,3,,,,,,,,2,,,77,0
42694,note_on,22,0,1,,,,,,,,0,,,83,0
42696,note_on,2,0,1,,,,,,,,0,,,81,110
42696,note_on,2,0,3,,,,,,,,2,,,76,110
42718,note_on,46,0,5,,,,,,,,4,,,72,0
42718,note_on,22,0,1,,,,,,,,0,,,81,0
42718,note_on,94,0,7,,,,,,,,6,,,76,0
42718,note_on,94,0,6,,,,,,,,5,,,60,0
42718,note_on,94,0,2,,,,,,,,1,,,60,0
42718,note_on,94,0,12,,,,,,,,12,,,48,0
42718,note_on,22,0,3,,,,,,,,2,,,76,0
42720,note_on,2,0,2,,,,,,,,1,,,48,110
42720,note_on,2,0,1,,,,,,,,0,,,83,110
42720,note_on,2,0,7,,,,,,,,6,,,72,110
42720,note_on,98,0,4,,,,,,,,3,,,60,110
42720,note_on,98,0,8,,,,,,,,7,,,64,110
42720,note_on,2,0,6,,,,,,,,5,,,57,110
42720,note_on,2,0,5,,,,,,,,4,,,76,110
42720,note_on,98,0,11,,,,,,,,11,,,64,92
42720,note_on,2,0,3,,,,,,,,2,,,77,110
42720,note_on,2,0,12,,,,,,,,12,,,48,92
42742,note_on,22,0,3,,,,,,,,2,,,77,0
42742,note_on,22,0,1,,,,,,,,0,,,83,0
42744,note_on,2,0,3,,,,,,,,2,,,76,110
42744,note_on,2,0,1,,,,,,,,0,,,81,110
42766,note_on,22,0,3,,,,,,,,2,,,76,0
42766,note_on,46,0,5,,,,,,,,4,,,76,0
42766,note_on,22,0,1,,,,,,,,0,,,81,0
42768,note_on,2,0,1,,,,,,,,0,,,83,110
42768,note_on,2,0,3,,,,,,,,2,,,77,110
42768,note_on,2,0,5,,,,,,,,4,,,81,110
42790,note_on,22,0,1,,,,,,,,0,,,83,0
42790,note_on,22,0,3,,,,,,,,2,,,77,0
42792,note_on,2,0,3,,,,,,,,2,,,76,110
42792,note_on,2,0,1,,,,,,,,0,,,81,110
42814,note_on,46,0,5,,,,,,,,4,,,81,0
42814,note_on,94,0,12,,,,,,,,12,,,48,0
42814,note_on,94,0,8,,,,,,,,7,,,64,0
42814,note_on,94,0,7,,,,,,,,6,,,72,0
42814,note_on,22,0,1,,,,,,,,0,,,81,0
42814,note_on,94,0,11,,,,,,,,11,,,64,0
42814,note_on,94,0,2,,,,,,,,1,,,48,0
42814,note_on,94,0,4,,,,,,,,3,,,60,0
42814,note_on,94,0,6,,,,,,,,5,,,57,0
42814,note_on,22,0,3,,,,,,,,2,,,76,0
42816,note_on,2,0,5,,,,,,,,4,,,81,110
42816,note_on,2,0,11,,,,,,,,11,,,60,92
42816,note_on,2,0,1,,,,,,,,0,,,83,110
42816,note_on,2,0,4,,,,,,,,3,,,60,110
42816,note_on,2,0,3,,,,,,,,2,,,77,110
42816,note_on,2,0,8,,,,,,,,7,,,60,110
42816,note_on,2,0,12,,,,,,,,12,,,48,92
42838,note_on,22,0,1,,,,,,,,0,,,83,0
42838,note_on,22,0,3,,,,,,,,2,,,77,0
42840,note_on,2,0,1,,,,,,,,0,,,81,110
42840,note_on,2,0,3,,,,,,,,2,,,76,110
42862,note_on,22,0,1,,,,,,,,0,,,81,0
42862,note_on,22,0,3,,,,,,,,2,,,76,0
42864,note_on,2,0,1,,,,,,,,0,,,83,110
42864,note_on,0,0,5,,,,,,,,4,,,79,110
42864,note_on,48,0,5,,,,,,,,4,,,81,0
42864,note_on,2,0,3,,,,,,,,2,,,77,110
42864,note_on,50,0,7,,,,,,,,6,,,72,110
42886,note_on,22,0,1,,,,,,,,0,,,83,0
42886,note_on,22,0,3,,,,,,,,2,,,77,0
42888,note_on,2,0,1,,,,,,,,0,,,81,110
42888,note_on,2,0,3,,,,,,,,2,,,76,110
42910,note_on,94,0,4,,,,,,,,3,,,60,0
42910,note_on,22,0,3,,,,,,,,2,,,76,0
42910,note_on,46,0,5,,,,,,,,4,,,79,0
42910,note_on,94,0,11,,,,,,,,11,,,60,0
42910,note_on,46,0,7,,,,,,,,6,,,72,0
42910,note_on,94,0,8,,,,,,,,7,,,60,0
42910,note_on,94,0,12,,,,,,,,12,,,48,0
42910,note_on,22,0,1,,,,,,,,0,,,81,0
42912,note_on,2,0,7,,,,,,,,6,,,76,110
42912,note_on,98,0,6,,,,,,,,5,,,57,110
42912,note_on,2,0,3,,,,,,,,2,,,77,110
42912,note_on,2,0,5,,,,,,,,4,,,81,110
42912,note_on,2,0,11,,,,,,,,11,,,57,92
42912,note_on,2,0,12,,,,,,,,12,,,48,92
42912,note_on,2,0,1,,,,,,,,0,,,83,110
42912,note_on,2,0,4,,,,,,,,3,,,48,110
42912,note_on,98,0,2,,,,,,,,1,,,60,110
42912,note_on,2,0,8,,,,,,,,7,,,57,110
42934,note_on,22,0,1,,,,,,,,0,,,83,0
42934,note_on,22,0,3,,,,,,,,2,,,77,0
42936,note_on,2,0,3,,,,,,,,2,,,76,110
42936,note_on,2,0,1,,,,,,,,0,,,81,110
42958,note_on,46,0,7,,,,,,,,6,,,76,0
42958,note_on,22,0,3,,,,,,,,2,,,76,0
42958,note_on,22,0,1,,,,,,,,0,,,81,0
42960,note_on,2,0,1,,,,,,,,0,,,83,110
42960,note_on,720,0,10,,,,,,,,10,,,76,0
42960,note_on,2,0,7,,,,,,,,6,,,81,110
42960,note_on,2,0,3,,,,,,,,2,,,77,110
42982,note_on,22,0,3,,,,,,,,2,,,77,0
42982,note_on,22,0,1,,,,,,,,0,,,83,0
42984,note_on,2,0,1,,,,,,,,0,,,81,110
42984,note_on,2,0,3,,,,,,,,2,,,76,110
43006,note_on,94,0,5,,,,,,,,4,,,81,0
43006,note_on,94,0,11,,,,,,,,11,,,57,0
43006,note_on,22,0,3,,,,,,,,2,,,76,0
43006,note_on,94,0,2,,,,,,,,1,,,60,0
43006,note_on,94,0,6,,,,,,,,5,,,57,0
43006,note_on,94,0,8,,,,,,,,7,,,57,0
43006,note_on,94,0,4,,,,,,,,3,,,48,0
43006,note_on,46,0,7,,,,,,,,6,,,81,0
43006,note_on,22,0,1,,,,,,,,0,,,81,0
43006,note_on,94,0,12,,,,,,,,12,,,48,0
43008,note_on,2,0,12,,,,,,,,12,,,47,92
43008,note_on,0,0,9,,,,,,,,8,,,81,92
43008,note_on,2,0,6,,,,,,,,5,,,59,110
43008,note_on,2,0,7,,,,,,,,6,,,75,110
43008,note_on,48,0,10,,,,,,,,10,,,75,92
43008,note_on,384,0,9,,,,,,,,8,,,81,0
43008,note_on,2,0,2,,,,,,,,1,,,59,110
43008,note_on,2,0,3,,,,,,,,2,,,76,110
43008,note_on,2,0,1,,,,,,,,0,,,83,110
43030,note_on,22,0,3,,,,,,,,2,,,76,0
43030,note_on,22,0,1,,,,,,,,0,,,83,0
43032,note_on,2,0,3,,,,,,,,2,,,75,110
43032,note_on,2,0,1,,,,,,,,0,,,81,110
43054,note_on,22,0,3,,,,,,,,2,,,75,0
43054,note_on,22,0,1,,,,,,,,0,,,81,0
43056,note_on,2,0,3,,,,,,,,2,,,76,110
43056,note_on,2,0,1,,,,,,,,0,,,83,110
43056,note_on,50,0,5,,,,,,,,4,,,71,110
43078,note_on,22,0,3,,,,,,,,2,,,76,0
43078,note_on,22,0,1,,,,,,,,0,,,83,0
43080,note_on,2,0,1,,,,,,,,0,,,81,110
43080,note_on,2,0,3,,,,,,,,2,,,75,110
43102,note_on,94,0,6,,,,,,,,5,,,59,0
43102,note_on,46,0,5,,,,,,,,4,,,71,0
43102,note_on,94,0,12,,,,,,,,12,,,47,0
43102,note_on,22,0,3,,,,,,,,2,,,75,0
43102,note_on,94,0,7,,,,,,,,6,,,75,0
43102,note_on,94,0,2,,,,,,,,1,,,59,0
43102,note_on,22,0,1,,,,,,,,0,,,81,0
43104,note_on,2,0,1,,,,,,,,0,,,83,110
43104,note_on,2,0,7,,,,,,,,6,,,71,110
43104,note_on,98,0,8,,,,,,,,7,,,63,110
43104,note_on,2,0,12,,,,,,,,12,,,47,92
43104,note_on,2,0,3,,,,,,,,2,,,76,110
43104,note_on,2,0,2,,,,,,,,1,,,47,110
43104,note_on,2,0,6,,,,,,,,5,,,66,110
43104,note_on,2,0,5,,,,,,,,4,,,75,110
43104,note_on,98,0,4,,,,,,,,3,,,59,110
43104,note_on,98,0,11,,,,,,,,11,,,66,92
43126,note_on,22,0,1,,,,,,,,0,,,83,0
43126,note_on,22,0,3,,,,,,,,2,,,76,0
43128,note_on,2,0,3,,,,,,,,2,,,75,110
43128,note_on,2,0,1,,,,,,,,0,,,81,110
43150,note_on,22,0,3,,,,,,,,2,,,75,0
43150,note_on,46,0,5,,,,,,,,4,,,75,0
43150,note_on,22,0,1,,,,,,,,0,,,81,0
43152,note_on,2,0,3,,,,,,,,2,,,76,110
43152,note_on,2,0,5,,,,,,,,4,,,81,110
43152,note_on,2,0,1,,,,,,,,0,,,83,110
43174,note_on,22,0,1,,,,,,,,0,,,83,0
43174,note_on,22,0,3,,,,,,,,2,,,76,0
43176,note_on,2,0,1,,,,,,,,0,,,81,110
43176,note_on,2,0,3,,,,,,,,2,,,75,110
43198,note_on,94,0,8,,,,,,,,7,,,63,0
43198,note_on,94,0,7,,,,,,,,6,,,71,0
43198,note_on,22,0,1,,,,,,,,0,,,81,0
43198,note_on,94,0,11,,,,,,,,11,,,66,0
43198,note_on,22,0,3,,,,,,,,2,,,75,0
43198,note_on,94,0,6,,,,,,,,5,,,66,0
43198,note_on,46,0,5,,,,,,,,4,,,81,0
43198,note_on,94,0,4,,,,,,,,3,,,59,0
43198,note_on,94,0,12,,,,,,,,12,,,47,0
43198,note_on,94,0,2,,,,,,,,1,,,47,0
43200,note_on,2,0,3,,,,,,,,2,,,76,110
43200,note_on,2,0,5,,,,,,,,4,,,81,110
43200,note_on,2,0,12,,,,,,,,12,,,47,92
43200,note_on,2,0,8,,,,,,,,7,,,59,110
43200,note_on,2,0,4,,,,,,,,3,,,59,110
43200,note_on,2,0,1,,,,,,,,0,,,83,110
43200,note_on,2,0,11,,,,,,,,11,,,63,92
43222,note_on,22,0,3,,,,,,,,2,,,76,0
43222,note_on,22,0,1,,,,,,,,0,,,83,0
43224,note_on,2,0,1,,,,,,,,0,,,81,110
43224,note_on,2,0,3,,,,,,,,2,,,75,110
43246,note_on,22,0,1,,,,,,,,0,,,81,0
43246,note_on,22,0,3,,,,,,,,2,,,75,0
43248,note_on,2,0,3,,,,,,,,2,,,76,110
43248,note_on,2,0,1,,,,,,,,0,,,83,110
43248,note_on,0,0,5,,,,,,,,4,,,79,110
43248,note_on,48,0,5,,,,,,,,4,,,81,0
43248,note_on,50,0,7,,,,,,,,6,,,71,110
43270,note_on,22,0,3,,,,,,,,2,,,76,0
43270,note_on,22,0,1,,,,,,,,0,,,83,0
43272,note_on,2,0,1,,,,,,,,0,,,81,110
43272,note_on,2,0,3,,,,,,,,2,,,75,110
43294,note_on,22,0,1,,,,,,,,0,,,81,0
43294,note_on,94,0,11,,,,,,,,11,,,63,0
43294,note_on,94,0,12,,,,,,,,12,,,47,0
43294,note_on,46,0,7,,,,,,,,6,,,71,0
43294,note_on,46,0,5,,,,,,,,4,,,79,0
43294,note_on,94,0,8,,,,,,,,7,,,59,0
43294,note_on,22,0,3,,,,,,,,2,,,75,0
43294,note_on,94,0,4,,,,,,,,3,,,59,0
43296,note_on,98,0,6,,,,,,,,5,,,66,110
43296,note_on,2,0,4,,,,,,,,3,,,47,110
43296,note_on,2,0,3,,,,,,,,2,,,76,110
43296,note_on,2,0,5,,,,,,,,4,,,81,110
43296,note_on,2,0,11,,,,,,,,11,,,59,92
43296,note_on,2,0,1,,,,,,,,0,,,83,110
43296,note_on,98,0,2,,,,,,,,1,,,59,110
43296,note_on,2,0,12,,,,,,,,12,,,47,92
43296,note_on,2,0,8,,,,,,,,7,,,54,110
43296,note_on,2,0,7,,,,,,,,6,,,75,110
43318,note_on,22,0,3,,,,,,,,2,,,76,0
43318,note_on,22,0,1,,,,,,,,0,,,83,0
43320,note_on,2,0,1,,,,,,,,0,,,81,110
43320,note_on,2,0,3,,,,,,,,2,,,75,110
43342,note_on,22,0,1,,,,,,,,0,,,81,0
43342,note_on,22,0,3,,,,,,,,2,,,75,0
43342,note_on,46,0,7,,,,,,,,6,,,75,0
43344,note_on,2,0,3,,,,,,,,2,,,76,110
43344,note_on,336,0,10,,,,,,,,10,,,75,0
43344,note_on,336,0,9,,,,,,,,8,,,81,0
43344,note_on,2,0,1,,,,,,,,0,,,83,110
43344,note_on,2,0,7,,,,,,,,6,,,81,110
43366,note_on,22,0,1,,,,,,,,0,,,83,0
43366,note_on,22,0,3,,,,,,,,2,,,76,0
43368,note_on,2,0,3,,,,,,,,2,,,75,110
43368,note_on,2,0,1,,,,,,,,0,,,81,110
43390,note_on,94,0,12,,,,,,,,12,,,47,0
43390,note_on,94,0,8,,,,,,,,7,,,54,0
43390,note_on,94,0,6,,,,,,,,5,,,66,0
43390,note_on,94,0,4,,,,,,,,3,,,47,0
43390,note_on,22,0,3,,,,,,,,2,,,75,0
43390,note_on,94,0,5,,,,,,,,4,,,81,0
43390,note_on,94,0,2,,,,,,,,1,,,59,0
43390,note_on,22,0,1,,,,,,,,0,,,81,0
43390,note_on,46,0,7,,,,,,,,6,,,81,0
43390,note_on,94,0,11,,,,,,,,11,,,59,0
43392,note_on,48,0,10,,,,,,,,10,,,76,92
43392,note_on,2,0,7,,,,,,,,6,,,76,110
43392,note_on,2,0,3,,,,,,,,2,,,77,110
43392,note_on,2,0,6,,,,,,,,5,,,67,110
43392,note_on,2,0,12,,,,,,,,12,,,47,92
43392,note_on,2,0,2,,,,,,,,1,,,59,110
43392,note_on,48,0,9,,,,,,,,8,,,79,92
43392,note_on,2,0,1,,,,,,,,0,,,81,110
43414,note_on,22,0,1,,,,,,,,0,,,81,0
43414,note_on,22,0,3,,,,,,,,2,,,77,0
43416,note_on,2,0,3,,,,,,,,2,,,76,110
43416,note_on,2,0,1,,,,,,,,0,,,79,110
43438,note_on,22,0,1,,,,,,,,0,,,79,0
43438,note_on,22,0,3,,,,,,,,2,,,76,0
43440,note_on,2,0,1,,,,,,,,0,,,81,110
43440,note_on,50,0,5,,,,,,,,4,,,71,110
43440,note_on,2,0,3,,,,,,,,2,,,77,110
43462,note_on,22,0,3,,,,,,,,2,,,77,0
43462,note_on,22,0,1,,,,,,,,0,,,81,0
43464,note_on,2,0,1,,,,,,,,0,,,79,110
43464,note_on,2,0,3,,,,,,,,2,,,76,110
43486,note_on,94,0,6,,,,,,,,5,,,67,0
43486,note_on,22,0,1,,,,,,,,0,,,79,0
43486,note_on,94,0,12,,,,,,,,12,,,47,0
43486,note_on,94,0,2,,,,,,,,1,,,59,0
43486,note_on,22,0,3,,,,,,,,2,,,76,0
43486,note_on,94,0,7,,,,,,,,6,,,76,0
43486,note_on,46,0,5,,,,,,,,4,,,71,0
43488,note_on,98,0,8,,,,,,,,7,,,64,110
43488,note_on,2,0,1,,,,,,,,0,,,81,110
43488,note_on,98,0,11,,,,,,,,11,,,71,92
43488,note_on,2,0,7,,,,,,,,6,,,71,110
43488,note_on,98,0,4,,,,,,,,3,,,59,110
43488,note_on,2,0,2,,,,,,,,1,,,47,110
43488,note_on,2,0,5,,,,,,,,4,,,76,110
43488,note_on,2,0,3,,,,,,,,2,,,77,110
43488,note_on,2,0,12,,,,,,,,12,,,47,92
43488,note_on,2,0,6,,,,,,,,5,,,64,110
43510,note_on,22,0,1,,,,,,,,0,,,81,0
43510,note_on,22,0,3,,,,,,,,2,,,77,0
43512,note_on,2,0,3,,,,,,,,2,,,76,110
43512,note_on,2,0,1,,,,,,,,0,,,79,110
43534,note_on,22,0,1,,,,,,,,0,,,79,0
43534,note_on,22,0,3,,,,,,,,2,,,76,0
43534,note_on,46,0,5,,,,,,,,4,,,76,0
43536,note_on,2,0,3,,,,,,,,2,,,77,110
43536,note_on,2,0,1,,,,,,,,0,,,81,110
43536,note_on,2,0,5,,,,,,,,4,,,79,110
43558,note_on,22,0,1,,,,,,,,0,,,81,0
43558,note_on,22,0,3,,,,,,,,2,,,77,0
43560,note_on,2,0,3,,,,,,,,2,,,76,110
43560,note_on,2,0,1,,,,,,,,0,,,79,110
43582,note_on,94,0,8,,,,,,,,7,,,64,0
43582,note_on,94,0,12,,,,,,,,12,,,47,0
43582,note_on,46,0,5,,,,,,,,4,,,79,0
43582,note_on,94,0,11,,,,,,,,11,,,71,0
43582,note_on,22,0,1,,,,,,,,0,,,79,0
43582,note_on,94,0,7,,,,,,,,6,,,71,0
43582,note_on,94,0,4,,,,,,,,3,,,59,0
43582,note_on,94,0,6,,,,,,,,5,,,64,0
43582,note_on,22,0,3,,,,,,,,2,,,76,0
43582,note_on,94,0,2,,,,,,,,1,,,47,0
43584,note_on,2,0,12,,,,,,,,12,,,47,92
43584,note_on,2,0,11,,,,,,,,11,,,67,92
43584,note_on,2,0,5,,,,,,,,4,,,79,110
43584,note_on,2,0,4,,,,,,,,3,,,59,110
43584,note_on,2,0,1,,,,,,,,0,,,81,110
43584,note_on,2,0,8,,,,,,,,7,,,59,110
43584,note_on,2,0,3,,,,,,,,2,,,77,110
43606,note_on,22,0,1,,,,,,,,0,,,81,0
43606,note_on,22,0,3,,,,,,,,2,,,77,0
43608,note_on,2,0,1,,,,,,,,0,,,79,110
43608,note_on,2,0,3,,,,,,,,2,,,76,110
43630,note_on,22,0,3,,,,,,,,2,,,76,0
43630,note_on,22,0,1,,,,,,,,0,,,79,0
43632,note_on,2,0,1,,,,,,,,0,,,81,110
43632,note_on,50,0,7,,,,,,,,6,,,71,110
43632,note_on,2,0,3,,,,,,,,2,,,77,110
43632,note_on,48,0,5,,,,,,,,4,,,79,0
43632,note_on,0,0,5,,,,,,,,4,,,78,110
43654,note_on,22,0,1,,,,,,,,0,,,81,0
43654,note_on,22,0,3,,,,,,,,2,,,77,0
43656,note_on,2,0,1,,,,,,,,0,,,79,110
43656,note_on,2,0,3,,,,,,,,2,,,76,110
43678,note_on,22,0,1,,,,,,,,0,,,79,0
43678,note_on,22,0,3,,,,,,,,2,,,76,0
43678,note_on,46,0,5,,,,,,,,4,,,78,0
43678,note_on,94,0,4,,,,,,,,3,,,59,0
43678,note_on,94,0,12,,,,,,,,12,,,47,0
43678,note_on,46,0,7,,,,,,,,6,,,71,0
43678,note_on,94,0,11,,,,,,,,11,,,67,0
43678,note_on,94,0,8,,,,,,,,7,,,59,0
43680,note_on,2,0,1,,,,,,,,0,,,81,110
43680,note_on,2,0,7,,,,,,,,6,,,76,110
43680,note_on,98,0,2,,,,,,,,1,,,59,110
43680,note_on,2,0,11,,,,,,,,11,,,64,92
43680,note_on,2,0,3,,,,,,,,2,,,77,110
43680,note_on,2,0,5,,,,,,,,4,,,79,110
43680,note_on,2,0,4,,,,,,,,3,,,47,110
43680,note_on,2,0,12,,,,,,,,12,,,47,92
43680,note_on,2,0,8,,,,,,,,7,,,55,110
43680,note_on,98,0,6,,,,,,,,5,,,59,110
43702,note_on,22,0,1,,,,,,,,0,,,81,0
43702,note_on,22,0,3,,,,,,,,2,,,77,0
43704,note_on,2,0,3,,,,,,,,2,,,76,110
43704,note_on,2,0,1,,,,,,,,0,,,79,110
43726,note_on,22,0,1,,,,,,,,0,,,79,0
43726,note_on,46,0,7,,,,,,,,6,,,76,0
43726,note_on,22,0,3,,,,,,,,2,,,76,0
43728,note_on,336,0,9,,,,,,,,8,,,79,0
43728,note_on,2,0,1,,,,,,,,0,,,81,110
43728,note_on,2,0,3,,,,,,,,2,,,77,110
43728,note_on,2,0,7,,,,,,,,6,,,79,110
43750,note_on,22,0,1,,,,,,,,0,,,81,0
43750,note_on,22,0,3,,,,,,,,2,,,77,0
43752,note_on,2,0,3,,,,,,,,2,,,76,110
43752,note_on,2,0,1,,,,,,,,0,,,79,110
43774,note_on,94,0,12,,,,,,,,12,,,47,0
43774,note_on,94,0,8,,,,,,,,7,,,55,0
43774,note_on,94,0,11,,,,,,,,11,,,64,0
43774,note_on,22,0,3,,,,,,,,2,,,76,0
43774,note_on,46,0,7,,,,,,,,6,,,79,0
43774,note_on,94,0,2,,,,,,,,1,,,59,0
43774,note_on,94,0,6,,,,,,,,5,,,59,0
43774,note_on,94,0,5,,,,,,,,4,,,79,0
43774,note_on,22,0,1,,,,,,,,0,,,79,0
43774,note_on,94,0,4,,,,,,,,3,,,47,0
43776,note_on,2,0,1,,,,,,,,0,,,79,110
43776,note_on,2,0,6,,,,,,,,5,,,66,110
43776,note_on,2,0,12,,,,,,,,12,,,47,92
43776,note_on,48,0,9,,,,,,,,8,,,78,92
43776,note_on,2,0,3,,,,,,,,2,,,77,110
43776,note_on,2,0,2,,,,,,,,1,,,59,110
43776,note_on,2,0,7,,,,,,,,6,,,76,110
43798,note_on,22,0,1,,,,,,,,0,,,79,0
43798,note_on,22,0,3,,,,,,,,2,,,77,0
43800,note_on,2,0,3,,,,,,,,2,,,76,110
43800,note_on,2,0,1,,,,,,,,0,,,78,110
43822,note_on,22,0,3,,,,,,,,2,,,76,0
43822,note_on,22,0,1,,,,,,,,0,,,78,0
43824,note_on,2,0,3,,,,,,,,2,,,77,110
43824,note_on,2,0,1,,,,,,,,0,,,79,110
43824,note_on,50,0,5,,,,,,,,4,,,71,110
43846,note_on,22,0,3,,,,,,,,2,,,77,0
43846,note_on,22,0,1,,,,,,,,0,,,79,0
43848,note_on,2,0,1,,,,,,,,0,,,78,110
43848,note_on,2,0,3,,,,,,,,2,,,76,110
43870,note_on,94,0,12,,,,,,,,12,,,47,0
43870,note_on,94,0,2,,,,,,,,1,,,59,0
43870,note_on,22,0,3,,,,,,,,2,,,76,0
43870,note_on,22,0,1,,,,,,,,0,,,78,0
43870,note_on,94,0,6,,,,,,,,5,,,66,0
43870,note_on,94,0,7,,,,,,,,6,,,76,0
43870,note_on,46,0,5,,,,,,,,4,,,71,0
43872,note_on,2,0,3,,,,,,,,2,,,77,110
43872,note_on,98,0,4,,,,,,,,3,,,59,110
43872,note_on,2,0,12,,,,,,,,12,,,47,92
43872,note_on,98,0,8,,,,,,,,7,,,66,110
43872,note_on,2,0,2,,,,,,,,1,,,47,110
43872,note_on,2,0,1,,,,,,,,0,,,79,110
43872,note_on,98,0,11,,,,,,,,11,,,59,92
43872,note_on,2,0,6,,,,,,,,5,,,69,110
43872,note_on,2,0,7,,,,,,,,6,,,71,110
43872,note_on,2,0,5,,,,,,,,4,,,76,110
43894,note_on,22,0,3,,,,,,,,2,,,77,0
43894,note_on,22,0,1,,,,,,,,0,,,79,0
43896,note_on,2,0,3,,,,,,,,2,,,76,110
43896,note_on,2,0,1,,,,,,,,0,,,78,110
43918,note_on,22,0,3,,,,,,,,2,,,76,0
43918,note_on,46,0,5,,,,,,,,4,,,76,0
43918,note_on,22,0,1,,,,,,,,0,,,78,0
43920,note_on,2,0,3,,,,,,,,2,,,77,110
43920,note_on,2,0,5,,,,,,,,4,,,78,110
43920,note_on,2,0,1,,,,,,,,0,,,79,110
43942,note_on,22,0,3,,,,,,,,2,,,77,0
43942,note_on,22,0,1,,,,,,,,0,,,79,0
43944,note_on,2,0,1,,,,,,,,0,,,78,110
43944,note_on,2,0,3,,,,,,,,2,,,76,110
43966,note_on,94,0,8,,,,,,,,7,,,66,0
43966,note_on,94,0,12,,,,,,,,12,,,47,0
43966,note_on,94,0,7,,,,,,,,6,,,71,0
43966,note_on,22,0,1,,,,,,,,0,,,78,0
43966,note_on,94,0,6,,,,,,,,5,,,69,0
43966,note_on,22,0,3,,,,,,,,2,,,76,0
43966,note_on,94,0,2,,,,,,,,1,,,47,0
43966,note_on,94,0,4,,,,,,,,3,,,59,0
43966,note_on,94,0,11,,,,,,,,11,,,59,0
43966,note_on,46,0,5,,,,,,,,4,,,78,0
43968,note_on,2,0,4,,,,,,,,3,,,59,110
43968,note_on,2,0,1,,,,,,,,0,,,79,110
43968,note_on,2,0,5,,,,,,,,4,,,78,110
43968,note_on,2,0,11,,,,,,,,11,,,66,92
43968,note_on,2,0,3,,,,,,,,2,,,77,110
43968,note_on,2,0,8,,,,,,,,7,,,59,110
43968,note_on,2,0,12,,,,,,,,12,,,47,92
43990,note_on,22,0,3,,,,,,,,2,,,77,0
43990,note_on,22,0,1,,,,,,,,0,,,79,0
43992,note_on,2,0,1,,,,,,,,0,,,78,110
43992,note_on,2,0,3,,,,,,,,2,,,76,110
44014,note_on,22,0,1,,,,,,,,0,,,78,0
44014,note_on,22,0,3,,,,,,,,2,,,76,0
44016,note_on,48,0,5,,,,,,,,4,,,78,0
44016,note_on,0,0,5,,,,,,,,4,,,76,110
44016,note_on,50,0,7,,,,,,,,6,,,71,110
44016,note_on,2,0,3,,,,,,,,2,,,77,110
44016,note_on,2,0,1,,,,,,,,0,,,79,110
44038,note_on,22,0,1,,,,,,,,0,,,79,0
44038,note_on,22,0,3,,,,,,,,2,,,77,0
44040,note_on,2,0,3,,,,,,,,2,,,76,110
44040,note_on,2,0,1,,,,,,,,0,,,78,110
44062,note_on,22,0,3,,,,,,,,2,,,76,0
44062,note_on,94,0,12,,,,,,,,12,,,47,0
44062,note_on,46,0,5,,,,,,,,4,,,76,0
44062,note_on,94,0,11,,,,,,,,11,,,66,0
44062,note_on,22,0,1,,,,,,,,0,,,78,0
44062,note_on,94,0,8,,,,,,,,7,,,59,0
44062,note_on,94,0,4,,,,,,,,3,,,59,0
44062,note_on,46,0,7,,,,,,,,6,,,71,0
44064,note_on,2,0,5,,,,,,,,4,,,78,110
44064,note_on,98,0,2,,,,,,,,1,,,59,110
44064,note_on,2,0,12,,,,,,,,12,,,47,92
44064,note_on,2,0,8,,,,,,,,7,,,57,110
44064,note_on,2,0,7,,,,,,,,6,,,76,110
44064,note_on,2,0,1,,,,,,,,0,,,79,110
44064,note_on,2,0,3,,,,,,,,2,,,77,110
44064,note_on,2,0,4,,,,,,,,3,,,47,110
44064,note_on,2,0,11,,,,,,,,11,,,69,92
44064,note_on,98,0,6,,,,,,,,5,,,59,110
44086,note_on,22,0,3,,,,,,,,2,,,77,0
44086,note_on,22,0,1,,,,,,,,0,,,79,0
44088,note_on,2,0,3,,,,,,,,2,,,76,110
44088,note_on,2,0,1,,,,,,,,0,,,78,110
44110,note_on,46,0,7,,,,,,,,6,,,76,0
44110,note_on,22,0,3,,,,,,,,2,,,76,0
44110,note_on,22,0,1,,,,,,,,0,,,78,0
44112,note_on,720,0,10,,,,,,,,10,,,76,0
44112,note_on,2,0,7,,,,,,,,6,,,78,110
44112,note_on,2,0,3,,,,,,,,2,,,77,110
44112,note_on,2,0,1,,,,,,,,0,,,79,110
44134,note_on,22,0,3,,,,,,,,2,,,77,0
44134,note_on,22,0,1,,,,,,,,0,,,79,0
44136,note_on,2,0,1,,,,,,,,0,,,78,110
44136,note_on,2,0,3,,,,,,,,2,,,76,110
44158,note_on,94,0,2,,,,,,,,1,,,59,0
44158,note_on,94,0,4,,,,,,,,3,,,47,0
44158,note_on,22,0,1,,,,,,,,0,,,78,0
44158,note_on,46,0,7,,,,,,,,6,,,78,0
44158,note_on,94,0,6,,,,,,,,5,,,59,0
44158,note_on,94,0,8,,,,,,,,7,,,57,0
44158,note_on,22,0,3,,,,,,,,2,,,76,0
44158,note_on,94,0,12,,,,,,,,12,,,47,0
44158,note_on,94,0,11,,,,,,,,11,,,69,0
44158,note_on,94,0,5,,,,,,,,4,,,78,0
44160,note_on,2,0,1,,,,,,,,0,,,79,110
44160,note_on,2,0,7,,,,,,,,6,,,75,110
44160,note_on,2,0,12,,,,,,,,12,,,47,92
44160,note_on,2,0,2,,,,,,,,1,,,59,110
44160,note_on,2,0,3,,,,,,,,2,,,76,110
44160,note_on,48,0,10,,,,,,,,10,,,75,92
44160,note_on,2,0,6,,,,,,,,5,,,66,110
44182,note_on,22,0,3,,,,,,,,2,,,76,0
44182,note_on,22,0,1,,,,,,,,0,,,79,0
44184,note_on,2,0,3,,,,,,,,2,,,75,110
44184,note_on,2,0,1,,,,,,,,0,,,78,110
44206,note_on,22,0,1,,,,,,,,0,,,78,0
44206,note_on,22,0,3,,,,,,,,2,,,75,0
44208,note_on,2,0,3,,,,,,,,2,,,76,110
44208,note_on,50,0,5,,,,,,,,4,,,71,110
44208,note_on,2,0,1,,,,,,,,0,,,79,110
44230,note_on,22,0,3,,,,,,,,2,,,76,0
44230,note_on,22,0,1,,,,,,,,0,,,79,0
44232,note_on,2,0,1,,,,,,,,0,,,78,110
44232,note_on,2,0,3,,,,,,,,2,,,75,110
44254,note_on,94,0,2,,,,,,,,1,,,59,0
44254,note_on,22,0,1,,,,,,,,0,,,78,0
44254,note_on,94,0,6,,,,,,,,5,,,66,0
44254,note_on,94,0,7,,,,,,,,6,,,75,0
44254,note_on,22,0,3,,,,,,,,2,,,75,0
44254,note_on,94,0,12,,,,,,,,12,,,47,0
44254,note_on,46,0,5,,,,,,,,4,,,71,0
44256,note_on,2,0,2,,,,,,,,1,,,47,110
44256,note_on,2,0,7,,,,,,,,6,,,71,110
44256,note_on,98,0,8,,,,,,,,7,,,66,110
44256,note_on,2,0,12,,,,,,,,12,,,47,92
44256,note_on,98,0,11,,,,,,,,11,,,59,92
44256,note_on,98,0,4,,,,,,,,3,,,59,110
44256,note_on,2,0,5,,,,,,,,4,,,75,110
44256,note_on,2,0,1,,,,,,,,0,,,79,110
44256,note_on,2,0,3,,,,,,,,2,,,76,110
44256,note_on,2,0,6,,,,,,,,5,,,69,110
44278,note_on,22,0,3,,,,,,,,2,,,76,0
44278,note_on,22,0,1,,,,,,,,0,,,79,0
44280,note_on,2,0,3,,,,,,,,2,,,75,110
44280,note_on,2,0,1,,,,,,,,0,,,78,110
44302,note_on,46,0,5,,,,,,,,4,,,75,0
44302,note_on,22,0,1,,,,,,,,0,,,78,0
44302,note_on,22,0,3,,,,,,,,2,,,75,0
44304,note_on,2,0,1,,,,,,,,0,,,79,110
44304,note_on,2,0,5,,,,,,,,4,,,78,110
44304,note_on,2,0,3,,,,,,,,2,,,76,110
44326,note_on,22,0,3,,,,,,,,2,,,76,0
44326,note_on,22,0,1,,,,,,,,0,,,79,0
44328,note_on,2,0,1,,,,,,,,0,,,78,110
44328,note_on,2,0,3,,,,,,,,2,,,75,110
44350,note_on,94,0,12,,,,,,,,12,,,47,0
44350,note_on,94,0,4,,,,,,,,3,,,59,0
44350,note_on,22,0,3,,,,,,,,2,,,75,0
44350,note_on,94,0,11,,,,,,,,11,,,59,0
44350,note_on,94,0,7,,,,,,,,6,,,71,0
44350,note_on,94,0,8,,,,,,,,7,,,66,0
44350,note_on,94,0,2,,,,,,,,1,,,47,0
44350,note_on,22,0,1,,,,,,,,0,,,78,0
44350,note_on,94,0,6,,,,,,,,5,,,69,0
44350,note_on,46,0,5,,,,,,,,4,,,78,0
44352,note_on,2,0,12,,,,,,,,12,,,47,92
44352,note_on,2,0,8,,,,,,,,7,,,59,110
44352,note_on,2,0,1,,,,,,,,0,,,79,110
44352,note_on,2,0,11,,,,,,,,11,,,63,92
44352,note_on,2,0,4,,,,,,,,3,,,59,110
44352,note_on,2,0,5,,,,,,,,4,,,78,110
44352,note_on,2,0,3,,,,,,,,2,,,76,110
44374,note_on,22,0,1,,,,,,,,0,,,79,0
44374,note_on,22,0,3,,,,,,,,2,,,76,0
44376,note_on,2,0,3,,,,,,,,2,,,75,110
44376,note_on,2,0,1,,,,,,,,0,,,78,110
44398,note_on,22,0,3,,,,,,,,2,,,75,0
44398,note_on,22,0,1,,,,,,,,0,,,78,0
44400,note_on,50,0,7,,,,,,,,6,,,71,110
44400,note_on,2,0,3,,,,,,,,2,,,76,110
44400,note_on,48,0,5,,,,,,,,4,,,78,0
44400,note_on,0,0,5,,,,,,,,4,,,76,110
44400,note_on,2,0,1,,,,,,,,0,,,79,110
44422,note_on,22,0,3,,,,,,,,2,,,76,0
44422,note_on,22,0,1,,,,,,,,0,,,79,0
44424,note_on,2,0,3,,,,,,,,2,,,75,110
44424,note_on,2,0,1,,,,,,,,0,,,78,110
44446,note_on,46,0,5,,,,,,,,4,,,76,0
44446,note_on,94,0,12,,,,,,,,12,,,47,0
44446,note_on,22,0,1,,,,,,,,0,,,78,0
44446,note_on,94,0,8,,,,,,,,7,,,59,0
44446,note_on,94,0,4,,,,,,,,3,,,59,0
44446,note_on,22,0,3,,,,,,,,2,,,75,0
44446,note_on,94,0,11,,,,,,,,11,,,63,0
44446,note_on,46,0,7,,,,,,,,6,,,71,0
44448,note_on,2,0,3,,,,,,,,2,,,76,110
44448,note_on,98,0,2,,,,,,,,1,,,59,110
44448,note_on,2,0,12,,,,,,,,12,,,47,92
44448,note_on,2,0,8,,,,,,,,7,,,57,110
44448,note_on,2,0,11,,,,,,,,11,,,66,92
44448,note_on,98,0,6,,,,,,,,5,,,59,110
44448,note_on,2,0,4,,,,,,,,3,,,47,110
44448,note_on,2,0,5,,,,,,,,4,,,78,110
44448,note_on,2,0,7,,,,,,,,6,,,75,110
44448,note_on,2,0,1,,,,,,,,0,,,79,110
44470,note_on,22,0,1,,,,,,,,0,,,79,0
44470,note_on,22,0,3,,,,,,,,2,,,76,0
44472,note_on,2,0,3,,,,,,,,2,,,75,110
44472,note_on,2,0,1,,,,,,,,0,,,78,110
44494,note_on,46,0,7,,,,,,,,6,,,75,0
44494,note_on,22,0,1,,,,,,,,0,,,78,0
44494,note_on,22,0,3,,,,,,,,2,,,75,0
44496,note_on,336,0,10,,,,,,,,10,,,75,0
44496,note_on,2,0,3,,,,,,,,2,,,76,110
44496,note_on,2,0,1,,,,,,,,0,,,79,110
44496,note_on,720,0,9,,,,,,,,8,,,78,0
44496,note_on,2,0,7,,,,,,,,6,,,78,110
44518,note_on,22,0,1,,,,,,,,0,,,79,0
44518,note_on,22,0,3,,,,,,,,2,,,76,0
44520,note_on,2,0,1,,,,,,,,0,,,78,110
44520,note_on,2,0,3,,,,,,,,2,,,75,110
44542,note_on,94,0,12,,,,,,,,12,,,47,0
44542,note_on,94,0,2,,,,,,,,1,,,59,0
44542,note_on,94,0,8,,,,,,,,7,,,57,0
44542,note_on,94,0,4,,,,,,,,3,,,47,0
44542,note_on,94,0,5,,,,,,,,4,,,78,0
44542,note_on,94,0,6,,,,,,,,5,,,59,0
44542,note_on,46,0,7,,,,,,,,6,,,78,0
44542,note_on,94,0,11,,,,,,,,11,,,66,0
44542,note_on,22,0,1,,,,,,,,0,,,78,0
44542,note_on,22,0,3,,,,,,,,2,,,75,0
44544,note_on,2,0,6,,,,,,,,5,,,59,110
44544,note_on,2,0,3,,,,,,,,2,,,76,110
44544,note_on,2,0,11,,,,,,,,11,,,67,92
44544,note_on,48,0,10,,,,,,,,10,,,71,92
44544,note_on,2,0,4,,,,,,,,3,,,40,110
44544,note_on,48,0,9,,,,,,,,8,,,76,92
44544,note_on,2,0,1,,,,,,,,0,,,76,110
44544,note_on,0,0,10,,,,,,,,10,,,76,92
44544,note_on,2,0,2,,,,,,,,1,,,64,110
44544,note_on,2,0,7,,,,,,,,6,,,76,110
44544,note_on,2,0,8,,,,,,,,7,,,55,110
44544,note_on,2,0,12,,,,,,,,12,,,52,92
44544,note_on,2,0,5,,,,,,,,4,,,79,110
44590,note_on,46,0,6,,,,,,,,5,,,59,0
44590,note_on,46,0,1,,,,,,,,0,,,76,0
44592,note_on,2,0,6,,,,,,,,5,,,64,110
44592,note_on,2,0,1,,,,,,,,0,,,71,110
44638,note_on,94,0,2,,,,,,,,1,,,64,0
44638,note_on,46,0,6,,,,,,,,5,,,64,0
44638,note_on,46,0,1,,,,,,,,0,,,71,0
44638,note_on,94,0,5,,,,,,,,4,,,79,0
44640,note_on,2,0,1,,,,,,,,0,,,67,110
44640,note_on,2,0,6,,,,,,,,5,,,67,110
44640,note_on,2,0,5,,,,,,,,4,,,83,110
44640,note_on,2,0,2,,,,,,,,1,,,59,110
44686,note_on,46,0,1,,,,,,,,0,,,67,0
44686,note_on,46,0,5,,,,,,,,4,,,83,0
44688,note_on,2,0,1,,,,,,,,0,,,71,110
44688,note_on,2,0,5,,,,,,,,4,,,79,110
44704,note_on,160,0,7,,,,,,,,6,,,76,0
44704,note_on,160,0,8,,,,,,,,7,,,55,0
44704,note_on,160,0,3,,,,,,,,2,,,76,0
44704,note_on,160,0,10,,,,,,,,10,,,76,0
44704,note_on,160,0,12,,,,,,,,12,,,52,0
44704,note_on,160,0,11,,,,,,,,11,,,67,0
44704,note_on,0,0,10,,,,,,,,10,,,71,0
44704,note_on,160,0,9,,,,,,,,8,,,76,0
44704,note_on,160,0,4,,,,,,,,3,,,40,0
44734,note_on,94,0,2,,,,,,,,1,,,59,0
44734,note_on,46,0,5,,,,,,,,4,,,79,0
44734,note_on,46,0,1,,,,,,,,0,,,71,0
44736,note_on,2,0,5,,,,,,,,4,,,76,110
44736,note_on,2,0,2,,,,,,,,1,,,55,110
44736,note_on,2,0,1,,,,,,,,0,,,76,110
44782,note_on,46,0,1,,,,,,,,0,,,76,0
44782,note_on,142,0,6,,,,,,,,5,,,67,0
44784,note_on,2,0,1,,,,,,,,0,,,79,110
44784,note_on,2,0,6,,,,,,,,5,,,64,110
44830,note_on,46,0,1,,,,,,,,0,,,79,0
44830,note_on,94,0,2,,,,,,,,1,,,55,0
44830,note_on,46,0,6,,,,,,,,5,,,64,0
44832,note_on,2,0,6,,,,,,,,5,,,69,110
44832,note_on,2,0,2,,,,,,,,1,,,60,110
44832,note_on,2,0,1,,,,,,,,0,,,78,110
44878,note_on,46,0,6,,,,,,,,5,,,69,0
44878,note_on,46,0,1,,,,,,,,0,,,78,0
44880,note_on,2,0,6,,,,,,,,5,,,67,110
44880,note_on,2,0,1,,,,,,,,0,,,76,110
44926,note_on,46,0,1,,,,,,,,0,,,76,0
44926,note_on,94,0,2,,,,,,,,1,,,60,0
44926,note_on,46,0,6,,,,,,,,5,,,67,0
44928,note_on,2,0,1,,,,,,,,0,,,78,110
44928,note_on,2,0,6,,,,,,,,5,,,66,110
44928,note_on,2,0,2,,,,,,,,1,,,57,110
44974,note_on,46,0,1,,,,,,,,0,,,78,0
44976,note_on,2,0,1,,,,,,,,0,,,75,110
44992,note_on,256,0,5,,,,,,,,4,,,76,0
45022,note_on,46,0,1,,,,,,,,0,,,75,0
45022,note_on,94,0,2,,,,,,,,1,,,57,0
45024,note_on,2,0,2,,,,,,,,1,,,54,110
45024,note_on,2,0,1,,,,,,,,0,,,71,110
45024,note_on,32,0,5,,,,,,,,4,,,81,110
45070,note_on,46,0,1,,,,,,,,0,,,71,0
45070,note_on,46,0,5,,,,,,,,4,,,81,0
45072,note_on,2,0,5,,,,,,,,4,,,78,110
45072,note_on,2,0,1,,,,,,,,0,,,75,110
45118,note_on,94,0,2,,,,,,,,1,,,54,0
45118,note_on,46,0,5,,,,,,,,4,,,78,0
45118,note_on,46,0,1,,,,,,,,0,,,75,0
45120,note_on,2,0,5,,,,,,,,4,,,76,110
45120,note_on,2,0,1,,,,,,,,0,,,78,110
45120,note_on,2,0,2,,,,,,,,1,,,59,110
45142,note_on,22,0,5,,,,,,,,4,,,76,0
45144,note_on,2,0,5,,,,,,,,4,,,75,110
45166,note_on,22,0,5,,,,,,,,4,,,75,0
45166,note_on,238,0,6,,,,,,,,5,,,66,0
45166,note_on,46,0,1,,,,,,,,0,,,78,0
45168,note_on,2,0,6,,,,,,,,5,,,72,110
45168,note_on,2,0,5,,,,,,,,4,,,76,110
45168,note_on,2,0,1,,,,,,,,0,,,81,110
45190,note_on,22,0,5,,,,,,,,4,,,76,0
45192,note_on,2,0,5,,,,,,,,4,,,75,110
45214,note_on,46,0,6,,,,,,,,5,,,72,0
45214,note_on,46,0,1,,,,,,,,0,,,81,0
45214,note_on,94,0,2,,,,,,,,1,,,59,0
45214,note_on,22,0,5,,,,,,,,4,,,75,0
45216,note_on,2,0,1,,,,,,,,0,,,79,110
45216,note_on,2,0,6,,,,,,,,5,,,71,110
45216,note_on,2,0,2,,,,,,,,1,,,47,110
45216,note_on,2,0,5,,,,,,,,4,,,76,110
45238,note_on,22,0,5,,,,,,,,4,,,76,0
45240,note_on,2,0,5,,,,,,,,4,,,75,110
45262,note_on,22,0,5,,,,,,,,4,,,75,0
45262,note_on,46,0,1,,,,,,,,0,,,79,0
45262,note_on,46,0,6,,,,,,,,5,,,71,0
45264,note_on,2,0,5,,,,,,,,4,,,76,110
45264,note_on,2,0,1,,,,,,,,0,,,78,110
45264,note_on,2,0,6,,,,,,,,5,,,69,110
45286,note_on,22,0,5,,,,,,,,4,,,76,0
45288,note_on,2,0,5,,,,,,,,4,,,75,110
45310,note_on,46,0,1,,,,,,,,0,,,78,0
45310,note_on,46,0,6,,,,,,,,5,,,69,0
45310,note_on,94,0,2,,,,,,,,1,,,47,0
45310,note_on,22,0,5,,,,,,,,4,,,75,0
45312,note_on,2,0,5,,,,,,,,4,,,76,110
45312,note_on,2,0,1,,,,,,,,0,,,79,110
45312,note_on,2,0,6,,,,,,,,5,,,67,110
45312,note_on,2,0,2,,,,,,,,1,,,52,110
45358,note_on,46,0,2,,,,,,,,1,,,52,0
45358,note_on,46,0,1,,,,,,,,0,,,79,0
45360,note_on,2,0,1,,,,,,,,0,,,76,110
45360,note_on,2,0,2,,,,,,,,1,,,55,110
45406,note_on,46,0,1,,,,,,,,0,,,76,0
45406,note_on,94,0,6,,,,,,,,5,,,67,0
45406,note_on,46,0,2,,,,,,,,1,,,55,0
45408,note_on,0,0,3,,,,,,,,2,,,67,110
45408,note_on,2,0,2,,,,,,,,1,,,54,110
45408,note_on,0,0,3,,,,,,,,2,,,71,110
45408,note_on,704,0,3,,,,,,,,2,,,64,110
45408,note_on,2,0,6,,,,,,,,5,,,64,110
45408,note_on,704,0,4,,,,,,,,3,,,52,110
45408,note_on,2,0,1,,,,,,,,0,,,78,110
45454,note_on,46,0,2,,,,,,,,1,,,54,0
45454,note_on,46,0,1,,,,,,,,0,,,78,0
45456,note_on,2,0,1,,,,,,,,0,,,79,110
45456,note_on,2,0,2,,,,,,,,1,,,52,110
45472,note_on,160,0,5,,,,,,,,4,,,76,0
45502,note_on,0,0,3,,,,,,,,2,,,67,0
45502,note_on,94,0,4,,,,,,,,3,,,52,0
45502,note_on,94,0,6,,,,,,,,5,,,64,0
45502,note_on,46,0,1,,,,,,,,0,,,79,0
45502,note_on,0,0,3,,,,,,,,2,,,64,0
45502,note_on,94,0,3,,,,,,,,2,,,71,0
45502,note_on,46,0,2,,,,,,,,1,,,52,0
45504,note_on,2,0,1,,,,,,,,0,,,73,110
45504,note_on,2,0,4,,,,,,,,3,,,57,110
45504,note_on,2,0,2,,,,,,,,1,,,57,110
45504,note_on,2,0,3,,,,,,,,2,,,64,110
45504,note_on,0,0,3,,,,,,,,2,,,73,110
45504,note_on,0,0,3,,,,,,,,2,,,67,110
45550,note_on,46,0,1,,,,,,,,0,,,73,0
45550,note_on,46,0,2,,,,,,,,1,,,57,0
45552,note_on,2,0,1,,,,,,,,0,,,79,110
45552,note_on,2,0,2,,,,,,,,1,,,59,110
45598,note_on,0,0,3,,,,,,,,2,,,67,0
45598,note_on,94,0,3,,,,,,,,2,,,73,0
45598,note_on,94,0,4,,,,,,,,3,,,57,0
45598,note_on,46,0,1,,,,,,,,0,,,79,0
45598,note_on,0,0,3,,,,,,,,2,,,64,0
45598,note_on,46,0,2,,,,,,,,1,,,59,0
45600,note_on,0,0,7,,,,,,,,6,,,76,110
45600,note_on,0,0,7,,,,,,,,6,,,73,110
45600,note_on,896,0,8,,,,,,,,7,,,45,110
45600,note_on,2,0,1,,,,,,,,0,,,81,110
45600,note_on,896,0,7,,,,,,,,6,,,69,110
45600,note_on,2,0,2,,,,,,,,1,,,61,110
45646,note_on,46,0,1,,,,,,,,0,,,81,0
45646,note_on,46,0,2,,,,,,,,1,,,61,0
45648,note_on,2,0,2,,,,,,,,1,,,57,110
45648,note_on,2,0,1,,,,,,,,0,,,79,110
45694,note_on,46,0,1,,,,,,,,0,,,79,0
45694,note_on,46,0,2,,,,,,,,1,,,57,0
45694,note_on,94,0,8,,,,,,,,7,,,45,0
45694,note_on,94,0,7,,,,,,,,6,,,76,0
45694,note_on,0,0,7,,,,,,,,6,,,73,0
45694,note_on,0,0,7,,,,,,,,6,,,69,0
45696,note_on,2,0,8,,,,,,,,7,,,50,110
45696,note_on,2,0,2,,,,,,,,1,,,62,110
45696,note_on,0,0,7,,,,,,,,6,,,77,110
45696,note_on,2,0,7,,,,,,,,6,,,69,110
45696,note_on,0,0,7,,,,,,,,6,,,74,110
45696,note_on,2,0,1,,,,,,,,0,,,77,110
45742,note_on,46,0,1,,,,,,,,0,,,77,0
45742,note_on,46,0,2,,,,,,,,1,,,62,0
45744,note_on,2,0,2,,,,,,,,1,,,53,110
45744,note_on,2,0,1,,,,,,,,0,,,74,110
45790,note_on,0,0,7,,,,,,,,6,,,74,0
45790,note_on,94,0,8,,,,,,,,7,,,50,0
45790,note_on,46,0,2,,,,,,,,1,,,53,0
45790,note_on,46,0,1,,,,,,,,0,,,74,0
45790,note_on,94,0,7,,,,,,,,6,,,77,0
45790,note_on,0,0,7,,,,,,,,6,,,69,0
45792,note_on,2,0,2,,,,,,,,1,,,52,110
45792,note_on,0,0,5,,,,,,,,4,,,65,110
45792,note_on,0,0,5,,,,,,,,4,,,69,110
45792,note_on,320,0,5,,,,,,,,4,,,62,110
45792,note_on,2,0,1,,,,,,,,0,,,76,110
45792,note_on,290,0,6,,,,,,,,5,,,50,110
45838,note_on,46,0,2,,,,,,,,1,,,52,0
45838,note_on,46,0,1,,,,,,,,0,,,76,0
45840,note_on,2,0,1,,,,,,,,0,,,77,110
45840,note_on,2,0,2,,,,,,,,1,,,50,110
45886,note_on,0,0,5,,,,,,,,4,,,62,0
45886,note_on,46,0,1,,,,,,,,0,,,77,0
45886,note_on,94,0,5,,,,,,,,4,,,69,0
45886,note_on,0,0,5,,,,,,,,4,,,65,0
45886,note_on,46,0,2,,,,,,,,1,,,50,0
45886,note_on,94,0,6,,,,,,,,5,,,50,0
45888,note_on,2,0,6,,,,,,,,5,,,55,110
45888,note_on,2,0,2,,,,,,,,1,,,55,110
45888,note_on,0,0,5,,,,,,,,4,,,65,110
45888,note_on,2,0,1,,,,,,,,0,,,71,110
45888,note_on,0,0,5,,,,,,,,4,,,71,110
45888,note_on,0,0,5,,,,,,,,4,,,67,110
45888,note_on,2,0,5,,,,,,,,4,,,62,110
45934,note_on,46,0,1,,,,,,,,0,,,71,0
45934,note_on,46,0,2,,,,,,,,1,,,55,0
45936,note_on,2,0,2,,,,,,,,1,,,57,110
45936,note_on,2,0,1,,,,,,,,0,,,77,110
45982,note_on,46,0,1,,,,,,,,0,,,77,0
45982,note_on,94,0,5,,,,,,,,4,,,71,0
45982,note_on,0,0,5,,,,,,,,4,,,67,0
45982,note_on,0,0,5,,,,,,,,4,,,65,0
45982,note_on,0,0,5,,,,,,,,4,,,62,0
45982,note_on,94,0,6,,,,,,,,5,,,55,0
45982,note_on,46,0,2,,,,,,,,1,,,57,0
45984,note_on,0,0,5,,,,,,,,4,,,65,110
45984,note_on,0,0,5,,,,,,,,4,,,67,110
45984,note_on,1280,0,9,,,,,,,,8,,,77,60
45984,note_on,194,0,7,,,,,,,,6,,,71,110
45984,note_on,0,0,5,,,,,,,,4,,,71,110
45984,note_on,386,0,3,,,,,,,,2,,,67,110
45984,note_on,2,0,2,,,,,,,,1,,,59,110
45984,note_on,1280,0,11,,,,,,,,11,,,71,60
45984,note_on,2,0,1,,,,,,,,0,,,79,110
45984,note_on,386,0,4,,,,,,,,3,,,55,110
45984,note_on,1280,0,12,,,,,,,,12,,,43,60
45984,note_on,194,0,8,,,,,,,,7,,,43,110
45984,note_on,2,0,6,,,,,,,,5,,,43,110
45984,note_on,2,0,5,,,,,,,,4,,,62,110
45984,note_on,0,0,7,,,,,,,,6,,,74,110
45984,note_on,0,0,3,,,,,,,,2,,,74,110
45984,note_on,1280,0,10,,,,,,,,10,,,74,60
45984,note_on,0,0,3,,,,,,,,2,,,71,110
45984,note_on,0,0,7,,,,,,,,6,,,77,110
46030,note_on,46,0,1,,,,,,,,0,,,79,0
46030,note_on,46,0,2,,,,,,,,1,,,59,0
46032,note_on,2,0,2,,,,,,,,1,,,55,110
46032,note_on,2,0,1,,,,,,,,0,,,77,110
46078,note_on,0,0,7,,,,,,,,6,,,71,0
46078,note_on,94,0,7,,,,,,,,6,,,77,0
46078,note_on,0,0,7,,,,,,,,6,,,74,0
46078,note_on,94,0,10,,,,,,,,10,,,74,0
46078,note_on,0,0,3,,,,,,,,2,,,67,0
46078,note_on,94,0,3,,,,,,,,2,,,74,0
46078,note_on,94,0,6,,,,,,,,5,,,43,0
46078,note_on,94,0,12,,,,,,,,12,,,43,0
46078,note_on,94,0,11,,,,,,,,11,,,71,0
46078,note_on,94,0,9,,,,,,,,8,,,77,0
46078,note_on,0,0,3,,,,,,,,2,,,71,0
46078,note_on,94,0,8,,,,,,,,7,,,43,0
46078,note_on,0,0,5,,,,,,,,4,,,67,0
46078,note_on,94,0,5,,,,,,,,4,,,71,0
46078,note_on,94,0,4,,,,,,,,3,,,55,0
46078,note_on,46,0,1,,,,,,,,0,,,77,0
46078,note_on,0,0,5,,,,,,,,4,,,62,0
46078,note_on,0,0,5,,,,,,,,4,,,65,0
46078,note_on,46,0,2,,,,,,,,1,,,55,0
46080,note_on,2,0,8,,,,,,,,7,,,48,110
46080,note_on,2,0,11,,,,,,,,11,,,67,60
46080,note_on,2,0,2,,,,,,,,1,,,60,110
46080,note_on,2,0,3,,,,,,,,2,,,67,110
46080,note_on,2,0,7,,,,,,,,6,,,72,110
46080,note_on,2,0,6,,,,,,,,5,,,36,110
46080,note_on,2,0,1,,,,,,,,0,,,76,110
46080,note_on,2,0,4,,,,,,,,3,,,60,110
46080,note_on,2,0,5,,,,,,,,4,,,64,110
46080,note_on,0,0,7,,,,,,,,6,,,76,110
46080,note_on,2,0,9,,,,,,,,8,,,76,60
46080,note_on,0,0,5,,,,,,,,4,,,72,110
46080,note_on,2,0,12,,,,,,,,12,,,48,60
46080,note_on,0,0,3,,,,,,,,2,,,76,110
46080,note_on,0,0,5,,,,,,,,4,,,67,110
46080,note_on,2,0,10,,,,,,,,10,,,72,60
46080,note_on,0,0,3,,,,,,,,2,,,72,110
46126,note_on,46,0,1,,,,,,,,0,,,76,0
46126,note_on,46,0,2,,,,,,,,1,,,60,0
46128,note_on,2,0,2,,,,,,,,1,,,52,110
46128,note_on,2,0,1,,,,,,,,0,,,72,110
46174,note_on,0,0,3,,,,,,,,2,,,72,0
46174,note_on,94,0,4,,,,,,,,3,,,60,0
46174,note_on,94,0,12,,,,,,,,12,,,48,0
46174,note_on,94,0,9,,,,,,,,8,,,76,0
46174,note_on,0,0,3,,,,,,,,2,,,67,0
46174,note_on,94,0,10,,,,,,,,10,,,72,0
46174,note_on,94,0,6,,,,,,,,5,,,36,0
46174,note_on,94,0,3,,,,,,,,2,,,76,0
46174,note_on,0,0,7,,,,,,,,6,,,72,0
46174,note_on,94,0,11,,,,,,,,11,,,67,0
46174,note_on,0,0,5,,,,,,,,4,,,67,0
46174,note_on,46,0,2,,,,,,,,1,,,52,0
46174,note_on,46,0,1,,,,,,,,0,,,72,0
46174,note_on,94,0,8,,,,,,,,7,,,48,0
46174,note_on,0,0,5,,,,,,,,4,,,64,0
46174,note_on,94,0,5,,,,,,,,4,,,72,0
46174,note_on,94,0,7,,,,,,,,6,,,76,0
46176,note_on,2,0,6,,,,,,,,5,,,48,110
46176,note_on,2,0,1,,,,,,,,0,,,74,110
46176,note_on,2,0,5,,,,,,,,4,,,64,110
46176,note_on,0,0,5,,,,,,,,4,,,68,110
46176,note_on,2,0,2,,,,,,,,1,,,50,110
46222,note_on,46,0,2,,,,,,,,1,,,50,0
46222,note_on,46,0,1,,,,,,,,0,,,74,0
46224,note_on,2,0,2,,,,,,,,1,,,48,110
46224,note_on,2,0,1,,,,,,,,0,,,76,110
46270,note_on,46,0,2,,,,,,,,1,,,48,0
46270,note_on,46,0,1,,,,,,,,0,,,76,0
46270,note_on,94,0,5,,,,,,,,4,,,68,0
46270,note_on,94,0,6,,,,,,,,5,,,48,0
46270,note_on,0,0,5,,,,,,,,4,,,64,0
46272,note_on,2,0,1,,,,,,,,0,,,69,110
46272,note_on,0,0,5,,,,,,,,4,,,69,110
46272,note_on,2,0,6,,,,,,,,5,,,41,110
46272,note_on,2,0,2,,,,,,,,1,,,53,110
46272,note_on,2,0,5,,,,,,,,4,,,60,110
46318,note_on,46,0,1,,,,,,,,0,,,69,0
46318,note_on,46,0,2,,,,,,,,1,,,53,0
46320,note_on,2,0,2,,,,,,,,1,,,55,110
46320,note_on,2,0,1,,,,,,,,0,,,76,110
46366,note_on,94,0,5,,,,,,,,4,,,69,0
46366,note_on,0,0,5,,,,,,,,4,,,60,0
46366,note_on,46,0,1,,,,,,,,0,,,76,0
46366,note_on,94,0,6,,,,,,,,5,,,41,0
46366,note_on,46,0,2,,,,,,,,1,,,55,0
46368,note_on,194,0,4,,,,,,,,3,,,53,110
46368,note_on,194,0,3,,,,,,,,2,,,65,110
46368,note_on,2,0,2,,,,,,,,1,,,57,110
46368,note_on,0,0,3,,,,,,,,2,,,69,110
46368,note_on,0,0,3,,,,,,,,2,,,72,110
46368,note_on,2,0,1,,,,,,,,0,,,77,110
46414,note_on,46,0,2,,,,,,,,1,,,57,0
46414,note_on,46,0,1,,,,,,,,0,,,77,0
46416,note_on,2,0,2,,,,,,,,1,,,53,110
46416,note_on,2,0,1,,,,,,,,0,,,76,110
46462,note_on,94,0,4,,,,,,,,3,,,53,0
46462,note_on,0,0,3,,,,,,,,2,,,69,0
46462,note_on,0,0,3,,,,,,,,2,,,65,0
46462,note_on,46,0,1,,,,,,,,0,,,76,0
46462,note_on,94,0,3,,,,,,,,2,,,72,0
46462,note_on,46,0,2,,,,,,,,1,,,53,0
46464,note_on,2,0,4,,,,,,,,3,,,47,110
46464,note_on,0,0,3,,,,,,,,2,,,69,110
46464,note_on,2,0,3,,,,,,,,2,,,65,110
46464,note_on,2,0,2,,,,,,,,1,,,59,110
46464,note_on,2,0,1,,,,,,,,0,,,74,110
46464,note_on,0,0,3,,,,,,,,2,,,74,110
46510,note_on,46,0,2,,,,,,,,1,,,59,0
46510,note_on,46,0,1,,,,,,,,0,,,74,0
46512,note_on,2,0,2,,,,,,,,1,,,50,110
46512,note_on,2,0,1,,,,,,,,0,,,71,110
46558,note_on,46,0,2,,,,,,,,1,,,50,0
46558,note_on,94,0,3,,,,,,,,2,,,74,0
46558,note_on,0,0,3,,,,,,,,2,,,69,0
46558,note_on,0,0,3,,,,,,,,2,,,65,0
46558,note_on,94,0,4,,,,,,,,3,,,47,0
46558,note_on,46,0,1,,,,,,,,0,,,71,0
46560,note_on,0,0,7,,,,,,,,6,,,74,110
46560,note_on,386,0,7,,,,,,,,6,,,69,110
46560,note_on,0,0,7,,,,,,,,6,,,77,110
46560,note_on,2,0,1,,,,,,,,0,,,72,110
46560,note_on,386,0,8,,,,,,,,7,,,59,110
46560,note_on,2,0,2,,,,,,,,1,,,48,110
46606,note_on,46,0,1,,,,,,,,0,,,72,0
46606,note_on,46,0,2,,,,,,,,1,,,48,0
46608,note_on,2,0,2,,,,,,,,1,,,47,110
46608,note_on,2,0,1,,,,,,,,0,,,74,110
46654,note_on,46,0,1,,,,,,,,0,,,74,0
46654,note_on,94,0,8,,,,,,,,7,,,59,0
46654,note_on,94,0,7,,,,,,,,6,,,77,0
46654,note_on,0,0,7,,,,,,,,6,,,69,0
46654,note_on,0,0,7,,,,,,,,6,,,74,0
46654,note_on,46,0,2,,,,,,,,1,,,47,0
46656,note_on,2,0,8,,,,,,,,7,,,52,110
46656,note_on,2,0,1,,,,,,,,0,,,68,110
46656,note_on,0,0,7,,,,,,,,6,,,71,110
46656,note_on,2,0,7,,,,,,,,6,,,68,110
46656,note_on,0,0,7,,,,,,,,6,,,76,110
46656,note_on,2,0,2,,,,,,,,1,,,52,110
46702,note_on,46,0,2,,,,,,,,1,,,52,0
46702,note_on,46,0,1,,,,,,,,0,,,68,0
46704,note_on,2,0,1,,,,,,,,0,,,74,110
46704,note_on,2,0,2,,,,,,,,1,,,54,110
46750,note_on,0,0,7,,,,,,,,6,,,71,0
46750,note_on,0,0,7,,,,,,,,6,,,68,0
46750,note_on,46,0,2,,,,,,,,1,,,54,0
46750,note_on,46,0,1,,,,,,,,0,,,74,0
46750,note_on,94,0,7,,,,,,,,6,,,76,0
46750,note_on,94,0,8,,,,,,,,7,,,52,0
46752,note_on,386,0,6,,,,,,,,5,,,52,110
46752,note_on,578,0,11,,,,,,,,11,,,68,60
46752,note_on,386,0,5,,,,,,,,4,,,62,110
46752,note_on,0,0,5,,,,,,,,4,,,68,110
46752,note_on,194,0,4,,,,,,,,3,,,52,110
46752,note_on,578,0,9,,,,,,,,8,,,74,60
46752,note_on,0,0,5,,,,,,,,4,,,64,110
46752,note_on,0,0,3,,,,,,,,2,,,68,110
46752,note_on,578,0,10,,,,,,,,10,,,71,60
46752,note_on,0,0,3,,,,,,,,2,,,71,110
46752,note_on,2,0,1,,,,,,,,0,,,76,110
46752,note_on,578,0,12,,,,,,,,12,,,40,60
46752,note_on,2,0,8,,,,,,,,7,,,40,110
46752,note_on,2,0,2,,,,,,,,1,,,56,110
46752,note_on,2,0,7,,,,,,,,6,,,68,110
46752,note_on,0,0,7,,,,,,,,6,,,71,110
46752,note_on,0,0,7,,,,,,,,6,,,74,110
46752,note_on,194,0,3,,,,,,,,2,,,64,110
46798,note_on,46,0,2,,,,,,,,1,,,56,0
46798,note_on,46,0,1,,,,,,,,0,,,76,0
46800,note_on,2,0,2,,,,,,,,1,,,52,110
46800,note_on,2,0,1,,,,,,,,0,,,74,110
46846,note_on,94,0,8,,,,,,,,7,,,40,0
46846,note_on,0,0,7,,,,,,,,6,,,71,0
46846,note_on,94,0,7,,,,,,,,6,,,74,0
46846,note_on,94,0,6,,,,,,,,5,,,52,0
46846,note_on,94,0,9,,,,,,,,8,,,74,0
46846,note_on,94,0,10,,,,,,,,10,,,71,0
46846,note_on,46,0,2,,,,,,,,1,,,52,0
46846,note_on,0,0,3,,,,,,,,2,,,64,0
46846,note_on,94,0,12,,,,,,,,12,,,40,0
46846,note_on,94,0,4,,,,,,,,3,,,52,0
46846,note_on,94,0,3,,,,,,,,2,,,71,0
46846,note_on,0,0,5,,,,,,,,4,,,62,0
46846,note_on,0,0,5,,,,,,,,4,,,64,0
46846,note_on,94,0,5,,,,,,,,4,,,68,0
46846,note_on,0,0,7,,,,,,,,6,,,68,0
46846,note_on,46,0,1,,,,,,,,0,,,74,0
46846,note_on,94,0,11,,,,,,,,11,,,68,0
46846,note_on,0,0,3,,,,,,,,2,,,68,0
46848,note_on,2,0,10,,,,,,,,10,,,69,60
46848,note_on,0,0,7,,,,,,,,6,,,72,110
46848,note_on,2,0,1,,,,,,,,0,,,72,110
46848,note_on,0,0,7,,,,,,,,6,,,69,110
46848,note_on,2,0,7,,,,,,,,6,,,64,110
46848,note_on,0,0,3,,,,,,,,2,,,72,110
46848,note_on,0,0,3,,,,,,,,2,,,69,110
46848,note_on,2,0,3,,,,,,,,2,,,64,110
46848,note_on,2,0,9,,,,,,,,8,,,72,60
46848,note_on,2,0,2,,,,,,,,1,,,57,110
46848,note_on,2,0,12,,,,,,,,12,,,45,60
46848,note_on,2,0,5,,,,,,,,4,,,60,110
46848,note_on,0,0,5,,,,,,,,4,,,64,110
46848,note_on,0,0,5,,,,,,,,4,,,69,110
46848,note_on,2,0,8,,,,,,,,7,,,45,110
46848,note_on,2,0,6,,,,,,,,5,,,57,110
46848,note_on,2,0,4,,,,,,,,3,,,45,110
46848,note_on,2,0,11,,,,,,,,11,,,64,60
46894,note_on,46,0,1,,,,,,,,0,,,72,0
46896,note_on,2,0,1,,,,,,,,0,,,69,110
46942,note_on,46,0,1,,,,,,,,0,,,69,0
46942,note_on,94,0,6,,,,,,,,5,,,57,0
46942,note_on,94,0,8,,,,,,,,7,,,45,0
46942,note_on,0,0,5,,,,,,,,4,,,60,0
46942,note_on,0,0,5,,,,,,,,4,,,64,0
46942,note_on,94,0,5,,,,,,,,4,,,69,0
46942,note_on,94,0,2,,,,,,,,1,,,57,0
46942,note_on,94,0,9,,,,,,,,8,,,72,0
46942,note_on,94,0,3,,,,,,,,2,,,72,0
46942,note_on,0,0,3,,,,,,,,2,,,69,0
46942,note_on,0,0,3,,,,,,,,2,,,64,0
46942,note_on,94,0,4,,,,,,,,3,,,45,0
46942,note_on,94,0,10,,,,,,,,10,,,69,0
46942,note_on,94,0,7,,,,,,,,6,,,72,0
46942,note_on,0,0,7,,,,,,,,6,,,69,0
46942,note_on,0,0,7,,,,,,,,6,,,64,0
46944,note_on,2,0,10,,,,,,,,10,,,76,60
46944,note_on,2,0,1,,,,,,,,0,,,81,110
46944,note_on,2,0,2,,,,,,,,1,,,60,110
46990,note_on,46,0,1,,,,,,,,0,,,81,0
46992,note_on,2,0,1,,,,,,,,0,,,72,110
47008,note_on,160,0,12,,,,,,,,12,,,45,0
47008,note_on,160,0,11,,,,,,,,11,,,64,0
47038,note_on,94,0,2,,,,,,,,1,,,60,0
47038,note_on,46,0,1,,,,,,,,0,,,72,0
47038,note_on,94,0,10,,,,,,,,10,,,76,0
47040,note_on,32,0,11,,,,,,,,11,,,72,60
47040,note_on,2,0,1,,,,,,,,0,,,78,110
47040,note_on,2,0,10,,,,,,,,10,,,75,60
47040,note_on,2,0,2,,,,,,,,1,,,57,110
47086,note_on,46,0,1,,,,,,,,0,,,78,0
47088,note_on,2,0,1,,,,,,,,0,,,72,110
47134,note_on,94,0,2,,,,,,,,1,,,57,0
47134,note_on,46,0,1,,,,,,,,0,,,72,0
47136,note_on,96,0,10,,,,,,,,10,,,75,0
47136,note_on,0,0,10,,,,,,,,10,,,74,60
47136,note_on,2,0,1,,,,,,,,0,,,74,110
47136,note_on,128,0,12,,,,,,,,12,,,54,60
47136,note_on,2,0,2,,,,,,,,1,,,54,110
47136,note_on,194,0,9,,,,,,,,8,,,81,60
47182,note_on,46,0,1,,,,,,,,0,,,74,0
47184,note_on,2,0,1,,,,,,,,0,,,69,110
47200,note_on,160,0,11,,,,,,,,11,,,72,0
47230,note_on,94,0,12,,,,,,,,12,,,54,0
47230,note_on,94,0,10,,,,,,,,10,,,74,0
47230,note_on,94,0,9,,,,,,,,8,,,81,0
47230,note_on,46,0,1,,,,,,,,0,,,69,0
47230,note_on,94,0,2,,,,,,,,1,,,54,0
47232,note_on,2,0,12,,,,,,,,12,,,55,60
47232,note_on,2,0,1,,,,,,,,0,,,70,110
47232,note_on,2,0,9,,,,,,,,8,,,81,60
47232,note_on,32,0,11,,,,,,,,11,,,70,60
47232,note_on,2,0,2,,,,,,,,1,,,55,110
47278,note_on,46,0,1,,,,,,,,0,,,70,0
47280,note_on,2,0,1,,,,,,,,0,,,67,110
47326,note_on,94,0,2,,,,,,,,1,,,55,0
47326,note_on,46,0,1,,,,,,,,0,,,67,0
47326,note_on,94,0,12,,,,,,,,12,,,55,0
47328,note_on,0,0,9,,,,,,,,8,,,79,60
47328,note_on,98,0,10,,,,,,,,10,,,74,60
47328,note_on,96,0,9,,,,,,,,8,,,81,0
47328,note_on,2,0,1,,,,,,,,0,,,79,110
47328,note_on,2,0,2,,,,,,,,1,,,58,110
47374,note_on,46,0,1,,,,,,,,0,,,79,0
47376,note_on,2,0,1,,,,,,,,0,,,70,110
47422,note_on,46,0,1,,,,,,,,0,,,70,0
47422,note_on,94,0,10,,,,,,,,10,,,74,0
47422,note_on,94,0,2,,,,,,,,1,,,58,0
47422,note_on,94,0,9,,,,,,,,8,,,79,0
47424,note_on,2,0,10,,,,,,,,10,,,74,60
47424,note_on,2,0,2,,,,,,,,1,,,55,110
47424,note_on,2,0,1,,,,,,,,0,,,76,110
47470,note_on,46,0,1,,,,,,,,0,,,76,0
47472,note_on,2,0,1,,,,,,,,0,,,70,110
47518,note_on,46,0,1,,,,,,,,0,,,70,0
47518,note_on,94,0,2,,,,,,,,1,,,55,0
47520,note_on,2,0,1,,,,,,,,0,,,72,110
47520,note_on,0,0,10,,,,,,,,10,,,72,60
47520,note_on,2,0,2,,,,,,,,1,,,52,110
47520,note_on,98,0,9,,,,,,,,8,,,79,60
47520,note_on,194,0,12,,,,,,,,12,,,52,60
47520,note_on,96,0,10,,,,,,,,10,,,74,0
47566,note_on,46,0,1,,,,,,,,0,,,72,0
47568,note_on,336,0,11,,,,,,,,11,,,70,0
47568,note_on,2,0,1,,,,,,,,0,,,67,110
47614,note_on,94,0,12,,,,,,,,12,,,52,0
47614,note_on,94,0,9,,,,,,,,8,,,79,0
47614,note_on,46,0,1,,,,,,,,0,,,67,0
47614,note_on,94,0,2,,,,,,,,1,,,52,0
47614,note_on,94,0,10,,,,,,,,10,,,72,0
47616,note_on,2,0,1,,,,,,,,0,,,69,110
47616,note_on,48,0,11,,,,,,,,11,,,69,60
47616,note_on,2,0,12,,,,,,,,12,,,53,60
47616,note_on,2,0,2,,,,,,,,1,,,53,110
47616,note_on,2,0,9,,,,,,,,8,,,79,60
47662,note_on,46,0,1,,,,,,,,0,,,69,0
47664,note_on,2,0,1,,,,,,,,0,,,65,110
47710,note_on,94,0,2,,,,,,,,1,,,53,0
47710,note_on,94,0,12,,,,,,,,12,,,53,0
47710,note_on,46,0,1,,,,,,,,0,,,65,0
47712,note_on,2,0,2,,,,,,,,1,,,57,110
47712,note_on,98,0,10,,,,,,,,10,,,72,60
47712,note_on,2,0,1,,,,,,,,0,,,77,110
47712,note_on,0,0,9,,,,,,,,8,,,77,60
47712,note_on,96,0,9,,,,,,,,8,,,79,0
47758,note_on,46,0,1,,,,,,,,0,,,77,0
47760,note_on,2,0,1,,,,,,,,0,,,69,110
47806,note_on,46,0,1,,,,,,,,0,,,69,0
47806,note_on,94,0,2,,,,,,,,1,,,57,0
47806,note_on,94,0,10,,,,,,,,10,,,72,0
47806,note_on,94,0,9,,,,,,,,8,,,77,0
47808,note_on,2,0,1,,,,,,,,0,,,74,110
47808,note_on,2,0,2,,,,,,,,1,,,53,110
47808,note_on,2,0,10,,,,,,,,10,,,72,60
47854,note_on,46,0,1,,,,,,,,0,,,74,0
47856,note_on,2,0,1,,,,,,,,0,,,69,110
47902,note_on,94,0,2,,,,,,,,1,,,53,0
47902,note_on,46,0,1,,,,,,,,0,,,69,0
47904,note_on,2,0,1,,,,,,,,0,,,70,110
47904,note_on,0,0,10,,,,,,,,10,,,70,60
47904,note_on,2,0,2,,,,,,,,1,,,50,110
47904,note_on,194,0,12,,,,,,,,12,,,50,60
47904,note_on,96,0,10,,,,,,,,10,,,72,0
47904,note_on,98,0,9,,,,,,,,8,,,77,60
47950,note_on,46,0,1,,,,,,,,0,,,70,0
47952,note_on,336,0,11,,,,,,,,11,,,69,0
47952,note_on,2,0,1,,,,,,,,0,,,65,110
47998,note_on,94,0,12,,,,,,,,12,,,50,0
47998,note_on,94,0,9,,,,,,,,8,,,77,0
47998,note_on,46,0,1,,,,,,,,0,,,65,0
47998,note_on,94,0,10,,,,,,,,10,,,70,0
47998,note_on,94,0,2,,,,,,,,1,,,50,0
48000,note_on,2,0,12,,,,,,,,12,,,52,60
48000,note_on,2,0,2,,,,,,,,1,,,52,110
48000,note_on,2,0,9,,,,,,,,8,,,77,60
48000,note_on,2,0,1,,,,,,,,0,,,67,110
48000,note_on,48,0,11,,,,,,,,11,,,67,60
48046,note_on,46,0,1,,,,,,,,0,,,67,0
48048,note_on,2,0,1,,,,,,,,0,,,64,110
48094,note_on,94,0,2,,,,,,,,1,,,52,0
48094,note_on,46,0,1,,,,,,,,0,,,64,0
48094,note_on,94,0,12,,,,,,,,12,,,52,0
48096,note_on,2,0,1,,,,,,,,0,,,76,110
48096,note_on,0,0,9,,,,,,,,8,,,76,60
48096,note_on,96,0,9,,,,,,,,8,,,77,0
48096,note_on,98,0,10,,,,,,,,10,,,70,60
48096,note_on,2,0,2,,,,,,,,1,,,55,110
48142,note_on,46,0,1,,,,,,,,0,,,76,0
48144,note_on,2,0,1,,,,,,,,0,,,67,110
48190,note_on,94,0,9,,,,,,,,8,,,76,0
48190,note_on,94,0,10,,,,,,,,10,,,70,0
48190,note_on,94,0,2,,,,,,,,1,,,55,0
48190,note_on,46,0,1,,,,,,,,0,,,67,0
48192,note_on,2,0,1,,,,,,,,0,,,73,110
48192,note_on,2,0,10,,,,,,,,10,,,70,60
48192,note_on,2,0,2,,,,,,,,1,,,52,110
48238,note_on,46,0,1,,,,,,,,0,,,73,0
48240,note_on,2,0,1,,,,,,,,0,,,67,110
48286,note_on,46,0,1,,,,,,,,0,,,67,0
48286,note_on,94,0,2,,,,,,,,1,,,52,0
48288,note_on,194,0,12,,,,,,,,12,,,49,60
48288,note_on,98,0,9,,,,,,,,8,,,76,60
48288,note_on,2,0,2,,,,,,,,1,,,49,110
48288,note_on,96,0,10,,,,,,,,10,,,70,0
48288,note_on,0,0,10,,,,,,,,10,,,69,60
48288,note_on,2,0,1,,,,,,,,0,,,69,110
48334,note_on,46,0,1,,,,,,,,0,,,69,0
48336,note_on,2,0,1,,,,,,,,0,,,64,110
48336,note_on,336,0,11,,,,,,,,11,,,67,0
48382,note_on,94,0,10,,,,,,,,10,,,69,0
48382,note_on,94,0,9,,,,,,,,8,,,76,0
48382,note_on,94,0,2,,,,,,,,1,,,49,0
48382,note_on,46,0,1,,,,,,,,0,,,64,0
48382,note_on,94,0,12,,,,,,,,12,,,49,0
48384,note_on,2,0,12,,,,,,,,12,,,50,60
48384,note_on,48,0,11,,,,,,,,11,,,65,60
48384,note_on,2,0,10,,,,,,,,10,,,69,60
48384,note_on,2,0,1,,,,,,,,0,,,65,110
48384,note_on,2,0,9,,,,,,,,8,,,76,60
48384,note_on,2,0,2,,,,,,,,1,,,50,110
48430,note_on,46,0,1,,,,,,,,0,,,65,0
48430,note_on,46,0,2,,,,,,,,1,,,50,0
48432,note_on,2,0,2,,,,,,,,1,,,53,110
48432,note_on,2,0,1,,,,,,,,0,,,62,110
48478,note_on,94,0,12,,,,,,,,12,,,50,0
48478,note_on,46,0,2,,,,,,,,1,,,53,0
48478,note_on,46,0,1,,,,,,,,0,,,62,0
48480,note_on,2,0,1,,,,,,,,0,,,64,110
48480,note_on,0,0,9,,,,,,,,8,,,74,60
48480,note_on,2,0,2,,,,,,,,1,,,52,110
48480,note_on,96,0,9,,,,,,,,8,,,76,0
48480,note_on,1538,0,7,,,,,,,,6,,,62,110
48480,note_on,1538,0,8,,,,,,,,7,,,50,110
48480,note_on,0,0,7,,,,,,,,6,,,65,110
48480,note_on,0,0,7,,,,,,,,6,,,69,110
48526,note_on,46,0,1,,,,,,,,0,,,64,0
48526,note_on,46,0,2,,,,,,,,1,,,52,0
48528,note_on,2,0,2,,,,,,,,1,,,50,110
48528,note_on,2,0,1,,,,,,,,0,,,65,110
48544,note_on,160,0,10,,,,,,,,10,,,69,0
48544,note_on,160,0,11,,,,,,,,11,,,65,0
48574,note_on,46,0,2,,,,,,,,1,,,50,0
48574,note_on,0,0,7,,,,,,,,6,,,65,0
48574,note_on,94,0,7,,,,,,,,6,,,69,0
48574,note_on,94,0,8,,,,,,,,7,,,50,0
48574,note_on,94,0,9,,,,,,,,8,,,74,0
48574,note_on,46,0,1,,,,,,,,0,,,65,0
48574,note_on,0,0,7,,,,,,,,6,,,62,0
48576,note_on,2,0,8,,,,,,,,7,,,55,110
48576,note_on,2,0,1,,,,,,,,0,,,59,110
48576,note_on,2,0,2,,,,,,,,1,,,55,110
48576,note_on,2,0,7,,,,,,,,6,,,62,110
48576,note_on,0,0,7,,,,,,,,6,,,65,110
48576,note_on,0,0,7,,,,,,,,6,,,71,110
48622,note_on,46,0,1,,,,,,,,0,,,59,0
48622,note_on,46,0,2,,,,,,,,1,,,55,0
48624,note_on,2,0,1,,,,,,,,0,,,65,110
48624,note_on,2,0,2,,,,,,,,1,,,50,110
48670,note_on,94,0,8,,,,,,,,7,,,55,0
48670,note_on,94,0,7,,,,,,,,6,,,71,0
48670,note_on,0,0,7,,,,,,,,6,,,65,0
48670,note_on,0,0,7,,,,,,,,6,,,62,0
48670,note_on,46,0,2,,,,,,,,1,,,50,0
48670,note_on,46,0,1,,,,,,,,0,,,65,0
48672,note_on,0,0,5,,,,,,,,4,,,71,110
48672,note_on,2,0,2,,,,,,,,1,,,47,110
48672,note_on,1730,0,6,,,,,,,,5,,,55,110
48672,note_on,2,0,1,,,,,,,,0,,,67,110
48672,note_on,1730,0,5,,,,,,,,4,,,67,110
48672,note_on,0,0,5,,,,,,,,4,,,74,110
48718,note_on,46,0,2,,,,,,,,1,,,47,0
48718,note_on,46,0,1,,,,,,,,0,,,67,0
48720,note_on,2,0,1,,,,,,,,0,,,65,110
48720,note_on,2,0,2,,,,,,,,1,,,43,110
48766,note_on,94,0,6,,,,,,,,5,,,55,0
48766,note_on,0,0,5,,,,,,,,4,,,71,0
48766,note_on,0,0,5,,,,,,,,4,,,67,0
48766,note_on,46,0,1,,,,,,,,0,,,65,0
48766,note_on,46,0,2,,,,,,,,1,,,43,0
48766,note_on,94,0,5,,,,,,,,4,,,74,0
48768,note_on,2,0,1,,,,,,,,0,,,64,110
48768,note_on,2,0,6,,,,,,,,5,,,60,110
48768,note_on,2,0,5,,,,,,,,4,,,67,110
48768,note_on,0,0,5,,,,,,,,4,,,71,110
48768,note_on,0,0,5,,,,,,,,4,,,76,110
48768,note_on,2,0,2,,,,,,,,1,,,48,110
48814,note_on,46,0,1,,,,,,,,0,,,64,0
48814,note_on,46,0,2,,,,,,,,1,,,48,0
48816,note_on,2,0,2,,,,,,,,1,,,52,110
48816,note_on,2,0,1,,,,,,,,0,,,60,110
48862,note_on,46,0,2,,,,,,,,1,,,52,0
48862,note_on,0,0,5,,,,,,,,4,,,67,0
48862,note_on,0,0,5,,,,,,,,4,,,71,0
48862,note_on,46,0,1,,,,,,,,0,,,60,0
48862,note_on,94,0,5,,,,,,,,4,,,76,0
48862,note_on,94,0,6,,,,,,,,5,,,60,0
48864,note_on,2,0,2,,,,,,,,1,,,50,110
48864,note_on,1922,0,4,,,,,,,,3,,,60,110
48864,note_on,0,0,3,,,,,,,,2,,,80,110
48864,note_on,0,0,3,,,,,,,,2,,,74,110
48864,note_on,1922,0,3,,,,,,,,2,,,71,110
48864,note_on,2,0,1,,,,,,,,0,,,62,110
48910,note_on,46,0,2,,,,,,,,1,,,50,0
48910,note_on,46,0,1,,,,,,,,0,,,62,0
48912,note_on,2,0,1,,,,,,,,0,,,64,110
48912,note_on,2,0,2,,,,,,,,1,,,48,110
48958,note_on,46,0,2,,,,,,,,1,,,48,0
48958,note_on,94,0,4,,,,,,,,3,,,60,0
48958,note_on,0,0,3,,,,,,,,2,,,71,0
48958,note_on,0,0,3,,,,,,,,2,,,74,0
48958,note_on,46,0,1,,,,,,,,0,,,64,0
48958,note_on,94,0,3,,,,,,,,2,,,80,0
48960,note_on,2,0,1,,,,,,,,0,,,57,110
48960,note_on,2,0,2,,,,,,,,1,,,53,110
48960,note_on,2,0,4,,,,,,,,3,,,65,110
48960,note_on,0,0,3,,,,,,,,2,,,81,110
48960,note_on,0,0,3,,,,,,,,2,,,72,110
48960,note_on,2,0,3,,,,,,,,2,,,69,110
49006,note_on,46,0,1,,,,,,,,0,,,57,0
49006,note_on,46,0,2,,,,,,,,1,,,53,0
49008,note_on,2,0,1,,,,,,,,0,,,64,110
49008,note_on,2,0,2,,,,,,,,1,,,48,110
49054,note_on,46,0,2,,,,,,,,1,,,48,0
49054,note_on,46,0,1,,,,,,,,0,,,64,0
49054,note_on,94,0,4,,,,,,,,3,,,65,0
49054,note_on,0,0,3,,,,,,,,2,,,72,0
49054,note_on,94,0,3,,,,,,,,2,,,81,0
49054,note_on,0,0,3,,,,,,,,2,,,69,0
49056,note_on,0,0,5,,,,,,,,4,,,72,110
49056,note_on,194,0,6,,,,,,,,5,,,53,110
49056,note_on,194,0,5,,,,,,,,4,,,65,110
49056,note_on,2,0,1,,,,,,,,0,,,65,110
49056,note_on,0,0,5,,,,,,,,4,,,69,110
49056,note_on,2,0,2,,,,,,,,1,,,45,110
49102,note_on,46,0,2,,,,,,,,1,,,45,0
49102,note_on,46,0,1,,,,,,,,0,,,65,0
49104,note_on,2,0,1,,,,,,,,0,,,64,110
49104,note_on,2,0,2,,,,,,,,1,,,41,110
49150,note_on,94,0,5,,,,,,,,4,,,72,0
49150,note_on,94,0,6,,,,,,,,5,,,53,0
49150,note_on,46,0,2,,,,,,,,1,,,41,0
49150,note_on,0,0,5,,,,,,,,4,,,69,0
49150,note_on,46,0,1,,,,,,,,0,,,64,0
49150,note_on,0,0,5,,,,,,,,4,,,65,0
49152,note_on,2,0,6,,,,,,,,5,,,59,110
49152,note_on,2,0,1,,,,,,,,0,,,62,110
49152,note_on,0,0,5,,,,,,,,4,,,74,110
49152,note_on,0,0,5,,,,,,,,4,,,69,110
49152,note_on,2,0,5,,,,,,,,4,,,65,110
49152,note_on,2,0,2,,,,,,,,1,,,47,110
49198,note_on,46,0,2,,,,,,,,1,,,47,0
49198,note_on,46,0,1,,,,,,,,0,,,62,0
49200,note_on,2,0,2,,,,,,,,1,,,50,110
49200,note_on,2,0,1,,,,,,,,0,,,59,110
49246,note_on,46,0,1,,,,,,,,0,,,59,0
49246,note_on,94,0,5,,,,,,,,4,,,74,0
49246,note_on,0,0,5,,,,,,,,4,,,69,0
49246,note_on,0,0,5,,,,,,,,4,,,65,0
49246,note_on,46,0,2,,,,,,,,1,,,50,0
49246,note_on,94,0,6,,,,,,,,5,,,59,0
49248,note_on,578,0,8,,,,,,,,7,,,47,110
49248,note_on,0,0,7,,,,,,,,6,,,65,110
49248,note_on,2,0,1,,,,,,,,0,,,60,110
49248,note_on,0,0,7,,,,,,,,6,,,62,110
49248,note_on,2,0,2,,,,,,,,1,,,48,110
49248,note_on,578,0,7,,,,,,,,6,,,57,110
49294,note_on,46,0,2,,,,,,,,1,,,48,0
49294,note_on,46,0,1,,,,,,,,0,,,60,0
49296,note_on,2,0,1,,,,,,,,0,,,62,110
49296,note_on,2,0,2,,,,,,,,1,,,47,110
49342,note_on,0,0,7,,,,,,,,6,,,57,0
49342,note_on,94,0,8,,,,,,,,7,,,47,0
49342,note_on,46,0,2,,,,,,,,1,,,47,0
49342,note_on,94,0,7,,,,,,,,6,,,65,0
49342,note_on,46,0,1,,,,,,,,0,,,62,0
49342,note_on,0,0,7,,,,,,,,6,,,62,0
49344,note_on,2,0,7,,,,,,,,6,,,56,110
49344,note_on,2,0,8,,,,,,,,7,,,52,110
49344,note_on,2,0,2,,,,,,,,1,,,52,110
49344,note_on,0,0,7,,,,,,,,6,,,64,110
49344,note_on,2,0,1,,,,,,,,0,,,56,110
49344,note_on,0,0,7,,,,,,,,6,,,62,110
49390,note_on,46,0,1,,,,,,,,0,,,56,0
49390,note_on,46,0,2,,,,,,,,1,,,52,0
49392,note_on,2,0,1,,,,,,,,0,,,62,110
49392,note_on,2,0,2,,,,,,,,1,,,47,110
49438,note_on,94,0,7,,,,,,,,6,,,64,0
49438,note_on,0,0,7,,,,,,,,6,,,62,0
49438,note_on,0,0,7,,,,,,,,6,,,56,0
49438,note_on,46,0,2,,,,,,,,1,,,47,0
49438,note_on,94,0,8,,,,,,,,7,,,52,0
49438,note_on,46,0,1,,,,,,,,0,,,62,0
49440,note_on,2,0,7,,,,,,,,6,,,59,110
49440,note_on,0,0,7,,,,,,,,6,,,62,110
49440,note_on,0,0,7,,,,,,,,6,,,68,110
49440,note_on,194,0,6,,,,,,,,5,,,52,110
49440,note_on,194,0,5,,,,,,,,4,,,68,110
49440,note_on,0,0,5,,,,,,,,4,,,71,110
49440,note_on,0,0,5,,,,,,,,4,,,74,110
49440,note_on,866,0,9,,,,,,,,8,,,68,60
49440,note_on,896,0,11,,,,,,,,11,,,62,60
49440,note_on,896,0,10,,,,,,,,10,,,64,60
49440,note_on,386,0,3,,,,,,,,2,,,76,110
49440,note_on,2,0,1,,,,,,,,0,,,64,110
49440,note_on,0,0,3,,,,,,,,2,,,83,110
49440,note_on,0,0,3,,,,,,,,2,,,80,110
49440,note_on,2,0,8,,,,,,,,7,,,40,110
49440,note_on,2,0,2,,,,,,,,1,,,44,110
49440,note_on,386,0,4,,,,,,,,3,,,64,110
49440,note_on,962,0,12,,,,,,,,12,,,40,60
49486,note_on,46,0,1,,,,,,,,0,,,64,0
49486,note_on,46,0,2,,,,,,,,1,,,44,0
49488,note_on,2,0,2,,,,,,,,1,,,40,110
49488,note_on,2,0,1,,,,,,,,0,,,62,110
49534,note_on,94,0,7,,,,,,,,6,,,68,0
49534,note_on,0,0,7,,,,,,,,6,,,62,0
49534,note_on,46,0,2,,,,,,,,1,,,40,0
49534,note_on,0,0,7,,,,,,,,6,,,59,0
49534,note_on,94,0,8,,,,,,,,7,,,40,0
49534,note_on,94,0,4,,,,,,,,3,,,64,0
49534,note_on,94,0,10,,,,,,,,10,,,64,0
49534,note_on,94,0,11,,,,,,,,11,,,62,0
49534,note_on,0,0,3,,,,,,,,2,,,76,0
49534,note_on,0,0,3,,,,,,,,2,,,80,0
49534,note_on,94,0,3,,,,,,,,2,,,83,0
49534,note_on,94,0,12,,,,,,,,12,,,40,0
49534,note_on,94,0,5,,,,,,,,4,,,74,0
49534,note_on,0,0,5,,,,,,,,4,,,71,0
49534,note_on,0,0,5,,,,,,,,4,,,68,0
49534,note_on,46,0,1,,,,,,,,0,,,62,0
49534,note_on,94,0,6,,,,,,,,5,,,52,0
49534,note_on,94,0,9,,,,,,,,8,,,68,0
49536,note_on,2,0,4,,,,,,,,3,,,57,110
49536,note_on,2,0,3,,,,,,,,2,,,76,110
49536,note_on,2,0,9,,,,,,,,8,,,69,60
49536,note_on,0,0,3,,,,,,,,2,,,84,110
49536,note_on,0,0,3,,,,,,,,2,,,81,110
49536,note_on,2,0,7,,,,,,,,6,,,57,110
49536,note_on,2,0,6,,,,,,,,5,,,57,110
49536,note_on,2,0,1,,,,,,,,0,,,60,110
49536,note_on,2,0,2,,,,,,,,1,,,45,110
49536,note_on,0,0,5,,,,,,,,4,,,72,110
49536,note_on,0,0,5,,,,,,,,4,,,69,110
49536,note_on,2,0,5,,,,,,,,4,,,64,110
49536,note_on,0,0,7,,,,,,,,6,,,60,110
49536,note_on,2,0,8,,,,,,,,7,,,45,110
49536,note_on,2,0,12,,,,,,,,12,,,45,60
49536,note_on,2,0,10,,,,,,,,10,,,64,60
49536,note_on,2,0,11,,,,,,,,11,,,60,60
49536,note_on,0,0,7,,,,,,,,6,,,69,110
49536,note_on,0,0,7,,,,,,,,6,,,64,110
49582,note_on,46,0,1,,,,,,,,0,,,60,0
49584,note_on,2,0,1,,,,,,,,0,,,57,110
49630,note_on,94,0,5,,,,,,,,4,,,72,0
49630,note_on,0,0,5,,,,,,,,4,,,64,0
49630,note_on,0,0,5,,,,,,,,4,,,69,0
49630,note_on,0,0,3,,,,,,,,2,,,81,0
49630,note_on,94,0,8,,,,,,,,7,,,45,0
49630,note_on,94,0,12,,,,,,,,12,,,45,0
49630,note_on,94,0,10,,,,,,,,10,,,64,0
49630,note_on,94,0,11,,,,,,,,11,,,60,0
49630,note_on,94,0,9,,,,,,,,8,,,69,0
49630,note_on,0,0,7,,,,,,,,6,,,64,0
49630,note_on,0,0,7,,,,,,,,6,,,60,0
49630,note_on,0,0,7,,,,,,,,6,,,57,0
49630,note_on,94,0,7,,,,,,,,6,,,69,0
49630,note_on,0,0,3,,,,,,,,2,,,76,0
49630,note_on,94,0,6,,,,,,,,5,,,57,0
49630,note_on,94,0,4,,,,,,,,3,,,57,0
49630,note_on,94,0,3,,,,,,,,2,,,84,0
49630,note_on,94,0,2,,,,,,,,1,,,45,0
49630,note_on,46,0,1,,,,,,,,0,,,57,0
49632,note_on,2,0,2,,,,,,,,1,,,57,110
49632,note_on,2,0,1,,,,,,,,0,,,60,110
49678,note_on,46,0,2,,,,,,,,1,,,57,0
49678,note_on,46,0,1,,,,,,,,0,,,60,0
49680,note_on,2,0,2,,,,,,,,1,,,59,110
49680,note_on,2,0,1,,,,,,,,0,,,64,110
49726,note_on,46,0,1,,,,,,,,0,,,64,0
49726,note_on,46,0,2,,,,,,,,1,,,59,0
49728,note_on,2,0,1,,,,,,,,0,,,69,110
49728,note_on,2,0,2,,,,,,,,1,,,60,110
49774,note_on,46,0,1,,,,,,,,0,,,69,0
49776,note_on,2,0,1,,,,,,,,0,,,67,110
49822,note_on,46,0,1,,,,,,,,0,,,67,0
49822,note_on,94,0,2,,,,,,,,1,,,60,0
49824,note_on,0,0,2,,,,,,,,1,,,49,110
49824,note_on,0,0,2,,,,,,,,1,,,52,110
49824,note_on,0,0,2,,,,,,,,1,,,57,110
49824,note_on,2,0,1,,,,,,,,0,,,65,110
49824,note_on,2,0,2,,,,,,,,1,,,45,110
49870,note_on,46,0,1,,,,,,,,0,,,65,0
49872,note_on,2,0,1,,,,,,,,0,,,64,110
49918,note_on,94,0,2,,,,,,,,1,,,57,0
49918,note_on,0,0,2,,,,,,,,1,,,45,0
49918,note_on,0,0,2,,,,,,,,1,,,49,0
49918,note_on,0,0,2,,,,,,,,1,,,52,0
49918,note_on,46,0,1,,,,,,,,0,,,64,0
49920,note_on,2,0,1,,,,,,,,0,,,65,110
49920,note_on,2,0,2,,,,,,,,1,,,50,110
49920,note_on,0,0,2,,,,,,,,1,,,57,110
49966,note_on,46,0,1,,,,,,,,0,,,65,0
49968,note_on,2,0,1,,,,,,,,0,,,62,110
50014,note_on,46,0,1,,,,,,,,0,,,62,0
50014,note_on,94,0,2,,,,,,,,1,,,57,0
50014,note_on,0,0,2,,,,,,,,1,,,50,0
50016,note_on,2,0,1,,,,,,,,0,,,65,110
50016,note_on,2,0,2,,,,,,,,1,,,62,110
50062,note_on,46,0,1,,,,,,,,0,,,65,0
50062,note_on,46,0,2,,,,,,,,1,,,62,0
50064,note_on,2,0,2,,,,,,,,1,,,64,110
50064,note_on,2,0,1,,,,,,,,0,,,69,110
50110,note_on,46,0,2,,,,,,,,1,,,64,0
50110,note_on,46,0,1,,,,,,,,0,,,69,0
50112,note_on,2,0,2,,,,,,,,1,,,65,110
50112,note_on,2,0,1,,,,,,,,0,,,74,110
50158,note_on,46,0,1,,,,,,,,0,,,74,0
50160,note_on,2,0,1,,,,,,,,0,,,72,110
50206,note_on,46,0,1,,,,,,,,0,,,72,0
50206,note_on,94,0,2,,,,,,,,1,,,65,0
50208,note_on,2,0,1,,,,,,,,0,,,71,110
50208,note_on,2,0,2,,,,,,,,1,,,50,110
50208,note_on,0,0,2,,,,,,,,1,,,59,110
50208,note_on,0,0,2,,,,,,,,1,,,53,110
50254,note_on,46,0,1,,,,,,,,0,,,71,0
50256,note_on,2,0,1,,,,,,,,0,,,69,110
50302,note_on,46,0,1,,,,,,,,0,,,69,0
50302,note_on,0,0,2,,,,,,,,1,,,50,0
50302,note_on,0,0,2,,,,,,,,1,,,53,0
50302,note_on,94,0,2,,,,,,,,1,,,59,0
50304,note_on,2,0,2,,,,,,,,1,,,52,110
50304,note_on,2,0,1,,,,,,,,0,,,68,110
50304,note_on,0,0,2,,,,,,,,1,,,59,110
50350,note_on,46,0,1,,,,,,,,0,,,68,0
50350,note_on,46,0,2,,,,,,,,1,,,52,0
50352,note_on,2,0,2,,,,,,,,1,,,53,110
50352,note_on,2,0,1,,,,,,,,0,,,71,110
50398,note_on,46,0,2,,,,,,,,1,,,53,0
50398,note_on,46,0,1,,,,,,,,0,,,71,0
50398,note_on,0,0,2,,,,,,,,1,,,59,0
50400,note_on,2,0,1,,,,,,,,0,,,74,110
50400,note_on,2,0,2,,,,,,,,1,,,52,110
50446,note_on,46,0,1,,,,,,,,0,,,74,0
50446,note_on,46,0,2,,,,,,,,1,,,52,0
50448,note_on,2,0,1,,,,,,,,0,,,77,110
50448,note_on,2,0,2,,,,,,,,1,,,50,110
50494,note_on,46,0,1,,,,,,,,0,,,77,0
50494,note_on,46,0,2,,,,,,,,1,,,50,0
50496,note_on,2,0,1,,,,,,,,0,,,76,110
50496,note_on,2,0,2,,,,,,,,1,,,48,110
50542,note_on,46,0,1,,,,,,,,0,,,76,0
50542,note_on,46,0,2,,,,,,,,1,,,48,0
50544,note_on,2,0,1,,,,,,,,0,,,74,110
50544,note_on,2,0,2,,,,,,,,1,,,47,110
50590,note_on,46,0,1,,,,,,,,0,,,74,0
50590,note_on,46,0,2,,,,,,,,1,,,47,0
50592,note_on,2,0,1,,,,,,,,0,,,72,110
50592,note_on,2,0,2,,,,,,,,1,,,45,110
50638,note_on,46,0,1,,,,,,,,0,,,72,0
50638,note_on,46,0,2,,,,,,,,1,,,45,0
50640,note_on,2,0,1,,,,,,,,0,,,71,110
50640,note_on,2,0,2,,,,,,,,1,,,44,110
50686,note_on,46,0,1,,,,,,,,0,,,71,0
50686,note_on,46,0,2,,,,,,,,1,,,44,0
50688,note_on,2,0,1,,,,,,,,0,,,72,110
50688,note_on,2,0,2,,,,,,,,1,,,45,110
50734,note_on,46,0,1,,,,,,,,0,,,72,0
50736,note_on,2,0,1,,,,,,,,0,,,69,110
50782,note_on,94,0,2,,,,,,,,1,,,45,0
50782,note_on,46,0,1,,,,,,,,0,,,69,0
50784,note_on,2,0,2,,,,,,,,1,,,57,110
50784,note_on,2,0,1,,,,,,,,0,,,72,110
50830,note_on,46,0,1,,,,,,,,0,,,72,0
50830,note_on,46,0,2,,,,,,,,1,,,57,0
50832,note_on,2,0,1,,,,,,,,0,,,76,110
50832,note_on,2,0,2,,,,,,,,1,,,59,110
50878,note_on,46,0,2,,,,,,,,1,,,59,0
50878,note_on,46,0,1,,,,,,,,0,,,76,0
50880,note_on,2,0,2,,,,,,,,1,,,60,110
50880,note_on,2,0,1,,,,,,,,0,,,81,110
50926,note_on,46,0,1,,,,,,,,0,,,81,0
50928,note_on,2,0,1,,,,,,,,0,,,79,110
50974,note_on,46,0,1,,,,,,,,0,,,79,0
50974,note_on,94,0,2,,,,,,,,1,,,60,0
50976,note_on,0,0,2,,,,,,,,1,,,57,110
50976,note_on,0,0,2,,,,,,,,1,,,48,110
50976,note_on,2,0,2,,,,,,,,1,,,45,110
50976,note_on,2,0,1,,,,,,,,0,,,77,110
51022,note_on,46,0,1,,,,,,,,0,,,77,0
51024,note_on,2,0,1,,,,,,,,0,,,76,110
51070,note_on,46,0,1,,,,,,,,0,,,76,0
51070,note_on,94,0,2,,,,,,,,1,,,57,0
51070,note_on,0,0,2,,,,,,,,1,,,45,0
51070,note_on,0,0,2,,,,,,,,1,,,48,0
51072,note_on,2,0,2,,,,,,,,1,,,50,110
51072,note_on,2,0,1,,,,,,,,0,,,77,110
51072,note_on,0,0,2,,,,,,,,1,,,57,110
51118,note_on,46,0,1,,,,,,,,0,,,77,0
51120,note_on,2,0,1,,,,,,,,0,,,74,110
51166,note_on,46,0,1,,,,,,,,0,,,74,0
51166,note_on,0,0,2,,,,,,,,1,,,50,0
51166,note_on,94,0,2,,,,,,,,1,,,57,0
51168,note_on,2,0,1,,,,,,,,0,,,69,110
51168,note_on,2,0,2,,,,,,,,1,,,53,110
51214,note_on,46,0,1,,,,,,,,0,,,69,0
51216,note_on,2,0,1,,,,,,,,0,,,74,110
51262,note_on,46,0,1,,,,,,,,0,,,74,0
51262,note_on,94,0,2,,,,,,,,1,,,53,0
51264,note_on,2,0,2,,,,,,,,1,,,57,110
51264,note_on,2,0,1,,,,,,,,0,,,78,110
51310,note_on,46,0,1,,,,,,,,0,,,78,0
51312,note_on,2,0,1,,,,,,,,0,,,79,110
51358,note_on,94,0,2,,,,,,,,1,,,57,0
51358,note_on,46,0,1,,,,,,,,0,,,79,0
51360,note_on,2,0,1,,,,,,,,0,,,76,110
51360,note_on,2,0,2,,,,,,,,1,,,48,110
51406,note_on,46,0,1,,,,,,,,0,,,76,0
51408,note_on,2,0,1,,,,,,,,0,,,78,110
51454,note_on,46,0,1,,,,,,,,0,,,78,0
51454,note_on,94,0,2,,,,,,,,1,,,48,0
51456,note_on,2,0,1,,,,,,,,0,,,79,110
51456,note_on,2,0,2,,,,,,,,1,,,47,110
51502,note_on,46,0,1,,,,,,,,0,,,79,0
51504,note_on,2,0,1,,,,,,,,0,,,74,110
51550,note_on,46,0,1,,,,,,,,0,,,74,0
51550,note_on,94,0,2,,,,,,,,1,,,47,0
51552,note_on,2,0,2,,,,,,,,1,,,55,110
51552,note_on,2,0,1,,,,,,,,0,,,71,110
51598,note_on,46,0,2,,,,,,,,1,,,55,0
51598,note_on,46,0,1,,,,,,,,0,,,71,0
51600,note_on,2,0,1,,,,,,,,0,,,74,110
51600,note_on,2,0,2,,,,,,,,1,,,57,110
51646,note_on,46,0,1,,,,,,,,0,,,74,0
51646,note_on,46,0,2,,,,,,,,1,,,57,0
51648,note_on,2,0,2,,,,,,,,1,,,59,110
51648,note_on,2,0,1,,,,,,,,0,,,80,110
51648,note_on,2018,0,10,,,,,,,,10,,,71,92
51694,note_on,46,0,1,,,,,,,,0,,,80,0
51696,note_on,2,0,1,,,,,,,,0,,,81,110
51742,note_on,46,0,1,,,,,,,,0,,,81,0
51742,note_on,94,0,2,,,,,,,,1,,,59,0
51744,note_on,0,0,2,,,,,,,,1,,,59,110
51744,note_on,2,0,2,,,,,,,,1,,,50,110
51744,note_on,2114,0,12,,,,,,,,12,,,52,92
51744,note_on,2,0,1,,,,,,,,0,,,78,110
51790,note_on,46,0,1,,,,,,,,0,,,78,0
51792,note_on,2,0,1,,,,,,,,0,,,80,110
51808,note_on,160,0,10,,,,,,,,10,,,71,0
51838,note_on,94,0,12,,,,,,,,12,,,52,0
51838,note_on,0,0,2,,,,,,,,1,,,50,0
51838,note_on,94,0,2,,,,,,,,1,,,59,0
51838,note_on,46,0,1,,,,,,,,0,,,80,0
51840,note_on,2210,0,5,,,,,,,,4,,,74,110
51840,note_on,2,0,12,,,,,,,,12,,,57,92
51840,note_on,0,0,2,,,,,,,,1,,,52,110
51840,note_on,32,0,10,,,,,,,,10,,,72,92
51840,note_on,2,0,2,,,,,,,,1,,,48,110
51840,note_on,2210,0,6,,,,,,,,5,,,57,110
51840,note_on,2,0,1,,,,,,,,0,,,81,110
51862,note_on,22,0,5,,,,,,,,4,,,74,0
51864,note_on,2,0,5,,,,,,,,4,,,72,110
51886,note_on,22,0,5,,,,,,,,4,,,72,0
51886,note_on,46,0,1,,,,,,,,0,,,81,0
51888,note_on,2,0,5,,,,,,,,4,,,74,110
51888,note_on,2,0,1,,,,,,,,0,,,76,110
51910,note_on,22,0,5,,,,,,,,4,,,74,0
51912,note_on,2,0,5,,,,,,,,4,,,72,110
51934,note_on,0,0,2,,,,,,,,1,,,48,0
51934,note_on,94,0,2,,,,,,,,1,,,52,0
51934,note_on,94,0,12,,,,,,,,12,,,57,0
51934,note_on,46,0,1,,,,,,,,0,,,76,0
51934,note_on,22,0,5,,,,,,,,4,,,72,0
51934,note_on,94,0,6,,,,,,,,5,,,57,0
51936,note_on,2,0,1,,,,,,,,0,,,72,110
51936,note_on,2,0,12,,,,,,,,12,,,45,92
51936,note_on,2306,0,4,,,,,,,,3,,,52,110
51936,note_on,2306,0,11,,,,,,,,11,,,64,92
51936,note_on,2,0,5,,,,,,,,4,,,74,110
51936,note_on,2,0,2,,,,,,,,1,,,64,110
51936,note_on,2,0,6,,,,,,,,5,,,45,110
51958,note_on,22,0,5,,,,,,,,4,,,74,0
51960,note_on,2,0,5,,,,,,,,4,,,72,110
51982,note_on,46,0,1,,,,,,,,0,,,72,0
51982,note_on,22,0,5,,,,,,,,4,,,72,0
51984,note_on,2,0,1,,,,,,,,0,,,81,110
51984,note_on,2,0,5,,,,,,,,4,,,74,110
52006,note_on,22,0,5,,,,,,,,4,,,74,0
52008,note_on,2,0,5,,,,,,,,4,,,72,110
52030,note_on,94,0,12,,,,,,,,12,,,45,0
52030,note_on,22,0,5,,,,,,,,4,,,72,0
52030,note_on,94,0,2,,,,,,,,1,,,64,0
52030,note_on,94,0,4,,,,,,,,3,,,52,0
52030,note_on,94,0,11,,,,,,,,11,,,64,0
52030,note_on,94,0,6,,,,,,,,5,,,45,0
52030,note_on,46,0,1,,,,,,,,0,,,81,0
52032,note_on,2,0,4,,,,,,,,3,,,57,110
52032,note_on,2402,0,3,,,,,,,,2,,,76,110
52032,note_on,2,0,5,,,,,,,,4,,,74,110
52032,note_on,2,0,11,,,,,,,,11,,,60,92
52032,note_on,2,0,2,,,,,,,,1,,,60,110
52032,note_on,2,0,1,,,,,,,,0,,,81,110
52032,note_on,2402,0,9,,,,,,,,8,,,76,92
52054,note_on,22,0,5,,,,,,,,4,,,74,0
52056,note_on,2,0,5,,,,,,,,4,,,72,110
52078,note_on,22,0,5,,,,,,,,4,,,72,0
52078,note_on,46,0,1,,,,,,,,0,,,81,0
52080,note_on,2,0,1,,,,,,,,0,,,76,110
52080,note_on,2,0,5,,,,,,,,4,,,74,110
52080,note_on,2450,0,8,,,,,,,,7,,,60,110
52102,note_on,22,0,5,,,,,,,,4,,,74,0
52104,note_on,2,0,5,,,,,,,,4,,,72,110
52126,note_on,46,0,8,,,,,,,,7,,,60,0
52126,note_on,94,0,11,,,,,,,,11,,,60,0
52126,note_on,94,0,2,,,,,,,,1,,,60,0
52126,note_on,94,0,4,,,,,,,,3,,,57,0
52126,note_on,22,0,5,,,,,,,,4,,,72,0
52126,note_on,46,0,1,,,,,,,,0,,,76,0
52128,note_on,2,0,8,,,,,,,,7,,,57,110
52128,note_on,2,0,5,,,,,,,,4,,,74,110
52128,note_on,98,0,6,,,,,,,,5,,,45,110
52128,note_on,2,0,4,,,,,,,,3,,,45,110
52128,note_on,98,0,12,,,,,,,,12,,,45,92
52128,note_on,2,0,2,,,,,,,,1,,,57,110
52128,note_on,2,0,11,,,,,,,,11,,,57,92
52128,note_on,2,0,1,,,,,,,,0,,,72,110
52150,note_on,22,0,5,,,,,,,,4,,,74,0
52152,note_on,2,0,5,,,,,,,,4,,,72,110
52174,note_on,46,0,8,,,,,,,,7,,,57,0
52174,note_on,22,0,5,,,,,,,,4,,,72,0
52174,note_on,46,0,1,,,,,,,,0,,,72,0
52176,note_on,2,0,1,,,,,,,,0,,,81,110
52176,note_on,2,0,8,,,,,,,,7,,,60,110
52176,note_on,2,0,5,,,,,,,,4,,,74,110
52192,note_on,160,0,3,,,,,,,,2,,,76,0
52192,note_on,160,0,9,,,,,,,,8,,,76,0
52198,note_on,22,0,5,,,,,,,,4,,,74,0
52200,note_on,2,0,5,,,,,,,,4,,,72,110
52222,note_on,22,0,5,,,,,,,,4,,,72,0
52222,note_on,46,0,8,,,,,,,,7,,,60,0
52222,note_on,94,0,6,,,,,,,,5,,,45,0
52222,note_on,94,0,2,,,,,,,,1,,,57,0
52222,note_on,94,0,4,,,,,,,,3,,,45,0
52222,note_on,46,0,1,,,,,,,,0,,,81,0
52222,note_on,94,0,12,,,,,,,,12,,,45,0
52222,note_on,94,0,11,,,,,,,,11,,,57,0
52224,note_on,2,0,2,,,,,,,,1,,,65,110
52224,note_on,32,0,9,,,,,,,,8,,,77,92
52224,note_on,2,0,5,,,,,,,,4,,,74,110
52224,note_on,2,0,6,,,,,,,,5,,,50,110
52224,note_on,32,0,3,,,,,,,,2,,,79,110
52224,note_on,2,0,1,,,,,,,,0,,,81,110
52224,note_on,2,0,8,,,,,,,,7,,,62,110
52224,note_on,2594,0,7,,,,,,,,6,,,74,110
52224,note_on,2,0,12,,,,,,,,12,,,50,92
52246,note_on,22,0,3,,,,,,,,2,,,79,0
52246,note_on,22,0,5,,,,,,,,4,,,74,0
52248,note_on,2,0,3,,,,,,,,2,,,77,110
52248,note_on,2,0,5,,,,,,,,4,,,72,110
52270,note_on,22,0,5,,,,,,,,4,,,72,0
52270,note_on,46,0,2,,,,,,,,1,,,65,0
52270,note_on,22,0,3,,,,,,,,2,,,77,0
52270,note_on,46,0,7,,,,,,,,6,,,74,0
52272,note_on,2,0,2,,,,,,,,1,,,64,110
52272,note_on,2,0,3,,,,,,,,2,,,79,110
52272,note_on,2,0,5,,,,,,,,4,,,74,110
52272,note_on,2,0,7,,,,,,,,6,,,69,110
52294,note_on,22,0,3,,,,,,,,2,,,79,0
52294,note_on,22,0,5,,,,,,,,4,,,74,0
52296,note_on,2,0,3,,,,,,,,2,,,77,110
52296,note_on,2,0,5,,,,,,,,4,,,72,110
52318,note_on,46,0,7,,,,,,,,6,,,69,0
52318,note_on,22,0,3,,,,,,,,2,,,77,0
52318,note_on,94,0,12,,,,,,,,12,,,50,0
52318,note_on,46,0,2,,,,,,,,1,,,64,0
52318,note_on,22,0,5,,,,,,,,4,,,72,0
52318,note_on,94,0,6,,,,,,,,5,,,50,0
52318,note_on,94,0,1,,,,,,,,0,,,81,0
52318,note_on,94,0,8,,,,,,,,7,,,62,0
52320,note_on,2,0,7,,,,,,,,6,,,65,110
52320,note_on,2,0,12,,,,,,,,12,,,38,92
52320,note_on,2,0,2,,,,,,,,1,,,65,110
52320,note_on,2,0,5,,,,,,,,4,,,74,110
52320,note_on,2,0,6,,,,,,,,5,,,38,110
52320,note_on,98,0,11,,,,,,,,11,,,57,92
52320,note_on,2,0,1,,,,,,,,0,,,74,110
52320,note_on,2,0,3,,,,,,,,2,,,79,110
52320,note_on,98,0,4,,,,,,,,3,,,57,110
52320,note_on,2,0,8,,,,,,,,7,,,57,110
52342,note_on,22,0,3,,,,,,,,2,,,79,0
52342,note_on,22,0,5,,,,,,,,4,,,74,0
52344,note_on,2,0,3,,,,,,,,2,,,77,110
52344,note_on,2,0,5,,,,,,,,4,,,72,110
52366,note_on,46,0,7,,,,,,,,6,,,65,0
52366,note_on,22,0,3,,,,,,,,2,,,77,0
52366,note_on,22,0,5,,,,,,,,4,,,72,0
52368,note_on,2,0,7,,,,,,,,6,,,74,110
52368,note_on,2,0,3,,,,,,,,2,,,79,110
52368,note_on,2,0,5,,,,,,,,4,,,74,110
52390,note_on,22,0,5,,,,,,,,4,,,74,0
52390,note_on,22,0,3,,,,,,,,2,,,79,0
52392,note_on,2,0,5,,,,,,,,4,,,72,110
52392,note_on,2,0,3,,,,,,,,2,,,77,110
52414,note_on,22,0,5,,,,,,,,4,,,72,0
52414,note_on,94,0,8,,,,,,,,7,,,57,0
52414,note_on,46,0,7,,,,,,,,6,,,74,0
52414,note_on,94,0,6,,,,,,,,5,,,38,0
52414,note_on,94,0,1,,,,,,,,0,,,74,0
52414,note_on,22,0,3,,,,,,,,2,,,77,0
52414,note_on,94,0,4,,,,,,,,3,,,57,0
52414,note_on,94,0,12,,,,,,,,12,,,38,0
52414,note_on,94,0,2,,,,,,,,1,,,65,0
52414,note_on,94,0,11,,,,,,,,11,,,57,0
52416,note_on,2,0,3,,,,,,,,2,,,79,110
52416,note_on,2,0,5,,,,,,,,4,,,74,110
52416,note_on,2,0,8,,,,,,,,7,,,53,110
52416,note_on,2,0,7,,,,,,,,6,,,74,110
52416,note_on,2,0,4,,,,,,,,3,,,62,110
52416,note_on,2,0,11,,,,,,,,11,,,62,92
52416,note_on,2,0,1,,,,,,,,0,,,77,110
52438,note_on,22,0,5,,,,,,,,4,,,74,0
52438,note_on,22,0,3,,,,,,,,2,,,79,0
52440,note_on,2,0,3,,,,,,,,2,,,77,110
52440,note_on,2,0,5,,,,,,,,4,,,72,110
52462,note_on,22,0,5,,,,,,,,4,,,72,0
52462,note_on,22,0,3,,,,,,,,2,,,77,0
52462,note_on,46,0,7,,,,,,,,6,,,74,0
52464,note_on,2,0,3,,,,,,,,2,,,79,110
52464,note_on,2,0,7,,,,,,,,6,,,69,110
52464,note_on,2,0,5,,,,,,,,4,,,74,110
52486,note_on,22,0,5,,,,,,,,4,,,74,0
52486,note_on,22,0,3,,,,,,,,2,,,79,0
52488,note_on,2,0,5,,,,,,,,4,,,72,110
52488,note_on,2,0,3,,,,,,,,2,,,77,110
52510,note_on,94,0,4,,,,,,,,3,,,62,0
52510,note_on,22,0,5,,,,,,,,4,,,72,0
52510,note_on,94,0,1,,,,,,,,0,,,77,0
52510,note_on,94,0,11,,,,,,,,11,,,62,0
52510,note_on,46,0,7,,,,,,,,6,,,69,0
52510,note_on,22,0,3,,,,,,,,2,,,77,0
52510,note_on,94,0,8,,,,,,,,7,,,53,0
52512,note_on,2,0,1,,,,,,,,0,,,81,110
52512,note_on,2,0,8,,,,,,,,7,,,50,110
52512,note_on,98,0,2,,,,,,,,1,,,67,110
52512,note_on,98,0,12,,,,,,,,12,,,50,92
52512,note_on,2,0,5,,,,,,,,4,,,74,110
52512,note_on,2,0,4,,,,,,,,3,,,50,110
52512,note_on,98,0,6,,,,,,,,5,,,50,110
52512,note_on,2,0,7,,,,,,,,6,,,65,110
52512,note_on,2,0,3,,,,,,,,2,,,79,110
52512,note_on,2,0,11,,,,,,,,11,,,65,92
52534,note_on,22,0,3,,,,,,,,2,,,79,0
52534,note_on,22,0,2,,,,,,,,1,,,67,0
52534,note_on,22,0,5,,,,,,,,4,,,74,0
52536,note_on,2,0,3,,,,,,,,2,,,77,110
52536,note_on,2,0,2,,,,,,,,1,,,65,110
52536,note_on,2,0,5,,,,,,,,4,,,72,110
52558,note_on,22,0,3,,,,,,,,2,,,77,0
52558,note_on,46,0,7,,,,,,,,6,,,65,0
52558,note_on,22,0,2,,,,,,,,1,,,65,0
52558,note_on,22,0,5,,,,,,,,4,,,72,0
52560,note_on,2,0,5,,,,,,,,4,,,74,110
52560,note_on,2,0,2,,,,,,,,1,,,67,110
52560,note_on,2,0,3,,,,,,,,2,,,79,110
52560,note_on,720,0,10,,,,,,,,10,,,72,0
52560,note_on,2,0,7,,,,,,,,6,,,74,110
52582,note_on,22,0,3,,,,,,,,2,,,79,0
52582,note_on,22,0,2,,,,,,,,1,,,67,0
52582,note_on,22,0,5,,,,,,,,4,,,74,0
52584,note_on,2,0,3,,,,,,,,2,,,77,110
52584,note_on,2,0,5,,,,,,,,4,,,72,110
52584,note_on,2,0,2,,,,,,,,1,,,65,110
52606,note_on,22,0,3,,,,,,,,2,,,77,0
52606,note_on,22,0,5,,,,,,,,4,,,72,0
52606,note_on,94,0,6,,,,,,,,5,,,50,0
52606,note_on,46,0,7,,,,,,,,6,,,74,0
52606,note_on,94,0,8,,,,,,,,7,,,50,0
52606,note_on,94,0,4,,,,,,,,3,,,50,0
52606,note_on,94,0,11,,,,,,,,11,,,65,0
52606,note_on,22,0,2,,,,,,,,1,,,65,0
52606,note_on,94,0,1,,,,,,,,0,,,81,0
52606,note_on,94,0,12,,,,,,,,12,,,50,0
52608,note_on,2,0,3,,,,,,,,2,,,79,110
52608,note_on,48,0,10,,,,,,,,10,,,71,92
52608,note_on,2,0,7,,,,,,,,6,,,74,110
52608,note_on,2,0,2,,,,,,,,1,,,67,110
52608,note_on,2,0,1,,,,,,,,0,,,79,110
52608,note_on,2,0,6,,,,,,,,5,,,55,110
52608,note_on,2,0,5,,,,,,,,4,,,72,110
52608,note_on,2,0,8,,,,,,,,7,,,59,110
52608,note_on,2,0,12,,,,,,,,12,,,55,92
52630,note_on,22,0,5,,,,,,,,4,,,72,0
52630,note_on,22,0,3,,,,,,,,2,,,79,0
52632,note_on,2,0,5,,,,,,,,4,,,71,110
52632,note_on,2,0,3,,,,,,,,2,,,77,110
52654,note_on,46,0,8,,,,,,,,7,,,59,0
52654,note_on,46,0,1,,,,,,,,0,,,79,0
52654,note_on,22,0,5,,,,,,,,4,,,71,0
52654,note_on,22,0,3,,,,,,,,2,,,77,0
52656,note_on,2,0,3,,,,,,,,2,,,79,110
52656,note_on,2,0,5,,,,,,,,4,,,72,110
52656,note_on,2,0,1,,,,,,,,0,,,74,110
52656,note_on,2,0,8,,,,,,,,7,,,57,110
52678,note_on,22,0,5,,,,,,,,4,,,72,0
52678,note_on,22,0,3,,,,,,,,2,,,79,0
52680,note_on,2,0,3,,,,,,,,2,,,77,110
52680,note_on,2,0,5,,,,,,,,4,,,71,110
52702,note_on,22,0,5,,,,,,,,4,,,71,0
52702,note_on,22,0,3,,,,,,,,2,,,77,0
52702,note_on,94,0,6,,,,,,,,5,,,55,0
52702,note_on,46,0,1,,,,,,,,0,,,74,0
52702,note_on,94,0,2,,,,,,,,1,,,67,0
52702,note_on,94,0,7,,,,,,,,6,,,74,0
52702,note_on,46,0,8,,,,,,,,7,,,57,0
52702,note_on,94,0,12,,,,,,,,12,,,55,0
52704,note_on,98,0,4,,,,,,,,3,,,50,110
52704,note_on,2,0,6,,,,,,,,5,,,43,110
52704,note_on,2,0,1,,,,,,,,0,,,71,110
52704,note_on,98,0,11,,,,,,,,11,,,62,92
52704,note_on,2,0,8,,,,,,,,7,,,59,110
52704,note_on,2,0,7,,,,,,,,6,,,67,110
52704,note_on,2,0,12,,,,,,,,12,,,43,92
52704,note_on,2,0,2,,,,,,,,1,,,62,110
52704,note_on,2,0,5,,,,,,,,4,,,72,110
52704,note_on,2,0,3,,,,,,,,2,,,79,110
52726,note_on,22,0,3,,,,,,,,2,,,79,0
52726,note_on,22,0,5,,,,,,,,4,,,72,0
52728,note_on,2,0,3,,,,,,,,2,,,77,110
52728,note_on,2,0,5,,,,,,,,4,,,71,110
52750,note_on,46,0,1,,,,,,,,0,,,71,0
52750,note_on,22,0,5,,,,,,,,4,,,71,0
52750,note_on,22,0,3,,,,,,,,2,,,77,0
52752,note_on,2,0,1,,,,,,,,0,,,79,110
52752,note_on,2,0,5,,,,,,,,4,,,72,110
52752,note_on,2,0,3,,,,,,,,2,,,79,110
52774,note_on,22,0,3,,,,,,,,2,,,79,0
52774,note_on,22,0,5,,,,,,,,4,,,72,0
52776,note_on,2,0,5,,,,,,,,4,,,71,110
52776,note_on,2,0,3,,,,,,,,2,,,77,110
52798,note_on,94,0,11,,,,,,,,11,,,62,0
52798,note_on,94,0,7,,,,,,,,6,,,67,0
52798,note_on,94,0,12,,,,,,,,12,,,43,0
52798,note_on,94,0,8,,,,,,,,7,,,59,0
52798,note_on,22,0,5,,,,,,,,4,,,71,0
52798,note_on,22,0,3,,,,,,,,2,,,77,0
52798,note_on,46,0,1,,,,,,,,0,,,79,0
52798,note_on,94,0,4,,,,,,,,3,,,50,0
52798,note_on,94,0,2,,,,,,,,1,,,62,0
52798,note_on,94,0,6,,,,,,,,5,,,43,0
52800,note_on,2,0,2,,,,,,,,1,,,59,110
52800,note_on,2,0,7,,,,,,,,6,,,71,110
52800,note_on,2,0,11,,,,,,,,11,,,59,92
52800,note_on,2,0,4,,,,,,,,3,,,55,110
52800,note_on,2,0,3,,,,,,,,2,,,79,110
52800,note_on,2,0,5,,,,,,,,4,,,72,110
52800,note_on,2,0,1,,,,,,,,0,,,79,110
52822,note_on,22,0,3,,,,,,,,2,,,79,0
52822,note_on,22,0,5,,,,,,,,4,,,72,0
52824,note_on,2,0,3,,,,,,,,2,,,77,110
52824,note_on,2,0,5,,,,,,,,4,,,71,110
52846,note_on,46,0,1,,,,,,,,0,,,79,0
52846,note_on,22,0,3,,,,,,,,2,,,77,0
52846,note_on,22,0,5,,,,,,,,4,,,71,0
52848,note_on,2,0,1,,,,,,,,0,,,74,110
52848,note_on,2,0,3,,,,,,,,2,,,79,110
52848,note_on,2,0,5,,,,,,,,4,,,72,110
52870,note_on,22,0,5,,,,,,,,4,,,72,0
52870,note_on,22,0,3,,,,,,,,2,,,79,0
52872,note_on,2,0,3,,,,,,,,2,,,77,110
52872,note_on,2,0,5,,,,,,,,4,,,71,110
52894,note_on,22,0,3,,,,,,,,2,,,77,0
52894,note_on,94,0,11,,,,,,,,11,,,59,0
52894,note_on,94,0,4,,,,,,,,3,,,55,0
52894,note_on,94,0,7,,,,,,,,6,,,71,0
52894,note_on,94,0,2,,,,,,,,1,,,59,0
52894,note_on,46,0,1,,,,,,,,0,,,74,0
52894,note_on,22,0,5,,,,,,,,4,,,71,0
52896,note_on,98,0,8,,,,,,,,7,,,60,110
52896,note_on,2,0,4,,,,,,,,3,,,43,110
52896,note_on,2,0,2,,,,,,,,1,,,55,110
52896,note_on,98,0,6,,,,,,,,5,,,43,110
52896,note_on,2,0,11,,,,,,,,11,,,55,92
52896,note_on,2,0,3,,,,,,,,2,,,79,110
52896,note_on,98,0,12,,,,,,,,12,,,43,92
52896,note_on,2,0,5,,,,,,,,4,,,72,110
52896,note_on,2,0,7,,,,,,,,6,,,74,110
52896,note_on,2,0,1,,,,,,,,0,,,71,110
52918,note_on,22,0,3,,,,,,,,2,,,79,0
52918,note_on,22,0,8,,,,,,,,7,,,60,0
52918,note_on,22,0,5,,,,,,,,4,,,72,0
52920,note_on,2,0,8,,,,,,,,7,,,59,110
52920,note_on,2,0,5,,,,,,,,4,,,71,110
52920,note_on,2,0,3,,,,,,,,2,,,77,110
52942,note_on,22,0,8,,,,,,,,7,,,59,0
52942,note_on,22,0,3,,,,,,,,2,,,77,0
52942,note_on,22,0,5,,,,,,,,4,,,71,0
52942,note_on,46,0,1,,,,,,,,0,,,71,0
52944,note_on,2,0,1,,,,,,,,0,,,79,110
52944,note_on,2,0,8,,,,,,,,7,,,60,110
52944,note_on,2,0,3,,,,,,,,2,,,79,110
52944,note_on,720,0,9,,,,,,,,8,,,77,0
52944,note_on,2,0,5,,,,,,,,4,,,72,110
52966,note_on,22,0,8,,,,,,,,7,,,60,0
52966,note_on,22,0,3,,,,,,,,2,,,79,0
52966,note_on,22,0,5,,,,,,,,4,,,72,0
52968,note_on,2,0,5,,,,,,,,4,,,71,110
52968,note_on,2,0,3,,,,,,,,2,,,77,110
52968,note_on,2,0,8,,,,,,,,7,,,59,110
52990,note_on,94,0,6,,,,,,,,5,,,43,0
52990,note_on,94,0,12,,,,,,,,12,,,43,0
52990,note_on,22,0,8,,,,,,,,7,,,59,0
52990,note_on,94,0,11,,,,,,,,11,,,55,0
52990,note_on,94,0,7,,,,,,,,6,,,74,0
52990,note_on,94,0,2,,,,,,,,1,,,55,0
52990,note_on,22,0,3,,,,,,,,2,,,77,0
52990,note_on,22,0,5,,,,,,,,4,,,71,0
52990,note_on,46,0,1,,,,,,,,0,,,79,0
52990,note_on,94,0,4,,,,,,,,3,,,43,0
52992,note_on,2,0,2,,,,,,,,1,,,64,110
52992,note_on,2,0,12,,,,,,,,12,,,48,92
52992,note_on,2,0,8,,,,,,,,7,,,60,110
52992,note_on,2,0,5,,,,,,,,4,,,72,110
52992,note_on,2,0,3,,,,,,,,2,,,77,110
52992,note_on,2,0,1,,,,,,,,0,,,79,110
52992,note_on,2,0,7,,,,,,,,6,,,72,110
52992,note_on,48,0,9,,,,,,,,8,,,76,92
52992,note_on,2,0,6,,,,,,,,5,,,48,110
53014,note_on,22,0,3,,,,,,,,2,,,77,0
53014,note_on,22,0,5,,,,,,,,4,,,72,0
53016,note_on,2,0,3,,,,,,,,2,,,76,110
53016,note_on,2,0,5,,,,,,,,4,,,71,110
53038,note_on,46,0,7,,,,,,,,6,,,72,0
53038,note_on,46,0,2,,,,,,,,1,,,64,0
53038,note_on,22,0,3,,,,,,,,2,,,76,0
53038,note_on,22,0,5,,,,,,,,4,,,71,0
53040,note_on,2,0,5,,,,,,,,4,,,72,110
53040,note_on,2,0,3,,,,,,,,2,,,77,110
53040,note_on,2,0,7,,,,,,,,6,,,67,110
53040,note_on,2,0,2,,,,,,,,1,,,62,110
53062,note_on,22,0,3,,,,,,,,2,,,77,0
53062,note_on,22,0,5,,,,,,,,4,,,72,0
53064,note_on,2,0,3,,,,,,,,2,,,76,110
53064,note_on,2,0,5,,,,,,,,4,,,71,110
53086,note_on,94,0,1,,,,,,,,0,,,79,0
53086,note_on,46,0,7,,,,,,,,6,,,67,0
53086,note_on,22,0,3,,,,,,,,2,,,76,0
53086,note_on,94,0,12,,,,,,,,12,,,48,0
53086,note_on,94,0,8,,,,,,,,7,,,60,0
53086,note_on,22,0,5,,,,,,,,4,,,71,0
53086,note_on,94,0,6,,,,,,,,5,,,48,0
53086,note_on,46,0,2,,,,,,,,1,,,62,0
53088,note_on,2,0,8,,,,,,,,7,,,55,110
53088,note_on,2,0,12,,,,,,,,12,,,36,92
53088,note_on,98,0,4,,,,,,,,3,,,55,110
53088,note_on,2,0,3,,,,,,,,2,,,77,110
53088,note_on,2,0,6,,,,,,,,5,,,36,110
53088,note_on,98,0,11,,,,,,,,11,,,55,92
53088,note_on,2,0,2,,,,,,,,1,,,64,110
53088,note_on,2,0,1,,,,,,,,0,,,72,110
53088,note_on,2,0,7,,,,,,,,6,,,64,110
53088,note_on,2,0,5,,,,,,,,4,,,72,110
53110,note_on,22,0,5,,,,,,,,4,,,72,0
53110,note_on,22,0,3,,,,,,,,2,,,77,0
53112,note_on,2,0,5,,,,,,,,4,,,71,110
53112,note_on,2,0,3,,,,,,,,2,,,76,110
53134,note_on,22,0,3,,,,,,,,2,,,76,0
53134,note_on,46,0,7,,,,,,,,6,,,64,0
53134,note_on,22,0,5,,,,,,,,4,,,71,0
53136,note_on,2,0,7,,,,,,,,6,,,72,110
53136,note_on,2,0,5,,,,,,,,4,,,72,110
53136,note_on,2,0,3,,,,,,,,2,,,77,110
53158,note_on,22,0,5,,,,,,,,4,,,72,0
53158,note_on,22,0,3,,,,,,,,2,,,77,0
53160,note_on,2,0,5,,,,,,,,4,,,71,110
53160,note_on,2,0,3,,,,,,,,2,,,76,110
53182,note_on,46,0,7,,,,,,,,6,,,72,0
53182,note_on,22,0,3,,,,,,,,2,,,76,0
53182,note_on,94,0,12,,,,,,,,12,,,36,0
53182,note_on,94,0,11,,,,,,,,11,,,55,0
53182,note_on,94,0,2,,,,,,,,1,,,64,0
53182,note_on,94,0,6,,,,,,,,5,,,36,0
53182,note_on,94,0,4,,,,,,,,3,,,55,0
53182,note_on,22,0,5,,,,,,,,4,,,71,0
53182,note_on,94,0,1,,,,,,,,0,,,72,0
53182,note_on,94,0,8,,,,,,,,7,,,55,0
53184,note_on,2,0,11,,,,,,,,11,,,60,92
53184,note_on,2,0,5,,,,,,,,4,,,72,110
53184,note_on,2,0,3,,,,,,,,2,,,77,110
53184,note_on,2,0,1,,,,,,,,0,,,76,110
53184,note_on,2,0,7,,,,,,,,6,,,72,110
53184,note_on,2,0,4,,,,,,,,3,,,60,110
53184,note_on,2,0,8,,,,,,,,7,,,52,110
53206,note_on,22,0,5,,,,,,,,4,,,72,0
53206,note_on,22,0,3,,,,,,,,2,,,77,0
53208,note_on,2,0,5,,,,,,,,4,,,71,110
53208,note_on,2,0,3,,,,,,,,2,,,76,110
53230,note_on,22,0,5,,,,,,,,4,,,71,0
53230,note_on,22,0,3,,,,,,,,2,,,76,0
53230,note_on,46,0,7,,,,,,,,6,,,72,0
53232,note_on,2,0,3,,,,,,,,2,,,77,110
53232,note_on,2,0,5,,,,,,,,4,,,72,110
53232,note_on,2,0,7,,,,,,,,6,,,67,110
53254,note_on,22,0,3,,,,,,,,2,,,77,0
53254,note_on,22,0,5,,,,,,,,4,,,72,0
53256,note_on,2,0,3,,,,,,,,2,,,76,110
53256,note_on,2,0,5,,,,,,,,4,,,71,110
53278,note_on,22,0,5,,,,,,,,4,,,71,0
53278,note_on,46,0,7,,,,,,,,6,,,67,0
53278,note_on,94,0,4,,,,,,,,3,,,60,0
53278,note_on,22,0,3,,,,,,,,2,,,76,0
53278,note_on,94,0,11,,,,,,,,11,,,60,0
53278,note_on,94,0,8,,,,,,,,7,,,52,0
53278,note_on,94,0,1,,,,,,,,0,,,76,0
53280,note_on,2,0,4,,,,,,,,3,,,48,110
53280,note_on,98,0,2,,,,,,,,1,,,65,110
53280,note_on,98,0,6,,,,,,,,5,,,48,110
53280,note_on,2,0,8,,,,,,,,7,,,48,110
53280,note_on,2,0,5,,,,,,,,4,,,72,110
53280,note_on,2,0,1,,,,,,,,0,,,79,110
53280,note_on,2,0,7,,,,,,,,6,,,64,110
53280,note_on,2,0,3,,,,,,,,2,,,77,110
53280,note_on,2,0,11,,,,,,,,11,,,64,92
53280,note_on,98,0,12,,,,,,,,12,,,48,92
53302,note_on,22,0,3,,,,,,,,2,,,77,0
53302,note_on,22,0,2,,,,,,,,1,,,65,0
53302,note_on,22,0,5,,,,,,,,4,,,72,0
53304,note_on,2,0,2,,,,,,,,1,,,64,110
53304,note_on,2,0,3,,,,,,,,2,,,76,110
53304,note_on,2,0,5,,,,,,,,4,,,71,110
53326,note_on,22,0,3,,,,,,,,2,,,76,0
53326,note_on,22,0,5,,,,,,,,4,,,71,0
53326,note_on,22,0,2,,,,,,,,1,,,64,0
53326,note_on,46,0,7,,,,,,,,6,,,64,0
53328,note_on,2,0,2,,,,,,,,1,,,65,110
53328,note_on,2,0,7,,,,,,,,6,,,72,110
53328,note_on,2,0,3,,,,,,,,2,,,77,110
53328,note_on,2,0,5,,,,,,,,4,,,72,110
53328,note_on,720,0,10,,,,,,,,10,,,71,0
53350,note_on,22,0,2,,,,,,,,1,,,65,0
53350,note_on,22,0,3,,,,,,,,2,,,77,0
53350,note_on,22,0,5,,,,,,,,4,,,72,0
53352,note_on,2,0,3,,,,,,,,2,,,76,110
53352,note_on,2,0,5,,,,,,,,4,,,71,110
53352,note_on,2,0,2,,,,,,,,1,,,64,110
53374,note_on,22,0,3,,,,,,,,2,,,76,0
53374,note_on,94,0,6,,,,,,,,5,,,48,0
53374,note_on,22,0,5,,,,,,,,4,,,71,0
53374,note_on,46,0,7,,,,,,,,6,,,72,0
53374,note_on,22,0,2,,,,,,,,1,,,64,0
53374,note_on,94,0,1,,,,,,,,0,,,79,0
53374,note_on,94,0,4,,,,,,,,3,,,48,0
53374,note_on,94,0,12,,,,,,,,12,,,48,0
53374,note_on,94,0,8,,,,,,,,7,,,48,0
53374,note_on,94,0,11,,,,,,,,11,,,64,0
53376,note_on,2,0,8,,,,,,,,7,,,57,110
53376,note_on,2,0,3,,,,,,,,2,,,77,110
53376,note_on,2,0,7,,,,,,,,6,,,72,110
53376,note_on,2,0,1,,,,,,,,0,,,77,110
53376,note_on,2,0,12,,,,,,,,12,,,53,92
53376,note_on,2,0,5,,,,,,,,4,,,71,110
53376,note_on,2,0,6,,,,,,,,5,,,53,110
53376,note_on,2,0,2,,,,,,,,1,,,65,110
53376,note_on,48,0,10,,,,,,,,10,,,69,92
53398,note_on,22,0,5,,,,,,,,4,,,71,0
53398,note_on,22,0,3,,,,,,,,2,,,77,0
53400,note_on,2,0,3,,,,,,,,2,,,76,110
53400,note_on,2,0,5,,,,,,,,4,,,69,110
53422,note_on,22,0,5,,,,,,,,4,,,69,0
53422,note_on,22,0,3,,,,,,,,2,,,76,0
53422,note_on,46,0,8,,,,,,,,7,,,57,0
53422,note_on,46,0,1,,,,,,,,0,,,77,0
53424,note_on,2,0,3,,,,,,,,2,,,77,110
53424,note_on,2,0,1,,,,,,,,0,,,72,110
53424,note_on,2,0,8,,,,,,,,7,,,56,110
53424,note_on,2,0,5,,,,,,,,4,,,71,110
53446,note_on,22,0,5,,,,,,,,4,,,71,0
53446,note_on,22,0,3,,,,,,,,2,,,77,0
53448,note_on,2,0,5,,,,,,,,4,,,69,110
53448,note_on,2,0,3,,,,,,,,2,,,76,110
53470,note_on,22,0,5,,,,,,,,4,,,69,0
53470,note_on,46,0,8,,,,,,,,7,,,56,0
53470,note_on,46,0,1,,,,,,,,0,,,72,0
53470,note_on,94,0,7,,,,,,,,6,,,72,0
53470,note_on,22,0,3,,,,,,,,2,,,76,0
53470,note_on,94,0,6,,,,,,,,5,,,53,0
53470,note_on,94,0,12,,,,,,,,12,,,53,0
53470,note_on,94,0,2,,,,,,,,1,,,65,0
53472,note_on,2,0,7,,,,,,,,6,,,65,110
53472,note_on,98,0,4,,,,,,,,3,,,48,110
53472,note_on,2,0,1,,,,,,,,0,,,69,110
53472,note_on,98,0,11,,,,,,,,11,,,60,92
53472,note_on,2,0,8,,,,,,,,7,,,57,110
53472,note_on,2,0,12,,,,,,,,12,,,41,92
53472,note_on,2,0,6,,,,,,,,5,,,41,110
53472,note_on,2,0,3,,,,,,,,2,,,77,110
53472,note_on,2,0,5,,,,,,,,4,,,71,110
53472,note_on,2,0,2,,,,,,,,1,,,60,110
53494,note_on,22,0,5,,,,,,,,4,,,71,0
53494,note_on,22,0,3,,,,,,,,2,,,77,0
53496,note_on,2,0,3,,,,,,,,2,,,76,110
53496,note_on,2,0,5,,,,,,,,4,,,69,110
53518,note_on,22,0,3,,,,,,,,2,,,76,0
53518,note_on,46,0,1,,,,,,,,0,,,69,0
53518,note_on,22,0,5,,,,,,,,4,,,69,0
53520,note_on,2,0,5,,,,,,,,4,,,71,110
53520,note_on,2,0,3,,,,,,,,2,,,77,110
53520,note_on,2,0,1,,,,,,,,0,,,77,110
53542,note_on,22,0,3,,,,,,,,2,,,77,0
53542,note_on,22,0,5,,,,,,,,4,,,71,0
53544,note_on,2,0,5,,,,,,,,4,,,69,110
53544,note_on,2,0,3,,,,,,,,2,,,76,110
53566,note_on,94,0,6,,,,,,,,5,,,41,0
53566,note_on,94,0,11,,,,,,,,11,,,60,0
53566,note_on,94,0,4,,,,,,,,3,,,48,0
53566,note_on,94,0,2,,,,,,,,1,,,60,0
53566,note_on,22,0,3,,,,,,,,2,,,76,0
53566,note_on,94,0,7,,,,,,,,6,,,65,0
53566,note_on,46,0,1,,,,,,,,0,,,77,0
53566,note_on,22,0,5,,,,,,,,4,,,69,0
53566,note_on,94,0,8,,,,,,,,7,,,57,0
53566,note_on,94,0,12,,,,,,,,12,,,41,0
53568,note_on,2,0,4,,,,,,,,3,,,53,110
53568,note_on,2,0,5,,,,,,,,4,,,71,110
53568,note_on,2,0,3,,,,,,,,2,,,77,110
53568,note_on,2,0,11,,,,,,,,11,,,57,92
53568,note_on,2,0,1,,,,,,,,0,,,77,110
53568,note_on,2,0,7,,,,,,,,6,,,69,110
53568,note_on,2,0,2,,,,,,,,1,,,57,110
53590,note_on,22,0,5,,,,,,,,4,,,71,0
53590,note_on,22,0,3,,,,,,,,2,,,77,0
53592,note_on,2,0,3,,,,,,,,2,,,76,110
53592,note_on,2,0,5,,,,,,,,4,,,69,110
53614,note_on,22,0,5,,,,,,,,4,,,69,0
53614,note_on,22,0,3,,,,,,,,2,,,76,0
53614,note_on,46,0,1,,,,,,,,0,,,77,0
53616,note_on,2,0,3,,,,,,,,2,,,77,110
53616,note_on,2,0,1,,,,,,,,0,,,72,110
53616,note_on,2,0,5,,,,,,,,4,,,71,110
53638,note_on,22,0,3,,,,,,,,2,,,77,0
53638,note_on,22,0,5,,,,,,,,4,,,71,0
53640,note_on,2,0,3,,,,,,,,2,,,76,110
53640,note_on,2,0,5,,,,,,,,4,,,69,110
53662,note_on,46,0,1,,,,,,,,0,,,72,0
53662,note_on,94,0,2,,,,,,,,1,,,57,0
53662,note_on,94,0,7,,,,,,,,6,,,69,0
53662,note_on,22,0,5,,,,,,,,4,,,69,0
53662,note_on,94,0,11,,,,,,,,11,,,57,0
53662,note_on,22,0,3,,,,,,,,2,,,76,0
53662,note_on,94,0,4,,,,,,,,3,,,53,0
53664,note_on,2,0,4,,,,,,,,3,,,41,110
53664,note_on,98,0,8,,,,,,,,7,,,59,110
53664,note_on,98,0,6,,,,,,,,5,,,53,110
53664,note_on,2,0,2,,,,,,,,1,,,53,110
53664,note_on,2,0,5,,,,,,,,4,,,71,110
53664,note_on,2,0,3,,,,,,,,2,,,77,110
53664,note_on,2,0,1,,,,,,,,0,,,69,110
53664,note_on,2,0,7,,,,,,,,6,,,72,110
53664,note_on,98,0,12,,,,,,,,12,,,53,92
53664,note_on,2,0,11,,,,,,,,11,,,53,92
53686,note_on,22,0,8,,,,,,,,7,,,59,0
53686,note_on,22,0,5,,,,,,,,4,,,71,0
53686,note_on,22,0,3,,,,,,,,2,,,77,0
53688,note_on,2,0,8,,,,,,,,7,,,57,110
53688,note_on,2,0,3,,,,,,,,2,,,76,110
53688,note_on,2,0,5,,,,,,,,4,,,69,110
53710,note_on,22,0,5,,,,,,,,4,,,69,0
53710,note_on,46,0,1,,,,,,,,0,,,69,0
53710,note_on,22,0,8,,,,,,,,7,,,57,0
53710,note_on,22,0,3,,,,,,,,2,,,76,0
53712,note_on,2,0,5,,,,,,,,4,,,71,110
53712,note_on,2,0,8,,,,,,,,7,,,59,110
53712,note_on,720,0,9,,,,,,,,8,,,76,0
53712,note_on,2,0,1,,,,,,,,0,,,77,110
53712,note_on,2,0,3,,,,,,,,2,,,77,110
53734,note_on,22,0,5,,,,,,,,4,,,71,0
53734,note_on,22,0,3,,,,,,,,2,,,77,0
53734,note_on,22,0,8,,,,,,,,7,,,59,0
53736,note_on,2,0,8,,,,,,,,7,,,57,110
53736,note_on,2,0,5,,,,,,,,4,,,69,110
53736,note_on,2,0,3,,,,,,,,2,,,76,110
53758,note_on,94,0,12,,,,,,,,12,,,53,0
53758,note_on,94,0,2,,,,,,,,1,,,53,0
53758,note_on,94,0,11,,,,,,,,11,,,53,0
53758,note_on,22,0,3,,,,,,,,2,,,76,0
53758,note_on,94,0,6,,,,,,,,5,,,53,0
53758,note_on,94,0,7,,,,,,,,6,,,72,0
53758,note_on,22,0,8,,,,,,,,7,,,57,0
53758,note_on,22,0,5,,,,,,,,4,,,69,0
53758,note_on,46,0,1,,,,,,,,0,,,77,0
53758,note_on,94,0,4,,,,,,,,3,,,41,0
53760,note_on,2,0,7,,,,,,,,6,,,71,110
53760,note_on,2,0,12,,,,,,,,12,,,47,92
53760,note_on,2,0,8,,,,,,,,7,,,59,110
53760,note_on,2,0,5,,,,,,,,4,,,71,110
53760,note_on,2,0,2,,,,,,,,1,,,62,110
53760,note_on,2,0,1,,,,,,,,0,,,77,110
53760,note_on,48,0,9,,,,,,,,8,,,74,92
53760,note_on,2,0,6,,,,,,,,5,,,47,110
53760,note_on,2,0,3,,,,,,,,2,,,76,110
53782,note_on,22,0,5,,,,,,,,4,,,71,0
53782,note_on,22,0,3,,,,,,,,2,,,76,0
53784,note_on,2,0,5,,,,,,,,4,,,69,110
53784,note_on,2,0,3,,,,,,,,2,,,74,110
53806,note_on,22,0,3,,,,,,,,2,,,74,0
53806,note_on,46,0,2,,,,,,,,1,,,62,0
53806,note_on,22,0,5,,,,,,,,4,,,69,0
53806,note_on,46,0,7,,,,,,,,6,,,71,0
53808,note_on,2,0,2,,,,,,,,1,,,60,110
53808,note_on,2,0,7,,,,,,,,6,,,65,110
53808,note_on,2,0,5,,,,,,,,4,,,71,110
53808,note_on,2,0,3,,,,,,,,2,,,76,110
53830,note_on,22,0,5,,,,,,,,4,,,71,0
53830,note_on,22,0,3,,,,,,,,2,,,76,0
53832,note_on,2,0,5,,,,,,,,4,,,69,110
53832,note_on,2,0,3,,,,,,,,2,,,74,110
53854,note_on,94,0,12,,,,,,,,12,,,47,0
53854,note_on,94,0,6,,,,,,,,5,,,47,0
53854,note_on,22,0,5,,,,,,,,4,,,69,0
53854,note_on,46,0,2,,,,,,,,1,,,60,0
53854,note_on,94,0,8,,,,,,,,7,,,59,0
53854,note_on,94,0,1,,,,,,,,0,,,77,0
53854,note_on,46,0,7,,,,,,,,6,,,65,0
53854,note_on,22,0,3,,,,,,,,2,,,74,0
53856,note_on,2,0,6,,,,,,,,5,,,59,110
53856,note_on,98,0,4,,,,,,,,3,,,53,110
53856,note_on,2,0,3,,,,,,,,2,,,76,110
53856,note_on,2,0,8,,,,,,,,7,,,53,110
53856,note_on,2,0,12,,,,,,,,12,,,59,92
53856,note_on,2,0,7,,,,,,,,6,,,62,110
53856,note_on,2,0,1,,,,,,,,0,,,71,110
53856,note_on,2,0,2,,,,,,,,1,,,62,110
53856,note_on,2,0,5,,,,,,,,4,,,71,110
53856,note_on,98,0,11,,,,,,,,11,,,53,92
53878,note_on,22,0,3,,,,,,,,2,,,76,0
53878,note_on,22,0,5,,,,,,,,4,,,71,0
53880,note_on,2,0,5,,,,,,,,4,,,69,110
53880,note_on,2,0,3,,,,,,,,2,,,74,110
53902,note_on,22,0,5,,,,,,,,4,,,69,0
53902,note_on,46,0,7,,,,,,,,6,,,62,0
53902,note_on,22,0,3,,,,,,,,2,,,74,0
53904,note_on,2,0,3,,,,,,,,2,,,76,110
53904,note_on,2,0,7,,,,,,,,6,,,71,110
53904,note_on,2,0,5,,,,,,,,4,,,71,110
53926,note_on,22,0,5,,,,,,,,4,,,71,0
53926,note_on,22,0,3,,,,,,,,2,,,76,0
53928,note_on,2,0,3,,,,,,,,2,,,74,110
53928,note_on,2,0,5,,,,,,,,4,,,69,110
53950,note_on,94,0,6,,,,,,,,5,,,59,0
53950,note_on,94,0,2,,,,,,,,1,,,62,0
53950,note_on,94,0,8,,,,,,,,7,,,53,0
53950,note_on,22,0,5,,,,,,,,4,,,69,0
53950,note_on,46,0,7,,,,,,,,6,,,71,0
53950,note_on,94,0,11,,,,,,,,11,,,53,0
53950,note_on,94,0,4,,,,,,,,3,,,53,0
53950,note_on,94,0,1,,,,,,,,0,,,71,0
53950,note_on,94,0,12,,,,,,,,12,,,59,0
53950,note_on,22,0,3,,,,,,,,2,,,74,0
53952,note_on,2,0,7,,,,,,,,6,,,71,110
53952,note_on,2,0,11,,,,,,,,11,,,59,92
53952,note_on,2,0,3,,,,,,,,2,,,76,110
53952,note_on,2,0,8,,,,,,,,7,,,50,110
53952,note_on,2,0,5,,,,,,,,4,,,71,110
53952,note_on,2,0,4,,,,,,,,3,,,47,110
53952,note_on,2,0,1,,,,,,,,0,,,74,110
53974,note_on,22,0,3,,,,,,,,2,,,76,0
53974,note_on,22,0,5,,,,,,,,4,,,71,0
53976,note_on,2,0,5,,,,,,,,4,,,69,110
53976,note_on,2,0,3,,,,,,,,2,,,74,110
53998,note_on,46,0,7,,,,,,,,6,,,71,0
53998,note_on,22,0,3,,,,,,,,2,,,74,0
53998,note_on,22,0,5,,,,,,,,4,,,69,0
54000,note_on,2,0,3,,,,,,,,2,,,76,110
54000,note_on,2,0,7,,,,,,,,6,,,65,110
54000,note_on,2,0,5,,,,,,,,4,,,71,110
54022,note_on,22,0,3,,,,,,,,2,,,76,0
54022,note_on,22,0,5,,,,,,,,4,,,71,0
54024,note_on,2,0,5,,,,,,,,4,,,69,110
54024,note_on,2,0,3,,,,,,,,2,,,74,110
54046,note_on,94,0,11,,,,,,,,11,,,59,0
54046,note_on,46,0,7,,,,,,,,6,,,65,0
54046,note_on,94,0,4,,,,,,,,3,,,47,0
54046,note_on,94,0,8,,,,,,,,7,,,50,0
54046,note_on,22,0,3,,,,,,,,2,,,74,0
54046,note_on,22,0,5,,,,,,,,4,,,69,0
54046,note_on,94,0,1,,,,,,,,0,,,74,0
54048,note_on,2,0,5,,,,,,,,4,,,71,110
54048,note_on,2,0,7,,,,,,,,6,,,62,110
54048,note_on,2,0,11,,,,,,,,11,,,62,92
54048,note_on,98,0,2,,,,,,,,1,,,64,110
54048,note_on,2,0,3,,,,,,,,2,,,76,110
54048,note_on,98,0,12,,,,,,,,12,,,47,92
54048,note_on,98,0,6,,,,,,,,5,,,47,110
54048,note_on,2,0,4,,,,,,,,3,,,59,110
54048,note_on,2,0,8,,,,,,,,7,,,47,110
54048,note_on,2,0,1,,,,,,,,0,,,77,110
54070,note_on,22,0,3,,,,,,,,2,,,76,0
54070,note_on,22,0,2,,,,,,,,1,,,64,0
54070,note_on,22,0,5,,,,,,,,4,,,71,0
54072,note_on,2,0,3,,,,,,,,2,,,74,110
54072,note_on,2,0,5,,,,,,,,4,,,69,110
54072,note_on,2,0,2,,,,,,,,1,,,62,110
54094,note_on,22,0,5,,,,,,,,4,,,69,0
54094,note_on,22,0,3,,,,,,,,2,,,74,0
54094,note_on,46,0,7,,,,,,,,6,,,62,0
54094,note_on,22,0,2,,,,,,,,1,,,62,0
54096,note_on,2,0,5,,,,,,,,4,,,71,110
54096,note_on,2,0,3,,,,,,,,2,,,76,110
54096,note_on,720,0,10,,,,,,,,10,,,69,0
54096,note_on,2,0,7,,,,,,,,6,,,71,110
54096,note_on,2,0,2,,,,,,,,1,,,64,110
54118,note_on,22,0,5,,,,,,,,4,,,71,0
54118,note_on,22,0,3,,,,,,,,2,,,76,0
54118,note_on,22,0,2,,,,,,,,1,,,64,0
54120,note_on,2,0,5,,,,,,,,4,,,69,110
54120,note_on,2,0,3,,,,,,,,2,,,74,110
54120,note_on,2,0,2,,,,,,,,1,,,62,110
54142,note_on,46,0,7,,,,,,,,6,,,71,0
54142,note_on,22,0,5,,,,,,,,4,,,69,0
54142,note_on,94,0,1,,,,,,,,0,,,77,0
54142,note_on,94,0,8,,,,,,,,7,,,47,0
54142,note_on,94,0,11,,,,,,,,11,,,62,0
54142,note_on,22,0,2,,,,,,,,1,,,62,0
54142,note_on,94,0,6,,,,,,,,5,,,47,0
54142,note_on,22,0,3,,,,,,,,2,,,74,0
54142,note_on,94,0,4,,,,,,,,3,,,59,0
54142,note_on,94,0,12,,,,,,,,12,,,47,0
54144,note_on,2,0,2,,,,,,,,1,,,64,110
54144,note_on,2,0,1,,,,,,,,0,,,76,110
54144,note_on,2,0,7,,,,,,,,6,,,71,110
54144,note_on,2,0,6,,,,,,,,5,,,52,110
54144,note_on,2,0,8,,,,,,,,7,,,56,110
54144,note_on,2,0,12,,,,,,,,12,,,52,92
54144,note_on,48,0,10,,,,,,,,10,,,68,92
54144,note_on,2,0,5,,,,,,,,4,,,69,110
54144,note_on,2,0,3,,,,,,,,2,,,76,110
54166,note_on,22,0,5,,,,,,,,4,,,69,0
54166,note_on,22,0,3,,,,,,,,2,,,76,0
54168,note_on,2,0,3,,,,,,,,2,,,74,110
54168,note_on,2,0,5,,,,,,,,4,,,68,110
54190,note_on,22,0,5,,,,,,,,4,,,68,0
54190,note_on,46,0,1,,,,,,,,0,,,76,0
54190,note_on,22,0,3,,,,,,,,2,,,74,0
54190,note_on,46,0,8,,,,,,,,7,,,56,0
54192,note_on,2,0,5,,,,,,,,4,,,69,110
54192,note_on,2,0,8,,,,,,,,7,,,54,110
54192,note_on,2,0,3,,,,,,,,2,,,76,110
54192,note_on,2,0,1,,,,,,,,0,,,71,110
54214,note_on,22,0,3,,,,,,,,2,,,76,0
54214,note_on,22,0,5,,,,,,,,4,,,69,0
54216,note_on,2,0,5,,,,,,,,4,,,68,110
54216,note_on,2,0,3,,,,,,,,2,,,74,110
54238,note_on,94,0,12,,,,,,,,12,,,52,0
54238,note_on,46,0,8,,,,,,,,7,,,54,0
54238,note_on,94,0,7,,,,,,,,6,,,71,0
54238,note_on,94,0,2,,,,,,,,1,,,64,0
54238,note_on,94,0,6,,,,,,,,5,,,52,0
54238,note_on,22,0,5,,,,,,,,4,,,68,0
54238,note_on,22,0,3,,,,,,,,2,,,74,0
54238,note_on,46,0,1,,,,,,,,0,,,71,0
54240,note_on,2,0,8,,,,,,,,7,,,56,110
54240,note_on,98,0,11,,,,,,,,11,,,59,92
54240,note_on,2,0,6,,,,,,,,5,,,40,110
54240,note_on,2,0,12,,,,,,,,12,,,40,92
54240,note_on,98,0,4,,,,,,,,3,,,47,110
54240,note_on,2,0,1,,,,,,,,0,,,68,110
54240,note_on,2,0,2,,,,,,,,1,,,59,110
54240,note_on,2,0,5,,,,,,,,4,,,69,110
54240,note_on,2,0,3,,,,,,,,2,,,76,110
54240,note_on,2,0,7,,,,,,,,6,,,64,110
54262,note_on,22,0,5,,,,,,,,4,,,69,0
54262,note_on,22,0,3,,,,,,,,2,,,76,0
54264,note_on,2,0,5,,,,,,,,4,,,68,110
54264,note_on,2,0,3,,,,,,,,2,,,74,110
54286,note_on,22,0,5,,,,,,,,4,,,68,0
54286,note_on,46,0,1,,,,,,,,0,,,68,0
54286,note_on,22,0,3,,,,,,,,2,,,74,0
54288,note_on,2,0,1,,,,,,,,0,,,76,110
54288,note_on,2,0,5,,,,,,,,4,,,69,110
54288,note_on,2,0,3,,,,,,,,2,,,76,110
54310,note_on,22,0,5,,,,,,,,4,,,69,0
54310,note_on,22,0,3,,,,,,,,2,,,76,0
54312,note_on,2,0,3,,,,,,,,2,,,74,110
54312,note_on,2,0,5,,,,,,,,4,,,68,110
54334,note_on,22,0,5,,,,,,,,4,,,68,0
54334,note_on,46,0,1,,,,,,,,0,,,76,0
54334,note_on,94,0,7,,,,,,,,6,,,64,0
54334,note_on,94,0,11,,,,,,,,11,,,59,0
54334,note_on,94,0,2,,,,,,,,1,,,59,0
54334,note_on,22,0,3,,,,,,,,2,,,74,0
54334,note_on,94,0,6,,,,,,,,5,,,40,0
54334,note_on,94,0,4,,,,,,,,3,,,47,0
54334,note_on,94,0,8,,,,,,,,7,,,56,0
54334,note_on,94,0,12,,,,,,,,12,,,40,0
54336,note_on,2,0,5,,,,,,,,4,,,69,110
54336,note_on,2,0,3,,,,,,,,2,,,76,110
54336,note_on,2,0,2,,,,,,,,1,,,56,110
54336,note_on,2,0,7,,,,,,,,6,,,68,110
54336,note_on,2,0,11,,,,,,,,11,,,56,92
54336,note_on,2,0,1,,,,,,,,0,,,76,110
54336,note_on,2,0,4,,,,,,,,3,,,52,110
54358,note_on,22,0,3,,,,,,,,2,,,76,0
54358,note_on,22,0,5,,,,,,,,4,,,69,0
54360,note_on,2,0,5,,,,,,,,4,,,68,110
54360,note_on,2,0,3,,,,,,,,2,,,74,110
54382,note_on,46,0,1,,,,,,,,0,,,76,0
54382,note_on,22,0,3,,,,,,,,2,,,74,0
54382,note_on,22,0,5,,,,,,,,4,,,68,0
54384,note_on,2,0,1,,,,,,,,0,,,71,110
54384,note_on,2,0,5,,,,,,,,4,,,69,110
54384,note_on,2,0,3,,,,,,,,2,,,76,110
54406,note_on,22,0,3,,,,,,,,2,,,76,0
54406,note_on,22,0,5,,,,,,,,4,,,69,0
54408,note_on,2,0,5,,,,,,,,4,,,68,110
54408,note_on,2,0,3,,,,,,,,2,,,74,110
54430,note_on,22,0,3,,,,,,,,2,,,74,0
54430,note_on,94,0,4,,,,,,,,3,,,52,0
54430,note_on,94,0,2,,,,,,,,1,,,56,0
54430,note_on,94,0,7,,,,,,,,6,,,68,0
54430,note_on,22,0,5,,,,,,,,4,,,68,0
54430,note_on,94,0,11,,,,,,,,11,,,56,0
54430,note_on,46,0,1,,,,,,,,0,,,71,0
54432,note_on,2,0,2,,,,,,,,1,,,52,110
54432,note_on,2,0,5,,,,,,,,4,,,69,110
54432,note_on,98,0,8,,,,,,,,7,,,57,110
54432,note_on,2,0,4,,,,,,,,3,,,40,110
54432,note_on,2,0,3,,,,,,,,2,,,76,110
54432,note_on,98,0,6,,,,,,,,5,,,52,110
54432,note_on,2,0,11,,,,,,,,11,,,52,92
54432,note_on,98,0,12,,,,,,,,12,,,40,92
54432,note_on,2,0,1,,,,,,,,0,,,68,110
54432,note_on,2,0,7,,,,,,,,6,,,71,110
54454,note_on,22,0,8,,,,,,,,7,,,57,0
54454,note_on,22,0,3,,,,,,,,2,,,76,0
54454,note_on,22,0,5,,,,,,,,4,,,69,0
54456,note_on,2,0,5,,,,,,,,4,,,68,110
54456,note_on,2,0,8,,,,,,,,7,,,56,110
54456,note_on,2,0,3,,,,,,,,2,,,74,110
54478,note_on,22,0,5,,,,,,,,4,,,68,0
54478,note_on,22,0,8,,,,,,,,7,,,56,0
54478,note_on,46,0,1,,,,,,,,0,,,68,0
54478,note_on,22,0,3,,,,,,,,2,,,74,0
54480,note_on,2,0,3,,,,,,,,2,,,76,110
54480,note_on,2,0,8,,,,,,,,7,,,57,110
54480,note_on,720,0,9,,,,,,,,8,,,74,0
54480,note_on,2,0,5,,,,,,,,4,,,69,110
54480,note_on,336,0,10,,,,,,,,10,,,68,0
54480,note_on,2,0,1,,,,,,,,0,,,76,110
54502,note_on,22,0,5,,,,,,,,4,,,69,0
54502,note_on,22,0,3,,,,,,,,2,,,76,0
54502,note_on,22,0,8,,,,,,,,7,,,57,0
54504,note_on,2,0,8,,,,,,,,7,,,56,110
54504,note_on,2,0,3,,,,,,,,2,,,74,110
54504,note_on,2,0,5,,,,,,,,4,,,68,110
54526,note_on,94,0,6,,,,,,,,5,,,52,0
54526,note_on,46,0,1,,,,,,,,0,,,76,0
54526,note_on,94,0,2,,,,,,,,1,,,52,0
54526,note_on,22,0,8,,,,,,,,7,,,56,0
54526,note_on,22,0,3,,,,,,,,2,,,74,0
54526,note_on,94,0,11,,,,,,,,11,,,52,0
54526,note_on,94,0,4,,,,,,,,3,,,40,0
54526,note_on,94,0,7,,,,,,,,6,,,71,0
54526,note_on,22,0,5,,,,,,,,4,,,68,0
54526,note_on,94,0,12,,,,,,,,12,,,40,0
54528,note_on,2,0,4,,,,,,,,3,,,45,110
54528,note_on,2,0,6,,,,,,,,5,,,45,110
54528,note_on,48,0,10,,,,,,,,10,,,69,92
54528,note_on,2,0,11,,,,,,,,11,,,64,92
54528,note_on,2,0,1,,,,,,,,0,,,76,110
54528,note_on,2,0,2,,,,,,,,1,,,60,110
54528,note_on,2,0,12,,,,,,,,12,,,45,92
54528,note_on,2,0,3,,,,,,,,2,,,72,110
54528,note_on,2,0,7,,,,,,,,6,,,72,110
54528,note_on,48,0,9,,,,,,,,8,,,72,92
54528,note_on,2,0,8,,,,,,,,7,,,52,110
54528,note_on,2,0,5,,,,,,,,4,,,69,110
54574,note_on,46,0,2,,,,,,,,1,,,60,0
54574,note_on,46,0,3,,,,,,,,2,,,72,0
54576,note_on,2,0,2,,,,,,,,1,,,59,110
54576,note_on,2,0,3,,,,,,,,2,,,76,110
54622,note_on,94,0,6,,,,,,,,5,,,45,0
54622,note_on,94,0,8,,,,,,,,7,,,52,0
54622,note_on,94,0,4,,,,,,,,3,,,45,0
54622,note_on,94,0,5,,,,,,,,4,,,69,0
54622,note_on,94,0,1,,,,,,,,0,,,76,0
54622,note_on,46,0,2,,,,,,,,1,,,59,0
54622,note_on,46,0,3,,,,,,,,2,,,76,0
54624,note_on,2,0,8,,,,,,,,7,,,57,110
54624,note_on,2,0,3,,,,,,,,2,,,76,110
54624,note_on,2,0,1,,,,,,,,0,,,69,110
54624,note_on,2,0,5,,,,,,,,4,,,72,110
54624,note_on,2,0,2,,,,,,,,1,,,60,110
54624,note_on,2,0,6,,,,,,,,5,,,57,110
54624,note_on,2,0,4,,,,,,,,3,,,45,110
54670,note_on,46,0,5,,,,,,,,4,,,72,0
54670,note_on,46,0,3,,,,,,,,2,,,76,0
54672,note_on,2,0,5,,,,,,,,4,,,74,110
54672,note_on,2,0,3,,,,,,,,2,,,76,110
54688,note_on,160,0,11,,,,,,,,11,,,64,0
54688,note_on,160,0,7,,,,,,,,6,,,72,0
54688,note_on,160,0,12,,,,,,,,12,,,45,0
54688,note_on,160,0,10,,,,,,,,10,,,69,0
54688,note_on,160,0,9,,,,,,,,8,,,72,0
54718,note_on,94,0,1,,,,,,,,0,,,69,0
54718,note_on,94,0,6,,,,,,,,5,,,57,0
54718,note_on,46,0,3,,,,,,,,2,,,76,0
54718,note_on,94,0,4,,,,,,,,3,,,45,0
54718,note_on,94,0,8,,,,,,,,7,,,57,0
54718,note_on,94,0,2,,,,,,,,1,,,60,0
54718,note_on,46,0,5,,,,,,,,4,,,74,0
54720,note_on,2,0,4,,,,,,,,3,,,45,110
54720,note_on,2,0,6,,,,,,,,5,,,60,110
54720,note_on,2,0,3,,,,,,,,2,,,81,110
54720,note_on,2,0,5,,,,,,,,4,,,76,110
54766,note_on,46,0,3,,,,,,,,2,,,81,0
54766,note_on,46,0,5,,,,,,,,4,,,76,0
54768,note_on,2,0,3,,,,,,,,2,,,76,110
54768,note_on,2,0,5,,,,,,,,4,,,74,110
54814,note_on,46,0,5,,,,,,,,4,,,74,0
54814,note_on,46,0,3,,,,,,,,2,,,76,0
54814,note_on,94,0,4,,,,,,,,3,,,45,0
54814,note_on,94,0,6,,,,,,,,5,,,60,0
54816,note_on,2,0,6,,,,,,,,5,,,57,110
54816,note_on,2,0,3,,,,,,,,2,,,76,110
54816,note_on,2,0,4,,,,,,,,3,,,45,110
54816,note_on,2,0,5,,,,,,,,4,,,72,110
54862,note_on,46,0,3,,,,,,,,2,,,76,0
54862,note_on,46,0,5,,,,,,,,4,,,72,0
54864,note_on,2,0,3,,,,,,,,2,,,76,110
54864,note_on,2,0,5,,,,,,,,4,,,74,110
54910,note_on,94,0,6,,,,,,,,5,,,57,0
54910,note_on,94,0,4,,,,,,,,3,,,45,0
54910,note_on,46,0,3,,,,,,,,2,,,76,0
54910,note_on,46,0,5,,,,,,,,4,,,74,0
54912,note_on,2,0,3,,,,,,,,2,,,81,110
54912,note_on,2,0,6,,,,,,,,5,,,45,110
54912,note_on,2,0,4,,,,,,,,3,,,49,110
54912,note_on,2,0,5,,,,,,,,4,,,76,110
54958,note_on,46,0,3,,,,,,,,2,,,81,0
54958,note_on,46,0,5,,,,,,,,4,,,76,0
54960,note_on,2,0,5,,,,,,,,4,,,74,110
54960,note_on,2,0,3,,,,,,,,2,,,76,110
55006,note_on,46,0,5,,,,,,,,4,,,74,0
55006,note_on,46,0,3,,,,,,,,2,,,76,0
55006,note_on,94,0,4,,,,,,,,3,,,49,0
55006,note_on,94,0,6,,,,,,,,5,,,45,0
55008,note_on,2,0,4,,,,,,,,3,,,45,110
55008,note_on,2,0,3,,,,,,,,2,,,76,110
55008,note_on,2,0,6,,,,,,,,5,,,57,110
55008,note_on,2,0,5,,,,,,,,4,,,73,110
55054,note_on,46,0,3,,,,,,,,2,,,76,0
55054,note_on,46,0,5,,,,,,,,4,,,73,0
55056,note_on,2,0,3,,,,,,,,2,,,76,110
55056,note_on,2,0,5,,,,,,,,4,,,74,110
55102,note_on,46,0,3,,,,,,,,2,,,76,0
55102,note_on,94,0,4,,,,,,,,3,,,45,0
55102,note_on,46,0,5,,,,,,,,4,,,74,0
55102,note_on,94,0,6,,,,,,,,5,,,57,0
55104,note_on,2,0,3,,,,,,,,2,,,81,110
55104,note_on,2,0,4,,,,,,,,3,,,45,110
55104,note_on,2,0,6,,,,,,,,5,,,61,110
55104,note_on,2,0,5,,,,,,,,4,,,76,110
55150,note_on,46,0,3,,,,,,,,2,,,81,0
55152,note_on,2,0,3,,,,,,,,2,,,79,110
55198,note_on,94,0,4,,,,,,,,3,,,45,0
55198,note_on,94,0,5,,,,,,,,4,,,76,0
55198,note_on,94,0,6,,,,,,,,5,,,61,0
55198,note_on,46,0,3,,,,,,,,2,,,79,0
55200,note_on,2,0,3,,,,,,,,2,,,77,110
55200,note_on,512,0,10,,,,,,,,10,,,76,45
55200,note_on,512,0,11,,,,,,,,11,,,73,45
55200,note_on,2,0,6,,,,,,,,5,,,57,110
55200,note_on,512,0,9,,,,,,,,8,,,81,45
55200,note_on,512,0,12,,,,,,,,12,,,57,45
55200,note_on,2,0,5,,,,,,,,4,,,69,110
55200,note_on,2,0,4,,,,,,,,3,,,45,110
55246,note_on,46,0,3,,,,,,,,2,,,77,0
55248,note_on,2,0,3,,,,,,,,2,,,76,110
55294,note_on,94,0,12,,,,,,,,12,,,57,0
55294,note_on,94,0,5,,,,,,,,4,,,69,0
55294,note_on,94,0,6,,,,,,,,5,,,57,0
55294,note_on,94,0,10,,,,,,,,10,,,76,0
55294,note_on,94,0,4,,,,,,,,3,,,45,0
55294,note_on,94,0,11,,,,,,,,11,,,73,0
55294,note_on,46,0,3,,,,,,,,2,,,76,0
55294,note_on,94,0,9,,,,,,,,8,,,81,0
55296,note_on,2,0,11,,,,,,,,11,,,69,45
55296,note_on,2,0,3,,,,,,,,2,,,77,110
55296,note_on,608,0,7,,,,,,,,6,,,62,110
55296,note_on,2,0,6,,,,,,,,5,,,50,110
55296,note_on,2,0,9,,,,,,,,8,,,77,45
55296,note_on,578,0,8,,,,,,,,7,,,38,110
55296,note_on,2,0,5,,,,,,,,4,,,69,110
55296,note_on,2,0,12,,,,,,,,12,,,62,45
55296,note_on,2,0,4,,,,,,,,3,,,50,110
55296,note_on,2,0,10,,,,,,,,10,,,74,45
55342,note_on,46,0,5,,,,,,,,4,,,69,0
55344,note_on,2,0,5,,,,,,,,4,,,69,110
55390,note_on,94,0,7,,,,,,,,6,,,62,0
55390,note_on,94,0,11,,,,,,,,11,,,69,0
55390,note_on,94,0,6,,,,,,,,5,,,50,0
55390,note_on,94,0,8,,,,,,,,7,,,38,0
55390,note_on,94,0,9,,,,,,,,8,,,77,0
55390,note_on,94,0,10,,,,,,,,10,,,74,0
55390,note_on,94,0,12,,,,,,,,12,,,62,0
55390,note_on,46,0,5,,,,,,,,4,,,69,0
55392,note_on,2,0,11,,,,,,,,11,,,65,45
55392,note_on,2,0,7,,,,,,,,6,,,65,110
55392,note_on,2,0,6,,,,,,,,5,,,38,110
55392,note_on,2,0,5,,,,,,,,4,,,69,110
55392,note_on,2,0,10,,,,,,,,10,,,69,45
55392,note_on,2,0,9,,,,,,,,8,,,74,45
55392,note_on,2,0,12,,,,,,,,12,,,50,45
55392,note_on,2,0,8,,,,,,,,7,,,50,110
55438,note_on,46,0,5,,,,,,,,4,,,69,0
55438,note_on,46,0,7,,,,,,,,6,,,65,0
55440,note_on,2,0,5,,,,,,,,4,,,69,110
55440,note_on,2,0,7,,,,,,,,6,,,67,110
55456,note_on,160,0,3,,,,,,,,2,,,77,0
55456,note_on,160,0,4,,,,,,,,3,,,50,0
55486,note_on,46,0,7,,,,,,,,6,,,67,0
55486,note_on,46,0,5,,,,,,,,4,,,69,0
55486,note_on,94,0,9,,,,,,,,8,,,74,0
55486,note_on,94,0,12,,,,,,,,12,,,50,0
55486,note_on,94,0,11,,,,,,,,11,,,65,0
55486,note_on,94,0,8,,,,,,,,7,,,50,0
55486,note_on,94,0,10,,,,,,,,10,,,69,0
55486,note_on,94,0,6,,,,,,,,5,,,38,0
55488,note_on,2,0,5,,,,,,,,4,,,74,110
55488,note_on,2,0,6,,,,,,,,5,,,38,110
55488,note_on,2,0,7,,,,,,,,6,,,69,110
55488,note_on,2,0,8,,,,,,,,7,,,53,110
55534,note_on,46,0,5,,,,,,,,4,,,74,0
55534,note_on,46,0,7,,,,,,,,6,,,69,0
55536,note_on,2,0,5,,,,,,,,4,,,69,110
55536,note_on,2,0,7,,,,,,,,6,,,67,110
55582,note_on,46,0,7,,,,,,,,6,,,67,0
55582,note_on,46,0,5,,,,,,,,4,,,69,0
55582,note_on,94,0,8,,,,,,,,7,,,53,0
55582,note_on,94,0,6,,,,,,,,5,,,38,0
55584,note_on,2,0,5,,,,,,,,4,,,69,110
55584,note_on,2,0,7,,,,,,,,6,,,65,110
55584,note_on,2,0,6,,,,,,,,5,,,38,110
55584,note_on,2,0,8,,,,,,,,7,,,50,110
55630,note_on,46,0,5,,,,,,,,4,,,69,0
55630,note_on,46,0,7,,,,,,,,6,,,65,0
55632,note_on,2,0,5,,,,,,,,4,,,69,110
55632,note_on,2,0,7,,,,,,,,6,,,67,110
55678,note_on,94,0,8,,,,,,,,7,,,50,0
55678,note_on,94,0,6,,,,,,,,5,,,38,0
55678,note_on,46,0,5,,,,,,,,4,,,69,0
55678,note_on,46,0,7,,,,,,,,6,,,67,0
55680,note_on,2,0,6,,,,,,,,5,,,42,110
55680,note_on,2,0,5,,,,,,,,4,,,74,110
55680,note_on,2,0,7,,,,,,,,6,,,69,110
55680,note_on,2,0,8,,,,,,,,7,,,38,110
55726,note_on,46,0,5,,,,,,,,4,,,74,0
55726,note_on,46,0,7,,,,,,,,6,,,69,0
55728,note_on,2,0,5,,,,,,,,4,,,69,110
55728,note_on,2,0,7,,,,,,,,6,,,67,110
55774,note_on,94,0,6,,,,,,,,5,,,42,0
55774,note_on,46,0,7,,,,,,,,6,,,67,0
55774,note_on,94,0,8,,,,,,,,7,,,38,0
55774,note_on,46,0,5,,,,,,,,4,,,69,0
55776,note_on,2,0,8,,,,,,,,7,,,50,110
55776,note_on,2,0,7,,,,,,,,6,,,66,110
55776,note_on,2,0,5,,,,,,,,4,,,69,110
55776,note_on,2,0,6,,,,,,,,5,,,38,110
55822,note_on,46,0,7,,,,,,,,6,,,66,0
55822,note_on,46,0,5,,,,,,,,4,,,69,0
55824,note_on,2,0,7,,,,,,,,6,,,67,110
55824,note_on,2,0,5,,,,,,,,4,,,69,110
55870,note_on,94,0,8,,,,,,,,7,,,50,0
55870,note_on,46,0,7,,,,,,,,6,,,67,0
55870,note_on,46,0,5,,,,,,,,4,,,69,0
55870,note_on,94,0,6,,,,,,,,5,,,38,0
55872,note_on,2,0,5,,,,,,,,4,,,74,110
55872,note_on,2,0,8,,,,,,,,7,,,54,110
55872,note_on,2,0,7,,,,,,,,6,,,69,110
55872,note_on,2,0,6,,,,,,,,5,,,38,110
55918,note_on,46,0,5,,,,,,,,4,,,74,0
55920,note_on,2,0,5,,,,,,,,4,,,72,110
55966,note_on,94,0,7,,,,,,,,6,,,69,0
55966,note_on,46,0,5,,,,,,,,4,,,72,0
55966,note_on,94,0,6,,,,,,,,5,,,38,0
55966,note_on,94,0,8,,,,,,,,7,,,54,0
55968,note_on,482,0,12,,,,,,,,12,,,50,45
55968,note_on,482,0,10,,,,,,,,10,,,69,45
55968,note_on,2,0,7,,,,,,,,6,,,66,110
55968,note_on,482,0,11,,,,,,,,11,,,66,45
55968,note_on,2,0,6,,,,,,,,5,,,38,110
55968,note_on,2,0,8,,,,,,,,7,,,50,110
55968,note_on,482,0,9,,,,,,,,8,,,74,45
55968,note_on,2,0,5,,,,,,,,4,,,71,110
56014,note_on,46,0,5,,,,,,,,4,,,71,0
56016,note_on,2,0,5,,,,,,,,4,,,69,110
56062,note_on,94,0,12,,,,,,,,12,,,50,0
56062,note_on,94,0,7,,,,,,,,6,,,66,0
56062,note_on,94,0,9,,,,,,,,8,,,74,0
56062,note_on,94,0,6,,,,,,,,5,,,38,0
56062,note_on,94,0,8,,,,,,,,7,,,50,0
56062,note_on,94,0,10,,,,,,,,10,,,69,0
56062,note_on,94,0,11,,,,,,,,11,,,66,0
56062,note_on,46,0,5,,,,,,,,4,,,69,0
56064,note_on,2,0,8,,,,,,,,7,,,55,110
56064,note_on,2,0,10,,,,,,,,10,,,67,45
56064,note_on,2,0,11,,,,,,,,11,,,62,45
56064,note_on,2,0,12,,,,,,,,12,,,55,45
56064,note_on,2,0,5,,,,,,,,4,,,71,110
56064,note_on,1346,0,2,,,,,,,,1,,,43,110
56064,note_on,2,0,7,,,,,,,,6,,,62,110
56064,note_on,2,0,9,,,,,,,,8,,,71,45
56064,note_on,2,0,6,,,,,,,,5,,,43,110
56110,note_on,46,0,7,,,,,,,,6,,,62,0
56112,note_on,2,0,7,,,,,,,,6,,,62,110
56158,note_on,94,0,2,,,,,,,,1,,,43,0
56158,note_on,46,0,7,,,,,,,,6,,,62,0
56158,note_on,94,0,10,,,,,,,,10,,,67,0
56158,note_on,94,0,11,,,,,,,,11,,,62,0
56158,note_on,94,0,12,,,,,,,,12,,,55,0
56158,note_on,94,0,8,,,,,,,,7,,,55,0
56158,note_on,94,0,9,,,,,,,,8,,,71,0
56160,note_on,1442,0,1,,,,,,,,0,,,59,110
56160,note_on,2,0,9,,,,,,,,8,,,67,45
56160,note_on,2,0,10,,,,,,,,10,,,62,45
56160,note_on,2,0,12,,,,,,,,12,,,43,45
56160,note_on,2,0,8,,,,,,,,7,,,43,110
56160,note_on,2,0,7,,,,,,,,6,,,62,110
56160,note_on,2,0,2,,,,,,,,1,,,55,110
56160,note_on,2,0,11,,,,,,,,11,,,59,45
56206,note_on,46,0,1,,,,,,,,0,,,59,0
56206,note_on,46,0,7,,,,,,,,6,,,62,0
56208,note_on,2,0,1,,,,,,,,0,,,60,110
56208,note_on,2,0,7,,,,,,,,6,,,62,110
56224,note_on,160,0,6,,,,,,,,5,,,43,0
56224,note_on,160,0,5,,,,,,,,4,,,71,0
56254,note_on,94,0,10,,,,,,,,10,,,62,0
56254,note_on,46,0,1,,,,,,,,0,,,60,0
56254,note_on,46,0,7,,,,,,,,6,,,62,0
56254,note_on,94,0,11,,,,,,,,11,,,59,0
56254,note_on,94,0,12,,,,,,,,12,,,43,0
56254,note_on,94,0,2,,,,,,,,1,,,55,0
56254,note_on,94,0,8,,,,,,,,7,,,43,0
56254,note_on,94,0,9,,,,,,,,8,,,67,0
56256,note_on,2,0,7,,,,,,,,6,,,67,110
56256,note_on,2,0,1,,,,,,,,0,,,62,110
56256,note_on,2,0,8,,,,,,,,7,,,43,110
56256,note_on,2,0,2,,,,,,,,1,,,59,110
56302,note_on,46,0,1,,,,,,,,0,,,62,0
56302,note_on,46,0,7,,,,,,,,6,,,67,0
56304,note_on,2,0,1,,,,,,,,0,,,60,110
56304,note_on,2,0,7,,,,,,,,6,,,62,110
56350,note_on,94,0,2,,,,,,,,1,,,59,0
56350,note_on,46,0,7,,,,,,,,6,,,62,0
56350,note_on,94,0,8,,,,,,,,7,,,43,0
56350,note_on,46,0,1,,,,,,,,0,,,60,0
56352,note_on,2,0,2,,,,,,,,1,,,55,110
56352,note_on,2,0,7,,,,,,,,6,,,62,110
56352,note_on,2,0,8,,,,,,,,7,,,43,110
56352,note_on,2,0,1,,,,,,,,0,,,59,110
56398,note_on,46,0,7,,,,,,,,6,,,62,0
56398,note_on,46,0,1,,,,,,,,0,,,59,0
56400,note_on,2,0,7,,,,,,,,6,,,62,110
56400,note_on,2,0,1,,,,,,,,0,,,60,110
56446,note_on,46,0,1,,,,,,,,0,,,60,0
56446,note_on,94,0,2,,,,,,,,1,,,55,0
56446,note_on,94,0,8,,,,,,,,7,,,43,0
56446,note_on,46,0,7,,,,,,,,6,,,62,0
56448,note_on,2,0,1,,,,,,,,0,,,62,110
56448,note_on,2,0,7,,,,,,,,6,,,67,110
56448,note_on,2,0,8,,,,,,,,7,,,47,110
56448,note_on,2,0,2,,,,,,,,1,,,43,110
56494,note_on,46,0,1,,,,,,,,0,,,62,0
56494,note_on,46,0,7,,,,,,,,6,,,67,0
56496,note_on,2,0,7,,,,,,,,6,,,62,110
56496,note_on,2,0,1,,,,,,,,0,,,60,110
56542,note_on,46,0,7,,,,,,,,6,,,62,0
56542,note_on,46,0,1,,,,,,,,0,,,60,0
56542,note_on,94,0,2,,,,,,,,1,,,43,0
56542,note_on,94,0,8,,,,,,,,7,,,47,0
56544,note_on,2,0,2,,,,,,,,1,,,55,110
56544,note_on,2,0,8,,,,,,,,7,,,43,110
56544,note_on,2,0,7,,,,,,,,6,,,62,110
56544,note_on,2,0,1,,,,,,,,0,,,59,110
56590,note_on,46,0,7,,,,,,,,6,,,62,0
56590,note_on,46,0,1,,,,,,,,0,,,59,0
56592,note_on,2,0,7,,,,,,,,6,,,62,110
56592,note_on,2,0,1,,,,,,,,0,,,60,110
56638,note_on,46,0,7,,,,,,,,6,,,62,0
56638,note_on,94,0,2,,,,,,,,1,,,55,0
56638,note_on,94,0,8,,,,,,,,7,,,43,0
56638,note_on,46,0,1,,,,,,,,0,,,60,0
56640,note_on,2,0,1,,,,,,,,0,,,62,110
56640,note_on,2,0,7,,,,,,,,6,,,67,110
56640,note_on,2,0,2,,,,,,,,1,,,59,110
56640,note_on,2,0,8,,,,,,,,7,,,43,110
56686,note_on,46,0,7,,,,,,,,6,,,67,0
56688,note_on,2,0,7,,,,,,,,6,,,65,110
56734,note_on,94,0,1,,,,,,,,0,,,62,0
56734,note_on,94,0,8,,,,,,,,7,,,43,0
56734,note_on,94,0,2,,,,,,,,1,,,59,0
56734,note_on,46,0,7,,,,,,,,6,,,65,0
56736,note_on,2,0,1,,,,,,,,0,,,59,110
56736,note_on,2,0,8,,,,,,,,7,,,43,110
56736,note_on,482,0,11,,,,,,,,11,,,59,45
56736,note_on,482,0,9,,,,,,,,8,,,67,45
56736,note_on,482,0,10,,,,,,,,10,,,62,45
56736,note_on,482,0,12,,,,,,,,12,,,43,45
56736,note_on,2,0,7,,,,,,,,6,,,64,110
56736,note_on,2,0,2,,,,,,,,1,,,55,110
56782,note_on,46,0,7,,,,,,,,6,,,64,0
56784,note_on,2,0,7,,,,,,,,6,,,62,110
56830,note_on,94,0,2,,,,,,,,1,,,55,0
56830,note_on,94,0,12,,,,,,,,12,,,43,0
56830,note_on,94,0,1,,,,,,,,0,,,59,0
56830,note_on,94,0,8,,,,,,,,7,,,43,0
56830,note_on,94,0,9,,,,,,,,8,,,67,0
56830,note_on,94,0,11,,,,,,,,11,,,59,0
56830,note_on,94,0,10,,,,,,,,10,,,62,0
56830,note_on,46,0,7,,,,,,,,6,,,62,0
56832,note_on,2,0,9,,,,,,,,8,,,64,45
56832,note_on,2,0,11,,,,,,,,11,,,55,45
56832,note_on,2,0,8,,,,,,,,7,,,48,110
56832,note_on,2,0,1,,,,,,,,0,,,55,110
56832,note_on,2,0,7,,,,,,,,6,,,64,110
56832,note_on,2,0,12,,,,,,,,12,,,48,45
56832,note_on,2,0,10,,,,,,,,10,,,60,45
56832,note_on,2,0,2,,,,,,,,1,,,52,110
56878,note_on,46,0,1,,,,,,,,0,,,55,0
56880,note_on,2,0,1,,,,,,,,0,,,55,110
56926,note_on,94,0,7,,,,,,,,6,,,64,0
56926,note_on,94,0,2,,,,,,,,1,,,52,0
56926,note_on,94,0,9,,,,,,,,8,,,64,0
56926,note_on,94,0,10,,,,,,,,10,,,60,0
56926,note_on,94,0,12,,,,,,,,12,,,48,0
56926,note_on,46,0,1,,,,,,,,0,,,55,0
56926,note_on,94,0,8,,,,,,,,7,,,48,0
56926,note_on,94,0,11,,,,,,,,11,,,55,0
56928,note_on,2,0,11,,,,,,,,11,,,52,45
56928,note_on,2,0,2,,,,,,,,1,,,40,110
56928,note_on,2,0,7,,,,,,,,6,,,64,110
56928,note_on,2,0,1,,,,,,,,0,,,55,110
56928,note_on,2,0,8,,,,,,,,7,,,48,110
56928,note_on,2,0,10,,,,,,,,10,,,55,45
56928,note_on,2,0,12,,,,,,,,12,,,36,45
56928,note_on,2,0,9,,,,,,,,8,,,60,45
56974,note_on,46,0,1,,,,,,,,0,,,55,0
56974,note_on,46,0,8,,,,,,,,7,,,48,0
56976,note_on,2,0,8,,,,,,,,7,,,50,110
56976,note_on,2,0,1,,,,,,,,0,,,55,110
57022,note_on,94,0,2,,,,,,,,1,,,40,0
57022,note_on,46,0,8,,,,,,,,7,,,50,0
57022,note_on,46,0,1,,,,,,,,0,,,55,0
57022,note_on,94,0,10,,,,,,,,10,,,55,0
57022,note_on,94,0,12,,,,,,,,12,,,36,0
57022,note_on,94,0,9,,,,,,,,8,,,60,0
57022,note_on,94,0,11,,,,,,,,11,,,52,0
57022,note_on,94,0,7,,,,,,,,6,,,64,0
57024,note_on,2,0,8,,,,,,,,7,,,52,110
57024,note_on,2,0,7,,,,,,,,6,,,67,110
57024,note_on,2,0,2,,,,,,,,1,,,40,110
57024,note_on,2,0,1,,,,,,,,0,,,60,110
57070,note_on,46,0,8,,,,,,,,7,,,52,0
57070,note_on,46,0,1,,,,,,,,0,,,60,0
57072,note_on,2,0,8,,,,,,,,7,,,50,110
57072,note_on,2,0,1,,,,,,,,0,,,55,110
57118,note_on,94,0,2,,,,,,,,1,,,40,0
57118,note_on,46,0,8,,,,,,,,7,,,50,0
57118,note_on,94,0,7,,,,,,,,6,,,67,0
57118,note_on,46,0,1,,,,,,,,0,,,55,0
57120,note_on,2,0,1,,,,,,,,0,,,55,110
57120,note_on,2,0,7,,,,,,,,6,,,72,110
57120,note_on,2,0,8,,,,,,,,7,,,48,110
57120,note_on,2,0,2,,,,,,,,1,,,40,110
57166,note_on,46,0,1,,,,,,,,0,,,55,0
57166,note_on,46,0,8,,,,,,,,7,,,48,0
57168,note_on,2,0,8,,,,,,,,7,,,50,110
57168,note_on,2,0,1,,,,,,,,0,,,55,110
57214,note_on,94,0,2,,,,,,,,1,,,40,0
57214,note_on,46,0,1,,,,,,,,0,,,55,0
57214,note_on,94,0,7,,,,,,,,6,,,72,0
57214,note_on,46,0,8,,,,,,,,7,,,50,0
57216,note_on,2,0,1,,,,,,,,0,,,60,110
57216,note_on,2,0,7,,,,,,,,6,,,67,110
57216,note_on,2,0,8,,,,,,,,7,,,52,110
57216,note_on,2,0,2,,,,,,,,1,,,36,110
57262,note_on,46,0,1,,,,,,,,0,,,60,0
57262,note_on,46,0,8,,,,,,,,7,,,52,0
57264,note_on,2,0,8,,,,,,,,7,,,50,110
57264,note_on,2,0,1,,,,,,,,0,,,55,110
57310,note_on,46,0,1,,,,,,,,0,,,55,0
57310,note_on,94,0,7,,,,,,,,6,,,67,0
57310,note_on,94,0,2,,,,,,,,1,,,36,0
57310,note_on,46,0,8,,,,,,,,7,,,50,0
57312,note_on,2,0,1,,,,,,,,0,,,55,110
57312,note_on,2,0,8,,,,,,,,7,,,48,110
57312,note_on,2,0,2,,,,,,,,1,,,36,110
57312,note_on,2,0,7,,,,,,,,6,,,72,110
57358,note_on,46,0,1,,,,,,,,0,,,55,0
57358,note_on,46,0,8,,,,,,,,7,,,48,0
57360,note_on,2,0,8,,,,,,,,7,,,50,110
57360,note_on,2,0,1,,,,,,,,0,,,55,110
57406,note_on,46,0,1,,,,,,,,0,,,55,0
57406,note_on,46,0,8,,,,,,,,7,,,50,0
57406,note_on,94,0,2,,,,,,,,1,,,36,0
57406,note_on,94,0,7,,,,,,,,6,,,72,0
57408,note_on,2,0,2,,,,,,,,1,,,36,110
57408,note_on,2,0,1,,,,,,,,0,,,60,110
57408,note_on,2,0,7,,,,,,,,6,,,67,110
57408,note_on,2,0,8,,,,,,,,7,,,52,110
57454,note_on,46,0,1,,,,,,,,0,,,60,0
57456,note_on,2,0,1,,,,,,,,0,,,59,110
57502,note_on,46,0,1,,,,,,,,0,,,59,0
57502,note_on,94,0,2,,,,,,,,1,,,36,0
57502,note_on,94,0,8,,,,,,,,7,,,52,0
57502,note_on,94,0,7,,,,,,,,6,,,67,0
57504,note_on,482,0,11,,,,,,,,11,,,64,45
57504,note_on,2,0,8,,,,,,,,7,,,48,110
57504,note_on,482,0,10,,,,,,,,10,,,67,45
57504,note_on,482,0,9,,,,,,,,8,,,72,45
57504,note_on,482,0,12,,,,,,,,12,,,48,45
57504,note_on,2,0,2,,,,,,,,1,,,36,110
57504,note_on,2,0,1,,,,,,,,0,,,57,110
57504,note_on,2,0,7,,,,,,,,6,,,64,110
57550,note_on,46,0,1,,,,,,,,0,,,57,0
57552,note_on,2,0,1,,,,,,,,0,,,55,110
57598,note_on,94,0,11,,,,,,,,11,,,64,0
57598,note_on,94,0,2,,,,,,,,1,,,36,0
57598,note_on,46,0,1,,,,,,,,0,,,55,0
57598,note_on,94,0,9,,,,,,,,8,,,72,0
57598,note_on,94,0,10,,,,,,,,10,,,67,0
57598,note_on,94,0,12,,,,,,,,12,,,48,0
57598,note_on,94,0,8,,,,,,,,7,,,48,0
57598,note_on,94,0,7,,,,,,,,6,,,64,0
57600,note_on,2,0,1,,,,,,,,0,,,57,110
57600,note_on,2,0,12,,,,,,,,12,,,53,45
57600,note_on,2,0,11,,,,,,,,11,,,60,45
57600,note_on,2,0,7,,,,,,,,6,,,60,110
57600,note_on,2,0,8,,,,,,,,7,,,53,110
57600,note_on,2,0,10,,,,,,,,10,,,65,45
57600,note_on,2,0,2,,,,,,,,1,,,41,110
57600,note_on,2,0,9,,,,,,,,8,,,69,45
57646,note_on,46,0,1,,,,,,,,0,,,57,0
57648,note_on,2,0,1,,,,,,,,0,,,57,110
57694,note_on,94,0,12,,,,,,,,12,,,53,0
57694,note_on,94,0,9,,,,,,,,8,,,69,0
57694,note_on,94,0,8,,,,,,,,7,,,53,0
57694,note_on,94,0,7,,,,,,,,6,,,60,0
57694,note_on,94,0,2,,,,,,,,1,,,41,0
57694,note_on,46,0,1,,,,,,,,0,,,57,0
57694,note_on,94,0,11,,,,,,,,11,,,60,0
57694,note_on,94,0,10,,,,,,,,10,,,65,0
57696,note_on,2,0,1,,,,,,,,0,,,57,110
57696,note_on,2,0,9,,,,,,,,8,,,65,45
57696,note_on,1472,0,5,,,,,,,,4,,,65,110
57696,note_on,2,0,10,,,,,,,,10,,,60,45
57696,note_on,1472,0,6,,,,,,,,5,,,57,110
57696,note_on,2,0,2,,,,,,,,1,,,41,110
57696,note_on,2,0,11,,,,,,,,11,,,57,45
57696,note_on,2,0,12,,,,,,,,12,,,41,45
57742,note_on,46,0,1,,,,,,,,0,,,57,0
57742,note_on,46,0,6,,,,,,,,5,,,57,0
57744,note_on,2,0,1,,,,,,,,0,,,57,110
57744,note_on,2,0,6,,,,,,,,5,,,55,110
57790,note_on,94,0,9,,,,,,,,8,,,65,0
57790,note_on,94,0,11,,,,,,,,11,,,57,0
57790,note_on,46,0,6,,,,,,,,5,,,55,0
57790,note_on,46,0,1,,,,,,,,0,,,57,0
57790,note_on,94,0,12,,,,,,,,12,,,41,0
57790,note_on,94,0,5,,,,,,,,4,,,65,0
57790,note_on,94,0,10,,,,,,,,10,,,60,0
57790,note_on,94,0,2,,,,,,,,1,,,41,0
57792,note_on,2,0,6,,,,,,,,5,,,53,110
57792,note_on,2,0,5,,,,,,,,4,,,69,110
57792,note_on,2,0,1,,,,,,,,0,,,62,110
57792,note_on,2,0,2,,,,,,,,1,,,41,110
57838,note_on,46,0,1,,,,,,,,0,,,62,0
57838,note_on,46,0,6,,,,,,,,5,,,53,0
57840,note_on,2,0,1,,,,,,,,0,,,57,110
57840,note_on,2,0,6,,,,,,,,5,,,52,110
57886,note_on,94,0,2,,,,,,,,1,,,41,0
57886,note_on,94,0,5,,,,,,,,4,,,69,0
57886,note_on,46,0,6,,,,,,,,5,,,52,0
57886,note_on,46,0,1,,,,,,,,0,,,57,0
57888,note_on,2,0,6,,,,,,,,5,,,50,110
57888,note_on,2,0,2,,,,,,,,1,,,41,110
57888,note_on,2,0,5,,,,,,,,4,,,74,110
57888,note_on,2,0,1,,,,,,,,0,,,57,110
57934,note_on,46,0,1,,,,,,,,0,,,57,0
57934,note_on,46,0,6,,,,,,,,5,,,50,0
57936,note_on,2,0,6,,,,,,,,5,,,52,110
57936,note_on,2,0,1,,,,,,,,0,,,57,110
57982,note_on,46,0,1,,,,,,,,0,,,57,0
57982,note_on,94,0,5,,,,,,,,4,,,74,0
57982,note_on,46,0,6,,,,,,,,5,,,52,0
57982,note_on,94,0,2,,,,,,,,1,,,41,0
57984,note_on,2,0,5,,,,,,,,4,,,69,110
57984,note_on,2,0,2,,,,,,,,1,,,38,110
57984,note_on,2,0,1,,,,,,,,0,,,62,110
57984,note_on,2,0,6,,,,,,,,5,,,54,110
58030,note_on,46,0,6,,,,,,,,5,,,54,0
58030,note_on,46,0,1,,,,,,,,0,,,62,0
58032,note_on,2,0,1,,,,,,,,0,,,57,110
58032,note_on,2,0,6,,,,,,,,5,,,52,110
58078,note_on,46,0,1,,,,,,,,0,,,57,0
58078,note_on,94,0,5,,,,,,,,4,,,69,0
58078,note_on,94,0,2,,,,,,,,1,,,38,0
58078,note_on,46,0,6,,,,,,,,5,,,52,0
58080,note_on,2,0,2,,,,,,,,1,,,38,110
58080,note_on,2,0,1,,,,,,,,0,,,57,110
58080,note_on,2,0,6,,,,,,,,5,,,50,110
58080,note_on,2,0,5,,,,,,,,4,,,74,110
58126,note_on,46,0,1,,,,,,,,0,,,57,0
58126,note_on,46,0,6,,,,,,,,5,,,50,0
58128,note_on,2,0,1,,,,,,,,0,,,57,110
58128,note_on,2,0,6,,,,,,,,5,,,52,110
58174,note_on,46,0,6,,,,,,,,5,,,52,0
58174,note_on,46,0,1,,,,,,,,0,,,57,0
58174,note_on,94,0,2,,,,,,,,1,,,38,0
58174,note_on,94,0,5,,,,,,,,4,,,74,0
58176,note_on,2,0,5,,,,,,,,4,,,69,110
58176,note_on,2,0,6,,,,,,,,5,,,54,110
58176,note_on,2,0,2,,,,,,,,1,,,38,110
58176,note_on,2,0,1,,,,,,,,0,,,62,110
58222,note_on,46,0,1,,,,,,,,0,,,62,0
58224,note_on,2,0,1,,,,,,,,0,,,60,110
58270,note_on,94,0,5,,,,,,,,4,,,69,0
58270,note_on,46,0,1,,,,,,,,0,,,60,0
58270,note_on,94,0,6,,,,,,,,5,,,54,0
58270,note_on,94,0,2,,,,,,,,1,,,38,0
58272,note_on,2,0,1,,,,,,,,0,,,59,110
58272,note_on,482,0,10,,,,,,,,10,,,69,45
58272,note_on,2,0,6,,,,,,,,5,,,50,110
58272,note_on,2,0,5,,,,,,,,4,,,66,110
58272,note_on,482,0,11,,,,,,,,11,,,66,45
58272,note_on,482,0,9,,,,,,,,8,,,74,45
58272,note_on,482,0,12,,,,,,,,12,,,50,45
58272,note_on,2,0,2,,,,,,,,1,,,38,110
58318,note_on,46,0,1,,,,,,,,0,,,59,0
58320,note_on,2,0,1,,,,,,,,0,,,57,110
58366,note_on,46,0,1,,,,,,,,0,,,57,0
58366,note_on,94,0,11,,,,,,,,11,,,66,0
58366,note_on,94,0,9,,,,,,,,8,,,74,0
58366,note_on,94,0,5,,,,,,,,4,,,66,0
58366,note_on,94,0,2,,,,,,,,1,,,38,0
58366,note_on,94,0,12,,,,,,,,12,,,50,0
58366,note_on,94,0,10,,,,,,,,10,,,69,0
58366,note_on,94,0,6,,,,,,,,5,,,50,0
58368,note_on,2,0,11,,,,,,,,11,,,62,45
58368,note_on,2,0,1,,,,,,,,0,,,59,110
58368,note_on,2,0,10,,,,,,,,10,,,67,45
58368,note_on,2,0,2,,,,,,,,1,,,43,110
58368,note_on,2,0,9,,,,,,,,8,,,71,45
58368,note_on,2,0,6,,,,,,,,5,,,55,110
58368,note_on,2,0,5,,,,,,,,4,,,62,110
58368,note_on,2,0,12,,,,,,,,12,,,55,45
58414,note_on,46,0,1,,,,,,,,0,,,59,0
58416,note_on,2,0,1,,,,,,,,0,,,59,110
58462,note_on,94,0,9,,,,,,,,8,,,71,0
58462,note_on,46,0,1,,,,,,,,0,,,59,0
58462,note_on,94,0,6,,,,,,,,5,,,55,0
58462,note_on,94,0,5,,,,,,,,4,,,62,0
58462,note_on,94,0,11,,,,,,,,11,,,62,0
58462,note_on,94,0,12,,,,,,,,12,,,55,0
58462,note_on,94,0,2,,,,,,,,1,,,43,0
58462,note_on,94,0,10,,,,,,,,10,,,67,0
58464,note_on,2,0,1,,,,,,,,0,,,59,110
58464,note_on,2,0,2,,,,,,,,1,,,43,110
58464,note_on,3008,0,4,,,,,,,,3,,,59,110
58464,note_on,2,0,12,,,,,,,,12,,,43,45
58464,note_on,2,0,10,,,,,,,,10,,,62,45
58464,note_on,2,0,11,,,,,,,,11,,,59,45
58464,note_on,3008,0,3,,,,,,,,2,,,67,110
58464,note_on,2,0,9,,,,,,,,8,,,67,45
58510,note_on,46,0,4,,,,,,,,3,,,59,0
58510,note_on,46,0,1,,,,,,,,0,,,59,0
58512,note_on,2,0,4,,,,,,,,3,,,57,110
58512,note_on,2,0,1,,,,,,,,0,,,59,110
58558,note_on,94,0,12,,,,,,,,12,,,43,0
58558,note_on,46,0,1,,,,,,,,0,,,59,0
58558,note_on,94,0,3,,,,,,,,2,,,67,0
58558,note_on,94,0,9,,,,,,,,8,,,67,0
58558,note_on,94,0,11,,,,,,,,11,,,59,0
58558,note_on,46,0,4,,,,,,,,3,,,57,0
58558,note_on,94,0,2,,,,,,,,1,,,43,0
58558,note_on,94,0,10,,,,,,,,10,,,62,0
58560,note_on,2,0,4,,,,,,,,3,,,55,110
58560,note_on,2,0,1,,,,,,,,0,,,64,110
58560,note_on,2,0,2,,,,,,,,1,,,43,110
58560,note_on,2,0,3,,,,,,,,2,,,71,110
58606,note_on,46,0,4,,,,,,,,3,,,55,0
58606,note_on,46,0,1,,,,,,,,0,,,64,0
58608,note_on,2,0,4,,,,,,,,3,,,54,110
58608,note_on,2,0,1,,,,,,,,0,,,59,110
58654,note_on,46,0,1,,,,,,,,0,,,59,0
58654,note_on,94,0,3,,,,,,,,2,,,71,0
58654,note_on,94,0,2,,,,,,,,1,,,43,0
58654,note_on,46,0,4,,,,,,,,3,,,54,0
58656,note_on,2,0,1,,,,,,,,0,,,59,110
58656,note_on,2,0,3,,,,,,,,2,,,76,110
58656,note_on,2,0,2,,,,,,,,1,,,43,110
58656,note_on,2,0,4,,,,,,,,3,,,52,110
58702,note_on,46,0,1,,,,,,,,0,,,59,0
58702,note_on,46,0,4,,,,,,,,3,,,52,0
58704,note_on,2,0,4,,,,,,,,3,,,54,110
58704,note_on,2,0,1,,,,,,,,0,,,59,110
58750,note_on,46,0,4,,,,,,,,3,,,54,0
58750,note_on,94,0,3,,,,,,,,2,,,76,0
58750,note_on,94,0,2,,,,,,,,1,,,43,0
58750,note_on,46,0,1,,,,,,,,0,,,59,0
58752,note_on,2,0,4,,,,,,,,3,,,56,110
58752,note_on,2,0,1,,,,,,,,0,,,64,110
58752,note_on,2,0,2,,,,,,,,1,,,40,110
58752,note_on,2,0,3,,,,,,,,2,,,71,110
58798,note_on,46,0,1,,,,,,,,0,,,64,0
58798,note_on,46,0,4,,,,,,,,3,,,56,0
58800,note_on,2,0,4,,,,,,,,3,,,54,110
58800,note_on,2,0,1,,,,,,,,0,,,59,110
58846,note_on,94,0,2,,,,,,,,1,,,40,0
58846,note_on,94,0,3,,,,,,,,2,,,71,0
58846,note_on,46,0,1,,,,,,,,0,,,59,0
58846,note_on,46,0,4,,,,,,,,3,,,54,0
58848,note_on,2,0,3,,,,,,,,2,,,76,110
58848,note_on,2,0,2,,,,,,,,1,,,40,110
58848,note_on,2,0,4,,,,,,,,3,,,52,110
58848,note_on,2,0,1,,,,,,,,0,,,59,110
58894,note_on,46,0,1,,,,,,,,0,,,59,0
58894,note_on,46,0,4,,,,,,,,3,,,52,0
58896,note_on,2,0,1,,,,,,,,0,,,59,110
58896,note_on,2,0,4,,,,,,,,3,,,54,110
58942,note_on,46,0,1,,,,,,,,0,,,59,0
58942,note_on,94,0,2,,,,,,,,1,,,40,0
58942,note_on,94,0,3,,,,,,,,2,,,76,0
58942,note_on,46,0,4,,,,,,,,3,,,54,0
58944,note_on,2,0,3,,,,,,,,2,,,71,110
58944,note_on,2,0,1,,,,,,,,0,,,64,110
58944,note_on,2,0,2,,,,,,,,1,,,40,110
58944,note_on,2,0,4,,,,,,,,3,,,56,110
58990,note_on,46,0,1,,,,,,,,0,,,64,0
58992,note_on,2,0,1,,,,,,,,0,,,62,110
59038,note_on,94,0,4,,,,,,,,3,,,56,0
59038,note_on,94,0,3,,,,,,,,2,,,71,0
59038,note_on,46,0,1,,,,,,,,0,,,62,0
59038,note_on,94,0,2,,,,,,,,1,,,40,0
59040,note_on,2,0,1,,,,,,,,0,,,60,110
59040,note_on,2,0,3,,,,,,,,2,,,68,110
59040,note_on,2,0,4,,,,,,,,3,,,52,110
59040,note_on,482,0,12,,,,,,,,12,,,52,45
59040,note_on,482,0,10,,,,,,,,10,,,71,45
59040,note_on,482,0,9,,,,,,,,8,,,76,45
59040,note_on,482,0,11,,,,,,,,11,,,68,45
59040,note_on,2,0,2,,,,,,,,1,,,40,110
59086,note_on,46,0,1,,,,,,,,0,,,60,0
59088,note_on,2,0,1,,,,,,,,0,,,59,110
59134,note_on,94,0,4,,,,,,,,3,,,52,0
59134,note_on,94,0,10,,,,,,,,10,,,71,0
59134,note_on,94,0,2,,,,,,,,1,,,40,0
59134,note_on,94,0,11,,,,,,,,11,,,68,0
59134,note_on,94,0,9,,,,,,,,8,,,76,0
59134,note_on,94,0,12,,,,,,,,12,,,52,0
59134,note_on,94,0,3,,,,,,,,2,,,68,0
59134,note_on,46,0,1,,,,,,,,0,,,59,0
59136,note_on,2,0,11,,,,,,,,11,,,64,45
59136,note_on,2,0,12,,,,,,,,12,,,57,45
59136,note_on,2,0,1,,,,,,,,0,,,60,110
59136,note_on,2,0,3,,,,,,,,2,,,64,110
59136,note_on,2,0,4,,,,,,,,3,,,45,110
59136,note_on,2,0,2,,,,,,,,1,,,45,110
59136,note_on,2,0,9,,,,,,,,8,,,72,45
59136,note_on,2,0,10,,,,,,,,10,,,69,45
59182,note_on,46,0,3,,,,,,,,2,,,64,0
59184,note_on,2,0,3,,,,,,,,2,,,76,110
59230,note_on,94,0,9,,,,,,,,8,,,72,0
59230,note_on,94,0,12,,,,,,,,12,,,57,0
59230,note_on,94,0,4,,,,,,,,3,,,45,0
59230,note_on,94,0,1,,,,,,,,0,,,60,0
59230,note_on,46,0,3,,,,,,,,2,,,76,0
59230,note_on,94,0,11,,,,,,,,11,,,64,0
59230,note_on,94,0,10,,,,,,,,10,,,69,0
59232,note_on,2,0,3,,,,,,,,2,,,76,110
59232,note_on,2,0,1,,,,,,,,0,,,69,110
59232,note_on,2,0,10,,,,,,,,10,,,64,45
59232,note_on,2,0,11,,,,,,,,11,,,60,45
59232,note_on,2,0,4,,,,,,,,3,,,57,110
59232,note_on,2,0,12,,,,,,,,12,,,45,45
59232,note_on,2,0,9,,,,,,,,8,,,69,45
59278,note_on,46,0,1,,,,,,,,0,,,69,0
59278,note_on,46,0,3,,,,,,,,2,,,76,0
59280,note_on,2,0,1,,,,,,,,0,,,72,110
59280,note_on,2,0,3,,,,,,,,2,,,76,110
59296,note_on,160,0,2,,,,,,,,1,,,45,0
59326,note_on,46,0,1,,,,,,,,0,,,72,0
59326,note_on,94,0,12,,,,,,,,12,,,45,0
59326,note_on,94,0,11,,,,,,,,11,,,60,0
59326,note_on,94,0,4,,,,,,,,3,,,57,0
59326,note_on,94,0,10,,,,,,,,10,,,64,0
59326,note_on,94,0,9,,,,,,,,8,,,69,0
59326,note_on,46,0,3,,,,,,,,2,,,76,0
59328,note_on,2,0,3,,,,,,,,2,,,81,110
59328,note_on,2,0,4,,,,,,,,3,,,60,110
59328,note_on,2,0,1,,,,,,,,0,,,76,110
59374,note_on,46,0,3,,,,,,,,2,,,81,0
59376,note_on,2,0,3,,,,,,,,2,,,76,110
59422,note_on,94,0,1,,,,,,,,0,,,76,0
59422,note_on,46,0,3,,,,,,,,2,,,76,0
59422,note_on,94,0,4,,,,,,,,3,,,60,0
59424,note_on,2,0,3,,,,,,,,2,,,76,110
59424,note_on,2,0,4,,,,,,,,3,,,57,110
59424,note_on,128,0,2,,,,,,,,1,,,60,110
59424,note_on,2,0,1,,,,,,,,0,,,81,110
59470,note_on,46,0,3,,,,,,,,2,,,76,0
59472,note_on,2,0,3,,,,,,,,2,,,76,110
59518,note_on,94,0,2,,,,,,,,1,,,60,0
59518,note_on,94,0,4,,,,,,,,3,,,57,0
59518,note_on,94,0,1,,,,,,,,0,,,81,0
59518,note_on,46,0,3,,,,,,,,2,,,76,0
59520,note_on,2,0,3,,,,,,,,2,,,77,110
59520,note_on,2,0,4,,,,,,,,3,,,56,110
59520,note_on,2,0,2,,,,,,,,1,,,62,110
59566,note_on,46,0,3,,,,,,,,2,,,77,0
59568,note_on,2,0,3,,,,,,,,2,,,76,110
59614,note_on,94,0,2,,,,,,,,1,,,62,0
59614,note_on,46,0,3,,,,,,,,2,,,76,0
59614,note_on,94,0,4,,,,,,,,3,,,56,0
59616,note_on,2,0,2,,,,,,,,1,,,60,110
59616,note_on,2,0,3,,,,,,,,2,,,76,110
59616,note_on,98,0,1,,,,,,,,0,,,69,110
59616,note_on,2,0,4,,,,,,,,3,,,57,110
59662,note_on,46,0,1,,,,,,,,0,,,69,0
59662,note_on,46,0,3,,,,,,,,2,,,76,0
59664,note_on,2,0,3,,,,,,,,2,,,76,110
59664,note_on,2,0,1,,,,,,,,0,,,72,110
59710,note_on,94,0,2,,,,,,,,1,,,60,0
59710,note_on,46,0,3,,,,,,,,2,,,76,0
59710,note_on,94,0,4,,,,,,,,3,,,57,0
59710,note_on,46,0,1,,,,,,,,0,,,72,0
59712,note_on,2,0,3,,,,,,,,2,,,81,110
59712,note_on,2,0,1,,,,,,,,0,,,76,110
59712,note_on,2,0,4,,,,,,,,3,,,45,110
59758,note_on,46,0,3,,,,,,,,2,,,81,0
59760,note_on,2,0,3,,,,,,,,2,,,76,110
59806,note_on,94,0,4,,,,,,,,3,,,45,0
59806,note_on,46,0,3,,,,,,,,2,,,76,0
59806,note_on,94,0,1,,,,,,,,0,,,76,0
59808,note_on,482,0,11,,,,,,,,11,,,60,45
59808,note_on,2,0,4,,,,,,,,3,,,57,110
59808,note_on,2,0,1,,,,,,,,0,,,79,110
59808,note_on,482,0,12,,,,,,,,12,,,57,45
59808,note_on,482,0,10,,,,,,,,10,,,69,45
59808,note_on,482,0,9,,,,,,,,8,,,76,45
59808,note_on,2,0,3,,,,,,,,2,,,76,110
59808,note_on,98,0,2,,,,,,,,1,,,60,110
59854,note_on,46,0,3,,,,,,,,2,,,76,0
59856,note_on,2,0,3,,,,,,,,2,,,76,110
59902,note_on,94,0,9,,,,,,,,8,,,76,0
59902,note_on,94,0,12,,,,,,,,12,,,57,0
59902,note_on,94,0,4,,,,,,,,3,,,57,0
59902,note_on,46,0,3,,,,,,,,2,,,76,0
59902,note_on,94,0,2,,,,,,,,1,,,60,0
59902,note_on,94,0,1,,,,,,,,0,,,79,0
59902,note_on,94,0,10,,,,,,,,10,,,69,0
59902,note_on,94,0,11,,,,,,,,11,,,60,0
59904,note_on,2,0,4,,,,,,,,3,,,50,110
59904,note_on,2,0,9,,,,,,,,8,,,77,45
59904,note_on,2,0,10,,,,,,,,10,,,69,45
59904,note_on,2,0,11,,,,,,,,11,,,60,45
59904,note_on,2,0,3,,,,,,,,2,,,77,110
59904,note_on,2,0,12,,,,,,,,12,,,50,45
59904,note_on,2,0,2,,,,,,,,1,,,60,110
59950,note_on,46,0,3,,,,,,,,2,,,77,0
59952,note_on,48,0,9,,,,,,,,8,,,77,0
59952,note_on,0,0,9,,,,,,,,8,,,76,45
59952,note_on,2,0,3,,,,,,,,2,,,74,110
59998,note_on,46,0,3,,,,,,,,2,,,74,0
59998,note_on,94,0,12,,,,,,,,12,,,50,0
59998,note_on,94,0,4,,,,,,,,3,,,50,0
59998,note_on,94,0,2,,,,,,,,1,,,60,0
60000,note_on,2,0,3,,,,,,,,2,,,74,110
60000,note_on,2,0,2,,,,,,,,1,,,59,110
60000,note_on,96,0,10,,,,,,,,10,,,69,0
60000,note_on,0,0,10,,,,,,,,10,,,67,45
60000,note_on,2,0,4,,,,,,,,3,,,55,110
60000,note_on,0,0,9,,,,,,,,8,,,77,45
60000,note_on,96,0,11,,,,,,,,11,,,60,0
60000,note_on,2,0,12,,,,,,,,12,,,55,45
60000,note_on,98,0,1,,,,,,,,0,,,67,110
60000,note_on,48,0,9,,,,,,,,8,,,76,0
60000,note_on,0,0,11,,,,,,,,11,,,59,45
60046,note_on,46,0,1,,,,,,,,0,,,67,0
60046,note_on,46,0,3,,,,,,,,2,,,74,0
60048,note_on,2,0,3,,,,,,,,2,,,74,110
60048,note_on,2,0,1,,,,,,,,0,,,71,110
60094,note_on,46,0,3,,,,,,,,2,,,74,0
60094,note_on,94,0,10,,,,,,,,10,,,67,0
60094,note_on,94,0,12,,,,,,,,12,,,55,0
60094,note_on,46,0,1,,,,,,,,0,,,71,0
60094,note_on,94,0,4,,,,,,,,3,,,55,0
60094,note_on,94,0,2,,,,,,,,1,,,59,0
60094,note_on,94,0,9,,,,,,,,8,,,77,0
60094,note_on,94,0,11,,,,,,,,11,,,59,0
60096,note_on,2,0,1,,,,,,,,0,,,74,110
60096,note_on,2,0,3,,,,,,,,2,,,79,110
60096,note_on,2,0,4,,,,,,,,3,,,59,110
60142,note_on,46,0,3,,,,,,,,2,,,79,0
60144,note_on,2,0,3,,,,,,,,2,,,74,110
60190,note_on,94,0,1,,,,,,,,0,,,74,0
60190,note_on,46,0,3,,,,,,,,2,,,74,0
60190,note_on,94,0,4,,,,,,,,3,,,59,0
60192,note_on,98,0,2,,,,,,,,1,,,59,110
60192,note_on,2,0,1,,,,,,,,0,,,79,110
60192,note_on,2,0,3,,,,,,,,2,,,74,110
60192,note_on,2,0,4,,,,,,,,3,,,55,110
60238,note_on,46,0,3,,,,,,,,2,,,74,0
60240,note_on,2,0,3,,,,,,,,2,,,74,110
60286,note_on,46,0,3,,,,,,,,2,,,74,0
60286,note_on,94,0,1,,,,,,,,0,,,79,0
60286,note_on,94,0,4,,,,,,,,3,,,55,0
60286,note_on,94,0,2,,,,,,,,1,,,59,0
60288,note_on,2,0,4,,,,,,,,3,,,54,110
60288,note_on,2,0,2,,,,,,,,1,,,60,110
60288,note_on,2,0,3,,,,,,,,2,,,76,110
60334,note_on,46,0,3,,,,,,,,2,,,76,0
60336,note_on,2,0,3,,,,,,,,2,,,74,110
60382,note_on,94,0,4,,,,,,,,3,,,54,0
60382,note_on,94,0,2,,,,,,,,1,,,60,0
60382,note_on,46,0,3,,,,,,,,2,,,74,0
60384,note_on,98,0,1,,,,,,,,0,,,67,110
60384,note_on,2,0,4,,,,,,,,3,,,55,110
60384,note_on,2,0,2,,,,,,,,1,,,59,110
60384,note_on,2,0,3,,,,,,,,2,,,74,110
60430,note_on,46,0,3,,,,,,,,2,,,74,0
60430,note_on,46,0,1,,,,,,,,0,,,67,0
60432,note_on,2,0,3,,,,,,,,2,,,74,110
60432,note_on,2,0,1,,,,,,,,0,,,71,110
60478,note_on,46,0,3,,,,,,,,2,,,74,0
60478,note_on,94,0,4,,,,,,,,3,,,55,0
60478,note_on,46,0,1,,,,,,,,0,,,71,0
60478,note_on,94,0,2,,,,,,,,1,,,59,0
60480,note_on,2,0,3,,,,,,,,2,,,79,110
60480,note_on,2,0,4,,,,,,,,3,,,43,110
60480,note_on,2,0,1,,,,,,,,0,,,74,110
60526,note_on,46,0,3,,,,,,,,2,,,79,0
60528,note_on,2,0,3,,,,,,,,2,,,74,110
60574,note_on,46,0,3,,,,,,,,2,,,74,0
60574,note_on,94,0,4,,,,,,,,3,,,43,0
60574,note_on,94,0,1,,,,,,,,0,,,74,0
60576,note_on,482,0,11,,,,,,,,11,,,58,45
60576,note_on,482,0,10,,,,,,,,10,,,67,45
60576,note_on,2,0,3,,,,,,,,2,,,74,110
60576,note_on,2,0,1,,,,,,,,0,,,77,110
60576,note_on,482,0,9,,,,,,,,8,,,74,45
60576,note_on,482,0,12,,,,,,,,12,,,55,45
60576,note_on,98,0,2,,,,,,,,1,,,58,110
60576,note_on,2,0,4,,,,,,,,3,,,55,110
60622,note_on,46,0,3,,,,,,,,2,,,74,0
60624,note_on,2,0,3,,,,,,,,2,,,74,110
60670,note_on,94,0,10,,,,,,,,10,,,67,0
60670,note_on,94,0,4,,,,,,,,3,,,55,0
60670,note_on,46,0,3,,,,,,,,2,,,74,0
60670,note_on,94,0,1,,,,,,,,0,,,77,0
60670,note_on,94,0,2,,,,,,,,1,,,58,0
60670,note_on,94,0,9,,,,,,,,8,,,74,0
60670,note_on,94,0,12,,,,,,,,12,,,55,0
60670,note_on,94,0,11,,,,,,,,11,,,58,0
60672,note_on,2,0,9,,,,,,,,8,,,76,45
60672,note_on,2,0,12,,,,,,,,12,,,48,45
60672,note_on,2,0,11,,,,,,,,11,,,58,45
60672,note_on,2,0,10,,,,,,,,10,,,67,45
60672,note_on,2,0,2,,,,,,,,1,,,58,110
60672,note_on,2,0,3,,,,,,,,2,,,76,110
60672,note_on,2,0,4,,,,,,,,3,,,48,110
60718,note_on,46,0,3,,,,,,,,2,,,76,0
60720,note_on,2,0,3,,,,,,,,2,,,72,110
60720,note_on,48,0,9,,,,,,,,8,,,76,0
60720,note_on,0,0,9,,,,,,,,8,,,74,45
60766,note_on,94,0,12,,,,,,,,12,,,48,0
60766,note_on,46,0,3,,,,,,,,2,,,72,0
60766,note_on,94,0,2,,,,,,,,1,,,58,0
60766,note_on,94,0,4,,,,,,,,3,,,48,0
60768,note_on,2,0,3,,,,,,,,2,,,72,110
60768,note_on,96,0,10,,,,,,,,10,,,67,0
60768,note_on,0,0,10,,,,,,,,10,,,65,45
60768,note_on,96,0,11,,,,,,,,11,,,58,0
60768,note_on,98,0,1,,,,,,,,0,,,65,110
60768,note_on,2,0,4,,,,,,,,3,,,53,110
60768,note_on,2,0,2,,,,,,,,1,,,57,110
60768,note_on,2,0,12,,,,,,,,12,,,53,45
60768,note_on,0,0,11,,,,,,,,11,,,57,45
60768,note_on,48,0,9,,,,,,,,8,,,74,0
60768,note_on,0,0,9,,,,,,,,8,,,76,45
60814,note_on,46,0,3,,,,,,,,2,,,72,0
60814,note_on,46,0,1,,,,,,,,0,,,65,0
60816,note_on,2,0,3,,,,,,,,2,,,72,110
60816,note_on,2,0,1,,,,,,,,0,,,69,110
60862,note_on,94,0,9,,,,,,,,8,,,76,0
60862,note_on,94,0,4,,,,,,,,3,,,53,0
60862,note_on,94,0,2,,,,,,,,1,,,57,0
60862,note_on,46,0,3,,,,,,,,2,,,72,0
60862,note_on,94,0,12,,,,,,,,12,,,53,0
60862,note_on,94,0,11,,,,,,,,11,,,57,0
60862,note_on,94,0,10,,,,,,,,10,,,65,0
60862,note_on,46,0,1,,,,,,,,0,,,69,0
60864,note_on,2,0,4,,,,,,,,3,,,57,110
60864,note_on,2,0,1,,,,,,,,0,,,72,110
60864,note_on,2,0,3,,,,,,,,2,,,77,110
60910,note_on,46,0,3,,,,,,,,2,,,77,0
60912,note_on,2,0,3,,,,,,,,2,,,72,110
60958,note_on,94,0,4,,,,,,,,3,,,57,0
60958,note_on,94,0,1,,,,,,,,0,,,72,0
60958,note_on,46,0,3,,,,,,,,2,,,72,0
60960,note_on,98,0,2,,,,,,,,1,,,57,110
60960,note_on,2,0,1,,,,,,,,0,,,77,110
60960,note_on,2,0,3,,,,,,,,2,,,72,110
60960,note_on,2,0,4,,,,,,,,3,,,53,110
61006,note_on,46,0,3,,,,,,,,2,,,72,0
61008,note_on,2,0,3,,,,,,,,2,,,72,110
61054,note_on,94,0,2,,,,,,,,1,,,57,0
61054,note_on,46,0,3,,,,,,,,2,,,72,0
61054,note_on,94,0,1,,,,,,,,0,,,77,0
61054,note_on,94,0,4,,,,,,,,3,,,53,0
61056,note_on,2,0,2,,,,,,,,1,,,58,110
61056,note_on,2,0,3,,,,,,,,2,,,74,110
61056,note_on,2,0,4,,,,,,,,3,,,52,110
61102,note_on,46,0,3,,,,,,,,2,,,74,0
61104,note_on,2,0,3,,,,,,,,2,,,72,110
61150,note_on,94,0,4,,,,,,,,3,,,52,0
61150,note_on,46,0,3,,,,,,,,2,,,72,0
61150,note_on,94,0,2,,,,,,,,1,,,58,0
61152,note_on,98,0,1,,,,,,,,0,,,65,110
61152,note_on,2,0,4,,,,,,,,3,,,53,110
61152,note_on,2,0,2,,,,,,,,1,,,57,110
61152,note_on,2,0,3,,,,,,,,2,,,72,110
61198,note_on,46,0,3,,,,,,,,2,,,72,0
61198,note_on,46,0,1,,,,,,,,0,,,65,0
61200,note_on,2,0,3,,,,,,,,2,,,72,110
61200,note_on,2,0,1,,,,,,,,0,,,69,110
61246,note_on,46,0,3,,,,,,,,2,,,72,0
61246,note_on,46,0,1,,,,,,,,0,,,69,0
61246,note_on,94,0,2,,,,,,,,1,,,57,0
61246,note_on,94,0,4,,,,,,,,3,,,53,0
61248,note_on,2,0,4,,,,,,,,3,,,41,110
61248,note_on,2,0,3,,,,,,,,2,,,77,110
61248,note_on,2,0,1,,,,,,,,0,,,72,110
61294,note_on,46,0,3,,,,,,,,2,,,77,0
61296,note_on,2,0,3,,,,,,,,2,,,72,110
61342,note_on,94,0,4,,,,,,,,3,,,41,0
61342,note_on,46,0,3,,,,,,,,2,,,72,0
61342,note_on,94,0,1,,,,,,,,0,,,72,0
61344,note_on,2,0,3,,,,,,,,2,,,72,110
61344,note_on,482,0,10,,,,,,,,10,,,65,45
61344,note_on,2,0,1,,,,,,,,0,,,76,110
61344,note_on,482,0,11,,,,,,,,11,,,57,45
61344,note_on,482,0,12,,,,,,,,12,,,53,45
61344,note_on,482,0,9,,,,,,,,8,,,72,45
61344,note_on,98,0,2,,,,,,,,1,,,57,110
61344,note_on,2,0,4,,,,,,,,3,,,53,110
61390,note_on,46,0,3,,,,,,,,2,,,72,0
61392,note_on,2,0,3,,,,,,,,2,,,72,110
61438,note_on,94,0,10,,,,,,,,10,,,65,0
61438,note_on,94,0,12,,,,,,,,12,,,53,0
61438,note_on,94,0,9,,,,,,,,8,,,72,0
61438,note_on,94,0,4,,,,,,,,3,,,53,0
61438,note_on,94,0,1,,,,,,,,0,,,76,0
61438,note_on,94,0,2,,,,,,,,1,,,57,0
61438,note_on,46,0,3,,,,,,,,2,,,72,0
61438,note_on,94,0,11,,,,,,,,11,,,57,0
61440,note_on,2,0,3,,,,,,,,2,,,74,110
61440,note_on,2,0,2,,,,,,,,1,,,57,110
61440,note_on,2,0,9,,,,,,,,8,,,74,45
61440,note_on,2,0,12,,,,,,,,12,,,47,45
61440,note_on,2,0,11,,,,,,,,11,,,57,45
61440,note_on,2,0,10,,,,,,,,10,,,65,45
61440,note_on,2,0,4,,,,,,,,3,,,47,110
61486,note_on,46,0,3,,,,,,,,2,,,74,0
61488,note_on,2,0,3,,,,,,,,2,,,71,110
61488,note_on,48,0,9,,,,,,,,8,,,74,0
61488,note_on,0,0,9,,,,,,,,8,,,72,45
61534,note_on,46,0,3,,,,,,,,2,,,71,0
61534,note_on,94,0,12,,,,,,,,12,,,47,0
61534,note_on,94,0,2,,,,,,,,1,,,57,0
61534,note_on,94,0,4,,,,,,,,3,,,47,0
61536,note_on,48,0,9,,,,,,,,8,,,72,0
61536,note_on,96,0,11,,,,,,,,11,,,57,0
61536,note_on,0,0,11,,,,,,,,11,,,56,45
61536,note_on,2,0,2,,,,,,,,1,,,56,110
61536,note_on,2,0,3,,,,,,,,2,,,71,110
61536,note_on,2,0,12,,,,,,,,12,,,52,45
61536,note_on,2,0,4,,,,,,,,3,,,52,110
61536,note_on,0,0,10,,,,,,,,10,,,64,45
61536,note_on,96,0,10,,,,,,,,10,,,65,0
61536,note_on,0,0,9,,,,,,,,8,,,74,45
61536,note_on,98,0,1,,,,,,,,0,,,64,110
61582,note_on,46,0,3,,,,,,,,2,,,71,0
61582,note_on,46,0,1,,,,,,,,0,,,64,0
61584,note_on,2,0,1,,,,,,,,0,,,68,110
61584,note_on,2,0,3,,,,,,,,2,,,71,110
61630,note_on,94,0,9,,,,,,,,8,,,74,0
61630,note_on,94,0,2,,,,,,,,1,,,56,0
61630,note_on,46,0,1,,,,,,,,0,,,68,0
61630,note_on,94,0,4,,,,,,,,3,,,52,0
61630,note_on,94,0,12,,,,,,,,12,,,52,0
61630,note_on,94,0,11,,,,,,,,11,,,56,0
61630,note_on,46,0,3,,,,,,,,2,,,71,0
61630,note_on,94,0,10,,,,,,,,10,,,64,0
61632,note_on,2,0,1,,,,,,,,0,,,71,110
61632,note_on,2,0,4,,,,,,,,3,,,56,110
61632,note_on,2,0,3,,,,,,,,2,,,76,110
61678,note_on,46,0,3,,,,,,,,2,,,76,0
61680,note_on,2,0,3,,,,,,,,2,,,71,110
61726,note_on,46,0,3,,,,,,,,2,,,71,0
61726,note_on,94,0,1,,,,,,,,0,,,71,0
61726,note_on,94,0,4,,,,,,,,3,,,56,0
61728,note_on,2,0,3,,,,,,,,2,,,71,110
61728,note_on,98,0,2,,,,,,,,1,,,56,110
61728,note_on,2,0,1,,,,,,,,0,,,76,110
61728,note_on,2,0,4,,,,,,,,3,,,52,110
61774,note_on,46,0,3,,,,,,,,2,,,71,0
61776,note_on,2,0,3,,,,,,,,2,,,71,110
61822,note_on,94,0,2,,,,,,,,1,,,56,0
61822,note_on,94,0,4,,,,,,,,3,,,52,0
61822,note_on,94,0,1,,,,,,,,0,,,76,0
61822,note_on,46,0,3,,,,,,,,2,,,71,0
61824,note_on,2,0,4,,,,,,,,3,,,51,110
61824,note_on,2,0,3,,,,,,,,2,,,72,110
61824,note_on,2,0,2,,,,,,,,1,,,57,110
61870,note_on,46,0,3,,,,,,,,2,,,72,0
61872,note_on,2,0,3,,,,,,,,2,,,71,110
61918,note_on,94,0,2,,,,,,,,1,,,57,0
61918,note_on,94,0,4,,,,,,,,3,,,51,0
61918,note_on,46,0,3,,,,,,,,2,,,71,0
61920,note_on,98,0,1,,,,,,,,0,,,64,110
61920,note_on,2,0,4,,,,,,,,3,,,52,110
61920,note_on,2,0,2,,,,,,,,1,,,56,110
61920,note_on,2,0,3,,,,,,,,2,,,71,110
61966,note_on,46,0,1,,,,,,,,0,,,64,0
61966,note_on,46,0,3,,,,,,,,2,,,71,0
61968,note_on,2,0,3,,,,,,,,2,,,71,110
61968,note_on,2,0,1,,,,,,,,0,,,68,110
62014,note_on,94,0,2,,,,,,,,1,,,56,0
62014,note_on,94,0,4,,,,,,,,3,,,52,0
62014,note_on,46,0,3,,,,,,,,2,,,71,0
62014,note_on,46,0,1,,,,,,,,0,,,68,0
62016,note_on,2,0,4,,,,,,,,3,,,40,110
62016,note_on,2,0,3,,,,,,,,2,,,76,110
62016,note_on,2,0,1,,,,,,,,0,,,71,110
62062,note_on,46,0,3,,,,,,,,2,,,76,0
62064,note_on,2,0,3,,,,,,,,2,,,71,110
62110,note_on,94,0,1,,,,,,,,0,,,71,0
62110,note_on,94,0,4,,,,,,,,3,,,40,0
62110,note_on,46,0,3,,,,,,,,2,,,71,0
62112,note_on,98,0,2,,,,,,,,1,,,56,110
62112,note_on,2,0,4,,,,,,,,3,,,52,110
62112,note_on,2,0,1,,,,,,,,0,,,74,110
62112,note_on,2,0,3,,,,,,,,2,,,71,110
62112,note_on,482,0,9,,,,,,,,8,,,71,45
62112,note_on,482,0,11,,,,,,,,11,,,56,45
62112,note_on,482,0,12,,,,,,,,12,,,52,45
62112,note_on,482,0,10,,,,,,,,10,,,64,45
62158,note_on,46,0,3,,,,,,,,2,,,71,0
62160,note_on,2,0,3,,,,,,,,2,,,71,110
62206,note_on,94,0,4,,,,,,,,3,,,52,0
62206,note_on,94,0,11,,,,,,,,11,,,56,0
62206,note_on,94,0,2,,,,,,,,1,,,56,0
62206,note_on,94,0,10,,,,,,,,10,,,64,0
62206,note_on,46,0,3,,,,,,,,2,,,71,0
62206,note_on,94,0,12,,,,,,,,12,,,52,0
62206,note_on,94,0,1,,,,,,,,0,,,74,0
62206,note_on,94,0,9,,,,,,,,8,,,71,0
62208,note_on,2,0,1,,,,,,,,0,,,72,110
62208,note_on,2,0,9,,,,,,,,8,,,72,45
62208,note_on,2,0,4,,,,,,,,3,,,45,110
62208,note_on,2,0,11,,,,,,,,11,,,57,45
62208,note_on,2,0,2,,,,,,,,1,,,57,110
62208,note_on,3746,0,6,,,,,,,,5,,,45,110
62208,note_on,4514,0,8,,,,,,,,7,,,57,110
62208,note_on,2,0,10,,,,,,,,10,,,64,45
62208,note_on,2,0,12,,,,,,,,12,,,57,45
62208,note_on,2,0,3,,,,,,,,2,,,72,110
62254,note_on,46,0,1,,,,,,,,0,,,72,0
62254,note_on,46,0,8,,,,,,,,7,,,57,0
62256,note_on,48,0,9,,,,,,,,8,,,72,0
62256,note_on,0,0,9,,,,,,,,8,,,71,45
62256,note_on,2,0,1,,,,,,,,0,,,74,110
62256,note_on,2,0,8,,,,,,,,7,,,59,110
62256,note_on,3794,0,5,,,,,,,,4,,,76,110
62302,note_on,46,0,8,,,,,,,,7,,,59,0
62302,note_on,94,0,3,,,,,,,,2,,,72,0
62302,note_on,94,0,12,,,,,,,,12,,,57,0
62302,note_on,46,0,5,,,,,,,,4,,,76,0
62302,note_on,94,0,6,,,,,,,,5,,,45,0
62302,note_on,94,0,10,,,,,,,,10,,,64,0
62302,note_on,94,0,2,,,,,,,,1,,,57,0
62302,note_on,94,0,11,,,,,,,,11,,,57,0
62302,note_on,46,0,1,,,,,,,,0,,,74,0
62304,note_on,2,0,1,,,,,,,,0,,,76,110
62304,note_on,4610,0,7,,,,,,,,6,,,69,110
62304,note_on,2,0,8,,,,,,,,7,,,60,110
62304,note_on,2,0,3,,,,,,,,2,,,69,110
62304,note_on,2,0,6,,,,,,,,5,,,57,110
62304,note_on,48,0,9,,,,,,,,8,,,71,0
62304,note_on,0,0,9,,,,,,,,8,,,69,45
62304,note_on,2,0,11,,,,,,,,11,,,52,45
62304,note_on,2,0,12,,,,,,,,12,,,45,45
62304,note_on,2,0,10,,,,,,,,10,,,60,45
62304,note_on,2,0,2,,,,,,,,1,,,45,110
62304,note_on,2,0,5,,,,,,,,4,,,76,110
62350,note_on,46,0,5,,,,,,,,4,,,76,0
62350,note_on,46,0,7,,,,,,,,6,,,69,0
62350,note_on,46,0,1,,,,,,,,0,,,76,0
62352,note_on,2,0,5,,,,,,,,4,,,76,110
62352,note_on,2,0,7,,,,,,,,6,,,72,110
62352,note_on,2,0,1,,,,,,,,0,,,72,110
62368,note_on,160,0,4,,,,,,,,3,,,45,0
62398,note_on,94,0,10,,,,,,,,10,,,60,0
62398,note_on,94,0,12,,,,,,,,12,,,45,0
62398,note_on,94,0,9,,,,,,,,8,,,69,0
62398,note_on,46,0,1,,,,,,,,0,,,72,0
62398,note_on,46,0,5,,,,,,,,4,,,76,0
62398,note_on,94,0,3,,,,,,,,2,,,69,0
62398,note_on,46,0,7,,,,,,,,6,,,72,0
62398,note_on,94,0,11,,,,,,,,11,,,52,0
62398,note_on,94,0,6,,,,,,,,5,,,57,0
62398,note_on,94,0,2,,,,,,,,1,,,45,0
62398,note_on,94,0,8,,,,,,,,7,,,60,0
62400,note_on,2,0,5,,,,,,,,4,,,81,110
62400,note_on,2,0,1,,,,,,,,0,,,69,110
62400,note_on,2,0,6,,,,,,,,5,,,60,110
62400,note_on,2,0,7,,,,,,,,6,,,76,110
62446,note_on,46,0,5,,,,,,,,4,,,81,0
62448,note_on,2,0,5,,,,,,,,4,,,76,110
62494,note_on,94,0,1,,,,,,,,0,,,69,0
62494,note_on,46,0,5,,,,,,,,4,,,76,0
62494,note_on,94,0,6,,,,,,,,5,,,60,0
62494,note_on,94,0,7,,,,,,,,6,,,76,0
62496,note_on,98,0,8,,,,,,,,7,,,60,110
62496,note_on,2,0,7,,,,,,,,6,,,81,110
62496,note_on,2,0,6,,,,,,,,5,,,57,110
62496,note_on,2,0,5,,,,,,,,4,,,76,110
62542,note_on,46,0,5,,,,,,,,4,,,76,0
62544,note_on,2,0,5,,,,,,,,4,,,76,110
62590,note_on,46,0,5,,,,,,,,4,,,76,0
62590,note_on,94,0,8,,,,,,,,7,,,60,0
62590,note_on,94,0,7,,,,,,,,6,,,81,0
62590,note_on,94,0,6,,,,,,,,5,,,57,0
62592,note_on,2,0,6,,,,,,,,5,,,56,110
62592,note_on,2,0,8,,,,,,,,7,,,62,110
62592,note_on,2,0,5,,,,,,,,4,,,77,110
62638,note_on,46,0,5,,,,,,,,4,,,77,0
62640,note_on,2,0,5,,,,,,,,4,,,76,110
62686,note_on,46,0,5,,,,,,,,4,,,76,0
62686,note_on,94,0,8,,,,,,,,7,,,62,0
62686,note_on,94,0,6,,,,,,,,5,,,56,0
62688,note_on,98,0,7,,,,,,,,6,,,69,110
62688,note_on,2,0,6,,,,,,,,5,,,57,110
62688,note_on,2,0,5,,,,,,,,4,,,76,110
62688,note_on,2,0,8,,,,,,,,7,,,60,110
62734,note_on,46,0,7,,,,,,,,6,,,69,0
62734,note_on,46,0,5,,,,,,,,4,,,76,0
62736,note_on,2,0,7,,,,,,,,6,,,72,110
62736,note_on,2,0,5,,,,,,,,4,,,76,110
62782,note_on,46,0,5,,,,,,,,4,,,76,0
62782,note_on,94,0,6,,,,,,,,5,,,57,0
62782,note_on,94,0,8,,,,,,,,7,,,60,0
62782,note_on,46,0,7,,,,,,,,6,,,72,0
62784,note_on,2,0,5,,,,,,,,4,,,81,110
62784,note_on,2,0,6,,,,,,,,5,,,45,110
62784,note_on,2,0,7,,,,,,,,6,,,76,110
62830,note_on,46,0,5,,,,,,,,4,,,81,0
62832,note_on,2,0,5,,,,,,,,4,,,76,110
62878,note_on,94,0,6,,,,,,,,5,,,45,0
62878,note_on,94,0,7,,,,,,,,6,,,76,0
62878,note_on,46,0,5,,,,,,,,4,,,76,0
62880,note_on,2,0,5,,,,,,,,4,,,76,110
62880,note_on,482,0,9,,,,,,,,8,,,69,45
62880,note_on,482,0,12,,,,,,,,12,,,45,45
62880,note_on,2,0,6,,,,,,,,5,,,57,110
62880,note_on,98,0,8,,,,,,,,7,,,60,110
62880,note_on,482,0,10,,,,,,,,10,,,60,45
62880,note_on,2,0,7,,,,,,,,6,,,79,110
62880,note_on,482,0,11,,,,,,,,11,,,64,45
62926,note_on,46,0,5,,,,,,,,4,,,76,0
62928,note_on,2,0,5,,,,,,,,4,,,76,110
62974,note_on,94,0,8,,,,,,,,7,,,60,0
62974,note_on,94,0,7,,,,,,,,6,,,79,0
62974,note_on,46,0,5,,,,,,,,4,,,76,0
62974,note_on,94,0,10,,,,,,,,10,,,60,0
62974,note_on,94,0,6,,,,,,,,5,,,57,0
62974,note_on,94,0,9,,,,,,,,8,,,69,0
62974,note_on,94,0,11,,,,,,,,11,,,64,0
62974,note_on,94,0,12,,,,,,,,12,,,45,0
62976,note_on,2,0,8,,,,,,,,7,,,60,110
62976,note_on,2,0,5,,,,,,,,4,,,77,110
62976,note_on,2,0,12,,,,,,,,12,,,50,45
62976,note_on,2,0,11,,,,,,,,11,,,62,45
62976,note_on,2,0,10,,,,,,,,10,,,60,45
62976,note_on,2,0,6,,,,,,,,5,,,50,110
62976,note_on,2,0,9,,,,,,,,8,,,69,45
63022,note_on,46,0,5,,,,,,,,4,,,77,0
63024,note_on,2,0,5,,,,,,,,4,,,74,110
63070,note_on,94,0,12,,,,,,,,12,,,50,0
63070,note_on,94,0,8,,,,,,,,7,,,60,0
63070,note_on,46,0,5,,,,,,,,4,,,74,0
63070,note_on,94,0,6,,,,,,,,5,,,50,0
63072,note_on,96,0,9,,,,,,,,8,,,69,0
63072,note_on,98,0,7,,,,,,,,6,,,67,110
63072,note_on,2,0,5,,,,,,,,4,,,74,110
63072,note_on,0,0,11,,,,,,,,11,,,62,45
63072,note_on,0,0,9,,,,,,,,8,,,67,45
63072,note_on,0,0,10,,,,,,,,10,,,59,45
63072,note_on,96,0,10,,,,,,,,10,,,60,0
63072,note_on,2,0,6,,,,,,,,5,,,55,110
63072,note_on,2,0,8,,,,,,,,7,,,59,110
63072,note_on,96,0,11,,,,,,,,11,,,62,0
63072,note_on,2,0,12,,,,,,,,12,,,43,45
63118,note_on,46,0,5,,,,,,,,4,,,74,0
63118,note_on,46,0,7,,,,,,,,6,,,67,0
63120,note_on,2,0,7,,,,,,,,6,,,71,110
63120,note_on,2,0,5,,,,,,,,4,,,74,110
63166,note_on,94,0,10,,,,,,,,10,,,59,0
63166,note_on,94,0,9,,,,,,,,8,,,67,0
63166,note_on,94,0,6,,,,,,,,5,,,55,0
63166,note_on,94,0,11,,,,,,,,11,,,62,0
63166,note_on,46,0,7,,,,,,,,6,,,71,0
63166,note_on,46,0,5,,,,,,,,4,,,74,0
63166,note_on,94,0,8,,,,,,,,7,,,59,0
63166,note_on,94,0,12,,,,,,,,12,,,43,0
63168,note_on,2,0,6,,,,,,,,5,,,59,110
63168,note_on,2,0,7,,,,,,,,6,,,74,110
63168,note_on,2,0,5,,,,,,,,4,,,79,110
63214,note_on,46,0,5,,,,,,,,4,,,79,0
63216,note_on,2,0,5,,,,,,,,4,,,74,110
63262,note_on,94,0,6,,,,,,,,5,,,59,0
63262,note_on,94,0,7,,,,,,,,6,,,74,0
63262,note_on,46,0,5,,,,,,,,4,,,74,0
63264,note_on,2,0,6,,,,,,,,5,,,55,110
63264,note_on,98,0,8,,,,,,,,7,,,59,110
63264,note_on,2,0,7,,,,,,,,6,,,79,110
63264,note_on,2,0,5,,,,,,,,4,,,74,110
63310,note_on,46,0,5,,,,,,,,4,,,74,0
63312,note_on,2,0,5,,,,,,,,4,,,74,110
63358,note_on,94,0,7,,,,,,,,6,,,79,0
63358,note_on,94,0,6,,,,,,,,5,,,55,0
63358,note_on,46,0,5,,,,,,,,4,,,74,0
63358,note_on,94,0,8,,,,,,,,7,,,59,0
63360,note_on,2,0,5,,,,,,,,4,,,76,110
63360,note_on,2,0,8,,,,,,,,7,,,60,110
63360,note_on,2,0,6,,,,,,,,5,,,54,110
63406,note_on,46,0,5,,,,,,,,4,,,76,0
63408,note_on,2,0,5,,,,,,,,4,,,74,110
63454,note_on,94,0,6,,,,,,,,5,,,54,0
63454,note_on,46,0,5,,,,,,,,4,,,74,0
63454,note_on,94,0,8,,,,,,,,7,,,60,0
63456,note_on,2,0,5,,,,,,,,4,,,74,110
63456,note_on,98,0,7,,,,,,,,6,,,67,110
63456,note_on,2,0,8,,,,,,,,7,,,59,110
63456,note_on,2,0,6,,,,,,,,5,,,55,110
63502,note_on,46,0,5,,,,,,,,4,,,74,0
63502,note_on,46,0,7,,,,,,,,6,,,67,0
63504,note_on,2,0,5,,,,,,,,4,,,74,110
63504,note_on,2,0,7,,,,,,,,6,,,71,110
63550,note_on,46,0,7,,,,,,,,6,,,71,0
63550,note_on,46,0,5,,,,,,,,4,,,74,0
63550,note_on,94,0,6,,,,,,,,5,,,55,0
63550,note_on,94,0,8,,,,,,,,7,,,59,0
63552,note_on,2,0,5,,,,,,,,4,,,79,110
63552,note_on,2,0,7,,,,,,,,6,,,74,110
63552,note_on,2,0,6,,,,,,,,5,,,43,110
63598,note_on,46,0,5,,,,,,,,4,,,79,0
63600,note_on,2,0,5,,,,,,,,4,,,74,110
63646,note_on,94,0,7,,,,,,,,6,,,74,0
63646,note_on,46,0,5,,,,,,,,4,,,74,0
63646,note_on,94,0,6,,,,,,,,5,,,43,0
63648,note_on,482,0,9,,,,,,,,8,,,67,45
63648,note_on,482,0,10,,,,,,,,10,,,58,45
63648,note_on,482,0,11,,,,,,,,11,,,62,45
63648,note_on,482,0,12,,,,,,,,12,,,43,45
63648,note_on,2,0,6,,,,,,,,5,,,55,110
63648,note_on,98,0,8,,,,,,,,7,,,58,110
63648,note_on,2,0,7,,,,,,,,6,,,77,110
63648,note_on,2,0,5,,,,,,,,4,,,74,110
63694,note_on,46,0,5,,,,,,,,4,,,74,0
63696,note_on,2,0,5,,,,,,,,4,,,74,110
63742,note_on,46,0,5,,,,,,,,4,,,74,0
63742,note_on,94,0,6,,,,,,,,5,,,55,0
63742,note_on,94,0,7,,,,,,,,6,,,77,0
63742,note_on,94,0,10,,,,,,,,10,,,58,0
63742,note_on,94,0,9,,,,,,,,8,,,67,0
63742,note_on,94,0,11,,,,,,,,11,,,62,0
63742,note_on,94,0,12,,,,,,,,12,,,43,0
63742,note_on,94,0,8,,,,,,,,7,,,58,0
63744,note_on,2,0,11,,,,,,,,11,,,60,45
63744,note_on,2,0,5,,,,,,,,4,,,76,110
63744,note_on,2,0,10,,,,,,,,10,,,58,45
63744,note_on,2,0,12,,,,,,,,12,,,48,45
63744,note_on,2,0,9,,,,,,,,8,,,67,45
63744,note_on,2,0,8,,,,,,,,7,,,58,110
63744,note_on,2,0,6,,,,,,,,5,,,48,110
63790,note_on,46,0,5,,,,,,,,4,,,76,0
63792,note_on,2,0,5,,,,,,,,4,,,72,110
63838,note_on,46,0,5,,,,,,,,4,,,72,0
63838,note_on,94,0,12,,,,,,,,12,,,48,0
63838,note_on,94,0,6,,,,,,,,5,,,48,0
63838,note_on,94,0,8,,,,,,,,7,,,58,0
63840,note_on,2,0,5,,,,,,,,4,,,72,110
63840,note_on,96,0,9,,,,,,,,8,,,67,0
63840,note_on,98,0,7,,,,,,,,6,,,65,110
63840,note_on,0,0,9,,,,,,,,8,,,65,45
63840,note_on,96,0,10,,,,,,,,10,,,58,0
63840,note_on,2,0,8,,,,,,,,7,,,57,110
63840,note_on,2,0,12,,,,,,,,12,,,41,45
63840,note_on,0,0,11,,,,,,,,11,,,60,45
63840,note_on,2,0,6,,,,,,,,5,,,53,110
63840,note_on,96,0,11,,,,,,,,11,,,60,0
63840,note_on,0,0,10,,,,,,,,10,,,57,45
63886,note_on,46,0,7,,,,,,,,6,,,65,0
63886,note_on,46,0,5,,,,,,,,4,,,72,0
63888,note_on,2,0,5,,,,,,,,4,,,72,110
63888,note_on,2,0,7,,,,,,,,6,,,69,110
63934,note_on,46,0,7,,,,,,,,6,,,69,0
63934,note_on,46,0,5,,,,,,,,4,,,72,0
63934,note_on,94,0,9,,,,,,,,8,,,65,0
63934,note_on,94,0,6,,,,,,,,5,,,53,0
63934,note_on,94,0,11,,,,,,,,11,,,60,0
63934,note_on,94,0,12,,,,,,,,12,,,41,0
63934,note_on,94,0,8,,,,,,,,7,,,57,0
63934,note_on,94,0,10,,,,,,,,10,,,57,0
63936,note_on,2,0,7,,,,,,,,6,,,72,110
63936,note_on,2,0,5,,,,,,,,4,,,77,110
63936,note_on,2,0,6,,,,,,,,5,,,57,110
63982,note_on,46,0,5,,,,,,,,4,,,77,0
63984,note_on,2,0,5,,,,,,,,4,,,72,110
64030,note_on,94,0,6,,,,,,,,5,,,57,0
64030,note_on,94,0,7,,,,,,,,6,,,72,0
64030,note_on,46,0,5,,,,,,,,4,,,72,0
64032,note_on,98,0,8,,,,,,,,7,,,57,110
64032,note_on,2,0,5,,,,,,,,4,,,72,110
64032,note_on,2,0,7,,,,,,,,6,,,77,110
64032,note_on,2,0,6,,,,,,,,5,,,53,110
64078,note_on,46,0,5,,,,,,,,4,,,72,0
64080,note_on,2,0,5,,,,,,,,4,,,72,110
64126,note_on,94,0,8,,,,,,,,7,,,57,0
64126,note_on,46,0,5,,,,,,,,4,,,72,0
64126,note_on,94,0,7,,,,,,,,6,,,77,0
64126,note_on,94,0,6,,,,,,,,5,,,53,0
64128,note_on,2,0,6,,,,,,,,5,,,52,110
64128,note_on,2,0,5,,,,,,,,4,,,74,110
64128,note_on,2,0,8,,,,,,,,7,,,58,110
64174,note_on,46,0,5,,,,,,,,4,,,74,0
64176,note_on,2,0,5,,,,,,,,4,,,72,110
64222,note_on,94,0,8,,,,,,,,7,,,58,0
64222,note_on,94,0,6,,,,,,,,5,,,52,0
64222,note_on,46,0,5,,,,,,,,4,,,72,0
64224,note_on,2,0,6,,,,,,,,5,,,53,110
64224,note_on,2,0,8,,,,,,,,7,,,57,110
64224,note_on,98,0,7,,,,,,,,6,,,65,110
64224,note_on,2,0,5,,,,,,,,4,,,72,110
64270,note_on,46,0,5,,,,,,,,4,,,72,0
64270,note_on,46,0,7,,,,,,,,6,,,65,0
64272,note_on,2,0,5,,,,,,,,4,,,72,110
64272,note_on,2,0,7,,,,,,,,6,,,69,110
64318,note_on,94,0,8,,,,,,,,7,,,57,0
64318,note_on,46,0,7,,,,,,,,6,,,69,0
64318,note_on,46,0,5,,,,,,,,4,,,72,0
64318,note_on,94,0,6,,,,,,,,5,,,53,0
64320,note_on,2,0,5,,,,,,,,4,,,77,110
64320,note_on,2,0,7,,,,,,,,6,,,72,110
64320,note_on,2,0,6,,,,,,,,5,,,41,110
64366,note_on,46,0,5,,,,,,,,4,,,77,0
64368,note_on,2,0,5,,,,,,,,4,,,72,110
64414,note_on,94,0,7,,,,,,,,6,,,72,0
64414,note_on,46,0,5,,,,,,,,4,,,72,0
64414,note_on,94,0,6,,,,,,,,5,,,41,0
64416,note_on,482,0,11,,,,,,,,11,,,60,45
64416,note_on,482,0,12,,,,,,,,12,,,41,45
64416,note_on,2,0,5,,,,,,,,4,,,72,110
64416,note_on,2,0,7,,,,,,,,6,,,76,110
64416,note_on,482,0,9,,,,,,,,8,,,65,45
64416,note_on,98,0,8,,,,,,,,7,,,57,110
64416,note_on,482,0,10,,,,,,,,10,,,57,45
64416,note_on,2,0,6,,,,,,,,5,,,53,110
64462,note_on,46,0,5,,,,,,,,4,,,72,0
64464,note_on,2,0,5,,,,,,,,4,,,72,110
64510,note_on,94,0,9,,,,,,,,8,,,65,0
64510,note_on,94,0,11,,,,,,,,11,,,60,0
64510,note_on,94,0,7,,,,,,,,6,,,76,0
64510,note_on,94,0,6,,,,,,,,5,,,53,0
64510,note_on,94,0,8,,,,,,,,7,,,57,0
64510,note_on,94,0,10,,,,,,,,10,,,57,0
64510,note_on,94,0,12,,,,,,,,12,,,41,0
64510,note_on,46,0,5,,,,,,,,4,,,72,0
64512,note_on,2,0,11,,,,,,,,11,,,59,45
64512,note_on,2,0,10,,,,,,,,10,,,57,45
64512,note_on,2,0,6,,,,,,,,5,,,47,110
64512,note_on,2,0,8,,,,,,,,7,,,57,110
64512,note_on,2,0,12,,,,,,,,12,,,47,45
64512,note_on,2,0,9,,,,,,,,8,,,65,45
64512,note_on,2,0,5,,,,,,,,4,,,74,110
64558,note_on,46,0,5,,,,,,,,4,,,74,0
64560,note_on,2,0,5,,,,,,,,4,,,71,110
64606,note_on,94,0,6,,,,,,,,5,,,47,0
64606,note_on,46,0,5,,,,,,,,4,,,71,0
64606,note_on,94,0,10,,,,,,,,10,,,57,0
64606,note_on,94,0,8,,,,,,,,7,,,57,0
64606,note_on,94,0,12,,,,,,,,12,,,47,0
64608,note_on,0,0,9,,,,,,,,8,,,64,45
64608,note_on,96,0,9,,,,,,,,8,,,65,0
64608,note_on,2,0,12,,,,,,,,12,,,40,45
64608,note_on,2,0,8,,,,,,,,7,,,56,110
64608,note_on,96,0,11,,,,,,,,11,,,59,0
64608,note_on,2,0,5,,,,,,,,4,,,71,110
64608,note_on,0,0,11,,,,,,,,11,,,59,45
64608,note_on,2,0,10,,,,,,,,10,,,56,45
64608,note_on,98,0,7,,,,,,,,6,,,64,110
64608,note_on,2,0,6,,,,,,,,5,,,52,110
64654,note_on,46,0,7,,,,,,,,6,,,64,0
64654,note_on,46,0,5,,,,,,,,4,,,71,0
64656,note_on,2,0,5,,,,,,,,4,,,71,110
64656,note_on,2,0,7,,,,,,,,6,,,68,110
64702,note_on,94,0,12,,,,,,,,12,,,40,0
64702,note_on,94,0,11,,,,,,,,11,,,59,0
64702,note_on,94,0,8,,,,,,,,7,,,56,0
64702,note_on,46,0,7,,,,,,,,6,,,68,0
64702,note_on,94,0,6,,,,,,,,5,,,52,0
64702,note_on,94,0,10,,,,,,,,10,,,56,0
64702,note_on,46,0,5,,,,,,,,4,,,71,0
64702,note_on,94,0,9,,,,,,,,8,,,64,0
64704,note_on,2,0,5,,,,,,,,4,,,76,110
64704,note_on,2,0,7,,,,,,,,6,,,71,110
64704,note_on,2,0,6,,,,,,,,5,,,56,110
64750,note_on,46,0,5,,,,,,,,4,,,76,0
64752,note_on,2,0,5,,,,,,,,4,,,71,110
64798,note_on,94,0,7,,,,,,,,6,,,71,0
64798,note_on,46,0,5,,,,,,,,4,,,71,0
64798,note_on,94,0,6,,,,,,,,5,,,56,0
64800,note_on,2,0,5,,,,,,,,4,,,71,110
64800,note_on,2,0,6,,,,,,,,5,,,52,110
64800,note_on,2,0,7,,,,,,,,6,,,76,110
64800,note_on,98,0,8,,,,,,,,7,,,56,110
64846,note_on,46,0,5,,,,,,,,4,,,71,0
64848,note_on,2,0,5,,,,,,,,4,,,71,110
64894,note_on,94,0,7,,,,,,,,6,,,76,0
64894,note_on,46,0,5,,,,,,,,4,,,71,0
64894,note_on,94,0,8,,,,,,,,7,,,56,0
64894,note_on,94,0,6,,,,,,,,5,,,52,0
64896,note_on,2,0,5,,,,,,,,4,,,72,110
64896,note_on,2,0,8,,,,,,,,7,,,57,110
64896,note_on,2,0,6,,,,,,,,5,,,51,110
64942,note_on,46,0,5,,,,,,,,4,,,72,0
64944,note_on,2,0,5,,,,,,,,4,,,71,110
64990,note_on,94,0,8,,,,,,,,7,,,57,0
64990,note_on,46,0,5,,,,,,,,4,,,71,0
64990,note_on,94,0,6,,,,,,,,5,,,51,0
64992,note_on,98,0,7,,,,,,,,6,,,64,110
64992,note_on,2,0,6,,,,,,,,5,,,52,110
64992,note_on,2,0,8,,,,,,,,7,,,56,110
64992,note_on,2,0,5,,,,,,,,4,,,71,110
65038,note_on,46,0,7,,,,,,,,6,,,64,0
65038,note_on,46,0,5,,,,,,,,4,,,71,0
65040,note_on,2,0,7,,,,,,,,6,,,68,110
65040,note_on,2,0,5,,,,,,,,4,,,71,110
65086,note_on,46,0,7,,,,,,,,6,,,68,0
65086,note_on,94,0,8,,,,,,,,7,,,56,0
65086,note_on,46,0,5,,,,,,,,4,,,71,0
65086,note_on,94,0,6,,,,,,,,5,,,52,0
65088,note_on,2,0,7,,,,,,,,6,,,71,110
65088,note_on,2,0,6,,,,,,,,5,,,40,110
65088,note_on,2,0,5,,,,,,,,4,,,76,110
65134,note_on,46,0,5,,,,,,,,4,,,76,0
65136,note_on,2,0,5,,,,,,,,4,,,71,110
65182,note_on,94,0,6,,,,,,,,5,,,40,0
65182,note_on,94,0,7,,,,,,,,6,,,71,0
65182,note_on,46,0,5,,,,,,,,4,,,71,0
65184,note_on,482,0,11,,,,,,,,11,,,59,45
65184,note_on,2,0,6,,,,,,,,5,,,52,110
65184,note_on,98,0,8,,,,,,,,7,,,56,110
65184,note_on,2,0,5,,,,,,,,4,,,71,110
65184,note_on,482,0,12,,,,,,,,12,,,40,45
65184,note_on,482,0,10,,,,,,,,10,,,56,45
65184,note_on,482,0,9,,,,,,,,8,,,64,45
65184,note_on,2,0,7,,,,,,,,6,,,74,110
65230,note_on,46,0,5,,,,,,,,4,,,71,0
65232,note_on,2,0,5,,,,,,,,4,,,71,110
65278,note_on,46,0,5,,,,,,,,4,,,71,0
65278,note_on,94,0,11,,,,,,,,11,,,59,0
65278,note_on,94,0,10,,,,,,,,10,,,56,0
65278,note_on,94,0,9,,,,,,,,8,,,64,0
65278,note_on,94,0,6,,,,,,,,5,,,52,0
65278,note_on,94,0,8,,,,,,,,7,,,56,0
65278,note_on,94,0,12,,,,,,,,12,,,40,0
65278,note_on,94,0,7,,,,,,,,6,,,74,0
65280,note_on,2,0,6,,,,,,,,5,,,45,110
65280,note_on,2,0,9,,,,,,,,8,,,64,45
65280,note_on,2,0,10,,,,,,,,10,,,57,45
65280,note_on,2882,0,2,,,,,,,,1,,,57,110
65280,note_on,2,0,5,,,,,,,,4,,,72,110
65280,note_on,2786,0,1,,,,,,,,0,,,72,110
65280,note_on,2912,0,4,,,,,,,,3,,,72,110
65280,note_on,2,0,7,,,,,,,,6,,,72,110
65280,note_on,2882,0,3,,,,,,,,2,,,83,110
65280,note_on,2,0,8,,,,,,,,7,,,57,110
65280,note_on,2,0,11,,,,,,,,11,,,60,45
65280,note_on,2,0,12,,,,,,,,12,,,45,45
65302,note_on,22,0,3,,,,,,,,2,,,83,0
65304,note_on,2,0,3,,,,,,,,2,,,81,110
65326,note_on,46,0,1,,,,,,,,0,,,72,0
65326,note_on,22,0,3,,,,,,,,2,,,81,0
65328,note_on,2,0,1,,,,,,,,0,,,81,110
65328,note_on,2,0,3,,,,,,,,2,,,83,110
65350,note_on,22,0,1,,,,,,,,0,,,81,0
65350,note_on,22,0,3,,,,,,,,2,,,83,0
65352,note_on,2,0,3,,,,,,,,2,,,81,110
65352,note_on,2,0,1,,,,,,,,0,,,83,110
65374,note_on,94,0,5,,,,,,,,4,,,72,0
65374,note_on,22,0,3,,,,,,,,2,,,81,0
65374,note_on,94,0,4,,,,,,,,3,,,72,0
65374,note_on,94,0,7,,,,,,,,6,,,72,0
65374,note_on,22,0,1,,,,,,,,0,,,83,0
65374,note_on,94,0,8,,,,,,,,7,,,57,0
65374,note_on,94,0,6,,,,,,,,5,,,45,0
65376,note_on,2,0,1,,,,,,,,0,,,84,110
65376,note_on,2,0,3,,,,,,,,2,,,83,110
65376,note_on,2,0,7,,,,,,,,6,,,69,110
65376,note_on,2,0,4,,,,,,,,3,,,72,110
65376,note_on,2,0,8,,,,,,,,7,,,45,110
65376,note_on,2,0,5,,,,,,,,4,,,76,110
65376,note_on,2,0,6,,,,,,,,5,,,69,110
65398,note_on,22,0,3,,,,,,,,2,,,83,0
65400,note_on,2,0,3,,,,,,,,2,,,81,110
65422,note_on,22,0,3,,,,,,,,2,,,81,0
65422,note_on,46,0,1,,,,,,,,0,,,84,0
65424,note_on,2,0,1,,,,,,,,0,,,81,110
65424,note_on,2,0,3,,,,,,,,2,,,83,110
65440,note_on,160,0,9,,,,,,,,8,,,64,0
65440,note_on,160,0,11,,,,,,,,11,,,60,0
65440,note_on,160,0,10,,,,,,,,10,,,57,0
65440,note_on,160,0,12,,,,,,,,12,,,45,0
65440,note_on,160,0,2,,,,,,,,1,,,57,0
65446,note_on,22,0,3,,,,,,,,2,,,83,0
65448,note_on,2,0,3,,,,,,,,2,,,81,110
65470,note_on,22,0,3,,,,,,,,2,,,81,0
65470,note_on,94,0,5,,,,,,,,4,,,76,0
65470,note_on,94,0,6,,,,,,,,5,,,69,0
65470,note_on,94,0,4,,,,,,,,3,,,72,0
65470,note_on,46,0,1,,,,,,,,0,,,81,0
65470,note_on,94,0,8,,,,,,,,7,,,45,0
65470,note_on,94,0,7,,,,,,,,6,,,69,0
65472,note_on,2,0,1,,,,,,,,0,,,84,110
65472,note_on,2,0,6,,,,,,,,5,,,69,110
65472,note_on,2,0,5,,,,,,,,4,,,80,110
65472,note_on,2,0,3,,,,,,,,2,,,83,110
65472,note_on,2,0,4,,,,,,,,3,,,72,110
65494,note_on,22,0,3,,,,,,,,2,,,83,0
65496,note_on,2,0,3,,,,,,,,2,,,81,110
65518,note_on,46,0,1,,,,,,,,0,,,84,0
65518,note_on,22,0,3,,,,,,,,2,,,81,0
65520,note_on,2,0,3,,,,,,,,2,,,83,110
65520,note_on,2,0,1,,,,,,,,0,,,81,110
65542,note_on,22,0,3,,,,,,,,2,,,83,0
65544,note_on,2,0,3,,,,,,,,2,,,81,110
65566,note_on,22,0,3,,,,,,,,2,,,81,0
65566,note_on,94,0,4,,,,,,,,3,,,72,0
65566,note_on,94,0,6,,,,,,,,5,,,69,0
65566,note_on,94,0,5,,,,,,,,4,,,80,0
65566,note_on,46,0,1,,,,,,,,0,,,81,0
65568,note_on,2,0,4,,,,,,,,3,,,72,110
65568,note_on,2,0,5,,,,,,,,4,,,81,110
65568,note_on,2,0,6,,,,,,,,5,,,69,110
65568,note_on,2,0,1,,,,,,,,0,,,84,110
65568,note_on,128,0,2,,,,,,,,1,,,57,110
65568,note_on,2,0,3,,,,,,,,2,,,83,110
65590,note_on,22,0,3,,,,,,,,2,,,83,0
65592,note_on,2,0,3,,,,,,,,2,,,81,110
65614,note_on,46,0,1,,,,,,,,0,,,84,0
65614,note_on,22,0,3,,,,,,,,2,,,81,0
65616,note_on,2,0,1,,,,,,,,0,,,81,110
65616,note_on,2,0,3,,,,,,,,2,,,83,110
65638,note_on,22,0,3,,,,,,,,2,,,83,0
65640,note_on,2,0,3,,,,,,,,2,,,81,110
65662,note_on,94,0,2,,,,,,,,1,,,57,0
65662,note_on,22,0,3,,,,,,,,2,,,81,0
65662,note_on,94,0,6,,,,,,,,5,,,69,0
65662,note_on,46,0,1,,,,,,,,0,,,81,0
65662,note_on,94,0,4,,,,,,,,3,,,72,0
65662,note_on,94,0,5,,,,,,,,4,,,81,0
65664,note_on,2,0,1,,,,,,,,0,,,74,110
65664,note_on,2,0,6,,,,,,,,5,,,71,110
65664,note_on,2,0,3,,,,,,,,2,,,83,110
65664,note_on,2,0,4,,,,,,,,3,,,74,110
65664,note_on,2,0,2,,,,,,,,1,,,59,110
65686,note_on,22,0,3,,,,,,,,2,,,83,0
65688,note_on,2,0,3,,,,,,,,2,,,81,110
65710,note_on,22,0,3,,,,,,,,2,,,81,0
65710,note_on,46,0,1,,,,,,,,0,,,74,0
65712,note_on,2,0,3,,,,,,,,2,,,83,110
65712,note_on,2,0,1,,,,,,,,0,,,81,110
65734,note_on,22,0,1,,,,,,,,0,,,81,0
65734,note_on,22,0,3,,,,,,,,2,,,83,0
65736,note_on,2,0,3,,,,,,,,2,,,81,110
65736,note_on,2,0,1,,,,,,,,0,,,83,110
65758,note_on,22,0,1,,,,,,,,0,,,83,0
65758,note_on,94,0,6,,,,,,,,5,,,71,0
65758,note_on,22,0,3,,,,,,,,2,,,81,0
65758,note_on,94,0,4,,,,,,,,3,,,74,0
65760,note_on,2,0,6,,,,,,,,5,,,71,110
65760,note_on,2,0,3,,,,,,,,2,,,83,110
65760,note_on,98,0,5,,,,,,,,4,,,74,110
65760,note_on,2,0,4,,,,,,,,3,,,74,110
65760,note_on,2,0,1,,,,,,,,0,,,84,110
65782,note_on,22,0,3,,,,,,,,2,,,83,0
65784,note_on,2,0,3,,,,,,,,2,,,81,110
65806,note_on,22,0,3,,,,,,,,2,,,81,0
65806,note_on,46,0,1,,,,,,,,0,,,84,0
65808,note_on,2,0,3,,,,,,,,2,,,83,110
65808,note_on,2,0,1,,,,,,,,0,,,81,110
65824,note_on,160,0,2,,,,,,,,1,,,59,0
65830,note_on,22,0,3,,,,,,,,2,,,83,0
65832,note_on,2,0,3,,,,,,,,2,,,81,110
65854,note_on,94,0,5,,,,,,,,4,,,74,0
65854,note_on,94,0,4,,,,,,,,3,,,74,0
65854,note_on,94,0,6,,,,,,,,5,,,71,0
65854,note_on,22,0,3,,,,,,,,2,,,81,0
65854,note_on,46,0,1,,,,,,,,0,,,81,0
65856,note_on,2,0,6,,,,,,,,5,,,71,110
65856,note_on,2,0,5,,,,,,,,4,,,80,110
65856,note_on,2,0,4,,,,,,,,3,,,74,110
65856,note_on,2,0,3,,,,,,,,2,,,83,110
65856,note_on,2,0,1,,,,,,,,0,,,84,110
65878,note_on,22,0,3,,,,,,,,2,,,83,0
65880,note_on,2,0,3,,,,,,,,2,,,81,110
65902,note_on,22,0,3,,,,,,,,2,,,81,0
65902,note_on,46,0,1,,,,,,,,0,,,84,0
65904,note_on,2,0,1,,,,,,,,0,,,81,110
65904,note_on,2,0,3,,,,,,,,2,,,83,110
65926,note_on,22,0,3,,,,,,,,2,,,83,0
65928,note_on,2,0,3,,,,,,,,2,,,81,110
65950,note_on,94,0,4,,,,,,,,3,,,74,0
65950,note_on,94,0,5,,,,,,,,4,,,80,0
65950,note_on,94,0,6,,,,,,,,5,,,71,0
65950,note_on,46,0,1,,,,,,,,0,,,81,0
65950,note_on,22,0,3,,,,,,,,2,,,81,0
65952,note_on,2,0,4,,,,,,,,3,,,74,110
65952,note_on,2,0,6,,,,,,,,5,,,71,110
65952,note_on,2,0,1,,,,,,,,0,,,84,110
65952,note_on,128,0,2,,,,,,,,1,,,59,110
65952,note_on,2,0,3,,,,,,,,2,,,83,110
65952,note_on,2,0,5,,,,,,,,4,,,81,110
65974,note_on,22,0,3,,,,,,,,2,,,83,0
65976,note_on,2,0,3,,,,,,,,2,,,81,110
65998,note_on,46,0,1,,,,,,,,0,,,84,0
65998,note_on,22,0,3,,,,,,,,2,,,81,0
66000,note_on,2,0,1,,,,,,,,0,,,81,110
66000,note_on,2,0,3,,,,,,,,2,,,83,110
66022,note_on,22,0,3,,,,,,,,2,,,83,0
66024,note_on,2,0,3,,,,,,,,2,,,81,110
66046,note_on,94,0,4,,,,,,,,3,,,74,0
66046,note_on,94,0,5,,,,,,,,4,,,81,0
66046,note_on,22,0,3,,,,,,,,2,,,81,0
66046,note_on,46,0,1,,,,,,,,0,,,81,0
66046,note_on,94,0,2,,,,,,,,1,,,59,0
66046,note_on,94,0,6,,,,,,,,5,,,71,0
66048,note_on,2,0,1,,,,,,,,0,,,76,110
66048,note_on,2,0,6,,,,,,,,5,,,72,110
66048,note_on,2,0,2,,,,,,,,1,,,60,110
66048,note_on,2,0,4,,,,,,,,3,,,76,110
66048,note_on,2,0,3,,,,,,,,2,,,83,110
66070,note_on,22,0,3,,,,,,,,2,,,83,0
66072,note_on,2,0,3,,,,,,,,2,,,81,110
66094,note_on,22,0,3,,,,,,,,2,,,81,0
66094,note_on,46,0,1,,,,,,,,0,,,76,0
66096,note_on,2,0,1,,,,,,,,0,,,81,110
66096,note_on,2,0,3,,,,,,,,2,,,83,110
66118,note_on,22,0,3,,,,,,,,2,,,83,0
66118,note_on,22,0,1,,,,,,,,0,,,81,0
66120,note_on,2,0,3,,,,,,,,2,,,81,110
66120,note_on,2,0,1,,,,,,,,0,,,83,110
66142,note_on,94,0,6,,,,,,,,5,,,72,0
66142,note_on,22,0,3,,,,,,,,2,,,81,0
66142,note_on,22,0,1,,,,,,,,0,,,83,0
66142,note_on,94,0,4,,,,,,,,3,,,76,0
66144,note_on,2,0,3,,,,,,,,2,,,83,110
66144,note_on,2,0,1,,,,,,,,0,,,84,110
66144,note_on,2,0,6,,,,,,,,5,,,72,110
66144,note_on,98,0,5,,,,,,,,4,,,76,110
66144,note_on,2,0,4,,,,,,,,3,,,76,110
66166,note_on,22,0,3,,,,,,,,2,,,83,0
66168,note_on,2,0,3,,,,,,,,2,,,81,110
66190,note_on,22,0,3,,,,,,,,2,,,81,0
66190,note_on,46,0,1,,,,,,,,0,,,84,0
66192,note_on,2,0,3,,,,,,,,2,,,83,110
66192,note_on,2,0,1,,,,,,,,0,,,81,110
66208,note_on,160,0,2,,,,,,,,1,,,60,0
66214,note_on,22,0,3,,,,,,,,2,,,83,0
66216,note_on,2,0,3,,,,,,,,2,,,81,110
66238,note_on,94,0,4,,,,,,,,3,,,76,0
66238,note_on,94,0,5,,,,,,,,4,,,76,0
66238,note_on,22,0,3,,,,,,,,2,,,81,0
66238,note_on,46,0,1,,,,,,,,0,,,81,0
66238,note_on,94,0,6,,,,,,,,5,,,72,0
66240,note_on,2,0,6,,,,,,,,5,,,72,110
66240,note_on,2,0,5,,,,,,,,4,,,80,110
66240,note_on,2,0,3,,,,,,,,2,,,83,110
66240,note_on,2,0,1,,,,,,,,0,,,84,110
66240,note_on,2,0,4,,,,,,,,3,,,76,110
66262,note_on,22,0,3,,,,,,,,2,,,83,0
66264,note_on,2,0,3,,,,,,,,2,,,81,110
66286,note_on,46,0,1,,,,,,,,0,,,84,0
66286,note_on,22,0,3,,,,,,,,2,,,81,0
66288,note_on,2,0,1,,,,,,,,0,,,81,110
66288,note_on,2,0,3,,,,,,,,2,,,83,110
66310,note_on,22,0,3,,,,,,,,2,,,83,0
66312,note_on,2,0,3,,,,,,,,2,,,81,110
66334,note_on,22,0,3,,,,,,,,2,,,81,0
66334,note_on,94,0,6,,,,,,,,5,,,72,0
66334,note_on,94,0,5,,,,,,,,4,,,80,0
66334,note_on,46,0,1,,,,,,,,0,,,81,0
66334,note_on,94,0,4,,,,,,,,3,,,76,0
66336,note_on,128,0,2,,,,,,,,1,,,60,110
66336,note_on,2,0,3,,,,,,,,2,,,83,110
66336,note_on,2,0,6,,,,,,,,5,,,72,110
66336,note_on,2,0,5,,,,,,,,4,,,81,110
66336,note_on,2,0,1,,,,,,,,0,,,84,110
66336,note_on,2,0,4,,,,,,,,3,,,76,110
66358,note_on,22,0,3,,,,,,,,2,,,83,0
66360,note_on,2,0,3,,,,,,,,2,,,81,110
66382,note_on,22,0,3,,,,,,,,2,,,81,0
66382,note_on,46,0,1,,,,,,,,0,,,84,0
66384,note_on,2,0,1,,,,,,,,0,,,81,110
66384,note_on,2,0,3,,,,,,,,2,,,83,110
66406,note_on,22,0,3,,,,,,,,2,,,83,0
66408,note_on,2,0,3,,,,,,,,2,,,81,110
66430,note_on,22,0,3,,,,,,,,2,,,81,0
66430,note_on,46,0,1,,,,,,,,0,,,81,0
66430,note_on,94,0,2,,,,,,,,1,,,60,0
66430,note_on,94,0,4,,,,,,,,3,,,76,0
66430,note_on,94,0,5,,,,,,,,4,,,81,0
66430,note_on,94,0,6,,,,,,,,5,,,72,0
66432,note_on,2,0,1,,,,,,,,0,,,77,110
66432,note_on,2,0,2,,,,,,,,1,,,62,110
66432,note_on,2,0,4,,,,,,,,3,,,77,110
66432,note_on,2,0,3,,,,,,,,2,,,83,110
66432,note_on,2,0,6,,,,,,,,5,,,74,110
66454,note_on,22,0,3,,,,,,,,2,,,83,0
66456,note_on,2,0,3,,,,,,,,2,,,81,110
66478,note_on,22,0,3,,,,,,,,2,,,81,0
66478,note_on,46,0,1,,,,,,,,0,,,77,0
66480,note_on,2,0,1,,,,,,,,0,,,81,110
66480,note_on,2,0,3,,,,,,,,2,,,83,110
66502,note_on,22,0,1,,,,,,,,0,,,81,0
66502,note_on,22,0,3,,,,,,,,2,,,83,0
66504,note_on,2,0,3,,,,,,,,2,,,81,110
66504,note_on,2,0,1,,,,,,,,0,,,83,110
66526,note_on,94,0,6,,,,,,,,5,,,74,0
66526,note_on,94,0,4,,,,,,,,3,,,77,0
66526,note_on,22,0,3,,,,,,,,2,,,81,0
66526,note_on,22,0,1,,,,,,,,0,,,83,0
66528,note_on,2,0,6,,,,,,,,5,,,74,110
66528,note_on,2,0,4,,,,,,,,3,,,77,110
66528,note_on,2,0,1,,,,,,,,0,,,84,110
66528,note_on,2,0,3,,,,,,,,2,,,83,110
66528,note_on,98,0,5,,,,,,,,4,,,77,110
66550,note_on,22,0,3,,,,,,,,2,,,83,0
66552,note_on,2,0,3,,,,,,,,2,,,81,110
66574,note_on,46,0,1,,,,,,,,0,,,84,0
66574,note_on,22,0,3,,,,,,,,2,,,81,0
66576,note_on,2,0,3,,,,,,,,2,,,83,110
66576,note_on,2,0,1,,,,,,,,0,,,81,110
66592,note_on,160,0,2,,,,,,,,1,,,62,0
66598,note_on,22,0,3,,,,,,,,2,,,83,0
66600,note_on,2,0,3,,,,,,,,2,,,81,110
66622,note_on,22,0,3,,,,,,,,2,,,81,0
66622,note_on,94,0,6,,,,,,,,5,,,74,0
66622,note_on,94,0,4,,,,,,,,3,,,77,0
66622,note_on,46,0,1,,,,,,,,0,,,81,0
66622,note_on,94,0,5,,,,,,,,4,,,77,0
66624,note_on,2,0,1,,,,,,,,0,,,84,110
66624,note_on,2,0,3,,,,,,,,2,,,83,110
66624,note_on,2,0,5,,,,,,,,4,,,80,110
66624,note_on,2,0,6,,,,,,,,5,,,74,110
66624,note_on,2,0,4,,,,,,,,3,,,77,110
66646,note_on,22,0,3,,,,,,,,2,,,83,0
66648,note_on,2,0,3,,,,,,,,2,,,81,110
66670,note_on,22,0,3,,,,,,,,2,,,81,0
66670,note_on,46,0,1,,,,,,,,0,,,84,0
66672,note_on,2,0,3,,,,,,,,2,,,83,110
66672,note_on,2,0,1,,,,,,,,0,,,81,110
66694,note_on,22,0,3,,,,,,,,2,,,83,0
66696,note_on,2,0,3,,,,,,,,2,,,81,110
66718,note_on,22,0,3,,,,,,,,2,,,81,0
66718,note_on,94,0,6,,,,,,,,5,,,74,0
66718,note_on,94,0,5,,,,,,,,4,,,80,0
66718,note_on,46,0,1,,,,,,,,0,,,81,0
66718,note_on,94,0,4,,,,,,,,3,,,77,0
66720,note_on,2,0,5,,,,,,,,4,,,81,110
66720,note_on,128,0,2,,,,,,,,1,,,62,110
66720,note_on,2,0,6,,,,,,,,5,,,74,110
66720,note_on,2,0,4,,,,,,,,3,,,77,110
66720,note_on,2,0,1,,,,,,,,0,,,84,110
66720,note_on,2,0,3,,,,,,,,2,,,83,110
66742,note_on,22,0,3,,,,,,,,2,,,83,0
66744,note_on,2,0,3,,,,,,,,2,,,81,110
66766,note_on,22,0,3,,,,,,,,2,,,81,0
66766,note_on,46,0,1,,,,,,,,0,,,84,0
66768,note_on,2,0,1,,,,,,,,0,,,81,110
66768,note_on,2,0,3,,,,,,,,2,,,83,110
66790,note_on,22,0,3,,,,,,,,2,,,83,0
66792,note_on,2,0,3,,,,,,,,2,,,81,110
66814,note_on,94,0,2,,,,,,,,1,,,62,0
66814,note_on,94,0,5,,,,,,,,4,,,81,0
66814,note_on,94,0,4,,,,,,,,3,,,77,0
66814,note_on,94,0,6,,,,,,,,5,,,74,0
66814,note_on,22,0,3,,,,,,,,2,,,81,0
66814,note_on,46,0,1,,,,,,,,0,,,81,0
66816,note_on,2,0,1,,,,,,,,0,,,72,110
66816,note_on,0,0,2,,,,,,,,1,,,60,110
66816,note_on,2,0,4,,,,,,,,3,,,72,110
66816,note_on,2,0,2,,,,,,,,1,,,57,110
66816,note_on,2,0,6,,,,,,,,5,,,69,110
66816,note_on,2,0,3,,,,,,,,2,,,83,110
66838,note_on,22,0,3,,,,,,,,2,,,83,0
66840,note_on,2,0,3,,,,,,,,2,,,81,110
66862,note_on,22,0,3,,,,,,,,2,,,81,0
66862,note_on,46,0,1,,,,,,,,0,,,72,0
66864,note_on,2,0,3,,,,,,,,2,,,83,110
66864,note_on,2,0,1,,,,,,,,0,,,81,110
66886,note_on,22,0,3,,,,,,,,2,,,83,0
66888,note_on,2,0,3,,,,,,,,2,,,81,110
66910,note_on,22,0,3,,,,,,,,2,,,81,0
66910,note_on,46,0,1,,,,,,,,0,,,81,0
66910,note_on,94,0,4,,,,,,,,3,,,72,0
66910,note_on,94,0,6,,,,,,,,5,,,69,0
66912,note_on,2,0,3,,,,,,,,2,,,83,110
66912,note_on,2,0,4,,,,,,,,3,,,72,110
66912,note_on,98,0,5,,,,,,,,4,,,72,110
66912,note_on,2,0,6,,,,,,,,5,,,69,110
66912,note_on,2,0,1,,,,,,,,0,,,84,110
66934,note_on,22,0,3,,,,,,,,2,,,83,0
66936,note_on,2,0,3,,,,,,,,2,,,81,110
66958,note_on,46,0,1,,,,,,,,0,,,84,0
66958,note_on,22,0,3,,,,,,,,2,,,81,0
66958,note_on,46,0,5,,,,,,,,4,,,72,0
66960,note_on,2,0,3,,,,,,,,2,,,83,110
66960,note_on,2,0,1,,,,,,,,0,,,80,110
66960,note_on,2,0,5,,,,,,,,4,,,74,110
66976,note_on,0,0,2,,,,,,,,1,,,57,0
66976,note_on,160,0,2,,,,,,,,1,,,60,0
66982,note_on,22,0,3,,,,,,,,2,,,83,0
66984,note_on,2,0,3,,,,,,,,2,,,81,110
67006,note_on,94,0,4,,,,,,,,3,,,72,0
67006,note_on,94,0,6,,,,,,,,5,,,69,0
67006,note_on,46,0,1,,,,,,,,0,,,80,0
67006,note_on,22,0,3,,,,,,,,2,,,81,0
67006,note_on,46,0,5,,,,,,,,4,,,74,0
67008,note_on,2,0,6,,,,,,,,5,,,69,110
67008,note_on,2,0,1,,,,,,,,0,,,81,110
67008,note_on,2,0,4,,,,,,,,3,,,72,110
67008,note_on,2,0,5,,,,,,,,4,,,76,110
67008,note_on,2,0,3,,,,,,,,2,,,83,110
67030,note_on,22,0,3,,,,,,,,2,,,83,0
67032,note_on,2,0,3,,,,,,,,2,,,81,110
67054,note_on,22,0,3,,,,,,,,2,,,81,0
67054,note_on,46,0,1,,,,,,,,0,,,81,0
67056,note_on,2,0,3,,,,,,,,2,,,83,110
67056,note_on,2,0,1,,,,,,,,0,,,76,110
67078,note_on,22,0,3,,,,,,,,2,,,83,0
67080,note_on,2,0,3,,,,,,,,2,,,81,110
67102,note_on,94,0,4,,,,,,,,3,,,72,0
67102,note_on,22,0,3,,,,,,,,2,,,81,0
67102,note_on,94,0,6,,,,,,,,5,,,69,0
67102,note_on,46,0,1,,,,,,,,0,,,76,0
67102,note_on,94,0,5,,,,,,,,4,,,76,0
67104,note_on,2,0,5,,,,,,,,4,,,81,110
67104,note_on,2,0,3,,,,,,,,2,,,83,110
67104,note_on,2,0,6,,,,,,,,5,,,69,110
67104,note_on,2,0,1,,,,,,,,0,,,72,110
67104,note_on,2,0,4,,,,,,,,3,,,72,110
67126,note_on,22,0,3,,,,,,,,2,,,83,0
67128,note_on,2,0,3,,,,,,,,2,,,81,110
67150,note_on,22,0,3,,,,,,,,2,,,81,0
67150,note_on,46,0,1,,,,,,,,0,,,72,0
67152,note_on,2,0,3,,,,,,,,2,,,83,110
67152,note_on,2,0,1,,,,,,,,0,,,69,110
67174,note_on,22,0,3,,,,,,,,2,,,83,0
67176,note_on,2,0,3,,,,,,,,2,,,81,110
67198,note_on,46,0,1,,,,,,,,0,,,69,0
67198,note_on,94,0,6,,,,,,,,5,,,69,0
67198,note_on,94,0,4,,,,,,,,3,,,72,0
67198,note_on,94,0,5,,,,,,,,4,,,81,0
67198,note_on,22,0,3,,,,,,,,2,,,81,0
67200,note_on,2,0,6,,,,,,,,5,,,71,110
67200,note_on,0,0,2,,,,,,,,1,,,62,110
67200,note_on,224,0,2,,,,,,,,1,,,59,110
67200,note_on,2,0,4,,,,,,,,3,,,74,110
67200,note_on,2,0,3,,,,,,,,2,,,83,110
67222,note_on,22,0,3,,,,,,,,2,,,83,0
67224,note_on,2,0,3,,,,,,,,2,,,81,110
67246,note_on,22,0,3,,,,,,,,2,,,81,0
67248,note_on,50,0,1,,,,,,,,0,,,81,110
67248,note_on,2,0,3,,,,,,,,2,,,83,110
67270,note_on,22,0,3,,,,,,,,2,,,83,0
67272,note_on,2,0,3,,,,,,,,2,,,81,110
67294,note_on,94,0,4,,,,,,,,3,,,74,0
67294,note_on,22,0,3,,,,,,,,2,,,81,0
67294,note_on,94,0,6,,,,,,,,5,,,71,0
67294,note_on,46,0,1,,,,,,,,0,,,81,0
67296,note_on,98,0,5,,,,,,,,4,,,74,110
67296,note_on,2,0,1,,,,,,,,0,,,84,110
67296,note_on,2,0,3,,,,,,,,2,,,83,110
67296,note_on,2,0,6,,,,,,,,5,,,71,110
67296,note_on,2,0,4,,,,,,,,3,,,74,110
67318,note_on,22,0,3,,,,,,,,2,,,83,0
67320,note_on,2,0,3,,,,,,,,2,,,81,110
67342,note_on,46,0,1,,,,,,,,0,,,84,0
67342,note_on,46,0,5,,,,,,,,4,,,74,0
67342,note_on,22,0,3,,,,,,,,2,,,81,0
67344,note_on,2,0,1,,,,,,,,0,,,80,110
67344,note_on,2,0,3,,,,,,,,2,,,83,110
67344,note_on,2,0,5,,,,,,,,4,,,76,110
67360,note_on,160,0,2,,,,,,,,1,,,62,0
67360,note_on,0,0,2,,,,,,,,1,,,59,0
67366,note_on,22,0,3,,,,,,,,2,,,83,0
67368,note_on,2,0,3,,,,,,,,2,,,81,110
67390,note_on,46,0,5,,,,,,,,4,,,76,0
67390,note_on,22,0,3,,,,,,,,2,,,81,0
67390,note_on,94,0,6,,,,,,,,5,,,71,0
67390,note_on,94,0,4,,,,,,,,3,,,74,0
67390,note_on,46,0,1,,,,,,,,0,,,80,0
67392,note_on,2,0,5,,,,,,,,4,,,77,110
67392,note_on,2,0,3,,,,,,,,2,,,83,110
67392,note_on,2,0,6,,,,,,,,5,,,71,110
67392,note_on,2,0,1,,,,,,,,0,,,81,110
67392,note_on,2,0,4,,,,,,,,3,,,74,110
67414,note_on,22,0,3,,,,,,,,2,,,83,0
67416,note_on,2,0,3,,,,,,,,2,,,81,110
67438,note_on,22,0,3,,,,,,,,2,,,81,0
67438,note_on,46,0,1,,,,,,,,0,,,81,0
67440,note_on,2,0,1,,,,,,,,0,,,77,110
67440,note_on,2,0,3,,,,,,,,2,,,83,110
67462,note_on,22,0,3,,,,,,,,2,,,83,0
67464,note_on,2,0,3,,,,,,,,2,,,81,110
67486,note_on,46,0,1,,,,,,,,0,,,77,0
67486,note_on,94,0,4,,,,,,,,3,,,74,0
67486,note_on,22,0,3,,,,,,,,2,,,81,0
67486,note_on,94,0,5,,,,,,,,4,,,77,0
67486,note_on,94,0,6,,,,,,,,5,,,71,0
67488,note_on,2,0,3,,,,,,,,2,,,83,110
67488,note_on,2,0,5,,,,,,,,4,,,81,110
67488,note_on,2,0,1,,,,,,,,0,,,74,110
67488,note_on,2,0,4,,,,,,,,3,,,74,110
67488,note_on,2,0,6,,,,,,,,5,,,71,110
67510,note_on,22,0,3,,,,,,,,2,,,83,0
67512,note_on,2,0,3,,,,,,,,2,,,81,110
67534,note_on,46,0,1,,,,,,,,0,,,74,0
67534,note_on,22,0,3,,,,,,,,2,,,81,0
67536,note_on,2,0,3,,,,,,,,2,,,83,110
67536,note_on,2,0,1,,,,,,,,0,,,71,110
67558,note_on,22,0,3,,,,,,,,2,,,83,0
67560,note_on,2,0,3,,,,,,,,2,,,81,110
67582,note_on,94,0,5,,,,,,,,4,,,81,0
67582,note_on,46,0,1,,,,,,,,0,,,71,0
67582,note_on,22,0,3,,,,,,,,2,,,81,0
67582,note_on,94,0,6,,,,,,,,5,,,71,0
67582,note_on,94,0,4,,,,,,,,3,,,74,0
67584,note_on,2,0,3,,,,,,,,2,,,83,110
67584,note_on,224,0,2,,,,,,,,1,,,60,110
67584,note_on,2,0,6,,,,,,,,5,,,72,110
67584,note_on,0,0,2,,,,,,,,1,,,64,110
67584,note_on,2,0,4,,,,,,,,3,,,76,110
67606,note_on,22,0,3,,,,,,,,2,,,83,0
67608,note_on,2,0,3,,,,,,,,2,,,81,110
67630,note_on,22,0,3,,,,,,,,2,,,81,0
67632,note_on,2,0,3,,,,,,,,2,,,83,110
67632,note_on,50,0,1,,,,,,,,0,,,81,110
67654,note_on,22,0,3,,,,,,,,2,,,83,0
67656,note_on,2,0,3,,,,,,,,2,,,81,110
67678,note_on,94,0,6,,,,,,,,5,,,72,0
67678,note_on,94,0,4,,,,,,,,3,,,76,0
67678,note_on,22,0,3,,,,,,,,2,,,81,0
67678,note_on,46,0,1,,,,,,,,0,,,81,0
67680,note_on,2,0,4,,,,,,,,3,,,76,110
67680,note_on,98,0,5,,,,,,,,4,,,76,110
67680,note_on,2,0,6,,,,,,,,5,,,72,110
67680,note_on,2,0,1,,,,,,,,0,,,84,110
67680,note_on,2,0,3,,,,,,,,2,,,83,110
67702,note_on,22,0,3,,,,,,,,2,,,83,0
67704,note_on,2,0,3,,,,,,,,2,,,81,110
67726,note_on,46,0,1,,,,,,,,0,,,84,0
67726,note_on,22,0,3,,,,,,,,2,,,81,0
67726,note_on,46,0,5,,,,,,,,4,,,76,0
67728,note_on,2,0,1,,,,,,,,0,,,80,110
67728,note_on,2,0,3,,,,,,,,2,,,83,110
67728,note_on,2,0,5,,,,,,,,4,,,74,110
67744,note_on,0,0,2,,,,,,,,1,,,60,0
67744,note_on,160,0,2,,,,,,,,1,,,64,0
67750,note_on,22,0,3,,,,,,,,2,,,83,0
67752,note_on,2,0,3,,,,,,,,2,,,81,110
67774,note_on,46,0,5,,,,,,,,4,,,74,0
67774,note_on,94,0,6,,,,,,,,5,,,72,0
67774,note_on,46,0,1,,,,,,,,0,,,80,0
67774,note_on,22,0,3,,,,,,,,2,,,81,0
67774,note_on,94,0,4,,,,,,,,3,,,76,0
67776,note_on,2,0,5,,,,,,,,4,,,76,110
67776,note_on,2,0,1,,,,,,,,0,,,81,110
67776,note_on,2,0,3,,,,,,,,2,,,83,110
67776,note_on,2,0,6,,,,,,,,5,,,72,110
67776,note_on,2,0,4,,,,,,,,3,,,76,110
67798,note_on,22,0,3,,,,,,,,2,,,83,0
67800,note_on,2,0,3,,,,,,,,2,,,81,110
67822,note_on,22,0,3,,,,,,,,2,,,81,0
67822,note_on,46,0,1,,,,,,,,0,,,81,0
67824,note_on,2,0,3,,,,,,,,2,,,83,110
67824,note_on,2,0,1,,,,,,,,0,,,76,110
67846,note_on,22,0,3,,,,,,,,2,,,83,0
67848,note_on,2,0,3,,,,,,,,2,,,81,110
67870,note_on,46,0,1,,,,,,,,0,,,76,0
67870,note_on,22,0,3,,,,,,,,2,,,81,0
67870,note_on,94,0,4,,,,,,,,3,,,76,0
67870,note_on,94,0,6,,,,,,,,5,,,72,0
67870,note_on,94,0,5,,,,,,,,4,,,76,0
67872,note_on,2,0,6,,,,,,,,5,,,72,110
67872,note_on,2,0,4,,,,,,,,3,,,76,110
67872,note_on,2,0,1,,,,,,,,0,,,72,110
67872,note_on,2,0,5,,,,,,,,4,,,81,110
67872,note_on,2,0,3,,,,,,,,2,,,83,110
67894,note_on,22,0,3,,,,,,,,2,,,83,0
67896,note_on,2,0,3,,,,,,,,2,,,81,110
67918,note_on,22,0,3,,,,,,,,2,,,81,0
67918,note_on,46,0,1,,,,,,,,0,,,72,0
67920,note_on,2,0,1,,,,,,,,0,,,69,110
67920,note_on,2,0,3,,,,,,,,2,,,83,110
67942,note_on,22,0,3,,,,,,,,2,,,83,0
67944,note_on,2,0,3,,,,,,,,2,,,81,110
67966,note_on,94,0,5,,,,,,,,4,,,81,0
67966,note_on,94,0,6,,,,,,,,5,,,72,0
67966,note_on,94,0,4,,,,,,,,3,,,76,0
67966,note_on,46,0,1,,,,,,,,0,,,69,0
67966,note_on,22,0,3,,,,,,,,2,,,81,0
67968,note_on,2,0,4,,,,,,,,3,,,77,110
67968,note_on,2,0,3,,,,,,,,2,,,83,110
67968,note_on,2,0,6,,,,,,,,5,,,74,110
67968,note_on,224,0,2,,,,,,,,1,,,62,110
67968,note_on,0,0,2,,,,,,,,1,,,65,110
67990,note_on,22,0,3,,,,,,,,2,,,83,0
67992,note_on,2,0,3,,,,,,,,2,,,81,110
68014,note_on,22,0,3,,,,,,,,2,,,81,0
68016,note_on,2,0,3,,,,,,,,2,,,83,110
68016,note_on,50,0,1,,,,,,,,0,,,81,110
68038,note_on,22,0,3,,,,,,,,2,,,83,0
68040,note_on,2,0,3,,,,,,,,2,,,81,110
68062,note_on,94,0,4,,,,,,,,3,,,77,0
68062,note_on,46,0,1,,,,,,,,0,,,81,0
68062,note_on,22,0,3,,,,,,,,2,,,81,0
68062,note_on,94,0,6,,,,,,,,5,,,74,0
68064,note_on,2,0,3,,,,,,,,2,,,83,110
68064,note_on,98,0,5,,,,,,,,4,,,76,110
68064,note_on,2,0,1,,,,,,,,0,,,84,110
68064,note_on,2,0,4,,,,,,,,3,,,77,110
68064,note_on,2,0,6,,,,,,,,5,,,74,110
68086,note_on,22,0,3,,,,,,,,2,,,83,0
68088,note_on,2,0,3,,,,,,,,2,,,81,110
68110,note_on,22,0,3,,,,,,,,2,,,81,0
68110,note_on,46,0,5,,,,,,,,4,,,76,0
68110,note_on,46,0,1,,,,,,,,0,,,84,0
68112,note_on,2,0,5,,,,,,,,4,,,74,110
68112,note_on,2,0,3,,,,,,,,2,,,83,110
68112,note_on,2,0,1,,,,,,,,0,,,80,110
68128,note_on,0,0,2,,,,,,,,1,,,62,0
68128,note_on,160,0,2,,,,,,,,1,,,65,0
68134,note_on,22,0,3,,,,,,,,2,,,83,0
68136,note_on,2,0,3,,,,,,,,2,,,81,110
68158,note_on,22,0,3,,,,,,,,2,,,81,0
68158,note_on,46,0,1,,,,,,,,0,,,80,0
68158,note_on,94,0,6,,,,,,,,5,,,74,0
68158,note_on,46,0,5,,,,,,,,4,,,74,0
68158,note_on,94,0,4,,,,,,,,3,,,77,0
68160,note_on,2,0,3,,,,,,,,2,,,83,110
68160,note_on,2,0,6,,,,,,,,5,,,74,110
68160,note_on,2,0,5,,,,,,,,4,,,76,110
68160,note_on,2,0,4,,,,,,,,3,,,77,110
68160,note_on,2,0,1,,,,,,,,0,,,81,110
68182,note_on,22,0,3,,,,,,,,2,,,83,0
68184,note_on,2,0,3,,,,,,,,2,,,81,110
68206,note_on,46,0,1,,,,,,,,0,,,81,0
68206,note_on,22,0,3,,,,,,,,2,,,81,0
68208,note_on,2,0,3,,,,,,,,2,,,83,110
68208,note_on,2,0,1,,,,,,,,0,,,77,110
68230,note_on,22,0,3,,,,,,,,2,,,83,0
68232,note_on,2,0,3,,,,,,,,2,,,81,110
68254,note_on,94,0,6,,,,,,,,5,,,74,0
68254,note_on,22,0,3,,,,,,,,2,,,81,0
68254,note_on,94,0,4,,,,,,,,3,,,77,0
68254,note_on,46,0,1,,,,,,,,0,,,77,0
68254,note_on,94,0,5,,,,,,,,4,,,76,0
68256,note_on,2,0,5,,,,,,,,4,,,81,110
68256,note_on,2,0,3,,,,,,,,2,,,83,110
68256,note_on,2,0,4,,,,,,,,3,,,77,110
68256,note_on,2,0,6,,,,,,,,5,,,74,110
68256,note_on,2,0,1,,,,,,,,0,,,74,110
68278,note_on,22,0,3,,,,,,,,2,,,83,0
68280,note_on,2,0,3,,,,,,,,2,,,81,110
68302,note_on,46,0,1,,,,,,,,0,,,74,0
68302,note_on,22,0,3,,,,,,,,2,,,81,0
68304,note_on,2,0,1,,,,,,,,0,,,71,110
68304,note_on,2,0,3,,,,,,,,2,,,83,110
68326,note_on,22,0,3,,,,,,,,2,,,83,0
68328,note_on,2,0,3,,,,,,,,2,,,81,110
68350,note_on,46,0,1,,,,,,,,0,,,71,0
68350,note_on,94,0,4,,,,,,,,3,,,77,0
68350,note_on,94,0,5,,,,,,,,4,,,81,0
68350,note_on,94,0,6,,,,,,,,5,,,74,0
68350,note_on,22,0,3,,,,,,,,2,,,81,0
68352,note_on,2,0,6,,,,,,,,5,,,69,110
68352,note_on,2,0,1,,,,,,,,0,,,64,110
68352,note_on,2,0,4,,,,,,,,3,,,72,110
68352,note_on,0,0,1,,,,,,,,0,,,72,110
68352,note_on,2,0,3,,,,,,,,2,,,83,110
68374,note_on,22,0,3,,,,,,,,2,,,83,0
68376,note_on,2,0,3,,,,,,,,2,,,81,110
68376,note_on,248,0,2,,,,,,,,1,,,57,110
68398,note_on,46,0,1,,,,,,,,0,,,72,0
68398,note_on,22,0,2,,,,,,,,1,,,57,0
68398,note_on,22,0,3,,,,,,,,2,,,81,0
68398,note_on,0,0,1,,,,,,,,0,,,64,0
68400,note_on,2,0,2,,,,,,,,1,,,59,110
68400,note_on,2,0,3,,,,,,,,2,,,83,110
68422,note_on,22,0,2,,,,,,,,1,,,59,0
68422,note_on,22,0,3,,,,,,,,2,,,83,0
68424,note_on,2,0,3,,,,,,,,2,,,81,110
68424,note_on,2,0,2,,,,,,,,1,,,60,110
68446,note_on,94,0,4,,,,,,,,3,,,72,0
68446,note_on,22,0,2,,,,,,,,1,,,60,0
68446,note_on,22,0,3,,,,,,,,2,,,81,0
68446,note_on,94,0,6,,,,,,,,5,,,69,0
68448,note_on,98,0,5,,,,,,,,4,,,76,110
68448,note_on,2,0,2,,,,,,,,1,,,62,110
68448,note_on,2,0,3,,,,,,,,2,,,83,110
68448,note_on,2,0,4,,,,,,,,3,,,72,110
68448,note_on,2,0,6,,,,,,,,5,,,69,110
68470,note_on,22,0,2,,,,,,,,1,,,62,0
68470,note_on,22,0,3,,,,,,,,2,,,83,0
68472,note_on,2,0,3,,,,,,,,2,,,81,110
68472,note_on,2,0,2,,,,,,,,1,,,64,110
68494,note_on,22,0,3,,,,,,,,2,,,81,0
68494,note_on,22,0,2,,,,,,,,1,,,64,0
68494,note_on,46,0,5,,,,,,,,4,,,76,0
68496,note_on,2,0,2,,,,,,,,1,,,66,110
68496,note_on,2,0,5,,,,,,,,4,,,74,110
68496,note_on,2,0,3,,,,,,,,2,,,83,110
68518,note_on,22,0,2,,,,,,,,1,,,66,0
68518,note_on,22,0,3,,,,,,,,2,,,83,0
68520,note_on,2,0,2,,,,,,,,1,,,68,110
68520,note_on,2,0,3,,,,,,,,2,,,81,110
68542,note_on,22,0,2,,,,,,,,1,,,68,0
68542,note_on,46,0,5,,,,,,,,4,,,74,0
68542,note_on,94,0,6,,,,,,,,5,,,69,0
68542,note_on,22,0,3,,,,,,,,2,,,81,0
68542,note_on,94,0,4,,,,,,,,3,,,72,0
68544,note_on,2,0,3,,,,,,,,2,,,83,110
68544,note_on,2,0,6,,,,,,,,5,,,69,110
68544,note_on,146,0,1,,,,,,,,0,,,69,110
68544,note_on,2,0,4,,,,,,,,3,,,72,110
68544,note_on,2,0,5,,,,,,,,4,,,76,110
68566,note_on,22,0,3,,,,,,,,2,,,83,0
68566,note_on,22,0,1,,,,,,,,0,,,69,0
68568,note_on,2,0,3,,,,,,,,2,,,81,110
68568,note_on,2,0,1,,,,,,,,0,,,71,110
68590,note_on,22,0,1,,,,,,,,0,,,71,0
68590,note_on,22,0,3,,,,,,,,2,,,81,0
68592,note_on,2,0,1,,,,,,,,0,,,72,110
68592,note_on,2,0,3,,,,,,,,2,,,83,110
68614,note_on,22,0,1,,,,,,,,0,,,72,0
68614,note_on,22,0,3,,,,,,,,2,,,83,0
68616,note_on,2,0,1,,,,,,,,0,,,74,110
68616,note_on,2,0,3,,,,,,,,2,,,81,110
68638,note_on,22,0,3,,,,,,,,2,,,81,0
68638,note_on,94,0,4,,,,,,,,3,,,72,0
68638,note_on,22,0,1,,,,,,,,0,,,74,0
68638,note_on,94,0,5,,,,,,,,4,,,76,0
68638,note_on,94,0,6,,,,,,,,5,,,69,0
68640,note_on,2,0,4,,,,,,,,3,,,72,110
68640,note_on,2,0,1,,,,,,,,0,,,76,110
68640,note_on,2,0,6,,,,,,,,5,,,69,110
68640,note_on,2,0,3,,,,,,,,2,,,83,110
68640,note_on,2,0,5,,,,,,,,4,,,84,110
68662,note_on,22,0,3,,,,,,,,2,,,83,0
68662,note_on,22,0,1,,,,,,,,0,,,76,0
68664,note_on,2,0,3,,,,,,,,2,,,81,110
68664,note_on,2,0,1,,,,,,,,0,,,78,110
68686,note_on,22,0,3,,,,,,,,2,,,81,0
68686,note_on,22,0,1,,,,,,,,0,,,78,0
68688,note_on,2,0,3,,,,,,,,2,,,83,110
68688,note_on,2,0,1,,,,,,,,0,,,80,110
68710,note_on,22,0,3,,,,,,,,2,,,83,0
68710,note_on,22,0,1,,,,,,,,0,,,80,0
68712,note_on,2,0,1,,,,,,,,0,,,81,110
68712,note_on,2,0,3,,,,,,,,2,,,81,110
68734,note_on,94,0,6,,,,,,,,5,,,69,0
68734,note_on,94,0,5,,,,,,,,4,,,84,0
68734,note_on,22,0,1,,,,,,,,0,,,81,0
68734,note_on,94,0,4,,,,,,,,3,,,72,0
68734,note_on,22,0,3,,,,,,,,2,,,81,0
68736,note_on,2,0,1,,,,,,,,0,,,65,110
68736,note_on,0,0,1,,,,,,,,0,,,74,110
68736,note_on,2,0,4,,,,,,,,3,,,74,110
68736,note_on,2,0,3,,,,,,,,2,,,83,110
68736,note_on,2,0,6,,,,,,,,5,,,71,110
68758,note_on,22,0,3,,,,,,,,2,,,83,0
68760,note_on,2,0,3,,,,,,,,2,,,81,110
68782,note_on,22,0,3,,,,,,,,2,,,81,0
68782,note_on,0,0,1,,,,,,,,0,,,65,0
68782,note_on,46,0,1,,,,,,,,0,,,74,0
68784,note_on,2,0,3,,,,,,,,2,,,83,110
68784,note_on,242,0,2,,,,,,,,1,,,59,110
68806,note_on,22,0,3,,,,,,,,2,,,83,0
68806,note_on,22,0,2,,,,,,,,1,,,59,0
68808,note_on,2,0,2,,,,,,,,1,,,60,110
68808,note_on,2,0,3,,,,,,,,2,,,81,110
68830,note_on,22,0,2,,,,,,,,1,,,60,0
68830,note_on,94,0,6,,,,,,,,5,,,71,0
68830,note_on,22,0,3,,,,,,,,2,,,81,0
68830,note_on,94,0,4,,,,,,,,3,,,74,0
68832,note_on,98,0,5,,,,,,,,4,,,74,110
68832,note_on,2,0,4,,,,,,,,3,,,74,110
68832,note_on,2,0,6,,,,,,,,5,,,71,110
68832,note_on,2,0,3,,,,,,,,2,,,83,110
68832,note_on,2,0,2,,,,,,,,1,,,62,110
68854,note_on,22,0,3,,,,,,,,2,,,83,0
68854,note_on,22,0,2,,,,,,,,1,,,62,0
68856,note_on,2,0,2,,,,,,,,1,,,64,110
68856,note_on,2,0,3,,,,,,,,2,,,81,110
68878,note_on,22,0,3,,,,,,,,2,,,81,0
68878,note_on,22,0,2,,,,,,,,1,,,64,0
68878,note_on,46,0,5,,,,,,,,4,,,74,0
68880,note_on,2,0,2,,,,,,,,1,,,66,110
68880,note_on,2,0,3,,,,,,,,2,,,83,110
68880,note_on,2,0,5,,,,,,,,4,,,72,110
68902,note_on,22,0,3,,,,,,,,2,,,83,0
68902,note_on,22,0,2,,,,,,,,1,,,66,0
68904,note_on,2,0,2,,,,,,,,1,,,68,110
68904,note_on,2,0,3,,,,,,,,2,,,81,110
68926,note_on,94,0,4,,,,,,,,3,,,74,0
68926,note_on,22,0,2,,,,,,,,1,,,68,0
68926,note_on,22,0,3,,,,,,,,2,,,81,0
68926,note_on,94,0,6,,,,,,,,5,,,71,0
68926,note_on,46,0,5,,,,,,,,4,,,72,0
68928,note_on,2,0,3,,,,,,,,2,,,83,110
68928,note_on,2,0,6,,,,,,,,5,,,71,110
68928,note_on,2,0,4,,,,,,,,3,,,74,110
68928,note_on,2,0,5,,,,,,,,4,,,74,110
68928,note_on,146,0,1,,,,,,,,0,,,69,110
68950,note_on,22,0,3,,,,,,,,2,,,83,0
68950,note_on,22,0,1,,,,,,,,0,,,69,0
68952,note_on,2,0,1,,,,,,,,0,,,71,110
68952,note_on,2,0,3,,,,,,,,2,,,81,110
68974,note_on,22,0,1,,,,,,,,0,,,71,0
68974,note_on,22,0,3,,,,,,,,2,,,81,0
68976,note_on,2,0,1,,,,,,,,0,,,72,110
68976,note_on,2,0,3,,,,,,,,2,,,83,110
68998,note_on,22,0,3,,,,,,,,2,,,83,0
68998,note_on,22,0,1,,,,,,,,0,,,72,0
69000,note_on,2,0,1,,,,,,,,0,,,74,110
69000,note_on,2,0,3,,,,,,,,2,,,81,110
69022,note_on,22,0,1,,,,,,,,0,,,74,0
69022,note_on,94,0,5,,,,,,,,4,,,74,0
69022,note_on,22,0,3,,,,,,,,2,,,81,0
69022,note_on,94,0,4,,,,,,,,3,,,74,0
69022,note_on,94,0,6,,,,,,,,5,,,71,0
69024,note_on,2,0,3,,,,,,,,2,,,83,110
69024,note_on,2,0,5,,,,,,,,4,,,83,110
69024,note_on,2,0,6,,,,,,,,5,,,71,110
69024,note_on,2,0,4,,,,,,,,3,,,74,110
69024,note_on,2,0,1,,,,,,,,0,,,76,110
69046,note_on,22,0,3,,,,,,,,2,,,83,0
69046,note_on,22,0,1,,,,,,,,0,,,76,0
69048,note_on,2,0,1,,,,,,,,0,,,78,110
69048,note_on,2,0,3,,,,,,,,2,,,81,110
69070,note_on,22,0,1,,,,,,,,0,,,78,0
69070,note_on,22,0,3,,,,,,,,2,,,81,0
69072,note_on,2,0,3,,,,,,,,2,,,83,110
69072,note_on,2,0,1,,,,,,,,0,,,80,110
69094,note_on,22,0,1,,,,,,,,0,,,80,0
69094,note_on,22,0,3,,,,,,,,2,,,83,0
69096,note_on,2,0,1,,,,,,,,0,,,81,110
69096,note_on,2,0,3,,,,,,,,2,,,81,110
69118,note_on,94,0,6,,,,,,,,5,,,71,0
69118,note_on,22,0,1,,,,,,,,0,,,81,0
69118,note_on,22,0,3,,,,,,,,2,,,81,0
69118,note_on,94,0,5,,,,,,,,4,,,83,0
69118,note_on,94,0,4,,,,,,,,3,,,74,0
69120,note_on,2,0,4,,,,,,,,3,,,71,110
69120,note_on,194,0,2,,,,,,,,1,,,64,110
69120,note_on,0,0,2,,,,,,,,1,,,71,110
69120,note_on,2,0,3,,,,,,,,2,,,83,110
69120,note_on,2,0,6,,,,,,,,5,,,64,110
69142,note_on,22,0,3,,,,,,,,2,,,83,0
69144,note_on,26,0,1,,,,,,,,0,,,81,110
69144,note_on,2,0,3,,,,,,,,2,,,81,110
69166,note_on,22,0,1,,,,,,,,0,,,81,0
69166,note_on,46,0,2,,,,,,,,1,,,71,0
69166,note_on,0,0,2,,,,,,,,1,,,64,0
69166,note_on,22,0,3,,,,,,,,2,,,81,0
69168,note_on,2,0,3,,,,,,,,2,,,83,110
69168,note_on,2,0,1,,,,,,,,0,,,80,110
69190,note_on,22,0,3,,,,,,,,2,,,83,0
69190,note_on,22,0,1,,,,,,,,0,,,80,0
69192,note_on,2,0,1,,,,,,,,0,,,78,110
69192,note_on,2,0,3,,,,,,,,2,,,81,110
69214,note_on,94,0,4,,,,,,,,3,,,71,0
69214,note_on,94,0,6,,,,,,,,5,,,64,0
69214,note_on,22,0,1,,,,,,,,0,,,78,0
69214,note_on,22,0,3,,,,,,,,2,,,81,0
69216,note_on,2,0,6,,,,,,,,5,,,64,110
69216,note_on,2,0,4,,,,,,,,3,,,71,110
69216,note_on,2,0,3,,,,,,,,2,,,83,110
69216,note_on,98,0,5,,,,,,,,4,,,74,110
69216,note_on,2,0,1,,,,,,,,0,,,80,110
69238,note_on,22,0,3,,,,,,,,2,,,83,0
69238,note_on,22,0,1,,,,,,,,0,,,80,0
69240,note_on,2,0,3,,,,,,,,2,,,81,110
69240,note_on,2,0,1,,,,,,,,0,,,81,110
69262,note_on,46,0,5,,,,,,,,4,,,74,0
69262,note_on,22,0,3,,,,,,,,2,,,81,0
69262,note_on,22,0,1,,,,,,,,0,,,81,0
69264,note_on,2,0,3,,,,,,,,2,,,80,110
69264,note_on,2,0,5,,,,,,,,4,,,72,110
69264,note_on,2,0,1,,,,,,,,0,,,83,110
69286,note_on,22,0,1,,,,,,,,0,,,83,0
69288,note_on,2,0,1,,,,,,,,0,,,81,110
69310,note_on,94,0,6,,,,,,,,5,,,64,0
69310,note_on,46,0,3,,,,,,,,2,,,80,0
69310,note_on,46,0,5,,,,,,,,4,,,72,0
69310,note_on,94,0,4,,,,,,,,3,,,71,0
69310,note_on,22,0,1,,,,,,,,0,,,81,0
69312,note_on,2,0,1,,,,,,,,0,,,80,110
69312,note_on,2,0,3,,,,,,,,2,,,81,110
69312,note_on,2,0,5,,,,,,,,4,,,74,110
69312,note_on,2,0,4,,,,,,,,3,,,71,110
69312,note_on,2,0,6,,,,,,,,5,,,64,110
69334,note_on,22,0,1,,,,,,,,0,,,80,0
69334,note_on,22,0,3,,,,,,,,2,,,81,0
69336,note_on,2,0,3,,,,,,,,2,,,80,110
69336,note_on,2,0,1,,,,,,,,0,,,78,110
69358,note_on,22,0,3,,,,,,,,2,,,80,0
69358,note_on,22,0,1,,,,,,,,0,,,78,0
69360,note_on,2,0,1,,,,,,,,0,,,76,110
69360,note_on,2,0,3,,,,,,,,2,,,81,110
69382,note_on,22,0,1,,,,,,,,0,,,76,0
69382,note_on,22,0,3,,,,,,,,2,,,81,0
69384,note_on,2,0,1,,,,,,,,0,,,81,110
69384,note_on,2,0,3,,,,,,,,2,,,80,110
69406,note_on,94,0,4,,,,,,,,3,,,71,0
69406,note_on,22,0,3,,,,,,,,2,,,80,0
69406,note_on,22,0,1,,,,,,,,0,,,81,0
69406,note_on,94,0,6,,,,,,,,5,,,64,0
69406,note_on,94,0,5,,,,,,,,4,,,74,0
69408,note_on,2,0,3,,,,,,,,2,,,81,110
69408,note_on,2,0,5,,,,,,,,4,,,83,110
69408,note_on,2,0,1,,,,,,,,0,,,80,110
69408,note_on,2,0,6,,,,,,,,5,,,64,110
69408,note_on,2,0,4,,,,,,,,3,,,71,110
69430,note_on,22,0,1,,,,,,,,0,,,80,0
69430,note_on,22,0,3,,,,,,,,2,,,81,0
69432,note_on,2,0,1,,,,,,,,0,,,78,110
69432,note_on,2,0,3,,,,,,,,2,,,80,110
69454,note_on,22,0,1,,,,,,,,0,,,78,0
69454,note_on,22,0,3,,,,,,,,2,,,80,0
69456,note_on,2,0,3,,,,,,,,2,,,81,110
69456,note_on,2,0,1,,,,,,,,0,,,76,110
69478,note_on,22,0,1,,,,,,,,0,,,76,0
69480,note_on,2,0,1,,,,,,,,0,,,74,110
69502,note_on,22,0,1,,,,,,,,0,,,74,0
69502,note_on,94,0,4,,,,,,,,3,,,71,0
69502,note_on,94,0,6,,,,,,,,5,,,64,0
69502,note_on,94,0,5,,,,,,,,4,,,83,0
69502,note_on,46,0,3,,,,,,,,2,,,81,0
69504,note_on,2,0,1,,,,,,,,0,,,57,110
69504,note_on,0,0,1,,,,,,,,0,,,69,110
69504,note_on,0,0,1,,,,,,,,0,,,72,110
69504,note_on,4064,0,10,,,,,,,,10,,,60,45
69504,note_on,2,0,6,,,,,,,,5,,,57,110
69504,note_on,4064,0,11,,,,,,,,11,,,57,45
69504,note_on,2,0,3,,,,,,,,2,,,81,110
69504,note_on,4064,0,9,,,,,,,,8,,,69,45
69504,note_on,2,0,5,,,,,,,,4,,,81,110
69504,note_on,2,0,4,,,,,,,,3,,,72,110
69504,note_on,0,0,8,,,,,,,,7,,,60,110
69504,note_on,4034,0,8,,,,,,,,7,,,57,110
69552,note_on,4082,0,7,,,,,,,,6,,,69,110
69598,note_on,94,0,8,,,,,,,,7,,,60,0
69598,note_on,0,0,8,,,,,,,,7,,,57,0
69598,note_on,94,0,3,,,,,,,,2,,,81,0
69598,note_on,94,0,6,,,,,,,,5,,,57,0
69598,note_on,94,0,5,,,,,,,,4,,,81,0
69598,note_on,0,0,1,,,,,,,,0,,,57,0
69598,note_on,94,0,4,,,,,,,,3,,,72,0
69598,note_on,0,0,1,,,,,,,,0,,,69,0
69598,note_on,94,0,1,,,,,,,,0,,,72,0
69598,note_on,46,0,7,,,,,,,,6,,,69,0
69600,note_on,2,0,7,,,,,,,,6,,,71,110
69600,note_on,2,0,8,,,,,,,,7,,,57,110
69600,note_on,0,0,8,,,,,,,,7,,,60,110
69646,note_on,46,0,7,,,,,,,,6,,,71,0
69648,note_on,2,0,7,,,,,,,,6,,,72,110
69664,note_on,160,0,11,,,,,,,,11,,,57,0
69664,note_on,160,0,10,,,,,,,,10,,,60,0
69694,note_on,94,0,8,,,,,,,,7,,,60,0
69694,note_on,0,0,8,,,,,,,,7,,,57,0
69694,note_on,46,0,7,,,,,,,,6,,,72,0
69696,note_on,2,0,8,,,,,,,,7,,,57,110
69696,note_on,0,0,8,,,,,,,,7,,,60,110
69696,note_on,2,0,7,,,,,,,,6,,,71,110
69742,note_on,46,0,7,,,,,,,,6,,,71,0
69744,note_on,2,0,7,,,,,,,,6,,,69,110
69790,note_on,94,0,8,,,,,,,,7,,,60,0
69790,note_on,46,0,7,,,,,,,,6,,,69,0
69790,note_on,0,0,8,,,,,,,,7,,,57,0
69792,note_on,2,0,8,,,,,,,,7,,,57,110
69792,note_on,0,0,8,,,,,,,,7,,,60,110
69792,note_on,2,0,7,,,,,,,,6,,,68,110
69838,note_on,46,0,7,,,,,,,,6,,,68,0
69840,note_on,2,0,7,,,,,,,,6,,,69,110
69886,note_on,0,0,8,,,,,,,,7,,,57,0
69886,note_on,94,0,8,,,,,,,,7,,,60,0
69886,note_on,46,0,7,,,,,,,,6,,,69,0
69888,note_on,0,0,8,,,,,,,,7,,,62,110
69888,note_on,224,0,10,,,,,,,,10,,,62,45
69888,note_on,224,0,11,,,,,,,,11,,,59,45
69888,note_on,2,0,8,,,,,,,,7,,,59,110
69936,note_on,50,0,7,,,,,,,,6,,,69,110
69982,note_on,0,0,8,,,,,,,,7,,,59,0
69982,note_on,46,0,7,,,,,,,,6,,,69,0
69982,note_on,94,0,8,,,,,,,,7,,,62,0
69984,note_on,2,0,8,,,,,,,,7,,,59,110
69984,note_on,0,0,8,,,,,,,,7,,,62,110
69984,note_on,2,0,7,,,,,,,,6,,,71,110
70030,note_on,46,0,7,,,,,,,,6,,,71,0
70032,note_on,2,0,7,,,,,,,,6,,,72,110
70048,note_on,160,0,10,,,,,,,,10,,,62,0
70048,note_on,160,0,11,,,,,,,,11,,,59,0
70078,note_on,46,0,7,,,,,,,,6,,,72,0
70078,note_on,0,0,8,,,,,,,,7,,,59,0
70078,note_on,94,0,8,,,,,,,,7,,,62,0
70080,note_on,2,0,7,,,,,,,,6,,,71,110
70080,note_on,0,0,8,,,,,,,,7,,,62,110
70080,note_on,2,0,8,,,,,,,,7,,,59,110
70126,note_on,46,0,7,,,,,,,,6,,,71,0
70128,note_on,2,0,7,,,,,,,,6,,,69,110
70174,note_on,94,0,8,,,,,,,,7,,,62,0
70174,note_on,0,0,8,,,,,,,,7,,,59,0
70174,note_on,46,0,7,,,,,,,,6,,,69,0
70176,note_on,2,0,8,,,,,,,,7,,,59,110
70176,note_on,0,0,8,,,,,,,,7,,,62,110
70176,note_on,2,0,7,,,,,,,,6,,,68,110
70222,note_on,46,0,7,,,,,,,,6,,,68,0
70224,note_on,2,0,7,,,,,,,,6,,,69,110
70270,note_on,0,0,8,,,,,,,,7,,,59,0
70270,note_on,94,0,8,,,,,,,,7,,,62,0
70270,note_on,46,0,7,,,,,,,,6,,,69,0
70272,note_on,2,0,8,,,,,,,,7,,,60,110
70272,note_on,0,0,8,,,,,,,,7,,,64,110
70272,note_on,224,0,11,,,,,,,,11,,,60,45
70272,note_on,224,0,10,,,,,,,,10,,,64,45
70320,note_on,50,0,7,,,,,,,,6,,,69,110
70366,note_on,0,0,8,,,,,,,,7,,,60,0
70366,note_on,94,0,8,,,,,,,,7,,,64,0
70366,note_on,46,0,7,,,,,,,,6,,,69,0
70368,note_on,2,0,7,,,,,,,,6,,,71,110
70368,note_on,0,0,8,,,,,,,,7,,,64,110
70368,note_on,2,0,8,,,,,,,,7,,,60,110
70414,note_on,46,0,7,,,,,,,,6,,,71,0
70416,note_on,2,0,7,,,,,,,,6,,,72,110
70432,note_on,160,0,10,,,,,,,,10,,,64,0
70432,note_on,160,0,11,,,,,,,,11,,,60,0
70462,note_on,0,0,8,,,,,,,,7,,,60,0
70462,note_on,94,0,8,,,,,,,,7,,,64,0
70462,note_on,46,0,7,,,,,,,,6,,,72,0
70464,note_on,2,0,7,,,,,,,,6,,,71,110
70464,note_on,0,0,8,,,,,,,,7,,,64,110
70464,note_on,2,0,8,,,,,,,,7,,,60,110
70510,note_on,46,0,7,,,,,,,,6,,,71,0
70512,note_on,2,0,7,,,,,,,,6,,,69,110
70558,note_on,94,0,8,,,,,,,,7,,,64,0
70558,note_on,0,0,8,,,,,,,,7,,,60,0
70558,note_on,46,0,7,,,,,,,,6,,,69,0
70560,note_on,2,0,8,,,,,,,,7,,,60,110
70560,note_on,0,0,8,,,,,,,,7,,,64,110
70560,note_on,2,0,7,,,,,,,,6,,,68,110
70606,note_on,46,0,7,,,,,,,,6,,,68,0
70608,note_on,2,0,7,,,,,,,,6,,,69,110
70654,note_on,94,0,8,,,,,,,,7,,,64,0
70654,note_on,0,0,8,,,,,,,,7,,,60,0
70654,note_on,46,0,7,,,,,,,,6,,,69,0
70656,note_on,224,0,10,,,,,,,,10,,,65,45
70656,note_on,224,0,11,,,,,,,,11,,,62,45
70656,note_on,0,0,8,,,,,,,,7,,,65,110
70656,note_on,2,0,8,,,,,,,,7,,,62,110
70704,note_on,50,0,7,,,,,,,,6,,,69,110
70750,note_on,94,0,8,,,,,,,,7,,,65,0
70750,note_on,0,0,8,,,,,,,,7,,,62,0
70750,note_on,46,0,7,,,,,,,,6,,,69,0
70752,note_on,2,0,8,,,,,,,,7,,,62,110
70752,note_on,0,0,8,,,,,,,,7,,,65,110
70752,note_on,2,0,7,,,,,,,,6,,,71,110
70798,note_on,46,0,7,,,,,,,,6,,,71,0
70800,note_on,2,0,7,,,,,,,,6,,,72,110
70816,note_on,160,0,10,,,,,,,,10,,,65,0
70816,note_on,160,0,11,,,,,,,,11,,,62,0
70846,note_on,94,0,8,,,,,,,,7,,,65,0
70846,note_on,0,0,8,,,,,,,,7,,,62,0
70846,note_on,46,0,7,,,,,,,,6,,,72,0
70848,note_on,2,0,7,,,,,,,,6,,,71,110
70848,note_on,2,0,8,,,,,,,,7,,,62,110
70848,note_on,0,0,8,,,,,,,,7,,,65,110
70894,note_on,46,0,7,,,,,,,,6,,,71,0
70896,note_on,2,0,7,,,,,,,,6,,,69,110
70942,note_on,0,0,8,,,,,,,,7,,,62,0
70942,note_on,94,0,8,,,,,,,,7,,,65,0
70942,note_on,46,0,7,,,,,,,,6,,,69,0
70944,note_on,0,0,8,,,,,,,,7,,,65,110
70944,note_on,2,0,8,,,,,,,,7,,,62,110
70944,note_on,2,0,7,,,,,,,,6,,,68,110
70990,note_on,46,0,7,,,,,,,,6,,,68,0
70992,note_on,1488,0,9,,,,,,,,8,,,69,0
70992,note_on,2,0,7,,,,,,,,6,,,69,110
71038,note_on,46,0,7,,,,,,,,6,,,69,0
71038,note_on,94,0,8,,,,,,,,7,,,65,0
71038,note_on,0,0,8,,,,,,,,7,,,62,0
71040,note_on,2,0,7,,,,,,,,6,,,76,110
71040,note_on,2,0,8,,,,,,,,7,,,57,110
71086,note_on,46,0,7,,,,,,,,6,,,76,0
71086,note_on,46,0,8,,,,,,,,7,,,57,0
71088,note_on,2,0,7,,,,,,,,6,,,81,110
71088,note_on,2,0,8,,,,,,,,7,,,60,110
71134,note_on,46,0,7,,,,,,,,6,,,81,0
71134,note_on,46,0,8,,,,,,,,7,,,60,0
71136,note_on,2,0,8,,,,,,,,7,,,57,110
71136,note_on,320,0,11,,,,,,,,11,,,57,45
71136,note_on,320,0,10,,,,,,,,10,,,64,45
71136,note_on,2,0,7,,,,,,,,6,,,84,110
71136,note_on,144,0,9,,,,,,,,8,,,72,45
71182,note_on,46,0,8,,,,,,,,7,,,57,0
71184,note_on,2,0,8,,,,,,,,7,,,60,110
71230,note_on,46,0,8,,,,,,,,7,,,60,0
71232,note_on,0,0,9,,,,,,,,8,,,72,45
71232,note_on,96,0,9,,,,,,,,8,,,72,0
71232,note_on,2,0,8,,,,,,,,7,,,57,110
71232,note_on,0,0,11,,,,,,,,11,,,57,45
71232,note_on,96,0,11,,,,,,,,11,,,57,0
71232,note_on,0,0,10,,,,,,,,10,,,64,45
71232,note_on,96,0,10,,,,,,,,10,,,64,0
71278,note_on,142,0,7,,,,,,,,6,,,84,0
71278,note_on,46,0,8,,,,,,,,7,,,57,0
71280,note_on,2,0,8,,,,,,,,7,,,60,110
71280,note_on,2,0,7,,,,,,,,6,,,81,110
71326,note_on,46,0,7,,,,,,,,6,,,81,0
71326,note_on,46,0,8,,,,,,,,7,,,60,0
71328,note_on,0,0,11,,,,,,,,11,,,57,45
71328,note_on,96,0,10,,,,,,,,10,,,64,0
71328,note_on,2,0,7,,,,,,,,6,,,77,110
71328,note_on,96,0,9,,,,,,,,8,,,72,0
71328,note_on,0,0,10,,,,,,,,10,,,69,45
71328,note_on,96,0,11,,,,,,,,11,,,57,0
71328,note_on,0,0,9,,,,,,,,8,,,72,45
71328,note_on,2,0,8,,,,,,,,7,,,57,110
71374,note_on,46,0,7,,,,,,,,6,,,77,0
71374,note_on,46,0,8,,,,,,,,7,,,57,0
71376,note_on,2,0,7,,,,,,,,6,,,76,110
71376,note_on,2,0,8,,,,,,,,7,,,60,110
71422,note_on,94,0,10,,,,,,,,10,,,69,0
71422,note_on,46,0,8,,,,,,,,7,,,60,0
71422,note_on,94,0,11,,,,,,,,11,,,57,0
71422,note_on,46,0,7,,,,,,,,6,,,76,0
71422,note_on,94,0,9,,,,,,,,8,,,72,0
71424,note_on,2,0,8,,,,,,,,7,,,59,110
71424,note_on,2,0,7,,,,,,,,6,,,74,110
71470,note_on,46,0,8,,,,,,,,7,,,59,0
71470,note_on,46,0,7,,,,,,,,6,,,74,0
71472,note_on,2,0,8,,,,,,,,7,,,62,110
71472,note_on,2,0,7,,,,,,,,6,,,80,110
71518,note_on,46,0,7,,,,,,,,6,,,80,0
71518,note_on,46,0,8,,,,,,,,7,,,62,0
71520,note_on,98,0,10,,,,,,,,10,,,68,45
71520,note_on,98,0,9,,,,,,,,8,,,74,45
71520,note_on,2,0,7,,,,,,,,6,,,83,110
71520,note_on,2,0,8,,,,,,,,7,,,59,110
71520,note_on,98,0,11,,,,,,,,11,,,59,45
71566,note_on,46,0,8,,,,,,,,7,,,59,0
71568,note_on,2,0,8,,,,,,,,7,,,62,110
71614,note_on,46,0,8,,,,,,,,7,,,62,0
71616,note_on,0,0,9,,,,,,,,8,,,74,45
71616,note_on,96,0,9,,,,,,,,8,,,74,0
71616,note_on,0,0,11,,,,,,,,11,,,59,45
71616,note_on,96,0,10,,,,,,,,10,,,68,0
71616,note_on,96,0,11,,,,,,,,11,,,59,0
71616,note_on,2,0,8,,,,,,,,7,,,59,110
71616,note_on,0,0,10,,,,,,,,10,,,68,45
71662,note_on,46,0,8,,,,,,,,7,,,59,0
71662,note_on,142,0,7,,,,,,,,6,,,83,0
71664,note_on,2,0,8,,,,,,,,7,,,62,110
71664,note_on,2,0,7,,,,,,,,6,,,80,110
71710,note_on,46,0,8,,,,,,,,7,,,62,0
71710,note_on,46,0,7,,,,,,,,6,,,80,0
71712,note_on,96,0,9,,,,,,,,8,,,74,0
71712,note_on,96,0,10,,,,,,,,10,,,68,0
71712,note_on,96,0,11,,,,,,,,11,,,59,0
71712,note_on,0,0,11,,,,,,,,11,,,59,45
71712,note_on,0,0,10,,,,,,,,10,,,68,45
71712,note_on,0,0,9,,,,,,,,8,,,74,45
71712,note_on,2,0,8,,,,,,,,7,,,59,110
71712,note_on,2,0,7,,,,,,,,6,,,76,110
71758,note_on,46,0,8,,,,,,,,7,,,59,0
71758,note_on,46,0,7,,,,,,,,6,,,76,0
71760,note_on,2,0,8,,,,,,,,7,,,62,110
71760,note_on,2,0,7,,,,,,,,6,,,74,110
71806,note_on,46,0,7,,,,,,,,6,,,74,0
71806,note_on,94,0,11,,,,,,,,11,,,59,0
71806,note_on,94,0,10,,,,,,,,10,,,68,0
71806,note_on,46,0,8,,,,,,,,7,,,62,0
71806,note_on,94,0,9,,,,,,,,8,,,74,0
71808,note_on,2,0,8,,,,,,,,7,,,60,110
71808,note_on,2,0,7,,,,,,,,6,,,76,110
71854,note_on,46,0,8,,,,,,,,7,,,60,0
71854,note_on,46,0,7,,,,,,,,6,,,76,0
71856,note_on,2,0,8,,,,,,,,7,,,64,110
71856,note_on,2,0,7,,,,,,,,6,,,72,110
71902,note_on,46,0,8,,,,,,,,7,,,64,0
71902,note_on,46,0,7,,,,,,,,6,,,72,0
71904,note_on,98,0,9,,,,,,,,8,,,76,45
71904,note_on,2,0,8,,,,,,,,7,,,60,110
71904,note_on,98,0,10,,,,,,,,10,,,69,45
71904,note_on,2,0,7,,,,,,,,6,,,81,110
71904,note_on,98,0,11,,,,,,,,11,,,60,45
71950,note_on,46,0,8,,,,,,,,7,,,60,0
71952,note_on,2,0,8,,,,,,,,7,,,64,110
71998,note_on,46,0,8,,,,,,,,7,,,64,0
72000,note_on,2,0,8,,,,,,,,7,,,60,110
72000,note_on,96,0,11,,,,,,,,11,,,60,0
72000,note_on,0,0,10,,,,,,,,10,,,69,45
72000,note_on,96,0,9,,,,,,,,8,,,76,0
72000,note_on,96,0,10,,,,,,,,10,,,69,0
72000,note_on,0,0,9,,,,,,,,8,,,76,45
72000,note_on,0,0,11,,,,,,,,11,,,60,45
72046,note_on,142,0,7,,,,,,,,6,,,81,0
72046,note_on,46,0,8,,,,,,,,7,,,60,0
72048,note_on,2,0,8,,,,,,,,7,,,64,110
72048,note_on,2,0,7,,,,,,,,6,,,76,110
72094,note_on,46,0,8,,,,,,,,7,,,64,0
72094,note_on,46,0,7,,,,,,,,6,,,76,0
72096,note_on,0,0,11,,,,,,,,11,,,60,45
72096,note_on,96,0,9,,,,,,,,8,,,76,0
72096,note_on,0,0,9,,,,,,,,8,,,76,45
72096,note_on,96,0,10,,,,,,,,10,,,69,0
72096,note_on,0,0,10,,,,,,,,10,,,69,45
72096,note_on,2,0,7,,,,,,,,6,,,74,110
72096,note_on,2,0,8,,,,,,,,7,,,60,110
72096,note_on,96,0,11,,,,,,,,11,,,60,0
72142,note_on,46,0,8,,,,,,,,7,,,60,0
72142,note_on,46,0,7,,,,,,,,6,,,74,0
72144,note_on,2,0,7,,,,,,,,6,,,72,110
72144,note_on,2,0,8,,,,,,,,7,,,64,110
72190,note_on,94,0,10,,,,,,,,10,,,69,0
72190,note_on,46,0,7,,,,,,,,6,,,72,0
72190,note_on,46,0,8,,,,,,,,7,,,64,0
72190,note_on,94,0,9,,,,,,,,8,,,76,0
72190,note_on,94,0,11,,,,,,,,11,,,60,0
72192,note_on,2,0,8,,,,,,,,7,,,62,110
72192,note_on,2,0,7,,,,,,,,6,,,71,110
72238,note_on,46,0,8,,,,,,,,7,,,62,0
72238,note_on,46,0,7,,,,,,,,6,,,71,0
72240,note_on,2,0,8,,,,,,,,7,,,65,110
72240,note_on,2,0,7,,,,,,,,6,,,69,110
72286,note_on,46,0,7,,,,,,,,6,,,69,0
72286,note_on,46,0,8,,,,,,,,7,,,65,0
72288,note_on,2,0,7,,,,,,,,6,,,68,110
72288,note_on,98,0,10,,,,,,,,10,,,68,45
72288,note_on,98,0,11,,,,,,,,11,,,62,45
72288,note_on,98,0,9,,,,,,,,8,,,77,45
72288,note_on,2,0,8,,,,,,,,7,,,62,110
72334,note_on,46,0,8,,,,,,,,7,,,62,0
72334,note_on,46,0,7,,,,,,,,6,,,68,0
72336,note_on,2,0,8,,,,,,,,7,,,65,110
72336,note_on,2,0,7,,,,,,,,6,,,69,110
72382,note_on,46,0,7,,,,,,,,6,,,69,0
72382,note_on,46,0,8,,,,,,,,7,,,65,0
72384,note_on,96,0,9,,,,,,,,8,,,77,0
72384,note_on,0,0,10,,,,,,,,10,,,68,45
72384,note_on,0,0,11,,,,,,,,11,,,62,45
72384,note_on,96,0,10,,,,,,,,10,,,68,0
72384,note_on,0,0,9,,,,,,,,8,,,77,45
72384,note_on,96,0,11,,,,,,,,11,,,62,0
72384,note_on,2,0,8,,,,,,,,7,,,62,110
72384,note_on,2,0,7,,,,,,,,6,,,71,110
72430,note_on,46,0,7,,,,,,,,6,,,71,0
72430,note_on,46,0,8,,,,,,,,7,,,62,0
72432,note_on,2,0,7,,,,,,,,6,,,74,110
72432,note_on,2,0,8,,,,,,,,7,,,65,110
72478,note_on,46,0,7,,,,,,,,6,,,74,0
72478,note_on,46,0,8,,,,,,,,7,,,65,0
72480,note_on,96,0,9,,,,,,,,8,,,77,0
72480,note_on,2,0,8,,,,,,,,7,,,62,110
72480,note_on,96,0,10,,,,,,,,10,,,68,0
72480,note_on,0,0,10,,,,,,,,10,,,68,45
72480,note_on,0,0,11,,,,,,,,11,,,62,45
72480,note_on,96,0,11,,,,,,,,11,,,62,0
72480,note_on,2,0,7,,,,,,,,6,,,72,110
72480,note_on,0,0,9,,,,,,,,8,,,77,45
72526,note_on,46,0,8,,,,,,,,7,,,62,0
72526,note_on,46,0,7,,,,,,,,6,,,72,0
72528,note_on,2,0,8,,,,,,,,7,,,65,110
72528,note_on,2,0,7,,,,,,,,6,,,71,110
72574,note_on,94,0,9,,,,,,,,8,,,77,0
72574,note_on,94,0,11,,,,,,,,11,,,62,0
72574,note_on,46,0,7,,,,,,,,6,,,71,0
72574,note_on,94,0,10,,,,,,,,10,,,68,0
72574,note_on,46,0,8,,,,,,,,7,,,65,0
72576,note_on,2,0,7,,,,,,,,6,,,72,110
72576,note_on,2,0,8,,,,,,,,7,,,57,110
72622,note_on,46,0,8,,,,,,,,7,,,57,0
72622,note_on,46,0,7,,,,,,,,6,,,72,0
72624,note_on,2,0,7,,,,,,,,6,,,69,110
72624,note_on,2,0,8,,,,,,,,7,,,60,110
72670,note_on,46,0,7,,,,,,,,6,,,69,0
72670,note_on,46,0,8,,,,,,,,7,,,60,0
72672,note_on,98,0,11,,,,,,,,11,,,60,45
72672,note_on,2,0,7,,,,,,,,6,,,64,110
72672,note_on,98,0,10,,,,,,,,10,,,69,45
72672,note_on,2,0,8,,,,,,,,7,,,57,110
72672,note_on,98,0,9,,,,,,,,8,,,76,45
72718,note_on,46,0,7,,,,,,,,6,,,64,0
72718,note_on,46,0,8,,,,,,,,7,,,57,0
72720,note_on,2,0,8,,,,,,,,7,,,60,110
72720,note_on,2,0,7,,,,,,,,6,,,69,110
72766,note_on,46,0,7,,,,,,,,6,,,69,0
72766,note_on,46,0,8,,,,,,,,7,,,60,0
72768,note_on,0,0,11,,,,,,,,11,,,57,45
72768,note_on,96,0,11,,,,,,,,11,,,60,0
72768,note_on,96,0,10,,,,,,,,10,,,69,0
72768,note_on,2,0,8,,,,,,,,7,,,57,110
72768,note_on,0,0,10,,,,,,,,10,,,69,45
72768,note_on,0,0,9,,,,,,,,8,,,72,45
72768,note_on,96,0,9,,,,,,,,8,,,76,0
72768,note_on,2,0,7,,,,,,,,6,,,72,110
72814,note_on,46,0,7,,,,,,,,6,,,72,0
72814,note_on,46,0,8,,,,,,,,7,,,57,0
72816,note_on,2,0,7,,,,,,,,6,,,69,110
72816,note_on,2,0,8,,,,,,,,7,,,60,110
72862,note_on,46,0,7,,,,,,,,6,,,69,0
72862,note_on,46,0,8,,,,,,,,7,,,60,0
72864,note_on,96,0,11,,,,,,,,11,,,57,0
72864,note_on,96,0,9,,,,,,,,8,,,72,0
72864,note_on,2,0,8,,,,,,,,7,,,57,110
72864,note_on,0,0,9,,,,,,,,8,,,72,45
72864,note_on,2,0,7,,,,,,,,6,,,64,110
72864,note_on,0,0,10,,,,,,,,10,,,69,45
72864,note_on,96,0,10,,,,,,,,10,,,69,0
72864,note_on,0,0,11,,,,,,,,11,,,57,45
72910,note_on,46,0,7,,,,,,,,6,,,64,0
72910,note_on,46,0,8,,,,,,,,7,,,57,0
72912,note_on,2,0,8,,,,,,,,7,,,60,110
72912,note_on,2,0,7,,,,,,,,6,,,69,110
72958,note_on,94,0,11,,,,,,,,11,,,57,0
72958,note_on,46,0,7,,,,,,,,6,,,69,0
72958,note_on,46,0,8,,,,,,,,7,,,60,0
72958,note_on,94,0,10,,,,,,,,10,,,69,0
72958,note_on,94,0,9,,,,,,,,8,,,72,0
72960,note_on,2,0,10,,,,,,,,10,,,69,45
72960,note_on,2,0,9,,,,,,,,8,,,71,45
72960,note_on,2,0,8,,,,,,,,7,,,51,110
72960,note_on,2,0,11,,,,,,,,11,,,51,45
72960,note_on,2,0,7,,,,,,,,6,,,71,110
73006,note_on,46,0,7,,,,,,,,6,,,71,0
73008,note_on,2,0,7,,,,,,,,6,,,69,110
73054,note_on,94,0,8,,,,,,,,7,,,51,0
73054,note_on,46,0,7,,,,,,,,6,,,69,0
73056,note_on,2,0,8,,,,,,,,7,,,59,110
73056,note_on,2,0,7,,,,,,,,6,,,66,110
73102,note_on,46,0,7,,,,,,,,6,,,66,0
73104,note_on,2,0,7,,,,,,,,6,,,69,110
73120,note_on,160,0,11,,,,,,,,11,,,51,0
73150,note_on,46,0,7,,,,,,,,6,,,69,0
73150,note_on,94,0,8,,,,,,,,7,,,59,0
73152,note_on,2,0,7,,,,,,,,6,,,71,110
73152,note_on,2,0,8,,,,,,,,7,,,51,110
73152,note_on,32,0,11,,,,,,,,11,,,63,45
73198,note_on,46,0,7,,,,,,,,6,,,71,0
73200,note_on,2,0,7,,,,,,,,6,,,69,110
73246,note_on,46,0,7,,,,,,,,6,,,69,0
73246,note_on,94,0,8,,,,,,,,7,,,51,0
73248,note_on,2,0,7,,,,,,,,6,,,66,110
73248,note_on,2,0,8,,,,,,,,7,,,59,110
73294,note_on,46,0,7,,,,,,,,6,,,66,0
73296,note_on,2,0,7,,,,,,,,6,,,69,110
73296,note_on,336,0,10,,,,,,,,10,,,69,0
73312,note_on,160,0,11,,,,,,,,11,,,63,0
73342,note_on,94,0,8,,,,,,,,7,,,59,0
73342,note_on,46,0,7,,,,,,,,6,,,69,0
73344,note_on,32,0,11,,,,,,,,11,,,64,45
73344,note_on,2,0,8,,,,,,,,7,,,52,110
73344,note_on,2,0,7,,,,,,,,6,,,71,110
73344,note_on,48,0,10,,,,,,,,10,,,68,45
73390,note_on,46,0,7,,,,,,,,6,,,71,0
73392,note_on,2,0,7,,,,,,,,6,,,68,110
73438,note_on,94,0,8,,,,,,,,7,,,52,0
73438,note_on,46,0,7,,,,,,,,6,,,68,0
73440,note_on,2,0,7,,,,,,,,6,,,64,110
73440,note_on,2,0,8,,,,,,,,7,,,62,110
73486,note_on,46,0,7,,,,,,,,6,,,64,0
73488,note_on,2,0,7,,,,,,,,6,,,68,110
73504,note_on,160,0,11,,,,,,,,11,,,64,0
73534,note_on,46,0,7,,,,,,,,6,,,68,0
73534,note_on,94,0,8,,,,,,,,7,,,62,0
73536,note_on,2,0,7,,,,,,,,6,,,71,110
73536,note_on,32,0,11,,,,,,,,11,,,52,45
73536,note_on,2,0,8,,,,,,,,7,,,52,110
73582,note_on,46,0,7,,,,,,,,6,,,71,0
73584,note_on,2,0,7,,,,,,,,6,,,68,110
73630,note_on,94,0,8,,,,,,,,7,,,52,0
73630,note_on,46,0,7,,,,,,,,6,,,68,0
73632,note_on,2,0,7,,,,,,,,6,,,64,110
73632,note_on,2,0,8,,,,,,,,7,,,62,110
73678,note_on,46,0,7,,,,,,,,6,,,64,0
73680,note_on,336,0,10,,,,,,,,10,,,68,0
73680,note_on,720,0,9,,,,,,,,8,,,71,0
73680,note_on,2,0,7,,,,,,,,6,,,68,110
73696,note_on,160,0,11,,,,,,,,11,,,52,0
73726,note_on,94,0,8,,,,,,,,7,,,62,0
73726,note_on,46,0,7,,,,,,,,6,,,68,0
73728,note_on,0,0,6,,,,,,,,5,,,48,110
73728,note_on,4562,0,2,,,,,,,,1,,,45,110
73728,note_on,0,0,2,,,,,,,,1,,,52,110
73728,note_on,0,0,2,,,,,,,,1,,,57,110
73728,note_on,48,0,9,,,,,,,,8,,,69,92
73728,note_on,0,0,2,,,,,,,,1,,,48,110
73728,note_on,48,0,10,,,,,,,,10,,,69,92
73728,note_on,0,0,1,,,,,,,,0,,,72,110
73728,note_on,4130,0,1,,,,,,,,0,,,64,110
73728,note_on,4130,0,6,,,,,,,,5,,,45,110
73728,note_on,0,0,1,,,,,,,,0,,,69,110
73728,note_on,0,0,6,,,,,,,,5,,,52,110
73728,note_on,0,0,6,,,,,,,,5,,,57,110
73728,note_on,0,0,5,,,,,,,,4,,,76,110
73728,note_on,0,0,5,,,,,,,,4,,,72,110
73728,note_on,0,0,3,,,,,,,,2,,,72,110
73728,note_on,8288,0,12,,,,,,,,12,,,45,92
73728,note_on,0,0,4,,,,,,,,3,,,60,110
73728,note_on,4130,0,4,,,,,,,,3,,,57,110
73728,note_on,2,0,8,,,,,,,,7,,,57,110
73728,note_on,32,0,11,,,,,,,,11,,,60,92
73728,note_on,2,0,7,,,,,,,,6,,,64,110
73728,note_on,0,0,7,,,,,,,,6,,,69,110
73728,note_on,0,0,3,,,,,,,,2,,,69,110
73728,note_on,0,0,8,,,,,,,,7,,,60,110
73728,note_on,4130,0,3,,,,,,,,2,,,64,110
73728,note_on,0,0,5,,,,,,,,4,,,69,110
73728,note_on,0,0,1,,,,,,,,0,,,76,110
73728,note_on,4130,0,5,,,,,,,,4,,,64,110
73728,note_on,0,0,7,,,,,,,,6,,,72,110
73774,note_on,46,0,10,,,,,,,,10,,,69,0
73774,note_on,46,0,9,,,,,,,,8,,,69,0
73774,note_on,46,0,11,,,,,,,,11,,,60,0
73776,note_on,2,0,10,,,,,,,,10,,,64,92
73776,note_on,2,0,9,,,,,,,,8,,,64,92
73776,note_on,2,0,11,,,,,,,,11,,,64,92
73822,note_on,46,0,11,,,,,,,,11,,,64,0
73822,note_on,46,0,9,,,,,,,,8,,,64,0
73822,note_on,46,0,10,,,,,,,,10,,,64,0
73824,note_on,2,0,10,,,,,,,,10,,,60,92
73824,note_on,2,0,9,,,,,,,,8,,,60,92
73824,note_on,2,0,11,,,,,,,,11,,,60,92
73870,note_on,46,0,11,,,,,,,,11,,,60,0
73870,note_on,46,0,10,,,,,,,,10,,,60,0
73870,note_on,46,0,9,,,,,,,,8,,,60,0
73872,note_on,2,0,11,,,,,,,,11,,,64,92
73872,note_on,2,0,9,,,,,,,,8,,,64,92
73872,note_on,2,0,10,,,,,,,,10,,,64,92
73888,note_on,0,0,7,,,,,,,,6,,,64,0
73888,note_on,160,0,2,,,,,,,,1,,,57,0
73888,note_on,160,0,12,,,,,,,,12,,,45,0
73888,note_on,160,0,4,,,,,,,,3,,,60,0
73888,note_on,160,0,7,,,,,,,,6,,,72,0
73888,note_on,0,0,5,,,,,,,,4,,,72,0
73888,note_on,0,0,5,,,,,,,,4,,,69,0
73888,note_on,0,0,5,,,,,,,,4,,,64,0
73888,note_on,0,0,4,,,,,,,,3,,,57,0
73888,note_on,160,0,5,,,,,,,,4,,,76,0
73888,note_on,0,0,2,,,,,,,,1,,,48,0
73888,note_on,0,0,7,,,,,,,,6,,,69,0
73888,note_on,0,0,2,,,,,,,,1,,,52,0
73888,note_on,0,0,2,,,,,,,,1,,,45,0
73888,note_on,160,0,3,,,,,,,,2,,,72,0
73888,note_on,0,0,1,,,,,,,,0,,,64,0
73888,note_on,0,0,1,,,,,,,,0,,,69,0
73888,note_on,160,0,1,,,,,,,,0,,,76,0
73888,note_on,0,0,8,,,,,,,,7,,,57,0
73888,note_on,160,0,6,,,,,,,,5,,,57,0
73888,note_on,0,0,6,,,,,,,,5,,,45,0
73888,note_on,0,0,6,,,,,,,,5,,,48,0
73888,note_on,0,0,6,,,,,,,,5,,,52,0
73888,note_on,160,0,8,,,,,,,,7,,,60,0
73888,note_on,0,0,1,,,,,,,,0,,,72,0
73888,note_on,0,0,3,,,,,,,,2,,,69,0
73888,note_on,0,0,3,,,,,,,,2,,,64,0
73918,note_on,46,0,10,,,,,,,,10,,,64,0
73918,note_on,46,0,9,,,,,,,,8,,,64,0
73918,note_on,46,0,11,,,,,,,,11,,,64,0
73920,note_on,2,0,11,,,,,,,,11,,,57,92
73920,note_on,2,0,10,,,,,,,,10,,,57,92
73920,note_on,2,0,9,,,,,,,,8,,,57,92
74014,note_on,94,0,10,,,,,,,,10,,,57,0
74014,note_on,94,0,11,,,,,,,,11,,,57,0
74014,note_on,94,0,9,,,,,,,,8,,,57,0
74016,note_on,2,0,9,,,,,,,,8,,,76,92
74016,note_on,128,0,6,,,,,,,,5,,,57,110
74016,note_on,2,0,10,,,,,,,,10,,,76,92
74016,note_on,128,0,12,,,,,,,,12,,,57,92
74016,note_on,128,0,4,,,,,,,,3,,,57,110
74016,note_on,128,0,1,,,,,,,,0,,,76,110
74016,note_on,128,0,3,,,,,,,,2,,,72,110
74016,note_on,2,0,11,,,,,,,,11,,,60,92
74016,note_on,128,0,5,,,,,,,,4,,,76,110
74016,note_on,128,0,2,,,,,,,,1,,,57,110
74016,note_on,128,0,7,,,,,,,,6,,,69,110
74110,note_on,94,0,2,,,,,,,,1,,,57,0
74110,note_on,94,0,11,,,,,,,,11,,,60,0
74110,note_on,94,0,10,,,,,,,,10,,,76,0
74110,note_on,94,0,6,,,,,,,,5,,,57,0
74110,note_on,94,0,7,,,,,,,,6,,,69,0
74110,note_on,94,0,4,,,,,,,,3,,,57,0
74110,note_on,94,0,3,,,,,,,,2,,,72,0
74110,note_on,94,0,9,,,,,,,,8,,,76,0
74110,note_on,94,0,5,,,,,,,,4,,,76,0
74110,note_on,94,0,12,,,,,,,,12,,,57,0
74110,note_on,94,0,1,,,,,,,,0,,,76,0
74112,note_on,2,0,10,,,,,,,,10,,,72,92
74112,note_on,2,0,4,,,,,,,,3,,,57,110
74112,note_on,2,0,2,,,,,,,,1,,,45,110
74112,note_on,2,0,3,,,,,,,,2,,,72,110
74112,note_on,2,0,7,,,,,,,,6,,,76,110
74112,note_on,2,0,1,,,,,,,,0,,,76,110
74112,note_on,2,0,6,,,,,,,,5,,,45,110
74112,note_on,2,0,12,,,,,,,,12,,,45,92
74112,note_on,2,0,11,,,,,,,,11,,,64,92
74112,note_on,2,0,5,,,,,,,,4,,,72,110
74112,note_on,2,0,9,,,,,,,,8,,,76,92
74158,note_on,46,0,7,,,,,,,,6,,,76,0
74158,note_on,46,0,3,,,,,,,,2,,,72,0
74160,note_on,2,0,7,,,,,,,,6,,,74,110
74160,note_on,2,0,3,,,,,,,,2,,,69,110
74206,note_on,94,0,9,,,,,,,,8,,,76,0
74206,note_on,46,0,3,,,,,,,,2,,,69,0
74206,note_on,94,0,11,,,,,,,,11,,,64,0
74206,note_on,94,0,4,,,,,,,,3,,,57,0
74206,note_on,94,0,5,,,,,,,,4,,,72,0
74206,note_on,94,0,1,,,,,,,,0,,,76,0
74206,note_on,94,0,2,,,,,,,,1,,,45,0
74206,note_on,94,0,12,,,,,,,,12,,,45,0
74206,note_on,94,0,6,,,,,,,,5,,,45,0
74206,note_on,94,0,10,,,,,,,,10,,,72,0
74206,note_on,46,0,7,,,,,,,,6,,,74,0
74208,note_on,320,0,8,,,,,,,,7,,,60,110
74208,note_on,2,0,6,,,,,,,,5,,,57,110
74208,note_on,2,0,5,,,,,,,,4,,,69,110
74208,note_on,2,0,3,,,,,,,,2,,,72,110
74208,note_on,2,0,10,,,,,,,,10,,,69,92
74208,note_on,2,0,11,,,,,,,,11,,,60,92
74208,note_on,2,0,12,,,,,,,,12,,,57,92
74208,note_on,2,0,9,,,,,,,,8,,,76,92
74208,note_on,2,0,4,,,,,,,,3,,,64,110
74208,note_on,2,0,2,,,,,,,,1,,,57,110
74208,note_on,2,0,1,,,,,,,,0,,,76,110
74208,note_on,2,0,7,,,,,,,,6,,,76,110
74254,note_on,46,0,3,,,,,,,,2,,,72,0
74256,note_on,2,0,3,,,,,,,,2,,,76,110
74302,note_on,94,0,4,,,,,,,,3,,,64,0
74302,note_on,94,0,1,,,,,,,,0,,,76,0
74302,note_on,94,0,5,,,,,,,,4,,,69,0
74302,note_on,94,0,7,,,,,,,,6,,,76,0
74302,note_on,94,0,11,,,,,,,,11,,,60,0
74302,note_on,94,0,2,,,,,,,,1,,,57,0
74302,note_on,94,0,6,,,,,,,,5,,,57,0
74302,note_on,94,0,9,,,,,,,,8,,,76,0
74302,note_on,94,0,12,,,,,,,,12,,,57,0
74302,note_on,46,0,3,,,,,,,,2,,,76,0
74302,note_on,94,0,10,,,,,,,,10,,,69,0
74302,note_on,94,0,8,,,,,,,,7,,,60,0
74304,note_on,2,0,3,,,,,,,,2,,,76,110
74304,note_on,2,0,1,,,,,,,,0,,,76,110
74304,note_on,2,0,9,,,,,,,,8,,,76,92
74304,note_on,2,0,12,,,,,,,,12,,,56,92
74304,note_on,2,0,2,,,,,,,,1,,,56,110
74304,note_on,2,0,6,,,,,,,,5,,,56,110
74304,note_on,2,0,11,,,,,,,,11,,,59,92
74304,note_on,2,0,8,,,,,,,,7,,,59,110
74352,note_on,0,0,3,,,,,,,,2,,,74,110
74352,note_on,50,0,7,,,,,,,,6,,,68,110
74352,note_on,48,0,3,,,,,,,,2,,,76,0
74398,note_on,94,0,12,,,,,,,,12,,,56,0
74398,note_on,46,0,3,,,,,,,,2,,,74,0
74398,note_on,94,0,9,,,,,,,,8,,,76,0
74398,note_on,46,0,7,,,,,,,,6,,,68,0
74398,note_on,94,0,2,,,,,,,,1,,,56,0
74398,note_on,94,0,8,,,,,,,,7,,,59,0
74398,note_on,94,0,6,,,,,,,,5,,,56,0
74398,note_on,94,0,1,,,,,,,,0,,,76,0
74398,note_on,94,0,11,,,,,,,,11,,,59,0
74400,note_on,2,0,6,,,,,,,,5,,,52,110
74400,note_on,2,0,12,,,,,,,,12,,,52,92
74400,note_on,2,0,11,,,,,,,,11,,,56,92
74400,note_on,2,0,1,,,,,,,,0,,,76,110
74400,note_on,2,0,2,,,,,,,,1,,,52,110
74400,note_on,2,0,9,,,,,,,,8,,,76,92
74400,note_on,98,0,10,,,,,,,,10,,,76,92
74400,note_on,2,0,3,,,,,,,,2,,,76,110
74400,note_on,98,0,5,,,,,,,,4,,,76,110
74400,note_on,2,0,8,,,,,,,,7,,,56,110
74400,note_on,98,0,4,,,,,,,,3,,,56,110
74400,note_on,2,0,7,,,,,,,,6,,,71,110
74446,note_on,46,0,7,,,,,,,,6,,,71,0
74448,note_on,2,0,7,,,,,,,,6,,,76,110
74494,note_on,94,0,2,,,,,,,,1,,,52,0
74494,note_on,94,0,3,,,,,,,,2,,,76,0
74494,note_on,94,0,12,,,,,,,,12,,,52,0
74494,note_on,94,0,5,,,,,,,,4,,,76,0
74494,note_on,94,0,9,,,,,,,,8,,,76,0
74494,note_on,94,0,10,,,,,,,,10,,,76,0
74494,note_on,94,0,4,,,,,,,,3,,,56,0
74494,note_on,94,0,1,,,,,,,,0,,,76,0
74494,note_on,94,0,11,,,,,,,,11,,,56,0
74494,note_on,46,0,7,,,,,,,,6,,,76,0
74494,note_on,94,0,6,,,,,,,,5,,,52,0
74494,note_on,94,0,8,,,,,,,,7,,,56,0
74496,note_on,2,0,9,,,,,,,,8,,,81,92
74496,note_on,2,0,1,,,,,,,,0,,,81,110
74496,note_on,2,0,7,,,,,,,,6,,,76,110
74496,note_on,2,0,10,,,,,,,,10,,,72,92
74496,note_on,2,0,4,,,,,,,,3,,,57,110
74496,note_on,2,0,5,,,,,,,,4,,,72,110
74542,note_on,46,0,7,,,,,,,,6,,,76,0
74544,note_on,2,0,7,,,,,,,,6,,,74,110
74544,note_on,50,0,3,,,,,,,,2,,,69,110
74590,note_on,46,0,7,,,,,,,,6,,,74,0
74590,note_on,94,0,4,,,,,,,,3,,,57,0
74590,note_on,94,0,9,,,,,,,,8,,,81,0
74590,note_on,46,0,3,,,,,,,,2,,,69,0
74590,note_on,94,0,1,,,,,,,,0,,,81,0
74590,note_on,94,0,10,,,,,,,,10,,,72,0
74590,note_on,94,0,5,,,,,,,,4,,,72,0
74592,note_on,98,0,12,,,,,,,,12,,,57,92
74592,note_on,2,0,7,,,,,,,,6,,,76,110
74592,note_on,2,0,10,,,,,,,,10,,,69,92
74592,note_on,2,0,1,,,,,,,,0,,,76,110
74592,note_on,2,0,5,,,,,,,,4,,,69,110
74592,note_on,2,0,9,,,,,,,,8,,,76,92
74592,note_on,98,0,2,,,,,,,,1,,,57,110
74592,note_on,98,0,6,,,,,,,,5,,,57,110
74592,note_on,2,0,3,,,,,,,,2,,,72,110
74592,note_on,98,0,8,,,,,,,,7,,,60,110
74592,note_on,2,0,4,,,,,,,,3,,,45,110
74592,note_on,98,0,11,,,,,,,,11,,,60,92
74638,note_on,46,0,3,,,,,,,,2,,,72,0
74640,note_on,2,0,3,,,,,,,,2,,,76,110
74686,note_on,94,0,12,,,,,,,,12,,,57,0
74686,note_on,94,0,7,,,,,,,,6,,,76,0
74686,note_on,94,0,11,,,,,,,,11,,,60,0
74686,note_on,94,0,6,,,,,,,,5,,,57,0
74686,note_on,94,0,2,,,,,,,,1,,,57,0
74686,note_on,94,0,4,,,,,,,,3,,,45,0
74686,note_on,94,0,8,,,,,,,,7,,,60,0
74686,note_on,94,0,5,,,,,,,,4,,,69,0
74686,note_on,94,0,1,,,,,,,,0,,,76,0
74686,note_on,94,0,9,,,,,,,,8,,,76,0
74686,note_on,46,0,3,,,,,,,,2,,,76,0
74686,note_on,94,0,10,,,,,,,,10,,,69,0
74688,note_on,2,0,6,,,,,,,,5,,,56,110
74688,note_on,2,0,2,,,,,,,,1,,,56,110
74688,note_on,2,0,12,,,,,,,,12,,,56,92
74688,note_on,2,0,8,,,,,,,,7,,,59,110
74688,note_on,2,0,9,,,,,,,,8,,,76,92
74688,note_on,2,0,1,,,,,,,,0,,,76,110
74688,note_on,2,0,3,,,,,,,,2,,,76,110
74688,note_on,2,0,11,,,,,,,,11,,,59,92
74736,note_on,48,0,3,,,,,,,,2,,,76,0
74736,note_on,50,0,7,,,,,,,,6,,,68,110
74736,note_on,0,0,3,,,,,,,,2,,,74,110
74782,note_on,94,0,1,,,,,,,,0,,,76,0
74782,note_on,94,0,6,,,,,,,,5,,,56,0
74782,note_on,94,0,9,,,,,,,,8,,,76,0
74782,note_on,46,0,7,,,,,,,,6,,,68,0
74782,note_on,94,0,12,,,,,,,,12,,,56,0
74782,note_on,94,0,11,,,,,,,,11,,,59,0
74782,note_on,46,0,3,,,,,,,,2,,,74,0
74782,note_on,94,0,2,,,,,,,,1,,,56,0
74782,note_on,94,0,8,,,,,,,,7,,,59,0
74784,note_on,2,0,2,,,,,,,,1,,,52,110
74784,note_on,2,0,7,,,,,,,,6,,,71,110
74784,note_on,98,0,5,,,,,,,,4,,,76,110
74784,note_on,2,0,12,,,,,,,,12,,,52,92
74784,note_on,2,0,8,,,,,,,,7,,,56,110
74784,note_on,98,0,4,,,,,,,,3,,,56,110
74784,note_on,2,0,11,,,,,,,,11,,,56,92
74784,note_on,2,0,9,,,,,,,,8,,,76,92
74784,note_on,98,0,10,,,,,,,,10,,,76,92
74784,note_on,2,0,6,,,,,,,,5,,,52,110
74784,note_on,2,0,3,,,,,,,,2,,,76,110
74784,note_on,2,0,1,,,,,,,,0,,,76,110
74830,note_on,46,0,7,,,,,,,,6,,,71,0
74832,note_on,2,0,7,,,,,,,,6,,,76,110
74878,note_on,94,0,11,,,,,,,,11,,,56,0
74878,note_on,94,0,10,,,,,,,,10,,,76,0
74878,note_on,94,0,1,,,,,,,,0,,,76,0
74878,note_on,94,0,2,,,,,,,,1,,,52,0
74878,note_on,94,0,8,,,,,,,,7,,,56,0
74878,note_on,94,0,9,,,,,,,,8,,,76,0
74878,note_on,94,0,6,,,,,,,,5,,,52,0
74878,note_on,94,0,5,,,,,,,,4,,,76,0
74878,note_on,94,0,4,,,,,,,,3,,,56,0
74878,note_on,94,0,12,,,,,,,,12,,,52,0
74878,note_on,94,0,3,,,,,,,,2,,,76,0
74878,note_on,46,0,7,,,,,,,,6,,,76,0
74880,note_on,2,0,9,,,,,,,,8,,,81,92
74880,note_on,2,0,5,,,,,,,,4,,,72,110
74880,note_on,2,0,4,,,,,,,,3,,,57,110
74880,note_on,2,0,10,,,,,,,,10,,,72,92
74880,note_on,2,0,1,,,,,,,,0,,,81,110
74880,note_on,2,0,7,,,,,,,,6,,,76,110
74926,note_on,46,0,7,,,,,,,,6,,,76,0
74928,note_on,50,0,3,,,,,,,,2,,,69,110
74928,note_on,2,0,7,,,,,,,,6,,,74,110
74974,note_on,46,0,3,,,,,,,,2,,,69,0
74974,note_on,46,0,7,,,,,,,,6,,,74,0
74974,note_on,94,0,10,,,,,,,,10,,,72,0
74974,note_on,94,0,4,,,,,,,,3,,,57,0
74974,note_on,94,0,9,,,,,,,,8,,,81,0
74974,note_on,94,0,5,,,,,,,,4,,,72,0
74974,note_on,94,0,1,,,,,,,,0,,,81,0
74976,note_on,98,0,6,,,,,,,,5,,,57,110
74976,note_on,2,0,1,,,,,,,,0,,,76,110
74976,note_on,2,0,10,,,,,,,,10,,,69,92
74976,note_on,98,0,11,,,,,,,,11,,,60,92
74976,note_on,2,0,4,,,,,,,,3,,,45,110
74976,note_on,2,0,7,,,,,,,,6,,,76,110
74976,note_on,98,0,8,,,,,,,,7,,,60,110
74976,note_on,2,0,5,,,,,,,,4,,,69,110
74976,note_on,2,0,3,,,,,,,,2,,,72,110
74976,note_on,2,0,9,,,,,,,,8,,,76,92
74976,note_on,98,0,2,,,,,,,,1,,,57,110
74976,note_on,98,0,12,,,,,,,,12,,,57,92
75022,note_on,46,0,3,,,,,,,,2,,,72,0
75024,note_on,2,0,3,,,,,,,,2,,,76,110
75070,note_on,94,0,2,,,,,,,,1,,,57,0
75070,note_on,94,0,6,,,,,,,,5,,,57,0
75070,note_on,94,0,9,,,,,,,,8,,,76,0
75070,note_on,94,0,1,,,,,,,,0,,,76,0
75070,note_on,94,0,4,,,,,,,,3,,,45,0
75070,note_on,94,0,8,,,,,,,,7,,,60,0
75070,note_on,94,0,12,,,,,,,,12,,,57,0
75070,note_on,94,0,11,,,,,,,,11,,,60,0
75070,note_on,94,0,10,,,,,,,,10,,,69,0
75070,note_on,46,0,3,,,,,,,,2,,,76,0
75070,note_on,94,0,7,,,,,,,,6,,,76,0
75070,note_on,94,0,5,,,,,,,,4,,,69,0
75072,note_on,2,0,3,,,,,,,,2,,,76,110
75072,note_on,2,0,11,,,,,,,,11,,,59,92
75072,note_on,2,0,1,,,,,,,,0,,,76,110
75072,note_on,2,0,12,,,,,,,,12,,,56,92
75072,note_on,2,0,9,,,,,,,,8,,,76,92
75072,note_on,2,0,6,,,,,,,,5,,,56,110
75072,note_on,2,0,2,,,,,,,,1,,,56,110
75072,note_on,2,0,8,,,,,,,,7,,,59,110
75120,note_on,48,0,3,,,,,,,,2,,,76,0
75120,note_on,0,0,3,,,,,,,,2,,,74,110
75120,note_on,50,0,7,,,,,,,,6,,,68,110
75166,note_on,46,0,3,,,,,,,,2,,,74,0
75166,note_on,94,0,6,,,,,,,,5,,,56,0
75166,note_on,46,0,7,,,,,,,,6,,,68,0
75166,note_on,94,0,9,,,,,,,,8,,,76,0
75166,note_on,94,0,8,,,,,,,,7,,,59,0
75166,note_on,94,0,1,,,,,,,,0,,,76,0
75166,note_on,94,0,11,,,,,,,,11,,,59,0
75166,note_on,94,0,12,,,,,,,,12,,,56,0
75166,note_on,94,0,2,,,,,,,,1,,,56,0
75168,note_on,2,0,7,,,,,,,,6,,,71,110
75168,note_on,2,0,12,,,,,,,,12,,,52,92
75168,note_on,2,0,9,,,,,,,,8,,,76,92
75168,note_on,2,0,3,,,,,,,,2,,,76,110
75168,note_on,2,0,1,,,,,,,,0,,,76,110
75168,note_on,2,0,8,,,,,,,,7,,,56,110
75168,note_on,2,0,6,,,,,,,,5,,,52,110
75168,note_on,2,0,2,,,,,,,,1,,,52,110
75168,note_on,98,0,10,,,,,,,,10,,,76,92
75168,note_on,2,0,11,,,,,,,,11,,,56,92
75168,note_on,98,0,5,,,,,,,,4,,,76,110
75168,note_on,98,0,4,,,,,,,,3,,,56,110
75214,note_on,46,0,7,,,,,,,,6,,,71,0
75216,note_on,2,0,7,,,,,,,,6,,,76,110
75262,note_on,46,0,7,,,,,,,,6,,,76,0
75262,note_on,94,0,12,,,,,,,,12,,,52,0
75262,note_on,94,0,2,,,,,,,,1,,,52,0
75262,note_on,94,0,1,,,,,,,,0,,,76,0
75262,note_on,94,0,8,,,,,,,,7,,,56,0
75262,note_on,94,0,3,,,,,,,,2,,,76,0
75262,note_on,94,0,4,,,,,,,,3,,,56,0
75262,note_on,94,0,5,,,,,,,,4,,,76,0
75262,note_on,94,0,9,,,,,,,,8,,,76,0
75262,note_on,94,0,6,,,,,,,,5,,,52,0
75262,note_on,94,0,11,,,,,,,,11,,,56,0
75262,note_on,94,0,10,,,,,,,,10,,,76,0
75264,note_on,2,0,10,,,,,,,,10,,,72,92
75264,note_on,2,0,5,,,,,,,,4,,,72,110
75264,note_on,2,0,6,,,,,,,,5,,,45,110
75264,note_on,2,0,4,,,,,,,,3,,,57,110
75264,note_on,2,0,8,,,,,,,,7,,,45,110
75264,note_on,2,0,11,,,,,,,,11,,,52,92
75264,note_on,2,0,1,,,,,,,,0,,,81,110
75264,note_on,2,0,12,,,,,,,,12,,,45,92
75264,note_on,2,0,7,,,,,,,,6,,,76,110
75264,note_on,2,0,9,,,,,,,,8,,,81,92
75310,note_on,46,0,10,,,,,,,,10,,,72,0
75310,note_on,46,0,6,,,,,,,,5,,,45,0
75310,note_on,46,0,7,,,,,,,,6,,,76,0
75310,note_on,46,0,9,,,,,,,,8,,,81,0
75310,note_on,46,0,4,,,,,,,,3,,,57,0
75310,note_on,46,0,1,,,,,,,,0,,,81,0
75310,note_on,46,0,5,,,,,,,,4,,,72,0
75312,note_on,2,0,6,,,,,,,,5,,,57,110
75312,note_on,2,0,10,,,,,,,,10,,,76,92
75312,note_on,2,0,5,,,,,,,,4,,,76,110
75312,note_on,2,0,9,,,,,,,,8,,,76,92
75312,note_on,2,0,7,,,,,,,,6,,,76,110
75312,note_on,2,0,1,,,,,,,,0,,,76,110
75312,note_on,2,0,4,,,,,,,,3,,,60,110
75312,note_on,50,0,3,,,,,,,,2,,,76,110
75358,note_on,46,0,1,,,,,,,,0,,,76,0
75358,note_on,46,0,9,,,,,,,,8,,,76,0
75358,note_on,46,0,6,,,,,,,,5,,,57,0
75358,note_on,46,0,3,,,,,,,,2,,,76,0
75358,note_on,46,0,4,,,,,,,,3,,,60,0
75358,note_on,46,0,10,,,,,,,,10,,,76,0
75358,note_on,46,0,7,,,,,,,,6,,,76,0
75358,note_on,46,0,5,,,,,,,,4,,,76,0
75360,note_on,2,0,3,,,,,,,,2,,,76,110
75360,note_on,2,0,7,,,,,,,,6,,,76,110
75360,note_on,2,0,9,,,,,,,,8,,,76,92
75360,note_on,2,0,1,,,,,,,,0,,,76,110
75360,note_on,2,0,4,,,,,,,,3,,,64,110
75360,note_on,2,0,6,,,,,,,,5,,,60,110
75360,note_on,98,0,2,,,,,,,,1,,,57,110
75360,note_on,2,0,10,,,,,,,,10,,,76,92
75360,note_on,2,0,5,,,,,,,,4,,,76,110
75406,note_on,46,0,6,,,,,,,,5,,,60,0
75406,note_on,46,0,1,,,,,,,,0,,,76,0
75406,note_on,46,0,3,,,,,,,,2,,,76,0
75406,note_on,46,0,10,,,,,,,,10,,,76,0
75406,note_on,46,0,9,,,,,,,,8,,,76,0
75406,note_on,46,0,4,,,,,,,,3,,,64,0
75406,note_on,46,0,7,,,,,,,,6,,,76,0
75406,note_on,46,0,5,,,,,,,,4,,,76,0
75408,note_on,2,0,5,,,,,,,,4,,,76,110
75408,note_on,2,0,4,,,,,,,,3,,,69,110
75408,note_on,2,0,1,,,,,,,,0,,,76,110
75408,note_on,2,0,9,,,,,,,,8,,,76,92
75408,note_on,2,0,10,,,,,,,,10,,,76,92
75408,note_on,2,0,3,,,,,,,,2,,,76,110
75408,note_on,2,0,7,,,,,,,,6,,,76,110
75408,note_on,2,0,6,,,,,,,,5,,,64,110
75424,note_on,160,0,12,,,,,,,,12,,,45,0
75424,note_on,160,0,8,,,,,,,,7,,,45,0
75454,note_on,46,0,7,,,,,,,,6,,,76,0
75454,note_on,46,0,10,,,,,,,,10,,,76,0
75454,note_on,46,0,3,,,,,,,,2,,,76,0
75454,note_on,94,0,2,,,,,,,,1,,,57,0
75454,note_on,46,0,6,,,,,,,,5,,,64,0
75454,note_on,46,0,4,,,,,,,,3,,,69,0
75454,note_on,46,0,9,,,,,,,,8,,,76,0
75454,note_on,46,0,1,,,,,,,,0,,,76,0
75454,note_on,46,0,5,,,,,,,,4,,,76,0
75456,note_on,2,0,9,,,,,,,,8,,,81,92
75456,note_on,2,0,3,,,,,,,,2,,,81,110
75456,note_on,2,0,10,,,,,,,,10,,,81,92
75456,note_on,2,0,1,,,,,,,,0,,,81,110
75456,note_on,2,0,2,,,,,,,,1,,,45,110
75456,note_on,2,0,5,,,,,,,,4,,,81,110
75456,note_on,2,0,6,,,,,,,,5,,,60,110
75456,note_on,2,0,7,,,,,,,,6,,,81,110
75456,note_on,2,0,4,,,,,,,,3,,,57,110
75502,note_on,46,0,10,,,,,,,,10,,,81,0
75502,note_on,46,0,3,,,,,,,,2,,,81,0
75502,note_on,46,0,1,,,,,,,,0,,,81,0
75502,note_on,46,0,9,,,,,,,,8,,,81,0
75502,note_on,46,0,5,,,,,,,,4,,,81,0
75502,note_on,46,0,4,,,,,,,,3,,,57,0
75502,note_on,46,0,7,,,,,,,,6,,,81,0
75502,note_on,46,0,6,,,,,,,,5,,,60,0
75504,note_on,2,0,7,,,,,,,,6,,,76,110
75504,note_on,2,0,10,,,,,,,,10,,,76,92
75504,note_on,2,0,6,,,,,,,,5,,,57,110
75504,note_on,2,0,4,,,,,,,,3,,,60,110
75504,note_on,2,0,1,,,,,,,,0,,,76,110
75504,note_on,2,0,9,,,,,,,,8,,,76,92
75504,note_on,2,0,5,,,,,,,,4,,,76,110
75504,note_on,2,0,3,,,,,,,,2,,,76,110
75520,note_on,256,0,11,,,,,,,,11,,,52,0
75550,note_on,46,0,3,,,,,,,,2,,,76,0
75550,note_on,46,0,6,,,,,,,,5,,,57,0
75550,note_on,46,0,7,,,,,,,,6,,,76,0
75550,note_on,46,0,9,,,,,,,,8,,,76,0
75550,note_on,46,0,10,,,,,,,,10,,,76,0
75550,note_on,46,0,4,,,,,,,,3,,,60,0
75550,note_on,46,0,5,,,,,,,,4,,,76,0
75550,note_on,46,0,1,,,,,,,,0,,,76,0
75552,note_on,2,0,10,,,,,,,,10,,,76,92
75552,note_on,2,0,5,,,,,,,,4,,,76,110
75552,note_on,128,0,8,,,,,,,,7,,,57,110
75552,note_on,2,0,6,,,,,,,,5,,,60,110
75552,note_on,128,0,12,,,,,,,,12,,,57,92
75552,note_on,2,0,9,,,,,,,,8,,,76,92
75552,note_on,2,0,4,,,,,,,,3,,,64,110
75552,note_on,2,0,7,,,,,,,,6,,,76,110
75552,note_on,2,0,3,,,,,,,,2,,,76,110
75552,note_on,32,0,11,,,,,,,,11,,,64,92
75552,note_on,2,0,1,,,,,,,,0,,,76,110
75598,note_on,46,0,9,,,,,,,,8,,,76,0
75598,note_on,46,0,3,,,,,,,,2,,,76,0
75598,note_on,46,0,10,,,,,,,,10,,,76,0
75598,note_on,46,0,6,,,,,,,,5,,,60,0
75598,note_on,46,0,1,,,,,,,,0,,,76,0
75598,note_on,46,0,4,,,,,,,,3,,,64,0
75598,note_on,46,0,7,,,,,,,,6,,,76,0
75598,note_on,46,0,5,,,,,,,,4,,,76,0
75600,note_on,2,0,1,,,,,,,,0,,,76,110
75600,note_on,2,0,4,,,,,,,,3,,,69,110
75600,note_on,2,0,7,,,,,,,,6,,,76,110
75600,note_on,2,0,3,,,,,,,,2,,,76,110
75600,note_on,2,0,6,,,,,,,,5,,,64,110
75600,note_on,2,0,5,,,,,,,,4,,,76,110
75600,note_on,2,0,10,,,,,,,,10,,,76,92
75600,note_on,2,0,9,,,,,,,,8,,,76,92
75616,note_on,160,0,2,,,,,,,,1,,,45,0
75646,note_on,94,0,8,,,,,,,,7,,,57,0
75646,note_on,46,0,10,,,,,,,,10,,,76,0
75646,note_on,46,0,1,,,,,,,,0,,,76,0
75646,note_on,94,0,12,,,,,,,,12,,,57,0
75646,note_on,46,0,5,,,,,,,,4,,,76,0
75646,note_on,46,0,3,,,,,,,,2,,,76,0
75646,note_on,46,0,4,,,,,,,,3,,,69,0
75646,note_on,46,0,9,,,,,,,,8,,,76,0
75646,note_on,94,0,11,,,,,,,,11,,,64,0
75646,note_on,46,0,7,,,,,,,,6,,,76,0
75646,note_on,46,0,6,,,,,,,,5,,,64,0
75648,note_on,2,0,5,,,,,,,,4,,,81,110
75648,note_on,2,0,8,,,,,,,,7,,,45,110
75648,note_on,2,0,1,,,,,,,,0,,,81,110
75648,note_on,2,0,11,,,,,,,,11,,,60,92
75648,note_on,2,0,12,,,,,,,,12,,,45,92
75648,note_on,2,0,10,,,,,,,,10,,,81,92
75648,note_on,2,0,6,,,,,,,,5,,,60,110
75648,note_on,2,0,9,,,,,,,,8,,,81,92
75648,note_on,2,0,3,,,,,,,,2,,,81,110
75648,note_on,2,0,4,,,,,,,,3,,,57,110
75648,note_on,2,0,7,,,,,,,,6,,,81,110
75694,note_on,46,0,9,,,,,,,,8,,,81,0
75694,note_on,46,0,10,,,,,,,,10,,,81,0
75694,note_on,46,0,4,,,,,,,,3,,,57,0
75694,note_on,46,0,1,,,,,,,,0,,,81,0
75694,note_on,46,0,5,,,,,,,,4,,,81,0
75694,note_on,46,0,6,,,,,,,,5,,,60,0
75694,note_on,46,0,7,,,,,,,,6,,,81,0
75694,note_on,46,0,3,,,,,,,,2,,,81,0
75696,note_on,2,0,9,,,,,,,,8,,,76,92
75696,note_on,2,0,5,,,,,,,,4,,,76,110
75696,note_on,2,0,4,,,,,,,,3,,,60,110
75696,note_on,2,0,7,,,,,,,,6,,,76,110
75696,note_on,2,0,10,,,,,,,,10,,,76,92
75696,note_on,2,0,1,,,,,,,,0,,,76,110
75696,note_on,2,0,3,,,,,,,,2,,,76,110
75696,note_on,2,0,6,,,,,,,,5,,,57,110
75742,note_on,46,0,5,,,,,,,,4,,,76,0
75742,note_on,46,0,3,,,,,,,,2,,,76,0
75742,note_on,46,0,4,,,,,,,,3,,,60,0
75742,note_on,46,0,10,,,,,,,,10,,,76,0
75742,note_on,46,0,7,,,,,,,,6,,,76,0
75742,note_on,94,0,11,,,,,,,,11,,,60,0
75742,note_on,46,0,1,,,,,,,,0,,,76,0
75742,note_on,46,0,9,,,,,,,,8,,,76,0
75742,note_on,46,0,6,,,,,,,,5,,,57,0
75744,note_on,2,0,9,,,,,,,,8,,,76,92
75744,note_on,2,0,7,,,,,,,,6,,,76,110
75744,note_on,2,0,3,,,,,,,,2,,,76,110
75744,note_on,2,0,5,,,,,,,,4,,,76,110
75744,note_on,128,0,2,,,,,,,,1,,,57,110
75744,note_on,2,0,4,,,,,,,,3,,,64,110
75744,note_on,2,0,10,,,,,,,,10,,,76,92
75744,note_on,2,0,11,,,,,,,,11,,,57,92
75744,note_on,2,0,1,,,,,,,,0,,,76,110
75744,note_on,2,0,6,,,,,,,,5,,,60,110
75790,note_on,46,0,5,,,,,,,,4,,,76,0
75790,note_on,46,0,4,,,,,,,,3,,,64,0
75790,note_on,46,0,7,,,,,,,,6,,,76,0
75790,note_on,46,0,1,,,,,,,,0,,,76,0
75790,note_on,46,0,9,,,,,,,,8,,,76,0
75790,note_on,46,0,6,,,,,,,,5,,,60,0
75790,note_on,46,0,3,,,,,,,,2,,,76,0
75790,note_on,46,0,10,,,,,,,,10,,,76,0
75792,note_on,2,0,3,,,,,,,,2,,,76,110
75792,note_on,2,0,9,,,,,,,,8,,,76,92
75792,note_on,2,0,1,,,,,,,,0,,,76,110
75792,note_on,2,0,5,,,,,,,,4,,,76,110
75792,note_on,2,0,6,,,,,,,,5,,,64,110
75792,note_on,2,0,10,,,,,,,,10,,,76,92
75792,note_on,2,0,4,,,,,,,,3,,,69,110
75792,note_on,2,0,7,,,,,,,,6,,,76,110
75808,note_on,160,0,8,,,,,,,,7,,,45,0
75808,note_on,160,0,12,,,,,,,,12,,,45,0
75838,note_on,94,0,2,,,,,,,,1,,,57,0
75838,note_on,46,0,3,,,,,,,,2,,,76,0
75838,note_on,46,0,6,,,,,,,,5,,,64,0
75838,note_on,46,0,10,,,,,,,,10,,,76,0
75838,note_on,94,0,11,,,,,,,,11,,,57,0
75838,note_on,46,0,9,,,,,,,,8,,,76,0
75838,note_on,46,0,5,,,,,,,,4,,,76,0
75838,note_on,46,0,4,,,,,,,,3,,,69,0
75838,note_on,46,0,1,,,,,,,,0,,,76,0
75838,note_on,46,0,7,,,,,,,,6,,,76,0
75840,note_on,2,0,6,,,,,,,,5,,,60,110
75840,note_on,2,0,2,,,,,,,,1,,,45,110
75840,note_on,2,0,3,,,,,,,,2,,,81,110
75840,note_on,2,0,4,,,,,,,,3,,,57,110
75840,note_on,2,0,1,,,,,,,,0,,,81,110
75840,note_on,2,0,9,,,,,,,,8,,,81,92
75840,note_on,2,0,5,,,,,,,,4,,,81,110
75840,note_on,2,0,7,,,,,,,,6,,,81,110
75840,note_on,2,0,10,,,,,,,,10,,,81,92
75886,note_on,46,0,4,,,,,,,,3,,,57,0
75886,note_on,46,0,9,,,,,,,,8,,,81,0
75886,note_on,46,0,7,,,,,,,,6,,,81,0
75886,note_on,46,0,5,,,,,,,,4,,,81,0
75886,note_on,46,0,1,,,,,,,,0,,,81,0
75886,note_on,46,0,6,,,,,,,,5,,,60,0
75886,note_on,46,0,10,,,,,,,,10,,,81,0
75886,note_on,46,0,3,,,,,,,,2,,,81,0
75888,note_on,2,0,6,,,,,,,,5,,,57,110
75888,note_on,2,0,4,,,,,,,,3,,,60,110
75888,note_on,2,0,1,,,,,,,,0,,,76,110
75888,note_on,2,0,7,,,,,,,,6,,,76,110
75888,note_on,2,0,5,,,,,,,,4,,,76,110
75888,note_on,2,0,10,,,,,,,,10,,,76,92
75888,note_on,2,0,9,,,,,,,,8,,,76,92
75888,note_on,2,0,3,,,,,,,,2,,,76,110
75934,note_on,46,0,5,,,,,,,,4,,,76,0
75934,note_on,46,0,3,,,,,,,,2,,,76,0
75934,note_on,46,0,4,,,,,,,,3,,,60,0
75934,note_on,46,0,9,,,,,,,,8,,,76,0
75934,note_on,46,0,6,,,,,,,,5,,,57,0
75934,note_on,46,0,10,,,,,,,,10,,,76,0
75934,note_on,46,0,1,,,,,,,,0,,,76,0
75934,note_on,46,0,7,,,,,,,,6,,,76,0
75936,note_on,98,0,11,,,,,,,,11,,,64,92
75936,note_on,128,0,12,,,,,,,,12,,,57,92
75936,note_on,2,0,10,,,,,,,,10,,,76,92
75936,note_on,2,0,1,,,,,,,,0,,,76,110
75936,note_on,2,0,7,,,,,,,,6,,,76,110
75936,note_on,2,0,4,,,,,,,,3,,,64,110
75936,note_on,2,0,5,,,,,,,,4,,,76,110
75936,note_on,2,0,6,,,,,,,,5,,,60,110
75936,note_on,128,0,8,,,,,,,,7,,,57,110
75936,note_on,2,0,9,,,,,,,,8,,,76,92
75936,note_on,2,0,3,,,,,,,,2,,,76,110
75982,note_on,46,0,1,,,,,,,,0,,,76,0
75982,note_on,46,0,4,,,,,,,,3,,,64,0
75982,note_on,46,0,6,,,,,,,,5,,,60,0
75982,note_on,46,0,10,,,,,,,,10,,,76,0
75982,note_on,46,0,9,,,,,,,,8,,,76,0
75982,note_on,46,0,7,,,,,,,,6,,,76,0
75982,note_on,46,0,5,,,,,,,,4,,,76,0
75982,note_on,46,0,3,,,,,,,,2,,,76,0
75984,note_on,2,0,5,,,,,,,,4,,,76,110
75984,note_on,2,0,9,,,,,,,,8,,,76,92
75984,note_on,2,0,1,,,,,,,,0,,,76,110
75984,note_on,2,0,7,,,,,,,,6,,,76,110
75984,note_on,2,0,4,,,,,,,,3,,,69,110
75984,note_on,2,0,10,,,,,,,,10,,,76,92
75984,note_on,2,0,3,,,,,,,,2,,,76,110
75984,note_on,2,0,6,,,,,,,,5,,,64,110
76000,note_on,160,0,2,,,,,,,,1,,,45,0
76030,note_on,46,0,6,,,,,,,,5,,,64,0
76030,note_on,46,0,7,,,,,,,,6,,,76,0
76030,note_on,46,0,3,,,,,,,,2,,,76,0
76030,note_on,46,0,10,,,,,,,,10,,,76,0
76030,note_on,94,0,8,,,,,,,,7,,,57,0
76030,note_on,46,0,9,,,,,,,,8,,,76,0
76030,note_on,94,0,12,,,,,,,,12,,,57,0
76030,note_on,46,0,5,,,,,,,,4,,,76,0
76030,note_on,46,0,1,,,,,,,,0,,,76,0
76030,note_on,94,0,11,,,,,,,,11,,,64,0
76030,note_on,46,0,4,,,,,,,,3,,,69,0
76032,note_on,2,0,6,,,,,,,,5,,,60,110
76032,note_on,2,0,9,,,,,,,,8,,,81,92
76032,note_on,2,0,10,,,,,,,,10,,,81,92
76032,note_on,2,0,12,,,,,,,,12,,,45,92
76032,note_on,2,0,3,,,,,,,,2,,,81,110
76032,note_on,2,0,4,,,,,,,,3,,,57,110
76032,note_on,2,0,8,,,,,,,,7,,,45,110
76032,note_on,2,0,5,,,,,,,,4,,,81,110
76032,note_on,2,0,1,,,,,,,,0,,,81,110
76032,note_on,2,0,11,,,,,,,,11,,,60,92
76032,note_on,2,0,7,,,,,,,,6,,,81,110
76126,note_on,94,0,3,,,,,,,,2,,,81,0
76126,note_on,94,0,8,,,,,,,,7,,,45,0
76126,note_on,94,0,11,,,,,,,,11,,,60,0
76126,note_on,94,0,9,,,,,,,,8,,,81,0
76126,note_on,94,0,7,,,,,,,,6,,,81,0
76126,note_on,94,0,5,,,,,,,,4,,,81,0
76126,note_on,94,0,1,,,,,,,,0,,,81,0
76126,note_on,94,0,12,,,,,,,,12,,,45,0
76126,note_on,94,0,10,,,,,,,,10,,,81,0
76126,note_on,94,0,6,,,,,,,,5,,,60,0
76126,note_on,94,0,4,,,,,,,,3,,,57,0
76128,note_on,2,0,3,,,,,,,,2,,,79,110
76128,note_on,2,0,12,,,,,,,,12,,,57,92
76128,note_on,0,0,2,,,,,,,,1,,,60,110
76128,note_on,128,0,2,,,,,,,,1,,,57,110
76128,note_on,2,0,7,,,,,,,,6,,,79,110
76128,note_on,2,0,1,,,,,,,,0,,,79,110
76128,note_on,2,0,11,,,,,,,,11,,,57,92
76128,note_on,0,0,6,,,,,,,,5,,,60,110
76128,note_on,2,0,6,,,,,,,,5,,,57,110
76128,note_on,0,0,4,,,,,,,,3,,,60,110
76128,note_on,2,0,5,,,,,,,,4,,,79,110
76128,note_on,2,0,9,,,,,,,,8,,,79,92
76128,note_on,0,0,8,,,,,,,,7,,,60,110
76128,note_on,2,0,8,,,,,,,,7,,,57,110
76128,note_on,2,0,4,,,,,,,,3,,,57,110
76128,note_on,2,0,10,,,,,,,,10,,,79,92
76174,note_on,46,0,5,,,,,,,,4,,,79,0
76174,note_on,46,0,9,,,,,,,,8,,,79,0
76174,note_on,46,0,3,,,,,,,,2,,,79,0
76174,note_on,46,0,7,,,,,,,,6,,,79,0
76174,note_on,46,0,1,,,,,,,,0,,,79,0
76174,note_on,46,0,10,,,,,,,,10,,,79,0
76176,note_on,2,0,1,,,,,,,,0,,,77,110
76176,note_on,2,0,7,,,,,,,,6,,,77,110
76176,note_on,2,0,5,,,,,,,,4,,,77,110
76176,note_on,2,0,3,,,,,,,,2,,,77,110
76176,note_on,2,0,9,,,,,,,,8,,,77,92
76176,note_on,2,0,10,,,,,,,,10,,,77,92
76222,note_on,0,0,4,,,,,,,,3,,,57,0
76222,note_on,94,0,12,,,,,,,,12,,,57,0
76222,note_on,94,0,8,,,,,,,,7,,,60,0
76222,note_on,46,0,5,,,,,,,,4,,,77,0
76222,note_on,94,0,11,,,,,,,,11,,,57,0
76222,note_on,94,0,6,,,,,,,,5,,,60,0
76222,note_on,0,0,8,,,,,,,,7,,,57,0
76222,note_on,46,0,3,,,,,,,,2,,,77,0
76222,note_on,46,0,9,,,,,,,,8,,,77,0
76222,note_on,0,0,6,,,,,,,,5,,,57,0
76222,note_on,94,0,4,,,,,,,,3,,,60,0
76222,note_on,46,0,7,,,,,,,,6,,,77,0
76222,note_on,46,0,1,,,,,,,,0,,,77,0
76222,note_on,46,0,10,,,,,,,,10,,,77,0
76222,note_on,94,0,2,,,,,,,,1,,,60,0
76222,note_on,0,0,2,,,,,,,,1,,,57,0
76224,note_on,0,0,6,,,,,,,,5,,,59,110
76224,note_on,2,0,10,,,,,,,,10,,,76,92
76224,note_on,2,0,7,,,,,,,,6,,,76,110
76224,note_on,2,0,2,,,,,,,,1,,,56,110
76224,note_on,2,0,1,,,,,,,,0,,,76,110
76224,note_on,2,0,6,,,,,,,,5,,,56,110
76224,note_on,0,0,4,,,,,,,,3,,,59,110
76224,note_on,2,0,4,,,,,,,,3,,,56,110
76224,note_on,2,0,9,,,,,,,,8,,,76,92
76224,note_on,2,0,3,,,,,,,,2,,,76,110
76224,note_on,0,0,2,,,,,,,,1,,,59,110
76224,note_on,2,0,12,,,,,,,,12,,,56,92
76224,note_on,0,0,8,,,,,,,,7,,,59,110
76224,note_on,2,0,8,,,,,,,,7,,,56,110
76224,note_on,2,0,5,,,,,,,,4,,,76,110
76318,note_on,94,0,6,,,,,,,,5,,,59,0
76318,note_on,0,0,6,,,,,,,,5,,,56,0
76318,note_on,94,0,12,,,,,,,,12,,,56,0
76318,note_on,94,0,1,,,,,,,,0,,,76,0
76318,note_on,94,0,9,,,,,,,,8,,,76,0
76318,note_on,94,0,10,,,,,,,,10,,,76,0
76318,note_on,94,0,8,,,,,,,,7,,,59,0
76318,note_on,0,0,8,,,,,,,,7,,,56,0
76318,note_on,94,0,2,,,,,,,,1,,,59,0
76318,note_on,94,0,5,,,,,,,,4,,,76,0
76318,note_on,0,0,4,,,,,,,,3,,,56,0
76318,note_on,94,0,3,,,,,,,,2,,,76,0
76318,note_on,94,0,4,,,,,,,,3,,,59,0
76318,note_on,0,0,2,,,,,,,,1,,,56,0
76318,note_on,94,0,7,,,,,,,,6,,,76,0
76320,note_on,0,0,2,,,,,,,,1,,,56,110
76320,note_on,2,0,9,,,,,,,,8,,,74,92
76320,note_on,2,0,1,,,,,,,,0,,,74,110
76320,note_on,0,0,4,,,,,,,,3,,,56,110
76320,note_on,2,0,2,,,,,,,,1,,,52,110
76320,note_on,2,0,3,,,,,,,,2,,,74,110
76320,note_on,2,0,12,,,,,,,,12,,,52,92
76320,note_on,2,0,5,,,,,,,,4,,,74,110
76320,note_on,2,0,8,,,,,,,,7,,,52,110
76320,note_on,2,0,4,,,,,,,,3,,,52,110
76320,note_on,0,0,8,,,,,,,,7,,,56,110
76320,note_on,0,0,6,,,,,,,,5,,,56,110
76320,note_on,2,0,7,,,,,,,,6,,,74,110
76320,note_on,98,0,11,,,,,,,,11,,,64,92
76320,note_on,2,0,6,,,,,,,,5,,,52,110
76320,note_on,2,0,10,,,,,,,,10,,,74,92
76414,note_on,94,0,3,,,,,,,,2,,,74,0
76414,note_on,94,0,9,,,,,,,,8,,,74,0
76414,note_on,94,0,10,,,,,,,,10,,,74,0
76414,note_on,94,0,5,,,,,,,,4,,,74,0
76414,note_on,94,0,2,,,,,,,,1,,,56,0
76414,note_on,0,0,2,,,,,,,,1,,,52,0
76414,note_on,0,0,4,,,,,,,,3,,,52,0
76414,note_on,94,0,4,,,,,,,,3,,,56,0
76414,note_on,94,0,11,,,,,,,,11,,,64,0
76414,note_on,94,0,12,,,,,,,,12,,,52,0
76414,note_on,0,0,8,,,,,,,,7,,,52,0
76414,note_on,94,0,7,,,,,,,,6,,,74,0
76414,note_on,94,0,1,,,,,,,,0,,,74,0
76414,note_on,94,0,8,,,,,,,,7,,,56,0
76414,note_on,0,0,6,,,,,,,,5,,,52,0
76414,note_on,94,0,6,,,,,,,,5,,,56,0
76416,note_on,0,0,2,,,,,,,,1,,,57,110
76416,note_on,0,0,4,,,,,,,,3,,,57,110
76416,note_on,2,0,11,,,,,,,,11,,,64,92
76416,note_on,2,0,4,,,,,,,,3,,,45,110
76416,note_on,2,0,8,,,,,,,,7,,,57,110
76416,note_on,2,0,10,,,,,,,,10,,,72,92
76416,note_on,2,0,12,,,,,,,,12,,,57,92
76416,note_on,2,0,5,,,,,,,,4,,,72,110
76416,note_on,2,0,6,,,,,,,,5,,,57,110
76416,note_on,2,0,3,,,,,,,,2,,,72,110
76416,note_on,2,0,2,,,,,,,,1,,,45,110
76416,note_on,2,0,7,,,,,,,,6,,,72,110
76416,note_on,2,0,1,,,,,,,,0,,,72,110
76416,note_on,2,0,9,,,,,,,,8,,,72,92
76464,note_on,0,0,10,,,,,,,,10,,,71,92
76464,note_on,48,0,10,,,,,,,,10,,,72,0
76510,note_on,94,0,11,,,,,,,,11,,,64,0
76510,note_on,46,0,10,,,,,,,,10,,,71,0
76510,note_on,94,0,12,,,,,,,,12,,,57,0
76510,note_on,94,0,8,,,,,,,,7,,,57,0
76510,note_on,94,0,3,,,,,,,,2,,,72,0
76510,note_on,0,0,4,,,,,,,,3,,,45,0
76510,note_on,94,0,7,,,,,,,,6,,,72,0
76510,note_on,94,0,4,,,,,,,,3,,,57,0
76510,note_on,94,0,6,,,,,,,,5,,,57,0
76510,note_on,0,0,2,,,,,,,,1,,,45,0
76510,note_on,94,0,2,,,,,,,,1,,,57,0
76512,note_on,2,0,7,,,,,,,,6,,,65,110
76512,note_on,2,0,11,,,,,,,,11,,,65,92
76512,note_on,0,0,7,,,,,,,,6,,,69,110
76512,note_on,2,0,3,,,,,,,,2,,,65,110
76512,note_on,2,0,12,,,,,,,,12,,,50,92
76512,note_on,2,0,4,,,,,,,,3,,,50,110
76512,note_on,2,0,10,,,,,,,,10,,,69,92
76512,note_on,2,0,2,,,,,,,,1,,,50,110
76512,note_on,2,0,6,,,,,,,,5,,,50,110
76512,note_on,2,0,8,,,,,,,,7,,,50,110
76512,note_on,0,0,3,,,,,,,,2,,,69,110
76576,note_on,160,0,9,,,,,,,,8,,,72,0
76576,note_on,160,0,1,,,,,,,,0,,,72,0
76576,note_on,160,0,5,,,,,,,,4,,,72,0
76606,note_on,94,0,8,,,,,,,,7,,,50,0
76606,note_on,94,0,2,,,,,,,,1,,,50,0
76606,note_on,94,0,11,,,,,,,,11,,,65,0
76606,note_on,94,0,3,,,,,,,,2,,,65,0
76606,note_on,94,0,7,,,,,,,,6,,,65,0
76606,note_on,94,0,4,,,,,,,,3,,,50,0
76606,note_on,94,0,6,,,,,,,,5,,,50,0
76606,note_on,94,0,12,,,,,,,,12,,,50,0
76608,note_on,2,0,2,,,,,,,,1,,,52,110
76608,note_on,32,0,5,,,,,,,,4,,,72,110
76608,note_on,2,0,4,,,,,,,,3,,,52,110
76608,note_on,2,0,12,,,,,,,,12,,,52,92
76608,note_on,2,0,8,,,,,,,,7,,,52,110
76608,note_on,0,0,4,,,,,,,,3,,,59,110
76608,note_on,32,0,9,,,,,,,,8,,,72,92
76608,note_on,2,0,11,,,,,,,,11,,,59,92
76608,note_on,32,0,1,,,,,,,,0,,,72,110
76608,note_on,2,0,6,,,,,,,,5,,,52,110
76608,note_on,2,0,7,,,,,,,,6,,,59,110
76630,note_on,22,0,9,,,,,,,,8,,,72,0
76630,note_on,22,0,1,,,,,,,,0,,,72,0
76630,note_on,22,0,5,,,,,,,,4,,,72,0
76632,note_on,2,0,5,,,,,,,,4,,,71,110
76632,note_on,2,0,9,,,,,,,,8,,,71,92
76632,note_on,2,0,1,,,,,,,,0,,,71,110
76654,note_on,22,0,1,,,,,,,,0,,,71,0
76654,note_on,22,0,9,,,,,,,,8,,,71,0
76654,note_on,22,0,5,,,,,,,,4,,,71,0
76656,note_on,2,0,1,,,,,,,,0,,,72,110
76656,note_on,2,0,9,,,,,,,,8,,,72,92
76656,note_on,2,0,5,,,,,,,,4,,,72,110
76672,note_on,160,0,10,,,,,,,,10,,,69,0
76672,note_on,64,0,7,,,,,,,,6,,,69,0
76672,note_on,66,0,3,,,,,,,,2,,,69,0
76678,note_on,22,0,1,,,,,,,,0,,,72,0
76678,note_on,22,0,5,,,,,,,,4,,,72,0
76678,note_on,22,0,9,,,,,,,,8,,,72,0
76680,note_on,2,0,1,,,,,,,,0,,,71,110
76680,note_on,2,0,5,,,,,,,,4,,,71,110
76680,note_on,2,0,9,,,,,,,,8,,,71,92
76702,note_on,0,0,4,,,,,,,,3,,,52,0
76702,note_on,94,0,11,,,,,,,,11,,,59,0
76702,note_on,22,0,1,,,,,,,,0,,,71,0
76702,note_on,94,0,2,,,,,,,,1,,,52,0
76702,note_on,22,0,5,,,,,,,,4,,,71,0
76702,note_on,94,0,4,,,,,,,,3,,,59,0
76702,note_on,94,0,8,,,,,,,,7,,,52,0
76702,note_on,22,0,9,,,,,,,,8,,,71,0
76702,note_on,94,0,12,,,,,,,,12,,,52,0
76702,note_on,94,0,6,,,,,,,,5,,,52,0
76704,note_on,2,0,1,,,,,,,,0,,,72,110
76704,note_on,2,0,6,,,,,,,,5,,,40,110
76704,note_on,2,0,11,,,,,,,,11,,,64,92
76704,note_on,2,0,9,,,,,,,,8,,,72,92
76704,note_on,32,0,7,,,,,,,,6,,,68,110
76704,note_on,2,0,4,,,,,,,,3,,,40,110
76704,note_on,2,0,8,,,,,,,,7,,,40,110
76704,note_on,32,0,3,,,,,,,,2,,,68,110
76704,note_on,2,0,2,,,,,,,,1,,,40,110
76704,note_on,2,0,5,,,,,,,,4,,,72,110
76704,note_on,32,0,10,,,,,,,,10,,,68,92
76704,note_on,2,0,12,,,,,,,,12,,,40,92
76726,note_on,22,0,5,,,,,,,,4,,,72,0
76726,note_on,22,0,9,,,,,,,,8,,,72,0
76726,note_on,22,0,1,,,,,,,,0,,,72,0
76728,note_on,2,0,9,,,,,,,,8,,,71,92
76728,note_on,2,0,1,,,,,,,,0,,,71,110
76728,note_on,2,0,5,,,,,,,,4,,,71,110
76750,note_on,22,0,1,,,,,,,,0,,,71,0
76750,note_on,22,0,9,,,,,,,,8,,,71,0
76750,note_on,22,0,5,,,,,,,,4,,,71,0
76752,note_on,2,0,1,,,,,,,,0,,,72,110
76752,note_on,2,0,9,,,,,,,,8,,,72,92
76752,note_on,2,0,5,,,,,,,,4,,,72,110
76774,note_on,22,0,1,,,,,,,,0,,,72,0
76774,note_on,22,0,9,,,,,,,,8,,,72,0
76774,note_on,22,0,5,,,,,,,,4,,,72,0
76776,note_on,2,0,1,,,,,,,,0,,,71,110
76776,note_on,2,0,5,,,,,,,,4,,,71,110
76776,note_on,2,0,9,,,,,,,,8,,,71,92
76798,note_on,94,0,12,,,,,,,,12,,,40,0
76798,note_on,94,0,8,,,,,,,,7,,,40,0
76798,note_on,94,0,4,,,,,,,,3,,,40,0
76798,note_on,94,0,6,,,,,,,,5,,,40,0
76798,note_on,94,0,3,,,,,,,,2,,,68,0
76798,note_on,94,0,10,,,,,,,,10,,,68,0
76798,note_on,22,0,1,,,,,,,,0,,,71,0
76798,note_on,22,0,9,,,,,,,,8,,,71,0
76798,note_on,0,0,7,,,,,,,,6,,,59,0
76798,note_on,94,0,7,,,,,,,,6,,,68,0
76798,note_on,94,0,2,,,,,,,,1,,,40,0
76798,note_on,94,0,11,,,,,,,,11,,,64,0
76798,note_on,22,0,5,,,,,,,,4,,,71,0
76800,note_on,2,0,4,,,,,,,,3,,,45,110
76800,note_on,2,0,12,,,,,,,,12,,,45,92
76800,note_on,2,0,6,,,,,,,,5,,,45,110
76800,note_on,2,0,10,,,,,,,,10,,,64,92
76800,note_on,2,0,5,,,,,,,,4,,,69,110
76800,note_on,2,0,3,,,,,,,,2,,,69,110
76800,note_on,2,0,11,,,,,,,,11,,,60,92
76800,note_on,2,0,8,,,,,,,,7,,,45,110
76800,note_on,2,0,2,,,,,,,,1,,,45,110
76800,note_on,2,0,7,,,,,,,,6,,,69,110
76800,note_on,2,0,9,,,,,,,,8,,,69,92
76800,note_on,2,0,1,,,,,,,,0,,,69,110
76816,set_tempo,76816,1,0,,,,,,512821,,,,,,
76833,set_tempo,17,1,0,,,,,,517241,,,,,,
76846,note_on,46,0,7,,,,,,,,6,,,69,0
76846,note_on,46,0,5,,,,,,,,4,,,69,0
76846,note_on,46,0,3,,,,,,,,2,,,69,0
76846,note_on,46,0,1,,,,,,,,0,,,69,0
76848,note_on,2,0,1,,,,,,,,0,,,64,110
76848,note_on,2,0,5,,,,,,,,4,,,60,110
76848,note_on,2,0,3,,,,,,,,2,,,60,110
76848,note_on,2,0,7,,,,,,,,6,,,57,110
76850,set_tempo,17,1,0,,,,,,521739,,,,,,
76866,set_tempo,16,1,0,,,,,,526316,,,,,,
76883,set_tempo,17,1,0,,,,,,530973,,,,,,
76894,note_on,46,0,7,,,,,,,,6,,,57,0
76894,note_on,46,0,5,,,,,,,,4,,,60,0
76894,note_on,94,0,4,,,,,,,,3,,,45,0
76894,note_on,46,0,1,,,,,,,,0,,,64,0
76894,note_on,94,0,12,,,,,,,,12,,,45,0
76894,note_on,94,0,8,,,,,,,,7,,,45,0
76894,note_on,46,0,3,,,,,,,,2,,,60,0
76896,note_on,2,0,12,,,,,,,,12,,,57,92
76896,note_on,2,0,5,,,,,,,,4,,,59,110
76896,note_on,2,0,8,,,,,,,,7,,,52,110
76896,note_on,2,0,4,,,,,,,,3,,,52,110
76896,note_on,2,0,1,,,,,,,,0,,,65,110
76896,note_on,2,0,3,,,,,,,,2,,,62,110
76896,note_on,2,0,7,,,,,,,,6,,,56,110
76900,set_tempo,17,1,0,,,,,,535714,,,,,,
76916,set_tempo,16,1,0,,,,,,540541,,,,,,
76933,set_tempo,17,1,0,,,,,,545455,,,,,,
76942,note_on,46,0,3,,,,,,,,2,,,62,0
76942,note_on,46,0,7,,,,,,,,6,,,56,0
76942,note_on,46,0,1,,,,,,,,0,,,65,0
76942,note_on,46,0,5,,,,,,,,4,,,59,0
76944,note_on,2,0,3,,,,,,,,2,,,60,110
76944,note_on,2,0,7,,,,,,,,6,,,57,110
76944,note_on,2,0,1,,,,,,,,0,,,64,110
76944,note_on,2,0,5,,,,,,,,4,,,60,110
76950,set_tempo,17,1,0,,,,,,550459,,,,,,
76960,note_on,160,0,10,,,,,,,,10,,,64,0
76960,note_on,160,0,2,,,,,,,,1,,,45,0
76960,note_on,160,0,6,,,,,,,,5,,,45,0
76960,note_on,160,0,11,,,,,,,,11,,,60,0
76966,set_tempo,16,1,0,,,,,,555556,,,,,,
76983,set_tempo,17,1,0,,,,,,560748,,,,,,
76990,note_on,46,0,1,,,,,,,,0,,,64,0
76990,note_on,94,0,12,,,,,,,,12,,,57,0
76990,note_on,94,0,4,,,,,,,,3,,,52,0
76990,note_on,46,0,3,,,,,,,,2,,,60,0
76990,note_on,46,0,5,,,,,,,,4,,,60,0
76990,note_on,94,0,8,,,,,,,,7,,,52,0
76990,note_on,46,0,7,,,,,,,,6,,,57,0
76992,note_on,2,0,4,,,,,,,,3,,,48,110
76992,note_on,2,0,1,,,,,,,,0,,,69,110
76992,note_on,2,0,8,,,,,,,,7,,,48,110
76992,note_on,2,0,3,,,,,,,,2,,,69,110
76992,note_on,2,0,5,,,,,,,,4,,,64,110
76992,note_on,2,0,7,,,,,,,,6,,,60,110
76992,note_on,2,0,12,,,,,,,,12,,,45,92
77000,set_tempo,17,1,0,,,,,,566038,,,,,,
77017,set_tempo,17,1,0,,,,,,571429,,,,,,
77033,set_tempo,16,1,0,,,,,,576923,,,,,,
77038,note_on,46,0,5,,,,,,,,4,,,64,0
77038,note_on,46,0,3,,,,,,,,2,,,69,0
77038,note_on,46,0,7,,,,,,,,6,,,60,0
77038,note_on,46,0,1,,,,,,,,0,,,69,0
77040,note_on,2,0,1,,,,,,,,0,,,64,110
77040,note_on,2,0,3,,,,,,,,2,,,60,110
77040,note_on,2,0,5,,,,,,,,4,,,60,110
77040,note_on,2,0,7,,,,,,,,6,,,57,110
77050,set_tempo,17,1,0,,,,,,582524,,,,,,
77067,set_tempo,17,1,0,,,,,,588235,,,,,,
77083,set_tempo,16,1,0,,,,,,594059,,,,,,
77086,note_on,46,0,1,,,,,,,,0,,,64,0
77086,note_on,46,0,7,,,,,,,,6,,,57,0
77086,note_on,94,0,8,,,,,,,,7,,,48,0
77086,note_on,46,0,5,,,,,,,,4,,,60,0
77086,note_on,94,0,4,,,,,,,,3,,,48,0
77086,note_on,46,0,3,,,,,,,,2,,,60,0
77088,note_on,128,0,11,,,,,,,,11,,,62,92
77088,note_on,2,0,4,,,,,,,,3,,,45,110
77088,note_on,2,0,1,,,,,,,,0,,,65,110
77088,note_on,2,0,7,,,,,,,,6,,,56,110
77088,note_on,2,0,5,,,,,,,,4,,,59,110
77088,note_on,128,0,10,,,,,,,,10,,,65,92
77088,note_on,2,0,8,,,,,,,,7,,,45,110
77088,note_on,2,0,3,,,,,,,,2,,,62,110
77088,note_on,128,0,2,,,,,,,,1,,,52,110
77088,note_on,128,0,6,,,,,,,,5,,,52,110
77100,set_tempo,17,1,0,,,,,,600000,,,,,,
77117,set_tempo,17,1,0,,,,,,606061,,,,,,
77133,set_tempo,16,1,0,,,,,,612245,,,,,,
77134,note_on,46,0,7,,,,,,,,6,,,56,0
77134,note_on,46,0,3,,,,,,,,2,,,62,0
77134,note_on,46,0,1,,,,,,,,0,,,65,0
77134,note_on,46,0,5,,,,,,,,4,,,59,0
77136,note_on,2,0,3,,,,,,,,2,,,60,110
77136,note_on,2,0,7,,,,,,,,6,,,57,110
77136,note_on,2,0,5,,,,,,,,4,,,60,110
77136,note_on,2,0,1,,,,,,,,0,,,64,110
77150,set_tempo,17,1,0,,,,,,618557,,,,,,
77152,note_on,160,0,12,,,,,,,,12,,,45,0
77167,set_tempo,17,1,0,,,,,,625000,,,,,,
77182,note_on,94,0,8,,,,,,,,7,,,45,0
77182,note_on,94,0,2,,,,,,,,1,,,52,0
77182,note_on,94,0,11,,,,,,,,11,,,62,0
77182,note_on,46,0,5,,,,,,,,4,,,60,0
77182,note_on,46,0,1,,,,,,,,0,,,64,0
77182,note_on,94,0,10,,,,,,,,10,,,65,0
77182,note_on,94,0,6,,,,,,,,5,,,52,0
77182,note_on,46,0,7,,,,,,,,6,,,57,0
77182,note_on,46,0,3,,,,,,,,2,,,60,0
77182,note_on,94,0,4,,,,,,,,3,,,45,0
77184,note_on,2,0,7,,,,,,,,6,,,60,110
77184,note_on,2,0,1,,,,,,,,0,,,69,110
77184,note_on,2,0,11,,,,,,,,11,,,60,92
77184,note_on,2,0,10,,,,,,,,10,,,64,92
77184,note_on,2,0,3,,,,,,,,2,,,69,110
77184,note_on,2,0,6,,,,,,,,5,,,48,110
77184,set_tempo,17,1,0,,,,,,631579,,,,,,
77184,note_on,2,0,2,,,,,,,,1,,,48,110
77184,note_on,2,0,5,,,,,,,,4,,,64,110
77230,note_on,46,0,1,,,,,,,,0,,,69,0
77230,note_on,46,0,3,,,,,,,,2,,,69,0
77230,note_on,46,0,5,,,,,,,,4,,,64,0
77230,note_on,46,0,7,,,,,,,,6,,,60,0
77232,note_on,2,0,1,,,,,,,,0,,,64,110
77232,note_on,2,0,3,,,,,,,,2,,,60,110
77232,note_on,2,0,5,,,,,,,,4,,,60,110
77232,note_on,2,0,7,,,,,,,,6,,,57,110
77278,note_on,46,0,1,,,,,,,,0,,,64,0
77278,note_on,94,0,2,,,,,,,,1,,,48,0
77278,note_on,46,0,7,,,,,,,,6,,,57,0
77278,note_on,94,0,6,,,,,,,,5,,,48,0
77278,note_on,46,0,5,,,,,,,,4,,,60,0
77278,note_on,46,0,3,,,,,,,,2,,,60,0
77280,note_on,2,0,6,,,,,,,,5,,,45,110
77280,note_on,2,0,3,,,,,,,,2,,,62,110
77280,note_on,128,0,12,,,,,,,,12,,,57,92
77280,note_on,2,0,1,,,,,,,,0,,,65,110
77280,note_on,2,0,2,,,,,,,,1,,,45,110
77280,note_on,2,0,5,,,,,,,,4,,,59,110
77280,note_on,98,0,8,,,,,,,,7,,,52,110
77280,note_on,2,0,7,,,,,,,,6,,,56,110
77280,note_on,98,0,4,,,,,,,,3,,,52,110
77326,note_on,46,0,7,,,,,,,,6,,,56,0
77326,note_on,46,0,5,,,,,,,,4,,,59,0
77326,note_on,46,0,1,,,,,,,,0,,,65,0
77326,note_on,46,0,3,,,,,,,,2,,,62,0
77328,note_on,2,0,5,,,,,,,,4,,,60,110
77328,note_on,2,0,7,,,,,,,,6,,,57,110
77328,note_on,2,0,1,,,,,,,,0,,,64,110
77328,note_on,2,0,3,,,,,,,,2,,,60,110
77344,note_on,160,0,10,,,,,,,,10,,,64,0
77344,note_on,160,0,11,,,,,,,,11,,,60,0
77374,note_on,94,0,6,,,,,,,,5,,,45,0
77374,note_on,94,0,12,,,,,,,,12,,,57,0
77374,note_on,46,0,5,,,,,,,,4,,,60,0
77374,note_on,94,0,8,,,,,,,,7,,,52,0
77374,note_on,94,0,4,,,,,,,,3,,,52,0
77374,note_on,46,0,1,,,,,,,,0,,,64,0
77374,note_on,46,0,7,,,,,,,,6,,,57,0
77374,note_on,94,0,2,,,,,,,,1,,,45,0
77374,note_on,46,0,3,,,,,,,,2,,,60,0
77376,note_on,2,0,5,,,,,,,,4,,,64,110
77376,note_on,2,0,7,,,,,,,,6,,,60,110
77376,note_on,2,0,1,,,,,,,,0,,,69,110
77376,note_on,2,0,12,,,,,,,,12,,,45,92
77376,note_on,2,0,4,,,,,,,,3,,,48,110
77376,note_on,2,0,3,,,,,,,,2,,,69,110
77376,note_on,2,0,8,,,,,,,,7,,,48,110
77422,note_on,46,0,7,,,,,,,,6,,,60,0
77422,note_on,46,0,1,,,,,,,,0,,,69,0
77422,note_on,46,0,5,,,,,,,,4,,,64,0
77422,note_on,46,0,3,,,,,,,,2,,,69,0
77424,note_on,2,0,7,,,,,,,,6,,,57,110
77424,note_on,2,0,3,,,,,,,,2,,,60,110
77424,note_on,2,0,5,,,,,,,,4,,,60,110
77424,note_on,2,0,1,,,,,,,,0,,,64,110
77470,note_on,46,0,5,,,,,,,,4,,,60,0
77470,note_on,46,0,3,,,,,,,,2,,,60,0
77470,note_on,46,0,1,,,,,,,,0,,,64,0
77470,note_on,94,0,4,,,,,,,,3,,,48,0
77470,note_on,46,0,7,,,,,,,,6,,,57,0
77470,note_on,94,0,8,,,,,,,,7,,,48,0
77472,note_on,98,0,6,,,,,,,,5,,,52,110
77472,note_on,128,0,10,,,,,,,,10,,,62,92
77472,note_on,2,0,4,,,,,,,,3,,,45,110
77472,note_on,2,0,8,,,,,,,,7,,,45,110
77472,note_on,2,0,7,,,,,,,,6,,,56,110
77472,note_on,98,0,2,,,,,,,,1,,,52,110
77472,note_on,2,0,1,,,,,,,,0,,,65,110
77472,note_on,128,0,11,,,,,,,,11,,,59,92
77472,note_on,2,0,5,,,,,,,,4,,,59,110
77472,note_on,2,0,3,,,,,,,,2,,,62,110
77518,note_on,46,0,7,,,,,,,,6,,,56,0
77518,note_on,46,0,1,,,,,,,,0,,,65,0
77518,note_on,46,0,5,,,,,,,,4,,,59,0
77518,note_on,46,0,3,,,,,,,,2,,,62,0
77520,note_on,2,0,3,,,,,,,,2,,,60,110
77520,note_on,2,0,5,,,,,,,,4,,,60,110
77520,note_on,2,0,7,,,,,,,,6,,,57,110
77520,note_on,2,0,1,,,,,,,,0,,,64,110
77536,note_on,160,0,12,,,,,,,,12,,,45,0
77566,note_on,46,0,3,,,,,,,,2,,,60,0
77566,note_on,94,0,6,,,,,,,,5,,,52,0
77566,note_on,94,0,10,,,,,,,,10,,,62,0
77566,note_on,94,0,11,,,,,,,,11,,,59,0
77566,note_on,46,0,7,,,,,,,,6,,,57,0
77566,note_on,94,0,2,,,,,,,,1,,,52,0
77566,note_on,46,0,5,,,,,,,,4,,,60,0
77566,note_on,94,0,4,,,,,,,,3,,,45,0
77566,note_on,46,0,1,,,,,,,,0,,,64,0
77566,note_on,94,0,8,,,,,,,,7,,,45,0
77568,note_on,2,0,6,,,,,,,,5,,,48,110
77568,note_on,2,0,7,,,,,,,,6,,,69,110
77568,note_on,2,0,5,,,,,,,,4,,,69,110
77568,note_on,2,0,2,,,,,,,,1,,,48,110
77568,set_tempo,384,1,0,,,,,,666667,,,,,,
77568,note_on,2,0,3,,,,,,,,2,,,69,110
77568,note_on,2,0,11,,,,,,,,11,,,57,92
77568,note_on,2,0,10,,,,,,,,10,,,60,92
77568,note_on,2,0,1,,,,,,,,0,,,69,110
77662,note_on,94,0,6,,,,,,,,5,,,48,0
77662,note_on,94,0,10,,,,,,,,10,,,60,0
77662,note_on,94,0,3,,,,,,,,2,,,69,0
77662,note_on,94,0,5,,,,,,,,4,,,69,0
77662,note_on,94,0,11,,,,,,,,11,,,57,0
77662,note_on,94,0,2,,,,,,,,1,,,48,0
77662,note_on,94,0,7,,,,,,,,6,,,69,0
77662,note_on,862,0,9,,,,,,,,8,,,69,0
77662,note_on,94,0,1,,,,,,,,0,,,69,0
77664,note_on,2,0,11,,,,,,,,11,,,60,92
77664,note_on,2,0,10,,,,,,,,10,,,57,92
77664,note_on,2,0,9,,,,,,,,8,,,67,92
77664,note_on,98,0,8,,,,,,,,7,,,57,110
77664,note_on,98,0,4,,,,,,,,3,,,57,110
77664,note_on,2,0,2,,,,,,,,1,,,45,110
77664,note_on,2,0,3,,,,,,,,2,,,67,110
77664,note_on,2,0,5,,,,,,,,4,,,67,110
77664,note_on,2,0,1,,,,,,,,0,,,67,110
77664,note_on,128,0,12,,,,,,,,12,,,57,92
77664,note_on,2,0,7,,,,,,,,6,,,67,110
77664,note_on,2,0,6,,,,,,,,5,,,45,110
77710,note_on,46,0,3,,,,,,,,2,,,67,0
77710,note_on,46,0,5,,,,,,,,4,,,67,0
77710,note_on,46,0,1,,,,,,,,0,,,67,0
77710,note_on,46,0,9,,,,,,,,8,,,67,0
77710,note_on,46,0,7,,,,,,,,6,,,67,0
77712,note_on,2,0,9,,,,,,,,8,,,65,92
77712,note_on,2,0,1,,,,,,,,0,,,65,110
77712,note_on,2,0,3,,,,,,,,2,,,65,110
77712,note_on,2,0,7,,,,,,,,6,,,65,110
77712,note_on,2,0,5,,,,,,,,4,,,65,110
77758,note_on,94,0,2,,,,,,,,1,,,45,0
77758,note_on,46,0,1,,,,,,,,0,,,65,0
77758,note_on,46,0,5,,,,,,,,4,,,65,0
77758,note_on,94,0,8,,,,,,,,7,,,57,0
77758,note_on,46,0,3,,,,,,,,2,,,65,0
77758,note_on,94,0,12,,,,,,,,12,,,57,0
77758,note_on,94,0,11,,,,,,,,11,,,60,0
77758,note_on,94,0,10,,,,,,,,10,,,57,0
77758,note_on,94,0,6,,,,,,,,5,,,45,0
77758,note_on,94,0,4,,,,,,,,3,,,57,0
77758,note_on,46,0,7,,,,,,,,6,,,65,0
77758,note_on,46,0,9,,,,,,,,8,,,65,0
77760,note_on,2,0,6,,,,,,,,5,,,44,110
77760,note_on,2,0,3,,,,,,,,2,,,64,110
77760,note_on,2,0,7,,,,,,,,6,,,64,110
77760,note_on,2,0,1,,,,,,,,0,,,64,110
77760,note_on,2,0,2,,,,,,,,1,,,44,110
77760,note_on,2,0,5,,,,,,,,4,,,64,110
77760,note_on,2,0,10,,,,,,,,10,,,59,92
77760,note_on,2,0,9,,,,,,,,8,,,64,92
77760,note_on,2,0,8,,,,,,,,7,,,56,110
77760,note_on,2,0,12,,,,,,,,12,,,56,92
77760,note_on,2,0,4,,,,,,,,3,,,56,110
77760,note_on,2,0,11,,,,,,,,11,,,59,92
77854,note_on,94,0,9,,,,,,,,8,,,64,0
77854,note_on,94,0,1,,,,,,,,0,,,64,0
77854,note_on,94,0,7,,,,,,,,6,,,64,0
77854,note_on,94,0,8,,,,,,,,7,,,56,0
77854,note_on,94,0,12,,,,,,,,12,,,56,0
77854,note_on,94,0,5,,,,,,,,4,,,64,0
77854,note_on,94,0,4,,,,,,,,3,,,56,0
77854,note_on,94,0,10,,,,,,,,10,,,59,0
77854,note_on,94,0,6,,,,,,,,5,,,44,0
77854,note_on,94,0,2,,,,,,,,1,,,44,0
77854,note_on,94,0,11,,,,,,,,11,,,59,0
77854,note_on,94,0,3,,,,,,,,2,,,64,0
77856,note_on,2,0,12,,,,,,,,12,,,52,92
77856,note_on,2,0,8,,,,,,,,7,,,52,110
77856,note_on,2,0,9,,,,,,,,8,,,62,92
77856,note_on,2,0,10,,,,,,,,10,,,68,92
77856,note_on,2,0,11,,,,,,,,11,,,59,92
77856,note_on,2,0,5,,,,,,,,4,,,62,110
77856,note_on,2,0,3,,,,,,,,2,,,62,110
77856,note_on,2,0,4,,,,,,,,3,,,52,110
77856,note_on,2,0,6,,,,,,,,5,,,40,110
77856,note_on,2,0,1,,,,,,,,0,,,62,110
77856,note_on,2,0,2,,,,,,,,1,,,40,110
77856,note_on,2,0,7,,,,,,,,6,,,62,110
77950,note_on,94,0,12,,,,,,,,12,,,52,0
77950,note_on,94,0,4,,,,,,,,3,,,52,0
77950,note_on,94,0,8,,,,,,,,7,,,52,0
77950,note_on,94,0,2,,,,,,,,1,,,40,0
77950,note_on,94,0,3,,,,,,,,2,,,62,0
77950,note_on,94,0,6,,,,,,,,5,,,40,0
77950,note_on,94,0,5,,,,,,,,4,,,62,0
77950,note_on,94,0,10,,,,,,,,10,,,68,0
77950,note_on,94,0,1,,,,,,,,0,,,62,0
77950,note_on,94,0,9,,,,,,,,8,,,62,0
77950,note_on,94,0,11,,,,,,,,11,,,59,0
77950,note_on,94,0,7,,,,,,,,6,,,62,0
77952,note_on,2,0,3,,,,,,,,2,,,60,110
77952,note_on,2,0,4,,,,,,,,3,,,57,110
77952,note_on,2,0,1,,,,,,,,0,,,60,110
77952,note_on,2,0,12,,,,,,,,12,,,45,92
77952,note_on,2,0,10,,,,,,,,10,,,69,92
77952,note_on,2,0,2,,,,,,,,1,,,45,110
77952,set_tempo,384,1,0,,,,,,769231,,,,,,
77952,note_on,2,0,9,,,,,,,,8,,,60,92
77952,note_on,2,0,5,,,,,,,,4,,,60,110
77952,note_on,2,0,11,,,,,,,,11,,,57,92
77952,note_on,2,0,6,,,,,,,,5,,,45,110
77952,note_on,2,0,8,,,,,,,,7,,,57,110
77952,note_on,2,0,7,,,,,,,,6,,,60,110
78046,note_on,94,0,6,,,,,,,,5,,,45,0
78046,note_on,94,0,10,,,,,,,,10,,,69,0
78046,note_on,94,0,3,,,,,,,,2,,,60,0
78046,note_on,94,0,11,,,,,,,,11,,,57,0
78046,note_on,94,0,2,,,,,,,,1,,,45,0
78046,note_on,94,0,4,,,,,,,,3,,,57,0
78046,note_on,94,0,8,,,,,,,,7,,,57,0
78046,note_on,94,0,7,,,,,,,,6,,,60,0
78046,note_on,94,0,12,,,,,,,,12,,,45,0
78048,note_on,2,0,7,,,,,,,,6,,,57,110
78048,note_on,2,0,2,,,,,,,,1,,,50,110
78048,note_on,2,0,10,,,,,,,,10,,,57,92
78048,note_on,2,0,4,,,,,,,,3,,,50,110
78048,note_on,2,0,6,,,,,,,,5,,,50,110
78048,note_on,2,0,8,,,,,,,,7,,,50,110
78048,note_on,2,0,3,,,,,,,,2,,,57,110
78048,note_on,2,0,11,,,,,,,,11,,,57,92
78048,note_on,2,0,12,,,,,,,,12,,,50,92
78112,note_on,160,0,1,,,,,,,,0,,,60,0
78112,note_on,160,0,5,,,,,,,,4,,,60,0
78112,note_on,160,0,9,,,,,,,,8,,,60,0
78142,note_on,94,0,11,,,,,,,,11,,,57,0
78142,note_on,94,0,8,,,,,,,,7,,,50,0
78142,note_on,94,0,2,,,,,,,,1,,,50,0
78142,note_on,94,0,12,,,,,,,,12,,,50,0
78142,note_on,94,0,4,,,,,,,,3,,,50,0
78142,note_on,94,0,6,,,,,,,,5,,,50,0
78144,note_on,2,0,12,,,,,,,,12,,,52,92
78144,note_on,2,0,4,,,,,,,,3,,,52,110
78144,note_on,2,0,6,,,,,,,,5,,,52,110
78144,note_on,2,0,8,,,,,,,,7,,,52,110
78144,note_on,32,0,1,,,,,,,,0,,,60,110
78144,note_on,2,0,11,,,,,,,,11,,,52,92
78144,note_on,32,0,5,,,,,,,,4,,,60,110
78144,note_on,2,0,2,,,,,,,,1,,,52,110
78144,note_on,32,0,9,,,,,,,,8,,,60,92
78166,note_on,22,0,1,,,,,,,,0,,,60,0
78166,note_on,22,0,9,,,,,,,,8,,,60,0
78166,note_on,22,0,5,,,,,,,,4,,,60,0
78168,note_on,2,0,1,,,,,,,,0,,,59,110
78168,note_on,2,0,5,,,,,,,,4,,,59,110
78168,note_on,2,0,9,,,,,,,,8,,,59,92
78190,note_on,22,0,1,,,,,,,,0,,,59,0
78190,note_on,22,0,5,,,,,,,,4,,,59,0
78190,note_on,22,0,9,,,,,,,,8,,,59,0
78192,note_on,2,0,1,,,,,,,,0,,,60,110
78192,note_on,2,0,5,,,,,,,,4,,,60,110
78192,note_on,2,0,9,,,,,,,,8,,,60,92
78208,note_on,160,0,7,,,,,,,,6,,,57,0
78208,note_on,160,0,10,,,,,,,,10,,,57,0
78208,note_on,160,0,3,,,,,,,,2,,,57,0
78214,note_on,22,0,9,,,,,,,,8,,,60,0
78214,note_on,22,0,5,,,,,,,,4,,,60,0
78214,note_on,22,0,1,,,,,,,,0,,,60,0
78216,note_on,2,0,9,,,,,,,,8,,,59,92
78216,note_on,2,0,1,,,,,,,,0,,,59,110
78216,note_on,2,0,5,,,,,,,,4,,,59,110
78238,note_on,22,0,9,,,,,,,,8,,,59,0
78238,note_on,94,0,12,,,,,,,,12,,,52,0
78238,note_on,94,0,6,,,,,,,,5,,,52,0
78238,note_on,94,0,2,,,,,,,,1,,,52,0
78238,note_on,94,0,11,,,,,,,,11,,,52,0
78238,note_on,22,0,5,,,,,,,,4,,,59,0
78238,note_on,22,0,1,,,,,,,,0,,,59,0
78238,note_on,94,0,8,,,,,,,,7,,,52,0
78238,note_on,94,0,4,,,,,,,,3,,,52,0
78240,note_on,2,0,9,,,,,,,,8,,,60,92
78240,note_on,2,0,2,,,,,,,,1,,,40,110
78240,note_on,2,0,11,,,,,,,,11,,,52,92
78240,note_on,2,0,5,,,,,,,,4,,,60,110
78240,note_on,2,0,8,,,,,,,,7,,,40,110
78240,note_on,32,0,3,,,,,,,,2,,,56,110
78240,note_on,32,0,10,,,,,,,,10,,,56,92
78240,note_on,2,0,12,,,,,,,,12,,,40,92
78240,note_on,2,0,1,,,,,,,,0,,,60,110
78240,note_on,2,0,4,,,,,,,,3,,,40,110
78240,note_on,32,0,7,,,,,,,,6,,,56,110
78240,note_on,2,0,6,,,,,,,,5,,,40,110
78262,note_on,22,0,9,,,,,,,,8,,,60,0
78262,note_on,22,0,1,,,,,,,,0,,,60,0
78262,note_on,22,0,5,,,,,,,,4,,,60,0
78264,note_on,2,0,1,,,,,,,,0,,,59,110
78264,note_on,2,0,9,,,,,,,,8,,,59,92
78264,note_on,2,0,5,,,,,,,,4,,,59,110
78286,note_on,22,0,1,,,,,,,,0,,,59,0
78286,note_on,22,0,9,,,,,,,,8,,,59,0
78286,note_on,22,0,5,,,,,,,,4,,,59,0
78288,note_on,2,0,5,,,,,,,,4,,,60,110
78288,note_on,2,0,1,,,,,,,,0,,,60,110
78288,note_on,2,0,9,,,,,,,,8,,,60,92
78310,note_on,22,0,5,,,,,,,,4,,,60,0
78310,note_on,22,0,9,,,,,,,,8,,,60,0
78310,note_on,22,0,1,,,,,,,,0,,,60,0
78312,note_on,2,0,5,,,,,,,,4,,,59,110
78312,set_tempo,360,1,0,,,,,,833333,,,,,,
78312,note_on,2,0,9,,,,,,,,8,,,59,92
78312,note_on,2,0,1,,,,,,,,0,,,59,110
78334,note_on,94,0,10,,,,,,,,10,,,56,0
78334,note_on,94,0,12,,,,,,,,12,,,40,0
78334,note_on,94,0,7,,,,,,,,6,,,56,0
78334,note_on,94,0,4,,,,,,,,3,,,40,0
78334,note_on,94,0,2,,,,,,,,1,,,40,0
78334,note_on,22,0,9,,,,,,,,8,,,59,0
78334,note_on,22,0,1,,,,,,,,0,,,59,0
78334,note_on,94,0,11,,,,,,,,11,,,52,0
78334,note_on,22,0,5,,,,,,,,4,,,59,0
78334,note_on,94,0,3,,,,,,,,2,,,56,0
78334,note_on,94,0,8,,,,,,,,7,,,40,0
78334,note_on,94,0,6,,,,,,,,5,,,40,0
78336,note_on,2,0,10,,,,,,,,10,,,57,92
78336,note_on,2,0,6,,,,,,,,5,,,45,110
78336,note_on,2,0,1,,,,,,,,0,,,57,110
78336,note_on,2,0,12,,,,,,,,12,,,45,92
78336,note_on,2,0,11,,,,,,,,11,,,52,92
78336,note_on,2,0,5,,,,,,,,4,,,57,110
78336,note_on,2,0,7,,,,,,,,6,,,57,110
78336,note_on,2,0,3,,,,,,,,2,,,57,110
78336,note_on,2,0,4,,,,,,,,3,,,45,110
78336,note_on,2,0,2,,,,,,,,1,,,45,110
78336,note_on,2,0,9,,,,,,,,8,,,57,92
78336,note_on,2,0,8,,,,,,,,7,,,45,110
79056,note_on,720,0,6,,,,,,,,5,,,45,0
79056,note_on,720,0,11,,,,,,,,11,,,52,0
79056,note_on,720,0,4,,,,,,,,3,,,45,0
79056,note_on,720,0,2,,,,,,,,1,,,45,0
79056,note_on,720,0,10,,,,,,,,10,,,57,0
79056,note_on,720,0,7,,,,,,,,6,,,57,0
79056,note_on,720,0,5,,,,,,,,4,,,57,0
79056,note_on,720,0,12,,,,,,,,12,,,45,0
79056,note_on,720,0,8,,,,,,,,7,,,45,0
79056,note_on,720,0,1,,,,,,,,0,,,57,0
79056,note_on,720,0,9,,,,,,,,8,,,57,0
79056,note_on,720,0,3,,,,,,,,2,,,57,0
79872,note_on,0,0,1,,,,,,,,0,,,73,110
79872,note_on,0,0,2,,,,,,,,1,,,57,110
79872,note_on,0,0,2,,,,,,,,1,,,52,110
79872,note_on,0,0,4,,,,,,,,3,,,57,110
79872,note_on,0,0,2,,,,,,,,1,,,49,110
79872,note_on,0,0,4,,,,,,,,3,,,52,110
79872,note_on,0,0,4,,,,,,,,3,,,49,110
79872,note_on,816,0,4,,,,,,,,3,,,45,110
79872,note_on,816,0,10,,,,,,,,10,,,73,60
79872,note_on,816,0,5,,,,,,,,4,,,64,110
79872,note_on,816,0,9,,,,,,,,8,,,79,60
79872,note_on,816,0,8,,,,,,,,7,,,45,110
79872,note_on,0,0,8,,,,,,,,7,,,49,110
79872,note_on,0,0,8,,,,,,,,7,,,52,110
79872,note_on,0,0,8,,,,,,,,7,,,57,110
79872,marker,0,1,0,,,,,,,,,,,,
79872,note_on,816,0,6,,,,,,,,5,,,45,110
79872,note_on,0,0,6,,,,,,,,5,,,49,110
79872,note_on,0,0,6,,,,,,,,5,,,52,110
79872,note_on,0,0,6,,,,,,,,5,,,57,110
79872,note_on,0,0,1,,,,,,,,0,,,79,110
79872,note_on,0,0,1,,,,,,,,0,,,76,110
79872,note_on,816,0,1,,,,,,,,0,,,69,110
79872,note_on,816,0,12,,,,,,,,12,,,45,60
79872,note_on,816,0,2,,,,,,,,1,,,45,110
79872,note_on,816,0,3,,,,,,,,2,,,67,110
79872,note_on,0,0,7,,,,,,,,6,,,69,110
79872,note_on,0,0,7,,,,,,,,6,,,67,110
79872,note_on,0,0,7,,,,,,,,6,,,64,110
79872,note_on,0,0,5,,,,,,,,4,,,73,110
79872,note_on,816,0,7,,,,,,,,6,,,61,110
79872,note_on,0,0,5,,,,,,,,4,,,67,110
79872,note_on,0,0,3,,,,,,,,2,,,69,110
79872,note_on,0,0,5,,,,,,,,4,,,69,110
79872,note_on,0,0,3,,,,,,,,2,,,76,110
79872,note_on,816,0,11,,,,,,,,11,,,64,60
79872,note_on,0,0,3,,,,,,,,2,,,73,110
79872,set_tempo,0,1,0,,,,,,1333333,,,,,,
79872,time_signature,1560,1,0,3,4,24,8,,,,,,,,
80032,note_on,0,0,4,,,,,,,,3,,,52,0
80032,note_on,0,0,3,,,,,,,,2,,,67,0
80032,note_on,0,0,3,,,,,,,,2,,,69,0
80032,note_on,0,0,8,,,,,,,,7,,,52,0
80032,note_on,0,0,1,,,,,,,,0,,,73,0
80032,note_on,0,0,1,,,,,,,,0,,,69,0
80032,note_on,160,0,1,,,,,,,,0,,,79,0
80032,note_on,0,0,3,,,,,,,,2,,,73,0
80032,note_on,160,0,4,,,,,,,,3,,,57,0
80032,note_on,160,0,5,,,,,,,,4,,,73,0
80032,note_on,0,0,5,,,,,,,,4,,,67,0
80032,note_on,160,0,9,,,,,,,,8,,,79,0
80032,note_on,0,0,6,,,,,,,,5,,,52,0
80032,note_on,160,0,3,,,,,,,,2,,,76,0
80032,note_on,0,0,6,,,,,,,,5,,,49,0
80032,note_on,0,0,6,,,,,,,,5,,,45,0
80032,note_on,160,0,6,,,,,,,,5,,,57,0
80032,note_on,0,0,5,,,,,,,,4,,,64,0
80032,note_on,160,0,12,,,,,,,,12,,,45,0
80032,note_on,0,0,7,,,,,,,,6,,,67,0
80032,note_on,0,0,8,,,,,,,,7,,,45,0
80032,note_on,160,0,2,,,,,,,,1,,,57,0
80032,note_on,160,0,11,,,,,,,,11,,,64,0
80032,note_on,0,0,2,,,,,,,,1,,,52,0
80032,note_on,0,0,2,,,,,,,,1,,,49,0
80032,note_on,0,0,2,,,,,,,,1,,,45,0
80032,note_on,0,0,4,,,,,,,,3,,,45,0
80032,note_on,0,0,5,,,,,,,,4,,,69,0
80032,note_on,160,0,10,,,,,,,,10,,,73,0
80032,note_on,0,0,8,,,,,,,,7,,,49,0
80032,note_on,0,0,4,,,,,,,,3,,,49,0
80032,note_on,160,0,7,,,,,,,,6,,,69,0
80032,note_on,0,0,7,,,,,,,,6,,,61,0
80032,note_on,0,0,7,,,,,,,,6,,,64,0
80032,note_on,0,0,1,,,,,,,,0,,,76,0
80032,note_on,160,0,8,,,,,,,,7,,,57,0
80064,note_on,32,0,5,,,,,,,,4,,,64,110
80064,note_on,0,0,5,,,,,,,,4,,,67,110
80064,note_on,0,0,5,,,,,,,,4,,,69,110
80064,note_on,0,0,2,,,,,,,,1,,,57,110
80064,note_on,0,0,2,,,,,,,,1,,,52,110
80064,note_on,0,0,2,,,,,,,,1,,,49,110
80064,note_on,0,0,5,,,,,,,,4,,,73,110
80064,note_on,32,0,2,,,,,,,,1,,,45,110
80064,note_on,32,0,4,,,,,,,,3,,,45,110
80064,note_on,0,0,4,,,,,,,,3,,,49,110
80064,note_on,32,0,6,,,,,,,,5,,,45,110
80064,note_on,0,0,8,,,,,,,,7,,,49,110
80064,note_on,0,0,6,,,,,,,,5,,,52,110
80064,note_on,0,0,6,,,,,,,,5,,,57,110
80064,note_on,0,0,3,,,,,,,,2,,,76,110
80064,note_on,0,0,3,,,,,,,,2,,,73,110
80064,note_on,0,0,3,,,,,,,,2,,,69,110
80064,note_on,32,0,3,,,,,,,,2,,,67,110
80064,note_on,0,0,7,,,,,,,,6,,,67,110
80064,note_on,0,0,7,,,,,,,,6,,,64,110
80064,note_on,32,0,7,,,,,,,,6,,,61,110
80064,note_on,32,0,12,,,,,,,,12,,,45,60
80064,note_on,32,0,11,,,,,,,,11,,,64,60
80064,note_on,32,0,8,,,,,,,,7,,,45,110
80064,note_on,32,0,10,,,,,,,,10,,,73,60
80064,note_on,0,0,4,,,,,,,,3,,,52,110
80064,note_on,0,0,4,,,,,,,,3,,,57,110
80064,note_on,0,0,8,,,,,,,,7,,,52,110
80064,note_on,0,0,8,,,,,,,,7,,,57,110
80064,note_on,0,0,7,,,,,,,,6,,,69,110
80064,note_on,0,0,6,,,,,,,,5,,,49,110
80064,note_on,32,0,9,,,,,,,,8,,,79,60
80064,note_on,32,0,1,,,,,,,,0,,,69,110
80064,note_on,0,0,1,,,,,,,,0,,,73,110
80064,note_on,0,0,1,,,,,,,,0,,,79,110
80064,note_on,0,0,1,,,,,,,,0,,,76,110
80320,note_on,256,0,9,,,,,,,,8,,,79,0
80320,note_on,0,0,2,,,,,,,,1,,,52,0
80320,note_on,0,0,2,,,,,,,,1,,,45,0
80320,note_on,256,0,6,,,,,,,,5,,,57,0
80320,note_on,0,0,5,,,,,,,,4,,,64,0
80320,note_on,0,0,6,,,,,,,,5,,,45,0
80320,note_on,0,0,6,,,,,,,,5,,,49,0
80320,note_on,0,0,6,,,,,,,,5,,,52,0
80320,note_on,256,0,1,,,,,,,,0,,,79,0
80320,note_on,256,0,11,,,,,,,,11,,,64,0
80320,note_on,0,0,1,,,,,,,,0,,,69,0
80320,note_on,0,0,5,,,,,,,,4,,,69,0
80320,note_on,256,0,10,,,,,,,,10,,,73,0
80320,note_on,0,0,1,,,,,,,,0,,,76,0
80320,note_on,0,0,1,,,,,,,,0,,,73,0
80320,note_on,256,0,5,,,,,,,,4,,,73,0
80320,note_on,0,0,5,,,,,,,,4,,,67,0
80320,note_on,256,0,2,,,,,,,,1,,,57,0
80320,note_on,0,0,2,,,,,,,,1,,,49,0
80320,note_on,0,0,8,,,,,,,,7,,,52,0
80320,note_on,0,0,4,,,,,,,,3,,,52,0
80320,note_on,0,0,3,,,,,,,,2,,,73,0
80320,note_on,0,0,3,,,,,,,,2,,,69,0
80320,note_on,0,0,3,,,,,,,,2,,,67,0
80320,note_on,256,0,3,,,,,,,,2,,,76,0
80320,note_on,0,0,7,,,,,,,,6,,,64,0
80320,note_on,0,0,7,,,,,,,,6,,,67,0
80320,note_on,0,0,4,,,,,,,,3,,,45,0
80320,note_on,0,0,8,,,,,,,,7,,,49,0
80320,note_on,256,0,8,,,,,,,,7,,,57,0
80320,note_on,256,0,4,,,,,,,,3,,,57,0
80320,note_on,256,0,7,,,,,,,,6,,,69,0
80320,note_on,256,0,12,,,,,,,,12,,,45,0
80320,note_on,0,0,7,,,,,,,,6,,,61,0
80320,note_on,0,0,8,,,,,,,,7,,,45,0
80320,note_on,0,0,4,,,,,,,,3,,,49,0
80352,note_on,0,0,8,,,,,,,,7,,,52,110
80352,note_on,0,0,8,,,,,,,,7,,,49,110
80352,note_on,0,0,8,,,,,,,,7,,,57,110
80352,note_on,32,0,8,,,,,,,,7,,,45,110
80352,note_on,0,0,1,,,,,,,,0,,,79,110
80352,note_on,0,0,1,,,,,,,,0,,,76,110
80352,note_on,0,0,1,,,,,,,,0,,,73,110
80352,note_on,32,0,1,,,,,,,,0,,,69,110
80352,note_on,32,0,9,,,,,,,,8,,,79,60
80352,note_on,0,0,4,,,,,,,,3,,,57,110
80352,note_on,0,0,4,,,,,,,,3,,,52,110
80352,note_on,32,0,5,,,,,,,,4,,,64,110
80352,note_on,0,0,5,,,,,,,,4,,,67,110
80352,note_on,0,0,5,,,,,,,,4,,,73,110
80352,note_on,32,0,4,,,,,,,,3,,,45,110
80352,note_on,32,0,11,,,,,,,,11,,,64,60
80352,note_on,0,0,2,,,,,,,,1,,,49,110
80352,note_on,0,0,7,,,,,,,,6,,,69,110
80352,note_on,0,0,7,,,,,,,,6,,,67,110
80352,note_on,0,0,7,,,,,,,,6,,,64,110
80352,note_on,32,0,7,,,,,,,,6,,,61,110
80352,note_on,0,0,6,,,,,,,,5,,,57,110
80352,note_on,0,0,6,,,,,,,,5,,,52,110
80352,note_on,0,0,6,,,,,,,,5,,,49,110
80352,note_on,32,0,2,,,,,,,,1,,,45,110
80352,note_on,32,0,6,,,,,,,,5,,,45,110
80352,note_on,0,0,3,,,,,,,,2,,,73,110
80352,note_on,0,0,3,,,,,,,,2,,,69,110
80352,note_on,32,0,3,,,,,,,,2,,,67,110
80352,note_on,32,0,10,,,,,,,,10,,,73,60
80352,note_on,32,0,12,,,,,,,,12,,,45,60
80352,note_on,0,0,5,,,,,,,,4,,,69,110
80352,note_on,0,0,2,,,,,,,,1,,,57,110
80352,note_on,0,0,2,,,,,,,,1,,,52,110
80352,note_on,0,0,3,,,,,,,,2,,,76,110
80352,note_on,0,0,4,,,,,,,,3,,,49,110
80446,note_on,94,0,7,,,,,,,,6,,,69,0
80446,note_on,0,0,7,,,,,,,,6,,,61,0
80446,note_on,0,0,1,,,,,,,,0,,,73,0
80446,note_on,94,0,1,,,,,,,,0,,,79,0
80446,note_on,0,0,5,,,,,,,,4,,,64,0
80446,note_on,0,0,5,,,,,,,,4,,,67,0
80446,note_on,0,0,8,,,,,,,,7,,,52,0
80446,note_on,0,0,5,,,,,,,,4,,,69,0
80446,note_on,0,0,6,,,,,,,,5,,,52,0
80446,note_on,0,0,6,,,,,,,,5,,,49,0
80446,note_on,0,0,6,,,,,,,,5,,,45,0
80446,note_on,94,0,6,,,,,,,,5,,,57,0
80446,note_on,94,0,12,,,,,,,,12,,,45,0
80446,note_on,0,0,7,,,,,,,,6,,,64,0
80446,note_on,0,0,4,,,,,,,,3,,,52,0
80446,note_on,0,0,4,,,,,,,,3,,,49,0
80446,note_on,0,0,4,,,,,,,,3,,,45,0
80446,note_on,0,0,1,,,,,,,,0,,,76,0
80446,note_on,0,0,1,,,,,,,,0,,,69,0
80446,note_on,94,0,4,,,,,,,,3,,,57,0
80446,note_on,0,0,7,,,,,,,,6,,,67,0
80446,note_on,94,0,5,,,,,,,,4,,,73,0
80446,note_on,0,0,2,,,,,,,,1,,,45,0
80446,note_on,94,0,2,,,,,,,,1,,,57,0
80446,note_on,0,0,3,,,,,,,,2,,,73,0
80446,note_on,0,0,3,,,,,,,,2,,,69,0
80446,note_on,0,0,3,,,,,,,,2,,,67,0
80446,note_on,94,0,3,,,,,,,,2,,,76,0
80446,note_on,0,0,8,,,,,,,,7,,,49,0
80446,note_on,94,0,9,,,,,,,,8,,,79,0
80446,note_on,94,0,10,,,,,,,,10,,,73,0
80446,note_on,0,0,8,,,,,,,,7,,,45,0
80446,note_on,94,0,11,,,,,,,,11,,,64,0
80446,note_on,0,0,2,,,,,,,,1,,,49,0
80446,note_on,0,0,2,,,,,,,,1,,,52,0
80446,note_on,94,0,8,,,,,,,,7,,,57,0
80448,note_on,2,0,4,,,,,,,,3,,,45,110
80448,note_on,0,0,1,,,,,,,,0,,,79,110
80448,note_on,2,0,5,,,,,,,,4,,,64,110
80448,note_on,0,0,5,,,,,,,,4,,,67,110
80448,note_on,0,0,5,,,,,,,,4,,,69,110
80448,note_on,0,0,5,,,,,,,,4,,,73,110
80448,note_on,0,0,7,,,,,,,,6,,,64,110
80448,note_on,2,0,12,,,,,,,,12,,,45,60
80448,note_on,0,0,4,,,,,,,,3,,,52,110
80448,note_on,0,0,2,,,,,,,,1,,,57,110
80448,note_on,0,0,2,,,,,,,,1,,,52,110
80448,note_on,0,0,1,,,,,,,,0,,,76,110
80448,note_on,0,0,4,,,,,,,,3,,,49,110
80448,note_on,0,0,2,,,,,,,,1,,,49,110
80448,note_on,2,0,2,,,,,,,,1,,,45,110
80448,note_on,0,0,4,,,,,,,,3,,,57,110
80448,note_on,0,0,1,,,,,,,,0,,,73,110
80448,note_on,2,0,7,,,,,,,,6,,,61,110
80448,note_on,0,0,8,,,,,,,,7,,,57,110
80448,note_on,2,0,11,,,,,,,,11,,,64,60
80448,note_on,2,0,6,,,,,,,,5,,,45,110
80448,note_on,2,0,10,,,,,,,,10,,,73,60
80448,note_on,2,0,9,,,,,,,,8,,,79,60
80448,note_on,2,0,3,,,,,,,,2,,,67,110
80448,note_on,0,0,3,,,,,,,,2,,,69,110
80448,note_on,0,0,3,,,,,,,,2,,,73,110
80448,note_on,0,0,6,,,,,,,,5,,,49,110
80448,note_on,0,0,3,,,,,,,,2,,,76,110
80448,note_on,0,0,6,,,,,,,,5,,,52,110
80448,note_on,0,0,6,,,,,,,,5,,,57,110
80448,note_on,0,0,7,,,,,,,,6,,,69,110
80448,note_on,0,0,7,,,,,,,,6,,,67,110
80448,note_on,0,0,8,,,,,,,,7,,,49,110
80448,note_on,0,0,8,,,,,,,,7,,,52,110
80448,note_on,2,0,8,,,,,,,,7,,,45,110
80448,note_on,2,0,1,,,,,,,,0,,,69,110
80590,note_on,142,0,1,,,,,,,,0,,,69,0
80590,note_on,142,0,5,,,,,,,,4,,,73,0
80592,note_on,2,0,1,,,,,,,,0,,,69,110
80592,note_on,2,0,5,,,,,,,,4,,,69,110
80608,note_on,0,0,2,,,,,,,,1,,,45,0
80608,note_on,160,0,8,,,,,,,,7,,,57,0
80608,note_on,0,0,6,,,,,,,,5,,,52,0
80608,note_on,0,0,6,,,,,,,,5,,,49,0
80608,note_on,0,0,6,,,,,,,,5,,,45,0
80608,note_on,160,0,6,,,,,,,,5,,,57,0
80608,note_on,0,0,8,,,,,,,,7,,,45,0
80608,note_on,0,0,8,,,,,,,,7,,,49,0
80608,note_on,0,0,8,,,,,,,,7,,,52,0
80608,note_on,160,0,12,,,,,,,,12,,,45,0
80608,note_on,16,0,5,,,,,,,,4,,,64,0
80608,note_on,0,0,5,,,,,,,,4,,,69,0
80608,note_on,0,0,5,,,,,,,,4,,,67,0
80608,note_on,160,0,2,,,,,,,,1,,,57,0
80608,note_on,0,0,2,,,,,,,,1,,,52,0
80608,note_on,0,0,2,,,,,,,,1,,,49,0
80608,note_on,0,0,4,,,,,,,,3,,,49,0
80608,note_on,0,0,7,,,,,,,,6,,,67,0
80608,note_on,0,0,3,,,,,,,,2,,,67,0
80608,note_on,160,0,3,,,,,,,,2,,,76,0
80608,note_on,160,0,11,,,,,,,,11,,,64,0
80608,note_on,160,0,10,,,,,,,,10,,,73,0
80608,note_on,160,0,9,,,,,,,,8,,,79,0
80608,note_on,0,0,1,,,,,,,,0,,,76,0
80608,note_on,0,0,3,,,,,,,,2,,,69,0
80608,note_on,0,0,7,,,,,,,,6,,,64,0
80608,note_on,0,0,1,,,,,,,,0,,,79,0
80608,note_on,0,0,3,,,,,,,,2,,,73,0
80608,note_on,160,0,4,,,,,,,,3,,,57,0
80608,note_on,0,0,4,,,,,,,,3,,,45,0
80608,note_on,0,0,4,,,,,,,,3,,,52,0
80608,note_on,160,0,7,,,,,,,,6,,,69,0
80608,note_on,0,0,7,,,,,,,,6,,,61,0
80608,note_on,16,0,1,,,,,,,,0,,,73,0
80638,note_on,30,0,1,,,,,,,,0,,,69,0
80638,note_on,30,0,5,,,,,,,,4,,,69,0
80640,note_on,2,0,1,,,,,,,,0,,,67,110
80640,note_on,2,0,5,,,,,,,,4,,,69,110
80782,note_on,142,0,1,,,,,,,,0,,,67,0
80782,note_on,142,0,5,,,,,,,,4,,,69,0
80784,note_on,2,0,1,,,,,,,,0,,,65,110
80784,note_on,2,0,5,,,,,,,,4,,,71,110
80830,note_on,46,0,5,,,,,,,,4,,,71,0
80830,note_on,46,0,1,,,,,,,,0,,,65,0
80832,note_on,2,0,5,,,,,,,,4,,,73,110
80832,note_on,224,0,2,,,,,,,,1,,,64,110
80974,note_on,142,0,2,,,,,,,,1,,,64,0
80974,note_on,142,0,5,,,,,,,,4,,,73,0
80976,note_on,2,0,5,,,,,,,,4,,,74,110
80976,note_on,2,0,2,,,,,,,,1,,,62,110
81022,note_on,46,0,2,,,,,,,,1,,,62,0
81022,note_on,46,0,5,,,,,,,,4,,,74,0
81024,note_on,2,0,2,,,,,,,,1,,,61,110
81024,note_on,2,0,5,,,,,,,,4,,,76,110
81166,note_on,142,0,2,,,,,,,,1,,,61,0
81168,note_on,560,0,6,,,,,,,,5,,,69,110
81168,note_on,2,0,2,,,,,,,,1,,,64,110
81168,note_on,338,0,1,,,,,,,,0,,,73,110
81214,note_on,46,0,6,,,,,,,,5,,,69,0
81214,note_on,46,0,2,,,,,,,,1,,,64,0
81214,note_on,46,0,1,,,,,,,,0,,,73,0
81216,note_on,2,0,6,,,,,,,,5,,,67,110
81216,note_on,2,0,2,,,,,,,,1,,,64,110
81216,note_on,2,0,1,,,,,,,,0,,,73,110
81358,note_on,142,0,2,,,,,,,,1,,,64,0
81358,note_on,142,0,1,,,,,,,,0,,,73,0
81358,note_on,142,0,6,,,,,,,,5,,,67,0
81360,note_on,2,0,6,,,,,,,,5,,,65,110
81360,note_on,2,0,2,,,,,,,,1,,,62,110
81360,note_on,2,0,1,,,,,,,,0,,,74,110
81406,note_on,46,0,2,,,,,,,,1,,,62,0
81406,note_on,46,0,6,,,,,,,,5,,,65,0
81406,note_on,46,0,1,,,,,,,,0,,,74,0
81408,note_on,2,0,2,,,,,,,,1,,,61,110
81408,note_on,2,0,6,,,,,,,,5,,,64,110
81408,note_on,2,0,1,,,,,,,,0,,,76,110
81550,note_on,142,0,6,,,,,,,,5,,,64,0
81550,note_on,142,0,2,,,,,,,,1,,,61,0
81550,note_on,142,0,1,,,,,,,,0,,,76,0
81552,note_on,2,0,1,,,,,,,,0,,,77,110
81552,note_on,2,0,6,,,,,,,,5,,,62,110
81552,note_on,2,0,2,,,,,,,,1,,,59,110
81598,note_on,46,0,1,,,,,,,,0,,,77,0
81598,note_on,46,0,2,,,,,,,,1,,,59,0
81598,note_on,46,0,6,,,,,,,,5,,,62,0
81600,note_on,2,0,6,,,,,,,,5,,,61,110
81600,note_on,2,0,1,,,,,,,,0,,,57,110
81600,note_on,0,0,1,,,,,,,,0,,,79,110
81742,note_on,142,0,6,,,,,,,,5,,,61,0
81744,note_on,0,0,6,,,,,,,,5,,,49,110
81744,note_on,0,0,7,,,,,,,,6,,,69,110
81744,note_on,1136,0,10,,,,,,,,10,,,73,60
81744,note_on,1136,0,11,,,,,,,,11,,,64,60
81744,note_on,1136,0,3,,,,,,,,2,,,64,110
81744,note_on,0,0,3,,,,,,,,2,,,67,110
81744,note_on,0,0,3,,,,,,,,2,,,69,110
81744,note_on,0,0,7,,,,,,,,6,,,67,110
81744,note_on,146,0,2,,,,,,,,1,,,45,110
81744,note_on,0,0,6,,,,,,,,5,,,57,110
81744,note_on,0,0,6,,,,,,,,5,,,52,110
81744,note_on,2,0,6,,,,,,,,5,,,45,110
81744,note_on,0,0,3,,,,,,,,2,,,73,110
81744,note_on,1136,0,9,,,,,,,,8,,,79,60
81744,note_on,0,0,7,,,,,,,,6,,,64,110
81744,note_on,1136,0,7,,,,,,,,6,,,61,110
81744,note_on,1136,0,4,,,,,,,,3,,,45,110
81744,note_on,0,0,4,,,,,,,,3,,,57,110
81744,note_on,0,0,4,,,,,,,,3,,,49,110
81744,note_on,0,0,4,,,,,,,,3,,,52,110
81744,note_on,1136,0,12,,,,,,,,12,,,45,60
81744,note_on,1136,0,8,,,,,,,,7,,,45,110
81744,note_on,0,0,8,,,,,,,,7,,,49,110
81744,note_on,0,0,8,,,,,,,,7,,,52,110
81744,note_on,0,0,8,,,,,,,,7,,,57,110
81760,note_on,160,0,1,,,,,,,,0,,,79,0
81760,note_on,736,0,5,,,,,,,,4,,,76,0
81760,note_on,0,0,1,,,,,,,,0,,,57,0
81790,note_on,46,0,8,,,,,,,,7,,,57,0
81790,note_on,0,0,3,,,,,,,,2,,,67,0
81790,note_on,0,0,8,,,,,,,,7,,,49,0
81790,note_on,0,0,3,,,,,,,,2,,,69,0
81790,note_on,46,0,9,,,,,,,,8,,,79,0
81790,note_on,0,0,3,,,,,,,,2,,,64,0
81790,note_on,0,0,8,,,,,,,,7,,,52,0
81790,note_on,46,0,11,,,,,,,,11,,,64,0
81790,note_on,0,0,8,,,,,,,,7,,,45,0
81790,note_on,0,0,4,,,,,,,,3,,,45,0
81790,note_on,46,0,3,,,,,,,,2,,,73,0
81790,note_on,0,0,6,,,,,,,,5,,,45,0
81790,note_on,46,0,6,,,,,,,,5,,,57,0
81790,note_on,46,0,10,,,,,,,,10,,,73,0
81790,note_on,0,0,7,,,,,,,,6,,,67,0
81790,note_on,0,0,7,,,,,,,,6,,,64,0
81790,note_on,0,0,7,,,,,,,,6,,,61,0
81790,note_on,46,0,7,,,,,,,,6,,,69,0
81790,note_on,46,0,12,,,,,,,,12,,,45,0
81790,note_on,46,0,4,,,,,,,,3,,,57,0
81790,note_on,0,0,4,,,,,,,,3,,,52,0
81790,note_on,0,0,4,,,,,,,,3,,,49,0
81790,note_on,46,0,2,,,,,,,,1,,,45,0
81790,note_on,0,0,6,,,,,,,,5,,,52,0
81790,note_on,0,0,6,,,,,,,,5,,,49,0
81792,note_on,0,0,8,,,,,,,,7,,,57,110
81792,note_on,2,0,2,,,,,,,,1,,,45,110
81792,note_on,0,0,3,,,,,,,,2,,,69,110
81792,note_on,0,0,2,,,,,,,,1,,,52,110
81792,note_on,2,0,11,,,,,,,,11,,,64,60
81792,note_on,0,0,7,,,,,,,,6,,,69,110
81792,note_on,2,0,8,,,,,,,,7,,,45,110
81792,note_on,0,0,8,,,,,,,,7,,,49,110
81792,note_on,0,0,8,,,,,,,,7,,,52,110
81792,note_on,0,0,2,,,,,,,,1,,,49,110
81792,note_on,0,0,2,,,,,,,,1,,,57,110
81792,note_on,0,0,6,,,,,,,,5,,,57,110
81792,note_on,0,0,3,,,,,,,,2,,,73,110
81792,note_on,0,0,6,,,,,,,,5,,,52,110
81792,note_on,0,0,6,,,,,,,,5,,,49,110
81792,note_on,2,0,10,,,,,,,,10,,,73,60
81792,note_on,0,0,7,,,,,,,,6,,,67,110
81792,note_on,2,0,6,,,,,,,,5,,,45,110
81792,note_on,0,0,1,,,,,,,,0,,,76,110
81792,note_on,0,0,7,,,,,,,,6,,,64,110
81792,note_on,2,0,7,,,,,,,,6,,,61,110
81792,note_on,0,0,5,,,,,,,,4,,,69,110
81792,note_on,32,0,5,,,,,,,,4,,,67,110
81792,note_on,0,0,3,,,,,,,,2,,,67,110
81792,note_on,0,0,5,,,,,,,,4,,,73,110
81792,note_on,0,0,5,,,,,,,,4,,,76,110
81792,note_on,0,0,4,,,,,,,,3,,,49,110
81792,note_on,2,0,12,,,,,,,,12,,,45,60
81792,note_on,0,0,4,,,,,,,,3,,,52,110
81792,note_on,2,0,4,,,,,,,,3,,,45,110
81792,note_on,32,0,1,,,,,,,,0,,,69,110
81792,note_on,0,0,1,,,,,,,,0,,,73,110
81792,note_on,2,0,9,,,,,,,,8,,,79,60
81792,note_on,0,0,1,,,,,,,,0,,,79,110
81792,note_on,2,0,3,,,,,,,,2,,,64,110
81792,note_on,0,0,4,,,,,,,,3,,,57,110
81934,note_on,142,0,1,,,,,,,,0,,,79,0
81934,note_on,0,0,1,,,,,,,,0,,,69,0
81934,note_on,0,0,2,,,,,,,,1,,,52,0
81934,note_on,0,0,1,,,,,,,,0,,,73,0
81934,note_on,0,0,1,,,,,,,,0,,,76,0
81934,note_on,142,0,6,,,,,,,,5,,,57,0
81934,note_on,0,0,3,,,,,,,,2,,,64,0
81934,note_on,142,0,2,,,,,,,,1,,,57,0
81934,note_on,0,0,6,,,,,,,,5,,,45,0
81934,note_on,0,0,2,,,,,,,,1,,,45,0
81934,note_on,142,0,3,,,,,,,,2,,,73,0
81934,note_on,0,0,2,,,,,,,,1,,,49,0
81934,note_on,0,0,3,,,,,,,,2,,,67,0
81934,note_on,142,0,10,,,,,,,,10,,,73,0
81934,note_on,0,0,6,,,,,,,,5,,,52,0
81934,note_on,0,0,6,,,,,,,,5,,,49,0
81934,note_on,142,0,9,,,,,,,,8,,,79,0
81934,note_on,142,0,4,,,,,,,,3,,,57,0
81934,note_on,142,0,5,,,,,,,,4,,,76,0
81934,note_on,0,0,5,,,,,,,,4,,,67,0
81934,note_on,0,0,5,,,,,,,,4,,,69,0
81934,note_on,0,0,5,,,,,,,,4,,,73,0
81934,note_on,0,0,4,,,,,,,,3,,,45,0
81934,note_on,0,0,4,,,,,,,,3,,,49,0
81934,note_on,0,0,4,,,,,,,,3,,,52,0
81934,note_on,0,0,7,,,,,,,,6,,,67,0
81934,note_on,0,0,7,,,,,,,,6,,,64,0
81934,note_on,0,0,7,,,,,,,,6,,,61,0
81934,note_on,142,0,7,,,,,,,,6,,,69,0
81934,note_on,142,0,11,,,,,,,,11,,,64,0
81934,note_on,142,0,8,,,,,,,,7,,,57,0
81934,note_on,0,0,8,,,,,,,,7,,,45,0
81934,note_on,0,0,8,,,,,,,,7,,,49,0
81934,note_on,0,0,8,,,,,,,,7,,,52,0
81934,note_on,142,0,12,,,,,,,,12,,,45,0
81934,note_on,0,0,3,,,,,,,,2,,,69,0
81936,note_on,0,0,6,,,,,,,,5,,,49,110
81936,note_on,2,0,10,,,,,,,,10,,,73,60
81936,note_on,0,0,6,,,,,,,,5,,,52,110
81936,note_on,0,0,6,,,,,,,,5,,,57,110
81936,note_on,2,0,11,,,,,,,,11,,,64,60
81936,note_on,2,0,7,,,,,,,,6,,,61,110
81936,note_on,0,0,7,,,,,,,,6,,,64,110
81936,note_on,0,0,7,,,,,,,,6,,,67,110
81936,note_on,0,0,7,,,,,,,,6,,,69,110
81936,note_on,2,0,2,,,,,,,,1,,,45,110
81936,note_on,2,0,12,,,,,,,,12,,,45,60
81936,note_on,0,0,1,,,,,,,,0,,,79,110
81936,note_on,0,0,3,,,,,,,,2,,,69,110
81936,note_on,0,0,4,,,,,,,,3,,,49,110
81936,note_on,2,0,4,,,,,,,,3,,,45,110
81936,note_on,2,0,8,,,,,,,,7,,,45,110
81936,note_on,0,0,3,,,,,,,,2,,,73,110
81936,note_on,0,0,5,,,,,,,,4,,,76,110
81936,note_on,0,0,3,,,,,,,,2,,,67,110
81936,note_on,2,0,3,,,,,,,,2,,,64,110
81936,note_on,0,0,8,,,,,,,,7,,,49,110
81936,note_on,0,0,8,,,,,,,,7,,,52,110
81936,note_on,0,0,8,,,,,,,,7,,,57,110
81936,note_on,0,0,5,,,,,,,,4,,,73,110
81936,note_on,0,0,5,,,,,,,,4,,,69,110
81936,note_on,2,0,5,,,,,,,,4,,,67,110
81936,note_on,0,0,2,,,,,,,,1,,,57,110
81936,note_on,0,0,2,,,,,,,,1,,,52,110
81936,note_on,0,0,2,,,,,,,,1,,,49,110
81936,note_on,2,0,9,,,,,,,,8,,,79,60
81936,note_on,2,0,6,,,,,,,,5,,,45,110
81936,note_on,0,0,1,,,,,,,,0,,,76,110
81936,note_on,0,0,1,,,,,,,,0,,,73,110
81936,note_on,2,0,1,,,,,,,,0,,,69,110
81936,note_on,0,0,4,,,,,,,,3,,,52,110
81936,note_on,0,0,4,,,,,,,,3,,,57,110
81982,note_on,46,0,7,,,,,,,,6,,,69,0
81982,note_on,0,0,7,,,,,,,,6,,,61,0
81982,note_on,0,0,7,,,,,,,,6,,,64,0
81982,note_on,0,0,7,,,,,,,,6,,,67,0
81982,note_on,0,0,6,,,,,,,,5,,,52,0
81982,note_on,0,0,4,,,,,,,,3,,,45,0
81982,note_on,0,0,4,,,,,,,,3,,,49,0
81982,note_on,0,0,4,,,,,,,,3,,,52,0
81982,note_on,46,0,12,,,,,,,,12,,,45,0
81982,note_on,46,0,8,,,,,,,,7,,,57,0
81982,note_on,0,0,8,,,,,,,,7,,,45,0
81982,note_on,0,0,8,,,,,,,,7,,,49,0
81982,note_on,0,0,8,,,,,,,,7,,,52,0
81982,note_on,0,0,2,,,,,,,,1,,,52,0
81982,note_on,0,0,2,,,,,,,,1,,,49,0
81982,note_on,0,0,2,,,,,,,,1,,,45,0
81982,note_on,0,0,6,,,,,,,,5,,,49,0
81982,note_on,46,0,4,,,,,,,,3,,,57,0
81982,note_on,46,0,2,,,,,,,,1,,,57,0
81982,note_on,0,0,1,,,,,,,,0,,,73,0
81982,note_on,0,0,5,,,,,,,,4,,,73,0
81982,note_on,0,0,3,,,,,,,,2,,,64,0
81982,note_on,0,0,6,,,,,,,,5,,,45,0
81982,note_on,46,0,3,,,,,,,,2,,,73,0
81982,note_on,0,0,3,,,,,,,,2,,,67,0
81982,note_on,46,0,11,,,,,,,,11,,,64,0
81982,note_on,0,0,5,,,,,,,,4,,,67,0
81982,note_on,46,0,6,,,,,,,,5,,,57,0
81982,note_on,0,0,5,,,,,,,,4,,,69,0
81982,note_on,46,0,1,,,,,,,,0,,,79,0
81982,note_on,0,0,1,,,,,,,,0,,,69,0
81982,note_on,46,0,9,,,,,,,,8,,,79,0
81982,note_on,0,0,1,,,,,,,,0,,,76,0
81982,note_on,46,0,10,,,,,,,,10,,,73,0
81982,note_on,46,0,5,,,,,,,,4,,,76,0
81982,note_on,0,0,3,,,,,,,,2,,,69,0
81984,note_on,0,0,2,,,,,,,,1,,,57,110
81984,note_on,0,0,2,,,,,,,,1,,,52,110
81984,note_on,0,0,2,,,,,,,,1,,,49,110
81984,note_on,2,0,2,,,,,,,,1,,,45,110
81984,note_on,0,0,5,,,,,,,,4,,,76,110
81984,note_on,0,0,5,,,,,,,,4,,,73,110
81984,note_on,2,0,12,,,,,,,,12,,,45,60
81984,note_on,2,0,5,,,,,,,,4,,,67,110
81984,note_on,0,0,1,,,,,,,,0,,,79,110
81984,note_on,0,0,1,,,,,,,,0,,,76,110
81984,note_on,0,0,1,,,,,,,,0,,,73,110
81984,note_on,0,0,3,,,,,,,,2,,,73,110
81984,note_on,0,0,3,,,,,,,,2,,,69,110
81984,note_on,0,0,6,,,,,,,,5,,,49,110
81984,note_on,2,0,6,,,,,,,,5,,,45,110
81984,note_on,0,0,6,,,,,,,,5,,,52,110
81984,note_on,0,0,5,,,,,,,,4,,,69,110
81984,note_on,0,0,3,,,,,,,,2,,,67,110
81984,note_on,2,0,1,,,,,,,,0,,,69,110
81984,note_on,2,0,7,,,,,,,,6,,,61,110
81984,note_on,0,0,7,,,,,,,,6,,,67,110
81984,note_on,0,0,7,,,,,,,,6,,,64,110
81984,note_on,2,0,3,,,,,,,,2,,,64,110
81984,note_on,2,0,4,,,,,,,,3,,,45,110
81984,note_on,0,0,4,,,,,,,,3,,,49,110
81984,note_on,2,0,8,,,,,,,,7,,,45,110
81984,note_on,0,0,8,,,,,,,,7,,,49,110
81984,note_on,2,0,10,,,,,,,,10,,,73,60
81984,note_on,0,0,4,,,,,,,,3,,,52,110
81984,note_on,0,0,4,,,,,,,,3,,,57,110
81984,note_on,0,0,8,,,,,,,,7,,,52,110
81984,note_on,0,0,8,,,,,,,,7,,,57,110
81984,note_on,2,0,9,,,,,,,,8,,,79,60
81984,note_on,2,0,11,,,,,,,,11,,,64,60
81984,note_on,0,0,6,,,,,,,,5,,,57,110
81984,note_on,0,0,7,,,,,,,,6,,,69,110
82126,note_on,142,0,8,,,,,,,,7,,,57,0
82126,note_on,0,0,8,,,,,,,,7,,,45,0
82126,note_on,0,0,1,,,,,,,,0,,,69,0
82126,note_on,142,0,6,,,,,,,,5,,,57,0
82126,note_on,0,0,1,,,,,,,,0,,,76,0
82126,note_on,0,0,6,,,,,,,,5,,,52,0
82126,note_on,142,0,1,,,,,,,,0,,,79,0
82126,note_on,0,0,6,,,,,,,,5,,,49,0
82126,note_on,142,0,2,,,,,,,,1,,,57,0
82126,note_on,0,0,2,,,,,,,,1,,,45,0
82126,note_on,0,0,2,,,,,,,,1,,,49,0
82126,note_on,0,0,2,,,,,,,,1,,,52,0
82126,note_on,0,0,1,,,,,,,,0,,,73,0
82126,note_on,0,0,6,,,,,,,,5,,,45,0
82126,note_on,142,0,7,,,,,,,,6,,,69,0
82126,note_on,142,0,12,,,,,,,,12,,,45,0
82126,note_on,142,0,9,,,,,,,,8,,,79,0
82126,note_on,0,0,7,,,,,,,,6,,,67,0
82126,note_on,0,0,7,,,,,,,,6,,,64,0
82126,note_on,0,0,7,,,,,,,,6,,,61,0
82126,note_on,0,0,3,,,,,,,,2,,,69,0
82126,note_on,0,0,3,,,,,,,,2,,,67,0
82126,note_on,0,0,3,,,,,,,,2,,,64,0
82126,note_on,142,0,10,,,,,,,,10,,,73,0
82126,note_on,142,0,11,,,,,,,,11,,,64,0
82126,note_on,142,0,4,,,,,,,,3,,,57,0
82126,note_on,0,0,4,,,,,,,,3,,,45,0
82126,note_on,142,0,3,,,,,,,,2,,,73,0
82126,note_on,0,0,4,,,,,,,,3,,,52,0
82126,note_on,0,0,8,,,,,,,,7,,,49,0
82126,note_on,142,0,5,,,,,,,,4,,,76,0
82126,note_on,0,0,5,,,,,,,,4,,,67,0
82126,note_on,0,0,5,,,,,,,,4,,,69,0
82126,note_on,0,0,4,,,,,,,,3,,,49,0
82126,note_on,0,0,5,,,,,,,,4,,,73,0
82126,note_on,0,0,8,,,,,,,,7,,,52,0
82128,note_on,0,0,1,,,,,,,,0,,,79,110
82128,note_on,0,0,1,,,,,,,,0,,,76,110
82128,note_on,0,0,1,,,,,,,,0,,,73,110
82128,note_on,0,0,4,,,,,,,,3,,,57,110
82128,note_on,0,0,2,,,,,,,,1,,,52,110
82128,note_on,0,0,4,,,,,,,,3,,,52,110
82128,note_on,0,0,4,,,,,,,,3,,,49,110
82128,note_on,2,0,3,,,,,,,,2,,,64,110
82128,note_on,0,0,3,,,,,,,,2,,,67,110
82128,note_on,2,0,9,,,,,,,,8,,,79,60
82128,note_on,2,0,4,,,,,,,,3,,,45,110
82128,note_on,0,0,3,,,,,,,,2,,,73,110
82128,note_on,0,0,3,,,,,,,,2,,,69,110
82128,note_on,0,0,2,,,,,,,,1,,,57,110
82128,note_on,2,0,1,,,,,,,,0,,,69,110
82128,note_on,0,0,6,,,,,,,,5,,,49,110
82128,note_on,0,0,8,,,,,,,,7,,,49,110
82128,note_on,0,0,5,,,,,,,,4,,,69,110
82128,note_on,2,0,8,,,,,,,,7,,,45,110
82128,note_on,2,0,11,,,,,,,,11,,,64,60
82128,note_on,2,0,10,,,,,,,,10,,,73,60
82128,note_on,2,0,5,,,,,,,,4,,,67,110
82128,note_on,2,0,12,,,,,,,,12,,,45,60
82128,note_on,2,0,7,,,,,,,,6,,,61,110
82128,note_on,0,0,5,,,,,,,,4,,,73,110
82128,note_on,0,0,2,,,,,,,,1,,,49,110
82128,note_on,2,0,6,,,,,,,,5,,,45,110
82128,note_on,0,0,7,,,,,,,,6,,,64,110
82128,note_on,0,0,6,,,,,,,,5,,,52,110
82128,note_on,2,0,2,,,,,,,,1,,,45,110
82128,note_on,0,0,5,,,,,,,,4,,,76,110
82128,note_on,0,0,8,,,,,,,,7,,,52,110
82128,note_on,0,0,7,,,,,,,,6,,,67,110
82128,note_on,0,0,7,,,,,,,,6,,,69,110
82128,note_on,0,0,8,,,,,,,,7,,,57,110
82128,note_on,0,0,6,,,,,,,,5,,,57,110
82174,note_on,46,0,5,,,,,,,,4,,,76,0
82174,note_on,0,0,3,,,,,,,,2,,,69,0
82174,note_on,0,0,3,,,,,,,,2,,,67,0
82174,note_on,0,0,3,,,,,,,,2,,,64,0
82174,note_on,46,0,3,,,,,,,,2,,,73,0
82174,note_on,0,0,7,,,,,,,,6,,,67,0
82174,note_on,46,0,11,,,,,,,,11,,,64,0
82174,note_on,0,0,1,,,,,,,,0,,,69,0
82174,note_on,0,0,5,,,,,,,,4,,,67,0
82174,note_on,0,0,7,,,,,,,,6,,,61,0
82174,note_on,46,0,7,,,,,,,,6,,,69,0
82174,note_on,0,0,5,,,,,,,,4,,,69,0
82174,note_on,0,0,5,,,,,,,,4,,,73,0
82174,note_on,46,0,9,,,,,,,,8,,,79,0
82174,note_on,0,0,1,,,,,,,,0,,,76,0
82174,note_on,0,0,1,,,,,,,,0,,,73,0
82174,note_on,0,0,7,,,,,,,,6,,,64,0
82174,note_on,46,0,10,,,,,,,,10,,,73,0
82174,note_on,0,0,4,,,,,,,,3,,,45,0
82174,note_on,0,0,4,,,,,,,,3,,,49,0
82174,note_on,46,0,8,,,,,,,,7,,,57,0
82174,note_on,0,0,8,,,,,,,,7,,,45,0
82174,note_on,0,0,8,,,,,,,,7,,,49,0
82174,note_on,0,0,8,,,,,,,,7,,,52,0
82174,note_on,0,0,6,,,,,,,,5,,,52,0
82174,note_on,0,0,6,,,,,,,,5,,,49,0
82174,note_on,0,0,6,,,,,,,,5,,,45,0
82174,note_on,46,0,4,,,,,,,,3,,,57,0
82174,note_on,46,0,1,,,,,,,,0,,,79,0
82174,note_on,46,0,6,,,,,,,,5,,,57,0
82174,note_on,46,0,2,,,,,,,,1,,,57,0
82174,note_on,0,0,2,,,,,,,,1,,,45,0
82174,note_on,0,0,2,,,,,,,,1,,,49,0
82174,note_on,0,0,2,,,,,,,,1,,,52,0
82174,note_on,0,0,4,,,,,,,,3,,,52,0
82174,note_on,46,0,12,,,,,,,,12,,,45,0
82176,note_on,0,0,6,,,,,,,,5,,,57,110
82176,note_on,0,0,5,,,,,,,,4,,,69,110
82176,note_on,2,0,5,,,,,,,,4,,,65,110
82176,note_on,0,0,2,,,,,,,,1,,,57,110
82176,note_on,0,0,6,,,,,,,,5,,,53,110
82176,note_on,2,0,2,,,,,,,,1,,,50,110
82176,note_on,2,0,6,,,,,,,,5,,,50,110
82176,note_on,2,0,10,,,,,,,,10,,,69,60
82176,note_on,0,0,5,,,,,,,,4,,,74,110
82176,note_on,2,0,12,,,,,,,,12,,,50,60
82176,note_on,0,0,2,,,,,,,,1,,,53,110
82176,note_on,0,0,5,,,,,,,,4,,,77,110
82176,note_on,0,0,3,,,,,,,,2,,,74,110
82176,note_on,0,0,8,,,,,,,,7,,,53,110
82176,note_on,0,0,1,,,,,,,,0,,,77,110
82176,note_on,0,0,1,,,,,,,,0,,,74,110
82176,note_on,2,0,1,,,,,,,,0,,,69,110
82176,note_on,0,0,4,,,,,,,,3,,,53,110
82176,note_on,0,0,4,,,,,,,,3,,,57,110
82176,note_on,2,0,8,,,,,,,,7,,,50,110
82176,note_on,2,0,4,,,,,,,,3,,,50,110
82176,note_on,2,0,9,,,,,,,,8,,,77,60
82176,note_on,2,0,3,,,,,,,,2,,,62,110
82176,note_on,0,0,7,,,,,,,,6,,,69,110
82176,note_on,0,0,7,,,,,,,,6,,,65,110
82176,note_on,2,0,7,,,,,,,,6,,,62,110
82176,note_on,0,0,3,,,,,,,,2,,,69,110
82176,note_on,0,0,3,,,,,,,,2,,,65,110
82176,note_on,0,0,8,,,,,,,,7,,,57,110
82176,note_on,2,0,11,,,,,,,,11,,,62,60
82318,note_on,0,0,7,,,,,,,,6,,,65,0
82318,note_on,142,0,7,,,,,,,,6,,,69,0
82318,note_on,0,0,4,,,,,,,,3,,,50,0
82318,note_on,142,0,4,,,,,,,,3,,,57,0
82318,note_on,0,0,7,,,,,,,,6,,,62,0
82318,note_on,0,0,4,,,,,,,,3,,,53,0
82320,note_on,2,0,4,,,,,,,,3,,,62,110
82320,note_on,2,0,7,,,,,,,,6,,,62,110
82336,note_on,160,0,9,,,,,,,,8,,,77,0
82336,note_on,0,0,1,,,,,,,,0,,,69,0
82336,note_on,160,0,5,,,,,,,,4,,,77,0
82336,note_on,0,0,5,,,,,,,,4,,,65,0
82336,note_on,0,0,5,,,,,,,,4,,,69,0
82336,note_on,0,0,5,,,,,,,,4,,,74,0
82336,note_on,160,0,11,,,,,,,,11,,,62,0
82336,note_on,160,0,10,,,,,,,,10,,,69,0
82336,note_on,160,0,12,,,,,,,,12,,,50,0
82336,note_on,160,0,2,,,,,,,,1,,,57,0
82336,note_on,0,0,2,,,,,,,,1,,,53,0
82336,note_on,160,0,6,,,,,,,,5,,,57,0
82336,note_on,0,0,6,,,,,,,,5,,,53,0
82336,note_on,0,0,6,,,,,,,,5,,,50,0
82336,note_on,160,0,1,,,,,,,,0,,,77,0
82336,note_on,0,0,1,,,,,,,,0,,,74,0
82336,note_on,0,0,3,,,,,,,,2,,,69,0
82336,note_on,0,0,3,,,,,,,,2,,,65,0
82336,note_on,0,0,3,,,,,,,,2,,,62,0
82336,note_on,160,0,3,,,,,,,,2,,,74,0
82336,note_on,0,0,8,,,,,,,,7,,,53,0
82336,note_on,160,0,8,,,,,,,,7,,,57,0
82336,note_on,0,0,2,,,,,,,,1,,,50,0
82336,note_on,0,0,8,,,,,,,,7,,,50,0
82366,note_on,46,0,4,,,,,,,,3,,,62,0
82366,note_on,46,0,7,,,,,,,,6,,,62,0
82368,note_on,2,0,4,,,,,,,,3,,,60,110
82368,note_on,2,0,7,,,,,,,,6,,,62,110
82510,note_on,142,0,7,,,,,,,,6,,,62,0
82510,note_on,142,0,4,,,,,,,,3,,,60,0
82512,note_on,2,0,4,,,,,,,,3,,,59,110
82512,note_on,2,0,7,,,,,,,,6,,,64,110
82558,note_on,46,0,4,,,,,,,,3,,,59,0
82558,note_on,46,0,7,,,,,,,,6,,,64,0
82560,note_on,2,0,7,,,,,,,,6,,,66,110
82560,note_on,2,0,4,,,,,,,,3,,,57,110
82702,note_on,142,0,7,,,,,,,,6,,,66,0
82702,note_on,142,0,4,,,,,,,,3,,,57,0
82704,note_on,2,0,4,,,,,,,,3,,,55,110
82704,note_on,2,0,7,,,,,,,,6,,,67,110
82750,note_on,46,0,7,,,,,,,,6,,,67,0
82750,note_on,46,0,4,,,,,,,,3,,,55,0
82752,note_on,2,0,4,,,,,,,,3,,,54,110
82752,note_on,2,0,7,,,,,,,,6,,,69,110
82894,note_on,142,0,4,,,,,,,,3,,,54,0
82896,note_on,2,0,4,,,,,,,,3,,,57,110
82896,note_on,560,0,3,,,,,,,,2,,,66,110
82896,note_on,560,0,8,,,,,,,,7,,,62,110
82942,note_on,46,0,3,,,,,,,,2,,,66,0
82942,note_on,46,0,8,,,,,,,,7,,,62,0
82942,note_on,46,0,4,,,,,,,,3,,,57,0
82944,note_on,2,0,4,,,,,,,,3,,,57,110
82944,note_on,2,0,8,,,,,,,,7,,,60,110
82944,note_on,2,0,3,,,,,,,,2,,,66,110
83086,note_on,142,0,4,,,,,,,,3,,,57,0
83086,note_on,142,0,8,,,,,,,,7,,,60,0
83086,note_on,142,0,3,,,,,,,,2,,,66,0
83088,note_on,2,0,8,,,,,,,,7,,,59,110
83088,note_on,2,0,4,,,,,,,,3,,,55,110
83088,note_on,2,0,3,,,,,,,,2,,,67,110
83134,note_on,46,0,4,,,,,,,,3,,,55,0
83134,note_on,46,0,8,,,,,,,,7,,,59,0
83134,note_on,46,0,3,,,,,,,,2,,,67,0
83136,note_on,2,0,4,,,,,,,,3,,,54,110
83136,note_on,2,0,8,,,,,,,,7,,,57,110
83136,note_on,2,0,3,,,,,,,,2,,,69,110
83278,note_on,142,0,3,,,,,,,,2,,,69,0
83278,note_on,142,0,4,,,,,,,,3,,,54,0
83278,note_on,142,0,8,,,,,,,,7,,,57,0
83280,note_on,2,0,4,,,,,,,,3,,,52,110
83280,note_on,2,0,8,,,,,,,,7,,,55,110
83280,note_on,2,0,3,,,,,,,,2,,,71,110
83326,note_on,46,0,8,,,,,,,,7,,,55,0
83326,note_on,46,0,4,,,,,,,,3,,,52,0
83326,note_on,46,0,3,,,,,,,,2,,,71,0
83328,note_on,2,0,3,,,,,,,,2,,,50,110
83328,note_on,0,0,3,,,,,,,,2,,,72,110
83328,note_on,2,0,8,,,,,,,,7,,,54,110
83470,note_on,142,0,8,,,,,,,,7,,,54,0
83472,note_on,0,0,6,,,,,,,,5,,,62,110
83472,note_on,0,0,6,,,,,,,,5,,,57,110
83472,note_on,0,0,6,,,,,,,,5,,,54,110
83472,note_on,1136,0,6,,,,,,,,5,,,50,110
83472,note_on,0,0,2,,,,,,,,1,,,57,110
83472,note_on,0,0,2,,,,,,,,1,,,54,110
83472,note_on,1136,0,9,,,,,,,,8,,,78,60
83472,note_on,1136,0,12,,,,,,,,12,,,50,60
83472,note_on,2,0,8,,,,,,,,7,,,38,110
83472,note_on,0,0,5,,,,,,,,4,,,69,110
83472,note_on,1136,0,11,,,,,,,,11,,,69,60
83472,note_on,1136,0,5,,,,,,,,4,,,66,110
83472,note_on,1136,0,10,,,,,,,,10,,,72,60
83472,note_on,1136,0,2,,,,,,,,1,,,50,110
83472,note_on,0,0,8,,,,,,,,7,,,50,110
83472,note_on,0,0,2,,,,,,,,1,,,62,110
83472,note_on,0,0,5,,,,,,,,4,,,74,110
83472,note_on,1136,0,1,,,,,,,,0,,,69,110
83472,note_on,146,0,4,,,,,,,,3,,,38,110
83472,note_on,0,0,1,,,,,,,,0,,,72,110
83472,note_on,0,0,1,,,,,,,,0,,,74,110
83472,note_on,0,0,1,,,,,,,,0,,,78,110
83488,note_on,736,0,7,,,,,,,,6,,,69,0
83488,note_on,0,0,3,,,,,,,,2,,,50,0
83488,note_on,160,0,3,,,,,,,,2,,,72,0
83518,note_on,0,0,2,,,,,,,,1,,,50,0
83518,note_on,46,0,2,,,,,,,,1,,,62,0
83518,note_on,46,0,9,,,,,,,,8,,,78,0
83518,note_on,0,0,1,,,,,,,,0,,,69,0
83518,note_on,0,0,1,,,,,,,,0,,,72,0
83518,note_on,0,0,1,,,,,,,,0,,,74,0
83518,note_on,46,0,11,,,,,,,,11,,,69,0
83518,note_on,46,0,5,,,,,,,,4,,,74,0
83518,note_on,0,0,2,,,,,,,,1,,,57,0
83518,note_on,0,0,5,,,,,,,,4,,,69,0
83518,note_on,0,0,2,,,,,,,,1,,,54,0
83518,note_on,0,0,8,,,,,,,,7,,,38,0
83518,note_on,46,0,12,,,,,,,,12,,,50,0
83518,note_on,46,0,10,,,,,,,,10,,,72,0
83518,note_on,46,0,1,,,,,,,,0,,,78,0
83518,note_on,46,0,6,,,,,,,,5,,,62,0
83518,note_on,0,0,6,,,,,,,,5,,,50,0
83518,note_on,0,0,6,,,,,,,,5,,,54,0
83518,note_on,46,0,8,,,,,,,,7,,,50,0
83518,note_on,0,0,6,,,,,,,,5,,,57,0
83518,note_on,0,0,5,,,,,,,,4,,,66,0
83518,note_on,46,0,4,,,,,,,,3,,,38,0
83520,note_on,0,0,7,,,,,,,,6,,,66,110
83520,note_on,32,0,7,,,,,,,,6,,,62,110
83520,note_on,2,0,4,,,,,,,,3,,,38,110
83520,note_on,0,0,3,,,,,,,,2,,,72,110
83520,note_on,32,0,3,,,,,,,,2,,,62,110
83520,note_on,0,0,3,,,,,,,,2,,,69,110
83520,note_on,0,0,3,,,,,,,,2,,,66,110
83520,note_on,0,0,5,,,,,,,,4,,,74,110
83520,note_on,2,0,9,,,,,,,,8,,,78,60
83520,note_on,0,0,7,,,,,,,,6,,,69,110
83520,note_on,2,0,10,,,,,,,,10,,,72,60
83520,note_on,0,0,8,,,,,,,,7,,,50,110
83520,note_on,0,0,2,,,,,,,,1,,,62,110
83520,note_on,0,0,1,,,,,,,,0,,,72,110
83520,note_on,2,0,5,,,,,,,,4,,,66,110
83520,note_on,0,0,6,,,,,,,,5,,,54,110
83520,note_on,2,0,6,,,,,,,,5,,,50,110
83520,note_on,2,0,12,,,,,,,,12,,,50,60
83520,note_on,0,0,2,,,,,,,,1,,,57,110
83520,note_on,0,0,2,,,,,,,,1,,,54,110
83520,note_on,2,0,2,,,,,,,,1,,,50,110
83520,note_on,0,0,6,,,,,,,,5,,,57,110
83520,note_on,0,0,6,,,,,,,,5,,,62,110
83520,note_on,2,0,1,,,,,,,,0,,,69,110
83520,note_on,0,0,1,,,,,,,,0,,,74,110
83520,note_on,0,0,1,,,,,,,,0,,,78,110
83520,note_on,0,0,5,,,,,,,,4,,,69,110
83520,note_on,2,0,11,,,,,,,,11,,,69,60
83520,note_on,0,0,4,,,,,,,,3,,,50,110
83520,note_on,2,0,8,,,,,,,,7,,,38,110
83662,note_on,0,0,7,,,,,,,,6,,,66,0
83662,note_on,142,0,3,,,,,,,,2,,,72,0
83662,note_on,0,0,3,,,,,,,,2,,,62,0
83662,note_on,0,0,3,,,,,,,,2,,,66,0
83662,note_on,0,0,3,,,,,,,,2,,,69,0
83662,note_on,142,0,12,,,,,,,,12,,,50,0
83662,note_on,142,0,4,,,,,,,,3,,,50,0
83662,note_on,0,0,4,,,,,,,,3,,,38,0
83662,note_on,0,0,7,,,,,,,,6,,,62,0
83662,note_on,142,0,7,,,,,,,,6,,,69,0
83662,note_on,142,0,8,,,,,,,,7,,,50,0
83662,note_on,0,0,6,,,,,,,,5,,,57,0
83662,note_on,0,0,2,,,,,,,,1,,,54,0
83662,note_on,142,0,6,,,,,,,,5,,,62,0
83662,note_on,0,0,6,,,,,,,,5,,,50,0
83662,note_on,142,0,5,,,,,,,,4,,,74,0
83662,note_on,142,0,11,,,,,,,,11,,,69,0
83662,note_on,142,0,9,,,,,,,,8,,,78,0
83662,note_on,0,0,1,,,,,,,,0,,,74,0
83662,note_on,0,0,1,,,,,,,,0,,,72,0
83662,note_on,0,0,1,,,,,,,,0,,,69,0
83662,note_on,142,0,1,,,,,,,,0,,,78,0
83662,note_on,0,0,5,,,,,,,,4,,,69,0
83662,note_on,0,0,5,,,,,,,,4,,,66,0
83662,note_on,0,0,2,,,,,,,,1,,,50,0
83662,note_on,142,0,2,,,,,,,,1,,,62,0
83662,note_on,142,0,10,,,,,,,,10,,,72,0
83662,note_on,0,0,2,,,,,,,,1,,,57,0
83662,note_on,0,0,8,,,,,,,,7,,,38,0
83662,note_on,0,0,6,,,,,,,,5,,,54,0
83664,note_on,2,0,1,,,,,,,,0,,,69,110
83664,note_on,0,0,6,,,,,,,,5,,,57,110
83664,note_on,0,0,6,,,,,,,,5,,,54,110
83664,note_on,2,0,6,,,,,,,,5,,,50,110
83664,note_on,2,0,11,,,,,,,,11,,,69,60
83664,note_on,0,0,2,,,,,,,,1,,,57,110
83664,note_on,0,0,2,,,,,,,,1,,,54,110
83664,note_on,2,0,2,,,,,,,,1,,,50,110
83664,note_on,0,0,2,,,,,,,,1,,,62,110
83664,note_on,2,0,7,,,,,,,,6,,,62,110
83664,note_on,2,0,4,,,,,,,,3,,,38,110
83664,note_on,0,0,7,,,,,,,,6,,,66,110
83664,note_on,0,0,7,,,,,,,,6,,,69,110
83664,note_on,0,0,4,,,,,,,,3,,,50,110
83664,note_on,0,0,3,,,,,,,,2,,,72,110
83664,note_on,0,0,6,,,,,,,,5,,,62,110
83664,note_on,0,0,3,,,,,,,,2,,,69,110
83664,note_on,0,0,3,,,,,,,,2,,,66,110
83664,note_on,2,0,3,,,,,,,,2,,,62,110
83664,note_on,0,0,1,,,,,,,,0,,,72,110
83664,note_on,2,0,9,,,,,,,,8,,,78,60
83664,note_on,2,0,10,,,,,,,,10,,,72,60
83664,note_on,2,0,5,,,,,,,,4,,,66,110
83664,note_on,0,0,5,,,,,,,,4,,,69,110
83664,note_on,0,0,1,,,,,,,,0,,,78,110
83664,note_on,0,0,5,,,,,,,,4,,,74,110
83664,note_on,0,0,1,,,,,,,,0,,,74,110
83664,note_on,0,0,8,,,,,,,,7,,,50,110
83664,note_on,2,0,8,,,,,,,,7,,,38,110
83664,note_on,2,0,12,,,,,,,,12,,,50,60
83710,note_on,0,0,4,,,,,,,,3,,,38,0
83710,note_on,46,0,4,,,,,,,,3,,,50,0
83710,note_on,46,0,8,,,,,,,,7,,,50,0
83710,note_on,0,0,6,,,,,,,,5,,,57,0
83710,note_on,0,0,8,,,,,,,,7,,,38,0
83710,note_on,46,0,2,,,,,,,,1,,,62,0
83710,note_on,0,0,5,,,,,,,,4,,,69,0
83710,note_on,46,0,5,,,,,,,,4,,,74,0
83710,note_on,0,0,2,,,,,,,,1,,,50,0
83710,note_on,0,0,2,,,,,,,,1,,,54,0
83710,note_on,0,0,2,,,,,,,,1,,,57,0
83710,note_on,0,0,3,,,,,,,,2,,,62,0
83710,note_on,46,0,3,,,,,,,,2,,,72,0
83710,note_on,0,0,5,,,,,,,,4,,,66,0
83710,note_on,0,0,6,,,,,,,,5,,,54,0
83710,note_on,46,0,10,,,,,,,,10,,,72,0
83710,note_on,46,0,6,,,,,,,,5,,,62,0
83710,note_on,0,0,1,,,,,,,,0,,,74,0
83710,note_on,46,0,9,,,,,,,,8,,,78,0
83710,note_on,46,0,12,,,,,,,,12,,,50,0
83710,note_on,46,0,11,,,,,,,,11,,,69,0
83710,note_on,0,0,3,,,,,,,,2,,,66,0
83710,note_on,46,0,1,,,,,,,,0,,,78,0
83710,note_on,0,0,1,,,,,,,,0,,,69,0
83710,note_on,0,0,7,,,,,,,,6,,,62,0
83710,note_on,0,0,3,,,,,,,,2,,,69,0
83710,note_on,46,0,7,,,,,,,,6,,,69,0
83710,note_on,0,0,1,,,,,,,,0,,,72,0
83710,note_on,0,0,7,,,,,,,,6,,,66,0
83710,note_on,0,0,6,,,,,,,,5,,,50,0
83712,note_on,2,0,5,,,,,,,,4,,,66,110
83712,note_on,0,0,5,,,,,,,,4,,,69,110
83712,note_on,0,0,5,,,,,,,,4,,,74,110
83712,note_on,0,0,8,,,,,,,,7,,,50,110
83712,note_on,2,0,3,,,,,,,,2,,,62,110
83712,note_on,0,0,3,,,,,,,,2,,,66,110
83712,note_on,0,0,3,,,,,,,,2,,,69,110
83712,note_on,0,0,3,,,,,,,,2,,,72,110
83712,note_on,0,0,1,,,,,,,,0,,,72,110
83712,note_on,2,0,8,,,,,,,,7,,,38,110
83712,note_on,0,0,1,,,,,,,,0,,,74,110
83712,note_on,0,0,2,,,,,,,,1,,,62,110
83712,note_on,2,0,4,,,,,,,,3,,,38,110
83712,note_on,2,0,10,,,,,,,,10,,,72,60
83712,note_on,2,0,6,,,,,,,,5,,,50,110
83712,note_on,0,0,6,,,,,,,,5,,,54,110
83712,note_on,0,0,6,,,,,,,,5,,,57,110
83712,note_on,0,0,6,,,,,,,,5,,,62,110
83712,note_on,2,0,11,,,,,,,,11,,,69,60
83712,note_on,2,0,7,,,,,,,,6,,,62,110
83712,note_on,0,0,7,,,,,,,,6,,,66,110
83712,note_on,0,0,7,,,,,,,,6,,,69,110
83712,note_on,2,0,12,,,,,,,,12,,,50,60
83712,note_on,0,0,4,,,,,,,,3,,,50,110
83712,note_on,2,0,9,,,,,,,,8,,,78,60
83712,note_on,2,0,2,,,,,,,,1,,,50,110
83712,note_on,0,0,2,,,,,,,,1,,,54,110
83712,note_on,0,0,2,,,,,,,,1,,,57,110
83712,note_on,0,0,1,,,,,,,,0,,,78,110
83712,note_on,2,0,1,,,,,,,,0,,,69,110
83854,note_on,0,0,2,,,,,,,,1,,,57,0
83854,note_on,0,0,5,,,,,,,,4,,,66,0
83854,note_on,0,0,2,,,,,,,,1,,,54,0
83854,note_on,0,0,2,,,,,,,,1,,,50,0
83854,note_on,142,0,2,,,,,,,,1,,,62,0
83854,note_on,142,0,12,,,,,,,,12,,,50,0
83854,note_on,142,0,4,,,,,,,,3,,,50,0
83854,note_on,0,0,4,,,,,,,,3,,,38,0
83854,note_on,0,0,5,,,,,,,,4,,,69,0
83854,note_on,0,0,6,,,,,,,,5,,,57,0
83854,note_on,0,0,1,,,,,,,,0,,,69,0
83854,note_on,142,0,10,,,,,,,,10,,,72,0
83854,note_on,142,0,11,,,,,,,,11,,,69,0
83854,note_on,142,0,1,,,,,,,,0,,,78,0
83854,note_on,142,0,5,,,,,,,,4,,,74,0
83854,note_on,142,0,6,,,,,,,,5,,,62,0
83854,note_on,142,0,9,,,,,,,,8,,,78,0
83854,note_on,0,0,6,,,,,,,,5,,,50,0
83854,note_on,0,0,6,,,,,,,,5,,,54,0
83854,note_on,0,0,1,,,,,,,,0,,,72,0
83854,note_on,142,0,3,,,,,,,,2,,,72,0
83854,note_on,0,0,1,,,,,,,,0,,,74,0
83854,note_on,0,0,3,,,,,,,,2,,,66,0
83854,note_on,0,0,3,,,,,,,,2,,,69,0
83854,note_on,0,0,7,,,,,,,,6,,,62,0
83854,note_on,0,0,7,,,,,,,,6,,,66,0
83854,note_on,142,0,7,,,,,,,,6,,,69,0
83854,note_on,142,0,8,,,,,,,,7,,,50,0
83854,note_on,0,0,3,,,,,,,,2,,,62,0
83854,note_on,0,0,8,,,,,,,,7,,,38,0
83856,note_on,2,0,4,,,,,,,,3,,,38,110
83856,note_on,0,0,3,,,,,,,,2,,,69,110
83856,note_on,0,0,3,,,,,,,,2,,,66,110
83856,note_on,2,0,1,,,,,,,,0,,,69,110
83856,note_on,0,0,1,,,,,,,,0,,,72,110
83856,note_on,0,0,1,,,,,,,,0,,,74,110
83856,note_on,2,0,3,,,,,,,,2,,,62,110
83856,note_on,0,0,2,,,,,,,,1,,,54,110
83856,note_on,2,0,9,,,,,,,,8,,,78,60
83856,note_on,0,0,5,,,,,,,,4,,,74,110
83856,note_on,0,0,2,,,,,,,,1,,,57,110
83856,note_on,0,0,2,,,,,,,,1,,,62,110
83856,note_on,0,0,1,,,,,,,,0,,,78,110
83856,note_on,0,0,4,,,,,,,,3,,,50,110
83856,note_on,2,0,10,,,,,,,,10,,,72,60
83856,note_on,0,0,5,,,,,,,,4,,,69,110
83856,note_on,0,0,6,,,,,,,,5,,,57,110
83856,note_on,0,0,7,,,,,,,,6,,,66,110
83856,note_on,0,0,3,,,,,,,,2,,,72,110
83856,note_on,2,0,7,,,,,,,,6,,,62,110
83856,note_on,2,0,8,,,,,,,,7,,,38,110
83856,note_on,0,0,6,,,,,,,,5,,,54,110
83856,note_on,0,0,7,,,,,,,,6,,,69,110
83856,note_on,0,0,8,,,,,,,,7,,,50,110
83856,note_on,2,0,12,,,,,,,,12,,,50,60
83856,note_on,2,0,2,,,,,,,,1,,,50,110
83856,note_on,2,0,11,,,,,,,,11,,,62,60
83856,note_on,2,0,5,,,,,,,,4,,,66,110
83856,note_on,2,0,6,,,,,,,,5,,,50,110
83856,note_on,0,0,6,,,,,,,,5,,,62,110
83902,note_on,46,0,6,,,,,,,,5,,,62,0
83902,note_on,0,0,6,,,,,,,,5,,,50,0
83902,note_on,0,0,2,,,,,,,,1,,,54,0
83902,note_on,0,0,2,,,,,,,,1,,,57,0
83902,note_on,0,0,2,,,,,,,,1,,,50,0
83902,note_on,46,0,2,,,,,,,,1,,,62,0
83902,note_on,46,0,9,,,,,,,,8,,,78,0
83902,note_on,46,0,11,,,,,,,,11,,,62,0
83902,note_on,0,0,3,,,,,,,,2,,,69,0
83902,note_on,0,0,3,,,,,,,,2,,,66,0
83902,note_on,0,0,5,,,,,,,,4,,,69,0
83902,note_on,46,0,3,,,,,,,,2,,,72,0
83902,note_on,46,0,4,,,,,,,,3,,,50,0
83902,note_on,0,0,4,,,,,,,,3,,,38,0
83902,note_on,46,0,7,,,,,,,,6,,,69,0
83902,note_on,0,0,7,,,,,,,,6,,,66,0
83902,note_on,0,0,7,,,,,,,,6,,,62,0
83902,note_on,46,0,8,,,,,,,,7,,,50,0
83902,note_on,0,0,8,,,,,,,,7,,,38,0
83902,note_on,46,0,12,,,,,,,,12,,,50,0
83902,note_on,0,0,3,,,,,,,,2,,,62,0
83902,note_on,46,0,1,,,,,,,,0,,,78,0
83902,note_on,0,0,1,,,,,,,,0,,,69,0
83902,note_on,46,0,10,,,,,,,,10,,,72,0
83902,note_on,0,0,1,,,,,,,,0,,,74,0
83902,note_on,0,0,1,,,,,,,,0,,,72,0
83902,note_on,0,0,6,,,,,,,,5,,,54,0
83902,note_on,0,0,5,,,,,,,,4,,,66,0
83902,note_on,46,0,5,,,,,,,,4,,,74,0
83902,note_on,0,0,6,,,,,,,,5,,,57,0
83904,note_on,0,0,8,,,,,,,,7,,,55,110
83904,note_on,0,0,6,,,,,,,,5,,,59,110
83904,note_on,0,0,8,,,,,,,,7,,,50,110
83904,note_on,2,0,8,,,,,,,,7,,,43,110
83904,note_on,2,0,5,,,,,,,,4,,,67,110
83904,note_on,0,0,5,,,,,,,,4,,,71,110
83904,note_on,0,0,5,,,,,,,,4,,,74,110
83904,note_on,0,0,2,,,,,,,,1,,,62,110
83904,note_on,2,0,2,,,,,,,,1,,,55,110
83904,note_on,0,0,2,,,,,,,,1,,,59,110
83904,note_on,0,0,6,,,,,,,,5,,,62,110
83904,note_on,0,0,3,,,,,,,,2,,,50,110
83904,note_on,2,0,11,,,,,,,,11,,,62,60
83904,note_on,2,0,4,,,,,,,,3,,,55,110
83904,note_on,2,0,7,,,,,,,,6,,,62,110
83904,note_on,0,0,7,,,,,,,,6,,,67,110
83904,note_on,0,0,7,,,,,,,,6,,,71,110
83904,note_on,2,0,12,,,,,,,,12,,,43,60
83904,note_on,2,0,10,,,,,,,,10,,,71,60
83904,note_on,2,0,1,,,,,,,,0,,,67,110
83904,note_on,2,0,6,,,,,,,,5,,,55,110
83904,note_on,0,0,1,,,,,,,,0,,,74,110
83904,note_on,0,0,1,,,,,,,,0,,,79,110
83904,note_on,0,0,1,,,,,,,,0,,,71,110
83904,note_on,2,0,9,,,,,,,,8,,,79,60
83904,note_on,0,0,3,,,,,,,,2,,,71,110
83904,note_on,2,0,3,,,,,,,,2,,,43,110
83904,note_on,0,0,3,,,,,,,,2,,,62,110
83904,note_on,0,0,3,,,,,,,,2,,,67,110
84046,note_on,142,0,5,,,,,,,,4,,,74,0
84046,note_on,142,0,4,,,,,,,,3,,,55,0
84046,note_on,142,0,7,,,,,,,,6,,,71,0
84046,note_on,0,0,7,,,,,,,,6,,,67,0
84046,note_on,0,0,7,,,,,,,,6,,,62,0
84046,note_on,142,0,1,,,,,,,,0,,,79,0
84048,note_on,2,0,7,,,,,,,,6,,,67,110
84048,note_on,2,0,5,,,,,,,,4,,,74,110
84048,note_on,2,0,4,,,,,,,,3,,,59,110
84048,note_on,2,0,1,,,,,,,,0,,,79,110
84064,note_on,0,0,5,,,,,,,,4,,,67,0
84064,note_on,0,0,6,,,,,,,,5,,,59,0
84064,note_on,0,0,6,,,,,,,,5,,,55,0
84064,note_on,0,0,1,,,,,,,,0,,,71,0
84064,note_on,0,0,1,,,,,,,,0,,,74,0
84064,note_on,160,0,3,,,,,,,,2,,,71,0
84064,note_on,0,0,3,,,,,,,,2,,,62,0
84064,note_on,0,0,3,,,,,,,,2,,,43,0
84064,note_on,16,0,1,,,,,,,,0,,,67,0
84064,note_on,16,0,5,,,,,,,,4,,,71,0
84064,note_on,160,0,6,,,,,,,,5,,,62,0
84064,note_on,0,0,3,,,,,,,,2,,,67,0
84064,note_on,160,0,12,,,,,,,,12,,,43,0
84064,note_on,160,0,8,,,,,,,,7,,,55,0
84064,note_on,0,0,8,,,,,,,,7,,,50,0
84064,note_on,0,0,8,,,,,,,,7,,,43,0
84064,note_on,160,0,2,,,,,,,,1,,,62,0
84064,note_on,0,0,2,,,,,,,,1,,,59,0
84064,note_on,0,0,2,,,,,,,,1,,,55,0
84064,note_on,160,0,11,,,,,,,,11,,,62,0
84064,note_on,0,0,3,,,,,,,,2,,,50,0
84064,note_on,160,0,10,,,,,,,,10,,,71,0
84064,note_on,160,0,9,,,,,,,,8,,,79,0
84094,note_on,30,0,1,,,,,,,,0,,,79,0
84094,note_on,30,0,5,,,,,,,,4,,,74,0
84094,note_on,46,0,4,,,,,,,,3,,,59,0
84094,note_on,46,0,7,,,,,,,,6,,,67,0
84096,note_on,2,0,7,,,,,,,,6,,,67,110
84096,note_on,2,0,5,,,,,,,,4,,,74,110
84096,note_on,2,0,4,,,,,,,,3,,,59,110
84096,note_on,2,0,1,,,,,,,,0,,,77,110
84238,note_on,142,0,7,,,,,,,,6,,,67,0
84238,note_on,142,0,5,,,,,,,,4,,,74,0
84238,note_on,142,0,1,,,,,,,,0,,,77,0
84238,note_on,142,0,4,,,,,,,,3,,,59,0
84240,note_on,2,0,4,,,,,,,,3,,,60,110
84240,note_on,2,0,1,,,,,,,,0,,,76,110
84240,note_on,2,0,7,,,,,,,,6,,,69,110
84240,note_on,2,0,5,,,,,,,,4,,,72,110
84286,note_on,46,0,1,,,,,,,,0,,,76,0
84286,note_on,46,0,4,,,,,,,,3,,,60,0
84286,note_on,46,0,7,,,,,,,,6,,,69,0
84286,note_on,46,0,5,,,,,,,,4,,,72,0
84288,note_on,2,0,7,,,,,,,,6,,,71,110
84288,note_on,2,0,1,,,,,,,,0,,,74,110
84288,note_on,2,0,4,,,,,,,,3,,,62,110
84288,note_on,2,0,5,,,,,,,,4,,,71,110
84430,note_on,142,0,1,,,,,,,,0,,,74,0
84430,note_on,142,0,7,,,,,,,,6,,,71,0
84430,note_on,142,0,4,,,,,,,,3,,,62,0
84430,note_on,142,0,5,,,,,,,,4,,,71,0
84432,note_on,2,0,5,,,,,,,,4,,,69,110
84432,note_on,2,0,1,,,,,,,,0,,,72,110
84432,note_on,2,0,7,,,,,,,,6,,,72,110
84432,note_on,2,0,4,,,,,,,,3,,,64,110
84478,note_on,46,0,5,,,,,,,,4,,,69,0
84478,note_on,46,0,4,,,,,,,,3,,,64,0
84478,note_on,46,0,1,,,,,,,,0,,,72,0
84478,note_on,46,0,7,,,,,,,,6,,,72,0
84480,note_on,416,0,6,,,,,,,,5,,,67,110
84480,note_on,2,0,4,,,,,,,,3,,,65,110
84480,note_on,2,0,7,,,,,,,,6,,,74,110
84480,note_on,2,0,1,,,,,,,,0,,,71,110
84622,note_on,142,0,4,,,,,,,,3,,,65,0
84622,note_on,142,0,1,,,,,,,,0,,,71,0
84624,note_on,560,0,8,,,,,,,,7,,,67,110
84624,note_on,560,0,3,,,,,,,,2,,,71,110
84624,note_on,146,0,5,,,,,,,,4,,,74,110
84624,note_on,2,0,1,,,,,,,,0,,,71,110
84624,note_on,0,0,1,,,,,,,,0,,,74,110
84624,note_on,2,0,4,,,,,,,,3,,,62,110
84670,note_on,0,0,1,,,,,,,,0,,,71,0
84670,note_on,46,0,8,,,,,,,,7,,,67,0
84670,note_on,46,0,4,,,,,,,,3,,,62,0
84670,note_on,46,0,5,,,,,,,,4,,,74,0
84670,note_on,46,0,1,,,,,,,,0,,,74,0
84670,note_on,46,0,3,,,,,,,,2,,,71,0
84672,note_on,2,0,4,,,,,,,,3,,,62,110
84672,note_on,2,0,3,,,,,,,,2,,,71,110
84672,note_on,0,0,1,,,,,,,,0,,,79,110
84672,note_on,2,0,8,,,,,,,,7,,,65,110
84672,note_on,2,0,1,,,,,,,,0,,,71,110
84672,note_on,2,0,5,,,,,,,,4,,,74,110
84814,note_on,142,0,1,,,,,,,,0,,,79,0
84814,note_on,142,0,4,,,,,,,,3,,,62,0
84814,note_on,142,0,3,,,,,,,,2,,,71,0
84814,note_on,142,0,5,,,,,,,,4,,,74,0
84814,note_on,0,0,1,,,,,,,,0,,,71,0
84814,note_on,142,0,8,,,,,,,,7,,,65,0
84816,note_on,2,0,3,,,,,,,,2,,,72,110
84816,note_on,2,0,8,,,,,,,,7,,,64,110
84816,note_on,2,0,5,,,,,,,,4,,,76,110
84816,note_on,0,0,1,,,,,,,,0,,,81,110
84816,note_on,2,0,4,,,,,,,,3,,,60,110
84816,note_on,2,0,1,,,,,,,,0,,,69,110
84862,note_on,0,0,1,,,,,,,,0,,,69,0
84862,note_on,46,0,1,,,,,,,,0,,,81,0
84862,note_on,46,0,8,,,,,,,,7,,,64,0
84862,note_on,46,0,5,,,,,,,,4,,,76,0
84862,note_on,46,0,4,,,,,,,,3,,,60,0
84862,note_on,46,0,3,,,,,,,,2,,,72,0
84864,note_on,2,0,3,,,,,,,,2,,,74,110
84864,note_on,2,0,1,,,,,,,,0,,,67,110
84864,note_on,0,0,1,,,,,,,,0,,,83,110
84864,note_on,2,0,8,,,,,,,,7,,,62,110
84864,note_on,2,0,4,,,,,,,,3,,,59,110
84864,note_on,2,0,5,,,,,,,,4,,,77,110
85006,note_on,142,0,8,,,,,,,,7,,,62,0
85006,note_on,142,0,4,,,,,,,,3,,,59,0
85006,note_on,142,0,3,,,,,,,,2,,,74,0
85006,note_on,142,0,5,,,,,,,,4,,,77,0
85006,note_on,142,0,1,,,,,,,,0,,,83,0
85006,note_on,0,0,1,,,,,,,,0,,,67,0
85008,note_on,2,0,5,,,,,,,,4,,,81,110
85008,note_on,2,0,1,,,,,,,,0,,,60,110
85008,note_on,0,0,1,,,,,,,,0,,,84,110
85008,note_on,2,0,3,,,,,,,,2,,,76,110
85008,note_on,2,0,8,,,,,,,,7,,,60,110
85008,note_on,2,0,4,,,,,,,,3,,,57,110
85054,note_on,0,0,1,,,,,,,,0,,,60,0
85054,note_on,46,0,3,,,,,,,,2,,,76,0
85054,note_on,46,0,5,,,,,,,,4,,,81,0
85054,note_on,46,0,4,,,,,,,,3,,,57,0
85054,note_on,46,0,1,,,,,,,,0,,,84,0
85054,note_on,46,0,8,,,,,,,,7,,,60,0
85056,note_on,2,0,8,,,,,,,,7,,,59,110
85056,note_on,2,0,3,,,,,,,,2,,,77,110
85056,note_on,2,0,4,,,,,,,,3,,,55,110
85056,note_on,0,0,1,,,,,,,,0,,,86,110
85056,note_on,2,0,1,,,,,,,,0,,,67,110
85056,note_on,2,0,5,,,,,,,,4,,,71,110
85198,note_on,142,0,4,,,,,,,,3,,,55,0
85198,note_on,142,0,8,,,,,,,,7,,,59,0
85198,note_on,142,0,3,,,,,,,,2,,,77,0
85198,note_on,718,0,6,,,,,,,,5,,,67,0
85198,note_on,142,0,1,,,,,,,,0,,,86,0
85198,note_on,718,0,7,,,,,,,,6,,,74,0
85198,note_on,0,0,1,,,,,,,,0,,,67,0
85198,note_on,142,0,5,,,,,,,,4,,,71,0
85200,note_on,0,0,4,,,,,,,,3,,,55,110
85200,note_on,1136,0,2,,,,,,,,1,,,55,110
85200,note_on,0,0,2,,,,,,,,1,,,62,110
85200,note_on,1136,0,10,,,,,,,,10,,,71,60
85200,note_on,0,0,2,,,,,,,,1,,,59,110
85200,note_on,2,0,4,,,,,,,,3,,,43,110
85200,note_on,0,0,1,,,,,,,,0,,,77,110
85200,note_on,0,0,1,,,,,,,,0,,,74,110
85200,note_on,0,0,1,,,,,,,,0,,,71,110
85200,note_on,2,0,1,,,,,,,,0,,,67,110
85200,note_on,0,0,3,,,,,,,,2,,,74,110
85200,note_on,0,0,3,,,,,,,,2,,,71,110
85200,note_on,2,0,3,,,,,,,,2,,,67,110
85200,note_on,1136,0,12,,,,,,,,12,,,43,60
85200,note_on,1136,0,9,,,,,,,,8,,,77,60
85200,note_on,2,0,6,,,,,,,,5,,,55,110
85200,note_on,0,0,5,,,,,,,,4,,,71,110
85200,note_on,1136,0,11,,,,,,,,11,,,62,60
85200,note_on,0,0,5,,,,,,,,4,,,67,110
85200,note_on,2,0,8,,,,,,,,7,,,43,110
85200,note_on,0,0,6,,,,,,,,5,,,59,110
85200,note_on,0,0,5,,,,,,,,4,,,65,110
85200,note_on,2,0,5,,,,,,,,4,,,62,110
85200,note_on,0,0,8,,,,,,,,7,,,47,110
85200,note_on,0,0,7,,,,,,,,6,,,67,110
85200,note_on,0,0,8,,,,,,,,7,,,50,110
85200,note_on,0,0,8,,,,,,,,7,,,55,110
85200,note_on,0,0,7,,,,,,,,6,,,62,110
85200,note_on,2,0,7,,,,,,,,6,,,59,110
85200,note_on,0,0,4,,,,,,,,3,,,50,110
85200,note_on,0,0,4,,,,,,,,3,,,47,110
85246,note_on,46,0,6,,,,,,,,5,,,59,0
85246,note_on,0,0,6,,,,,,,,5,,,55,0
85246,note_on,0,0,1,,,,,,,,0,,,71,0
85246,note_on,46,0,1,,,,,,,,0,,,77,0
85246,note_on,0,0,1,,,,,,,,0,,,67,0
85246,note_on,0,0,1,,,,,,,,0,,,74,0
85246,note_on,46,0,9,,,,,,,,8,,,77,0
85246,note_on,0,0,8,,,,,,,,7,,,50,0
85246,note_on,0,0,8,,,,,,,,7,,,47,0
85246,note_on,0,0,8,,,,,,,,7,,,43,0
85246,note_on,46,0,8,,,,,,,,7,,,55,0
85246,note_on,46,0,11,,,,,,,,11,,,62,0
85246,note_on,46,0,12,,,,,,,,12,,,43,0
85246,note_on,0,0,3,,,,,,,,2,,,71,0
85246,note_on,46,0,5,,,,,,,,4,,,71,0
85246,note_on,0,0,5,,,,,,,,4,,,62,0
85246,note_on,0,0,5,,,,,,,,4,,,65,0
85246,note_on,0,0,7,,,,,,,,6,,,59,0
85246,note_on,0,0,7,,,,,,,,6,,,62,0
85246,note_on,46,0,7,,,,,,,,6,,,67,0
85246,note_on,0,0,5,,,,,,,,4,,,67,0
85246,note_on,46,0,10,,,,,,,,10,,,71,0
85246,note_on,0,0,4,,,,,,,,3,,,50,0
85246,note_on,0,0,4,,,,,,,,3,,,47,0
85246,note_on,46,0,3,,,,,,,,2,,,74,0
85246,note_on,46,0,4,,,,,,,,3,,,55,0
85246,note_on,0,0,3,,,,,,,,2,,,67,0
85246,note_on,0,0,2,,,,,,,,1,,,55,0
85246,note_on,0,0,4,,,,,,,,3,,,43,0
85246,note_on,46,0,2,,,,,,,,1,,,62,0
85246,note_on,0,0,2,,,,,,,,1,,,59,0
85248,note_on,2,0,12,,,,,,,,12,,,43,60
85248,note_on,0,0,4,,,,,,,,3,,,55,110
85248,note_on,0,0,4,,,,,,,,3,,,50,110
85248,note_on,0,0,7,,,,,,,,6,,,67,110
85248,note_on,2,0,2,,,,,,,,1,,,55,110
85248,note_on,2,0,7,,,,,,,,6,,,59,110
85248,note_on,2,0,6,,,,,,,,5,,,55,110
85248,note_on,0,0,6,,,,,,,,5,,,59,110
85248,note_on,2,0,4,,,,,,,,3,,,43,110
85248,note_on,0,0,7,,,,,,,,6,,,62,110
85248,note_on,2,0,10,,,,,,,,10,,,71,60
85248,note_on,0,0,4,,,,,,,,3,,,47,110
85248,note_on,0,0,2,,,,,,,,1,,,59,110
85248,note_on,2,0,9,,,,,,,,8,,,77,60
85248,note_on,2,0,1,,,,,,,,0,,,67,110
85248,note_on,2,0,3,,,,,,,,2,,,67,110
85248,note_on,0,0,1,,,,,,,,0,,,71,110
85248,note_on,0,0,1,,,,,,,,0,,,74,110
85248,note_on,0,0,1,,,,,,,,0,,,77,110
85248,note_on,0,0,5,,,,,,,,4,,,71,110
85248,note_on,0,0,3,,,,,,,,2,,,71,110
85248,note_on,0,0,5,,,,,,,,4,,,67,110
85248,note_on,0,0,3,,,,,,,,2,,,74,110
85248,note_on,2,0,5,,,,,,,,4,,,62,110
85248,note_on,2,0,11,,,,,,,,11,,,62,60
85248,note_on,0,0,8,,,,,,,,7,,,55,110
85248,note_on,0,0,8,,,,,,,,7,,,50,110
85248,note_on,0,0,8,,,,,,,,7,,,47,110
85248,note_on,2,0,8,,,,,,,,7,,,43,110
85248,note_on,0,0,2,,,,,,,,1,,,62,110
85248,note_on,0,0,5,,,,,,,,4,,,65,110
85390,note_on,0,0,6,,,,,,,,5,,,55,0
85390,note_on,142,0,6,,,,,,,,5,,,59,0
85390,note_on,0,0,7,,,,,,,,6,,,59,0
85390,note_on,0,0,5,,,,,,,,4,,,62,0
85390,note_on,0,0,5,,,,,,,,4,,,65,0
85390,note_on,142,0,12,,,,,,,,12,,,43,0
85390,note_on,142,0,7,,,,,,,,6,,,67,0
85390,note_on,142,0,5,,,,,,,,4,,,71,0
85390,note_on,0,0,5,,,,,,,,4,,,67,0
85390,note_on,0,0,7,,,,,,,,6,,,62,0
85390,note_on,0,0,8,,,,,,,,7,,,47,0
85390,note_on,142,0,11,,,,,,,,11,,,62,0
85390,note_on,142,0,1,,,,,,,,0,,,77,0
85390,note_on,0,0,1,,,,,,,,0,,,67,0
85390,note_on,0,0,1,,,,,,,,0,,,71,0
85390,note_on,0,0,1,,,,,,,,0,,,74,0
85390,note_on,142,0,3,,,,,,,,2,,,74,0
85390,note_on,142,0,4,,,,,,,,3,,,55,0
85390,note_on,0,0,4,,,,,,,,3,,,43,0
85390,note_on,0,0,3,,,,,,,,2,,,71,0
85390,note_on,0,0,4,,,,,,,,3,,,47,0
85390,note_on,142,0,9,,,,,,,,8,,,77,0
85390,note_on,142,0,8,,,,,,,,7,,,55,0
85390,note_on,0,0,8,,,,,,,,7,,,43,0
85390,note_on,0,0,8,,,,,,,,7,,,50,0
85390,note_on,0,0,2,,,,,,,,1,,,55,0
85390,note_on,0,0,2,,,,,,,,1,,,59,0
85390,note_on,142,0,2,,,,,,,,1,,,62,0
85390,note_on,0,0,4,,,,,,,,3,,,50,0
85390,note_on,0,0,3,,,,,,,,2,,,67,0
85390,note_on,142,0,10,,,,,,,,10,,,71,0
85392,note_on,0,0,5,,,,,,,,4,,,67,110
85392,note_on,2,0,12,,,,,,,,12,,,43,60
85392,note_on,0,0,8,,,,,,,,7,,,47,110
85392,note_on,2,0,8,,,,,,,,7,,,43,110
85392,note_on,2,0,7,,,,,,,,6,,,59,110
85392,note_on,0,0,7,,,,,,,,6,,,62,110
85392,note_on,0,0,7,,,,,,,,6,,,67,110
85392,note_on,2,0,4,,,,,,,,3,,,43,110
85392,note_on,0,0,6,,,,,,,,5,,,59,110
85392,note_on,0,0,4,,,,,,,,3,,,47,110
85392,note_on,2,0,11,,,,,,,,11,,,62,60
85392,note_on,2,0,10,,,,,,,,10,,,71,60
85392,note_on,2,0,1,,,,,,,,0,,,67,110
85392,note_on,0,0,1,,,,,,,,0,,,77,110
85392,note_on,0,0,1,,,,,,,,0,,,74,110
85392,note_on,0,0,1,,,,,,,,0,,,71,110
85392,note_on,2,0,9,,,,,,,,8,,,77,60
85392,note_on,0,0,4,,,,,,,,3,,,50,110
85392,note_on,2,0,6,,,,,,,,5,,,55,110
85392,note_on,0,0,8,,,,,,,,7,,,50,110
85392,note_on,0,0,4,,,,,,,,3,,,55,110
85392,note_on,0,0,2,,,,,,,,1,,,62,110
85392,note_on,0,0,2,,,,,,,,1,,,59,110
85392,note_on,2,0,2,,,,,,,,1,,,55,110
85392,note_on,2,0,5,,,,,,,,4,,,62,110
85392,note_on,0,0,3,,,,,,,,2,,,74,110
85392,note_on,0,0,3,,,,,,,,2,,,71,110
85392,note_on,0,0,5,,,,,,,,4,,,65,110
85392,note_on,2,0,3,,,,,,,,2,,,67,110
85392,note_on,0,0,8,,,,,,,,7,,,55,110
85392,note_on,0,0,5,,,,,,,,4,,,71,110
85438,note_on,0,0,1,,,,,,,,0,,,74,0
85438,note_on,0,0,4,,,,,,,,3,,,50,0
85438,note_on,46,0,9,,,,,,,,8,,,77,0
85438,note_on,0,0,4,,,,,,,,3,,,47,0
85438,note_on,46,0,1,,,,,,,,0,,,77,0
85438,note_on,0,0,1,,,,,,,,0,,,67,0
85438,note_on,0,0,1,,,,,,,,0,,,71,0
85438,note_on,46,0,10,,,,,,,,10,,,71,0
85438,note_on,46,0,2,,,,,,,,1,,,62,0
85438,note_on,0,0,5,,,,,,,,4,,,62,0
85438,note_on,0,0,2,,,,,,,,1,,,55,0
85438,note_on,0,0,8,,,,,,,,7,,,50,0
85438,note_on,46,0,5,,,,,,,,4,,,71,0
85438,note_on,0,0,8,,,,,,,,7,,,43,0
85438,note_on,46,0,11,,,,,,,,11,,,62,0
85438,note_on,0,0,7,,,,,,,,6,,,62,0
85438,note_on,46,0,7,,,,,,,,6,,,67,0
85438,note_on,46,0,8,,,,,,,,7,,,55,0
85438,note_on,0,0,4,,,,,,,,3,,,43,0
85438,note_on,0,0,5,,,,,,,,4,,,67,0
85438,note_on,0,0,5,,,,,,,,4,,,65,0
85438,note_on,0,0,2,,,,,,,,1,,,59,0
85438,note_on,0,0,8,,,,,,,,7,,,47,0
85438,note_on,0,0,7,,,,,,,,6,,,59,0
85438,note_on,0,0,6,,,,,,,,5,,,55,0
85438,note_on,0,0,3,,,,,,,,2,,,67,0
85438,note_on,46,0,12,,,,,,,,12,,,43,0
85438,note_on,46,0,4,,,,,,,,3,,,55,0
85438,note_on,0,0,3,,,,,,,,2,,,71,0
85438,note_on,46,0,3,,,,,,,,2,,,74,0
85438,note_on,46,0,6,,,,,,,,5,,,59,0
85440,note_on,2,0,12,,,,,,,,12,,,43,60
85440,note_on,2,0,3,,,,,,,,2,,,67,110
85440,note_on,0,0,3,,,,,,,,2,,,71,110
85440,note_on,2,0,9,,,,,,,,8,,,77,60
85440,note_on,2,0,6,,,,,,,,5,,,55,110
85440,note_on,2,0,7,,,,,,,,6,,,59,110
85440,note_on,0,0,3,,,,,,,,2,,,74,110
85440,note_on,2,0,2,,,,,,,,1,,,55,110
85440,note_on,0,0,2,,,,,,,,1,,,59,110
85440,note_on,2,0,4,,,,,,,,3,,,43,110
85440,note_on,0,0,4,,,,,,,,3,,,47,110
85440,note_on,0,0,2,,,,,,,,1,,,62,110
85440,note_on,0,0,6,,,,,,,,5,,,59,110
85440,note_on,2,0,8,,,,,,,,7,,,43,110
85440,note_on,0,0,8,,,,,,,,7,,,47,110
85440,note_on,0,0,4,,,,,,,,3,,,50,110
85440,note_on,0,0,4,,,,,,,,3,,,55,110
85440,note_on,0,0,8,,,,,,,,7,,,55,110
85440,note_on,0,0,8,,,,,,,,7,,,50,110
85440,note_on,0,0,7,,,,,,,,6,,,62,110
85440,note_on,0,0,7,,,,,,,,6,,,67,110
85440,note_on,0,0,5,,,,,,,,4,,,71,110
85440,note_on,0,0,5,,,,,,,,4,,,67,110
85440,note_on,2,0,10,,,,,,,,10,,,71,60
85440,note_on,0,0,5,,,,,,,,4,,,65,110
85440,note_on,2,0,1,,,,,,,,0,,,67,110
85440,note_on,2,0,5,,,,,,,,4,,,62,110
85440,note_on,0,0,1,,,,,,,,0,,,74,110
85440,note_on,0,0,1,,,,,,,,0,,,77,110
85440,note_on,0,0,1,,,,,,,,0,,,71,110
85440,note_on,2,0,11,,,,,,,,11,,,62,60
85582,note_on,142,0,4,,,,,,,,3,,,55,0
85582,note_on,142,0,12,,,,,,,,12,,,43,0
85582,note_on,0,0,4,,,,,,,,3,,,50,0
85582,note_on,142,0,5,,,,,,,,4,,,71,0
85582,note_on,0,0,5,,,,,,,,4,,,62,0
85582,note_on,0,0,4,,,,,,,,3,,,47,0
85582,note_on,0,0,4,,,,,,,,3,,,43,0
85582,note_on,142,0,2,,,,,,,,1,,,62,0
85582,note_on,0,0,8,,,,,,,,7,,,50,0
85582,note_on,0,0,6,,,,,,,,5,,,55,0
85582,note_on,142,0,7,,,,,,,,6,,,67,0
85582,note_on,0,0,7,,,,,,,,6,,,62,0
85582,note_on,0,0,7,,,,,,,,6,,,59,0
85582,note_on,142,0,10,,,,,,,,10,,,71,0
85582,note_on,0,0,8,,,,,,,,7,,,47,0
85582,note_on,0,0,8,,,,,,,,7,,,43,0
85582,note_on,142,0,1,,,,,,,,0,,,77,0
85582,note_on,0,0,1,,,,,,,,0,,,67,0
85582,note_on,0,0,1,,,,,,,,0,,,71,0
85582,note_on,0,0,1,,,,,,,,0,,,74,0
85582,note_on,142,0,8,,,,,,,,7,,,55,0
85582,note_on,142,0,11,,,,,,,,11,,,62,0
85582,note_on,0,0,5,,,,,,,,4,,,67,0
85582,note_on,142,0,9,,,,,,,,8,,,77,0
85582,note_on,142,0,6,,,,,,,,5,,,59,0
85582,note_on,0,0,3,,,,,,,,2,,,67,0
85582,note_on,0,0,3,,,,,,,,2,,,71,0
85582,note_on,0,0,2,,,,,,,,1,,,55,0
85582,note_on,142,0,3,,,,,,,,2,,,74,0
85582,note_on,0,0,2,,,,,,,,1,,,59,0
85582,note_on,0,0,5,,,,,,,,4,,,65,0
85584,note_on,0,0,2,,,,,,,,1,,,59,110
85584,note_on,0,0,2,,,,,,,,1,,,62,110
85584,note_on,0,0,3,,,,,,,,2,,,74,110
85584,note_on,0,0,8,,,,,,,,7,,,47,110
85584,note_on,0,0,8,,,,,,,,7,,,50,110
85584,note_on,0,0,8,,,,,,,,7,,,55,110
85584,note_on,2,0,4,,,,,,,,3,,,43,110
85584,note_on,2,0,3,,,,,,,,2,,,67,110
85584,note_on,0,0,3,,,,,,,,2,,,71,110
85584,note_on,2,0,8,,,,,,,,7,,,43,110
85584,note_on,2,0,10,,,,,,,,10,,,71,60
85584,note_on,2,0,2,,,,,,,,1,,,55,110
85584,note_on,0,0,5,,,,,,,,4,,,71,110
85584,note_on,0,0,5,,,,,,,,4,,,65,110
85584,note_on,0,0,6,,,,,,,,5,,,59,110
85584,note_on,2,0,5,,,,,,,,4,,,62,110
85584,note_on,2,0,11,,,,,,,,11,,,62,60
85584,note_on,2,0,12,,,,,,,,12,,,43,60
85584,note_on,2,0,6,,,,,,,,5,,,55,110
85584,note_on,2,0,9,,,,,,,,8,,,77,60
85584,note_on,0,0,4,,,,,,,,3,,,55,110
85584,note_on,0,0,4,,,,,,,,3,,,50,110
85584,note_on,0,0,1,,,,,,,,0,,,77,110
85584,note_on,0,0,1,,,,,,,,0,,,74,110
85584,note_on,0,0,4,,,,,,,,3,,,47,110
85584,note_on,2,0,1,,,,,,,,0,,,67,110
85584,note_on,0,0,5,,,,,,,,4,,,67,110
85584,note_on,2,0,7,,,,,,,,6,,,59,110
85584,note_on,0,0,7,,,,,,,,6,,,62,110
85584,note_on,0,0,7,,,,,,,,6,,,67,110
85584,note_on,0,0,1,,,,,,,,0,,,71,110
85630,note_on,0,0,2,,,,,,,,1,,,55,0
85630,note_on,0,0,2,,,,,,,,1,,,59,0
85630,note_on,46,0,2,,,,,,,,1,,,62,0
85630,note_on,46,0,11,,,,,,,,11,,,62,0
85630,note_on,46,0,7,,,,,,,,6,,,67,0
85630,note_on,46,0,9,,,,,,,,8,,,77,0
85630,note_on,0,0,1,,,,,,,,0,,,74,0
85630,note_on,0,0,1,,,,,,,,0,,,71,0
85630,note_on,0,0,7,,,,,,,,6,,,62,0
85630,note_on,0,0,7,,,,,,,,6,,,59,0
85630,note_on,46,0,6,,,,,,,,5,,,59,0
85630,note_on,0,0,6,,,,,,,,5,,,55,0
85630,note_on,0,0,1,,,,,,,,0,,,67,0
85630,note_on,46,0,1,,,,,,,,0,,,77,0
85630,note_on,46,0,10,,,,,,,,10,,,71,0
85630,note_on,0,0,3,,,,,,,,2,,,71,0
85630,note_on,46,0,3,,,,,,,,2,,,74,0
85630,note_on,46,0,8,,,,,,,,7,,,55,0
85630,note_on,46,0,5,,,,,,,,4,,,71,0
85630,note_on,0,0,5,,,,,,,,4,,,62,0
85630,note_on,0,0,5,,,,,,,,4,,,65,0
85630,note_on,0,0,5,,,,,,,,4,,,67,0
85630,note_on,0,0,3,,,,,,,,2,,,67,0
85630,note_on,46,0,4,,,,,,,,3,,,55,0
85630,note_on,0,0,4,,,,,,,,3,,,47,0
85630,note_on,0,0,4,,,,,,,,3,,,50,0
85630,note_on,0,0,4,,,,,,,,3,,,43,0
85630,note_on,0,0,8,,,,,,,,7,,,43,0
85630,note_on,0,0,8,,,,,,,,7,,,47,0
85630,note_on,0,0,8,,,,,,,,7,,,50,0
85630,note_on,46,0,12,,,,,,,,12,,,43,0
85632,note_on,0,0,7,,,,,,,,6,,,67,110
85632,note_on,2,0,2,,,,,,,,1,,,48,110
85632,note_on,2,0,5,,,,,,,,4,,,55,110
85632,note_on,2,0,10,,,,,,,,10,,,67,60
85632,note_on,0,0,5,,,,,,,,4,,,60,110
85632,note_on,0,0,5,,,,,,,,4,,,64,110
85632,note_on,0,0,5,,,,,,,,4,,,67,110
85632,note_on,0,0,3,,,,,,,,2,,,72,110
85632,note_on,0,0,3,,,,,,,,2,,,67,110
85632,note_on,2,0,3,,,,,,,,2,,,55,110
85632,note_on,2,0,8,,,,,,,,7,,,48,110
85632,note_on,0,0,5,,,,,,,,4,,,72,110
85632,note_on,0,0,3,,,,,,,,2,,,76,110
85632,note_on,2,0,6,,,,,,,,5,,,48,110
85632,note_on,0,0,8,,,,,,,,7,,,55,110
85632,note_on,2,0,12,,,,,,,,12,,,48,60
85632,note_on,2,0,1,,,,,,,,0,,,67,110
85632,note_on,0,0,1,,,,,,,,0,,,72,110
85632,note_on,0,0,1,,,,,,,,0,,,76,110
85632,note_on,2,0,11,,,,,,,,11,,,60,60
85632,note_on,2,0,9,,,,,,,,8,,,76,60
85632,note_on,2,0,7,,,,,,,,6,,,60,110
85632,note_on,2,0,4,,,,,,,,3,,,48,110
85632,note_on,0,0,7,,,,,,,,6,,,64,110
85632,note_on,0,0,2,,,,,,,,1,,,60,110
85774,note_on,142,0,5,,,,,,,,4,,,72,0
85774,note_on,142,0,1,,,,,,,,0,,,76,0
85776,note_on,2,0,1,,,,,,,,0,,,72,110
85776,note_on,2,0,5,,,,,,,,4,,,64,110
85792,note_on,0,0,3,,,,,,,,2,,,67,0
85792,note_on,0,0,7,,,,,,,,6,,,64,0
85792,note_on,0,0,7,,,,,,,,6,,,60,0
85792,note_on,0,0,5,,,,,,,,4,,,60,0
85792,note_on,0,0,5,,,,,,,,4,,,55,0
85792,note_on,0,0,5,,,,,,,,4,,,67,0
85792,note_on,160,0,11,,,,,,,,11,,,60,0
85792,note_on,160,0,10,,,,,,,,10,,,67,0
85792,note_on,160,0,7,,,,,,,,6,,,67,0
85792,note_on,16,0,5,,,,,,,,4,,,64,0
85792,note_on,160,0,9,,,,,,,,8,,,76,0
85792,note_on,160,0,8,,,,,,,,7,,,55,0
85792,note_on,0,0,3,,,,,,,,2,,,55,0
85792,note_on,0,0,3,,,,,,,,2,,,72,0
85792,note_on,160,0,3,,,,,,,,2,,,76,0
85792,note_on,16,0,1,,,,,,,,0,,,72,0
85792,note_on,0,0,1,,,,,,,,0,,,67,0
85822,note_on,30,0,1,,,,,,,,0,,,72,0
85822,note_on,30,0,5,,,,,,,,4,,,64,0
85824,note_on,2,0,5,,,,,,,,4,,,64,110
85824,note_on,2,0,1,,,,,,,,0,,,72,110
85966,note_on,142,0,1,,,,,,,,0,,,72,0
85966,note_on,142,0,5,,,,,,,,4,,,64,0
85968,note_on,2,0,5,,,,,,,,4,,,67,110
85968,note_on,2,0,1,,,,,,,,0,,,76,110
86014,note_on,46,0,1,,,,,,,,0,,,76,0
86014,note_on,46,0,5,,,,,,,,4,,,67,0
86016,note_on,2,0,5,,,,,,,,4,,,67,110
86016,note_on,2,0,1,,,,,,,,0,,,76,110
86158,note_on,142,0,5,,,,,,,,4,,,67,0
86158,note_on,142,0,1,,,,,,,,0,,,76,0
86160,note_on,2,0,5,,,,,,,,4,,,72,110
86160,note_on,2,0,1,,,,,,,,0,,,81,110
86206,note_on,46,0,5,,,,,,,,4,,,72,0
86206,note_on,46,0,1,,,,,,,,0,,,81,0
86208,note_on,2,0,1,,,,,,,,0,,,81,110
86208,note_on,416,0,10,,,,,,,,10,,,76,60
86208,note_on,2,0,5,,,,,,,,4,,,72,110
86208,note_on,416,0,11,,,,,,,,11,,,57,60
86208,note_on,416,0,9,,,,,,,,8,,,81,60
86350,note_on,142,0,5,,,,,,,,4,,,72,0
86350,note_on,142,0,1,,,,,,,,0,,,81,0
86352,note_on,560,0,3,,,,,,,,2,,,84,110
86352,note_on,2,0,1,,,,,,,,0,,,76,110
86352,note_on,560,0,7,,,,,,,,6,,,76,110
86352,note_on,2,0,5,,,,,,,,4,,,69,110
86368,note_on,160,0,9,,,,,,,,8,,,81,0
86368,note_on,160,0,10,,,,,,,,10,,,76,0
86368,note_on,160,0,11,,,,,,,,11,,,57,0
86398,note_on,46,0,1,,,,,,,,0,,,76,0
86398,note_on,46,0,3,,,,,,,,2,,,84,0
86398,note_on,46,0,7,,,,,,,,6,,,76,0
86398,note_on,46,0,5,,,,,,,,4,,,69,0
86400,note_on,2,0,3,,,,,,,,2,,,84,110
86400,note_on,2,0,1,,,,,,,,0,,,76,110
86400,note_on,2,0,5,,,,,,,,4,,,69,110
86400,note_on,2,0,7,,,,,,,,6,,,76,110
86542,note_on,142,0,1,,,,,,,,0,,,76,0
86542,note_on,142,0,5,,,,,,,,4,,,69,0
86542,note_on,142,0,7,,,,,,,,6,,,76,0
86542,note_on,142,0,3,,,,,,,,2,,,84,0
86544,note_on,2,0,1,,,,,,,,0,,,81,110
86544,note_on,2,0,5,,,,,,,,4,,,72,110
86544,note_on,2,0,3,,,,,,,,2,,,81,110
86544,note_on,2,0,7,,,,,,,,6,,,72,110
86590,note_on,46,0,3,,,,,,,,2,,,81,0
86590,note_on,46,0,1,,,,,,,,0,,,81,0
86590,note_on,46,0,5,,,,,,,,4,,,72,0
86590,note_on,46,0,7,,,,,,,,6,,,72,0
86592,note_on,2,0,1,,,,,,,,0,,,81,110
86592,note_on,2,0,3,,,,,,,,2,,,81,110
86592,note_on,2,0,5,,,,,,,,4,,,72,110
86592,note_on,2,0,7,,,,,,,,6,,,72,110
86734,note_on,142,0,5,,,,,,,,4,,,72,0
86734,note_on,142,0,1,,,,,,,,0,,,81,0
86734,note_on,142,0,3,,,,,,,,2,,,81,0
86734,note_on,142,0,7,,,,,,,,6,,,72,0
86736,note_on,2,0,5,,,,,,,,4,,,76,110
86736,note_on,2,0,3,,,,,,,,2,,,78,110
86736,note_on,1104,0,12,,,,,,,,12,,,48,0
86736,note_on,1104,0,6,,,,,,,,5,,,48,0
86736,note_on,1104,0,2,,,,,,,,1,,,60,0
86736,note_on,0,0,2,,,,,,,,1,,,48,0
86736,note_on,944,0,8,,,,,,,,7,,,48,0
86736,note_on,2,0,1,,,,,,,,0,,,84,110
86736,note_on,2,0,7,,,,,,,,6,,,69,110
86736,note_on,1104,0,4,,,,,,,,3,,,48,0
86782,note_on,46,0,3,,,,,,,,2,,,78,0
86782,note_on,46,0,5,,,,,,,,4,,,76,0
86782,note_on,46,0,7,,,,,,,,6,,,69,0
86782,note_on,46,0,1,,,,,,,,0,,,84,0
86784,note_on,416,0,10,,,,,,,,10,,,75,60
86784,note_on,416,0,11,,,,,,,,11,,,59,60
86784,note_on,2,0,3,,,,,,,,2,,,78,110
86784,note_on,48,0,4,,,,,,,,3,,,47,110
86784,note_on,48,0,2,,,,,,,,1,,,47,110
86784,note_on,2,0,7,,,,,,,,6,,,69,110
86784,note_on,48,0,12,,,,,,,,12,,,47,60
86784,note_on,416,0,9,,,,,,,,8,,,78,60
86784,note_on,2,0,5,,,,,,,,4,,,75,110
86784,note_on,2,0,1,,,,,,,,0,,,78,110
86784,note_on,48,0,8,,,,,,,,7,,,47,110
86784,note_on,48,0,6,,,,,,,,5,,,47,110
86926,note_on,142,0,4,,,,,,,,3,,,47,0
86926,note_on,142,0,7,,,,,,,,6,,,69,0
86926,note_on,142,0,8,,,,,,,,7,,,47,0
86926,note_on,142,0,6,,,,,,,,5,,,47,0
86926,note_on,142,0,12,,,,,,,,12,,,47,0
86926,note_on,142,0,11,,,,,,,,11,,,59,0
86926,note_on,142,0,2,,,,,,,,1,,,47,0
86928,note_on,2,0,11,,,,,,,,11,,,66,60
86928,note_on,2,0,2,,,,,,,,1,,,47,110
86928,note_on,2,0,7,,,,,,,,6,,,75,110
86928,note_on,2,0,8,,,,,,,,7,,,47,110
86928,note_on,2,0,4,,,,,,,,3,,,59,110
86928,note_on,2,0,12,,,,,,,,12,,,47,60
86928,note_on,2,0,6,,,,,,,,5,,,66,110
86974,note_on,46,0,7,,,,,,,,6,,,75,0
86974,note_on,46,0,2,,,,,,,,1,,,47,0
86974,note_on,46,0,4,,,,,,,,3,,,59,0
86974,note_on,46,0,12,,,,,,,,12,,,47,0
86974,note_on,46,0,6,,,,,,,,5,,,66,0
86974,note_on,46,0,11,,,,,,,,11,,,66,0
86974,note_on,46,0,8,,,,,,,,7,,,47,0
86976,note_on,2,0,4,,,,,,,,3,,,59,110
86976,note_on,2,0,2,,,,,,,,1,,,45,110
86976,note_on,2,0,7,,,,,,,,6,,,75,110
86976,note_on,2,0,6,,,,,,,,5,,,66,110
86976,note_on,2,0,11,,,,,,,,11,,,66,60
86976,note_on,2,0,12,,,,,,,,12,,,45,60
86976,note_on,2,0,8,,,,,,,,7,,,45,110
87118,note_on,142,0,11,,,,,,,,11,,,66,0
87118,note_on,142,0,4,,,,,,,,3,,,59,0
87118,note_on,142,0,2,,,,,,,,1,,,45,0
87118,note_on,142,0,12,,,,,,,,12,,,45,0
87118,note_on,142,0,8,,,,,,,,7,,,45,0
87118,note_on,142,0,7,,,,,,,,6,,,75,0
87118,note_on,142,0,6,,,,,,,,5,,,66,0
87120,note_on,336,0,5,,,,,,,,4,,,75,0
87120,note_on,2,0,4,,,,,,,,3,,,59,110
87120,note_on,336,0,9,,,,,,,,8,,,78,0
87120,note_on,2,0,12,,,,,,,,12,,,45,60
87120,note_on,336,0,10,,,,,,,,10,,,75,0
87120,note_on,2,0,11,,,,,,,,11,,,71,60
87120,note_on,336,0,3,,,,,,,,2,,,78,0
87120,note_on,2,0,6,,,,,,,,5,,,66,110
87120,note_on,2,0,8,,,,,,,,7,,,45,110
87120,note_on,2,0,7,,,,,,,,6,,,75,110
87120,note_on,2,0,2,,,,,,,,1,,,45,110
87120,note_on,336,0,1,,,,,,,,0,,,78,0
87166,note_on,46,0,11,,,,,,,,11,,,71,0
87166,note_on,46,0,6,,,,,,,,5,,,66,0
87166,note_on,46,0,7,,,,,,,,6,,,75,0
87166,note_on,46,0,2,,,,,,,,1,,,45,0
87166,note_on,46,0,8,,,,,,,,7,,,45,0
87166,note_on,46,0,12,,,,,,,,12,,,45,0
87166,note_on,46,0,4,,,,,,,,3,,,59,0
87168,note_on,2,0,2,,,,,,,,1,,,43,110
87168,note_on,2,0,8,,,,,,,,7,,,43,110
87168,note_on,48,0,10,,,,,,,,10,,,76,60
87168,note_on,2,0,12,,,,,,,,12,,,43,60
87168,note_on,2,0,4,,,,,,,,3,,,59,110
87168,note_on,48,0,3,,,,,,,,2,,,79,110
87168,note_on,2,0,11,,,,,,,,11,,,71,60
87168,note_on,2,0,6,,,,,,,,5,,,64,110
87168,note_on,48,0,1,,,,,,,,0,,,79,110
87168,note_on,48,0,9,,,,,,,,8,,,79,60
87168,note_on,48,0,5,,,,,,,,4,,,76,110
87168,note_on,2,0,7,,,,,,,,6,,,76,110
87310,note_on,142,0,6,,,,,,,,5,,,64,0
87310,note_on,142,0,12,,,,,,,,12,,,43,0
87310,note_on,142,0,8,,,,,,,,7,,,43,0
87310,note_on,142,0,2,,,,,,,,1,,,43,0
87310,note_on,142,0,4,,,,,,,,3,,,59,0
87310,note_on,142,0,11,,,,,,,,11,,,71,0
87312,note_on,2,0,12,,,,,,,,12,,,43,60
87312,note_on,2,0,6,,,,,,,,5,,,55,110
87312,note_on,2,0,11,,,,,,,,11,,,59,60
87312,note_on,2,0,4,,,,,,,,3,,,59,110
87312,note_on,2,0,2,,,,,,,,1,,,43,110
87312,note_on,2,0,8,,,,,,,,7,,,43,110
87358,note_on,46,0,2,,,,,,,,1,,,43,0
87358,note_on,46,0,11,,,,,,,,11,,,59,0
87358,note_on,46,0,12,,,,,,,,12,,,43,0
87358,note_on,46,0,6,,,,,,,,5,,,55,0
87358,note_on,46,0,8,,,,,,,,7,,,43,0
87358,note_on,46,0,4,,,,,,,,3,,,59,0
87360,note_on,2,0,11,,,,,,,,11,,,60,60
87360,note_on,2,0,6,,,,,,,,5,,,55,110
87360,note_on,2,0,4,,,,,,,,3,,,60,110
87360,note_on,2,0,8,,,,,,,,7,,,45,110
87360,note_on,2,0,12,,,,,,,,12,,,45,60
87360,note_on,2,0,2,,,,,,,,1,,,45,110
87394,note_on,226,0,1,,,,,,,,0,,,79,0
87394,note_on,226,0,3,,,,,,,,2,,,79,0
87394,note_on,226,0,7,,,,,,,,6,,,76,0
87394,note_on,226,0,5,,,,,,,,4,,,76,0
87396,note_on,2,0,7,,,,,,,,6,,,78,110
87396,note_on,2,0,5,,,,,,,,4,,,78,110
87396,note_on,2,0,3,,,,,,,,2,,,81,110
87396,note_on,2,0,1,,,,,,,,0,,,81,110
87406,note_on,10,0,3,,,,,,,,2,,,81,0
87406,note_on,10,0,5,,,,,,,,4,,,78,0
87406,note_on,10,0,7,,,,,,,,6,,,78,0
87406,note_on,10,0,1,,,,,,,,0,,,81,0
87408,note_on,2,0,7,,,,,,,,6,,,76,110
87408,note_on,2,0,1,,,,,,,,0,,,79,110
87408,note_on,2,0,5,,,,,,,,4,,,76,110
87408,note_on,2,0,3,,,,,,,,2,,,79,110
87418,note_on,10,0,7,,,,,,,,6,,,76,0
87418,note_on,10,0,5,,,,,,,,4,,,76,0
87418,note_on,10,0,3,,,,,,,,2,,,79,0
87418,note_on,10,0,1,,,,,,,,0,,,79,0
87420,note_on,2,0,1,,,,,,,,0,,,78,110
87420,note_on,2,0,3,,,,,,,,2,,,78,110
87420,note_on,2,0,5,,,,,,,,4,,,75,110
87420,note_on,2,0,7,,,,,,,,6,,,75,110
87430,note_on,10,0,1,,,,,,,,0,,,78,0
87430,note_on,10,0,5,,,,,,,,4,,,75,0
87430,note_on,10,0,3,,,,,,,,2,,,78,0
87430,note_on,10,0,7,,,,,,,,6,,,75,0
87432,note_on,2,0,7,,,,,,,,6,,,76,110
87432,note_on,2,0,5,,,,,,,,4,,,76,110
87432,note_on,2,0,1,,,,,,,,0,,,79,110
87432,note_on,2,0,3,,,,,,,,2,,,79,110
87478,note_on,46,0,1,,,,,,,,0,,,79,0
87478,note_on,46,0,3,,,,,,,,2,,,79,0
87478,note_on,46,0,7,,,,,,,,6,,,76,0
87478,note_on,46,0,5,,,,,,,,4,,,76,0
87480,note_on,2,0,1,,,,,,,,0,,,81,110
87480,note_on,2,0,3,,,,,,,,2,,,81,110
87480,note_on,2,0,7,,,,,,,,6,,,78,110
87480,note_on,2,0,5,,,,,,,,4,,,78,110
87502,note_on,142,0,6,,,,,,,,5,,,55,0
87502,note_on,142,0,2,,,,,,,,1,,,45,0
87502,note_on,142,0,11,,,,,,,,11,,,60,0
87502,note_on,142,0,12,,,,,,,,12,,,45,0
87502,note_on,142,0,8,,,,,,,,7,,,45,0
87502,note_on,142,0,4,,,,,,,,3,,,60,0
87504,note_on,2,0,2,,,,,,,,1,,,45,110
87504,note_on,2,0,8,,,,,,,,7,,,45,110
87504,note_on,2,0,6,,,,,,,,5,,,60,110
87504,note_on,2,0,11,,,,,,,,11,,,72,60
87504,note_on,2,0,4,,,,,,,,3,,,57,110
87504,note_on,2,0,12,,,,,,,,12,,,45,60
87520,note_on,352,0,9,,,,,,,,8,,,79,0
87520,note_on,352,0,10,,,,,,,,10,,,76,0
87526,note_on,46,0,1,,,,,,,,0,,,81,0
87526,note_on,46,0,5,,,,,,,,4,,,78,0
87526,note_on,46,0,3,,,,,,,,2,,,81,0
87526,note_on,46,0,7,,,,,,,,6,,,78,0
87528,note_on,2,0,5,,,,,,,,4,,,79,110
87528,note_on,2,0,1,,,,,,,,0,,,76,110
87528,note_on,2,0,3,,,,,,,,2,,,76,110
87528,note_on,2,0,7,,,,,,,,6,,,79,110
87550,note_on,46,0,2,,,,,,,,1,,,45,0
87550,note_on,22,0,1,,,,,,,,0,,,76,0
87550,note_on,46,0,4,,,,,,,,3,,,57,0
87550,note_on,46,0,8,,,,,,,,7,,,45,0
87550,note_on,46,0,12,,,,,,,,12,,,45,0
87550,note_on,22,0,3,,,,,,,,2,,,76,0
87550,note_on,46,0,6,,,,,,,,5,,,60,0
87550,note_on,46,0,11,,,,,,,,11,,,72,0
87550,note_on,22,0,5,,,,,,,,4,,,79,0
87550,note_on,22,0,7,,,,,,,,6,,,79,0
87552,note_on,2,0,6,,,,,,,,5,,,59,110
87552,note_on,2,0,2,,,,,,,,1,,,47,110
87552,note_on,2,0,1,,,,,,,,0,,,75,110
87552,note_on,2,0,11,,,,,,,,11,,,66,60
87552,note_on,32,0,10,,,,,,,,10,,,75,60
87552,note_on,2,0,4,,,,,,,,3,,,54,110
87552,note_on,2,0,8,,,,,,,,7,,,47,110
87552,note_on,2,0,5,,,,,,,,4,,,78,110
87552,note_on,2,0,12,,,,,,,,12,,,47,60
87552,note_on,2,0,7,,,,,,,,6,,,78,110
87552,note_on,2,0,3,,,,,,,,2,,,75,110
87552,note_on,32,0,9,,,,,,,,8,,,78,60
87574,note_on,22,0,7,,,,,,,,6,,,78,0
87574,note_on,22,0,5,,,,,,,,4,,,78,0
87574,note_on,22,0,1,,,,,,,,0,,,75,0
87574,note_on,22,0,3,,,,,,,,2,,,75,0
87576,note_on,2,0,3,,,,,,,,2,,,76,110
87576,note_on,2,0,1,,,,,,,,0,,,76,110
87576,note_on,2,0,5,,,,,,,,4,,,79,110
87576,note_on,2,0,7,,,,,,,,6,,,79,110
87586,note_on,10,0,1,,,,,,,,0,,,76,0
87586,note_on,10,0,3,,,,,,,,2,,,76,0
87586,note_on,10,0,5,,,,,,,,4,,,79,0
87586,note_on,10,0,7,,,,,,,,6,,,79,0
87588,note_on,2,0,1,,,,,,,,0,,,75,110
87588,note_on,2,0,3,,,,,,,,2,,,75,110
87588,note_on,2,0,5,,,,,,,,4,,,78,110
87588,note_on,2,0,7,,,,,,,,6,,,78,110
87598,note_on,10,0,1,,,,,,,,0,,,75,0
87598,note_on,10,0,3,,,,,,,,2,,,75,0
87598,note_on,10,0,7,,,,,,,,6,,,78,0
87598,note_on,10,0,5,,,,,,,,4,,,78,0
87600,note_on,2,0,5,,,,,,,,4,,,79,110
87600,note_on,2,0,3,,,,,,,,2,,,76,110
87600,note_on,2,0,1,,,,,,,,0,,,76,110
87600,note_on,2,0,7,,,,,,,,6,,,79,110
87610,note_on,10,0,7,,,,,,,,6,,,79,0
87610,note_on,10,0,3,,,,,,,,2,,,76,0
87610,note_on,10,0,1,,,,,,,,0,,,76,0
87610,note_on,10,0,5,,,,,,,,4,,,79,0
87612,note_on,2,0,3,,,,,,,,2,,,75,110
87612,note_on,2,0,5,,,,,,,,4,,,78,110
87612,note_on,2,0,7,,,,,,,,6,,,78,110
87612,note_on,2,0,1,,,,,,,,0,,,75,110
87622,note_on,10,0,7,,,,,,,,6,,,78,0
87622,note_on,10,0,3,,,,,,,,2,,,75,0
87622,note_on,10,0,1,,,,,,,,0,,,75,0
87622,note_on,10,0,5,,,,,,,,4,,,78,0
87624,note_on,2,0,3,,,,,,,,2,,,76,110
87624,note_on,2,0,1,,,,,,,,0,,,76,110
87624,note_on,2,0,7,,,,,,,,6,,,79,110
87624,note_on,2,0,5,,,,,,,,4,,,79,110
87634,note_on,10,0,3,,,,,,,,2,,,76,0
87634,note_on,10,0,1,,,,,,,,0,,,76,0
87634,note_on,10,0,5,,,,,,,,4,,,79,0
87634,note_on,10,0,7,,,,,,,,6,,,79,0
87636,note_on,2,0,3,,,,,,,,2,,,75,110
87636,note_on,2,0,1,,,,,,,,0,,,75,110
87636,note_on,2,0,7,,,,,,,,6,,,78,110
87636,note_on,2,0,5,,,,,,,,4,,,78,110
87646,note_on,10,0,3,,,,,,,,2,,,75,0
87646,note_on,10,0,5,,,,,,,,4,,,78,0
87646,note_on,10,0,7,,,,,,,,6,,,78,0
87646,note_on,10,0,1,,,,,,,,0,,,75,0
87648,note_on,2,0,5,,,,,,,,4,,,79,110
87648,note_on,2,0,7,,,,,,,,6,,,79,110
87648,note_on,2,0,1,,,,,,,,0,,,76,110
87648,note_on,2,0,3,,,,,,,,2,,,76,110
87658,note_on,10,0,3,,,,,,,,2,,,76,0
87658,note_on,10,0,1,,,,,,,,0,,,76,0
87658,note_on,10,0,7,,,,,,,,6,,,79,0
87658,note_on,10,0,5,,,,,,,,4,,,79,0
87660,note_on,2,0,1,,,,,,,,0,,,75,110
87660,note_on,2,0,7,,,,,,,,6,,,78,110
87660,note_on,2,0,5,,,,,,,,4,,,78,110
87660,note_on,2,0,3,,,,,,,,2,,,75,110
87670,note_on,10,0,1,,,,,,,,0,,,75,0
87670,note_on,10,0,7,,,,,,,,6,,,78,0
87670,note_on,10,0,5,,,,,,,,4,,,78,0
87670,note_on,10,0,3,,,,,,,,2,,,75,0
87672,note_on,2,0,7,,,,,,,,6,,,79,110
87672,note_on,2,0,5,,,,,,,,4,,,79,110
87672,note_on,2,0,3,,,,,,,,2,,,76,110
87672,note_on,2,0,1,,,,,,,,0,,,76,110
87682,note_on,10,0,7,,,,,,,,6,,,79,0
87682,note_on,10,0,3,,,,,,,,2,,,76,0
87682,note_on,10,0,1,,,,,,,,0,,,76,0
87682,note_on,10,0,5,,,,,,,,4,,,79,0
87684,note_on,2,0,5,,,,,,,,4,,,78,110
87684,note_on,2,0,3,,,,,,,,2,,,75,110
87684,note_on,2,0,7,,,,,,,,6,,,78,110
87684,note_on,2,0,1,,,,,,,,0,,,75,110
87694,note_on,142,0,8,,,,,,,,7,,,47,0
87694,note_on,142,0,4,,,,,,,,3,,,54,0
87694,note_on,142,0,12,,,,,,,,12,,,47,0
87694,note_on,10,0,3,,,,,,,,2,,,75,0
87694,note_on,142,0,11,,,,,,,,11,,,66,0
87694,note_on,142,0,6,,,,,,,,5,,,59,0
87694,note_on,142,0,2,,,,,,,,1,,,47,0
87694,note_on,10,0,5,,,,,,,,4,,,78,0
87694,note_on,10,0,1,,,,,,,,0,,,75,0
87694,note_on,10,0,7,,,,,,,,6,,,78,0
87696,note_on,2,0,2,,,,,,,,1,,,47,110
87696,note_on,2,0,8,,,,,,,,7,,,47,110
87696,note_on,0,0,6,,,,,,,,5,,,57,110
87696,note_on,2,0,6,,,,,,,,5,,,47,110
87696,note_on,2,0,1,,,,,,,,0,,,76,110
87696,note_on,2,0,11,,,,,,,,11,,,54,60
87696,note_on,2,0,3,,,,,,,,2,,,76,110
87696,note_on,2,0,5,,,,,,,,4,,,79,110
87696,note_on,2,0,12,,,,,,,,12,,,47,60
87696,note_on,2,0,7,,,,,,,,6,,,79,110
87696,note_on,0,0,4,,,,,,,,3,,,54,110
87696,note_on,2,0,4,,,,,,,,3,,,47,110
87706,note_on,10,0,5,,,,,,,,4,,,79,0
87706,note_on,10,0,1,,,,,,,,0,,,76,0
87706,note_on,10,0,7,,,,,,,,6,,,79,0
87706,note_on,10,0,3,,,,,,,,2,,,76,0
87708,note_on,2,0,7,,,,,,,,6,,,78,110
87708,note_on,2,0,1,,,,,,,,0,,,75,110
87708,note_on,2,0,5,,,,,,,,4,,,78,110
87708,note_on,2,0,3,,,,,,,,2,,,75,110
87718,note_on,10,0,5,,,,,,,,4,,,78,0
87718,note_on,10,0,3,,,,,,,,2,,,75,0
87718,note_on,10,0,1,,,,,,,,0,,,75,0
87718,note_on,10,0,7,,,,,,,,6,,,78,0
87720,note_on,2,0,1,,,,,,,,0,,,76,110
87720,note_on,2,0,7,,,,,,,,6,,,79,110
87720,note_on,2,0,5,,,,,,,,4,,,79,110
87720,note_on,2,0,3,,,,,,,,2,,,76,110
87730,note_on,10,0,1,,,,,,,,0,,,76,0
87730,note_on,10,0,3,,,,,,,,2,,,76,0
87730,note_on,10,0,5,,,,,,,,4,,,79,0
87730,note_on,10,0,7,,,,,,,,6,,,79,0
87732,note_on,2,0,1,,,,,,,,0,,,75,110
87732,note_on,2,0,7,,,,,,,,6,,,78,110
87732,note_on,2,0,3,,,,,,,,2,,,75,110
87732,note_on,2,0,5,,,,,,,,4,,,78,110
87742,note_on,0,0,4,,,,,,,,3,,,47,0
87742,note_on,46,0,4,,,,,,,,3,,,54,0
87742,note_on,10,0,5,,,,,,,,4,,,78,0
87742,note_on,0,0,6,,,,,,,,5,,,47,0
87742,note_on,10,0,1,,,,,,,,0,,,75,0
87742,note_on,46,0,2,,,,,,,,1,,,47,0
87742,note_on,46,0,12,,,,,,,,12,,,47,0
87742,note_on,10,0,7,,,,,,,,6,,,78,0
87742,note_on,46,0,6,,,,,,,,5,,,57,0
87742,note_on,46,0,8,,,,,,,,7,,,47,0
87742,note_on,10,0,3,,,,,,,,2,,,75,0
87742,note_on,46,0,11,,,,,,,,11,,,54,0
87744,note_on,2,0,12,,,,,,,,12,,,47,60
87744,note_on,2,0,2,,,,,,,,1,,,47,110
87744,note_on,2,0,1,,,,,,,,0,,,76,110
87744,note_on,2,0,4,,,,,,,,3,,,47,110
87744,note_on,0,0,6,,,,,,,,5,,,57,110
87744,note_on,2,0,6,,,,,,,,5,,,47,110
87744,note_on,2,0,8,,,,,,,,7,,,47,110
87744,note_on,2,0,5,,,,,,,,4,,,79,110
87744,note_on,2,0,7,,,,,,,,6,,,79,110
87744,note_on,2,0,11,,,,,,,,11,,,54,60
87744,note_on,2,0,3,,,,,,,,2,,,76,110
87744,note_on,0,0,4,,,,,,,,3,,,54,110
87754,note_on,10,0,7,,,,,,,,6,,,79,0
87754,note_on,10,0,3,,,,,,,,2,,,76,0
87754,note_on,10,0,1,,,,,,,,0,,,76,0
87754,note_on,10,0,5,,,,,,,,4,,,79,0
87756,note_on,2,0,5,,,,,,,,4,,,78,110
87756,note_on,2,0,7,,,,,,,,6,,,78,110
87756,note_on,2,0,3,,,,,,,,2,,,75,110
87756,note_on,2,0,1,,,,,,,,0,,,75,110
87766,note_on,10,0,7,,,,,,,,6,,,78,0
87766,note_on,10,0,5,,,,,,,,4,,,78,0
87766,note_on,10,0,3,,,,,,,,2,,,75,0
87766,note_on,10,0,1,,,,,,,,0,,,75,0
87768,note_on,2,0,1,,,,,,,,0,,,76,110
87768,note_on,2,0,3,,,,,,,,2,,,76,110
87768,note_on,2,0,7,,,,,,,,6,,,79,110
87768,note_on,2,0,5,,,,,,,,4,,,79,110
87778,note_on,10,0,5,,,,,,,,4,,,79,0
87778,note_on,10,0,7,,,,,,,,6,,,79,0
87778,note_on,10,0,1,,,,,,,,0,,,76,0
87778,note_on,10,0,3,,,,,,,,2,,,76,0
87780,note_on,2,0,7,,,,,,,,6,,,78,110
87780,note_on,2,0,1,,,,,,,,0,,,75,110
87780,note_on,2,0,5,,,,,,,,4,,,78,110
87780,note_on,2,0,3,,,,,,,,2,,,75,110
87790,note_on,10,0,3,,,,,,,,2,,,75,0
87790,note_on,10,0,7,,,,,,,,6,,,78,0
87790,note_on,10,0,5,,,,,,,,4,,,78,0
87790,note_on,10,0,1,,,,,,,,0,,,75,0
87792,note_on,2,0,3,,,,,,,,2,,,76,110
87792,note_on,2,0,5,,,,,,,,4,,,79,110
87792,note_on,2,0,7,,,,,,,,6,,,79,110
87792,note_on,2,0,1,,,,,,,,0,,,76,110
87802,note_on,10,0,3,,,,,,,,2,,,76,0
87802,note_on,10,0,7,,,,,,,,6,,,79,0
87802,note_on,10,0,5,,,,,,,,4,,,79,0
87802,note_on,10,0,1,,,,,,,,0,,,76,0
87804,note_on,2,0,1,,,,,,,,0,,,75,110
87804,note_on,2,0,3,,,,,,,,2,,,75,110
87804,note_on,2,0,7,,,,,,,,6,,,78,110
87804,note_on,2,0,5,,,,,,,,4,,,78,110
87814,note_on,10,0,1,,,,,,,,0,,,75,0
87814,note_on,10,0,5,,,,,,,,4,,,78,0
87814,note_on,10,0,3,,,,,,,,2,,,75,0
87814,note_on,10,0,7,,,,,,,,6,,,78,0
87816,note_on,2,0,5,,,,,,,,4,,,79,110
87816,note_on,2,0,3,,,,,,,,2,,,76,110
87816,note_on,2,0,1,,,,,,,,0,,,76,110
87816,note_on,2,0,7,,,,,,,,6,,,79,110
87826,note_on,10,0,3,,,,,,,,2,,,76,0
87826,note_on,10,0,1,,,,,,,,0,,,76,0
87826,note_on,10,0,7,,,,,,,,6,,,79,0
87826,note_on,10,0,5,,,,,,,,4,,,79,0
87828,note_on,2,0,7,,,,,,,,6,,,78,110
87828,note_on,2,0,1,,,,,,,,0,,,75,110
87828,note_on,2,0,3,,,,,,,,2,,,75,110
87828,note_on,2,0,5,,,,,,,,4,,,78,110
87838,note_on,10,0,1,,,,,,,,0,,,75,0
87838,note_on,10,0,7,,,,,,,,6,,,78,0
87838,note_on,10,0,3,,,,,,,,2,,,75,0
87838,note_on,10,0,5,,,,,,,,4,,,78,0
87840,note_on,2,0,5,,,,,,,,4,,,76,110
87840,note_on,2,0,3,,,,,,,,2,,,76,110
87840,note_on,2,0,1,,,,,,,,0,,,76,110
87840,note_on,2,0,7,,,,,,,,6,,,76,110
87886,note_on,142,0,4,,,,,,,,3,,,54,0
87886,note_on,142,0,12,,,,,,,,12,,,47,0
87886,note_on,142,0,6,,,,,,,,5,,,57,0
87886,note_on,0,0,6,,,,,,,,5,,,47,0
87886,note_on,142,0,11,,,,,,,,11,,,54,0
87886,note_on,142,0,8,,,,,,,,7,,,47,0
87886,note_on,142,0,2,,,,,,,,1,,,47,0
87886,note_on,0,0,4,,,,,,,,3,,,47,0
87888,note_on,2,0,12,,,,,,,,12,,,47,60
87888,note_on,0,0,4,,,,,,,,3,,,54,110
87888,note_on,2,0,8,,,,,,,,7,,,47,110
87888,note_on,2,0,11,,,,,,,,11,,,54,60
87888,note_on,0,0,6,,,,,,,,5,,,57,110
87888,note_on,2,0,6,,,,,,,,5,,,47,110
87888,note_on,336,0,9,,,,,,,,8,,,78,0
87888,note_on,2,0,4,,,,,,,,3,,,47,110
87888,note_on,2,0,2,,,,,,,,1,,,47,110
87888,note_on,336,0,10,,,,,,,,10,,,75,0
87934,note_on,46,0,2,,,,,,,,1,,,47,0
87934,note_on,94,0,7,,,,,,,,6,,,76,0
87934,note_on,0,0,6,,,,,,,,5,,,47,0
87934,note_on,94,0,5,,,,,,,,4,,,76,0
87934,note_on,46,0,6,,,,,,,,5,,,57,0
87934,note_on,0,0,4,,,,,,,,3,,,47,0
87934,note_on,94,0,1,,,,,,,,0,,,76,0
87934,note_on,46,0,8,,,,,,,,7,,,47,0
87934,note_on,46,0,4,,,,,,,,3,,,54,0
87934,note_on,46,0,11,,,,,,,,11,,,54,0
87934,note_on,94,0,3,,,,,,,,2,,,76,0
87934,note_on,46,0,12,,,,,,,,12,,,47,0
87936,note_on,2,0,12,,,,,,,,12,,,40,60
87936,note_on,2,0,7,,,,,,,,6,,,76,110
87936,note_on,0,0,6,,,,,,,,5,,,56,110
87936,note_on,2,0,6,,,,,,,,5,,,52,110
87936,note_on,2,0,5,,,,,,,,4,,,76,110
87936,note_on,2,0,2,,,,,,,,1,,,40,110
87936,note_on,2,0,3,,,,,,,,2,,,76,110
87936,note_on,2,0,1,,,,,,,,0,,,76,110
87936,note_on,48,0,9,,,,,,,,8,,,76,60
87936,note_on,2,0,11,,,,,,,,11,,,56,60
87936,note_on,48,0,10,,,,,,,,10,,,71,60
87936,note_on,2,0,8,,,,,,,,7,,,40,110
87936,note_on,0,0,4,,,,,,,,3,,,56,110
87936,note_on,2,0,4,,,,,,,,3,,,52,110
88464,note_on,528,0,4,,,,,,,,3,,,56,0
88464,note_on,0,0,6,,,,,,,,5,,,52,0
88464,note_on,528,0,2,,,,,,,,1,,,40,0
88464,note_on,528,0,12,,,,,,,,12,,,40,0
88464,note_on,528,0,7,,,,,,,,6,,,76,0
88464,note_on,528,0,6,,,,,,,,5,,,56,0
88464,note_on,0,0,4,,,,,,,,3,,,52,0
88464,note_on,528,0,9,,,,,,,,8,,,76,0
88464,note_on,528,0,8,,,,,,,,7,,,40,0
88464,note_on,528,0,5,,,,,,,,4,,,76,0
88464,note_on,528,0,11,,,,,,,,11,,,56,0
88464,note_on,528,0,1,,,,,,,,0,,,76,0
88464,note_on,528,0,10,,,,,,,,10,,,71,0
88464,note_on,528,0,3,,,,,,,,2,,,76,0
88512,note_on,48,0,3,,,,,,,,2,,,76,110
88512,note_on,48,0,5,,,,,,,,4,,,69,110
88512,note_on,48,0,7,,,,,,,,6,,,72,110
88512,note_on,48,0,4,,,,,,,,3,,,45,110
88512,note_on,48,0,1,,,,,,,,0,,,64,110
88512,note_on,48,0,8,,,,,,,,7,,,64,110
88512,set_tempo,8640,1,0,,,,,,1000000,,,,,,
88512,note_on,48,0,6,,,,,,,,5,,,60,110
88534,note_on,22,0,1,,,,,,,,0,,,64,0
88536,note_on,2,0,1,,,,,,,,0,,,69,110
88558,note_on,46,0,7,,,,,,,,6,,,72,0
88558,note_on,22,0,1,,,,,,,,0,,,69,0
88558,note_on,46,0,5,,,,,,,,4,,,69,0
88558,note_on,46,0,3,,,,,,,,2,,,76,0
88560,note_on,2,0,3,,,,,,,,2,,,72,110
88560,note_on,2,0,1,,,,,,,,0,,,72,110
88560,note_on,2,0,7,,,,,,,,6,,,69,110
88560,note_on,2,0,5,,,,,,,,4,,,72,110
88582,note_on,22,0,1,,,,,,,,0,,,72,0
88584,note_on,2,0,1,,,,,,,,0,,,76,110
88606,note_on,22,0,1,,,,,,,,0,,,76,0
88606,note_on,46,0,3,,,,,,,,2,,,72,0
88606,note_on,94,0,4,,,,,,,,3,,,45,0
88606,note_on,94,0,8,,,,,,,,7,,,64,0
88606,note_on,94,0,6,,,,,,,,5,,,60,0
88606,note_on,46,0,7,,,,,,,,6,,,69,0
88606,note_on,46,0,5,,,,,,,,4,,,72,0
88608,note_on,2,0,7,,,,,,,,6,,,72,110
88608,note_on,2,0,8,,,,,,,,7,,,64,110
88608,note_on,2,0,6,,,,,,,,5,,,60,110
88608,note_on,2,0,5,,,,,,,,4,,,76,110
88608,note_on,2,0,4,,,,,,,,3,,,45,110
88608,note_on,2,0,1,,,,,,,,0,,,81,110
88608,note_on,2,0,3,,,,,,,,2,,,69,110
88630,note_on,22,0,1,,,,,,,,0,,,81,0
88632,note_on,2,0,1,,,,,,,,0,,,76,110
88654,note_on,46,0,7,,,,,,,,6,,,72,0
88654,note_on,46,0,5,,,,,,,,4,,,76,0
88654,note_on,22,0,1,,,,,,,,0,,,76,0
88654,note_on,46,0,3,,,,,,,,2,,,69,0
88656,note_on,2,0,3,,,,,,,,2,,,76,110
88656,note_on,2,0,7,,,,,,,,6,,,69,110
88656,note_on,2,0,5,,,,,,,,4,,,72,110
88656,note_on,2,0,1,,,,,,,,0,,,72,110
88678,note_on,22,0,1,,,,,,,,0,,,72,0
88680,note_on,2,0,1,,,,,,,,0,,,69,110
88702,note_on,46,0,3,,,,,,,,2,,,76,0
88702,note_on,94,0,8,,,,,,,,7,,,64,0
88702,note_on,46,0,7,,,,,,,,6,,,69,0
88702,note_on,94,0,6,,,,,,,,5,,,60,0
88702,note_on,46,0,5,,,,,,,,4,,,72,0
88702,note_on,22,0,1,,,,,,,,0,,,69,0
88702,note_on,94,0,4,,,,,,,,3,,,45,0
88704,note_on,2,0,8,,,,,,,,7,,,64,110
88704,note_on,2,0,7,,,,,,,,6,,,72,110
88704,note_on,2,0,6,,,,,,,,5,,,60,110
88704,note_on,2,0,5,,,,,,,,4,,,69,110
88704,note_on,2,0,1,,,,,,,,0,,,64,110
88704,note_on,2,0,4,,,,,,,,3,,,45,110
88704,note_on,2,0,3,,,,,,,,2,,,76,110
88726,note_on,22,0,1,,,,,,,,0,,,64,0
88728,note_on,2,0,1,,,,,,,,0,,,69,110
88750,note_on,46,0,5,,,,,,,,4,,,69,0
88750,note_on,46,0,3,,,,,,,,2,,,76,0
88750,note_on,22,0,1,,,,,,,,0,,,69,0
88750,note_on,46,0,7,,,,,,,,6,,,72,0
88752,note_on,2,0,7,,,,,,,,6,,,69,110
88752,note_on,2,0,5,,,,,,,,4,,,72,110
88752,note_on,2,0,1,,,,,,,,0,,,72,110
88752,note_on,2,0,3,,,,,,,,2,,,72,110
88774,note_on,22,0,1,,,,,,,,0,,,72,0
88776,note_on,2,0,1,,,,,,,,0,,,76,110
88798,note_on,46,0,5,,,,,,,,4,,,72,0
88798,note_on,94,0,8,,,,,,,,7,,,64,0
88798,note_on,94,0,6,,,,,,,,5,,,60,0
88798,note_on,22,0,1,,,,,,,,0,,,76,0
88798,note_on,46,0,7,,,,,,,,6,,,69,0
88798,note_on,46,0,3,,,,,,,,2,,,72,0
88798,note_on,94,0,4,,,,,,,,3,,,45,0
88800,note_on,2,0,5,,,,,,,,4,,,76,110
88800,note_on,2,0,1,,,,,,,,0,,,81,110
88800,note_on,2,0,8,,,,,,,,7,,,64,110
88800,note_on,2,0,7,,,,,,,,6,,,72,110
88800,note_on,2,0,3,,,,,,,,2,,,69,110
88800,note_on,2,0,4,,,,,,,,3,,,45,110
88800,note_on,2,0,6,,,,,,,,5,,,60,110
88822,note_on,22,0,1,,,,,,,,0,,,81,0
88824,note_on,2,0,1,,,,,,,,0,,,76,110
88846,note_on,46,0,7,,,,,,,,6,,,72,0
88846,note_on,46,0,3,,,,,,,,2,,,69,0
88846,note_on,46,0,5,,,,,,,,4,,,76,0
88846,note_on,22,0,1,,,,,,,,0,,,76,0
88848,note_on,2,0,5,,,,,,,,4,,,72,110
88848,note_on,2,0,3,,,,,,,,2,,,76,110
88848,note_on,2,0,1,,,,,,,,0,,,72,110
88848,note_on,2,0,7,,,,,,,,6,,,69,110
88870,note_on,22,0,1,,,,,,,,0,,,72,0
88872,note_on,2,0,1,,,,,,,,0,,,69,110
88894,note_on,94,0,4,,,,,,,,3,,,45,0
88894,note_on,46,0,7,,,,,,,,6,,,69,0
88894,note_on,46,0,3,,,,,,,,2,,,76,0
88894,note_on,94,0,8,,,,,,,,7,,,64,0
88894,note_on,46,0,5,,,,,,,,4,,,72,0
88894,note_on,94,0,6,,,,,,,,5,,,60,0
88894,note_on,22,0,1,,,,,,,,0,,,69,0
88896,note_on,2,0,4,,,,,,,,3,,,45,110
88896,note_on,2,0,3,,,,,,,,2,,,76,110
88896,note_on,2,0,1,,,,,,,,0,,,64,110
88896,note_on,2,0,8,,,,,,,,7,,,64,110
88896,note_on,2,0,6,,,,,,,,5,,,60,110
88896,note_on,2,0,7,,,,,,,,6,,,72,110
88896,note_on,2,0,5,,,,,,,,4,,,69,110
88918,note_on,22,0,1,,,,,,,,0,,,64,0
88920,note_on,2,0,1,,,,,,,,0,,,69,110
88942,note_on,46,0,3,,,,,,,,2,,,76,0
88942,note_on,22,0,1,,,,,,,,0,,,69,0
88942,note_on,46,0,7,,,,,,,,6,,,72,0
88942,note_on,46,0,5,,,,,,,,4,,,69,0
88944,note_on,2,0,7,,,,,,,,6,,,69,110
88944,note_on,2,0,3,,,,,,,,2,,,72,110
88944,note_on,2,0,5,,,,,,,,4,,,72,110
88944,note_on,2,0,1,,,,,,,,0,,,72,110
88966,note_on,22,0,1,,,,,,,,0,,,72,0
88968,note_on,2,0,1,,,,,,,,0,,,76,110
88990,note_on,94,0,4,,,,,,,,3,,,45,0
88990,note_on,22,0,1,,,,,,,,0,,,76,0
88990,note_on,46,0,7,,,,,,,,6,,,69,0
88990,note_on,94,0,8,,,,,,,,7,,,64,0
88990,note_on,46,0,3,,,,,,,,2,,,72,0
88990,note_on,46,0,5,,,,,,,,4,,,72,0
88990,note_on,94,0,6,,,,,,,,5,,,60,0
88992,note_on,2,0,7,,,,,,,,6,,,72,110
88992,note_on,2,0,1,,,,,,,,0,,,81,110
88992,note_on,2,0,6,,,,,,,,5,,,60,110
88992,note_on,2,0,4,,,,,,,,3,,,45,110
88992,note_on,2,0,8,,,,,,,,7,,,64,110
88992,note_on,2,0,5,,,,,,,,4,,,76,110
88992,note_on,2,0,3,,,,,,,,2,,,69,110
89014,note_on,22,0,1,,,,,,,,0,,,81,0
89016,note_on,2,0,1,,,,,,,,0,,,76,110
89038,note_on,22,0,1,,,,,,,,0,,,76,0
89038,note_on,46,0,7,,,,,,,,6,,,72,0
89038,note_on,46,0,3,,,,,,,,2,,,69,0
89038,note_on,46,0,5,,,,,,,,4,,,76,0
89040,note_on,2,0,1,,,,,,,,0,,,72,110
89040,note_on,2,0,7,,,,,,,,6,,,69,110
89040,note_on,2,0,5,,,,,,,,4,,,72,110
89040,note_on,2,0,3,,,,,,,,2,,,76,110
89062,note_on,22,0,1,,,,,,,,0,,,72,0
89064,note_on,2,0,1,,,,,,,,0,,,69,110
89086,note_on,94,0,8,,,,,,,,7,,,64,0
89086,note_on,94,0,4,,,,,,,,3,,,45,0
89086,note_on,94,0,6,,,,,,,,5,,,60,0
89086,note_on,46,0,7,,,,,,,,6,,,69,0
89086,note_on,46,0,5,,,,,,,,4,,,72,0
89086,note_on,46,0,3,,,,,,,,2,,,76,0
89086,note_on,22,0,1,,,,,,,,0,,,69,0
89088,note_on,2,0,1,,,,,,,,0,,,64,110
89088,note_on,2,0,5,,,,,,,,4,,,68,110
89088,note_on,2,0,4,,,,,,,,3,,,52,110
89088,note_on,2,0,3,,,,,,,,2,,,76,110
89088,note_on,2,0,8,,,,,,,,7,,,64,110
89088,note_on,2,0,7,,,,,,,,6,,,71,110
89088,note_on,2,0,6,,,,,,,,5,,,64,110
89110,note_on,22,0,1,,,,,,,,0,,,64,0
89112,note_on,2,0,1,,,,,,,,0,,,71,110
89134,note_on,46,0,7,,,,,,,,6,,,71,0
89134,note_on,46,0,3,,,,,,,,2,,,76,0
89134,note_on,22,0,1,,,,,,,,0,,,71,0
89134,note_on,46,0,5,,,,,,,,4,,,68,0
89136,note_on,2,0,5,,,,,,,,4,,,71,110
89136,note_on,2,0,1,,,,,,,,0,,,74,110
89136,note_on,2,0,3,,,,,,,,2,,,71,110
89136,note_on,2,0,7,,,,,,,,6,,,68,110
89158,note_on,22,0,1,,,,,,,,0,,,74,0
89160,note_on,2,0,1,,,,,,,,0,,,76,110
89182,note_on,46,0,3,,,,,,,,2,,,71,0
89182,note_on,46,0,5,,,,,,,,4,,,71,0
89182,note_on,22,0,1,,,,,,,,0,,,76,0
89182,note_on,94,0,4,,,,,,,,3,,,52,0
89182,note_on,94,0,8,,,,,,,,7,,,64,0
89182,note_on,94,0,6,,,,,,,,5,,,64,0
89182,note_on,46,0,7,,,,,,,,6,,,68,0
89184,note_on,2,0,4,,,,,,,,3,,,52,110
89184,note_on,2,0,1,,,,,,,,0,,,80,110
89184,note_on,2,0,3,,,,,,,,2,,,68,110
89184,note_on,2,0,5,,,,,,,,4,,,76,110
89184,note_on,2,0,6,,,,,,,,5,,,64,110
89184,note_on,2,0,7,,,,,,,,6,,,71,110
89184,note_on,2,0,8,,,,,,,,7,,,64,110
89206,note_on,22,0,1,,,,,,,,0,,,80,0
89208,note_on,2,0,1,,,,,,,,0,,,76,110
89230,note_on,46,0,7,,,,,,,,6,,,71,0
89230,note_on,46,0,5,,,,,,,,4,,,76,0
89230,note_on,46,0,3,,,,,,,,2,,,68,0
89230,note_on,22,0,1,,,,,,,,0,,,76,0
89232,note_on,2,0,1,,,,,,,,0,,,74,110
89232,note_on,2,0,7,,,,,,,,6,,,68,110
89232,note_on,2,0,3,,,,,,,,2,,,76,110
89232,note_on,2,0,5,,,,,,,,4,,,71,110
89254,note_on,22,0,1,,,,,,,,0,,,74,0
89256,note_on,2,0,1,,,,,,,,0,,,71,110
89278,note_on,94,0,8,,,,,,,,7,,,64,0
89278,note_on,94,0,4,,,,,,,,3,,,52,0
89278,note_on,46,0,7,,,,,,,,6,,,68,0
89278,note_on,46,0,3,,,,,,,,2,,,76,0
89278,note_on,46,0,5,,,,,,,,4,,,71,0
89278,note_on,94,0,6,,,,,,,,5,,,64,0
89278,note_on,22,0,1,,,,,,,,0,,,71,0
89280,note_on,2,0,1,,,,,,,,0,,,64,110
89280,note_on,2,0,8,,,,,,,,7,,,64,110
89280,note_on,2,0,5,,,,,,,,4,,,68,110
89280,note_on,2,0,4,,,,,,,,3,,,52,110
89280,note_on,2,0,6,,,,,,,,5,,,59,110
89280,note_on,2,0,3,,,,,,,,2,,,76,110
89280,note_on,2,0,7,,,,,,,,6,,,71,110
89302,note_on,22,0,1,,,,,,,,0,,,64,0
89304,note_on,2,0,1,,,,,,,,0,,,71,110
89326,note_on,46,0,5,,,,,,,,4,,,68,0
89326,note_on,22,0,1,,,,,,,,0,,,71,0
89326,note_on,46,0,7,,,,,,,,6,,,71,0
89326,note_on,46,0,3,,,,,,,,2,,,76,0
89328,note_on,2,0,7,,,,,,,,6,,,68,110
89328,note_on,2,0,1,,,,,,,,0,,,74,110
89328,note_on,2,0,5,,,,,,,,4,,,71,110
89328,note_on,2,0,3,,,,,,,,2,,,71,110
89350,note_on,22,0,1,,,,,,,,0,,,74,0
89352,note_on,2,0,1,,,,,,,,0,,,76,110
89374,note_on,46,0,5,,,,,,,,4,,,71,0
89374,note_on,46,0,3,,,,,,,,2,,,71,0
89374,note_on,94,0,4,,,,,,,,3,,,52,0
89374,note_on,46,0,7,,,,,,,,6,,,68,0
89374,note_on,22,0,1,,,,,,,,0,,,76,0
89374,note_on,94,0,6,,,,,,,,5,,,59,0
89374,note_on,94,0,8,,,,,,,,7,,,64,0
89376,note_on,2,0,1,,,,,,,,0,,,80,110
89376,note_on,2,0,3,,,,,,,,2,,,68,110
89376,note_on,2,0,4,,,,,,,,3,,,52,110
89376,note_on,2,0,8,,,,,,,,7,,,64,110
89376,note_on,2,0,7,,,,,,,,6,,,71,110
89376,note_on,2,0,5,,,,,,,,4,,,76,110
89376,note_on,2,0,6,,,,,,,,5,,,59,110
89398,note_on,22,0,1,,,,,,,,0,,,80,0
89400,note_on,2,0,1,,,,,,,,0,,,76,110
89422,note_on,46,0,3,,,,,,,,2,,,68,0
89422,note_on,22,0,1,,,,,,,,0,,,76,0
89422,note_on,46,0,7,,,,,,,,6,,,71,0
89422,note_on,46,0,5,,,,,,,,4,,,76,0
89424,note_on,2,0,1,,,,,,,,0,,,74,110
89424,note_on,2,0,5,,,,,,,,4,,,71,110
89424,note_on,2,0,3,,,,,,,,2,,,76,110
89424,note_on,2,0,7,,,,,,,,6,,,68,110
89446,note_on,22,0,1,,,,,,,,0,,,74,0
89448,note_on,2,0,1,,,,,,,,0,,,71,110
89470,note_on,46,0,7,,,,,,,,6,,,68,0
89470,note_on,46,0,5,,,,,,,,4,,,71,0
89470,note_on,94,0,4,,,,,,,,3,,,52,0
89470,note_on,46,0,3,,,,,,,,2,,,76,0
89470,note_on,22,0,1,,,,,,,,0,,,71,0
89470,note_on,94,0,6,,,,,,,,5,,,59,0
89470,note_on,94,0,8,,,,,,,,7,,,64,0
89472,note_on,2,0,1,,,,,,,,0,,,64,110
89472,note_on,2,0,3,,,,,,,,2,,,76,110
89472,note_on,2,0,4,,,,,,,,3,,,52,110
89472,note_on,2,0,8,,,,,,,,7,,,64,110
89472,note_on,2,0,7,,,,,,,,6,,,71,110
89472,note_on,2,0,5,,,,,,,,4,,,68,110
89472,note_on,2,0,6,,,,,,,,5,,,62,110
89494,note_on,22,0,1,,,,,,,,0,,,64,0
89496,note_on,2,0,1,,,,,,,,0,,,71,110
89518,note_on,46,0,3,,,,,,,,2,,,76,0
89518,note_on,46,0,5,,,,,,,,4,,,68,0
89518,note_on,22,0,1,,,,,,,,0,,,71,0
89518,note_on,46,0,7,,,,,,,,6,,,71,0
89520,note_on,2,0,3,,,,,,,,2,,,71,110
89520,note_on,2,0,5,,,,,,,,4,,,71,110
89520,note_on,2,0,1,,,,,,,,0,,,74,110
89520,note_on,2,0,7,,,,,,,,6,,,68,110
89542,note_on,22,0,1,,,,,,,,0,,,74,0
89544,note_on,2,0,1,,,,,,,,0,,,76,110
89566,note_on,46,0,7,,,,,,,,6,,,68,0
89566,note_on,94,0,6,,,,,,,,5,,,62,0
89566,note_on,94,0,8,,,,,,,,7,,,64,0
89566,note_on,46,0,5,,,,,,,,4,,,71,0
89566,note_on,46,0,3,,,,,,,,2,,,71,0
89566,note_on,94,0,4,,,,,,,,3,,,52,0
89566,note_on,22,0,1,,,,,,,,0,,,76,0
89568,note_on,2,0,3,,,,,,,,2,,,68,110
89568,note_on,2,0,7,,,,,,,,6,,,71,110
89568,note_on,2,0,1,,,,,,,,0,,,80,110
89568,note_on,2,0,4,,,,,,,,3,,,52,110
89568,note_on,2,0,6,,,,,,,,5,,,62,110
89568,note_on,2,0,8,,,,,,,,7,,,64,110
89568,note_on,2,0,5,,,,,,,,4,,,76,110
89590,note_on,22,0,1,,,,,,,,0,,,80,0
89592,note_on,2,0,1,,,,,,,,0,,,76,110
89614,note_on,46,0,7,,,,,,,,6,,,71,0
89614,note_on,22,0,1,,,,,,,,0,,,76,0
89614,note_on,46,0,5,,,,,,,,4,,,76,0
89614,note_on,46,0,3,,,,,,,,2,,,68,0
89616,note_on,2,0,3,,,,,,,,2,,,76,110
89616,note_on,2,0,5,,,,,,,,4,,,71,110
89616,note_on,2,0,7,,,,,,,,6,,,68,110
89616,note_on,2,0,1,,,,,,,,0,,,74,110
89638,note_on,22,0,1,,,,,,,,0,,,74,0
89640,note_on,2,0,1,,,,,,,,0,,,71,110
89662,note_on,94,0,4,,,,,,,,3,,,52,0
89662,note_on,22,0,1,,,,,,,,0,,,71,0
89662,note_on,94,0,8,,,,,,,,7,,,64,0
89662,note_on,94,0,6,,,,,,,,5,,,62,0
89662,note_on,46,0,7,,,,,,,,6,,,68,0
89662,note_on,46,0,5,,,,,,,,4,,,71,0
89662,note_on,46,0,3,,,,,,,,2,,,76,0
89664,note_on,2,0,1,,,,,,,,0,,,64,110
89664,note_on,2,0,8,,,,,,,,7,,,64,110
89664,note_on,2,0,5,,,,,,,,4,,,69,110
89664,note_on,2,0,6,,,,,,,,5,,,60,110
89664,note_on,2,0,7,,,,,,,,6,,,72,110
89664,note_on,2,0,3,,,,,,,,2,,,76,110
89664,note_on,2,0,4,,,,,,,,3,,,45,110
89686,note_on,22,0,1,,,,,,,,0,,,64,0
89688,note_on,2,0,1,,,,,,,,0,,,69,110
89710,note_on,46,0,5,,,,,,,,4,,,69,0
89710,note_on,46,0,3,,,,,,,,2,,,76,0
89710,note_on,22,0,1,,,,,,,,0,,,69,0
89710,note_on,46,0,7,,,,,,,,6,,,72,0
89712,note_on,2,0,1,,,,,,,,0,,,72,110
89712,note_on,2,0,7,,,,,,,,6,,,69,110
89712,note_on,2,0,3,,,,,,,,2,,,72,110
89712,note_on,2,0,5,,,,,,,,4,,,72,110
89734,note_on,22,0,1,,,,,,,,0,,,72,0
89736,note_on,2,0,1,,,,,,,,0,,,76,110
89758,note_on,94,0,6,,,,,,,,5,,,60,0
89758,note_on,46,0,3,,,,,,,,2,,,72,0
89758,note_on,22,0,1,,,,,,,,0,,,76,0
89758,note_on,46,0,5,,,,,,,,4,,,72,0
89758,note_on,46,0,7,,,,,,,,6,,,69,0
89758,note_on,94,0,4,,,,,,,,3,,,45,0
89758,note_on,94,0,8,,,,,,,,7,,,64,0
89760,note_on,2,0,7,,,,,,,,6,,,72,110
89760,note_on,2,0,6,,,,,,,,5,,,60,110
89760,note_on,2,0,3,,,,,,,,2,,,69,110
89760,note_on,2,0,4,,,,,,,,3,,,45,110
89760,note_on,2,0,1,,,,,,,,0,,,81,110
89760,note_on,2,0,5,,,,,,,,4,,,76,110
89760,note_on,2,0,8,,,,,,,,7,,,64,110
89782,note_on,22,0,1,,,,,,,,0,,,81,0
89784,note_on,2,0,1,,,,,,,,0,,,76,110
89806,note_on,46,0,5,,,,,,,,4,,,76,0
89806,note_on,22,0,1,,,,,,,,0,,,76,0
89806,note_on,46,0,7,,,,,,,,6,,,72,0
89806,note_on,46,0,3,,,,,,,,2,,,69,0
89808,note_on,2,0,7,,,,,,,,6,,,69,110
89808,note_on,2,0,3,,,,,,,,2,,,76,110
89808,note_on,2,0,1,,,,,,,,0,,,72,110
89808,note_on,2,0,5,,,,,,,,4,,,72,110
89830,note_on,22,0,1,,,,,,,,0,,,72,0
89832,note_on,2,0,1,,,,,,,,0,,,69,110
89854,note_on,46,0,3,,,,,,,,2,,,76,0
89854,note_on,46,0,5,,,,,,,,4,,,72,0
89854,note_on,94,0,4,,,,,,,,3,,,45,0
89854,note_on,22,0,1,,,,,,,,0,,,69,0
89854,note_on,94,0,8,,,,,,,,7,,,64,0
89854,note_on,46,0,7,,,,,,,,6,,,69,0
89854,note_on,94,0,6,,,,,,,,5,,,60,0
89856,note_on,2,0,5,,,,,,,,4,,,69,110
89856,note_on,2,0,1,,,,,,,,0,,,64,110
89856,note_on,2,0,7,,,,,,,,6,,,72,110
89856,note_on,2,0,4,,,,,,,,3,,,45,110
89856,note_on,2,0,6,,,,,,,,5,,,60,110
89856,note_on,2,0,8,,,,,,,,7,,,64,110
89856,note_on,2,0,3,,,,,,,,2,,,76,110
89878,note_on,22,0,1,,,,,,,,0,,,64,0
89880,note_on,2,0,1,,,,,,,,0,,,69,110
89902,note_on,46,0,3,,,,,,,,2,,,76,0
89902,note_on,22,0,1,,,,,,,,0,,,69,0
89902,note_on,46,0,7,,,,,,,,6,,,72,0
89902,note_on,46,0,5,,,,,,,,4,,,69,0
89904,note_on,2,0,1,,,,,,,,0,,,72,110
89904,note_on,2,0,5,,,,,,,,4,,,72,110
89904,note_on,2,0,7,,,,,,,,6,,,69,110
89904,note_on,2,0,3,,,,,,,,2,,,72,110
89926,note_on,22,0,1,,,,,,,,0,,,72,0
89928,note_on,2,0,1,,,,,,,,0,,,76,110
89950,note_on,94,0,8,,,,,,,,7,,,64,0
89950,note_on,94,0,4,,,,,,,,3,,,45,0
89950,note_on,94,0,6,,,,,,,,5,,,60,0
89950,note_on,46,0,5,,,,,,,,4,,,72,0
89950,note_on,22,0,1,,,,,,,,0,,,76,0
89950,note_on,46,0,7,,,,,,,,6,,,69,0
89950,note_on,46,0,3,,,,,,,,2,,,72,0
89952,note_on,2,0,1,,,,,,,,0,,,81,110
89952,note_on,2,0,3,,,,,,,,2,,,69,110
89952,note_on,2,0,6,,,,,,,,5,,,60,110
89952,note_on,2,0,7,,,,,,,,6,,,72,110
89952,note_on,2,0,4,,,,,,,,3,,,45,110
89952,note_on,2,0,5,,,,,,,,4,,,76,110
89952,note_on,2,0,8,,,,,,,,7,,,64,110
89974,note_on,22,0,1,,,,,,,,0,,,81,0
89976,note_on,2,0,1,,,,,,,,0,,,76,110
89998,note_on,46,0,7,,,,,,,,6,,,72,0
89998,note_on,22,0,1,,,,,,,,0,,,76,0
89998,note_on,46,0,3,,,,,,,,2,,,69,0
89998,note_on,46,0,5,,,,,,,,4,,,76,0
90000,note_on,2,0,7,,,,,,,,6,,,69,110
90000,note_on,2,0,1,,,,,,,,0,,,72,110
90000,note_on,2,0,5,,,,,,,,4,,,72,110
90000,note_on,2,0,3,,,,,,,,2,,,76,110
90022,note_on,22,0,1,,,,,,,,0,,,72,0
90024,note_on,2,0,1,,,,,,,,0,,,69,110
90046,note_on,46,0,3,,,,,,,,2,,,76,0
90046,note_on,46,0,5,,,,,,,,4,,,72,0
90046,note_on,22,0,1,,,,,,,,0,,,69,0
90046,note_on,46,0,7,,,,,,,,6,,,69,0
90046,note_on,94,0,8,,,,,,,,7,,,64,0
90046,note_on,94,0,4,,,,,,,,3,,,45,0
90046,note_on,94,0,6,,,,,,,,5,,,60,0
90048,note_on,2,0,8,,,,,,,,7,,,64,110
90048,note_on,2,0,4,,,,,,,,3,,,45,110
90048,note_on,2,0,3,,,,,,,,2,,,76,110
90048,note_on,2,0,5,,,,,,,,4,,,69,110
90048,note_on,2,0,1,,,,,,,,0,,,64,110
90048,note_on,2,0,7,,,,,,,,6,,,72,110
90048,note_on,2,0,6,,,,,,,,5,,,60,110
90070,note_on,22,0,1,,,,,,,,0,,,64,0
90072,note_on,2,0,1,,,,,,,,0,,,69,110
90094,note_on,46,0,5,,,,,,,,4,,,69,0
90094,note_on,22,0,1,,,,,,,,0,,,69,0
90094,note_on,46,0,3,,,,,,,,2,,,76,0
90094,note_on,46,0,7,,,,,,,,6,,,72,0
90096,note_on,2,0,5,,,,,,,,4,,,72,110
90096,note_on,2,0,1,,,,,,,,0,,,72,110
90096,note_on,2,0,3,,,,,,,,2,,,72,110
90096,note_on,2,0,7,,,,,,,,6,,,69,110
90118,note_on,22,0,1,,,,,,,,0,,,72,0
90120,note_on,2,0,1,,,,,,,,0,,,76,110
90142,note_on,46,0,5,,,,,,,,4,,,72,0
90142,note_on,46,0,3,,,,,,,,2,,,72,0
90142,note_on,94,0,4,,,,,,,,3,,,45,0
90142,note_on,46,0,7,,,,,,,,6,,,69,0
90142,note_on,94,0,6,,,,,,,,5,,,60,0
90142,note_on,22,0,1,,,,,,,,0,,,76,0
90142,note_on,94,0,8,,,,,,,,7,,,64,0
90144,note_on,2,0,6,,,,,,,,5,,,60,110
90144,note_on,2,0,8,,,,,,,,7,,,64,110
90144,note_on,2,0,7,,,,,,,,6,,,72,110
90144,note_on,2,0,5,,,,,,,,4,,,76,110
90144,note_on,2,0,1,,,,,,,,0,,,81,110
90144,note_on,2,0,3,,,,,,,,2,,,69,110
90144,note_on,2,0,4,,,,,,,,3,,,45,110
90166,note_on,22,0,1,,,,,,,,0,,,81,0
90168,note_on,2,0,1,,,,,,,,0,,,76,110
90190,note_on,22,0,1,,,,,,,,0,,,76,0
90190,note_on,46,0,3,,,,,,,,2,,,69,0
90190,note_on,46,0,5,,,,,,,,4,,,76,0
90190,note_on,46,0,7,,,,,,,,6,,,72,0
90192,note_on,2,0,1,,,,,,,,0,,,72,110
90192,note_on,2,0,5,,,,,,,,4,,,72,110
90192,note_on,2,0,3,,,,,,,,2,,,76,110
90192,note_on,2,0,7,,,,,,,,6,,,69,110
90214,note_on,22,0,1,,,,,,,,0,,,72,0
90216,note_on,2,0,1,,,,,,,,0,,,69,110
90238,note_on,46,0,7,,,,,,,,6,,,69,0
90238,note_on,46,0,3,,,,,,,,2,,,76,0
90238,note_on,46,0,5,,,,,,,,4,,,72,0
90238,note_on,94,0,6,,,,,,,,5,,,60,0
90238,note_on,22,0,1,,,,,,,,0,,,69,0
90238,note_on,94,0,8,,,,,,,,7,,,64,0
90238,note_on,94,0,4,,,,,,,,3,,,45,0
90240,note_on,2,0,6,,,,,,,,5,,,52,110
90240,note_on,2,0,5,,,,,,,,4,,,69,110
90240,note_on,2,0,1,,,,,,,,0,,,64,110
90240,note_on,2,0,7,,,,,,,,6,,,73,110
90240,note_on,2,0,3,,,,,,,,2,,,76,110
90240,note_on,2,0,4,,,,,,,,3,,,45,110
90240,note_on,2,0,8,,,,,,,,7,,,64,110
90262,note_on,22,0,1,,,,,,,,0,,,64,0
90264,note_on,2,0,1,,,,,,,,0,,,69,110
90286,note_on,46,0,7,,,,,,,,6,,,73,0
90286,note_on,22,0,1,,,,,,,,0,,,69,0
90286,note_on,46,0,5,,,,,,,,4,,,69,0
90286,note_on,46,0,3,,,,,,,,2,,,76,0
90288,note_on,2,0,1,,,,,,,,0,,,73,110
90288,note_on,2,0,5,,,,,,,,4,,,73,110
90288,note_on,2,0,7,,,,,,,,6,,,69,110
90288,note_on,2,0,3,,,,,,,,2,,,73,110
90310,note_on,22,0,1,,,,,,,,0,,,73,0
90312,note_on,2,0,1,,,,,,,,0,,,76,110
90334,note_on,46,0,3,,,,,,,,2,,,73,0
90334,note_on,46,0,7,,,,,,,,6,,,69,0
90334,note_on,46,0,5,,,,,,,,4,,,73,0
90334,note_on,94,0,4,,,,,,,,3,,,45,0
90334,note_on,22,0,1,,,,,,,,0,,,76,0
90334,note_on,94,0,8,,,,,,,,7,,,64,0
90334,note_on,94,0,6,,,,,,,,5,,,52,0
90336,note_on,2,0,5,,,,,,,,4,,,76,110
90336,note_on,2,0,4,,,,,,,,3,,,45,110
90336,note_on,2,0,8,,,,,,,,7,,,64,110
90336,note_on,2,0,1,,,,,,,,0,,,79,110
90336,note_on,2,0,6,,,,,,,,5,,,52,110
90336,note_on,2,0,7,,,,,,,,6,,,73,110
90336,note_on,2,0,3,,,,,,,,2,,,69,110
90358,note_on,22,0,1,,,,,,,,0,,,79,0
90360,note_on,2,0,1,,,,,,,,0,,,76,110
90382,note_on,46,0,5,,,,,,,,4,,,76,0
90382,note_on,46,0,7,,,,,,,,6,,,73,0
90382,note_on,46,0,3,,,,,,,,2,,,69,0
90382,note_on,22,0,1,,,,,,,,0,,,76,0
90384,note_on,2,0,7,,,,,,,,6,,,69,110
90384,note_on,2,0,5,,,,,,,,4,,,73,110
90384,note_on,2,0,3,,,,,,,,2,,,76,110
90384,note_on,2,0,1,,,,,,,,0,,,73,110
90406,note_on,22,0,1,,,,,,,,0,,,73,0
90408,note_on,2,0,1,,,,,,,,0,,,69,110
90430,note_on,94,0,4,,,,,,,,3,,,45,0
90430,note_on,94,0,8,,,,,,,,7,,,64,0
90430,note_on,46,0,7,,,,,,,,6,,,69,0
90430,note_on,94,0,6,,,,,,,,5,,,52,0
90430,note_on,46,0,3,,,,,,,,2,,,76,0
90430,note_on,46,0,5,,,,,,,,4,,,73,0
90430,note_on,22,0,1,,,,,,,,0,,,69,0
90432,note_on,2,0,6,,,,,,,,5,,,57,110
90432,note_on,2,0,5,,,,,,,,4,,,69,110
90432,note_on,2,0,8,,,,,,,,7,,,64,110
90432,note_on,2,0,1,,,,,,,,0,,,64,110
90432,note_on,2,0,4,,,,,,,,3,,,45,110
90432,note_on,2,0,7,,,,,,,,6,,,73,110
90432,note_on,2,0,3,,,,,,,,2,,,76,110
90454,note_on,22,0,1,,,,,,,,0,,,64,0
90456,note_on,2,0,1,,,,,,,,0,,,69,110
90478,note_on,46,0,3,,,,,,,,2,,,76,0
90478,note_on,46,0,5,,,,,,,,4,,,69,0
90478,note_on,46,0,7,,,,,,,,6,,,73,0
90478,note_on,22,0,1,,,,,,,,0,,,69,0
90480,note_on,2,0,1,,,,,,,,0,,,73,110
90480,note_on,2,0,7,,,,,,,,6,,,69,110
90480,note_on,2,0,3,,,,,,,,2,,,73,110
90480,note_on,2,0,5,,,,,,,,4,,,73,110
90502,note_on,22,0,1,,,,,,,,0,,,73,0
90504,note_on,2,0,1,,,,,,,,0,,,76,110
90526,note_on,46,0,5,,,,,,,,4,,,73,0
90526,note_on,94,0,8,,,,,,,,7,,,64,0
90526,note_on,46,0,7,,,,,,,,6,,,69,0
90526,note_on,94,0,4,,,,,,,,3,,,45,0
90526,note_on,46,0,3,,,,,,,,2,,,73,0
90526,note_on,22,0,1,,,,,,,,0,,,76,0
90526,note_on,94,0,6,,,,,,,,5,,,57,0
90528,note_on,2,0,5,,,,,,,,4,,,76,110
90528,note_on,2,0,7,,,,,,,,6,,,73,110
90528,note_on,2,0,8,,,,,,,,7,,,64,110
90528,note_on,2,0,4,,,,,,,,3,,,45,110
90528,note_on,2,0,3,,,,,,,,2,,,69,110
90528,note_on,2,0,1,,,,,,,,0,,,79,110
90528,note_on,2,0,6,,,,,,,,5,,,57,110
90550,note_on,22,0,1,,,,,,,,0,,,79,0
90552,note_on,2,0,1,,,,,,,,0,,,76,110
90574,note_on,46,0,3,,,,,,,,2,,,69,0
90574,note_on,46,0,7,,,,,,,,6,,,73,0
90574,note_on,46,0,5,,,,,,,,4,,,76,0
90574,note_on,22,0,1,,,,,,,,0,,,76,0
90576,note_on,2,0,1,,,,,,,,0,,,73,110
90576,note_on,2,0,5,,,,,,,,4,,,73,110
90576,note_on,2,0,7,,,,,,,,6,,,69,110
90576,note_on,2,0,3,,,,,,,,2,,,76,110
90598,note_on,22,0,1,,,,,,,,0,,,73,0
90600,note_on,2,0,1,,,,,,,,0,,,69,110
90622,note_on,94,0,4,,,,,,,,3,,,45,0
90622,note_on,94,0,8,,,,,,,,7,,,64,0
90622,note_on,46,0,5,,,,,,,,4,,,73,0
90622,note_on,94,0,6,,,,,,,,5,,,57,0
90622,note_on,46,0,7,,,,,,,,6,,,69,0
90622,note_on,22,0,1,,,,,,,,0,,,69,0
90622,note_on,46,0,3,,,,,,,,2,,,76,0
90624,note_on,2,0,3,,,,,,,,2,,,76,110
90624,note_on,2,0,7,,,,,,,,6,,,73,110
90624,note_on,2,0,4,,,,,,,,3,,,45,110
90624,note_on,2,0,1,,,,,,,,0,,,64,110
90624,note_on,2,0,8,,,,,,,,7,,,64,110
90624,note_on,2,0,6,,,,,,,,5,,,57,110
90624,note_on,2,0,5,,,,,,,,4,,,69,110
90646,note_on,22,0,1,,,,,,,,0,,,64,0
90648,note_on,2,0,1,,,,,,,,0,,,69,110
90670,note_on,46,0,3,,,,,,,,2,,,76,0
90670,note_on,46,0,7,,,,,,,,6,,,73,0
90670,note_on,22,0,1,,,,,,,,0,,,69,0
90670,note_on,46,0,5,,,,,,,,4,,,69,0
90672,note_on,2,0,5,,,,,,,,4,,,73,110
90672,note_on,2,0,3,,,,,,,,2,,,73,110
90672,note_on,2,0,7,,,,,,,,6,,,69,110
90672,note_on,2,0,1,,,,,,,,0,,,73,110
90694,note_on,22,0,1,,,,,,,,0,,,73,0
90696,note_on,2,0,1,,,,,,,,0,,,76,110
90718,note_on,94,0,6,,,,,,,,5,,,57,0
90718,note_on,46,0,3,,,,,,,,2,,,73,0
90718,note_on,46,0,7,,,,,,,,6,,,69,0
90718,note_on,94,0,8,,,,,,,,7,,,64,0
90718,note_on,94,0,4,,,,,,,,3,,,45,0
90718,note_on,22,0,1,,,,,,,,0,,,76,0
90718,note_on,46,0,5,,,,,,,,4,,,73,0
90720,note_on,2,0,6,,,,,,,,5,,,57,110
90720,note_on,2,0,3,,,,,,,,2,,,69,110
90720,note_on,2,0,5,,,,,,,,4,,,76,110
90720,note_on,2,0,8,,,,,,,,7,,,64,110
90720,note_on,2,0,4,,,,,,,,3,,,45,110
90720,note_on,2,0,7,,,,,,,,6,,,73,110
90720,note_on,2,0,1,,,,,,,,0,,,79,110
90742,note_on,22,0,1,,,,,,,,0,,,79,0
90744,note_on,2,0,1,,,,,,,,0,,,76,110
90766,note_on,46,0,5,,,,,,,,4,,,76,0
90766,note_on,46,0,3,,,,,,,,2,,,69,0
90766,note_on,46,0,7,,,,,,,,6,,,73,0
90766,note_on,22,0,1,,,,,,,,0,,,76,0
90768,note_on,2,0,3,,,,,,,,2,,,76,110
90768,note_on,2,0,7,,,,,,,,6,,,69,110
90768,note_on,2,0,5,,,,,,,,4,,,73,110
90768,note_on,2,0,1,,,,,,,,0,,,73,110
90790,note_on,22,0,1,,,,,,,,0,,,73,0
90792,note_on,2,0,1,,,,,,,,0,,,69,110
90814,note_on,94,0,6,,,,,,,,5,,,57,0
90814,note_on,22,0,1,,,,,,,,0,,,69,0
90814,note_on,94,0,8,,,,,,,,7,,,64,0
90814,note_on,46,0,3,,,,,,,,2,,,76,0
90814,note_on,94,0,4,,,,,,,,3,,,45,0
90814,note_on,46,0,5,,,,,,,,4,,,73,0
90814,note_on,46,0,7,,,,,,,,6,,,69,0
90816,note_on,2,0,1,,,,,,,,0,,,62,110
90816,note_on,2,0,8,,,,,,,,7,,,62,110
90816,note_on,2,0,5,,,,,,,,4,,,69,110
90816,note_on,2,0,4,,,,,,,,3,,,50,110
90816,note_on,2,0,6,,,,,,,,5,,,57,110
90816,note_on,2,0,7,,,,,,,,6,,,74,110
90816,note_on,2,0,3,,,,,,,,2,,,77,110
90838,note_on,22,0,1,,,,,,,,0,,,62,0
90840,note_on,2,0,1,,,,,,,,0,,,69,110
90862,note_on,46,0,7,,,,,,,,6,,,74,0
90862,note_on,46,0,5,,,,,,,,4,,,69,0
90862,note_on,46,0,3,,,,,,,,2,,,77,0
90862,note_on,22,0,1,,,,,,,,0,,,69,0
90864,note_on,2,0,3,,,,,,,,2,,,74,110
90864,note_on,2,0,5,,,,,,,,4,,,74,110
90864,note_on,2,0,7,,,,,,,,6,,,69,110
90864,note_on,2,0,1,,,,,,,,0,,,73,110
90886,note_on,22,0,1,,,,,,,,0,,,73,0
90888,note_on,2,0,1,,,,,,,,0,,,74,110
90910,note_on,46,0,7,,,,,,,,6,,,69,0
90910,note_on,94,0,6,,,,,,,,5,,,57,0
90910,note_on,94,0,8,,,,,,,,7,,,62,0
90910,note_on,94,0,4,,,,,,,,3,,,50,0
90910,note_on,22,0,1,,,,,,,,0,,,74,0
90910,note_on,46,0,5,,,,,,,,4,,,74,0
90910,note_on,46,0,3,,,,,,,,2,,,74,0
90912,note_on,2,0,7,,,,,,,,6,,,74,110
90912,note_on,2,0,3,,,,,,,,2,,,69,110
90912,note_on,2,0,5,,,,,,,,4,,,77,110
90912,note_on,2,0,4,,,,,,,,3,,,50,110
90912,note_on,2,0,1,,,,,,,,0,,,77,110
90912,note_on,2,0,6,,,,,,,,5,,,57,110
90912,note_on,2,0,8,,,,,,,,7,,,62,110
90934,note_on,22,0,1,,,,,,,,0,,,77,0
90936,note_on,2,0,1,,,,,,,,0,,,73,110
90958,note_on,46,0,5,,,,,,,,4,,,77,0
90958,note_on,46,0,7,,,,,,,,6,,,74,0
90958,note_on,46,0,3,,,,,,,,2,,,69,0
90958,note_on,22,0,1,,,,,,,,0,,,73,0
90960,note_on,2,0,1,,,,,,,,0,,,74,110
90960,note_on,2,0,5,,,,,,,,4,,,74,110
90960,note_on,2,0,3,,,,,,,,2,,,77,110
90960,note_on,2,0,7,,,,,,,,6,,,69,110
90982,note_on,22,0,1,,,,,,,,0,,,74,0
90984,note_on,2,0,1,,,,,,,,0,,,69,110
91006,note_on,22,0,1,,,,,,,,0,,,69,0
91006,note_on,46,0,5,,,,,,,,4,,,74,0
91006,note_on,94,0,8,,,,,,,,7,,,62,0
91006,note_on,46,0,3,,,,,,,,2,,,77,0
91006,note_on,94,0,6,,,,,,,,5,,,57,0
91006,note_on,46,0,7,,,,,,,,6,,,69,0
91006,note_on,94,0,4,,,,,,,,3,,,50,0
91008,note_on,2,0,8,,,,,,,,7,,,62,110
91008,note_on,2,0,1,,,,,,,,0,,,62,110
91008,note_on,2,0,7,,,,,,,,6,,,74,110
91008,note_on,2,0,4,,,,,,,,3,,,50,110
91008,note_on,2,0,6,,,,,,,,5,,,53,110
91008,note_on,2,0,3,,,,,,,,2,,,77,110
91008,note_on,2,0,5,,,,,,,,4,,,69,110
91030,note_on,22,0,1,,,,,,,,0,,,62,0
91032,note_on,2,0,1,,,,,,,,0,,,69,110
91054,note_on,22,0,1,,,,,,,,0,,,69,0
91054,note_on,46,0,5,,,,,,,,4,,,69,0
91054,note_on,46,0,7,,,,,,,,6,,,74,0
91054,note_on,46,0,3,,,,,,,,2,,,77,0
91056,note_on,2,0,1,,,,,,,,0,,,73,110
91056,note_on,2,0,3,,,,,,,,2,,,74,110
91056,note_on,2,0,5,,,,,,,,4,,,74,110
91056,note_on,2,0,7,,,,,,,,6,,,69,110
91078,note_on,22,0,1,,,,,,,,0,,,73,0
91080,note_on,2,0,1,,,,,,,,0,,,74,110
91102,note_on,94,0,6,,,,,,,,5,,,53,0
91102,note_on,22,0,1,,,,,,,,0,,,74,0
91102,note_on,46,0,3,,,,,,,,2,,,74,0
91102,note_on,94,0,4,,,,,,,,3,,,50,0
91102,note_on,46,0,5,,,,,,,,4,,,74,0
91102,note_on,94,0,8,,,,,,,,7,,,62,0
91102,note_on,46,0,7,,,,,,,,6,,,69,0
91104,note_on,2,0,4,,,,,,,,3,,,50,110
91104,note_on,2,0,8,,,,,,,,7,,,62,110
91104,note_on,2,0,6,,,,,,,,5,,,53,110
91104,note_on,2,0,3,,,,,,,,2,,,69,110
91104,note_on,2,0,1,,,,,,,,0,,,77,110
91104,note_on,2,0,5,,,,,,,,4,,,77,110
91104,note_on,2,0,7,,,,,,,,6,,,74,110
91126,note_on,22,0,1,,,,,,,,0,,,77,0
91128,note_on,2,0,1,,,,,,,,0,,,73,110
91150,note_on,46,0,7,,,,,,,,6,,,74,0
91150,note_on,22,0,1,,,,,,,,0,,,73,0
91150,note_on,46,0,5,,,,,,,,4,,,77,0
91150,note_on,46,0,3,,,,,,,,2,,,69,0
91152,note_on,2,0,5,,,,,,,,4,,,74,110
91152,note_on,2,0,1,,,,,,,,0,,,74,110
91152,note_on,2,0,3,,,,,,,,2,,,77,110
91152,note_on,2,0,7,,,,,,,,6,,,69,110
91174,note_on,22,0,1,,,,,,,,0,,,74,0
91176,note_on,2,0,1,,,,,,,,0,,,69,110
91198,note_on,22,0,1,,,,,,,,0,,,69,0
91198,note_on,46,0,3,,,,,,,,2,,,77,0
91198,note_on,46,0,7,,,,,,,,6,,,69,0
91198,note_on,94,0,8,,,,,,,,7,,,62,0
91198,note_on,94,0,6,,,,,,,,5,,,53,0
91198,note_on,94,0,4,,,,,,,,3,,,50,0
91198,note_on,46,0,5,,,,,,,,4,,,74,0
91200,note_on,2,0,7,,,,,,,,6,,,74,110
91200,note_on,2,0,4,,,,,,,,3,,,50,110
91200,note_on,2,0,8,,,,,,,,7,,,62,110
91200,note_on,2,0,6,,,,,,,,5,,,50,110
91200,note_on,2,0,1,,,,,,,,0,,,62,110
91200,note_on,2,0,5,,,,,,,,4,,,69,110
91200,note_on,2,0,3,,,,,,,,2,,,77,110
91222,note_on,22,0,1,,,,,,,,0,,,62,0
91224,note_on,2,0,1,,,,,,,,0,,,69,110
91246,note_on,46,0,3,,,,,,,,2,,,77,0
91246,note_on,22,0,1,,,,,,,,0,,,69,0
91246,note_on,46,0,7,,,,,,,,6,,,74,0
91246,note_on,46,0,5,,,,,,,,4,,,69,0
91248,note_on,2,0,5,,,,,,,,4,,,74,110
91248,note_on,2,0,7,,,,,,,,6,,,69,110
91248,note_on,2,0,1,,,,,,,,0,,,73,110
91248,note_on,2,0,3,,,,,,,,2,,,74,110
91270,note_on,22,0,1,,,,,,,,0,,,73,0
91272,note_on,2,0,1,,,,,,,,0,,,74,110
91294,note_on,94,0,6,,,,,,,,5,,,50,0
91294,note_on,22,0,1,,,,,,,,0,,,74,0
91294,note_on,46,0,3,,,,,,,,2,,,74,0
91294,note_on,94,0,8,,,,,,,,7,,,62,0
91294,note_on,46,0,7,,,,,,,,6,,,69,0
91294,note_on,46,0,5,,,,,,,,4,,,74,0
91294,note_on,94,0,4,,,,,,,,3,,,50,0
91296,note_on,2,0,7,,,,,,,,6,,,74,110
91296,note_on,2,0,6,,,,,,,,5,,,50,110
91296,note_on,2,0,5,,,,,,,,4,,,77,110
91296,note_on,2,0,8,,,,,,,,7,,,62,110
91296,note_on,2,0,1,,,,,,,,0,,,77,110
91296,note_on,2,0,3,,,,,,,,2,,,69,110
91296,note_on,2,0,4,,,,,,,,3,,,50,110
91318,note_on,22,0,1,,,,,,,,0,,,77,0
91320,note_on,2,0,1,,,,,,,,0,,,73,110
91342,note_on,46,0,5,,,,,,,,4,,,77,0
91342,note_on,46,0,7,,,,,,,,6,,,74,0
91342,note_on,22,0,1,,,,,,,,0,,,73,0
91342,note_on,46,0,3,,,,,,,,2,,,69,0
91344,note_on,2,0,1,,,,,,,,0,,,74,110
91344,note_on,2,0,5,,,,,,,,4,,,74,110
91344,note_on,2,0,3,,,,,,,,2,,,77,110
91344,note_on,2,0,7,,,,,,,,6,,,69,110
91366,note_on,22,0,1,,,,,,,,0,,,74,0
91368,note_on,2,0,1,,,,,,,,0,,,69,110
91390,note_on,22,0,1,,,,,,,,0,,,69,0
91390,note_on,94,0,8,,,,,,,,7,,,62,0
91390,note_on,94,0,6,,,,,,,,5,,,50,0
91390,note_on,94,0,4,,,,,,,,3,,,50,0
91390,note_on,46,0,7,,,,,,,,6,,,69,0
91390,note_on,46,0,3,,,,,,,,2,,,77,0
91390,note_on,46,0,5,,,,,,,,4,,,74,0
91392,note_on,2,0,1,,,,,,,,0,,,62,110
91392,note_on,2,0,5,,,,,,,,4,,,69,110
91392,note_on,2,0,8,,,,,,,,7,,,62,110
91392,note_on,2,0,3,,,,,,,,2,,,78,110
91392,note_on,2,0,7,,,,,,,,6,,,74,110
91392,note_on,2,0,6,,,,,,,,5,,,62,110
91392,note_on,2,0,4,,,,,,,,3,,,48,110
91414,note_on,22,0,1,,,,,,,,0,,,62,0
91416,note_on,2,0,1,,,,,,,,0,,,69,110
91438,note_on,46,0,5,,,,,,,,4,,,69,0
91438,note_on,22,0,1,,,,,,,,0,,,69,0
91438,note_on,46,0,7,,,,,,,,6,,,74,0
91438,note_on,46,0,3,,,,,,,,2,,,78,0
91440,note_on,2,0,5,,,,,,,,4,,,74,110
91440,note_on,2,0,7,,,,,,,,6,,,69,110
91440,note_on,2,0,3,,,,,,,,2,,,74,110
91440,note_on,2,0,1,,,,,,,,0,,,72,110
91462,note_on,22,0,1,,,,,,,,0,,,72,0
91464,note_on,2,0,1,,,,,,,,0,,,74,110
91486,note_on,94,0,8,,,,,,,,7,,,62,0
91486,note_on,94,0,6,,,,,,,,5,,,62,0
91486,note_on,94,0,4,,,,,,,,3,,,48,0
91486,note_on,46,0,5,,,,,,,,4,,,74,0
91486,note_on,46,0,3,,,,,,,,2,,,74,0
91486,note_on,46,0,7,,,,,,,,6,,,69,0
91486,note_on,22,0,1,,,,,,,,0,,,74,0
91488,note_on,2,0,4,,,,,,,,3,,,48,110
91488,note_on,2,0,5,,,,,,,,4,,,81,110
91488,note_on,2,0,3,,,,,,,,2,,,69,110
91488,note_on,2,0,7,,,,,,,,6,,,74,110
91488,note_on,2,0,6,,,,,,,,5,,,62,110
91488,note_on,2,0,8,,,,,,,,7,,,62,110
91488,note_on,2,0,1,,,,,,,,0,,,78,110
91510,note_on,22,0,1,,,,,,,,0,,,78,0
91512,note_on,2,0,1,,,,,,,,0,,,74,110
91534,note_on,46,0,5,,,,,,,,4,,,81,0
91534,note_on,46,0,3,,,,,,,,2,,,69,0
91534,note_on,46,0,7,,,,,,,,6,,,74,0
91534,note_on,22,0,1,,,,,,,,0,,,74,0
91536,note_on,2,0,7,,,,,,,,6,,,69,110
91536,note_on,2,0,1,,,,,,,,0,,,72,110
91536,note_on,2,0,3,,,,,,,,2,,,78,110
91536,note_on,2,0,5,,,,,,,,4,,,74,110
91558,note_on,22,0,1,,,,,,,,0,,,72,0
91560,note_on,2,0,1,,,,,,,,0,,,69,110
91582,note_on,94,0,6,,,,,,,,5,,,62,0
91582,note_on,46,0,7,,,,,,,,6,,,69,0
91582,note_on,94,0,4,,,,,,,,3,,,48,0
91582,note_on,46,0,3,,,,,,,,2,,,78,0
91582,note_on,94,0,8,,,,,,,,7,,,62,0
91582,note_on,46,0,5,,,,,,,,4,,,74,0
91582,note_on,22,0,1,,,,,,,,0,,,69,0
91584,note_on,2,0,8,,,,,,,,7,,,50,110
91584,note_on,2,0,4,,,,,,,,3,,,48,110
91584,note_on,2,0,5,,,,,,,,4,,,69,110
91584,note_on,2,0,7,,,,,,,,6,,,74,110
91584,note_on,2,0,3,,,,,,,,2,,,78,110
91584,note_on,2,0,1,,,,,,,,0,,,62,110
91584,note_on,2,0,6,,,,,,,,5,,,54,110
91606,note_on,22,0,1,,,,,,,,0,,,62,0
91608,note_on,2,0,1,,,,,,,,0,,,69,110
91630,note_on,46,0,3,,,,,,,,2,,,78,0
91630,note_on,22,0,1,,,,,,,,0,,,69,0
91630,note_on,46,0,5,,,,,,,,4,,,69,0
91630,note_on,46,0,7,,,,,,,,6,,,74,0
91632,note_on,2,0,3,,,,,,,,2,,,74,110
91632,note_on,2,0,5,,,,,,,,4,,,74,110
91632,note_on,2,0,7,,,,,,,,6,,,69,110
91632,note_on,2,0,1,,,,,,,,0,,,72,110
91654,note_on,22,0,1,,,,,,,,0,,,72,0
91656,note_on,2,0,1,,,,,,,,0,,,74,110
91678,note_on,22,0,1,,,,,,,,0,,,74,0
91678,note_on,94,0,6,,,,,,,,5,,,54,0
91678,note_on,94,0,8,,,,,,,,7,,,50,0
91678,note_on,46,0,7,,,,,,,,6,,,69,0
91678,note_on,46,0,5,,,,,,,,4,,,74,0
91678,note_on,94,0,4,,,,,,,,3,,,48,0
91678,note_on,46,0,3,,,,,,,,2,,,74,0
91680,note_on,2,0,5,,,,,,,,4,,,81,110
91680,note_on,2,0,1,,,,,,,,0,,,78,110
91680,note_on,2,0,6,,,,,,,,5,,,54,110
91680,note_on,2,0,4,,,,,,,,3,,,48,110
91680,note_on,2,0,3,,,,,,,,2,,,69,110
91680,note_on,2,0,7,,,,,,,,6,,,74,110
91680,note_on,2,0,8,,,,,,,,7,,,50,110
91702,note_on,22,0,1,,,,,,,,0,,,78,0
91704,note_on,2,0,1,,,,,,,,0,,,74,110
91726,note_on,46,0,7,,,,,,,,6,,,74,0
91726,note_on,46,0,3,,,,,,,,2,,,69,0
91726,note_on,46,0,5,,,,,,,,4,,,81,0
91726,note_on,22,0,1,,,,,,,,0,,,74,0
91728,note_on,2,0,3,,,,,,,,2,,,78,110
91728,note_on,2,0,5,,,,,,,,4,,,74,110
91728,note_on,2,0,1,,,,,,,,0,,,72,110
91728,note_on,2,0,7,,,,,,,,6,,,69,110
91750,note_on,22,0,1,,,,,,,,0,,,72,0
91752,note_on,2,0,1,,,,,,,,0,,,69,110
91774,note_on,94,0,6,,,,,,,,5,,,54,0
91774,note_on,46,0,3,,,,,,,,2,,,78,0
91774,note_on,94,0,4,,,,,,,,3,,,48,0
91774,note_on,46,0,7,,,,,,,,6,,,69,0
91774,note_on,22,0,1,,,,,,,,0,,,69,0
91774,note_on,46,0,5,,,,,,,,4,,,74,0
91774,note_on,94,0,8,,,,,,,,7,,,50,0
91776,note_on,2,0,6,,,,,,,,5,,,57,110
91776,note_on,2,0,7,,,,,,,,6,,,74,110
91776,note_on,2,0,8,,,,,,,,7,,,54,110
91776,note_on,2,0,4,,,,,,,,3,,,48,110
91776,note_on,2,0,5,,,,,,,,4,,,69,110
91776,note_on,2,0,3,,,,,,,,2,,,78,110
91776,note_on,2,0,1,,,,,,,,0,,,62,110
91798,note_on,22,0,1,,,,,,,,0,,,62,0
91800,note_on,2,0,1,,,,,,,,0,,,69,110
91822,note_on,46,0,7,,,,,,,,6,,,74,0
91822,note_on,22,0,1,,,,,,,,0,,,69,0
91822,note_on,46,0,5,,,,,,,,4,,,69,0
91822,note_on,46,0,3,,,,,,,,2,,,78,0
91824,note_on,2,0,1,,,,,,,,0,,,72,110
91824,note_on,2,0,3,,,,,,,,2,,,74,110
91824,note_on,2,0,7,,,,,,,,6,,,69,110
91824,note_on,2,0,5,,,,,,,,4,,,74,110
91846,note_on,22,0,1,,,,,,,,0,,,72,0
91848,note_on,2,0,1,,,,,,,,0,,,74,110
91870,note_on,94,0,6,,,,,,,,5,,,57,0
91870,note_on,46,0,3,,,,,,,,2,,,74,0
91870,note_on,22,0,1,,,,,,,,0,,,74,0
91870,note_on,94,0,4,,,,,,,,3,,,48,0
91870,note_on,46,0,7,,,,,,,,6,,,69,0
91870,note_on,94,0,8,,,,,,,,7,,,54,0
91870,note_on,46,0,5,,,,,,,,4,,,74,0
91872,note_on,2,0,5,,,,,,,,4,,,81,110
91872,note_on,2,0,6,,,,,,,,5,,,57,110
91872,note_on,2,0,4,,,,,,,,3,,,48,110
91872,note_on,2,0,8,,,,,,,,7,,,54,110
91872,note_on,2,0,3,,,,,,,,2,,,69,110
91872,note_on,2,0,1,,,,,,,,0,,,78,110
91872,note_on,2,0,7,,,,,,,,6,,,74,110
91894,note_on,22,0,1,,,,,,,,0,,,78,0
91896,note_on,2,0,1,,,,,,,,0,,,74,110
91918,note_on,46,0,5,,,,,,,,4,,,81,0
91918,note_on,46,0,3,,,,,,,,2,,,69,0
91918,note_on,22,0,1,,,,,,,,0,,,74,0
91918,note_on,46,0,7,,,,,,,,6,,,74,0
91920,note_on,2,0,5,,,,,,,,4,,,74,110
91920,note_on,2,0,3,,,,,,,,2,,,78,110
91920,note_on,2,0,1,,,,,,,,0,,,72,110
91920,note_on,2,0,7,,,,,,,,6,,,69,110
91942,note_on,22,0,1,,,,,,,,0,,,72,0
91944,note_on,2,0,1,,,,,,,,0,,,69,110
91966,note_on,94,0,8,,,,,,,,7,,,54,0
91966,note_on,46,0,5,,,,,,,,4,,,74,0
91966,note_on,94,0,4,,,,,,,,3,,,48,0
91966,note_on,22,0,1,,,,,,,,0,,,69,0
91966,note_on,46,0,7,,,,,,,,6,,,69,0
91966,note_on,94,0,6,,,,,,,,5,,,57,0
91966,note_on,46,0,3,,,,,,,,2,,,78,0
91968,note_on,2,0,1,,,,,,,,0,,,62,110
91968,note_on,2,0,3,,,,,,,,2,,,79,110
91968,note_on,2,0,4,,,,,,,,3,,,47,110
91968,note_on,2,0,7,,,,,,,,6,,,74,110
91968,note_on,2,0,8,,,,,,,,7,,,59,110
91968,note_on,2,0,6,,,,,,,,5,,,50,110
91968,note_on,2,0,5,,,,,,,,4,,,71,110
91990,note_on,22,0,1,,,,,,,,0,,,62,0
91992,note_on,2,0,1,,,,,,,,0,,,67,110
92014,note_on,22,0,1,,,,,,,,0,,,67,0
92014,note_on,46,0,3,,,,,,,,2,,,79,0
92014,note_on,46,0,7,,,,,,,,6,,,74,0
92014,note_on,46,0,5,,,,,,,,4,,,71,0
92016,note_on,2,0,3,,,,,,,,2,,,74,110
92016,note_on,2,0,1,,,,,,,,0,,,71,110
92016,note_on,2,0,7,,,,,,,,6,,,71,110
92016,note_on,2,0,5,,,,,,,,4,,,74,110
92038,note_on,22,0,1,,,,,,,,0,,,71,0
92040,note_on,2,0,1,,,,,,,,0,,,74,110
92062,note_on,46,0,3,,,,,,,,2,,,74,0
92062,note_on,22,0,1,,,,,,,,0,,,74,0
92062,note_on,46,0,5,,,,,,,,4,,,74,0
92062,note_on,94,0,8,,,,,,,,7,,,59,0
92062,note_on,46,0,7,,,,,,,,6,,,71,0
92062,note_on,94,0,4,,,,,,,,3,,,47,0
92062,note_on,94,0,6,,,,,,,,5,,,50,0
92064,note_on,2,0,6,,,,,,,,5,,,50,110
92064,note_on,2,0,5,,,,,,,,4,,,79,110
92064,note_on,2,0,4,,,,,,,,3,,,47,110
92064,note_on,2,0,1,,,,,,,,0,,,79,110
92064,note_on,2,0,7,,,,,,,,6,,,74,110
92064,note_on,2,0,3,,,,,,,,2,,,71,110
92064,note_on,2,0,8,,,,,,,,7,,,59,110
92086,note_on,22,0,1,,,,,,,,0,,,79,0
92088,note_on,2,0,1,,,,,,,,0,,,74,110
92110,note_on,46,0,3,,,,,,,,2,,,71,0
92110,note_on,22,0,1,,,,,,,,0,,,74,0
92110,note_on,46,0,7,,,,,,,,6,,,74,0
92110,note_on,46,0,5,,,,,,,,4,,,79,0
92112,note_on,2,0,1,,,,,,,,0,,,71,110
92112,note_on,2,0,7,,,,,,,,6,,,71,110
92112,note_on,2,0,3,,,,,,,,2,,,79,110
92112,note_on,2,0,5,,,,,,,,4,,,74,110
92134,note_on,22,0,1,,,,,,,,0,,,71,0
92136,note_on,2,0,1,,,,,,,,0,,,67,110
92158,note_on,46,0,7,,,,,,,,6,,,71,0
92158,note_on,94,0,4,,,,,,,,3,,,47,0
92158,note_on,22,0,1,,,,,,,,0,,,67,0
92158,note_on,46,0,3,,,,,,,,2,,,79,0
92158,note_on,94,0,8,,,,,,,,7,,,59,0
92158,note_on,94,0,6,,,,,,,,5,,,50,0
92158,note_on,46,0,5,,,,,,,,4,,,74,0
92160,note_on,2,0,6,,,,,,,,5,,,55,110
92160,note_on,2,0,1,,,,,,,,0,,,62,110
92160,note_on,2,0,3,,,,,,,,2,,,79,110
92160,note_on,2,0,8,,,,,,,,7,,,59,110
92160,note_on,2,0,4,,,,,,,,3,,,47,110
92160,note_on,2,0,7,,,,,,,,6,,,74,110
92160,note_on,2,0,5,,,,,,,,4,,,71,110
92182,note_on,22,0,1,,,,,,,,0,,,62,0
92184,note_on,2,0,1,,,,,,,,0,,,67,110
92206,note_on,46,0,3,,,,,,,,2,,,79,0
92206,note_on,46,0,7,,,,,,,,6,,,74,0
92206,note_on,22,0,1,,,,,,,,0,,,67,0
92206,note_on,46,0,5,,,,,,,,4,,,71,0
92208,note_on,2,0,3,,,,,,,,2,,,74,110
92208,note_on,2,0,7,,,,,,,,6,,,71,110
92208,note_on,2,0,1,,,,,,,,0,,,71,110
92208,note_on,2,0,5,,,,,,,,4,,,74,110
92230,note_on,22,0,1,,,,,,,,0,,,71,0
92232,note_on,2,0,1,,,,,,,,0,,,74,110
92254,note_on,46,0,5,,,,,,,,4,,,74,0
92254,note_on,22,0,1,,,,,,,,0,,,74,0
92254,note_on,94,0,6,,,,,,,,5,,,55,0
92254,note_on,46,0,3,,,,,,,,2,,,74,0
92254,note_on,94,0,4,,,,,,,,3,,,47,0
92254,note_on,94,0,8,,,,,,,,7,,,59,0
92254,note_on,46,0,7,,,,,,,,6,,,71,0
92256,note_on,2,0,5,,,,,,,,4,,,79,110
92256,note_on,2,0,3,,,,,,,,2,,,71,110
92256,note_on,2,0,4,,,,,,,,3,,,47,110
92256,note_on,2,0,8,,,,,,,,7,,,59,110
92256,note_on,2,0,7,,,,,,,,6,,,74,110
92256,note_on,2,0,6,,,,,,,,5,,,55,110
92256,note_on,2,0,1,,,,,,,,0,,,79,110
92278,note_on,22,0,1,,,,,,,,0,,,79,0
92280,note_on,2,0,1,,,,,,,,0,,,74,110
92302,note_on,46,0,7,,,,,,,,6,,,74,0
92302,note_on,22,0,1,,,,,,,,0,,,74,0
92302,note_on,46,0,5,,,,,,,,4,,,79,0
92302,note_on,46,0,3,,,,,,,,2,,,71,0
92304,note_on,2,0,1,,,,,,,,0,,,71,110
92304,note_on,2,0,5,,,,,,,,4,,,74,110
92304,note_on,2,0,7,,,,,,,,6,,,71,110
92304,note_on,2,0,3,,,,,,,,2,,,79,110
92326,note_on,22,0,1,,,,,,,,0,,,71,0
92328,note_on,2,0,1,,,,,,,,0,,,67,110
92350,note_on,46,0,5,,,,,,,,4,,,74,0
92350,note_on,22,0,1,,,,,,,,0,,,67,0
92350,note_on,46,0,7,,,,,,,,6,,,71,0
92350,note_on,94,0,6,,,,,,,,5,,,55,0
92350,note_on,94,0,4,,,,,,,,3,,,47,0
92350,note_on,46,0,3,,,,,,,,2,,,79,0
92350,note_on,94,0,8,,,,,,,,7,,,59,0
92352,note_on,2,0,8,,,,,,,,7,,,59,110
92352,note_on,2,0,5,,,,,,,,4,,,71,110
92352,note_on,2,0,6,,,,,,,,5,,,62,110
92352,note_on,2,0,1,,,,,,,,0,,,62,110
92352,note_on,2,0,3,,,,,,,,2,,,79,110
92352,note_on,2,0,7,,,,,,,,6,,,74,110
92352,note_on,2,0,4,,,,,,,,3,,,47,110
92374,note_on,22,0,1,,,,,,,,0,,,62,0
92376,note_on,2,0,1,,,,,,,,0,,,67,110
92398,note_on,46,0,7,,,,,,,,6,,,74,0
92398,note_on,46,0,5,,,,,,,,4,,,71,0
92398,note_on,22,0,1,,,,,,,,0,,,67,0
92398,note_on,46,0,3,,,,,,,,2,,,79,0
92400,note_on,2,0,5,,,,,,,,4,,,74,110
92400,note_on,2,0,7,,,,,,,,6,,,71,110
92400,note_on,2,0,1,,,,,,,,0,,,71,110
92400,note_on,2,0,3,,,,,,,,2,,,74,110
92422,note_on,22,0,1,,,,,,,,0,,,71,0
92424,note_on,2,0,1,,,,,,,,0,,,74,110
92446,note_on,94,0,6,,,,,,,,5,,,62,0
92446,note_on,46,0,5,,,,,,,,4,,,74,0
92446,note_on,94,0,8,,,,,,,,7,,,59,0
92446,note_on,22,0,1,,,,,,,,0,,,74,0
92446,note_on,46,0,7,,,,,,,,6,,,71,0
92446,note_on,94,0,4,,,,,,,,3,,,47,0
92446,note_on,46,0,3,,,,,,,,2,,,74,0
92448,note_on,2,0,5,,,,,,,,4,,,79,110
92448,note_on,2,0,4,,,,,,,,3,,,47,110
92448,note_on,2,0,1,,,,,,,,0,,,79,110
92448,note_on,2,0,6,,,,,,,,5,,,62,110
92448,note_on,2,0,7,,,,,,,,6,,,74,110
92448,note_on,2,0,3,,,,,,,,2,,,71,110
92448,note_on,2,0,8,,,,,,,,7,,,59,110
92470,note_on,22,0,1,,,,,,,,0,,,79,0
92472,note_on,2,0,1,,,,,,,,0,,,74,110
92494,note_on,22,0,1,,,,,,,,0,,,74,0
92494,note_on,46,0,5,,,,,,,,4,,,79,0
92494,note_on,46,0,3,,,,,,,,2,,,71,0
92494,note_on,46,0,7,,,,,,,,6,,,74,0
92496,note_on,2,0,1,,,,,,,,0,,,71,110
92496,note_on,2,0,7,,,,,,,,6,,,71,110
92496,note_on,2,0,3,,,,,,,,2,,,79,110
92496,note_on,2,0,5,,,,,,,,4,,,74,110
92518,note_on,22,0,1,,,,,,,,0,,,71,0
92520,note_on,2,0,1,,,,,,,,0,,,67,110
92542,note_on,94,0,4,,,,,,,,3,,,47,0
92542,note_on,46,0,3,,,,,,,,2,,,79,0
92542,note_on,22,0,1,,,,,,,,0,,,67,0
92542,note_on,46,0,5,,,,,,,,4,,,74,0
92542,note_on,94,0,6,,,,,,,,5,,,62,0
92542,note_on,94,0,8,,,,,,,,7,,,59,0
92542,note_on,46,0,7,,,,,,,,6,,,71,0
92544,note_on,2,0,7,,,,,,,,6,,,74,110
92544,note_on,2,0,8,,,,,,,,7,,,59,110
92544,note_on,2,0,1,,,,,,,,0,,,64,110
92544,note_on,2,0,3,,,,,,,,2,,,80,110
92544,note_on,2,0,6,,,,,,,,5,,,64,110
92544,note_on,2,0,5,,,,,,,,4,,,71,110
92544,note_on,2,0,4,,,,,,,,3,,,52,110
92566,note_on,22,0,1,,,,,,,,0,,,64,0
92568,note_on,2,0,1,,,,,,,,0,,,71,110
92590,note_on,46,0,3,,,,,,,,2,,,80,0
92590,note_on,46,0,5,,,,,,,,4,,,71,0
92590,note_on,22,0,1,,,,,,,,0,,,71,0
92590,note_on,46,0,7,,,,,,,,6,,,74,0
92592,note_on,2,0,3,,,,,,,,2,,,74,110
92592,note_on,2,0,5,,,,,,,,4,,,74,110
92592,note_on,2,0,7,,,,,,,,6,,,71,110
92592,note_on,2,0,1,,,,,,,,0,,,74,110
92614,note_on,22,0,1,,,,,,,,0,,,74,0
92616,note_on,2,0,1,,,,,,,,0,,,76,110
92638,note_on,22,0,1,,,,,,,,0,,,76,0
92638,note_on,46,0,3,,,,,,,,2,,,74,0
92638,note_on,46,0,5,,,,,,,,4,,,74,0
92638,note_on,94,0,8,,,,,,,,7,,,59,0
92638,note_on,46,0,7,,,,,,,,6,,,71,0
92638,note_on,94,0,4,,,,,,,,3,,,52,0
92638,note_on,94,0,6,,,,,,,,5,,,64,0
92640,note_on,2,0,4,,,,,,,,3,,,52,110
92640,note_on,2,0,3,,,,,,,,2,,,71,110
92640,note_on,2,0,6,,,,,,,,5,,,64,110
92640,note_on,2,0,8,,,,,,,,7,,,59,110
92640,note_on,2,0,7,,,,,,,,6,,,74,110
92640,note_on,2,0,5,,,,,,,,4,,,80,110
92640,note_on,2,0,1,,,,,,,,0,,,80,110
92662,note_on,22,0,1,,,,,,,,0,,,80,0
92664,note_on,2,0,1,,,,,,,,0,,,76,110
92686,note_on,46,0,3,,,,,,,,2,,,71,0
92686,note_on,46,0,5,,,,,,,,4,,,80,0
92686,note_on,46,0,7,,,,,,,,6,,,74,0
92686,note_on,22,0,1,,,,,,,,0,,,76,0
92688,note_on,2,0,5,,,,,,,,4,,,74,110
92688,note_on,2,0,3,,,,,,,,2,,,80,110
92688,note_on,2,0,7,,,,,,,,6,,,71,110
92688,note_on,2,0,1,,,,,,,,0,,,74,110
92710,note_on,22,0,1,,,,,,,,0,,,74,0
92712,note_on,2,0,1,,,,,,,,0,,,71,110
92734,note_on,46,0,5,,,,,,,,4,,,74,0
92734,note_on,94,0,6,,,,,,,,5,,,64,0
92734,note_on,46,0,3,,,,,,,,2,,,80,0
92734,note_on,22,0,1,,,,,,,,0,,,71,0
92734,note_on,46,0,7,,,,,,,,6,,,71,0
92734,note_on,94,0,8,,,,,,,,7,,,59,0
92734,note_on,94,0,4,,,,,,,,3,,,52,0
92736,note_on,2,0,4,,,,,,,,3,,,52,110
92736,note_on,2,0,1,,,,,,,,0,,,64,110
92736,note_on,2,0,8,,,,,,,,7,,,56,110
92736,note_on,2,0,5,,,,,,,,4,,,71,110
92736,note_on,2,0,6,,,,,,,,5,,,64,110
92736,note_on,2,0,3,,,,,,,,2,,,80,110
92736,note_on,2,0,7,,,,,,,,6,,,74,110
92758,note_on,22,0,1,,,,,,,,0,,,64,0
92760,note_on,2,0,1,,,,,,,,0,,,71,110
92782,note_on,22,0,1,,,,,,,,0,,,71,0
92782,note_on,46,0,7,,,,,,,,6,,,74,0
92782,note_on,46,0,5,,,,,,,,4,,,71,0
92782,note_on,46,0,3,,,,,,,,2,,,80,0
92784,note_on,2,0,1,,,,,,,,0,,,74,110
92784,note_on,2,0,7,,,,,,,,6,,,71,110
92784,note_on,2,0,5,,,,,,,,4,,,74,110
92784,note_on,2,0,3,,,,,,,,2,,,74,110
92806,note_on,22,0,1,,,,,,,,0,,,74,0
92808,note_on,2,0,1,,,,,,,,0,,,76,110
92830,note_on,46,0,5,,,,,,,,4,,,74,0
92830,note_on,94,0,8,,,,,,,,7,,,56,0
92830,note_on,94,0,6,,,,,,,,5,,,64,0
92830,note_on,46,0,3,,,,,,,,2,,,74,0
92830,note_on,22,0,1,,,,,,,,0,,,76,0
92830,note_on,46,0,7,,,,,,,,6,,,71,0
92830,note_on,94,0,4,,,,,,,,3,,,52,0
92832,note_on,2,0,6,,,,,,,,5,,,64,110
92832,note_on,2,0,1,,,,,,,,0,,,80,110
92832,note_on,2,0,3,,,,,,,,2,,,71,110
92832,note_on,2,0,8,,,,,,,,7,,,56,110
92832,note_on,2,0,5,,,,,,,,4,,,80,110
92832,note_on,2,0,4,,,,,,,,3,,,52,110
92832,note_on,2,0,7,,,,,,,,6,,,74,110
92854,note_on,22,0,1,,,,,,,,0,,,80,0
92856,note_on,2,0,1,,,,,,,,0,,,76,110
92878,note_on,46,0,5,,,,,,,,4,,,80,0
92878,note_on,46,0,3,,,,,,,,2,,,71,0
92878,note_on,22,0,1,,,,,,,,0,,,76,0
92878,note_on,46,0,7,,,,,,,,6,,,74,0
92880,note_on,2,0,5,,,,,,,,4,,,74,110
92880,note_on,2,0,1,,,,,,,,0,,,74,110
92880,note_on,2,0,3,,,,,,,,2,,,80,110
92880,note_on,2,0,7,,,,,,,,6,,,71,110
92902,note_on,22,0,1,,,,,,,,0,,,74,0
92904,note_on,2,0,1,,,,,,,,0,,,71,110
92926,note_on,46,0,5,,,,,,,,4,,,74,0
92926,note_on,94,0,8,,,,,,,,7,,,56,0
92926,note_on,94,0,4,,,,,,,,3,,,52,0
92926,note_on,46,0,3,,,,,,,,2,,,80,0
92926,note_on,94,0,6,,,,,,,,5,,,64,0
92926,note_on,46,0,7,,,,,,,,6,,,71,0
92926,note_on,22,0,1,,,,,,,,0,,,71,0
92928,note_on,2,0,1,,,,,,,,0,,,64,110
92928,note_on,2,0,4,,,,,,,,3,,,52,110
92928,note_on,2,0,7,,,,,,,,6,,,74,110
92928,note_on,2,0,8,,,,,,,,7,,,52,110
92928,note_on,2,0,6,,,,,,,,5,,,64,110
92928,note_on,2,0,3,,,,,,,,2,,,80,110
92928,note_on,2,0,5,,,,,,,,4,,,71,110
92950,note_on,22,0,1,,,,,,,,0,,,64,0
92952,note_on,2,0,1,,,,,,,,0,,,71,110
92974,note_on,22,0,1,,,,,,,,0,,,71,0
92974,note_on,46,0,3,,,,,,,,2,,,80,0
92974,note_on,46,0,5,,,,,,,,4,,,71,0
92974,note_on,46,0,7,,,,,,,,6,,,74,0
92976,note_on,2,0,3,,,,,,,,2,,,74,110
92976,note_on,2,0,5,,,,,,,,4,,,74,110
92976,note_on,2,0,7,,,,,,,,6,,,71,110
92976,note_on,2,0,1,,,,,,,,0,,,74,110
92998,note_on,22,0,1,,,,,,,,0,,,74,0
93000,note_on,2,0,1,,,,,,,,0,,,76,110
93022,note_on,46,0,3,,,,,,,,2,,,74,0
93022,note_on,94,0,6,,,,,,,,5,,,64,0
93022,note_on,46,0,7,,,,,,,,6,,,71,0
93022,note_on,94,0,4,,,,,,,,3,,,52,0
93022,note_on,94,0,8,,,,,,,,7,,,52,0
93022,note_on,22,0,1,,,,,,,,0,,,76,0
93022,note_on,46,0,5,,,,,,,,4,,,74,0
93024,note_on,2,0,8,,,,,,,,7,,,52,110
93024,note_on,2,0,3,,,,,,,,2,,,71,110
93024,note_on,2,0,4,,,,,,,,3,,,52,110
93024,note_on,2,0,1,,,,,,,,0,,,80,110
93024,note_on,2,0,7,,,,,,,,6,,,74,110
93024,note_on,2,0,5,,,,,,,,4,,,80,110
93024,note_on,2,0,6,,,,,,,,5,,,64,110
93046,note_on,22,0,1,,,,,,,,0,,,80,0
93048,note_on,2,0,1,,,,,,,,0,,,76,110
93070,note_on,22,0,1,,,,,,,,0,,,76,0
93070,note_on,46,0,7,,,,,,,,6,,,74,0
93070,note_on,46,0,5,,,,,,,,4,,,80,0
93070,note_on,46,0,3,,,,,,,,2,,,71,0
93072,note_on,2,0,5,,,,,,,,4,,,74,110
93072,note_on,2,0,3,,,,,,,,2,,,80,110
93072,note_on,2,0,1,,,,,,,,0,,,74,110
93072,note_on,2,0,7,,,,,,,,6,,,71,110
93094,note_on,22,0,1,,,,,,,,0,,,74,0
93096,note_on,2,0,1,,,,,,,,0,,,71,110
93118,note_on,46,0,3,,,,,,,,2,,,80,0
93118,note_on,46,0,5,,,,,,,,4,,,74,0
93118,note_on,22,0,1,,,,,,,,0,,,71,0
93118,note_on,94,0,8,,,,,,,,7,,,52,0
93118,note_on,94,0,4,,,,,,,,3,,,52,0
93118,note_on,94,0,6,,,,,,,,5,,,64,0
93118,note_on,46,0,7,,,,,,,,6,,,71,0
93120,note_on,2,0,7,,,,,,,,6,,,76,110
93120,note_on,2,0,8,,,,,,,,7,,,60,110
93120,note_on,2,0,6,,,,,,,,5,,,64,110
93120,note_on,2,0,1,,,,,,,,0,,,64,110
93120,note_on,2,0,4,,,,,,,,3,,,45,110
93120,note_on,2,0,3,,,,,,,,2,,,81,110
93120,note_on,2,0,5,,,,,,,,4,,,72,110
93142,note_on,22,0,1,,,,,,,,0,,,64,0
93144,note_on,2,0,1,,,,,,,,0,,,69,110
93166,note_on,46,0,7,,,,,,,,6,,,76,0
93166,note_on,22,0,1,,,,,,,,0,,,69,0
93166,note_on,46,0,3,,,,,,,,2,,,81,0
93166,note_on,46,0,5,,,,,,,,4,,,72,0
93168,note_on,2,0,1,,,,,,,,0,,,72,110
93168,note_on,2,0,7,,,,,,,,6,,,72,110
93168,note_on,2,0,3,,,,,,,,2,,,76,110
93168,note_on,2,0,5,,,,,,,,4,,,76,110
93190,note_on,22,0,1,,,,,,,,0,,,72,0
93192,note_on,2,0,1,,,,,,,,0,,,76,110
93214,note_on,46,0,5,,,,,,,,4,,,76,0
93214,note_on,46,0,7,,,,,,,,6,,,72,0
93214,note_on,94,0,6,,,,,,,,5,,,64,0
93214,note_on,46,0,3,,,,,,,,2,,,76,0
93214,note_on,94,0,4,,,,,,,,3,,,45,0
93214,note_on,22,0,1,,,,,,,,0,,,76,0
93214,note_on,94,0,8,,,,,,,,7,,,60,0
93216,note_on,2,0,6,,,,,,,,5,,,64,110
93216,note_on,2,0,3,,,,,,,,2,,,72,110
93216,note_on,2,0,7,,,,,,,,6,,,76,110
93216,note_on,2,0,8,,,,,,,,7,,,60,110
93216,note_on,2,0,5,,,,,,,,4,,,81,110
93216,note_on,2,0,1,,,,,,,,0,,,81,110
93216,note_on,2,0,4,,,,,,,,3,,,45,110
93238,note_on,22,0,1,,,,,,,,0,,,81,0
93240,note_on,2,0,1,,,,,,,,0,,,76,110
93262,note_on,46,0,7,,,,,,,,6,,,76,0
93262,note_on,22,0,1,,,,,,,,0,,,76,0
93262,note_on,46,0,3,,,,,,,,2,,,72,0
93262,note_on,46,0,5,,,,,,,,4,,,81,0
93264,note_on,2,0,7,,,,,,,,6,,,72,110
93264,note_on,2,0,3,,,,,,,,2,,,81,110
93264,note_on,2,0,1,,,,,,,,0,,,72,110
93264,note_on,2,0,5,,,,,,,,4,,,76,110
93286,note_on,22,0,1,,,,,,,,0,,,72,0
93288,note_on,2,0,1,,,,,,,,0,,,69,110
93310,note_on,94,0,6,,,,,,,,5,,,64,0
93310,note_on,94,0,8,,,,,,,,7,,,60,0
93310,note_on,46,0,7,,,,,,,,6,,,72,0
93310,note_on,46,0,5,,,,,,,,4,,,76,0
93310,note_on,94,0,4,,,,,,,,3,,,45,0
93310,note_on,22,0,1,,,,,,,,0,,,69,0
93310,note_on,46,0,3,,,,,,,,2,,,81,0
93312,note_on,2,0,7,,,,,,,,6,,,76,110
93312,note_on,2,0,5,,,,,,,,4,,,72,110
93312,note_on,2,0,4,,,,,,,,3,,,45,110
93312,note_on,2,0,8,,,,,,,,7,,,60,110
93312,note_on,2,0,6,,,,,,,,5,,,64,110
93312,note_on,2,0,1,,,,,,,,0,,,64,110
93312,note_on,2,0,3,,,,,,,,2,,,81,110
93334,note_on,22,0,1,,,,,,,,0,,,64,0
93336,note_on,2,0,1,,,,,,,,0,,,69,110
93358,note_on,46,0,3,,,,,,,,2,,,81,0
93358,note_on,46,0,5,,,,,,,,4,,,72,0
93358,note_on,22,0,1,,,,,,,,0,,,69,0
93358,note_on,46,0,7,,,,,,,,6,,,76,0
93360,note_on,2,0,7,,,,,,,,6,,,72,110
93360,note_on,2,0,1,,,,,,,,0,,,72,110
93360,note_on,2,0,3,,,,,,,,2,,,76,110
93360,note_on,2,0,5,,,,,,,,4,,,76,110
93382,note_on,22,0,1,,,,,,,,0,,,72,0
93384,note_on,2,0,1,,,,,,,,0,,,76,110
93406,note_on,94,0,4,,,,,,,,3,,,45,0
93406,note_on,22,0,1,,,,,,,,0,,,76,0
93406,note_on,46,0,7,,,,,,,,6,,,72,0
93406,note_on,46,0,3,,,,,,,,2,,,76,0
93406,note_on,94,0,8,,,,,,,,7,,,60,0
93406,note_on,94,0,6,,,,,,,,5,,,64,0
93406,note_on,46,0,5,,,,,,,,4,,,76,0
93408,note_on,2,0,5,,,,,,,,4,,,81,110
93408,note_on,2,0,6,,,,,,,,5,,,64,110
93408,note_on,2,0,8,,,,,,,,7,,,60,110
93408,note_on,2,0,4,,,,,,,,3,,,45,110
93408,note_on,2,0,7,,,,,,,,6,,,76,110
93408,note_on,2,0,1,,,,,,,,0,,,81,110
93408,note_on,2,0,3,,,,,,,,2,,,72,110
93430,note_on,22,0,1,,,,,,,,0,,,81,0
93432,note_on,2,0,1,,,,,,,,0,,,76,110
93454,note_on,46,0,3,,,,,,,,2,,,72,0
93454,note_on,22,0,1,,,,,,,,0,,,76,0
93454,note_on,46,0,5,,,,,,,,4,,,81,0
93454,note_on,46,0,7,,,,,,,,6,,,76,0
93456,note_on,2,0,7,,,,,,,,6,,,72,110
93456,note_on,2,0,3,,,,,,,,2,,,81,110
93456,note_on,2,0,1,,,,,,,,0,,,72,110
93456,note_on,2,0,5,,,,,,,,4,,,76,110
93478,note_on,22,0,1,,,,,,,,0,,,72,0
93480,note_on,2,0,1,,,,,,,,0,,,69,110
93502,note_on,94,0,6,,,,,,,,5,,,64,0
93502,note_on,94,0,4,,,,,,,,3,,,45,0
93502,note_on,46,0,7,,,,,,,,6,,,72,0
93502,note_on,46,0,5,,,,,,,,4,,,76,0
93502,note_on,22,0,1,,,,,,,,0,,,69,0
93502,note_on,46,0,3,,,,,,,,2,,,81,0
93502,note_on,94,0,8,,,,,,,,7,,,60,0
93504,note_on,2,0,3,,,,,,,,2,,,81,110
93504,note_on,2,0,4,,,,,,,,3,,,57,110
93504,note_on,2,0,5,,,,,,,,4,,,72,110
93504,note_on,2,0,8,,,,,,,,7,,,60,110
93504,note_on,2,0,6,,,,,,,,5,,,64,110
93504,note_on,2,0,7,,,,,,,,6,,,76,110
93504,note_on,2,0,1,,,,,,,,0,,,64,110
93526,note_on,22,0,1,,,,,,,,0,,,64,0
93528,note_on,2,0,1,,,,,,,,0,,,69,110
93550,note_on,46,0,3,,,,,,,,2,,,81,0
93550,note_on,22,0,1,,,,,,,,0,,,69,0
93550,note_on,46,0,5,,,,,,,,4,,,72,0
93550,note_on,46,0,7,,,,,,,,6,,,76,0
93552,note_on,2,0,5,,,,,,,,4,,,76,110
93552,note_on,2,0,3,,,,,,,,2,,,76,110
93552,note_on,2,0,7,,,,,,,,6,,,72,110
93552,note_on,2,0,1,,,,,,,,0,,,72,110
93574,note_on,22,0,1,,,,,,,,0,,,72,0
93576,note_on,2,0,1,,,,,,,,0,,,76,110
93598,note_on,46,0,7,,,,,,,,6,,,72,0
93598,note_on,94,0,6,,,,,,,,5,,,64,0
93598,note_on,46,0,3,,,,,,,,2,,,76,0
93598,note_on,94,0,8,,,,,,,,7,,,60,0
93598,note_on,46,0,5,,,,,,,,4,,,76,0
93598,note_on,94,0,4,,,,,,,,3,,,57,0
93598,note_on,22,0,1,,,,,,,,0,,,76,0
93600,note_on,2,0,5,,,,,,,,4,,,81,110
93600,note_on,2,0,3,,,,,,,,2,,,72,110
93600,note_on,2,0,8,,,,,,,,7,,,60,110
93600,note_on,2,0,1,,,,,,,,0,,,81,110
93600,note_on,2,0,4,,,,,,,,3,,,57,110
93600,note_on,2,0,7,,,,,,,,6,,,76,110
93600,note_on,2,0,6,,,,,,,,5,,,64,110
93622,note_on,22,0,1,,,,,,,,0,,,81,0
93624,note_on,2,0,1,,,,,,,,0,,,76,110
93646,note_on,46,0,3,,,,,,,,2,,,72,0
93646,note_on,46,0,5,,,,,,,,4,,,81,0
93646,note_on,46,0,7,,,,,,,,6,,,76,0
93646,note_on,22,0,1,,,,,,,,0,,,76,0
93648,note_on,2,0,7,,,,,,,,6,,,72,110
93648,note_on,2,0,1,,,,,,,,0,,,72,110
93648,note_on,2,0,5,,,,,,,,4,,,76,110
93648,note_on,2,0,3,,,,,,,,2,,,81,110
93670,note_on,22,0,1,,,,,,,,0,,,72,0
93672,note_on,2,0,1,,,,,,,,0,,,69,110
93694,note_on,46,0,3,,,,,,,,2,,,81,0
93694,note_on,46,0,5,,,,,,,,4,,,76,0
93694,note_on,22,0,1,,,,,,,,0,,,69,0
93694,note_on,94,0,4,,,,,,,,3,,,57,0
93694,note_on,46,0,7,,,,,,,,6,,,72,0
93694,note_on,94,0,8,,,,,,,,7,,,60,0
93694,note_on,94,0,6,,,,,,,,5,,,64,0
93696,note_on,2,0,5,,,,,,,,4,,,72,110
93696,note_on,2,0,6,,,,,,,,5,,,57,110
93696,note_on,2,0,4,,,,,,,,3,,,51,110
93696,note_on,2,0,8,,,,,,,,7,,,60,110
93696,note_on,2,0,7,,,,,,,,6,,,78,110
93696,note_on,2,0,1,,,,,,,,0,,,66,110
93696,note_on,2,0,3,,,,,,,,2,,,81,110
93718,note_on,22,0,1,,,,,,,,0,,,66,0
93720,note_on,2,0,1,,,,,,,,0,,,69,110
93742,note_on,46,0,7,,,,,,,,6,,,78,0
93742,note_on,46,0,5,,,,,,,,4,,,72,0
93742,note_on,46,0,3,,,,,,,,2,,,81,0
93742,note_on,22,0,1,,,,,,,,0,,,69,0
93744,note_on,2,0,7,,,,,,,,6,,,75,110
93744,note_on,2,0,1,,,,,,,,0,,,72,110
93744,note_on,2,0,5,,,,,,,,4,,,78,110
93744,note_on,2,0,3,,,,,,,,2,,,78,110
93766,note_on,22,0,1,,,,,,,,0,,,72,0
93768,note_on,2,0,1,,,,,,,,0,,,75,110
93790,note_on,22,0,1,,,,,,,,0,,,75,0
93790,note_on,94,0,8,,,,,,,,7,,,60,0
93790,note_on,94,0,6,,,,,,,,5,,,57,0
93790,note_on,46,0,3,,,,,,,,2,,,78,0
93790,note_on,46,0,5,,,,,,,,4,,,78,0
93790,note_on,46,0,7,,,,,,,,6,,,75,0
93790,note_on,94,0,4,,,,,,,,3,,,51,0
93792,note_on,2,0,4,,,,,,,,3,,,51,110
93792,note_on,2,0,6,,,,,,,,5,,,57,110
93792,note_on,2,0,8,,,,,,,,7,,,60,110
93792,note_on,2,0,1,,,,,,,,0,,,81,110
93792,note_on,2,0,7,,,,,,,,6,,,78,110
93792,note_on,2,0,3,,,,,,,,2,,,72,110
93792,note_on,2,0,5,,,,,,,,4,,,81,110
93814,note_on,22,0,1,,,,,,,,0,,,81,0
93816,note_on,2,0,1,,,,,,,,0,,,75,110
93838,note_on,22,0,1,,,,,,,,0,,,75,0
93838,note_on,46,0,3,,,,,,,,2,,,72,0
93838,note_on,46,0,7,,,,,,,,6,,,78,0
93838,note_on,46,0,5,,,,,,,,4,,,81,0
93840,note_on,2,0,1,,,,,,,,0,,,72,110
93840,note_on,2,0,7,,,,,,,,6,,,75,110
93840,note_on,2,0,3,,,,,,,,2,,,81,110
93840,note_on,2,0,5,,,,,,,,4,,,78,110
93862,note_on,22,0,1,,,,,,,,0,,,72,0
93864,note_on,2,0,1,,,,,,,,0,,,69,110
93886,note_on,46,0,7,,,,,,,,6,,,75,0
93886,note_on,46,0,3,,,,,,,,2,,,81,0
93886,note_on,94,0,8,,,,,,,,7,,,60,0
93886,note_on,22,0,1,,,,,,,,0,,,69,0
93886,note_on,94,0,6,,,,,,,,5,,,57,0
93886,note_on,46,0,5,,,,,,,,4,,,78,0
93886,note_on,94,0,4,,,,,,,,3,,,51,0
93888,note_on,2,0,6,,,,,,,,5,,,57,110
93888,note_on,2,0,5,,,,,,,,4,,,72,110
93888,note_on,2,0,4,,,,,,,,3,,,51,110
93888,note_on,2,0,1,,,,,,,,0,,,66,110
93888,note_on,2,0,7,,,,,,,,6,,,78,110
93888,note_on,2,0,8,,,,,,,,7,,,60,110
93888,note_on,2,0,3,,,,,,,,2,,,81,110
93910,note_on,22,0,1,,,,,,,,0,,,66,0
93912,note_on,2,0,1,,,,,,,,0,,,69,110
93934,note_on,46,0,5,,,,,,,,4,,,72,0
93934,note_on,46,0,3,,,,,,,,2,,,81,0
93934,note_on,22,0,1,,,,,,,,0,,,69,0
93934,note_on,46,0,7,,,,,,,,6,,,78,0
93936,note_on,2,0,7,,,,,,,,6,,,75,110
93936,note_on,2,0,1,,,,,,,,0,,,72,110
93936,note_on,2,0,3,,,,,,,,2,,,78,110
93936,note_on,2,0,5,,,,,,,,4,,,78,110
93958,note_on,22,0,1,,,,,,,,0,,,72,0
93960,note_on,2,0,1,,,,,,,,0,,,75,110
93982,note_on,94,0,8,,,,,,,,7,,,60,0
93982,note_on,94,0,6,,,,,,,,5,,,57,0
93982,note_on,22,0,1,,,,,,,,0,,,75,0
93982,note_on,46,0,3,,,,,,,,2,,,78,0
93982,note_on,46,0,7,,,,,,,,6,,,75,0
93982,note_on,94,0,4,,,,,,,,3,,,51,0
93982,note_on,46,0,5,,,,,,,,4,,,78,0
93984,note_on,2,0,4,,,,,,,,3,,,51,110
93984,note_on,2,0,8,,,,,,,,7,,,60,110
93984,note_on,2,0,3,,,,,,,,2,,,72,110
93984,note_on,2,0,1,,,,,,,,0,,,81,110
93984,note_on,2,0,7,,,,,,,,6,,,78,110
93984,note_on,2,0,5,,,,,,,,4,,,81,110
93984,note_on,2,0,6,,,,,,,,5,,,57,110
94006,note_on,22,0,1,,,,,,,,0,,,81,0
94008,note_on,2,0,1,,,,,,,,0,,,75,110
94030,note_on,46,0,5,,,,,,,,4,,,81,0
94030,note_on,22,0,1,,,,,,,,0,,,75,0
94030,note_on,46,0,7,,,,,,,,6,,,78,0
94030,note_on,46,0,3,,,,,,,,2,,,72,0
94032,note_on,2,0,5,,,,,,,,4,,,78,110
94032,note_on,2,0,1,,,,,,,,0,,,72,110
94032,note_on,2,0,7,,,,,,,,6,,,75,110
94032,note_on,2,0,3,,,,,,,,2,,,81,110
94054,note_on,22,0,1,,,,,,,,0,,,72,0
94056,note_on,2,0,1,,,,,,,,0,,,69,110
94078,note_on,94,0,6,,,,,,,,5,,,57,0
94078,note_on,46,0,5,,,,,,,,4,,,78,0
94078,note_on,22,0,1,,,,,,,,0,,,69,0
94078,note_on,94,0,4,,,,,,,,3,,,51,0
94078,note_on,46,0,3,,,,,,,,2,,,81,0
94078,note_on,46,0,7,,,,,,,,6,,,75,0
94078,note_on,94,0,8,,,,,,,,7,,,60,0
94080,note_on,2,0,6,,,,,,,,5,,,57,110
94080,note_on,2,0,5,,,,,,,,4,,,72,110
94080,note_on,2,0,7,,,,,,,,6,,,78,110
94080,note_on,2,0,8,,,,,,,,7,,,60,110
94080,note_on,2,0,4,,,,,,,,3,,,51,110
94080,note_on,2,0,3,,,,,,,,2,,,81,110
94080,note_on,2,0,1,,,,,,,,0,,,66,110
94102,note_on,22,0,1,,,,,,,,0,,,66,0
94104,note_on,2,0,1,,,,,,,,0,,,69,110
94126,note_on,22,0,1,,,,,,,,0,,,69,0
94126,note_on,46,0,3,,,,,,,,2,,,81,0
94126,note_on,46,0,5,,,,,,,,4,,,72,0
94126,note_on,46,0,7,,,,,,,,6,,,78,0
94128,note_on,2,0,3,,,,,,,,2,,,78,110
94128,note_on,2,0,5,,,,,,,,4,,,78,110
94128,note_on,2,0,1,,,,,,,,0,,,72,110
94128,note_on,2,0,7,,,,,,,,6,,,75,110
94150,note_on,22,0,1,,,,,,,,0,,,72,0
94152,note_on,2,0,1,,,,,,,,0,,,75,110
94174,note_on,46,0,5,,,,,,,,4,,,78,0
94174,note_on,22,0,1,,,,,,,,0,,,75,0
94174,note_on,46,0,7,,,,,,,,6,,,75,0
94174,note_on,94,0,6,,,,,,,,5,,,57,0
94174,note_on,46,0,3,,,,,,,,2,,,78,0
94174,note_on,94,0,8,,,,,,,,7,,,60,0
94174,note_on,94,0,4,,,,,,,,3,,,51,0
94176,note_on,2,0,4,,,,,,,,3,,,51,110
94176,note_on,2,0,6,,,,,,,,5,,,57,110
94176,note_on,2,0,8,,,,,,,,7,,,60,110
94176,note_on,2,0,7,,,,,,,,6,,,78,110
94176,note_on,2,0,3,,,,,,,,2,,,72,110
94176,note_on,2,0,5,,,,,,,,4,,,81,110
94176,note_on,2,0,1,,,,,,,,0,,,81,110
94198,note_on,22,0,1,,,,,,,,0,,,81,0
94200,note_on,2,0,1,,,,,,,,0,,,75,110
94222,note_on,46,0,3,,,,,,,,2,,,72,0
94222,note_on,22,0,1,,,,,,,,0,,,75,0
94222,note_on,46,0,7,,,,,,,,6,,,78,0
94222,note_on,46,0,5,,,,,,,,4,,,81,0
94224,note_on,2,0,5,,,,,,,,4,,,78,110
94224,note_on,2,0,3,,,,,,,,2,,,81,110
94224,note_on,2,0,7,,,,,,,,6,,,75,110
94224,note_on,2,0,1,,,,,,,,0,,,72,110
94246,note_on,22,0,1,,,,,,,,0,,,72,0
94248,note_on,2,0,1,,,,,,,,0,,,69,110
94270,note_on,46,0,5,,,,,,,,4,,,78,0
94270,note_on,94,0,6,,,,,,,,5,,,57,0
94270,note_on,22,0,1,,,,,,,,0,,,69,0
94270,note_on,46,0,3,,,,,,,,2,,,81,0
94270,note_on,94,0,8,,,,,,,,7,,,60,0
94270,note_on,46,0,7,,,,,,,,6,,,75,0
94270,note_on,94,0,4,,,,,,,,3,,,51,0
94272,note_on,2,0,4,,,,,,,,3,,,50,110
94272,note_on,2,0,6,,,,,,,,5,,,62,110
94272,note_on,2,0,7,,,,,,,,6,,,78,110
94272,note_on,2,0,3,,,,,,,,2,,,81,110
94272,note_on,2,0,1,,,,,,,,0,,,66,110
94272,note_on,2,0,8,,,,,,,,7,,,57,110
94272,note_on,2,0,5,,,,,,,,4,,,72,110
94294,note_on,22,0,1,,,,,,,,0,,,66,0
94296,note_on,2,0,1,,,,,,,,0,,,69,110
94318,note_on,22,0,1,,,,,,,,0,,,69,0
94318,note_on,46,0,5,,,,,,,,4,,,72,0
94318,note_on,46,0,7,,,,,,,,6,,,78,0
94318,note_on,46,0,3,,,,,,,,2,,,81,0
94320,note_on,2,0,1,,,,,,,,0,,,72,110
94320,note_on,2,0,5,,,,,,,,4,,,78,110
94320,note_on,2,0,7,,,,,,,,6,,,72,110
94320,note_on,2,0,3,,,,,,,,2,,,74,110
94342,note_on,22,0,1,,,,,,,,0,,,72,0
94344,note_on,2,0,1,,,,,,,,0,,,74,110
94366,note_on,22,0,1,,,,,,,,0,,,74,0
94366,note_on,94,0,8,,,,,,,,7,,,57,0
94366,note_on,46,0,5,,,,,,,,4,,,78,0
94366,note_on,46,0,7,,,,,,,,6,,,72,0
94366,note_on,94,0,6,,,,,,,,5,,,62,0
94366,note_on,46,0,3,,,,,,,,2,,,74,0
94366,note_on,94,0,4,,,,,,,,3,,,50,0
94368,note_on,2,0,4,,,,,,,,3,,,50,110
94368,note_on,2,0,3,,,,,,,,2,,,72,110
94368,note_on,2,0,8,,,,,,,,7,,,57,110
94368,note_on,2,0,6,,,,,,,,5,,,62,110
94368,note_on,2,0,7,,,,,,,,6,,,78,110
94368,note_on,2,0,1,,,,,,,,0,,,81,110
94368,note_on,2,0,5,,,,,,,,4,,,81,110
94390,note_on,22,0,1,,,,,,,,0,,,81,0
94392,note_on,2,0,1,,,,,,,,0,,,74,110
94414,note_on,46,0,3,,,,,,,,2,,,72,0
94414,note_on,22,0,1,,,,,,,,0,,,74,0
94414,note_on,46,0,7,,,,,,,,6,,,78,0
94414,note_on,46,0,5,,,,,,,,4,,,81,0
94416,note_on,2,0,5,,,,,,,,4,,,78,110
94416,note_on,2,0,7,,,,,,,,6,,,72,110
94416,note_on,2,0,3,,,,,,,,2,,,81,110
94416,note_on,2,0,1,,,,,,,,0,,,72,110
94438,note_on,22,0,1,,,,,,,,0,,,72,0
94440,note_on,2,0,1,,,,,,,,0,,,69,110
94462,note_on,94,0,8,,,,,,,,7,,,57,0
94462,note_on,46,0,7,,,,,,,,6,,,72,0
94462,note_on,46,0,3,,,,,,,,2,,,81,0
94462,note_on,22,0,1,,,,,,,,0,,,69,0
94462,note_on,46,0,5,,,,,,,,4,,,78,0
94462,note_on,94,0,4,,,,,,,,3,,,50,0
94462,note_on,94,0,6,,,,,,,,5,,,62,0
94464,note_on,2,0,6,,,,,,,,5,,,62,110
94464,note_on,2,0,8,,,,,,,,7,,,57,110
94464,note_on,2,0,4,,,,,,,,3,,,50,110
94464,note_on,2,0,3,,,,,,,,2,,,81,110
94464,note_on,2,0,5,,,,,,,,4,,,72,110
94464,note_on,2,0,7,,,,,,,,6,,,78,110
94464,note_on,2,0,1,,,,,,,,0,,,66,110
94486,note_on,22,0,1,,,,,,,,0,,,66,0
94488,note_on,2,0,1,,,,,,,,0,,,69,110
94510,note_on,46,0,3,,,,,,,,2,,,81,0
94510,note_on,22,0,1,,,,,,,,0,,,69,0
94510,note_on,46,0,5,,,,,,,,4,,,72,0
94510,note_on,46,0,7,,,,,,,,6,,,78,0
94512,note_on,2,0,5,,,,,,,,4,,,78,110
94512,note_on,2,0,1,,,,,,,,0,,,72,110
94512,note_on,2,0,7,,,,,,,,6,,,72,110
94512,note_on,2,0,3,,,,,,,,2,,,74,110
94534,note_on,22,0,1,,,,,,,,0,,,72,0
94536,note_on,2,0,1,,,,,,,,0,,,74,110
94558,note_on,94,0,4,,,,,,,,3,,,50,0
94558,note_on,22,0,1,,,,,,,,0,,,74,0
94558,note_on,46,0,7,,,,,,,,6,,,72,0
94558,note_on,46,0,3,,,,,,,,2,,,74,0
94558,note_on,46,0,5,,,,,,,,4,,,78,0
94558,note_on,94,0,6,,,,,,,,5,,,62,0
94558,note_on,94,0,8,,,,,,,,7,,,57,0
94560,note_on,2,0,6,,,,,,,,5,,,62,110
94560,note_on,2,0,7,,,,,,,,6,,,78,110
94560,note_on,2,0,3,,,,,,,,2,,,72,110
94560,note_on,2,0,4,,,,,,,,3,,,50,110
94560,note_on,2,0,1,,,,,,,,0,,,81,110
94560,note_on,2,0,5,,,,,,,,4,,,81,110
94560,note_on,2,0,8,,,,,,,,7,,,57,110
94582,note_on,22,0,1,,,,,,,,0,,,81,0
94584,note_on,2,0,1,,,,,,,,0,,,74,110
94606,note_on,46,0,7,,,,,,,,6,,,78,0
94606,note_on,46,0,5,,,,,,,,4,,,81,0
94606,note_on,22,0,1,,,,,,,,0,,,74,0
94606,note_on,46,0,3,,,,,,,,2,,,72,0
94608,note_on,2,0,5,,,,,,,,4,,,78,110
94608,note_on,2,0,3,,,,,,,,2,,,81,110
94608,note_on,2,0,1,,,,,,,,0,,,72,110
94608,note_on,2,0,7,,,,,,,,6,,,72,110
94630,note_on,22,0,1,,,,,,,,0,,,72,0
94632,note_on,2,0,1,,,,,,,,0,,,69,110
94654,note_on,94,0,6,,,,,,,,5,,,62,0
94654,note_on,94,0,8,,,,,,,,7,,,57,0
94654,note_on,46,0,5,,,,,,,,4,,,78,0
94654,note_on,46,0,3,,,,,,,,2,,,81,0
94654,note_on,46,0,7,,,,,,,,6,,,72,0
94654,note_on,22,0,1,,,,,,,,0,,,69,0
94654,note_on,94,0,4,,,,,,,,3,,,50,0
94656,note_on,2,0,8,,,,,,,,7,,,57,110
94656,note_on,2,0,5,,,,,,,,4,,,72,110
94656,note_on,2,0,3,,,,,,,,2,,,81,110
94656,note_on,2,0,7,,,,,,,,6,,,78,110
94656,note_on,2,0,4,,,,,,,,3,,,50,110
94656,note_on,2,0,1,,,,,,,,0,,,66,110
94656,note_on,2,0,6,,,,,,,,5,,,62,110
94678,note_on,22,0,1,,,,,,,,0,,,66,0
94680,note_on,2,0,1,,,,,,,,0,,,69,110
94702,note_on,46,0,7,,,,,,,,6,,,78,0
94702,note_on,46,0,5,,,,,,,,4,,,72,0
94702,note_on,46,0,3,,,,,,,,2,,,81,0
94702,note_on,22,0,1,,,,,,,,0,,,69,0
94704,note_on,2,0,3,,,,,,,,2,,,74,110
94704,note_on,2,0,7,,,,,,,,6,,,72,110
94704,note_on,2,0,5,,,,,,,,4,,,78,110
94704,note_on,2,0,1,,,,,,,,0,,,72,110
94726,note_on,22,0,1,,,,,,,,0,,,72,0
94728,note_on,2,0,1,,,,,,,,0,,,74,110
94750,note_on,94,0,8,,,,,,,,7,,,57,0
94750,note_on,94,0,6,,,,,,,,5,,,62,0
94750,note_on,46,0,3,,,,,,,,2,,,74,0
94750,note_on,94,0,4,,,,,,,,3,,,50,0
94750,note_on,46,0,5,,,,,,,,4,,,78,0
94750,note_on,22,0,1,,,,,,,,0,,,74,0
94750,note_on,46,0,7,,,,,,,,6,,,72,0
94752,note_on,2,0,7,,,,,,,,6,,,78,110
94752,note_on,2,0,3,,,,,,,,2,,,72,110
94752,note_on,2,0,5,,,,,,,,4,,,81,110
94752,note_on,2,0,1,,,,,,,,0,,,81,110
94752,note_on,2,0,8,,,,,,,,7,,,57,110
94752,note_on,2,0,6,,,,,,,,5,,,62,110
94752,note_on,2,0,4,,,,,,,,3,,,50,110
94774,note_on,22,0,1,,,,,,,,0,,,81,0
94776,note_on,2,0,1,,,,,,,,0,,,74,110
94798,note_on,46,0,3,,,,,,,,2,,,72,0
94798,note_on,46,0,5,,,,,,,,4,,,81,0
94798,note_on,46,0,7,,,,,,,,6,,,78,0
94798,note_on,22,0,1,,,,,,,,0,,,74,0
94800,note_on,2,0,5,,,,,,,,4,,,78,110
94800,note_on,2,0,3,,,,,,,,2,,,81,110
94800,note_on,2,0,1,,,,,,,,0,,,72,110
94800,note_on,2,0,7,,,,,,,,6,,,72,110
94822,note_on,22,0,1,,,,,,,,0,,,72,0
94824,note_on,2,0,1,,,,,,,,0,,,69,110
94846,note_on,46,0,3,,,,,,,,2,,,81,0
94846,note_on,94,0,4,,,,,,,,3,,,50,0
94846,note_on,22,0,1,,,,,,,,0,,,69,0
94846,note_on,94,0,6,,,,,,,,5,,,62,0
94846,note_on,94,0,8,,,,,,,,7,,,57,0
94846,note_on,46,0,7,,,,,,,,6,,,72,0
94846,note_on,46,0,5,,,,,,,,4,,,78,0
94848,note_on,2,0,5,,,,,,,,4,,,71,110
94848,note_on,2,0,1,,,,,,,,0,,,62,110
94848,note_on,2,0,4,,,,,,,,3,,,50,110
94848,note_on,2,0,8,,,,,,,,7,,,54,110
94848,note_on,2,0,7,,,,,,,,6,,,74,110
94848,note_on,2,0,6,,,,,,,,5,,,62,110
94848,note_on,2,0,3,,,,,,,,2,,,81,110
94870,note_on,22,0,1,,,,,,,,0,,,62,0
94872,note_on,2,0,1,,,,,,,,0,,,71,110
94894,note_on,22,0,1,,,,,,,,0,,,71,0
94894,note_on,46,0,3,,,,,,,,2,,,81,0
94894,note_on,46,0,7,,,,,,,,6,,,74,0
94894,note_on,46,0,5,,,,,,,,4,,,71,0
94896,note_on,2,0,7,,,,,,,,6,,,71,110
94896,note_on,2,0,5,,,,,,,,4,,,74,110
94896,note_on,2,0,3,,,,,,,,2,,,74,110
94896,note_on,2,0,1,,,,,,,,0,,,74,110
94918,note_on,22,0,1,,,,,,,,0,,,74,0
94920,note_on,2,0,1,,,,,,,,0,,,78,110
94942,note_on,94,0,6,,,,,,,,5,,,62,0
94942,note_on,46,0,7,,,,,,,,6,,,71,0
94942,note_on,22,0,1,,,,,,,,0,,,78,0
94942,note_on,94,0,8,,,,,,,,7,,,54,0
94942,note_on,46,0,5,,,,,,,,4,,,74,0
94942,note_on,46,0,3,,,,,,,,2,,,74,0
94942,note_on,94,0,4,,,,,,,,3,,,50,0
94944,note_on,2,0,6,,,,,,,,5,,,62,110
94944,note_on,2,0,3,,,,,,,,2,,,71,110
94944,note_on,2,0,7,,,,,,,,6,,,74,110
94944,note_on,2,0,8,,,,,,,,7,,,54,110
94944,note_on,2,0,5,,,,,,,,4,,,81,110
94944,note_on,2,0,1,,,,,,,,0,,,81,110
94944,note_on,2,0,4,,,,,,,,3,,,50,110
94966,note_on,22,0,1,,,,,,,,0,,,81,0
94968,note_on,2,0,1,,,,,,,,0,,,78,110
94990,note_on,22,0,1,,,,,,,,0,,,78,0
94990,note_on,46,0,7,,,,,,,,6,,,74,0
94990,note_on,46,0,3,,,,,,,,2,,,71,0
94990,note_on,46,0,5,,,,,,,,4,,,81,0
94992,note_on,2,0,1,,,,,,,,0,,,74,110
94992,note_on,2,0,3,,,,,,,,2,,,81,110
94992,note_on,2,0,7,,,,,,,,6,,,71,110
94992,note_on,2,0,5,,,,,,,,4,,,74,110
95014,note_on,22,0,1,,,,,,,,0,,,74,0
95016,note_on,2,0,1,,,,,,,,0,,,71,110
95038,note_on,46,0,5,,,,,,,,4,,,74,0
95038,note_on,94,0,4,,,,,,,,3,,,50,0
95038,note_on,22,0,1,,,,,,,,0,,,71,0
95038,note_on,94,0,8,,,,,,,,7,,,54,0
95038,note_on,94,0,6,,,,,,,,5,,,62,0
95038,note_on,46,0,3,,,,,,,,2,,,81,0
95038,note_on,46,0,7,,,,,,,,6,,,71,0
95040,note_on,2,0,8,,,,,,,,7,,,54,110
95040,note_on,2,0,7,,,,,,,,6,,,74,110
95040,note_on,2,0,3,,,,,,,,2,,,81,110
95040,note_on,2,0,4,,,,,,,,3,,,50,110
95040,note_on,2,0,6,,,,,,,,5,,,62,110
95040,note_on,2,0,5,,,,,,,,4,,,71,110
95040,note_on,2,0,1,,,,,,,,0,,,62,110
95062,note_on,22,0,1,,,,,,,,0,,,62,0
95064,note_on,2,0,1,,,,,,,,0,,,71,110
95086,note_on,46,0,3,,,,,,,,2,,,81,0
95086,note_on,46,0,5,,,,,,,,4,,,71,0
95086,note_on,46,0,7,,,,,,,,6,,,74,0
95086,note_on,22,0,1,,,,,,,,0,,,71,0
95088,note_on,2,0,3,,,,,,,,2,,,74,110
95088,note_on,2,0,5,,,,,,,,4,,,74,110
95088,note_on,2,0,1,,,,,,,,0,,,74,110
95088,note_on,2,0,7,,,,,,,,6,,,71,110
95110,note_on,22,0,1,,,,,,,,0,,,74,0
95112,note_on,2,0,1,,,,,,,,0,,,78,110
95134,note_on,22,0,1,,,,,,,,0,,,78,0
95134,note_on,46,0,7,,,,,,,,6,,,71,0
95134,note_on,94,0,8,,,,,,,,7,,,54,0
95134,note_on,94,0,4,,,,,,,,3,,,50,0
95134,note_on,46,0,5,,,,,,,,4,,,74,0
95134,note_on,94,0,6,,,,,,,,5,,,62,0
95134,note_on,46,0,3,,,,,,,,2,,,74,0
95136,note_on,2,0,6,,,,,,,,5,,,62,110
95136,note_on,2,0,7,,,,,,,,6,,,74,110
95136,note_on,2,0,1,,,,,,,,0,,,81,110
95136,note_on,2,0,8,,,,,,,,7,,,54,110
95136,note_on,2,0,4,,,,,,,,3,,,50,110
95136,note_on,2,0,5,,,,,,,,4,,,81,110
95136,note_on,2,0,3,,,,,,,,2,,,71,110
95158,note_on,22,0,1,,,,,,,,0,,,81,0
95160,note_on,2,0,1,,,,,,,,0,,,78,110
95182,note_on,46,0,5,,,,,,,,4,,,81,0
95182,note_on,22,0,1,,,,,,,,0,,,78,0
95182,note_on,46,0,3,,,,,,,,2,,,71,0
95182,note_on,46,0,7,,,,,,,,6,,,74,0
95184,note_on,2,0,3,,,,,,,,2,,,81,110
95184,note_on,2,0,5,,,,,,,,4,,,74,110
95184,note_on,2,0,7,,,,,,,,6,,,71,110
95184,note_on,2,0,1,,,,,,,,0,,,74,110
95206,note_on,22,0,1,,,,,,,,0,,,74,0
95208,note_on,2,0,1,,,,,,,,0,,,71,110
95230,note_on,22,0,1,,,,,,,,0,,,71,0
95230,note_on,46,0,5,,,,,,,,4,,,74,0
95230,note_on,94,0,4,,,,,,,,3,,,50,0
95230,note_on,94,0,8,,,,,,,,7,,,54,0
95230,note_on,46,0,7,,,,,,,,6,,,71,0
95230,note_on,94,0,6,,,,,,,,5,,,62,0
95230,note_on,46,0,3,,,,,,,,2,,,81,0
95232,note_on,2,0,5,,,,,,,,4,,,71,110
95232,note_on,2,0,3,,,,,,,,2,,,81,110
95232,note_on,2,0,7,,,,,,,,6,,,74,110
95232,note_on,2,0,4,,,,,,,,3,,,50,110
95232,note_on,2,0,1,,,,,,,,0,,,62,110
95232,note_on,2,0,8,,,,,,,,7,,,54,110
95232,note_on,2,0,6,,,,,,,,5,,,62,110
95254,note_on,22,0,1,,,,,,,,0,,,62,0
95256,note_on,2,0,1,,,,,,,,0,,,71,110
95278,note_on,46,0,7,,,,,,,,6,,,74,0
95278,note_on,46,0,5,,,,,,,,4,,,71,0
95278,note_on,46,0,3,,,,,,,,2,,,81,0
95278,note_on,22,0,1,,,,,,,,0,,,71,0
95280,note_on,2,0,3,,,,,,,,2,,,74,110
95280,note_on,2,0,1,,,,,,,,0,,,74,110
95280,note_on,2,0,5,,,,,,,,4,,,74,110
95280,note_on,2,0,7,,,,,,,,6,,,71,110
95302,note_on,22,0,1,,,,,,,,0,,,74,0
95304,note_on,2,0,1,,,,,,,,0,,,78,110
95326,note_on,94,0,6,,,,,,,,5,,,62,0
95326,note_on,94,0,4,,,,,,,,3,,,50,0
95326,note_on,94,0,8,,,,,,,,7,,,54,0
95326,note_on,22,0,1,,,,,,,,0,,,78,0
95326,note_on,46,0,7,,,,,,,,6,,,71,0
95326,note_on,46,0,5,,,,,,,,4,,,74,0
95326,note_on,46,0,3,,,,,,,,2,,,74,0
95328,note_on,2,0,7,,,,,,,,6,,,74,110
95328,note_on,2,0,6,,,,,,,,5,,,62,110
95328,note_on,2,0,5,,,,,,,,4,,,81,110
95328,note_on,2,0,1,,,,,,,,0,,,81,110
95328,note_on,2,0,8,,,,,,,,7,,,54,110
95328,note_on,2,0,3,,,,,,,,2,,,71,110
95328,note_on,2,0,4,,,,,,,,3,,,50,110
95350,note_on,22,0,1,,,,,,,,0,,,81,0
95352,note_on,2,0,1,,,,,,,,0,,,78,110
95374,note_on,46,0,3,,,,,,,,2,,,71,0
95374,note_on,22,0,1,,,,,,,,0,,,78,0
95374,note_on,46,0,7,,,,,,,,6,,,74,0
95374,note_on,46,0,5,,,,,,,,4,,,81,0
95376,note_on,2,0,3,,,,,,,,2,,,81,110
95376,note_on,2,0,7,,,,,,,,6,,,71,110
95376,note_on,2,0,5,,,,,,,,4,,,74,110
95376,note_on,2,0,1,,,,,,,,0,,,74,110
95398,note_on,22,0,1,,,,,,,,0,,,74,0
95400,note_on,2,0,1,,,,,,,,0,,,71,110
95422,note_on,94,0,4,,,,,,,,3,,,50,0
95422,note_on,46,0,7,,,,,,,,6,,,71,0
95422,note_on,46,0,3,,,,,,,,2,,,81,0
95422,note_on,94,0,8,,,,,,,,7,,,54,0
95422,note_on,94,0,6,,,,,,,,5,,,62,0
95422,note_on,22,0,1,,,,,,,,0,,,71,0
95422,note_on,46,0,5,,,,,,,,4,,,74,0
95424,note_on,2,0,5,,,,,,,,4,,,71,110
95424,note_on,2,0,4,,,,,,,,3,,,43,110
95424,note_on,2,0,6,,,,,,,,5,,,62,110
95424,note_on,2,0,8,,,,,,,,7,,,55,110
95424,note_on,2,0,1,,,,,,,,0,,,62,110
95424,note_on,2,0,3,,,,,,,,2,,,79,110
95424,note_on,2,0,7,,,,,,,,6,,,74,110
95446,note_on,22,0,1,,,,,,,,0,,,62,0
95448,note_on,2,0,1,,,,,,,,0,,,71,110
95470,note_on,22,0,1,,,,,,,,0,,,71,0
95470,note_on,46,0,7,,,,,,,,6,,,74,0
95470,note_on,46,0,3,,,,,,,,2,,,79,0
95470,note_on,46,0,5,,,,,,,,4,,,71,0
95472,note_on,2,0,7,,,,,,,,6,,,71,110
95472,note_on,2,0,3,,,,,,,,2,,,74,110
95472,note_on,2,0,1,,,,,,,,0,,,74,110
95472,note_on,2,0,5,,,,,,,,4,,,74,110
95494,note_on,22,0,1,,,,,,,,0,,,74,0
95496,note_on,2,0,1,,,,,,,,0,,,78,110
95518,note_on,94,0,6,,,,,,,,5,,,62,0
95518,note_on,46,0,5,,,,,,,,4,,,74,0
95518,note_on,94,0,8,,,,,,,,7,,,55,0
95518,note_on,94,0,4,,,,,,,,3,,,43,0
95518,note_on,46,0,7,,,,,,,,6,,,71,0
95518,note_on,46,0,3,,,,,,,,2,,,74,0
95518,note_on,22,0,1,,,,,,,,0,,,78,0
95520,note_on,2,0,6,,,,,,,,5,,,62,110
95520,note_on,2,0,4,,,,,,,,3,,,43,110
95520,note_on,2,0,1,,,,,,,,0,,,79,110
95520,note_on,2,0,5,,,,,,,,4,,,79,110
95520,note_on,2,0,8,,,,,,,,7,,,55,110
95520,note_on,2,0,3,,,,,,,,2,,,71,110
95520,note_on,2,0,7,,,,,,,,6,,,74,110
95542,note_on,22,0,1,,,,,,,,0,,,79,0
95544,note_on,2,0,1,,,,,,,,0,,,78,110
95566,note_on,46,0,7,,,,,,,,6,,,74,0
95566,note_on,46,0,5,,,,,,,,4,,,79,0
95566,note_on,22,0,1,,,,,,,,0,,,78,0
95566,note_on,46,0,3,,,,,,,,2,,,71,0
95568,note_on,2,0,1,,,,,,,,0,,,74,110
95568,note_on,2,0,3,,,,,,,,2,,,79,110
95568,note_on,2,0,7,,,,,,,,6,,,71,110
95568,note_on,2,0,5,,,,,,,,4,,,74,110
95590,note_on,22,0,1,,,,,,,,0,,,74,0
95592,note_on,2,0,1,,,,,,,,0,,,71,110
95614,note_on,46,0,3,,,,,,,,2,,,79,0
95614,note_on,94,0,8,,,,,,,,7,,,55,0
95614,note_on,46,0,5,,,,,,,,4,,,74,0
95614,note_on,94,0,6,,,,,,,,5,,,62,0
95614,note_on,22,0,1,,,,,,,,0,,,71,0
95614,note_on,46,0,7,,,,,,,,6,,,71,0
95614,note_on,94,0,4,,,,,,,,3,,,43,0
95616,note_on,2,0,3,,,,,,,,2,,,79,110
95616,note_on,2,0,7,,,,,,,,6,,,74,110
95616,note_on,2,0,4,,,,,,,,3,,,43,110
95616,note_on,2,0,6,,,,,,,,5,,,62,110
95616,note_on,2,0,1,,,,,,,,0,,,62,110
95616,note_on,2,0,8,,,,,,,,7,,,55,110
95616,note_on,2,0,5,,,,,,,,4,,,71,110
95638,note_on,22,0,1,,,,,,,,0,,,62,0
95640,note_on,2,0,1,,,,,,,,0,,,71,110
95662,note_on,22,0,1,,,,,,,,0,,,71,0
95662,note_on,46,0,7,,,,,,,,6,,,74,0
95662,note_on,46,0,5,,,,,,,,4,,,71,0
95662,note_on,46,0,3,,,,,,,,2,,,79,0
95664,note_on,2,0,5,,,,,,,,4,,,74,110
95664,note_on,2,0,3,,,,,,,,2,,,74,110
95664,note_on,2,0,1,,,,,,,,0,,,74,110
95664,note_on,2,0,7,,,,,,,,6,,,71,110
95686,note_on,22,0,1,,,,,,,,0,,,74,0
95688,note_on,2,0,1,,,,,,,,0,,,78,110
95710,note_on,46,0,5,,,,,,,,4,,,74,0
95710,note_on,94,0,6,,,,,,,,5,,,62,0
95710,note_on,46,0,7,,,,,,,,6,,,71,0
95710,note_on,22,0,1,,,,,,,,0,,,78,0
95710,note_on,94,0,8,,,,,,,,7,,,55,0
95710,note_on,94,0,4,,,,,,,,3,,,43,0
95710,note_on,46,0,3,,,,,,,,2,,,74,0
95712,note_on,2,0,4,,,,,,,,3,,,43,110
95712,note_on,2,0,7,,,,,,,,6,,,74,110
95712,note_on,2,0,6,,,,,,,,5,,,62,110
95712,note_on,2,0,5,,,,,,,,4,,,79,110
95712,note_on,2,0,1,,,,,,,,0,,,79,110
95712,note_on,2,0,8,,,,,,,,7,,,55,110
95712,note_on,2,0,3,,,,,,,,2,,,71,110
95734,note_on,22,0,1,,,,,,,,0,,,79,0
95736,note_on,2,0,1,,,,,,,,0,,,78,110
95758,note_on,46,0,5,,,,,,,,4,,,79,0
95758,note_on,46,0,7,,,,,,,,6,,,74,0
95758,note_on,22,0,1,,,,,,,,0,,,78,0
95758,note_on,46,0,3,,,,,,,,2,,,71,0
95760,note_on,2,0,3,,,,,,,,2,,,79,110
95760,note_on,2,0,5,,,,,,,,4,,,74,110
95760,note_on,2,0,7,,,,,,,,6,,,71,110
95760,note_on,2,0,1,,,,,,,,0,,,74,110
95782,note_on,22,0,1,,,,,,,,0,,,74,0
95784,note_on,2,0,1,,,,,,,,0,,,71,110
95806,note_on,94,0,4,,,,,,,,3,,,43,0
95806,note_on,46,0,7,,,,,,,,6,,,71,0
95806,note_on,94,0,8,,,,,,,,7,,,55,0
95806,note_on,94,0,6,,,,,,,,5,,,62,0
95806,note_on,46,0,5,,,,,,,,4,,,74,0
95806,note_on,46,0,3,,,,,,,,2,,,79,0
95806,note_on,22,0,1,,,,,,,,0,,,71,0
95808,note_on,2,0,1,,,,,,,,0,,,62,110
95808,note_on,2,0,8,,,,,,,,7,,,55,110
95808,note_on,2,0,4,,,,,,,,3,,,55,110
95808,note_on,2,0,3,,,,,,,,2,,,79,110
95808,note_on,2,0,5,,,,,,,,4,,,71,110
95808,note_on,2,0,6,,,,,,,,5,,,62,110
95808,note_on,2,0,7,,,,,,,,6,,,74,110
95830,note_on,22,0,1,,,,,,,,0,,,62,0
95832,note_on,2,0,1,,,,,,,,0,,,71,110
95854,note_on,22,0,1,,,,,,,,0,,,71,0
95854,note_on,46,0,7,,,,,,,,6,,,74,0
95854,note_on,46,0,3,,,,,,,,2,,,79,0
95854,note_on,46,0,5,,,,,,,,4,,,71,0
95856,note_on,2,0,3,,,,,,,,2,,,74,110
95856,note_on,2,0,1,,,,,,,,0,,,74,110
95856,note_on,2,0,7,,,,,,,,6,,,71,110
95856,note_on,2,0,5,,,,,,,,4,,,74,110
95878,note_on,22,0,1,,,,,,,,0,,,74,0
95880,note_on,2,0,1,,,,,,,,0,,,78,110
95902,note_on,46,0,7,,,,,,,,6,,,71,0
95902,note_on,94,0,8,,,,,,,,7,,,55,0
95902,note_on,94,0,4,,,,,,,,3,,,55,0
95902,note_on,22,0,1,,,,,,,,0,,,78,0
95902,note_on,94,0,6,,,,,,,,5,,,62,0
95902,note_on,46,0,3,,,,,,,,2,,,74,0
95902,note_on,46,0,5,,,,,,,,4,,,74,0
95904,note_on,2,0,4,,,,,,,,3,,,55,110
95904,note_on,2,0,8,,,,,,,,7,,,55,110
95904,note_on,2,0,1,,,,,,,,0,,,79,110
95904,note_on,2,0,3,,,,,,,,2,,,71,110
95904,note_on,2,0,5,,,,,,,,4,,,79,110
95904,note_on,2,0,6,,,,,,,,5,,,62,110
95904,note_on,2,0,7,,,,,,,,6,,,74,110
95926,note_on,22,0,1,,,,,,,,0,,,79,0
95928,note_on,2,0,1,,,,,,,,0,,,78,110
95950,note_on,22,0,1,,,,,,,,0,,,78,0
95950,note_on,46,0,3,,,,,,,,2,,,71,0
95950,note_on,46,0,5,,,,,,,,4,,,79,0
95950,note_on,46,0,7,,,,,,,,6,,,74,0
95952,note_on,2,0,1,,,,,,,,0,,,74,110
95952,note_on,2,0,3,,,,,,,,2,,,79,110
95952,note_on,2,0,5,,,,,,,,4,,,74,110
95952,note_on,2,0,7,,,,,,,,6,,,71,110
95974,note_on,22,0,1,,,,,,,,0,,,74,0
95976,note_on,2,0,1,,,,,,,,0,,,71,110
95998,note_on,46,0,3,,,,,,,,2,,,79,0
95998,note_on,94,0,6,,,,,,,,5,,,62,0
95998,note_on,46,0,5,,,,,,,,4,,,74,0
95998,note_on,94,0,8,,,,,,,,7,,,55,0
95998,note_on,46,0,7,,,,,,,,6,,,71,0
95998,note_on,22,0,1,,,,,,,,0,,,71,0
95998,note_on,94,0,4,,,,,,,,3,,,55,0
96000,note_on,2,0,8,,,,,,,,7,,,64,110
96000,note_on,2,0,1,,,,,,,,0,,,64,110
96000,note_on,2,0,6,,,,,,,,5,,,61,110
96000,note_on,2,0,4,,,,,,,,3,,,46,110
96000,note_on,2,0,7,,,,,,,,6,,,73,110
96000,note_on,2,0,5,,,,,,,,4,,,70,110
96000,note_on,2,0,3,,,,,,,,2,,,79,110
96022,note_on,22,0,1,,,,,,,,0,,,64,0
96024,note_on,2,0,1,,,,,,,,0,,,70,110
96046,note_on,22,0,1,,,,,,,,0,,,70,0
96046,note_on,46,0,5,,,,,,,,4,,,70,0
96046,note_on,46,0,3,,,,,,,,2,,,79,0
96046,note_on,46,0,7,,,,,,,,6,,,73,0
96048,note_on,2,0,7,,,,,,,,6,,,70,110
96048,note_on,2,0,5,,,,,,,,4,,,73,110
96048,note_on,2,0,3,,,,,,,,2,,,76,110
96048,note_on,2,0,1,,,,,,,,0,,,73,110
96070,note_on,22,0,1,,,,,,,,0,,,73,0
96072,note_on,2,0,1,,,,,,,,0,,,76,110
96094,note_on,94,0,6,,,,,,,,5,,,61,0
96094,note_on,94,0,4,,,,,,,,3,,,46,0
96094,note_on,22,0,1,,,,,,,,0,,,76,0
96094,note_on,46,0,7,,,,,,,,6,,,70,0
96094,note_on,46,0,5,,,,,,,,4,,,73,0
96094,note_on,46,0,3,,,,,,,,2,,,76,0
96094,note_on,94,0,8,,,,,,,,7,,,64,0
96096,note_on,2,0,4,,,,,,,,3,,,46,110
96096,note_on,2,0,5,,,,,,,,4,,,76,110
96096,note_on,2,0,6,,,,,,,,5,,,61,110
96096,note_on,2,0,8,,,,,,,,7,,,64,110
96096,note_on,2,0,7,,,,,,,,6,,,73,110
96096,note_on,2,0,1,,,,,,,,0,,,79,110
96096,note_on,2,0,3,,,,,,,,2,,,73,110
96118,note_on,22,0,1,,,,,,,,0,,,79,0
96120,note_on,2,0,1,,,,,,,,0,,,76,110
96142,note_on,46,0,3,,,,,,,,2,,,73,0
96142,note_on,46,0,7,,,,,,,,6,,,73,0
96142,note_on,46,0,5,,,,,,,,4,,,76,0
96142,note_on,22,0,1,,,,,,,,0,,,76,0
96144,note_on,2,0,3,,,,,,,,2,,,79,110
96144,note_on,2,0,7,,,,,,,,6,,,70,110
96144,note_on,2,0,5,,,,,,,,4,,,73,110
96144,note_on,2,0,1,,,,,,,,0,,,73,110
96166,note_on,22,0,1,,,,,,,,0,,,73,0
96168,note_on,2,0,1,,,,,,,,0,,,70,110
96190,note_on,46,0,5,,,,,,,,4,,,73,0
96190,note_on,94,0,8,,,,,,,,7,,,64,0
96190,note_on,22,0,1,,,,,,,,0,,,70,0
96190,note_on,46,0,3,,,,,,,,2,,,79,0
96190,note_on,94,0,6,,,,,,,,5,,,61,0
96190,note_on,46,0,7,,,,,,,,6,,,70,0
96190,note_on,94,0,4,,,,,,,,3,,,46,0
96192,note_on,2,0,4,,,,,,,,3,,,46,110
96192,note_on,2,0,5,,,,,,,,4,,,70,110
96192,note_on,2,0,7,,,,,,,,6,,,73,110
96192,note_on,2,0,3,,,,,,,,2,,,79,110
96192,note_on,2,0,8,,,,,,,,7,,,64,110
96192,note_on,2,0,1,,,,,,,,0,,,64,110
96192,note_on,2,0,6,,,,,,,,5,,,61,110
96214,note_on,22,0,1,,,,,,,,0,,,64,0
96216,note_on,2,0,1,,,,,,,,0,,,70,110
96238,note_on,46,0,3,,,,,,,,2,,,79,0
96238,note_on,22,0,1,,,,,,,,0,,,70,0
96238,note_on,46,0,7,,,,,,,,6,,,73,0
96238,note_on,46,0,5,,,,,,,,4,,,70,0
96240,note_on,2,0,7,,,,,,,,6,,,70,110
96240,note_on,2,0,3,,,,,,,,2,,,76,110
96240,note_on,2,0,1,,,,,,,,0,,,73,110
96240,note_on,2,0,5,,,,,,,,4,,,73,110
96262,note_on,22,0,1,,,,,,,,0,,,73,0
96264,note_on,2,0,1,,,,,,,,0,,,76,110
96286,note_on,46,0,3,,,,,,,,2,,,76,0
96286,note_on,22,0,1,,,,,,,,0,,,76,0
96286,note_on,46,0,5,,,,,,,,4,,,73,0
96286,note_on,94,0,6,,,,,,,,5,,,61,0
96286,note_on,46,0,7,,,,,,,,6,,,70,0
96286,note_on,94,0,8,,,,,,,,7,,,64,0
96286,note_on,94,0,4,,,,,,,,3,,,46,0
96288,note_on,2,0,5,,,,,,,,4,,,76,110
96288,note_on,2,0,1,,,,,,,,0,,,79,110
96288,note_on,2,0,6,,,,,,,,5,,,61,110
96288,note_on,2,0,8,,,,,,,,7,,,64,110
96288,note_on,2,0,7,,,,,,,,6,,,73,110
96288,note_on,2,0,3,,,,,,,,2,,,73,110
96288,note_on,2,0,4,,,,,,,,3,,,46,110
96310,note_on,22,0,1,,,,,,,,0,,,79,0
96312,note_on,2,0,1,,,,,,,,0,,,76,110
96334,note_on,46,0,3,,,,,,,,2,,,73,0
96334,note_on,46,0,5,,,,,,,,4,,,76,0
96334,note_on,22,0,1,,,,,,,,0,,,76,0
96334,note_on,46,0,7,,,,,,,,6,,,73,0
96336,note_on,2,0,1,,,,,,,,0,,,73,110
96336,note_on,2,0,5,,,,,,,,4,,,73,110
96336,note_on,2,0,3,,,,,,,,2,,,79,110
96336,note_on,2,0,7,,,,,,,,6,,,70,110
96358,note_on,22,0,1,,,,,,,,0,,,73,0
96360,note_on,2,0,1,,,,,,,,0,,,70,110
96382,note_on,94,0,4,,,,,,,,3,,,46,0
96382,note_on,46,0,7,,,,,,,,6,,,70,0
96382,note_on,94,0,6,,,,,,,,5,,,61,0
96382,note_on,46,0,3,,,,,,,,2,,,79,0
96382,note_on,94,0,8,,,,,,,,7,,,64,0
96382,note_on,22,0,1,,,,,,,,0,,,70,0
96382,note_on,46,0,5,,,,,,,,4,,,73,0
96384,note_on,2,0,5,,,,,,,,4,,,70,110
96384,note_on,2,0,7,,,,,,,,6,,,73,110
96384,note_on,2,0,8,,,,,,,,7,,,64,110
96384,note_on,2,0,3,,,,,,,,2,,,79,110
96384,note_on,2,0,6,,,,,,,,5,,,61,110
96384,note_on,2,0,4,,,,,,,,3,,,46,110
96384,note_on,2,0,1,,,,,,,,0,,,64,110
96406,note_on,22,0,1,,,,,,,,0,,,64,0
96408,note_on,2,0,1,,,,,,,,0,,,70,110
96430,note_on,46,0,3,,,,,,,,2,,,79,0
96430,note_on,46,0,7,,,,,,,,6,,,73,0
96430,note_on,22,0,1,,,,,,,,0,,,70,0
96430,note_on,46,0,5,,,,,,,,4,,,70,0
96432,note_on,2,0,1,,,,,,,,0,,,73,110
96432,note_on,2,0,3,,,,,,,,2,,,76,110
96432,note_on,2,0,7,,,,,,,,6,,,70,110
96432,note_on,2,0,5,,,,,,,,4,,,73,110
96454,note_on,22,0,1,,,,,,,,0,,,73,0
96456,note_on,2,0,1,,,,,,,,0,,,76,110
96478,note_on,46,0,5,,,,,,,,4,,,73,0
96478,note_on,94,0,8,,,,,,,,7,,,64,0
96478,note_on,22,0,1,,,,,,,,0,,,76,0
96478,note_on,46,0,7,,,,,,,,6,,,70,0
96478,note_on,46,0,3,,,,,,,,2,,,76,0
96478,note_on,94,0,4,,,,,,,,3,,,46,0
96478,note_on,94,0,6,,,,,,,,5,,,61,0
96480,note_on,2,0,4,,,,,,,,3,,,46,110
96480,note_on,2,0,6,,,,,,,,5,,,61,110
96480,note_on,2,0,3,,,,,,,,2,,,73,110
96480,note_on,2,0,8,,,,,,,,7,,,64,110
96480,note_on,2,0,5,,,,,,,,4,,,76,110
96480,note_on,2,0,7,,,,,,,,6,,,73,110
96480,note_on,2,0,1,,,,,,,,0,,,79,110
96502,note_on,22,0,1,,,,,,,,0,,,79,0
96504,note_on,2,0,1,,,,,,,,0,,,76,110
96526,note_on,46,0,5,,,,,,,,4,,,76,0
96526,note_on,46,0,7,,,,,,,,6,,,73,0
96526,note_on,46,0,3,,,,,,,,2,,,73,0
96526,note_on,22,0,1,,,,,,,,0,,,76,0
96528,note_on,2,0,3,,,,,,,,2,,,79,110
96528,note_on,2,0,7,,,,,,,,6,,,70,110
96528,note_on,2,0,1,,,,,,,,0,,,73,110
96528,note_on,2,0,5,,,,,,,,4,,,73,110
96550,note_on,22,0,1,,,,,,,,0,,,73,0
96552,note_on,2,0,1,,,,,,,,0,,,70,110
96574,note_on,94,0,6,,,,,,,,5,,,61,0
96574,note_on,46,0,3,,,,,,,,2,,,79,0
96574,note_on,46,0,7,,,,,,,,6,,,70,0
96574,note_on,46,0,5,,,,,,,,4,,,73,0
96574,note_on,22,0,1,,,,,,,,0,,,70,0
96574,note_on,94,0,4,,,,,,,,3,,,46,0
96574,note_on,94,0,8,,,,,,,,7,,,64,0
96576,note_on,2,0,7,,,,,,,,6,,,73,110
96576,note_on,2,0,1,,,,,,,,0,,,64,110
96576,note_on,2,0,6,,,,,,,,5,,,61,110
96576,note_on,2,0,4,,,,,,,,3,,,46,110
96576,note_on,2,0,3,,,,,,,,2,,,78,110
96576,note_on,2,0,5,,,,,,,,4,,,70,110
96576,note_on,2,0,8,,,,,,,,7,,,66,110
96598,note_on,22,0,1,,,,,,,,0,,,64,0
96600,note_on,2,0,1,,,,,,,,0,,,66,110
96622,note_on,46,0,3,,,,,,,,2,,,78,0
96622,note_on,22,0,1,,,,,,,,0,,,66,0
96622,note_on,46,0,7,,,,,,,,6,,,73,0
96622,note_on,46,0,5,,,,,,,,4,,,70,0
96624,note_on,2,0,1,,,,,,,,0,,,70,110
96624,note_on,2,0,3,,,,,,,,2,,,73,110
96624,note_on,2,0,5,,,,,,,,4,,,73,110
96624,note_on,2,0,7,,,,,,,,6,,,70,110
96646,note_on,22,0,1,,,,,,,,0,,,70,0
96648,note_on,2,0,1,,,,,,,,0,,,73,110
96670,note_on,46,0,3,,,,,,,,2,,,73,0
96670,note_on,46,0,5,,,,,,,,4,,,73,0
96670,note_on,94,0,8,,,,,,,,7,,,66,0
96670,note_on,22,0,1,,,,,,,,0,,,73,0
96670,note_on,46,0,7,,,,,,,,6,,,70,0
96670,note_on,94,0,6,,,,,,,,5,,,61,0
96670,note_on,94,0,4,,,,,,,,3,,,46,0
96672,note_on,2,0,5,,,,,,,,4,,,78,110
96672,note_on,2,0,3,,,,,,,,2,,,70,110
96672,note_on,2,0,7,,,,,,,,6,,,73,110
96672,note_on,2,0,6,,,,,,,,5,,,61,110
96672,note_on,2,0,4,,,,,,,,3,,,46,110
96672,note_on,2,0,8,,,,,,,,7,,,66,110
96672,note_on,2,0,1,,,,,,,,0,,,78,110
96694,note_on,22,0,1,,,,,,,,0,,,78,0
96696,note_on,2,0,1,,,,,,,,0,,,73,110
96718,note_on,22,0,1,,,,,,,,0,,,73,0
96718,note_on,46,0,7,,,,,,,,6,,,73,0
96718,note_on,46,0,3,,,,,,,,2,,,70,0
96718,note_on,46,0,5,,,,,,,,4,,,78,0
96720,note_on,2,0,7,,,,,,,,6,,,70,110
96720,note_on,2,0,1,,,,,,,,0,,,70,110
96720,note_on,2,0,3,,,,,,,,2,,,78,110
96720,note_on,2,0,5,,,,,,,,4,,,73,110
96742,note_on,22,0,1,,,,,,,,0,,,70,0
96744,note_on,2,0,1,,,,,,,,0,,,66,110
96766,note_on,22,0,1,,,,,,,,0,,,66,0
96766,note_on,46,0,5,,,,,,,,4,,,73,0
96766,note_on,94,0,8,,,,,,,,7,,,66,0
96766,note_on,94,0,4,,,,,,,,3,,,46,0
96766,note_on,94,0,6,,,,,,,,5,,,61,0
96766,note_on,46,0,7,,,,,,,,6,,,70,0
96766,note_on,46,0,3,,,,,,,,2,,,78,0
96768,note_on,2,0,3,,,,,,,,2,,,78,110
96768,note_on,2,0,5,,,,,,,,4,,,70,110
96768,note_on,2,0,8,,,,,,,,7,,,66,110
96768,note_on,2,0,4,,,,,,,,3,,,46,110
96768,note_on,2,0,6,,,,,,,,5,,,61,110
96768,note_on,2,0,1,,,,,,,,0,,,64,110
96768,note_on,2,0,7,,,,,,,,6,,,73,110
96790,note_on,22,0,1,,,,,,,,0,,,64,0
96792,note_on,2,0,1,,,,,,,,0,,,66,110
96814,note_on,46,0,3,,,,,,,,2,,,78,0
96814,note_on,46,0,7,,,,,,,,6,,,73,0
96814,note_on,22,0,1,,,,,,,,0,,,66,0
96814,note_on,46,0,5,,,,,,,,4,,,70,0
96816,note_on,2,0,7,,,,,,,,6,,,70,110
96816,note_on,2,0,3,,,,,,,,2,,,73,110
96816,note_on,2,0,1,,,,,,,,0,,,70,110
96816,note_on,2,0,5,,,,,,,,4,,,73,110
96838,note_on,22,0,1,,,,,,,,0,,,70,0
96840,note_on,2,0,1,,,,,,,,0,,,73,110
96862,note_on,46,0,5,,,,,,,,4,,,73,0
96862,note_on,94,0,6,,,,,,,,5,,,61,0
96862,note_on,94,0,8,,,,,,,,7,,,66,0
96862,note_on,46,0,3,,,,,,,,2,,,73,0
96862,note_on,46,0,7,,,,,,,,6,,,70,0
96862,note_on,94,0,4,,,,,,,,3,,,46,0
96862,note_on,22,0,1,,,,,,,,0,,,73,0
96864,note_on,2,0,8,,,,,,,,7,,,66,110
96864,note_on,2,0,7,,,,,,,,6,,,73,110
96864,note_on,2,0,6,,,,,,,,5,,,61,110
96864,note_on,2,0,3,,,,,,,,2,,,70,110
96864,note_on,2,0,4,,,,,,,,3,,,46,110
96864,note_on,2,0,5,,,,,,,,4,,,78,110
96864,note_on,2,0,1,,,,,,,,0,,,78,110
96886,note_on,22,0,1,,,,,,,,0,,,78,0
96888,note_on,2,0,1,,,,,,,,0,,,73,110
96910,note_on,22,0,1,,,,,,,,0,,,73,0
96910,note_on,46,0,5,,,,,,,,4,,,78,0
96910,note_on,46,0,7,,,,,,,,6,,,73,0
96910,note_on,46,0,3,,,,,,,,2,,,70,0
96912,note_on,2,0,5,,,,,,,,4,,,73,110
96912,note_on,2,0,1,,,,,,,,0,,,70,110
96912,note_on,2,0,7,,,,,,,,6,,,70,110
96912,note_on,2,0,3,,,,,,,,2,,,78,110
96934,note_on,22,0,1,,,,,,,,0,,,70,0
96936,note_on,2,0,1,,,,,,,,0,,,66,110
96958,note_on,46,0,3,,,,,,,,2,,,78,0
96958,note_on,94,0,4,,,,,,,,3,,,46,0
96958,note_on,22,0,1,,,,,,,,0,,,66,0
96958,note_on,46,0,5,,,,,,,,4,,,73,0
96958,note_on,46,0,7,,,,,,,,6,,,70,0
96958,note_on,94,0,6,,,,,,,,5,,,61,0
96958,note_on,94,0,8,,,,,,,,7,,,66,0
96960,note_on,2,0,8,,,,,,,,7,,,66,110
96960,note_on,2,0,7,,,,,,,,6,,,73,110
96960,note_on,2,0,1,,,,,,,,0,,,64,110
96960,note_on,2,0,4,,,,,,,,3,,,46,110
96960,note_on,2,0,6,,,,,,,,5,,,61,110
96960,note_on,2,0,5,,,,,,,,4,,,70,110
96960,note_on,2,0,3,,,,,,,,2,,,78,110
96982,note_on,22,0,1,,,,,,,,0,,,64,0
96984,note_on,2,0,1,,,,,,,,0,,,66,110
97006,note_on,22,0,1,,,,,,,,0,,,66,0
97006,note_on,46,0,5,,,,,,,,4,,,70,0
97006,note_on,46,0,3,,,,,,,,2,,,78,0
97006,note_on,46,0,7,,,,,,,,6,,,73,0
97008,note_on,2,0,1,,,,,,,,0,,,70,110
97008,note_on,2,0,3,,,,,,,,2,,,73,110
97008,note_on,2,0,7,,,,,,,,6,,,70,110
97008,note_on,2,0,5,,,,,,,,4,,,73,110
97030,note_on,22,0,1,,,,,,,,0,,,70,0
97032,note_on,2,0,1,,,,,,,,0,,,73,110
97054,note_on,94,0,4,,,,,,,,3,,,46,0
97054,note_on,94,0,6,,,,,,,,5,,,61,0
97054,note_on,46,0,7,,,,,,,,6,,,70,0
97054,note_on,94,0,8,,,,,,,,7,,,66,0
97054,note_on,46,0,5,,,,,,,,4,,,73,0
97054,note_on,46,0,3,,,,,,,,2,,,73,0
97054,note_on,22,0,1,,,,,,,,0,,,73,0
97056,note_on,2,0,5,,,,,,,,4,,,78,110
97056,note_on,2,0,1,,,,,,,,0,,,78,110
97056,note_on,2,0,4,,,,,,,,3,,,46,110
97056,note_on,2,0,8,,,,,,,,7,,,66,110
97056,note_on,2,0,6,,,,,,,,5,,,61,110
97056,note_on,2,0,3,,,,,,,,2,,,70,110
97056,note_on,2,0,7,,,,,,,,6,,,73,110
97078,note_on,22,0,1,,,,,,,,0,,,78,0
97080,note_on,2,0,1,,,,,,,,0,,,73,110
97102,note_on,22,0,1,,,,,,,,0,,,73,0
97102,note_on,46,0,3,,,,,,,,2,,,70,0
97102,note_on,46,0,7,,,,,,,,6,,,73,0
97102,note_on,46,0,5,,,,,,,,4,,,78,0
97104,note_on,2,0,7,,,,,,,,6,,,70,110
97104,note_on,2,0,1,,,,,,,,0,,,70,110
97104,note_on,2,0,5,,,,,,,,4,,,73,110
97104,note_on,2,0,3,,,,,,,,2,,,78,110
97126,note_on,22,0,1,,,,,,,,0,,,70,0
97128,note_on,2,0,1,,,,,,,,0,,,66,110
97150,note_on,46,0,3,,,,,,,,2,,,78,0
97150,note_on,46,0,5,,,,,,,,4,,,73,0
97150,note_on,94,0,6,,,,,,,,5,,,61,0
97150,note_on,94,0,8,,,,,,,,7,,,66,0
97150,note_on,22,0,1,,,,,,,,0,,,66,0
97150,note_on,46,0,7,,,,,,,,6,,,70,0
97150,note_on,94,0,4,,,,,,,,3,,,46,0
97152,note_on,2,0,1,,,,,,,,0,,,62,110
97152,note_on,2,0,3,,,,,,,,2,,,78,110
97152,note_on,2,0,4,,,,,,,,3,,,47,110
97152,note_on,2,0,7,,,,,,,,6,,,74,110
97152,note_on,2,0,8,,,,,,,,7,,,66,110
97152,note_on,2,0,5,,,,,,,,4,,,71,110
97152,note_on,2,0,6,,,,,,,,5,,,62,110
97174,note_on,22,0,1,,,,,,,,0,,,62,0
97176,note_on,2,0,1,,,,,,,,0,,,66,110
97198,note_on,46,0,7,,,,,,,,6,,,74,0
97198,note_on,46,0,5,,,,,,,,4,,,71,0
97198,note_on,22,0,1,,,,,,,,0,,,66,0
97198,note_on,46,0,3,,,,,,,,2,,,78,0
97200,note_on,2,0,7,,,,,,,,6,,,71,110
97200,note_on,2,0,1,,,,,,,,0,,,71,110
97200,note_on,2,0,3,,,,,,,,2,,,74,110
97200,note_on,2,0,5,,,,,,,,4,,,74,110
97222,note_on,22,0,1,,,,,,,,0,,,71,0
97224,note_on,2,0,1,,,,,,,,0,,,74,110
97246,note_on,46,0,7,,,,,,,,6,,,71,0
97246,note_on,94,0,4,,,,,,,,3,,,47,0
97246,note_on,94,0,8,,,,,,,,7,,,66,0
97246,note_on,46,0,5,,,,,,,,4,,,74,0
97246,note_on,94,0,6,,,,,,,,5,,,62,0
97246,note_on,46,0,3,,,,,,,,2,,,74,0
97246,note_on,22,0,1,,,,,,,,0,,,74,0
97248,note_on,2,0,4,,,,,,,,3,,,47,110
97248,note_on,2,0,6,,,,,,,,5,,,62,110
97248,note_on,2,0,7,,,,,,,,6,,,74,110
97248,note_on,2,0,8,,,,,,,,7,,,66,110
97248,note_on,2,0,5,,,,,,,,4,,,78,110
97248,note_on,2,0,3,,,,,,,,2,,,71,110
97248,note_on,2,0,1,,,,,,,,0,,,78,110
97270,note_on,22,0,1,,,,,,,,0,,,78,0
97272,note_on,2,0,1,,,,,,,,0,,,74,110
97294,note_on,46,0,3,,,,,,,,2,,,71,0
97294,note_on,46,0,7,,,,,,,,6,,,74,0
97294,note_on,46,0,5,,,,,,,,4,,,78,0
97294,note_on,22,0,1,,,,,,,,0,,,74,0
97296,note_on,2,0,3,,,,,,,,2,,,78,110
97296,note_on,2,0,7,,,,,,,,6,,,71,110
97296,note_on,2,0,5,,,,,,,,4,,,74,110
97296,note_on,2,0,1,,,,,,,,0,,,71,110
97318,note_on,22,0,1,,,,,,,,0,,,71,0
97320,note_on,2,0,1,,,,,,,,0,,,66,110
97342,note_on,46,0,3,,,,,,,,2,,,78,0
97342,note_on,94,0,6,,,,,,,,5,,,62,0
97342,note_on,94,0,4,,,,,,,,3,,,47,0
97342,note_on,22,0,1,,,,,,,,0,,,66,0
97342,note_on,94,0,8,,,,,,,,7,,,66,0
97342,note_on,46,0,7,,,,,,,,6,,,71,0
97342,note_on,46,0,5,,,,,,,,4,,,74,0
97344,note_on,2,0,7,,,,,,,,6,,,74,110
97344,note_on,2,0,4,,,,,,,,3,,,47,110
97344,note_on,2,0,5,,,,,,,,4,,,71,110
97344,note_on,2,0,3,,,,,,,,2,,,78,110
97344,note_on,2,0,1,,,,,,,,0,,,62,110
97344,note_on,2,0,6,,,,,,,,5,,,62,110
97344,note_on,2,0,8,,,,,,,,7,,,66,110
97366,note_on,22,0,1,,,,,,,,0,,,62,0
97368,note_on,2,0,1,,,,,,,,0,,,66,110
97390,note_on,46,0,7,,,,,,,,6,,,74,0
97390,note_on,22,0,1,,,,,,,,0,,,66,0
97390,note_on,46,0,5,,,,,,,,4,,,71,0
97390,note_on,46,0,3,,,,,,,,2,,,78,0
97392,note_on,2,0,7,,,,,,,,6,,,71,110
97392,note_on,2,0,3,,,,,,,,2,,,74,110
97392,note_on,2,0,1,,,,,,,,0,,,71,110
97392,note_on,2,0,5,,,,,,,,4,,,74,110
97414,note_on,22,0,1,,,,,,,,0,,,71,0
97416,note_on,2,0,1,,,,,,,,0,,,74,110
97438,note_on,22,0,1,,,,,,,,0,,,74,0
97438,note_on,94,0,4,,,,,,,,3,,,47,0
97438,note_on,46,0,3,,,,,,,,2,,,74,0
97438,note_on,46,0,5,,,,,,,,4,,,74,0
97438,note_on,46,0,7,,,,,,,,6,,,71,0
97438,note_on,94,0,8,,,,,,,,7,,,66,0
97438,note_on,94,0,6,,,,,,,,5,,,62,0
97440,note_on,2,0,4,,,,,,,,3,,,47,110
97440,note_on,2,0,3,,,,,,,,2,,,71,110
97440,note_on,2,0,5,,,,,,,,4,,,78,110
97440,note_on,2,0,6,,,,,,,,5,,,62,110
97440,note_on,2,0,1,,,,,,,,0,,,78,110
97440,note_on,2,0,7,,,,,,,,6,,,74,110
97440,note_on,2,0,8,,,,,,,,7,,,66,110
97462,note_on,22,0,1,,,,,,,,0,,,78,0
97464,note_on,2,0,1,,,,,,,,0,,,74,110
97486,note_on,46,0,7,,,,,,,,6,,,74,0
97486,note_on,46,0,5,,,,,,,,4,,,78,0
97486,note_on,46,0,3,,,,,,,,2,,,71,0
97486,note_on,22,0,1,,,,,,,,0,,,74,0
97488,note_on,2,0,3,,,,,,,,2,,,78,110
97488,note_on,2,0,7,,,,,,,,6,,,71,110
97488,note_on,2,0,1,,,,,,,,0,,,71,110
97488,note_on,2,0,5,,,,,,,,4,,,74,110
97510,note_on,22,0,1,,,,,,,,0,,,71,0
97512,note_on,2,0,1,,,,,,,,0,,,66,110
97534,note_on,46,0,7,,,,,,,,6,,,71,0
97534,note_on,22,0,1,,,,,,,,0,,,66,0
97534,note_on,94,0,4,,,,,,,,3,,,47,0
97534,note_on,94,0,8,,,,,,,,7,,,66,0
97534,note_on,46,0,3,,,,,,,,2,,,78,0
97534,note_on,94,0,6,,,,,,,,5,,,62,0
97534,note_on,46,0,5,,,,,,,,4,,,74,0
97536,note_on,2,0,7,,,,,,,,6,,,74,110
97536,note_on,2,0,1,,,,,,,,0,,,62,110
97536,note_on,2,0,3,,,,,,,,2,,,78,110
97536,note_on,2,0,6,,,,,,,,5,,,62,110
97536,note_on,2,0,8,,,,,,,,7,,,66,110
97536,note_on,2,0,5,,,,,,,,4,,,71,110
97536,note_on,2,0,4,,,,,,,,3,,,47,110
97558,note_on,22,0,1,,,,,,,,0,,,62,0
97560,note_on,2,0,1,,,,,,,,0,,,66,110
97582,note_on,22,0,1,,,,,,,,0,,,66,0
97582,note_on,46,0,3,,,,,,,,2,,,78,0
97582,note_on,46,0,7,,,,,,,,6,,,74,0
97582,note_on,46,0,5,,,,,,,,4,,,71,0
97584,note_on,2,0,3,,,,,,,,2,,,74,110
97584,note_on,2,0,5,,,,,,,,4,,,74,110
97584,note_on,2,0,1,,,,,,,,0,,,71,110
97584,note_on,2,0,7,,,,,,,,6,,,71,110
97606,note_on,22,0,1,,,,,,,,0,,,71,0
97608,note_on,2,0,1,,,,,,,,0,,,74,110
97630,note_on,46,0,5,,,,,,,,4,,,74,0
97630,note_on,46,0,3,,,,,,,,2,,,74,0
97630,note_on,94,0,6,,,,,,,,5,,,62,0
97630,note_on,94,0,4,,,,,,,,3,,,47,0
97630,note_on,46,0,7,,,,,,,,6,,,71,0
97630,note_on,94,0,8,,,,,,,,7,,,66,0
97630,note_on,22,0,1,,,,,,,,0,,,74,0
97632,note_on,2,0,1,,,,,,,,0,,,78,110
97632,note_on,2,0,5,,,,,,,,4,,,78,110
97632,note_on,2,0,8,,,,,,,,7,,,66,110
97632,note_on,2,0,7,,,,,,,,6,,,74,110
97632,note_on,2,0,6,,,,,,,,5,,,62,110
97632,note_on,2,0,3,,,,,,,,2,,,71,110
97632,note_on,2,0,4,,,,,,,,3,,,47,110
97654,note_on,22,0,1,,,,,,,,0,,,78,0
97656,note_on,2,0,1,,,,,,,,0,,,74,110
97678,note_on,46,0,5,,,,,,,,4,,,78,0
97678,note_on,46,0,7,,,,,,,,6,,,74,0
97678,note_on,22,0,1,,,,,,,,0,,,74,0
97678,note_on,46,0,3,,,,,,,,2,,,71,0
97680,note_on,2,0,3,,,,,,,,2,,,81,110
97680,note_on,2,0,7,,,,,,,,6,,,71,110
97680,note_on,2,0,1,,,,,,,,0,,,71,110
97680,note_on,2,0,5,,,,,,,,4,,,74,110
97702,note_on,22,0,1,,,,,,,,0,,,71,0
97704,note_on,2,0,1,,,,,,,,0,,,66,110
97726,note_on,94,0,6,,,,,,,,5,,,62,0
97726,note_on,46,0,7,,,,,,,,6,,,71,0
97726,note_on,22,0,1,,,,,,,,0,,,66,0
97726,note_on,46,0,5,,,,,,,,4,,,74,0
97726,note_on,46,0,3,,,,,,,,2,,,81,0
97726,note_on,94,0,8,,,,,,,,7,,,66,0
97726,note_on,94,0,4,,,,,,,,3,,,47,0
97728,note_on,2,0,7,,,,,,,,6,,,78,110
97728,note_on,2,0,5,,,,,,,,4,,,72,110
97728,note_on,2,0,6,,,,,,,,5,,,63,110
97728,note_on,2,0,1,,,,,,,,0,,,66,110
97728,note_on,2,0,8,,,,,,,,7,,,69,110
97728,note_on,2,0,3,,,,,,,,2,,,81,110
97728,note_on,2,0,4,,,,,,,,3,,,51,110
97750,note_on,22,0,1,,,,,,,,0,,,66,0
97752,note_on,2,0,1,,,,,,,,0,,,69,110
97774,note_on,46,0,5,,,,,,,,4,,,72,0
97774,note_on,46,0,3,,,,,,,,2,,,81,0
97774,note_on,46,0,7,,,,,,,,6,,,78,0
97774,note_on,22,0,1,,,,,,,,0,,,69,0
97776,note_on,2,0,3,,,,,,,,2,,,78,110
97776,note_on,2,0,1,,,,,,,,0,,,72,110
97776,note_on,2,0,5,,,,,,,,4,,,78,110
97776,note_on,2,0,7,,,,,,,,6,,,72,110
97798,note_on,22,0,1,,,,,,,,0,,,72,0
97800,note_on,2,0,1,,,,,,,,0,,,78,110
97822,note_on,94,0,8,,,,,,,,7,,,69,0
97822,note_on,46,0,7,,,,,,,,6,,,72,0
97822,note_on,94,0,4,,,,,,,,3,,,51,0
97822,note_on,94,0,6,,,,,,,,5,,,63,0
97822,note_on,22,0,1,,,,,,,,0,,,78,0
97822,note_on,46,0,5,,,,,,,,4,,,78,0
97822,note_on,46,0,3,,,,,,,,2,,,78,0
97824,note_on,2,0,1,,,,,,,,0,,,81,110
97824,note_on,2,0,6,,,,,,,,5,,,63,110
97824,note_on,2,0,7,,,,,,,,6,,,78,110
97824,note_on,2,0,8,,,,,,,,7,,,69,110
97824,note_on,2,0,3,,,,,,,,2,,,75,110
97824,note_on,2,0,4,,,,,,,,3,,,51,110
97824,note_on,2,0,5,,,,,,,,4,,,81,110
97846,note_on,22,0,1,,,,,,,,0,,,81,0
97848,note_on,2,0,1,,,,,,,,0,,,78,110
97870,note_on,46,0,7,,,,,,,,6,,,78,0
97870,note_on,46,0,3,,,,,,,,2,,,75,0
97870,note_on,22,0,1,,,,,,,,0,,,78,0
97870,note_on,46,0,5,,,,,,,,4,,,81,0
97872,note_on,2,0,3,,,,,,,,2,,,81,110
97872,note_on,2,0,7,,,,,,,,6,,,72,110
97872,note_on,2,0,5,,,,,,,,4,,,78,110
97872,note_on,2,0,1,,,,,,,,0,,,72,110
97894,note_on,22,0,1,,,,,,,,0,,,72,0
97896,note_on,2,0,1,,,,,,,,0,,,69,110
97918,note_on,46,0,5,,,,,,,,4,,,78,0
97918,note_on,22,0,1,,,,,,,,0,,,69,0
97918,note_on,46,0,7,,,,,,,,6,,,72,0
97918,note_on,46,0,3,,,,,,,,2,,,81,0
97918,note_on,94,0,4,,,,,,,,3,,,51,0
97918,note_on,94,0,8,,,,,,,,7,,,69,0
97918,note_on,94,0,6,,,,,,,,5,,,63,0
97920,note_on,2,0,3,,,,,,,,2,,,81,110
97920,note_on,2,0,4,,,,,,,,3,,,51,110
97920,note_on,2,0,8,,,,,,,,7,,,69,110
97920,note_on,2,0,7,,,,,,,,6,,,78,110
97920,note_on,2,0,1,,,,,,,,0,,,66,110
97920,note_on,2,0,5,,,,,,,,4,,,72,110
97920,note_on,2,0,6,,,,,,,,5,,,63,110
97942,note_on,22,0,1,,,,,,,,0,,,66,0
97944,note_on,2,0,1,,,,,,,,0,,,69,110
97966,note_on,46,0,5,,,,,,,,4,,,72,0
97966,note_on,46,0,3,,,,,,,,2,,,81,0
97966,note_on,22,0,1,,,,,,,,0,,,69,0
97966,note_on,46,0,7,,,,,,,,6,,,78,0
97968,note_on,2,0,3,,,,,,,,2,,,78,110
97968,note_on,2,0,1,,,,,,,,0,,,72,110
97968,note_on,2,0,5,,,,,,,,4,,,78,110
97968,note_on,2,0,7,,,,,,,,6,,,72,110
97990,note_on,22,0,1,,,,,,,,0,,,72,0
97992,note_on,2,0,1,,,,,,,,0,,,78,110
98014,note_on,46,0,3,,,,,,,,2,,,78,0
98014,note_on,94,0,8,,,,,,,,7,,,69,0
98014,note_on,46,0,5,,,,,,,,4,,,78,0
98014,note_on,94,0,6,,,,,,,,5,,,63,0
98014,note_on,94,0,4,,,,,,,,3,,,51,0
98014,note_on,22,0,1,,,,,,,,0,,,78,0
98014,note_on,46,0,7,,,,,,,,6,,,72,0
98016,note_on,2,0,1,,,,,,,,0,,,81,110
98016,note_on,2,0,3,,,,,,,,2,,,75,110
98016,note_on,2,0,4,,,,,,,,3,,,51,110
98016,note_on,2,0,7,,,,,,,,6,,,78,110
98016,note_on,2,0,6,,,,,,,,5,,,63,110
98016,note_on,2,0,8,,,,,,,,7,,,69,110
98016,note_on,2,0,5,,,,,,,,4,,,81,110
98038,note_on,22,0,1,,,,,,,,0,,,81,0
98040,note_on,2,0,1,,,,,,,,0,,,78,110
98062,note_on,22,0,1,,,,,,,,0,,,78,0
98062,note_on,46,0,3,,,,,,,,2,,,75,0
98062,note_on,46,0,5,,,,,,,,4,,,81,0
98062,note_on,46,0,7,,,,,,,,6,,,78,0
98064,note_on,2,0,7,,,,,,,,6,,,72,110
98064,note_on,2,0,1,,,,,,,,0,,,72,110
98064,note_on,2,0,3,,,,,,,,2,,,81,110
98064,note_on,2,0,5,,,,,,,,4,,,78,110
98086,note_on,22,0,1,,,,,,,,0,,,72,0
98088,note_on,2,0,1,,,,,,,,0,,,69,110
98110,note_on,22,0,1,,,,,,,,0,,,69,0
98110,note_on,46,0,7,,,,,,,,6,,,72,0
98110,note_on,46,0,5,,,,,,,,4,,,78,0
98110,note_on,94,0,4,,,,,,,,3,,,51,0
98110,note_on,94,0,6,,,,,,,,5,,,63,0
98110,note_on,94,0,8,,,,,,,,7,,,69,0
98110,note_on,46,0,3,,,,,,,,2,,,81,0
98112,note_on,2,0,8,,,,,,,,7,,,69,110
98112,note_on,2,0,6,,,,,,,,5,,,63,110
98112,note_on,2,0,5,,,,,,,,4,,,72,110
98112,note_on,2,0,7,,,,,,,,6,,,78,110
98112,note_on,2,0,1,,,,,,,,0,,,66,110
98112,note_on,2,0,4,,,,,,,,3,,,51,110
98112,note_on,2,0,3,,,,,,,,2,,,81,110
98134,note_on,22,0,1,,,,,,,,0,,,66,0
98136,note_on,2,0,1,,,,,,,,0,,,69,110
98158,note_on,22,0,1,,,,,,,,0,,,69,0
98158,note_on,46,0,3,,,,,,,,2,,,81,0
98158,note_on,46,0,7,,,,,,,,6,,,78,0
98158,note_on,46,0,5,,,,,,,,4,,,72,0
98160,note_on,2,0,5,,,,,,,,4,,,78,110
98160,note_on,2,0,3,,,,,,,,2,,,78,110
98160,note_on,2,0,1,,,,,,,,0,,,72,110
98160,note_on,2,0,7,,,,,,,,6,,,72,110
98182,note_on,22,0,1,,,,,,,,0,,,72,0
98184,note_on,2,0,1,,,,,,,,0,,,78,110
98206,note_on,94,0,8,,,,,,,,7,,,69,0
98206,note_on,94,0,4,,,,,,,,3,,,51,0
98206,note_on,46,0,5,,,,,,,,4,,,78,0
98206,note_on,46,0,3,,,,,,,,2,,,78,0
98206,note_on,94,0,6,,,,,,,,5,,,63,0
98206,note_on,22,0,1,,,,,,,,0,,,78,0
98206,note_on,46,0,7,,,,,,,,6,,,72,0
98208,note_on,2,0,4,,,,,,,,3,,,51,110
98208,note_on,2,0,8,,,,,,,,7,,,69,110
98208,note_on,2,0,1,,,,,,,,0,,,81,110
98208,note_on,2,0,5,,,,,,,,4,,,81,110
98208,note_on,2,0,7,,,,,,,,6,,,78,110
98208,note_on,2,0,3,,,,,,,,2,,,75,110
98208,note_on,2,0,6,,,,,,,,5,,,63,110
98230,note_on,22,0,1,,,,,,,,0,,,81,0
98232,note_on,2,0,1,,,,,,,,0,,,78,110
98254,note_on,46,0,5,,,,,,,,4,,,81,0
98254,note_on,22,0,1,,,,,,,,0,,,78,0
98254,note_on,46,0,3,,,,,,,,2,,,75,0
98254,note_on,46,0,7,,,,,,,,6,,,78,0
98256,note_on,2,0,7,,,,,,,,6,,,72,110
98256,note_on,2,0,5,,,,,,,,4,,,78,110
98256,note_on,2,0,1,,,,,,,,0,,,72,110
98256,note_on,2,0,3,,,,,,,,2,,,81,110
98278,note_on,22,0,1,,,,,,,,0,,,72,0
98280,note_on,2,0,1,,,,,,,,0,,,69,110
98302,note_on,46,0,5,,,,,,,,4,,,78,0
98302,note_on,94,0,8,,,,,,,,7,,,69,0
98302,note_on,94,0,6,,,,,,,,5,,,63,0
98302,note_on,94,0,4,,,,,,,,3,,,51,0
98302,note_on,22,0,1,,,,,,,,0,,,69,0
98302,note_on,46,0,7,,,,,,,,6,,,72,0
98302,note_on,46,0,3,,,,,,,,2,,,81,0
98304,note_on,2,0,4,,,,,,,,3,,,52,110
98304,note_on,2,0,1,,,,,,,,0,,,64,110
98304,note_on,2,0,5,,,,,,,,4,,,71,110
98304,note_on,2,0,6,,,,,,,,5,,,59,110
98304,note_on,2,0,8,,,,,,,,7,,,64,110
98304,note_on,2,0,3,,,,,,,,2,,,81,110
98304,note_on,2,0,7,,,,,,,,6,,,76,110
98326,note_on,22,0,1,,,,,,,,0,,,64,0
98328,note_on,2,0,1,,,,,,,,0,,,71,110
98350,note_on,46,0,7,,,,,,,,6,,,76,0
98350,note_on,46,0,3,,,,,,,,2,,,81,0
98350,note_on,46,0,5,,,,,,,,4,,,71,0
98350,note_on,22,0,1,,,,,,,,0,,,71,0
98352,note_on,2,0,5,,,,,,,,4,,,76,110
98352,note_on,2,0,3,,,,,,,,2,,,76,110
98352,note_on,2,0,7,,,,,,,,6,,,71,110
98352,note_on,2,0,1,,,,,,,,0,,,75,110
98374,note_on,22,0,1,,,,,,,,0,,,75,0
98376,note_on,2,0,1,,,,,,,,0,,,76,110
98398,note_on,46,0,7,,,,,,,,6,,,71,0
98398,note_on,94,0,4,,,,,,,,3,,,52,0
98398,note_on,46,0,5,,,,,,,,4,,,76,0
98398,note_on,94,0,6,,,,,,,,5,,,59,0
98398,note_on,94,0,8,,,,,,,,7,,,64,0
98398,note_on,46,0,3,,,,,,,,2,,,76,0
98398,note_on,22,0,1,,,,,,,,0,,,76,0
98400,note_on,2,0,1,,,,,,,,0,,,81,110
98400,note_on,2,0,4,,,,,,,,3,,,52,110
98400,note_on,2,0,6,,,,,,,,5,,,59,110
98400,note_on,2,0,8,,,,,,,,7,,,64,110
98400,note_on,2,0,3,,,,,,,,2,,,71,110
98400,note_on,2,0,5,,,,,,,,4,,,81,110
98400,note_on,2,0,7,,,,,,,,6,,,76,110
98422,note_on,22,0,1,,,,,,,,0,,,81,0
98424,note_on,2,0,1,,,,,,,,0,,,75,110
98446,note_on,46,0,3,,,,,,,,2,,,71,0
98446,note_on,46,0,5,,,,,,,,4,,,81,0
98446,note_on,22,0,1,,,,,,,,0,,,75,0
98446,note_on,46,0,7,,,,,,,,6,,,76,0
98448,note_on,2,0,7,,,,,,,,6,,,71,110
98448,note_on,2,0,3,,,,,,,,2,,,81,110
98448,note_on,2,0,1,,,,,,,,0,,,76,110
98448,note_on,2,0,5,,,,,,,,4,,,76,110
98470,note_on,22,0,1,,,,,,,,0,,,76,0
98472,note_on,2,0,1,,,,,,,,0,,,71,110
98494,note_on,22,0,1,,,,,,,,0,,,71,0
98494,note_on,46,0,3,,,,,,,,2,,,81,0
98494,note_on,94,0,6,,,,,,,,5,,,59,0
98494,note_on,94,0,4,,,,,,,,3,,,52,0
98494,note_on,94,0,8,,,,,,,,7,,,64,0
98494,note_on,46,0,7,,,,,,,,6,,,71,0
98494,note_on,46,0,5,,,,,,,,4,,,76,0
98496,note_on,2,0,8,,,,,,,,7,,,64,110
98496,note_on,2,0,5,,,,,,,,4,,,71,110
98496,note_on,2,0,4,,,,,,,,3,,,52,110
98496,note_on,2,0,7,,,,,,,,6,,,76,110
98496,note_on,2,0,1,,,,,,,,0,,,64,110
98496,note_on,2,0,3,,,,,,,,2,,,81,110
98496,note_on,2,0,6,,,,,,,,5,,,59,110
98518,note_on,22,0,1,,,,,,,,0,,,64,0
98520,note_on,2,0,1,,,,,,,,0,,,71,110
98542,note_on,46,0,3,,,,,,,,2,,,81,0
98542,note_on,22,0,1,,,,,,,,0,,,71,0
98542,note_on,46,0,7,,,,,,,,6,,,76,0
98542,note_on,46,0,5,,,,,,,,4,,,71,0
98544,note_on,2,0,1,,,,,,,,0,,,75,110
98544,note_on,2,0,7,,,,,,,,6,,,71,110
98544,note_on,2,0,5,,,,,,,,4,,,76,110
98544,note_on,2,0,3,,,,,,,,2,,,76,110
98566,note_on,22,0,1,,,,,,,,0,,,75,0
98568,note_on,2,0,1,,,,,,,,0,,,76,110
98590,note_on,46,0,7,,,,,,,,6,,,71,0
98590,note_on,22,0,1,,,,,,,,0,,,76,0
98590,note_on,94,0,4,,,,,,,,3,,,52,0
98590,note_on,46,0,3,,,,,,,,2,,,76,0
98590,note_on,94,0,6,,,,,,,,5,,,59,0
98590,note_on,46,0,5,,,,,,,,4,,,76,0
98590,note_on,94,0,8,,,,,,,,7,,,64,0
98592,note_on,2,0,1,,,,,,,,0,,,81,110
98592,note_on,2,0,3,,,,,,,,2,,,71,110
98592,note_on,2,0,4,,,,,,,,3,,,52,110
98592,note_on,2,0,7,,,,,,,,6,,,76,110
98592,note_on,2,0,6,,,,,,,,5,,,59,110
98592,note_on,2,0,8,,,,,,,,7,,,64,110
98592,note_on,2,0,5,,,,,,,,4,,,81,110
98614,note_on,22,0,1,,,,,,,,0,,,81,0
98616,note_on,2,0,1,,,,,,,,0,,,75,110
98638,note_on,46,0,7,,,,,,,,6,,,76,0
98638,note_on,46,0,5,,,,,,,,4,,,81,0
98638,note_on,46,0,3,,,,,,,,2,,,71,0
98638,note_on,22,0,1,,,,,,,,0,,,75,0
98640,note_on,2,0,3,,,,,,,,2,,,81,110
98640,note_on,2,0,7,,,,,,,,6,,,71,110
98640,note_on,2,0,5,,,,,,,,4,,,76,110
98640,note_on,2,0,1,,,,,,,,0,,,76,110
98662,note_on,22,0,1,,,,,,,,0,,,76,0
98664,note_on,2,0,1,,,,,,,,0,,,71,110
98686,note_on,22,0,1,,,,,,,,0,,,71,0
98686,note_on,46,0,3,,,,,,,,2,,,81,0
98686,note_on,46,0,7,,,,,,,,6,,,71,0
98686,note_on,94,0,8,,,,,,,,7,,,64,0
98686,note_on,46,0,5,,,,,,,,4,,,76,0
98686,note_on,94,0,6,,,,,,,,5,,,59,0
98686,note_on,94,0,4,,,,,,,,3,,,52,0
98688,note_on,2,0,8,,,,,,,,7,,,64,110
98688,note_on,2,0,6,,,,,,,,5,,,59,110
98688,note_on,2,0,5,,,,,,,,4,,,71,110
98688,note_on,2,0,4,,,,,,,,3,,,52,110
98688,note_on,2,0,7,,,,,,,,6,,,76,110
98688,note_on,2,0,3,,,,,,,,2,,,81,110
98688,note_on,2,0,1,,,,,,,,0,,,64,110
98710,note_on,22,0,1,,,,,,,,0,,,64,0
98712,note_on,2,0,1,,,,,,,,0,,,71,110
98734,note_on,22,0,1,,,,,,,,0,,,71,0
98734,note_on,46,0,3,,,,,,,,2,,,81,0
98734,note_on,46,0,7,,,,,,,,6,,,76,0
98734,note_on,46,0,5,,,,,,,,4,,,71,0
98736,note_on,2,0,3,,,,,,,,2,,,76,110
98736,note_on,2,0,7,,,,,,,,6,,,71,110
98736,note_on,2,0,1,,,,,,,,0,,,75,110
98736,note_on,2,0,5,,,,,,,,4,,,76,110
98758,note_on,22,0,1,,,,,,,,0,,,75,0
98760,note_on,2,0,1,,,,,,,,0,,,76,110
98782,note_on,94,0,6,,,,,,,,5,,,59,0
98782,note_on,46,0,3,,,,,,,,2,,,76,0
98782,note_on,94,0,8,,,,,,,,7,,,64,0
98782,note_on,46,0,5,,,,,,,,4,,,76,0
98782,note_on,94,0,4,,,,,,,,3,,,52,0
98782,note_on,46,0,7,,,,,,,,6,,,71,0
98782,note_on,22,0,1,,,,,,,,0,,,76,0
98784,note_on,2,0,4,,,,,,,,3,,,52,110
98784,note_on,2,0,7,,,,,,,,6,,,76,110
98784,note_on,2,0,6,,,,,,,,5,,,59,110
98784,note_on,2,0,3,,,,,,,,2,,,71,110
98784,note_on,2,0,5,,,,,,,,4,,,81,110
98784,note_on,2,0,1,,,,,,,,0,,,81,110
98784,note_on,2,0,8,,,,,,,,7,,,64,110
98806,note_on,22,0,1,,,,,,,,0,,,81,0
98808,note_on,2,0,1,,,,,,,,0,,,75,110
98830,note_on,46,0,3,,,,,,,,2,,,71,0
98830,note_on,46,0,5,,,,,,,,4,,,81,0
98830,note_on,22,0,1,,,,,,,,0,,,75,0
98830,note_on,46,0,7,,,,,,,,6,,,76,0
98832,note_on,2,0,1,,,,,,,,0,,,76,110
98832,note_on,2,0,7,,,,,,,,6,,,71,110
98832,note_on,2,0,5,,,,,,,,4,,,76,110
98832,note_on,2,0,3,,,,,,,,2,,,81,110
98854,note_on,22,0,1,,,,,,,,0,,,76,0
98856,note_on,2,0,1,,,,,,,,0,,,71,110
98878,note_on,94,0,4,,,,,,,,3,,,52,0
98878,note_on,46,0,3,,,,,,,,2,,,81,0
98878,note_on,46,0,7,,,,,,,,6,,,71,0
98878,note_on,22,0,1,,,,,,,,0,,,71,0
98878,note_on,46,0,5,,,,,,,,4,,,76,0
98878,note_on,94,0,6,,,,,,,,5,,,59,0
98878,note_on,94,0,8,,,,,,,,7,,,64,0
98880,note_on,2,0,7,,,,,,,,6,,,76,110
98880,note_on,2,0,5,,,,,,,,4,,,71,110
98880,note_on,2,0,4,,,,,,,,3,,,52,110
98880,note_on,2,0,6,,,,,,,,5,,,59,110
98880,note_on,2,0,3,,,,,,,,2,,,79,110
98880,note_on,2,0,1,,,,,,,,0,,,64,110
98880,note_on,2,0,8,,,,,,,,7,,,67,110
98902,note_on,22,0,1,,,,,,,,0,,,64,0
98904,note_on,2,0,1,,,,,,,,0,,,71,110
98926,note_on,22,0,1,,,,,,,,0,,,71,0
98926,note_on,46,0,3,,,,,,,,2,,,79,0
98926,note_on,46,0,5,,,,,,,,4,,,71,0
98926,note_on,46,0,7,,,,,,,,6,,,76,0
98928,note_on,2,0,3,,,,,,,,2,,,76,110
98928,note_on,2,0,1,,,,,,,,0,,,75,110
98928,note_on,2,0,5,,,,,,,,4,,,76,110
98928,note_on,2,0,7,,,,,,,,6,,,71,110
98950,note_on,22,0,1,,,,,,,,0,,,75,0
98952,note_on,2,0,1,,,,,,,,0,,,76,110
98974,note_on,46,0,7,,,,,,,,6,,,71,0
98974,note_on,22,0,1,,,,,,,,0,,,76,0
98974,note_on,94,0,4,,,,,,,,3,,,52,0
98974,note_on,46,0,5,,,,,,,,4,,,76,0
98974,note_on,94,0,6,,,,,,,,5,,,59,0
98974,note_on,46,0,3,,,,,,,,2,,,76,0
98974,note_on,94,0,8,,,,,,,,7,,,67,0
98976,note_on,2,0,1,,,,,,,,0,,,79,110
98976,note_on,2,0,4,,,,,,,,3,,,52,110
98976,note_on,2,0,5,,,,,,,,4,,,79,110
98976,note_on,2,0,7,,,,,,,,6,,,76,110
98976,note_on,2,0,3,,,,,,,,2,,,71,110
98976,note_on,2,0,8,,,,,,,,7,,,67,110
98976,note_on,2,0,6,,,,,,,,5,,,59,110
98998,note_on,22,0,1,,,,,,,,0,,,79,0
99000,note_on,2,0,1,,,,,,,,0,,,75,110
99022,note_on,46,0,3,,,,,,,,2,,,71,0
99022,note_on,22,0,1,,,,,,,,0,,,75,0
99022,note_on,46,0,7,,,,,,,,6,,,76,0
99022,note_on,46,0,5,,,,,,,,4,,,79,0
99024,note_on,2,0,1,,,,,,,,0,,,76,110
99024,note_on,2,0,3,,,,,,,,2,,,79,110
99024,note_on,2,0,5,,,,,,,,4,,,76,110
99024,note_on,2,0,7,,,,,,,,6,,,71,110
99046,note_on,22,0,1,,,,,,,,0,,,76,0
99048,note_on,2,0,1,,,,,,,,0,,,71,110
99070,note_on,46,0,3,,,,,,,,2,,,79,0
99070,note_on,94,0,8,,,,,,,,7,,,67,0
99070,note_on,46,0,7,,,,,,,,6,,,71,0
99070,note_on,94,0,4,,,,,,,,3,,,52,0
99070,note_on,22,0,1,,,,,,,,0,,,71,0
99070,note_on,94,0,6,,,,,,,,5,,,59,0
99070,note_on,46,0,5,,,,,,,,4,,,76,0
99072,note_on,2,0,1,,,,,,,,0,,,64,110
99072,note_on,2,0,8,,,,,,,,7,,,67,110
99072,note_on,2,0,6,,,,,,,,5,,,59,110
99072,note_on,2,0,4,,,,,,,,3,,,52,110
99072,note_on,2,0,7,,,,,,,,6,,,76,110
99072,note_on,2,0,5,,,,,,,,4,,,71,110
99072,note_on,2,0,3,,,,,,,,2,,,79,110
99094,note_on,22,0,1,,,,,,,,0,,,64,0
99096,note_on,2,0,1,,,,,,,,0,,,71,110
99118,note_on,46,0,3,,,,,,,,2,,,79,0
99118,note_on,46,0,5,,,,,,,,4,,,71,0
99118,note_on,22,0,1,,,,,,,,0,,,71,0
99118,note_on,46,0,7,,,,,,,,6,,,76,0
99120,note_on,2,0,1,,,,,,,,0,,,75,110
99120,note_on,2,0,7,,,,,,,,6,,,71,110
99120,note_on,2,0,3,,,,,,,,2,,,76,110
99120,note_on,2,0,5,,,,,,,,4,,,76,110
99142,note_on,22,0,1,,,,,,,,0,,,75,0
99144,note_on,2,0,1,,,,,,,,0,,,76,110
99166,note_on,94,0,8,,,,,,,,7,,,67,0
99166,note_on,94,0,4,,,,,,,,3,,,52,0
99166,note_on,46,0,7,,,,,,,,6,,,71,0
99166,note_on,46,0,3,,,,,,,,2,,,76,0
99166,note_on,94,0,6,,,,,,,,5,,,59,0
99166,note_on,46,0,5,,,,,,,,4,,,76,0
99166,note_on,22,0,1,,,,,,,,0,,,76,0
99168,note_on,2,0,5,,,,,,,,4,,,79,110
99168,note_on,2,0,7,,,,,,,,6,,,76,110
99168,note_on,2,0,3,,,,,,,,2,,,71,110
99168,note_on,2,0,8,,,,,,,,7,,,67,110
99168,note_on,2,0,1,,,,,,,,0,,,79,110
99168,note_on,2,0,6,,,,,,,,5,,,59,110
99168,note_on,2,0,4,,,,,,,,3,,,52,110
99190,note_on,22,0,1,,,,,,,,0,,,79,0
99192,note_on,2,0,1,,,,,,,,0,,,75,110
99214,note_on,22,0,1,,,,,,,,0,,,75,0
99214,note_on,46,0,5,,,,,,,,4,,,79,0
99214,note_on,46,0,7,,,,,,,,6,,,76,0
99214,note_on,46,0,3,,,,,,,,2,,,71,0
99216,note_on,2,0,1,,,,,,,,0,,,76,110
99216,note_on,2,0,7,,,,,,,,6,,,71,110
99216,note_on,2,0,5,,,,,,,,4,,,76,110
99216,note_on,2,0,3,,,,,,,,2,,,79,110
99238,note_on,22,0,1,,,,,,,,0,,,76,0
99240,note_on,2,0,1,,,,,,,,0,,,71,110
99262,note_on,94,0,6,,,,,,,,5,,,59,0
99262,note_on,46,0,5,,,,,,,,4,,,76,0
99262,note_on,46,0,3,,,,,,,,2,,,79,0
99262,note_on,22,0,1,,,,,,,,0,,,71,0
99262,note_on,46,0,7,,,,,,,,6,,,71,0
99262,note_on,94,0,4,,,,,,,,3,,,52,0
99262,note_on,94,0,8,,,,,,,,7,,,67,0
99264,note_on,2,0,6,,,,,,,,5,,,59,110
99264,note_on,2,0,8,,,,,,,,7,,,67,110
99264,note_on,2,0,7,,,,,,,,6,,,76,110
99264,note_on,2,0,1,,,,,,,,0,,,64,110
99264,note_on,2,0,5,,,,,,,,4,,,71,110
99264,note_on,2,0,4,,,,,,,,3,,,52,110
99264,note_on,2,0,3,,,,,,,,2,,,79,110
99286,note_on,22,0,1,,,,,,,,0,,,64,0
99288,note_on,2,0,1,,,,,,,,0,,,71,110
99310,note_on,46,0,5,,,,,,,,4,,,71,0
99310,note_on,46,0,3,,,,,,,,2,,,79,0
99310,note_on,22,0,1,,,,,,,,0,,,71,0
99310,note_on,46,0,7,,,,,,,,6,,,76,0
99312,note_on,2,0,5,,,,,,,,4,,,76,110
99312,note_on,2,0,3,,,,,,,,2,,,76,110
99312,note_on,2,0,7,,,,,,,,6,,,71,110
99312,note_on,2,0,1,,,,,,,,0,,,75,110
99334,note_on,22,0,1,,,,,,,,0,,,75,0
99336,note_on,2,0,1,,,,,,,,0,,,76,110
99358,note_on,46,0,5,,,,,,,,4,,,76,0
99358,note_on,46,0,3,,,,,,,,2,,,76,0
99358,note_on,22,0,1,,,,,,,,0,,,76,0
99358,note_on,94,0,8,,,,,,,,7,,,67,0
99358,note_on,94,0,6,,,,,,,,5,,,59,0
99358,note_on,94,0,4,,,,,,,,3,,,52,0
99358,note_on,46,0,7,,,,,,,,6,,,71,0
99360,note_on,2,0,1,,,,,,,,0,,,79,110
99360,note_on,2,0,7,,,,,,,,6,,,76,110
99360,note_on,2,0,6,,,,,,,,5,,,59,110
99360,note_on,2,0,4,,,,,,,,3,,,52,110
99360,note_on,2,0,8,,,,,,,,7,,,67,110
99360,note_on,2,0,3,,,,,,,,2,,,71,110
99360,note_on,2,0,5,,,,,,,,4,,,79,110
99382,note_on,22,0,1,,,,,,,,0,,,79,0
99384,note_on,2,0,1,,,,,,,,0,,,75,110
99406,note_on,46,0,3,,,,,,,,2,,,71,0
99406,note_on,46,0,5,,,,,,,,4,,,79,0
99406,note_on,46,0,7,,,,,,,,6,,,76,0
99406,note_on,22,0,1,,,,,,,,0,,,75,0
99408,note_on,2,0,7,,,,,,,,6,,,71,110
99408,note_on,2,0,5,,,,,,,,4,,,76,110
99408,note_on,2,0,3,,,,,,,,2,,,79,110
99408,note_on,2,0,1,,,,,,,,0,,,76,110
99430,note_on,22,0,1,,,,,,,,0,,,76,0
99432,note_on,2,0,1,,,,,,,,0,,,71,110
99454,note_on,94,0,8,,,,,,,,7,,,67,0
99454,note_on,46,0,7,,,,,,,,6,,,71,0
99454,note_on,94,0,4,,,,,,,,3,,,52,0
99454,note_on,46,0,5,,,,,,,,4,,,76,0
99454,note_on,46,0,3,,,,,,,,2,,,79,0
99454,note_on,94,0,6,,,,,,,,5,,,59,0
99454,note_on,22,0,1,,,,,,,,0,,,71,0
99456,note_on,2,0,8,,,,,,,,7,,,69,110
99456,note_on,2,0,7,,,,,,,,6,,,76,110
99456,note_on,2,0,1,,,,,,,,0,,,64,110
99456,note_on,2,0,5,,,,,,,,4,,,73,110
99456,note_on,2,0,4,,,,,,,,3,,,45,110
99456,note_on,2,0,6,,,,,,,,5,,,64,110
99456,note_on,2,0,3,,,,,,,,2,,,79,110
99478,note_on,22,0,1,,,,,,,,0,,,64,0
99480,note_on,2,0,1,,,,,,,,0,,,69,110
99502,note_on,22,0,1,,,,,,,,0,,,69,0
99502,note_on,46,0,7,,,,,,,,6,,,76,0
99502,note_on,46,0,5,,,,,,,,4,,,73,0
99502,note_on,46,0,3,,,,,,,,2,,,79,0
99504,note_on,2,0,7,,,,,,,,6,,,73,110
99504,note_on,2,0,3,,,,,,,,2,,,76,110
99504,note_on,2,0,1,,,,,,,,0,,,73,110
99504,note_on,2,0,5,,,,,,,,4,,,76,110
99526,note_on,22,0,1,,,,,,,,0,,,73,0
99528,note_on,2,0,1,,,,,,,,0,,,76,110
99550,note_on,94,0,6,,,,,,,,5,,,64,0
99550,note_on,46,0,3,,,,,,,,2,,,76,0
99550,note_on,46,0,7,,,,,,,,6,,,73,0
99550,note_on,46,0,5,,,,,,,,4,,,76,0
99550,note_on,22,0,1,,,,,,,,0,,,76,0
99550,note_on,94,0,4,,,,,,,,3,,,45,0
99550,note_on,94,0,8,,,,,,,,7,,,69,0
99552,note_on,2,0,8,,,,,,,,7,,,69,110
99552,note_on,2,0,7,,,,,,,,6,,,76,110
99552,note_on,2,0,1,,,,,,,,0,,,79,110
99552,note_on,2,0,5,,,,,,,,4,,,79,110
99552,note_on,2,0,4,,,,,,,,3,,,45,110
99552,note_on,2,0,3,,,,,,,,2,,,69,110
99552,note_on,2,0,6,,,,,,,,5,,,64,110
99574,note_on,22,0,1,,,,,,,,0,,,79,0
99576,note_on,2,0,1,,,,,,,,0,,,76,110
99598,note_on,22,0,1,,,,,,,,0,,,76,0
99598,note_on,46,0,7,,,,,,,,6,,,76,0
99598,note_on,46,0,5,,,,,,,,4,,,79,0
99598,note_on,46,0,3,,,,,,,,2,,,69,0
99600,note_on,2,0,1,,,,,,,,0,,,73,110
99600,note_on,2,0,5,,,,,,,,4,,,76,110
99600,note_on,2,0,7,,,,,,,,6,,,73,110
99600,note_on,2,0,3,,,,,,,,2,,,79,110
99622,note_on,22,0,1,,,,,,,,0,,,73,0
99624,note_on,2,0,1,,,,,,,,0,,,69,110
99646,note_on,22,0,1,,,,,,,,0,,,69,0
99646,note_on,46,0,3,,,,,,,,2,,,79,0
99646,note_on,94,0,8,,,,,,,,7,,,69,0
99646,note_on,94,0,6,,,,,,,,5,,,64,0
99646,note_on,94,0,4,,,,,,,,3,,,45,0
99646,note_on,46,0,7,,,,,,,,6,,,73,0
99646,note_on,46,0,5,,,,,,,,4,,,76,0
99648,note_on,2,0,6,,,,,,,,5,,,64,110
99648,note_on,2,0,4,,,,,,,,3,,,45,110
99648,note_on,2,0,3,,,,,,,,2,,,79,110
99648,note_on,2,0,7,,,,,,,,6,,,76,110
99648,note_on,2,0,5,,,,,,,,4,,,73,110
99648,note_on,2,0,8,,,,,,,,7,,,69,110
99648,note_on,2,0,1,,,,,,,,0,,,64,110
99670,note_on,22,0,1,,,,,,,,0,,,64,0
99672,note_on,2,0,1,,,,,,,,0,,,69,110
99694,note_on,22,0,1,,,,,,,,0,,,69,0
99694,note_on,46,0,3,,,,,,,,2,,,79,0
99694,note_on,46,0,5,,,,,,,,4,,,73,0
99694,note_on,46,0,7,,,,,,,,6,,,76,0
99696,note_on,2,0,5,,,,,,,,4,,,76,110
99696,note_on,2,0,7,,,,,,,,6,,,73,110
99696,note_on,2,0,1,,,,,,,,0,,,73,110
99696,note_on,2,0,3,,,,,,,,2,,,76,110
99718,note_on,22,0,1,,,,,,,,0,,,73,0
99720,note_on,2,0,1,,,,,,,,0,,,76,110
99742,note_on,46,0,3,,,,,,,,2,,,76,0
99742,note_on,22,0,1,,,,,,,,0,,,76,0
99742,note_on,94,0,8,,,,,,,,7,,,69,0
99742,note_on,46,0,7,,,,,,,,6,,,73,0
99742,note_on,94,0,4,,,,,,,,3,,,45,0
99742,note_on,94,0,6,,,,,,,,5,,,64,0
99742,note_on,46,0,5,,,,,,,,4,,,76,0
99744,note_on,2,0,7,,,,,,,,6,,,76,110
99744,note_on,2,0,3,,,,,,,,2,,,69,110
99744,note_on,2,0,4,,,,,,,,3,,,45,110
99744,note_on,2,0,5,,,,,,,,4,,,79,110
99744,note_on,2,0,6,,,,,,,,5,,,64,110
99744,note_on,2,0,8,,,,,,,,7,,,69,110
99744,note_on,2,0,1,,,,,,,,0,,,79,110
99766,note_on,22,0,1,,,,,,,,0,,,79,0
99768,note_on,2,0,1,,,,,,,,0,,,76,110
99790,note_on,22,0,1,,,,,,,,0,,,76,0
99790,note_on,46,0,7,,,,,,,,6,,,76,0
99790,note_on,46,0,5,,,,,,,,4,,,79,0
99790,note_on,46,0,3,,,,,,,,2,,,69,0
99792,note_on,2,0,5,,,,,,,,4,,,76,110
99792,note_on,2,0,1,,,,,,,,0,,,73,110
99792,note_on,2,0,7,,,,,,,,6,,,73,110
99792,note_on,2,0,3,,,,,,,,2,,,79,110
99814,note_on,22,0,1,,,,,,,,0,,,73,0
99816,note_on,2,0,1,,,,,,,,0,,,69,110
99838,note_on,46,0,3,,,,,,,,2,,,79,0
99838,note_on,46,0,5,,,,,,,,4,,,76,0
99838,note_on,46,0,7,,,,,,,,6,,,73,0
99838,note_on,22,0,1,,,,,,,,0,,,69,0
99838,note_on,94,0,8,,,,,,,,7,,,69,0
99838,note_on,94,0,6,,,,,,,,5,,,64,0
99838,note_on,94,0,4,,,,,,,,3,,,45,0
99840,note_on,2,0,7,,,,,,,,6,,,76,110
99840,note_on,2,0,8,,,,,,,,7,,,69,110
99840,note_on,2,0,5,,,,,,,,4,,,73,110
99840,note_on,2,0,3,,,,,,,,2,,,79,110
99840,note_on,2,0,4,,,,,,,,3,,,45,110
99840,note_on,2,0,6,,,,,,,,5,,,64,110
99840,note_on,2,0,1,,,,,,,,0,,,64,110
99862,note_on,22,0,1,,,,,,,,0,,,64,0
99864,note_on,2,0,1,,,,,,,,0,,,69,110
99886,note_on,46,0,7,,,,,,,,6,,,76,0
99886,note_on,46,0,5,,,,,,,,4,,,73,0
99886,note_on,46,0,3,,,,,,,,2,,,79,0
99886,note_on,22,0,1,,,,,,,,0,,,69,0
99888,note_on,2,0,1,,,,,,,,0,,,73,110
99888,note_on,2,0,5,,,,,,,,4,,,76,110
99888,note_on,2,0,3,,,,,,,,2,,,76,110
99888,note_on,2,0,7,,,,,,,,6,,,73,110
99910,note_on,22,0,1,,,,,,,,0,,,73,0
99912,note_on,2,0,1,,,,,,,,0,,,76,110
99934,note_on,94,0,6,,,,,,,,5,,,64,0
99934,note_on,94,0,4,,,,,,,,3,,,45,0
99934,note_on,94,0,8,,,,,,,,7,,,69,0
99934,note_on,22,0,1,,,,,,,,0,,,76,0
99934,note_on,46,0,7,,,,,,,,6,,,73,0
99934,note_on,46,0,3,,,,,,,,2,,,76,0
99934,note_on,46,0,5,,,,,,,,4,,,76,0
99936,note_on,2,0,3,,,,,,,,2,,,69,110
99936,note_on,2,0,5,,,,,,,,4,,,79,110
99936,note_on,2,0,1,,,,,,,,0,,,79,110
99936,note_on,2,0,8,,,,,,,,7,,,69,110
99936,note_on,2,0,7,,,,,,,,6,,,76,110
99936,note_on,2,0,6,,,,,,,,5,,,64,110
99936,note_on,2,0,4,,,,,,,,3,,,45,110
99958,note_on,22,0,1,,,,,,,,0,,,79,0
99960,note_on,2,0,1,,,,,,,,0,,,76,110
99982,note_on,46,0,5,,,,,,,,4,,,79,0
99982,note_on,22,0,1,,,,,,,,0,,,76,0
99982,note_on,46,0,7,,,,,,,,6,,,76,0
99982,note_on,46,0,3,,,,,,,,2,,,69,0
99984,note_on,2,0,7,,,,,,,,6,,,73,110
99984,note_on,2,0,1,,,,,,,,0,,,73,110
99984,note_on,2,0,5,,,,,,,,4,,,76,110
99984,note_on,2,0,3,,,,,,,,2,,,79,110
100006,note_on,22,0,1,,,,,,,,0,,,73,0
100008,note_on,2,0,1,,,,,,,,0,,,69,110
100030,note_on,94,0,4,,,,,,,,3,,,45,0
100030,note_on,46,0,5,,,,,,,,4,,,76,0
100030,note_on,94,0,8,,,,,,,,7,,,69,0
100030,note_on,46,0,7,,,,,,,,6,,,73,0
100030,note_on,46,0,3,,,,,,,,2,,,79,0
100030,note_on,94,0,6,,,,,,,,5,,,64,0
100030,note_on,22,0,1,,,,,,,,0,,,69,0
100032,set_tempo,11520,1,0,,,,,,1090909,,,,,,
100032,note_on,2,0,8,,,,,,,,7,,,62,110
100032,note_on,2,0,6,,,,,,,,5,,,65,110
100032,note_on,2,0,4,,,,,,,,3,,,50,110
100032,note_on,2,0,7,,,,,,,,6,,,74,110
100032,note_on,2,0,5,,,,,,,,4,,,69,110
100032,note_on,2,0,1,,,,,,,,0,,,62,110
100032,note_on,2,0,3,,,,,,,,2,,,77,110
100054,note_on,22,0,1,,,,,,,,0,,,62,0
100056,note_on,2,0,1,,,,,,,,0,,,69,110
100078,note_on,22,0,1,,,,,,,,0,,,69,0
100078,note_on,46,0,3,,,,,,,,2,,,77,0
100078,note_on,46,0,5,,,,,,,,4,,,69,0
100078,note_on,46,0,7,,,,,,,,6,,,74,0
100080,note_on,2,0,7,,,,,,,,6,,,69,110
100080,note_on,2,0,1,,,,,,,,0,,,73,110
100080,note_on,2,0,3,,,,,,,,2,,,74,110
100080,note_on,2,0,5,,,,,,,,4,,,74,110
100102,note_on,22,0,1,,,,,,,,0,,,73,0
100104,note_on,2,0,1,,,,,,,,0,,,74,110
100126,note_on,22,0,1,,,,,,,,0,,,74,0
100126,note_on,94,0,4,,,,,,,,3,,,50,0
100126,note_on,94,0,8,,,,,,,,7,,,62,0
100126,note_on,46,0,7,,,,,,,,6,,,69,0
100126,note_on,46,0,3,,,,,,,,2,,,74,0
100126,note_on,94,0,6,,,,,,,,5,,,65,0
100126,note_on,46,0,5,,,,,,,,4,,,74,0
100128,note_on,2,0,7,,,,,,,,6,,,74,110
100128,note_on,2,0,3,,,,,,,,2,,,69,110
100128,note_on,2,0,1,,,,,,,,0,,,77,110
100128,note_on,2,0,4,,,,,,,,3,,,50,110
100128,note_on,2,0,8,,,,,,,,7,,,62,110
100128,note_on,2,0,5,,,,,,,,4,,,77,110
100128,note_on,2,0,6,,,,,,,,5,,,65,110
100150,note_on,22,0,1,,,,,,,,0,,,77,0
100152,note_on,2,0,1,,,,,,,,0,,,73,110
100174,note_on,46,0,7,,,,,,,,6,,,74,0
100174,note_on,22,0,1,,,,,,,,0,,,73,0
100174,note_on,46,0,3,,,,,,,,2,,,69,0
100174,note_on,46,0,5,,,,,,,,4,,,77,0
100176,note_on,2,0,5,,,,,,,,4,,,74,110
100176,note_on,2,0,7,,,,,,,,6,,,69,110
100176,note_on,2,0,1,,,,,,,,0,,,74,110
100176,note_on,2,0,3,,,,,,,,2,,,77,110
100198,note_on,22,0,1,,,,,,,,0,,,74,0
100200,note_on,2,0,1,,,,,,,,0,,,69,110
100222,note_on,46,0,3,,,,,,,,2,,,77,0
100222,note_on,46,0,5,,,,,,,,4,,,74,0
100222,note_on,94,0,4,,,,,,,,3,,,50,0
100222,note_on,46,0,7,,,,,,,,6,,,69,0
100222,note_on,94,0,6,,,,,,,,5,,,65,0
100222,note_on,94,0,8,,,,,,,,7,,,62,0
100222,note_on,22,0,1,,,,,,,,0,,,69,0
100224,note_on,2,0,8,,,,,,,,7,,,62,110
100224,note_on,2,0,3,,,,,,,,2,,,77,110
100224,set_tempo,192,1,0,,,,,,1304348,,,,,,
100224,note_on,2,0,4,,,,,,,,3,,,50,110
100224,note_on,2,0,7,,,,,,,,6,,,74,110
100224,note_on,2,0,5,,,,,,,,4,,,69,110
100224,note_on,2,0,6,,,,,,,,5,,,65,110
100224,note_on,2,0,1,,,,,,,,0,,,62,110
100246,note_on,22,0,1,,,,,,,,0,,,62,0
100248,note_on,2,0,1,,,,,,,,0,,,69,110
100270,note_on,46,0,5,,,,,,,,4,,,69,0
100270,note_on,22,0,1,,,,,,,,0,,,69,0
100270,note_on,46,0,3,,,,,,,,2,,,77,0
100270,note_on,46,0,7,,,,,,,,6,,,74,0
100272,note_on,2,0,7,,,,,,,,6,,,69,110
100272,note_on,2,0,3,,,,,,,,2,,,74,110
100272,note_on,2,0,1,,,,,,,,0,,,73,110
100272,note_on,2,0,5,,,,,,,,4,,,74,110
100294,note_on,22,0,1,,,,,,,,0,,,73,0
100296,note_on,2,0,1,,,,,,,,0,,,74,110
100318,note_on,46,0,5,,,,,,,,4,,,74,0
100318,note_on,94,0,6,,,,,,,,5,,,65,0
100318,note_on,46,0,3,,,,,,,,2,,,74,0
100318,note_on,94,0,4,,,,,,,,3,,,50,0
100318,note_on,46,0,7,,,,,,,,6,,,69,0
100318,note_on,22,0,1,,,,,,,,0,,,74,0
100318,note_on,94,0,8,,,,,,,,7,,,62,0
100320,note_on,2,0,1,,,,,,,,0,,,77,110
100320,note_on,2,0,7,,,,,,,,6,,,74,110
100320,note_on,2,0,3,,,,,,,,2,,,69,110
100320,note_on,2,0,4,,,,,,,,3,,,50,110
100320,note_on,2,0,5,,,,,,,,4,,,77,110
100320,note_on,2,0,8,,,,,,,,7,,,62,110
100320,note_on,2,0,6,,,,,,,,5,,,65,110
100342,note_on,22,0,1,,,,,,,,0,,,77,0
100344,note_on,2,0,1,,,,,,,,0,,,73,110
100366,note_on,46,0,5,,,,,,,,4,,,77,0
100366,note_on,46,0,7,,,,,,,,6,,,74,0
100366,note_on,46,0,3,,,,,,,,2,,,69,0
100366,note_on,22,0,1,,,,,,,,0,,,73,0
100368,note_on,2,0,1,,,,,,,,0,,,74,110
100368,note_on,2,0,3,,,,,,,,2,,,77,110
100368,note_on,2,0,7,,,,,,,,6,,,69,110
100368,note_on,2,0,5,,,,,,,,4,,,74,110
100390,note_on,22,0,1,,,,,,,,0,,,74,0
100392,note_on,2,0,1,,,,,,,,0,,,69,110
100414,note_on,46,0,7,,,,,,,,6,,,69,0
100414,note_on,94,0,4,,,,,,,,3,,,50,0
100414,note_on,46,0,5,,,,,,,,4,,,74,0
100414,note_on,94,0,6,,,,,,,,5,,,65,0
100414,note_on,94,0,8,,,,,,,,7,,,62,0
100414,note_on,22,0,1,,,,,,,,0,,,69,0
100414,note_on,46,0,3,,,,,,,,2,,,77,0
100416,note_on,2,0,3,,,,,,,,2,,,77,110
100416,note_on,2,0,6,,,,,,,,5,,,65,110
100416,note_on,2,0,7,,,,,,,,6,,,74,110
100416,note_on,2,0,8,,,,,,,,7,,,62,110
100416,set_tempo,192,1,0,,,,,,1500000,,,,,,
100416,note_on,2,0,4,,,,,,,,3,,,50,110
100416,note_on,2,0,5,,,,,,,,4,,,69,110
100416,note_on,2,0,1,,,,,,,,0,,,62,110
100438,note_on,22,0,1,,,,,,,,0,,,62,0
100440,note_on,2,0,1,,,,,,,,0,,,69,110
100462,note_on,46,0,5,,,,,,,,4,,,69,0
100462,note_on,46,0,7,,,,,,,,6,,,74,0
100462,note_on,22,0,1,,,,,,,,0,,,69,0
100462,note_on,46,0,3,,,,,,,,2,,,77,0
100464,note_on,2,0,5,,,,,,,,4,,,74,110
100464,note_on,2,0,7,,,,,,,,6,,,69,110
100464,note_on,2,0,1,,,,,,,,0,,,73,110
100464,note_on,2,0,3,,,,,,,,2,,,74,110
100486,note_on,22,0,1,,,,,,,,0,,,73,0
100488,note_on,2,0,1,,,,,,,,0,,,74,110
100510,note_on,94,0,8,,,,,,,,7,,,62,0
100510,note_on,94,0,6,,,,,,,,5,,,65,0
100510,note_on,46,0,5,,,,,,,,4,,,74,0
100510,note_on,46,0,7,,,,,,,,6,,,69,0
100510,note_on,22,0,1,,,,,,,,0,,,74,0
100510,note_on,46,0,3,,,,,,,,2,,,74,0
100510,note_on,94,0,4,,,,,,,,3,,,50,0
100512,note_on,2,0,7,,,,,,,,6,,,74,110
100512,note_on,2,0,5,,,,,,,,4,,,77,110
100512,note_on,2,0,3,,,,,,,,2,,,69,110
100512,note_on,2,0,1,,,,,,,,0,,,77,110
100512,note_on,2,0,6,,,,,,,,5,,,65,110
100512,note_on,2,0,8,,,,,,,,7,,,62,110
100512,note_on,2,0,4,,,,,,,,3,,,50,110
100534,note_on,22,0,1,,,,,,,,0,,,77,0
100536,note_on,2,0,1,,,,,,,,0,,,73,110
100536,set_tempo,120,1,0,,,,,,2000000,,,,,,
100558,note_on,46,0,3,,,,,,,,2,,,69,0
100558,note_on,46,0,7,,,,,,,,6,,,74,0
100558,note_on,46,0,5,,,,,,,,4,,,77,0
100558,note_on,22,0,1,,,,,,,,0,,,73,0
100560,note_on,2,0,5,,,,,,,,4,,,74,110
100560,note_on,2,0,1,,,,,,,,0,,,74,110
100560,note_on,2,0,3,,,,,,,,2,,,77,110
100560,note_on,2,0,7,,,,,,,,6,,,69,110
100582,note_on,22,0,1,,,,,,,,0,,,74,0
100584,note_on,2,0,1,,,,,,,,0,,,69,110
100606,note_on,22,0,1,,,,,,,,0,,,69,0
100606,note_on,94,0,4,,,,,,,,3,,,50,0
100606,note_on,94,0,8,,,,,,,,7,,,62,0
100606,note_on,46,0,5,,,,,,,,4,,,74,0
100606,note_on,94,0,6,,,,,,,,5,,,65,0
100606,note_on,46,0,3,,,,,,,,2,,,77,0
100606,note_on,46,0,7,,,,,,,,6,,,69,0
100608,note_on,2,0,6,,,,,,,,5,,,52,110
100608,note_on,12144,0,12,,,,,,,,12,,,52,60
100608,note_on,2,0,8,,,,,,,,7,,,52,110
100608,note_on,12144,0,9,,,,,,,,8,,,74,60
100608,note_on,12144,0,11,,,,,,,,11,,,68,60
100608,time_signature,72,1,0,4,4,24,8,,,,,,,,
100608,set_tempo,0,1,0,,,,,,1333333,,,,,,
100608,note_on,12144,0,10,,,,,,,,10,,,71,60
100608,note_on,12144,0,2,,,,,,,,1,,,56,110
100608,note_on,2,0,4,,,,,,,,3,,,52,110
100632,note_on,24,0,6,,,,,,,,5,,,59,110
100632,note_on,24,0,2,,,,,,,,1,,,59,110
100632,note_on,24,0,8,,,,,,,,7,,,59,110
100632,note_on,24,0,4,,,,,,,,3,,,59,110
100656,note_on,50,0,3,,,,,,,,2,,,64,110
100656,note_on,50,0,5,,,,,,,,4,,,64,110
100656,note_on,50,0,1,,,,,,,,0,,,64,110
100656,note_on,50,0,7,,,,,,,,6,,,64,110
100668,note_on,12,0,5,,,,,,,,4,,,68,110
100668,note_on,12,0,7,,,,,,,,6,,,68,110
100668,note_on,12,0,3,,,,,,,,2,,,68,110
100668,note_on,12,0,1,,,,,,,,0,,,68,110
100680,note_on,12,0,5,,,,,,,,4,,,71,110
100680,note_on,12,0,7,,,,,,,,6,,,71,110
100680,note_on,12,0,3,,,,,,,,2,,,71,110
100680,note_on,12,0,1,,,,,,,,0,,,74,110
100692,note_on,12,0,5,,,,,,,,4,,,74,110
100692,note_on,12,0,7,,,,,,,,6,,,74,110
100692,note_on,12,0,3,,,,,,,,2,,,74,110
100692,note_on,12,0,1,,,,,,,,0,,,76,110
100704,note_on,12,0,3,,,,,,,,2,,,76,110
101136,note_on,528,0,10,,,,,,,,10,,,71,0
101136,note_on,528,0,12,,,,,,,,12,,,52,0
101136,note_on,528,0,9,,,,,,,,8,,,74,0
101136,note_on,528,0,11,,,,,,,,11,,,68,0
101146,note_on,0,0,1,,,,,,,,0,,,64,0
101146,note_on,0,0,1,,,,,,,,0,,,68,0
101146,note_on,0,0,1,,,,,,,,0,,,74,0
101146,note_on,454,0,1,,,,,,,,0,,,76,0
101148,note_on,2,0,1,,,,,,,,0,,,64,110
101194,note_on,46,0,1,,,,,,,,0,,,64,0
101196,note_on,2,0,1,,,,,,,,0,,,66,110
101218,note_on,22,0,1,,,,,,,,0,,,66,0
101220,note_on,2,0,1,,,,,,,,0,,,68,110
101230,note_on,10,0,1,,,,,,,,0,,,68,0
101232,note_on,2,0,1,,,,,,,,0,,,69,110
101242,note_on,10,0,1,,,,,,,,0,,,69,0
101244,note_on,2,0,1,,,,,,,,0,,,71,110
101254,note_on,10,0,1,,,,,,,,0,,,71,0
101256,note_on,2,0,1,,,,,,,,0,,,72,110
101266,note_on,10,0,1,,,,,,,,0,,,72,0
101268,note_on,2,0,1,,,,,,,,0,,,74,110
101272,note_on,640,0,8,,,,,,,,7,,,59,0
101272,note_on,0,0,8,,,,,,,,7,,,52,0
101272,note_on,0,0,4,,,,,,,,3,,,52,0
101272,note_on,640,0,6,,,,,,,,5,,,59,0
101272,note_on,640,0,4,,,,,,,,3,,,59,0
101272,note_on,0,0,6,,,,,,,,5,,,52,0
101278,note_on,10,0,1,,,,,,,,0,,,74,0
101280,note_on,2,0,1,,,,,,,,0,,,72,110
101290,note_on,10,0,1,,,,,,,,0,,,72,0
101292,note_on,2,0,1,,,,,,,,0,,,71,110
101302,note_on,10,0,1,,,,,,,,0,,,71,0
101304,note_on,2,0,1,,,,,,,,0,,,72,110
101314,note_on,10,0,1,,,,,,,,0,,,72,0
101316,note_on,2,0,1,,,,,,,,0,,,74,110
101326,note_on,10,0,1,,,,,,,,0,,,74,0
101328,note_on,2,0,1,,,,,,,,0,,,76,110
101338,note_on,10,0,1,,,,,,,,0,,,76,0
101340,note_on,2,0,1,,,,,,,,0,,,78,110
101350,note_on,10,0,1,,,,,,,,0,,,78,0
101352,note_on,2,0,1,,,,,,,,0,,,80,110
101362,note_on,10,0,1,,,,,,,,0,,,80,0
101364,note_on,2,0,1,,,,,,,,0,,,81,110
101374,note_on,10,0,1,,,,,,,,0,,,81,0
101374,note_on,742,0,2,,,,,,,,1,,,59,0
101374,note_on,0,0,2,,,,,,,,1,,,56,0
101374,note_on,682,0,5,,,,,,,,4,,,74,0
101374,note_on,0,0,5,,,,,,,,4,,,64,0
101374,note_on,0,0,5,,,,,,,,4,,,68,0
101374,note_on,0,0,7,,,,,,,,6,,,71,0
101374,note_on,0,0,7,,,,,,,,6,,,68,0
101374,note_on,682,0,7,,,,,,,,6,,,74,0
101374,note_on,670,0,3,,,,,,,,2,,,76,0
101374,note_on,0,0,3,,,,,,,,2,,,71,0
101374,note_on,0,0,3,,,,,,,,2,,,64,0
101374,note_on,0,0,5,,,,,,,,4,,,71,0
101374,note_on,0,0,3,,,,,,,,2,,,68,0
101374,note_on,0,0,3,,,,,,,,2,,,74,0
101374,note_on,0,0,7,,,,,,,,6,,,64,0
101376,note_on,240,0,10,,,,,,,,10,,,72,60
101376,note_on,2,0,3,,,,,,,,2,,,64,110
101376,note_on,2,0,2,,,,,,,,1,,,57,110
101376,note_on,0,0,1,,,,,,,,0,,,81,110
101376,note_on,0,0,3,,,,,,,,2,,,69,110
101376,note_on,0,0,3,,,,,,,,2,,,72,110
101376,note_on,2,0,1,,,,,,,,0,,,72,110
101376,note_on,0,0,1,,,,,,,,0,,,76,110
101376,note_on,0,0,7,,,,,,,,6,,,69,110
101376,note_on,240,0,11,,,,,,,,11,,,64,60
101376,note_on,104,0,8,,,,,,,,7,,,57,110
101376,note_on,2,0,5,,,,,,,,4,,,64,110
101376,note_on,0,0,5,,,,,,,,4,,,69,110
101376,note_on,0,0,5,,,,,,,,4,,,72,110
101376,set_tempo,0,1,0,,,,,,1200000,,,,,,
101376,note_on,0,0,7,,,,,,,,6,,,72,110
101376,note_on,240,0,9,,,,,,,,8,,,81,60
101376,note_on,104,0,6,,,,,,,,5,,,45,110
101376,note_on,104,0,4,,,,,,,,3,,,57,110
101376,note_on,2,0,7,,,,,,,,6,,,64,110
101376,note_on,240,0,12,,,,,,,,12,,,57,60
101376,time_signature,768,1,0,3,4,24,8,,,,,,,,
101518,note_on,142,0,6,,,,,,,,5,,,45,0
101518,note_on,142,0,4,,,,,,,,3,,,57,0
101518,note_on,0,0,1,,,,,,,,0,,,72,0
101518,note_on,142,0,2,,,,,,,,1,,,57,0
101518,note_on,0,0,1,,,,,,,,0,,,76,0
101518,note_on,142,0,1,,,,,,,,0,,,81,0
101518,note_on,142,0,3,,,,,,,,2,,,72,0
101518,note_on,142,0,11,,,,,,,,11,,,64,0
101518,note_on,142,0,9,,,,,,,,8,,,81,0
101518,note_on,142,0,8,,,,,,,,7,,,57,0
101518,note_on,0,0,7,,,,,,,,6,,,64,0
101518,note_on,142,0,5,,,,,,,,4,,,72,0
101518,note_on,0,0,7,,,,,,,,6,,,69,0
101518,note_on,142,0,12,,,,,,,,12,,,57,0
101518,note_on,0,0,5,,,,,,,,4,,,69,0
101518,note_on,142,0,7,,,,,,,,6,,,72,0
101518,note_on,142,0,10,,,,,,,,10,,,72,0
101518,note_on,0,0,5,,,,,,,,4,,,64,0
101518,note_on,0,0,3,,,,,,,,2,,,69,0
101518,note_on,0,0,3,,,,,,,,2,,,64,0
101520,note_on,2,0,11,,,,,,,,11,,,64,60
101520,note_on,2,0,6,,,,,,,,5,,,45,110
101520,note_on,2,0,4,,,,,,,,3,,,57,110
101520,note_on,2,0,9,,,,,,,,8,,,81,60
101520,note_on,0,0,5,,,,,,,,4,,,69,110
101520,note_on,0,0,3,,,,,,,,2,,,69,110
101520,note_on,0,0,3,,,,,,,,2,,,72,110
101520,note_on,2,0,2,,,,,,,,1,,,57,110
101520,note_on,2,0,7,,,,,,,,6,,,64,110
101520,note_on,0,0,7,,,,,,,,6,,,69,110
101520,note_on,0,0,7,,,,,,,,6,,,72,110
101520,note_on,0,0,5,,,,,,,,4,,,72,110
101520,note_on,0,0,1,,,,,,,,0,,,81,110
101520,note_on,0,0,1,,,,,,,,0,,,76,110
101520,note_on,2,0,3,,,,,,,,2,,,64,110
101520,note_on,2,0,1,,,,,,,,0,,,72,110
101520,note_on,2,0,8,,,,,,,,7,,,57,110
101520,note_on,2,0,12,,,,,,,,12,,,57,60
101520,note_on,2,0,10,,,,,,,,10,,,72,60
101520,note_on,2,0,5,,,,,,,,4,,,64,110
101566,note_on,0,0,5,,,,,,,,4,,,64,0
101566,note_on,46,0,6,,,,,,,,5,,,45,0
101566,note_on,0,0,5,,,,,,,,4,,,69,0
101566,note_on,46,0,11,,,,,,,,11,,,64,0
101566,note_on,46,0,5,,,,,,,,4,,,72,0
101566,note_on,46,0,2,,,,,,,,1,,,57,0
101566,note_on,0,0,3,,,,,,,,2,,,69,0
101566,note_on,46,0,4,,,,,,,,3,,,57,0
101566,note_on,46,0,8,,,,,,,,7,,,57,0
101566,note_on,0,0,7,,,,,,,,6,,,69,0
101566,note_on,46,0,1,,,,,,,,0,,,81,0
101566,note_on,0,0,1,,,,,,,,0,,,76,0
101566,note_on,0,0,1,,,,,,,,0,,,72,0
101566,note_on,46,0,9,,,,,,,,8,,,81,0
101566,note_on,46,0,3,,,,,,,,2,,,72,0
101566,note_on,46,0,7,,,,,,,,6,,,72,0
101566,note_on,46,0,10,,,,,,,,10,,,72,0
101566,note_on,46,0,12,,,,,,,,12,,,57,0
101566,note_on,0,0,3,,,,,,,,2,,,64,0
101566,note_on,0,0,7,,,,,,,,6,,,64,0
101568,note_on,2,0,6,,,,,,,,5,,,45,110
101568,note_on,2,0,10,,,,,,,,10,,,72,60
101568,note_on,2,0,12,,,,,,,,12,,,57,60
101568,note_on,2,0,2,,,,,,,,1,,,57,110
101568,note_on,2,0,9,,,,,,,,8,,,81,60
101568,note_on,2,0,5,,,,,,,,4,,,64,110
101568,note_on,2,0,11,,,,,,,,11,,,64,60
101568,note_on,2,0,8,,,,,,,,7,,,57,110
101568,note_on,0,0,5,,,,,,,,4,,,72,110
101568,note_on,2,0,1,,,,,,,,0,,,72,110
101568,note_on,0,0,1,,,,,,,,0,,,76,110
101568,note_on,0,0,1,,,,,,,,0,,,81,110
101568,note_on,2,0,7,,,,,,,,6,,,64,110
101568,note_on,0,0,7,,,,,,,,6,,,69,110
101568,note_on,0,0,7,,,,,,,,6,,,72,110
101568,note_on,0,0,3,,,,,,,,2,,,72,110
101568,note_on,0,0,3,,,,,,,,2,,,69,110
101568,note_on,2,0,3,,,,,,,,2,,,64,110
101568,note_on,2,0,4,,,,,,,,3,,,57,110
101568,note_on,0,0,5,,,,,,,,4,,,69,110
101710,note_on,142,0,6,,,,,,,,5,,,45,0
101710,note_on,0,0,5,,,,,,,,4,,,69,0
101710,note_on,142,0,11,,,,,,,,11,,,64,0
101710,note_on,142,0,4,,,,,,,,3,,,57,0
101710,note_on,142,0,8,,,,,,,,7,,,57,0
101710,note_on,142,0,1,,,,,,,,0,,,81,0
101710,note_on,0,0,1,,,,,,,,0,,,76,0
101710,note_on,0,0,1,,,,,,,,0,,,72,0
101710,note_on,142,0,2,,,,,,,,1,,,57,0
101710,note_on,142,0,5,,,,,,,,4,,,72,0
101710,note_on,142,0,9,,,,,,,,8,,,81,0
101710,note_on,0,0,5,,,,,,,,4,,,64,0
101710,note_on,142,0,3,,,,,,,,2,,,72,0
101710,note_on,142,0,10,,,,,,,,10,,,72,0
101710,note_on,0,0,3,,,,,,,,2,,,69,0
101710,note_on,0,0,3,,,,,,,,2,,,64,0
101710,note_on,142,0,7,,,,,,,,6,,,72,0
101710,note_on,0,0,7,,,,,,,,6,,,69,0
101710,note_on,142,0,12,,,,,,,,12,,,57,0
101710,note_on,0,0,7,,,,,,,,6,,,64,0
101712,note_on,2,0,7,,,,,,,,6,,,64,110
101712,note_on,2,0,5,,,,,,,,4,,,64,110
101712,note_on,0,0,5,,,,,,,,4,,,69,110
101712,note_on,0,0,5,,,,,,,,4,,,72,110
101712,note_on,2,0,10,,,,,,,,10,,,72,60
101712,note_on,2,0,6,,,,,,,,5,,,45,110
101712,note_on,2,0,4,,,,,,,,3,,,57,110
101712,note_on,2,0,8,,,,,,,,7,,,57,110
101712,note_on,0,0,3,,,,,,,,2,,,72,110
101712,note_on,0,0,3,,,,,,,,2,,,69,110
101712,note_on,2,0,3,,,,,,,,2,,,64,110
101712,note_on,2,0,1,,,,,,,,0,,,72,110
101712,note_on,2,0,2,,,,,,,,1,,,57,110
101712,note_on,2,0,11,,,,,,,,11,,,64,60
101712,note_on,2,0,12,,,,,,,,12,,,57,60
101712,note_on,0,0,1,,,,,,,,0,,,76,110
101712,note_on,0,0,7,,,,,,,,6,,,69,110
101712,note_on,0,0,1,,,,,,,,0,,,81,110
101712,note_on,2,0,9,,,,,,,,8,,,81,60
101712,note_on,0,0,7,,,,,,,,6,,,72,110
101758,note_on,46,0,3,,,,,,,,2,,,72,0
101758,note_on,46,0,8,,,,,,,,7,,,57,0
101758,note_on,46,0,6,,,,,,,,5,,,45,0
101758,note_on,0,0,1,,,,,,,,0,,,72,0
101758,note_on,0,0,1,,,,,,,,0,,,76,0
101758,note_on,46,0,1,,,,,,,,0,,,81,0
101758,note_on,46,0,11,,,,,,,,11,,,64,0
101758,note_on,46,0,10,,,,,,,,10,,,72,0
101758,note_on,0,0,3,,,,,,,,2,,,64,0
101758,note_on,46,0,4,,,,,,,,3,,,57,0
101758,note_on,0,0,3,,,,,,,,2,,,69,0
101758,note_on,46,0,12,,,,,,,,12,,,57,0
101758,note_on,0,0,5,,,,,,,,4,,,64,0
101758,note_on,46,0,9,,,,,,,,8,,,81,0
101758,note_on,0,0,7,,,,,,,,6,,,64,0
101758,note_on,0,0,7,,,,,,,,6,,,69,0
101758,note_on,46,0,7,,,,,,,,6,,,72,0
101758,note_on,46,0,2,,,,,,,,1,,,57,0
101758,note_on,46,0,5,,,,,,,,4,,,72,0
101758,note_on,0,0,5,,,,,,,,4,,,69,0
101760,note_on,0,0,3,,,,,,,,2,,,69,110
101760,note_on,2,0,8,,,,,,,,7,,,57,110
101760,note_on,0,0,1,,,,,,,,0,,,81,110
101760,note_on,0,0,1,,,,,,,,0,,,76,110
101760,note_on,0,0,7,,,,,,,,6,,,72,110
101760,note_on,0,0,7,,,,,,,,6,,,69,110
101760,note_on,2,0,2,,,,,,,,1,,,57,110
101760,note_on,2,0,3,,,,,,,,2,,,64,110
101760,note_on,2,0,7,,,,,,,,6,,,64,110
101760,note_on,0,0,3,,,,,,,,2,,,72,110
101760,note_on,2,0,1,,,,,,,,0,,,72,110
101760,note_on,2,0,12,,,,,,,,12,,,57,60
101760,note_on,2,0,11,,,,,,,,11,,,64,60
101760,note_on,2,0,5,,,,,,,,4,,,64,110
101760,note_on,0,0,5,,,,,,,,4,,,69,110
101760,note_on,0,0,5,,,,,,,,4,,,72,110
101760,note_on,2,0,10,,,,,,,,10,,,72,60
101760,note_on,2,0,4,,,,,,,,3,,,57,110
101760,note_on,2,0,9,,,,,,,,8,,,81,60
101760,note_on,2,0,6,,,,,,,,5,,,45,110
101902,note_on,142,0,3,,,,,,,,2,,,72,0
101902,note_on,142,0,12,,,,,,,,12,,,57,0
101902,note_on,142,0,2,,,,,,,,1,,,57,0
101902,note_on,142,0,5,,,,,,,,4,,,72,0
101902,note_on,0,0,5,,,,,,,,4,,,69,0
101902,note_on,0,0,5,,,,,,,,4,,,64,0
101902,note_on,142,0,4,,,,,,,,3,,,57,0
101902,note_on,142,0,9,,,,,,,,8,,,81,0
101902,note_on,0,0,3,,,,,,,,2,,,64,0
101902,note_on,142,0,11,,,,,,,,11,,,64,0
101902,note_on,0,0,3,,,,,,,,2,,,69,0
101902,note_on,0,0,7,,,,,,,,6,,,64,0
101902,note_on,142,0,1,,,,,,,,0,,,81,0
101902,note_on,0,0,1,,,,,,,,0,,,76,0
101902,note_on,0,0,1,,,,,,,,0,,,72,0
101902,note_on,0,0,7,,,,,,,,6,,,69,0
101902,note_on,142,0,7,,,,,,,,6,,,72,0
101902,note_on,142,0,10,,,,,,,,10,,,72,0
101902,note_on,142,0,6,,,,,,,,5,,,45,0
101902,note_on,142,0,8,,,,,,,,7,,,57,0
101904,note_on,2,0,10,,,,,,,,10,,,72,60
101904,note_on,2,0,8,,,,,,,,7,,,57,110
101904,note_on,2,0,11,,,,,,,,11,,,64,60
101904,note_on,0,0,1,,,,,,,,0,,,76,110
101904,note_on,0,0,7,,,,,,,,6,,,69,110
101904,note_on,0,0,7,,,,,,,,6,,,72,110
101904,note_on,2,0,1,,,,,,,,0,,,72,110
101904,note_on,2,0,9,,,,,,,,8,,,81,60
101904,note_on,0,0,1,,,,,,,,0,,,81,110
101904,note_on,2,0,7,,,,,,,,6,,,64,110
101904,note_on,2,0,6,,,,,,,,5,,,45,110
101904,note_on,2,0,12,,,,,,,,12,,,57,60
101904,note_on,2,0,5,,,,,,,,4,,,64,110
101904,note_on,0,0,5,,,,,,,,4,,,69,110
101904,note_on,0,0,5,,,,,,,,4,,,72,110
101904,note_on,0,0,3,,,,,,,,2,,,72,110
101904,note_on,2,0,4,,,,,,,,3,,,57,110
101904,note_on,2,0,2,,,,,,,,1,,,57,110
101904,note_on,0,0,3,,,,,,,,2,,,69,110
101904,note_on,2,0,3,,,,,,,,2,,,64,110
101950,note_on,46,0,2,,,,,,,,1,,,57,0
101950,note_on,46,0,4,,,,,,,,3,,,57,0
101950,note_on,0,0,3,,,,,,,,2,,,64,0
101950,note_on,0,0,7,,,,,,,,6,,,69,0
101950,note_on,46,0,3,,,,,,,,2,,,72,0
101950,note_on,0,0,5,,,,,,,,4,,,64,0
101950,note_on,0,0,5,,,,,,,,4,,,69,0
101950,note_on,46,0,5,,,,,,,,4,,,72,0
101950,note_on,46,0,12,,,,,,,,12,,,57,0
101950,note_on,46,0,11,,,,,,,,11,,,64,0
101950,note_on,0,0,7,,,,,,,,6,,,64,0
101950,note_on,46,0,10,,,,,,,,10,,,72,0
101950,note_on,46,0,8,,,,,,,,7,,,57,0
101950,note_on,0,0,3,,,,,,,,2,,,69,0
101950,note_on,46,0,7,,,,,,,,6,,,72,0
101950,note_on,46,0,1,,,,,,,,0,,,81,0
101950,note_on,46,0,9,,,,,,,,8,,,81,0
101950,note_on,0,0,1,,,,,,,,0,,,76,0
101950,note_on,0,0,1,,,,,,,,0,,,72,0
101950,note_on,46,0,6,,,,,,,,5,,,45,0
101952,note_on,0,0,2,,,,,,,,1,,,72,110
101952,note_on,2,0,11,,,,,,,,11,,,66,60
101952,note_on,2,0,12,,,,,,,,12,,,51,60
101952,note_on,2,0,7,,,,,,,,6,,,66,110
101952,note_on,2,0,9,,,,,,,,8,,,83,60
101952,note_on,2,0,2,,,,,,,,1,,,51,110
101952,note_on,2,0,5,,,,,,,,4,,,69,110
101952,note_on,0,0,5,,,,,,,,4,,,74,110
101952,note_on,2,0,6,,,,,,,,5,,,39,110
101952,note_on,2,0,10,,,,,,,,10,,,74,60
101952,note_on,0,0,7,,,,,,,,6,,,69,110
101952,note_on,0,0,2,,,,,,,,1,,,78,110
101952,note_on,2,0,8,,,,,,,,7,,,51,110
101952,note_on,2,0,4,,,,,,,,3,,,51,110
101952,note_on,0,0,4,,,,,,,,3,,,57,110
101952,note_on,2,0,1,,,,,,,,0,,,83,110
101952,note_on,2,0,3,,,,,,,,2,,,74,110
101998,note_on,46,0,1,,,,,,,,0,,,83,0
101998,note_on,46,0,9,,,,,,,,8,,,83,0
101998,note_on,46,0,5,,,,,,,,4,,,74,0
101998,note_on,46,0,3,,,,,,,,2,,,74,0
101998,note_on,46,0,10,,,,,,,,10,,,74,0
102000,note_on,2,0,9,,,,,,,,8,,,81,60
102000,note_on,2,0,1,,,,,,,,0,,,81,110
102000,note_on,2,0,5,,,,,,,,4,,,72,110
102000,note_on,2,0,3,,,,,,,,2,,,72,110
102000,note_on,2,0,10,,,,,,,,10,,,72,60
102046,note_on,46,0,5,,,,,,,,4,,,72,0
102046,note_on,46,0,1,,,,,,,,0,,,81,0
102046,note_on,46,0,10,,,,,,,,10,,,72,0
102046,note_on,46,0,3,,,,,,,,2,,,72,0
102046,note_on,46,0,9,,,,,,,,8,,,81,0
102048,note_on,2,0,3,,,,,,,,2,,,74,110
102048,note_on,2,0,9,,,,,,,,8,,,83,60
102048,note_on,2,0,1,,,,,,,,0,,,83,110
102048,note_on,2,0,10,,,,,,,,10,,,74,60
102048,note_on,2,0,5,,,,,,,,4,,,74,110
102082,note_on,34,0,9,,,,,,,,8,,,83,0
102082,note_on,34,0,3,,,,,,,,2,,,74,0
102082,note_on,34,0,5,,,,,,,,4,,,74,0
102082,note_on,34,0,1,,,,,,,,0,,,83,0
102082,note_on,34,0,10,,,,,,,,10,,,74,0
102084,note_on,2,0,3,,,,,,,,2,,,72,110
102084,note_on,2,0,5,,,,,,,,4,,,72,110
102084,note_on,2,0,1,,,,,,,,0,,,81,110
102084,note_on,2,0,10,,,,,,,,10,,,72,60
102084,note_on,2,0,9,,,,,,,,8,,,81,60
102118,note_on,34,0,5,,,,,,,,4,,,72,0
102118,note_on,34,0,1,,,,,,,,0,,,81,0
102118,note_on,34,0,9,,,,,,,,8,,,81,0
102118,note_on,34,0,10,,,,,,,,10,,,72,0
102118,note_on,166,0,7,,,,,,,,6,,,69,0
102118,note_on,0,0,7,,,,,,,,6,,,66,0
102118,note_on,34,0,3,,,,,,,,2,,,72,0
102120,note_on,2,0,9,,,,,,,,8,,,83,60
102120,note_on,2,0,1,,,,,,,,0,,,83,110
102120,note_on,2,0,5,,,,,,,,4,,,74,110
102120,note_on,2,0,10,,,,,,,,10,,,74,60
102120,note_on,2,0,3,,,,,,,,2,,,74,110
102154,note_on,34,0,10,,,,,,,,10,,,74,0
102154,note_on,34,0,1,,,,,,,,0,,,83,0
102154,note_on,34,0,5,,,,,,,,4,,,74,0
102154,note_on,34,0,3,,,,,,,,2,,,74,0
102154,note_on,34,0,9,,,,,,,,8,,,83,0
102156,note_on,2,0,3,,,,,,,,2,,,72,110
102156,note_on,2,0,10,,,,,,,,10,,,72,60
102156,note_on,2,0,9,,,,,,,,8,,,81,60
102156,note_on,2,0,1,,,,,,,,0,,,81,110
102156,note_on,2,0,5,,,,,,,,4,,,72,110
102190,note_on,34,0,5,,,,,,,,4,,,72,0
102190,note_on,34,0,10,,,,,,,,10,,,72,0
102190,note_on,34,0,3,,,,,,,,2,,,72,0
102190,note_on,34,0,9,,,,,,,,8,,,81,0
102190,note_on,34,0,1,,,,,,,,0,,,81,0
102192,note_on,2,0,10,,,,,,,,10,,,74,60
102192,note_on,2,0,1,,,,,,,,0,,,83,110
102192,note_on,2,0,9,,,,,,,,8,,,83,60
102192,note_on,74,0,7,,,,,,,,6,,,66,110
102192,note_on,2,0,5,,,,,,,,4,,,74,110
102192,note_on,2,0,3,,,,,,,,2,,,74,110
102214,note_on,22,0,1,,,,,,,,0,,,83,0
102214,note_on,22,0,9,,,,,,,,8,,,83,0
102214,note_on,22,0,5,,,,,,,,4,,,74,0
102214,note_on,22,0,3,,,,,,,,2,,,74,0
102214,note_on,22,0,10,,,,,,,,10,,,74,0
102216,note_on,2,0,10,,,,,,,,10,,,72,60
102216,note_on,2,0,5,,,,,,,,4,,,72,110
102216,note_on,2,0,3,,,,,,,,2,,,72,110
102216,note_on,2,0,9,,,,,,,,8,,,81,60
102216,note_on,2,0,1,,,,,,,,0,,,81,110
102238,note_on,22,0,10,,,,,,,,10,,,72,0
102238,note_on,22,0,3,,,,,,,,2,,,72,0
102238,note_on,22,0,9,,,,,,,,8,,,81,0
102238,note_on,22,0,1,,,,,,,,0,,,81,0
102238,note_on,22,0,5,,,,,,,,4,,,72,0
102240,note_on,2,0,1,,,,,,,,0,,,83,110
102240,note_on,2,0,5,,,,,,,,4,,,74,110
102240,note_on,2,0,3,,,,,,,,2,,,74,110
102240,note_on,2,0,9,,,,,,,,8,,,83,60
102240,note_on,2,0,10,,,,,,,,10,,,74,60
102262,note_on,22,0,10,,,,,,,,10,,,74,0
102262,note_on,22,0,3,,,,,,,,2,,,74,0
102262,note_on,22,0,9,,,,,,,,8,,,83,0
102262,note_on,22,0,5,,,,,,,,4,,,74,0
102262,note_on,22,0,1,,,,,,,,0,,,83,0
102264,note_on,2,0,9,,,,,,,,8,,,81,60
102264,note_on,2,0,5,,,,,,,,4,,,72,110
102264,note_on,2,0,1,,,,,,,,0,,,81,110
102264,note_on,2,0,3,,,,,,,,2,,,72,110
102264,note_on,2,0,10,,,,,,,,10,,,72,60
102286,note_on,22,0,10,,,,,,,,10,,,72,0
102286,note_on,22,0,3,,,,,,,,2,,,72,0
102286,note_on,22,0,5,,,,,,,,4,,,72,0
102286,note_on,22,0,1,,,,,,,,0,,,81,0
102286,note_on,22,0,9,,,,,,,,8,,,81,0
102288,note_on,2,0,1,,,,,,,,0,,,83,110
102288,note_on,2,0,3,,,,,,,,2,,,74,110
102288,note_on,2,0,5,,,,,,,,4,,,74,110
102288,note_on,2,0,10,,,,,,,,10,,,74,60
102288,note_on,2,0,9,,,,,,,,8,,,83,60
102310,note_on,22,0,3,,,,,,,,2,,,74,0
102310,note_on,22,0,5,,,,,,,,4,,,74,0
102310,note_on,22,0,1,,,,,,,,0,,,83,0
102310,note_on,22,0,9,,,,,,,,8,,,83,0
102310,note_on,22,0,10,,,,,,,,10,,,74,0
102312,note_on,2,0,3,,,,,,,,2,,,72,110
102312,note_on,2,0,10,,,,,,,,10,,,72,60
102312,note_on,2,0,1,,,,,,,,0,,,81,110
102312,note_on,2,0,5,,,,,,,,4,,,72,110
102312,note_on,2,0,9,,,,,,,,8,,,81,60
102334,note_on,22,0,9,,,,,,,,8,,,81,0
102334,note_on,22,0,3,,,,,,,,2,,,72,0
102334,note_on,22,0,10,,,,,,,,10,,,72,0
102334,note_on,22,0,1,,,,,,,,0,,,81,0
102334,note_on,22,0,5,,,,,,,,4,,,72,0
102336,note_on,2,0,10,,,,,,,,10,,,74,60
102336,note_on,2,0,5,,,,,,,,4,,,74,110
102336,note_on,2,0,3,,,,,,,,2,,,74,110
102336,note_on,2,0,1,,,,,,,,0,,,83,110
102336,note_on,2,0,9,,,,,,,,8,,,83,60
102352,note_on,16,0,1,,,,,,,,0,,,83,0
102352,note_on,16,0,5,,,,,,,,4,,,74,0
102352,note_on,16,0,3,,,,,,,,2,,,74,0
102352,note_on,16,0,9,,,,,,,,8,,,83,0
102352,note_on,16,0,10,,,,,,,,10,,,74,0
102354,note_on,2,0,9,,,,,,,,8,,,81,60
102354,note_on,2,0,5,,,,,,,,4,,,72,110
102354,note_on,2,0,10,,,,,,,,10,,,72,60
102354,note_on,2,0,1,,,,,,,,0,,,81,110
102354,note_on,2,0,3,,,,,,,,2,,,72,110
102370,note_on,16,0,5,,,,,,,,4,,,72,0
102370,note_on,16,0,3,,,,,,,,2,,,72,0
102370,note_on,16,0,10,,,,,,,,10,,,72,0
102370,note_on,16,0,1,,,,,,,,0,,,81,0
102370,note_on,16,0,9,,,,,,,,8,,,81,0
102372,note_on,2,0,5,,,,,,,,4,,,74,110
102372,note_on,2,0,1,,,,,,,,0,,,83,110
102372,note_on,2,0,10,,,,,,,,10,,,74,60
102372,note_on,2,0,3,,,,,,,,2,,,74,110
102372,note_on,2,0,9,,,,,,,,8,,,83,60
102388,note_on,16,0,1,,,,,,,,0,,,83,0
102388,note_on,16,0,3,,,,,,,,2,,,74,0
102388,note_on,16,0,9,,,,,,,,8,,,83,0
102388,note_on,16,0,10,,,,,,,,10,,,74,0
102388,note_on,16,0,5,,,,,,,,4,,,74,0
102390,note_on,2,0,3,,,,,,,,2,,,72,110
102390,note_on,2,0,5,,,,,,,,4,,,72,110
102390,note_on,2,0,9,,,,,,,,8,,,81,60
102390,note_on,2,0,10,,,,,,,,10,,,72,60
102390,note_on,2,0,1,,,,,,,,0,,,81,110
102406,note_on,16,0,3,,,,,,,,2,,,72,0
102406,note_on,16,0,9,,,,,,,,8,,,81,0
102406,note_on,16,0,5,,,,,,,,4,,,72,0
102406,note_on,16,0,10,,,,,,,,10,,,72,0
102406,note_on,16,0,1,,,,,,,,0,,,81,0
102408,note_on,2,0,9,,,,,,,,8,,,83,60
102408,note_on,2,0,5,,,,,,,,4,,,74,110
102408,note_on,2,0,3,,,,,,,,2,,,74,110
102408,note_on,2,0,1,,,,,,,,0,,,83,110
102408,note_on,2,0,10,,,,,,,,10,,,74,60
102418,note_on,10,0,9,,,,,,,,8,,,83,0
102418,note_on,10,0,1,,,,,,,,0,,,83,0
102418,note_on,10,0,3,,,,,,,,2,,,74,0
102418,note_on,10,0,10,,,,,,,,10,,,74,0
102418,note_on,10,0,5,,,,,,,,4,,,74,0
102420,note_on,2,0,1,,,,,,,,0,,,81,110
102420,note_on,2,0,3,,,,,,,,2,,,72,110
102420,note_on,2,0,5,,,,,,,,4,,,72,110
102420,note_on,2,0,9,,,,,,,,8,,,81,60
102420,note_on,2,0,10,,,,,,,,10,,,72,60
102430,note_on,10,0,3,,,,,,,,2,,,72,0
102430,note_on,10,0,9,,,,,,,,8,,,81,0
102430,note_on,10,0,5,,,,,,,,4,,,72,0
102430,note_on,10,0,10,,,,,,,,10,,,72,0
102430,note_on,10,0,1,,,,,,,,0,,,81,0
102432,note_on,2,0,1,,,,,,,,0,,,83,110
102432,note_on,2,0,3,,,,,,,,2,,,74,110
102432,note_on,2,0,9,,,,,,,,8,,,83,60
102432,note_on,2,0,10,,,,,,,,10,,,74,60
102432,note_on,2,0,5,,,,,,,,4,,,74,110
102442,note_on,10,0,9,,,,,,,,8,,,83,0
102442,note_on,10,0,10,,,,,,,,10,,,74,0
102442,note_on,10,0,3,,,,,,,,2,,,74,0
102442,note_on,10,0,5,,,,,,,,4,,,74,0
102442,note_on,10,0,1,,,,,,,,0,,,83,0
102444,note_on,2,0,5,,,,,,,,4,,,72,110
102444,note_on,2,0,1,,,,,,,,0,,,81,110
102444,note_on,2,0,10,,,,,,,,10,,,72,60
102444,note_on,2,0,3,,,,,,,,2,,,72,110
102444,note_on,2,0,9,,,,,,,,8,,,81,60
102454,note_on,10,0,3,,,,,,,,2,,,72,0
102454,note_on,10,0,1,,,,,,,,0,,,81,0
102454,note_on,10,0,9,,,,,,,,8,,,81,0
102454,note_on,10,0,10,,,,,,,,10,,,72,0
102454,note_on,10,0,5,,,,,,,,4,,,72,0
102456,note_on,2,0,9,,,,,,,,8,,,83,60
102456,note_on,2,0,3,,,,,,,,2,,,74,110
102456,note_on,2,0,10,,,,,,,,10,,,74,60
102456,note_on,2,0,1,,,,,,,,0,,,83,110
102456,note_on,2,0,5,,,,,,,,4,,,74,110
102466,note_on,10,0,9,,,,,,,,8,,,83,0
102466,note_on,10,0,1,,,,,,,,0,,,83,0
102466,note_on,10,0,3,,,,,,,,2,,,74,0
102466,note_on,10,0,5,,,,,,,,4,,,74,0
102466,note_on,10,0,10,,,,,,,,10,,,74,0
102468,note_on,2,0,1,,,,,,,,0,,,81,110
102468,note_on,2,0,3,,,,,,,,2,,,72,110
102468,note_on,2,0,9,,,,,,,,8,,,81,60
102468,note_on,2,0,10,,,,,,,,10,,,72,60
102468,note_on,2,0,5,,,,,,,,4,,,72,110
102478,note_on,10,0,1,,,,,,,,0,,,81,0
102478,note_on,10,0,9,,,,,,,,8,,,81,0
102478,note_on,10,0,5,,,,,,,,4,,,72,0
102478,note_on,10,0,10,,,,,,,,10,,,72,0
102478,note_on,10,0,3,,,,,,,,2,,,72,0
102480,note_on,528,0,2,,,,,,,,1,,,78,0
102480,note_on,2,0,10,,,,,,,,10,,,74,60
102480,note_on,528,0,11,,,,,,,,11,,,66,0
102480,note_on,2,0,5,,,,,,,,4,,,69,0
102480,note_on,528,0,4,,,,,,,,3,,,57,0
102480,note_on,528,0,8,,,,,,,,7,,,51,0
102480,note_on,0,0,5,,,,,,,,4,,,74,110
102480,note_on,528,0,12,,,,,,,,12,,,51,0
102480,note_on,0,0,2,,,,,,,,1,,,51,0
102480,note_on,0,0,2,,,,,,,,1,,,72,0
102480,note_on,2,0,9,,,,,,,,8,,,83,60
102480,note_on,2,0,1,,,,,,,,0,,,83,110
102480,note_on,528,0,6,,,,,,,,5,,,39,0
102480,note_on,0,0,4,,,,,,,,3,,,51,0
102480,note_on,2,0,3,,,,,,,,2,,,74,110
102490,note_on,10,0,5,,,,,,,,4,,,74,0
102490,note_on,10,0,3,,,,,,,,2,,,74,0
102490,note_on,10,0,9,,,,,,,,8,,,83,0
102490,note_on,10,0,1,,,,,,,,0,,,83,0
102490,note_on,10,0,10,,,,,,,,10,,,74,0
102492,note_on,2,0,1,,,,,,,,0,,,81,110
102492,note_on,2,0,10,,,,,,,,10,,,72,60
102492,note_on,2,0,5,,,,,,,,4,,,72,110
102492,note_on,2,0,3,,,,,,,,2,,,72,110
102492,note_on,2,0,9,,,,,,,,8,,,81,60
102496,note_on,304,0,7,,,,,,,,6,,,66,0
102502,note_on,10,0,3,,,,,,,,2,,,72,0
102502,note_on,10,0,9,,,,,,,,8,,,81,0
102502,note_on,10,0,1,,,,,,,,0,,,81,0
102502,note_on,10,0,5,,,,,,,,4,,,72,0
102502,note_on,10,0,10,,,,,,,,10,,,72,0
102504,note_on,2,0,9,,,,,,,,8,,,83,60
102504,note_on,2,0,10,,,,,,,,10,,,74,60
102504,note_on,2,0,1,,,,,,,,0,,,83,110
102504,note_on,2,0,5,,,,,,,,4,,,74,110
102504,note_on,2,0,3,,,,,,,,2,,,74,110
102514,note_on,10,0,9,,,,,,,,8,,,83,0
102514,note_on,10,0,1,,,,,,,,0,,,83,0
102514,note_on,10,0,3,,,,,,,,2,,,74,0
102514,note_on,10,0,5,,,,,,,,4,,,74,0
102514,note_on,10,0,10,,,,,,,,10,,,74,0
102516,note_on,2,0,3,,,,,,,,2,,,72,110
102516,note_on,2,0,1,,,,,,,,0,,,81,110
102516,note_on,2,0,5,,,,,,,,4,,,72,110
102516,note_on,2,0,9,,,,,,,,8,,,81,60
102516,note_on,2,0,10,,,,,,,,10,,,72,60
102526,note_on,10,0,5,,,,,,,,4,,,72,0
102526,note_on,10,0,1,,,,,,,,0,,,81,0
102526,note_on,10,0,9,,,,,,,,8,,,81,0
102526,note_on,10,0,10,,,,,,,,10,,,72,0
102526,note_on,10,0,3,,,,,,,,2,,,72,0
102528,note_on,32,0,7,,,,,,,,6,,,64,110
102528,note_on,48,0,12,,,,,,,,12,,,52,60
102528,note_on,0,0,7,,,,,,,,6,,,68,110
102528,note_on,2,0,10,,,,,,,,10,,,71,60
102528,note_on,0,0,3,,,,,,,,2,,,71,110
102528,note_on,0,0,1,,,,,,,,0,,,80,110
102528,note_on,48,0,6,,,,,,,,5,,,40,110
102528,note_on,48,0,8,,,,,,,,7,,,52,110
102528,note_on,48,0,2,,,,,,,,1,,,52,110
102528,note_on,48,0,4,,,,,,,,3,,,52,110
102528,note_on,48,0,11,,,,,,,,11,,,59,60
102528,note_on,0,0,11,,,,,,,,11,,,64,60
102528,note_on,2,0,5,,,,,,,,4,,,64,110
102528,note_on,0,0,5,,,,,,,,4,,,71,110
102528,note_on,2,0,9,,,,,,,,8,,,80,60
102528,note_on,2,0,3,,,,,,,,2,,,68,110
102528,note_on,0,0,1,,,,,,,,0,,,76,110
102528,note_on,2,0,1,,,,,,,,0,,,71,110
103006,note_on,478,0,10,,,,,,,,10,,,71,0
103006,note_on,478,0,12,,,,,,,,12,,,52,0
103006,note_on,478,0,9,,,,,,,,8,,,80,0
103006,note_on,0,0,11,,,,,,,,11,,,59,0
103006,note_on,478,0,11,,,,,,,,11,,,64,0
103056,note_on,528,0,2,,,,,,,,1,,,52,0
103056,note_on,0,0,1,,,,,,,,0,,,71,0
103056,note_on,528,0,6,,,,,,,,5,,,40,0
103056,note_on,528,0,8,,,,,,,,7,,,52,0
103056,note_on,528,0,1,,,,,,,,0,,,80,0
103056,note_on,528,0,4,,,,,,,,3,,,52,0
103056,note_on,0,0,3,,,,,,,,2,,,68,0
103056,note_on,0,0,1,,,,,,,,0,,,76,0
103056,note_on,528,0,5,,,,,,,,4,,,71,0
103056,note_on,0,0,7,,,,,,,,6,,,64,0
103056,note_on,528,0,7,,,,,,,,6,,,68,0
103056,note_on,0,0,5,,,,,,,,4,,,64,0
103056,note_on,528,0,3,,,,,,,,2,,,71,0
103680,note_on,624,0,1,,,,,,,,0,,,69,127
103680,note_on,674,0,9,,,,,,,,8,,,69,92
103680,note_on,624,0,6,,,,,,,,5,,,45,110
103680,note_on,0,0,6,,,,,,,,5,,,48,110
103680,note_on,0,0,6,,,,,,,,5,,,52,110
103680,note_on,0,0,6,,,,,,,,5,,,57,110
103680,note_on,0,0,8,,,,,,,,7,,,57,110
103680,note_on,0,0,8,,,,,,,,7,,,52,110
103680,note_on,624,0,8,,,,,,,,7,,,45,110
103680,note_on,0,0,2,,,,,,,,1,,,48,110
103680,note_on,0,0,2,,,,,,,,1,,,57,110
103680,note_on,624,0,2,,,,,,,,1,,,45,110
103680,note_on,624,0,4,,,,,,,,3,,,45,110
103680,note_on,0,0,4,,,,,,,,3,,,48,110
103680,note_on,0,0,4,,,,,,,,3,,,52,110
103680,note_on,0,0,4,,,,,,,,3,,,57,110
103680,note_on,0,0,8,,,,,,,,7,,,48,110
103680,note_on,0,0,2,,,,,,,,1,,,52,110
103680,note_on,624,0,3,,,,,,,,2,,,69,127
103680,time_signature,2304,1,0,6,8,12,8,,,,,,,,
103680,note_on,674,0,10,,,,,,,,10,,,69,92
103680,note_on,674,0,11,,,,,,,,11,,,60,92
103680,note_on,0,0,11,,,,,,,,11,,,64,92
103680,note_on,624,0,7,,,,,,,,6,,,69,127
103680,note_on,674,0,12,,,,,,,,12,,,45,92
103680,note_on,624,0,5,,,,,,,,4,,,69,127
103680,set_tempo,0,1,0,,,,,,521739,,,,,,
103774,note_on,94,0,3,,,,,,,,2,,,69,0
103774,note_on,94,0,5,,,,,,,,4,,,69,0
103774,note_on,94,0,1,,,,,,,,0,,,69,0
103774,note_on,94,0,7,,,,,,,,6,,,69,0
103774,note_on,94,0,9,,,,,,,,8,,,69,0
103774,note_on,94,0,10,,,,,,,,10,,,69,0
103776,note_on,2,0,5,,,,,,,,4,,,72,110
103776,note_on,2,0,3,,,,,,,,2,,,72,110
103776,note_on,2,0,10,,,,,,,,10,,,72,92
103776,note_on,2,0,1,,,,,,,,0,,,72,110
103776,note_on,2,0,7,,,,,,,,6,,,72,110
103776,note_on,2,0,9,,,,,,,,8,,,72,92
103822,note_on,46,0,9,,,,,,,,8,,,72,0
103822,note_on,46,0,3,,,,,,,,2,,,72,0
103822,note_on,46,0,10,,,,,,,,10,,,72,0
103822,note_on,46,0,7,,,,,,,,6,,,72,0
103822,note_on,46,0,1,,,,,,,,0,,,72,0
103822,note_on,46,0,5,,,,,,,,4,,,72,0
103824,note_on,2,0,5,,,,,,,,4,,,71,110
103824,note_on,2,0,7,,,,,,,,6,,,71,110
103824,note_on,2,0,9,,,,,,,,8,,,71,92
103824,note_on,2,0,1,,,,,,,,0,,,71,110
103824,note_on,2,0,3,,,,,,,,2,,,71,110
103824,note_on,2,0,10,,,,,,,,10,,,71,92
103840,note_on,0,0,2,,,,,,,,1,,,45,0
103840,note_on,0,0,6,,,,,,,,5,,,52,0
103840,note_on,0,0,4,,,,,,,,3,,,52,0
103840,note_on,0,0,4,,,,,,,,3,,,48,0
103840,note_on,0,0,4,,,,,,,,3,,,45,0
103840,note_on,160,0,4,,,,,,,,3,,,57,0
103840,note_on,0,0,6,,,,,,,,5,,,45,0
103840,note_on,160,0,12,,,,,,,,12,,,45,0
103840,note_on,160,0,11,,,,,,,,11,,,64,0
103840,note_on,160,0,8,,,,,,,,7,,,57,0
103840,note_on,0,0,8,,,,,,,,7,,,45,0
103840,note_on,0,0,8,,,,,,,,7,,,48,0
103840,note_on,0,0,2,,,,,,,,1,,,52,0
103840,note_on,0,0,11,,,,,,,,11,,,60,0
103840,note_on,160,0,2,,,,,,,,1,,,57,0
103840,note_on,0,0,2,,,,,,,,1,,,48,0
103840,note_on,0,0,6,,,,,,,,5,,,48,0
103840,note_on,0,0,8,,,,,,,,7,,,52,0
103840,note_on,160,0,6,,,,,,,,5,,,57,0
103870,note_on,46,0,10,,,,,,,,10,,,71,0
103870,note_on,46,0,1,,,,,,,,0,,,71,0
103870,note_on,46,0,9,,,,,,,,8,,,71,0
103870,note_on,46,0,7,,,,,,,,6,,,71,0
103870,note_on,46,0,5,,,,,,,,4,,,71,0
103870,note_on,46,0,3,,,,,,,,2,,,71,0
103872,note_on,2,0,10,,,,,,,,10,,,69,92
103872,note_on,2,0,1,,,,,,,,0,,,69,110
103872,note_on,2,0,9,,,,,,,,8,,,69,92
103872,note_on,2,0,7,,,,,,,,6,,,69,110
103872,note_on,2,0,5,,,,,,,,4,,,69,110
103872,note_on,2,0,3,,,,,,,,2,,,69,110
103966,note_on,94,0,9,,,,,,,,8,,,69,0
103966,note_on,94,0,5,,,,,,,,4,,,69,0
103966,note_on,94,0,1,,,,,,,,0,,,69,0
103966,note_on,94,0,3,,,,,,,,2,,,69,0
103966,note_on,94,0,7,,,,,,,,6,,,69,0
103966,note_on,94,0,10,,,,,,,,10,,,69,0
103968,note_on,2,0,3,,,,,,,,2,,,64,127
103968,note_on,128,0,12,,,,,,,,12,,,45,92
103968,note_on,2,0,10,,,,,,,,10,,,64,92
103968,note_on,128,0,2,,,,,,,,1,,,45,110
103968,note_on,0,0,11,,,,,,,,11,,,64,92
103968,note_on,128,0,11,,,,,,,,11,,,60,92
103968,note_on,2,0,1,,,,,,,,0,,,64,127
103968,note_on,0,0,2,,,,,,,,1,,,57,110
103968,note_on,0,0,2,,,,,,,,1,,,52,110
103968,note_on,2,0,9,,,,,,,,8,,,64,92
103968,note_on,0,0,2,,,,,,,,1,,,48,110
103968,note_on,0,0,4,,,,,,,,3,,,57,110
103968,note_on,0,0,4,,,,,,,,3,,,48,110
103968,note_on,0,0,4,,,,,,,,3,,,52,110
103968,note_on,0,0,8,,,,,,,,7,,,48,110
103968,note_on,0,0,8,,,,,,,,7,,,52,110
103968,note_on,0,0,8,,,,,,,,7,,,57,110
103968,note_on,128,0,8,,,,,,,,7,,,45,110
103968,note_on,2,0,7,,,,,,,,6,,,64,127
103968,note_on,0,0,6,,,,,,,,5,,,52,110
103968,note_on,0,0,6,,,,,,,,5,,,48,110
103968,note_on,2,0,5,,,,,,,,4,,,64,127
103968,note_on,128,0,6,,,,,,,,5,,,45,110
103968,note_on,0,0,6,,,,,,,,5,,,57,110
103968,note_on,128,0,4,,,,,,,,3,,,45,110
104062,note_on,94,0,7,,,,,,,,6,,,64,0
104062,note_on,94,0,3,,,,,,,,2,,,64,0
104062,note_on,94,0,10,,,,,,,,10,,,64,0
104062,note_on,94,0,5,,,,,,,,4,,,64,0
104062,note_on,94,0,9,,,,,,,,8,,,64,0
104062,note_on,94,0,1,,,,,,,,0,,,64,0
104064,note_on,2,0,9,,,,,,,,8,,,69,92
104064,note_on,2,0,10,,,,,,,,10,,,69,92
104064,note_on,2,0,5,,,,,,,,4,,,69,110
104064,note_on,2,0,7,,,,,,,,6,,,69,110
104064,note_on,2,0,1,,,,,,,,0,,,69,110
104064,note_on,2,0,3,,,,,,,,2,,,69,110
104128,note_on,160,0,8,,,,,,,,7,,,57,0
104128,note_on,0,0,8,,,,,,,,7,,,45,0
104128,note_on,160,0,12,,,,,,,,12,,,45,0
104128,note_on,0,0,8,,,,,,,,7,,,48,0
104128,note_on,0,0,8,,,,,,,,7,,,52,0
104128,note_on,0,0,2,,,,,,,,1,,,52,0
104128,note_on,0,0,11,,,,,,,,11,,,60,0
104128,note_on,160,0,6,,,,,,,,5,,,57,0
104128,note_on,0,0,6,,,,,,,,5,,,45,0
104128,note_on,0,0,6,,,,,,,,5,,,48,0
104128,note_on,0,0,2,,,,,,,,1,,,48,0
104128,note_on,0,0,6,,,,,,,,5,,,52,0
104128,note_on,160,0,4,,,,,,,,3,,,57,0
104128,note_on,160,0,2,,,,,,,,1,,,57,0
104128,note_on,0,0,2,,,,,,,,1,,,45,0
104128,note_on,0,0,4,,,,,,,,3,,,45,0
104128,note_on,160,0,11,,,,,,,,11,,,64,0
104128,note_on,0,0,4,,,,,,,,3,,,48,0
104128,note_on,0,0,4,,,,,,,,3,,,52,0
104158,note_on,94,0,5,,,,,,,,4,,,69,0
104158,note_on,94,0,9,,,,,,,,8,,,69,0
104158,note_on,94,0,1,,,,,,,,0,,,69,0
104158,note_on,94,0,7,,,,,,,,6,,,69,0
104158,note_on,94,0,3,,,,,,,,2,,,69,0
104158,note_on,94,0,10,,,,,,,,10,,,69,0
104160,note_on,2,0,1,,,,,,,,0,,,64,110
104160,note_on,2,0,10,,,,,,,,10,,,64,92
104160,note_on,2,0,5,,,,,,,,4,,,64,110
104160,note_on,2,0,7,,,,,,,,6,,,64,110
104160,note_on,2,0,9,,,,,,,,8,,,64,92
104160,note_on,2,0,3,,,,,,,,2,,,64,110
104254,note_on,94,0,1,,,,,,,,0,,,64,0
104254,note_on,94,0,7,,,,,,,,6,,,64,0
104254,note_on,94,0,5,,,,,,,,4,,,64,0
104254,note_on,94,0,10,,,,,,,,10,,,64,0
104254,note_on,94,0,3,,,,,,,,2,,,64,0
104254,note_on,94,0,9,,,,,,,,8,,,64,0
104256,note_on,2,0,10,,,,,,,,10,,,60,92
104256,note_on,128,0,8,,,,,,,,7,,,45,110
104256,note_on,128,0,4,,,,,,,,3,,,45,110
104256,note_on,0,0,8,,,,,,,,7,,,52,110
104256,note_on,0,0,8,,,,,,,,7,,,57,110
104256,note_on,0,0,6,,,,,,,,5,,,48,110
104256,note_on,0,0,6,,,,,,,,5,,,52,110
104256,note_on,0,0,6,,,,,,,,5,,,57,110
104256,note_on,0,0,4,,,,,,,,3,,,57,110
104256,note_on,128,0,12,,,,,,,,12,,,45,92
104256,note_on,2,0,1,,,,,,,,0,,,60,127
104256,note_on,128,0,11,,,,,,,,11,,,60,92
104256,note_on,0,0,11,,,,,,,,11,,,64,92
104256,note_on,0,0,4,,,,,,,,3,,,52,110
104256,note_on,2,0,3,,,,,,,,2,,,60,127
104256,note_on,128,0,6,,,,,,,,5,,,45,110
104256,note_on,2,0,9,,,,,,,,8,,,60,92
104256,note_on,0,0,8,,,,,,,,7,,,48,110
104256,note_on,0,0,4,,,,,,,,3,,,48,110
104256,note_on,2,0,7,,,,,,,,6,,,60,127
104256,note_on,0,0,2,,,,,,,,1,,,57,110
104256,note_on,2,0,5,,,,,,,,4,,,60,127
104256,note_on,0,0,2,,,,,,,,1,,,52,110
104256,note_on,0,0,2,,,,,,,,1,,,48,110
104256,note_on,128,0,2,,,,,,,,1,,,45,110
104350,note_on,94,0,1,,,,,,,,0,,,60,0
104350,note_on,94,0,5,,,,,,,,4,,,60,0
104350,note_on,94,0,10,,,,,,,,10,,,60,0
104350,note_on,94,0,3,,,,,,,,2,,,60,0
104350,note_on,94,0,9,,,,,,,,8,,,60,0
104350,note_on,94,0,7,,,,,,,,6,,,60,0
104352,note_on,2,0,3,,,,,,,,2,,,64,110
104352,note_on,2,0,10,,,,,,,,10,,,64,92
104352,note_on,2,0,5,,,,,,,,4,,,64,110
104352,note_on,2,0,9,,,,,,,,8,,,64,92
104352,note_on,2,0,7,,,,,,,,6,,,64,110
104352,note_on,2,0,1,,,,,,,,0,,,64,110
104398,note_on,46,0,1,,,,,,,,0,,,64,0
104398,note_on,46,0,5,,,,,,,,4,,,64,0
104398,note_on,46,0,7,,,,,,,,6,,,64,0
104398,note_on,46,0,3,,,,,,,,2,,,64,0
104398,note_on,46,0,10,,,,,,,,10,,,64,0
104398,note_on,46,0,9,,,,,,,,8,,,64,0
104400,note_on,2,0,3,,,,,,,,2,,,62,110
104400,note_on,2,0,9,,,,,,,,8,,,62,92
104400,note_on,2,0,7,,,,,,,,6,,,62,110
104400,note_on,2,0,1,,,,,,,,0,,,62,110
104400,note_on,2,0,10,,,,,,,,10,,,62,92
104400,note_on,2,0,5,,,,,,,,4,,,62,110
104416,note_on,160,0,4,,,,,,,,3,,,57,0
104416,note_on,0,0,4,,,,,,,,3,,,48,0
104416,note_on,0,0,4,,,,,,,,3,,,52,0
104416,note_on,0,0,4,,,,,,,,3,,,45,0
104416,note_on,0,0,6,,,,,,,,5,,,45,0
104416,note_on,0,0,11,,,,,,,,11,,,60,0
104416,note_on,0,0,2,,,,,,,,1,,,48,0
104416,note_on,0,0,2,,,,,,,,1,,,52,0
104416,note_on,0,0,2,,,,,,,,1,,,45,0
104416,note_on,160,0,2,,,,,,,,1,,,57,0
104416,note_on,0,0,6,,,,,,,,5,,,52,0
104416,note_on,0,0,8,,,,,,,,7,,,45,0
104416,note_on,0,0,8,,,,,,,,7,,,48,0
104416,note_on,0,0,8,,,,,,,,7,,,52,0
104416,note_on,160,0,8,,,,,,,,7,,,57,0
104416,note_on,160,0,12,,,,,,,,12,,,45,0
104416,note_on,0,0,6,,,,,,,,5,,,48,0
104416,note_on,160,0,6,,,,,,,,5,,,57,0
104416,note_on,160,0,11,,,,,,,,11,,,64,0
104446,note_on,46,0,5,,,,,,,,4,,,62,0
104446,note_on,46,0,10,,,,,,,,10,,,62,0
104446,note_on,46,0,1,,,,,,,,0,,,62,0
104446,note_on,46,0,7,,,,,,,,6,,,62,0
104446,note_on,46,0,3,,,,,,,,2,,,62,0
104446,note_on,46,0,9,,,,,,,,8,,,62,0
104448,note_on,2,0,10,,,,,,,,10,,,60,92
104448,note_on,2,0,9,,,,,,,,8,,,60,92
104448,note_on,2,0,5,,,,,,,,4,,,60,110
104448,note_on,2,0,7,,,,,,,,6,,,60,110
104448,note_on,2,0,3,,,,,,,,2,,,60,110
104448,note_on,2,0,1,,,,,,,,0,,,60,110
104494,note_on,46,0,7,,,,,,,,6,,,60,0
104494,note_on,46,0,1,,,,,,,,0,,,60,0
104494,note_on,46,0,9,,,,,,,,8,,,60,0
104494,note_on,46,0,5,,,,,,,,4,,,60,0
104494,note_on,46,0,3,,,,,,,,2,,,60,0
104494,note_on,46,0,10,,,,,,,,10,,,60,0
104496,note_on,2,0,1,,,,,,,,0,,,59,110
104496,note_on,2,0,9,,,,,,,,8,,,59,92
104496,note_on,2,0,5,,,,,,,,4,,,59,110
104496,note_on,2,0,3,,,,,,,,2,,,59,110
104496,note_on,2,0,7,,,,,,,,6,,,59,110
104496,note_on,2,0,10,,,,,,,,10,,,59,92
104542,note_on,46,0,5,,,,,,,,4,,,59,0
104542,note_on,46,0,3,,,,,,,,2,,,59,0
104542,note_on,46,0,1,,,,,,,,0,,,59,0
104542,note_on,46,0,7,,,,,,,,6,,,59,0
104542,note_on,46,0,9,,,,,,,,8,,,59,0
104542,note_on,46,0,10,,,,,,,,10,,,59,0
104544,note_on,0,0,8,,,,,,,,7,,,52,110
104544,note_on,2,0,3,,,,,,,,2,,,57,127
104544,note_on,128,0,8,,,,,,,,7,,,45,110
104544,note_on,0,0,2,,,,,,,,1,,,52,110
104544,note_on,0,0,2,,,,,,,,1,,,48,110
104544,note_on,128,0,11,,,,,,,,11,,,60,92
104544,note_on,128,0,2,,,,,,,,1,,,45,110
104544,note_on,2,0,9,,,,,,,,8,,,57,92
104544,note_on,128,0,6,,,,,,,,5,,,45,110
104544,note_on,0,0,6,,,,,,,,5,,,48,110
104544,note_on,0,0,8,,,,,,,,7,,,48,110
104544,note_on,0,0,6,,,,,,,,5,,,52,110
104544,note_on,0,0,4,,,,,,,,3,,,52,110
104544,note_on,2,0,10,,,,,,,,10,,,57,92
104544,note_on,0,0,11,,,,,,,,11,,,64,92
104544,note_on,2,0,7,,,,,,,,6,,,57,127
104544,note_on,2,0,1,,,,,,,,0,,,57,127
104544,note_on,128,0,4,,,,,,,,3,,,45,110
104544,note_on,2,0,5,,,,,,,,4,,,57,127
104544,note_on,128,0,12,,,,,,,,12,,,45,92
104544,note_on,0,0,4,,,,,,,,3,,,48,110
104638,note_on,94,0,1,,,,,,,,0,,,57,0
104638,note_on,94,0,3,,,,,,,,2,,,57,0
104638,note_on,94,0,5,,,,,,,,4,,,57,0
104638,note_on,94,0,10,,,,,,,,10,,,57,0
104638,note_on,94,0,7,,,,,,,,6,,,57,0
104638,note_on,94,0,9,,,,,,,,8,,,57,0
104640,note_on,2,0,1,,,,,,,,0,,,60,110
104640,note_on,2,0,3,,,,,,,,2,,,60,110
104640,note_on,2,0,10,,,,,,,,10,,,60,92
104640,note_on,2,0,7,,,,,,,,6,,,60,110
104640,note_on,2,0,9,,,,,,,,8,,,60,92
104640,note_on,2,0,5,,,,,,,,4,,,60,110
104704,note_on,0,0,11,,,,,,,,11,,,60,0
104704,note_on,160,0,11,,,,,,,,11,,,64,0
104704,note_on,160,0,12,,,,,,,,12,,,45,0
104704,note_on,0,0,6,,,,,,,,5,,,48,0
104704,note_on,0,0,8,,,,,,,,7,,,45,0
104704,note_on,0,0,8,,,,,,,,7,,,48,0
104704,note_on,160,0,8,,,,,,,,7,,,52,0
104704,note_on,0,0,4,,,,,,,,3,,,45,0
104704,note_on,0,0,4,,,,,,,,3,,,48,0
104704,note_on,160,0,4,,,,,,,,3,,,52,0
104704,note_on,160,0,2,,,,,,,,1,,,52,0
104704,note_on,0,0,2,,,,,,,,1,,,48,0
104704,note_on,0,0,2,,,,,,,,1,,,45,0
104704,note_on,160,0,6,,,,,,,,5,,,52,0
104704,note_on,0,0,6,,,,,,,,5,,,45,0
104734,note_on,94,0,5,,,,,,,,4,,,60,0
104734,note_on,94,0,3,,,,,,,,2,,,60,0
104734,note_on,94,0,9,,,,,,,,8,,,60,0
104734,note_on,94,0,1,,,,,,,,0,,,60,0
104734,note_on,94,0,7,,,,,,,,6,,,60,0
104734,note_on,94,0,10,,,,,,,,10,,,60,0
104736,note_on,2,0,3,,,,,,,,2,,,64,110
104736,note_on,2,0,5,,,,,,,,4,,,64,110
104736,note_on,2,0,7,,,,,,,,6,,,64,110
104736,note_on,2,0,10,,,,,,,,10,,,64,92
104736,note_on,2,0,9,,,,,,,,8,,,64,92
104736,note_on,2,0,1,,,,,,,,0,,,64,110
104830,note_on,94,0,5,,,,,,,,4,,,64,0
104830,note_on,94,0,9,,,,,,,,8,,,64,0
104830,note_on,94,0,1,,,,,,,,0,,,64,0
104830,note_on,94,0,7,,,,,,,,6,,,64,0
104830,note_on,94,0,3,,,,,,,,2,,,64,0
104830,note_on,94,0,10,,,,,,,,10,,,64,0
104832,note_on,2,0,1,,,,,,,,0,,,60,110
104832,note_on,2,0,7,,,,,,,,6,,,60,110
104832,note_on,0,0,7,,,,,,,,6,,,64,110
104832,note_on,0,0,7,,,,,,,,6,,,69,110
104832,note_on,128,0,8,,,,,,,,7,,,57,110
104832,note_on,128,0,6,,,,,,,,5,,,57,110
104832,note_on,2,0,5,,,,,,,,4,,,60,110
104832,note_on,128,0,12,,,,,,,,12,,,57,92
104832,note_on,0,0,1,,,,,,,,0,,,69,110
104832,note_on,2,0,3,,,,,,,,2,,,60,110
104832,note_on,0,0,3,,,,,,,,2,,,64,110
104832,note_on,0,0,3,,,,,,,,2,,,69,110
104832,note_on,2,0,9,,,,,,,,8,,,69,92
104832,note_on,0,0,1,,,,,,,,0,,,64,110
104832,note_on,0,0,5,,,,,,,,4,,,64,110
104832,note_on,0,0,11,,,,,,,,11,,,64,92
104832,note_on,128,0,2,,,,,,,,1,,,57,110
104832,note_on,128,0,4,,,,,,,,3,,,57,110
104832,note_on,0,0,5,,,,,,,,4,,,69,110
104832,note_on,128,0,11,,,,,,,,11,,,60,92
104832,note_on,2,0,10,,,,,,,,10,,,69,92
104926,note_on,94,0,8,,,,,,,,7,,,57,0
104926,note_on,94,0,12,,,,,,,,12,,,57,0
104926,note_on,94,0,2,,,,,,,,1,,,57,0
104926,note_on,94,0,6,,,,,,,,5,,,57,0
104926,note_on,94,0,4,,,,,,,,3,,,57,0
104928,note_on,2,0,4,,,,,,,,3,,,52,110
104928,note_on,2,0,12,,,,,,,,12,,,52,92
104928,note_on,2,0,6,,,,,,,,5,,,52,110
104928,note_on,2,0,2,,,,,,,,1,,,52,110
104928,note_on,2,0,8,,,,,,,,7,,,52,110
104974,note_on,46,0,12,,,,,,,,12,,,52,0
104974,note_on,46,0,4,,,,,,,,3,,,52,0
104974,note_on,46,0,2,,,,,,,,1,,,52,0
104974,note_on,46,0,6,,,,,,,,5,,,52,0
104974,note_on,46,0,8,,,,,,,,7,,,52,0
104976,note_on,2,0,4,,,,,,,,3,,,50,110
104976,note_on,2,0,6,,,,,,,,5,,,50,110
104976,note_on,2,0,12,,,,,,,,12,,,50,92
104976,note_on,2,0,2,,,,,,,,1,,,50,110
104976,note_on,2,0,8,,,,,,,,7,,,50,110
104992,note_on,0,0,11,,,,,,,,11,,,60,0
104992,note_on,160,0,9,,,,,,,,8,,,69,0
104992,note_on,160,0,11,,,,,,,,11,,,64,0
104992,note_on,0,0,1,,,,,,,,0,,,64,0
104992,note_on,0,0,3,,,,,,,,2,,,60,0
104992,note_on,0,0,3,,,,,,,,2,,,64,0
104992,note_on,160,0,3,,,,,,,,2,,,69,0
104992,note_on,0,0,7,,,,,,,,6,,,60,0
104992,note_on,0,0,7,,,,,,,,6,,,64,0
104992,note_on,160,0,7,,,,,,,,6,,,69,0
104992,note_on,0,0,1,,,,,,,,0,,,60,0
104992,note_on,0,0,5,,,,,,,,4,,,64,0
104992,note_on,0,0,5,,,,,,,,4,,,60,0
104992,note_on,160,0,10,,,,,,,,10,,,69,0
104992,note_on,160,0,1,,,,,,,,0,,,69,0
104992,note_on,160,0,5,,,,,,,,4,,,69,0
105022,note_on,46,0,2,,,,,,,,1,,,50,0
105022,note_on,46,0,12,,,,,,,,12,,,50,0
105022,note_on,46,0,4,,,,,,,,3,,,50,0
105022,note_on,46,0,8,,,,,,,,7,,,50,0
105022,note_on,46,0,6,,,,,,,,5,,,50,0
105024,note_on,32,0,9,,,,,,,,8,,,57,92
105024,note_on,32,0,7,,,,,,,,6,,,57,110
105024,note_on,32,0,3,,,,,,,,2,,,57,110
105024,note_on,32,0,5,,,,,,,,4,,,57,110
105024,note_on,32,0,10,,,,,,,,10,,,57,92
105024,note_on,2,0,2,,,,,,,,1,,,48,110
105024,note_on,2,0,6,,,,,,,,5,,,48,110
105024,note_on,32,0,1,,,,,,,,0,,,57,110
105024,note_on,2,0,12,,,,,,,,12,,,48,92
105024,note_on,2,0,4,,,,,,,,3,,,48,110
105024,note_on,2,0,8,,,,,,,,7,,,48,110
105070,note_on,46,0,6,,,,,,,,5,,,48,0
105070,note_on,46,0,8,,,,,,,,7,,,48,0
105070,note_on,46,0,2,,,,,,,,1,,,48,0
105070,note_on,46,0,12,,,,,,,,12,,,48,0
105070,note_on,46,0,4,,,,,,,,3,,,48,0
105072,note_on,2,0,4,,,,,,,,3,,,47,110
105072,note_on,2,0,12,,,,,,,,12,,,47,92
105072,note_on,2,0,8,,,,,,,,7,,,47,110
105072,note_on,2,0,2,,,,,,,,1,,,47,110
105072,note_on,2,0,6,,,,,,,,5,,,47,110
105118,note_on,46,0,2,,,,,,,,1,,,47,0
105118,note_on,94,0,1,,,,,,,,0,,,57,0
105118,note_on,46,0,4,,,,,,,,3,,,47,0
105118,note_on,94,0,3,,,,,,,,2,,,57,0
105118,note_on,46,0,8,,,,,,,,7,,,47,0
105118,note_on,94,0,7,,,,,,,,6,,,57,0
105118,note_on,46,0,12,,,,,,,,12,,,47,0
105118,note_on,94,0,5,,,,,,,,4,,,57,0
105118,note_on,94,0,10,,,,,,,,10,,,57,0
105118,note_on,46,0,6,,,,,,,,5,,,47,0
105118,note_on,94,0,9,,,,,,,,8,,,57,0
105120,note_on,2,0,6,,,,,,,,5,,,45,110
105120,note_on,2,0,8,,,,,,,,7,,,45,110
105120,note_on,2,0,4,,,,,,,,3,,,45,110
105120,note_on,2,0,12,,,,,,,,12,,,45,92
105120,note_on,2,0,2,,,,,,,,1,,,45,110
105214,note_on,94,0,12,,,,,,,,12,,,45,0
105214,note_on,94,0,8,,,,,,,,7,,,45,0
105214,note_on,94,0,2,,,,,,,,1,,,45,0
105214,note_on,94,0,6,,,,,,,,5,,,45,0
105214,note_on,94,0,4,,,,,,,,3,,,45,0
105216,note_on,2,0,4,,,,,,,,3,,,48,110
105216,note_on,2,0,2,,,,,,,,1,,,48,110
105216,note_on,2,0,12,,,,,,,,12,,,48,92
105216,note_on,2,0,6,,,,,,,,5,,,48,110
105216,note_on,2,0,8,,,,,,,,7,,,48,110
105310,note_on,94,0,2,,,,,,,,1,,,48,0
105310,note_on,94,0,6,,,,,,,,5,,,48,0
105310,note_on,94,0,12,,,,,,,,12,,,48,0
105310,note_on,94,0,8,,,,,,,,7,,,48,0
105310,note_on,94,0,4,,,,,,,,3,,,48,0
105312,note_on,2,0,8,,,,,,,,7,,,52,110
105312,note_on,2,0,6,,,,,,,,5,,,52,110
105312,note_on,2,0,2,,,,,,,,1,,,52,110
105312,note_on,2,0,4,,,,,,,,3,,,52,110
105312,note_on,2,0,12,,,,,,,,12,,,52,92
105406,note_on,94,0,12,,,,,,,,12,,,52,0
105406,note_on,94,0,6,,,,,,,,5,,,52,0
105406,note_on,94,0,8,,,,,,,,7,,,52,0
105406,note_on,94,0,2,,,,,,,,1,,,52,0
105406,note_on,94,0,4,,,,,,,,3,,,52,0
105408,note_on,2,0,6,,,,,,,,5,,,57,110
105408,note_on,290,0,7,,,,,,,,6,,,72,110
105408,note_on,290,0,5,,,,,,,,4,,,76,110
105408,note_on,290,0,10,,,,,,,,10,,,76,92
105408,note_on,416,0,11,,,,,,,,11,,,72,92
105408,note_on,2,0,8,,,,,,,,7,,,57,110
105408,note_on,2,0,2,,,,,,,,1,,,57,110
105408,note_on,2,0,12,,,,,,,,12,,,57,92
105408,note_on,2,0,4,,,,,,,,3,,,57,110
105502,note_on,94,0,11,,,,,,,,11,,,72,0
105502,note_on,94,0,7,,,,,,,,6,,,72,0
105502,note_on,94,0,6,,,,,,,,5,,,57,0
105502,note_on,94,0,8,,,,,,,,7,,,57,0
105502,note_on,94,0,12,,,,,,,,12,,,57,0
105502,note_on,94,0,5,,,,,,,,4,,,76,0
105502,note_on,94,0,10,,,,,,,,10,,,76,0
105504,note_on,2,0,10,,,,,,,,10,,,81,92
105504,note_on,2,0,8,,,,,,,,7,,,60,110
105504,note_on,2,0,11,,,,,,,,11,,,72,92
105504,note_on,2,0,5,,,,,,,,4,,,81,110
105504,note_on,2,0,7,,,,,,,,6,,,76,110
105504,note_on,2,0,6,,,,,,,,5,,,60,110
105536,note_on,32,0,10,,,,,,,,10,,,81,0
105568,note_on,160,0,2,,,,,,,,1,,,57,0
105568,note_on,160,0,4,,,,,,,,3,,,57,0
105598,note_on,94,0,8,,,,,,,,7,,,60,0
105598,note_on,94,0,11,,,,,,,,11,,,72,0
105598,note_on,94,0,5,,,,,,,,4,,,81,0
105598,note_on,94,0,6,,,,,,,,5,,,60,0
105598,note_on,94,0,7,,,,,,,,6,,,76,0
105600,note_on,2,0,6,,,,,,,,5,,,57,110
105600,note_on,2,0,7,,,,,,,,6,,,72,110
105600,note_on,2,0,5,,,,,,,,4,,,76,110
105600,note_on,2,0,11,,,,,,,,11,,,72,92
105600,note_on,2,0,8,,,,,,,,7,,,57,110
105600,note_on,64,0,10,,,,,,,,10,,,76,92
105600,note_on,98,0,12,,,,,,,,12,,,57,92
105632,note_on,32,0,10,,,,,,,,10,,,76,0
105694,note_on,94,0,6,,,,,,,,5,,,57,0
105694,note_on,94,0,5,,,,,,,,4,,,76,0
105694,note_on,94,0,7,,,,,,,,6,,,72,0
105694,note_on,94,0,8,,,,,,,,7,,,57,0
105694,note_on,94,0,12,,,,,,,,12,,,57,0
105694,note_on,94,0,11,,,,,,,,11,,,72,0
105696,note_on,2,0,6,,,,,,,,5,,,62,110
105696,note_on,2,0,11,,,,,,,,11,,,72,92
105696,note_on,2,0,7,,,,,,,,6,,,74,110
105696,note_on,578,0,1,,,,,,,,0,,,81,110
105696,note_on,2,0,12,,,,,,,,12,,,50,92
105696,note_on,64,0,10,,,,,,,,10,,,77,92
105696,note_on,578,0,3,,,,,,,,2,,,77,110
105696,note_on,128,0,4,,,,,,,,3,,,50,110
105696,note_on,2,0,8,,,,,,,,7,,,62,110
105696,note_on,2,0,5,,,,,,,,4,,,77,110
105696,note_on,578,0,9,,,,,,,,8,,,81,92
105696,note_on,128,0,2,,,,,,,,1,,,50,110
105742,note_on,46,0,10,,,,,,,,10,,,77,0
105742,note_on,46,0,7,,,,,,,,6,,,74,0
105742,note_on,46,0,5,,,,,,,,4,,,77,0
105744,note_on,2,0,7,,,,,,,,6,,,76,110
105744,note_on,2,0,5,,,,,,,,4,,,79,110
105744,note_on,2,0,10,,,,,,,,10,,,79,92
105790,note_on,46,0,10,,,,,,,,10,,,79,0
105790,note_on,94,0,2,,,,,,,,1,,,50,0
105790,note_on,94,0,4,,,,,,,,3,,,50,0
105790,note_on,94,0,6,,,,,,,,5,,,62,0
105790,note_on,94,0,3,,,,,,,,2,,,77,0
105790,note_on,94,0,8,,,,,,,,7,,,62,0
105790,note_on,46,0,7,,,,,,,,6,,,76,0
105790,note_on,94,0,11,,,,,,,,11,,,72,0
105790,note_on,46,0,5,,,,,,,,4,,,79,0
105790,note_on,94,0,1,,,,,,,,0,,,81,0
105790,note_on,94,0,9,,,,,,,,8,,,81,0
105790,note_on,94,0,12,,,,,,,,12,,,50,0
105792,note_on,2,0,5,,,,,,,,4,,,77,110
105792,note_on,2,0,9,,,,,,,,8,,,86,92
105792,note_on,2,0,3,,,,,,,,2,,,81,110
105792,note_on,2,0,1,,,,,,,,0,,,86,110
105792,note_on,2,0,11,,,,,,,,11,,,72,92
105792,note_on,2,0,4,,,,,,,,3,,,53,110
105792,note_on,2,0,7,,,,,,,,6,,,74,110
105792,note_on,2,0,10,,,,,,,,10,,,77,92
105792,note_on,2,0,2,,,,,,,,1,,,53,110
105824,note_on,32,0,9,,,,,,,,8,,,86,0
105838,note_on,46,0,7,,,,,,,,6,,,74,0
105838,note_on,46,0,10,,,,,,,,10,,,77,0
105838,note_on,46,0,5,,,,,,,,4,,,77,0
105840,note_on,2,0,10,,,,,,,,10,,,79,92
105840,note_on,2,0,5,,,,,,,,4,,,79,110
105840,note_on,2,0,7,,,,,,,,6,,,76,110
105886,note_on,94,0,2,,,,,,,,1,,,53,0
105886,note_on,94,0,11,,,,,,,,11,,,72,0
105886,note_on,94,0,4,,,,,,,,3,,,53,0
105886,note_on,46,0,7,,,,,,,,6,,,76,0
105886,note_on,46,0,5,,,,,,,,4,,,79,0
105886,note_on,46,0,10,,,,,,,,10,,,79,0
105886,note_on,94,0,3,,,,,,,,2,,,81,0
105886,note_on,94,0,1,,,,,,,,0,,,86,0
105888,note_on,2,0,3,,,,,,,,2,,,77,110
105888,note_on,2,0,4,,,,,,,,3,,,50,110
105888,note_on,2,0,1,,,,,,,,0,,,81,110
105888,note_on,2,0,11,,,,,,,,11,,,72,92
105888,note_on,2,0,10,,,,,,,,10,,,77,92
105888,note_on,98,0,8,,,,,,,,7,,,62,110
105888,note_on,2,0,7,,,,,,,,6,,,74,110
105888,note_on,64,0,9,,,,,,,,8,,,81,92
105888,note_on,98,0,6,,,,,,,,5,,,62,110
105888,note_on,2,0,5,,,,,,,,4,,,77,110
105888,note_on,2,0,2,,,,,,,,1,,,50,110
105888,note_on,98,0,12,,,,,,,,12,,,50,92
105920,note_on,32,0,9,,,,,,,,8,,,81,0
105934,note_on,46,0,7,,,,,,,,6,,,74,0
105934,note_on,46,0,10,,,,,,,,10,,,77,0
105934,note_on,46,0,5,,,,,,,,4,,,77,0
105936,note_on,2,0,7,,,,,,,,6,,,72,110
105936,note_on,2,0,10,,,,,,,,10,,,76,92
105936,note_on,2,0,5,,,,,,,,4,,,76,110
105982,note_on,94,0,1,,,,,,,,0,,,81,0
105982,note_on,94,0,3,,,,,,,,2,,,77,0
105982,note_on,94,0,12,,,,,,,,12,,,50,0
105982,note_on,94,0,11,,,,,,,,11,,,72,0
105982,note_on,94,0,6,,,,,,,,5,,,62,0
105982,note_on,46,0,5,,,,,,,,4,,,76,0
105982,note_on,94,0,4,,,,,,,,3,,,50,0
105982,note_on,94,0,2,,,,,,,,1,,,50,0
105982,note_on,94,0,8,,,,,,,,7,,,62,0
105982,note_on,46,0,7,,,,,,,,6,,,72,0
105982,note_on,46,0,10,,,,,,,,10,,,76,0
105984,note_on,2,0,2,,,,,,,,1,,,55,110
105984,note_on,2,0,7,,,,,,,,6,,,71,110
105984,note_on,2,0,1,,,,,,,,0,,,83,110
105984,note_on,64,0,9,,,,,,,,8,,,83,92
105984,note_on,2,0,5,,,,,,,,4,,,74,110
105984,note_on,2,0,4,,,,,,,,3,,,55,110
105984,note_on,2,0,3,,,,,,,,2,,,79,110
105984,note_on,2,0,8,,,,,,,,7,,,55,110
105984,note_on,2,0,10,,,,,,,,10,,,74,92
105984,note_on,2,0,6,,,,,,,,5,,,55,110
105984,note_on,2,0,11,,,,,,,,11,,,71,92
105984,note_on,2,0,12,,,,,,,,12,,,55,92
106030,note_on,46,0,9,,,,,,,,8,,,83,0
106030,note_on,46,0,1,,,,,,,,0,,,83,0
106030,note_on,46,0,3,,,,,,,,2,,,79,0
106032,note_on,2,0,1,,,,,,,,0,,,84,110
106032,note_on,2,0,3,,,,,,,,2,,,81,110
106032,note_on,2,0,9,,,,,,,,8,,,84,92
106078,note_on,94,0,11,,,,,,,,11,,,71,0
106078,note_on,94,0,10,,,,,,,,10,,,74,0
106078,note_on,46,0,9,,,,,,,,8,,,84,0
106078,note_on,94,0,6,,,,,,,,5,,,55,0
106078,note_on,94,0,12,,,,,,,,12,,,55,0
106078,note_on,94,0,2,,,,,,,,1,,,55,0
106078,note_on,94,0,8,,,,,,,,7,,,55,0
106078,note_on,94,0,5,,,,,,,,4,,,74,0
106078,note_on,46,0,1,,,,,,,,0,,,84,0
106078,note_on,46,0,3,,,,,,,,2,,,81,0
106078,note_on,94,0,7,,,,,,,,6,,,71,0
106078,note_on,94,0,4,,,,,,,,3,,,55,0
106080,note_on,2,0,9,,,,,,,,8,,,83,92
106080,note_on,2,0,11,,,,,,,,11,,,71,92
106080,note_on,2,0,5,,,,,,,,4,,,79,110
106080,note_on,2,0,8,,,,,,,,7,,,59,110
106080,note_on,2,0,3,,,,,,,,2,,,79,110
106080,note_on,2,0,7,,,,,,,,6,,,74,110
106080,note_on,2,0,6,,,,,,,,5,,,59,110
106080,note_on,2,0,10,,,,,,,,10,,,79,92
106080,note_on,2,0,1,,,,,,,,0,,,83,110
106112,note_on,32,0,10,,,,,,,,10,,,79,0
106126,note_on,46,0,9,,,,,,,,8,,,83,0
106126,note_on,46,0,3,,,,,,,,2,,,79,0
106126,note_on,46,0,1,,,,,,,,0,,,83,0
106128,note_on,2,0,3,,,,,,,,2,,,81,110
106128,note_on,2,0,1,,,,,,,,0,,,84,110
106128,note_on,2,0,9,,,,,,,,8,,,84,92
106174,note_on,94,0,5,,,,,,,,4,,,79,0
106174,note_on,94,0,11,,,,,,,,11,,,71,0
106174,note_on,46,0,9,,,,,,,,8,,,84,0
106174,note_on,94,0,8,,,,,,,,7,,,59,0
106174,note_on,94,0,6,,,,,,,,5,,,59,0
106174,note_on,46,0,1,,,,,,,,0,,,84,0
106174,note_on,46,0,3,,,,,,,,2,,,81,0
106174,note_on,94,0,7,,,,,,,,6,,,74,0
106176,note_on,2,0,9,,,,,,,,8,,,83,92
106176,note_on,98,0,12,,,,,,,,12,,,55,92
106176,note_on,2,0,5,,,,,,,,4,,,74,110
106176,note_on,2,0,8,,,,,,,,7,,,55,110
106176,note_on,2,0,6,,,,,,,,5,,,55,110
106176,note_on,2,0,3,,,,,,,,2,,,79,110
106176,note_on,2,0,11,,,,,,,,11,,,71,92
106176,note_on,98,0,4,,,,,,,,3,,,55,110
106176,note_on,2,0,1,,,,,,,,0,,,83,110
106176,note_on,98,0,2,,,,,,,,1,,,55,110
106176,note_on,64,0,10,,,,,,,,10,,,74,92
106176,note_on,2,0,7,,,,,,,,6,,,71,110
106208,note_on,32,0,10,,,,,,,,10,,,74,0
106222,note_on,46,0,3,,,,,,,,2,,,79,0
106222,note_on,46,0,1,,,,,,,,0,,,83,0
106222,note_on,46,0,9,,,,,,,,8,,,83,0
106224,note_on,2,0,3,,,,,,,,2,,,77,110
106224,note_on,2,0,9,,,,,,,,8,,,81,92
106224,note_on,2,0,1,,,,,,,,0,,,81,110
106270,note_on,94,0,8,,,,,,,,7,,,55,0
106270,note_on,46,0,3,,,,,,,,2,,,77,0
106270,note_on,94,0,12,,,,,,,,12,,,55,0
106270,note_on,94,0,11,,,,,,,,11,,,71,0
106270,note_on,94,0,5,,,,,,,,4,,,74,0
106270,note_on,46,0,9,,,,,,,,8,,,81,0
106270,note_on,94,0,7,,,,,,,,6,,,71,0
106270,note_on,94,0,4,,,,,,,,3,,,55,0
106270,note_on,46,0,1,,,,,,,,0,,,81,0
106270,note_on,94,0,2,,,,,,,,1,,,55,0
106270,note_on,94,0,6,,,,,,,,5,,,55,0
106272,note_on,2,0,6,,,,,,,,5,,,60,110
106272,note_on,2,0,8,,,,,,,,7,,,60,110
106272,note_on,2,0,4,,,,,,,,3,,,48,110
106272,note_on,2,0,2,,,,,,,,1,,,48,110
106272,note_on,2,0,1,,,,,,,,0,,,79,110
106272,note_on,2,0,9,,,,,,,,8,,,79,92
106272,note_on,2,0,12,,,,,,,,12,,,48,92
106272,note_on,2,0,5,,,,,,,,4,,,76,110
106272,note_on,2,0,3,,,,,,,,2,,,76,110
106272,note_on,64,0,10,,,,,,,,10,,,76,92
106272,note_on,2,0,11,,,,,,,,11,,,71,92
106272,note_on,2,0,7,,,,,,,,6,,,72,110
106318,note_on,46,0,7,,,,,,,,6,,,72,0
106318,note_on,46,0,10,,,,,,,,10,,,76,0
106318,note_on,46,0,5,,,,,,,,4,,,76,0
106320,note_on,2,0,5,,,,,,,,4,,,77,110
106320,note_on,2,0,10,,,,,,,,10,,,77,92
106320,note_on,2,0,7,,,,,,,,6,,,74,110
106366,note_on,46,0,7,,,,,,,,6,,,74,0
106366,note_on,94,0,3,,,,,,,,2,,,76,0
106366,note_on,94,0,4,,,,,,,,3,,,48,0
106366,note_on,94,0,8,,,,,,,,7,,,60,0
106366,note_on,94,0,6,,,,,,,,5,,,60,0
106366,note_on,94,0,2,,,,,,,,1,,,48,0
106366,note_on,94,0,11,,,,,,,,11,,,71,0
106366,note_on,46,0,10,,,,,,,,10,,,77,0
106366,note_on,94,0,12,,,,,,,,12,,,48,0
106366,note_on,46,0,5,,,,,,,,4,,,77,0
106366,note_on,94,0,1,,,,,,,,0,,,79,0
106366,note_on,94,0,9,,,,,,,,8,,,79,0
106368,note_on,2,0,2,,,,,,,,1,,,52,110
106368,note_on,2,0,10,,,,,,,,10,,,76,92
106368,note_on,2,0,4,,,,,,,,3,,,52,110
106368,note_on,2,0,7,,,,,,,,6,,,72,110
106368,note_on,2,0,9,,,,,,,,8,,,84,92
106368,note_on,2,0,5,,,,,,,,4,,,76,110
106368,note_on,2,0,3,,,,,,,,2,,,79,110
106368,note_on,2,0,11,,,,,,,,11,,,71,92
106368,note_on,2,0,1,,,,,,,,0,,,84,110
106400,note_on,32,0,9,,,,,,,,8,,,84,0
106414,note_on,46,0,7,,,,,,,,6,,,72,0
106414,note_on,46,0,5,,,,,,,,4,,,76,0
106414,note_on,46,0,10,,,,,,,,10,,,76,0
106416,note_on,2,0,10,,,,,,,,10,,,77,92
106416,note_on,2,0,5,,,,,,,,4,,,77,110
106416,note_on,2,0,7,,,,,,,,6,,,74,110
106462,note_on,46,0,10,,,,,,,,10,,,77,0
106462,note_on,46,0,7,,,,,,,,6,,,74,0
106462,note_on,46,0,5,,,,,,,,4,,,77,0
106462,note_on,94,0,2,,,,,,,,1,,,52,0
106462,note_on,94,0,1,,,,,,,,0,,,84,0
106462,note_on,94,0,4,,,,,,,,3,,,52,0
106462,note_on,94,0,11,,,,,,,,11,,,71,0
106462,note_on,94,0,3,,,,,,,,2,,,79,0
106464,note_on,98,0,6,,,,,,,,5,,,60,110
106464,note_on,2,0,5,,,,,,,,4,,,76,110
106464,note_on,2,0,4,,,,,,,,3,,,48,110
106464,note_on,98,0,8,,,,,,,,7,,,60,110
106464,note_on,98,0,12,,,,,,,,12,,,48,92
106464,note_on,2,0,2,,,,,,,,1,,,48,110
106464,note_on,2,0,3,,,,,,,,2,,,76,110
106464,note_on,2,0,10,,,,,,,,10,,,76,92
106464,note_on,2,0,11,,,,,,,,11,,,71,92
106464,note_on,64,0,9,,,,,,,,8,,,79,92
106464,note_on,2,0,7,,,,,,,,6,,,72,110
106464,note_on,2,0,1,,,,,,,,0,,,79,110
106496,note_on,32,0,9,,,,,,,,8,,,79,0
106510,note_on,46,0,10,,,,,,,,10,,,76,0
106510,note_on,46,0,7,,,,,,,,6,,,72,0
106510,note_on,46,0,5,,,,,,,,4,,,76,0
106512,note_on,2,0,5,,,,,,,,4,,,74,110
106512,note_on,2,0,7,,,,,,,,6,,,71,110
106512,note_on,2,0,10,,,,,,,,10,,,74,92
106558,note_on,94,0,6,,,,,,,,5,,,60,0
106558,note_on,46,0,5,,,,,,,,4,,,74,0
106558,note_on,94,0,12,,,,,,,,12,,,48,0
106558,note_on,94,0,2,,,,,,,,1,,,48,0
106558,note_on,94,0,8,,,,,,,,7,,,60,0
106558,note_on,46,0,7,,,,,,,,6,,,71,0
106558,note_on,94,0,4,,,,,,,,3,,,48,0
106558,note_on,94,0,11,,,,,,,,11,,,71,0
106558,note_on,94,0,3,,,,,,,,2,,,76,0
106558,note_on,46,0,10,,,,,,,,10,,,74,0
106558,note_on,94,0,1,,,,,,,,0,,,79,0
106560,note_on,2,0,3,,,,,,,,2,,,77,110
106560,note_on,2,0,12,,,,,,,,12,,,53,92
106560,note_on,2,0,2,,,,,,,,1,,,53,110
106560,note_on,64,0,9,,,,,,,,8,,,81,92
106560,note_on,2,0,7,,,,,,,,6,,,69,110
106560,note_on,2,0,1,,,,,,,,0,,,81,110
106560,note_on,2,0,4,,,,,,,,3,,,53,110
106560,note_on,2,0,11,,,,,,,,11,,,69,92
106560,note_on,2,0,6,,,,,,,,5,,,53,110
106560,note_on,2,0,5,,,,,,,,4,,,72,110
106560,note_on,2,0,8,,,,,,,,7,,,53,110
106560,note_on,2,0,10,,,,,,,,10,,,72,92
106606,note_on,46,0,3,,,,,,,,2,,,77,0
106606,note_on,46,0,1,,,,,,,,0,,,81,0
106606,note_on,46,0,9,,,,,,,,8,,,81,0
106608,note_on,2,0,1,,,,,,,,0,,,83,110
106608,note_on,2,0,3,,,,,,,,2,,,79,110
106608,note_on,2,0,9,,,,,,,,8,,,83,92
106654,note_on,94,0,10,,,,,,,,10,,,72,0
106654,note_on,94,0,4,,,,,,,,3,,,53,0
106654,note_on,94,0,8,,,,,,,,7,,,53,0
106654,note_on,94,0,7,,,,,,,,6,,,69,0
106654,note_on,94,0,2,,,,,,,,1,,,53,0
106654,note_on,94,0,5,,,,,,,,4,,,72,0
106654,note_on,94,0,6,,,,,,,,5,,,53,0
106654,note_on,46,0,3,,,,,,,,2,,,79,0
106654,note_on,46,0,1,,,,,,,,0,,,83,0
106654,note_on,94,0,11,,,,,,,,11,,,69,0
106654,note_on,46,0,9,,,,,,,,8,,,83,0
106656,note_on,2,0,6,,,,,,,,5,,,57,110
106656,note_on,2,0,9,,,,,,,,8,,,81,92
106656,note_on,2,0,3,,,,,,,,2,,,77,110
106656,note_on,2,0,11,,,,,,,,11,,,69,92
106656,note_on,2,0,5,,,,,,,,4,,,77,110
106656,note_on,2,0,10,,,,,,,,10,,,77,92
106656,note_on,2,0,7,,,,,,,,6,,,72,110
106656,note_on,2,0,8,,,,,,,,7,,,57,110
106656,note_on,2,0,1,,,,,,,,0,,,81,110
106702,note_on,46,0,3,,,,,,,,2,,,77,0
106702,note_on,46,0,10,,,,,,,,10,,,77,0
106702,note_on,46,0,1,,,,,,,,0,,,81,0
106702,note_on,46,0,9,,,,,,,,8,,,81,0
106704,note_on,2,0,1,,,,,,,,0,,,83,110
106704,note_on,2,0,10,,,,,,,,10,,,79,92
106704,note_on,2,0,9,,,,,,,,8,,,83,92
106704,note_on,2,0,3,,,,,,,,2,,,79,110
106720,note_on,160,0,12,,,,,,,,12,,,53,0
106750,note_on,94,0,6,,,,,,,,5,,,57,0
106750,note_on,94,0,5,,,,,,,,4,,,77,0
106750,note_on,46,0,9,,,,,,,,8,,,83,0
106750,note_on,94,0,11,,,,,,,,11,,,69,0
106750,note_on,46,0,10,,,,,,,,10,,,79,0
106750,note_on,46,0,1,,,,,,,,0,,,83,0
106750,note_on,94,0,8,,,,,,,,7,,,57,0
106750,note_on,46,0,3,,,,,,,,2,,,79,0
106750,note_on,94,0,7,,,,,,,,6,,,72,0
106752,note_on,98,0,4,,,,,,,,3,,,65,110
106752,note_on,2,0,9,,,,,,,,8,,,81,92
106752,note_on,2,0,1,,,,,,,,0,,,81,110
106752,note_on,2,0,8,,,,,,,,7,,,53,110
106752,note_on,2,0,6,,,,,,,,5,,,53,110
106752,note_on,98,0,2,,,,,,,,1,,,53,110
106752,note_on,2,0,3,,,,,,,,2,,,77,110
106752,note_on,2,0,10,,,,,,,,10,,,77,92
106752,note_on,2,0,11,,,,,,,,11,,,69,92
106752,note_on,32,0,12,,,,,,,,12,,,53,92
106752,note_on,2,0,5,,,,,,,,4,,,72,110
106752,note_on,2,0,7,,,,,,,,6,,,69,110
106798,note_on,46,0,1,,,,,,,,0,,,81,0
106798,note_on,46,0,10,,,,,,,,10,,,77,0
106798,note_on,46,0,3,,,,,,,,2,,,77,0
106798,note_on,46,0,9,,,,,,,,8,,,81,0
106800,note_on,2,0,1,,,,,,,,0,,,79,110
106800,note_on,2,0,10,,,,,,,,10,,,76,92
106800,note_on,2,0,9,,,,,,,,8,,,79,92
106800,note_on,2,0,3,,,,,,,,2,,,76,110
106846,note_on,46,0,1,,,,,,,,0,,,79,0
106846,note_on,46,0,10,,,,,,,,10,,,76,0
106846,note_on,94,0,7,,,,,,,,6,,,69,0
106846,note_on,94,0,11,,,,,,,,11,,,69,0
106846,note_on,46,0,9,,,,,,,,8,,,79,0
106846,note_on,94,0,8,,,,,,,,7,,,53,0
106846,note_on,94,0,12,,,,,,,,12,,,53,0
106846,note_on,94,0,5,,,,,,,,4,,,72,0
106846,note_on,94,0,6,,,,,,,,5,,,53,0
106846,note_on,46,0,3,,,,,,,,2,,,76,0
106846,note_on,94,0,2,,,,,,,,1,,,53,0
106846,note_on,94,0,4,,,,,,,,3,,,65,0
106848,note_on,2,0,4,,,,,,,,3,,,56,110
106848,note_on,2,0,5,,,,,,,,4,,,74,110
106848,note_on,2,0,11,,,,,,,,11,,,71,92
106848,note_on,2,0,9,,,,,,,,8,,,77,92
106848,note_on,2,0,12,,,,,,,,12,,,44,92
106848,note_on,2,0,6,,,,,,,,5,,,59,110
106848,note_on,2,0,2,,,,,,,,1,,,44,110
106848,note_on,2,0,8,,,,,,,,7,,,56,110
106848,note_on,2,0,1,,,,,,,,0,,,77,110
106848,note_on,2,0,7,,,,,,,,6,,,71,110
106848,note_on,2,0,10,,,,,,,,10,,,74,92
106848,note_on,2,0,3,,,,,,,,2,,,74,110
106894,note_on,46,0,9,,,,,,,,8,,,77,0
106894,note_on,46,0,3,,,,,,,,2,,,74,0
106894,note_on,46,0,1,,,,,,,,0,,,77,0
106894,note_on,46,0,10,,,,,,,,10,,,74,0
106896,note_on,2,0,9,,,,,,,,8,,,79,92
106896,note_on,2,0,3,,,,,,,,2,,,76,110
106896,note_on,2,0,1,,,,,,,,0,,,79,110
106896,note_on,2,0,10,,,,,,,,10,,,76,92
106942,note_on,46,0,3,,,,,,,,2,,,76,0
106942,note_on,94,0,8,,,,,,,,7,,,56,0
106942,note_on,94,0,4,,,,,,,,3,,,56,0
106942,note_on,46,0,1,,,,,,,,0,,,79,0
106942,note_on,94,0,11,,,,,,,,11,,,71,0
106942,note_on,94,0,12,,,,,,,,12,,,44,0
106942,note_on,94,0,6,,,,,,,,5,,,59,0
106942,note_on,46,0,9,,,,,,,,8,,,79,0
106942,note_on,94,0,7,,,,,,,,6,,,71,0
106942,note_on,94,0,2,,,,,,,,1,,,44,0
106942,note_on,46,0,10,,,,,,,,10,,,76,0
106942,note_on,94,0,5,,,,,,,,4,,,74,0
106944,note_on,2,0,10,,,,,,,,10,,,74,92
106944,note_on,2,0,2,,,,,,,,1,,,44,110
106944,note_on,2,0,1,,,,,,,,0,,,77,110
106944,note_on,2,0,8,,,,,,,,7,,,59,110
106944,note_on,2,0,9,,,,,,,,8,,,77,92
106944,note_on,2,0,4,,,,,,,,3,,,56,110
106944,note_on,2,0,12,,,,,,,,12,,,44,92
106944,note_on,2,0,3,,,,,,,,2,,,74,110
106944,note_on,2,0,7,,,,,,,,6,,,68,110
106944,note_on,2,0,5,,,,,,,,4,,,71,110
106944,note_on,2,0,11,,,,,,,,11,,,71,92
106944,note_on,2,0,6,,,,,,,,5,,,62,110
106990,note_on,46,0,10,,,,,,,,10,,,74,0
106990,note_on,46,0,1,,,,,,,,0,,,77,0
106990,note_on,46,0,9,,,,,,,,8,,,77,0
106990,note_on,46,0,3,,,,,,,,2,,,74,0
106992,note_on,2,0,1,,,,,,,,0,,,79,110
106992,note_on,2,0,9,,,,,,,,8,,,79,92
106992,note_on,2,0,3,,,,,,,,2,,,76,110
106992,note_on,2,0,10,,,,,,,,10,,,76,92
107038,note_on,94,0,4,,,,,,,,3,,,56,0
107038,note_on,94,0,2,,,,,,,,1,,,44,0
107038,note_on,46,0,1,,,,,,,,0,,,79,0
107038,note_on,94,0,5,,,,,,,,4,,,71,0
107038,note_on,46,0,10,,,,,,,,10,,,76,0
107038,note_on,94,0,12,,,,,,,,12,,,44,0
107038,note_on,94,0,7,,,,,,,,6,,,68,0
107038,note_on,94,0,11,,,,,,,,11,,,71,0
107038,note_on,94,0,6,,,,,,,,5,,,62,0
107038,note_on,46,0,9,,,,,,,,8,,,79,0
107038,note_on,46,0,3,,,,,,,,2,,,76,0
107038,note_on,94,0,8,,,,,,,,7,,,59,0
107040,note_on,2,0,4,,,,,,,,3,,,56,110
107040,note_on,2,0,5,,,,,,,,4,,,68,110
107040,note_on,2,0,1,,,,,,,,0,,,77,110
107040,note_on,2,0,12,,,,,,,,12,,,44,92
107040,note_on,2,0,2,,,,,,,,1,,,44,110
107040,note_on,2,0,9,,,,,,,,8,,,77,92
107040,note_on,2,0,3,,,,,,,,2,,,74,110
107040,note_on,2,0,11,,,,,,,,11,,,59,92
107040,note_on,2,0,8,,,,,,,,7,,,62,110
107040,note_on,2,0,6,,,,,,,,5,,,59,110
107040,note_on,2,0,10,,,,,,,,10,,,74,92
107040,note_on,2,0,7,,,,,,,,6,,,71,110
107086,note_on,46,0,10,,,,,,,,10,,,74,0
107086,note_on,46,0,1,,,,,,,,0,,,77,0
107086,note_on,46,0,9,,,,,,,,8,,,77,0
107086,note_on,46,0,3,,,,,,,,2,,,74,0
107088,note_on,2,0,10,,,,,,,,10,,,76,92
107088,note_on,2,0,1,,,,,,,,0,,,79,110
107088,note_on,2,0,9,,,,,,,,8,,,79,92
107088,note_on,2,0,3,,,,,,,,2,,,76,110
107134,note_on,94,0,11,,,,,,,,11,,,59,0
107134,note_on,46,0,9,,,,,,,,8,,,79,0
107134,note_on,94,0,12,,,,,,,,12,,,44,0
107134,note_on,46,0,3,,,,,,,,2,,,76,0
107134,note_on,94,0,4,,,,,,,,3,,,56,0
107134,note_on,94,0,7,,,,,,,,6,,,71,0
107134,note_on,94,0,8,,,,,,,,7,,,62,0
107134,note_on,94,0,5,,,,,,,,4,,,68,0
107134,note_on,46,0,1,,,,,,,,0,,,79,0
107134,note_on,94,0,2,,,,,,,,1,,,44,0
107134,note_on,46,0,10,,,,,,,,10,,,76,0
107134,note_on,94,0,6,,,,,,,,5,,,59,0
107136,note_on,2,0,4,,,,,,,,3,,,57,110
107136,note_on,2,0,3,,,,,,,,2,,,72,110
107136,note_on,2,0,12,,,,,,,,12,,,45,92
107136,note_on,2,0,9,,,,,,,,8,,,76,92
107136,note_on,2,0,6,,,,,,,,5,,,64,110
107136,note_on,2,0,10,,,,,,,,10,,,72,92
107136,note_on,2,0,2,,,,,,,,1,,,45,110
107136,note_on,2,0,8,,,,,,,,7,,,60,110
107136,note_on,2,0,1,,,,,,,,0,,,76,110
107136,note_on,2,0,11,,,,,,,,11,,,60,92
107136,note_on,2,0,7,,,,,,,,6,,,72,110
107182,note_on,46,0,6,,,,,,,,5,,,64,0
107182,note_on,46,0,8,,,,,,,,7,,,60,0
107182,note_on,46,0,11,,,,,,,,11,,,60,0
107184,note_on,2,0,6,,,,,,,,5,,,65,110
107184,note_on,2,0,11,,,,,,,,11,,,62,92
107184,note_on,2,0,8,,,,,,,,7,,,62,110
107230,note_on,94,0,9,,,,,,,,8,,,76,0
107230,note_on,94,0,4,,,,,,,,3,,,57,0
107230,note_on,94,0,7,,,,,,,,6,,,72,0
107230,note_on,46,0,8,,,,,,,,7,,,62,0
107230,note_on,94,0,1,,,,,,,,0,,,76,0
107230,note_on,46,0,6,,,,,,,,5,,,65,0
107230,note_on,94,0,10,,,,,,,,10,,,72,0
107230,note_on,94,0,2,,,,,,,,1,,,45,0
107230,note_on,46,0,11,,,,,,,,11,,,62,0
107230,note_on,94,0,12,,,,,,,,12,,,45,0
107230,note_on,94,0,3,,,,,,,,2,,,72,0
107232,note_on,2,0,7,,,,,,,,6,,,69,110
107232,note_on,2,0,9,,,,,,,,8,,,81,92
107232,note_on,2,0,6,,,,,,,,5,,,64,110
107232,note_on,2,0,2,,,,,,,,1,,,45,110
107232,note_on,2,0,12,,,,,,,,12,,,45,92
107232,note_on,2,0,8,,,,,,,,7,,,60,110
107232,note_on,2,0,10,,,,,,,,10,,,76,92
107232,note_on,2,0,1,,,,,,,,0,,,81,110
107232,note_on,2,0,3,,,,,,,,2,,,76,110
107232,note_on,2,0,4,,,,,,,,3,,,57,110
107232,note_on,98,0,5,,,,,,,,4,,,72,110
107232,note_on,2,0,11,,,,,,,,11,,,60,92
107264,note_on,32,0,9,,,,,,,,8,,,81,0
107264,note_on,32,0,10,,,,,,,,10,,,76,0
107278,note_on,46,0,11,,,,,,,,11,,,60,0
107278,note_on,46,0,8,,,,,,,,7,,,60,0
107278,note_on,46,0,6,,,,,,,,5,,,64,0
107280,note_on,2,0,11,,,,,,,,11,,,62,92
107280,note_on,2,0,6,,,,,,,,5,,,65,110
107280,note_on,2,0,8,,,,,,,,7,,,62,110
107326,note_on,46,0,11,,,,,,,,11,,,62,0
107326,note_on,94,0,1,,,,,,,,0,,,81,0
107326,note_on,94,0,7,,,,,,,,6,,,69,0
107326,note_on,94,0,3,,,,,,,,2,,,76,0
107326,note_on,94,0,4,,,,,,,,3,,,57,0
107326,note_on,46,0,6,,,,,,,,5,,,65,0
107326,note_on,94,0,5,,,,,,,,4,,,72,0
107326,note_on,46,0,8,,,,,,,,7,,,62,0
107326,note_on,94,0,12,,,,,,,,12,,,45,0
107326,note_on,94,0,2,,,,,,,,1,,,45,0
107328,note_on,2,0,1,,,,,,,,0,,,76,110
107328,note_on,64,0,10,,,,,,,,10,,,72,92
107328,note_on,2,0,2,,,,,,,,1,,,45,110
107328,note_on,2,0,5,,,,,,,,4,,,69,110
107328,note_on,2,0,11,,,,,,,,11,,,60,92
107328,note_on,64,0,9,,,,,,,,8,,,76,92
107328,note_on,2,0,6,,,,,,,,5,,,64,110
107328,note_on,2,0,12,,,,,,,,12,,,45,92
107328,note_on,2,0,3,,,,,,,,2,,,72,110
107328,note_on,2,0,8,,,,,,,,7,,,60,110
107328,note_on,2,0,4,,,,,,,,3,,,57,110
107328,note_on,2,0,7,,,,,,,,6,,,72,110
107360,note_on,32,0,9,,,,,,,,8,,,76,0
107360,note_on,32,0,10,,,,,,,,10,,,72,0
107374,note_on,46,0,6,,,,,,,,5,,,64,0
107374,note_on,46,0,11,,,,,,,,11,,,60,0
107374,note_on,46,0,8,,,,,,,,7,,,60,0
107376,note_on,2,0,8,,,,,,,,7,,,62,110
107376,note_on,2,0,11,,,,,,,,11,,,62,92
107376,note_on,2,0,6,,,,,,,,5,,,65,110
107422,note_on,94,0,5,,,,,,,,4,,,69,0
107422,note_on,94,0,2,,,,,,,,1,,,45,0
107422,note_on,94,0,3,,,,,,,,2,,,72,0
107422,note_on,94,0,7,,,,,,,,6,,,72,0
107422,note_on,94,0,4,,,,,,,,3,,,57,0
107422,note_on,46,0,11,,,,,,,,11,,,62,0
107422,note_on,94,0,12,,,,,,,,12,,,45,0
107422,note_on,94,0,1,,,,,,,,0,,,76,0
107422,note_on,46,0,6,,,,,,,,5,,,65,0
107422,note_on,46,0,8,,,,,,,,7,,,62,0
107424,note_on,2,0,3,,,,,,,,2,,,74,110
107424,note_on,2,0,8,,,,,,,,7,,,56,110
107424,note_on,64,0,9,,,,,,,,8,,,77,92
107424,note_on,2,0,12,,,,,,,,12,,,44,92
107424,note_on,2,0,7,,,,,,,,6,,,71,110
107424,note_on,2,0,6,,,,,,,,5,,,59,110
107424,note_on,2,0,1,,,,,,,,0,,,77,110
107424,note_on,2,0,11,,,,,,,,11,,,59,92
107424,note_on,2,0,4,,,,,,,,3,,,56,110
107424,note_on,64,0,10,,,,,,,,10,,,74,92
107424,note_on,2,0,2,,,,,,,,1,,,44,110
107470,note_on,46,0,3,,,,,,,,2,,,74,0
107470,note_on,46,0,10,,,,,,,,10,,,74,0
107470,note_on,46,0,9,,,,,,,,8,,,77,0
107470,note_on,46,0,1,,,,,,,,0,,,77,0
107472,note_on,2,0,1,,,,,,,,0,,,79,110
107472,note_on,2,0,3,,,,,,,,2,,,76,110
107472,note_on,2,0,10,,,,,,,,10,,,76,92
107472,note_on,2,0,9,,,,,,,,8,,,79,92
107518,note_on,94,0,4,,,,,,,,3,,,56,0
107518,note_on,94,0,11,,,,,,,,11,,,59,0
107518,note_on,94,0,6,,,,,,,,5,,,59,0
107518,note_on,94,0,7,,,,,,,,6,,,71,0
107518,note_on,94,0,8,,,,,,,,7,,,56,0
107518,note_on,94,0,12,,,,,,,,12,,,44,0
107518,note_on,46,0,1,,,,,,,,0,,,79,0
107518,note_on,46,0,9,,,,,,,,8,,,79,0
107518,note_on,94,0,2,,,,,,,,1,,,44,0
107518,note_on,46,0,3,,,,,,,,2,,,76,0
107518,note_on,46,0,10,,,,,,,,10,,,76,0
107520,note_on,2,0,3,,,,,,,,2,,,74,110
107520,note_on,2,0,9,,,,,,,,8,,,77,92
107520,note_on,2,0,10,,,,,,,,10,,,74,92
107520,note_on,2,0,4,,,,,,,,3,,,56,110
107520,note_on,2,0,11,,,,,,,,11,,,71,92
107520,note_on,2,0,6,,,,,,,,5,,,62,110
107520,note_on,2,0,7,,,,,,,,6,,,68,110
107520,note_on,2,0,8,,,,,,,,7,,,59,110
107520,note_on,2,0,12,,,,,,,,12,,,44,92
107520,note_on,2,0,2,,,,,,,,1,,,44,110
107520,note_on,98,0,5,,,,,,,,4,,,71,110
107520,note_on,2,0,1,,,,,,,,0,,,77,110
107566,note_on,46,0,10,,,,,,,,10,,,74,0
107566,note_on,46,0,9,,,,,,,,8,,,77,0
107566,note_on,46,0,1,,,,,,,,0,,,77,0
107566,note_on,46,0,3,,,,,,,,2,,,74,0
107568,note_on,2,0,1,,,,,,,,0,,,79,110
107568,note_on,2,0,3,,,,,,,,2,,,76,110
107568,note_on,2,0,10,,,,,,,,10,,,76,92
107568,note_on,2,0,9,,,,,,,,8,,,79,92
107614,note_on,94,0,8,,,,,,,,7,,,59,0
107614,note_on,46,0,1,,,,,,,,0,,,79,0
107614,note_on,94,0,12,,,,,,,,12,,,44,0
107614,note_on,46,0,3,,,,,,,,2,,,76,0
107614,note_on,94,0,4,,,,,,,,3,,,56,0
107614,note_on,94,0,7,,,,,,,,6,,,68,0
107614,note_on,46,0,10,,,,,,,,10,,,76,0
107614,note_on,46,0,9,,,,,,,,8,,,79,0
107614,note_on,94,0,6,,,,,,,,5,,,62,0
107614,note_on,94,0,11,,,,,,,,11,,,71,0
107614,note_on,94,0,2,,,,,,,,1,,,44,0
107614,note_on,94,0,5,,,,,,,,4,,,71,0
107616,note_on,2,0,6,,,,,,,,5,,,59,110
107616,note_on,2,0,2,,,,,,,,1,,,44,110
107616,note_on,2,0,12,,,,,,,,12,,,44,92
107616,note_on,2,0,1,,,,,,,,0,,,77,110
107616,note_on,2,0,7,,,,,,,,6,,,71,110
107616,note_on,2,0,5,,,,,,,,4,,,68,110
107616,note_on,2,0,3,,,,,,,,2,,,74,110
107616,note_on,2,0,8,,,,,,,,7,,,62,110
107616,note_on,2,0,10,,,,,,,,10,,,74,92
107616,note_on,2,0,11,,,,,,,,11,,,59,92
107616,note_on,2,0,4,,,,,,,,3,,,56,110
107616,note_on,2,0,9,,,,,,,,8,,,77,92
107662,note_on,46,0,9,,,,,,,,8,,,77,0
107662,note_on,46,0,1,,,,,,,,0,,,77,0
107662,note_on,46,0,3,,,,,,,,2,,,74,0
107662,note_on,46,0,10,,,,,,,,10,,,74,0
107664,note_on,2,0,9,,,,,,,,8,,,79,92
107664,note_on,2,0,10,,,,,,,,10,,,76,92
107664,note_on,2,0,1,,,,,,,,0,,,79,110
107664,note_on,2,0,3,,,,,,,,2,,,76,110
107710,note_on,46,0,9,,,,,,,,8,,,79,0
107710,note_on,94,0,8,,,,,,,,7,,,62,0
107710,note_on,94,0,2,,,,,,,,1,,,44,0
107710,note_on,46,0,10,,,,,,,,10,,,76,0
107710,note_on,94,0,7,,,,,,,,6,,,71,0
107710,note_on,94,0,6,,,,,,,,5,,,59,0
107710,note_on,46,0,1,,,,,,,,0,,,79,0
107710,note_on,94,0,12,,,,,,,,12,,,44,0
107710,note_on,94,0,4,,,,,,,,3,,,56,0
107710,note_on,46,0,3,,,,,,,,2,,,76,0
107710,note_on,94,0,5,,,,,,,,4,,,68,0
107710,note_on,94,0,11,,,,,,,,11,,,59,0
107712,note_on,2,0,4,,,,,,,,3,,,57,110
107712,note_on,2,0,12,,,,,,,,12,,,45,92
107712,note_on,2,0,1,,,,,,,,0,,,76,110
107712,note_on,2,0,7,,,,,,,,6,,,72,110
107712,note_on,2,0,11,,,,,,,,11,,,60,92
107712,note_on,2,0,10,,,,,,,,10,,,72,92
107712,note_on,2,0,6,,,,,,,,5,,,64,110
107712,note_on,2,0,9,,,,,,,,8,,,76,92
107712,note_on,2,0,2,,,,,,,,1,,,45,110
107712,note_on,2,0,8,,,,,,,,7,,,60,110
107712,note_on,2,0,3,,,,,,,,2,,,72,110
107758,note_on,46,0,6,,,,,,,,5,,,64,0
107758,note_on,46,0,8,,,,,,,,7,,,60,0
107758,note_on,46,0,11,,,,,,,,11,,,60,0
107760,note_on,2,0,6,,,,,,,,5,,,65,110
107760,note_on,2,0,8,,,,,,,,7,,,62,110
107760,note_on,2,0,11,,,,,,,,11,,,59,92
107806,note_on,94,0,7,,,,,,,,6,,,72,0
107806,note_on,94,0,1,,,,,,,,0,,,76,0
107806,note_on,46,0,8,,,,,,,,7,,,62,0
107806,note_on,94,0,3,,,,,,,,2,,,72,0
107806,note_on,46,0,11,,,,,,,,11,,,59,0
107806,note_on,94,0,4,,,,,,,,3,,,57,0
107806,note_on,94,0,10,,,,,,,,10,,,72,0
107806,note_on,94,0,12,,,,,,,,12,,,45,0
107806,note_on,94,0,2,,,,,,,,1,,,45,0
107806,note_on,46,0,6,,,,,,,,5,,,65,0
107806,note_on,94,0,9,,,,,,,,8,,,76,0
107808,note_on,2,0,11,,,,,,,,11,,,60,92
107808,note_on,2,0,12,,,,,,,,12,,,45,92
107808,note_on,2,0,7,,,,,,,,6,,,69,110
107808,note_on,2,0,2,,,,,,,,1,,,45,110
107808,note_on,2,0,1,,,,,,,,0,,,81,110
107808,note_on,2,0,3,,,,,,,,2,,,76,110
107808,note_on,2,0,8,,,,,,,,7,,,60,110
107808,note_on,2,0,9,,,,,,,,8,,,81,92
107808,note_on,2,0,10,,,,,,,,10,,,76,92
107808,note_on,2,0,4,,,,,,,,3,,,57,110
107808,note_on,2,0,6,,,,,,,,5,,,64,110
107808,note_on,98,0,5,,,,,,,,4,,,72,110
107840,note_on,32,0,10,,,,,,,,10,,,76,0
107840,note_on,32,0,9,,,,,,,,8,,,81,0
107854,note_on,46,0,8,,,,,,,,7,,,60,0
107854,note_on,46,0,6,,,,,,,,5,,,64,0
107854,note_on,46,0,11,,,,,,,,11,,,60,0
107856,note_on,2,0,8,,,,,,,,7,,,62,110
107856,note_on,2,0,6,,,,,,,,5,,,65,110
107856,note_on,2,0,11,,,,,,,,11,,,57,92
107902,note_on,94,0,4,,,,,,,,3,,,57,0
107902,note_on,94,0,2,,,,,,,,1,,,45,0
107902,note_on,46,0,11,,,,,,,,11,,,57,0
107902,note_on,94,0,12,,,,,,,,12,,,45,0
107902,note_on,94,0,3,,,,,,,,2,,,76,0
107902,note_on,94,0,7,,,,,,,,6,,,69,0
107902,note_on,94,0,1,,,,,,,,0,,,81,0
107902,note_on,46,0,6,,,,,,,,5,,,65,0
107902,note_on,46,0,8,,,,,,,,7,,,62,0
107902,note_on,94,0,5,,,,,,,,4,,,72,0
107904,note_on,2,0,7,,,,,,,,6,,,72,110
107904,note_on,2,0,2,,,,,,,,1,,,45,110
107904,note_on,2,0,8,,,,,,,,7,,,60,110
107904,note_on,2,0,5,,,,,,,,4,,,69,110
107904,note_on,2,0,6,,,,,,,,5,,,64,110
107904,note_on,2,0,1,,,,,,,,0,,,76,110
107904,note_on,2,0,11,,,,,,,,11,,,64,92
107904,note_on,2,0,4,,,,,,,,3,,,57,110
107904,note_on,64,0,9,,,,,,,,8,,,69,92
107904,note_on,2,0,3,,,,,,,,2,,,72,110
107904,note_on,2,0,12,,,,,,,,12,,,45,92
107904,note_on,64,0,10,,,,,,,,10,,,72,92
107950,note_on,46,0,6,,,,,,,,5,,,64,0
107950,note_on,46,0,11,,,,,,,,11,,,64,0
107950,note_on,46,0,8,,,,,,,,7,,,60,0
107952,note_on,2,0,8,,,,,,,,7,,,64,110
107952,note_on,2,0,6,,,,,,,,5,,,65,110
107952,note_on,2,0,11,,,,,,,,11,,,60,92
107998,note_on,46,0,6,,,,,,,,5,,,65,0
107998,note_on,46,0,11,,,,,,,,11,,,60,0
107998,note_on,94,0,12,,,,,,,,12,,,45,0
107998,note_on,94,0,1,,,,,,,,0,,,76,0
107998,note_on,94,0,9,,,,,,,,8,,,69,0
107998,note_on,94,0,3,,,,,,,,2,,,72,0
107998,note_on,94,0,2,,,,,,,,1,,,45,0
107998,note_on,46,0,8,,,,,,,,7,,,64,0
107998,note_on,94,0,10,,,,,,,,10,,,72,0
107998,note_on,94,0,4,,,,,,,,3,,,57,0
107998,note_on,94,0,5,,,,,,,,4,,,69,0
107998,note_on,94,0,7,,,,,,,,6,,,72,0
108000,note_on,2,0,3,,,,,,,,2,,,78,110
108000,note_on,2,0,4,,,,,,,,3,,,51,110
108000,note_on,2,0,2,,,,,,,,1,,,39,110
108000,note_on,2,0,7,,,,,,,,6,,,69,110
108000,note_on,2,0,11,,,,,,,,11,,,66,92
108000,note_on,2,0,9,,,,,,,,8,,,72,92
108000,note_on,2,0,8,,,,,,,,7,,,66,110
108000,note_on,2,0,10,,,,,,,,10,,,69,92
108000,note_on,2,0,6,,,,,,,,5,,,69,110
108000,note_on,2,0,12,,,,,,,,12,,,39,92
108000,note_on,2,0,5,,,,,,,,4,,,72,110
108046,note_on,46,0,10,,,,,,,,10,,,69,0
108046,note_on,46,0,9,,,,,,,,8,,,72,0
108046,note_on,46,0,7,,,,,,,,6,,,69,0
108046,note_on,46,0,5,,,,,,,,4,,,72,0
108048,note_on,2,0,5,,,,,,,,4,,,74,110
108048,note_on,2,0,7,,,,,,,,6,,,71,110
108048,note_on,2,0,9,,,,,,,,8,,,74,92
108048,note_on,2,0,10,,,,,,,,10,,,71,92
108094,note_on,94,0,2,,,,,,,,1,,,39,0
108094,note_on,94,0,4,,,,,,,,3,,,51,0
108094,note_on,46,0,7,,,,,,,,6,,,71,0
108094,note_on,46,0,10,,,,,,,,10,,,71,0
108094,note_on,94,0,8,,,,,,,,7,,,66,0
108094,note_on,94,0,6,,,,,,,,5,,,69,0
108094,note_on,46,0,9,,,,,,,,8,,,74,0
108094,note_on,94,0,11,,,,,,,,11,,,66,0
108094,note_on,46,0,5,,,,,,,,4,,,74,0
108094,note_on,94,0,3,,,,,,,,2,,,78,0
108094,note_on,94,0,12,,,,,,,,12,,,39,0
108096,note_on,2,0,3,,,,,,,,2,,,75,110
108096,note_on,2,0,10,,,,,,,,10,,,69,92
108096,note_on,2,0,6,,,,,,,,5,,,57,110
108096,note_on,2,0,7,,,,,,,,6,,,69,110
108096,note_on,2,0,2,,,,,,,,1,,,39,110
108096,note_on,2,0,11,,,,,,,,11,,,54,92
108096,note_on,2,0,12,,,,,,,,12,,,39,92
108096,note_on,2,0,5,,,,,,,,4,,,72,110
108096,note_on,98,0,1,,,,,,,,0,,,78,110
108096,note_on,2,0,8,,,,,,,,7,,,57,110
108096,note_on,2,0,4,,,,,,,,3,,,51,110
108096,note_on,2,0,9,,,,,,,,8,,,72,92
108142,note_on,46,0,9,,,,,,,,8,,,72,0
108142,note_on,46,0,5,,,,,,,,4,,,72,0
108142,note_on,46,0,10,,,,,,,,10,,,69,0
108142,note_on,46,0,7,,,,,,,,6,,,69,0
108144,note_on,2,0,5,,,,,,,,4,,,74,110
108144,note_on,2,0,10,,,,,,,,10,,,71,92
108144,note_on,2,0,9,,,,,,,,8,,,74,92
108144,note_on,2,0,7,,,,,,,,6,,,71,110
108190,note_on,94,0,12,,,,,,,,12,,,39,0
108190,note_on,94,0,8,,,,,,,,7,,,57,0
108190,note_on,94,0,3,,,,,,,,2,,,75,0
108190,note_on,46,0,5,,,,,,,,4,,,74,0
108190,note_on,94,0,1,,,,,,,,0,,,78,0
108190,note_on,94,0,11,,,,,,,,11,,,54,0
108190,note_on,94,0,6,,,,,,,,5,,,57,0
108190,note_on,94,0,4,,,,,,,,3,,,51,0
108190,note_on,46,0,9,,,,,,,,8,,,74,0
108190,note_on,94,0,2,,,,,,,,1,,,39,0
108190,note_on,46,0,10,,,,,,,,10,,,71,0
108190,note_on,46,0,7,,,,,,,,6,,,71,0
108192,note_on,2,0,7,,,,,,,,6,,,69,110
108192,note_on,2,0,2,,,,,,,,1,,,39,110
108192,note_on,2,0,8,,,,,,,,7,,,66,110
108192,note_on,2,0,3,,,,,,,,2,,,78,110
108192,note_on,2,0,1,,,,,,,,0,,,75,110
108192,note_on,2,0,12,,,,,,,,12,,,39,92
108192,note_on,2,0,9,,,,,,,,8,,,72,92
108192,note_on,2,0,5,,,,,,,,4,,,72,110
108192,note_on,2,0,11,,,,,,,,11,,,66,92
108192,note_on,2,0,10,,,,,,,,10,,,69,92
108192,note_on,2,0,4,,,,,,,,3,,,51,110
108192,note_on,2,0,6,,,,,,,,5,,,63,110
108238,note_on,46,0,9,,,,,,,,8,,,72,0
108238,note_on,46,0,10,,,,,,,,10,,,69,0
108238,note_on,46,0,5,,,,,,,,4,,,72,0
108238,note_on,46,0,7,,,,,,,,6,,,69,0
108240,note_on,2,0,7,,,,,,,,6,,,71,110
108240,note_on,2,0,10,,,,,,,,10,,,71,92
108240,note_on,2,0,9,,,,,,,,8,,,74,92
108240,note_on,2,0,5,,,,,,,,4,,,74,110
108286,note_on,46,0,9,,,,,,,,8,,,74,0
108286,note_on,94,0,4,,,,,,,,3,,,51,0
108286,note_on,94,0,8,,,,,,,,7,,,66,0
108286,note_on,94,0,1,,,,,,,,0,,,75,0
108286,note_on,94,0,3,,,,,,,,2,,,78,0
108286,note_on,94,0,11,,,,,,,,11,,,66,0
108286,note_on,94,0,6,,,,,,,,5,,,63,0
108286,note_on,46,0,5,,,,,,,,4,,,74,0
108286,note_on,94,0,2,,,,,,,,1,,,39,0
108286,note_on,94,0,12,,,,,,,,12,,,39,0
108286,note_on,46,0,10,,,,,,,,10,,,71,0
108286,note_on,46,0,7,,,,,,,,6,,,71,0
108288,note_on,2,0,12,,,,,,,,12,,,40,92
108288,note_on,2,0,10,,,,,,,,10,,,68,92
108288,note_on,2,0,7,,,,,,,,6,,,68,110
108288,note_on,2,0,9,,,,,,,,8,,,71,92
108288,note_on,2,0,2,,,,,,,,1,,,40,110
108288,note_on,2,0,4,,,,,,,,3,,,52,110
108288,note_on,2,0,3,,,,,,,,2,,,80,110
108288,note_on,2,0,8,,,,,,,,7,,,59,110
108288,note_on,2,0,6,,,,,,,,5,,,68,110
108288,note_on,2,0,11,,,,,,,,11,,,68,92
108288,note_on,2,0,5,,,,,,,,4,,,71,110
108334,note_on,46,0,8,,,,,,,,7,,,59,0
108334,note_on,46,0,6,,,,,,,,5,,,68,0
108334,note_on,46,0,11,,,,,,,,11,,,68,0
108336,note_on,2,0,8,,,,,,,,7,,,60,110
108336,note_on,2,0,11,,,,,,,,11,,,69,92
108336,note_on,2,0,6,,,,,,,,5,,,69,110
108382,note_on,46,0,8,,,,,,,,7,,,60,0
108382,note_on,94,0,12,,,,,,,,12,,,40,0
108382,note_on,46,0,11,,,,,,,,11,,,69,0
108382,note_on,94,0,5,,,,,,,,4,,,71,0
108382,note_on,94,0,3,,,,,,,,2,,,80,0
108382,note_on,94,0,2,,,,,,,,1,,,40,0
108382,note_on,94,0,9,,,,,,,,8,,,71,0
108382,note_on,94,0,7,,,,,,,,6,,,68,0
108382,note_on,94,0,4,,,,,,,,3,,,52,0
108382,note_on,46,0,6,,,,,,,,5,,,69,0
108382,note_on,94,0,10,,,,,,,,10,,,68,0
108384,note_on,2,0,5,,,,,,,,4,,,76,110
108384,note_on,2,0,8,,,,,,,,7,,,59,110
108384,note_on,2,0,9,,,,,,,,8,,,76,92
108384,note_on,2,0,12,,,,,,,,12,,,40,92
108384,note_on,2,0,11,,,,,,,,11,,,68,92
108384,note_on,2,0,6,,,,,,,,5,,,68,110
108384,note_on,2,0,2,,,,,,,,1,,,40,110
108384,note_on,2,0,10,,,,,,,,10,,,71,92
108384,note_on,2,0,4,,,,,,,,3,,,52,110
108384,note_on,2,0,7,,,,,,,,6,,,71,110
108384,note_on,98,0,1,,,,,,,,0,,,80,110
108384,note_on,2,0,3,,,,,,,,2,,,76,110
108416,note_on,32,0,9,,,,,,,,8,,,76,0
108416,note_on,32,0,10,,,,,,,,10,,,71,0
108430,note_on,46,0,8,,,,,,,,7,,,59,0
108430,note_on,46,0,11,,,,,,,,11,,,68,0
108430,note_on,46,0,6,,,,,,,,5,,,68,0
108432,note_on,2,0,11,,,,,,,,11,,,69,92
108432,note_on,2,0,6,,,,,,,,5,,,69,110
108432,note_on,2,0,8,,,,,,,,7,,,60,110
108478,note_on,46,0,8,,,,,,,,7,,,60,0
108478,note_on,94,0,12,,,,,,,,12,,,40,0
108478,note_on,46,0,11,,,,,,,,11,,,69,0
108478,note_on,46,0,6,,,,,,,,5,,,69,0
108478,note_on,94,0,7,,,,,,,,6,,,71,0
108478,note_on,94,0,5,,,,,,,,4,,,76,0
108478,note_on,94,0,2,,,,,,,,1,,,40,0
108478,note_on,94,0,1,,,,,,,,0,,,80,0
108478,note_on,94,0,3,,,,,,,,2,,,76,0
108478,note_on,94,0,4,,,,,,,,3,,,52,0
108480,note_on,2,0,5,,,,,,,,4,,,71,110
108480,note_on,2,0,2,,,,,,,,1,,,40,110
108480,note_on,2,0,12,,,,,,,,12,,,40,92
108480,note_on,2,0,4,,,,,,,,3,,,52,110
108480,note_on,2,0,11,,,,,,,,11,,,68,92
108480,note_on,2,0,7,,,,,,,,6,,,68,110
108480,note_on,64,0,10,,,,,,,,10,,,68,92
108480,note_on,2,0,6,,,,,,,,5,,,68,110
108480,note_on,64,0,9,,,,,,,,8,,,71,92
108480,note_on,2,0,1,,,,,,,,0,,,76,110
108480,note_on,2,0,3,,,,,,,,2,,,80,110
108480,note_on,2,0,8,,,,,,,,7,,,59,110
108512,note_on,32,0,10,,,,,,,,10,,,68,0
108512,note_on,32,0,9,,,,,,,,8,,,71,0
108526,note_on,46,0,11,,,,,,,,11,,,68,0
108526,note_on,46,0,6,,,,,,,,5,,,68,0
108526,note_on,46,0,8,,,,,,,,7,,,59,0
108528,note_on,2,0,6,,,,,,,,5,,,69,110
108528,note_on,2,0,11,,,,,,,,11,,,69,92
108528,note_on,2,0,8,,,,,,,,7,,,60,110
108574,note_on,94,0,3,,,,,,,,2,,,80,0
108574,note_on,46,0,8,,,,,,,,7,,,60,0
108574,note_on,46,0,11,,,,,,,,11,,,69,0
108574,note_on,94,0,4,,,,,,,,3,,,52,0
108574,note_on,94,0,5,,,,,,,,4,,,71,0
108574,note_on,94,0,12,,,,,,,,12,,,40,0
108574,note_on,94,0,1,,,,,,,,0,,,76,0
108574,note_on,94,0,7,,,,,,,,6,,,68,0
108574,note_on,46,0,6,,,,,,,,5,,,69,0
108574,note_on,94,0,2,,,,,,,,1,,,40,0
108576,note_on,64,0,9,,,,,,,,8,,,72,92
108576,note_on,2,0,8,,,,,,,,7,,,54,110
108576,note_on,2,0,5,,,,,,,,4,,,72,110
108576,note_on,2,0,6,,,,,,,,5,,,57,110
108576,note_on,2,0,12,,,,,,,,12,,,39,92
108576,note_on,64,0,10,,,,,,,,10,,,69,92
108576,note_on,2,0,3,,,,,,,,2,,,78,110
108576,note_on,2,0,4,,,,,,,,3,,,51,110
108576,note_on,2,0,7,,,,,,,,6,,,69,110
108576,note_on,2,0,2,,,,,,,,1,,,39,110
108576,note_on,2,0,11,,,,,,,,11,,,66,92
108622,note_on,46,0,9,,,,,,,,8,,,72,0
108622,note_on,46,0,10,,,,,,,,10,,,69,0
108622,note_on,46,0,7,,,,,,,,6,,,69,0
108622,note_on,46,0,5,,,,,,,,4,,,72,0
108624,note_on,2,0,5,,,,,,,,4,,,74,110
108624,note_on,2,0,9,,,,,,,,8,,,74,92
108624,note_on,2,0,10,,,,,,,,10,,,71,92
108624,note_on,2,0,7,,,,,,,,6,,,71,110
108670,note_on,46,0,5,,,,,,,,4,,,74,0
108670,note_on,94,0,12,,,,,,,,12,,,39,0
108670,note_on,94,0,3,,,,,,,,2,,,78,0
108670,note_on,46,0,7,,,,,,,,6,,,71,0
108670,note_on,94,0,6,,,,,,,,5,,,57,0
108670,note_on,94,0,8,,,,,,,,7,,,54,0
108670,note_on,94,0,2,,,,,,,,1,,,39,0
108670,note_on,94,0,4,,,,,,,,3,,,51,0
108670,note_on,94,0,11,,,,,,,,11,,,66,0
108670,note_on,46,0,10,,,,,,,,10,,,71,0
108670,note_on,46,0,9,,,,,,,,8,,,74,0
108672,note_on,2,0,6,,,,,,,,5,,,69,110
108672,note_on,2,0,12,,,,,,,,12,,,39,92
108672,note_on,2,0,11,,,,,,,,11,,,54,92
108672,note_on,2,0,3,,,,,,,,2,,,75,110
108672,note_on,2,0,2,,,,,,,,1,,,39,110
108672,note_on,2,0,8,,,,,,,,7,,,57,110
108672,note_on,2,0,5,,,,,,,,4,,,72,110
108672,note_on,2,0,4,,,,,,,,3,,,51,110
108672,note_on,2,0,7,,,,,,,,6,,,69,110
108672,note_on,2,0,9,,,,,,,,8,,,72,92
108672,note_on,2,0,10,,,,,,,,10,,,69,92
108672,note_on,98,0,1,,,,,,,,0,,,78,110
108718,note_on,46,0,5,,,,,,,,4,,,72,0
108718,note_on,46,0,10,,,,,,,,10,,,69,0
108718,note_on,46,0,9,,,,,,,,8,,,72,0
108718,note_on,46,0,7,,,,,,,,6,,,69,0
108720,note_on,2,0,7,,,,,,,,6,,,71,110
108720,note_on,2,0,10,,,,,,,,10,,,71,92
108720,note_on,2,0,9,,,,,,,,8,,,74,92
108720,note_on,2,0,5,,,,,,,,4,,,74,110
108766,note_on,94,0,3,,,,,,,,2,,,75,0
108766,note_on,46,0,7,,,,,,,,6,,,71,0
108766,note_on,94,0,12,,,,,,,,12,,,39,0
108766,note_on,46,0,9,,,,,,,,8,,,74,0
108766,note_on,94,0,8,,,,,,,,7,,,57,0
108766,note_on,94,0,11,,,,,,,,11,,,54,0
108766,note_on,94,0,6,,,,,,,,5,,,69,0
108766,note_on,46,0,5,,,,,,,,4,,,74,0
108766,note_on,94,0,1,,,,,,,,0,,,78,0
108766,note_on,94,0,2,,,,,,,,1,,,39,0
108766,note_on,94,0,4,,,,,,,,3,,,51,0
108766,note_on,46,0,10,,,,,,,,10,,,71,0
108768,note_on,2,0,10,,,,,,,,10,,,69,92
108768,note_on,2,0,8,,,,,,,,7,,,63,110
108768,note_on,2,0,5,,,,,,,,4,,,72,110
108768,note_on,2,0,4,,,,,,,,3,,,51,110
108768,note_on,2,0,12,,,,,,,,12,,,39,92
108768,note_on,2,0,3,,,,,,,,2,,,78,110
108768,note_on,2,0,11,,,,,,,,11,,,66,92
108768,note_on,2,0,1,,,,,,,,0,,,75,110
108768,note_on,2,0,9,,,,,,,,8,,,72,92
108768,note_on,2,0,6,,,,,,,,5,,,57,110
108768,note_on,2,0,7,,,,,,,,6,,,69,110
108768,note_on,2,0,2,,,,,,,,1,,,39,110
108814,note_on,46,0,5,,,,,,,,4,,,72,0
108814,note_on,46,0,7,,,,,,,,6,,,69,0
108814,note_on,46,0,9,,,,,,,,8,,,72,0
108814,note_on,46,0,10,,,,,,,,10,,,69,0
108816,note_on,2,0,10,,,,,,,,10,,,71,92
108816,note_on,2,0,7,,,,,,,,6,,,71,110
108816,note_on,2,0,9,,,,,,,,8,,,74,92
108816,note_on,2,0,5,,,,,,,,4,,,74,110
108862,note_on,94,0,2,,,,,,,,1,,,39,0
108862,note_on,46,0,10,,,,,,,,10,,,71,0
108862,note_on,94,0,4,,,,,,,,3,,,51,0
108862,note_on,94,0,8,,,,,,,,7,,,63,0
108862,note_on,94,0,11,,,,,,,,11,,,66,0
108862,note_on,94,0,3,,,,,,,,2,,,78,0
108862,note_on,46,0,9,,,,,,,,8,,,74,0
108862,note_on,46,0,7,,,,,,,,6,,,71,0
108862,note_on,94,0,6,,,,,,,,5,,,57,0
108862,note_on,94,0,1,,,,,,,,0,,,75,0
108862,note_on,94,0,12,,,,,,,,12,,,39,0
108862,note_on,46,0,5,,,,,,,,4,,,74,0
108864,note_on,2,0,5,,,,,,,,4,,,71,110
108864,note_on,2,0,8,,,,,,,,7,,,59,110
108864,note_on,2,0,2,,,,,,,,1,,,40,110
108864,note_on,2,0,11,,,,,,,,11,,,59,92
108864,note_on,2,0,7,,,,,,,,6,,,68,110
108864,note_on,2,0,10,,,,,,,,10,,,68,92
108864,note_on,2,0,12,,,,,,,,12,,,40,92
108864,note_on,2,0,6,,,,,,,,5,,,64,110
108864,note_on,2,0,9,,,,,,,,8,,,71,92
108864,note_on,2,0,4,,,,,,,,3,,,52,110
108864,note_on,2,0,3,,,,,,,,2,,,80,110
108958,note_on,94,0,7,,,,,,,,6,,,68,0
108958,note_on,94,0,5,,,,,,,,4,,,71,0
108958,note_on,94,0,3,,,,,,,,2,,,80,0
108960,note_on,98,0,1,,,,,,,,0,,,80,110
108960,note_on,2,0,3,,,,,,,,2,,,76,110
108960,note_on,2,0,5,,,,,,,,4,,,76,110
108960,note_on,2,0,7,,,,,,,,6,,,71,110
109024,note_on,160,0,10,,,,,,,,10,,,68,0
109024,note_on,160,0,4,,,,,,,,3,,,52,0
109024,note_on,160,0,2,,,,,,,,1,,,40,0
109024,note_on,160,0,12,,,,,,,,12,,,40,0
109024,note_on,160,0,6,,,,,,,,5,,,64,0
109024,note_on,160,0,9,,,,,,,,8,,,71,0
109024,note_on,160,0,11,,,,,,,,11,,,59,0
109024,note_on,160,0,8,,,,,,,,7,,,59,0
109054,note_on,94,0,3,,,,,,,,2,,,76,0
109054,note_on,94,0,1,,,,,,,,0,,,80,0
109054,note_on,94,0,7,,,,,,,,6,,,71,0
109054,note_on,94,0,5,,,,,,,,4,,,76,0
109056,note_on,2,0,7,,,,,,,,6,,,68,110
109056,note_on,2,0,1,,,,,,,,0,,,76,110
109056,note_on,2,0,5,,,,,,,,4,,,71,110
109150,note_on,94,0,1,,,,,,,,0,,,76,0
109150,note_on,94,0,5,,,,,,,,4,,,71,0
109150,note_on,94,0,7,,,,,,,,6,,,68,0
109152,note_on,128,0,9,,,,,,,,8,,,76,92
109152,note_on,128,0,8,,,,,,,,7,,,71,110
109152,note_on,98,0,3,,,,,,,,2,,,76,110
109152,note_on,128,0,11,,,,,,,,11,,,68,92
109152,note_on,128,0,4,,,,,,,,3,,,52,110
109152,note_on,128,0,10,,,,,,,,10,,,71,92
109152,note_on,128,0,12,,,,,,,,12,,,40,92
109152,note_on,2,0,7,,,,,,,,6,,,80,110
109152,note_on,128,0,2,,,,,,,,1,,,40,110
109246,note_on,94,0,8,,,,,,,,7,,,71,0
109246,note_on,94,0,7,,,,,,,,6,,,80,0
109246,note_on,94,0,3,,,,,,,,2,,,76,0
109248,note_on,224,0,6,,,,,,,,5,,,71,110
109248,note_on,2,0,8,,,,,,,,7,,,68,110
109248,note_on,2,0,7,,,,,,,,6,,,76,110
109248,note_on,98,0,1,,,,,,,,0,,,76,110
109248,note_on,2,0,3,,,,,,,,2,,,71,110
109248,note_on,98,0,5,,,,,,,,4,,,80,110
109312,note_on,160,0,12,,,,,,,,12,,,40,0
109312,note_on,160,0,11,,,,,,,,11,,,68,0
109312,note_on,160,0,4,,,,,,,,3,,,52,0
109312,note_on,160,0,9,,,,,,,,8,,,76,0
109312,note_on,160,0,10,,,,,,,,10,,,71,0
109312,note_on,160,0,2,,,,,,,,1,,,40,0
109342,note_on,94,0,3,,,,,,,,2,,,71,0
109342,note_on,94,0,8,,,,,,,,7,,,68,0
109342,note_on,94,0,1,,,,,,,,0,,,76,0
109342,note_on,94,0,7,,,,,,,,6,,,76,0
109342,note_on,94,0,6,,,,,,,,5,,,71,0
109342,note_on,94,0,5,,,,,,,,4,,,80,0
109344,note_on,2,0,1,,,,,,,,0,,,71,110
109344,note_on,2,0,6,,,,,,,,5,,,68,110
109344,note_on,2,0,5,,,,,,,,4,,,76,110
109438,note_on,94,0,6,,,,,,,,5,,,68,0
109438,note_on,94,0,5,,,,,,,,4,,,76,0
109438,note_on,94,0,1,,,,,,,,0,,,71,0
109440,note_on,128,0,4,,,,,,,,3,,,52,110
109440,note_on,98,0,3,,,,,,,,2,,,71,110
109440,note_on,128,0,9,,,,,,,,8,,,80,92
109440,note_on,98,0,8,,,,,,,,7,,,68,110
109440,note_on,128,0,10,,,,,,,,10,,,76,92
109440,note_on,2,0,5,,,,,,,,4,,,76,110
109440,note_on,128,0,2,,,,,,,,1,,,40,110
109440,note_on,98,0,7,,,,,,,,6,,,76,110
109440,note_on,128,0,11,,,,,,,,11,,,71,92
109440,note_on,128,0,12,,,,,,,,12,,,40,92
109534,note_on,94,0,3,,,,,,,,2,,,71,0
109534,note_on,94,0,7,,,,,,,,6,,,76,0
109534,note_on,94,0,5,,,,,,,,4,,,76,0
109534,note_on,94,0,8,,,,,,,,7,,,68,0
109536,note_on,98,0,1,,,,,,,,0,,,71,110
109536,note_on,98,0,6,,,,,,,,5,,,68,110
109536,note_on,2,0,7,,,,,,,,6,,,71,110
109536,note_on,2,0,3,,,,,,,,2,,,68,110
109536,note_on,2,0,8,,,,,,,,7,,,64,110
109536,note_on,2,0,5,,,,,,,,4,,,71,110
109600,note_on,160,0,10,,,,,,,,10,,,76,0
109600,note_on,160,0,2,,,,,,,,1,,,40,0
109600,note_on,160,0,11,,,,,,,,11,,,71,0
109600,note_on,160,0,4,,,,,,,,3,,,52,0
109600,note_on,160,0,9,,,,,,,,8,,,80,0
109600,note_on,160,0,12,,,,,,,,12,,,40,0
109630,note_on,94,0,7,,,,,,,,6,,,71,0
109630,note_on,94,0,8,,,,,,,,7,,,64,0
109630,note_on,94,0,1,,,,,,,,0,,,71,0
109630,note_on,94,0,3,,,,,,,,2,,,68,0
109630,note_on,94,0,6,,,,,,,,5,,,68,0
109630,note_on,94,0,5,,,,,,,,4,,,71,0
109632,note_on,2,0,6,,,,,,,,5,,,64,110
109632,note_on,2,0,1,,,,,,,,0,,,68,110
109726,note_on,94,0,6,,,,,,,,5,,,64,0
109726,note_on,94,0,1,,,,,,,,0,,,68,0
109728,note_on,98,0,3,,,,,,,,2,,,68,110
109728,note_on,128,0,4,,,,,,,,3,,,52,110
109728,note_on,128,0,10,,,,,,,,10,,,80,92
109728,note_on,128,0,11,,,,,,,,11,,,76,92
109728,note_on,98,0,7,,,,,,,,6,,,71,110
109728,note_on,128,0,9,,,,,,,,8,,,83,92
109728,note_on,98,0,8,,,,,,,,7,,,64,110
109728,note_on,128,0,12,,,,,,,,12,,,40,92
109728,note_on,98,0,5,,,,,,,,4,,,71,110
109728,note_on,128,0,2,,,,,,,,1,,,40,110
109822,note_on,94,0,5,,,,,,,,4,,,71,0
109822,note_on,94,0,8,,,,,,,,7,,,64,0
109822,note_on,94,0,7,,,,,,,,6,,,71,0
109822,note_on,94,0,3,,,,,,,,2,,,68,0
109824,note_on,2,0,5,,,,,,,,4,,,68,110
109824,note_on,98,0,6,,,,,,,,5,,,64,110
109824,note_on,2,0,7,,,,,,,,6,,,68,110
109824,note_on,2,0,8,,,,,,,,7,,,59,110
109824,note_on,2,0,3,,,,,,,,2,,,64,110
109824,note_on,98,0,1,,,,,,,,0,,,68,110
109888,note_on,160,0,12,,,,,,,,12,,,40,0
109888,note_on,160,0,11,,,,,,,,11,,,76,0
109888,note_on,160,0,4,,,,,,,,3,,,52,0
109888,note_on,160,0,9,,,,,,,,8,,,83,0
109888,note_on,160,0,2,,,,,,,,1,,,40,0
109888,note_on,160,0,10,,,,,,,,10,,,80,0
109918,note_on,94,0,7,,,,,,,,6,,,68,0
109918,note_on,94,0,5,,,,,,,,4,,,68,0
109918,note_on,94,0,1,,,,,,,,0,,,68,0
109918,note_on,94,0,8,,,,,,,,7,,,59,0
109918,note_on,94,0,3,,,,,,,,2,,,64,0
109918,note_on,94,0,6,,,,,,,,5,,,64,0
109920,note_on,2,0,1,,,,,,,,0,,,64,110
109920,note_on,2,0,6,,,,,,,,5,,,59,110
110014,note_on,94,0,6,,,,,,,,5,,,59,0
110014,note_on,94,0,1,,,,,,,,0,,,64,0
110016,note_on,128,0,11,,,,,,,,11,,,71,92
110016,note_on,128,0,12,,,,,,,,12,,,40,92
110016,note_on,98,0,7,,,,,,,,6,,,68,110
110016,note_on,98,0,8,,,,,,,,7,,,59,110
110016,note_on,128,0,4,,,,,,,,3,,,52,110
110016,note_on,128,0,2,,,,,,,,1,,,40,110
110016,note_on,128,0,10,,,,,,,,10,,,80,92
110016,note_on,128,0,9,,,,,,,,8,,,88,92
110110,note_on,94,0,7,,,,,,,,6,,,68,0
110110,note_on,94,0,8,,,,,,,,7,,,59,0
110112,note_on,2,0,7,,,,,,,,6,,,64,110
110112,note_on,194,0,5,,,,,,,,4,,,68,110
110112,note_on,98,0,6,,,,,,,,5,,,59,110
110112,note_on,2,0,8,,,,,,,,7,,,56,110
110176,note_on,160,0,12,,,,,,,,12,,,40,0
110176,note_on,160,0,11,,,,,,,,11,,,71,0
110176,note_on,160,0,10,,,,,,,,10,,,80,0
110176,note_on,160,0,2,,,,,,,,1,,,40,0
110176,note_on,160,0,9,,,,,,,,8,,,88,0
110206,note_on,94,0,5,,,,,,,,4,,,68,0
110206,note_on,94,0,8,,,,,,,,7,,,56,0
110206,note_on,94,0,7,,,,,,,,6,,,64,0
110206,note_on,94,0,6,,,,,,,,5,,,59,0
110208,note_on,2,0,6,,,,,,,,5,,,56,110
110208,note_on,2,0,5,,,,,,,,4,,,64,110
110272,note_on,256,0,4,,,,,,,,3,,,52,0
110302,note_on,94,0,6,,,,,,,,5,,,56,0
110302,note_on,94,0,5,,,,,,,,4,,,64,0
110304,note_on,128,0,10,,,,,,,,10,,,68,92
110304,note_on,2,0,6,,,,,,,,5,,,52,110
110304,note_on,386,0,3,,,,,,,,2,,,69,110
110304,note_on,98,0,8,,,,,,,,7,,,52,110
110304,note_on,98,0,7,,,,,,,,6,,,69,110
110304,note_on,128,0,12,,,,,,,,12,,,52,92
110304,note_on,32,0,4,,,,,,,,3,,,64,110
110304,note_on,128,0,9,,,,,,,,8,,,71,92
110304,note_on,290,0,1,,,,,,,,0,,,72,110
110304,note_on,2,0,5,,,,,,,,4,,,72,110
110304,note_on,128,0,2,,,,,,,,1,,,64,110
110304,note_on,128,0,11,,,,,,,,11,,,64,92
110326,note_on,22,0,7,,,,,,,,6,,,69,0
110326,note_on,22,0,1,,,,,,,,0,,,72,0
110326,note_on,22,0,5,,,,,,,,4,,,72,0
110326,note_on,22,0,3,,,,,,,,2,,,69,0
110328,note_on,2,0,1,,,,,,,,0,,,71,110
110328,note_on,2,0,5,,,,,,,,4,,,71,110
110328,note_on,2,0,7,,,,,,,,6,,,68,110
110328,note_on,2,0,3,,,,,,,,2,,,68,110
110350,note_on,22,0,5,,,,,,,,4,,,71,0
110350,note_on,46,0,4,,,,,,,,3,,,64,0
110350,note_on,22,0,3,,,,,,,,2,,,68,0
110350,note_on,22,0,7,,,,,,,,6,,,68,0
110350,note_on,22,0,1,,,,,,,,0,,,71,0
110350,note_on,46,0,2,,,,,,,,1,,,64,0
110352,note_on,2,0,2,,,,,,,,1,,,62,110
110352,note_on,2,0,1,,,,,,,,0,,,72,110
110352,note_on,2,0,4,,,,,,,,3,,,65,110
110352,note_on,2,0,3,,,,,,,,2,,,69,110
110352,note_on,2,0,5,,,,,,,,4,,,72,110
110352,note_on,2,0,7,,,,,,,,6,,,69,110
110374,note_on,22,0,5,,,,,,,,4,,,72,0
110374,note_on,22,0,7,,,,,,,,6,,,69,0
110374,note_on,22,0,1,,,,,,,,0,,,72,0
110374,note_on,22,0,3,,,,,,,,2,,,69,0
110376,note_on,2,0,7,,,,,,,,6,,,68,110
110376,note_on,2,0,1,,,,,,,,0,,,71,110
110376,note_on,2,0,5,,,,,,,,4,,,71,110
110376,note_on,2,0,3,,,,,,,,2,,,68,110
110398,note_on,22,0,3,,,,,,,,2,,,68,0
110398,note_on,94,0,12,,,,,,,,12,,,52,0
110398,note_on,22,0,1,,,,,,,,0,,,71,0
110398,note_on,46,0,4,,,,,,,,3,,,65,0
110398,note_on,22,0,5,,,,,,,,4,,,71,0
110398,note_on,22,0,7,,,,,,,,6,,,68,0
110398,note_on,94,0,11,,,,,,,,11,,,64,0
110398,note_on,94,0,6,,,,,,,,5,,,52,0
110398,note_on,46,0,2,,,,,,,,1,,,62,0
110398,note_on,94,0,8,,,,,,,,7,,,52,0
110400,note_on,2,0,8,,,,,,,,7,,,52,110
110400,note_on,2,0,1,,,,,,,,0,,,72,110
110400,note_on,2,0,11,,,,,,,,11,,,64,92
110400,note_on,2,0,6,,,,,,,,5,,,52,110
110400,note_on,2,0,3,,,,,,,,2,,,69,110
110400,note_on,2,0,5,,,,,,,,4,,,72,110
110400,note_on,2,0,2,,,,,,,,1,,,64,110
110400,note_on,2,0,4,,,,,,,,3,,,64,110
110400,note_on,2,0,12,,,,,,,,12,,,52,92
110400,note_on,2,0,7,,,,,,,,6,,,69,110
110422,note_on,22,0,7,,,,,,,,6,,,69,0
110422,note_on,22,0,5,,,,,,,,4,,,72,0
110422,note_on,22,0,3,,,,,,,,2,,,69,0
110422,note_on,22,0,1,,,,,,,,0,,,72,0
110424,note_on,2,0,5,,,,,,,,4,,,71,110
110424,note_on,2,0,7,,,,,,,,6,,,68,110
110424,note_on,2,0,3,,,,,,,,2,,,68,110
110424,note_on,2,0,1,,,,,,,,0,,,71,110
110446,note_on,22,0,5,,,,,,,,4,,,71,0
110446,note_on,22,0,7,,,,,,,,6,,,68,0
110446,note_on,46,0,4,,,,,,,,3,,,64,0
110446,note_on,46,0,2,,,,,,,,1,,,64,0
110446,note_on,22,0,1,,,,,,,,0,,,71,0
110446,note_on,22,0,3,,,,,,,,2,,,68,0
110448,note_on,2,0,4,,,,,,,,3,,,62,110
110448,note_on,2,0,5,,,,,,,,4,,,72,110
110448,note_on,2,0,7,,,,,,,,6,,,69,110
110448,note_on,2,0,1,,,,,,,,0,,,72,110
110448,note_on,2,0,2,,,,,,,,1,,,65,110
110448,note_on,2,0,3,,,,,,,,2,,,69,110
110470,note_on,22,0,7,,,,,,,,6,,,69,0
110470,note_on,22,0,3,,,,,,,,2,,,69,0
110470,note_on,22,0,5,,,,,,,,4,,,72,0
110470,note_on,22,0,1,,,,,,,,0,,,72,0
110472,note_on,2,0,7,,,,,,,,6,,,68,110
110472,note_on,2,0,3,,,,,,,,2,,,68,110
110472,note_on,2,0,1,,,,,,,,0,,,71,110
110472,note_on,2,0,5,,,,,,,,4,,,71,110
110494,note_on,94,0,12,,,,,,,,12,,,52,0
110494,note_on,94,0,11,,,,,,,,11,,,64,0
110494,note_on,22,0,3,,,,,,,,2,,,68,0
110494,note_on,94,0,6,,,,,,,,5,,,52,0
110494,note_on,46,0,2,,,,,,,,1,,,65,0
110494,note_on,22,0,7,,,,,,,,6,,,68,0
110494,note_on,22,0,1,,,,,,,,0,,,71,0
110494,note_on,94,0,8,,,,,,,,7,,,52,0
110494,note_on,22,0,5,,,,,,,,4,,,71,0
110494,note_on,46,0,4,,,,,,,,3,,,62,0
110496,note_on,2,0,1,,,,,,,,0,,,72,110
110496,note_on,2,0,5,,,,,,,,4,,,72,110
110496,note_on,2,0,6,,,,,,,,5,,,52,110
110496,note_on,2,0,11,,,,,,,,11,,,64,92
110496,note_on,2,0,7,,,,,,,,6,,,69,110
110496,note_on,2,0,8,,,,,,,,7,,,52,110
110496,note_on,2,0,2,,,,,,,,1,,,64,110
110496,note_on,2,0,12,,,,,,,,12,,,52,92
110496,note_on,2,0,3,,,,,,,,2,,,69,110
110496,note_on,2,0,4,,,,,,,,3,,,60,110
110518,note_on,22,0,5,,,,,,,,4,,,72,0
110518,note_on,22,0,3,,,,,,,,2,,,69,0
110518,note_on,22,0,7,,,,,,,,6,,,69,0
110518,note_on,22,0,1,,,,,,,,0,,,72,0
110520,note_on,2,0,3,,,,,,,,2,,,68,110
110520,note_on,2,0,5,,,,,,,,4,,,71,110
110520,note_on,2,0,7,,,,,,,,6,,,68,110
110520,note_on,2,0,1,,,,,,,,0,,,71,110
110542,note_on,22,0,7,,,,,,,,6,,,68,0
110542,note_on,22,0,1,,,,,,,,0,,,71,0
110542,note_on,46,0,2,,,,,,,,1,,,64,0
110542,note_on,22,0,5,,,,,,,,4,,,71,0
110542,note_on,22,0,3,,,,,,,,2,,,68,0
110542,note_on,46,0,4,,,,,,,,3,,,60,0
110544,note_on,2,0,1,,,,,,,,0,,,72,110
110544,note_on,2,0,4,,,,,,,,3,,,59,110
110544,note_on,2,0,2,,,,,,,,1,,,62,110
110544,note_on,2,0,7,,,,,,,,6,,,69,110
110544,note_on,2,0,5,,,,,,,,4,,,72,110
110544,note_on,2,0,3,,,,,,,,2,,,69,110
110560,note_on,256,0,9,,,,,,,,8,,,71,0
110560,note_on,256,0,10,,,,,,,,10,,,68,0
110566,note_on,22,0,5,,,,,,,,4,,,72,0
110566,note_on,22,0,7,,,,,,,,6,,,69,0
110566,note_on,22,0,1,,,,,,,,0,,,72,0
110566,note_on,22,0,3,,,,,,,,2,,,69,0
110568,note_on,2,0,7,,,,,,,,6,,,68,110
110568,note_on,2,0,3,,,,,,,,2,,,68,110
110568,note_on,2,0,5,,,,,,,,4,,,71,110
110568,note_on,2,0,1,,,,,,,,0,,,71,110
110590,note_on,94,0,11,,,,,,,,11,,,64,0
110590,note_on,94,0,8,,,,,,,,7,,,52,0
110590,note_on,22,0,7,,,,,,,,6,,,68,0
110590,note_on,94,0,12,,,,,,,,12,,,52,0
110590,note_on,94,0,6,,,,,,,,5,,,52,0
110590,note_on,46,0,4,,,,,,,,3,,,59,0
110590,note_on,22,0,5,,,,,,,,4,,,71,0
110590,note_on,22,0,1,,,,,,,,0,,,71,0
110590,note_on,46,0,2,,,,,,,,1,,,62,0
110590,note_on,22,0,3,,,,,,,,2,,,68,0
110592,note_on,2,0,1,,,,,,,,0,,,74,110
110592,note_on,32,0,9,,,,,,,,8,,,72,92
110592,note_on,32,0,10,,,,,,,,10,,,69,92
110592,note_on,2,0,2,,,,,,,,1,,,60,110
110592,note_on,2,0,7,,,,,,,,6,,,69,110
110592,note_on,2,0,3,,,,,,,,2,,,69,110
110592,note_on,2,0,4,,,,,,,,3,,,57,110
110592,note_on,2,0,6,,,,,,,,5,,,57,110
110592,note_on,2,0,5,,,,,,,,4,,,74,110
110592,note_on,2,0,12,,,,,,,,12,,,57,92
110592,note_on,2,0,11,,,,,,,,11,,,64,92
110592,note_on,2,0,8,,,,,,,,7,,,57,110
110614,note_on,22,0,1,,,,,,,,0,,,74,0
110614,note_on,22,0,5,,,,,,,,4,,,74,0
110616,note_on,2,0,1,,,,,,,,0,,,72,110
110616,note_on,2,0,5,,,,,,,,4,,,72,110
110638,note_on,46,0,2,,,,,,,,1,,,60,0
110638,note_on,46,0,4,,,,,,,,3,,,57,0
110638,note_on,22,0,5,,,,,,,,4,,,72,0
110638,note_on,22,0,1,,,,,,,,0,,,72,0
110640,note_on,2,0,2,,,,,,,,1,,,59,110
110640,note_on,2,0,5,,,,,,,,4,,,74,110
110640,note_on,2,0,4,,,,,,,,3,,,56,110
110640,note_on,2,0,1,,,,,,,,0,,,74,110
110662,note_on,22,0,1,,,,,,,,0,,,74,0
110662,note_on,22,0,5,,,,,,,,4,,,74,0
110664,note_on,2,0,5,,,,,,,,4,,,72,110
110664,note_on,2,0,1,,,,,,,,0,,,72,110
110686,note_on,94,0,3,,,,,,,,2,,,69,0
110686,note_on,94,0,11,,,,,,,,11,,,64,0
110686,note_on,46,0,2,,,,,,,,1,,,59,0
110686,note_on,94,0,7,,,,,,,,6,,,69,0
110686,note_on,94,0,12,,,,,,,,12,,,57,0
110686,note_on,22,0,5,,,,,,,,4,,,72,0
110686,note_on,94,0,6,,,,,,,,5,,,57,0
110686,note_on,94,0,8,,,,,,,,7,,,57,0
110686,note_on,22,0,1,,,,,,,,0,,,72,0
110686,note_on,46,0,4,,,,,,,,3,,,56,0
110686,note_on,94,0,10,,,,,,,,10,,,69,0
110688,note_on,2,0,3,,,,,,,,2,,,81,110
110688,note_on,2,0,11,,,,,,,,11,,,64,92
110688,note_on,2,0,8,,,,,,,,7,,,57,110
110688,note_on,2,0,12,,,,,,,,12,,,57,92
110688,note_on,2,0,5,,,,,,,,4,,,74,110
110688,note_on,2,0,7,,,,,,,,6,,,81,110
110688,note_on,2,0,10,,,,,,,,10,,,81,92
110688,note_on,2,0,1,,,,,,,,0,,,74,110
110688,note_on,2,0,6,,,,,,,,5,,,57,110
110688,note_on,2,0,4,,,,,,,,3,,,57,110
110688,note_on,2,0,2,,,,,,,,1,,,60,110
110710,note_on,22,0,1,,,,,,,,0,,,74,0
110710,note_on,22,0,5,,,,,,,,4,,,74,0
110712,note_on,2,0,5,,,,,,,,4,,,72,110
110712,note_on,2,0,1,,,,,,,,0,,,72,110
110734,note_on,46,0,2,,,,,,,,1,,,60,0
110734,note_on,22,0,1,,,,,,,,0,,,72,0
110734,note_on,22,0,5,,,,,,,,4,,,72,0
110734,note_on,46,0,4,,,,,,,,3,,,57,0
110736,note_on,2,0,2,,,,,,,,1,,,62,110
110736,note_on,2,0,1,,,,,,,,0,,,74,110
110736,note_on,2,0,5,,,,,,,,4,,,74,110
110736,note_on,2,0,4,,,,,,,,3,,,59,110
110758,note_on,22,0,1,,,,,,,,0,,,74,0
110758,note_on,22,0,5,,,,,,,,4,,,74,0
110760,note_on,2,0,1,,,,,,,,0,,,72,110
110760,note_on,2,0,5,,,,,,,,4,,,72,110
110782,note_on,94,0,12,,,,,,,,12,,,57,0
110782,note_on,94,0,6,,,,,,,,5,,,57,0
110782,note_on,94,0,10,,,,,,,,10,,,81,0
110782,note_on,22,0,5,,,,,,,,4,,,72,0
110782,note_on,22,0,1,,,,,,,,0,,,72,0
110782,note_on,46,0,4,,,,,,,,3,,,59,0
110782,note_on,94,0,11,,,,,,,,11,,,64,0
110782,note_on,46,0,2,,,,,,,,1,,,62,0
110782,note_on,94,0,8,,,,,,,,7,,,57,0
110782,note_on,94,0,3,,,,,,,,2,,,81,0
110782,note_on,94,0,7,,,,,,,,6,,,81,0
110784,note_on,2,0,3,,,,,,,,2,,,69,110
110784,note_on,2,0,1,,,,,,,,0,,,74,110
110784,note_on,2,0,6,,,,,,,,5,,,57,110
110784,note_on,2,0,7,,,,,,,,6,,,69,110
110784,note_on,2,0,10,,,,,,,,10,,,69,92
110784,note_on,2,0,8,,,,,,,,7,,,57,110
110784,note_on,2,0,2,,,,,,,,1,,,60,110
110784,note_on,2,0,12,,,,,,,,12,,,57,92
110784,note_on,2,0,4,,,,,,,,3,,,60,110
110784,note_on,2,0,11,,,,,,,,11,,,64,92
110784,note_on,2,0,5,,,,,,,,4,,,74,110
110806,note_on,22,0,5,,,,,,,,4,,,74,0
110806,note_on,22,0,1,,,,,,,,0,,,74,0
110808,note_on,2,0,5,,,,,,,,4,,,72,110
110808,note_on,2,0,1,,,,,,,,0,,,72,110
110830,note_on,46,0,2,,,,,,,,1,,,60,0
110830,note_on,22,0,5,,,,,,,,4,,,72,0
110830,note_on,46,0,4,,,,,,,,3,,,60,0
110830,note_on,22,0,1,,,,,,,,0,,,72,0
110832,note_on,2,0,4,,,,,,,,3,,,62,110
110832,note_on,2,0,1,,,,,,,,0,,,74,110
110832,note_on,2,0,5,,,,,,,,4,,,74,110
110832,note_on,2,0,2,,,,,,,,1,,,59,110
110848,note_on,256,0,9,,,,,,,,8,,,72,0
110854,note_on,22,0,5,,,,,,,,4,,,74,0
110854,note_on,22,0,1,,,,,,,,0,,,74,0
110856,note_on,2,0,1,,,,,,,,0,,,72,110
110856,note_on,2,0,5,,,,,,,,4,,,72,110
110878,note_on,22,0,5,,,,,,,,4,,,72,0
110878,note_on,94,0,10,,,,,,,,10,,,69,0
110878,note_on,46,0,2,,,,,,,,1,,,59,0
110878,note_on,94,0,11,,,,,,,,11,,,64,0
110878,note_on,22,0,1,,,,,,,,0,,,72,0
110878,note_on,94,0,3,,,,,,,,2,,,69,0
110878,note_on,94,0,8,,,,,,,,7,,,57,0
110878,note_on,46,0,4,,,,,,,,3,,,62,0
110878,note_on,94,0,6,,,,,,,,5,,,57,0
110878,note_on,94,0,7,,,,,,,,6,,,69,0
110878,note_on,94,0,12,,,,,,,,12,,,57,0
110880,note_on,2,0,2,,,,,,,,1,,,57,110
110880,note_on,2,0,8,,,,,,,,7,,,55,110
110880,note_on,2,0,4,,,,,,,,3,,,64,110
110880,note_on,2,0,10,,,,,,,,10,,,69,92
110880,note_on,2,0,1,,,,,,,,0,,,74,110
110880,note_on,2,0,7,,,,,,,,6,,,69,110
110880,note_on,2,0,6,,,,,,,,5,,,55,110
110880,note_on,2,0,12,,,,,,,,12,,,55,92
110880,note_on,2,0,3,,,,,,,,2,,,69,110
110880,note_on,2,0,11,,,,,,,,11,,,64,92
110880,note_on,2,0,5,,,,,,,,4,,,74,110
110880,note_on,32,0,9,,,,,,,,8,,,73,92
110902,note_on,22,0,1,,,,,,,,0,,,74,0
110902,note_on,22,0,5,,,,,,,,4,,,74,0
110904,note_on,2,0,5,,,,,,,,4,,,73,110
110904,note_on,2,0,1,,,,,,,,0,,,73,110
110926,note_on,46,0,2,,,,,,,,1,,,57,0
110926,note_on,22,0,5,,,,,,,,4,,,73,0
110926,note_on,46,0,4,,,,,,,,3,,,64,0
110926,note_on,22,0,1,,,,,,,,0,,,73,0
110928,note_on,2,0,1,,,,,,,,0,,,74,110
110928,note_on,2,0,4,,,,,,,,3,,,62,110
110928,note_on,2,0,2,,,,,,,,1,,,58,110
110928,note_on,2,0,5,,,,,,,,4,,,74,110
110950,note_on,22,0,1,,,,,,,,0,,,74,0
110950,note_on,22,0,5,,,,,,,,4,,,74,0
110952,note_on,2,0,1,,,,,,,,0,,,73,110
110952,note_on,2,0,5,,,,,,,,4,,,73,110
110974,note_on,94,0,3,,,,,,,,2,,,69,0
110974,note_on,46,0,2,,,,,,,,1,,,58,0
110974,note_on,94,0,8,,,,,,,,7,,,55,0
110974,note_on,22,0,5,,,,,,,,4,,,73,0
110974,note_on,22,0,1,,,,,,,,0,,,73,0
110974,note_on,46,0,4,,,,,,,,3,,,62,0
110974,note_on,94,0,12,,,,,,,,12,,,55,0
110974,note_on,94,0,6,,,,,,,,5,,,55,0
110974,note_on,94,0,7,,,,,,,,6,,,69,0
110974,note_on,94,0,10,,,,,,,,10,,,69,0
110974,note_on,94,0,11,,,,,,,,11,,,64,0
110976,note_on,2,0,12,,,,,,,,12,,,55,92
110976,note_on,2,0,6,,,,,,,,5,,,55,110
110976,note_on,2,0,7,,,,,,,,6,,,81,110
110976,note_on,2,0,4,,,,,,,,3,,,64,110
110976,note_on,2,0,2,,,,,,,,1,,,57,110
110976,note_on,2,0,3,,,,,,,,2,,,81,110
110976,note_on,2,0,8,,,,,,,,7,,,55,110
110976,note_on,2,0,10,,,,,,,,10,,,81,92
110976,note_on,2,0,5,,,,,,,,4,,,74,110
110976,note_on,2,0,1,,,,,,,,0,,,74,110
110976,note_on,2,0,11,,,,,,,,11,,,64,92
110998,note_on,22,0,1,,,,,,,,0,,,74,0
110998,note_on,22,0,5,,,,,,,,4,,,74,0
111000,note_on,2,0,1,,,,,,,,0,,,73,110
111000,note_on,2,0,5,,,,,,,,4,,,73,110
111022,note_on,22,0,1,,,,,,,,0,,,73,0
111022,note_on,46,0,4,,,,,,,,3,,,64,0
111022,note_on,22,0,5,,,,,,,,4,,,73,0
111022,note_on,46,0,2,,,,,,,,1,,,57,0
111024,note_on,2,0,2,,,,,,,,1,,,55,110
111024,note_on,2,0,5,,,,,,,,4,,,74,110
111024,note_on,2,0,4,,,,,,,,3,,,65,110
111024,note_on,2,0,1,,,,,,,,0,,,74,110
111046,note_on,22,0,1,,,,,,,,0,,,74,0
111046,note_on,22,0,5,,,,,,,,4,,,74,0
111048,note_on,2,0,1,,,,,,,,0,,,73,110
111048,note_on,2,0,5,,,,,,,,4,,,73,110
111070,note_on,94,0,10,,,,,,,,10,,,81,0
111070,note_on,46,0,4,,,,,,,,3,,,65,0
111070,note_on,22,0,5,,,,,,,,4,,,73,0
111070,note_on,94,0,7,,,,,,,,6,,,81,0
111070,note_on,94,0,6,,,,,,,,5,,,55,0
111070,note_on,94,0,12,,,,,,,,12,,,55,0
111070,note_on,94,0,11,,,,,,,,11,,,64,0
111070,note_on,94,0,3,,,,,,,,2,,,81,0
111070,note_on,22,0,1,,,,,,,,0,,,73,0
111070,note_on,46,0,2,,,,,,,,1,,,55,0
111070,note_on,94,0,8,,,,,,,,7,,,55,0
111072,note_on,2,0,12,,,,,,,,12,,,55,92
111072,note_on,2,0,10,,,,,,,,10,,,69,92
111072,note_on,2,0,6,,,,,,,,5,,,55,110
111072,note_on,2,0,7,,,,,,,,6,,,69,110
111072,note_on,2,0,11,,,,,,,,11,,,64,92
111072,note_on,2,0,5,,,,,,,,4,,,74,110
111072,note_on,2,0,3,,,,,,,,2,,,69,110
111072,note_on,2,0,2,,,,,,,,1,,,53,110
111072,note_on,2,0,4,,,,,,,,3,,,62,110
111072,note_on,2,0,1,,,,,,,,0,,,74,110
111072,note_on,2,0,8,,,,,,,,7,,,55,110
111094,note_on,22,0,1,,,,,,,,0,,,74,0
111094,note_on,22,0,5,,,,,,,,4,,,74,0
111096,note_on,2,0,1,,,,,,,,0,,,73,110
111096,note_on,2,0,5,,,,,,,,4,,,73,110
111118,note_on,46,0,4,,,,,,,,3,,,62,0
111118,note_on,22,0,5,,,,,,,,4,,,73,0
111118,note_on,22,0,1,,,,,,,,0,,,73,0
111118,note_on,46,0,2,,,,,,,,1,,,53,0
111120,note_on,2,0,1,,,,,,,,0,,,74,110
111120,note_on,2,0,5,,,,,,,,4,,,74,110
111120,note_on,2,0,4,,,,,,,,3,,,64,110
111120,note_on,2,0,2,,,,,,,,1,,,52,110
111136,note_on,256,0,9,,,,,,,,8,,,73,0
111142,note_on,22,0,5,,,,,,,,4,,,74,0
111142,note_on,22,0,1,,,,,,,,0,,,74,0
111144,note_on,2,0,1,,,,,,,,0,,,73,110
111144,note_on,2,0,5,,,,,,,,4,,,73,110
111166,note_on,94,0,12,,,,,,,,12,,,55,0
111166,note_on,94,0,11,,,,,,,,11,,,64,0
111166,note_on,22,0,1,,,,,,,,0,,,73,0
111166,note_on,94,0,6,,,,,,,,5,,,55,0
111166,note_on,94,0,3,,,,,,,,2,,,69,0
111166,note_on,94,0,7,,,,,,,,6,,,69,0
111166,note_on,94,0,8,,,,,,,,7,,,55,0
111166,note_on,94,0,10,,,,,,,,10,,,69,0
111166,note_on,46,0,2,,,,,,,,1,,,52,0
111166,note_on,22,0,5,,,,,,,,4,,,73,0
111166,note_on,46,0,4,,,,,,,,3,,,64,0
111168,note_on,2,0,10,,,,,,,,10,,,69,92
111168,note_on,2,0,7,,,,,,,,6,,,69,110
111168,note_on,2,0,11,,,,,,,,11,,,65,92
111168,note_on,2,0,8,,,,,,,,7,,,53,110
111168,note_on,2,0,5,,,,,,,,4,,,76,110
111168,note_on,2,0,3,,,,,,,,2,,,69,110
111168,note_on,2,0,6,,,,,,,,5,,,53,110
111168,note_on,2,0,4,,,,,,,,3,,,65,110
111168,note_on,2,0,1,,,,,,,,0,,,76,110
111168,note_on,2,0,2,,,,,,,,1,,,53,110
111168,note_on,2,0,12,,,,,,,,12,,,53,92
111168,note_on,32,0,9,,,,,,,,8,,,74,92
111190,note_on,22,0,5,,,,,,,,4,,,76,0
111190,note_on,22,0,1,,,,,,,,0,,,76,0
111192,note_on,2,0,1,,,,,,,,0,,,74,110
111192,note_on,2,0,5,,,,,,,,4,,,74,110
111214,note_on,46,0,2,,,,,,,,1,,,53,0
111214,note_on,22,0,1,,,,,,,,0,,,74,0
111214,note_on,22,0,5,,,,,,,,4,,,74,0
111214,note_on,46,0,4,,,,,,,,3,,,65,0
111216,note_on,2,0,2,,,,,,,,1,,,57,110
111216,note_on,2,0,4,,,,,,,,3,,,64,110
111216,note_on,2,0,5,,,,,,,,4,,,76,110
111216,note_on,2,0,1,,,,,,,,0,,,76,110
111238,note_on,22,0,5,,,,,,,,4,,,76,0
111238,note_on,22,0,1,,,,,,,,0,,,76,0
111240,note_on,2,0,1,,,,,,,,0,,,74,110
111240,note_on,2,0,5,,,,,,,,4,,,74,110
111262,note_on,94,0,7,,,,,,,,6,,,69,0
111262,note_on,94,0,3,,,,,,,,2,,,69,0
111262,note_on,46,0,4,,,,,,,,3,,,64,0
111262,note_on,94,0,8,,,,,,,,7,,,53,0
111262,note_on,94,0,10,,,,,,,,10,,,69,0
111262,note_on,22,0,1,,,,,,,,0,,,74,0
111262,note_on,94,0,12,,,,,,,,12,,,53,0
111262,note_on,46,0,2,,,,,,,,1,,,57,0
111262,note_on,94,0,6,,,,,,,,5,,,53,0
111262,note_on,94,0,11,,,,,,,,11,,,65,0
111262,note_on,22,0,5,,,,,,,,4,,,74,0
111264,note_on,2,0,3,,,,,,,,2,,,81,110
111264,note_on,2,0,12,,,,,,,,12,,,53,92
111264,note_on,2,0,8,,,,,,,,7,,,53,110
111264,note_on,2,0,4,,,,,,,,3,,,65,110
111264,note_on,2,0,7,,,,,,,,6,,,81,110
111264,note_on,2,0,1,,,,,,,,0,,,76,110
111264,note_on,2,0,5,,,,,,,,4,,,76,110
111264,note_on,2,0,10,,,,,,,,10,,,81,92
111264,note_on,2,0,6,,,,,,,,5,,,53,110
111264,note_on,2,0,2,,,,,,,,1,,,62,110
111264,note_on,2,0,11,,,,,,,,11,,,65,92
111286,note_on,22,0,5,,,,,,,,4,,,76,0
111286,note_on,22,0,1,,,,,,,,0,,,76,0
111288,note_on,2,0,5,,,,,,,,4,,,74,110
111288,note_on,2,0,1,,,,,,,,0,,,74,110
111310,note_on,46,0,4,,,,,,,,3,,,65,0
111310,note_on,46,0,2,,,,,,,,1,,,62,0
111310,note_on,22,0,1,,,,,,,,0,,,74,0
111310,note_on,22,0,5,,,,,,,,4,,,74,0
111312,note_on,2,0,2,,,,,,,,1,,,61,110
111312,note_on,2,0,1,,,,,,,,0,,,76,110
111312,note_on,2,0,5,,,,,,,,4,,,76,110
111312,note_on,2,0,4,,,,,,,,3,,,67,110
111334,note_on,22,0,1,,,,,,,,0,,,76,0
111334,note_on,22,0,5,,,,,,,,4,,,76,0
111336,note_on,2,0,5,,,,,,,,4,,,74,110
111336,note_on,2,0,1,,,,,,,,0,,,74,110
111358,note_on,22,0,5,,,,,,,,4,,,74,0
111358,note_on,46,0,4,,,,,,,,3,,,67,0
111358,note_on,94,0,10,,,,,,,,10,,,81,0
111358,note_on,94,0,6,,,,,,,,5,,,53,0
111358,note_on,94,0,7,,,,,,,,6,,,81,0
111358,note_on,46,0,2,,,,,,,,1,,,61,0
111358,note_on,94,0,11,,,,,,,,11,,,65,0
111358,note_on,94,0,12,,,,,,,,12,,,53,0
111358,note_on,22,0,1,,,,,,,,0,,,74,0
111358,note_on,94,0,3,,,,,,,,2,,,81,0
111358,note_on,94,0,8,,,,,,,,7,,,53,0
111360,note_on,2,0,8,,,,,,,,7,,,53,110
111360,note_on,2,0,2,,,,,,,,1,,,62,110
111360,note_on,2,0,6,,,,,,,,5,,,53,110
111360,note_on,2,0,3,,,,,,,,2,,,69,110
111360,note_on,2,0,7,,,,,,,,6,,,69,110
111360,note_on,2,0,1,,,,,,,,0,,,76,110
111360,note_on,2,0,12,,,,,,,,12,,,53,92
111360,note_on,2,0,10,,,,,,,,10,,,69,92
111360,note_on,2,0,11,,,,,,,,11,,,65,92
111360,note_on,2,0,4,,,,,,,,3,,,65,110
111360,note_on,2,0,5,,,,,,,,4,,,76,110
111382,note_on,22,0,5,,,,,,,,4,,,76,0
111382,note_on,22,0,1,,,,,,,,0,,,76,0
111384,note_on,2,0,1,,,,,,,,0,,,74,110
111384,note_on,2,0,5,,,,,,,,4,,,74,110
111406,note_on,22,0,5,,,,,,,,4,,,74,0
111406,note_on,22,0,1,,,,,,,,0,,,74,0
111406,note_on,46,0,2,,,,,,,,1,,,62,0
111406,note_on,46,0,4,,,,,,,,3,,,65,0
111408,note_on,2,0,5,,,,,,,,4,,,76,110
111408,note_on,2,0,4,,,,,,,,3,,,64,110
111408,note_on,2,0,2,,,,,,,,1,,,64,110
111408,note_on,2,0,1,,,,,,,,0,,,76,110
111424,note_on,256,0,9,,,,,,,,8,,,74,0
111430,note_on,22,0,5,,,,,,,,4,,,76,0
111430,note_on,22,0,1,,,,,,,,0,,,76,0
111432,note_on,2,0,5,,,,,,,,4,,,74,110
111432,note_on,2,0,1,,,,,,,,0,,,74,110
111454,note_on,94,0,3,,,,,,,,2,,,69,0
111454,note_on,94,0,6,,,,,,,,5,,,53,0
111454,note_on,22,0,5,,,,,,,,4,,,74,0
111454,note_on,22,0,1,,,,,,,,0,,,74,0
111454,note_on,94,0,7,,,,,,,,6,,,69,0
111454,note_on,46,0,2,,,,,,,,1,,,64,0
111454,note_on,94,0,12,,,,,,,,12,,,53,0
111454,note_on,94,0,8,,,,,,,,7,,,53,0
111454,note_on,94,0,11,,,,,,,,11,,,65,0
111454,note_on,94,0,10,,,,,,,,10,,,69,0
111454,note_on,46,0,4,,,,,,,,3,,,64,0
111456,note_on,2,0,6,,,,,,,,5,,,47,110
111456,note_on,2,0,4,,,,,,,,3,,,63,110
111456,note_on,2,0,5,,,,,,,,4,,,76,110
111456,note_on,32,0,9,,,,,,,,8,,,75,92
111456,note_on,2,0,12,,,,,,,,12,,,47,92
111456,note_on,2,0,3,,,,,,,,2,,,69,110
111456,note_on,2,0,8,,,,,,,,7,,,47,110
111456,note_on,2,0,2,,,,,,,,1,,,66,110
111456,note_on,2,0,7,,,,,,,,6,,,69,110
111456,note_on,2,0,10,,,,,,,,10,,,69,92
111456,note_on,2,0,1,,,,,,,,0,,,76,110
111456,note_on,2,0,11,,,,,,,,11,,,66,92
111478,note_on,22,0,5,,,,,,,,4,,,76,0
111478,note_on,22,0,1,,,,,,,,0,,,76,0
111480,note_on,2,0,5,,,,,,,,4,,,75,110
111480,note_on,2,0,1,,,,,,,,0,,,75,110
111502,note_on,46,0,4,,,,,,,,3,,,63,0
111502,note_on,22,0,5,,,,,,,,4,,,75,0
111502,note_on,46,0,2,,,,,,,,1,,,66,0
111502,note_on,22,0,1,,,,,,,,0,,,75,0
111504,note_on,2,0,1,,,,,,,,0,,,76,110
111504,note_on,2,0,4,,,,,,,,3,,,64,110
111504,note_on,2,0,2,,,,,,,,1,,,64,110
111504,note_on,2,0,5,,,,,,,,4,,,76,110
111526,note_on,22,0,1,,,,,,,,0,,,76,0
111526,note_on,22,0,5,,,,,,,,4,,,76,0
111528,note_on,2,0,5,,,,,,,,4,,,75,110
111528,note_on,2,0,1,,,,,,,,0,,,75,110
111550,note_on,94,0,6,,,,,,,,5,,,47,0
111550,note_on,22,0,5,,,,,,,,4,,,75,0
111550,note_on,46,0,4,,,,,,,,3,,,64,0
111550,note_on,46,0,2,,,,,,,,1,,,64,0
111550,note_on,22,0,1,,,,,,,,0,,,75,0
111550,note_on,94,0,11,,,,,,,,11,,,66,0
111550,note_on,94,0,10,,,,,,,,10,,,69,0
111550,note_on,94,0,8,,,,,,,,7,,,47,0
111550,note_on,94,0,12,,,,,,,,12,,,47,0
111550,note_on,94,0,3,,,,,,,,2,,,69,0
111550,note_on,94,0,7,,,,,,,,6,,,69,0
111552,note_on,2,0,4,,,,,,,,3,,,66,110
111552,note_on,2,0,5,,,,,,,,4,,,76,110
111552,note_on,2,0,11,,,,,,,,11,,,66,92
111552,note_on,2,0,3,,,,,,,,2,,,81,110
111552,note_on,2,0,12,,,,,,,,12,,,47,92
111552,note_on,2,0,1,,,,,,,,0,,,76,110
111552,note_on,2,0,2,,,,,,,,1,,,63,110
111552,note_on,2,0,6,,,,,,,,5,,,47,110
111552,note_on,2,0,10,,,,,,,,10,,,81,92
111552,note_on,2,0,7,,,,,,,,6,,,81,110
111552,note_on,2,0,8,,,,,,,,7,,,47,110
111574,note_on,22,0,1,,,,,,,,0,,,76,0
111574,note_on,22,0,5,,,,,,,,4,,,76,0
111576,note_on,2,0,1,,,,,,,,0,,,75,110
111576,note_on,2,0,5,,,,,,,,4,,,75,110
111598,note_on,22,0,1,,,,,,,,0,,,75,0
111598,note_on,22,0,5,,,,,,,,4,,,75,0
111598,note_on,46,0,2,,,,,,,,1,,,63,0
111598,note_on,46,0,4,,,,,,,,3,,,66,0
111600,note_on,2,0,4,,,,,,,,3,,,64,110
111600,note_on,2,0,5,,,,,,,,4,,,76,110
111600,note_on,2,0,2,,,,,,,,1,,,61,110
111600,note_on,2,0,1,,,,,,,,0,,,76,110
111622,note_on,22,0,5,,,,,,,,4,,,76,0
111622,note_on,22,0,1,,,,,,,,0,,,76,0
111624,note_on,2,0,1,,,,,,,,0,,,75,110
111624,note_on,2,0,5,,,,,,,,4,,,75,110
111646,note_on,94,0,3,,,,,,,,2,,,81,0
111646,note_on,22,0,5,,,,,,,,4,,,75,0
111646,note_on,94,0,7,,,,,,,,6,,,81,0
111646,note_on,94,0,12,,,,,,,,12,,,47,0
111646,note_on,46,0,4,,,,,,,,3,,,64,0
111646,note_on,46,0,2,,,,,,,,1,,,61,0
111646,note_on,94,0,8,,,,,,,,7,,,47,0
111646,note_on,94,0,11,,,,,,,,11,,,66,0
111646,note_on,22,0,1,,,,,,,,0,,,75,0
111646,note_on,94,0,6,,,,,,,,5,,,47,0
111646,note_on,94,0,10,,,,,,,,10,,,81,0
111648,note_on,2,0,7,,,,,,,,6,,,69,110
111648,note_on,2,0,2,,,,,,,,1,,,59,110
111648,note_on,2,0,5,,,,,,,,4,,,76,110
111648,note_on,2,0,8,,,,,,,,7,,,47,110
111648,note_on,2,0,6,,,,,,,,5,,,47,110
111648,note_on,2,0,12,,,,,,,,12,,,47,92
111648,note_on,2,0,4,,,,,,,,3,,,63,110
111648,note_on,2,0,3,,,,,,,,2,,,69,110
111648,note_on,2,0,11,,,,,,,,11,,,66,92
111648,note_on,2,0,1,,,,,,,,0,,,76,110
111648,note_on,2,0,10,,,,,,,,10,,,69,92
111670,note_on,22,0,1,,,,,,,,0,,,76,0
111670,note_on,22,0,5,,,,,,,,4,,,76,0
111672,note_on,2,0,1,,,,,,,,0,,,75,110
111672,note_on,2,0,5,,,,,,,,4,,,75,110
111694,note_on,46,0,4,,,,,,,,3,,,63,0
111694,note_on,46,0,2,,,,,,,,1,,,59,0
111694,note_on,22,0,5,,,,,,,,4,,,75,0
111694,note_on,22,0,1,,,,,,,,0,,,75,0
111696,note_on,2,0,2,,,,,,,,1,,,66,110
111696,note_on,2,0,5,,,,,,,,4,,,76,110
111696,note_on,2,0,4,,,,,,,,3,,,61,110
111696,note_on,2,0,1,,,,,,,,0,,,76,110
111712,note_on,256,0,9,,,,,,,,8,,,75,0
111718,note_on,22,0,1,,,,,,,,0,,,76,0
111718,note_on,22,0,5,,,,,,,,4,,,76,0
111720,note_on,2,0,5,,,,,,,,4,,,75,110
111720,note_on,2,0,1,,,,,,,,0,,,75,110
111742,note_on,94,0,10,,,,,,,,10,,,69,0
111742,note_on,94,0,11,,,,,,,,11,,,66,0
111742,note_on,22,0,5,,,,,,,,4,,,75,0
111742,note_on,46,0,4,,,,,,,,3,,,61,0
111742,note_on,94,0,6,,,,,,,,5,,,47,0
111742,note_on,94,0,12,,,,,,,,12,,,47,0
111742,note_on,22,0,1,,,,,,,,0,,,75,0
111742,note_on,94,0,3,,,,,,,,2,,,69,0
111742,note_on,46,0,2,,,,,,,,1,,,66,0
111742,note_on,94,0,7,,,,,,,,6,,,69,0
111742,note_on,94,0,8,,,,,,,,7,,,47,0
111744,note_on,2,0,11,,,,,,,,11,,,64,92
111744,note_on,2,0,6,,,,,,,,5,,,52,110
111744,note_on,2,0,1,,,,,,,,0,,,76,110
111744,note_on,2,0,5,,,,,,,,4,,,76,110
111744,note_on,2,0,8,,,,,,,,7,,,52,110
111744,note_on,2,0,10,,,,,,,,10,,,68,92
111744,note_on,32,0,9,,,,,,,,8,,,76,92
111744,note_on,2,0,4,,,,,,,,3,,,59,110
111744,note_on,2,0,7,,,,,,,,6,,,68,110
111744,note_on,2,0,2,,,,,,,,1,,,68,110
111744,note_on,2,0,3,,,,,,,,2,,,68,110
111744,note_on,2,0,12,,,,,,,,12,,,52,92
111790,note_on,46,0,2,,,,,,,,1,,,68,0
111790,note_on,46,0,4,,,,,,,,3,,,59,0
111792,note_on,2,0,4,,,,,,,,3,,,62,110
111792,note_on,2,0,2,,,,,,,,1,,,56,110
111838,note_on,46,0,2,,,,,,,,1,,,56,0
111838,note_on,94,0,6,,,,,,,,5,,,52,0
111838,note_on,94,0,11,,,,,,,,11,,,64,0
111838,note_on,94,0,1,,,,,,,,0,,,76,0
111838,note_on,46,0,4,,,,,,,,3,,,62,0
111838,note_on,94,0,12,,,,,,,,12,,,52,0
111838,note_on,94,0,3,,,,,,,,2,,,68,0
111838,note_on,94,0,7,,,,,,,,6,,,68,0
111838,note_on,94,0,10,,,,,,,,10,,,68,0
111838,note_on,94,0,5,,,,,,,,4,,,76,0
111838,note_on,94,0,9,,,,,,,,8,,,76,0
111840,note_on,2,0,6,,,,,,,,5,,,40,110
111840,note_on,2,0,1,,,,,,,,0,,,64,110
111840,note_on,2,0,4,,,,,,,,3,,,60,110
111840,note_on,2,0,5,,,,,,,,4,,,64,110
111840,note_on,2,0,2,,,,,,,,1,,,57,110
111840,note_on,2,0,9,,,,,,,,8,,,64,92
111840,note_on,2,0,12,,,,,,,,12,,,52,92
111886,note_on,46,0,2,,,,,,,,1,,,57,0
111886,note_on,46,0,4,,,,,,,,3,,,60,0
111888,note_on,2,0,2,,,,,,,,1,,,59,110
111888,note_on,2,0,4,,,,,,,,3,,,59,110
111904,note_on,160,0,8,,,,,,,,7,,,52,0
111934,note_on,94,0,5,,,,,,,,4,,,64,0
111934,note_on,94,0,12,,,,,,,,12,,,52,0
111934,note_on,94,0,1,,,,,,,,0,,,64,0
111934,note_on,46,0,2,,,,,,,,1,,,59,0
111934,note_on,46,0,4,,,,,,,,3,,,59,0
111934,note_on,94,0,6,,,,,,,,5,,,40,0
111934,note_on,94,0,9,,,,,,,,8,,,64,0
111936,note_on,2,0,4,,,,,,,,3,,,57,110
111936,note_on,2,0,5,,,,,,,,4,,,72,110
111936,note_on,2,0,1,,,,,,,,0,,,76,110
111936,note_on,2,0,6,,,,,,,,5,,,52,110
111936,note_on,2,0,9,,,,,,,,8,,,76,92
111936,note_on,98,0,11,,,,,,,,11,,,60,92
111936,note_on,2,0,12,,,,,,,,12,,,52,92
111936,note_on,98,0,7,,,,,,,,6,,,69,110
111936,note_on,98,0,3,,,,,,,,2,,,69,110
111936,note_on,98,0,10,,,,,,,,10,,,69,92
111936,note_on,2,0,2,,,,,,,,1,,,60,110
111936,note_on,32,0,8,,,,,,,,7,,,40,110
111982,note_on,46,0,2,,,,,,,,1,,,60,0
111982,note_on,46,0,4,,,,,,,,3,,,57,0
111984,note_on,2,0,2,,,,,,,,1,,,62,110
111984,note_on,2,0,4,,,,,,,,3,,,59,110
112030,note_on,46,0,2,,,,,,,,1,,,62,0
112030,note_on,94,0,12,,,,,,,,12,,,52,0
112030,note_on,94,0,8,,,,,,,,7,,,40,0
112030,note_on,94,0,6,,,,,,,,5,,,52,0
112030,note_on,94,0,5,,,,,,,,4,,,72,0
112030,note_on,94,0,3,,,,,,,,2,,,69,0
112030,note_on,94,0,7,,,,,,,,6,,,69,0
112030,note_on,94,0,9,,,,,,,,8,,,76,0
112030,note_on,46,0,4,,,,,,,,3,,,59,0
112030,note_on,94,0,10,,,,,,,,10,,,69,0
112030,note_on,94,0,11,,,,,,,,11,,,60,0
112030,note_on,94,0,1,,,,,,,,0,,,76,0
112032,note_on,2,0,10,,,,,,,,10,,,71,92
112032,note_on,2,0,11,,,,,,,,11,,,56,92
112032,note_on,2,0,6,,,,,,,,5,,,52,110
112032,note_on,2,0,12,,,,,,,,12,,,52,92
112032,note_on,2,0,5,,,,,,,,4,,,71,110
112032,note_on,2,0,2,,,,,,,,1,,,64,110
112032,note_on,2,0,8,,,,,,,,7,,,52,110
112032,note_on,2,0,3,,,,,,,,2,,,71,110
112032,note_on,2,0,9,,,,,,,,8,,,74,92
112032,note_on,2,0,4,,,,,,,,3,,,52,110
112032,note_on,2,0,7,,,,,,,,6,,,68,110
112032,note_on,2,0,1,,,,,,,,0,,,74,110
112078,note_on,46,0,1,,,,,,,,0,,,74,0
112078,note_on,46,0,9,,,,,,,,8,,,74,0
112078,note_on,46,0,10,,,,,,,,10,,,71,0
112080,note_on,2,0,9,,,,,,,,8,,,72,92
112080,note_on,2,0,1,,,,,,,,0,,,72,110
112080,note_on,2,0,10,,,,,,,,10,,,69,92
112126,note_on,94,0,5,,,,,,,,4,,,71,0
112126,note_on,94,0,4,,,,,,,,3,,,52,0
112126,note_on,46,0,9,,,,,,,,8,,,72,0
112126,note_on,46,0,10,,,,,,,,10,,,69,0
112126,note_on,46,0,1,,,,,,,,0,,,72,0
112126,note_on,94,0,11,,,,,,,,11,,,56,0
112126,note_on,94,0,12,,,,,,,,12,,,52,0
112126,note_on,94,0,6,,,,,,,,5,,,52,0
112126,note_on,94,0,3,,,,,,,,2,,,71,0
112126,note_on,94,0,7,,,,,,,,6,,,68,0
112126,note_on,94,0,2,,,,,,,,1,,,64,0
112128,note_on,2,0,2,,,,,,,,1,,,56,110
112128,note_on,2,0,10,,,,,,,,10,,,71,92
112128,note_on,2,0,4,,,,,,,,3,,,64,110
112128,note_on,2,0,11,,,,,,,,11,,,64,92
112128,note_on,2,0,5,,,,,,,,4,,,76,110
112128,note_on,2,0,9,,,,,,,,8,,,74,92
112128,note_on,2,0,12,,,,,,,,12,,,52,92
112128,note_on,2,0,3,,,,,,,,2,,,71,110
112128,note_on,2,0,1,,,,,,,,0,,,74,110
112128,note_on,2,0,6,,,,,,,,5,,,40,110
112174,note_on,46,0,9,,,,,,,,8,,,74,0
112174,note_on,46,0,1,,,,,,,,0,,,74,0
112176,note_on,50,0,7,,,,,,,,6,,,71,110
112176,note_on,2,0,9,,,,,,,,8,,,76,92
112176,note_on,2,0,1,,,,,,,,0,,,76,110
112192,note_on,160,0,8,,,,,,,,7,,,52,0
112222,note_on,94,0,5,,,,,,,,4,,,76,0
112222,note_on,46,0,9,,,,,,,,8,,,76,0
112222,note_on,94,0,2,,,,,,,,1,,,56,0
112222,note_on,94,0,10,,,,,,,,10,,,71,0
112222,note_on,94,0,11,,,,,,,,11,,,64,0
112222,note_on,94,0,12,,,,,,,,12,,,52,0
112222,note_on,94,0,6,,,,,,,,5,,,40,0
112222,note_on,94,0,3,,,,,,,,2,,,71,0
112222,note_on,46,0,1,,,,,,,,0,,,76,0
112222,note_on,46,0,7,,,,,,,,6,,,71,0
112222,note_on,94,0,4,,,,,,,,3,,,64,0
112224,note_on,2,0,10,,,,,,,,10,,,71,92
112224,note_on,2,0,2,,,,,,,,1,,,64,110
112224,note_on,2,0,3,,,,,,,,2,,,71,110
112224,note_on,2,0,9,,,,,,,,8,,,74,92
112224,note_on,2,0,1,,,,,,,,0,,,74,110
112224,note_on,2,0,7,,,,,,,,6,,,74,110
112224,note_on,2,0,4,,,,,,,,3,,,56,110
112224,note_on,2,0,11,,,,,,,,11,,,56,92
112224,note_on,2,0,12,,,,,,,,12,,,52,92
112224,note_on,32,0,8,,,,,,,,7,,,40,110
112224,note_on,2,0,6,,,,,,,,5,,,52,110
112270,note_on,46,0,7,,,,,,,,6,,,74,0
112272,note_on,2,0,7,,,,,,,,6,,,71,110
112318,note_on,94,0,10,,,,,,,,10,,,71,0
112318,note_on,94,0,8,,,,,,,,7,,,40,0
112318,note_on,94,0,12,,,,,,,,12,,,52,0
112318,note_on,94,0,6,,,,,,,,5,,,52,0
112318,note_on,94,0,11,,,,,,,,11,,,56,0
112318,note_on,94,0,2,,,,,,,,1,,,64,0
112318,note_on,94,0,9,,,,,,,,8,,,74,0
112318,note_on,94,0,1,,,,,,,,0,,,74,0
112318,note_on,46,0,7,,,,,,,,6,,,71,0
112318,note_on,94,0,4,,,,,,,,3,,,56,0
112318,note_on,94,0,3,,,,,,,,2,,,71,0
112320,note_on,2,0,3,,,,,,,,2,,,69,110
112320,note_on,2,0,1,,,,,,,,0,,,72,110
112320,note_on,2,0,7,,,,,,,,6,,,64,110
112320,note_on,2,0,10,,,,,,,,10,,,69,92
112320,note_on,2,0,2,,,,,,,,1,,,64,110
112320,note_on,2,0,11,,,,,,,,11,,,57,92
112320,note_on,2,0,12,,,,,,,,12,,,52,92
112320,note_on,2,0,8,,,,,,,,7,,,52,110
112320,note_on,2,0,6,,,,,,,,5,,,52,110
112320,note_on,2,0,4,,,,,,,,3,,,57,110
112320,note_on,2,0,9,,,,,,,,8,,,72,92
112320,note_on,98,0,5,,,,,,,,4,,,69,110
112366,note_on,46,0,10,,,,,,,,10,,,69,0
112366,note_on,46,0,9,,,,,,,,8,,,72,0
112366,note_on,46,0,1,,,,,,,,0,,,72,0
112368,note_on,2,0,1,,,,,,,,0,,,71,110
112368,note_on,2,0,9,,,,,,,,8,,,71,92
112368,note_on,2,0,10,,,,,,,,10,,,68,92
112414,note_on,94,0,7,,,,,,,,6,,,64,0
112414,note_on,94,0,3,,,,,,,,2,,,69,0
112414,note_on,94,0,5,,,,,,,,4,,,69,0
112414,note_on,46,0,1,,,,,,,,0,,,71,0
112414,note_on,94,0,4,,,,,,,,3,,,57,0
112414,note_on,94,0,12,,,,,,,,12,,,52,0
112414,note_on,46,0,10,,,,,,,,10,,,68,0
112414,note_on,94,0,11,,,,,,,,11,,,57,0
112414,note_on,94,0,6,,,,,,,,5,,,52,0
112414,note_on,46,0,9,,,,,,,,8,,,71,0
112414,note_on,94,0,2,,,,,,,,1,,,64,0
112416,note_on,2,0,2,,,,,,,,1,,,57,110
112416,note_on,2,0,9,,,,,,,,8,,,72,92
112416,note_on,2,0,1,,,,,,,,0,,,72,110
112416,note_on,2,0,4,,,,,,,,3,,,64,110
112416,note_on,2,0,3,,,,,,,,2,,,69,110
112416,note_on,2,0,11,,,,,,,,11,,,64,92
112416,note_on,2,0,5,,,,,,,,4,,,76,110
112416,note_on,2,0,12,,,,,,,,12,,,52,92
112416,note_on,2,0,10,,,,,,,,10,,,69,92
112416,note_on,2,0,6,,,,,,,,5,,,40,110
112462,note_on,46,0,9,,,,,,,,8,,,72,0
112462,note_on,46,0,1,,,,,,,,0,,,72,0
112464,note_on,50,0,7,,,,,,,,6,,,69,110
112464,note_on,2,0,9,,,,,,,,8,,,74,92
112464,note_on,2,0,1,,,,,,,,0,,,74,110
112480,note_on,160,0,8,,,,,,,,7,,,52,0
112510,note_on,94,0,6,,,,,,,,5,,,40,0
112510,note_on,94,0,3,,,,,,,,2,,,69,0
112510,note_on,94,0,5,,,,,,,,4,,,76,0
112510,note_on,94,0,11,,,,,,,,11,,,64,0
112510,note_on,46,0,7,,,,,,,,6,,,69,0
112510,note_on,94,0,12,,,,,,,,12,,,52,0
112510,note_on,94,0,4,,,,,,,,3,,,64,0
112510,note_on,46,0,1,,,,,,,,0,,,74,0
112510,note_on,94,0,10,,,,,,,,10,,,69,0
112510,note_on,46,0,9,,,,,,,,8,,,74,0
112510,note_on,94,0,2,,,,,,,,1,,,57,0
112512,note_on,2,0,2,,,,,,,,1,,,64,110
112512,note_on,2,0,7,,,,,,,,6,,,72,110
112512,note_on,2,0,12,,,,,,,,12,,,52,92
112512,note_on,2,0,6,,,,,,,,5,,,52,110
112512,note_on,2,0,4,,,,,,,,3,,,57,110
112512,note_on,32,0,8,,,,,,,,7,,,40,110
112512,note_on,2,0,10,,,,,,,,10,,,69,92
112512,note_on,2,0,1,,,,,,,,0,,,72,110
112512,note_on,2,0,9,,,,,,,,8,,,72,92
112512,note_on,2,0,11,,,,,,,,11,,,57,92
112512,note_on,2,0,3,,,,,,,,2,,,69,110
112558,note_on,46,0,7,,,,,,,,6,,,72,0
112560,note_on,2,0,7,,,,,,,,6,,,69,110
112606,note_on,94,0,2,,,,,,,,1,,,64,0
112606,note_on,94,0,10,,,,,,,,10,,,69,0
112606,note_on,94,0,4,,,,,,,,3,,,57,0
112606,note_on,94,0,11,,,,,,,,11,,,57,0
112606,note_on,46,0,7,,,,,,,,6,,,69,0
112606,note_on,94,0,3,,,,,,,,2,,,69,0
112606,note_on,94,0,6,,,,,,,,5,,,52,0
112606,note_on,94,0,12,,,,,,,,12,,,52,0
112606,note_on,94,0,8,,,,,,,,7,,,40,0
112606,note_on,94,0,9,,,,,,,,8,,,72,0
112606,note_on,94,0,1,,,,,,,,0,,,72,0
112608,note_on,2,0,12,,,,,,,,12,,,52,92
112608,note_on,98,0,5,,,,,,,,4,,,68,110
112608,note_on,2,0,7,,,,,,,,6,,,64,110
112608,note_on,2,0,9,,,,,,,,8,,,71,92
112608,note_on,2,0,1,,,,,,,,0,,,71,110
112608,note_on,2,0,2,,,,,,,,1,,,64,110
112608,note_on,2,0,11,,,,,,,,11,,,59,92
112608,note_on,2,0,3,,,,,,,,2,,,68,110
112608,note_on,2,0,10,,,,,,,,10,,,68,92
112608,note_on,2,0,8,,,,,,,,7,,,52,110
112608,note_on,2,0,6,,,,,,,,5,,,52,110
112608,note_on,2,0,4,,,,,,,,3,,,59,110
112654,note_on,46,0,9,,,,,,,,8,,,71,0
112654,note_on,46,0,10,,,,,,,,10,,,68,0
112654,note_on,46,0,1,,,,,,,,0,,,71,0
112656,note_on,2,0,9,,,,,,,,8,,,69,92
112656,note_on,2,0,10,,,,,,,,10,,,66,92
112656,note_on,2,0,1,,,,,,,,0,,,69,110
112702,note_on,94,0,5,,,,,,,,4,,,68,0
112702,note_on,94,0,11,,,,,,,,11,,,59,0
112702,note_on,94,0,4,,,,,,,,3,,,59,0
112702,note_on,94,0,2,,,,,,,,1,,,64,0
112702,note_on,94,0,6,,,,,,,,5,,,52,0
112702,note_on,94,0,3,,,,,,,,2,,,68,0
112702,note_on,46,0,9,,,,,,,,8,,,69,0
112702,note_on,46,0,1,,,,,,,,0,,,69,0
112702,note_on,94,0,7,,,,,,,,6,,,64,0
112702,note_on,94,0,12,,,,,,,,12,,,52,0
112702,note_on,46,0,10,,,,,,,,10,,,66,0
112704,note_on,2,0,9,,,,,,,,8,,,71,92
112704,note_on,2,0,1,,,,,,,,0,,,71,110
112704,note_on,2,0,12,,,,,,,,12,,,52,92
112704,note_on,2,0,11,,,,,,,,11,,,64,92
112704,note_on,2,0,10,,,,,,,,10,,,68,92
112704,note_on,2,0,6,,,,,,,,5,,,40,110
112704,note_on,2,0,2,,,,,,,,1,,,56,110
112704,note_on,2,0,3,,,,,,,,2,,,68,110
112704,note_on,2,0,4,,,,,,,,3,,,64,110
112704,note_on,2,0,5,,,,,,,,4,,,76,110
112750,note_on,46,0,1,,,,,,,,0,,,71,0
112750,note_on,46,0,9,,,,,,,,8,,,71,0
112752,note_on,2,0,9,,,,,,,,8,,,72,92
112752,note_on,50,0,7,,,,,,,,6,,,68,110
112752,note_on,2,0,1,,,,,,,,0,,,72,110
112768,note_on,160,0,8,,,,,,,,7,,,52,0
112798,note_on,94,0,6,,,,,,,,5,,,40,0
112798,note_on,94,0,5,,,,,,,,4,,,76,0
112798,note_on,94,0,12,,,,,,,,12,,,52,0
112798,note_on,94,0,4,,,,,,,,3,,,64,0
112798,note_on,94,0,10,,,,,,,,10,,,68,0
112798,note_on,46,0,1,,,,,,,,0,,,72,0
112798,note_on,94,0,11,,,,,,,,11,,,64,0
112798,note_on,46,0,7,,,,,,,,6,,,68,0
112798,note_on,94,0,2,,,,,,,,1,,,56,0
112798,note_on,94,0,3,,,,,,,,2,,,68,0
112798,note_on,46,0,9,,,,,,,,8,,,72,0
112800,note_on,2,0,9,,,,,,,,8,,,71,92
112800,note_on,32,0,8,,,,,,,,7,,,40,110
112800,note_on,2,0,7,,,,,,,,6,,,71,110
112800,note_on,2,0,2,,,,,,,,1,,,64,110
112800,note_on,2,0,1,,,,,,,,0,,,71,110
112800,note_on,2,0,12,,,,,,,,12,,,52,92
112800,note_on,2,0,3,,,,,,,,2,,,68,110
112800,note_on,2,0,6,,,,,,,,5,,,52,110
112800,note_on,2,0,10,,,,,,,,10,,,68,92
112800,note_on,2,0,4,,,,,,,,3,,,59,110
112800,note_on,2,0,11,,,,,,,,11,,,59,92
112846,note_on,46,0,7,,,,,,,,6,,,71,0
112848,note_on,2,0,7,,,,,,,,6,,,68,110
112894,note_on,46,0,7,,,,,,,,6,,,68,0
112894,note_on,94,0,12,,,,,,,,12,,,52,0
112894,note_on,94,0,1,,,,,,,,0,,,71,0
112894,note_on,94,0,4,,,,,,,,3,,,59,0
112894,note_on,94,0,2,,,,,,,,1,,,64,0
112894,note_on,94,0,8,,,,,,,,7,,,40,0
112894,note_on,94,0,11,,,,,,,,11,,,59,0
112894,note_on,94,0,6,,,,,,,,5,,,52,0
112894,note_on,94,0,10,,,,,,,,10,,,68,0
112894,note_on,94,0,3,,,,,,,,2,,,68,0
112894,note_on,94,0,9,,,,,,,,8,,,71,0
112896,note_on,2,0,9,,,,,,,,8,,,72,92
112896,note_on,2,0,10,,,,,,,,10,,,69,92
112896,note_on,2,0,1,,,,,,,,0,,,72,110
112896,note_on,2,0,12,,,,,,,,12,,,52,92
112896,note_on,2,0,6,,,,,,,,5,,,52,110
112896,note_on,2,0,8,,,,,,,,7,,,52,110
112896,note_on,98,0,5,,,,,,,,4,,,69,110
112896,note_on,2,0,4,,,,,,,,3,,,57,110
112896,note_on,2,0,7,,,,,,,,6,,,64,110
112896,note_on,2,0,2,,,,,,,,1,,,64,110
112896,note_on,2,0,3,,,,,,,,2,,,69,110
112896,note_on,2,0,11,,,,,,,,11,,,57,92
112942,note_on,46,0,10,,,,,,,,10,,,69,0
112942,note_on,46,0,1,,,,,,,,0,,,72,0
112942,note_on,46,0,9,,,,,,,,8,,,72,0
112944,note_on,2,0,1,,,,,,,,0,,,71,110
112944,note_on,2,0,9,,,,,,,,8,,,71,92
112944,note_on,2,0,10,,,,,,,,10,,,68,92
112990,note_on,46,0,10,,,,,,,,10,,,68,0
112990,note_on,94,0,11,,,,,,,,11,,,57,0
112990,note_on,94,0,7,,,,,,,,6,,,64,0
112990,note_on,94,0,4,,,,,,,,3,,,57,0
112990,note_on,94,0,2,,,,,,,,1,,,64,0
112990,note_on,94,0,12,,,,,,,,12,,,52,0
112990,note_on,94,0,5,,,,,,,,4,,,69,0
112990,note_on,46,0,1,,,,,,,,0,,,71,0
112990,note_on,46,0,9,,,,,,,,8,,,71,0
112990,note_on,94,0,3,,,,,,,,2,,,69,0
112990,note_on,94,0,6,,,,,,,,5,,,52,0
112992,note_on,2,0,10,,,,,,,,10,,,69,92
112992,note_on,2,0,6,,,,,,,,5,,,40,110
112992,note_on,2,0,2,,,,,,,,1,,,57,110
112992,note_on,2,0,1,,,,,,,,0,,,72,110
112992,note_on,2,0,4,,,,,,,,3,,,64,110
112992,note_on,2,0,5,,,,,,,,4,,,76,110
112992,note_on,2,0,9,,,,,,,,8,,,72,92
112992,note_on,2,0,11,,,,,,,,11,,,64,92
112992,note_on,2,0,12,,,,,,,,12,,,52,92
112992,note_on,2,0,3,,,,,,,,2,,,69,110
113038,note_on,46,0,9,,,,,,,,8,,,72,0
113038,note_on,46,0,1,,,,,,,,0,,,72,0
113040,note_on,50,0,7,,,,,,,,6,,,69,110
113040,note_on,2,0,9,,,,,,,,8,,,74,92
113040,note_on,2,0,1,,,,,,,,0,,,74,110
113056,note_on,160,0,8,,,,,,,,7,,,52,0
113086,note_on,94,0,3,,,,,,,,2,,,69,0
113086,note_on,94,0,4,,,,,,,,3,,,64,0
113086,note_on,46,0,9,,,,,,,,8,,,74,0
113086,note_on,94,0,10,,,,,,,,10,,,69,0
113086,note_on,46,0,1,,,,,,,,0,,,74,0
113086,note_on,94,0,2,,,,,,,,1,,,57,0
113086,note_on,94,0,5,,,,,,,,4,,,76,0
113086,note_on,94,0,6,,,,,,,,5,,,40,0
113086,note_on,94,0,12,,,,,,,,12,,,52,0
113086,note_on,46,0,7,,,,,,,,6,,,69,0
113086,note_on,94,0,11,,,,,,,,11,,,64,0
113088,note_on,2,0,6,,,,,,,,5,,,52,110
113088,note_on,2,0,9,,,,,,,,8,,,72,92
113088,note_on,2,0,2,,,,,,,,1,,,64,110
113088,note_on,2,0,4,,,,,,,,3,,,57,110
113088,note_on,2,0,12,,,,,,,,12,,,52,92
113088,note_on,2,0,7,,,,,,,,6,,,72,110
113088,note_on,2,0,11,,,,,,,,11,,,57,92
113088,note_on,2,0,1,,,,,,,,0,,,72,110
113088,note_on,32,0,8,,,,,,,,7,,,40,110
113088,note_on,2,0,10,,,,,,,,10,,,69,92
113088,note_on,2,0,3,,,,,,,,2,,,69,110
113134,note_on,46,0,7,,,,,,,,6,,,72,0
113136,note_on,2,0,7,,,,,,,,6,,,69,110
113182,note_on,94,0,10,,,,,,,,10,,,69,0
113182,note_on,46,0,7,,,,,,,,6,,,69,0
113182,note_on,94,0,12,,,,,,,,12,,,52,0
113182,note_on,94,0,8,,,,,,,,7,,,40,0
113182,note_on,94,0,1,,,,,,,,0,,,72,0
113182,note_on,94,0,11,,,,,,,,11,,,57,0
113182,note_on,94,0,9,,,,,,,,8,,,72,0
113182,note_on,94,0,2,,,,,,,,1,,,64,0
113182,note_on,94,0,4,,,,,,,,3,,,57,0
113182,note_on,94,0,6,,,,,,,,5,,,52,0
113182,note_on,94,0,3,,,,,,,,2,,,69,0
113184,note_on,2,0,3,,,,,,,,2,,,71,110
113184,note_on,2,0,2,,,,,,,,1,,,64,110
113184,note_on,2,0,4,,,,,,,,3,,,56,110
113184,note_on,98,0,5,,,,,,,,4,,,71,110
113184,note_on,2,0,8,,,,,,,,7,,,52,110
113184,note_on,2,0,11,,,,,,,,11,,,56,92
113184,note_on,2,0,12,,,,,,,,12,,,52,92
113184,note_on,2,0,1,,,,,,,,0,,,74,110
113184,note_on,2,0,6,,,,,,,,5,,,52,110
113184,note_on,2,0,9,,,,,,,,8,,,74,92
113184,note_on,2,0,7,,,,,,,,6,,,64,110
113184,note_on,2,0,10,,,,,,,,10,,,71,92
113230,note_on,46,0,1,,,,,,,,0,,,74,0
113230,note_on,46,0,10,,,,,,,,10,,,71,0
113230,note_on,46,0,9,,,,,,,,8,,,74,0
113232,note_on,2,0,10,,,,,,,,10,,,69,92
113232,note_on,2,0,1,,,,,,,,0,,,72,110
113232,note_on,2,0,9,,,,,,,,8,,,72,92
113278,note_on,94,0,7,,,,,,,,6,,,64,0
113278,note_on,46,0,1,,,,,,,,0,,,72,0
113278,note_on,94,0,3,,,,,,,,2,,,71,0
113278,note_on,94,0,11,,,,,,,,11,,,56,0
113278,note_on,94,0,4,,,,,,,,3,,,56,0
113278,note_on,94,0,2,,,,,,,,1,,,64,0
113278,note_on,94,0,12,,,,,,,,12,,,52,0
113278,note_on,46,0,10,,,,,,,,10,,,69,0
113278,note_on,94,0,5,,,,,,,,4,,,71,0
113278,note_on,94,0,6,,,,,,,,5,,,52,0
113278,note_on,46,0,9,,,,,,,,8,,,72,0
113280,note_on,2,0,3,,,,,,,,2,,,71,110
113280,note_on,2,0,4,,,,,,,,3,,,64,110
113280,note_on,2,0,11,,,,,,,,11,,,64,92
113280,note_on,2,0,1,,,,,,,,0,,,74,110
113280,note_on,2,0,9,,,,,,,,8,,,74,92
113280,note_on,2,0,2,,,,,,,,1,,,56,110
113280,note_on,2,0,10,,,,,,,,10,,,71,92
113280,note_on,2,0,12,,,,,,,,12,,,52,92
113280,note_on,2,0,6,,,,,,,,5,,,40,110
113280,note_on,2,0,5,,,,,,,,4,,,76,110
113326,note_on,46,0,1,,,,,,,,0,,,74,0
113326,note_on,46,0,9,,,,,,,,8,,,74,0
113328,note_on,50,0,7,,,,,,,,6,,,71,110
113328,note_on,2,0,1,,,,,,,,0,,,76,110
113328,note_on,2,0,9,,,,,,,,8,,,76,92
113344,note_on,160,0,8,,,,,,,,7,,,52,0
113374,note_on,94,0,10,,,,,,,,10,,,71,0
113374,note_on,46,0,7,,,,,,,,6,,,71,0
113374,note_on,46,0,1,,,,,,,,0,,,76,0
113374,note_on,94,0,11,,,,,,,,11,,,64,0
113374,note_on,94,0,12,,,,,,,,12,,,52,0
113374,note_on,94,0,4,,,,,,,,3,,,64,0
113374,note_on,46,0,9,,,,,,,,8,,,76,0
113374,note_on,94,0,2,,,,,,,,1,,,56,0
113374,note_on,94,0,5,,,,,,,,4,,,76,0
113374,note_on,94,0,3,,,,,,,,2,,,71,0
113374,note_on,94,0,6,,,,,,,,5,,,40,0
113376,note_on,2,0,3,,,,,,,,2,,,71,110
113376,note_on,2,0,7,,,,,,,,6,,,74,110
113376,note_on,2,0,10,,,,,,,,10,,,71,92
113376,note_on,2,0,11,,,,,,,,11,,,56,92
113376,note_on,2,0,2,,,,,,,,1,,,64,110
113376,note_on,2,0,12,,,,,,,,12,,,52,92
113376,note_on,2,0,6,,,,,,,,5,,,52,110
113376,note_on,32,0,8,,,,,,,,7,,,40,110
113376,note_on,2,0,1,,,,,,,,0,,,74,110
113376,note_on,2,0,4,,,,,,,,3,,,56,110
113376,note_on,2,0,9,,,,,,,,8,,,74,92
113422,note_on,46,0,7,,,,,,,,6,,,74,0
113424,note_on,2,0,7,,,,,,,,6,,,71,110
113470,note_on,94,0,6,,,,,,,,5,,,52,0
113470,note_on,94,0,2,,,,,,,,1,,,64,0
113470,note_on,46,0,7,,,,,,,,6,,,71,0
113470,note_on,94,0,11,,,,,,,,11,,,56,0
113470,note_on,94,0,9,,,,,,,,8,,,74,0
113470,note_on,94,0,3,,,,,,,,2,,,71,0
113470,note_on,94,0,10,,,,,,,,10,,,71,0
113470,note_on,94,0,8,,,,,,,,7,,,40,0
113470,note_on,94,0,4,,,,,,,,3,,,56,0
113470,note_on,94,0,1,,,,,,,,0,,,74,0
113470,note_on,94,0,12,,,,,,,,12,,,52,0
113472,note_on,2,0,1,,,,,,,,0,,,72,110
113472,note_on,98,0,5,,,,,,,,4,,,69,110
113472,note_on,2,0,2,,,,,,,,1,,,64,110
113472,note_on,2,0,6,,,,,,,,5,,,52,110
113472,note_on,2,0,12,,,,,,,,12,,,52,92
113472,note_on,2,0,3,,,,,,,,2,,,69,110
113472,note_on,2,0,9,,,,,,,,8,,,72,92
113472,note_on,2,0,7,,,,,,,,6,,,64,110
113472,note_on,2,0,11,,,,,,,,11,,,57,92
113472,note_on,2,0,4,,,,,,,,3,,,57,110
113472,note_on,2,0,10,,,,,,,,10,,,69,92
113472,note_on,2,0,8,,,,,,,,7,,,52,110
113518,note_on,46,0,10,,,,,,,,10,,,69,0
113518,note_on,46,0,9,,,,,,,,8,,,72,0
113518,note_on,46,0,1,,,,,,,,0,,,72,0
113520,note_on,2,0,9,,,,,,,,8,,,71,92
113520,note_on,2,0,10,,,,,,,,10,,,68,92
113520,note_on,2,0,1,,,,,,,,0,,,71,110
113566,note_on,94,0,5,,,,,,,,4,,,69,0
113566,note_on,94,0,11,,,,,,,,11,,,57,0
113566,note_on,46,0,1,,,,,,,,0,,,71,0
113566,note_on,94,0,4,,,,,,,,3,,,57,0
113566,note_on,46,0,10,,,,,,,,10,,,68,0
113566,note_on,94,0,12,,,,,,,,12,,,52,0
113566,note_on,94,0,3,,,,,,,,2,,,69,0
113566,note_on,46,0,9,,,,,,,,8,,,71,0
113566,note_on,94,0,7,,,,,,,,6,,,64,0
113566,note_on,94,0,2,,,,,,,,1,,,64,0
113566,note_on,94,0,6,,,,,,,,5,,,52,0
113568,note_on,2,0,2,,,,,,,,1,,,57,110
113568,note_on,2,0,6,,,,,,,,5,,,40,110
113568,note_on,2,0,12,,,,,,,,12,,,52,92
113568,note_on,2,0,1,,,,,,,,0,,,72,110
113568,note_on,2,0,10,,,,,,,,10,,,69,92
113568,note_on,2,0,3,,,,,,,,2,,,69,110
113568,note_on,2,0,5,,,,,,,,4,,,76,110
113568,note_on,2,0,4,,,,,,,,3,,,64,110
113568,note_on,2,0,11,,,,,,,,11,,,64,92
113568,note_on,2,0,9,,,,,,,,8,,,72,92
113614,note_on,46,0,1,,,,,,,,0,,,72,0
113614,note_on,46,0,9,,,,,,,,8,,,72,0
113616,note_on,2,0,1,,,,,,,,0,,,74,110
113616,note_on,50,0,7,,,,,,,,6,,,69,110
113616,note_on,2,0,9,,,,,,,,8,,,74,92
113632,note_on,160,0,8,,,,,,,,7,,,52,0
113662,note_on,94,0,12,,,,,,,,12,,,52,0
113662,note_on,46,0,9,,,,,,,,8,,,74,0
113662,note_on,94,0,10,,,,,,,,10,,,69,0
113662,note_on,94,0,11,,,,,,,,11,,,64,0
113662,note_on,46,0,1,,,,,,,,0,,,74,0
113662,note_on,94,0,3,,,,,,,,2,,,69,0
113662,note_on,94,0,5,,,,,,,,4,,,76,0
113662,note_on,94,0,6,,,,,,,,5,,,40,0
113662,note_on,94,0,4,,,,,,,,3,,,64,0
113662,note_on,46,0,7,,,,,,,,6,,,69,0
113662,note_on,94,0,2,,,,,,,,1,,,57,0
113664,note_on,2,0,4,,,,,,,,3,,,57,110
113664,note_on,2,0,12,,,,,,,,12,,,52,92
113664,note_on,2,0,6,,,,,,,,5,,,52,110
113664,note_on,2,0,9,,,,,,,,8,,,72,92
113664,note_on,2,0,2,,,,,,,,1,,,64,110
113664,note_on,2,0,1,,,,,,,,0,,,72,110
113664,note_on,2,0,7,,,,,,,,6,,,72,110
113664,note_on,2,0,3,,,,,,,,2,,,69,110
113664,note_on,2,0,11,,,,,,,,11,,,57,92
113664,note_on,32,0,8,,,,,,,,7,,,40,110
113664,note_on,2,0,10,,,,,,,,10,,,69,92
113710,note_on,46,0,7,,,,,,,,6,,,72,0
113712,note_on,2,0,7,,,,,,,,6,,,69,110
113758,note_on,94,0,10,,,,,,,,10,,,69,0
113758,note_on,94,0,2,,,,,,,,1,,,64,0
113758,note_on,94,0,9,,,,,,,,8,,,72,0
113758,note_on,94,0,12,,,,,,,,12,,,52,0
113758,note_on,94,0,1,,,,,,,,0,,,72,0
113758,note_on,94,0,11,,,,,,,,11,,,57,0
113758,note_on,94,0,3,,,,,,,,2,,,69,0
113758,note_on,46,0,7,,,,,,,,6,,,69,0
113758,note_on,94,0,6,,,,,,,,5,,,52,0
113758,note_on,94,0,8,,,,,,,,7,,,40,0
113758,note_on,94,0,4,,,,,,,,3,,,57,0
113760,note_on,2,0,2,,,,,,,,1,,,52,110
113760,note_on,2,0,12,,,,,,,,12,,,52,92
113760,note_on,2,0,3,,,,,,,,2,,,64,110
113760,note_on,0,0,3,,,,,,,,2,,,68,110
113760,note_on,2,0,7,,,,,,,,6,,,64,110
113760,note_on,0,0,7,,,,,,,,6,,,68,110
113760,note_on,2,0,11,,,,,,,,11,,,64,92
113760,note_on,98,0,5,,,,,,,,4,,,71,110
113760,note_on,2,0,6,,,,,,,,5,,,56,110
113760,note_on,2,0,9,,,,,,,,8,,,71,92
113760,note_on,2,0,10,,,,,,,,10,,,68,92
113760,note_on,2,0,8,,,,,,,,7,,,59,110
113760,note_on,0,0,1,,,,,,,,0,,,74,110
113760,note_on,2,0,1,,,,,,,,0,,,71,110
113760,note_on,2,0,4,,,,,,,,3,,,59,110
113760,note_on,0,0,5,,,,,,,,4,,,74,110
113806,note_on,46,0,6,,,,,,,,5,,,56,0
113806,note_on,46,0,2,,,,,,,,1,,,52,0
113808,note_on,2,0,6,,,,,,,,5,,,57,110
113808,note_on,2,0,2,,,,,,,,1,,,54,110
113854,note_on,46,0,2,,,,,,,,1,,,54,0
113854,note_on,46,0,6,,,,,,,,5,,,57,0
113854,note_on,94,0,12,,,,,,,,12,,,52,0
113854,note_on,94,0,8,,,,,,,,7,,,59,0
113856,note_on,2,0,12,,,,,,,,12,,,56,92
113856,note_on,2,0,6,,,,,,,,5,,,59,110
113856,note_on,2,0,2,,,,,,,,1,,,56,110
113856,note_on,2,0,8,,,,,,,,7,,,56,110
113902,note_on,46,0,2,,,,,,,,1,,,56,0
113902,note_on,46,0,6,,,,,,,,5,,,59,0
113904,note_on,2,0,6,,,,,,,,5,,,60,110
113904,note_on,2,0,2,,,,,,,,1,,,57,110
113920,note_on,0,0,5,,,,,,,,4,,,71,0
113920,note_on,0,0,3,,,,,,,,2,,,64,0
113920,note_on,160,0,3,,,,,,,,2,,,68,0
113920,note_on,160,0,5,,,,,,,,4,,,74,0
113920,note_on,160,0,4,,,,,,,,3,,,59,0
113920,note_on,160,0,1,,,,,,,,0,,,74,0
113920,note_on,160,0,7,,,,,,,,6,,,68,0
113920,note_on,160,0,9,,,,,,,,8,,,71,0
113920,note_on,160,0,10,,,,,,,,10,,,68,0
113920,note_on,160,0,11,,,,,,,,11,,,64,0
113920,note_on,0,0,1,,,,,,,,0,,,71,0
113920,note_on,0,0,7,,,,,,,,6,,,64,0
113950,note_on,94,0,12,,,,,,,,12,,,56,0
113950,note_on,46,0,6,,,,,,,,5,,,60,0
113950,note_on,94,0,8,,,,,,,,7,,,56,0
113950,note_on,46,0,2,,,,,,,,1,,,57,0
113952,note_on,2,0,12,,,,,,,,12,,,59,92
113952,note_on,2,0,8,,,,,,,,7,,,52,110
113952,note_on,2,0,2,,,,,,,,1,,,59,110
113952,note_on,2,0,6,,,,,,,,5,,,62,110
113998,note_on,46,0,6,,,,,,,,5,,,62,0
113998,note_on,46,0,2,,,,,,,,1,,,59,0
114000,note_on,2,0,6,,,,,,,,5,,,60,110
114000,note_on,2,0,2,,,,,,,,1,,,57,110
114046,note_on,94,0,8,,,,,,,,7,,,52,0
114046,note_on,94,0,12,,,,,,,,12,,,59,0
114046,note_on,46,0,6,,,,,,,,5,,,60,0
114046,note_on,46,0,2,,,,,,,,1,,,57,0
114048,note_on,2,0,12,,,,,,,,12,,,52,92
114048,note_on,128,0,9,,,,,,,,8,,,74,92
114048,note_on,128,0,4,,,,,,,,3,,,52,110
114048,note_on,128,0,7,,,,,,,,6,,,64,110
114048,note_on,2,0,8,,,,,,,,7,,,56,110
114048,note_on,2,0,6,,,,,,,,5,,,59,110
114048,note_on,128,0,5,,,,,,,,4,,,71,110
114048,note_on,0,0,1,,,,,,,,0,,,74,110
114048,note_on,128,0,10,,,,,,,,10,,,71,92
114048,note_on,2,0,2,,,,,,,,1,,,56,110
114048,note_on,0,0,7,,,,,,,,6,,,68,110
114048,note_on,0,0,5,,,,,,,,4,,,74,110
114048,note_on,0,0,3,,,,,,,,2,,,68,110
114048,note_on,128,0,3,,,,,,,,2,,,64,110
114048,note_on,128,0,1,,,,,,,,0,,,71,110
114048,note_on,128,0,11,,,,,,,,11,,,68,92
114094,note_on,46,0,2,,,,,,,,1,,,56,0
114094,note_on,46,0,4,,,,,,,,3,,,52,0
114096,note_on,2,0,2,,,,,,,,1,,,57,110
114096,note_on,2,0,4,,,,,,,,3,,,54,110
114142,note_on,46,0,2,,,,,,,,1,,,57,0
114142,note_on,46,0,4,,,,,,,,3,,,54,0
114142,note_on,94,0,6,,,,,,,,5,,,59,0
114142,note_on,94,0,12,,,,,,,,12,,,52,0
114142,note_on,94,0,8,,,,,,,,7,,,56,0
114144,note_on,2,0,4,,,,,,,,3,,,56,110
114144,note_on,2,0,8,,,,,,,,7,,,52,110
114144,note_on,2,0,12,,,,,,,,12,,,56,92
114144,note_on,2,0,6,,,,,,,,5,,,56,110
114144,note_on,2,0,2,,,,,,,,1,,,59,110
114190,note_on,46,0,2,,,,,,,,1,,,59,0
114190,note_on,46,0,4,,,,,,,,3,,,56,0
114192,note_on,2,0,2,,,,,,,,1,,,60,110
114192,note_on,2,0,4,,,,,,,,3,,,57,110
114208,note_on,0,0,5,,,,,,,,4,,,71,0
114208,note_on,160,0,3,,,,,,,,2,,,68,0
114208,note_on,0,0,3,,,,,,,,2,,,64,0
114208,note_on,160,0,5,,,,,,,,4,,,74,0
114208,note_on,160,0,10,,,,,,,,10,,,71,0
114208,note_on,160,0,9,,,,,,,,8,,,74,0
114208,note_on,0,0,7,,,,,,,,6,,,64,0
114208,note_on,160,0,11,,,,,,,,11,,,68,0
114208,note_on,160,0,7,,,,,,,,6,,,68,0
114208,note_on,0,0,1,,,,,,,,0,,,71,0
114208,note_on,160,0,1,,,,,,,,0,,,74,0
114238,note_on,46,0,4,,,,,,,,3,,,57,0
114238,note_on,94,0,6,,,,,,,,5,,,56,0
114238,note_on,46,0,2,,,,,,,,1,,,60,0
114238,note_on,94,0,8,,,,,,,,7,,,52,0
114238,note_on,94,0,12,,,,,,,,12,,,56,0
114240,note_on,2,0,8,,,,,,,,7,,,47,110
114240,note_on,2,0,4,,,,,,,,3,,,59,110
114240,note_on,2,0,6,,,,,,,,5,,,52,110
114240,note_on,2,0,12,,,,,,,,12,,,59,92
114240,note_on,2,0,2,,,,,,,,1,,,62,110
114286,note_on,46,0,4,,,,,,,,3,,,59,0
114286,note_on,46,0,2,,,,,,,,1,,,62,0
114288,note_on,2,0,4,,,,,,,,3,,,57,110
114288,note_on,2,0,2,,,,,,,,1,,,60,110
114334,note_on,94,0,6,,,,,,,,5,,,52,0
114334,note_on,94,0,8,,,,,,,,7,,,47,0
114334,note_on,94,0,12,,,,,,,,12,,,59,0
114334,note_on,46,0,2,,,,,,,,1,,,60,0
114334,note_on,46,0,4,,,,,,,,3,,,57,0
114336,note_on,2,0,2,,,,,,,,1,,,59,110
114336,note_on,128,0,3,,,,,,,,2,,,64,110
114336,note_on,0,0,3,,,,,,,,2,,,68,110
114336,note_on,128,0,11,,,,,,,,11,,,71,92
114336,note_on,2,0,4,,,,,,,,3,,,56,110
114336,note_on,128,0,9,,,,,,,,8,,,80,92
114336,note_on,2,0,12,,,,,,,,12,,,52,92
114336,note_on,128,0,1,,,,,,,,0,,,71,110
114336,note_on,0,0,1,,,,,,,,0,,,74,110
114336,note_on,0,0,5,,,,,,,,4,,,74,110
114336,note_on,128,0,5,,,,,,,,4,,,71,110
114336,note_on,0,0,7,,,,,,,,6,,,68,110
114336,note_on,128,0,7,,,,,,,,6,,,64,110
114336,note_on,2,0,6,,,,,,,,5,,,56,110
114336,note_on,2,0,8,,,,,,,,7,,,40,110
114336,note_on,128,0,10,,,,,,,,10,,,74,92
114382,note_on,46,0,8,,,,,,,,7,,,40,0
114382,note_on,46,0,4,,,,,,,,3,,,56,0
114384,note_on,2,0,4,,,,,,,,3,,,57,110
114384,note_on,2,0,8,,,,,,,,7,,,42,110
114430,note_on,94,0,12,,,,,,,,12,,,52,0
114430,note_on,94,0,2,,,,,,,,1,,,59,0
114430,note_on,46,0,8,,,,,,,,7,,,42,0
114430,note_on,94,0,6,,,,,,,,5,,,56,0
114430,note_on,46,0,4,,,,,,,,3,,,57,0
114432,note_on,2,0,6,,,,,,,,5,,,52,110
114432,note_on,2,0,2,,,,,,,,1,,,56,110
114432,note_on,2,0,4,,,,,,,,3,,,59,110
114432,note_on,2,0,12,,,,,,,,12,,,56,92
114432,note_on,2,0,8,,,,,,,,7,,,44,110
114478,note_on,46,0,4,,,,,,,,3,,,59,0
114478,note_on,46,0,8,,,,,,,,7,,,44,0
114480,note_on,2,0,4,,,,,,,,3,,,60,110
114480,note_on,2,0,8,,,,,,,,7,,,45,110
114496,note_on,160,0,1,,,,,,,,0,,,74,0
114496,note_on,0,0,1,,,,,,,,0,,,71,0
114496,note_on,160,0,9,,,,,,,,8,,,80,0
114496,note_on,0,0,5,,,,,,,,4,,,71,0
114496,note_on,160,0,10,,,,,,,,10,,,74,0
114496,note_on,0,0,3,,,,,,,,2,,,64,0
114496,note_on,160,0,11,,,,,,,,11,,,71,0
114496,note_on,160,0,7,,,,,,,,6,,,68,0
114496,note_on,0,0,7,,,,,,,,6,,,64,0
114496,note_on,160,0,3,,,,,,,,2,,,68,0
114496,note_on,160,0,5,,,,,,,,4,,,74,0
114526,note_on,94,0,12,,,,,,,,12,,,56,0
114526,note_on,94,0,6,,,,,,,,5,,,52,0
114526,note_on,46,0,4,,,,,,,,3,,,60,0
114526,note_on,46,0,8,,,,,,,,7,,,45,0
114526,note_on,94,0,2,,,,,,,,1,,,56,0
114528,note_on,2,0,12,,,,,,,,12,,,59,92
114528,note_on,2,0,8,,,,,,,,7,,,47,110
114528,note_on,2,0,2,,,,,,,,1,,,52,110
114528,note_on,2,0,6,,,,,,,,5,,,48,110
114528,note_on,2,0,4,,,,,,,,3,,,62,110
114574,note_on,46,0,4,,,,,,,,3,,,62,0
114574,note_on,46,0,8,,,,,,,,7,,,47,0
114576,note_on,2,0,8,,,,,,,,7,,,48,110
114576,note_on,2,0,4,,,,,,,,3,,,60,110
114622,note_on,94,0,12,,,,,,,,12,,,59,0
114622,note_on,94,0,6,,,,,,,,5,,,48,0
114622,note_on,46,0,4,,,,,,,,3,,,60,0
114622,note_on,94,0,2,,,,,,,,1,,,52,0
114622,note_on,46,0,8,,,,,,,,7,,,48,0
114624,note_on,0,0,7,,,,,,,,6,,,68,110
114624,note_on,2,0,8,,,,,,,,7,,,50,110
114624,note_on,2,0,2,,,,,,,,1,,,56,110
114624,note_on,128,0,11,,,,,,,,11,,,74,92
114624,note_on,128,0,5,,,,,,,,4,,,71,110
114624,note_on,128,0,10,,,,,,,,10,,,80,92
114624,note_on,2,0,4,,,,,,,,3,,,59,110
114624,note_on,128,0,7,,,,,,,,6,,,64,110
114624,note_on,0,0,1,,,,,,,,0,,,74,110
114624,note_on,0,0,5,,,,,,,,4,,,74,110
114624,note_on,2,0,6,,,,,,,,5,,,50,110
114624,note_on,0,0,3,,,,,,,,2,,,68,110
114624,note_on,128,0,3,,,,,,,,2,,,64,110
114624,note_on,2,0,12,,,,,,,,12,,,52,92
114624,note_on,128,0,9,,,,,,,,8,,,83,92
114624,note_on,128,0,1,,,,,,,,0,,,71,110
114670,note_on,46,0,8,,,,,,,,7,,,50,0
114670,note_on,46,0,6,,,,,,,,5,,,50,0
114672,note_on,2,0,6,,,,,,,,5,,,53,110
114672,note_on,2,0,8,,,,,,,,7,,,47,110
114718,note_on,94,0,4,,,,,,,,3,,,59,0
114718,note_on,46,0,8,,,,,,,,7,,,47,0
114718,note_on,46,0,6,,,,,,,,5,,,53,0
114718,note_on,94,0,2,,,,,,,,1,,,56,0
114720,note_on,2,0,2,,,,,,,,1,,,52,110
114720,note_on,2,0,6,,,,,,,,5,,,52,110
114720,note_on,2,0,4,,,,,,,,3,,,56,110
114720,note_on,2,0,8,,,,,,,,7,,,52,110
114766,note_on,46,0,6,,,,,,,,5,,,52,0
114766,note_on,46,0,8,,,,,,,,7,,,52,0
114768,note_on,2,0,8,,,,,,,,7,,,50,110
114768,note_on,2,0,6,,,,,,,,5,,,50,110
114784,note_on,160,0,11,,,,,,,,11,,,74,0
114784,note_on,0,0,5,,,,,,,,4,,,71,0
114784,note_on,160,0,1,,,,,,,,0,,,74,0
114784,note_on,0,0,1,,,,,,,,0,,,71,0
114784,note_on,160,0,10,,,,,,,,10,,,80,0
114784,note_on,0,0,3,,,,,,,,2,,,64,0
114784,note_on,160,0,9,,,,,,,,8,,,83,0
114784,note_on,0,0,7,,,,,,,,6,,,64,0
114784,note_on,160,0,7,,,,,,,,6,,,68,0
114784,note_on,160,0,5,,,,,,,,4,,,74,0
114784,note_on,160,0,3,,,,,,,,2,,,68,0
114784,note_on,160,0,12,,,,,,,,12,,,52,0
114814,note_on,46,0,8,,,,,,,,7,,,50,0
114814,note_on,94,0,4,,,,,,,,3,,,56,0
114814,note_on,46,0,6,,,,,,,,5,,,50,0
114814,note_on,94,0,2,,,,,,,,1,,,52,0
114816,note_on,2,0,6,,,,,,,,5,,,48,110
114816,note_on,2,0,4,,,,,,,,3,,,52,110
114816,note_on,2,0,2,,,,,,,,1,,,56,110
114816,note_on,2,0,8,,,,,,,,7,,,48,110
114862,note_on,46,0,8,,,,,,,,7,,,48,0
114862,note_on,46,0,6,,,,,,,,5,,,48,0
114864,note_on,2,0,6,,,,,,,,5,,,47,110
114864,note_on,2,0,8,,,,,,,,7,,,47,110
114910,note_on,94,0,2,,,,,,,,1,,,56,0
114910,note_on,46,0,8,,,,,,,,7,,,47,0
114910,note_on,94,0,4,,,,,,,,3,,,52,0
114910,note_on,46,0,6,,,,,,,,5,,,47,0
114912,note_on,128,0,7,,,,,,,,6,,,69,110
114912,note_on,128,0,11,,,,,,,,11,,,64,92
114912,note_on,2,0,8,,,,,,,,7,,,45,110
114912,note_on,128,0,10,,,,,,,,10,,,69,92
114912,note_on,128,0,9,,,,,,,,8,,,72,92
114912,note_on,128,0,1,,,,,,,,0,,,72,110
114912,note_on,128,0,5,,,,,,,,4,,,72,110
114912,note_on,128,0,3,,,,,,,,2,,,69,110
114912,note_on,0,0,2,,,,,,,,1,,,57,110
114912,note_on,2,0,6,,,,,,,,5,,,45,110
114912,note_on,2,0,4,,,,,,,,3,,,48,110
114912,note_on,2,0,2,,,,,,,,1,,,45,110
114912,note_on,128,0,12,,,,,,,,12,,,45,92
114958,note_on,46,0,1,,,,,,,,0,,,72,0
114958,note_on,46,0,3,,,,,,,,2,,,69,0
114958,note_on,46,0,5,,,,,,,,4,,,72,0
114958,note_on,46,0,7,,,,,,,,6,,,69,0
114960,note_on,2,0,5,,,,,,,,4,,,76,110
114960,note_on,2,0,3,,,,,,,,2,,,72,110
114960,note_on,2,0,1,,,,,,,,0,,,69,110
114960,note_on,2,0,7,,,,,,,,6,,,64,110
115006,note_on,94,0,11,,,,,,,,11,,,64,0
115006,note_on,0,0,2,,,,,,,,1,,,45,0
115006,note_on,94,0,8,,,,,,,,7,,,45,0
115006,note_on,46,0,1,,,,,,,,0,,,69,0
115006,note_on,94,0,9,,,,,,,,8,,,72,0
115006,note_on,94,0,10,,,,,,,,10,,,69,0
115006,note_on,46,0,3,,,,,,,,2,,,72,0
115006,note_on,46,0,5,,,,,,,,4,,,76,0
115006,note_on,94,0,12,,,,,,,,12,,,45,0
115006,note_on,94,0,2,,,,,,,,1,,,57,0
115006,note_on,94,0,4,,,,,,,,3,,,48,0
115006,note_on,94,0,6,,,,,,,,5,,,45,0
115006,note_on,46,0,7,,,,,,,,6,,,64,0
115008,note_on,2,0,6,,,,,,,,5,,,48,110
115008,note_on,2,0,12,,,,,,,,12,,,45,92
115008,note_on,2,0,4,,,,,,,,3,,,52,110
115008,note_on,2,0,8,,,,,,,,7,,,57,110
115008,note_on,2,0,5,,,,,,,,4,,,72,110
115008,note_on,2,0,7,,,,,,,,6,,,69,110
115008,note_on,2,0,1,,,,,,,,0,,,64,110
115008,note_on,0,0,2,,,,,,,,1,,,57,110
115008,note_on,2,0,11,,,,,,,,11,,,64,92
115008,note_on,2,0,9,,,,,,,,8,,,72,92
115008,note_on,2,0,10,,,,,,,,10,,,69,92
115008,note_on,2,0,3,,,,,,,,2,,,69,110
115008,note_on,2,0,2,,,,,,,,1,,,45,110
115054,note_on,46,0,5,,,,,,,,4,,,72,0
115054,note_on,46,0,3,,,,,,,,2,,,69,0
115054,note_on,46,0,1,,,,,,,,0,,,64,0
115054,note_on,46,0,7,,,,,,,,6,,,69,0
115056,note_on,2,0,3,,,,,,,,2,,,64,110
115056,note_on,2,0,7,,,,,,,,6,,,72,110
115056,note_on,2,0,5,,,,,,,,4,,,69,110
115056,note_on,2,0,1,,,,,,,,0,,,69,110
115102,note_on,46,0,3,,,,,,,,2,,,64,0
115102,note_on,46,0,5,,,,,,,,4,,,69,0
115102,note_on,46,0,1,,,,,,,,0,,,69,0
115102,note_on,94,0,11,,,,,,,,11,,,64,0
115102,note_on,94,0,8,,,,,,,,7,,,57,0
115102,note_on,46,0,7,,,,,,,,6,,,72,0
115102,note_on,94,0,9,,,,,,,,8,,,72,0
115102,note_on,94,0,12,,,,,,,,12,,,45,0
115102,note_on,94,0,2,,,,,,,,1,,,57,0
115102,note_on,94,0,10,,,,,,,,10,,,69,0
115102,note_on,0,0,2,,,,,,,,1,,,45,0
115102,note_on,94,0,4,,,,,,,,3,,,52,0
115102,note_on,94,0,6,,,,,,,,5,,,48,0
115104,note_on,2,0,2,,,,,,,,1,,,45,110
115104,note_on,2,0,12,,,,,,,,12,,,45,92
115104,note_on,2,0,5,,,,,,,,4,,,64,110
115104,note_on,2,0,4,,,,,,,,3,,,45,110
115104,note_on,2,0,3,,,,,,,,2,,,69,110
115104,note_on,2,0,7,,,,,,,,6,,,69,110
115104,note_on,2,0,11,,,,,,,,11,,,64,92
115104,note_on,2,0,1,,,,,,,,0,,,72,110
115104,note_on,2,0,6,,,,,,,,5,,,52,110
115104,note_on,0,0,2,,,,,,,,1,,,57,110
115104,note_on,2,0,8,,,,,,,,7,,,45,110
115104,note_on,2,0,9,,,,,,,,8,,,72,92
115104,note_on,2,0,10,,,,,,,,10,,,69,92
115150,note_on,46,0,1,,,,,,,,0,,,72,0
115150,note_on,46,0,7,,,,,,,,6,,,69,0
115150,note_on,46,0,5,,,,,,,,4,,,64,0
115150,note_on,46,0,3,,,,,,,,2,,,69,0
115152,note_on,2,0,1,,,,,,,,0,,,69,110
115152,note_on,2,0,3,,,,,,,,2,,,72,110
115152,note_on,2,0,5,,,,,,,,4,,,69,110
115152,note_on,2,0,7,,,,,,,,6,,,64,110
115198,note_on,46,0,5,,,,,,,,4,,,69,0
115198,note_on,94,0,12,,,,,,,,12,,,45,0
115198,note_on,94,0,6,,,,,,,,5,,,52,0
115198,note_on,0,0,2,,,,,,,,1,,,45,0
115198,note_on,46,0,1,,,,,,,,0,,,69,0
115198,note_on,46,0,3,,,,,,,,2,,,72,0
115198,note_on,94,0,4,,,,,,,,3,,,45,0
115198,note_on,94,0,11,,,,,,,,11,,,64,0
115198,note_on,94,0,10,,,,,,,,10,,,69,0
115198,note_on,94,0,9,,,,,,,,8,,,72,0
115198,note_on,94,0,8,,,,,,,,7,,,45,0
115198,note_on,46,0,7,,,,,,,,6,,,64,0
115198,note_on,94,0,2,,,,,,,,1,,,57,0
115200,note_on,2,0,6,,,,,,,,5,,,50,110
115200,note_on,2,0,7,,,,,,,,6,,,69,110
115200,note_on,2,0,4,,,,,,,,3,,,50,110
115200,note_on,0,0,2,,,,,,,,1,,,50,110
115200,note_on,2,0,9,,,,,,,,8,,,71,92
115200,note_on,2,0,2,,,,,,,,1,,,38,110
115200,note_on,2,0,8,,,,,,,,7,,,53,110
115200,note_on,2,0,1,,,,,,,,0,,,71,110
115200,note_on,2,0,11,,,,,,,,11,,,65,92
115200,note_on,2,0,12,,,,,,,,12,,,50,92
115200,note_on,2,0,5,,,,,,,,4,,,71,110
115200,note_on,2,0,3,,,,,,,,2,,,69,110
115200,note_on,2,0,10,,,,,,,,10,,,69,92
115246,note_on,46,0,5,,,,,,,,4,,,71,0
115246,note_on,46,0,3,,,,,,,,2,,,69,0
115246,note_on,46,0,7,,,,,,,,6,,,69,0
115246,note_on,46,0,1,,,,,,,,0,,,71,0
115248,note_on,2,0,1,,,,,,,,0,,,69,110
115248,note_on,2,0,5,,,,,,,,4,,,74,110
115248,note_on,2,0,3,,,,,,,,2,,,71,110
115248,note_on,2,0,7,,,,,,,,6,,,65,110
115294,note_on,94,0,4,,,,,,,,3,,,50,0
115294,note_on,94,0,8,,,,,,,,7,,,53,0
115294,note_on,94,0,10,,,,,,,,10,,,69,0
115294,note_on,46,0,3,,,,,,,,2,,,71,0
115294,note_on,46,0,5,,,,,,,,4,,,74,0
115294,note_on,94,0,9,,,,,,,,8,,,71,0
115294,note_on,46,0,1,,,,,,,,0,,,69,0
115294,note_on,94,0,6,,,,,,,,5,,,50,0
115294,note_on,94,0,11,,,,,,,,11,,,65,0
115294,note_on,0,0,2,,,,,,,,1,,,38,0
115294,note_on,94,0,2,,,,,,,,1,,,50,0
115294,note_on,94,0,12,,,,,,,,12,,,50,0
115294,note_on,46,0,7,,,,,,,,6,,,65,0
115296,note_on,2,0,6,,,,,,,,5,,,38,110
115296,note_on,2,0,10,,,,,,,,10,,,69,92
115296,note_on,2,0,5,,,,,,,,4,,,71,110
115296,note_on,2,0,9,,,,,,,,8,,,71,92
115296,note_on,2,0,2,,,,,,,,1,,,38,110
115296,note_on,0,0,2,,,,,,,,1,,,50,110
115296,note_on,2,0,3,,,,,,,,2,,,69,110
115296,note_on,2,0,4,,,,,,,,3,,,53,110
115296,note_on,2,0,7,,,,,,,,6,,,69,110
115296,note_on,2,0,12,,,,,,,,12,,,50,92
115296,note_on,2,0,11,,,,,,,,11,,,65,92
115296,note_on,2,0,8,,,,,,,,7,,,50,110
115296,note_on,2,0,1,,,,,,,,0,,,65,110
115342,note_on,46,0,1,,,,,,,,0,,,65,0
115342,note_on,46,0,5,,,,,,,,4,,,71,0
115342,note_on,46,0,3,,,,,,,,2,,,69,0
115342,note_on,46,0,7,,,,,,,,6,,,69,0
115344,note_on,2,0,1,,,,,,,,0,,,69,110
115344,note_on,2,0,5,,,,,,,,4,,,69,110
115344,note_on,2,0,3,,,,,,,,2,,,65,110
115344,note_on,2,0,7,,,,,,,,6,,,71,110
115390,note_on,46,0,7,,,,,,,,6,,,71,0
115390,note_on,46,0,3,,,,,,,,2,,,65,0
115390,note_on,94,0,9,,,,,,,,8,,,71,0
115390,note_on,94,0,12,,,,,,,,12,,,50,0
115390,note_on,94,0,11,,,,,,,,11,,,65,0
115390,note_on,94,0,4,,,,,,,,3,,,53,0
115390,note_on,0,0,2,,,,,,,,1,,,38,0
115390,note_on,46,0,5,,,,,,,,4,,,69,0
115390,note_on,46,0,1,,,,,,,,0,,,69,0
115390,note_on,94,0,8,,,,,,,,7,,,50,0
115390,note_on,94,0,2,,,,,,,,1,,,50,0
115390,note_on,94,0,10,,,,,,,,10,,,69,0
115390,note_on,94,0,6,,,,,,,,5,,,38,0
115392,note_on,2,0,7,,,,,,,,6,,,69,110
115392,note_on,2,0,4,,,,,,,,3,,,50,110
115392,note_on,2,0,5,,,,,,,,4,,,65,110
115392,note_on,2,0,3,,,,,,,,2,,,69,110
115392,note_on,2,0,8,,,,,,,,7,,,53,110
115392,note_on,2,0,2,,,,,,,,1,,,38,110
115392,note_on,2,0,10,,,,,,,,10,,,69,92
115392,note_on,2,0,6,,,,,,,,5,,,50,110
115392,note_on,2,0,11,,,,,,,,11,,,65,92
115392,note_on,2,0,9,,,,,,,,8,,,71,92
115392,note_on,2,0,1,,,,,,,,0,,,71,110
115392,note_on,0,0,2,,,,,,,,1,,,50,110
115392,note_on,2,0,12,,,,,,,,12,,,50,92
115438,note_on,46,0,7,,,,,,,,6,,,69,0
115438,note_on,46,0,3,,,,,,,,2,,,69,0
115438,note_on,46,0,5,,,,,,,,4,,,65,0
115438,note_on,46,0,1,,,,,,,,0,,,71,0
115440,note_on,2,0,7,,,,,,,,6,,,65,110
115440,note_on,2,0,3,,,,,,,,2,,,71,110
115440,note_on,2,0,5,,,,,,,,4,,,69,110
115440,note_on,2,0,1,,,,,,,,0,,,69,110
115486,note_on,94,0,12,,,,,,,,12,,,50,0
115486,note_on,94,0,11,,,,,,,,11,,,65,0
115486,note_on,94,0,9,,,,,,,,8,,,71,0
115486,note_on,46,0,1,,,,,,,,0,,,69,0
115486,note_on,94,0,2,,,,,,,,1,,,50,0
115486,note_on,46,0,3,,,,,,,,2,,,71,0
115486,note_on,94,0,6,,,,,,,,5,,,50,0
115486,note_on,0,0,2,,,,,,,,1,,,38,0
115486,note_on,94,0,8,,,,,,,,7,,,53,0
115486,note_on,94,0,4,,,,,,,,3,,,50,0
115486,note_on,94,0,10,,,,,,,,10,,,69,0
115486,note_on,46,0,5,,,,,,,,4,,,69,0
115486,note_on,46,0,7,,,,,,,,6,,,65,0
115488,note_on,2,0,2,,,,,,,,1,,,40,110
115488,note_on,2,0,6,,,,,,,,5,,,52,110
115488,note_on,0,0,2,,,,,,,,1,,,52,110
115488,note_on,2,0,5,,,,,,,,4,,,71,110
115488,note_on,2,0,11,,,,,,,,11,,,64,92
115488,note_on,2,0,9,,,,,,,,8,,,71,92
115488,note_on,2,0,4,,,,,,,,3,,,52,110
115488,note_on,2,0,8,,,,,,,,7,,,47,110
115488,note_on,2,0,10,,,,,,,,10,,,68,92
115488,note_on,2,0,7,,,,,,,,6,,,68,110
115488,note_on,2,0,12,,,,,,,,12,,,52,92
115488,note_on,2,0,1,,,,,,,,0,,,71,110
115488,note_on,2,0,3,,,,,,,,2,,,68,110
115534,note_on,46,0,3,,,,,,,,2,,,68,0
115534,note_on,46,0,1,,,,,,,,0,,,71,0
115534,note_on,46,0,5,,,,,,,,4,,,71,0
115534,note_on,46,0,7,,,,,,,,6,,,68,0
115536,note_on,2,0,3,,,,,,,,2,,,71,110
115536,note_on,2,0,7,,,,,,,,6,,,64,110
115536,note_on,2,0,1,,,,,,,,0,,,68,110
115536,note_on,2,0,5,,,,,,,,4,,,74,110
115582,note_on,94,0,10,,,,,,,,10,,,68,0
115582,note_on,94,0,8,,,,,,,,7,,,47,0
115582,note_on,94,0,4,,,,,,,,3,,,52,0
115582,note_on,94,0,11,,,,,,,,11,,,64,0
115582,note_on,46,0,5,,,,,,,,4,,,74,0
115582,note_on,46,0,7,,,,,,,,6,,,64,0
115582,note_on,46,0,1,,,,,,,,0,,,68,0
115582,note_on,94,0,12,,,,,,,,12,,,52,0
115582,note_on,0,0,2,,,,,,,,1,,,40,0
115582,note_on,94,0,2,,,,,,,,1,,,52,0
115582,note_on,94,0,6,,,,,,,,5,,,52,0
115582,note_on,46,0,3,,,,,,,,2,,,71,0
115582,note_on,94,0,9,,,,,,,,8,,,71,0
115584,note_on,2,0,7,,,,,,,,6,,,68,110
115584,note_on,0,0,2,,,,,,,,1,,,52,110
115584,note_on,2,0,4,,,,,,,,3,,,40,110
115584,note_on,2,0,2,,,,,,,,1,,,40,110
115584,note_on,2,0,12,,,,,,,,12,,,52,92
115584,note_on,2,0,11,,,,,,,,11,,,64,92
115584,note_on,2,0,1,,,,,,,,0,,,64,110
115584,note_on,2,0,6,,,,,,,,5,,,59,110
115584,note_on,2,0,9,,,,,,,,8,,,71,92
115584,note_on,2,0,5,,,,,,,,4,,,71,110
115584,note_on,2,0,8,,,,,,,,7,,,52,110
115584,note_on,2,0,3,,,,,,,,2,,,68,110
115584,note_on,2,0,10,,,,,,,,10,,,68,92
115630,note_on,46,0,5,,,,,,,,4,,,71,0
115630,note_on,46,0,1,,,,,,,,0,,,64,0
115630,note_on,46,0,7,,,,,,,,6,,,68,0
115630,note_on,46,0,3,,,,,,,,2,,,68,0
115632,note_on,2,0,5,,,,,,,,4,,,68,110
115632,note_on,2,0,7,,,,,,,,6,,,71,110
115632,note_on,2,0,1,,,,,,,,0,,,68,110
115632,note_on,2,0,3,,,,,,,,2,,,64,110
115678,note_on,0,0,2,,,,,,,,1,,,40,0
115678,note_on,46,0,3,,,,,,,,2,,,64,0
115678,note_on,94,0,8,,,,,,,,7,,,52,0
115678,note_on,94,0,6,,,,,,,,5,,,59,0
115678,note_on,46,0,1,,,,,,,,0,,,68,0
115678,note_on,46,0,5,,,,,,,,4,,,68,0
115678,note_on,94,0,11,,,,,,,,11,,,64,0
115678,note_on,94,0,10,,,,,,,,10,,,68,0
115678,note_on,46,0,7,,,,,,,,6,,,71,0
115678,note_on,94,0,4,,,,,,,,3,,,40,0
115678,note_on,94,0,2,,,,,,,,1,,,52,0
115678,note_on,94,0,12,,,,,,,,12,,,52,0
115678,note_on,94,0,9,,,,,,,,8,,,71,0
115680,note_on,2,0,5,,,,,,,,4,,,64,110
115680,note_on,2,0,7,,,,,,,,6,,,68,110
115680,note_on,2,0,8,,,,,,,,7,,,40,110
115680,note_on,2,0,2,,,,,,,,1,,,40,110
115680,note_on,2,0,9,,,,,,,,8,,,71,92
115680,note_on,2,0,11,,,,,,,,11,,,62,92
115680,note_on,2,0,6,,,,,,,,5,,,62,110
115680,note_on,2,0,1,,,,,,,,0,,,71,110
115680,note_on,2,0,12,,,,,,,,12,,,52,92
115680,note_on,0,0,2,,,,,,,,1,,,52,110
115680,note_on,2,0,3,,,,,,,,2,,,68,110
115680,note_on,2,0,10,,,,,,,,10,,,68,92
115680,note_on,2,0,4,,,,,,,,3,,,52,110
115726,note_on,46,0,5,,,,,,,,4,,,64,0
115726,note_on,46,0,1,,,,,,,,0,,,71,0
115726,note_on,46,0,3,,,,,,,,2,,,68,0
115726,note_on,46,0,7,,,,,,,,6,,,68,0
115728,note_on,2,0,3,,,,,,,,2,,,71,110
115728,note_on,2,0,7,,,,,,,,6,,,64,110
115728,note_on,2,0,1,,,,,,,,0,,,68,110
115728,note_on,2,0,5,,,,,,,,4,,,68,110
115774,note_on,94,0,9,,,,,,,,8,,,71,0
115774,note_on,94,0,11,,,,,,,,11,,,62,0
115774,note_on,94,0,6,,,,,,,,5,,,62,0
115774,note_on,46,0,5,,,,,,,,4,,,68,0
115774,note_on,94,0,10,,,,,,,,10,,,68,0
115774,note_on,94,0,4,,,,,,,,3,,,52,0
115774,note_on,94,0,8,,,,,,,,7,,,40,0
115774,note_on,46,0,1,,,,,,,,0,,,68,0
115774,note_on,46,0,7,,,,,,,,6,,,64,0
115774,note_on,94,0,2,,,,,,,,1,,,52,0
115774,note_on,0,0,2,,,,,,,,1,,,40,0
115774,note_on,46,0,3,,,,,,,,2,,,71,0
115774,note_on,94,0,12,,,,,,,,12,,,52,0
115776,note_on,2,0,7,,,,,,,,6,,,60,110
115776,note_on,0,0,6,,,,,,,,5,,,60,110
115776,note_on,0,0,2,,,,,,,,1,,,52,110
115776,note_on,2,0,4,,,,,,,,3,,,45,110
115776,note_on,2,0,10,,,,,,,,10,,,64,45
115776,note_on,0,0,2,,,,,,,,1,,,48,110
115776,note_on,2,0,9,,,,,,,,8,,,69,45
115776,note_on,2,0,6,,,,,,,,5,,,57,110
115776,note_on,0,0,7,,,,,,,,6,,,64,110
115776,note_on,2,0,8,,,,,,,,7,,,45,110
115776,note_on,2,0,2,,,,,,,,1,,,45,110
115776,note_on,2,0,5,,,,,,,,4,,,69,110
115776,note_on,2,0,1,,,,,,,,0,,,69,110
115776,note_on,2,0,12,,,,,,,,12,,,45,45
115776,note_on,0,0,7,,,,,,,,6,,,69,110
115776,note_on,2,0,11,,,,,,,,11,,,60,45
115776,note_on,2,0,3,,,,,,,,2,,,69,110
115776,note_on,0,0,2,,,,,,,,1,,,57,110
115822,note_on,46,0,1,,,,,,,,0,,,69,0
115824,note_on,2,0,1,,,,,,,,0,,,64,110
115870,note_on,46,0,1,,,,,,,,0,,,64,0
115872,note_on,2,0,1,,,,,,,,0,,,60,110
115918,note_on,46,0,1,,,,,,,,0,,,60,0
115920,note_on,2,0,1,,,,,,,,0,,,64,110
115936,note_on,0,0,6,,,,,,,,5,,,57,0
115936,note_on,160,0,8,,,,,,,,7,,,45,0
115936,note_on,0,0,7,,,,,,,,6,,,60,0
115936,note_on,0,0,7,,,,,,,,6,,,64,0
115936,note_on,160,0,7,,,,,,,,6,,,69,0
115936,note_on,160,0,12,,,,,,,,12,,,45,0
115936,note_on,160,0,4,,,,,,,,3,,,45,0
115936,note_on,160,0,6,,,,,,,,5,,,60,0
115936,note_on,160,0,5,,,,,,,,4,,,69,0
115936,note_on,160,0,11,,,,,,,,11,,,60,0
115936,note_on,160,0,9,,,,,,,,8,,,69,0
115936,note_on,0,0,2,,,,,,,,1,,,52,0
115936,note_on,0,0,2,,,,,,,,1,,,48,0
115936,note_on,0,0,2,,,,,,,,1,,,45,0
115936,note_on,160,0,2,,,,,,,,1,,,57,0
115936,note_on,160,0,10,,,,,,,,10,,,64,0
115936,note_on,160,0,3,,,,,,,,2,,,69,0
115966,note_on,46,0,1,,,,,,,,0,,,64,0
115968,note_on,2,0,1,,,,,,,,0,,,69,110
116014,note_on,46,0,1,,,,,,,,0,,,69,0
116016,note_on,2,0,1,,,,,,,,0,,,71,110
116062,note_on,46,0,1,,,,,,,,0,,,71,0
116064,note_on,128,0,12,,,,,,,,12,,,57,45
116064,note_on,128,0,10,,,,,,,,10,,,69,45
116064,note_on,128,0,2,,,,,,,,1,,,45,110
116064,note_on,0,0,2,,,,,,,,1,,,48,110
116064,note_on,0,0,2,,,,,,,,1,,,52,110
116064,note_on,0,0,2,,,,,,,,1,,,57,110
116064,note_on,128,0,11,,,,,,,,11,,,64,45
116064,note_on,2,0,1,,,,,,,,0,,,69,110
116064,note_on,128,0,9,,,,,,,,8,,,72,45
116110,note_on,46,0,1,,,,,,,,0,,,69,0
116112,note_on,2,0,1,,,,,,,,0,,,64,110
116158,note_on,46,0,1,,,,,,,,0,,,64,0
116160,note_on,2,0,1,,,,,,,,0,,,60,110
116206,note_on,46,0,1,,,,,,,,0,,,60,0
116208,note_on,2,0,1,,,,,,,,0,,,64,110
116224,note_on,160,0,10,,,,,,,,10,,,69,0
116224,note_on,160,0,2,,,,,,,,1,,,57,0
116224,note_on,160,0,11,,,,,,,,11,,,64,0
116224,note_on,160,0,12,,,,,,,,12,,,57,0
116224,note_on,0,0,2,,,,,,,,1,,,48,0
116224,note_on,0,0,2,,,,,,,,1,,,45,0
116224,note_on,160,0,9,,,,,,,,8,,,72,0
116224,note_on,0,0,2,,,,,,,,1,,,52,0
116254,note_on,46,0,1,,,,,,,,0,,,64,0
116256,note_on,2,0,1,,,,,,,,0,,,69,110
116302,note_on,46,0,1,,,,,,,,0,,,69,0
116304,note_on,2,0,1,,,,,,,,0,,,72,110
116350,note_on,46,0,1,,,,,,,,0,,,72,0
116352,note_on,2,0,1,,,,,,,,0,,,71,110
116352,note_on,128,0,11,,,,,,,,11,,,64,45
116352,note_on,128,0,12,,,,,,,,12,,,52,45
116352,note_on,128,0,9,,,,,,,,8,,,71,45
116352,note_on,0,0,2,,,,,,,,1,,,56,110
116352,note_on,128,0,2,,,,,,,,1,,,52,110
116352,note_on,128,0,10,,,,,,,,10,,,68,45
116398,note_on,46,0,1,,,,,,,,0,,,71,0
116400,note_on,2,0,1,,,,,,,,0,,,68,110
116446,note_on,46,0,1,,,,,,,,0,,,68,0
116448,note_on,2,0,1,,,,,,,,0,,,64,110
116494,note_on,46,0,1,,,,,,,,0,,,64,0
116496,note_on,2,0,1,,,,,,,,0,,,68,110
116512,note_on,160,0,2,,,,,,,,1,,,56,0
116512,note_on,160,0,11,,,,,,,,11,,,64,0
116512,note_on,160,0,9,,,,,,,,8,,,71,0
116512,note_on,160,0,12,,,,,,,,12,,,52,0
116512,note_on,0,0,2,,,,,,,,1,,,52,0
116512,note_on,160,0,10,,,,,,,,10,,,68,0
116542,note_on,46,0,1,,,,,,,,0,,,68,0
116544,note_on,2,0,1,,,,,,,,0,,,71,110
116590,note_on,46,0,1,,,,,,,,0,,,71,0
116592,note_on,2,0,1,,,,,,,,0,,,72,110
116638,note_on,46,0,1,,,,,,,,0,,,72,0
116640,note_on,128,0,10,,,,,,,,10,,,71,45
116640,note_on,128,0,2,,,,,,,,1,,,56,110
116640,note_on,0,0,2,,,,,,,,1,,,59,110
116640,note_on,128,0,11,,,,,,,,11,,,68,45
116640,note_on,128,0,12,,,,,,,,12,,,40,45
116640,note_on,128,0,9,,,,,,,,8,,,74,45
116640,note_on,2,0,1,,,,,,,,0,,,71,110
116686,note_on,46,0,1,,,,,,,,0,,,71,0
116688,note_on,2,0,1,,,,,,,,0,,,68,110
116734,note_on,46,0,1,,,,,,,,0,,,68,0
116736,note_on,2,0,1,,,,,,,,0,,,64,110
116782,note_on,46,0,1,,,,,,,,0,,,64,0
116784,note_on,2,0,1,,,,,,,,0,,,68,110
116800,note_on,160,0,9,,,,,,,,8,,,74,0
116800,note_on,160,0,11,,,,,,,,11,,,68,0
116800,note_on,160,0,12,,,,,,,,12,,,40,0
116800,note_on,160,0,2,,,,,,,,1,,,59,0
116800,note_on,0,0,2,,,,,,,,1,,,56,0
116800,note_on,160,0,10,,,,,,,,10,,,71,0
116830,note_on,46,0,1,,,,,,,,0,,,68,0
116832,note_on,2,0,1,,,,,,,,0,,,71,110
116878,note_on,46,0,1,,,,,,,,0,,,71,0
116880,note_on,2,0,1,,,,,,,,0,,,74,110
116926,note_on,46,0,1,,,,,,,,0,,,74,0
116928,note_on,2,0,1,,,,,,,,0,,,72,110
116928,note_on,128,0,12,,,,,,,,12,,,45,45
116928,note_on,128,0,10,,,,,,,,10,,,69,45
116928,note_on,128,0,9,,,,,,,,8,,,72,45
116928,note_on,128,0,11,,,,,,,,11,,,64,45
116928,note_on,128,0,2,,,,,,,,1,,,57,110
116974,note_on,46,0,1,,,,,,,,0,,,72,0
116974,note_on,46,0,2,,,,,,,,1,,,57,0
116976,note_on,2,0,1,,,,,,,,0,,,71,110
116976,note_on,2,0,2,,,,,,,,1,,,52,110
117022,note_on,46,0,2,,,,,,,,1,,,52,0
117022,note_on,46,0,1,,,,,,,,0,,,71,0
117024,note_on,2,0,2,,,,,,,,1,,,54,110
117024,note_on,2,0,1,,,,,,,,0,,,69,110
117070,note_on,46,0,2,,,,,,,,1,,,54,0
117070,note_on,46,0,1,,,,,,,,0,,,69,0
117072,note_on,2,0,1,,,,,,,,0,,,71,110
117072,note_on,2,0,2,,,,,,,,1,,,56,110
117088,note_on,160,0,11,,,,,,,,11,,,64,0
117088,note_on,160,0,9,,,,,,,,8,,,72,0
117088,note_on,160,0,12,,,,,,,,12,,,45,0
117088,note_on,160,0,10,,,,,,,,10,,,69,0
117118,note_on,46,0,2,,,,,,,,1,,,56,0
117118,note_on,46,0,1,,,,,,,,0,,,71,0
117120,note_on,2,0,1,,,,,,,,0,,,72,110
117120,note_on,2,0,2,,,,,,,,1,,,57,110
117166,note_on,46,0,1,,,,,,,,0,,,72,0
117166,note_on,46,0,2,,,,,,,,1,,,57,0
117168,note_on,2,0,1,,,,,,,,0,,,74,110
117168,note_on,2,0,2,,,,,,,,1,,,59,110
117214,note_on,46,0,1,,,,,,,,0,,,74,0
117214,note_on,46,0,2,,,,,,,,1,,,59,0
117216,note_on,128,0,11,,,,,,,,11,,,60,45
117216,note_on,128,0,12,,,,,,,,12,,,57,45
117216,note_on,2,0,2,,,,,,,,1,,,60,110
117216,note_on,2,0,1,,,,,,,,0,,,76,110
117216,note_on,128,0,10,,,,,,,,10,,,69,45
117216,note_on,128,0,9,,,,,,,,8,,,76,45
117310,note_on,94,0,2,,,,,,,,1,,,60,0
117310,note_on,94,0,1,,,,,,,,0,,,76,0
117312,note_on,2,0,1,,,,,,,,0,,,74,110
117312,note_on,2,0,2,,,,,,,,1,,,57,110
117358,note_on,46,0,1,,,,,,,,0,,,74,0
117360,note_on,2,0,1,,,,,,,,0,,,72,110
117376,note_on,160,0,11,,,,,,,,11,,,60,0
117376,note_on,160,0,10,,,,,,,,10,,,69,0
117376,note_on,160,0,12,,,,,,,,12,,,57,0
117376,note_on,160,0,9,,,,,,,,8,,,76,0
117406,note_on,46,0,1,,,,,,,,0,,,72,0
117406,note_on,94,0,2,,,,,,,,1,,,57,0
117408,note_on,2,0,2,,,,,,,,1,,,60,110
117408,note_on,2,0,1,,,,,,,,0,,,71,110
117454,note_on,46,0,1,,,,,,,,0,,,71,0
117456,note_on,2,0,1,,,,,,,,0,,,69,110
117502,note_on,94,0,2,,,,,,,,1,,,60,0
117502,note_on,46,0,1,,,,,,,,0,,,69,0
117504,note_on,128,0,9,,,,,,,,8,,,77,45
117504,note_on,2,0,2,,,,,,,,1,,,62,110
117504,note_on,128,0,12,,,,,,,,12,,,50,45
117504,note_on,2,0,1,,,,,,,,0,,,77,110
117504,note_on,128,0,11,,,,,,,,11,,,62,45
117504,note_on,128,0,10,,,,,,,,10,,,69,45
117598,note_on,94,0,1,,,,,,,,0,,,77,0
117598,note_on,94,0,2,,,,,,,,1,,,62,0
117600,note_on,2,0,1,,,,,,,,0,,,76,110
117600,note_on,2,0,2,,,,,,,,1,,,59,110
117646,note_on,46,0,1,,,,,,,,0,,,76,0
117648,note_on,2,0,1,,,,,,,,0,,,74,110
117664,note_on,160,0,11,,,,,,,,11,,,62,0
117664,note_on,160,0,10,,,,,,,,10,,,69,0
117664,note_on,160,0,12,,,,,,,,12,,,50,0
117664,note_on,160,0,9,,,,,,,,8,,,77,0
117694,note_on,46,0,1,,,,,,,,0,,,74,0
117694,note_on,94,0,2,,,,,,,,1,,,59,0
117696,note_on,2,0,1,,,,,,,,0,,,72,110
117696,note_on,2,0,2,,,,,,,,1,,,62,110
117742,note_on,46,0,1,,,,,,,,0,,,72,0
117744,note_on,2,0,1,,,,,,,,0,,,71,110
117790,note_on,46,0,1,,,,,,,,0,,,71,0
117790,note_on,94,0,2,,,,,,,,1,,,62,0
117792,note_on,2,0,2,,,,,,,,1,,,60,110
117792,note_on,128,0,10,,,,,,,,10,,,72,45
117792,note_on,128,0,12,,,,,,,,12,,,45,45
117792,note_on,128,0,9,,,,,,,,8,,,81,45
117792,note_on,2,0,1,,,,,,,,0,,,76,110
117792,note_on,128,0,11,,,,,,,,11,,,64,45
117838,note_on,46,0,2,,,,,,,,1,,,60,0
117840,note_on,2,0,2,,,,,,,,1,,,56,110
117886,note_on,46,0,2,,,,,,,,1,,,56,0
117886,note_on,94,0,1,,,,,,,,0,,,76,0
117888,note_on,2,0,2,,,,,,,,1,,,57,110
117888,note_on,2,0,1,,,,,,,,0,,,74,110
117934,note_on,46,0,2,,,,,,,,1,,,57,0
117934,note_on,46,0,1,,,,,,,,0,,,74,0
117936,note_on,2,0,2,,,,,,,,1,,,59,110
117936,note_on,2,0,1,,,,,,,,0,,,72,110
117952,note_on,160,0,12,,,,,,,,12,,,45,0
117952,note_on,160,0,11,,,,,,,,11,,,64,0
117952,note_on,160,0,10,,,,,,,,10,,,72,0
117952,note_on,160,0,9,,,,,,,,8,,,81,0
117982,note_on,46,0,2,,,,,,,,1,,,59,0
117982,note_on,46,0,1,,,,,,,,0,,,72,0
117984,note_on,2,0,1,,,,,,,,0,,,71,110
117984,note_on,2,0,2,,,,,,,,1,,,60,110
118030,note_on,46,0,2,,,,,,,,1,,,60,0
118030,note_on,46,0,1,,,,,,,,0,,,71,0
118032,note_on,2,0,1,,,,,,,,0,,,69,110
118032,note_on,2,0,2,,,,,,,,1,,,62,110
118078,note_on,46,0,1,,,,,,,,0,,,69,0
118078,note_on,46,0,2,,,,,,,,1,,,62,0
118080,note_on,2,0,2,,,,,,,,1,,,64,110
118080,note_on,128,0,9,,,,,,,,8,,,80,45
118080,note_on,128,0,12,,,,,,,,12,,,52,45
118080,note_on,128,0,10,,,,,,,,10,,,71,45
118080,note_on,128,0,11,,,,,,,,11,,,64,45
118080,note_on,2,0,1,,,,,,,,0,,,80,110
118126,note_on,46,0,1,,,,,,,,0,,,80,0
118128,note_on,2,0,1,,,,,,,,0,,,81,110
118174,note_on,94,0,9,,,,,,,,8,,,80,0
118174,note_on,46,0,1,,,,,,,,0,,,81,0
118174,note_on,94,0,2,,,,,,,,1,,,64,0
118176,note_on,2,0,1,,,,,,,,0,,,78,110
118176,note_on,2,0,9,,,,,,,,8,,,78,45
118176,note_on,2,0,2,,,,,,,,1,,,62,110
118222,note_on,46,0,1,,,,,,,,0,,,78,0
118222,note_on,46,0,2,,,,,,,,1,,,62,0
118224,note_on,2,0,1,,,,,,,,0,,,80,110
118224,note_on,2,0,2,,,,,,,,1,,,60,110
118240,note_on,160,0,11,,,,,,,,11,,,64,0
118240,note_on,160,0,10,,,,,,,,10,,,71,0
118270,note_on,94,0,9,,,,,,,,8,,,78,0
118270,note_on,46,0,2,,,,,,,,1,,,60,0
118270,note_on,46,0,1,,,,,,,,0,,,80,0
118272,note_on,2,0,2,,,,,,,,1,,,59,110
118272,note_on,2,0,1,,,,,,,,0,,,76,110
118272,note_on,2,0,9,,,,,,,,8,,,76,45
118318,note_on,46,0,2,,,,,,,,1,,,59,0
118320,note_on,2,0,2,,,,,,,,1,,,57,110
118336,note_on,256,0,12,,,,,,,,12,,,52,0
118366,note_on,94,0,1,,,,,,,,0,,,76,0
118366,note_on,46,0,2,,,,,,,,1,,,57,0
118366,note_on,94,0,9,,,,,,,,8,,,76,0
118368,note_on,2,0,2,,,,,,,,1,,,56,110
118368,note_on,32,0,12,,,,,,,,12,,,40,45
118414,note_on,46,0,2,,,,,,,,1,,,56,0
118416,note_on,2,0,2,,,,,,,,1,,,54,110
118462,note_on,94,0,12,,,,,,,,12,,,40,0
118462,note_on,46,0,2,,,,,,,,1,,,54,0
118464,note_on,2,0,2,,,,,,,,1,,,52,110
118464,note_on,2,0,12,,,,,,,,12,,,52,45
118510,note_on,46,0,2,,,,,,,,1,,,52,0
118510,note_on,46,0,12,,,,,,,,12,,,52,0
118512,note_on,2,0,2,,,,,,,,1,,,50,110
118512,note_on,2,0,12,,,,,,,,12,,,50,45
118558,note_on,46,0,2,,,,,,,,1,,,50,0
118558,note_on,46,0,12,,,,,,,,12,,,50,0
118560,note_on,2,0,2,,,,,,,,1,,,49,110
118560,note_on,2,0,12,,,,,,,,12,,,49,45
118606,note_on,46,0,2,,,,,,,,1,,,49,0
118606,note_on,46,0,12,,,,,,,,12,,,49,0
118608,note_on,2,0,12,,,,,,,,12,,,47,45
118608,note_on,2,0,2,,,,,,,,1,,,47,110
118654,note_on,46,0,12,,,,,,,,12,,,47,0
118654,note_on,46,0,2,,,,,,,,1,,,47,0
118656,note_on,416,0,11,,,,,,,,11,,,69,45
118656,note_on,290,0,1,,,,,,,,0,,,76,110
118656,note_on,2,0,12,,,,,,,,12,,,45,45
118656,note_on,2,0,2,,,,,,,,1,,,45,110
118702,note_on,46,0,1,,,,,,,,0,,,76,0
118704,note_on,2,0,1,,,,,,,,0,,,73,110
118750,note_on,46,0,1,,,,,,,,0,,,73,0
118750,note_on,94,0,2,,,,,,,,1,,,45,0
118752,note_on,2,0,2,,,,,,,,1,,,49,110
118752,note_on,2,0,1,,,,,,,,0,,,69,110
118798,note_on,46,0,1,,,,,,,,0,,,69,0
118800,note_on,2,0,1,,,,,,,,0,,,76,110
118816,note_on,160,0,12,,,,,,,,12,,,45,0
118846,note_on,46,0,1,,,,,,,,0,,,76,0
118846,note_on,94,0,2,,,,,,,,1,,,49,0
118848,note_on,2,0,1,,,,,,,,0,,,73,110
118848,note_on,2,0,2,,,,,,,,1,,,52,110
118894,note_on,46,0,1,,,,,,,,0,,,73,0
118896,note_on,2,0,1,,,,,,,,0,,,69,110
118942,note_on,94,0,2,,,,,,,,1,,,52,0
118942,note_on,46,0,1,,,,,,,,0,,,69,0
118944,note_on,2,0,2,,,,,,,,1,,,49,110
118944,note_on,2,0,1,,,,,,,,0,,,76,110
118944,note_on,128,0,12,,,,,,,,12,,,49,45
118944,note_on,704,0,10,,,,,,,,10,,,76,45
118990,note_on,46,0,1,,,,,,,,0,,,76,0
118992,note_on,2,0,1,,,,,,,,0,,,73,110
119038,note_on,46,0,1,,,,,,,,0,,,73,0
119038,note_on,94,0,2,,,,,,,,1,,,49,0
119040,note_on,2,0,1,,,,,,,,0,,,69,110
119040,note_on,2,0,2,,,,,,,,1,,,52,110
119086,note_on,46,0,1,,,,,,,,0,,,69,0
119088,note_on,2,0,1,,,,,,,,0,,,76,110
119104,note_on,160,0,12,,,,,,,,12,,,49,0
119134,note_on,94,0,2,,,,,,,,1,,,52,0
119134,note_on,46,0,1,,,,,,,,0,,,76,0
119136,note_on,2,0,1,,,,,,,,0,,,73,110
119136,note_on,2,0,2,,,,,,,,1,,,57,110
119182,note_on,46,0,1,,,,,,,,0,,,73,0
119184,note_on,2,0,1,,,,,,,,0,,,69,110
119200,note_on,256,0,10,,,,,,,,10,,,76,0
119230,note_on,46,0,1,,,,,,,,0,,,69,0
119230,note_on,94,0,2,,,,,,,,1,,,57,0
119232,note_on,0,0,11,,,,,,,,11,,,69,45
119232,note_on,576,0,11,,,,,,,,11,,,69,0
119232,note_on,32,0,10,,,,,,,,10,,,77,45
119232,note_on,2,0,2,,,,,,,,1,,,50,110
119232,note_on,128,0,12,,,,,,,,12,,,50,45
119232,note_on,2,0,1,,,,,,,,0,,,77,110
119278,note_on,46,0,1,,,,,,,,0,,,77,0
119280,note_on,2,0,1,,,,,,,,0,,,74,110
119326,note_on,46,0,1,,,,,,,,0,,,74,0
119326,note_on,94,0,2,,,,,,,,1,,,50,0
119328,note_on,2,0,1,,,,,,,,0,,,69,110
119328,note_on,2,0,2,,,,,,,,1,,,53,110
119374,note_on,46,0,1,,,,,,,,0,,,69,0
119376,note_on,2,0,1,,,,,,,,0,,,77,110
119392,note_on,160,0,12,,,,,,,,12,,,50,0
119422,note_on,46,0,1,,,,,,,,0,,,77,0
119422,note_on,94,0,2,,,,,,,,1,,,53,0
119424,note_on,2,0,2,,,,,,,,1,,,57,110
119424,note_on,2,0,1,,,,,,,,0,,,74,110
119470,note_on,46,0,1,,,,,,,,0,,,74,0
119472,note_on,2,0,1,,,,,,,,0,,,69,110
119518,note_on,46,0,1,,,,,,,,0,,,69,0
119518,note_on,94,0,2,,,,,,,,1,,,57,0
119520,note_on,2,0,1,,,,,,,,0,,,77,110
119520,note_on,1154,0,9,,,,,,,,8,,,81,45
119520,note_on,128,0,12,,,,,,,,12,,,38,45
119520,note_on,2,0,2,,,,,,,,1,,,62,110
119566,note_on,46,0,1,,,,,,,,0,,,77,0
119568,note_on,2,0,1,,,,,,,,0,,,74,110
119614,note_on,94,0,2,,,,,,,,1,,,62,0
119614,note_on,46,0,1,,,,,,,,0,,,74,0
119616,note_on,2,0,2,,,,,,,,1,,,50,110
119616,note_on,2,0,1,,,,,,,,0,,,69,110
119662,note_on,46,0,2,,,,,,,,1,,,50,0
119662,note_on,46,0,1,,,,,,,,0,,,69,0
119664,note_on,2,0,2,,,,,,,,1,,,48,110
119664,note_on,2,0,1,,,,,,,,0,,,77,110
119680,note_on,160,0,12,,,,,,,,12,,,38,0
119710,note_on,46,0,2,,,,,,,,1,,,48,0
119710,note_on,46,0,1,,,,,,,,0,,,77,0
119712,note_on,2,0,1,,,,,,,,0,,,74,110
119712,note_on,2,0,2,,,,,,,,1,,,47,110
119758,note_on,46,0,2,,,,,,,,1,,,47,0
119758,note_on,46,0,1,,,,,,,,0,,,74,0
119760,note_on,528,0,11,,,,,,,,11,,,69,0
119760,note_on,2,0,2,,,,,,,,1,,,45,110
119760,note_on,2,0,1,,,,,,,,0,,,69,110
119776,note_on,256,0,9,,,,,,,,8,,,81,0
119806,note_on,46,0,2,,,,,,,,1,,,45,0
119806,note_on,46,0,1,,,,,,,,0,,,69,0
119808,note_on,2,0,2,,,,,,,,1,,,43,110
119808,note_on,48,0,11,,,,,,,,11,,,67,45
119808,note_on,2,0,1,,,,,,,,0,,,77,110
119808,note_on,128,0,12,,,,,,,,12,,,43,45
119808,note_on,32,0,9,,,,,,,,8,,,83,45
119854,note_on,46,0,1,,,,,,,,0,,,77,0
119856,note_on,2,0,1,,,,,,,,0,,,71,110
119902,note_on,46,0,1,,,,,,,,0,,,71,0
119902,note_on,94,0,2,,,,,,,,1,,,43,0
119904,note_on,2,0,1,,,,,,,,0,,,67,110
119904,note_on,2,0,2,,,,,,,,1,,,47,110
119950,note_on,46,0,1,,,,,,,,0,,,67,0
119952,note_on,2,0,1,,,,,,,,0,,,77,110
119968,note_on,160,0,12,,,,,,,,12,,,43,0
119998,note_on,94,0,2,,,,,,,,1,,,47,0
119998,note_on,46,0,1,,,,,,,,0,,,77,0
120000,note_on,2,0,2,,,,,,,,1,,,50,110
120000,note_on,2,0,1,,,,,,,,0,,,71,110
120046,note_on,46,0,1,,,,,,,,0,,,71,0
120048,note_on,2,0,1,,,,,,,,0,,,67,110
120094,note_on,46,0,1,,,,,,,,0,,,67,0
120094,note_on,94,0,2,,,,,,,,1,,,50,0
120096,note_on,2,0,2,,,,,,,,1,,,47,110
120096,note_on,128,0,12,,,,,,,,12,,,47,45
120096,note_on,2,0,1,,,,,,,,0,,,77,110
120142,note_on,46,0,1,,,,,,,,0,,,77,0
120144,note_on,2,0,1,,,,,,,,0,,,71,110
120190,note_on,46,0,1,,,,,,,,0,,,71,0
120190,note_on,94,0,2,,,,,,,,1,,,47,0
120192,note_on,2,0,1,,,,,,,,0,,,67,110
120192,note_on,2,0,2,,,,,,,,1,,,50,110
120238,note_on,46,0,1,,,,,,,,0,,,67,0
120240,note_on,2,0,1,,,,,,,,0,,,77,110
120256,note_on,160,0,12,,,,,,,,12,,,47,0
120286,note_on,94,0,2,,,,,,,,1,,,50,0
120286,note_on,46,0,1,,,,,,,,0,,,77,0
120288,note_on,2,0,1,,,,,,,,0,,,71,110
120288,note_on,2,0,2,,,,,,,,1,,,55,110
120334,note_on,46,0,1,,,,,,,,0,,,71,0
120336,note_on,2,0,1,,,,,,,,0,,,67,110
120336,note_on,1104,0,10,,,,,,,,10,,,77,0
120382,note_on,46,0,1,,,,,,,,0,,,67,0
120382,note_on,94,0,2,,,,,,,,1,,,55,0
120384,note_on,2,0,1,,,,,,,,0,,,76,110
120384,note_on,576,0,11,,,,,,,,11,,,67,0
120384,note_on,2,0,2,,,,,,,,1,,,48,110
120384,note_on,128,0,12,,,,,,,,12,,,48,45
120384,note_on,48,0,10,,,,,,,,10,,,76,45
120384,note_on,0,0,11,,,,,,,,11,,,67,45
120430,note_on,46,0,1,,,,,,,,0,,,76,0
120432,note_on,2,0,1,,,,,,,,0,,,72,110
120478,note_on,46,0,1,,,,,,,,0,,,72,0
120478,note_on,94,0,2,,,,,,,,1,,,48,0
120480,note_on,2,0,2,,,,,,,,1,,,52,110
120480,note_on,2,0,1,,,,,,,,0,,,67,110
120526,note_on,46,0,1,,,,,,,,0,,,67,0
120528,note_on,2,0,1,,,,,,,,0,,,76,110
120544,note_on,160,0,12,,,,,,,,12,,,48,0
120574,note_on,46,0,1,,,,,,,,0,,,76,0
120574,note_on,94,0,2,,,,,,,,1,,,52,0
120576,note_on,2,0,2,,,,,,,,1,,,55,110
120576,note_on,2,0,1,,,,,,,,0,,,72,110
120622,note_on,46,0,1,,,,,,,,0,,,72,0
120624,note_on,2,0,1,,,,,,,,0,,,67,110
120670,note_on,94,0,2,,,,,,,,1,,,55,0
120670,note_on,46,0,1,,,,,,,,0,,,67,0
120672,note_on,2,0,2,,,,,,,,1,,,60,110
120672,note_on,2,0,1,,,,,,,,0,,,76,110
120672,note_on,128,0,12,,,,,,,,12,,,36,45
120718,note_on,46,0,1,,,,,,,,0,,,76,0
120720,note_on,2,0,1,,,,,,,,0,,,72,110
120766,note_on,94,0,2,,,,,,,,1,,,60,0
120766,note_on,46,0,1,,,,,,,,0,,,72,0
120768,note_on,2,0,2,,,,,,,,1,,,48,110
120768,note_on,2,0,1,,,,,,,,0,,,67,110
120814,note_on,46,0,1,,,,,,,,0,,,67,0
120814,note_on,46,0,2,,,,,,,,1,,,48,0
120816,note_on,2,0,1,,,,,,,,0,,,76,110
120816,note_on,2,0,2,,,,,,,,1,,,47,110
120832,note_on,160,0,12,,,,,,,,12,,,36,0
120862,note_on,46,0,1,,,,,,,,0,,,76,0
120862,note_on,46,0,2,,,,,,,,1,,,47,0
120864,note_on,2,0,1,,,,,,,,0,,,72,110
120864,note_on,2,0,2,,,,,,,,1,,,45,110
120910,note_on,46,0,1,,,,,,,,0,,,72,0
120910,note_on,46,0,2,,,,,,,,1,,,45,0
120912,note_on,2,0,1,,,,,,,,0,,,67,110
120912,note_on,528,0,11,,,,,,,,11,,,67,0
120912,note_on,2,0,2,,,,,,,,1,,,43,110
120912,note_on,1104,0,9,,,,,,,,8,,,83,0
120958,note_on,46,0,1,,,,,,,,0,,,67,0
120958,note_on,46,0,2,,,,,,,,1,,,43,0
120960,note_on,128,0,12,,,,,,,,12,,,42,45
120960,note_on,48,0,11,,,,,,,,11,,,66,45
120960,note_on,2,0,2,,,,,,,,1,,,42,110
120960,note_on,48,0,9,,,,,,,,8,,,81,45
120960,note_on,2,0,1,,,,,,,,0,,,81,110
121006,note_on,46,0,1,,,,,,,,0,,,81,0
121008,note_on,2,0,1,,,,,,,,0,,,76,110
121054,note_on,46,0,1,,,,,,,,0,,,76,0
121054,note_on,94,0,2,,,,,,,,1,,,42,0
121056,note_on,2,0,2,,,,,,,,1,,,45,110
121056,note_on,2,0,1,,,,,,,,0,,,72,110
121102,note_on,46,0,1,,,,,,,,0,,,72,0
121104,note_on,2,0,1,,,,,,,,0,,,81,110
121120,note_on,160,0,12,,,,,,,,12,,,42,0
121150,note_on,46,0,1,,,,,,,,0,,,81,0
121150,note_on,94,0,2,,,,,,,,1,,,45,0
121152,note_on,2,0,1,,,,,,,,0,,,76,110
121152,note_on,2,0,2,,,,,,,,1,,,48,110
121198,note_on,46,0,1,,,,,,,,0,,,76,0
121200,note_on,2,0,1,,,,,,,,0,,,72,110
121246,note_on,46,0,1,,,,,,,,0,,,72,0
121246,note_on,94,0,2,,,,,,,,1,,,48,0
121248,note_on,128,0,12,,,,,,,,12,,,45,45
121248,note_on,2,0,1,,,,,,,,0,,,81,110
121248,note_on,2,0,2,,,,,,,,1,,,45,110
121294,note_on,46,0,1,,,,,,,,0,,,81,0
121296,note_on,2,0,1,,,,,,,,0,,,76,110
121342,note_on,94,0,2,,,,,,,,1,,,45,0
121342,note_on,46,0,1,,,,,,,,0,,,76,0
121344,note_on,2,0,2,,,,,,,,1,,,48,110
121344,note_on,2,0,1,,,,,,,,0,,,72,110
121390,note_on,46,0,1,,,,,,,,0,,,72,0
121392,note_on,2,0,1,,,,,,,,0,,,81,110
121408,note_on,160,0,12,,,,,,,,12,,,45,0
121438,note_on,46,0,1,,,,,,,,0,,,81,0
121438,note_on,94,0,2,,,,,,,,1,,,48,0
121440,note_on,2,0,2,,,,,,,,1,,,54,110
121440,note_on,2,0,1,,,,,,,,0,,,76,110
121486,note_on,46,0,1,,,,,,,,0,,,76,0
121488,note_on,1104,0,10,,,,,,,,10,,,76,0
121488,note_on,2,0,1,,,,,,,,0,,,72,110
121534,note_on,94,0,2,,,,,,,,1,,,54,0
121534,note_on,46,0,1,,,,,,,,0,,,72,0
121536,note_on,0,0,11,,,,,,,,11,,,66,45
121536,note_on,576,0,11,,,,,,,,11,,,66,0
121536,note_on,2,0,2,,,,,,,,1,,,47,110
121536,note_on,128,0,12,,,,,,,,12,,,47,45
121536,note_on,2,0,1,,,,,,,,0,,,81,110
121536,note_on,48,0,10,,,,,,,,10,,,75,45
121582,note_on,46,0,1,,,,,,,,0,,,81,0
121584,note_on,2,0,1,,,,,,,,0,,,75,110
121630,note_on,46,0,1,,,,,,,,0,,,75,0
121630,note_on,94,0,2,,,,,,,,1,,,47,0
121632,note_on,2,0,1,,,,,,,,0,,,71,110
121632,note_on,2,0,2,,,,,,,,1,,,51,110
121678,note_on,46,0,1,,,,,,,,0,,,71,0
121680,note_on,2,0,1,,,,,,,,0,,,81,110
121696,note_on,160,0,12,,,,,,,,12,,,47,0
121726,note_on,46,0,1,,,,,,,,0,,,81,0
121726,note_on,94,0,2,,,,,,,,1,,,51,0
121728,note_on,2,0,1,,,,,,,,0,,,75,110
121728,note_on,2,0,2,,,,,,,,1,,,54,110
121774,note_on,46,0,1,,,,,,,,0,,,75,0
121776,note_on,2,0,1,,,,,,,,0,,,71,110
121822,note_on,94,0,2,,,,,,,,1,,,54,0
121822,note_on,46,0,1,,,,,,,,0,,,71,0
121824,note_on,2,0,2,,,,,,,,1,,,59,110
121824,note_on,128,0,12,,,,,,,,12,,,59,45
121824,note_on,2,0,1,,,,,,,,0,,,81,110
121870,note_on,46,0,1,,,,,,,,0,,,81,0
121872,note_on,2,0,1,,,,,,,,0,,,75,110
121918,note_on,94,0,2,,,,,,,,1,,,59,0
121918,note_on,46,0,1,,,,,,,,0,,,75,0
121920,note_on,2,0,1,,,,,,,,0,,,71,110
121920,note_on,2,0,2,,,,,,,,1,,,47,110
121966,note_on,46,0,2,,,,,,,,1,,,47,0
121966,note_on,46,0,1,,,,,,,,0,,,71,0
121968,note_on,2,0,2,,,,,,,,1,,,45,110
121968,note_on,2,0,1,,,,,,,,0,,,81,110
121984,note_on,160,0,12,,,,,,,,12,,,59,0
122014,note_on,46,0,2,,,,,,,,1,,,45,0
122014,note_on,46,0,1,,,,,,,,0,,,81,0
122016,note_on,2,0,2,,,,,,,,1,,,43,110
122016,note_on,2,0,1,,,,,,,,0,,,75,110
122062,note_on,46,0,2,,,,,,,,1,,,43,0
122062,note_on,46,0,1,,,,,,,,0,,,75,0
122064,note_on,2,0,1,,,,,,,,0,,,71,110
122064,note_on,528,0,10,,,,,,,,10,,,75,0
122064,note_on,528,0,11,,,,,,,,11,,,66,0
122064,note_on,2,0,2,,,,,,,,1,,,42,110
122064,note_on,1104,0,9,,,,,,,,8,,,81,0
122110,note_on,46,0,1,,,,,,,,0,,,71,0
122110,note_on,46,0,2,,,,,,,,1,,,42,0
122112,note_on,48,0,11,,,,,,,,11,,,67,45
122112,note_on,48,0,10,,,,,,,,10,,,76,45
122112,note_on,2,0,2,,,,,,,,1,,,40,110
122112,note_on,48,0,9,,,,,,,,8,,,79,45
122112,note_on,128,0,12,,,,,,,,12,,,52,45
122112,note_on,2,0,1,,,,,,,,0,,,79,110
122158,note_on,46,0,1,,,,,,,,0,,,79,0
122160,note_on,2,0,1,,,,,,,,0,,,76,110
122206,note_on,46,0,1,,,,,,,,0,,,76,0
122206,note_on,94,0,2,,,,,,,,1,,,40,0
122208,note_on,2,0,2,,,,,,,,1,,,43,110
122208,note_on,2,0,1,,,,,,,,0,,,71,110
122254,note_on,46,0,1,,,,,,,,0,,,71,0
122256,note_on,2,0,1,,,,,,,,0,,,79,110
122272,note_on,160,0,12,,,,,,,,12,,,52,0
122302,note_on,94,0,2,,,,,,,,1,,,43,0
122302,note_on,46,0,1,,,,,,,,0,,,79,0
122304,note_on,2,0,2,,,,,,,,1,,,47,110
122304,note_on,2,0,1,,,,,,,,0,,,76,110
122350,note_on,46,0,1,,,,,,,,0,,,76,0
122352,note_on,2,0,1,,,,,,,,0,,,71,110
122368,note_on,256,0,11,,,,,,,,11,,,67,0
122398,note_on,94,0,2,,,,,,,,1,,,47,0
122398,note_on,46,0,1,,,,,,,,0,,,71,0
122400,note_on,128,0,12,,,,,,,,12,,,55,45
122400,note_on,32,0,11,,,,,,,,11,,,71,45
122400,note_on,2,0,1,,,,,,,,0,,,79,110
122400,note_on,2,0,2,,,,,,,,1,,,52,110
122446,note_on,46,0,1,,,,,,,,0,,,79,0
122446,note_on,46,0,2,,,,,,,,1,,,52,0
122448,note_on,2,0,1,,,,,,,,0,,,76,110
122448,note_on,2,0,2,,,,,,,,1,,,54,110
122494,note_on,46,0,1,,,,,,,,0,,,76,0
122494,note_on,46,0,2,,,,,,,,1,,,54,0
122496,note_on,2,0,1,,,,,,,,0,,,71,110
122496,note_on,2,0,2,,,,,,,,1,,,55,110
122542,note_on,46,0,2,,,,,,,,1,,,55,0
122542,note_on,46,0,1,,,,,,,,0,,,71,0
122544,note_on,2,0,2,,,,,,,,1,,,52,110
122544,note_on,2,0,1,,,,,,,,0,,,79,110
122560,note_on,160,0,12,,,,,,,,12,,,55,0
122590,note_on,46,0,2,,,,,,,,1,,,52,0
122590,note_on,46,0,1,,,,,,,,0,,,79,0
122592,note_on,2,0,1,,,,,,,,0,,,76,110
122592,note_on,2,0,2,,,,,,,,1,,,54,110
122638,note_on,46,0,2,,,,,,,,1,,,54,0
122638,note_on,46,0,1,,,,,,,,0,,,76,0
122640,note_on,528,0,9,,,,,,,,8,,,79,0
122640,note_on,2,0,1,,,,,,,,0,,,71,110
122640,note_on,2,0,2,,,,,,,,1,,,55,110
122656,note_on,256,0,11,,,,,,,,11,,,71,0
122686,note_on,46,0,1,,,,,,,,0,,,71,0
122686,note_on,46,0,2,,,,,,,,1,,,55,0
122688,note_on,32,0,11,,,,,,,,11,,,72,45
122688,note_on,128,0,12,,,,,,,,12,,,57,45
122688,note_on,2,0,1,,,,,,,,0,,,78,110
122688,note_on,48,0,9,,,,,,,,8,,,78,45
122688,note_on,2,0,2,,,,,,,,1,,,45,110
122734,note_on,46,0,1,,,,,,,,0,,,78,0
122736,note_on,2,0,1,,,,,,,,0,,,76,110
122782,note_on,46,0,1,,,,,,,,0,,,76,0
122782,note_on,94,0,2,,,,,,,,1,,,45,0
122784,note_on,2,0,1,,,,,,,,0,,,72,110
122784,note_on,2,0,2,,,,,,,,1,,,48,110
122830,note_on,46,0,1,,,,,,,,0,,,72,0
122832,note_on,2,0,1,,,,,,,,0,,,78,110
122848,note_on,160,0,12,,,,,,,,12,,,57,0
122878,note_on,94,0,2,,,,,,,,1,,,48,0
122878,note_on,46,0,1,,,,,,,,0,,,78,0
122880,note_on,2,0,2,,,,,,,,1,,,52,110
122880,note_on,2,0,1,,,,,,,,0,,,76,110
122926,note_on,46,0,1,,,,,,,,0,,,76,0
122928,note_on,2,0,1,,,,,,,,0,,,72,110
122944,note_on,256,0,11,,,,,,,,11,,,72,0
122974,note_on,94,0,2,,,,,,,,1,,,52,0
122974,note_on,46,0,1,,,,,,,,0,,,72,0
122976,note_on,2,0,2,,,,,,,,1,,,57,110
122976,note_on,2,0,1,,,,,,,,0,,,78,110
122976,note_on,128,0,12,,,,,,,,12,,,60,45
122976,note_on,32,0,11,,,,,,,,11,,,69,45
123022,note_on,46,0,2,,,,,,,,1,,,57,0
123022,note_on,46,0,1,,,,,,,,0,,,78,0
123024,note_on,2,0,2,,,,,,,,1,,,55,110
123024,note_on,2,0,1,,,,,,,,0,,,76,110
123070,note_on,46,0,1,,,,,,,,0,,,76,0
123070,note_on,46,0,2,,,,,,,,1,,,55,0
123072,note_on,2,0,2,,,,,,,,1,,,57,110
123072,note_on,2,0,1,,,,,,,,0,,,72,110
123118,note_on,46,0,2,,,,,,,,1,,,57,0
123118,note_on,46,0,1,,,,,,,,0,,,72,0
123120,note_on,2,0,1,,,,,,,,0,,,78,110
123120,note_on,2,0,2,,,,,,,,1,,,59,110
123136,note_on,160,0,12,,,,,,,,12,,,60,0
123166,note_on,46,0,1,,,,,,,,0,,,78,0
123166,note_on,46,0,2,,,,,,,,1,,,59,0
123168,note_on,2,0,2,,,,,,,,1,,,60,110
123168,note_on,2,0,1,,,,,,,,0,,,76,110
123214,note_on,46,0,2,,,,,,,,1,,,60,0
123214,note_on,46,0,1,,,,,,,,0,,,76,0
123216,note_on,2,0,1,,,,,,,,0,,,72,110
123216,note_on,2,0,2,,,,,,,,1,,,57,110
123216,note_on,1104,0,10,,,,,,,,10,,,76,0
123262,note_on,46,0,2,,,,,,,,1,,,57,0
123262,note_on,46,0,1,,,,,,,,0,,,72,0
123264,note_on,128,0,12,,,,,,,,12,,,59,45
123264,note_on,48,0,10,,,,,,,,10,,,75,45
123264,note_on,2,0,2,,,,,,,,1,,,59,110
123264,note_on,2,0,1,,,,,,,,0,,,78,110
123310,note_on,46,0,1,,,,,,,,0,,,78,0
123312,note_on,2,0,1,,,,,,,,0,,,75,110
123358,note_on,46,0,1,,,,,,,,0,,,75,0
123358,note_on,94,0,2,,,,,,,,1,,,59,0
123360,note_on,2,0,1,,,,,,,,0,,,71,110
123360,note_on,2,0,2,,,,,,,,1,,,57,110
123406,note_on,46,0,2,,,,,,,,1,,,57,0
123406,note_on,46,0,1,,,,,,,,0,,,71,0
123408,note_on,2,0,1,,,,,,,,0,,,78,110
123408,note_on,2,0,2,,,,,,,,1,,,55,110
123424,note_on,160,0,12,,,,,,,,12,,,59,0
123454,note_on,46,0,1,,,,,,,,0,,,78,0
123454,note_on,46,0,2,,,,,,,,1,,,55,0
123456,note_on,2,0,2,,,,,,,,1,,,54,110
123456,note_on,2,0,1,,,,,,,,0,,,75,110
123502,note_on,46,0,2,,,,,,,,1,,,54,0
123502,note_on,46,0,1,,,,,,,,0,,,75,0
123504,note_on,2,0,2,,,,,,,,1,,,55,110
123504,note_on,2,0,1,,,,,,,,0,,,71,110
123520,note_on,544,0,11,,,,,,,,11,,,69,0
123550,note_on,46,0,1,,,,,,,,0,,,71,0
123550,note_on,46,0,2,,,,,,,,1,,,55,0
123552,note_on,2,0,2,,,,,,,,1,,,57,110
123552,note_on,32,0,11,,,,,,,,11,,,66,45
123552,note_on,128,0,12,,,,,,,,12,,,47,45
123552,note_on,2,0,1,,,,,,,,0,,,78,110
123598,note_on,46,0,1,,,,,,,,0,,,78,0
123600,note_on,2,0,1,,,,,,,,0,,,75,110
123646,note_on,94,0,2,,,,,,,,1,,,57,0
123646,note_on,46,0,1,,,,,,,,0,,,75,0
123648,note_on,2,0,1,,,,,,,,0,,,71,110
123648,note_on,2,0,2,,,,,,,,1,,,59,110
123694,note_on,46,0,1,,,,,,,,0,,,71,0
123696,note_on,2,0,1,,,,,,,,0,,,78,110
123712,note_on,160,0,12,,,,,,,,12,,,47,0
123742,note_on,46,0,1,,,,,,,,0,,,78,0
123742,note_on,94,0,2,,,,,,,,1,,,59,0
123744,note_on,2,0,1,,,,,,,,0,,,75,110
123744,note_on,2,0,2,,,,,,,,1,,,47,110
123790,note_on,46,0,1,,,,,,,,0,,,75,0
123792,note_on,528,0,10,,,,,,,,10,,,75,0
123792,note_on,1104,0,9,,,,,,,,8,,,78,0
123792,note_on,2,0,1,,,,,,,,0,,,71,110
123808,note_on,256,0,11,,,,,,,,11,,,66,0
123838,note_on,46,0,1,,,,,,,,0,,,71,0
123838,note_on,94,0,2,,,,,,,,1,,,47,0
123840,note_on,2,0,1,,,,,,,,0,,,76,110
123840,note_on,48,0,9,,,,,,,,8,,,76,92
123840,note_on,128,0,12,,,,,,,,12,,,52,92
123840,note_on,2,0,2,,,,,,,,1,,,52,110
123840,note_on,48,0,10,,,,,,,,10,,,76,92
123840,note_on,32,0,11,,,,,,,,11,,,68,92
123886,note_on,46,0,2,,,,,,,,1,,,52,0
123888,note_on,2,0,2,,,,,,,,1,,,56,110
123934,note_on,94,0,1,,,,,,,,0,,,76,0
123934,note_on,94,0,9,,,,,,,,8,,,76,0
123934,note_on,94,0,11,,,,,,,,11,,,68,0
123934,note_on,94,0,10,,,,,,,,10,,,76,0
123934,note_on,46,0,2,,,,,,,,1,,,56,0
123934,note_on,94,0,12,,,,,,,,12,,,52,0
123936,note_on,2,0,2,,,,,,,,1,,,57,110
123936,note_on,2,0,9,,,,,,,,8,,,64,92
123936,note_on,2,0,12,,,,,,,,12,,,52,92
123936,note_on,2,0,1,,,,,,,,0,,,64,110
123982,note_on,46,0,2,,,,,,,,1,,,57,0
123984,note_on,2,0,2,,,,,,,,1,,,59,110
124030,note_on,94,0,12,,,,,,,,12,,,52,0
124030,note_on,94,0,9,,,,,,,,8,,,64,0
124030,note_on,46,0,2,,,,,,,,1,,,59,0
124030,note_on,94,0,1,,,,,,,,0,,,64,0
124032,note_on,2,0,12,,,,,,,,12,,,52,92
124032,note_on,8096,0,3,,,,,,,,2,,,69,110
124032,note_on,2,0,1,,,,,,,,0,,,76,110
124032,note_on,98,0,11,,,,,,,,11,,,64,92
124032,note_on,8096,0,4,,,,,,,,3,,,57,110
124032,note_on,98,0,10,,,,,,,,10,,,64,92
124032,note_on,8096,0,6,,,,,,,,5,,,52,110
124032,note_on,8096,0,7,,,,,,,,6,,,69,110
124032,note_on,8096,0,8,,,,,,,,7,,,52,110
124032,note_on,2,0,2,,,,,,,,1,,,60,110
124032,note_on,2,0,9,,,,,,,,8,,,76,92
124032,note_on,8096,0,5,,,,,,,,4,,,72,110
124078,note_on,46,0,2,,,,,,,,1,,,60,0
124080,note_on,2,0,2,,,,,,,,1,,,62,110
124126,note_on,46,0,2,,,,,,,,1,,,62,0
124126,note_on,94,0,10,,,,,,,,10,,,64,0
124126,note_on,94,0,12,,,,,,,,12,,,52,0
124126,note_on,94,0,9,,,,,,,,8,,,76,0
124126,note_on,94,0,6,,,,,,,,5,,,52,0
124126,note_on,94,0,11,,,,,,,,11,,,64,0
124126,note_on,94,0,4,,,,,,,,3,,,57,0
124126,note_on,94,0,3,,,,,,,,2,,,69,0
124126,note_on,94,0,7,,,,,,,,6,,,69,0
124126,note_on,94,0,8,,,,,,,,7,,,52,0
124126,note_on,94,0,5,,,,,,,,4,,,72,0
124126,note_on,94,0,1,,,,,,,,0,,,76,0
124128,note_on,2,0,3,,,,,,,,2,,,71,110
124128,note_on,2,0,12,,,,,,,,12,,,52,92
124128,note_on,2,0,7,,,,,,,,6,,,68,110
124128,note_on,2,0,5,,,,,,,,4,,,71,110
124128,note_on,2,0,4,,,,,,,,3,,,56,110
124128,note_on,2,0,1,,,,,,,,0,,,74,110
124128,note_on,2,0,9,,,,,,,,8,,,74,92
124128,note_on,2,0,8,,,,,,,,7,,,40,110
124128,note_on,2,0,6,,,,,,,,5,,,52,110
124128,note_on,2,0,10,,,,,,,,10,,,71,92
124128,note_on,2,0,2,,,,,,,,1,,,64,110
124128,note_on,2,0,11,,,,,,,,11,,,56,92
124174,note_on,46,0,10,,,,,,,,10,,,71,0
124174,note_on,46,0,9,,,,,,,,8,,,74,0
124174,note_on,46,0,1,,,,,,,,0,,,74,0
124176,note_on,2,0,10,,,,,,,,10,,,69,92
124176,note_on,2,0,1,,,,,,,,0,,,72,110
124176,note_on,2,0,9,,,,,,,,8,,,72,92
124222,note_on,94,0,12,,,,,,,,12,,,52,0
124222,note_on,94,0,5,,,,,,,,4,,,71,0
124222,note_on,94,0,7,,,,,,,,6,,,68,0
124222,note_on,46,0,10,,,,,,,,10,,,69,0
124222,note_on,94,0,2,,,,,,,,1,,,64,0
124222,note_on,94,0,4,,,,,,,,3,,,56,0
124222,note_on,46,0,9,,,,,,,,8,,,72,0
124222,note_on,94,0,6,,,,,,,,5,,,52,0
124222,note_on,46,0,1,,,,,,,,0,,,72,0
124222,note_on,94,0,11,,,,,,,,11,,,56,0
124222,note_on,94,0,3,,,,,,,,2,,,71,0
124224,note_on,2,0,4,,,,,,,,3,,,64,110
124224,note_on,2,0,3,,,,,,,,2,,,71,110
124224,note_on,2,0,9,,,,,,,,8,,,74,92
124224,note_on,2,0,6,,,,,,,,5,,,40,110
124224,note_on,2,0,10,,,,,,,,10,,,71,92
124224,note_on,2,0,11,,,,,,,,11,,,64,92
124224,note_on,2,0,12,,,,,,,,12,,,52,92
124224,note_on,2,0,1,,,,,,,,0,,,74,110
124224,note_on,2,0,5,,,,,,,,4,,,76,110
124224,note_on,2,0,2,,,,,,,,1,,,56,110
124270,note_on,46,0,1,,,,,,,,0,,,74,0
124270,note_on,46,0,9,,,,,,,,8,,,74,0
124272,note_on,2,0,1,,,,,,,,0,,,76,110
124272,note_on,50,0,7,,,,,,,,6,,,71,110
124272,note_on,2,0,9,,,,,,,,8,,,76,92
124288,note_on,160,0,8,,,,,,,,7,,,40,0
124318,note_on,46,0,1,,,,,,,,0,,,76,0
124318,note_on,94,0,5,,,,,,,,4,,,76,0
124318,note_on,94,0,12,,,,,,,,12,,,52,0
124318,note_on,94,0,11,,,,,,,,11,,,64,0
124318,note_on,46,0,9,,,,,,,,8,,,76,0
124318,note_on,94,0,6,,,,,,,,5,,,40,0
124318,note_on,94,0,10,,,,,,,,10,,,71,0
124318,note_on,46,0,7,,,,,,,,6,,,71,0
124318,note_on,94,0,2,,,,,,,,1,,,56,0
124318,note_on,94,0,3,,,,,,,,2,,,71,0
124318,note_on,94,0,4,,,,,,,,3,,,64,0
124320,note_on,2,0,10,,,,,,,,10,,,71,92
124320,note_on,2,0,2,,,,,,,,1,,,64,110
124320,note_on,2,0,11,,,,,,,,11,,,56,92
124320,note_on,2,0,3,,,,,,,,2,,,71,110
124320,note_on,2,0,4,,,,,,,,3,,,56,110
124320,note_on,2,0,9,,,,,,,,8,,,74,92
124320,note_on,2,0,6,,,,,,,,5,,,52,110
124320,note_on,2,0,12,,,,,,,,12,,,52,92
124320,note_on,32,0,8,,,,,,,,7,,,52,110
124320,note_on,2,0,1,,,,,,,,0,,,74,110
124320,note_on,2,0,7,,,,,,,,6,,,74,110
124366,note_on,46,0,7,,,,,,,,6,,,74,0
124368,note_on,2,0,7,,,,,,,,6,,,71,110
124414,note_on,46,0,7,,,,,,,,6,,,71,0
124414,note_on,94,0,6,,,,,,,,5,,,52,0
124414,note_on,94,0,2,,,,,,,,1,,,64,0
124414,note_on,94,0,1,,,,,,,,0,,,74,0
124414,note_on,94,0,11,,,,,,,,11,,,56,0
124414,note_on,94,0,12,,,,,,,,12,,,52,0
124414,note_on,94,0,3,,,,,,,,2,,,71,0
124414,note_on,94,0,8,,,,,,,,7,,,52,0
124414,note_on,94,0,10,,,,,,,,10,,,71,0
124414,note_on,94,0,4,,,,,,,,3,,,56,0
124414,note_on,94,0,9,,,,,,,,8,,,74,0
124416,note_on,98,0,5,,,,,,,,4,,,69,110
124416,note_on,2,0,1,,,,,,,,0,,,72,110
124416,note_on,2,0,11,,,,,,,,11,,,57,92
124416,note_on,2,0,12,,,,,,,,12,,,52,92
124416,note_on,2,0,9,,,,,,,,8,,,72,92
124416,note_on,2,0,4,,,,,,,,3,,,57,110
124416,note_on,2,0,7,,,,,,,,6,,,64,110
124416,note_on,2,0,8,,,,,,,,7,,,40,110
124416,note_on,2,0,2,,,,,,,,1,,,64,110
124416,note_on,2,0,10,,,,,,,,10,,,69,92
124416,note_on,2,0,3,,,,,,,,2,,,69,110
124416,note_on,2,0,6,,,,,,,,5,,,52,110
124462,note_on,46,0,10,,,,,,,,10,,,69,0
124462,note_on,46,0,1,,,,,,,,0,,,72,0
124462,note_on,46,0,9,,,,,,,,8,,,72,0
124464,note_on,2,0,10,,,,,,,,10,,,68,92
124464,note_on,2,0,1,,,,,,,,0,,,71,110
124464,note_on,2,0,9,,,,,,,,8,,,71,92
124510,note_on,94,0,6,,,,,,,,5,,,52,0
124510,note_on,94,0,2,,,,,,,,1,,,64,0
124510,note_on,46,0,1,,,,,,,,0,,,71,0
124510,note_on,94,0,7,,,,,,,,6,,,64,0
124510,note_on,94,0,4,,,,,,,,3,,,57,0
124510,note_on,94,0,12,,,,,,,,12,,,52,0
124510,note_on,46,0,9,,,,,,,,8,,,71,0
124510,note_on,94,0,11,,,,,,,,11,,,57,0
124510,note_on,94,0,5,,,,,,,,4,,,69,0
124510,note_on,94,0,3,,,,,,,,2,,,69,0
124510,note_on,46,0,10,,,,,,,,10,,,68,0
124512,note_on,2,0,5,,,,,,,,4,,,76,110
124512,note_on,2,0,10,,,,,,,,10,,,69,92
124512,note_on,2,0,12,,,,,,,,12,,,52,92
124512,note_on,2,0,4,,,,,,,,3,,,64,110
124512,note_on,2,0,2,,,,,,,,1,,,57,110
124512,note_on,2,0,1,,,,,,,,0,,,72,110
124512,note_on,2,0,11,,,,,,,,11,,,64,92
124512,note_on,2,0,3,,,,,,,,2,,,69,110
124512,note_on,2,0,6,,,,,,,,5,,,40,110
124512,note_on,2,0,9,,,,,,,,8,,,72,92
124558,note_on,46,0,9,,,,,,,,8,,,72,0
124558,note_on,46,0,1,,,,,,,,0,,,72,0
124560,note_on,50,0,7,,,,,,,,6,,,69,110
124560,note_on,2,0,9,,,,,,,,8,,,74,92
124560,note_on,2,0,1,,,,,,,,0,,,74,110
124576,note_on,160,0,8,,,,,,,,7,,,40,0
124606,note_on,94,0,10,,,,,,,,10,,,69,0
124606,note_on,94,0,12,,,,,,,,12,,,52,0
124606,note_on,94,0,2,,,,,,,,1,,,57,0
124606,note_on,46,0,7,,,,,,,,6,,,69,0
124606,note_on,94,0,4,,,,,,,,3,,,64,0
124606,note_on,46,0,9,,,,,,,,8,,,74,0
124606,note_on,94,0,3,,,,,,,,2,,,69,0
124606,note_on,94,0,11,,,,,,,,11,,,64,0
124606,note_on,94,0,5,,,,,,,,4,,,76,0
124606,note_on,46,0,1,,,,,,,,0,,,74,0
124606,note_on,94,0,6,,,,,,,,5,,,40,0
124608,note_on,2,0,2,,,,,,,,1,,,64,110
124608,note_on,2,0,11,,,,,,,,11,,,57,92
124608,note_on,2,0,1,,,,,,,,0,,,72,110
124608,note_on,2,0,12,,,,,,,,12,,,52,92
124608,note_on,2,0,10,,,,,,,,10,,,69,92
124608,note_on,2,0,4,,,,,,,,3,,,57,110
124608,note_on,32,0,8,,,,,,,,7,,,52,110
124608,note_on,2,0,6,,,,,,,,5,,,52,110
124608,note_on,2,0,9,,,,,,,,8,,,72,92
124608,note_on,2,0,7,,,,,,,,6,,,72,110
124608,note_on,2,0,3,,,,,,,,2,,,69,110
124654,note_on,46,0,7,,,,,,,,6,,,72,0
124656,note_on,2,0,7,,,,,,,,6,,,69,110
124702,note_on,94,0,10,,,,,,,,10,,,69,0
124702,note_on,94,0,2,,,,,,,,1,,,64,0
124702,note_on,94,0,12,,,,,,,,12,,,52,0
124702,note_on,94,0,9,,,,,,,,8,,,72,0
124702,note_on,94,0,6,,,,,,,,5,,,52,0
124702,note_on,94,0,11,,,,,,,,11,,,57,0
124702,note_on,94,0,1,,,,,,,,0,,,72,0
124702,note_on,94,0,3,,,,,,,,2,,,69,0
124702,note_on,94,0,8,,,,,,,,7,,,52,0
124702,note_on,46,0,7,,,,,,,,6,,,69,0
124702,note_on,94,0,4,,,,,,,,3,,,57,0
124704,note_on,2,0,2,,,,,,,,1,,,64,110
124704,note_on,2,0,9,,,,,,,,8,,,71,92
124704,note_on,2,0,7,,,,,,,,6,,,64,110
124704,note_on,2,0,10,,,,,,,,10,,,68,92
124704,note_on,2,0,8,,,,,,,,7,,,40,110
124704,note_on,2,0,3,,,,,,,,2,,,68,110
124704,note_on,98,0,5,,,,,,,,4,,,68,110
124704,note_on,2,0,12,,,,,,,,12,,,52,92
124704,note_on,2,0,4,,,,,,,,3,,,59,110
124704,note_on,2,0,1,,,,,,,,0,,,71,110
124704,note_on,2,0,6,,,,,,,,5,,,52,110
124704,note_on,2,0,11,,,,,,,,11,,,59,92
124750,note_on,46,0,9,,,,,,,,8,,,71,0
124750,note_on,46,0,1,,,,,,,,0,,,71,0
124750,note_on,46,0,10,,,,,,,,10,,,68,0
124752,note_on,2,0,10,,,,,,,,10,,,66,92
124752,note_on,2,0,9,,,,,,,,8,,,69,92
124752,note_on,2,0,1,,,,,,,,0,,,69,110
124798,note_on,94,0,6,,,,,,,,5,,,52,0
124798,note_on,94,0,3,,,,,,,,2,,,68,0
124798,note_on,94,0,11,,,,,,,,11,,,59,0
124798,note_on,94,0,4,,,,,,,,3,,,59,0
124798,note_on,94,0,5,,,,,,,,4,,,68,0
124798,note_on,46,0,1,,,,,,,,0,,,69,0
124798,note_on,46,0,10,,,,,,,,10,,,66,0
124798,note_on,94,0,12,,,,,,,,12,,,52,0
124798,note_on,94,0,2,,,,,,,,1,,,64,0
124798,note_on,46,0,9,,,,,,,,8,,,69,0
124798,note_on,94,0,7,,,,,,,,6,,,64,0
124800,note_on,2,0,9,,,,,,,,8,,,71,92
124800,note_on,2,0,1,,,,,,,,0,,,71,110
124800,note_on,2,0,2,,,,,,,,1,,,56,110
124800,note_on,2,0,11,,,,,,,,11,,,64,92
124800,note_on,2,0,4,,,,,,,,3,,,64,110
124800,note_on,2,0,12,,,,,,,,12,,,52,92
124800,note_on,2,0,5,,,,,,,,4,,,76,110
124800,note_on,2,0,3,,,,,,,,2,,,68,110
124800,note_on,2,0,6,,,,,,,,5,,,40,110
124800,note_on,2,0,10,,,,,,,,10,,,68,92
124846,note_on,46,0,1,,,,,,,,0,,,71,0
124846,note_on,46,0,9,,,,,,,,8,,,71,0
124848,note_on,50,0,7,,,,,,,,6,,,68,110
124848,note_on,2,0,9,,,,,,,,8,,,72,92
124848,note_on,2,0,1,,,,,,,,0,,,72,110
124864,note_on,160,0,8,,,,,,,,7,,,40,0
124894,note_on,94,0,10,,,,,,,,10,,,68,0
124894,note_on,94,0,12,,,,,,,,12,,,52,0
124894,note_on,94,0,2,,,,,,,,1,,,56,0
124894,note_on,94,0,5,,,,,,,,4,,,76,0
124894,note_on,94,0,3,,,,,,,,2,,,68,0
124894,note_on,46,0,9,,,,,,,,8,,,72,0
124894,note_on,94,0,4,,,,,,,,3,,,64,0
124894,note_on,46,0,1,,,,,,,,0,,,72,0
124894,note_on,94,0,6,,,,,,,,5,,,40,0
124894,note_on,94,0,11,,,,,,,,11,,,64,0
124894,note_on,46,0,7,,,,,,,,6,,,68,0
124896,note_on,2,0,4,,,,,,,,3,,,59,110
124896,note_on,2,0,10,,,,,,,,10,,,68,92
124896,note_on,2,0,9,,,,,,,,8,,,71,92
124896,note_on,32,0,8,,,,,,,,7,,,52,110
124896,note_on,2,0,1,,,,,,,,0,,,71,110
124896,note_on,2,0,6,,,,,,,,5,,,52,110
124896,note_on,2,0,3,,,,,,,,2,,,68,110
124896,note_on,2,0,11,,,,,,,,11,,,59,92
124896,note_on,2,0,2,,,,,,,,1,,,64,110
124896,note_on,2,0,7,,,,,,,,6,,,71,110
124896,note_on,2,0,12,,,,,,,,12,,,52,92
124942,note_on,46,0,7,,,,,,,,6,,,71,0
124944,note_on,2,0,7,,,,,,,,6,,,68,110
124990,note_on,94,0,3,,,,,,,,2,,,68,0
124990,note_on,94,0,11,,,,,,,,11,,,59,0
124990,note_on,94,0,1,,,,,,,,0,,,71,0
124990,note_on,94,0,10,,,,,,,,10,,,68,0
124990,note_on,94,0,12,,,,,,,,12,,,52,0
124990,note_on,94,0,6,,,,,,,,5,,,52,0
124990,note_on,94,0,4,,,,,,,,3,,,59,0
124990,note_on,94,0,8,,,,,,,,7,,,52,0
124990,note_on,46,0,7,,,,,,,,6,,,68,0
124990,note_on,94,0,2,,,,,,,,1,,,64,0
124990,note_on,94,0,9,,,,,,,,8,,,71,0
124992,note_on,2,0,1,,,,,,,,0,,,72,110
124992,note_on,2,0,2,,,,,,,,1,,,64,110
124992,note_on,2,0,6,,,,,,,,5,,,52,110
124992,note_on,2,0,11,,,,,,,,11,,,57,92
124992,note_on,2,0,10,,,,,,,,10,,,69,92
124992,note_on,2,0,9,,,,,,,,8,,,72,92
124992,note_on,2,0,4,,,,,,,,3,,,57,110
124992,note_on,2,0,7,,,,,,,,6,,,64,110
124992,note_on,98,0,5,,,,,,,,4,,,69,110
124992,note_on,2,0,12,,,,,,,,12,,,52,92
124992,note_on,2,0,3,,,,,,,,2,,,69,110
124992,note_on,2,0,8,,,,,,,,7,,,40,110
125038,note_on,46,0,10,,,,,,,,10,,,69,0
125038,note_on,46,0,1,,,,,,,,0,,,72,0
125038,note_on,46,0,9,,,,,,,,8,,,72,0
125040,note_on,2,0,10,,,,,,,,10,,,68,92
125040,note_on,2,0,1,,,,,,,,0,,,71,110
125040,note_on,2,0,9,,,,,,,,8,,,71,92
125086,note_on,94,0,2,,,,,,,,1,,,64,0
125086,note_on,94,0,3,,,,,,,,2,,,69,0
125086,note_on,94,0,6,,,,,,,,5,,,52,0
125086,note_on,94,0,11,,,,,,,,11,,,57,0
125086,note_on,94,0,4,,,,,,,,3,,,57,0
125086,note_on,94,0,7,,,,,,,,6,,,64,0
125086,note_on,46,0,10,,,,,,,,10,,,68,0
125086,note_on,94,0,5,,,,,,,,4,,,69,0
125086,note_on,46,0,9,,,,,,,,8,,,71,0
125086,note_on,46,0,1,,,,,,,,0,,,71,0
125086,note_on,94,0,12,,,,,,,,12,,,52,0
125088,note_on,2,0,4,,,,,,,,3,,,64,110
125088,note_on,2,0,5,,,,,,,,4,,,76,110
125088,note_on,2,0,3,,,,,,,,2,,,69,110
125088,note_on,2,0,6,,,,,,,,5,,,40,110
125088,note_on,2,0,12,,,,,,,,12,,,52,92
125088,note_on,2,0,10,,,,,,,,10,,,69,92
125088,note_on,2,0,1,,,,,,,,0,,,72,110
125088,note_on,2,0,2,,,,,,,,1,,,57,110
125088,note_on,2,0,11,,,,,,,,11,,,64,92
125088,note_on,2,0,9,,,,,,,,8,,,72,92
125134,note_on,46,0,1,,,,,,,,0,,,72,0
125134,note_on,46,0,9,,,,,,,,8,,,72,0
125136,note_on,2,0,1,,,,,,,,0,,,74,110
125136,note_on,2,0,9,,,,,,,,8,,,74,92
125136,note_on,50,0,7,,,,,,,,6,,,69,110
125152,note_on,160,0,8,,,,,,,,7,,,40,0
125182,note_on,94,0,10,,,,,,,,10,,,69,0
125182,note_on,46,0,9,,,,,,,,8,,,74,0
125182,note_on,46,0,7,,,,,,,,6,,,69,0
125182,note_on,94,0,6,,,,,,,,5,,,40,0
125182,note_on,94,0,5,,,,,,,,4,,,76,0
125182,note_on,94,0,3,,,,,,,,2,,,69,0
125182,note_on,46,0,1,,,,,,,,0,,,74,0
125182,note_on,94,0,11,,,,,,,,11,,,64,0
125182,note_on,94,0,4,,,,,,,,3,,,64,0
125182,note_on,94,0,2,,,,,,,,1,,,57,0
125182,note_on,94,0,12,,,,,,,,12,,,52,0
125184,note_on,2,0,9,,,,,,,,8,,,72,92
125184,note_on,2,0,1,,,,,,,,0,,,72,110
125184,note_on,2,0,11,,,,,,,,11,,,57,92
125184,note_on,2,0,6,,,,,,,,5,,,52,110
125184,note_on,2,0,4,,,,,,,,3,,,57,110
125184,note_on,2,0,2,,,,,,,,1,,,64,110
125184,note_on,32,0,8,,,,,,,,7,,,52,110
125184,note_on,2,0,7,,,,,,,,6,,,72,110
125184,note_on,2,0,12,,,,,,,,12,,,52,92
125184,note_on,2,0,3,,,,,,,,2,,,69,110
125184,note_on,2,0,10,,,,,,,,10,,,69,92
125230,note_on,46,0,7,,,,,,,,6,,,72,0
125232,note_on,2,0,7,,,,,,,,6,,,69,110
125278,note_on,94,0,9,,,,,,,,8,,,72,0
125278,note_on,94,0,10,,,,,,,,10,,,69,0
125278,note_on,94,0,2,,,,,,,,1,,,64,0
125278,note_on,46,0,7,,,,,,,,6,,,69,0
125278,note_on,94,0,4,,,,,,,,3,,,57,0
125278,note_on,94,0,6,,,,,,,,5,,,52,0
125278,note_on,94,0,8,,,,,,,,7,,,52,0
125278,note_on,94,0,12,,,,,,,,12,,,52,0
125278,note_on,94,0,11,,,,,,,,11,,,57,0
125278,note_on,94,0,1,,,,,,,,0,,,72,0
125278,note_on,94,0,3,,,,,,,,2,,,69,0
125280,note_on,2,0,9,,,,,,,,8,,,74,92
125280,note_on,98,0,5,,,,,,,,4,,,71,110
125280,note_on,2,0,11,,,,,,,,11,,,56,92
125280,note_on,2,0,10,,,,,,,,10,,,71,92
125280,note_on,2,0,3,,,,,,,,2,,,71,110
125280,note_on,2,0,8,,,,,,,,7,,,40,110
125280,note_on,2,0,12,,,,,,,,12,,,52,92
125280,note_on,2,0,7,,,,,,,,6,,,64,110
125280,note_on,2,0,4,,,,,,,,3,,,56,110
125280,note_on,2,0,2,,,,,,,,1,,,64,110
125280,note_on,2,0,6,,,,,,,,5,,,52,110
125280,note_on,2,0,1,,,,,,,,0,,,74,110
125326,note_on,46,0,1,,,,,,,,0,,,74,0
125326,note_on,46,0,9,,,,,,,,8,,,74,0
125326,note_on,46,0,10,,,,,,,,10,,,71,0
125328,note_on,2,0,1,,,,,,,,0,,,72,110
125328,note_on,2,0,10,,,,,,,,10,,,69,92
125328,note_on,2,0,9,,,,,,,,8,,,72,92
125374,note_on,94,0,12,,,,,,,,12,,,52,0
125374,note_on,94,0,7,,,,,,,,6,,,64,0
125374,note_on,46,0,10,,,,,,,,10,,,69,0
125374,note_on,94,0,6,,,,,,,,5,,,52,0
125374,note_on,94,0,3,,,,,,,,2,,,71,0
125374,note_on,94,0,11,,,,,,,,11,,,56,0
125374,note_on,94,0,4,,,,,,,,3,,,56,0
125374,note_on,46,0,9,,,,,,,,8,,,72,0
125374,note_on,46,0,1,,,,,,,,0,,,72,0
125374,note_on,94,0,5,,,,,,,,4,,,71,0
125374,note_on,94,0,2,,,,,,,,1,,,64,0
125376,note_on,2,0,11,,,,,,,,11,,,64,92
125376,note_on,2,0,4,,,,,,,,3,,,64,110
125376,note_on,2,0,6,,,,,,,,5,,,40,110
125376,note_on,2,0,10,,,,,,,,10,,,71,92
125376,note_on,2,0,3,,,,,,,,2,,,71,110
125376,note_on,2,0,2,,,,,,,,1,,,56,110
125376,note_on,2,0,5,,,,,,,,4,,,76,110
125376,note_on,2,0,1,,,,,,,,0,,,74,110
125376,note_on,2,0,9,,,,,,,,8,,,74,92
125376,note_on,2,0,12,,,,,,,,12,,,52,92
125422,note_on,46,0,9,,,,,,,,8,,,74,0
125422,note_on,46,0,1,,,,,,,,0,,,74,0
125424,note_on,2,0,1,,,,,,,,0,,,76,110
125424,note_on,2,0,9,,,,,,,,8,,,76,92
125424,note_on,50,0,7,,,,,,,,6,,,71,110
125440,note_on,160,0,8,,,,,,,,7,,,40,0
125470,note_on,94,0,11,,,,,,,,11,,,64,0
125470,note_on,46,0,9,,,,,,,,8,,,76,0
125470,note_on,94,0,4,,,,,,,,3,,,64,0
125470,note_on,94,0,12,,,,,,,,12,,,52,0
125470,note_on,94,0,10,,,,,,,,10,,,71,0
125470,note_on,46,0,7,,,,,,,,6,,,71,0
125470,note_on,94,0,6,,,,,,,,5,,,40,0
125470,note_on,46,0,1,,,,,,,,0,,,76,0
125470,note_on,94,0,5,,,,,,,,4,,,76,0
125470,note_on,94,0,3,,,,,,,,2,,,71,0
125470,note_on,94,0,2,,,,,,,,1,,,56,0
125472,note_on,2,0,4,,,,,,,,3,,,56,110
125472,note_on,2,0,6,,,,,,,,5,,,52,110
125472,note_on,32,0,8,,,,,,,,7,,,52,110
125472,note_on,2,0,7,,,,,,,,6,,,74,110
125472,note_on,2,0,11,,,,,,,,11,,,56,92
125472,note_on,2,0,2,,,,,,,,1,,,64,110
125472,note_on,2,0,3,,,,,,,,2,,,71,110
125472,note_on,2,0,1,,,,,,,,0,,,74,110
125472,note_on,2,0,10,,,,,,,,10,,,71,92
125472,note_on,2,0,12,,,,,,,,12,,,52,92
125472,note_on,2,0,9,,,,,,,,8,,,74,92
125518,note_on,46,0,7,,,,,,,,6,,,74,0
125520,note_on,2,0,7,,,,,,,,6,,,71,110
125566,note_on,94,0,2,,,,,,,,1,,,64,0
125566,note_on,94,0,10,,,,,,,,10,,,71,0
125566,note_on,46,0,7,,,,,,,,6,,,71,0
125566,note_on,94,0,12,,,,,,,,12,,,52,0
125566,note_on,94,0,8,,,,,,,,7,,,52,0
125566,note_on,94,0,4,,,,,,,,3,,,56,0
125566,note_on,94,0,6,,,,,,,,5,,,52,0
125566,note_on,94,0,11,,,,,,,,11,,,56,0
125566,note_on,94,0,1,,,,,,,,0,,,74,0
125566,note_on,94,0,9,,,,,,,,8,,,74,0
125566,note_on,94,0,3,,,,,,,,2,,,71,0
125568,note_on,2,0,8,,,,,,,,7,,,40,110
125568,note_on,2,0,9,,,,,,,,8,,,72,92
125568,note_on,2,0,10,,,,,,,,10,,,69,92
125568,note_on,2,0,12,,,,,,,,12,,,52,92
125568,note_on,2,0,4,,,,,,,,3,,,57,110
125568,note_on,2,0,6,,,,,,,,5,,,52,110
125568,note_on,2,0,7,,,,,,,,6,,,64,110
125568,note_on,2,0,11,,,,,,,,11,,,57,92
125568,note_on,2,0,3,,,,,,,,2,,,69,110
125568,note_on,98,0,5,,,,,,,,4,,,69,110
125568,note_on,2,0,1,,,,,,,,0,,,72,110
125568,note_on,2,0,2,,,,,,,,1,,,64,110
125614,note_on,46,0,9,,,,,,,,8,,,72,0
125614,note_on,46,0,1,,,,,,,,0,,,72,0
125614,note_on,46,0,10,,,,,,,,10,,,69,0
125616,note_on,2,0,10,,,,,,,,10,,,68,92
125616,note_on,2,0,1,,,,,,,,0,,,71,110
125616,note_on,2,0,9,,,,,,,,8,,,71,92
125662,note_on,94,0,12,,,,,,,,12,,,52,0
125662,note_on,94,0,3,,,,,,,,2,,,69,0
125662,note_on,94,0,11,,,,,,,,11,,,57,0
125662,note_on,94,0,6,,,,,,,,5,,,52,0
125662,note_on,94,0,4,,,,,,,,3,,,57,0
125662,note_on,94,0,2,,,,,,,,1,,,64,0
125662,note_on,94,0,5,,,,,,,,4,,,69,0
125662,note_on,46,0,10,,,,,,,,10,,,68,0
125662,note_on,46,0,1,,,,,,,,0,,,71,0
125662,note_on,94,0,7,,,,,,,,6,,,64,0
125662,note_on,46,0,9,,,,,,,,8,,,71,0
125664,note_on,2,0,6,,,,,,,,5,,,40,110
125664,note_on,2,0,4,,,,,,,,3,,,64,110
125664,note_on,2,0,11,,,,,,,,11,,,64,92
125664,note_on,2,0,5,,,,,,,,4,,,76,110
125664,note_on,2,0,2,,,,,,,,1,,,57,110
125664,note_on,2,0,3,,,,,,,,2,,,69,110
125664,note_on,2,0,9,,,,,,,,8,,,72,92
125664,note_on,2,0,12,,,,,,,,12,,,52,92
125664,note_on,2,0,1,,,,,,,,0,,,72,110
125664,note_on,2,0,10,,,,,,,,10,,,69,92
125710,note_on,46,0,1,,,,,,,,0,,,72,0
125710,note_on,46,0,9,,,,,,,,8,,,72,0
125712,note_on,2,0,1,,,,,,,,0,,,74,110
125712,note_on,2,0,9,,,,,,,,8,,,74,92
125712,note_on,50,0,7,,,,,,,,6,,,69,110
125728,note_on,160,0,8,,,,,,,,7,,,40,0
125758,note_on,94,0,4,,,,,,,,3,,,64,0
125758,note_on,94,0,6,,,,,,,,5,,,40,0
125758,note_on,94,0,11,,,,,,,,11,,,64,0
125758,note_on,94,0,5,,,,,,,,4,,,76,0
125758,note_on,94,0,10,,,,,,,,10,,,69,0
125758,note_on,94,0,2,,,,,,,,1,,,57,0
125758,note_on,46,0,7,,,,,,,,6,,,69,0
125758,note_on,94,0,3,,,,,,,,2,,,69,0
125758,note_on,94,0,12,,,,,,,,12,,,52,0
125758,note_on,46,0,1,,,,,,,,0,,,74,0
125758,note_on,46,0,9,,,,,,,,8,,,74,0
125760,note_on,32,0,8,,,,,,,,7,,,52,110
125760,note_on,2,0,10,,,,,,,,10,,,69,92
125760,note_on,2,0,2,,,,,,,,1,,,64,110
125760,note_on,2,0,6,,,,,,,,5,,,52,110
125760,note_on,2,0,12,,,,,,,,12,,,52,92
125760,note_on,2,0,7,,,,,,,,6,,,72,110
125760,note_on,2,0,4,,,,,,,,3,,,57,110
125760,note_on,2,0,1,,,,,,,,0,,,72,110
125760,note_on,2,0,11,,,,,,,,11,,,57,92
125760,note_on,2,0,3,,,,,,,,2,,,69,110
125760,note_on,2,0,9,,,,,,,,8,,,72,92
125806,note_on,46,0,7,,,,,,,,6,,,72,0
125808,note_on,2,0,7,,,,,,,,6,,,69,110
125854,note_on,94,0,8,,,,,,,,7,,,52,0
125854,note_on,94,0,10,,,,,,,,10,,,69,0
125854,note_on,94,0,12,,,,,,,,12,,,52,0
125854,note_on,94,0,4,,,,,,,,3,,,57,0
125854,note_on,94,0,3,,,,,,,,2,,,69,0
125854,note_on,94,0,9,,,,,,,,8,,,72,0
125854,note_on,94,0,11,,,,,,,,11,,,57,0
125854,note_on,94,0,1,,,,,,,,0,,,72,0
125854,note_on,94,0,2,,,,,,,,1,,,64,0
125854,note_on,46,0,7,,,,,,,,6,,,69,0
125854,note_on,94,0,6,,,,,,,,5,,,52,0
125856,note_on,2,0,3,,,,,,,,2,,,68,110
125856,note_on,2,0,6,,,,,,,,5,,,52,110
125856,note_on,2,0,10,,,,,,,,10,,,68,92
125856,note_on,2,0,9,,,,,,,,8,,,71,92
125856,note_on,2,0,7,,,,,,,,6,,,68,110
125856,note_on,2,0,2,,,,,,,,1,,,64,110
125856,note_on,2,0,11,,,,,,,,11,,,64,92
125856,note_on,2,0,12,,,,,,,,12,,,52,92
125856,note_on,2,0,4,,,,,,,,3,,,59,110
125856,note_on,2,0,1,,,,,,,,0,,,71,110
125856,note_on,2,0,8,,,,,,,,7,,,40,110
125856,note_on,98,0,5,,,,,,,,4,,,71,110
125902,note_on,46,0,2,,,,,,,,1,,,64,0
125902,note_on,46,0,5,,,,,,,,4,,,71,0
125904,note_on,2,0,5,,,,,,,,4,,,76,110
125904,note_on,2,0,2,,,,,,,,1,,,56,110
125950,note_on,46,0,5,,,,,,,,4,,,76,0
125950,note_on,46,0,2,,,,,,,,1,,,56,0
125950,note_on,94,0,6,,,,,,,,5,,,52,0
125952,note_on,2,0,5,,,,,,,,4,,,74,110
125952,note_on,2,0,2,,,,,,,,1,,,54,110
125952,note_on,2,0,6,,,,,,,,5,,,40,110
125998,note_on,46,0,2,,,,,,,,1,,,54,0
125998,note_on,46,0,5,,,,,,,,4,,,74,0
126000,note_on,2,0,2,,,,,,,,1,,,56,110
126000,note_on,2,0,5,,,,,,,,4,,,76,110
126016,note_on,160,0,4,,,,,,,,3,,,59,0
126016,note_on,160,0,7,,,,,,,,6,,,68,0
126016,note_on,160,0,3,,,,,,,,2,,,68,0
126016,note_on,160,0,9,,,,,,,,8,,,71,0
126016,note_on,160,0,1,,,,,,,,0,,,71,0
126016,note_on,160,0,8,,,,,,,,7,,,40,0
126016,note_on,160,0,12,,,,,,,,12,,,52,0
126016,note_on,160,0,11,,,,,,,,11,,,64,0
126016,note_on,160,0,10,,,,,,,,10,,,68,0
126046,note_on,46,0,2,,,,,,,,1,,,56,0
126046,note_on,94,0,6,,,,,,,,5,,,40,0
126046,note_on,46,0,5,,,,,,,,4,,,76,0
126048,note_on,2,0,6,,,,,,,,5,,,52,110
126048,note_on,2,0,5,,,,,,,,4,,,71,110
126048,note_on,2,0,2,,,,,,,,1,,,52,110
126094,note_on,46,0,2,,,,,,,,1,,,52,0
126094,note_on,46,0,5,,,,,,,,4,,,71,0
126096,note_on,2,0,2,,,,,,,,1,,,56,110
126096,note_on,2,0,5,,,,,,,,4,,,76,110
126142,note_on,46,0,2,,,,,,,,1,,,56,0
126142,note_on,46,0,5,,,,,,,,4,,,76,0
126142,note_on,94,0,6,,,,,,,,5,,,52,0
126144,note_on,2,0,6,,,,,,,,5,,,52,110
126144,note_on,2,0,5,,,,,,,,4,,,80,110
126144,note_on,128,0,12,,,,,,,,12,,,52,45
126144,note_on,2,0,2,,,,,,,,1,,,59,110
126144,note_on,128,0,1,,,,,,,,0,,,71,110
126190,note_on,46,0,5,,,,,,,,4,,,80,0
126190,note_on,46,0,2,,,,,,,,1,,,59,0
126192,note_on,2,0,2,,,,,,,,1,,,56,110
126192,note_on,2,0,5,,,,,,,,4,,,76,110
126238,note_on,94,0,1,,,,,,,,0,,,71,0
126238,note_on,46,0,2,,,,,,,,1,,,56,0
126238,note_on,46,0,5,,,,,,,,4,,,76,0
126238,note_on,94,0,6,,,,,,,,5,,,52,0
126240,note_on,2,0,6,,,,,,,,5,,,40,110
126240,note_on,2,0,5,,,,,,,,4,,,74,110
126240,note_on,2,0,1,,,,,,,,0,,,76,110
126240,note_on,2,0,2,,,,,,,,1,,,54,110
126286,note_on,46,0,5,,,,,,,,4,,,74,0
126286,note_on,46,0,2,,,,,,,,1,,,54,0
126288,note_on,2,0,5,,,,,,,,4,,,76,110
126288,note_on,2,0,2,,,,,,,,1,,,56,110
126304,note_on,160,0,12,,,,,,,,12,,,52,0
126334,note_on,46,0,5,,,,,,,,4,,,76,0
126334,note_on,94,0,1,,,,,,,,0,,,76,0
126334,note_on,94,0,6,,,,,,,,5,,,40,0
126334,note_on,46,0,2,,,,,,,,1,,,56,0
126336,note_on,2,0,6,,,,,,,,5,,,52,110
126336,note_on,2,0,5,,,,,,,,4,,,71,110
126336,note_on,2,0,1,,,,,,,,0,,,80,110
126336,note_on,2,0,2,,,,,,,,1,,,52,110
126382,note_on,46,0,5,,,,,,,,4,,,71,0
126382,note_on,46,0,2,,,,,,,,1,,,52,0
126384,note_on,2,0,2,,,,,,,,1,,,56,110
126384,note_on,2,0,5,,,,,,,,4,,,76,110
126430,note_on,46,0,5,,,,,,,,4,,,76,0
126430,note_on,94,0,1,,,,,,,,0,,,80,0
126430,note_on,94,0,6,,,,,,,,5,,,52,0
126430,note_on,46,0,2,,,,,,,,1,,,56,0
126432,note_on,2,0,2,,,,,,,,1,,,59,110
126432,note_on,2,0,6,,,,,,,,5,,,52,110
126432,note_on,2,0,1,,,,,,,,0,,,71,110
126432,note_on,128,0,12,,,,,,,,12,,,40,45
126432,note_on,2,0,5,,,,,,,,4,,,80,110
126478,note_on,46,0,5,,,,,,,,4,,,80,0
126478,note_on,46,0,2,,,,,,,,1,,,59,0
126480,note_on,2,0,5,,,,,,,,4,,,76,110
126480,note_on,2,0,2,,,,,,,,1,,,56,110
126526,note_on,46,0,2,,,,,,,,1,,,56,0
126526,note_on,94,0,6,,,,,,,,5,,,52,0
126526,note_on,94,0,1,,,,,,,,0,,,71,0
126526,note_on,46,0,5,,,,,,,,4,,,76,0
126528,note_on,2,0,2,,,,,,,,1,,,54,110
126528,note_on,2,0,5,,,,,,,,4,,,74,110
126528,note_on,2,0,6,,,,,,,,5,,,40,110
126528,note_on,2,0,1,,,,,,,,0,,,76,110
126574,note_on,46,0,5,,,,,,,,4,,,74,0
126574,note_on,46,0,2,,,,,,,,1,,,54,0
126576,note_on,2,0,2,,,,,,,,1,,,56,110
126576,note_on,2,0,5,,,,,,,,4,,,76,110
126592,note_on,160,0,12,,,,,,,,12,,,40,0
126622,note_on,46,0,2,,,,,,,,1,,,56,0
126622,note_on,46,0,5,,,,,,,,4,,,76,0
126622,note_on,94,0,6,,,,,,,,5,,,40,0
126622,note_on,94,0,1,,,,,,,,0,,,76,0
126624,note_on,2,0,5,,,,,,,,4,,,71,110
126624,note_on,2,0,1,,,,,,,,0,,,80,110
126624,note_on,2,0,6,,,,,,,,5,,,52,110
126624,note_on,2,0,2,,,,,,,,1,,,52,110
126670,note_on,46,0,5,,,,,,,,4,,,71,0
126670,note_on,46,0,2,,,,,,,,1,,,52,0
126672,note_on,2,0,5,,,,,,,,4,,,76,110
126672,note_on,2,0,2,,,,,,,,1,,,56,110
126718,note_on,94,0,6,,,,,,,,5,,,52,0
126718,note_on,46,0,5,,,,,,,,4,,,76,0
126718,note_on,46,0,2,,,,,,,,1,,,56,0
126718,note_on,94,0,1,,,,,,,,0,,,80,0
126720,note_on,2,0,2,,,,,,,,1,,,59,110
126720,note_on,2,0,6,,,,,,,,5,,,52,110
126720,note_on,2,0,5,,,,,,,,4,,,80,110
126720,note_on,128,0,12,,,,,,,,12,,,52,45
126720,note_on,2,0,1,,,,,,,,0,,,71,110
126766,note_on,46,0,2,,,,,,,,1,,,59,0
126766,note_on,46,0,5,,,,,,,,4,,,80,0
126768,note_on,2,0,2,,,,,,,,1,,,56,110
126768,note_on,2,0,5,,,,,,,,4,,,76,110
126814,note_on,46,0,5,,,,,,,,4,,,76,0
126814,note_on,94,0,1,,,,,,,,0,,,71,0
126814,note_on,94,0,6,,,,,,,,5,,,52,0
126814,note_on,46,0,2,,,,,,,,1,,,56,0
126816,note_on,2,0,1,,,,,,,,0,,,76,110
126816,note_on,2,0,2,,,,,,,,1,,,54,110
126816,note_on,2,0,6,,,,,,,,5,,,40,110
126816,note_on,2,0,5,,,,,,,,4,,,74,110
126862,note_on,46,0,2,,,,,,,,1,,,54,0
126862,note_on,46,0,5,,,,,,,,4,,,74,0
126864,note_on,2,0,5,,,,,,,,4,,,76,110
126864,note_on,2,0,2,,,,,,,,1,,,56,110
126880,note_on,160,0,12,,,,,,,,12,,,52,0
126910,note_on,94,0,1,,,,,,,,0,,,76,0
126910,note_on,46,0,5,,,,,,,,4,,,76,0
126910,note_on,94,0,6,,,,,,,,5,,,40,0
126910,note_on,46,0,2,,,,,,,,1,,,56,0
126912,note_on,2,0,1,,,,,,,,0,,,80,110
126912,note_on,2,0,2,,,,,,,,1,,,52,110
126912,note_on,896,0,10,,,,,,,,10,,,76,45
126912,note_on,896,0,11,,,,,,,,11,,,71,45
126912,note_on,2,0,5,,,,,,,,4,,,71,110
126912,note_on,896,0,9,,,,,,,,8,,,80,45
126912,note_on,2,0,6,,,,,,,,5,,,52,110
126912,note_on,32,0,12,,,,,,,,12,,,40,45
126958,note_on,46,0,5,,,,,,,,4,,,71,0
126958,note_on,46,0,2,,,,,,,,1,,,52,0
126960,note_on,2,0,5,,,,,,,,4,,,76,110
126960,note_on,2,0,2,,,,,,,,1,,,56,110
127006,note_on,46,0,5,,,,,,,,4,,,76,0
127006,note_on,94,0,6,,,,,,,,5,,,52,0
127006,note_on,94,0,10,,,,,,,,10,,,76,0
127006,note_on,94,0,11,,,,,,,,11,,,71,0
127006,note_on,94,0,1,,,,,,,,0,,,80,0
127006,note_on,94,0,9,,,,,,,,8,,,80,0
127006,note_on,94,0,12,,,,,,,,12,,,40,0
127006,note_on,46,0,2,,,,,,,,1,,,56,0
127008,note_on,992,0,4,,,,,,,,3,,,57,110
127008,note_on,2,0,6,,,,,,,,5,,,45,110
127008,note_on,2,0,2,,,,,,,,1,,,45,110
127008,note_on,2,0,10,,,,,,,,10,,,76,45
127008,note_on,2,0,11,,,,,,,,11,,,73,45
127008,note_on,2,0,9,,,,,,,,8,,,81,45
127008,note_on,2,0,12,,,,,,,,12,,,45,45
127008,note_on,2,0,1,,,,,,,,0,,,81,110
127008,note_on,2,0,5,,,,,,,,4,,,73,110
127056,note_on,1040,0,3,,,,,,,,2,,,69,110
127056,note_on,1040,0,8,,,,,,,,7,,,61,110
127102,note_on,94,0,4,,,,,,,,3,,,57,0
127102,note_on,46,0,8,,,,,,,,7,,,61,0
127102,note_on,46,0,3,,,,,,,,2,,,69,0
127102,note_on,94,0,1,,,,,,,,0,,,81,0
127104,note_on,2,0,4,,,,,,,,3,,,45,110
127104,note_on,2,0,3,,,,,,,,2,,,67,110
127104,note_on,2,0,1,,,,,,,,0,,,69,110
127104,note_on,2,0,8,,,,,,,,7,,,59,110
127150,note_on,46,0,3,,,,,,,,2,,,67,0
127150,note_on,46,0,8,,,,,,,,7,,,59,0
127152,note_on,2,0,3,,,,,,,,2,,,69,110
127152,note_on,2,0,8,,,,,,,,7,,,61,110
127168,note_on,160,0,10,,,,,,,,10,,,76,0
127168,note_on,160,0,2,,,,,,,,1,,,45,0
127168,note_on,160,0,11,,,,,,,,11,,,73,0
127168,note_on,160,0,12,,,,,,,,12,,,45,0
127168,note_on,160,0,9,,,,,,,,8,,,81,0
127168,note_on,160,0,6,,,,,,,,5,,,45,0
127168,note_on,160,0,5,,,,,,,,4,,,73,0
127198,note_on,46,0,8,,,,,,,,7,,,61,0
127198,note_on,94,0,4,,,,,,,,3,,,45,0
127198,note_on,46,0,3,,,,,,,,2,,,69,0
127198,note_on,94,0,1,,,,,,,,0,,,69,0
127200,note_on,2,0,3,,,,,,,,2,,,64,110
127200,note_on,2,0,4,,,,,,,,3,,,57,110
127200,note_on,2,0,8,,,,,,,,7,,,57,110
127246,note_on,46,0,3,,,,,,,,2,,,64,0
127246,note_on,46,0,8,,,,,,,,7,,,57,0
127248,note_on,2,0,8,,,,,,,,7,,,61,110
127248,note_on,2,0,3,,,,,,,,2,,,69,110
127294,note_on,94,0,4,,,,,,,,3,,,57,0
127294,note_on,46,0,3,,,,,,,,2,,,69,0
127294,note_on,46,0,8,,,,,,,,7,,,61,0
127296,note_on,1280,0,7,,,,,,,,6,,,64,110
127296,note_on,2,0,8,,,,,,,,7,,,64,110
127296,note_on,2,0,3,,,,,,,,2,,,73,110
127296,note_on,2,0,4,,,,,,,,3,,,57,110
127296,note_on,128,0,12,,,,,,,,12,,,57,45
127342,note_on,46,0,8,,,,,,,,7,,,64,0
127342,note_on,46,0,3,,,,,,,,2,,,73,0
127344,note_on,2,0,3,,,,,,,,2,,,69,110
127344,note_on,2,0,8,,,,,,,,7,,,61,110
127390,note_on,46,0,8,,,,,,,,7,,,61,0
127390,note_on,46,0,3,,,,,,,,2,,,69,0
127390,note_on,94,0,7,,,,,,,,6,,,64,0
127390,note_on,94,0,4,,,,,,,,3,,,57,0
127392,note_on,2,0,8,,,,,,,,7,,,59,110
127392,note_on,2,0,3,,,,,,,,2,,,67,110
127392,note_on,2,0,7,,,,,,,,6,,,69,110
127392,note_on,2,0,4,,,,,,,,3,,,45,110
127438,note_on,46,0,8,,,,,,,,7,,,59,0
127438,note_on,46,0,3,,,,,,,,2,,,67,0
127440,note_on,2,0,3,,,,,,,,2,,,69,110
127440,note_on,2,0,8,,,,,,,,7,,,61,110
127456,note_on,160,0,12,,,,,,,,12,,,57,0
127486,note_on,46,0,3,,,,,,,,2,,,69,0
127486,note_on,46,0,8,,,,,,,,7,,,61,0
127486,note_on,94,0,4,,,,,,,,3,,,45,0
127486,note_on,94,0,7,,,,,,,,6,,,69,0
127488,note_on,2,0,4,,,,,,,,3,,,57,110
127488,note_on,2,0,8,,,,,,,,7,,,57,110
127488,note_on,2,0,3,,,,,,,,2,,,64,110
127488,note_on,2,0,7,,,,,,,,6,,,73,110
127534,note_on,46,0,3,,,,,,,,2,,,64,0
127534,note_on,46,0,8,,,,,,,,7,,,57,0
127536,note_on,2,0,3,,,,,,,,2,,,69,110
127536,note_on,2,0,8,,,,,,,,7,,,61,110
127582,note_on,46,0,3,,,,,,,,2,,,69,0
127582,note_on,94,0,4,,,,,,,,3,,,57,0
127582,note_on,94,0,7,,,,,,,,6,,,73,0
127582,note_on,46,0,8,,,,,,,,7,,,61,0
127584,note_on,2,0,8,,,,,,,,7,,,64,110
127584,note_on,128,0,12,,,,,,,,12,,,45,45
127584,note_on,2,0,7,,,,,,,,6,,,64,110
127584,note_on,2,0,3,,,,,,,,2,,,73,110
127584,note_on,2,0,4,,,,,,,,3,,,57,110
127630,note_on,46,0,8,,,,,,,,7,,,64,0
127630,note_on,46,0,3,,,,,,,,2,,,73,0
127632,note_on,2,0,3,,,,,,,,2,,,69,110
127632,note_on,2,0,8,,,,,,,,7,,,61,110
127678,note_on,94,0,4,,,,,,,,3,,,57,0
127678,note_on,46,0,8,,,,,,,,7,,,61,0
127678,note_on,94,0,7,,,,,,,,6,,,64,0
127678,note_on,46,0,3,,,,,,,,2,,,69,0
127680,note_on,2,0,3,,,,,,,,2,,,67,110
127680,note_on,2,0,8,,,,,,,,7,,,59,110
127680,note_on,2,0,7,,,,,,,,6,,,69,110
127680,note_on,2,0,4,,,,,,,,3,,,45,110
127726,note_on,46,0,3,,,,,,,,2,,,67,0
127726,note_on,46,0,8,,,,,,,,7,,,59,0
127728,note_on,2,0,3,,,,,,,,2,,,69,110
127728,note_on,2,0,8,,,,,,,,7,,,61,110
127744,note_on,160,0,12,,,,,,,,12,,,45,0
127774,note_on,94,0,4,,,,,,,,3,,,45,0
127774,note_on,46,0,3,,,,,,,,2,,,69,0
127774,note_on,94,0,7,,,,,,,,6,,,69,0
127774,note_on,46,0,8,,,,,,,,7,,,61,0
127776,note_on,2,0,3,,,,,,,,2,,,64,110
127776,note_on,2,0,8,,,,,,,,7,,,57,110
127776,note_on,2,0,7,,,,,,,,6,,,73,110
127776,note_on,2,0,4,,,,,,,,3,,,57,110
127822,note_on,46,0,8,,,,,,,,7,,,57,0
127822,note_on,46,0,3,,,,,,,,2,,,64,0
127824,note_on,2,0,3,,,,,,,,2,,,69,110
127824,note_on,2,0,8,,,,,,,,7,,,61,110
127870,note_on,94,0,4,,,,,,,,3,,,57,0
127870,note_on,94,0,7,,,,,,,,6,,,73,0
127870,note_on,46,0,3,,,,,,,,2,,,69,0
127870,note_on,46,0,8,,,,,,,,7,,,61,0
127872,note_on,2,0,7,,,,,,,,6,,,64,110
127872,note_on,128,0,12,,,,,,,,12,,,57,45
127872,note_on,2,0,4,,,,,,,,3,,,57,110
127872,note_on,2,0,3,,,,,,,,2,,,73,110
127872,note_on,2,0,8,,,,,,,,7,,,64,110
127918,note_on,46,0,3,,,,,,,,2,,,73,0
127918,note_on,46,0,8,,,,,,,,7,,,64,0
127920,note_on,2,0,8,,,,,,,,7,,,61,110
127920,note_on,2,0,3,,,,,,,,2,,,69,110
127966,note_on,46,0,3,,,,,,,,2,,,69,0
127966,note_on,46,0,8,,,,,,,,7,,,61,0
127966,note_on,94,0,7,,,,,,,,6,,,64,0
127966,note_on,94,0,4,,,,,,,,3,,,57,0
127968,note_on,2,0,4,,,,,,,,3,,,45,110
127968,note_on,2,0,3,,,,,,,,2,,,67,110
127968,note_on,2,0,7,,,,,,,,6,,,69,110
127968,note_on,2,0,8,,,,,,,,7,,,59,110
128014,note_on,46,0,8,,,,,,,,7,,,59,0
128014,note_on,46,0,3,,,,,,,,2,,,67,0
128016,note_on,2,0,8,,,,,,,,7,,,61,110
128016,note_on,2,0,3,,,,,,,,2,,,69,110
128032,note_on,160,0,12,,,,,,,,12,,,57,0
128062,note_on,94,0,7,,,,,,,,6,,,69,0
128062,note_on,46,0,3,,,,,,,,2,,,69,0
128062,note_on,94,0,4,,,,,,,,3,,,45,0
128062,note_on,46,0,8,,,,,,,,7,,,61,0
128064,note_on,896,0,9,,,,,,,,8,,,73,45
128064,note_on,896,0,11,,,,,,,,11,,,64,45
128064,note_on,2,0,8,,,,,,,,7,,,57,110
128064,note_on,2,0,4,,,,,,,,3,,,57,110
128064,note_on,32,0,12,,,,,,,,12,,,45,45
128064,note_on,2,0,3,,,,,,,,2,,,64,110
128064,note_on,2,0,7,,,,,,,,6,,,73,110
128064,note_on,896,0,10,,,,,,,,10,,,69,45
128110,note_on,46,0,3,,,,,,,,2,,,64,0
128110,note_on,46,0,8,,,,,,,,7,,,57,0
128112,note_on,2,0,3,,,,,,,,2,,,69,110
128112,note_on,2,0,8,,,,,,,,7,,,61,110
128158,note_on,94,0,10,,,,,,,,10,,,69,0
128158,note_on,46,0,8,,,,,,,,7,,,61,0
128158,note_on,94,0,9,,,,,,,,8,,,73,0
128158,note_on,94,0,12,,,,,,,,12,,,45,0
128158,note_on,94,0,11,,,,,,,,11,,,64,0
128158,note_on,94,0,4,,,,,,,,3,,,57,0
128158,note_on,46,0,3,,,,,,,,2,,,69,0
128158,note_on,94,0,7,,,,,,,,6,,,73,0
128160,note_on,2,0,3,,,,,,,,2,,,66,110
128160,note_on,992,0,2,,,,,,,,1,,,50,110
128160,note_on,2,0,7,,,,,,,,6,,,74,110
128160,note_on,2,0,12,,,,,,,,12,,,50,45
128160,note_on,2,0,10,,,,,,,,10,,,69,45
128160,note_on,2,0,4,,,,,,,,3,,,50,110
128160,note_on,2,0,11,,,,,,,,11,,,66,45
128160,note_on,2,0,9,,,,,,,,8,,,74,45
128160,note_on,2,0,8,,,,,,,,7,,,50,110
128208,note_on,1040,0,6,,,,,,,,5,,,54,110
128208,note_on,1010,0,1,,,,,,,,0,,,74,110
128254,note_on,94,0,7,,,,,,,,6,,,74,0
128254,note_on,94,0,2,,,,,,,,1,,,50,0
128254,note_on,46,0,6,,,,,,,,5,,,54,0
128256,note_on,2,0,2,,,,,,,,1,,,38,110
128256,note_on,0,0,1,,,,,,,,0,,,73,110
128256,note_on,48,0,1,,,,,,,,0,,,74,0
128256,note_on,2,0,7,,,,,,,,6,,,62,110
128256,note_on,2,0,6,,,,,,,,5,,,52,110
128302,note_on,46,0,6,,,,,,,,5,,,52,0
128304,note_on,48,0,1,,,,,,,,0,,,73,0
128304,note_on,0,0,1,,,,,,,,0,,,74,110
128304,note_on,2,0,6,,,,,,,,5,,,54,110
128320,note_on,160,0,10,,,,,,,,10,,,69,0
128320,note_on,160,0,12,,,,,,,,12,,,50,0
128320,note_on,160,0,3,,,,,,,,2,,,66,0
128320,note_on,160,0,4,,,,,,,,3,,,50,0
128320,note_on,160,0,9,,,,,,,,8,,,74,0
128320,note_on,160,0,11,,,,,,,,11,,,66,0
128320,note_on,160,0,8,,,,,,,,7,,,50,0
128350,note_on,46,0,6,,,,,,,,5,,,54,0
128350,note_on,94,0,2,,,,,,,,1,,,38,0
128350,note_on,94,0,7,,,,,,,,6,,,62,0
128352,note_on,2,0,2,,,,,,,,1,,,50,110
128352,note_on,48,0,1,,,,,,,,0,,,74,0
128352,note_on,2,0,6,,,,,,,,5,,,50,110
128352,note_on,0,0,1,,,,,,,,0,,,69,110
128398,note_on,46,0,6,,,,,,,,5,,,50,0
128400,note_on,2,0,6,,,,,,,,5,,,54,110
128400,note_on,48,0,1,,,,,,,,0,,,69,0
128400,note_on,0,0,1,,,,,,,,0,,,74,110
128446,note_on,46,0,6,,,,,,,,5,,,54,0
128446,note_on,94,0,2,,,,,,,,1,,,50,0
128446,note_on,46,0,1,,,,,,,,0,,,74,0
128448,note_on,2,0,2,,,,,,,,1,,,50,110
128448,note_on,2,0,6,,,,,,,,5,,,57,110
128448,note_on,128,0,12,,,,,,,,12,,,50,45
128448,note_on,1280,0,5,,,,,,,,4,,,69,110
128448,note_on,2,0,1,,,,,,,,0,,,78,110
128494,note_on,46,0,6,,,,,,,,5,,,57,0
128496,note_on,0,0,1,,,,,,,,0,,,74,110
128496,note_on,2,0,6,,,,,,,,5,,,54,110
128496,note_on,48,0,1,,,,,,,,0,,,78,0
128542,note_on,46,0,6,,,,,,,,5,,,54,0
128542,note_on,94,0,2,,,,,,,,1,,,50,0
128542,note_on,94,0,5,,,,,,,,4,,,69,0
128544,note_on,2,0,2,,,,,,,,1,,,38,110
128544,note_on,48,0,1,,,,,,,,0,,,74,0
128544,note_on,0,0,1,,,,,,,,0,,,73,110
128544,note_on,2,0,5,,,,,,,,4,,,74,110
128544,note_on,2,0,6,,,,,,,,5,,,52,110
128590,note_on,46,0,6,,,,,,,,5,,,52,0
128592,note_on,48,0,1,,,,,,,,0,,,73,0
128592,note_on,0,0,1,,,,,,,,0,,,74,110
128592,note_on,2,0,6,,,,,,,,5,,,54,110
128608,note_on,160,0,12,,,,,,,,12,,,50,0
128638,note_on,94,0,5,,,,,,,,4,,,74,0
128638,note_on,46,0,6,,,,,,,,5,,,54,0
128638,note_on,94,0,2,,,,,,,,1,,,38,0
128640,note_on,2,0,2,,,,,,,,1,,,50,110
128640,note_on,48,0,1,,,,,,,,0,,,74,0
128640,note_on,0,0,1,,,,,,,,0,,,69,110
128640,note_on,2,0,5,,,,,,,,4,,,78,110
128640,note_on,2,0,6,,,,,,,,5,,,50,110
128686,note_on,46,0,6,,,,,,,,5,,,50,0
128688,note_on,48,0,1,,,,,,,,0,,,69,0
128688,note_on,2,0,6,,,,,,,,5,,,54,110
128688,note_on,0,0,1,,,,,,,,0,,,74,110
128734,note_on,46,0,1,,,,,,,,0,,,74,0
128734,note_on,94,0,5,,,,,,,,4,,,78,0
128734,note_on,46,0,6,,,,,,,,5,,,54,0
128734,note_on,94,0,2,,,,,,,,1,,,50,0
128736,note_on,2,0,1,,,,,,,,0,,,78,110
128736,note_on,2,0,6,,,,,,,,5,,,57,110
128736,note_on,2,0,5,,,,,,,,4,,,69,110
128736,note_on,128,0,12,,,,,,,,12,,,38,45
128736,note_on,2,0,2,,,,,,,,1,,,50,110
128782,note_on,46,0,6,,,,,,,,5,,,57,0
128784,note_on,48,0,1,,,,,,,,0,,,78,0
128784,note_on,2,0,6,,,,,,,,5,,,54,110
128784,note_on,0,0,1,,,,,,,,0,,,74,110
128830,note_on,94,0,5,,,,,,,,4,,,69,0
128830,note_on,94,0,2,,,,,,,,1,,,50,0
128830,note_on,46,0,6,,,,,,,,5,,,54,0
128832,note_on,2,0,6,,,,,,,,5,,,52,110
128832,note_on,2,0,5,,,,,,,,4,,,74,110
128832,note_on,48,0,1,,,,,,,,0,,,74,0
128832,note_on,0,0,1,,,,,,,,0,,,73,110
128832,note_on,2,0,2,,,,,,,,1,,,38,110
128878,note_on,46,0,6,,,,,,,,5,,,52,0
128880,note_on,0,0,1,,,,,,,,0,,,74,110
128880,note_on,2,0,6,,,,,,,,5,,,54,110
128880,note_on,48,0,1,,,,,,,,0,,,73,0
128896,note_on,160,0,12,,,,,,,,12,,,38,0
128926,note_on,94,0,2,,,,,,,,1,,,38,0
128926,note_on,94,0,5,,,,,,,,4,,,74,0
128926,note_on,46,0,6,,,,,,,,5,,,54,0
128928,note_on,2,0,2,,,,,,,,1,,,50,110
128928,note_on,48,0,1,,,,,,,,0,,,74,0
128928,note_on,0,0,1,,,,,,,,0,,,69,110
128928,note_on,2,0,6,,,,,,,,5,,,50,110
128928,note_on,2,0,5,,,,,,,,4,,,78,110
128974,note_on,46,0,6,,,,,,,,5,,,50,0
128976,note_on,0,0,1,,,,,,,,0,,,74,110
128976,note_on,48,0,1,,,,,,,,0,,,69,0
128976,note_on,2,0,6,,,,,,,,5,,,54,110
129022,note_on,94,0,2,,,,,,,,1,,,50,0
129022,note_on,46,0,1,,,,,,,,0,,,74,0
129022,note_on,46,0,6,,,,,,,,5,,,54,0
129022,note_on,94,0,5,,,,,,,,4,,,78,0
129024,note_on,2,0,5,,,,,,,,4,,,69,110
129024,note_on,2,0,1,,,,,,,,0,,,78,110
129024,note_on,2,0,6,,,,,,,,5,,,57,110
129024,note_on,128,0,12,,,,,,,,12,,,50,45
129024,note_on,2,0,2,,,,,,,,1,,,50,110
129070,note_on,46,0,1,,,,,,,,0,,,78,0
129070,note_on,46,0,6,,,,,,,,5,,,57,0
129072,note_on,2,0,1,,,,,,,,0,,,74,110
129072,note_on,2,0,6,,,,,,,,5,,,54,110
129118,note_on,46,0,6,,,,,,,,5,,,54,0
129118,note_on,94,0,2,,,,,,,,1,,,50,0
129118,note_on,46,0,1,,,,,,,,0,,,74,0
129118,note_on,94,0,5,,,,,,,,4,,,69,0
129120,note_on,2,0,5,,,,,,,,4,,,74,110
129120,note_on,2,0,6,,,,,,,,5,,,52,110
129120,note_on,2,0,1,,,,,,,,0,,,73,110
129120,note_on,2,0,2,,,,,,,,1,,,38,110
129166,note_on,46,0,1,,,,,,,,0,,,73,0
129166,note_on,46,0,6,,,,,,,,5,,,52,0
129168,note_on,2,0,1,,,,,,,,0,,,74,110
129168,note_on,2,0,6,,,,,,,,5,,,54,110
129184,note_on,160,0,12,,,,,,,,12,,,50,0
129214,note_on,94,0,5,,,,,,,,4,,,74,0
129214,note_on,46,0,6,,,,,,,,5,,,54,0
129214,note_on,94,0,2,,,,,,,,1,,,38,0
129214,note_on,46,0,1,,,,,,,,0,,,74,0
129216,note_on,896,0,9,,,,,,,,8,,,78,45
129216,note_on,2,0,6,,,,,,,,5,,,50,110
129216,note_on,32,0,12,,,,,,,,12,,,38,45
129216,note_on,896,0,10,,,,,,,,10,,,74,45
129216,note_on,2,0,2,,,,,,,,1,,,50,110
129216,note_on,2,0,1,,,,,,,,0,,,69,110
129216,note_on,2,0,5,,,,,,,,4,,,78,110
129216,note_on,896,0,11,,,,,,,,11,,,69,45
129262,note_on,46,0,1,,,,,,,,0,,,69,0
129262,note_on,46,0,6,,,,,,,,5,,,50,0
129264,note_on,2,0,6,,,,,,,,5,,,54,110
129264,note_on,2,0,1,,,,,,,,0,,,74,110
129310,note_on,94,0,12,,,,,,,,12,,,38,0
129310,note_on,94,0,10,,,,,,,,10,,,74,0
129310,note_on,94,0,5,,,,,,,,4,,,78,0
129310,note_on,94,0,2,,,,,,,,1,,,50,0
129310,note_on,94,0,9,,,,,,,,8,,,78,0
129310,note_on,46,0,6,,,,,,,,5,,,54,0
129310,note_on,46,0,1,,,,,,,,0,,,74,0
129310,note_on,94,0,11,,,,,,,,11,,,69,0
129312,note_on,2,0,11,,,,,,,,11,,,71,45
129312,note_on,2,0,9,,,,,,,,8,,,79,45
129312,note_on,2,0,6,,,,,,,,5,,,43,110
129312,note_on,2,0,12,,,,,,,,12,,,43,45
129312,note_on,2,0,2,,,,,,,,1,,,43,110
129312,note_on,2,0,1,,,,,,,,0,,,71,110
129312,note_on,992,0,8,,,,,,,,7,,,55,110
129312,note_on,2,0,10,,,,,,,,10,,,74,45
129312,note_on,2,0,5,,,,,,,,4,,,79,110
129360,note_on,1010,0,7,,,,,,,,6,,,67,110
129360,note_on,1040,0,4,,,,,,,,3,,,59,110
129406,note_on,94,0,5,,,,,,,,4,,,79,0
129406,note_on,46,0,7,,,,,,,,6,,,67,0
129406,note_on,94,0,8,,,,,,,,7,,,55,0
129406,note_on,46,0,4,,,,,,,,3,,,59,0
129408,note_on,2,0,5,,,,,,,,4,,,74,110
129408,note_on,2,0,7,,,,,,,,6,,,66,110
129408,note_on,2,0,8,,,,,,,,7,,,43,110
129408,note_on,2,0,4,,,,,,,,3,,,57,110
129454,note_on,46,0,4,,,,,,,,3,,,57,0
129454,note_on,46,0,7,,,,,,,,6,,,66,0
129456,note_on,2,0,7,,,,,,,,6,,,67,110
129456,note_on,2,0,4,,,,,,,,3,,,59,110
129472,note_on,160,0,9,,,,,,,,8,,,79,0
129472,note_on,160,0,6,,,,,,,,5,,,43,0
129472,note_on,160,0,1,,,,,,,,0,,,71,0
129472,note_on,160,0,12,,,,,,,,12,,,43,0
129472,note_on,160,0,11,,,,,,,,11,,,71,0
129472,note_on,160,0,10,,,,,,,,10,,,74,0
129472,note_on,160,0,2,,,,,,,,1,,,43,0
129502,note_on,46,0,7,,,,,,,,6,,,67,0
129502,note_on,94,0,8,,,,,,,,7,,,43,0
129502,note_on,46,0,4,,,,,,,,3,,,59,0
129502,note_on,94,0,5,,,,,,,,4,,,74,0
129504,note_on,2,0,4,,,,,,,,3,,,55,110
129504,note_on,2,0,8,,,,,,,,7,,,55,110
129504,note_on,2,0,7,,,,,,,,6,,,62,110
129550,note_on,46,0,7,,,,,,,,6,,,62,0
129550,note_on,46,0,4,,,,,,,,3,,,55,0
129552,note_on,2,0,4,,,,,,,,3,,,59,110
129552,note_on,2,0,7,,,,,,,,6,,,67,110
129598,note_on,46,0,4,,,,,,,,3,,,59,0
129598,note_on,94,0,8,,,,,,,,7,,,55,0
129598,note_on,46,0,7,,,,,,,,6,,,67,0
129600,note_on,2,0,4,,,,,,,,3,,,62,110
129600,note_on,2,0,7,,,,,,,,6,,,71,110
129600,note_on,128,0,12,,,,,,,,12,,,55,45
129600,note_on,2,0,8,,,,,,,,7,,,55,110
129600,note_on,1280,0,3,,,,,,,,2,,,62,110
129646,note_on,46,0,4,,,,,,,,3,,,62,0
129646,note_on,46,0,7,,,,,,,,6,,,71,0
129648,note_on,2,0,4,,,,,,,,3,,,59,110
129648,note_on,2,0,7,,,,,,,,6,,,67,110
129694,note_on,46,0,4,,,,,,,,3,,,59,0
129694,note_on,46,0,7,,,,,,,,6,,,67,0
129694,note_on,94,0,8,,,,,,,,7,,,55,0
129694,note_on,94,0,3,,,,,,,,2,,,62,0
129696,note_on,2,0,3,,,,,,,,2,,,67,110
129696,note_on,2,0,7,,,,,,,,6,,,66,110
129696,note_on,2,0,8,,,,,,,,7,,,43,110
129696,note_on,2,0,4,,,,,,,,3,,,57,110
129742,note_on,46,0,7,,,,,,,,6,,,66,0
129742,note_on,46,0,4,,,,,,,,3,,,57,0
129744,note_on,2,0,7,,,,,,,,6,,,67,110
129744,note_on,2,0,4,,,,,,,,3,,,59,110
129760,note_on,160,0,12,,,,,,,,12,,,55,0
129790,note_on,94,0,8,,,,,,,,7,,,43,0
129790,note_on,46,0,4,,,,,,,,3,,,59,0
129790,note_on,46,0,7,,,,,,,,6,,,67,0
129790,note_on,94,0,3,,,,,,,,2,,,67,0
129792,note_on,2,0,7,,,,,,,,6,,,62,110
129792,note_on,2,0,8,,,,,,,,7,,,55,110
129792,note_on,2,0,4,,,,,,,,3,,,55,110
129792,note_on,2,0,3,,,,,,,,2,,,71,110
129838,note_on,46,0,4,,,,,,,,3,,,55,0
129838,note_on,46,0,7,,,,,,,,6,,,62,0
129840,note_on,2,0,7,,,,,,,,6,,,67,110
129840,note_on,2,0,4,,,,,,,,3,,,59,110
129886,note_on,94,0,3,,,,,,,,2,,,71,0
129886,note_on,46,0,7,,,,,,,,6,,,67,0
129886,note_on,94,0,8,,,,,,,,7,,,55,0
129886,note_on,46,0,4,,,,,,,,3,,,59,0
129888,note_on,2,0,3,,,,,,,,2,,,62,110
129888,note_on,2,0,7,,,,,,,,6,,,71,110
129888,note_on,2,0,8,,,,,,,,7,,,55,110
129888,note_on,128,0,12,,,,,,,,12,,,43,45
129888,note_on,2,0,4,,,,,,,,3,,,62,110
129934,note_on,46,0,7,,,,,,,,6,,,71,0
129934,note_on,46,0,4,,,,,,,,3,,,62,0
129936,note_on,2,0,7,,,,,,,,6,,,67,110
129936,note_on,2,0,4,,,,,,,,3,,,59,110
129982,note_on,94,0,3,,,,,,,,2,,,62,0
129982,note_on,94,0,8,,,,,,,,7,,,55,0
129982,note_on,46,0,4,,,,,,,,3,,,59,0
129982,note_on,46,0,7,,,,,,,,6,,,67,0
129984,note_on,2,0,3,,,,,,,,2,,,67,110
129984,note_on,2,0,8,,,,,,,,7,,,43,110
129984,note_on,2,0,4,,,,,,,,3,,,57,110
129984,note_on,2,0,7,,,,,,,,6,,,66,110
130030,note_on,46,0,4,,,,,,,,3,,,57,0
130030,note_on,46,0,7,,,,,,,,6,,,66,0
130032,note_on,2,0,7,,,,,,,,6,,,67,110
130032,note_on,2,0,4,,,,,,,,3,,,59,110
130048,note_on,160,0,12,,,,,,,,12,,,43,0
130078,note_on,46,0,7,,,,,,,,6,,,67,0
130078,note_on,46,0,4,,,,,,,,3,,,59,0
130078,note_on,94,0,8,,,,,,,,7,,,43,0
130078,note_on,94,0,3,,,,,,,,2,,,67,0
130080,note_on,2,0,7,,,,,,,,6,,,62,110
130080,note_on,2,0,8,,,,,,,,7,,,55,110
130080,note_on,2,0,4,,,,,,,,3,,,55,110
130080,note_on,2,0,3,,,,,,,,2,,,71,110
130126,note_on,46,0,4,,,,,,,,3,,,55,0
130126,note_on,46,0,7,,,,,,,,6,,,62,0
130128,note_on,2,0,7,,,,,,,,6,,,67,110
130128,note_on,2,0,4,,,,,,,,3,,,59,110
130174,note_on,46,0,4,,,,,,,,3,,,59,0
130174,note_on,94,0,3,,,,,,,,2,,,71,0
130174,note_on,94,0,8,,,,,,,,7,,,55,0
130174,note_on,46,0,7,,,,,,,,6,,,67,0
130176,note_on,2,0,3,,,,,,,,2,,,62,110
130176,note_on,128,0,12,,,,,,,,12,,,55,45
130176,note_on,2,0,8,,,,,,,,7,,,55,110
130176,note_on,2,0,4,,,,,,,,3,,,62,110
130176,note_on,2,0,7,,,,,,,,6,,,71,110
130222,note_on,46,0,7,,,,,,,,6,,,71,0
130222,note_on,46,0,4,,,,,,,,3,,,62,0
130224,note_on,2,0,7,,,,,,,,6,,,67,110
130224,note_on,2,0,4,,,,,,,,3,,,59,110
130270,note_on,94,0,3,,,,,,,,2,,,62,0
130270,note_on,46,0,4,,,,,,,,3,,,59,0
130270,note_on,94,0,8,,,,,,,,7,,,55,0
130270,note_on,46,0,7,,,,,,,,6,,,67,0
130272,note_on,2,0,8,,,,,,,,7,,,43,110
130272,note_on,2,0,3,,,,,,,,2,,,67,110
130272,note_on,2,0,4,,,,,,,,3,,,57,110
130272,note_on,2,0,7,,,,,,,,6,,,66,110
130318,note_on,46,0,4,,,,,,,,3,,,57,0
130318,note_on,46,0,7,,,,,,,,6,,,66,0
130320,note_on,2,0,7,,,,,,,,6,,,67,110
130320,note_on,2,0,4,,,,,,,,3,,,59,110
130336,note_on,160,0,12,,,,,,,,12,,,55,0
130366,note_on,46,0,4,,,,,,,,3,,,59,0
130366,note_on,46,0,7,,,,,,,,6,,,67,0
130366,note_on,94,0,8,,,,,,,,7,,,43,0
130366,note_on,94,0,3,,,,,,,,2,,,67,0
130368,note_on,896,0,11,,,,,,,,11,,,62,45
130368,note_on,2,0,4,,,,,,,,3,,,55,110
130368,note_on,32,0,12,,,,,,,,12,,,43,45
130368,note_on,2,0,3,,,,,,,,2,,,71,110
130368,note_on,896,0,10,,,,,,,,10,,,67,45
130368,note_on,2,0,8,,,,,,,,7,,,55,110
130368,note_on,2,0,7,,,,,,,,6,,,62,110
130368,note_on,896,0,9,,,,,,,,8,,,71,45
130414,note_on,46,0,7,,,,,,,,6,,,62,0
130414,note_on,46,0,4,,,,,,,,3,,,55,0
130416,note_on,2,0,4,,,,,,,,3,,,59,110
130416,note_on,2,0,7,,,,,,,,6,,,67,110
130462,note_on,94,0,9,,,,,,,,8,,,71,0
130462,note_on,46,0,4,,,,,,,,3,,,59,0
130462,note_on,94,0,8,,,,,,,,7,,,55,0
130462,note_on,94,0,10,,,,,,,,10,,,67,0
130462,note_on,94,0,3,,,,,,,,2,,,71,0
130462,note_on,46,0,7,,,,,,,,6,,,67,0
130462,note_on,94,0,12,,,,,,,,12,,,43,0
130462,note_on,94,0,11,,,,,,,,11,,,62,0
130464,note_on,2,0,4,,,,,,,,3,,,48,110
130464,note_on,2,0,10,,,,,,,,10,,,67,45
130464,note_on,2,0,8,,,,,,,,7,,,48,110
130464,note_on,2,0,7,,,,,,,,6,,,64,110
130464,note_on,2,0,12,,,,,,,,12,,,48,45
130464,note_on,2,0,11,,,,,,,,11,,,64,45
130464,note_on,2,0,9,,,,,,,,8,,,72,45
130464,note_on,992,0,6,,,,,,,,5,,,48,110
130464,note_on,2,0,3,,,,,,,,2,,,72,110
130512,note_on,1010,0,5,,,,,,,,4,,,72,110
130512,note_on,1040,0,2,,,,,,,,1,,,52,110
130558,note_on,94,0,6,,,,,,,,5,,,48,0
130558,note_on,94,0,3,,,,,,,,2,,,72,0
130558,note_on,46,0,5,,,,,,,,4,,,72,0
130558,note_on,46,0,2,,,,,,,,1,,,52,0
130560,note_on,2,0,5,,,,,,,,4,,,71,110
130560,note_on,2,0,3,,,,,,,,2,,,67,110
130560,note_on,2,0,6,,,,,,,,5,,,36,110
130560,note_on,2,0,2,,,,,,,,1,,,50,110
130606,note_on,46,0,2,,,,,,,,1,,,50,0
130606,note_on,46,0,5,,,,,,,,4,,,71,0
130608,note_on,2,0,2,,,,,,,,1,,,52,110
130608,note_on,2,0,5,,,,,,,,4,,,72,110
130624,note_on,160,0,7,,,,,,,,6,,,64,0
130624,note_on,160,0,4,,,,,,,,3,,,48,0
130624,note_on,160,0,10,,,,,,,,10,,,67,0
130624,note_on,160,0,11,,,,,,,,11,,,64,0
130624,note_on,160,0,8,,,,,,,,7,,,48,0
130624,note_on,160,0,9,,,,,,,,8,,,72,0
130624,note_on,160,0,12,,,,,,,,12,,,48,0
130654,note_on,94,0,6,,,,,,,,5,,,36,0
130654,note_on,46,0,2,,,,,,,,1,,,52,0
130654,note_on,46,0,5,,,,,,,,4,,,72,0
130654,note_on,94,0,3,,,,,,,,2,,,67,0
130656,note_on,2,0,2,,,,,,,,1,,,48,110
130656,note_on,2,0,6,,,,,,,,5,,,48,110
130656,note_on,2,0,5,,,,,,,,4,,,67,110
130702,note_on,46,0,2,,,,,,,,1,,,48,0
130702,note_on,46,0,5,,,,,,,,4,,,67,0
130704,note_on,2,0,5,,,,,,,,4,,,72,110
130704,note_on,2,0,2,,,,,,,,1,,,52,110
130750,note_on,46,0,5,,,,,,,,4,,,72,0
130750,note_on,94,0,6,,,,,,,,5,,,48,0
130750,note_on,46,0,2,,,,,,,,1,,,52,0
130752,note_on,2,0,6,,,,,,,,5,,,48,110
130752,note_on,2,0,2,,,,,,,,1,,,55,110
130752,note_on,2,0,5,,,,,,,,4,,,76,110
130752,note_on,128,0,12,,,,,,,,12,,,48,45
130752,note_on,1280,0,1,,,,,,,,0,,,67,110
130798,note_on,46,0,5,,,,,,,,4,,,76,0
130798,note_on,46,0,2,,,,,,,,1,,,55,0
130800,note_on,2,0,5,,,,,,,,4,,,72,110
130800,note_on,2,0,2,,,,,,,,1,,,52,110
130846,note_on,94,0,1,,,,,,,,0,,,67,0
130846,note_on,94,0,6,,,,,,,,5,,,48,0
130846,note_on,46,0,2,,,,,,,,1,,,52,0
130846,note_on,46,0,5,,,,,,,,4,,,72,0
130848,note_on,2,0,5,,,,,,,,4,,,71,110
130848,note_on,2,0,1,,,,,,,,0,,,72,110
130848,note_on,2,0,2,,,,,,,,1,,,50,110
130848,note_on,2,0,6,,,,,,,,5,,,36,110
130894,note_on,46,0,5,,,,,,,,4,,,71,0
130894,note_on,46,0,2,,,,,,,,1,,,50,0
130896,note_on,2,0,5,,,,,,,,4,,,72,110
130896,note_on,2,0,2,,,,,,,,1,,,52,110
130912,note_on,160,0,12,,,,,,,,12,,,48,0
130942,note_on,46,0,2,,,,,,,,1,,,52,0
130942,note_on,46,0,5,,,,,,,,4,,,72,0
130942,note_on,94,0,6,,,,,,,,5,,,36,0
130942,note_on,94,0,1,,,,,,,,0,,,72,0
130944,note_on,320,0,11,,,,,,,,11,,,67,45
130944,note_on,32,0,12,,,,,,,,12,,,36,45
130944,note_on,320,0,10,,,,,,,,10,,,72,45
130944,note_on,2,0,2,,,,,,,,1,,,48,110
130944,note_on,2,0,6,,,,,,,,5,,,48,110
130944,note_on,2,0,1,,,,,,,,0,,,76,110
130944,note_on,2,0,5,,,,,,,,4,,,67,110
130944,note_on,320,0,9,,,,,,,,8,,,76,45
130990,note_on,46,0,5,,,,,,,,4,,,67,0
130990,note_on,46,0,2,,,,,,,,1,,,48,0
130992,note_on,2,0,5,,,,,,,,4,,,72,110
130992,note_on,2,0,2,,,,,,,,1,,,52,110
131038,note_on,94,0,9,,,,,,,,8,,,76,0
131038,note_on,94,0,1,,,,,,,,0,,,76,0
131038,note_on,94,0,6,,,,,,,,5,,,48,0
131038,note_on,94,0,10,,,,,,,,10,,,72,0
131038,note_on,46,0,5,,,,,,,,4,,,72,0
131038,note_on,94,0,11,,,,,,,,11,,,67,0
131038,note_on,46,0,2,,,,,,,,1,,,52,0
131038,note_on,94,0,12,,,,,,,,12,,,36,0
131040,note_on,2,0,6,,,,,,,,5,,,41,110
131040,note_on,2,0,2,,,,,,,,1,,,41,110
131040,note_on,2,0,12,,,,,,,,12,,,41,45
131040,note_on,2,0,1,,,,,,,,0,,,77,110
131040,note_on,2,0,9,,,,,,,,8,,,77,45
131040,note_on,2,0,5,,,,,,,,4,,,69,110
131040,note_on,2,0,11,,,,,,,,11,,,69,45
131040,note_on,2,0,10,,,,,,,,10,,,72,45
131040,note_on,416,0,4,,,,,,,,3,,,53,110
131086,note_on,46,0,6,,,,,,,,5,,,41,0
131088,note_on,2,0,6,,,,,,,,5,,,57,110
131088,note_on,434,0,3,,,,,,,,2,,,72,110
131134,note_on,94,0,1,,,,,,,,0,,,77,0
131134,note_on,46,0,3,,,,,,,,2,,,72,0
131134,note_on,94,0,4,,,,,,,,3,,,53,0
131134,note_on,46,0,6,,,,,,,,5,,,57,0
131136,note_on,2,0,6,,,,,,,,5,,,55,110
131136,note_on,2,0,1,,,,,,,,0,,,72,110
131136,note_on,2,0,3,,,,,,,,2,,,71,110
131136,note_on,2,0,4,,,,,,,,3,,,41,110
131182,note_on,46,0,3,,,,,,,,2,,,71,0
131182,note_on,46,0,6,,,,,,,,5,,,55,0
131184,note_on,2,0,3,,,,,,,,2,,,72,110
131184,note_on,2,0,6,,,,,,,,5,,,57,110
131200,note_on,160,0,9,,,,,,,,8,,,77,0
131200,note_on,160,0,12,,,,,,,,12,,,41,0
131200,note_on,160,0,10,,,,,,,,10,,,72,0
131200,note_on,160,0,11,,,,,,,,11,,,69,0
131200,note_on,160,0,5,,,,,,,,4,,,69,0
131200,note_on,160,0,2,,,,,,,,1,,,41,0
131230,note_on,46,0,3,,,,,,,,2,,,72,0
131230,note_on,94,0,1,,,,,,,,0,,,72,0
131230,note_on,94,0,4,,,,,,,,3,,,41,0
131230,note_on,46,0,6,,,,,,,,5,,,57,0
131232,note_on,2,0,4,,,,,,,,3,,,52,110
131232,note_on,2,0,3,,,,,,,,2,,,69,110
131232,note_on,2,0,6,,,,,,,,5,,,54,110
131278,note_on,46,0,6,,,,,,,,5,,,54,0
131278,note_on,46,0,3,,,,,,,,2,,,69,0
131280,note_on,2,0,6,,,,,,,,5,,,55,110
131280,note_on,2,0,3,,,,,,,,2,,,72,110
131326,note_on,94,0,4,,,,,,,,3,,,52,0
131326,note_on,46,0,6,,,,,,,,5,,,55,0
131326,note_on,46,0,3,,,,,,,,2,,,72,0
131328,note_on,2,0,3,,,,,,,,2,,,78,110
131328,note_on,2,0,6,,,,,,,,5,,,57,110
131328,note_on,128,0,12,,,,,,,,12,,,50,45
131328,note_on,2,0,4,,,,,,,,3,,,50,110
131328,note_on,128,0,5,,,,,,,,4,,,69,110
131374,note_on,46,0,6,,,,,,,,5,,,57,0
131374,note_on,46,0,3,,,,,,,,2,,,78,0
131376,note_on,2,0,3,,,,,,,,2,,,74,110
131376,note_on,2,0,6,,,,,,,,5,,,54,110
131422,note_on,94,0,4,,,,,,,,3,,,50,0
131422,note_on,46,0,3,,,,,,,,2,,,74,0
131422,note_on,94,0,5,,,,,,,,4,,,69,0
131422,note_on,46,0,6,,,,,,,,5,,,54,0
131424,note_on,2,0,6,,,,,,,,5,,,52,110
131424,note_on,2,0,5,,,,,,,,4,,,74,110
131424,note_on,2,0,4,,,,,,,,3,,,38,110
131424,note_on,2,0,3,,,,,,,,2,,,72,110
131470,note_on,46,0,6,,,,,,,,5,,,52,0
131470,note_on,46,0,3,,,,,,,,2,,,72,0
131472,note_on,2,0,3,,,,,,,,2,,,74,110
131472,note_on,2,0,6,,,,,,,,5,,,54,110
131488,note_on,160,0,12,,,,,,,,12,,,50,0
131518,note_on,46,0,6,,,,,,,,5,,,54,0
131518,note_on,94,0,5,,,,,,,,4,,,74,0
131518,note_on,94,0,4,,,,,,,,3,,,38,0
131518,note_on,46,0,3,,,,,,,,2,,,74,0
131520,note_on,320,0,9,,,,,,,,8,,,78,45
131520,note_on,320,0,10,,,,,,,,10,,,74,45
131520,note_on,2,0,4,,,,,,,,3,,,50,110
131520,note_on,320,0,11,,,,,,,,11,,,69,45
131520,note_on,2,0,6,,,,,,,,5,,,50,110
131520,note_on,2,0,5,,,,,,,,4,,,78,110
131520,note_on,32,0,12,,,,,,,,12,,,38,45
131520,note_on,2,0,3,,,,,,,,2,,,69,110
131566,note_on,46,0,6,,,,,,,,5,,,50,0
131566,note_on,46,0,3,,,,,,,,2,,,69,0
131568,note_on,2,0,6,,,,,,,,5,,,54,110
131568,note_on,2,0,3,,,,,,,,2,,,74,110
131614,note_on,46,0,3,,,,,,,,2,,,74,0
131614,note_on,94,0,12,,,,,,,,12,,,38,0
131614,note_on,94,0,11,,,,,,,,11,,,69,0
131614,note_on,94,0,9,,,,,,,,8,,,78,0
131614,note_on,94,0,4,,,,,,,,3,,,50,0
131614,note_on,94,0,5,,,,,,,,4,,,78,0
131614,note_on,46,0,6,,,,,,,,5,,,54,0
131614,note_on,94,0,10,,,,,,,,10,,,74,0
131616,note_on,992,0,8,,,,,,,,7,,,55,110
131616,note_on,2,0,11,,,,,,,,11,,,71,45
131616,note_on,2,0,6,,,,,,,,5,,,43,110
131616,note_on,2,0,4,,,,,,,,3,,,43,110
131616,note_on,2,0,10,,,,,,,,10,,,74,45
131616,note_on,2,0,5,,,,,,,,4,,,79,110
131616,note_on,2,0,9,,,,,,,,8,,,79,45
131616,note_on,2,0,3,,,,,,,,2,,,71,110
131616,note_on,2,0,12,,,,,,,,12,,,43,45
131662,note_on,46,0,4,,,,,,,,3,,,43,0
131664,note_on,1040,0,7,,,,,,,,6,,,74,110
131664,note_on,2,0,4,,,,,,,,3,,,59,110
131710,note_on,94,0,5,,,,,,,,4,,,79,0
131710,note_on,46,0,7,,,,,,,,6,,,74,0
131710,note_on,46,0,4,,,,,,,,3,,,59,0
131710,note_on,94,0,8,,,,,,,,7,,,55,0
131712,note_on,2,0,7,,,,,,,,6,,,72,110
131712,note_on,2,0,4,,,,,,,,3,,,57,110
131712,note_on,2,0,8,,,,,,,,7,,,43,110
131712,note_on,2,0,5,,,,,,,,4,,,74,110
131758,note_on,46,0,4,,,,,,,,3,,,57,0
131758,note_on,46,0,7,,,,,,,,6,,,72,0
131760,note_on,2,0,4,,,,,,,,3,,,59,110
131760,note_on,2,0,7,,,,,,,,6,,,74,110
131776,note_on,160,0,9,,,,,,,,8,,,79,0
131776,note_on,160,0,10,,,,,,,,10,,,74,0
131776,note_on,160,0,6,,,,,,,,5,,,43,0
131776,note_on,160,0,11,,,,,,,,11,,,71,0
131776,note_on,160,0,3,,,,,,,,2,,,71,0
131776,note_on,160,0,12,,,,,,,,12,,,43,0
131806,note_on,46,0,4,,,,,,,,3,,,59,0
131806,note_on,94,0,5,,,,,,,,4,,,74,0
131806,note_on,94,0,8,,,,,,,,7,,,43,0
131806,note_on,46,0,7,,,,,,,,6,,,74,0
131808,note_on,2,0,7,,,,,,,,6,,,71,110
131808,note_on,2,0,8,,,,,,,,7,,,53,110
131808,note_on,2,0,4,,,,,,,,3,,,56,110
131854,note_on,46,0,4,,,,,,,,3,,,56,0
131854,note_on,46,0,7,,,,,,,,6,,,71,0
131856,note_on,2,0,4,,,,,,,,3,,,57,110
131856,note_on,2,0,7,,,,,,,,6,,,74,110
131902,note_on,94,0,8,,,,,,,,7,,,53,0
131902,note_on,46,0,4,,,,,,,,3,,,57,0
131902,note_on,46,0,7,,,,,,,,6,,,74,0
131904,note_on,128,0,3,,,,,,,,2,,,71,110
131904,note_on,128,0,12,,,,,,,,12,,,52,45
131904,note_on,2,0,4,,,,,,,,3,,,59,110
131904,note_on,2,0,8,,,,,,,,7,,,52,110
131904,note_on,2,0,7,,,,,,,,6,,,80,110
131950,note_on,46,0,4,,,,,,,,3,,,59,0
131950,note_on,46,0,7,,,,,,,,6,,,80,0
131952,note_on,2,0,7,,,,,,,,6,,,76,110
131952,note_on,2,0,4,,,,,,,,3,,,56,110
131998,note_on,46,0,4,,,,,,,,3,,,56,0
131998,note_on,94,0,3,,,,,,,,2,,,71,0
131998,note_on,94,0,8,,,,,,,,7,,,52,0
131998,note_on,46,0,7,,,,,,,,6,,,76,0
132000,note_on,2,0,3,,,,,,,,2,,,76,110
132000,note_on,2,0,7,,,,,,,,6,,,74,110
132000,note_on,2,0,8,,,,,,,,7,,,40,110
132000,note_on,2,0,4,,,,,,,,3,,,54,110
132046,note_on,46,0,4,,,,,,,,3,,,54,0
132046,note_on,46,0,7,,,,,,,,6,,,74,0
132048,note_on,2,0,4,,,,,,,,3,,,56,110
132048,note_on,2,0,7,,,,,,,,6,,,76,110
132064,note_on,160,0,12,,,,,,,,12,,,52,0
132094,note_on,46,0,7,,,,,,,,6,,,76,0
132094,note_on,46,0,4,,,,,,,,3,,,56,0
132094,note_on,94,0,3,,,,,,,,2,,,76,0
132094,note_on,94,0,8,,,,,,,,7,,,40,0
132096,note_on,2,0,7,,,,,,,,6,,,71,110
132096,note_on,320,0,10,,,,,,,,10,,,76,45
132096,note_on,32,0,12,,,,,,,,12,,,40,45
132096,note_on,320,0,11,,,,,,,,11,,,71,45
132096,note_on,320,0,9,,,,,,,,8,,,80,45
132096,note_on,2,0,8,,,,,,,,7,,,52,110
132096,note_on,2,0,3,,,,,,,,2,,,80,110
132096,note_on,2,0,4,,,,,,,,3,,,52,110
132142,note_on,46,0,7,,,,,,,,6,,,71,0
132142,note_on,46,0,4,,,,,,,,3,,,52,0
132144,note_on,2,0,4,,,,,,,,3,,,56,110
132144,note_on,2,0,7,,,,,,,,6,,,76,110
132190,note_on,94,0,9,,,,,,,,8,,,80,0
132190,note_on,94,0,12,,,,,,,,12,,,40,0
132190,note_on,46,0,4,,,,,,,,3,,,56,0
132190,note_on,94,0,3,,,,,,,,2,,,80,0
132190,note_on,94,0,10,,,,,,,,10,,,76,0
132190,note_on,94,0,8,,,,,,,,7,,,52,0
132190,note_on,46,0,7,,,,,,,,6,,,76,0
132190,note_on,94,0,11,,,,,,,,11,,,71,0
132192,note_on,2,0,7,,,,,,,,6,,,72,110
132192,note_on,2,0,12,,,,,,,,12,,,45,45
132192,note_on,2,0,9,,,,,,,,8,,,81,45
132192,note_on,992,0,2,,,,,,,,1,,,57,110
132192,note_on,2,0,4,,,,,,,,3,,,45,110
132192,note_on,2,0,3,,,,,,,,2,,,81,110
132192,note_on,2,0,8,,,,,,,,7,,,45,110
132192,note_on,2,0,11,,,,,,,,11,,,72,45
132192,note_on,2,0,10,,,,,,,,10,,,76,45
132240,note_on,1010,0,1,,,,,,,,0,,,76,110
132240,note_on,464,0,6,,,,,,,,5,,,60,110
132286,note_on,46,0,6,,,,,,,,5,,,60,0
132286,note_on,94,0,3,,,,,,,,2,,,81,0
132286,note_on,46,0,1,,,,,,,,0,,,76,0
132286,note_on,94,0,2,,,,,,,,1,,,57,0
132288,note_on,2,0,6,,,,,,,,5,,,59,110
132288,note_on,2,0,1,,,,,,,,0,,,74,110
132288,note_on,2,0,3,,,,,,,,2,,,76,110
132288,note_on,2,0,2,,,,,,,,1,,,45,110
132334,note_on,46,0,6,,,,,,,,5,,,59,0
132334,note_on,46,0,1,,,,,,,,0,,,74,0
132336,note_on,2,0,6,,,,,,,,5,,,60,110
132336,note_on,2,0,1,,,,,,,,0,,,76,110
132352,note_on,160,0,10,,,,,,,,10,,,76,0
132352,note_on,160,0,7,,,,,,,,6,,,72,0
132352,note_on,160,0,9,,,,,,,,8,,,81,0
132352,note_on,160,0,11,,,,,,,,11,,,72,0
132352,note_on,160,0,4,,,,,,,,3,,,45,0
132352,note_on,160,0,8,,,,,,,,7,,,45,0
132352,note_on,160,0,12,,,,,,,,12,,,45,0
132382,note_on,46,0,1,,,,,,,,0,,,76,0
132382,note_on,94,0,3,,,,,,,,2,,,76,0
132382,note_on,46,0,6,,,,,,,,5,,,60,0
132382,note_on,94,0,2,,,,,,,,1,,,45,0
132384,note_on,2,0,2,,,,,,,,1,,,57,110
132384,note_on,2,0,1,,,,,,,,0,,,72,110
132384,note_on,2,0,6,,,,,,,,5,,,57,110
132430,note_on,46,0,1,,,,,,,,0,,,72,0
132430,note_on,46,0,6,,,,,,,,5,,,57,0
132432,note_on,2,0,1,,,,,,,,0,,,76,110
132432,note_on,2,0,6,,,,,,,,5,,,60,110
132478,note_on,46,0,6,,,,,,,,5,,,60,0
132478,note_on,46,0,1,,,,,,,,0,,,76,0
132478,note_on,94,0,2,,,,,,,,1,,,57,0
132480,note_on,128,0,12,,,,,,,,12,,,57,45
132480,note_on,2,0,2,,,,,,,,1,,,57,110
132480,note_on,2,0,6,,,,,,,,5,,,64,110
132480,note_on,674,0,5,,,,,,,,4,,,72,110
132480,note_on,2,0,1,,,,,,,,0,,,81,110
132526,note_on,46,0,6,,,,,,,,5,,,64,0
132526,note_on,46,0,1,,,,,,,,0,,,81,0
132528,note_on,2,0,6,,,,,,,,5,,,60,110
132528,note_on,2,0,1,,,,,,,,0,,,76,110
132574,note_on,46,0,1,,,,,,,,0,,,76,0
132574,note_on,46,0,6,,,,,,,,5,,,60,0
132574,note_on,94,0,2,,,,,,,,1,,,57,0
132574,note_on,94,0,5,,,,,,,,4,,,72,0
132576,note_on,2,0,6,,,,,,,,5,,,59,110
132576,note_on,2,0,2,,,,,,,,1,,,45,110
132576,note_on,2,0,5,,,,,,,,4,,,76,110
132576,note_on,2,0,1,,,,,,,,0,,,74,110
132622,note_on,46,0,1,,,,,,,,0,,,74,0
132622,note_on,46,0,6,,,,,,,,5,,,59,0
132624,note_on,2,0,6,,,,,,,,5,,,60,110
132624,note_on,2,0,1,,,,,,,,0,,,76,110
132640,note_on,160,0,12,,,,,,,,12,,,57,0
132670,note_on,46,0,1,,,,,,,,0,,,76,0
132670,note_on,94,0,2,,,,,,,,1,,,45,0
132670,note_on,94,0,5,,,,,,,,4,,,76,0
132670,note_on,46,0,6,,,,,,,,5,,,60,0
132672,note_on,2,0,2,,,,,,,,1,,,57,110
132672,note_on,2,0,1,,,,,,,,0,,,72,110
132672,note_on,2,0,5,,,,,,,,4,,,81,110
132672,note_on,2,0,6,,,,,,,,5,,,57,110
132718,note_on,46,0,6,,,,,,,,5,,,57,0
132718,note_on,46,0,1,,,,,,,,0,,,72,0
132720,note_on,2,0,1,,,,,,,,0,,,76,110
132720,note_on,2,0,6,,,,,,,,5,,,60,110
132766,note_on,46,0,6,,,,,,,,5,,,60,0
132766,note_on,94,0,5,,,,,,,,4,,,81,0
132766,note_on,94,0,2,,,,,,,,1,,,57,0
132766,note_on,46,0,1,,,,,,,,0,,,76,0
132768,note_on,2,0,6,,,,,,,,5,,,64,110
132768,note_on,2,0,2,,,,,,,,1,,,57,110
132768,note_on,128,0,12,,,,,,,,12,,,45,45
132768,note_on,2,0,1,,,,,,,,0,,,81,110
132768,note_on,2,0,5,,,,,,,,4,,,72,110
132814,note_on,46,0,1,,,,,,,,0,,,81,0
132814,note_on,46,0,6,,,,,,,,5,,,64,0
132816,note_on,2,0,1,,,,,,,,0,,,76,110
132816,note_on,2,0,6,,,,,,,,5,,,60,110
132862,note_on,94,0,2,,,,,,,,1,,,57,0
132862,note_on,46,0,6,,,,,,,,5,,,60,0
132862,note_on,94,0,5,,,,,,,,4,,,72,0
132862,note_on,46,0,1,,,,,,,,0,,,76,0
132864,note_on,2,0,5,,,,,,,,4,,,76,110
132864,note_on,2,0,1,,,,,,,,0,,,74,110
132864,note_on,2,0,2,,,,,,,,1,,,45,110
132864,note_on,2,0,6,,,,,,,,5,,,59,110
132910,note_on,46,0,1,,,,,,,,0,,,74,0
132910,note_on,46,0,6,,,,,,,,5,,,59,0
132912,note_on,2,0,6,,,,,,,,5,,,60,110
132912,note_on,2,0,1,,,,,,,,0,,,76,110
132928,note_on,160,0,12,,,,,,,,12,,,45,0
132958,note_on,94,0,5,,,,,,,,4,,,76,0
132958,note_on,94,0,2,,,,,,,,1,,,45,0
132958,note_on,46,0,6,,,,,,,,5,,,60,0
132958,note_on,46,0,1,,,,,,,,0,,,76,0
132960,note_on,2,0,2,,,,,,,,1,,,57,110
132960,note_on,2,0,5,,,,,,,,4,,,81,110
132960,note_on,2,0,1,,,,,,,,0,,,72,110
132960,note_on,2,0,6,,,,,,,,5,,,57,110
133006,note_on,46,0,1,,,,,,,,0,,,72,0
133006,note_on,46,0,6,,,,,,,,5,,,57,0
133008,note_on,2,0,6,,,,,,,,5,,,60,110
133008,note_on,2,0,1,,,,,,,,0,,,76,110
133054,note_on,46,0,6,,,,,,,,5,,,60,0
133054,note_on,94,0,5,,,,,,,,4,,,81,0
133054,note_on,94,0,2,,,,,,,,1,,,57,0
133054,note_on,46,0,1,,,,,,,,0,,,76,0
133056,note_on,0,0,5,,,,,,,,4,,,75,110
133056,note_on,0,0,5,,,,,,,,4,,,81,110
133056,note_on,2,0,5,,,,,,,,4,,,71,110
133056,note_on,0,0,6,,,,,,,,5,,,66,110
133056,note_on,0,0,6,,,,,,,,5,,,63,110
133056,note_on,0,0,8,,,,,,,,7,,,51,110
133056,note_on,2,0,6,,,,,,,,5,,,59,110
133056,note_on,0,0,5,,,,,,,,4,,,78,110
133056,note_on,674,0,3,,,,,,,,2,,,66,110
133056,note_on,704,0,9,,,,,,,,8,,,66,92
133056,note_on,704,0,7,,,,,,,,6,,,66,110
133056,note_on,0,0,7,,,,,,,,6,,,71,110
133056,note_on,0,0,7,,,,,,,,6,,,75,110
133056,note_on,128,0,12,,,,,,,,12,,,47,92
133056,note_on,0,0,3,,,,,,,,2,,,71,110
133056,note_on,0,0,3,,,,,,,,2,,,75,110
133056,note_on,0,0,3,,,,,,,,2,,,78,110
133056,note_on,2,0,1,,,,,,,,0,,,71,110
133056,note_on,0,0,1,,,,,,,,0,,,75,110
133056,note_on,0,0,1,,,,,,,,0,,,78,110
133056,note_on,0,0,1,,,,,,,,0,,,81,110
133056,note_on,704,0,8,,,,,,,,7,,,47,110
133056,note_on,704,0,4,,,,,,,,3,,,57,110
133056,note_on,704,0,11,,,,,,,,11,,,59,92
133056,note_on,0,0,8,,,,,,,,7,,,54,110
133056,note_on,704,0,10,,,,,,,,10,,,63,92
133056,note_on,2,0,2,,,,,,,,1,,,47,110
133102,note_on,46,0,2,,,,,,,,1,,,47,0
133102,note_on,46,0,4,,,,,,,,3,,,57,0
133104,note_on,2,0,2,,,,,,,,1,,,49,110
133104,note_on,2,0,4,,,,,,,,3,,,55,110
133150,note_on,46,0,2,,,,,,,,1,,,49,0
133150,note_on,46,0,4,,,,,,,,3,,,55,0
133150,note_on,94,0,12,,,,,,,,12,,,47,0
133152,note_on,2,0,4,,,,,,,,3,,,54,110
133152,note_on,2,0,2,,,,,,,,1,,,51,110
133152,note_on,2,0,12,,,,,,,,12,,,51,92
133198,note_on,46,0,2,,,,,,,,1,,,51,0
133198,note_on,46,0,4,,,,,,,,3,,,54,0
133200,note_on,2,0,2,,,,,,,,1,,,52,110
133200,note_on,2,0,4,,,,,,,,3,,,52,110
133216,note_on,0,0,3,,,,,,,,2,,,71,0
133216,note_on,0,0,3,,,,,,,,2,,,66,0
133216,note_on,160,0,3,,,,,,,,2,,,78,0
133216,note_on,0,0,1,,,,,,,,0,,,71,0
133216,note_on,0,0,7,,,,,,,,6,,,66,0
133216,note_on,0,0,1,,,,,,,,0,,,78,0
133216,note_on,160,0,6,,,,,,,,5,,,66,0
133216,note_on,0,0,7,,,,,,,,6,,,71,0
133216,note_on,160,0,9,,,,,,,,8,,,66,0
133216,note_on,160,0,7,,,,,,,,6,,,75,0
133216,note_on,0,0,3,,,,,,,,2,,,75,0
133216,note_on,160,0,1,,,,,,,,0,,,81,0
133216,note_on,0,0,1,,,,,,,,0,,,75,0
133216,note_on,0,0,6,,,,,,,,5,,,63,0
133216,note_on,0,0,6,,,,,,,,5,,,59,0
133216,note_on,0,0,5,,,,,,,,4,,,75,0
133216,note_on,0,0,5,,,,,,,,4,,,71,0
133216,note_on,160,0,5,,,,,,,,4,,,81,0
133216,note_on,160,0,10,,,,,,,,10,,,63,0
133216,note_on,0,0,5,,,,,,,,4,,,78,0
133216,note_on,160,0,8,,,,,,,,7,,,54,0
133216,note_on,0,0,8,,,,,,,,7,,,51,0
133216,note_on,0,0,8,,,,,,,,7,,,47,0
133216,note_on,160,0,11,,,,,,,,11,,,59,0
133246,note_on,94,0,12,,,,,,,,12,,,51,0
133246,note_on,46,0,2,,,,,,,,1,,,52,0
133246,note_on,46,0,4,,,,,,,,3,,,52,0
133248,note_on,2,0,12,,,,,,,,12,,,54,92
133248,note_on,2,0,2,,,,,,,,1,,,54,110
133248,note_on,2,0,4,,,,,,,,3,,,51,110
133294,note_on,46,0,4,,,,,,,,3,,,51,0
133294,note_on,46,0,2,,,,,,,,1,,,54,0
133296,note_on,2,0,4,,,,,,,,3,,,49,110
133296,note_on,2,0,2,,,,,,,,1,,,55,110
133342,note_on,46,0,4,,,,,,,,3,,,49,0
133342,note_on,46,0,2,,,,,,,,1,,,55,0
133342,note_on,94,0,12,,,,,,,,12,,,54,0
133344,note_on,128,0,10,,,,,,,,10,,,66,92
133344,note_on,2,0,2,,,,,,,,1,,,57,110
133344,note_on,128,0,6,,,,,,,,5,,,59,110
133344,note_on,0,0,6,,,,,,,,5,,,63,110
133344,note_on,128,0,9,,,,,,,,8,,,71,92
133344,note_on,0,0,7,,,,,,,,6,,,75,110
133344,note_on,128,0,11,,,,,,,,11,,,63,92
133344,note_on,0,0,7,,,,,,,,6,,,71,110
133344,note_on,128,0,3,,,,,,,,2,,,66,110
133344,note_on,128,0,7,,,,,,,,6,,,66,110
133344,note_on,0,0,1,,,,,,,,0,,,81,110
133344,note_on,128,0,1,,,,,,,,0,,,71,110
133344,note_on,0,0,3,,,,,,,,2,,,71,110
133344,note_on,128,0,5,,,,,,,,4,,,71,110
133344,note_on,0,0,3,,,,,,,,2,,,78,110
133344,note_on,0,0,5,,,,,,,,4,,,75,110
133344,note_on,0,0,5,,,,,,,,4,,,78,110
133344,note_on,0,0,5,,,,,,,,4,,,81,110
133344,note_on,0,0,8,,,,,,,,7,,,54,110
133344,note_on,0,0,8,,,,,,,,7,,,51,110
133344,note_on,2,0,12,,,,,,,,12,,,47,92
133344,note_on,0,0,3,,,,,,,,2,,,75,110
133344,note_on,128,0,8,,,,,,,,7,,,47,110
133344,note_on,0,0,6,,,,,,,,5,,,66,110
133344,note_on,0,0,1,,,,,,,,0,,,75,110
133344,note_on,0,0,1,,,,,,,,0,,,78,110
133344,note_on,2,0,4,,,,,,,,3,,,47,110
133390,note_on,46,0,2,,,,,,,,1,,,57,0
133390,note_on,46,0,4,,,,,,,,3,,,47,0
133392,note_on,2,0,4,,,,,,,,3,,,49,110
133392,note_on,2,0,2,,,,,,,,1,,,55,110
133438,note_on,94,0,12,,,,,,,,12,,,47,0
133438,note_on,46,0,4,,,,,,,,3,,,49,0
133438,note_on,46,0,2,,,,,,,,1,,,55,0
133440,note_on,2,0,2,,,,,,,,1,,,54,110
133440,note_on,2,0,12,,,,,,,,12,,,51,92
133440,note_on,2,0,4,,,,,,,,3,,,51,110
133486,note_on,46,0,4,,,,,,,,3,,,51,0
133486,note_on,46,0,2,,,,,,,,1,,,54,0
133488,note_on,2,0,2,,,,,,,,1,,,52,110
133488,note_on,2,0,4,,,,,,,,3,,,52,110
133504,note_on,160,0,10,,,,,,,,10,,,66,0
133504,note_on,0,0,5,,,,,,,,4,,,78,0
133504,note_on,0,0,5,,,,,,,,4,,,75,0
133504,note_on,0,0,5,,,,,,,,4,,,71,0
133504,note_on,160,0,5,,,,,,,,4,,,81,0
133504,note_on,0,0,8,,,,,,,,7,,,47,0
133504,note_on,0,0,8,,,,,,,,7,,,51,0
133504,note_on,160,0,8,,,,,,,,7,,,54,0
133504,note_on,0,0,6,,,,,,,,5,,,63,0
133504,note_on,160,0,6,,,,,,,,5,,,66,0
133504,note_on,160,0,11,,,,,,,,11,,,63,0
133504,note_on,0,0,1,,,,,,,,0,,,78,0
133504,note_on,160,0,7,,,,,,,,6,,,75,0
133504,note_on,0,0,7,,,,,,,,6,,,71,0
133504,note_on,0,0,7,,,,,,,,6,,,66,0
133504,note_on,0,0,1,,,,,,,,0,,,75,0
133504,note_on,0,0,6,,,,,,,,5,,,59,0
133504,note_on,0,0,3,,,,,,,,2,,,75,0
133504,note_on,0,0,1,,,,,,,,0,,,71,0
133504,note_on,160,0,9,,,,,,,,8,,,71,0
133504,note_on,0,0,3,,,,,,,,2,,,71,0
133504,note_on,160,0,3,,,,,,,,2,,,78,0
133504,note_on,160,0,1,,,,,,,,0,,,81,0
133504,note_on,0,0,3,,,,,,,,2,,,66,0
133534,note_on,46,0,4,,,,,,,,3,,,52,0
133534,note_on,46,0,2,,,,,,,,1,,,52,0
133534,note_on,94,0,12,,,,,,,,12,,,51,0
133536,note_on,2,0,2,,,,,,,,1,,,51,110
133536,note_on,2,0,12,,,,,,,,12,,,54,92
133536,note_on,2,0,4,,,,,,,,3,,,54,110
133582,note_on,46,0,4,,,,,,,,3,,,54,0
133582,note_on,46,0,2,,,,,,,,1,,,51,0
133584,note_on,2,0,4,,,,,,,,3,,,55,110
133584,note_on,2,0,2,,,,,,,,1,,,49,110
133630,note_on,94,0,12,,,,,,,,12,,,54,0
133630,note_on,46,0,4,,,,,,,,3,,,55,0
133630,note_on,46,0,2,,,,,,,,1,,,49,0
133632,note_on,128,0,9,,,,,,,,8,,,75,92
133632,note_on,2,0,4,,,,,,,,3,,,57,110
133632,note_on,0,0,4,,,,,,,,3,,,63,110
133632,note_on,128,0,7,,,,,,,,6,,,66,110
133632,note_on,128,0,6,,,,,,,,5,,,47,110
133632,note_on,0,0,7,,,,,,,,6,,,71,110
133632,note_on,0,0,7,,,,,,,,6,,,75,110
133632,note_on,128,0,11,,,,,,,,11,,,66,92
133632,note_on,128,0,3,,,,,,,,2,,,66,110
133632,note_on,0,0,1,,,,,,,,0,,,81,110
133632,note_on,128,0,10,,,,,,,,10,,,71,92
133632,note_on,0,0,3,,,,,,,,2,,,71,110
133632,note_on,0,0,3,,,,,,,,2,,,75,110
133632,note_on,0,0,3,,,,,,,,2,,,78,110
133632,note_on,0,0,1,,,,,,,,0,,,75,110
133632,note_on,128,0,1,,,,,,,,0,,,71,110
133632,note_on,0,0,2,,,,,,,,1,,,51,110
133632,note_on,0,0,2,,,,,,,,1,,,54,110
133632,note_on,128,0,8,,,,,,,,7,,,57,110
133632,note_on,0,0,2,,,,,,,,1,,,59,110
133632,note_on,0,0,5,,,,,,,,4,,,78,110
133632,note_on,0,0,5,,,,,,,,4,,,75,110
133632,note_on,2,0,12,,,,,,,,12,,,47,92
133632,note_on,128,0,5,,,,,,,,4,,,71,110
133632,note_on,0,0,1,,,,,,,,0,,,78,110
133632,note_on,2,0,2,,,,,,,,1,,,47,110
133632,note_on,0,0,5,,,,,,,,4,,,81,110
133678,note_on,46,0,6,,,,,,,,5,,,47,0
133678,note_on,46,0,8,,,,,,,,7,,,57,0
133680,note_on,2,0,6,,,,,,,,5,,,49,110
133680,note_on,2,0,8,,,,,,,,7,,,55,110
133726,note_on,46,0,6,,,,,,,,5,,,49,0
133726,note_on,46,0,8,,,,,,,,7,,,55,0
133726,note_on,94,0,12,,,,,,,,12,,,47,0
133728,note_on,2,0,8,,,,,,,,7,,,54,110
133728,note_on,2,0,6,,,,,,,,5,,,51,110
133728,note_on,2,0,12,,,,,,,,12,,,51,92
133774,note_on,46,0,6,,,,,,,,5,,,51,0
133774,note_on,46,0,8,,,,,,,,7,,,54,0
133776,note_on,2,0,8,,,,,,,,7,,,52,110
133776,note_on,2,0,6,,,,,,,,5,,,52,110
133792,note_on,0,0,1,,,,,,,,0,,,75,0
133792,note_on,0,0,1,,,,,,,,0,,,78,0
133792,note_on,0,0,3,,,,,,,,2,,,75,0
133792,note_on,0,0,3,,,,,,,,2,,,71,0
133792,note_on,0,0,3,,,,,,,,2,,,66,0
133792,note_on,0,0,5,,,,,,,,4,,,78,0
133792,note_on,0,0,1,,,,,,,,0,,,71,0
133792,note_on,160,0,4,,,,,,,,3,,,63,0
133792,note_on,0,0,4,,,,,,,,3,,,57,0
133792,note_on,160,0,10,,,,,,,,10,,,71,0
133792,note_on,160,0,9,,,,,,,,8,,,75,0
133792,note_on,160,0,3,,,,,,,,2,,,78,0
133792,note_on,160,0,1,,,,,,,,0,,,81,0
133792,note_on,160,0,11,,,,,,,,11,,,66,0
133792,note_on,0,0,5,,,,,,,,4,,,71,0
133792,note_on,160,0,5,,,,,,,,4,,,81,0
133792,note_on,0,0,2,,,,,,,,1,,,54,0
133792,note_on,0,0,2,,,,,,,,1,,,51,0
133792,note_on,0,0,2,,,,,,,,1,,,47,0
133792,note_on,160,0,2,,,,,,,,1,,,59,0
133792,note_on,160,0,7,,,,,,,,6,,,75,0
133792,note_on,0,0,7,,,,,,,,6,,,71,0
133792,note_on,0,0,7,,,,,,,,6,,,66,0
133792,note_on,0,0,5,,,,,,,,4,,,75,0
133822,note_on,46,0,8,,,,,,,,7,,,52,0
133822,note_on,94,0,12,,,,,,,,12,,,51,0
133822,note_on,46,0,6,,,,,,,,5,,,52,0
133824,note_on,2,0,6,,,,,,,,5,,,54,110
133824,note_on,2,0,8,,,,,,,,7,,,51,110
133824,note_on,2,0,12,,,,,,,,12,,,54,92
133870,note_on,46,0,6,,,,,,,,5,,,54,0
133870,note_on,46,0,8,,,,,,,,7,,,51,0
133872,note_on,2,0,6,,,,,,,,5,,,55,110
133872,note_on,2,0,8,,,,,,,,7,,,49,110
133918,note_on,46,0,6,,,,,,,,5,,,55,0
133918,note_on,94,0,12,,,,,,,,12,,,54,0
133918,note_on,46,0,8,,,,,,,,7,,,49,0
133920,note_on,2,0,8,,,,,,,,7,,,47,110
133920,note_on,128,0,9,,,,,,,,8,,,78,92
133920,note_on,128,0,11,,,,,,,,11,,,71,92
133920,note_on,0,0,2,,,,,,,,1,,,59,110
133920,note_on,0,0,2,,,,,,,,1,,,51,110
133920,note_on,128,0,10,,,,,,,,10,,,75,92
133920,note_on,128,0,2,,,,,,,,1,,,47,110
133920,note_on,2,0,12,,,,,,,,12,,,47,92
133920,note_on,0,0,7,,,,,,,,6,,,75,110
133920,note_on,0,0,2,,,,,,,,1,,,54,110
133920,note_on,0,0,3,,,,,,,,2,,,78,110
133920,note_on,0,0,3,,,,,,,,2,,,75,110
133920,note_on,0,0,3,,,,,,,,2,,,71,110
133920,note_on,0,0,4,,,,,,,,3,,,63,110
133920,note_on,128,0,4,,,,,,,,3,,,57,110
133920,note_on,2,0,6,,,,,,,,5,,,57,110
133920,note_on,0,0,5,,,,,,,,4,,,81,110
133920,note_on,0,0,5,,,,,,,,4,,,78,110
133920,note_on,0,0,5,,,,,,,,4,,,75,110
133920,note_on,128,0,5,,,,,,,,4,,,71,110
133920,note_on,0,0,7,,,,,,,,6,,,71,110
133920,note_on,0,0,1,,,,,,,,0,,,81,110
133920,note_on,0,0,1,,,,,,,,0,,,78,110
133920,note_on,0,0,1,,,,,,,,0,,,75,110
133920,note_on,128,0,1,,,,,,,,0,,,71,110
133920,note_on,128,0,3,,,,,,,,2,,,66,110
133920,note_on,128,0,7,,,,,,,,6,,,66,110
133966,note_on,46,0,8,,,,,,,,7,,,47,0
133966,note_on,46,0,6,,,,,,,,5,,,57,0
133968,note_on,2,0,6,,,,,,,,5,,,55,110
133968,note_on,2,0,8,,,,,,,,7,,,49,110
134014,note_on,46,0,6,,,,,,,,5,,,55,0
134014,note_on,94,0,12,,,,,,,,12,,,47,0
134014,note_on,46,0,8,,,,,,,,7,,,49,0
134016,note_on,2,0,12,,,,,,,,12,,,51,92
134016,note_on,2,0,6,,,,,,,,5,,,54,110
134016,note_on,2,0,8,,,,,,,,7,,,51,110
134062,note_on,46,0,6,,,,,,,,5,,,54,0
134062,note_on,46,0,8,,,,,,,,7,,,51,0
134064,note_on,2,0,6,,,,,,,,5,,,52,110
134064,note_on,2,0,8,,,,,,,,7,,,52,110
134080,note_on,0,0,5,,,,,,,,4,,,71,0
134080,note_on,160,0,9,,,,,,,,8,,,78,0
134080,note_on,160,0,1,,,,,,,,0,,,81,0
134080,note_on,160,0,2,,,,,,,,1,,,59,0
134080,note_on,0,0,2,,,,,,,,1,,,47,0
134080,note_on,0,0,2,,,,,,,,1,,,51,0
134080,note_on,0,0,7,,,,,,,,6,,,71,0
134080,note_on,160,0,7,,,,,,,,6,,,75,0
134080,note_on,0,0,2,,,,,,,,1,,,54,0
134080,note_on,0,0,3,,,,,,,,2,,,75,0
134080,note_on,0,0,3,,,,,,,,2,,,71,0
134080,note_on,0,0,3,,,,,,,,2,,,66,0
134080,note_on,0,0,1,,,,,,,,0,,,71,0
134080,note_on,0,0,1,,,,,,,,0,,,75,0
134080,note_on,160,0,10,,,,,,,,10,,,75,0
134080,note_on,160,0,3,,,,,,,,2,,,78,0
134080,note_on,0,0,1,,,,,,,,0,,,78,0
134080,note_on,0,0,4,,,,,,,,3,,,57,0
134080,note_on,160,0,4,,,,,,,,3,,,63,0
134080,note_on,0,0,5,,,,,,,,4,,,78,0
134080,note_on,0,0,5,,,,,,,,4,,,75,0
134080,note_on,160,0,5,,,,,,,,4,,,81,0
134080,note_on,0,0,7,,,,,,,,6,,,66,0
134080,note_on,160,0,11,,,,,,,,11,,,71,0
134110,note_on,94,0,12,,,,,,,,12,,,51,0
134110,note_on,46,0,8,,,,,,,,7,,,52,0
134110,note_on,46,0,6,,,,,,,,5,,,52,0
134112,note_on,2,0,8,,,,,,,,7,,,54,110
134112,note_on,2,0,12,,,,,,,,12,,,54,92
134112,note_on,2,0,6,,,,,,,,5,,,51,110
134158,note_on,46,0,8,,,,,,,,7,,,54,0
134158,note_on,46,0,6,,,,,,,,5,,,51,0
134160,note_on,2,0,6,,,,,,,,5,,,49,110
134160,note_on,2,0,8,,,,,,,,7,,,55,110
134206,note_on,46,0,6,,,,,,,,5,,,49,0
134206,note_on,46,0,8,,,,,,,,7,,,55,0
134206,note_on,94,0,12,,,,,,,,12,,,54,0
134208,note_on,128,0,2,,,,,,,,1,,,47,110
134208,note_on,128,0,4,,,,,,,,3,,,57,110
134208,note_on,0,0,4,,,,,,,,3,,,63,110
134208,note_on,0,0,5,,,,,,,,4,,,78,110
134208,note_on,0,0,2,,,,,,,,1,,,54,110
134208,note_on,2,0,12,,,,,,,,12,,,47,92
134208,note_on,128,0,1,,,,,,,,0,,,71,110
134208,note_on,0,0,5,,,,,,,,4,,,75,110
134208,note_on,128,0,10,,,,,,,,10,,,75,92
134208,note_on,0,0,2,,,,,,,,1,,,51,110
134208,note_on,0,0,5,,,,,,,,4,,,81,110
134208,note_on,2,0,8,,,,,,,,7,,,47,110
134208,note_on,128,0,5,,,,,,,,4,,,71,110
134208,note_on,0,0,3,,,,,,,,2,,,71,110
134208,note_on,0,0,7,,,,,,,,6,,,75,110
134208,note_on,0,0,7,,,,,,,,6,,,71,110
134208,note_on,128,0,9,,,,,,,,8,,,81,92
134208,note_on,0,0,2,,,,,,,,1,,,59,110
134208,note_on,128,0,7,,,,,,,,6,,,66,110
134208,note_on,2,0,6,,,,,,,,5,,,47,110
134208,note_on,0,0,6,,,,,,,,5,,,51,110
134208,note_on,128,0,3,,,,,,,,2,,,66,110
134208,note_on,0,0,6,,,,,,,,5,,,59,110
134208,note_on,128,0,11,,,,,,,,11,,,66,92
134208,note_on,0,0,6,,,,,,,,5,,,54,110
134208,note_on,0,0,1,,,,,,,,0,,,81,110
134208,note_on,0,0,1,,,,,,,,0,,,78,110
134208,note_on,0,0,1,,,,,,,,0,,,75,110
134208,note_on,0,0,3,,,,,,,,2,,,78,110
134208,note_on,0,0,3,,,,,,,,2,,,75,110
134208,note_on,0,0,8,,,,,,,,7,,,57,110
134368,note_on,0,0,3,,,,,,,,2,,,66,0
134368,note_on,160,0,3,,,,,,,,2,,,78,0
134368,note_on,0,0,5,,,,,,,,4,,,75,0
134368,note_on,0,0,5,,,,,,,,4,,,78,0
134368,note_on,0,0,6,,,,,,,,5,,,54,0
134368,note_on,0,0,6,,,,,,,,5,,,51,0
134368,note_on,0,0,6,,,,,,,,5,,,47,0
134368,note_on,160,0,6,,,,,,,,5,,,59,0
134368,note_on,0,0,3,,,,,,,,2,,,71,0
134368,note_on,0,0,3,,,,,,,,2,,,75,0
134368,note_on,0,0,8,,,,,,,,7,,,47,0
134368,note_on,160,0,9,,,,,,,,8,,,81,0
134368,note_on,160,0,2,,,,,,,,1,,,59,0
134368,note_on,0,0,1,,,,,,,,0,,,78,0
134368,note_on,0,0,1,,,,,,,,0,,,75,0
134368,note_on,0,0,1,,,,,,,,0,,,71,0
134368,note_on,160,0,1,,,,,,,,0,,,81,0
134368,note_on,0,0,2,,,,,,,,1,,,47,0
134368,note_on,0,0,2,,,,,,,,1,,,51,0
134368,note_on,0,0,2,,,,,,,,1,,,54,0
134368,note_on,160,0,8,,,,,,,,7,,,57,0
134368,note_on,160,0,4,,,,,,,,3,,,63,0
134368,note_on,160,0,7,,,,,,,,6,,,75,0
134368,note_on,0,0,4,,,,,,,,3,,,57,0
134368,note_on,0,0,7,,,,,,,,6,,,66,0
134368,note_on,160,0,11,,,,,,,,11,,,66,0
134368,note_on,160,0,5,,,,,,,,4,,,81,0
134368,note_on,0,0,7,,,,,,,,6,,,71,0
134368,note_on,160,0,12,,,,,,,,12,,,47,0
134368,note_on,0,0,5,,,,,,,,4,,,71,0
134368,note_on,160,0,10,,,,,,,,10,,,75,0
134496,note_on,0,0,5,,,,,,,,4,,,76,110
134496,note_on,128,0,9,,,,,,,,8,,,79,92
134496,note_on,128,0,8,,,,,,,,7,,,52,110
134496,note_on,128,0,10,,,,,,,,10,,,76,92
134496,note_on,128,0,11,,,,,,,,11,,,71,92
134496,note_on,0,0,1,,,,,,,,0,,,79,110
134496,note_on,0,0,3,,,,,,,,2,,,71,110
134496,note_on,128,0,3,,,,,,,,2,,,67,110
134496,note_on,128,0,5,,,,,,,,4,,,71,110
134496,note_on,128,0,4,,,,,,,,3,,,55,110
134496,note_on,0,0,5,,,,,,,,4,,,79,110
134496,note_on,0,0,3,,,,,,,,2,,,76,110
134496,note_on,128,0,2,,,,,,,,1,,,40,110
134496,note_on,0,0,1,,,,,,,,0,,,76,110
134496,note_on,128,0,1,,,,,,,,0,,,71,110
134496,note_on,128,0,12,,,,,,,,12,,,40,92
134496,note_on,128,0,7,,,,,,,,6,,,67,110
134496,note_on,0,0,7,,,,,,,,6,,,71,110
134496,note_on,0,0,7,,,,,,,,6,,,76,110
134496,note_on,128,0,6,,,,,,,,5,,,52,110
134542,note_on,46,0,8,,,,,,,,7,,,52,0
134542,note_on,46,0,6,,,,,,,,5,,,52,0
134542,note_on,46,0,4,,,,,,,,3,,,55,0
134544,note_on,2,0,6,,,,,,,,5,,,64,110
134544,note_on,2,0,8,,,,,,,,7,,,55,110
134544,note_on,2,0,4,,,,,,,,3,,,59,110
134590,note_on,94,0,2,,,,,,,,1,,,40,0
134590,note_on,46,0,6,,,,,,,,5,,,64,0
134590,note_on,94,0,12,,,,,,,,12,,,40,0
134590,note_on,46,0,4,,,,,,,,3,,,59,0
134590,note_on,46,0,8,,,,,,,,7,,,55,0
134592,note_on,2,0,8,,,,,,,,7,,,54,110
134592,note_on,2,0,4,,,,,,,,3,,,57,110
134592,note_on,2,0,2,,,,,,,,1,,,52,110
134592,note_on,2,0,6,,,,,,,,5,,,63,110
134592,note_on,2,0,12,,,,,,,,12,,,52,92
134638,note_on,46,0,8,,,,,,,,7,,,54,0
134638,note_on,46,0,4,,,,,,,,3,,,57,0
134638,note_on,46,0,6,,,,,,,,5,,,63,0
134640,note_on,2,0,4,,,,,,,,3,,,55,110
134640,note_on,2,0,8,,,,,,,,7,,,52,110
134640,note_on,2,0,6,,,,,,,,5,,,64,110
134656,note_on,0,0,5,,,,,,,,4,,,71,0
134656,note_on,0,0,1,,,,,,,,0,,,71,0
134656,note_on,160,0,7,,,,,,,,6,,,76,0
134656,note_on,160,0,11,,,,,,,,11,,,71,0
134656,note_on,160,0,9,,,,,,,,8,,,79,0
134656,note_on,0,0,3,,,,,,,,2,,,67,0
134656,note_on,0,0,3,,,,,,,,2,,,71,0
134656,note_on,160,0,3,,,,,,,,2,,,76,0
134656,note_on,0,0,1,,,,,,,,0,,,76,0
134656,note_on,160,0,10,,,,,,,,10,,,76,0
134656,note_on,0,0,7,,,,,,,,6,,,67,0
134656,note_on,160,0,1,,,,,,,,0,,,79,0
134656,note_on,160,0,5,,,,,,,,4,,,79,0
134656,note_on,0,0,5,,,,,,,,4,,,76,0
134656,note_on,0,0,7,,,,,,,,6,,,71,0
134686,note_on,94,0,12,,,,,,,,12,,,52,0
134686,note_on,46,0,6,,,,,,,,5,,,64,0
134686,note_on,46,0,4,,,,,,,,3,,,55,0
134686,note_on,94,0,2,,,,,,,,1,,,52,0
134686,note_on,46,0,8,,,,,,,,7,,,52,0
134688,note_on,2,0,4,,,,,,,,3,,,54,110
134688,note_on,2,0,6,,,,,,,,5,,,60,110
134688,note_on,2,0,12,,,,,,,,12,,,40,92
134688,note_on,2,0,2,,,,,,,,1,,,40,110
134688,note_on,2,0,8,,,,,,,,7,,,51,110
134734,note_on,46,0,8,,,,,,,,7,,,51,0
134734,note_on,46,0,4,,,,,,,,3,,,54,0
134734,note_on,46,0,6,,,,,,,,5,,,60,0
134736,note_on,2,0,6,,,,,,,,5,,,59,110
134736,note_on,2,0,8,,,,,,,,7,,,52,110
134736,note_on,2,0,4,,,,,,,,3,,,52,110
134782,note_on,46,0,4,,,,,,,,3,,,52,0
134782,note_on,46,0,6,,,,,,,,5,,,59,0
134782,note_on,94,0,2,,,,,,,,1,,,40,0
134782,note_on,94,0,12,,,,,,,,12,,,40,0
134782,note_on,46,0,8,,,,,,,,7,,,52,0
134784,note_on,128,0,1,,,,,,,,0,,,72,110
134784,note_on,2,0,4,,,,,,,,3,,,57,110
134784,note_on,2,0,2,,,,,,,,1,,,45,110
134784,note_on,128,0,9,,,,,,,,8,,,78,92
134784,note_on,0,0,7,,,,,,,,6,,,72,110
134784,note_on,0,0,7,,,,,,,,6,,,69,110
134784,note_on,128,0,7,,,,,,,,6,,,66,110
134784,note_on,0,0,1,,,,,,,,0,,,76,110
134784,note_on,0,0,3,,,,,,,,2,,,76,110
134784,note_on,0,0,5,,,,,,,,4,,,78,110
134784,note_on,128,0,3,,,,,,,,2,,,69,110
134784,note_on,2,0,6,,,,,,,,5,,,57,110
134784,note_on,128,0,5,,,,,,,,4,,,72,110
134784,note_on,0,0,3,,,,,,,,2,,,72,110
134784,note_on,2,0,12,,,,,,,,12,,,45,92
134784,note_on,2,0,8,,,,,,,,7,,,54,110
134784,note_on,0,0,5,,,,,,,,4,,,76,110
134784,note_on,0,0,1,,,,,,,,0,,,78,110
134784,note_on,128,0,10,,,,,,,,10,,,76,92
134784,note_on,128,0,11,,,,,,,,11,,,72,92
134830,note_on,46,0,6,,,,,,,,5,,,57,0
134830,note_on,46,0,4,,,,,,,,3,,,57,0
134830,note_on,46,0,8,,,,,,,,7,,,54,0
134832,note_on,2,0,6,,,,,,,,5,,,51,110
134832,note_on,2,0,4,,,,,,,,3,,,60,110
134832,note_on,2,0,8,,,,,,,,7,,,57,110
134878,note_on,94,0,12,,,,,,,,12,,,45,0
134878,note_on,94,0,2,,,,,,,,1,,,45,0
134878,note_on,46,0,4,,,,,,,,3,,,60,0
134878,note_on,46,0,6,,,,,,,,5,,,51,0
134878,note_on,46,0,8,,,,,,,,7,,,57,0
134880,note_on,2,0,2,,,,,,,,1,,,57,110
134880,note_on,2,0,12,,,,,,,,12,,,57,92
134880,note_on,2,0,8,,,,,,,,7,,,55,110
134880,note_on,2,0,6,,,,,,,,5,,,52,110
134880,note_on,2,0,4,,,,,,,,3,,,59,110
134926,note_on,46,0,4,,,,,,,,3,,,59,0
134926,note_on,46,0,8,,,,,,,,7,,,55,0
134926,note_on,46,0,6,,,,,,,,5,,,52,0
134928,note_on,2,0,8,,,,,,,,7,,,54,110
134928,note_on,2,0,6,,,,,,,,5,,,54,110
134928,note_on,2,0,4,,,,,,,,3,,,57,110
134944,note_on,160,0,3,,,,,,,,2,,,76,0
134944,note_on,0,0,3,,,,,,,,2,,,69,0
134944,note_on,0,0,1,,,,,,,,0,,,72,0
134944,note_on,160,0,1,,,,,,,,0,,,78,0
134944,note_on,160,0,11,,,,,,,,11,,,72,0
134944,note_on,0,0,7,,,,,,,,6,,,66,0
134944,note_on,0,0,1,,,,,,,,0,,,76,0
134944,note_on,0,0,3,,,,,,,,2,,,72,0
134944,note_on,160,0,9,,,,,,,,8,,,78,0
134944,note_on,160,0,7,,,,,,,,6,,,72,0
134944,note_on,160,0,5,,,,,,,,4,,,78,0
134944,note_on,160,0,10,,,,,,,,10,,,76,0
134944,note_on,0,0,5,,,,,,,,4,,,76,0
134944,note_on,0,0,7,,,,,,,,6,,,69,0
134944,note_on,0,0,5,,,,,,,,4,,,72,0
134974,note_on,94,0,12,,,,,,,,12,,,57,0
134974,note_on,94,0,2,,,,,,,,1,,,57,0
134974,note_on,46,0,8,,,,,,,,7,,,54,0
134974,note_on,46,0,6,,,,,,,,5,,,54,0
134974,note_on,46,0,4,,,,,,,,3,,,57,0
134976,note_on,2,0,12,,,,,,,,12,,,45,92
134976,note_on,2,0,8,,,,,,,,7,,,52,110
134976,note_on,2,0,2,,,,,,,,1,,,45,110
134976,note_on,2,0,4,,,,,,,,3,,,55,110
134976,note_on,2,0,6,,,,,,,,5,,,55,110
135022,note_on,46,0,4,,,,,,,,3,,,55,0
135022,note_on,46,0,6,,,,,,,,5,,,55,0
135022,note_on,46,0,8,,,,,,,,7,,,52,0
135024,note_on,2,0,4,,,,,,,,3,,,54,110
135024,note_on,2,0,8,,,,,,,,7,,,54,110
135024,note_on,2,0,6,,,,,,,,5,,,57,110
135070,note_on,46,0,8,,,,,,,,7,,,54,0
135070,note_on,46,0,4,,,,,,,,3,,,54,0
135070,note_on,46,0,6,,,,,,,,5,,,57,0
135070,note_on,94,0,12,,,,,,,,12,,,45,0
135070,note_on,94,0,2,,,,,,,,1,,,45,0
135072,note_on,2,0,2,,,,,,,,1,,,47,110
135072,note_on,128,0,10,,,,,,,,10,,,75,92
135072,note_on,0,0,1,,,,,,,,0,,,75,110
135072,note_on,128,0,11,,,,,,,,11,,,71,92
135072,note_on,2,0,6,,,,,,,,5,,,59,110
135072,note_on,128,0,7,,,,,,,,6,,,66,110
135072,note_on,0,0,1,,,,,,,,0,,,78,110
135072,note_on,0,0,7,,,,,,,,6,,,71,110
135072,note_on,0,0,7,,,,,,,,6,,,75,110
135072,note_on,128,0,9,,,,,,,,8,,,78,92
135072,note_on,128,0,1,,,,,,,,0,,,71,110
135072,note_on,128,0,5,,,,,,,,4,,,71,110
135072,note_on,0,0,3,,,,,,,,2,,,69,110
135072,note_on,2,0,12,,,,,,,,12,,,47,92
135072,note_on,2,0,4,,,,,,,,3,,,59,110
135072,note_on,0,0,3,,,,,,,,2,,,71,110
135072,note_on,0,0,3,,,,,,,,2,,,75,110
135072,note_on,2,0,8,,,,,,,,7,,,47,110
135072,note_on,128,0,3,,,,,,,,2,,,66,110
135072,note_on,0,0,5,,,,,,,,4,,,75,110
135072,note_on,0,0,5,,,,,,,,4,,,78,110
135118,note_on,46,0,6,,,,,,,,5,,,59,0
135118,note_on,46,0,8,,,,,,,,7,,,47,0
135118,note_on,46,0,4,,,,,,,,3,,,59,0
135120,note_on,2,0,4,,,,,,,,3,,,60,110
135120,note_on,2,0,6,,,,,,,,5,,,57,110
135120,note_on,2,0,8,,,,,,,,7,,,51,110
135166,note_on,94,0,12,,,,,,,,12,,,47,0
135166,note_on,46,0,8,,,,,,,,7,,,51,0
135166,note_on,94,0,2,,,,,,,,1,,,47,0
135166,note_on,46,0,6,,,,,,,,5,,,57,0
135166,note_on,46,0,4,,,,,,,,3,,,60,0
135168,note_on,2,0,8,,,,,,,,7,,,52,110
135168,note_on,2,0,12,,,,,,,,12,,,59,92
135168,note_on,2,0,6,,,,,,,,5,,,55,110
135168,note_on,2,0,4,,,,,,,,3,,,59,110
135168,note_on,2,0,2,,,,,,,,1,,,59,110
135214,note_on,46,0,4,,,,,,,,3,,,59,0
135214,note_on,46,0,8,,,,,,,,7,,,52,0
135214,note_on,46,0,6,,,,,,,,5,,,55,0
135216,note_on,2,0,8,,,,,,,,7,,,54,110
135216,note_on,2,0,4,,,,,,,,3,,,57,110
135216,note_on,2,0,6,,,,,,,,5,,,54,110
135232,note_on,160,0,5,,,,,,,,4,,,78,0
135232,note_on,0,0,5,,,,,,,,4,,,75,0
135232,note_on,160,0,9,,,,,,,,8,,,78,0
135232,note_on,0,0,5,,,,,,,,4,,,71,0
135232,note_on,0,0,1,,,,,,,,0,,,75,0
135232,note_on,160,0,7,,,,,,,,6,,,75,0
135232,note_on,160,0,11,,,,,,,,11,,,71,0
135232,note_on,0,0,1,,,,,,,,0,,,71,0
135232,note_on,0,0,7,,,,,,,,6,,,66,0
135232,note_on,160,0,1,,,,,,,,0,,,78,0
135232,note_on,0,0,7,,,,,,,,6,,,71,0
135232,note_on,0,0,3,,,,,,,,2,,,71,0
135232,note_on,0,0,3,,,,,,,,2,,,69,0
135232,note_on,0,0,3,,,,,,,,2,,,66,0
135232,note_on,160,0,10,,,,,,,,10,,,75,0
135232,note_on,160,0,3,,,,,,,,2,,,75,0
135262,note_on,94,0,12,,,,,,,,12,,,59,0
135262,note_on,46,0,4,,,,,,,,3,,,57,0
135262,note_on,46,0,8,,,,,,,,7,,,54,0
135262,note_on,46,0,6,,,,,,,,5,,,54,0
135262,note_on,94,0,2,,,,,,,,1,,,59,0
135264,note_on,2,0,6,,,,,,,,5,,,52,110
135264,note_on,2,0,12,,,,,,,,12,,,47,92
135264,note_on,2,0,8,,,,,,,,7,,,55,110
135264,note_on,2,0,4,,,,,,,,3,,,59,110
135264,note_on,2,0,2,,,,,,,,1,,,47,110
135310,note_on,46,0,8,,,,,,,,7,,,55,0
135310,note_on,46,0,4,,,,,,,,3,,,59,0
135310,note_on,46,0,6,,,,,,,,5,,,52,0
135312,note_on,2,0,6,,,,,,,,5,,,51,110
135312,note_on,2,0,4,,,,,,,,3,,,47,110
135312,note_on,2,0,8,,,,,,,,7,,,57,110
135358,note_on,46,0,6,,,,,,,,5,,,51,0
135358,note_on,94,0,2,,,,,,,,1,,,47,0
135358,note_on,46,0,8,,,,,,,,7,,,57,0
135358,note_on,94,0,12,,,,,,,,12,,,47,0
135358,note_on,46,0,4,,,,,,,,3,,,47,0
135360,note_on,0,0,6,,,,,,,,5,,,59,110
135360,note_on,128,0,10,,,,,,,,10,,,76,92
135360,note_on,0,0,8,,,,,,,,7,,,55,110
135360,note_on,0,0,4,,,,,,,,3,,,55,110
135360,note_on,0,0,4,,,,,,,,3,,,59,110
135360,note_on,128,0,5,,,,,,,,4,,,76,110
135360,note_on,0,0,6,,,,,,,,5,,,55,110
135360,note_on,2,0,6,,,,,,,,5,,,52,110
135360,note_on,2,0,4,,,,,,,,3,,,52,110
135360,note_on,2,0,12,,,,,,,,12,,,52,92
135360,note_on,128,0,7,,,,,,,,6,,,76,110
135360,note_on,0,0,11,,,,,,,,11,,,71,92
135360,note_on,0,0,1,,,,,,,,0,,,76,127
135360,note_on,0,0,1,,,,,,,,0,,,71,127
135360,note_on,128,0,1,,,,,,,,0,,,67,127
135360,note_on,128,0,9,,,,,,,,8,,,76,92
135360,note_on,2,0,8,,,,,,,,7,,,52,110
135360,note_on,2,0,2,,,,,,,,1,,,40,110
135360,note_on,0,0,2,,,,,,,,1,,,47,110
135360,note_on,0,0,2,,,,,,,,1,,,52,110
135360,note_on,128,0,11,,,,,,,,11,,,67,92
135360,note_on,128,0,3,,,,,,,,2,,,76,110
135360,note_on,0,0,8,,,,,,,,7,,,59,110
135454,note_on,94,0,3,,,,,,,,2,,,76,0
135454,note_on,94,0,9,,,,,,,,8,,,76,0
135454,note_on,94,0,5,,,,,,,,4,,,76,0
135454,note_on,94,0,7,,,,,,,,6,,,76,0
135454,note_on,94,0,1,,,,,,,,0,,,76,0
135454,note_on,0,0,1,,,,,,,,0,,,71,0
135454,note_on,94,0,10,,,,,,,,10,,,76,0
135454,note_on,0,0,1,,,,,,,,0,,,67,0
135456,note_on,2,0,9,,,,,,,,8,,,79,92
135456,note_on,2,0,7,,,,,,,,6,,,79,110
135456,note_on,2,0,3,,,,,,,,2,,,79,110
135456,note_on,2,0,1,,,,,,,,0,,,79,110
135456,note_on,2,0,5,,,,,,,,4,,,79,110
135456,note_on,2,0,10,,,,,,,,10,,,79,92
135502,note_on,46,0,10,,,,,,,,10,,,79,0
135502,note_on,46,0,1,,,,,,,,0,,,79,0
135502,note_on,46,0,7,,,,,,,,6,,,79,0
135502,note_on,46,0,3,,,,,,,,2,,,79,0
135502,note_on,46,0,5,,,,,,,,4,,,79,0
135502,note_on,46,0,9,,,,,,,,8,,,79,0
135504,note_on,2,0,7,,,,,,,,6,,,78,110
135504,note_on,2,0,5,,,,,,,,4,,,78,110
135504,note_on,2,0,1,,,,,,,,0,,,78,110
135504,note_on,2,0,3,,,,,,,,2,,,78,110
135504,note_on,2,0,9,,,,,,,,8,,,78,92
135504,note_on,2,0,10,,,,,,,,10,,,78,92
135520,note_on,0,0,11,,,,,,,,11,,,67,0
135520,note_on,0,0,8,,,,,,,,7,,,52,0
135520,note_on,0,0,2,,,,,,,,1,,,47,0
135520,note_on,160,0,2,,,,,,,,1,,,52,0
135520,note_on,0,0,8,,,,,,,,7,,,55,0
135520,note_on,0,0,4,,,,,,,,3,,,52,0
135520,note_on,160,0,11,,,,,,,,11,,,71,0
135520,note_on,0,0,2,,,,,,,,1,,,40,0
135520,note_on,160,0,12,,,,,,,,12,,,52,0
135520,note_on,160,0,4,,,,,,,,3,,,59,0
135520,note_on,0,0,6,,,,,,,,5,,,52,0
135520,note_on,0,0,6,,,,,,,,5,,,55,0
135520,note_on,160,0,6,,,,,,,,5,,,59,0
135520,note_on,160,0,8,,,,,,,,7,,,59,0
135520,note_on,0,0,4,,,,,,,,3,,,55,0
135550,note_on,46,0,9,,,,,,,,8,,,78,0
135550,note_on,46,0,3,,,,,,,,2,,,78,0
135550,note_on,46,0,5,,,,,,,,4,,,78,0
135550,note_on,46,0,1,,,,,,,,0,,,78,0
135550,note_on,46,0,10,,,,,,,,10,,,78,0
135550,note_on,46,0,7,,,,,,,,6,,,78,0
135552,note_on,2,0,5,,,,,,,,4,,,76,110
135552,note_on,2,0,1,,,,,,,,0,,,76,110
135552,note_on,2,0,10,,,,,,,,10,,,76,92
135552,note_on,2,0,7,,,,,,,,6,,,76,110
135552,note_on,2,0,9,,,,,,,,8,,,76,92
135552,note_on,2,0,3,,,,,,,,2,,,76,110
135646,note_on,94,0,5,,,,,,,,4,,,76,0
135646,note_on,94,0,10,,,,,,,,10,,,76,0
135646,note_on,94,0,7,,,,,,,,6,,,76,0
135646,note_on,94,0,9,,,,,,,,8,,,76,0
135646,note_on,94,0,3,,,,,,,,2,,,76,0
135646,note_on,94,0,1,,,,,,,,0,,,76,0
135648,note_on,2,0,5,,,,,,,,4,,,71,110
135648,note_on,128,0,6,,,,,,,,5,,,52,110
135648,note_on,0,0,6,,,,,,,,5,,,55,110
135648,note_on,0,0,6,,,,,,,,5,,,59,110
135648,note_on,2,0,1,,,,,,,,0,,,71,127
135648,note_on,0,0,8,,,,,,,,7,,,55,110
135648,note_on,0,0,11,,,,,,,,11,,,71,92
135648,note_on,128,0,4,,,,,,,,3,,,52,110
135648,note_on,128,0,11,,,,,,,,11,,,67,92
135648,note_on,0,0,4,,,,,,,,3,,,55,110
135648,note_on,0,0,4,,,,,,,,3,,,59,110
135648,note_on,128,0,8,,,,,,,,7,,,52,110
135648,note_on,2,0,9,,,,,,,,8,,,71,92
135648,note_on,2,0,10,,,,,,,,10,,,71,92
135648,note_on,0,0,8,,,,,,,,7,,,59,110
135648,note_on,2,0,3,,,,,,,,2,,,71,110
135648,note_on,128,0,12,,,,,,,,12,,,52,92
135648,note_on,0,0,2,,,,,,,,1,,,52,110
135648,note_on,0,0,2,,,,,,,,1,,,47,110
135648,note_on,128,0,2,,,,,,,,1,,,40,110
135648,note_on,2,0,7,,,,,,,,6,,,71,110
135742,note_on,94,0,10,,,,,,,,10,,,71,0
135742,note_on,94,0,3,,,,,,,,2,,,71,0
135742,note_on,94,0,5,,,,,,,,4,,,71,0
135742,note_on,94,0,7,,,,,,,,6,,,71,0
135742,note_on,94,0,9,,,,,,,,8,,,71,0
135742,note_on,94,0,1,,,,,,,,0,,,71,0
135744,note_on,2,0,10,,,,,,,,10,,,76,92
135744,note_on,2,0,9,,,,,,,,8,,,76,92
135744,note_on,2,0,3,,,,,,,,2,,,76,110
135744,note_on,2,0,5,,,,,,,,4,,,76,110
135744,note_on,2,0,7,,,,,,,,6,,,76,110
135744,note_on,2,0,1,,,,,,,,0,,,76,110
135808,note_on,0,0,2,,,,,,,,1,,,40,0
135808,note_on,0,0,8,,,,,,,,7,,,52,0
135808,note_on,0,0,2,,,,,,,,1,,,47,0
135808,note_on,160,0,2,,,,,,,,1,,,52,0
135808,note_on,160,0,4,,,,,,,,3,,,59,0
135808,note_on,160,0,8,,,,,,,,7,,,59,0
135808,note_on,0,0,4,,,,,,,,3,,,52,0
135808,note_on,160,0,11,,,,,,,,11,,,71,0
135808,note_on,160,0,6,,,,,,,,5,,,59,0
135808,note_on,0,0,6,,,,,,,,5,,,55,0
135808,note_on,0,0,6,,,,,,,,5,,,52,0
135808,note_on,0,0,11,,,,,,,,11,,,67,0
135808,note_on,0,0,8,,,,,,,,7,,,55,0
135808,note_on,160,0,12,,,,,,,,12,,,52,0
135808,note_on,0,0,4,,,,,,,,3,,,55,0
135838,note_on,94,0,7,,,,,,,,6,,,76,0
135838,note_on,94,0,9,,,,,,,,8,,,76,0
135838,note_on,94,0,10,,,,,,,,10,,,76,0
135838,note_on,94,0,1,,,,,,,,0,,,76,0
135838,note_on,94,0,5,,,,,,,,4,,,76,0
135838,note_on,94,0,3,,,,,,,,2,,,76,0
135840,note_on,2,0,1,,,,,,,,0,,,71,110
135840,note_on,2,0,7,,,,,,,,6,,,71,110
135840,note_on,2,0,9,,,,,,,,8,,,71,92
135840,note_on,2,0,3,,,,,,,,2,,,71,110
135840,note_on,2,0,5,,,,,,,,4,,,71,110
135840,note_on,2,0,10,,,,,,,,10,,,71,92
135934,note_on,94,0,10,,,,,,,,10,,,71,0
135934,note_on,94,0,1,,,,,,,,0,,,71,0
135934,note_on,94,0,9,,,,,,,,8,,,71,0
135934,note_on,94,0,7,,,,,,,,6,,,71,0
135934,note_on,94,0,3,,,,,,,,2,,,71,0
135934,note_on,94,0,5,,,,,,,,4,,,71,0
135936,note_on,0,0,6,,,,,,,,5,,,55,110
135936,note_on,128,0,12,,,,,,,,12,,,52,92
135936,note_on,2,0,1,,,,,,,,0,,,67,127
135936,note_on,0,0,8,,,,,,,,7,,,59,110
135936,note_on,2,0,7,,,,,,,,6,,,67,110
135936,note_on,128,0,8,,,,,,,,7,,,52,110
135936,note_on,128,0,11,,,,,,,,11,,,67,92
135936,note_on,0,0,4,,,,,,,,3,,,59,110
135936,note_on,2,0,9,,,,,,,,8,,,67,92
135936,note_on,0,0,6,,,,,,,,5,,,59,110
135936,note_on,2,0,5,,,,,,,,4,,,67,110
135936,note_on,2,0,3,,,,,,,,2,,,67,110
135936,note_on,0,0,8,,,,,,,,7,,,55,110
135936,note_on,0,0,2,,,,,,,,1,,,47,110
135936,note_on,128,0,2,,,,,,,,1,,,40,110
135936,note_on,128,0,4,,,,,,,,3,,,52,110
135936,note_on,0,0,2,,,,,,,,1,,,52,110
135936,note_on,128,0,6,,,,,,,,5,,,52,110
135936,note_on,0,0,11,,,,,,,,11,,,71,92
135936,note_on,2,0,10,,,,,,,,10,,,67,92
135936,note_on,0,0,4,,,,,,,,3,,,55,110
136030,note_on,94,0,7,,,,,,,,6,,,67,0
136030,note_on,94,0,3,,,,,,,,2,,,67,0
136030,note_on,94,0,1,,,,,,,,0,,,67,0
136030,note_on,94,0,5,,,,,,,,4,,,67,0
136030,note_on,94,0,10,,,,,,,,10,,,67,0
136030,note_on,94,0,9,,,,,,,,8,,,67,0
136032,note_on,2,0,7,,,,,,,,6,,,71,110
136032,note_on,2,0,1,,,,,,,,0,,,71,110
136032,note_on,2,0,10,,,,,,,,10,,,71,92
136032,note_on,2,0,5,,,,,,,,4,,,71,110
136032,note_on,2,0,9,,,,,,,,8,,,71,92
136032,note_on,2,0,3,,,,,,,,2,,,71,110
136078,note_on,46,0,5,,,,,,,,4,,,71,0
136078,note_on,46,0,1,,,,,,,,0,,,71,0
136078,note_on,46,0,10,,,,,,,,10,,,71,0
136078,note_on,46,0,9,,,,,,,,8,,,71,0
136078,note_on,46,0,3,,,,,,,,2,,,71,0
136078,note_on,46,0,7,,,,,,,,6,,,71,0
136080,note_on,2,0,5,,,,,,,,4,,,69,110
136080,note_on,2,0,1,,,,,,,,0,,,69,110
136080,note_on,2,0,9,,,,,,,,8,,,69,92
136080,note_on,2,0,3,,,,,,,,2,,,69,110
136080,note_on,2,0,10,,,,,,,,10,,,69,92
136080,note_on,2,0,7,,,,,,,,6,,,69,110
136096,note_on,160,0,12,,,,,,,,12,,,52,0
136096,note_on,160,0,11,,,,,,,,11,,,71,0
136096,note_on,0,0,6,,,,,,,,5,,,55,0
136096,note_on,0,0,6,,,,,,,,5,,,52,0
136096,note_on,160,0,8,,,,,,,,7,,,59,0
136096,note_on,0,0,8,,,,,,,,7,,,55,0
136096,note_on,160,0,6,,,,,,,,5,,,59,0
136096,note_on,160,0,2,,,,,,,,1,,,52,0
136096,note_on,0,0,8,,,,,,,,7,,,52,0
136096,note_on,0,0,2,,,,,,,,1,,,47,0
136096,note_on,0,0,2,,,,,,,,1,,,40,0
136096,note_on,0,0,11,,,,,,,,11,,,67,0
136096,note_on,0,0,4,,,,,,,,3,,,55,0
136096,note_on,0,0,4,,,,,,,,3,,,52,0
136096,note_on,160,0,4,,,,,,,,3,,,59,0
136126,note_on,46,0,1,,,,,,,,0,,,69,0
136126,note_on,46,0,3,,,,,,,,2,,,69,0
136126,note_on,46,0,10,,,,,,,,10,,,69,0
136126,note_on,46,0,5,,,,,,,,4,,,69,0
136126,note_on,46,0,9,,,,,,,,8,,,69,0
136126,note_on,46,0,7,,,,,,,,6,,,69,0
136128,note_on,2,0,7,,,,,,,,6,,,67,110
136128,note_on,2,0,3,,,,,,,,2,,,67,110
136128,note_on,2,0,10,,,,,,,,10,,,67,92
136128,note_on,2,0,9,,,,,,,,8,,,67,92
136128,note_on,2,0,5,,,,,,,,4,,,67,110
136128,note_on,2,0,1,,,,,,,,0,,,67,110
136174,note_on,46,0,5,,,,,,,,4,,,67,0
136174,note_on,46,0,1,,,,,,,,0,,,67,0
136174,note_on,46,0,3,,,,,,,,2,,,67,0
136174,note_on,46,0,9,,,,,,,,8,,,67,0
136174,note_on,46,0,7,,,,,,,,6,,,67,0
136174,note_on,46,0,10,,,,,,,,10,,,67,0
136176,note_on,2,0,1,,,,,,,,0,,,66,110
136176,note_on,2,0,7,,,,,,,,6,,,66,110
136176,note_on,2,0,10,,,,,,,,10,,,66,92
136176,note_on,2,0,3,,,,,,,,2,,,66,110
136176,note_on,2,0,9,,,,,,,,8,,,66,92
136176,note_on,2,0,5,,,,,,,,4,,,66,110
136222,note_on,46,0,7,,,,,,,,6,,,66,0
136222,note_on,46,0,3,,,,,,,,2,,,66,0
136222,note_on,46,0,9,,,,,,,,8,,,66,0
136222,note_on,46,0,5,,,,,,,,4,,,66,0
136222,note_on,46,0,10,,,,,,,,10,,,66,0
136222,note_on,46,0,1,,,,,,,,0,,,66,0
136224,note_on,128,0,4,,,,,,,,3,,,52,110
136224,note_on,2,0,9,,,,,,,,8,,,64,92
136224,note_on,2,0,10,,,,,,,,10,,,64,92
136224,note_on,0,0,8,,,,,,,,7,,,59,110
136224,note_on,0,0,11,,,,,,,,11,,,71,92
136224,note_on,0,0,8,,,,,,,,7,,,55,110
136224,note_on,128,0,8,,,,,,,,7,,,52,110
136224,note_on,0,0,6,,,,,,,,5,,,59,110
136224,note_on,128,0,12,,,,,,,,12,,,52,92
136224,note_on,0,0,4,,,,,,,,3,,,55,110
136224,note_on,0,0,4,,,,,,,,3,,,59,110
136224,note_on,2,0,7,,,,,,,,6,,,64,110
136224,note_on,0,0,2,,,,,,,,1,,,52,110
136224,note_on,0,0,2,,,,,,,,1,,,47,110
136224,note_on,128,0,11,,,,,,,,11,,,67,92
136224,note_on,128,0,2,,,,,,,,1,,,40,110
136224,note_on,2,0,5,,,,,,,,4,,,64,110
136224,note_on,128,0,6,,,,,,,,5,,,52,110
136224,note_on,0,0,6,,,,,,,,5,,,55,110
136224,note_on,2,0,1,,,,,,,,0,,,64,127
136224,note_on,2,0,3,,,,,,,,2,,,64,110
136318,note_on,94,0,10,,,,,,,,10,,,64,0
136318,note_on,94,0,1,,,,,,,,0,,,64,0
136318,note_on,94,0,9,,,,,,,,8,,,64,0
136318,note_on,94,0,3,,,,,,,,2,,,64,0
136318,note_on,94,0,5,,,,,,,,4,,,64,0
136318,note_on,94,0,7,,,,,,,,6,,,64,0
136320,note_on,2,0,3,,,,,,,,2,,,67,110
136320,note_on,2,0,7,,,,,,,,6,,,67,110
136320,note_on,2,0,1,,,,,,,,0,,,67,110
136320,note_on,2,0,5,,,,,,,,4,,,67,110
136320,note_on,2,0,10,,,,,,,,10,,,67,92
136320,note_on,2,0,9,,,,,,,,8,,,67,92
136384,note_on,0,0,11,,,,,,,,11,,,67,0
136384,note_on,160,0,11,,,,,,,,11,,,71,0
136384,note_on,160,0,2,,,,,,,,1,,,52,0
136384,note_on,0,0,2,,,,,,,,1,,,47,0
136384,note_on,0,0,2,,,,,,,,1,,,40,0
136384,note_on,0,0,8,,,,,,,,7,,,55,0
136384,note_on,0,0,6,,,,,,,,5,,,52,0
136384,note_on,160,0,8,,,,,,,,7,,,59,0
136384,note_on,160,0,6,,,,,,,,5,,,59,0
136384,note_on,0,0,4,,,,,,,,3,,,52,0
136384,note_on,0,0,4,,,,,,,,3,,,55,0
136384,note_on,160,0,4,,,,,,,,3,,,59,0
136384,note_on,0,0,8,,,,,,,,7,,,52,0
136384,note_on,0,0,6,,,,,,,,5,,,55,0
136384,note_on,160,0,12,,,,,,,,12,,,52,0
136414,note_on,94,0,5,,,,,,,,4,,,67,0
136414,note_on,94,0,1,,,,,,,,0,,,67,0
136414,note_on,94,0,7,,,,,,,,6,,,67,0
136414,note_on,94,0,9,,,,,,,,8,,,67,0
136414,note_on,94,0,10,,,,,,,,10,,,67,0
136414,note_on,94,0,3,,,,,,,,2,,,67,0
136416,note_on,2,0,5,,,,,,,,4,,,71,110
136416,note_on,2,0,10,,,,,,,,10,,,71,92
136416,note_on,2,0,3,,,,,,,,2,,,71,110
136416,note_on,2,0,7,,,,,,,,6,,,71,110
136416,note_on,2,0,1,,,,,,,,0,,,71,110
136416,note_on,2,0,9,,,,,,,,8,,,71,92
136510,note_on,94,0,7,,,,,,,,6,,,71,0
136510,note_on,94,0,3,,,,,,,,2,,,71,0
136510,note_on,94,0,10,,,,,,,,10,,,71,0
136510,note_on,94,0,1,,,,,,,,0,,,71,0
136510,note_on,94,0,5,,,,,,,,4,,,71,0
136510,note_on,94,0,9,,,,,,,,8,,,71,0
136512,note_on,2,0,10,,,,,,,,10,,,76,92
136512,note_on,128,0,4,,,,,,,,3,,,52,110
136512,note_on,128,0,6,,,,,,,,5,,,52,110
136512,note_on,2,0,1,,,,,,,,0,,,76,127
136512,note_on,2,0,7,,,,,,,,6,,,76,110
136512,note_on,2,0,3,,,,,,,,2,,,76,110
136512,note_on,128,0,2,,,,,,,,1,,,52,110
136512,note_on,2,0,5,,,,,,,,4,,,76,110
136512,note_on,128,0,11,,,,,,,,11,,,67,92
136512,note_on,0,0,11,,,,,,,,11,,,71,92
136512,note_on,128,0,12,,,,,,,,12,,,52,92
136512,note_on,128,0,8,,,,,,,,7,,,52,110
136512,note_on,2,0,9,,,,,,,,8,,,76,92
136606,note_on,94,0,12,,,,,,,,12,,,52,0
136606,note_on,94,0,8,,,,,,,,7,,,52,0
136606,note_on,94,0,6,,,,,,,,5,,,52,0
136606,note_on,94,0,4,,,,,,,,3,,,52,0
136606,note_on,94,0,2,,,,,,,,1,,,52,0
136608,note_on,2,0,4,,,,,,,,3,,,47,110
136608,note_on,2,0,12,,,,,,,,12,,,47,92
136608,note_on,2,0,6,,,,,,,,5,,,47,110
136608,note_on,2,0,8,,,,,,,,7,,,47,110
136608,note_on,2,0,2,,,,,,,,1,,,47,110
136654,note_on,46,0,4,,,,,,,,3,,,47,0
136654,note_on,46,0,2,,,,,,,,1,,,47,0
136654,note_on,46,0,6,,,,,,,,5,,,47,0
136654,note_on,46,0,8,,,,,,,,7,,,47,0
136654,note_on,46,0,12,,,,,,,,12,,,47,0
136656,note_on,2,0,2,,,,,,,,1,,,45,110
136656,note_on,2,0,4,,,,,,,,3,,,45,110
136656,note_on,2,0,8,,,,,,,,7,,,45,110
136656,note_on,2,0,12,,,,,,,,12,,,45,92
136656,note_on,2,0,6,,,,,,,,5,,,45,110
136672,note_on,160,0,10,,,,,,,,10,,,76,0
136672,note_on,160,0,9,,,,,,,,8,,,76,0
136672,note_on,160,0,1,,,,,,,,0,,,76,0
136672,note_on,160,0,11,,,,,,,,11,,,71,0
136672,note_on,160,0,5,,,,,,,,4,,,76,0
136672,note_on,160,0,7,,,,,,,,6,,,76,0
136672,note_on,0,0,11,,,,,,,,11,,,67,0
136672,note_on,160,0,3,,,,,,,,2,,,76,0
136702,note_on,46,0,12,,,,,,,,12,,,45,0
136702,note_on,46,0,2,,,,,,,,1,,,45,0
136702,note_on,46,0,4,,,,,,,,3,,,45,0
136702,note_on,46,0,6,,,,,,,,5,,,45,0
136702,note_on,46,0,8,,,,,,,,7,,,45,0
136704,note_on,2,0,12,,,,,,,,12,,,43,92
136704,note_on,2,0,2,,,,,,,,1,,,43,110
136704,note_on,32,0,7,,,,,,,,6,,,64,110
136704,note_on,2,0,4,,,,,,,,3,,,43,110
136704,note_on,32,0,3,,,,,,,,2,,,64,110
136704,note_on,2,0,8,,,,,,,,7,,,43,110
136704,note_on,32,0,5,,,,,,,,4,,,64,110
136704,note_on,32,0,1,,,,,,,,0,,,64,110
136704,note_on,2,0,6,,,,,,,,5,,,43,110
136704,note_on,32,0,10,,,,,,,,10,,,64,92
136704,note_on,32,0,9,,,,,,,,8,,,64,92
136750,note_on,46,0,8,,,,,,,,7,,,43,0
136750,note_on,46,0,12,,,,,,,,12,,,43,0
136750,note_on,46,0,4,,,,,,,,3,,,43,0
136750,note_on,46,0,6,,,,,,,,5,,,43,0
136750,note_on,46,0,2,,,,,,,,1,,,43,0
136752,note_on,2,0,6,,,,,,,,5,,,42,110
136752,note_on,2,0,12,,,,,,,,12,,,42,92
136752,note_on,2,0,8,,,,,,,,7,,,42,110
136752,note_on,2,0,4,,,,,,,,3,,,42,110
136752,note_on,2,0,2,,,,,,,,1,,,42,110
136798,note_on,94,0,9,,,,,,,,8,,,64,0
136798,note_on,46,0,2,,,,,,,,1,,,42,0
136798,note_on,46,0,8,,,,,,,,7,,,42,0
136798,note_on,94,0,1,,,,,,,,0,,,64,0
136798,note_on,46,0,6,,,,,,,,5,,,42,0
136798,note_on,94,0,3,,,,,,,,2,,,64,0
136798,note_on,94,0,5,,,,,,,,4,,,64,0
136798,note_on,46,0,4,,,,,,,,3,,,42,0
136798,note_on,46,0,12,,,,,,,,12,,,42,0
136798,note_on,94,0,10,,,,,,,,10,,,64,0
136798,note_on,94,0,7,,,,,,,,6,,,64,0
136800,note_on,2,0,8,,,,,,,,7,,,40,110
136800,note_on,2,0,4,,,,,,,,3,,,40,110
136800,note_on,2,0,12,,,,,,,,12,,,40,92
136800,note_on,2,0,6,,,,,,,,5,,,40,110
136800,note_on,2,0,2,,,,,,,,1,,,40,110
136894,note_on,94,0,6,,,,,,,,5,,,40,0
136894,note_on,94,0,8,,,,,,,,7,,,40,0
136894,note_on,94,0,12,,,,,,,,12,,,40,0
136894,note_on,94,0,2,,,,,,,,1,,,40,0
136894,note_on,94,0,4,,,,,,,,3,,,40,0
136896,note_on,2,0,12,,,,,,,,12,,,43,92
136896,note_on,2,0,2,,,,,,,,1,,,43,110
136896,note_on,2,0,4,,,,,,,,3,,,43,110
136896,note_on,2,0,6,,,,,,,,5,,,43,110
136896,note_on,2,0,8,,,,,,,,7,,,43,110
136990,note_on,94,0,2,,,,,,,,1,,,43,0
136990,note_on,94,0,6,,,,,,,,5,,,43,0
136990,note_on,94,0,4,,,,,,,,3,,,43,0
136990,note_on,94,0,12,,,,,,,,12,,,43,0
136990,note_on,94,0,8,,,,,,,,7,,,43,0
136992,note_on,2,0,8,,,,,,,,7,,,47,110
136992,note_on,2,0,12,,,,,,,,12,,,47,92
136992,note_on,2,0,6,,,,,,,,5,,,47,110
136992,note_on,2,0,4,,,,,,,,3,,,47,110
136992,note_on,2,0,2,,,,,,,,1,,,47,110
137086,note_on,94,0,6,,,,,,,,5,,,47,0
137086,note_on,94,0,2,,,,,,,,1,,,47,0
137086,note_on,94,0,12,,,,,,,,12,,,47,0
137086,note_on,94,0,4,,,,,,,,3,,,47,0
137086,note_on,94,0,8,,,,,,,,7,,,47,0
137088,note_on,416,0,11,,,,,,,,11,,,71,92
137088,note_on,2,0,6,,,,,,,,5,,,52,110
137088,note_on,2,0,2,,,,,,,,1,,,52,110
137088,note_on,290,0,1,,,,,,,,0,,,79,110
137088,note_on,2,0,12,,,,,,,,12,,,52,92
137088,note_on,290,0,3,,,,,,,,2,,,76,110
137088,note_on,290,0,7,,,,,,,,6,,,76,110
137088,note_on,2,0,4,,,,,,,,3,,,52,110
137088,note_on,290,0,9,,,,,,,,8,,,79,92
137088,note_on,290,0,5,,,,,,,,4,,,79,110
137088,note_on,2,0,8,,,,,,,,7,,,52,110
137088,note_on,290,0,10,,,,,,,,10,,,76,92
137134,note_on,46,0,7,,,,,,,,6,,,76,0
137134,note_on,46,0,1,,,,,,,,0,,,79,0
137134,note_on,46,0,5,,,,,,,,4,,,79,0
137134,note_on,46,0,3,,,,,,,,2,,,76,0
137134,note_on,46,0,9,,,,,,,,8,,,79,0
137134,note_on,46,0,10,,,,,,,,10,,,76,0
137136,note_on,2,0,1,,,,,,,,0,,,81,110
137136,note_on,2,0,3,,,,,,,,2,,,78,110
137136,note_on,2,0,9,,,,,,,,8,,,81,92
137136,note_on,2,0,10,,,,,,,,10,,,78,92
137136,note_on,2,0,5,,,,,,,,4,,,81,110
137136,note_on,2,0,7,,,,,,,,6,,,78,110
137182,note_on,94,0,6,,,,,,,,5,,,52,0
137182,note_on,46,0,1,,,,,,,,0,,,81,0
137182,note_on,94,0,2,,,,,,,,1,,,52,0
137182,note_on,46,0,9,,,,,,,,8,,,81,0
137182,note_on,46,0,3,,,,,,,,2,,,78,0
137182,note_on,46,0,7,,,,,,,,6,,,78,0
137182,note_on,94,0,8,,,,,,,,7,,,52,0
137182,note_on,94,0,4,,,,,,,,3,,,52,0
137182,note_on,46,0,10,,,,,,,,10,,,78,0
137182,note_on,94,0,12,,,,,,,,12,,,52,0
137182,note_on,46,0,5,,,,,,,,4,,,81,0
137182,note_on,94,0,11,,,,,,,,11,,,71,0
137184,note_on,2,0,5,,,,,,,,4,,,79,110
137184,note_on,2,0,2,,,,,,,,1,,,46,110
137184,note_on,2,0,9,,,,,,,,8,,,79,92
137184,note_on,2,0,8,,,,,,,,7,,,61,110
137184,note_on,2,0,7,,,,,,,,6,,,76,110
137184,note_on,2,0,12,,,,,,,,12,,,46,92
137184,note_on,2,0,4,,,,,,,,3,,,55,110
137184,note_on,2,0,10,,,,,,,,10,,,76,92
137184,note_on,2,0,6,,,,,,,,5,,,64,110
137184,note_on,2,0,11,,,,,,,,11,,,73,92
137184,note_on,2,0,3,,,,,,,,2,,,76,110
137184,note_on,2,0,1,,,,,,,,0,,,79,110
137230,note_on,46,0,1,,,,,,,,0,,,79,0
137230,note_on,46,0,10,,,,,,,,10,,,76,0
137230,note_on,46,0,7,,,,,,,,6,,,76,0
137230,note_on,46,0,5,,,,,,,,4,,,79,0
137230,note_on,46,0,3,,,,,,,,2,,,76,0
137230,note_on,46,0,9,,,,,,,,8,,,79,0
137232,note_on,2,0,3,,,,,,,,2,,,78,110
137232,note_on,2,0,9,,,,,,,,8,,,81,92
137232,note_on,2,0,1,,,,,,,,0,,,81,110
137232,note_on,2,0,10,,,,,,,,10,,,78,92
137232,note_on,2,0,5,,,,,,,,4,,,81,110
137232,note_on,2,0,7,,,,,,,,6,,,78,110
137278,note_on,46,0,1,,,,,,,,0,,,81,0
137278,note_on,94,0,11,,,,,,,,11,,,73,0
137278,note_on,94,0,2,,,,,,,,1,,,46,0
137278,note_on,46,0,10,,,,,,,,10,,,78,0
137278,note_on,94,0,12,,,,,,,,12,,,46,0
137278,note_on,94,0,6,,,,,,,,5,,,64,0
137278,note_on,94,0,8,,,,,,,,7,,,61,0
137278,note_on,46,0,5,,,,,,,,4,,,81,0
137278,note_on,94,0,4,,,,,,,,3,,,55,0
137278,note_on,46,0,3,,,,,,,,2,,,78,0
137278,note_on,46,0,9,,,,,,,,8,,,81,0
137278,note_on,46,0,7,,,,,,,,6,,,78,0
137280,note_on,2,0,5,,,,,,,,4,,,79,110
137280,note_on,2,0,10,,,,,,,,10,,,76,92
137280,note_on,2,0,3,,,,,,,,2,,,76,110
137280,note_on,2,0,11,,,,,,,,11,,,73,92
137280,note_on,2,0,2,,,,,,,,1,,,46,110
137280,note_on,2,0,9,,,,,,,,8,,,79,92
137280,note_on,2,0,8,,,,,,,,7,,,58,110
137280,note_on,2,0,12,,,,,,,,12,,,46,92
137280,note_on,2,0,4,,,,,,,,3,,,52,110
137280,note_on,2,0,1,,,,,,,,0,,,79,110
137280,note_on,2,0,6,,,,,,,,5,,,61,110
137280,note_on,2,0,7,,,,,,,,6,,,76,110
137326,note_on,46,0,3,,,,,,,,2,,,76,0
137326,note_on,46,0,1,,,,,,,,0,,,79,0
137326,note_on,46,0,5,,,,,,,,4,,,79,0
137326,note_on,46,0,9,,,,,,,,8,,,79,0
137326,note_on,46,0,10,,,,,,,,10,,,76,0
137326,note_on,46,0,7,,,,,,,,6,,,76,0
137328,note_on,2,0,1,,,,,,,,0,,,81,110
137328,note_on,2,0,5,,,,,,,,4,,,81,110
137328,note_on,2,0,7,,,,,,,,6,,,78,110
137328,note_on,2,0,9,,,,,,,,8,,,81,92
137328,note_on,2,0,3,,,,,,,,2,,,78,110
137328,note_on,2,0,10,,,,,,,,10,,,78,92
137374,note_on,46,0,1,,,,,,,,0,,,81,0
137374,note_on,94,0,8,,,,,,,,7,,,58,0
137374,note_on,46,0,5,,,,,,,,4,,,81,0
137374,note_on,46,0,3,,,,,,,,2,,,78,0
137374,note_on,94,0,4,,,,,,,,3,,,52,0
137374,note_on,94,0,6,,,,,,,,5,,,61,0
137374,note_on,46,0,7,,,,,,,,6,,,78,0
137374,note_on,94,0,12,,,,,,,,12,,,46,0
137374,note_on,46,0,9,,,,,,,,8,,,81,0
137374,note_on,94,0,11,,,,,,,,11,,,73,0
137374,note_on,46,0,10,,,,,,,,10,,,78,0
137374,note_on,94,0,2,,,,,,,,1,,,46,0
137376,note_on,2,0,6,,,,,,,,5,,,63,110
137376,note_on,2,0,11,,,,,,,,11,,,66,92
137376,note_on,2,0,4,,,,,,,,3,,,59,110
137376,note_on,2,0,12,,,,,,,,12,,,47,92
137376,note_on,2,0,8,,,,,,,,7,,,54,110
137376,note_on,2,0,10,,,,,,,,10,,,75,92
137376,note_on,2,0,1,,,,,,,,0,,,78,110
137376,note_on,2,0,3,,,,,,,,2,,,75,110
137376,note_on,2,0,9,,,,,,,,8,,,78,92
137376,note_on,2,0,5,,,,,,,,4,,,78,110
137376,note_on,2,0,7,,,,,,,,6,,,75,110
137376,note_on,2,0,2,,,,,,,,1,,,47,110
137422,note_on,46,0,6,,,,,,,,5,,,63,0
137422,note_on,46,0,4,,,,,,,,3,,,59,0
137422,note_on,46,0,8,,,,,,,,7,,,54,0
137424,note_on,2,0,8,,,,,,,,7,,,55,110
137424,note_on,2,0,4,,,,,,,,3,,,60,110
137424,note_on,2,0,6,,,,,,,,5,,,64,110
137470,note_on,94,0,9,,,,,,,,8,,,78,0
137470,note_on,94,0,1,,,,,,,,0,,,78,0
137470,note_on,46,0,4,,,,,,,,3,,,60,0
137470,note_on,46,0,8,,,,,,,,7,,,55,0
137470,note_on,46,0,6,,,,,,,,5,,,64,0
137470,note_on,94,0,3,,,,,,,,2,,,75,0
137470,note_on,94,0,10,,,,,,,,10,,,75,0
137470,note_on,94,0,7,,,,,,,,6,,,75,0
137470,note_on,94,0,12,,,,,,,,12,,,47,0
137470,note_on,94,0,5,,,,,,,,4,,,78,0
137470,note_on,94,0,2,,,,,,,,1,,,47,0
137470,note_on,94,0,11,,,,,,,,11,,,66,0
137472,note_on,2,0,1,,,,,,,,0,,,83,110
137472,note_on,2,0,10,,,,,,,,10,,,78,92
137472,note_on,2,0,2,,,,,,,,1,,,47,110
137472,note_on,2,0,9,,,,,,,,8,,,83,92
137472,note_on,2,0,12,,,,,,,,12,,,47,92
137472,note_on,2,0,4,,,,,,,,3,,,59,110
137472,note_on,2,0,8,,,,,,,,7,,,54,110
137472,note_on,2,0,5,,,,,,,,4,,,83,110
137472,note_on,2,0,7,,,,,,,,6,,,78,110
137472,note_on,2,0,3,,,,,,,,2,,,78,110
137472,note_on,2,0,6,,,,,,,,5,,,63,110
137472,note_on,2,0,11,,,,,,,,11,,,63,92
137504,note_on,32,0,10,,,,,,,,10,,,78,0
137504,note_on,32,0,9,,,,,,,,8,,,83,0
137518,note_on,46,0,8,,,,,,,,7,,,54,0
137518,note_on,46,0,6,,,,,,,,5,,,63,0
137518,note_on,46,0,4,,,,,,,,3,,,59,0
137520,note_on,2,0,8,,,,,,,,7,,,55,110
137520,note_on,2,0,6,,,,,,,,5,,,64,110
137520,note_on,2,0,4,,,,,,,,3,,,60,110
137566,note_on,94,0,12,,,,,,,,12,,,47,0
137566,note_on,46,0,8,,,,,,,,7,,,55,0
137566,note_on,94,0,3,,,,,,,,2,,,78,0
137566,note_on,94,0,7,,,,,,,,6,,,78,0
137566,note_on,46,0,4,,,,,,,,3,,,60,0
137566,note_on,94,0,1,,,,,,,,0,,,83,0
137566,note_on,94,0,11,,,,,,,,11,,,63,0
137566,note_on,94,0,2,,,,,,,,1,,,47,0
137566,note_on,46,0,6,,,,,,,,5,,,64,0
137566,note_on,94,0,5,,,,,,,,4,,,83,0
137568,note_on,2,0,8,,,,,,,,7,,,54,110
137568,note_on,2,0,12,,,,,,,,12,,,47,92
137568,note_on,2,0,5,,,,,,,,4,,,78,110
137568,note_on,2,0,2,,,,,,,,1,,,47,110
137568,note_on,2,0,6,,,,,,,,5,,,63,110
137568,note_on,2,0,4,,,,,,,,3,,,59,110
137568,note_on,2,0,11,,,,,,,,11,,,66,92
137568,note_on,2,0,3,,,,,,,,2,,,75,110
137568,note_on,64,0,10,,,,,,,,10,,,75,92
137568,note_on,64,0,9,,,,,,,,8,,,78,92
137568,note_on,2,0,1,,,,,,,,0,,,78,110
137568,note_on,2,0,7,,,,,,,,6,,,75,110
137600,note_on,32,0,9,,,,,,,,8,,,78,0
137600,note_on,32,0,10,,,,,,,,10,,,75,0
137614,note_on,46,0,8,,,,,,,,7,,,54,0
137614,note_on,46,0,6,,,,,,,,5,,,63,0
137614,note_on,46,0,4,,,,,,,,3,,,59,0
137616,note_on,2,0,4,,,,,,,,3,,,60,110
137616,note_on,2,0,6,,,,,,,,5,,,64,110
137616,note_on,2,0,8,,,,,,,,7,,,55,110
137662,note_on,46,0,4,,,,,,,,3,,,60,0
137662,note_on,94,0,7,,,,,,,,6,,,75,0
137662,note_on,94,0,5,,,,,,,,4,,,78,0
137662,note_on,94,0,12,,,,,,,,12,,,47,0
137662,note_on,46,0,8,,,,,,,,7,,,55,0
137662,note_on,94,0,11,,,,,,,,11,,,66,0
137662,note_on,94,0,1,,,,,,,,0,,,78,0
137662,note_on,46,0,6,,,,,,,,5,,,64,0
137662,note_on,94,0,3,,,,,,,,2,,,75,0
137662,note_on,94,0,2,,,,,,,,1,,,47,0
137664,note_on,2,0,12,,,,,,,,12,,,46,92
137664,note_on,2,0,11,,,,,,,,11,,,73,92
137664,note_on,2,0,1,,,,,,,,0,,,79,110
137664,note_on,2,0,4,,,,,,,,3,,,52,110
137664,note_on,64,0,10,,,,,,,,10,,,76,92
137664,note_on,2,0,5,,,,,,,,4,,,79,110
137664,note_on,2,0,6,,,,,,,,5,,,61,110
137664,note_on,2,0,3,,,,,,,,2,,,76,110
137664,note_on,2,0,8,,,,,,,,7,,,52,110
137664,note_on,2,0,7,,,,,,,,6,,,76,110
137664,note_on,64,0,9,,,,,,,,8,,,79,92
137664,note_on,2,0,2,,,,,,,,1,,,46,110
137710,note_on,46,0,7,,,,,,,,6,,,76,0
137710,note_on,46,0,3,,,,,,,,2,,,76,0
137710,note_on,46,0,5,,,,,,,,4,,,79,0
137710,note_on,46,0,10,,,,,,,,10,,,76,0
137710,note_on,46,0,1,,,,,,,,0,,,79,0
137710,note_on,46,0,9,,,,,,,,8,,,79,0
137712,note_on,2,0,1,,,,,,,,0,,,81,110
137712,note_on,2,0,5,,,,,,,,4,,,81,110
137712,note_on,2,0,9,,,,,,,,8,,,81,92
137712,note_on,2,0,3,,,,,,,,2,,,78,110
137712,note_on,2,0,10,,,,,,,,10,,,78,92
137712,note_on,2,0,7,,,,,,,,6,,,78,110
137758,note_on,94,0,4,,,,,,,,3,,,52,0
137758,note_on,46,0,3,,,,,,,,2,,,78,0
137758,note_on,46,0,1,,,,,,,,0,,,81,0
137758,note_on,46,0,10,,,,,,,,10,,,78,0
137758,note_on,46,0,5,,,,,,,,4,,,81,0
137758,note_on,94,0,6,,,,,,,,5,,,61,0
137758,note_on,46,0,7,,,,,,,,6,,,78,0
137758,note_on,94,0,12,,,,,,,,12,,,46,0
137758,note_on,46,0,9,,,,,,,,8,,,81,0
137758,note_on,94,0,11,,,,,,,,11,,,73,0
137758,note_on,94,0,8,,,,,,,,7,,,52,0
137758,note_on,94,0,2,,,,,,,,1,,,46,0
137760,note_on,2,0,6,,,,,,,,5,,,64,110
137760,note_on,2,0,11,,,,,,,,11,,,73,92
137760,note_on,2,0,1,,,,,,,,0,,,79,110
137760,note_on,2,0,3,,,,,,,,2,,,76,110
137760,note_on,2,0,4,,,,,,,,3,,,55,110
137760,note_on,2,0,10,,,,,,,,10,,,76,92
137760,note_on,2,0,7,,,,,,,,6,,,76,110
137760,note_on,2,0,5,,,,,,,,4,,,79,110
137760,note_on,2,0,9,,,,,,,,8,,,79,92
137760,note_on,2,0,8,,,,,,,,7,,,61,110
137760,note_on,2,0,12,,,,,,,,12,,,46,92
137760,note_on,2,0,2,,,,,,,,1,,,46,110
137806,note_on,46,0,3,,,,,,,,2,,,76,0
137806,note_on,46,0,5,,,,,,,,4,,,79,0
137806,note_on,46,0,9,,,,,,,,8,,,79,0
137806,note_on,46,0,10,,,,,,,,10,,,76,0
137806,note_on,46,0,7,,,,,,,,6,,,76,0
137806,note_on,46,0,1,,,,,,,,0,,,79,0
137808,note_on,2,0,9,,,,,,,,8,,,81,92
137808,note_on,2,0,3,,,,,,,,2,,,78,110
137808,note_on,2,0,7,,,,,,,,6,,,78,110
137808,note_on,2,0,5,,,,,,,,4,,,81,110
137808,note_on,2,0,1,,,,,,,,0,,,81,110
137808,note_on,2,0,10,,,,,,,,10,,,78,92
137854,note_on,46,0,1,,,,,,,,0,,,81,0
137854,note_on,46,0,9,,,,,,,,8,,,81,0
137854,note_on,94,0,6,,,,,,,,5,,,64,0
137854,note_on,46,0,7,,,,,,,,6,,,78,0
137854,note_on,94,0,8,,,,,,,,7,,,61,0
137854,note_on,94,0,11,,,,,,,,11,,,73,0
137854,note_on,46,0,3,,,,,,,,2,,,78,0
137854,note_on,94,0,12,,,,,,,,12,,,46,0
137854,note_on,46,0,10,,,,,,,,10,,,78,0
137854,note_on,94,0,2,,,,,,,,1,,,46,0
137854,note_on,94,0,4,,,,,,,,3,,,55,0
137854,note_on,46,0,5,,,,,,,,4,,,81,0
137856,note_on,2,0,8,,,,,,,,7,,,58,110
137856,note_on,2,0,9,,,,,,,,8,,,79,92
137856,note_on,2,0,3,,,,,,,,2,,,76,110
137856,note_on,2,0,2,,,,,,,,1,,,46,110
137856,note_on,2,0,6,,,,,,,,5,,,61,110
137856,note_on,2,0,7,,,,,,,,6,,,76,110
137856,note_on,2,0,10,,,,,,,,10,,,76,92
137856,note_on,2,0,11,,,,,,,,11,,,73,92
137856,note_on,2,0,1,,,,,,,,0,,,79,110
137856,note_on,2,0,12,,,,,,,,12,,,46,92
137856,note_on,2,0,5,,,,,,,,4,,,79,110
137856,note_on,2,0,4,,,,,,,,3,,,52,110
137902,note_on,46,0,9,,,,,,,,8,,,79,0
137902,note_on,46,0,5,,,,,,,,4,,,79,0
137902,note_on,46,0,7,,,,,,,,6,,,76,0
137902,note_on,46,0,10,,,,,,,,10,,,76,0
137902,note_on,46,0,1,,,,,,,,0,,,79,0
137902,note_on,46,0,3,,,,,,,,2,,,76,0
137904,note_on,2,0,10,,,,,,,,10,,,78,92
137904,note_on,2,0,3,,,,,,,,2,,,78,110
137904,note_on,2,0,9,,,,,,,,8,,,81,92
137904,note_on,2,0,5,,,,,,,,4,,,81,110
137904,note_on,2,0,1,,,,,,,,0,,,81,110
137904,note_on,2,0,7,,,,,,,,6,,,78,110
137950,note_on,94,0,2,,,,,,,,1,,,46,0
137950,note_on,94,0,4,,,,,,,,3,,,52,0
137950,note_on,94,0,12,,,,,,,,12,,,46,0
137950,note_on,46,0,3,,,,,,,,2,,,78,0
137950,note_on,94,0,11,,,,,,,,11,,,73,0
137950,note_on,46,0,10,,,,,,,,10,,,78,0
137950,note_on,94,0,6,,,,,,,,5,,,61,0
137950,note_on,46,0,5,,,,,,,,4,,,81,0
137950,note_on,46,0,7,,,,,,,,6,,,78,0
137950,note_on,94,0,8,,,,,,,,7,,,58,0
137950,note_on,46,0,1,,,,,,,,0,,,81,0
137950,note_on,46,0,9,,,,,,,,8,,,81,0
137952,note_on,2,0,2,,,,,,,,1,,,47,110
137952,note_on,2,0,12,,,,,,,,12,,,47,92
137952,note_on,2,0,8,,,,,,,,7,,,54,110
137952,note_on,2,0,9,,,,,,,,8,,,78,92
137952,note_on,2,0,7,,,,,,,,6,,,75,110
137952,note_on,2,0,6,,,,,,,,5,,,63,110
137952,note_on,2,0,5,,,,,,,,4,,,78,110
137952,note_on,2,0,4,,,,,,,,3,,,59,110
137952,note_on,2,0,10,,,,,,,,10,,,75,92
137952,note_on,2,0,3,,,,,,,,2,,,75,110
137952,note_on,2,0,11,,,,,,,,11,,,66,92
137952,note_on,2,0,1,,,,,,,,0,,,78,110
137998,note_on,46,0,6,,,,,,,,5,,,63,0
137998,note_on,46,0,4,,,,,,,,3,,,59,0
137998,note_on,46,0,8,,,,,,,,7,,,54,0
138000,note_on,2,0,4,,,,,,,,3,,,60,110
138000,note_on,2,0,6,,,,,,,,5,,,64,110
138000,note_on,2,0,8,,,,,,,,7,,,55,110
138046,note_on,94,0,5,,,,,,,,4,,,78,0
138046,note_on,46,0,4,,,,,,,,3,,,60,0
138046,note_on,94,0,9,,,,,,,,8,,,78,0
138046,note_on,46,0,6,,,,,,,,5,,,64,0
138046,note_on,94,0,10,,,,,,,,10,,,75,0
138046,note_on,46,0,8,,,,,,,,7,,,55,0
138046,note_on,94,0,3,,,,,,,,2,,,75,0
138046,note_on,94,0,7,,,,,,,,6,,,75,0
138046,note_on,94,0,11,,,,,,,,11,,,66,0
138046,note_on,94,0,1,,,,,,,,0,,,78,0
138046,note_on,94,0,2,,,,,,,,1,,,47,0
138046,note_on,94,0,12,,,,,,,,12,,,47,0
138048,note_on,2,0,8,,,,,,,,7,,,54,110
138048,note_on,2,0,9,,,,,,,,8,,,83,92
138048,note_on,2,0,1,,,,,,,,0,,,83,110
138048,note_on,2,0,4,,,,,,,,3,,,59,110
138048,note_on,2,0,5,,,,,,,,4,,,83,110
138048,note_on,2,0,6,,,,,,,,5,,,63,110
138048,note_on,2,0,7,,,,,,,,6,,,78,110
138048,note_on,2,0,2,,,,,,,,1,,,47,110
138048,note_on,2,0,12,,,,,,,,12,,,47,92
138048,note_on,2,0,11,,,,,,,,11,,,63,92
138048,note_on,2,0,3,,,,,,,,2,,,78,110
138048,note_on,2,0,10,,,,,,,,10,,,78,92
138080,note_on,32,0,10,,,,,,,,10,,,78,0
138080,note_on,32,0,9,,,,,,,,8,,,83,0
138094,note_on,46,0,8,,,,,,,,7,,,54,0
138094,note_on,46,0,6,,,,,,,,5,,,63,0
138094,note_on,46,0,4,,,,,,,,3,,,59,0
138096,note_on,2,0,4,,,,,,,,3,,,60,110
138096,note_on,2,0,6,,,,,,,,5,,,64,110
138096,note_on,2,0,8,,,,,,,,7,,,55,110
138142,note_on,94,0,11,,,,,,,,11,,,63,0
138142,note_on,94,0,5,,,,,,,,4,,,83,0
138142,note_on,94,0,2,,,,,,,,1,,,47,0
138142,note_on,94,0,12,,,,,,,,12,,,47,0
138142,note_on,46,0,8,,,,,,,,7,,,55,0
138142,note_on,94,0,7,,,,,,,,6,,,78,0
138142,note_on,46,0,4,,,,,,,,3,,,60,0
138142,note_on,46,0,6,,,,,,,,5,,,64,0
138142,note_on,94,0,3,,,,,,,,2,,,78,0
138142,note_on,94,0,1,,,,,,,,0,,,83,0
138144,note_on,2,0,2,,,,,,,,1,,,47,110
138144,note_on,64,0,9,,,,,,,,8,,,78,92
138144,note_on,2,0,5,,,,,,,,4,,,78,110
138144,note_on,2,0,7,,,,,,,,6,,,75,110
138144,note_on,2,0,8,,,,,,,,7,,,54,110
138144,note_on,2,0,12,,,,,,,,12,,,47,92
138144,note_on,2,0,4,,,,,,,,3,,,59,110
138144,note_on,2,0,3,,,,,,,,2,,,75,110
138144,note_on,2,0,11,,,,,,,,11,,,66,92
138144,note_on,2,0,6,,,,,,,,5,,,63,110
138144,note_on,2,0,1,,,,,,,,0,,,78,110
138144,note_on,64,0,10,,,,,,,,10,,,75,92
138176,note_on,32,0,9,,,,,,,,8,,,78,0
138176,note_on,32,0,10,,,,,,,,10,,,75,0
138190,note_on,46,0,8,,,,,,,,7,,,54,0
138190,note_on,46,0,4,,,,,,,,3,,,59,0
138190,note_on,46,0,6,,,,,,,,5,,,63,0
138192,note_on,2,0,6,,,,,,,,5,,,64,110
138192,note_on,2,0,4,,,,,,,,3,,,60,110
138192,note_on,2,0,8,,,,,,,,7,,,55,110
138238,note_on,94,0,1,,,,,,,,0,,,78,0
138238,note_on,94,0,12,,,,,,,,12,,,47,0
138238,note_on,94,0,2,,,,,,,,1,,,47,0
138238,note_on,46,0,6,,,,,,,,5,,,64,0
138238,note_on,46,0,8,,,,,,,,7,,,55,0
138238,note_on,46,0,4,,,,,,,,3,,,60,0
138238,note_on,94,0,5,,,,,,,,4,,,78,0
138238,note_on,94,0,3,,,,,,,,2,,,75,0
138238,note_on,94,0,11,,,,,,,,11,,,66,0
138238,note_on,94,0,7,,,,,,,,6,,,75,0
138240,note_on,2,0,2,,,,,,,,1,,,46,110
138240,note_on,2,0,7,,,,,,,,6,,,76,110
138240,note_on,64,0,9,,,,,,,,8,,,79,92
138240,note_on,2,0,12,,,,,,,,12,,,46,92
138240,note_on,2,0,11,,,,,,,,11,,,73,92
138240,note_on,2,0,3,,,,,,,,2,,,76,110
138240,note_on,2,0,6,,,,,,,,5,,,61,110
138240,note_on,64,0,10,,,,,,,,10,,,76,92
138240,note_on,2,0,4,,,,,,,,3,,,52,110
138240,note_on,2,0,1,,,,,,,,0,,,79,110
138240,note_on,2,0,8,,,,,,,,7,,,52,110
138240,note_on,2,0,5,,,,,,,,4,,,79,110
138286,note_on,46,0,10,,,,,,,,10,,,76,0
138286,note_on,46,0,7,,,,,,,,6,,,76,0
138286,note_on,46,0,1,,,,,,,,0,,,79,0
138286,note_on,46,0,3,,,,,,,,2,,,76,0
138286,note_on,46,0,9,,,,,,,,8,,,79,0
138286,note_on,46,0,5,,,,,,,,4,,,79,0
138288,note_on,2,0,7,,,,,,,,6,,,78,110
138288,note_on,2,0,3,,,,,,,,2,,,78,110
138288,note_on,2,0,1,,,,,,,,0,,,81,110
138288,note_on,2,0,10,,,,,,,,10,,,78,92
138288,note_on,2,0,5,,,,,,,,4,,,81,110
138288,note_on,2,0,9,,,,,,,,8,,,81,92
138334,note_on,94,0,11,,,,,,,,11,,,73,0
138334,note_on,94,0,4,,,,,,,,3,,,52,0
138334,note_on,94,0,2,,,,,,,,1,,,46,0
138334,note_on,46,0,5,,,,,,,,4,,,81,0
138334,note_on,46,0,9,,,,,,,,8,,,81,0
138334,note_on,94,0,6,,,,,,,,5,,,61,0
138334,note_on,94,0,8,,,,,,,,7,,,52,0
138334,note_on,46,0,3,,,,,,,,2,,,78,0
138334,note_on,94,0,12,,,,,,,,12,,,46,0
138334,note_on,46,0,1,,,,,,,,0,,,81,0
138334,note_on,46,0,7,,,,,,,,6,,,78,0
138334,note_on,46,0,10,,,,,,,,10,,,78,0
138336,note_on,2,0,4,,,,,,,,3,,,55,110
138336,note_on,2,0,7,,,,,,,,6,,,76,110
138336,note_on,2,0,5,,,,,,,,4,,,79,110
138336,note_on,2,0,12,,,,,,,,12,,,46,92
138336,note_on,2,0,1,,,,,,,,0,,,79,110
138336,note_on,2,0,2,,,,,,,,1,,,46,110
138336,note_on,2,0,10,,,,,,,,10,,,76,92
138336,note_on,2,0,8,,,,,,,,7,,,61,110
138336,note_on,2,0,9,,,,,,,,8,,,79,92
138336,note_on,2,0,6,,,,,,,,5,,,64,110
138336,note_on,2,0,11,,,,,,,,11,,,73,92
138336,note_on,2,0,3,,,,,,,,2,,,76,110
138382,note_on,46,0,1,,,,,,,,0,,,79,0
138382,note_on,46,0,9,,,,,,,,8,,,79,0
138382,note_on,46,0,5,,,,,,,,4,,,79,0
138382,note_on,46,0,10,,,,,,,,10,,,76,0
138382,note_on,46,0,7,,,,,,,,6,,,76,0
138382,note_on,46,0,3,,,,,,,,2,,,76,0
138384,note_on,2,0,5,,,,,,,,4,,,81,110
138384,note_on,2,0,3,,,,,,,,2,,,78,110
138384,note_on,2,0,1,,,,,,,,0,,,81,110
138384,note_on,2,0,9,,,,,,,,8,,,81,92
138384,note_on,2,0,7,,,,,,,,6,,,78,110
138384,note_on,2,0,10,,,,,,,,10,,,78,92
138430,note_on,46,0,9,,,,,,,,8,,,81,0
138430,note_on,46,0,3,,,,,,,,2,,,78,0
138430,note_on,94,0,12,,,,,,,,12,,,46,0
138430,note_on,94,0,2,,,,,,,,1,,,46,0
138430,note_on,94,0,4,,,,,,,,3,,,55,0
138430,note_on,46,0,10,,,,,,,,10,,,78,0
138430,note_on,94,0,6,,,,,,,,5,,,64,0
138430,note_on,46,0,1,,,,,,,,0,,,81,0
138430,note_on,94,0,11,,,,,,,,11,,,73,0
138430,note_on,46,0,7,,,,,,,,6,,,78,0
138430,note_on,94,0,8,,,,,,,,7,,,61,0
138430,note_on,46,0,5,,,,,,,,4,,,81,0
138432,note_on,2,0,2,,,,,,,,1,,,46,110
138432,note_on,2,0,6,,,,,,,,5,,,61,110
138432,note_on,2,0,11,,,,,,,,11,,,73,92
138432,note_on,2,0,1,,,,,,,,0,,,79,110
138432,note_on,2,0,4,,,,,,,,3,,,52,110
138432,note_on,2,0,9,,,,,,,,8,,,79,92
138432,note_on,2,0,7,,,,,,,,6,,,76,110
138432,note_on,2,0,12,,,,,,,,12,,,46,92
138432,note_on,2,0,10,,,,,,,,10,,,76,92
138432,note_on,2,0,8,,,,,,,,7,,,58,110
138432,note_on,2,0,3,,,,,,,,2,,,76,110
138432,note_on,2,0,5,,,,,,,,4,,,79,110
138478,note_on,46,0,7,,,,,,,,6,,,76,0
138478,note_on,46,0,1,,,,,,,,0,,,79,0
138478,note_on,46,0,9,,,,,,,,8,,,79,0
138478,note_on,46,0,3,,,,,,,,2,,,76,0
138478,note_on,46,0,10,,,,,,,,10,,,76,0
138478,note_on,46,0,5,,,,,,,,4,,,79,0
138480,note_on,2,0,7,,,,,,,,6,,,78,110
138480,note_on,2,0,5,,,,,,,,4,,,81,110
138480,note_on,2,0,1,,,,,,,,0,,,81,110
138480,note_on,2,0,3,,,,,,,,2,,,78,110
138480,note_on,2,0,9,,,,,,,,8,,,81,92
138480,note_on,2,0,10,,,,,,,,10,,,78,92
138526,note_on,94,0,8,,,,,,,,7,,,58,0
138526,note_on,94,0,11,,,,,,,,11,,,73,0
138526,note_on,46,0,9,,,,,,,,8,,,81,0
138526,note_on,46,0,1,,,,,,,,0,,,81,0
138526,note_on,94,0,6,,,,,,,,5,,,61,0
138526,note_on,94,0,4,,,,,,,,3,,,52,0
138526,note_on,46,0,7,,,,,,,,6,,,78,0
138526,note_on,46,0,3,,,,,,,,2,,,78,0
138526,note_on,46,0,10,,,,,,,,10,,,78,0
138526,note_on,94,0,2,,,,,,,,1,,,46,0
138526,note_on,46,0,5,,,,,,,,4,,,81,0
138526,note_on,94,0,12,,,,,,,,12,,,46,0
138528,note_on,2,0,10,,,,,,,,10,,,75,92
138528,note_on,2,0,6,,,,,,,,5,,,63,110
138528,note_on,2,0,4,,,,,,,,3,,,59,110
138528,note_on,2,0,11,,,,,,,,11,,,66,92
138528,note_on,2,0,3,,,,,,,,2,,,75,110
138528,note_on,2,0,9,,,,,,,,8,,,78,92
138528,note_on,2,0,7,,,,,,,,6,,,75,110
138528,note_on,2,0,5,,,,,,,,4,,,78,110
138528,note_on,2,0,12,,,,,,,,12,,,47,92
138528,note_on,2,0,1,,,,,,,,0,,,78,110
138528,note_on,2,0,8,,,,,,,,7,,,54,110
138528,note_on,2,0,2,,,,,,,,1,,,47,110
138574,note_on,46,0,1,,,,,,,,0,,,78,0
138576,note_on,2,0,1,,,,,,,,0,,,81,110
138622,note_on,94,0,2,,,,,,,,1,,,47,0
138622,note_on,94,0,4,,,,,,,,3,,,59,0
138622,note_on,94,0,3,,,,,,,,2,,,75,0
138622,note_on,46,0,1,,,,,,,,0,,,81,0
138624,note_on,2,0,1,,,,,,,,0,,,81,110
138624,note_on,2,0,3,,,,,,,,2,,,78,110
138624,note_on,2,0,4,,,,,,,,3,,,63,110
138624,note_on,2,0,2,,,,,,,,1,,,47,110
138670,note_on,46,0,1,,,,,,,,0,,,81,0
138672,note_on,2,0,1,,,,,,,,0,,,78,110
138688,note_on,160,0,10,,,,,,,,10,,,75,0
138688,note_on,160,0,6,,,,,,,,5,,,63,0
138688,note_on,160,0,12,,,,,,,,12,,,47,0
138688,note_on,160,0,11,,,,,,,,11,,,66,0
138688,note_on,160,0,8,,,,,,,,7,,,54,0
138688,note_on,160,0,7,,,,,,,,6,,,75,0
138688,note_on,160,0,9,,,,,,,,8,,,78,0
138688,note_on,160,0,5,,,,,,,,4,,,78,0
138718,note_on,94,0,2,,,,,,,,1,,,47,0
138718,note_on,94,0,3,,,,,,,,2,,,78,0
138718,note_on,94,0,4,,,,,,,,3,,,63,0
138718,note_on,46,0,1,,,,,,,,0,,,78,0
138720,note_on,2,0,3,,,,,,,,2,,,75,110
138720,note_on,2,0,2,,,,,,,,1,,,47,110
138720,note_on,2,0,4,,,,,,,,3,,,66,110
138720,note_on,2,0,1,,,,,,,,0,,,78,110
138766,note_on,46,0,1,,,,,,,,0,,,78,0
138768,note_on,2,0,1,,,,,,,,0,,,75,110
138814,note_on,94,0,2,,,,,,,,1,,,47,0
138814,note_on,94,0,4,,,,,,,,3,,,66,0
138814,note_on,46,0,1,,,,,,,,0,,,75,0
138814,note_on,94,0,3,,,,,,,,2,,,75,0
138816,note_on,2,0,3,,,,,,,,2,,,69,110
138816,note_on,2,0,1,,,,,,,,0,,,75,110
138816,note_on,128,0,6,,,,,,,,5,,,59,110
138816,note_on,2,0,2,,,,,,,,1,,,47,110
138816,note_on,0,0,3,,,,,,,,2,,,71,110
138862,note_on,46,0,1,,,,,,,,0,,,75,0
138864,note_on,2,0,1,,,,,,,,0,,,71,110
138910,note_on,46,0,1,,,,,,,,0,,,71,0
138910,note_on,94,0,2,,,,,,,,1,,,47,0
138910,note_on,94,0,6,,,,,,,,5,,,59,0
138912,note_on,2,0,1,,,,,,,,0,,,71,110
138912,note_on,2,0,2,,,,,,,,1,,,47,110
138912,note_on,2,0,6,,,,,,,,5,,,63,110
138912,note_on,224,0,5,,,,,,,,4,,,78,110
138958,note_on,46,0,1,,,,,,,,0,,,71,0
138960,note_on,2,0,1,,,,,,,,0,,,72,110
138976,note_on,160,0,3,,,,,,,,2,,,71,0
138976,note_on,0,0,3,,,,,,,,2,,,69,0
139006,note_on,94,0,2,,,,,,,,1,,,47,0
139006,note_on,94,0,6,,,,,,,,5,,,63,0
139006,note_on,46,0,1,,,,,,,,0,,,72,0
139006,note_on,94,0,5,,,,,,,,4,,,78,0
139008,note_on,2,0,5,,,,,,,,4,,,75,110
139008,note_on,2,0,6,,,,,,,,5,,,66,110
139008,note_on,2,0,2,,,,,,,,1,,,47,110
139008,note_on,2,0,1,,,,,,,,0,,,72,110
139054,note_on,46,0,1,,,,,,,,0,,,72,0
139056,note_on,2,0,1,,,,,,,,0,,,69,110
139102,note_on,94,0,5,,,,,,,,4,,,75,0
139102,note_on,46,0,1,,,,,,,,0,,,69,0
139102,note_on,94,0,6,,,,,,,,5,,,66,0
139102,note_on,94,0,2,,,,,,,,1,,,47,0
139104,note_on,416,0,8,,,,,,,,7,,,59,110
139104,note_on,2,0,5,,,,,,,,4,,,71,110
139104,note_on,2,0,1,,,,,,,,0,,,69,110
139104,note_on,2,0,6,,,,,,,,5,,,63,110
139104,note_on,2,0,2,,,,,,,,1,,,47,110
139150,note_on,46,0,1,,,,,,,,0,,,69,0
139152,note_on,2,0,1,,,,,,,,0,,,78,110
139198,note_on,46,0,1,,,,,,,,0,,,78,0
139198,note_on,94,0,8,,,,,,,,7,,,59,0
139198,note_on,94,0,2,,,,,,,,1,,,47,0
139200,note_on,512,0,12,,,,,,,,12,,,47,45
139200,note_on,512,0,11,,,,,,,,11,,,63,45
139200,note_on,512,0,7,,,,,,,,6,,,78,110
139200,note_on,2,0,1,,,,,,,,0,,,78,110
139200,note_on,2,0,8,,,,,,,,7,,,63,110
139200,note_on,512,0,9,,,,,,,,8,,,81,45
139200,note_on,512,0,10,,,,,,,,10,,,71,45
139200,note_on,2,0,2,,,,,,,,1,,,47,110
139246,note_on,46,0,1,,,,,,,,0,,,78,0
139248,note_on,2,0,1,,,,,,,,0,,,81,110
139264,note_on,160,0,5,,,,,,,,4,,,71,0
139264,note_on,160,0,6,,,,,,,,5,,,63,0
139294,note_on,94,0,10,,,,,,,,10,,,71,0
139294,note_on,94,0,12,,,,,,,,12,,,47,0
139294,note_on,94,0,2,,,,,,,,1,,,47,0
139294,note_on,46,0,1,,,,,,,,0,,,81,0
139294,note_on,94,0,7,,,,,,,,6,,,78,0
139294,note_on,94,0,8,,,,,,,,7,,,63,0
139294,note_on,94,0,9,,,,,,,,8,,,81,0
139294,note_on,94,0,11,,,,,,,,11,,,63,0
139296,note_on,2,0,8,,,,,,,,7,,,66,110
139296,note_on,2,0,1,,,,,,,,0,,,81,110
139296,note_on,2,0,12,,,,,,,,12,,,47,45
139296,note_on,2,0,2,,,,,,,,1,,,47,110
139296,note_on,2,0,11,,,,,,,,11,,,63,45
139296,note_on,2,0,9,,,,,,,,8,,,81,45
139296,note_on,2,0,7,,,,,,,,6,,,75,110
139296,note_on,2,0,10,,,,,,,,10,,,71,45
139342,note_on,46,0,1,,,,,,,,0,,,81,0
139344,note_on,2,0,1,,,,,,,,0,,,78,110
139390,note_on,46,0,1,,,,,,,,0,,,78,0
139390,note_on,94,0,10,,,,,,,,10,,,71,0
139390,note_on,94,0,11,,,,,,,,11,,,63,0
139390,note_on,94,0,8,,,,,,,,7,,,66,0
139390,note_on,94,0,2,,,,,,,,1,,,47,0
139390,note_on,94,0,12,,,,,,,,12,,,47,0
139390,note_on,94,0,9,,,,,,,,8,,,81,0
139390,note_on,94,0,7,,,,,,,,6,,,75,0
139392,note_on,2,0,10,,,,,,,,10,,,71,45
139392,note_on,2,0,8,,,,,,,,7,,,64,110
139392,note_on,2,0,2,,,,,,,,1,,,52,110
139392,note_on,2,0,12,,,,,,,,12,,,52,45
139392,note_on,2,0,11,,,,,,,,11,,,64,45
139392,note_on,2,0,9,,,,,,,,8,,,79,45
139392,note_on,2,0,7,,,,,,,,6,,,71,110
139392,note_on,128,0,6,,,,,,,,5,,,52,110
139392,note_on,2,0,1,,,,,,,,0,,,79,110
139392,note_on,578,0,4,,,,,,,,3,,,52,110
139440,note_on,176,0,5,,,,,,,,4,,,76,110
139486,note_on,94,0,9,,,,,,,,8,,,79,0
139486,note_on,94,0,10,,,,,,,,10,,,71,0
139486,note_on,94,0,4,,,,,,,,3,,,52,0
139486,note_on,46,0,5,,,,,,,,4,,,76,0
139486,note_on,94,0,6,,,,,,,,5,,,52,0
139486,note_on,94,0,12,,,,,,,,12,,,52,0
139486,note_on,94,0,11,,,,,,,,11,,,64,0
139488,note_on,512,0,3,,,,,,,,2,,,71,110
139488,note_on,2,0,4,,,,,,,,3,,,56,110
139488,note_on,2,0,5,,,,,,,,4,,,76,110
139488,note_on,2,0,6,,,,,,,,5,,,52,110
139534,note_on,46,0,5,,,,,,,,4,,,76,0
139536,note_on,2,0,5,,,,,,,,4,,,71,110
139552,note_on,160,0,2,,,,,,,,1,,,52,0
139552,note_on,160,0,1,,,,,,,,0,,,79,0
139552,note_on,160,0,7,,,,,,,,6,,,71,0
139552,note_on,160,0,8,,,,,,,,7,,,64,0
139582,note_on,94,0,3,,,,,,,,2,,,71,0
139582,note_on,94,0,6,,,,,,,,5,,,52,0
139582,note_on,46,0,5,,,,,,,,4,,,71,0
139582,note_on,94,0,4,,,,,,,,3,,,56,0
139584,note_on,2,0,4,,,,,,,,3,,,59,110
139584,note_on,2,0,6,,,,,,,,5,,,52,110
139584,note_on,2,0,5,,,,,,,,4,,,71,110
139584,note_on,2,0,3,,,,,,,,2,,,68,110
139630,note_on,46,0,5,,,,,,,,4,,,71,0
139632,note_on,2,0,5,,,,,,,,4,,,68,110
139678,note_on,46,0,5,,,,,,,,4,,,68,0
139678,note_on,94,0,6,,,,,,,,5,,,52,0
139678,note_on,94,0,4,,,,,,,,3,,,59,0
139678,note_on,94,0,3,,,,,,,,2,,,68,0
139680,note_on,2,0,5,,,,,,,,4,,,68,110
139680,note_on,128,0,2,,,,,,,,1,,,52,110
139680,note_on,2,0,3,,,,,,,,2,,,64,110
139680,note_on,2,0,4,,,,,,,,3,,,62,110
139680,note_on,2,0,6,,,,,,,,5,,,52,110
139726,note_on,46,0,5,,,,,,,,4,,,68,0
139728,note_on,2,0,5,,,,,,,,4,,,64,110
139774,note_on,46,0,5,,,,,,,,4,,,64,0
139774,note_on,94,0,2,,,,,,,,1,,,52,0
139774,note_on,94,0,6,,,,,,,,5,,,52,0
139776,note_on,2,0,5,,,,,,,,4,,,64,110
139776,note_on,2,0,2,,,,,,,,1,,,56,110
139776,note_on,2,0,6,,,,,,,,5,,,52,110
139776,note_on,224,0,1,,,,,,,,0,,,71,110
139822,note_on,46,0,5,,,,,,,,4,,,64,0
139824,note_on,2,0,5,,,,,,,,4,,,65,110
139840,note_on,160,0,4,,,,,,,,3,,,62,0
139840,note_on,160,0,3,,,,,,,,2,,,64,0
139870,note_on,94,0,6,,,,,,,,5,,,52,0
139870,note_on,46,0,5,,,,,,,,4,,,65,0
139870,note_on,94,0,2,,,,,,,,1,,,56,0
139870,note_on,94,0,1,,,,,,,,0,,,71,0
139872,note_on,2,0,6,,,,,,,,5,,,52,110
139872,note_on,2,0,2,,,,,,,,1,,,59,110
139872,note_on,2,0,5,,,,,,,,4,,,65,110
139872,note_on,2,0,1,,,,,,,,0,,,68,110
139918,note_on,46,0,5,,,,,,,,4,,,65,0
139920,note_on,2,0,5,,,,,,,,4,,,62,110
139966,note_on,94,0,2,,,,,,,,1,,,59,0
139966,note_on,94,0,6,,,,,,,,5,,,52,0
139966,note_on,46,0,5,,,,,,,,4,,,62,0
139966,note_on,94,0,1,,,,,,,,0,,,68,0
139968,note_on,2,0,1,,,,,,,,0,,,64,110
139968,note_on,2,0,2,,,,,,,,1,,,56,110
139968,note_on,2,0,5,,,,,,,,4,,,62,110
139968,note_on,416,0,8,,,,,,,,7,,,52,110
139968,note_on,2,0,6,,,,,,,,5,,,52,110
140014,note_on,46,0,5,,,,,,,,4,,,62,0
140016,note_on,2,0,5,,,,,,,,4,,,71,110
140062,note_on,46,0,5,,,,,,,,4,,,71,0
140062,note_on,94,0,8,,,,,,,,7,,,52,0
140062,note_on,94,0,6,,,,,,,,5,,,52,0
140064,note_on,2,0,6,,,,,,,,5,,,52,110
140064,note_on,578,0,9,,,,,,,,8,,,80,45
140064,note_on,578,0,10,,,,,,,,10,,,74,45
140064,note_on,2,0,5,,,,,,,,4,,,71,110
140064,note_on,578,0,12,,,,,,,,12,,,52,45
140064,note_on,578,0,11,,,,,,,,11,,,64,45
140064,note_on,2,0,8,,,,,,,,7,,,56,110
140064,note_on,512,0,7,,,,,,,,6,,,71,110
140110,note_on,46,0,5,,,,,,,,4,,,71,0
140112,note_on,2,0,5,,,,,,,,4,,,74,110
140128,note_on,160,0,1,,,,,,,,0,,,64,0
140128,note_on,160,0,2,,,,,,,,1,,,56,0
140158,note_on,94,0,9,,,,,,,,8,,,80,0
140158,note_on,94,0,10,,,,,,,,10,,,74,0
140158,note_on,94,0,8,,,,,,,,7,,,56,0
140158,note_on,94,0,6,,,,,,,,5,,,52,0
140158,note_on,46,0,5,,,,,,,,4,,,74,0
140158,note_on,94,0,11,,,,,,,,11,,,64,0
140158,note_on,94,0,12,,,,,,,,12,,,52,0
140158,note_on,94,0,7,,,,,,,,6,,,71,0
140160,note_on,2,0,5,,,,,,,,4,,,74,110
140160,note_on,2,0,12,,,,,,,,12,,,52,45
140160,note_on,2,0,10,,,,,,,,10,,,74,45
140160,note_on,2,0,9,,,,,,,,8,,,80,45
140160,note_on,2,0,11,,,,,,,,11,,,64,45
140160,note_on,2,0,7,,,,,,,,6,,,68,110
140160,note_on,2,0,8,,,,,,,,7,,,59,110
140160,note_on,2,0,6,,,,,,,,5,,,52,110
140206,note_on,46,0,5,,,,,,,,4,,,74,0
140208,note_on,2,0,5,,,,,,,,4,,,71,110
140254,note_on,94,0,7,,,,,,,,6,,,68,0
140254,note_on,46,0,5,,,,,,,,4,,,71,0
140254,note_on,94,0,8,,,,,,,,7,,,59,0
140254,note_on,94,0,9,,,,,,,,8,,,80,0
140254,note_on,94,0,10,,,,,,,,10,,,74,0
140254,note_on,94,0,12,,,,,,,,12,,,52,0
140254,note_on,94,0,11,,,,,,,,11,,,64,0
140254,note_on,94,0,6,,,,,,,,5,,,52,0
140256,note_on,2,0,10,,,,,,,,10,,,72,45
140256,note_on,2,0,6,,,,,,,,5,,,45,110
140256,note_on,2,0,7,,,,,,,,6,,,64,110
140256,note_on,2,0,11,,,,,,,,11,,,64,45
140256,note_on,416,0,4,,,,,,,,3,,,45,110
140256,note_on,2,0,5,,,,,,,,4,,,72,110
140256,note_on,2,0,9,,,,,,,,8,,,81,45
140256,note_on,2,0,12,,,,,,,,12,,,45,45
140256,note_on,128,0,2,,,,,,,,1,,,57,110
140256,note_on,2,0,8,,,,,,,,7,,,57,110
140304,note_on,464,0,3,,,,,,,,2,,,81,110
140350,note_on,46,0,3,,,,,,,,2,,,81,0
140350,note_on,94,0,2,,,,,,,,1,,,57,0
140350,note_on,94,0,9,,,,,,,,8,,,81,0
140350,note_on,94,0,12,,,,,,,,12,,,45,0
140350,note_on,94,0,11,,,,,,,,11,,,64,0
140350,note_on,94,0,4,,,,,,,,3,,,45,0
140350,note_on,94,0,10,,,,,,,,10,,,72,0
140352,note_on,2,0,2,,,,,,,,1,,,61,110
140352,note_on,2,0,3,,,,,,,,2,,,81,110
140352,note_on,2,0,4,,,,,,,,3,,,45,110
140352,note_on,224,0,1,,,,,,,,0,,,76,110
140398,note_on,46,0,3,,,,,,,,2,,,81,0
140400,note_on,2,0,3,,,,,,,,2,,,76,110
140416,note_on,160,0,8,,,,,,,,7,,,57,0
140416,note_on,160,0,5,,,,,,,,4,,,72,0
140416,note_on,160,0,7,,,,,,,,6,,,64,0
140416,note_on,160,0,6,,,,,,,,5,,,45,0
140446,note_on,94,0,1,,,,,,,,0,,,76,0
140446,note_on,94,0,2,,,,,,,,1,,,61,0
140446,note_on,46,0,3,,,,,,,,2,,,76,0
140446,note_on,94,0,4,,,,,,,,3,,,45,0
140448,note_on,2,0,1,,,,,,,,0,,,73,110
140448,note_on,2,0,2,,,,,,,,1,,,64,110
140448,note_on,2,0,4,,,,,,,,3,,,45,110
140448,note_on,2,0,3,,,,,,,,2,,,76,110
140494,note_on,46,0,3,,,,,,,,2,,,76,0
140496,note_on,2,0,3,,,,,,,,2,,,73,110
140542,note_on,94,0,2,,,,,,,,1,,,64,0
140542,note_on,46,0,3,,,,,,,,2,,,73,0
140542,note_on,94,0,1,,,,,,,,0,,,73,0
140542,note_on,94,0,4,,,,,,,,3,,,45,0
140544,note_on,2,0,2,,,,,,,,1,,,67,110
140544,note_on,2,0,1,,,,,,,,0,,,69,110
140544,note_on,2,0,3,,,,,,,,2,,,73,110
140544,note_on,2,0,4,,,,,,,,3,,,45,110
140544,note_on,128,0,8,,,,,,,,7,,,57,110
140590,note_on,46,0,3,,,,,,,,2,,,73,0
140592,note_on,2,0,3,,,,,,,,2,,,69,110
140638,note_on,46,0,3,,,,,,,,2,,,69,0
140638,note_on,94,0,4,,,,,,,,3,,,45,0
140638,note_on,94,0,8,,,,,,,,7,,,57,0
140640,note_on,2,0,4,,,,,,,,3,,,45,110
140640,note_on,2,0,3,,,,,,,,2,,,69,110
140640,note_on,2,0,8,,,,,,,,7,,,61,110
140640,note_on,224,0,7,,,,,,,,6,,,76,110
140686,note_on,46,0,3,,,,,,,,2,,,69,0
140688,note_on,2,0,3,,,,,,,,2,,,70,110
140704,note_on,160,0,1,,,,,,,,0,,,69,0
140704,note_on,160,0,2,,,,,,,,1,,,67,0
140734,note_on,94,0,7,,,,,,,,6,,,76,0
140734,note_on,94,0,4,,,,,,,,3,,,45,0
140734,note_on,46,0,3,,,,,,,,2,,,70,0
140734,note_on,94,0,8,,,,,,,,7,,,61,0
140736,note_on,2,0,3,,,,,,,,2,,,70,110
140736,note_on,2,0,7,,,,,,,,6,,,73,110
140736,note_on,2,0,8,,,,,,,,7,,,64,110
140736,note_on,2,0,4,,,,,,,,3,,,45,110
140782,note_on,46,0,3,,,,,,,,2,,,70,0
140784,note_on,2,0,3,,,,,,,,2,,,67,110
140830,note_on,46,0,3,,,,,,,,2,,,67,0
140830,note_on,94,0,7,,,,,,,,6,,,73,0
140830,note_on,94,0,4,,,,,,,,3,,,45,0
140830,note_on,94,0,8,,,,,,,,7,,,64,0
140832,note_on,2,0,8,,,,,,,,7,,,61,110
140832,note_on,2,0,3,,,,,,,,2,,,67,110
140832,note_on,2,0,4,,,,,,,,3,,,45,110
140832,note_on,2,0,7,,,,,,,,6,,,69,110
140832,note_on,416,0,6,,,,,,,,5,,,57,110
140878,note_on,46,0,3,,,,,,,,2,,,67,0
140880,note_on,2,0,3,,,,,,,,2,,,76,110
140926,note_on,94,0,4,,,,,,,,3,,,45,0
140926,note_on,46,0,3,,,,,,,,2,,,76,0
140926,note_on,94,0,6,,,,,,,,5,,,57,0
140928,note_on,2,0,6,,,,,,,,5,,,61,110
140928,note_on,578,0,11,,,,,,,,11,,,61,45
140928,note_on,2,0,3,,,,,,,,2,,,76,110
140928,note_on,578,0,10,,,,,,,,10,,,69,45
140928,note_on,578,0,12,,,,,,,,12,,,45,45
140928,note_on,512,0,5,,,,,,,,4,,,76,110
140928,note_on,578,0,9,,,,,,,,8,,,79,45
140928,note_on,2,0,4,,,,,,,,3,,,45,110
140974,note_on,46,0,3,,,,,,,,2,,,76,0
140976,note_on,2,0,3,,,,,,,,2,,,79,110
140992,note_on,160,0,7,,,,,,,,6,,,69,0
140992,note_on,160,0,8,,,,,,,,7,,,61,0
141022,note_on,94,0,9,,,,,,,,8,,,79,0
141022,note_on,94,0,12,,,,,,,,12,,,45,0
141022,note_on,94,0,4,,,,,,,,3,,,45,0
141022,note_on,94,0,10,,,,,,,,10,,,69,0
141022,note_on,94,0,11,,,,,,,,11,,,61,0
141022,note_on,94,0,5,,,,,,,,4,,,76,0
141022,note_on,46,0,3,,,,,,,,2,,,79,0
141022,note_on,94,0,6,,,,,,,,5,,,61,0
141024,note_on,2,0,12,,,,,,,,12,,,45,45
141024,note_on,2,0,10,,,,,,,,10,,,69,45
141024,note_on,2,0,3,,,,,,,,2,,,79,110
141024,note_on,2,0,11,,,,,,,,11,,,61,45
141024,note_on,2,0,4,,,,,,,,3,,,45,110
141024,note_on,2,0,5,,,,,,,,4,,,73,110
141024,note_on,2,0,9,,,,,,,,8,,,79,45
141024,note_on,2,0,6,,,,,,,,5,,,64,110
141070,note_on,46,0,3,,,,,,,,2,,,79,0
141072,note_on,2,0,3,,,,,,,,2,,,76,110
141118,note_on,94,0,6,,,,,,,,5,,,64,0
141118,note_on,94,0,9,,,,,,,,8,,,79,0
141118,note_on,94,0,10,,,,,,,,10,,,69,0
141118,note_on,94,0,12,,,,,,,,12,,,45,0
141118,note_on,94,0,4,,,,,,,,3,,,45,0
141118,note_on,94,0,11,,,,,,,,11,,,61,0
141118,note_on,94,0,5,,,,,,,,4,,,73,0
141118,note_on,46,0,3,,,,,,,,2,,,76,0
141120,note_on,2,0,10,,,,,,,,10,,,69,45
141120,note_on,2,0,12,,,,,,,,12,,,50,45
141120,note_on,416,0,2,,,,,,,,1,,,50,110
141120,note_on,2,0,4,,,,,,,,3,,,50,110
141120,note_on,128,0,8,,,,,,,,7,,,50,110
141120,note_on,2,0,3,,,,,,,,2,,,77,110
141120,note_on,2,0,11,,,,,,,,11,,,62,45
141120,note_on,2,0,6,,,,,,,,5,,,62,110
141120,note_on,2,0,9,,,,,,,,8,,,77,45
141120,note_on,2,0,5,,,,,,,,4,,,69,110
141168,note_on,176,0,7,,,,,,,,6,,,74,110
141214,note_on,94,0,8,,,,,,,,7,,,50,0
141214,note_on,94,0,2,,,,,,,,1,,,50,0
141214,note_on,94,0,9,,,,,,,,8,,,77,0
141214,note_on,94,0,10,,,,,,,,10,,,69,0
141214,note_on,94,0,11,,,,,,,,11,,,62,0
141214,note_on,94,0,12,,,,,,,,12,,,50,0
141214,note_on,46,0,7,,,,,,,,6,,,74,0
141216,note_on,2,0,7,,,,,,,,6,,,74,110
141216,note_on,512,0,1,,,,,,,,0,,,69,110
141216,note_on,2,0,2,,,,,,,,1,,,54,110
141216,note_on,2,0,8,,,,,,,,7,,,50,110
141262,note_on,46,0,7,,,,,,,,6,,,74,0
141264,note_on,2,0,7,,,,,,,,6,,,69,110
141280,note_on,160,0,4,,,,,,,,3,,,50,0
141280,note_on,160,0,6,,,,,,,,5,,,62,0
141280,note_on,160,0,5,,,,,,,,4,,,69,0
141280,note_on,160,0,3,,,,,,,,2,,,77,0
141310,note_on,46,0,7,,,,,,,,6,,,69,0
141310,note_on,94,0,2,,,,,,,,1,,,54,0
141310,note_on,94,0,1,,,,,,,,0,,,69,0
141310,note_on,94,0,8,,,,,,,,7,,,50,0
141312,note_on,2,0,7,,,,,,,,6,,,69,110
141312,note_on,2,0,2,,,,,,,,1,,,57,110
141312,note_on,2,0,1,,,,,,,,0,,,66,110
141312,note_on,2,0,8,,,,,,,,7,,,50,110
141358,note_on,46,0,7,,,,,,,,6,,,69,0
141360,note_on,2,0,7,,,,,,,,6,,,66,110
141406,note_on,46,0,7,,,,,,,,6,,,66,0
141406,note_on,94,0,1,,,,,,,,0,,,66,0
141406,note_on,94,0,2,,,,,,,,1,,,57,0
141406,note_on,94,0,8,,,,,,,,7,,,50,0
141408,note_on,2,0,2,,,,,,,,1,,,60,110
141408,note_on,2,0,1,,,,,,,,0,,,62,110
141408,note_on,2,0,7,,,,,,,,6,,,66,110
141408,note_on,128,0,6,,,,,,,,5,,,50,110
141408,note_on,2,0,8,,,,,,,,7,,,50,110
141454,note_on,46,0,7,,,,,,,,6,,,66,0
141456,note_on,2,0,7,,,,,,,,6,,,62,110
141502,note_on,46,0,7,,,,,,,,6,,,62,0
141502,note_on,94,0,8,,,,,,,,7,,,50,0
141502,note_on,94,0,6,,,,,,,,5,,,50,0
141504,note_on,2,0,7,,,,,,,,6,,,62,110
141504,note_on,2,0,8,,,,,,,,7,,,50,110
141504,note_on,2,0,6,,,,,,,,5,,,54,110
141504,note_on,224,0,5,,,,,,,,4,,,69,110
141550,note_on,46,0,7,,,,,,,,6,,,62,0
141552,note_on,2,0,7,,,,,,,,6,,,63,110
141568,note_on,160,0,2,,,,,,,,1,,,60,0
141568,note_on,160,0,1,,,,,,,,0,,,62,0
141598,note_on,94,0,6,,,,,,,,5,,,54,0
141598,note_on,94,0,8,,,,,,,,7,,,50,0
141598,note_on,46,0,7,,,,,,,,6,,,63,0
141598,note_on,94,0,5,,,,,,,,4,,,69,0
141600,note_on,2,0,8,,,,,,,,7,,,50,110
141600,note_on,2,0,6,,,,,,,,5,,,57,110
141600,note_on,2,0,7,,,,,,,,6,,,63,110
141600,note_on,2,0,5,,,,,,,,4,,,66,110
141646,note_on,46,0,7,,,,,,,,6,,,63,0
141648,note_on,2,0,7,,,,,,,,6,,,60,110
141694,note_on,46,0,7,,,,,,,,6,,,60,0
141694,note_on,94,0,8,,,,,,,,7,,,50,0
141694,note_on,94,0,6,,,,,,,,5,,,57,0
141694,note_on,94,0,5,,,,,,,,4,,,66,0
141696,note_on,2,0,7,,,,,,,,6,,,60,110
141696,note_on,416,0,4,,,,,,,,3,,,50,110
141696,note_on,2,0,6,,,,,,,,5,,,54,110
141696,note_on,2,0,8,,,,,,,,7,,,50,110
141696,note_on,2,0,5,,,,,,,,4,,,62,110
141742,note_on,46,0,7,,,,,,,,6,,,60,0
141744,note_on,2,0,7,,,,,,,,6,,,69,110
141790,note_on,46,0,7,,,,,,,,6,,,69,0
141790,note_on,94,0,8,,,,,,,,7,,,50,0
141790,note_on,94,0,4,,,,,,,,3,,,50,0
141792,note_on,578,0,9,,,,,,,,8,,,78,45
141792,note_on,2,0,7,,,,,,,,6,,,69,110
141792,note_on,2,0,8,,,,,,,,7,,,50,110
141792,note_on,2,0,4,,,,,,,,3,,,54,110
141792,note_on,578,0,11,,,,,,,,11,,,62,45
141792,note_on,512,0,3,,,,,,,,2,,,69,110
141792,note_on,578,0,10,,,,,,,,10,,,72,45
141792,note_on,578,0,12,,,,,,,,12,,,50,45
141838,note_on,46,0,7,,,,,,,,6,,,69,0
141840,note_on,2,0,7,,,,,,,,6,,,72,110
141856,note_on,160,0,5,,,,,,,,4,,,62,0
141856,note_on,160,0,6,,,,,,,,5,,,54,0
141886,note_on,94,0,12,,,,,,,,12,,,50,0
141886,note_on,46,0,7,,,,,,,,6,,,72,0
141886,note_on,94,0,9,,,,,,,,8,,,78,0
141886,note_on,94,0,3,,,,,,,,2,,,69,0
141886,note_on,94,0,8,,,,,,,,7,,,50,0
141886,note_on,94,0,10,,,,,,,,10,,,72,0
141886,note_on,94,0,4,,,,,,,,3,,,54,0
141886,note_on,94,0,11,,,,,,,,11,,,62,0
141888,note_on,2,0,4,,,,,,,,3,,,57,110
141888,note_on,2,0,9,,,,,,,,8,,,78,45
141888,note_on,2,0,8,,,,,,,,7,,,50,110
141888,note_on,2,0,12,,,,,,,,12,,,50,45
141888,note_on,2,0,3,,,,,,,,2,,,66,110
141888,note_on,2,0,7,,,,,,,,6,,,72,110
141888,note_on,2,0,10,,,,,,,,10,,,72,45
141888,note_on,2,0,11,,,,,,,,11,,,62,45
141934,note_on,46,0,7,,,,,,,,6,,,72,0
141936,note_on,2,0,7,,,,,,,,6,,,69,110
141982,note_on,94,0,9,,,,,,,,8,,,78,0
141982,note_on,94,0,10,,,,,,,,10,,,72,0
141982,note_on,94,0,3,,,,,,,,2,,,66,0
141982,note_on,46,0,7,,,,,,,,6,,,69,0
141982,note_on,94,0,11,,,,,,,,11,,,62,0
141982,note_on,94,0,4,,,,,,,,3,,,57,0
141982,note_on,94,0,12,,,,,,,,12,,,50,0
141982,note_on,94,0,8,,,,,,,,7,,,50,0
141984,note_on,2,0,4,,,,,,,,3,,,55,110
141984,note_on,128,0,6,,,,,,,,5,,,43,110
141984,note_on,2,0,12,,,,,,,,12,,,43,45
141984,note_on,416,0,2,,,,,,,,1,,,55,110
141984,note_on,2,0,10,,,,,,,,10,,,70,45
141984,note_on,2,0,11,,,,,,,,11,,,62,45
141984,note_on,2,0,8,,,,,,,,7,,,43,110
141984,note_on,2,0,9,,,,,,,,8,,,79,45
141984,note_on,2,0,7,,,,,,,,6,,,70,110
141984,note_on,2,0,3,,,,,,,,2,,,62,110
142032,note_on,176,0,5,,,,,,,,4,,,74,110
142078,note_on,94,0,6,,,,,,,,5,,,43,0
142078,note_on,94,0,10,,,,,,,,10,,,70,0
142078,note_on,94,0,9,,,,,,,,8,,,79,0
142078,note_on,94,0,7,,,,,,,,6,,,70,0
142078,note_on,94,0,11,,,,,,,,11,,,62,0
142078,note_on,94,0,2,,,,,,,,1,,,55,0
142078,note_on,94,0,8,,,,,,,,7,,,43,0
142078,note_on,94,0,12,,,,,,,,12,,,43,0
142078,note_on,46,0,5,,,,,,,,4,,,74,0
142080,note_on,2,0,6,,,,,,,,5,,,43,110
142080,note_on,2,0,5,,,,,,,,4,,,74,110
142080,note_on,2,0,2,,,,,,,,1,,,59,110
142080,note_on,512,0,1,,,,,,,,0,,,79,110
142126,note_on,46,0,5,,,,,,,,4,,,74,0
142128,note_on,2,0,5,,,,,,,,4,,,72,110
142144,note_on,160,0,3,,,,,,,,2,,,62,0
142144,note_on,160,0,4,,,,,,,,3,,,55,0
142174,note_on,94,0,2,,,,,,,,1,,,59,0
142174,note_on,94,0,6,,,,,,,,5,,,43,0
142174,note_on,94,0,1,,,,,,,,0,,,79,0
142174,note_on,46,0,5,,,,,,,,4,,,72,0
142176,note_on,2,0,2,,,,,,,,1,,,62,110
142176,note_on,2,0,5,,,,,,,,4,,,72,110
142176,note_on,2,0,6,,,,,,,,5,,,43,110
142176,note_on,2,0,1,,,,,,,,0,,,74,110
142222,note_on,46,0,5,,,,,,,,4,,,72,0
142224,note_on,2,0,5,,,,,,,,4,,,71,110
142270,note_on,94,0,6,,,,,,,,5,,,43,0
142270,note_on,94,0,2,,,,,,,,1,,,62,0
142270,note_on,46,0,5,,,,,,,,4,,,71,0
142270,note_on,94,0,1,,,,,,,,0,,,74,0
142272,note_on,2,0,6,,,,,,,,5,,,43,110
142272,note_on,2,0,2,,,,,,,,1,,,65,110
142272,note_on,2,0,1,,,,,,,,0,,,67,110
142272,note_on,194,0,8,,,,,,,,7,,,55,110
142272,note_on,2,0,5,,,,,,,,4,,,71,110
142318,note_on,46,0,5,,,,,,,,4,,,71,0
142320,note_on,2,0,5,,,,,,,,4,,,65,110
142366,note_on,94,0,8,,,,,,,,7,,,55,0
142366,note_on,94,0,6,,,,,,,,5,,,43,0
142366,note_on,46,0,5,,,,,,,,4,,,65,0
142368,note_on,2,0,6,,,,,,,,5,,,43,110
142368,note_on,290,0,10,,,,,,,,10,,,67,45
142368,note_on,290,0,7,,,,,,,,6,,,74,110
142368,note_on,2,0,8,,,,,,,,7,,,59,110
142368,note_on,2,0,5,,,,,,,,4,,,65,110
142368,note_on,290,0,12,,,,,,,,12,,,43,45
142368,note_on,290,0,9,,,,,,,,8,,,77,45
142368,note_on,290,0,11,,,,,,,,11,,,59,45
142414,note_on,46,0,5,,,,,,,,4,,,65,0
142416,note_on,2,0,5,,,,,,,,4,,,71,110
142432,note_on,160,0,2,,,,,,,,1,,,65,0
142432,note_on,160,0,1,,,,,,,,0,,,67,0
142462,note_on,94,0,12,,,,,,,,12,,,43,0
142462,note_on,94,0,6,,,,,,,,5,,,43,0
142462,note_on,94,0,8,,,,,,,,7,,,59,0
142462,note_on,94,0,10,,,,,,,,10,,,67,0
142462,note_on,46,0,5,,,,,,,,4,,,71,0
142462,note_on,94,0,11,,,,,,,,11,,,59,0
142462,note_on,94,0,7,,,,,,,,6,,,74,0
142462,note_on,94,0,9,,,,,,,,8,,,77,0
142464,note_on,2,0,11,,,,,,,,11,,,59,45
142464,note_on,2,0,6,,,,,,,,5,,,43,110
142464,note_on,2,0,10,,,,,,,,10,,,67,45
142464,note_on,2,0,5,,,,,,,,4,,,71,110
142464,note_on,2,0,9,,,,,,,,8,,,77,45
142464,note_on,2,0,7,,,,,,,,6,,,71,110
142464,note_on,2,0,8,,,,,,,,7,,,62,110
142464,note_on,2,0,12,,,,,,,,12,,,43,45
142510,note_on,46,0,5,,,,,,,,4,,,71,0
142512,note_on,2,0,5,,,,,,,,4,,,72,110
142558,note_on,94,0,10,,,,,,,,10,,,67,0
142558,note_on,94,0,11,,,,,,,,11,,,59,0
142558,note_on,94,0,8,,,,,,,,7,,,62,0
142558,note_on,94,0,12,,,,,,,,12,,,43,0
142558,note_on,94,0,9,,,,,,,,8,,,77,0
142558,note_on,94,0,6,,,,,,,,5,,,43,0
142558,note_on,94,0,7,,,,,,,,6,,,71,0
142558,note_on,46,0,5,,,,,,,,4,,,72,0
142560,note_on,2,0,8,,,,,,,,7,,,64,110
142560,note_on,2,0,9,,,,,,,,8,,,76,45
142560,note_on,128,0,2,,,,,,,,1,,,55,110
142560,note_on,2,0,7,,,,,,,,6,,,67,110
142560,note_on,2,0,10,,,,,,,,10,,,67,45
142560,note_on,2,0,6,,,,,,,,5,,,48,110
142560,note_on,2,0,5,,,,,,,,4,,,72,110
142560,note_on,2,0,12,,,,,,,,12,,,48,45
142560,note_on,2,0,11,,,,,,,,11,,,60,45
142608,note_on,464,0,3,,,,,,,,2,,,76,110
142654,note_on,94,0,2,,,,,,,,1,,,55,0
142654,note_on,94,0,11,,,,,,,,11,,,60,0
142654,note_on,46,0,3,,,,,,,,2,,,76,0
142654,note_on,94,0,9,,,,,,,,8,,,76,0
142654,note_on,94,0,12,,,,,,,,12,,,48,0
142654,note_on,94,0,10,,,,,,,,10,,,67,0
142656,note_on,2,0,3,,,,,,,,2,,,76,110
142656,note_on,512,0,4,,,,,,,,3,,,48,110
142656,note_on,224,0,1,,,,,,,,0,,,79,110
142656,note_on,2,0,2,,,,,,,,1,,,60,110
142702,note_on,46,0,3,,,,,,,,2,,,76,0
142704,note_on,2,0,3,,,,,,,,2,,,74,110
142720,note_on,160,0,7,,,,,,,,6,,,67,0
142720,note_on,160,0,5,,,,,,,,4,,,72,0
142720,note_on,160,0,6,,,,,,,,5,,,48,0
142720,note_on,160,0,8,,,,,,,,7,,,64,0
142750,note_on,94,0,2,,,,,,,,1,,,60,0
142750,note_on,94,0,4,,,,,,,,3,,,48,0
142750,note_on,46,0,3,,,,,,,,2,,,74,0
142750,note_on,94,0,1,,,,,,,,0,,,79,0
142752,note_on,2,0,2,,,,,,,,1,,,64,110
142752,note_on,2,0,1,,,,,,,,0,,,67,110
142752,note_on,2,0,4,,,,,,,,3,,,46,110
142752,note_on,2,0,3,,,,,,,,2,,,74,110
142798,note_on,46,0,3,,,,,,,,2,,,74,0
142800,note_on,2,0,3,,,,,,,,2,,,73,110
142846,note_on,94,0,2,,,,,,,,1,,,64,0
142846,note_on,46,0,3,,,,,,,,2,,,73,0
142846,note_on,94,0,4,,,,,,,,3,,,46,0
142846,note_on,94,0,1,,,,,,,,0,,,67,0
142848,note_on,2,0,4,,,,,,,,3,,,45,110
142848,note_on,2,0,3,,,,,,,,2,,,73,110
142848,note_on,128,0,6,,,,,,,,5,,,57,110
142848,note_on,2,0,2,,,,,,,,1,,,52,110
142848,note_on,2,0,1,,,,,,,,0,,,67,110
142894,note_on,46,0,3,,,,,,,,2,,,73,0
142896,note_on,2,0,3,,,,,,,,2,,,67,110
142942,note_on,46,0,3,,,,,,,,2,,,67,0
142942,note_on,94,0,6,,,,,,,,5,,,57,0
142942,note_on,94,0,4,,,,,,,,3,,,45,0
142944,note_on,290,0,9,,,,,,,,8,,,73,45
142944,note_on,290,0,12,,,,,,,,12,,,45,45
142944,note_on,224,0,5,,,,,,,,4,,,76,110
142944,note_on,290,0,11,,,,,,,,11,,,64,45
142944,note_on,2,0,6,,,,,,,,5,,,61,110
142944,note_on,2,0,3,,,,,,,,2,,,67,110
142944,note_on,2,0,4,,,,,,,,3,,,45,110
142944,note_on,290,0,10,,,,,,,,10,,,69,45
142990,note_on,46,0,3,,,,,,,,2,,,67,0
142992,note_on,2,0,3,,,,,,,,2,,,73,110
143008,note_on,160,0,2,,,,,,,,1,,,52,0
143008,note_on,160,0,1,,,,,,,,0,,,67,0
143038,note_on,94,0,11,,,,,,,,11,,,64,0
143038,note_on,94,0,10,,,,,,,,10,,,69,0
143038,note_on,94,0,12,,,,,,,,12,,,45,0
143038,note_on,94,0,9,,,,,,,,8,,,73,0
143038,note_on,94,0,4,,,,,,,,3,,,45,0
143038,note_on,94,0,6,,,,,,,,5,,,61,0
143038,note_on,46,0,3,,,,,,,,2,,,73,0
143038,note_on,94,0,5,,,,,,,,4,,,76,0
143040,note_on,2,0,6,,,,,,,,5,,,64,110
143040,note_on,2,0,11,,,,,,,,11,,,64,45
143040,note_on,2,0,4,,,,,,,,3,,,45,110
143040,note_on,2,0,3,,,,,,,,2,,,73,110
143040,note_on,2,0,5,,,,,,,,4,,,73,110
143040,note_on,2,0,9,,,,,,,,8,,,73,45
143040,note_on,2,0,12,,,,,,,,12,,,45,45
143040,note_on,2,0,10,,,,,,,,10,,,69,45
143086,note_on,46,0,3,,,,,,,,2,,,73,0
143088,note_on,2,0,3,,,,,,,,2,,,74,110
143134,note_on,46,0,3,,,,,,,,2,,,74,0
143134,note_on,94,0,5,,,,,,,,4,,,73,0
143134,note_on,94,0,4,,,,,,,,3,,,45,0
143134,note_on,94,0,6,,,,,,,,5,,,64,0
143134,note_on,94,0,12,,,,,,,,12,,,45,0
143134,note_on,94,0,9,,,,,,,,8,,,73,0
143134,note_on,94,0,10,,,,,,,,10,,,69,0
143134,note_on,94,0,11,,,,,,,,11,,,64,0
143136,note_on,2,0,9,,,,,,,,8,,,74,45
143136,note_on,2,0,12,,,,,,,,12,,,50,45
143136,note_on,2,0,3,,,,,,,,2,,,74,110
143136,note_on,2,0,4,,,,,,,,3,,,50,110
143136,note_on,2,0,11,,,,,,,,11,,,65,45
143136,note_on,128,0,2,,,,,,,,1,,,57,110
143136,note_on,2,0,6,,,,,,,,5,,,65,110
143136,note_on,2,0,10,,,,,,,,10,,,69,45
143136,note_on,2,0,5,,,,,,,,4,,,69,110
143184,note_on,464,0,7,,,,,,,,6,,,77,110
143230,note_on,46,0,7,,,,,,,,6,,,77,0
143230,note_on,94,0,2,,,,,,,,1,,,57,0
143230,note_on,94,0,10,,,,,,,,10,,,69,0
143230,note_on,94,0,9,,,,,,,,8,,,74,0
143230,note_on,94,0,12,,,,,,,,12,,,50,0
143230,note_on,94,0,11,,,,,,,,11,,,65,0
143232,note_on,224,0,1,,,,,,,,0,,,81,110
143232,note_on,2,0,7,,,,,,,,6,,,77,110
143232,note_on,512,0,8,,,,,,,,7,,,50,110
143232,note_on,2,0,2,,,,,,,,1,,,62,110
143278,note_on,46,0,7,,,,,,,,6,,,77,0
143280,note_on,2,0,7,,,,,,,,6,,,81,110
143296,note_on,160,0,4,,,,,,,,3,,,50,0
143296,note_on,160,0,5,,,,,,,,4,,,69,0
143296,note_on,160,0,6,,,,,,,,5,,,65,0
143296,note_on,160,0,3,,,,,,,,2,,,74,0
143326,note_on,94,0,8,,,,,,,,7,,,50,0
143326,note_on,94,0,1,,,,,,,,0,,,81,0
143326,note_on,94,0,2,,,,,,,,1,,,62,0
143326,note_on,46,0,7,,,,,,,,6,,,81,0
143328,note_on,2,0,1,,,,,,,,0,,,69,110
143328,note_on,2,0,2,,,,,,,,1,,,66,110
143328,note_on,2,0,8,,,,,,,,7,,,48,110
143328,note_on,2,0,7,,,,,,,,6,,,81,110
143374,note_on,46,0,7,,,,,,,,6,,,81,0
143376,note_on,2,0,7,,,,,,,,6,,,75,110
143422,note_on,94,0,8,,,,,,,,7,,,48,0
143422,note_on,94,0,2,,,,,,,,1,,,66,0
143422,note_on,94,0,1,,,,,,,,0,,,69,0
143422,note_on,46,0,7,,,,,,,,6,,,75,0
143424,note_on,2,0,2,,,,,,,,1,,,54,110
143424,note_on,2,0,7,,,,,,,,6,,,75,110
143424,note_on,128,0,4,,,,,,,,3,,,59,110
143424,note_on,2,0,1,,,,,,,,0,,,69,110
143424,note_on,2,0,8,,,,,,,,7,,,47,110
143470,note_on,46,0,7,,,,,,,,6,,,75,0
143472,note_on,2,0,7,,,,,,,,6,,,71,110
143518,note_on,94,0,8,,,,,,,,7,,,47,0
143518,note_on,94,0,4,,,,,,,,3,,,59,0
143518,note_on,46,0,7,,,,,,,,6,,,71,0
143520,note_on,224,0,3,,,,,,,,2,,,78,110
143520,note_on,2,0,7,,,,,,,,6,,,71,110
143520,note_on,290,0,11,,,,,,,,11,,,66,45
143520,note_on,290,0,12,,,,,,,,12,,,47,45
143520,note_on,2,0,4,,,,,,,,3,,,63,110
143520,note_on,290,0,9,,,,,,,,8,,,75,45
143520,note_on,290,0,10,,,,,,,,10,,,71,45
143520,note_on,2,0,8,,,,,,,,7,,,47,110
143566,note_on,46,0,7,,,,,,,,6,,,71,0
143568,note_on,2,0,7,,,,,,,,6,,,72,110
143584,note_on,160,0,2,,,,,,,,1,,,54,0
143584,note_on,160,0,1,,,,,,,,0,,,69,0
143614,note_on,94,0,10,,,,,,,,10,,,71,0
143614,note_on,94,0,3,,,,,,,,2,,,78,0
143614,note_on,94,0,11,,,,,,,,11,,,66,0
143614,note_on,94,0,12,,,,,,,,12,,,47,0
143614,note_on,46,0,7,,,,,,,,6,,,72,0
143614,note_on,94,0,4,,,,,,,,3,,,63,0
143614,note_on,94,0,9,,,,,,,,8,,,75,0
143614,note_on,94,0,8,,,,,,,,7,,,47,0
143616,note_on,2,0,10,,,,,,,,10,,,71,45
143616,note_on,2,0,3,,,,,,,,2,,,75,110
143616,note_on,2,0,7,,,,,,,,6,,,72,110
143616,note_on,2,0,9,,,,,,,,8,,,75,45
143616,note_on,2,0,4,,,,,,,,3,,,66,110
143616,note_on,2,0,12,,,,,,,,12,,,47,45
143616,note_on,2,0,8,,,,,,,,7,,,47,110
143616,note_on,2,0,11,,,,,,,,11,,,66,45
143662,note_on,46,0,7,,,,,,,,6,,,72,0
143664,note_on,2,0,7,,,,,,,,6,,,69,110
143710,note_on,94,0,12,,,,,,,,12,,,47,0
143710,note_on,94,0,8,,,,,,,,7,,,47,0
143710,note_on,94,0,10,,,,,,,,10,,,71,0
143710,note_on,94,0,9,,,,,,,,8,,,75,0
143710,note_on,94,0,4,,,,,,,,3,,,66,0
143710,note_on,46,0,7,,,,,,,,6,,,69,0
143710,note_on,94,0,11,,,,,,,,11,,,66,0
143710,note_on,94,0,3,,,,,,,,2,,,75,0
143712,note_on,2,0,12,,,,,,,,12,,,52,45
143712,note_on,2,0,4,,,,,,,,3,,,67,110
143712,note_on,2,0,3,,,,,,,,2,,,71,110
143712,note_on,2,0,7,,,,,,,,6,,,67,110
143712,note_on,2,0,11,,,,,,,,11,,,67,45
143712,note_on,2,0,8,,,,,,,,7,,,52,110
143712,note_on,2,0,9,,,,,,,,8,,,76,45
143712,note_on,2,0,10,,,,,,,,10,,,71,45
143712,note_on,128,0,2,,,,,,,,1,,,40,110
143760,note_on,176,0,1,,,,,,,,0,,,64,110
143806,note_on,94,0,9,,,,,,,,8,,,76,0
143806,note_on,94,0,10,,,,,,,,10,,,71,0
143806,note_on,94,0,2,,,,,,,,1,,,40,0
143806,note_on,94,0,12,,,,,,,,12,,,52,0
143806,note_on,94,0,11,,,,,,,,11,,,67,0
143806,note_on,46,0,1,,,,,,,,0,,,64,0
143808,note_on,2,0,1,,,,,,,,0,,,64,110
143808,note_on,2,0,2,,,,,,,,1,,,43,110
143854,note_on,46,0,1,,,,,,,,0,,,64,0
143856,note_on,2,0,1,,,,,,,,0,,,67,110
143872,note_on,160,0,7,,,,,,,,6,,,67,0
143872,note_on,160,0,3,,,,,,,,2,,,71,0
143872,note_on,160,0,8,,,,,,,,7,,,52,0
143872,note_on,160,0,4,,,,,,,,3,,,67,0
143902,note_on,46,0,1,,,,,,,,0,,,67,0
143902,note_on,94,0,2,,,,,,,,1,,,43,0
143904,note_on,2,0,2,,,,,,,,1,,,47,110
143904,note_on,2,0,1,,,,,,,,0,,,67,110
143950,note_on,46,0,1,,,,,,,,0,,,67,0
143952,note_on,2,0,1,,,,,,,,0,,,71,110
143998,note_on,94,0,2,,,,,,,,1,,,47,0
143998,note_on,46,0,1,,,,,,,,0,,,71,0
144000,note_on,2,0,1,,,,,,,,0,,,71,110
144000,note_on,2,0,2,,,,,,,,1,,,52,110
144046,note_on,46,0,1,,,,,,,,0,,,71,0
144048,note_on,2,0,1,,,,,,,,0,,,76,110
144094,note_on,46,0,1,,,,,,,,0,,,76,0
144094,note_on,94,0,2,,,,,,,,1,,,52,0
144096,note_on,2,0,2,,,,,,,,1,,,55,110
144096,note_on,2,0,1,,,,,,,,0,,,76,110
144142,note_on,46,0,1,,,,,,,,0,,,76,0
144144,note_on,2,0,1,,,,,,,,0,,,79,110
144190,note_on,46,0,1,,,,,,,,0,,,79,0
144190,note_on,94,0,2,,,,,,,,1,,,55,0
144192,note_on,2,0,2,,,,,,,,1,,,58,110
144192,note_on,2,0,1,,,,,,,,0,,,79,110
144238,note_on,46,0,1,,,,,,,,0,,,79,0
144240,note_on,2,0,1,,,,,,,,0,,,73,110
144286,note_on,46,0,1,,,,,,,,0,,,73,0
144286,note_on,94,0,2,,,,,,,,1,,,58,0
144288,note_on,2,0,2,,,,,,,,1,,,57,110
144288,note_on,2,0,1,,,,,,,,0,,,73,110
144334,note_on,46,0,1,,,,,,,,0,,,73,0
144336,note_on,2,0,1,,,,,,,,0,,,69,110
144382,note_on,46,0,1,,,,,,,,0,,,69,0
144382,note_on,94,0,2,,,,,,,,1,,,57,0
144384,note_on,2,0,1,,,,,,,,0,,,69,110
144384,note_on,2,0,2,,,,,,,,1,,,49,110
144430,note_on,46,0,1,,,,,,,,0,,,69,0
144432,note_on,2,0,1,,,,,,,,0,,,79,110
144478,note_on,46,0,1,,,,,,,,0,,,79,0
144478,note_on,94,0,2,,,,,,,,1,,,49,0
144480,note_on,2,0,1,,,,,,,,0,,,79,110
144480,note_on,2,0,2,,,,,,,,1,,,45,110
144526,note_on,46,0,1,,,,,,,,0,,,79,0
144528,note_on,2,0,1,,,,,,,,0,,,77,110
144574,note_on,46,0,1,,,,,,,,0,,,77,0
144574,note_on,94,0,2,,,,,,,,1,,,45,0
144576,note_on,2,0,1,,,,,,,,0,,,77,110
144576,note_on,2,0,2,,,,,,,,1,,,50,110
144624,note_on,48,0,1,,,,,,,,0,,,77,0
144624,note_on,0,0,1,,,,,,,,0,,,79,110
144670,note_on,94,0,2,,,,,,,,1,,,50,0
144672,note_on,2,0,2,,,,,,,,1,,,53,110
144672,note_on,0,0,1,,,,,,,,0,,,81,110
144672,note_on,48,0,1,,,,,,,,0,,,79,0
144720,note_on,0,0,1,,,,,,,,0,,,74,110
144720,note_on,48,0,1,,,,,,,,0,,,81,0
144766,note_on,94,0,2,,,,,,,,1,,,53,0
144768,note_on,0,0,1,,,,,,,,0,,,76,110
144768,note_on,48,0,1,,,,,,,,0,,,74,0
144768,note_on,2,0,2,,,,,,,,1,,,50,110
144816,note_on,0,0,1,,,,,,,,0,,,72,110
144816,note_on,48,0,1,,,,,,,,0,,,76,0
144862,note_on,46,0,1,,,,,,,,0,,,72,0
144862,note_on,94,0,2,,,,,,,,1,,,50,0
144864,note_on,2,0,2,,,,,,,,1,,,55,110
144864,note_on,2,0,1,,,,,,,,0,,,71,110
144912,note_on,48,0,1,,,,,,,,0,,,71,0
144912,note_on,0,0,1,,,,,,,,0,,,72,110
144958,note_on,94,0,2,,,,,,,,1,,,55,0
144960,note_on,2,0,2,,,,,,,,1,,,59,110
144960,note_on,48,0,1,,,,,,,,0,,,72,0
144960,note_on,0,0,1,,,,,,,,0,,,74,110
145008,note_on,48,0,1,,,,,,,,0,,,74,0
145008,note_on,0,0,1,,,,,,,,0,,,67,110
145054,note_on,94,0,2,,,,,,,,1,,,59,0
145056,note_on,2,0,2,,,,,,,,1,,,55,110
145056,note_on,0,0,1,,,,,,,,0,,,69,110
145056,note_on,48,0,1,,,,,,,,0,,,67,0
145104,note_on,0,0,1,,,,,,,,0,,,65,110
145104,note_on,48,0,1,,,,,,,,0,,,69,0
145150,note_on,46,0,1,,,,,,,,0,,,65,0
145150,note_on,94,0,2,,,,,,,,1,,,55,0
145152,note_on,2,0,1,,,,,,,,0,,,64,110
145152,note_on,2,0,2,,,,,,,,1,,,60,110
145200,note_on,48,0,1,,,,,,,,0,,,64,0
145200,note_on,0,0,1,,,,,,,,0,,,67,110
145246,note_on,94,0,2,,,,,,,,1,,,60,0
145248,note_on,2,0,2,,,,,,,,1,,,52,110
145248,note_on,0,0,1,,,,,,,,0,,,72,110
145248,note_on,48,0,1,,,,,,,,0,,,67,0
145296,note_on,0,0,1,,,,,,,,0,,,64,110
145296,note_on,48,0,1,,,,,,,,0,,,72,0
145342,note_on,94,0,2,,,,,,,,1,,,52,0
145344,note_on,48,0,1,,,,,,,,0,,,64,0
145344,note_on,2,0,2,,,,,,,,1,,,53,110
145344,note_on,0,0,1,,,,,,,,0,,,62,110
145392,note_on,48,0,1,,,,,,,,0,,,62,0
145392,note_on,0,0,1,,,,,,,,0,,,60,110
145438,note_on,46,0,1,,,,,,,,0,,,60,0
145438,note_on,94,0,2,,,,,,,,1,,,53,0
145440,note_on,2,0,2,,,,,,,,1,,,55,110
145488,note_on,50,0,1,,,,,,,,0,,,62,110
145534,note_on,46,0,1,,,,,,,,0,,,62,0
145534,note_on,94,0,2,,,,,,,,1,,,55,0
145536,note_on,2,0,1,,,,,,,,0,,,72,110
145536,note_on,2,0,2,,,,,,,,1,,,50,110
145582,note_on,46,0,1,,,,,,,,0,,,72,0
145584,note_on,2,0,1,,,,,,,,0,,,70,110
145630,note_on,46,0,1,,,,,,,,0,,,70,0
145630,note_on,94,0,2,,,,,,,,1,,,50,0
145632,note_on,2,0,2,,,,,,,,1,,,52,110
145632,note_on,2,0,1,,,,,,,,0,,,60,110
145678,note_on,46,0,1,,,,,,,,0,,,60,0
145680,note_on,2,0,1,,,,,,,,0,,,70,110
145726,note_on,94,0,2,,,,,,,,1,,,52,0
145726,note_on,46,0,1,,,,,,,,0,,,70,0
145728,note_on,2,0,2,,,,,,,,1,,,53,110
145728,note_on,2,0,1,,,,,,,,0,,,70,110
145774,note_on,46,0,2,,,,,,,,1,,,53,0
145776,note_on,2,0,2,,,,,,,,1,,,60,110
145822,note_on,46,0,2,,,,,,,,1,,,60,0
145824,note_on,96,0,1,,,,,,,,0,,,70,0
145824,note_on,0,0,1,,,,,,,,0,,,69,110
145824,note_on,2,0,2,,,,,,,,1,,,65,110
145870,note_on,46,0,2,,,,,,,,1,,,65,0
145870,note_on,46,0,1,,,,,,,,0,,,69,0
145872,note_on,2,0,2,,,,,,,,1,,,67,110
145872,note_on,2,0,1,,,,,,,,0,,,72,110
145918,note_on,46,0,1,,,,,,,,0,,,72,0
145918,note_on,46,0,2,,,,,,,,1,,,67,0
145920,note_on,2,0,2,,,,,,,,1,,,65,110
145920,note_on,2,0,1,,,,,,,,0,,,74,110
145966,note_on,46,0,2,,,,,,,,1,,,65,0
145966,note_on,46,0,1,,,,,,,,0,,,74,0
145968,note_on,2,0,2,,,,,,,,1,,,64,110
145968,note_on,2,0,1,,,,,,,,0,,,76,110
146014,note_on,46,0,2,,,,,,,,1,,,64,0
146014,note_on,46,0,1,,,,,,,,0,,,76,0
146016,note_on,2,0,2,,,,,,,,1,,,62,110
146016,note_on,2,0,1,,,,,,,,0,,,77,110
146062,note_on,46,0,1,,,,,,,,0,,,77,0
146062,note_on,46,0,2,,,,,,,,1,,,62,0
146064,note_on,2,0,2,,,,,,,,1,,,60,110
146064,note_on,2,0,1,,,,,,,,0,,,76,110
146110,note_on,46,0,1,,,,,,,,0,,,76,0
146110,note_on,46,0,2,,,,,,,,1,,,60,0
146112,note_on,2,0,1,,,,,,,,0,,,74,110
146112,note_on,2,0,2,,,,,,,,1,,,59,110
146158,note_on,46,0,1,,,,,,,,0,,,74,0
146158,note_on,46,0,2,,,,,,,,1,,,59,0
146160,note_on,2,0,1,,,,,,,,0,,,72,110
146160,note_on,2,0,2,,,,,,,,1,,,57,110
146206,note_on,46,0,1,,,,,,,,0,,,72,0
146206,note_on,46,0,2,,,,,,,,1,,,57,0
146208,note_on,2,0,2,,,,,,,,1,,,56,110
146208,note_on,2,0,1,,,,,,,,0,,,71,110
146254,note_on,46,0,1,,,,,,,,0,,,71,0
146254,note_on,46,0,2,,,,,,,,1,,,56,0
146256,note_on,2,0,1,,,,,,,,0,,,69,110
146256,note_on,2,0,2,,,,,,,,1,,,54,110
146302,note_on,46,0,1,,,,,,,,0,,,69,0
146302,note_on,46,0,2,,,,,,,,1,,,54,0
146304,note_on,2,0,2,,,,,,,,1,,,52,110
146304,note_on,2,0,1,,,,,,,,0,,,68,110
146350,note_on,46,0,1,,,,,,,,0,,,68,0
146350,note_on,46,0,2,,,,,,,,1,,,52,0
146352,note_on,2,0,1,,,,,,,,0,,,71,110
146352,note_on,2,0,2,,,,,,,,1,,,56,110
146398,note_on,46,0,1,,,,,,,,0,,,71,0
146398,note_on,46,0,2,,,,,,,,1,,,56,0
146400,note_on,2,0,2,,,,,,,,1,,,59,110
146400,note_on,2,0,1,,,,,,,,0,,,74,110
146446,note_on,46,0,2,,,,,,,,1,,,59,0
146446,note_on,46,0,1,,,,,,,,0,,,74,0
146448,note_on,2,0,2,,,,,,,,1,,,62,110
146448,note_on,2,0,1,,,,,,,,0,,,77,110
146494,note_on,46,0,2,,,,,,,,1,,,62,0
146494,note_on,46,0,1,,,,,,,,0,,,77,0
146496,note_on,2,0,1,,,,,,,,0,,,76,110
146496,note_on,2,0,2,,,,,,,,1,,,60,110
146542,note_on,46,0,2,,,,,,,,1,,,60,0
146542,note_on,46,0,1,,,,,,,,0,,,76,0
146544,note_on,2,0,1,,,,,,,,0,,,74,110
146544,note_on,2,0,2,,,,,,,,1,,,59,110
146590,note_on,46,0,1,,,,,,,,0,,,74,0
146590,note_on,46,0,2,,,,,,,,1,,,59,0
146592,note_on,0,0,1,,,,,,,,0,,,72,110
146592,note_on,2,0,1,,,,,,,,0,,,57,110
146640,note_on,50,0,2,,,,,,,,1,,,68,110
146686,note_on,46,0,2,,,,,,,,1,,,68,0
146688,note_on,2,0,2,,,,,,,,1,,,69,110
146734,note_on,46,0,2,,,,,,,,1,,,69,0
146736,note_on,2,0,2,,,,,,,,1,,,64,110
146782,note_on,46,0,2,,,,,,,,1,,,64,0
146784,note_on,2,0,2,,,,,,,,1,,,60,110
146830,note_on,46,0,2,,,,,,,,1,,,60,0
146832,note_on,2,0,2,,,,,,,,1,,,56,110
146848,note_on,256,0,1,,,,,,,,0,,,57,0
146878,note_on,46,0,2,,,,,,,,1,,,56,0
146880,note_on,3074,0,10,,,,,,,,10,,,69,92
146880,note_on,3074,0,12,,,,,,,,12,,,45,92
146880,note_on,3584,0,6,,,,,,,,5,,,45,110
146880,note_on,3074,0,11,,,,,,,,11,,,64,92
146880,note_on,3008,0,4,,,,,,,,3,,,57,110
146880,note_on,2,0,2,,,,,,,,1,,,57,110
146880,note_on,3008,0,8,,,,,,,,7,,,45,110
146880,note_on,3584,0,5,,,,,,,,4,,,72,110
146880,note_on,3008,0,7,,,,,,,,6,,,69,110
146880,note_on,3074,0,9,,,,,,,,8,,,72,92
146880,note_on,3008,0,3,,,,,,,,2,,,69,110
146926,note_on,46,0,3,,,,,,,,2,,,69,0
146926,note_on,46,0,5,,,,,,,,4,,,72,0
146926,note_on,78,0,1,,,,,,,,0,,,72,0
146926,note_on,46,0,7,,,,,,,,6,,,69,0
146928,note_on,2,0,3,,,,,,,,2,,,72,110
146928,note_on,2,0,5,,,,,,,,4,,,76,110
146928,note_on,2,0,1,,,,,,,,0,,,69,110
146928,note_on,2,0,7,,,,,,,,6,,,64,110
146974,note_on,94,0,10,,,,,,,,10,,,69,0
146974,note_on,94,0,11,,,,,,,,11,,,64,0
146974,note_on,46,0,7,,,,,,,,6,,,64,0
146974,note_on,46,0,1,,,,,,,,0,,,69,0
146974,note_on,94,0,9,,,,,,,,8,,,72,0
146974,note_on,46,0,5,,,,,,,,4,,,76,0
146974,note_on,94,0,8,,,,,,,,7,,,45,0
146974,note_on,94,0,4,,,,,,,,3,,,57,0
146974,note_on,94,0,12,,,,,,,,12,,,45,0
146974,note_on,46,0,3,,,,,,,,2,,,72,0
146974,note_on,94,0,6,,,,,,,,5,,,45,0
146974,note_on,94,0,2,,,,,,,,1,,,57,0
146976,note_on,2,0,4,,,,,,,,3,,,52,110
146976,note_on,2,0,5,,,,,,,,4,,,72,110
146976,note_on,2,0,8,,,,,,,,7,,,57,110
146976,note_on,2,0,6,,,,,,,,5,,,48,110
146976,note_on,2,0,10,,,,,,,,10,,,69,92
146976,note_on,2,0,12,,,,,,,,12,,,45,92
146976,note_on,2,0,9,,,,,,,,8,,,72,92
146976,note_on,2,0,11,,,,,,,,11,,,64,92
146976,note_on,2,0,1,,,,,,,,0,,,64,110
146976,note_on,2,0,3,,,,,,,,2,,,69,110
146976,note_on,2,0,7,,,,,,,,6,,,69,110
146976,note_on,0,0,2,,,,,,,,1,,,57,110
146976,note_on,2,0,2,,,,,,,,1,,,45,110
147022,note_on,46,0,5,,,,,,,,4,,,72,0
147022,note_on,46,0,7,,,,,,,,6,,,69,0
147022,note_on,46,0,3,,,,,,,,2,,,69,0
147022,note_on,46,0,1,,,,,,,,0,,,64,0
147024,note_on,2,0,7,,,,,,,,6,,,72,110
147024,note_on,2,0,3,,,,,,,,2,,,64,110
147024,note_on,2,0,1,,,,,,,,0,,,69,110
147024,note_on,2,0,5,,,,,,,,4,,,69,110
147070,note_on,46,0,1,,,,,,,,0,,,69,0
147070,note_on,94,0,12,,,,,,,,12,,,45,0
147070,note_on,94,0,10,,,,,,,,10,,,69,0
147070,note_on,94,0,6,,,,,,,,5,,,48,0
147070,note_on,94,0,8,,,,,,,,7,,,57,0
147070,note_on,94,0,4,,,,,,,,3,,,52,0
147070,note_on,46,0,3,,,,,,,,2,,,64,0
147070,note_on,0,0,2,,,,,,,,1,,,45,0
147070,note_on,94,0,9,,,,,,,,8,,,72,0
147070,note_on,94,0,11,,,,,,,,11,,,64,0
147070,note_on,46,0,7,,,,,,,,6,,,72,0
147070,note_on,94,0,2,,,,,,,,1,,,57,0
147070,note_on,46,0,5,,,,,,,,4,,,69,0
147072,note_on,2,0,3,,,,,,,,2,,,69,110
147072,note_on,2,0,8,,,,,,,,7,,,45,110
147072,note_on,2,0,12,,,,,,,,12,,,45,92
147072,note_on,2,0,11,,,,,,,,11,,,64,92
147072,note_on,2,0,10,,,,,,,,10,,,69,92
147072,note_on,2,0,9,,,,,,,,8,,,72,92
147072,note_on,2,0,1,,,,,,,,0,,,72,110
147072,note_on,2,0,7,,,,,,,,6,,,69,110
147072,note_on,2,0,2,,,,,,,,1,,,45,110
147072,note_on,2,0,6,,,,,,,,5,,,52,110
147072,note_on,2,0,4,,,,,,,,3,,,45,110
147072,note_on,0,0,2,,,,,,,,1,,,57,110
147072,note_on,2,0,5,,,,,,,,4,,,64,110
147118,note_on,46,0,7,,,,,,,,6,,,69,0
147118,note_on,46,0,3,,,,,,,,2,,,69,0
147118,note_on,46,0,5,,,,,,,,4,,,64,0
147118,note_on,46,0,1,,,,,,,,0,,,72,0
147120,note_on,2,0,5,,,,,,,,4,,,69,110
147120,note_on,2,0,3,,,,,,,,2,,,72,110
147120,note_on,2,0,7,,,,,,,,6,,,64,110
147120,note_on,2,0,1,,,,,,,,0,,,69,110
147166,note_on,94,0,2,,,,,,,,1,,,57,0
147166,note_on,46,0,5,,,,,,,,4,,,69,0
147166,note_on,0,0,2,,,,,,,,1,,,45,0
147166,note_on,46,0,1,,,,,,,,0,,,69,0
147166,note_on,94,0,12,,,,,,,,12,,,45,0
147166,note_on,94,0,8,,,,,,,,7,,,45,0
147166,note_on,94,0,9,,,,,,,,8,,,72,0
147166,note_on,94,0,6,,,,,,,,5,,,52,0
147166,note_on,46,0,7,,,,,,,,6,,,64,0
147166,note_on,94,0,4,,,,,,,,3,,,45,0
147166,note_on,94,0,10,,,,,,,,10,,,69,0
147166,note_on,46,0,3,,,,,,,,2,,,72,0
147166,note_on,94,0,11,,,,,,,,11,,,64,0
147168,note_on,2,0,10,,,,,,,,10,,,69,92
147168,note_on,0,0,2,,,,,,,,1,,,50,110
147168,note_on,2,0,5,,,,,,,,4,,,71,110
147168,note_on,2,0,8,,,,,,,,7,,,53,110
147168,note_on,2,0,2,,,,,,,,1,,,38,110
147168,note_on,2,0,4,,,,,,,,3,,,50,110
147168,note_on,2,0,6,,,,,,,,5,,,50,110
147168,note_on,2,0,12,,,,,,,,12,,,50,92
147168,note_on,2,0,1,,,,,,,,0,,,71,110
147168,note_on,2,0,9,,,,,,,,8,,,71,92
147168,note_on,2,0,11,,,,,,,,11,,,65,92
147168,note_on,2,0,7,,,,,,,,6,,,69,110
147168,note_on,2,0,3,,,,,,,,2,,,69,110
147214,note_on,46,0,7,,,,,,,,6,,,69,0
147214,note_on,46,0,5,,,,,,,,4,,,71,0
147214,note_on,46,0,1,,,,,,,,0,,,71,0
147214,note_on,46,0,3,,,,,,,,2,,,69,0
147216,note_on,2,0,5,,,,,,,,4,,,74,110
147216,note_on,2,0,7,,,,,,,,6,,,65,110
147216,note_on,2,0,1,,,,,,,,0,,,69,110
147216,note_on,2,0,3,,,,,,,,2,,,71,110
147262,note_on,94,0,4,,,,,,,,3,,,50,0
147262,note_on,94,0,11,,,,,,,,11,,,65,0
147262,note_on,94,0,10,,,,,,,,10,,,69,0
147262,note_on,94,0,2,,,,,,,,1,,,50,0
147262,note_on,94,0,6,,,,,,,,5,,,50,0
147262,note_on,46,0,7,,,,,,,,6,,,65,0
147262,note_on,94,0,8,,,,,,,,7,,,53,0
147262,note_on,46,0,5,,,,,,,,4,,,74,0
147262,note_on,94,0,9,,,,,,,,8,,,71,0
147262,note_on,0,0,2,,,,,,,,1,,,38,0
147262,note_on,46,0,3,,,,,,,,2,,,71,0
147262,note_on,94,0,12,,,,,,,,12,,,50,0
147262,note_on,46,0,1,,,,,,,,0,,,69,0
147264,note_on,2,0,4,,,,,,,,3,,,53,110
147264,note_on,2,0,6,,,,,,,,5,,,38,110
147264,note_on,2,0,5,,,,,,,,4,,,71,110
147264,note_on,2,0,9,,,,,,,,8,,,71,92
147264,note_on,2,0,1,,,,,,,,0,,,65,110
147264,note_on,2,0,11,,,,,,,,11,,,65,92
147264,note_on,2,0,3,,,,,,,,2,,,69,110
147264,note_on,2,0,8,,,,,,,,7,,,50,110
147264,note_on,2,0,10,,,,,,,,10,,,69,92
147264,note_on,2,0,7,,,,,,,,6,,,69,110
147264,note_on,2,0,2,,,,,,,,1,,,38,110
147264,note_on,0,0,2,,,,,,,,1,,,50,110
147264,note_on,2,0,12,,,,,,,,12,,,50,92
147310,note_on,46,0,1,,,,,,,,0,,,65,0
147310,note_on,46,0,3,,,,,,,,2,,,69,0
147310,note_on,46,0,5,,,,,,,,4,,,71,0
147310,note_on,46,0,7,,,,,,,,6,,,69,0
147312,note_on,2,0,5,,,,,,,,4,,,69,110
147312,note_on,2,0,7,,,,,,,,6,,,71,110
147312,note_on,2,0,3,,,,,,,,2,,,65,110
147312,note_on,2,0,1,,,,,,,,0,,,69,110
147358,note_on,94,0,11,,,,,,,,11,,,65,0
147358,note_on,94,0,9,,,,,,,,8,,,71,0
147358,note_on,94,0,2,,,,,,,,1,,,50,0
147358,note_on,0,0,2,,,,,,,,1,,,38,0
147358,note_on,94,0,4,,,,,,,,3,,,53,0
147358,note_on,94,0,10,,,,,,,,10,,,69,0
147358,note_on,94,0,8,,,,,,,,7,,,50,0
147358,note_on,94,0,6,,,,,,,,5,,,38,0
147358,note_on,94,0,12,,,,,,,,12,,,50,0
147358,note_on,46,0,5,,,,,,,,4,,,69,0
147358,note_on,46,0,1,,,,,,,,0,,,69,0
147358,note_on,46,0,7,,,,,,,,6,,,71,0
147358,note_on,46,0,3,,,,,,,,2,,,65,0
147360,note_on,2,0,2,,,,,,,,1,,,38,110
147360,note_on,2,0,1,,,,,,,,0,,,71,110
147360,note_on,2,0,5,,,,,,,,4,,,65,110
147360,note_on,2,0,8,,,,,,,,7,,,53,110
147360,note_on,0,0,2,,,,,,,,1,,,50,110
147360,note_on,2,0,3,,,,,,,,2,,,69,110
147360,note_on,2,0,9,,,,,,,,8,,,71,92
147360,note_on,2,0,6,,,,,,,,5,,,50,110
147360,note_on,2,0,10,,,,,,,,10,,,69,92
147360,note_on,2,0,12,,,,,,,,12,,,50,92
147360,note_on,2,0,4,,,,,,,,3,,,47,110
147360,note_on,2,0,7,,,,,,,,6,,,69,110
147360,note_on,2,0,11,,,,,,,,11,,,65,92
147406,note_on,46,0,1,,,,,,,,0,,,71,0
147406,note_on,46,0,7,,,,,,,,6,,,69,0
147406,note_on,46,0,3,,,,,,,,2,,,69,0
147406,note_on,46,0,5,,,,,,,,4,,,65,0
147408,note_on,2,0,7,,,,,,,,6,,,65,110
147408,note_on,2,0,1,,,,,,,,0,,,69,110
147408,note_on,2,0,5,,,,,,,,4,,,69,110
147408,note_on,2,0,3,,,,,,,,2,,,71,110
147454,note_on,94,0,6,,,,,,,,5,,,50,0
147454,note_on,46,0,7,,,,,,,,6,,,65,0
147454,note_on,46,0,5,,,,,,,,4,,,69,0
147454,note_on,94,0,10,,,,,,,,10,,,69,0
147454,note_on,94,0,4,,,,,,,,3,,,47,0
147454,note_on,94,0,12,,,,,,,,12,,,50,0
147454,note_on,94,0,2,,,,,,,,1,,,50,0
147454,note_on,94,0,9,,,,,,,,8,,,71,0
147454,note_on,46,0,3,,,,,,,,2,,,71,0
147454,note_on,46,0,1,,,,,,,,0,,,69,0
147454,note_on,0,0,2,,,,,,,,1,,,38,0
147454,note_on,94,0,8,,,,,,,,7,,,53,0
147454,note_on,94,0,11,,,,,,,,11,,,65,0
147456,note_on,2,0,3,,,,,,,,2,,,68,110
147456,note_on,2,0,1,,,,,,,,0,,,71,110
147456,note_on,2,0,7,,,,,,,,6,,,68,110
147456,note_on,2,0,4,,,,,,,,3,,,52,110
147456,note_on,2,0,11,,,,,,,,11,,,64,92
147456,note_on,2,0,6,,,,,,,,5,,,52,110
147456,note_on,0,0,2,,,,,,,,1,,,52,110
147456,note_on,2,0,5,,,,,,,,4,,,71,110
147456,note_on,2,0,10,,,,,,,,10,,,68,92
147456,note_on,2,0,8,,,,,,,,7,,,47,110
147456,note_on,2,0,2,,,,,,,,1,,,40,110
147456,note_on,2,0,9,,,,,,,,8,,,71,92
147456,note_on,2,0,12,,,,,,,,12,,,52,92
147502,note_on,46,0,1,,,,,,,,0,,,71,0
147502,note_on,46,0,3,,,,,,,,2,,,68,0
147502,note_on,46,0,7,,,,,,,,6,,,68,0
147502,note_on,46,0,5,,,,,,,,4,,,71,0
147504,note_on,2,0,3,,,,,,,,2,,,71,110
147504,note_on,2,0,7,,,,,,,,6,,,64,110
147504,note_on,2,0,1,,,,,,,,0,,,68,110
147504,note_on,2,0,5,,,,,,,,4,,,74,110
147550,note_on,94,0,10,,,,,,,,10,,,68,0
147550,note_on,46,0,3,,,,,,,,2,,,71,0
147550,note_on,94,0,4,,,,,,,,3,,,52,0
147550,note_on,94,0,8,,,,,,,,7,,,47,0
147550,note_on,46,0,1,,,,,,,,0,,,68,0
147550,note_on,46,0,7,,,,,,,,6,,,64,0
147550,note_on,0,0,2,,,,,,,,1,,,40,0
147550,note_on,94,0,12,,,,,,,,12,,,52,0
147550,note_on,94,0,6,,,,,,,,5,,,52,0
147550,note_on,46,0,5,,,,,,,,4,,,74,0
147550,note_on,94,0,9,,,,,,,,8,,,71,0
147550,note_on,94,0,11,,,,,,,,11,,,64,0
147550,note_on,94,0,2,,,,,,,,1,,,52,0
147552,note_on,2,0,1,,,,,,,,0,,,64,110
147552,note_on,2,0,11,,,,,,,,11,,,64,92
147552,note_on,2,0,12,,,,,,,,12,,,52,92
147552,note_on,2,0,6,,,,,,,,5,,,59,110
147552,note_on,2,0,10,,,,,,,,10,,,68,92
147552,note_on,2,0,9,,,,,,,,8,,,71,92
147552,note_on,2,0,8,,,,,,,,7,,,52,110
147552,note_on,2,0,4,,,,,,,,3,,,40,110
147552,note_on,2,0,5,,,,,,,,4,,,71,110
147552,note_on,2,0,7,,,,,,,,6,,,68,110
147552,note_on,2,0,2,,,,,,,,1,,,40,110
147552,note_on,0,0,2,,,,,,,,1,,,52,110
147552,note_on,2,0,3,,,,,,,,2,,,68,110
147598,note_on,46,0,5,,,,,,,,4,,,71,0
147598,note_on,46,0,7,,,,,,,,6,,,68,0
147598,note_on,46,0,3,,,,,,,,2,,,68,0
147598,note_on,46,0,1,,,,,,,,0,,,64,0
147600,note_on,2,0,5,,,,,,,,4,,,68,110
147600,note_on,2,0,3,,,,,,,,2,,,64,110
147600,note_on,2,0,7,,,,,,,,6,,,71,110
147600,note_on,2,0,1,,,,,,,,0,,,68,110
147646,note_on,46,0,1,,,,,,,,0,,,68,0
147646,note_on,46,0,7,,,,,,,,6,,,71,0
147646,note_on,94,0,12,,,,,,,,12,,,52,0
147646,note_on,94,0,4,,,,,,,,3,,,40,0
147646,note_on,94,0,2,,,,,,,,1,,,52,0
147646,note_on,0,0,2,,,,,,,,1,,,40,0
147646,note_on,94,0,6,,,,,,,,5,,,59,0
147646,note_on,94,0,10,,,,,,,,10,,,68,0
147646,note_on,94,0,8,,,,,,,,7,,,52,0
147646,note_on,46,0,5,,,,,,,,4,,,68,0
147646,note_on,46,0,3,,,,,,,,2,,,64,0
147646,note_on,94,0,11,,,,,,,,11,,,64,0
147646,note_on,94,0,9,,,,,,,,8,,,71,0
147648,note_on,2,0,10,,,,,,,,10,,,68,92
147648,note_on,2,0,2,,,,,,,,1,,,40,110
147648,note_on,0,0,2,,,,,,,,1,,,52,110
147648,note_on,2,0,7,,,,,,,,6,,,68,110
147648,note_on,2,0,9,,,,,,,,8,,,71,92
147648,note_on,2,0,3,,,,,,,,2,,,68,110
147648,note_on,2,0,1,,,,,,,,0,,,71,110
147648,note_on,2,0,8,,,,,,,,7,,,40,110
147648,note_on,2,0,4,,,,,,,,3,,,52,110
147648,note_on,2,0,11,,,,,,,,11,,,62,92
147648,note_on,2,0,6,,,,,,,,5,,,62,110
147648,note_on,2,0,5,,,,,,,,4,,,64,110
147648,note_on,2,0,12,,,,,,,,12,,,52,92
147694,note_on,46,0,3,,,,,,,,2,,,68,0
147694,note_on,46,0,5,,,,,,,,4,,,64,0
147694,note_on,46,0,1,,,,,,,,0,,,71,0
147694,note_on,46,0,7,,,,,,,,6,,,68,0
147696,note_on,2,0,1,,,,,,,,0,,,68,110
147696,note_on,2,0,7,,,,,,,,6,,,64,110
147696,note_on,2,0,5,,,,,,,,4,,,68,110
147696,note_on,2,0,3,,,,,,,,2,,,71,110
147742,note_on,94,0,11,,,,,,,,11,,,62,0
147742,note_on,46,0,3,,,,,,,,2,,,71,0
147742,note_on,94,0,6,,,,,,,,5,,,62,0
147742,note_on,94,0,10,,,,,,,,10,,,68,0
147742,note_on,94,0,2,,,,,,,,1,,,52,0
147742,note_on,0,0,2,,,,,,,,1,,,40,0
147742,note_on,46,0,7,,,,,,,,6,,,64,0
147742,note_on,46,0,1,,,,,,,,0,,,68,0
147742,note_on,94,0,4,,,,,,,,3,,,52,0
147742,note_on,46,0,5,,,,,,,,4,,,68,0
147742,note_on,94,0,8,,,,,,,,7,,,40,0
147742,note_on,94,0,12,,,,,,,,12,,,52,0
147742,note_on,94,0,9,,,,,,,,8,,,71,0
147744,note_on,0,0,7,,,,,,,,6,,,69,110
147744,note_on,2,0,3,,,,,,,,2,,,69,110
147744,note_on,2,0,9,,,,,,,,8,,,69,92
147744,note_on,2,0,4,,,,,,,,3,,,45,110
147744,note_on,2,0,5,,,,,,,,4,,,69,110
147744,note_on,0,0,6,,,,,,,,5,,,60,110
147744,note_on,0,0,7,,,,,,,,6,,,64,110
147744,note_on,2,0,8,,,,,,,,7,,,45,110
147744,note_on,2,0,6,,,,,,,,5,,,57,110
147744,note_on,2,0,10,,,,,,,,10,,,64,92
147744,note_on,2,0,7,,,,,,,,6,,,60,110
147744,note_on,2,0,2,,,,,,,,1,,,45,110
147744,note_on,2,0,1,,,,,,,,0,,,69,110
147744,note_on,2,0,11,,,,,,,,11,,,60,92
147744,note_on,2,0,12,,,,,,,,12,,,45,92
147790,note_on,46,0,2,,,,,,,,1,,,45,0
147790,note_on,46,0,1,,,,,,,,0,,,69,0
147792,note_on,2,0,2,,,,,,,,1,,,61,110
147792,note_on,2,0,1,,,,,,,,0,,,76,110
147838,note_on,94,0,3,,,,,,,,2,,,69,0
147838,note_on,94,0,11,,,,,,,,11,,,60,0
147838,note_on,94,0,10,,,,,,,,10,,,64,0
147838,note_on,46,0,1,,,,,,,,0,,,76,0
147838,note_on,94,0,4,,,,,,,,3,,,45,0
147838,note_on,46,0,2,,,,,,,,1,,,61,0
147838,note_on,94,0,9,,,,,,,,8,,,69,0
147838,note_on,94,0,12,,,,,,,,12,,,45,0
147840,note_on,2,0,1,,,,,,,,0,,,74,110
147840,note_on,2,0,2,,,,,,,,1,,,59,110
147886,note_on,46,0,1,,,,,,,,0,,,74,0
147886,note_on,46,0,2,,,,,,,,1,,,59,0
147888,note_on,2,0,1,,,,,,,,0,,,76,110
147888,note_on,2,0,2,,,,,,,,1,,,61,110
147904,note_on,160,0,8,,,,,,,,7,,,45,0
147904,note_on,0,0,7,,,,,,,,6,,,64,0
147904,note_on,160,0,5,,,,,,,,4,,,69,0
147904,note_on,0,0,6,,,,,,,,5,,,57,0
147904,note_on,160,0,6,,,,,,,,5,,,60,0
147904,note_on,160,0,7,,,,,,,,6,,,69,0
147904,note_on,0,0,7,,,,,,,,6,,,60,0
147934,note_on,46,0,2,,,,,,,,1,,,61,0
147934,note_on,46,0,1,,,,,,,,0,,,76,0
147936,note_on,98,0,4,,,,,,,,3,,,45,110
147936,note_on,2,0,2,,,,,,,,1,,,57,110
147936,note_on,98,0,3,,,,,,,,2,,,57,110
147936,note_on,0,0,3,,,,,,,,2,,,61,110
147936,note_on,0,0,3,,,,,,,,2,,,64,110
147936,note_on,2,0,1,,,,,,,,0,,,73,110
147982,note_on,46,0,1,,,,,,,,0,,,73,0
147982,note_on,46,0,2,,,,,,,,1,,,57,0
147984,note_on,2,0,1,,,,,,,,0,,,76,110
147984,note_on,2,0,2,,,,,,,,1,,,61,110
148030,note_on,0,0,3,,,,,,,,2,,,57,0
148030,note_on,94,0,4,,,,,,,,3,,,45,0
148030,note_on,46,0,1,,,,,,,,0,,,76,0
148030,note_on,0,0,3,,,,,,,,2,,,61,0
148030,note_on,94,0,3,,,,,,,,2,,,64,0
148030,note_on,46,0,2,,,,,,,,1,,,61,0
148032,note_on,2,0,4,,,,,,,,3,,,57,110
148032,note_on,2,0,1,,,,,,,,0,,,69,110
148032,note_on,0,0,3,,,,,,,,2,,,69,110
148032,note_on,0,0,3,,,,,,,,2,,,64,110
148032,note_on,2,0,3,,,,,,,,2,,,61,110
148032,note_on,2,0,2,,,,,,,,1,,,45,110
148078,note_on,46,0,2,,,,,,,,1,,,45,0
148078,note_on,46,0,1,,,,,,,,0,,,69,0
148080,note_on,2,0,2,,,,,,,,1,,,61,110
148080,note_on,2,0,1,,,,,,,,0,,,76,110
148126,note_on,0,0,3,,,,,,,,2,,,61,0
148126,note_on,46,0,2,,,,,,,,1,,,61,0
148126,note_on,0,0,3,,,,,,,,2,,,64,0
148126,note_on,94,0,3,,,,,,,,2,,,69,0
148126,note_on,94,0,4,,,,,,,,3,,,57,0
148126,note_on,46,0,1,,,,,,,,0,,,76,0
148128,note_on,2,0,2,,,,,,,,1,,,59,110
148128,note_on,2,0,1,,,,,,,,0,,,74,110
148174,note_on,46,0,1,,,,,,,,0,,,74,0
148174,note_on,46,0,2,,,,,,,,1,,,59,0
148176,note_on,2,0,1,,,,,,,,0,,,76,110
148176,note_on,2,0,2,,,,,,,,1,,,61,110
148222,note_on,46,0,2,,,,,,,,1,,,61,0
148222,note_on,46,0,1,,,,,,,,0,,,76,0
148224,note_on,2,0,2,,,,,,,,1,,,57,110
148224,note_on,0,0,3,,,,,,,,2,,,64,110
148224,note_on,98,0,3,,,,,,,,2,,,61,110
148224,note_on,0,0,3,,,,,,,,2,,,69,110
148224,note_on,98,0,4,,,,,,,,3,,,45,110
148224,note_on,2,0,1,,,,,,,,0,,,73,110
148270,note_on,46,0,1,,,,,,,,0,,,73,0
148270,note_on,46,0,2,,,,,,,,1,,,57,0
148272,note_on,2,0,1,,,,,,,,0,,,76,110
148272,note_on,2,0,2,,,,,,,,1,,,61,110
148318,note_on,46,0,1,,,,,,,,0,,,76,0
148318,note_on,94,0,3,,,,,,,,2,,,69,0
148318,note_on,0,0,3,,,,,,,,2,,,64,0
148318,note_on,0,0,3,,,,,,,,2,,,61,0
148318,note_on,94,0,4,,,,,,,,3,,,45,0
148318,note_on,46,0,2,,,,,,,,1,,,61,0
148320,note_on,2,0,3,,,,,,,,2,,,64,110
148320,note_on,0,0,3,,,,,,,,2,,,73,110
148320,note_on,2,0,2,,,,,,,,1,,,45,110
148320,note_on,2,0,4,,,,,,,,3,,,57,110
148320,note_on,2,0,1,,,,,,,,0,,,69,110
148320,note_on,0,0,3,,,,,,,,2,,,69,110
148366,note_on,46,0,2,,,,,,,,1,,,45,0
148366,note_on,46,0,1,,,,,,,,0,,,69,0
148368,note_on,2,0,2,,,,,,,,1,,,61,110
148368,note_on,2,0,1,,,,,,,,0,,,76,110
148414,note_on,46,0,2,,,,,,,,1,,,61,0
148414,note_on,46,0,1,,,,,,,,0,,,76,0
148414,note_on,0,0,3,,,,,,,,2,,,69,0
148414,note_on,0,0,3,,,,,,,,2,,,64,0
148414,note_on,94,0,4,,,,,,,,3,,,57,0
148414,note_on,94,0,3,,,,,,,,2,,,73,0
148416,note_on,2,0,2,,,,,,,,1,,,59,110
148416,note_on,2,0,1,,,,,,,,0,,,74,110
148462,note_on,46,0,1,,,,,,,,0,,,74,0
148462,note_on,46,0,2,,,,,,,,1,,,59,0
148464,note_on,2,0,2,,,,,,,,1,,,61,110
148464,note_on,2,0,1,,,,,,,,0,,,76,110
148510,note_on,46,0,1,,,,,,,,0,,,76,0
148510,note_on,46,0,2,,,,,,,,1,,,61,0
148512,note_on,2,0,2,,,,,,,,1,,,57,110
148512,note_on,98,0,3,,,,,,,,2,,,64,110
148512,note_on,0,0,3,,,,,,,,2,,,73,110
148512,note_on,98,0,4,,,,,,,,3,,,45,110
148512,note_on,0,0,3,,,,,,,,2,,,69,110
148512,note_on,2,0,1,,,,,,,,0,,,73,110
148558,note_on,46,0,1,,,,,,,,0,,,73,0
148558,note_on,46,0,2,,,,,,,,1,,,57,0
148560,note_on,2,0,1,,,,,,,,0,,,76,110
148560,note_on,2,0,2,,,,,,,,1,,,61,110
148606,note_on,0,0,3,,,,,,,,2,,,64,0
148606,note_on,0,0,3,,,,,,,,2,,,69,0
148606,note_on,46,0,2,,,,,,,,1,,,61,0
148606,note_on,94,0,3,,,,,,,,2,,,73,0
148606,note_on,94,0,4,,,,,,,,3,,,45,0
148606,note_on,46,0,1,,,,,,,,0,,,76,0
148608,note_on,2,0,4,,,,,,,,3,,,57,110
148608,note_on,2,0,3,,,,,,,,2,,,69,110
148608,note_on,0,0,3,,,,,,,,2,,,73,110
148608,note_on,2,0,2,,,,,,,,1,,,45,110
148608,note_on,0,0,3,,,,,,,,2,,,76,110
148608,note_on,2,0,1,,,,,,,,0,,,67,110
148654,note_on,46,0,2,,,,,,,,1,,,45,0
148654,note_on,46,0,1,,,,,,,,0,,,67,0
148656,note_on,2,0,1,,,,,,,,0,,,76,110
148656,note_on,2,0,2,,,,,,,,1,,,61,110
148702,note_on,46,0,1,,,,,,,,0,,,76,0
148702,note_on,94,0,4,,,,,,,,3,,,57,0
148702,note_on,46,0,2,,,,,,,,1,,,61,0
148702,note_on,0,0,3,,,,,,,,2,,,73,0
148702,note_on,0,0,3,,,,,,,,2,,,69,0
148702,note_on,94,0,3,,,,,,,,2,,,76,0
148704,note_on,2,0,1,,,,,,,,0,,,74,110
148704,note_on,2,0,2,,,,,,,,1,,,59,110
148750,note_on,46,0,2,,,,,,,,1,,,59,0
148750,note_on,46,0,1,,,,,,,,0,,,74,0
148752,note_on,2,0,2,,,,,,,,1,,,61,110
148752,note_on,2,0,1,,,,,,,,0,,,76,110
148798,note_on,46,0,2,,,,,,,,1,,,61,0
148798,note_on,46,0,1,,,,,,,,0,,,76,0
148800,note_on,98,0,4,,,,,,,,3,,,45,110
148800,note_on,2,0,2,,,,,,,,1,,,57,110
148800,note_on,98,0,3,,,,,,,,2,,,69,110
148800,note_on,0,0,3,,,,,,,,2,,,73,110
148800,note_on,2,0,1,,,,,,,,0,,,73,110
148800,note_on,0,0,3,,,,,,,,2,,,76,110
148846,note_on,46,0,1,,,,,,,,0,,,73,0
148846,note_on,46,0,2,,,,,,,,1,,,57,0
148848,note_on,2,0,1,,,,,,,,0,,,76,110
148848,note_on,2,0,2,,,,,,,,1,,,61,110
148894,note_on,46,0,2,,,,,,,,1,,,61,0
148894,note_on,0,0,3,,,,,,,,2,,,69,0
148894,note_on,46,0,1,,,,,,,,0,,,76,0
148894,note_on,94,0,4,,,,,,,,3,,,45,0
148894,note_on,0,0,3,,,,,,,,2,,,73,0
148894,note_on,94,0,3,,,,,,,,2,,,76,0
148896,note_on,0,0,3,,,,,,,,2,,,79,110
148896,note_on,0,0,3,,,,,,,,2,,,76,110
148896,note_on,0,0,3,,,,,,,,2,,,73,110
148896,note_on,2,0,3,,,,,,,,2,,,69,110
148896,note_on,2,0,2,,,,,,,,1,,,45,110
148896,note_on,2,0,1,,,,,,,,0,,,67,110
148896,note_on,2,0,4,,,,,,,,3,,,57,110
148942,note_on,46,0,2,,,,,,,,1,,,45,0
148942,note_on,46,0,1,,,,,,,,0,,,67,0
148944,note_on,2,0,2,,,,,,,,1,,,61,110
148944,note_on,2,0,1,,,,,,,,0,,,76,110
148990,note_on,0,0,3,,,,,,,,2,,,76,0
148990,note_on,0,0,3,,,,,,,,2,,,73,0
148990,note_on,0,0,3,,,,,,,,2,,,69,0
148990,note_on,46,0,1,,,,,,,,0,,,76,0
148990,note_on,94,0,4,,,,,,,,3,,,57,0
148990,note_on,46,0,2,,,,,,,,1,,,61,0
148990,note_on,94,0,3,,,,,,,,2,,,79,0
148992,note_on,1154,0,9,,,,,,,,8,,,79,45
148992,note_on,1154,0,12,,,,,,,,12,,,45,45
148992,note_on,2,0,1,,,,,,,,0,,,74,110
148992,note_on,1154,0,10,,,,,,,,10,,,73,45
148992,note_on,1154,0,11,,,,,,,,11,,,64,45
148992,note_on,2,0,2,,,,,,,,1,,,59,110
149038,note_on,46,0,2,,,,,,,,1,,,59,0
149038,note_on,46,0,1,,,,,,,,0,,,74,0
149040,note_on,2,0,2,,,,,,,,1,,,61,110
149040,note_on,2,0,1,,,,,,,,0,,,76,110
149086,note_on,46,0,1,,,,,,,,0,,,76,0
149086,note_on,94,0,12,,,,,,,,12,,,45,0
149086,note_on,94,0,11,,,,,,,,11,,,64,0
149086,note_on,94,0,10,,,,,,,,10,,,73,0
149086,note_on,94,0,9,,,,,,,,8,,,79,0
149086,note_on,46,0,2,,,,,,,,1,,,61,0
149088,note_on,98,0,3,,,,,,,,2,,,69,110
149088,note_on,0,0,3,,,,,,,,2,,,76,110
149088,note_on,0,0,3,,,,,,,,2,,,73,110
149088,note_on,0,0,3,,,,,,,,2,,,79,110
149088,note_on,98,0,4,,,,,,,,3,,,45,110
149088,note_on,2,0,11,,,,,,,,11,,,64,45
149088,note_on,2,0,2,,,,,,,,1,,,57,110
149088,note_on,2,0,10,,,,,,,,10,,,73,45
149088,note_on,2,0,1,,,,,,,,0,,,73,110
149088,note_on,2,0,9,,,,,,,,8,,,79,45
149088,note_on,2,0,12,,,,,,,,12,,,45,45
149134,note_on,46,0,2,,,,,,,,1,,,57,0
149134,note_on,46,0,1,,,,,,,,0,,,73,0
149136,note_on,2,0,2,,,,,,,,1,,,61,110
149136,note_on,2,0,1,,,,,,,,0,,,76,110
149182,note_on,94,0,4,,,,,,,,3,,,45,0
149182,note_on,94,0,11,,,,,,,,11,,,64,0
149182,note_on,94,0,10,,,,,,,,10,,,73,0
149182,note_on,46,0,2,,,,,,,,1,,,61,0
149182,note_on,46,0,1,,,,,,,,0,,,76,0
149182,note_on,94,0,12,,,,,,,,12,,,45,0
149182,note_on,94,0,9,,,,,,,,8,,,79,0
149182,note_on,0,0,3,,,,,,,,2,,,73,0
149182,note_on,94,0,3,,,,,,,,2,,,79,0
149182,note_on,0,0,3,,,,,,,,2,,,69,0
149182,note_on,0,0,3,,,,,,,,2,,,76,0
149184,note_on,2,0,1,,,,,,,,0,,,78,110
149184,note_on,2,0,11,,,,,,,,11,,,62,45
149184,note_on,2,0,4,,,,,,,,3,,,50,110
149184,note_on,2,0,12,,,,,,,,12,,,50,45
149184,note_on,2,0,10,,,,,,,,10,,,69,45
149184,note_on,2,0,2,,,,,,,,1,,,50,110
149184,note_on,2,0,3,,,,,,,,2,,,69,110
149184,note_on,0,0,3,,,,,,,,2,,,74,110
149184,note_on,2,0,9,,,,,,,,8,,,78,45
149184,note_on,0,0,3,,,,,,,,2,,,78,110
149230,note_on,0,0,3,,,,,,,,2,,,69,0
149230,note_on,46,0,4,,,,,,,,3,,,50,0
149230,note_on,0,0,3,,,,,,,,2,,,74,0
149230,note_on,46,0,3,,,,,,,,2,,,78,0
149232,note_on,2,0,3,,,,,,,,2,,,69,110
149232,note_on,2,0,4,,,,,,,,3,,,54,110
149278,note_on,94,0,9,,,,,,,,8,,,78,0
149278,note_on,94,0,1,,,,,,,,0,,,78,0
149278,note_on,46,0,3,,,,,,,,2,,,69,0
149278,note_on,94,0,2,,,,,,,,1,,,50,0
149278,note_on,94,0,10,,,,,,,,10,,,69,0
149278,note_on,94,0,12,,,,,,,,12,,,50,0
149278,note_on,94,0,11,,,,,,,,11,,,62,0
149278,note_on,46,0,4,,,,,,,,3,,,54,0
149280,note_on,2,0,3,,,,,,,,2,,,67,110
149280,note_on,2,0,4,,,,,,,,3,,,52,110
149326,note_on,46,0,3,,,,,,,,2,,,67,0
149326,note_on,46,0,4,,,,,,,,3,,,52,0
149328,note_on,2,0,3,,,,,,,,2,,,69,110
149328,note_on,2,0,4,,,,,,,,3,,,54,110
149374,note_on,46,0,4,,,,,,,,3,,,54,0
149374,note_on,46,0,3,,,,,,,,2,,,69,0
149376,note_on,1472,0,5,,,,,,,,4,,,62,110
149376,note_on,1472,0,6,,,,,,,,5,,,38,110
149376,note_on,0,0,5,,,,,,,,4,,,69,110
149376,note_on,0,0,5,,,,,,,,4,,,66,110
149376,note_on,2,0,3,,,,,,,,2,,,66,110
149376,note_on,2,0,4,,,,,,,,3,,,50,110
149422,note_on,46,0,4,,,,,,,,3,,,50,0
149422,note_on,46,0,3,,,,,,,,2,,,66,0
149424,note_on,2,0,4,,,,,,,,3,,,54,110
149424,note_on,2,0,3,,,,,,,,2,,,69,110
149470,note_on,0,0,5,,,,,,,,4,,,62,0
149470,note_on,0,0,5,,,,,,,,4,,,66,0
149470,note_on,94,0,5,,,,,,,,4,,,69,0
149470,note_on,46,0,3,,,,,,,,2,,,69,0
149470,note_on,94,0,6,,,,,,,,5,,,38,0
149470,note_on,46,0,4,,,,,,,,3,,,54,0
149472,note_on,0,0,5,,,,,,,,4,,,74,110
149472,note_on,0,0,5,,,,,,,,4,,,69,110
149472,note_on,2,0,5,,,,,,,,4,,,66,110
149472,note_on,2,0,4,,,,,,,,3,,,38,110
149472,note_on,2,0,6,,,,,,,,5,,,50,110
149472,note_on,2,0,3,,,,,,,,2,,,62,110
149518,note_on,46,0,3,,,,,,,,2,,,62,0
149518,note_on,46,0,4,,,,,,,,3,,,38,0
149520,note_on,2,0,4,,,,,,,,3,,,54,110
149520,note_on,2,0,3,,,,,,,,2,,,69,110
149566,note_on,0,0,5,,,,,,,,4,,,69,0
149566,note_on,0,0,5,,,,,,,,4,,,66,0
149566,note_on,94,0,6,,,,,,,,5,,,50,0
149566,note_on,94,0,5,,,,,,,,4,,,74,0
149566,note_on,46,0,4,,,,,,,,3,,,54,0
149566,note_on,46,0,3,,,,,,,,2,,,69,0
149568,note_on,2,0,3,,,,,,,,2,,,67,110
149568,note_on,2,0,4,,,,,,,,3,,,52,110
149614,note_on,46,0,4,,,,,,,,3,,,52,0
149614,note_on,46,0,3,,,,,,,,2,,,67,0
149616,note_on,2,0,4,,,,,,,,3,,,54,110
149616,note_on,2,0,3,,,,,,,,2,,,69,110
149662,note_on,46,0,3,,,,,,,,2,,,69,0
149662,note_on,46,0,4,,,,,,,,3,,,54,0
149664,note_on,98,0,5,,,,,,,,4,,,66,110
149664,note_on,2,0,3,,,,,,,,2,,,66,110
149664,note_on,98,0,6,,,,,,,,5,,,38,110
149664,note_on,0,0,5,,,,,,,,4,,,69,110
149664,note_on,0,0,5,,,,,,,,4,,,74,110
149664,note_on,2,0,4,,,,,,,,3,,,50,110
149710,note_on,46,0,3,,,,,,,,2,,,66,0
149710,note_on,46,0,4,,,,,,,,3,,,50,0
149712,note_on,2,0,3,,,,,,,,2,,,69,110
149712,note_on,2,0,4,,,,,,,,3,,,54,110
149758,note_on,46,0,4,,,,,,,,3,,,54,0
149758,note_on,0,0,5,,,,,,,,4,,,66,0
149758,note_on,0,0,5,,,,,,,,4,,,69,0
149758,note_on,94,0,6,,,,,,,,5,,,38,0
149758,note_on,94,0,5,,,,,,,,4,,,74,0
149758,note_on,46,0,3,,,,,,,,2,,,69,0
149760,note_on,2,0,3,,,,,,,,2,,,62,110
149760,note_on,0,0,5,,,,,,,,4,,,74,110
149760,note_on,2,0,6,,,,,,,,5,,,50,110
149760,note_on,0,0,5,,,,,,,,4,,,78,110
149760,note_on,2,0,4,,,,,,,,3,,,38,110
149760,note_on,2,0,5,,,,,,,,4,,,69,110
149806,note_on,46,0,3,,,,,,,,2,,,62,0
149806,note_on,46,0,4,,,,,,,,3,,,38,0
149808,note_on,2,0,3,,,,,,,,2,,,69,110
149808,note_on,2,0,4,,,,,,,,3,,,54,110
149854,note_on,46,0,3,,,,,,,,2,,,69,0
149854,note_on,94,0,6,,,,,,,,5,,,50,0
149854,note_on,46,0,4,,,,,,,,3,,,54,0
149854,note_on,0,0,5,,,,,,,,4,,,69,0
149854,note_on,0,0,5,,,,,,,,4,,,74,0
149854,note_on,94,0,5,,,,,,,,4,,,78,0
149856,note_on,2,0,4,,,,,,,,3,,,52,110
149856,note_on,2,0,3,,,,,,,,2,,,67,110
149902,note_on,46,0,4,,,,,,,,3,,,52,0
149902,note_on,46,0,3,,,,,,,,2,,,67,0
149904,note_on,2,0,4,,,,,,,,3,,,54,110
149904,note_on,2,0,3,,,,,,,,2,,,69,110
149950,note_on,46,0,4,,,,,,,,3,,,54,0
149950,note_on,46,0,3,,,,,,,,2,,,69,0
149952,note_on,2,0,4,,,,,,,,3,,,50,110
149952,note_on,2,0,3,,,,,,,,2,,,66,110
149952,note_on,98,0,6,,,,,,,,5,,,38,110
149952,note_on,98,0,5,,,,,,,,4,,,69,110
149952,note_on,0,0,5,,,,,,,,4,,,78,110
149952,note_on,0,0,5,,,,,,,,4,,,74,110
149998,note_on,46,0,3,,,,,,,,2,,,66,0
149998,note_on,46,0,4,,,,,,,,3,,,50,0
150000,note_on,2,0,3,,,,,,,,2,,,69,110
150000,note_on,2,0,4,,,,,,,,3,,,54,110
150046,note_on,46,0,4,,,,,,,,3,,,54,0
150046,note_on,94,0,6,,,,,,,,5,,,38,0
150046,note_on,0,0,5,,,,,,,,4,,,69,0
150046,note_on,46,0,3,,,,,,,,2,,,69,0
150046,note_on,0,0,5,,,,,,,,4,,,74,0
150046,note_on,94,0,5,,,,,,,,4,,,78,0
150048,note_on,0,0,5,,,,,,,,4,,,81,110
150048,note_on,2,0,5,,,,,,,,4,,,74,110
150048,note_on,0,0,5,,,,,,,,4,,,78,110
150048,note_on,2,0,4,,,,,,,,3,,,38,110
150048,note_on,2,0,3,,,,,,,,2,,,60,110
150048,note_on,2,0,6,,,,,,,,5,,,50,110
150094,note_on,46,0,3,,,,,,,,2,,,60,0
150094,note_on,46,0,4,,,,,,,,3,,,38,0
150096,note_on,2,0,4,,,,,,,,3,,,54,110
150096,note_on,2,0,3,,,,,,,,2,,,69,110
150142,note_on,94,0,5,,,,,,,,4,,,81,0
150142,note_on,0,0,5,,,,,,,,4,,,78,0
150142,note_on,94,0,6,,,,,,,,5,,,50,0
150142,note_on,46,0,3,,,,,,,,2,,,69,0
150142,note_on,46,0,4,,,,,,,,3,,,54,0
150142,note_on,0,0,5,,,,,,,,4,,,74,0
150144,note_on,2,0,4,,,,,,,,3,,,52,110
150144,note_on,2,0,3,,,,,,,,2,,,67,110
150190,note_on,46,0,4,,,,,,,,3,,,52,0
150190,note_on,46,0,3,,,,,,,,2,,,67,0
150192,note_on,2,0,4,,,,,,,,3,,,54,110
150192,note_on,2,0,3,,,,,,,,2,,,69,110
150238,note_on,46,0,4,,,,,,,,3,,,54,0
150238,note_on,46,0,3,,,,,,,,2,,,69,0
150240,note_on,98,0,6,,,,,,,,5,,,38,110
150240,note_on,2,0,3,,,,,,,,2,,,66,110
150240,note_on,0,0,5,,,,,,,,4,,,78,110
150240,note_on,0,0,5,,,,,,,,4,,,81,110
150240,note_on,98,0,5,,,,,,,,4,,,74,110
150240,note_on,2,0,4,,,,,,,,3,,,50,110
150286,note_on,46,0,3,,,,,,,,2,,,66,0
150286,note_on,46,0,4,,,,,,,,3,,,50,0
150288,note_on,2,0,3,,,,,,,,2,,,69,110
150288,note_on,2,0,4,,,,,,,,3,,,54,110
150334,note_on,46,0,4,,,,,,,,3,,,54,0
150334,note_on,94,0,5,,,,,,,,4,,,81,0
150334,note_on,46,0,3,,,,,,,,2,,,69,0
150334,note_on,94,0,6,,,,,,,,5,,,38,0
150334,note_on,0,0,5,,,,,,,,4,,,74,0
150334,note_on,0,0,5,,,,,,,,4,,,78,0
150336,note_on,2,0,6,,,,,,,,5,,,50,110
150336,note_on,2,0,4,,,,,,,,3,,,38,110
150336,note_on,2,0,3,,,,,,,,2,,,60,110
150336,note_on,0,0,5,,,,,,,,4,,,84,110
150336,note_on,2,0,5,,,,,,,,4,,,74,110
150336,note_on,0,0,5,,,,,,,,4,,,78,110
150336,note_on,0,0,5,,,,,,,,4,,,81,110
150382,note_on,46,0,3,,,,,,,,2,,,60,0
150382,note_on,46,0,4,,,,,,,,3,,,38,0
150384,note_on,2,0,3,,,,,,,,2,,,69,110
150384,note_on,2,0,4,,,,,,,,3,,,54,110
150430,note_on,0,0,5,,,,,,,,4,,,81,0
150430,note_on,0,0,5,,,,,,,,4,,,78,0
150430,note_on,46,0,4,,,,,,,,3,,,54,0
150430,note_on,94,0,5,,,,,,,,4,,,84,0
150430,note_on,46,0,3,,,,,,,,2,,,69,0
150430,note_on,0,0,5,,,,,,,,4,,,74,0
150430,note_on,94,0,6,,,,,,,,5,,,50,0
150432,note_on,2,0,4,,,,,,,,3,,,52,110
150432,note_on,1154,0,11,,,,,,,,11,,,62,45
150432,note_on,1154,0,10,,,,,,,,10,,,72,45
150432,note_on,1154,0,9,,,,,,,,8,,,78,45
150432,note_on,2,0,3,,,,,,,,2,,,67,110
150432,note_on,1154,0,12,,,,,,,,12,,,50,45
150478,note_on,46,0,3,,,,,,,,2,,,67,0
150478,note_on,46,0,4,,,,,,,,3,,,52,0
150480,note_on,2,0,3,,,,,,,,2,,,69,110
150480,note_on,2,0,4,,,,,,,,3,,,54,110
150526,note_on,46,0,4,,,,,,,,3,,,54,0
150526,note_on,46,0,3,,,,,,,,2,,,69,0
150526,note_on,94,0,9,,,,,,,,8,,,78,0
150526,note_on,94,0,11,,,,,,,,11,,,62,0
150526,note_on,94,0,12,,,,,,,,12,,,50,0
150526,note_on,94,0,10,,,,,,,,10,,,72,0
150528,note_on,98,0,5,,,,,,,,4,,,74,110
150528,note_on,2,0,4,,,,,,,,3,,,50,110
150528,note_on,0,0,5,,,,,,,,4,,,78,110
150528,note_on,2,0,11,,,,,,,,11,,,62,45
150528,note_on,0,0,5,,,,,,,,4,,,81,110
150528,note_on,2,0,9,,,,,,,,8,,,78,45
150528,note_on,0,0,5,,,,,,,,4,,,84,110
150528,note_on,2,0,3,,,,,,,,2,,,66,110
150528,note_on,2,0,12,,,,,,,,12,,,50,45
150528,note_on,98,0,6,,,,,,,,5,,,38,110
150528,note_on,2,0,10,,,,,,,,10,,,72,45
150574,note_on,46,0,3,,,,,,,,2,,,66,0
150574,note_on,46,0,4,,,,,,,,3,,,50,0
150576,note_on,2,0,3,,,,,,,,2,,,69,110
150576,note_on,2,0,4,,,,,,,,3,,,54,110
150622,note_on,94,0,6,,,,,,,,5,,,38,0
150622,note_on,46,0,3,,,,,,,,2,,,69,0
150622,note_on,94,0,11,,,,,,,,11,,,62,0
150622,note_on,94,0,10,,,,,,,,10,,,72,0
150622,note_on,94,0,12,,,,,,,,12,,,50,0
150622,note_on,46,0,4,,,,,,,,3,,,54,0
150622,note_on,94,0,5,,,,,,,,4,,,84,0
150622,note_on,0,0,5,,,,,,,,4,,,74,0
150622,note_on,0,0,5,,,,,,,,4,,,78,0
150622,note_on,0,0,5,,,,,,,,4,,,81,0
150622,note_on,94,0,9,,,,,,,,8,,,78,0
150624,note_on,2,0,10,,,,,,,,10,,,71,45
150624,note_on,2,0,5,,,,,,,,4,,,74,110
150624,note_on,0,0,5,,,,,,,,4,,,79,110
150624,note_on,0,0,5,,,,,,,,4,,,83,110
150624,note_on,2,0,3,,,,,,,,2,,,71,110
150624,note_on,2,0,4,,,,,,,,3,,,43,110
150624,note_on,2,0,12,,,,,,,,12,,,43,45
150624,note_on,2,0,11,,,,,,,,11,,,62,45
150624,note_on,2,0,9,,,,,,,,8,,,79,45
150624,note_on,2,0,6,,,,,,,,5,,,43,110
150670,note_on,46,0,6,,,,,,,,5,,,43,0
150670,note_on,0,0,5,,,,,,,,4,,,79,0
150670,note_on,0,0,5,,,,,,,,4,,,74,0
150670,note_on,46,0,5,,,,,,,,4,,,83,0
150672,note_on,2,0,5,,,,,,,,4,,,74,110
150672,note_on,2,0,6,,,,,,,,5,,,59,110
150718,note_on,46,0,6,,,,,,,,5,,,59,0
150718,note_on,46,0,5,,,,,,,,4,,,74,0
150718,note_on,94,0,9,,,,,,,,8,,,79,0
150718,note_on,94,0,10,,,,,,,,10,,,71,0
150718,note_on,94,0,4,,,,,,,,3,,,43,0
150718,note_on,94,0,12,,,,,,,,12,,,43,0
150718,note_on,94,0,3,,,,,,,,2,,,71,0
150718,note_on,94,0,11,,,,,,,,11,,,62,0
150720,note_on,2,0,5,,,,,,,,4,,,72,110
150720,note_on,2,0,6,,,,,,,,5,,,57,110
150766,note_on,46,0,6,,,,,,,,5,,,57,0
150766,note_on,46,0,5,,,,,,,,4,,,72,0
150768,note_on,2,0,6,,,,,,,,5,,,59,110
150768,note_on,2,0,5,,,,,,,,4,,,74,110
150814,note_on,46,0,6,,,,,,,,5,,,59,0
150814,note_on,46,0,5,,,,,,,,4,,,74,0
150816,note_on,2,0,6,,,,,,,,5,,,55,110
150816,note_on,2,0,5,,,,,,,,4,,,71,110
150816,note_on,2912,0,8,,,,,,,,7,,,43,110
150816,note_on,0,0,7,,,,,,,,6,,,62,110
150816,note_on,0,0,7,,,,,,,,6,,,59,110
150816,note_on,2912,0,7,,,,,,,,6,,,55,110
150862,note_on,46,0,5,,,,,,,,4,,,71,0
150862,note_on,46,0,6,,,,,,,,5,,,55,0
150864,note_on,2,0,5,,,,,,,,4,,,74,110
150864,note_on,2,0,6,,,,,,,,5,,,59,110
150910,note_on,0,0,7,,,,,,,,6,,,59,0
150910,note_on,0,0,7,,,,,,,,6,,,55,0
150910,note_on,94,0,8,,,,,,,,7,,,43,0
150910,note_on,46,0,5,,,,,,,,4,,,74,0
150910,note_on,46,0,6,,,,,,,,5,,,59,0
150910,note_on,94,0,7,,,,,,,,6,,,62,0
150912,note_on,2,0,5,,,,,,,,4,,,67,110
150912,note_on,0,0,7,,,,,,,,6,,,67,110
150912,note_on,2,0,8,,,,,,,,7,,,55,110
150912,note_on,0,0,7,,,,,,,,6,,,62,110
150912,note_on,2,0,7,,,,,,,,6,,,59,110
150912,note_on,2,0,6,,,,,,,,5,,,43,110
150958,note_on,46,0,5,,,,,,,,4,,,67,0
150958,note_on,46,0,6,,,,,,,,5,,,43,0
150960,note_on,2,0,5,,,,,,,,4,,,74,110
150960,note_on,2,0,6,,,,,,,,5,,,59,110
151006,note_on,46,0,5,,,,,,,,4,,,74,0
151006,note_on,0,0,7,,,,,,,,6,,,59,0
151006,note_on,94,0,8,,,,,,,,7,,,55,0
151006,note_on,94,0,7,,,,,,,,6,,,67,0
151006,note_on,46,0,6,,,,,,,,5,,,59,0
151006,note_on,0,0,7,,,,,,,,6,,,62,0
151008,note_on,2,0,6,,,,,,,,5,,,57,110
151008,note_on,2,0,5,,,,,,,,4,,,72,110
151054,note_on,46,0,6,,,,,,,,5,,,57,0
151054,note_on,46,0,5,,,,,,,,4,,,72,0
151056,note_on,2,0,5,,,,,,,,4,,,74,110
151056,note_on,2,0,6,,,,,,,,5,,,59,110
151102,note_on,46,0,5,,,,,,,,4,,,74,0
151102,note_on,46,0,6,,,,,,,,5,,,59,0
151104,note_on,2,0,6,,,,,,,,5,,,55,110
151104,note_on,2,0,5,,,,,,,,4,,,71,110
151104,note_on,98,0,8,,,,,,,,7,,,43,110
151104,note_on,0,0,7,,,,,,,,6,,,67,110
151104,note_on,0,0,7,,,,,,,,6,,,62,110
151104,note_on,98,0,7,,,,,,,,6,,,59,110
151150,note_on,46,0,5,,,,,,,,4,,,71,0
151150,note_on,46,0,6,,,,,,,,5,,,55,0
151152,note_on,2,0,6,,,,,,,,5,,,59,110
151152,note_on,2,0,5,,,,,,,,4,,,74,110
151198,note_on,94,0,8,,,,,,,,7,,,43,0
151198,note_on,0,0,7,,,,,,,,6,,,59,0
151198,note_on,0,0,7,,,,,,,,6,,,62,0
151198,note_on,46,0,6,,,,,,,,5,,,59,0
151198,note_on,94,0,7,,,,,,,,6,,,67,0
151198,note_on,46,0,5,,,,,,,,4,,,74,0
151200,note_on,0,0,7,,,,,,,,6,,,67,110
151200,note_on,2,0,8,,,,,,,,7,,,55,110
151200,note_on,0,0,7,,,,,,,,6,,,71,110
151200,note_on,2,0,7,,,,,,,,6,,,62,110
151200,note_on,2,0,5,,,,,,,,4,,,67,110
151200,note_on,2,0,6,,,,,,,,5,,,43,110
151246,note_on,46,0,6,,,,,,,,5,,,43,0
151246,note_on,46,0,5,,,,,,,,4,,,67,0
151248,note_on,2,0,6,,,,,,,,5,,,59,110
151248,note_on,2,0,5,,,,,,,,4,,,74,110
151294,note_on,94,0,8,,,,,,,,7,,,55,0
151294,note_on,46,0,6,,,,,,,,5,,,59,0
151294,note_on,0,0,7,,,,,,,,6,,,62,0
151294,note_on,94,0,7,,,,,,,,6,,,71,0
151294,note_on,0,0,7,,,,,,,,6,,,67,0
151294,note_on,46,0,5,,,,,,,,4,,,74,0
151296,note_on,2,0,6,,,,,,,,5,,,57,110
151296,note_on,2,0,5,,,,,,,,4,,,72,110
151342,note_on,46,0,5,,,,,,,,4,,,72,0
151342,note_on,46,0,6,,,,,,,,5,,,57,0
151344,note_on,2,0,6,,,,,,,,5,,,59,110
151344,note_on,2,0,5,,,,,,,,4,,,74,110
151390,note_on,46,0,6,,,,,,,,5,,,59,0
151390,note_on,46,0,5,,,,,,,,4,,,74,0
151392,note_on,0,0,7,,,,,,,,6,,,67,110
151392,note_on,2,0,6,,,,,,,,5,,,55,110
151392,note_on,0,0,7,,,,,,,,6,,,71,110
151392,note_on,98,0,8,,,,,,,,7,,,43,110
151392,note_on,98,0,7,,,,,,,,6,,,62,110
151392,note_on,2,0,5,,,,,,,,4,,,71,110
151438,note_on,46,0,6,,,,,,,,5,,,55,0
151438,note_on,46,0,5,,,,,,,,4,,,71,0
151440,note_on,2,0,6,,,,,,,,5,,,59,110
151440,note_on,2,0,5,,,,,,,,4,,,74,110
151486,note_on,94,0,8,,,,,,,,7,,,43,0
151486,note_on,0,0,7,,,,,,,,6,,,67,0
151486,note_on,94,0,7,,,,,,,,6,,,71,0
151486,note_on,46,0,5,,,,,,,,4,,,74,0
151486,note_on,0,0,7,,,,,,,,6,,,62,0
151486,note_on,46,0,6,,,,,,,,5,,,59,0
151488,note_on,0,0,7,,,,,,,,6,,,71,110
151488,note_on,2,0,5,,,,,,,,4,,,65,110
151488,note_on,0,0,7,,,,,,,,6,,,74,110
151488,note_on,2,0,7,,,,,,,,6,,,67,110
151488,note_on,2,0,8,,,,,,,,7,,,55,110
151488,note_on,2,0,6,,,,,,,,5,,,43,110
151534,note_on,46,0,6,,,,,,,,5,,,43,0
151534,note_on,46,0,5,,,,,,,,4,,,65,0
151536,note_on,2,0,6,,,,,,,,5,,,59,110
151536,note_on,2,0,5,,,,,,,,4,,,74,110
151582,note_on,46,0,5,,,,,,,,4,,,74,0
151582,note_on,0,0,7,,,,,,,,6,,,67,0
151582,note_on,0,0,7,,,,,,,,6,,,71,0
151582,note_on,46,0,6,,,,,,,,5,,,59,0
151582,note_on,94,0,7,,,,,,,,6,,,74,0
151582,note_on,94,0,8,,,,,,,,7,,,55,0
151584,note_on,2,0,6,,,,,,,,5,,,57,110
151584,note_on,2,0,5,,,,,,,,4,,,72,110
151630,note_on,46,0,6,,,,,,,,5,,,57,0
151630,note_on,46,0,5,,,,,,,,4,,,72,0
151632,note_on,2,0,5,,,,,,,,4,,,74,110
151632,note_on,2,0,6,,,,,,,,5,,,59,110
151678,note_on,46,0,5,,,,,,,,4,,,74,0
151678,note_on,46,0,6,,,,,,,,5,,,59,0
151680,note_on,2,0,5,,,,,,,,4,,,71,110
151680,note_on,98,0,8,,,,,,,,7,,,43,110
151680,note_on,98,0,7,,,,,,,,6,,,67,110
151680,note_on,2,0,6,,,,,,,,5,,,55,110
151680,note_on,0,0,7,,,,,,,,6,,,71,110
151680,note_on,0,0,7,,,,,,,,6,,,74,110
151726,note_on,46,0,6,,,,,,,,5,,,55,0
151726,note_on,46,0,5,,,,,,,,4,,,71,0
151728,note_on,2,0,5,,,,,,,,4,,,74,110
151728,note_on,2,0,6,,,,,,,,5,,,59,110
151774,note_on,0,0,7,,,,,,,,6,,,67,0
151774,note_on,46,0,5,,,,,,,,4,,,74,0
151774,note_on,94,0,7,,,,,,,,6,,,74,0
151774,note_on,46,0,6,,,,,,,,5,,,59,0
151774,note_on,94,0,8,,,,,,,,7,,,43,0
151774,note_on,0,0,7,,,,,,,,6,,,71,0
151776,note_on,2,0,8,,,,,,,,7,,,55,110
151776,note_on,2,0,6,,,,,,,,5,,,43,110
151776,note_on,2,0,5,,,,,,,,4,,,65,110
151776,note_on,0,0,7,,,,,,,,6,,,77,110
151776,note_on,0,0,7,,,,,,,,6,,,74,110
151776,note_on,0,0,7,,,,,,,,6,,,71,110
151776,note_on,2,0,7,,,,,,,,6,,,67,110
151822,note_on,46,0,5,,,,,,,,4,,,65,0
151822,note_on,46,0,6,,,,,,,,5,,,43,0
151824,note_on,2,0,5,,,,,,,,4,,,74,110
151824,note_on,2,0,6,,,,,,,,5,,,59,110
151870,note_on,0,0,7,,,,,,,,6,,,71,0
151870,note_on,94,0,8,,,,,,,,7,,,55,0
151870,note_on,94,0,7,,,,,,,,6,,,77,0
151870,note_on,0,0,7,,,,,,,,6,,,67,0
151870,note_on,46,0,6,,,,,,,,5,,,59,0
151870,note_on,0,0,7,,,,,,,,6,,,74,0
151870,note_on,46,0,5,,,,,,,,4,,,74,0
151872,note_on,1154,0,12,,,,,,,,12,,,43,45
151872,note_on,1154,0,9,,,,,,,,8,,,77,45
151872,note_on,2,0,5,,,,,,,,4,,,72,110
151872,note_on,1154,0,11,,,,,,,,11,,,62,45
151872,note_on,1154,0,10,,,,,,,,10,,,71,45
151872,note_on,2,0,6,,,,,,,,5,,,57,110
151918,note_on,46,0,5,,,,,,,,4,,,72,0
151918,note_on,46,0,6,,,,,,,,5,,,57,0
151920,note_on,2,0,5,,,,,,,,4,,,74,110
151920,note_on,2,0,6,,,,,,,,5,,,59,110
151966,note_on,94,0,12,,,,,,,,12,,,43,0
151966,note_on,94,0,11,,,,,,,,11,,,62,0
151966,note_on,46,0,5,,,,,,,,4,,,74,0
151966,note_on,46,0,6,,,,,,,,5,,,59,0
151966,note_on,94,0,10,,,,,,,,10,,,71,0
151966,note_on,94,0,9,,,,,,,,8,,,77,0
151968,note_on,2,0,11,,,,,,,,11,,,62,45
151968,note_on,2,0,6,,,,,,,,5,,,55,110
151968,note_on,98,0,8,,,,,,,,7,,,43,110
151968,note_on,2,0,5,,,,,,,,4,,,71,110
151968,note_on,0,0,7,,,,,,,,6,,,77,110
151968,note_on,0,0,7,,,,,,,,6,,,74,110
151968,note_on,0,0,7,,,,,,,,6,,,71,110
151968,note_on,2,0,9,,,,,,,,8,,,77,45
151968,note_on,98,0,7,,,,,,,,6,,,67,110
151968,note_on,2,0,12,,,,,,,,12,,,43,45
151968,note_on,2,0,10,,,,,,,,10,,,71,45
152014,note_on,46,0,5,,,,,,,,4,,,71,0
152014,note_on,46,0,6,,,,,,,,5,,,55,0
152016,note_on,2,0,5,,,,,,,,4,,,74,110
152016,note_on,2,0,6,,,,,,,,5,,,59,110
152062,note_on,0,0,7,,,,,,,,6,,,71,0
152062,note_on,0,0,7,,,,,,,,6,,,67,0
152062,note_on,94,0,9,,,,,,,,8,,,77,0
152062,note_on,0,0,7,,,,,,,,6,,,74,0
152062,note_on,94,0,12,,,,,,,,12,,,43,0
152062,note_on,94,0,7,,,,,,,,6,,,77,0
152062,note_on,94,0,11,,,,,,,,11,,,62,0
152062,note_on,46,0,5,,,,,,,,4,,,74,0
152062,note_on,46,0,6,,,,,,,,5,,,59,0
152062,note_on,94,0,10,,,,,,,,10,,,71,0
152062,note_on,94,0,8,,,,,,,,7,,,43,0
152064,note_on,2,0,5,,,,,,,,4,,,76,110
152064,note_on,2,0,6,,,,,,,,5,,,48,110
152064,note_on,2,0,9,,,,,,,,8,,,76,45
152064,note_on,2,0,11,,,,,,,,11,,,60,45
152064,note_on,2,0,12,,,,,,,,12,,,48,45
152064,note_on,2,0,8,,,,,,,,7,,,48,110
152064,note_on,0,0,7,,,,,,,,6,,,76,110
152064,note_on,0,0,7,,,,,,,,6,,,72,110
152064,note_on,2,0,7,,,,,,,,6,,,67,110
152064,note_on,2,0,10,,,,,,,,10,,,67,45
152110,note_on,46,0,7,,,,,,,,6,,,76,0
152110,note_on,0,0,7,,,,,,,,6,,,72,0
152110,note_on,0,0,7,,,,,,,,6,,,67,0
152110,note_on,46,0,8,,,,,,,,7,,,48,0
152112,note_on,2,0,8,,,,,,,,7,,,64,110
152112,note_on,2,0,7,,,,,,,,6,,,79,110
152158,note_on,94,0,12,,,,,,,,12,,,48,0
152158,note_on,46,0,8,,,,,,,,7,,,64,0
152158,note_on,94,0,9,,,,,,,,8,,,76,0
152158,note_on,46,0,7,,,,,,,,6,,,79,0
152158,note_on,94,0,5,,,,,,,,4,,,76,0
152158,note_on,94,0,11,,,,,,,,11,,,60,0
152158,note_on,94,0,6,,,,,,,,5,,,48,0
152158,note_on,94,0,10,,,,,,,,10,,,67,0
152160,note_on,2,0,7,,,,,,,,6,,,77,110
152160,note_on,2,0,8,,,,,,,,7,,,62,110
152206,note_on,46,0,8,,,,,,,,7,,,62,0
152206,note_on,46,0,7,,,,,,,,6,,,77,0
152208,note_on,2,0,7,,,,,,,,6,,,79,110
152208,note_on,2,0,8,,,,,,,,7,,,64,110
152254,note_on,46,0,7,,,,,,,,6,,,79,0
152254,note_on,46,0,8,,,,,,,,7,,,64,0
152256,note_on,0,0,1,,,,,,,,0,,,55,110
152256,note_on,0,0,1,,,,,,,,0,,,52,110
152256,note_on,2978,0,1,,,,,,,,0,,,48,110
152256,note_on,2,0,8,,,,,,,,7,,,60,110
152256,note_on,2,0,7,,,,,,,,6,,,76,110
152256,note_on,2978,0,2,,,,,,,,1,,,36,110
152302,note_on,46,0,8,,,,,,,,7,,,60,0
152302,note_on,46,0,7,,,,,,,,6,,,76,0
152304,note_on,2,0,8,,,,,,,,7,,,64,110
152304,note_on,2,0,7,,,,,,,,6,,,79,110
152350,note_on,0,0,1,,,,,,,,0,,,48,0
152350,note_on,0,0,1,,,,,,,,0,,,52,0
152350,note_on,94,0,1,,,,,,,,0,,,55,0
152350,note_on,46,0,7,,,,,,,,6,,,79,0
152350,note_on,46,0,8,,,,,,,,7,,,64,0
152350,note_on,94,0,2,,,,,,,,1,,,36,0
152352,note_on,2,0,1,,,,,,,,0,,,52,110
152352,note_on,2,0,8,,,,,,,,7,,,48,110
152352,note_on,0,0,1,,,,,,,,0,,,55,110
152352,note_on,2,0,7,,,,,,,,6,,,72,110
152352,note_on,0,0,1,,,,,,,,0,,,60,110
152352,note_on,2,0,2,,,,,,,,1,,,48,110
152398,note_on,46,0,8,,,,,,,,7,,,48,0
152398,note_on,46,0,7,,,,,,,,6,,,72,0
152400,note_on,2,0,8,,,,,,,,7,,,64,110
152400,note_on,2,0,7,,,,,,,,6,,,79,110
152446,note_on,94,0,1,,,,,,,,0,,,60,0
152446,note_on,0,0,1,,,,,,,,0,,,55,0
152446,note_on,0,0,1,,,,,,,,0,,,52,0
152446,note_on,94,0,2,,,,,,,,1,,,48,0
152446,note_on,46,0,8,,,,,,,,7,,,64,0
152446,note_on,46,0,7,,,,,,,,6,,,79,0
152448,note_on,2,0,8,,,,,,,,7,,,62,110
152448,note_on,2,0,7,,,,,,,,6,,,77,110
152494,note_on,46,0,8,,,,,,,,7,,,62,0
152494,note_on,46,0,7,,,,,,,,6,,,77,0
152496,note_on,2,0,8,,,,,,,,7,,,64,110
152496,note_on,2,0,7,,,,,,,,6,,,79,110
152542,note_on,46,0,7,,,,,,,,6,,,79,0
152542,note_on,46,0,8,,,,,,,,7,,,64,0
152544,note_on,0,0,1,,,,,,,,0,,,60,110
152544,note_on,2,0,8,,,,,,,,7,,,60,110
152544,note_on,2,0,7,,,,,,,,6,,,76,110
152544,note_on,0,0,1,,,,,,,,0,,,55,110
152544,note_on,98,0,2,,,,,,,,1,,,36,110
152544,note_on,98,0,1,,,,,,,,0,,,52,110
152590,note_on,46,0,8,,,,,,,,7,,,60,0
152590,note_on,46,0,7,,,,,,,,6,,,76,0
152592,note_on,2,0,7,,,,,,,,6,,,79,110
152592,note_on,2,0,8,,,,,,,,7,,,64,110
152638,note_on,0,0,1,,,,,,,,0,,,52,0
152638,note_on,0,0,1,,,,,,,,0,,,55,0
152638,note_on,94,0,1,,,,,,,,0,,,60,0
152638,note_on,94,0,2,,,,,,,,1,,,36,0
152638,note_on,46,0,7,,,,,,,,6,,,79,0
152638,note_on,46,0,8,,,,,,,,7,,,64,0
152640,note_on,0,0,1,,,,,,,,0,,,64,110
152640,note_on,2,0,1,,,,,,,,0,,,55,110
152640,note_on,2,0,8,,,,,,,,7,,,48,110
152640,note_on,2,0,7,,,,,,,,6,,,72,110
152640,note_on,2,0,2,,,,,,,,1,,,48,110
152640,note_on,0,0,1,,,,,,,,0,,,60,110
152686,note_on,46,0,7,,,,,,,,6,,,72,0
152686,note_on,46,0,8,,,,,,,,7,,,48,0
152688,note_on,2,0,8,,,,,,,,7,,,64,110
152688,note_on,2,0,7,,,,,,,,6,,,79,110
152734,note_on,0,0,1,,,,,,,,0,,,60,0
152734,note_on,46,0,8,,,,,,,,7,,,64,0
152734,note_on,46,0,7,,,,,,,,6,,,79,0
152734,note_on,94,0,1,,,,,,,,0,,,64,0
152734,note_on,94,0,2,,,,,,,,1,,,48,0
152734,note_on,0,0,1,,,,,,,,0,,,55,0
152736,note_on,2,0,7,,,,,,,,6,,,77,110
152736,note_on,2,0,8,,,,,,,,7,,,62,110
152782,note_on,46,0,8,,,,,,,,7,,,62,0
152782,note_on,46,0,7,,,,,,,,6,,,77,0
152784,note_on,2,0,8,,,,,,,,7,,,64,110
152784,note_on,2,0,7,,,,,,,,6,,,79,110
152830,note_on,46,0,8,,,,,,,,7,,,64,0
152830,note_on,46,0,7,,,,,,,,6,,,79,0
152832,note_on,0,0,1,,,,,,,,0,,,60,110
152832,note_on,98,0,1,,,,,,,,0,,,55,110
152832,note_on,0,0,1,,,,,,,,0,,,64,110
152832,note_on,2,0,7,,,,,,,,6,,,76,110
152832,note_on,98,0,2,,,,,,,,1,,,36,110
152832,note_on,2,0,8,,,,,,,,7,,,60,110
152878,note_on,46,0,7,,,,,,,,6,,,76,0
152878,note_on,46,0,8,,,,,,,,7,,,60,0
152880,note_on,2,0,8,,,,,,,,7,,,64,110
152880,note_on,2,0,7,,,,,,,,6,,,79,110
152926,note_on,94,0,2,,,,,,,,1,,,36,0
152926,note_on,46,0,8,,,,,,,,7,,,64,0
152926,note_on,94,0,1,,,,,,,,0,,,64,0
152926,note_on,0,0,1,,,,,,,,0,,,60,0
152926,note_on,0,0,1,,,,,,,,0,,,55,0
152926,note_on,46,0,7,,,,,,,,6,,,79,0
152928,note_on,2,0,2,,,,,,,,1,,,48,110
152928,note_on,0,0,1,,,,,,,,0,,,67,110
152928,note_on,2,0,7,,,,,,,,6,,,70,110
152928,note_on,2,0,1,,,,,,,,0,,,60,110
152928,note_on,2,0,8,,,,,,,,7,,,48,110
152928,note_on,0,0,1,,,,,,,,0,,,64,110
152974,note_on,46,0,7,,,,,,,,6,,,70,0
152974,note_on,46,0,8,,,,,,,,7,,,48,0
152976,note_on,2,0,7,,,,,,,,6,,,79,110
152976,note_on,2,0,8,,,,,,,,7,,,64,110
153022,note_on,46,0,8,,,,,,,,7,,,64,0
153022,note_on,94,0,1,,,,,,,,0,,,67,0
153022,note_on,0,0,1,,,,,,,,0,,,64,0
153022,note_on,0,0,1,,,,,,,,0,,,60,0
153022,note_on,94,0,2,,,,,,,,1,,,48,0
153022,note_on,46,0,7,,,,,,,,6,,,79,0
153024,note_on,2,0,7,,,,,,,,6,,,77,110
153024,note_on,2,0,8,,,,,,,,7,,,62,110
153070,note_on,46,0,8,,,,,,,,7,,,62,0
153070,note_on,46,0,7,,,,,,,,6,,,77,0
153072,note_on,2,0,8,,,,,,,,7,,,64,110
153072,note_on,2,0,7,,,,,,,,6,,,79,110
153118,note_on,46,0,8,,,,,,,,7,,,64,0
153118,note_on,46,0,7,,,,,,,,6,,,79,0
153120,note_on,98,0,2,,,,,,,,1,,,36,110
153120,note_on,2,0,7,,,,,,,,6,,,76,110
153120,note_on,0,0,1,,,,,,,,0,,,67,110
153120,note_on,0,0,1,,,,,,,,0,,,64,110
153120,note_on,98,0,1,,,,,,,,0,,,60,110
153120,note_on,2,0,8,,,,,,,,7,,,60,110
153166,note_on,46,0,7,,,,,,,,6,,,76,0
153166,note_on,46,0,8,,,,,,,,7,,,60,0
153168,note_on,2,0,7,,,,,,,,6,,,79,110
153168,note_on,2,0,8,,,,,,,,7,,,64,110
153214,note_on,46,0,7,,,,,,,,6,,,79,0
153214,note_on,46,0,8,,,,,,,,7,,,64,0
153214,note_on,94,0,1,,,,,,,,0,,,67,0
153214,note_on,0,0,1,,,,,,,,0,,,64,0
153214,note_on,0,0,1,,,,,,,,0,,,60,0
153214,note_on,94,0,2,,,,,,,,1,,,36,0
153216,note_on,2,0,2,,,,,,,,1,,,48,110
153216,note_on,0,0,1,,,,,,,,0,,,70,110
153216,note_on,0,0,1,,,,,,,,0,,,67,110
153216,note_on,0,0,1,,,,,,,,0,,,64,110
153216,note_on,2,0,1,,,,,,,,0,,,60,110
153216,note_on,2,0,8,,,,,,,,7,,,48,110
153216,note_on,2,0,7,,,,,,,,6,,,70,110
153262,note_on,46,0,8,,,,,,,,7,,,48,0
153262,note_on,46,0,7,,,,,,,,6,,,70,0
153264,note_on,2,0,8,,,,,,,,7,,,64,110
153264,note_on,2,0,7,,,,,,,,6,,,79,110
153310,note_on,94,0,2,,,,,,,,1,,,48,0
153310,note_on,46,0,8,,,,,,,,7,,,64,0
153310,note_on,46,0,7,,,,,,,,6,,,79,0
153310,note_on,94,0,1,,,,,,,,0,,,70,0
153310,note_on,0,0,1,,,,,,,,0,,,64,0
153310,note_on,0,0,1,,,,,,,,0,,,60,0
153310,note_on,0,0,1,,,,,,,,0,,,67,0
153312,note_on,1154,0,11,,,,,,,,11,,,60,45
153312,note_on,1154,0,12,,,,,,,,12,,,48,45
153312,note_on,2,0,7,,,,,,,,6,,,77,110
153312,note_on,1154,0,9,,,,,,,,8,,,76,45
153312,note_on,1154,0,10,,,,,,,,10,,,70,45
153312,note_on,2,0,8,,,,,,,,7,,,62,110
153358,note_on,46,0,7,,,,,,,,6,,,77,0
153358,note_on,46,0,8,,,,,,,,7,,,62,0
153360,note_on,2,0,7,,,,,,,,6,,,79,110
153360,note_on,2,0,8,,,,,,,,7,,,64,110
153406,note_on,94,0,9,,,,,,,,8,,,76,0
153406,note_on,94,0,11,,,,,,,,11,,,60,0
153406,note_on,94,0,12,,,,,,,,12,,,48,0
153406,note_on,46,0,8,,,,,,,,7,,,64,0
153406,note_on,46,0,7,,,,,,,,6,,,79,0
153406,note_on,94,0,10,,,,,,,,10,,,70,0
153408,note_on,2,0,12,,,,,,,,12,,,48,45
153408,note_on,2,0,11,,,,,,,,11,,,60,45
153408,note_on,98,0,1,,,,,,,,0,,,60,110
153408,note_on,98,0,2,,,,,,,,1,,,36,110
153408,note_on,2,0,9,,,,,,,,8,,,76,45
153408,note_on,2,0,10,,,,,,,,10,,,70,45
153408,note_on,0,0,1,,,,,,,,0,,,70,110
153408,note_on,0,0,1,,,,,,,,0,,,67,110
153408,note_on,0,0,1,,,,,,,,0,,,64,110
153408,note_on,2,0,8,,,,,,,,7,,,60,110
153408,note_on,2,0,7,,,,,,,,6,,,76,110
153454,note_on,46,0,7,,,,,,,,6,,,76,0
153454,note_on,46,0,8,,,,,,,,7,,,60,0
153456,note_on,2,0,7,,,,,,,,6,,,79,110
153456,note_on,2,0,8,,,,,,,,7,,,64,110
153502,note_on,94,0,10,,,,,,,,10,,,70,0
153502,note_on,94,0,11,,,,,,,,11,,,60,0
153502,note_on,46,0,8,,,,,,,,7,,,64,0
153502,note_on,46,0,7,,,,,,,,6,,,79,0
153502,note_on,94,0,1,,,,,,,,0,,,70,0
153502,note_on,94,0,9,,,,,,,,8,,,76,0
153502,note_on,94,0,12,,,,,,,,12,,,48,0
153502,note_on,0,0,1,,,,,,,,0,,,60,0
153502,note_on,0,0,1,,,,,,,,0,,,64,0
153502,note_on,94,0,2,,,,,,,,1,,,36,0
153502,note_on,0,0,1,,,,,,,,0,,,67,0
153504,note_on,2,0,7,,,,,,,,6,,,81,110
153504,note_on,2,0,9,,,,,,,,8,,,77,45
153504,note_on,2786,0,4,,,,,,,,3,,,53,110
153504,note_on,2,0,1,,,,,,,,0,,,60,110
153504,note_on,0,0,1,,,,,,,,0,,,69,110
153504,note_on,2,0,10,,,,,,,,10,,,69,45
153504,note_on,2,0,12,,,,,,,,12,,,41,45
153504,note_on,2,0,8,,,,,,,,7,,,53,110
153504,note_on,2,0,11,,,,,,,,11,,,60,45
153504,note_on,0,0,1,,,,,,,,0,,,65,110
153504,note_on,2,0,2,,,,,,,,1,,,41,110
153552,note_on,2834,0,3,,,,,,,,2,,,81,110
153598,note_on,94,0,11,,,,,,,,11,,,60,0
153598,note_on,0,0,1,,,,,,,,0,,,60,0
153598,note_on,0,0,1,,,,,,,,0,,,65,0
153598,note_on,94,0,1,,,,,,,,0,,,69,0
153598,note_on,94,0,10,,,,,,,,10,,,69,0
153598,note_on,94,0,2,,,,,,,,1,,,41,0
153598,note_on,94,0,4,,,,,,,,3,,,53,0
153598,note_on,94,0,12,,,,,,,,12,,,41,0
153598,note_on,94,0,9,,,,,,,,8,,,77,0
153598,note_on,46,0,3,,,,,,,,2,,,81,0
153600,note_on,2,0,4,,,,,,,,3,,,48,110
153600,note_on,2,0,3,,,,,,,,2,,,81,110
153646,note_on,46,0,3,,,,,,,,2,,,81,0
153648,note_on,2,0,3,,,,,,,,2,,,77,110
153664,note_on,160,0,7,,,,,,,,6,,,81,0
153664,note_on,160,0,8,,,,,,,,7,,,53,0
153694,note_on,46,0,3,,,,,,,,2,,,77,0
153694,note_on,94,0,4,,,,,,,,3,,,48,0
153696,note_on,2,0,3,,,,,,,,2,,,77,110
153696,note_on,2,0,4,,,,,,,,3,,,45,110
153742,note_on,46,0,3,,,,,,,,2,,,77,0
153744,note_on,2,0,3,,,,,,,,2,,,74,110
153790,note_on,46,0,3,,,,,,,,2,,,74,0
153790,note_on,94,0,4,,,,,,,,3,,,45,0
153792,note_on,2,0,4,,,,,,,,3,,,41,110
153792,note_on,2,0,3,,,,,,,,2,,,74,110
153838,note_on,46,0,3,,,,,,,,2,,,74,0
153838,note_on,46,0,4,,,,,,,,3,,,41,0
153840,note_on,2,0,4,,,,,,,,3,,,57,110
153840,note_on,2,0,3,,,,,,,,2,,,77,110
153886,note_on,46,0,4,,,,,,,,3,,,57,0
153886,note_on,46,0,3,,,,,,,,2,,,77,0
153888,note_on,2,0,3,,,,,,,,2,,,77,110
153888,note_on,2,0,4,,,,,,,,3,,,57,110
153934,note_on,46,0,3,,,,,,,,2,,,77,0
153934,note_on,46,0,4,,,,,,,,3,,,57,0
153936,note_on,2,0,3,,,,,,,,2,,,74,110
153936,note_on,2,0,4,,,,,,,,3,,,53,110
153982,note_on,46,0,3,,,,,,,,2,,,74,0
153982,note_on,46,0,4,,,,,,,,3,,,53,0
153984,note_on,2,0,3,,,,,,,,2,,,74,110
153984,note_on,2,0,4,,,,,,,,3,,,53,110
154030,note_on,46,0,3,,,,,,,,2,,,74,0
154030,note_on,46,0,4,,,,,,,,3,,,53,0
154032,note_on,2,0,4,,,,,,,,3,,,50,110
154032,note_on,2,0,3,,,,,,,,2,,,70,110
154078,note_on,46,0,4,,,,,,,,3,,,50,0
154078,note_on,46,0,3,,,,,,,,2,,,70,0
154080,note_on,2,0,4,,,,,,,,3,,,50,110
154080,note_on,2,0,3,,,,,,,,2,,,70,110
154126,note_on,46,0,3,,,,,,,,2,,,70,0
154128,note_on,2,0,3,,,,,,,,2,,,77,110
154174,note_on,94,0,4,,,,,,,,3,,,50,0
154174,note_on,46,0,3,,,,,,,,2,,,77,0
154176,note_on,2,0,4,,,,,,,,3,,,46,110
154176,note_on,2,0,3,,,,,,,,2,,,77,110
154222,note_on,46,0,3,,,,,,,,2,,,77,0
154224,note_on,2,0,3,,,,,,,,2,,,74,110
154270,note_on,94,0,4,,,,,,,,3,,,46,0
154270,note_on,46,0,3,,,,,,,,2,,,74,0
154272,note_on,2,0,4,,,,,,,,3,,,41,110
154272,note_on,2,0,3,,,,,,,,2,,,74,110
154318,note_on,46,0,3,,,,,,,,2,,,74,0
154320,note_on,2,0,3,,,,,,,,2,,,70,110
154366,note_on,46,0,3,,,,,,,,2,,,70,0
154366,note_on,94,0,4,,,,,,,,3,,,41,0
154368,note_on,2,0,3,,,,,,,,2,,,70,110
154368,note_on,2,0,4,,,,,,,,3,,,38,110
154414,note_on,46,0,3,,,,,,,,2,,,70,0
154414,note_on,46,0,4,,,,,,,,3,,,38,0
154416,note_on,2,0,3,,,,,,,,2,,,74,110
154416,note_on,2,0,4,,,,,,,,3,,,53,110
154462,note_on,46,0,3,,,,,,,,2,,,74,0
154462,note_on,46,0,4,,,,,,,,3,,,53,0
154464,note_on,2,0,3,,,,,,,,2,,,74,110
154464,note_on,2,0,4,,,,,,,,3,,,53,110
154510,note_on,46,0,4,,,,,,,,3,,,53,0
154510,note_on,46,0,3,,,,,,,,2,,,74,0
154512,note_on,2,0,3,,,,,,,,2,,,70,110
154512,note_on,2,0,4,,,,,,,,3,,,50,110
154558,note_on,46,0,3,,,,,,,,2,,,70,0
154558,note_on,46,0,4,,,,,,,,3,,,50,0
154560,note_on,2,0,3,,,,,,,,2,,,70,110
154560,note_on,2,0,4,,,,,,,,3,,,50,110
154606,note_on,46,0,4,,,,,,,,3,,,50,0
154606,note_on,46,0,3,,,,,,,,2,,,70,0
154608,note_on,2,0,3,,,,,,,,2,,,69,110
154608,note_on,2,0,4,,,,,,,,3,,,48,110
154654,note_on,46,0,3,,,,,,,,2,,,69,0
154654,note_on,46,0,4,,,,,,,,3,,,48,0
154656,note_on,2,0,4,,,,,,,,3,,,40,110
154656,note_on,2,0,3,,,,,,,,2,,,68,110
154656,note_on,992,0,8,,,,,,,,7,,,64,110
154656,note_on,1058,0,11,,,,,,,,11,,,68,45
154656,note_on,1058,0,10,,,,,,,,10,,,71,45
154656,note_on,1058,0,12,,,,,,,,12,,,52,45
154656,note_on,1058,0,1,,,,,,,,0,,,64,110
154656,note_on,1058,0,9,,,,,,,,8,,,74,45
154656,note_on,1058,0,2,,,,,,,,1,,,40,110
154702,note_on,46,0,1,,,,,,,,0,,,64,0
154702,note_on,46,0,2,,,,,,,,1,,,40,0
154704,note_on,2,0,1,,,,,,,,0,,,71,110
154704,note_on,2,0,2,,,,,,,,1,,,52,110
154750,note_on,46,0,2,,,,,,,,1,,,52,0
154750,note_on,94,0,4,,,,,,,,3,,,40,0
154750,note_on,94,0,3,,,,,,,,2,,,68,0
154750,note_on,46,0,1,,,,,,,,0,,,71,0
154750,note_on,94,0,8,,,,,,,,7,,,64,0
154752,note_on,2,0,3,,,,,,,,2,,,71,110
154752,note_on,2,0,2,,,,,,,,1,,,56,110
154752,note_on,2,0,1,,,,,,,,0,,,64,110
154752,note_on,2,0,4,,,,,,,,3,,,52,110
154752,note_on,2,0,8,,,,,,,,7,,,64,110
154752,note_on,1088,0,7,,,,,,,,6,,,68,110
154798,note_on,46,0,1,,,,,,,,0,,,64,0
154798,note_on,46,0,2,,,,,,,,1,,,56,0
154800,note_on,2,0,1,,,,,,,,0,,,71,110
154800,note_on,2,0,2,,,,,,,,1,,,52,110
154846,note_on,94,0,8,,,,,,,,7,,,64,0
154846,note_on,94,0,7,,,,,,,,6,,,68,0
154846,note_on,46,0,1,,,,,,,,0,,,71,0
154846,note_on,94,0,4,,,,,,,,3,,,52,0
154846,note_on,94,0,3,,,,,,,,2,,,71,0
154846,note_on,46,0,2,,,,,,,,1,,,52,0
154848,note_on,2,0,8,,,,,,,,7,,,62,110
154848,note_on,2,0,3,,,,,,,,2,,,68,110
154848,note_on,2,0,2,,,,,,,,1,,,47,110
154848,note_on,2,0,7,,,,,,,,6,,,76,110
154848,note_on,2,0,4,,,,,,,,3,,,64,110
154848,note_on,2,0,1,,,,,,,,0,,,64,110
154894,note_on,46,0,2,,,,,,,,1,,,47,0
154894,note_on,46,0,1,,,,,,,,0,,,64,0
154896,note_on,2,0,1,,,,,,,,0,,,71,110
154896,note_on,2,0,2,,,,,,,,1,,,44,110
154942,note_on,94,0,8,,,,,,,,7,,,62,0
154942,note_on,94,0,3,,,,,,,,2,,,68,0
154942,note_on,46,0,2,,,,,,,,1,,,44,0
154942,note_on,46,0,1,,,,,,,,0,,,71,0
154942,note_on,94,0,7,,,,,,,,6,,,76,0
154942,note_on,94,0,4,,,,,,,,3,,,64,0
154944,note_on,2,0,2,,,,,,,,1,,,40,110
154944,note_on,0,0,9,,,,,,,,8,,,72,45
154944,note_on,0,0,11,,,,,,,,11,,,64,45
154944,note_on,0,0,10,,,,,,,,10,,,69,45
154944,note_on,2,0,8,,,,,,,,7,,,60,110
154944,note_on,288,0,9,,,,,,,,8,,,74,0
154944,note_on,2,0,1,,,,,,,,0,,,64,110
154944,note_on,2,0,3,,,,,,,,2,,,69,110
154944,note_on,288,0,11,,,,,,,,11,,,68,0
154944,note_on,288,0,10,,,,,,,,10,,,71,0
154990,note_on,46,0,2,,,,,,,,1,,,40,0
154990,note_on,46,0,1,,,,,,,,0,,,64,0
154992,note_on,2,0,2,,,,,,,,1,,,52,110
154992,note_on,2,0,1,,,,,,,,0,,,72,110
155038,note_on,46,0,1,,,,,,,,0,,,72,0
155038,note_on,94,0,3,,,,,,,,2,,,69,0
155038,note_on,46,0,2,,,,,,,,1,,,52,0
155038,note_on,94,0,8,,,,,,,,7,,,60,0
155040,note_on,2,0,8,,,,,,,,7,,,60,110
155040,note_on,2,0,3,,,,,,,,2,,,72,110
155040,note_on,98,0,7,,,,,,,,6,,,69,110
155040,note_on,2,0,2,,,,,,,,1,,,57,110
155040,note_on,2,0,1,,,,,,,,0,,,64,110
155040,note_on,98,0,4,,,,,,,,3,,,52,110
155086,note_on,46,0,1,,,,,,,,0,,,64,0
155086,note_on,46,0,2,,,,,,,,1,,,57,0
155088,note_on,2,0,1,,,,,,,,0,,,72,110
155088,note_on,2,0,2,,,,,,,,1,,,52,110
155134,note_on,46,0,1,,,,,,,,0,,,72,0
155134,note_on,94,0,3,,,,,,,,2,,,72,0
155134,note_on,94,0,7,,,,,,,,6,,,69,0
155134,note_on,94,0,4,,,,,,,,3,,,52,0
155134,note_on,94,0,8,,,,,,,,7,,,60,0
155134,note_on,46,0,2,,,,,,,,1,,,52,0
155136,note_on,2,0,1,,,,,,,,0,,,64,110
155136,note_on,2,0,8,,,,,,,,7,,,60,110
155136,note_on,2,0,3,,,,,,,,2,,,69,110
155136,note_on,2,0,7,,,,,,,,6,,,76,110
155136,note_on,2,0,4,,,,,,,,3,,,64,110
155136,note_on,2,0,2,,,,,,,,1,,,48,110
155182,note_on,46,0,1,,,,,,,,0,,,64,0
155182,note_on,46,0,2,,,,,,,,1,,,48,0
155184,note_on,2,0,2,,,,,,,,1,,,45,110
155184,note_on,2,0,1,,,,,,,,0,,,72,110
155230,note_on,94,0,7,,,,,,,,6,,,76,0
155230,note_on,94,0,4,,,,,,,,3,,,64,0
155230,note_on,46,0,2,,,,,,,,1,,,45,0
155230,note_on,94,0,3,,,,,,,,2,,,69,0
155230,note_on,94,0,8,,,,,,,,7,,,60,0
155230,note_on,46,0,1,,,,,,,,0,,,72,0
155232,note_on,2,0,1,,,,,,,,0,,,64,110
155232,note_on,288,0,9,,,,,,,,8,,,72,0
155232,note_on,2,0,3,,,,,,,,2,,,71,110
155232,note_on,0,0,9,,,,,,,,8,,,71,45
155232,note_on,288,0,11,,,,,,,,11,,,64,0
155232,note_on,0,0,11,,,,,,,,11,,,62,45
155232,note_on,288,0,10,,,,,,,,10,,,69,0
155232,note_on,2,0,2,,,,,,,,1,,,40,110
155232,note_on,0,0,10,,,,,,,,10,,,68,45
155232,note_on,2,0,8,,,,,,,,7,,,56,110
155278,note_on,46,0,2,,,,,,,,1,,,40,0
155278,note_on,46,0,1,,,,,,,,0,,,64,0
155280,note_on,2,0,2,,,,,,,,1,,,52,110
155280,note_on,2,0,1,,,,,,,,0,,,74,110
155326,note_on,94,0,8,,,,,,,,7,,,56,0
155326,note_on,94,0,3,,,,,,,,2,,,71,0
155326,note_on,46,0,1,,,,,,,,0,,,74,0
155326,note_on,46,0,2,,,,,,,,1,,,52,0
155328,note_on,98,0,7,,,,,,,,6,,,71,110
155328,note_on,2,0,3,,,,,,,,2,,,74,110
155328,note_on,2,0,1,,,,,,,,0,,,64,110
155328,note_on,98,0,4,,,,,,,,3,,,52,110
155328,note_on,2,0,2,,,,,,,,1,,,56,110
155328,note_on,2,0,8,,,,,,,,7,,,56,110
155374,note_on,46,0,2,,,,,,,,1,,,56,0
155374,note_on,46,0,1,,,,,,,,0,,,64,0
155376,note_on,2,0,2,,,,,,,,1,,,52,110
155376,note_on,2,0,1,,,,,,,,0,,,74,110
155422,note_on,46,0,1,,,,,,,,0,,,74,0
155422,note_on,46,0,2,,,,,,,,1,,,52,0
155422,note_on,94,0,3,,,,,,,,2,,,74,0
155422,note_on,94,0,4,,,,,,,,3,,,52,0
155422,note_on,94,0,7,,,,,,,,6,,,71,0
155422,note_on,94,0,8,,,,,,,,7,,,56,0
155424,note_on,2,0,2,,,,,,,,1,,,47,110
155424,note_on,2,0,4,,,,,,,,3,,,64,110
155424,note_on,2,0,8,,,,,,,,7,,,56,110
155424,note_on,2,0,3,,,,,,,,2,,,71,110
155424,note_on,2,0,1,,,,,,,,0,,,64,110
155424,note_on,2,0,7,,,,,,,,6,,,76,110
155470,note_on,46,0,1,,,,,,,,0,,,64,0
155470,note_on,46,0,2,,,,,,,,1,,,47,0
155472,note_on,2,0,1,,,,,,,,0,,,74,110
155472,note_on,2,0,2,,,,,,,,1,,,44,110
155518,note_on,94,0,4,,,,,,,,3,,,64,0
155518,note_on,94,0,3,,,,,,,,2,,,71,0
155518,note_on,94,0,8,,,,,,,,7,,,56,0
155518,note_on,46,0,2,,,,,,,,1,,,44,0
155518,note_on,94,0,7,,,,,,,,6,,,76,0
155518,note_on,46,0,1,,,,,,,,0,,,74,0
155520,note_on,0,0,10,,,,,,,,10,,,64,45
155520,note_on,0,0,9,,,,,,,,8,,,69,45
155520,note_on,2,0,3,,,,,,,,2,,,69,110
155520,note_on,288,0,9,,,,,,,,8,,,71,0
155520,note_on,288,0,11,,,,,,,,11,,,62,0
155520,note_on,2,0,2,,,,,,,,1,,,40,110
155520,note_on,0,0,11,,,,,,,,11,,,60,45
155520,note_on,2,0,1,,,,,,,,0,,,64,110
155520,note_on,288,0,10,,,,,,,,10,,,68,0
155520,note_on,2,0,8,,,,,,,,7,,,57,110
155566,note_on,46,0,1,,,,,,,,0,,,64,0
155566,note_on,46,0,2,,,,,,,,1,,,40,0
155568,note_on,2,0,1,,,,,,,,0,,,72,110
155568,note_on,2,0,2,,,,,,,,1,,,52,110
155614,note_on,46,0,1,,,,,,,,0,,,72,0
155614,note_on,94,0,8,,,,,,,,7,,,57,0
155614,note_on,94,0,3,,,,,,,,2,,,69,0
155614,note_on,46,0,2,,,,,,,,1,,,52,0
155616,note_on,2,0,8,,,,,,,,7,,,57,110
155616,note_on,2,0,1,,,,,,,,0,,,64,110
155616,note_on,2,0,2,,,,,,,,1,,,57,110
155616,note_on,98,0,4,,,,,,,,3,,,52,110
155616,note_on,2,0,3,,,,,,,,2,,,72,110
155616,note_on,98,0,7,,,,,,,,6,,,69,110
155662,note_on,46,0,1,,,,,,,,0,,,64,0
155662,note_on,46,0,2,,,,,,,,1,,,57,0
155664,note_on,2,0,1,,,,,,,,0,,,72,110
155664,note_on,2,0,2,,,,,,,,1,,,52,110
155710,note_on,94,0,8,,,,,,,,7,,,57,0
155710,note_on,46,0,2,,,,,,,,1,,,52,0
155710,note_on,46,0,1,,,,,,,,0,,,72,0
155710,note_on,94,0,7,,,,,,,,6,,,69,0
155710,note_on,94,0,3,,,,,,,,2,,,72,0
155710,note_on,94,0,4,,,,,,,,3,,,52,0
155712,note_on,2,0,2,,,,,,,,1,,,48,110
155712,note_on,2,0,8,,,,,,,,7,,,57,110
155712,note_on,2,0,4,,,,,,,,3,,,64,110
155712,note_on,2,0,1,,,,,,,,0,,,64,110
155712,note_on,2,0,7,,,,,,,,6,,,76,110
155712,note_on,2,0,3,,,,,,,,2,,,69,110
155758,note_on,46,0,1,,,,,,,,0,,,64,0
155758,note_on,46,0,2,,,,,,,,1,,,48,0
155760,note_on,2,0,1,,,,,,,,0,,,72,110
155760,note_on,2,0,2,,,,,,,,1,,,45,110
155806,note_on,46,0,1,,,,,,,,0,,,72,0
155806,note_on,94,0,3,,,,,,,,2,,,69,0
155806,note_on,94,0,4,,,,,,,,3,,,64,0
155806,note_on,94,0,8,,,,,,,,7,,,57,0
155806,note_on,94,0,7,,,,,,,,6,,,76,0
155806,note_on,46,0,2,,,,,,,,1,,,45,0
155808,note_on,2,0,2,,,,,,,,1,,,40,110
155808,note_on,0,0,11,,,,,,,,11,,,59,45
155808,note_on,2,0,1,,,,,,,,0,,,64,110
155808,note_on,288,0,9,,,,,,,,8,,,69,0
155808,note_on,0,0,9,,,,,,,,8,,,68,45
155808,note_on,2,0,3,,,,,,,,2,,,68,110
155808,note_on,2,0,8,,,,,,,,7,,,59,110
155808,note_on,288,0,11,,,,,,,,11,,,60,0
155854,note_on,46,0,2,,,,,,,,1,,,40,0
155854,note_on,46,0,1,,,,,,,,0,,,64,0
155856,note_on,2,0,1,,,,,,,,0,,,71,110
155856,note_on,2,0,2,,,,,,,,1,,,52,110
155902,note_on,46,0,2,,,,,,,,1,,,52,0
155902,note_on,94,0,8,,,,,,,,7,,,59,0
155902,note_on,94,0,3,,,,,,,,2,,,68,0
155902,note_on,46,0,1,,,,,,,,0,,,71,0
155904,note_on,2,0,2,,,,,,,,1,,,56,110
155904,note_on,2,0,3,,,,,,,,2,,,71,110
155904,note_on,98,0,4,,,,,,,,3,,,52,110
155904,note_on,2,0,8,,,,,,,,7,,,64,110
155904,note_on,98,0,7,,,,,,,,6,,,68,110
155904,note_on,2,0,1,,,,,,,,0,,,64,110
155950,note_on,46,0,2,,,,,,,,1,,,56,0
155950,note_on,46,0,1,,,,,,,,0,,,64,0
155952,note_on,2,0,1,,,,,,,,0,,,71,110
155952,note_on,2,0,2,,,,,,,,1,,,52,110
155998,note_on,94,0,4,,,,,,,,3,,,52,0
155998,note_on,46,0,1,,,,,,,,0,,,71,0
155998,note_on,46,0,2,,,,,,,,1,,,52,0
155998,note_on,94,0,7,,,,,,,,6,,,68,0
155998,note_on,94,0,3,,,,,,,,2,,,71,0
155998,note_on,94,0,8,,,,,,,,7,,,64,0
156000,note_on,2,0,7,,,,,,,,6,,,76,110
156000,note_on,2,0,4,,,,,,,,3,,,64,110
156000,note_on,2,0,1,,,,,,,,0,,,64,110
156000,note_on,2,0,8,,,,,,,,7,,,62,110
156000,note_on,2,0,2,,,,,,,,1,,,47,110
156000,note_on,2,0,3,,,,,,,,2,,,68,110
156046,note_on,46,0,1,,,,,,,,0,,,64,0
156046,note_on,46,0,2,,,,,,,,1,,,47,0
156048,note_on,2,0,1,,,,,,,,0,,,71,110
156048,note_on,2,0,2,,,,,,,,1,,,44,110
156094,note_on,46,0,1,,,,,,,,0,,,71,0
156094,note_on,94,0,3,,,,,,,,2,,,68,0
156094,note_on,94,0,8,,,,,,,,7,,,62,0
156094,note_on,94,0,4,,,,,,,,3,,,64,0
156094,note_on,94,0,7,,,,,,,,6,,,76,0
156094,note_on,46,0,2,,,,,,,,1,,,44,0
156096,note_on,2,0,8,,,,,,,,7,,,60,110
156096,note_on,0,0,11,,,,,,,,11,,,60,45
156096,note_on,2,0,3,,,,,,,,2,,,69,110
156096,note_on,288,0,9,,,,,,,,8,,,68,0
156096,note_on,2,0,1,,,,,,,,0,,,64,110
156096,note_on,288,0,11,,,,,,,,11,,,59,0
156096,note_on,0,0,9,,,,,,,,8,,,69,45
156096,note_on,2,0,2,,,,,,,,1,,,40,110
156142,note_on,46,0,2,,,,,,,,1,,,40,0
156142,note_on,46,0,1,,,,,,,,0,,,64,0
156144,note_on,2,0,2,,,,,,,,1,,,52,110
156144,note_on,2,0,1,,,,,,,,0,,,72,110
156190,note_on,94,0,3,,,,,,,,2,,,69,0
156190,note_on,46,0,2,,,,,,,,1,,,52,0
156190,note_on,46,0,1,,,,,,,,0,,,72,0
156190,note_on,94,0,8,,,,,,,,7,,,60,0
156192,note_on,2,0,3,,,,,,,,2,,,72,110
156192,note_on,2,0,2,,,,,,,,1,,,57,110
156192,note_on,98,0,7,,,,,,,,6,,,69,110
156192,note_on,2,0,1,,,,,,,,0,,,64,110
156192,note_on,2,0,8,,,,,,,,7,,,60,110
156192,note_on,98,0,4,,,,,,,,3,,,52,110
156238,note_on,46,0,1,,,,,,,,0,,,64,0
156238,note_on,46,0,2,,,,,,,,1,,,57,0
156240,note_on,2,0,2,,,,,,,,1,,,52,110
156240,note_on,2,0,1,,,,,,,,0,,,72,110
156286,note_on,46,0,1,,,,,,,,0,,,72,0
156286,note_on,94,0,3,,,,,,,,2,,,72,0
156286,note_on,94,0,7,,,,,,,,6,,,69,0
156286,note_on,94,0,4,,,,,,,,3,,,52,0
156286,note_on,94,0,8,,,,,,,,7,,,60,0
156286,note_on,46,0,2,,,,,,,,1,,,52,0
156288,note_on,2,0,1,,,,,,,,0,,,64,110
156288,note_on,2,0,8,,,,,,,,7,,,60,110
156288,note_on,2,0,7,,,,,,,,6,,,76,110
156288,note_on,2,0,4,,,,,,,,3,,,64,110
156288,note_on,2,0,3,,,,,,,,2,,,69,110
156288,note_on,2,0,2,,,,,,,,1,,,48,110
156334,note_on,46,0,2,,,,,,,,1,,,48,0
156334,note_on,46,0,1,,,,,,,,0,,,64,0
156336,note_on,2,0,1,,,,,,,,0,,,72,110
156336,note_on,2,0,2,,,,,,,,1,,,45,110
156382,note_on,94,0,3,,,,,,,,2,,,69,0
156382,note_on,94,0,4,,,,,,,,3,,,64,0
156382,note_on,46,0,2,,,,,,,,1,,,45,0
156382,note_on,94,0,7,,,,,,,,6,,,76,0
156382,note_on,46,0,1,,,,,,,,0,,,72,0
156382,note_on,94,0,8,,,,,,,,7,,,60,0
156384,note_on,288,0,11,,,,,,,,11,,,60,0
156384,note_on,0,0,11,,,,,,,,11,,,64,45
156384,note_on,2,0,8,,,,,,,,7,,,56,110
156384,note_on,0,0,9,,,,,,,,8,,,71,45
156384,note_on,0,0,10,,,,,,,,10,,,68,45
156384,note_on,288,0,9,,,,,,,,8,,,69,0
156384,note_on,2,0,2,,,,,,,,1,,,40,110
156384,note_on,2,0,3,,,,,,,,2,,,71,110
156384,note_on,864,0,10,,,,,,,,10,,,64,0
156384,note_on,2,0,1,,,,,,,,0,,,64,110
156430,note_on,46,0,1,,,,,,,,0,,,64,0
156430,note_on,46,0,2,,,,,,,,1,,,40,0
156432,note_on,2,0,1,,,,,,,,0,,,74,110
156432,note_on,2,0,2,,,,,,,,1,,,52,110
156478,note_on,46,0,2,,,,,,,,1,,,52,0
156478,note_on,94,0,3,,,,,,,,2,,,71,0
156478,note_on,94,0,8,,,,,,,,7,,,56,0
156478,note_on,46,0,1,,,,,,,,0,,,74,0
156480,note_on,98,0,7,,,,,,,,6,,,71,110
156480,note_on,2,0,8,,,,,,,,7,,,56,110
156480,note_on,98,0,4,,,,,,,,3,,,52,110
156480,note_on,2,0,2,,,,,,,,1,,,56,110
156480,note_on,2,0,3,,,,,,,,2,,,74,110
156480,note_on,2,0,1,,,,,,,,0,,,64,110
156526,note_on,46,0,1,,,,,,,,0,,,64,0
156526,note_on,46,0,2,,,,,,,,1,,,56,0
156528,note_on,2,0,1,,,,,,,,0,,,74,110
156528,note_on,2,0,2,,,,,,,,1,,,52,110
156574,note_on,46,0,1,,,,,,,,0,,,74,0
156574,note_on,94,0,8,,,,,,,,7,,,56,0
156574,note_on,94,0,7,,,,,,,,6,,,71,0
156574,note_on,94,0,3,,,,,,,,2,,,74,0
156574,note_on,46,0,2,,,,,,,,1,,,52,0
156574,note_on,94,0,4,,,,,,,,3,,,52,0
156576,note_on,2,0,7,,,,,,,,6,,,76,110
156576,note_on,2,0,4,,,,,,,,3,,,64,110
156576,note_on,2,0,3,,,,,,,,2,,,71,110
156576,note_on,2,0,2,,,,,,,,1,,,47,110
156576,note_on,2,0,8,,,,,,,,7,,,56,110
156576,note_on,2,0,1,,,,,,,,0,,,64,110
156622,note_on,46,0,2,,,,,,,,1,,,47,0
156622,note_on,46,0,1,,,,,,,,0,,,64,0
156624,note_on,2,0,2,,,,,,,,1,,,44,110
156624,note_on,2,0,1,,,,,,,,0,,,74,110
156670,note_on,94,0,8,,,,,,,,7,,,56,0
156670,note_on,46,0,2,,,,,,,,1,,,44,0
156670,note_on,94,0,3,,,,,,,,2,,,71,0
156670,note_on,94,0,7,,,,,,,,6,,,76,0
156670,note_on,94,0,4,,,,,,,,3,,,64,0
156670,note_on,46,0,1,,,,,,,,0,,,74,0
156672,note_on,2,0,3,,,,,,,,2,,,69,110
156672,note_on,2,0,8,,,,,,,,7,,,57,110
156672,note_on,0,0,9,,,,,,,,8,,,72,45
156672,note_on,288,0,9,,,,,,,,8,,,71,0
156672,note_on,288,0,10,,,,,,,,10,,,68,0
156672,note_on,2,0,1,,,,,,,,0,,,64,110
156672,note_on,0,0,10,,,,,,,,10,,,69,45
156672,note_on,2,0,2,,,,,,,,1,,,40,110
156718,note_on,46,0,1,,,,,,,,0,,,64,0
156718,note_on,46,0,2,,,,,,,,1,,,40,0
156720,note_on,2,0,1,,,,,,,,0,,,72,110
156720,note_on,2,0,2,,,,,,,,1,,,52,110
156766,note_on,46,0,2,,,,,,,,1,,,52,0
156766,note_on,94,0,3,,,,,,,,2,,,69,0
156766,note_on,94,0,8,,,,,,,,7,,,57,0
156766,note_on,46,0,1,,,,,,,,0,,,72,0
156768,note_on,98,0,7,,,,,,,,6,,,69,110
156768,note_on,2,0,2,,,,,,,,1,,,57,110
156768,note_on,98,0,4,,,,,,,,3,,,52,110
156768,note_on,2,0,3,,,,,,,,2,,,72,110
156768,note_on,2,0,8,,,,,,,,7,,,57,110
156768,note_on,2,0,1,,,,,,,,0,,,64,110
156814,note_on,46,0,1,,,,,,,,0,,,64,0
156814,note_on,46,0,2,,,,,,,,1,,,57,0
156816,note_on,2,0,1,,,,,,,,0,,,72,110
156816,note_on,2,0,2,,,,,,,,1,,,52,110
156862,note_on,94,0,8,,,,,,,,7,,,57,0
156862,note_on,46,0,1,,,,,,,,0,,,72,0
156862,note_on,94,0,7,,,,,,,,6,,,69,0
156862,note_on,94,0,3,,,,,,,,2,,,72,0
156862,note_on,46,0,2,,,,,,,,1,,,52,0
156862,note_on,94,0,4,,,,,,,,3,,,52,0
156864,note_on,2,0,3,,,,,,,,2,,,69,110
156864,note_on,2,0,8,,,,,,,,7,,,57,110
156864,note_on,2,0,4,,,,,,,,3,,,64,110
156864,note_on,2,0,1,,,,,,,,0,,,64,110
156864,note_on,2,0,7,,,,,,,,6,,,76,110
156864,note_on,2,0,2,,,,,,,,1,,,48,110
156910,note_on,46,0,1,,,,,,,,0,,,64,0
156910,note_on,46,0,2,,,,,,,,1,,,48,0
156912,note_on,2,0,1,,,,,,,,0,,,72,110
156912,note_on,2,0,2,,,,,,,,1,,,45,110
156928,note_on,2272,0,12,,,,,,,,12,,,52,0
156958,note_on,94,0,4,,,,,,,,3,,,64,0
156958,note_on,46,0,2,,,,,,,,1,,,45,0
156958,note_on,46,0,1,,,,,,,,0,,,72,0
156958,note_on,94,0,7,,,,,,,,6,,,76,0
156958,note_on,94,0,3,,,,,,,,2,,,69,0
156958,note_on,94,0,8,,,,,,,,7,,,57,0
156960,note_on,576,0,11,,,,,,,,11,,,64,0
156960,note_on,0,0,9,,,,,,,,8,,,74,45
156960,note_on,288,0,9,,,,,,,,8,,,72,0
156960,note_on,4802,0,6,,,,,,,,5,,,40,110
156960,note_on,32,0,12,,,,,,,,12,,,40,45
156960,note_on,0,0,11,,,,,,,,11,,,68,45
156960,note_on,2,0,7,,,,,,,,6,,,68,110
156960,note_on,2,0,8,,,,,,,,7,,,59,110
156960,note_on,4802,0,5,,,,,,,,4,,,64,110
156960,note_on,2,0,2,,,,,,,,1,,,40,110
156960,note_on,0,0,10,,,,,,,,10,,,71,45
156960,note_on,2,0,1,,,,,,,,0,,,71,110
156960,note_on,288,0,10,,,,,,,,10,,,69,0
156960,note_on,2,0,3,,,,,,,,2,,,68,110
157006,note_on,46,0,6,,,,,,,,5,,,40,0
157006,note_on,46,0,5,,,,,,,,4,,,64,0
157008,note_on,2,0,5,,,,,,,,4,,,71,110
157008,note_on,2,0,6,,,,,,,,5,,,52,110
157054,note_on,46,0,6,,,,,,,,5,,,52,0
157054,note_on,94,0,7,,,,,,,,6,,,68,0
157054,note_on,94,0,3,,,,,,,,2,,,68,0
157054,note_on,46,0,5,,,,,,,,4,,,71,0
157054,note_on,94,0,8,,,,,,,,7,,,59,0
157056,note_on,2,0,7,,,,,,,,6,,,71,110
157056,note_on,2,0,3,,,,,,,,2,,,68,110
157056,note_on,98,0,4,,,,,,,,3,,,64,110
157056,note_on,2,0,6,,,,,,,,5,,,56,110
157056,note_on,2,0,8,,,,,,,,7,,,52,110
157056,note_on,2,0,5,,,,,,,,4,,,64,110
157102,note_on,46,0,5,,,,,,,,4,,,64,0
157102,note_on,46,0,6,,,,,,,,5,,,56,0
157104,note_on,2,0,5,,,,,,,,4,,,71,110
157104,note_on,2,0,6,,,,,,,,5,,,52,110
157120,note_on,160,0,1,,,,,,,,0,,,71,0
157120,note_on,160,0,2,,,,,,,,1,,,40,0
157150,note_on,94,0,7,,,,,,,,6,,,71,0
157150,note_on,46,0,5,,,,,,,,4,,,71,0
157150,note_on,94,0,3,,,,,,,,2,,,68,0
157150,note_on,94,0,4,,,,,,,,3,,,64,0
157150,note_on,46,0,6,,,,,,,,5,,,52,0
157150,note_on,94,0,8,,,,,,,,7,,,52,0
157152,note_on,2,0,3,,,,,,,,2,,,76,110
157152,note_on,2,0,5,,,,,,,,4,,,64,110
157152,note_on,2,0,8,,,,,,,,7,,,64,110
157152,note_on,2,0,4,,,,,,,,3,,,62,110
157152,note_on,2,0,7,,,,,,,,6,,,68,110
157152,note_on,2,0,6,,,,,,,,5,,,47,110
157198,note_on,46,0,5,,,,,,,,4,,,64,0
157198,note_on,46,0,6,,,,,,,,5,,,47,0
157200,note_on,2,0,6,,,,,,,,5,,,44,110
157200,note_on,2,0,5,,,,,,,,4,,,71,110
157246,note_on,46,0,5,,,,,,,,4,,,71,0
157246,note_on,94,0,8,,,,,,,,7,,,64,0
157246,note_on,94,0,7,,,,,,,,6,,,68,0
157246,note_on,94,0,3,,,,,,,,2,,,76,0
157246,note_on,94,0,4,,,,,,,,3,,,62,0
157246,note_on,46,0,6,,,,,,,,5,,,44,0
157248,note_on,0,0,10,,,,,,,,10,,,69,45
157248,note_on,2,0,4,,,,,,,,3,,,60,110
157248,note_on,2,0,6,,,,,,,,5,,,40,110
157248,note_on,2,0,7,,,,,,,,6,,,69,110
157248,note_on,288,0,9,,,,,,,,8,,,74,0
157248,note_on,2,0,5,,,,,,,,4,,,64,110
157248,note_on,0,0,11,,,,,,,,11,,,64,45
157248,note_on,288,0,11,,,,,,,,11,,,68,0
157248,note_on,0,0,9,,,,,,,,8,,,72,45
157248,note_on,288,0,10,,,,,,,,10,,,71,0
157294,note_on,46,0,5,,,,,,,,4,,,64,0
157294,note_on,46,0,6,,,,,,,,5,,,40,0
157296,note_on,2,0,5,,,,,,,,4,,,72,110
157296,note_on,2,0,6,,,,,,,,5,,,52,110
157342,note_on,46,0,6,,,,,,,,5,,,52,0
157342,note_on,46,0,5,,,,,,,,4,,,72,0
157342,note_on,94,0,7,,,,,,,,6,,,69,0
157342,note_on,94,0,4,,,,,,,,3,,,60,0
157344,note_on,2,0,4,,,,,,,,3,,,60,110
157344,note_on,98,0,8,,,,,,,,7,,,52,110
157344,note_on,2,0,5,,,,,,,,4,,,64,110
157344,note_on,2,0,6,,,,,,,,5,,,57,110
157344,note_on,2,0,7,,,,,,,,6,,,72,110
157344,note_on,98,0,3,,,,,,,,2,,,69,110
157390,note_on,46,0,6,,,,,,,,5,,,57,0
157390,note_on,46,0,5,,,,,,,,4,,,64,0
157392,note_on,2,0,5,,,,,,,,4,,,72,110
157392,note_on,2,0,6,,,,,,,,5,,,52,110
157438,note_on,46,0,6,,,,,,,,5,,,52,0
157438,note_on,94,0,7,,,,,,,,6,,,72,0
157438,note_on,94,0,4,,,,,,,,3,,,60,0
157438,note_on,46,0,5,,,,,,,,4,,,72,0
157438,note_on,94,0,3,,,,,,,,2,,,69,0
157438,note_on,94,0,8,,,,,,,,7,,,52,0
157440,note_on,2,0,5,,,,,,,,4,,,64,110
157440,note_on,2,0,6,,,,,,,,5,,,48,110
157440,note_on,2,0,4,,,,,,,,3,,,60,110
157440,note_on,2,0,7,,,,,,,,6,,,69,110
157440,note_on,2,0,8,,,,,,,,7,,,64,110
157440,note_on,2,0,3,,,,,,,,2,,,76,110
157486,note_on,46,0,6,,,,,,,,5,,,48,0
157486,note_on,46,0,5,,,,,,,,4,,,64,0
157488,note_on,2,0,6,,,,,,,,5,,,45,110
157488,note_on,2,0,5,,,,,,,,4,,,72,110
157534,note_on,94,0,7,,,,,,,,6,,,69,0
157534,note_on,94,0,4,,,,,,,,3,,,60,0
157534,note_on,94,0,8,,,,,,,,7,,,64,0
157534,note_on,46,0,6,,,,,,,,5,,,45,0
157534,note_on,94,0,3,,,,,,,,2,,,76,0
157534,note_on,46,0,5,,,,,,,,4,,,72,0
157536,note_on,2,0,6,,,,,,,,5,,,40,110
157536,note_on,2,0,7,,,,,,,,6,,,71,110
157536,note_on,2,0,4,,,,,,,,3,,,56,110
157536,note_on,0,0,11,,,,,,,,11,,,62,45
157536,note_on,0,0,10,,,,,,,,10,,,68,45
157536,note_on,288,0,10,,,,,,,,10,,,69,0
157536,note_on,288,0,11,,,,,,,,11,,,64,0
157536,note_on,0,0,9,,,,,,,,8,,,71,45
157536,note_on,288,0,9,,,,,,,,8,,,72,0
157536,note_on,2,0,5,,,,,,,,4,,,64,110
157582,note_on,46,0,5,,,,,,,,4,,,64,0
157582,note_on,46,0,6,,,,,,,,5,,,40,0
157584,note_on,2,0,5,,,,,,,,4,,,74,110
157584,note_on,2,0,6,,,,,,,,5,,,52,110
157630,note_on,94,0,7,,,,,,,,6,,,71,0
157630,note_on,46,0,5,,,,,,,,4,,,74,0
157630,note_on,94,0,4,,,,,,,,3,,,56,0
157630,note_on,46,0,6,,,,,,,,5,,,52,0
157632,note_on,2,0,4,,,,,,,,3,,,56,110
157632,note_on,98,0,8,,,,,,,,7,,,52,110
157632,note_on,2,0,7,,,,,,,,6,,,74,110
157632,note_on,2,0,6,,,,,,,,5,,,56,110
157632,note_on,98,0,3,,,,,,,,2,,,71,110
157632,note_on,2,0,5,,,,,,,,4,,,64,110
157678,note_on,46,0,5,,,,,,,,4,,,64,0
157678,note_on,46,0,6,,,,,,,,5,,,56,0
157680,note_on,2,0,5,,,,,,,,4,,,74,110
157680,note_on,2,0,6,,,,,,,,5,,,52,110
157726,note_on,94,0,8,,,,,,,,7,,,52,0
157726,note_on,46,0,5,,,,,,,,4,,,74,0
157726,note_on,46,0,6,,,,,,,,5,,,52,0
157726,note_on,94,0,4,,,,,,,,3,,,56,0
157726,note_on,94,0,3,,,,,,,,2,,,71,0
157726,note_on,94,0,7,,,,,,,,6,,,74,0
157728,note_on,2,0,8,,,,,,,,7,,,64,110
157728,note_on,2,0,6,,,,,,,,5,,,47,110
157728,note_on,2,0,3,,,,,,,,2,,,76,110
157728,note_on,2,0,4,,,,,,,,3,,,56,110
157728,note_on,2,0,5,,,,,,,,4,,,64,110
157728,note_on,2,0,7,,,,,,,,6,,,71,110
157774,note_on,46,0,6,,,,,,,,5,,,47,0
157774,note_on,46,0,5,,,,,,,,4,,,64,0
157776,note_on,2,0,6,,,,,,,,5,,,44,110
157776,note_on,2,0,5,,,,,,,,4,,,74,110
157822,note_on,94,0,8,,,,,,,,7,,,64,0
157822,note_on,94,0,3,,,,,,,,2,,,76,0
157822,note_on,94,0,4,,,,,,,,3,,,56,0
157822,note_on,46,0,6,,,,,,,,5,,,44,0
157822,note_on,94,0,7,,,,,,,,6,,,71,0
157822,note_on,46,0,5,,,,,,,,4,,,74,0
157824,note_on,2,0,5,,,,,,,,4,,,64,110
157824,note_on,2,0,4,,,,,,,,3,,,57,110
157824,note_on,288,0,9,,,,,,,,8,,,71,0
157824,note_on,0,0,9,,,,,,,,8,,,69,45
157824,note_on,0,0,11,,,,,,,,11,,,60,45
157824,note_on,288,0,11,,,,,,,,11,,,62,0
157824,note_on,0,0,10,,,,,,,,10,,,64,45
157824,note_on,2,0,7,,,,,,,,6,,,69,110
157824,note_on,288,0,10,,,,,,,,10,,,68,0
157824,note_on,2,0,6,,,,,,,,5,,,40,110
157870,note_on,46,0,5,,,,,,,,4,,,64,0
157870,note_on,46,0,6,,,,,,,,5,,,40,0
157872,note_on,2,0,5,,,,,,,,4,,,72,110
157872,note_on,2,0,6,,,,,,,,5,,,52,110
157918,note_on,94,0,7,,,,,,,,6,,,69,0
157918,note_on,46,0,6,,,,,,,,5,,,52,0
157918,note_on,46,0,5,,,,,,,,4,,,72,0
157918,note_on,94,0,4,,,,,,,,3,,,57,0
157920,note_on,2,0,4,,,,,,,,3,,,57,110
157920,note_on,2,0,7,,,,,,,,6,,,72,110
157920,note_on,98,0,3,,,,,,,,2,,,69,110
157920,note_on,98,0,8,,,,,,,,7,,,52,110
157920,note_on,2,0,5,,,,,,,,4,,,64,110
157920,note_on,2,0,6,,,,,,,,5,,,57,110
157966,note_on,46,0,6,,,,,,,,5,,,57,0
157966,note_on,46,0,5,,,,,,,,4,,,64,0
157968,note_on,2,0,5,,,,,,,,4,,,72,110
157968,note_on,2,0,6,,,,,,,,5,,,52,110
158014,note_on,46,0,5,,,,,,,,4,,,72,0
158014,note_on,94,0,4,,,,,,,,3,,,57,0
158014,note_on,46,0,6,,,,,,,,5,,,52,0
158014,note_on,94,0,3,,,,,,,,2,,,69,0
158014,note_on,94,0,7,,,,,,,,6,,,72,0
158014,note_on,94,0,8,,,,,,,,7,,,52,0
158016,note_on,2,0,5,,,,,,,,4,,,64,110
158016,note_on,2,0,6,,,,,,,,5,,,48,110
158016,note_on,2,0,3,,,,,,,,2,,,76,110
158016,note_on,2,0,7,,,,,,,,6,,,69,110
158016,note_on,2,0,8,,,,,,,,7,,,64,110
158016,note_on,2,0,4,,,,,,,,3,,,57,110
158062,note_on,46,0,6,,,,,,,,5,,,48,0
158062,note_on,46,0,5,,,,,,,,4,,,64,0
158064,note_on,2,0,6,,,,,,,,5,,,45,110
158064,note_on,2,0,5,,,,,,,,4,,,72,110
158110,note_on,94,0,7,,,,,,,,6,,,69,0
158110,note_on,94,0,4,,,,,,,,3,,,57,0
158110,note_on,46,0,5,,,,,,,,4,,,72,0
158110,note_on,46,0,6,,,,,,,,5,,,45,0
158110,note_on,94,0,8,,,,,,,,7,,,64,0
158110,note_on,94,0,3,,,,,,,,2,,,76,0
158112,note_on,288,0,9,,,,,,,,8,,,69,0
158112,note_on,0,0,9,,,,,,,,8,,,68,45
158112,note_on,2,0,4,,,,,,,,3,,,59,110
158112,note_on,2,0,6,,,,,,,,5,,,40,110
158112,note_on,2,0,7,,,,,,,,6,,,68,110
158112,note_on,2,0,5,,,,,,,,4,,,64,110
158112,note_on,0,0,11,,,,,,,,11,,,59,45
158112,note_on,288,0,11,,,,,,,,11,,,60,0
158158,note_on,46,0,6,,,,,,,,5,,,40,0
158158,note_on,46,0,5,,,,,,,,4,,,64,0
158160,note_on,2,0,6,,,,,,,,5,,,52,110
158160,note_on,2,0,5,,,,,,,,4,,,71,110
158206,note_on,46,0,5,,,,,,,,4,,,71,0
158206,note_on,94,0,4,,,,,,,,3,,,59,0
158206,note_on,94,0,7,,,,,,,,6,,,68,0
158206,note_on,46,0,6,,,,,,,,5,,,52,0
158208,note_on,2,0,5,,,,,,,,4,,,64,110
158208,note_on,2,0,6,,,,,,,,5,,,56,110
158208,note_on,98,0,3,,,,,,,,2,,,68,110
158208,note_on,2,0,7,,,,,,,,6,,,71,110
158208,note_on,98,0,8,,,,,,,,7,,,52,110
158208,note_on,2,0,4,,,,,,,,3,,,64,110
158254,note_on,46,0,5,,,,,,,,4,,,64,0
158254,note_on,46,0,6,,,,,,,,5,,,56,0
158256,note_on,2,0,6,,,,,,,,5,,,52,110
158256,note_on,2,0,5,,,,,,,,4,,,71,110
158302,note_on,46,0,6,,,,,,,,5,,,52,0
158302,note_on,46,0,5,,,,,,,,4,,,71,0
158302,note_on,94,0,4,,,,,,,,3,,,64,0
158302,note_on,94,0,7,,,,,,,,6,,,71,0
158302,note_on,94,0,8,,,,,,,,7,,,52,0
158302,note_on,94,0,3,,,,,,,,2,,,68,0
158304,note_on,2,0,6,,,,,,,,5,,,47,110
158304,note_on,2,0,4,,,,,,,,3,,,62,110
158304,note_on,2,0,5,,,,,,,,4,,,64,110
158304,note_on,2,0,3,,,,,,,,2,,,76,110
158304,note_on,2,0,7,,,,,,,,6,,,68,110
158304,note_on,2,0,8,,,,,,,,7,,,64,110
158350,note_on,46,0,6,,,,,,,,5,,,47,0
158350,note_on,46,0,5,,,,,,,,4,,,64,0
158352,note_on,2,0,6,,,,,,,,5,,,44,110
158352,note_on,2,0,5,,,,,,,,4,,,71,110
158398,note_on,46,0,5,,,,,,,,4,,,71,0
158398,note_on,94,0,8,,,,,,,,7,,,64,0
158398,note_on,94,0,4,,,,,,,,3,,,62,0
158398,note_on,94,0,3,,,,,,,,2,,,76,0
158398,note_on,94,0,7,,,,,,,,6,,,68,0
158398,note_on,46,0,6,,,,,,,,5,,,44,0
158400,note_on,2,0,4,,,,,,,,3,,,60,110
158400,note_on,2,0,7,,,,,,,,6,,,69,110
158400,note_on,2,0,6,,,,,,,,5,,,40,110
158400,note_on,2,0,5,,,,,,,,4,,,64,110
158400,note_on,0,0,9,,,,,,,,8,,,69,45
158400,note_on,288,0,9,,,,,,,,8,,,68,0
158400,note_on,288,0,11,,,,,,,,11,,,59,0
158400,note_on,0,0,11,,,,,,,,11,,,60,45
158446,note_on,46,0,6,,,,,,,,5,,,40,0
158446,note_on,46,0,5,,,,,,,,4,,,64,0
158448,note_on,2,0,5,,,,,,,,4,,,72,110
158448,note_on,2,0,6,,,,,,,,5,,,52,110
158494,note_on,94,0,4,,,,,,,,3,,,60,0
158494,note_on,46,0,6,,,,,,,,5,,,52,0
158494,note_on,94,0,7,,,,,,,,6,,,69,0
158494,note_on,46,0,5,,,,,,,,4,,,72,0
158496,note_on,2,0,5,,,,,,,,4,,,64,110
158496,note_on,2,0,7,,,,,,,,6,,,72,110
158496,note_on,98,0,8,,,,,,,,7,,,52,110
158496,note_on,98,0,3,,,,,,,,2,,,69,110
158496,note_on,2,0,6,,,,,,,,5,,,57,110
158496,note_on,2,0,4,,,,,,,,3,,,60,110
158542,note_on,46,0,5,,,,,,,,4,,,64,0
158542,note_on,46,0,6,,,,,,,,5,,,57,0
158544,note_on,2,0,5,,,,,,,,4,,,72,110
158544,note_on,2,0,6,,,,,,,,5,,,52,110
158590,note_on,46,0,5,,,,,,,,4,,,72,0
158590,note_on,94,0,3,,,,,,,,2,,,69,0
158590,note_on,94,0,4,,,,,,,,3,,,60,0
158590,note_on,94,0,7,,,,,,,,6,,,72,0
158590,note_on,46,0,6,,,,,,,,5,,,52,0
158590,note_on,94,0,8,,,,,,,,7,,,52,0
158592,note_on,2,0,3,,,,,,,,2,,,76,110
158592,note_on,2,0,6,,,,,,,,5,,,48,110
158592,note_on,2,0,5,,,,,,,,4,,,64,110
158592,note_on,2,0,7,,,,,,,,6,,,69,110
158592,note_on,2,0,4,,,,,,,,3,,,60,110
158592,note_on,2,0,8,,,,,,,,7,,,64,110
158638,note_on,46,0,5,,,,,,,,4,,,64,0
158638,note_on,46,0,6,,,,,,,,5,,,48,0
158640,note_on,2,0,6,,,,,,,,5,,,45,110
158640,note_on,2,0,5,,,,,,,,4,,,72,110
158686,note_on,46,0,5,,,,,,,,4,,,72,0
158686,note_on,46,0,6,,,,,,,,5,,,45,0
158686,note_on,94,0,3,,,,,,,,2,,,76,0
158686,note_on,94,0,7,,,,,,,,6,,,69,0
158686,note_on,94,0,8,,,,,,,,7,,,64,0
158686,note_on,94,0,4,,,,,,,,3,,,60,0
158688,note_on,864,0,10,,,,,,,,10,,,64,0
158688,note_on,0,0,10,,,,,,,,10,,,68,45
158688,note_on,0,0,9,,,,,,,,8,,,71,45
158688,note_on,2,0,7,,,,,,,,6,,,71,110
158688,note_on,0,0,11,,,,,,,,11,,,64,45
158688,note_on,288,0,11,,,,,,,,11,,,60,0
158688,note_on,288,0,9,,,,,,,,8,,,69,0
158688,note_on,2,0,6,,,,,,,,5,,,40,110
158688,note_on,2,0,4,,,,,,,,3,,,56,110
158688,note_on,2,0,5,,,,,,,,4,,,64,110
158734,note_on,46,0,6,,,,,,,,5,,,40,0
158734,note_on,46,0,5,,,,,,,,4,,,64,0
158736,note_on,2,0,6,,,,,,,,5,,,52,110
158736,note_on,2,0,5,,,,,,,,4,,,74,110
158782,note_on,94,0,7,,,,,,,,6,,,71,0
158782,note_on,46,0,6,,,,,,,,5,,,52,0
158782,note_on,46,0,5,,,,,,,,4,,,74,0
158782,note_on,94,0,4,,,,,,,,3,,,56,0
158784,note_on,2,0,5,,,,,,,,4,,,64,110
158784,note_on,2,0,6,,,,,,,,5,,,56,110
158784,note_on,2,0,7,,,,,,,,6,,,74,110
158784,note_on,2,0,4,,,,,,,,3,,,56,110
158784,note_on,98,0,3,,,,,,,,2,,,71,110
158784,note_on,98,0,8,,,,,,,,7,,,52,110
158830,note_on,46,0,6,,,,,,,,5,,,56,0
158830,note_on,46,0,5,,,,,,,,4,,,64,0
158832,note_on,2,0,6,,,,,,,,5,,,52,110
158832,note_on,2,0,5,,,,,,,,4,,,74,110
158878,note_on,94,0,7,,,,,,,,6,,,74,0
158878,note_on,46,0,6,,,,,,,,5,,,52,0
158878,note_on,46,0,5,,,,,,,,4,,,74,0
158878,note_on,94,0,8,,,,,,,,7,,,52,0
158878,note_on,94,0,4,,,,,,,,3,,,56,0
158878,note_on,94,0,3,,,,,,,,2,,,71,0
158880,note_on,2,0,8,,,,,,,,7,,,64,110
158880,note_on,2,0,5,,,,,,,,4,,,64,110
158880,note_on,2,0,4,,,,,,,,3,,,56,110
158880,note_on,2,0,7,,,,,,,,6,,,71,110
158880,note_on,2,0,6,,,,,,,,5,,,47,110
158880,note_on,2,0,3,,,,,,,,2,,,76,110
158926,note_on,46,0,6,,,,,,,,5,,,47,0
158926,note_on,46,0,5,,,,,,,,4,,,64,0
158928,note_on,2,0,6,,,,,,,,5,,,44,110
158928,note_on,2,0,5,,,,,,,,4,,,74,110
158974,note_on,94,0,8,,,,,,,,7,,,64,0
158974,note_on,46,0,5,,,,,,,,4,,,74,0
158974,note_on,46,0,6,,,,,,,,5,,,44,0
158974,note_on,94,0,4,,,,,,,,3,,,56,0
158974,note_on,94,0,3,,,,,,,,2,,,76,0
158974,note_on,94,0,7,,,,,,,,6,,,71,0
158976,note_on,2,0,7,,,,,,,,6,,,69,110
158976,note_on,2,0,4,,,,,,,,3,,,57,110
158976,note_on,288,0,9,,,,,,,,8,,,71,0
158976,note_on,0,0,10,,,,,,,,10,,,69,45
158976,note_on,288,0,10,,,,,,,,10,,,68,0
158976,note_on,2,0,5,,,,,,,,4,,,64,110
158976,note_on,0,0,9,,,,,,,,8,,,72,45
158976,note_on,2,0,6,,,,,,,,5,,,40,110
159022,note_on,46,0,6,,,,,,,,5,,,40,0
159022,note_on,46,0,5,,,,,,,,4,,,64,0
159024,note_on,2,0,6,,,,,,,,5,,,52,110
159024,note_on,2,0,5,,,,,,,,4,,,72,110
159070,note_on,94,0,4,,,,,,,,3,,,57,0
159070,note_on,46,0,6,,,,,,,,5,,,52,0
159070,note_on,46,0,5,,,,,,,,4,,,72,0
159070,note_on,94,0,7,,,,,,,,6,,,69,0
159072,note_on,2,0,7,,,,,,,,6,,,72,110
159072,note_on,2,0,6,,,,,,,,5,,,57,110
159072,note_on,98,0,3,,,,,,,,2,,,69,110
159072,note_on,98,0,8,,,,,,,,7,,,52,110
159072,note_on,2,0,5,,,,,,,,4,,,64,110
159072,note_on,2,0,4,,,,,,,,3,,,57,110
159118,note_on,46,0,6,,,,,,,,5,,,57,0
159118,note_on,46,0,5,,,,,,,,4,,,64,0
159120,note_on,2,0,6,,,,,,,,5,,,52,110
159120,note_on,2,0,5,,,,,,,,4,,,72,110
159166,note_on,46,0,6,,,,,,,,5,,,52,0
159166,note_on,94,0,8,,,,,,,,7,,,52,0
159166,note_on,94,0,4,,,,,,,,3,,,57,0
159166,note_on,46,0,5,,,,,,,,4,,,72,0
159166,note_on,94,0,3,,,,,,,,2,,,69,0
159166,note_on,94,0,7,,,,,,,,6,,,72,0
159168,note_on,2,0,8,,,,,,,,7,,,64,110
159168,note_on,2,0,5,,,,,,,,4,,,64,110
159168,note_on,2,0,6,,,,,,,,5,,,48,110
159168,note_on,2,0,7,,,,,,,,6,,,69,110
159168,note_on,2,0,3,,,,,,,,2,,,76,110
159168,note_on,2,0,4,,,,,,,,3,,,57,110
159214,note_on,46,0,5,,,,,,,,4,,,64,0
159214,note_on,46,0,6,,,,,,,,5,,,48,0
159216,note_on,2,0,6,,,,,,,,5,,,45,110
159216,note_on,2,0,5,,,,,,,,4,,,72,110
159262,note_on,94,0,4,,,,,,,,3,,,57,0
159262,note_on,94,0,7,,,,,,,,6,,,69,0
159262,note_on,94,0,8,,,,,,,,7,,,64,0
159262,note_on,46,0,5,,,,,,,,4,,,72,0
159262,note_on,46,0,6,,,,,,,,5,,,45,0
159262,note_on,94,0,3,,,,,,,,2,,,76,0
159264,note_on,2,0,8,,,,,,,,7,,,52,110
159264,note_on,0,0,9,,,,,,,,8,,,71,45
159264,note_on,0,0,10,,,,,,,,10,,,68,45
159264,note_on,288,0,10,,,,,,,,10,,,69,0
159264,note_on,2,0,3,,,,,,,,2,,,68,110
159264,note_on,2,0,4,,,,,,,,3,,,59,110
159264,note_on,288,0,9,,,,,,,,8,,,72,0
159264,note_on,2,0,5,,,,,,,,4,,,71,110
159264,note_on,2,0,7,,,,,,,,6,,,68,110
159264,note_on,2,0,6,,,,,,,,5,,,40,110
159312,note_on,2192,0,2,,,,,,,,1,,,60,110
159358,note_on,46,0,2,,,,,,,,1,,,60,0
159360,note_on,2,0,2,,,,,,,,1,,,59,110
159406,note_on,46,0,2,,,,,,,,1,,,59,0
159408,note_on,2,0,2,,,,,,,,1,,,57,110
159424,note_on,160,0,9,,,,,,,,8,,,71,0
159424,note_on,160,0,6,,,,,,,,5,,,40,0
159424,note_on,160,0,10,,,,,,,,10,,,68,0
159424,note_on,160,0,3,,,,,,,,2,,,68,0
159424,note_on,160,0,5,,,,,,,,4,,,71,0
159424,note_on,160,0,7,,,,,,,,6,,,68,0
159424,note_on,160,0,4,,,,,,,,3,,,59,0
159424,note_on,2464,0,12,,,,,,,,12,,,40,0
159424,note_on,736,0,11,,,,,,,,11,,,64,0
159424,note_on,160,0,8,,,,,,,,7,,,52,0
159454,note_on,46,0,2,,,,,,,,1,,,57,0
159456,note_on,2336,0,1,,,,,,,,0,,,71,110
159456,note_on,2,0,2,,,,,,,,1,,,56,110
159502,note_on,46,0,2,,,,,,,,1,,,56,0
159504,note_on,2,0,2,,,,,,,,1,,,54,110
159550,note_on,94,0,1,,,,,,,,0,,,71,0
159550,note_on,46,0,2,,,,,,,,1,,,54,0
159552,note_on,2,0,2,,,,,,,,1,,,52,110
159552,note_on,2,0,1,,,,,,,,0,,,72,110
159598,note_on,46,0,1,,,,,,,,0,,,72,0
159600,note_on,2,0,1,,,,,,,,0,,,71,110
159646,note_on,94,0,2,,,,,,,,1,,,52,0
159646,note_on,46,0,1,,,,,,,,0,,,71,0
159648,note_on,2,0,2,,,,,,,,1,,,59,110
159648,note_on,2,0,1,,,,,,,,0,,,69,110
159694,note_on,46,0,1,,,,,,,,0,,,69,0
159696,note_on,2,0,1,,,,,,,,0,,,68,110
159742,note_on,46,0,1,,,,,,,,0,,,68,0
159742,note_on,94,0,2,,,,,,,,1,,,59,0
159744,note_on,2,0,1,,,,,,,,0,,,74,110
159744,note_on,2,0,2,,,,,,,,1,,,56,110
159838,note_on,94,0,1,,,,,,,,0,,,74,0
159838,note_on,94,0,2,,,,,,,,1,,,56,0
159840,note_on,2,0,1,,,,,,,,0,,,76,110
159840,note_on,2,0,2,,,,,,,,1,,,52,110
159886,note_on,46,0,1,,,,,,,,0,,,76,0
159888,note_on,2,0,1,,,,,,,,0,,,74,110
159934,note_on,46,0,1,,,,,,,,0,,,74,0
159934,note_on,94,0,2,,,,,,,,1,,,52,0
159936,note_on,2,0,1,,,,,,,,0,,,72,110
159936,note_on,2,0,2,,,,,,,,1,,,62,110
159982,note_on,46,0,1,,,,,,,,0,,,72,0
159984,note_on,2,0,1,,,,,,,,0,,,71,110
160030,note_on,46,0,1,,,,,,,,0,,,71,0
160030,note_on,94,0,2,,,,,,,,1,,,62,0
160032,note_on,2,0,1,,,,,,,,0,,,77,110
160032,note_on,2,0,2,,,,,,,,1,,,59,110
160126,note_on,94,0,1,,,,,,,,0,,,77,0
160126,note_on,94,0,2,,,,,,,,1,,,59,0
160128,note_on,2,0,2,,,,,,,,1,,,52,110
160128,note_on,2,0,1,,,,,,,,0,,,79,110
160174,note_on,46,0,1,,,,,,,,0,,,79,0
160176,note_on,2,0,1,,,,,,,,0,,,77,110
160222,note_on,46,0,1,,,,,,,,0,,,77,0
160222,note_on,94,0,2,,,,,,,,1,,,52,0
160224,note_on,2,0,1,,,,,,,,0,,,76,110
160224,note_on,2,0,2,,,,,,,,1,,,62,110
160270,note_on,46,0,1,,,,,,,,0,,,76,0
160272,note_on,2,0,1,,,,,,,,0,,,74,110
160318,note_on,94,0,2,,,,,,,,1,,,62,0
160318,note_on,46,0,1,,,,,,,,0,,,74,0
160320,note_on,2,0,1,,,,,,,,0,,,80,110
160320,note_on,2,0,2,,,,,,,,1,,,59,110
160414,note_on,94,0,1,,,,,,,,0,,,80,0
160414,note_on,94,0,2,,,,,,,,1,,,59,0
160416,note_on,2,0,1,,,,,,,,0,,,81,110
160416,note_on,2,0,2,,,,,,,,1,,,52,110
160462,note_on,46,0,1,,,,,,,,0,,,81,0
160462,note_on,46,0,2,,,,,,,,1,,,52,0
160464,note_on,2,0,1,,,,,,,,0,,,80,110
160464,note_on,2,0,2,,,,,,,,1,,,64,110
160510,note_on,46,0,1,,,,,,,,0,,,80,0
160510,note_on,46,0,2,,,,,,,,1,,,64,0
160512,note_on,2,0,2,,,,,,,,1,,,62,110
160512,note_on,2,0,1,,,,,,,,0,,,78,110
160558,note_on,46,0,2,,,,,,,,1,,,62,0
160558,note_on,46,0,1,,,,,,,,0,,,78,0
160560,note_on,2,0,2,,,,,,,,1,,,60,110
160560,note_on,2,0,1,,,,,,,,0,,,76,110
160606,note_on,46,0,2,,,,,,,,1,,,60,0
160606,note_on,46,0,1,,,,,,,,0,,,76,0
160608,note_on,2,0,1,,,,,,,,0,,,81,110
160608,note_on,2,0,2,,,,,,,,1,,,59,110
160654,note_on,46,0,2,,,,,,,,1,,,59,0
160656,note_on,2,0,2,,,,,,,,1,,,57,110
160702,note_on,94,0,1,,,,,,,,0,,,81,0
160702,note_on,46,0,2,,,,,,,,1,,,57,0
160704,note_on,2,0,2,,,,,,,,1,,,62,110
160704,note_on,2,0,1,,,,,,,,0,,,82,110
160750,note_on,46,0,1,,,,,,,,0,,,82,0
160752,note_on,2,0,1,,,,,,,,0,,,81,110
160798,note_on,46,0,1,,,,,,,,0,,,81,0
160798,note_on,94,0,2,,,,,,,,1,,,62,0
160800,note_on,2,0,2,,,,,,,,1,,,50,110
160800,note_on,2,0,1,,,,,,,,0,,,82,110
160846,note_on,46,0,1,,,,,,,,0,,,82,0
160848,note_on,2,0,1,,,,,,,,0,,,84,110
160894,note_on,46,0,1,,,,,,,,0,,,84,0
160894,note_on,94,0,2,,,,,,,,1,,,50,0
160896,note_on,2,0,1,,,,,,,,0,,,82,110
160896,note_on,2,0,2,,,,,,,,1,,,62,110
160942,note_on,46,0,1,,,,,,,,0,,,82,0
160944,note_on,2,0,1,,,,,,,,0,,,81,110
160990,note_on,94,0,2,,,,,,,,1,,,62,0
160990,note_on,46,0,1,,,,,,,,0,,,81,0
160992,note_on,2,0,2,,,,,,,,1,,,62,110
160992,note_on,2,0,1,,,,,,,,0,,,80,110
161038,note_on,46,0,1,,,,,,,,0,,,80,0
161040,note_on,2,0,1,,,,,,,,0,,,81,110
161086,note_on,46,0,1,,,,,,,,0,,,81,0
161086,note_on,94,0,2,,,,,,,,1,,,62,0
161088,note_on,2,0,1,,,,,,,,0,,,83,110
161088,note_on,2,0,2,,,,,,,,1,,,50,110
161134,note_on,46,0,1,,,,,,,,0,,,83,0
161136,note_on,2,0,1,,,,,,,,0,,,81,110
161182,note_on,46,0,1,,,,,,,,0,,,81,0
161182,note_on,94,0,2,,,,,,,,1,,,50,0
161184,note_on,2,0,1,,,,,,,,0,,,83,110
161184,note_on,2,0,2,,,,,,,,1,,,62,110
161230,note_on,46,0,1,,,,,,,,0,,,83,0
161232,note_on,2,0,1,,,,,,,,0,,,80,110
161278,note_on,94,0,2,,,,,,,,1,,,62,0
161278,note_on,46,0,1,,,,,,,,0,,,80,0
161280,note_on,2,0,1,,,,,,,,0,,,81,110
161280,note_on,2,0,2,,,,,,,,1,,,60,110
161326,note_on,46,0,2,,,,,,,,1,,,60,0
161326,note_on,46,0,1,,,,,,,,0,,,81,0
161328,note_on,2,0,2,,,,,,,,1,,,59,110
161328,note_on,2,0,1,,,,,,,,0,,,83,110
161374,note_on,46,0,1,,,,,,,,0,,,83,0
161374,note_on,46,0,2,,,,,,,,1,,,59,0
161376,note_on,2,0,2,,,,,,,,1,,,57,110
161376,note_on,2,0,1,,,,,,,,0,,,84,110
161422,note_on,46,0,2,,,,,,,,1,,,57,0
161422,note_on,46,0,1,,,,,,,,0,,,84,0
161424,note_on,2,0,2,,,,,,,,1,,,55,110
161424,note_on,2,0,1,,,,,,,,0,,,83,110
161470,note_on,46,0,2,,,,,,,,1,,,55,0
161470,note_on,46,0,1,,,,,,,,0,,,83,0
161472,note_on,2,0,1,,,,,,,,0,,,84,110
161472,note_on,2,0,2,,,,,,,,1,,,53,110
161518,note_on,46,0,1,,,,,,,,0,,,84,0
161518,note_on,46,0,2,,,,,,,,1,,,53,0
161520,note_on,2,0,2,,,,,,,,1,,,52,110
161520,note_on,2,0,1,,,,,,,,0,,,81,110
161566,note_on,46,0,1,,,,,,,,0,,,81,0
161566,note_on,46,0,2,,,,,,,,1,,,52,0
161568,note_on,2,0,2,,,,,,,,1,,,50,110
161568,note_on,2,0,1,,,,,,,,0,,,82,110
161614,note_on,46,0,2,,,,,,,,1,,,50,0
161614,note_on,46,0,1,,,,,,,,0,,,82,0
161616,note_on,2,0,1,,,,,,,,0,,,81,110
161616,note_on,2,0,2,,,,,,,,1,,,48,110
161662,note_on,46,0,1,,,,,,,,0,,,81,0
161662,note_on,46,0,2,,,,,,,,1,,,48,0
161664,note_on,2,0,1,,,,,,,,0,,,82,110
161664,note_on,2,0,2,,,,,,,,1,,,50,110
161710,note_on,46,0,2,,,,,,,,1,,,50,0
161710,note_on,46,0,1,,,,,,,,0,,,82,0
161712,note_on,2,0,1,,,,,,,,0,,,84,110
161712,note_on,2,0,2,,,,,,,,1,,,52,110
161758,note_on,46,0,2,,,,,,,,1,,,52,0
161758,note_on,46,0,1,,,,,,,,0,,,84,0
161760,note_on,2,0,1,,,,,,,,0,,,82,110
161760,note_on,2,0,2,,,,,,,,1,,,50,110
161806,note_on,46,0,1,,,,,,,,0,,,82,0
161806,note_on,46,0,2,,,,,,,,1,,,50,0
161808,note_on,2,0,2,,,,,,,,1,,,48,110
161808,note_on,2,0,1,,,,,,,,0,,,81,110
161854,note_on,46,0,2,,,,,,,,1,,,48,0
161854,note_on,46,0,1,,,,,,,,0,,,81,0
161856,note_on,2,0,2,,,,,,,,1,,,47,110
161856,note_on,2,0,1,,,,,,,,0,,,80,110
161902,note_on,46,0,2,,,,,,,,1,,,47,0
161902,note_on,46,0,1,,,,,,,,0,,,80,0
161904,note_on,2,0,2,,,,,,,,1,,,45,110
161904,note_on,2,0,1,,,,,,,,0,,,81,110
161950,note_on,46,0,2,,,,,,,,1,,,45,0
161950,note_on,46,0,1,,,,,,,,0,,,81,0
161952,note_on,2,0,1,,,,,,,,0,,,83,110
161952,note_on,2,0,2,,,,,,,,1,,,44,110
161998,note_on,46,0,2,,,,,,,,1,,,44,0
161998,note_on,46,0,1,,,,,,,,0,,,83,0
162000,note_on,2,0,1,,,,,,,,0,,,81,110
162000,note_on,2,0,2,,,,,,,,1,,,42,110
162046,note_on,46,0,1,,,,,,,,0,,,81,0
162046,note_on,46,0,2,,,,,,,,1,,,42,0
162048,note_on,2,0,1,,,,,,,,0,,,83,110
162048,note_on,2,0,2,,,,,,,,1,,,40,110
162094,note_on,46,0,1,,,,,,,,0,,,83,0
162094,note_on,46,0,2,,,,,,,,1,,,40,0
162096,note_on,2,0,2,,,,,,,,1,,,38,110
162096,note_on,2,0,1,,,,,,,,0,,,80,110
162142,note_on,46,0,2,,,,,,,,1,,,38,0
162142,note_on,46,0,1,,,,,,,,0,,,80,0
162144,note_on,2,0,2,,,,,,,,1,,,36,110
162144,note_on,2,0,1,,,,,,,,0,,,81,110
162190,note_on,46,0,1,,,,,,,,0,,,81,0
162190,note_on,46,0,2,,,,,,,,1,,,36,0
162192,note_on,2,0,1,,,,,,,,0,,,80,110
162192,note_on,2,0,2,,,,,,,,1,,,35,110
162238,note_on,46,0,1,,,,,,,,0,,,80,0
162238,note_on,46,0,2,,,,,,,,1,,,35,0
162240,note_on,2,0,1,,,,,,,,0,,,81,110
162240,note_on,2,0,2,,,,,,,,1,,,36,110
162286,note_on,46,0,2,,,,,,,,1,,,36,0
162286,note_on,46,0,1,,,,,,,,0,,,81,0
162288,note_on,2,0,1,,,,,,,,0,,,84,110
162288,note_on,2,0,2,,,,,,,,1,,,40,110
162334,note_on,46,0,1,,,,,,,,0,,,84,0
162334,note_on,46,0,2,,,,,,,,1,,,40,0
162336,note_on,2,0,1,,,,,,,,0,,,83,110
162336,note_on,2,0,2,,,,,,,,1,,,38,110
162382,note_on,46,0,1,,,,,,,,0,,,83,0
162382,note_on,46,0,2,,,,,,,,1,,,38,0
162384,note_on,2,0,1,,,,,,,,0,,,81,110
162384,note_on,2,0,2,,,,,,,,1,,,41,110
162430,note_on,46,0,1,,,,,,,,0,,,81,0
162430,note_on,46,0,2,,,,,,,,1,,,41,0
162432,note_on,2,0,2,,,,,,,,1,,,40,110
162432,note_on,2,0,1,,,,,,,,0,,,80,110
162478,note_on,46,0,2,,,,,,,,1,,,40,0
162478,note_on,46,0,1,,,,,,,,0,,,80,0
162480,note_on,2,0,2,,,,,,,,1,,,38,110
162480,note_on,2,0,1,,,,,,,,0,,,78,110
162526,note_on,46,0,1,,,,,,,,0,,,78,0
162526,note_on,46,0,2,,,,,,,,1,,,38,0
162528,note_on,2,0,1,,,,,,,,0,,,76,110
162528,note_on,2,0,2,,,,,,,,1,,,36,110
162574,note_on,46,0,2,,,,,,,,1,,,36,0
162576,note_on,2,0,2,,,,,,,,1,,,35,110
162622,note_on,94,0,1,,,,,,,,0,,,76,0
162622,note_on,46,0,2,,,,,,,,1,,,35,0
162624,note_on,2,0,2,,,,,,,,1,,,33,110
162670,note_on,46,0,2,,,,,,,,1,,,33,0
162672,note_on,2,0,2,,,,,,,,1,,,32,110
162718,note_on,46,0,2,,,,,,,,1,,,32,0
162720,note_on,2,0,2,,,,,,,,1,,,33,110
162720,note_on,3296,0,11,,,,,,,,11,,,72,45
162720,note_on,3296,0,10,,,,,,,,10,,,76,45
162720,note_on,3296,0,12,,,,,,,,12,,,45,45
162720,note_on,98,0,1,,,,,,,,0,,,72,110
162720,note_on,3296,0,4,,,,,,,,3,,,60,110
162720,note_on,3296,0,9,,,,,,,,8,,,81,45
162720,note_on,3296,0,3,,,,,,,,2,,,76,110
162766,note_on,46,0,1,,,,,,,,0,,,72,0
162768,note_on,2,0,1,,,,,,,,0,,,81,110
162814,note_on,46,0,1,,,,,,,,0,,,81,0
162814,note_on,94,0,10,,,,,,,,10,,,76,0
162814,note_on,94,0,3,,,,,,,,2,,,76,0
162814,note_on,94,0,11,,,,,,,,11,,,72,0
162814,note_on,94,0,12,,,,,,,,12,,,45,0
162814,note_on,94,0,4,,,,,,,,3,,,60,0
162814,note_on,94,0,9,,,,,,,,8,,,81,0
162816,note_on,2,0,3,,,,,,,,2,,,81,110
162816,note_on,3392,0,6,,,,,,,,5,,,60,110
162816,note_on,2,0,4,,,,,,,,3,,,72,110
162816,note_on,2,0,1,,,,,,,,0,,,72,110
162862,note_on,46,0,1,,,,,,,,0,,,72,0
162864,note_on,2,0,1,,,,,,,,0,,,81,110
162864,note_on,3440,0,7,,,,,,,,6,,,72,110
162880,note_on,160,0,2,,,,,,,,1,,,33,0
162910,note_on,46,0,1,,,,,,,,0,,,81,0
162910,note_on,94,0,4,,,,,,,,3,,,72,0
162910,note_on,94,0,6,,,,,,,,5,,,60,0
162910,note_on,46,0,7,,,,,,,,6,,,72,0
162910,note_on,94,0,3,,,,,,,,2,,,81,0
162912,note_on,2,0,6,,,,,,,,5,,,72,110
162912,note_on,3488,0,5,,,,,,,,4,,,81,110
162912,note_on,3488,0,8,,,,,,,,7,,,60,110
162912,note_on,2,0,7,,,,,,,,6,,,76,110
162912,note_on,2,0,1,,,,,,,,0,,,72,110
162958,note_on,46,0,1,,,,,,,,0,,,72,0
162958,note_on,46,0,7,,,,,,,,6,,,76,0
162960,note_on,2,0,1,,,,,,,,0,,,81,110
162960,note_on,2,0,7,,,,,,,,6,,,72,110
163006,note_on,94,0,5,,,,,,,,4,,,81,0
163006,note_on,94,0,6,,,,,,,,5,,,72,0
163006,note_on,94,0,8,,,,,,,,7,,,60,0
163006,note_on,46,0,1,,,,,,,,0,,,81,0
163006,note_on,46,0,7,,,,,,,,6,,,72,0
163008,note_on,194,0,10,,,,,,,,10,,,74,45
163008,note_on,2,0,7,,,,,,,,6,,,74,110
163008,note_on,98,0,3,,,,,,,,2,,,81,110
163008,note_on,194,0,11,,,,,,,,11,,,71,45
163008,note_on,2,0,1,,,,,,,,0,,,71,110
163008,note_on,194,0,12,,,,,,,,12,,,47,45
163008,note_on,98,0,4,,,,,,,,3,,,71,110
163008,note_on,2,0,5,,,,,,,,4,,,77,110
163008,note_on,194,0,9,,,,,,,,8,,,81,45
163008,note_on,128,0,2,,,,,,,,1,,,35,110
163008,note_on,2,0,8,,,,,,,,7,,,59,110
163054,note_on,46,0,7,,,,,,,,6,,,74,0
163054,note_on,46,0,1,,,,,,,,0,,,71,0
163056,note_on,2,0,7,,,,,,,,6,,,77,110
163056,note_on,2,0,1,,,,,,,,0,,,81,110
163102,note_on,94,0,12,,,,,,,,12,,,47,0
163102,note_on,94,0,11,,,,,,,,11,,,71,0
163102,note_on,94,0,10,,,,,,,,10,,,74,0
163102,note_on,46,0,7,,,,,,,,6,,,77,0
163102,note_on,94,0,5,,,,,,,,4,,,77,0
163102,note_on,94,0,4,,,,,,,,3,,,71,0
163102,note_on,94,0,9,,,,,,,,8,,,81,0
163102,note_on,46,0,1,,,,,,,,0,,,81,0
163102,note_on,94,0,3,,,,,,,,2,,,81,0
163102,note_on,94,0,8,,,,,,,,7,,,59,0
163104,note_on,2,0,3,,,,,,,,2,,,77,110
163104,note_on,2,0,7,,,,,,,,6,,,81,110
163104,note_on,2,0,5,,,,,,,,4,,,74,110
163104,note_on,2,0,4,,,,,,,,3,,,59,110
163104,note_on,2,0,1,,,,,,,,0,,,71,110
163104,note_on,98,0,6,,,,,,,,5,,,71,110
163150,note_on,46,0,1,,,,,,,,0,,,71,0
163152,note_on,2,0,1,,,,,,,,0,,,81,110
163168,note_on,160,0,2,,,,,,,,1,,,35,0
163198,note_on,94,0,5,,,,,,,,4,,,74,0
163198,note_on,94,0,3,,,,,,,,2,,,77,0
163198,note_on,94,0,7,,,,,,,,6,,,81,0
163198,note_on,46,0,1,,,,,,,,0,,,81,0
163198,note_on,94,0,6,,,,,,,,5,,,71,0
163198,note_on,94,0,4,,,,,,,,3,,,59,0
163200,note_on,2,0,5,,,,,,,,4,,,71,110
163200,note_on,2,0,3,,,,,,,,2,,,74,110
163200,note_on,2,0,6,,,,,,,,5,,,59,110
163200,note_on,98,0,8,,,,,,,,7,,,71,110
163200,note_on,2,0,1,,,,,,,,0,,,71,110
163246,note_on,46,0,1,,,,,,,,0,,,71,0
163248,note_on,2,0,1,,,,,,,,0,,,81,110
163294,note_on,94,0,5,,,,,,,,4,,,71,0
163294,note_on,94,0,8,,,,,,,,7,,,71,0
163294,note_on,94,0,3,,,,,,,,2,,,74,0
163294,note_on,46,0,1,,,,,,,,0,,,81,0
163294,note_on,94,0,6,,,,,,,,5,,,59,0
163296,note_on,194,0,11,,,,,,,,11,,,71,45
163296,note_on,128,0,2,,,,,,,,1,,,40,110
163296,note_on,2,0,5,,,,,,,,4,,,71,110
163296,note_on,2,0,8,,,,,,,,7,,,59,110
163296,note_on,2,0,1,,,,,,,,0,,,71,110
163296,note_on,194,0,12,,,,,,,,12,,,52,45
163296,note_on,98,0,4,,,,,,,,3,,,59,110
163296,note_on,2,0,3,,,,,,,,2,,,74,110
163296,note_on,194,0,9,,,,,,,,8,,,79,45
163296,note_on,194,0,10,,,,,,,,10,,,74,45
163342,note_on,46,0,1,,,,,,,,0,,,71,0
163342,note_on,46,0,5,,,,,,,,4,,,71,0
163344,note_on,2,0,1,,,,,,,,0,,,79,110
163344,note_on,2,0,5,,,,,,,,4,,,69,110
163390,note_on,46,0,1,,,,,,,,0,,,79,0
163390,note_on,46,0,5,,,,,,,,4,,,69,0
163390,note_on,94,0,11,,,,,,,,11,,,71,0
163390,note_on,94,0,8,,,,,,,,7,,,59,0
163390,note_on,94,0,9,,,,,,,,8,,,79,0
163390,note_on,94,0,10,,,,,,,,10,,,74,0
163390,note_on,94,0,12,,,,,,,,12,,,52,0
163390,note_on,94,0,4,,,,,,,,3,,,59,0
163390,note_on,94,0,3,,,,,,,,2,,,74,0
163392,note_on,2,0,4,,,,,,,,3,,,71,110
163392,note_on,2,0,1,,,,,,,,0,,,71,110
163392,note_on,2,0,3,,,,,,,,2,,,79,110
163392,note_on,98,0,6,,,,,,,,5,,,59,110
163392,note_on,2,0,5,,,,,,,,4,,,71,110
163438,note_on,46,0,1,,,,,,,,0,,,71,0
163440,note_on,2,0,1,,,,,,,,0,,,79,110
163440,note_on,242,0,7,,,,,,,,6,,,71,110
163456,note_on,160,0,2,,,,,,,,1,,,40,0
163486,note_on,94,0,3,,,,,,,,2,,,79,0
163486,note_on,46,0,1,,,,,,,,0,,,79,0
163486,note_on,94,0,4,,,,,,,,3,,,71,0
163486,note_on,94,0,5,,,,,,,,4,,,71,0
163486,note_on,94,0,6,,,,,,,,5,,,59,0
163486,note_on,46,0,7,,,,,,,,6,,,71,0
163488,note_on,2,0,1,,,,,,,,0,,,71,110
163488,note_on,2,0,7,,,,,,,,6,,,74,110
163488,note_on,2,0,6,,,,,,,,5,,,71,110
163488,note_on,98,0,8,,,,,,,,7,,,59,110
163488,note_on,2,0,5,,,,,,,,4,,,79,110
163534,note_on,46,0,7,,,,,,,,6,,,74,0
163534,note_on,46,0,1,,,,,,,,0,,,71,0
163536,note_on,2,0,1,,,,,,,,0,,,79,110
163536,note_on,2,0,7,,,,,,,,6,,,71,110
163582,note_on,46,0,1,,,,,,,,0,,,79,0
163582,note_on,94,0,6,,,,,,,,5,,,71,0
163582,note_on,94,0,5,,,,,,,,4,,,79,0
163582,note_on,46,0,7,,,,,,,,6,,,71,0
163582,note_on,94,0,8,,,,,,,,7,,,59,0
163584,note_on,98,0,3,,,,,,,,2,,,79,110
163584,note_on,194,0,10,,,,,,,,10,,,72,45
163584,note_on,98,0,4,,,,,,,,3,,,69,110
163584,note_on,2,0,5,,,,,,,,4,,,76,110
163584,note_on,194,0,11,,,,,,,,11,,,69,45
163584,note_on,194,0,12,,,,,,,,12,,,45,45
163584,note_on,2,0,8,,,,,,,,7,,,57,110
163584,note_on,2,0,7,,,,,,,,6,,,72,110
163584,note_on,2,0,1,,,,,,,,0,,,69,110
163584,note_on,194,0,9,,,,,,,,8,,,79,45
163584,note_on,128,0,2,,,,,,,,1,,,45,110
163630,note_on,46,0,7,,,,,,,,6,,,72,0
163630,note_on,46,0,1,,,,,,,,0,,,69,0
163632,note_on,2,0,7,,,,,,,,6,,,76,110
163632,note_on,2,0,1,,,,,,,,0,,,79,110
163678,note_on,94,0,4,,,,,,,,3,,,69,0
163678,note_on,94,0,5,,,,,,,,4,,,76,0
163678,note_on,94,0,3,,,,,,,,2,,,79,0
163678,note_on,94,0,9,,,,,,,,8,,,79,0
163678,note_on,94,0,12,,,,,,,,12,,,45,0
163678,note_on,94,0,10,,,,,,,,10,,,72,0
163678,note_on,46,0,7,,,,,,,,6,,,76,0
163678,note_on,46,0,1,,,,,,,,0,,,79,0
163678,note_on,94,0,11,,,,,,,,11,,,69,0
163678,note_on,94,0,8,,,,,,,,7,,,57,0
163680,note_on,2,0,1,,,,,,,,0,,,69,110
163680,note_on,98,0,6,,,,,,,,5,,,69,110
163680,note_on,2,0,4,,,,,,,,3,,,57,110
163680,note_on,2,0,3,,,,,,,,2,,,76,110
163680,note_on,2,0,7,,,,,,,,6,,,79,110
163680,note_on,2,0,5,,,,,,,,4,,,72,110
163726,note_on,46,0,1,,,,,,,,0,,,69,0
163728,note_on,2,0,1,,,,,,,,0,,,79,110
163744,note_on,160,0,2,,,,,,,,1,,,45,0
163774,note_on,46,0,1,,,,,,,,0,,,79,0
163774,note_on,94,0,7,,,,,,,,6,,,79,0
163774,note_on,94,0,4,,,,,,,,3,,,57,0
163774,note_on,94,0,3,,,,,,,,2,,,76,0
163774,note_on,94,0,6,,,,,,,,5,,,69,0
163774,note_on,94,0,5,,,,,,,,4,,,72,0
163776,note_on,2,0,3,,,,,,,,2,,,72,110
163776,note_on,2,0,1,,,,,,,,0,,,69,110
163776,note_on,2,0,5,,,,,,,,4,,,69,110
163776,note_on,2,0,6,,,,,,,,5,,,57,110
163776,note_on,98,0,8,,,,,,,,7,,,69,110
163822,note_on,46,0,1,,,,,,,,0,,,69,0
163824,note_on,2,0,1,,,,,,,,0,,,79,110
163870,note_on,94,0,6,,,,,,,,5,,,57,0
163870,note_on,46,0,1,,,,,,,,0,,,79,0
163870,note_on,94,0,5,,,,,,,,4,,,69,0
163870,note_on,94,0,8,,,,,,,,7,,,69,0
163870,note_on,94,0,3,,,,,,,,2,,,72,0
163872,note_on,98,0,4,,,,,,,,3,,,57,110
163872,note_on,194,0,10,,,,,,,,10,,,72,45
163872,note_on,194,0,9,,,,,,,,8,,,77,45
163872,note_on,2,0,8,,,,,,,,7,,,57,110
163872,note_on,2,0,3,,,,,,,,2,,,72,110
163872,note_on,2,0,5,,,,,,,,4,,,69,110
163872,note_on,194,0,12,,,,,,,,12,,,50,45
163872,note_on,128,0,2,,,,,,,,1,,,50,110
163872,note_on,194,0,11,,,,,,,,11,,,69,45
163872,note_on,2,0,1,,,,,,,,0,,,69,110
163918,note_on,46,0,1,,,,,,,,0,,,69,0
163918,note_on,46,0,5,,,,,,,,4,,,69,0
163920,note_on,2,0,1,,,,,,,,0,,,77,110
163920,note_on,2,0,5,,,,,,,,4,,,67,110
163966,note_on,94,0,8,,,,,,,,7,,,57,0
163966,note_on,46,0,5,,,,,,,,4,,,67,0
163966,note_on,94,0,11,,,,,,,,11,,,69,0
163966,note_on,46,0,1,,,,,,,,0,,,77,0
163966,note_on,94,0,10,,,,,,,,10,,,72,0
163966,note_on,94,0,4,,,,,,,,3,,,57,0
163966,note_on,94,0,3,,,,,,,,2,,,72,0
163966,note_on,94,0,9,,,,,,,,8,,,77,0
163966,note_on,94,0,12,,,,,,,,12,,,50,0
163968,note_on,2,0,5,,,,,,,,4,,,69,110
163968,note_on,2,0,3,,,,,,,,2,,,77,110
163968,note_on,2,0,1,,,,,,,,0,,,69,110
163968,note_on,98,0,6,,,,,,,,5,,,57,110
163968,note_on,2,0,4,,,,,,,,3,,,69,110
164014,note_on,46,0,1,,,,,,,,0,,,69,0
164016,note_on,242,0,7,,,,,,,,6,,,69,110
164016,note_on,2,0,1,,,,,,,,0,,,77,110
164032,note_on,160,0,2,,,,,,,,1,,,50,0
164062,note_on,46,0,7,,,,,,,,6,,,69,0
164062,note_on,46,0,1,,,,,,,,0,,,77,0
164062,note_on,94,0,3,,,,,,,,2,,,77,0
164062,note_on,94,0,4,,,,,,,,3,,,69,0
164062,note_on,94,0,5,,,,,,,,4,,,69,0
164062,note_on,94,0,6,,,,,,,,5,,,57,0
164064,note_on,2,0,5,,,,,,,,4,,,77,110
164064,note_on,98,0,8,,,,,,,,7,,,57,110
164064,note_on,2,0,1,,,,,,,,0,,,69,110
164064,note_on,2,0,6,,,,,,,,5,,,69,110
164064,note_on,2,0,7,,,,,,,,6,,,72,110
164110,note_on,46,0,7,,,,,,,,6,,,72,0
164110,note_on,46,0,1,,,,,,,,0,,,69,0
164112,note_on,2,0,7,,,,,,,,6,,,69,110
164112,note_on,2,0,1,,,,,,,,0,,,77,110
164158,note_on,46,0,7,,,,,,,,6,,,69,0
164158,note_on,46,0,1,,,,,,,,0,,,77,0
164158,note_on,94,0,5,,,,,,,,4,,,77,0
164158,note_on,94,0,8,,,,,,,,7,,,57,0
164158,note_on,94,0,6,,,,,,,,5,,,69,0
164160,note_on,194,0,12,,,,,,,,12,,,43,45
164160,note_on,2,0,1,,,,,,,,0,,,67,110
164160,note_on,98,0,4,,,,,,,,3,,,67,110
164160,note_on,98,0,3,,,,,,,,2,,,77,110
164160,note_on,2,0,8,,,,,,,,7,,,55,110
164160,note_on,2,0,7,,,,,,,,6,,,71,110
164160,note_on,194,0,11,,,,,,,,11,,,67,45
164160,note_on,128,0,2,,,,,,,,1,,,55,110
164160,note_on,194,0,10,,,,,,,,10,,,71,45
164160,note_on,194,0,9,,,,,,,,8,,,77,45
164160,note_on,2,0,5,,,,,,,,4,,,74,110
164206,note_on,46,0,7,,,,,,,,6,,,71,0
164206,note_on,46,0,1,,,,,,,,0,,,67,0
164208,note_on,2,0,1,,,,,,,,0,,,77,110
164208,note_on,2,0,7,,,,,,,,6,,,74,110
164254,note_on,94,0,12,,,,,,,,12,,,43,0
164254,note_on,94,0,10,,,,,,,,10,,,71,0
164254,note_on,94,0,3,,,,,,,,2,,,77,0
164254,note_on,94,0,9,,,,,,,,8,,,77,0
164254,note_on,94,0,5,,,,,,,,4,,,74,0
164254,note_on,94,0,8,,,,,,,,7,,,55,0
164254,note_on,46,0,1,,,,,,,,0,,,77,0
164254,note_on,94,0,11,,,,,,,,11,,,67,0
164254,note_on,46,0,7,,,,,,,,6,,,74,0
164254,note_on,94,0,4,,,,,,,,3,,,67,0
164256,note_on,2,0,1,,,,,,,,0,,,67,110
164256,note_on,2,0,3,,,,,,,,2,,,74,110
164256,note_on,2,0,7,,,,,,,,6,,,77,110
164256,note_on,2,0,4,,,,,,,,3,,,55,110
164256,note_on,2,0,5,,,,,,,,4,,,71,110
164256,note_on,98,0,6,,,,,,,,5,,,67,110
164302,note_on,46,0,1,,,,,,,,0,,,67,0
164304,note_on,2,0,1,,,,,,,,0,,,77,110
164320,note_on,160,0,2,,,,,,,,1,,,55,0
164350,note_on,46,0,1,,,,,,,,0,,,77,0
164350,note_on,94,0,6,,,,,,,,5,,,67,0
164350,note_on,94,0,7,,,,,,,,6,,,77,0
164350,note_on,94,0,4,,,,,,,,3,,,55,0
164350,note_on,94,0,5,,,,,,,,4,,,71,0
164350,note_on,94,0,3,,,,,,,,2,,,74,0
164352,note_on,2,0,1,,,,,,,,0,,,67,110
164352,note_on,2,0,3,,,,,,,,2,,,71,110
164352,note_on,98,0,8,,,,,,,,7,,,67,110
164352,note_on,2,0,6,,,,,,,,5,,,55,110
164352,note_on,2,0,5,,,,,,,,4,,,67,110
164398,note_on,46,0,1,,,,,,,,0,,,67,0
164400,note_on,2,0,1,,,,,,,,0,,,77,110
164446,note_on,94,0,6,,,,,,,,5,,,55,0
164446,note_on,94,0,5,,,,,,,,4,,,67,0
164446,note_on,94,0,3,,,,,,,,2,,,71,0
164446,note_on,94,0,8,,,,,,,,7,,,67,0
164446,note_on,46,0,1,,,,,,,,0,,,77,0
164448,note_on,128,0,2,,,,,,,,1,,,48,110
164448,note_on,2,0,8,,,,,,,,7,,,55,110
164448,note_on,194,0,10,,,,,,,,10,,,71,45
164448,note_on,194,0,11,,,,,,,,11,,,67,45
164448,note_on,2,0,5,,,,,,,,4,,,67,110
164448,note_on,2,0,3,,,,,,,,2,,,71,110
164448,note_on,194,0,12,,,,,,,,12,,,48,45
164448,note_on,194,0,9,,,,,,,,8,,,76,45
164448,note_on,98,0,4,,,,,,,,3,,,55,110
164448,note_on,2,0,1,,,,,,,,0,,,67,110
164494,note_on,46,0,5,,,,,,,,4,,,67,0
164494,note_on,46,0,1,,,,,,,,0,,,67,0
164496,note_on,2,0,1,,,,,,,,0,,,76,110
164496,note_on,2,0,5,,,,,,,,4,,,65,110
164542,note_on,46,0,5,,,,,,,,4,,,65,0
164542,note_on,46,0,1,,,,,,,,0,,,76,0
164542,note_on,94,0,12,,,,,,,,12,,,48,0
164542,note_on,94,0,9,,,,,,,,8,,,76,0
164542,note_on,94,0,11,,,,,,,,11,,,67,0
164542,note_on,94,0,3,,,,,,,,2,,,71,0
164542,note_on,94,0,10,,,,,,,,10,,,71,0
164542,note_on,94,0,8,,,,,,,,7,,,55,0
164542,note_on,94,0,4,,,,,,,,3,,,55,0
164544,note_on,98,0,6,,,,,,,,5,,,55,110
164544,note_on,2,0,4,,,,,,,,3,,,67,110
164544,note_on,2,0,3,,,,,,,,2,,,76,110
164544,note_on,2,0,1,,,,,,,,0,,,67,110
164544,note_on,2,0,5,,,,,,,,4,,,67,110
164590,note_on,46,0,1,,,,,,,,0,,,67,0
164592,note_on,242,0,7,,,,,,,,6,,,67,110
164592,note_on,2,0,1,,,,,,,,0,,,76,110
164608,note_on,160,0,2,,,,,,,,1,,,48,0
164638,note_on,94,0,4,,,,,,,,3,,,67,0
164638,note_on,94,0,3,,,,,,,,2,,,76,0
164638,note_on,94,0,6,,,,,,,,5,,,55,0
164638,note_on,46,0,1,,,,,,,,0,,,76,0
164638,note_on,94,0,5,,,,,,,,4,,,67,0
164638,note_on,46,0,7,,,,,,,,6,,,67,0
164640,note_on,2,0,5,,,,,,,,4,,,76,110
164640,note_on,2,0,7,,,,,,,,6,,,71,110
164640,note_on,2,0,1,,,,,,,,0,,,67,110
164640,note_on,2,0,6,,,,,,,,5,,,67,110
164640,note_on,98,0,8,,,,,,,,7,,,55,110
164686,note_on,46,0,1,,,,,,,,0,,,67,0
164686,note_on,46,0,7,,,,,,,,6,,,71,0
164688,note_on,2,0,1,,,,,,,,0,,,76,110
164688,note_on,2,0,7,,,,,,,,6,,,67,110
164734,note_on,46,0,7,,,,,,,,6,,,67,0
164734,note_on,94,0,8,,,,,,,,7,,,55,0
164734,note_on,94,0,6,,,,,,,,5,,,67,0
164734,note_on,46,0,1,,,,,,,,0,,,76,0
164734,note_on,94,0,5,,,,,,,,4,,,76,0
164736,note_on,2,0,5,,,,,,,,4,,,72,110
164736,note_on,194,0,12,,,,,,,,12,,,53,45
164736,note_on,128,0,2,,,,,,,,1,,,53,110
164736,note_on,194,0,10,,,,,,,,10,,,69,45
164736,note_on,98,0,4,,,,,,,,3,,,65,110
164736,note_on,2,0,8,,,,,,,,7,,,53,110
164736,note_on,194,0,9,,,,,,,,8,,,76,45
164736,note_on,2,0,1,,,,,,,,0,,,65,110
164736,note_on,194,0,11,,,,,,,,11,,,65,45
164736,note_on,98,0,3,,,,,,,,2,,,76,110
164736,note_on,2,0,7,,,,,,,,6,,,69,110
164782,note_on,46,0,1,,,,,,,,0,,,65,0
164782,note_on,46,0,7,,,,,,,,6,,,69,0
164784,note_on,2,0,1,,,,,,,,0,,,76,110
164784,note_on,2,0,7,,,,,,,,6,,,72,110
164830,note_on,94,0,5,,,,,,,,4,,,72,0
164830,note_on,94,0,12,,,,,,,,12,,,53,0
164830,note_on,46,0,7,,,,,,,,6,,,72,0
164830,note_on,94,0,4,,,,,,,,3,,,65,0
164830,note_on,94,0,3,,,,,,,,2,,,76,0
164830,note_on,94,0,9,,,,,,,,8,,,76,0
164830,note_on,94,0,8,,,,,,,,7,,,53,0
164830,note_on,46,0,1,,,,,,,,0,,,76,0
164830,note_on,94,0,11,,,,,,,,11,,,65,0
164830,note_on,94,0,10,,,,,,,,10,,,69,0
164832,note_on,2,0,7,,,,,,,,6,,,76,110
164832,note_on,2,0,1,,,,,,,,0,,,65,110
164832,note_on,2,0,3,,,,,,,,2,,,72,110
164832,note_on,2,0,4,,,,,,,,3,,,53,110
164832,note_on,2,0,5,,,,,,,,4,,,69,110
164832,note_on,98,0,6,,,,,,,,5,,,65,110
164878,note_on,46,0,1,,,,,,,,0,,,65,0
164880,note_on,2,0,1,,,,,,,,0,,,76,110
164896,note_on,160,0,2,,,,,,,,1,,,53,0
164926,note_on,94,0,4,,,,,,,,3,,,53,0
164926,note_on,94,0,5,,,,,,,,4,,,69,0
164926,note_on,94,0,3,,,,,,,,2,,,72,0
164926,note_on,46,0,1,,,,,,,,0,,,76,0
164926,note_on,94,0,6,,,,,,,,5,,,65,0
164926,note_on,94,0,7,,,,,,,,6,,,76,0
164928,note_on,2,0,3,,,,,,,,2,,,69,110
164928,note_on,2,0,1,,,,,,,,0,,,65,110
164928,note_on,2,0,6,,,,,,,,5,,,53,110
164928,note_on,98,0,8,,,,,,,,7,,,65,110
164928,note_on,2,0,5,,,,,,,,4,,,65,110
164974,note_on,46,0,1,,,,,,,,0,,,65,0
164976,note_on,2,0,1,,,,,,,,0,,,76,110
165022,note_on,94,0,8,,,,,,,,7,,,65,0
165022,note_on,46,0,1,,,,,,,,0,,,76,0
165022,note_on,94,0,6,,,,,,,,5,,,53,0
165022,note_on,94,0,5,,,,,,,,4,,,65,0
165022,note_on,94,0,3,,,,,,,,2,,,69,0
165024,note_on,194,0,10,,,,,,,,10,,,69,45
165024,note_on,98,0,4,,,,,,,,3,,,53,110
165024,note_on,194,0,9,,,,,,,,8,,,74,45
165024,note_on,2,0,3,,,,,,,,2,,,69,110
165024,note_on,194,0,12,,,,,,,,12,,,47,45
165024,note_on,2,0,1,,,,,,,,0,,,65,110
165024,note_on,194,0,11,,,,,,,,11,,,65,45
165024,note_on,2,0,5,,,,,,,,4,,,65,110
165024,note_on,2,0,8,,,,,,,,7,,,53,110
165024,note_on,128,0,2,,,,,,,,1,,,47,110
165070,note_on,46,0,1,,,,,,,,0,,,65,0
165070,note_on,46,0,5,,,,,,,,4,,,65,0
165072,note_on,2,0,5,,,,,,,,4,,,64,110
165072,note_on,2,0,1,,,,,,,,0,,,74,110
165118,note_on,94,0,12,,,,,,,,12,,,47,0
165118,note_on,94,0,8,,,,,,,,7,,,53,0
165118,note_on,46,0,1,,,,,,,,0,,,74,0
165118,note_on,94,0,11,,,,,,,,11,,,65,0
165118,note_on,46,0,5,,,,,,,,4,,,64,0
165118,note_on,94,0,9,,,,,,,,8,,,74,0
165118,note_on,94,0,3,,,,,,,,2,,,69,0
165118,note_on,94,0,10,,,,,,,,10,,,69,0
165118,note_on,94,0,4,,,,,,,,3,,,53,0
165120,note_on,2,0,5,,,,,,,,4,,,65,110
165120,note_on,2,0,1,,,,,,,,0,,,65,110
165120,note_on,2,0,3,,,,,,,,2,,,74,110
165120,note_on,98,0,6,,,,,,,,5,,,53,110
165120,note_on,2,0,4,,,,,,,,3,,,65,110
165166,note_on,46,0,1,,,,,,,,0,,,65,0
165168,note_on,2,0,1,,,,,,,,0,,,74,110
165168,note_on,242,0,7,,,,,,,,6,,,65,110
165184,note_on,160,0,2,,,,,,,,1,,,47,0
165214,note_on,46,0,7,,,,,,,,6,,,65,0
165214,note_on,94,0,4,,,,,,,,3,,,65,0
165214,note_on,94,0,5,,,,,,,,4,,,65,0
165214,note_on,94,0,6,,,,,,,,5,,,53,0
165214,note_on,46,0,1,,,,,,,,0,,,74,0
165214,note_on,94,0,3,,,,,,,,2,,,74,0
165216,note_on,2,0,6,,,,,,,,5,,,65,110
165216,note_on,2,0,7,,,,,,,,6,,,69,110
165216,note_on,2,0,1,,,,,,,,0,,,65,110
165216,note_on,98,0,8,,,,,,,,7,,,53,110
165216,note_on,2,0,5,,,,,,,,4,,,74,110
165262,note_on,46,0,1,,,,,,,,0,,,65,0
165262,note_on,46,0,7,,,,,,,,6,,,69,0
165264,note_on,2,0,7,,,,,,,,6,,,65,110
165264,note_on,2,0,1,,,,,,,,0,,,74,110
165310,note_on,46,0,7,,,,,,,,6,,,65,0
165310,note_on,94,0,6,,,,,,,,5,,,65,0
165310,note_on,46,0,1,,,,,,,,0,,,74,0
165310,note_on,94,0,8,,,,,,,,7,,,53,0
165310,note_on,94,0,5,,,,,,,,4,,,74,0
165312,note_on,128,0,2,,,,,,,,1,,,52,110
165312,note_on,194,0,10,,,,,,,,10,,,67,45
165312,note_on,2,0,8,,,,,,,,7,,,52,110
165312,note_on,2,0,1,,,,,,,,0,,,64,110
165312,note_on,98,0,4,,,,,,,,3,,,64,110
165312,note_on,194,0,11,,,,,,,,11,,,64,45
165312,note_on,194,0,9,,,,,,,,8,,,74,45
165312,note_on,2,0,7,,,,,,,,6,,,67,110
165312,note_on,98,0,3,,,,,,,,2,,,74,110
165312,note_on,194,0,12,,,,,,,,12,,,52,45
165312,note_on,2,0,5,,,,,,,,4,,,71,110
165358,note_on,46,0,7,,,,,,,,6,,,67,0
165358,note_on,46,0,1,,,,,,,,0,,,64,0
165360,note_on,2,0,1,,,,,,,,0,,,74,110
165360,note_on,2,0,7,,,,,,,,6,,,71,110
165406,note_on,46,0,1,,,,,,,,0,,,74,0
165406,note_on,46,0,7,,,,,,,,6,,,71,0
165406,note_on,94,0,11,,,,,,,,11,,,64,0
165406,note_on,94,0,10,,,,,,,,10,,,67,0
165406,note_on,94,0,12,,,,,,,,12,,,52,0
165406,note_on,94,0,3,,,,,,,,2,,,74,0
165406,note_on,94,0,5,,,,,,,,4,,,71,0
165406,note_on,94,0,9,,,,,,,,8,,,74,0
165406,note_on,94,0,4,,,,,,,,3,,,64,0
165406,note_on,94,0,8,,,,,,,,7,,,52,0
165408,note_on,2,0,3,,,,,,,,2,,,71,110
165408,note_on,98,0,6,,,,,,,,5,,,64,110
165408,note_on,2,0,4,,,,,,,,3,,,52,110
165408,note_on,2,0,7,,,,,,,,6,,,74,110
165408,note_on,2,0,1,,,,,,,,0,,,64,110
165408,note_on,2,0,5,,,,,,,,4,,,67,110
165454,note_on,46,0,1,,,,,,,,0,,,64,0
165456,note_on,2,0,1,,,,,,,,0,,,74,110
165472,note_on,160,0,2,,,,,,,,1,,,52,0
165502,note_on,94,0,7,,,,,,,,6,,,74,0
165502,note_on,94,0,6,,,,,,,,5,,,64,0
165502,note_on,94,0,5,,,,,,,,4,,,67,0
165502,note_on,94,0,4,,,,,,,,3,,,52,0
165502,note_on,94,0,3,,,,,,,,2,,,71,0
165502,note_on,46,0,1,,,,,,,,0,,,74,0
165504,note_on,98,0,8,,,,,,,,7,,,64,110
165504,note_on,2,0,5,,,,,,,,4,,,64,110
165504,note_on,2,0,6,,,,,,,,5,,,52,110
165504,note_on,2,0,3,,,,,,,,2,,,67,110
165504,note_on,2,0,1,,,,,,,,0,,,64,110
165550,note_on,46,0,1,,,,,,,,0,,,64,0
165552,note_on,2,0,1,,,,,,,,0,,,74,110
165598,note_on,46,0,1,,,,,,,,0,,,74,0
165598,note_on,94,0,3,,,,,,,,2,,,67,0
165598,note_on,94,0,5,,,,,,,,4,,,64,0
165598,note_on,94,0,6,,,,,,,,5,,,52,0
165598,note_on,94,0,8,,,,,,,,7,,,64,0
165600,note_on,2,0,3,,,,,,,,2,,,67,110
165600,note_on,2,0,5,,,,,,,,4,,,64,110
165600,note_on,194,0,10,,,,,,,,10,,,67,45
165600,note_on,194,0,9,,,,,,,,8,,,72,45
165600,note_on,2,0,8,,,,,,,,7,,,52,110
165600,note_on,194,0,12,,,,,,,,12,,,45,45
165600,note_on,128,0,2,,,,,,,,1,,,45,110
165600,note_on,2,0,1,,,,,,,,0,,,64,110
165600,note_on,98,0,4,,,,,,,,3,,,52,110
165600,note_on,194,0,11,,,,,,,,11,,,64,45
165646,note_on,46,0,1,,,,,,,,0,,,64,0
165646,note_on,46,0,5,,,,,,,,4,,,64,0
165648,note_on,2,0,1,,,,,,,,0,,,72,110
165648,note_on,2,0,5,,,,,,,,4,,,62,110
165694,note_on,94,0,10,,,,,,,,10,,,67,0
165694,note_on,94,0,8,,,,,,,,7,,,52,0
165694,note_on,94,0,9,,,,,,,,8,,,72,0
165694,note_on,46,0,1,,,,,,,,0,,,72,0
165694,note_on,46,0,5,,,,,,,,4,,,62,0
165694,note_on,94,0,11,,,,,,,,11,,,64,0
165694,note_on,94,0,12,,,,,,,,12,,,45,0
165694,note_on,94,0,3,,,,,,,,2,,,67,0
165694,note_on,94,0,4,,,,,,,,3,,,52,0
165696,note_on,2,0,5,,,,,,,,4,,,64,110
165696,note_on,2,0,3,,,,,,,,2,,,72,110
165696,note_on,2,0,4,,,,,,,,3,,,64,110
165696,note_on,2,0,1,,,,,,,,0,,,64,110
165696,note_on,98,0,6,,,,,,,,5,,,52,110
165742,note_on,46,0,1,,,,,,,,0,,,64,0
165744,note_on,242,0,7,,,,,,,,6,,,64,110
165744,note_on,2,0,1,,,,,,,,0,,,72,110
165760,note_on,160,0,2,,,,,,,,1,,,45,0
165790,note_on,94,0,3,,,,,,,,2,,,72,0
165790,note_on,94,0,4,,,,,,,,3,,,64,0
165790,note_on,94,0,5,,,,,,,,4,,,64,0
165790,note_on,94,0,6,,,,,,,,5,,,52,0
165790,note_on,46,0,7,,,,,,,,6,,,64,0
165790,note_on,46,0,1,,,,,,,,0,,,72,0
165792,note_on,2,0,6,,,,,,,,5,,,64,110
165792,note_on,98,0,8,,,,,,,,7,,,52,110
165792,note_on,2,0,1,,,,,,,,0,,,64,110
165792,note_on,2,0,5,,,,,,,,4,,,72,110
165792,note_on,2,0,7,,,,,,,,6,,,67,110
165838,note_on,46,0,7,,,,,,,,6,,,67,0
165838,note_on,46,0,1,,,,,,,,0,,,64,0
165840,note_on,2,0,1,,,,,,,,0,,,72,110
165840,note_on,2,0,7,,,,,,,,6,,,64,110
165886,note_on,46,0,7,,,,,,,,6,,,64,0
165886,note_on,46,0,1,,,,,,,,0,,,72,0
165886,note_on,94,0,5,,,,,,,,4,,,72,0
165886,note_on,94,0,8,,,,,,,,7,,,52,0
165886,note_on,94,0,6,,,,,,,,5,,,64,0
165888,note_on,98,0,4,,,,,,,,3,,,62,110
165888,note_on,128,0,2,,,,,,,,1,,,50,110
165888,note_on,2,0,8,,,,,,,,7,,,50,110
165888,note_on,194,0,10,,,,,,,,10,,,65,45
165888,note_on,194,0,9,,,,,,,,8,,,72,45
165888,note_on,2,0,7,,,,,,,,6,,,65,110
165888,note_on,98,0,3,,,,,,,,2,,,72,110
165888,note_on,2,0,1,,,,,,,,0,,,62,110
165888,note_on,194,0,11,,,,,,,,11,,,62,45
165888,note_on,2,0,5,,,,,,,,4,,,69,110
165888,note_on,194,0,12,,,,,,,,12,,,50,45
165934,note_on,46,0,7,,,,,,,,6,,,65,0
165934,note_on,46,0,1,,,,,,,,0,,,62,0
165936,note_on,2,0,1,,,,,,,,0,,,72,110
165936,note_on,2,0,7,,,,,,,,6,,,69,110
165982,note_on,94,0,5,,,,,,,,4,,,69,0
165982,note_on,94,0,10,,,,,,,,10,,,65,0
165982,note_on,94,0,11,,,,,,,,11,,,62,0
165982,note_on,94,0,9,,,,,,,,8,,,72,0
165982,note_on,94,0,4,,,,,,,,3,,,62,0
165982,note_on,46,0,7,,,,,,,,6,,,69,0
165982,note_on,94,0,8,,,,,,,,7,,,50,0
165982,note_on,94,0,3,,,,,,,,2,,,72,0
165982,note_on,46,0,1,,,,,,,,0,,,72,0
165982,note_on,94,0,12,,,,,,,,12,,,50,0
165984,note_on,2,0,1,,,,,,,,0,,,62,110
165984,note_on,2,0,3,,,,,,,,2,,,69,110
165984,note_on,2,0,5,,,,,,,,4,,,65,110
165984,note_on,98,0,6,,,,,,,,5,,,62,110
165984,note_on,2,0,4,,,,,,,,3,,,50,110
165984,note_on,2,0,7,,,,,,,,6,,,72,110
166030,note_on,46,0,1,,,,,,,,0,,,62,0
166032,note_on,2,0,1,,,,,,,,0,,,72,110
166048,note_on,160,0,2,,,,,,,,1,,,50,0
166078,note_on,46,0,1,,,,,,,,0,,,72,0
166078,note_on,94,0,6,,,,,,,,5,,,62,0
166078,note_on,94,0,3,,,,,,,,2,,,69,0
166078,note_on,94,0,7,,,,,,,,6,,,72,0
166078,note_on,94,0,5,,,,,,,,4,,,65,0
166078,note_on,94,0,4,,,,,,,,3,,,50,0
166080,note_on,98,0,8,,,,,,,,7,,,62,110
166080,note_on,2,0,3,,,,,,,,2,,,65,110
166080,note_on,2,0,5,,,,,,,,4,,,62,110
166080,note_on,2,0,1,,,,,,,,0,,,62,110
166080,note_on,2,0,6,,,,,,,,5,,,50,110
166126,note_on,46,0,1,,,,,,,,0,,,62,0
166128,note_on,2,0,1,,,,,,,,0,,,72,110
166174,note_on,94,0,3,,,,,,,,2,,,65,0
166174,note_on,94,0,6,,,,,,,,5,,,50,0
166174,note_on,94,0,5,,,,,,,,4,,,62,0
166174,note_on,46,0,1,,,,,,,,0,,,72,0
166174,note_on,94,0,8,,,,,,,,7,,,62,0
166176,note_on,98,0,4,,,,,,,,3,,,50,110
166176,note_on,194,0,11,,,,,,,,11,,,62,45
166176,note_on,194,0,10,,,,,,,,10,,,65,45
166176,note_on,2,0,5,,,,,,,,4,,,62,110
166176,note_on,194,0,9,,,,,,,,8,,,71,45
166176,note_on,2,0,8,,,,,,,,7,,,50,110
166176,note_on,128,0,2,,,,,,,,1,,,43,110
166176,note_on,2,0,1,,,,,,,,0,,,62,110
166176,note_on,194,0,12,,,,,,,,12,,,43,45
166176,note_on,2,0,3,,,,,,,,2,,,65,110
166222,note_on,46,0,1,,,,,,,,0,,,62,0
166222,note_on,46,0,5,,,,,,,,4,,,62,0
166224,note_on,2,0,5,,,,,,,,4,,,60,110
166224,note_on,2,0,1,,,,,,,,0,,,71,110
166270,note_on,46,0,5,,,,,,,,4,,,60,0
166270,note_on,94,0,3,,,,,,,,2,,,65,0
166270,note_on,94,0,8,,,,,,,,7,,,50,0
166270,note_on,94,0,4,,,,,,,,3,,,50,0
166270,note_on,94,0,12,,,,,,,,12,,,43,0
166270,note_on,94,0,9,,,,,,,,8,,,71,0
166270,note_on,94,0,11,,,,,,,,11,,,62,0
166270,note_on,46,0,1,,,,,,,,0,,,71,0
166270,note_on,94,0,10,,,,,,,,10,,,65,0
166272,note_on,2,0,1,,,,,,,,0,,,62,110
166272,note_on,2,0,5,,,,,,,,4,,,62,110
166272,note_on,2,0,4,,,,,,,,3,,,62,110
166272,note_on,2,0,3,,,,,,,,2,,,71,110
166272,note_on,98,0,6,,,,,,,,5,,,50,110
166318,note_on,46,0,1,,,,,,,,0,,,62,0
166320,note_on,2,0,1,,,,,,,,0,,,71,110
166320,note_on,242,0,7,,,,,,,,6,,,62,110
166336,note_on,160,0,2,,,,,,,,1,,,43,0
166366,note_on,94,0,4,,,,,,,,3,,,62,0
166366,note_on,94,0,6,,,,,,,,5,,,50,0
166366,note_on,46,0,7,,,,,,,,6,,,62,0
166366,note_on,46,0,1,,,,,,,,0,,,71,0
166366,note_on,94,0,5,,,,,,,,4,,,62,0
166366,note_on,94,0,3,,,,,,,,2,,,71,0
166368,note_on,2,0,7,,,,,,,,6,,,65,110
166368,note_on,2,0,6,,,,,,,,5,,,62,110
166368,note_on,98,0,8,,,,,,,,7,,,50,110
166368,note_on,2,0,1,,,,,,,,0,,,62,110
166368,note_on,2,0,5,,,,,,,,4,,,71,110
166414,note_on,46,0,1,,,,,,,,0,,,62,0
166414,note_on,46,0,7,,,,,,,,6,,,65,0
166416,note_on,2,0,7,,,,,,,,6,,,62,110
166416,note_on,2,0,1,,,,,,,,0,,,71,110
166462,note_on,94,0,5,,,,,,,,4,,,71,0
166462,note_on,46,0,7,,,,,,,,6,,,62,0
166462,note_on,94,0,6,,,,,,,,5,,,62,0
166462,note_on,94,0,8,,,,,,,,7,,,50,0
166462,note_on,46,0,1,,,,,,,,0,,,71,0
166464,note_on,194,0,12,,,,,,,,12,,,48,45
166464,note_on,2,0,7,,,,,,,,6,,,64,110
166464,note_on,98,0,3,,,,,,,,2,,,71,110
166464,note_on,194,0,10,,,,,,,,10,,,64,45
166464,note_on,2,0,5,,,,,,,,4,,,67,110
166464,note_on,194,0,11,,,,,,,,11,,,60,45
166464,note_on,128,0,2,,,,,,,,1,,,48,110
166464,note_on,194,0,9,,,,,,,,8,,,71,45
166464,note_on,2,0,1,,,,,,,,0,,,60,110
166464,note_on,2,0,8,,,,,,,,7,,,48,110
166464,note_on,98,0,4,,,,,,,,3,,,60,110
166510,note_on,46,0,7,,,,,,,,6,,,64,0
166510,note_on,46,0,1,,,,,,,,0,,,60,0
166512,note_on,2,0,7,,,,,,,,6,,,67,110
166512,note_on,2,0,1,,,,,,,,0,,,71,110
166558,note_on,46,0,1,,,,,,,,0,,,71,0
166558,note_on,94,0,3,,,,,,,,2,,,71,0
166558,note_on,94,0,5,,,,,,,,4,,,67,0
166558,note_on,94,0,8,,,,,,,,7,,,48,0
166558,note_on,94,0,9,,,,,,,,8,,,71,0
166558,note_on,94,0,11,,,,,,,,11,,,60,0
166558,note_on,94,0,10,,,,,,,,10,,,64,0
166558,note_on,94,0,4,,,,,,,,3,,,60,0
166558,note_on,94,0,12,,,,,,,,12,,,48,0
166558,note_on,46,0,7,,,,,,,,6,,,67,0
166560,note_on,2,0,1,,,,,,,,0,,,60,110
166560,note_on,2,0,3,,,,,,,,2,,,67,110
166560,note_on,98,0,6,,,,,,,,5,,,60,110
166560,note_on,2,0,7,,,,,,,,6,,,71,110
166560,note_on,2,0,5,,,,,,,,4,,,64,110
166560,note_on,2,0,4,,,,,,,,3,,,48,110
166606,note_on,46,0,1,,,,,,,,0,,,60,0
166608,note_on,2,0,1,,,,,,,,0,,,71,110
166624,note_on,160,0,2,,,,,,,,1,,,48,0
166654,note_on,46,0,1,,,,,,,,0,,,71,0
166654,note_on,94,0,3,,,,,,,,2,,,67,0
166654,note_on,94,0,6,,,,,,,,5,,,60,0
166654,note_on,94,0,5,,,,,,,,4,,,64,0
166654,note_on,94,0,4,,,,,,,,3,,,48,0
166654,note_on,94,0,7,,,,,,,,6,,,71,0
166656,note_on,2,0,6,,,,,,,,5,,,48,110
166656,note_on,98,0,8,,,,,,,,7,,,60,110
166656,note_on,2,0,1,,,,,,,,0,,,60,110
166656,note_on,2,0,3,,,,,,,,2,,,64,110
166656,note_on,2,0,5,,,,,,,,4,,,60,110
166702,note_on,46,0,1,,,,,,,,0,,,60,0
166704,note_on,2,0,1,,,,,,,,0,,,71,110
166750,note_on,46,0,1,,,,,,,,0,,,71,0
166750,note_on,94,0,3,,,,,,,,2,,,64,0
166750,note_on,94,0,5,,,,,,,,4,,,60,0
166750,note_on,94,0,8,,,,,,,,7,,,60,0
166750,note_on,94,0,6,,,,,,,,5,,,48,0
166752,note_on,98,0,4,,,,,,,,3,,,48,110
166752,note_on,194,0,11,,,,,,,,11,,,60,45
166752,note_on,128,0,2,,,,,,,,1,,,41,110
166752,note_on,2,0,5,,,,,,,,4,,,60,110
166752,note_on,194,0,10,,,,,,,,10,,,64,45
166752,note_on,2,0,8,,,,,,,,7,,,48,110
166752,note_on,194,0,9,,,,,,,,8,,,69,45
166752,note_on,194,0,12,,,,,,,,12,,,41,45
166752,note_on,2,0,1,,,,,,,,0,,,60,110
166752,note_on,2,0,3,,,,,,,,2,,,64,110
166798,note_on,46,0,5,,,,,,,,4,,,60,0
166798,note_on,46,0,1,,,,,,,,0,,,60,0
166800,note_on,2,0,5,,,,,,,,4,,,59,110
166800,note_on,2,0,1,,,,,,,,0,,,69,110
166846,note_on,94,0,9,,,,,,,,8,,,69,0
166846,note_on,94,0,4,,,,,,,,3,,,48,0
166846,note_on,94,0,10,,,,,,,,10,,,64,0
166846,note_on,94,0,8,,,,,,,,7,,,48,0
166846,note_on,46,0,5,,,,,,,,4,,,59,0
166846,note_on,46,0,1,,,,,,,,0,,,69,0
166846,note_on,94,0,3,,,,,,,,2,,,64,0
166846,note_on,94,0,11,,,,,,,,11,,,60,0
166846,note_on,94,0,12,,,,,,,,12,,,41,0
166848,note_on,2,0,5,,,,,,,,4,,,60,110
166848,note_on,2,0,1,,,,,,,,0,,,60,110
166848,note_on,2,0,3,,,,,,,,2,,,69,110
166848,note_on,2,0,4,,,,,,,,3,,,60,110
166848,note_on,98,0,6,,,,,,,,5,,,48,110
166894,note_on,46,0,1,,,,,,,,0,,,60,0
166896,note_on,242,0,7,,,,,,,,6,,,60,110
166896,note_on,2,0,1,,,,,,,,0,,,69,110
166912,note_on,160,0,2,,,,,,,,1,,,41,0
166942,note_on,46,0,1,,,,,,,,0,,,69,0
166942,note_on,94,0,4,,,,,,,,3,,,60,0
166942,note_on,46,0,7,,,,,,,,6,,,60,0
166942,note_on,94,0,6,,,,,,,,5,,,48,0
166942,note_on,94,0,5,,,,,,,,4,,,60,0
166942,note_on,94,0,3,,,,,,,,2,,,69,0
166944,note_on,2,0,6,,,,,,,,5,,,60,110
166944,note_on,98,0,8,,,,,,,,7,,,48,110
166944,note_on,2,0,5,,,,,,,,4,,,69,110
166944,note_on,2,0,1,,,,,,,,0,,,60,110
166944,note_on,2,0,7,,,,,,,,6,,,64,110
166990,note_on,46,0,1,,,,,,,,0,,,60,0
166990,note_on,46,0,7,,,,,,,,6,,,64,0
166992,note_on,2,0,7,,,,,,,,6,,,60,110
166992,note_on,2,0,1,,,,,,,,0,,,69,110
167038,note_on,94,0,6,,,,,,,,5,,,60,0
167038,note_on,46,0,1,,,,,,,,0,,,69,0
167038,note_on,46,0,7,,,,,,,,6,,,60,0
167038,note_on,94,0,5,,,,,,,,4,,,69,0
167038,note_on,94,0,8,,,,,,,,7,,,48,0
167040,note_on,2,0,8,,,,,,,,7,,,47,110
167040,note_on,194,0,9,,,,,,,,8,,,69,45
167040,note_on,194,0,10,,,,,,,,10,,,62,45
167040,note_on,194,0,11,,,,,,,,11,,,59,45
167040,note_on,98,0,4,,,,,,,,3,,,59,110
167040,note_on,194,0,12,,,,,,,,12,,,47,45
167040,note_on,98,0,3,,,,,,,,2,,,69,110
167040,note_on,2,0,6,,,,,,,,5,,,59,110
167040,note_on,2,0,5,,,,,,,,4,,,65,110
167040,note_on,2,0,7,,,,,,,,6,,,62,110
167040,note_on,2,0,1,,,,,,,,0,,,62,110
167040,note_on,128,0,2,,,,,,,,1,,,47,110
167086,note_on,46,0,7,,,,,,,,6,,,62,0
167086,note_on,46,0,1,,,,,,,,0,,,62,0
167088,note_on,2,0,1,,,,,,,,0,,,69,110
167088,note_on,2,0,7,,,,,,,,6,,,65,110
167134,note_on,94,0,4,,,,,,,,3,,,59,0
167134,note_on,94,0,9,,,,,,,,8,,,69,0
167134,note_on,94,0,6,,,,,,,,5,,,59,0
167134,note_on,94,0,5,,,,,,,,4,,,65,0
167134,note_on,94,0,11,,,,,,,,11,,,59,0
167134,note_on,94,0,8,,,,,,,,7,,,47,0
167134,note_on,94,0,12,,,,,,,,12,,,47,0
167134,note_on,46,0,7,,,,,,,,6,,,65,0
167134,note_on,94,0,10,,,,,,,,10,,,62,0
167134,note_on,46,0,1,,,,,,,,0,,,69,0
167134,note_on,94,0,3,,,,,,,,2,,,69,0
167136,note_on,2,0,3,,,,,,,,2,,,65,110
167136,note_on,2,0,1,,,,,,,,0,,,62,110
167136,note_on,2,0,4,,,,,,,,3,,,47,110
167136,note_on,2,0,7,,,,,,,,6,,,69,110
167136,note_on,2,0,5,,,,,,,,4,,,62,110
167182,note_on,46,0,1,,,,,,,,0,,,62,0
167184,note_on,2,0,1,,,,,,,,0,,,69,110
167200,note_on,160,0,2,,,,,,,,1,,,47,0
167230,note_on,94,0,5,,,,,,,,4,,,62,0
167230,note_on,94,0,3,,,,,,,,2,,,65,0
167230,note_on,94,0,7,,,,,,,,6,,,69,0
167230,note_on,94,0,4,,,,,,,,3,,,47,0
167230,note_on,46,0,1,,,,,,,,0,,,69,0
167232,note_on,2,0,3,,,,,,,,2,,,62,110
167232,note_on,98,0,8,,,,,,,,7,,,59,110
167232,note_on,2,0,5,,,,,,,,4,,,59,110
167232,note_on,2,0,1,,,,,,,,0,,,62,110
167232,note_on,98,0,6,,,,,,,,5,,,47,110
167278,note_on,46,0,1,,,,,,,,0,,,62,0
167280,note_on,2,0,1,,,,,,,,0,,,69,110
167326,note_on,46,0,1,,,,,,,,0,,,69,0
167326,note_on,94,0,6,,,,,,,,5,,,47,0
167326,note_on,94,0,5,,,,,,,,4,,,59,0
167326,note_on,94,0,8,,,,,,,,7,,,59,0
167326,note_on,94,0,3,,,,,,,,2,,,62,0
167328,note_on,98,0,4,,,,,,,,3,,,47,110
167328,note_on,194,0,10,,,,,,,,10,,,62,45
167328,note_on,2,0,1,,,,,,,,0,,,64,110
167328,note_on,194,0,11,,,,,,,,11,,,59,45
167328,note_on,2,0,6,,,,,,,,5,,,47,110
167328,note_on,2,0,5,,,,,,,,4,,,59,110
167328,note_on,2,0,3,,,,,,,,2,,,62,110
167328,note_on,194,0,9,,,,,,,,8,,,68,45
167328,note_on,128,0,2,,,,,,,,1,,,40,110
167328,note_on,2,0,8,,,,,,,,7,,,52,110
167328,note_on,194,0,12,,,,,,,,12,,,40,45
167374,note_on,46,0,1,,,,,,,,0,,,64,0
167374,note_on,46,0,5,,,,,,,,4,,,59,0
167376,note_on,2,0,1,,,,,,,,0,,,68,110
167376,note_on,2,0,5,,,,,,,,4,,,57,110
167422,note_on,94,0,10,,,,,,,,10,,,62,0
167422,note_on,46,0,1,,,,,,,,0,,,68,0
167422,note_on,94,0,11,,,,,,,,11,,,59,0
167422,note_on,94,0,6,,,,,,,,5,,,47,0
167422,note_on,46,0,5,,,,,,,,4,,,57,0
167422,note_on,94,0,8,,,,,,,,7,,,52,0
167422,note_on,94,0,4,,,,,,,,3,,,47,0
167422,note_on,94,0,3,,,,,,,,2,,,62,0
167422,note_on,94,0,12,,,,,,,,12,,,40,0
167422,note_on,94,0,9,,,,,,,,8,,,68,0
167424,note_on,2,0,4,,,,,,,,3,,,52,110
167424,note_on,2,0,1,,,,,,,,0,,,64,110
167424,note_on,2,0,3,,,,,,,,2,,,74,110
167424,note_on,2,0,5,,,,,,,,4,,,59,110
167470,note_on,46,0,1,,,,,,,,0,,,64,0
167472,note_on,242,0,7,,,,,,,,6,,,68,110
167472,note_on,2,0,1,,,,,,,,0,,,68,110
167488,note_on,160,0,2,,,,,,,,1,,,40,0
167518,note_on,94,0,5,,,,,,,,4,,,59,0
167518,note_on,46,0,1,,,,,,,,0,,,68,0
167518,note_on,94,0,4,,,,,,,,3,,,52,0
167518,note_on,94,0,3,,,,,,,,2,,,74,0
167518,note_on,46,0,7,,,,,,,,6,,,68,0
167520,note_on,2,0,5,,,,,,,,4,,,71,110
167520,note_on,98,0,8,,,,,,,,7,,,64,110
167520,note_on,98,0,6,,,,,,,,5,,,52,110
167520,note_on,2,0,1,,,,,,,,0,,,64,110
167520,note_on,2,0,7,,,,,,,,6,,,71,110
167566,note_on,46,0,1,,,,,,,,0,,,64,0
167566,note_on,46,0,7,,,,,,,,6,,,71,0
167568,note_on,2,0,1,,,,,,,,0,,,68,110
167568,note_on,2,0,7,,,,,,,,6,,,76,110
167614,note_on,94,0,8,,,,,,,,7,,,64,0
167614,note_on,94,0,6,,,,,,,,5,,,52,0
167614,note_on,94,0,5,,,,,,,,4,,,71,0
167614,note_on,46,0,7,,,,,,,,6,,,76,0
167614,note_on,46,0,1,,,,,,,,0,,,68,0
167616,note_on,194,0,11,,,,,,,,11,,,57,45
167616,note_on,2,0,8,,,,,,,,7,,,57,110
167616,note_on,2,0,6,,,,,,,,5,,,60,110
167616,note_on,194,0,12,,,,,,,,12,,,45,45
167616,note_on,2,0,1,,,,,,,,0,,,69,110
167616,note_on,194,0,9,,,,,,,,8,,,69,45
167616,note_on,98,0,4,,,,,,,,3,,,57,110
167616,note_on,2,0,5,,,,,,,,4,,,69,110
167616,note_on,2,0,7,,,,,,,,6,,,72,110
167616,note_on,98,0,3,,,,,,,,2,,,72,110
167616,note_on,128,0,2,,,,,,,,1,,,45,110
167616,note_on,194,0,10,,,,,,,,10,,,60,45
167662,note_on,46,0,6,,,,,,,,5,,,60,0
167662,note_on,46,0,8,,,,,,,,7,,,57,0
167664,note_on,2,0,6,,,,,,,,5,,,62,110
167664,note_on,2,0,8,,,,,,,,7,,,59,110
167710,note_on,94,0,1,,,,,,,,0,,,69,0
167710,note_on,94,0,9,,,,,,,,8,,,69,0
167710,note_on,94,0,11,,,,,,,,11,,,57,0
167710,note_on,46,0,8,,,,,,,,7,,,59,0
167710,note_on,94,0,3,,,,,,,,2,,,72,0
167710,note_on,94,0,4,,,,,,,,3,,,57,0
167710,note_on,94,0,2,,,,,,,,1,,,45,0
167710,note_on,94,0,12,,,,,,,,12,,,45,0
167710,note_on,94,0,10,,,,,,,,10,,,60,0
167710,note_on,46,0,6,,,,,,,,5,,,62,0
167712,note_on,2,0,4,,,,,,,,3,,,57,110
167712,note_on,2,0,2,,,,,,,,1,,,45,110
167712,note_on,2,0,6,,,,,,,,5,,,60,110
167712,note_on,2,0,8,,,,,,,,7,,,57,110
167712,note_on,2,0,3,,,,,,,,2,,,76,110
167712,note_on,2,0,1,,,,,,,,0,,,81,110
167758,note_on,46,0,8,,,,,,,,7,,,57,0
167758,note_on,46,0,6,,,,,,,,5,,,60,0
167760,note_on,2,0,6,,,,,,,,5,,,62,110
167760,note_on,2,0,8,,,,,,,,7,,,59,110
167776,note_on,160,0,7,,,,,,,,6,,,72,0
167776,note_on,160,0,5,,,,,,,,4,,,69,0
167806,note_on,46,0,6,,,,,,,,5,,,62,0
167806,note_on,94,0,3,,,,,,,,2,,,76,0
167806,note_on,94,0,2,,,,,,,,1,,,45,0
167806,note_on,46,0,8,,,,,,,,7,,,59,0
167806,note_on,94,0,4,,,,,,,,3,,,57,0
167806,note_on,94,0,1,,,,,,,,0,,,81,0
167808,note_on,2,0,3,,,,,,,,2,,,72,110
167808,note_on,2,0,2,,,,,,,,1,,,45,110
167808,note_on,2,0,6,,,,,,,,5,,,60,110
167808,note_on,2,0,1,,,,,,,,0,,,76,110
167808,note_on,2,0,8,,,,,,,,7,,,57,110
167808,note_on,2,0,4,,,,,,,,3,,,57,110
167854,note_on,46,0,8,,,,,,,,7,,,57,0
167854,note_on,46,0,6,,,,,,,,5,,,60,0
167856,note_on,2,0,6,,,,,,,,5,,,62,110
167856,note_on,2,0,8,,,,,,,,7,,,59,110
167902,note_on,94,0,1,,,,,,,,0,,,76,0
167902,note_on,46,0,8,,,,,,,,7,,,59,0
167902,note_on,94,0,2,,,,,,,,1,,,45,0
167902,note_on,46,0,6,,,,,,,,5,,,62,0
167902,note_on,94,0,3,,,,,,,,2,,,72,0
167902,note_on,94,0,4,,,,,,,,3,,,57,0
167904,note_on,2,0,4,,,,,,,,3,,,56,110
167904,note_on,2,0,2,,,,,,,,1,,,44,110
167904,note_on,2,0,1,,,,,,,,0,,,77,110
167904,note_on,2,0,8,,,,,,,,7,,,50,110
167904,note_on,2,0,3,,,,,,,,2,,,74,110
167904,note_on,2,0,6,,,,,,,,5,,,59,110
167950,note_on,46,0,1,,,,,,,,0,,,77,0
167950,note_on,46,0,3,,,,,,,,2,,,74,0
167952,note_on,2,0,3,,,,,,,,2,,,76,110
167952,note_on,2,0,1,,,,,,,,0,,,79,110
167998,note_on,94,0,8,,,,,,,,7,,,50,0
167998,note_on,94,0,6,,,,,,,,5,,,59,0
167998,note_on,94,0,2,,,,,,,,1,,,44,0
167998,note_on,46,0,3,,,,,,,,2,,,76,0
167998,note_on,94,0,4,,,,,,,,3,,,56,0
167998,note_on,46,0,1,,,,,,,,0,,,79,0
168000,note_on,290,0,10,,,,,,,,10,,,71,45
168000,note_on,2,0,3,,,,,,,,2,,,74,110
168000,note_on,290,0,12,,,,,,,,12,,,44,45
168000,note_on,2,0,2,,,,,,,,1,,,44,110
168000,note_on,2,0,4,,,,,,,,3,,,56,110
168000,note_on,290,0,11,,,,,,,,11,,,62,45
168000,note_on,2,0,6,,,,,,,,5,,,62,110
168000,note_on,290,0,9,,,,,,,,8,,,77,45
168000,note_on,2,0,1,,,,,,,,0,,,77,110
168000,note_on,2,0,8,,,,,,,,7,,,59,110
168046,note_on,46,0,3,,,,,,,,2,,,74,0
168046,note_on,46,0,1,,,,,,,,0,,,77,0
168048,note_on,2,0,3,,,,,,,,2,,,76,110
168048,note_on,2,0,1,,,,,,,,0,,,79,110
168094,note_on,94,0,2,,,,,,,,1,,,44,0
168094,note_on,94,0,10,,,,,,,,10,,,71,0
168094,note_on,46,0,1,,,,,,,,0,,,79,0
168094,note_on,94,0,12,,,,,,,,12,,,44,0
168094,note_on,94,0,4,,,,,,,,3,,,56,0
168094,note_on,94,0,6,,,,,,,,5,,,62,0
168094,note_on,94,0,11,,,,,,,,11,,,62,0
168094,note_on,94,0,9,,,,,,,,8,,,77,0
168094,note_on,94,0,8,,,,,,,,7,,,59,0
168094,note_on,46,0,3,,,,,,,,2,,,76,0
168096,note_on,2,0,3,,,,,,,,2,,,74,110
168096,note_on,2,0,11,,,,,,,,11,,,62,45
168096,note_on,2,0,4,,,,,,,,3,,,56,110
168096,note_on,2,0,2,,,,,,,,1,,,44,110
168096,note_on,2,0,9,,,,,,,,8,,,77,45
168096,note_on,2,0,8,,,,,,,,7,,,56,110
168096,note_on,2,0,1,,,,,,,,0,,,77,110
168096,note_on,2,0,10,,,,,,,,10,,,71,45
168096,note_on,2,0,12,,,,,,,,12,,,44,45
168096,note_on,2,0,6,,,,,,,,5,,,59,110
168142,note_on,46,0,3,,,,,,,,2,,,74,0
168142,note_on,46,0,1,,,,,,,,0,,,77,0
168144,note_on,2,0,3,,,,,,,,2,,,76,110
168144,note_on,2,0,1,,,,,,,,0,,,79,110
168190,note_on,94,0,4,,,,,,,,3,,,56,0
168190,note_on,94,0,11,,,,,,,,11,,,62,0
168190,note_on,94,0,9,,,,,,,,8,,,77,0
168190,note_on,46,0,1,,,,,,,,0,,,79,0
168190,note_on,94,0,12,,,,,,,,12,,,44,0
168190,note_on,94,0,10,,,,,,,,10,,,71,0
168190,note_on,94,0,2,,,,,,,,1,,,44,0
168190,note_on,94,0,6,,,,,,,,5,,,59,0
168190,note_on,94,0,8,,,,,,,,7,,,56,0
168190,note_on,46,0,3,,,,,,,,2,,,76,0
168192,note_on,2,0,2,,,,,,,,1,,,60,110
168192,note_on,2,0,9,,,,,,,,8,,,76,45
168192,note_on,2,0,12,,,,,,,,12,,,45,45
168192,note_on,2,0,11,,,,,,,,11,,,69,45
168192,note_on,2,0,4,,,,,,,,3,,,57,110
168192,note_on,2,0,6,,,,,,,,5,,,57,110
168192,note_on,2,0,10,,,,,,,,10,,,72,45
168192,note_on,2,0,1,,,,,,,,0,,,76,110
168192,note_on,2,0,8,,,,,,,,7,,,45,110
168192,note_on,2,0,3,,,,,,,,2,,,74,110
168238,note_on,46,0,2,,,,,,,,1,,,60,0
168238,note_on,46,0,4,,,,,,,,3,,,57,0
168240,note_on,2,0,2,,,,,,,,1,,,62,110
168240,note_on,2,0,4,,,,,,,,3,,,59,110
168286,note_on,94,0,10,,,,,,,,10,,,72,0
168286,note_on,94,0,9,,,,,,,,8,,,76,0
168286,note_on,94,0,11,,,,,,,,11,,,69,0
168286,note_on,94,0,6,,,,,,,,5,,,57,0
168286,note_on,94,0,8,,,,,,,,7,,,45,0
168286,note_on,46,0,4,,,,,,,,3,,,59,0
168286,note_on,46,0,2,,,,,,,,1,,,62,0
168286,note_on,94,0,12,,,,,,,,12,,,45,0
168288,note_on,2,0,8,,,,,,,,7,,,57,110
168288,note_on,512,0,5,,,,,,,,4,,,76,110
168288,note_on,2,0,2,,,,,,,,1,,,60,110
168288,note_on,512,0,7,,,,,,,,6,,,72,110
168288,note_on,2,0,4,,,,,,,,3,,,57,110
168288,note_on,2,0,6,,,,,,,,5,,,45,110
168334,note_on,46,0,4,,,,,,,,3,,,57,0
168334,note_on,46,0,2,,,,,,,,1,,,60,0
168336,note_on,2,0,4,,,,,,,,3,,,59,110
168336,note_on,2,0,2,,,,,,,,1,,,62,110
168352,note_on,160,0,3,,,,,,,,2,,,74,0
168352,note_on,160,0,1,,,,,,,,0,,,76,0
168382,note_on,94,0,5,,,,,,,,4,,,76,0
168382,note_on,94,0,6,,,,,,,,5,,,45,0
168382,note_on,46,0,2,,,,,,,,1,,,62,0
168382,note_on,94,0,8,,,,,,,,7,,,57,0
168382,note_on,46,0,4,,,,,,,,3,,,59,0
168382,note_on,94,0,7,,,,,,,,6,,,72,0
168384,note_on,2,0,4,,,,,,,,3,,,57,110
168384,note_on,2,0,7,,,,,,,,6,,,69,110
168384,note_on,2,0,2,,,,,,,,1,,,60,110
168384,note_on,2,0,8,,,,,,,,7,,,57,110
168384,note_on,2,0,5,,,,,,,,4,,,72,110
168384,note_on,2,0,6,,,,,,,,5,,,45,110
168430,note_on,46,0,2,,,,,,,,1,,,60,0
168430,note_on,46,0,4,,,,,,,,3,,,57,0
168432,note_on,2,0,2,,,,,,,,1,,,59,110
168432,note_on,2,0,4,,,,,,,,3,,,55,110
168478,note_on,94,0,6,,,,,,,,5,,,45,0
168478,note_on,94,0,5,,,,,,,,4,,,72,0
168478,note_on,46,0,2,,,,,,,,1,,,59,0
168478,note_on,94,0,7,,,,,,,,6,,,69,0
168478,note_on,94,0,8,,,,,,,,7,,,57,0
168478,note_on,46,0,4,,,,,,,,3,,,55,0
168480,note_on,2,0,2,,,,,,,,1,,,57,110
168480,note_on,2,0,4,,,,,,,,3,,,54,110
168480,note_on,2,0,8,,,,,,,,7,,,51,110
168480,note_on,2,0,5,,,,,,,,4,,,72,110
168480,note_on,2,0,7,,,,,,,,6,,,69,110
168480,note_on,2,0,6,,,,,,,,5,,,39,110
168526,note_on,46,0,7,,,,,,,,6,,,69,0
168526,note_on,46,0,5,,,,,,,,4,,,72,0
168528,note_on,2,0,7,,,,,,,,6,,,71,110
168528,note_on,2,0,5,,,,,,,,4,,,74,110
168574,note_on,46,0,5,,,,,,,,4,,,74,0
168574,note_on,94,0,2,,,,,,,,1,,,57,0
168574,note_on,94,0,8,,,,,,,,7,,,51,0
168574,note_on,94,0,4,,,,,,,,3,,,54,0
168574,note_on,46,0,7,,,,,,,,6,,,71,0
168574,note_on,94,0,6,,,,,,,,5,,,39,0
168576,note_on,290,0,10,,,,,,,,10,,,69,45
168576,note_on,2,0,4,,,,,,,,3,,,57,110
168576,note_on,290,0,12,,,,,,,,12,,,39,45
168576,note_on,2,0,8,,,,,,,,7,,,51,110
168576,note_on,2,0,6,,,,,,,,5,,,39,110
168576,note_on,290,0,9,,,,,,,,8,,,72,45
168576,note_on,2,0,7,,,,,,,,6,,,69,110
168576,note_on,2,0,5,,,,,,,,4,,,72,110
168576,note_on,2,0,2,,,,,,,,1,,,63,110
168576,note_on,290,0,11,,,,,,,,11,,,66,45
168622,note_on,46,0,7,,,,,,,,6,,,69,0
168622,note_on,46,0,5,,,,,,,,4,,,72,0
168624,note_on,2,0,5,,,,,,,,4,,,74,110
168624,note_on,2,0,7,,,,,,,,6,,,71,110
168670,note_on,94,0,6,,,,,,,,5,,,39,0
168670,note_on,94,0,4,,,,,,,,3,,,57,0
168670,note_on,46,0,7,,,,,,,,6,,,71,0
168670,note_on,94,0,12,,,,,,,,12,,,39,0
168670,note_on,94,0,11,,,,,,,,11,,,66,0
168670,note_on,94,0,9,,,,,,,,8,,,72,0
168670,note_on,94,0,8,,,,,,,,7,,,51,0
168670,note_on,46,0,5,,,,,,,,4,,,74,0
168670,note_on,94,0,2,,,,,,,,1,,,63,0
168670,note_on,94,0,10,,,,,,,,10,,,69,0
168672,note_on,2,0,10,,,,,,,,10,,,69,45
168672,note_on,2,0,7,,,,,,,,6,,,69,110
168672,note_on,2,0,12,,,,,,,,12,,,39,45
168672,note_on,2,0,11,,,,,,,,11,,,66,45
168672,note_on,2,0,4,,,,,,,,3,,,51,110
168672,note_on,2,0,6,,,,,,,,5,,,39,110
168672,note_on,2,0,2,,,,,,,,1,,,66,110
168672,note_on,2,0,9,,,,,,,,8,,,72,45
168672,note_on,2,0,8,,,,,,,,7,,,51,110
168672,note_on,2,0,5,,,,,,,,4,,,72,110
168718,note_on,46,0,5,,,,,,,,4,,,72,0
168718,note_on,46,0,7,,,,,,,,6,,,69,0
168720,note_on,2,0,7,,,,,,,,6,,,71,110
168720,note_on,2,0,5,,,,,,,,4,,,74,110
168766,note_on,94,0,11,,,,,,,,11,,,66,0
168766,note_on,94,0,6,,,,,,,,5,,,39,0
168766,note_on,94,0,2,,,,,,,,1,,,66,0
168766,note_on,94,0,4,,,,,,,,3,,,51,0
168766,note_on,46,0,7,,,,,,,,6,,,71,0
168766,note_on,94,0,10,,,,,,,,10,,,69,0
168766,note_on,94,0,9,,,,,,,,8,,,72,0
168766,note_on,94,0,12,,,,,,,,12,,,39,0
168766,note_on,46,0,5,,,,,,,,4,,,74,0
168766,note_on,94,0,8,,,,,,,,7,,,51,0
168768,note_on,2,0,12,,,,,,,,12,,,40,92
168768,note_on,2,0,7,,,,,,,,6,,,69,110
168768,note_on,2,0,6,,,,,,,,5,,,40,110
168768,note_on,2,0,2,,,,,,,,1,,,59,110
168768,note_on,2,0,9,,,,,,,,8,,,71,92
168768,note_on,2,0,5,,,,,,,,4,,,72,110
168768,note_on,2,0,4,,,,,,,,3,,,56,110
168768,note_on,416,0,1,,,,,,,,0,,,69,110
168768,note_on,2,0,11,,,,,,,,11,,,59,92
168768,note_on,416,0,3,,,,,,,,2,,,72,110
168768,note_on,2,0,10,,,,,,,,10,,,68,92
168768,note_on,2,0,8,,,,,,,,7,,,52,110
168790,note_on,22,0,5,,,,,,,,4,,,72,0
168790,note_on,22,0,3,,,,,,,,2,,,72,0
168790,note_on,22,0,1,,,,,,,,0,,,69,0
168790,note_on,22,0,7,,,,,,,,6,,,69,0
168792,note_on,2,0,3,,,,,,,,2,,,71,110
168792,note_on,2,0,5,,,,,,,,4,,,71,110
168792,note_on,2,0,7,,,,,,,,6,,,68,110
168792,note_on,2,0,1,,,,,,,,0,,,68,110
168814,note_on,22,0,3,,,,,,,,2,,,71,0
168814,note_on,22,0,1,,,,,,,,0,,,68,0
168814,note_on,22,0,7,,,,,,,,6,,,68,0
168814,note_on,22,0,5,,,,,,,,4,,,71,0
168814,note_on,46,0,4,,,,,,,,3,,,56,0
168814,note_on,46,0,6,,,,,,,,5,,,40,0
168814,note_on,46,0,2,,,,,,,,1,,,59,0
168816,note_on,2,0,1,,,,,,,,0,,,69,110
168816,note_on,2,0,2,,,,,,,,1,,,57,110
168816,note_on,2,0,3,,,,,,,,2,,,72,110
168816,note_on,2,0,7,,,,,,,,6,,,69,110
168816,note_on,2,0,6,,,,,,,,5,,,53,110
168816,note_on,2,0,4,,,,,,,,3,,,62,110
168816,note_on,2,0,5,,,,,,,,4,,,72,110
168838,note_on,22,0,1,,,,,,,,0,,,69,0
168838,note_on,22,0,7,,,,,,,,6,,,69,0
168838,note_on,22,0,5,,,,,,,,4,,,72,0
168838,note_on,22,0,3,,,,,,,,2,,,72,0
168840,note_on,2,0,3,,,,,,,,2,,,71,110
168840,note_on,2,0,5,,,,,,,,4,,,71,110
168840,note_on,2,0,7,,,,,,,,6,,,68,110
168840,note_on,2,0,1,,,,,,,,0,,,68,110
168862,note_on,22,0,3,,,,,,,,2,,,71,0
168862,note_on,94,0,8,,,,,,,,7,,,52,0
168862,note_on,22,0,5,,,,,,,,4,,,71,0
168862,note_on,94,0,11,,,,,,,,11,,,59,0
168862,note_on,22,0,7,,,,,,,,6,,,68,0
168862,note_on,46,0,2,,,,,,,,1,,,57,0
168862,note_on,94,0,12,,,,,,,,12,,,40,0
168862,note_on,22,0,1,,,,,,,,0,,,68,0
168862,note_on,46,0,4,,,,,,,,3,,,62,0
168862,note_on,46,0,6,,,,,,,,5,,,53,0
168864,note_on,2,0,3,,,,,,,,2,,,72,110
168864,note_on,2,0,1,,,,,,,,0,,,69,110
168864,note_on,2,0,2,,,,,,,,1,,,56,110
168864,note_on,2,0,11,,,,,,,,11,,,64,92
168864,note_on,2,0,6,,,,,,,,5,,,52,110
168864,note_on,2,0,8,,,,,,,,7,,,52,110
168864,note_on,2,0,7,,,,,,,,6,,,69,110
168864,note_on,2,0,4,,,,,,,,3,,,60,110
168864,note_on,2,0,5,,,,,,,,4,,,72,110
168864,note_on,2,0,12,,,,,,,,12,,,52,92
168886,note_on,22,0,7,,,,,,,,6,,,69,0
168886,note_on,22,0,1,,,,,,,,0,,,69,0
168886,note_on,22,0,3,,,,,,,,2,,,72,0
168886,note_on,22,0,5,,,,,,,,4,,,72,0
168888,note_on,2,0,7,,,,,,,,6,,,68,110
168888,note_on,2,0,3,,,,,,,,2,,,71,110
168888,note_on,2,0,5,,,,,,,,4,,,71,110
168888,note_on,2,0,1,,,,,,,,0,,,68,110
168910,note_on,22,0,7,,,,,,,,6,,,68,0
168910,note_on,46,0,6,,,,,,,,5,,,52,0
168910,note_on,22,0,5,,,,,,,,4,,,71,0
168910,note_on,22,0,3,,,,,,,,2,,,71,0
168910,note_on,46,0,2,,,,,,,,1,,,56,0
168910,note_on,46,0,4,,,,,,,,3,,,60,0
168910,note_on,22,0,1,,,,,,,,0,,,68,0
168912,note_on,2,0,4,,,,,,,,3,,,59,110
168912,note_on,2,0,3,,,,,,,,2,,,72,110
168912,note_on,2,0,5,,,,,,,,4,,,72,110
168912,note_on,2,0,7,,,,,,,,6,,,69,110
168912,note_on,2,0,6,,,,,,,,5,,,50,110
168912,note_on,2,0,2,,,,,,,,1,,,54,110
168912,note_on,2,0,1,,,,,,,,0,,,69,110
168934,note_on,22,0,1,,,,,,,,0,,,69,0
168934,note_on,22,0,3,,,,,,,,2,,,72,0
168934,note_on,22,0,5,,,,,,,,4,,,72,0
168934,note_on,22,0,7,,,,,,,,6,,,69,0
168936,note_on,2,0,1,,,,,,,,0,,,68,110
168936,note_on,2,0,3,,,,,,,,2,,,71,110
168936,note_on,2,0,7,,,,,,,,6,,,68,110
168936,note_on,2,0,5,,,,,,,,4,,,71,110
168958,note_on,94,0,8,,,,,,,,7,,,52,0
168958,note_on,94,0,12,,,,,,,,12,,,52,0
168958,note_on,46,0,6,,,,,,,,5,,,50,0
168958,note_on,46,0,2,,,,,,,,1,,,54,0
168958,note_on,94,0,11,,,,,,,,11,,,64,0
168958,note_on,22,0,3,,,,,,,,2,,,71,0
168958,note_on,22,0,1,,,,,,,,0,,,68,0
168958,note_on,46,0,4,,,,,,,,3,,,59,0
168958,note_on,22,0,5,,,,,,,,4,,,71,0
168958,note_on,22,0,7,,,,,,,,6,,,68,0
168960,note_on,2,0,7,,,,,,,,6,,,69,110
168960,note_on,2,0,1,,,,,,,,0,,,69,110
168960,note_on,2,0,3,,,,,,,,2,,,72,110
168960,note_on,2,0,11,,,,,,,,11,,,64,92
168960,note_on,2,0,6,,,,,,,,5,,,48,110
168960,note_on,2,0,8,,,,,,,,7,,,52,110
168960,note_on,2,0,5,,,,,,,,4,,,72,110
168960,note_on,2,0,2,,,,,,,,1,,,52,110
168960,note_on,2,0,12,,,,,,,,12,,,52,92
168960,note_on,2,0,4,,,,,,,,3,,,57,110
168982,note_on,22,0,7,,,,,,,,6,,,69,0
168982,note_on,22,0,1,,,,,,,,0,,,69,0
168982,note_on,22,0,5,,,,,,,,4,,,72,0
168982,note_on,22,0,3,,,,,,,,2,,,72,0
168984,note_on,2,0,5,,,,,,,,4,,,71,110
168984,note_on,2,0,7,,,,,,,,6,,,68,110
168984,note_on,2,0,3,,,,,,,,2,,,71,110
168984,note_on,2,0,1,,,,,,,,0,,,68,110
169006,note_on,22,0,3,,,,,,,,2,,,71,0
169006,note_on,22,0,7,,,,,,,,6,,,68,0
169006,note_on,46,0,2,,,,,,,,1,,,52,0
169006,note_on,46,0,6,,,,,,,,5,,,48,0
169006,note_on,22,0,1,,,,,,,,0,,,68,0
169006,note_on,46,0,4,,,,,,,,3,,,57,0
169006,note_on,22,0,5,,,,,,,,4,,,71,0
169008,note_on,2,0,1,,,,,,,,0,,,69,110
169008,note_on,2,0,2,,,,,,,,1,,,62,110
169008,note_on,2,0,4,,,,,,,,3,,,56,110
169008,note_on,2,0,7,,,,,,,,6,,,69,110
169008,note_on,2,0,6,,,,,,,,5,,,47,110
169008,note_on,2,0,3,,,,,,,,2,,,72,110
169008,note_on,2,0,5,,,,,,,,4,,,72,110
169024,note_on,256,0,10,,,,,,,,10,,,68,0
169024,note_on,256,0,9,,,,,,,,8,,,71,0
169030,note_on,22,0,3,,,,,,,,2,,,72,0
169030,note_on,22,0,1,,,,,,,,0,,,69,0
169030,note_on,22,0,5,,,,,,,,4,,,72,0
169030,note_on,22,0,7,,,,,,,,6,,,69,0
169032,note_on,2,0,1,,,,,,,,0,,,68,110
169032,note_on,2,0,7,,,,,,,,6,,,68,110
169032,note_on,2,0,5,,,,,,,,4,,,71,110
169032,note_on,2,0,3,,,,,,,,2,,,71,110
169054,note_on,22,0,7,,,,,,,,6,,,68,0
169054,note_on,22,0,3,,,,,,,,2,,,71,0
169054,note_on,94,0,11,,,,,,,,11,,,64,0
169054,note_on,46,0,4,,,,,,,,3,,,56,0
169054,note_on,46,0,6,,,,,,,,5,,,47,0
169054,note_on,22,0,5,,,,,,,,4,,,71,0
169054,note_on,94,0,12,,,,,,,,12,,,52,0
169054,note_on,94,0,8,,,,,,,,7,,,52,0
169054,note_on,46,0,2,,,,,,,,1,,,62,0
169054,note_on,22,0,1,,,,,,,,0,,,68,0
169056,note_on,2,0,6,,,,,,,,5,,,45,110
169056,note_on,2,0,12,,,,,,,,12,,,57,92
169056,note_on,32,0,9,,,,,,,,8,,,72,92
169056,note_on,2,0,7,,,,,,,,6,,,69,110
169056,note_on,32,0,10,,,,,,,,10,,,69,92
169056,note_on,2,0,5,,,,,,,,4,,,74,110
169056,note_on,2,0,8,,,,,,,,7,,,57,110
169056,note_on,2,0,11,,,,,,,,11,,,64,92
169056,note_on,2,0,2,,,,,,,,1,,,60,110
169056,note_on,2,0,4,,,,,,,,3,,,64,110
169056,note_on,2,0,1,,,,,,,,0,,,69,110
169056,note_on,2,0,3,,,,,,,,2,,,74,110
169078,note_on,22,0,3,,,,,,,,2,,,74,0
169078,note_on,22,0,5,,,,,,,,4,,,74,0
169080,note_on,2,0,3,,,,,,,,2,,,72,110
169080,note_on,2,0,5,,,,,,,,4,,,72,110
169102,note_on,22,0,5,,,,,,,,4,,,72,0
169102,note_on,22,0,3,,,,,,,,2,,,72,0
169102,note_on,46,0,4,,,,,,,,3,,,64,0
169102,note_on,46,0,2,,,,,,,,1,,,60,0
169104,note_on,2,0,5,,,,,,,,4,,,74,110
169104,note_on,2,0,4,,,,,,,,3,,,65,110
169104,note_on,2,0,3,,,,,,,,2,,,74,110
169104,note_on,2,0,2,,,,,,,,1,,,56,110
169126,note_on,22,0,3,,,,,,,,2,,,74,0
169126,note_on,22,0,5,,,,,,,,4,,,74,0
169128,note_on,2,0,3,,,,,,,,2,,,72,110
169128,note_on,2,0,5,,,,,,,,4,,,72,110
169150,note_on,94,0,1,,,,,,,,0,,,69,0
169150,note_on,46,0,4,,,,,,,,3,,,65,0
169150,note_on,46,0,2,,,,,,,,1,,,56,0
169150,note_on,94,0,8,,,,,,,,7,,,57,0
169150,note_on,22,0,3,,,,,,,,2,,,72,0
169150,note_on,94,0,10,,,,,,,,10,,,69,0
169150,note_on,22,0,5,,,,,,,,4,,,72,0
169150,note_on,94,0,6,,,,,,,,5,,,45,0
169150,note_on,94,0,11,,,,,,,,11,,,64,0
169150,note_on,94,0,12,,,,,,,,12,,,57,0
169150,note_on,94,0,7,,,,,,,,6,,,69,0
169152,note_on,2,0,6,,,,,,,,5,,,45,110
169152,note_on,2,0,5,,,,,,,,4,,,74,110
169152,note_on,2,0,11,,,,,,,,11,,,64,92
169152,note_on,2,0,1,,,,,,,,0,,,81,110
169152,note_on,2,0,7,,,,,,,,6,,,81,110
169152,note_on,2,0,3,,,,,,,,2,,,74,110
169152,note_on,2,0,4,,,,,,,,3,,,64,110
169152,note_on,2,0,12,,,,,,,,12,,,57,92
169152,note_on,2,0,8,,,,,,,,7,,,57,110
169152,note_on,2,0,10,,,,,,,,10,,,81,92
169152,note_on,2,0,2,,,,,,,,1,,,57,110
169174,note_on,22,0,5,,,,,,,,4,,,74,0
169174,note_on,22,0,3,,,,,,,,2,,,74,0
169176,note_on,2,0,5,,,,,,,,4,,,72,110
169176,note_on,2,0,3,,,,,,,,2,,,72,110
169198,note_on,46,0,4,,,,,,,,3,,,64,0
169198,note_on,46,0,2,,,,,,,,1,,,57,0
169198,note_on,22,0,5,,,,,,,,4,,,72,0
169198,note_on,22,0,3,,,,,,,,2,,,72,0
169200,note_on,2,0,5,,,,,,,,4,,,74,110
169200,note_on,2,0,4,,,,,,,,3,,,62,110
169200,note_on,2,0,3,,,,,,,,2,,,74,110
169200,note_on,2,0,2,,,,,,,,1,,,59,110
169222,note_on,22,0,5,,,,,,,,4,,,74,0
169222,note_on,22,0,3,,,,,,,,2,,,74,0
169224,note_on,2,0,3,,,,,,,,2,,,72,110
169224,note_on,2,0,5,,,,,,,,4,,,72,110
169246,note_on,94,0,1,,,,,,,,0,,,81,0
169246,note_on,22,0,5,,,,,,,,4,,,72,0
169246,note_on,94,0,10,,,,,,,,10,,,81,0
169246,note_on,94,0,8,,,,,,,,7,,,57,0
169246,note_on,94,0,11,,,,,,,,11,,,64,0
169246,note_on,94,0,7,,,,,,,,6,,,81,0
169246,note_on,22,0,3,,,,,,,,2,,,72,0
169246,note_on,46,0,4,,,,,,,,3,,,62,0
169246,note_on,94,0,12,,,,,,,,12,,,57,0
169246,note_on,94,0,6,,,,,,,,5,,,45,0
169246,note_on,46,0,2,,,,,,,,1,,,59,0
169248,note_on,2,0,12,,,,,,,,12,,,57,92
169248,note_on,2,0,2,,,,,,,,1,,,60,110
169248,note_on,2,0,10,,,,,,,,10,,,69,92
169248,note_on,2,0,3,,,,,,,,2,,,74,110
169248,note_on,2,0,6,,,,,,,,5,,,45,110
169248,note_on,2,0,7,,,,,,,,6,,,69,110
169248,note_on,2,0,8,,,,,,,,7,,,57,110
169248,note_on,2,0,11,,,,,,,,11,,,64,92
169248,note_on,2,0,1,,,,,,,,0,,,69,110
169248,note_on,2,0,4,,,,,,,,3,,,60,110
169248,note_on,2,0,5,,,,,,,,4,,,74,110
169270,note_on,22,0,5,,,,,,,,4,,,74,0
169270,note_on,22,0,3,,,,,,,,2,,,74,0
169272,note_on,2,0,3,,,,,,,,2,,,72,110
169272,note_on,2,0,5,,,,,,,,4,,,72,110
169294,note_on,46,0,4,,,,,,,,3,,,60,0
169294,note_on,46,0,2,,,,,,,,1,,,60,0
169294,note_on,22,0,5,,,,,,,,4,,,72,0
169294,note_on,22,0,3,,,,,,,,2,,,72,0
169296,note_on,2,0,5,,,,,,,,4,,,74,110
169296,note_on,2,0,3,,,,,,,,2,,,74,110
169296,note_on,2,0,4,,,,,,,,3,,,59,110
169296,note_on,2,0,2,,,,,,,,1,,,62,110
169312,note_on,256,0,9,,,,,,,,8,,,72,0
169318,note_on,22,0,5,,,,,,,,4,,,74,0
169318,note_on,22,0,3,,,,,,,,2,,,74,0
169320,note_on,2,0,3,,,,,,,,2,,,72,110
169320,note_on,2,0,5,,,,,,,,4,,,72,110
169342,note_on,46,0,2,,,,,,,,1,,,62,0
169342,note_on,94,0,10,,,,,,,,10,,,69,0
169342,note_on,94,0,12,,,,,,,,12,,,57,0
169342,note_on,94,0,8,,,,,,,,7,,,57,0
169342,note_on,22,0,5,,,,,,,,4,,,72,0
169342,note_on,94,0,1,,,,,,,,0,,,69,0
169342,note_on,94,0,6,,,,,,,,5,,,45,0
169342,note_on,46,0,4,,,,,,,,3,,,59,0
169342,note_on,94,0,7,,,,,,,,6,,,69,0
169342,note_on,94,0,11,,,,,,,,11,,,64,0
169342,note_on,22,0,3,,,,,,,,2,,,72,0
169344,note_on,2,0,1,,,,,,,,0,,,69,110
169344,note_on,2,0,4,,,,,,,,3,,,57,110
169344,note_on,2,0,10,,,,,,,,10,,,69,92
169344,note_on,2,0,11,,,,,,,,11,,,64,92
169344,note_on,2,0,5,,,,,,,,4,,,74,110
169344,note_on,2,0,2,,,,,,,,1,,,64,110
169344,note_on,2,0,3,,,,,,,,2,,,74,110
169344,note_on,2,0,6,,,,,,,,5,,,43,110
169344,note_on,2,0,12,,,,,,,,12,,,55,92
169344,note_on,2,0,7,,,,,,,,6,,,69,110
169344,note_on,32,0,9,,,,,,,,8,,,73,92
169344,note_on,2,0,8,,,,,,,,7,,,55,110
169366,note_on,22,0,5,,,,,,,,4,,,74,0
169366,note_on,22,0,3,,,,,,,,2,,,74,0
169368,note_on,2,0,3,,,,,,,,2,,,73,110
169368,note_on,2,0,5,,,,,,,,4,,,73,110
169390,note_on,22,0,5,,,,,,,,4,,,73,0
169390,note_on,46,0,2,,,,,,,,1,,,64,0
169390,note_on,46,0,4,,,,,,,,3,,,57,0
169390,note_on,22,0,3,,,,,,,,2,,,73,0
169392,note_on,2,0,2,,,,,,,,1,,,62,110
169392,note_on,2,0,4,,,,,,,,3,,,58,110
169392,note_on,2,0,3,,,,,,,,2,,,74,110
169392,note_on,2,0,5,,,,,,,,4,,,74,110
169414,note_on,22,0,5,,,,,,,,4,,,74,0
169414,note_on,22,0,3,,,,,,,,2,,,74,0
169416,note_on,2,0,5,,,,,,,,4,,,73,110
169416,note_on,2,0,3,,,,,,,,2,,,73,110
169438,note_on,22,0,3,,,,,,,,2,,,73,0
169438,note_on,94,0,10,,,,,,,,10,,,69,0
169438,note_on,46,0,2,,,,,,,,1,,,62,0
169438,note_on,22,0,5,,,,,,,,4,,,73,0
169438,note_on,46,0,4,,,,,,,,3,,,58,0
169438,note_on,94,0,7,,,,,,,,6,,,69,0
169438,note_on,94,0,1,,,,,,,,0,,,69,0
169438,note_on,94,0,8,,,,,,,,7,,,55,0
169438,note_on,94,0,12,,,,,,,,12,,,55,0
169438,note_on,94,0,6,,,,,,,,5,,,43,0
169438,note_on,94,0,11,,,,,,,,11,,,64,0
169440,note_on,2,0,4,,,,,,,,3,,,57,110
169440,note_on,2,0,7,,,,,,,,6,,,81,110
169440,note_on,2,0,11,,,,,,,,11,,,64,92
169440,note_on,2,0,8,,,,,,,,7,,,55,110
169440,note_on,2,0,1,,,,,,,,0,,,81,110
169440,note_on,2,0,5,,,,,,,,4,,,74,110
169440,note_on,2,0,3,,,,,,,,2,,,74,110
169440,note_on,2,0,10,,,,,,,,10,,,81,92
169440,note_on,2,0,2,,,,,,,,1,,,64,110
169440,note_on,2,0,12,,,,,,,,12,,,55,92
169440,note_on,2,0,6,,,,,,,,5,,,43,110
169462,note_on,22,0,5,,,,,,,,4,,,74,0
169462,note_on,22,0,3,,,,,,,,2,,,74,0
169464,note_on,2,0,5,,,,,,,,4,,,73,110
169464,note_on,2,0,3,,,,,,,,2,,,73,110
169486,note_on,46,0,4,,,,,,,,3,,,57,0
169486,note_on,22,0,3,,,,,,,,2,,,73,0
169486,note_on,46,0,2,,,,,,,,1,,,64,0
169486,note_on,22,0,5,,,,,,,,4,,,73,0
169488,note_on,2,0,5,,,,,,,,4,,,74,110
169488,note_on,2,0,4,,,,,,,,3,,,55,110
169488,note_on,2,0,3,,,,,,,,2,,,74,110
169488,note_on,2,0,2,,,,,,,,1,,,65,110
169510,note_on,22,0,5,,,,,,,,4,,,74,0
169510,note_on,22,0,3,,,,,,,,2,,,74,0
169512,note_on,2,0,5,,,,,,,,4,,,73,110
169512,note_on,2,0,3,,,,,,,,2,,,73,110
169534,note_on,94,0,11,,,,,,,,11,,,64,0
169534,note_on,22,0,3,,,,,,,,2,,,73,0
169534,note_on,46,0,4,,,,,,,,3,,,55,0
169534,note_on,94,0,12,,,,,,,,12,,,55,0
169534,note_on,46,0,2,,,,,,,,1,,,65,0
169534,note_on,94,0,6,,,,,,,,5,,,43,0
169534,note_on,94,0,10,,,,,,,,10,,,81,0
169534,note_on,94,0,8,,,,,,,,7,,,55,0
169534,note_on,94,0,1,,,,,,,,0,,,81,0
169534,note_on,22,0,5,,,,,,,,4,,,73,0
169534,note_on,94,0,7,,,,,,,,6,,,81,0
169536,note_on,2,0,2,,,,,,,,1,,,62,110
169536,note_on,2,0,12,,,,,,,,12,,,55,92
169536,note_on,2,0,10,,,,,,,,10,,,69,92
169536,note_on,2,0,1,,,,,,,,0,,,69,110
169536,note_on,2,0,3,,,,,,,,2,,,74,110
169536,note_on,2,0,11,,,,,,,,11,,,64,92
169536,note_on,2,0,5,,,,,,,,4,,,74,110
169536,note_on,2,0,7,,,,,,,,6,,,69,110
169536,note_on,2,0,8,,,,,,,,7,,,55,110
169536,note_on,2,0,4,,,,,,,,3,,,53,110
169536,note_on,2,0,6,,,,,,,,5,,,43,110
169558,note_on,22,0,5,,,,,,,,4,,,74,0
169558,note_on,22,0,3,,,,,,,,2,,,74,0
169560,note_on,2,0,5,,,,,,,,4,,,73,110
169560,note_on,2,0,3,,,,,,,,2,,,73,110
169582,note_on,46,0,4,,,,,,,,3,,,53,0
169582,note_on,22,0,5,,,,,,,,4,,,73,0
169582,note_on,46,0,2,,,,,,,,1,,,62,0
169582,note_on,22,0,3,,,,,,,,2,,,73,0
169584,note_on,2,0,5,,,,,,,,4,,,74,110
169584,note_on,2,0,4,,,,,,,,3,,,52,110
169584,note_on,2,0,2,,,,,,,,1,,,64,110
169584,note_on,2,0,3,,,,,,,,2,,,74,110
169600,note_on,256,0,9,,,,,,,,8,,,73,0
169606,note_on,22,0,5,,,,,,,,4,,,74,0
169606,note_on,22,0,3,,,,,,,,2,,,74,0
169608,note_on,2,0,3,,,,,,,,2,,,73,110
169608,note_on,2,0,5,,,,,,,,4,,,73,110
169630,note_on,22,0,5,,,,,,,,4,,,73,0
169630,note_on,94,0,8,,,,,,,,7,,,55,0
169630,note_on,94,0,1,,,,,,,,0,,,69,0
169630,note_on,94,0,11,,,,,,,,11,,,64,0
169630,note_on,46,0,2,,,,,,,,1,,,64,0
169630,note_on,46,0,4,,,,,,,,3,,,52,0
169630,note_on,94,0,10,,,,,,,,10,,,69,0
169630,note_on,94,0,6,,,,,,,,5,,,43,0
169630,note_on,94,0,12,,,,,,,,12,,,55,0
169630,note_on,22,0,3,,,,,,,,2,,,73,0
169630,note_on,94,0,7,,,,,,,,6,,,69,0
169632,note_on,2,0,2,,,,,,,,1,,,65,110
169632,note_on,32,0,9,,,,,,,,8,,,74,92
169632,note_on,2,0,11,,,,,,,,11,,,65,92
169632,note_on,2,0,5,,,,,,,,4,,,76,110
169632,note_on,2,0,7,,,,,,,,6,,,69,110
169632,note_on,2,0,12,,,,,,,,12,,,53,92
169632,note_on,2,0,10,,,,,,,,10,,,69,92
169632,note_on,2,0,8,,,,,,,,7,,,53,110
169632,note_on,2,0,1,,,,,,,,0,,,69,110
169632,note_on,2,0,4,,,,,,,,3,,,50,110
169632,note_on,2,0,3,,,,,,,,2,,,76,110
169632,note_on,2,0,6,,,,,,,,5,,,41,110
169654,note_on,22,0,5,,,,,,,,4,,,76,0
169654,note_on,22,0,3,,,,,,,,2,,,76,0
169656,note_on,2,0,3,,,,,,,,2,,,74,110
169656,note_on,2,0,5,,,,,,,,4,,,74,110
169678,note_on,46,0,4,,,,,,,,3,,,50,0
169678,note_on,22,0,3,,,,,,,,2,,,74,0
169678,note_on,22,0,5,,,,,,,,4,,,74,0
169678,note_on,46,0,2,,,,,,,,1,,,65,0
169680,note_on,2,0,5,,,,,,,,4,,,76,110
169680,note_on,2,0,4,,,,,,,,3,,,57,110
169680,note_on,2,0,3,,,,,,,,2,,,76,110
169680,note_on,2,0,2,,,,,,,,1,,,64,110
169702,note_on,22,0,5,,,,,,,,4,,,76,0
169702,note_on,22,0,3,,,,,,,,2,,,76,0
169704,note_on,2,0,5,,,,,,,,4,,,74,110
169704,note_on,2,0,3,,,,,,,,2,,,74,110
169726,note_on,94,0,7,,,,,,,,6,,,69,0
169726,note_on,94,0,12,,,,,,,,12,,,53,0
169726,note_on,22,0,3,,,,,,,,2,,,74,0
169726,note_on,46,0,4,,,,,,,,3,,,57,0
169726,note_on,94,0,11,,,,,,,,11,,,65,0
169726,note_on,94,0,8,,,,,,,,7,,,53,0
169726,note_on,22,0,5,,,,,,,,4,,,74,0
169726,note_on,46,0,2,,,,,,,,1,,,64,0
169726,note_on,94,0,1,,,,,,,,0,,,69,0
169726,note_on,94,0,6,,,,,,,,5,,,41,0
169726,note_on,94,0,10,,,,,,,,10,,,69,0
169728,note_on,2,0,2,,,,,,,,1,,,65,110
169728,note_on,2,0,8,,,,,,,,7,,,53,110
169728,note_on,2,0,11,,,,,,,,11,,,65,92
169728,note_on,2,0,7,,,,,,,,6,,,81,110
169728,note_on,2,0,1,,,,,,,,0,,,81,110
169728,note_on,2,0,4,,,,,,,,3,,,62,110
169728,note_on,2,0,6,,,,,,,,5,,,41,110
169728,note_on,2,0,5,,,,,,,,4,,,76,110
169728,note_on,2,0,12,,,,,,,,12,,,53,92
169728,note_on,2,0,10,,,,,,,,10,,,81,92
169728,note_on,2,0,3,,,,,,,,2,,,76,110
169750,note_on,22,0,3,,,,,,,,2,,,76,0
169750,note_on,22,0,5,,,,,,,,4,,,76,0
169752,note_on,2,0,3,,,,,,,,2,,,74,110
169752,note_on,2,0,5,,,,,,,,4,,,74,110
169774,note_on,22,0,3,,,,,,,,2,,,74,0
169774,note_on,22,0,5,,,,,,,,4,,,74,0
169774,note_on,46,0,2,,,,,,,,1,,,65,0
169774,note_on,46,0,4,,,,,,,,3,,,62,0
169776,note_on,2,0,5,,,,,,,,4,,,76,110
169776,note_on,2,0,3,,,,,,,,2,,,76,110
169776,note_on,2,0,2,,,,,,,,1,,,67,110
169776,note_on,2,0,4,,,,,,,,3,,,61,110
169798,note_on,22,0,3,,,,,,,,2,,,76,0
169798,note_on,22,0,5,,,,,,,,4,,,76,0
169800,note_on,2,0,5,,,,,,,,4,,,74,110
169800,note_on,2,0,3,,,,,,,,2,,,74,110
169822,note_on,94,0,1,,,,,,,,0,,,81,0
169822,note_on,94,0,11,,,,,,,,11,,,65,0
169822,note_on,22,0,3,,,,,,,,2,,,74,0
169822,note_on,94,0,10,,,,,,,,10,,,81,0
169822,note_on,46,0,4,,,,,,,,3,,,61,0
169822,note_on,22,0,5,,,,,,,,4,,,74,0
169822,note_on,94,0,8,,,,,,,,7,,,53,0
169822,note_on,94,0,6,,,,,,,,5,,,41,0
169822,note_on,94,0,7,,,,,,,,6,,,81,0
169822,note_on,46,0,2,,,,,,,,1,,,67,0
169822,note_on,94,0,12,,,,,,,,12,,,53,0
169824,note_on,2,0,6,,,,,,,,5,,,41,110
169824,note_on,2,0,11,,,,,,,,11,,,65,92
169824,note_on,2,0,8,,,,,,,,7,,,53,110
169824,note_on,2,0,7,,,,,,,,6,,,69,110
169824,note_on,2,0,3,,,,,,,,2,,,76,110
169824,note_on,2,0,12,,,,,,,,12,,,53,92
169824,note_on,2,0,1,,,,,,,,0,,,69,110
169824,note_on,2,0,4,,,,,,,,3,,,62,110
169824,note_on,2,0,10,,,,,,,,10,,,69,92
169824,note_on,2,0,5,,,,,,,,4,,,76,110
169824,note_on,2,0,2,,,,,,,,1,,,65,110
169846,note_on,22,0,5,,,,,,,,4,,,76,0
169846,note_on,22,0,3,,,,,,,,2,,,76,0
169848,note_on,2,0,5,,,,,,,,4,,,74,110
169848,note_on,2,0,3,,,,,,,,2,,,74,110
169870,note_on,46,0,4,,,,,,,,3,,,62,0
169870,note_on,22,0,3,,,,,,,,2,,,74,0
169870,note_on,46,0,2,,,,,,,,1,,,65,0
169870,note_on,22,0,5,,,,,,,,4,,,74,0
169872,note_on,2,0,4,,,,,,,,3,,,64,110
169872,note_on,2,0,2,,,,,,,,1,,,64,110
169872,note_on,2,0,3,,,,,,,,2,,,76,110
169872,note_on,2,0,5,,,,,,,,4,,,76,110
169888,note_on,256,0,9,,,,,,,,8,,,74,0
169894,note_on,22,0,3,,,,,,,,2,,,76,0
169894,note_on,22,0,5,,,,,,,,4,,,76,0
169896,note_on,2,0,5,,,,,,,,4,,,74,110
169896,note_on,2,0,3,,,,,,,,2,,,74,110
169918,note_on,94,0,6,,,,,,,,5,,,41,0
169918,note_on,94,0,8,,,,,,,,7,,,53,0
169918,note_on,94,0,1,,,,,,,,0,,,69,0
169918,note_on,94,0,12,,,,,,,,12,,,53,0
169918,note_on,46,0,4,,,,,,,,3,,,64,0
169918,note_on,22,0,5,,,,,,,,4,,,74,0
169918,note_on,46,0,2,,,,,,,,1,,,64,0
169918,note_on,94,0,7,,,,,,,,6,,,69,0
169918,note_on,22,0,3,,,,,,,,2,,,74,0
169918,note_on,94,0,11,,,,,,,,11,,,65,0
169918,note_on,94,0,10,,,,,,,,10,,,69,0
169920,note_on,2,0,10,,,,,,,,10,,,69,92
169920,note_on,2,0,5,,,,,,,,4,,,76,110
169920,note_on,2,0,2,,,,,,,,1,,,63,110
169920,note_on,2,0,12,,,,,,,,12,,,47,92
169920,note_on,2,0,11,,,,,,,,11,,,66,92
169920,note_on,2,0,7,,,,,,,,6,,,69,110
169920,note_on,2,0,3,,,,,,,,2,,,76,110
169920,note_on,2,0,6,,,,,,,,5,,,35,110
169920,note_on,2,0,4,,,,,,,,3,,,66,110
169920,note_on,2,0,1,,,,,,,,0,,,69,110
169920,note_on,32,0,9,,,,,,,,8,,,75,92
169920,note_on,2,0,8,,,,,,,,7,,,47,110
169942,note_on,22,0,5,,,,,,,,4,,,76,0
169942,note_on,22,0,3,,,,,,,,2,,,76,0
169944,note_on,2,0,5,,,,,,,,4,,,75,110
169944,note_on,2,0,3,,,,,,,,2,,,75,110
169966,note_on,22,0,5,,,,,,,,4,,,75,0
169966,note_on,46,0,4,,,,,,,,3,,,66,0
169966,note_on,22,0,3,,,,,,,,2,,,75,0
169966,note_on,46,0,2,,,,,,,,1,,,63,0
169968,note_on,2,0,3,,,,,,,,2,,,76,110
169968,note_on,2,0,2,,,,,,,,1,,,64,110
169968,note_on,2,0,4,,,,,,,,3,,,64,110
169968,note_on,2,0,5,,,,,,,,4,,,76,110
169990,note_on,22,0,5,,,,,,,,4,,,76,0
169990,note_on,22,0,3,,,,,,,,2,,,76,0
169992,note_on,2,0,3,,,,,,,,2,,,75,110
169992,note_on,2,0,5,,,,,,,,4,,,75,110
170014,note_on,46,0,2,,,,,,,,1,,,64,0
170014,note_on,22,0,3,,,,,,,,2,,,75,0
170014,note_on,94,0,12,,,,,,,,12,,,47,0
170014,note_on,94,0,6,,,,,,,,5,,,35,0
170014,note_on,22,0,5,,,,,,,,4,,,75,0
170014,note_on,46,0,4,,,,,,,,3,,,64,0
170014,note_on,94,0,10,,,,,,,,10,,,69,0
170014,note_on,94,0,8,,,,,,,,7,,,47,0
170014,note_on,94,0,7,,,,,,,,6,,,69,0
170014,note_on,94,0,11,,,,,,,,11,,,66,0
170014,note_on,94,0,1,,,,,,,,0,,,69,0
170016,note_on,2,0,6,,,,,,,,5,,,35,110
170016,note_on,2,0,8,,,,,,,,7,,,47,110
170016,note_on,2,0,7,,,,,,,,6,,,81,110
170016,note_on,2,0,11,,,,,,,,11,,,66,92
170016,note_on,2,0,3,,,,,,,,2,,,76,110
170016,note_on,2,0,4,,,,,,,,3,,,63,110
170016,note_on,2,0,5,,,,,,,,4,,,76,110
170016,note_on,2,0,2,,,,,,,,1,,,66,110
170016,note_on,2,0,10,,,,,,,,10,,,81,92
170016,note_on,2,0,1,,,,,,,,0,,,81,110
170016,note_on,2,0,12,,,,,,,,12,,,47,92
170038,note_on,22,0,5,,,,,,,,4,,,76,0
170038,note_on,22,0,3,,,,,,,,2,,,76,0
170040,note_on,2,0,5,,,,,,,,4,,,75,110
170040,note_on,2,0,3,,,,,,,,2,,,75,110
170062,note_on,22,0,5,,,,,,,,4,,,75,0
170062,note_on,46,0,2,,,,,,,,1,,,66,0
170062,note_on,22,0,3,,,,,,,,2,,,75,0
170062,note_on,46,0,4,,,,,,,,3,,,63,0
170064,note_on,2,0,3,,,,,,,,2,,,76,110
170064,note_on,2,0,2,,,,,,,,1,,,64,110
170064,note_on,2,0,5,,,,,,,,4,,,76,110
170064,note_on,2,0,4,,,,,,,,3,,,61,110
170086,note_on,22,0,3,,,,,,,,2,,,76,0
170086,note_on,22,0,5,,,,,,,,4,,,76,0
170088,note_on,2,0,3,,,,,,,,2,,,75,110
170088,note_on,2,0,5,,,,,,,,4,,,75,110
170110,note_on,22,0,3,,,,,,,,2,,,75,0
170110,note_on,22,0,5,,,,,,,,4,,,75,0
170110,note_on,94,0,8,,,,,,,,7,,,47,0
170110,note_on,94,0,11,,,,,,,,11,,,66,0
170110,note_on,94,0,1,,,,,,,,0,,,81,0
170110,note_on,46,0,4,,,,,,,,3,,,61,0
170110,note_on,94,0,12,,,,,,,,12,,,47,0
170110,note_on,94,0,6,,,,,,,,5,,,35,0
170110,note_on,94,0,10,,,,,,,,10,,,81,0
170110,note_on,46,0,2,,,,,,,,1,,,64,0
170110,note_on,94,0,7,,,,,,,,6,,,81,0
170112,note_on,2,0,1,,,,,,,,0,,,69,110
170112,note_on,2,0,3,,,,,,,,2,,,76,110
170112,note_on,2,0,4,,,,,,,,3,,,63,110
170112,note_on,2,0,8,,,,,,,,7,,,47,110
170112,note_on,2,0,7,,,,,,,,6,,,69,110
170112,note_on,2,0,5,,,,,,,,4,,,76,110
170112,note_on,2,0,6,,,,,,,,5,,,35,110
170112,note_on,2,0,2,,,,,,,,1,,,63,110
170112,note_on,2,0,12,,,,,,,,12,,,47,92
170112,note_on,2,0,10,,,,,,,,10,,,69,92
170112,note_on,2,0,11,,,,,,,,11,,,66,92
170134,note_on,22,0,5,,,,,,,,4,,,76,0
170134,note_on,22,0,3,,,,,,,,2,,,76,0
170136,note_on,2,0,3,,,,,,,,2,,,75,110
170136,note_on,2,0,5,,,,,,,,4,,,75,110
170158,note_on,22,0,3,,,,,,,,2,,,75,0
170158,note_on,22,0,5,,,,,,,,4,,,75,0
170158,note_on,46,0,2,,,,,,,,1,,,63,0
170158,note_on,46,0,4,,,,,,,,3,,,63,0
170160,note_on,2,0,4,,,,,,,,3,,,66,110
170160,note_on,2,0,2,,,,,,,,1,,,61,110
170160,note_on,2,0,3,,,,,,,,2,,,76,110
170160,note_on,2,0,5,,,,,,,,4,,,76,110
170176,note_on,256,0,9,,,,,,,,8,,,75,0
170182,note_on,22,0,5,,,,,,,,4,,,76,0
170182,note_on,22,0,3,,,,,,,,2,,,76,0
170184,note_on,2,0,3,,,,,,,,2,,,75,110
170184,note_on,2,0,5,,,,,,,,4,,,75,110
170206,note_on,94,0,6,,,,,,,,5,,,35,0
170206,note_on,22,0,5,,,,,,,,4,,,75,0
170206,note_on,46,0,4,,,,,,,,3,,,66,0
170206,note_on,94,0,10,,,,,,,,10,,,69,0
170206,note_on,94,0,1,,,,,,,,0,,,69,0
170206,note_on,94,0,7,,,,,,,,6,,,69,0
170206,note_on,94,0,12,,,,,,,,12,,,47,0
170206,note_on,94,0,8,,,,,,,,7,,,47,0
170206,note_on,22,0,3,,,,,,,,2,,,75,0
170206,note_on,46,0,2,,,,,,,,1,,,61,0
170206,note_on,94,0,11,,,,,,,,11,,,66,0
170208,note_on,2,0,5,,,,,,,,4,,,76,110
170208,note_on,2,0,12,,,,,,,,12,,,40,92
170208,note_on,2,0,6,,,,,,,,5,,,40,110
170208,note_on,2,0,3,,,,,,,,2,,,76,110
170208,note_on,2,0,10,,,,,,,,10,,,68,92
170208,note_on,2,0,11,,,,,,,,11,,,64,92
170208,note_on,32,0,9,,,,,,,,8,,,76,92
170208,note_on,2,0,1,,,,,,,,0,,,68,110
170208,note_on,2,0,2,,,,,,,,1,,,59,110
170208,note_on,2,0,4,,,,,,,,3,,,68,110
170208,note_on,2,0,7,,,,,,,,6,,,68,110
170208,note_on,2,0,8,,,,,,,,7,,,52,110
170254,note_on,46,0,2,,,,,,,,1,,,59,0
170254,note_on,46,0,5,,,,,,,,4,,,76,0
170254,note_on,46,0,3,,,,,,,,2,,,76,0
170256,note_on,2,0,2,,,,,,,,1,,,57,110
170256,note_on,2,0,5,,,,,,,,4,,,77,110
170256,note_on,2,0,3,,,,,,,,2,,,77,110
170302,note_on,46,0,2,,,,,,,,1,,,57,0
170302,note_on,46,0,5,,,,,,,,4,,,77,0
170302,note_on,94,0,4,,,,,,,,3,,,68,0
170302,note_on,46,0,3,,,,,,,,2,,,77,0
170302,note_on,94,0,12,,,,,,,,12,,,40,0
170302,note_on,94,0,11,,,,,,,,11,,,64,0
170302,note_on,94,0,10,,,,,,,,10,,,68,0
170304,note_on,2,0,3,,,,,,,,2,,,76,110
170304,note_on,2,0,11,,,,,,,,11,,,59,92
170304,note_on,2,0,5,,,,,,,,4,,,76,110
170304,note_on,2,0,10,,,,,,,,10,,,71,92
170304,note_on,2,0,12,,,,,,,,12,,,44,92
170304,note_on,2,0,4,,,,,,,,3,,,59,110
170304,note_on,2,0,2,,,,,,,,1,,,56,110
170350,note_on,46,0,2,,,,,,,,1,,,56,0
170350,note_on,46,0,5,,,,,,,,4,,,76,0
170350,note_on,46,0,3,,,,,,,,2,,,76,0
170352,note_on,2,0,5,,,,,,,,4,,,74,110
170352,note_on,2,0,2,,,,,,,,1,,,54,110
170352,note_on,2,0,3,,,,,,,,2,,,74,110
170368,note_on,160,0,6,,,,,,,,5,,,40,0
170368,note_on,160,0,8,,,,,,,,7,,,52,0
170368,note_on,160,0,7,,,,,,,,6,,,68,0
170368,note_on,160,0,1,,,,,,,,0,,,68,0
170398,note_on,94,0,11,,,,,,,,11,,,59,0
170398,note_on,94,0,4,,,,,,,,3,,,59,0
170398,note_on,94,0,10,,,,,,,,10,,,71,0
170398,note_on,46,0,5,,,,,,,,4,,,74,0
170398,note_on,94,0,12,,,,,,,,12,,,44,0
170398,note_on,46,0,3,,,,,,,,2,,,74,0
170398,note_on,46,0,2,,,,,,,,1,,,54,0
170400,note_on,2,0,10,,,,,,,,10,,,76,92
170400,note_on,2,0,4,,,,,,,,3,,,64,110
170400,note_on,32,0,6,,,,,,,,5,,,56,110
170400,note_on,2,0,11,,,,,,,,11,,,56,92
170400,note_on,2,0,3,,,,,,,,2,,,72,110
170400,note_on,2,0,5,,,,,,,,4,,,72,110
170400,note_on,2,0,12,,,,,,,,12,,,40,92
170400,note_on,2,0,2,,,,,,,,1,,,52,110
170446,note_on,46,0,2,,,,,,,,1,,,52,0
170446,note_on,46,0,5,,,,,,,,4,,,72,0
170446,note_on,46,0,3,,,,,,,,2,,,72,0
170448,note_on,2,0,2,,,,,,,,1,,,50,110
170448,note_on,2,0,3,,,,,,,,2,,,71,110
170448,note_on,2,0,5,,,,,,,,4,,,71,110
170494,note_on,46,0,2,,,,,,,,1,,,50,0
170494,note_on,94,0,12,,,,,,,,12,,,40,0
170494,note_on,94,0,10,,,,,,,,10,,,76,0
170494,note_on,46,0,5,,,,,,,,4,,,71,0
170494,note_on,46,0,3,,,,,,,,2,,,71,0
170494,note_on,94,0,11,,,,,,,,11,,,56,0
170494,note_on,94,0,6,,,,,,,,5,,,56,0
170494,note_on,94,0,4,,,,,,,,3,,,64,0
170496,note_on,2,0,3,,,,,,,,2,,,72,110
170496,note_on,2,0,11,,,,,,,,11,,,57,92
170496,note_on,128,0,7,,,,,,,,6,,,77,110
170496,note_on,128,0,1,,,,,,,,0,,,77,110
170496,note_on,128,0,8,,,,,,,,7,,,69,110
170496,note_on,2,0,6,,,,,,,,5,,,57,110
170496,note_on,2,0,10,,,,,,,,10,,,72,92
170496,note_on,2,0,12,,,,,,,,12,,,45,92
170496,note_on,2,0,5,,,,,,,,4,,,72,110
170496,note_on,2,0,4,,,,,,,,3,,,57,110
170496,note_on,2,0,2,,,,,,,,1,,,48,110
170518,note_on,22,0,1,,,,,,,,0,,,77,0
170518,note_on,22,0,7,,,,,,,,6,,,77,0
170520,note_on,2,0,1,,,,,,,,0,,,76,110
170520,note_on,2,0,7,,,,,,,,6,,,76,110
170542,note_on,22,0,7,,,,,,,,6,,,76,0
170542,note_on,22,0,1,,,,,,,,0,,,76,0
170542,note_on,46,0,8,,,,,,,,7,,,69,0
170542,note_on,46,0,2,,,,,,,,1,,,48,0
170544,note_on,2,0,7,,,,,,,,6,,,77,110
170544,note_on,2,0,8,,,,,,,,7,,,67,110
170544,note_on,2,0,2,,,,,,,,1,,,47,110
170544,note_on,2,0,1,,,,,,,,0,,,77,110
170566,note_on,22,0,1,,,,,,,,0,,,77,0
170566,note_on,22,0,7,,,,,,,,6,,,77,0
170568,note_on,2,0,1,,,,,,,,0,,,76,110
170568,note_on,2,0,7,,,,,,,,6,,,76,110
170590,note_on,94,0,12,,,,,,,,12,,,45,0
170590,note_on,94,0,3,,,,,,,,2,,,72,0
170590,note_on,22,0,1,,,,,,,,0,,,76,0
170590,note_on,22,0,7,,,,,,,,6,,,76,0
170590,note_on,94,0,5,,,,,,,,4,,,72,0
170590,note_on,94,0,10,,,,,,,,10,,,72,0
170590,note_on,94,0,11,,,,,,,,11,,,57,0
170590,note_on,46,0,2,,,,,,,,1,,,47,0
170590,note_on,46,0,8,,,,,,,,7,,,67,0
170590,note_on,94,0,4,,,,,,,,3,,,57,0
170592,note_on,2,0,7,,,,,,,,6,,,77,110
170592,note_on,2,0,5,,,,,,,,4,,,74,110
170592,note_on,2,0,3,,,,,,,,2,,,74,110
170592,note_on,2,0,10,,,,,,,,10,,,74,92
170592,note_on,2,0,2,,,,,,,,1,,,45,110
170592,note_on,2,0,8,,,,,,,,7,,,69,110
170592,note_on,2,0,12,,,,,,,,12,,,45,92
170592,note_on,2,0,11,,,,,,,,11,,,64,92
170592,note_on,2,0,1,,,,,,,,0,,,77,110
170592,note_on,2,0,4,,,,,,,,3,,,57,110
170614,note_on,22,0,10,,,,,,,,10,,,74,0
170614,note_on,22,0,3,,,,,,,,2,,,74,0
170614,note_on,22,0,1,,,,,,,,0,,,77,0
170614,note_on,22,0,5,,,,,,,,4,,,74,0
170614,note_on,22,0,7,,,,,,,,6,,,77,0
170616,note_on,2,0,3,,,,,,,,2,,,73,110
170616,note_on,2,0,7,,,,,,,,6,,,76,110
170616,note_on,2,0,1,,,,,,,,0,,,76,110
170616,note_on,2,0,5,,,,,,,,4,,,73,110
170616,note_on,2,0,10,,,,,,,,10,,,73,92
170638,note_on,22,0,5,,,,,,,,4,,,73,0
170638,note_on,22,0,3,,,,,,,,2,,,73,0
170638,note_on,22,0,1,,,,,,,,0,,,76,0
170638,note_on,46,0,2,,,,,,,,1,,,45,0
170638,note_on,46,0,8,,,,,,,,7,,,69,0
170638,note_on,22,0,10,,,,,,,,10,,,73,0
170638,note_on,22,0,7,,,,,,,,6,,,76,0
170640,note_on,2,0,5,,,,,,,,4,,,74,110
170640,note_on,2,0,3,,,,,,,,2,,,74,110
170640,note_on,2,0,8,,,,,,,,7,,,70,110
170640,note_on,2,0,1,,,,,,,,0,,,77,110
170640,note_on,2,0,2,,,,,,,,1,,,43,110
170640,note_on,2,0,10,,,,,,,,10,,,74,92
170640,note_on,2,0,7,,,,,,,,6,,,77,110
170656,note_on,160,0,6,,,,,,,,5,,,57,0
170662,note_on,22,0,3,,,,,,,,2,,,74,0
170662,note_on,22,0,10,,,,,,,,10,,,74,0
170662,note_on,22,0,7,,,,,,,,6,,,77,0
170662,note_on,22,0,1,,,,,,,,0,,,77,0
170662,note_on,22,0,5,,,,,,,,4,,,74,0
170664,note_on,2,0,1,,,,,,,,0,,,76,110
170664,note_on,2,0,10,,,,,,,,10,,,73,92
170664,note_on,2,0,3,,,,,,,,2,,,73,110
170664,note_on,2,0,7,,,,,,,,6,,,76,110
170664,note_on,2,0,5,,,,,,,,4,,,73,110
170686,note_on,22,0,10,,,,,,,,10,,,73,0
170686,note_on,46,0,2,,,,,,,,1,,,43,0
170686,note_on,46,0,8,,,,,,,,7,,,70,0
170686,note_on,94,0,4,,,,,,,,3,,,57,0
170686,note_on,94,0,12,,,,,,,,12,,,45,0
170686,note_on,22,0,1,,,,,,,,0,,,76,0
170686,note_on,94,0,11,,,,,,,,11,,,64,0
170686,note_on,22,0,7,,,,,,,,6,,,76,0
170686,note_on,22,0,5,,,,,,,,4,,,73,0
170686,note_on,22,0,3,,,,,,,,2,,,73,0
170688,note_on,2,0,8,,,,,,,,7,,,69,110
170688,note_on,2,0,10,,,,,,,,10,,,74,92
170688,note_on,2,0,11,,,,,,,,11,,,69,92
170688,note_on,2,0,2,,,,,,,,1,,,41,110
170688,note_on,2,0,3,,,,,,,,2,,,74,110
170688,note_on,2,0,4,,,,,,,,3,,,57,110
170688,note_on,2,0,12,,,,,,,,12,,,45,92
170688,note_on,2,0,5,,,,,,,,4,,,74,110
170688,note_on,2,0,1,,,,,,,,0,,,77,110
170688,note_on,2,0,7,,,,,,,,6,,,77,110
170688,note_on,32,0,6,,,,,,,,5,,,45,110
170710,note_on,22,0,10,,,,,,,,10,,,74,0
170710,note_on,22,0,1,,,,,,,,0,,,77,0
170710,note_on,22,0,3,,,,,,,,2,,,74,0
170710,note_on,22,0,7,,,,,,,,6,,,77,0
170710,note_on,22,0,5,,,,,,,,4,,,74,0
170712,note_on,2,0,3,,,,,,,,2,,,73,110
170712,note_on,2,0,7,,,,,,,,6,,,76,110
170712,note_on,2,0,5,,,,,,,,4,,,73,110
170712,note_on,2,0,1,,,,,,,,0,,,76,110
170712,note_on,2,0,10,,,,,,,,10,,,73,92
170734,note_on,46,0,8,,,,,,,,7,,,69,0
170734,note_on,22,0,5,,,,,,,,4,,,73,0
170734,note_on,22,0,1,,,,,,,,0,,,76,0
170734,note_on,22,0,10,,,,,,,,10,,,73,0
170734,note_on,46,0,2,,,,,,,,1,,,41,0
170734,note_on,22,0,7,,,,,,,,6,,,76,0
170734,note_on,22,0,3,,,,,,,,2,,,73,0
170736,note_on,2,0,5,,,,,,,,4,,,74,110
170736,note_on,2,0,1,,,,,,,,0,,,77,110
170736,note_on,2,0,10,,,,,,,,10,,,74,92
170736,note_on,2,0,2,,,,,,,,1,,,40,110
170736,note_on,2,0,8,,,,,,,,7,,,67,110
170736,note_on,2,0,7,,,,,,,,6,,,77,110
170736,note_on,2,0,3,,,,,,,,2,,,74,110
170752,note_on,544,0,9,,,,,,,,8,,,76,0
170758,note_on,22,0,5,,,,,,,,4,,,74,0
170758,note_on,22,0,7,,,,,,,,6,,,77,0
170758,note_on,22,0,1,,,,,,,,0,,,77,0
170758,note_on,22,0,3,,,,,,,,2,,,74,0
170758,note_on,22,0,10,,,,,,,,10,,,74,0
170760,note_on,2,0,10,,,,,,,,10,,,73,92
170760,note_on,2,0,1,,,,,,,,0,,,76,110
170760,note_on,2,0,3,,,,,,,,2,,,73,110
170760,note_on,2,0,5,,,,,,,,4,,,73,110
170760,note_on,2,0,7,,,,,,,,6,,,76,110
170782,note_on,46,0,2,,,,,,,,1,,,40,0
170782,note_on,46,0,8,,,,,,,,7,,,67,0
170782,note_on,94,0,4,,,,,,,,3,,,57,0
170782,note_on,22,0,7,,,,,,,,6,,,76,0
170782,note_on,94,0,6,,,,,,,,5,,,45,0
170782,note_on,22,0,10,,,,,,,,10,,,73,0
170782,note_on,22,0,1,,,,,,,,0,,,76,0
170782,note_on,94,0,11,,,,,,,,11,,,69,0
170782,note_on,94,0,12,,,,,,,,12,,,45,0
170782,note_on,22,0,5,,,,,,,,4,,,73,0
170782,note_on,22,0,3,,,,,,,,2,,,73,0
170784,note_on,2,0,8,,,,,,,,7,,,65,110
170784,note_on,2,0,3,,,,,,,,2,,,74,110
170784,note_on,2,0,2,,,,,,,,1,,,38,110
170784,note_on,2,0,10,,,,,,,,10,,,74,92
170784,note_on,2,0,5,,,,,,,,4,,,74,110
170784,note_on,2,0,12,,,,,,,,12,,,50,92
170784,note_on,2,0,7,,,,,,,,6,,,79,110
170784,note_on,2,0,11,,,,,,,,11,,,69,92
170784,note_on,32,0,9,,,,,,,,8,,,77,92
170784,note_on,2,0,1,,,,,,,,0,,,79,110
170784,note_on,2,0,6,,,,,,,,5,,,50,110
170784,note_on,2,0,4,,,,,,,,3,,,50,110
170806,note_on,22,0,7,,,,,,,,6,,,79,0
170806,note_on,22,0,1,,,,,,,,0,,,79,0
170808,note_on,2,0,7,,,,,,,,6,,,77,110
170808,note_on,2,0,1,,,,,,,,0,,,77,110
170830,note_on,46,0,8,,,,,,,,7,,,65,0
170830,note_on,46,0,6,,,,,,,,5,,,50,0
170830,note_on,22,0,7,,,,,,,,6,,,77,0
170830,note_on,22,0,1,,,,,,,,0,,,77,0
170832,note_on,2,0,8,,,,,,,,7,,,64,110
170832,note_on,2,0,6,,,,,,,,5,,,49,110
170832,note_on,2,0,7,,,,,,,,6,,,79,110
170832,note_on,2,0,1,,,,,,,,0,,,79,110
170854,note_on,22,0,1,,,,,,,,0,,,79,0
170854,note_on,22,0,7,,,,,,,,6,,,79,0
170856,note_on,2,0,7,,,,,,,,6,,,77,110
170856,note_on,2,0,1,,,,,,,,0,,,77,110
170878,note_on,22,0,1,,,,,,,,0,,,77,0
170878,note_on,94,0,5,,,,,,,,4,,,74,0
170878,note_on,94,0,10,,,,,,,,10,,,74,0
170878,note_on,94,0,11,,,,,,,,11,,,69,0
170878,note_on,46,0,8,,,,,,,,7,,,64,0
170878,note_on,94,0,12,,,,,,,,12,,,50,0
170878,note_on,94,0,4,,,,,,,,3,,,50,0
170878,note_on,46,0,6,,,,,,,,5,,,49,0
170878,note_on,94,0,2,,,,,,,,1,,,38,0
170878,note_on,22,0,7,,,,,,,,6,,,77,0
170878,note_on,94,0,3,,,,,,,,2,,,74,0
170880,note_on,2,0,6,,,,,,,,5,,,50,110
170880,note_on,2,0,1,,,,,,,,0,,,79,110
170880,note_on,2,0,4,,,,,,,,3,,,50,110
170880,note_on,2,0,2,,,,,,,,1,,,38,110
170880,note_on,2,0,8,,,,,,,,7,,,65,110
170880,note_on,2,0,7,,,,,,,,6,,,79,110
170880,note_on,2,0,3,,,,,,,,2,,,62,110
170880,note_on,2,0,12,,,,,,,,12,,,50,92
170880,note_on,2,0,11,,,,,,,,11,,,69,92
170880,note_on,2,0,10,,,,,,,,10,,,62,92
170880,note_on,2,0,5,,,,,,,,4,,,62,110
170902,note_on,22,0,1,,,,,,,,0,,,79,0
170902,note_on,22,0,7,,,,,,,,6,,,79,0
170904,note_on,2,0,1,,,,,,,,0,,,77,110
170904,note_on,2,0,7,,,,,,,,6,,,77,110
170926,note_on,46,0,6,,,,,,,,5,,,50,0
170926,note_on,46,0,8,,,,,,,,7,,,65,0
170926,note_on,22,0,1,,,,,,,,0,,,77,0
170926,note_on,22,0,7,,,,,,,,6,,,77,0
170928,note_on,2,0,1,,,,,,,,0,,,79,110
170928,note_on,2,0,8,,,,,,,,7,,,67,110
170928,note_on,2,0,7,,,,,,,,6,,,79,110
170928,note_on,2,0,6,,,,,,,,5,,,52,110
170950,note_on,22,0,1,,,,,,,,0,,,79,0
170950,note_on,22,0,7,,,,,,,,6,,,79,0
170952,note_on,2,0,1,,,,,,,,0,,,77,110
170952,note_on,2,0,7,,,,,,,,6,,,77,110
170974,note_on,94,0,4,,,,,,,,3,,,50,0
170974,note_on,94,0,11,,,,,,,,11,,,69,0
170974,note_on,22,0,7,,,,,,,,6,,,77,0
170974,note_on,46,0,6,,,,,,,,5,,,52,0
170974,note_on,94,0,10,,,,,,,,10,,,62,0
170974,note_on,94,0,2,,,,,,,,1,,,38,0
170974,note_on,94,0,5,,,,,,,,4,,,62,0
170974,note_on,46,0,8,,,,,,,,7,,,67,0
170974,note_on,94,0,12,,,,,,,,12,,,50,0
170974,note_on,94,0,3,,,,,,,,2,,,62,0
170974,note_on,22,0,1,,,,,,,,0,,,77,0
170976,note_on,2,0,7,,,,,,,,6,,,79,110
170976,note_on,2,0,10,,,,,,,,10,,,74,92
170976,note_on,2,0,5,,,,,,,,4,,,74,110
170976,note_on,2,0,8,,,,,,,,7,,,65,110
170976,note_on,2,0,2,,,,,,,,1,,,38,110
170976,note_on,2,0,6,,,,,,,,5,,,53,110
170976,note_on,2,0,11,,,,,,,,11,,,69,92
170976,note_on,2,0,1,,,,,,,,0,,,79,110
170976,note_on,2,0,12,,,,,,,,12,,,50,92
170976,note_on,2,0,3,,,,,,,,2,,,74,110
170976,note_on,2,0,4,,,,,,,,3,,,50,110
170998,note_on,22,0,7,,,,,,,,6,,,79,0
170998,note_on,22,0,1,,,,,,,,0,,,79,0
171000,note_on,2,0,1,,,,,,,,0,,,77,110
171000,note_on,2,0,7,,,,,,,,6,,,77,110
171022,note_on,22,0,1,,,,,,,,0,,,77,0
171022,note_on,46,0,6,,,,,,,,5,,,53,0
171022,note_on,22,0,7,,,,,,,,6,,,77,0
171022,note_on,46,0,8,,,,,,,,7,,,65,0
171024,note_on,2,0,8,,,,,,,,7,,,64,110
171024,note_on,2,0,6,,,,,,,,5,,,55,110
171024,note_on,2,0,7,,,,,,,,6,,,79,110
171024,note_on,2,0,1,,,,,,,,0,,,79,110
171040,note_on,256,0,9,,,,,,,,8,,,77,0
171046,note_on,22,0,1,,,,,,,,0,,,79,0
171046,note_on,22,0,7,,,,,,,,6,,,79,0
171048,note_on,2,0,1,,,,,,,,0,,,77,110
171048,note_on,2,0,7,,,,,,,,6,,,77,110
171070,note_on,94,0,4,,,,,,,,3,,,50,0
171070,note_on,94,0,3,,,,,,,,2,,,74,0
171070,note_on,94,0,5,,,,,,,,4,,,74,0
171070,note_on,94,0,12,,,,,,,,12,,,50,0
171070,note_on,22,0,7,,,,,,,,6,,,77,0
171070,note_on,94,0,11,,,,,,,,11,,,69,0
171070,note_on,22,0,1,,,,,,,,0,,,77,0
171070,note_on,94,0,10,,,,,,,,10,,,74,0
171070,note_on,46,0,6,,,,,,,,5,,,55,0
171070,note_on,46,0,8,,,,,,,,7,,,64,0
171070,note_on,94,0,2,,,,,,,,1,,,38,0
171072,note_on,2,0,12,,,,,,,,12,,,48,92
171072,note_on,2,0,6,,,,,,,,5,,,57,110
171072,note_on,2,0,2,,,,,,,,1,,,36,110
171072,note_on,2,0,7,,,,,,,,6,,,79,110
171072,note_on,2,0,8,,,,,,,,7,,,62,110
171072,note_on,2,0,4,,,,,,,,3,,,48,110
171072,note_on,2,0,10,,,,,,,,10,,,74,92
171072,note_on,32,0,9,,,,,,,,8,,,78,92
171072,note_on,2,0,1,,,,,,,,0,,,79,110
171072,note_on,2,0,11,,,,,,,,11,,,69,92
171072,note_on,2,0,3,,,,,,,,2,,,74,110
171072,note_on,2,0,5,,,,,,,,4,,,74,110
171094,note_on,22,0,1,,,,,,,,0,,,79,0
171094,note_on,22,0,7,,,,,,,,6,,,79,0
171096,note_on,2,0,1,,,,,,,,0,,,78,110
171096,note_on,2,0,7,,,,,,,,6,,,78,110
171118,note_on,46,0,8,,,,,,,,7,,,62,0
171118,note_on,22,0,7,,,,,,,,6,,,78,0
171118,note_on,22,0,1,,,,,,,,0,,,78,0
171118,note_on,46,0,6,,,,,,,,5,,,57,0
171120,note_on,2,0,1,,,,,,,,0,,,79,110
171120,note_on,2,0,8,,,,,,,,7,,,64,110
171120,note_on,2,0,6,,,,,,,,5,,,55,110
171120,note_on,2,0,7,,,,,,,,6,,,79,110
171142,note_on,22,0,1,,,,,,,,0,,,79,0
171142,note_on,22,0,7,,,,,,,,6,,,79,0
171144,note_on,2,0,1,,,,,,,,0,,,78,110
171144,note_on,2,0,7,,,,,,,,6,,,78,110
171166,note_on,22,0,7,,,,,,,,6,,,78,0
171166,note_on,22,0,1,,,,,,,,0,,,78,0
171166,note_on,94,0,12,,,,,,,,12,,,48,0
171166,note_on,94,0,4,,,,,,,,3,,,48,0
171166,note_on,94,0,5,,,,,,,,4,,,74,0
171166,note_on,94,0,10,,,,,,,,10,,,74,0
171166,note_on,94,0,11,,,,,,,,11,,,69,0
171166,note_on,94,0,3,,,,,,,,2,,,74,0
171166,note_on,46,0,6,,,,,,,,5,,,55,0
171166,note_on,94,0,2,,,,,,,,1,,,36,0
171166,note_on,46,0,8,,,,,,,,7,,,64,0
171168,note_on,2,0,8,,,,,,,,7,,,62,110
171168,note_on,2,0,3,,,,,,,,2,,,62,110
171168,note_on,2,0,4,,,,,,,,3,,,48,110
171168,note_on,2,0,1,,,,,,,,0,,,79,110
171168,note_on,2,0,6,,,,,,,,5,,,54,110
171168,note_on,2,0,7,,,,,,,,6,,,79,110
171168,note_on,2,0,5,,,,,,,,4,,,62,110
171168,note_on,2,0,10,,,,,,,,10,,,62,92
171168,note_on,2,0,12,,,,,,,,12,,,48,92
171168,note_on,2,0,2,,,,,,,,1,,,36,110
171168,note_on,2,0,11,,,,,,,,11,,,69,92
171190,note_on,22,0,7,,,,,,,,6,,,79,0
171190,note_on,22,0,1,,,,,,,,0,,,79,0
171192,note_on,2,0,1,,,,,,,,0,,,78,110
171192,note_on,2,0,7,,,,,,,,6,,,78,110
171214,note_on,22,0,1,,,,,,,,0,,,78,0
171214,note_on,22,0,7,,,,,,,,6,,,78,0
171214,note_on,46,0,8,,,,,,,,7,,,62,0
171214,note_on,46,0,6,,,,,,,,5,,,54,0
171216,note_on,2,0,8,,,,,,,,7,,,60,110
171216,note_on,2,0,6,,,,,,,,5,,,52,110
171216,note_on,2,0,1,,,,,,,,0,,,79,110
171216,note_on,2,0,7,,,,,,,,6,,,79,110
171238,note_on,22,0,1,,,,,,,,0,,,79,0
171238,note_on,22,0,7,,,,,,,,6,,,79,0
171240,note_on,2,0,7,,,,,,,,6,,,78,110
171240,note_on,2,0,1,,,,,,,,0,,,78,110
171262,note_on,94,0,2,,,,,,,,1,,,36,0
171262,note_on,94,0,10,,,,,,,,10,,,62,0
171262,note_on,46,0,6,,,,,,,,5,,,52,0
171262,note_on,22,0,1,,,,,,,,0,,,78,0
171262,note_on,94,0,3,,,,,,,,2,,,62,0
171262,note_on,94,0,11,,,,,,,,11,,,69,0
171262,note_on,46,0,8,,,,,,,,7,,,60,0
171262,note_on,94,0,4,,,,,,,,3,,,48,0
171262,note_on,94,0,5,,,,,,,,4,,,62,0
171262,note_on,94,0,12,,,,,,,,12,,,48,0
171262,note_on,22,0,7,,,,,,,,6,,,78,0
171264,note_on,2,0,5,,,,,,,,4,,,74,110
171264,note_on,2,0,10,,,,,,,,10,,,74,92
171264,note_on,2,0,2,,,,,,,,1,,,36,110
171264,note_on,2,0,11,,,,,,,,11,,,69,92
171264,note_on,2,0,3,,,,,,,,2,,,74,110
171264,note_on,2,0,4,,,,,,,,3,,,48,110
171264,note_on,2,0,8,,,,,,,,7,,,59,110
171264,note_on,2,0,12,,,,,,,,12,,,48,92
171264,note_on,2,0,1,,,,,,,,0,,,79,110
171264,note_on,2,0,6,,,,,,,,5,,,50,110
171264,note_on,2,0,7,,,,,,,,6,,,79,110
171286,note_on,22,0,7,,,,,,,,6,,,79,0
171286,note_on,22,0,1,,,,,,,,0,,,79,0
171288,note_on,2,0,1,,,,,,,,0,,,78,110
171288,note_on,2,0,7,,,,,,,,6,,,78,110
171310,note_on,46,0,8,,,,,,,,7,,,59,0
171310,note_on,22,0,1,,,,,,,,0,,,78,0
171310,note_on,46,0,6,,,,,,,,5,,,50,0
171310,note_on,22,0,7,,,,,,,,6,,,78,0
171312,note_on,2,0,1,,,,,,,,0,,,79,110
171312,note_on,2,0,8,,,,,,,,7,,,57,110
171312,note_on,2,0,7,,,,,,,,6,,,79,110
171312,note_on,2,0,6,,,,,,,,5,,,57,110
171328,note_on,256,0,9,,,,,,,,8,,,78,0
171334,note_on,22,0,1,,,,,,,,0,,,79,0
171334,note_on,22,0,7,,,,,,,,6,,,79,0
171336,note_on,2,0,7,,,,,,,,6,,,78,110
171336,note_on,2,0,1,,,,,,,,0,,,78,110
171358,note_on,22,0,7,,,,,,,,6,,,78,0
171358,note_on,22,0,1,,,,,,,,0,,,78,0
171358,note_on,94,0,10,,,,,,,,10,,,74,0
171358,note_on,94,0,2,,,,,,,,1,,,36,0
171358,note_on,46,0,8,,,,,,,,7,,,57,0
171358,note_on,94,0,4,,,,,,,,3,,,48,0
171358,note_on,94,0,5,,,,,,,,4,,,74,0
171358,note_on,94,0,11,,,,,,,,11,,,69,0
171358,note_on,94,0,3,,,,,,,,2,,,74,0
171358,note_on,94,0,12,,,,,,,,12,,,48,0
171358,note_on,46,0,6,,,,,,,,5,,,57,0
171360,note_on,2,0,2,,,,,,,,1,,,35,110
171360,note_on,2,0,11,,,,,,,,11,,,71,92
171360,note_on,2,0,5,,,,,,,,4,,,74,110
171360,note_on,2,0,7,,,,,,,,6,,,81,110
171360,note_on,2,0,8,,,,,,,,7,,,55,110
171360,note_on,2,0,3,,,,,,,,2,,,74,110
171360,note_on,2,0,4,,,,,,,,3,,,47,110
171360,note_on,2,0,12,,,,,,,,12,,,47,92
171360,note_on,32,0,9,,,,,,,,8,,,79,92
171360,note_on,2,0,1,,,,,,,,0,,,81,110
171360,note_on,2,0,10,,,,,,,,10,,,74,92
171360,note_on,2,0,6,,,,,,,,5,,,59,110
171382,note_on,22,0,7,,,,,,,,6,,,81,0
171382,note_on,22,0,1,,,,,,,,0,,,81,0
171384,note_on,2,0,7,,,,,,,,6,,,79,110
171384,note_on,2,0,1,,,,,,,,0,,,79,110
171406,note_on,22,0,7,,,,,,,,6,,,79,0
171406,note_on,22,0,1,,,,,,,,0,,,79,0
171406,note_on,46,0,6,,,,,,,,5,,,59,0
171406,note_on,46,0,8,,,,,,,,7,,,55,0
171408,note_on,2,0,1,,,,,,,,0,,,81,110
171408,note_on,2,0,6,,,,,,,,5,,,57,110
171408,note_on,2,0,8,,,,,,,,7,,,54,110
171408,note_on,2,0,7,,,,,,,,6,,,81,110
171430,note_on,22,0,7,,,,,,,,6,,,81,0
171430,note_on,22,0,1,,,,,,,,0,,,81,0
171432,note_on,2,0,1,,,,,,,,0,,,79,110
171432,note_on,2,0,7,,,,,,,,6,,,79,110
171454,note_on,46,0,8,,,,,,,,7,,,54,0
171454,note_on,94,0,4,,,,,,,,3,,,47,0
171454,note_on,94,0,10,,,,,,,,10,,,74,0
171454,note_on,94,0,5,,,,,,,,4,,,74,0
171454,note_on,22,0,7,,,,,,,,6,,,79,0
171454,note_on,94,0,12,,,,,,,,12,,,47,0
171454,note_on,94,0,11,,,,,,,,11,,,71,0
171454,note_on,94,0,2,,,,,,,,1,,,35,0
171454,note_on,46,0,6,,,,,,,,5,,,57,0
171454,note_on,22,0,1,,,,,,,,0,,,79,0
171454,note_on,94,0,3,,,,,,,,2,,,74,0
171456,note_on,2,0,2,,,,,,,,1,,,35,110
171456,note_on,2,0,1,,,,,,,,0,,,81,110
171456,note_on,2,0,7,,,,,,,,6,,,81,110
171456,note_on,2,0,12,,,,,,,,12,,,47,92
171456,note_on,2,0,3,,,,,,,,2,,,62,110
171456,note_on,2,0,11,,,,,,,,11,,,71,92
171456,note_on,2,0,10,,,,,,,,10,,,62,92
171456,note_on,2,0,4,,,,,,,,3,,,47,110
171456,note_on,2,0,6,,,,,,,,5,,,59,110
171456,note_on,2,0,8,,,,,,,,7,,,55,110
171456,note_on,2,0,5,,,,,,,,4,,,62,110
171478,note_on,22,0,7,,,,,,,,6,,,81,0
171478,note_on,22,0,1,,,,,,,,0,,,81,0
171480,note_on,2,0,7,,,,,,,,6,,,79,110
171480,note_on,2,0,1,,,,,,,,0,,,79,110
171502,note_on,46,0,6,,,,,,,,5,,,59,0
171502,note_on,46,0,8,,,,,,,,7,,,55,0
171502,note_on,22,0,7,,,,,,,,6,,,79,0
171502,note_on,22,0,1,,,,,,,,0,,,79,0
171504,note_on,2,0,7,,,,,,,,6,,,81,110
171504,note_on,2,0,6,,,,,,,,5,,,60,110
171504,note_on,2,0,1,,,,,,,,0,,,81,110
171504,note_on,2,0,8,,,,,,,,7,,,57,110
171526,note_on,22,0,1,,,,,,,,0,,,81,0
171526,note_on,22,0,7,,,,,,,,6,,,81,0
171528,note_on,2,0,1,,,,,,,,0,,,79,110
171528,note_on,2,0,7,,,,,,,,6,,,79,110
171550,note_on,46,0,6,,,,,,,,5,,,60,0
171550,note_on,94,0,2,,,,,,,,1,,,35,0
171550,note_on,22,0,7,,,,,,,,6,,,79,0
171550,note_on,46,0,8,,,,,,,,7,,,57,0
171550,note_on,94,0,10,,,,,,,,10,,,62,0
171550,note_on,94,0,4,,,,,,,,3,,,47,0
171550,note_on,94,0,3,,,,,,,,2,,,62,0
171550,note_on,94,0,5,,,,,,,,4,,,62,0
171550,note_on,94,0,12,,,,,,,,12,,,47,0
171550,note_on,94,0,11,,,,,,,,11,,,71,0
171550,note_on,22,0,1,,,,,,,,0,,,79,0
171552,note_on,2,0,12,,,,,,,,12,,,47,92
171552,note_on,2,0,5,,,,,,,,4,,,74,110
171552,note_on,2,0,8,,,,,,,,7,,,55,110
171552,note_on,2,0,11,,,,,,,,11,,,71,92
171552,note_on,2,0,10,,,,,,,,10,,,74,92
171552,note_on,2,0,6,,,,,,,,5,,,59,110
171552,note_on,2,0,4,,,,,,,,3,,,47,110
171552,note_on,2,0,3,,,,,,,,2,,,74,110
171552,note_on,2,0,2,,,,,,,,1,,,35,110
171552,note_on,2,0,1,,,,,,,,0,,,81,110
171552,note_on,2,0,7,,,,,,,,6,,,81,110
171574,note_on,22,0,7,,,,,,,,6,,,81,0
171574,note_on,22,0,1,,,,,,,,0,,,81,0
171576,note_on,2,0,7,,,,,,,,6,,,79,110
171576,note_on,2,0,1,,,,,,,,0,,,79,110
171598,note_on,46,0,8,,,,,,,,7,,,55,0
171598,note_on,22,0,1,,,,,,,,0,,,79,0
171598,note_on,46,0,6,,,,,,,,5,,,59,0
171598,note_on,22,0,7,,,,,,,,6,,,79,0
171600,note_on,2,0,7,,,,,,,,6,,,81,110
171600,note_on,2,0,8,,,,,,,,7,,,53,110
171600,note_on,2,0,1,,,,,,,,0,,,81,110
171600,note_on,2,0,6,,,,,,,,5,,,57,110
171616,note_on,256,0,9,,,,,,,,8,,,79,0
171622,note_on,22,0,1,,,,,,,,0,,,81,0
171622,note_on,22,0,7,,,,,,,,6,,,81,0
171624,note_on,2,0,7,,,,,,,,6,,,79,110
171624,note_on,2,0,1,,,,,,,,0,,,79,110
171646,note_on,22,0,7,,,,,,,,6,,,79,0
171646,note_on,94,0,11,,,,,,,,11,,,71,0
171646,note_on,46,0,6,,,,,,,,5,,,57,0
171646,note_on,46,0,8,,,,,,,,7,,,53,0
171646,note_on,94,0,10,,,,,,,,10,,,74,0
171646,note_on,94,0,4,,,,,,,,3,,,47,0
171646,note_on,94,0,2,,,,,,,,1,,,35,0
171646,note_on,94,0,12,,,,,,,,12,,,47,0
171646,note_on,94,0,3,,,,,,,,2,,,74,0
171646,note_on,94,0,5,,,,,,,,4,,,74,0
171646,note_on,22,0,1,,,,,,,,0,,,79,0
171648,note_on,2,0,4,,,,,,,,3,,,52,110
171648,note_on,32,0,9,,,,,,,,8,,,80,92
171648,note_on,2,0,2,,,,,,,,1,,,40,110
171648,note_on,2,0,12,,,,,,,,12,,,52,92
171648,note_on,2,0,10,,,,,,,,10,,,74,92
171648,note_on,2,0,5,,,,,,,,4,,,74,110
171648,note_on,2,0,7,,,,,,,,6,,,81,110
171648,note_on,2,0,8,,,,,,,,7,,,52,110
171648,note_on,2,0,3,,,,,,,,2,,,74,110
171648,note_on,2,0,11,,,,,,,,11,,,71,92
171648,note_on,2,0,6,,,,,,,,5,,,59,110
171648,note_on,2,0,1,,,,,,,,0,,,81,110
171670,note_on,22,0,7,,,,,,,,6,,,81,0
171670,note_on,22,0,1,,,,,,,,0,,,81,0
171672,note_on,2,0,7,,,,,,,,6,,,80,110
171672,note_on,2,0,1,,,,,,,,0,,,80,110
171694,note_on,22,0,7,,,,,,,,6,,,80,0
171694,note_on,46,0,8,,,,,,,,7,,,52,0
171694,note_on,22,0,1,,,,,,,,0,,,80,0
171694,note_on,46,0,6,,,,,,,,5,,,59,0
171696,note_on,2,0,6,,,,,,,,5,,,57,110
171696,note_on,2,0,1,,,,,,,,0,,,81,110
171696,note_on,2,0,7,,,,,,,,6,,,81,110
171696,note_on,2,0,8,,,,,,,,7,,,53,110
171705,set_tempo,68025,1,0,,,,,,526316,,,,,,
171718,note_on,22,0,1,,,,,,,,0,,,81,0
171718,note_on,22,0,7,,,,,,,,6,,,81,0
171720,note_on,2,0,7,,,,,,,,6,,,80,110
171720,note_on,2,0,1,,,,,,,,0,,,80,110
171742,note_on,94,0,4,,,,,,,,3,,,52,0
171742,note_on,94,0,2,,,,,,,,1,,,40,0
171742,note_on,94,0,11,,,,,,,,11,,,71,0
171742,note_on,22,0,1,,,,,,,,0,,,80,0
171742,note_on,94,0,5,,,,,,,,4,,,74,0
171742,note_on,22,0,7,,,,,,,,6,,,80,0
171742,note_on,94,0,3,,,,,,,,2,,,74,0
171742,note_on,46,0,8,,,,,,,,7,,,53,0
171742,note_on,46,0,6,,,,,,,,5,,,57,0
171742,note_on,94,0,10,,,,,,,,10,,,74,0
171742,note_on,94,0,12,,,,,,,,12,,,52,0
171744,note_on,2,0,11,,,,,,,,11,,,71,92
171744,note_on,2,0,12,,,,,,,,12,,,52,92
171744,note_on,2,0,4,,,,,,,,3,,,52,110
171744,note_on,2,0,10,,,,,,,,10,,,62,92
171744,note_on,2,0,7,,,,,,,,6,,,81,110
171744,note_on,2,0,5,,,,,,,,4,,,62,110
171744,note_on,2,0,8,,,,,,,,7,,,52,110
171744,note_on,2,0,3,,,,,,,,2,,,62,110
171744,note_on,2,0,6,,,,,,,,5,,,56,110
171744,note_on,2,0,2,,,,,,,,1,,,40,110
171744,note_on,2,0,1,,,,,,,,0,,,81,110
171763,set_tempo,58,1,0,,,,,,530973,,,,,,
171766,note_on,22,0,1,,,,,,,,0,,,81,0
171766,note_on,22,0,7,,,,,,,,6,,,81,0
171768,note_on,2,0,1,,,,,,,,0,,,80,110
171768,note_on,2,0,7,,,,,,,,6,,,80,110
171790,note_on,22,0,1,,,,,,,,0,,,80,0
171790,note_on,46,0,8,,,,,,,,7,,,52,0
171790,note_on,22,0,7,,,,,,,,6,,,80,0
171790,note_on,46,0,6,,,,,,,,5,,,56,0
171792,note_on,2,0,7,,,,,,,,6,,,81,110
171792,note_on,2,0,8,,,,,,,,7,,,50,110
171792,note_on,2,0,1,,,,,,,,0,,,81,110
171792,note_on,2,0,6,,,,,,,,5,,,59,110
171814,note_on,22,0,7,,,,,,,,6,,,81,0
171814,note_on,22,0,1,,,,,,,,0,,,81,0
171816,note_on,2,0,1,,,,,,,,0,,,80,110
171816,note_on,2,0,7,,,,,,,,6,,,80,110
171820,set_tempo,57,1,0,,,,,,535714,,,,,,
171838,note_on,94,0,2,,,,,,,,1,,,40,0
171838,note_on,94,0,4,,,,,,,,3,,,52,0
171838,note_on,94,0,11,,,,,,,,11,,,71,0
171838,note_on,94,0,12,,,,,,,,12,,,52,0
171838,note_on,94,0,10,,,,,,,,10,,,62,0
171838,note_on,46,0,8,,,,,,,,7,,,50,0
171838,note_on,94,0,3,,,,,,,,2,,,62,0
171838,note_on,46,0,6,,,,,,,,5,,,59,0
171838,note_on,22,0,7,,,,,,,,6,,,80,0
171838,note_on,94,0,5,,,,,,,,4,,,62,0
171838,note_on,22,0,1,,,,,,,,0,,,80,0
171840,note_on,2,0,10,,,,,,,,10,,,74,92
171840,note_on,2,0,6,,,,,,,,5,,,57,110
171840,note_on,2,0,3,,,,,,,,2,,,74,110
171840,note_on,2,0,12,,,,,,,,12,,,52,92
171840,note_on,2,0,8,,,,,,,,7,,,48,110
171840,note_on,2,0,11,,,,,,,,11,,,71,92
171840,note_on,2,0,7,,,,,,,,6,,,81,110
171840,note_on,2,0,1,,,,,,,,0,,,81,110
171840,note_on,2,0,5,,,,,,,,4,,,74,110
171840,note_on,2,0,4,,,,,,,,3,,,52,110
171840,note_on,2,0,2,,,,,,,,1,,,40,110
171862,note_on,22,0,1,,,,,,,,0,,,81,0
171862,note_on,22,0,7,,,,,,,,6,,,81,0
171864,note_on,2,0,1,,,,,,,,0,,,80,110
171864,note_on,2,0,7,,,,,,,,6,,,80,110
171878,set_tempo,58,1,0,,,,,,540541,,,,,,
171886,note_on,46,0,8,,,,,,,,7,,,48,0
171886,note_on,46,0,6,,,,,,,,5,,,57,0
171886,note_on,22,0,1,,,,,,,,0,,,80,0
171886,note_on,22,0,7,,,,,,,,6,,,80,0
171888,note_on,2,0,7,,,,,,,,6,,,81,110
171888,note_on,2,0,1,,,,,,,,0,,,81,110
171888,note_on,2,0,6,,,,,,,,5,,,56,110
171888,note_on,2,0,8,,,,,,,,7,,,47,110
171904,note_on,256,0,9,,,,,,,,8,,,80,0
171910,note_on,22,0,7,,,,,,,,6,,,81,0
171910,note_on,22,0,1,,,,,,,,0,,,81,0
171912,note_on,2,0,1,,,,,,,,0,,,80,110
171912,note_on,2,0,7,,,,,,,,6,,,80,110
171934,note_on,94,0,2,,,,,,,,1,,,40,0
171934,note_on,94,0,3,,,,,,,,2,,,74,0
171934,note_on,22,0,7,,,,,,,,6,,,80,0
171934,note_on,46,0,6,,,,,,,,5,,,56,0
171934,note_on,94,0,10,,,,,,,,10,,,74,0
171934,note_on,94,0,11,,,,,,,,11,,,71,0
171934,note_on,94,0,5,,,,,,,,4,,,74,0
171934,note_on,22,0,1,,,,,,,,0,,,80,0
171934,note_on,94,0,4,,,,,,,,3,,,52,0
171934,note_on,94,0,12,,,,,,,,12,,,52,0
171934,note_on,46,0,8,,,,,,,,7,,,47,0
171935,set_tempo,57,1,0,,,,,,545455,,,,,,
171936,note_on,2,0,3,,,,,,,,2,,,72,110
171936,note_on,2,0,7,,,,,,,,6,,,76,110
171936,note_on,2,0,5,,,,,,,,4,,,72,110
171936,note_on,2,0,2,,,,,,,,1,,,45,110
171936,note_on,2,0,11,,,,,,,,11,,,69,92
171936,note_on,2,0,10,,,,,,,,10,,,72,92
171936,note_on,2,0,6,,,,,,,,5,,,64,110
171936,note_on,2,0,1,,,,,,,,0,,,81,110
171936,note_on,2,0,4,,,,,,,,3,,,45,110
171936,note_on,2,0,12,,,,,,,,12,,,45,92
171936,note_on,2,0,8,,,,,,,,7,,,45,110
171936,note_on,32,0,9,,,,,,,,8,,,81,92
171982,note_on,46,0,1,,,,,,,,0,,,81,0
171982,note_on,46,0,3,,,,,,,,2,,,72,0
171982,note_on,46,0,7,,,,,,,,6,,,76,0
171982,note_on,46,0,5,,,,,,,,4,,,72,0
171984,note_on,2,0,5,,,,,,,,4,,,76,110
171984,note_on,2,0,7,,,,,,,,6,,,81,110
171984,note_on,2,0,3,,,,,,,,2,,,69,110
171984,note_on,2,0,1,,,,,,,,0,,,76,110
171993,set_tempo,58,1,0,,,,,,550459,,,,,,
172030,note_on,94,0,9,,,,,,,,8,,,81,0
172030,note_on,46,0,3,,,,,,,,2,,,69,0
172030,note_on,94,0,8,,,,,,,,7,,,45,0
172030,note_on,94,0,6,,,,,,,,5,,,64,0
172030,note_on,46,0,1,,,,,,,,0,,,76,0
172030,note_on,46,0,7,,,,,,,,6,,,81,0
172030,note_on,94,0,4,,,,,,,,3,,,45,0
172030,note_on,94,0,11,,,,,,,,11,,,69,0
172030,note_on,94,0,10,,,,,,,,10,,,72,0
172030,note_on,94,0,2,,,,,,,,1,,,45,0
172030,note_on,46,0,5,,,,,,,,4,,,76,0
172030,note_on,94,0,12,,,,,,,,12,,,45,0
172032,note_on,2,0,11,,,,,,,,11,,,64,92
172032,note_on,2,0,9,,,,,,,,8,,,81,92
172032,note_on,2,0,5,,,,,,,,4,,,81,110
172032,note_on,2,0,3,,,,,,,,2,,,64,110
172032,note_on,2,0,6,,,,,,,,5,,,45,110
172032,note_on,2,0,12,,,,,,,,12,,,45,92
172032,note_on,2,0,1,,,,,,,,0,,,72,110
172032,note_on,2,0,4,,,,,,,,3,,,45,110
172032,note_on,2,0,10,,,,,,,,10,,,72,92
172032,note_on,2,0,2,,,,,,,,1,,,45,110
172032,note_on,2,0,8,,,,,,,,7,,,45,110
172032,note_on,2,0,7,,,,,,,,6,,,84,110
172051,set_tempo,58,1,0,,,,,,555556,,,,,,
172078,note_on,46,0,7,,,,,,,,6,,,84,0
172078,note_on,46,0,3,,,,,,,,2,,,64,0
172078,note_on,46,0,5,,,,,,,,4,,,81,0
172078,note_on,46,0,1,,,,,,,,0,,,72,0
172080,note_on,2,0,7,,,,,,,,6,,,81,110
172080,note_on,2,0,1,,,,,,,,0,,,76,110
172080,note_on,2,0,3,,,,,,,,2,,,69,110
172080,note_on,2,0,5,,,,,,,,4,,,76,110
172108,set_tempo,57,1,0,,,,,,560748,,,,,,
172126,note_on,94,0,2,,,,,,,,1,,,45,0
172126,note_on,94,0,8,,,,,,,,7,,,45,0
172126,note_on,94,0,10,,,,,,,,10,,,72,0
172126,note_on,94,0,9,,,,,,,,8,,,81,0
172126,note_on,46,0,1,,,,,,,,0,,,76,0
172126,note_on,94,0,6,,,,,,,,5,,,45,0
172126,note_on,46,0,3,,,,,,,,2,,,69,0
172126,note_on,46,0,7,,,,,,,,6,,,81,0
172126,note_on,94,0,4,,,,,,,,3,,,45,0
172126,note_on,94,0,12,,,,,,,,12,,,45,0
172126,note_on,46,0,5,,,,,,,,4,,,76,0
172126,note_on,94,0,11,,,,,,,,11,,,64,0
172128,note_on,2,0,4,,,,,,,,3,,,45,110
172128,note_on,2,0,10,,,,,,,,10,,,72,92
172128,note_on,2,0,9,,,,,,,,8,,,81,92
172128,note_on,2,0,1,,,,,,,,0,,,81,110
172128,note_on,2,0,2,,,,,,,,1,,,45,110
172128,note_on,2,0,5,,,,,,,,4,,,72,110
172128,note_on,2,0,6,,,,,,,,5,,,45,110
172128,note_on,2,0,12,,,,,,,,12,,,45,92
172128,note_on,2,0,8,,,,,,,,7,,,45,110
172128,note_on,2,0,3,,,,,,,,2,,,72,110
172128,note_on,2,0,11,,,,,,,,11,,,64,92
172128,note_on,2,0,7,,,,,,,,6,,,76,110
172166,set_tempo,58,1,0,,,,,,566038,,,,,,
172174,note_on,46,0,5,,,,,,,,4,,,72,0
172174,note_on,46,0,3,,,,,,,,2,,,72,0
172174,note_on,46,0,1,,,,,,,,0,,,81,0
172174,note_on,46,0,7,,,,,,,,6,,,76,0
172176,note_on,2,0,3,,,,,,,,2,,,69,110
172176,note_on,2,0,1,,,,,,,,0,,,76,110
172176,note_on,2,0,5,,,,,,,,4,,,76,110
172176,note_on,2,0,7,,,,,,,,6,,,81,110
172222,note_on,94,0,12,,,,,,,,12,,,45,0
172222,note_on,46,0,1,,,,,,,,0,,,76,0
172222,note_on,46,0,5,,,,,,,,4,,,76,0
172222,note_on,46,0,7,,,,,,,,6,,,81,0
172222,note_on,94,0,10,,,,,,,,10,,,72,0
172222,note_on,94,0,9,,,,,,,,8,,,81,0
172222,note_on,94,0,2,,,,,,,,1,,,45,0
172222,note_on,94,0,11,,,,,,,,11,,,64,0
172222,note_on,94,0,4,,,,,,,,3,,,45,0
172222,note_on,94,0,6,,,,,,,,5,,,45,0
172222,note_on,46,0,3,,,,,,,,2,,,69,0
172222,note_on,94,0,8,,,,,,,,7,,,45,0
172223,set_tempo,57,1,0,,,,,,571429,,,,,,
172224,note_on,2,0,10,,,,,,,,10,,,71,92
172224,note_on,2,0,6,,,,,,,,5,,,50,110
172224,note_on,2,0,1,,,,,,,,0,,,81,110
172224,note_on,2,0,5,,,,,,,,4,,,71,110
172224,note_on,2,0,2,,,,,,,,1,,,50,110
172224,note_on,2,0,9,,,,,,,,8,,,81,92
172224,note_on,2,0,7,,,,,,,,6,,,77,110
172224,note_on,2,0,12,,,,,,,,12,,,50,92
172224,note_on,2,0,3,,,,,,,,2,,,71,110
172224,note_on,2,0,11,,,,,,,,11,,,65,92
172224,note_on,2,0,4,,,,,,,,3,,,50,110
172224,note_on,2,0,8,,,,,,,,7,,,50,110
172270,note_on,46,0,1,,,,,,,,0,,,81,0
172270,note_on,46,0,3,,,,,,,,2,,,71,0
172270,note_on,46,0,7,,,,,,,,6,,,77,0
172270,note_on,46,0,5,,,,,,,,4,,,71,0
172272,note_on,2,0,1,,,,,,,,0,,,77,110
172272,note_on,2,0,3,,,,,,,,2,,,69,110
172272,note_on,2,0,7,,,,,,,,6,,,81,110
172272,note_on,2,0,5,,,,,,,,4,,,77,110
172281,set_tempo,58,1,0,,,,,,576923,,,,,,
172318,note_on,94,0,10,,,,,,,,10,,,71,0
172318,note_on,46,0,1,,,,,,,,0,,,77,0
172318,note_on,94,0,11,,,,,,,,11,,,65,0
172318,note_on,94,0,4,,,,,,,,3,,,50,0
172318,note_on,46,0,3,,,,,,,,2,,,69,0
172318,note_on,94,0,8,,,,,,,,7,,,50,0
172318,note_on,94,0,12,,,,,,,,12,,,50,0
172318,note_on,94,0,2,,,,,,,,1,,,50,0
172318,note_on,94,0,9,,,,,,,,8,,,81,0
172318,note_on,94,0,6,,,,,,,,5,,,50,0
172318,note_on,46,0,5,,,,,,,,4,,,77,0
172318,note_on,46,0,7,,,,,,,,6,,,81,0
172320,note_on,2,0,2,,,,,,,,1,,,50,110
172320,note_on,2,0,5,,,,,,,,4,,,81,110
172320,note_on,2,0,11,,,,,,,,11,,,65,92
172320,note_on,2,0,12,,,,,,,,12,,,50,92
172320,note_on,2,0,9,,,,,,,,8,,,81,92
172320,note_on,2,0,1,,,,,,,,0,,,71,110
172320,note_on,2,0,6,,,,,,,,5,,,50,110
172320,note_on,2,0,3,,,,,,,,2,,,65,110
172320,note_on,2,0,8,,,,,,,,7,,,50,110
172320,note_on,2,0,10,,,,,,,,10,,,71,92
172320,note_on,2,0,7,,,,,,,,6,,,83,110
172320,note_on,2,0,4,,,,,,,,3,,,50,110
172339,set_tempo,58,1,0,,,,,,582524,,,,,,
172366,note_on,46,0,3,,,,,,,,2,,,65,0
172366,note_on,46,0,7,,,,,,,,6,,,83,0
172366,note_on,46,0,1,,,,,,,,0,,,71,0
172366,note_on,46,0,5,,,,,,,,4,,,81,0
172368,note_on,2,0,7,,,,,,,,6,,,81,110
172368,note_on,2,0,1,,,,,,,,0,,,77,110
172368,note_on,2,0,5,,,,,,,,4,,,77,110
172368,note_on,2,0,3,,,,,,,,2,,,69,110
172396,set_tempo,57,1,0,,,,,,588235,,,,,,
172414,note_on,46,0,3,,,,,,,,2,,,69,0
172414,note_on,94,0,9,,,,,,,,8,,,81,0
172414,note_on,46,0,5,,,,,,,,4,,,77,0
172414,note_on,94,0,6,,,,,,,,5,,,50,0
172414,note_on,94,0,12,,,,,,,,12,,,50,0
172414,note_on,94,0,8,,,,,,,,7,,,50,0
172414,note_on,46,0,7,,,,,,,,6,,,81,0
172414,note_on,46,0,1,,,,,,,,0,,,77,0
172414,note_on,94,0,10,,,,,,,,10,,,71,0
172414,note_on,94,0,4,,,,,,,,3,,,50,0
172414,note_on,94,0,11,,,,,,,,11,,,65,0
172414,note_on,94,0,2,,,,,,,,1,,,50,0
172416,note_on,2,0,2,,,,,,,,1,,,50,110
172416,note_on,2,0,3,,,,,,,,2,,,71,110
172416,note_on,2,0,10,,,,,,,,10,,,71,92
172416,note_on,2,0,6,,,,,,,,5,,,50,110
172416,note_on,2,0,12,,,,,,,,12,,,50,92
172416,note_on,2,0,5,,,,,,,,4,,,71,110
172416,note_on,2,0,1,,,,,,,,0,,,81,110
172416,note_on,2,0,8,,,,,,,,7,,,50,110
172416,note_on,2,0,11,,,,,,,,11,,,65,92
172416,note_on,2,0,9,,,,,,,,8,,,81,92
172416,note_on,2,0,4,,,,,,,,3,,,50,110
172416,note_on,2,0,7,,,,,,,,6,,,77,110
172454,set_tempo,58,1,0,,,,,,594059,,,,,,
172462,note_on,46,0,1,,,,,,,,0,,,81,0
172462,note_on,46,0,5,,,,,,,,4,,,71,0
172462,note_on,46,0,7,,,,,,,,6,,,77,0
172462,note_on,46,0,3,,,,,,,,2,,,71,0
172464,note_on,2,0,1,,,,,,,,0,,,77,110
172464,note_on,2,0,7,,,,,,,,6,,,81,110
172464,note_on,2,0,3,,,,,,,,2,,,69,110
172464,note_on,2,0,5,,,,,,,,4,,,77,110
172510,note_on,94,0,12,,,,,,,,12,,,50,0
172510,note_on,94,0,2,,,,,,,,1,,,50,0
172510,note_on,46,0,5,,,,,,,,4,,,77,0
172510,note_on,94,0,9,,,,,,,,8,,,81,0
172510,note_on,94,0,6,,,,,,,,5,,,50,0
172510,note_on,94,0,11,,,,,,,,11,,,65,0
172510,note_on,46,0,1,,,,,,,,0,,,77,0
172510,note_on,94,0,8,,,,,,,,7,,,50,0
172510,note_on,94,0,10,,,,,,,,10,,,71,0
172510,note_on,46,0,7,,,,,,,,6,,,81,0
172510,note_on,94,0,4,,,,,,,,3,,,50,0
172510,note_on,46,0,3,,,,,,,,2,,,69,0
172511,set_tempo,57,1,0,,,,,,600000,,,,,,
172512,note_on,2,0,3,,,,,,,,2,,,71,110
172512,note_on,2,0,11,,,,,,,,11,,,64,92
172512,note_on,2,0,4,,,,,,,,3,,,52,110
172512,note_on,2,0,5,,,,,,,,4,,,71,110
172512,note_on,2,0,6,,,,,,,,5,,,52,110
172512,note_on,2,0,7,,,,,,,,6,,,76,110
172512,note_on,2,0,10,,,,,,,,10,,,71,92
172512,note_on,2,0,8,,,,,,,,7,,,52,110
172512,note_on,2,0,1,,,,,,,,0,,,80,110
172512,note_on,2,0,12,,,,,,,,12,,,52,92
172512,note_on,2,0,9,,,,,,,,8,,,80,92
172512,note_on,2,0,2,,,,,,,,1,,,52,110
172558,note_on,46,0,3,,,,,,,,2,,,71,0
172558,note_on,46,0,7,,,,,,,,6,,,76,0
172558,note_on,46,0,1,,,,,,,,0,,,80,0
172558,note_on,46,0,5,,,,,,,,4,,,71,0
172560,note_on,2,0,1,,,,,,,,0,,,76,110
172560,note_on,2,0,7,,,,,,,,6,,,80,110
172560,note_on,2,0,3,,,,,,,,2,,,68,110
172560,note_on,2,0,5,,,,,,,,4,,,76,110
172569,set_tempo,58,1,0,,,,,,606061,,,,,,
172606,note_on,46,0,5,,,,,,,,4,,,76,0
172606,note_on,94,0,4,,,,,,,,3,,,52,0
172606,note_on,46,0,3,,,,,,,,2,,,68,0
172606,note_on,94,0,10,,,,,,,,10,,,71,0
172606,note_on,94,0,12,,,,,,,,12,,,52,0
172606,note_on,94,0,6,,,,,,,,5,,,52,0
172606,note_on,94,0,2,,,,,,,,1,,,52,0
172606,note_on,46,0,1,,,,,,,,0,,,76,0
172606,note_on,94,0,11,,,,,,,,11,,,64,0
172606,note_on,94,0,9,,,,,,,,8,,,80,0
172606,note_on,46,0,7,,,,,,,,6,,,80,0
172606,note_on,94,0,8,,,,,,,,7,,,52,0
172608,note_on,2,0,1,,,,,,,,0,,,71,110
172608,note_on,2,0,5,,,,,,,,4,,,80,110
172608,note_on,2,0,12,,,,,,,,12,,,52,92
172608,note_on,2,0,3,,,,,,,,2,,,64,110
172608,note_on,2,0,10,,,,,,,,10,,,71,92
172608,note_on,2,0,7,,,,,,,,6,,,83,110
172608,note_on,2,0,8,,,,,,,,7,,,52,110
172608,note_on,2,0,9,,,,,,,,8,,,80,92
172608,note_on,2,0,6,,,,,,,,5,,,52,110
172608,note_on,2,0,4,,,,,,,,3,,,52,110
172608,note_on,2,0,11,,,,,,,,11,,,64,92
172608,note_on,2,0,2,,,,,,,,1,,,52,110
172627,set_tempo,58,1,0,,,,,,612245,,,,,,
172654,note_on,46,0,3,,,,,,,,2,,,64,0
172654,note_on,46,0,5,,,,,,,,4,,,80,0
172654,note_on,46,0,7,,,,,,,,6,,,83,0
172654,note_on,46,0,1,,,,,,,,0,,,71,0
172656,note_on,2,0,1,,,,,,,,0,,,76,110
172656,note_on,2,0,5,,,,,,,,4,,,76,110
172656,note_on,2,0,7,,,,,,,,6,,,80,110
172656,note_on,2,0,3,,,,,,,,2,,,68,110
172684,set_tempo,57,1,0,,,,,,618557,,,,,,
172702,note_on,46,0,1,,,,,,,,0,,,76,0
172702,note_on,94,0,10,,,,,,,,10,,,71,0
172702,note_on,94,0,6,,,,,,,,5,,,52,0
172702,note_on,46,0,3,,,,,,,,2,,,68,0
172702,note_on,94,0,4,,,,,,,,3,,,52,0
172702,note_on,94,0,8,,,,,,,,7,,,52,0
172702,note_on,94,0,2,,,,,,,,1,,,52,0
172702,note_on,94,0,9,,,,,,,,8,,,80,0
172702,note_on,46,0,7,,,,,,,,6,,,80,0
172702,note_on,94,0,12,,,,,,,,12,,,52,0
172702,note_on,94,0,11,,,,,,,,11,,,64,0
172702,note_on,46,0,5,,,,,,,,4,,,76,0
172704,note_on,2,0,11,,,,,,,,11,,,64,92
172704,note_on,2,0,10,,,,,,,,10,,,71,92
172704,note_on,2,0,3,,,,,,,,2,,,71,110
172704,note_on,2,0,8,,,,,,,,7,,,52,110
172704,note_on,2,0,2,,,,,,,,1,,,52,110
172704,note_on,2,0,4,,,,,,,,3,,,52,110
172704,note_on,2,0,12,,,,,,,,12,,,52,92
172704,note_on,2,0,7,,,,,,,,6,,,76,110
172704,note_on,2,0,1,,,,,,,,0,,,80,110
172704,note_on,2,0,6,,,,,,,,5,,,52,110
172704,note_on,2,0,5,,,,,,,,4,,,71,110
172704,note_on,2,0,9,,,,,,,,8,,,80,92
172742,set_tempo,58,1,0,,,,,,625000,,,,,,
172750,note_on,46,0,7,,,,,,,,6,,,76,0
172750,note_on,46,0,1,,,,,,,,0,,,80,0
172750,note_on,46,0,3,,,,,,,,2,,,71,0
172750,note_on,46,0,5,,,,,,,,4,,,71,0
172752,note_on,2,0,1,,,,,,,,0,,,76,110
172752,note_on,2,0,5,,,,,,,,4,,,76,110
172752,note_on,2,0,7,,,,,,,,6,,,80,110
172752,note_on,2,0,3,,,,,,,,2,,,68,110
172798,note_on,94,0,10,,,,,,,,10,,,71,0
172798,note_on,94,0,9,,,,,,,,8,,,80,0
172798,note_on,94,0,6,,,,,,,,5,,,52,0
172798,note_on,94,0,2,,,,,,,,1,,,52,0
172798,note_on,94,0,12,,,,,,,,12,,,52,0
172798,note_on,46,0,1,,,,,,,,0,,,76,0
172798,note_on,46,0,5,,,,,,,,4,,,76,0
172798,note_on,94,0,8,,,,,,,,7,,,52,0
172798,note_on,46,0,7,,,,,,,,6,,,80,0
172798,note_on,94,0,11,,,,,,,,11,,,64,0
172798,note_on,94,0,4,,,,,,,,3,,,52,0
172798,note_on,46,0,3,,,,,,,,2,,,68,0
172800,note_on,2,0,11,,,,,,,,11,,,64,92
172800,note_on,2,0,2,,,,,,,,1,,,45,110
172800,note_on,2,0,5,,,,,,,,4,,,72,110
172800,note_on,2,0,9,,,,,,,,8,,,81,92
172800,note_on,2,0,8,,,,,,,,7,,,45,110
172800,note_on,2,0,1,,,,,,,,0,,,81,110
172800,note_on,2,0,6,,,,,,,,5,,,45,110
172800,note_on,2,0,10,,,,,,,,10,,,72,92
172800,set_tempo,58,1,0,,,,,,631579,,,,,,
172800,note_on,2,0,12,,,,,,,,12,,,45,92
172800,note_on,2,0,3,,,,,,,,2,,,72,110
172800,note_on,2,0,7,,,,,,,,6,,,81,110
172800,note_on,2,0,4,,,,,,,,3,,,45,110
172846,note_on,46,0,10,,,,,,,,10,,,72,0
172846,note_on,46,0,9,,,,,,,,8,,,81,0
172846,note_on,46,0,11,,,,,,,,11,,,64,0
172848,note_on,2,0,10,,,,,,,,10,,,72,92
172848,note_on,2,0,9,,,,,,,,8,,,76,92
172848,note_on,2,0,11,,,,,,,,11,,,69,92
172894,note_on,46,0,11,,,,,,,,11,,,69,0
172894,note_on,46,0,9,,,,,,,,8,,,76,0
172894,note_on,46,0,10,,,,,,,,10,,,72,0
172896,note_on,2,0,9,,,,,,,,8,,,76,92
172896,note_on,2,0,10,,,,,,,,10,,,72,92
172896,note_on,2,0,11,,,,,,,,11,,,69,92
172942,note_on,46,0,9,,,,,,,,8,,,76,0
172942,note_on,46,0,10,,,,,,,,10,,,72,0
172942,note_on,46,0,11,,,,,,,,11,,,69,0
172944,note_on,2,0,10,,,,,,,,10,,,69,92
172944,note_on,2,0,9,,,,,,,,8,,,72,92
172944,note_on,2,0,11,,,,,,,,11,,,64,92
172960,note_on,160,0,1,,,,,,,,0,,,81,0
172960,note_on,160,0,8,,,,,,,,7,,,45,0
172960,note_on,160,0,4,,,,,,,,3,,,45,0
172960,note_on,160,0,7,,,,,,,,6,,,81,0
172960,note_on,160,0,12,,,,,,,,12,,,45,0
172960,note_on,160,0,3,,,,,,,,2,,,72,0
172960,note_on,160,0,6,,,,,,,,5,,,45,0
172960,note_on,160,0,2,,,,,,,,1,,,45,0
172960,note_on,160,0,5,,,,,,,,4,,,72,0
172990,note_on,46,0,11,,,,,,,,11,,,64,0
172990,note_on,46,0,9,,,,,,,,8,,,72,0
172990,note_on,46,0,10,,,,,,,,10,,,69,0
172992,note_on,2,0,11,,,,,,,,11,,,64,92
172992,note_on,2,0,9,,,,,,,,8,,,72,92
172992,note_on,2,0,10,,,,,,,,10,,,69,92
173038,note_on,46,0,11,,,,,,,,11,,,64,0
173038,note_on,46,0,9,,,,,,,,8,,,72,0
173038,note_on,46,0,10,,,,,,,,10,,,69,0
173040,note_on,2,0,9,,,,,,,,8,,,69,92
173040,note_on,2,0,10,,,,,,,,10,,,64,92
173040,note_on,2,0,11,,,,,,,,11,,,60,92
173086,note_on,46,0,10,,,,,,,,10,,,64,0
173086,note_on,46,0,11,,,,,,,,11,,,60,0
173086,note_on,46,0,9,,,,,,,,8,,,69,0
173088,note_on,2,0,10,,,,,,,,10,,,64,92
173088,note_on,128,0,6,,,,,,,,5,,,45,110
173088,note_on,128,0,7,,,,,,,,6,,,69,110
173088,note_on,128,0,1,,,,,,,,0,,,72,110
173088,note_on,128,0,4,,,,,,,,3,,,57,110
173088,note_on,128,0,3,,,,,,,,2,,,69,110
173088,note_on,128,0,8,,,,,,,,7,,,57,110
173088,note_on,128,0,12,,,,,,,,12,,,45,92
173088,note_on,128,0,2,,,,,,,,1,,,45,110
173088,note_on,2,0,11,,,,,,,,11,,,60,92
173088,note_on,128,0,5,,,,,,,,4,,,72,110
173088,note_on,2,0,9,,,,,,,,8,,,69,92
173134,note_on,46,0,7,,,,,,,,6,,,69,0
173134,note_on,46,0,4,,,,,,,,3,,,57,0
173134,note_on,46,0,6,,,,,,,,5,,,45,0
173134,note_on,46,0,1,,,,,,,,0,,,72,0
173134,note_on,46,0,2,,,,,,,,1,,,45,0
173134,note_on,46,0,5,,,,,,,,4,,,72,0
173134,note_on,46,0,8,,,,,,,,7,,,57,0
173134,note_on,46,0,3,,,,,,,,2,,,69,0
173136,note_on,2,0,7,,,,,,,,6,,,64,110
173136,note_on,2,0,4,,,,,,,,3,,,45,110
173136,note_on,2,0,5,,,,,,,,4,,,76,110
173136,note_on,2,0,2,,,,,,,,1,,,57,110
173136,note_on,2,0,3,,,,,,,,2,,,72,110
173136,note_on,2,0,1,,,,,,,,0,,,69,110
173136,note_on,2,0,6,,,,,,,,5,,,57,110
173136,note_on,2,0,8,,,,,,,,7,,,45,110
173182,note_on,94,0,12,,,,,,,,12,,,45,0
173182,note_on,94,0,9,,,,,,,,8,,,69,0
173182,note_on,46,0,5,,,,,,,,4,,,76,0
173182,note_on,46,0,6,,,,,,,,5,,,57,0
173182,note_on,46,0,4,,,,,,,,3,,,45,0
173182,note_on,46,0,2,,,,,,,,1,,,57,0
173182,note_on,94,0,10,,,,,,,,10,,,64,0
173182,note_on,46,0,3,,,,,,,,2,,,72,0
173182,note_on,94,0,11,,,,,,,,11,,,60,0
173182,note_on,46,0,1,,,,,,,,0,,,69,0
173182,note_on,46,0,8,,,,,,,,7,,,45,0
173182,note_on,46,0,7,,,,,,,,6,,,64,0
173184,note_on,2,0,8,,,,,,,,7,,,57,110
173184,note_on,2,0,3,,,,,,,,2,,,69,110
173184,note_on,2,0,6,,,,,,,,5,,,45,110
173184,note_on,2,0,9,,,,,,,,8,,,72,92
173184,note_on,2,0,11,,,,,,,,11,,,64,92
173184,note_on,2,0,12,,,,,,,,12,,,45,92
173184,note_on,2,0,1,,,,,,,,0,,,64,110
173184,note_on,2,0,5,,,,,,,,4,,,72,110
173184,note_on,2,0,4,,,,,,,,3,,,57,110
173184,note_on,2,0,7,,,,,,,,6,,,69,110
173184,note_on,2,0,10,,,,,,,,10,,,69,92
173184,note_on,2,0,2,,,,,,,,1,,,45,110
173230,note_on,46,0,8,,,,,,,,7,,,57,0
173230,note_on,46,0,5,,,,,,,,4,,,72,0
173230,note_on,46,0,6,,,,,,,,5,,,45,0
173230,note_on,46,0,3,,,,,,,,2,,,69,0
173230,note_on,46,0,2,,,,,,,,1,,,45,0
173230,note_on,46,0,7,,,,,,,,6,,,69,0
173230,note_on,46,0,4,,,,,,,,3,,,57,0
173230,note_on,46,0,1,,,,,,,,0,,,64,0
173232,note_on,2,0,6,,,,,,,,5,,,57,110
173232,note_on,2,0,2,,,,,,,,1,,,57,110
173232,note_on,2,0,3,,,,,,,,2,,,64,110
173232,note_on,2,0,4,,,,,,,,3,,,45,110
173232,note_on,2,0,5,,,,,,,,4,,,69,110
173232,note_on,2,0,7,,,,,,,,6,,,72,110
173232,note_on,2,0,8,,,,,,,,7,,,45,110
173232,note_on,2,0,1,,,,,,,,0,,,69,110
173278,note_on,94,0,10,,,,,,,,10,,,69,0
173278,note_on,94,0,11,,,,,,,,11,,,64,0
173278,note_on,46,0,2,,,,,,,,1,,,57,0
173278,note_on,94,0,9,,,,,,,,8,,,72,0
173278,note_on,46,0,6,,,,,,,,5,,,57,0
173278,note_on,46,0,8,,,,,,,,7,,,45,0
173278,note_on,46,0,5,,,,,,,,4,,,69,0
173278,note_on,46,0,7,,,,,,,,6,,,72,0
173278,note_on,46,0,1,,,,,,,,0,,,69,0
173278,note_on,94,0,12,,,,,,,,12,,,45,0
173278,note_on,46,0,4,,,,,,,,3,,,45,0
173278,note_on,46,0,3,,,,,,,,2,,,64,0
173280,note_on,2,0,2,,,,,,,,1,,,45,110
173280,note_on,2,0,1,,,,,,,,0,,,72,110
173280,note_on,2,0,10,,,,,,,,10,,,69,92
173280,note_on,2,0,12,,,,,,,,12,,,45,92
173280,note_on,2,0,4,,,,,,,,3,,,57,110
173280,note_on,2,0,3,,,,,,,,2,,,69,110
173280,note_on,2,0,11,,,,,,,,11,,,64,92
173280,note_on,2,0,9,,,,,,,,8,,,72,92
173280,note_on,2,0,6,,,,,,,,5,,,45,110
173280,note_on,2,0,5,,,,,,,,4,,,64,110
173280,note_on,2,0,7,,,,,,,,6,,,69,110
173280,note_on,2,0,8,,,,,,,,7,,,57,110
173326,note_on,46,0,3,,,,,,,,2,,,69,0
173326,note_on,46,0,2,,,,,,,,1,,,45,0
173326,note_on,46,0,5,,,,,,,,4,,,64,0
173326,note_on,46,0,4,,,,,,,,3,,,57,0
173326,note_on,46,0,1,,,,,,,,0,,,72,0
173326,note_on,46,0,8,,,,,,,,7,,,57,0
173326,note_on,46,0,7,,,,,,,,6,,,69,0
173326,note_on,46,0,6,,,,,,,,5,,,45,0
173328,note_on,2,0,4,,,,,,,,3,,,45,110
173328,note_on,2,0,7,,,,,,,,6,,,64,110
173328,note_on,2,0,6,,,,,,,,5,,,57,110
173328,note_on,2,0,5,,,,,,,,4,,,69,110
173328,note_on,2,0,2,,,,,,,,1,,,57,110
173328,note_on,2,0,8,,,,,,,,7,,,45,110
173328,note_on,2,0,1,,,,,,,,0,,,69,110
173328,note_on,2,0,3,,,,,,,,2,,,72,110
173374,note_on,46,0,6,,,,,,,,5,,,57,0
173374,note_on,94,0,11,,,,,,,,11,,,64,0
173374,note_on,94,0,9,,,,,,,,8,,,72,0
173374,note_on,46,0,2,,,,,,,,1,,,57,0
173374,note_on,46,0,7,,,,,,,,6,,,64,0
173374,note_on,46,0,1,,,,,,,,0,,,69,0
173374,note_on,94,0,12,,,,,,,,12,,,45,0
173374,note_on,46,0,3,,,,,,,,2,,,72,0
173374,note_on,46,0,5,,,,,,,,4,,,69,0
173374,note_on,94,0,10,,,,,,,,10,,,69,0
173374,note_on,46,0,4,,,,,,,,3,,,45,0
173374,note_on,46,0,8,,,,,,,,7,,,45,0
173376,note_on,2,0,5,,,,,,,,4,,,71,110
173376,note_on,2,0,9,,,,,,,,8,,,71,92
173376,note_on,2,0,11,,,,,,,,11,,,65,92
173376,note_on,2,0,1,,,,,,,,0,,,71,110
173376,note_on,2,0,10,,,,,,,,10,,,69,92
173376,note_on,2,0,12,,,,,,,,12,,,38,92
173376,set_tempo,576,1,0,,,,,,705882,,,,,,
173376,note_on,2,0,6,,,,,,,,5,,,38,110
173376,note_on,2,0,8,,,,,,,,7,,,50,110
173376,note_on,2,0,3,,,,,,,,2,,,69,110
173376,note_on,2,0,7,,,,,,,,6,,,69,110
173376,note_on,2,0,4,,,,,,,,3,,,50,110
173376,note_on,2,0,2,,,,,,,,1,,,38,110
173422,note_on,46,0,2,,,,,,,,1,,,38,0
173422,note_on,46,0,3,,,,,,,,2,,,69,0
173422,note_on,46,0,1,,,,,,,,0,,,71,0
173422,note_on,46,0,7,,,,,,,,6,,,69,0
173422,note_on,46,0,6,,,,,,,,5,,,38,0
173422,note_on,46,0,4,,,,,,,,3,,,50,0
173422,note_on,46,0,8,,,,,,,,7,,,50,0
173422,note_on,46,0,5,,,,,,,,4,,,71,0
173424,note_on,2,0,5,,,,,,,,4,,,74,110
173424,note_on,2,0,1,,,,,,,,0,,,69,110
173424,note_on,2,0,3,,,,,,,,2,,,71,110
173424,note_on,2,0,7,,,,,,,,6,,,65,110
173424,note_on,2,0,8,,,,,,,,7,,,38,110
173424,note_on,2,0,2,,,,,,,,1,,,50,110
173424,note_on,2,0,6,,,,,,,,5,,,50,110
173424,note_on,2,0,4,,,,,,,,3,,,38,110
173470,note_on,46,0,8,,,,,,,,7,,,38,0
173470,note_on,94,0,9,,,,,,,,8,,,71,0
173470,note_on,46,0,3,,,,,,,,2,,,71,0
173470,note_on,94,0,10,,,,,,,,10,,,69,0
173470,note_on,46,0,1,,,,,,,,0,,,69,0
173470,note_on,94,0,11,,,,,,,,11,,,65,0
173470,note_on,46,0,7,,,,,,,,6,,,65,0
173470,note_on,46,0,5,,,,,,,,4,,,74,0
173470,note_on,46,0,6,,,,,,,,5,,,50,0
173470,note_on,46,0,4,,,,,,,,3,,,38,0
173470,note_on,46,0,2,,,,,,,,1,,,50,0
173470,note_on,94,0,12,,,,,,,,12,,,38,0
173472,note_on,2,0,8,,,,,,,,7,,,50,110
173472,note_on,2,0,12,,,,,,,,12,,,38,92
173472,note_on,2,0,10,,,,,,,,10,,,69,92
173472,note_on,2,0,9,,,,,,,,8,,,71,92
173472,note_on,2,0,4,,,,,,,,3,,,50,110
173472,note_on,2,0,7,,,,,,,,6,,,69,110
173472,note_on,2,0,2,,,,,,,,1,,,38,110
173472,note_on,2,0,6,,,,,,,,5,,,38,110
173472,note_on,2,0,11,,,,,,,,11,,,65,92
173472,note_on,2,0,3,,,,,,,,2,,,69,110
173472,note_on,2,0,1,,,,,,,,0,,,65,110
173472,note_on,2,0,5,,,,,,,,4,,,71,110
173518,note_on,46,0,2,,,,,,,,1,,,38,0
173518,note_on,46,0,8,,,,,,,,7,,,50,0
173518,note_on,46,0,3,,,,,,,,2,,,69,0
173518,note_on,46,0,6,,,,,,,,5,,,38,0
173518,note_on,46,0,1,,,,,,,,0,,,65,0
173518,note_on,46,0,7,,,,,,,,6,,,69,0
173518,note_on,46,0,4,,,,,,,,3,,,50,0
173518,note_on,46,0,5,,,,,,,,4,,,71,0
173520,note_on,2,0,1,,,,,,,,0,,,69,110
173520,note_on,2,0,3,,,,,,,,2,,,65,110
173520,note_on,2,0,6,,,,,,,,5,,,50,110
173520,note_on,2,0,7,,,,,,,,6,,,71,110
173520,note_on,2,0,5,,,,,,,,4,,,69,110
173520,note_on,2,0,2,,,,,,,,1,,,50,110
173520,note_on,2,0,8,,,,,,,,7,,,38,110
173520,note_on,2,0,4,,,,,,,,3,,,38,110
173566,note_on,46,0,5,,,,,,,,4,,,69,0
173566,note_on,46,0,2,,,,,,,,1,,,50,0
173566,note_on,46,0,6,,,,,,,,5,,,50,0
173566,note_on,94,0,10,,,,,,,,10,,,69,0
173566,note_on,94,0,11,,,,,,,,11,,,65,0
173566,note_on,94,0,12,,,,,,,,12,,,38,0
173566,note_on,46,0,1,,,,,,,,0,,,69,0
173566,note_on,46,0,7,,,,,,,,6,,,71,0
173566,note_on,46,0,3,,,,,,,,2,,,65,0
173566,note_on,46,0,4,,,,,,,,3,,,38,0
173566,note_on,94,0,9,,,,,,,,8,,,71,0
173566,note_on,46,0,8,,,,,,,,7,,,38,0
173568,note_on,2,0,4,,,,,,,,3,,,50,110
173568,note_on,2,0,7,,,,,,,,6,,,69,110
173568,note_on,2,0,2,,,,,,,,1,,,38,110
173568,note_on,2,0,6,,,,,,,,5,,,38,110
173568,note_on,2,0,3,,,,,,,,2,,,69,110
173568,note_on,2,0,10,,,,,,,,10,,,69,92
173568,note_on,2,0,11,,,,,,,,11,,,65,92
173568,note_on,2,0,9,,,,,,,,8,,,71,92
173568,note_on,2,0,8,,,,,,,,7,,,50,110
173568,note_on,2,0,12,,,,,,,,12,,,38,92
173568,note_on,2,0,1,,,,,,,,0,,,71,110
173568,note_on,2,0,5,,,,,,,,4,,,65,110
173614,note_on,46,0,6,,,,,,,,5,,,38,0
173614,note_on,46,0,7,,,,,,,,6,,,69,0
173614,note_on,46,0,3,,,,,,,,2,,,69,0
173614,note_on,46,0,4,,,,,,,,3,,,50,0
173614,note_on,46,0,5,,,,,,,,4,,,65,0
173614,note_on,46,0,2,,,,,,,,1,,,38,0
173614,note_on,46,0,1,,,,,,,,0,,,71,0
173614,note_on,46,0,8,,,,,,,,7,,,50,0
173616,note_on,2,0,6,,,,,,,,5,,,50,110
173616,note_on,2,0,4,,,,,,,,3,,,38,110
173616,note_on,2,0,3,,,,,,,,2,,,71,110
173616,note_on,2,0,1,,,,,,,,0,,,69,110
173616,note_on,2,0,5,,,,,,,,4,,,69,110
173616,note_on,2,0,8,,,,,,,,7,,,38,110
173616,note_on,2,0,7,,,,,,,,6,,,65,110
173616,note_on,2,0,2,,,,,,,,1,,,50,110
173662,note_on,46,0,5,,,,,,,,4,,,69,0
173662,note_on,94,0,12,,,,,,,,12,,,38,0
173662,note_on,94,0,10,,,,,,,,10,,,69,0
173662,note_on,94,0,11,,,,,,,,11,,,65,0
173662,note_on,46,0,8,,,,,,,,7,,,38,0
173662,note_on,46,0,4,,,,,,,,3,,,38,0
173662,note_on,94,0,9,,,,,,,,8,,,71,0
173662,note_on,46,0,6,,,,,,,,5,,,50,0
173662,note_on,46,0,1,,,,,,,,0,,,69,0
173662,note_on,46,0,7,,,,,,,,6,,,65,0
173662,note_on,46,0,2,,,,,,,,1,,,50,0
173662,note_on,46,0,3,,,,,,,,2,,,71,0
173664,note_on,2,0,8,,,,,,,,7,,,52,110
173664,note_on,2,0,12,,,,,,,,12,,,40,92
173664,note_on,2,0,5,,,,,,,,4,,,71,110
173664,note_on,2,0,9,,,,,,,,8,,,71,92
173664,note_on,2,0,3,,,,,,,,2,,,68,110
173664,set_tempo,288,1,0,,,,,,800000,,,,,,
173664,note_on,2,0,2,,,,,,,,1,,,40,110
173664,note_on,2,0,1,,,,,,,,0,,,71,110
173664,note_on,2,0,6,,,,,,,,5,,,40,110
173664,note_on,2,0,11,,,,,,,,11,,,64,92
173664,note_on,2,0,4,,,,,,,,3,,,52,110
173664,note_on,2,0,10,,,,,,,,10,,,68,92
173664,note_on,2,0,7,,,,,,,,6,,,68,110
173710,note_on,46,0,4,,,,,,,,3,,,52,0
173710,note_on,46,0,8,,,,,,,,7,,,52,0
173710,note_on,46,0,5,,,,,,,,4,,,71,0
173710,note_on,46,0,1,,,,,,,,0,,,71,0
173710,note_on,46,0,6,,,,,,,,5,,,40,0
173710,note_on,46,0,3,,,,,,,,2,,,68,0
173710,note_on,46,0,2,,,,,,,,1,,,40,0
173710,note_on,46,0,7,,,,,,,,6,,,68,0
173712,note_on,2,0,7,,,,,,,,6,,,64,110
173712,note_on,2,0,6,,,,,,,,5,,,52,110
173712,note_on,2,0,8,,,,,,,,7,,,40,110
173712,note_on,2,0,4,,,,,,,,3,,,40,110
173712,note_on,2,0,2,,,,,,,,1,,,52,110
173712,note_on,2,0,5,,,,,,,,4,,,74,110
173712,note_on,2,0,3,,,,,,,,2,,,71,110
173712,note_on,2,0,1,,,,,,,,0,,,68,110
173758,note_on,46,0,4,,,,,,,,3,,,40,0
173758,note_on,94,0,12,,,,,,,,12,,,40,0
173758,note_on,46,0,5,,,,,,,,4,,,74,0
173758,note_on,46,0,2,,,,,,,,1,,,52,0
173758,note_on,46,0,1,,,,,,,,0,,,68,0
173758,note_on,46,0,6,,,,,,,,5,,,52,0
173758,note_on,46,0,3,,,,,,,,2,,,71,0
173758,note_on,94,0,9,,,,,,,,8,,,71,0
173758,note_on,94,0,10,,,,,,,,10,,,68,0
173758,note_on,46,0,8,,,,,,,,7,,,40,0
173758,note_on,46,0,7,,,,,,,,6,,,64,0
173758,note_on,94,0,11,,,,,,,,11,,,64,0
173760,note_on,2,0,3,,,,,,,,2,,,68,110
173760,note_on,2,0,8,,,,,,,,7,,,52,110
173760,note_on,2,0,10,,,,,,,,10,,,68,92
173760,note_on,2,0,1,,,,,,,,0,,,64,110
173760,note_on,2,0,2,,,,,,,,1,,,40,110
173760,note_on,2,0,4,,,,,,,,3,,,52,110
173760,note_on,2,0,7,,,,,,,,6,,,68,110
173760,note_on,2,0,11,,,,,,,,11,,,64,92
173760,note_on,2,0,5,,,,,,,,4,,,71,110
173760,note_on,2,0,9,,,,,,,,8,,,71,92
173760,note_on,2,0,12,,,,,,,,12,,,40,92
173760,note_on,2,0,6,,,,,,,,5,,,40,110
173806,note_on,46,0,5,,,,,,,,4,,,71,0
173806,note_on,46,0,2,,,,,,,,1,,,40,0
173806,note_on,46,0,7,,,,,,,,6,,,68,0
173806,note_on,46,0,3,,,,,,,,2,,,68,0
173806,note_on,46,0,8,,,,,,,,7,,,52,0
173806,note_on,46,0,6,,,,,,,,5,,,40,0
173806,note_on,46,0,1,,,,,,,,0,,,64,0
173806,note_on,46,0,4,,,,,,,,3,,,52,0
173808,end_of_track,0,1,0,,,,,,,,,,,,
173808,note_on,2,0,1,,,,,,,,0,,,68,110
173808,note_on,2,0,3,,,,,,,,2,,,64,110
173808,set_tempo,144,1,0,,,,,,857143,,,,,,
173808,note_on,2,0,5,,,,,,,,4,,,68,110
173808,note_on,2,0,7,,,,,,,,6,,,71,110
173808,note_on,2,0,4,,,,,,,,3,,,40,110
173808,note_on,2,0,2,,,,,,,,1,,,52,110
173808,note_on,2,0,8,,,,,,,,7,,,40,110
173808,note_on,2,0,6,,,,,,,,5,,,52,110
173854,note_on,46,0,8,,,,,,,,7,,,40,0
173854,note_on,94,0,12,,,,,,,,12,,,40,0
173854,note_on,46,0,5,,,,,,,,4,,,68,0
173854,note_on,46,0,2,,,,,,,,1,,,52,0
173854,note_on,46,0,1,,,,,,,,0,,,68,0
173854,note_on,46,0,6,,,,,,,,5,,,52,0
173854,note_on,46,0,7,,,,,,,,6,,,71,0
173854,note_on,94,0,10,,,,,,,,10,,,68,0
173854,note_on,46,0,3,,,,,,,,2,,,64,0
173854,note_on,94,0,11,,,,,,,,11,,,64,0
173854,note_on,94,0,9,,,,,,,,8,,,71,0
173854,note_on,46,0,4,,,,,,,,3,,,40,0
173856,note_on,2,0,7,,,,,,,,6,,,68,110
173856,note_on,2,0,12,,,,,,,,12,,,40,92
173856,note_on,2,0,5,,,,,,,,4,,,64,110
173856,note_on,2,0,9,,,,,,,,8,,,71,92
173856,note_on,2,0,4,,,,,,,,3,,,52,110
173856,note_on,2,0,3,,,,,,,,2,,,68,110
173856,note_on,2,0,6,,,,,,,,5,,,40,110
173856,note_on,2,0,2,,,,,,,,1,,,40,110
173856,note_on,2,0,8,,,,,,,,7,,,52,110
173856,note_on,2,0,1,,,,,,,,0,,,71,110
173856,note_on,2,0,11,,,,,,,,11,,,62,92
173856,note_on,2,0,10,,,,,,,,10,,,68,92
173902,note_on,46,0,3,,,,,,,,2,,,68,0
173902,note_on,46,0,5,,,,,,,,4,,,64,0
173902,note_on,46,0,2,,,,,,,,1,,,40,0
173902,note_on,46,0,8,,,,,,,,7,,,52,0
173902,note_on,46,0,1,,,,,,,,0,,,71,0
173902,note_on,46,0,6,,,,,,,,5,,,40,0
173902,note_on,46,0,7,,,,,,,,6,,,68,0
173902,note_on,46,0,4,,,,,,,,3,,,52,0
173904,note_on,2,0,7,,,,,,,,6,,,64,110
173904,note_on,2,0,5,,,,,,,,4,,,68,110
173904,note_on,2,0,1,,,,,,,,0,,,68,110
173904,note_on,2,0,6,,,,,,,,5,,,52,110
173904,note_on,2,0,3,,,,,,,,2,,,71,110
173904,note_on,2,0,2,,,,,,,,1,,,52,110
173904,note_on,2,0,4,,,,,,,,3,,,40,110
173904,note_on,2,0,8,,,,,,,,7,,,40,110
173950,note_on,94,0,9,,,,,,,,8,,,71,0
173950,note_on,46,0,3,,,,,,,,2,,,71,0
173950,note_on,46,0,4,,,,,,,,3,,,40,0
173950,note_on,46,0,7,,,,,,,,6,,,64,0
173950,note_on,94,0,10,,,,,,,,10,,,68,0
173950,note_on,46,0,6,,,,,,,,5,,,52,0
173950,note_on,94,0,11,,,,,,,,11,,,62,0
173950,note_on,46,0,5,,,,,,,,4,,,68,0
173950,note_on,46,0,1,,,,,,,,0,,,68,0
173950,note_on,94,0,12,,,,,,,,12,,,40,0
173950,note_on,46,0,8,,,,,,,,7,,,40,0
173950,note_on,46,0,2,,,,,,,,1,,,52,0
173952,note_on,0,0,11,,,,,,,,11,,,64,92
173952,note_on,0,0,2,,,,,,,,1,,,57,110
173952,note_on,2,0,5,,,,,,,,4,,,69,110
173952,note_on,2,0,6,,,,,,,,5,,,45,110
173952,note_on,2,0,10,,,,,,,,10,,,64,92
173952,note_on,2,0,4,,,,,,,,3,,,45,110
173952,note_on,2,0,12,,,,,,,,12,,,45,92
173952,note_on,2,0,8,,,,,,,,7,,,45,110
173952,note_on,2,0,9,,,,,,,,8,,,69,92
173952,note_on,2,0,11,,,,,,,,11,,,60,92
173952,note_on,2,0,2,,,,,,,,1,,,45,110
173952,note_on,2,0,3,,,,,,,,2,,,69,110
173952,note_on,0,0,10,,,,,,,,10,,,69,92
173952,note_on,0,0,2,,,,,,,,1,,,52,110
173952,note_on,0,0,7,,,,,,,,6,,,69,110
173952,note_on,0,0,7,,,,,,,,6,,,64,110
173952,note_on,2,0,1,,,,,,,,0,,,60,110
173952,note_on,0,0,1,,,,,,,,0,,,64,110
173952,note_on,0,0,1,,,,,,,,0,,,69,110
173952,note_on,2,0,7,,,,,,,,6,,,60,110
174480,note_on,528,0,3,,,,,,,,2,,,69,0
174480,note_on,528,0,12,,,,,,,,12,,,45,0
174480,end_of_track,0,1,6,,,,,,,,,,,,
174480,note_on,528,0,6,,,,,,,,5,,,45,0
174480,end_of_track,0,1,10,,,,,,,,,,,,
174480,note_on,528,0,10,,,,,,,,10,,,69,0
174480,note_on,0,0,10,,,,,,,,10,,,64,0
174480,end_of_track,0,1,3,,,,,,,,,,,,
174480,end_of_track,0,1,11,,,,,,,,,,,,
174480,note_on,0,0,2,,,,,,,,1,,,52,0
174480,note_on,528,0,5,,,,,,,,4,,,69,0
174480,end_of_track,0,1,5,,,,,,,,,,,,
174480,end_of_track,0,1,8,,,,,,,,,,,,
174480,note_on,528,0,8,,,,,,,,7,,,45,0
174480,end_of_track,0,1,1,,,,,,,,,,,,
174480,note_on,0,0,1,,,,,,,,0,,,60,0
174480,note_on,0,0,1,,,,,,,,0,,,64,0
174480,note_on,528,0,1,,,,,,,,0,,,69,0
174480,note_on,528,0,11,,,,,,,,11,,,64,0
174480,note_on,528,0,2,,,,,,,,1,,,57,0
174480,end_of_track,0,1,7,,,,,,,,,,,,
174480,note_on,0,0,7,,,,,,,,6,,,64,0
174480,note_on,528,0,7,,,,,,,,6,,,69,0
174480,end_of_track,0,1,9,,,,,,,,,,,,
174480,note_on,0,0,11,,,,,,,,11,,,60,0
174480,end_of_track,0,1,12,,,,,,,,,,,,
174480,note_on,528,0,4,,,,,,,,3,,,45,0
174480,end_of_track,0,1,4,,,,,,,,,,,,
174480,end_of_track,0,1,2,,,,,,,,,,,,
174480,note_on,0,0,2,,,,,,,,1,,,45,0
174480,note_on,0,0,7,,,,,,,,6,,,60,0
174480,note_on,528,0,9,,,,,,,,8,,,69,0
