,note,step,duration,channel,velocity
0,66.0,0,104,5.0,76.0
1,66.0,0,104,4.0,76.0
2,66.0,0,104,10.0,76.0
3,62.0,0,104,11.0,76.0
4,67.0,0,104,5.0,76.0
5,67.0,0,104,10.0,76.0
6,64.0,0,104,11.0,76.0
7,67.0,120,104,4.0,76.0
8,69.0,120,224,5.0,76.0
9,69.0,0,224,10.0,76.0
10,69.0,0,224,4.0,76.0
11,66.0,0,224,11.0,76.0
12,66.0,0,104,12.0,76.0
13,62.0,0,104,13.0,76.0
14,62.0,0,104,14.0,76.0
15,50.0,0,119,3.0,76.0
16,74.0,0,224,4.0,76.0
17,62.0,0,224,2.0,76.0
18,64.0,0,104,12.0,76.0
19,69.0,240,224,11.0,76.0
20,74.0,0,224,10.0,76.0
21,61.0,0,104,14.0,76.0
22,61.0,120,104,13.0,76.0
23,74.0,0,224,5.0,76.0
24,66.0,0,224,1.0,76.0
25,69.0,0,224,0.0,76.0
26,50.0,0,119,3.0,76.0
27,66.0,0,224,11.0,76.0
28,69.0,0,239,1.0,76.0
29,66.0,0,239,12.0,76.0
30,62.0,0,239,13.0,76.0
31,74.0,0,239,0.0,76.0
32,69.0,0,239,10.0,76.0
33,62.0,120,239,14.0,76.0
34,69.0,0,239,4.0,76.0
35,66.0,0,239,2.0,76.0
36,50.0,0,239,3.0,76.0
37,69.0,0,239,5.0,76.0
38,61.0,0,224,11.0,76.0
39,67.0,240,239,4.0,76.0
40,67.0,0,239,10.0,76.0
41,67.0,0,239,5.0,76.0
42,66.0,240,224,5.0,76.0
43,66.0,0,224,10.0,76.0
44,66.0,0,224,4.0,76.0
45,62.0,0,224,11.0,76.0
46,61.0,0,104,14.0,76.0
47,69.0,0,104,12.0,76.0
48,61.0,0,104,13.0,76.0
49,50.0,0,119,3.0,76.0
50,59.0,0,104,13.0,76.0
51,67.0,0,104,12.0,76.0
52,74.0,0,224,10.0,76.0
53,69.0,0,224,0.0,76.0
54,74.0,0,224,4.0,76.0
55,59.0,120,104,14.0,76.0
56,74.0,0,224,5.0,76.0
57,66.0,240,224,1.0,76.0
58,62.0,0,224,2.0,76.0
59,66.0,0,224,11.0,76.0
60,50.0,0,119,3.0,76.0
61,62.0,0,224,11.0,76.0
62,74.0,120,239,0.0,76.0
63,61.0,0,239,14.0,76.0
64,69.0,0,239,12.0,76.0
65,66.0,0,239,10.0,76.0
66,66.0,0,239,2.0,76.0
67,50.0,0,239,3.0,76.0
68,61.0,0,239,13.0,76.0
69,66.0,0,239,5.0,76.0
70,66.0,0,239,4.0,76.0
71,69.0,0,239,1.0,76.0
72,58.0,0,224,11.0,76.0
73,64.0,0,239,5.0,76.0
74,64.0,0,239,4.0,76.0
75,64.0,240,239,10.0,76.0
76,59.0,0,224,11.0,76.0
77,62.0,240,224,4.0,76.0
78,62.0,0,224,5.0,76.0
79,62.0,0,224,10.0,76.0
80,66.0,0,104,10.0,76.0
81,78.0,0,104,0.0,76.0
82,66.0,0,104,4.0,76.0
83,74.0,0,104,1.0,76.0
84,66.0,0,104,5.0,76.0
85,62.0,0,104,12.0,76.0
86,62.0,0,104,11.0,76.0
87,59.0,0,104,14.0,76.0
88,59.0,0,104,13.0,76.0
89,50.0,0,119,3.0,76.0
90,64.0,0,104,12.0,76.0
91,64.0,0,104,10.0,76.0
92,64.0,0,104,5.0,76.0
93,73.0,0,104,1.0,76.0
94,64.0,0,104,4.0,76.0
95,61.0,0,104,13.0,76.0
96,61.0,0,104,11.0,76.0
97,66.0,240,224,2.0,76.0
98,61.0,120,104,14.0,76.0
99,76.0,0,104,0.0,76.0
100,50.0,0,119,3.0,76.0
101,78.0,0,224,0.0,76.0
102,66.0,0,224,4.0,76.0
103,74.0,120,224,1.0,76.0
104,59.0,0,224,11.0,76.0
105,66.0,0,224,10.0,76.0
106,62.0,0,224,2.0,76.0
107,66.0,0,224,5.0,76.0
108,62.0,0,224,14.0,76.0
109,62.0,0,224,12.0,76.0
110,62.0,0,224,13.0,76.0
111,50.0,0,239,3.0,76.0
112,62.0,0,224,12.0,76.0
113,68.0,0,224,4.0,76.0
114,74.0,0,224,1.0,76.0
115,68.0,0,224,10.0,76.0
116,59.0,240,224,13.0,76.0
117,62.0,0,224,2.0,76.0
118,64.0,0,224,11.0,76.0
119,80.0,0,224,0.0,76.0
120,59.0,0,224,14.0,76.0
121,68.0,0,224,5.0,76.0
122,50.0,0,239,3.0,76.0
123,69.0,0,104,5.0,76.0
124,69.0,0,104,10.0,76.0
125,69.0,0,104,4.0,76.0
126,81.0,240,104,0.0,76.0
127,69.0,0,224,2.0,76.0
128,68.0,120,104,4.0,76.0
129,61.0,0,224,14.0,76.0
130,61.0,0,224,12.0,76.0
131,61.0,0,224,13.0,76.0
132,68.0,0,104,5.0,76.0
133,80.0,0,104,0.0,76.0
134,64.0,0,224,11.0,76.0
135,68.0,0,104,10.0,76.0
136,76.0,0,224,1.0,76.0
137,45.0,0,239,3.0,76.0
138,69.0,0,104,1.0,76.0
139,69.0,0,104,4.0,76.0
140,69.0,0,104,2.0,76.0
141,81.0,0,104,0.0,76.0
142,69.0,0,104,5.0,76.0
143,69.0,120,104,10.0,76.0
144,45.0,0,119,3.0,76.0
145,57.0,0,224,13.0,76.0
146,71.0,0,104,4.0,76.0
147,83.0,0,104,0.0,76.0
148,69.0,0,104,2.0,76.0
149,57.0,0,224,14.0,76.0
150,71.0,0,104,10.0,76.0
151,71.0,120,104,5.0,76.0
152,69.0,0,104,1.0,76.0
153,64.0,0,224,12.0,76.0
154,61.0,0,224,11.0,76.0
155,45.0,0,119,3.0,76.0
156,69.0,120,104,10.0,76.0
157,69.0,0,104,4.0,76.0
158,69.0,0,104,5.0,76.0
159,67.0,0,104,4.0,76.0
160,54.0,0,224,13.0,76.0
161,67.0,120,104,10.0,76.0
162,54.0,0,224,14.0,76.0
163,57.0,0,224,11.0,76.0
164,67.0,0,104,5.0,76.0
165,62.0,0,224,12.0,76.0
166,81.0,0,239,0.0,76.0
167,45.0,0,239,3.0,76.0
168,69.0,0,239,1.0,76.0
169,69.0,0,239,2.0,76.0
170,66.0,0,104,10.0,76.0
171,66.0,0,104,5.0,76.0
172,66.0,0,104,4.0,76.0
173,57.0,0,224,12.0,76.0
174,57.0,120,224,14.0,76.0
175,64.0,0,104,5.0,76.0
176,57.0,0,224,13.0,76.0
177,64.0,0,104,10.0,76.0
178,61.0,0,224,11.0,76.0
179,64.0,120,104,4.0,76.0
180,66.0,0,224,4.0,76.0
181,66.0,0,224,10.0,76.0
182,62.0,0,224,11.0,76.0
183,50.0,0,224,13.0,76.0
184,50.0,0,224,14.0,76.0
185,66.0,120,224,5.0,76.0
186,57.0,0,224,12.0,76.0
187,62.0,0,104,14.0,76.0
188,71.0,0,104,11.0,76.0
189,62.0,240,104,13.0,76.0
190,66.0,0,104,12.0,76.0
191,50.0,0,119,3.0,76.0
192,78.0,0,224,4.0,76.0
193,74.0,0,224,1.0,76.0
194,78.0,0,224,5.0,76.0
195,78.0,0,224,0.0,76.0
196,69.0,0,104,11.0,76.0
197,66.0,0,224,2.0,76.0
198,61.0,0,104,13.0,76.0
199,61.0,0,104,14.0,76.0
200,78.0,0,224,10.0,76.0
201,64.0,0,104,12.0,76.0
202,50.0,120,119,3.0,76.0
203,71.0,0,224,11.0,76.0
204,50.0,0,239,3.0,76.0
205,71.0,0,239,4.0,76.0
206,62.0,0,239,14.0,76.0
207,74.0,0,239,2.0,76.0
208,83.0,120,239,0.0,76.0
209,71.0,0,239,10.0,76.0
210,78.0,0,239,1.0,76.0
211,71.0,0,239,5.0,76.0
212,66.0,0,239,12.0,76.0
213,62.0,0,239,13.0,76.0
214,62.0,0,224,11.0,76.0
215,69.0,240,239,10.0,76.0
216,69.0,0,239,5.0,76.0
217,69.0,0,239,4.0,76.0
218,68.0,0,224,10.0,76.0
219,68.0,0,224,4.0,76.0
220,68.0,240,224,5.0,76.0
221,64.0,0,224,11.0,76.0
222,76.0,0,104,11.0,76.0
223,71.0,0,104,12.0,76.0
224,56.0,0,104,14.0,76.0
225,56.0,0,104,13.0,76.0
226,50.0,0,119,3.0,76.0
227,69.0,0,104,12.0,76.0
228,83.0,0,224,5.0,76.0
229,54.0,0,104,14.0,76.0
230,76.0,0,224,0.0,76.0
231,74.0,0,224,2.0,76.0
232,76.0,0,224,1.0,76.0
233,74.0,120,104,11.0,76.0
234,83.0,240,224,4.0,76.0
235,83.0,0,224,10.0,76.0
236,54.0,0,104,13.0,76.0
237,50.0,0,119,3.0,76.0
238,71.0,0,224,12.0,76.0
239,76.0,0,224,11.0,76.0
240,56.0,120,224,14.0,76.0
241,56.0,0,224,13.0,76.0
242,76.0,0,239,1.0,76.0
243,76.0,0,239,4.0,76.0
244,76.0,0,239,5.0,76.0
245,83.0,0,239,0.0,76.0
246,76.0,0,239,10.0,76.0
247,50.0,0,239,3.0,76.0
248,74.0,0,239,2.0,76.0
249,59.0,0,224,12.0,76.0
250,52.0,0,224,13.0,76.0
251,52.0,0,224,14.0,76.0
252,68.0,0,224,11.0,76.0
253,74.0,240,239,5.0,76.0
254,74.0,0,239,10.0,76.0
255,74.0,0,239,4.0,76.0
256,73.0,0,104,10.0,76.0
257,73.0,0,104,5.0,76.0
258,73.0,0,104,4.0,76.0
259,71.0,120,104,10.0,76.0
260,71.0,0,104,4.0,76.0
261,57.0,0,224,14.0,76.0
262,64.0,0,224,11.0,76.0
263,57.0,240,224,12.0,76.0
264,57.0,0,224,13.0,76.0
265,71.0,0,104,5.0,76.0
266,73.0,0,104,5.0,76.0
267,73.0,120,104,4.0,76.0
268,73.0,0,104,10.0,76.0
269,74.0,0,104,10.0,76.0
270,69.0,0,224,2.0,76.0
271,61.0,0,224,12.0,76.0
272,74.0,120,104,4.0,76.0
273,54.0,0,224,14.0,76.0
274,69.0,0,224,11.0,76.0
275,81.0,0,224,0.0,76.0
276,74.0,0,104,5.0,76.0
277,54.0,0,224,13.0,76.0
278,76.0,0,224,1.0,76.0
279,45.0,0,239,3.0,76.0
280,73.0,0,104,10.0,76.0
281,85.0,0,104,0.0,76.0
282,73.0,0,104,5.0,76.0
283,73.0,120,104,4.0,76.0
284,50.0,0,224,14.0,76.0
285,62.0,0,224,12.0,76.0
286,74.0,0,224,2.0,76.0
287,50.0,0,224,13.0,76.0
288,83.0,0,104,0.0,76.0
289,71.0,120,104,10.0,76.0
290,66.0,0,224,11.0,76.0
291,78.0,0,224,1.0,76.0
292,71.0,0,104,4.0,76.0
293,71.0,0,104,5.0,76.0
294,50.0,0,239,3.0,76.0
295,69.0,0,104,10.0,76.0
296,81.0,0,104,0.0,76.0
297,69.0,0,104,5.0,76.0
298,69.0,0,104,4.0,76.0
299,80.0,0,104,0.0,76.0
300,64.0,0,224,11.0,76.0
301,68.0,0,104,10.0,76.0
302,68.0,0,104,4.0,76.0
303,59.0,0,224,12.0,76.0
304,52.0,0,224,13.0,76.0
305,68.0,120,104,5.0,76.0
306,52.0,120,224,14.0,76.0
307,76.0,0,224,1.0,76.0
308,74.0,0,224,2.0,76.0
309,64.0,0,704,11.0,76.0
310,69.0,0,704,10.0,76.0
311,69.0,0,704,5.0,76.0
312,69.0,120,704,4.0,76.0
313,45.0,0,719,13.0,76.0
314,45.0,0,719,3.0,76.0
315,76.0,0,719,1.0,76.0
316,45.0,0,719,14.0,76.0
317,61.0,0,719,12.0,76.0
318,81.0,0,719,0.0,76.0
319,69.0,0,719,2.0,76.0
320,66.0,720,104,5.0,76.0
321,66.0,0,104,4.0,76.0
322,62.0,0,104,11.0,76.0
323,66.0,0,104,10.0,76.0
324,67.0,0,104,10.0,76.0
325,64.0,0,104,11.0,76.0
326,67.0,120,104,5.0,76.0
327,67.0,0,104,4.0,76.0
328,69.0,0,224,5.0,76.0
329,69.0,0,224,10.0,76.0
330,69.0,120,224,4.0,76.0
331,66.0,0,224,11.0,76.0
332,66.0,0,104,12.0,76.0
333,62.0,0,104,14.0,76.0
334,62.0,0,104,13.0,76.0
335,50.0,0,119,3.0,76.0
336,74.0,0,224,4.0,76.0
337,69.0,0,224,0.0,76.0
338,74.0,0,224,5.0,76.0
339,69.0,0,224,11.0,76.0
340,74.0,240,224,10.0,76.0
341,62.0,0,224,2.0,76.0
342,66.0,0,224,1.0,76.0
343,61.0,0,104,14.0,76.0
344,61.0,0,104,13.0,76.0
345,64.0,0,104,12.0,76.0
346,50.0,120,119,3.0,76.0
347,66.0,0,224,11.0,76.0
348,66.0,0,239,2.0,76.0
349,69.0,0,239,4.0,76.0
350,69.0,0,239,5.0,76.0
351,66.0,0,239,12.0,76.0
352,69.0,0,239,1.0,76.0
353,74.0,0,239,0.0,76.0
354,62.0,0,239,14.0,76.0
355,62.0,120,239,13.0,76.0
356,69.0,0,239,10.0,76.0
357,50.0,0,239,3.0,76.0
358,61.0,0,224,11.0,76.0
359,67.0,0,239,5.0,76.0
360,67.0,0,239,4.0,76.0
361,67.0,240,239,10.0,76.0
362,66.0,0,224,10.0,76.0
363,66.0,240,224,5.0,76.0
364,62.0,0,224,11.0,76.0
365,66.0,0,224,4.0,76.0
366,61.0,0,104,13.0,76.0
367,61.0,0,104,14.0,76.0
368,69.0,0,104,12.0,76.0
369,50.0,0,119,3.0,76.0
370,67.0,0,104,12.0,76.0
371,66.0,0,224,1.0,76.0
372,59.0,120,104,13.0,76.0
373,74.0,0,224,5.0,76.0
374,74.0,0,224,4.0,76.0
375,59.0,0,104,14.0,76.0
376,74.0,0,224,10.0,76.0
377,69.0,0,224,0.0,76.0
378,62.0,240,224,2.0,76.0
379,66.0,0,224,11.0,76.0
380,50.0,0,119,3.0,76.0
381,62.0,0,224,11.0,76.0
382,66.0,0,239,4.0,76.0
383,69.0,0,239,1.0,76.0
384,61.0,0,239,14.0,76.0
385,66.0,0,239,2.0,76.0
386,66.0,0,239,5.0,76.0
387,66.0,0,239,10.0,76.0
388,74.0,0,239,0.0,76.0
389,69.0,0,239,12.0,76.0
390,50.0,0,239,3.0,76.0
391,61.0,120,239,13.0,76.0
392,58.0,0,224,11.0,76.0
393,64.0,240,239,10.0,76.0
394,64.0,0,239,5.0,76.0
395,64.0,0,239,4.0,76.0
396,62.0,0,224,5.0,76.0
397,62.0,0,224,10.0,76.0
398,62.0,0,224,4.0,76.0
399,59.0,240,224,11.0,76.0
400,62.0,240,104,11.0,76.0
401,74.0,0,104,1.0,76.0
402,66.0,0,104,4.0,76.0
403,62.0,0,104,12.0,76.0
404,66.0,0,104,10.0,76.0
405,59.0,0,104,14.0,76.0
406,59.0,0,104,13.0,76.0
407,78.0,0,104,0.0,76.0
408,66.0,0,104,5.0,76.0
409,50.0,0,119,3.0,76.0
410,61.0,0,104,14.0,76.0
411,61.0,0,104,11.0,76.0
412,76.0,0,104,0.0,76.0
413,64.0,0,104,12.0,76.0
414,73.0,0,104,1.0,76.0
415,64.0,0,104,10.0,76.0
416,64.0,120,104,4.0,76.0
417,64.0,0,104,5.0,76.0
418,66.0,0,224,2.0,76.0
419,61.0,0,104,13.0,76.0
420,50.0,0,119,3.0,76.0
421,66.0,0,224,10.0,76.0
422,66.0,0,224,4.0,76.0
423,62.0,0,224,12.0,76.0
424,66.0,0,224,5.0,76.0
425,62.0,0,224,14.0,76.0
426,59.0,0,224,11.0,76.0
427,62.0,0,224,2.0,76.0
428,74.0,0,224,1.0,76.0
429,62.0,0,224,13.0,76.0
430,78.0,0,224,0.0,76.0
431,50.0,120,239,3.0,76.0
432,68.0,0,224,5.0,76.0
433,59.0,0,224,13.0,76.0
434,62.0,0,224,12.0,76.0
435,62.0,0,224,2.0,76.0
436,68.0,0,224,10.0,76.0
437,64.0,0,224,11.0,76.0
438,74.0,0,224,1.0,76.0
439,68.0,0,224,4.0,76.0
440,80.0,0,224,0.0,76.0
441,59.0,240,224,14.0,76.0
442,50.0,0,239,3.0,76.0
443,69.0,0,104,5.0,76.0
444,69.0,240,104,10.0,76.0
445,69.0,0,104,4.0,76.0
446,81.0,0,104,0.0,76.0
447,68.0,0,104,5.0,76.0
448,61.0,0,224,13.0,76.0
449,61.0,0,224,14.0,76.0
450,76.0,0,224,1.0,76.0
451,68.0,0,104,4.0,76.0
452,69.0,0,224,2.0,76.0
453,68.0,120,104,10.0,76.0
454,80.0,0,104,0.0,76.0
455,64.0,0,224,11.0,76.0
456,61.0,0,224,12.0,76.0
457,45.0,0,239,3.0,76.0
458,69.0,0,104,4.0,76.0
459,69.0,0,104,2.0,76.0
460,69.0,0,104,1.0,76.0
461,69.0,0,104,10.0,76.0
462,69.0,120,104,5.0,76.0
463,81.0,0,104,0.0,76.0
464,45.0,0,119,3.0,76.0
465,57.0,0,224,13.0,76.0
466,71.0,0,104,4.0,76.0
467,71.0,0,104,10.0,76.0
468,57.0,0,224,14.0,76.0
469,64.0,0,224,12.0,76.0
470,69.0,0,104,1.0,76.0
471,61.0,0,224,11.0,76.0
472,83.0,0,104,0.0,76.0
473,69.0,0,104,2.0,76.0
474,71.0,0,104,5.0,76.0
475,45.0,120,119,3.0,76.0
476,69.0,0,104,10.0,76.0
477,69.0,0,104,5.0,76.0
478,69.0,0,104,4.0,76.0
479,54.0,0,224,13.0,76.0
480,54.0,0,224,14.0,76.0
481,57.0,0,224,11.0,76.0
482,67.0,0,104,10.0,76.0
483,62.0,0,224,12.0,76.0
484,67.0,120,104,5.0,76.0
485,67.0,0,104,4.0,76.0
486,81.0,0,239,0.0,76.0
487,69.0,120,239,1.0,76.0
488,45.0,0,239,3.0,76.0
489,69.0,0,239,2.0,76.0
490,66.0,0,104,5.0,76.0
491,66.0,0,104,4.0,76.0
492,66.0,0,104,10.0,76.0
493,64.0,120,104,5.0,76.0
494,57.0,0,224,13.0,76.0
495,64.0,0,104,10.0,76.0
496,61.0,120,224,11.0,76.0
497,64.0,0,104,4.0,76.0
498,57.0,0,224,14.0,76.0
499,57.0,0,224,12.0,76.0
500,66.0,0,224,4.0,76.0
501,50.0,0,224,13.0,76.0
502,62.0,120,224,11.0,76.0
503,66.0,0,224,5.0,76.0
504,50.0,0,224,14.0,76.0
505,66.0,0,224,10.0,76.0
506,57.0,0,224,12.0,76.0
507,62.0,0,104,14.0,76.0
508,62.0,0,104,13.0,76.0
509,71.0,0,104,11.0,76.0
510,66.0,0,104,12.0,76.0
511,50.0,0,119,3.0,76.0
512,78.0,0,224,10.0,76.0
513,61.0,0,104,13.0,76.0
514,78.0,0,224,0.0,76.0
515,66.0,0,224,2.0,76.0
516,78.0,0,224,4.0,76.0
517,78.0,240,224,5.0,76.0
518,64.0,0,104,12.0,76.0
519,61.0,120,104,14.0,76.0
520,74.0,0,224,1.0,76.0
521,69.0,0,104,11.0,76.0
522,50.0,0,119,3.0,76.0
523,71.0,0,224,11.0,76.0
524,71.0,0,239,10.0,76.0
525,62.0,0,239,14.0,76.0
526,71.0,0,239,4.0,76.0
527,50.0,120,239,3.0,76.0
528,83.0,0,239,0.0,76.0
529,78.0,0,239,1.0,76.0
530,66.0,0,239,12.0,76.0
531,62.0,0,239,13.0,76.0
532,74.0,0,239,2.0,76.0
533,71.0,0,239,5.0,76.0
534,62.0,0,224,11.0,76.0
535,69.0,240,239,10.0,76.0
536,69.0,0,239,4.0,76.0
537,69.0,0,239,5.0,76.0
538,64.0,240,224,11.0,76.0
539,68.0,0,224,10.0,76.0
540,68.0,0,224,4.0,76.0
541,68.0,0,224,5.0,76.0
542,56.0,0,104,13.0,76.0
543,56.0,0,104,14.0,76.0
544,71.0,0,104,12.0,76.0
545,76.0,0,104,11.0,76.0
546,50.0,0,119,3.0,76.0
547,74.0,0,224,2.0,76.0
548,74.0,120,104,11.0,76.0
549,83.0,0,224,5.0,76.0
550,54.0,0,104,13.0,76.0
551,76.0,0,224,1.0,76.0
552,69.0,0,104,12.0,76.0
553,54.0,0,104,14.0,76.0
554,76.0,240,224,0.0,76.0
555,83.0,0,224,4.0,76.0
556,83.0,0,224,10.0,76.0
557,50.0,0,119,3.0,76.0
558,76.0,0,224,11.0,76.0
559,71.0,0,224,12.0,76.0
560,56.0,0,224,13.0,76.0
561,56.0,0,224,14.0,76.0
562,76.0,0,239,5.0,76.0
563,74.0,0,239,2.0,76.0
564,76.0,0,239,10.0,76.0
565,83.0,120,239,0.0,76.0
566,76.0,0,239,1.0,76.0
567,76.0,0,239,4.0,76.0
568,50.0,0,239,3.0,76.0
569,52.0,0,224,14.0,76.0
570,68.0,0,224,11.0,76.0
571,52.0,0,224,13.0,76.0
572,59.0,0,224,12.0,76.0
573,74.0,0,239,5.0,76.0
574,74.0,240,239,10.0,76.0
575,74.0,0,239,4.0,76.0
576,73.0,240,104,10.0,76.0
577,73.0,0,104,4.0,76.0
578,73.0,0,104,5.0,76.0
579,71.0,0,104,10.0,76.0
580,57.0,0,224,12.0,76.0
581,64.0,0,224,11.0,76.0
582,57.0,0,224,13.0,76.0
583,71.0,0,104,5.0,76.0
584,57.0,0,224,14.0,76.0
585,71.0,120,104,4.0,76.0
586,73.0,0,104,10.0,76.0
587,73.0,120,104,4.0,76.0
588,73.0,0,104,5.0,76.0
589,54.0,0,224,14.0,76.0
590,69.0,0,224,11.0,76.0
591,61.0,0,224,12.0,76.0
592,54.0,0,224,13.0,76.0
593,74.0,0,104,10.0,76.0
594,69.0,0,224,2.0,76.0
595,74.0,120,104,4.0,76.0
596,74.0,0,104,5.0,76.0
597,76.0,0,224,1.0,76.0
598,81.0,0,224,0.0,76.0
599,45.0,0,239,3.0,76.0
600,73.0,0,104,10.0,76.0
601,73.0,0,104,5.0,76.0
602,73.0,0,104,4.0,76.0
603,85.0,0,104,0.0,76.0
604,50.0,0,224,13.0,76.0
605,62.0,0,224,12.0,76.0
606,78.0,0,224,1.0,76.0
607,71.0,0,104,4.0,76.0
608,74.0,0,224,2.0,76.0
609,83.0,0,104,0.0,76.0
610,71.0,0,104,5.0,76.0
611,50.0,0,224,14.0,76.0
612,71.0,120,104,10.0,76.0
613,66.0,0,224,11.0,76.0
614,50.0,120,239,3.0,76.0
615,81.0,0,104,0.0,76.0
616,69.0,120,104,5.0,76.0
617,69.0,0,104,4.0,76.0
618,69.0,0,104,10.0,76.0
619,64.0,0,224,11.0,76.0
620,74.0,0,224,2.0,76.0
621,52.0,0,224,13.0,76.0
622,59.0,0,224,12.0,76.0
623,68.0,120,104,5.0,76.0
624,68.0,0,104,4.0,76.0
625,76.0,0,224,1.0,76.0
626,80.0,0,104,0.0,76.0
627,68.0,0,104,10.0,76.0
628,52.0,0,224,14.0,76.0
629,69.0,0,704,10.0,76.0
630,69.0,0,704,4.0,76.0
631,64.0,120,704,11.0,76.0
632,69.0,0,704,5.0,76.0
633,45.0,0,719,14.0,76.0
634,81.0,0,719,0.0,76.0
635,61.0,0,719,12.0,76.0
636,69.0,0,719,2.0,76.0
637,76.0,0,719,1.0,76.0
638,45.0,0,719,13.0,76.0
639,45.0,0,719,3.0,76.0
640,69.0,0,104,11.0,76.0
641,73.0,720,104,10.0,76.0
642,73.0,0,104,4.0,76.0
643,73.0,0,104,5.0,76.0
644,71.0,120,104,11.0,76.0
645,74.0,0,104,10.0,76.0
646,74.0,0,104,5.0,76.0
647,74.0,0,104,4.0,76.0
648,76.0,120,224,5.0,76.0
649,76.0,0,224,4.0,76.0
650,73.0,0,224,11.0,76.0
651,76.0,0,224,10.0,76.0
652,73.0,0,104,12.0,76.0
653,57.0,0,104,14.0,76.0
654,57.0,240,104,13.0,76.0
655,69.0,0,104,2.0,76.0
656,45.0,0,119,3.0,76.0
657,69.0,0,104,2.0,76.0
658,56.0,0,104,13.0,76.0
659,76.0,0,224,0.0,76.0
660,71.0,120,104,12.0,76.0
661,56.0,0,104,14.0,76.0
662,69.0,0,224,1.0,76.0
663,81.0,0,224,10.0,76.0
664,81.0,0,224,4.0,76.0
665,81.0,0,224,5.0,76.0
666,76.0,0,224,11.0,76.0
667,45.0,0,119,3.0,76.0
668,73.0,0,224,11.0,76.0
669,57.0,0,239,13.0,76.0
670,76.0,0,239,1.0,76.0
671,57.0,0,239,14.0,76.0
672,81.0,0,239,0.0,76.0
673,69.0,0,239,2.0,76.0
674,73.0,0,239,12.0,76.0
675,76.0,0,239,4.0,76.0
676,76.0,120,239,5.0,76.0
677,45.0,0,239,3.0,76.0
678,76.0,0,239,10.0,76.0
679,68.0,0,224,11.0,76.0
680,74.0,240,239,4.0,76.0
681,74.0,0,239,10.0,76.0
682,74.0,0,239,5.0,76.0
683,73.0,0,224,4.0,76.0
684,73.0,0,224,10.0,76.0
685,69.0,240,224,11.0,76.0
686,73.0,0,224,5.0,76.0
687,55.0,0,104,13.0,76.0
688,64.0,0,104,12.0,76.0
689,69.0,0,104,2.0,76.0
690,55.0,0,104,14.0,76.0
691,45.0,0,119,3.0,76.0
692,69.0,240,224,1.0,76.0
693,73.0,0,224,11.0,76.0
694,62.0,0,104,12.0,76.0
695,54.0,120,104,13.0,76.0
696,54.0,0,104,14.0,76.0
697,81.0,0,224,10.0,76.0
698,69.0,0,104,2.0,76.0
699,81.0,0,224,5.0,76.0
700,81.0,0,224,4.0,76.0
701,76.0,0,224,0.0,76.0
702,45.0,0,119,3.0,76.0
703,69.0,0,224,11.0,76.0
704,55.0,0,239,14.0,76.0
705,76.0,0,239,1.0,76.0
706,73.0,120,239,4.0,76.0
707,64.0,0,239,12.0,76.0
708,45.0,0,239,3.0,76.0
709,73.0,0,239,10.0,76.0
710,73.0,0,239,5.0,76.0
711,81.0,0,239,0.0,76.0
712,55.0,0,239,13.0,76.0
713,69.0,0,239,2.0,76.0
714,64.0,0,224,11.0,76.0
715,71.0,0,239,4.0,76.0
716,71.0,0,239,5.0,76.0
717,71.0,240,239,10.0,76.0
718,69.0,0,224,10.0,76.0
719,69.0,0,224,4.0,76.0
720,69.0,0,224,5.0,76.0
721,66.0,240,224,11.0,76.0
722,78.0,0,224,1.0,76.0
723,69.0,0,224,11.0,76.0
724,74.0,0,224,5.0,76.0
725,74.0,240,224,2.0,76.0
726,54.0,0,224,14.0,76.0
727,54.0,0,224,13.0,76.0
728,74.0,0,224,4.0,76.0
729,74.0,0,224,10.0,76.0
730,74.0,0,224,0.0,76.0
731,62.0,0,224,12.0,76.0
732,50.0,0,239,3.0,76.0
733,52.0,0,224,14.0,76.0
734,52.0,0,224,13.0,76.0
735,62.0,0,224,12.0,76.0
736,79.0,240,224,5.0,76.0
737,71.0,0,224,11.0,76.0
738,79.0,0,224,10.0,76.0
739,79.0,0,224,0.0,76.0
740,79.0,0,224,4.0,76.0
741,76.0,0,224,1.0,76.0
742,74.0,0,224,2.0,76.0
743,50.0,0,239,3.0,76.0
744,78.0,0,104,0.0,76.0
745,78.0,240,104,5.0,76.0
746,78.0,0,104,4.0,76.0
747,78.0,0,104,10.0,76.0
748,76.0,120,104,10.0,76.0
749,76.0,0,224,1.0,76.0
750,57.0,0,224,13.0,76.0
751,69.0,0,224,2.0,76.0
752,69.0,0,224,11.0,76.0
753,76.0,0,104,5.0,76.0
754,76.0,0,104,4.0,76.0
755,61.0,0,224,12.0,76.0
756,76.0,0,104,0.0,76.0
757,57.0,0,224,14.0,76.0
758,45.0,0,239,3.0,76.0
759,78.0,0,104,10.0,76.0
760,78.0,0,104,0.0,76.0
761,78.0,0,104,4.0,76.0
762,78.0,0,104,5.0,76.0
763,79.0,120,104,0.0,76.0
764,74.0,0,224,1.0,76.0
765,79.0,0,104,4.0,76.0
766,79.0,0,104,10.0,76.0
767,69.0,0,224,2.0,76.0
768,79.0,0,104,5.0,76.0
769,50.0,0,224,14.0,76.0
770,62.0,0,224,12.0,76.0
771,50.0,0,224,13.0,76.0
772,50.0,120,239,3.0,76.0
773,78.0,0,104,10.0,76.0
774,62.0,0,104,13.0,76.0
775,62.0,0,104,12.0,76.0
776,74.0,0,104,1.0,76.0
777,69.0,0,104,2.0,76.0
778,78.0,0,104,4.0,76.0
779,78.0,0,104,0.0,76.0
780,78.0,0,104,5.0,76.0
781,62.0,0,104,14.0,76.0
782,50.0,120,119,3.0,76.0
783,64.0,0,104,12.0,76.0
784,76.0,0,104,4.0,76.0
785,69.0,0,464,11.0,76.0
786,76.0,120,104,5.0,76.0
787,69.0,0,104,2.0,76.0
788,61.0,0,104,13.0,76.0
789,74.0,0,104,1.0,76.0
790,76.0,0,104,10.0,76.0
791,76.0,0,104,0.0,76.0
792,61.0,0,104,14.0,76.0
793,50.0,0,119,3.0,76.0
794,74.0,0,104,5.0,76.0
795,74.0,0,104,10.0,76.0
796,74.0,0,104,4.0,76.0
797,76.0,0,104,5.0,76.0
798,69.0,120,224,11.0,76.0
799,62.0,0,224,14.0,76.0
800,76.0,120,104,10.0,76.0
801,76.0,0,104,4.0,76.0
802,62.0,0,224,13.0,76.0
803,66.0,0,239,2.0,76.0
804,69.0,0,239,1.0,76.0
805,50.0,0,239,3.0,76.0
806,74.0,0,239,0.0,76.0
807,66.0,0,239,12.0,76.0
808,78.0,0,104,4.0,76.0
809,78.0,120,104,5.0,76.0
810,78.0,0,104,10.0,76.0
811,50.0,0,224,13.0,76.0
812,74.0,120,104,4.0,76.0
813,50.0,0,224,14.0,76.0
814,74.0,0,104,10.0,76.0
815,74.0,0,104,5.0,76.0
816,69.0,0,224,11.0,76.0
817,71.0,0,119,10.0,76.0
818,71.0,0,119,5.0,76.0
819,71.0,0,119,4.0,76.0
820,71.0,0,119,11.0,76.0
821,55.0,0,224,14.0,76.0
822,55.0,120,224,13.0,76.0
823,75.0,0,119,11.0,76.0
824,78.0,0,119,5.0,76.0
825,78.0,0,119,10.0,76.0
826,78.0,120,119,4.0,76.0
827,64.0,0,119,12.0,76.0
828,59.0,0,224,13.0,76.0
829,59.0,0,224,14.0,76.0
830,63.0,120,119,12.0,76.0
831,76.0,0,464,11.0,76.0
832,79.0,0,464,5.0,76.0
833,79.0,0,464,4.0,76.0
834,79.0,120,464,10.0,76.0
835,52.0,0,239,14.0,76.0
836,64.0,0,239,12.0,76.0
837,52.0,120,239,13.0,76.0
838,78.0,0,224,5.0,76.0
839,78.0,240,224,4.0,76.0
840,71.0,0,224,11.0,76.0
841,78.0,0,224,10.0,76.0
842,50.0,0,239,14.0,76.0
843,50.0,0,239,13.0,76.0
844,67.0,0,119,4.0,76.0
845,69.0,0,119,11.0,76.0
846,67.0,240,119,5.0,76.0
847,67.0,0,119,10.0,76.0
848,48.0,0,224,13.0,76.0
849,48.0,0,224,14.0,76.0
850,66.0,0,119,11.0,76.0
851,75.0,0,119,5.0,76.0
852,75.0,0,119,4.0,76.0
853,75.0,120,119,10.0,76.0
854,64.0,0,119,12.0,76.0
855,60.0,0,224,13.0,76.0
856,60.0,120,224,14.0,76.0
857,63.0,120,119,12.0,76.0
858,76.0,0,464,5.0,76.0
859,76.0,0,464,10.0,76.0
860,67.0,0,464,11.0,76.0
861,76.0,0,464,4.0,76.0
862,55.0,0,239,13.0,76.0
863,64.0,120,239,12.0,76.0
864,55.0,0,239,14.0,76.0
865,78.0,0,224,4.0,76.0
866,78.0,0,224,10.0,76.0
867,78.0,0,224,5.0,76.0
868,63.0,240,224,11.0,76.0
869,54.0,0,239,14.0,76.0
870,54.0,0,239,13.0,76.0
871,71.0,0,119,10.0,76.0
872,71.0,0,119,4.0,76.0
873,71.0,0,119,5.0,76.0
874,64.0,0,119,11.0,76.0
875,52.0,0,224,13.0,76.0
876,52.0,240,224,14.0,76.0
877,75.0,0,119,11.0,76.0
878,78.0,0,119,10.0,76.0
879,78.0,120,119,4.0,76.0
880,78.0,0,119,5.0,76.0
881,64.0,0,119,12.0,76.0
882,64.0,0,224,14.0,76.0
883,64.0,120,224,13.0,76.0
884,63.0,120,119,12.0,76.0
885,64.0,0,224,12.0,76.0
886,79.0,0,464,4.0,76.0
887,79.0,0,464,10.0,76.0
888,76.0,0,464,11.0,76.0
889,79.0,0,464,5.0,76.0
890,59.0,120,239,13.0,76.0
891,59.0,0,239,14.0,76.0
892,66.0,0,224,12.0,76.0
893,75.0,0,224,11.0,76.0
894,78.0,0,224,5.0,76.0
895,78.0,240,224,10.0,76.0
896,78.0,0,224,4.0,76.0
897,57.0,0,239,14.0,76.0
898,57.0,0,239,13.0,76.0
899,64.0,240,119,4.0,76.0
900,64.0,0,119,5.0,76.0
901,64.0,0,119,10.0,76.0
902,59.0,0,224,12.0,76.0
903,55.0,0,224,13.0,76.0
904,55.0,0,224,14.0,76.0
905,76.0,0,224,11.0,76.0
906,75.0,120,119,10.0,76.0
907,75.0,0,119,5.0,76.0
908,75.0,0,119,4.0,76.0
909,49.0,0,104,13.0,76.0
910,49.0,0,104,14.0,76.0
911,64.0,0,104,12.0,76.0
912,70.0,120,104,11.0,76.0
913,62.0,0,104,12.0,76.0
914,71.0,0,104,11.0,76.0
915,47.0,0,104,13.0,76.0
916,47.0,120,104,14.0,76.0
917,70.0,0,224,11.0,76.0
918,76.0,0,464,10.0,76.0
919,76.0,0,464,5.0,76.0
920,76.0,0,464,4.0,76.0
921,49.0,120,239,13.0,76.0
922,49.0,0,239,14.0,76.0
923,64.0,0,239,12.0,76.0
924,70.0,0,104,4.0,76.0
925,70.0,240,104,10.0,76.0
926,70.0,0,104,5.0,76.0
927,71.0,0,104,5.0,76.0
928,71.0,0,104,4.0,76.0
929,73.0,0,224,11.0,76.0
930,71.0,120,104,10.0,76.0
931,73.0,0,224,4.0,76.0
932,73.0,0,224,5.0,76.0
933,66.0,0,224,11.0,76.0
934,73.0,120,224,10.0,76.0
935,58.0,0,104,13.0,76.0
936,61.0,0,104,12.0,76.0
937,58.0,0,104,14.0,76.0
938,76.0,0,224,4.0,76.0
939,76.0,240,224,5.0,76.0
940,59.0,0,104,12.0,76.0
941,56.0,120,104,14.0,76.0
942,76.0,0,224,10.0,76.0
943,73.0,0,224,11.0,76.0
944,56.0,0,104,13.0,76.0
945,76.0,0,224,11.0,76.0
946,58.0,0,239,14.0,76.0
947,79.0,0,239,4.0,76.0
948,61.0,120,239,12.0,76.0
949,79.0,0,239,5.0,76.0
950,79.0,0,239,10.0,76.0
951,58.0,0,239,13.0,76.0
952,66.0,0,104,11.0,76.0
953,68.0,120,104,11.0,76.0
954,78.0,240,224,5.0,76.0
955,78.0,0,224,10.0,76.0
956,78.0,0,224,4.0,76.0
957,66.0,120,224,5.0,76.0
958,66.0,0,224,4.0,76.0
959,66.0,0,224,10.0,76.0
960,70.0,0,224,11.0,76.0
961,70.0,0,104,12.0,76.0
962,54.0,0,104,13.0,76.0
963,54.0,0,104,14.0,76.0
964,52.0,0,104,14.0,76.0
965,68.0,120,104,12.0,76.0
966,73.0,240,224,5.0,76.0
967,73.0,0,224,4.0,76.0
968,66.0,0,224,11.0,76.0
969,52.0,0,104,13.0,76.0
970,73.0,0,224,10.0,76.0
971,73.0,0,224,11.0,76.0
972,54.0,0,224,13.0,76.0
973,54.0,0,224,14.0,76.0
974,70.0,120,224,12.0,76.0
975,76.0,0,239,4.0,76.0
976,76.0,0,239,5.0,76.0
977,76.0,0,239,10.0,76.0
978,74.0,0,224,5.0,76.0
979,55.0,0,224,13.0,76.0
980,71.0,240,224,11.0,76.0
981,74.0,0,224,4.0,76.0
982,74.0,0,224,10.0,76.0
983,55.0,0,224,14.0,76.0
984,71.0,0,224,12.0,76.0
985,50.0,0,104,14.0,76.0
986,50.0,240,104,13.0,76.0
987,83.0,0,224,10.0,76.0
988,66.0,0,224,12.0,76.0
989,71.0,0,224,11.0,76.0
990,49.0,120,104,13.0,76.0
991,83.0,0,224,4.0,76.0
992,49.0,0,104,14.0,76.0
993,83.0,0,224,5.0,76.0
994,74.0,0,104,11.0,76.0
995,78.0,0,104,4.0,76.0
996,78.0,0,104,5.0,76.0
997,78.0,0,104,10.0,76.0
998,50.0,0,104,14.0,76.0
999,50.0,120,104,13.0,76.0
1000,73.0,0,104,11.0,76.0
1001,71.0,0,224,12.0,76.0
1002,76.0,0,104,4.0,76.0
1003,52.0,0,104,14.0,76.0
1004,76.0,120,104,5.0,76.0
1005,76.0,0,104,10.0,76.0
1006,52.0,0,104,13.0,76.0
1007,54.0,0,224,13.0,76.0
1008,54.0,0,224,14.0,76.0
1009,74.0,0,224,10.0,76.0
1010,74.0,0,224,5.0,76.0
1011,74.0,120,224,4.0,76.0
1012,71.0,0,224,11.0,76.0
1013,66.0,0,224,12.0,76.0
1014,73.0,0,224,4.0,76.0
1015,42.0,0,224,13.0,76.0
1016,64.0,0,224,12.0,76.0
1017,70.0,0,224,11.0,76.0
1018,73.0,0,224,10.0,76.0
1019,42.0,240,224,14.0,76.0
1020,73.0,0,224,5.0,76.0
1021,47.0,0,224,14.0,76.0
1022,62.0,0,224,12.0,76.0
1023,47.0,0,224,13.0,76.0
1024,62.0,240,104,12.0,76.0
1025,59.0,0,104,14.0,76.0
1026,59.0,0,104,13.0,76.0
1027,58.0,0,104,14.0,76.0
1028,61.0,0,104,12.0,76.0
1029,58.0,120,104,13.0,76.0
1030,71.0,0,704,10.0,76.0
1031,66.0,0,704,11.0,76.0
1032,71.0,240,704,4.0,76.0
1033,71.0,0,704,5.0,76.0
1034,59.0,120,239,13.0,76.0
1035,59.0,0,239,14.0,76.0
1036,62.0,0,239,12.0,76.0
1037,66.0,0,104,4.0,76.0
1038,66.0,0,104,10.0,76.0
1039,62.0,0,104,11.0,76.0
1040,66.0,240,104,5.0,76.0
1041,64.0,0,104,11.0,76.0
1042,67.0,120,104,5.0,76.0
1043,67.0,0,104,10.0,76.0
1044,67.0,0,104,4.0,76.0
1045,69.0,0,224,4.0,76.0
1046,69.0,0,224,10.0,76.0
1047,66.0,120,224,11.0,76.0
1048,69.0,0,224,5.0,76.0
1049,54.0,0,104,14.0,76.0
1050,57.0,0,104,12.0,76.0
1051,54.0,0,104,13.0,76.0
1052,50.0,0,119,3.0,76.0
1053,59.0,0,104,12.0,76.0
1054,69.0,0,224,0.0,76.0
1055,74.0,0,224,5.0,76.0
1056,74.0,240,224,10.0,76.0
1057,55.0,0,104,13.0,76.0
1058,62.0,0,224,2.0,76.0
1059,62.0,0,224,11.0,76.0
1060,66.0,0,224,1.0,76.0
1061,55.0,120,104,14.0,76.0
1062,74.0,0,224,4.0,76.0
1063,50.0,0,119,3.0,76.0
1064,66.0,0,239,4.0,76.0
1065,66.0,0,239,5.0,76.0
1066,57.0,0,239,13.0,76.0
1067,69.0,0,239,11.0,76.0
1068,60.0,0,239,12.0,76.0
1069,50.0,0,239,3.0,76.0
1070,66.0,0,239,10.0,76.0
1071,62.0,0,239,1.0,76.0
1072,57.0,120,239,14.0,76.0
1073,74.0,0,239,0.0,76.0
1074,69.0,0,239,2.0,76.0
1075,64.0,0,239,4.0,76.0
1076,71.0,240,239,11.0,76.0
1077,64.0,0,239,5.0,76.0
1078,64.0,0,239,10.0,76.0
1079,62.0,0,224,10.0,76.0
1080,62.0,0,224,5.0,76.0
1081,72.0,0,224,11.0,76.0
1082,62.0,240,224,4.0,76.0
1083,50.0,0,104,13.0,76.0
1084,66.0,0,104,12.0,76.0
1085,50.0,0,104,14.0,76.0
1086,50.0,0,119,3.0,76.0
1087,81.0,0,224,4.0,76.0
1088,81.0,240,224,5.0,76.0
1089,69.0,0,224,0.0,76.0
1090,62.0,0,224,2.0,76.0
1091,81.0,0,224,10.0,76.0
1092,52.0,0,104,13.0,76.0
1093,52.0,0,104,14.0,76.0
1094,66.0,0,224,1.0,76.0
1095,67.0,0,104,12.0,76.0
1096,62.0,0,224,11.0,76.0
1097,50.0,120,119,3.0,76.0
1098,72.0,0,239,4.0,76.0
1099,62.0,0,239,2.0,76.0
1100,69.0,0,239,1.0,76.0
1101,69.0,120,239,11.0,76.0
1102,54.0,0,239,14.0,76.0
1103,69.0,0,239,12.0,76.0
1104,72.0,0,239,5.0,76.0
1105,74.0,0,239,0.0,76.0
1106,50.0,0,239,3.0,76.0
1107,54.0,0,239,13.0,76.0
1108,72.0,0,239,10.0,76.0
1109,71.0,0,239,5.0,76.0
1110,71.0,0,239,4.0,76.0
1111,71.0,240,239,10.0,76.0
1112,67.0,0,239,11.0,76.0
1113,72.0,240,224,10.0,76.0
1114,72.0,0,224,5.0,76.0
1115,66.0,0,224,11.0,76.0
1116,72.0,0,224,4.0,76.0
1117,78.0,0,104,0.0,76.0
1118,74.0,0,104,1.0,76.0
1119,78.0,0,104,5.0,76.0
1120,57.0,0,104,14.0,76.0
1121,57.0,0,104,13.0,76.0
1122,78.0,0,104,10.0,76.0
1123,72.0,0,104,11.0,76.0
1124,78.0,0,104,4.0,76.0
1125,50.0,240,119,3.0,76.0
1126,79.0,0,104,5.0,76.0
1127,71.0,0,104,11.0,76.0
1128,69.0,0,224,2.0,76.0
1129,79.0,0,104,10.0,76.0
1130,76.0,0,104,1.0,76.0
1131,79.0,0,104,0.0,76.0
1132,79.0,120,104,4.0,76.0
1133,55.0,0,104,13.0,76.0
1134,69.0,0,224,12.0,76.0
1135,55.0,0,104,14.0,76.0
1136,50.0,0,119,3.0,76.0
1137,81.0,0,104,0.0,76.0
1138,78.0,120,104,1.0,76.0
1139,81.0,0,224,10.0,76.0
1140,62.0,0,224,12.0,76.0
1141,81.0,0,224,5.0,76.0
1142,54.0,0,224,14.0,76.0
1143,54.0,0,224,13.0,76.0
1144,79.0,0,104,1.0,76.0
1145,74.0,0,224,2.0,76.0
1146,83.0,120,104,0.0,76.0
1147,69.0,0,224,11.0,76.0
1148,81.0,0,224,4.0,76.0
1149,50.0,0,239,3.0,76.0
1150,78.0,120,104,1.0,76.0
1151,81.0,0,104,0.0,76.0
1152,76.0,120,104,1.0,76.0
1153,72.0,0,224,5.0,76.0
1154,50.0,0,224,13.0,76.0
1155,72.0,0,224,4.0,76.0
1156,72.0,0,224,10.0,76.0
1157,83.0,0,104,0.0,76.0
1158,50.0,0,224,14.0,76.0
1159,62.0,0,224,2.0,76.0
1160,62.0,0,224,12.0,76.0
1161,66.0,0,224,11.0,76.0
1162,50.0,0,239,3.0,76.0
1163,79.0,0,104,0.0,76.0
1164,71.0,120,119,4.0,76.0
1165,71.0,0,119,10.0,76.0
1166,71.0,0,119,5.0,76.0
1167,81.0,120,104,0.0,76.0
1168,67.0,0,224,11.0,76.0
1169,43.0,0,224,14.0,76.0
1170,43.0,0,224,13.0,76.0
1171,62.0,0,224,12.0,76.0
1172,74.0,0,239,1.0,76.0
1173,69.0,0,119,4.0,76.0
1174,62.0,0,239,2.0,76.0
1175,50.0,0,239,3.0,76.0
1176,69.0,0,119,10.0,76.0
1177,69.0,0,119,5.0,76.0
1178,55.0,0,104,14.0,76.0
1179,55.0,0,104,13.0,76.0
1180,67.0,120,104,5.0,76.0
1181,67.0,0,104,4.0,76.0
1182,67.0,0,104,10.0,76.0
1183,83.0,0,104,0.0,76.0
1184,69.0,0,104,5.0,76.0
1185,59.0,0,224,12.0,76.0
1186,54.0,0,104,13.0,76.0
1187,54.0,0,104,14.0,76.0
1188,62.0,0,224,11.0,76.0
1189,69.0,0,104,4.0,76.0
1190,69.0,120,104,10.0,76.0
1191,81.0,0,104,0.0,76.0
1192,71.0,0,104,4.0,76.0
1193,71.0,0,104,10.0,76.0
1194,71.0,0,104,5.0,76.0
1195,55.0,0,224,13.0,76.0
1196,55.0,0,224,14.0,76.0
1197,74.0,0,104,4.0,76.0
1198,74.0,120,104,5.0,76.0
1199,67.0,120,224,11.0,76.0
1200,64.0,0,224,12.0,76.0
1201,74.0,0,104,10.0,76.0
1202,79.0,0,239,0.0,76.0
1203,73.0,0,104,10.0,76.0
1204,73.0,0,104,5.0,76.0
1205,73.0,0,104,4.0,76.0
1206,76.0,120,104,5.0,76.0
1207,76.0,0,104,10.0,76.0
1208,76.0,0,104,4.0,76.0
1209,64.0,0,224,12.0,76.0
1210,45.0,0,224,13.0,76.0
1211,67.0,120,224,11.0,76.0
1212,45.0,0,224,14.0,76.0
1213,74.0,120,119,10.0,76.0
1214,74.0,0,119,5.0,76.0
1215,74.0,0,119,4.0,76.0
1216,62.0,0,224,12.0,76.0
1217,47.0,0,224,13.0,76.0
1218,47.0,0,224,14.0,76.0
1219,66.0,0,224,11.0,76.0
1220,73.0,120,119,10.0,76.0
1221,73.0,0,119,5.0,76.0
1222,73.0,0,119,4.0,76.0
1223,71.0,0,104,5.0,76.0
1224,71.0,0,104,4.0,76.0
1225,59.0,0,104,14.0,76.0
1226,71.0,0,104,10.0,76.0
1227,59.0,120,104,13.0,76.0
1228,66.0,0,224,12.0,76.0
1229,73.0,0,104,10.0,76.0
1230,62.0,0,224,11.0,76.0
1231,57.0,120,104,14.0,76.0
1232,73.0,0,104,5.0,76.0
1233,73.0,0,104,4.0,76.0
1234,57.0,0,104,13.0,76.0
1235,74.0,0,104,5.0,76.0
1236,74.0,0,104,10.0,76.0
1237,74.0,0,104,4.0,76.0
1238,78.0,0,104,10.0,76.0
1239,59.0,0,224,14.0,76.0
1240,66.0,0,224,12.0,76.0
1241,74.0,0,224,11.0,76.0
1242,78.0,120,104,5.0,76.0
1243,59.0,120,224,13.0,76.0
1244,78.0,0,104,4.0,76.0
1245,76.0,0,104,4.0,76.0
1246,76.0,0,104,5.0,76.0
1247,76.0,0,104,10.0,76.0
1248,79.0,0,104,5.0,76.0
1249,69.0,0,224,12.0,76.0
1250,49.0,120,224,14.0,76.0
1251,49.0,0,224,13.0,76.0
1252,69.0,0,224,11.0,76.0
1253,79.0,120,104,4.0,76.0
1254,79.0,0,104,10.0,76.0
1255,78.0,0,119,5.0,76.0
1256,78.0,0,119,4.0,76.0
1257,78.0,120,119,10.0,76.0
1258,69.0,0,224,11.0,76.0
1259,62.0,0,224,12.0,76.0
1260,50.0,0,224,14.0,76.0
1261,50.0,0,224,13.0,76.0
1262,76.0,0,119,10.0,76.0
1263,76.0,0,119,5.0,76.0
1264,76.0,120,119,4.0,76.0
1265,62.0,0,104,14.0,76.0
1266,74.0,0,104,5.0,76.0
1267,74.0,120,104,4.0,76.0
1268,74.0,0,104,10.0,76.0
1269,62.0,0,104,13.0,76.0
1270,66.0,0,224,11.0,76.0
1271,76.0,120,104,5.0,76.0
1272,76.0,0,104,10.0,76.0
1273,57.0,0,224,12.0,76.0
1274,76.0,0,104,4.0,76.0
1275,61.0,0,104,13.0,76.0
1276,61.0,0,104,14.0,76.0
1277,78.0,0,104,10.0,76.0
1278,78.0,0,104,5.0,76.0
1279,78.0,0,104,4.0,76.0
1280,81.0,120,104,10.0,76.0
1281,62.0,0,224,12.0,76.0
1282,69.0,0,224,11.0,76.0
1283,62.0,0,224,13.0,76.0
1284,62.0,120,224,14.0,76.0
1285,81.0,0,104,5.0,76.0
1286,81.0,0,104,4.0,76.0
1287,79.0,0,104,5.0,76.0
1288,79.0,120,104,4.0,76.0
1289,79.0,0,104,10.0,76.0
1290,73.0,0,224,11.0,76.0
1291,52.0,0,224,14.0,76.0
1292,52.0,0,224,13.0,76.0
1293,83.0,0,104,4.0,76.0
1294,83.0,0,104,10.0,76.0
1295,83.0,120,104,5.0,76.0
1296,67.0,0,224,12.0,76.0
1297,74.0,0,104,11.0,76.0
1298,54.0,120,224,14.0,76.0
1299,76.0,120,104,11.0,76.0
1300,81.0,0,224,5.0,76.0
1301,81.0,0,224,10.0,76.0
1302,81.0,0,224,4.0,76.0
1303,54.0,0,224,13.0,76.0
1304,66.0,0,224,12.0,76.0
1305,74.0,0,104,11.0,76.0
1306,80.0,0,119,10.0,76.0
1307,80.0,0,119,4.0,76.0
1308,80.0,0,119,5.0,76.0
1309,73.0,0,104,11.0,76.0
1310,62.0,0,224,12.0,76.0
1311,59.0,120,224,13.0,76.0
1312,59.0,0,224,14.0,76.0
1313,81.0,0,119,10.0,76.0
1314,81.0,0,119,4.0,76.0
1315,81.0,120,119,5.0,76.0
1316,57.0,0,119,14.0,76.0
1317,57.0,0,119,13.0,76.0
1318,56.0,0,104,14.0,76.0
1319,83.0,0,224,4.0,76.0
1320,83.0,120,224,5.0,76.0
1321,56.0,120,104,13.0,76.0
1322,71.0,0,224,11.0,76.0
1323,83.0,0,224,10.0,76.0
1324,62.0,0,224,12.0,76.0
1325,54.0,0,119,13.0,76.0
1326,54.0,0,119,14.0,76.0
1327,68.0,120,224,11.0,76.0
1328,74.0,0,224,10.0,76.0
1329,64.0,0,224,12.0,76.0
1330,74.0,0,224,5.0,76.0
1331,52.0,0,104,13.0,76.0
1332,74.0,0,224,4.0,76.0
1333,52.0,120,104,14.0,76.0
1334,73.0,0,104,10.0,76.0
1335,73.0,0,104,5.0,76.0
1336,73.0,0,104,4.0,76.0
1337,57.0,0,224,13.0,76.0
1338,57.0,0,224,14.0,76.0
1339,74.0,120,104,4.0,76.0
1340,74.0,0,104,5.0,76.0
1341,69.0,0,224,11.0,76.0
1342,74.0,0,104,10.0,76.0
1343,64.0,120,224,12.0,76.0
1344,73.0,0,104,10.0,76.0
1345,73.0,0,104,5.0,76.0
1346,73.0,120,104,4.0,76.0
1347,71.0,0,104,5.0,76.0
1348,55.0,0,224,14.0,76.0
1349,71.0,120,104,10.0,76.0
1350,55.0,0,224,13.0,76.0
1351,64.0,0,224,11.0,76.0
1352,71.0,0,104,4.0,76.0
1353,57.0,0,224,12.0,76.0
1354,69.0,0,104,10.0,76.0
1355,69.0,120,104,4.0,76.0
1356,69.0,0,104,5.0,76.0
1357,62.0,0,224,12.0,76.0
1358,71.0,120,104,10.0,76.0
1359,66.0,0,224,11.0,76.0
1360,54.0,0,224,14.0,76.0
1361,71.0,0,104,5.0,76.0
1362,54.0,0,224,13.0,76.0
1363,71.0,0,104,4.0,76.0
1364,73.0,0,104,5.0,76.0
1365,73.0,0,104,4.0,76.0
1366,73.0,0,104,10.0,76.0
1367,69.0,120,104,10.0,76.0
1368,69.0,0,104,4.0,76.0
1369,64.0,0,224,12.0,76.0
1370,52.0,0,224,13.0,76.0
1371,52.0,120,224,14.0,76.0
1372,69.0,0,104,5.0,76.0
1373,67.0,0,224,11.0,76.0
1374,66.0,0,119,5.0,76.0
1375,66.0,120,119,10.0,76.0
1376,69.0,0,119,11.0,76.0
1377,66.0,0,119,4.0,76.0
1378,66.0,0,224,12.0,76.0
1379,50.0,0,224,14.0,76.0
1380,50.0,0,224,13.0,76.0
1381,73.0,0,119,4.0,76.0
1382,73.0,0,119,5.0,76.0
1383,73.0,120,119,10.0,76.0
1384,64.0,0,119,11.0,76.0
1385,59.0,0,104,14.0,76.0
1386,59.0,120,104,13.0,76.0
1387,62.0,0,104,12.0,76.0
1388,50.0,0,119,3.0,76.0
1389,57.0,0,104,14.0,76.0
1390,61.0,120,104,12.0,76.0
1391,74.0,0,224,1.0,76.0
1392,78.0,0,224,0.0,76.0
1393,57.0,0,104,13.0,76.0
1394,66.0,0,224,2.0,76.0
1395,50.0,0,119,3.0,76.0
1396,74.0,0,464,10.0,76.0
1397,74.0,0,464,4.0,76.0
1398,74.0,0,464,5.0,76.0
1399,66.0,0,464,11.0,76.0
1400,59.0,0,239,14.0,76.0
1401,59.0,0,239,13.0,76.0
1402,62.0,120,239,2.0,76.0
1403,78.0,0,239,1.0,76.0
1404,50.0,0,239,3.0,76.0
1405,83.0,0,239,0.0,76.0
1406,62.0,0,239,12.0,76.0
1407,71.0,240,104,11.0,76.0
1408,69.0,120,104,11.0,76.0
1409,78.0,0,224,5.0,76.0
1410,78.0,0,224,10.0,76.0
1411,78.0,0,224,4.0,76.0
1412,83.0,120,119,5.0,76.0
1413,68.0,0,119,11.0,76.0
1414,83.0,0,119,10.0,76.0
1415,83.0,0,119,4.0,76.0
1416,73.0,120,119,4.0,76.0
1417,69.0,0,119,11.0,76.0
1418,73.0,0,119,5.0,76.0
1419,73.0,0,119,10.0,76.0
1420,64.0,0,104,12.0,76.0
1421,56.0,120,104,14.0,76.0
1422,56.0,0,104,13.0,76.0
1423,50.0,0,119,3.0,76.0
1424,54.0,0,104,13.0,76.0
1425,83.0,0,224,0.0,76.0
1426,62.0,0,104,12.0,76.0
1427,54.0,120,104,14.0,76.0
1428,74.0,0,224,2.0,76.0
1429,76.0,0,224,1.0,76.0
1430,50.0,0,119,3.0,76.0
1431,56.0,0,224,14.0,76.0
1432,56.0,0,224,13.0,76.0
1433,74.0,0,464,10.0,76.0
1434,71.0,0,464,11.0,76.0
1435,74.0,0,464,5.0,76.0
1436,64.0,0,224,12.0,76.0
1437,74.0,0,464,4.0,76.0
1438,50.0,0,239,3.0,76.0
1439,86.0,0,239,0.0,76.0
1440,76.0,0,239,2.0,76.0
1441,83.0,120,239,1.0,76.0
1442,73.0,0,104,10.0,76.0
1443,73.0,240,104,4.0,76.0
1444,73.0,0,104,5.0,76.0
1445,52.0,0,224,13.0,76.0
1446,68.0,0,224,11.0,76.0
1447,64.0,0,224,12.0,76.0
1448,71.0,0,104,10.0,76.0
1449,71.0,0,104,4.0,76.0
1450,71.0,120,104,5.0,76.0
1451,52.0,0,224,14.0,76.0
1452,73.0,0,104,5.0,76.0
1453,73.0,0,104,4.0,76.0
1454,57.0,0,104,14.0,76.0
1455,73.0,0,104,10.0,76.0
1456,57.0,120,104,13.0,76.0
1457,69.0,0,104,5.0,76.0
1458,55.0,0,104,13.0,76.0
1459,55.0,0,104,14.0,76.0
1460,64.0,0,224,12.0,76.0
1461,69.0,120,104,4.0,76.0
1462,69.0,0,104,10.0,76.0
1463,69.0,0,224,11.0,76.0
1464,62.0,0,104,12.0,76.0
1465,78.0,0,104,1.0,76.0
1466,69.0,0,104,2.0,76.0
1467,54.0,0,104,14.0,76.0
1468,54.0,0,104,13.0,76.0
1469,81.0,0,104,0.0,76.0
1470,50.0,0,119,3.0,76.0
1471,69.0,0,104,2.0,76.0
1472,55.0,0,104,14.0,76.0
1473,79.0,0,104,0.0,76.0
1474,55.0,0,104,13.0,76.0
1475,81.0,120,224,5.0,76.0
1476,69.0,0,224,11.0,76.0
1477,64.0,0,104,12.0,76.0
1478,81.0,0,224,4.0,76.0
1479,81.0,0,224,10.0,76.0
1480,76.0,120,104,1.0,76.0
1481,50.0,0,119,3.0,76.0
1482,78.0,0,104,0.0,76.0
1483,74.0,0,224,4.0,76.0
1484,66.0,0,224,12.0,76.0
1485,69.0,120,224,11.0,76.0
1486,69.0,0,224,2.0,76.0
1487,57.0,0,224,13.0,76.0
1488,79.0,120,104,0.0,76.0
1489,74.0,0,224,10.0,76.0
1490,74.0,0,224,5.0,76.0
1491,74.0,0,224,1.0,76.0
1492,57.0,0,224,14.0,76.0
1493,45.0,0,239,3.0,76.0
1494,76.0,0,104,10.0,76.0
1495,76.0,0,104,5.0,76.0
1496,81.0,120,104,0.0,76.0
1497,76.0,0,104,4.0,76.0
1498,73.0,0,104,4.0,76.0
1499,64.0,0,224,12.0,76.0
1500,69.0,0,224,2.0,76.0
1501,45.0,0,224,14.0,76.0
1502,73.0,120,104,5.0,76.0
1503,69.0,0,224,11.0,76.0
1504,45.0,0,224,13.0,76.0
1505,73.0,0,104,10.0,76.0
1506,79.0,0,104,0.0,76.0
1507,76.0,0,224,1.0,76.0
1508,45.0,0,239,3.0,76.0
1509,69.0,0,704,11.0,76.0
1510,74.0,0,704,5.0,76.0
1511,74.0,0,704,10.0,76.0
1512,74.0,0,704,4.0,76.0
1513,66.0,0,719,12.0,76.0
1514,69.0,0,719,2.0,76.0
1515,50.0,0,719,14.0,76.0
1516,74.0,0,719,1.0,76.0
1517,78.0,0,719,0.0,76.0
1518,50.0,120,719,3.0,76.0
1519,50.0,0,719,13.0,76.0
1520,73.0,0,104,4.0,76.0
1521,73.0,0,104,5.0,76.0
1522,73.0,0,104,10.0,76.0
1523,69.0,720,104,11.0,76.0
1524,74.0,0,104,4.0,76.0
1525,71.0,0,104,11.0,76.0
1526,74.0,120,104,5.0,76.0
1527,74.0,0,104,10.0,76.0
1528,76.0,120,224,10.0,76.0
1529,73.0,0,224,11.0,76.0
1530,76.0,0,224,5.0,76.0
1531,76.0,0,224,4.0,76.0
1532,73.0,0,104,12.0,76.0
1533,57.0,0,104,14.0,76.0
1534,57.0,240,104,13.0,76.0
1535,69.0,0,104,2.0,76.0
1536,45.0,0,119,3.0,76.0
1537,56.0,0,104,14.0,76.0
1538,69.0,0,224,1.0,76.0
1539,76.0,0,224,11.0,76.0
1540,69.0,120,104,2.0,76.0
1541,81.0,0,224,10.0,76.0
1542,71.0,0,104,12.0,76.0
1543,76.0,0,224,0.0,76.0
1544,81.0,0,224,4.0,76.0
1545,81.0,0,224,5.0,76.0
1546,56.0,0,104,13.0,76.0
1547,45.0,0,119,3.0,76.0
1548,73.0,0,224,11.0,76.0
1549,76.0,0,239,10.0,76.0
1550,45.0,0,239,3.0,76.0
1551,76.0,0,239,4.0,76.0
1552,57.0,0,239,14.0,76.0
1553,76.0,0,239,5.0,76.0
1554,76.0,0,239,1.0,76.0
1555,57.0,0,239,13.0,76.0
1556,69.0,120,239,2.0,76.0
1557,81.0,0,239,0.0,76.0
1558,73.0,0,239,12.0,76.0
1559,68.0,0,224,11.0,76.0
1560,74.0,0,239,4.0,76.0
1561,74.0,240,239,10.0,76.0
1562,74.0,0,239,5.0,76.0
1563,69.0,0,224,11.0,76.0
1564,73.0,240,224,10.0,76.0
1565,73.0,0,224,4.0,76.0
1566,73.0,0,224,5.0,76.0
1567,64.0,0,104,12.0,76.0
1568,69.0,0,104,2.0,76.0
1569,55.0,0,104,13.0,76.0
1570,55.0,0,104,14.0,76.0
1571,45.0,240,119,3.0,76.0
1572,69.0,0,224,1.0,76.0
1573,54.0,0,104,14.0,76.0
1574,62.0,120,104,12.0,76.0
1575,54.0,0,104,13.0,76.0
1576,81.0,0,224,5.0,76.0
1577,81.0,0,224,10.0,76.0
1578,73.0,0,224,11.0,76.0
1579,81.0,0,224,4.0,76.0
1580,76.0,0,224,0.0,76.0
1581,69.0,0,104,2.0,76.0
1582,45.0,0,119,3.0,76.0
1583,69.0,0,224,11.0,76.0
1584,55.0,0,239,14.0,76.0
1585,81.0,0,239,0.0,76.0
1586,69.0,0,239,2.0,76.0
1587,76.0,0,239,1.0,76.0
1588,73.0,120,239,4.0,76.0
1589,45.0,0,239,3.0,76.0
1590,55.0,0,239,13.0,76.0
1591,73.0,0,239,5.0,76.0
1592,64.0,0,239,12.0,76.0
1593,73.0,0,239,10.0,76.0
1594,64.0,240,224,11.0,76.0
1595,71.0,0,239,5.0,76.0
1596,71.0,0,239,10.0,76.0
1597,71.0,0,239,4.0,76.0
1598,69.0,0,224,5.0,76.0
1599,69.0,0,224,10.0,76.0
1600,66.0,240,224,11.0,76.0
1601,69.0,0,224,4.0,76.0
1602,74.0,0,224,5.0,76.0
1603,74.0,0,224,0.0,76.0
1604,74.0,0,224,2.0,76.0
1605,62.0,0,224,12.0,76.0
1606,74.0,0,224,10.0,76.0
1607,54.0,0,224,13.0,76.0
1608,54.0,0,224,14.0,76.0
1609,78.0,0,224,1.0,76.0
1610,69.0,0,224,11.0,76.0
1611,74.0,240,224,4.0,76.0
1612,50.0,0,239,3.0,76.0
1613,62.0,0,224,12.0,76.0
1614,79.0,0,224,0.0,76.0
1615,52.0,0,224,14.0,76.0
1616,76.0,0,224,1.0,76.0
1617,79.0,0,224,5.0,76.0
1618,52.0,0,224,13.0,76.0
1619,79.0,0,224,4.0,76.0
1620,71.0,0,224,11.0,76.0
1621,74.0,0,224,2.0,76.0
1622,79.0,0,224,10.0,76.0
1623,50.0,240,239,3.0,76.0
1624,78.0,0,104,5.0,76.0
1625,78.0,0,104,4.0,76.0
1626,78.0,0,104,0.0,76.0
1627,78.0,0,104,10.0,76.0
1628,76.0,0,104,0.0,76.0
1629,61.0,0,224,12.0,76.0
1630,76.0,120,104,5.0,76.0
1631,69.0,0,224,11.0,76.0
1632,76.0,0,104,4.0,76.0
1633,57.0,0,224,13.0,76.0
1634,57.0,0,224,14.0,76.0
1635,69.0,0,224,2.0,76.0
1636,76.0,240,224,1.0,76.0
1637,76.0,0,104,10.0,76.0
1638,45.0,0,239,3.0,76.0
1639,78.0,0,104,5.0,76.0
1640,78.0,0,104,0.0,76.0
1641,78.0,0,104,10.0,76.0
1642,78.0,120,104,4.0,76.0
1643,79.0,0,104,0.0,76.0
1644,79.0,120,104,10.0,76.0
1645,74.0,0,224,1.0,76.0
1646,79.0,0,104,4.0,76.0
1647,62.0,0,224,12.0,76.0
1648,69.0,0,224,2.0,76.0
1649,50.0,0,224,14.0,76.0
1650,50.0,0,224,13.0,76.0
1651,79.0,0,104,5.0,76.0
1652,50.0,0,239,3.0,76.0
1653,62.0,0,104,12.0,76.0
1654,78.0,0,104,10.0,76.0
1655,78.0,0,104,5.0,76.0
1656,78.0,0,104,0.0,76.0
1657,62.0,120,104,14.0,76.0
1658,69.0,0,104,2.0,76.0
1659,78.0,0,104,4.0,76.0
1660,62.0,0,104,13.0,76.0
1661,74.0,0,104,1.0,76.0
1662,50.0,0,119,3.0,76.0
1663,76.0,0,104,5.0,76.0
1664,69.0,0,464,11.0,76.0
1665,61.0,0,104,14.0,76.0
1666,76.0,0,104,10.0,76.0
1667,61.0,120,104,13.0,76.0
1668,76.0,0,104,0.0,76.0
1669,69.0,0,104,2.0,76.0
1670,76.0,0,104,4.0,76.0
1671,64.0,0,104,12.0,76.0
1672,74.0,0,104,1.0,76.0
1673,50.0,0,119,3.0,76.0
1674,74.0,0,104,5.0,76.0
1675,74.0,0,104,4.0,76.0
1676,74.0,0,104,10.0,76.0
1677,69.0,0,224,11.0,76.0
1678,62.0,0,224,13.0,76.0
1679,76.0,0,104,10.0,76.0
1680,76.0,120,104,4.0,76.0
1681,62.0,0,224,14.0,76.0
1682,76.0,0,104,5.0,76.0
1683,74.0,0,239,0.0,76.0
1684,66.0,0,239,2.0,76.0
1685,66.0,120,239,12.0,76.0
1686,50.0,0,239,3.0,76.0
1687,69.0,0,239,1.0,76.0
1688,78.0,120,104,10.0,76.0
1689,78.0,0,104,4.0,76.0
1690,78.0,0,104,5.0,76.0
1691,74.0,0,104,10.0,76.0
1692,69.0,0,224,11.0,76.0
1693,74.0,120,104,5.0,76.0
1694,50.0,0,224,14.0,76.0
1695,74.0,0,104,4.0,76.0
1696,50.0,0,224,13.0,76.0
1697,71.0,0,119,11.0,76.0
1698,71.0,0,119,5.0,76.0
1699,71.0,0,119,4.0,76.0
1700,71.0,120,119,10.0,76.0
1701,55.0,0,224,14.0,76.0
1702,55.0,0,224,13.0,76.0
1703,78.0,0,119,10.0,76.0
1704,75.0,120,119,11.0,76.0
1705,78.0,0,119,5.0,76.0
1706,78.0,0,119,4.0,76.0
1707,64.0,0,119,12.0,76.0
1708,59.0,0,224,13.0,76.0
1709,59.0,120,224,14.0,76.0
1710,63.0,120,119,12.0,76.0
1711,79.0,0,464,4.0,76.0
1712,76.0,0,464,11.0,76.0
1713,79.0,0,464,5.0,76.0
1714,79.0,0,464,10.0,76.0
1715,52.0,0,239,13.0,76.0
1716,52.0,0,239,14.0,76.0
1717,64.0,120,239,12.0,76.0
1718,71.0,240,224,11.0,76.0
1719,78.0,0,224,4.0,76.0
1720,78.0,0,224,10.0,76.0
1721,78.0,0,224,5.0,76.0
1722,50.0,0,239,14.0,76.0
1723,50.0,0,239,13.0,76.0
1724,67.0,0,119,10.0,76.0
1725,69.0,0,119,11.0,76.0
1726,67.0,0,119,5.0,76.0
1727,67.0,0,119,4.0,76.0
1728,48.0,0,224,13.0,76.0
1729,48.0,240,224,14.0,76.0
1730,75.0,0,119,10.0,76.0
1731,66.0,0,119,11.0,76.0
1732,75.0,0,119,5.0,76.0
1733,75.0,120,119,4.0,76.0
1734,64.0,0,119,12.0,76.0
1735,60.0,120,224,13.0,76.0
1736,60.0,0,224,14.0,76.0
1737,63.0,120,119,12.0,76.0
1738,76.0,0,464,4.0,76.0
1739,76.0,0,464,5.0,76.0
1740,76.0,0,464,10.0,76.0
1741,67.0,0,464,11.0,76.0
1742,55.0,120,239,14.0,76.0
1743,64.0,0,239,12.0,76.0
1744,55.0,0,239,13.0,76.0
1745,63.0,0,224,11.0,76.0
1746,78.0,240,224,10.0,76.0
1747,78.0,0,224,4.0,76.0
1748,78.0,0,224,5.0,76.0
1749,54.0,0,239,13.0,76.0
1750,54.0,0,239,14.0,76.0
1751,71.0,0,119,10.0,76.0
1752,71.0,0,119,4.0,76.0
1753,71.0,0,119,5.0,76.0
1754,64.0,0,119,11.0,76.0
1755,52.0,240,224,13.0,76.0
1756,52.0,0,224,14.0,76.0
1757,75.0,0,119,11.0,76.0
1758,78.0,120,119,10.0,76.0
1759,78.0,0,119,4.0,76.0
1760,78.0,0,119,5.0,76.0
1761,64.0,0,119,12.0,76.0
1762,64.0,0,224,13.0,76.0
1763,64.0,120,224,14.0,76.0
1764,63.0,120,119,12.0,76.0
1765,79.0,0,464,4.0,76.0
1766,64.0,0,224,12.0,76.0
1767,79.0,0,464,10.0,76.0
1768,79.0,0,464,5.0,76.0
1769,76.0,0,464,11.0,76.0
1770,59.0,120,239,13.0,76.0
1771,59.0,0,239,14.0,76.0
1772,66.0,0,224,12.0,76.0
1773,78.0,0,224,4.0,76.0
1774,75.0,0,224,11.0,76.0
1775,78.0,0,224,5.0,76.0
1776,78.0,240,224,10.0,76.0
1777,57.0,0,239,13.0,76.0
1778,57.0,0,239,14.0,76.0
1779,64.0,0,119,10.0,76.0
1780,64.0,0,119,4.0,76.0
1781,64.0,240,119,5.0,76.0
1782,55.0,0,224,14.0,76.0
1783,59.0,0,224,12.0,76.0
1784,76.0,0,224,11.0,76.0
1785,55.0,0,224,13.0,76.0
1786,75.0,0,119,5.0,76.0
1787,75.0,0,119,4.0,76.0
1788,75.0,120,119,10.0,76.0
1789,70.0,0,104,11.0,76.0
1790,64.0,0,104,12.0,76.0
1791,49.0,0,104,13.0,76.0
1792,49.0,0,104,14.0,76.0
1793,47.0,0,104,13.0,76.0
1794,62.0,120,104,12.0,76.0
1795,71.0,0,104,11.0,76.0
1796,47.0,0,104,14.0,76.0
1797,76.0,0,464,10.0,76.0
1798,70.0,0,224,11.0,76.0
1799,76.0,0,464,5.0,76.0
1800,76.0,120,464,4.0,76.0
1801,49.0,0,239,13.0,76.0
1802,49.0,120,239,14.0,76.0
1803,64.0,0,239,12.0,76.0
1804,70.0,240,104,5.0,76.0
1805,70.0,0,104,4.0,76.0
1806,70.0,0,104,10.0,76.0
1807,73.0,0,224,11.0,76.0
1808,71.0,120,104,10.0,76.0
1809,71.0,0,104,4.0,76.0
1810,71.0,0,104,5.0,76.0
1811,73.0,0,224,4.0,76.0
1812,73.0,0,224,10.0,76.0
1813,73.0,120,224,5.0,76.0
1814,66.0,0,224,11.0,76.0
1815,61.0,0,104,12.0,76.0
1816,58.0,0,104,13.0,76.0
1817,58.0,0,104,14.0,76.0
1818,76.0,0,224,4.0,76.0
1819,73.0,0,224,11.0,76.0
1820,76.0,0,224,10.0,76.0
1821,76.0,240,224,5.0,76.0
1822,56.0,0,104,14.0,76.0
1823,56.0,0,104,13.0,76.0
1824,59.0,120,104,12.0,76.0
1825,76.0,0,224,11.0,76.0
1826,58.0,0,239,13.0,76.0
1827,79.0,0,239,4.0,76.0
1828,58.0,0,239,14.0,76.0
1829,79.0,120,239,5.0,76.0
1830,61.0,0,239,12.0,76.0
1831,79.0,0,239,10.0,76.0
1832,66.0,240,104,11.0,76.0
1833,78.0,0,224,10.0,76.0
1834,68.0,120,104,11.0,76.0
1835,78.0,0,224,5.0,76.0
1836,78.0,0,224,4.0,76.0
1837,66.0,0,224,4.0,76.0
1838,70.0,120,224,11.0,76.0
1839,66.0,0,224,5.0,76.0
1840,66.0,0,224,10.0,76.0
1841,54.0,0,104,13.0,76.0
1842,70.0,0,104,12.0,76.0
1843,54.0,240,104,14.0,76.0
1844,73.0,0,224,10.0,76.0
1845,66.0,0,224,11.0,76.0
1846,52.0,120,104,14.0,76.0
1847,68.0,0,104,12.0,76.0
1848,73.0,0,224,5.0,76.0
1849,52.0,0,104,13.0,76.0
1850,73.0,0,224,4.0,76.0
1851,54.0,0,224,13.0,76.0
1852,70.0,0,224,12.0,76.0
1853,54.0,0,224,14.0,76.0
1854,73.0,120,224,11.0,76.0
1855,76.0,0,239,10.0,76.0
1856,76.0,0,239,4.0,76.0
1857,76.0,0,239,5.0,76.0
1858,74.0,240,224,5.0,76.0
1859,71.0,0,224,12.0,76.0
1860,74.0,0,224,4.0,76.0
1861,55.0,0,224,13.0,76.0
1862,55.0,0,224,14.0,76.0
1863,71.0,0,224,11.0,76.0
1864,74.0,0,224,10.0,76.0
1865,50.0,0,104,13.0,76.0
1866,50.0,0,104,14.0,76.0
1867,83.0,0,224,5.0,76.0
1868,83.0,240,224,4.0,76.0
1869,71.0,0,224,11.0,76.0
1870,66.0,0,224,12.0,76.0
1871,49.0,120,104,14.0,76.0
1872,83.0,0,224,10.0,76.0
1873,49.0,0,104,13.0,76.0
1874,74.0,0,104,11.0,76.0
1875,78.0,0,104,4.0,76.0
1876,50.0,0,104,13.0,76.0
1877,78.0,0,104,5.0,76.0
1878,50.0,0,104,14.0,76.0
1879,78.0,120,104,10.0,76.0
1880,52.0,0,104,14.0,76.0
1881,71.0,0,224,12.0,76.0
1882,76.0,0,104,10.0,76.0
1883,73.0,0,104,11.0,76.0
1884,52.0,0,104,13.0,76.0
1885,76.0,120,104,4.0,76.0
1886,76.0,0,104,5.0,76.0
1887,54.0,0,224,13.0,76.0
1888,74.0,0,224,4.0,76.0
1889,66.0,0,224,12.0,76.0
1890,54.0,0,224,14.0,76.0
1891,74.0,0,224,10.0,76.0
1892,74.0,120,224,5.0,76.0
1893,71.0,0,224,11.0,76.0
1894,42.0,0,224,14.0,76.0
1895,70.0,0,224,11.0,76.0
1896,73.0,0,224,10.0,76.0
1897,64.0,0,224,12.0,76.0
1898,73.0,0,224,5.0,76.0
1899,73.0,240,224,4.0,76.0
1900,42.0,0,224,13.0,76.0
1901,62.0,0,224,12.0,76.0
1902,47.0,0,224,13.0,76.0
1903,47.0,0,224,14.0,76.0
1904,59.0,240,104,13.0,76.0
1905,62.0,0,104,12.0,76.0
1906,59.0,0,104,14.0,76.0
1907,61.0,120,104,12.0,76.0
1908,58.0,0,104,13.0,76.0
1909,58.0,0,104,14.0,76.0
1910,71.0,0,704,10.0,76.0
1911,66.0,0,704,11.0,76.0
1912,71.0,0,704,5.0,76.0
1913,71.0,240,704,4.0,76.0
1914,62.0,120,239,12.0,76.0
1915,59.0,0,239,13.0,76.0
1916,59.0,0,239,14.0,76.0
1917,62.0,240,104,11.0,76.0
1918,66.0,0,104,4.0,76.0
1919,66.0,0,104,5.0,76.0
1920,66.0,0,104,10.0,76.0
1921,67.0,0,104,5.0,76.0
1922,67.0,0,104,4.0,76.0
1923,64.0,120,104,11.0,76.0
1924,67.0,0,104,10.0,76.0
1925,69.0,0,224,10.0,76.0
1926,66.0,0,224,11.0,76.0
1927,69.0,120,224,5.0,76.0
1928,69.0,0,224,4.0,76.0
1929,54.0,0,104,14.0,76.0
1930,57.0,0,104,12.0,76.0
1931,54.0,0,104,13.0,76.0
1932,50.0,0,119,3.0,76.0
1933,69.0,0,224,0.0,76.0
1934,55.0,0,104,13.0,76.0
1935,74.0,0,224,5.0,76.0
1936,74.0,0,224,10.0,76.0
1937,62.0,240,224,11.0,76.0
1938,62.0,0,224,2.0,76.0
1939,74.0,0,224,4.0,76.0
1940,55.0,120,104,14.0,76.0
1941,59.0,0,104,12.0,76.0
1942,66.0,0,224,1.0,76.0
1943,50.0,0,119,3.0,76.0
1944,57.0,0,239,14.0,76.0
1945,50.0,0,239,3.0,76.0
1946,66.0,0,239,10.0,76.0
1947,66.0,0,239,5.0,76.0
1948,69.0,0,239,11.0,76.0
1949,66.0,0,239,4.0,76.0
1950,62.0,120,239,1.0,76.0
1951,69.0,0,239,2.0,76.0
1952,74.0,0,239,0.0,76.0
1953,57.0,0,239,13.0,76.0
1954,60.0,0,239,12.0,76.0
1955,64.0,0,239,5.0,76.0
1956,64.0,0,239,4.0,76.0
1957,64.0,0,239,10.0,76.0
1958,71.0,240,239,11.0,76.0
1959,62.0,0,224,4.0,76.0
1960,62.0,0,224,10.0,76.0
1961,72.0,240,224,11.0,76.0
1962,62.0,0,224,5.0,76.0
1963,66.0,0,104,12.0,76.0
1964,50.0,0,104,13.0,76.0
1965,50.0,0,104,14.0,76.0
1966,50.0,0,119,3.0,76.0
1967,81.0,0,224,4.0,76.0
1968,52.0,120,104,14.0,76.0
1969,81.0,0,224,5.0,76.0
1970,67.0,0,104,12.0,76.0
1971,62.0,0,224,11.0,76.0
1972,52.0,0,104,13.0,76.0
1973,62.0,0,224,2.0,76.0
1974,69.0,0,224,0.0,76.0
1975,66.0,0,224,1.0,76.0
1976,81.0,240,224,10.0,76.0
1977,50.0,0,119,3.0,76.0
1978,69.0,0,239,12.0,76.0
1979,69.0,0,239,1.0,76.0
1980,72.0,120,239,10.0,76.0
1981,74.0,0,239,0.0,76.0
1982,54.0,0,239,14.0,76.0
1983,72.0,0,239,5.0,76.0
1984,62.0,0,239,2.0,76.0
1985,72.0,0,239,4.0,76.0
1986,50.0,0,239,3.0,76.0
1987,69.0,0,239,11.0,76.0
1988,54.0,0,239,13.0,76.0
1989,71.0,0,239,10.0,76.0
1990,71.0,240,239,4.0,76.0
1991,71.0,0,239,5.0,76.0
1992,67.0,0,239,11.0,76.0
1993,66.0,240,224,11.0,76.0
1994,72.0,0,224,4.0,76.0
1995,72.0,0,224,5.0,76.0
1996,72.0,0,224,10.0,76.0
1997,72.0,0,104,11.0,76.0
1998,78.0,0,104,10.0,76.0
1999,57.0,240,104,14.0,76.0
2000,57.0,0,104,13.0,76.0
2001,78.0,0,104,5.0,76.0
2002,78.0,0,104,4.0,76.0
2003,78.0,0,104,0.0,76.0
2004,74.0,0,104,1.0,76.0
2005,50.0,0,119,3.0,76.0
2006,69.0,0,224,2.0,76.0
2007,79.0,120,104,10.0,76.0
2008,55.0,0,104,14.0,76.0
2009,79.0,0,104,5.0,76.0
2010,79.0,0,104,4.0,76.0
2011,55.0,0,104,13.0,76.0
2012,71.0,0,104,11.0,76.0
2013,69.0,0,224,12.0,76.0
2014,76.0,0,104,1.0,76.0
2015,79.0,0,104,0.0,76.0
2016,50.0,0,119,3.0,76.0
2017,81.0,0,104,0.0,76.0
2018,78.0,120,104,1.0,76.0
2019,83.0,120,104,0.0,76.0
2020,54.0,0,224,13.0,76.0
2021,79.0,0,104,1.0,76.0
2022,81.0,0,224,10.0,76.0
2023,74.0,0,224,2.0,76.0
2024,62.0,0,224,12.0,76.0
2025,69.0,0,224,11.0,76.0
2026,81.0,0,224,4.0,76.0
2027,54.0,0,224,14.0,76.0
2028,81.0,0,224,5.0,76.0
2029,50.0,0,239,3.0,76.0
2030,78.0,0,104,1.0,76.0
2031,81.0,0,104,0.0,76.0
2032,50.0,0,224,14.0,76.0
2033,76.0,0,104,1.0,76.0
2034,72.0,0,224,4.0,76.0
2035,72.0,0,224,5.0,76.0
2036,83.0,120,104,0.0,76.0
2037,50.0,120,224,13.0,76.0
2038,66.0,0,224,11.0,76.0
2039,62.0,0,224,12.0,76.0
2040,62.0,0,224,2.0,76.0
2041,72.0,0,224,10.0,76.0
2042,50.0,0,239,3.0,76.0
2043,79.0,0,104,0.0,76.0
2044,71.0,120,119,10.0,76.0
2045,71.0,0,119,5.0,76.0
2046,71.0,0,119,4.0,76.0
2047,43.0,0,224,14.0,76.0
2048,43.0,0,224,13.0,76.0
2049,62.0,0,224,12.0,76.0
2050,81.0,0,104,0.0,76.0
2051,67.0,0,224,11.0,76.0
2052,50.0,0,239,3.0,76.0
2053,69.0,120,119,10.0,76.0
2054,74.0,0,239,1.0,76.0
2055,69.0,0,119,5.0,76.0
2056,69.0,0,119,4.0,76.0
2057,62.0,0,239,2.0,76.0
2058,55.0,120,104,14.0,76.0
2059,55.0,0,104,13.0,76.0
2060,67.0,0,104,4.0,76.0
2061,67.0,0,104,5.0,76.0
2062,67.0,0,104,10.0,76.0
2063,83.0,0,104,0.0,76.0
2064,54.0,0,104,13.0,76.0
2065,54.0,120,104,14.0,76.0
2066,59.0,0,224,12.0,76.0
2067,81.0,0,104,0.0,76.0
2068,69.0,0,104,4.0,76.0
2069,62.0,0,224,11.0,76.0
2070,69.0,0,104,5.0,76.0
2071,69.0,0,104,10.0,76.0
2072,71.0,0,104,4.0,76.0
2073,71.0,0,104,5.0,76.0
2074,71.0,0,104,10.0,76.0
2075,74.0,120,104,5.0,76.0
2076,55.0,0,224,14.0,76.0
2077,55.0,0,224,13.0,76.0
2078,64.0,120,224,12.0,76.0
2079,74.0,0,104,10.0,76.0
2080,67.0,0,224,11.0,76.0
2081,74.0,0,104,4.0,76.0
2082,79.0,0,239,0.0,76.0
2083,73.0,0,104,5.0,76.0
2084,73.0,0,104,10.0,76.0
2085,73.0,0,104,4.0,76.0
2086,64.0,0,224,12.0,76.0
2087,76.0,120,104,4.0,76.0
2088,45.0,0,224,14.0,76.0
2089,45.0,120,224,13.0,76.0
2090,76.0,0,104,5.0,76.0
2091,67.0,0,224,11.0,76.0
2092,76.0,0,104,10.0,76.0
2093,74.0,0,119,4.0,76.0
2094,74.0,0,119,10.0,76.0
2095,74.0,0,119,5.0,76.0
2096,66.0,0,224,11.0,76.0
2097,62.0,0,224,12.0,76.0
2098,47.0,0,224,14.0,76.0
2099,47.0,120,224,13.0,76.0
2100,73.0,0,119,5.0,76.0
2101,73.0,120,119,10.0,76.0
2102,73.0,0,119,4.0,76.0
2103,59.0,0,104,14.0,76.0
2104,71.0,0,104,5.0,76.0
2105,71.0,0,104,4.0,76.0
2106,71.0,0,104,10.0,76.0
2107,59.0,0,104,13.0,76.0
2108,57.0,0,104,14.0,76.0
2109,73.0,0,104,10.0,76.0
2110,62.0,120,224,11.0,76.0
2111,73.0,0,104,5.0,76.0
2112,73.0,120,104,4.0,76.0
2113,66.0,0,224,12.0,76.0
2114,57.0,0,104,13.0,76.0
2115,74.0,0,104,5.0,76.0
2116,74.0,120,104,10.0,76.0
2117,74.0,0,104,4.0,76.0
2118,74.0,0,224,11.0,76.0
2119,66.0,0,224,12.0,76.0
2120,78.0,120,104,5.0,76.0
2121,59.0,0,224,13.0,76.0
2122,59.0,0,224,14.0,76.0
2123,78.0,0,104,10.0,76.0
2124,78.0,0,104,4.0,76.0
2125,76.0,0,104,4.0,76.0
2126,76.0,120,104,10.0,76.0
2127,76.0,0,104,5.0,76.0
2128,79.0,120,104,4.0,76.0
2129,49.0,0,224,13.0,76.0
2130,69.0,0,224,12.0,76.0
2131,69.0,0,224,11.0,76.0
2132,79.0,0,104,5.0,76.0
2133,79.0,0,104,10.0,76.0
2134,49.0,0,224,14.0,76.0
2135,78.0,0,119,10.0,76.0
2136,78.0,0,119,4.0,76.0
2137,78.0,0,119,5.0,76.0
2138,69.0,0,224,11.0,76.0
2139,62.0,0,224,12.0,76.0
2140,50.0,0,224,14.0,76.0
2141,50.0,120,224,13.0,76.0
2142,76.0,0,119,5.0,76.0
2143,76.0,120,119,4.0,76.0
2144,76.0,0,119,10.0,76.0
2145,74.0,120,104,5.0,76.0
2146,74.0,0,104,4.0,76.0
2147,62.0,0,104,13.0,76.0
2148,62.0,0,104,14.0,76.0
2149,74.0,0,104,10.0,76.0
2150,61.0,120,104,13.0,76.0
2151,66.0,0,224,11.0,76.0
2152,61.0,0,104,14.0,76.0
2153,76.0,0,104,4.0,76.0
2154,76.0,0,104,5.0,76.0
2155,76.0,0,104,10.0,76.0
2156,57.0,0,224,12.0,76.0
2157,78.0,0,104,5.0,76.0
2158,78.0,120,104,10.0,76.0
2159,78.0,0,104,4.0,76.0
2160,69.0,0,224,11.0,76.0
2161,81.0,0,104,4.0,76.0
2162,62.0,0,224,12.0,76.0
2163,62.0,0,224,14.0,76.0
2164,62.0,0,224,13.0,76.0
2165,81.0,120,104,10.0,76.0
2166,81.0,0,104,5.0,76.0
2167,79.0,0,104,5.0,76.0
2168,79.0,0,104,4.0,76.0
2169,79.0,0,104,10.0,76.0
2170,52.0,0,224,13.0,76.0
2171,73.0,120,224,11.0,76.0
2172,83.0,0,104,5.0,76.0
2173,67.0,0,224,12.0,76.0
2174,83.0,0,104,10.0,76.0
2175,52.0,0,224,14.0,76.0
2176,83.0,120,104,4.0,76.0
2177,74.0,0,104,11.0,76.0
2178,76.0,120,104,11.0,76.0
2179,81.0,0,224,5.0,76.0
2180,81.0,0,224,10.0,76.0
2181,66.0,0,224,12.0,76.0
2182,54.0,120,224,13.0,76.0
2183,81.0,0,224,4.0,76.0
2184,54.0,0,224,14.0,76.0
2185,74.0,120,104,11.0,76.0
2186,80.0,0,119,5.0,76.0
2187,80.0,0,119,10.0,76.0
2188,80.0,0,119,4.0,76.0
2189,59.0,0,224,14.0,76.0
2190,62.0,0,224,12.0,76.0
2191,73.0,0,104,11.0,76.0
2192,59.0,0,224,13.0,76.0
2193,81.0,0,119,10.0,76.0
2194,81.0,0,119,5.0,76.0
2195,81.0,120,119,4.0,76.0
2196,57.0,0,119,13.0,76.0
2197,57.0,0,119,14.0,76.0
2198,56.0,0,104,13.0,76.0
2199,83.0,0,224,4.0,76.0
2200,71.0,120,224,11.0,76.0
2201,62.0,0,224,12.0,76.0
2202,83.0,0,224,5.0,76.0
2203,56.0,120,104,14.0,76.0
2204,83.0,0,224,10.0,76.0
2205,54.0,0,119,14.0,76.0
2206,54.0,0,119,13.0,76.0
2207,68.0,0,224,11.0,76.0
2208,74.0,0,224,10.0,76.0
2209,52.0,120,104,13.0,76.0
2210,64.0,0,224,12.0,76.0
2211,74.0,120,224,4.0,76.0
2212,52.0,0,104,14.0,76.0
2213,74.0,0,224,5.0,76.0
2214,73.0,0,104,5.0,76.0
2215,73.0,0,104,10.0,76.0
2216,73.0,0,104,4.0,76.0
2217,57.0,0,224,14.0,76.0
2218,57.0,120,224,13.0,76.0
2219,74.0,0,104,5.0,76.0
2220,64.0,0,224,12.0,76.0
2221,69.0,0,224,11.0,76.0
2222,74.0,0,104,4.0,76.0
2223,74.0,120,104,10.0,76.0
2224,73.0,0,104,4.0,76.0
2225,73.0,0,104,5.0,76.0
2226,73.0,0,104,10.0,76.0
2227,71.0,120,104,5.0,76.0
2228,71.0,0,104,10.0,76.0
2229,55.0,0,224,14.0,76.0
2230,55.0,0,224,13.0,76.0
2231,57.0,120,224,12.0,76.0
2232,64.0,0,224,11.0,76.0
2233,71.0,0,104,4.0,76.0
2234,69.0,0,104,5.0,76.0
2235,69.0,0,104,4.0,76.0
2236,69.0,0,104,10.0,76.0
2237,66.0,0,224,11.0,76.0
2238,54.0,0,224,14.0,76.0
2239,71.0,0,104,10.0,76.0
2240,71.0,120,104,5.0,76.0
2241,62.0,120,224,12.0,76.0
2242,54.0,0,224,13.0,76.0
2243,71.0,0,104,4.0,76.0
2244,73.0,0,104,4.0,76.0
2245,73.0,120,104,5.0,76.0
2246,73.0,0,104,10.0,76.0
2247,64.0,0,224,12.0,76.0
2248,67.0,0,224,11.0,76.0
2249,69.0,0,104,5.0,76.0
2250,69.0,120,104,4.0,76.0
2251,52.0,0,224,13.0,76.0
2252,52.0,0,224,14.0,76.0
2253,69.0,0,104,10.0,76.0
2254,69.0,0,119,11.0,76.0
2255,66.0,0,119,4.0,76.0
2256,66.0,0,119,10.0,76.0
2257,66.0,120,119,5.0,76.0
2258,66.0,0,224,12.0,76.0
2259,50.0,0,224,14.0,76.0
2260,50.0,0,224,13.0,76.0
2261,73.0,0,119,5.0,76.0
2262,64.0,0,119,11.0,76.0
2263,73.0,120,119,4.0,76.0
2264,73.0,0,119,10.0,76.0
2265,59.0,0,104,14.0,76.0
2266,59.0,0,104,13.0,76.0
2267,62.0,0,104,12.0,76.0
2268,50.0,0,119,3.0,76.0
2269,61.0,120,104,12.0,76.0
2270,74.0,0,224,1.0,76.0
2271,66.0,0,224,2.0,76.0
2272,57.0,0,104,14.0,76.0
2273,57.0,0,104,13.0,76.0
2274,78.0,0,224,0.0,76.0
2275,50.0,0,119,3.0,76.0
2276,74.0,0,464,10.0,76.0
2277,74.0,120,464,5.0,76.0
2278,66.0,0,464,11.0,76.0
2279,74.0,0,464,4.0,76.0
2280,78.0,0,239,1.0,76.0
2281,59.0,120,239,14.0,76.0
2282,59.0,0,239,13.0,76.0
2283,62.0,0,239,12.0,76.0
2284,50.0,0,239,3.0,76.0
2285,62.0,0,239,2.0,76.0
2286,83.0,0,239,0.0,76.0
2287,71.0,0,104,11.0,76.0
2288,78.0,0,224,10.0,76.0
2289,78.0,0,224,5.0,76.0
2290,69.0,120,104,11.0,76.0
2291,78.0,240,224,4.0,76.0
2292,83.0,0,119,4.0,76.0
2293,83.0,120,119,10.0,76.0
2294,68.0,0,119,11.0,76.0
2295,83.0,0,119,5.0,76.0
2296,69.0,120,119,11.0,76.0
2297,73.0,0,119,4.0,76.0
2298,73.0,0,119,10.0,76.0
2299,73.0,0,119,5.0,76.0
2300,56.0,0,104,13.0,76.0
2301,64.0,0,104,12.0,76.0
2302,56.0,0,104,14.0,76.0
2303,50.0,0,119,3.0,76.0
2304,54.0,120,104,14.0,76.0
2305,74.0,120,224,2.0,76.0
2306,76.0,0,224,1.0,76.0
2307,54.0,0,104,13.0,76.0
2308,62.0,0,104,12.0,76.0
2309,83.0,0,224,0.0,76.0
2310,50.0,0,119,3.0,76.0
2311,74.0,0,464,10.0,76.0
2312,56.0,0,224,14.0,76.0
2313,64.0,0,224,12.0,76.0
2314,71.0,0,464,11.0,76.0
2315,56.0,0,224,13.0,76.0
2316,74.0,0,464,4.0,76.0
2317,74.0,0,464,5.0,76.0
2318,83.0,120,239,1.0,76.0
2319,76.0,0,239,2.0,76.0
2320,50.0,0,239,3.0,76.0
2321,86.0,0,239,0.0,76.0
2322,73.0,0,104,10.0,76.0
2323,73.0,0,104,5.0,76.0
2324,73.0,0,104,4.0,76.0
2325,64.0,240,224,12.0,76.0
2326,52.0,0,224,14.0,76.0
2327,68.0,0,224,11.0,76.0
2328,71.0,120,104,10.0,76.0
2329,52.0,0,224,13.0,76.0
2330,71.0,0,104,5.0,76.0
2331,71.0,0,104,4.0,76.0
2332,73.0,0,104,4.0,76.0
2333,57.0,0,104,13.0,76.0
2334,73.0,0,104,10.0,76.0
2335,57.0,120,104,14.0,76.0
2336,73.0,0,104,5.0,76.0
2337,64.0,0,224,12.0,76.0
2338,69.0,0,104,5.0,76.0
2339,69.0,0,104,10.0,76.0
2340,55.0,0,104,13.0,76.0
2341,55.0,120,104,14.0,76.0
2342,69.0,0,104,4.0,76.0
2343,69.0,0,224,11.0,76.0
2344,69.0,0,104,2.0,76.0
2345,62.0,0,104,12.0,76.0
2346,54.0,0,104,14.0,76.0
2347,54.0,0,104,13.0,76.0
2348,81.0,0,104,0.0,76.0
2349,78.0,0,104,1.0,76.0
2350,50.0,0,119,3.0,76.0
2351,69.0,0,104,2.0,76.0
2352,76.0,0,104,1.0,76.0
2353,81.0,120,224,5.0,76.0
2354,64.0,0,104,12.0,76.0
2355,81.0,0,224,10.0,76.0
2356,79.0,0,104,0.0,76.0
2357,55.0,0,104,13.0,76.0
2358,55.0,120,104,14.0,76.0
2359,81.0,0,224,4.0,76.0
2360,69.0,0,224,11.0,76.0
2361,50.0,0,119,3.0,76.0
2362,78.0,0,104,0.0,76.0
2363,74.0,0,224,4.0,76.0
2364,74.0,0,224,1.0,76.0
2365,79.0,120,104,0.0,76.0
2366,66.0,0,224,12.0,76.0
2367,74.0,0,224,5.0,76.0
2368,57.0,0,224,13.0,76.0
2369,57.0,0,224,14.0,76.0
2370,69.0,0,224,2.0,76.0
2371,74.0,0,224,10.0,76.0
2372,69.0,0,224,11.0,76.0
2373,45.0,120,239,3.0,76.0
2374,76.0,0,104,10.0,76.0
2375,76.0,0,104,5.0,76.0
2376,81.0,0,104,0.0,76.0
2377,76.0,0,104,4.0,76.0
2378,79.0,120,104,0.0,76.0
2379,69.0,0,224,2.0,76.0
2380,45.0,0,224,13.0,76.0
2381,69.0,0,224,11.0,76.0
2382,45.0,0,224,14.0,76.0
2383,73.0,0,104,5.0,76.0
2384,64.0,0,224,12.0,76.0
2385,76.0,0,224,1.0,76.0
2386,73.0,0,104,10.0,76.0
2387,73.0,0,104,4.0,76.0
2388,45.0,120,239,3.0,76.0
2389,66.0,0,704,12.0,76.0
2390,74.0,0,719,4.0,76.0
2391,50.0,0,719,14.0,76.0
2392,50.0,0,719,13.0,76.0
2393,69.0,0,719,2.0,76.0
2394,69.0,0,719,11.0,76.0
2395,74.0,0,719,1.0,76.0
2396,74.0,0,719,5.0,76.0
2397,50.0,120,719,3.0,76.0
2398,74.0,0,719,10.0,76.0
2399,78.0,0,719,0.0,76.0
