,note,step,duration,channel,velocity
0,66.0,0,38,2.0,98.0
1,74.0,0,53,0.0,82.0
2,69.0,3,53,1.0,85.0
3,62.0,5,45,8.0,102.0
4,50.0,7,31,3.0,100.0
5,62.0,0,52,6.0,87.0
6,62.0,4,59,5.0,87.0
7,62.0,0,61,4.0,105.0
8,66.0,7,52,7.0,102.0
9,50.0,8,66,10.0,91.0
10,50.0,3,39,3.0,105.0
11,50.0,43,39,3.0,105.0
12,50.0,46,32,3.0,87.0
13,62.0,5,132,10.0,102.0
14,61.0,27,58,10.0,82.0
15,50.0,23,67,3.0,100.0
16,74.0,2,243,1.0,93.0
17,66.0,87,252,2.0,100.0
18,81.0,3,262,0.0,87.0
19,69.0,3,258,5.0,98.0
20,66.0,4,263,7.0,100.0
21,69.0,0,250,6.0,102.0
22,62.0,1,257,8.0,105.0
23,50.0,87,29,3.0,98.0
24,69.0,1,277,4.0,100.0
25,62.0,1,51,10.0,89.0
26,50.0,34,28,3.0,64.0
27,50.0,55,67,3.0,85.0
28,50.0,58,31,3.0,95.0
29,50.0,41,28,3.0,85.0
30,62.0,0,134,10.0,102.0
31,61.0,8,73,10.0,82.0
32,79.0,18,220,1.0,87.0
33,50.0,40,60,3.0,91.0
34,67.0,5,225,7.0,93.0
35,62.0,4,235,2.0,95.0
36,62.0,1,230,8.0,107.0
37,71.0,0,233,4.0,95.0
38,71.0,1,240,5.0,87.0
39,71.0,2,253,6.0,89.0
40,83.0,1,264,0.0,85.0
41,62.0,59,49,10.0,80.0
42,50.0,26,53,3.0,89.0
43,50.0,72,65,3.0,85.0
44,50.0,39,55,3.0,98.0
45,62.0,32,133,10.0,102.0
46,50.0,38,55,3.0,91.0
47,61.0,47,123,10.0,70.0
48,50.0,78,53,3.0,85.0
49,62.0,2,66,10.0,87.0
50,50.0,69,46,3.0,91.0
51,50.0,13,37,3.0,105.0
52,66.0,3,419,2.0,98.0
53,69.0,1,428,4.0,91.0
54,69.0,1,427,5.0,87.0
55,69.0,3,430,6.0,98.0
56,81.0,1,434,0.0,93.0
57,74.0,7,437,1.0,93.0
58,50.0,60,109,10.0,91.0
59,62.0,2,487,8.0,105.0
60,66.0,0,510,7.0,93.0
61,83.0,5,50,0.0,80.0
62,71.0,119,58,5.0,78.0
63,71.0,3,58,4.0,78.0
64,71.0,17,50,6.0,85.0
65,45.0,8,48,3.0,82.0
66,69.0,9,66,2.0,89.0
67,52.0,66,77,10.0,72.0
68,73.0,8,52,5.0,80.0
69,73.0,1,46,4.0,91.0
70,79.0,6,51,1.0,85.0
71,55.0,5,68,8.0,82.0
72,85.0,2,52,0.0,74.0
73,73.0,4,49,6.0,102.0
74,67.0,0,70,7.0,82.0
75,50.0,13,56,3.0,105.0
76,74.0,0,115,5.0,95.0
77,54.0,78,156,10.0,85.0
78,86.0,4,123,0.0,89.0
79,74.0,0,135,4.0,98.0
80,62.0,0,138,2.0,95.0
81,69.0,4,147,7.0,91.0
82,74.0,3,147,6.0,105.0
83,62.0,15,161,8.0,85.0
84,73.0,6,60,4.0,63.0
85,85.0,1,61,0.0,74.0
86,73.0,6,60,6.0,78.0
87,81.0,4,183,1.0,95.0
88,73.0,104,86,5.0,68.0
89,71.0,9,40,5.0,66.0
90,50.0,98,52,3.0,105.0
91,71.0,5,42,4.0,74.0
92,83.0,3,46,0.0,66.0
93,74.0,2,49,2.0,91.0
94,62.0,0,54,8.0,87.0
95,71.0,3,47,6.0,80.0
96,67.0,0,53,7.0,80.0
97,79.0,8,48,1.0,80.0
98,55.0,0,74,10.0,87.0
99,45.0,0,54,3.0,110.0
100,57.0,96,106,10.0,93.0
101,74.0,1,111,2.0,95.0
102,81.0,2,111,0.0,89.0
103,69.0,1,123,5.0,98.0
104,69.0,0,120,4.0,98.0
105,69.0,9,133,6.0,100.0
106,66.0,3,145,7.0,89.0
107,62.0,5,163,8.0,91.0
108,78.0,3,156,1.0,87.0
109,83.0,3,50,0.0,70.0
110,71.0,5,59,4.0,78.0
111,71.0,3,59,6.0,82.0
112,71.0,97,80,5.0,78.0
113,45.0,3,45,3.0,116.0
114,69.0,2,43,2.0,100.0
115,67.0,0,47,5.0,72.0
116,67.0,1,49,4.0,93.0
117,61.0,109,58,8.0,82.0
118,79.0,2,43,0.0,74.0
119,64.0,2,46,7.0,80.0
120,76.0,1,45,1.0,68.0
121,67.0,0,52,6.0,85.0
122,45.0,5,61,10.0,85.0
123,50.0,108,55,3.0,107.0
124,66.0,0,127,4.0,100.0
125,69.0,1,131,2.0,107.0
126,78.0,2,114,0.0,87.0
127,66.0,3,132,5.0,102.0
128,57.0,6,136,8.0,91.0
129,66.0,3,155,6.0,87.0
130,62.0,8,140,7.0,98.0
131,74.0,0,141,1.0,95.0
132,76.0,1,61,0.0,68.0
133,64.0,3,66,6.0,80.0
134,64.0,0,69,4.0,80.0
135,55.0,99,85,8.0,78.0
136,64.0,3,88,5.0,66.0
137,61.0,6,87,7.0,82.0
138,66.0,104,40,4.0,76.0
139,50.0,2,40,3.0,107.0
140,66.0,2,44,5.0,68.0
141,78.0,4,38,0.0,80.0
142,66.0,2,38,2.0,100.0
143,69.0,2,36,1.0,82.0
144,62.0,2,48,7.0,80.0
145,57.0,0,61,8.0,91.0
146,66.0,4,53,6.0,91.0
147,50.0,0,62,3.0,119.0
148,50.0,6,474,10.0,100.0
149,54.0,114,133,8.0,100.0
150,62.0,3,148,4.0,105.0
151,57.0,5,141,7.0,89.0
152,62.0,1,152,5.0,100.0
153,62.0,3,158,6.0,107.0
154,66.0,4,161,2.0,113.0
155,66.0,0,79,5.0,68.0
156,66.0,4,80,6.0,70.0
157,57.0,89,94,8.0,72.0
158,66.0,8,89,4.0,72.0
159,74.0,4,206,0.0,93.0
160,62.0,1,106,7.0,70.0
161,69.0,6,227,1.0,98.0
162,64.0,11,43,7.0,78.0
163,61.0,106,56,8.0,87.0
164,69.0,3,49,5.0,78.0
165,69.0,4,49,4.0,87.0
166,69.0,0,53,6.0,82.0
167,49.0,2,51,10.0,100.0
168,47.0,3,142,10.0,100.0
169,45.0,113,88,10.0,78.0
170,74.0,0,239,5.0,89.0
171,74.0,11,246,6.0,93.0
172,74.0,1,247,4.0,100.0
173,66.0,2,252,7.0,93.0
174,62.0,121,281,8.0,85.0
175,47.0,133,46,10.0,82.0
176,45.0,7,128,10.0,89.0
177,44.0,99,95,10.0,63.0
178,71.0,18,212,7.0,85.0
179,78.0,100,244,4.0,93.0
180,78.0,4,243,5.0,91.0
181,62.0,2,247,8.0,89.0
182,78.0,3,262,6.0,89.0
183,45.0,111,57,10.0,66.0
184,44.0,5,136,10.0,95.0
185,42.0,99,123,10.0,70.0
186,44.0,116,61,10.0,85.0
187,64.0,115,429,8.0,82.0
188,76.0,2,428,4.0,93.0
189,76.0,8,447,6.0,89.0
190,71.0,7,449,7.0,85.0
191,76.0,1,485,5.0,85.0
192,40.0,133,149,10.0,91.0
193,42.0,117,112,10.0,66.0
194,74.0,0,54,5.0,78.0
195,74.0,97,58,6.0,74.0
196,74.0,2,62,4.0,80.0
197,71.0,0,61,7.0,78.0
198,44.0,7,66,10.0,82.0
199,64.0,20,65,8.0,82.0
200,45.0,5,119,10.0,82.0
201,73.0,7,131,5.0,85.0
202,73.0,98,141,4.0,85.0
203,73.0,0,140,6.0,95.0
204,64.0,10,126,8.0,98.0
205,69.0,4,158,7.0,80.0
206,71.0,0,64,4.0,82.0
207,71.0,93,65,5.0,70.0
208,71.0,5,69,6.0,80.0
209,69.0,106,54,4.0,78.0
210,69.0,3,56,5.0,68.0
211,69.0,7,51,6.0,68.0
212,69.0,8,55,7.0,76.0
213,54.0,3,88,10.0,70.0
214,61.0,2,75,8.0,80.0
215,50.0,2,114,10.0,93.0
216,71.0,3,130,5.0,87.0
217,71.0,111,136,4.0,98.0
218,71.0,0,125,6.0,98.0
219,66.0,7,146,8.0,87.0
220,69.0,8,161,7.0,91.0
221,73.0,7,58,6.0,64.0
222,73.0,85,82,4.0,68.0
223,73.0,9,73,5.0,59.0
224,74.0,97,50,4.0,80.0
225,74.0,8,45,5.0,74.0
226,74.0,0,46,6.0,76.0
227,68.0,12,60,7.0,68.0
228,52.0,5,65,10.0,78.0
229,64.0,9,56,8.0,78.0
230,73.0,100,145,4.0,105.0
231,73.0,13,138,5.0,95.0
232,73.0,4,135,6.0,100.0
233,64.0,5,134,8.0,100.0
234,69.0,0,130,7.0,100.0
235,71.0,8,75,6.0,60.0
236,71.0,89,86,4.0,64.0
237,71.0,6,73,5.0,56.0
238,62.0,4,85,8.0,64.0
239,68.0,8,77,7.0,64.0
240,73.0,0,30,6.0,64.0
241,73.0,93,49,4.0,87.0
242,73.0,2,44,5.0,57.0
243,64.0,0,50,8.0,82.0
244,69.0,13,53,7.0,82.0
245,45.0,4,453,10.0,95.0
246,69.0,111,138,4.0,98.0
247,61.0,17,129,8.0,91.0
248,69.0,0,135,5.0,87.0
249,64.0,4,127,7.0,87.0
250,69.0,4,140,6.0,100.0
251,73.0,91,74,4.0,66.0
252,73.0,2,76,6.0,62.0
253,73.0,3,73,5.0,62.0
254,64.0,7,81,8.0,85.0
255,69.0,18,71,7.0,68.0
256,76.0,84,45,1.0,89.0
257,76.0,1,39,4.0,78.0
258,76.0,4,39,6.0,78.0
259,76.0,3,37,5.0,78.0
260,76.0,2,45,0.0,87.0
261,67.0,0,58,8.0,85.0
262,71.0,4,48,7.0,78.0
263,43.0,9,65,10.0,87.0
264,78.0,107,125,1.0,93.0
265,42.0,4,121,10.0,87.0
266,81.0,3,121,0.0,98.0
267,81.0,6,113,4.0,102.0
268,81.0,0,117,6.0,102.0
269,81.0,2,121,5.0,95.0
270,79.0,3,59,4.0,72.0
271,76.0,1,68,1.0,68.0
272,79.0,5,61,6.0,64.0
273,79.0,5,62,5.0,57.0
274,79.0,94,81,0.0,85.0
275,73.0,1,220,7.0,98.0
276,61.0,2,247,8.0,98.0
277,81.0,2,47,0.0,70.0
278,78.0,4,43,1.0,80.0
279,81.0,1,43,5.0,82.0
280,81.0,1,45,6.0,91.0
281,81.0,1,49,4.0,95.0
282,55.0,105,78,10.0,85.0
283,81.0,3,118,0.0,98.0
284,54.0,112,126,10.0,102.0
285,78.0,1,127,1.0,98.0
286,81.0,1,125,4.0,100.0
287,81.0,3,130,5.0,98.0
288,81.0,4,136,6.0,102.0
289,76.0,5,56,1.0,72.0
290,79.0,98,66,0.0,68.0
291,79.0,5,60,6.0,76.0
292,79.0,0,58,4.0,78.0
293,79.0,4,59,5.0,66.0
294,73.0,5,205,7.0,91.0
295,66.0,1,218,8.0,89.0
296,78.0,3,37,1.0,85.0
297,81.0,7,37,6.0,85.0
298,81.0,101,47,0.0,82.0
299,81.0,3,45,4.0,93.0
300,81.0,1,51,5.0,87.0
301,52.0,4,64,10.0,64.0
302,81.0,0,124,5.0,100.0
303,81.0,2,138,6.0,102.0
304,81.0,2,129,4.0,105.0
305,51.0,1,141,10.0,87.0
306,79.0,8,68,6.0,82.0
307,79.0,97,94,5.0,59.0
308,79.0,0,97,4.0,66.0
309,81.0,107,40,5.0,82.0
310,81.0,3,39,4.0,80.0
311,81.0,4,43,6.0,82.0
312,54.0,20,77,10.0,66.0
313,78.0,4,414,1.0,93.0
314,81.0,110,420,0.0,93.0
315,71.0,4,428,7.0,85.0
316,66.0,4,449,8.0,82.0
317,71.0,104,134,5.0,87.0
318,71.0,4,133,4.0,98.0
319,71.0,2,134,6.0,98.0
320,51.0,12,124,10.0,82.0
321,79.0,4,46,1.0,78.0
322,83.0,3,54,0.0,82.0
323,75.0,4,52,4.0,72.0
324,75.0,96,60,6.0,66.0
325,75.0,0,62,5.0,66.0
326,78.0,104,47,5.0,87.0
327,78.0,1,48,6.0,95.0
328,81.0,3,47,0.0,89.0
329,78.0,2,50,4.0,98.0
330,78.0,8,46,1.0,89.0
331,71.0,3,51,7.0,89.0
332,63.0,0,67,8.0,78.0
333,47.0,3,81,10.0,68.0
334,79.0,0,124,0.0,98.0
335,76.0,4,115,1.0,100.0
336,79.0,1,135,5.0,93.0
337,79.0,1,143,6.0,98.0
338,79.0,2,142,4.0,93.0
339,52.0,5,138,10.0,89.0
340,78.0,6,39,6.0,63.0
341,78.0,80,78,0.0,66.0
342,78.0,10,62,5.0,66.0
343,74.0,10,74,1.0,80.0
344,78.0,1,68,4.0,95.0
345,71.0,104,233,7.0,98.0
346,64.0,6,228,8.0,85.0
347,76.0,4,43,1.0,85.0
348,79.0,103,49,0.0,78.0
349,79.0,3,43,5.0,85.0
350,79.0,2,48,4.0,91.0
351,79.0,2,46,6.0,87.0
352,54.0,2,81,10.0,64.0
353,79.0,2,121,0.0,95.0
354,52.0,107,129,10.0,82.0
355,76.0,3,126,1.0,102.0
356,79.0,1,131,6.0,91.0
357,79.0,2,139,4.0,95.0
358,79.0,5,135,5.0,100.0
359,78.0,8,64,6.0,87.0
360,78.0,91,73,0.0,70.0
361,74.0,4,65,1.0,68.0
362,78.0,4,61,5.0,62.0
363,78.0,5,79,4.0,58.0
364,64.0,5,200,8.0,87.0
365,71.0,3,221,7.0,87.0
366,79.0,102,46,0.0,85.0
367,79.0,1,40,5.0,85.0
368,79.0,0,49,4.0,87.0
369,76.0,2,47,1.0,85.0
370,79.0,5,53,6.0,93.0
371,50.0,2,79,10.0,68.0
372,79.0,1,130,4.0,93.0
373,79.0,5,131,5.0,91.0
374,79.0,0,132,6.0,102.0
375,49.0,118,150,10.0,98.0
376,78.0,108,74,5.0,93.0
377,78.0,0,81,4.0,89.0
378,78.0,0,84,6.0,80.0
379,79.0,107,49,5.0,82.0
380,79.0,3,49,4.0,85.0
381,79.0,6,56,6.0,87.0
382,52.0,9,75,10.0,80.0
383,69.0,0,392,7.0,82.0
384,64.0,1,419,8.0,93.0
385,79.0,2,418,0.0,98.0
386,76.0,4,421,1.0,102.0
387,49.0,0,113,10.0,100.0
388,69.0,113,135,4.0,85.0
389,69.0,4,139,5.0,85.0
390,69.0,4,139,6.0,98.0
391,81.0,14,49,0.0,85.0
392,73.0,99,78,5.0,61.0
393,78.0,10,48,1.0,82.0
394,73.0,0,78,6.0,66.0
395,73.0,7,80,4.0,70.0
396,76.0,93,43,5.0,76.0
397,76.0,1,45,4.0,85.0
398,76.0,5,41,6.0,78.0
399,79.0,1,52,0.0,87.0
400,69.0,1,59,8.0,87.0
401,45.0,4,53,10.0,80.0
402,76.0,9,46,1.0,93.0
403,73.0,0,69,7.0,70.0
404,78.0,108,135,4.0,100.0
405,78.0,5,128,5.0,100.0
406,50.0,7,121,10.0,85.0
407,78.0,3,130,6.0,93.0
408,69.0,1,172,8.0,93.0
409,80.0,81,92,4.0,74.0
410,74.0,2,192,7.0,89.0
411,80.0,6,88,6.0,70.0
412,80.0,4,111,5.0,68.0
413,78.0,3,234,0.0,100.0
414,81.0,100,54,4.0,76.0
415,74.0,6,250,1.0,102.0
416,81.0,0,46,6.0,80.0
417,81.0,15,48,5.0,74.0
418,62.0,5,56,8.0,76.0
419,78.0,5,74,7.0,64.0
420,62.0,11,70,10.0,85.0
421,81.0,99,129,4.0,91.0
422,61.0,1,115,10.0,105.0
423,81.0,3,125,5.0,89.0
424,81.0,1,131,6.0,95.0
425,64.0,12,149,8.0,91.0
426,76.0,4,140,7.0,89.0
427,80.0,15,68,6.0,91.0
428,80.0,1,76,5.0,82.0
429,80.0,91,102,4.0,89.0
430,81.0,102,51,4.0,80.0
431,81.0,8,39,6.0,72.0
432,81.0,5,49,5.0,80.0
433,69.0,9,68,7.0,70.0
434,64.0,1,55,8.0,68.0
435,49.0,1,66,10.0,66.0
436,47.0,109,140,10.0,82.0
437,74.0,1,134,4.0,100.0
438,74.0,7,128,5.0,102.0
439,74.0,0,140,6.0,102.0
440,66.0,1,139,8.0,85.0
441,71.0,17,173,7.0,85.0
442,76.0,5,85,5.0,70.0
443,76.0,105,103,6.0,82.0
444,76.0,1,111,4.0,82.0
445,78.0,1,46,5.0,66.0
446,78.0,108,53,4.0,63.0
447,78.0,0,49,6.0,63.0
448,74.0,4,63,7.0,70.0
449,59.0,2,63,8.0,64.0
450,59.0,2,73,10.0,85.0
451,57.0,111,131,10.0,93.0
452,78.0,7,128,5.0,91.0
453,78.0,5,140,4.0,98.0
454,78.0,11,147,6.0,95.0
455,59.0,2,151,8.0,87.0
456,74.0,0,182,7.0,82.0
457,76.0,3,73,5.0,61.0
458,76.0,107,100,6.0,64.0
459,76.0,1,112,4.0,66.0
460,78.0,4,60,6.0,59.0
461,78.0,7,59,4.0,68.0
462,45.0,104,71,10.0,85.0
463,78.0,3,53,5.0,66.0
464,74.0,10,68,7.0,80.0
465,59.0,5,74,8.0,68.0
466,71.0,2,133,6.0,93.0
467,44.0,105,141,10.0,91.0
468,71.0,9,134,4.0,93.0
469,64.0,9,131,8.0,87.0
470,71.0,3,135,5.0,85.0
471,74.0,0,173,7.0,87.0
472,73.0,10,105,4.0,58.0
473,73.0,86,125,6.0,61.0
474,73.0,13,107,5.0,57.0
475,74.0,92,61,6.0,63.0
476,74.0,19,49,4.0,70.0
477,74.0,2,47,5.0,63.0
478,71.0,5,55,7.0,64.0
479,64.0,0,65,8.0,68.0
480,56.0,8,77,10.0,76.0
481,74.0,99,135,6.0,85.0
482,54.0,11,129,10.0,87.0
483,74.0,2,114,5.0,85.0
484,74.0,10,127,4.0,98.0
485,66.0,7,131,8.0,89.0
486,69.0,5,170,7.0,89.0
487,73.0,81,102,6.0,63.0
488,73.0,11,93,4.0,62.0
489,73.0,11,83,5.0,66.0
490,74.0,89,66,6.0,64.0
491,74.0,5,47,4.0,78.0
492,74.0,4,58,5.0,82.0
493,66.0,20,80,8.0,82.0
494,74.0,12,65,7.0,66.0
495,42.0,1,85,10.0,89.0
496,68.0,6,111,4.0,82.0
497,40.0,21,126,10.0,87.0
498,68.0,93,155,6.0,89.0
499,59.0,0,131,8.0,82.0
500,68.0,1,137,5.0,87.0
501,76.0,8,151,7.0,98.0
502,69.0,1,78,5.0,63.0
503,69.0,80,99,6.0,62.0
504,69.0,17,114,4.0,72.0
505,71.0,97,56,6.0,68.0
506,71.0,0,39,5.0,64.0
507,71.0,21,50,4.0,70.0
508,52.0,1,55,10.0,80.0
509,64.0,3,75,7.0,68.0
510,68.0,2,88,8.0,66.0
511,50.0,9,123,10.0,87.0
512,71.0,7,114,8.0,87.0
513,64.0,3,147,4.0,89.0
514,64.0,105,167,6.0,95.0
515,64.0,6,144,5.0,89.0
516,68.0,4,180,7.0,87.0
517,49.0,81,90,10.0,64.0
518,68.0,19,85,5.0,64.0
519,68.0,1,88,4.0,78.0
520,68.0,4,114,6.0,62.0
521,71.0,101,56,6.0,64.0
522,71.0,1,42,5.0,72.0
523,47.0,3,63,10.0,80.0
524,71.0,9,60,4.0,74.0
525,68.0,6,73,7.0,70.0
526,62.0,7,84,8.0,80.0
527,76.0,6,107,5.0,95.0
528,76.0,0,127,4.0,95.0
529,49.0,107,143,10.0,100.0
530,76.0,8,137,6.0,102.0
531,61.0,2,150,8.0,87.0
532,69.0,9,176,7.0,87.0
533,47.0,88,85,10.0,85.0
534,74.0,1,95,5.0,68.0
535,74.0,9,124,4.0,68.0
536,74.0,3,120,6.0,68.0
537,73.0,2,50,5.0,57.0
538,64.0,10,65,8.0,85.0
539,45.0,98,81,10.0,72.0
540,73.0,3,69,4.0,53.0
541,73.0,0,71,6.0,48.0
542,69.0,15,68,7.0,80.0
543,74.0,3,131,4.0,89.0
544,74.0,1,130,5.0,87.0
545,64.0,113,147,8.0,85.0
546,74.0,1,141,6.0,87.0
547,69.0,10,152,7.0,93.0
548,73.0,1,81,5.0,59.0
549,73.0,97,96,4.0,59.0
550,73.0,6,124,6.0,59.0
551,62.0,101,65,8.0,78.0
552,71.0,3,53,5.0,64.0
553,71.0,0,58,4.0,64.0
554,71.0,11,60,6.0,66.0
555,68.0,3,63,7.0,80.0
556,52.0,3,451,10.0,91.0
557,69.0,1,162,4.0,98.0
558,69.0,115,169,6.0,95.0
559,69.0,5,185,5.0,95.0
560,54.0,118,74,10.0,68.0
561,61.0,5,256,8.0,87.0
562,78.0,3,44,5.0,63.0
563,78.0,87,53,6.0,60.0
564,78.0,2,54,4.0,59.0
565,52.0,17,54,10.0,85.0
566,51.0,7,119,10.0,102.0
567,69.0,97,169,6.0,91.0
568,69.0,0,173,4.0,93.0
569,69.0,6,184,5.0,82.0
570,47.0,103,74,10.0,82.0
571,78.0,86,54,6.0,60.0
572,78.0,4,54,5.0,59.0
573,78.0,11,63,4.0,60.0
574,49.0,19,67,10.0,72.0
575,66.0,18,656,7.0,89.0
576,50.0,18,141,10.0,89.0
577,68.0,3,171,4.0,85.0
578,68.0,101,186,6.0,76.0
579,68.0,4,183,5.0,74.0
580,52.0,111,93,10.0,82.0
581,76.0,3,51,5.0,72.0
582,76.0,97,61,6.0,70.0
583,76.0,2,68,4.0,70.0
584,59.0,19,644,8.0,87.0
585,50.0,24,53,10.0,68.0
586,49.0,17,134,10.0,98.0
587,67.0,1,183,4.0,87.0
588,67.0,2,191,6.0,87.0
589,67.0,96,201,5.0,85.0
590,45.0,106,76,10.0,76.0
591,76.0,7,47,5.0,64.0
592,76.0,98,60,6.0,76.0
593,76.0,1,67,4.0,66.0
594,64.0,5,648,7.0,85.0
595,47.0,23,49,10.0,68.0
596,48.0,9,140,10.0,102.0
597,66.0,104,176,6.0,68.0
598,66.0,5,184,4.0,82.0
599,66.0,2,190,5.0,74.0
600,50.0,105,99,10.0,80.0
601,57.0,2,641,8.0,98.0
602,74.0,108,62,5.0,76.0
603,48.0,5,48,10.0,76.0
604,74.0,7,57,6.0,70.0
605,74.0,4,64,4.0,68.0
606,47.0,3,118,10.0,93.0
607,56.0,7,118,8.0,98.0
608,65.0,3,184,4.0,89.0
609,65.0,1,187,5.0,78.0
610,59.0,91,94,8.0,74.0
611,65.0,115,200,6.0,87.0
612,44.0,3,98,10.0,78.0
613,45.0,2,43,10.0,60.0
614,74.0,1,42,5.0,70.0
615,74.0,4,52,6.0,80.0
616,57.0,116,68,8.0,70.0
617,74.0,13,51,4.0,82.0
618,44.0,111,118,10.0,102.0
619,59.0,3,136,8.0,91.0
620,45.0,90,101,10.0,76.0
621,61.0,21,93,8.0,76.0
622,47.0,89,58,10.0,74.0
623,62.0,27,60,8.0,74.0
624,64.0,5,361,5.0,72.0
625,64.0,1,383,4.0,85.0
626,64.0,1,386,6.0,87.0
627,62.0,2,1184,7.0,85.0
628,56.0,10,121,8.0,87.0
629,68.0,85,66,4.0,70.0
630,68.0,4,70,5.0,62.0
631,68.0,8,64,6.0,64.0
632,64.0,12,70,7.0,87.0
633,59.0,8,100,8.0,82.0
634,71.0,80,43,4.0,80.0
635,71.0,7,39,5.0,76.0
636,71.0,1,41,6.0,70.0
637,62.0,3,43,8.0,80.0
638,68.0,12,62,7.0,85.0
639,74.0,109,136,5.0,91.0
640,74.0,3,133,4.0,93.0
641,40.0,121,482,10.0,95.0
642,74.0,3,140,6.0,93.0
643,80.0,83,52,5.0,68.0
644,71.0,6,164,7.0,98.0
645,80.0,2,65,4.0,72.0
646,68.0,13,154,8.0,105.0
647,80.0,6,66,6.0,72.0
648,83.0,4,43,5.0,80.0
649,83.0,118,53,4.0,78.0
650,83.0,1,54,6.0,74.0
651,68.0,5,64,7.0,80.0
652,52.0,0,83,10.0,78.0
653,64.0,3,85,8.0,82.0
654,74.0,118,128,5.0,91.0
655,74.0,1,125,6.0,98.0
656,54.0,3,132,10.0,95.0
657,74.0,0,138,4.0,89.0
658,57.0,3,134,8.0,72.0
659,69.0,0,171,7.0,89.0
660,73.0,99,77,6.0,63.0
661,73.0,2,82,5.0,62.0
662,73.0,8,81,4.0,62.0
663,71.0,2,55,5.0,66.0
664,71.0,0,61,6.0,85.0
665,64.0,5,63,8.0,80.0
666,71.0,114,69,7.0,82.0
667,71.0,9,52,4.0,85.0
668,86.0,7,48,0.0,87.0
669,50.0,3,58,3.0,102.0
670,76.0,1,51,2.0,98.0
671,83.0,7,45,1.0,93.0
672,56.0,1,90,10.0,82.0
673,73.0,5,70,5.0,85.0
674,73.0,7,68,4.0,98.0
675,73.0,5,78,6.0,91.0
676,45.0,2,75,3.0,116.0
677,74.0,9,68,5.0,85.0
678,85.0,4,114,0.0,100.0
679,57.0,6,141,10.0,100.0
680,74.0,7,78,4.0,80.0
681,74.0,21,95,6.0,85.0
682,64.0,91,165,8.0,93.0
683,81.0,3,141,1.0,100.0
684,69.0,2,179,7.0,89.0
685,76.0,16,43,5.0,68.0
686,76.0,3,161,2.0,100.0
687,76.0,52,71,6.0,91.0
688,83.0,3,70,0.0,72.0
689,76.0,10,50,4.0,80.0
690,81.0,3,45,0.0,72.0
691,64.0,91,53,7.0,78.0
692,69.0,0,44,5.0,100.0
693,76.0,4,41,1.0,98.0
694,76.0,1,45,2.0,89.0
695,69.0,1,47,6.0,80.0
696,45.0,9,55,3.0,113.0
697,49.0,2,68,10.0,76.0
698,69.0,6,43,4.0,100.0
699,61.0,1,87,8.0,82.0
700,64.0,3,66,6.0,102.0
701,50.0,2,65,3.0,119.0
702,64.0,1,65,5.0,95.0
703,64.0,4,64,4.0,102.0
704,52.0,4,106,10.0,98.0
705,83.0,96,114,0.0,98.0
706,74.0,0,126,2.0,102.0
707,59.0,3,153,8.0,91.0
708,81.0,86,54,0.0,68.0
709,76.0,1,144,1.0,102.0
710,64.0,4,152,7.0,98.0
711,69.0,10,55,5.0,80.0
712,69.0,2,59,6.0,87.0
713,69.0,7,52,4.0,89.0
714,74.0,4,39,2.0,80.0
715,80.0,102,45,0.0,82.0
716,68.0,2,48,4.0,100.0
717,76.0,2,39,1.0,102.0
718,68.0,0,48,6.0,95.0
719,64.0,3,50,7.0,85.0
720,50.0,2,45,3.0,119.0
721,68.0,5,48,5.0,95.0
722,40.0,0,75,10.0,93.0
723,59.0,5,63,8.0,87.0
724,45.0,1,94,3.0,127.0
725,69.0,2,358,5.0,93.0
726,69.0,0,375,2.0,110.0
727,76.0,2,374,1.0,105.0
728,81.0,4,384,0.0,102.0
729,64.0,0,381,7.0,100.0
730,69.0,1,389,4.0,102.0
731,69.0,1,386,6.0,102.0
732,61.0,6,387,8.0,107.0
733,45.0,109,414,10.0,100.0
734,66.0,5,38,2.0,98.0
735,74.0,590,53,0.0,82.0
736,69.0,3,53,1.0,85.0
737,62.0,0,45,8.0,102.0
738,50.0,7,31,3.0,100.0
739,62.0,4,52,6.0,87.0
740,62.0,0,59,5.0,87.0
741,62.0,8,61,4.0,105.0
742,50.0,0,66,10.0,91.0
743,66.0,7,52,7.0,102.0
744,50.0,3,39,3.0,105.0
745,50.0,43,39,3.0,105.0
746,50.0,46,32,3.0,87.0
747,62.0,5,132,10.0,102.0
748,61.0,27,58,10.0,82.0
749,50.0,23,67,3.0,100.0
750,74.0,2,243,1.0,93.0
751,66.0,87,252,2.0,100.0
752,81.0,3,262,0.0,87.0
753,69.0,3,258,5.0,98.0
754,69.0,0,250,6.0,102.0
755,66.0,4,263,7.0,100.0
756,62.0,1,257,8.0,105.0
757,50.0,87,29,3.0,98.0
758,69.0,1,277,4.0,100.0
759,62.0,1,51,10.0,89.0
760,50.0,34,28,3.0,64.0
761,50.0,55,67,3.0,85.0
762,50.0,58,31,3.0,95.0
763,50.0,41,28,3.0,85.0
764,62.0,5,134,10.0,102.0
765,61.0,8,73,10.0,82.0
766,79.0,18,220,1.0,87.0
767,50.0,40,60,3.0,91.0
768,67.0,0,225,7.0,93.0
769,62.0,4,235,2.0,95.0
770,62.0,1,230,8.0,107.0
771,71.0,1,233,4.0,95.0
772,71.0,0,240,5.0,87.0
773,71.0,2,253,6.0,89.0
774,83.0,1,264,0.0,85.0
775,62.0,59,49,10.0,80.0
776,50.0,26,53,3.0,89.0
777,50.0,72,65,3.0,85.0
778,50.0,39,55,3.0,98.0
779,62.0,32,133,10.0,102.0
780,50.0,38,55,3.0,91.0
781,61.0,47,123,10.0,70.0
782,50.0,78,53,3.0,85.0
783,62.0,2,66,10.0,87.0
784,50.0,69,46,3.0,91.0
785,50.0,13,37,3.0,105.0
786,66.0,3,419,2.0,98.0
787,69.0,1,428,4.0,91.0
788,69.0,1,427,5.0,87.0
789,69.0,3,430,6.0,98.0
790,81.0,1,434,0.0,93.0
791,74.0,7,437,1.0,93.0
792,50.0,60,109,10.0,91.0
793,62.0,2,487,8.0,105.0
794,66.0,0,510,7.0,93.0
795,83.0,5,50,0.0,80.0
796,71.0,119,58,5.0,78.0
797,71.0,3,58,4.0,78.0
798,71.0,17,50,6.0,85.0
799,45.0,8,48,3.0,82.0
800,69.0,9,66,2.0,89.0
801,52.0,66,77,10.0,72.0
802,73.0,8,52,5.0,80.0
803,73.0,1,46,4.0,91.0
804,79.0,6,51,1.0,85.0
805,55.0,5,68,8.0,82.0
806,85.0,2,52,0.0,74.0
807,73.0,4,49,6.0,102.0
808,67.0,0,70,7.0,82.0
809,50.0,13,56,3.0,105.0
810,74.0,4,115,5.0,95.0
811,54.0,78,156,10.0,85.0
812,86.0,4,123,0.0,89.0
813,74.0,0,135,4.0,98.0
814,62.0,0,138,2.0,95.0
815,69.0,4,147,7.0,91.0
816,74.0,3,147,6.0,105.0
817,62.0,15,161,8.0,85.0
818,73.0,6,60,4.0,63.0
819,85.0,1,61,0.0,74.0
820,73.0,6,60,6.0,78.0
821,81.0,0,183,1.0,95.0
822,73.0,104,86,5.0,68.0
823,71.0,0,40,5.0,66.0
824,50.0,98,52,3.0,105.0
825,71.0,5,42,4.0,74.0
826,83.0,3,46,0.0,66.0
827,74.0,0,49,2.0,91.0
828,62.0,0,54,8.0,87.0
829,71.0,3,47,6.0,80.0
830,67.0,2,53,7.0,80.0
831,79.0,8,48,1.0,80.0
832,55.0,9,74,10.0,87.0
833,45.0,3,54,3.0,110.0
834,57.0,96,106,10.0,93.0
835,74.0,1,111,2.0,95.0
836,81.0,2,111,0.0,89.0
837,69.0,0,120,4.0,98.0
838,69.0,1,123,5.0,98.0
839,69.0,9,133,6.0,100.0
840,66.0,0,145,7.0,89.0
841,62.0,5,163,8.0,91.0
842,78.0,3,156,1.0,87.0
843,83.0,3,50,0.0,70.0
844,71.0,5,59,4.0,78.0
845,71.0,3,59,6.0,82.0
846,71.0,97,80,5.0,78.0
847,45.0,3,45,3.0,116.0
848,69.0,2,43,2.0,100.0
849,67.0,1,47,5.0,72.0
850,67.0,0,49,4.0,93.0
851,79.0,2,43,0.0,74.0
852,61.0,109,58,8.0,82.0
853,64.0,0,46,7.0,80.0
854,76.0,1,45,1.0,68.0
855,67.0,2,52,6.0,85.0
856,45.0,5,61,10.0,85.0
857,50.0,108,55,3.0,107.0
858,66.0,0,127,4.0,100.0
859,69.0,1,131,2.0,107.0
860,78.0,2,114,0.0,87.0
861,66.0,3,132,5.0,102.0
862,57.0,6,136,8.0,91.0
863,66.0,3,155,6.0,87.0
864,62.0,8,140,7.0,98.0
865,74.0,0,141,1.0,95.0
866,76.0,1,61,0.0,68.0
867,64.0,3,66,6.0,80.0
868,64.0,0,69,4.0,80.0
869,55.0,99,85,8.0,78.0
870,64.0,3,88,5.0,66.0
871,61.0,6,87,7.0,82.0
872,66.0,104,40,4.0,76.0
873,50.0,2,40,3.0,107.0
874,66.0,2,44,5.0,68.0
875,78.0,4,38,0.0,80.0
876,69.0,2,36,1.0,82.0
877,62.0,2,48,7.0,80.0
878,66.0,2,38,2.0,100.0
879,66.0,4,53,6.0,91.0
880,57.0,0,61,8.0,91.0
881,50.0,4,62,3.0,119.0
882,50.0,6,474,10.0,100.0
883,54.0,114,133,8.0,100.0
884,62.0,3,148,4.0,105.0
885,57.0,5,141,7.0,89.0
886,62.0,1,152,5.0,100.0
887,62.0,3,158,6.0,107.0
888,66.0,0,161,2.0,113.0
889,66.0,0,79,5.0,68.0
890,66.0,4,80,6.0,70.0
891,57.0,89,94,8.0,72.0
892,66.0,8,89,4.0,72.0
893,74.0,4,206,0.0,93.0
894,62.0,1,106,7.0,70.0
895,69.0,6,227,1.0,98.0
896,64.0,11,43,7.0,78.0
897,61.0,106,56,8.0,87.0
898,69.0,3,49,5.0,78.0
899,69.0,4,49,4.0,87.0
900,69.0,0,53,6.0,82.0
901,49.0,2,51,10.0,100.0
902,47.0,3,142,10.0,100.0
903,45.0,113,88,10.0,78.0
904,74.0,1,239,5.0,89.0
905,74.0,11,246,6.0,93.0
906,74.0,0,247,4.0,100.0
907,66.0,2,252,7.0,93.0
908,62.0,121,281,8.0,85.0
909,47.0,133,46,10.0,82.0
910,45.0,7,128,10.0,89.0
911,44.0,99,95,10.0,63.0
912,71.0,18,212,7.0,85.0
913,78.0,100,244,4.0,93.0
914,78.0,4,243,5.0,91.0
915,62.0,2,247,8.0,89.0
916,78.0,3,262,6.0,89.0
917,45.0,111,57,10.0,66.0
918,44.0,5,136,10.0,95.0
919,42.0,99,123,10.0,70.0
920,44.0,116,61,10.0,85.0
921,64.0,115,429,8.0,82.0
922,76.0,2,428,4.0,93.0
923,76.0,8,447,6.0,89.0
924,71.0,7,449,7.0,85.0
925,76.0,1,485,5.0,85.0
926,40.0,133,149,10.0,91.0
927,42.0,117,112,10.0,66.0
928,74.0,0,54,5.0,78.0
929,74.0,97,58,6.0,74.0
930,74.0,2,62,4.0,80.0
931,71.0,0,61,7.0,78.0
932,44.0,7,66,10.0,82.0
933,64.0,20,65,8.0,82.0
934,45.0,5,119,10.0,82.0
935,73.0,7,131,5.0,85.0
936,73.0,98,141,4.0,85.0
937,73.0,0,140,6.0,95.0
938,64.0,10,126,8.0,98.0
939,69.0,4,158,7.0,80.0
940,71.0,0,64,4.0,82.0
941,71.0,93,65,5.0,70.0
942,71.0,5,69,6.0,80.0
943,69.0,106,54,4.0,78.0
944,69.0,3,56,5.0,68.0
945,69.0,7,51,6.0,68.0
946,69.0,8,55,7.0,76.0
947,54.0,3,88,10.0,70.0
948,61.0,2,75,8.0,80.0
949,50.0,2,114,10.0,93.0
950,71.0,3,130,5.0,87.0
951,71.0,111,136,4.0,98.0
952,71.0,0,125,6.0,98.0
953,66.0,7,146,8.0,87.0
954,69.0,8,161,7.0,91.0
955,73.0,7,58,6.0,64.0
956,73.0,85,82,4.0,68.0
957,73.0,9,73,5.0,59.0
958,74.0,97,50,4.0,80.0
959,74.0,8,45,5.0,74.0
960,74.0,12,46,6.0,76.0
961,68.0,0,60,7.0,68.0
962,64.0,9,56,8.0,78.0
963,52.0,5,65,10.0,78.0
964,73.0,100,145,4.0,105.0
965,73.0,13,138,5.0,95.0
966,73.0,4,135,6.0,100.0
967,64.0,5,134,8.0,100.0
968,69.0,0,130,7.0,100.0
969,71.0,8,75,6.0,60.0
970,71.0,89,86,4.0,64.0
971,71.0,6,73,5.0,56.0
972,68.0,8,77,7.0,64.0
973,62.0,4,85,8.0,64.0
974,73.0,0,30,6.0,64.0
975,73.0,93,49,4.0,87.0
976,73.0,2,44,5.0,57.0
977,64.0,0,50,8.0,82.0
978,69.0,13,53,7.0,82.0
979,45.0,4,453,10.0,95.0
980,69.0,111,138,4.0,98.0
981,61.0,17,129,8.0,91.0
982,64.0,4,127,7.0,87.0
983,69.0,0,135,5.0,87.0
984,69.0,4,140,6.0,100.0
985,73.0,91,74,4.0,66.0
986,73.0,3,73,5.0,62.0
987,73.0,2,76,6.0,62.0
988,64.0,7,81,8.0,85.0
989,69.0,18,71,7.0,68.0
990,76.0,84,45,1.0,89.0
991,76.0,1,39,4.0,78.0
992,76.0,4,39,6.0,78.0
993,76.0,3,37,5.0,78.0
994,76.0,0,45,0.0,87.0
995,67.0,2,58,8.0,85.0
996,71.0,4,48,7.0,78.0
997,43.0,9,65,10.0,87.0
998,42.0,4,121,10.0,87.0
999,78.0,107,125,1.0,93.0
1000,81.0,6,113,4.0,102.0
1001,81.0,3,121,0.0,98.0
1002,81.0,1,117,6.0,102.0
1003,81.0,2,121,5.0,95.0
1004,79.0,3,59,4.0,72.0
1005,76.0,1,68,1.0,68.0
1006,79.0,5,61,6.0,64.0
1007,79.0,5,62,5.0,57.0
1008,79.0,94,81,0.0,85.0
1009,73.0,0,220,7.0,98.0
1010,61.0,2,247,8.0,98.0
1011,78.0,4,43,1.0,80.0
1012,81.0,2,47,0.0,70.0
1013,81.0,1,43,5.0,82.0
1014,81.0,1,45,6.0,91.0
1015,81.0,1,49,4.0,95.0
1016,55.0,105,78,10.0,85.0
1017,81.0,3,118,0.0,98.0
1018,54.0,112,126,10.0,102.0
1019,78.0,1,127,1.0,98.0
1020,81.0,1,125,4.0,100.0
1021,81.0,3,130,5.0,98.0
1022,81.0,4,136,6.0,102.0
1023,76.0,5,56,1.0,72.0
1024,79.0,98,66,0.0,68.0
1025,79.0,5,60,6.0,76.0
1026,79.0,0,58,4.0,78.0
1027,79.0,4,59,5.0,66.0
1028,73.0,5,205,7.0,91.0
1029,66.0,1,218,8.0,89.0
1030,78.0,3,37,1.0,85.0
1031,81.0,7,37,6.0,85.0
1032,81.0,101,47,0.0,82.0
1033,81.0,3,45,4.0,93.0
1034,81.0,1,51,5.0,87.0
1035,52.0,4,64,10.0,64.0
1036,81.0,0,124,5.0,100.0
1037,81.0,2,138,6.0,102.0
1038,81.0,2,129,4.0,105.0
1039,51.0,1,141,10.0,87.0
1040,79.0,8,68,6.0,82.0
1041,79.0,97,94,5.0,59.0
1042,79.0,0,97,4.0,66.0
1043,81.0,107,40,5.0,82.0
1044,81.0,3,39,4.0,80.0
1045,81.0,4,43,6.0,82.0
1046,54.0,20,77,10.0,66.0
1047,78.0,4,414,1.0,93.0
1048,81.0,110,420,0.0,93.0
1049,71.0,4,428,7.0,85.0
1050,66.0,4,449,8.0,82.0
1051,71.0,104,134,5.0,87.0
1052,71.0,4,133,4.0,98.0
1053,71.0,2,134,6.0,98.0
1054,51.0,12,124,10.0,82.0
1055,83.0,3,54,0.0,82.0
1056,79.0,4,46,1.0,78.0
1057,75.0,4,52,4.0,72.0
1058,75.0,0,60,6.0,66.0
1059,75.0,96,62,5.0,66.0
1060,78.0,104,47,5.0,87.0
1061,78.0,1,48,6.0,95.0
1062,78.0,2,50,4.0,98.0
1063,81.0,3,47,0.0,89.0
1064,78.0,8,46,1.0,89.0
1065,71.0,3,51,7.0,89.0
1066,63.0,0,67,8.0,78.0
1067,47.0,3,81,10.0,68.0
1068,79.0,0,124,0.0,98.0
1069,76.0,4,115,1.0,100.0
1070,79.0,1,135,5.0,93.0
1071,79.0,1,143,6.0,98.0
1072,79.0,2,142,4.0,93.0
1073,52.0,5,138,10.0,89.0
1074,78.0,6,39,6.0,63.0
1075,78.0,80,78,0.0,66.0
1076,78.0,10,62,5.0,66.0
1077,74.0,10,74,1.0,80.0
1078,78.0,1,68,4.0,95.0
1079,71.0,104,233,7.0,98.0
1080,64.0,6,228,8.0,85.0
1081,76.0,4,43,1.0,85.0
1082,79.0,103,49,0.0,78.0
1083,79.0,2,46,6.0,87.0
1084,79.0,2,48,4.0,91.0
1085,79.0,3,43,5.0,85.0
1086,54.0,2,81,10.0,64.0
1087,79.0,2,121,0.0,95.0
1088,52.0,107,129,10.0,82.0
1089,76.0,3,126,1.0,102.0
1090,79.0,1,131,6.0,91.0
1091,79.0,2,139,4.0,95.0
1092,79.0,5,135,5.0,100.0
1093,78.0,8,64,6.0,87.0
1094,78.0,91,73,0.0,70.0
1095,74.0,4,65,1.0,68.0
1096,78.0,4,61,5.0,62.0
1097,78.0,5,79,4.0,58.0
1098,64.0,5,200,8.0,87.0
1099,71.0,3,221,7.0,87.0
1100,79.0,102,46,0.0,85.0
1101,79.0,1,40,5.0,85.0
1102,79.0,5,49,4.0,87.0
1103,76.0,2,47,1.0,85.0
1104,79.0,0,53,6.0,93.0
1105,50.0,2,79,10.0,68.0
1106,79.0,5,131,5.0,91.0
1107,79.0,1,130,4.0,93.0
1108,79.0,0,132,6.0,102.0
1109,49.0,118,150,10.0,98.0
1110,78.0,0,74,5.0,93.0
1111,78.0,108,81,4.0,89.0
1112,78.0,0,84,6.0,80.0
1113,79.0,107,49,5.0,82.0
1114,79.0,3,49,4.0,85.0
1115,79.0,6,56,6.0,87.0
1116,52.0,9,75,10.0,80.0
1117,69.0,0,392,7.0,82.0
1118,64.0,1,419,8.0,93.0
1119,79.0,2,418,0.0,98.0
1120,76.0,4,421,1.0,102.0
1121,49.0,4,113,10.0,100.0
1122,69.0,113,135,4.0,85.0
1123,69.0,4,139,5.0,85.0
1124,69.0,0,139,6.0,98.0
1125,81.0,14,49,0.0,85.0
1126,73.0,99,78,5.0,61.0
1127,78.0,10,48,1.0,82.0
1128,73.0,7,78,6.0,66.0
1129,73.0,0,80,4.0,70.0
1130,76.0,93,43,5.0,76.0
1131,76.0,1,45,4.0,85.0
1132,76.0,5,41,6.0,78.0
1133,79.0,1,52,0.0,87.0
1134,69.0,1,59,8.0,87.0
1135,45.0,4,53,10.0,80.0
1136,76.0,9,46,1.0,93.0
1137,73.0,0,69,7.0,70.0
1138,78.0,108,135,4.0,100.0
1139,78.0,5,128,5.0,100.0
1140,50.0,7,121,10.0,85.0
1141,78.0,3,130,6.0,93.0
1142,69.0,1,172,8.0,93.0
1143,80.0,81,92,4.0,74.0
1144,74.0,2,192,7.0,89.0
1145,80.0,6,88,6.0,70.0
1146,80.0,4,111,5.0,68.0
1147,78.0,3,234,0.0,100.0
1148,81.0,100,54,4.0,76.0
1149,74.0,6,250,1.0,102.0
1150,81.0,15,46,6.0,80.0
1151,81.0,0,48,5.0,74.0
1152,62.0,5,56,8.0,76.0
1153,78.0,5,74,7.0,64.0
1154,62.0,11,70,10.0,85.0
1155,81.0,99,129,4.0,91.0
1156,61.0,1,115,10.0,105.0
1157,81.0,3,125,5.0,89.0
1158,81.0,1,131,6.0,95.0
1159,64.0,12,149,8.0,91.0
1160,76.0,4,140,7.0,89.0
1161,80.0,15,68,6.0,91.0
1162,80.0,1,76,5.0,82.0
1163,80.0,91,102,4.0,89.0
1164,81.0,102,51,4.0,80.0
1165,81.0,8,39,6.0,72.0
1166,81.0,5,49,5.0,80.0
1167,69.0,9,68,7.0,70.0
1168,64.0,1,55,8.0,68.0
1169,49.0,1,66,10.0,66.0
1170,47.0,109,140,10.0,82.0
1171,74.0,1,134,4.0,100.0
1172,74.0,7,128,5.0,102.0
1173,74.0,0,140,6.0,102.0
1174,66.0,1,139,8.0,85.0
1175,71.0,17,173,7.0,85.0
1176,76.0,5,85,5.0,70.0
1177,76.0,105,103,6.0,82.0
1178,76.0,1,111,4.0,82.0
1179,78.0,1,46,5.0,66.0
1180,78.0,108,53,4.0,63.0
1181,78.0,0,49,6.0,63.0
1182,74.0,4,63,7.0,70.0
1183,59.0,2,63,8.0,64.0
1184,59.0,2,73,10.0,85.0
1185,57.0,111,131,10.0,93.0
1186,78.0,7,128,5.0,91.0
1187,78.0,0,140,4.0,98.0
1188,78.0,11,147,6.0,95.0
1189,59.0,2,151,8.0,87.0
1190,74.0,5,182,7.0,82.0
1191,76.0,3,73,5.0,61.0
1192,76.0,107,100,6.0,64.0
1193,76.0,1,112,4.0,66.0
1194,78.0,4,60,6.0,59.0
1195,78.0,7,59,4.0,68.0
1196,45.0,104,71,10.0,85.0
1197,78.0,3,53,5.0,66.0
1198,74.0,10,68,7.0,80.0
1199,59.0,5,74,8.0,68.0
1200,71.0,2,133,6.0,93.0
1201,44.0,105,141,10.0,91.0
1202,71.0,9,134,4.0,93.0
1203,64.0,9,131,8.0,87.0
1204,71.0,3,135,5.0,85.0
1205,74.0,0,173,7.0,87.0
1206,73.0,10,105,4.0,58.0
1207,73.0,86,125,6.0,61.0
1208,73.0,13,107,5.0,57.0
1209,74.0,92,61,6.0,63.0
1210,74.0,19,49,4.0,70.0
1211,74.0,2,47,5.0,63.0
1212,71.0,0,55,7.0,64.0
1213,64.0,5,65,8.0,68.0
1214,56.0,8,77,10.0,76.0
1215,74.0,99,135,6.0,85.0
1216,54.0,11,129,10.0,87.0
1217,74.0,2,114,5.0,85.0
1218,74.0,10,127,4.0,98.0
1219,66.0,7,131,8.0,89.0
1220,69.0,5,170,7.0,89.0
1221,73.0,81,102,6.0,63.0
1222,73.0,11,93,4.0,62.0
1223,73.0,11,83,5.0,66.0
1224,74.0,89,66,6.0,64.0
1225,74.0,5,47,4.0,78.0
1226,74.0,4,58,5.0,82.0
1227,66.0,20,80,8.0,82.0
1228,74.0,12,65,7.0,66.0
1229,42.0,1,85,10.0,89.0
1230,68.0,6,111,4.0,82.0
1231,40.0,21,126,10.0,87.0
1232,68.0,93,155,6.0,89.0
1233,59.0,0,131,8.0,82.0
1234,68.0,1,137,5.0,87.0
1235,76.0,8,151,7.0,98.0
1236,69.0,1,78,5.0,63.0
1237,69.0,80,99,6.0,62.0
1238,69.0,17,114,4.0,72.0
1239,71.0,97,56,6.0,68.0
1240,71.0,0,39,5.0,64.0
1241,71.0,21,50,4.0,70.0
1242,52.0,1,55,10.0,80.0
1243,64.0,3,75,7.0,68.0
1244,68.0,2,88,8.0,66.0
1245,50.0,9,123,10.0,87.0
1246,71.0,7,114,8.0,87.0
1247,64.0,3,147,4.0,89.0
1248,64.0,105,167,6.0,95.0
1249,64.0,6,144,5.0,89.0
1250,68.0,4,180,7.0,87.0
1251,49.0,81,90,10.0,64.0
1252,68.0,19,85,5.0,64.0
1253,68.0,1,88,4.0,78.0
1254,68.0,4,114,6.0,62.0
1255,71.0,101,56,6.0,64.0
1256,71.0,1,42,5.0,72.0
1257,47.0,3,63,10.0,80.0
1258,71.0,9,60,4.0,74.0
1259,68.0,6,73,7.0,70.0
1260,62.0,7,84,8.0,80.0
1261,76.0,6,107,5.0,95.0
1262,76.0,0,127,4.0,95.0
1263,49.0,107,143,10.0,100.0
1264,76.0,8,137,6.0,102.0
1265,61.0,2,150,8.0,87.0
1266,69.0,9,176,7.0,87.0
1267,47.0,88,85,10.0,85.0
1268,74.0,1,95,5.0,68.0
1269,74.0,9,124,4.0,68.0
1270,74.0,3,120,6.0,68.0
1271,73.0,2,50,5.0,57.0
1272,64.0,10,65,8.0,85.0
1273,45.0,98,81,10.0,72.0
1274,73.0,3,69,4.0,53.0
1275,73.0,0,71,6.0,48.0
1276,69.0,15,68,7.0,80.0
1277,74.0,3,131,4.0,89.0
1278,74.0,1,130,5.0,87.0
1279,64.0,113,147,8.0,85.0
1280,74.0,1,141,6.0,87.0
1281,69.0,10,152,7.0,93.0
1282,73.0,1,81,5.0,59.0
1283,73.0,97,96,4.0,59.0
1284,73.0,6,124,6.0,59.0
1285,62.0,101,65,8.0,78.0
1286,71.0,3,53,5.0,64.0
1287,71.0,11,58,4.0,64.0
1288,71.0,0,60,6.0,66.0
1289,68.0,3,63,7.0,80.0
1290,52.0,3,451,10.0,91.0
1291,69.0,1,162,4.0,98.0
1292,69.0,115,169,6.0,95.0
1293,69.0,5,185,5.0,95.0
1294,54.0,118,74,10.0,68.0
1295,61.0,5,256,8.0,87.0
1296,78.0,3,44,5.0,63.0
1297,78.0,87,53,6.0,60.0
1298,78.0,2,54,4.0,59.0
1299,52.0,17,54,10.0,85.0
1300,51.0,7,119,10.0,102.0
1301,69.0,97,169,6.0,91.0
1302,69.0,0,173,4.0,93.0
1303,69.0,6,184,5.0,82.0
1304,47.0,103,74,10.0,82.0
1305,78.0,86,54,6.0,60.0
1306,78.0,4,54,5.0,59.0
1307,78.0,11,63,4.0,60.0
1308,49.0,19,67,10.0,72.0
1309,66.0,18,656,7.0,89.0
1310,50.0,18,141,10.0,89.0
1311,68.0,3,171,4.0,85.0
1312,68.0,101,186,6.0,76.0
1313,68.0,4,183,5.0,74.0
1314,52.0,111,93,10.0,82.0
1315,76.0,3,51,5.0,72.0
1316,76.0,97,61,6.0,70.0
1317,76.0,2,68,4.0,70.0
1318,59.0,19,644,8.0,87.0
1319,50.0,24,53,10.0,68.0
1320,49.0,17,134,10.0,98.0
1321,67.0,1,183,4.0,87.0
1322,67.0,2,191,6.0,87.0
1323,67.0,96,201,5.0,85.0
1324,45.0,106,76,10.0,76.0
1325,76.0,7,47,5.0,64.0
1326,76.0,98,60,6.0,76.0
1327,76.0,1,67,4.0,66.0
1328,64.0,5,648,7.0,85.0
1329,47.0,23,49,10.0,68.0
1330,48.0,9,140,10.0,102.0
1331,66.0,104,176,6.0,68.0
1332,66.0,5,184,4.0,82.0
1333,66.0,2,190,5.0,74.0
1334,50.0,105,99,10.0,80.0
1335,57.0,2,641,8.0,98.0
1336,74.0,108,62,5.0,76.0
1337,48.0,5,48,10.0,76.0
1338,74.0,7,57,6.0,70.0
1339,74.0,4,64,4.0,68.0
1340,47.0,3,118,10.0,93.0
1341,56.0,7,118,8.0,98.0
1342,65.0,1,187,5.0,78.0
1343,65.0,3,184,4.0,89.0
1344,59.0,91,94,8.0,74.0
1345,65.0,115,200,6.0,87.0
1346,44.0,3,98,10.0,78.0
1347,45.0,2,43,10.0,60.0
1348,74.0,1,42,5.0,70.0
1349,74.0,4,52,6.0,80.0
1350,57.0,116,68,8.0,70.0
1351,74.0,13,51,4.0,82.0
1352,44.0,111,118,10.0,102.0
1353,59.0,3,136,8.0,91.0
1354,45.0,90,101,10.0,76.0
1355,61.0,21,93,8.0,76.0
1356,47.0,89,58,10.0,74.0
1357,62.0,27,60,8.0,74.0
1358,64.0,5,361,5.0,72.0
1359,64.0,1,383,4.0,85.0
1360,64.0,1,386,6.0,87.0
1361,62.0,2,1184,7.0,85.0
1362,56.0,10,121,8.0,87.0
1363,68.0,85,66,4.0,70.0
1364,68.0,4,70,5.0,62.0
1365,68.0,8,64,6.0,64.0
1366,64.0,12,70,7.0,87.0
1367,59.0,8,100,8.0,82.0
1368,71.0,80,43,4.0,80.0
1369,71.0,7,39,5.0,76.0
1370,71.0,1,41,6.0,70.0
1371,62.0,3,43,8.0,80.0
1372,68.0,12,62,7.0,85.0
1373,74.0,3,133,4.0,93.0
1374,74.0,109,136,5.0,91.0
1375,40.0,121,482,10.0,95.0
1376,74.0,3,140,6.0,93.0
1377,80.0,83,52,5.0,68.0
1378,71.0,6,164,7.0,98.0
1379,80.0,2,65,4.0,72.0
1380,68.0,13,154,8.0,105.0
1381,80.0,6,66,6.0,72.0
1382,83.0,4,43,5.0,80.0
1383,83.0,118,53,4.0,78.0
1384,83.0,1,54,6.0,74.0
1385,68.0,5,64,7.0,80.0
1386,52.0,0,83,10.0,78.0
1387,64.0,3,85,8.0,82.0
1388,74.0,0,128,5.0,91.0
1389,74.0,1,125,6.0,98.0
1390,54.0,0,132,10.0,95.0
1391,74.0,118,138,4.0,89.0
1392,57.0,3,134,8.0,72.0
1393,69.0,3,171,7.0,89.0
1394,73.0,99,77,6.0,63.0
1395,73.0,2,82,5.0,62.0
1396,73.0,8,81,4.0,62.0
1397,71.0,0,55,5.0,66.0
1398,71.0,2,61,6.0,85.0
1399,64.0,5,63,8.0,80.0
1400,71.0,9,52,4.0,85.0
1401,71.0,114,69,7.0,82.0
1402,86.0,7,48,0.0,87.0
1403,50.0,3,58,3.0,102.0
1404,76.0,1,51,2.0,98.0
1405,83.0,7,45,1.0,93.0
1406,56.0,1,90,10.0,82.0
1407,73.0,5,70,5.0,85.0
1408,73.0,7,68,4.0,98.0
1409,73.0,5,78,6.0,91.0
1410,45.0,2,75,3.0,116.0
1411,74.0,9,68,5.0,85.0
1412,85.0,4,114,0.0,100.0
1413,57.0,6,141,10.0,100.0
1414,74.0,7,78,4.0,80.0
1415,74.0,21,95,6.0,85.0
1416,64.0,91,165,8.0,93.0
1417,81.0,3,141,1.0,100.0
1418,69.0,2,179,7.0,89.0
1419,76.0,16,43,5.0,68.0
1420,76.0,3,161,2.0,100.0
1421,76.0,52,71,6.0,91.0
1422,83.0,3,70,0.0,72.0
1423,76.0,10,50,4.0,80.0
1424,81.0,3,45,0.0,72.0
1425,64.0,91,53,7.0,78.0
1426,69.0,1,44,5.0,100.0
1427,76.0,0,45,2.0,89.0
1428,76.0,4,41,1.0,98.0
1429,69.0,1,47,6.0,80.0
1430,69.0,6,43,4.0,100.0
1431,45.0,9,55,3.0,113.0
1432,49.0,2,68,10.0,76.0
1433,61.0,1,87,8.0,82.0
1434,64.0,3,66,6.0,102.0
1435,50.0,2,65,3.0,119.0
1436,64.0,1,65,5.0,95.0
1437,64.0,4,64,4.0,102.0
1438,52.0,4,106,10.0,98.0
1439,83.0,96,114,0.0,98.0
1440,74.0,0,126,2.0,102.0
1441,59.0,3,153,8.0,91.0
1442,81.0,86,54,0.0,68.0
1443,76.0,1,144,1.0,102.0
1444,64.0,4,152,7.0,98.0
1445,69.0,10,55,5.0,80.0
1446,69.0,2,59,6.0,87.0
1447,69.0,7,52,4.0,89.0
1448,74.0,4,39,2.0,80.0
1449,80.0,102,45,0.0,82.0
1450,68.0,2,48,4.0,100.0
1451,68.0,0,48,6.0,95.0
1452,76.0,2,39,1.0,102.0
1453,64.0,0,50,7.0,85.0
1454,50.0,2,45,3.0,119.0
1455,68.0,5,48,5.0,95.0
1456,40.0,3,75,10.0,93.0
1457,59.0,5,63,8.0,87.0
1458,45.0,1,94,3.0,127.0
1459,69.0,2,358,5.0,93.0
1460,69.0,0,375,2.0,110.0
1461,76.0,2,374,1.0,105.0
1462,81.0,4,384,0.0,102.0
1463,64.0,0,381,7.0,100.0
1464,69.0,1,389,4.0,102.0
1465,69.0,1,386,6.0,102.0
1466,61.0,6,387,8.0,107.0
1467,45.0,109,414,10.0,100.0
1468,69.0,5,53,4.0,89.0
1469,69.0,4,54,6.0,85.0
1470,64.0,532,71,8.0,85.0
1471,45.0,8,38,3.0,80.0
1472,69.0,5,65,5.0,85.0
1473,73.0,5,56,7.0,89.0
1474,69.0,8,62,0.0,95.0
1475,69.0,4,51,2.0,91.0
1476,45.0,0,63,10.0,93.0
1477,69.0,6,53,1.0,98.0
1478,45.0,9,37,3.0,100.0
1479,45.0,48,40,3.0,110.0
1480,69.0,2,112,1.0,100.0
1481,57.0,4,147,10.0,98.0
1482,45.0,8,42,3.0,87.0
1483,66.0,1,68,1.0,82.0
1484,56.0,45,86,10.0,78.0
1485,45.0,57,35,3.0,102.0
1486,69.0,4,220,2.0,102.0
1487,69.0,93,263,8.0,87.0
1488,76.0,2,261,4.0,102.0
1489,76.0,5,260,6.0,100.0
1490,76.0,5,260,5.0,91.0
1491,45.0,6,38,3.0,82.0
1492,73.0,4,272,7.0,100.0
1493,76.0,6,280,0.0,98.0
1494,57.0,47,51,10.0,82.0
1495,69.0,14,58,1.0,80.0
1496,45.0,36,36,3.0,102.0
1497,45.0,61,37,3.0,72.0
1498,45.0,5,36,3.0,85.0
1499,66.0,4,76,2.0,98.0
1500,74.0,6,106,1.0,100.0
1501,57.0,4,129,10.0,98.0
1502,45.0,68,36,3.0,87.0
1503,45.0,18,35,3.0,72.0
1504,56.0,8,81,10.0,62.0
1505,62.0,16,65,2.0,100.0
1506,69.0,2,73,1.0,80.0
1507,69.0,2,219,8.0,98.0
1508,78.0,2,242,0.0,85.0
1509,78.0,2,255,6.0,93.0
1510,78.0,1,260,4.0,105.0
1511,78.0,13,245,5.0,100.0
1512,57.0,12,54,10.0,87.0
1513,74.0,3,278,7.0,93.0
1514,45.0,63,78,3.0,78.0
1515,66.0,16,55,2.0,95.0
1516,74.0,9,60,1.0,100.0
1517,45.0,68,72,3.0,59.0
1518,45.0,18,41,3.0,82.0
1519,57.0,34,130,10.0,95.0
1520,45.0,8,73,3.0,91.0
1521,56.0,51,131,10.0,66.0
1522,45.0,102,71,3.0,85.0
1523,57.0,21,83,10.0,80.0
1524,45.0,73,43,3.0,87.0
1525,45.0,30,36,3.0,107.0
1526,69.0,5,427,8.0,87.0
1527,76.0,10,419,4.0,98.0
1528,76.0,0,414,5.0,95.0
1529,73.0,3,433,7.0,98.0
1530,76.0,9,425,6.0,87.0
1531,49.0,43,121,10.0,89.0
1532,69.0,5,475,1.0,102.0
1533,78.0,111,61,4.0,89.0
1534,76.0,5,533,0.0,100.0
1535,78.0,6,63,5.0,89.0
1536,74.0,5,73,7.0,85.0
1537,78.0,10,60,6.0,93.0
1538,69.0,0,567,2.0,100.0
1539,79.0,10,55,4.0,85.0
1540,45.0,52,96,10.0,82.0
1541,76.0,6,68,7.0,82.0
1542,61.0,23,79,8.0,82.0
1543,79.0,15,53,6.0,89.0
1544,79.0,0,59,5.0,89.0
1545,50.0,83,133,10.0,95.0
1546,57.0,5,125,8.0,82.0
1547,74.0,31,130,7.0,89.0
1548,78.0,0,119,5.0,102.0
1549,78.0,10,128,4.0,105.0
1550,78.0,7,129,6.0,105.0
1551,76.0,91,83,4.0,72.0
1552,76.0,10,76,5.0,70.0
1553,76.0,8,78,6.0,68.0
1554,74.0,2,44,4.0,76.0
1555,74.0,6,40,5.0,76.0
1556,74.0,14,49,6.0,78.0
1557,59.0,12,76,8.0,82.0
1558,66.0,3,76,7.0,60.0
1559,47.0,88,106,10.0,87.0
1560,52.0,82,153,10.0,87.0
1561,55.0,25,131,8.0,85.0
1562,64.0,7,137,7.0,82.0
1563,73.0,0,141,4.0,100.0
1564,73.0,0,141,5.0,100.0
1565,73.0,13,131,6.0,100.0
1566,74.0,13,35,6.0,59.0
1567,74.0,103,54,4.0,70.0
1568,74.0,3,51,5.0,70.0
1569,71.0,3,48,5.0,82.0
1570,71.0,8,45,6.0,78.0
1571,71.0,5,64,4.0,87.0
1572,59.0,93,81,8.0,82.0
1573,64.0,2,73,7.0,82.0
1574,55.0,8,88,10.0,78.0
1575,61.0,6,133,8.0,82.0
1576,70.0,2,129,5.0,80.0
1577,70.0,0,130,6.0,93.0
1578,54.0,97,172,10.0,98.0
1579,70.0,5,144,4.0,100.0
1580,71.0,4,84,6.0,66.0
1581,71.0,104,98,4.0,82.0
1582,71.0,5,95,5.0,72.0
1583,73.0,8,60,5.0,60.0
1584,58.0,106,74,8.0,68.0
1585,73.0,5,61,6.0,63.0
1586,73.0,2,69,4.0,63.0
1587,52.0,3,101,10.0,82.0
1588,66.0,18,393,7.0,72.0
1589,50.0,112,130,10.0,89.0
1590,59.0,7,123,8.0,102.0
1591,66.0,3,125,6.0,89.0
1592,66.0,7,117,4.0,95.0
1593,66.0,2,130,5.0,87.0
1594,70.0,94,70,6.0,70.0
1595,61.0,5,66,8.0,72.0
1596,78.0,18,55,7.0,93.0
1597,70.0,3,83,5.0,74.0
1598,70.0,2,89,4.0,70.0
1599,58.0,0,46,8.0,80.0
1600,73.0,95,51,6.0,68.0
1601,76.0,5,58,1.0,95.0
1602,73.0,3,55,5.0,82.0
1603,73.0,1,56,4.0,78.0
1604,76.0,2,59,7.0,74.0
1605,66.0,1,46,2.0,100.0
1606,49.0,2,67,10.0,93.0
1607,66.0,12,61,0.0,98.0
1608,50.0,9,96,3.0,122.0
1609,47.0,4,112,10.0,100.0
1610,46.0,86,85,10.0,76.0
1611,59.0,96,249,8.0,95.0
1612,74.0,3,260,7.0,98.0
1613,74.0,1,278,1.0,98.0
1614,78.0,3,280,4.0,105.0
1615,78.0,2,270,0.0,105.0
1616,78.0,15,287,6.0,107.0
1617,78.0,0,284,5.0,105.0
1618,47.0,116,63,10.0,87.0
1619,66.0,1,376,2.0,102.0
1620,47.0,134,121,10.0,98.0
1621,46.0,85,102,10.0,85.0
1622,71.0,8,232,8.0,91.0
1623,76.0,3,228,7.0,91.0
1624,79.0,2,248,0.0,100.0
1625,79.0,2,246,5.0,91.0
1626,47.0,101,58,10.0,80.0
1627,79.0,3,258,4.0,85.0
1628,76.0,1,262,1.0,100.0
1629,79.0,1,262,6.0,91.0
1630,47.0,144,139,10.0,87.0
1631,50.0,4,111,3.0,122.0
1632,49.0,76,107,10.0,74.0
1633,50.0,111,59,10.0,80.0
1634,71.0,1,401,8.0,87.0
1635,78.0,0,423,5.0,102.0
1636,78.0,3,416,4.0,102.0
1637,78.0,2,432,6.0,102.0
1638,50.0,136,129,10.0,87.0
1639,74.0,0,480,7.0,89.0
1640,49.0,101,91,10.0,72.0
1641,76.0,36,89,5.0,80.0
1642,76.0,15,75,4.0,82.0
1643,78.0,0,558,0.0,102.0
1644,76.0,5,81,6.0,82.0
1645,74.0,9,576,1.0,102.0
1646,66.0,11,618,2.0,119.0
1647,47.0,54,73,10.0,76.0
1648,74.0,37,53,5.0,82.0
1649,74.0,0,52,6.0,68.0
1650,74.0,6,52,4.0,87.0
1651,66.0,7,86,7.0,76.0
1652,59.0,7,89,8.0,85.0
1653,52.0,99,131,10.0,100.0
1654,73.0,15,136,5.0,98.0
1655,73.0,2,131,6.0,98.0
1656,73.0,3,135,4.0,102.0
1657,55.0,13,129,8.0,85.0
1658,64.0,0,161,7.0,72.0
1659,74.0,22,53,5.0,70.0
1660,74.0,10,48,4.0,68.0
1661,74.0,4,52,6.0,70.0
1662,54.0,71,136,10.0,64.0
1663,55.0,84,73,10.0,70.0
1664,71.0,2,49,4.0,78.0
1665,71.0,0,51,6.0,78.0
1666,71.0,3,55,5.0,85.0
1667,64.0,2,82,7.0,76.0
1668,59.0,23,89,8.0,80.0
1669,66.0,2,110,6.0,82.0
1670,61.0,1,114,8.0,87.0
1671,66.0,7,123,4.0,89.0
1672,66.0,5,118,5.0,80.0
1673,54.0,115,140,10.0,102.0
1674,66.0,2,140,7.0,80.0
1675,71.0,10,59,4.0,63.0
1676,71.0,5,71,6.0,68.0
1677,71.0,1,65,5.0,64.0
1678,52.0,93,106,10.0,68.0
1679,70.0,101,62,6.0,74.0
1680,54.0,5,62,10.0,91.0
1681,70.0,7,58,4.0,85.0
1682,61.0,0,61,8.0,82.0
1683,70.0,2,62,5.0,70.0
1684,66.0,19,68,7.0,68.0
1685,47.0,5,136,10.0,102.0
1686,50.0,86,116,10.0,82.0
1687,54.0,101,101,10.0,72.0
1688,71.0,2,400,5.0,87.0
1689,71.0,3,406,4.0,93.0
1690,71.0,105,419,6.0,95.0
1691,62.0,5,412,8.0,95.0
1692,66.0,10,435,7.0,95.0
1693,59.0,139,139,10.0,95.0
1694,74.0,146,64,5.0,78.0
1695,74.0,5,61,4.0,74.0
1696,74.0,4,67,6.0,87.0
1697,66.0,2,55,0.0,85.0
1698,66.0,2,63,8.0,80.0
1699,57.0,75,83,10.0,80.0
1700,73.0,8,58,5.0,76.0
1701,73.0,2,54,6.0,80.0
1702,66.0,13,73,7.0,66.0
1703,73.0,3,63,4.0,78.0
1704,56.0,93,139,10.0,98.0
1705,74.0,20,124,0.0,100.0
1706,74.0,7,124,5.0,98.0
1707,74.0,0,125,6.0,105.0
1708,74.0,1,134,4.0,102.0
1709,73.0,95,63,6.0,62.0
1710,76.0,0,68,0.0,72.0
1711,73.0,10,58,4.0,72.0
1712,73.0,3,73,5.0,62.0
1713,64.0,5,194,8.0,85.0
1714,71.0,6,234,7.0,85.0
1715,74.0,5,43,0.0,70.0
1716,74.0,0,53,6.0,82.0
1717,59.0,93,61,10.0,80.0
1718,74.0,1,55,5.0,78.0
1719,74.0,15,48,4.0,87.0
1720,74.0,4,104,0.0,98.0
1721,59.0,93,141,10.0,89.0
1722,74.0,18,124,5.0,87.0
1723,74.0,1,126,6.0,100.0
1724,74.0,3,129,4.0,85.0
1725,73.0,86,68,6.0,62.0
1726,76.0,1,69,0.0,72.0
1727,73.0,1,78,5.0,62.0
1728,64.0,5,176,8.0,87.0
1729,73.0,11,76,4.0,60.0
1730,68.0,4,190,7.0,80.0
1731,74.0,7,48,0.0,80.0
1732,74.0,2,49,6.0,76.0
1733,74.0,5,54,5.0,76.0
1734,74.0,8,48,4.0,82.0
1735,56.0,99,110,10.0,80.0
1736,74.0,1,116,4.0,91.0
1737,74.0,9,120,5.0,91.0
1738,74.0,1,123,6.0,98.0
1739,52.0,109,156,10.0,87.0
1740,73.0,0,96,4.0,59.0
1741,73.0,73,107,6.0,57.0
1742,73.0,8,117,5.0,57.0
1743,74.0,4,44,6.0,80.0
1744,74.0,3,43,4.0,85.0
1745,74.0,5,47,5.0,82.0
1746,68.0,14,238,7.0,80.0
1747,59.0,11,265,8.0,82.0
1748,56.0,97,77,10.0,63.0
1749,74.0,1,400,0.0,100.0
1750,64.0,12,129,4.0,91.0
1751,64.0,7,125,6.0,93.0
1752,64.0,3,124,5.0,87.0
1753,56.0,114,153,10.0,89.0
1754,71.0,14,137,7.0,85.0
1755,64.0,1,139,8.0,82.0
1756,68.0,71,72,4.0,63.0
1757,68.0,10,63,6.0,64.0
1758,76.0,12,66,0.0,82.0
1759,68.0,5,62,5.0,60.0
1760,71.0,96,48,4.0,70.0
1761,71.0,5,53,6.0,70.0
1762,71.0,3,51,5.0,68.0
1763,74.0,2,79,0.0,89.0
1764,64.0,13,63,8.0,82.0
1765,71.0,3,63,7.0,95.0
1766,80.0,1,68,1.0,105.0
1767,50.0,5,60,3.0,93.0
1768,76.0,1,67,2.0,89.0
1769,52.0,6,88,10.0,82.0
1770,45.0,2,64,3.0,105.0
1771,81.0,4,107,1.0,102.0
1772,76.0,5,112,0.0,93.0
1773,69.0,3,100,2.0,98.0
1774,76.0,5,109,4.0,98.0
1775,49.0,93,129,10.0,95.0
1776,76.0,0,126,5.0,98.0
1777,76.0,0,127,6.0,100.0
1778,64.0,4,148,8.0,82.0
1779,71.0,2,149,7.0,102.0
1780,74.0,14,62,6.0,76.0
1781,74.0,94,81,4.0,68.0
1782,74.0,1,73,5.0,68.0
1783,73.0,0,49,4.0,80.0
1784,69.0,6,50,7.0,78.0
1785,73.0,0,50,6.0,80.0
1786,45.0,7,62,3.0,107.0
1787,78.0,1,63,1.0,85.0
1788,81.0,2,63,0.0,87.0
1789,66.0,2,60,8.0,82.0
1790,73.0,3,58,5.0,78.0
1791,69.0,0,75,2.0,100.0
1792,54.0,98,94,10.0,82.0
1793,50.0,2,81,3.0,107.0
1794,78.0,7,92,1.0,95.0
1795,62.0,4,91,2.0,98.0
1796,50.0,101,133,10.0,89.0
1797,81.0,4,134,0.0,89.0
1798,66.0,0,130,8.0,85.0
1799,71.0,0,134,5.0,98.0
1800,71.0,1,141,4.0,100.0
1801,69.0,3,139,7.0,102.0
1802,71.0,3,134,6.0,102.0
1803,73.0,91,91,4.0,72.0
1804,73.0,13,104,6.0,62.0
1805,73.0,2,116,5.0,64.0
1806,74.0,5,51,6.0,68.0
1807,74.0,0,49,4.0,80.0
1808,74.0,5,49,5.0,70.0
1809,64.0,1,58,8.0,87.0
1810,76.0,4,64,1.0,80.0
1811,52.0,99,76,10.0,89.0
1812,68.0,2,66,7.0,89.0
1813,80.0,7,67,0.0,87.0
1814,45.0,6,67,3.0,116.0
1815,69.0,1,105,2.0,110.0
1816,76.0,2,103,1.0,102.0
1817,69.0,0,106,7.0,102.0
1818,81.0,1,104,0.0,98.0
1819,73.0,0,137,5.0,91.0
1820,73.0,0,139,6.0,98.0
1821,45.0,2,131,10.0,98.0
1822,73.0,112,141,4.0,95.0
1823,64.0,5,135,8.0,105.0
1824,71.0,95,78,4.0,80.0
1825,68.0,5,75,7.0,87.0
1826,71.0,0,88,5.0,58.0
1827,62.0,0,94,8.0,66.0
1828,71.0,2,98,6.0,70.0
1829,73.0,99,53,6.0,82.0
1830,73.0,0,38,4.0,82.0
1831,64.0,2,43,8.0,76.0
1832,73.0,12,46,5.0,68.0
1833,69.0,0,53,7.0,87.0
1834,69.0,1,53,2.0,107.0
1835,45.0,12,46,3.0,107.0
1836,69.0,2,63,1.0,89.0
1837,57.0,0,69,10.0,91.0
1838,76.0,2,67,0.0,85.0
1839,45.0,5,83,3.0,122.0
1840,57.0,99,112,10.0,98.0
1841,64.0,0,120,7.0,95.0
1842,76.0,4,93,0.0,85.0
1843,69.0,3,128,6.0,102.0
1844,69.0,3,126,5.0,95.0
1845,61.0,8,139,8.0,102.0
1846,69.0,5,141,4.0,100.0
1847,69.0,0,81,7.0,82.0
1848,69.0,1,158,1.0,100.0
1849,73.0,76,86,6.0,61.0
1850,73.0,13,82,5.0,63.0
1851,73.0,5,78,4.0,62.0
1852,64.0,2,80,8.0,78.0
1853,69.0,2,230,2.0,110.0
1854,69.0,4,53,8.0,80.0
1855,76.0,1,57,5.0,85.0
1856,76.0,0,59,6.0,85.0
1857,76.0,9,51,4.0,85.0
1858,73.0,104,68,7.0,93.0
1859,52.0,0,86,10.0,89.0
1860,69.0,22,66,0.0,85.0
1861,79.0,8,104,5.0,87.0
1862,49.0,1,121,10.0,95.0
1863,79.0,5,123,4.0,105.0
1864,79.0,6,131,6.0,100.0
1865,79.0,12,115,0.0,102.0
1866,78.0,10,63,4.0,68.0
1867,78.0,89,80,5.0,58.0
1868,78.0,5,72,6.0,60.0
1869,78.0,5,77,0.0,80.0
1870,69.0,4,233,8.0,89.0
1871,76.0,94,276,7.0,85.0
1872,79.0,90,51,5.0,72.0
1873,79.0,12,48,4.0,74.0
1874,79.0,1,43,0.0,72.0
1875,79.0,8,47,6.0,85.0
1876,52.0,11,75,10.0,80.0
1877,79.0,8,138,5.0,82.0
1878,79.0,2,124,4.0,91.0
1879,52.0,95,151,10.0,85.0
1880,79.0,10,118,0.0,95.0
1881,79.0,7,129,6.0,100.0
1882,78.0,88,59,4.0,63.0
1883,69.0,12,176,8.0,89.0
1884,78.0,5,67,0.0,64.0
1885,78.0,5,81,5.0,70.0
1886,78.0,8,81,6.0,63.0
1887,73.0,1,224,7.0,78.0
1888,79.0,2,53,5.0,87.0
1889,79.0,10,60,4.0,89.0
1890,79.0,13,61,6.0,87.0
1891,79.0,6,56,0.0,72.0
1892,49.0,84,100,10.0,78.0
1893,79.0,2,130,4.0,102.0
1894,79.0,3,131,5.0,95.0
1895,79.0,5,129,6.0,102.0
1896,45.0,117,154,10.0,87.0
1897,78.0,98,78,4.0,72.0
1898,78.0,4,99,6.0,68.0
1899,78.0,1,105,5.0,72.0
1900,64.0,0,260,8.0,91.0
1901,73.0,6,267,7.0,78.0
1902,79.0,2,46,4.0,82.0
1903,79.0,1,47,6.0,78.0
1904,79.0,110,60,5.0,80.0
1905,49.0,4,68,10.0,91.0
1906,79.0,2,403,0.0,98.0
1907,49.0,110,124,10.0,95.0
1908,69.0,2,123,8.0,85.0
1909,69.0,3,125,6.0,98.0
1910,69.0,11,129,5.0,87.0
1911,69.0,0,128,4.0,98.0
1912,76.0,5,157,7.0,89.0
1913,73.0,99,85,6.0,60.0
1914,73.0,7,81,5.0,64.0
1915,73.0,2,87,4.0,64.0
1916,81.0,38,67,0.0,72.0
1917,76.0,58,64,6.0,70.0
1918,76.0,17,58,5.0,80.0
1919,76.0,1,55,4.0,72.0
1920,69.0,7,66,8.0,80.0
1921,76.0,5,63,7.0,91.0
1922,45.0,4,62,3.0,102.0
1923,45.0,1,108,10.0,76.0
1924,69.0,13,66,2.0,95.0
1925,79.0,13,63,0.0,82.0
1926,76.0,9,64,1.0,87.0
1927,45.0,1,70,3.0,116.0
1928,81.0,4,127,5.0,98.0
1929,42.0,75,135,10.0,80.0
1930,81.0,5,131,4.0,100.0
1931,69.0,14,119,2.0,89.0
1932,81.0,6,138,6.0,100.0
1933,76.0,4,145,7.0,95.0
1934,76.0,5,117,1.0,91.0
1935,69.0,1,163,8.0,95.0
1936,81.0,5,129,0.0,102.0
1937,79.0,83,75,5.0,80.0
1938,79.0,11,65,4.0,70.0
1939,79.0,2,77,6.0,82.0
1940,79.0,12,68,0.0,66.0
1941,78.0,12,54,4.0,68.0
1942,78.0,0,54,6.0,74.0
1943,78.0,2,56,5.0,80.0
1944,74.0,26,73,7.0,91.0
1945,71.0,3,63,8.0,82.0
1946,78.0,5,61,0.0,70.0
1947,50.0,8,61,3.0,100.0
1948,78.0,2,76,2.0,80.0
1949,74.0,3,80,1.0,85.0
1950,47.0,68,136,10.0,76.0
1951,50.0,1,73,3.0,105.0
1952,74.0,3,87,1.0,82.0
1953,71.0,8,124,8.0,85.0
1954,76.0,1,130,0.0,89.0
1955,79.0,2,121,2.0,100.0
1956,76.0,11,136,4.0,98.0
1957,76.0,3,136,6.0,102.0
1958,74.0,0,155,7.0,89.0
1959,43.0,90,167,10.0,91.0
1960,76.0,2,140,5.0,91.0
1961,78.0,3,80,0.0,76.0
1962,78.0,98,96,4.0,60.0
1963,78.0,5,89,6.0,63.0
1964,78.0,3,117,5.0,61.0
1965,79.0,2,52,0.0,74.0
1966,79.0,103,61,4.0,74.0
1967,79.0,5,59,5.0,68.0
1968,45.0,2,56,3.0,107.0
1969,76.0,0,55,2.0,78.0
1970,69.0,0,62,8.0,76.0
1971,79.0,1,59,6.0,82.0
1972,73.0,1,78,7.0,74.0
1973,69.0,1,72,1.0,82.0
1974,45.0,1,85,10.0,91.0
1975,50.0,2,71,3.0,110.0
1976,74.0,0,94,2.0,93.0
1977,69.0,3,105,1.0,95.0
1978,69.0,0,112,8.0,93.0
1979,38.0,5,114,10.0,98.0
1980,78.0,2,124,0.0,100.0
1981,78.0,121,132,5.0,95.0
1982,78.0,3,127,4.0,100.0
1983,74.0,0,125,7.0,100.0
1984,78.0,0,147,6.0,100.0
1985,73.0,5,68,7.0,63.0
1986,67.0,84,95,8.0,63.0
1987,76.0,14,83,0.0,68.0
1988,76.0,2,115,4.0,64.0
1989,76.0,3,126,5.0,70.0
1990,76.0,1,123,6.0,72.0
1991,78.0,1,44,0.0,80.0
1992,78.0,1,53,4.0,89.0
1993,69.0,101,58,8.0,70.0
1994,78.0,0,54,5.0,89.0
1995,69.0,2,59,2.0,80.0
1996,78.0,5,54,6.0,78.0
1997,50.0,0,56,3.0,98.0
1998,74.0,1,73,7.0,82.0
1999,74.0,2,70,1.0,89.0
2000,50.0,3,96,10.0,87.0
2001,69.0,113,92,7.0,95.0
2002,50.0,3,84,3.0,113.0
2003,66.0,0,111,8.0,78.0
2004,54.0,1,121,10.0,91.0
2005,74.0,2,124,4.0,100.0
2006,74.0,0,131,5.0,91.0
2007,69.0,4,134,1.0,98.0
2008,74.0,4,146,6.0,102.0
2009,66.0,1,153,2.0,98.0
2010,62.0,83,73,8.0,82.0
2011,74.0,4,76,7.0,85.0
2012,78.0,8,83,5.0,68.0
2013,78.0,8,100,4.0,63.0
2014,78.0,3,98,6.0,62.0
2015,74.0,1,265,0.0,100.0
2016,69.0,2,60,8.0,85.0
2017,73.0,0,62,7.0,85.0
2018,76.0,101,67,4.0,80.0
2019,76.0,3,76,5.0,82.0
2020,76.0,8,71,6.0,68.0
2021,57.0,2,88,10.0,85.0
2022,78.0,123,132,4.0,91.0
2023,69.0,5,127,8.0,100.0
2024,78.0,4,134,6.0,102.0
2025,62.0,1,138,10.0,100.0
2026,78.0,0,137,5.0,87.0
2027,80.0,92,84,4.0,76.0
2028,68.0,4,81,8.0,66.0
2029,80.0,18,75,6.0,66.0
2030,80.0,3,108,5.0,66.0
2031,81.0,2,54,4.0,80.0
2032,81.0,10,51,5.0,68.0
2033,66.0,93,81,8.0,85.0
2034,81.0,13,61,6.0,85.0
2035,61.0,6,82,10.0,82.0
2036,74.0,0,429,7.0,95.0
2037,80.0,0,128,4.0,95.0
2038,71.0,101,130,8.0,95.0
2039,80.0,2,118,5.0,100.0
2040,80.0,15,130,6.0,102.0
2041,73.0,2,62,7.0,87.0
2042,81.0,86,80,4.0,80.0
2043,81.0,2,81,6.0,78.0
2044,81.0,13,86,5.0,72.0
2045,74.0,6,62,7.0,85.0
2046,83.0,5,62,5.0,74.0
2047,83.0,101,76,4.0,87.0
2048,69.0,5,59,8.0,80.0
2049,83.0,2,69,6.0,85.0
2050,59.0,5,379,10.0,93.0
2051,56.0,98,78,10.0,70.0
2052,53.0,113,69,10.0,70.0
2053,73.0,114,426,4.0,89.0
2054,73.0,1,419,5.0,80.0
2055,73.0,1,428,6.0,91.0
2056,68.0,12,440,8.0,91.0
2057,65.0,4,448,7.0,91.0
2058,49.0,132,114,10.0,98.0
2059,53.0,104,57,10.0,74.0
2060,80.0,29,64,4.0,80.0
2061,80.0,1,68,5.0,72.0
2062,80.0,12,62,6.0,87.0
2063,49.0,73,61,10.0,95.0
2064,83.0,2,56,4.0,85.0
2065,83.0,6,52,6.0,87.0
2066,83.0,0,54,5.0,85.0
2067,73.0,5,50,7.0,98.0
2068,65.0,28,64,8.0,72.0
2069,54.0,104,128,10.0,93.0
2070,81.0,0,128,4.0,93.0
2071,66.0,5,125,8.0,95.0
2072,81.0,7,129,5.0,89.0
2073,81.0,7,130,6.0,100.0
2074,80.0,9,71,5.0,68.0
2075,80.0,10,82,4.0,72.0
2076,80.0,6,67,6.0,64.0
2077,68.0,77,105,8.0,74.0
2078,69.0,96,65,8.0,82.0
2079,78.0,7,61,4.0,70.0
2080,78.0,7,71,5.0,68.0
2081,42.0,3,91,10.0,91.0
2082,78.0,3,85,6.0,78.0
2083,73.0,10,413,7.0,93.0
2084,57.0,6,104,8.0,76.0
2085,54.0,110,117,10.0,100.0
2086,76.0,5,109,4.0,87.0
2087,76.0,4,137,5.0,85.0
2088,76.0,4,135,6.0,95.0
2089,71.0,0,64,7.0,72.0
2090,74.0,9,71,5.0,74.0
2091,74.0,5,66,6.0,78.0
2092,74.0,91,92,4.0,76.0
2093,52.0,3,58,10.0,80.0
2094,72.0,26,30,6.0,58.0
2095,73.0,5,66,4.0,68.0
2096,69.0,104,71,7.0,85.0
2097,61.0,0,80,8.0,78.0
2098,73.0,4,68,5.0,80.0
2099,50.0,12,118,10.0,100.0
2100,47.0,91,94,10.0,82.0
2101,50.0,116,59,10.0,68.0
2102,66.0,5,390,8.0,91.0
2103,71.0,2,410,4.0,91.0
2104,71.0,0,421,6.0,93.0
2105,71.0,7,421,5.0,95.0
2106,54.0,131,104,10.0,100.0
2107,71.0,87,470,7.0,85.0
2108,78.0,2,60,4.0,78.0
2109,50.0,97,112,10.0,66.0
2110,78.0,48,68,5.0,82.0
2111,78.0,2,67,6.0,82.0
2112,54.0,59,75,10.0,64.0
2113,69.0,23,83,7.0,80.0
2114,73.0,5,80,8.0,82.0
2115,81.0,0,58,6.0,91.0
2116,81.0,25,60,5.0,82.0
2117,81.0,0,61,4.0,87.0
2118,59.0,91,149,10.0,85.0
2119,71.0,22,136,8.0,82.0
2120,80.0,0,133,4.0,100.0
2121,80.0,2,133,6.0,100.0
2122,80.0,3,133,5.0,100.0
2123,74.0,11,163,7.0,102.0
2124,78.0,6,87,6.0,60.0
2125,69.0,83,101,8.0,82.0
2126,78.0,7,99,4.0,60.0
2127,78.0,7,91,5.0,60.0
2128,77.0,5,54,6.0,52.0
2129,77.0,15,63,4.0,66.0
2130,68.0,96,86,8.0,76.0
2131,77.0,2,67,5.0,66.0
2132,61.0,2,101,10.0,74.0
2133,73.0,8,84,7.0,60.0
2134,62.0,96,102,10.0,102.0
2135,66.0,10,121,8.0,95.0
2136,78.0,0,121,6.0,100.0
2137,78.0,9,123,4.0,82.0
2138,78.0,5,130,5.0,87.0
2139,71.0,2,141,7.0,80.0
2140,76.0,1,74,6.0,70.0
2141,76.0,99,87,4.0,68.0
2142,76.0,6,88,5.0,70.0
2143,74.0,0,60,4.0,64.0
2144,74.0,2,65,5.0,63.0
2145,74.0,104,69,6.0,66.0
2146,65.0,9,76,8.0,82.0
2147,71.0,6,75,7.0,72.0
2148,56.0,3,93,10.0,64.0
2149,73.0,5,131,6.0,78.0
2150,73.0,0,133,5.0,78.0
2151,69.0,10,124,7.0,85.0
2152,73.0,3,139,4.0,80.0
2153,57.0,111,149,10.0,89.0
2154,78.0,93,73,5.0,60.0
2155,78.0,2,72,6.0,60.0
2156,78.0,10,69,4.0,58.0
2157,76.0,4,64,5.0,74.0
2158,76.0,1,63,6.0,63.0
2159,76.0,12,56,4.0,70.0
2160,73.0,2,56,7.0,82.0
2161,54.0,100,113,10.0,62.0
2162,66.0,2,438,8.0,89.0
2163,74.0,3,101,6.0,89.0
2164,71.0,0,104,7.0,100.0
2165,74.0,5,118,5.0,82.0
2166,59.0,114,129,10.0,95.0
2167,74.0,10,119,4.0,87.0
2168,73.0,86,103,6.0,57.0
2169,69.0,14,99,7.0,76.0
2170,73.0,1,100,5.0,57.0
2171,73.0,5,96,4.0,56.0
2172,71.0,96,50,6.0,66.0
2173,68.0,1,68,7.0,63.0
2174,71.0,6,48,5.0,64.0
2175,68.0,2,71,8.0,85.0
2176,71.0,2,53,4.0,68.0
2177,53.0,14,88,10.0,74.0
2178,69.0,5,111,6.0,87.0
2179,61.0,104,128,8.0,89.0
2180,69.0,1,119,5.0,82.0
2181,54.0,5,123,10.0,100.0
2182,69.0,9,115,4.0,82.0
2183,66.0,9,154,7.0,74.0
2184,68.0,86,92,6.0,62.0
2185,68.0,15,104,5.0,57.0
2186,68.0,9,101,4.0,64.0
2187,66.0,95,59,6.0,66.0
2188,66.0,10,60,7.0,68.0
2189,66.0,0,71,5.0,62.0
2190,66.0,8,67,4.0,70.0
2191,62.0,0,85,8.0,89.0
2192,47.0,3,95,10.0,70.0
2193,49.0,103,109,10.0,95.0
2194,56.0,3,122,8.0,68.0
2195,66.0,4,135,7.0,89.0
2196,71.0,3,134,6.0,87.0
2197,71.0,9,134,4.0,85.0
2198,71.0,8,148,5.0,72.0
2199,69.0,92,86,6.0,68.0
2200,69.0,11,66,4.0,68.0
2201,69.0,14,97,5.0,70.0
2202,65.0,80,71,7.0,57.0
2203,68.0,7,58,6.0,80.0
2204,68.0,15,46,4.0,76.0
2205,37.0,8,72,10.0,76.0
2206,68.0,2,64,5.0,80.0
2207,61.0,11,98,8.0,80.0
2208,42.0,13,114,10.0,110.0
2209,45.0,108,122,10.0,72.0
2210,49.0,107,70,10.0,85.0
2211,57.0,102,423,8.0,85.0
2212,61.0,7,439,7.0,66.0
2213,66.0,0,430,5.0,87.0
2214,66.0,2,443,6.0,89.0
2215,66.0,0,437,4.0,82.0
2216,54.0,128,113,10.0,98.0
2217,52.0,102,96,10.0,74.0
2218,54.0,120,49,10.0,72.0
2219,50.0,0,43,3.0,102.0
2220,74.0,1,63,0.0,82.0
2221,62.0,14,65,6.0,85.0
2222,66.0,2,53,2.0,102.0
2223,62.0,1,58,5.0,78.0
2224,57.0,5,63,8.0,82.0
2225,69.0,3,62,1.0,85.0
2226,62.0,4,72,7.0,93.0
2227,62.0,1,63,4.0,82.0
2228,50.0,5,43,3.0,102.0
2229,50.0,66,35,3.0,100.0
2230,50.0,0,128,10.0,98.0
2231,50.0,28,39,3.0,95.0
2232,49.0,23,83,10.0,76.0
2233,50.0,48,37,3.0,105.0
2234,74.0,2,230,1.0,100.0
2235,66.0,3,233,2.0,102.0
2236,62.0,0,237,8.0,93.0
2237,69.0,2,236,4.0,93.0
2238,81.0,1,250,0.0,91.0
2239,69.0,1,250,6.0,93.0
2240,69.0,0,248,5.0,93.0
2241,50.0,19,35,3.0,80.0
2242,66.0,114,278,7.0,100.0
2243,50.0,42,61,10.0,82.0
2244,50.0,53,35,3.0,100.0
2245,50.0,53,38,3.0,70.0
2246,50.0,27,39,3.0,102.0
2247,50.0,9,119,10.0,95.0
2248,50.0,14,30,3.0,57.0
2249,50.0,46,32,3.0,82.0
2250,49.0,52,97,10.0,66.0
2251,62.0,0,177,8.0,93.0
2252,62.0,3,192,2.0,95.0
2253,83.0,5,217,0.0,89.0
2254,79.0,0,218,1.0,93.0
2255,71.0,0,211,6.0,100.0
2256,71.0,2,218,4.0,87.0
2257,67.0,1,232,7.0,87.0
2258,50.0,7,36,3.0,57.0
2259,50.0,48,47,10.0,87.0
2260,71.0,5,254,5.0,89.0
2261,50.0,48,35,3.0,64.0
2262,50.0,68,30,3.0,60.0
2263,50.0,0,38,3.0,95.0
2264,50.0,20,155,10.0,85.0
2265,50.0,55,71,3.0,59.0
2266,54.0,30,119,10.0,66.0
2267,50.0,63,61,3.0,52.0
2268,50.0,46,40,3.0,60.0
2269,57.0,38,116,10.0,85.0
2270,50.0,53,30,3.0,55.0
2271,50.0,30,52,3.0,100.0
2272,72.0,6,404,4.0,98.0
2273,72.0,7,417,6.0,95.0
2274,69.0,3,416,2.0,98.0
2275,66.0,0,437,7.0,89.0
2276,78.0,2,442,1.0,87.0
2277,72.0,11,452,5.0,98.0
2278,62.0,35,112,10.0,98.0
2279,57.0,2,480,8.0,89.0
2280,84.0,0,480,0.0,100.0
2281,67.0,109,81,7.0,91.0
2282,71.0,5,77,6.0,82.0
2283,71.0,5,73,4.0,85.0
2284,71.0,11,80,5.0,82.0
2285,83.0,26,63,0.0,82.0
2286,50.0,8,42,3.0,93.0
2287,62.0,8,58,8.0,87.0
2288,69.0,7,70,7.0,70.0
2289,69.0,0,58,4.0,87.0
2290,69.0,5,66,6.0,87.0
2291,78.0,2,53,1.0,85.0
2292,54.0,47,95,10.0,91.0
2293,74.0,10,53,2.0,89.0
2294,69.0,5,67,5.0,87.0
2295,81.0,20,58,0.0,80.0
2296,50.0,2,69,3.0,105.0
2297,55.0,61,134,10.0,91.0
2298,67.0,25,134,7.0,98.0
2299,71.0,2,131,6.0,102.0
2300,71.0,5,126,4.0,105.0
2301,83.0,4,124,0.0,102.0
2302,71.0,0,127,5.0,100.0
2303,62.0,2,160,8.0,91.0
2304,74.0,5,84,6.0,82.0
2305,74.0,88,93,4.0,87.0
2306,81.0,10,85,0.0,72.0
2307,74.0,1,85,5.0,85.0
2308,79.0,11,55,5.0,80.0
2309,79.0,0,58,6.0,85.0
2310,79.0,0,61,4.0,85.0
2311,79.0,10,50,0.0,72.0
2312,52.0,87,89,10.0,85.0
2313,71.0,10,79,7.0,82.0
2314,64.0,7,68,8.0,82.0
2315,74.0,4,336,2.0,98.0
2316,79.0,14,356,1.0,95.0
2317,48.0,92,120,10.0,87.0
2318,69.0,1,89,5.0,89.0
2319,69.0,19,106,6.0,85.0
2320,69.0,4,114,7.0,89.0
2321,81.0,7,116,0.0,102.0
2322,69.0,3,116,4.0,91.0
2323,64.0,1,133,8.0,98.0
2324,79.0,6,76,0.0,78.0
2325,79.0,96,83,6.0,80.0
2326,79.0,1,84,4.0,74.0
2327,79.0,4,85,5.0,70.0
2328,62.0,3,45,2.0,91.0
2329,78.0,97,58,6.0,72.0
2330,74.0,2,49,1.0,85.0
2331,78.0,1,65,4.0,61.0
2332,78.0,0,56,5.0,66.0
2333,69.0,3,59,7.0,85.0
2334,78.0,2,63,0.0,78.0
2335,62.0,5,68,8.0,89.0
2336,50.0,2,76,10.0,91.0
2337,50.0,13,52,3.0,110.0
2338,71.0,0,98,7.0,93.0
2339,50.0,6,85,3.0,113.0
2340,79.0,5,118,6.0,100.0
2341,79.0,0,118,4.0,98.0
2342,79.0,3,118,5.0,93.0
2343,83.0,0,66,4.0,82.0
2344,83.0,97,67,6.0,82.0
2345,74.0,1,68,7.0,80.0
2346,83.0,2,72,5.0,76.0
2347,81.0,7,59,4.0,82.0
2348,72.0,98,66,7.0,82.0
2349,81.0,8,53,6.0,87.0
2350,81.0,10,54,5.0,89.0
2351,79.0,1,346,0.0,98.0
2352,62.0,2,376,2.0,105.0
2353,74.0,5,374,1.0,102.0
2354,62.0,4,406,8.0,87.0
2355,43.0,101,441,10.0,91.0
2356,74.0,116,182,7.0,102.0
2357,67.0,21,80,8.0,80.0
2358,47.0,98,120,10.0,78.0
2359,71.0,24,69,7.0,74.0
2360,50.0,80,96,10.0,78.0
2361,66.0,5,80,8.0,89.0
2362,83.0,3,434,5.0,91.0
2363,83.0,10,445,4.0,98.0
2364,83.0,5,447,6.0,100.0
2365,55.0,100,131,10.0,87.0
2366,71.0,10,128,8.0,89.0
2367,76.0,21,153,7.0,98.0
2368,81.0,2,59,6.0,87.0
2369,81.0,133,66,4.0,82.0
2370,81.0,3,66,5.0,85.0
2371,74.0,87,68,7.0,70.0
2372,79.0,11,53,5.0,85.0
2373,79.0,2,56,4.0,85.0
2374,79.0,2,59,6.0,85.0
2375,71.0,0,75,8.0,89.0
2376,52.0,4,89,10.0,82.0
2377,78.0,3,130,5.0,93.0
2378,78.0,7,134,4.0,98.0
2379,69.0,7,147,8.0,87.0
2380,78.0,8,129,6.0,95.0
2381,79.0,91,74,5.0,82.0
2382,79.0,4,72,6.0,80.0
2383,79.0,7,77,4.0,82.0
2384,76.0,3,61,4.0,82.0
2385,76.0,105,81,5.0,66.0
2386,76.0,1,78,6.0,68.0
2387,67.0,2,83,8.0,76.0
2388,73.0,109,412,7.0,85.0
2389,57.0,0,424,10.0,102.0
2390,78.0,5,116,5.0,87.0
2391,78.0,1,115,6.0,87.0
2392,78.0,125,127,4.0,98.0
2393,66.0,0,148,8.0,89.0
2394,78.0,2,61,7.0,63.0
2395,81.0,101,63,4.0,85.0
2396,81.0,5,60,5.0,80.0
2397,81.0,7,57,6.0,72.0
2398,76.0,3,61,7.0,82.0
2399,40.0,91,78,10.0,91.0
2400,79.0,2,61,4.0,85.0
2401,79.0,3,60,6.0,66.0
2402,79.0,0,66,5.0,80.0
2403,72.0,13,88,8.0,78.0
2404,42.0,113,106,10.0,102.0
2405,69.0,2,114,8.0,95.0
2406,75.0,11,156,7.0,102.0
2407,45.0,82,108,10.0,82.0
2408,48.0,111,96,10.0,87.0
2409,76.0,3,73,7.0,66.0
2410,64.0,27,99,8.0,82.0
2411,81.0,0,401,6.0,89.0
2412,81.0,7,409,4.0,98.0
2413,81.0,5,421,5.0,82.0
2414,54.0,0,110,10.0,89.0
2415,75.0,121,129,7.0,100.0
2416,66.0,8,153,8.0,89.0
2417,79.0,96,63,6.0,64.0
2418,79.0,15,67,5.0,78.0
2419,79.0,2,69,4.0,80.0
2420,78.0,99,57,6.0,72.0
2421,78.0,7,58,4.0,89.0
2422,78.0,12,73,5.0,76.0
2423,78.0,3,65,7.0,74.0
2424,69.0,0,78,8.0,80.0
2425,51.0,1,83,10.0,80.0
2426,76.0,106,126,6.0,95.0
2427,76.0,6,114,4.0,98.0
2428,76.0,5,128,5.0,87.0
2429,78.0,71,70,6.0,60.0
2430,67.0,6,163,8.0,91.0
2431,78.0,17,66,5.0,64.0
2432,78.0,0,68,4.0,60.0
2433,75.0,106,58,6.0,59.0
2434,75.0,13,65,5.0,64.0
2435,75.0,3,57,4.0,63.0
2436,66.0,7,76,8.0,76.0
2437,76.0,11,105,5.0,85.0
2438,76.0,108,131,6.0,89.0
2439,64.0,8,112,8.0,85.0
2440,76.0,1,117,4.0,89.0
2441,71.0,5,477,7.0,82.0
2442,55.0,8,485,10.0,87.0
2443,79.0,87,78,6.0,68.0
2444,79.0,19,64,5.0,76.0
2445,79.0,3,68,4.0,72.0
2446,78.0,98,57,6.0,85.0
2447,78.0,10,55,4.0,91.0
2448,71.0,4,64,7.0,82.0
2449,78.0,1,65,5.0,74.0
2450,39.0,0,76,10.0,91.0
2451,59.0,6,106,8.0,68.0
2452,71.0,5,107,7.0,98.0
2453,40.0,0,107,10.0,100.0
2454,71.0,15,136,8.0,93.0
2455,76.0,94,75,7.0,80.0
2456,43.0,4,71,10.0,102.0
2457,47.0,105,86,10.0,82.0
2458,74.0,14,76,7.0,80.0
2459,66.0,10,104,8.0,78.0
2460,79.0,106,436,6.0,85.0
2461,79.0,0,432,5.0,91.0
2462,79.0,2,442,4.0,89.0
2463,52.0,113,123,10.0,95.0
2464,73.0,3,137,7.0,85.0
2465,64.0,9,158,8.0,89.0
2466,78.0,106,68,6.0,76.0
2467,78.0,17,66,4.0,87.0
2468,78.0,7,59,5.0,87.0
2469,76.0,91,59,6.0,76.0
2470,76.0,10,58,7.0,82.0
2471,76.0,3,61,4.0,82.0
2472,76.0,7,67,5.0,76.0
2473,49.0,5,77,10.0,78.0
2474,67.0,0,87,8.0,76.0
2475,66.0,2,111,8.0,89.0
2476,74.0,106,129,6.0,89.0
2477,74.0,1,134,5.0,85.0
2478,74.0,5,140,4.0,91.0
2479,76.0,2,58,4.0,66.0
2480,76.0,16,63,5.0,70.0
2481,76.0,88,87,6.0,78.0
2482,73.0,3,59,4.0,66.0
2483,73.0,112,72,6.0,60.0
2484,73.0,2,65,5.0,64.0
2485,64.0,5,73,8.0,82.0
2486,74.0,1,123,4.0,85.0
2487,74.0,123,131,5.0,87.0
2488,54.0,1,487,10.0,89.0
2489,62.0,4,129,8.0,87.0
2490,74.0,5,129,6.0,102.0
2491,69.0,9,504,7.0,85.0
2492,78.0,94,83,6.0,59.0
2493,78.0,5,78,5.0,57.0
2494,78.0,0,83,4.0,59.0
2495,76.0,114,65,6.0,68.0
2496,76.0,7,61,4.0,68.0
2497,76.0,3,58,5.0,80.0
2498,69.0,3,72,7.0,66.0
2499,37.0,5,83,10.0,91.0
2500,57.0,1,84,8.0,82.0
2501,78.0,114,114,6.0,102.0
2502,62.0,5,115,8.0,95.0
2503,78.0,2,120,5.0,91.0
2504,78.0,1,116,4.0,100.0
2505,38.0,5,124,10.0,105.0
2506,69.0,2,125,7.0,91.0
2507,79.0,5,76,5.0,85.0
2508,79.0,78,92,6.0,80.0
2509,79.0,11,80,4.0,80.0
2510,81.0,116,45,6.0,63.0
2511,81.0,0,46,5.0,74.0
2512,81.0,8,45,4.0,66.0
2513,62.0,7,75,8.0,80.0
2514,69.0,18,66,7.0,74.0
2515,42.0,0,104,10.0,85.0
2516,71.0,91,134,5.0,87.0
2517,71.0,5,131,6.0,98.0
2518,71.0,7,126,4.0,95.0
2519,43.0,7,127,10.0,87.0
2520,62.0,3,165,8.0,95.0
2521,73.0,5,68,6.0,54.0
2522,73.0,83,89,5.0,57.0
2523,67.0,5,180,7.0,80.0
2524,73.0,6,91,4.0,60.0
2525,74.0,4,61,5.0,63.0
2526,74.0,109,68,6.0,62.0
2527,74.0,4,62,4.0,64.0
2528,47.0,6,83,10.0,85.0
2529,76.0,13,129,5.0,89.0
2530,44.0,2,127,10.0,100.0
2531,76.0,2,127,6.0,93.0
2532,76.0,3,128,4.0,91.0
2533,64.0,7,125,8.0,91.0
2534,71.0,109,172,7.0,82.0
2535,78.0,5,70,4.0,60.0
2536,78.0,97,80,5.0,59.0
2537,78.0,2,81,6.0,57.0
2538,74.0,3,57,5.0,64.0
2539,74.0,5,58,6.0,63.0
2540,74.0,7,63,4.0,80.0
2541,40.0,104,83,10.0,61.0
2542,73.0,0,122,5.0,82.0
2543,73.0,2,124,4.0,85.0
2544,73.0,2,137,6.0,89.0
2545,64.0,1,144,8.0,89.0
2546,45.0,121,151,10.0,95.0
2547,69.0,2,154,7.0,87.0
2548,74.0,101,76,5.0,63.0
2549,74.0,10,79,4.0,66.0
2550,74.0,1,90,6.0,62.0
2551,76.0,18,41,5.0,64.0
2552,76.0,5,43,6.0,61.0
2553,76.0,1,57,4.0,70.0
2554,49.0,105,97,10.0,66.0
2555,46.0,101,136,10.0,93.0
2556,78.0,4,125,5.0,98.0
2557,78.0,5,124,6.0,105.0
2558,78.0,3,121,4.0,100.0
2559,66.0,16,138,8.0,89.0
2560,73.0,4,162,7.0,85.0
2561,79.0,99,73,5.0,70.0
2562,79.0,8,67,4.0,63.0
2563,79.0,0,76,6.0,68.0
2564,76.0,4,46,4.0,82.0
2565,76.0,5,46,5.0,66.0
2566,76.0,11,57,6.0,68.0
2567,42.0,105,71,10.0,70.0
2568,71.0,106,140,7.0,82.0
2569,66.0,3,136,8.0,85.0
2570,74.0,13,141,4.0,93.0
2571,74.0,3,138,6.0,95.0
2572,74.0,4,135,5.0,91.0
2573,47.0,2,155,10.0,85.0
2574,76.0,96,74,4.0,64.0
2575,76.0,1,67,5.0,63.0
2576,76.0,8,74,6.0,70.0
2577,78.0,108,63,4.0,60.0
2578,78.0,7,63,5.0,57.0
2579,78.0,0,66,6.0,60.0
2580,45.0,5,94,10.0,68.0
2581,79.0,11,129,4.0,87.0
2582,79.0,9,136,5.0,82.0
2583,74.0,102,156,7.0,91.0
2584,79.0,0,136,6.0,87.0
2585,62.0,3,138,8.0,91.0
2586,47.0,2,141,10.0,98.0
2587,81.0,100,64,4.0,58.0
2588,81.0,5,61,5.0,63.0
2589,81.0,14,55,6.0,54.0
2590,78.0,106,55,4.0,68.0
2591,78.0,0,50,5.0,76.0
2592,78.0,7,60,6.0,72.0
2593,43.0,5,85,10.0,80.0
2594,76.0,3,121,6.0,100.0
2595,76.0,17,130,4.0,91.0
2596,76.0,0,142,5.0,89.0
2597,76.0,96,167,7.0,89.0
2598,69.0,5,142,8.0,91.0
2599,78.0,2,70,6.0,60.0
2600,49.0,3,168,10.0,102.0
2601,78.0,3,82,4.0,63.0
2602,78.0,83,85,5.0,68.0
2603,79.0,119,63,5.0,76.0
2604,79.0,3,56,6.0,74.0
2605,79.0,4,69,4.0,68.0
2606,47.0,26,95,10.0,70.0
2607,76.0,88,109,7.0,87.0
2608,69.0,6,99,8.0,93.0
2609,81.0,0,118,5.0,82.0
2610,81.0,18,123,6.0,98.0
2611,81.0,2,126,4.0,89.0
2612,49.0,12,123,10.0,102.0
2613,83.0,12,60,4.0,61.0
2614,83.0,1,72,5.0,68.0
2615,83.0,78,85,6.0,74.0
2616,79.0,110,53,6.0,68.0
2617,79.0,6,57,4.0,82.0
2618,79.0,5,52,5.0,89.0
2619,45.0,28,48,10.0,87.0
2620,74.0,80,121,7.0,98.0
2621,69.0,4,116,8.0,100.0
2622,50.0,13,122,10.0,91.0
2623,73.0,66,90,7.0,80.0
2624,67.0,5,101,8.0,76.0
2625,52.0,23,80,10.0,72.0
2626,74.0,2,55,7.0,85.0
2627,69.0,91,67,8.0,78.0
2628,78.0,2,53,1.0,91.0
2629,50.0,12,49,3.0,107.0
2630,74.0,22,75,2.0,87.0
2631,54.0,1,73,10.0,95.0
2632,81.0,5,81,0.0,80.0
2633,78.0,8,431,5.0,89.0
2634,78.0,6,448,6.0,89.0
2635,83.0,1,79,0.0,76.0
2636,78.0,7,440,4.0,93.0
2637,62.0,2,102,2.0,107.0
2638,74.0,1,103,1.0,98.0
2639,50.0,9,106,3.0,116.0
2640,67.0,86,140,8.0,98.0
2641,71.0,6,162,7.0,93.0
2642,85.0,2,70,0.0,89.0
2643,76.0,102,73,1.0,74.0
2644,76.0,7,75,6.0,64.0
2645,76.0,5,66,4.0,82.0
2646,76.0,9,76,5.0,66.0
2647,78.0,1,59,1.0,78.0
2648,74.0,91,68,6.0,80.0
2649,66.0,0,72,8.0,80.0
2650,86.0,8,68,0.0,85.0
2651,74.0,1,74,5.0,74.0
2652,74.0,1,74,4.0,82.0
2653,71.0,3,78,7.0,89.0
2654,62.0,3,83,2.0,110.0
2655,81.0,1,80,0.0,89.0
2656,76.0,3,101,4.0,95.0
2657,76.0,110,124,6.0,95.0
2658,76.0,2,118,5.0,82.0
2659,78.0,2,33,6.0,48.0
2660,55.0,15,508,10.0,91.0
2661,73.0,6,139,7.0,100.0
2662,64.0,0,154,8.0,100.0
2663,76.0,4,171,1.0,98.0
2664,83.0,5,68,0.0,80.0
2665,73.0,81,108,6.0,64.0
2666,73.0,7,102,4.0,72.0
2667,73.0,8,125,5.0,70.0
2668,69.0,4,236,2.0,110.0
2669,74.0,96,54,6.0,63.0
2670,74.0,3,53,5.0,58.0
2671,78.0,4,57,1.0,76.0
2672,74.0,6,68,4.0,57.0
2673,50.0,8,56,3.0,100.0
2674,81.0,1,83,0.0,85.0
2675,54.0,2,93,10.0,80.0
2676,66.0,3,73,8.0,82.0
2677,69.0,1,79,7.0,85.0
2678,79.0,1,57,0.0,87.0
2679,50.0,1,76,3.0,102.0
2680,76.0,1,86,1.0,100.0
2681,69.0,0,118,6.0,89.0
2682,64.0,5,103,8.0,98.0
2683,69.0,8,121,4.0,89.0
2684,71.0,5,108,7.0,89.0
2685,69.0,2,126,5.0,93.0
2686,55.0,104,137,10.0,95.0
2687,74.0,95,59,1.0,64.0
2688,78.0,1,63,0.0,76.0
2689,74.0,3,75,6.0,76.0
2690,74.0,2,91,4.0,74.0
2691,74.0,5,93,5.0,78.0
2692,69.0,1,55,2.0,110.0
2693,69.0,101,58,1.0,87.0
2694,45.0,1,63,3.0,89.0
2695,64.0,5,63,8.0,82.0
2696,73.0,6,71,6.0,76.0
2697,76.0,0,66,0.0,87.0
2698,69.0,2,83,7.0,82.0
2699,73.0,5,73,5.0,82.0
2700,57.0,1,83,10.0,82.0
2701,73.0,4,84,4.0,74.0
2702,62.0,121,93,4.0,95.0
2703,62.0,1,117,6.0,98.0
2704,62.0,0,119,5.0,98.0
2705,50.0,2,110,3.0,116.0
2706,59.0,1,121,10.0,102.0
2707,57.0,86,68,10.0,78.0
2708,62.0,1,235,2.0,116.0
2709,66.0,1,280,1.0,100.0
2710,74.0,1,275,0.0,87.0
2711,74.0,120,63,6.0,82.0
2712,55.0,3,57,10.0,82.0
2713,74.0,1,63,4.0,82.0
2714,74.0,2,69,5.0,78.0
2715,62.0,11,345,8.0,105.0
2716,66.0,5,382,7.0,85.0
2717,54.0,2,131,10.0,102.0
2718,55.0,99,83,10.0,72.0
2719,52.0,111,59,10.0,85.0
2720,66.0,10,53,8.0,82.0
2721,72.0,17,64,7.0,82.0
2722,81.0,124,439,6.0,98.0
2723,81.0,5,434,5.0,98.0
2724,81.0,2,439,4.0,98.0
2725,51.0,114,146,10.0,93.0
2726,83.0,96,69,6.0,72.0
2727,83.0,11,72,4.0,78.0
2728,83.0,2,73,5.0,78.0
2729,81.0,106,51,6.0,85.0
2730,81.0,8,50,5.0,82.0
2731,81.0,2,53,4.0,85.0
2732,59.0,5,73,10.0,78.0
2733,66.0,13,343,8.0,80.0
2734,80.0,2,114,6.0,85.0
2735,80.0,2,119,5.0,87.0
2736,80.0,9,126,4.0,91.0
2737,50.0,107,156,10.0,89.0
2738,76.0,75,81,6.0,66.0
2739,76.0,8,71,4.0,66.0
2740,76.0,20,81,5.0,70.0
2741,78.0,103,60,6.0,63.0
2742,78.0,8,60,5.0,66.0
2743,71.0,12,642,7.0,89.0
2744,59.0,8,74,10.0,80.0
2745,78.0,7,59,4.0,72.0
2746,79.0,108,114,6.0,82.0
2747,79.0,10,126,5.0,93.0
2748,49.0,4,150,10.0,82.0
2749,79.0,5,138,4.0,87.0
2750,81.0,93,60,6.0,63.0
2751,81.0,6,74,5.0,60.0
2752,81.0,9,73,4.0,68.0
2753,79.0,13,45,6.0,63.0
2754,79.0,5,50,5.0,66.0
2755,79.0,14,54,4.0,85.0
2756,57.0,101,88,10.0,85.0
2757,64.0,7,667,8.0,85.0
2758,78.0,3,136,5.0,85.0
2759,78.0,0,141,6.0,89.0
2760,78.0,8,133,4.0,82.0
2761,48.0,3,185,10.0,95.0
2762,74.0,98,86,6.0,70.0
2763,74.0,12,79,4.0,78.0
2764,74.0,8,96,5.0,66.0
2765,76.0,5,43,5.0,64.0
2766,76.0,2,53,4.0,76.0
2767,76.0,2,56,6.0,72.0
2768,69.0,0,660,7.0,80.0
2769,57.0,109,82,10.0,82.0
2770,77.0,116,126,6.0,95.0
2771,77.0,4,125,4.0,100.0
2772,77.0,0,129,5.0,87.0
2773,79.0,93,71,6.0,66.0
2774,47.0,0,171,10.0,89.0
2775,79.0,5,66,5.0,66.0
2776,79.0,8,79,4.0,68.0
2777,62.0,101,614,8.0,82.0
2778,77.0,4,56,6.0,68.0
2779,77.0,11,52,4.0,80.0
2780,77.0,5,53,5.0,72.0
2781,55.0,107,87,10.0,82.0
2782,61.0,2,129,8.0,85.0
2783,76.0,2,118,5.0,76.0
2784,76.0,1,119,4.0,80.0
2785,76.0,10,122,6.0,82.0
2786,46.0,108,147,10.0,85.0
2787,73.0,2,65,5.0,68.0
2788,73.0,8,70,6.0,63.0
2789,73.0,0,78,4.0,64.0
2790,64.0,94,95,8.0,78.0
2791,74.0,4,54,5.0,82.0
2792,74.0,8,46,4.0,82.0
2793,74.0,2,60,6.0,80.0
2794,62.0,8,68,8.0,66.0
2795,55.0,106,88,10.0,87.0
2796,73.0,4,117,6.0,87.0
2797,64.0,0,128,8.0,107.0
2798,73.0,5,124,5.0,89.0
2799,73.0,1,128,4.0,91.0
2800,74.0,86,88,6.0,68.0
2801,66.0,5,96,8.0,85.0
2802,74.0,10,90,5.0,85.0
2803,74.0,0,90,4.0,78.0
2804,67.0,105,54,8.0,72.0
2805,76.0,4,53,4.0,66.0
2806,76.0,4,60,6.0,68.0
2807,76.0,5,51,5.0,68.0
2808,45.0,117,397,10.0,98.0
2809,67.0,4,1176,7.0,87.0
2810,61.0,116,127,8.0,87.0
2811,69.0,5,79,7.0,89.0
2812,49.0,13,79,10.0,87.0
2813,64.0,96,111,8.0,80.0
2814,73.0,5,81,7.0,93.0
2815,52.0,13,75,10.0,98.0
2816,67.0,94,118,8.0,74.0
2817,69.0,14,410,4.0,87.0
2818,69.0,2,435,5.0,85.0
2819,69.0,4,460,6.0,85.0
2820,73.0,116,138,8.0,91.0
2821,76.0,2,137,7.0,100.0
2822,55.0,8,139,10.0,105.0
2823,61.0,120,92,10.0,82.0
2824,64.0,5,56,10.0,85.0
2825,69.0,106,91,8.0,80.0
2826,81.0,12,74,5.0,82.0
2827,73.0,8,92,7.0,74.0
2828,81.0,1,75,6.0,87.0
2829,81.0,3,80,4.0,82.0
2830,55.0,2,101,10.0,98.0
2831,83.0,13,98,6.0,82.0
2832,74.0,10,124,7.0,87.0
2833,62.0,98,136,8.0,89.0
2834,83.0,0,105,5.0,85.0
2835,83.0,11,110,4.0,82.0
2836,54.0,85,83,10.0,89.0
2837,67.0,108,54,8.0,85.0
2838,52.0,3,68,10.0,89.0
2839,76.0,11,75,7.0,82.0
2840,85.0,5,56,5.0,87.0
2841,69.0,1,60,2.0,95.0
2842,85.0,1,53,4.0,91.0
2843,76.0,0,67,1.0,82.0
2844,85.0,14,84,6.0,87.0
2845,45.0,8,73,3.0,105.0
2846,85.0,4,73,0.0,82.0
2847,69.0,88,96,8.0,98.0
2848,81.0,1,78,1.0,102.0
2849,85.0,3,98,5.0,100.0
2850,50.0,2,81,3.0,105.0
2851,86.0,5,106,6.0,102.0
2852,66.0,3,82,2.0,107.0
2853,85.0,5,106,4.0,98.0
2854,74.0,7,124,7.0,87.0
2855,86.0,11,103,0.0,91.0
2856,54.0,2,139,10.0,102.0
2857,86.0,12,83,4.0,93.0
2858,86.0,42,97,5.0,91.0
2859,69.0,24,63,2.0,87.0
2860,79.0,3,65,1.0,87.0
2861,52.0,27,92,10.0,80.0
2862,81.0,0,51,6.0,74.0
2863,78.0,2,58,7.0,78.0
2864,81.0,5,50,4.0,82.0
2865,74.0,15,63,8.0,100.0
2866,74.0,0,68,2.0,87.0
2867,78.0,5,54,1.0,82.0
2868,81.0,2,56,5.0,89.0
2869,81.0,2,64,0.0,80.0
2870,50.0,6,74,3.0,105.0
2871,50.0,85,114,10.0,82.0
2872,79.0,0,73,6.0,85.0
2873,79.0,2,67,4.0,87.0
2874,45.0,1,76,3.0,113.0
2875,78.0,0,73,0.0,85.0
2876,78.0,4,78,1.0,102.0
2877,74.0,2,101,2.0,100.0
2878,57.0,104,113,10.0,102.0
2879,79.0,9,94,5.0,98.0
2880,74.0,3,117,7.0,102.0
2881,78.0,18,83,6.0,95.0
2882,69.0,4,119,8.0,100.0
2883,78.0,2,87,4.0,74.0
2884,78.0,41,63,5.0,82.0
2885,76.0,17,71,6.0,85.0
2886,79.0,4,67,1.0,93.0
2887,73.0,1,81,7.0,64.0
2888,76.0,1,67,0.0,91.0
2889,76.0,10,75,4.0,72.0
2890,67.0,5,75,8.0,82.0
2891,76.0,2,99,5.0,78.0
2892,74.0,89,50,7.0,95.0
2893,74.0,10,56,6.0,87.0
2894,69.0,7,44,2.0,98.0
2895,66.0,3,61,8.0,98.0
2896,74.0,0,51,4.0,93.0
2897,81.0,4,67,1.0,87.0
2898,45.0,3,55,3.0,113.0
2899,74.0,7,50,5.0,91.0
2900,45.0,3,79,10.0,89.0
2901,74.0,3,67,0.0,91.0
2902,50.0,0,75,3.0,122.0
2903,79.0,3,117,1.0,98.0
2904,78.0,75,47,1.0,78.0
2905,79.0,53,48,1.0,80.0
2906,78.0,45,40,1.0,72.0
2907,79.0,33,58,1.0,87.0
2908,74.0,4,390,4.0,98.0
2909,74.0,6,389,5.0,100.0
2910,74.0,7,419,6.0,87.0
2911,69.0,6,406,2.0,110.0
2912,66.0,5,416,8.0,105.0
2913,74.0,6,410,0.0,98.0
2914,69.0,0,474,7.0,102.0
2915,50.0,99,504,10.0,107.0
2916,78.0,45,256,1.0,91.0
2917,64.0,256,71,8.0,85.0
2918,45.0,8,38,3.0,80.0
2919,73.0,0,56,7.0,89.0
2920,45.0,27,63,10.0,93.0
2921,69.0,4,51,2.0,91.0
2922,69.0,15,61,4.0,87.0
2923,69.0,3,60,6.0,89.0
2924,69.0,4,55,1.0,107.0
2925,69.0,2,61,0.0,85.0
2926,69.0,16,57,5.0,85.0
2927,45.0,11,37,3.0,100.0
2928,69.0,6,67,1.0,102.0
2929,45.0,32,40,3.0,110.0
2930,57.0,6,147,10.0,98.0
2931,45.0,8,42,3.0,87.0
2932,66.0,11,67,1.0,102.0
2933,56.0,45,86,10.0,78.0
2934,45.0,47,35,3.0,102.0
2935,69.0,9,220,2.0,102.0
2936,69.0,59,263,8.0,87.0
2937,76.0,4,234,5.0,98.0
2938,45.0,6,38,3.0,82.0
2939,73.0,15,272,7.0,100.0
2940,57.0,47,51,10.0,82.0
2941,76.0,0,256,6.0,100.0
2942,76.0,0,256,0.0,98.0
2943,76.0,6,255,4.0,98.0
2944,69.0,9,68,1.0,82.0
2945,45.0,41,36,3.0,102.0
2946,45.0,61,37,3.0,72.0
2947,45.0,2,36,3.0,85.0
2948,66.0,4,76,2.0,98.0
2949,74.0,2,66,1.0,91.0
2950,57.0,6,129,10.0,98.0
2951,45.0,68,36,3.0,87.0
2952,45.0,19,35,3.0,72.0
2953,69.0,1,61,1.0,89.0
2954,62.0,16,65,2.0,100.0
2955,56.0,8,81,10.0,62.0
2956,69.0,2,219,8.0,98.0
2957,78.0,4,220,0.0,87.0
2958,78.0,13,242,5.0,100.0
2959,78.0,6,242,4.0,100.0
2960,57.0,12,54,10.0,87.0
2961,78.0,0,260,6.0,102.0
2962,74.0,3,278,7.0,93.0
2963,45.0,63,78,3.0,78.0
2964,74.0,10,58,1.0,93.0
2965,66.0,6,55,2.0,95.0
2966,45.0,77,72,3.0,59.0
2967,45.0,16,41,3.0,82.0
2968,57.0,34,130,10.0,95.0
2969,45.0,8,73,3.0,91.0
2970,56.0,51,131,10.0,66.0
2971,45.0,102,71,3.0,85.0
2972,57.0,21,83,10.0,80.0
2973,45.0,73,43,3.0,87.0
2974,45.0,30,36,3.0,107.0
2975,69.0,5,427,8.0,87.0
2976,76.0,3,416,6.0,98.0
2977,76.0,6,422,5.0,98.0
2978,73.0,0,433,7.0,98.0
2979,76.0,11,419,4.0,102.0
2980,76.0,1,435,0.0,105.0
2981,49.0,43,121,10.0,89.0
2982,69.0,12,494,1.0,102.0
2983,78.0,104,62,6.0,89.0
2984,78.0,7,59,4.0,85.0
2985,78.0,5,59,5.0,89.0
2986,74.0,12,73,7.0,85.0
2987,69.0,1,567,2.0,100.0
2988,79.0,3,60,6.0,93.0
2989,45.0,56,96,10.0,82.0
2990,76.0,3,68,7.0,82.0
2991,61.0,23,79,8.0,82.0
2992,79.0,4,56,5.0,89.0
2993,79.0,22,62,4.0,93.0
2994,50.0,82,133,10.0,95.0
2995,74.0,31,130,7.0,89.0
2996,57.0,5,125,8.0,82.0
2997,78.0,1,127,6.0,105.0
2998,78.0,16,115,5.0,105.0
2999,78.0,4,122,4.0,107.0
3000,76.0,86,74,6.0,76.0
3001,76.0,8,68,5.0,66.0
3002,76.0,12,66,4.0,64.0
3003,74.0,4,43,6.0,82.0
3004,74.0,6,43,5.0,80.0
3005,74.0,7,45,4.0,80.0
3006,59.0,12,76,8.0,82.0
3007,66.0,3,76,7.0,60.0
3008,47.0,87,106,10.0,87.0
3009,73.0,1,119,5.0,93.0
3010,52.0,87,153,10.0,87.0
3011,55.0,0,131,8.0,85.0
3012,73.0,5,126,4.0,100.0
3013,73.0,25,140,6.0,98.0
3014,64.0,6,137,7.0,82.0
3015,74.0,5,49,4.0,70.0
3016,74.0,96,63,6.0,76.0
3017,74.0,7,63,5.0,68.0
3018,71.0,4,48,6.0,82.0
3019,71.0,0,51,5.0,72.0
3020,71.0,5,57,4.0,89.0
3021,59.0,112,81,8.0,82.0
3022,64.0,2,73,7.0,82.0
3023,55.0,4,88,10.0,78.0
3024,61.0,6,133,8.0,82.0
3025,70.0,3,125,5.0,85.0
3026,70.0,7,121,4.0,98.0
3027,70.0,7,139,6.0,89.0
3028,54.0,108,172,10.0,98.0
3029,71.0,94,79,5.0,68.0
3030,71.0,11,75,4.0,74.0
3031,71.0,1,86,6.0,70.0
3032,73.0,110,49,5.0,59.0
3033,73.0,0,59,6.0,68.0
3034,73.0,7,55,4.0,66.0
3035,58.0,3,74,8.0,68.0
3036,52.0,3,101,10.0,82.0
3037,66.0,8,393,7.0,72.0
3038,66.0,119,118,6.0,89.0
3039,66.0,2,118,5.0,100.0
3040,66.0,6,114,4.0,98.0
3041,59.0,5,123,8.0,102.0
3042,50.0,1,130,10.0,89.0
3043,70.0,85,80,6.0,70.0
3044,70.0,9,74,5.0,76.0
3045,61.0,3,66,8.0,72.0
3046,70.0,8,70,4.0,68.0
3047,78.0,23,55,7.0,93.0
3048,73.0,87,51,6.0,98.0
3049,58.0,0,46,8.0,80.0
3050,73.0,8,53,5.0,98.0
3051,73.0,3,53,4.0,89.0
3052,66.0,11,46,2.0,100.0
3053,76.0,3,59,7.0,74.0
3054,76.0,2,57,1.0,102.0
3055,49.0,7,67,10.0,93.0
3056,66.0,5,78,0.0,102.0
3057,50.0,6,96,3.0,122.0
3058,47.0,4,112,10.0,100.0
3059,46.0,86,85,10.0,76.0
3060,59.0,91,249,8.0,95.0
3061,74.0,12,260,7.0,98.0
3062,74.0,2,263,1.0,98.0
3063,78.0,5,295,6.0,107.0
3064,47.0,116,63,10.0,87.0
3065,78.0,0,295,4.0,110.0
3066,78.0,3,295,0.0,107.0
3067,78.0,5,318,5.0,102.0
3068,66.0,1,376,2.0,102.0
3069,47.0,134,121,10.0,98.0
3070,46.0,73,102,10.0,85.0
3071,71.0,4,232,8.0,91.0
3072,76.0,5,228,7.0,91.0
3073,47.0,101,58,10.0,80.0
3074,76.0,6,255,1.0,105.0
3075,79.0,4,267,6.0,95.0
3076,79.0,0,253,5.0,89.0
3077,79.0,0,263,4.0,95.0
3078,79.0,13,267,0.0,98.0
3079,79.0,2,103,5.0,91.0
3080,76.0,3,102,1.0,102.0
3081,79.0,7,100,4.0,100.0
3082,79.0,8,130,6.0,98.0
3083,47.0,144,139,10.0,87.0
3084,79.0,8,101,0.0,107.0
3085,50.0,4,111,3.0,122.0
3086,49.0,68,107,10.0,74.0
3087,50.0,68,59,10.0,80.0
3088,71.0,1,401,8.0,87.0
3089,78.0,20,328,5.0,105.0
3090,78.0,5,320,4.0,110.0
3091,78.0,0,325,6.0,102.0
3092,50.0,136,129,10.0,87.0
3093,74.0,2,480,7.0,89.0
3094,49.0,101,91,10.0,72.0
3095,74.0,3,424,1.0,102.0
3096,78.0,15,409,0.0,102.0
3097,76.0,4,73,4.0,85.0
3098,76.0,37,78,6.0,82.0
3099,76.0,5,73,5.0,82.0
3100,66.0,3,618,2.0,119.0
3101,47.0,64,73,10.0,76.0
3102,74.0,2,56,6.0,93.0
3103,74.0,4,57,5.0,91.0
3104,74.0,1,63,4.0,95.0
3105,66.0,44,86,7.0,76.0
3106,59.0,6,89,8.0,85.0
3107,52.0,99,131,10.0,100.0
3108,73.0,1,125,4.0,98.0
3109,73.0,5,128,6.0,98.0
3110,73.0,3,124,5.0,91.0
3111,55.0,9,129,8.0,85.0
3112,64.0,15,161,7.0,72.0
3113,74.0,19,58,6.0,80.0
3114,74.0,9,49,4.0,68.0
3115,74.0,3,58,5.0,74.0
3116,54.0,71,136,10.0,64.0
3117,55.0,89,73,10.0,70.0
3118,71.0,20,55,6.0,87.0
3119,71.0,5,52,4.0,89.0
3120,71.0,0,58,5.0,85.0
3121,64.0,2,82,7.0,76.0
3122,59.0,3,89,8.0,80.0
3123,66.0,1,99,6.0,89.0
3124,66.0,1,108,5.0,89.0
3125,66.0,4,106,4.0,89.0
3126,61.0,1,114,8.0,87.0
3127,54.0,115,140,10.0,102.0
3128,66.0,9,140,7.0,80.0
3129,71.0,10,78,6.0,62.0
3130,71.0,3,77,5.0,56.0
3131,71.0,5,72,4.0,74.0
3132,52.0,94,106,10.0,68.0
3133,54.0,104,62,10.0,91.0
3134,70.0,2,53,5.0,87.0
3135,61.0,9,61,8.0,82.0
3136,70.0,3,60,6.0,95.0
3137,70.0,0,64,4.0,95.0
3138,66.0,14,68,7.0,68.0
3139,47.0,110,136,10.0,102.0
3140,50.0,86,116,10.0,82.0
3141,54.0,101,101,10.0,72.0
3142,71.0,5,416,4.0,93.0
3143,71.0,3,424,6.0,91.0
3144,71.0,0,424,5.0,95.0
3145,62.0,5,412,8.0,95.0
3146,66.0,7,435,7.0,95.0
3147,59.0,139,139,10.0,95.0
3148,74.0,156,61,4.0,85.0
3149,74.0,0,63,5.0,85.0
3150,74.0,5,61,6.0,87.0
3151,66.0,2,63,8.0,80.0
3152,57.0,69,83,10.0,80.0
3153,66.0,13,73,7.0,66.0
3154,73.0,20,60,4.0,82.0
3155,73.0,0,54,5.0,80.0
3156,66.0,3,56,0.0,87.0
3157,73.0,4,59,6.0,80.0
3158,56.0,81,139,10.0,98.0
3159,74.0,1,113,0.0,105.0
3160,74.0,4,127,4.0,102.0
3161,74.0,2,133,5.0,93.0
3162,74.0,5,131,6.0,102.0
3163,73.0,3,58,6.0,72.0
3164,73.0,2,61,5.0,64.0
3165,73.0,103,65,4.0,76.0
3166,76.0,8,53,0.0,85.0
3167,64.0,13,194,8.0,85.0
3168,71.0,26,234,7.0,85.0
3169,59.0,73,61,10.0,80.0
3170,74.0,1,47,0.0,95.0
3171,74.0,30,53,5.0,80.0
3172,74.0,5,53,6.0,80.0
3173,74.0,0,58,4.0,91.0
3174,59.0,78,141,10.0,89.0
3175,74.0,0,98,0.0,102.0
3176,74.0,2,121,5.0,85.0
3177,74.0,6,126,6.0,102.0
3178,74.0,5,126,4.0,98.0
3179,64.0,31,176,8.0,87.0
3180,73.0,1,67,5.0,66.0
3181,76.0,2,66,0.0,76.0
3182,73.0,100,74,6.0,66.0
3183,68.0,4,190,7.0,80.0
3184,73.0,3,72,4.0,66.0
3185,74.0,31,54,5.0,85.0
3186,74.0,3,60,0.0,100.0
3187,74.0,2,59,6.0,89.0
3188,74.0,10,56,4.0,87.0
3189,56.0,79,110,10.0,80.0
3190,74.0,6,106,5.0,95.0
3191,74.0,2,122,6.0,100.0
3192,52.0,85,156,10.0,87.0
3193,74.0,3,131,4.0,95.0
3194,73.0,91,101,5.0,55.0
3195,73.0,12,92,6.0,63.0
3196,73.0,1,95,4.0,62.0
3197,68.0,0,238,7.0,80.0
3198,59.0,23,265,8.0,82.0
3199,56.0,74,77,10.0,63.0
3200,74.0,1,43,4.0,89.0
3201,74.0,31,49,5.0,82.0
3202,74.0,5,53,6.0,82.0
3203,74.0,3,412,0.0,98.0
3204,56.0,89,153,10.0,89.0
3205,64.0,0,123,5.0,98.0
3206,71.0,36,137,7.0,85.0
3207,64.0,5,132,6.0,98.0
3208,64.0,1,139,8.0,82.0
3209,64.0,2,132,4.0,102.0
3210,68.0,94,70,5.0,62.0
3211,68.0,5,76,4.0,63.0
3212,68.0,2,76,6.0,63.0
3213,76.0,31,71,0.0,98.0
3214,71.0,10,60,5.0,80.0
3215,71.0,5,60,6.0,85.0
3216,71.0,4,56,4.0,82.0
3217,64.0,1,63,8.0,82.0
3218,71.0,0,63,7.0,95.0
3219,50.0,5,60,3.0,93.0
3220,76.0,1,67,2.0,89.0
3221,52.0,68,88,10.0,82.0
3222,74.0,9,81,0.0,95.0
3223,80.0,13,71,1.0,102.0
3224,45.0,2,64,3.0,105.0
3225,69.0,8,100,2.0,98.0
3226,49.0,71,129,10.0,95.0
3227,81.0,1,105,1.0,87.0
3228,76.0,10,106,0.0,102.0
3229,76.0,4,119,5.0,100.0
3230,76.0,3,126,6.0,98.0
3231,64.0,13,148,8.0,82.0
3232,71.0,2,149,7.0,102.0
3233,76.0,0,134,4.0,100.0
3234,74.0,4,58,4.0,76.0
3235,74.0,98,70,5.0,74.0
3236,74.0,8,75,6.0,66.0
3237,69.0,8,50,7.0,78.0
3238,45.0,7,62,3.0,107.0
3239,66.0,2,60,8.0,82.0
3240,69.0,1,75,2.0,100.0
3241,81.0,7,65,0.0,93.0
3242,73.0,7,59,5.0,91.0
3243,73.0,5,56,4.0,89.0
3244,54.0,79,94,10.0,82.0
3245,73.0,1,58,6.0,93.0
3246,78.0,2,61,1.0,89.0
3247,50.0,2,81,3.0,107.0
3248,62.0,7,91,2.0,98.0
3249,50.0,82,133,10.0,89.0
3250,78.0,2,99,1.0,95.0
3251,81.0,0,121,0.0,98.0
3252,66.0,0,130,8.0,85.0
3253,69.0,15,139,7.0,102.0
3254,71.0,7,135,5.0,105.0
3255,71.0,0,137,4.0,105.0
3256,71.0,3,137,6.0,107.0
3257,73.0,0,75,6.0,64.0
3258,73.0,8,79,4.0,64.0
3259,73.0,106,124,5.0,68.0
3260,64.0,10,58,8.0,87.0
3261,52.0,79,76,10.0,89.0
3262,68.0,2,66,7.0,89.0
3263,74.0,5,61,5.0,82.0
3264,74.0,10,56,4.0,82.0
3265,74.0,3,62,6.0,89.0
3266,76.0,3,66,1.0,102.0
3267,80.0,0,76,0.0,91.0
3268,45.0,1,67,3.0,116.0
3269,69.0,104,105,2.0,110.0
3270,69.0,2,106,7.0,102.0
3271,81.0,1,111,0.0,95.0
3272,76.0,5,126,1.0,105.0
3273,45.0,0,131,10.0,98.0
3274,73.0,0,128,5.0,102.0
3275,64.0,5,135,8.0,105.0
3276,73.0,6,123,6.0,102.0
3277,73.0,2,139,4.0,105.0
3278,71.0,0,73,6.0,66.0
3279,68.0,5,75,7.0,87.0
3280,71.0,1,82,5.0,70.0
3281,62.0,91,94,8.0,66.0
3282,71.0,6,93,4.0,82.0
3283,64.0,106,43,8.0,76.0
3284,69.0,0,53,7.0,87.0
3285,73.0,0,47,4.0,82.0
3286,69.0,0,53,2.0,107.0
3287,73.0,0,46,6.0,93.0
3288,45.0,5,46,3.0,107.0
3289,73.0,2,51,5.0,93.0
3290,69.0,0,51,1.0,102.0
3291,57.0,3,69,10.0,91.0
3292,76.0,5,68,0.0,87.0
3293,45.0,0,83,3.0,122.0
3294,57.0,0,112,10.0,98.0
3295,76.0,1,94,0.0,100.0
3296,64.0,101,120,7.0,95.0
3297,69.0,0,130,6.0,98.0
3298,61.0,8,139,8.0,102.0
3299,69.0,5,135,4.0,98.0
3300,69.0,0,133,5.0,98.0
3301,69.0,81,81,7.0,82.0
3302,73.0,9,76,6.0,64.0
3303,69.0,4,171,1.0,105.0
3304,64.0,8,80,8.0,78.0
3305,73.0,5,77,5.0,61.0
3306,73.0,3,90,4.0,63.0
3307,69.0,8,230,2.0,110.0
3308,69.0,0,53,8.0,80.0
3309,73.0,99,68,7.0,93.0
3310,76.0,0,61,4.0,89.0
3311,76.0,5,61,6.0,87.0
3312,76.0,0,65,5.0,85.0
3313,69.0,10,65,0.0,89.0
3314,52.0,4,86,10.0,89.0
3315,79.0,0,104,5.0,100.0
3316,79.0,4,111,0.0,100.0
3317,79.0,0,116,6.0,102.0
3318,49.0,9,121,10.0,95.0
3319,79.0,2,131,4.0,100.0
3320,78.0,4,59,5.0,68.0
3321,78.0,5,67,6.0,68.0
3322,78.0,102,80,4.0,72.0
3323,78.0,2,78,0.0,78.0
3324,69.0,0,233,8.0,89.0
3325,76.0,111,276,7.0,85.0
3326,79.0,0,47,4.0,87.0
3327,79.0,114,53,0.0,76.0
3328,79.0,7,46,6.0,82.0
3329,79.0,2,53,5.0,78.0
3330,52.0,4,75,10.0,80.0
3331,79.0,0,115,0.0,98.0
3332,79.0,10,118,5.0,85.0
3333,79.0,2,123,4.0,102.0
3334,52.0,107,151,10.0,85.0
3335,79.0,0,128,6.0,102.0
3336,78.0,95,54,0.0,64.0
3337,78.0,8,60,6.0,87.0
3338,78.0,5,71,4.0,78.0
3339,69.0,10,176,8.0,89.0
3340,78.0,3,78,5.0,87.0
3341,73.0,3,224,7.0,78.0
3342,79.0,2,60,0.0,68.0
3343,79.0,15,50,5.0,82.0
3344,79.0,9,53,6.0,89.0
3345,79.0,5,62,4.0,91.0
3346,49.0,94,100,10.0,78.0
3347,79.0,2,123,4.0,102.0
3348,79.0,0,126,5.0,100.0
3349,79.0,5,123,6.0,110.0
3350,45.0,8,154,10.0,87.0
3351,78.0,1,90,5.0,66.0
3352,78.0,4,93,6.0,82.0
3353,78.0,89,100,4.0,70.0
3354,64.0,2,260,8.0,91.0
3355,73.0,6,267,7.0,78.0
3356,79.0,0,50,4.0,74.0
3357,79.0,116,60,5.0,82.0
3358,79.0,2,53,6.0,89.0
3359,49.0,10,68,10.0,91.0
3360,79.0,109,467,0.0,100.0
3361,49.0,111,124,10.0,95.0
3362,69.0,3,123,8.0,85.0
3363,69.0,11,130,4.0,98.0
3364,69.0,2,128,5.0,89.0
3365,69.0,4,132,6.0,93.0
3366,76.0,1,157,7.0,89.0
3367,73.0,12,68,6.0,60.0
3368,73.0,103,88,4.0,63.0
3369,73.0,5,89,5.0,47.0
3370,81.0,26,61,0.0,76.0
3371,76.0,17,67,4.0,80.0
3372,76.0,1,65,6.0,85.0
3373,69.0,0,66,8.0,80.0
3374,76.0,6,67,5.0,66.0
3375,76.0,6,63,7.0,91.0
3376,45.0,4,62,3.0,102.0
3377,45.0,59,108,10.0,76.0
3378,76.0,0,65,1.0,100.0
3379,79.0,8,57,0.0,87.0
3380,69.0,13,66,2.0,95.0
3381,45.0,6,70,3.0,116.0
3382,42.0,89,135,10.0,80.0
3383,81.0,3,130,5.0,98.0
3384,81.0,7,126,6.0,102.0
3385,76.0,15,114,1.0,107.0
3386,81.0,0,136,4.0,102.0
3387,69.0,0,119,2.0,89.0
3388,76.0,4,145,7.0,95.0
3389,81.0,5,129,0.0,102.0
3390,69.0,5,163,8.0,95.0
3391,79.0,4,58,6.0,74.0
3392,79.0,83,70,4.0,78.0
3393,79.0,1,67,5.0,72.0
3394,79.0,14,72,0.0,82.0
3395,78.0,4,61,6.0,89.0
3396,74.0,26,73,7.0,91.0
3397,78.0,0,65,0.0,85.0
3398,78.0,0,65,4.0,89.0
3399,71.0,3,63,8.0,82.0
3400,78.0,3,73,5.0,85.0
3401,74.0,5,79,1.0,95.0
3402,50.0,8,61,3.0,100.0
3403,78.0,12,76,2.0,80.0
3404,47.0,74,136,10.0,76.0
3405,50.0,9,73,3.0,105.0
3406,74.0,5,101,1.0,98.0
3407,71.0,8,124,8.0,85.0
3408,76.0,0,128,0.0,93.0
3409,76.0,2,134,6.0,98.0
3410,76.0,3,129,5.0,100.0
3411,79.0,2,121,2.0,100.0
3412,76.0,2,132,4.0,100.0
3413,74.0,0,155,7.0,89.0
3414,43.0,90,167,10.0,91.0
3415,78.0,80,76,0.0,80.0
3416,78.0,13,81,6.0,66.0
3417,78.0,7,79,4.0,74.0
3418,78.0,1,90,5.0,70.0
3419,79.0,108,55,6.0,85.0
3420,79.0,2,61,5.0,76.0
3421,79.0,1,52,0.0,80.0
3422,79.0,1,60,4.0,82.0
3423,45.0,2,56,3.0,107.0
3424,76.0,0,55,2.0,78.0
3425,69.0,5,62,8.0,76.0
3426,69.0,1,68,1.0,82.0
3427,73.0,1,78,7.0,74.0
3428,45.0,1,85,10.0,91.0
3429,50.0,2,71,3.0,110.0
3430,74.0,2,94,2.0,93.0
3431,69.0,5,112,8.0,93.0
3432,69.0,1,119,1.0,100.0
3433,38.0,0,114,10.0,98.0
3434,78.0,1,128,5.0,105.0
3435,78.0,2,123,0.0,100.0
3436,78.0,4,132,4.0,105.0
3437,78.0,118,136,6.0,102.0
3438,74.0,0,125,7.0,100.0
3439,76.0,10,69,0.0,68.0
3440,73.0,5,68,7.0,63.0
3441,67.0,87,95,8.0,63.0
3442,76.0,6,95,5.0,66.0
3443,76.0,2,103,6.0,63.0
3444,76.0,1,108,4.0,63.0
3445,69.0,102,58,8.0,70.0
3446,78.0,2,48,0.0,89.0
3447,78.0,1,51,5.0,89.0
3448,78.0,4,56,4.0,85.0
3449,69.0,0,59,2.0,80.0
3450,50.0,1,56,3.0,98.0
3451,78.0,1,65,6.0,93.0
3452,74.0,2,66,1.0,87.0
3453,74.0,1,73,7.0,82.0
3454,50.0,3,96,10.0,87.0
3455,69.0,113,92,7.0,95.0
3456,50.0,0,84,3.0,113.0
3457,66.0,0,111,8.0,78.0
3458,54.0,1,121,10.0,91.0
3459,74.0,6,134,6.0,102.0
3460,74.0,5,137,4.0,100.0
3461,74.0,3,136,5.0,102.0
3462,66.0,1,153,2.0,98.0
3463,62.0,67,73,8.0,82.0
3464,69.0,5,151,1.0,102.0
3465,78.0,2,71,6.0,64.0
3466,74.0,12,76,7.0,85.0
3467,78.0,3,84,4.0,64.0
3468,78.0,12,72,5.0,74.0
3469,69.0,97,60,8.0,85.0
3470,74.0,11,258,0.0,102.0
3471,73.0,3,62,7.0,85.0
3472,76.0,4,68,6.0,82.0
3473,76.0,11,60,4.0,87.0
3474,57.0,2,88,10.0,85.0
3475,76.0,5,70,5.0,80.0
3476,69.0,116,127,8.0,100.0
3477,78.0,1,135,6.0,102.0
3478,62.0,1,138,10.0,100.0
3479,78.0,13,129,5.0,105.0
3480,78.0,2,135,4.0,93.0
3481,68.0,0,81,8.0,66.0
3482,80.0,84,85,6.0,78.0
3483,80.0,22,77,5.0,80.0
3484,80.0,5,79,4.0,68.0
3485,81.0,12,60,6.0,87.0
3486,66.0,87,81,8.0,85.0
3487,81.0,13,63,5.0,87.0
3488,81.0,0,60,4.0,82.0
3489,61.0,6,82,10.0,82.0
3490,74.0,0,429,7.0,95.0
3491,71.0,101,130,8.0,95.0
3492,80.0,9,116,5.0,105.0
3493,80.0,16,139,6.0,105.0
3494,80.0,6,123,4.0,102.0
3495,73.0,86,62,7.0,87.0
3496,81.0,4,86,6.0,78.0
3497,81.0,8,78,5.0,78.0
3498,81.0,18,80,4.0,74.0
3499,74.0,79,62,7.0,85.0
3500,69.0,1,59,8.0,80.0
3501,83.0,11,63,6.0,82.0
3502,83.0,5,63,5.0,80.0
3503,83.0,13,68,4.0,89.0
3504,59.0,6,379,10.0,93.0
3505,56.0,79,78,10.0,70.0
3506,53.0,113,69,10.0,70.0
3507,73.0,15,402,5.0,89.0
3508,68.0,108,440,8.0,91.0
3509,73.0,5,416,4.0,82.0
3510,73.0,5,447,6.0,80.0
3511,65.0,0,448,7.0,91.0
3512,49.0,132,114,10.0,98.0
3513,53.0,104,57,10.0,74.0
3514,80.0,0,68,5.0,82.0
3515,80.0,36,68,4.0,82.0
3516,80.0,8,68,6.0,87.0
3517,49.0,71,61,10.0,95.0
3518,73.0,0,50,7.0,98.0
3519,65.0,28,64,8.0,72.0
3520,83.0,12,56,5.0,87.0
3521,83.0,1,60,4.0,87.0
3522,83.0,4,63,6.0,95.0
3523,54.0,100,128,10.0,93.0
3524,66.0,5,125,8.0,95.0
3525,81.0,7,125,5.0,98.0
3526,81.0,0,131,6.0,98.0
3527,81.0,9,130,4.0,102.0
3528,80.0,7,66,6.0,80.0
3529,80.0,3,70,4.0,64.0
3530,68.0,75,105,8.0,74.0
3531,80.0,17,101,5.0,60.0
3532,69.0,94,65,8.0,82.0
3533,78.0,0,58,5.0,68.0
3534,42.0,10,91,10.0,91.0
3535,78.0,9,83,6.0,78.0
3536,78.0,8,80,4.0,80.0
3537,73.0,10,413,7.0,93.0
3538,57.0,6,104,8.0,76.0
3539,54.0,103,117,10.0,100.0
3540,76.0,7,106,5.0,89.0
3541,76.0,15,133,6.0,91.0
3542,76.0,0,133,4.0,98.0
3543,74.0,94,62,6.0,80.0
3544,71.0,2,64,7.0,72.0
3545,74.0,3,58,4.0,82.0
3546,74.0,7,63,5.0,82.0
3547,52.0,8,58,10.0,80.0
3548,69.0,0,71,7.0,85.0
3549,61.0,94,80,8.0,78.0
3550,73.0,14,60,5.0,85.0
3551,73.0,0,68,6.0,91.0
3552,73.0,13,63,4.0,85.0
3553,50.0,12,118,10.0,100.0
3554,47.0,76,94,10.0,82.0
3555,50.0,116,59,10.0,68.0
3556,66.0,5,390,8.0,91.0
3557,71.0,12,403,5.0,100.0
3558,71.0,4,405,6.0,102.0
3559,71.0,8,404,4.0,98.0
3560,54.0,131,104,10.0,100.0
3561,71.0,90,470,7.0,85.0
3562,78.0,34,67,4.0,70.0
3563,78.0,0,74,6.0,74.0
3564,78.0,10,64,5.0,87.0
3565,50.0,97,112,10.0,66.0
3566,54.0,67,75,10.0,64.0
3567,69.0,23,83,7.0,80.0
3568,73.0,5,80,8.0,82.0
3569,81.0,0,63,6.0,89.0
3570,81.0,19,65,4.0,91.0
3571,81.0,0,66,5.0,87.0
3572,59.0,97,149,10.0,85.0
3573,80.0,5,124,6.0,102.0
3574,71.0,22,136,8.0,82.0
3575,80.0,5,131,5.0,100.0
3576,80.0,7,131,4.0,105.0
3577,74.0,1,163,7.0,102.0
3578,78.0,7,81,6.0,66.0
3579,78.0,78,100,5.0,64.0
3580,69.0,3,101,8.0,82.0
3581,78.0,10,106,4.0,63.0
3582,77.0,10,60,5.0,78.0
3583,77.0,2,64,6.0,78.0
3584,68.0,99,86,8.0,76.0
3585,77.0,5,76,4.0,82.0
3586,61.0,2,101,10.0,74.0
3587,73.0,13,84,7.0,60.0
3588,62.0,96,102,10.0,102.0
3589,66.0,10,121,8.0,95.0
3590,78.0,3,122,5.0,91.0
3591,78.0,4,130,6.0,87.0
3592,78.0,3,131,4.0,87.0
3593,71.0,6,141,7.0,80.0
3594,76.0,98,81,5.0,76.0
3595,76.0,5,86,6.0,72.0
3596,76.0,3,92,4.0,68.0
3597,74.0,108,70,5.0,72.0
3598,74.0,6,66,6.0,68.0
3599,74.0,3,71,4.0,80.0
3600,65.0,0,76,8.0,82.0
3601,71.0,6,75,7.0,72.0
3602,56.0,1,93,10.0,64.0
3603,73.0,2,128,6.0,82.0
3604,73.0,2,132,5.0,85.0
3605,69.0,8,124,7.0,85.0
3606,57.0,111,149,10.0,89.0
3607,73.0,5,138,4.0,89.0
3608,78.0,90,73,6.0,66.0
3609,78.0,0,68,5.0,70.0
3610,78.0,10,88,4.0,63.0
3611,76.0,11,59,6.0,80.0
3612,73.0,2,56,7.0,82.0
3613,76.0,2,63,4.0,85.0
3614,76.0,6,67,5.0,80.0
3615,54.0,105,113,10.0,62.0
3616,74.0,7,79,6.0,93.0
3617,66.0,3,438,8.0,89.0
3618,74.0,7,102,5.0,91.0
3619,71.0,4,104,7.0,100.0
3620,74.0,4,104,4.0,93.0
3621,59.0,112,129,10.0,95.0
3622,73.0,93,76,6.0,57.0
3623,73.0,8,91,4.0,64.0
3624,69.0,3,99,7.0,76.0
3625,73.0,2,89,5.0,53.0
3626,71.0,11,46,6.0,64.0
3627,68.0,1,68,7.0,63.0
3628,68.0,94,71,8.0,85.0
3629,71.0,13,47,5.0,80.0
3630,71.0,0,50,4.0,78.0
3631,53.0,3,88,10.0,74.0
3632,69.0,9,115,6.0,87.0
3633,61.0,99,128,8.0,89.0
3634,69.0,0,118,5.0,85.0
3635,69.0,2,119,4.0,87.0
3636,54.0,6,123,10.0,100.0
3637,66.0,5,154,7.0,74.0
3638,68.0,98,101,6.0,64.0
3639,68.0,4,104,5.0,72.0
3640,68.0,13,108,4.0,66.0
3641,66.0,97,52,6.0,68.0
3642,66.0,10,60,7.0,68.0
3643,66.0,4,59,5.0,82.0
3644,66.0,7,65,4.0,85.0
3645,62.0,0,85,8.0,89.0
3646,47.0,3,95,10.0,70.0
3647,49.0,100,109,10.0,95.0
3648,56.0,2,122,8.0,68.0
3649,66.0,4,135,7.0,89.0
3650,71.0,1,144,6.0,80.0
3651,71.0,20,146,5.0,85.0
3652,71.0,2,150,4.0,87.0
3653,69.0,97,86,6.0,66.0
3654,69.0,15,75,5.0,74.0
3655,69.0,2,86,4.0,80.0
3656,65.0,81,71,7.0,57.0
3657,37.0,8,72,10.0,76.0
3658,68.0,16,59,6.0,87.0
3659,68.0,6,58,5.0,89.0
3660,68.0,0,60,4.0,87.0
3661,61.0,11,98,8.0,80.0
3662,42.0,1,114,10.0,110.0
3663,45.0,106,122,10.0,72.0
3664,49.0,107,70,10.0,85.0
3665,57.0,104,423,8.0,85.0
3666,61.0,7,439,7.0,66.0
3667,66.0,7,435,6.0,95.0
3668,66.0,2,437,4.0,98.0
3669,66.0,7,445,5.0,98.0
3670,54.0,128,113,10.0,98.0
3671,52.0,102,96,10.0,74.0
3672,54.0,120,49,10.0,72.0
3673,50.0,0,43,3.0,102.0
3674,66.0,0,53,2.0,102.0
3675,62.0,2,59,6.0,85.0
3676,57.0,5,63,8.0,82.0
3677,62.0,2,61,4.0,89.0
3678,62.0,4,54,5.0,85.0
3679,62.0,19,72,7.0,93.0
3680,74.0,3,63,0.0,89.0
3681,69.0,6,57,1.0,93.0
3682,50.0,2,43,3.0,102.0
3683,50.0,60,35,3.0,100.0
3684,50.0,0,128,10.0,98.0
3685,50.0,28,39,3.0,95.0
3686,49.0,23,83,10.0,76.0
3687,50.0,48,37,3.0,105.0
3688,81.0,6,209,0.0,98.0
3689,69.0,0,227,6.0,89.0
3690,66.0,4,233,2.0,102.0
3691,62.0,104,237,8.0,93.0
3692,69.0,2,241,5.0,98.0
3693,74.0,3,252,1.0,95.0
3694,50.0,19,35,3.0,80.0
3695,66.0,0,278,7.0,100.0
3696,69.0,3,264,4.0,102.0
3697,50.0,42,61,10.0,82.0
3698,50.0,53,35,3.0,100.0
3699,50.0,53,38,3.0,70.0
3700,50.0,12,39,3.0,102.0
3701,50.0,9,119,10.0,95.0
3702,50.0,14,30,3.0,57.0
3703,50.0,46,32,3.0,82.0
3704,49.0,52,97,10.0,66.0
3705,62.0,1,177,8.0,93.0
3706,62.0,8,192,2.0,95.0
3707,83.0,3,205,0.0,91.0
3708,79.0,14,209,1.0,98.0
3709,67.0,0,232,7.0,87.0
3710,50.0,7,36,3.0,57.0
3711,71.0,4,233,5.0,91.0
3712,50.0,48,47,10.0,87.0
3713,71.0,0,236,4.0,89.0
3714,71.0,1,246,6.0,100.0
3715,50.0,48,35,3.0,64.0
3716,50.0,68,30,3.0,60.0
3717,50.0,5,38,3.0,95.0
3718,50.0,20,155,10.0,85.0
3719,50.0,44,71,3.0,59.0
3720,54.0,30,119,10.0,66.0
3721,50.0,63,61,3.0,52.0
3722,50.0,46,40,3.0,60.0
3723,57.0,38,116,10.0,85.0
3724,50.0,53,30,3.0,55.0
3725,50.0,30,52,3.0,100.0
3726,72.0,13,426,6.0,100.0
3727,69.0,0,416,2.0,98.0
3728,66.0,0,437,7.0,89.0
3729,72.0,10,412,4.0,100.0
3730,72.0,2,425,5.0,100.0
3731,62.0,35,112,10.0,98.0
3732,84.0,5,470,0.0,100.0
3733,78.0,5,485,1.0,102.0
3734,57.0,2,480,8.0,89.0
3735,71.0,7,63,6.0,87.0
3736,71.0,5,66,4.0,82.0
3737,67.0,109,81,7.0,91.0
3738,71.0,8,65,5.0,87.0
3739,83.0,35,56,0.0,89.0
3740,50.0,6,42,3.0,93.0
3741,62.0,8,58,8.0,87.0
3742,69.0,7,70,7.0,70.0
3743,69.0,7,62,6.0,91.0
3744,69.0,1,56,4.0,87.0
3745,78.0,2,61,1.0,100.0
3746,69.0,0,64,5.0,91.0
3747,54.0,39,95,10.0,91.0
3748,74.0,14,53,2.0,89.0
3749,81.0,20,56,0.0,82.0
3750,50.0,1,69,3.0,105.0
3751,55.0,61,134,10.0,91.0
3752,67.0,25,134,7.0,98.0
3753,71.0,2,122,4.0,105.0
3754,83.0,5,109,0.0,105.0
3755,71.0,5,131,5.0,102.0
3756,71.0,0,131,6.0,105.0
3757,62.0,2,160,8.0,91.0
3758,74.0,19,76,5.0,82.0
3759,74.0,73,101,4.0,80.0
3760,81.0,11,70,0.0,72.0
3761,74.0,3,99,6.0,85.0
3762,79.0,10,276,1.0,102.0
3763,79.0,7,56,4.0,87.0
3764,79.0,3,55,0.0,80.0
3765,79.0,6,60,5.0,87.0
3766,79.0,0,66,6.0,80.0
3767,52.0,80,89,10.0,85.0
3768,71.0,10,79,7.0,82.0
3769,64.0,2,68,8.0,82.0
3770,74.0,13,336,2.0,98.0
3771,69.0,0,98,6.0,87.0
3772,48.0,102,120,10.0,87.0
3773,69.0,5,103,5.0,85.0
3774,81.0,2,102,0.0,102.0
3775,69.0,12,119,4.0,91.0
3776,69.0,4,114,7.0,89.0
3777,64.0,3,133,8.0,98.0
3778,79.0,0,69,0.0,70.0
3779,79.0,2,78,6.0,78.0
3780,79.0,6,81,5.0,82.0
3781,79.0,96,94,4.0,82.0
3782,62.0,1,45,2.0,91.0
3783,78.0,2,53,4.0,76.0
3784,74.0,4,48,1.0,102.0
3785,78.0,1,54,5.0,85.0
3786,78.0,0,53,0.0,74.0
3787,78.0,1,64,6.0,82.0
3788,69.0,1,59,7.0,85.0
3789,62.0,4,68,8.0,89.0
3790,50.0,111,76,10.0,91.0
3791,50.0,15,52,3.0,110.0
3792,79.0,1,107,4.0,102.0
3793,71.0,0,98,7.0,93.0
3794,50.0,2,85,3.0,113.0
3795,79.0,1,121,6.0,91.0
3796,79.0,3,123,5.0,102.0
3797,83.0,84,63,4.0,82.0
3798,83.0,3,61,5.0,82.0
3799,83.0,12,69,6.0,85.0
3800,74.0,1,68,7.0,80.0
3801,72.0,98,66,7.0,82.0
3802,81.0,12,58,4.0,102.0
3803,81.0,5,59,5.0,98.0
3804,81.0,8,61,6.0,98.0
3805,74.0,12,308,1.0,110.0
3806,79.0,4,368,0.0,102.0
3807,62.0,2,376,2.0,105.0
3808,62.0,1,406,8.0,87.0
3809,43.0,101,441,10.0,91.0
3810,81.0,5,74,5.0,102.0
3811,81.0,8,90,4.0,105.0
3812,81.0,3,82,6.0,102.0
3813,74.0,116,182,7.0,102.0
3814,67.0,21,80,8.0,80.0
3815,47.0,33,120,10.0,78.0
3816,71.0,24,69,7.0,74.0
3817,50.0,80,96,10.0,78.0
3818,66.0,5,80,8.0,89.0
3819,83.0,5,363,6.0,80.0
3820,83.0,7,371,4.0,80.0
3821,83.0,55,384,5.0,78.0
3822,55.0,100,131,10.0,87.0
3823,71.0,10,128,8.0,89.0
3824,76.0,21,153,7.0,98.0
3825,81.0,126,70,4.0,87.0
3826,81.0,5,70,6.0,85.0
3827,81.0,5,67,5.0,87.0
3828,74.0,89,68,7.0,70.0
3829,79.0,3,55,4.0,91.0
3830,79.0,7,61,6.0,89.0
3831,79.0,0,61,5.0,85.0
3832,71.0,1,75,8.0,89.0
3833,52.0,4,89,10.0,82.0
3834,78.0,3,133,5.0,93.0
3835,78.0,2,139,4.0,100.0
3836,78.0,0,138,6.0,91.0
3837,69.0,7,147,8.0,87.0
3838,79.0,106,65,5.0,76.0
3839,79.0,2,64,4.0,78.0
3840,79.0,0,73,6.0,82.0
3841,76.0,111,61,5.0,78.0
3842,76.0,3,70,6.0,76.0
3843,76.0,4,66,4.0,87.0
3844,67.0,0,83,8.0,76.0
3845,73.0,113,412,7.0,85.0
3846,57.0,3,424,10.0,102.0
3847,78.0,2,120,6.0,85.0
3848,78.0,122,142,5.0,98.0
3849,78.0,5,149,4.0,102.0
3850,66.0,1,148,8.0,89.0
3851,78.0,101,61,7.0,63.0
3852,81.0,2,56,6.0,80.0
3853,81.0,7,63,5.0,82.0
3854,81.0,10,68,4.0,82.0
3855,76.0,3,61,7.0,82.0
3856,79.0,4,54,6.0,85.0
3857,40.0,84,78,10.0,91.0
3858,79.0,11,57,5.0,87.0
3859,79.0,14,58,4.0,95.0
3860,72.0,13,88,8.0,78.0
3861,42.0,89,106,10.0,102.0
3862,79.0,5,90,6.0,100.0
3863,79.0,12,94,5.0,102.0
3864,69.0,2,114,8.0,95.0
3865,79.0,8,93,4.0,102.0
3866,75.0,11,156,7.0,102.0
3867,45.0,3,108,10.0,82.0
3868,48.0,100,96,10.0,87.0
3869,76.0,3,73,7.0,66.0
3870,64.0,27,99,8.0,82.0
3871,81.0,11,342,4.0,89.0
3872,81.0,57,370,6.0,80.0
3873,81.0,9,363,5.0,78.0
3874,54.0,8,110,10.0,89.0
3875,75.0,121,129,7.0,100.0
3876,66.0,0,153,8.0,89.0
3877,79.0,132,62,5.0,89.0
3878,79.0,1,65,6.0,82.0
3879,79.0,0,66,4.0,87.0
3880,78.0,3,65,7.0,74.0
3881,78.0,0,62,6.0,78.0
3882,69.0,99,78,8.0,80.0
3883,78.0,12,63,5.0,82.0
3884,78.0,5,63,4.0,89.0
3885,51.0,0,83,10.0,80.0
3886,76.0,1,127,5.0,98.0
3887,76.0,3,128,6.0,98.0
3888,67.0,100,163,8.0,91.0
3889,76.0,8,138,4.0,100.0
3890,78.0,100,63,5.0,63.0
3891,78.0,6,60,6.0,61.0
3892,78.0,1,65,4.0,80.0
3893,75.0,15,56,5.0,72.0
3894,66.0,95,76,8.0,76.0
3895,75.0,3,62,6.0,64.0
3896,75.0,2,60,4.0,80.0
3897,64.0,110,112,8.0,85.0
3898,76.0,9,105,6.0,87.0
3899,76.0,2,103,4.0,98.0
3900,76.0,7,107,5.0,98.0
3901,71.0,11,477,7.0,82.0
3902,55.0,8,485,10.0,87.0
3903,79.0,6,58,6.0,76.0
3904,79.0,100,72,5.0,72.0
3905,79.0,10,61,4.0,78.0
3906,71.0,0,64,7.0,82.0
3907,78.0,13,52,5.0,100.0
3908,78.0,0,53,6.0,85.0
3909,78.0,4,59,4.0,87.0
3910,39.0,14,76,10.0,91.0
3911,59.0,80,106,8.0,68.0
3912,78.0,15,86,5.0,102.0
3913,78.0,0,89,4.0,95.0
3914,71.0,0,107,7.0,98.0
3915,40.0,7,107,10.0,100.0
3916,71.0,105,136,8.0,93.0
3917,78.0,7,109,6.0,105.0
3918,76.0,6,75,7.0,80.0
3919,43.0,4,71,10.0,102.0
3920,47.0,102,86,10.0,82.0
3921,74.0,14,76,7.0,80.0
3922,66.0,10,104,8.0,78.0
3923,79.0,2,337,5.0,87.0
3924,79.0,3,340,6.0,82.0
3925,79.0,64,360,4.0,87.0
3926,52.0,113,123,10.0,95.0
3927,73.0,3,137,7.0,85.0
3928,64.0,9,158,8.0,89.0
3929,78.0,128,60,5.0,85.0
3930,78.0,12,58,4.0,80.0
3931,78.0,5,74,6.0,70.0
3932,76.0,86,58,7.0,82.0
3933,76.0,2,53,6.0,70.0
3934,76.0,5,59,5.0,78.0
3935,76.0,3,63,4.0,85.0
3936,49.0,15,77,10.0,78.0
3937,67.0,0,87,8.0,76.0
3938,66.0,3,111,8.0,89.0
3939,74.0,8,113,6.0,78.0
3940,74.0,4,131,4.0,93.0
3941,74.0,0,134,5.0,91.0
3942,76.0,104,63,4.0,63.0
3943,76.0,2,63,5.0,72.0
3944,76.0,3,78,6.0,72.0
3945,64.0,102,73,8.0,82.0
3946,73.0,14,60,6.0,76.0
3947,73.0,3,50,5.0,57.0
3948,73.0,13,55,4.0,59.0
3949,54.0,6,487,10.0,89.0
3950,62.0,103,129,8.0,87.0
3951,69.0,105,504,7.0,85.0
3952,74.0,7,122,6.0,98.0
3953,74.0,15,133,4.0,93.0
3954,74.0,6,123,5.0,89.0
3955,78.0,2,59,6.0,64.0
3956,78.0,6,62,5.0,57.0
3957,78.0,103,78,4.0,64.0
3958,76.0,2,51,6.0,80.0
3959,76.0,3,55,5.0,80.0
3960,69.0,3,72,7.0,66.0
3961,76.0,12,62,4.0,85.0
3962,37.0,94,83,10.0,91.0
3963,57.0,1,84,8.0,82.0
3964,62.0,104,115,8.0,95.0
3965,38.0,6,124,10.0,105.0
3966,78.0,12,111,6.0,100.0
3967,78.0,0,111,5.0,100.0
3968,69.0,2,125,7.0,91.0
3969,78.0,0,122,4.0,91.0
3970,79.0,97,72,6.0,80.0
3971,79.0,4,69,5.0,80.0
3972,79.0,3,75,4.0,80.0
3973,81.0,1,44,4.0,72.0
3974,81.0,9,48,6.0,70.0
3975,81.0,0,53,5.0,76.0
3976,62.0,0,75,8.0,80.0
3977,69.0,8,66,7.0,74.0
3978,42.0,109,104,10.0,85.0
3979,43.0,1,127,10.0,87.0
3980,71.0,5,121,6.0,98.0
3981,71.0,3,129,5.0,82.0
3982,71.0,109,135,4.0,89.0
3983,62.0,0,165,8.0,95.0
3984,67.0,0,180,7.0,80.0
3985,73.0,0,80,5.0,62.0
3986,73.0,106,80,6.0,59.0
3987,73.0,0,81,4.0,62.0
3988,74.0,7,53,5.0,66.0
3989,74.0,5,65,4.0,78.0
3990,74.0,6,55,6.0,68.0
3991,47.0,111,83,10.0,85.0
3992,44.0,15,127,10.0,100.0
3993,76.0,5,116,5.0,95.0
3994,64.0,12,125,8.0,91.0
3995,76.0,3,118,4.0,100.0
3996,76.0,5,123,6.0,102.0
3997,71.0,91,172,7.0,82.0
3998,78.0,2,78,4.0,68.0
3999,78.0,99,83,5.0,66.0
4000,78.0,10,71,6.0,63.0
4001,74.0,4,46,5.0,76.0
4002,74.0,20,62,4.0,85.0
4003,40.0,84,83,10.0,61.0
4004,74.0,10,56,6.0,68.0
4005,73.0,14,114,4.0,98.0
4006,73.0,2,119,5.0,87.0
4007,73.0,3,117,6.0,102.0
4008,64.0,1,144,8.0,89.0
4009,45.0,102,151,10.0,95.0
4010,69.0,2,154,7.0,87.0
4011,74.0,93,74,4.0,80.0
4012,74.0,16,61,5.0,68.0
4013,74.0,3,73,6.0,70.0
4014,76.0,13,48,4.0,76.0
4015,76.0,17,44,5.0,80.0
4016,76.0,1,48,6.0,78.0
4017,49.0,90,97,10.0,66.0
4018,46.0,94,136,10.0,93.0
4019,78.0,10,114,5.0,100.0
4020,78.0,1,135,4.0,105.0
4021,66.0,16,138,8.0,89.0
4022,78.0,8,126,6.0,102.0
4023,73.0,4,162,7.0,85.0
4024,79.0,96,63,5.0,66.0
4025,79.0,0,64,4.0,68.0
4026,79.0,11,67,6.0,66.0
4027,76.0,3,42,5.0,62.0
4028,76.0,10,52,4.0,76.0
4029,42.0,98,71,10.0,70.0
4030,76.0,10,48,6.0,62.0
4031,74.0,7,132,5.0,85.0
4032,71.0,103,140,7.0,82.0
4033,74.0,6,133,4.0,98.0
4034,74.0,5,126,6.0,95.0
4035,66.0,3,136,8.0,85.0
4036,47.0,2,155,10.0,85.0
4037,76.0,95,58,5.0,66.0
4038,76.0,5,66,4.0,66.0
4039,76.0,14,73,6.0,66.0
4040,78.0,103,51,5.0,78.0
4041,78.0,5,63,4.0,76.0
4042,78.0,5,60,6.0,72.0
4043,45.0,5,94,10.0,68.0
4044,79.0,17,128,5.0,87.0
4045,79.0,1,119,4.0,102.0
4046,79.0,6,122,6.0,85.0
4047,74.0,97,156,7.0,91.0
4048,47.0,5,141,10.0,98.0
4049,62.0,3,138,8.0,91.0
4050,81.0,101,65,5.0,72.0
4051,81.0,10,69,4.0,70.0
4052,81.0,8,65,6.0,64.0
4053,78.0,5,46,5.0,70.0
4054,78.0,4,55,4.0,85.0
4055,78.0,5,59,6.0,91.0
4056,43.0,104,85,10.0,80.0
4057,76.0,0,124,4.0,91.0
4058,76.0,1,131,5.0,95.0
4059,76.0,4,126,6.0,95.0
4060,76.0,89,167,7.0,89.0
4061,69.0,4,142,8.0,91.0
4062,49.0,23,168,10.0,102.0
4063,78.0,11,68,5.0,60.0
4064,78.0,93,83,4.0,62.0
4065,78.0,5,70,6.0,63.0
4066,79.0,1,53,4.0,85.0
4067,79.0,113,61,5.0,85.0
4068,79.0,2,65,6.0,76.0
4069,47.0,11,95,10.0,70.0
4070,76.0,88,109,7.0,87.0
4071,69.0,26,99,8.0,93.0
4072,81.0,1,120,4.0,98.0
4073,49.0,4,123,10.0,102.0
4074,81.0,3,129,6.0,87.0
4075,81.0,4,133,5.0,98.0
4076,83.0,98,71,5.0,78.0
4077,83.0,2,74,4.0,82.0
4078,83.0,0,88,6.0,74.0
4079,79.0,0,55,4.0,82.0
4080,79.0,1,55,5.0,76.0
4081,79.0,118,59,6.0,78.0
4082,45.0,21,48,10.0,87.0
4083,74.0,80,121,7.0,98.0
4084,69.0,10,116,8.0,100.0
4085,79.0,18,106,5.0,91.0
4086,79.0,2,126,4.0,102.0
4087,79.0,5,124,6.0,98.0
4088,50.0,3,122,10.0,91.0
4089,73.0,66,90,7.0,80.0
4090,67.0,5,101,8.0,76.0
4091,52.0,14,80,10.0,72.0
4092,74.0,2,55,7.0,85.0
4093,69.0,80,67,8.0,78.0
4094,78.0,19,63,1.0,95.0
4095,50.0,20,46,3.0,102.0
4096,54.0,6,73,10.0,95.0
4097,81.0,6,53,0.0,89.0
4098,74.0,3,61,2.0,85.0
4099,78.0,9,304,5.0,53.0
4100,78.0,9,290,4.0,85.0
4101,78.0,2,308,6.0,68.0
4102,74.0,5,91,1.0,102.0
4103,83.0,17,86,0.0,102.0
4104,67.0,74,140,8.0,98.0
4105,50.0,6,103,3.0,110.0
4106,62.0,2,113,2.0,87.0
4107,71.0,6,162,7.0,93.0
4108,76.0,74,75,5.0,80.0
4109,76.0,6,65,1.0,85.0
4110,76.0,7,78,4.0,85.0
4111,76.0,4,73,6.0,80.0
4112,85.0,9,70,0.0,89.0
4113,74.0,91,71,5.0,80.0
4114,74.0,2,69,6.0,80.0
4115,78.0,7,63,1.0,89.0
4116,74.0,3,75,4.0,91.0
4117,86.0,12,57,0.0,68.0
4118,66.0,1,72,8.0,80.0
4119,62.0,2,74,2.0,100.0
4120,71.0,4,78,7.0,89.0
4121,81.0,13,88,0.0,102.0
4122,76.0,2,107,4.0,87.0
4123,76.0,98,118,5.0,89.0
4124,76.0,3,124,6.0,89.0
4125,55.0,10,508,10.0,91.0
4126,73.0,7,139,7.0,100.0
4127,73.0,7,59,6.0,62.0
4128,64.0,2,154,8.0,100.0
4129,73.0,75,78,5.0,59.0
4130,73.0,3,75,4.0,66.0
4131,83.0,7,61,0.0,68.0
4132,76.0,1,171,1.0,105.0
4133,74.0,110,52,5.0,72.0
4134,74.0,0,57,6.0,82.0
4135,74.0,1,59,4.0,85.0
4136,78.0,5,63,1.0,70.0
4137,81.0,8,74,0.0,76.0
4138,50.0,11,56,3.0,105.0
4139,54.0,0,93,10.0,80.0
4140,66.0,3,73,8.0,82.0
4141,69.0,8,79,7.0,85.0
4142,69.0,3,381,2.0,98.0
4143,79.0,10,61,0.0,95.0
4144,76.0,2,66,1.0,100.0
4145,50.0,5,68,3.0,107.0
4146,69.0,1,101,4.0,98.0
4147,69.0,0,110,6.0,91.0
4148,69.0,3,108,5.0,98.0
4149,64.0,4,103,8.0,98.0
4150,71.0,3,108,7.0,89.0
4151,55.0,93,137,10.0,95.0
4152,74.0,9,56,1.0,85.0
4153,78.0,4,55,0.0,62.0
4154,74.0,82,79,4.0,74.0
4155,74.0,0,88,5.0,76.0
4156,74.0,5,94,6.0,78.0
4157,69.0,107,55,1.0,93.0
4158,69.0,4,49,2.0,100.0
4159,73.0,0,65,4.0,78.0
4160,64.0,1,63,8.0,82.0
4161,73.0,2,71,5.0,78.0
4162,76.0,4,62,0.0,93.0
4163,45.0,9,61,3.0,102.0
4164,69.0,1,83,7.0,82.0
4165,73.0,2,86,6.0,80.0
4166,57.0,1,83,10.0,82.0
4167,62.0,4,107,5.0,102.0
4168,62.0,2,109,6.0,85.0
4169,62.0,109,123,4.0,98.0
4170,50.0,5,101,3.0,119.0
4171,59.0,4,121,10.0,102.0
4172,57.0,86,68,10.0,78.0
4173,74.0,1,63,5.0,78.0
4174,74.0,5,64,6.0,85.0
4175,74.0,111,72,4.0,82.0
4176,55.0,9,57,10.0,82.0
4177,62.0,6,345,8.0,105.0
4178,74.0,8,379,0.0,100.0
4179,66.0,1,382,7.0,85.0
4180,62.0,0,374,2.0,110.0
4181,66.0,1,401,1.0,105.0
4182,54.0,10,131,10.0,102.0
4183,55.0,99,83,10.0,72.0
4184,52.0,111,59,10.0,85.0
4185,66.0,10,53,8.0,82.0
4186,72.0,17,64,7.0,82.0
4187,81.0,118,432,5.0,102.0
4188,81.0,2,438,4.0,95.0
4189,81.0,3,437,6.0,102.0
4190,51.0,114,146,10.0,93.0
4191,83.0,103,71,5.0,80.0
4192,83.0,6,67,6.0,85.0
4193,83.0,5,76,4.0,74.0
4194,81.0,12,56,5.0,89.0
4195,81.0,8,51,6.0,82.0
4196,59.0,106,73,10.0,78.0
4197,81.0,8,57,4.0,85.0
4198,66.0,13,343,8.0,80.0
4199,80.0,10,111,5.0,93.0
4200,80.0,13,123,6.0,98.0
4201,50.0,89,156,10.0,89.0
4202,80.0,14,112,4.0,102.0
4203,76.0,77,65,5.0,66.0
4204,76.0,7,66,6.0,64.0
4205,76.0,15,74,4.0,64.0
4206,71.0,12,642,7.0,89.0
4207,78.0,1,52,5.0,64.0
4208,59.0,89,74,10.0,80.0
4209,78.0,19,58,6.0,78.0
4210,78.0,10,58,4.0,64.0
4211,79.0,14,123,6.0,98.0
4212,79.0,0,131,5.0,91.0
4213,49.0,0,150,10.0,82.0
4214,79.0,17,124,4.0,93.0
4215,81.0,1,60,6.0,66.0
4216,81.0,91,64,5.0,68.0
4217,81.0,19,56,4.0,64.0
4218,79.0,2,48,5.0,68.0
4219,79.0,27,53,6.0,78.0
4220,57.0,82,88,10.0,85.0
4221,64.0,9,667,8.0,85.0
4222,79.0,14,48,4.0,80.0
4223,78.0,15,128,5.0,91.0
4224,78.0,8,125,6.0,93.0
4225,78.0,7,121,4.0,93.0
4226,48.0,3,185,10.0,95.0
4227,74.0,5,66,6.0,64.0
4228,74.0,8,70,4.0,80.0
4229,74.0,96,85,5.0,80.0
4230,76.0,1,43,5.0,70.0
4231,69.0,97,660,7.0,80.0
4232,76.0,4,46,4.0,78.0
4233,76.0,11,53,6.0,72.0
4234,57.0,99,82,10.0,82.0
4235,77.0,8,121,6.0,98.0
4236,77.0,4,131,5.0,95.0
4237,77.0,6,130,4.0,100.0
4238,47.0,113,171,10.0,89.0
4239,79.0,99,68,6.0,70.0
4240,79.0,0,71,5.0,66.0
4241,79.0,3,76,4.0,72.0
4242,62.0,90,614,8.0,82.0
4243,77.0,26,51,5.0,74.0
4244,77.0,0,51,6.0,87.0
4245,77.0,10,49,4.0,80.0
4246,55.0,97,87,10.0,82.0
4247,61.0,2,129,8.0,85.0
4248,76.0,8,111,4.0,82.0
4249,46.0,92,147,10.0,85.0
4250,76.0,0,121,6.0,85.0
4251,76.0,25,129,5.0,87.0
4252,73.0,27,60,6.0,70.0
4253,73.0,0,68,4.0,68.0
4254,64.0,74,95,8.0,78.0
4255,73.0,5,84,5.0,64.0
4256,62.0,8,68,8.0,66.0
4257,74.0,4,47,5.0,70.0
4258,74.0,18,61,6.0,85.0
4259,74.0,5,52,4.0,87.0
4260,55.0,84,88,10.0,87.0
4261,64.0,104,128,8.0,107.0
4262,73.0,2,113,6.0,89.0
4263,73.0,20,116,4.0,100.0
4264,73.0,3,113,5.0,105.0
4265,66.0,76,96,8.0,85.0
4266,74.0,9,88,6.0,78.0
4267,74.0,8,81,5.0,82.0
4268,74.0,7,89,4.0,82.0
4269,67.0,91,54,8.0,72.0
4270,76.0,5,44,5.0,72.0
4271,76.0,16,63,6.0,82.0
4272,76.0,9,63,4.0,85.0
4273,45.0,0,397,10.0,98.0
4274,67.0,0,1176,7.0,87.0
4275,61.0,99,127,8.0,87.0
4276,69.0,5,79,7.0,89.0
4277,49.0,13,79,10.0,87.0
4278,64.0,84,111,8.0,80.0
4279,73.0,5,81,7.0,93.0
4280,52.0,13,75,10.0,98.0
4281,67.0,94,118,8.0,74.0
4282,69.0,0,391,4.0,93.0
4283,69.0,7,395,5.0,93.0
4284,69.0,25,411,6.0,91.0
4285,73.0,116,138,8.0,91.0
4286,76.0,2,137,7.0,100.0
4287,55.0,8,139,10.0,105.0
4288,61.0,120,92,10.0,82.0
4289,64.0,5,56,10.0,85.0
4290,81.0,2,70,6.0,87.0
4291,81.0,6,75,4.0,85.0
4292,69.0,106,91,8.0,80.0
4293,81.0,5,78,5.0,82.0
4294,73.0,0,92,7.0,74.0
4295,55.0,1,101,10.0,98.0
4296,83.0,5,103,5.0,91.0
4297,83.0,1,109,4.0,91.0
4298,83.0,9,116,6.0,98.0
4299,74.0,1,124,7.0,87.0
4300,62.0,109,136,8.0,89.0
4301,54.0,104,83,10.0,89.0
4302,67.0,108,54,8.0,85.0
4303,52.0,3,68,10.0,89.0
4304,69.0,6,56,2.0,80.0
4305,85.0,1,60,5.0,85.0
4306,85.0,0,62,4.0,102.0
4307,76.0,5,60,1.0,100.0
4308,45.0,2,61,3.0,105.0
4309,76.0,11,75,7.0,82.0
4310,85.0,0,80,6.0,87.0
4311,85.0,5,68,0.0,98.0
4312,66.0,1,81,2.0,102.0
4313,69.0,102,96,8.0,98.0
4314,50.0,4,79,3.0,105.0
4315,85.0,5,91,4.0,102.0
4316,86.0,3,99,6.0,102.0
4317,81.0,2,104,1.0,102.0
4318,86.0,3,106,0.0,102.0
4319,74.0,2,124,7.0,87.0
4320,85.0,2,129,5.0,95.0
4321,54.0,2,139,10.0,102.0
4322,86.0,46,108,4.0,102.0
4323,79.0,8,61,1.0,72.0
4324,69.0,2,60,2.0,85.0
4325,86.0,23,105,5.0,87.0
4326,52.0,27,92,10.0,80.0
4327,81.0,4,48,6.0,82.0
4328,81.0,2,44,5.0,82.0
4329,74.0,1,62,2.0,85.0
4330,50.0,2,66,3.0,105.0
4331,81.0,3,51,4.0,85.0
4332,78.0,0,54,1.0,85.0
4333,78.0,2,58,7.0,78.0
4334,74.0,8,63,8.0,100.0
4335,81.0,4,64,0.0,87.0
4336,50.0,102,114,10.0,82.0
4337,45.0,0,60,3.0,119.0
4338,78.0,4,61,0.0,98.0
4339,79.0,3,72,6.0,85.0
4340,79.0,7,80,5.0,87.0
4341,79.0,0,76,4.0,89.0
4342,78.0,0,80,1.0,100.0
4343,74.0,100,108,2.0,93.0
4344,57.0,5,113,10.0,102.0
4345,74.0,1,117,7.0,102.0
4346,69.0,7,119,8.0,100.0
4347,78.0,7,84,4.0,85.0
4348,78.0,30,96,6.0,93.0
4349,78.0,1,100,5.0,87.0
4350,79.0,1,63,1.0,98.0
4351,76.0,3,60,0.0,78.0
4352,73.0,54,81,7.0,64.0
4353,76.0,10,65,4.0,82.0
4354,67.0,16,75,8.0,82.0
4355,76.0,10,62,5.0,87.0
4356,76.0,2,65,6.0,87.0
4357,69.0,4,44,2.0,85.0
4358,74.0,1,50,7.0,95.0
4359,45.0,0,48,3.0,113.0
4360,81.0,68,60,1.0,93.0
4361,74.0,8,63,0.0,100.0
4362,66.0,3,61,8.0,98.0
4363,45.0,5,79,10.0,89.0
4364,74.0,20,60,6.0,102.0
4365,74.0,1,57,5.0,87.0
4366,74.0,4,66,4.0,91.0
4367,79.0,73,71,1.0,95.0
4368,76.0,1,69,5.0,82.0
4369,76.0,5,72,6.0,82.0
4370,50.0,11,88,3.0,122.0
4371,78.0,28,46,1.0,85.0
4372,76.0,6,92,4.0,91.0
4373,74.0,7,40,6.0,60.0
4374,74.0,21,47,5.0,72.0
4375,79.0,21,50,1.0,82.0
4376,74.0,7,48,4.0,74.0
4377,76.0,18,47,5.0,82.0
4378,76.0,5,43,6.0,76.0
4379,78.0,13,42,1.0,80.0
4380,74.0,9,41,5.0,80.0
4381,76.0,10,50,4.0,80.0
4382,74.0,11,40,6.0,70.0
4383,79.0,5,48,1.0,82.0
4384,74.0,6,33,4.0,64.0
4385,76.0,22,49,5.0,80.0
4386,76.0,7,43,6.0,87.0
4387,78.0,10,49,1.0,89.0
4388,76.0,15,40,4.0,80.0
4389,74.0,6,40,5.0,80.0
4390,74.0,10,37,6.0,70.0
4391,79.0,5,55,1.0,87.0
4392,74.0,2,44,4.0,68.0
4393,76.0,15,50,5.0,74.0
4394,76.0,18,56,6.0,93.0
4395,76.0,2,53,4.0,98.0
4396,66.0,4,416,8.0,105.0
4397,74.0,1,435,0.0,102.0
4398,69.0,4,474,7.0,102.0
4399,50.0,3,504,10.0,107.0
4400,69.0,7,527,2.0,107.0
4401,74.0,18,275,5.0,82.0
4402,78.0,0,300,1.0,82.0
4403,74.0,18,251,4.0,80.0
4404,74.0,22,289,6.0,100.0
