,note,step,duration,channel,velocity
0,67.0,0,60,0.0,0.0
1,67.0,0,60,1.0,0.0
2,67.0,0,60,2.0,0.0
3,55.0,0,60,3.0,0.0
4,43.0,0,60,4.0,0.0
5,55.0,42,60,6.0,0.0
6,67.0,0,30,0.0,0.0
7,67.0,0,30,1.0,0.0
8,67.0,0,30,2.0,0.0
9,55.0,0,30,3.0,0.0
10,43.0,0,30,4.0,0.0
11,55.0,54,30,6.0,0.0
12,70.0,0,60,0.0,0.0
13,70.0,0,60,1.0,0.0
14,70.0,0,60,2.0,0.0
15,58.0,0,60,3.0,0.0
16,46.0,0,60,4.0,0.0
17,58.0,42,60,6.0,0.0
18,70.0,0,30,0.0,0.0
19,70.0,0,30,1.0,0.0
20,70.0,0,30,2.0,0.0
21,58.0,0,30,3.0,0.0
22,46.0,0,30,4.0,0.0
23,58.0,54,30,6.0,0.0
24,74.0,0,60,0.0,0.0
25,74.0,0,60,1.0,0.0
26,74.0,0,60,2.0,0.0
27,62.0,0,60,3.0,0.0
28,50.0,0,60,4.0,0.0
29,62.0,42,60,6.0,0.0
30,74.0,0,30,0.0,0.0
31,74.0,0,30,1.0,0.0
32,74.0,0,30,2.0,0.0
33,62.0,0,30,3.0,0.0
34,50.0,0,30,4.0,0.0
35,62.0,54,30,6.0,0.0
36,63.0,0,60,0.0,0.0
37,63.0,0,60,1.0,0.0
38,63.0,0,60,2.0,0.0
39,51.0,0,60,3.0,0.0
40,39.0,0,60,4.0,0.0
41,51.0,42,60,6.0,0.0
42,62.0,0,30,0.0,0.0
43,62.0,0,30,1.0,0.0
44,62.0,0,30,2.0,0.0
45,50.0,0,30,3.0,0.0
46,38.0,0,30,4.0,0.0
47,50.0,54,30,6.0,0.0
48,62.0,0,60,0.0,0.0
49,62.0,0,60,1.0,0.0
50,62.0,0,60,2.0,0.0
51,50.0,0,60,3.0,0.0
52,38.0,0,60,4.0,0.0
53,50.0,42,60,6.0,0.0
54,63.0,0,30,0.0,0.0
55,63.0,0,30,1.0,0.0
56,63.0,0,30,2.0,0.0
57,51.0,0,30,3.0,0.0
58,39.0,0,30,4.0,0.0
59,51.0,150,30,6.0,0.0
60,69.0,0,60,0.0,0.0
61,69.0,0,60,1.0,0.0
62,69.0,0,60,2.0,0.0
63,57.0,0,60,3.0,0.0
64,45.0,0,60,4.0,0.0
65,57.0,42,60,6.0,0.0
66,69.0,0,30,0.0,0.0
67,69.0,0,30,1.0,0.0
68,69.0,0,30,2.0,0.0
69,57.0,0,30,3.0,0.0
70,45.0,0,30,4.0,0.0
71,57.0,54,30,6.0,0.0
72,72.0,0,60,0.0,0.0
73,72.0,0,60,1.0,0.0
74,72.0,0,60,2.0,0.0
75,60.0,0,60,3.0,0.0
76,48.0,0,60,4.0,0.0
77,60.0,42,60,6.0,0.0
78,72.0,0,30,0.0,0.0
79,72.0,0,30,1.0,0.0
80,72.0,0,30,2.0,0.0
81,60.0,0,30,3.0,0.0
82,48.0,0,30,4.0,0.0
83,60.0,54,30,6.0,0.0
84,75.0,0,60,0.0,0.0
85,75.0,0,60,1.0,0.0
86,75.0,0,60,2.0,0.0
87,63.0,0,60,3.0,0.0
88,51.0,0,60,4.0,0.0
89,63.0,42,60,6.0,0.0
90,75.0,0,30,0.0,0.0
91,75.0,0,30,1.0,0.0
92,75.0,0,30,2.0,0.0
93,63.0,0,30,3.0,0.0
94,51.0,0,30,4.0,0.0
95,63.0,54,30,6.0,0.0
96,66.0,0,60,0.0,0.0
97,66.0,0,60,1.0,0.0
98,66.0,0,60,2.0,0.0
99,54.0,0,60,3.0,0.0
100,42.0,0,60,4.0,0.0
101,54.0,42,60,6.0,0.0
102,66.0,0,30,0.0,0.0
103,66.0,0,30,1.0,0.0
104,66.0,0,30,2.0,0.0
105,54.0,0,30,3.0,0.0
106,42.0,0,30,4.0,0.0
107,54.0,54,30,6.0,0.0
108,69.0,0,60,0.0,0.0
109,69.0,0,60,1.0,0.0
110,69.0,0,60,2.0,0.0
111,57.0,0,60,3.0,0.0
112,45.0,0,60,4.0,0.0
113,57.0,42,60,6.0,0.0
114,69.0,0,30,0.0,0.0
115,69.0,0,30,1.0,0.0
116,69.0,0,30,2.0,0.0
117,57.0,0,30,3.0,0.0
118,45.0,0,30,4.0,0.0
119,57.0,54,30,6.0,0.0
120,72.0,0,60,0.0,0.0
121,72.0,0,60,1.0,0.0
122,72.0,0,60,2.0,0.0
123,60.0,0,60,3.0,0.0
124,48.0,0,60,4.0,0.0
125,60.0,42,60,6.0,0.0
126,72.0,0,30,0.0,0.0
127,72.0,0,30,1.0,0.0
128,72.0,0,30,2.0,0.0
129,60.0,0,30,3.0,0.0
130,48.0,0,30,4.0,0.0
131,60.0,54,30,6.0,0.0
132,62.0,0,60,0.0,0.0
133,62.0,0,60,1.0,0.0
134,62.0,0,60,2.0,0.0
135,50.0,0,60,3.0,0.0
136,38.0,0,60,4.0,0.0
137,50.0,42,60,6.0,0.0
138,62.0,0,30,0.0,0.0
139,62.0,0,30,1.0,0.0
140,62.0,0,30,2.0,0.0
141,50.0,0,30,3.0,0.0
142,38.0,0,30,4.0,0.0
143,50.0,54,30,6.0,0.0
144,66.0,0,60,0.0,0.0
145,66.0,0,60,1.0,0.0
146,66.0,0,60,2.0,0.0
147,54.0,0,60,3.0,0.0
148,42.0,0,60,4.0,0.0
149,54.0,42,60,6.0,0.0
150,66.0,0,30,0.0,0.0
151,66.0,0,30,1.0,0.0
152,66.0,0,30,2.0,0.0
153,54.0,0,30,3.0,0.0
154,42.0,0,30,4.0,0.0
155,54.0,54,30,6.0,0.0
156,69.0,0,60,0.0,0.0
157,69.0,0,60,1.0,0.0
158,69.0,0,60,2.0,0.0
159,57.0,0,60,3.0,0.0
160,45.0,0,60,4.0,0.0
161,57.0,42,60,6.0,0.0
162,69.0,0,30,0.0,0.0
163,69.0,0,30,1.0,0.0
164,69.0,0,30,2.0,0.0
165,57.0,0,30,3.0,0.0
166,45.0,0,30,4.0,0.0
167,57.0,54,30,6.0,0.0
168,58.0,0,60,0.0,0.0
169,58.0,0,60,1.0,0.0
170,58.0,0,60,2.0,0.0
171,46.0,0,60,3.0,0.0
172,34.0,0,60,4.0,0.0
173,46.0,48,60,6.0,0.0
174,57.0,0,60,0.0,0.0
175,57.0,0,60,1.0,0.0
176,57.0,0,60,2.0,0.0
177,45.0,0,60,3.0,0.0
178,33.0,0,60,4.0,0.0
179,45.0,42,60,6.0,0.0
180,58.0,0,30,0.0,0.0
181,58.0,0,30,1.0,0.0
182,58.0,0,30,2.0,0.0
183,46.0,0,30,3.0,0.0
184,34.0,0,30,4.0,0.0
185,46.0,18,30,6.0,0.0
186,70.0,0,30,0.0,0.0
187,70.0,0,30,1.0,0.0
188,70.0,0,30,2.0,0.0
189,58.0,0,30,3.0,0.0
190,46.0,48,30,4.0,0.0
191,58.0,30,15,6.0,0.0
192,66.0,0,30,0.0,0.0
193,66.0,0,30,1.0,0.0
194,66.0,0,30,2.0,0.0
195,54.0,0,30,3.0,0.0
196,42.0,6,30,4.0,0.0
197,54.0,42,60,6.0,0.0
198,67.0,0,30,0.0,0.0
199,67.0,0,30,1.0,0.0
200,67.0,0,30,2.0,0.0
201,55.0,0,30,3.0,0.0
202,43.0,0,30,4.0,0.0
203,55.0,54,30,6.0,0.0
204,60.0,0,60,0.0,0.0
205,60.0,0,60,1.0,0.0
206,60.0,0,60,2.0,0.0
207,48.0,0,60,3.0,0.0
208,36.0,0,60,4.0,0.0
209,48.0,48,60,6.0,0.0
210,58.0,0,60,0.0,0.0
211,58.0,0,60,1.0,0.0
212,58.0,0,60,2.0,0.0
213,46.0,0,60,3.0,0.0
214,34.0,0,60,4.0,0.0
215,46.0,42,60,6.0,0.0
216,60.0,0,30,0.0,0.0
217,60.0,0,30,1.0,0.0
218,60.0,0,30,2.0,0.0
219,48.0,0,30,3.0,0.0
220,36.0,0,30,4.0,0.0
221,48.0,18,30,6.0,0.0
222,70.0,0,30,0.0,0.0
223,70.0,0,30,1.0,0.0
224,70.0,0,30,2.0,0.0
225,58.0,0,30,3.0,0.0
226,46.0,48,30,4.0,0.0
227,58.0,30,15,6.0,0.0
228,66.0,0,30,0.0,0.0
229,66.0,0,30,1.0,0.0
230,66.0,0,30,2.0,0.0
231,54.0,0,30,3.0,0.0
232,42.0,6,30,4.0,0.0
233,54.0,42,60,6.0,0.0
234,67.0,0,30,0.0,0.0
235,67.0,0,30,1.0,0.0
236,67.0,0,30,2.0,0.0
237,55.0,0,30,3.0,0.0
238,43.0,0,30,4.0,0.0
239,55.0,54,30,6.0,0.0
240,62.0,0,60,0.0,0.0
241,62.0,0,60,1.0,0.0
242,62.0,0,60,2.0,0.0
243,50.0,0,60,3.0,0.0
244,38.0,0,60,4.0,0.0
245,50.0,48,60,6.0,0.0
246,60.0,0,60,0.0,0.0
247,60.0,0,60,1.0,0.0
248,60.0,0,60,2.0,0.0
249,48.0,0,60,3.0,0.0
250,36.0,0,60,4.0,0.0
251,48.0,42,60,6.0,0.0
252,62.0,0,30,0.0,0.0
253,62.0,0,30,1.0,0.0
254,62.0,0,30,2.0,0.0
255,50.0,0,30,3.0,0.0
256,38.0,0,30,4.0,0.0
257,50.0,18,30,6.0,0.0
258,70.0,0,30,0.0,0.0
259,70.0,0,30,1.0,0.0
260,70.0,0,30,2.0,0.0
261,58.0,0,30,3.0,0.0
262,46.0,48,30,4.0,0.0
263,58.0,30,15,6.0,0.0
264,66.0,0,30,0.0,0.0
265,66.0,0,30,1.0,0.0
266,66.0,0,30,2.0,0.0
267,54.0,0,30,3.0,0.0
268,42.0,6,30,4.0,0.0
269,54.0,42,60,6.0,0.0
270,67.0,0,30,0.0,0.0
271,67.0,0,30,1.0,0.0
272,67.0,0,30,2.0,0.0
273,55.0,0,30,3.0,0.0
274,43.0,0,30,4.0,0.0
275,55.0,90,30,6.0,0.0
276,63.0,0,90,0.0,0.0
277,63.0,0,90,1.0,0.0
278,63.0,0,90,2.0,0.0
279,51.0,0,90,3.0,0.0
280,39.0,0,90,4.0,0.0
281,51.0,102,90,6.0,0.0
282,67.0,0,30,0.0,0.0
283,67.0,0,30,1.0,0.0
284,67.0,0,30,2.0,0.0
285,55.0,0,30,3.0,0.0
286,43.0,6,30,4.0,0.0
287,55.0,42,60,6.0,0.0
288,68.0,0,30,0.0,0.0
289,68.0,0,30,1.0,0.0
290,68.0,0,30,2.0,0.0
291,56.0,0,30,3.0,0.0
292,44.0,6,30,4.0,0.0
293,56.0,42,60,6.0,0.0
294,65.0,0,30,0.0,0.0
295,65.0,0,30,1.0,0.0
296,65.0,0,30,2.0,0.0
297,53.0,0,30,3.0,0.0
298,41.0,0,30,4.0,0.0
299,53.0,54,30,6.0,0.0
300,59.0,0,60,0.0,0.0
301,59.0,0,60,1.0,0.0
302,59.0,0,60,2.0,0.0
303,47.0,0,60,3.0,0.0
304,35.0,0,60,4.0,0.0
305,47.0,42,60,6.0,0.0
306,59.0,0,30,0.0,0.0
307,59.0,0,30,1.0,0.0
308,59.0,0,30,2.0,0.0
309,47.0,0,30,3.0,0.0
310,35.0,0,30,4.0,0.0
311,47.0,54,30,6.0,0.0
312,62.0,0,60,0.0,0.0
313,62.0,0,60,1.0,0.0
314,62.0,0,60,2.0,0.0
315,50.0,0,60,3.0,0.0
316,38.0,0,60,4.0,0.0
317,50.0,42,60,6.0,0.0
318,62.0,0,30,0.0,0.0
319,62.0,0,30,1.0,0.0
320,62.0,0,30,2.0,0.0
321,50.0,0,30,3.0,0.0
322,38.0,0,30,4.0,0.0
323,50.0,54,30,6.0,0.0
324,65.0,0,60,0.0,0.0
325,65.0,0,60,1.0,0.0
326,65.0,0,60,2.0,0.0
327,53.0,0,60,3.0,0.0
328,41.0,0,60,4.0,0.0
329,53.0,42,60,6.0,0.0
330,65.0,0,30,0.0,0.0
331,65.0,0,30,1.0,0.0
332,65.0,0,30,2.0,0.0
333,53.0,0,30,3.0,0.0
334,41.0,0,30,4.0,0.0
335,53.0,90,30,6.0,0.0
336,56.0,0,90,0.0,0.0
337,56.0,0,90,1.0,0.0
338,56.0,0,90,2.0,0.0
339,44.0,0,90,3.0,0.0
340,32.0,0,90,4.0,0.0
341,44.0,102,90,6.0,0.0
342,62.0,0,30,0.0,0.0
343,62.0,0,30,1.0,0.0
344,62.0,0,30,2.0,0.0
345,50.0,0,30,3.0,0.0
346,38.0,6,30,4.0,0.0
347,50.0,42,60,6.0,0.0
348,63.0,0,30,0.0,0.0
349,63.0,0,30,1.0,0.0
350,63.0,0,30,2.0,0.0
351,51.0,0,30,3.0,0.0
352,39.0,6,30,4.0,0.0
353,51.0,42,60,6.0,0.0
354,60.0,0,30,0.0,0.0
355,60.0,0,30,1.0,0.0
356,60.0,0,30,2.0,0.0
357,48.0,0,30,3.0,0.0
358,36.0,0,30,4.0,0.0
359,48.0,48,30,6.0,0.0
360,66.0,0,30,0.0,0.0
361,66.0,0,30,1.0,0.0
362,66.0,0,30,2.0,0.0
363,54.0,0,30,3.0,0.0
364,42.0,6,30,4.0,0.0
365,54.0,42,60,6.0,0.0
366,67.0,0,30,0.0,0.0
367,67.0,0,30,1.0,0.0
368,67.0,0,30,2.0,0.0
369,55.0,0,30,3.0,0.0
370,43.0,0,30,4.0,0.0
371,55.0,90,30,6.0,0.0
372,62.0,0,90,0.0,0.0
373,62.0,0,90,1.0,0.0
374,62.0,0,90,2.0,0.0
375,50.0,0,90,3.0,0.0
376,38.0,0,90,4.0,0.0
377,50.0,96,90,6.0,0.0
378,62.0,0,90,0.0,0.0
379,62.0,0,90,1.0,0.0
380,50.0,0,90,2.0,0.0
381,38.0,0,90,3.0,0.0
382,26.0,0,90,4.0,0.0
383,38.0,96,90,6.0,0.0
384,55.0,0,90,0.0,0.0
385,55.0,0,90,1.0,0.0
386,55.0,0,90,2.0,0.0
387,43.0,0,90,3.0,0.0
388,31.0,0,90,4.0,0.0
389,74.0,0,90,5.0,0.0
390,43.0,60,90,6.0,0.0
391,72.0,48,60,5.0,0.0
392,70.0,24,60,5.0,0.0
393,69.0,24,20,5.0,0.0
394,67.0,42,20,5.0,0.0
395,66.0,54,30,5.0,0.0
396,74.0,0,90,0.0,0.0
397,70.0,0,90,1.0,0.0
398,67.0,6,90,2.0,0.0
399,55.0,0,60,3.0,0.0
400,43.0,0,60,4.0,0.0
401,67.0,0,60,5.0,0.0
402,55.0,36,60,6.0,0.0
403,55.0,0,30,3.0,0.0
404,43.0,0,30,4.0,0.0
405,66.0,0,30,5.0,0.0
406,55.0,54,30,6.0,0.0
407,70.0,0,90,0.0,0.0
408,67.0,0,90,1.0,0.0
409,62.0,6,90,2.0,0.0
410,58.0,0,60,3.0,0.0
411,46.0,0,60,4.0,0.0
412,66.0,0,60,5.0,0.0
413,58.0,36,60,6.0,0.0
414,58.0,0,30,3.0,0.0
415,46.0,0,30,4.0,0.0
416,67.0,0,30,5.0,0.0
417,58.0,54,30,6.0,0.0
418,66.0,6,90,0.0,0.0
419,62.0,0,60,1.0,0.0
420,58.0,0,60,2.0,0.0
421,62.0,0,60,3.0,0.0
422,50.0,0,60,4.0,0.0
423,62.0,36,60,6.0,0.0
424,60.0,0,30,1.0,0.0
425,57.0,0,30,2.0,0.0
426,62.0,0,30,3.0,0.0
427,50.0,0,30,4.0,0.0
428,62.0,54,30,6.0,0.0
429,67.0,0,60,0.0,0.0
430,58.0,0,90,1.0,0.0
431,55.0,0,90,2.0,0.0
432,51.0,0,60,3.0,0.0
433,39.0,0,60,4.0,0.0
434,79.0,6,90,5.0,0.0
435,51.0,36,60,6.0,0.0
436,66.0,0,30,0.0,0.0
437,50.0,0,30,3.0,0.0
438,38.0,0,30,4.0,0.0
439,50.0,54,30,6.0,0.0
440,66.0,0,60,0.0,0.0
441,50.0,0,60,3.0,0.0
442,38.0,0,60,4.0,0.0
443,77.0,0,60,5.0,0.0
444,50.0,42,60,6.0,0.0
445,67.0,0,30,0.0,0.0
446,51.0,0,30,3.0,0.0
447,39.0,0,30,4.0,0.0
448,75.0,24,60,5.0,0.0
449,51.0,6,30,6.0,0.0
450,74.0,24,20,5.0,0.0
451,72.0,42,20,5.0,0.0
452,71.0,54,30,5.0,0.0
453,72.0,0,90,0.0,0.0
454,66.0,0,90,1.0,0.0
455,60.0,6,90,2.0,0.0
456,57.0,0,60,3.0,0.0
457,45.0,0,60,4.0,0.0
458,72.0,0,60,5.0,0.0
459,57.0,36,60,6.0,0.0
460,57.0,0,30,3.0,0.0
461,45.0,0,30,4.0,0.0
462,71.0,0,30,5.0,0.0
463,57.0,54,30,6.0,0.0
464,69.0,0,90,0.0,0.0
465,66.0,0,60,1.0,0.0
466,63.0,6,90,2.0,0.0
467,60.0,0,60,3.0,0.0
468,48.0,0,60,4.0,0.0
469,71.0,0,60,5.0,0.0
470,60.0,36,60,6.0,0.0
471,69.0,0,30,1.0,0.0
472,60.0,0,30,3.0,0.0
473,48.0,0,30,4.0,0.0
474,72.0,18,210,5.0,0.0
475,60.0,54,30,6.0,0.0
476,66.0,0,90,0.0,0.0
477,60.0,0,60,1.0,0.0
478,57.0,6,90,2.0,0.0
479,63.0,0,60,3.0,0.0
480,51.0,0,60,4.0,0.0
481,63.0,36,60,6.0,0.0
482,63.0,0,30,1.0,0.0
483,63.0,0,30,3.0,0.0
484,51.0,0,30,4.0,0.0
485,63.0,54,30,6.0,0.0
486,62.0,0,60,0.0,0.0
487,57.0,0,90,1.0,0.0
488,62.0,6,90,2.0,0.0
489,54.0,0,60,3.0,0.0
490,42.0,0,60,4.0,0.0
491,54.0,18,60,6.0,0.0
492,60.0,0,30,0.0,0.0
493,54.0,0,30,3.0,0.0
494,42.0,0,30,4.0,0.0
495,54.0,54,30,6.0,0.0
496,62.0,6,90,0.0,0.0
497,57.0,0,60,3.0,0.0
498,45.0,0,60,4.0,0.0
499,70.0,0,60,5.0,0.0
500,57.0,36,60,6.0,0.0
501,57.0,0,30,3.0,0.0
502,45.0,0,30,4.0,0.0
503,69.0,48,60,5.0,0.0
504,57.0,6,30,6.0,0.0
505,60.0,0,60,3.0,0.0
506,48.0,0,60,4.0,0.0
507,67.0,0,60,5.0,0.0
508,60.0,10,60,6.0,0.0
509,60.0,0,30,3.0,0.0
510,48.0,0,30,4.0,0.0
511,66.0,12,15,5.0,0.0
512,60.0,4,30,6.0,0.0
513,69.0,12,15,5.0,0.0
514,72.0,8,15,5.0,0.0
515,75.0,50,15,5.0,0.0
516,69.0,0,60,0.0,0.0
517,66.0,0,90,1.0,0.0
518,60.0,0,90,2.0,0.0
519,50.0,0,60,3.0,0.0
520,38.0,0,60,4.0,0.0
521,75.0,6,90,5.0,0.0
522,50.0,36,60,6.0,0.0
523,67.0,0,30,0.0,0.0
524,50.0,0,30,3.0,0.0
525,38.0,0,30,4.0,0.0
526,50.0,9,30,6.0,0.0
527,69.0,6,90,0.0,0.0
528,54.0,0,60,3.0,0.0
529,42.0,0,60,4.0,0.0
530,74.0,3,15,5.0,0.0
531,54.0,36,60,6.0,0.0
532,75.0,3,15,5.0,0.0
533,74.0,3,15,5.0,0.0
534,75.0,3,15,5.0,0.0
535,74.0,3,15,5.0,0.0
536,75.0,3,15,5.0,0.0
537,74.0,3,15,5.0,0.0
538,75.0,3,15,5.0,0.0
539,74.0,3,15,5.0,0.0
540,75.0,3,15,5.0,0.0
541,74.0,3,15,5.0,0.0
542,75.0,10,15,5.0,0.0
543,74.0,2,15,5.0,0.0
544,54.0,0,30,3.0,0.0
545,42.0,0,30,4.0,0.0
546,72.0,25,120,5.0,0.0
547,54.0,54,30,6.0,0.0
548,57.0,0,60,3.0,0.0
549,45.0,0,60,4.0,0.0
550,57.0,9,60,6.0,0.0
551,57.0,0,30,3.0,0.0
552,45.0,0,30,4.0,0.0
553,57.0,4,30,6.0,0.0
554,70.0,8,15,5.0,0.0
555,69.0,50,15,5.0,0.0
556,67.0,0,90,0.0,0.0
557,62.0,0,90,1.0,0.0
558,58.0,0,90,2.0,0.0
559,46.0,0,60,3.0,0.0
560,34.0,0,60,4.0,0.0
561,67.0,12,60,5.0,0.0
562,46.0,24,60,6.0,0.0
563,45.0,0,60,3.0,0.0
564,33.0,0,60,4.0,0.0
565,45.0,42,60,6.0,0.0
566,69.0,10,15,5.0,0.0
567,66.0,2,15,5.0,0.0
568,70.0,0,90,0.0,0.0
569,67.0,0,90,1.0,0.0
570,62.0,0,90,2.0,0.0
571,46.0,0,30,3.0,0.0
572,34.0,0,30,4.0,0.0
573,67.0,6,90,5.0,0.0
574,46.0,18,30,6.0,0.0
575,58.0,0,30,3.0,0.0
576,46.0,48,30,4.0,0.0
577,58.0,24,15,6.0,0.0
578,74.0,0,90,0.0,0.0
579,70.0,0,90,1.0,0.0
580,67.0,6,90,2.0,0.0
581,54.0,0,30,3.0,0.0
582,42.0,6,30,4.0,0.0
583,54.0,36,60,6.0,0.0
584,55.0,0,30,3.0,0.0
585,43.0,0,30,4.0,0.0
586,55.0,30,30,6.0,0.0
587,75.0,9,90,0.0,0.0
588,69.0,0,360,1.0,0.0
589,67.0,6,270,2.0,0.0
590,48.0,0,60,3.0,0.0
591,36.0,0,60,4.0,0.0
592,75.0,21,20,5.0,0.0
593,48.0,24,60,6.0,0.0
594,74.0,3,20,5.0,0.0
595,46.0,0,60,3.0,0.0
596,34.0,0,60,4.0,0.0
597,77.0,12,20,5.0,0.0
598,46.0,42,60,6.0,0.0
599,75.0,3,20,5.0,0.0
600,79.0,0,90,0.0,0.0
601,48.0,0,30,3.0,0.0
602,36.0,0,30,4.0,0.0
603,75.0,6,90,5.0,0.0
604,48.0,18,30,6.0,0.0
605,58.0,0,30,3.0,0.0
606,46.0,48,30,4.0,0.0
607,58.0,24,15,6.0,0.0
608,75.0,0,90,0.0,0.0
609,54.0,0,30,3.0,0.0
610,42.0,6,30,4.0,0.0
611,54.0,36,60,6.0,0.0
612,55.0,0,30,3.0,0.0
613,43.0,0,30,4.0,0.0
614,55.0,48,30,6.0,0.0
615,72.0,0,90,0.0,0.0
616,66.0,0,90,2.0,0.0
617,50.0,0,60,3.0,0.0
618,38.0,0,60,4.0,0.0
619,78.0,6,30,5.0,0.0
620,50.0,12,60,6.0,0.0
621,48.0,0,60,3.0,0.0
622,36.0,0,60,4.0,0.0
623,79.0,12,15,5.0,0.0
624,48.0,3,60,6.0,0.0
625,78.0,12,15,5.0,0.0
626,76.0,12,15,5.0,0.0
627,78.0,0,15,5.0,0.0
628,75.0,0,90,0.0,0.0
629,72.0,0,90,1.0,0.0
630,57.0,0,90,2.0,0.0
631,50.0,0,30,3.0,0.0
632,38.0,0,30,4.0,0.0
633,79.0,3,15,5.0,0.0
634,50.0,3,30,6.0,0.0
635,78.0,3,15,5.0,0.0
636,79.0,3,15,5.0,0.0
637,78.0,3,15,5.0,0.0
638,79.0,3,15,5.0,0.0
639,78.0,3,15,5.0,0.0
640,79.0,3,15,5.0,0.0
641,78.0,3,15,5.0,0.0
642,79.0,3,15,5.0,0.0
643,78.0,3,15,5.0,0.0
644,79.0,3,15,5.0,0.0
645,78.0,3,15,5.0,0.0
646,79.0,3,15,5.0,0.0
647,78.0,0,15,5.0,0.0
648,79.0,3,15,5.0,0.0
649,78.0,3,15,5.0,0.0
650,58.0,0,30,3.0,0.0
651,46.0,0,30,4.0,0.0
652,79.0,3,15,5.0,0.0
653,58.0,3,15,6.0,0.0
654,78.0,3,15,5.0,0.0
655,79.0,3,15,5.0,0.0
656,78.0,0,15,5.0,0.0
657,79.0,3,15,5.0,0.0
658,78.0,3,15,5.0,0.0
659,79.0,3,15,5.0,0.0
660,78.0,3,15,5.0,0.0
661,79.0,3,15,5.0,0.0
662,78.0,3,15,5.0,0.0
663,79.0,3,15,5.0,0.0
664,78.0,3,15,5.0,0.0
665,79.0,3,15,5.0,0.0
666,78.0,3,15,5.0,0.0
667,79.0,3,15,5.0,0.0
668,78.0,3,15,5.0,0.0
669,74.0,0,60,0.0,0.0
670,69.0,0,90,1.0,0.0
671,62.0,6,90,2.0,0.0
672,54.0,0,30,3.0,0.0
673,42.0,6,30,4.0,0.0
674,79.0,3,15,5.0,0.0
675,54.0,24,60,6.0,0.0
676,78.0,3,15,5.0,0.0
677,79.0,3,15,5.0,0.0
678,78.0,3,15,5.0,0.0
679,79.0,3,15,5.0,0.0
680,78.0,3,15,5.0,0.0
681,79.0,3,15,5.0,0.0
682,78.0,3,15,5.0,0.0
683,79.0,15,15,5.0,0.0
684,78.0,0,20,5.0,0.0
685,72.0,0,30,0.0,0.0
686,55.0,0,30,3.0,0.0
687,43.0,0,30,4.0,0.0
688,76.0,12,20,5.0,0.0
689,55.0,3,30,6.0,0.0
690,78.0,51,20,5.0,0.0
691,70.0,0,60,0.0,0.0
692,67.0,0,90,1.0,0.0
693,67.0,0,90,2.0,0.0
694,51.0,0,90,3.0,0.0
695,39.0,0,90,4.0,0.0
696,79.0,36,60,5.0,0.0
697,51.0,6,90,6.0,0.0
698,66.0,0,30,0.0,0.0
699,74.0,54,30,5.0,0.0
700,66.0,0,60,0.0,0.0
701,75.0,42,60,5.0,0.0
702,67.0,0,30,0.0,0.0
703,55.0,0,30,3.0,0.0
704,43.0,0,30,4.0,0.0
705,71.0,6,30,5.0,0.0
706,55.0,42,60,6.0,0.0
707,56.0,0,30,3.0,0.0
708,44.0,6,30,4.0,0.0
709,72.0,0,60,5.0,0.0
710,56.0,42,60,6.0,0.0
711,53.0,0,30,3.0,0.0
712,41.0,0,30,4.0,0.0
713,68.0,0,30,5.0,0.0
714,53.0,54,30,6.0,0.0
715,68.0,0,90,0.0,0.0
716,65.0,0,90,1.0,0.0
717,62.0,6,90,2.0,0.0
718,47.0,0,60,3.0,0.0
719,35.0,0,60,4.0,0.0
720,67.0,0,60,5.0,0.0
721,47.0,36,60,6.0,0.0
722,47.0,0,30,3.0,0.0
723,35.0,0,30,4.0,0.0
724,65.0,48,270,5.0,0.0
725,47.0,54,30,6.0,0.0
726,65.0,0,90,0.0,0.0
727,62.0,0,90,1.0,0.0
728,59.0,6,90,2.0,0.0
729,50.0,0,60,3.0,0.0
730,38.0,0,60,4.0,0.0
731,50.0,36,60,6.0,0.0
732,50.0,0,30,3.0,0.0
733,38.0,0,30,4.0,0.0
734,50.0,54,30,6.0,0.0
735,62.0,0,90,0.0,0.0
736,59.0,0,90,1.0,0.0
737,56.0,6,90,2.0,0.0
738,53.0,0,60,3.0,0.0
739,41.0,0,60,4.0,0.0
740,53.0,36,60,6.0,0.0
741,53.0,0,30,3.0,0.0
742,41.0,0,30,4.0,0.0
743,53.0,42,30,6.0,0.0
744,59.0,0,90,0.0,0.0
745,65.0,0,90,1.0,0.0
746,62.0,0,90,2.0,0.0
747,44.0,0,90,3.0,0.0
748,32.0,0,90,4.0,0.0
749,44.0,12,90,6.0,0.0
750,62.0,42,60,5.0,0.0
751,63.0,30,30,5.0,0.0
752,71.0,0,30,0.0,0.0
753,62.0,0,30,1.0,0.0
754,65.0,0,30,2.0,0.0
755,50.0,0,30,3.0,0.0
756,38.0,3,30,4.0,0.0
757,67.0,18,20,5.0,0.0
758,50.0,42,60,6.0,0.0
759,65.0,3,20,5.0,0.0
760,72.0,0,30,0.0,0.0
761,67.0,0,30,1.0,0.0
762,63.0,0,30,2.0,0.0
763,51.0,0,30,3.0,0.0
764,39.0,0,30,4.0,0.0
765,67.0,6,30,5.0,0.0
766,51.0,24,60,6.0,0.0
767,75.0,0,30,0.0,0.0
768,67.0,0,30,1.0,0.0
769,63.0,0,30,2.0,0.0
770,48.0,0,30,3.0,0.0
771,36.0,0,30,4.0,0.0
772,71.0,18,20,5.0,0.0
773,48.0,3,30,6.0,0.0
774,69.0,45,20,5.0,0.0
775,74.0,0,60,0.0,0.0
776,68.0,0,30,1.0,0.0
777,65.0,42,60,2.0,0.0
778,56.0,0,30,3.0,0.0
779,44.0,0,30,4.0,0.0
780,71.0,0,30,5.0,0.0
781,56.0,6,30,6.0,0.0
782,72.0,0,30,0.0,0.0
783,68.0,0,30,1.0,0.0
784,60.0,0,30,2.0,0.0
785,53.0,0,30,3.0,0.0
786,41.0,0,30,4.0,0.0
787,72.0,0,30,5.0,0.0
788,53.0,54,30,6.0,0.0
789,72.0,0,90,0.0,0.0
790,67.0,12,180,1.0,0.0
791,67.0,36,60,2.0,0.0
792,55.0,0,90,3.0,0.0
793,43.0,0,90,4.0,0.0
794,75.0,3,90,5.0,0.0
795,55.0,6,90,6.0,0.0
796,63.0,6,30,2.0,0.0
797,71.0,0,90,0.0,0.0
798,65.0,0,60,2.0,0.0
799,43.0,0,90,3.0,0.0
800,31.0,0,90,4.0,0.0
801,74.0,3,15,5.0,0.0
802,43.0,6,90,6.0,0.0
803,75.0,3,15,5.0,0.0
804,74.0,3,15,5.0,0.0
805,75.0,3,15,5.0,0.0
806,74.0,3,15,5.0,0.0
807,75.0,6,15,5.0,0.0
808,74.0,24,15,5.0,0.0
809,72.0,24,20,5.0,0.0
810,62.0,0,30,2.0,0.0
811,74.0,90,30,5.0,0.0
812,72.0,0,90,0.0,0.0
813,67.0,0,90,1.0,0.0
814,63.0,0,90,2.0,0.0
815,48.0,0,90,3.0,0.0
816,36.0,0,90,4.0,0.0
817,72.0,0,90,5.0,0.0
818,48.0,96,90,6.0,0.0
819,67.0,60,90,5.0,0.0
820,65.0,42,60,5.0,0.0
821,63.0,30,30,5.0,0.0
822,72.0,0,90,0.0,0.0
823,67.0,0,90,1.0,0.0
824,63.0,6,90,2.0,0.0
825,48.0,0,60,3.0,0.0
826,36.0,0,60,4.0,0.0
827,62.0,21,20,5.0,0.0
828,48.0,36,60,6.0,0.0
829,60.0,3,20,5.0,0.0
830,48.0,0,30,3.0,0.0
831,36.0,0,30,4.0,0.0
832,59.0,0,30,5.0,0.0
833,48.0,54,30,6.0,0.0
834,67.0,0,90,0.0,0.0
835,63.0,0,90,1.0,0.0
836,60.0,6,90,2.0,0.0
837,51.0,0,60,3.0,0.0
838,39.0,0,60,4.0,0.0
839,59.0,0,60,5.0,0.0
840,51.0,36,60,6.0,0.0
841,51.0,0,30,3.0,0.0
842,39.0,0,30,4.0,0.0
843,60.0,0,30,5.0,0.0
844,51.0,54,30,6.0,0.0
845,63.0,0,90,0.0,0.0
846,60.0,0,90,1.0,0.0
847,55.0,6,90,2.0,0.0
848,55.0,0,60,3.0,0.0
849,43.0,0,60,4.0,0.0
850,55.0,36,60,6.0,0.0
851,55.0,0,30,3.0,0.0
852,43.0,0,30,4.0,0.0
853,55.0,54,30,6.0,0.0
854,76.0,0,90,0.0,0.0
855,73.0,0,90,1.0,0.0
856,64.0,6,90,2.0,0.0
857,45.0,0,60,3.0,0.0
858,33.0,0,60,4.0,0.0
859,82.0,18,60,5.0,0.0
860,45.0,4,60,6.0,0.0
861,45.0,0,30,3.0,0.0
862,33.0,0,30,4.0,0.0
863,45.0,4,30,6.0,0.0
864,81.0,12,15,5.0,0.0
865,79.0,2,15,5.0,0.0
866,77.0,26,15,5.0,0.0
867,73.0,0,90,0.0,0.0
868,69.0,0,90,1.0,0.0
869,64.0,6,90,2.0,0.0
870,49.0,0,60,3.0,0.0
871,37.0,0,60,4.0,0.0
872,76.0,24,20,5.0,0.0
873,49.0,24,60,6.0,0.0
874,79.0,0,20,5.0,0.0
875,49.0,0,30,3.0,0.0
876,37.0,0,30,4.0,0.0
877,77.0,12,20,5.0,0.0
878,49.0,6,30,6.0,0.0
879,76.0,24,20,5.0,0.0
880,69.0,0,90,0.0,0.0
881,67.0,6,90,1.0,0.0
882,64.0,0,60,2.0,0.0
883,52.0,0,60,3.0,0.0
884,40.0,0,60,4.0,0.0
885,74.0,24,20,5.0,0.0
886,52.0,24,60,6.0,0.0
887,73.0,0,20,5.0,0.0
888,61.0,0,30,2.0,0.0
889,52.0,0,30,3.0,0.0
890,40.0,0,30,4.0,0.0
891,71.0,12,20,5.0,0.0
892,52.0,3,30,6.0,0.0
893,69.0,15,20,5.0,0.0
894,69.0,0,90,0.0,0.0
895,65.0,0,90,1.0,0.0
896,62.0,0,90,2.0,0.0
897,38.0,0,90,3.0,0.0
898,26.0,0,90,4.0,0.0
899,77.0,12,15,5.0,0.0
900,38.0,3,90,6.0,0.0
901,82.0,60,15,5.0,0.0
902,81.0,33,60,5.0,0.0
903,79.0,42,20,5.0,0.0
904,77.0,27,30,5.0,0.0
905,76.0,24,20,5.0,0.0
906,74.0,24,20,5.0,0.0
907,76.0,45,20,5.0,0.0
908,73.0,54,30,5.0,0.0
909,81.0,0,90,0.0,0.0
910,77.0,0,90,1.0,0.0
911,74.0,6,90,2.0,0.0
912,50.0,0,60,3.0,0.0
913,38.0,0,60,4.0,0.0
914,74.0,18,60,5.0,0.0
915,50.0,4,60,6.0,0.0
916,50.0,0,30,3.0,0.0
917,38.0,0,30,4.0,0.0
918,50.0,4,30,6.0,0.0
919,76.0,12,15,5.0,0.0
920,74.0,2,15,5.0,0.0
921,73.0,50,15,5.0,0.0
922,77.0,0,90,0.0,0.0
923,74.0,0,90,1.0,0.0
924,69.0,0,90,2.0,0.0
925,53.0,0,60,3.0,0.0
926,41.0,0,60,4.0,0.0
927,74.0,6,90,5.0,0.0
928,53.0,36,60,6.0,0.0
929,53.0,0,30,3.0,0.0
930,41.0,0,30,4.0,0.0
931,53.0,54,30,6.0,0.0
932,73.0,6,90,0.0,0.0
933,69.0,0,60,1.0,0.0
934,65.0,0,60,2.0,0.0
935,57.0,0,60,3.0,0.0
936,45.0,0,60,4.0,0.0
937,57.0,36,60,6.0,0.0
938,67.0,0,30,1.0,0.0
939,64.0,0,30,2.0,0.0
940,57.0,0,30,3.0,0.0
941,45.0,0,30,4.0,0.0
942,57.0,54,30,6.0,0.0
943,74.0,0,60,0.0,0.0
944,65.0,0,90,1.0,0.0
945,62.0,0,90,2.0,0.0
946,46.0,0,60,3.0,0.0
947,34.0,0,60,4.0,0.0
948,86.0,6,90,5.0,0.0
949,46.0,36,60,6.0,0.0
950,73.0,0,30,0.0,0.0
951,45.0,0,30,3.0,0.0
952,33.0,0,30,4.0,0.0
953,45.0,54,30,6.0,0.0
954,73.0,0,60,0.0,0.0
955,45.0,0,60,3.0,0.0
956,33.0,0,60,4.0,0.0
957,84.0,0,60,5.0,0.0
958,45.0,42,60,6.0,0.0
959,74.0,0,30,0.0,0.0
960,46.0,0,30,3.0,0.0
961,34.0,0,30,4.0,0.0
962,82.0,0,30,5.0,0.0
963,46.0,30,30,6.0,0.0
964,81.0,24,20,5.0,0.0
965,79.0,42,20,5.0,0.0
966,78.0,30,30,5.0,0.0
967,79.0,0,90,0.0,0.0
968,73.0,0,90,1.0,0.0
969,67.0,6,90,2.0,0.0
970,52.0,0,60,3.0,0.0
971,40.0,0,60,4.0,0.0
972,79.0,21,20,5.0,0.0
973,52.0,24,60,6.0,0.0
974,78.0,3,20,5.0,0.0
975,52.0,0,30,3.0,0.0
976,40.0,0,30,4.0,0.0
977,81.0,12,20,5.0,0.0
978,52.0,3,30,6.0,0.0
979,79.0,6,20,5.0,0.0
980,76.0,0,90,0.0,0.0
981,73.0,0,60,1.0,0.0
982,70.0,6,90,2.0,0.0
983,55.0,0,60,3.0,0.0
984,43.0,0,60,4.0,0.0
985,79.0,3,15,5.0,0.0
986,55.0,36,60,6.0,0.0
987,78.0,42,15,5.0,0.0
988,79.0,33,300,5.0,0.0
989,76.0,0,30,1.0,0.0
990,55.0,0,30,3.0,0.0
991,43.0,0,30,4.0,0.0
992,55.0,54,30,6.0,0.0
993,73.0,0,90,0.0,0.0
994,67.0,0,60,1.0,0.0
995,64.0,6,90,2.0,0.0
996,58.0,0,60,3.0,0.0
997,46.0,0,60,4.0,0.0
998,58.0,36,60,6.0,0.0
999,70.0,0,30,1.0,0.0
1000,58.0,0,30,3.0,0.0
1001,46.0,0,30,4.0,0.0
1002,58.0,54,30,6.0,0.0
1003,69.0,0,60,0.0,0.0
1004,64.0,0,90,1.0,0.0
1005,69.0,6,90,2.0,0.0
1006,49.0,0,60,3.0,0.0
1007,37.0,0,60,4.0,0.0
1008,49.0,36,60,6.0,0.0
1009,67.0,0,30,0.0,0.0
1010,49.0,0,30,3.0,0.0
1011,37.0,0,30,4.0,0.0
1012,49.0,18,30,6.0,0.0
1013,69.0,6,90,0.0,0.0
1014,52.0,0,60,3.0,0.0
1015,40.0,0,60,4.0,0.0
1016,52.0,36,60,6.0,0.0
1017,77.0,3,20,5.0,0.0
1018,52.0,0,30,3.0,0.0
1019,40.0,0,30,4.0,0.0
1020,76.0,30,60,5.0,0.0
1021,52.0,21,30,6.0,0.0
1022,55.0,0,60,3.0,0.0
1023,43.0,0,60,4.0,0.0
1024,55.0,21,60,6.0,0.0
1025,74.0,3,20,5.0,0.0
1026,55.0,0,30,3.0,0.0
1027,43.0,0,30,4.0,0.0
1028,73.0,21,20,5.0,0.0
1029,55.0,13,30,6.0,0.0
1030,82.0,15,30,5.0,0.0
1031,76.0,0,60,0.0,0.0
1032,73.0,0,90,1.0,0.0
1033,67.0,6,90,2.0,0.0
1034,45.0,0,60,3.0,0.0
1035,33.0,0,60,4.0,0.0
1036,45.0,21,60,6.0,0.0
1037,81.0,12,15,5.0,0.0
1038,79.0,12,15,5.0,0.0
1039,77.0,2,15,5.0,0.0
1040,74.0,0,30,0.0,0.0
1041,45.0,0,30,3.0,0.0
1042,33.0,0,30,4.0,0.0
1043,79.0,15,20,5.0,0.0
1044,45.0,13,30,6.0,0.0
1045,82.0,15,30,5.0,0.0
1046,76.0,6,90,0.0,0.0
1047,49.0,0,60,3.0,0.0
1048,37.0,0,60,4.0,0.0
1049,49.0,21,60,6.0,0.0
1050,81.0,12,15,5.0,0.0
1051,79.0,12,15,5.0,0.0
1052,77.0,2,15,5.0,0.0
1053,49.0,0,30,3.0,0.0
1054,37.0,0,30,4.0,0.0
1055,76.0,15,20,5.0,0.0
1056,49.0,13,30,6.0,0.0
1057,79.0,15,30,5.0,0.0
1058,52.0,0,60,3.0,0.0
1059,40.0,0,60,4.0,0.0
1060,52.0,21,60,6.0,0.0
1061,77.0,12,15,5.0,0.0
1062,76.0,12,15,5.0,0.0
1063,74.0,2,15,5.0,0.0
1064,52.0,0,30,3.0,0.0
1065,40.0,0,30,4.0,0.0
1066,76.0,21,20,5.0,0.0
1067,52.0,3,30,6.0,0.0
1068,73.0,51,20,5.0,0.0
1069,62.0,0,90,0.0,0.0
1070,69.0,0,90,1.0,0.0
1071,65.0,0,90,2.0,0.0
1072,41.0,0,60,3.0,0.0
1073,29.0,0,60,4.0,0.0
1074,74.0,12,60,5.0,0.0
1075,41.0,24,60,6.0,0.0
1076,40.0,0,60,3.0,0.0
1077,28.0,0,60,4.0,0.0
1078,40.0,42,60,6.0,0.0
1079,76.0,10,15,5.0,0.0
1080,77.0,2,15,5.0,0.0
1081,65.0,0,90,0.0,0.0
1082,62.0,0,90,1.0,0.0
1083,57.0,6,90,2.0,0.0
1084,41.0,0,30,3.0,0.0
1085,29.0,0,30,4.0,0.0
1086,76.0,12,60,5.0,0.0
1087,41.0,6,30,6.0,0.0
1088,53.0,0,30,3.0,0.0
1089,41.0,6,30,4.0,0.0
1090,74.0,42,60,5.0,0.0
1091,53.0,24,15,6.0,0.0
1092,69.0,0,90,0.0,0.0
1093,65.0,0,90,1.0,0.0
1094,62.0,6,90,2.0,0.0
1095,49.0,0,30,3.0,0.0
1096,37.0,6,30,4.0,0.0
1097,49.0,36,60,6.0,0.0
1098,50.0,0,30,3.0,0.0
1099,38.0,0,30,4.0,0.0
1100,50.0,30,30,6.0,0.0
1101,70.0,9,90,0.0,0.0
1102,64.0,0,360,1.0,0.0
1103,62.0,6,270,2.0,0.0
1104,43.0,0,60,3.0,0.0
1105,31.0,0,60,4.0,0.0
1106,82.0,21,20,5.0,0.0
1107,43.0,24,60,6.0,0.0
1108,81.0,3,20,5.0,0.0
1109,41.0,0,60,3.0,0.0
1110,29.0,0,60,4.0,0.0
1111,84.0,12,20,5.0,0.0
1112,41.0,42,60,6.0,0.0
1113,82.0,3,20,5.0,0.0
1114,74.0,6,90,0.0,0.0
1115,43.0,0,30,3.0,0.0
1116,31.0,0,30,4.0,0.0
1117,82.0,30,120,5.0,0.0
1118,43.0,18,30,6.0,0.0
1119,53.0,0,30,3.0,0.0
1120,41.0,18,30,4.0,0.0
1121,53.0,24,15,6.0,0.0
1122,70.0,0,90,0.0,0.0
1123,49.0,0,30,3.0,0.0
1124,37.0,3,30,4.0,0.0
1125,49.0,10,60,6.0,0.0
1126,81.0,3,20,5.0,0.0
1127,50.0,0,30,3.0,0.0
1128,38.0,0,30,4.0,0.0
1129,79.0,12,15,5.0,0.0
1130,50.0,4,30,6.0,0.0
1131,78.0,12,15,5.0,0.0
1132,79.0,2,15,5.0,0.0
1133,82.0,50,15,5.0,0.0
1134,67.0,0,90,0.0,0.0
1135,61.0,0,90,2.0,0.0
1136,45.0,0,60,3.0,0.0
1137,33.0,0,60,4.0,0.0
1138,85.0,0,60,5.0,0.0
1139,45.0,12,60,6.0,0.0
1140,43.0,0,60,3.0,0.0
1141,31.0,0,60,4.0,0.0
1142,86.0,12,15,5.0,0.0
1143,43.0,3,60,6.0,0.0
1144,85.0,12,15,5.0,0.0
1145,83.0,10,15,5.0,0.0
1146,85.0,2,15,5.0,0.0
1147,70.0,0,90,0.0,0.0
1148,67.0,0,90,1.0,0.0
1149,64.0,0,90,2.0,0.0
1150,45.0,0,30,3.0,0.0
1151,33.0,0,30,4.0,0.0
1152,86.0,3,15,5.0,0.0
1153,45.0,3,30,6.0,0.0
1154,85.0,3,15,5.0,0.0
1155,86.0,3,15,5.0,0.0
1156,85.0,3,15,5.0,0.0
1157,86.0,3,15,5.0,0.0
1158,85.0,3,15,5.0,0.0
1159,86.0,3,15,5.0,0.0
1160,85.0,3,15,5.0,0.0
1161,86.0,3,15,5.0,0.0
1162,85.0,3,15,5.0,0.0
1163,86.0,3,15,5.0,0.0
1164,85.0,3,15,5.0,0.0
1165,86.0,3,15,5.0,0.0
1166,85.0,0,15,5.0,0.0
1167,86.0,3,15,5.0,0.0
1168,85.0,3,15,5.0,0.0
1169,53.0,0,30,3.0,0.0
1170,41.0,0,30,4.0,0.0
1171,86.0,3,15,5.0,0.0
1172,53.0,3,15,6.0,0.0
1173,85.0,3,15,5.0,0.0
1174,86.0,3,15,5.0,0.0
1175,85.0,0,15,5.0,0.0
1176,86.0,3,15,5.0,0.0
1177,85.0,3,15,5.0,0.0
1178,86.0,3,15,5.0,0.0
1179,85.0,3,15,5.0,0.0
1180,86.0,3,15,5.0,0.0
1181,85.0,3,15,5.0,0.0
1182,86.0,3,15,5.0,0.0
1183,85.0,3,15,5.0,0.0
1184,86.0,3,15,5.0,0.0
1185,85.0,3,15,5.0,0.0
1186,86.0,3,15,5.0,0.0
1187,85.0,3,15,5.0,0.0
1188,69.0,0,60,0.0,0.0
1189,64.0,0,90,1.0,0.0
1190,57.0,6,90,2.0,0.0
1191,49.0,0,30,3.0,0.0
1192,37.0,6,30,4.0,0.0
1193,86.0,3,15,5.0,0.0
1194,49.0,24,60,6.0,0.0
1195,85.0,3,15,5.0,0.0
1196,86.0,3,15,5.0,0.0
1197,85.0,3,15,5.0,0.0
1198,86.0,3,15,5.0,0.0
1199,85.0,3,15,5.0,0.0
1200,86.0,3,15,5.0,0.0
1201,85.0,3,15,5.0,0.0
1202,86.0,15,15,5.0,0.0
1203,85.0,0,20,5.0,0.0
1204,67.0,0,30,0.0,0.0
1205,50.0,0,30,3.0,0.0
1206,38.0,0,30,4.0,0.0
1207,83.0,12,20,5.0,0.0
1208,50.0,3,30,6.0,0.0
1209,85.0,51,20,5.0,0.0
1210,65.0,0,60,0.0,0.0
1211,62.0,0,90,1.0,0.0
1212,62.0,0,90,2.0,0.0
1213,46.0,0,90,3.0,0.0
1214,34.0,0,90,4.0,0.0
1215,86.0,36,60,5.0,0.0
1216,46.0,6,90,6.0,0.0
1217,61.0,0,30,0.0,0.0
1218,81.0,54,30,5.0,0.0
1219,62.0,6,90,0.0,0.0
1220,82.0,36,60,5.0,0.0
1221,50.0,0,30,3.0,0.0
1222,38.0,0,30,4.0,0.0
1223,78.0,6,30,5.0,0.0
1224,50.0,42,60,6.0,0.0
1225,51.0,0,30,3.0,0.0
1226,39.0,0,30,4.0,0.0
1227,79.0,6,30,5.0,0.0
1228,51.0,24,60,6.0,0.0
1229,48.0,0,30,3.0,0.0
1230,36.0,0,30,4.0,0.0
1231,77.0,18,20,5.0,0.0
1232,48.0,3,30,6.0,0.0
1233,75.0,51,20,5.0,0.0
1234,75.0,0,90,0.0,0.0
1235,72.0,0,90,1.0,0.0
1236,69.0,0,90,2.0,0.0
1237,42.0,0,60,3.0,0.0
1238,30.0,0,60,4.0,0.0
1239,74.0,0,60,5.0,0.0
1240,42.0,3,60,6.0,0.0
1241,42.0,0,30,3.0,0.0
1242,30.0,0,30,4.0,0.0
1243,72.0,3,15,5.0,0.0
1244,42.0,3,30,6.0,0.0
1245,74.0,3,15,5.0,0.0
1246,72.0,3,15,5.0,0.0
1247,74.0,3,15,5.0,0.0
1248,72.0,3,15,5.0,0.0
1249,74.0,3,15,5.0,0.0
1250,72.0,3,15,5.0,0.0
1251,74.0,3,15,5.0,0.0
1252,72.0,3,15,5.0,0.0
1253,74.0,3,15,5.0,0.0
1254,72.0,3,15,5.0,0.0
1255,74.0,3,15,5.0,0.0
1256,72.0,3,15,5.0,0.0
1257,74.0,0,15,5.0,0.0
1258,72.0,3,15,5.0,0.0
1259,74.0,3,15,5.0,0.0
1260,72.0,0,90,0.0,0.0
1261,69.0,0,90,1.0,0.0
1262,66.0,0,90,2.0,0.0
1263,45.0,0,60,3.0,0.0
1264,33.0,0,60,4.0,0.0
1265,72.0,3,15,5.0,0.0
1266,45.0,3,60,6.0,0.0
1267,74.0,3,15,5.0,0.0
1268,72.0,3,15,5.0,0.0
1269,74.0,3,15,5.0,0.0
1270,72.0,3,15,5.0,0.0
1271,74.0,3,15,5.0,0.0
1272,72.0,3,15,5.0,0.0
1273,74.0,3,15,5.0,0.0
1274,72.0,3,15,5.0,0.0
1275,74.0,3,15,5.0,0.0
1276,72.0,3,15,5.0,0.0
1277,74.0,3,15,5.0,0.0
1278,72.0,3,15,5.0,0.0
1279,74.0,3,15,5.0,0.0
1280,72.0,3,15,5.0,0.0
1281,74.0,0,15,5.0,0.0
1282,45.0,0,30,3.0,0.0
1283,33.0,0,30,4.0,0.0
1284,72.0,3,15,5.0,0.0
1285,45.0,3,30,6.0,0.0
1286,74.0,3,15,5.0,0.0
1287,72.0,3,15,5.0,0.0
1288,74.0,3,15,5.0,0.0
1289,72.0,3,15,5.0,0.0
1290,74.0,3,15,5.0,0.0
1291,72.0,3,15,5.0,0.0
1292,74.0,3,15,5.0,0.0
1293,72.0,3,15,5.0,0.0
1294,74.0,3,15,5.0,0.0
1295,72.0,3,15,5.0,0.0
1296,74.0,3,15,5.0,0.0
1297,72.0,3,15,5.0,0.0
1298,74.0,0,15,5.0,0.0
1299,72.0,3,15,5.0,0.0
1300,74.0,3,15,5.0,0.0
1301,69.0,0,90,0.0,0.0
1302,66.0,0,90,1.0,0.0
1303,63.0,0,90,2.0,0.0
1304,48.0,0,60,3.0,0.0
1305,36.0,0,60,4.0,0.0
1306,72.0,3,15,5.0,0.0
1307,48.0,3,60,6.0,0.0
1308,74.0,3,15,5.0,0.0
1309,72.0,3,15,5.0,0.0
1310,74.0,3,15,5.0,0.0
1311,72.0,3,15,5.0,0.0
1312,74.0,3,15,5.0,0.0
1313,72.0,3,15,5.0,0.0
1314,74.0,3,15,5.0,0.0
1315,72.0,3,15,5.0,0.0
1316,74.0,3,15,5.0,0.0
1317,72.0,3,15,5.0,0.0
1318,74.0,3,15,5.0,0.0
1319,72.0,3,15,5.0,0.0
1320,74.0,3,15,5.0,0.0
1321,72.0,3,15,5.0,0.0
1322,74.0,0,15,5.0,0.0
1323,48.0,0,30,3.0,0.0
1324,36.0,0,30,4.0,0.0
1325,72.0,3,15,5.0,0.0
1326,48.0,3,30,6.0,0.0
1327,74.0,3,15,5.0,0.0
1328,72.0,3,15,5.0,0.0
1329,74.0,3,15,5.0,0.0
1330,72.0,3,15,5.0,0.0
1331,74.0,3,15,5.0,0.0
1332,72.0,3,15,5.0,0.0
1333,74.0,3,15,5.0,0.0
1334,72.0,3,15,5.0,0.0
1335,74.0,3,15,5.0,0.0
1336,72.0,3,15,5.0,0.0
1337,74.0,3,15,5.0,0.0
1338,72.0,3,15,5.0,0.0
1339,74.0,0,15,5.0,0.0
1340,72.0,3,15,5.0,0.0
1341,74.0,42,15,5.0,0.0
1342,65.0,0,90,0.0,0.0
1343,60.0,0,90,1.0,0.0
1344,57.0,0,90,2.0,0.0
1345,39.0,0,90,3.0,0.0
1346,27.0,0,90,4.0,0.0
1347,72.0,42,30,5.0,0.0
1348,39.0,6,90,6.0,0.0
1349,69.0,18,30,5.0,0.0
1350,70.0,12,15,5.0,0.0
1351,72.0,12,15,5.0,0.0
1352,70.0,12,15,5.0,0.0
1353,69.0,24,15,5.0,0.0
1354,75.0,0,30,0.0,0.0
1355,72.0,0,30,1.0,0.0
1356,67.0,0,30,2.0,0.0
1357,45.0,0,30,3.0,0.0
1358,33.0,3,30,4.0,0.0
1359,70.0,18,20,5.0,0.0
1360,45.0,12,60,6.0,0.0
1361,72.0,3,20,5.0,0.0
1362,74.0,0,30,0.0,0.0
1363,70.0,0,30,1.0,0.0
1364,65.0,0,30,2.0,0.0
1365,46.0,0,30,3.0,0.0
1366,34.0,6,30,4.0,0.0
1367,74.0,12,15,5.0,0.0
1368,46.0,24,60,6.0,0.0
1369,75.0,12,15,5.0,0.0
1370,74.0,6,15,5.0,0.0
1371,72.0,0,15,5.0,0.0
1372,72.0,0,30,0.0,0.0
1373,69.0,0,30,1.0,0.0
1374,63.0,0,30,2.0,0.0
1375,48.0,0,30,3.0,0.0
1376,36.0,0,30,4.0,0.0
1377,74.0,18,20,5.0,0.0
1378,48.0,3,30,6.0,0.0
1379,75.0,13,20,5.0,0.0
1380,70.0,18,120,0.0,0.0
1381,70.0,6,90,1.0,0.0
1382,62.0,21,60,2.0,0.0
1383,50.0,0,30,3.0,0.0
1384,38.0,0,30,4.0,0.0
1385,77.0,12,15,5.0,0.0
1386,50.0,4,30,6.0,0.0
1387,77.0,12,15,5.0,0.0
1388,79.0,8,15,5.0,0.0
1389,80.0,2,15,5.0,0.0
1390,60.0,0,30,2.0,0.0
1391,51.0,0,30,3.0,0.0
1392,39.0,0,30,4.0,0.0
1393,79.0,15,20,5.0,0.0
1394,51.0,3,30,6.0,0.0
1395,77.0,33,20,5.0,0.0
1396,65.0,0,90,1.0,0.0
1397,62.0,0,60,2.0,0.0
1398,53.0,0,90,3.0,0.0
1399,41.0,0,90,4.0,0.0
1400,75.0,36,60,5.0,0.0
1401,53.0,6,90,6.0,0.0
1402,72.0,0,30,0.0,0.0
1403,63.0,6,30,2.0,0.0
1404,74.0,3,60,5.0,0.0
1405,70.0,0,15,0.0,0.0
1406,65.0,0,90,1.0,0.0
1407,65.0,0,60,2.0,0.0
1408,41.0,0,90,3.0,0.0
1409,29.0,0,90,4.0,0.0
1410,72.0,3,15,5.0,0.0
1411,41.0,6,90,6.0,0.0
1412,69.0,0,15,0.0,0.0
1413,74.0,3,15,5.0,0.0
1414,70.0,0,15,0.0,0.0
1415,72.0,3,15,5.0,0.0
1416,69.0,0,15,0.0,0.0
1417,74.0,3,15,5.0,0.0
1418,70.0,0,15,0.0,0.0
1419,72.0,3,15,5.0,0.0
1420,69.0,0,15,0.0,0.0
1421,74.0,3,15,5.0,0.0
1422,70.0,3,15,0.0,0.0
1423,72.0,3,15,5.0,0.0
1424,69.0,0,15,0.0,0.0
1425,70.0,3,15,0.0,0.0
1426,70.0,3,20,5.0,0.0
1427,69.0,3,15,0.0,0.0
1428,70.0,3,15,0.0,0.0
1429,69.0,3,15,0.0,0.0
1430,70.0,3,15,0.0,0.0
1431,69.0,3,15,0.0,0.0
1432,70.0,3,15,0.0,0.0
1433,69.0,0,15,0.0,0.0
1434,70.0,3,15,0.0,0.0
1435,60.0,0,30,2.0,0.0
1436,72.0,3,30,5.0,0.0
1437,69.0,3,15,0.0,0.0
1438,70.0,3,15,0.0,0.0
1439,69.0,3,15,0.0,0.0
1440,70.0,3,15,0.0,0.0
1441,69.0,3,15,0.0,0.0
1442,70.0,3,15,0.0,0.0
1443,69.0,3,15,0.0,0.0
1444,70.0,9,15,0.0,0.0
1445,69.0,24,20,0.0,0.0
1446,70.0,0,90,0.0,0.0
1447,65.0,0,90,1.0,0.0
1448,62.0,0,90,2.0,0.0
1449,46.0,0,90,3.0,0.0
1450,34.0,0,90,4.0,0.0
1451,70.0,24,20,5.0,0.0
1452,46.0,9,90,6.0,0.0
1453,65.0,24,20,5.0,0.0
1454,67.0,15,20,5.0,0.0
1455,62.0,24,20,5.0,0.0
1456,63.0,24,20,5.0,0.0
1457,60.0,24,20,5.0,0.0
1458,62.0,24,20,5.0,0.0
1459,58.0,24,20,5.0,0.0
1460,56.0,24,20,5.0,0.0
1461,55.0,24,20,5.0,0.0
1462,56.0,24,20,5.0,0.0
1463,65.0,51,20,5.0,0.0
1464,77.0,12,60,0.0,0.0
1465,74.0,0,90,1.0,0.0
1466,67.0,6,90,2.0,0.0
1467,47.0,0,60,3.0,0.0
1468,35.0,0,60,4.0,0.0
1469,56.0,0,60,5.0,0.0
1470,65.0,33,300,5.0,0.0
1471,47.0,24,60,6.0,0.0
1472,47.0,0,30,3.0,0.0
1473,35.0,0,30,4.0,0.0
1474,55.0,0,240,5.0,0.0
1475,47.0,4,30,6.0,0.0
1476,79.0,0,15,0.0,0.0
1477,80.0,50,15,0.0,0.0
1478,79.0,0,60,0.0,0.0
1479,71.0,0,90,1.0,0.0
1480,62.0,6,90,2.0,0.0
1481,50.0,0,60,3.0,0.0
1482,38.0,0,60,4.0,0.0
1483,50.0,36,60,6.0,0.0
1484,77.0,0,30,0.0,0.0
1485,50.0,0,30,3.0,0.0
1486,38.0,0,30,4.0,0.0
1487,50.0,54,30,6.0,0.0
1488,75.0,0,60,0.0,0.0
1489,67.0,0,90,1.0,0.0
1490,59.0,6,90,2.0,0.0
1491,53.0,0,60,3.0,0.0
1492,41.0,0,60,4.0,0.0
1493,53.0,36,60,6.0,0.0
1494,74.0,0,30,0.0,0.0
1495,53.0,0,30,3.0,0.0
1496,41.0,0,30,4.0,0.0
1497,53.0,18,30,6.0,0.0
1498,72.0,0,60,0.0,0.0
1499,67.0,0,90,1.0,0.0
1500,62.0,6,90,2.0,0.0
1501,43.0,0,60,3.0,0.0
1502,31.0,0,60,4.0,0.0
1503,43.0,21,60,6.0,0.0
1504,59.0,3,20,5.0,0.0
1505,71.0,0,30,0.0,0.0
1506,41.0,0,30,3.0,0.0
1507,29.0,0,30,4.0,0.0
1508,62.0,15,20,5.0,0.0
1509,41.0,3,30,6.0,0.0
1510,65.0,24,20,5.0,0.0
1511,41.0,0,60,3.0,0.0
1512,29.0,0,60,4.0,0.0
1513,68.0,24,20,5.0,0.0
1514,41.0,21,60,6.0,0.0
1515,71.0,3,20,5.0,0.0
1516,43.0,0,30,3.0,0.0
1517,31.0,0,30,4.0,0.0
1518,74.0,21,20,5.0,0.0
1519,43.0,3,30,6.0,0.0
1520,77.0,27,20,5.0,0.0
1521,80.0,24,20,5.0,0.0
1522,79.0,12,20,5.0,0.0
1523,77.0,12,15,5.0,0.0
1524,75.0,12,15,5.0,0.0
1525,77.0,10,15,5.0,0.0
1526,74.0,50,15,5.0,0.0
1527,79.0,0,90,0.0,0.0
1528,75.0,0,90,1.0,0.0
1529,72.0,6,90,2.0,0.0
1530,48.0,0,60,3.0,0.0
1531,36.0,0,60,4.0,0.0
1532,74.0,0,60,5.0,0.0
1533,48.0,3,60,6.0,0.0
1534,48.0,0,30,3.0,0.0
1535,36.0,0,30,4.0,0.0
1536,75.0,3,15,5.0,0.0
1537,48.0,54,30,6.0,0.0
1538,74.0,30,15,5.0,0.0
1539,75.0,36,240,5.0,0.0
1540,75.0,0,90,0.0,0.0
1541,72.0,0,90,1.0,0.0
1542,67.0,6,90,2.0,0.0
1543,51.0,0,60,3.0,0.0
1544,39.0,0,60,4.0,0.0
1545,51.0,36,60,6.0,0.0
1546,51.0,0,30,3.0,0.0
1547,39.0,0,30,4.0,0.0
1548,51.0,54,30,6.0,0.0
1549,71.0,6,90,0.0,0.0
1550,67.0,0,60,1.0,0.0
1551,63.0,0,60,2.0,0.0
1552,55.0,0,60,3.0,0.0
1553,43.0,0,60,4.0,0.0
1554,55.0,36,60,6.0,0.0
1555,65.0,0,30,1.0,0.0
1556,62.0,0,30,2.0,0.0
1557,55.0,0,30,3.0,0.0
1558,43.0,0,30,4.0,0.0
1559,55.0,18,30,6.0,0.0
1560,72.0,0,60,0.0,0.0
1561,63.0,0,90,1.0,0.0
1562,60.0,6,90,2.0,0.0
1563,44.0,0,60,3.0,0.0
1564,32.0,0,60,4.0,0.0
1565,44.0,18,60,6.0,0.0
1566,72.0,16,30,5.0,0.0
1567,71.0,0,30,0.0,0.0
1568,43.0,0,30,3.0,0.0
1569,31.0,0,30,4.0,0.0
1570,43.0,4,30,6.0,0.0
1571,73.0,2,15,5.0,0.0
1572,71.0,14,15,5.0,0.0
1573,72.0,6,90,0.0,0.0
1574,43.0,0,60,3.0,0.0
1575,31.0,0,60,4.0,0.0
1576,72.0,12,15,5.0,0.0
1577,43.0,21,60,6.0,0.0
1578,70.0,12,15,5.0,0.0
1579,68.0,12,15,5.0,0.0
1580,67.0,0,15,5.0,0.0
1581,44.0,0,30,3.0,0.0
1582,32.0,0,30,4.0,0.0
1583,68.0,15,20,5.0,0.0
1584,44.0,3,30,6.0,0.0
1585,64.0,24,20,5.0,0.0
1586,65.0,27,20,5.0,0.0
1587,73.0,24,20,5.0,0.0
1588,72.0,21,20,5.0,0.0
1589,71.0,51,20,5.0,0.0
1590,77.0,0,90,0.0,0.0
1591,71.0,0,90,1.0,0.0
1592,65.0,6,90,2.0,0.0
1593,50.0,0,60,3.0,0.0
1594,38.0,0,60,4.0,0.0
1595,77.0,0,300,5.0,0.0
1596,71.0,36,300,5.0,0.0
1597,50.0,36,60,6.0,0.0
1598,50.0,0,30,3.0,0.0
1599,38.0,0,30,4.0,0.0
1600,50.0,54,30,6.0,0.0
1601,74.0,0,90,0.0,0.0
1602,71.0,0,60,1.0,0.0
1603,68.0,6,90,2.0,0.0
1604,53.0,0,60,3.0,0.0
1605,41.0,0,60,4.0,0.0
1606,53.0,36,60,6.0,0.0
1607,74.0,0,30,1.0,0.0
1608,53.0,0,30,3.0,0.0
1609,41.0,0,30,4.0,0.0
1610,53.0,54,30,6.0,0.0
1611,71.0,0,90,0.0,0.0
1612,65.0,0,60,1.0,0.0
1613,62.0,6,90,2.0,0.0
1614,56.0,0,60,3.0,0.0
1615,44.0,0,60,4.0,0.0
1616,56.0,36,60,6.0,0.0
1617,68.0,0,30,1.0,0.0
1618,56.0,0,30,3.0,0.0
1619,44.0,0,30,4.0,0.0
1620,56.0,18,30,6.0,0.0
1621,67.0,0,60,0.0,0.0
1622,62.0,0,90,1.0,0.0
1623,67.0,6,90,2.0,0.0
1624,47.0,0,60,3.0,0.0
1625,35.0,0,60,4.0,0.0
1626,47.0,24,60,6.0,0.0
1627,76.0,0,20,5.0,0.0
1628,65.0,0,30,0.0,0.0
1629,47.0,0,30,3.0,0.0
1630,35.0,0,30,4.0,0.0
1631,77.0,12,20,5.0,0.0
1632,47.0,3,30,6.0,0.0
1633,80.0,24,20,5.0,0.0
1634,67.0,0,90,0.0,0.0
1635,50.0,0,60,3.0,0.0
1636,38.0,0,60,4.0,0.0
1637,77.0,24,20,5.0,0.0
1638,50.0,3,60,6.0,0.0
1639,76.0,3,20,5.0,0.0
1640,50.0,0,30,3.0,0.0
1641,38.0,0,30,4.0,0.0
1642,77.0,3,15,5.0,0.0
1643,50.0,6,30,6.0,0.0
1644,76.0,16,15,5.0,0.0
1645,77.0,14,15,5.0,0.0
1646,80.0,6,15,5.0,0.0
1647,79.0,12,15,5.0,0.0
1648,53.0,0,60,3.0,0.0
1649,41.0,0,60,4.0,0.0
1650,77.0,12,15,5.0,0.0
1651,53.0,31,60,6.0,0.0
1652,76.0,24,15,5.0,0.0
1653,77.0,0,20,5.0,0.0
1654,53.0,0,30,3.0,0.0
1655,41.0,0,30,4.0,0.0
1656,85.0,11,30,5.0,0.0
1657,53.0,4,30,6.0,0.0
1658,84.0,14,15,5.0,0.0
1659,65.0,0,90,0.0,0.0
1660,68.0,0,90,1.0,0.0
1661,62.0,6,90,2.0,0.0
1662,43.0,0,60,3.0,0.0
1663,31.0,0,60,4.0,0.0
1664,83.0,12,15,5.0,0.0
1665,43.0,3,60,6.0,0.0
1666,84.0,12,15,5.0,0.0
1667,83.0,12,15,5.0,0.0
1668,84.0,0,15,5.0,0.0
1669,43.0,0,30,3.0,0.0
1670,31.0,0,30,4.0,0.0
1671,85.0,3,15,5.0,0.0
1672,43.0,3,30,6.0,0.0
1673,84.0,3,15,5.0,0.0
1674,85.0,3,15,5.0,0.0
1675,84.0,10,15,5.0,0.0
1676,83.0,14,15,5.0,0.0
1677,84.0,51,20,5.0,0.0
1678,62.0,0,90,0.0,0.0
1679,65.0,0,90,1.0,0.0
1680,59.0,6,90,2.0,0.0
1681,47.0,0,60,3.0,0.0
1682,35.0,0,60,4.0,0.0
1683,86.0,33,210,5.0,0.0
1684,47.0,36,60,6.0,0.0
1685,47.0,0,30,3.0,0.0
1686,35.0,0,30,4.0,0.0
1687,47.0,54,30,6.0,0.0
1688,59.0,0,90,0.0,0.0
1689,62.0,0,90,1.0,0.0
1690,55.0,6,90,2.0,0.0
1691,50.0,0,60,3.0,0.0
1692,38.0,0,60,4.0,0.0
1693,50.0,36,60,6.0,0.0
1694,50.0,0,30,3.0,0.0
1695,38.0,0,30,4.0,0.0
1696,50.0,18,30,6.0,0.0
1697,55.0,0,90,0.0,0.0
1698,67.0,0,90,1.0,0.0
1699,51.0,9,90,2.0,0.0
1700,51.0,0,60,3.0,0.0
1701,39.0,0,60,4.0,0.0
1702,39.0,21,60,6.0,0.0
1703,84.0,3,20,5.0,0.0
1704,50.0,0,60,3.0,0.0
1705,38.0,0,60,4.0,0.0
1706,83.0,15,20,5.0,0.0
1707,38.0,21,60,6.0,0.0
1708,84.0,3,20,5.0,0.0
1709,60.0,6,90,0.0,0.0
1710,51.0,0,30,3.0,0.0
1711,39.0,0,30,4.0,0.0
1712,84.0,21,20,5.0,0.0
1713,39.0,3,30,6.0,0.0
1714,82.0,15,20,5.0,0.0
1715,63.0,0,30,3.0,0.0
1716,51.0,4,30,4.0,0.0
1717,80.0,13,20,5.0,0.0
1718,51.0,9,15,6.0,0.0
1719,79.0,2,15,5.0,0.0
1720,82.0,44,15,5.0,0.0
1721,62.0,0,60,0.0,0.0
1722,59.0,0,30,3.0,0.0
1723,47.0,6,30,4.0,0.0
1724,82.0,0,60,5.0,0.0
1725,47.0,24,60,6.0,0.0
1726,65.0,18,20,0.0,0.0
1727,60.0,0,30,3.0,0.0
1728,48.0,0,30,4.0,0.0
1729,80.0,12,90,5.0,0.0
1730,48.0,3,30,6.0,0.0
1731,64.0,39,20,0.0,0.0
1732,65.0,0,60,0.0,0.0
1733,65.0,0,90,1.0,0.0
1734,60.0,6,90,2.0,0.0
1735,53.0,0,60,3.0,0.0
1736,41.0,0,60,4.0,0.0
1737,41.0,24,60,6.0,0.0
1738,68.0,12,20,0.0,0.0
1739,51.0,0,60,3.0,0.0
1740,39.0,0,60,4.0,0.0
1741,72.0,3,30,5.0,0.0
1742,39.0,12,60,6.0,0.0
1743,67.0,3,20,0.0,0.0
1744,68.0,6,90,0.0,0.0
1745,53.0,0,30,3.0,0.0
1746,41.0,0,30,4.0,0.0
1747,75.0,10,15,5.0,0.0
1748,41.0,3,30,6.0,0.0
1749,73.0,20,15,5.0,0.0
1750,72.0,15,20,5.0,0.0
1751,63.0,0,30,3.0,0.0
1752,51.0,6,30,4.0,0.0
1753,73.0,15,20,5.0,0.0
1754,51.0,9,15,6.0,0.0
1755,80.0,24,20,5.0,0.0
1756,74.0,0,60,0.0,0.0
1757,59.0,0,30,3.0,0.0
1758,47.0,6,30,4.0,0.0
1759,79.0,18,20,5.0,0.0
1760,47.0,24,60,6.0,0.0
1761,77.0,0,20,5.0,0.0
1762,72.0,0,30,0.0,0.0
1763,60.0,0,30,3.0,0.0
1764,48.0,0,30,4.0,0.0
1765,76.0,18,20,5.0,0.0
1766,48.0,3,30,6.0,0.0
1767,77.0,27,20,5.0,0.0
1768,71.0,6,90,0.0,0.0
1769,74.0,0,270,1.0,0.0
1770,65.0,6,270,2.0,0.0
1771,55.0,0,60,3.0,0.0
1772,43.0,0,60,4.0,0.0
1773,67.0,12,20,5.0,0.0
1774,43.0,36,60,6.0,0.0
1775,71.0,12,15,5.0,0.0
1776,74.0,0,15,5.0,0.0
1777,53.0,0,60,3.0,0.0
1778,41.0,0,60,4.0,0.0
1779,77.0,6,30,5.0,0.0
1780,41.0,42,60,6.0,0.0
1781,74.0,6,90,0.0,0.0
1782,55.0,0,30,3.0,0.0
1783,43.0,0,30,4.0,0.0
1784,43.0,18,30,6.0,0.0
1785,63.0,0,30,3.0,0.0
1786,51.0,0,30,4.0,0.0
1787,67.0,48,30,5.0,0.0
1788,51.0,24,15,6.0,0.0
1789,77.0,0,90,0.0,0.0
1790,59.0,0,30,3.0,0.0
1791,47.0,0,30,4.0,0.0
1792,68.0,6,30,5.0,0.0
1793,47.0,36,60,6.0,0.0
1794,60.0,0,30,3.0,0.0
1795,48.0,0,30,4.0,0.0
1796,67.0,0,30,5.0,0.0
1797,48.0,27,30,6.0,0.0
1798,75.0,0,90,0.0,0.0
1799,72.0,0,90,1.0,0.0
1800,60.0,0,90,2.0,0.0
1801,56.0,0,90,3.0,0.0
1802,44.0,0,90,4.0,0.0
1803,67.0,13,20,5.0,0.0
1804,44.0,9,90,6.0,0.0
1805,75.0,12,15,5.0,0.0
1806,74.0,23,15,5.0,0.0
1807,72.0,15,20,5.0,0.0
1808,68.0,27,20,5.0,0.0
1809,67.0,24,20,5.0,0.0
1810,65.0,21,20,5.0,0.0
1811,60.0,0,30,3.0,0.0
1812,48.0,3,30,4.0,0.0
1813,64.0,21,20,5.0,0.0
1814,48.0,21,60,6.0,0.0
1815,65.0,3,20,5.0,0.0
1816,61.0,0,30,3.0,0.0
1817,49.0,3,30,4.0,0.0
1818,65.0,21,20,5.0,0.0
1819,49.0,21,60,6.0,0.0
1820,61.0,3,20,5.0,0.0
1821,58.0,0,30,3.0,0.0
1822,46.0,0,30,4.0,0.0
1823,57.0,21,20,5.0,0.0
1824,46.0,3,30,6.0,0.0
1825,58.0,6,20,5.0,0.0
1826,73.0,0,90,0.0,0.0
1827,70.0,0,90,1.0,0.0
1828,67.0,6,90,2.0,0.0
1829,52.0,0,60,3.0,0.0
1830,40.0,0,60,4.0,0.0
1831,58.0,3,15,5.0,0.0
1832,40.0,36,60,6.0,0.0
1833,57.0,42,15,5.0,0.0
1834,58.0,15,330,5.0,0.0
1835,52.0,0,30,3.0,0.0
1836,40.0,0,30,4.0,0.0
1837,40.0,54,30,6.0,0.0
1838,70.0,0,90,0.0,0.0
1839,67.0,0,90,1.0,0.0
1840,64.0,6,90,2.0,0.0
1841,55.0,0,60,3.0,0.0
1842,43.0,0,60,4.0,0.0
1843,43.0,36,60,6.0,0.0
1844,55.0,0,30,3.0,0.0
1845,43.0,0,30,4.0,0.0
1846,43.0,54,30,6.0,0.0
1847,67.0,0,90,0.0,0.0
1848,64.0,0,90,1.0,0.0
1849,61.0,6,90,2.0,0.0
1850,58.0,0,60,3.0,0.0
1851,46.0,0,60,4.0,0.0
1852,46.0,36,60,6.0,0.0
1853,58.0,0,30,3.0,0.0
1854,46.0,0,30,4.0,0.0
1855,46.0,42,30,6.0,0.0
1856,64.0,0,90,0.0,0.0
1857,70.0,0,90,1.0,0.0
1858,67.0,0,90,2.0,0.0
1859,49.0,0,90,3.0,0.0
1860,37.0,0,90,4.0,0.0
1861,37.0,7,90,6.0,0.0
1862,56.0,3,15,5.0,0.0
1863,55.0,3,15,5.0,0.0
1864,53.0,27,15,5.0,0.0
1865,55.0,26,30,5.0,0.0
1866,56.0,45,20,5.0,0.0
1867,62.0,24,30,5.0,0.0
1868,76.0,0,60,0.0,0.0
1869,67.0,0,30,1.0,0.0
1870,70.0,0,30,2.0,0.0
1871,55.0,0,30,3.0,0.0
1872,43.0,3,30,4.0,0.0
1873,55.0,21,60,6.0,0.0
1874,60.0,3,20,5.0,0.0
1875,77.0,0,60,0.0,0.0
1876,65.0,0,30,1.0,0.0
1877,68.0,0,30,2.0,0.0
1878,56.0,0,30,3.0,0.0
1879,44.0,6,30,4.0,0.0
1880,60.0,21,20,5.0,0.0
1881,56.0,42,60,6.0,0.0
1882,65.0,30,90,5.0,0.0
1883,75.0,0,30,0.0,0.0
1884,65.0,0,30,1.0,0.0
1885,68.0,0,30,2.0,0.0
1886,53.0,0,30,3.0,0.0
1887,41.0,0,30,4.0,0.0
1888,53.0,18,30,6.0,0.0
1889,74.0,0,60,0.0,0.0
1890,65.0,0,60,1.0,0.0
1891,62.0,21,60,2.0,0.0
1892,59.0,0,30,3.0,0.0
1893,47.0,0,30,4.0,0.0
1894,59.0,3,30,6.0,0.0
1895,68.0,3,20,5.0,0.0
1896,72.0,0,30,0.0,0.0
1897,63.0,0,30,1.0,0.0
1898,63.0,0,30,2.0,0.0
1899,60.0,0,30,3.0,0.0
1900,48.0,0,30,4.0,0.0
1901,66.0,21,20,5.0,0.0
1902,60.0,3,30,6.0,0.0
1903,67.0,27,20,5.0,0.0
1904,75.0,0,90,0.0,0.0
1905,67.0,0,90,1.0,0.0
1906,59.0,24,60,2.0,0.0
1907,55.0,0,90,3.0,0.0
1908,43.0,0,90,4.0,0.0
1909,67.0,24,20,5.0,0.0
1910,55.0,6,90,6.0,0.0
1911,75.0,12,60,5.0,0.0
1912,60.0,6,30,2.0,0.0
1913,74.0,3,20,5.0,0.0
1914,77.0,6,30,0.0,0.0
1915,67.0,0,90,1.0,0.0
1916,62.0,0,60,2.0,0.0
1917,43.0,0,90,3.0,0.0
1918,31.0,0,90,4.0,0.0
1919,72.0,3,15,5.0,0.0
1920,43.0,6,90,6.0,0.0
1921,74.0,3,15,5.0,0.0
1922,72.0,3,15,5.0,0.0
1923,74.0,3,15,5.0,0.0
1924,72.0,3,15,5.0,0.0
1925,74.0,6,15,5.0,0.0
1926,72.0,18,15,5.0,0.0
1927,71.0,36,20,5.0,0.0
1928,74.0,0,30,0.0,0.0
1929,65.0,0,30,2.0,0.0
1930,72.0,58,30,5.0,0.0
1931,72.0,0,90,0.0,0.0
1932,67.0,0,90,1.0,0.0
1933,63.0,0,90,2.0,0.0
1934,48.0,0,90,3.0,0.0
1935,36.0,0,90,4.0,0.0
1936,72.0,18,60,5.0,0.0
1937,48.0,10,90,6.0,0.0
1938,67.0,12,15,5.0,0.0
1939,69.0,2,15,5.0,0.0
1940,71.0,14,15,5.0,0.0
1941,72.0,12,15,5.0,0.0
1942,74.0,12,15,5.0,0.0
1943,75.0,12,15,5.0,0.0
1944,74.0,12,15,5.0,0.0
1945,72.0,12,15,5.0,0.0
1946,70.0,12,15,5.0,0.0
1947,69.0,12,15,5.0,0.0
1948,70.0,12,15,5.0,0.0
1949,72.0,12,15,5.0,0.0
1950,66.0,12,15,5.0,0.0
1951,67.0,12,15,5.0,0.0
1952,69.0,12,15,5.0,0.0
1953,67.0,12,15,5.0,0.0
1954,66.0,12,15,5.0,0.0
1955,64.0,10,15,5.0,0.0
1956,62.0,50,15,5.0,0.0
1957,75.0,0,90,0.0,0.0
1958,72.0,0,90,1.0,0.0
1959,57.0,6,90,2.0,0.0
1960,45.0,0,60,3.0,0.0
1961,33.0,0,60,4.0,0.0
1962,78.0,22,90,5.0,0.0
1963,45.0,36,60,6.0,0.0
1964,45.0,0,30,3.0,0.0
1965,33.0,0,30,4.0,0.0
1966,45.0,6,30,6.0,0.0
1967,72.0,0,90,0.0,0.0
1968,69.0,0,90,1.0,0.0
1969,63.0,6,90,2.0,0.0
1970,48.0,0,60,3.0,0.0
1971,36.0,0,60,4.0,0.0
1972,48.0,21,60,6.0,0.0
1973,79.0,12,15,5.0,0.0
1974,78.0,12,15,5.0,0.0
1975,76.0,2,15,5.0,0.0
1976,48.0,0,30,3.0,0.0
1977,36.0,0,30,4.0,0.0
1978,78.0,15,20,5.0,0.0
1979,48.0,3,30,6.0,0.0
1980,79.0,6,20,5.0,0.0
1981,69.0,0,90,0.0,0.0
1982,67.0,0,90,1.0,0.0
1983,60.0,6,90,2.0,0.0
1984,51.0,0,60,3.0,0.0
1985,39.0,0,60,4.0,0.0
1986,81.0,3,15,5.0,0.0
1987,51.0,3,60,6.0,0.0
1988,79.0,3,15,5.0,0.0
1989,81.0,3,15,5.0,0.0
1990,79.0,3,15,5.0,0.0
1991,81.0,3,15,5.0,0.0
1992,79.0,3,15,5.0,0.0
1993,81.0,3,15,5.0,0.0
1994,79.0,3,15,5.0,0.0
1995,81.0,3,15,5.0,0.0
1996,79.0,3,15,5.0,0.0
1997,81.0,3,15,5.0,0.0
1998,79.0,3,15,5.0,0.0
1999,81.0,3,15,5.0,0.0
2000,79.0,3,15,5.0,0.0
2001,81.0,3,15,5.0,0.0
2002,79.0,0,15,5.0,0.0
2003,51.0,0,30,3.0,0.0
2004,39.0,0,30,4.0,0.0
2005,81.0,18,15,5.0,0.0
2006,51.0,4,30,6.0,0.0
2007,79.0,13,20,5.0,0.0
2008,78.0,2,15,5.0,0.0
2009,79.0,26,15,5.0,0.0
2010,72.0,0,90,0.0,0.0
2011,63.0,0,90,1.0,0.0
2012,57.0,6,90,2.0,0.0
2013,42.0,0,60,3.0,0.0
2014,30.0,0,60,4.0,0.0
2015,81.0,24,20,5.0,0.0
2016,42.0,24,60,6.0,0.0
2017,75.0,0,20,5.0,0.0
2018,42.0,0,30,3.0,0.0
2019,30.0,0,30,4.0,0.0
2020,72.0,12,20,5.0,0.0
2021,42.0,6,30,6.0,0.0
2022,71.0,24,20,5.0,0.0
2023,69.0,0,90,0.0,0.0
2024,60.0,0,90,1.0,0.0
2025,54.0,6,90,2.0,0.0
2026,45.0,0,60,3.0,0.0
2027,33.0,0,60,4.0,0.0
2028,72.0,24,20,5.0,0.0
2029,45.0,24,60,6.0,0.0
2030,75.0,0,20,5.0,0.0
2031,45.0,0,30,3.0,0.0
2032,33.0,0,30,4.0,0.0
2033,78.0,12,20,5.0,0.0
2034,45.0,6,30,6.0,0.0
2035,79.0,12,20,5.0,0.0
2036,66.0,0,90,0.0,0.0
2037,57.0,0,90,1.0,0.0
2038,50.0,6,90,2.0,0.0
2039,48.0,0,60,3.0,0.0
2040,36.0,0,60,4.0,0.0
2041,81.0,12,15,5.0,0.0
2042,48.0,24,60,6.0,0.0
2043,82.0,12,15,5.0,0.0
2044,81.0,12,15,5.0,0.0
2045,79.0,0,15,5.0,0.0
2046,48.0,0,30,3.0,0.0
2047,36.0,0,30,4.0,0.0
2048,81.0,12,20,5.0,0.0
2049,48.0,3,30,6.0,0.0
2050,82.0,15,20,5.0,0.0
2051,62.0,0,90,0.0,0.0
2052,57.0,0,90,1.0,0.0
2053,66.0,0,90,2.0,0.0
2054,38.0,0,90,3.0,0.0
2055,26.0,0,90,4.0,0.0
2056,84.0,12,15,5.0,0.0
2057,38.0,9,90,6.0,0.0
2058,82.0,12,15,5.0,0.0
2059,81.0,12,15,5.0,0.0
2060,79.0,12,15,5.0,0.0
2061,78.0,12,15,5.0,0.0
2062,79.0,12,15,5.0,0.0
2063,81.0,27,20,5.0,0.0
2064,75.0,42,20,5.0,0.0
2065,73.0,27,30,5.0,0.0
2066,74.0,15,20,5.0,0.0
2067,74.0,24,15,5.0,0.0
2068,84.0,6,20,5.0,0.0
2069,82.0,6,15,5.0,0.0
2070,81.0,24,15,5.0,0.0
2071,79.0,21,20,5.0,0.0
2072,78.0,51,20,5.0,0.0
2073,74.0,0,90,0.0,0.0
2074,70.0,0,90,1.0,0.0
2075,67.0,0,90,2.0,0.0
2076,55.0,0,60,3.0,0.0
2077,43.0,0,60,4.0,0.0
2078,79.0,15,60,5.0,0.0
2079,55.0,15,60,6.0,0.0
2080,55.0,0,30,3.0,0.0
2081,43.0,0,30,4.0,0.0
2082,55.0,4,30,6.0,0.0
2083,81.0,6,15,5.0,0.0
2084,79.0,6,15,5.0,0.0
2085,78.0,50,15,5.0,0.0
2086,70.0,0,90,0.0,0.0
2087,67.0,0,90,1.0,0.0
2088,62.0,6,90,2.0,0.0
2089,58.0,0,60,3.0,0.0
2090,46.0,0,60,4.0,0.0
2091,78.0,0,60,5.0,0.0
2092,58.0,36,60,6.0,0.0
2093,58.0,0,30,3.0,0.0
2094,46.0,0,30,4.0,0.0
2095,79.0,36,150,5.0,0.0
2096,58.0,54,30,6.0,0.0
2097,66.0,6,90,0.0,0.0
2098,62.0,0,60,1.0,0.0
2099,58.0,0,60,2.0,0.0
2100,62.0,0,60,3.0,0.0
2101,50.0,0,60,4.0,0.0
2102,62.0,36,60,6.0,0.0
2103,60.0,0,30,1.0,0.0
2104,57.0,0,30,2.0,0.0
2105,62.0,0,30,3.0,0.0
2106,50.0,0,30,4.0,0.0
2107,62.0,18,30,6.0,0.0
2108,67.0,0,60,0.0,0.0
2109,58.0,0,90,1.0,0.0
2110,55.0,0,90,2.0,0.0
2111,51.0,0,60,3.0,0.0
2112,39.0,0,60,4.0,0.0
2113,51.0,24,60,6.0,0.0
2114,67.0,0,20,5.0,0.0
2115,66.0,0,30,0.0,0.0
2116,50.0,0,30,3.0,0.0
2117,38.0,0,30,4.0,0.0
2118,69.0,12,20,5.0,0.0
2119,50.0,4,30,6.0,0.0
2120,72.0,6,15,5.0,0.0
2121,71.0,14,15,5.0,0.0
2122,67.0,0,90,0.0,0.0
2123,50.0,0,60,3.0,0.0
2124,38.0,0,60,4.0,0.0
2125,72.0,12,15,5.0,0.0
2126,50.0,21,60,6.0,0.0
2127,67.0,12,15,5.0,0.0
2128,69.0,12,15,5.0,0.0
2129,71.0,0,15,5.0,0.0
2130,51.0,0,30,3.0,0.0
2131,39.0,0,30,4.0,0.0
2132,72.0,15,20,5.0,0.0
2133,51.0,4,30,6.0,0.0
2134,75.0,6,15,5.0,0.0
2135,74.0,38,15,5.0,0.0
2136,75.0,4,30,5.0,0.0
2137,74.0,4,15,5.0,0.0
2138,72.0,4,15,5.0,0.0
2139,71.0,24,15,5.0,0.0
2140,72.0,12,20,5.0,0.0
2141,75.0,10,15,5.0,0.0
2142,79.0,50,15,5.0,0.0
2143,72.0,0,90,0.0,0.0
2144,66.0,0,90,1.0,0.0
2145,60.0,6,90,2.0,0.0
2146,57.0,0,60,3.0,0.0
2147,45.0,0,60,4.0,0.0
2148,84.0,22,390,5.0,0.0
2149,57.0,36,60,6.0,0.0
2150,57.0,0,30,3.0,0.0
2151,45.0,0,30,4.0,0.0
2152,57.0,54,30,6.0,0.0
2153,69.0,0,90,0.0,0.0
2154,66.0,0,60,1.0,0.0
2155,63.0,6,90,2.0,0.0
2156,60.0,0,60,3.0,0.0
2157,48.0,0,60,4.0,0.0
2158,60.0,36,60,6.0,0.0
2159,69.0,0,30,1.0,0.0
2160,60.0,0,30,3.0,0.0
2161,48.0,0,30,4.0,0.0
2162,60.0,54,30,6.0,0.0
2163,66.0,0,90,0.0,0.0
2164,60.0,0,60,1.0,0.0
2165,57.0,6,90,2.0,0.0
2166,63.0,0,60,3.0,0.0
2167,51.0,0,60,4.0,0.0
2168,63.0,36,60,6.0,0.0
2169,63.0,0,30,1.0,0.0
2170,63.0,0,30,3.0,0.0
2171,51.0,0,30,4.0,0.0
2172,63.0,54,30,6.0,0.0
2173,62.0,0,60,0.0,0.0
2174,57.0,0,90,1.0,0.0
2175,62.0,6,90,2.0,0.0
2176,54.0,0,60,3.0,0.0
2177,42.0,0,60,4.0,0.0
2178,54.0,36,60,6.0,0.0
2179,60.0,0,30,0.0,0.0
2180,54.0,0,30,3.0,0.0
2181,42.0,0,30,4.0,0.0
2182,54.0,6,30,6.0,0.0
2183,62.0,6,90,0.0,0.0
2184,57.0,0,60,3.0,0.0
2185,45.0,0,60,4.0,0.0
2186,57.0,10,60,6.0,0.0
2187,82.0,12,15,5.0,0.0
2188,84.0,12,15,5.0,0.0
2189,86.0,2,15,5.0,0.0
2190,57.0,0,30,3.0,0.0
2191,45.0,0,30,4.0,0.0
2192,84.0,12,15,5.0,0.0
2193,57.0,4,30,6.0,0.0
2194,82.0,12,15,5.0,0.0
2195,81.0,2,15,5.0,0.0
2196,79.0,50,15,5.0,0.0
2197,60.0,0,60,3.0,0.0
2198,48.0,0,60,4.0,0.0
2199,79.0,0,60,5.0,0.0
2200,60.0,42,60,6.0,0.0
2201,60.0,0,30,3.0,0.0
2202,48.0,0,30,4.0,0.0
2203,78.0,18,60,5.0,0.0
2204,60.0,10,30,6.0,0.0
2205,69.0,0,60,0.0,0.0
2206,62.0,0,90,1.0,0.0
2207,66.0,6,90,2.0,0.0
2208,50.0,0,60,3.0,0.0
2209,38.0,0,60,4.0,0.0
2210,50.0,10,60,6.0,0.0
2211,76.0,12,15,5.0,0.0
2212,78.0,12,15,5.0,0.0
2213,82.0,2,15,5.0,0.0
2214,67.0,0,30,0.0,0.0
2215,50.0,0,30,3.0,0.0
2216,38.0,0,30,4.0,0.0
2217,81.0,12,15,5.0,0.0
2218,50.0,4,30,6.0,0.0
2219,79.0,12,15,5.0,0.0
2220,78.0,2,15,5.0,0.0
2221,76.0,50,15,5.0,0.0
2222,69.0,6,90,0.0,0.0
2223,54.0,0,60,3.0,0.0
2224,42.0,0,60,4.0,0.0
2225,75.0,18,60,5.0,0.0
2226,54.0,4,60,6.0,0.0
2227,54.0,0,30,3.0,0.0
2228,42.0,0,30,4.0,0.0
2229,54.0,4,30,6.0,0.0
2230,74.0,12,15,5.0,0.0
2231,76.0,2,15,5.0,0.0
2232,78.0,14,15,5.0,0.0
2233,57.0,0,60,3.0,0.0
2234,45.0,0,60,4.0,0.0
2235,76.0,12,15,5.0,0.0
2236,57.0,3,60,6.0,0.0
2237,78.0,21,15,5.0,0.0
2238,79.0,3,20,5.0,0.0
2239,57.0,0,30,3.0,0.0
2240,45.0,0,30,4.0,0.0
2241,78.0,3,15,5.0,0.0
2242,57.0,5,30,6.0,0.0
2243,79.0,3,15,5.0,0.0
2244,78.0,3,15,5.0,0.0
2245,79.0,3,15,5.0,0.0
2246,78.0,3,15,5.0,0.0
2247,79.0,3,15,5.0,0.0
2248,78.0,3,15,5.0,0.0
2249,79.0,10,15,5.0,0.0
2250,78.0,7,15,5.0,0.0
2251,76.0,1,15,5.0,0.0
2252,78.0,49,15,5.0,0.0
2253,67.0,0,90,0.0,0.0
2254,62.0,12,90,1.0,0.0
2255,58.0,0,60,2.0,0.0
2256,46.0,0,60,3.0,0.0
2257,34.0,0,60,4.0,0.0
2258,79.0,30,120,5.0,0.0
2259,46.0,36,60,6.0,0.0
2260,60.0,0,60,2.0,0.0
2261,45.0,0,60,3.0,0.0
2262,33.0,0,60,4.0,0.0
2263,45.0,12,60,6.0,0.0
2264,70.0,12,60,0.0,0.0
2265,67.0,6,90,1.0,0.0
2266,62.0,0,30,2.0,0.0
2267,46.0,0,30,3.0,0.0
2268,34.0,0,30,4.0,0.0
2269,46.0,3,30,6.0,0.0
2270,80.0,3,20,5.0,0.0
2271,74.0,0,30,0.0,0.0
2272,70.0,0,30,2.0,0.0
2273,58.0,0,30,3.0,0.0
2274,46.0,3,30,4.0,0.0
2275,79.0,15,20,5.0,0.0
2276,58.0,9,15,6.0,0.0
2277,77.0,15,20,5.0,0.0
2278,72.0,0,60,0.0,0.0
2279,69.0,0,60,1.0,0.0
2280,69.0,0,60,2.0,0.0
2281,54.0,0,30,3.0,0.0
2282,42.0,1,30,4.0,0.0
2283,75.0,30,15,5.0,0.0
2284,54.0,12,60,6.0,0.0
2285,74.0,5,30,5.0,0.0
2286,70.0,0,30,0.0,0.0
2287,70.0,0,30,1.0,0.0
2288,67.0,0,30,2.0,0.0
2289,55.0,0,30,3.0,0.0
2290,43.0,0,30,4.0,0.0
2291,77.0,30,15,5.0,0.0
2292,55.0,1,30,6.0,0.0
2293,75.0,53,30,5.0,0.0
2294,75.0,12,90,0.0,0.0
2295,69.0,0,360,1.0,0.0
2296,67.0,6,270,2.0,0.0
2297,48.0,0,60,3.0,0.0
2298,36.0,0,60,4.0,0.0
2299,75.0,30,120,5.0,0.0
2300,48.0,36,60,6.0,0.0
2301,46.0,0,60,3.0,0.0
2302,34.0,0,60,4.0,0.0
2303,46.0,12,60,6.0,0.0
2304,79.0,6,90,0.0,0.0
2305,48.0,0,30,3.0,0.0
2306,36.0,0,30,4.0,0.0
2307,48.0,6,30,6.0,0.0
2308,77.0,12,20,5.0,0.0
2309,58.0,0,30,3.0,0.0
2310,46.0,3,30,4.0,0.0
2311,75.0,12,20,5.0,0.0
2312,58.0,12,15,6.0,0.0
2313,74.0,15,20,5.0,0.0
2314,75.0,0,90,0.0,0.0
2315,54.0,0,30,3.0,0.0
2316,42.0,1,30,4.0,0.0
2317,72.0,30,15,5.0,0.0
2318,54.0,12,60,6.0,0.0
2319,71.0,5,30,5.0,0.0
2320,55.0,0,30,3.0,0.0
2321,43.0,0,30,4.0,0.0
2322,74.0,24,15,5.0,0.0
2323,55.0,1,30,6.0,0.0
2324,72.0,53,30,5.0,0.0
2325,72.0,0,90,0.0,0.0
2326,66.0,12,90,2.0,0.0
2327,50.0,0,60,3.0,0.0
2328,38.0,0,60,4.0,0.0
2329,72.0,30,120,5.0,0.0
2330,50.0,36,60,6.0,0.0
2331,48.0,0,60,3.0,0.0
2332,36.0,0,60,4.0,0.0
2333,48.0,12,60,6.0,0.0
2334,75.0,0,90,0.0,0.0
2335,72.0,0,90,1.0,0.0
2336,69.0,6,90,2.0,0.0
2337,50.0,0,30,3.0,0.0
2338,38.0,0,30,4.0,0.0
2339,50.0,3,30,6.0,0.0
2340,79.0,15,20,5.0,0.0
2341,58.0,0,30,3.0,0.0
2342,46.0,4,30,4.0,0.0
2343,78.0,13,20,5.0,0.0
2344,58.0,9,15,6.0,0.0
2345,79.0,2,15,5.0,0.0
2346,81.0,26,15,5.0,0.0
2347,74.0,0,20,0.0,0.0
2348,69.0,0,90,1.0,0.0
2349,62.0,6,90,2.0,0.0
2350,54.0,0,30,3.0,0.0
2351,42.0,6,30,4.0,0.0
2352,75.0,18,20,5.0,0.0
2353,54.0,3,60,6.0,0.0
2354,75.0,0,20,0.0,0.0
2355,72.0,0,20,5.0,0.0
2356,72.0,0,30,0.0,0.0
2357,55.0,0,30,3.0,0.0
2358,43.0,0,30,4.0,0.0
2359,70.0,3,15,5.0,0.0
2360,55.0,3,30,6.0,0.0
2361,72.0,3,15,5.0,0.0
2362,70.0,3,15,5.0,0.0
2363,72.0,3,15,5.0,0.0
2364,70.0,3,15,5.0,0.0
2365,72.0,6,15,5.0,0.0
2366,70.0,12,15,5.0,0.0
2367,69.0,27,20,5.0,0.0
2368,70.0,0,20,0.0,0.0
2369,67.0,0,90,1.0,0.0
2370,67.0,0,90,2.0,0.0
2371,51.0,0,90,3.0,0.0
2372,39.0,0,90,4.0,0.0
2373,67.0,24,20,5.0,0.0
2374,51.0,6,90,6.0,0.0
2375,72.0,0,20,0.0,0.0
2376,66.0,3,20,5.0,0.0
2377,69.0,3,30,0.0,0.0
2378,67.0,3,15,5.0,0.0
2379,66.0,18,15,5.0,0.0
2380,67.0,12,20,5.0,0.0
2381,70.0,27,20,5.0,0.0
2382,67.0,6,90,0.0,0.0
2383,63.0,24,20,5.0,0.0
2384,62.0,3,20,5.0,0.0
2385,55.0,0,30,3.0,0.0
2386,43.0,3,30,4.0,0.0
2387,63.0,3,15,5.0,0.0
2388,55.0,24,60,6.0,0.0
2389,62.0,18,15,5.0,0.0
2390,63.0,12,20,5.0,0.0
2391,67.0,3,20,5.0,0.0
2392,56.0,0,30,3.0,0.0
2393,44.0,6,30,4.0,0.0
2394,60.0,18,20,5.0,0.0
2395,56.0,3,60,6.0,0.0
2396,59.0,0,20,5.0,0.0
2397,53.0,0,30,3.0,0.0
2398,41.0,0,30,4.0,0.0
2399,60.0,3,15,5.0,0.0
2400,53.0,3,30,6.0,0.0
2401,59.0,18,15,5.0,0.0
2402,60.0,18,20,5.0,0.0
2403,63.0,27,20,5.0,0.0
2404,77.0,0,360,0.0,0.0
2405,74.0,0,360,1.0,0.0
2406,59.0,6,90,2.0,0.0
2407,47.0,0,60,3.0,0.0
2408,35.0,0,60,4.0,0.0
2409,56.0,24,20,5.0,0.0
2410,47.0,24,60,6.0,0.0
2411,55.0,0,20,5.0,0.0
2412,47.0,0,30,3.0,0.0
2413,35.0,0,30,4.0,0.0
2414,56.0,12,20,5.0,0.0
2415,47.0,3,30,6.0,0.0
2416,62.0,27,20,5.0,0.0
2417,68.0,6,90,2.0,0.0
2418,50.0,0,60,3.0,0.0
2419,38.0,0,60,4.0,0.0
2420,65.0,24,20,5.0,0.0
2421,50.0,24,60,6.0,0.0
2422,63.0,0,20,5.0,0.0
2423,50.0,0,30,3.0,0.0
2424,38.0,0,30,4.0,0.0
2425,65.0,12,20,5.0,0.0
2426,50.0,3,30,6.0,0.0
2427,68.0,27,20,5.0,0.0
2428,65.0,6,90,2.0,0.0
2429,53.0,0,60,3.0,0.0
2430,41.0,0,60,4.0,0.0
2431,62.0,24,20,5.0,0.0
2432,53.0,24,60,6.0,0.0
2433,60.0,0,20,5.0,0.0
2434,53.0,0,30,3.0,0.0
2435,41.0,0,30,4.0,0.0
2436,62.0,12,20,5.0,0.0
2437,53.0,3,30,6.0,0.0
2438,65.0,27,20,5.0,0.0
2439,62.0,0,90,2.0,0.0
2440,44.0,0,90,3.0,0.0
2441,32.0,0,90,4.0,0.0
2442,59.0,24,20,5.0,0.0
2443,44.0,9,90,6.0,0.0
2444,62.0,24,20,5.0,0.0
2445,65.0,12,20,5.0,0.0
2446,68.0,24,20,5.0,0.0
2447,67.0,24,20,5.0,0.0
2448,65.0,6,20,5.0,0.0
2449,80.0,0,30,0.0,0.0
2450,77.0,0,30,1.0,0.0
2451,71.0,0,30,2.0,0.0
2452,50.0,0,30,3.0,0.0
2453,38.0,3,30,4.0,0.0
2454,63.0,3,15,5.0,0.0
2455,50.0,21,60,6.0,0.0
2456,65.0,3,15,5.0,0.0
2457,63.0,3,15,5.0,0.0
2458,65.0,3,15,5.0,0.0
2459,63.0,3,15,5.0,0.0
2460,65.0,5,15,5.0,0.0
2461,63.0,19,15,5.0,0.0
2462,62.0,3,20,5.0,0.0
2463,79.0,0,60,0.0,0.0
2464,75.0,0,60,1.0,0.0
2465,72.0,0,60,2.0,0.0
2466,51.0,0,30,3.0,0.0
2467,39.0,3,30,4.0,0.0
2468,60.0,21,20,5.0,0.0
2469,51.0,21,60,6.0,0.0
2470,63.0,3,20,5.0,0.0
2471,77.0,0,30,0.0,0.0
2472,74.0,0,30,1.0,0.0
2473,67.0,0,30,2.0,0.0
2474,48.0,0,30,3.0,0.0
2475,36.0,0,30,4.0,0.0
2476,67.0,21,20,5.0,0.0
2477,48.0,3,30,6.0,0.0
2478,71.0,27,20,5.0,0.0
2479,75.0,0,60,0.0,0.0
2480,72.0,0,60,1.0,0.0
2481,69.0,0,60,2.0,0.0
2482,54.0,0,60,3.0,0.0
2483,42.0,0,60,4.0,0.0
2484,72.0,24,20,5.0,0.0
2485,54.0,21,60,6.0,0.0
2486,75.0,0,20,5.0,0.0
2487,71.0,0,30,0.0,0.0
2488,67.0,0,30,1.0,0.0
2489,67.0,0,30,2.0,0.0
2490,55.0,0,30,3.0,0.0
2491,43.0,0,30,4.0,0.0
2492,73.0,21,20,5.0,0.0
2493,55.0,3,30,6.0,0.0
2494,71.0,24,20,5.0,0.0
2495,72.0,0,90,0.0,0.0
2496,67.0,0,90,1.0,0.0
2497,60.0,0,90,2.0,0.0
2498,51.0,0,90,3.0,0.0
2499,39.0,0,90,4.0,0.0
2500,72.0,24,20,5.0,0.0
2501,51.0,9,90,6.0,0.0
2502,75.0,24,20,5.0,0.0
2503,80.0,15,20,5.0,0.0
2504,78.0,24,20,5.0,0.0
2505,79.0,24,20,5.0,0.0
2506,75.0,24,20,5.0,0.0
2507,73.0,24,20,5.0,0.0
2508,74.0,24,20,5.0,0.0
2509,79.0,21,60,0.0,0.0
2510,76.0,0,90,1.0,0.0
2511,61.0,0,90,2.0,0.0
2512,49.0,0,90,3.0,0.0
2513,37.0,0,90,4.0,0.0
2514,82.0,24,20,5.0,0.0
2515,49.0,9,90,6.0,0.0
2516,80.0,3,20,5.0,0.0
2517,81.0,12,20,0.0,0.0
2518,78.0,3,20,5.0,0.0
2519,82.0,0,20,0.0,0.0
2520,79.0,51,20,5.0,0.0
2521,79.0,24,90,0.0,0.0
2522,74.0,0,90,1.0,0.0
2523,57.0,36,60,2.0,0.0
2524,50.0,0,90,3.0,0.0
2525,38.0,0,90,4.0,0.0
2526,84.0,22,120,5.0,0.0
2527,50.0,6,90,6.0,0.0
2528,58.0,6,30,2.0,0.0
2529,78.0,7,60,0.0,0.0
2530,74.0,0,90,1.0,0.0
2531,60.0,10,60,2.0,0.0
2532,38.0,0,90,3.0,0.0
2533,26.0,0,90,4.0,0.0
2534,38.0,6,90,6.0,0.0
2535,82.0,2,15,5.0,0.0
2536,62.0,3,30,2.0,0.0
2537,81.0,5,15,5.0,0.0
2538,79.0,14,15,5.0,0.0
2539,79.0,0,20,0.0,0.0
2540,81.0,55,20,5.0,0.0
2541,79.0,0,90,0.0,0.0
2542,74.0,0,90,1.0,0.0
2543,58.0,0,90,2.0,0.0
2544,43.0,0,90,3.0,0.0
2545,31.0,0,90,4.0,0.0
2546,79.0,18,60,5.0,0.0
2547,43.0,10,90,6.0,0.0
2548,82.0,12,15,5.0,0.0
2549,81.0,2,15,5.0,0.0
2550,79.0,12,15,5.0,0.0
2551,78.0,12,15,5.0,0.0
2552,75.0,12,15,5.0,0.0
2553,74.0,12,15,5.0,0.0
2554,72.0,12,15,5.0,0.0
2555,70.0,12,15,5.0,0.0
2556,72.0,5,15,5.0,0.0
2557,74.0,3,15,5.0,0.0
2558,72.0,3,15,5.0,0.0
2559,74.0,3,15,5.0,0.0
2560,72.0,3,15,5.0,0.0
2561,74.0,3,15,5.0,0.0
2562,72.0,3,15,5.0,0.0
2563,70.0,3,15,5.0,0.0
2564,72.0,5,15,5.0,0.0
2565,74.0,6,15,5.0,0.0
2566,70.0,6,15,5.0,0.0
2567,67.0,6,15,5.0,0.0
2568,66.0,6,15,5.0,0.0
2569,67.0,6,15,5.0,0.0
2570,62.0,6,15,5.0,0.0
2571,58.0,6,15,5.0,0.0
2572,60.0,6,15,5.0,0.0
2573,62.0,6,15,5.0,0.0
2574,60.0,6,15,5.0,0.0
2575,58.0,6,15,5.0,0.0
2576,60.0,11,15,5.0,0.0
2577,62.0,12,15,5.0,0.0
2578,58.0,24,15,5.0,0.0
2579,67.0,0,60,0.0,0.0
2580,67.0,0,60,1.0,0.0
2581,67.0,0,60,2.0,0.0
2582,55.0,0,60,3.0,0.0
2583,43.0,0,60,4.0,0.0
2584,55.0,10,60,6.0,0.0
2585,58.0,12,15,5.0,0.0
2586,62.0,12,15,5.0,0.0
2587,67.0,2,15,5.0,0.0
2588,67.0,0,30,0.0,0.0
2589,67.0,0,30,1.0,0.0
2590,67.0,0,30,2.0,0.0
2591,55.0,0,30,3.0,0.0
2592,43.0,0,30,4.0,0.0
2593,70.0,12,15,5.0,0.0
2594,55.0,3,30,6.0,0.0
2595,74.0,20,15,5.0,0.0
2596,79.0,51,20,5.0,0.0
2597,70.0,0,60,0.0,0.0
2598,70.0,0,60,1.0,0.0
2599,70.0,0,60,2.0,0.0
2600,58.0,0,60,3.0,0.0
2601,46.0,0,60,4.0,0.0
2602,58.0,42,60,6.0,0.0
2603,70.0,0,30,0.0,0.0
2604,70.0,0,30,1.0,0.0
2605,70.0,0,30,2.0,0.0
2606,58.0,0,30,3.0,0.0
2607,46.0,0,30,4.0,0.0
2608,58.0,54,30,6.0,0.0
2609,74.0,0,60,0.0,0.0
2610,74.0,0,60,1.0,0.0
2611,74.0,0,60,2.0,0.0
2612,62.0,0,60,3.0,0.0
2613,50.0,0,60,4.0,0.0
2614,62.0,42,60,6.0,0.0
2615,74.0,0,30,0.0,0.0
2616,74.0,0,30,1.0,0.0
2617,74.0,0,30,2.0,0.0
2618,62.0,0,30,3.0,0.0
2619,50.0,0,30,4.0,0.0
2620,62.0,54,30,6.0,0.0
2621,63.0,0,60,0.0,0.0
2622,63.0,0,60,1.0,0.0
2623,63.0,0,60,2.0,0.0
2624,51.0,0,60,3.0,0.0
2625,39.0,0,60,4.0,0.0
2626,51.0,42,60,6.0,0.0
2627,62.0,0,30,0.0,0.0
2628,62.0,0,30,1.0,0.0
2629,62.0,0,30,2.0,0.0
2630,50.0,0,30,3.0,0.0
2631,38.0,0,30,4.0,0.0
2632,50.0,54,30,6.0,0.0
2633,62.0,0,60,0.0,0.0
2634,62.0,0,60,1.0,0.0
2635,62.0,0,60,2.0,0.0
2636,50.0,0,60,3.0,0.0
2637,38.0,0,60,4.0,0.0
2638,50.0,42,60,6.0,0.0
2639,63.0,0,30,0.0,0.0
2640,63.0,0,30,1.0,0.0
2641,63.0,0,30,2.0,0.0
2642,51.0,0,30,3.0,0.0
2643,39.0,0,30,4.0,0.0
2644,51.0,150,30,6.0,0.0
2645,69.0,0,60,0.0,0.0
2646,69.0,0,60,1.0,0.0
2647,69.0,0,60,2.0,0.0
2648,57.0,0,60,3.0,0.0
2649,45.0,0,60,4.0,0.0
2650,57.0,42,60,6.0,0.0
2651,69.0,0,30,0.0,0.0
2652,69.0,0,30,1.0,0.0
2653,69.0,0,30,2.0,0.0
2654,57.0,0,30,3.0,0.0
2655,45.0,0,30,4.0,0.0
2656,57.0,54,30,6.0,0.0
2657,72.0,0,60,0.0,0.0
2658,72.0,0,60,1.0,0.0
2659,72.0,0,60,2.0,0.0
2660,60.0,0,60,3.0,0.0
2661,48.0,0,60,4.0,0.0
2662,60.0,42,60,6.0,0.0
2663,72.0,0,30,0.0,0.0
2664,72.0,0,30,1.0,0.0
2665,72.0,0,30,2.0,0.0
2666,60.0,0,30,3.0,0.0
2667,48.0,0,30,4.0,0.0
2668,60.0,54,30,6.0,0.0
2669,75.0,0,60,0.0,0.0
2670,75.0,0,60,1.0,0.0
2671,75.0,0,60,2.0,0.0
2672,63.0,0,60,3.0,0.0
2673,51.0,0,60,4.0,0.0
2674,63.0,42,60,6.0,0.0
2675,75.0,0,30,0.0,0.0
2676,75.0,0,30,1.0,0.0
2677,75.0,0,30,2.0,0.0
2678,63.0,0,30,3.0,0.0
2679,51.0,0,30,4.0,0.0
2680,63.0,54,30,6.0,0.0
2681,66.0,0,60,0.0,0.0
2682,66.0,0,60,1.0,0.0
2683,66.0,0,60,2.0,0.0
2684,54.0,0,60,3.0,0.0
2685,42.0,0,60,4.0,0.0
2686,54.0,42,60,6.0,0.0
2687,66.0,0,30,0.0,0.0
2688,66.0,0,30,1.0,0.0
2689,66.0,0,30,2.0,0.0
2690,54.0,0,30,3.0,0.0
2691,42.0,0,30,4.0,0.0
2692,54.0,54,30,6.0,0.0
2693,69.0,0,60,0.0,0.0
2694,69.0,0,60,1.0,0.0
2695,69.0,0,60,2.0,0.0
2696,57.0,0,60,3.0,0.0
2697,45.0,0,60,4.0,0.0
2698,57.0,42,60,6.0,0.0
2699,69.0,0,30,0.0,0.0
2700,69.0,0,30,1.0,0.0
2701,69.0,0,30,2.0,0.0
2702,57.0,0,30,3.0,0.0
2703,45.0,0,30,4.0,0.0
2704,57.0,54,30,6.0,0.0
2705,72.0,0,60,0.0,0.0
2706,72.0,0,60,1.0,0.0
2707,72.0,0,60,2.0,0.0
2708,60.0,0,60,3.0,0.0
2709,48.0,0,60,4.0,0.0
2710,60.0,42,60,6.0,0.0
2711,72.0,0,30,0.0,0.0
2712,72.0,0,30,1.0,0.0
2713,72.0,0,30,2.0,0.0
2714,60.0,0,30,3.0,0.0
2715,48.0,0,30,4.0,0.0
2716,60.0,54,30,6.0,0.0
2717,62.0,0,60,0.0,0.0
2718,62.0,0,60,1.0,0.0
2719,62.0,0,60,2.0,0.0
2720,50.0,0,60,3.0,0.0
2721,38.0,0,60,4.0,0.0
2722,50.0,42,60,6.0,0.0
2723,62.0,0,30,0.0,0.0
2724,62.0,0,30,1.0,0.0
2725,62.0,0,30,2.0,0.0
2726,50.0,0,30,3.0,0.0
2727,38.0,0,30,4.0,0.0
2728,50.0,54,30,6.0,0.0
2729,66.0,0,60,0.0,0.0
2730,66.0,0,60,1.0,0.0
2731,66.0,0,60,2.0,0.0
2732,54.0,0,60,3.0,0.0
2733,42.0,0,60,4.0,0.0
2734,54.0,42,60,6.0,0.0
2735,66.0,0,30,0.0,0.0
2736,66.0,0,30,1.0,0.0
2737,66.0,0,30,2.0,0.0
2738,54.0,0,30,3.0,0.0
2739,42.0,0,30,4.0,0.0
2740,54.0,54,30,6.0,0.0
2741,69.0,0,60,0.0,0.0
2742,69.0,0,60,1.0,0.0
2743,69.0,0,60,2.0,0.0
2744,57.0,0,60,3.0,0.0
2745,45.0,0,60,4.0,0.0
2746,57.0,42,60,6.0,0.0
2747,69.0,0,30,0.0,0.0
2748,69.0,0,30,1.0,0.0
2749,69.0,0,30,2.0,0.0
2750,57.0,0,30,3.0,0.0
2751,45.0,0,30,4.0,0.0
2752,57.0,54,30,6.0,0.0
2753,58.0,0,60,0.0,0.0
2754,58.0,0,60,1.0,0.0
2755,58.0,0,60,2.0,0.0
2756,46.0,0,60,3.0,0.0
2757,34.0,0,60,4.0,0.0
2758,46.0,48,60,6.0,0.0
2759,57.0,0,60,0.0,0.0
2760,57.0,0,60,1.0,0.0
2761,57.0,0,60,2.0,0.0
2762,45.0,0,60,3.0,0.0
2763,33.0,0,60,4.0,0.0
2764,45.0,42,60,6.0,0.0
2765,58.0,0,30,0.0,0.0
2766,58.0,0,30,1.0,0.0
2767,58.0,0,30,2.0,0.0
2768,46.0,0,30,3.0,0.0
2769,34.0,0,30,4.0,0.0
2770,46.0,18,30,6.0,0.0
2771,70.0,0,30,0.0,0.0
2772,70.0,0,30,1.0,0.0
2773,70.0,0,30,2.0,0.0
2774,58.0,0,30,3.0,0.0
2775,46.0,48,30,4.0,0.0
2776,58.0,30,15,6.0,0.0
2777,66.0,0,30,0.0,0.0
2778,66.0,0,30,1.0,0.0
2779,66.0,0,30,2.0,0.0
2780,54.0,0,30,3.0,0.0
2781,42.0,0,30,4.0,0.0
2782,54.0,48,30,6.0,0.0
2783,67.0,0,30,0.0,0.0
2784,67.0,0,30,1.0,0.0
2785,67.0,0,30,2.0,0.0
2786,55.0,0,30,3.0,0.0
2787,43.0,0,30,4.0,0.0
2788,55.0,54,30,6.0,0.0
2789,60.0,0,60,0.0,0.0
2790,60.0,0,60,1.0,0.0
2791,60.0,0,60,2.0,0.0
2792,48.0,0,60,3.0,0.0
2793,36.0,0,60,4.0,0.0
2794,48.0,48,60,6.0,0.0
2795,58.0,0,60,0.0,0.0
2796,58.0,0,60,1.0,0.0
2797,58.0,0,60,2.0,0.0
2798,46.0,0,60,3.0,0.0
2799,34.0,0,60,4.0,0.0
2800,46.0,42,60,6.0,0.0
2801,60.0,0,30,0.0,0.0
2802,60.0,0,30,1.0,0.0
2803,60.0,0,30,2.0,0.0
2804,48.0,0,30,3.0,0.0
2805,36.0,0,30,4.0,0.0
2806,48.0,18,30,6.0,0.0
2807,70.0,0,30,0.0,0.0
2808,70.0,0,30,1.0,0.0
2809,70.0,0,30,2.0,0.0
2810,58.0,0,30,3.0,0.0
2811,46.0,48,30,4.0,0.0
2812,58.0,30,15,6.0,0.0
2813,66.0,0,30,0.0,0.0
2814,66.0,0,30,1.0,0.0
2815,66.0,0,30,2.0,0.0
2816,54.0,0,30,3.0,0.0
2817,42.0,0,30,4.0,0.0
2818,54.0,48,30,6.0,0.0
2819,67.0,0,30,0.0,0.0
2820,67.0,0,30,1.0,0.0
2821,67.0,0,30,2.0,0.0
2822,55.0,0,30,3.0,0.0
2823,43.0,0,30,4.0,0.0
2824,55.0,54,30,6.0,0.0
2825,62.0,0,60,0.0,0.0
2826,62.0,0,60,1.0,0.0
2827,62.0,0,60,2.0,0.0
2828,50.0,0,60,3.0,0.0
2829,38.0,0,60,4.0,0.0
2830,50.0,48,60,6.0,0.0
2831,60.0,0,60,0.0,0.0
2832,60.0,0,60,1.0,0.0
2833,60.0,0,60,2.0,0.0
2834,48.0,0,60,3.0,0.0
2835,36.0,0,60,4.0,0.0
2836,48.0,42,60,6.0,0.0
2837,62.0,0,30,0.0,0.0
2838,62.0,0,30,1.0,0.0
2839,62.0,0,30,2.0,0.0
2840,50.0,0,30,3.0,0.0
2841,38.0,0,30,4.0,0.0
2842,50.0,18,30,6.0,0.0
2843,70.0,0,30,0.0,0.0
2844,70.0,0,30,1.0,0.0
2845,70.0,0,30,2.0,0.0
2846,58.0,0,30,3.0,0.0
2847,46.0,48,30,4.0,0.0
2848,58.0,30,15,6.0,0.0
2849,66.0,0,30,0.0,0.0
2850,66.0,0,30,1.0,0.0
2851,66.0,0,30,2.0,0.0
2852,54.0,0,30,3.0,0.0
2853,42.0,0,30,4.0,0.0
2854,54.0,48,30,6.0,0.0
2855,67.0,0,30,0.0,0.0
2856,67.0,0,30,1.0,0.0
2857,67.0,0,30,2.0,0.0
2858,55.0,0,30,3.0,0.0
2859,43.0,0,30,4.0,0.0
2860,55.0,90,30,6.0,0.0
2861,63.0,0,90,0.0,0.0
2862,63.0,0,90,1.0,0.0
2863,63.0,0,90,2.0,0.0
2864,51.0,0,90,3.0,0.0
2865,39.0,0,90,4.0,0.0
2866,51.0,102,90,6.0,0.0
2867,67.0,0,30,0.0,0.0
2868,67.0,0,30,1.0,0.0
2869,67.0,0,30,2.0,0.0
2870,55.0,0,30,3.0,0.0
2871,43.0,6,30,4.0,0.0
2872,55.0,42,60,6.0,0.0
2873,68.0,0,30,0.0,0.0
2874,68.0,0,30,1.0,0.0
2875,68.0,0,30,2.0,0.0
2876,56.0,0,30,3.0,0.0
2877,44.0,6,30,4.0,0.0
2878,56.0,42,60,6.0,0.0
2879,65.0,0,30,0.0,0.0
2880,65.0,0,30,1.0,0.0
2881,65.0,0,30,2.0,0.0
2882,53.0,0,30,3.0,0.0
2883,41.0,0,30,4.0,0.0
2884,53.0,54,30,6.0,0.0
2885,59.0,0,60,0.0,0.0
2886,59.0,0,60,1.0,0.0
2887,59.0,0,60,2.0,0.0
2888,47.0,0,60,3.0,0.0
2889,35.0,0,60,4.0,0.0
2890,47.0,42,60,6.0,0.0
2891,59.0,0,30,0.0,0.0
2892,59.0,0,30,1.0,0.0
2893,59.0,0,30,2.0,0.0
2894,47.0,0,30,3.0,0.0
2895,35.0,0,30,4.0,0.0
2896,47.0,54,30,6.0,0.0
2897,62.0,0,60,0.0,0.0
2898,62.0,0,60,1.0,0.0
2899,62.0,0,60,2.0,0.0
2900,50.0,0,60,3.0,0.0
2901,38.0,0,60,4.0,0.0
2902,50.0,42,60,6.0,0.0
2903,62.0,0,30,0.0,0.0
2904,62.0,0,30,1.0,0.0
2905,62.0,0,30,2.0,0.0
2906,50.0,0,30,3.0,0.0
2907,38.0,0,30,4.0,0.0
2908,50.0,54,30,6.0,0.0
2909,65.0,0,60,0.0,0.0
2910,65.0,0,60,1.0,0.0
2911,65.0,0,60,2.0,0.0
2912,53.0,0,60,3.0,0.0
2913,41.0,0,60,4.0,0.0
2914,53.0,42,60,6.0,0.0
2915,65.0,0,30,0.0,0.0
2916,65.0,0,30,1.0,0.0
2917,65.0,0,30,2.0,0.0
2918,53.0,0,30,3.0,0.0
2919,41.0,0,30,4.0,0.0
2920,53.0,90,30,6.0,0.0
2921,56.0,0,90,0.0,0.0
2922,56.0,0,90,1.0,0.0
2923,56.0,0,90,2.0,0.0
2924,44.0,0,90,3.0,0.0
2925,32.0,0,90,4.0,0.0
2926,44.0,102,90,6.0,0.0
2927,62.0,0,30,0.0,0.0
2928,62.0,0,30,1.0,0.0
2929,62.0,0,30,2.0,0.0
2930,50.0,0,30,3.0,0.0
2931,38.0,0,30,4.0,0.0
2932,50.0,48,30,6.0,0.0
2933,63.0,0,30,0.0,0.0
2934,63.0,0,30,1.0,0.0
2935,63.0,0,30,2.0,0.0
2936,51.0,0,30,3.0,0.0
2937,39.0,0,30,4.0,0.0
2938,51.0,48,30,6.0,0.0
2939,60.0,0,30,0.0,0.0
2940,60.0,0,30,1.0,0.0
2941,60.0,0,30,2.0,0.0
2942,48.0,0,30,3.0,0.0
2943,36.0,0,30,4.0,0.0
2944,48.0,48,30,6.0,0.0
2945,66.0,0,30,0.0,0.0
2946,66.0,0,30,1.0,0.0
2947,66.0,0,30,2.0,0.0
2948,54.0,0,30,3.0,0.0
2949,42.0,0,30,4.0,0.0
2950,54.0,48,30,6.0,0.0
2951,67.0,0,30,0.0,0.0
2952,67.0,0,30,1.0,0.0
2953,67.0,0,30,2.0,0.0
2954,55.0,0,30,3.0,0.0
2955,43.0,0,30,4.0,0.0
2956,55.0,90,30,6.0,0.0
2957,62.0,0,90,0.0,0.0
2958,62.0,0,90,1.0,0.0
2959,62.0,0,90,2.0,0.0
2960,50.0,0,90,3.0,0.0
2961,38.0,0,90,4.0,0.0
2962,50.0,96,90,6.0,0.0
2963,62.0,0,90,0.0,0.0
2964,62.0,0,90,1.0,0.0
2965,50.0,0,90,2.0,0.0
2966,38.0,0,90,3.0,0.0
2967,26.0,0,90,4.0,0.0
2968,38.0,108,90,6.0,0.0
2969,55.0,0,90,0.0,0.0
2970,55.0,0,90,1.0,0.0
2971,55.0,0,90,2.0,0.0
2972,43.0,0,90,3.0,0.0
2973,31.0,0,90,4.0,0.0
2974,43.0,192,90,6.0,0.0
