,note,step,duration,channel,velocity
0,62.0,9,270,4.0,64.0
1,62.0,7,270,5.0,64.0
2,50.0,23,20,3.0,64.0
3,90.0,19,120,1.0,64.0
4,62.0,2,240,6.0,64.0
5,81.0,5,120,0.0,64.0
6,50.0,19,2190,10.0,64.0
7,86.0,4,90,2.0,64.0
8,50.0,27,15,3.0,64.0
9,50.0,24,20,3.0,64.0
10,50.0,13,15,3.0,64.0
11,50.0,13,15,3.0,64.0
12,50.0,20,15,3.0,64.0
13,50.0,33,15,3.0,64.0
14,50.0,19,15,3.0,64.0
15,69.0,3,30,7.0,64.0
16,50.0,32,15,3.0,64.0
17,50.0,2,20,3.0,64.0
18,69.0,17,60,7.0,64.0
19,50.0,30,15,3.0,64.0
20,66.0,2,40,4.0,64.0
21,50.0,5,15,3.0,64.0
22,66.0,3,40,6.0,64.0
23,66.0,24,30,5.0,64.0
24,50.0,1,15,3.0,64.0
25,50.0,29,15,3.0,64.0
26,64.0,0,40,4.0,64.0
27,64.0,6,40,6.0,64.0
28,64.0,19,30,5.0,64.0
29,50.0,2,15,3.0,64.0
30,50.0,28,20,3.0,64.0
31,62.0,3,40,6.0,64.0
32,62.0,4,40,4.0,64.0
33,66.0,0,30,7.0,64.0
34,62.0,12,30,5.0,64.0
35,50.0,1,15,3.0,64.0
36,69.0,30,30,8.0,64.0
37,50.0,1,15,3.0,64.0
38,69.0,4,60,8.0,64.0
39,90.0,16,120,1.0,64.0
40,71.0,3,270,6.0,64.0
41,86.0,10,90,2.0,64.0
42,71.0,5,270,4.0,64.0
43,66.0,20,60,7.0,64.0
44,81.0,5,120,0.0,64.0
45,50.0,22,15,3.0,64.0
46,71.0,16,270,5.0,64.0
47,50.0,30,15,3.0,64.0
48,50.0,0,15,3.0,64.0
49,50.0,15,15,3.0,64.0
50,50.0,6,15,3.0,64.0
51,50.0,23,15,3.0,64.0
52,50.0,26,15,3.0,64.0
53,62.0,8,40,7.0,64.0
54,50.0,17,15,3.0,64.0
55,66.0,14,30,8.0,64.0
56,50.0,11,15,3.0,64.0
57,50.0,26,15,3.0,64.0
58,62.0,16,60,7.0,64.0
59,66.0,2,60,8.0,64.0
60,50.0,2,15,3.0,64.0
61,50.0,7,15,3.0,64.0
62,74.0,9,30,6.0,64.0
63,74.0,0,30,4.0,64.0
64,50.0,19,15,3.0,64.0
65,74.0,26,40,5.0,64.0
66,50.0,3,15,3.0,64.0
67,50.0,19,15,3.0,64.0
68,73.0,2,30,6.0,64.0
69,73.0,2,40,4.0,64.0
70,73.0,25,40,5.0,64.0
71,50.0,5,15,3.0,64.0
72,71.0,2,30,7.0,64.0
73,50.0,16,15,3.0,64.0
74,71.0,8,60,4.0,64.0
75,71.0,0,40,6.0,64.0
76,62.0,15,40,8.0,64.0
77,71.0,1,40,5.0,64.0
78,50.0,8,15,3.0,64.0
79,50.0,23,15,3.0,64.0
80,62.0,1,90,8.0,64.0
81,71.0,6,60,7.0,64.0
82,50.0,26,15,3.0,64.0
83,79.0,1,270,5.0,64.0
84,86.0,19,90,2.0,64.0
85,91.0,15,120,1.0,64.0
86,79.0,30,270,6.0,64.0
87,79.0,7,270,4.0,64.0
88,83.0,4,120,0.0,64.0
89,50.0,21,15,3.0,64.0
90,50.0,22,15,3.0,64.0
91,50.0,7,15,3.0,64.0
92,50.0,5,15,3.0,64.0
93,50.0,26,15,3.0,64.0
94,50.0,23,15,3.0,64.0
95,50.0,24,15,3.0,64.0
96,67.0,3,30,7.0,64.0
97,71.0,19,30,8.0,64.0
98,50.0,8,15,3.0,64.0
99,50.0,14,15,3.0,64.0
100,71.0,10,60,8.0,64.0
101,67.0,12,60,7.0,64.0
102,50.0,0,15,3.0,64.0
103,50.0,2,15,3.0,64.0
104,76.0,1,30,6.0,64.0
105,76.0,0,40,5.0,64.0
106,76.0,13,40,4.0,64.0
107,50.0,13,15,3.0,64.0
108,50.0,23,15,3.0,64.0
109,78.0,5,40,6.0,64.0
110,78.0,1,30,5.0,64.0
111,78.0,10,30,4.0,64.0
112,50.0,11,15,3.0,64.0
113,50.0,22,15,3.0,64.0
114,79.0,0,40,6.0,64.0
115,79.0,2,40,5.0,64.0
116,50.0,22,15,3.0,64.0
117,64.0,6,30,7.0,64.0
118,79.0,2,40,4.0,64.0
119,67.0,13,30,8.0,64.0
120,50.0,2,15,3.0,64.0
121,50.0,51,15,3.0,64.0
122,73.0,2,270,5.0,64.0
123,73.0,6,270,6.0,64.0
124,67.0,12,60,8.0,64.0
125,88.0,12,120,1.0,64.0
126,79.0,1,120,0.0,64.0
127,64.0,25,60,7.0,64.0
128,73.0,25,270,4.0,64.0
129,81.0,8,120,2.0,64.0
130,50.0,21,30,3.0,64.0
131,50.0,17,30,3.0,64.0
132,50.0,23,15,3.0,64.0
133,50.0,29,15,3.0,64.0
134,50.0,25,15,3.0,64.0
135,76.0,4,40,7.0,64.0
136,67.0,19,40,8.0,64.0
137,50.0,2,15,3.0,64.0
138,50.0,21,15,3.0,64.0
139,67.0,5,60,8.0,64.0
140,76.0,10,60,7.0,64.0
141,50.0,0,15,3.0,64.0
142,50.0,9,15,3.0,64.0
143,69.0,8,30,6.0,64.0
144,69.0,4,40,5.0,64.0
145,69.0,16,40,4.0,64.0
146,50.0,7,15,3.0,64.0
147,50.0,24,20,3.0,64.0
148,71.0,5,40,6.0,64.0
149,71.0,0,40,5.0,64.0
150,71.0,19,40,4.0,64.0
151,50.0,7,20,3.0,64.0
152,50.0,38,15,3.0,64.0
153,73.0,2,40,5.0,64.0
154,73.0,1,40,6.0,64.0
155,73.0,1,30,7.0,64.0
156,64.0,7,40,8.0,64.0
157,73.0,2,40,4.0,64.0
158,50.0,60,30,3.0,64.0
159,67.0,129,60,8.0,64.0
160,64.0,4,360,5.0,64.0
161,73.0,1,60,7.0,64.0
162,64.0,16,360,4.0,64.0
163,64.0,15,330,6.0,64.0
164,50.0,17,40,3.0,64.0
165,50.0,19,20,3.0,64.0
166,61.0,7,30,8.0,64.0
167,67.0,5,40,7.0,64.0
168,81.0,0,40,2.0,64.0
169,88.0,1,40,1.0,64.0
170,79.0,27,30,0.0,64.0
171,50.0,38,20,3.0,64.0
172,61.0,4,90,8.0,64.0
173,67.0,4,60,7.0,64.0
174,88.0,2,90,1.0,64.0
175,81.0,0,60,2.0,64.0
176,79.0,3,60,0.0,64.0
177,50.0,1,20,3.0,64.0
178,54.0,30,30,10.0,64.0
179,52.0,52,40,10.0,64.0
180,50.0,11,20,3.0,64.0
181,50.0,7,30,10.0,64.0
182,79.0,0,40,7.0,64.0
183,76.0,4,40,0.0,64.0
184,81.0,1,40,2.0,64.0
185,93.0,3,40,1.0,64.0
186,64.0,1,60,6.0,64.0
187,50.0,1,20,3.0,64.0
188,64.0,10,40,8.0,64.0
189,64.0,63,40,5.0,64.0
190,64.0,2,40,4.0,64.0
191,57.0,9,60,8.0,64.0
192,49.0,9,90,10.0,64.0
193,79.0,2,60,7.0,64.0
194,93.0,3,90,1.0,64.0
195,81.0,2,90,2.0,64.0
196,76.0,2,90,0.0,64.0
197,76.0,4,90,6.0,64.0
198,76.0,10,90,4.0,64.0
199,76.0,93,90,5.0,64.0
200,45.0,10,40,3.0,64.0
201,76.0,7,40,7.0,64.0
202,73.0,8,40,4.0,64.0
203,73.0,0,40,6.0,64.0
204,73.0,0,40,5.0,64.0
205,69.0,2,30,8.0,64.0
206,81.0,0,30,0.0,64.0
207,52.0,2,40,10.0,64.0
208,45.0,2,20,3.0,64.0
209,88.0,3,40,1.0,64.0
210,81.0,78,40,2.0,64.0
211,76.0,2,60,7.0,64.0
212,69.0,0,60,8.0,64.0
213,69.0,6,90,4.0,64.0
214,69.0,111,90,5.0,64.0
215,88.0,3,90,1.0,64.0
216,69.0,5,90,6.0,64.0
217,49.0,3,60,10.0,64.0
218,81.0,2,60,0.0,64.0
219,45.0,10,60,3.0,64.0
220,81.0,3,90,2.0,64.0
221,81.0,4,30,2.0,64.0
222,88.0,2,40,1.0,64.0
223,67.0,1,40,4.0,64.0
224,73.0,2,40,7.0,64.0
225,69.0,2,30,8.0,64.0
226,67.0,7,40,5.0,64.0
227,76.0,6,40,0.0,64.0
228,45.0,1,30,10.0,64.0
229,45.0,1,30,3.0,64.0
230,67.0,33,40,6.0,64.0
231,69.0,12,600,8.0,64.0
232,66.0,10,90,4.0,64.0
233,81.0,5,90,2.0,64.0
234,86.0,5,90,1.0,64.0
235,66.0,2,90,5.0,64.0
236,50.0,10,480,10.0,64.0
237,74.0,7,570,7.0,64.0
238,50.0,27,20,3.0,64.0
239,78.0,6,90,0.0,64.0
240,66.0,23,90,6.0,64.0
241,50.0,23,15,3.0,64.0
242,50.0,2,15,3.0,64.0
243,50.0,0,15,3.0,64.0
244,50.0,29,15,3.0,64.0
245,50.0,24,15,3.0,64.0
246,50.0,26,15,3.0,64.0
247,62.0,2,40,4.0,64.0
248,86.0,5,30,2.0,64.0
249,62.0,2,40,6.0,64.0
250,81.0,2,40,0.0,64.0
251,90.0,5,40,1.0,64.0
252,62.0,11,40,5.0,64.0
253,50.0,1,15,3.0,64.0
254,50.0,34,15,3.0,64.0
255,86.0,11,60,2.0,64.0
256,66.0,4,90,4.0,64.0
257,90.0,2,90,1.0,64.0
258,81.0,6,60,0.0,64.0
259,66.0,19,90,6.0,64.0
260,66.0,23,90,5.0,64.0
261,50.0,22,20,3.0,64.0
262,50.0,10,15,3.0,64.0
263,50.0,2,15,3.0,64.0
264,50.0,0,15,3.0,64.0
265,50.0,27,15,3.0,64.0
266,50.0,26,15,3.0,64.0
267,50.0,23,15,3.0,64.0
268,78.0,4,30,0.0,64.0
269,69.0,2,40,4.0,64.0
270,81.0,2,40,2.0,64.0
271,69.0,17,40,6.0,64.0
272,69.0,0,40,5.0,64.0
273,86.0,6,30,1.0,64.0
274,50.0,1,15,3.0,64.0
275,50.0,10,15,3.0,64.0
276,81.0,2,60,2.0,64.0
277,74.0,2,90,4.0,64.0
278,78.0,12,90,0.0,64.0
279,86.0,2,90,1.0,64.0
280,74.0,0,90,5.0,64.0
281,74.0,0,90,6.0,64.0
282,50.0,32,15,3.0,64.0
283,50.0,18,15,3.0,64.0
284,50.0,4,40,10.0,64.0
285,50.0,2,15,3.0,64.0
286,50.0,13,15,3.0,64.0
287,50.0,22,15,3.0,64.0
288,49.0,6,30,10.0,64.0
289,50.0,27,15,3.0,64.0
290,50.0,27,15,3.0,64.0
291,47.0,0,60,10.0,64.0
292,62.0,4,40,8.0,64.0
293,69.0,2,40,5.0,64.0
294,66.0,2,40,7.0,64.0
295,78.0,0,40,2.0,64.0
296,69.0,4,40,4.0,64.0
297,74.0,1,30,0.0,64.0
298,81.0,0,30,1.0,64.0
299,69.0,14,40,6.0,64.0
300,50.0,2,20,3.0,64.0
301,50.0,28,20,3.0,64.0
302,66.0,3,90,8.0,64.0
303,45.0,24,40,10.0,64.0
304,69.0,3,90,7.0,64.0
305,74.0,3,90,4.0,64.0
306,81.0,1,90,1.0,64.0
307,78.0,5,60,2.0,64.0
308,74.0,19,90,5.0,64.0
309,74.0,0,60,0.0,64.0
310,74.0,2,90,6.0,64.0
311,50.0,4,15,3.0,64.0
312,50.0,16,15,3.0,64.0
313,43.0,5,40,10.0,64.0
314,50.0,3,20,3.0,64.0
315,50.0,26,15,3.0,64.0
316,42.0,36,40,10.0,64.0
317,50.0,12,20,3.0,64.0
318,50.0,13,30,3.0,64.0
319,40.0,7,30,10.0,64.0
320,67.0,4,40,8.0,64.0
321,76.0,2,40,4.0,64.0
322,76.0,4,40,6.0,64.0
323,73.0,0,40,7.0,64.0
324,76.0,4,30,5.0,64.0
325,74.0,1,40,2.0,64.0
326,69.0,1,40,0.0,64.0
327,78.0,6,40,1.0,64.0
328,50.0,54,20,3.0,64.0
329,69.0,0,90,8.0,64.0
330,78.0,4,270,4.0,64.0
331,38.0,0,450,10.0,64.0
332,74.0,1,90,7.0,64.0
333,78.0,17,270,5.0,64.0
334,74.0,3,90,2.0,64.0
335,69.0,23,90,0.0,64.0
336,78.0,7,270,6.0,64.0
337,78.0,31,90,1.0,64.0
338,50.0,35,30,3.0,64.0
339,50.0,40,15,3.0,64.0
340,50.0,26,20,3.0,64.0
341,69.0,4,30,0.0,64.0
342,81.0,1,30,2.0,64.0
343,81.0,5,30,1.0,64.0
344,50.0,7,20,3.0,64.0
345,78.0,8,40,7.0,64.0
346,74.0,31,40,8.0,64.0
347,50.0,17,30,3.0,64.0
348,69.0,0,60,0.0,64.0
349,81.0,4,60,2.0,64.0
350,81.0,9,60,1.0,64.0
351,74.0,5,60,8.0,64.0
352,78.0,3,60,7.0,64.0
353,79.0,10,40,4.0,64.0
354,79.0,9,40,6.0,64.0
355,79.0,40,40,5.0,64.0
356,81.0,14,40,4.0,64.0
357,81.0,42,40,5.0,64.0
358,81.0,1,40,6.0,64.0
359,78.0,1,40,4.0,64.0
360,78.0,2,40,5.0,64.0
361,66.0,4,30,0.0,64.0
362,78.0,2,30,2.0,64.0
363,78.0,1,30,1.0,64.0
364,69.0,1,40,8.0,64.0
365,74.0,12,30,7.0,64.0
366,78.0,65,40,6.0,64.0
367,50.0,0,20,3.0,64.0
368,83.0,5,270,5.0,64.0
369,83.0,33,270,4.0,64.0
370,74.0,13,90,2.0,64.0
371,74.0,91,120,1.0,64.0
372,62.0,16,120,0.0,64.0
373,74.0,30,60,7.0,64.0
374,50.0,99,600,10.0,64.0
375,66.0,5,60,8.0,64.0
376,83.0,8,270,6.0,64.0
377,50.0,12,40,3.0,64.0
378,71.0,14,30,7.0,64.0
379,62.0,31,40,8.0,64.0
380,71.0,4,60,7.0,64.0
381,62.0,24,60,8.0,64.0
382,80.0,1,40,5.0,64.0
383,80.0,1,30,4.0,64.0
384,80.0,59,30,6.0,64.0
385,81.0,1,40,5.0,64.0
386,81.0,3,30,4.0,64.0
387,81.0,48,40,6.0,64.0
388,83.0,1,40,5.0,64.0
389,68.0,4,40,7.0,64.0
390,83.0,6,30,4.0,64.0
391,83.0,1,40,6.0,64.0
392,59.0,94,40,8.0,64.0
393,76.0,0,270,5.0,64.0
394,68.0,2,90,7.0,64.0
395,76.0,36,270,4.0,64.0
396,59.0,38,90,8.0,64.0
397,76.0,12,270,6.0,64.0
398,71.0,10,30,7.0,64.0
399,50.0,37,40,10.0,64.0
400,56.0,0,30,8.0,64.0
401,56.0,11,90,8.0,64.0
402,71.0,3,60,7.0,64.0
403,49.0,19,90,10.0,64.0
404,76.0,2,40,5.0,64.0
405,76.0,3,40,4.0,64.0
406,76.0,55,40,6.0,64.0
407,78.0,1,40,5.0,64.0
408,78.0,3,40,4.0,64.0
409,78.0,41,40,6.0,64.0
410,68.0,6,30,7.0,64.0
411,80.0,0,40,5.0,64.0
412,59.0,2,40,8.0,64.0
413,47.0,109,40,10.0,64.0
414,80.0,4,30,4.0,64.0
415,80.0,5,40,6.0,64.0
416,64.0,56,180,8.0,64.0
417,81.0,5,90,5.0,64.0
418,49.0,21,150,10.0,64.0
419,81.0,4,90,4.0,64.0
420,64.0,0,150,7.0,64.0
421,81.0,38,90,6.0,64.0
422,76.0,3,40,5.0,64.0
423,76.0,107,40,6.0,64.0
424,76.0,8,40,4.0,64.0
425,66.0,55,180,8.0,64.0
426,73.0,5,90,5.0,64.0
427,54.0,14,150,10.0,64.0
428,69.0,51,360,7.0,64.0
429,73.0,6,90,4.0,64.0
430,73.0,40,90,6.0,64.0
431,69.0,9,30,5.0,64.0
432,69.0,3,40,4.0,64.0
433,69.0,61,40,6.0,64.0
434,66.0,3,120,8.0,64.0
435,47.0,58,40,10.0,64.0
436,74.0,34,360,5.0,64.0
437,74.0,11,360,4.0,64.0
438,74.0,0,330,6.0,64.0
439,49.0,9,40,10.0,64.0
440,50.0,56,40,10.0,64.0
441,52.0,4,40,10.0,64.0
442,64.0,1,40,8.0,64.0
443,68.0,57,40,7.0,64.0
444,54.0,38,40,10.0,64.0
445,62.0,2,90,8.0,64.0
446,69.0,17,90,7.0,64.0
447,56.0,17,40,10.0,64.0
448,57.0,42,40,10.0,64.0
449,71.0,4,40,7.0,64.0
450,54.0,6,40,10.0,64.0
451,74.0,7,30,4.0,64.0
452,74.0,1,40,6.0,64.0
453,74.0,1,30,5.0,64.0
454,61.0,103,40,8.0,64.0
455,64.0,3,150,7.0,64.0
456,59.0,0,150,8.0,64.0
457,74.0,2,150,4.0,64.0
458,74.0,7,120,6.0,64.0
459,74.0,0,150,5.0,64.0
460,57.0,27,60,10.0,64.0
461,56.0,18,40,10.0,64.0
462,57.0,17,30,10.0,64.0
463,56.0,30,20,10.0,64.0
464,57.0,11,30,10.0,64.0
465,76.0,2,30,6.0,64.0
466,76.0,2,30,4.0,64.0
467,76.0,17,30,5.0,64.0
468,56.0,1,20,10.0,64.0
469,78.0,2,30,6.0,64.0
470,78.0,18,30,4.0,64.0
471,78.0,1,30,5.0,64.0
472,57.0,0,30,10.0,64.0
473,56.0,27,20,10.0,64.0
474,71.0,1,150,7.0,64.0
475,64.0,16,210,8.0,64.0
476,76.0,6,90,6.0,64.0
477,76.0,10,90,4.0,64.0
478,76.0,3,120,5.0,64.0
479,57.0,14,30,10.0,64.0
480,56.0,28,20,10.0,64.0
481,57.0,20,30,10.0,64.0
482,56.0,2,20,10.0,64.0
483,57.0,21,20,10.0,64.0
484,56.0,17,20,10.0,64.0
485,57.0,20,20,10.0,64.0
486,56.0,19,30,10.0,64.0
487,54.0,5,40,10.0,64.0
488,74.0,6,40,5.0,64.0
489,74.0,6,40,4.0,64.0
490,74.0,0,40,6.0,64.0
491,56.0,114,30,10.0,64.0
492,73.0,9,120,5.0,64.0
493,73.0,1,120,4.0,64.0
494,57.0,55,1020,10.0,64.0
495,64.0,102,120,8.0,64.0
496,69.0,0,90,7.0,64.0
497,73.0,4,90,6.0,64.0
498,69.0,3,40,5.0,64.0
499,69.0,10,40,6.0,64.0
500,69.0,1,40,4.0,64.0
501,64.0,2,40,7.0,64.0
502,61.0,95,40,8.0,64.0
503,73.0,1,90,5.0,64.0
504,73.0,117,90,4.0,64.0
505,69.0,2,90,7.0,64.0
506,73.0,5,90,6.0,64.0
507,64.0,4,90,8.0,64.0
508,76.0,2,40,4.0,64.0
509,76.0,2,40,5.0,64.0
510,71.0,2,40,7.0,64.0
511,67.0,104,40,8.0,64.0
512,76.0,9,40,6.0,64.0
513,81.0,6,150,4.0,64.0
514,66.0,49,90,8.0,64.0
515,72.0,3,330,7.0,64.0
516,81.0,4,150,5.0,64.0
517,81.0,56,150,6.0,64.0
518,79.0,2,30,5.0,64.0
519,79.0,5,30,6.0,64.0
520,79.0,12,40,4.0,64.0
521,63.0,3,40,8.0,64.0
522,78.0,2,30,5.0,64.0
523,78.0,0,30,6.0,64.0
524,78.0,93,30,4.0,64.0
525,79.0,2,90,5.0,64.0
526,64.0,9,90,8.0,64.0
527,79.0,8,90,4.0,64.0
528,79.0,109,90,6.0,64.0
529,76.0,3,40,4.0,64.0
530,72.0,5,40,7.0,64.0
531,76.0,10,40,5.0,64.0
532,67.0,0,40,8.0,64.0
533,76.0,55,40,6.0,64.0
534,63.0,56,150,7.0,64.0
535,83.0,12,360,4.0,64.0
536,83.0,28,360,5.0,64.0
537,66.0,7,150,8.0,64.0
538,83.0,23,300,6.0,64.0
539,55.0,41,40,10.0,64.0
540,54.0,6,40,10.0,64.0
541,52.0,65,40,10.0,64.0
542,51.0,34,40,10.0,64.0
543,66.0,25,180,7.0,64.0
544,71.0,5,330,8.0,64.0
545,49.0,11,40,10.0,64.0
546,47.0,34,40,10.0,64.0
547,75.0,10,40,4.0,64.0
548,45.0,112,40,10.0,64.0
549,75.0,2,40,6.0,64.0
550,75.0,1,40,5.0,64.0
551,76.0,4,120,4.0,64.0
552,76.0,82,120,6.0,64.0
553,76.0,0,120,5.0,64.0
554,43.0,4,90,10.0,64.0
555,71.0,15,90,7.0,64.0
556,78.0,4,30,5.0,64.0
557,43.0,0,40,10.0,64.0
558,78.0,3,40,6.0,64.0
559,78.0,3,40,4.0,64.0
560,64.0,5,30,8.0,64.0
561,71.0,58,40,7.0,64.0
562,64.0,0,120,8.0,64.0
563,79.0,8,40,5.0,64.0
564,45.0,6,90,10.0,64.0
565,79.0,7,60,4.0,64.0
566,72.0,1,60,7.0,64.0
567,79.0,4,60,6.0,64.0
568,78.0,7,20,5.0,64.0
569,78.0,8,30,4.0,64.0
570,78.0,5,30,6.0,64.0
571,79.0,8,30,5.0,64.0
572,79.0,9,30,4.0,64.0
573,79.0,11,30,6.0,64.0
574,78.0,0,20,5.0,64.0
575,78.0,7,20,4.0,64.0
576,78.0,25,20,6.0,64.0
577,79.0,1,40,5.0,64.0
578,79.0,6,30,4.0,64.0
579,79.0,16,40,6.0,64.0
580,78.0,0,40,5.0,64.0
581,78.0,5,40,4.0,64.0
582,78.0,32,30,6.0,64.0
583,76.0,3,40,5.0,64.0
584,76.0,2,40,4.0,64.0
585,76.0,3,40,6.0,64.0
586,47.0,0,40,10.0,64.0
587,71.0,6,40,7.0,64.0
588,63.0,0,40,8.0,64.0
589,78.0,7,30,5.0,64.0
590,78.0,99,30,4.0,64.0
591,78.0,1,30,6.0,64.0
592,79.0,3,270,5.0,64.0
593,40.0,5,450,10.0,64.0
594,79.0,60,270,6.0,64.0
595,64.0,120,120,8.0,64.0
596,79.0,4,240,4.0,64.0
597,71.0,15,90,7.0,64.0
598,71.0,6,40,8.0,64.0
599,76.0,25,40,7.0,64.0
600,71.0,53,90,8.0,64.0
601,76.0,1,90,7.0,64.0
602,78.0,4,40,4.0,64.0
603,78.0,5,30,6.0,64.0
604,78.0,2,30,5.0,64.0
605,76.0,2,40,5.0,64.0
606,76.0,13,40,6.0,64.0
607,76.0,35,60,4.0,64.0
608,74.0,6,40,5.0,64.0
609,74.0,4,40,6.0,64.0
610,74.0,3,40,4.0,64.0
611,71.0,4,30,7.0,64.0
612,67.0,110,30,8.0,64.0
613,72.0,122,120,5.0,64.0
614,72.0,7,90,4.0,64.0
615,52.0,80,630,10.0,64.0
616,67.0,1,330,7.0,64.0
617,64.0,116,330,8.0,64.0
618,72.0,1,90,6.0,64.0
619,72.0,5,40,5.0,64.0
620,72.0,100,40,6.0,64.0
621,72.0,3,40,4.0,64.0
622,74.0,5,90,5.0,64.0
623,74.0,1,90,4.0,64.0
624,74.0,1,90,6.0,64.0
625,67.0,8,40,7.0,64.0
626,62.0,2,40,8.0,64.0
627,76.0,2,40,5.0,64.0
628,76.0,147,40,6.0,64.0
629,76.0,2,40,4.0,64.0
630,66.0,12,330,7.0,64.0
631,61.0,108,360,8.0,64.0
632,71.0,3,120,5.0,64.0
633,71.0,2,120,4.0,64.0
634,71.0,14,120,6.0,64.0
635,70.0,5,210,5.0,64.0
636,70.0,4,210,4.0,64.0
637,70.0,3,210,6.0,64.0
638,55.0,89,40,10.0,64.0
639,54.0,1,90,10.0,64.0
640,70.0,11,40,7.0,64.0
641,52.0,6,40,10.0,64.0
642,79.0,1,30,4.0,64.0
643,61.0,5,40,8.0,64.0
644,79.0,0,40,6.0,64.0
645,79.0,95,40,5.0,64.0
646,71.0,0,330,7.0,64.0
647,50.0,11,90,10.0,64.0
648,78.0,1,90,4.0,64.0
649,62.0,97,120,8.0,64.0
650,78.0,7,90,5.0,64.0
651,78.0,7,90,6.0,64.0
652,49.0,7,40,10.0,64.0
653,76.0,3,40,4.0,64.0
654,64.0,5,40,8.0,64.0
655,76.0,7,40,5.0,64.0
656,76.0,96,40,6.0,64.0
657,47.0,1,120,10.0,64.0
658,74.0,11,90,4.0,64.0
659,66.0,105,360,8.0,64.0
660,74.0,126,90,5.0,64.0
661,74.0,0,90,6.0,64.0
662,46.0,1,40,10.0,64.0
663,73.0,103,60,5.0,64.0
664,73.0,3,40,6.0,64.0
665,73.0,0,40,4.0,64.0
666,73.0,3,40,7.0,64.0
667,47.0,0,120,10.0,64.0
668,74.0,11,120,5.0,64.0
669,74.0,2,90,4.0,64.0
670,71.0,7,90,7.0,64.0
671,74.0,1,90,6.0,64.0
672,73.0,107,60,5.0,64.0
673,70.0,2,40,7.0,64.0
674,49.0,1,40,10.0,64.0
675,73.0,1,40,6.0,64.0
676,64.0,1,40,8.0,64.0
677,73.0,1,40,4.0,64.0
678,66.0,7,120,8.0,64.0
679,71.0,96,120,5.0,64.0
680,71.0,2,90,4.0,64.0
681,71.0,3,90,7.0,64.0
682,50.0,0,90,10.0,64.0
683,71.0,8,90,6.0,64.0
684,73.0,0,60,5.0,64.0
685,73.0,86,40,6.0,64.0
686,73.0,4,40,4.0,64.0
687,52.0,3,40,10.0,64.0
688,71.0,6,30,7.0,64.0
689,67.0,1,40,8.0,64.0
690,66.0,0,180,8.0,64.0
691,54.0,2,150,10.0,64.0
692,74.0,2,60,5.0,64.0
693,74.0,22,60,4.0,64.0
694,71.0,1,60,7.0,64.0
695,74.0,0,60,6.0,64.0
696,70.0,6,30,7.0,64.0
697,73.0,20,40,4.0,64.0
698,73.0,1,30,5.0,64.0
699,73.0,0,30,6.0,64.0
700,71.0,8,30,7.0,64.0
701,74.0,3,30,4.0,64.0
702,74.0,5,40,5.0,64.0
703,74.0,2,30,6.0,64.0
704,70.0,10,20,7.0,64.0
705,73.0,0,20,6.0,64.0
706,73.0,2,20,4.0,64.0
707,73.0,10,20,5.0,64.0
708,71.0,11,20,7.0,64.0
709,74.0,1,20,4.0,64.0
710,74.0,2,20,6.0,64.0
711,74.0,7,20,5.0,64.0
712,70.0,8,20,7.0,64.0
713,73.0,2,20,4.0,64.0
714,73.0,3,20,6.0,64.0
715,52.0,4,30,10.0,64.0
716,73.0,10,20,5.0,64.0
717,71.0,3,30,7.0,64.0
718,74.0,4,20,4.0,64.0
719,74.0,3,20,6.0,64.0
720,74.0,1,20,5.0,64.0
721,70.0,8,20,7.0,64.0
722,50.0,5,30,10.0,64.0
723,73.0,4,30,4.0,64.0
724,73.0,1,20,6.0,64.0
725,73.0,6,20,5.0,64.0
726,71.0,14,30,7.0,64.0
727,74.0,3,30,6.0,64.0
728,74.0,0,30,4.0,64.0
729,74.0,83,30,5.0,64.0
730,70.0,13,120,7.0,64.0
731,52.0,6,120,10.0,64.0
732,66.0,12,180,8.0,64.0
733,73.0,8,120,6.0,64.0
734,73.0,1,120,4.0,64.0
735,73.0,61,120,5.0,64.0
736,71.0,1,30,4.0,64.0
737,71.0,6,30,6.0,64.0
738,71.0,6,40,7.0,64.0
739,71.0,2,30,5.0,64.0
740,54.0,110,30,10.0,64.0
741,71.0,5,240,6.0,64.0
742,71.0,4,270,4.0,64.0
743,71.0,54,270,5.0,64.0
744,51.0,44,510,10.0,64.0
745,71.0,118,90,7.0,64.0
746,66.0,34,480,8.0,64.0
747,59.0,40,40,7.0,64.0
748,59.0,17,90,7.0,64.0
749,71.0,2,30,6.0,64.0
750,71.0,2,30,5.0,64.0
751,71.0,61,30,4.0,64.0
752,69.0,4,40,6.0,64.0
753,69.0,44,40,5.0,64.0
754,69.0,2,40,4.0,64.0
755,68.0,7,40,5.0,64.0
756,63.0,2,40,7.0,64.0
757,68.0,0,40,6.0,64.0
758,68.0,35,40,4.0,64.0
759,66.0,13,330,7.0,64.0
760,69.0,56,90,5.0,64.0
761,69.0,6,90,4.0,64.0
762,69.0,2,90,6.0,64.0
763,49.0,0,40,10.0,64.0
764,47.0,55,40,10.0,64.0
765,49.0,8,40,10.0,64.0
766,78.0,14,40,6.0,64.0
767,78.0,2,40,5.0,64.0
768,78.0,4,40,4.0,64.0
769,59.0,33,30,8.0,64.0
770,51.0,44,40,10.0,64.0
771,71.0,1,90,6.0,64.0
772,71.0,0,90,4.0,64.0
773,71.0,54,90,5.0,64.0
774,59.0,5,90,8.0,64.0
775,49.0,3,40,10.0,64.0
776,51.0,59,40,10.0,64.0
777,47.0,11,40,10.0,64.0
778,69.0,6,40,5.0,64.0
779,69.0,0,40,4.0,64.0
780,66.0,2,40,7.0,64.0
781,69.0,0,40,6.0,64.0
782,63.0,101,40,8.0,64.0
783,68.0,0,90,4.0,64.0
784,68.0,1,90,5.0,64.0
785,64.0,115,90,7.0,64.0
786,52.0,54,510,10.0,64.0
787,59.0,11,90,8.0,64.0
788,68.0,5,90,6.0,64.0
789,64.0,14,60,5.0,64.0
790,64.0,2,40,4.0,64.0
791,64.0,3,40,6.0,64.0
792,76.0,3,40,7.0,64.0
793,56.0,86,40,8.0,64.0
794,76.0,2,90,7.0,64.0
795,68.0,5,90,5.0,64.0
796,68.0,3,90,4.0,64.0
797,68.0,2,90,6.0,64.0
798,59.0,118,90,8.0,64.0
799,74.0,6,40,7.0,64.0
800,71.0,1,40,4.0,64.0
801,71.0,59,40,6.0,64.0
802,71.0,1,40,5.0,64.0
803,64.0,3,30,8.0,64.0
804,73.0,7,90,7.0,64.0
805,68.0,0,360,8.0,64.0
806,76.0,4,330,4.0,64.0
807,76.0,23,360,5.0,64.0
808,76.0,7,330,6.0,64.0
809,50.0,49,40,10.0,64.0
810,49.0,61,40,10.0,64.0
811,50.0,2,40,10.0,64.0
812,73.0,59,30,7.0,64.0
813,52.0,43,40,10.0,64.0
814,73.0,9,60,7.0,64.0
815,50.0,21,40,10.0,64.0
816,52.0,66,40,10.0,64.0
817,49.0,4,40,10.0,64.0
818,76.0,1,30,4.0,64.0
819,76.0,3,40,6.0,64.0
820,76.0,0,30,5.0,64.0
821,71.0,6,30,7.0,64.0
822,64.0,110,40,8.0,64.0
823,76.0,8,240,4.0,64.0
824,76.0,13,240,6.0,64.0
825,54.0,6,510,10.0,64.0
826,61.0,120,90,8.0,64.0
827,76.0,53,270,5.0,64.0
828,69.0,11,300,7.0,64.0
829,69.0,31,30,8.0,64.0
830,69.0,4,90,8.0,64.0
831,69.0,7,40,6.0,64.0
832,69.0,4,40,5.0,64.0
833,69.0,48,40,4.0,64.0
834,71.0,4,40,5.0,64.0
835,71.0,2,40,6.0,64.0
836,71.0,52,40,4.0,64.0
837,73.0,5,40,6.0,64.0
838,73.0,0,40,5.0,64.0
839,67.0,53,40,8.0,64.0
840,73.0,0,40,4.0,64.0
841,69.0,0,30,7.0,64.0
842,74.0,0,40,6.0,64.0
843,66.0,9,90,8.0,64.0
844,74.0,2,40,5.0,64.0
845,74.0,46,40,4.0,64.0
846,69.0,31,360,7.0,64.0
847,55.0,1,40,10.0,64.0
848,73.0,1,40,5.0,64.0
849,73.0,61,40,4.0,64.0
850,73.0,0,40,6.0,64.0
851,54.0,3,40,10.0,64.0
852,74.0,42,40,5.0,64.0
853,74.0,3,40,6.0,64.0
854,74.0,0,40,4.0,64.0
855,66.0,5,40,8.0,64.0
856,52.0,4,40,10.0,64.0
857,76.0,6,40,5.0,64.0
858,76.0,0,40,6.0,64.0
859,76.0,53,40,4.0,64.0
860,66.0,24,60,8.0,64.0
861,50.0,6,40,10.0,64.0
862,78.0,6,40,5.0,64.0
863,78.0,9,60,4.0,64.0
864,78.0,5,40,6.0,64.0
865,52.0,10,40,10.0,64.0
866,76.0,4,40,5.0,64.0
867,76.0,8,40,6.0,64.0
868,76.0,2,40,4.0,64.0
869,50.0,19,40,10.0,64.0
870,78.0,5,40,6.0,64.0
871,78.0,1,40,5.0,64.0
872,78.0,42,40,4.0,64.0
873,49.0,4,40,10.0,64.0
874,80.0,0,40,6.0,64.0
875,69.0,2,30,7.0,64.0
876,64.0,3,30,8.0,64.0
877,80.0,7,40,5.0,64.0
878,80.0,75,40,4.0,64.0
879,47.0,38,270,10.0,64.0
880,62.0,113,600,8.0,64.0
881,81.0,2,90,6.0,64.0
882,71.0,69,90,7.0,64.0
883,81.0,7,60,4.0,64.0
884,81.0,10,60,5.0,64.0
885,80.0,61,90,4.0,64.0
886,80.0,8,90,5.0,64.0
887,80.0,2,90,6.0,64.0
888,69.0,37,40,7.0,64.0
889,78.0,3,60,4.0,64.0
890,78.0,17,60,5.0,64.0
891,78.0,16,90,6.0,64.0
892,68.0,13,90,7.0,64.0
893,47.0,44,40,10.0,64.0
894,76.0,7,90,5.0,64.0
895,76.0,3,90,4.0,64.0
896,76.0,36,90,6.0,64.0
897,49.0,13,40,10.0,64.0
898,50.0,17,40,10.0,64.0
899,66.0,106,40,7.0,64.0
900,83.0,97,360,5.0,64.0
901,64.0,5,90,7.0,64.0
902,44.0,11,90,10.0,64.0
903,83.0,0,330,6.0,64.0
904,83.0,5,300,4.0,64.0
905,40.0,0,40,10.0,64.0
906,68.0,96,40,7.0,64.0
907,62.0,9,30,8.0,64.0
908,42.0,24,90,10.0,64.0
909,61.0,2,90,8.0,64.0
910,69.0,1,90,7.0,64.0
911,74.0,3,40,6.0,64.0
912,71.0,3,40,7.0,64.0
913,74.0,3,40,5.0,64.0
914,44.0,2,40,10.0,64.0
915,59.0,114,40,8.0,64.0
916,74.0,0,40,4.0,64.0
917,45.0,5,90,10.0,64.0
918,69.0,0,330,7.0,64.0
919,73.0,78,360,6.0,64.0
920,73.0,22,330,5.0,64.0
921,64.0,122,90,8.0,64.0
922,73.0,4,360,4.0,64.0
923,47.0,1,40,10.0,64.0
924,62.0,103,40,8.0,64.0
925,49.0,4,90,10.0,64.0
926,64.0,8,90,8.0,64.0
927,69.0,10,30,7.0,64.0
928,71.0,76,60,6.0,64.0
929,71.0,5,40,5.0,64.0
930,50.0,3,40,10.0,64.0
931,71.0,2,40,4.0,64.0
932,66.0,3,40,8.0,64.0
933,52.0,1,180,10.0,64.0
934,69.0,0,60,7.0,64.0
935,73.0,5,60,5.0,64.0
936,64.0,14,180,8.0,64.0
937,73.0,4,60,4.0,64.0
938,73.0,14,60,6.0,64.0
939,71.0,5,30,5.0,64.0
940,71.0,1,30,4.0,64.0
941,71.0,19,30,6.0,64.0
942,68.0,3,20,7.0,64.0
943,73.0,7,30,5.0,64.0
944,69.0,15,30,7.0,64.0
945,73.0,1,30,4.0,64.0
946,73.0,0,20,6.0,64.0
947,71.0,0,20,5.0,64.0
948,68.0,7,20,7.0,64.0
949,71.0,14,30,4.0,64.0
950,71.0,2,20,6.0,64.0
951,73.0,2,20,5.0,64.0
952,69.0,1,20,7.0,64.0
953,73.0,4,20,6.0,64.0
954,73.0,10,20,4.0,64.0
955,68.0,7,20,7.0,64.0
956,71.0,1,30,5.0,64.0
957,71.0,1,20,6.0,64.0
958,71.0,1,20,4.0,64.0
959,69.0,4,30,7.0,64.0
960,73.0,1,20,5.0,64.0
961,73.0,5,30,6.0,64.0
962,73.0,4,20,4.0,64.0
963,68.0,11,20,7.0,64.0
964,71.0,2,30,5.0,64.0
965,71.0,0,20,6.0,64.0
966,71.0,11,20,4.0,64.0
967,69.0,11,30,7.0,64.0
968,73.0,3,30,5.0,64.0
969,73.0,4,30,6.0,64.0
970,73.0,104,30,4.0,64.0
971,68.0,15,120,7.0,64.0
972,71.0,7,120,5.0,64.0
973,71.0,22,150,6.0,64.0
974,71.0,1,150,4.0,64.0
975,62.0,39,180,8.0,64.0
976,40.0,7,150,10.0,64.0
977,69.0,4,40,6.0,64.0
978,69.0,4,40,5.0,64.0
979,64.0,0,30,7.0,64.0
980,69.0,62,30,4.0,64.0
981,69.0,6,240,6.0,64.0
982,64.0,15,120,7.0,64.0
983,61.0,38,540,8.0,64.0
984,69.0,15,240,4.0,64.0
985,45.0,49,720,10.0,64.0
986,69.0,14,270,5.0,64.0
987,45.0,21,20,3.0,64.0
988,45.0,25,20,3.0,64.0
989,45.0,19,20,3.0,64.0
990,45.0,27,15,3.0,64.0
991,45.0,2,15,3.0,64.0
992,45.0,32,15,3.0,64.0
993,45.0,18,15,3.0,64.0
994,45.0,26,15,3.0,64.0
995,88.0,4,40,2.0,64.0
996,97.0,3,30,0.0,64.0
997,76.0,0,40,7.0,64.0
998,93.0,1,30,1.0,64.0
999,45.0,17,15,3.0,64.0
1000,45.0,1,15,3.0,64.0
1001,97.0,1,60,0.0,64.0
1002,76.0,8,90,7.0,64.0
1003,88.0,4,60,2.0,64.0
1004,93.0,1,60,1.0,64.0
1005,45.0,25,15,3.0,64.0
1006,45.0,16,15,3.0,64.0
1007,73.0,19,40,6.0,64.0
1008,45.0,6,15,3.0,64.0
1009,45.0,27,15,3.0,64.0
1010,71.0,10,40,6.0,64.0
1011,71.0,12,40,4.0,64.0
1012,45.0,13,15,3.0,64.0
1013,71.0,6,60,5.0,64.0
1014,45.0,3,15,3.0,64.0
1015,73.0,3,30,4.0,64.0
1016,73.0,19,30,5.0,64.0
1017,45.0,6,15,3.0,64.0
1018,69.0,0,40,6.0,64.0
1019,74.0,3,40,4.0,64.0
1020,88.0,4,40,1.0,64.0
1021,73.0,0,30,7.0,64.0
1022,93.0,1,40,0.0,64.0
1023,74.0,7,40,5.0,64.0
1024,81.0,0,30,2.0,64.0
1025,76.0,8,40,4.0,64.0
1026,45.0,1,20,3.0,64.0
1027,76.0,11,30,5.0,64.0
1028,78.0,4,30,4.0,64.0
1029,78.0,19,30,5.0,64.0
1030,79.0,5,90,4.0,64.0
1031,79.0,13,90,6.0,64.0
1032,69.0,29,270,7.0,64.0
1033,79.0,1,90,5.0,64.0
1034,45.0,11,20,3.0,64.0
1035,81.0,11,90,2.0,64.0
1036,93.0,98,120,0.0,64.0
1037,88.0,4,90,1.0,64.0
1038,61.0,5,40,8.0,64.0
1039,76.0,4,40,6.0,64.0
1040,76.0,1,40,5.0,64.0
1041,76.0,3,40,4.0,64.0
1042,45.0,1,20,3.0,64.0
1043,62.0,10,90,8.0,64.0
1044,78.0,1,60,4.0,64.0
1045,78.0,9,90,6.0,64.0
1046,78.0,2,90,5.0,64.0
1047,45.0,5,40,3.0,64.0
1048,47.0,55,40,10.0,64.0
1049,67.0,1,40,7.0,64.0
1050,45.0,2,40,10.0,64.0
1051,66.0,53,40,7.0,64.0
1052,43.0,5,40,10.0,64.0
1053,79.0,0,40,6.0,64.0
1054,64.0,2,40,7.0,64.0
1055,64.0,42,40,8.0,64.0
1056,79.0,2,40,4.0,64.0
1057,45.0,3,30,3.0,64.0
1058,79.0,1,30,5.0,64.0
1059,81.0,7,360,6.0,64.0
1060,42.0,12,270,10.0,64.0
1061,81.0,1,360,4.0,64.0
1062,50.0,25,20,3.0,64.0
1063,66.0,24,90,8.0,64.0
1064,62.0,3,360,7.0,64.0
1065,81.0,34,360,5.0,64.0
1066,50.0,26,15,3.0,64.0
1067,50.0,24,15,3.0,64.0
1068,50.0,2,15,3.0,64.0
1069,50.0,23,15,3.0,64.0
1070,50.0,30,15,3.0,64.0
1071,50.0,23,15,3.0,64.0
1072,81.0,3,40,2.0,64.0
1073,98.0,0,40,0.0,64.0
1074,69.0,1,40,8.0,64.0
1075,90.0,14,40,1.0,64.0
1076,50.0,15,15,3.0,64.0
1077,50.0,22,15,3.0,64.0
1078,50.0,20,15,3.0,64.0
1079,69.0,21,60,8.0,64.0
1080,81.0,4,60,2.0,64.0
1081,98.0,1,60,0.0,64.0
1082,90.0,1,60,1.0,64.0
1083,50.0,19,15,3.0,64.0
1084,50.0,1,15,3.0,64.0
1085,43.0,7,40,10.0,64.0
1086,50.0,8,15,3.0,64.0
1087,50.0,3,15,3.0,64.0
1088,42.0,12,40,10.0,64.0
1089,50.0,29,30,3.0,64.0
1090,78.0,0,40,2.0,64.0
1091,66.0,1,30,8.0,64.0
1092,72.0,4,30,4.0,64.0
1093,72.0,2,40,6.0,64.0
1094,40.0,1,40,10.0,64.0
1095,50.0,9,15,3.0,64.0
1096,57.0,39,60,7.0,64.0
1097,93.0,1,40,0.0,64.0
1098,72.0,8,30,5.0,64.0
1099,86.0,2,40,1.0,64.0
1100,50.0,8,20,3.0,64.0
1101,74.0,11,40,6.0,64.0
1102,74.0,3,40,4.0,64.0
1103,38.0,8,90,10.0,64.0
1104,66.0,0,150,8.0,64.0
1105,78.0,2,90,2.0,64.0
1106,74.0,2,40,5.0,64.0
1107,69.0,0,90,7.0,64.0
1108,86.0,2,90,1.0,64.0
1109,50.0,4,20,3.0,64.0
1110,93.0,0,90,0.0,64.0
1111,72.0,10,20,6.0,64.0
1112,72.0,2,20,4.0,64.0
1113,72.0,14,20,5.0,64.0
1114,74.0,5,30,4.0,64.0
1115,74.0,6,30,6.0,64.0
1116,74.0,1,20,5.0,64.0
1117,72.0,2,30,4.0,64.0
1118,72.0,3,30,6.0,64.0
1119,72.0,2,20,5.0,64.0
1120,74.0,6,15,4.0,64.0
1121,74.0,9,15,6.0,64.0
1122,72.0,3,15,4.0,64.0
1123,74.0,11,20,5.0,64.0
1124,72.0,7,15,6.0,64.0
1125,72.0,12,20,5.0,64.0
1126,74.0,0,30,4.0,64.0
1127,74.0,13,30,6.0,64.0
1128,72.0,3,30,4.0,64.0
1129,72.0,2,30,6.0,64.0
1130,74.0,3,15,5.0,64.0
1131,72.0,29,20,5.0,64.0
1132,67.0,1,40,7.0,64.0
1133,71.0,3,40,6.0,64.0
1134,71.0,3,40,4.0,64.0
1135,71.0,0,40,5.0,64.0
1136,40.0,15,40,10.0,64.0
1137,50.0,1,30,3.0,64.0
1138,72.0,3,40,6.0,64.0
1139,72.0,48,30,4.0,64.0
1140,72.0,1,30,5.0,64.0
1141,74.0,114,90,6.0,64.0
1142,69.0,2,90,7.0,64.0
1143,74.0,2,90,4.0,64.0
1144,42.0,7,90,10.0,64.0
1145,74.0,2,90,5.0,64.0
1146,62.0,88,360,8.0,64.0
1147,50.0,33,30,3.0,64.0
1148,69.0,4,40,6.0,64.0
1149,66.0,0,40,7.0,64.0
1150,50.0,4,30,3.0,64.0
1151,69.0,1,30,4.0,64.0
1152,69.0,7,40,5.0,64.0
1153,38.0,83,30,10.0,64.0
1154,67.0,23,120,7.0,64.0
1155,71.0,60,270,5.0,64.0
1156,71.0,3,270,6.0,64.0
1157,71.0,0,270,4.0,64.0
1158,50.0,37,60,3.0,64.0
1159,43.0,14,420,10.0,64.0
1160,66.0,12,40,7.0,64.0
1161,62.0,47,40,8.0,64.0
1162,67.0,1,90,7.0,64.0
1163,64.0,1,90,8.0,64.0
1164,69.0,5,40,6.0,64.0
1165,69.0,1,40,5.0,64.0
1166,69.0,41,40,4.0,64.0
1167,67.0,8,40,6.0,64.0
1168,67.0,1,40,5.0,64.0
1169,67.0,42,30,4.0,64.0
1170,66.0,5,40,6.0,64.0
1171,66.0,57,40,5.0,64.0
1172,69.0,0,40,7.0,64.0
1173,66.0,3,40,8.0,64.0
1174,66.0,0,40,4.0,64.0
1175,64.0,8,40,6.0,64.0
1176,71.0,54,120,7.0,64.0
1177,67.0,6,90,8.0,64.0
1178,64.0,46,40,5.0,64.0
1179,64.0,2,40,4.0,64.0
1180,55.0,24,720,10.0,64.0
1181,66.0,0,40,6.0,64.0
1182,66.0,5,40,4.0,64.0
1183,66.0,3,40,5.0,64.0
1184,67.0,9,40,6.0,64.0
1185,67.0,5,60,4.0,64.0
1186,67.0,43,60,5.0,64.0
1187,73.0,0,40,7.0,64.0
1188,64.0,3,40,8.0,64.0
1189,69.0,0,40,6.0,64.0
1190,69.0,4,40,4.0,64.0
1191,69.0,62,40,5.0,64.0
1192,71.0,1,60,6.0,64.0
1193,74.0,8,90,7.0,64.0
1194,66.0,13,90,8.0,64.0
1195,71.0,0,60,4.0,64.0
1196,71.0,29,40,5.0,64.0
1197,73.0,1,40,4.0,64.0
1198,73.0,3,40,6.0,64.0
1199,73.0,54,40,5.0,64.0
1200,74.0,9,60,6.0,64.0
1201,74.0,6,40,4.0,64.0
1202,74.0,32,60,5.0,64.0
1203,76.0,10,40,7.0,64.0
1204,71.0,4,40,6.0,64.0
1205,71.0,3,40,4.0,64.0
1206,71.0,1,40,5.0,64.0
1207,67.0,47,40,8.0,64.0
1208,73.0,2,60,6.0,64.0
1209,69.0,5,90,7.0,64.0
1210,73.0,3,40,4.0,64.0
1211,64.0,22,120,8.0,64.0
1212,73.0,1,40,5.0,64.0
1213,45.0,14,20,3.0,64.0
1214,45.0,29,15,3.0,64.0
1215,74.0,0,40,6.0,64.0
1216,74.0,1,60,4.0,64.0
1217,74.0,4,40,5.0,64.0
1218,45.0,15,20,3.0,64.0
1219,45.0,0,15,3.0,64.0
1220,45.0,21,15,3.0,64.0
1221,73.0,3,40,6.0,64.0
1222,73.0,7,40,4.0,64.0
1223,73.0,10,60,5.0,64.0
1224,45.0,10,15,3.0,64.0
1225,45.0,25,15,3.0,64.0
1226,71.0,3,40,6.0,64.0
1227,71.0,2,40,4.0,64.0
1228,64.0,2,40,7.0,64.0
1229,88.0,36,40,0.0,64.0
1230,81.0,0,40,1.0,64.0
1231,69.0,0,40,8.0,64.0
1232,71.0,1,40,5.0,64.0
1233,45.0,8,20,3.0,64.0
1234,45.0,3,30,3.0,64.0
1235,69.0,15,60,4.0,64.0
1236,69.0,5,60,6.0,64.0
1237,69.0,5,90,8.0,64.0
1238,61.0,7,90,7.0,64.0
1239,81.0,3,90,1.0,64.0
1240,69.0,1,40,5.0,64.0
1241,88.0,5,60,0.0,64.0
1242,45.0,6,15,3.0,64.0
1243,71.0,23,60,4.0,64.0
1244,71.0,1,40,6.0,64.0
1245,54.0,7,40,10.0,64.0
1246,71.0,5,40,5.0,64.0
1247,45.0,0,15,3.0,64.0
1248,45.0,3,15,3.0,64.0
1249,73.0,2,40,4.0,64.0
1250,52.0,4,40,10.0,64.0
1251,73.0,3,40,6.0,64.0
1252,45.0,22,15,3.0,64.0
1253,73.0,21,40,5.0,64.0
1254,45.0,5,15,3.0,64.0
1255,45.0,22,20,3.0,64.0
1256,74.0,0,60,4.0,64.0
1257,50.0,1,40,10.0,64.0
1258,74.0,4,40,6.0,64.0
1259,93.0,6,40,0.0,64.0
1260,64.0,0,40,8.0,64.0
1261,57.0,21,40,7.0,64.0
1262,88.0,0,40,1.0,64.0
1263,74.0,1,40,5.0,64.0
1264,45.0,2,15,3.0,64.0
1265,45.0,37,20,3.0,64.0
1266,76.0,0,60,4.0,64.0
1267,76.0,19,60,6.0,64.0
1268,64.0,7,90,8.0,64.0
1269,49.0,61,90,10.0,64.0
1270,93.0,8,60,0.0,64.0
1271,76.0,4,40,5.0,64.0
1272,69.0,5,90,7.0,64.0
1273,88.0,8,60,1.0,64.0
1274,45.0,5,30,3.0,64.0
1275,78.0,1,40,4.0,64.0
1276,78.0,1,40,6.0,64.0
1277,78.0,1,40,5.0,64.0
1278,79.0,2,60,4.0,64.0
1279,79.0,39,60,6.0,64.0
1280,79.0,1,40,5.0,64.0
1281,45.0,2,40,10.0,64.0
1282,61.0,2,40,8.0,64.0
1283,93.0,5,40,0.0,64.0
1284,81.0,0,40,2.0,64.0
1285,81.0,1,40,4.0,64.0
1286,66.0,47,60,7.0,64.0
1287,81.0,2,40,6.0,64.0
1288,45.0,5,30,3.0,64.0
1289,90.0,0,40,1.0,64.0
1290,81.0,2,40,5.0,64.0
1291,47.0,6,90,10.0,64.0
1292,79.0,3,60,4.0,64.0
1293,62.0,5,90,8.0,64.0
1294,91.0,2,60,0.0,64.0
1295,50.0,19,40,3.0,64.0
1296,79.0,1,60,6.0,64.0
1297,90.0,2,60,1.0,64.0
1298,74.0,5,60,2.0,64.0
1299,62.0,6,60,7.0,64.0
1300,79.0,12,60,5.0,64.0
1301,78.0,8,40,4.0,64.0
1302,78.0,2,40,6.0,64.0
1303,78.0,54,40,5.0,64.0
1304,79.0,3,40,4.0,64.0
1305,79.0,3,40,6.0,64.0
1306,79.0,39,40,5.0,64.0
1307,69.0,2,40,7.0,64.0
1308,76.0,2,60,4.0,64.0
1309,93.0,1,40,0.0,64.0
1310,64.0,2,30,8.0,64.0
1311,76.0,62,60,6.0,64.0
1312,81.0,0,40,2.0,64.0
1313,88.0,6,30,1.0,64.0
1314,49.0,3,40,10.0,64.0
1315,76.0,7,40,5.0,64.0
1316,45.0,1,20,3.0,64.0
1317,90.0,25,90,0.0,64.0
1318,78.0,7,120,4.0,64.0
1319,62.0,3,360,8.0,64.0
1320,78.0,0,120,6.0,64.0
1321,69.0,1,330,7.0,64.0
1322,81.0,1,90,1.0,64.0
1323,50.0,25,40,3.0,64.0
1324,50.0,5,90,10.0,64.0
1325,86.0,5,90,2.0,64.0
1326,78.0,97,120,5.0,64.0
1327,52.0,7,40,10.0,64.0
1328,91.0,6,40,0.0,64.0
1329,79.0,4,40,4.0,64.0
1330,79.0,0,40,6.0,64.0
1331,79.0,96,40,5.0,64.0
1332,54.0,7,90,10.0,64.0
1333,93.0,1,90,0.0,64.0
1334,81.0,6,90,4.0,64.0
1335,81.0,111,90,6.0,64.0
1336,81.0,2,90,5.0,64.0
1337,55.0,7,40,10.0,64.0
1338,95.0,1,40,0.0,64.0
1339,83.0,2,40,6.0,64.0
1340,67.0,5,40,7.0,64.0
1341,83.0,1,40,5.0,64.0
1342,62.0,66,60,8.0,64.0
1343,83.0,0,40,4.0,64.0
1344,93.0,3,90,2.0,64.0
1345,64.0,40,120,7.0,64.0
1346,88.0,5,90,0.0,64.0
1347,69.0,1,90,8.0,64.0
1348,57.0,5,60,10.0,64.0
1349,81.0,3,120,1.0,64.0
1350,73.0,1,120,5.0,64.0
1351,73.0,10,120,4.0,64.0
1352,45.0,34,60,3.0,64.0
1353,73.0,1,120,6.0,64.0
1354,59.0,10,40,10.0,64.0
1355,57.0,49,40,10.0,64.0
1356,74.0,2,60,6.0,64.0
1357,93.0,2,40,0.0,64.0
1358,55.0,1,60,10.0,64.0
1359,74.0,0,40,4.0,64.0
1360,74.0,3,40,5.0,64.0
1361,69.0,2,30,8.0,64.0
1362,66.0,63,40,7.0,64.0
1363,86.0,9,90,0.0,64.0
1364,54.0,5,60,10.0,64.0
1365,69.0,2,90,8.0,64.0
1366,76.0,0,40,6.0,64.0
1367,76.0,6,60,5.0,64.0
1368,76.0,2,60,4.0,64.0
1369,66.0,4,90,7.0,64.0
1370,74.0,7,20,6.0,64.0
1371,74.0,5,20,5.0,64.0
1372,74.0,8,20,4.0,64.0
1373,55.0,7,60,10.0,64.0
1374,76.0,2,30,6.0,64.0
1375,76.0,5,20,5.0,64.0
1376,76.0,2,20,4.0,64.0
1377,74.0,3,30,6.0,64.0
1378,74.0,5,20,5.0,64.0
1379,74.0,7,20,4.0,64.0
1380,76.0,1,20,6.0,64.0
1381,76.0,11,15,5.0,64.0
1382,57.0,6,40,10.0,64.0
1383,74.0,4,20,6.0,64.0
1384,76.0,3,20,4.0,64.0
1385,74.0,3,15,5.0,64.0
1386,74.0,9,15,4.0,64.0
1387,76.0,0,30,6.0,64.0
1388,77.0,5,15,6.0,64.0
1389,76.0,8,30,5.0,64.0
1390,76.0,4,30,4.0,64.0
1391,74.0,5,30,6.0,64.0
1392,74.0,5,30,5.0,64.0
1393,74.0,18,20,4.0,64.0
1394,93.0,3,40,0.0,64.0
1395,59.0,7,40,10.0,64.0
1396,73.0,5,30,6.0,64.0
1397,73.0,5,30,5.0,64.0
1398,73.0,3,30,4.0,64.0
1399,66.0,1,30,8.0,64.0
1400,62.0,9,40,7.0,64.0
1401,74.0,75,40,6.0,64.0
1402,74.0,0,30,5.0,64.0
1403,74.0,1,30,4.0,64.0
1404,76.0,2,90,4.0,64.0
1405,76.0,4,120,6.0,64.0
1406,76.0,3,90,5.0,64.0
1407,61.0,19,60,10.0,64.0
1408,64.0,62,90,8.0,64.0
1409,81.0,3,90,0.0,64.0
1410,69.0,42,330,7.0,64.0
1411,59.0,2,40,10.0,64.0
1412,57.0,39,40,10.0,64.0
1413,69.0,3,40,6.0,64.0
1414,69.0,9,40,4.0,64.0
1415,69.0,1,40,5.0,64.0
1416,59.0,9,40,10.0,64.0
1417,62.0,0,40,8.0,64.0
1418,93.0,0,40,0.0,64.0
1419,81.0,2,40,2.0,64.0
1420,45.0,1,30,3.0,64.0
1421,88.0,54,40,1.0,64.0
1422,79.0,2,90,6.0,64.0
1423,79.0,3,90,4.0,64.0
1424,61.0,19,40,10.0,64.0
1425,64.0,1,60,8.0,64.0
1426,79.0,0,90,5.0,64.0
1427,91.0,3,90,0.0,64.0
1428,81.0,2,60,2.0,64.0
1429,88.0,11,60,1.0,64.0
1430,45.0,11,60,3.0,64.0
1431,62.0,10,40,10.0,64.0
1432,64.0,21,40,10.0,64.0
1433,78.0,11,40,6.0,64.0
1434,78.0,2,30,5.0,64.0
1435,78.0,20,30,4.0,64.0
1436,76.0,0,40,6.0,64.0
1437,93.0,6,40,0.0,64.0
1438,61.0,4,40,10.0,64.0
1439,57.0,6,60,8.0,64.0
1440,76.0,2,40,5.0,64.0
1441,81.0,4,40,2.0,64.0
1442,76.0,1,40,4.0,64.0
1443,69.0,2,40,7.0,64.0
1444,88.0,3,40,1.0,64.0
1445,45.0,0,30,3.0,64.0
1446,78.0,5,40,6.0,64.0
1447,78.0,57,40,5.0,64.0
1448,78.0,2,30,4.0,64.0
1449,62.0,3,150,10.0,64.0
1450,79.0,4,60,5.0,64.0
1451,90.0,2,90,0.0,64.0
1452,79.0,12,60,6.0,64.0
1453,79.0,1,60,4.0,64.0
1454,69.0,13,150,7.0,64.0
1455,69.0,8,180,8.0,64.0
1456,81.0,4,90,2.0,64.0
1457,50.0,4,40,3.0,64.0
1458,86.0,5,90,1.0,64.0
1459,78.0,4,20,4.0,64.0
1460,78.0,4,30,5.0,64.0
1461,78.0,8,30,6.0,64.0
1462,79.0,4,20,4.0,64.0
1463,79.0,6,20,5.0,64.0
1464,79.0,7,30,6.0,64.0
1465,78.0,3,20,4.0,64.0
1466,78.0,5,20,5.0,64.0
1467,78.0,6,15,6.0,64.0
1468,79.0,1,20,4.0,64.0
1469,79.0,6,20,5.0,64.0
1470,79.0,4,30,6.0,64.0
1471,78.0,3,15,4.0,64.0
1472,78.0,4,15,5.0,64.0
1473,78.0,9,20,6.0,64.0
1474,79.0,1,20,4.0,64.0
1475,79.0,10,20,5.0,64.0
1476,79.0,4,20,6.0,64.0
1477,86.0,5,40,2.0,64.0
1478,74.0,3,30,7.0,64.0
1479,93.0,1,40,0.0,64.0
1480,78.0,5,20,4.0,64.0
1481,90.0,10,40,1.0,64.0
1482,78.0,2,20,5.0,64.0
1483,50.0,0,30,3.0,64.0
1484,78.0,3,20,6.0,64.0
1485,73.0,3,30,7.0,64.0
1486,79.0,0,30,4.0,64.0
1487,79.0,11,30,5.0,64.0
1488,79.0,47,30,6.0,64.0
1489,78.0,3,120,4.0,64.0
1490,78.0,36,120,5.0,64.0
1491,78.0,5,90,6.0,64.0
1492,74.0,4,90,7.0,64.0
1493,69.0,44,150,8.0,64.0
1494,50.0,14,150,10.0,64.0
1495,90.0,6,60,2.0,64.0
1496,93.0,0,90,1.0,64.0
1497,50.0,28,40,3.0,64.0
1498,98.0,9,60,0.0,64.0
1499,76.0,0,30,5.0,64.0
1500,76.0,1,30,6.0,64.0
1501,76.0,14,30,4.0,64.0
1502,76.0,4,40,7.0,64.0
1503,95.0,13,40,0.0,64.0
1504,86.0,2,30,2.0,64.0
1505,92.0,53,40,1.0,64.0
1506,50.0,0,30,3.0,64.0
1507,76.0,52,750,6.0,64.0
1508,76.0,3,510,5.0,64.0
1509,76.0,8,510,4.0,64.0
1510,73.0,9,720,7.0,64.0
1511,69.0,18,720,8.0,64.0
1512,45.0,14,120,10.0,64.0
1513,97.0,15,480,0.0,64.0
1514,88.0,1,480,2.0,64.0
1515,93.0,44,510,1.0,64.0
1516,45.0,18,20,3.0,64.0
1517,45.0,45,15,3.0,64.0
1518,45.0,32,30,3.0,64.0
1519,45.0,30,40,3.0,64.0
1520,45.0,21,15,3.0,64.0
1521,57.0,19,40,10.0,64.0
1522,45.0,13,20,3.0,64.0
1523,45.0,20,15,3.0,64.0
1524,57.0,38,90,10.0,64.0
1525,45.0,30,20,3.0,64.0
1526,45.0,21,15,3.0,64.0
1527,45.0,13,15,3.0,64.0
1528,45.0,45,40,3.0,64.0
1529,45.0,23,40,3.0,64.0
1530,45.0,30,20,3.0,64.0
1531,52.0,8,30,10.0,64.0
1532,45.0,30,40,3.0,64.0
1533,52.0,126,90,10.0,64.0
1534,45.0,0,15,3.0,64.0
1535,49.0,32,40,10.0,64.0
1536,49.0,146,90,10.0,64.0
1537,45.0,31,60,10.0,64.0
1538,62.0,9,270,4.0,64.0
1539,50.0,23,20,3.0,64.0
1540,62.0,7,270,5.0,64.0
1541,90.0,19,120,1.0,64.0
1542,81.0,5,120,0.0,64.0
1543,62.0,2,240,6.0,64.0
1544,50.0,19,2190,10.0,64.0
1545,86.0,4,90,2.0,64.0
1546,50.0,27,15,3.0,64.0
1547,50.0,24,20,3.0,64.0
1548,50.0,13,15,3.0,64.0
1549,50.0,13,15,3.0,64.0
1550,50.0,20,15,3.0,64.0
1551,50.0,33,15,3.0,64.0
1552,50.0,19,15,3.0,64.0
1553,69.0,3,30,7.0,64.0
1554,50.0,32,15,3.0,64.0
1555,50.0,2,20,3.0,64.0
1556,69.0,17,60,7.0,64.0
1557,50.0,30,15,3.0,64.0
1558,66.0,2,40,4.0,64.0
1559,50.0,5,15,3.0,64.0
1560,66.0,3,40,6.0,64.0
1561,66.0,24,30,5.0,64.0
1562,50.0,1,15,3.0,64.0
1563,50.0,29,15,3.0,64.0
1564,64.0,2,40,4.0,64.0
1565,64.0,6,40,6.0,64.0
1566,64.0,19,30,5.0,64.0
1567,50.0,0,15,3.0,64.0
1568,50.0,28,20,3.0,64.0
1569,62.0,3,40,6.0,64.0
1570,62.0,4,40,4.0,64.0
1571,66.0,0,30,7.0,64.0
1572,62.0,12,30,5.0,64.0
1573,50.0,1,15,3.0,64.0
1574,69.0,30,30,8.0,64.0
1575,50.0,1,15,3.0,64.0
1576,69.0,4,60,8.0,64.0
1577,90.0,16,120,1.0,64.0
1578,86.0,10,90,2.0,64.0
1579,71.0,3,270,6.0,64.0
1580,71.0,5,270,4.0,64.0
1581,66.0,20,60,7.0,64.0
1582,50.0,22,15,3.0,64.0
1583,71.0,16,270,5.0,64.0
1584,81.0,5,120,0.0,64.0
1585,50.0,30,15,3.0,64.0
1586,50.0,0,15,3.0,64.0
1587,50.0,15,15,3.0,64.0
1588,50.0,6,15,3.0,64.0
1589,50.0,23,15,3.0,64.0
1590,50.0,26,15,3.0,64.0
1591,62.0,8,40,7.0,64.0
1592,50.0,17,15,3.0,64.0
1593,66.0,14,30,8.0,64.0
1594,50.0,11,15,3.0,64.0
1595,50.0,26,15,3.0,64.0
1596,62.0,16,60,7.0,64.0
1597,66.0,2,60,8.0,64.0
1598,50.0,2,15,3.0,64.0
1599,50.0,7,15,3.0,64.0
1600,74.0,0,30,6.0,64.0
1601,74.0,9,30,4.0,64.0
1602,50.0,19,15,3.0,64.0
1603,74.0,26,40,5.0,64.0
1604,50.0,3,15,3.0,64.0
1605,50.0,19,15,3.0,64.0
1606,73.0,2,30,6.0,64.0
1607,73.0,2,40,4.0,64.0
1608,73.0,25,40,5.0,64.0
1609,50.0,5,15,3.0,64.0
1610,71.0,2,30,7.0,64.0
1611,50.0,16,15,3.0,64.0
1612,71.0,15,40,6.0,64.0
1613,71.0,8,60,4.0,64.0
1614,62.0,0,40,8.0,64.0
1615,71.0,1,40,5.0,64.0
1616,50.0,8,15,3.0,64.0
1617,50.0,23,15,3.0,64.0
1618,62.0,1,90,8.0,64.0
1619,71.0,6,60,7.0,64.0
1620,50.0,26,15,3.0,64.0
1621,79.0,1,270,5.0,64.0
1622,86.0,19,90,2.0,64.0
1623,79.0,0,270,6.0,64.0
1624,91.0,15,120,1.0,64.0
1625,79.0,7,270,4.0,64.0
1626,83.0,4,120,0.0,64.0
1627,50.0,21,15,3.0,64.0
1628,50.0,22,15,3.0,64.0
1629,50.0,7,15,3.0,64.0
1630,50.0,5,15,3.0,64.0
1631,50.0,26,15,3.0,64.0
1632,50.0,23,15,3.0,64.0
1633,50.0,24,15,3.0,64.0
1634,67.0,3,30,7.0,64.0
1635,71.0,19,30,8.0,64.0
1636,50.0,8,15,3.0,64.0
1637,50.0,14,15,3.0,64.0
1638,71.0,10,60,8.0,64.0
1639,67.0,12,60,7.0,64.0
1640,50.0,30,15,3.0,64.0
1641,50.0,2,15,3.0,64.0
1642,76.0,1,30,6.0,64.0
1643,76.0,0,40,5.0,64.0
1644,76.0,13,40,4.0,64.0
1645,50.0,13,15,3.0,64.0
1646,50.0,23,15,3.0,64.0
1647,78.0,5,40,6.0,64.0
1648,78.0,1,30,5.0,64.0
1649,78.0,10,30,4.0,64.0
1650,50.0,11,15,3.0,64.0
1651,50.0,22,15,3.0,64.0
1652,79.0,0,40,6.0,64.0
1653,79.0,2,40,5.0,64.0
1654,50.0,22,15,3.0,64.0
1655,64.0,6,30,7.0,64.0
1656,79.0,2,40,4.0,64.0
1657,67.0,13,30,8.0,64.0
1658,50.0,2,15,3.0,64.0
1659,50.0,51,15,3.0,64.0
1660,73.0,6,270,6.0,64.0
1661,73.0,2,270,5.0,64.0
1662,67.0,12,60,8.0,64.0
1663,88.0,12,120,1.0,64.0
1664,79.0,1,120,0.0,64.0
1665,64.0,25,60,7.0,64.0
1666,73.0,25,270,4.0,64.0
1667,81.0,8,120,2.0,64.0
1668,50.0,21,30,3.0,64.0
1669,50.0,17,30,3.0,64.0
1670,50.0,23,15,3.0,64.0
1671,50.0,29,15,3.0,64.0
1672,50.0,25,15,3.0,64.0
1673,76.0,4,40,7.0,64.0
1674,67.0,19,40,8.0,64.0
1675,50.0,2,15,3.0,64.0
1676,50.0,21,15,3.0,64.0
1677,67.0,5,60,8.0,64.0
1678,76.0,10,60,7.0,64.0
1679,50.0,0,15,3.0,64.0
1680,50.0,9,15,3.0,64.0
1681,69.0,8,30,6.0,64.0
1682,69.0,4,40,5.0,64.0
1683,69.0,16,40,4.0,64.0
1684,50.0,7,15,3.0,64.0
1685,50.0,24,20,3.0,64.0
1686,71.0,0,40,5.0,64.0
1687,71.0,5,40,6.0,64.0
1688,71.0,19,40,4.0,64.0
1689,50.0,7,20,3.0,64.0
1690,50.0,38,15,3.0,64.0
1691,73.0,2,40,5.0,64.0
1692,73.0,1,40,6.0,64.0
1693,64.0,7,40,8.0,64.0
1694,73.0,1,30,7.0,64.0
1695,73.0,2,40,4.0,64.0
1696,50.0,60,30,3.0,64.0
1697,67.0,129,60,8.0,64.0
1698,64.0,4,360,5.0,64.0
1699,73.0,1,60,7.0,64.0
1700,64.0,15,330,6.0,64.0
1701,64.0,16,360,4.0,64.0
1702,50.0,17,40,3.0,64.0
1703,50.0,19,20,3.0,64.0
1704,61.0,7,30,8.0,64.0
1705,67.0,5,40,7.0,64.0
1706,81.0,0,40,2.0,64.0
1707,88.0,1,40,1.0,64.0
1708,79.0,27,30,0.0,64.0
1709,50.0,38,20,3.0,64.0
1710,61.0,4,90,8.0,64.0
1711,67.0,4,60,7.0,64.0
1712,88.0,2,90,1.0,64.0
1713,81.0,3,60,2.0,64.0
1714,79.0,0,60,0.0,64.0
1715,50.0,1,20,3.0,64.0
1716,54.0,30,30,10.0,64.0
1717,52.0,52,40,10.0,64.0
1718,50.0,11,20,3.0,64.0
1719,50.0,7,30,10.0,64.0
1720,79.0,0,40,7.0,64.0
1721,76.0,4,40,0.0,64.0
1722,81.0,1,40,2.0,64.0
1723,93.0,3,40,1.0,64.0
1724,64.0,1,60,6.0,64.0
1725,64.0,10,40,8.0,64.0
1726,50.0,1,20,3.0,64.0
1727,64.0,63,40,5.0,64.0
1728,64.0,2,40,4.0,64.0
1729,57.0,9,60,8.0,64.0
1730,49.0,9,90,10.0,64.0
1731,93.0,3,90,1.0,64.0
1732,81.0,2,90,2.0,64.0
1733,79.0,2,60,7.0,64.0
1734,76.0,2,90,0.0,64.0
1735,76.0,4,90,6.0,64.0
1736,76.0,10,90,4.0,64.0
1737,76.0,93,90,5.0,64.0
1738,45.0,10,40,3.0,64.0
1739,76.0,7,40,7.0,64.0
1740,73.0,8,40,4.0,64.0
1741,73.0,0,40,6.0,64.0
1742,81.0,0,30,0.0,64.0
1743,69.0,2,30,8.0,64.0
1744,73.0,0,40,5.0,64.0
1745,52.0,2,40,10.0,64.0
1746,45.0,2,20,3.0,64.0
1747,81.0,78,40,2.0,64.0
1748,88.0,3,40,1.0,64.0
1749,76.0,2,60,7.0,64.0
1750,69.0,10,60,8.0,64.0
1751,69.0,6,90,4.0,64.0
1752,69.0,111,90,5.0,64.0
1753,88.0,3,90,1.0,64.0
1754,49.0,3,60,10.0,64.0
1755,69.0,5,90,6.0,64.0
1756,81.0,2,60,0.0,64.0
1757,45.0,0,60,3.0,64.0
1758,81.0,3,90,2.0,64.0
1759,81.0,4,30,2.0,64.0
1760,88.0,2,40,1.0,64.0
1761,67.0,1,40,4.0,64.0
1762,73.0,2,40,7.0,64.0
1763,69.0,2,30,8.0,64.0
1764,67.0,7,40,5.0,64.0
1765,76.0,6,40,0.0,64.0
1766,45.0,1,30,10.0,64.0
1767,45.0,1,30,3.0,64.0
1768,67.0,33,40,6.0,64.0
1769,69.0,12,600,8.0,64.0
1770,81.0,5,90,2.0,64.0
1771,66.0,10,90,4.0,64.0
1772,86.0,5,90,1.0,64.0
1773,50.0,10,480,10.0,64.0
1774,66.0,2,90,5.0,64.0
1775,74.0,7,570,7.0,64.0
1776,50.0,27,20,3.0,64.0
1777,78.0,6,90,0.0,64.0
1778,66.0,23,90,6.0,64.0
1779,50.0,23,15,3.0,64.0
1780,50.0,2,15,3.0,64.0
1781,50.0,0,15,3.0,64.0
1782,50.0,29,15,3.0,64.0
1783,50.0,24,15,3.0,64.0
1784,50.0,26,15,3.0,64.0
1785,62.0,2,40,6.0,64.0
1786,62.0,2,40,4.0,64.0
1787,86.0,5,30,2.0,64.0
1788,81.0,2,40,0.0,64.0
1789,90.0,5,40,1.0,64.0
1790,62.0,11,40,5.0,64.0
1791,50.0,1,15,3.0,64.0
1792,50.0,34,15,3.0,64.0
1793,86.0,11,60,2.0,64.0
1794,66.0,4,90,4.0,64.0
1795,90.0,2,90,1.0,64.0
1796,81.0,6,60,0.0,64.0
1797,66.0,19,90,6.0,64.0
1798,66.0,23,90,5.0,64.0
1799,50.0,22,20,3.0,64.0
1800,50.0,10,15,3.0,64.0
1801,50.0,2,15,3.0,64.0
1802,50.0,0,15,3.0,64.0
1803,50.0,27,15,3.0,64.0
1804,50.0,26,15,3.0,64.0
1805,50.0,23,15,3.0,64.0
1806,69.0,2,40,4.0,64.0
1807,78.0,4,30,0.0,64.0
1808,81.0,2,40,2.0,64.0
1809,69.0,17,40,5.0,64.0
1810,69.0,0,40,6.0,64.0
1811,86.0,6,30,1.0,64.0
1812,50.0,1,15,3.0,64.0
1813,50.0,10,15,3.0,64.0
1814,74.0,2,90,4.0,64.0
1815,81.0,2,60,2.0,64.0
1816,78.0,12,90,0.0,64.0
1817,86.0,2,90,1.0,64.0
1818,74.0,0,90,6.0,64.0
1819,74.0,0,90,5.0,64.0
1820,50.0,32,15,3.0,64.0
1821,50.0,18,15,3.0,64.0
1822,50.0,4,40,10.0,64.0
1823,50.0,2,15,3.0,64.0
1824,50.0,13,15,3.0,64.0
1825,50.0,22,15,3.0,64.0
1826,49.0,6,30,10.0,64.0
1827,50.0,27,15,3.0,64.0
1828,50.0,27,15,3.0,64.0
1829,62.0,4,40,8.0,64.0
1830,47.0,14,60,10.0,64.0
1831,69.0,2,40,5.0,64.0
1832,69.0,4,40,4.0,64.0
1833,78.0,0,40,2.0,64.0
1834,66.0,2,40,7.0,64.0
1835,74.0,1,30,0.0,64.0
1836,81.0,0,30,1.0,64.0
1837,69.0,0,40,6.0,64.0
1838,50.0,2,20,3.0,64.0
1839,50.0,28,20,3.0,64.0
1840,66.0,0,90,8.0,64.0
1841,45.0,24,40,10.0,64.0
1842,69.0,3,90,7.0,64.0
1843,81.0,1,90,1.0,64.0
1844,78.0,5,60,2.0,64.0
1845,74.0,3,90,4.0,64.0
1846,74.0,19,90,5.0,64.0
1847,74.0,3,60,0.0,64.0
1848,74.0,2,90,6.0,64.0
1849,50.0,4,15,3.0,64.0
1850,50.0,16,15,3.0,64.0
1851,43.0,5,40,10.0,64.0
1852,50.0,3,20,3.0,64.0
1853,50.0,26,15,3.0,64.0
1854,42.0,36,40,10.0,64.0
1855,50.0,12,20,3.0,64.0
1856,50.0,13,30,3.0,64.0
1857,40.0,7,30,10.0,64.0
1858,67.0,4,40,8.0,64.0
1859,76.0,0,40,4.0,64.0
1860,73.0,2,40,7.0,64.0
1861,76.0,4,40,6.0,64.0
1862,76.0,4,30,5.0,64.0
1863,74.0,1,40,2.0,64.0
1864,69.0,1,40,0.0,64.0
1865,78.0,6,40,1.0,64.0
1866,50.0,54,20,3.0,64.0
1867,69.0,0,90,8.0,64.0
1868,78.0,4,270,4.0,64.0
1869,38.0,1,450,10.0,64.0
1870,69.0,23,90,0.0,64.0
1871,78.0,17,270,5.0,64.0
1872,74.0,3,90,2.0,64.0
1873,74.0,1,90,7.0,64.0
1874,78.0,31,90,1.0,64.0
1875,78.0,7,270,6.0,64.0
1876,50.0,35,30,3.0,64.0
1877,50.0,40,15,3.0,64.0
1878,50.0,26,20,3.0,64.0
1879,69.0,4,30,0.0,64.0
1880,81.0,1,30,2.0,64.0
1881,81.0,5,30,1.0,64.0
1882,50.0,7,20,3.0,64.0
1883,78.0,8,40,7.0,64.0
1884,74.0,31,40,8.0,64.0
1885,50.0,17,30,3.0,64.0
1886,69.0,5,60,0.0,64.0
1887,81.0,4,60,2.0,64.0
1888,81.0,9,60,1.0,64.0
1889,78.0,3,60,7.0,64.0
1890,74.0,0,60,8.0,64.0
1891,79.0,10,40,4.0,64.0
1892,79.0,9,40,6.0,64.0
1893,79.0,40,40,5.0,64.0
1894,81.0,14,40,4.0,64.0
1895,81.0,42,40,5.0,64.0
1896,81.0,1,40,6.0,64.0
1897,78.0,1,40,4.0,64.0
1898,78.0,0,40,5.0,64.0
1899,66.0,4,30,0.0,64.0
1900,78.0,2,30,2.0,64.0
1901,78.0,1,30,1.0,64.0
1902,69.0,0,40,8.0,64.0
1903,74.0,12,30,7.0,64.0
1904,78.0,65,40,6.0,64.0
1905,50.0,2,20,3.0,64.0
1906,83.0,5,270,5.0,64.0
1907,83.0,33,270,4.0,64.0
1908,74.0,13,90,2.0,64.0
1909,74.0,91,120,1.0,64.0
1910,62.0,16,120,0.0,64.0
1911,74.0,30,60,7.0,64.0
1912,50.0,99,600,10.0,64.0
1913,66.0,5,60,8.0,64.0
1914,83.0,8,270,6.0,64.0
1915,50.0,12,40,3.0,64.0
1916,71.0,14,30,7.0,64.0
1917,62.0,31,40,8.0,64.0
1918,71.0,4,60,7.0,64.0
1919,62.0,24,60,8.0,64.0
1920,80.0,1,40,5.0,64.0
1921,80.0,1,30,4.0,64.0
1922,80.0,59,30,6.0,64.0
1923,81.0,1,40,5.0,64.0
1924,81.0,3,30,4.0,64.0
1925,81.0,48,40,6.0,64.0
1926,83.0,1,40,5.0,64.0
1927,83.0,6,30,4.0,64.0
1928,68.0,4,40,7.0,64.0
1929,83.0,1,40,6.0,64.0
1930,59.0,94,40,8.0,64.0
1931,76.0,0,270,5.0,64.0
1932,68.0,2,90,7.0,64.0
1933,76.0,36,270,4.0,64.0
1934,59.0,38,90,8.0,64.0
1935,76.0,12,270,6.0,64.0
1936,71.0,0,30,7.0,64.0
1937,50.0,37,40,10.0,64.0
1938,56.0,10,30,8.0,64.0
1939,56.0,11,90,8.0,64.0
1940,71.0,3,60,7.0,64.0
1941,49.0,19,90,10.0,64.0
1942,76.0,2,40,5.0,64.0
1943,76.0,3,40,4.0,64.0
1944,76.0,55,40,6.0,64.0
1945,78.0,1,40,5.0,64.0
1946,78.0,3,40,4.0,64.0
1947,78.0,41,40,6.0,64.0
1948,68.0,6,30,7.0,64.0
1949,80.0,2,40,5.0,64.0
1950,59.0,0,40,8.0,64.0
1951,80.0,4,30,4.0,64.0
1952,47.0,109,40,10.0,64.0
1953,80.0,5,40,6.0,64.0
1954,64.0,56,180,8.0,64.0
1955,81.0,5,90,5.0,64.0
1956,49.0,21,150,10.0,64.0
1957,81.0,4,90,4.0,64.0
1958,64.0,0,150,7.0,64.0
1959,81.0,38,90,6.0,64.0
1960,76.0,3,40,5.0,64.0
1961,76.0,8,40,4.0,64.0
1962,76.0,107,40,6.0,64.0
1963,66.0,55,180,8.0,64.0
1964,73.0,5,90,5.0,64.0
1965,54.0,14,150,10.0,64.0
1966,69.0,51,360,7.0,64.0
1967,73.0,6,90,4.0,64.0
1968,73.0,40,90,6.0,64.0
1969,69.0,9,30,5.0,64.0
1970,69.0,3,40,4.0,64.0
1971,69.0,61,40,6.0,64.0
1972,66.0,3,120,8.0,64.0
1973,47.0,58,40,10.0,64.0
1974,74.0,34,360,5.0,64.0
1975,74.0,11,360,4.0,64.0
1976,74.0,2,330,6.0,64.0
1977,49.0,9,40,10.0,64.0
1978,50.0,56,40,10.0,64.0
1979,52.0,4,40,10.0,64.0
1980,64.0,1,40,8.0,64.0
1981,68.0,57,40,7.0,64.0
1982,54.0,38,40,10.0,64.0
1983,62.0,0,90,8.0,64.0
1984,69.0,17,90,7.0,64.0
1985,56.0,17,40,10.0,64.0
1986,57.0,42,40,10.0,64.0
1987,71.0,4,40,7.0,64.0
1988,54.0,6,40,10.0,64.0
1989,74.0,7,30,4.0,64.0
1990,74.0,1,40,6.0,64.0
1991,74.0,1,30,5.0,64.0
1992,61.0,103,40,8.0,64.0
1993,64.0,3,150,7.0,64.0
1994,59.0,0,150,8.0,64.0
1995,74.0,2,150,4.0,64.0
1996,74.0,7,120,6.0,64.0
1997,74.0,17,150,5.0,64.0
1998,57.0,27,60,10.0,64.0
1999,56.0,18,40,10.0,64.0
2000,57.0,0,30,10.0,64.0
2001,56.0,30,20,10.0,64.0
2002,57.0,11,30,10.0,64.0
2003,76.0,2,30,6.0,64.0
2004,76.0,2,30,4.0,64.0
2005,76.0,17,30,5.0,64.0
2006,56.0,1,20,10.0,64.0
2007,78.0,2,30,6.0,64.0
2008,78.0,0,30,4.0,64.0
2009,78.0,1,30,5.0,64.0
2010,57.0,18,30,10.0,64.0
2011,56.0,27,20,10.0,64.0
2012,64.0,16,210,8.0,64.0
2013,71.0,1,150,7.0,64.0
2014,76.0,6,90,6.0,64.0
2015,76.0,3,120,5.0,64.0
2016,76.0,10,90,4.0,64.0
2017,57.0,14,30,10.0,64.0
2018,56.0,28,20,10.0,64.0
2019,57.0,20,30,10.0,64.0
2020,56.0,2,20,10.0,64.0
2021,57.0,21,20,10.0,64.0
2022,56.0,17,20,10.0,64.0
2023,57.0,20,20,10.0,64.0
2024,56.0,19,30,10.0,64.0
2025,54.0,5,40,10.0,64.0
2026,74.0,6,40,5.0,64.0
2027,74.0,6,40,4.0,64.0
2028,74.0,0,40,6.0,64.0
2029,56.0,114,30,10.0,64.0
2030,57.0,55,1020,10.0,64.0
2031,73.0,9,120,5.0,64.0
2032,73.0,1,120,4.0,64.0
2033,64.0,102,120,8.0,64.0
2034,69.0,4,90,7.0,64.0
2035,73.0,0,90,6.0,64.0
2036,69.0,3,40,5.0,64.0
2037,69.0,10,40,6.0,64.0
2038,69.0,1,40,4.0,64.0
2039,64.0,2,40,7.0,64.0
2040,61.0,95,40,8.0,64.0
2041,73.0,1,90,5.0,64.0
2042,73.0,117,90,4.0,64.0
2043,69.0,2,90,7.0,64.0
2044,73.0,5,90,6.0,64.0
2045,64.0,4,90,8.0,64.0
2046,76.0,2,40,4.0,64.0
2047,76.0,2,40,5.0,64.0
2048,71.0,2,40,7.0,64.0
2049,67.0,104,40,8.0,64.0
2050,76.0,9,40,6.0,64.0
2051,81.0,6,150,4.0,64.0
2052,66.0,49,90,8.0,64.0
2053,72.0,3,330,7.0,64.0
2054,81.0,4,150,5.0,64.0
2055,81.0,56,150,6.0,64.0
2056,79.0,2,30,5.0,64.0
2057,79.0,12,40,4.0,64.0
2058,79.0,5,30,6.0,64.0
2059,63.0,3,40,8.0,64.0
2060,78.0,2,30,5.0,64.0
2061,78.0,0,30,6.0,64.0
2062,78.0,93,30,4.0,64.0
2063,79.0,2,90,5.0,64.0
2064,64.0,9,90,8.0,64.0
2065,79.0,109,90,6.0,64.0
2066,79.0,8,90,4.0,64.0
2067,76.0,3,40,4.0,64.0
2068,72.0,5,40,7.0,64.0
2069,67.0,10,40,8.0,64.0
2070,76.0,0,40,5.0,64.0
2071,76.0,55,40,6.0,64.0
2072,83.0,12,360,4.0,64.0
2073,63.0,56,150,7.0,64.0
2074,83.0,28,360,5.0,64.0
2075,66.0,7,150,8.0,64.0
2076,83.0,23,300,6.0,64.0
2077,55.0,41,40,10.0,64.0
2078,54.0,6,40,10.0,64.0
2079,52.0,65,40,10.0,64.0
2080,51.0,34,40,10.0,64.0
2081,66.0,25,180,7.0,64.0
2082,71.0,5,330,8.0,64.0
2083,49.0,11,40,10.0,64.0
2084,47.0,34,40,10.0,64.0
2085,75.0,10,40,4.0,64.0
2086,45.0,112,40,10.0,64.0
2087,75.0,2,40,6.0,64.0
2088,75.0,1,40,5.0,64.0
2089,76.0,0,120,4.0,64.0
2090,76.0,82,120,6.0,64.0
2091,76.0,4,120,5.0,64.0
2092,43.0,4,90,10.0,64.0
2093,71.0,15,90,7.0,64.0
2094,78.0,4,30,5.0,64.0
2095,43.0,0,40,10.0,64.0
2096,78.0,3,40,4.0,64.0
2097,78.0,3,40,6.0,64.0
2098,64.0,5,30,8.0,64.0
2099,71.0,58,40,7.0,64.0
2100,64.0,0,120,8.0,64.0
2101,79.0,8,40,5.0,64.0
2102,45.0,6,90,10.0,64.0
2103,79.0,7,60,4.0,64.0
2104,72.0,1,60,7.0,64.0
2105,79.0,4,60,6.0,64.0
2106,78.0,7,20,5.0,64.0
2107,78.0,8,30,4.0,64.0
2108,78.0,5,30,6.0,64.0
2109,79.0,8,30,5.0,64.0
2110,79.0,9,30,4.0,64.0
2111,79.0,11,30,6.0,64.0
2112,78.0,0,20,5.0,64.0
2113,78.0,7,20,4.0,64.0
2114,78.0,25,20,6.0,64.0
2115,79.0,1,40,5.0,64.0
2116,79.0,6,30,4.0,64.0
2117,79.0,16,40,6.0,64.0
2118,78.0,5,40,5.0,64.0
2119,78.0,0,40,4.0,64.0
2120,78.0,32,30,6.0,64.0
2121,76.0,3,40,5.0,64.0
2122,76.0,2,40,4.0,64.0
2123,76.0,3,40,6.0,64.0
2124,47.0,0,40,10.0,64.0
2125,71.0,6,40,7.0,64.0
2126,63.0,7,40,8.0,64.0
2127,78.0,0,30,5.0,64.0
2128,78.0,99,30,4.0,64.0
2129,78.0,1,30,6.0,64.0
2130,79.0,3,270,5.0,64.0
2131,40.0,5,450,10.0,64.0
2132,79.0,60,270,6.0,64.0
2133,64.0,120,120,8.0,64.0
2134,79.0,4,240,4.0,64.0
2135,71.0,15,90,7.0,64.0
2136,71.0,6,40,8.0,64.0
2137,76.0,25,40,7.0,64.0
2138,71.0,53,90,8.0,64.0
2139,76.0,1,90,7.0,64.0
2140,78.0,4,40,4.0,64.0
2141,78.0,5,30,6.0,64.0
2142,78.0,2,30,5.0,64.0
2143,76.0,2,40,5.0,64.0
2144,76.0,13,40,6.0,64.0
2145,76.0,35,60,4.0,64.0
2146,74.0,6,40,5.0,64.0
2147,74.0,4,40,6.0,64.0
2148,74.0,3,40,4.0,64.0
2149,71.0,4,30,7.0,64.0
2150,67.0,110,30,8.0,64.0
2151,72.0,122,120,5.0,64.0
2152,72.0,7,90,4.0,64.0
2153,52.0,80,630,10.0,64.0
2154,72.0,1,90,6.0,64.0
2155,67.0,1,330,7.0,64.0
2156,64.0,116,330,8.0,64.0
2157,72.0,5,40,5.0,64.0
2158,72.0,100,40,6.0,64.0
2159,72.0,3,40,4.0,64.0
2160,74.0,5,90,5.0,64.0
2161,74.0,1,90,4.0,64.0
2162,74.0,1,90,6.0,64.0
2163,67.0,8,40,7.0,64.0
2164,62.0,2,40,8.0,64.0
2165,76.0,2,40,5.0,64.0
2166,76.0,147,40,6.0,64.0
2167,76.0,2,40,4.0,64.0
2168,66.0,12,330,7.0,64.0
2169,61.0,108,360,8.0,64.0
2170,71.0,3,120,5.0,64.0
2171,71.0,14,120,6.0,64.0
2172,71.0,2,120,4.0,64.0
2173,70.0,5,210,5.0,64.0
2174,70.0,4,210,4.0,64.0
2175,70.0,3,210,6.0,64.0
2176,55.0,89,40,10.0,64.0
2177,54.0,1,90,10.0,64.0
2178,70.0,11,40,7.0,64.0
2179,52.0,6,40,10.0,64.0
2180,79.0,1,30,4.0,64.0
2181,61.0,0,40,8.0,64.0
2182,79.0,5,40,6.0,64.0
2183,79.0,95,40,5.0,64.0
2184,71.0,0,330,7.0,64.0
2185,50.0,11,90,10.0,64.0
2186,78.0,1,90,4.0,64.0
2187,62.0,97,120,8.0,64.0
2188,78.0,7,90,5.0,64.0
2189,78.0,7,90,6.0,64.0
2190,49.0,7,40,10.0,64.0
2191,76.0,3,40,4.0,64.0
2192,64.0,5,40,8.0,64.0
2193,76.0,7,40,5.0,64.0
2194,76.0,96,40,6.0,64.0
2195,47.0,1,120,10.0,64.0
2196,74.0,126,90,5.0,64.0
2197,66.0,105,360,8.0,64.0
2198,74.0,11,90,4.0,64.0
2199,74.0,0,90,6.0,64.0
2200,73.0,103,60,5.0,64.0
2201,46.0,1,40,10.0,64.0
2202,73.0,3,40,6.0,64.0
2203,73.0,3,40,4.0,64.0
2204,73.0,0,40,7.0,64.0
2205,47.0,0,120,10.0,64.0
2206,74.0,11,120,5.0,64.0
2207,74.0,2,90,4.0,64.0
2208,71.0,7,90,7.0,64.0
2209,74.0,1,90,6.0,64.0
2210,73.0,107,60,5.0,64.0
2211,70.0,2,40,7.0,64.0
2212,49.0,1,40,10.0,64.0
2213,73.0,1,40,4.0,64.0
2214,73.0,1,40,6.0,64.0
2215,64.0,1,40,8.0,64.0
2216,66.0,7,120,8.0,64.0
2217,71.0,96,120,5.0,64.0
2218,71.0,0,90,4.0,64.0
2219,71.0,3,90,7.0,64.0
2220,50.0,2,90,10.0,64.0
2221,71.0,8,90,6.0,64.0
2222,73.0,86,60,5.0,64.0
2223,73.0,0,40,6.0,64.0
2224,73.0,4,40,4.0,64.0
2225,52.0,3,40,10.0,64.0
2226,71.0,6,30,7.0,64.0
2227,67.0,1,40,8.0,64.0
2228,66.0,2,180,8.0,64.0
2229,74.0,2,60,5.0,64.0
2230,54.0,2,150,10.0,64.0
2231,74.0,22,60,4.0,64.0
2232,71.0,1,60,7.0,64.0
2233,74.0,0,60,6.0,64.0
2234,70.0,6,30,7.0,64.0
2235,73.0,20,40,4.0,64.0
2236,73.0,0,30,6.0,64.0
2237,73.0,1,30,5.0,64.0
2238,71.0,8,30,7.0,64.0
2239,74.0,3,30,4.0,64.0
2240,74.0,5,40,5.0,64.0
2241,74.0,2,30,6.0,64.0
2242,70.0,10,20,7.0,64.0
2243,73.0,0,20,6.0,64.0
2244,73.0,2,20,4.0,64.0
2245,73.0,10,20,5.0,64.0
2246,71.0,11,20,7.0,64.0
2247,74.0,1,20,4.0,64.0
2248,74.0,2,20,6.0,64.0
2249,74.0,7,20,5.0,64.0
2250,70.0,8,20,7.0,64.0
2251,73.0,3,20,6.0,64.0
2252,73.0,0,20,4.0,64.0
2253,73.0,10,20,5.0,64.0
2254,52.0,4,30,10.0,64.0
2255,71.0,3,30,7.0,64.0
2256,74.0,4,20,4.0,64.0
2257,74.0,3,20,6.0,64.0
2258,74.0,1,20,5.0,64.0
2259,70.0,8,20,7.0,64.0
2260,50.0,5,30,10.0,64.0
2261,73.0,4,30,4.0,64.0
2262,73.0,1,20,6.0,64.0
2263,73.0,6,20,5.0,64.0
2264,71.0,14,30,7.0,64.0
2265,74.0,3,30,6.0,64.0
2266,74.0,0,30,4.0,64.0
2267,74.0,83,30,5.0,64.0
2268,70.0,13,120,7.0,64.0
2269,52.0,6,120,10.0,64.0
2270,66.0,12,180,8.0,64.0
2271,73.0,8,120,6.0,64.0
2272,73.0,1,120,4.0,64.0
2273,73.0,61,120,5.0,64.0
2274,71.0,1,30,4.0,64.0
2275,71.0,6,30,6.0,64.0
2276,71.0,6,40,7.0,64.0
2277,71.0,2,30,5.0,64.0
2278,54.0,110,30,10.0,64.0
2279,71.0,5,240,6.0,64.0
2280,71.0,4,270,4.0,64.0
2281,71.0,54,270,5.0,64.0
2282,71.0,118,90,7.0,64.0
2283,51.0,44,510,10.0,64.0
2284,66.0,34,480,8.0,64.0
2285,59.0,40,40,7.0,64.0
2286,59.0,17,90,7.0,64.0
2287,71.0,2,30,6.0,64.0
2288,71.0,2,30,5.0,64.0
2289,71.0,61,30,4.0,64.0
2290,69.0,4,40,6.0,64.0
2291,69.0,44,40,5.0,64.0
2292,69.0,2,40,4.0,64.0
2293,68.0,7,40,5.0,64.0
2294,63.0,2,40,7.0,64.0
2295,68.0,35,40,6.0,64.0
2296,68.0,0,40,4.0,64.0
2297,66.0,13,330,7.0,64.0
2298,69.0,56,90,5.0,64.0
2299,69.0,6,90,4.0,64.0
2300,69.0,2,90,6.0,64.0
2301,49.0,0,40,10.0,64.0
2302,47.0,55,40,10.0,64.0
2303,49.0,8,40,10.0,64.0
2304,78.0,14,40,6.0,64.0
2305,78.0,4,40,4.0,64.0
2306,78.0,2,40,5.0,64.0
2307,59.0,33,30,8.0,64.0
2308,51.0,44,40,10.0,64.0
2309,71.0,1,90,6.0,64.0
2310,71.0,5,90,4.0,64.0
2311,71.0,54,90,5.0,64.0
2312,59.0,0,90,8.0,64.0
2313,49.0,3,40,10.0,64.0
2314,51.0,59,40,10.0,64.0
2315,47.0,11,40,10.0,64.0
2316,69.0,6,40,5.0,64.0
2317,69.0,0,40,4.0,64.0
2318,69.0,101,40,6.0,64.0
2319,66.0,2,40,7.0,64.0
2320,63.0,0,40,8.0,64.0
2321,64.0,115,90,7.0,64.0
2322,68.0,1,90,4.0,64.0
2323,68.0,0,90,5.0,64.0
2324,59.0,11,90,8.0,64.0
2325,52.0,54,510,10.0,64.0
2326,68.0,5,90,6.0,64.0
2327,64.0,14,60,5.0,64.0
2328,64.0,2,40,4.0,64.0
2329,64.0,3,40,6.0,64.0
2330,76.0,3,40,7.0,64.0
2331,56.0,86,40,8.0,64.0
2332,76.0,2,90,7.0,64.0
2333,68.0,3,90,4.0,64.0
2334,68.0,5,90,5.0,64.0
2335,68.0,2,90,6.0,64.0
2336,59.0,118,90,8.0,64.0
2337,74.0,6,40,7.0,64.0
2338,71.0,1,40,4.0,64.0
2339,71.0,59,40,6.0,64.0
2340,71.0,1,40,5.0,64.0
2341,64.0,3,30,8.0,64.0
2342,73.0,7,90,7.0,64.0
2343,68.0,0,360,8.0,64.0
2344,76.0,4,330,4.0,64.0
2345,76.0,23,360,5.0,64.0
2346,76.0,7,330,6.0,64.0
2347,50.0,49,40,10.0,64.0
2348,49.0,61,40,10.0,64.0
2349,50.0,2,40,10.0,64.0
2350,73.0,59,30,7.0,64.0
2351,52.0,43,40,10.0,64.0
2352,73.0,9,60,7.0,64.0
2353,50.0,21,40,10.0,64.0
2354,52.0,66,40,10.0,64.0
2355,49.0,4,40,10.0,64.0
2356,76.0,1,30,4.0,64.0
2357,76.0,0,40,6.0,64.0
2358,76.0,3,30,5.0,64.0
2359,71.0,6,30,7.0,64.0
2360,64.0,110,40,8.0,64.0
2361,76.0,13,240,6.0,64.0
2362,76.0,8,240,4.0,64.0
2363,54.0,6,510,10.0,64.0
2364,61.0,120,90,8.0,64.0
2365,76.0,53,270,5.0,64.0
2366,69.0,11,300,7.0,64.0
2367,69.0,31,30,8.0,64.0
2368,69.0,4,90,8.0,64.0
2369,69.0,7,40,6.0,64.0
2370,69.0,4,40,5.0,64.0
2371,69.0,48,40,4.0,64.0
2372,71.0,2,40,6.0,64.0
2373,71.0,4,40,5.0,64.0
2374,71.0,52,40,4.0,64.0
2375,73.0,5,40,6.0,64.0
2376,73.0,0,40,5.0,64.0
2377,67.0,0,40,8.0,64.0
2378,73.0,53,40,4.0,64.0
2379,69.0,0,30,7.0,64.0
2380,74.0,2,40,6.0,64.0
2381,66.0,9,90,8.0,64.0
2382,74.0,0,40,5.0,64.0
2383,74.0,46,40,4.0,64.0
2384,69.0,31,360,7.0,64.0
2385,55.0,1,40,10.0,64.0
2386,73.0,1,40,5.0,64.0
2387,73.0,0,40,4.0,64.0
2388,73.0,61,40,6.0,64.0
2389,54.0,3,40,10.0,64.0
2390,74.0,0,40,5.0,64.0
2391,74.0,3,40,6.0,64.0
2392,74.0,42,40,4.0,64.0
2393,52.0,4,40,10.0,64.0
2394,66.0,5,40,8.0,64.0
2395,76.0,6,40,5.0,64.0
2396,76.0,53,40,6.0,64.0
2397,76.0,0,40,4.0,64.0
2398,66.0,24,60,8.0,64.0
2399,50.0,6,40,10.0,64.0
2400,78.0,6,40,5.0,64.0
2401,78.0,9,60,4.0,64.0
2402,78.0,5,40,6.0,64.0
2403,52.0,10,40,10.0,64.0
2404,76.0,4,40,5.0,64.0
2405,76.0,8,40,6.0,64.0
2406,76.0,2,40,4.0,64.0
2407,50.0,19,40,10.0,64.0
2408,78.0,5,40,6.0,64.0
2409,78.0,1,40,5.0,64.0
2410,78.0,42,40,4.0,64.0
2411,49.0,4,40,10.0,64.0
2412,80.0,0,40,6.0,64.0
2413,69.0,2,30,7.0,64.0
2414,64.0,3,30,8.0,64.0
2415,80.0,7,40,5.0,64.0
2416,80.0,75,40,4.0,64.0
2417,47.0,38,270,10.0,64.0
2418,62.0,113,600,8.0,64.0
2419,81.0,2,90,6.0,64.0
2420,71.0,69,90,7.0,64.0
2421,81.0,7,60,4.0,64.0
2422,81.0,10,60,5.0,64.0
2423,80.0,61,90,4.0,64.0
2424,80.0,8,90,5.0,64.0
2425,80.0,2,90,6.0,64.0
2426,69.0,37,40,7.0,64.0
2427,78.0,3,60,4.0,64.0
2428,78.0,17,60,5.0,64.0
2429,78.0,16,90,6.0,64.0
2430,68.0,13,90,7.0,64.0
2431,47.0,44,40,10.0,64.0
2432,76.0,7,90,5.0,64.0
2433,76.0,3,90,4.0,64.0
2434,76.0,36,90,6.0,64.0
2435,49.0,13,40,10.0,64.0
2436,50.0,17,40,10.0,64.0
2437,66.0,106,40,7.0,64.0
2438,64.0,5,90,7.0,64.0
2439,83.0,97,360,5.0,64.0
2440,44.0,11,90,10.0,64.0
2441,83.0,0,330,6.0,64.0
2442,83.0,5,300,4.0,64.0
2443,40.0,96,40,10.0,64.0
2444,68.0,0,40,7.0,64.0
2445,62.0,9,30,8.0,64.0
2446,42.0,24,90,10.0,64.0
2447,69.0,1,90,7.0,64.0
2448,61.0,2,90,8.0,64.0
2449,74.0,3,40,6.0,64.0
2450,71.0,3,40,7.0,64.0
2451,44.0,2,40,10.0,64.0
2452,74.0,3,40,5.0,64.0
2453,59.0,0,40,8.0,64.0
2454,74.0,114,40,4.0,64.0
2455,45.0,5,90,10.0,64.0
2456,69.0,0,330,7.0,64.0
2457,73.0,22,330,5.0,64.0
2458,73.0,78,360,6.0,64.0
2459,64.0,122,90,8.0,64.0
2460,73.0,4,360,4.0,64.0
2461,47.0,1,40,10.0,64.0
2462,62.0,103,40,8.0,64.0
2463,49.0,4,90,10.0,64.0
2464,64.0,8,90,8.0,64.0
2465,69.0,10,30,7.0,64.0
2466,71.0,76,60,6.0,64.0
2467,71.0,5,40,5.0,64.0
2468,50.0,3,40,10.0,64.0
2469,71.0,2,40,4.0,64.0
2470,66.0,3,40,8.0,64.0
2471,69.0,0,60,7.0,64.0
2472,52.0,1,180,10.0,64.0
2473,73.0,5,60,5.0,64.0
2474,64.0,14,180,8.0,64.0
2475,73.0,14,60,6.0,64.0
2476,73.0,4,60,4.0,64.0
2477,71.0,5,30,5.0,64.0
2478,71.0,1,30,4.0,64.0
2479,71.0,19,30,6.0,64.0
2480,68.0,3,20,7.0,64.0
2481,73.0,7,30,5.0,64.0
2482,69.0,0,30,7.0,64.0
2483,73.0,1,30,4.0,64.0
2484,73.0,15,20,6.0,64.0
2485,71.0,0,20,5.0,64.0
2486,68.0,7,20,7.0,64.0
2487,71.0,14,30,4.0,64.0
2488,71.0,2,20,6.0,64.0
2489,73.0,2,20,5.0,64.0
2490,69.0,1,20,7.0,64.0
2491,73.0,4,20,6.0,64.0
2492,73.0,10,20,4.0,64.0
2493,68.0,7,20,7.0,64.0
2494,71.0,1,30,5.0,64.0
2495,71.0,1,20,6.0,64.0
2496,71.0,1,20,4.0,64.0
2497,69.0,4,30,7.0,64.0
2498,73.0,1,20,5.0,64.0
2499,73.0,5,30,6.0,64.0
2500,73.0,4,20,4.0,64.0
2501,68.0,11,20,7.0,64.0
2502,71.0,2,30,5.0,64.0
2503,71.0,11,20,6.0,64.0
2504,71.0,0,20,4.0,64.0
2505,69.0,11,30,7.0,64.0
2506,73.0,3,30,5.0,64.0
2507,73.0,4,30,6.0,64.0
2508,73.0,104,30,4.0,64.0
2509,68.0,15,120,7.0,64.0
2510,71.0,7,120,5.0,64.0
2511,71.0,22,150,6.0,64.0
2512,71.0,1,150,4.0,64.0
2513,62.0,39,180,8.0,64.0
2514,40.0,7,150,10.0,64.0
2515,69.0,4,40,6.0,64.0
2516,69.0,4,40,5.0,64.0
2517,64.0,0,30,7.0,64.0
2518,69.0,62,30,4.0,64.0
2519,69.0,7,240,6.0,64.0
2520,64.0,6,120,7.0,64.0
2521,61.0,46,540,8.0,64.0
2522,69.0,15,240,4.0,64.0
2523,45.0,4,720,10.0,64.0
2524,69.0,3,270,5.0,64.0
2525,45.0,25,20,3.0,64.0
2526,45.0,26,20,3.0,64.0
2527,45.0,24,20,3.0,64.0
2528,45.0,19,15,3.0,64.0
2529,45.0,28,20,3.0,64.0
2530,45.0,23,15,3.0,64.0
2531,45.0,31,15,3.0,64.0
2532,76.0,0,40,7.0,64.0
2533,93.0,0,30,1.0,64.0
2534,88.0,18,40,2.0,64.0
2535,97.0,0,30,0.0,64.0
2536,45.0,7,15,3.0,64.0
2537,45.0,3,15,3.0,64.0
2538,76.0,5,60,7.0,64.0
2539,93.0,2,60,1.0,64.0
2540,97.0,0,60,0.0,64.0
2541,88.0,13,90,2.0,64.0
2542,45.0,23,15,3.0,64.0
2543,45.0,23,15,3.0,64.0
2544,73.0,7,40,6.0,64.0
2545,45.0,7,15,3.0,64.0
2546,45.0,27,15,3.0,64.0
2547,45.0,22,20,3.0,64.0
2548,71.0,1,40,6.0,64.0
2549,71.0,4,60,5.0,64.0
2550,71.0,6,40,4.0,64.0
2551,45.0,11,15,3.0,64.0
2552,73.0,9,40,4.0,64.0
2553,73.0,0,30,5.0,64.0
2554,73.0,3,40,7.0,64.0
2555,45.0,13,15,3.0,64.0
2556,69.0,8,60,6.0,64.0
2557,88.0,4,40,1.0,64.0
2558,74.0,5,40,5.0,64.0
2559,74.0,6,30,4.0,64.0
2560,81.0,1,40,2.0,64.0
2561,45.0,5,15,3.0,64.0
2562,93.0,2,40,0.0,64.0
2563,76.0,1,40,5.0,64.0
2564,76.0,14,40,4.0,64.0
2565,45.0,2,20,3.0,64.0
2566,78.0,19,30,5.0,64.0
2567,78.0,1,30,4.0,64.0
2568,69.0,13,300,7.0,64.0
2569,79.0,5,90,5.0,64.0
2570,79.0,2,90,6.0,64.0
2571,79.0,2,90,4.0,64.0
2572,81.0,3,90,2.0,64.0
2573,88.0,116,90,1.0,64.0
2574,45.0,15,20,3.0,64.0
2575,93.0,0,90,0.0,64.0
2576,76.0,3,40,6.0,64.0
2577,61.0,0,60,8.0,64.0
2578,76.0,2,40,4.0,64.0
2579,76.0,56,40,5.0,64.0
2580,45.0,7,20,3.0,64.0
2581,62.0,3,90,8.0,64.0
2582,78.0,3,90,6.0,64.0
2583,78.0,5,60,4.0,64.0
2584,78.0,6,60,5.0,64.0
2585,45.0,12,40,3.0,64.0
2586,47.0,4,40,10.0,64.0
2587,67.0,62,30,7.0,64.0
2588,66.0,4,40,7.0,64.0
2589,45.0,44,40,10.0,64.0
2590,64.0,1,40,7.0,64.0
2591,45.0,2,30,3.0,64.0
2592,79.0,9,30,4.0,64.0
2593,64.0,2,40,8.0,64.0
2594,43.0,0,40,10.0,64.0
2595,79.0,7,30,6.0,64.0
2596,79.0,37,40,5.0,64.0
2597,62.0,14,330,7.0,64.0
2598,81.0,3,330,4.0,64.0
2599,50.0,31,20,3.0,64.0
2600,81.0,4,330,5.0,64.0
2601,42.0,7,270,10.0,64.0
2602,66.0,25,90,8.0,64.0
2603,81.0,3,360,6.0,64.0
2604,50.0,23,15,3.0,64.0
2605,50.0,26,20,3.0,64.0
2606,50.0,0,15,3.0,64.0
2607,50.0,29,15,3.0,64.0
2608,50.0,21,15,3.0,64.0
2609,50.0,30,15,3.0,64.0
2610,90.0,3,40,1.0,64.0
2611,81.0,1,40,2.0,64.0
2612,98.0,2,40,0.0,64.0
2613,69.0,4,40,8.0,64.0
2614,50.0,11,15,3.0,64.0
2615,50.0,29,15,3.0,64.0
2616,50.0,18,15,3.0,64.0
2617,90.0,3,60,1.0,64.0
2618,69.0,5,60,8.0,64.0
2619,98.0,11,60,0.0,64.0
2620,81.0,6,90,2.0,64.0
2621,50.0,25,15,3.0,64.0
2622,50.0,1,15,3.0,64.0
2623,43.0,1,40,10.0,64.0
2624,50.0,1,15,3.0,64.0
2625,50.0,24,15,3.0,64.0
2626,42.0,10,40,10.0,64.0
2627,50.0,13,20,3.0,64.0
2628,50.0,22,15,3.0,64.0
2629,50.0,10,20,3.0,64.0
2630,72.0,3,30,4.0,64.0
2631,93.0,0,40,0.0,64.0
2632,66.0,5,30,8.0,64.0
2633,72.0,6,30,5.0,64.0
2634,40.0,5,40,10.0,64.0
2635,72.0,0,40,6.0,64.0
2636,86.0,1,40,1.0,64.0
2637,57.0,25,40,7.0,64.0
2638,78.0,0,40,2.0,64.0
2639,50.0,7,20,3.0,64.0
2640,50.0,26,20,3.0,64.0
2641,38.0,0,120,10.0,64.0
2642,74.0,15,40,4.0,64.0
2643,74.0,1,40,5.0,64.0
2644,74.0,0,60,6.0,64.0
2645,93.0,3,90,0.0,64.0
2646,66.0,12,180,8.0,64.0
2647,69.0,4,90,7.0,64.0
2648,86.0,3,90,1.0,64.0
2649,78.0,12,90,2.0,64.0
2650,72.0,1,20,5.0,64.0
2651,72.0,14,20,4.0,64.0
2652,72.0,9,20,6.0,64.0
2653,74.0,11,20,4.0,64.0
2654,74.0,0,20,5.0,64.0
2655,74.0,1,20,6.0,64.0
2656,72.0,0,20,5.0,64.0
2657,72.0,19,60,4.0,64.0
2658,72.0,15,20,6.0,64.0
2659,74.0,2,15,5.0,64.0
2660,74.0,1,15,4.0,64.0
2661,72.0,0,15,5.0,64.0
2662,74.0,11,30,6.0,64.0
2663,74.0,5,30,5.0,64.0
2664,74.0,3,30,4.0,64.0
2665,72.0,7,30,6.0,64.0
2666,72.0,14,30,4.0,64.0
2667,72.0,3,20,5.0,64.0
2668,71.0,5,40,6.0,64.0
2669,71.0,2,30,5.0,64.0
2670,71.0,9,40,4.0,64.0
2671,67.0,4,40,7.0,64.0
2672,40.0,2,40,10.0,64.0
2673,50.0,1,20,3.0,64.0
2674,72.0,5,30,6.0,64.0
2675,72.0,8,30,5.0,64.0
2676,72.0,44,30,4.0,64.0
2677,74.0,5,90,5.0,64.0
2678,74.0,3,90,6.0,64.0
2679,74.0,4,60,4.0,64.0
2680,69.0,5,60,7.0,64.0
2681,62.0,101,360,8.0,64.0
2682,42.0,108,90,10.0,64.0
2683,50.0,26,30,3.0,64.0
2684,66.0,74,40,7.0,64.0
2685,69.0,2,40,6.0,64.0
2686,69.0,1,30,5.0,64.0
2687,50.0,8,20,3.0,64.0
2688,69.0,3,30,4.0,64.0
2689,38.0,3,40,10.0,64.0
2690,67.0,15,90,7.0,64.0
2691,71.0,3,270,6.0,64.0
2692,71.0,14,270,5.0,64.0
2693,71.0,51,270,4.0,64.0
2694,50.0,51,40,3.0,64.0
2695,43.0,18,420,10.0,64.0
2696,66.0,5,60,7.0,64.0
2697,62.0,39,40,8.0,64.0
2698,67.0,3,90,7.0,64.0
2699,64.0,4,90,8.0,64.0
2700,69.0,1,40,6.0,64.0
2701,69.0,4,40,5.0,64.0
2702,69.0,43,40,4.0,64.0
2703,67.0,4,40,6.0,64.0
2704,67.0,39,40,5.0,64.0
2705,67.0,2,30,4.0,64.0
2706,69.0,3,40,7.0,64.0
2707,66.0,2,60,6.0,64.0
2708,66.0,2,40,4.0,64.0
2709,66.0,57,40,5.0,64.0
2710,66.0,5,40,8.0,64.0
2711,71.0,1,90,7.0,64.0
2712,64.0,8,60,6.0,64.0
2713,64.0,2,40,4.0,64.0
2714,64.0,39,60,5.0,64.0
2715,67.0,1,90,8.0,64.0
2716,55.0,8,720,10.0,64.0
2717,66.0,7,40,4.0,64.0
2718,66.0,3,40,6.0,64.0
2719,66.0,53,40,5.0,64.0
2720,67.0,10,40,4.0,64.0
2721,67.0,4,60,6.0,64.0
2722,67.0,47,40,5.0,64.0
2723,73.0,1,60,7.0,64.0
2724,69.0,4,40,6.0,64.0
2725,69.0,8,40,4.0,64.0
2726,64.0,50,60,8.0,64.0
2727,69.0,1,40,5.0,64.0
2728,74.0,20,90,7.0,64.0
2729,71.0,9,40,4.0,64.0
2730,71.0,26,60,6.0,64.0
2731,66.0,54,90,8.0,64.0
2732,71.0,4,40,5.0,64.0
2733,73.0,4,40,6.0,64.0
2734,73.0,2,40,4.0,64.0
2735,73.0,0,40,5.0,64.0
2736,74.0,7,40,4.0,64.0
2737,74.0,1,60,6.0,64.0
2738,74.0,38,40,5.0,64.0
2739,71.0,3,40,4.0,64.0
2740,71.0,0,40,6.0,64.0
2741,76.0,8,30,7.0,64.0
2742,67.0,34,60,8.0,64.0
2743,71.0,9,40,5.0,64.0
2744,73.0,2,60,6.0,64.0
2745,73.0,0,60,4.0,64.0
2746,73.0,21,60,5.0,64.0
2747,45.0,21,20,3.0,64.0
2748,69.0,1,90,7.0,64.0
2749,64.0,2,90,8.0,64.0
2750,45.0,4,15,3.0,64.0
2751,74.0,3,40,4.0,64.0
2752,45.0,22,15,3.0,64.0
2753,74.0,16,40,6.0,64.0
2754,74.0,3,40,5.0,64.0
2755,45.0,2,15,3.0,64.0
2756,45.0,21,15,3.0,64.0
2757,73.0,4,40,4.0,64.0
2758,73.0,5,40,6.0,64.0
2759,73.0,3,40,5.0,64.0
2760,45.0,14,15,3.0,64.0
2761,45.0,23,15,3.0,64.0
2762,64.0,0,40,7.0,64.0
2763,88.0,2,40,0.0,64.0
2764,69.0,1,40,8.0,64.0
2765,71.0,0,40,4.0,64.0
2766,71.0,3,40,5.0,64.0
2767,45.0,20,15,3.0,64.0
2768,71.0,1,40,6.0,64.0
2769,81.0,19,40,1.0,64.0
2770,45.0,3,15,3.0,64.0
2771,45.0,22,15,3.0,64.0
2772,69.0,1,60,4.0,64.0
2773,69.0,4,90,8.0,64.0
2774,69.0,5,60,6.0,64.0
2775,61.0,8,90,7.0,64.0
2776,69.0,5,40,5.0,64.0
2777,88.0,7,60,0.0,64.0
2778,81.0,2,60,1.0,64.0
2779,45.0,13,15,3.0,64.0
2780,45.0,12,15,3.0,64.0
2781,54.0,12,40,10.0,64.0
2782,71.0,3,60,5.0,64.0
2783,71.0,28,60,6.0,64.0
2784,71.0,4,40,4.0,64.0
2785,45.0,0,15,3.0,64.0
2786,45.0,0,15,3.0,64.0
2787,52.0,7,40,10.0,64.0
2788,73.0,23,40,6.0,64.0
2789,73.0,2,40,4.0,64.0
2790,73.0,1,40,5.0,64.0
2791,45.0,15,15,3.0,64.0
2792,45.0,1,20,3.0,64.0
2793,50.0,2,40,10.0,64.0
2794,88.0,4,30,1.0,64.0
2795,45.0,17,15,3.0,64.0
2796,64.0,3,40,8.0,64.0
2797,74.0,1,60,6.0,64.0
2798,74.0,13,60,5.0,64.0
2799,74.0,0,40,4.0,64.0
2800,57.0,3,40,7.0,64.0
2801,93.0,7,40,0.0,64.0
2802,45.0,4,15,3.0,64.0
2803,45.0,39,20,3.0,64.0
2804,49.0,1,120,10.0,64.0
2805,76.0,26,60,6.0,64.0
2806,69.0,8,90,7.0,64.0
2807,76.0,5,40,4.0,64.0
2808,64.0,1,90,8.0,64.0
2809,76.0,0,40,5.0,64.0
2810,88.0,2,60,1.0,64.0
2811,93.0,9,60,0.0,64.0
2812,45.0,5,20,3.0,64.0
2813,78.0,55,40,6.0,64.0
2814,78.0,1,40,5.0,64.0
2815,78.0,2,40,4.0,64.0
2816,79.0,5,40,4.0,64.0
2817,79.0,44,40,6.0,64.0
2818,79.0,0,40,5.0,64.0
2819,45.0,1,40,10.0,64.0
2820,61.0,2,40,8.0,64.0
2821,66.0,4,40,7.0,64.0
2822,81.0,1,40,6.0,64.0
2823,81.0,0,40,5.0,64.0
2824,90.0,2,40,1.0,64.0
2825,93.0,2,40,0.0,64.0
2826,81.0,1,40,4.0,64.0
2827,81.0,51,40,2.0,64.0
2828,45.0,6,20,3.0,64.0
2829,79.0,1,60,6.0,64.0
2830,47.0,6,90,10.0,64.0
2831,62.0,6,90,8.0,64.0
2832,91.0,0,60,0.0,64.0
2833,79.0,2,40,5.0,64.0
2834,79.0,15,60,4.0,64.0
2835,50.0,10,30,3.0,64.0
2836,90.0,7,60,1.0,64.0
2837,62.0,14,60,7.0,64.0
2838,74.0,2,60,2.0,64.0
2839,78.0,1,40,6.0,64.0
2840,78.0,1,40,5.0,64.0
2841,78.0,54,40,4.0,64.0
2842,79.0,3,40,6.0,64.0
2843,79.0,0,40,5.0,64.0
2844,79.0,42,40,4.0,64.0
2845,69.0,11,40,7.0,64.0
2846,76.0,1,40,6.0,64.0
2847,49.0,2,40,10.0,64.0
2848,76.0,1,40,4.0,64.0
2849,64.0,2,40,8.0,64.0
2850,81.0,1,40,2.0,64.0
2851,88.0,1,30,1.0,64.0
2852,76.0,62,40,5.0,64.0
2853,93.0,2,40,0.0,64.0
2854,45.0,0,30,3.0,64.0
2855,78.0,0,120,6.0,64.0
2856,62.0,116,330,8.0,64.0
2857,90.0,2,90,0.0,64.0
2858,69.0,7,300,7.0,64.0
2859,50.0,4,90,10.0,64.0
2860,78.0,104,120,5.0,64.0
2861,81.0,3,90,1.0,64.0
2862,50.0,54,40,3.0,64.0
2863,78.0,1,90,4.0,64.0
2864,86.0,1,90,2.0,64.0
2865,79.0,2,40,6.0,64.0
2866,52.0,4,40,10.0,64.0
2867,91.0,3,40,0.0,64.0
2868,79.0,0,40,4.0,64.0
2869,79.0,92,40,5.0,64.0
2870,81.0,5,90,6.0,64.0
2871,54.0,1,90,10.0,64.0
2872,81.0,7,90,4.0,64.0
2873,93.0,1,90,0.0,64.0
2874,81.0,1,90,5.0,64.0
2875,55.0,0,40,10.0,64.0
2876,67.0,1,40,7.0,64.0
2877,83.0,1,40,6.0,64.0
2878,95.0,3,40,0.0,64.0
2879,62.0,54,60,8.0,64.0
2880,83.0,5,40,5.0,64.0
2881,83.0,8,40,4.0,64.0
2882,81.0,2,90,1.0,64.0
2883,64.0,36,120,7.0,64.0
2884,57.0,11,40,10.0,64.0
2885,73.0,9,90,6.0,64.0
2886,88.0,1,90,0.0,64.0
2887,73.0,6,120,5.0,64.0
2888,69.0,0,90,8.0,64.0
2889,93.0,1,90,2.0,64.0
2890,73.0,2,90,4.0,64.0
2891,45.0,38,40,3.0,64.0
2892,59.0,6,40,10.0,64.0
2893,57.0,60,40,10.0,64.0
2894,55.0,4,40,10.0,64.0
2895,74.0,1,40,6.0,64.0
2896,93.0,2,40,0.0,64.0
2897,74.0,1,40,5.0,64.0
2898,74.0,0,40,4.0,64.0
2899,66.0,63,40,7.0,64.0
2900,69.0,0,40,8.0,64.0
2901,54.0,12,60,10.0,64.0
2902,76.0,1,60,6.0,64.0
2903,86.0,7,90,0.0,64.0
2904,76.0,14,60,5.0,64.0
2905,76.0,1,60,4.0,64.0
2906,69.0,5,90,8.0,64.0
2907,66.0,5,90,7.0,64.0
2908,55.0,15,60,10.0,64.0
2909,74.0,3,20,6.0,64.0
2910,74.0,0,20,4.0,64.0
2911,74.0,5,20,5.0,64.0
2912,76.0,4,20,4.0,64.0
2913,76.0,1,20,6.0,64.0
2914,76.0,0,20,5.0,64.0
2915,74.0,0,20,6.0,64.0
2916,74.0,16,20,4.0,64.0
2917,74.0,1,15,5.0,64.0
2918,57.0,4,40,10.0,64.0
2919,76.0,8,30,6.0,64.0
2920,76.0,3,15,4.0,64.0
2921,76.0,9,15,5.0,64.0
2922,74.0,8,20,4.0,64.0
2923,74.0,1,15,5.0,64.0
2924,74.0,8,20,6.0,64.0
2925,76.0,10,20,4.0,64.0
2926,76.0,4,15,5.0,64.0
2927,73.0,12,40,6.0,64.0
2928,74.0,9,30,4.0,64.0
2929,74.0,6,20,5.0,64.0
2930,59.0,3,40,10.0,64.0
2931,93.0,2,60,0.0,64.0
2932,62.0,1,40,7.0,64.0
2933,73.0,2,30,5.0,64.0
2934,66.0,3,40,8.0,64.0
2935,73.0,4,30,4.0,64.0
2936,74.0,14,30,6.0,64.0
2937,74.0,12,30,5.0,64.0
2938,74.0,38,30,4.0,64.0
2939,61.0,39,60,10.0,64.0
2940,76.0,3,90,6.0,64.0
2941,81.0,11,90,0.0,64.0
2942,69.0,4,300,7.0,64.0
2943,76.0,6,90,4.0,64.0
2944,76.0,1,90,5.0,64.0
2945,64.0,53,90,8.0,64.0
2946,59.0,1,40,10.0,64.0
2947,57.0,52,40,10.0,64.0
2948,69.0,1,40,6.0,64.0
2949,59.0,1,40,10.0,64.0
2950,69.0,3,40,5.0,64.0
2951,93.0,1,40,0.0,64.0
2952,69.0,7,40,4.0,64.0
2953,62.0,0,40,8.0,64.0
2954,81.0,0,40,2.0,64.0
2955,88.0,54,40,1.0,64.0
2956,45.0,0,20,3.0,64.0
2957,61.0,12,40,10.0,64.0
2958,91.0,12,90,0.0,64.0
2959,79.0,3,90,4.0,64.0
2960,79.0,0,90,6.0,64.0
2961,81.0,9,60,2.0,64.0
2962,88.0,1,60,1.0,64.0
2963,79.0,2,90,5.0,64.0
2964,64.0,2,90,8.0,64.0
2965,45.0,16,40,3.0,64.0
2966,62.0,64,40,10.0,64.0
2967,64.0,14,40,10.0,64.0
2968,78.0,10,30,6.0,64.0
2969,78.0,2,40,5.0,64.0
2970,78.0,26,30,4.0,64.0
2971,76.0,1,60,6.0,64.0
2972,61.0,0,40,10.0,64.0
2973,76.0,2,40,5.0,64.0
2974,81.0,2,30,2.0,64.0
2975,76.0,7,40,4.0,64.0
2976,93.0,1,40,0.0,64.0
2977,57.0,9,60,8.0,64.0
2978,69.0,0,40,7.0,64.0
2979,88.0,2,40,1.0,64.0
2980,45.0,3,30,3.0,64.0
2981,78.0,1,30,6.0,64.0
2982,78.0,1,30,5.0,64.0
2983,78.0,46,30,4.0,64.0
2984,81.0,6,90,2.0,64.0
2985,62.0,3,180,10.0,64.0
2986,86.0,3,90,1.0,64.0
2987,90.0,5,90,0.0,64.0
2988,79.0,5,60,6.0,64.0
2989,79.0,6,60,4.0,64.0
2990,69.0,8,150,7.0,64.0
2991,50.0,7,40,3.0,64.0
2992,79.0,8,40,5.0,64.0
2993,69.0,2,180,8.0,64.0
2994,78.0,8,20,5.0,64.0
2995,78.0,4,20,4.0,64.0
2996,78.0,1,15,6.0,64.0
2997,79.0,7,20,5.0,64.0
2998,79.0,2,20,6.0,64.0
2999,79.0,6,20,4.0,64.0
3000,78.0,7,15,5.0,64.0
3001,78.0,1,15,6.0,64.0
3002,78.0,11,15,4.0,64.0
3003,79.0,8,15,5.0,64.0
3004,79.0,5,15,6.0,64.0
3005,79.0,6,20,4.0,64.0
3006,78.0,0,20,5.0,64.0
3007,78.0,6,15,6.0,64.0
3008,78.0,6,20,4.0,64.0
3009,79.0,6,20,5.0,64.0
3010,79.0,8,20,6.0,64.0
3011,79.0,3,20,4.0,64.0
3012,78.0,10,20,5.0,64.0
3013,86.0,4,40,2.0,64.0
3014,90.0,4,40,1.0,64.0
3015,93.0,0,40,0.0,64.0
3016,74.0,0,40,7.0,64.0
3017,78.0,3,20,6.0,64.0
3018,50.0,1,30,3.0,64.0
3019,78.0,1,20,4.0,64.0
3020,79.0,1,30,5.0,64.0
3021,79.0,12,20,6.0,64.0
3022,79.0,4,30,4.0,64.0
3023,73.0,21,30,7.0,64.0
3024,78.0,6,120,5.0,64.0
3025,78.0,4,15,6.0,64.0
3026,78.0,6,120,4.0,64.0
3027,79.0,27,30,6.0,64.0
3028,90.0,9,60,2.0,64.0
3029,50.0,34,150,10.0,64.0
3030,69.0,30,180,8.0,64.0
3031,93.0,3,90,1.0,64.0
3032,98.0,1,60,0.0,64.0
3033,74.0,5,90,7.0,64.0
3034,50.0,25,40,3.0,64.0
3035,78.0,40,90,6.0,64.0
3036,76.0,4,40,5.0,64.0
3037,76.0,2,40,6.0,64.0
3038,76.0,2,40,4.0,64.0
3039,95.0,2,30,0.0,64.0
3040,92.0,1,40,1.0,64.0
3041,76.0,76,40,7.0,64.0
3042,50.0,3,30,3.0,64.0
3043,86.0,2,30,2.0,64.0
3044,45.0,1,150,10.0,64.0
3045,88.0,5,120,2.0,64.0
3046,93.0,4,120,1.0,64.0
3047,76.0,9,150,5.0,64.0
3048,97.0,8,150,0.0,64.0
3049,45.0,18,40,3.0,64.0
3050,69.0,7,120,8.0,64.0
3051,73.0,14,150,7.0,64.0
3052,76.0,46,60,6.0,64.0
3053,76.0,12,60,4.0,64.0
3054,69.0,50,60,6.0,64.0
3055,69.0,2,40,4.0,64.0
3056,71.0,1,60,6.0,64.0
3057,71.0,62,40,4.0,64.0
3058,73.0,113,60,6.0,64.0
3059,73.0,4,60,4.0,64.0
3060,73.0,2,40,4.0,64.0
3061,73.0,41,60,6.0,64.0
3062,74.0,83,40,6.0,64.0
3063,74.0,2,40,4.0,64.0
3064,76.0,0,60,6.0,64.0
3065,76.0,109,60,4.0,64.0
3066,73.0,1,40,4.0,64.0
3067,73.0,51,40,6.0,64.0
3068,74.0,3,40,4.0,64.0
3069,74.0,67,40,6.0,64.0
3070,76.0,107,60,6.0,64.0
3071,76.0,9,60,4.0,64.0
3072,76.0,34,60,4.0,64.0
3073,76.0,6,40,6.0,64.0
3074,78.0,4,40,4.0,64.0
3075,78.0,77,40,6.0,64.0
3076,79.0,105,60,6.0,64.0
3077,79.0,9,60,4.0,64.0
3078,79.0,7,40,6.0,64.0
3079,79.0,35,60,4.0,64.0
3080,78.0,5,40,6.0,64.0
3081,78.0,78,40,4.0,64.0
3082,79.0,104,60,6.0,64.0
3083,79.0,6,60,4.0,64.0
3084,81.0,14,40,6.0,64.0
3085,81.0,34,60,4.0,64.0
3086,79.0,71,40,4.0,64.0
3087,79.0,4,40,6.0,64.0
3088,78.0,113,60,6.0,64.0
3089,78.0,3,40,4.0,64.0
3090,62.0,3,60,5.0,64.0
3091,81.0,1,40,6.0,64.0
3092,62.0,44,60,7.0,64.0
3093,81.0,8,40,4.0,64.0
3094,64.0,5,60,5.0,64.0
3095,64.0,62,60,7.0,64.0
3096,66.0,114,60,5.0,64.0
3097,66.0,7,60,7.0,64.0
3098,74.0,5,40,6.0,64.0
3099,74.0,1,40,4.0,64.0
3100,78.0,4,180,6.0,64.0
3101,66.0,6,40,7.0,64.0
3102,78.0,19,150,4.0,64.0
3103,66.0,35,60,5.0,64.0
3104,67.0,12,40,7.0,64.0
3105,67.0,60,40,5.0,64.0
3106,69.0,100,60,7.0,64.0
3107,69.0,0,60,5.0,64.0
3108,66.0,48,60,7.0,64.0
3109,66.0,6,40,5.0,64.0
3110,81.0,0,40,4.0,64.0
3111,81.0,1,40,6.0,64.0
3112,67.0,13,40,5.0,64.0
3113,67.0,57,60,7.0,64.0
3114,69.0,0,60,5.0,64.0
3115,69.0,110,60,7.0,64.0
3116,72.0,7,60,4.0,64.0
3117,72.0,10,40,6.0,64.0
3118,69.0,41,60,5.0,64.0
3119,78.0,9,180,6.0,64.0
3120,69.0,3,40,7.0,64.0
3121,78.0,11,150,4.0,64.0
3122,71.0,4,40,7.0,64.0
3123,71.0,59,40,5.0,64.0
3124,72.0,0,60,7.0,64.0
3125,72.0,104,60,5.0,64.0
3126,81.0,3,60,6.0,64.0
3127,72.0,3,40,7.0,64.0
3128,81.0,9,40,4.0,64.0
3129,72.0,32,60,5.0,64.0
3130,71.0,73,60,7.0,64.0
3131,71.0,6,40,5.0,64.0
3132,72.0,108,60,7.0,64.0
3133,72.0,0,60,5.0,64.0
3134,74.0,6,60,4.0,64.0
3135,74.0,2,60,6.0,64.0
3136,74.0,3,60,7.0,64.0
3137,78.0,40,60,4.0,64.0
3138,78.0,0,60,6.0,64.0
3139,74.0,8,60,5.0,64.0
3140,72.0,68,40,7.0,64.0
3141,72.0,0,40,5.0,64.0
3142,71.0,105,60,7.0,64.0
3143,71.0,2,60,5.0,64.0
3144,79.0,2,40,4.0,64.0
3145,79.0,11,40,6.0,64.0
3146,83.0,3,40,4.0,64.0
3147,67.0,4,60,7.0,64.0
3148,83.0,6,40,6.0,64.0
3149,67.0,47,60,5.0,64.0
3150,69.0,4,60,7.0,64.0
3151,69.0,58,60,5.0,64.0
3152,71.0,10,60,7.0,64.0
3153,71.0,115,60,5.0,64.0
3154,74.0,4,40,4.0,64.0
3155,74.0,4,40,6.0,64.0
3156,71.0,39,60,5.0,64.0
3157,71.0,1,60,7.0,64.0
3158,80.0,7,180,4.0,64.0
3159,80.0,0,180,6.0,64.0
3160,73.0,69,60,5.0,64.0
3161,73.0,0,60,7.0,64.0
3162,74.0,15,60,7.0,64.0
3163,74.0,93,60,5.0,64.0
3164,74.0,2,60,7.0,64.0
3165,83.0,8,40,6.0,64.0
3166,74.0,35,60,5.0,64.0
3167,83.0,1,40,4.0,64.0
3168,73.0,3,40,7.0,64.0
3169,73.0,73,40,5.0,64.0
3170,74.0,9,60,7.0,64.0
3171,74.0,99,60,5.0,64.0
3172,76.0,4,60,6.0,64.0
3173,76.0,1,60,4.0,64.0
3174,76.0,3,60,7.0,64.0
3175,76.0,36,60,5.0,64.0
3176,80.0,8,40,4.0,64.0
3177,80.0,7,60,6.0,64.0
3178,74.0,3,40,7.0,64.0
3179,74.0,68,40,5.0,64.0
3180,73.0,11,60,7.0,64.0
3181,81.0,2,60,4.0,64.0
3182,73.0,5,60,5.0,64.0
3183,81.0,36,60,6.0,64.0
3184,76.0,1,40,4.0,64.0
3185,76.0,61,40,6.0,64.0
3186,73.0,0,40,4.0,64.0
3187,76.0,2,60,7.0,64.0
3188,76.0,3,40,5.0,64.0
3189,73.0,6,40,6.0,64.0
3190,57.0,47,40,8.0,64.0
3191,74.0,1,60,4.0,64.0
3192,59.0,0,60,8.0,64.0
3193,74.0,53,60,6.0,64.0
3194,76.0,5,60,4.0,64.0
3195,61.0,45,60,8.0,64.0
3196,69.0,7,40,5.0,64.0
3197,76.0,10,60,6.0,64.0
3198,69.0,1,40,7.0,64.0
3199,78.0,3,60,4.0,64.0
3200,78.0,66,60,6.0,64.0
3201,76.0,25,60,4.0,64.0
3202,76.0,7,60,6.0,64.0
3203,61.0,4,60,8.0,64.0
3204,73.0,10,180,7.0,64.0
3205,73.0,3,180,5.0,64.0
3206,62.0,8,40,8.0,64.0
3207,78.0,3,60,4.0,64.0
3208,78.0,65,40,6.0,64.0
3209,64.0,36,60,8.0,64.0
3210,79.0,1,60,4.0,64.0
3211,79.0,2,60,6.0,64.0
3212,76.0,57,60,4.0,64.0
3213,76.0,5,40,6.0,64.0
3214,69.0,9,60,6.0,64.0
3215,69.0,29,60,4.0,64.0
3216,76.0,6,40,5.0,64.0
3217,76.0,7,40,7.0,64.0
3218,61.0,3,60,8.0,64.0
3219,62.0,7,40,8.0,64.0
3220,71.0,2,40,6.0,64.0
3221,71.0,58,40,4.0,64.0
3222,64.0,6,60,8.0,64.0
3223,73.0,39,60,6.0,64.0
3224,73.0,1,60,4.0,64.0
3225,67.0,8,40,5.0,64.0
3226,67.0,1,40,7.0,64.0
3227,74.0,64,60,6.0,64.0
3228,74.0,1,40,4.0,64.0
3229,73.0,5,60,6.0,64.0
3230,73.0,14,60,4.0,64.0
3231,73.0,6,180,5.0,64.0
3232,64.0,30,60,8.0,64.0
3233,73.0,32,180,7.0,64.0
3234,74.0,67,60,6.0,64.0
3235,74.0,9,40,4.0,64.0
3236,66.0,3,40,8.0,64.0
3237,76.0,11,60,6.0,64.0
3238,76.0,3,60,4.0,64.0
3239,67.0,5,60,8.0,64.0
3240,74.0,1,60,4.0,64.0
3241,74.0,56,60,6.0,64.0
3242,73.0,3,60,4.0,64.0
3243,73.0,6,60,6.0,64.0
3244,76.0,3,60,5.0,64.0
3245,76.0,0,40,7.0,64.0
3246,67.0,35,60,8.0,64.0
3247,66.0,73,60,8.0,64.0
3248,74.0,3,40,6.0,64.0
3249,74.0,1,60,4.0,64.0
3250,69.0,1,60,5.0,64.0
3251,76.0,2,60,6.0,64.0
3252,67.0,4,60,8.0,64.0
3253,76.0,1,60,4.0,64.0
3254,69.0,54,60,7.0,64.0
3255,74.0,38,60,6.0,64.0
3256,74.0,3,60,4.0,64.0
3257,73.0,9,60,6.0,64.0
3258,73.0,12,60,4.0,64.0
3259,73.0,9,40,5.0,64.0
3260,69.0,37,60,8.0,64.0
3261,73.0,0,40,7.0,64.0
3262,71.0,6,60,6.0,64.0
3263,71.0,45,60,4.0,64.0
3264,67.0,8,60,8.0,64.0
3265,69.0,0,60,6.0,64.0
3266,66.0,10,40,8.0,64.0
3267,69.0,37,60,4.0,64.0
3268,74.0,5,60,5.0,64.0
3269,74.0,2,60,7.0,64.0
3270,69.0,2,40,5.0,64.0
3271,74.0,2,60,6.0,64.0
3272,74.0,31,90,4.0,64.0
3273,69.0,33,40,7.0,64.0
3274,66.0,14,60,5.0,64.0
3275,73.0,24,90,4.0,64.0
3276,73.0,1,60,6.0,64.0
3277,66.0,0,60,7.0,64.0
3278,69.0,2,40,8.0,64.0
3279,50.0,6,60,10.0,64.0
3280,67.0,2,40,5.0,64.0
3281,71.0,4,60,6.0,64.0
3282,67.0,8,40,7.0,64.0
3283,71.0,53,60,4.0,64.0
3284,52.0,3,60,10.0,64.0
3285,69.0,3,60,6.0,64.0
3286,69.0,3,60,7.0,64.0
3287,69.0,6,60,5.0,64.0
3288,69.0,12,60,4.0,64.0
3289,54.0,21,60,10.0,64.0
3290,62.0,0,40,8.0,64.0
3291,67.0,13,60,6.0,64.0
3292,71.0,8,40,5.0,64.0
3293,67.0,38,60,4.0,64.0
3294,71.0,9,40,7.0,64.0
3295,69.0,4,60,5.0,64.0
3296,66.0,8,40,6.0,64.0
3297,69.0,2,60,7.0,64.0
3298,66.0,2,60,4.0,64.0
3299,54.0,28,60,10.0,64.0
3300,66.0,0,180,8.0,64.0
3301,64.0,7,40,6.0,64.0
3302,71.0,1,40,5.0,64.0
3303,71.0,2,40,7.0,64.0
3304,64.0,2,40,4.0,64.0
3305,55.0,77,40,10.0,64.0
3306,72.0,6,60,5.0,64.0
3307,57.0,9,60,10.0,64.0
3308,62.0,1,90,6.0,64.0
3309,72.0,5,60,7.0,64.0
3310,62.0,14,60,4.0,64.0
3311,69.0,4,40,5.0,64.0
3312,69.0,77,40,7.0,64.0
3313,62.0,9,60,7.0,64.0
3314,62.0,0,60,5.0,64.0
3315,54.0,6,60,10.0,64.0
3316,74.0,3,90,0.0,64.0
3317,69.0,30,60,8.0,64.0
3318,74.0,0,90,6.0,64.0
3319,74.0,59,90,4.0,64.0
3320,64.0,6,40,7.0,64.0
3321,55.0,6,60,10.0,64.0
3322,64.0,5,40,5.0,64.0
3323,66.0,5,60,7.0,64.0
3324,66.0,2,60,5.0,64.0
3325,57.0,16,90,10.0,64.0
3326,74.0,6,90,0.0,64.0
3327,60.0,18,40,8.0,64.0
3328,74.0,0,90,6.0,64.0
3329,74.0,55,90,4.0,64.0
3330,67.0,10,40,7.0,64.0
3331,67.0,1,60,5.0,64.0
3332,66.0,2,60,7.0,64.0
3333,66.0,27,60,5.0,64.0
3334,74.0,4,90,0.0,64.0
3335,74.0,7,90,6.0,64.0
3336,74.0,1,90,4.0,64.0
3337,57.0,26,60,10.0,64.0
3338,66.0,9,150,8.0,64.0
3339,67.0,3,60,7.0,64.0
3340,67.0,0,40,5.0,64.0
3341,59.0,62,60,10.0,64.0
3342,69.0,22,90,7.0,64.0
3343,69.0,9,60,5.0,64.0
3344,60.0,8,60,10.0,64.0
3345,74.0,2,90,6.0,64.0
3346,74.0,7,90,0.0,64.0
3347,74.0,1,90,4.0,64.0
3348,67.0,17,60,5.0,64.0
3349,67.0,35,60,7.0,64.0
3350,66.0,6,60,5.0,64.0
3351,69.0,4,40,8.0,64.0
3352,66.0,5,60,7.0,64.0
3353,86.0,3,90,1.0,64.0
3354,74.0,6,90,6.0,64.0
3355,78.0,9,90,0.0,64.0
3356,81.0,1,90,2.0,64.0
3357,50.0,12,40,3.0,64.0
3358,60.0,24,60,10.0,64.0
3359,74.0,3,90,4.0,64.0
3360,67.0,0,40,5.0,64.0
3361,59.0,1,40,10.0,64.0
3362,67.0,50,60,7.0,64.0
3363,74.0,7,90,6.0,64.0
3364,60.0,2,60,10.0,64.0
3365,86.0,1,90,1.0,64.0
3366,62.0,2,60,8.0,64.0
3367,81.0,13,60,2.0,64.0
3368,74.0,4,90,4.0,64.0
3369,78.0,17,90,0.0,64.0
3370,69.0,12,60,5.0,64.0
3371,69.0,4,60,7.0,64.0
3372,50.0,13,40,3.0,64.0
3373,67.0,19,60,5.0,64.0
3374,67.0,27,90,7.0,64.0
3375,66.0,6,60,7.0,64.0
3376,66.0,10,60,5.0,64.0
3377,66.0,3,60,8.0,64.0
3378,74.0,0,90,4.0,64.0
3379,74.0,10,90,6.0,64.0
3380,78.0,2,90,2.0,64.0
3381,86.0,3,90,1.0,64.0
3382,62.0,16,60,10.0,64.0
3383,50.0,4,40,3.0,64.0
3384,81.0,4,60,0.0,64.0
3385,60.0,1,40,10.0,64.0
3386,64.0,67,40,5.0,64.0
3387,64.0,1,40,7.0,64.0
3388,74.0,11,90,6.0,64.0
3389,74.0,21,90,4.0,64.0
3390,67.0,9,60,8.0,64.0
3391,62.0,2,60,7.0,64.0
3392,62.0,5,60,5.0,64.0
3393,59.0,4,60,10.0,64.0
3394,74.0,0,150,2.0,64.0
3395,86.0,14,150,1.0,64.0
3396,50.0,2,40,3.0,64.0
3397,79.0,22,120,0.0,64.0
3398,71.0,21,60,8.0,64.0
3399,76.0,1,90,6.0,64.0
3400,68.0,5,40,8.0,64.0
3401,76.0,6,90,4.0,64.0
3402,71.0,1,40,5.0,64.0
3403,52.0,26,60,10.0,64.0
3404,71.0,19,40,7.0,64.0
3405,54.0,12,40,10.0,64.0
3406,69.0,51,60,8.0,64.0
3407,76.0,3,90,6.0,64.0
3408,56.0,1,60,10.0,64.0
3409,76.0,4,90,4.0,64.0
3410,71.0,31,60,8.0,64.0
3411,64.0,10,40,5.0,64.0
3412,64.0,10,40,7.0,64.0
3413,73.0,69,40,8.0,64.0
3414,71.0,10,60,8.0,64.0
3415,76.0,3,90,6.0,64.0
3416,68.0,5,180,5.0,64.0
3417,76.0,7,90,4.0,64.0
3418,56.0,27,60,10.0,64.0
3419,68.0,5,180,7.0,64.0
3420,73.0,4,40,8.0,64.0
3421,57.0,67,40,10.0,64.0
3422,76.0,72,90,6.0,64.0
3423,74.0,10,60,8.0,64.0
3424,76.0,0,90,4.0,64.0
3425,59.0,19,60,10.0,64.0
3426,71.0,3,40,8.0,64.0
3427,64.0,3,60,8.0,64.0
3428,56.0,3,40,10.0,64.0
3429,76.0,1,90,4.0,64.0
3430,76.0,0,90,6.0,64.0
3431,76.0,66,90,0.0,64.0
3432,71.0,9,60,7.0,64.0
3433,71.0,33,60,5.0,64.0
3434,66.0,1,60,8.0,64.0
3435,57.0,2,40,10.0,64.0
3436,68.0,11,60,8.0,64.0
3437,59.0,31,60,10.0,64.0
3438,76.0,57,90,0.0,64.0
3439,76.0,5,90,6.0,64.0
3440,76.0,0,90,4.0,64.0
3441,62.0,0,40,7.0,64.0
3442,62.0,3,40,5.0,64.0
3443,69.0,5,60,8.0,64.0
3444,68.0,33,40,8.0,64.0
3445,76.0,4,90,6.0,64.0
3446,76.0,7,90,4.0,64.0
3447,59.0,14,60,10.0,64.0
3448,68.0,3,180,7.0,64.0
3449,76.0,3,90,0.0,64.0
3450,68.0,10,180,5.0,64.0
3451,69.0,1,40,8.0,64.0
3452,61.0,82,40,10.0,64.0
3453,62.0,12,90,10.0,64.0
3454,71.0,3,60,8.0,64.0
3455,76.0,62,120,0.0,64.0
3456,76.0,3,90,6.0,64.0
3457,76.0,11,90,4.0,64.0
3458,69.0,2,40,8.0,64.0
3459,68.0,3,60,8.0,64.0
3460,71.0,8,60,7.0,64.0
3461,62.0,23,60,10.0,64.0
3462,76.0,2,90,6.0,64.0
3463,71.0,1,40,5.0,64.0
3464,74.0,6,90,2.0,64.0
3465,80.0,1,90,0.0,64.0
3466,76.0,5,90,4.0,64.0
3467,50.0,3,40,3.0,64.0
3468,88.0,0,90,1.0,64.0
3469,61.0,4,60,10.0,64.0
3470,69.0,65,60,8.0,64.0
3471,62.0,7,90,10.0,64.0
3472,76.0,3,90,6.0,64.0
3473,76.0,1,90,4.0,64.0
3474,71.0,12,60,8.0,64.0
3475,64.0,5,40,7.0,64.0
3476,64.0,8,60,5.0,64.0
3477,80.0,7,90,0.0,64.0
3478,74.0,10,90,2.0,64.0
3479,50.0,2,40,3.0,64.0
3480,88.0,4,90,1.0,64.0
3481,69.0,47,60,8.0,64.0
3482,68.0,11,60,8.0,64.0
3483,64.0,6,60,10.0,64.0
3484,76.0,4,90,6.0,64.0
3485,76.0,9,90,4.0,64.0
3486,68.0,0,40,5.0,64.0
3487,68.0,15,40,7.0,64.0
3488,83.0,1,90,0.0,64.0
3489,74.0,12,90,2.0,64.0
3490,50.0,8,40,3.0,64.0
3491,88.0,1,60,1.0,64.0
3492,62.0,5,60,10.0,64.0
3493,66.0,69,60,8.0,64.0
3494,76.0,12,60,6.0,64.0
3495,61.0,11,60,10.0,64.0
3496,69.0,2,60,7.0,64.0
3497,76.0,0,60,4.0,64.0
3498,69.0,1,60,5.0,64.0
3499,81.0,1,150,2.0,64.0
3500,64.0,41,240,8.0,64.0
3501,81.0,19,120,0.0,64.0
3502,88.0,22,120,1.0,64.0
3503,45.0,11,60,3.0,64.0
3504,81.0,6,40,7.0,64.0
3505,81.0,27,40,5.0,64.0
3506,69.0,0,60,6.0,64.0
3507,73.0,3,60,7.0,64.0
3508,73.0,25,60,5.0,64.0
3509,69.0,5,60,4.0,64.0
3510,64.0,8,40,10.0,64.0
3511,71.0,2,40,6.0,64.0
3512,71.0,7,40,4.0,64.0
3513,74.0,4,40,5.0,64.0
3514,74.0,30,40,7.0,64.0
3515,73.0,5,60,6.0,64.0
3516,73.0,3,60,4.0,64.0
3517,76.0,1,60,7.0,64.0
3518,76.0,30,60,5.0,64.0
3519,57.0,4,40,10.0,64.0
3520,78.0,3,40,7.0,64.0
3521,78.0,71,40,5.0,64.0
3522,76.0,5,60,7.0,64.0
3523,69.0,3,90,8.0,64.0
3524,76.0,24,60,5.0,64.0
3525,61.0,7,180,10.0,64.0
3526,73.0,0,60,6.0,64.0
3527,73.0,11,60,4.0,64.0
3528,78.0,2,40,5.0,64.0
3529,78.0,1,40,7.0,64.0
3530,74.0,7,40,6.0,64.0
3531,74.0,70,40,4.0,64.0
3532,69.0,12,120,8.0,64.0
3533,79.0,2,60,7.0,64.0
3534,79.0,3,60,5.0,64.0
3535,76.0,4,60,4.0,64.0
3536,76.0,27,60,6.0,64.0
3537,76.0,0,40,7.0,64.0
3538,76.0,60,60,5.0,64.0
3539,69.0,3,60,7.0,64.0
3540,69.0,32,60,5.0,64.0
3541,64.0,4,60,10.0,64.0
3542,73.0,2,60,6.0,64.0
3543,69.0,9,90,8.0,64.0
3544,73.0,2,40,4.0,64.0
3545,71.0,1,60,7.0,64.0
3546,71.0,0,60,5.0,64.0
3547,74.0,62,60,4.0,64.0
3548,74.0,8,40,6.0,64.0
3549,73.0,1,60,7.0,64.0
3550,69.0,10,90,8.0,64.0
3551,73.0,37,60,5.0,64.0
3552,76.0,4,60,4.0,64.0
3553,76.0,4,60,6.0,64.0
3554,55.0,0,60,10.0,64.0
3555,74.0,0,60,7.0,64.0
3556,74.0,65,60,5.0,64.0
3557,73.0,32,60,7.0,64.0
3558,73.0,3,60,5.0,64.0
3559,69.0,7,90,8.0,64.0
3560,76.0,1,60,4.0,64.0
3561,76.0,0,60,6.0,64.0
3562,61.0,13,180,10.0,64.0
3563,78.0,4,40,4.0,64.0
3564,78.0,1,60,6.0,64.0
3565,74.0,69,60,7.0,64.0
3566,74.0,2,40,5.0,64.0
3567,69.0,30,90,8.0,64.0
3568,79.0,8,60,4.0,64.0
3569,76.0,2,60,7.0,64.0
3570,79.0,9,60,6.0,64.0
3571,76.0,0,60,5.0,64.0
3572,74.0,60,60,7.0,64.0
3573,74.0,2,60,5.0,64.0
3574,69.0,21,90,8.0,64.0
3575,73.0,0,60,7.0,64.0
3576,79.0,1,60,6.0,64.0
3577,79.0,2,60,4.0,64.0
3578,73.0,13,60,5.0,64.0
3579,64.0,4,60,10.0,64.0
3580,78.0,3,60,4.0,64.0
3581,78.0,0,60,6.0,64.0
3582,74.0,1,40,7.0,64.0
3583,74.0,83,40,5.0,64.0
3584,69.0,5,90,8.0,64.0
3585,79.0,0,90,6.0,64.0
3586,76.0,1,60,5.0,64.0
3587,79.0,29,90,4.0,64.0
3588,76.0,0,60,7.0,64.0
3589,57.0,6,60,10.0,64.0
3590,74.0,8,60,7.0,64.0
3591,74.0,51,60,5.0,64.0
3592,69.0,27,90,8.0,64.0
3593,73.0,3,60,7.0,64.0
3594,81.0,3,60,6.0,64.0
3595,73.0,11,60,5.0,64.0
3596,61.0,2,40,10.0,64.0
3597,81.0,10,60,4.0,64.0
3598,71.0,6,60,7.0,64.0
3599,79.0,2,40,6.0,64.0
3600,71.0,3,60,5.0,64.0
3601,79.0,71,40,4.0,64.0
3602,69.0,3,90,8.0,64.0
3603,69.0,0,60,7.0,64.0
3604,78.0,3,60,6.0,64.0
3605,50.0,13,60,10.0,64.0
3606,69.0,1,60,5.0,64.0
3607,78.0,88,60,4.0,64.0
3608,62.0,1,60,8.0,64.0
3609,62.0,8,60,10.0,64.0
3610,78.0,3,40,6.0,64.0
3611,66.0,1,40,7.0,64.0
3612,66.0,30,60,5.0,64.0
3613,78.0,5,40,4.0,64.0
3614,76.0,9,40,6.0,64.0
3615,64.0,66,40,8.0,64.0
3616,76.0,0,40,4.0,64.0
3617,78.0,16,90,6.0,64.0
3618,62.0,13,60,8.0,64.0
3619,78.0,1,90,4.0,64.0
3620,55.0,16,60,10.0,64.0
3621,71.0,4,270,7.0,64.0
3622,71.0,17,270,5.0,64.0
3623,61.0,69,40,8.0,64.0
3624,59.0,10,40,8.0,64.0
3625,59.0,27,60,10.0,64.0
3626,79.0,0,40,6.0,64.0
3627,79.0,12,40,4.0,64.0
3628,62.0,3,40,8.0,64.0
3629,78.0,12,40,6.0,64.0
3630,78.0,56,40,4.0,64.0
3631,76.0,11,90,6.0,64.0
3632,61.0,4,60,8.0,64.0
3633,76.0,15,90,4.0,64.0
3634,49.0,11,60,10.0,64.0
3635,62.0,61,60,8.0,64.0
3636,61.0,7,60,8.0,64.0
3637,61.0,2,60,10.0,64.0
3638,76.0,1,40,6.0,64.0
3639,70.0,2,60,5.0,64.0
3640,76.0,10,40,4.0,64.0
3641,70.0,30,60,7.0,64.0
3642,59.0,7,60,8.0,64.0
3643,74.0,2,40,6.0,64.0
3644,74.0,9,40,4.0,64.0
3645,71.0,53,60,5.0,64.0
3646,71.0,1,60,7.0,64.0
3647,58.0,13,60,8.0,64.0
3648,76.0,21,90,6.0,64.0
3649,76.0,24,90,4.0,64.0
3650,73.0,6,60,7.0,64.0
3651,73.0,0,60,5.0,64.0
3652,54.0,9,60,10.0,64.0
3653,71.0,43,60,7.0,64.0
3654,71.0,0,60,5.0,64.0
3655,61.0,0,60,8.0,64.0
3656,70.0,6,60,7.0,64.0
3657,70.0,31,60,5.0,64.0
3658,78.0,2,60,6.0,64.0
3659,58.0,3,60,10.0,64.0
3660,78.0,5,40,4.0,64.0
3661,76.0,2,40,6.0,64.0
3662,76.0,0,40,4.0,64.0
3663,68.0,3,40,7.0,64.0
3664,68.0,80,40,5.0,64.0
3665,74.0,25,90,4.0,64.0
3666,66.0,3,60,7.0,64.0
3667,74.0,2,60,6.0,64.0
3668,66.0,0,60,5.0,64.0
3669,62.0,8,60,8.0,64.0
3670,47.0,6,60,10.0,64.0
3671,78.0,48,60,7.0,64.0
3672,78.0,14,40,5.0,64.0
3673,66.0,17,40,8.0,64.0
3674,59.0,0,60,10.0,64.0
3675,74.0,1,60,6.0,64.0
3676,71.0,19,60,7.0,64.0
3677,71.0,13,60,5.0,64.0
3678,74.0,3,60,4.0,64.0
3679,74.0,1,40,0.0,64.0
3680,74.0,13,90,1.0,64.0
3681,76.0,3,40,6.0,64.0
3682,76.0,5,40,4.0,64.0
3683,76.0,4,40,0.0,64.0
3684,73.0,1,40,7.0,64.0
3685,73.0,49,60,5.0,64.0
3686,78.0,3,60,6.0,64.0
3687,78.0,1,60,4.0,64.0
3688,78.0,31,60,0.0,64.0
3689,57.0,4,60,10.0,64.0
3690,74.0,8,60,7.0,64.0
3691,59.0,3,40,8.0,64.0
3692,74.0,1,60,5.0,64.0
3693,74.0,0,90,1.0,64.0
3694,76.0,13,40,7.0,64.0
3695,76.0,52,40,5.0,64.0
3696,74.0,1,60,7.0,64.0
3697,55.0,6,90,10.0,64.0
3698,78.0,5,40,6.0,64.0
3699,62.0,1,180,8.0,64.0
3700,78.0,8,40,4.0,64.0
3701,74.0,22,60,5.0,64.0
3702,78.0,3,40,0.0,64.0
3703,74.0,4,90,1.0,64.0
3704,79.0,6,40,6.0,64.0
3705,76.0,65,60,7.0,64.0
3706,76.0,4,40,5.0,64.0
3707,79.0,0,40,0.0,64.0
3708,79.0,6,40,4.0,64.0
3709,81.0,8,90,6.0,64.0
3710,81.0,14,90,0.0,64.0
3711,78.0,5,60,7.0,64.0
3712,54.0,7,90,10.0,64.0
3713,81.0,1,60,4.0,64.0
3714,78.0,6,60,5.0,64.0
3715,74.0,6,90,1.0,64.0
3716,81.0,6,40,5.0,64.0
3717,81.0,52,40,7.0,64.0
3718,78.0,2,40,6.0,64.0
3719,74.0,11,90,8.0,64.0
3720,74.0,3,60,5.0,64.0
3721,74.0,17,60,7.0,64.0
3722,74.0,4,90,1.0,64.0
3723,78.0,8,40,0.0,64.0
3724,78.0,0,40,4.0,64.0
3725,74.0,2,90,2.0,64.0
3726,59.0,6,60,10.0,64.0
3727,76.0,0,40,5.0,64.0
3728,79.0,3,40,6.0,64.0
3729,76.0,5,40,7.0,64.0
3730,79.0,4,40,0.0,64.0
3731,79.0,62,40,4.0,64.0
3732,74.0,2,120,8.0,64.0
3733,78.0,1,60,5.0,64.0
3734,81.0,10,90,6.0,64.0
3735,81.0,1,60,0.0,64.0
3736,78.0,16,60,7.0,64.0
3737,74.0,7,90,1.0,64.0
3738,57.0,4,60,10.0,64.0
3739,81.0,0,60,4.0,64.0
3740,74.0,8,90,2.0,64.0
3741,79.0,51,60,5.0,64.0
3742,79.0,5,40,7.0,64.0
3743,78.0,5,40,7.0,64.0
3744,78.0,15,40,5.0,64.0
3745,55.0,13,60,10.0,64.0
3746,74.0,3,90,8.0,64.0
3747,81.0,1,60,4.0,64.0
3748,74.0,6,90,1.0,64.0
3749,81.0,3,40,0.0,64.0
3750,81.0,1,60,6.0,64.0
3751,74.0,14,60,2.0,64.0
3752,79.0,1,40,5.0,64.0
3753,79.0,1,40,7.0,64.0
3754,83.0,2,40,6.0,64.0
3755,83.0,72,40,4.0,64.0
3756,83.0,0,40,0.0,64.0
3757,81.0,7,60,5.0,64.0
3758,81.0,1,60,7.0,64.0
3759,54.0,14,60,10.0,64.0
3760,84.0,6,60,6.0,64.0
3761,74.0,0,90,8.0,64.0
3762,84.0,3,60,4.0,64.0
3763,84.0,2,90,0.0,64.0
3764,74.0,16,90,1.0,64.0
3765,74.0,3,60,2.0,64.0
3766,79.0,46,60,5.0,64.0
3767,79.0,2,60,7.0,64.0
3768,78.0,3,60,5.0,64.0
3769,78.0,3,60,7.0,64.0
3770,57.0,13,60,10.0,64.0
3771,74.0,13,90,8.0,64.0
3772,90.0,13,40,1.0,64.0
3773,84.0,2,30,0.0,64.0
3774,84.0,2,60,4.0,64.0
3775,84.0,2,60,6.0,64.0
3776,74.0,2,90,2.0,64.0
3777,50.0,4,40,3.0,64.0
3778,91.0,1,40,1.0,64.0
3779,79.0,2,40,5.0,64.0
3780,83.0,74,60,4.0,64.0
3781,79.0,5,40,7.0,64.0
3782,83.0,0,40,6.0,64.0
3783,83.0,5,40,0.0,64.0
3784,74.0,3,90,8.0,64.0
3785,93.0,2,90,1.0,64.0
3786,81.0,4,60,5.0,64.0
3787,50.0,0,60,10.0,64.0
3788,84.0,2,60,6.0,64.0
3789,84.0,13,60,4.0,64.0
3790,84.0,7,90,0.0,64.0
3791,81.0,0,60,7.0,64.0
3792,78.0,9,90,2.0,64.0
3793,50.0,2,60,3.0,64.0
3794,79.0,14,60,5.0,64.0
3795,79.0,36,60,7.0,64.0
3796,54.0,7,60,10.0,64.0
3797,78.0,5,40,5.0,64.0
3798,69.0,9,90,8.0,64.0
3799,78.0,18,60,7.0,64.0
3800,95.0,6,30,1.0,64.0
3801,86.0,0,30,0.0,64.0
3802,74.0,0,90,2.0,64.0
3803,86.0,7,60,4.0,64.0
3804,86.0,2,60,6.0,64.0
3805,50.0,6,30,3.0,64.0
3806,76.0,10,60,5.0,64.0
3807,84.0,2,30,0.0,64.0
3808,76.0,58,60,7.0,64.0
3809,93.0,6,30,1.0,64.0
3810,84.0,3,40,6.0,64.0
3811,84.0,5,40,4.0,64.0
3812,74.0,1,60,5.0,64.0
3813,91.0,28,150,1.0,64.0
3814,43.0,2,60,10.0,64.0
3815,71.0,21,120,8.0,64.0
3816,83.0,0,150,0.0,64.0
3817,74.0,0,60,7.0,64.0
3818,83.0,1,60,6.0,64.0
3819,86.0,3,120,2.0,64.0
3820,83.0,8,60,4.0,64.0
3821,50.0,28,60,3.0,64.0
3822,79.0,13,40,6.0,64.0
3823,79.0,5,40,4.0,64.0
3824,71.0,5,40,5.0,64.0
3825,76.0,0,60,6.0,64.0
3826,55.0,3,60,10.0,64.0
3827,76.0,37,60,4.0,64.0
3828,71.0,14,40,7.0,64.0
3829,71.0,55,120,8.0,64.0
3830,78.0,1,60,6.0,64.0
3831,78.0,12,40,4.0,64.0
3832,79.0,5,60,6.0,64.0
3833,49.0,23,60,10.0,64.0
3834,76.0,27,300,5.0,64.0
3835,79.0,17,60,4.0,64.0
3836,76.0,6,270,7.0,64.0
3837,71.0,47,90,8.0,64.0
3838,81.0,6,40,6.0,64.0
3839,81.0,4,30,4.0,64.0
3840,78.0,9,40,6.0,64.0
3841,78.0,10,40,4.0,64.0
3842,52.0,6,60,10.0,64.0
3843,71.0,63,90,8.0,64.0
3844,91.0,4,40,1.0,64.0
3845,83.0,3,40,0.0,64.0
3846,88.0,27,60,2.0,64.0
3847,79.0,1,40,6.0,64.0
3848,79.0,1,40,4.0,64.0
3849,81.0,4,60,6.0,64.0
3850,42.0,2,90,10.0,64.0
3851,81.0,6,40,4.0,64.0
3852,69.0,2,90,8.0,64.0
3853,90.0,3,180,1.0,64.0
3854,81.0,2,150,0.0,64.0
3855,88.0,4,150,2.0,64.0
3856,45.0,1,60,3.0,64.0
3857,78.0,9,40,6.0,64.0
3858,78.0,53,40,4.0,64.0
3859,74.0,7,60,6.0,64.0
3860,69.0,5,90,8.0,64.0
3861,69.0,4,40,7.0,64.0
3862,74.0,15,60,4.0,64.0
3863,54.0,25,60,10.0,64.0
3864,69.0,1,40,5.0,64.0
3865,76.0,2,40,6.0,64.0
3866,76.0,82,40,4.0,64.0
3867,69.0,16,90,8.0,64.0
3868,78.0,4,60,6.0,64.0
3869,74.0,8,270,7.0,64.0
3870,47.0,0,60,10.0,64.0
3871,78.0,13,60,4.0,64.0
3872,74.0,3,300,5.0,64.0
3873,79.0,1,40,6.0,64.0
3874,79.0,73,40,4.0,64.0
3875,69.0,3,90,8.0,64.0
3876,76.0,6,60,6.0,64.0
3877,50.0,5,60,10.0,64.0
3878,76.0,0,60,4.0,64.0
3879,81.0,6,60,0.0,64.0
3880,90.0,0,40,1.0,64.0
3881,86.0,26,40,2.0,64.0
3882,78.0,8,40,6.0,64.0
3883,78.0,58,40,4.0,64.0
3884,67.0,4,90,8.0,64.0
3885,40.0,14,60,10.0,64.0
3886,79.0,0,60,6.0,64.0
3887,79.0,7,60,4.0,64.0
3888,88.0,1,90,1.0,64.0
3889,79.0,2,40,0.0,64.0
3890,86.0,18,60,2.0,64.0
3891,78.0,7,60,6.0,64.0
3892,78.0,41,60,4.0,64.0
3893,78.0,5,40,0.0,64.0
3894,76.0,10,40,6.0,64.0
3895,69.0,7,90,8.0,64.0
3896,76.0,7,40,4.0,64.0
3897,45.0,2,60,10.0,64.0
3898,76.0,9,40,0.0,64.0
3899,73.0,3,60,7.0,64.0
3900,81.0,3,60,2.0,64.0
3901,73.0,16,60,5.0,64.0
3902,93.0,2,60,1.0,64.0
3903,45.0,4,40,3.0,64.0
3904,79.0,3,40,4.0,64.0
3905,79.0,63,40,6.0,64.0
3906,79.0,0,30,0.0,64.0
3907,78.0,6,60,4.0,64.0
3908,69.0,1,90,8.0,64.0
3909,50.0,0,60,10.0,64.0
3910,78.0,6,40,0.0,64.0
3911,78.0,4,60,6.0,64.0
3912,93.0,2,60,1.0,64.0
3913,74.0,7,60,5.0,64.0
3914,74.0,8,40,7.0,64.0
3915,50.0,2,40,3.0,64.0
3916,81.0,13,60,2.0,64.0
3917,76.0,8,40,4.0,64.0
3918,76.0,47,60,6.0,64.0
3919,73.0,2,40,5.0,64.0
3920,76.0,2,30,0.0,64.0
3921,73.0,3,40,7.0,64.0
3922,74.0,2,60,4.0,64.0
3923,69.0,2,120,8.0,64.0
3924,71.0,2,60,7.0,64.0
3925,38.0,3,40,10.0,64.0
3926,71.0,2,60,5.0,64.0
3927,74.0,7,40,0.0,64.0
3928,74.0,9,40,6.0,64.0
3929,93.0,14,60,1.0,64.0
3930,50.0,0,40,3.0,64.0
3931,81.0,7,60,2.0,64.0
3932,78.0,12,40,4.0,64.0
3933,74.0,14,40,7.0,64.0
3934,78.0,0,40,6.0,64.0
3935,74.0,57,60,5.0,64.0
3936,78.0,3,30,0.0,64.0
3937,76.0,2,60,4.0,64.0
3938,73.0,4,60,7.0,64.0
3939,45.0,0,90,10.0,64.0
3940,69.0,11,90,8.0,64.0
3941,93.0,3,150,1.0,64.0
3942,73.0,10,60,5.0,64.0
3943,76.0,10,60,6.0,64.0
3944,76.0,12,120,0.0,64.0
3945,45.0,25,60,3.0,64.0
3946,81.0,10,150,2.0,64.0
3947,81.0,2,40,4.0,64.0
3948,81.0,26,40,6.0,64.0
3949,76.0,1,40,7.0,64.0
3950,69.0,13,90,8.0,64.0
3951,73.0,10,40,6.0,64.0
3952,73.0,4,40,4.0,64.0
3953,76.0,4,40,5.0,64.0
3954,45.0,29,60,10.0,64.0
3955,47.0,7,40,10.0,64.0
3956,74.0,49,60,4.0,64.0
3957,74.0,4,40,6.0,64.0
3958,49.0,19,90,10.0,64.0
3959,69.0,4,90,8.0,64.0
3960,69.0,10,40,7.0,64.0
3961,76.0,12,60,4.0,64.0
3962,69.0,1,40,5.0,64.0
3963,76.0,3,60,6.0,64.0
3964,78.0,10,40,4.0,64.0
3965,78.0,71,40,6.0,64.0
3966,76.0,8,60,4.0,64.0
3967,76.0,24,60,6.0,64.0
3968,69.0,12,90,8.0,64.0
3969,73.0,19,210,7.0,64.0
3970,73.0,0,180,5.0,64.0
3971,49.0,2,60,10.0,64.0
3972,78.0,2,40,4.0,64.0
3973,78.0,1,40,6.0,64.0
3974,50.0,81,40,10.0,64.0
3975,69.0,2,120,8.0,64.0
3976,52.0,3,90,10.0,64.0
3977,79.0,13,60,4.0,64.0
3978,79.0,1,60,6.0,64.0
3979,76.0,4,40,6.0,64.0
3980,76.0,68,40,4.0,64.0
3981,69.0,13,90,8.0,64.0
3982,69.0,21,60,6.0,64.0
3983,49.0,2,60,10.0,64.0
3984,69.0,1,90,0.0,64.0
3985,69.0,3,60,4.0,64.0
3986,76.0,6,40,5.0,64.0
3987,76.0,1,40,7.0,64.0
3988,71.0,9,40,6.0,64.0
3989,71.0,0,60,4.0,64.0
3990,50.0,62,40,10.0,64.0
3991,69.0,4,90,8.0,64.0
3992,73.0,22,60,6.0,64.0
3993,52.0,8,90,10.0,64.0
3994,73.0,4,60,4.0,64.0
3995,67.0,2,40,5.0,64.0
3996,67.0,4,40,7.0,64.0
3997,69.0,0,90,0.0,64.0
3998,74.0,6,40,6.0,64.0
3999,74.0,71,40,4.0,64.0
4000,73.0,3,60,6.0,64.0
4001,69.0,9,90,8.0,64.0
4002,73.0,2,60,4.0,64.0
4003,69.0,5,90,0.0,64.0
4004,52.0,28,60,10.0,64.0
4005,73.0,5,210,7.0,64.0
4006,73.0,1,180,5.0,64.0
4007,74.0,1,40,6.0,64.0
4008,54.0,9,40,10.0,64.0
4009,74.0,75,60,4.0,64.0
4010,55.0,17,90,10.0,64.0
4011,69.0,6,90,8.0,64.0
4012,76.0,4,60,6.0,64.0
4013,69.0,9,90,0.0,64.0
4014,76.0,7,60,4.0,64.0
4015,74.0,0,60,6.0,64.0
4016,74.0,41,40,4.0,64.0
4017,73.0,15,40,6.0,64.0
4018,69.0,1,90,8.0,64.0
4019,73.0,1,60,4.0,64.0
4020,55.0,30,60,10.0,64.0
4021,81.0,3,90,2.0,64.0
4022,76.0,1,90,0.0,64.0
4023,76.0,2,40,7.0,64.0
4024,76.0,2,40,5.0,64.0
4025,45.0,1,40,3.0,64.0
4026,81.0,2,90,1.0,64.0
4027,74.0,6,40,6.0,64.0
4028,54.0,7,40,10.0,64.0
4029,74.0,63,40,4.0,64.0
4030,76.0,7,60,6.0,64.0
4031,55.0,4,90,10.0,64.0
4032,69.0,1,90,8.0,64.0
4033,76.0,17,90,0.0,64.0
4034,69.0,2,60,5.0,64.0
4035,69.0,6,60,7.0,64.0
4036,76.0,10,60,4.0,64.0
4037,81.0,0,90,1.0,64.0
4038,81.0,8,60,2.0,64.0
4039,45.0,4,40,3.0,64.0
4040,79.0,21,60,6.0,64.0
4041,79.0,38,60,4.0,64.0
4042,78.0,9,60,6.0,64.0
4043,69.0,3,90,8.0,64.0
4044,73.0,5,60,5.0,64.0
4045,88.0,6,90,1.0,64.0
4046,57.0,7,60,10.0,64.0
4047,78.0,0,60,4.0,64.0
4048,73.0,5,60,7.0,64.0
4049,45.0,0,40,3.0,64.0
4050,81.0,8,60,0.0,64.0
4051,81.0,4,90,2.0,64.0
4052,76.0,19,60,6.0,64.0
4053,55.0,11,40,10.0,64.0
4054,76.0,38,60,4.0,64.0
4055,69.0,1,90,8.0,64.0
4056,54.0,1,90,10.0,64.0
4057,81.0,23,150,0.0,64.0
4058,74.0,8,40,5.0,64.0
4059,81.0,0,60,6.0,64.0
4060,74.0,19,40,7.0,64.0
4061,90.0,18,90,1.0,64.0
4062,81.0,1,60,4.0,64.0
4063,50.0,28,60,3.0,64.0
4064,74.0,10,120,2.0,64.0
4065,79.0,4,60,6.0,64.0
4066,79.0,11,60,4.0,64.0
4067,62.0,21,90,8.0,64.0
4068,54.0,0,40,10.0,64.0
4069,69.0,0,40,7.0,64.0
4070,69.0,3,40,5.0,64.0
4071,78.0,21,40,6.0,64.0
4072,78.0,3,40,4.0,64.0
4073,93.0,3,40,1.0,64.0
4074,52.0,7,40,10.0,64.0
4075,91.0,2,40,1.0,64.0
4076,79.0,12,40,6.0,64.0
4077,79.0,52,60,4.0,64.0
4078,90.0,16,60,1.0,64.0
4079,66.0,9,60,8.0,64.0
4080,81.0,6,40,6.0,64.0
4081,54.0,25,90,10.0,64.0
4082,74.0,3,300,5.0,64.0
4083,74.0,4,270,7.0,64.0
4084,81.0,6,40,4.0,64.0
4085,78.0,12,60,6.0,64.0
4086,78.0,39,60,4.0,64.0
4087,74.0,4,60,6.0,64.0
4088,86.0,4,60,1.0,64.0
4089,71.0,10,60,8.0,64.0
4090,55.0,4,60,10.0,64.0
4091,74.0,19,60,4.0,64.0
4092,83.0,16,30,0.0,64.0
4093,78.0,5,40,6.0,64.0
4094,54.0,62,60,10.0,64.0
4095,78.0,6,40,4.0,64.0
4096,81.0,0,40,0.0,64.0
4097,79.0,11,60,6.0,64.0
4098,52.0,22,60,10.0,64.0
4099,79.0,2,60,4.0,64.0
4100,71.0,8,90,8.0,64.0
4101,88.0,5,90,1.0,64.0
4102,79.0,12,150,0.0,64.0
4103,78.0,7,40,6.0,64.0
4104,78.0,31,60,4.0,64.0
4105,76.0,1,60,6.0,64.0
4106,67.0,1,60,7.0,64.0
4107,91.0,17,40,1.0,64.0
4108,73.0,15,60,5.0,64.0
4109,76.0,15,60,4.0,64.0
4110,52.0,1,40,10.0,64.0
4111,73.0,3,40,8.0,64.0
4112,78.0,3,60,6.0,64.0
4113,50.0,61,60,10.0,64.0
4114,74.0,0,40,8.0,64.0
4115,90.0,9,30,1.0,64.0
4116,78.0,1,40,4.0,64.0
4117,64.0,1,60,7.0,64.0
4118,73.0,5,60,8.0,64.0
4119,79.0,5,40,6.0,64.0
4120,76.0,4,40,5.0,64.0
4121,52.0,33,60,10.0,64.0
4122,79.0,1,60,4.0,64.0
4123,88.0,11,60,1.0,64.0
4124,83.0,43,60,6.0,64.0
4125,83.0,10,40,4.0,64.0
4126,81.0,4,60,6.0,64.0
4127,73.0,1,60,7.0,64.0
4128,69.0,2,60,8.0,64.0
4129,88.0,9,60,2.0,64.0
4130,81.0,3,40,4.0,64.0
4131,81.0,9,30,0.0,64.0
4132,81.0,1,60,1.0,64.0
4133,73.0,1,40,5.0,64.0
4134,54.0,20,60,10.0,64.0
4135,45.0,3,40,3.0,64.0
4136,79.0,4,40,0.0,64.0
4137,79.0,5,30,6.0,64.0
4138,52.0,67,40,10.0,64.0
4139,79.0,10,30,4.0,64.0
4140,78.0,0,60,0.0,64.0
4141,69.0,4,90,8.0,64.0
4142,74.0,7,60,7.0,64.0
4143,50.0,1,60,3.0,64.0
4144,78.0,1,60,6.0,64.0
4145,74.0,2,60,5.0,64.0
4146,81.0,7,90,1.0,64.0
4147,50.0,12,60,10.0,64.0
4148,90.0,13,90,2.0,64.0
4149,78.0,4,60,4.0,64.0
4150,52.0,61,40,10.0,64.0
4151,54.0,1,60,10.0,64.0
4152,69.0,3,60,7.0,64.0
4153,69.0,20,90,8.0,64.0
4154,69.0,2,60,5.0,64.0
4155,81.0,5,40,0.0,64.0
4156,86.0,1,60,1.0,64.0
4157,74.0,7,60,6.0,64.0
4158,74.0,11,60,4.0,64.0
4159,50.0,71,40,10.0,64.0
4160,62.0,2,40,7.0,64.0
4161,55.0,8,60,10.0,64.0
4162,67.0,10,60,8.0,64.0
4163,83.0,2,40,0.0,64.0
4164,86.0,1,60,1.0,64.0
4165,62.0,2,40,5.0,64.0
4166,91.0,17,60,2.0,64.0
4167,50.0,2,40,3.0,64.0
4168,71.0,5,60,6.0,64.0
4169,71.0,3,60,4.0,64.0
4170,57.0,59,40,10.0,64.0
4171,54.0,10,40,10.0,64.0
4172,88.0,8,60,1.0,64.0
4173,71.0,6,60,8.0,64.0
4174,67.0,8,40,7.0,64.0
4175,79.0,0,40,0.0,64.0
4176,76.0,26,60,6.0,64.0
4177,67.0,3,60,5.0,64.0
4178,76.0,0,40,4.0,64.0
4179,55.0,69,40,10.0,64.0
4180,64.0,9,40,7.0,64.0
4181,57.0,32,60,10.0,64.0
4182,81.0,0,60,1.0,64.0
4183,88.0,3,90,2.0,64.0
4184,45.0,3,60,3.0,64.0
4185,85.0,12,40,0.0,64.0
4186,69.0,2,90,8.0,64.0
4187,73.0,0,60,6.0,64.0
4188,73.0,5,60,4.0,64.0
4189,64.0,22,240,5.0,64.0
4190,61.0,12,40,7.0,64.0
4191,69.0,10,60,6.0,64.0
4192,69.0,43,60,4.0,64.0
4193,71.0,2,60,6.0,64.0
4194,55.0,2,60,10.0,64.0
4195,64.0,14,90,8.0,64.0
4196,88.0,3,60,1.0,64.0
4197,71.0,16,60,4.0,64.0
4198,62.0,6,60,7.0,64.0
4199,81.0,3,40,0.0,64.0
4200,64.0,6,40,7.0,64.0
4201,73.0,29,40,6.0,64.0
4202,73.0,4,40,4.0,64.0
4203,74.0,1,60,6.0,64.0
4204,74.0,3,60,4.0,64.0
4205,81.0,12,60,2.0,64.0
4206,90.0,6,40,1.0,64.0
4207,69.0,17,60,8.0,64.0
4208,45.0,2,40,3.0,64.0
4209,54.0,1,60,10.0,64.0
4210,86.0,7,40,0.0,64.0
4211,57.0,6,40,7.0,64.0
4212,88.0,17,40,1.0,64.0
4213,76.0,40,60,4.0,64.0
4214,76.0,3,60,6.0,64.0
4215,90.0,7,40,1.0,64.0
4216,73.0,1,40,7.0,64.0
4217,52.0,2,60,10.0,64.0
4218,78.0,1,60,4.0,64.0
4219,78.0,8,40,6.0,64.0
4220,79.0,5,40,0.0,64.0
4221,69.0,12,60,8.0,64.0
4222,81.0,10,60,2.0,64.0
4223,73.0,7,60,5.0,64.0
4224,45.0,0,40,3.0,64.0
4225,91.0,13,40,1.0,64.0
4226,79.0,2,40,6.0,64.0
4227,79.0,72,40,4.0,64.0
4228,74.0,0,60,7.0,64.0
4229,78.0,1,60,4.0,64.0
4230,50.0,4,60,10.0,64.0
4231,78.0,4,60,6.0,64.0
4232,93.0,25,150,1.0,64.0
4233,69.0,35,60,8.0,64.0
4234,81.0,7,120,2.0,64.0
4235,50.0,2,60,3.0,64.0
4236,78.0,8,120,0.0,64.0
4237,74.0,6,60,5.0,64.0
4238,76.0,5,60,6.0,64.0
4239,67.0,5,60,8.0,64.0
4240,76.0,12,60,4.0,64.0
4241,74.0,5,60,4.0,64.0
4242,74.0,8,60,6.0,64.0
4243,71.0,1,60,7.0,64.0
4244,55.0,4,60,10.0,64.0
4245,66.0,23,60,8.0,64.0
4246,71.0,0,60,5.0,64.0
4247,67.0,52,60,8.0,64.0
4248,76.0,1,30,6.0,64.0
4249,76.0,20,30,4.0,64.0
4250,69.0,9,40,7.0,64.0
4251,64.0,38,60,8.0,64.0
4252,81.0,9,120,2.0,64.0
4253,57.0,5,40,10.0,64.0
4254,69.0,2,60,6.0,64.0
4255,69.0,0,60,4.0,64.0
4256,69.0,2,60,5.0,64.0
4257,76.0,2,120,0.0,64.0
4258,45.0,6,40,3.0,64.0
4259,91.0,22,120,1.0,64.0
4260,66.0,24,40,8.0,64.0
4261,67.0,5,40,8.0,64.0
4262,73.0,9,60,6.0,64.0
4263,69.0,7,40,7.0,64.0
4264,45.0,2,60,10.0,64.0
4265,69.0,2,60,5.0,64.0
4266,73.0,29,60,4.0,64.0
4267,64.0,84,40,8.0,64.0
4268,74.0,18,60,6.0,64.0
4269,66.0,16,240,8.0,64.0
4270,74.0,2,150,0.0,64.0
4271,81.0,12,150,2.0,64.0
4272,69.0,9,120,5.0,64.0
4273,74.0,19,60,4.0,64.0
4274,50.0,48,240,10.0,64.0
4275,69.0,10,210,7.0,64.0
4276,90.0,19,150,1.0,64.0
4277,50.0,32,60,3.0,64.0
4278,69.0,10,60,6.0,64.0
4279,66.0,42,60,6.0,64.0
4280,69.0,13,40,6.0,64.0
4281,62.0,34,60,6.0,64.0
4282,66.0,71,40,6.0,64.0
4283,64.0,1,60,6.0,64.0
4284,49.0,9,60,10.0,64.0
4285,64.0,2,60,8.0,64.0
4286,69.0,20,60,7.0,64.0
4287,67.0,95,40,6.0,64.0
4288,66.0,5,60,6.0,64.0
4289,50.0,0,60,10.0,64.0
4290,69.0,21,90,7.0,64.0
4291,62.0,18,60,8.0,64.0
4292,69.0,64,60,6.0,64.0
4293,71.0,19,60,7.0,64.0
4294,74.0,5,60,6.0,64.0
4295,47.0,7,60,10.0,64.0
4296,66.0,5,60,8.0,64.0
4297,66.0,83,40,6.0,64.0
4298,64.0,1,60,6.0,64.0
4299,71.0,21,60,7.0,64.0
4300,43.0,13,40,10.0,64.0
4301,67.0,2,60,8.0,64.0
4302,74.0,76,40,6.0,64.0
4303,64.0,11,60,6.0,64.0
4304,45.0,2,40,10.0,64.0
4305,69.0,2,60,7.0,64.0
4306,67.0,37,40,8.0,64.0
4307,73.0,68,60,6.0,64.0
4308,74.0,69,60,6.0,64.0
4309,66.0,35,240,8.0,64.0
4310,69.0,17,240,7.0,64.0
4311,38.0,2,240,10.0,64.0
4312,69.0,50,60,6.0,64.0
4313,74.0,40,60,6.0,64.0
4314,76.0,37,30,6.0,64.0
4315,78.0,35,60,6.0,64.0
4316,81.0,77,40,6.0,64.0
4317,80.0,23,60,6.0,64.0
4318,50.0,4,60,10.0,64.0
4319,71.0,2,60,7.0,64.0
4320,64.0,0,60,8.0,64.0
4321,83.0,95,30,6.0,64.0
4322,49.0,6,60,10.0,64.0
4323,81.0,2,60,6.0,64.0
4324,73.0,0,60,7.0,64.0
4325,64.0,51,60,8.0,64.0
4326,76.0,54,60,6.0,64.0
4327,73.0,1,60,6.0,64.0
4328,54.0,16,60,10.0,64.0
4329,69.0,23,60,7.0,64.0
4330,66.0,0,40,8.0,64.0
4331,81.0,76,40,6.0,64.0
4332,71.0,6,60,6.0,64.0
4333,78.0,26,60,7.0,64.0
4334,50.0,6,60,10.0,64.0
4335,66.0,1,60,8.0,64.0
4336,81.0,72,40,6.0,64.0
4337,71.0,4,60,6.0,64.0
4338,52.0,5,40,10.0,64.0
4339,76.0,30,60,7.0,64.0
4340,71.0,6,40,8.0,64.0
4341,80.0,81,40,6.0,64.0
4342,81.0,36,60,6.0,64.0
4343,45.0,7,90,10.0,64.0
4344,73.0,46,240,8.0,64.0
4345,76.0,4,240,7.0,64.0
4346,76.0,85,40,6.0,64.0
4347,73.0,11,60,6.0,64.0
4348,57.0,36,60,10.0,64.0
4349,74.0,29,60,6.0,64.0
4350,57.0,41,60,10.0,64.0
4351,76.0,8,60,6.0,64.0
4352,78.0,53,60,6.0,64.0
4353,57.0,7,60,10.0,64.0
4354,76.0,30,60,6.0,64.0
4355,76.0,1,60,7.0,64.0
4356,73.0,13,40,8.0,64.0
4357,78.0,75,40,6.0,64.0
4358,79.0,38,60,6.0,64.0
4359,76.0,3,60,7.0,64.0
4360,73.0,4,40,8.0,64.0
4361,76.0,70,40,6.0,64.0
4362,69.0,39,60,6.0,64.0
4363,76.0,11,60,7.0,64.0
4364,55.0,6,90,10.0,64.0
4365,73.0,5,40,8.0,64.0
4366,71.0,68,60,6.0,64.0
4367,73.0,30,60,6.0,64.0
4368,55.0,16,90,10.0,64.0
4369,74.0,66,60,6.0,64.0
4370,73.0,32,60,6.0,64.0
4371,76.0,7,60,7.0,64.0
4372,55.0,2,60,10.0,64.0
4373,71.0,5,40,8.0,64.0
4374,74.0,73,40,6.0,64.0
4375,73.0,20,60,7.0,64.0
4376,76.0,50,60,6.0,64.0
4377,70.0,2,40,8.0,64.0
4378,74.0,43,60,6.0,64.0
4379,73.0,16,60,7.0,64.0
4380,73.0,33,60,6.0,64.0
4381,70.0,12,40,8.0,64.0
4382,54.0,1,90,10.0,64.0
4383,74.0,89,40,6.0,64.0
4384,76.0,26,60,6.0,64.0
4385,54.0,27,90,10.0,64.0
4386,74.0,45,60,6.0,64.0
4387,73.0,4,60,6.0,64.0
4388,73.0,2,60,7.0,64.0
4389,70.0,2,40,8.0,64.0
4390,54.0,48,60,10.0,64.0
4391,71.0,57,60,6.0,64.0
4392,73.0,73,60,7.0,64.0
4393,70.0,6,40,6.0,64.0
4394,66.0,6,40,8.0,64.0
4395,76.0,41,60,6.0,64.0
4396,70.0,2,60,7.0,64.0
4397,78.0,29,90,6.0,64.0
4398,66.0,20,40,8.0,64.0
4399,42.0,1,90,10.0,64.0
4400,79.0,90,40,6.0,64.0
4401,78.0,3,90,6.0,64.0
4402,42.0,36,60,10.0,64.0
4403,76.0,55,60,6.0,64.0
4404,74.0,14,60,6.0,64.0
4405,70.0,5,40,7.0,64.0
4406,66.0,8,40,8.0,64.0
4407,42.0,30,60,10.0,64.0
4408,73.0,83,40,6.0,64.0
4409,74.0,47,60,6.0,64.0
4410,66.0,0,60,8.0,64.0
4411,71.0,1,60,7.0,64.0
4412,78.0,59,60,6.0,64.0
4413,71.0,38,90,6.0,64.0
4414,66.0,14,60,7.0,64.0
4415,62.0,9,40,8.0,64.0
4416,47.0,10,90,10.0,64.0
4417,73.0,58,60,6.0,64.0
4418,74.0,33,60,6.0,64.0
4419,47.0,73,90,10.0,64.0
4420,76.0,5,40,6.0,64.0
4421,74.0,2,60,6.0,64.0
4422,66.0,10,60,8.0,64.0
4423,71.0,33,60,7.0,64.0
4424,47.0,0,60,10.0,64.0
4425,76.0,79,40,6.0,64.0
4426,78.0,59,60,6.0,64.0
4427,63.0,1,60,8.0,64.0
4428,72.0,8,60,7.0,64.0
4429,81.0,44,60,6.0,64.0
4430,69.0,6,40,8.0,64.0
4431,75.0,44,60,6.0,64.0
4432,54.0,11,210,10.0,64.0
4433,72.0,6,40,7.0,64.0
4434,76.0,82,40,6.0,64.0
4435,78.0,39,60,6.0,64.0
4436,79.0,43,60,6.0,64.0
4437,63.0,16,40,8.0,64.0
4438,78.0,3,60,6.0,64.0
4439,72.0,40,60,7.0,64.0
4440,54.0,2,40,10.0,64.0
4441,79.0,82,40,6.0,64.0
4442,81.0,38,60,6.0,64.0
4443,63.0,5,60,8.0,64.0
4444,66.0,3,60,7.0,64.0
4445,72.0,65,60,6.0,64.0
4446,71.0,34,60,6.0,64.0
4447,66.0,2,60,8.0,64.0
4448,51.0,85,90,10.0,64.0
4449,69.0,5,60,7.0,64.0
4450,72.0,8,40,6.0,64.0
4451,51.0,43,60,10.0,64.0
4452,81.0,1,60,6.0,64.0
4453,72.0,51,60,6.0,64.0
4454,51.0,0,60,10.0,64.0
4455,71.0,0,60,6.0,64.0
4456,66.0,16,40,8.0,64.0
4457,69.0,36,60,7.0,64.0
4458,69.0,77,40,6.0,64.0
4459,71.0,4,60,6.0,64.0
4460,66.0,11,60,8.0,64.0
4461,63.0,64,60,7.0,64.0
4462,73.0,36,90,6.0,64.0
4463,75.0,5,40,6.0,64.0
4464,66.0,7,60,8.0,64.0
4465,71.0,43,60,7.0,64.0
4466,47.0,13,90,10.0,64.0
4467,76.0,78,60,6.0,64.0
4468,78.0,4,60,6.0,64.0
4469,47.0,33,60,10.0,64.0
4470,79.0,52,60,6.0,64.0
4471,75.0,16,40,7.0,64.0
4472,81.0,2,60,6.0,64.0
4473,71.0,2,40,8.0,64.0
4474,47.0,40,60,10.0,64.0
4475,78.0,85,40,6.0,64.0
4476,79.0,14,60,6.0,64.0
4477,76.0,6,240,7.0,64.0
4478,71.0,37,240,8.0,64.0
4479,52.0,26,60,10.0,64.0
4480,76.0,71,60,6.0,64.0
4481,71.0,7,60,6.0,64.0
4482,64.0,40,60,10.0,64.0
4483,74.0,25,60,6.0,64.0
4484,73.0,10,60,6.0,64.0
4485,57.0,31,60,10.0,64.0
4486,76.0,70,40,6.0,64.0
4487,69.0,15,60,6.0,64.0
4488,61.0,24,60,10.0,64.0
4489,79.0,104,40,6.0,64.0
4490,78.0,1,60,6.0,64.0
4491,50.0,32,60,10.0,64.0
4492,74.0,72,40,6.0,64.0
4493,69.0,7,60,6.0,64.0
4494,62.0,34,60,10.0,64.0
4495,72.0,72,40,6.0,64.0
4496,55.0,6,60,10.0,64.0
4497,71.0,69,60,6.0,64.0
4498,74.0,50,60,6.0,64.0
4499,59.0,33,60,10.0,64.0
4500,67.0,5,60,6.0,64.0
4501,78.0,101,40,6.0,64.0
4502,49.0,13,60,10.0,64.0
4503,76.0,49,60,6.0,64.0
4504,73.0,51,60,6.0,64.0
4505,61.0,48,60,10.0,64.0
4506,68.0,3,60,6.0,64.0
4507,71.0,65,60,6.0,64.0
4508,70.0,77,60,6.0,64.0
4509,54.0,7,40,10.0,64.0
4510,73.0,32,90,6.0,64.0
4511,58.0,43,60,10.0,64.0
4512,66.0,1,60,6.0,64.0
4513,76.0,107,40,6.0,64.0
4514,47.0,46,90,10.0,64.0
4515,74.0,1,90,6.0,64.0
4516,71.0,42,60,6.0,64.0
4517,73.0,17,60,6.0,64.0
4518,59.0,37,60,10.0,64.0
4519,74.0,70,40,6.0,64.0
4520,76.0,42,60,6.0,64.0
4521,55.0,21,60,10.0,64.0
4522,78.0,57,60,6.0,64.0
4523,52.0,3,60,10.0,64.0
4524,79.0,46,60,6.0,64.0
4525,76.0,88,40,6.0,64.0
4526,70.0,54,60,6.0,64.0
4527,54.0,40,240,10.0,64.0
4528,76.0,6,1200,4.0,64.0
4529,76.0,62,60,6.0,64.0
4530,78.0,38,60,6.0,64.0
4531,78.0,4,90,0.0,64.0
4532,66.0,3,60,7.0,64.0
4533,68.0,23,60,7.0,64.0
4534,76.0,1,60,6.0,64.0
4535,70.0,15,60,7.0,64.0
4536,78.0,38,60,6.0,64.0
4537,78.0,19,90,0.0,64.0
4538,73.0,51,240,8.0,64.0
4539,76.0,62,60,6.0,64.0
4540,78.0,36,60,6.0,64.0
4541,70.0,4,60,7.0,64.0
4542,78.0,4,90,0.0,64.0
4543,71.0,1,60,7.0,64.0
4544,76.0,21,60,6.0,64.0
4545,73.0,15,60,7.0,64.0
4546,70.0,29,60,6.0,64.0
4547,78.0,15,90,0.0,64.0
4548,42.0,35,240,10.0,64.0
4549,76.0,55,60,6.0,64.0
4550,78.0,26,90,6.0,64.0
4551,70.0,18,60,7.0,64.0
4552,78.0,2,90,1.0,64.0
4553,78.0,12,90,0.0,64.0
4554,71.0,8,60,7.0,64.0
4555,76.0,25,60,6.0,64.0
4556,78.0,37,60,6.0,64.0
4557,73.0,5,60,7.0,64.0
4558,78.0,3,90,1.0,64.0
4559,70.0,41,240,8.0,64.0
4560,78.0,23,90,0.0,64.0
4561,76.0,51,60,6.0,64.0
4562,78.0,6,60,6.0,64.0
4563,73.0,30,60,7.0,64.0
4564,78.0,6,90,0.0,64.0
4565,78.0,2,90,1.0,64.0
4566,76.0,4,40,6.0,64.0
4567,74.0,25,60,7.0,64.0
4568,70.0,39,60,6.0,64.0
4569,76.0,6,60,7.0,64.0
4570,78.0,38,90,1.0,64.0
4571,78.0,0,90,0.0,64.0
4572,76.0,40,90,6.0,64.0
4573,78.0,25,60,6.0,64.0
4574,54.0,6,60,10.0,64.0
4575,78.0,0,90,1.0,64.0
4576,76.0,9,60,7.0,64.0
4577,78.0,5,90,2.0,64.0
4578,78.0,6,90,0.0,64.0
4579,79.0,41,90,6.0,64.0
4580,74.0,21,60,7.0,64.0
4581,78.0,2,60,6.0,64.0
4582,76.0,23,60,7.0,64.0
4583,66.0,71,240,8.0,64.0
4584,78.0,4,90,2.0,64.0
4585,58.0,11,60,10.0,64.0
4586,78.0,8,90,1.0,64.0
4587,78.0,21,90,0.0,64.0
4588,73.0,15,210,4.0,64.0
4589,76.0,48,60,6.0,64.0
4590,75.0,1,60,6.0,64.0
4591,78.0,2,90,1.0,64.0
4592,54.0,5,60,10.0,64.0
4593,78.0,24,60,7.0,64.0
4594,78.0,14,90,0.0,64.0
4595,78.0,1,90,2.0,64.0
4596,76.0,12,30,7.0,64.0
4597,73.0,2,40,6.0,64.0
4598,75.0,6,180,7.0,64.0
4599,69.0,54,90,6.0,64.0
4600,59.0,27,270,10.0,64.0
4601,78.0,1,150,1.0,64.0
4602,75.0,7,1410,4.0,64.0
4603,78.0,25,150,2.0,64.0
4604,69.0,54,1200,5.0,64.0
4605,78.0,3,120,0.0,64.0
4606,75.0,15,60,6.0,64.0
4607,78.0,29,60,6.0,64.0
4608,59.0,17,60,8.0,64.0
4609,61.0,16,60,8.0,64.0
4610,75.0,25,60,6.0,64.0
4611,63.0,19,60,8.0,64.0
4612,78.0,57,60,6.0,64.0
4613,71.0,64,240,7.0,64.0
4614,75.0,50,90,6.0,64.0
4615,78.0,24,60,6.0,64.0
4616,63.0,13,60,8.0,64.0
4617,64.0,8,40,8.0,64.0
4618,75.0,14,40,6.0,64.0
4619,66.0,9,60,8.0,64.0
4620,69.0,43,60,6.0,64.0
4621,47.0,63,240,10.0,64.0
4622,75.0,66,60,6.0,64.0
4623,78.0,43,90,6.0,64.0
4624,63.0,8,40,8.0,64.0
4625,75.0,7,60,6.0,64.0
4626,64.0,6,60,8.0,64.0
4627,78.0,51,60,6.0,64.0
4628,75.0,34,240,7.0,64.0
4629,66.0,2,60,8.0,64.0
4630,75.0,64,60,6.0,64.0
4631,78.0,27,60,6.0,64.0
4632,66.0,5,60,8.0,64.0
4633,75.0,12,40,6.0,64.0
4634,68.0,22,60,8.0,64.0
4635,69.0,47,60,6.0,64.0
4636,69.0,23,40,8.0,64.0
4637,75.0,55,60,6.0,64.0
4638,59.0,5,60,10.0,64.0
4639,78.0,7,60,6.0,64.0
4640,69.0,45,60,8.0,64.0
4641,68.0,7,60,8.0,64.0
4642,76.0,3,60,6.0,64.0
4643,75.0,39,60,6.0,64.0
4644,69.0,3,60,8.0,64.0
4645,47.0,4,60,10.0,64.0
4646,78.0,9,180,7.0,64.0
4647,66.0,64,210,5.0,64.0
4648,73.0,63,60,6.0,64.0
4649,71.0,8,60,6.0,64.0
4650,51.0,3,40,10.0,64.0
4651,71.0,17,60,8.0,64.0
4652,69.0,17,40,6.0,64.0
4653,69.0,7,40,8.0,64.0
4654,68.0,77,60,6.0,64.0
4655,68.0,21,180,8.0,64.0
4656,74.0,18,1440,4.0,64.0
4657,52.0,5,240,10.0,64.0
4658,68.0,75,1440,5.0,64.0
4659,74.0,41,90,6.0,64.0
4660,64.0,11,60,7.0,64.0
4661,76.0,23,90,6.0,64.0
4662,66.0,18,60,7.0,64.0
4663,74.0,34,60,6.0,64.0
4664,68.0,35,60,7.0,64.0
4665,71.0,54,270,8.0,64.0
4666,76.0,43,60,6.0,64.0
4667,74.0,45,60,6.0,64.0
4668,68.0,15,60,7.0,64.0
4669,76.0,27,60,6.0,64.0
4670,69.0,9,60,7.0,64.0
4671,74.0,28,40,6.0,64.0
4672,71.0,1,60,7.0,64.0
4673,68.0,70,60,6.0,64.0
4674,40.0,12,240,10.0,64.0
4675,74.0,36,60,6.0,64.0
4676,68.0,29,40,7.0,64.0
4677,76.0,34,60,6.0,64.0
4678,69.0,18,60,7.0,64.0
4679,74.0,29,90,6.0,64.0
4680,71.0,35,60,7.0,64.0
4681,68.0,44,270,8.0,64.0
4682,76.0,52,60,6.0,64.0
4683,74.0,53,60,6.0,64.0
4684,71.0,0,60,7.0,64.0
4685,76.0,26,60,6.0,64.0
4686,73.0,35,40,7.0,64.0
4687,74.0,7,30,6.0,64.0
4688,74.0,10,60,7.0,64.0
4689,68.0,61,60,6.0,64.0
4690,74.0,43,60,6.0,64.0
4691,52.0,6,60,10.0,64.0
4692,76.0,20,90,6.0,64.0
4693,74.0,19,60,7.0,64.0
4694,73.0,25,40,7.0,64.0
4695,78.0,10,60,6.0,64.0
4696,64.0,2,240,8.0,64.0
4697,74.0,50,60,7.0,64.0
4698,56.0,2,60,10.0,64.0
4699,76.0,6,60,6.0,64.0
4700,77.0,39,15,6.0,64.0
4701,74.0,67,60,6.0,64.0
4702,73.0,3,60,6.0,64.0
4703,52.0,12,60,10.0,64.0
4704,76.0,22,60,7.0,64.0
4705,71.0,3,40,6.0,64.0
4706,74.0,6,30,7.0,64.0
4707,73.0,18,210,7.0,64.0
4708,73.0,9,1410,4.0,64.0
4709,67.0,65,60,6.0,64.0
4710,57.0,34,240,10.0,64.0
4711,67.0,0,1380,5.0,64.0
4712,73.0,42,90,6.0,64.0
4713,76.0,6,60,6.0,64.0
4714,81.0,12,90,0.0,64.0
4715,57.0,9,60,8.0,64.0
4716,73.0,15,60,6.0,64.0
4717,59.0,13,60,8.0,64.0
4718,76.0,27,60,6.0,64.0
4719,61.0,19,60,8.0,64.0
4720,81.0,30,90,0.0,64.0
4721,69.0,54,240,7.0,64.0
4722,73.0,57,60,6.0,64.0
4723,76.0,32,60,6.0,64.0
4724,61.0,4,60,8.0,64.0
4725,81.0,3,90,0.0,64.0
4726,73.0,0,60,6.0,64.0
4727,62.0,38,60,8.0,64.0
4728,67.0,27,90,6.0,64.0
4729,64.0,1,60,8.0,64.0
4730,81.0,39,90,0.0,64.0
4731,45.0,11,210,10.0,64.0
4732,73.0,35,90,6.0,64.0
4733,76.0,20,60,6.0,64.0
4734,61.0,18,60,8.0,64.0
4735,81.0,5,90,1.0,64.0
4736,81.0,15,90,0.0,64.0
4737,62.0,2,40,8.0,64.0
4738,73.0,55,60,6.0,64.0
4739,73.0,55,270,7.0,64.0
4740,76.0,31,60,6.0,64.0
4741,64.0,7,60,8.0,64.0
4742,81.0,23,90,1.0,64.0
4743,81.0,2,90,0.0,64.0
4744,73.0,49,60,6.0,64.0
4745,76.0,21,60,6.0,64.0
4746,64.0,6,60,8.0,64.0
4747,81.0,15,60,0.0,64.0
4748,81.0,30,90,1.0,64.0
4749,66.0,3,60,8.0,64.0
4750,73.0,2,40,6.0,64.0
4751,67.0,2,60,8.0,64.0
4752,67.0,33,60,6.0,64.0
4753,81.0,31,90,0.0,64.0
4754,81.0,0,90,1.0,64.0
4755,73.0,25,90,6.0,64.0
4756,67.0,16,60,8.0,64.0
4757,76.0,23,60,6.0,64.0
4758,57.0,3,60,10.0,64.0
4759,45.0,9,40,3.0,64.0
4760,88.0,24,90,0.0,64.0
4761,81.0,4,90,2.0,64.0
4762,81.0,0,90,1.0,64.0
4763,66.0,4,40,8.0,64.0
4764,74.0,42,90,6.0,64.0
4765,73.0,27,90,6.0,64.0
4766,67.0,8,60,8.0,64.0
4767,45.0,6,60,10.0,64.0
4768,88.0,6,90,1.0,64.0
4769,76.0,5,150,7.0,64.0
4770,81.0,3,90,2.0,64.0
4771,93.0,1,90,0.0,64.0
4772,45.0,7,40,3.0,64.0
4773,71.0,50,60,6.0,64.0
4774,69.0,19,60,6.0,64.0
4775,69.0,6,60,8.0,64.0
4776,49.0,9,60,10.0,64.0
4777,81.0,1,90,1.0,64.0
4778,88.0,14,90,0.0,64.0
4779,81.0,61,90,2.0,64.0
4780,45.0,1,30,3.0,64.0
4781,67.0,3,40,8.0,64.0
4782,67.0,8,40,6.0,64.0
4783,66.0,1,60,6.0,64.0
4784,66.0,36,270,8.0,64.0
4785,66.0,2,180,5.0,64.0
4786,74.0,19,240,7.0,64.0
4787,50.0,54,60,10.0,64.0
4788,74.0,7,150,4.0,64.0
4789,90.0,5,120,0.0,64.0
4790,50.0,8,40,3.0,64.0
4791,74.0,1,150,2.0,64.0
4792,81.0,9,120,1.0,64.0
4793,62.0,25,60,6.0,64.0
4794,64.0,11,60,6.0,64.0
4795,49.0,27,60,10.0,64.0
4796,67.0,28,40,6.0,64.0
4797,66.0,7,60,6.0,64.0
4798,50.0,23,60,10.0,64.0
4799,69.0,90,40,6.0,64.0
4800,68.0,26,60,6.0,64.0
4801,52.0,2,60,10.0,64.0
4802,71.0,94,40,6.0,64.0
4803,54.0,62,60,10.0,64.0
4804,69.0,9,60,6.0,64.0
4805,66.0,44,60,6.0,64.0
4806,52.0,18,60,10.0,64.0
4807,68.0,29,60,6.0,64.0
4808,71.0,80,40,6.0,64.0
4809,54.0,12,60,10.0,64.0
4810,69.0,35,60,6.0,64.0
4811,73.0,82,40,6.0,64.0
4812,56.0,24,90,10.0,64.0
4813,71.0,4,60,6.0,64.0
4814,74.0,94,40,6.0,64.0
4815,57.0,11,60,10.0,64.0
4816,73.0,57,60,6.0,64.0
4817,69.0,52,60,6.0,64.0
4818,71.0,3,60,6.0,64.0
4819,56.0,31,60,10.0,64.0
4820,74.0,76,40,6.0,64.0
4821,73.0,27,60,6.0,64.0
4822,57.0,5,60,10.0,64.0
4823,76.0,87,40,6.0,64.0
4824,74.0,40,60,6.0,64.0
4825,54.0,3,60,10.0,64.0
4826,78.0,82,60,6.0,64.0
4827,76.0,23,150,6.0,64.0
4828,49.0,92,60,10.0,64.0
4829,50.0,35,60,10.0,64.0
4830,78.0,67,30,6.0,64.0
4831,52.0,15,60,10.0,64.0
4832,73.0,24,30,6.0,64.0
4833,71.0,38,40,6.0,64.0
4834,73.0,45,40,6.0,64.0
4835,71.0,32,60,6.0,64.0
4836,40.0,22,60,10.0,64.0
4837,69.0,113,40,6.0,64.0
4838,45.0,45,90,10.0,64.0
4839,69.0,9,60,6.0,64.0
4840,71.0,39,60,6.0,64.0
4841,69.0,11,90,8.0,64.0
4842,76.0,11,40,5.0,64.0
4843,76.0,8,60,7.0,64.0
4844,73.0,1,40,6.0,64.0
4845,76.0,5,90,0.0,64.0
4846,73.0,0,40,4.0,64.0
4847,45.0,30,60,10.0,64.0
4848,74.0,59,60,6.0,64.0
4849,47.0,1,60,10.0,64.0
4850,74.0,2,60,4.0,64.0
4851,69.0,13,90,8.0,64.0
4852,76.0,5,60,6.0,64.0
4853,76.0,0,60,4.0,64.0
4854,49.0,26,60,10.0,64.0
4855,81.0,5,120,0.0,64.0
4856,69.0,4,60,5.0,64.0
4857,69.0,4,60,7.0,64.0
4858,78.0,3,40,6.0,64.0
4859,78.0,55,60,4.0,64.0
4860,76.0,33,60,6.0,64.0
4861,69.0,2,90,8.0,64.0
4862,76.0,7,40,4.0,64.0
4863,49.0,1,60,10.0,64.0
4864,88.0,0,90,1.0,64.0
4865,76.0,58,120,0.0,64.0
4866,73.0,8,150,7.0,64.0
4867,73.0,0,180,5.0,64.0
4868,78.0,5,40,6.0,64.0
4869,50.0,5,40,10.0,64.0
4870,78.0,12,40,4.0,64.0
4871,69.0,2,90,8.0,64.0
4872,79.0,3,60,6.0,64.0
4873,52.0,3,60,10.0,64.0
4874,91.0,8,90,1.0,64.0
4875,79.0,27,60,4.0,64.0
4876,76.0,0,40,6.0,64.0
4877,76.0,63,40,4.0,64.0
4878,69.0,2,60,6.0,64.0
4879,69.0,1,90,8.0,64.0
4880,76.0,12,60,7.0,64.0
4881,69.0,30,60,4.0,64.0
4882,88.0,44,120,1.0,64.0
4883,76.0,2,60,5.0,64.0
4884,76.0,6,90,0.0,64.0
4885,49.0,1,60,10.0,64.0
4886,71.0,8,60,6.0,64.0
4887,71.0,5,60,4.0,64.0
4888,50.0,5,40,10.0,64.0
4889,73.0,19,60,6.0,64.0
4890,69.0,8,90,8.0,64.0
4891,67.0,8,40,7.0,64.0
4892,73.0,2,40,4.0,64.0
4893,79.0,1,90,0.0,64.0
4894,52.0,14,60,10.0,64.0
4895,67.0,5,40,5.0,64.0
4896,74.0,3,40,6.0,64.0
4897,74.0,44,40,4.0,64.0
4898,73.0,18,40,6.0,64.0
4899,73.0,10,60,4.0,64.0
4900,69.0,37,90,8.0,64.0
4901,88.0,9,90,1.0,64.0
4902,76.0,37,120,0.0,64.0
4903,73.0,3,180,7.0,64.0
4904,52.0,23,60,10.0,64.0
4905,73.0,17,180,5.0,64.0
4906,74.0,5,40,6.0,64.0
4907,74.0,1,40,4.0,64.0
4908,54.0,0,40,10.0,64.0
4909,76.0,7,60,6.0,64.0
4910,55.0,3,90,10.0,64.0
4911,76.0,9,60,4.0,64.0
4912,69.0,10,90,8.0,64.0
4913,93.0,5,90,1.0,64.0
4914,74.0,4,60,6.0,64.0
4915,74.0,51,60,4.0,64.0
4916,73.0,5,60,6.0,64.0
4917,69.0,2,90,8.0,64.0
4918,76.0,1,40,7.0,64.0
4919,76.0,6,40,0.0,64.0
4920,81.0,0,90,1.0,64.0
4921,73.0,30,60,4.0,64.0
4922,55.0,7,60,10.0,64.0
4923,81.0,6,90,2.0,64.0
4924,45.0,1,40,3.0,64.0
4925,76.0,1,40,5.0,64.0
4926,74.0,5,60,6.0,64.0
4927,74.0,2,40,0.0,64.0
4928,54.0,0,40,10.0,64.0
4929,74.0,63,60,4.0,64.0
4930,76.0,1,60,0.0,64.0
4931,76.0,3,60,6.0,64.0
4932,55.0,19,60,10.0,64.0
4933,69.0,23,90,8.0,64.0
4934,69.0,12,60,7.0,64.0
4935,81.0,3,90,1.0,64.0
4936,81.0,1,90,2.0,64.0
4937,76.0,3,60,4.0,64.0
4938,69.0,0,60,5.0,64.0
4939,45.0,2,40,3.0,64.0
4940,74.0,34,60,6.0,64.0
4941,74.0,3,60,4.0,64.0
4942,73.0,10,60,6.0,64.0
4943,73.0,7,60,7.0,64.0
4944,81.0,0,90,2.0,64.0
4945,78.0,10,40,0.0,64.0
4946,73.0,0,60,4.0,64.0
4947,69.0,4,90,8.0,64.0
4948,81.0,11,60,1.0,64.0
4949,57.0,12,60,10.0,64.0
4950,73.0,1,40,5.0,64.0
4951,45.0,3,40,3.0,64.0
4952,76.0,5,40,0.0,64.0
4953,71.0,68,60,6.0,64.0
4954,71.0,4,40,4.0,64.0
4955,55.0,0,40,10.0,64.0
4956,74.0,8,60,0.0,64.0
4957,54.0,26,90,10.0,64.0
4958,69.0,2,60,6.0,64.0
4959,50.0,6,60,3.0,64.0
4960,69.0,5,60,4.0,64.0
4961,69.0,12,90,8.0,64.0
4962,74.0,4,120,2.0,64.0
4963,74.0,2,40,7.0,64.0
4964,81.0,26,120,1.0,64.0
4965,74.0,2,60,5.0,64.0
4966,73.0,11,60,7.0,64.0
4967,73.0,13,60,5.0,64.0
4968,74.0,2,60,7.0,64.0
4969,71.0,3,120,8.0,64.0
4970,78.0,3,90,0.0,64.0
4971,78.0,1,40,6.0,64.0
4972,74.0,33,60,5.0,64.0
4973,78.0,17,40,4.0,64.0
4974,47.0,3,60,10.0,64.0
4975,76.0,60,60,7.0,64.0
4976,49.0,1,60,10.0,64.0
4977,76.0,1,40,5.0,64.0
4978,78.0,1,60,7.0,64.0
4979,51.0,2,60,10.0,64.0
4980,83.0,2,90,0.0,64.0
4981,71.0,5,90,8.0,64.0
4982,71.0,11,40,6.0,64.0
4983,78.0,31,60,5.0,64.0
4984,71.0,7,40,4.0,64.0
4985,79.0,3,60,7.0,64.0
4986,79.0,59,40,5.0,64.0
4987,78.0,10,60,7.0,64.0
4988,51.0,4,60,10.0,64.0
4989,78.0,55,120,0.0,64.0
4990,75.0,7,180,6.0,64.0
4991,78.0,31,60,5.0,64.0
4992,90.0,3,90,1.0,64.0
4993,71.0,2,90,8.0,64.0
4994,75.0,4,180,4.0,64.0
4995,79.0,12,40,7.0,64.0
4996,52.0,0,40,10.0,64.0
4997,79.0,7,40,5.0,64.0
4998,54.0,33,60,10.0,64.0
4999,81.0,1,60,7.0,64.0
5000,93.0,9,90,1.0,64.0
5001,71.0,1,90,8.0,64.0
5002,81.0,1,60,5.0,64.0
5003,78.0,3,40,7.0,64.0
5004,78.0,56,60,5.0,64.0
5005,71.0,0,60,7.0,64.0
5006,90.0,6,120,1.0,64.0
5007,71.0,8,90,8.0,64.0
5008,78.0,11,40,4.0,64.0
5009,78.0,3,40,6.0,64.0
5010,71.0,33,60,5.0,64.0
5011,51.0,6,60,10.0,64.0
5012,78.0,2,90,0.0,64.0
5013,73.0,5,60,7.0,64.0
5014,52.0,0,60,10.0,64.0
5015,73.0,45,60,5.0,64.0
5016,54.0,9,90,10.0,64.0
5017,75.0,9,60,7.0,64.0
5018,69.0,11,40,6.0,64.0
5019,81.0,8,90,0.0,64.0
5020,71.0,8,90,8.0,64.0
5021,69.0,3,40,4.0,64.0
5022,75.0,12,60,5.0,64.0
5023,76.0,8,60,7.0,64.0
5024,76.0,57,40,5.0,64.0
5025,75.0,12,60,7.0,64.0
5026,71.0,2,90,8.0,64.0
5027,54.0,13,60,10.0,64.0
5028,90.0,38,90,1.0,64.0
5029,78.0,24,150,0.0,64.0
5030,75.0,12,150,6.0,64.0
5031,75.0,17,60,5.0,64.0
5032,75.0,1,180,4.0,64.0
5033,76.0,2,40,7.0,64.0
5034,56.0,6,40,10.0,64.0
5035,76.0,0,40,5.0,64.0
5036,57.0,27,90,10.0,64.0
5037,71.0,25,120,8.0,64.0
5038,95.0,7,90,1.0,64.0
5039,78.0,6,60,7.0,64.0
5040,78.0,6,60,5.0,64.0
5041,76.0,3,60,7.0,64.0
5042,76.0,29,60,5.0,64.0
5043,78.0,9,40,6.0,64.0
5044,57.0,1,60,10.0,64.0
5045,75.0,37,60,7.0,64.0
5046,90.0,38,120,1.0,64.0
5047,75.0,8,60,5.0,64.0
5048,78.0,0,60,4.0,64.0
5049,71.0,3,90,8.0,64.0
5050,78.0,5,40,0.0,64.0
5051,56.0,3,60,10.0,64.0
5052,76.0,9,60,7.0,64.0
5053,76.0,10,40,0.0,64.0
5054,76.0,3,60,5.0,64.0
5055,57.0,15,60,10.0,64.0
5056,71.0,9,60,6.0,64.0
5057,78.0,10,90,0.0,64.0
5058,78.0,1,60,5.0,64.0
5059,71.0,10,40,4.0,64.0
5060,78.0,2,60,7.0,64.0
5061,71.0,32,90,8.0,64.0
5062,76.0,40,60,7.0,64.0
5063,76.0,1,60,5.0,64.0
5064,75.0,3,60,6.0,64.0
5065,75.0,5,60,7.0,64.0
5066,71.0,34,60,8.0,64.0
5067,59.0,4,60,10.0,64.0
5068,80.0,12,40,0.0,64.0
5069,75.0,1,60,5.0,64.0
5070,75.0,1,40,4.0,64.0
5071,73.0,5,60,7.0,64.0
5072,57.0,4,60,10.0,64.0
5073,78.0,2,40,0.0,64.0
5074,73.0,59,60,5.0,64.0
5075,76.0,12,90,6.0,64.0
5076,71.0,3,120,7.0,64.0
5077,56.0,8,60,10.0,64.0
5078,76.0,15,120,0.0,64.0
5079,71.0,17,60,8.0,64.0
5080,71.0,44,120,5.0,64.0
5081,76.0,11,90,4.0,64.0
5082,76.0,2,40,8.0,64.0
5083,64.0,11,60,6.0,64.0
5084,68.0,8,60,8.0,64.0
5085,76.0,7,120,7.0,64.0
5086,59.0,4,40,10.0,64.0
5087,76.0,4,90,0.0,64.0
5088,76.0,1,90,5.0,64.0
5089,64.0,24,60,4.0,64.0
5090,66.0,4,40,6.0,64.0
5091,69.0,4,40,8.0,64.0
5092,66.0,55,40,4.0,64.0
5093,68.0,7,60,6.0,64.0
5094,71.0,1,60,8.0,64.0
5095,76.0,54,90,0.0,64.0
5096,52.0,9,40,10.0,64.0
5097,76.0,3,90,7.0,64.0
5098,68.0,35,60,4.0,64.0
5099,76.0,1,90,5.0,64.0
5100,73.0,4,60,8.0,64.0
5101,68.0,12,60,6.0,64.0
5102,71.0,32,60,8.0,64.0
5103,56.0,9,180,10.0,64.0
5104,76.0,64,90,7.0,64.0
5105,76.0,6,90,5.0,64.0
5106,68.0,3,40,4.0,64.0
5107,76.0,1,90,0.0,64.0
5108,69.0,7,40,6.0,64.0
5109,73.0,2,40,8.0,64.0
5110,69.0,5,60,4.0,64.0
5111,71.0,0,60,6.0,64.0
5112,74.0,3,60,8.0,64.0
5113,71.0,26,60,4.0,64.0
5114,76.0,1,90,5.0,64.0
5115,76.0,7,90,7.0,64.0
5116,76.0,56,90,0.0,64.0
5117,71.0,6,40,8.0,64.0
5118,64.0,32,60,8.0,64.0
5119,68.0,13,60,6.0,64.0
5120,88.0,1,90,1.0,64.0
5121,59.0,4,40,10.0,64.0
5122,68.0,1,40,4.0,64.0
5123,76.0,2,90,7.0,64.0
5124,76.0,1,90,5.0,64.0
5125,76.0,58,90,0.0,64.0
5126,66.0,9,60,8.0,64.0
5127,69.0,2,40,4.0,64.0
5128,69.0,2,40,6.0,64.0
5129,68.0,10,60,8.0,64.0
5130,71.0,29,60,6.0,64.0
5131,76.0,2,90,7.0,64.0
5132,71.0,1,60,4.0,64.0
5133,88.0,2,90,1.0,64.0
5134,50.0,5,40,10.0,64.0
5135,76.0,0,90,0.0,64.0
5136,76.0,51,90,5.0,64.0
5137,69.0,15,40,8.0,64.0
5138,68.0,15,60,8.0,64.0
5139,76.0,2,90,7.0,64.0
5140,71.0,6,60,6.0,64.0
5141,56.0,1,180,10.0,64.0
5142,88.0,13,90,1.0,64.0
5143,71.0,26,60,4.0,64.0
5144,76.0,0,90,5.0,64.0
5145,76.0,1,90,0.0,64.0
5146,69.0,1,40,8.0,64.0
5147,73.0,0,40,6.0,64.0
5148,73.0,62,40,4.0,64.0
5149,71.0,4,60,8.0,64.0
5150,74.0,2,60,6.0,64.0
5151,76.0,4,90,7.0,64.0
5152,76.0,1,90,5.0,64.0
5153,74.0,34,60,4.0,64.0
5154,76.0,0,90,0.0,64.0
5155,88.0,2,90,1.0,64.0
5156,69.0,63,60,8.0,64.0
5157,68.0,2,60,8.0,64.0
5158,74.0,1,40,6.0,64.0
5159,74.0,1,40,4.0,64.0
5160,76.0,6,90,5.0,64.0
5161,59.0,31,40,10.0,64.0
5162,92.0,75,90,1.0,64.0
5163,83.0,4,90,0.0,64.0
5164,76.0,3,90,7.0,64.0
5165,88.0,0,90,2.0,64.0
5166,69.0,8,40,8.0,64.0
5167,73.0,1,40,6.0,64.0
5168,73.0,2,40,4.0,64.0
5169,71.0,10,60,8.0,64.0
5170,74.0,11,90,6.0,64.0
5171,74.0,1,60,4.0,64.0
5172,76.0,1,90,5.0,64.0
5173,76.0,11,90,7.0,64.0
5174,80.0,2,90,0.0,64.0
5175,88.0,3,90,2.0,64.0
5176,52.0,1,60,10.0,64.0
5177,95.0,3,90,1.0,64.0
5178,69.0,63,60,8.0,64.0
5179,68.0,9,60,8.0,64.0
5180,56.0,12,60,10.0,64.0
5181,76.0,0,40,6.0,64.0
5182,71.0,10,90,7.0,64.0
5183,83.0,0,90,0.0,64.0
5184,92.0,2,90,1.0,64.0
5185,88.0,7,90,2.0,64.0
5186,71.0,2,60,5.0,64.0
5187,76.0,9,60,4.0,64.0
5188,66.0,64,60,8.0,64.0
5189,74.0,2,60,6.0,64.0
5190,74.0,6,40,4.0,64.0
5191,64.0,3,60,8.0,64.0
5192,73.0,0,60,6.0,64.0
5193,69.0,1,60,5.0,64.0
5194,88.0,4,120,2.0,64.0
5195,73.0,46,60,4.0,64.0
5196,45.0,7,60,3.0,64.0
5197,45.0,8,60,10.0,64.0
5198,69.0,2,60,7.0,64.0
5199,88.0,26,120,1.0,64.0
5200,85.0,2,120,0.0,64.0
5201,68.0,2,60,5.0,64.0
5202,68.0,9,60,7.0,64.0
5203,69.0,23,60,5.0,64.0
5204,61.0,15,40,8.0,64.0
5205,57.0,7,60,10.0,64.0
5206,69.0,3,90,7.0,64.0
5207,73.0,3,40,6.0,64.0
5208,73.0,2,40,4.0,64.0
5209,71.0,5,40,6.0,64.0
5210,71.0,0,40,4.0,64.0
5211,71.0,78,40,5.0,64.0
5212,71.0,1,30,7.0,64.0
5213,73.0,5,90,6.0,64.0
5214,73.0,14,90,4.0,64.0
5215,69.0,3,60,7.0,64.0
5216,69.0,28,60,5.0,64.0
5217,50.0,10,60,10.0,64.0
5218,66.0,29,270,8.0,64.0
5219,68.0,30,60,5.0,64.0
5220,68.0,11,60,7.0,64.0
5221,54.0,36,60,10.0,64.0
5222,66.0,4,40,7.0,64.0
5223,74.0,1,40,6.0,64.0
5224,66.0,14,40,5.0,64.0
5225,74.0,2,30,4.0,64.0
5226,73.0,3,40,6.0,64.0
5227,69.0,41,60,7.0,64.0
5228,73.0,5,40,4.0,64.0
5229,69.0,9,30,5.0,64.0
5230,71.0,1,60,6.0,64.0
5231,44.0,3,60,10.0,64.0
5232,71.0,55,60,4.0,64.0
5233,68.0,3,60,5.0,64.0
5234,68.0,5,60,7.0,64.0
5235,69.0,5,60,5.0,64.0
5236,69.0,36,60,7.0,64.0
5237,68.0,34,60,7.0,64.0
5238,56.0,5,60,10.0,64.0
5239,71.0,7,40,6.0,64.0
5240,68.0,2,60,5.0,64.0
5241,71.0,0,60,4.0,64.0
5242,65.0,0,60,8.0,64.0
5243,69.0,2,40,6.0,64.0
5244,66.0,66,60,7.0,64.0
5245,69.0,11,40,4.0,64.0
5246,66.0,1,40,5.0,64.0
5247,66.0,8,40,8.0,64.0
5248,71.0,4,90,6.0,64.0
5249,65.0,0,60,5.0,64.0
5250,65.0,0,60,7.0,64.0
5251,49.0,8,60,10.0,64.0
5252,68.0,26,60,8.0,64.0
5253,71.0,7,90,4.0,64.0
5254,66.0,63,40,8.0,64.0
5255,65.0,15,60,8.0,64.0
5256,73.0,1,60,6.0,64.0
5257,68.0,22,90,7.0,64.0
5258,68.0,0,60,5.0,64.0
5259,53.0,11,60,10.0,64.0
5260,73.0,0,40,4.0,64.0
5261,71.0,8,40,6.0,64.0
5262,63.0,0,60,8.0,64.0
5263,71.0,73,40,4.0,64.0
5264,61.0,3,60,8.0,64.0
5265,69.0,0,60,6.0,64.0
5266,69.0,8,60,5.0,64.0
5267,42.0,0,60,10.0,64.0
5268,69.0,0,60,7.0,64.0
5269,69.0,36,60,4.0,64.0
5270,73.0,54,60,5.0,64.0
5271,73.0,5,40,7.0,64.0
5272,66.0,5,60,7.0,64.0
5273,61.0,11,40,8.0,64.0
5274,69.0,1,60,6.0,64.0
5275,66.0,33,60,5.0,64.0
5276,54.0,1,60,10.0,64.0
5277,69.0,3,40,4.0,64.0
5278,71.0,5,60,6.0,64.0
5279,68.0,10,60,7.0,64.0
5280,71.0,2,40,4.0,64.0
5281,68.0,46,60,5.0,64.0
5282,73.0,11,60,6.0,64.0
5283,69.0,3,60,7.0,64.0
5284,54.0,5,40,8.0,64.0
5285,73.0,3,60,4.0,64.0
5286,69.0,49,60,5.0,64.0
5287,52.0,4,60,10.0,64.0
5288,71.0,8,60,7.0,64.0
5289,71.0,38,60,5.0,64.0
5290,73.0,12,60,6.0,64.0
5291,69.0,0,60,7.0,64.0
5292,50.0,5,60,10.0,64.0
5293,57.0,4,180,8.0,64.0
5294,73.0,16,40,4.0,64.0
5295,69.0,8,60,5.0,64.0
5296,74.0,13,40,6.0,64.0
5297,74.0,10,40,4.0,64.0
5298,71.0,3,40,7.0,64.0
5299,71.0,62,40,5.0,64.0
5300,76.0,10,60,6.0,64.0
5301,76.0,4,60,4.0,64.0
5302,49.0,8,60,10.0,64.0
5303,73.0,0,60,7.0,64.0
5304,73.0,23,60,5.0,64.0
5305,76.0,13,40,7.0,64.0
5306,76.0,48,60,5.0,64.0
5307,73.0,10,60,6.0,64.0
5308,69.0,8,60,7.0,64.0
5309,54.0,3,60,10.0,64.0
5310,69.0,2,90,8.0,64.0
5311,69.0,26,60,5.0,64.0
5312,73.0,1,60,4.0,64.0
5313,74.0,8,40,6.0,64.0
5314,71.0,7,60,7.0,64.0
5315,71.0,7,40,5.0,64.0
5316,74.0,57,40,4.0,64.0
5317,76.0,2,60,6.0,64.0
5318,52.0,0,60,10.0,64.0
5319,73.0,5,60,7.0,64.0
5320,73.0,1,60,5.0,64.0
5321,69.0,10,90,8.0,64.0
5322,76.0,33,60,4.0,64.0
5323,74.0,3,60,7.0,64.0
5324,74.0,48,60,5.0,64.0
5325,73.0,17,40,7.0,64.0
5326,50.0,0,60,10.0,64.0
5327,73.0,9,60,5.0,64.0
5328,69.0,1,90,8.0,64.0
5329,76.0,8,60,6.0,64.0
5330,76.0,20,60,4.0,64.0
5331,74.0,11,40,7.0,64.0
5332,74.0,2,40,5.0,64.0
5333,78.0,0,40,6.0,64.0
5334,78.0,75,40,4.0,64.0
5335,76.0,3,60,7.0,64.0
5336,49.0,1,60,10.0,64.0
5337,79.0,3,60,6.0,64.0
5338,69.0,20,90,8.0,64.0
5339,79.0,3,60,4.0,64.0
5340,76.0,27,60,5.0,64.0
5341,74.0,1,60,7.0,64.0
5342,74.0,52,60,5.0,64.0
5343,73.0,11,60,7.0,64.0
5344,69.0,7,90,8.0,64.0
5345,73.0,22,60,5.0,64.0
5346,79.0,5,40,4.0,64.0
5347,52.0,5,60,10.0,64.0
5348,79.0,4,40,6.0,64.0
5349,74.0,2,40,7.0,64.0
5350,78.0,77,60,6.0,64.0
5351,78.0,2,40,4.0,64.0
5352,74.0,0,40,5.0,64.0
5353,45.0,7,60,10.0,64.0
5354,76.0,2,60,7.0,64.0
5355,79.0,29,60,6.0,64.0
5356,79.0,1,60,4.0,64.0
5357,76.0,2,60,5.0,64.0
5358,69.0,25,90,8.0,64.0
5359,74.0,44,60,7.0,64.0
5360,74.0,2,60,5.0,64.0
5361,73.0,2,60,5.0,64.0
5362,49.0,10,60,10.0,64.0
5363,73.0,4,60,7.0,64.0
5364,81.0,16,60,6.0,64.0
5365,64.0,2,90,8.0,64.0
5366,81.0,7,60,4.0,64.0
5367,79.0,15,40,6.0,64.0
5368,71.0,2,60,7.0,64.0
5369,71.0,61,60,5.0,64.0
5370,79.0,9,40,4.0,64.0
5371,78.0,1,60,6.0,64.0
5372,50.0,10,60,10.0,64.0
5373,69.0,0,60,5.0,64.0
5374,66.0,5,90,8.0,64.0
5375,69.0,24,60,7.0,64.0
5376,78.0,5,60,4.0,64.0
5377,74.0,6,60,6.0,64.0
5378,74.0,67,40,4.0,64.0
5379,71.0,0,60,6.0,64.0
5380,66.0,8,90,8.0,64.0
5381,62.0,1,60,10.0,64.0
5382,66.0,5,40,5.0,64.0
5383,66.0,1,40,7.0,64.0
5384,71.0,40,60,4.0,64.0
5385,73.0,1,60,6.0,64.0
5386,73.0,57,40,4.0,64.0
5387,74.0,9,60,6.0,64.0
5388,74.0,25,60,4.0,64.0
5389,66.0,10,90,8.0,64.0
5390,71.0,14,270,5.0,64.0
5391,55.0,7,40,10.0,64.0
5392,71.0,12,240,7.0,64.0
5393,76.0,6,60,6.0,64.0
5394,76.0,45,40,4.0,64.0
5395,73.0,15,60,6.0,64.0
5396,66.0,5,90,8.0,64.0
5397,73.0,18,40,4.0,64.0
5398,59.0,19,60,10.0,64.0
5399,74.0,14,40,6.0,64.0
5400,74.0,46,40,4.0,64.0
5401,76.0,4,60,6.0,64.0
5402,64.0,2,90,8.0,64.0
5403,49.0,10,60,10.0,64.0
5404,76.0,25,60,4.0,64.0
5405,73.0,16,60,6.0,64.0
5406,73.0,47,40,4.0,64.0
5407,70.0,6,60,6.0,64.0
5408,67.0,11,90,8.0,64.0
5409,76.0,5,60,7.0,64.0
5410,76.0,2,60,5.0,64.0
5411,61.0,24,60,10.0,64.0
5412,70.0,9,40,4.0,64.0
5413,71.0,9,60,6.0,64.0
5414,71.0,55,40,4.0,64.0
5415,73.0,2,60,6.0,64.0
5416,70.0,8,40,7.0,64.0
5417,54.0,12,40,10.0,64.0
5418,66.0,5,60,8.0,64.0
5419,70.0,1,60,5.0,64.0
5420,73.0,25,60,4.0,64.0
5421,74.0,4,40,6.0,64.0
5422,74.0,59,40,4.0,64.0
5423,71.0,10,40,6.0,64.0
5424,71.0,23,60,4.0,64.0
5425,66.0,7,150,7.0,64.0
5426,66.0,24,60,8.0,64.0
5427,58.0,0,40,10.0,64.0
5428,66.0,18,150,5.0,64.0
5429,73.0,0,40,6.0,64.0
5430,73.0,61,40,4.0,64.0
5431,74.0,2,60,6.0,64.0
5432,74.0,11,60,4.0,64.0
5433,47.0,6,60,10.0,64.0
5434,71.0,20,90,8.0,64.0
5435,76.0,0,60,6.0,64.0
5436,67.0,5,40,7.0,64.0
5437,76.0,2,40,4.0,64.0
5438,67.0,68,40,5.0,64.0
5439,73.0,2,60,6.0,64.0
5440,64.0,30,60,7.0,64.0
5441,73.0,0,60,4.0,64.0
5442,59.0,7,60,10.0,64.0
5443,64.0,2,60,5.0,64.0
5444,66.0,1,60,8.0,64.0
5445,74.0,3,60,6.0,64.0
5446,66.0,0,40,7.0,64.0
5447,74.0,2,40,4.0,64.0
5448,66.0,66,40,5.0,64.0
5449,67.0,13,60,7.0,64.0
5450,76.0,1,60,6.0,64.0
5451,76.0,46,60,4.0,64.0
5452,67.0,5,60,5.0,64.0
5453,71.0,1,60,8.0,64.0
5454,52.0,6,60,10.0,64.0
5455,74.0,41,60,6.0,64.0
5456,74.0,3,60,4.0,64.0
5457,73.0,3,60,6.0,64.0
5458,55.0,13,60,10.0,64.0
5459,64.0,3,60,7.0,64.0
5460,73.0,4,40,4.0,64.0
5461,64.0,2,40,5.0,64.0
5462,71.0,30,60,8.0,64.0
5463,71.0,2,40,6.0,64.0
5464,71.0,67,40,4.0,64.0
5465,78.0,7,120,6.0,64.0
5466,78.0,59,120,4.0,64.0
5467,73.0,10,40,7.0,64.0
5468,70.0,22,60,8.0,64.0
5469,54.0,24,60,10.0,64.0
5470,73.0,1,40,5.0,64.0
5471,78.0,1,60,7.0,64.0
5472,78.0,0,40,5.0,64.0
5473,70.0,5,60,7.0,64.0
5474,42.0,31,60,10.0,64.0
5475,78.0,1,90,6.0,64.0
5476,70.0,5,60,5.0,64.0
5477,73.0,2,40,8.0,64.0
5478,78.0,9,90,4.0,64.0
5479,78.0,4,90,0.0,64.0
5480,71.0,3,40,7.0,64.0
5481,44.0,8,40,10.0,64.0
5482,71.0,51,60,5.0,64.0
5483,73.0,12,60,7.0,64.0
5484,46.0,10,60,10.0,64.0
5485,78.0,3,90,6.0,64.0
5486,66.0,0,40,8.0,64.0
5487,78.0,55,90,0.0,64.0
5488,73.0,13,60,5.0,64.0
5489,78.0,2,90,4.0,64.0
5490,74.0,18,40,7.0,64.0
5491,74.0,2,40,5.0,64.0
5492,73.0,11,60,7.0,64.0
5493,78.0,0,90,6.0,64.0
5494,46.0,8,60,10.0,64.0
5495,73.0,23,60,5.0,64.0
5496,78.0,6,90,4.0,64.0
5497,70.0,2,150,8.0,64.0
5498,78.0,64,90,0.0,64.0
5499,74.0,3,60,7.0,64.0
5500,47.0,5,40,10.0,64.0
5501,74.0,3,60,5.0,64.0
5502,76.0,14,60,7.0,64.0
5503,49.0,10,90,10.0,64.0
5504,76.0,23,60,5.0,64.0
5505,78.0,4,120,6.0,64.0
5506,78.0,2,90,4.0,64.0
5507,78.0,2,90,0.0,64.0
5508,73.0,7,60,7.0,64.0
5509,73.0,55,60,5.0,64.0
5510,66.0,5,60,7.0,64.0
5511,46.0,11,60,10.0,64.0
5512,73.0,9,40,8.0,64.0
5513,66.0,25,60,5.0,64.0
5514,78.0,4,90,6.0,64.0
5515,78.0,0,90,0.0,64.0
5516,78.0,1,90,4.0,64.0
5517,90.0,21,90,1.0,64.0
5518,68.0,2,60,7.0,64.0
5519,47.0,3,60,10.0,64.0
5520,68.0,38,60,5.0,64.0
5521,70.0,10,60,7.0,64.0
5522,49.0,10,60,10.0,64.0
5523,78.0,4,90,6.0,64.0
5524,70.0,32,60,5.0,64.0
5525,78.0,7,90,4.0,64.0
5526,78.0,0,90,0.0,64.0
5527,64.0,1,60,8.0,64.0
5528,90.0,5,90,1.0,64.0
5529,71.0,0,60,7.0,64.0
5530,71.0,54,60,5.0,64.0
5531,70.0,35,60,7.0,64.0
5532,78.0,1,90,6.0,64.0
5533,70.0,7,60,5.0,64.0
5534,78.0,8,90,0.0,64.0
5535,49.0,1,60,10.0,64.0
5536,78.0,3,90,4.0,64.0
5537,70.0,4,180,8.0,64.0
5538,90.0,0,90,1.0,64.0
5539,71.0,6,60,5.0,64.0
5540,71.0,3,60,7.0,64.0
5541,50.0,70,60,10.0,64.0
5542,78.0,5,90,6.0,64.0
5543,73.0,2,90,7.0,64.0
5544,52.0,24,60,10.0,64.0
5545,73.0,5,60,5.0,64.0
5546,78.0,0,90,0.0,64.0
5547,78.0,27,90,4.0,64.0
5548,90.0,4,90,1.0,64.0
5549,71.0,0,60,7.0,64.0
5550,71.0,32,60,5.0,64.0
5551,70.0,11,60,7.0,64.0
5552,78.0,0,90,6.0,64.0
5553,73.0,9,40,8.0,64.0
5554,78.0,0,90,0.0,64.0
5555,90.0,1,90,2.0,64.0
5556,90.0,1,90,1.0,64.0
5557,78.0,2,90,4.0,64.0
5558,70.0,26,60,5.0,64.0
5559,52.0,7,60,10.0,64.0
5560,71.0,5,60,7.0,64.0
5561,50.0,10,40,10.0,64.0
5562,71.0,58,60,5.0,64.0
5563,73.0,11,60,7.0,64.0
5564,66.0,13,60,8.0,64.0
5565,52.0,5,90,10.0,64.0
5566,78.0,3,90,6.0,64.0
5567,90.0,0,90,2.0,64.0
5568,78.0,1,90,0.0,64.0
5569,90.0,23,90,1.0,64.0
5570,73.0,6,60,5.0,64.0
5571,78.0,1,90,4.0,64.0
5572,76.0,26,60,7.0,64.0
5573,76.0,21,90,5.0,64.0
5574,74.0,20,60,7.0,64.0
5575,70.0,4,60,8.0,64.0
5576,78.0,5,60,6.0,64.0
5577,78.0,3,90,0.0,64.0
5578,54.0,4,60,10.0,64.0
5579,90.0,11,90,1.0,64.0
5580,74.0,1,60,5.0,64.0
5581,90.0,3,90,2.0,64.0
5582,78.0,6,60,4.0,64.0
5583,73.0,13,60,7.0,64.0
5584,52.0,1,40,10.0,64.0
5585,73.0,49,60,5.0,64.0
5586,71.0,14,60,7.0,64.0
5587,50.0,9,60,10.0,64.0
5588,78.0,0,60,6.0,64.0
5589,83.0,4,150,0.0,64.0
5590,71.0,1,60,8.0,64.0
5591,78.0,34,60,4.0,64.0
5592,50.0,1,60,3.0,64.0
5593,71.0,1,60,5.0,64.0
5594,78.0,22,120,2.0,64.0
5595,90.0,2,120,1.0,64.0
5596,76.0,19,60,6.0,64.0
5597,76.0,10,40,4.0,64.0
5598,78.0,0,60,6.0,64.0
5599,78.0,34,60,4.0,64.0
5600,66.0,4,40,7.0,64.0
5601,59.0,6,60,8.0,64.0
5602,50.0,5,40,10.0,64.0
5603,66.0,3,40,5.0,64.0
5604,79.0,2,60,6.0,64.0
5605,79.0,56,40,4.0,64.0
5606,49.0,5,40,10.0,64.0
5607,78.0,16,40,6.0,64.0
5608,71.0,31,270,7.0,64.0
5609,78.0,3,40,4.0,64.0
5610,50.0,7,90,10.0,64.0
5611,71.0,5,300,5.0,64.0
5612,62.0,39,60,8.0,64.0
5613,83.0,45,60,6.0,64.0
5614,83.0,9,40,4.0,64.0
5615,82.0,41,60,6.0,64.0
5616,82.0,2,40,4.0,64.0
5617,66.0,4,60,8.0,64.0
5618,52.0,9,40,10.0,64.0
5619,83.0,4,60,6.0,64.0
5620,50.0,1,40,10.0,64.0
5621,83.0,44,40,4.0,64.0
5622,76.0,2,60,6.0,64.0
5623,49.0,0,60,10.0,64.0
5624,67.0,32,60,8.0,64.0
5625,76.0,1,60,4.0,64.0
5626,74.0,13,60,6.0,64.0
5627,74.0,51,40,4.0,64.0
5628,76.0,3,60,6.0,64.0
5629,71.0,26,60,8.0,64.0
5630,64.0,12,40,7.0,64.0
5631,64.0,1,60,5.0,64.0
5632,49.0,4,40,10.0,64.0
5633,76.0,5,60,4.0,64.0
5634,78.0,6,40,6.0,64.0
5635,47.0,0,40,10.0,64.0
5636,78.0,62,40,4.0,64.0
5637,49.0,21,90,10.0,64.0
5638,76.0,6,40,6.0,64.0
5639,70.0,11,60,8.0,64.0
5640,61.0,6,60,7.0,64.0
5641,61.0,13,60,5.0,64.0
5642,76.0,4,40,4.0,64.0
5643,79.0,42,60,6.0,64.0
5644,79.0,15,40,4.0,64.0
5645,78.0,2,60,6.0,64.0
5646,70.0,8,60,7.0,64.0
5647,70.0,2,40,5.0,64.0
5648,78.0,2,40,4.0,64.0
5649,50.0,4,60,10.0,64.0
5650,66.0,32,60,8.0,64.0
5651,76.0,4,40,6.0,64.0
5652,49.0,4,40,10.0,64.0
5653,76.0,67,40,4.0,64.0
5654,74.0,7,60,6.0,64.0
5655,71.0,5,60,7.0,64.0
5656,47.0,37,60,10.0,64.0
5657,74.0,1,60,4.0,64.0
5658,66.0,5,60,8.0,64.0
5659,71.0,2,40,5.0,64.0
5660,49.0,40,60,10.0,64.0
5661,50.0,20,40,10.0,64.0
5662,71.0,1,60,7.0,64.0
5663,71.0,2,60,5.0,64.0
5664,78.0,10,40,4.0,64.0
5665,62.0,3,60,8.0,64.0
5666,78.0,19,60,6.0,64.0
5667,47.0,82,40,10.0,64.0
5668,52.0,8,60,10.0,64.0
5669,71.0,10,60,5.0,64.0
5670,59.0,0,60,8.0,64.0
5671,71.0,29,60,7.0,64.0
5672,79.0,2,40,6.0,64.0
5673,79.0,3,40,4.0,64.0
5674,54.0,59,40,10.0,64.0
5675,55.0,7,40,10.0,64.0
5676,67.0,11,40,5.0,64.0
5677,59.0,1,60,8.0,64.0
5678,64.0,7,60,7.0,64.0
5679,71.0,10,60,4.0,64.0
5680,71.0,19,60,6.0,64.0
5681,52.0,100,40,10.0,64.0
5682,70.0,6,60,4.0,64.0
5683,66.0,6,240,5.0,64.0
5684,54.0,4,240,10.0,64.0
5685,66.0,37,270,8.0,64.0
5686,70.0,53,60,6.0,64.0
5687,61.0,8,240,7.0,64.0
5688,66.0,3,60,4.0,64.0
5689,66.0,54,60,6.0,64.0
5690,68.0,8,60,4.0,64.0
5691,68.0,27,60,6.0,64.0
5692,70.0,23,40,6.0,64.0
5693,70.0,4,40,4.0,64.0
5694,71.0,46,60,6.0,64.0
5695,71.0,8,60,4.0,64.0
5696,73.0,50,60,6.0,64.0
5697,73.0,6,60,4.0,64.0
5698,74.0,1,60,6.0,64.0
5699,74.0,3,60,4.0,64.0
5700,73.0,0,60,7.0,64.0
5701,70.0,6,60,8.0,64.0
5702,52.0,1,40,10.0,64.0
5703,73.0,39,60,5.0,64.0
5704,76.0,12,40,4.0,64.0
5705,76.0,67,60,6.0,64.0
5706,71.0,1,60,7.0,64.0
5707,78.0,3,60,6.0,64.0
5708,66.0,1,60,8.0,64.0
5709,71.0,3,60,5.0,64.0
5710,78.0,46,60,4.0,64.0
5711,50.0,6,60,10.0,64.0
5712,79.0,30,60,6.0,64.0
5713,79.0,14,60,4.0,64.0
5714,70.0,8,40,5.0,64.0
5715,61.0,2,60,8.0,64.0
5716,70.0,3,40,7.0,64.0
5717,78.0,12,60,4.0,64.0
5718,54.0,5,60,10.0,64.0
5719,78.0,51,60,6.0,64.0
5720,76.0,37,60,4.0,64.0
5721,76.0,1,60,6.0,64.0
5722,66.0,4,60,7.0,64.0
5723,66.0,0,60,5.0,64.0
5724,59.0,6,60,8.0,64.0
5725,74.0,7,40,4.0,64.0
5726,74.0,53,60,6.0,64.0
5727,59.0,3,40,10.0,64.0
5728,73.0,9,60,4.0,64.0
5729,73.0,56,60,6.0,64.0
5730,71.0,7,60,4.0,64.0
5731,66.0,3,60,7.0,64.0
5732,66.0,0,60,5.0,64.0
5733,62.0,2,60,8.0,64.0
5734,71.0,5,60,6.0,64.0
5735,54.0,31,60,10.0,64.0
5736,70.0,65,60,4.0,64.0
5737,70.0,0,40,6.0,64.0
5738,71.0,7,60,4.0,64.0
5739,62.0,2,60,7.0,64.0
5740,62.0,12,60,5.0,64.0
5741,59.0,103,60,8.0,64.0
5742,55.0,1,60,10.0,64.0
5743,71.0,4,40,6.0,64.0
5744,67.0,1,60,7.0,64.0
5745,67.0,1,60,5.0,64.0
5746,52.0,2,60,10.0,64.0
5747,73.0,1,60,6.0,64.0
5748,64.0,114,60,8.0,64.0
5749,73.0,1,40,4.0,64.0
5750,66.0,1,60,5.0,64.0
5751,66.0,1,60,7.0,64.0
5752,66.0,4,40,6.0,64.0
5753,62.0,0,60,8.0,64.0
5754,54.0,111,60,10.0,64.0
5755,66.0,4,40,4.0,64.0
5756,70.0,136,90,6.0,64.0
5757,61.0,18,60,8.0,64.0
5758,66.0,0,60,5.0,64.0
5759,66.0,3,60,7.0,64.0
5760,42.0,4,40,10.0,64.0
5761,70.0,3,40,4.0,64.0
5762,66.0,41,150,5.0,64.0
5763,66.0,7,240,7.0,64.0
5764,62.0,3,240,8.0,64.0
5765,47.0,53,240,10.0,64.0
5766,71.0,17,120,4.0,64.0
5767,71.0,26,60,6.0,64.0
5768,66.0,15,60,6.0,64.0
5769,62.0,55,60,6.0,64.0
5770,66.0,5,60,6.0,64.0
5771,71.0,55,60,6.0,64.0
5772,74.0,44,60,6.0,64.0
5773,66.0,7,60,7.0,64.0
5774,58.0,3,60,10.0,64.0
5775,73.0,43,60,6.0,64.0
5776,61.0,2,40,8.0,64.0
5777,76.0,69,60,6.0,64.0
5778,74.0,49,60,6.0,64.0
5779,66.0,3,60,7.0,64.0
5780,59.0,10,60,10.0,64.0
5781,59.0,5,40,8.0,64.0
5782,78.0,44,60,6.0,64.0
5783,67.0,7,40,7.0,64.0
5784,83.0,31,60,6.0,64.0
5785,55.0,0,60,10.0,64.0
5786,62.0,7,40,8.0,64.0
5787,74.0,76,40,6.0,64.0
5788,73.0,54,60,6.0,64.0
5789,52.0,3,60,10.0,64.0
5790,67.0,7,60,7.0,64.0
5791,61.0,2,40,8.0,64.0
5792,83.0,51,60,6.0,64.0
5793,66.0,0,60,7.0,64.0
5794,54.0,2,60,10.0,64.0
5795,73.0,3,60,6.0,64.0
5796,61.0,47,40,8.0,64.0
5797,82.0,79,40,6.0,64.0
5798,83.0,57,60,6.0,64.0
5799,66.0,4,240,7.0,64.0
5800,47.0,24,240,10.0,64.0
5801,62.0,5,240,8.0,64.0
5802,78.0,54,60,6.0,64.0
5803,74.0,58,60,6.0,64.0
5804,78.0,22,60,6.0,64.0
5805,71.0,44,60,6.0,64.0
5806,74.0,75,40,6.0,64.0
5807,68.0,1,60,6.0,64.0
5808,59.0,4,40,10.0,64.0
5809,68.0,36,60,8.0,64.0
5810,73.0,4,60,7.0,64.0
5811,77.0,84,40,6.0,64.0
5812,78.0,54,60,6.0,64.0
5813,57.0,0,60,10.0,64.0
5814,73.0,5,60,7.0,64.0
5815,69.0,4,60,8.0,64.0
5816,73.0,49,60,6.0,64.0
5817,69.0,48,60,6.0,64.0
5818,62.0,2,60,10.0,64.0
5819,66.0,5,40,8.0,64.0
5820,74.0,2,60,7.0,64.0
5821,73.0,63,60,6.0,64.0
5822,68.0,4,60,6.0,64.0
5823,59.0,0,60,10.0,64.0
5824,74.0,1,60,7.0,64.0
5825,71.0,46,40,8.0,64.0
5826,78.0,59,60,6.0,64.0
5827,68.0,11,60,6.0,64.0
5828,73.0,38,60,7.0,64.0
5829,61.0,1,40,10.0,64.0
5830,71.0,1,40,8.0,64.0
5831,77.0,90,40,6.0,64.0
5832,78.0,33,60,6.0,64.0
5833,54.0,15,90,10.0,64.0
5834,73.0,51,270,7.0,64.0
5835,69.0,6,240,8.0,64.0
5836,73.0,63,60,6.0,64.0
5837,69.0,36,60,6.0,64.0
5838,54.0,8,90,10.0,64.0
5839,73.0,40,40,6.0,64.0
5840,78.0,4,90,6.0,64.0
5841,54.0,34,90,10.0,64.0
5842,79.0,53,60,6.0,64.0
5843,54.0,0,60,10.0,64.0
5844,73.0,48,60,7.0,64.0
5845,81.0,2,40,6.0,64.0
5846,66.0,0,40,8.0,64.0
5847,78.0,77,40,6.0,64.0
5848,69.0,12,60,7.0,64.0
5849,72.0,56,60,6.0,64.0
5850,66.0,0,60,8.0,64.0
5851,71.0,43,60,6.0,64.0
5852,52.0,91,90,10.0,64.0
5853,69.0,9,40,7.0,64.0
5854,66.0,34,60,8.0,64.0
5855,72.0,0,40,6.0,64.0
5856,81.0,15,30,6.0,64.0
5857,72.0,15,60,6.0,64.0
5858,52.0,34,90,10.0,64.0
5859,71.0,41,60,6.0,64.0
5860,69.0,6,40,7.0,64.0
5861,72.0,9,60,6.0,64.0
5862,66.0,6,40,8.0,64.0
5863,52.0,22,60,10.0,64.0
5864,81.0,95,30,6.0,64.0
5865,63.0,2,60,7.0,64.0
5866,71.0,56,60,6.0,64.0
5867,66.0,13,60,8.0,64.0
5868,69.0,38,60,6.0,64.0
5869,71.0,36,60,6.0,64.0
5870,66.0,13,40,8.0,64.0
5871,51.0,33,90,10.0,64.0
5872,69.0,9,60,7.0,64.0
5873,73.0,27,90,6.0,64.0
5874,75.0,48,40,6.0,64.0
5875,51.0,28,90,10.0,64.0
5876,76.0,44,60,6.0,64.0
5877,78.0,6,60,6.0,64.0
5878,66.0,7,40,8.0,64.0
5879,71.0,42,60,7.0,64.0
5880,51.0,1,40,10.0,64.0
5881,79.0,81,60,6.0,64.0
5882,71.0,57,60,7.0,64.0
5883,81.0,4,60,6.0,64.0
5884,63.0,1,60,8.0,64.0
5885,78.0,43,60,6.0,64.0
5886,75.0,1,60,6.0,64.0
5887,66.0,5,60,8.0,64.0
5888,71.0,42,60,7.0,64.0
5889,47.0,27,90,10.0,64.0
5890,78.0,38,60,6.0,64.0
5891,71.0,45,40,6.0,64.0
5892,47.0,39,90,10.0,64.0
5893,81.0,41,90,6.0,64.0
5894,79.0,2,60,6.0,64.0
5895,47.0,0,40,10.0,64.0
5896,63.0,8,40,8.0,64.0
5897,71.0,36,60,7.0,64.0
5898,78.0,84,40,6.0,64.0
5899,79.0,59,90,6.0,64.0
5900,64.0,2,60,8.0,64.0
5901,71.0,11,60,7.0,64.0
5902,76.0,36,90,6.0,64.0
5903,71.0,42,60,6.0,64.0
5904,67.0,3,60,8.0,64.0
5905,76.0,9,60,7.0,64.0
5906,52.0,74,90,10.0,64.0
5907,67.0,1,60,6.0,64.0
5908,71.0,40,60,6.0,64.0
5909,52.0,21,90,10.0,64.0
5910,76.0,54,60,6.0,64.0
5911,79.0,0,60,6.0,64.0
5912,76.0,37,60,7.0,64.0
5913,71.0,0,60,8.0,64.0
5914,52.0,5,40,10.0,64.0
5915,81.0,71,40,6.0,64.0
5916,80.0,47,60,6.0,64.0
5917,64.0,17,40,8.0,64.0
5918,71.0,11,60,7.0,64.0
5919,78.0,40,60,6.0,64.0
5920,71.0,41,60,7.0,64.0
5921,80.0,2,60,6.0,64.0
5922,50.0,88,120,10.0,64.0
5923,64.0,17,40,8.0,64.0
5924,83.0,8,40,6.0,64.0
5925,80.0,27,90,6.0,64.0
5926,50.0,44,90,10.0,64.0
5927,78.0,15,90,6.0,64.0
5928,64.0,17,40,8.0,64.0
5929,71.0,10,60,7.0,64.0
5930,80.0,5,60,6.0,64.0
5931,50.0,23,60,10.0,64.0
5932,83.0,82,40,6.0,64.0
5933,64.0,9,60,8.0,64.0
5934,81.0,2,60,6.0,64.0
5935,73.0,61,60,7.0,64.0
5936,76.0,38,60,6.0,64.0
5937,69.0,4,60,8.0,64.0
5938,73.0,11,60,6.0,64.0
5939,49.0,84,120,10.0,64.0
5940,76.0,34,60,7.0,64.0
5941,76.0,10,40,6.0,64.0
5942,69.0,25,90,6.0,64.0
5943,49.0,26,90,10.0,64.0
5944,71.0,44,60,6.0,64.0
5945,69.0,3,40,8.0,64.0
5946,76.0,4,60,7.0,64.0
5947,73.0,8,60,6.0,64.0
5948,49.0,56,60,10.0,64.0
5949,74.0,61,60,6.0,64.0
5950,76.0,49,60,6.0,64.0
5951,73.0,4,60,7.0,64.0
5952,69.0,6,60,8.0,64.0
5953,78.0,58,60,6.0,64.0
5954,79.0,2,60,6.0,64.0
5955,73.0,30,60,7.0,64.0
5956,45.0,75,90,10.0,64.0
5957,64.0,10,60,8.0,64.0
5958,81.0,9,40,6.0,64.0
5959,79.0,6,60,6.0,64.0
5960,45.0,40,60,10.0,64.0
5961,78.0,62,60,6.0,64.0
5962,79.0,1,60,6.0,64.0
5963,76.0,3,60,5.0,64.0
5964,45.0,1,60,10.0,64.0
5965,79.0,43,60,4.0,64.0
5966,73.0,4,60,7.0,64.0
5967,69.0,0,40,8.0,64.0
5968,76.0,75,40,6.0,64.0
5969,69.0,19,90,8.0,64.0
5970,50.0,6,90,10.0,64.0
5971,74.0,1,60,7.0,64.0
5972,78.0,6,120,4.0,64.0
5973,78.0,5,90,6.0,64.0
5974,74.0,26,40,5.0,64.0
5975,74.0,49,60,6.0,64.0
5976,69.0,4,60,6.0,64.0
5977,78.0,15,40,7.0,64.0
5978,62.0,36,60,10.0,64.0
5979,69.0,1,60,5.0,64.0
5980,72.0,69,40,6.0,64.0
5981,71.0,35,60,6.0,64.0
5982,78.0,18,90,7.0,64.0
5983,55.0,5,40,10.0,64.0
5984,71.0,3,90,5.0,64.0
5985,74.0,51,60,6.0,64.0
5986,67.0,11,60,6.0,64.0
5987,59.0,6,60,10.0,64.0
5988,67.0,7,40,8.0,64.0
5989,78.0,16,60,4.0,64.0
5990,78.0,92,30,6.0,64.0
5991,76.0,12,60,6.0,64.0
5992,67.0,18,60,8.0,64.0
5993,49.0,33,90,10.0,64.0
5994,76.0,13,120,4.0,64.0
5995,73.0,28,60,6.0,64.0
5996,67.0,15,60,6.0,64.0
5997,76.0,18,40,7.0,64.0
5998,61.0,29,60,10.0,64.0
5999,71.0,1,40,5.0,64.0
6000,71.0,66,40,6.0,64.0
6001,69.0,0,60,6.0,64.0
6002,54.0,40,60,10.0,64.0
6003,76.0,30,90,7.0,64.0
6004,69.0,7,90,5.0,64.0
6005,73.0,30,60,6.0,64.0
6006,66.0,4,40,6.0,64.0
6007,57.0,40,60,10.0,64.0
6008,76.0,3,60,4.0,64.0
6009,66.0,13,40,8.0,64.0
6010,76.0,94,40,6.0,64.0
6011,74.0,10,90,6.0,64.0
6012,66.0,12,90,8.0,64.0
6013,47.0,12,90,10.0,64.0
6014,74.0,22,120,4.0,64.0
6015,71.0,34,40,6.0,64.0
6016,66.0,8,60,6.0,64.0
6017,74.0,15,40,7.0,64.0
6018,59.0,40,60,10.0,64.0
6019,69.0,2,60,5.0,64.0
6020,69.0,65,60,6.0,64.0
6021,67.0,4,60,6.0,64.0
6022,52.0,6,60,10.0,64.0
6023,67.0,43,60,5.0,64.0
6024,74.0,6,90,7.0,64.0
6025,71.0,53,60,6.0,64.0
6026,64.0,5,40,8.0,64.0
6027,64.0,11,60,6.0,64.0
6028,55.0,7,60,10.0,64.0
6029,71.0,0,60,5.0,64.0
6030,74.0,23,60,4.0,64.0
6031,74.0,64,30,6.0,64.0
6032,64.0,6,60,8.0,64.0
6033,73.0,1,90,6.0,64.0
6034,45.0,0,1980,10.0,64.0
6035,69.0,7,60,5.0,64.0
6036,88.0,8,60,0.0,64.0
6037,73.0,5,60,4.0,64.0
6038,81.0,1,60,2.0,64.0
6039,93.0,3,60,1.0,64.0
6040,45.0,27,20,3.0,64.0
6041,45.0,0,20,3.0,64.0
6042,76.0,3,60,6.0,64.0
6043,45.0,22,20,3.0,64.0
6044,45.0,33,20,3.0,64.0
6045,69.0,8,40,6.0,64.0
6046,67.0,1,60,8.0,64.0
6047,76.0,10,60,7.0,64.0
6048,73.0,22,60,5.0,64.0
6049,76.0,5,60,4.0,64.0
6050,45.0,12,20,3.0,64.0
6051,45.0,0,15,3.0,64.0
6052,73.0,4,40,6.0,64.0
6053,45.0,15,20,3.0,64.0
6054,45.0,39,15,3.0,64.0
6055,66.0,5,60,8.0,64.0
6056,74.0,6,60,6.0,64.0
6057,69.0,2,60,7.0,64.0
6058,74.0,9,60,4.0,64.0
6059,45.0,21,20,3.0,64.0
6060,69.0,5,60,5.0,64.0
6061,90.0,17,60,0.0,64.0
6062,86.0,3,60,1.0,64.0
6063,81.0,0,60,2.0,64.0
6064,45.0,7,15,3.0,64.0
6065,78.0,40,60,6.0,64.0
6066,45.0,18,40,3.0,64.0
6067,62.0,3,60,8.0,64.0
6068,78.0,6,60,7.0,64.0
6069,69.0,4,40,6.0,64.0
6070,45.0,11,40,3.0,64.0
6071,78.0,6,60,4.0,64.0
6072,74.0,27,60,5.0,64.0
6073,74.0,4,30,6.0,64.0
6074,45.0,58,30,3.0,64.0
6075,69.0,1,60,8.0,64.0
6076,45.0,25,30,3.0,64.0
6077,73.0,12,60,7.0,64.0
6078,76.0,4,60,4.0,64.0
6079,73.0,0,60,5.0,64.0
6080,76.0,2,60,6.0,64.0
6081,91.0,3,90,0.0,64.0
6082,88.0,2,60,1.0,64.0
6083,81.0,20,60,2.0,64.0
6084,45.0,14,40,3.0,64.0
6085,79.0,19,60,6.0,64.0
6086,61.0,16,90,8.0,64.0
6087,45.0,34,20,3.0,64.0
6088,69.0,4,60,6.0,64.0
6089,76.0,14,60,5.0,64.0
6090,76.0,1,60,7.0,64.0
6091,79.0,1,60,4.0,64.0
6092,45.0,3,20,3.0,64.0
6093,45.0,1,15,3.0,64.0
6094,76.0,21,30,6.0,64.0
6095,45.0,21,20,3.0,64.0
6096,62.0,2,60,8.0,64.0
6097,45.0,35,15,3.0,64.0
6098,69.0,10,40,7.0,64.0
6099,78.0,6,60,6.0,64.0
6100,74.0,10,60,5.0,64.0
6101,86.0,3,90,1.0,64.0
6102,78.0,2,40,4.0,64.0
6103,81.0,25,60,2.0,64.0
6104,90.0,2,60,0.0,64.0
6105,45.0,4,40,3.0,64.0
6106,81.0,24,60,6.0,64.0
6107,45.0,36,40,3.0,64.0
6108,74.0,4,60,6.0,64.0
6109,66.0,1,60,8.0,64.0
6110,66.0,4,60,5.0,64.0
6111,69.0,7,40,7.0,64.0
6112,81.0,8,60,4.0,64.0
6113,45.0,11,40,3.0,64.0
6114,78.0,32,40,6.0,64.0
6115,45.0,21,20,3.0,64.0
6116,73.0,0,60,6.0,64.0
6117,69.0,1,60,5.0,64.0
6118,45.0,35,15,3.0,64.0
6119,64.0,4,60,8.0,64.0
6120,73.0,9,60,4.0,64.0
6121,69.0,3,540,7.0,64.0
6122,88.0,5,60,0.0,64.0
6123,93.0,2,60,1.0,64.0
6124,81.0,16,60,2.0,64.0
6125,45.0,13,20,3.0,64.0
6126,76.0,9,60,6.0,64.0
6127,45.0,6,20,3.0,64.0
6128,45.0,27,30,3.0,64.0
6129,69.0,2,60,6.0,64.0
6130,73.0,19,60,5.0,64.0
6131,67.0,5,60,8.0,64.0
6132,45.0,33,20,3.0,64.0
6133,76.0,2,60,4.0,64.0
6134,45.0,2,20,3.0,64.0
6135,73.0,16,60,6.0,64.0
6136,45.0,16,20,3.0,64.0
6137,45.0,29,20,3.0,64.0
6138,76.0,5,60,6.0,64.0
6139,61.0,3,60,8.0,64.0
6140,76.0,12,60,5.0,64.0
6141,69.0,2,60,4.0,64.0
6142,93.0,11,60,0.0,64.0
6143,88.0,1,60,1.0,64.0
6144,45.0,24,15,3.0,64.0
6145,81.0,3,60,2.0,64.0
6146,45.0,1,20,3.0,64.0
6147,79.0,6,60,6.0,64.0
6148,45.0,28,20,3.0,64.0
6149,78.0,6,90,6.0,64.0
6150,45.0,27,20,3.0,64.0
6151,57.0,5,60,8.0,64.0
6152,81.0,0,60,5.0,64.0
6153,73.0,4,60,4.0,64.0
6154,45.0,23,15,3.0,64.0
6155,76.0,55,60,6.0,64.0
6156,45.0,25,20,3.0,64.0
6157,45.0,6,15,3.0,64.0
6158,45.0,21,40,3.0,64.0
6159,78.0,4,60,6.0,64.0
6160,78.0,8,60,5.0,64.0
6161,62.0,13,420,8.0,64.0
6162,86.0,13,90,1.0,64.0
6163,74.0,1,60,4.0,64.0
6164,90.0,9,60,0.0,64.0
6165,81.0,4,60,2.0,64.0
6166,74.0,34,60,6.0,64.0
6167,45.0,12,40,3.0,64.0
6168,71.0,1,60,6.0,64.0
6169,78.0,4,60,7.0,64.0
6170,74.0,9,60,5.0,64.0
6171,45.0,21,20,3.0,64.0
6172,71.0,28,60,4.0,64.0
6173,45.0,3,15,3.0,64.0
6174,74.0,31,90,6.0,64.0
6175,45.0,26,20,3.0,64.0
6176,45.0,7,15,3.0,64.0
6177,68.0,1,60,6.0,64.0
6178,71.0,2,60,7.0,64.0
6179,71.0,12,60,5.0,64.0
6180,68.0,8,60,4.0,64.0
6181,86.0,2,60,1.0,64.0
6182,74.0,15,60,2.0,64.0
6183,92.0,9,60,0.0,64.0
6184,45.0,15,20,3.0,64.0
6185,78.0,14,60,6.0,64.0
6186,45.0,2,20,3.0,64.0
6187,45.0,7,20,3.0,64.0
6188,76.0,12,60,6.0,64.0
6189,45.0,33,15,3.0,64.0
6190,80.0,0,40,5.0,64.0
6191,80.0,10,40,7.0,64.0
6192,71.0,2,60,4.0,64.0
6193,45.0,11,40,3.0,64.0
6194,74.0,20,40,6.0,64.0
6195,45.0,47,30,3.0,64.0
6196,73.0,7,60,6.0,64.0
6197,93.0,51,90,0.0,64.0
6198,64.0,11,270,8.0,64.0
6199,81.0,5,150,5.0,64.0
6200,81.0,3,60,2.0,64.0
6201,73.0,4,150,4.0,64.0
6202,45.0,25,20,3.0,64.0
6203,88.0,4,60,1.0,64.0
6204,81.0,5,240,7.0,64.0
6205,74.0,21,90,6.0,64.0
6206,73.0,18,60,6.0,64.0
6207,47.0,2,60,10.0,64.0
6208,81.0,0,30,2.0,64.0
6209,81.0,24,30,0.0,64.0
6210,81.0,1,20,1.0,64.0
6211,71.0,29,60,6.0,64.0
6212,81.0,6,30,1.0,64.0
6213,81.0,4,30,2.0,64.0
6214,81.0,18,30,0.0,64.0
6215,69.0,52,60,6.0,64.0
6216,81.0,6,40,1.0,64.0
6217,81.0,0,40,2.0,64.0
6218,49.0,8,60,10.0,64.0
6219,81.0,7,40,0.0,64.0
6220,67.0,52,60,6.0,64.0
6221,66.0,2,60,6.0,64.0
6222,45.0,32,60,10.0,64.0
6223,81.0,5,40,1.0,64.0
6224,81.0,0,40,2.0,64.0
6225,81.0,3,40,0.0,64.0
6226,64.0,98,30,6.0,64.0
6227,69.0,4,180,7.0,64.0
6228,81.0,6,120,2.0,64.0
6229,69.0,33,1200,5.0,64.0
6230,42.0,25,270,10.0,64.0
6231,81.0,25,120,1.0,64.0
6232,63.0,69,60,6.0,64.0
6233,81.0,12,150,0.0,64.0
6234,69.0,5,60,6.0,64.0
6235,59.0,14,60,8.0,64.0
6236,71.0,38,60,6.0,64.0
6237,61.0,5,60,8.0,64.0
6238,69.0,29,60,6.0,64.0
6239,71.0,67,90,6.0,64.0
6240,63.0,19,40,8.0,64.0
6241,78.0,46,240,7.0,64.0
6242,69.0,34,90,6.0,64.0
6243,63.0,13,60,8.0,64.0
6244,71.0,38,60,6.0,64.0
6245,64.0,12,60,8.0,64.0
6246,69.0,23,60,6.0,64.0
6247,66.0,18,60,8.0,64.0
6248,63.0,48,90,6.0,64.0
6249,47.0,3,270,10.0,64.0
6250,69.0,44,60,6.0,64.0
6251,71.0,20,90,6.0,64.0
6252,63.0,30,60,8.0,64.0
6253,64.0,34,60,8.0,64.0
6254,69.0,25,60,6.0,64.0
6255,66.0,36,60,8.0,64.0
6256,71.0,58,60,6.0,64.0
6257,75.0,43,240,7.0,64.0
6258,69.0,35,60,6.0,64.0
6259,66.0,21,60,8.0,64.0
6260,71.0,22,60,6.0,64.0
6261,67.0,14,60,8.0,64.0
6262,69.0,23,40,6.0,64.0
6263,69.0,25,60,8.0,64.0
6264,63.0,64,60,6.0,64.0
6265,69.0,30,90,6.0,64.0
6266,47.0,29,60,10.0,64.0
6267,69.0,4,60,8.0,64.0
6268,71.0,9,60,6.0,64.0
6269,68.0,25,60,8.0,64.0
6270,72.0,17,90,6.0,64.0
6271,69.0,5,60,8.0,64.0
6272,51.0,12,40,10.0,64.0
6273,71.0,72,240,7.0,64.0
6274,71.0,66,60,6.0,64.0
6275,66.0,5,210,5.0,64.0
6276,69.0,40,60,6.0,64.0
6277,71.0,17,60,8.0,64.0
6278,47.0,6,60,10.0,64.0
6279,68.0,22,60,6.0,64.0
6280,69.0,4,40,8.0,64.0
6281,66.0,22,40,6.0,64.0
6282,68.0,1,1410,5.0,64.0
6283,68.0,31,180,8.0,64.0
6284,62.0,51,60,6.0,64.0
6285,52.0,28,270,10.0,64.0
6286,74.0,8,1170,4.0,64.0
6287,68.0,59,60,6.0,64.0
6288,71.0,2,60,6.0,64.0
6289,64.0,7,60,7.0,64.0
6290,66.0,20,60,7.0,64.0
6291,68.0,23,60,6.0,64.0
6292,68.0,10,60,7.0,64.0
6293,71.0,56,60,6.0,64.0
6294,64.0,47,240,8.0,64.0
6295,68.0,49,60,6.0,64.0
6296,71.0,22,60,6.0,64.0
6297,68.0,15,60,7.0,64.0
6298,68.0,16,40,6.0,64.0
6299,69.0,35,60,7.0,64.0
6300,71.0,4,60,7.0,64.0
6301,62.0,41,60,6.0,64.0
6302,40.0,28,240,10.0,64.0
6303,68.0,66,60,6.0,64.0
6304,71.0,56,60,6.0,64.0
6305,68.0,4,60,7.0,64.0
6306,68.0,26,90,6.0,64.0
6307,69.0,5,60,7.0,64.0
6308,71.0,51,90,6.0,64.0
6309,71.0,10,60,7.0,64.0
6310,68.0,25,270,8.0,64.0
6311,68.0,64,60,6.0,64.0
6312,71.0,25,90,6.0,64.0
6313,71.0,2,60,7.0,64.0
6314,68.0,9,40,6.0,64.0
6315,73.0,52,40,7.0,64.0
6316,62.0,60,60,6.0,64.0
6317,74.0,8,60,7.0,64.0
6318,68.0,48,90,6.0,64.0
6319,71.0,14,90,6.0,64.0
6320,74.0,3,60,7.0,64.0
6321,40.0,14,60,10.0,64.0
6322,69.0,56,90,6.0,64.0
6323,73.0,29,40,7.0,64.0
6324,68.0,7,90,6.0,64.0
6325,74.0,35,60,7.0,64.0
6326,71.0,32,240,4.0,64.0
6327,52.0,1,60,10.0,64.0
6328,71.0,40,240,8.0,64.0
6329,66.0,66,60,6.0,64.0
6330,64.0,9,60,6.0,64.0
6331,73.0,18,60,7.0,64.0
6332,44.0,1,40,10.0,64.0
6333,62.0,16,40,6.0,64.0
6334,71.0,11,40,7.0,64.0
6335,61.0,68,60,6.0,64.0
6336,73.0,4,180,7.0,64.0
6337,73.0,24,1440,4.0,64.0
6338,45.0,41,240,10.0,64.0
6339,67.0,2,1170,5.0,64.0
6340,67.0,54,90,6.0,64.0
6341,69.0,0,60,6.0,64.0
6342,57.0,43,60,8.0,64.0
6343,81.0,10,90,0.0,64.0
6344,67.0,9,60,6.0,64.0
6345,59.0,2,60,8.0,64.0
6346,69.0,41,60,6.0,64.0
6347,61.0,18,40,8.0,64.0
6348,76.0,37,240,7.0,64.0
6349,81.0,18,90,0.0,64.0
6350,67.0,48,60,6.0,64.0
6351,61.0,11,60,8.0,64.0
6352,69.0,39,60,6.0,64.0
6353,81.0,1,90,0.0,64.0
6354,62.0,0,60,8.0,64.0
6355,67.0,40,60,6.0,64.0
6356,64.0,31,60,8.0,64.0
6357,61.0,10,60,6.0,64.0
6358,81.0,30,90,0.0,64.0
6359,57.0,40,240,10.0,64.0
6360,67.0,59,90,6.0,64.0
6361,69.0,28,60,6.0,64.0
6362,81.0,4,90,0.0,64.0
6363,61.0,3,60,8.0,64.0
6364,81.0,3,90,1.0,64.0
6365,67.0,23,60,6.0,64.0
6366,62.0,12,40,8.0,64.0
6367,69.0,28,60,6.0,64.0
6368,64.0,2,60,8.0,64.0
6369,81.0,9,90,0.0,64.0
6370,81.0,22,90,1.0,64.0
6371,73.0,42,240,7.0,64.0
6372,67.0,49,60,6.0,64.0
6373,69.0,19,60,6.0,64.0
6374,81.0,16,90,0.0,64.0
6375,81.0,18,90,1.0,64.0
6376,64.0,9,60,8.0,64.0
6377,67.0,6,60,6.0,64.0
6378,66.0,13,60,8.0,64.0
6379,61.0,41,60,6.0,64.0
6380,81.0,3,90,0.0,64.0
6381,67.0,2,60,8.0,64.0
6382,81.0,37,90,1.0,64.0
6383,67.0,35,90,6.0,64.0
6384,69.0,6,90,6.0,64.0
6385,88.0,1,90,0.0,64.0
6386,45.0,11,60,10.0,64.0
6387,81.0,22,90,2.0,64.0
6388,67.0,9,60,8.0,64.0
6389,45.0,6,40,3.0,64.0
6390,81.0,5,60,1.0,64.0
6391,66.0,29,60,8.0,64.0
6392,71.0,22,90,6.0,64.0
6393,88.0,1,90,0.0,64.0
6394,81.0,9,60,1.0,64.0
6395,67.0,10,60,8.0,64.0
6396,69.0,12,90,6.0,64.0
6397,45.0,4,40,3.0,64.0
6398,81.0,32,90,2.0,64.0
6399,49.0,14,40,10.0,64.0
6400,69.0,10,240,7.0,64.0
6401,64.0,1,210,5.0,64.0
6402,67.0,26,60,6.0,64.0
6403,88.0,4,60,1.0,64.0
6404,66.0,11,60,6.0,64.0
6405,45.0,21,40,3.0,64.0
6406,93.0,7,90,0.0,64.0
6407,81.0,11,90,2.0,64.0
6408,45.0,2,40,10.0,64.0
6409,69.0,9,60,8.0,64.0
6410,67.0,16,40,8.0,64.0
6411,64.0,2,30,6.0,64.0
6412,86.0,7,90,1.0,64.0
6413,60.0,24,60,6.0,64.0
6414,81.0,10,120,2.0,64.0
6415,50.0,25,30,3.0,64.0
6416,90.0,9,90,0.0,64.0
6417,66.0,6,180,8.0,64.0
6418,66.0,6,1410,5.0,64.0
6419,50.0,3,240,10.0,64.0
6420,72.0,2,1050,4.0,64.0
6421,50.0,13,20,3.0,64.0
6422,66.0,30,60,6.0,64.0
6423,50.0,0,20,3.0,64.0
6424,50.0,2,15,3.0,64.0
6425,69.0,3,60,6.0,64.0
6426,62.0,5,60,7.0,64.0
6427,78.0,3,90,0.0,64.0
6428,69.0,6,90,2.0,64.0
6429,74.0,4,90,1.0,64.0
6430,50.0,29,20,3.0,64.0
6431,50.0,9,20,3.0,64.0
6432,66.0,36,60,6.0,64.0
6433,64.0,7,60,7.0,64.0
6434,50.0,13,15,3.0,64.0
6435,50.0,15,40,3.0,64.0
6436,66.0,8,60,7.0,64.0
6437,69.0,14,60,6.0,64.0
6438,69.0,1,90,2.0,64.0
6439,78.0,1,90,0.0,64.0
6440,74.0,5,90,1.0,64.0
6441,62.0,4,240,8.0,64.0
6442,66.0,15,60,6.0,64.0
6443,50.0,20,20,3.0,64.0
6444,50.0,19,15,3.0,64.0
6445,69.0,17,60,6.0,64.0
6446,50.0,31,15,3.0,64.0
6447,81.0,5,90,0.0,64.0
6448,74.0,1,90,2.0,64.0
6449,66.0,9,60,7.0,64.0
6450,78.0,13,90,1.0,64.0
6451,50.0,7,20,3.0,64.0
6452,67.0,10,60,7.0,64.0
6453,66.0,1,60,6.0,64.0
6454,50.0,1,20,3.0,64.0
6455,50.0,29,20,3.0,64.0
6456,60.0,17,90,6.0,64.0
6457,69.0,8,60,7.0,64.0
6458,50.0,33,20,3.0,64.0
6459,81.0,5,90,0.0,64.0
6460,74.0,15,90,2.0,64.0
6461,78.0,2,90,1.0,64.0
6462,38.0,20,240,10.0,64.0
6463,50.0,7,20,3.0,64.0
6464,66.0,7,60,6.0,64.0
6465,50.0,1,20,3.0,64.0
6466,50.0,31,20,3.0,64.0
6467,69.0,15,60,6.0,64.0
6468,78.0,1,90,2.0,64.0
6469,86.0,7,90,0.0,64.0
6470,66.0,4,60,7.0,64.0
6471,81.0,3,90,1.0,64.0
6472,50.0,25,20,3.0,64.0
6473,50.0,5,20,3.0,64.0
6474,66.0,12,60,6.0,64.0
6475,67.0,5,60,7.0,64.0
6476,50.0,19,20,3.0,64.0
6477,50.0,11,20,3.0,64.0
6478,69.0,6,60,6.0,64.0
6479,69.0,7,60,7.0,64.0
6480,78.0,6,90,2.0,64.0
6481,66.0,22,270,8.0,64.0
6482,86.0,1,90,0.0,64.0
6483,81.0,0,90,1.0,64.0
6484,50.0,16,20,3.0,64.0
6485,66.0,2,90,6.0,64.0
6486,50.0,24,20,3.0,64.0
6487,50.0,27,20,3.0,64.0
6488,50.0,30,20,3.0,64.0
6489,69.0,4,60,6.0,64.0
6490,81.0,11,90,2.0,64.0
6491,90.0,3,90,0.0,64.0
6492,86.0,1,60,1.0,64.0
6493,69.0,2,60,7.0,64.0
6494,50.0,30,20,3.0,64.0
6495,66.0,4,60,6.0,64.0
6496,50.0,9,20,3.0,64.0
6497,71.0,29,40,7.0,64.0
6498,50.0,4,20,3.0,64.0
6499,50.0,8,15,3.0,64.0
6500,81.0,15,90,2.0,64.0
6501,60.0,5,60,6.0,64.0
6502,90.0,7,90,0.0,64.0
6503,72.0,13,60,7.0,64.0
6504,86.0,1,60,1.0,64.0
6505,50.0,14,20,3.0,64.0
6506,66.0,4,90,6.0,64.0
6507,50.0,9,20,3.0,64.0
6508,50.0,28,20,3.0,64.0
6509,90.0,5,60,1.0,64.0
6510,50.0,11,60,10.0,64.0
6511,69.0,24,120,4.0,64.0
6512,69.0,1,90,6.0,64.0
6513,86.0,1,90,2.0,64.0
6514,50.0,32,15,3.0,64.0
6515,93.0,8,60,0.0,64.0
6516,72.0,3,60,7.0,64.0
6517,50.0,4,20,3.0,64.0
6518,71.0,10,60,7.0,64.0
6519,67.0,15,90,6.0,64.0
6520,50.0,14,20,3.0,64.0
6521,50.0,37,60,3.0,64.0
6522,38.0,6,90,10.0,64.0
6523,66.0,8,90,6.0,64.0
6524,72.0,0,60,7.0,64.0
6525,86.0,14,90,2.0,64.0
6526,90.0,2,90,1.0,64.0
6527,93.0,3,60,0.0,64.0
6528,66.0,15,90,4.0,64.0
6529,69.0,3,180,8.0,64.0
6530,50.0,6,40,3.0,64.0
6531,64.0,24,60,6.0,64.0
6532,50.0,25,40,3.0,64.0
6533,62.0,7,60,6.0,64.0
6534,90.0,4,90,2.0,64.0
6535,42.0,7,60,10.0,64.0
6536,98.0,4,60,0.0,64.0
6537,93.0,1,60,1.0,64.0
6538,62.0,35,90,4.0,64.0
6539,71.0,1,40,7.0,64.0
6540,50.0,10,30,3.0,64.0
6541,60.0,2,30,6.0,64.0
6542,69.0,6,40,7.0,64.0
6543,50.0,51,30,3.0,64.0
6544,95.0,4,120,1.0,64.0
6545,59.0,50,60,6.0,64.0
6546,43.0,3,60,10.0,64.0
6547,91.0,0,120,2.0,64.0
6548,98.0,6,120,0.0,64.0
6549,62.0,19,150,5.0,64.0
6550,71.0,3,240,7.0,64.0
6551,71.0,16,150,4.0,64.0
6552,62.0,42,240,8.0,64.0
6553,55.0,17,90,6.0,64.0
6554,42.0,34,60,10.0,64.0
6555,57.0,0,60,6.0,64.0
6556,60.0,37,40,6.0,64.0
6557,59.0,14,60,6.0,64.0
6558,43.0,16,60,10.0,64.0
6559,62.0,81,40,6.0,64.0
6560,61.0,13,60,6.0,64.0
6561,45.0,23,60,10.0,64.0
6562,64.0,98,40,6.0,64.0
6563,62.0,64,60,6.0,64.0
6564,47.0,3,60,10.0,64.0
6565,59.0,56,90,6.0,64.0
6566,61.0,2,90,6.0,64.0
6567,45.0,29,60,10.0,64.0
6568,64.0,87,40,6.0,64.0
6569,62.0,4,60,6.0,64.0
6570,47.0,33,60,10.0,64.0
6571,66.0,81,60,6.0,64.0
6572,64.0,6,60,6.0,64.0
6573,49.0,19,60,10.0,64.0
6574,67.0,105,40,6.0,64.0
6575,66.0,1,90,6.0,64.0
6576,50.0,51,60,10.0,64.0
6577,62.0,46,60,6.0,64.0
6578,64.0,14,60,6.0,64.0
6579,49.0,26,60,10.0,64.0
6580,67.0,88,40,6.0,64.0
6581,66.0,1,60,6.0,64.0
6582,50.0,26,60,10.0,64.0
6583,69.0,99,40,6.0,64.0
6584,67.0,1,90,6.0,64.0
6585,52.0,16,60,10.0,64.0
6586,71.0,105,40,6.0,64.0
6587,69.0,4,60,6.0,64.0
6588,54.0,47,60,10.0,64.0
6589,62.0,55,60,6.0,64.0
6590,66.0,21,60,6.0,64.0
6591,52.0,22,90,10.0,64.0
6592,69.0,85,60,6.0,64.0
6593,54.0,52,90,10.0,64.0
6594,74.0,6,60,6.0,64.0
6595,78.0,56,60,6.0,64.0
6596,55.0,19,90,10.0,64.0
6597,76.0,21,60,6.0,64.0
6598,74.0,95,40,6.0,64.0
6599,73.0,29,60,6.0,64.0
6600,57.0,72,90,10.0,64.0
6601,57.0,8,90,10.0,64.0
6602,76.0,2,60,5.0,64.0
6603,69.0,3,60,6.0,64.0
6604,45.0,2,40,3.0,64.0
6605,76.0,6,60,7.0,64.0
6606,69.0,2,60,4.0,64.0
6607,61.0,28,60,8.0,64.0
6608,71.0,17,40,6.0,64.0
6609,71.0,3,60,4.0,64.0
6610,62.0,51,60,8.0,64.0
6611,73.0,5,60,6.0,64.0
6612,57.0,6,90,10.0,64.0
6613,73.0,1,60,4.0,64.0
6614,81.0,31,120,2.0,64.0
6615,88.0,12,90,1.0,64.0
6616,81.0,3,90,0.0,64.0
6617,69.0,15,60,5.0,64.0
6618,45.0,1,60,3.0,64.0
6619,64.0,20,60,8.0,64.0
6620,69.0,0,40,7.0,64.0
6621,66.0,12,60,8.0,64.0
6622,73.0,11,40,6.0,64.0
6623,57.0,15,90,10.0,64.0
6624,64.0,23,60,8.0,64.0
6625,45.0,11,40,3.0,64.0
6626,73.0,0,150,7.0,64.0
6627,73.0,2,60,4.0,64.0
6628,73.0,4,180,5.0,64.0
6629,74.0,1,40,6.0,64.0
6630,66.0,6,40,8.0,64.0
6631,74.0,59,40,4.0,64.0
6632,76.0,12,60,6.0,64.0
6633,57.0,1,90,10.0,64.0
6634,67.0,3,60,8.0,64.0
6635,81.0,8,60,0.0,64.0
6636,45.0,1,40,3.0,64.0
6637,76.0,14,60,4.0,64.0
6638,81.0,13,90,2.0,64.0
6639,88.0,2,90,1.0,64.0
6640,64.0,47,60,8.0,64.0
6641,73.0,11,40,6.0,64.0
6642,57.0,16,90,10.0,64.0
6643,76.0,7,40,7.0,64.0
6644,57.0,4,60,8.0,64.0
6645,76.0,11,60,5.0,64.0
6646,45.0,6,40,3.0,64.0
6647,73.0,14,60,4.0,64.0
6648,74.0,15,60,6.0,64.0
6649,59.0,6,60,8.0,64.0
6650,74.0,38,60,4.0,64.0
6651,76.0,10,60,6.0,64.0
6652,67.0,1,40,7.0,64.0
6653,93.0,9,90,1.0,64.0
6654,57.0,11,60,10.0,64.0
6655,76.0,2,90,0.0,64.0
6656,61.0,2,60,8.0,64.0
6657,81.0,11,90,2.0,64.0
6658,67.0,7,60,5.0,64.0
6659,76.0,2,60,4.0,64.0
6660,45.0,8,40,3.0,64.0
6661,62.0,63,40,8.0,64.0
6662,73.0,2,180,7.0,64.0
6663,57.0,20,90,10.0,64.0
6664,76.0,3,60,6.0,64.0
6665,61.0,20,60,8.0,64.0
6666,76.0,5,40,4.0,64.0
6667,45.0,4,40,3.0,64.0
6668,73.0,9,180,5.0,64.0
6669,78.0,2,40,6.0,64.0
6670,78.0,2,40,4.0,64.0
6671,62.0,66,40,8.0,64.0
6672,79.0,8,60,6.0,64.0
6673,57.0,1,90,10.0,64.0
6674,79.0,8,60,4.0,64.0
6675,81.0,13,90,2.0,64.0
6676,64.0,5,60,8.0,64.0
6677,76.0,3,90,0.0,64.0
6678,93.0,6,90,1.0,64.0
6679,45.0,3,40,3.0,64.0
6680,62.0,52,60,8.0,64.0
6681,61.0,18,60,8.0,64.0
6682,79.0,1,40,4.0,64.0
6683,52.0,15,90,10.0,64.0
6684,76.0,10,60,5.0,64.0
6685,76.0,8,40,7.0,64.0
6686,79.0,2,60,6.0,64.0
6687,45.0,1,40,3.0,64.0
6688,78.0,5,40,6.0,64.0
6689,62.0,63,60,8.0,64.0
6690,78.0,4,40,4.0,64.0
6691,79.0,1,90,4.0,64.0
6692,49.0,15,90,10.0,64.0
6693,64.0,5,60,8.0,64.0
6694,79.0,2,60,6.0,64.0
6695,79.0,2,90,0.0,64.0
6696,69.0,5,60,7.0,64.0
6697,69.0,6,60,5.0,64.0
6698,81.0,35,90,2.0,64.0
6699,45.0,9,40,3.0,64.0
6700,88.0,0,90,1.0,64.0
6701,62.0,42,60,8.0,64.0
6702,61.0,15,60,8.0,64.0
6703,45.0,7,60,10.0,64.0
6704,81.0,0,40,6.0,64.0
6705,73.0,1,60,5.0,64.0
6706,73.0,6,60,7.0,64.0
6707,45.0,0,40,3.0,64.0
6708,81.0,20,60,4.0,64.0
6709,59.0,1,40,8.0,64.0
6710,79.0,15,40,6.0,64.0
6711,79.0,47,40,4.0,64.0
6712,57.0,12,60,8.0,64.0
6713,78.0,3,60,6.0,64.0
6714,78.0,19,60,4.0,64.0
6715,78.0,2,90,0.0,64.0
6716,81.0,3,90,2.0,64.0
6717,74.0,5,90,7.0,64.0
6718,86.0,7,90,1.0,64.0
6719,50.0,12,40,3.0,64.0
6720,50.0,14,90,10.0,64.0
6721,74.0,5,60,5.0,64.0
6722,69.0,39,60,8.0,64.0
6723,66.0,1,60,8.0,64.0
6724,62.0,6,60,7.0,64.0
6725,81.0,12,40,6.0,64.0
6726,74.0,3,90,2.0,64.0
6727,62.0,4,40,5.0,64.0
6728,62.0,3,90,10.0,64.0
6729,81.0,37,40,4.0,64.0
6730,67.0,43,60,8.0,64.0
6731,64.0,3,40,7.0,64.0
6732,64.0,9,40,5.0,64.0
6733,66.0,2,60,7.0,64.0
6734,74.0,18,40,6.0,64.0
6735,69.0,21,60,8.0,64.0
6736,74.0,5,90,2.0,64.0
6737,62.0,56,90,10.0,64.0
6738,66.0,12,60,5.0,64.0
6739,74.0,2,40,4.0,64.0
6740,71.0,5,40,8.0,64.0
6741,69.0,31,60,8.0,64.0
6742,66.0,3,40,7.0,64.0
6743,78.0,15,150,6.0,64.0
6744,74.0,1,90,2.0,64.0
6745,62.0,61,90,10.0,64.0
6746,66.0,0,40,5.0,64.0
6747,74.0,2,90,1.0,64.0
6748,78.0,10,180,4.0,64.0
6749,50.0,12,20,3.0,64.0
6750,67.0,2,60,7.0,64.0
6751,67.0,3,40,5.0,64.0
6752,71.0,6,40,8.0,64.0
6753,50.0,0,20,3.0,64.0
6754,69.0,4,60,7.0,64.0
6755,72.0,1,90,8.0,64.0
6756,74.0,0,90,1.0,64.0
6757,69.0,23,60,5.0,64.0
6758,62.0,48,90,10.0,64.0
6759,50.0,2,30,3.0,64.0
6760,74.0,11,90,2.0,64.0
6761,69.0,2,40,8.0,64.0
6762,62.0,5,60,8.0,64.0
6763,66.0,8,60,7.0,64.0
6764,81.0,9,40,6.0,64.0
6765,74.0,2,90,1.0,64.0
6766,62.0,1,90,10.0,64.0
6767,81.0,7,40,4.0,64.0
6768,62.0,12,90,0.0,64.0
6769,74.0,5,90,2.0,64.0
6770,66.0,26,60,5.0,64.0
6771,67.0,2,60,7.0,64.0
6772,64.0,12,60,8.0,64.0
6773,67.0,30,60,5.0,64.0
6774,69.0,4,60,7.0,64.0
6775,66.0,9,60,8.0,64.0
6776,72.0,6,40,6.0,64.0
6777,62.0,7,90,10.0,64.0
6778,72.0,7,40,4.0,64.0
6779,74.0,4,90,1.0,64.0
6780,62.0,59,90,0.0,64.0
6781,69.0,24,60,5.0,64.0
6782,74.0,7,90,2.0,64.0
6783,67.0,3,60,8.0,64.0
6784,66.0,1,60,8.0,64.0
6785,62.0,4,90,10.0,64.0
6786,78.0,4,150,6.0,64.0
6787,69.0,7,60,7.0,64.0
6788,74.0,1,90,1.0,64.0
6789,62.0,21,90,0.0,64.0
6790,69.0,27,60,5.0,64.0
6791,78.0,6,150,4.0,64.0
6792,74.0,4,90,2.0,64.0
6793,50.0,5,30,3.0,64.0
6794,67.0,1,60,8.0,64.0
6795,71.0,1,40,7.0,64.0
6796,71.0,31,60,5.0,64.0
6797,50.0,2,30,3.0,64.0
6798,69.0,27,60,8.0,64.0
6799,72.0,5,60,7.0,64.0
6800,62.0,55,90,10.0,64.0
6801,50.0,17,30,3.0,64.0
6802,74.0,3,90,2.0,64.0
6803,72.0,0,60,5.0,64.0
6804,62.0,4,90,0.0,64.0
6805,74.0,1,90,1.0,64.0
6806,67.0,2,60,8.0,64.0
6807,66.0,18,60,8.0,64.0
6808,72.0,2,60,7.0,64.0
6809,81.0,9,40,6.0,64.0
6810,72.0,1,40,5.0,64.0
6811,86.0,12,90,2.0,64.0
6812,90.0,0,90,1.0,64.0
6813,57.0,1,90,10.0,64.0
6814,81.0,4,60,0.0,64.0
6815,50.0,1,40,3.0,64.0
6816,81.0,13,40,4.0,64.0
6817,67.0,2,60,8.0,64.0
6818,71.0,3,40,7.0,64.0
6819,71.0,62,40,5.0,64.0
6820,69.0,2,60,8.0,64.0
6821,72.0,9,60,7.0,64.0
6822,86.0,39,90,1.0,64.0
6823,72.0,12,60,5.0,64.0
6824,81.0,2,90,2.0,64.0
6825,86.0,0,60,0.0,64.0
6826,74.0,4,40,6.0,64.0
6827,54.0,7,90,10.0,64.0
6828,50.0,7,40,3.0,64.0
6829,74.0,6,40,4.0,64.0
6830,67.0,33,60,8.0,64.0
6831,66.0,7,60,8.0,64.0
6832,90.0,20,90,1.0,64.0
6833,78.0,12,60,6.0,64.0
6834,50.0,2,60,10.0,64.0
6835,74.0,1,40,7.0,64.0
6836,74.0,3,40,5.0,64.0
6837,86.0,0,60,2.0,64.0
6838,78.0,4,60,4.0,64.0
6839,81.0,3,60,0.0,64.0
6840,50.0,0,40,3.0,64.0
6841,72.0,3,40,7.0,64.0
6842,64.0,9,40,8.0,64.0
6843,72.0,53,40,5.0,64.0
6844,91.0,5,120,1.0,64.0
6845,79.0,5,40,6.0,64.0
6846,62.0,3,40,8.0,64.0
6847,71.0,2,60,7.0,64.0
6848,79.0,13,60,4.0,64.0
6849,71.0,37,60,5.0,64.0
6850,86.0,4,120,2.0,64.0
6851,55.0,4,90,10.0,64.0
6852,50.0,1,40,3.0,64.0
6853,83.0,37,120,0.0,64.0
6854,59.0,8,60,8.0,64.0
6855,64.0,1,60,8.0,64.0
6856,83.0,9,40,6.0,64.0
6857,83.0,6,40,4.0,64.0
6858,67.0,48,60,7.0,64.0
6859,67.0,2,40,5.0,64.0
6860,64.0,7,90,10.0,64.0
6861,66.0,10,60,8.0,64.0
6862,69.0,5,40,7.0,64.0
6863,69.0,32,60,5.0,64.0
6864,68.0,26,60,8.0,64.0
6865,74.0,8,40,6.0,64.0
6866,71.0,16,60,7.0,64.0
6867,74.0,5,40,4.0,64.0
6868,64.0,66,90,10.0,64.0
6869,71.0,4,60,5.0,64.0
6870,69.0,3,40,8.0,64.0
6871,68.0,20,60,8.0,64.0
6872,71.0,3,60,7.0,64.0
6873,80.0,11,150,6.0,64.0
6874,71.0,22,60,5.0,64.0
6875,64.0,4,90,10.0,64.0
6876,80.0,12,150,4.0,64.0
6877,73.0,8,40,7.0,64.0
6878,69.0,1,40,8.0,64.0
6879,73.0,51,40,5.0,64.0
6880,71.0,5,60,8.0,64.0
6881,74.0,1,60,7.0,64.0
6882,74.0,36,60,5.0,64.0
6883,64.0,57,90,10.0,64.0
6884,69.0,1,60,8.0,64.0
6885,68.0,0,60,8.0,64.0
6886,74.0,3,60,7.0,64.0
6887,83.0,9,40,6.0,64.0
6888,74.0,2,40,5.0,64.0
6889,83.0,38,60,4.0,64.0
6890,59.0,5,90,10.0,64.0
6891,69.0,2,40,8.0,64.0
6892,73.0,7,40,7.0,64.0
6893,73.0,65,60,5.0,64.0
6894,71.0,2,60,8.0,64.0
6895,74.0,29,60,7.0,64.0
6896,74.0,6,60,5.0,64.0
6897,76.0,10,60,6.0,64.0
6898,56.0,16,90,10.0,64.0
6899,76.0,1,60,4.0,64.0
6900,69.0,48,60,8.0,64.0
6901,68.0,2,60,8.0,64.0
6902,76.0,16,60,7.0,64.0
6903,76.0,7,60,5.0,64.0
6904,80.0,0,40,6.0,64.0
6905,80.0,3,40,4.0,64.0
6906,52.0,12,60,10.0,64.0
6907,74.0,14,30,7.0,64.0
6908,66.0,60,60,8.0,64.0
6909,74.0,13,40,5.0,64.0
6910,73.0,11,60,5.0,64.0
6911,73.0,4,60,7.0,64.0
6912,64.0,30,60,8.0,64.0
6913,81.0,2,60,4.0,64.0
6914,81.0,1,60,6.0,64.0
6915,57.0,39,240,10.0,64.0
6916,76.0,7,40,4.0,64.0
6917,76.0,63,40,6.0,64.0
6918,73.0,6,60,4.0,64.0
6919,73.0,11,60,6.0,64.0
6920,76.0,0,40,7.0,64.0
6921,76.0,0,40,5.0,64.0
6922,57.0,33,60,8.0,64.0
6923,74.0,11,60,4.0,64.0
6924,74.0,5,40,6.0,64.0
6925,59.0,15,60,8.0,64.0
6926,76.0,2,60,6.0,64.0
6927,76.0,12,60,4.0,64.0
6928,69.0,0,40,5.0,64.0
6929,61.0,37,60,8.0,64.0
6930,69.0,4,40,7.0,64.0
6931,78.0,5,60,6.0,64.0
6932,78.0,72,60,4.0,64.0
6933,76.0,11,60,6.0,64.0
6934,76.0,25,60,4.0,64.0
6935,61.0,1,60,8.0,64.0
6936,73.0,20,150,7.0,64.0
6937,73.0,5,180,5.0,64.0
6938,78.0,2,40,6.0,64.0
6939,62.0,6,40,8.0,64.0
6940,78.0,55,60,4.0,64.0
6941,64.0,23,60,8.0,64.0
6942,79.0,1,60,6.0,64.0
6943,79.0,5,60,4.0,64.0
6944,45.0,29,240,10.0,64.0
6945,76.0,11,40,6.0,64.0
6946,76.0,50,40,4.0,64.0
6947,69.0,8,60,6.0,64.0
6948,61.0,5,60,8.0,64.0
6949,76.0,4,60,5.0,64.0
6950,76.0,13,40,7.0,64.0
6951,69.0,28,60,4.0,64.0
6952,71.0,8,60,6.0,64.0
6953,62.0,3,40,8.0,64.0
6954,71.0,31,40,4.0,64.0
6955,64.0,0,60,8.0,64.0
6956,73.0,37,60,6.0,64.0
6957,73.0,4,60,4.0,64.0
6958,67.0,2,40,5.0,64.0
6959,67.0,2,40,7.0,64.0
6960,74.0,4,40,6.0,64.0
6961,74.0,63,40,4.0,64.0
6962,73.0,13,60,6.0,64.0
6963,73.0,5,60,4.0,64.0
6964,73.0,12,150,7.0,64.0
6965,64.0,30,60,8.0,64.0
6966,73.0,20,180,5.0,64.0
6967,74.0,10,40,6.0,64.0
6968,66.0,5,40,8.0,64.0
6969,74.0,58,60,4.0,64.0
6970,76.0,11,60,6.0,64.0
6971,67.0,1,60,8.0,64.0
6972,57.0,37,240,10.0,64.0
6973,76.0,15,60,4.0,64.0
6974,74.0,8,60,6.0,64.0
6975,74.0,48,60,4.0,64.0
6976,73.0,9,60,6.0,64.0
6977,67.0,2,40,8.0,64.0
6978,76.0,8,40,7.0,64.0
6979,73.0,25,60,4.0,64.0
6980,76.0,1,40,5.0,64.0
6981,66.0,4,40,8.0,64.0
6982,74.0,18,40,6.0,64.0
6983,74.0,26,40,4.0,64.0
6984,67.0,47,90,8.0,64.0
6985,76.0,6,60,6.0,64.0
6986,69.0,9,60,7.0,64.0
6987,69.0,4,60,5.0,64.0
6988,76.0,3,60,4.0,64.0
6989,74.0,32,60,6.0,64.0
6990,74.0,0,60,4.0,64.0
6991,69.0,4,40,8.0,64.0
6992,73.0,29,60,6.0,64.0
6993,73.0,9,40,7.0,64.0
6994,73.0,0,60,4.0,64.0
6995,73.0,15,40,5.0,64.0
6996,67.0,28,40,8.0,64.0
6997,71.0,33,60,6.0,64.0
6998,71.0,5,60,4.0,64.0
6999,66.0,20,40,8.0,64.0
7000,69.0,1,60,4.0,64.0
7001,74.0,43,60,7.0,64.0
7002,69.0,2,60,6.0,64.0
7003,74.0,1,60,5.0,64.0
7004,69.0,25,40,7.0,64.0
7005,74.0,6,60,4.0,64.0
7006,69.0,2,40,5.0,64.0
7007,74.0,23,60,6.0,64.0
7008,66.0,9,60,7.0,64.0
7009,73.0,1,60,4.0,64.0
7010,73.0,17,90,6.0,64.0
7011,66.0,3,60,5.0,64.0
7012,69.0,11,40,8.0,64.0
7013,50.0,11,60,10.0,64.0
7014,67.0,5,40,7.0,64.0
7015,67.0,12,40,5.0,64.0
7016,71.0,17,60,4.0,64.0
7017,71.0,4,60,6.0,64.0
7018,52.0,41,60,10.0,64.0
7019,69.0,1,60,6.0,64.0
7020,69.0,3,60,5.0,64.0
7021,69.0,37,60,4.0,64.0
7022,69.0,1,60,7.0,64.0
7023,54.0,0,60,10.0,64.0
7024,62.0,1,60,8.0,64.0
7025,71.0,14,40,7.0,64.0
7026,67.0,0,60,6.0,64.0
7027,67.0,51,60,4.0,64.0
7028,71.0,3,60,5.0,64.0
7029,69.0,4,60,7.0,64.0
7030,66.0,2,60,6.0,64.0
7031,66.0,0,60,4.0,64.0
7032,54.0,40,60,10.0,64.0
7033,69.0,0,40,5.0,64.0
7034,66.0,0,180,8.0,64.0
7035,64.0,7,40,6.0,64.0
7036,71.0,1,40,7.0,64.0
7037,55.0,75,60,10.0,64.0
7038,64.0,4,40,4.0,64.0
7039,71.0,0,40,5.0,64.0
7040,62.0,17,90,6.0,64.0
7041,57.0,9,60,10.0,64.0
7042,62.0,2,60,4.0,64.0
7043,72.0,4,60,7.0,64.0
7044,72.0,2,60,5.0,64.0
7045,69.0,76,40,7.0,64.0
7046,69.0,8,40,5.0,64.0
7047,62.0,1,60,7.0,64.0
7048,62.0,3,60,5.0,64.0
7049,54.0,39,60,10.0,64.0
7050,69.0,2,60,8.0,64.0
7051,74.0,4,90,0.0,64.0
7052,74.0,15,90,6.0,64.0
7053,74.0,1,90,4.0,64.0
7054,64.0,1,60,7.0,64.0
7055,64.0,1,40,5.0,64.0
7056,55.0,50,60,10.0,64.0
7057,66.0,2,60,7.0,64.0
7058,57.0,8,60,10.0,64.0
7059,66.0,8,60,5.0,64.0
7060,74.0,1,90,0.0,64.0
7061,60.0,29,60,8.0,64.0
7062,74.0,3,90,4.0,64.0
7063,74.0,4,90,6.0,64.0
7064,67.0,53,60,7.0,64.0
7065,67.0,6,40,5.0,64.0
7066,66.0,4,60,7.0,64.0
7067,66.0,16,40,5.0,64.0
7068,57.0,28,60,10.0,64.0
7069,74.0,9,90,0.0,64.0
7070,74.0,5,90,6.0,64.0
7071,74.0,63,90,4.0,64.0
7072,66.0,8,150,8.0,64.0
7073,59.0,1,40,10.0,64.0
7074,67.0,0,40,5.0,64.0
7075,67.0,7,40,7.0,64.0
7076,60.0,0,60,10.0,64.0
7077,69.0,6,60,5.0,64.0
7078,69.0,36,60,7.0,64.0
7079,74.0,3,90,6.0,64.0
7080,74.0,2,90,0.0,64.0
7081,74.0,2,90,4.0,64.0
7082,67.0,1,60,7.0,64.0
7083,67.0,55,60,5.0,64.0
7084,66.0,9,60,7.0,64.0
7085,60.0,3,60,10.0,64.0
7086,66.0,1,60,5.0,64.0
7087,81.0,1,90,2.0,64.0
7088,74.0,2,90,4.0,64.0
7089,78.0,12,90,0.0,64.0
7090,86.0,1,90,1.0,64.0
7091,74.0,0,90,6.0,64.0
7092,69.0,3,40,8.0,64.0
7093,50.0,25,40,3.0,64.0
7094,59.0,5,40,10.0,64.0
7095,67.0,2,60,7.0,64.0
7096,67.0,68,60,5.0,64.0
7097,60.0,2,60,10.0,64.0
7098,81.0,5,90,2.0,64.0
7099,69.0,5,60,7.0,64.0
7100,78.0,3,90,0.0,64.0
7101,86.0,12,90,1.0,64.0
7102,74.0,2,90,6.0,64.0
7103,74.0,9,90,4.0,64.0
7104,69.0,2,60,5.0,64.0
7105,62.0,11,60,8.0,64.0
7106,50.0,10,40,3.0,64.0
7107,67.0,5,60,7.0,64.0
7108,67.0,50,60,5.0,64.0
7109,66.0,14,60,7.0,64.0
7110,78.0,15,90,2.0,64.0
7111,86.0,7,90,1.0,64.0
7112,81.0,2,90,0.0,64.0
7113,66.0,0,60,5.0,64.0
7114,66.0,3,60,8.0,64.0
7115,74.0,1,90,4.0,64.0
7116,62.0,11,60,10.0,64.0
7117,74.0,0,90,6.0,64.0
7118,50.0,6,40,3.0,64.0
7119,64.0,1,60,7.0,64.0
7120,60.0,3,40,10.0,64.0
7121,64.0,65,60,5.0,64.0
7122,74.0,1,90,6.0,64.0
7123,62.0,1,60,5.0,64.0
7124,59.0,0,60,10.0,64.0
7125,74.0,32,120,2.0,64.0
7126,62.0,22,60,7.0,64.0
7127,67.0,8,60,8.0,64.0
7128,86.0,3,120,1.0,64.0
7129,50.0,7,60,3.0,64.0
7130,79.0,2,120,0.0,64.0
7131,74.0,9,90,4.0,64.0
7132,71.0,30,40,8.0,64.0
7133,76.0,0,90,6.0,64.0
7134,68.0,1,60,8.0,64.0
7135,76.0,66,90,4.0,64.0
7136,52.0,31,60,10.0,64.0
7137,71.0,6,40,7.0,64.0
7138,71.0,8,40,5.0,64.0
7139,69.0,5,40,8.0,64.0
7140,54.0,3,40,10.0,64.0
7141,56.0,3,60,10.0,64.0
7142,71.0,31,60,8.0,64.0
7143,76.0,12,90,6.0,64.0
7144,76.0,68,120,4.0,64.0
7145,64.0,7,40,7.0,64.0
7146,64.0,7,40,5.0,64.0
7147,73.0,2,40,8.0,64.0
7148,71.0,21,90,8.0,64.0
7149,76.0,4,90,6.0,64.0
7150,68.0,9,180,5.0,64.0
7151,68.0,9,150,7.0,64.0
7152,56.0,14,60,10.0,64.0
7153,76.0,62,90,4.0,64.0
7154,73.0,11,60,8.0,64.0
7155,57.0,1,40,10.0,64.0
7156,59.0,24,90,10.0,64.0
7157,74.0,2,60,8.0,64.0
7158,76.0,11,90,6.0,64.0
7159,76.0,54,90,4.0,64.0
7160,71.0,6,60,8.0,64.0
7161,64.0,6,60,8.0,64.0
7162,76.0,9,90,6.0,64.0
7163,71.0,8,40,7.0,64.0
7164,56.0,10,60,10.0,64.0
7165,76.0,3,90,0.0,64.0
7166,71.0,21,60,5.0,64.0
7167,76.0,59,90,4.0,64.0
7168,57.0,2,60,10.0,64.0
7169,66.0,8,60,8.0,64.0
7170,68.0,2,60,8.0,64.0
7171,59.0,16,90,10.0,64.0
7172,76.0,4,90,6.0,64.0
7173,62.0,0,60,7.0,64.0
7174,76.0,12,90,0.0,64.0
7175,62.0,20,40,5.0,64.0
7176,76.0,62,90,4.0,64.0
7177,69.0,0,40,8.0,64.0
7178,68.0,4,60,8.0,64.0
7179,76.0,1,90,6.0,64.0
7180,59.0,36,60,10.0,64.0
7181,68.0,3,180,7.0,64.0
7182,68.0,1,180,5.0,64.0
7183,76.0,0,90,4.0,64.0
7184,76.0,5,90,0.0,64.0
7185,61.0,14,40,10.0,64.0
7186,69.0,69,60,8.0,64.0
7187,62.0,4,60,10.0,64.0
7188,76.0,5,90,6.0,64.0
7189,71.0,25,60,8.0,64.0
7190,76.0,7,90,0.0,64.0
7191,76.0,6,90,4.0,64.0
7192,69.0,47,60,8.0,64.0
7193,76.0,6,90,6.0,64.0
7194,71.0,14,40,7.0,64.0
7195,68.0,3,60,8.0,64.0
7196,62.0,28,60,10.0,64.0
7197,80.0,3,90,0.0,64.0
7198,50.0,1,40,3.0,64.0
7199,88.0,1,90,1.0,64.0
7200,71.0,3,40,5.0,64.0
7201,76.0,1,90,4.0,64.0
7202,74.0,1,90,2.0,64.0
7203,61.0,7,60,10.0,64.0
7204,69.0,64,60,8.0,64.0
7205,62.0,14,90,10.0,64.0
7206,64.0,6,60,7.0,64.0
7207,76.0,2,90,4.0,64.0
7208,64.0,7,60,5.0,64.0
7209,76.0,21,90,6.0,64.0
7210,71.0,5,60,8.0,64.0
7211,88.0,4,90,1.0,64.0
7212,50.0,5,40,3.0,64.0
7213,74.0,0,90,2.0,64.0
7214,80.0,1,90,0.0,64.0
7215,69.0,36,60,8.0,64.0
7216,68.0,18,60,8.0,64.0
7217,68.0,8,30,5.0,64.0
7218,64.0,13,60,10.0,64.0
7219,76.0,0,90,4.0,64.0
7220,76.0,2,90,6.0,64.0
7221,74.0,1,90,2.0,64.0
7222,68.0,9,40,7.0,64.0
7223,83.0,11,90,0.0,64.0
7224,88.0,3,60,1.0,64.0
7225,50.0,1,40,3.0,64.0
7226,62.0,80,60,10.0,64.0
7227,66.0,6,40,8.0,64.0
7228,76.0,5,60,6.0,64.0
7229,64.0,0,90,8.0,64.0
7230,81.0,9,120,2.0,64.0
7231,61.0,3,60,10.0,64.0
7232,76.0,15,90,4.0,64.0
7233,81.0,1,120,0.0,64.0
7234,88.0,46,120,1.0,64.0
7235,69.0,2,60,5.0,64.0
7236,69.0,1,60,7.0,64.0
7237,45.0,13,60,3.0,64.0
7238,81.0,19,40,5.0,64.0
7239,81.0,0,40,7.0,64.0
7240,69.0,2,120,8.0,64.0
7241,73.0,9,60,7.0,64.0
7242,69.0,1,60,4.0,64.0
7243,64.0,3,60,10.0,64.0
7244,69.0,3,60,6.0,64.0
7245,73.0,21,60,5.0,64.0
7246,71.0,3,40,6.0,64.0
7247,74.0,7,40,7.0,64.0
7248,71.0,0,40,4.0,64.0
7249,74.0,60,40,5.0,64.0
7250,73.0,9,60,6.0,64.0
7251,73.0,10,60,4.0,64.0
7252,76.0,3,60,7.0,64.0
7253,69.0,13,90,8.0,64.0
7254,76.0,8,60,5.0,64.0
7255,57.0,7,60,10.0,64.0
7256,78.0,14,40,7.0,64.0
7257,78.0,58,40,5.0,64.0
7258,76.0,18,60,7.0,64.0
7259,73.0,5,60,6.0,64.0
7260,69.0,7,90,8.0,64.0
7261,73.0,4,60,4.0,64.0
7262,76.0,4,60,5.0,64.0
7263,61.0,12,180,10.0,64.0
7264,74.0,11,40,6.0,64.0
7265,78.0,1,40,7.0,64.0
7266,74.0,1,40,4.0,64.0
7267,78.0,68,40,5.0,64.0
7268,79.0,5,60,7.0,64.0
7269,76.0,9,60,6.0,64.0
7270,69.0,6,120,8.0,64.0
7271,76.0,10,60,4.0,64.0
7272,79.0,2,60,5.0,64.0
7273,76.0,10,40,7.0,64.0
7274,76.0,61,40,5.0,64.0
7275,69.0,13,60,7.0,64.0
7276,69.0,12,90,8.0,64.0
7277,73.0,5,60,6.0,64.0
7278,64.0,0,60,10.0,64.0
7279,73.0,2,60,4.0,64.0
7280,69.0,18,60,5.0,64.0
7281,71.0,0,60,7.0,64.0
7282,74.0,5,40,6.0,64.0
7283,74.0,8,40,4.0,64.0
7284,71.0,53,60,5.0,64.0
7285,73.0,2,60,7.0,64.0
7286,69.0,6,90,8.0,64.0
7287,76.0,1,60,6.0,64.0
7288,76.0,14,40,4.0,64.0
7289,73.0,22,60,5.0,64.0
7290,55.0,2,60,10.0,64.0
7291,74.0,22,60,7.0,64.0
7292,74.0,47,60,5.0,64.0
7293,73.0,18,60,7.0,64.0
7294,69.0,8,90,8.0,64.0
7295,73.0,0,60,5.0,64.0
7296,76.0,7,60,4.0,64.0
7297,76.0,7,60,6.0,64.0
7298,61.0,3,180,10.0,64.0
7299,74.0,14,40,7.0,64.0
7300,78.0,1,40,4.0,64.0
7301,74.0,5,40,5.0,64.0
7302,78.0,70,40,6.0,64.0
7303,69.0,28,90,8.0,64.0
7304,76.0,4,60,7.0,64.0
7305,79.0,4,60,4.0,64.0
7306,76.0,1,60,5.0,64.0
7307,79.0,13,60,6.0,64.0
7308,74.0,5,60,7.0,64.0
7309,74.0,47,60,5.0,64.0
7310,69.0,17,90,8.0,64.0
7311,73.0,4,60,7.0,64.0
7312,79.0,10,40,4.0,64.0
7313,73.0,1,60,5.0,64.0
7314,64.0,9,60,10.0,64.0
7315,79.0,10,40,6.0,64.0
7316,78.0,3,60,6.0,64.0
7317,78.0,10,40,4.0,64.0
7318,74.0,71,60,5.0,64.0
7319,74.0,9,40,7.0,64.0
7320,79.0,5,60,4.0,64.0
7321,69.0,30,90,8.0,64.0
7322,79.0,0,60,6.0,64.0
7323,76.0,18,60,7.0,64.0
7324,57.0,4,60,10.0,64.0
7325,76.0,4,60,5.0,64.0
7326,74.0,7,60,7.0,64.0
7327,74.0,47,60,5.0,64.0
7328,73.0,2,60,7.0,64.0
7329,69.0,14,90,8.0,64.0
7330,81.0,4,60,6.0,64.0
7331,61.0,9,60,10.0,64.0
7332,73.0,1,60,5.0,64.0
7333,81.0,9,60,4.0,64.0
7334,71.0,0,60,7.0,64.0
7335,79.0,14,40,6.0,64.0
7336,71.0,73,60,5.0,64.0
7337,79.0,7,40,4.0,64.0
7338,69.0,9,90,8.0,64.0
7339,78.0,8,90,6.0,64.0
7340,69.0,7,60,7.0,64.0
7341,78.0,59,90,4.0,64.0
7342,69.0,2,60,5.0,64.0
7343,50.0,3,60,10.0,64.0
7344,62.0,13,60,8.0,64.0
7345,78.0,8,30,6.0,64.0
7346,66.0,6,40,7.0,64.0
7347,62.0,19,60,10.0,64.0
7348,66.0,6,40,5.0,64.0
7349,78.0,3,30,4.0,64.0
7350,76.0,13,40,6.0,64.0
7351,64.0,52,60,8.0,64.0
7352,76.0,17,40,4.0,64.0
7353,78.0,30,90,6.0,64.0
7354,62.0,4,60,8.0,64.0
7355,55.0,23,60,10.0,64.0
7356,71.0,11,270,7.0,64.0
7357,71.0,11,270,5.0,64.0
7358,78.0,2,90,4.0,64.0
7359,61.0,46,40,8.0,64.0
7360,59.0,2,60,8.0,64.0
7361,59.0,32,60,10.0,64.0
7362,79.0,19,40,6.0,64.0
7363,79.0,6,30,4.0,64.0
7364,78.0,1,40,6.0,64.0
7365,78.0,60,40,4.0,64.0
7366,62.0,1,40,8.0,64.0
7367,76.0,12,120,6.0,64.0
7368,76.0,10,90,4.0,64.0
7369,61.0,8,60,8.0,64.0
7370,49.0,26,60,10.0,64.0
7371,62.0,46,60,8.0,64.0
7372,61.0,12,40,8.0,64.0
7373,61.0,1,60,10.0,64.0
7374,76.0,5,40,4.0,64.0
7375,76.0,13,60,6.0,64.0
7376,70.0,1,40,5.0,64.0
7377,70.0,33,60,7.0,64.0
7378,59.0,1,60,8.0,64.0
7379,74.0,4,40,6.0,64.0
7380,71.0,6,40,5.0,64.0
7381,74.0,0,40,4.0,64.0
7382,71.0,65,40,7.0,64.0
7383,58.0,10,60,8.0,64.0
7384,76.0,19,90,6.0,64.0
7385,73.0,3,60,5.0,64.0
7386,73.0,14,60,7.0,64.0
7387,76.0,0,120,4.0,64.0
7388,54.0,9,60,10.0,64.0
7389,71.0,44,60,5.0,64.0
7390,71.0,6,60,7.0,64.0
7391,70.0,3,60,5.0,64.0
7392,61.0,9,40,8.0,64.0
7393,70.0,2,60,7.0,64.0
7394,58.0,26,60,10.0,64.0
7395,78.0,0,40,6.0,64.0
7396,78.0,8,40,4.0,64.0
7397,76.0,1,40,6.0,64.0
7398,68.0,8,30,5.0,64.0
7399,68.0,13,40,7.0,64.0
7400,76.0,68,40,4.0,64.0
7401,74.0,3,90,6.0,64.0
7402,66.0,3,60,5.0,64.0
7403,74.0,15,90,4.0,64.0
7404,66.0,0,60,7.0,64.0
7405,62.0,10,60,8.0,64.0
7406,47.0,15,60,10.0,64.0
7407,78.0,4,40,5.0,64.0
7408,78.0,61,40,7.0,64.0
7409,74.0,8,60,6.0,64.0
7410,59.0,19,60,10.0,64.0
7411,66.0,3,40,8.0,64.0
7412,71.0,3,60,7.0,64.0
7413,74.0,1,90,1.0,64.0
7414,71.0,4,60,5.0,64.0
7415,74.0,3,40,0.0,64.0
7416,74.0,4,60,4.0,64.0
7417,76.0,9,40,6.0,64.0
7418,76.0,6,40,0.0,64.0
7419,76.0,5,40,4.0,64.0
7420,73.0,45,60,5.0,64.0
7421,73.0,5,40,7.0,64.0
7422,78.0,5,60,6.0,64.0
7423,78.0,2,60,0.0,64.0
7424,78.0,2,60,4.0,64.0
7425,74.0,23,60,7.0,64.0
7426,74.0,13,60,5.0,64.0
7427,74.0,3,90,1.0,64.0
7428,57.0,1,60,10.0,64.0
7429,59.0,8,40,8.0,64.0
7430,76.0,4,40,7.0,64.0
7431,76.0,39,40,5.0,64.0
7432,74.0,6,60,7.0,64.0
7433,55.0,13,90,10.0,64.0
7434,74.0,6,90,1.0,64.0
7435,78.0,1,60,0.0,64.0
7436,74.0,3,60,5.0,64.0
7437,78.0,5,60,6.0,64.0
7438,62.0,20,180,8.0,64.0
7439,64.0,29,15,8.0,64.0
7440,78.0,16,60,4.0,64.0
7441,79.0,2,40,0.0,64.0
7442,76.0,63,60,7.0,64.0
7443,79.0,2,40,6.0,64.0
7444,79.0,4,40,4.0,64.0
7445,76.0,4,40,5.0,64.0
7446,81.0,3,60,6.0,64.0
7447,78.0,10,60,7.0,64.0
7448,54.0,2,90,10.0,64.0
7449,81.0,1,60,0.0,64.0
7450,74.0,4,90,1.0,64.0
7451,81.0,8,60,4.0,64.0
7452,78.0,2,60,5.0,64.0
7453,81.0,6,40,7.0,64.0
7454,81.0,52,40,5.0,64.0
7455,74.0,17,60,7.0,64.0
7456,78.0,4,40,6.0,64.0
7457,74.0,0,60,5.0,64.0
7458,59.0,2,60,10.0,64.0
7459,74.0,18,60,8.0,64.0
7460,78.0,5,40,4.0,64.0
7461,74.0,0,90,1.0,64.0
7462,78.0,2,40,0.0,64.0
7463,74.0,4,90,2.0,64.0
7464,79.0,4,40,6.0,64.0
7465,76.0,73,60,7.0,64.0
7466,79.0,1,40,4.0,64.0
7467,76.0,2,40,5.0,64.0
7468,79.0,0,40,0.0,64.0
7469,81.0,6,60,6.0,64.0
7470,78.0,3,60,5.0,64.0
7471,78.0,0,60,7.0,64.0
7472,74.0,1,90,8.0,64.0
7473,57.0,14,60,10.0,64.0
7474,81.0,8,60,0.0,64.0
7475,81.0,4,90,4.0,64.0
7476,74.0,62,90,1.0,64.0
7477,74.0,2,90,2.0,64.0
7478,79.0,0,40,5.0,64.0
7479,79.0,2,40,7.0,64.0
7480,78.0,4,60,5.0,64.0
7481,78.0,3,60,7.0,64.0
7482,81.0,3,40,6.0,64.0
7483,74.0,4,90,8.0,64.0
7484,55.0,24,60,10.0,64.0
7485,81.0,3,40,0.0,64.0
7486,74.0,5,90,1.0,64.0
7487,81.0,10,40,4.0,64.0
7488,74.0,0,90,2.0,64.0
7489,83.0,2,40,6.0,64.0
7490,79.0,0,40,5.0,64.0
7491,79.0,0,40,7.0,64.0
7492,83.0,70,40,4.0,64.0
7493,83.0,1,30,0.0,64.0
7494,84.0,14,60,6.0,64.0
7495,81.0,1,60,7.0,64.0
7496,81.0,8,90,5.0,64.0
7497,74.0,4,90,8.0,64.0
7498,84.0,15,60,4.0,64.0
7499,54.0,1,60,10.0,64.0
7500,84.0,6,60,0.0,64.0
7501,74.0,2,90,1.0,64.0
7502,74.0,2,90,2.0,64.0
7503,79.0,59,60,7.0,64.0
7504,78.0,4,60,7.0,64.0
7505,74.0,1,90,8.0,64.0
7506,84.0,0,40,6.0,64.0
7507,57.0,25,60,10.0,64.0
7508,90.0,1,40,1.0,64.0
7509,84.0,1,40,0.0,64.0
7510,79.0,0,90,5.0,64.0
7511,84.0,8,60,4.0,64.0
7512,74.0,3,90,2.0,64.0
7513,50.0,9,40,3.0,64.0
7514,83.0,0,40,6.0,64.0
7515,79.0,1,40,7.0,64.0
7516,91.0,0,40,1.0,64.0
7517,83.0,14,40,0.0,64.0
7518,83.0,50,60,4.0,64.0
7519,74.0,8,90,8.0,64.0
7520,93.0,3,90,1.0,64.0
7521,84.0,2,60,6.0,64.0
7522,50.0,1,60,10.0,64.0
7523,81.0,3,60,7.0,64.0
7524,50.0,19,40,3.0,64.0
7525,78.0,6,60,2.0,64.0
7526,78.0,30,90,5.0,64.0
7527,84.0,5,60,4.0,64.0
7528,84.0,1,60,0.0,64.0
7529,79.0,32,60,7.0,64.0
7530,78.0,5,60,7.0,64.0
7531,69.0,1,90,8.0,64.0
7532,76.0,8,90,5.0,64.0
7533,95.0,7,30,1.0,64.0
7534,50.0,13,40,3.0,64.0
7535,74.0,7,60,2.0,64.0
7536,86.0,4,60,6.0,64.0
7537,54.0,3,60,10.0,64.0
7538,86.0,1,60,4.0,64.0
7539,86.0,4,40,0.0,64.0
7540,76.0,64,60,7.0,64.0
7541,93.0,12,30,1.0,64.0
7542,84.0,2,40,6.0,64.0
7543,84.0,8,40,4.0,64.0
7544,84.0,2,30,0.0,64.0
7545,71.0,11,120,8.0,64.0
7546,74.0,3,60,7.0,64.0
7547,83.0,3,60,6.0,64.0
7548,91.0,15,120,1.0,64.0
7549,50.0,24,60,3.0,64.0
7550,43.0,1,60,10.0,64.0
7551,74.0,4,60,5.0,64.0
7552,86.0,2,120,2.0,64.0
7553,83.0,10,60,4.0,64.0
7554,83.0,24,120,0.0,64.0
7555,79.0,0,40,6.0,64.0
7556,79.0,13,40,4.0,64.0
7557,71.0,11,60,7.0,64.0
7558,76.0,10,60,6.0,64.0
7559,71.0,12,90,8.0,64.0
7560,55.0,24,60,10.0,64.0
7561,71.0,7,60,5.0,64.0
7562,76.0,1,60,4.0,64.0
7563,78.0,3,40,6.0,64.0
7564,78.0,61,40,4.0,64.0
7565,79.0,7,60,6.0,64.0
7566,49.0,23,60,10.0,64.0
7567,71.0,11,90,8.0,64.0
7568,76.0,2,270,7.0,64.0
7569,76.0,10,270,5.0,64.0
7570,79.0,7,60,4.0,64.0
7571,81.0,7,40,6.0,64.0
7572,81.0,44,40,4.0,64.0
7573,78.0,14,40,6.0,64.0
7574,71.0,10,90,8.0,64.0
7575,78.0,12,40,4.0,64.0
7576,52.0,21,60,10.0,64.0
7577,83.0,2,60,0.0,64.0
7578,88.0,1,60,2.0,64.0
7579,91.0,5,60,1.0,64.0
7580,79.0,3,40,6.0,64.0
7581,79.0,57,40,4.0,64.0
7582,81.0,3,60,6.0,64.0
7583,69.0,5,90,8.0,64.0
7584,42.0,19,60,10.0,64.0
7585,81.0,7,120,0.0,64.0
7586,81.0,12,40,4.0,64.0
7587,90.0,4,150,1.0,64.0
7588,45.0,10,60,3.0,64.0
7589,88.0,18,120,2.0,64.0
7590,78.0,4,60,6.0,64.0
7591,78.0,31,40,4.0,64.0
7592,54.0,38,60,10.0,64.0
7593,69.0,12,90,8.0,64.0
7594,74.0,1,40,6.0,64.0
7595,69.0,2,40,5.0,64.0
7596,74.0,1,40,4.0,64.0
7597,69.0,2,40,7.0,64.0
7598,76.0,0,40,6.0,64.0
7599,76.0,79,40,4.0,64.0
7600,69.0,14,90,8.0,64.0
7601,47.0,5,60,10.0,64.0
7602,78.0,16,60,6.0,64.0
7603,78.0,5,60,4.0,64.0
7604,74.0,2,300,5.0,64.0
7605,74.0,2,270,7.0,64.0
7606,79.0,59,40,6.0,64.0
7607,79.0,2,40,4.0,64.0
7608,69.0,3,120,8.0,64.0
7609,50.0,27,60,10.0,64.0
7610,81.0,7,60,0.0,64.0
7611,76.0,1,40,6.0,64.0
7612,76.0,16,40,4.0,64.0
7613,86.0,4,60,2.0,64.0
7614,90.0,4,60,1.0,64.0
7615,78.0,2,40,6.0,64.0
7616,78.0,60,40,4.0,64.0
7617,67.0,3,120,8.0,64.0
7618,79.0,3,60,6.0,64.0
7619,79.0,11,40,0.0,64.0
7620,40.0,2,60,10.0,64.0
7621,79.0,14,60,4.0,64.0
7622,86.0,13,90,2.0,64.0
7623,88.0,9,60,1.0,64.0
7624,78.0,5,40,6.0,64.0
7625,78.0,2,40,0.0,64.0
7626,78.0,42,40,4.0,64.0
7627,76.0,4,30,6.0,64.0
7628,76.0,12,40,0.0,64.0
7629,45.0,0,60,10.0,64.0
7630,69.0,2,90,8.0,64.0
7631,73.0,2,60,7.0,64.0
7632,81.0,1,60,2.0,64.0
7633,93.0,2,60,1.0,64.0
7634,73.0,19,60,5.0,64.0
7635,76.0,13,40,4.0,64.0
7636,45.0,2,40,3.0,64.0
7637,79.0,5,30,6.0,64.0
7638,79.0,8,30,0.0,64.0
7639,79.0,65,30,4.0,64.0
7640,69.0,9,90,8.0,64.0
7641,50.0,6,60,10.0,64.0
7642,74.0,5,40,7.0,64.0
7643,78.0,3,60,6.0,64.0
7644,74.0,0,40,5.0,64.0
7645,81.0,2,60,2.0,64.0
7646,78.0,5,40,0.0,64.0
7647,93.0,0,40,1.0,64.0
7648,50.0,2,40,3.0,64.0
7649,78.0,20,60,4.0,64.0
7650,73.0,2,40,7.0,64.0
7651,76.0,7,40,6.0,64.0
7652,73.0,3,40,5.0,64.0
7653,76.0,1,40,0.0,64.0
7654,76.0,43,40,4.0,64.0
7655,71.0,1,40,7.0,64.0
7656,74.0,5,40,6.0,64.0
7657,69.0,3,90,8.0,64.0
7658,71.0,3,40,5.0,64.0
7659,38.0,0,40,10.0,64.0
7660,74.0,6,30,0.0,64.0
7661,74.0,4,40,4.0,64.0
7662,93.0,0,40,1.0,64.0
7663,81.0,25,40,2.0,64.0
7664,50.0,4,40,3.0,64.0
7665,74.0,6,40,7.0,64.0
7666,78.0,7,40,6.0,64.0
7667,74.0,5,40,5.0,64.0
7668,78.0,52,40,4.0,64.0
7669,78.0,3,30,0.0,64.0
7670,73.0,15,60,7.0,64.0
7671,69.0,8,90,8.0,64.0
7672,73.0,5,60,5.0,64.0
7673,76.0,21,60,6.0,64.0
7674,45.0,11,90,10.0,64.0
7675,93.0,16,120,1.0,64.0
7676,76.0,1,40,4.0,64.0
7677,76.0,2,120,0.0,64.0
7678,81.0,1,120,2.0,64.0
7679,45.0,5,60,3.0,64.0
7680,81.0,4,40,6.0,64.0
7681,81.0,28,40,4.0,64.0
7682,76.0,14,40,7.0,64.0
7683,76.0,2,40,5.0,64.0
7684,69.0,58,90,8.0,64.0
7685,73.0,5,60,6.0,64.0
7686,45.0,35,60,10.0,64.0
7687,73.0,2,40,4.0,64.0
7688,47.0,4,60,10.0,64.0
7689,74.0,4,40,4.0,64.0
7690,74.0,0,40,6.0,64.0
7691,49.0,4,60,10.0,64.0
7692,76.0,3,60,4.0,64.0
7693,69.0,8,40,7.0,64.0
7694,69.0,6,60,5.0,64.0
7695,69.0,6,90,8.0,64.0
7696,76.0,32,60,6.0,64.0
7697,78.0,9,40,6.0,64.0
7698,78.0,61,60,4.0,64.0
7699,76.0,15,60,6.0,64.0
7700,49.0,11,40,10.0,64.0
7701,73.0,4,150,7.0,64.0
7702,69.0,16,90,8.0,64.0
7703,76.0,10,60,4.0,64.0
7704,73.0,15,150,5.0,64.0
7705,50.0,5,40,10.0,64.0
7706,78.0,1,40,6.0,64.0
7707,78.0,57,40,4.0,64.0
7708,69.0,9,90,8.0,64.0
7709,52.0,5,60,10.0,64.0
7710,79.0,6,60,6.0,64.0
7711,79.0,17,60,4.0,64.0
7712,76.0,53,60,6.0,64.0
7713,76.0,7,40,4.0,64.0
7714,49.0,4,40,10.0,64.0
7715,69.0,6,90,8.0,64.0
7716,76.0,5,40,7.0,64.0
7717,69.0,33,60,6.0,64.0
7718,69.0,1,60,4.0,64.0
7719,76.0,11,40,5.0,64.0
7720,69.0,9,90,0.0,64.0
7721,50.0,2,40,10.0,64.0
7722,71.0,2,60,6.0,64.0
7723,71.0,52,40,4.0,64.0
7724,52.0,5,60,10.0,64.0
7725,69.0,2,90,8.0,64.0
7726,67.0,4,40,7.0,64.0
7727,73.0,4,60,6.0,64.0
7728,73.0,29,60,4.0,64.0
7729,67.0,6,40,5.0,64.0
7730,69.0,5,90,0.0,64.0
7731,74.0,7,40,6.0,64.0
7732,74.0,67,40,4.0,64.0
7733,69.0,6,90,8.0,64.0
7734,73.0,25,60,6.0,64.0
7735,52.0,3,60,10.0,64.0
7736,73.0,9,40,4.0,64.0
7737,73.0,30,180,5.0,64.0
7738,73.0,2,180,7.0,64.0
7739,69.0,1,90,0.0,64.0
7740,54.0,3,40,10.0,64.0
7741,74.0,2,40,6.0,64.0
7742,74.0,79,40,4.0,64.0
7743,55.0,0,60,10.0,64.0
7744,69.0,2,90,8.0,64.0
7745,76.0,7,60,6.0,64.0
7746,76.0,1,60,4.0,64.0
7747,69.0,11,90,0.0,64.0
7748,74.0,0,40,6.0,64.0
7749,74.0,48,60,4.0,64.0
7750,73.0,1,60,6.0,64.0
7751,55.0,4,60,10.0,64.0
7752,73.0,8,40,4.0,64.0
7753,69.0,5,90,8.0,64.0
7754,76.0,3,40,7.0,64.0
7755,81.0,65,90,2.0,64.0
7756,76.0,0,90,0.0,64.0
7757,76.0,39,40,5.0,64.0
7758,45.0,1,40,3.0,64.0
7759,81.0,0,60,1.0,64.0
7760,54.0,4,40,10.0,64.0
7761,74.0,4,40,4.0,64.0
7762,74.0,0,40,6.0,64.0
7763,55.0,2,60,10.0,64.0
7764,76.0,2,60,4.0,64.0
7765,76.0,0,60,6.0,64.0
7766,76.0,15,90,0.0,64.0
7767,69.0,4,60,7.0,64.0
7768,81.0,8,90,2.0,64.0
7769,69.0,15,60,5.0,64.0
7770,69.0,1,90,8.0,64.0
7771,81.0,6,90,1.0,64.0
7772,45.0,4,40,3.0,64.0
7773,79.0,4,60,6.0,64.0
7774,79.0,55,60,4.0,64.0
7775,78.0,4,60,6.0,64.0
7776,57.0,0,60,10.0,64.0
7777,81.0,0,60,0.0,64.0
7778,69.0,3,90,8.0,64.0
7779,78.0,5,40,4.0,64.0
7780,73.0,1,60,5.0,64.0
7781,73.0,1,60,7.0,64.0
7782,88.0,26,60,1.0,64.0
7783,81.0,2,60,2.0,64.0
7784,45.0,3,40,3.0,64.0
7785,55.0,5,40,10.0,64.0
7786,76.0,5,40,6.0,64.0
7787,76.0,65,40,4.0,64.0
7788,54.0,1,90,10.0,64.0
7789,69.0,21,90,8.0,64.0
7790,81.0,3,60,6.0,64.0
7791,81.0,11,120,0.0,64.0
7792,74.0,1,40,7.0,64.0
7793,74.0,14,40,5.0,64.0
7794,81.0,11,60,4.0,64.0
7795,74.0,20,120,2.0,64.0
7796,90.0,9,90,1.0,64.0
7797,50.0,3,60,3.0,64.0
7798,79.0,15,60,6.0,64.0
7799,79.0,2,60,4.0,64.0
7800,54.0,4,40,10.0,64.0
7801,78.0,4,40,6.0,64.0
7802,69.0,2,40,7.0,64.0
7803,62.0,13,60,8.0,64.0
7804,78.0,26,40,4.0,64.0
7805,69.0,0,40,5.0,64.0
7806,93.0,2,30,1.0,64.0
7807,52.0,8,40,10.0,64.0
7808,79.0,2,40,6.0,64.0
7809,79.0,64,40,4.0,64.0
7810,91.0,1,30,1.0,64.0
7811,54.0,23,90,10.0,64.0
7812,81.0,7,40,6.0,64.0
7813,81.0,1,40,4.0,64.0
7814,66.0,9,60,8.0,64.0
7815,90.0,17,60,1.0,64.0
7816,74.0,5,270,5.0,64.0
7817,74.0,8,270,7.0,64.0
7818,78.0,3,60,4.0,64.0
7819,78.0,46,60,6.0,64.0
7820,74.0,21,90,6.0,64.0
7821,74.0,2,60,4.0,64.0
7822,83.0,16,30,0.0,64.0
7823,71.0,17,60,8.0,64.0
7824,86.0,3,40,1.0,64.0
7825,55.0,1,40,10.0,64.0
7826,78.0,1,40,4.0,64.0
7827,78.0,4,40,6.0,64.0
7828,81.0,1,40,0.0,64.0
7829,54.0,60,40,10.0,64.0
7830,79.0,1,60,6.0,64.0
7831,79.0,16,60,4.0,64.0
7832,52.0,28,60,10.0,64.0
7833,79.0,0,120,0.0,64.0
7834,88.0,6,90,1.0,64.0
7835,71.0,11,120,8.0,64.0
7836,78.0,9,60,6.0,64.0
7837,78.0,31,60,4.0,64.0
7838,76.0,23,60,6.0,64.0
7839,76.0,3,40,4.0,64.0
7840,67.0,5,60,7.0,64.0
7841,52.0,2,40,10.0,64.0
7842,91.0,12,30,1.0,64.0
7843,73.0,5,60,5.0,64.0
7844,73.0,2,40,8.0,64.0
7845,50.0,1,60,10.0,64.0
7846,78.0,4,40,6.0,64.0
7847,78.0,5,40,4.0,64.0
7848,90.0,3,30,1.0,64.0
7849,74.0,67,40,8.0,64.0
7850,52.0,6,60,10.0,64.0
7851,73.0,2,60,8.0,64.0
7852,79.0,3,40,6.0,64.0
7853,88.0,2,60,1.0,64.0
7854,64.0,27,60,7.0,64.0
7855,76.0,1,60,5.0,64.0
7856,79.0,3,60,4.0,64.0
7857,83.0,20,40,6.0,64.0
7858,83.0,47,60,4.0,64.0
7859,81.0,2,40,6.0,64.0
7860,69.0,1,60,8.0,64.0
7861,81.0,5,40,4.0,64.0
7862,88.0,0,60,2.0,64.0
7863,54.0,3,60,10.0,64.0
7864,73.0,2,40,7.0,64.0
7865,73.0,23,60,5.0,64.0
7866,81.0,10,60,1.0,64.0
7867,81.0,3,30,0.0,64.0
7868,45.0,2,40,3.0,64.0
7869,79.0,3,40,6.0,64.0
7870,52.0,0,40,10.0,64.0
7871,79.0,6,40,0.0,64.0
7872,79.0,65,40,4.0,64.0
7873,50.0,1,60,10.0,64.0
7874,78.0,9,40,6.0,64.0
7875,69.0,9,90,8.0,64.0
7876,78.0,4,60,0.0,64.0
7877,74.0,1,60,5.0,64.0
7878,74.0,3,60,7.0,64.0
7879,90.0,67,90,2.0,64.0
7880,78.0,1,60,4.0,64.0
7881,50.0,10,60,3.0,64.0
7882,81.0,15,60,1.0,64.0
7883,52.0,3,40,10.0,64.0
7884,54.0,0,60,10.0,64.0
7885,74.0,4,60,6.0,64.0
7886,69.0,22,60,8.0,64.0
7887,69.0,1,60,5.0,64.0
7888,86.0,4,60,1.0,64.0
7889,81.0,4,40,0.0,64.0
7890,69.0,1,60,7.0,64.0
7891,74.0,10,60,4.0,64.0
7892,50.0,77,40,10.0,64.0
7893,55.0,2,60,10.0,64.0
7894,62.0,2,60,7.0,64.0
7895,67.0,26,60,8.0,64.0
7896,71.0,3,60,6.0,64.0
7897,91.0,67,90,2.0,64.0
7898,62.0,2,60,5.0,64.0
7899,83.0,0,60,0.0,64.0
7900,86.0,1,60,1.0,64.0
7901,71.0,6,40,4.0,64.0
7902,50.0,1,60,3.0,64.0
7903,57.0,1,40,10.0,64.0
7904,54.0,2,60,10.0,64.0
7905,71.0,28,60,8.0,64.0
7906,88.0,2,60,1.0,64.0
7907,67.0,8,40,7.0,64.0
7908,74.0,0,40,5.0,64.0
7909,79.0,6,40,0.0,64.0
7910,76.0,0,40,6.0,64.0
7911,76.0,12,40,4.0,64.0
7912,55.0,77,60,10.0,64.0
7913,57.0,1,60,10.0,64.0
7914,69.0,10,60,8.0,64.0
7915,88.0,2,120,2.0,64.0
7916,81.0,1,60,1.0,64.0
7917,64.0,2,60,7.0,64.0
7918,45.0,0,60,3.0,64.0
7919,64.0,18,270,5.0,64.0
7920,73.0,3,60,4.0,64.0
7921,85.0,3,40,0.0,64.0
7922,73.0,38,60,6.0,64.0
7923,61.0,6,60,7.0,64.0
7924,69.0,4,60,4.0,64.0
7925,69.0,43,60,6.0,64.0
7926,55.0,24,90,10.0,64.0
7927,62.0,4,40,7.0,64.0
7928,64.0,2,60,8.0,64.0
7929,71.0,3,60,4.0,64.0
7930,88.0,10,60,1.0,64.0
7931,71.0,4,60,6.0,64.0
7932,81.0,7,40,0.0,64.0
7933,64.0,6,40,7.0,64.0
7934,73.0,2,40,4.0,64.0
7935,73.0,40,40,6.0,64.0
7936,74.0,5,60,6.0,64.0
7937,74.0,1,60,4.0,64.0
7938,54.0,0,60,10.0,64.0
7939,90.0,4,40,1.0,64.0
7940,69.0,24,60,8.0,64.0
7941,81.0,1,60,2.0,64.0
7942,57.0,5,60,7.0,64.0
7943,45.0,6,40,3.0,64.0
7944,86.0,4,40,0.0,64.0
7945,88.0,9,40,1.0,64.0
7946,76.0,44,40,6.0,64.0
7947,76.0,2,40,4.0,64.0
7948,90.0,14,40,1.0,64.0
7949,78.0,3,40,6.0,64.0
7950,52.0,7,60,10.0,64.0
7951,69.0,21,60,8.0,64.0
7952,73.0,1,40,7.0,64.0
7953,78.0,1,40,4.0,64.0
7954,73.0,4,40,5.0,64.0
7955,81.0,8,60,2.0,64.0
7956,79.0,1,60,0.0,64.0
7957,45.0,1,30,3.0,64.0
7958,91.0,5,40,1.0,64.0
7959,79.0,0,40,6.0,64.0
7960,79.0,68,40,4.0,64.0
7961,78.0,5,40,6.0,64.0
7962,50.0,5,60,10.0,64.0
7963,74.0,3,60,7.0,64.0
7964,74.0,3,60,5.0,64.0
7965,69.0,1,40,8.0,64.0
7966,78.0,1,40,4.0,64.0
7967,93.0,0,120,1.0,64.0
7968,81.0,23,120,2.0,64.0
7969,50.0,36,60,3.0,64.0
7970,78.0,3,120,0.0,64.0
7971,76.0,11,40,6.0,64.0
7972,67.0,1,60,8.0,64.0
7973,76.0,20,40,4.0,64.0
7974,66.0,2,60,8.0,64.0
7975,74.0,9,40,6.0,64.0
7976,71.0,4,60,5.0,64.0
7977,55.0,37,60,10.0,64.0
7978,71.0,0,60,7.0,64.0
7979,74.0,4,40,4.0,64.0
7980,67.0,66,60,8.0,64.0
7981,76.0,9,40,6.0,64.0
7982,76.0,0,40,4.0,64.0
7983,64.0,3,60,8.0,64.0
7984,57.0,6,60,10.0,64.0
7985,69.0,5,60,7.0,64.0
7986,69.0,2,60,5.0,64.0
7987,69.0,2,60,6.0,64.0
7988,76.0,45,120,0.0,64.0
7989,91.0,5,120,1.0,64.0
7990,69.0,9,60,4.0,64.0
7991,81.0,2,120,2.0,64.0
7992,45.0,58,60,3.0,64.0
7993,69.0,3,60,7.0,64.0
7994,45.0,1,60,10.0,64.0
7995,64.0,6,60,8.0,64.0
7996,69.0,100,60,5.0,64.0
7997,73.0,0,60,6.0,64.0
7998,73.0,2,60,4.0,64.0
7999,86.0,3,120,0.0,64.0
8000,69.0,11,270,5.0,64.0
8001,50.0,5,2160,10.0,64.0
8002,69.0,2,120,7.0,64.0
8003,74.0,2,240,6.0,64.0
8004,66.0,4,240,8.0,64.0
8005,81.0,3,120,2.0,64.0
8006,90.0,9,120,1.0,64.0
8007,50.0,18,20,3.0,64.0
8008,74.0,22,240,4.0,64.0
8009,50.0,29,15,3.0,64.0
8010,50.0,18,20,3.0,64.0
8011,50.0,28,15,3.0,64.0
8012,50.0,28,40,3.0,64.0
8013,50.0,17,15,3.0,64.0
8014,62.0,12,40,7.0,64.0
8015,50.0,22,15,3.0,64.0
8016,50.0,17,15,3.0,64.0
8017,50.0,14,15,3.0,64.0
8018,62.0,2,90,7.0,64.0
8019,50.0,25,30,3.0,64.0
8020,76.0,2,60,6.0,64.0
8021,76.0,2,40,4.0,64.0
8022,76.0,12,40,5.0,64.0
8023,50.0,3,20,3.0,64.0
8024,50.0,36,15,3.0,64.0
8025,78.0,6,40,6.0,64.0
8026,78.0,0,40,4.0,64.0
8027,78.0,5,30,5.0,64.0
8028,50.0,38,30,3.0,64.0
8029,74.0,6,40,4.0,64.0
8030,74.0,0,40,5.0,64.0
8031,74.0,50,40,6.0,64.0
8032,66.0,3,30,7.0,64.0
8033,62.0,2,30,8.0,64.0
8034,50.0,3,30,3.0,64.0
8035,69.0,2,300,4.0,64.0
8036,66.0,17,90,7.0,64.0
8037,50.0,33,30,3.0,64.0
8038,62.0,0,90,8.0,64.0
8039,69.0,17,270,5.0,64.0
8040,69.0,18,300,6.0,64.0
8041,90.0,5,120,0.0,64.0
8042,86.0,3,120,1.0,64.0
8043,81.0,12,150,2.0,64.0
8044,50.0,20,20,3.0,64.0
8045,50.0,13,15,3.0,64.0
8046,50.0,12,15,3.0,64.0
8047,50.0,18,15,3.0,64.0
8048,50.0,22,15,3.0,64.0
8049,50.0,28,15,3.0,64.0
8050,69.0,19,30,7.0,64.0
8051,66.0,4,40,8.0,64.0
8052,50.0,0,15,3.0,64.0
8053,50.0,24,15,3.0,64.0
8054,69.0,3,60,7.0,64.0
8055,50.0,6,15,3.0,64.0
8056,66.0,6,60,8.0,64.0
8057,50.0,6,15,3.0,64.0
8058,71.0,7,30,5.0,64.0
8059,50.0,5,15,3.0,64.0
8060,71.0,6,40,4.0,64.0
8061,71.0,35,30,6.0,64.0
8062,50.0,8,15,3.0,64.0
8063,50.0,7,30,3.0,64.0
8064,72.0,14,30,5.0,64.0
8065,72.0,13,40,4.0,64.0
8066,72.0,2,40,6.0,64.0
8067,50.0,21,15,3.0,64.0
8068,69.0,13,40,5.0,64.0
8069,66.0,0,40,7.0,64.0
8070,69.0,2,40,4.0,64.0
8071,50.0,13,15,3.0,64.0
8072,69.0,14,40,6.0,64.0
8073,69.0,5,40,8.0,64.0
8074,50.0,4,15,3.0,64.0
8075,62.0,1,150,7.0,64.0
8076,50.0,32,15,3.0,64.0
8077,93.0,29,120,0.0,64.0
8078,69.0,13,90,8.0,64.0
8079,66.0,1,270,5.0,64.0
8080,66.0,14,270,4.0,64.0
8081,86.0,2,120,2.0,64.0
8082,90.0,2,120,1.0,64.0
8083,66.0,7,270,6.0,64.0
8084,50.0,19,20,3.0,64.0
8085,50.0,33,15,3.0,64.0
8086,50.0,2,20,3.0,64.0
8087,50.0,19,15,3.0,64.0
8088,50.0,53,30,3.0,64.0
8089,50.0,20,30,3.0,64.0
8090,57.0,2,40,8.0,64.0
8091,66.0,13,40,7.0,64.0
8092,50.0,20,15,3.0,64.0
8093,57.0,2,90,8.0,64.0
8094,50.0,10,15,3.0,64.0
8095,66.0,7,90,7.0,64.0
8096,50.0,25,15,3.0,64.0
8097,67.0,6,40,5.0,64.0
8098,67.0,1,40,6.0,64.0
8099,67.0,6,40,4.0,64.0
8100,50.0,6,20,3.0,64.0
8101,50.0,24,15,3.0,64.0
8102,50.0,24,15,3.0,64.0
8103,69.0,2,40,6.0,64.0
8104,69.0,5,30,4.0,64.0
8105,69.0,12,40,5.0,64.0
8106,50.0,6,15,3.0,64.0
8107,50.0,30,15,3.0,64.0
8108,66.0,3,40,6.0,64.0
8109,66.0,2,40,4.0,64.0
8110,62.0,2,40,8.0,64.0
8111,69.0,2,30,7.0,64.0
8112,66.0,11,40,5.0,64.0
8113,50.0,55,30,3.0,64.0
8114,69.0,26,120,7.0,64.0
8115,66.0,4,90,8.0,64.0
8116,62.0,4,300,4.0,64.0
8117,62.0,20,270,6.0,64.0
8118,62.0,0,300,5.0,64.0
8119,90.0,1,120,2.0,64.0
8120,93.0,4,120,1.0,64.0
8121,50.0,33,30,3.0,64.0
8122,98.0,25,120,0.0,64.0
8123,50.0,21,15,3.0,64.0
8124,50.0,2,15,3.0,64.0
8125,50.0,4,20,3.0,64.0
8126,50.0,27,20,3.0,64.0
8127,50.0,31,15,3.0,64.0
8128,69.0,0,40,8.0,64.0
8129,72.0,1,40,7.0,64.0
8130,50.0,24,20,3.0,64.0
8131,50.0,33,15,3.0,64.0
8132,69.0,24,60,8.0,64.0
8133,72.0,4,60,7.0,64.0
8134,50.0,1,40,3.0,64.0
8135,50.0,22,20,3.0,64.0
8136,50.0,30,15,3.0,64.0
8137,64.0,10,40,6.0,64.0
8138,64.0,2,40,4.0,64.0
8139,64.0,2,40,5.0,64.0
8140,50.0,9,20,3.0,64.0
8141,66.0,3,30,6.0,64.0
8142,66.0,10,30,4.0,64.0
8143,50.0,13,20,3.0,64.0
8144,66.0,1,30,5.0,64.0
8145,67.0,3,40,6.0,64.0
8146,50.0,11,20,3.0,64.0
8147,69.0,8,30,7.0,64.0
8148,66.0,6,40,8.0,64.0
8149,67.0,4,40,5.0,64.0
8150,69.0,2,40,6.0,64.0
8151,67.0,7,40,4.0,64.0
8152,50.0,6,30,3.0,64.0
8153,69.0,5,40,5.0,64.0
8154,71.0,1,30,6.0,64.0
8155,69.0,11,40,4.0,64.0
8156,71.0,4,30,5.0,64.0
8157,72.0,16,90,6.0,64.0
8158,71.0,18,30,4.0,64.0
8159,62.0,7,90,8.0,64.0
8160,66.0,3,330,7.0,64.0
8161,72.0,3,90,5.0,64.0
8162,72.0,107,90,4.0,64.0
8163,50.0,36,30,3.0,64.0
8164,57.0,7,40,8.0,64.0
8165,72.0,3,40,5.0,64.0
8166,86.0,4,30,2.0,64.0
8167,72.0,38,40,6.0,64.0
8168,72.0,0,40,4.0,64.0
8169,93.0,3,40,0.0,64.0
8170,90.0,1,30,1.0,64.0
8171,74.0,0,90,5.0,64.0
8172,86.0,9,60,2.0,64.0
8173,57.0,1,90,8.0,64.0
8174,74.0,0,90,6.0,64.0
8175,74.0,6,90,4.0,64.0
8176,50.0,36,30,3.0,64.0
8177,90.0,0,60,1.0,64.0
8178,93.0,4,60,0.0,64.0
8179,50.0,11,30,3.0,64.0
8180,48.0,48,40,10.0,64.0
8181,47.0,46,40,10.0,64.0
8182,50.0,15,30,3.0,64.0
8183,45.0,0,40,10.0,64.0
8184,66.0,2,40,7.0,64.0
8185,93.0,0,40,0.0,64.0
8186,60.0,4,40,8.0,64.0
8187,90.0,6,30,2.0,64.0
8188,76.0,2,40,4.0,64.0
8189,76.0,1,40,5.0,64.0
8190,50.0,4,30,3.0,64.0
8191,93.0,5,30,1.0,64.0
8192,76.0,55,40,6.0,64.0
8193,67.0,5,90,7.0,64.0
8194,62.0,107,90,8.0,64.0
8195,86.0,4,90,2.0,64.0
8196,74.0,2,90,4.0,64.0
8197,47.0,1,90,10.0,64.0
8198,74.0,0,90,5.0,64.0
8199,74.0,4,90,6.0,64.0
8200,98.0,1,60,0.0,64.0
8201,91.0,4,90,1.0,64.0
8202,50.0,31,40,3.0,64.0
8203,64.0,1,40,8.0,64.0
8204,86.0,1,40,2.0,64.0
8205,50.0,9,30,3.0,64.0
8206,69.0,1,40,7.0,64.0
8207,93.0,1,40,0.0,64.0
8208,72.0,7,40,4.0,64.0
8209,72.0,1,40,5.0,64.0
8210,91.0,2,30,1.0,64.0
8211,48.0,55,40,10.0,64.0
8212,72.0,0,40,6.0,64.0
8213,62.0,0,90,8.0,64.0
8214,71.0,0,90,6.0,64.0
8215,71.0,5,90,4.0,64.0
8216,67.0,0,90,7.0,64.0
8217,86.0,3,60,2.0,64.0
8218,91.0,4,90,1.0,64.0
8219,95.0,115,90,0.0,64.0
8220,71.0,2,90,5.0,64.0
8221,50.0,4,60,10.0,64.0
8222,50.0,34,40,3.0,64.0
8223,62.0,3,40,8.0,64.0
8224,50.0,5,30,3.0,64.0
8225,66.0,10,40,7.0,64.0
8226,69.0,1,30,4.0,64.0
8227,96.0,0,30,0.0,64.0
8228,69.0,1,40,5.0,64.0
8229,69.0,4,30,6.0,64.0
8230,86.0,2,30,2.0,64.0
8231,91.0,1,30,1.0,64.0
8232,38.0,65,40,10.0,64.0
8233,71.0,4,180,6.0,64.0
8234,71.0,3,180,4.0,64.0
8235,71.0,35,180,5.0,64.0
8236,67.0,85,90,7.0,64.0
8237,62.0,40,330,8.0,64.0
8238,91.0,7,240,1.0,64.0
8239,50.0,28,40,3.0,64.0
8240,95.0,4,240,0.0,64.0
8241,86.0,54,240,2.0,64.0
8242,43.0,36,420,10.0,64.0
8243,71.0,31,40,7.0,64.0
8244,71.0,40,60,7.0,64.0
8245,67.0,8,180,6.0,64.0
8246,67.0,19,150,5.0,64.0
8247,67.0,3,150,4.0,64.0
8248,67.0,11,40,7.0,64.0
8249,62.0,102,40,8.0,64.0
8250,71.0,42,390,4.0,64.0
8251,71.0,33,360,5.0,64.0
8252,71.0,2,360,6.0,64.0
8253,55.0,18,420,10.0,64.0
8254,62.0,28,300,7.0,64.0
8255,67.0,129,90,8.0,64.0
8256,71.0,89,40,8.0,64.0
8257,71.0,8,60,8.0,64.0
8258,64.0,12,40,7.0,64.0
8259,73.0,1,40,5.0,64.0
8260,73.0,2,40,6.0,64.0
8261,67.0,8,40,8.0,64.0
8262,73.0,103,40,4.0,64.0
8263,57.0,128,90,7.0,64.0
8264,74.0,43,270,6.0,64.0
8265,74.0,1,270,5.0,64.0
8266,74.0,3,270,4.0,64.0
8267,69.0,9,330,8.0,64.0
8268,54.0,7,510,10.0,64.0
8269,62.0,44,60,7.0,64.0
8270,66.0,19,60,7.0,64.0
8271,73.0,2,40,5.0,64.0
8272,73.0,2,40,4.0,64.0
8273,73.0,51,40,6.0,64.0
8274,74.0,2,40,5.0,64.0
8275,74.0,2,40,4.0,64.0
8276,74.0,43,40,6.0,64.0
8277,76.0,5,30,5.0,64.0
8278,76.0,7,40,4.0,64.0
8279,67.0,5,40,7.0,64.0
8280,76.0,3,40,6.0,64.0
8281,67.0,62,40,8.0,64.0
8282,76.0,4,60,4.0,64.0
8283,76.0,7,60,5.0,64.0
8284,69.0,9,120,7.0,64.0
8285,76.0,13,60,6.0,64.0
8286,66.0,3,90,8.0,64.0
8287,75.0,7,30,5.0,64.0
8288,75.0,7,30,4.0,64.0
8289,75.0,10,30,6.0,64.0
8290,55.0,1,40,10.0,64.0
8291,76.0,2,20,5.0,64.0
8292,76.0,7,30,4.0,64.0
8293,76.0,1,30,6.0,64.0
8294,75.0,8,20,5.0,64.0
8295,75.0,9,20,4.0,64.0
8296,75.0,6,20,6.0,64.0
8297,76.0,10,20,5.0,64.0
8298,76.0,3,20,4.0,64.0
8299,57.0,4,40,10.0,64.0
8300,76.0,5,20,6.0,64.0
8301,75.0,7,20,5.0,64.0
8302,75.0,3,15,4.0,64.0
8303,75.0,7,20,6.0,64.0
8304,76.0,12,20,5.0,64.0
8305,76.0,1,30,4.0,64.0
8306,76.0,7,20,6.0,64.0
8307,72.0,7,30,7.0,64.0
8308,64.0,2,40,8.0,64.0
8309,75.0,10,20,5.0,64.0
8310,59.0,9,40,10.0,64.0
8311,75.0,0,20,4.0,64.0
8312,75.0,3,30,6.0,64.0
8313,76.0,5,30,5.0,64.0
8314,76.0,6,30,4.0,64.0
8315,76.0,48,30,6.0,64.0
8316,75.0,10,150,5.0,64.0
8317,75.0,0,120,4.0,64.0
8318,72.0,20,60,7.0,64.0
8319,75.0,29,120,6.0,64.0
8320,66.0,8,90,8.0,64.0
8321,57.0,17,40,10.0,64.0
8322,55.0,25,40,10.0,64.0
8323,54.0,50,40,10.0,64.0
8324,71.0,1,40,7.0,64.0
8325,76.0,8,40,6.0,64.0
8326,76.0,0,40,4.0,64.0
8327,52.0,101,40,10.0,64.0
8328,67.0,1,40,8.0,64.0
8329,76.0,2,30,5.0,64.0
8330,71.0,2,90,7.0,64.0
8331,78.0,45,270,6.0,64.0
8332,78.0,9,270,4.0,64.0
8333,78.0,4,240,5.0,64.0
8334,66.0,133,90,8.0,64.0
8335,51.0,2,570,10.0,64.0
8336,66.0,0,40,7.0,64.0
8337,69.0,33,40,8.0,64.0
8338,63.0,2,60,7.0,64.0
8339,69.0,26,60,8.0,64.0
8340,81.0,1,40,4.0,64.0
8341,81.0,1,40,5.0,64.0
8342,81.0,57,40,6.0,64.0
8343,79.0,2,40,6.0,64.0
8344,79.0,62,40,5.0,64.0
8345,79.0,2,40,4.0,64.0
8346,69.0,2,40,7.0,64.0
8347,78.0,84,60,6.0,64.0
8348,78.0,2,40,4.0,64.0
8349,72.0,4,40,8.0,64.0
8350,78.0,0,40,5.0,64.0
8351,59.0,17,90,7.0,64.0
8352,66.0,11,60,8.0,64.0
8353,83.0,119,90,4.0,64.0
8354,83.0,0,90,6.0,64.0
8355,83.0,0,90,5.0,64.0
8356,59.0,6,40,8.0,64.0
8357,47.0,0,40,10.0,64.0
8358,81.0,1,40,6.0,64.0
8359,75.0,95,40,7.0,64.0
8360,81.0,4,40,5.0,64.0
8361,81.0,1,40,4.0,64.0
8362,49.0,0,90,10.0,64.0
8363,79.0,1,90,6.0,64.0
8364,64.0,3,90,8.0,64.0
8365,76.0,3,90,7.0,64.0
8366,79.0,1,90,4.0,64.0
8367,79.0,125,90,5.0,64.0
8368,78.0,7,40,6.0,64.0
8369,78.0,0,40,7.0,64.0
8370,78.0,1,40,4.0,64.0
8371,78.0,15,40,5.0,64.0
8372,71.0,2,40,8.0,64.0
8373,51.0,82,40,10.0,64.0
8374,79.0,3,90,6.0,64.0
8375,76.0,5,90,7.0,64.0
8376,79.0,2,90,4.0,64.0
8377,71.0,124,90,8.0,64.0
8378,79.0,1,90,5.0,64.0
8379,52.0,1,90,10.0,64.0
8380,69.0,3,40,8.0,64.0
8381,75.0,7,40,7.0,64.0
8382,54.0,2,60,10.0,64.0
8383,78.0,1,40,6.0,64.0
8384,78.0,1,40,4.0,64.0
8385,78.0,94,40,5.0,64.0
8386,76.0,111,90,6.0,64.0
8387,76.0,4,90,7.0,64.0
8388,71.0,1,90,8.0,64.0
8389,55.0,3,90,10.0,64.0
8390,76.0,2,90,4.0,64.0
8391,76.0,2,90,5.0,64.0
8392,78.0,8,40,7.0,64.0
8393,78.0,1,40,6.0,64.0
8394,72.0,1,40,8.0,64.0
8395,57.0,82,40,10.0,64.0
8396,78.0,3,30,5.0,64.0
8397,78.0,1,30,4.0,64.0
8398,71.0,15,330,8.0,64.0
8399,76.0,0,90,7.0,64.0
8400,79.0,2,60,6.0,64.0
8401,79.0,14,60,4.0,64.0
8402,79.0,9,60,5.0,64.0
8403,59.0,3,120,10.0,64.0
8404,78.0,7,30,6.0,64.0
8405,78.0,3,30,5.0,64.0
8406,78.0,1,30,4.0,64.0
8407,75.0,20,30,7.0,64.0
8408,79.0,6,30,6.0,64.0
8409,79.0,2,30,5.0,64.0
8410,79.0,2,30,4.0,64.0
8411,76.0,2,30,7.0,64.0
8412,78.0,6,20,6.0,64.0
8413,78.0,6,15,5.0,64.0
8414,78.0,0,20,4.0,64.0
8415,75.0,14,20,7.0,64.0
8416,79.0,4,20,5.0,64.0
8417,79.0,1,30,6.0,64.0
8418,79.0,2,15,4.0,64.0
8419,76.0,9,20,7.0,64.0
8420,78.0,5,20,5.0,64.0
8421,78.0,7,20,6.0,64.0
8422,78.0,2,15,4.0,64.0
8423,75.0,8,30,7.0,64.0
8424,57.0,3,40,10.0,64.0
8425,79.0,7,20,5.0,64.0
8426,79.0,2,30,6.0,64.0
8427,79.0,1,20,4.0,64.0
8428,76.0,5,30,7.0,64.0
8429,56.0,0,30,10.0,64.0
8430,78.0,5,20,5.0,64.0
8431,78.0,0,20,6.0,64.0
8432,78.0,7,20,4.0,64.0
8433,75.0,12,20,7.0,64.0
8434,79.0,4,30,5.0,64.0
8435,79.0,72,30,6.0,64.0
8436,79.0,4,20,4.0,64.0
8437,76.0,0,20,7.0,64.0
8438,57.0,11,90,10.0,64.0
8439,78.0,4,120,5.0,64.0
8440,78.0,89,120,6.0,64.0
8441,78.0,0,120,4.0,64.0
8442,75.0,5,120,7.0,64.0
8443,76.0,3,30,4.0,64.0
8444,76.0,2,30,6.0,64.0
8445,71.0,0,30,8.0,64.0
8446,76.0,6,30,5.0,64.0
8447,76.0,2,40,7.0,64.0
8448,59.0,141,40,10.0,64.0
8449,56.0,50,510,10.0,64.0
8450,71.0,19,480,8.0,64.0
8451,76.0,12,240,6.0,64.0
8452,76.0,8,240,4.0,64.0
8453,76.0,89,120,7.0,64.0
8454,76.0,53,240,5.0,64.0
8455,64.0,31,40,7.0,64.0
8456,64.0,15,90,7.0,64.0
8457,76.0,10,40,6.0,64.0
8458,76.0,0,40,4.0,64.0
8459,76.0,44,40,5.0,64.0
8460,74.0,8,40,6.0,64.0
8461,74.0,2,30,4.0,64.0
8462,74.0,49,30,5.0,64.0
8463,73.0,1,40,6.0,64.0
8464,73.0,1,40,4.0,64.0
8465,68.0,8,40,7.0,64.0
8466,73.0,38,40,5.0,64.0
8467,71.0,51,360,7.0,64.0
8468,74.0,8,90,4.0,64.0
8469,74.0,55,90,6.0,64.0
8470,74.0,1,90,5.0,64.0
8471,54.0,1,40,10.0,64.0
8472,52.0,62,40,10.0,64.0
8473,54.0,2,40,10.0,64.0
8474,83.0,6,40,5.0,64.0
8475,83.0,51,40,6.0,64.0
8476,64.0,5,40,8.0,64.0
8477,83.0,3,40,4.0,64.0
8478,56.0,42,40,10.0,64.0
8479,64.0,0,90,8.0,64.0
8480,76.0,1,90,5.0,64.0
8481,76.0,9,90,4.0,64.0
8482,76.0,3,90,6.0,64.0
8483,54.0,13,40,10.0,64.0
8484,56.0,64,40,10.0,64.0
8485,52.0,1,40,10.0,64.0
8486,74.0,99,40,6.0,64.0
8487,68.0,0,40,8.0,64.0
8488,74.0,2,40,4.0,64.0
8489,74.0,1,40,5.0,64.0
8490,71.0,1,30,7.0,64.0
8491,64.0,2,90,8.0,64.0
8492,73.0,8,90,6.0,64.0
8493,73.0,114,120,4.0,64.0
8494,57.0,68,510,10.0,64.0
8495,69.0,6,90,7.0,64.0
8496,73.0,8,90,5.0,64.0
8497,69.0,1,40,6.0,64.0
8498,69.0,88,60,4.0,64.0
8499,61.0,1,40,7.0,64.0
8500,69.0,6,40,5.0,64.0
8501,69.0,0,40,8.0,64.0
8502,73.0,123,90,6.0,64.0
8503,64.0,1,90,7.0,64.0
8504,73.0,6,60,4.0,64.0
8505,69.0,3,90,8.0,64.0
8506,73.0,4,90,5.0,64.0
8507,76.0,8,40,4.0,64.0
8508,69.0,0,40,7.0,64.0
8509,76.0,51,40,6.0,64.0
8510,76.0,1,30,5.0,64.0
8511,67.0,1,40,8.0,64.0
8512,81.0,23,360,4.0,64.0
8513,74.0,8,330,7.0,64.0
8514,66.0,1,90,8.0,64.0
8515,81.0,3,300,6.0,64.0
8516,81.0,22,330,5.0,64.0
8517,55.0,56,40,10.0,64.0
8518,54.0,58,40,10.0,64.0
8519,55.0,8,40,10.0,64.0
8520,66.0,51,40,8.0,64.0
8521,57.0,39,40,10.0,64.0
8522,66.0,12,60,8.0,64.0
8523,55.0,9,40,10.0,64.0
8524,57.0,60,40,10.0,64.0
8525,54.0,2,40,10.0,64.0
8526,81.0,1,40,6.0,64.0
8527,64.0,4,40,8.0,64.0
8528,69.0,97,40,7.0,64.0
8529,81.0,1,30,4.0,64.0
8530,81.0,3,30,5.0,64.0
8531,81.0,4,300,6.0,64.0
8532,62.0,4,90,8.0,64.0
8533,66.0,126,90,7.0,64.0
8534,81.0,76,330,4.0,64.0
8535,59.0,52,510,10.0,64.0
8536,81.0,23,300,5.0,64.0
8537,74.0,11,40,7.0,64.0
8538,59.0,64,40,8.0,64.0
8539,74.0,4,90,7.0,64.0
8540,66.0,7,90,8.0,64.0
8541,71.0,1,40,6.0,64.0
8542,71.0,6,40,4.0,64.0
8543,71.0,9,40,5.0,64.0
8544,73.0,1,30,4.0,64.0
8545,73.0,18,30,6.0,64.0
8546,73.0,13,40,5.0,64.0
8547,74.0,6,40,4.0,64.0
8548,74.0,2,40,6.0,64.0
8549,62.0,0,40,8.0,64.0
8550,74.0,3,40,5.0,64.0
8551,73.0,9,30,7.0,64.0
8552,76.0,0,40,4.0,64.0
8553,76.0,10,40,6.0,64.0
8554,76.0,6,40,5.0,64.0
8555,78.0,3,40,4.0,64.0
8556,78.0,10,40,6.0,64.0
8557,78.0,12,40,5.0,64.0
8558,79.0,9,330,6.0,64.0
8559,79.0,35,360,4.0,64.0
8560,71.0,1,330,7.0,64.0
8561,62.0,13,90,8.0,64.0
8562,79.0,8,360,5.0,64.0
8563,60.0,53,40,10.0,64.0
8564,59.0,67,40,10.0,64.0
8565,57.0,6,40,10.0,64.0
8566,59.0,51,40,8.0,64.0
8567,55.0,46,40,10.0,64.0
8568,64.0,5,90,8.0,64.0
8569,54.0,21,40,10.0,64.0
8570,52.0,53,40,10.0,64.0
8571,50.0,104,60,10.0,64.0
8572,71.0,1,40,7.0,64.0
8573,79.0,1,30,6.0,64.0
8574,79.0,3,30,5.0,64.0
8575,64.0,1,40,8.0,64.0
8576,79.0,6,30,4.0,64.0
8577,79.0,24,330,6.0,64.0
8578,69.0,122,90,7.0,64.0
8579,79.0,9,300,5.0,64.0
8580,49.0,17,480,10.0,64.0
8581,79.0,44,360,4.0,64.0
8582,64.0,8,90,8.0,64.0
8583,69.0,4,40,8.0,64.0
8584,73.0,77,40,7.0,64.0
8585,69.0,17,90,8.0,64.0
8586,73.0,4,60,7.0,64.0
8587,78.0,22,40,5.0,64.0
8588,76.0,0,40,5.0,64.0
8589,78.0,10,40,4.0,64.0
8590,78.0,12,40,6.0,64.0
8591,76.0,0,40,4.0,64.0
8592,74.0,0,60,5.0,64.0
8593,76.0,16,30,6.0,64.0
8594,64.0,4,40,8.0,64.0
8595,73.0,3,40,5.0,64.0
8596,74.0,2,40,4.0,64.0
8597,76.0,3,40,7.0,64.0
8598,73.0,4,40,4.0,64.0
8599,74.0,2,40,6.0,64.0
8600,71.0,10,30,5.0,64.0
8601,71.0,13,30,4.0,64.0
8602,73.0,1,40,6.0,64.0
8603,76.0,4,90,7.0,64.0
8604,69.0,10,330,8.0,64.0
8605,71.0,55,40,6.0,64.0
8606,69.0,11,150,4.0,64.0
8607,69.0,9,120,5.0,64.0
8608,69.0,1,120,6.0,64.0
8609,50.0,43,40,10.0,64.0
8610,49.0,58,40,10.0,64.0
8611,47.0,9,40,10.0,64.0
8612,74.0,2,40,7.0,64.0
8613,67.0,3,30,5.0,64.0
8614,67.0,0,30,4.0,64.0
8615,67.0,11,40,6.0,64.0
8616,66.0,0,30,5.0,64.0
8617,66.0,4,30,4.0,64.0
8618,66.0,35,20,6.0,64.0
8619,76.0,15,60,7.0,64.0
8620,45.0,32,40,10.0,64.0
8621,67.0,5,90,5.0,64.0
8622,67.0,14,90,4.0,64.0
8623,67.0,40,90,6.0,64.0
8624,47.0,2,40,10.0,64.0
8625,49.0,52,40,10.0,64.0
8626,45.0,2,40,10.0,64.0
8627,76.0,2,40,5.0,64.0
8628,73.0,37,40,7.0,64.0
8629,76.0,1,30,4.0,64.0
8630,76.0,2,30,6.0,64.0
8631,69.0,10,40,8.0,64.0
8632,66.0,20,270,5.0,64.0
8633,66.0,12,240,6.0,64.0
8634,69.0,8,90,8.0,64.0
8635,66.0,0,270,4.0,64.0
8636,74.0,7,90,7.0,64.0
8637,50.0,22,510,10.0,64.0
8638,50.0,28,15,3.0,64.0
8639,50.0,23,15,3.0,64.0
8640,50.0,7,15,3.0,64.0
8641,50.0,27,15,3.0,64.0
8642,50.0,17,20,3.0,64.0
8643,50.0,49,15,3.0,64.0
8644,50.0,21,30,3.0,64.0
8645,69.0,8,30,7.0,64.0
8646,66.0,5,40,8.0,64.0
8647,86.0,4,40,0.0,64.0
8648,81.0,10,40,1.0,64.0
8649,78.0,1,40,2.0,64.0
8650,50.0,12,40,3.0,64.0
8651,69.0,0,90,7.0,64.0
8652,66.0,3,60,8.0,64.0
8653,86.0,2,60,0.0,64.0
8654,78.0,0,60,2.0,64.0
8655,81.0,8,60,1.0,64.0
8656,50.0,31,30,3.0,64.0
8657,67.0,5,30,6.0,64.0
8658,67.0,11,40,4.0,64.0
8659,67.0,44,40,5.0,64.0
8660,50.0,4,20,3.0,64.0
8661,69.0,10,40,6.0,64.0
8662,50.0,2,30,3.0,64.0
8663,69.0,9,40,4.0,64.0
8664,69.0,13,40,5.0,64.0
8665,50.0,19,15,3.0,64.0
8666,71.0,5,40,6.0,64.0
8667,62.0,3,40,8.0,64.0
8668,71.0,3,30,4.0,64.0
8669,66.0,1,30,7.0,64.0
8670,90.0,3,30,0.0,64.0
8671,86.0,1,40,1.0,64.0
8672,71.0,13,40,5.0,64.0
8673,81.0,0,30,2.0,64.0
8674,50.0,3,15,3.0,64.0
8675,50.0,20,15,3.0,64.0
8676,72.0,1,360,6.0,64.0
8677,57.0,3,90,8.0,64.0
8678,50.0,11,15,3.0,64.0
8679,66.0,6,60,7.0,64.0
8680,72.0,1,360,4.0,64.0
8681,86.0,2,60,1.0,64.0
8682,72.0,8,360,5.0,64.0
8683,90.0,16,60,0.0,64.0
8684,81.0,1,60,2.0,64.0
8685,50.0,15,15,3.0,64.0
8686,50.0,2,15,3.0,64.0
8687,52.0,29,40,10.0,64.0
8688,50.0,33,30,3.0,64.0
8689,50.0,13,40,10.0,64.0
8690,50.0,4,15,3.0,64.0
8691,50.0,33,15,3.0,64.0
8692,48.0,4,40,10.0,64.0
8693,62.0,2,40,8.0,64.0
8694,62.0,1,30,7.0,64.0
8695,86.0,1,30,2.0,64.0
8696,93.0,1,40,0.0,64.0
8697,90.0,6,30,1.0,64.0
8698,50.0,8,15,3.0,64.0
8699,50.0,30,20,3.0,64.0
8700,47.0,24,60,10.0,64.0
8701,66.0,3,60,8.0,64.0
8702,50.0,24,15,3.0,64.0
8703,93.0,1,60,0.0,64.0
8704,90.0,12,60,1.0,64.0
8705,62.0,20,330,7.0,64.0
8706,86.0,0,60,2.0,64.0
8707,50.0,5,15,3.0,64.0
8708,45.0,7,40,10.0,64.0
8709,50.0,2,15,3.0,64.0
8710,50.0,21,15,3.0,64.0
8711,43.0,32,40,10.0,64.0
8712,50.0,18,15,3.0,64.0
8713,50.0,11,15,3.0,64.0
8714,50.0,19,30,3.0,64.0
8715,69.0,24,40,8.0,64.0
8716,42.0,1,40,10.0,64.0
8717,74.0,0,30,5.0,64.0
8718,74.0,4,30,4.0,64.0
8719,74.0,2,40,6.0,64.0
8720,91.0,1,30,1.0,64.0
8721,95.0,2,30,0.0,64.0
8722,86.0,3,30,2.0,64.0
8723,50.0,36,20,3.0,64.0
8724,67.0,5,90,8.0,64.0
8725,71.0,5,270,4.0,64.0
8726,71.0,0,270,5.0,64.0
8727,71.0,3,270,6.0,64.0
8728,43.0,9,1200,10.0,64.0
8729,95.0,1,90,0.0,64.0
8730,86.0,7,90,2.0,64.0
8731,91.0,90,90,1.0,64.0
8732,50.0,39,20,3.0,64.0
8733,66.0,5,40,7.0,64.0
8734,62.0,19,40,8.0,64.0
8735,50.0,14,15,3.0,64.0
8736,50.0,10,15,3.0,64.0
8737,50.0,21,20,3.0,64.0
8738,67.0,9,90,7.0,64.0
8739,64.0,4,90,8.0,64.0
8740,50.0,44,20,3.0,64.0
8741,69.0,7,40,6.0,64.0
8742,69.0,46,40,4.0,64.0
8743,69.0,1,40,5.0,64.0
8744,67.0,3,30,6.0,64.0
8745,67.0,47,40,5.0,64.0
8746,67.0,4,30,4.0,64.0
8747,66.0,1,40,6.0,64.0
8748,66.0,10,40,5.0,64.0
8749,66.0,0,40,4.0,64.0
8750,66.0,51,40,8.0,64.0
8751,50.0,11,20,3.0,64.0
8752,69.0,1,40,7.0,64.0
8753,64.0,0,60,6.0,64.0
8754,64.0,37,60,5.0,64.0
8755,64.0,5,40,4.0,64.0
8756,71.0,0,90,7.0,64.0
8757,67.0,0,90,8.0,64.0
8758,50.0,5,30,3.0,64.0
8759,95.0,8,90,1.0,64.0
8760,91.0,3,90,0.0,64.0
8761,88.0,4,60,2.0,64.0
8762,66.0,0,40,4.0,64.0
8763,66.0,58,40,5.0,64.0
8764,66.0,4,40,6.0,64.0
8765,67.0,8,40,6.0,64.0
8766,67.0,2,40,4.0,64.0
8767,67.0,49,60,5.0,64.0
8768,69.0,1,40,4.0,64.0
8769,69.0,4,40,6.0,64.0
8770,69.0,7,40,5.0,64.0
8771,73.0,1,60,7.0,64.0
8772,64.0,50,40,8.0,64.0
8773,71.0,8,40,6.0,64.0
8774,71.0,1,60,4.0,64.0
8775,74.0,15,90,7.0,64.0
8776,71.0,27,40,5.0,64.0
8777,66.0,13,90,8.0,64.0
8778,73.0,52,40,4.0,64.0
8779,73.0,2,40,6.0,64.0
8780,73.0,0,40,5.0,64.0
8781,74.0,1,40,6.0,64.0
8782,74.0,5,40,4.0,64.0
8783,74.0,60,40,5.0,64.0
8784,71.0,1,60,6.0,64.0
8785,76.0,2,60,7.0,64.0
8786,71.0,1,60,4.0,64.0
8787,67.0,0,60,8.0,64.0
8788,71.0,44,60,5.0,64.0
8789,73.0,1,40,4.0,64.0
8790,73.0,1,40,6.0,64.0
8791,73.0,5,40,5.0,64.0
8792,64.0,9,90,8.0,64.0
8793,69.0,1,90,7.0,64.0
8794,45.0,13,20,3.0,64.0
8795,45.0,28,15,3.0,64.0
8796,74.0,6,40,4.0,64.0
8797,74.0,25,60,6.0,64.0
8798,74.0,1,40,5.0,64.0
8799,45.0,5,20,3.0,64.0
8800,45.0,6,15,3.0,64.0
8801,73.0,0,40,4.0,64.0
8802,45.0,26,15,3.0,64.0
8803,73.0,21,40,6.0,64.0
8804,73.0,5,40,5.0,64.0
8805,45.0,3,20,3.0,64.0
8806,45.0,23,20,3.0,64.0
8807,71.0,1,40,4.0,64.0
8808,81.0,3,30,2.0,64.0
8809,71.0,1,40,6.0,64.0
8810,71.0,3,40,5.0,64.0
8811,64.0,3,40,7.0,64.0
8812,76.0,1,30,0.0,64.0
8813,81.0,4,40,1.0,64.0
8814,69.0,17,40,8.0,64.0
8815,45.0,1,20,3.0,64.0
8816,45.0,14,20,3.0,64.0
8817,69.0,1,60,4.0,64.0
8818,69.0,3,40,6.0,64.0
8819,69.0,4,60,5.0,64.0
8820,61.0,0,60,7.0,64.0
8821,81.0,17,60,2.0,64.0
8822,76.0,0,60,0.0,64.0
8823,69.0,11,60,8.0,64.0
8824,45.0,19,20,3.0,64.0
8825,81.0,2,60,1.0,64.0
8826,45.0,12,40,3.0,64.0
8827,71.0,7,40,4.0,64.0
8828,71.0,2,40,6.0,64.0
8829,71.0,1,60,5.0,64.0
8830,42.0,7,30,10.0,64.0
8831,45.0,43,20,3.0,64.0
8832,73.0,0,40,6.0,64.0
8833,40.0,1,40,10.0,64.0
8834,45.0,8,40,3.0,64.0
8835,73.0,3,40,4.0,64.0
8836,73.0,32,40,5.0,64.0
8837,45.0,11,40,3.0,64.0
8838,74.0,1,60,6.0,64.0
8839,38.0,5,40,10.0,64.0
8840,64.0,1,40,8.0,64.0
8841,81.0,2,30,2.0,64.0
8842,74.0,18,40,4.0,64.0
8843,81.0,0,30,0.0,64.0
8844,74.0,1,40,5.0,64.0
8845,57.0,5,40,7.0,64.0
8846,88.0,0,40,1.0,64.0
8847,45.0,32,30,3.0,64.0
8848,76.0,6,40,6.0,64.0
8849,37.0,11,90,10.0,64.0
8850,76.0,2,40,4.0,64.0
8851,64.0,0,60,8.0,64.0
8852,69.0,2,60,7.0,64.0
8853,81.0,5,60,0.0,64.0
8854,81.0,7,60,2.0,64.0
8855,88.0,2,60,1.0,64.0
8856,76.0,9,40,5.0,64.0
8857,45.0,7,30,3.0,64.0
8858,78.0,13,40,6.0,64.0
8859,78.0,42,40,4.0,64.0
8860,78.0,2,40,5.0,64.0
8861,79.0,14,40,6.0,64.0
8862,79.0,38,40,4.0,64.0
8863,79.0,2,40,5.0,64.0
8864,81.0,4,40,6.0,64.0
8865,61.0,4,40,8.0,64.0
8866,45.0,3,40,10.0,64.0
8867,78.0,0,40,2.0,64.0
8868,66.0,0,40,7.0,64.0
8869,45.0,0,30,3.0,64.0
8870,81.0,0,40,4.0,64.0
8871,90.0,1,30,1.0,64.0
8872,83.0,0,30,0.0,64.0
8873,81.0,28,30,5.0,64.0
8874,45.0,28,20,3.0,64.0
8875,79.0,6,40,6.0,64.0
8876,62.0,1,60,7.0,64.0
8877,47.0,0,90,10.0,64.0
8878,62.0,6,60,8.0,64.0
8879,79.0,10,40,4.0,64.0
8880,90.0,5,60,1.0,64.0
8881,79.0,8,40,5.0,64.0
8882,79.0,8,60,0.0,64.0
8883,74.0,3,60,2.0,64.0
8884,50.0,0,40,3.0,64.0
8885,78.0,11,40,6.0,64.0
8886,78.0,4,40,4.0,64.0
8887,78.0,46,30,5.0,64.0
8888,79.0,7,40,6.0,64.0
8889,79.0,3,40,4.0,64.0
8890,79.0,44,30,5.0,64.0
8891,76.0,1,30,6.0,64.0
8892,69.0,5,30,7.0,64.0
8893,64.0,1,40,8.0,64.0
8894,81.0,1,30,0.0,64.0
8895,88.0,0,30,1.0,64.0
8896,76.0,0,30,4.0,64.0
8897,49.0,3,30,10.0,64.0
8898,81.0,4,30,2.0,64.0
8899,76.0,1,30,5.0,64.0
8900,45.0,66,30,3.0,64.0
8901,69.0,12,90,7.0,64.0
8902,78.0,60,150,6.0,64.0
8903,78.0,3,90,0.0,64.0
8904,50.0,32,90,10.0,64.0
8905,57.0,4,60,8.0,64.0
8906,86.0,2,60,1.0,64.0
8907,78.0,2,120,4.0,64.0
8908,81.0,4,60,2.0,64.0
8909,50.0,23,40,3.0,64.0
8910,78.0,3,120,5.0,64.0
8911,76.0,2,30,6.0,64.0
8912,76.0,2,30,4.0,64.0
8913,64.0,1,40,8.0,64.0
8914,81.0,2,40,1.0,64.0
8915,76.0,12,20,5.0,64.0
8916,67.0,2,40,7.0,64.0
8917,52.0,0,40,10.0,64.0
8918,79.0,6,40,0.0,64.0
8919,81.0,1,30,2.0,64.0
8920,45.0,0,30,3.0,64.0
8921,74.0,3,30,6.0,64.0
8922,74.0,15,30,4.0,64.0
8923,74.0,0,30,5.0,64.0
8924,73.0,9,20,4.0,64.0
8925,73.0,1,20,5.0,64.0
8926,73.0,26,30,6.0,64.0
8927,62.0,15,60,8.0,64.0
8928,69.0,6,90,7.0,64.0
8929,50.0,26,40,3.0,64.0
8930,86.0,4,60,1.0,64.0
8931,81.0,7,60,2.0,64.0
8932,54.0,1,90,10.0,64.0
8933,78.0,16,90,0.0,64.0
8934,74.0,1,90,5.0,64.0
8935,74.0,97,90,4.0,64.0
8936,74.0,0,90,6.0,64.0
8937,67.0,1,40,8.0,64.0
8938,71.0,1,30,4.0,64.0
8939,81.0,1,30,2.0,64.0
8940,81.0,4,30,1.0,64.0
8941,50.0,1,30,3.0,64.0
8942,71.0,2,30,5.0,64.0
8943,76.0,1,40,0.0,64.0
8944,71.0,2,30,7.0,64.0
8945,55.0,1,30,10.0,64.0
8946,71.0,58,30,6.0,64.0
8947,74.0,2,90,4.0,64.0
8948,66.0,1,60,8.0,64.0
8949,81.0,2,90,1.0,64.0
8950,78.0,7,60,0.0,64.0
8951,45.0,36,30,3.0,64.0
8952,81.0,7,330,2.0,64.0
8953,74.0,4,60,5.0,64.0
8954,74.0,4,90,6.0,64.0
8955,57.0,1,120,10.0,64.0
8956,69.0,8,150,7.0,64.0
8957,76.0,4,30,0.0,64.0
8958,64.0,11,30,8.0,64.0
8959,73.0,1,40,4.0,64.0
8960,73.0,9,30,6.0,64.0
8961,73.0,3,30,5.0,64.0
8962,78.0,2,30,0.0,64.0
8963,66.0,14,30,8.0,64.0
8964,74.0,1,30,6.0,64.0
8965,74.0,2,30,5.0,64.0
8966,74.0,1,30,4.0,64.0
8967,64.0,5,20,8.0,64.0
8968,76.0,2,15,0.0,64.0
8969,45.0,9,20,3.0,64.0
8970,73.0,3,20,6.0,64.0
8971,73.0,1,20,5.0,64.0
8972,73.0,1,20,4.0,64.0
8973,78.0,3,20,0.0,64.0
8974,66.0,2,20,8.0,64.0
8975,74.0,3,20,6.0,64.0
8976,74.0,4,20,5.0,64.0
8977,76.0,4,20,0.0,64.0
8978,64.0,8,30,8.0,64.0
8979,74.0,3,20,4.0,64.0
8980,73.0,3,20,6.0,64.0
8981,78.0,0,40,1.0,64.0
8982,73.0,3,20,5.0,64.0
8983,45.0,7,30,3.0,64.0
8984,78.0,0,20,0.0,64.0
8985,66.0,4,20,8.0,64.0
8986,73.0,1,20,4.0,64.0
8987,74.0,2,20,6.0,64.0
8988,74.0,6,20,5.0,64.0
8989,76.0,13,20,0.0,64.0
8990,64.0,1,20,8.0,64.0
8991,74.0,0,20,4.0,64.0
8992,73.0,1,20,6.0,64.0
8993,73.0,5,20,5.0,64.0
8994,66.0,2,20,8.0,64.0
8995,73.0,1,20,4.0,64.0
8996,78.0,12,20,0.0,64.0
8997,74.0,6,20,6.0,64.0
8998,74.0,0,20,5.0,64.0
8999,64.0,15,90,8.0,64.0
9000,76.0,5,90,0.0,64.0
9001,74.0,19,20,4.0,64.0
9002,69.0,50,150,7.0,64.0
9003,45.0,39,30,3.0,64.0
9004,73.0,2,120,6.0,64.0
9005,81.0,8,60,1.0,64.0
9006,73.0,8,90,5.0,64.0
9007,45.0,9,120,10.0,64.0
9008,73.0,13,120,4.0,64.0
9009,66.0,1,30,8.0,64.0
9010,74.0,12,30,0.0,64.0
9011,74.0,4,40,6.0,64.0
9012,74.0,7,40,4.0,64.0
9013,45.0,1,30,3.0,64.0
9014,81.0,67,40,1.0,64.0
9015,81.0,0,30,2.0,64.0
9016,74.0,2,20,5.0,64.0
9017,69.0,2,120,7.0,64.0
9018,50.0,3,40,3.0,64.0
9019,74.0,1,90,0.0,64.0
9020,66.0,3,90,8.0,64.0
9021,81.0,8,90,2.0,64.0
9022,78.0,12,90,1.0,64.0
9023,74.0,13,40,6.0,64.0
9024,38.0,12,90,10.0,64.0
9025,74.0,65,120,5.0,64.0
9026,74.0,21,40,4.0,64.0
9027,69.0,50,60,6.0,64.0
9028,69.0,2,40,4.0,64.0
9029,71.0,1,60,6.0,64.0
9030,71.0,62,40,4.0,64.0
9031,73.0,113,60,6.0,64.0
9032,73.0,4,60,4.0,64.0
9033,73.0,2,40,4.0,64.0
9034,73.0,41,60,6.0,64.0
9035,74.0,83,40,6.0,64.0
9036,74.0,2,40,4.0,64.0
9037,76.0,109,60,6.0,64.0
9038,76.0,0,60,4.0,64.0
9039,73.0,1,40,4.0,64.0
9040,73.0,51,40,6.0,64.0
9041,74.0,3,40,4.0,64.0
9042,74.0,67,40,6.0,64.0
9043,76.0,107,60,6.0,64.0
9044,76.0,9,60,4.0,64.0
9045,76.0,34,60,4.0,64.0
9046,76.0,6,40,6.0,64.0
9047,78.0,4,40,4.0,64.0
9048,78.0,77,40,6.0,64.0
9049,79.0,105,60,6.0,64.0
9050,79.0,9,60,4.0,64.0
9051,79.0,7,40,6.0,64.0
9052,79.0,35,60,4.0,64.0
9053,78.0,5,40,6.0,64.0
9054,78.0,78,40,4.0,64.0
9055,79.0,104,60,6.0,64.0
9056,79.0,6,60,4.0,64.0
9057,81.0,14,40,6.0,64.0
9058,81.0,34,60,4.0,64.0
9059,79.0,71,40,4.0,64.0
9060,79.0,4,40,6.0,64.0
9061,78.0,113,60,6.0,64.0
9062,78.0,3,40,4.0,64.0
9063,62.0,3,60,5.0,64.0
9064,81.0,1,40,6.0,64.0
9065,62.0,44,60,7.0,64.0
9066,81.0,8,40,4.0,64.0
9067,64.0,5,60,5.0,64.0
9068,64.0,62,60,7.0,64.0
9069,66.0,114,60,5.0,64.0
9070,66.0,7,60,7.0,64.0
9071,74.0,5,40,6.0,64.0
9072,74.0,1,40,4.0,64.0
9073,66.0,6,40,7.0,64.0
9074,78.0,4,180,6.0,64.0
9075,78.0,19,150,4.0,64.0
9076,66.0,35,60,5.0,64.0
9077,67.0,12,40,7.0,64.0
9078,67.0,60,40,5.0,64.0
9079,69.0,0,60,7.0,64.0
9080,69.0,100,60,5.0,64.0
9081,66.0,48,60,7.0,64.0
9082,81.0,0,40,4.0,64.0
9083,66.0,6,40,5.0,64.0
9084,81.0,1,40,6.0,64.0
9085,67.0,13,40,5.0,64.0
9086,67.0,57,60,7.0,64.0
9087,69.0,110,60,5.0,64.0
9088,69.0,0,60,7.0,64.0
9089,72.0,7,60,4.0,64.0
9090,72.0,10,40,6.0,64.0
9091,69.0,41,60,5.0,64.0
9092,78.0,9,180,6.0,64.0
9093,69.0,3,40,7.0,64.0
9094,78.0,11,150,4.0,64.0
9095,71.0,4,40,7.0,64.0
9096,71.0,59,40,5.0,64.0
9097,72.0,0,60,7.0,64.0
9098,72.0,104,60,5.0,64.0
9099,81.0,3,60,6.0,64.0
9100,72.0,3,40,7.0,64.0
9101,81.0,9,40,4.0,64.0
9102,72.0,32,60,5.0,64.0
9103,71.0,73,60,7.0,64.0
9104,71.0,6,40,5.0,64.0
9105,72.0,108,60,7.0,64.0
9106,72.0,2,60,5.0,64.0
9107,74.0,6,60,4.0,64.0
9108,74.0,0,60,6.0,64.0
9109,74.0,3,60,7.0,64.0
9110,78.0,0,60,4.0,64.0
9111,74.0,8,60,5.0,64.0
9112,78.0,40,60,6.0,64.0
9113,72.0,68,40,7.0,64.0
9114,72.0,0,40,5.0,64.0
9115,71.0,105,60,7.0,64.0
9116,79.0,2,40,4.0,64.0
9117,71.0,2,60,5.0,64.0
9118,79.0,11,40,6.0,64.0
9119,83.0,3,40,4.0,64.0
9120,67.0,4,60,7.0,64.0
9121,83.0,6,40,6.0,64.0
9122,67.0,47,60,5.0,64.0
9123,69.0,4,60,7.0,64.0
9124,69.0,58,60,5.0,64.0
9125,71.0,10,60,7.0,64.0
9126,71.0,115,60,5.0,64.0
9127,74.0,4,40,4.0,64.0
9128,74.0,4,40,6.0,64.0
9129,71.0,39,60,5.0,64.0
9130,71.0,1,60,7.0,64.0
9131,80.0,7,180,4.0,64.0
9132,80.0,0,180,6.0,64.0
9133,73.0,0,60,5.0,64.0
9134,73.0,69,60,7.0,64.0
9135,74.0,15,60,7.0,64.0
9136,74.0,93,60,5.0,64.0
9137,74.0,2,60,7.0,64.0
9138,83.0,8,40,6.0,64.0
9139,74.0,35,60,5.0,64.0
9140,83.0,1,40,4.0,64.0
9141,73.0,3,40,7.0,64.0
9142,73.0,73,40,5.0,64.0
9143,74.0,9,60,7.0,64.0
9144,74.0,99,60,5.0,64.0
9145,76.0,4,60,6.0,64.0
9146,76.0,1,60,4.0,64.0
9147,76.0,3,60,7.0,64.0
9148,76.0,36,60,5.0,64.0
9149,80.0,8,40,4.0,64.0
9150,80.0,7,60,6.0,64.0
9151,74.0,3,40,7.0,64.0
9152,74.0,68,40,5.0,64.0
9153,73.0,11,60,7.0,64.0
9154,81.0,2,60,4.0,64.0
9155,73.0,5,60,5.0,64.0
9156,81.0,36,60,6.0,64.0
9157,76.0,1,40,4.0,64.0
9158,76.0,61,40,6.0,64.0
9159,73.0,0,40,4.0,64.0
9160,76.0,2,60,7.0,64.0
9161,76.0,3,40,5.0,64.0
9162,73.0,6,40,6.0,64.0
9163,57.0,47,40,8.0,64.0
9164,74.0,1,60,4.0,64.0
9165,59.0,0,60,8.0,64.0
9166,74.0,53,60,6.0,64.0
9167,76.0,5,60,4.0,64.0
9168,61.0,45,60,8.0,64.0
9169,69.0,7,40,5.0,64.0
9170,76.0,10,60,6.0,64.0
9171,69.0,1,40,7.0,64.0
9172,78.0,3,60,4.0,64.0
9173,78.0,66,60,6.0,64.0
9174,76.0,25,60,4.0,64.0
9175,76.0,7,60,6.0,64.0
9176,61.0,4,60,8.0,64.0
9177,73.0,10,180,7.0,64.0
9178,73.0,3,180,5.0,64.0
9179,62.0,8,40,8.0,64.0
9180,78.0,3,60,4.0,64.0
9181,78.0,65,40,6.0,64.0
9182,64.0,36,60,8.0,64.0
9183,79.0,1,60,4.0,64.0
9184,79.0,2,60,6.0,64.0
9185,76.0,57,60,4.0,64.0
9186,76.0,5,40,6.0,64.0
9187,69.0,9,60,6.0,64.0
9188,69.0,29,60,4.0,64.0
9189,76.0,6,40,5.0,64.0
9190,76.0,7,40,7.0,64.0
9191,61.0,3,60,8.0,64.0
9192,62.0,7,40,8.0,64.0
9193,71.0,2,40,6.0,64.0
9194,71.0,58,40,4.0,64.0
9195,64.0,6,60,8.0,64.0
9196,73.0,39,60,6.0,64.0
9197,73.0,1,60,4.0,64.0
9198,67.0,8,40,5.0,64.0
9199,67.0,1,40,7.0,64.0
9200,74.0,64,60,6.0,64.0
9201,74.0,1,40,4.0,64.0
9202,73.0,5,60,6.0,64.0
9203,73.0,14,60,4.0,64.0
9204,73.0,6,180,5.0,64.0
9205,64.0,30,60,8.0,64.0
9206,73.0,32,180,7.0,64.0
9207,74.0,67,60,6.0,64.0
9208,74.0,9,40,4.0,64.0
9209,66.0,3,40,8.0,64.0
9210,76.0,3,60,4.0,64.0
9211,76.0,11,60,6.0,64.0
9212,67.0,5,60,8.0,64.0
9213,74.0,1,60,4.0,64.0
9214,74.0,56,60,6.0,64.0
9215,73.0,3,60,4.0,64.0
9216,73.0,6,60,6.0,64.0
9217,76.0,3,60,5.0,64.0
9218,76.0,0,40,7.0,64.0
9219,67.0,35,60,8.0,64.0
9220,66.0,73,60,8.0,64.0
9221,74.0,3,40,6.0,64.0
9222,74.0,1,60,4.0,64.0
9223,69.0,1,60,5.0,64.0
9224,76.0,2,60,6.0,64.0
9225,67.0,4,60,8.0,64.0
9226,76.0,1,60,4.0,64.0
9227,69.0,54,60,7.0,64.0
9228,74.0,38,60,6.0,64.0
9229,74.0,3,60,4.0,64.0
9230,73.0,0,60,6.0,64.0
9231,73.0,12,60,4.0,64.0
9232,73.0,9,40,5.0,64.0
9233,69.0,37,60,8.0,64.0
9234,73.0,9,40,7.0,64.0
9235,71.0,6,60,6.0,64.0
9236,71.0,45,60,4.0,64.0
9237,67.0,8,60,8.0,64.0
9238,69.0,0,60,6.0,64.0
9239,66.0,10,40,8.0,64.0
9240,69.0,37,60,4.0,64.0
9241,74.0,5,60,5.0,64.0
9242,74.0,2,60,7.0,64.0
9243,69.0,2,40,5.0,64.0
9244,74.0,31,90,4.0,64.0
9245,74.0,2,60,6.0,64.0
9246,69.0,33,40,7.0,64.0
9247,66.0,0,60,5.0,64.0
9248,73.0,24,90,4.0,64.0
9249,73.0,1,60,6.0,64.0
9250,66.0,14,60,7.0,64.0
9251,69.0,2,40,8.0,64.0
9252,50.0,6,60,10.0,64.0
9253,67.0,2,40,5.0,64.0
9254,71.0,4,60,6.0,64.0
9255,71.0,53,60,4.0,64.0
9256,67.0,8,40,7.0,64.0
9257,52.0,3,60,10.0,64.0
9258,69.0,3,60,6.0,64.0
9259,69.0,6,60,5.0,64.0
9260,69.0,3,60,7.0,64.0
9261,69.0,12,60,4.0,64.0
9262,54.0,21,60,10.0,64.0
9263,62.0,0,40,8.0,64.0
9264,71.0,8,40,5.0,64.0
9265,67.0,13,60,6.0,64.0
9266,67.0,38,60,4.0,64.0
9267,71.0,9,40,7.0,64.0
9268,66.0,8,40,6.0,64.0
9269,69.0,4,60,5.0,64.0
9270,69.0,2,60,7.0,64.0
9271,66.0,2,60,4.0,64.0
9272,54.0,28,60,10.0,64.0
9273,66.0,5,180,8.0,64.0
9274,64.0,7,40,6.0,64.0
9275,71.0,1,40,5.0,64.0
9276,71.0,2,40,7.0,64.0
9277,64.0,2,40,4.0,64.0
9278,55.0,77,40,10.0,64.0
9279,72.0,6,60,5.0,64.0
9280,57.0,9,60,10.0,64.0
9281,62.0,1,90,6.0,64.0
9282,72.0,0,60,7.0,64.0
9283,62.0,14,60,4.0,64.0
9284,69.0,4,40,5.0,64.0
9285,69.0,77,40,7.0,64.0
9286,62.0,0,60,7.0,64.0
9287,62.0,9,60,5.0,64.0
9288,54.0,6,60,10.0,64.0
9289,86.0,3,90,0.0,64.0
9290,69.0,30,60,8.0,64.0
9291,74.0,59,90,6.0,64.0
9292,74.0,0,90,4.0,64.0
9293,64.0,6,40,7.0,64.0
9294,55.0,6,60,10.0,64.0
9295,64.0,5,40,5.0,64.0
9296,66.0,5,60,7.0,64.0
9297,66.0,2,60,5.0,64.0
9298,57.0,16,90,10.0,64.0
9299,86.0,6,90,0.0,64.0
9300,60.0,18,40,8.0,64.0
9301,74.0,1,90,6.0,64.0
9302,74.0,55,90,4.0,64.0
9303,67.0,10,40,7.0,64.0
9304,67.0,0,60,5.0,64.0
9305,66.0,2,60,7.0,64.0
9306,66.0,27,60,5.0,64.0
9307,86.0,4,90,0.0,64.0
9308,74.0,7,90,6.0,64.0
9309,74.0,1,90,4.0,64.0
9310,57.0,26,60,10.0,64.0
9311,66.0,9,150,8.0,64.0
9312,67.0,3,60,7.0,64.0
9313,67.0,0,40,5.0,64.0
9314,59.0,62,60,10.0,64.0
9315,69.0,22,90,7.0,64.0
9316,69.0,9,60,5.0,64.0
9317,60.0,8,60,10.0,64.0
9318,86.0,7,90,0.0,64.0
9319,74.0,2,90,6.0,64.0
9320,74.0,1,90,4.0,64.0
9321,67.0,17,60,5.0,64.0
9322,67.0,35,60,7.0,64.0
9323,66.0,6,60,5.0,64.0
9324,69.0,4,40,8.0,64.0
9325,66.0,5,60,7.0,64.0
9326,86.0,3,90,1.0,64.0
9327,90.0,0,90,0.0,64.0
9328,74.0,6,90,6.0,64.0
9329,50.0,12,40,3.0,64.0
9330,81.0,1,90,2.0,64.0
9331,60.0,24,60,10.0,64.0
9332,74.0,3,90,4.0,64.0
9333,67.0,9,40,5.0,64.0
9334,59.0,1,40,10.0,64.0
9335,67.0,50,60,7.0,64.0
9336,60.0,2,60,10.0,64.0
9337,74.0,7,90,6.0,64.0
9338,62.0,2,60,8.0,64.0
9339,86.0,1,90,1.0,64.0
9340,81.0,13,60,2.0,64.0
9341,74.0,4,90,4.0,64.0
9342,90.0,17,90,0.0,64.0
9343,69.0,12,60,5.0,64.0
9344,69.0,4,60,7.0,64.0
9345,50.0,13,40,3.0,64.0
9346,67.0,19,60,5.0,64.0
9347,67.0,27,90,7.0,64.0
9348,66.0,6,60,7.0,64.0
9349,66.0,10,60,5.0,64.0
9350,66.0,3,60,8.0,64.0
9351,74.0,0,90,4.0,64.0
9352,74.0,10,90,6.0,64.0
9353,78.0,2,90,2.0,64.0
9354,86.0,3,90,1.0,64.0
9355,62.0,16,60,10.0,64.0
9356,50.0,4,40,3.0,64.0
9357,93.0,4,60,0.0,64.0
9358,60.0,1,40,10.0,64.0
9359,64.0,67,40,5.0,64.0
9360,64.0,1,40,7.0,64.0
9361,74.0,11,90,6.0,64.0
9362,74.0,21,90,4.0,64.0
9363,67.0,9,60,8.0,64.0
9364,62.0,2,60,7.0,64.0
9365,62.0,5,60,5.0,64.0
9366,59.0,4,60,10.0,64.0
9367,74.0,0,150,2.0,64.0
9368,86.0,14,150,1.0,64.0
9369,50.0,2,40,3.0,64.0
9370,91.0,22,120,0.0,64.0
9371,71.0,21,60,8.0,64.0
9372,76.0,1,90,6.0,64.0
9373,68.0,5,40,8.0,64.0
9374,76.0,6,90,4.0,64.0
9375,71.0,1,40,5.0,64.0
9376,52.0,26,60,10.0,64.0
9377,71.0,19,40,7.0,64.0
9378,54.0,12,40,10.0,64.0
9379,69.0,51,60,8.0,64.0
9380,76.0,3,90,6.0,64.0
9381,56.0,1,60,10.0,64.0
9382,76.0,4,90,4.0,64.0
9383,71.0,31,60,8.0,64.0
9384,64.0,10,40,5.0,64.0
9385,64.0,10,40,7.0,64.0
9386,73.0,69,40,8.0,64.0
9387,71.0,10,60,8.0,64.0
9388,76.0,3,90,6.0,64.0
9389,68.0,5,180,5.0,64.0
9390,76.0,7,90,4.0,64.0
9391,56.0,27,60,10.0,64.0
9392,68.0,5,180,7.0,64.0
9393,73.0,4,40,8.0,64.0
9394,57.0,67,40,10.0,64.0
9395,76.0,0,90,6.0,64.0
9396,74.0,10,60,8.0,64.0
9397,76.0,72,90,4.0,64.0
9398,59.0,19,60,10.0,64.0
9399,71.0,3,40,8.0,64.0
9400,64.0,3,60,8.0,64.0
9401,76.0,0,90,4.0,64.0
9402,56.0,3,40,10.0,64.0
9403,76.0,1,90,6.0,64.0
9404,71.0,9,60,7.0,64.0
9405,88.0,66,90,0.0,64.0
9406,71.0,33,60,5.0,64.0
9407,66.0,1,60,8.0,64.0
9408,57.0,2,40,10.0,64.0
9409,68.0,11,60,8.0,64.0
9410,59.0,31,60,10.0,64.0
9411,88.0,57,90,0.0,64.0
9412,76.0,5,90,6.0,64.0
9413,76.0,5,90,4.0,64.0
9414,62.0,0,40,7.0,64.0
9415,62.0,3,40,5.0,64.0
9416,69.0,0,60,8.0,64.0
9417,68.0,33,40,8.0,64.0
9418,76.0,4,90,6.0,64.0
9419,76.0,7,90,4.0,64.0
9420,59.0,14,60,10.0,64.0
9421,68.0,3,180,7.0,64.0
9422,88.0,3,90,0.0,64.0
9423,68.0,10,180,5.0,64.0
9424,69.0,1,40,8.0,64.0
9425,61.0,82,40,10.0,64.0
9426,71.0,3,60,8.0,64.0
9427,62.0,12,90,10.0,64.0
9428,88.0,62,120,0.0,64.0
9429,76.0,3,90,6.0,64.0
9430,76.0,11,90,4.0,64.0
9431,69.0,2,40,8.0,64.0
9432,68.0,3,60,8.0,64.0
9433,62.0,23,60,10.0,64.0
9434,76.0,2,90,6.0,64.0
9435,71.0,8,60,7.0,64.0
9436,71.0,1,40,5.0,64.0
9437,92.0,1,90,0.0,64.0
9438,74.0,6,90,2.0,64.0
9439,76.0,5,90,4.0,64.0
9440,50.0,3,40,3.0,64.0
9441,88.0,0,90,1.0,64.0
9442,61.0,4,60,10.0,64.0
9443,69.0,65,60,8.0,64.0
9444,62.0,7,90,10.0,64.0
9445,76.0,3,90,6.0,64.0
9446,71.0,12,60,8.0,64.0
9447,76.0,1,90,4.0,64.0
9448,64.0,8,60,5.0,64.0
9449,64.0,5,40,7.0,64.0
9450,92.0,7,90,0.0,64.0
9451,74.0,10,90,2.0,64.0
9452,50.0,2,40,3.0,64.0
9453,88.0,4,90,1.0,64.0
9454,69.0,47,60,8.0,64.0
9455,68.0,11,60,8.0,64.0
9456,76.0,4,90,6.0,64.0
9457,64.0,6,60,10.0,64.0
9458,76.0,9,90,4.0,64.0
9459,68.0,15,40,5.0,64.0
9460,68.0,0,40,7.0,64.0
9461,95.0,1,90,0.0,64.0
9462,74.0,12,90,2.0,64.0
9463,50.0,8,40,3.0,64.0
9464,88.0,1,60,1.0,64.0
9465,62.0,5,60,10.0,64.0
9466,66.0,69,60,8.0,64.0
9467,76.0,12,60,6.0,64.0
9468,61.0,11,60,10.0,64.0
9469,69.0,2,60,7.0,64.0
9470,76.0,0,60,4.0,64.0
9471,69.0,1,60,5.0,64.0
9472,64.0,41,240,8.0,64.0
9473,81.0,1,150,2.0,64.0
9474,93.0,19,120,0.0,64.0
9475,88.0,22,120,1.0,64.0
9476,45.0,11,60,3.0,64.0
9477,81.0,6,40,7.0,64.0
9478,81.0,27,40,5.0,64.0
9479,69.0,8,60,6.0,64.0
9480,73.0,3,60,7.0,64.0
9481,73.0,25,60,5.0,64.0
9482,69.0,5,60,4.0,64.0
9483,64.0,0,40,10.0,64.0
9484,71.0,2,40,6.0,64.0
9485,71.0,7,40,4.0,64.0
9486,74.0,4,40,5.0,64.0
9487,74.0,30,40,7.0,64.0
9488,73.0,5,60,6.0,64.0
9489,73.0,3,60,4.0,64.0
9490,76.0,1,60,7.0,64.0
9491,76.0,30,60,5.0,64.0
9492,57.0,4,40,10.0,64.0
9493,78.0,3,40,7.0,64.0
9494,78.0,71,40,5.0,64.0
9495,76.0,5,60,7.0,64.0
9496,69.0,3,90,8.0,64.0
9497,76.0,24,60,5.0,64.0
9498,61.0,7,180,10.0,64.0
9499,73.0,0,60,6.0,64.0
9500,73.0,11,60,4.0,64.0
9501,78.0,2,40,5.0,64.0
9502,78.0,1,40,7.0,64.0
9503,74.0,70,40,4.0,64.0
9504,74.0,7,40,6.0,64.0
9505,69.0,12,120,8.0,64.0
9506,79.0,2,60,7.0,64.0
9507,79.0,3,60,5.0,64.0
9508,76.0,4,60,4.0,64.0
9509,76.0,27,60,6.0,64.0
9510,76.0,0,40,7.0,64.0
9511,76.0,60,60,5.0,64.0
9512,69.0,3,60,7.0,64.0
9513,69.0,32,60,5.0,64.0
9514,64.0,4,60,10.0,64.0
9515,73.0,2,60,6.0,64.0
9516,69.0,9,90,8.0,64.0
9517,73.0,2,40,4.0,64.0
9518,71.0,1,60,7.0,64.0
9519,71.0,0,60,5.0,64.0
9520,74.0,62,60,4.0,64.0
9521,74.0,8,40,6.0,64.0
9522,73.0,1,60,7.0,64.0
9523,69.0,10,90,8.0,64.0
9524,73.0,37,60,5.0,64.0
9525,76.0,4,60,6.0,64.0
9526,76.0,4,60,4.0,64.0
9527,55.0,0,60,10.0,64.0
9528,74.0,0,60,7.0,64.0
9529,74.0,65,60,5.0,64.0
9530,73.0,0,60,7.0,64.0
9531,73.0,3,60,5.0,64.0
9532,69.0,7,90,8.0,64.0
9533,76.0,32,60,6.0,64.0
9534,76.0,1,60,4.0,64.0
9535,61.0,13,180,10.0,64.0
9536,78.0,4,40,4.0,64.0
9537,74.0,69,60,7.0,64.0
9538,78.0,1,60,6.0,64.0
9539,74.0,2,40,5.0,64.0
9540,69.0,30,90,8.0,64.0
9541,79.0,8,60,4.0,64.0
9542,76.0,0,60,7.0,64.0
9543,79.0,9,60,6.0,64.0
9544,76.0,2,60,5.0,64.0
9545,74.0,60,60,7.0,64.0
9546,74.0,2,60,5.0,64.0
9547,69.0,21,90,8.0,64.0
9548,73.0,13,60,7.0,64.0
9549,79.0,1,60,6.0,64.0
9550,73.0,0,60,5.0,64.0
9551,79.0,2,60,4.0,64.0
9552,64.0,4,60,10.0,64.0
9553,78.0,3,60,4.0,64.0
9554,78.0,83,60,6.0,64.0
9555,74.0,1,40,7.0,64.0
9556,74.0,0,40,5.0,64.0
9557,69.0,5,90,8.0,64.0
9558,79.0,0,90,4.0,64.0
9559,79.0,29,90,6.0,64.0
9560,76.0,1,60,5.0,64.0
9561,76.0,6,60,7.0,64.0
9562,57.0,0,60,10.0,64.0
9563,74.0,8,60,7.0,64.0
9564,74.0,51,60,5.0,64.0
9565,69.0,27,90,8.0,64.0
9566,73.0,3,60,7.0,64.0
9567,73.0,11,60,5.0,64.0
9568,81.0,3,60,6.0,64.0
9569,61.0,2,40,10.0,64.0
9570,81.0,10,60,4.0,64.0
9571,71.0,6,60,7.0,64.0
9572,79.0,2,40,6.0,64.0
9573,71.0,3,60,5.0,64.0
9574,79.0,71,40,4.0,64.0
9575,69.0,3,90,8.0,64.0
9576,69.0,0,60,7.0,64.0
9577,78.0,3,60,6.0,64.0
9578,50.0,13,60,10.0,64.0
9579,69.0,1,60,5.0,64.0
9580,78.0,88,60,4.0,64.0
9581,62.0,1,60,8.0,64.0
9582,62.0,8,60,10.0,64.0
9583,78.0,3,40,6.0,64.0
9584,66.0,1,40,7.0,64.0
9585,66.0,30,60,5.0,64.0
9586,78.0,5,40,4.0,64.0
9587,76.0,9,40,6.0,64.0
9588,64.0,66,40,8.0,64.0
9589,76.0,0,40,4.0,64.0
9590,78.0,16,90,6.0,64.0
9591,62.0,13,60,8.0,64.0
9592,78.0,1,90,4.0,64.0
9593,55.0,16,60,10.0,64.0
9594,71.0,4,270,7.0,64.0
9595,71.0,17,270,5.0,64.0
9596,61.0,69,40,8.0,64.0
9597,59.0,10,40,8.0,64.0
9598,59.0,27,60,10.0,64.0
9599,79.0,0,40,6.0,64.0
9600,79.0,12,40,4.0,64.0
9601,62.0,3,40,8.0,64.0
9602,78.0,12,40,6.0,64.0
9603,78.0,56,40,4.0,64.0
9604,76.0,11,90,6.0,64.0
9605,61.0,4,60,8.0,64.0
9606,76.0,15,90,4.0,64.0
9607,49.0,11,60,10.0,64.0
9608,62.0,61,60,8.0,64.0
9609,61.0,7,60,8.0,64.0
9610,61.0,2,60,10.0,64.0
9611,76.0,1,40,6.0,64.0
9612,70.0,2,60,5.0,64.0
9613,76.0,10,40,4.0,64.0
9614,70.0,30,60,7.0,64.0
9615,59.0,7,60,8.0,64.0
9616,74.0,2,40,6.0,64.0
9617,74.0,9,40,4.0,64.0
9618,71.0,53,60,5.0,64.0
9619,71.0,1,60,7.0,64.0
9620,58.0,13,60,8.0,64.0
9621,76.0,21,90,6.0,64.0
9622,76.0,24,90,4.0,64.0
9623,73.0,0,60,7.0,64.0
9624,54.0,9,60,10.0,64.0
9625,73.0,6,60,5.0,64.0
9626,71.0,43,60,7.0,64.0
9627,71.0,0,60,5.0,64.0
9628,61.0,0,60,8.0,64.0
9629,70.0,31,60,5.0,64.0
9630,70.0,6,60,7.0,64.0
9631,78.0,2,60,6.0,64.0
9632,58.0,3,60,10.0,64.0
9633,78.0,5,40,4.0,64.0
9634,76.0,2,40,6.0,64.0
9635,76.0,0,40,4.0,64.0
9636,68.0,3,40,7.0,64.0
9637,68.0,80,40,5.0,64.0
9638,74.0,25,90,4.0,64.0
9639,66.0,3,60,7.0,64.0
9640,74.0,2,60,6.0,64.0
9641,66.0,0,60,5.0,64.0
9642,62.0,8,60,8.0,64.0
9643,47.0,6,60,10.0,64.0
9644,78.0,48,60,7.0,64.0
9645,78.0,14,40,5.0,64.0
9646,66.0,17,40,8.0,64.0
9647,59.0,0,60,10.0,64.0
9648,74.0,1,60,6.0,64.0
9649,71.0,19,60,7.0,64.0
9650,71.0,13,60,5.0,64.0
9651,86.0,1,40,0.0,64.0
9652,74.0,3,60,4.0,64.0
9653,74.0,13,90,1.0,64.0
9654,76.0,3,40,6.0,64.0
9655,76.0,5,40,4.0,64.0
9656,88.0,4,40,0.0,64.0
9657,73.0,1,40,7.0,64.0
9658,73.0,49,60,5.0,64.0
9659,78.0,3,60,6.0,64.0
9660,78.0,1,60,4.0,64.0
9661,90.0,31,60,0.0,64.0
9662,57.0,4,60,10.0,64.0
9663,74.0,8,60,7.0,64.0
9664,59.0,3,40,8.0,64.0
9665,74.0,1,60,5.0,64.0
9666,74.0,0,90,1.0,64.0
9667,76.0,13,40,7.0,64.0
9668,76.0,52,40,5.0,64.0
9669,74.0,1,60,7.0,64.0
9670,55.0,6,90,10.0,64.0
9671,78.0,5,40,6.0,64.0
9672,62.0,1,180,8.0,64.0
9673,78.0,8,40,4.0,64.0
9674,90.0,3,40,0.0,64.0
9675,74.0,22,60,5.0,64.0
9676,74.0,4,90,1.0,64.0
9677,79.0,6,40,6.0,64.0
9678,76.0,65,60,7.0,64.0
9679,79.0,6,40,4.0,64.0
9680,76.0,4,40,5.0,64.0
9681,91.0,0,40,0.0,64.0
9682,81.0,8,90,6.0,64.0
9683,93.0,14,90,0.0,64.0
9684,78.0,5,60,7.0,64.0
9685,54.0,7,90,10.0,64.0
9686,81.0,1,60,4.0,64.0
9687,78.0,6,60,5.0,64.0
9688,74.0,6,90,1.0,64.0
9689,81.0,6,40,5.0,64.0
9690,81.0,52,40,7.0,64.0
9691,78.0,2,40,6.0,64.0
9692,74.0,11,90,8.0,64.0
9693,74.0,0,60,5.0,64.0
9694,74.0,17,60,7.0,64.0
9695,74.0,4,90,1.0,64.0
9696,78.0,3,40,4.0,64.0
9697,90.0,8,40,0.0,64.0
9698,74.0,2,90,2.0,64.0
9699,59.0,6,60,10.0,64.0
9700,76.0,0,40,5.0,64.0
9701,79.0,3,40,6.0,64.0
9702,91.0,4,40,0.0,64.0
9703,76.0,5,40,7.0,64.0
9704,79.0,62,40,4.0,64.0
9705,74.0,2,120,8.0,64.0
9706,78.0,1,60,5.0,64.0
9707,81.0,10,90,6.0,64.0
9708,93.0,1,60,0.0,64.0
9709,78.0,16,60,7.0,64.0
9710,74.0,7,90,1.0,64.0
9711,57.0,0,60,10.0,64.0
9712,74.0,8,90,2.0,64.0
9713,81.0,4,60,4.0,64.0
9714,79.0,51,60,5.0,64.0
9715,79.0,5,40,7.0,64.0
9716,78.0,5,40,7.0,64.0
9717,78.0,15,40,5.0,64.0
9718,55.0,13,60,10.0,64.0
9719,74.0,3,90,8.0,64.0
9720,74.0,6,90,1.0,64.0
9721,81.0,1,60,4.0,64.0
9722,93.0,3,40,0.0,64.0
9723,81.0,1,60,6.0,64.0
9724,74.0,14,60,2.0,64.0
9725,79.0,0,40,5.0,64.0
9726,79.0,1,40,7.0,64.0
9727,83.0,2,40,6.0,64.0
9728,83.0,72,40,4.0,64.0
9729,95.0,1,40,0.0,64.0
9730,81.0,7,60,5.0,64.0
9731,81.0,1,60,7.0,64.0
9732,54.0,14,60,10.0,64.0
9733,84.0,6,60,6.0,64.0
9734,74.0,2,90,8.0,64.0
9735,96.0,0,90,0.0,64.0
9736,84.0,3,60,4.0,64.0
9737,74.0,16,90,1.0,64.0
9738,74.0,3,60,2.0,64.0
9739,79.0,46,60,5.0,64.0
9740,79.0,2,60,7.0,64.0
9741,78.0,3,60,5.0,64.0
9742,78.0,3,60,7.0,64.0
9743,57.0,13,60,10.0,64.0
9744,74.0,13,90,8.0,64.0
9745,90.0,13,40,1.0,64.0
9746,96.0,2,30,0.0,64.0
9747,84.0,2,60,4.0,64.0
9748,84.0,2,60,6.0,64.0
9749,74.0,2,90,2.0,64.0
9750,50.0,4,40,3.0,64.0
9751,91.0,1,40,1.0,64.0
9752,79.0,2,40,5.0,64.0
9753,83.0,74,60,4.0,64.0
9754,79.0,5,40,7.0,64.0
9755,83.0,0,40,6.0,64.0
9756,95.0,5,40,0.0,64.0
9757,74.0,3,90,8.0,64.0
9758,93.0,2,90,1.0,64.0
9759,81.0,4,60,5.0,64.0
9760,50.0,0,60,10.0,64.0
9761,84.0,2,60,6.0,64.0
9762,84.0,13,60,4.0,64.0
9763,96.0,7,90,0.0,64.0
9764,81.0,0,60,7.0,64.0
9765,78.0,9,90,2.0,64.0
9766,50.0,2,60,3.0,64.0
9767,79.0,14,60,5.0,64.0
9768,79.0,36,60,7.0,64.0
9769,54.0,7,60,10.0,64.0
9770,78.0,5,40,5.0,64.0
9771,69.0,9,90,8.0,64.0
9772,78.0,18,60,7.0,64.0
9773,95.0,6,30,1.0,64.0
9774,98.0,0,30,0.0,64.0
9775,74.0,6,90,2.0,64.0
9776,86.0,7,60,4.0,64.0
9777,86.0,2,60,6.0,64.0
9778,50.0,6,30,3.0,64.0
9779,76.0,10,60,5.0,64.0
9780,76.0,58,60,7.0,64.0
9781,96.0,2,30,0.0,64.0
9782,93.0,0,30,1.0,64.0
9783,84.0,3,40,6.0,64.0
9784,84.0,5,40,4.0,64.0
9785,74.0,1,60,5.0,64.0
9786,91.0,28,150,1.0,64.0
9787,43.0,2,60,10.0,64.0
9788,95.0,0,150,0.0,64.0
9789,71.0,21,120,8.0,64.0
9790,74.0,8,60,7.0,64.0
9791,83.0,1,60,6.0,64.0
9792,86.0,3,120,2.0,64.0
9793,83.0,0,60,4.0,64.0
9794,50.0,28,60,3.0,64.0
9795,79.0,13,40,6.0,64.0
9796,79.0,5,40,4.0,64.0
9797,71.0,5,40,5.0,64.0
9798,55.0,3,60,10.0,64.0
9799,76.0,37,60,6.0,64.0
9800,76.0,0,60,4.0,64.0
9801,71.0,14,40,7.0,64.0
9802,71.0,55,120,8.0,64.0
9803,78.0,1,60,6.0,64.0
9804,78.0,12,40,4.0,64.0
9805,79.0,5,60,6.0,64.0
9806,49.0,23,60,10.0,64.0
9807,79.0,17,60,4.0,64.0
9808,76.0,27,300,5.0,64.0
9809,76.0,6,270,7.0,64.0
9810,71.0,47,90,8.0,64.0
9811,81.0,6,40,6.0,64.0
9812,81.0,4,30,4.0,64.0
9813,78.0,9,40,6.0,64.0
9814,78.0,10,40,4.0,64.0
9815,52.0,6,60,10.0,64.0
9816,71.0,63,90,8.0,64.0
9817,91.0,4,40,1.0,64.0
9818,95.0,3,40,0.0,64.0
9819,88.0,27,60,2.0,64.0
9820,79.0,1,40,6.0,64.0
9821,79.0,1,40,4.0,64.0
9822,81.0,4,60,6.0,64.0
9823,42.0,2,90,10.0,64.0
9824,81.0,6,40,4.0,64.0
9825,69.0,2,90,8.0,64.0
9826,90.0,3,180,1.0,64.0
9827,93.0,2,150,0.0,64.0
9828,88.0,4,150,2.0,64.0
9829,45.0,1,60,3.0,64.0
9830,78.0,9,40,6.0,64.0
9831,78.0,53,40,4.0,64.0
9832,74.0,7,60,6.0,64.0
9833,69.0,5,90,8.0,64.0
9834,69.0,4,40,7.0,64.0
9835,54.0,25,60,10.0,64.0
9836,74.0,15,60,4.0,64.0
9837,69.0,1,40,5.0,64.0
9838,76.0,2,40,6.0,64.0
9839,76.0,82,40,4.0,64.0
9840,69.0,16,90,8.0,64.0
9841,78.0,4,60,6.0,64.0
9842,47.0,13,60,10.0,64.0
9843,74.0,8,270,7.0,64.0
9844,78.0,0,60,4.0,64.0
9845,74.0,3,300,5.0,64.0
9846,79.0,1,40,6.0,64.0
9847,79.0,73,40,4.0,64.0
9848,69.0,3,90,8.0,64.0
9849,50.0,0,60,10.0,64.0
9850,76.0,0,60,6.0,64.0
9851,76.0,6,60,4.0,64.0
9852,93.0,6,60,0.0,64.0
9853,90.0,5,40,1.0,64.0
9854,86.0,26,40,2.0,64.0
9855,78.0,8,40,6.0,64.0
9856,78.0,58,40,4.0,64.0
9857,67.0,4,90,8.0,64.0
9858,40.0,14,60,10.0,64.0
9859,79.0,0,60,6.0,64.0
9860,79.0,7,60,4.0,64.0
9861,88.0,1,90,1.0,64.0
9862,91.0,2,40,0.0,64.0
9863,86.0,18,60,2.0,64.0
9864,78.0,7,60,6.0,64.0
9865,78.0,41,60,4.0,64.0
9866,90.0,5,40,0.0,64.0
9867,76.0,10,40,6.0,64.0
9868,69.0,7,90,8.0,64.0
9869,76.0,7,40,4.0,64.0
9870,45.0,2,60,10.0,64.0
9871,73.0,3,60,7.0,64.0
9872,88.0,9,40,0.0,64.0
9873,81.0,3,60,2.0,64.0
9874,73.0,16,60,5.0,64.0
9875,93.0,2,60,1.0,64.0
9876,45.0,4,40,3.0,64.0
9877,79.0,3,40,4.0,64.0
9878,79.0,63,40,6.0,64.0
9879,91.0,0,30,0.0,64.0
9880,78.0,6,60,4.0,64.0
9881,69.0,1,90,8.0,64.0
9882,50.0,2,60,10.0,64.0
9883,90.0,6,40,0.0,64.0
9884,78.0,4,60,6.0,64.0
9885,74.0,7,60,5.0,64.0
9886,93.0,2,60,1.0,64.0
9887,74.0,8,40,7.0,64.0
9888,50.0,0,40,3.0,64.0
9889,81.0,13,60,2.0,64.0
9890,76.0,8,40,4.0,64.0
9891,76.0,47,60,6.0,64.0
9892,73.0,2,40,5.0,64.0
9893,88.0,2,30,0.0,64.0
9894,73.0,3,40,7.0,64.0
9895,74.0,2,60,4.0,64.0
9896,69.0,2,120,8.0,64.0
9897,71.0,2,60,7.0,64.0
9898,38.0,3,40,10.0,64.0
9899,71.0,2,60,5.0,64.0
9900,86.0,7,40,0.0,64.0
9901,74.0,9,40,6.0,64.0
9902,93.0,0,60,1.0,64.0
9903,50.0,14,40,3.0,64.0
9904,81.0,7,60,2.0,64.0
9905,78.0,12,40,4.0,64.0
9906,74.0,14,40,7.0,64.0
9907,78.0,0,40,6.0,64.0
9908,74.0,57,60,5.0,64.0
9909,90.0,3,30,0.0,64.0
9910,76.0,2,60,4.0,64.0
9911,73.0,4,60,7.0,64.0
9912,45.0,0,90,10.0,64.0
9913,69.0,11,90,8.0,64.0
9914,93.0,3,150,1.0,64.0
9915,73.0,10,60,5.0,64.0
9916,76.0,10,60,6.0,64.0
9917,88.0,12,120,0.0,64.0
9918,45.0,25,60,3.0,64.0
9919,81.0,10,150,2.0,64.0
9920,81.0,2,40,4.0,64.0
9921,81.0,26,40,6.0,64.0
9922,76.0,1,40,7.0,64.0
9923,69.0,13,90,8.0,64.0
9924,73.0,4,40,4.0,64.0
9925,76.0,4,40,5.0,64.0
9926,73.0,10,40,6.0,64.0
9927,45.0,29,60,10.0,64.0
9928,47.0,7,40,10.0,64.0
9929,74.0,49,60,4.0,64.0
9930,74.0,4,40,6.0,64.0
9931,49.0,19,90,10.0,64.0
9932,69.0,4,90,8.0,64.0
9933,69.0,10,40,7.0,64.0
9934,76.0,12,60,4.0,64.0
9935,76.0,3,60,6.0,64.0
9936,69.0,1,40,5.0,64.0
9937,78.0,10,40,4.0,64.0
9938,78.0,71,40,6.0,64.0
9939,76.0,8,60,4.0,64.0
9940,76.0,24,60,6.0,64.0
9941,69.0,12,90,8.0,64.0
9942,73.0,19,210,7.0,64.0
9943,73.0,13,180,5.0,64.0
9944,49.0,2,60,10.0,64.0
9945,78.0,2,40,4.0,64.0
9946,78.0,1,40,6.0,64.0
9947,50.0,81,40,10.0,64.0
9948,69.0,2,120,8.0,64.0
9949,52.0,3,90,10.0,64.0
9950,79.0,0,60,4.0,64.0
9951,79.0,1,60,6.0,64.0
9952,76.0,4,40,6.0,64.0
9953,76.0,68,40,4.0,64.0
9954,69.0,13,90,8.0,64.0
9955,69.0,21,60,6.0,64.0
9956,49.0,2,60,10.0,64.0
9957,81.0,1,90,0.0,64.0
9958,69.0,3,60,4.0,64.0
9959,76.0,6,40,5.0,64.0
9960,76.0,1,40,7.0,64.0
9961,71.0,9,40,6.0,64.0
9962,71.0,0,60,4.0,64.0
9963,50.0,62,40,10.0,64.0
9964,69.0,4,90,8.0,64.0
9965,73.0,22,60,6.0,64.0
9966,73.0,4,60,4.0,64.0
9967,52.0,8,90,10.0,64.0
9968,67.0,4,40,7.0,64.0
9969,67.0,2,40,5.0,64.0
9970,81.0,6,90,0.0,64.0
9971,74.0,0,40,6.0,64.0
9972,74.0,71,40,4.0,64.0
9973,73.0,3,60,6.0,64.0
9974,69.0,9,90,8.0,64.0
9975,73.0,2,60,4.0,64.0
9976,81.0,5,90,0.0,64.0
9977,52.0,28,60,10.0,64.0
9978,73.0,5,210,7.0,64.0
9979,73.0,1,180,5.0,64.0
9980,74.0,1,40,6.0,64.0
9981,54.0,9,40,10.0,64.0
9982,74.0,75,60,4.0,64.0
9983,55.0,17,90,10.0,64.0
9984,69.0,6,90,8.0,64.0
9985,76.0,4,60,6.0,64.0
9986,81.0,0,90,0.0,64.0
9987,76.0,7,60,4.0,64.0
9988,74.0,9,60,6.0,64.0
9989,74.0,41,40,4.0,64.0
9990,73.0,15,40,6.0,64.0
9991,69.0,1,90,8.0,64.0
9992,73.0,1,60,4.0,64.0
9993,55.0,30,60,10.0,64.0
9994,81.0,3,90,2.0,64.0
9995,88.0,1,90,0.0,64.0
9996,76.0,2,40,5.0,64.0
9997,76.0,2,40,7.0,64.0
9998,81.0,2,90,1.0,64.0
9999,45.0,1,40,3.0,64.0
10000,74.0,6,40,6.0,64.0
10001,54.0,7,40,10.0,64.0
10002,74.0,63,40,4.0,64.0
10003,55.0,4,90,10.0,64.0
10004,76.0,7,60,6.0,64.0
10005,88.0,17,90,0.0,64.0
10006,69.0,1,90,8.0,64.0
10007,69.0,2,60,5.0,64.0
10008,69.0,6,60,7.0,64.0
10009,76.0,10,60,4.0,64.0
10010,81.0,0,90,1.0,64.0
10011,81.0,8,60,2.0,64.0
10012,45.0,4,40,3.0,64.0
10013,79.0,21,60,6.0,64.0
10014,79.0,38,60,4.0,64.0
10015,78.0,0,60,6.0,64.0
10016,69.0,3,90,8.0,64.0
10017,73.0,5,60,5.0,64.0
10018,57.0,7,60,10.0,64.0
10019,78.0,5,60,4.0,64.0
10020,88.0,6,90,1.0,64.0
10021,73.0,0,60,7.0,64.0
10022,45.0,9,40,3.0,64.0
10023,93.0,8,60,0.0,64.0
10024,81.0,4,90,2.0,64.0
10025,76.0,19,60,6.0,64.0
10026,55.0,11,40,10.0,64.0
10027,76.0,38,60,4.0,64.0
10028,69.0,1,90,8.0,64.0
10029,54.0,1,90,10.0,64.0
10030,93.0,23,150,0.0,64.0
10031,74.0,8,40,5.0,64.0
10032,81.0,1,60,6.0,64.0
10033,74.0,19,40,7.0,64.0
10034,90.0,18,90,1.0,64.0
10035,81.0,0,60,4.0,64.0
10036,50.0,28,60,3.0,64.0
10037,74.0,10,120,2.0,64.0
10038,79.0,4,60,6.0,64.0
10039,79.0,11,60,4.0,64.0
10040,62.0,21,90,8.0,64.0
10041,54.0,0,40,10.0,64.0
10042,69.0,3,40,7.0,64.0
10043,69.0,3,40,5.0,64.0
10044,78.0,21,40,6.0,64.0
10045,78.0,3,40,4.0,64.0
10046,93.0,0,40,1.0,64.0
10047,52.0,7,40,10.0,64.0
10048,91.0,2,40,1.0,64.0
10049,79.0,12,40,6.0,64.0
10050,79.0,52,60,4.0,64.0
10051,90.0,16,60,1.0,64.0
10052,66.0,9,60,8.0,64.0
10053,81.0,6,40,6.0,64.0
10054,54.0,25,90,10.0,64.0
10055,74.0,3,300,5.0,64.0
10056,74.0,4,270,7.0,64.0
10057,81.0,6,40,4.0,64.0
10058,78.0,12,60,6.0,64.0
10059,78.0,39,60,4.0,64.0
10060,74.0,4,60,6.0,64.0
10061,86.0,4,60,1.0,64.0
10062,71.0,10,60,8.0,64.0
10063,55.0,4,60,10.0,64.0
10064,74.0,19,60,4.0,64.0
10065,95.0,16,30,0.0,64.0
10066,78.0,0,40,6.0,64.0
10067,54.0,62,60,10.0,64.0
10068,78.0,6,40,4.0,64.0
10069,93.0,5,40,0.0,64.0
10070,79.0,11,60,6.0,64.0
10071,79.0,2,60,4.0,64.0
10072,52.0,22,60,10.0,64.0
10073,88.0,5,90,1.0,64.0
10074,71.0,8,90,8.0,64.0
10075,91.0,12,150,0.0,64.0
10076,78.0,7,40,6.0,64.0
10077,78.0,31,60,4.0,64.0
10078,76.0,1,60,6.0,64.0
10079,67.0,1,60,7.0,64.0
10080,91.0,17,40,1.0,64.0
10081,73.0,15,60,5.0,64.0
10082,76.0,15,60,4.0,64.0
10083,52.0,1,40,10.0,64.0
10084,73.0,3,40,8.0,64.0
10085,78.0,3,60,6.0,64.0
10086,50.0,61,60,10.0,64.0
10087,74.0,0,40,8.0,64.0
10088,90.0,9,30,1.0,64.0
10089,78.0,1,40,4.0,64.0
10090,64.0,1,60,7.0,64.0
10091,73.0,5,60,8.0,64.0
10092,76.0,4,40,5.0,64.0
10093,79.0,5,40,6.0,64.0
10094,52.0,33,60,10.0,64.0
10095,79.0,1,60,4.0,64.0
10096,88.0,11,60,1.0,64.0
10097,83.0,43,60,6.0,64.0
10098,83.0,10,40,4.0,64.0
10099,81.0,4,60,6.0,64.0
10100,73.0,1,60,7.0,64.0
10101,69.0,2,60,8.0,64.0
10102,88.0,9,60,2.0,64.0
10103,93.0,9,30,0.0,64.0
10104,73.0,1,40,5.0,64.0
10105,81.0,1,60,1.0,64.0
10106,81.0,3,40,4.0,64.0
10107,54.0,20,60,10.0,64.0
10108,45.0,3,40,3.0,64.0
10109,91.0,4,40,0.0,64.0
10110,79.0,5,30,6.0,64.0
10111,52.0,67,40,10.0,64.0
10112,79.0,10,30,4.0,64.0
10113,90.0,0,60,0.0,64.0
10114,69.0,4,90,8.0,64.0
10115,74.0,7,60,7.0,64.0
10116,78.0,1,60,6.0,64.0
10117,50.0,1,60,3.0,64.0
10118,74.0,2,60,5.0,64.0
10119,81.0,7,90,1.0,64.0
10120,50.0,12,60,10.0,64.0
10121,90.0,13,90,2.0,64.0
10122,78.0,4,60,4.0,64.0
10123,52.0,61,40,10.0,64.0
10124,69.0,3,60,7.0,64.0
10125,54.0,1,60,10.0,64.0
10126,69.0,20,90,8.0,64.0
10127,93.0,5,40,0.0,64.0
10128,69.0,2,60,5.0,64.0
10129,86.0,1,60,1.0,64.0
10130,74.0,7,60,6.0,64.0
10131,74.0,11,60,4.0,64.0
10132,50.0,71,40,10.0,64.0
10133,62.0,2,40,7.0,64.0
10134,95.0,2,40,0.0,64.0
10135,67.0,10,60,8.0,64.0
10136,86.0,1,60,1.0,64.0
10137,55.0,8,60,10.0,64.0
10138,62.0,2,40,5.0,64.0
10139,91.0,17,60,2.0,64.0
10140,50.0,2,40,3.0,64.0
10141,71.0,5,60,6.0,64.0
10142,71.0,3,60,4.0,64.0
10143,57.0,59,40,10.0,64.0
10144,54.0,10,40,10.0,64.0
10145,88.0,8,60,1.0,64.0
10146,71.0,6,60,8.0,64.0
10147,67.0,8,40,7.0,64.0
10148,91.0,0,40,0.0,64.0
10149,76.0,26,60,6.0,64.0
10150,67.0,3,60,5.0,64.0
10151,76.0,0,40,4.0,64.0
10152,55.0,69,40,10.0,64.0
10153,64.0,9,40,7.0,64.0
10154,57.0,32,60,10.0,64.0
10155,81.0,0,60,1.0,64.0
10156,88.0,3,90,2.0,64.0
10157,45.0,3,60,3.0,64.0
10158,97.0,12,40,0.0,64.0
10159,69.0,2,90,8.0,64.0
10160,73.0,0,60,6.0,64.0
10161,73.0,5,60,4.0,64.0
10162,64.0,22,240,5.0,64.0
10163,61.0,12,40,7.0,64.0
10164,69.0,10,60,6.0,64.0
10165,69.0,43,60,4.0,64.0
10166,71.0,2,60,6.0,64.0
10167,55.0,2,60,10.0,64.0
10168,64.0,14,90,8.0,64.0
10169,88.0,3,60,1.0,64.0
10170,71.0,16,60,4.0,64.0
10171,62.0,6,60,7.0,64.0
10172,93.0,3,40,0.0,64.0
10173,64.0,6,40,7.0,64.0
10174,73.0,29,40,6.0,64.0
10175,73.0,4,40,4.0,64.0
10176,74.0,1,60,6.0,64.0
10177,74.0,3,60,4.0,64.0
10178,90.0,6,40,1.0,64.0
10179,81.0,12,60,2.0,64.0
10180,45.0,2,40,3.0,64.0
10181,54.0,1,60,10.0,64.0
10182,69.0,17,60,8.0,64.0
10183,98.0,7,40,0.0,64.0
10184,57.0,6,40,7.0,64.0
10185,88.0,17,40,1.0,64.0
10186,76.0,40,60,4.0,64.0
10187,76.0,3,60,6.0,64.0
10188,90.0,7,40,1.0,64.0
10189,73.0,1,40,7.0,64.0
10190,52.0,2,60,10.0,64.0
10191,78.0,1,60,4.0,64.0
10192,78.0,8,40,6.0,64.0
10193,91.0,0,40,0.0,64.0
10194,69.0,12,60,8.0,64.0
10195,81.0,10,60,2.0,64.0
10196,73.0,7,60,5.0,64.0
10197,45.0,5,40,3.0,64.0
10198,91.0,13,40,1.0,64.0
10199,79.0,72,40,4.0,64.0
10200,79.0,2,40,6.0,64.0
10201,74.0,0,60,7.0,64.0
10202,78.0,1,60,4.0,64.0
10203,50.0,4,60,10.0,64.0
10204,78.0,4,60,6.0,64.0
10205,93.0,25,150,1.0,64.0
10206,81.0,7,120,2.0,64.0
10207,69.0,35,60,8.0,64.0
10208,50.0,2,60,3.0,64.0
10209,90.0,8,120,0.0,64.0
10210,74.0,6,60,5.0,64.0
10211,76.0,5,60,6.0,64.0
10212,67.0,5,60,8.0,64.0
10213,76.0,12,60,4.0,64.0
10214,74.0,8,60,6.0,64.0
10215,74.0,5,60,4.0,64.0
10216,71.0,1,60,7.0,64.0
10217,55.0,4,60,10.0,64.0
10218,66.0,23,60,8.0,64.0
10219,71.0,0,60,5.0,64.0
10220,67.0,52,60,8.0,64.0
10221,76.0,1,30,6.0,64.0
10222,76.0,20,30,4.0,64.0
10223,69.0,9,40,7.0,64.0
10224,64.0,38,60,8.0,64.0
10225,81.0,9,120,2.0,64.0
10226,69.0,2,60,6.0,64.0
10227,57.0,5,40,10.0,64.0
10228,69.0,2,60,5.0,64.0
10229,69.0,6,60,4.0,64.0
10230,88.0,2,120,0.0,64.0
10231,45.0,0,40,3.0,64.0
10232,91.0,22,120,1.0,64.0
10233,66.0,24,40,8.0,64.0
10234,67.0,5,40,8.0,64.0
10235,73.0,9,60,6.0,64.0
10236,69.0,7,40,7.0,64.0
10237,45.0,2,60,10.0,64.0
10238,69.0,2,60,5.0,64.0
10239,73.0,29,60,4.0,64.0
10240,64.0,84,40,8.0,64.0
10241,74.0,18,60,6.0,64.0
10242,66.0,16,240,8.0,64.0
10243,86.0,2,150,0.0,64.0
10244,81.0,12,150,2.0,64.0
10245,69.0,9,120,5.0,64.0
10246,74.0,19,60,4.0,64.0
10247,50.0,48,240,10.0,64.0
10248,69.0,10,210,7.0,64.0
10249,90.0,19,150,1.0,64.0
10250,50.0,32,60,3.0,64.0
10251,69.0,10,60,6.0,64.0
10252,66.0,42,60,6.0,64.0
10253,69.0,13,40,6.0,64.0
10254,62.0,34,60,6.0,64.0
10255,66.0,71,40,6.0,64.0
10256,64.0,1,60,6.0,64.0
10257,49.0,9,60,10.0,64.0
10258,64.0,2,60,8.0,64.0
10259,69.0,20,60,7.0,64.0
10260,67.0,95,40,6.0,64.0
10261,66.0,0,60,6.0,64.0
10262,50.0,5,60,10.0,64.0
10263,69.0,21,90,7.0,64.0
10264,62.0,18,60,8.0,64.0
10265,69.0,64,60,6.0,64.0
10266,74.0,5,60,6.0,64.0
10267,71.0,19,60,7.0,64.0
10268,47.0,7,60,10.0,64.0
10269,66.0,5,60,8.0,64.0
10270,66.0,83,40,6.0,64.0
10271,64.0,1,60,6.0,64.0
10272,71.0,21,60,7.0,64.0
10273,43.0,13,40,10.0,64.0
10274,67.0,2,60,8.0,64.0
10275,74.0,76,40,6.0,64.0
10276,64.0,11,60,6.0,64.0
10277,45.0,2,40,10.0,64.0
10278,69.0,2,60,7.0,64.0
10279,67.0,37,40,8.0,64.0
10280,73.0,68,60,6.0,64.0
10281,74.0,69,60,6.0,64.0
10282,66.0,35,240,8.0,64.0
10283,69.0,17,240,7.0,64.0
10284,38.0,2,240,10.0,64.0
10285,69.0,50,60,6.0,64.0
10286,74.0,40,60,6.0,64.0
10287,76.0,37,30,6.0,64.0
10288,78.0,35,60,6.0,64.0
10289,81.0,77,40,6.0,64.0
10290,80.0,0,60,6.0,64.0
10291,50.0,4,60,10.0,64.0
10292,71.0,2,60,7.0,64.0
10293,64.0,23,60,8.0,64.0
10294,83.0,95,30,6.0,64.0
10295,49.0,6,60,10.0,64.0
10296,73.0,0,60,7.0,64.0
10297,81.0,2,60,6.0,64.0
10298,64.0,51,60,8.0,64.0
10299,76.0,54,60,6.0,64.0
10300,73.0,1,60,6.0,64.0
10301,54.0,0,60,10.0,64.0
10302,69.0,23,60,7.0,64.0
10303,66.0,16,40,8.0,64.0
10304,81.0,76,40,6.0,64.0
10305,71.0,6,60,6.0,64.0
10306,78.0,26,60,7.0,64.0
10307,50.0,6,60,10.0,64.0
10308,66.0,1,60,8.0,64.0
10309,81.0,72,40,6.0,64.0
10310,71.0,4,60,6.0,64.0
10311,52.0,5,40,10.0,64.0
10312,76.0,30,60,7.0,64.0
10313,71.0,6,40,8.0,64.0
10314,80.0,81,40,6.0,64.0
10315,81.0,36,60,6.0,64.0
10316,45.0,7,90,10.0,64.0
10317,73.0,46,240,8.0,64.0
10318,76.0,4,240,7.0,64.0
10319,76.0,85,40,6.0,64.0
10320,73.0,11,60,6.0,64.0
10321,57.0,36,60,10.0,64.0
10322,74.0,29,60,6.0,64.0
10323,57.0,41,60,10.0,64.0
10324,76.0,8,60,6.0,64.0
10325,78.0,53,60,6.0,64.0
10326,57.0,7,60,10.0,64.0
10327,76.0,30,60,6.0,64.0
10328,76.0,1,60,7.0,64.0
10329,73.0,13,40,8.0,64.0
10330,78.0,75,40,6.0,64.0
10331,79.0,38,60,6.0,64.0
10332,76.0,3,60,7.0,64.0
10333,73.0,4,40,8.0,64.0
10334,76.0,70,40,6.0,64.0
10335,69.0,39,60,6.0,64.0
10336,76.0,11,60,7.0,64.0
10337,55.0,6,90,10.0,64.0
10338,73.0,5,40,8.0,64.0
10339,71.0,68,60,6.0,64.0
10340,73.0,30,60,6.0,64.0
10341,55.0,16,90,10.0,64.0
10342,74.0,66,60,6.0,64.0
10343,73.0,32,60,6.0,64.0
10344,76.0,7,60,7.0,64.0
10345,55.0,2,60,10.0,64.0
10346,71.0,5,40,8.0,64.0
10347,74.0,73,40,6.0,64.0
10348,73.0,20,60,7.0,64.0
10349,76.0,50,60,6.0,64.0
10350,70.0,2,40,8.0,64.0
10351,74.0,43,60,6.0,64.0
10352,73.0,16,60,7.0,64.0
10353,73.0,33,60,6.0,64.0
10354,70.0,12,40,8.0,64.0
10355,54.0,1,90,10.0,64.0
10356,74.0,89,40,6.0,64.0
10357,54.0,27,90,10.0,64.0
10358,76.0,26,60,6.0,64.0
10359,74.0,45,60,6.0,64.0
10360,73.0,4,60,6.0,64.0
10361,73.0,2,60,7.0,64.0
10362,70.0,2,40,8.0,64.0
10363,54.0,48,60,10.0,64.0
10364,71.0,57,60,6.0,64.0
10365,73.0,73,60,7.0,64.0
10366,70.0,6,40,6.0,64.0
10367,66.0,6,40,8.0,64.0
10368,76.0,41,60,6.0,64.0
10369,70.0,2,60,7.0,64.0
10370,78.0,29,90,6.0,64.0
10371,66.0,20,40,8.0,64.0
10372,42.0,1,90,10.0,64.0
10373,79.0,90,40,6.0,64.0
10374,78.0,3,90,6.0,64.0
10375,42.0,36,60,10.0,64.0
10376,76.0,55,60,6.0,64.0
10377,74.0,14,60,6.0,64.0
10378,70.0,5,40,7.0,64.0
10379,66.0,8,40,8.0,64.0
10380,42.0,30,60,10.0,64.0
10381,73.0,83,40,6.0,64.0
10382,74.0,0,60,6.0,64.0
10383,66.0,47,60,8.0,64.0
10384,71.0,1,60,7.0,64.0
10385,78.0,59,60,6.0,64.0
10386,71.0,38,90,6.0,64.0
10387,66.0,14,60,7.0,64.0
10388,62.0,9,40,8.0,64.0
10389,47.0,10,90,10.0,64.0
10390,73.0,58,60,6.0,64.0
10391,74.0,33,60,6.0,64.0
10392,47.0,73,90,10.0,64.0
10393,76.0,5,40,6.0,64.0
10394,74.0,2,60,6.0,64.0
10395,66.0,10,60,8.0,64.0
10396,71.0,33,60,7.0,64.0
10397,47.0,0,60,10.0,64.0
10398,76.0,79,40,6.0,64.0
10399,78.0,59,60,6.0,64.0
10400,63.0,1,60,8.0,64.0
10401,72.0,8,60,7.0,64.0
10402,81.0,44,60,6.0,64.0
10403,69.0,6,40,8.0,64.0
10404,75.0,44,60,6.0,64.0
10405,54.0,11,210,10.0,64.0
10406,72.0,6,40,7.0,64.0
10407,76.0,82,40,6.0,64.0
10408,78.0,39,60,6.0,64.0
10409,79.0,43,60,6.0,64.0
10410,63.0,16,40,8.0,64.0
10411,78.0,3,60,6.0,64.0
10412,72.0,40,60,7.0,64.0
10413,54.0,2,40,10.0,64.0
10414,79.0,82,40,6.0,64.0
10415,81.0,38,60,6.0,64.0
10416,63.0,5,60,8.0,64.0
10417,66.0,3,60,7.0,64.0
10418,72.0,65,60,6.0,64.0
10419,71.0,34,60,6.0,64.0
10420,66.0,2,60,8.0,64.0
10421,51.0,85,90,10.0,64.0
10422,69.0,5,60,7.0,64.0
10423,72.0,8,40,6.0,64.0
10424,51.0,43,60,10.0,64.0
10425,81.0,1,60,6.0,64.0
10426,72.0,51,60,6.0,64.0
10427,51.0,36,60,10.0,64.0
10428,71.0,0,60,6.0,64.0
10429,66.0,16,40,8.0,64.0
10430,69.0,0,60,7.0,64.0
10431,69.0,77,40,6.0,64.0
10432,71.0,4,60,6.0,64.0
10433,66.0,11,60,8.0,64.0
10434,63.0,64,60,7.0,64.0
10435,73.0,36,90,6.0,64.0
10436,75.0,5,40,6.0,64.0
10437,66.0,7,60,8.0,64.0
10438,71.0,43,60,7.0,64.0
10439,47.0,13,90,10.0,64.0
10440,76.0,78,60,6.0,64.0
10441,78.0,4,60,6.0,64.0
10442,47.0,33,60,10.0,64.0
10443,79.0,52,60,6.0,64.0
10444,75.0,16,40,7.0,64.0
10445,81.0,2,60,6.0,64.0
10446,71.0,2,40,8.0,64.0
10447,47.0,40,60,10.0,64.0
10448,78.0,85,40,6.0,64.0
10449,79.0,14,60,6.0,64.0
10450,76.0,6,240,7.0,64.0
10451,71.0,37,240,8.0,64.0
10452,52.0,26,60,10.0,64.0
10453,76.0,71,60,6.0,64.0
10454,71.0,7,60,6.0,64.0
10455,64.0,40,60,10.0,64.0
10456,74.0,25,60,6.0,64.0
10457,73.0,10,60,6.0,64.0
10458,57.0,31,60,10.0,64.0
10459,76.0,70,40,6.0,64.0
10460,69.0,15,60,6.0,64.0
10461,61.0,24,60,10.0,64.0
10462,79.0,104,40,6.0,64.0
10463,78.0,1,60,6.0,64.0
10464,50.0,32,60,10.0,64.0
10465,74.0,72,40,6.0,64.0
10466,69.0,7,60,6.0,64.0
10467,62.0,34,60,10.0,64.0
10468,72.0,72,40,6.0,64.0
10469,55.0,6,60,10.0,64.0
10470,71.0,69,60,6.0,64.0
10471,74.0,50,60,6.0,64.0
10472,59.0,33,60,10.0,64.0
10473,67.0,5,60,6.0,64.0
10474,78.0,101,40,6.0,64.0
10475,49.0,13,60,10.0,64.0
10476,76.0,49,60,6.0,64.0
10477,73.0,51,60,6.0,64.0
10478,61.0,48,60,10.0,64.0
10479,68.0,3,60,6.0,64.0
10480,71.0,65,60,6.0,64.0
10481,70.0,77,60,6.0,64.0
10482,54.0,7,40,10.0,64.0
10483,73.0,32,90,6.0,64.0
10484,66.0,1,60,6.0,64.0
10485,58.0,43,60,10.0,64.0
10486,76.0,107,40,6.0,64.0
10487,47.0,46,90,10.0,64.0
10488,74.0,1,90,6.0,64.0
10489,71.0,42,60,6.0,64.0
10490,73.0,17,60,6.0,64.0
10491,59.0,37,60,10.0,64.0
10492,74.0,70,40,6.0,64.0
10493,55.0,21,60,10.0,64.0
10494,76.0,42,60,6.0,64.0
10495,78.0,57,60,6.0,64.0
10496,52.0,3,60,10.0,64.0
10497,79.0,46,60,6.0,64.0
10498,76.0,88,40,6.0,64.0
10499,70.0,54,60,6.0,64.0
10500,54.0,40,240,10.0,64.0
10501,76.0,6,1200,4.0,64.0
10502,76.0,62,60,6.0,64.0
10503,78.0,38,60,6.0,64.0
10504,66.0,3,60,7.0,64.0
10505,66.0,4,90,0.0,64.0
10506,68.0,23,60,7.0,64.0
10507,76.0,1,60,6.0,64.0
10508,70.0,15,60,7.0,64.0
10509,78.0,38,60,6.0,64.0
10510,66.0,19,90,0.0,64.0
10511,73.0,51,240,8.0,64.0
10512,76.0,62,60,6.0,64.0
10513,78.0,36,60,6.0,64.0
10514,70.0,4,60,7.0,64.0
10515,66.0,4,90,0.0,64.0
10516,71.0,1,60,7.0,64.0
10517,76.0,21,60,6.0,64.0
10518,73.0,15,60,7.0,64.0
10519,70.0,29,60,6.0,64.0
10520,66.0,15,90,0.0,64.0
10521,42.0,35,240,10.0,64.0
10522,76.0,55,60,6.0,64.0
10523,78.0,26,90,6.0,64.0
10524,70.0,18,60,7.0,64.0
10525,78.0,2,90,1.0,64.0
10526,66.0,12,90,0.0,64.0
10527,71.0,8,60,7.0,64.0
10528,76.0,25,60,6.0,64.0
10529,78.0,37,60,6.0,64.0
10530,73.0,5,60,7.0,64.0
10531,78.0,3,90,1.0,64.0
10532,70.0,41,240,8.0,64.0
10533,66.0,23,90,0.0,64.0
10534,76.0,51,60,6.0,64.0
10535,78.0,6,60,6.0,64.0
10536,73.0,30,60,7.0,64.0
10537,66.0,6,90,0.0,64.0
10538,78.0,2,90,1.0,64.0
10539,76.0,4,40,6.0,64.0
10540,74.0,25,60,7.0,64.0
10541,70.0,39,60,6.0,64.0
10542,76.0,6,60,7.0,64.0
10543,78.0,0,90,1.0,64.0
10544,66.0,38,90,0.0,64.0
10545,76.0,40,90,6.0,64.0
10546,78.0,25,60,6.0,64.0
10547,54.0,6,60,10.0,64.0
10548,78.0,0,90,1.0,64.0
10549,76.0,9,60,7.0,64.0
10550,78.0,5,90,2.0,64.0
10551,66.0,6,90,0.0,64.0
10552,79.0,41,90,6.0,64.0
10553,74.0,21,60,7.0,64.0
10554,78.0,2,60,6.0,64.0
10555,76.0,23,60,7.0,64.0
10556,66.0,71,240,8.0,64.0
10557,78.0,4,90,2.0,64.0
10558,58.0,11,60,10.0,64.0
10559,78.0,8,90,1.0,64.0
10560,66.0,21,90,0.0,64.0
10561,73.0,15,210,4.0,64.0
10562,76.0,48,60,6.0,64.0
10563,75.0,1,60,6.0,64.0
10564,78.0,2,90,1.0,64.0
10565,54.0,5,60,10.0,64.0
10566,78.0,24,60,7.0,64.0
10567,66.0,14,90,0.0,64.0
10568,78.0,1,90,2.0,64.0
10569,76.0,12,30,7.0,64.0
10570,73.0,2,40,6.0,64.0
10571,75.0,6,180,7.0,64.0
10572,69.0,54,90,6.0,64.0
10573,59.0,27,270,10.0,64.0
10574,78.0,1,150,1.0,64.0
10575,75.0,7,1410,4.0,64.0
10576,78.0,25,150,2.0,64.0
10577,69.0,54,1200,5.0,64.0
10578,66.0,3,120,0.0,64.0
10579,75.0,15,60,6.0,64.0
10580,78.0,29,60,6.0,64.0
10581,59.0,17,60,8.0,64.0
10582,61.0,16,60,8.0,64.0
10583,75.0,25,60,6.0,64.0
10584,63.0,19,60,8.0,64.0
10585,78.0,57,60,6.0,64.0
10586,71.0,64,240,7.0,64.0
10587,75.0,50,90,6.0,64.0
10588,78.0,24,60,6.0,64.0
10589,63.0,13,60,8.0,64.0
10590,64.0,8,40,8.0,64.0
10591,75.0,14,40,6.0,64.0
10592,66.0,9,60,8.0,64.0
10593,69.0,43,60,6.0,64.0
10594,47.0,63,240,10.0,64.0
10595,75.0,66,60,6.0,64.0
10596,78.0,43,90,6.0,64.0
10597,63.0,8,40,8.0,64.0
10598,75.0,7,60,6.0,64.0
10599,64.0,6,60,8.0,64.0
10600,78.0,51,60,6.0,64.0
10601,75.0,34,240,7.0,64.0
10602,66.0,2,60,8.0,64.0
10603,75.0,64,60,6.0,64.0
10604,78.0,27,60,6.0,64.0
10605,66.0,5,60,8.0,64.0
10606,75.0,12,40,6.0,64.0
10607,68.0,22,60,8.0,64.0
10608,69.0,47,60,6.0,64.0
10609,69.0,23,40,8.0,64.0
10610,75.0,55,60,6.0,64.0
10611,59.0,5,60,10.0,64.0
10612,78.0,7,60,6.0,64.0
10613,69.0,45,60,8.0,64.0
10614,76.0,3,60,6.0,64.0
10615,68.0,7,60,8.0,64.0
10616,75.0,39,60,6.0,64.0
10617,69.0,3,60,8.0,64.0
10618,47.0,4,60,10.0,64.0
10619,78.0,9,180,7.0,64.0
10620,66.0,64,210,5.0,64.0
10621,73.0,63,60,6.0,64.0
10622,71.0,8,60,6.0,64.0
10623,51.0,3,40,10.0,64.0
10624,71.0,17,60,8.0,64.0
10625,69.0,17,40,6.0,64.0
10626,69.0,7,40,8.0,64.0
10627,68.0,77,60,6.0,64.0
10628,68.0,21,180,8.0,64.0
10629,74.0,18,1440,4.0,64.0
10630,52.0,5,240,10.0,64.0
10631,68.0,75,1440,5.0,64.0
10632,74.0,41,90,6.0,64.0
10633,64.0,11,60,7.0,64.0
10634,76.0,23,90,6.0,64.0
10635,66.0,18,60,7.0,64.0
10636,74.0,34,60,6.0,64.0
10637,68.0,35,60,7.0,64.0
10638,71.0,54,270,8.0,64.0
10639,76.0,43,60,6.0,64.0
10640,74.0,45,60,6.0,64.0
10641,68.0,15,60,7.0,64.0
10642,76.0,27,60,6.0,64.0
10643,69.0,9,60,7.0,64.0
10644,74.0,28,40,6.0,64.0
10645,71.0,1,60,7.0,64.0
10646,68.0,70,60,6.0,64.0
10647,40.0,12,240,10.0,64.0
10648,74.0,36,60,6.0,64.0
10649,68.0,29,40,7.0,64.0
10650,76.0,34,60,6.0,64.0
10651,69.0,18,60,7.0,64.0
10652,74.0,29,90,6.0,64.0
10653,71.0,35,60,7.0,64.0
10654,68.0,44,270,8.0,64.0
10655,76.0,52,60,6.0,64.0
10656,74.0,53,60,6.0,64.0
10657,71.0,0,60,7.0,64.0
10658,76.0,26,60,6.0,64.0
10659,73.0,35,40,7.0,64.0
10660,74.0,7,30,6.0,64.0
10661,74.0,10,60,7.0,64.0
10662,68.0,61,60,6.0,64.0
10663,74.0,43,60,6.0,64.0
10664,52.0,6,60,10.0,64.0
10665,76.0,20,90,6.0,64.0
10666,74.0,19,60,7.0,64.0
10667,73.0,25,40,7.0,64.0
10668,78.0,10,60,6.0,64.0
10669,64.0,2,240,8.0,64.0
10670,74.0,50,60,7.0,64.0
10671,56.0,2,60,10.0,64.0
10672,76.0,6,60,6.0,64.0
10673,77.0,39,15,6.0,64.0
10674,74.0,67,60,6.0,64.0
10675,73.0,3,60,6.0,64.0
10676,52.0,12,60,10.0,64.0
10677,76.0,22,60,7.0,64.0
10678,71.0,3,40,6.0,64.0
10679,74.0,6,30,7.0,64.0
10680,73.0,18,210,7.0,64.0
10681,73.0,9,1410,4.0,64.0
10682,67.0,65,60,6.0,64.0
10683,57.0,34,240,10.0,64.0
10684,67.0,0,1380,5.0,64.0
10685,73.0,42,90,6.0,64.0
10686,76.0,6,60,6.0,64.0
10687,69.0,12,90,0.0,64.0
10688,57.0,9,60,8.0,64.0
10689,73.0,15,60,6.0,64.0
10690,59.0,13,60,8.0,64.0
10691,76.0,27,60,6.0,64.0
10692,61.0,19,60,8.0,64.0
10693,69.0,30,90,0.0,64.0
10694,69.0,54,240,7.0,64.0
10695,73.0,57,60,6.0,64.0
10696,76.0,32,60,6.0,64.0
10697,61.0,4,60,8.0,64.0
10698,69.0,3,90,0.0,64.0
10699,73.0,0,60,6.0,64.0
10700,62.0,38,60,8.0,64.0
10701,67.0,27,90,6.0,64.0
10702,64.0,1,60,8.0,64.0
10703,69.0,39,90,0.0,64.0
10704,45.0,11,210,10.0,64.0
10705,73.0,35,90,6.0,64.0
10706,76.0,20,60,6.0,64.0
10707,61.0,18,60,8.0,64.0
10708,81.0,5,90,1.0,64.0
10709,69.0,15,90,0.0,64.0
10710,62.0,2,40,8.0,64.0
10711,73.0,55,60,6.0,64.0
10712,73.0,55,270,7.0,64.0
10713,76.0,31,60,6.0,64.0
10714,64.0,7,60,8.0,64.0
10715,81.0,23,90,1.0,64.0
10716,69.0,2,90,0.0,64.0
10717,73.0,49,60,6.0,64.0
10718,76.0,21,60,6.0,64.0
10719,64.0,6,60,8.0,64.0
10720,69.0,15,60,0.0,64.0
10721,81.0,30,90,1.0,64.0
10722,66.0,3,60,8.0,64.0
10723,73.0,2,40,6.0,64.0
10724,67.0,2,60,8.0,64.0
10725,67.0,33,60,6.0,64.0
10726,69.0,0,90,0.0,64.0
10727,81.0,31,90,1.0,64.0
10728,73.0,25,90,6.0,64.0
10729,67.0,16,60,8.0,64.0
10730,76.0,23,60,6.0,64.0
10731,57.0,3,60,10.0,64.0
10732,45.0,9,40,3.0,64.0
10733,76.0,24,90,0.0,64.0
10734,81.0,4,90,2.0,64.0
10735,81.0,4,90,1.0,64.0
10736,66.0,0,40,8.0,64.0
10737,74.0,42,90,6.0,64.0
10738,73.0,27,90,6.0,64.0
10739,67.0,8,60,8.0,64.0
10740,45.0,6,60,10.0,64.0
10741,88.0,6,90,1.0,64.0
10742,76.0,5,150,7.0,64.0
10743,81.0,3,90,2.0,64.0
10744,81.0,1,90,0.0,64.0
10745,45.0,7,40,3.0,64.0
10746,71.0,50,60,6.0,64.0
10747,69.0,19,60,6.0,64.0
10748,69.0,6,60,8.0,64.0
10749,49.0,9,60,10.0,64.0
10750,81.0,1,90,1.0,64.0
10751,76.0,14,90,0.0,64.0
10752,81.0,61,90,2.0,64.0
10753,45.0,1,30,3.0,64.0
10754,67.0,3,40,8.0,64.0
10755,67.0,8,40,6.0,64.0
10756,66.0,1,60,6.0,64.0
10757,66.0,2,180,5.0,64.0
10758,66.0,36,270,8.0,64.0
10759,74.0,19,240,7.0,64.0
10760,50.0,54,60,10.0,64.0
10761,74.0,7,150,4.0,64.0
10762,78.0,5,120,0.0,64.0
10763,50.0,8,40,3.0,64.0
10764,74.0,1,150,2.0,64.0
10765,81.0,9,120,1.0,64.0
10766,62.0,25,60,6.0,64.0
10767,64.0,11,60,6.0,64.0
10768,49.0,27,60,10.0,64.0
10769,67.0,28,40,6.0,64.0
10770,66.0,7,60,6.0,64.0
10771,50.0,23,60,10.0,64.0
10772,69.0,90,40,6.0,64.0
10773,68.0,26,60,6.0,64.0
10774,52.0,2,60,10.0,64.0
10775,71.0,94,40,6.0,64.0
10776,54.0,62,60,10.0,64.0
10777,69.0,9,60,6.0,64.0
10778,66.0,44,60,6.0,64.0
10779,52.0,18,60,10.0,64.0
10780,68.0,29,60,6.0,64.0
10781,71.0,80,40,6.0,64.0
10782,54.0,12,60,10.0,64.0
10783,69.0,35,60,6.0,64.0
10784,73.0,82,40,6.0,64.0
10785,56.0,24,90,10.0,64.0
10786,71.0,4,60,6.0,64.0
10787,74.0,94,40,6.0,64.0
10788,57.0,11,60,10.0,64.0
10789,73.0,57,60,6.0,64.0
10790,69.0,52,60,6.0,64.0
10791,71.0,3,60,6.0,64.0
10792,56.0,31,60,10.0,64.0
10793,74.0,76,40,6.0,64.0
10794,73.0,27,60,6.0,64.0
10795,57.0,5,60,10.0,64.0
10796,76.0,87,40,6.0,64.0
10797,74.0,40,60,6.0,64.0
10798,54.0,3,60,10.0,64.0
10799,78.0,82,60,6.0,64.0
10800,76.0,23,150,6.0,64.0
10801,49.0,92,60,10.0,64.0
10802,50.0,35,60,10.0,64.0
10803,78.0,67,30,6.0,64.0
10804,52.0,15,60,10.0,64.0
10805,73.0,24,30,6.0,64.0
10806,71.0,38,40,6.0,64.0
10807,73.0,45,40,6.0,64.0
10808,71.0,32,60,6.0,64.0
10809,40.0,22,60,10.0,64.0
10810,69.0,113,40,6.0,64.0
10811,45.0,45,90,10.0,64.0
10812,69.0,9,60,6.0,64.0
10813,71.0,39,60,6.0,64.0
10814,69.0,11,90,8.0,64.0
10815,76.0,11,40,5.0,64.0
10816,76.0,0,60,7.0,64.0
10817,73.0,1,40,6.0,64.0
10818,88.0,5,90,0.0,64.0
10819,73.0,8,40,4.0,64.0
10820,45.0,30,60,10.0,64.0
10821,74.0,59,60,6.0,64.0
10822,47.0,1,60,10.0,64.0
10823,74.0,2,60,4.0,64.0
10824,69.0,13,90,8.0,64.0
10825,76.0,5,60,6.0,64.0
10826,76.0,4,60,4.0,64.0
10827,49.0,26,60,10.0,64.0
10828,93.0,5,120,0.0,64.0
10829,69.0,0,60,5.0,64.0
10830,69.0,4,60,7.0,64.0
10831,78.0,3,40,6.0,64.0
10832,78.0,55,60,4.0,64.0
10833,76.0,33,60,6.0,64.0
10834,69.0,2,90,8.0,64.0
10835,76.0,7,40,4.0,64.0
10836,88.0,0,90,1.0,64.0
10837,49.0,1,60,10.0,64.0
10838,88.0,58,120,0.0,64.0
10839,73.0,8,150,7.0,64.0
10840,73.0,3,180,5.0,64.0
10841,78.0,5,40,6.0,64.0
10842,50.0,5,40,10.0,64.0
10843,78.0,12,40,4.0,64.0
10844,69.0,0,90,8.0,64.0
10845,79.0,3,60,6.0,64.0
10846,52.0,0,60,10.0,64.0
10847,91.0,8,90,1.0,64.0
10848,79.0,27,60,4.0,64.0
10849,76.0,2,40,6.0,64.0
10850,76.0,63,40,4.0,64.0
10851,69.0,2,60,6.0,64.0
10852,69.0,1,90,8.0,64.0
10853,76.0,12,60,7.0,64.0
10854,69.0,30,60,4.0,64.0
10855,88.0,44,120,1.0,64.0
10856,76.0,2,60,5.0,64.0
10857,88.0,6,90,0.0,64.0
10858,49.0,1,60,10.0,64.0
10859,71.0,8,60,6.0,64.0
10860,71.0,5,60,4.0,64.0
10861,50.0,5,40,10.0,64.0
10862,73.0,19,60,6.0,64.0
10863,69.0,8,90,8.0,64.0
10864,67.0,8,40,7.0,64.0
10865,73.0,2,40,4.0,64.0
10866,91.0,1,90,0.0,64.0
10867,52.0,14,60,10.0,64.0
10868,67.0,5,40,5.0,64.0
10869,74.0,3,40,6.0,64.0
10870,74.0,44,40,4.0,64.0
10871,73.0,18,40,6.0,64.0
10872,73.0,10,60,4.0,64.0
10873,69.0,0,90,8.0,64.0
10874,88.0,9,90,1.0,64.0
10875,88.0,37,120,0.0,64.0
10876,73.0,3,180,7.0,64.0
10877,52.0,23,60,10.0,64.0
10878,73.0,17,180,5.0,64.0
10879,74.0,5,40,6.0,64.0
10880,74.0,1,40,4.0,64.0
10881,54.0,37,40,10.0,64.0
10882,76.0,7,60,6.0,64.0
10883,55.0,3,90,10.0,64.0
10884,76.0,9,60,4.0,64.0
10885,69.0,10,90,8.0,64.0
10886,93.0,5,90,1.0,64.0
10887,74.0,4,60,6.0,64.0
10888,74.0,51,60,4.0,64.0
10889,73.0,5,60,6.0,64.0
10890,69.0,2,90,8.0,64.0
10891,76.0,1,40,7.0,64.0
10892,88.0,6,40,0.0,64.0
10893,73.0,30,60,4.0,64.0
10894,55.0,7,60,10.0,64.0
10895,81.0,0,90,1.0,64.0
10896,81.0,0,90,2.0,64.0
10897,45.0,1,40,3.0,64.0
10898,76.0,1,40,5.0,64.0
10899,74.0,5,60,6.0,64.0
10900,86.0,2,40,0.0,64.0
10901,54.0,6,40,10.0,64.0
10902,74.0,63,60,4.0,64.0
10903,76.0,3,60,6.0,64.0
10904,88.0,1,60,0.0,64.0
10905,55.0,19,60,10.0,64.0
10906,69.0,23,90,8.0,64.0
10907,69.0,12,60,7.0,64.0
10908,81.0,1,90,2.0,64.0
10909,81.0,3,90,1.0,64.0
10910,76.0,3,60,4.0,64.0
10911,69.0,0,60,5.0,64.0
10912,45.0,2,40,3.0,64.0
10913,74.0,34,60,6.0,64.0
10914,74.0,3,60,4.0,64.0
10915,73.0,0,60,6.0,64.0
10916,81.0,0,90,2.0,64.0
10917,73.0,7,60,7.0,64.0
10918,90.0,10,40,0.0,64.0
10919,73.0,10,60,4.0,64.0
10920,69.0,4,90,8.0,64.0
10921,81.0,11,60,1.0,64.0
10922,57.0,12,60,10.0,64.0
10923,73.0,1,40,5.0,64.0
10924,45.0,3,40,3.0,64.0
10925,88.0,5,40,0.0,64.0
10926,71.0,68,60,6.0,64.0
10927,71.0,0,40,4.0,64.0
10928,55.0,4,40,10.0,64.0
10929,86.0,8,60,0.0,64.0
10930,54.0,26,90,10.0,64.0
10931,69.0,2,60,6.0,64.0
10932,69.0,5,60,4.0,64.0
10933,50.0,6,60,3.0,64.0
10934,74.0,4,120,2.0,64.0
10935,69.0,12,90,8.0,64.0
10936,74.0,2,40,7.0,64.0
10937,81.0,26,120,1.0,64.0
10938,74.0,2,60,5.0,64.0
10939,73.0,11,60,7.0,64.0
10940,73.0,13,60,5.0,64.0
10941,74.0,2,60,7.0,64.0
10942,71.0,3,120,8.0,64.0
10943,90.0,3,90,0.0,64.0
10944,78.0,1,40,6.0,64.0
10945,74.0,33,60,5.0,64.0
10946,78.0,17,40,4.0,64.0
10947,47.0,3,60,10.0,64.0
10948,76.0,60,60,7.0,64.0
10949,49.0,1,60,10.0,64.0
10950,76.0,1,40,5.0,64.0
10951,78.0,1,60,7.0,64.0
10952,51.0,2,60,10.0,64.0
10953,95.0,2,90,0.0,64.0
10954,71.0,5,90,8.0,64.0
10955,71.0,11,40,6.0,64.0
10956,78.0,31,60,5.0,64.0
10957,71.0,7,40,4.0,64.0
10958,79.0,3,60,7.0,64.0
10959,79.0,59,40,5.0,64.0
10960,78.0,10,60,7.0,64.0
10961,90.0,55,120,0.0,64.0
10962,51.0,4,60,10.0,64.0
10963,75.0,7,180,6.0,64.0
10964,78.0,31,60,5.0,64.0
10965,90.0,3,90,1.0,64.0
10966,71.0,2,90,8.0,64.0
10967,75.0,4,180,4.0,64.0
10968,79.0,0,40,7.0,64.0
10969,52.0,12,40,10.0,64.0
10970,79.0,7,40,5.0,64.0
10971,54.0,33,60,10.0,64.0
10972,81.0,1,60,7.0,64.0
10973,93.0,9,90,1.0,64.0
10974,71.0,1,90,8.0,64.0
10975,81.0,1,60,5.0,64.0
10976,78.0,3,40,7.0,64.0
10977,78.0,56,60,5.0,64.0
10978,71.0,0,60,7.0,64.0
10979,90.0,6,120,1.0,64.0
10980,71.0,8,90,8.0,64.0
10981,78.0,11,40,4.0,64.0
10982,78.0,3,40,6.0,64.0
10983,51.0,6,60,10.0,64.0
10984,71.0,33,60,5.0,64.0
10985,90.0,2,90,0.0,64.0
10986,73.0,5,60,7.0,64.0
10987,52.0,0,60,10.0,64.0
10988,73.0,45,60,5.0,64.0
10989,54.0,9,90,10.0,64.0
10990,75.0,9,60,7.0,64.0
10991,69.0,11,40,6.0,64.0
10992,93.0,8,90,0.0,64.0
10993,71.0,8,90,8.0,64.0
10994,69.0,3,40,4.0,64.0
10995,75.0,12,60,5.0,64.0
10996,76.0,8,60,7.0,64.0
10997,76.0,57,40,5.0,64.0
10998,75.0,12,60,7.0,64.0
10999,71.0,2,90,8.0,64.0
11000,90.0,0,90,1.0,64.0
11001,54.0,13,60,10.0,64.0
11002,90.0,24,150,0.0,64.0
11003,75.0,12,150,6.0,64.0
11004,75.0,17,60,5.0,64.0
11005,75.0,1,180,4.0,64.0
11006,76.0,2,40,7.0,64.0
11007,56.0,6,40,10.0,64.0
11008,76.0,38,40,5.0,64.0
11009,57.0,27,90,10.0,64.0
11010,71.0,25,120,8.0,64.0
11011,95.0,7,90,1.0,64.0
11012,78.0,6,60,7.0,64.0
11013,78.0,6,60,5.0,64.0
11014,76.0,3,60,7.0,64.0
11015,76.0,29,60,5.0,64.0
11016,78.0,9,40,6.0,64.0
11017,57.0,0,60,10.0,64.0
11018,75.0,37,60,7.0,64.0
11019,90.0,38,120,1.0,64.0
11020,75.0,8,60,5.0,64.0
11021,78.0,1,60,4.0,64.0
11022,71.0,3,90,8.0,64.0
11023,90.0,5,40,0.0,64.0
11024,56.0,3,60,10.0,64.0
11025,76.0,9,60,7.0,64.0
11026,88.0,10,40,0.0,64.0
11027,76.0,3,60,5.0,64.0
11028,57.0,15,60,10.0,64.0
11029,71.0,9,60,6.0,64.0
11030,90.0,10,90,0.0,64.0
11031,78.0,1,60,5.0,64.0
11032,71.0,10,40,4.0,64.0
11033,78.0,2,60,7.0,64.0
11034,71.0,32,90,8.0,64.0
11035,76.0,1,60,5.0,64.0
11036,76.0,40,60,7.0,64.0
11037,75.0,3,60,6.0,64.0
11038,75.0,5,60,7.0,64.0
11039,71.0,34,60,8.0,64.0
11040,59.0,4,60,10.0,64.0
11041,92.0,12,40,0.0,64.0
11042,75.0,1,60,5.0,64.0
11043,75.0,1,40,4.0,64.0
11044,73.0,5,60,7.0,64.0
11045,57.0,4,60,10.0,64.0
11046,90.0,2,40,0.0,64.0
11047,73.0,59,60,5.0,64.0
11048,76.0,12,90,6.0,64.0
11049,71.0,3,120,7.0,64.0
11050,56.0,8,60,10.0,64.0
11051,88.0,15,120,0.0,64.0
11052,71.0,17,60,8.0,64.0
11053,71.0,44,120,5.0,64.0
11054,76.0,11,90,4.0,64.0
11055,76.0,2,40,8.0,64.0
11056,64.0,11,60,6.0,64.0
11057,68.0,8,60,8.0,64.0
11058,76.0,7,120,7.0,64.0
11059,59.0,4,40,10.0,64.0
11060,88.0,4,90,0.0,64.0
11061,76.0,1,90,5.0,64.0
11062,64.0,24,60,4.0,64.0
11063,66.0,4,40,6.0,64.0
11064,69.0,4,40,8.0,64.0
11065,66.0,55,40,4.0,64.0
11066,68.0,7,60,6.0,64.0
11067,71.0,1,60,8.0,64.0
11068,88.0,54,90,0.0,64.0
11069,76.0,3,90,7.0,64.0
11070,52.0,9,40,10.0,64.0
11071,68.0,35,60,4.0,64.0
11072,76.0,1,90,5.0,64.0
11073,73.0,4,60,8.0,64.0
11074,68.0,12,60,6.0,64.0
11075,71.0,32,60,8.0,64.0
11076,56.0,0,180,10.0,64.0
11077,76.0,64,90,7.0,64.0
11078,76.0,6,90,5.0,64.0
11079,68.0,3,40,4.0,64.0
11080,88.0,1,90,0.0,64.0
11081,69.0,7,40,6.0,64.0
11082,73.0,2,40,8.0,64.0
11083,69.0,5,60,4.0,64.0
11084,71.0,9,60,6.0,64.0
11085,74.0,3,60,8.0,64.0
11086,71.0,26,60,4.0,64.0
11087,76.0,1,90,5.0,64.0
11088,76.0,7,90,7.0,64.0
11089,88.0,56,90,0.0,64.0
11090,71.0,6,40,8.0,64.0
11091,64.0,32,60,8.0,64.0
11092,68.0,13,60,6.0,64.0
11093,88.0,1,90,1.0,64.0
11094,59.0,4,40,10.0,64.0
11095,68.0,1,40,4.0,64.0
11096,76.0,2,90,7.0,64.0
11097,76.0,1,90,5.0,64.0
11098,88.0,58,90,0.0,64.0
11099,66.0,9,60,8.0,64.0
11100,69.0,2,40,4.0,64.0
11101,69.0,2,40,6.0,64.0
11102,68.0,10,60,8.0,64.0
11103,71.0,29,60,6.0,64.0
11104,76.0,2,90,7.0,64.0
11105,71.0,1,60,4.0,64.0
11106,88.0,2,90,1.0,64.0
11107,50.0,5,40,10.0,64.0
11108,88.0,15,90,0.0,64.0
11109,76.0,51,90,5.0,64.0
11110,69.0,0,40,8.0,64.0
11111,68.0,15,60,8.0,64.0
11112,76.0,2,90,7.0,64.0
11113,71.0,6,60,6.0,64.0
11114,56.0,1,180,10.0,64.0
11115,88.0,13,90,1.0,64.0
11116,71.0,26,60,4.0,64.0
11117,76.0,0,90,5.0,64.0
11118,88.0,1,90,0.0,64.0
11119,69.0,1,40,8.0,64.0
11120,73.0,0,40,6.0,64.0
11121,73.0,62,40,4.0,64.0
11122,71.0,4,60,8.0,64.0
11123,74.0,2,60,6.0,64.0
11124,76.0,4,90,7.0,64.0
11125,76.0,1,90,5.0,64.0
11126,74.0,34,60,4.0,64.0
11127,88.0,0,90,0.0,64.0
11128,88.0,2,90,1.0,64.0
11129,69.0,63,60,8.0,64.0
11130,68.0,2,60,8.0,64.0
11131,74.0,1,40,6.0,64.0
11132,74.0,1,40,4.0,64.0
11133,76.0,6,90,5.0,64.0
11134,92.0,75,90,1.0,64.0
11135,59.0,31,40,10.0,64.0
11136,76.0,3,90,7.0,64.0
11137,95.0,4,90,0.0,64.0
11138,88.0,0,90,2.0,64.0
11139,69.0,8,40,8.0,64.0
11140,73.0,2,40,4.0,64.0
11141,73.0,1,40,6.0,64.0
11142,71.0,10,60,8.0,64.0
11143,74.0,11,90,6.0,64.0
11144,74.0,1,60,4.0,64.0
11145,76.0,1,90,5.0,64.0
11146,76.0,11,90,7.0,64.0
11147,92.0,2,90,0.0,64.0
11148,88.0,3,90,2.0,64.0
11149,95.0,3,90,1.0,64.0
11150,52.0,1,60,10.0,64.0
11151,69.0,63,60,8.0,64.0
11152,68.0,0,60,8.0,64.0
11153,56.0,12,60,10.0,64.0
11154,95.0,7,90,0.0,64.0
11155,71.0,10,90,7.0,64.0
11156,76.0,9,40,6.0,64.0
11157,92.0,2,90,1.0,64.0
11158,71.0,2,60,5.0,64.0
11159,88.0,0,90,2.0,64.0
11160,76.0,9,60,4.0,64.0
11161,66.0,64,60,8.0,64.0
11162,74.0,2,60,6.0,64.0
11163,74.0,6,40,4.0,64.0
11164,64.0,3,60,8.0,64.0
11165,73.0,0,60,6.0,64.0
11166,69.0,1,60,5.0,64.0
11167,73.0,46,60,4.0,64.0
11168,88.0,4,120,2.0,64.0
11169,45.0,7,60,3.0,64.0
11170,45.0,8,60,10.0,64.0
11171,88.0,26,120,1.0,64.0
11172,69.0,2,60,7.0,64.0
11173,97.0,2,120,0.0,64.0
11174,68.0,2,60,5.0,64.0
11175,68.0,9,60,7.0,64.0
11176,69.0,23,60,5.0,64.0
11177,57.0,7,60,10.0,64.0
11178,61.0,15,40,8.0,64.0
11179,69.0,3,90,7.0,64.0
11180,73.0,2,40,4.0,64.0
11181,73.0,3,40,6.0,64.0
11182,71.0,5,40,6.0,64.0
11183,71.0,1,40,4.0,64.0
11184,71.0,78,40,5.0,64.0
11185,71.0,0,30,7.0,64.0
11186,73.0,5,90,6.0,64.0
11187,73.0,14,90,4.0,64.0
11188,69.0,3,60,7.0,64.0
11189,69.0,28,60,5.0,64.0
11190,50.0,10,60,10.0,64.0
11191,66.0,29,270,8.0,64.0
11192,68.0,30,60,5.0,64.0
11193,68.0,11,60,7.0,64.0
11194,54.0,36,60,10.0,64.0
11195,66.0,4,40,7.0,64.0
11196,74.0,1,40,6.0,64.0
11197,66.0,14,40,5.0,64.0
11198,74.0,2,30,4.0,64.0
11199,73.0,3,40,6.0,64.0
11200,69.0,41,60,7.0,64.0
11201,73.0,5,40,4.0,64.0
11202,69.0,9,30,5.0,64.0
11203,71.0,1,60,6.0,64.0
11204,44.0,3,60,10.0,64.0
11205,71.0,55,60,4.0,64.0
11206,68.0,3,60,5.0,64.0
11207,68.0,5,60,7.0,64.0
11208,69.0,5,60,5.0,64.0
11209,69.0,36,60,7.0,64.0
11210,56.0,0,60,10.0,64.0
11211,68.0,0,60,7.0,64.0
11212,71.0,7,40,6.0,64.0
11213,68.0,2,60,5.0,64.0
11214,71.0,5,60,4.0,64.0
11215,65.0,34,60,8.0,64.0
11216,69.0,2,40,6.0,64.0
11217,66.0,66,60,7.0,64.0
11218,69.0,11,40,4.0,64.0
11219,66.0,1,40,5.0,64.0
11220,66.0,8,40,8.0,64.0
11221,71.0,4,90,6.0,64.0
11222,65.0,0,60,5.0,64.0
11223,65.0,26,60,7.0,64.0
11224,49.0,8,60,10.0,64.0
11225,68.0,0,60,8.0,64.0
11226,71.0,7,90,4.0,64.0
11227,66.0,63,40,8.0,64.0
11228,65.0,0,60,8.0,64.0
11229,73.0,1,60,6.0,64.0
11230,68.0,22,90,7.0,64.0
11231,68.0,0,60,5.0,64.0
11232,53.0,11,60,10.0,64.0
11233,73.0,15,40,4.0,64.0
11234,71.0,8,40,6.0,64.0
11235,63.0,0,60,8.0,64.0
11236,71.0,73,40,4.0,64.0
11237,61.0,3,60,8.0,64.0
11238,69.0,0,60,6.0,64.0
11239,42.0,0,60,10.0,64.0
11240,69.0,8,60,5.0,64.0
11241,69.0,0,60,7.0,64.0
11242,69.0,36,60,4.0,64.0
11243,73.0,54,60,5.0,64.0
11244,73.0,5,40,7.0,64.0
11245,66.0,5,60,7.0,64.0
11246,61.0,11,40,8.0,64.0
11247,66.0,33,60,5.0,64.0
11248,69.0,1,60,6.0,64.0
11249,54.0,1,60,10.0,64.0
11250,69.0,3,40,4.0,64.0
11251,71.0,5,60,6.0,64.0
11252,68.0,10,60,7.0,64.0
11253,71.0,2,40,4.0,64.0
11254,68.0,46,60,5.0,64.0
11255,73.0,11,60,6.0,64.0
11256,69.0,3,60,7.0,64.0
11257,54.0,5,40,8.0,64.0
11258,73.0,3,60,4.0,64.0
11259,69.0,49,60,5.0,64.0
11260,52.0,4,60,10.0,64.0
11261,71.0,8,60,7.0,64.0
11262,71.0,38,60,5.0,64.0
11263,73.0,12,60,6.0,64.0
11264,69.0,5,60,7.0,64.0
11265,50.0,0,60,10.0,64.0
11266,57.0,4,180,8.0,64.0
11267,73.0,16,40,4.0,64.0
11268,69.0,8,60,5.0,64.0
11269,74.0,13,40,6.0,64.0
11270,74.0,10,40,4.0,64.0
11271,71.0,3,40,7.0,64.0
11272,71.0,62,40,5.0,64.0
11273,76.0,10,60,6.0,64.0
11274,76.0,4,60,4.0,64.0
11275,49.0,0,60,10.0,64.0
11276,73.0,8,60,7.0,64.0
11277,73.0,23,60,5.0,64.0
11278,76.0,13,40,7.0,64.0
11279,76.0,48,60,5.0,64.0
11280,73.0,10,60,6.0,64.0
11281,69.0,8,60,7.0,64.0
11282,54.0,3,60,10.0,64.0
11283,69.0,2,90,8.0,64.0
11284,69.0,26,60,5.0,64.0
11285,73.0,1,60,4.0,64.0
11286,74.0,8,40,6.0,64.0
11287,71.0,7,60,7.0,64.0
11288,71.0,7,40,5.0,64.0
11289,74.0,57,40,4.0,64.0
11290,76.0,2,60,6.0,64.0
11291,52.0,1,60,10.0,64.0
11292,73.0,5,60,7.0,64.0
11293,73.0,0,60,5.0,64.0
11294,69.0,10,90,8.0,64.0
11295,76.0,33,60,4.0,64.0
11296,74.0,3,60,7.0,64.0
11297,74.0,48,60,5.0,64.0
11298,73.0,17,40,7.0,64.0
11299,50.0,9,60,10.0,64.0
11300,73.0,0,60,5.0,64.0
11301,69.0,1,90,8.0,64.0
11302,76.0,8,60,6.0,64.0
11303,76.0,20,60,4.0,64.0
11304,74.0,11,40,7.0,64.0
11305,74.0,2,40,5.0,64.0
11306,78.0,0,40,6.0,64.0
11307,78.0,75,40,4.0,64.0
11308,76.0,3,60,7.0,64.0
11309,49.0,1,60,10.0,64.0
11310,79.0,3,60,4.0,64.0
11311,69.0,20,90,8.0,64.0
11312,79.0,3,60,6.0,64.0
11313,76.0,27,60,5.0,64.0
11314,74.0,1,60,7.0,64.0
11315,74.0,52,60,5.0,64.0
11316,73.0,11,60,7.0,64.0
11317,69.0,7,90,8.0,64.0
11318,73.0,22,60,5.0,64.0
11319,52.0,5,60,10.0,64.0
11320,79.0,5,40,4.0,64.0
11321,79.0,4,40,6.0,64.0
11322,74.0,2,40,7.0,64.0
11323,78.0,0,60,6.0,64.0
11324,78.0,2,40,4.0,64.0
11325,74.0,77,40,5.0,64.0
11326,45.0,7,60,10.0,64.0
11327,76.0,2,60,7.0,64.0
11328,79.0,29,60,6.0,64.0
11329,79.0,1,60,4.0,64.0
11330,69.0,25,90,8.0,64.0
11331,76.0,2,60,5.0,64.0
11332,74.0,44,60,7.0,64.0
11333,74.0,2,60,5.0,64.0
11334,73.0,2,60,5.0,64.0
11335,49.0,10,60,10.0,64.0
11336,73.0,4,60,7.0,64.0
11337,81.0,16,60,6.0,64.0
11338,64.0,2,90,8.0,64.0
11339,81.0,7,60,4.0,64.0
11340,79.0,15,40,6.0,64.0
11341,71.0,2,60,7.0,64.0
11342,71.0,61,60,5.0,64.0
11343,79.0,9,40,4.0,64.0
11344,78.0,1,60,6.0,64.0
11345,50.0,10,60,10.0,64.0
11346,69.0,0,60,5.0,64.0
11347,66.0,5,90,8.0,64.0
11348,69.0,24,60,7.0,64.0
11349,78.0,5,60,4.0,64.0
11350,74.0,6,60,6.0,64.0
11351,74.0,67,40,4.0,64.0
11352,71.0,40,60,6.0,64.0
11353,66.0,8,90,8.0,64.0
11354,62.0,1,60,10.0,64.0
11355,66.0,5,40,5.0,64.0
11356,66.0,1,40,7.0,64.0
11357,71.0,0,60,4.0,64.0
11358,73.0,1,60,6.0,64.0
11359,73.0,57,40,4.0,64.0
11360,74.0,9,60,6.0,64.0
11361,74.0,25,60,4.0,64.0
11362,66.0,10,90,8.0,64.0
11363,55.0,7,40,10.0,64.0
11364,71.0,14,270,5.0,64.0
11365,71.0,12,240,7.0,64.0
11366,76.0,6,60,6.0,64.0
11367,76.0,45,40,4.0,64.0
11368,73.0,15,60,6.0,64.0
11369,66.0,5,90,8.0,64.0
11370,73.0,18,40,4.0,64.0
11371,59.0,19,60,10.0,64.0
11372,74.0,14,40,6.0,64.0
11373,74.0,46,40,4.0,64.0
11374,76.0,4,60,6.0,64.0
11375,64.0,2,90,8.0,64.0
11376,49.0,10,60,10.0,64.0
11377,76.0,25,60,4.0,64.0
11378,73.0,16,60,6.0,64.0
11379,73.0,47,40,4.0,64.0
11380,70.0,6,60,6.0,64.0
11381,76.0,5,60,7.0,64.0
11382,67.0,11,90,8.0,64.0
11383,76.0,2,60,5.0,64.0
11384,61.0,24,60,10.0,64.0
11385,70.0,9,40,4.0,64.0
11386,71.0,9,60,6.0,64.0
11387,71.0,55,40,4.0,64.0
11388,73.0,2,60,6.0,64.0
11389,70.0,8,40,7.0,64.0
11390,54.0,12,40,10.0,64.0
11391,66.0,5,60,8.0,64.0
11392,70.0,1,60,5.0,64.0
11393,73.0,25,60,4.0,64.0
11394,74.0,4,40,6.0,64.0
11395,74.0,59,40,4.0,64.0
11396,71.0,10,40,6.0,64.0
11397,71.0,0,60,4.0,64.0
11398,66.0,7,150,7.0,64.0
11399,66.0,24,60,8.0,64.0
11400,58.0,23,40,10.0,64.0
11401,66.0,18,150,5.0,64.0
11402,73.0,61,40,6.0,64.0
11403,73.0,0,40,4.0,64.0
11404,74.0,2,60,6.0,64.0
11405,74.0,11,60,4.0,64.0
11406,47.0,6,60,10.0,64.0
11407,71.0,20,90,8.0,64.0
11408,76.0,0,60,6.0,64.0
11409,67.0,5,40,7.0,64.0
11410,76.0,2,40,4.0,64.0
11411,67.0,68,40,5.0,64.0
11412,73.0,2,60,6.0,64.0
11413,64.0,30,60,7.0,64.0
11414,73.0,0,60,4.0,64.0
11415,59.0,7,60,10.0,64.0
11416,64.0,2,60,5.0,64.0
11417,66.0,1,60,8.0,64.0
11418,74.0,3,60,6.0,64.0
11419,66.0,0,40,7.0,64.0
11420,74.0,2,40,4.0,64.0
11421,66.0,66,40,5.0,64.0
11422,76.0,1,60,6.0,64.0
11423,67.0,13,60,7.0,64.0
11424,76.0,46,60,4.0,64.0
11425,67.0,5,60,5.0,64.0
11426,71.0,1,60,8.0,64.0
11427,52.0,6,60,10.0,64.0
11428,74.0,41,60,6.0,64.0
11429,74.0,3,60,4.0,64.0
11430,73.0,3,60,6.0,64.0
11431,55.0,13,60,10.0,64.0
11432,73.0,4,40,4.0,64.0
11433,64.0,3,60,7.0,64.0
11434,64.0,2,40,5.0,64.0
11435,71.0,30,60,8.0,64.0
11436,71.0,2,40,6.0,64.0
11437,71.0,67,40,4.0,64.0
11438,78.0,7,120,6.0,64.0
11439,78.0,0,120,4.0,64.0
11440,73.0,10,40,7.0,64.0
11441,70.0,22,60,8.0,64.0
11442,54.0,24,60,10.0,64.0
11443,73.0,1,40,5.0,64.0
11444,78.0,1,60,7.0,64.0
11445,78.0,59,40,5.0,64.0
11446,70.0,5,60,7.0,64.0
11447,42.0,31,60,10.0,64.0
11448,78.0,1,90,6.0,64.0
11449,70.0,5,60,5.0,64.0
11450,73.0,2,40,8.0,64.0
11451,78.0,9,90,4.0,64.0
11452,90.0,4,90,0.0,64.0
11453,71.0,3,40,7.0,64.0
11454,44.0,8,40,10.0,64.0
11455,71.0,51,60,5.0,64.0
11456,73.0,12,60,7.0,64.0
11457,46.0,10,60,10.0,64.0
11458,78.0,3,90,6.0,64.0
11459,66.0,0,40,8.0,64.0
11460,90.0,55,90,0.0,64.0
11461,73.0,13,60,5.0,64.0
11462,78.0,2,90,4.0,64.0
11463,74.0,18,40,7.0,64.0
11464,74.0,2,40,5.0,64.0
11465,73.0,11,60,7.0,64.0
11466,73.0,23,60,5.0,64.0
11467,46.0,8,60,10.0,64.0
11468,78.0,3,90,6.0,64.0
11469,78.0,6,90,4.0,64.0
11470,70.0,2,150,8.0,64.0
11471,90.0,64,90,0.0,64.0
11472,74.0,3,60,7.0,64.0
11473,47.0,5,40,10.0,64.0
11474,74.0,0,60,5.0,64.0
11475,76.0,14,60,7.0,64.0
11476,49.0,10,90,10.0,64.0
11477,76.0,23,60,5.0,64.0
11478,78.0,4,120,6.0,64.0
11479,78.0,2,90,4.0,64.0
11480,90.0,2,90,0.0,64.0
11481,73.0,7,60,7.0,64.0
11482,73.0,55,60,5.0,64.0
11483,66.0,5,60,7.0,64.0
11484,46.0,11,60,10.0,64.0
11485,73.0,9,40,8.0,64.0
11486,66.0,25,60,5.0,64.0
11487,90.0,1,90,0.0,64.0
11488,78.0,4,90,6.0,64.0
11489,78.0,0,90,4.0,64.0
11490,90.0,21,90,1.0,64.0
11491,68.0,2,60,7.0,64.0
11492,47.0,3,60,10.0,64.0
11493,68.0,38,60,5.0,64.0
11494,70.0,10,60,7.0,64.0
11495,49.0,10,60,10.0,64.0
11496,70.0,32,60,5.0,64.0
11497,78.0,4,90,6.0,64.0
11498,78.0,0,90,4.0,64.0
11499,90.0,0,90,0.0,64.0
11500,64.0,1,60,8.0,64.0
11501,90.0,5,90,1.0,64.0
11502,71.0,7,60,7.0,64.0
11503,71.0,54,60,5.0,64.0
11504,70.0,35,60,7.0,64.0
11505,78.0,1,90,6.0,64.0
11506,70.0,7,60,5.0,64.0
11507,90.0,8,90,0.0,64.0
11508,49.0,1,60,10.0,64.0
11509,78.0,3,90,4.0,64.0
11510,70.0,4,180,8.0,64.0
11511,90.0,0,90,1.0,64.0
11512,71.0,6,60,5.0,64.0
11513,71.0,3,60,7.0,64.0
11514,50.0,70,60,10.0,64.0
11515,78.0,5,90,6.0,64.0
11516,73.0,2,90,7.0,64.0
11517,73.0,5,60,5.0,64.0
11518,52.0,24,60,10.0,64.0
11519,90.0,4,90,0.0,64.0
11520,78.0,27,90,4.0,64.0
11521,90.0,0,90,1.0,64.0
11522,71.0,0,60,7.0,64.0
11523,71.0,32,60,5.0,64.0
11524,70.0,11,60,7.0,64.0
11525,78.0,1,90,6.0,64.0
11526,73.0,9,40,8.0,64.0
11527,90.0,0,90,2.0,64.0
11528,90.0,0,90,0.0,64.0
11529,90.0,1,90,1.0,64.0
11530,78.0,2,90,4.0,64.0
11531,70.0,26,60,5.0,64.0
11532,52.0,7,60,10.0,64.0
11533,71.0,5,60,7.0,64.0
11534,50.0,10,40,10.0,64.0
11535,71.0,58,60,5.0,64.0
11536,73.0,11,60,7.0,64.0
11537,66.0,13,60,8.0,64.0
11538,52.0,5,90,10.0,64.0
11539,78.0,3,90,6.0,64.0
11540,90.0,0,90,2.0,64.0
11541,90.0,23,90,1.0,64.0
11542,90.0,1,90,0.0,64.0
11543,73.0,6,60,5.0,64.0
11544,78.0,1,90,4.0,64.0
11545,76.0,26,60,7.0,64.0
11546,76.0,21,90,5.0,64.0
11547,74.0,20,60,7.0,64.0
11548,78.0,5,60,6.0,64.0
11549,70.0,4,60,8.0,64.0
11550,54.0,4,60,10.0,64.0
11551,90.0,3,90,0.0,64.0
11552,74.0,1,60,5.0,64.0
11553,90.0,11,90,1.0,64.0
11554,90.0,3,90,2.0,64.0
11555,78.0,6,60,4.0,64.0
11556,73.0,13,60,7.0,64.0
11557,52.0,1,40,10.0,64.0
11558,73.0,49,60,5.0,64.0
11559,71.0,14,60,7.0,64.0
11560,50.0,9,60,10.0,64.0
11561,78.0,1,60,6.0,64.0
11562,95.0,4,150,0.0,64.0
11563,71.0,1,60,8.0,64.0
11564,50.0,1,60,3.0,64.0
11565,78.0,34,60,4.0,64.0
11566,71.0,0,60,5.0,64.0
11567,78.0,22,120,2.0,64.0
11568,90.0,2,120,1.0,64.0
11569,76.0,19,60,6.0,64.0
11570,76.0,10,40,4.0,64.0
11571,78.0,0,60,6.0,64.0
11572,78.0,34,60,4.0,64.0
11573,59.0,6,60,8.0,64.0
11574,66.0,4,40,7.0,64.0
11575,50.0,5,40,10.0,64.0
11576,66.0,3,40,5.0,64.0
11577,79.0,2,60,6.0,64.0
11578,79.0,56,40,4.0,64.0
11579,49.0,5,40,10.0,64.0
11580,78.0,16,40,6.0,64.0
11581,71.0,31,270,7.0,64.0
11582,78.0,3,40,4.0,64.0
11583,50.0,7,90,10.0,64.0
11584,71.0,5,300,5.0,64.0
11585,62.0,39,60,8.0,64.0
11586,83.0,45,60,6.0,64.0
11587,83.0,9,40,4.0,64.0
11588,82.0,41,60,6.0,64.0
11589,82.0,2,40,4.0,64.0
11590,66.0,4,60,8.0,64.0
11591,52.0,9,40,10.0,64.0
11592,83.0,4,60,6.0,64.0
11593,50.0,1,40,10.0,64.0
11594,83.0,44,40,4.0,64.0
11595,76.0,2,60,6.0,64.0
11596,49.0,32,60,10.0,64.0
11597,67.0,0,60,8.0,64.0
11598,76.0,1,60,4.0,64.0
11599,74.0,13,60,6.0,64.0
11600,74.0,51,40,4.0,64.0
11601,76.0,3,60,6.0,64.0
11602,71.0,26,60,8.0,64.0
11603,64.0,12,40,7.0,64.0
11604,64.0,1,60,5.0,64.0
11605,49.0,4,40,10.0,64.0
11606,76.0,5,60,4.0,64.0
11607,78.0,6,40,6.0,64.0
11608,47.0,0,40,10.0,64.0
11609,78.0,62,40,4.0,64.0
11610,49.0,21,90,10.0,64.0
11611,76.0,6,40,6.0,64.0
11612,70.0,11,60,8.0,64.0
11613,61.0,6,60,7.0,64.0
11614,61.0,13,60,5.0,64.0
11615,76.0,4,40,4.0,64.0
11616,79.0,42,60,6.0,64.0
11617,79.0,15,40,4.0,64.0
11618,78.0,2,60,6.0,64.0
11619,70.0,8,60,7.0,64.0
11620,70.0,2,40,5.0,64.0
11621,78.0,2,40,4.0,64.0
11622,50.0,4,60,10.0,64.0
11623,66.0,32,60,8.0,64.0
11624,76.0,4,40,6.0,64.0
11625,49.0,4,40,10.0,64.0
11626,76.0,67,40,4.0,64.0
11627,74.0,7,60,6.0,64.0
11628,71.0,5,60,7.0,64.0
11629,47.0,37,60,10.0,64.0
11630,74.0,1,60,4.0,64.0
11631,66.0,5,60,8.0,64.0
11632,71.0,2,40,5.0,64.0
11633,49.0,40,60,10.0,64.0
11634,50.0,20,40,10.0,64.0
11635,71.0,1,60,7.0,64.0
11636,71.0,2,60,5.0,64.0
11637,78.0,10,40,4.0,64.0
11638,62.0,3,60,8.0,64.0
11639,78.0,19,60,6.0,64.0
11640,47.0,82,40,10.0,64.0
11641,52.0,8,60,10.0,64.0
11642,71.0,29,60,7.0,64.0
11643,71.0,10,60,5.0,64.0
11644,59.0,0,60,8.0,64.0
11645,79.0,2,40,6.0,64.0
11646,79.0,3,40,4.0,64.0
11647,54.0,59,40,10.0,64.0
11648,55.0,7,40,10.0,64.0
11649,67.0,11,40,5.0,64.0
11650,59.0,1,60,8.0,64.0
11651,64.0,7,60,7.0,64.0
11652,71.0,10,60,4.0,64.0
11653,71.0,19,60,6.0,64.0
11654,52.0,100,40,10.0,64.0
11655,70.0,6,60,4.0,64.0
11656,66.0,6,240,5.0,64.0
11657,66.0,37,270,8.0,64.0
11658,54.0,4,240,10.0,64.0
11659,70.0,53,60,6.0,64.0
11660,61.0,8,240,7.0,64.0
11661,66.0,3,60,4.0,64.0
11662,66.0,54,60,6.0,64.0
11663,68.0,8,60,4.0,64.0
11664,68.0,27,60,6.0,64.0
11665,70.0,23,40,6.0,64.0
11666,70.0,4,40,4.0,64.0
11667,71.0,46,60,6.0,64.0
11668,71.0,8,60,4.0,64.0
11669,73.0,50,60,6.0,64.0
11670,73.0,6,60,4.0,64.0
11671,74.0,1,60,6.0,64.0
11672,74.0,3,60,4.0,64.0
11673,73.0,0,60,7.0,64.0
11674,70.0,6,60,8.0,64.0
11675,52.0,1,40,10.0,64.0
11676,73.0,39,60,5.0,64.0
11677,76.0,67,60,6.0,64.0
11678,76.0,12,40,4.0,64.0
11679,78.0,3,60,6.0,64.0
11680,71.0,1,60,7.0,64.0
11681,66.0,1,60,8.0,64.0
11682,78.0,46,60,4.0,64.0
11683,71.0,3,60,5.0,64.0
11684,50.0,6,60,10.0,64.0
11685,79.0,30,60,6.0,64.0
11686,79.0,14,60,4.0,64.0
11687,70.0,8,40,5.0,64.0
11688,61.0,2,60,8.0,64.0
11689,70.0,3,40,7.0,64.0
11690,54.0,5,60,10.0,64.0
11691,78.0,12,60,4.0,64.0
11692,78.0,51,60,6.0,64.0
11693,76.0,37,60,4.0,64.0
11694,76.0,1,60,6.0,64.0
11695,66.0,0,60,7.0,64.0
11696,66.0,4,60,5.0,64.0
11697,59.0,6,60,8.0,64.0
11698,74.0,7,40,4.0,64.0
11699,74.0,53,60,6.0,64.0
11700,59.0,3,40,10.0,64.0
11701,73.0,9,60,4.0,64.0
11702,73.0,56,60,6.0,64.0
11703,71.0,7,60,4.0,64.0
11704,66.0,3,60,7.0,64.0
11705,66.0,2,60,5.0,64.0
11706,54.0,31,60,10.0,64.0
11707,71.0,5,60,6.0,64.0
11708,62.0,0,60,8.0,64.0
11709,70.0,0,60,4.0,64.0
11710,70.0,65,40,6.0,64.0
11711,71.0,7,60,4.0,64.0
11712,62.0,2,60,7.0,64.0
11713,62.0,12,60,5.0,64.0
11714,59.0,103,60,8.0,64.0
11715,55.0,1,60,10.0,64.0
11716,71.0,4,40,6.0,64.0
11717,67.0,1,60,7.0,64.0
11718,67.0,1,60,5.0,64.0
11719,52.0,2,60,10.0,64.0
11720,73.0,1,60,6.0,64.0
11721,64.0,114,60,8.0,64.0
11722,73.0,1,40,4.0,64.0
11723,66.0,1,60,7.0,64.0
11724,66.0,1,60,5.0,64.0
11725,66.0,4,40,6.0,64.0
11726,62.0,0,60,8.0,64.0
11727,54.0,111,60,10.0,64.0
11728,66.0,4,40,4.0,64.0
11729,70.0,136,90,6.0,64.0
11730,61.0,18,60,8.0,64.0
11731,66.0,3,60,5.0,64.0
11732,66.0,0,60,7.0,64.0
11733,42.0,4,40,10.0,64.0
11734,70.0,3,40,4.0,64.0
11735,66.0,41,150,5.0,64.0
11736,66.0,7,240,7.0,64.0
11737,62.0,3,240,8.0,64.0
11738,47.0,53,240,10.0,64.0
11739,71.0,17,120,4.0,64.0
11740,71.0,26,60,6.0,64.0
11741,66.0,15,60,6.0,64.0
11742,62.0,55,60,6.0,64.0
11743,66.0,5,60,6.0,64.0
11744,71.0,55,60,6.0,64.0
11745,74.0,44,60,6.0,64.0
11746,66.0,7,60,7.0,64.0
11747,58.0,3,60,10.0,64.0
11748,73.0,43,60,6.0,64.0
11749,61.0,2,40,8.0,64.0
11750,76.0,69,60,6.0,64.0
11751,74.0,49,60,6.0,64.0
11752,66.0,3,60,7.0,64.0
11753,59.0,10,60,10.0,64.0
11754,59.0,5,40,8.0,64.0
11755,78.0,44,60,6.0,64.0
11756,67.0,7,40,7.0,64.0
11757,83.0,31,60,6.0,64.0
11758,55.0,7,60,10.0,64.0
11759,62.0,0,40,8.0,64.0
11760,74.0,76,40,6.0,64.0
11761,73.0,54,60,6.0,64.0
11762,52.0,3,60,10.0,64.0
11763,67.0,7,60,7.0,64.0
11764,61.0,2,40,8.0,64.0
11765,83.0,51,60,6.0,64.0
11766,66.0,0,60,7.0,64.0
11767,54.0,2,60,10.0,64.0
11768,73.0,3,60,6.0,64.0
11769,61.0,47,40,8.0,64.0
11770,82.0,79,40,6.0,64.0
11771,83.0,57,60,6.0,64.0
11772,66.0,4,240,7.0,64.0
11773,47.0,24,240,10.0,64.0
11774,62.0,5,240,8.0,64.0
11775,78.0,54,60,6.0,64.0
11776,74.0,58,60,6.0,64.0
11777,78.0,22,60,6.0,64.0
11778,71.0,44,60,6.0,64.0
11779,74.0,75,40,6.0,64.0
11780,68.0,1,60,6.0,64.0
11781,59.0,4,40,10.0,64.0
11782,68.0,36,60,8.0,64.0
11783,73.0,4,60,7.0,64.0
11784,77.0,84,40,6.0,64.0
11785,78.0,54,60,6.0,64.0
11786,57.0,4,60,10.0,64.0
11787,73.0,5,60,7.0,64.0
11788,69.0,0,60,8.0,64.0
11789,73.0,49,60,6.0,64.0
11790,69.0,48,60,6.0,64.0
11791,62.0,2,60,10.0,64.0
11792,66.0,5,40,8.0,64.0
11793,74.0,2,60,7.0,64.0
11794,73.0,63,60,6.0,64.0
11795,68.0,4,60,6.0,64.0
11796,59.0,46,60,10.0,64.0
11797,74.0,1,60,7.0,64.0
11798,71.0,0,40,8.0,64.0
11799,78.0,59,60,6.0,64.0
11800,68.0,11,60,6.0,64.0
11801,73.0,38,60,7.0,64.0
11802,61.0,1,40,10.0,64.0
11803,71.0,1,40,8.0,64.0
11804,77.0,90,40,6.0,64.0
11805,78.0,33,60,6.0,64.0
11806,54.0,15,90,10.0,64.0
11807,73.0,51,270,7.0,64.0
11808,69.0,6,240,8.0,64.0
11809,73.0,63,60,6.0,64.0
11810,69.0,36,60,6.0,64.0
11811,54.0,8,90,10.0,64.0
11812,73.0,40,40,6.0,64.0
11813,78.0,4,90,6.0,64.0
11814,54.0,34,90,10.0,64.0
11815,79.0,53,60,6.0,64.0
11816,54.0,0,60,10.0,64.0
11817,73.0,48,60,7.0,64.0
11818,81.0,2,40,6.0,64.0
11819,66.0,0,40,8.0,64.0
11820,78.0,77,40,6.0,64.0
11821,69.0,12,60,7.0,64.0
11822,72.0,56,60,6.0,64.0
11823,66.0,0,60,8.0,64.0
11824,71.0,43,60,6.0,64.0
11825,52.0,91,90,10.0,64.0
11826,66.0,34,60,8.0,64.0
11827,69.0,9,40,7.0,64.0
11828,72.0,0,40,6.0,64.0
11829,81.0,15,30,6.0,64.0
11830,72.0,15,60,6.0,64.0
11831,52.0,34,90,10.0,64.0
11832,71.0,41,60,6.0,64.0
11833,69.0,6,40,7.0,64.0
11834,72.0,9,60,6.0,64.0
11835,66.0,6,40,8.0,64.0
11836,52.0,22,60,10.0,64.0
11837,81.0,95,30,6.0,64.0
11838,63.0,2,60,7.0,64.0
11839,71.0,56,60,6.0,64.0
11840,66.0,13,60,8.0,64.0
11841,69.0,38,60,6.0,64.0
11842,71.0,36,60,6.0,64.0
11843,66.0,13,40,8.0,64.0
11844,51.0,33,90,10.0,64.0
11845,69.0,9,60,7.0,64.0
11846,73.0,27,90,6.0,64.0
11847,75.0,48,40,6.0,64.0
11848,51.0,28,90,10.0,64.0
11849,76.0,44,60,6.0,64.0
11850,78.0,6,60,6.0,64.0
11851,66.0,7,40,8.0,64.0
11852,71.0,42,60,7.0,64.0
11853,51.0,1,40,10.0,64.0
11854,79.0,81,60,6.0,64.0
11855,71.0,57,60,7.0,64.0
11856,81.0,4,60,6.0,64.0
11857,63.0,1,60,8.0,64.0
11858,78.0,43,60,6.0,64.0
11859,75.0,1,60,6.0,64.0
11860,66.0,5,60,8.0,64.0
11861,71.0,42,60,7.0,64.0
11862,47.0,27,90,10.0,64.0
11863,78.0,38,60,6.0,64.0
11864,71.0,45,40,6.0,64.0
11865,47.0,39,90,10.0,64.0
11866,81.0,41,90,6.0,64.0
11867,79.0,2,60,6.0,64.0
11868,47.0,0,40,10.0,64.0
11869,71.0,36,60,7.0,64.0
11870,63.0,8,40,8.0,64.0
11871,78.0,84,40,6.0,64.0
11872,79.0,59,90,6.0,64.0
11873,64.0,2,60,8.0,64.0
11874,71.0,11,60,7.0,64.0
11875,76.0,36,90,6.0,64.0
11876,71.0,42,60,6.0,64.0
11877,76.0,9,60,7.0,64.0
11878,67.0,3,60,8.0,64.0
11879,52.0,74,90,10.0,64.0
11880,67.0,1,60,6.0,64.0
11881,71.0,40,60,6.0,64.0
11882,52.0,21,90,10.0,64.0
11883,76.0,54,60,6.0,64.0
11884,79.0,37,60,6.0,64.0
11885,71.0,0,60,8.0,64.0
11886,76.0,0,60,7.0,64.0
11887,52.0,5,40,10.0,64.0
11888,81.0,71,40,6.0,64.0
11889,80.0,47,60,6.0,64.0
11890,64.0,17,40,8.0,64.0
11891,71.0,11,60,7.0,64.0
11892,78.0,40,60,6.0,64.0
11893,71.0,41,60,7.0,64.0
11894,80.0,2,60,6.0,64.0
11895,64.0,17,40,8.0,64.0
11896,50.0,88,120,10.0,64.0
11897,83.0,8,40,6.0,64.0
11898,80.0,27,90,6.0,64.0
11899,50.0,44,90,10.0,64.0
11900,78.0,15,90,6.0,64.0
11901,64.0,17,40,8.0,64.0
11902,71.0,10,60,7.0,64.0
11903,80.0,5,60,6.0,64.0
11904,50.0,23,60,10.0,64.0
11905,83.0,82,40,6.0,64.0
11906,64.0,9,60,8.0,64.0
11907,81.0,2,60,6.0,64.0
11908,73.0,61,60,7.0,64.0
11909,76.0,38,60,6.0,64.0
11910,69.0,4,60,8.0,64.0
11911,73.0,11,60,6.0,64.0
11912,76.0,34,60,7.0,64.0
11913,49.0,84,120,10.0,64.0
11914,76.0,10,40,6.0,64.0
11915,69.0,25,90,6.0,64.0
11916,49.0,26,90,10.0,64.0
11917,71.0,44,60,6.0,64.0
11918,73.0,8,60,6.0,64.0
11919,76.0,4,60,7.0,64.0
11920,69.0,3,40,8.0,64.0
11921,49.0,56,60,10.0,64.0
11922,74.0,61,60,6.0,64.0
11923,76.0,49,60,6.0,64.0
11924,73.0,4,60,7.0,64.0
11925,69.0,6,60,8.0,64.0
11926,78.0,58,60,6.0,64.0
11927,79.0,2,60,6.0,64.0
11928,73.0,30,60,7.0,64.0
11929,45.0,75,90,10.0,64.0
11930,64.0,10,60,8.0,64.0
11931,81.0,9,40,6.0,64.0
11932,79.0,6,60,6.0,64.0
11933,45.0,40,60,10.0,64.0
11934,78.0,62,60,6.0,64.0
11935,79.0,0,60,6.0,64.0
11936,45.0,1,60,10.0,64.0
11937,76.0,3,60,5.0,64.0
11938,73.0,4,60,7.0,64.0
11939,79.0,43,60,4.0,64.0
11940,69.0,1,40,8.0,64.0
11941,76.0,75,40,6.0,64.0
11942,50.0,6,90,10.0,64.0
11943,69.0,19,90,8.0,64.0
11944,74.0,1,60,7.0,64.0
11945,78.0,6,120,4.0,64.0
11946,78.0,5,90,6.0,64.0
11947,74.0,26,40,5.0,64.0
11948,74.0,49,60,6.0,64.0
11949,69.0,4,60,6.0,64.0
11950,78.0,15,40,7.0,64.0
11951,62.0,36,60,10.0,64.0
11952,69.0,1,60,5.0,64.0
11953,72.0,69,40,6.0,64.0
11954,71.0,35,60,6.0,64.0
11955,78.0,18,90,7.0,64.0
11956,55.0,5,40,10.0,64.0
11957,71.0,3,90,5.0,64.0
11958,74.0,51,60,6.0,64.0
11959,67.0,11,60,6.0,64.0
11960,59.0,6,60,10.0,64.0
11961,67.0,7,40,8.0,64.0
11962,78.0,16,60,4.0,64.0
11963,78.0,92,30,6.0,64.0
11964,76.0,12,60,6.0,64.0
11965,67.0,18,60,8.0,64.0
11966,49.0,33,90,10.0,64.0
11967,76.0,13,120,4.0,64.0
11968,73.0,28,60,6.0,64.0
11969,67.0,15,60,6.0,64.0
11970,76.0,18,40,7.0,64.0
11971,61.0,29,60,10.0,64.0
11972,71.0,1,40,5.0,64.0
11973,71.0,66,40,6.0,64.0
11974,69.0,0,60,6.0,64.0
11975,54.0,40,60,10.0,64.0
11976,76.0,30,90,7.0,64.0
11977,69.0,7,90,5.0,64.0
11978,73.0,30,60,6.0,64.0
11979,66.0,4,40,6.0,64.0
11980,57.0,40,60,10.0,64.0
11981,76.0,3,60,4.0,64.0
11982,66.0,13,40,8.0,64.0
11983,76.0,94,40,6.0,64.0
11984,74.0,10,90,6.0,64.0
11985,66.0,12,90,8.0,64.0
11986,47.0,12,90,10.0,64.0
11987,74.0,22,120,4.0,64.0
11988,71.0,34,40,6.0,64.0
11989,66.0,8,60,6.0,64.0
11990,74.0,15,40,7.0,64.0
11991,59.0,40,60,10.0,64.0
11992,69.0,2,60,5.0,64.0
11993,69.0,65,60,6.0,64.0
11994,67.0,4,60,6.0,64.0
11995,52.0,6,60,10.0,64.0
11996,67.0,43,60,5.0,64.0
11997,74.0,6,90,7.0,64.0
11998,71.0,53,60,6.0,64.0
11999,64.0,11,60,6.0,64.0
12000,64.0,5,40,8.0,64.0
12001,55.0,7,60,10.0,64.0
12002,71.0,23,60,5.0,64.0
12003,74.0,0,60,4.0,64.0
12004,74.0,64,30,6.0,64.0
12005,64.0,6,60,8.0,64.0
12006,73.0,1,90,6.0,64.0
12007,69.0,7,60,5.0,64.0
12008,45.0,0,1980,10.0,64.0
12009,76.0,8,60,0.0,64.0
12010,73.0,5,60,4.0,64.0
12011,81.0,1,60,2.0,64.0
12012,93.0,3,60,1.0,64.0
12013,45.0,27,20,3.0,64.0
12014,45.0,0,20,3.0,64.0
12015,76.0,3,60,6.0,64.0
12016,45.0,22,20,3.0,64.0
12017,45.0,33,20,3.0,64.0
12018,69.0,8,40,6.0,64.0
12019,67.0,1,60,8.0,64.0
12020,76.0,10,60,7.0,64.0
12021,73.0,22,60,5.0,64.0
12022,76.0,5,60,4.0,64.0
12023,45.0,12,20,3.0,64.0
12024,45.0,0,15,3.0,64.0
12025,73.0,4,40,6.0,64.0
12026,45.0,15,20,3.0,64.0
12027,45.0,39,15,3.0,64.0
12028,66.0,5,60,8.0,64.0
12029,69.0,2,60,7.0,64.0
12030,74.0,6,60,6.0,64.0
12031,74.0,9,60,4.0,64.0
12032,45.0,21,20,3.0,64.0
12033,69.0,5,60,5.0,64.0
12034,78.0,0,60,0.0,64.0
12035,86.0,3,60,1.0,64.0
12036,81.0,17,60,2.0,64.0
12037,45.0,7,15,3.0,64.0
12038,78.0,40,60,6.0,64.0
12039,45.0,18,40,3.0,64.0
12040,62.0,3,60,8.0,64.0
12041,78.0,6,60,7.0,64.0
12042,69.0,4,40,6.0,64.0
12043,45.0,11,40,3.0,64.0
12044,78.0,6,60,4.0,64.0
12045,74.0,27,60,5.0,64.0
12046,74.0,4,30,6.0,64.0
12047,45.0,58,30,3.0,64.0
12048,69.0,1,60,8.0,64.0
12049,45.0,25,30,3.0,64.0
12050,73.0,0,60,7.0,64.0
12051,76.0,4,60,4.0,64.0
12052,76.0,2,60,6.0,64.0
12053,73.0,12,60,5.0,64.0
12054,79.0,3,90,0.0,64.0
12055,88.0,2,60,1.0,64.0
12056,81.0,20,60,2.0,64.0
12057,45.0,14,40,3.0,64.0
12058,79.0,19,60,6.0,64.0
12059,61.0,16,90,8.0,64.0
12060,69.0,4,60,6.0,64.0
12061,45.0,34,20,3.0,64.0
12062,76.0,14,60,5.0,64.0
12063,76.0,1,60,7.0,64.0
12064,79.0,1,60,4.0,64.0
12065,45.0,3,20,3.0,64.0
12066,45.0,1,15,3.0,64.0
12067,76.0,21,30,6.0,64.0
12068,45.0,21,20,3.0,64.0
12069,62.0,2,60,8.0,64.0
12070,45.0,35,15,3.0,64.0
12071,78.0,6,60,6.0,64.0
12072,69.0,10,40,7.0,64.0
12073,74.0,10,60,5.0,64.0
12074,86.0,3,90,1.0,64.0
12075,78.0,2,40,4.0,64.0
12076,81.0,25,60,2.0,64.0
12077,78.0,2,60,0.0,64.0
12078,45.0,4,40,3.0,64.0
12079,81.0,24,60,6.0,64.0
12080,45.0,36,40,3.0,64.0
12081,74.0,4,60,6.0,64.0
12082,66.0,1,60,8.0,64.0
12083,66.0,4,60,5.0,64.0
12084,69.0,7,40,7.0,64.0
12085,81.0,8,60,4.0,64.0
12086,45.0,11,40,3.0,64.0
12087,78.0,32,40,6.0,64.0
12088,45.0,21,20,3.0,64.0
12089,73.0,1,60,6.0,64.0
12090,45.0,35,15,3.0,64.0
12091,69.0,0,60,5.0,64.0
12092,64.0,4,60,8.0,64.0
12093,73.0,9,60,4.0,64.0
12094,69.0,3,540,7.0,64.0
12095,76.0,5,60,0.0,64.0
12096,93.0,2,60,1.0,64.0
12097,81.0,16,60,2.0,64.0
12098,45.0,13,20,3.0,64.0
12099,76.0,9,60,6.0,64.0
12100,45.0,6,20,3.0,64.0
12101,45.0,27,30,3.0,64.0
12102,69.0,2,60,6.0,64.0
12103,73.0,19,60,5.0,64.0
12104,67.0,5,60,8.0,64.0
12105,45.0,33,20,3.0,64.0
12106,76.0,2,60,4.0,64.0
12107,45.0,2,20,3.0,64.0
12108,73.0,16,60,6.0,64.0
12109,45.0,16,20,3.0,64.0
12110,45.0,29,20,3.0,64.0
12111,76.0,5,60,6.0,64.0
12112,61.0,3,60,8.0,64.0
12113,76.0,12,60,5.0,64.0
12114,69.0,2,60,4.0,64.0
12115,88.0,1,60,1.0,64.0
12116,81.0,11,60,0.0,64.0
12117,45.0,24,15,3.0,64.0
12118,81.0,3,60,2.0,64.0
12119,45.0,1,20,3.0,64.0
12120,79.0,6,60,6.0,64.0
12121,45.0,28,20,3.0,64.0
12122,78.0,6,90,6.0,64.0
12123,45.0,27,20,3.0,64.0
12124,57.0,5,60,8.0,64.0
12125,81.0,0,60,5.0,64.0
12126,73.0,4,60,4.0,64.0
12127,45.0,23,15,3.0,64.0
12128,76.0,55,60,6.0,64.0
12129,45.0,25,20,3.0,64.0
12130,45.0,6,15,3.0,64.0
12131,78.0,4,60,6.0,64.0
12132,45.0,21,40,3.0,64.0
12133,62.0,13,420,8.0,64.0
12134,78.0,8,60,5.0,64.0
12135,86.0,13,90,1.0,64.0
12136,74.0,1,60,4.0,64.0
12137,78.0,9,60,0.0,64.0
12138,81.0,4,60,2.0,64.0
12139,74.0,34,60,6.0,64.0
12140,45.0,12,40,3.0,64.0
12141,71.0,1,60,6.0,64.0
12142,78.0,4,60,7.0,64.0
12143,74.0,9,60,5.0,64.0
12144,45.0,21,20,3.0,64.0
12145,71.0,28,60,4.0,64.0
12146,45.0,3,15,3.0,64.0
12147,74.0,31,90,6.0,64.0
12148,45.0,26,20,3.0,64.0
12149,45.0,7,15,3.0,64.0
12150,68.0,1,60,6.0,64.0
12151,71.0,2,60,7.0,64.0
12152,71.0,12,60,5.0,64.0
12153,86.0,2,60,1.0,64.0
12154,68.0,8,60,4.0,64.0
12155,74.0,15,60,2.0,64.0
12156,80.0,9,60,0.0,64.0
12157,45.0,15,20,3.0,64.0
12158,78.0,14,60,6.0,64.0
12159,45.0,2,20,3.0,64.0
12160,45.0,7,20,3.0,64.0
12161,76.0,0,60,6.0,64.0
12162,45.0,33,15,3.0,64.0
12163,80.0,12,40,5.0,64.0
12164,80.0,10,40,7.0,64.0
12165,71.0,2,60,4.0,64.0
12166,45.0,11,40,3.0,64.0
12167,74.0,20,40,6.0,64.0
12168,45.0,47,30,3.0,64.0
12169,73.0,7,60,6.0,64.0
12170,81.0,51,90,0.0,64.0
12171,64.0,11,270,8.0,64.0
12172,81.0,5,150,5.0,64.0
12173,81.0,3,60,2.0,64.0
12174,73.0,4,150,4.0,64.0
12175,45.0,25,20,3.0,64.0
12176,81.0,5,240,7.0,64.0
12177,88.0,4,60,1.0,64.0
12178,74.0,21,90,6.0,64.0
12179,73.0,18,60,6.0,64.0
12180,47.0,2,60,10.0,64.0
12181,81.0,0,30,2.0,64.0
12182,69.0,24,30,0.0,64.0
12183,81.0,1,20,1.0,64.0
12184,71.0,29,60,6.0,64.0
12185,81.0,6,30,1.0,64.0
12186,81.0,4,30,2.0,64.0
12187,69.0,18,30,0.0,64.0
12188,69.0,52,60,6.0,64.0
12189,81.0,6,40,1.0,64.0
12190,81.0,0,40,2.0,64.0
12191,49.0,8,60,10.0,64.0
12192,69.0,7,40,0.0,64.0
12193,67.0,52,60,6.0,64.0
12194,66.0,2,60,6.0,64.0
12195,45.0,32,60,10.0,64.0
12196,81.0,5,40,1.0,64.0
12197,81.0,3,40,2.0,64.0
12198,69.0,0,40,0.0,64.0
12199,64.0,98,30,6.0,64.0
12200,69.0,4,180,7.0,64.0
12201,81.0,6,120,2.0,64.0
12202,69.0,33,1200,5.0,64.0
12203,42.0,25,270,10.0,64.0
12204,81.0,25,120,1.0,64.0
12205,63.0,69,60,6.0,64.0
12206,69.0,12,150,0.0,64.0
12207,69.0,5,60,6.0,64.0
12208,59.0,14,60,8.0,64.0
12209,71.0,38,60,6.0,64.0
12210,69.0,29,60,6.0,64.0
12211,61.0,5,60,8.0,64.0
12212,71.0,67,90,6.0,64.0
12213,63.0,19,40,8.0,64.0
12214,78.0,46,240,7.0,64.0
12215,69.0,34,90,6.0,64.0
12216,63.0,13,60,8.0,64.0
12217,71.0,38,60,6.0,64.0
12218,64.0,12,60,8.0,64.0
12219,69.0,23,60,6.0,64.0
12220,66.0,18,60,8.0,64.0
12221,63.0,48,90,6.0,64.0
12222,47.0,3,270,10.0,64.0
12223,69.0,44,60,6.0,64.0
12224,71.0,20,90,6.0,64.0
12225,63.0,30,60,8.0,64.0
12226,64.0,34,60,8.0,64.0
12227,69.0,25,60,6.0,64.0
12228,66.0,36,60,8.0,64.0
12229,71.0,58,60,6.0,64.0
12230,75.0,43,240,7.0,64.0
12231,69.0,35,60,6.0,64.0
12232,66.0,21,60,8.0,64.0
12233,71.0,22,60,6.0,64.0
12234,67.0,14,60,8.0,64.0
12235,69.0,23,40,6.0,64.0
12236,69.0,25,60,8.0,64.0
12237,63.0,64,60,6.0,64.0
12238,69.0,30,90,6.0,64.0
12239,69.0,4,60,8.0,64.0
12240,47.0,29,60,10.0,64.0
12241,71.0,9,60,6.0,64.0
12242,68.0,25,60,8.0,64.0
12243,72.0,17,90,6.0,64.0
12244,69.0,5,60,8.0,64.0
12245,51.0,12,40,10.0,64.0
12246,71.0,72,240,7.0,64.0
12247,71.0,66,60,6.0,64.0
12248,66.0,5,210,5.0,64.0
12249,69.0,40,60,6.0,64.0
12250,71.0,17,60,8.0,64.0
12251,47.0,6,60,10.0,64.0
12252,68.0,22,60,6.0,64.0
12253,69.0,4,40,8.0,64.0
12254,66.0,22,40,6.0,64.0
12255,68.0,1,1410,5.0,64.0
12256,68.0,31,180,8.0,64.0
12257,62.0,51,60,6.0,64.0
12258,52.0,28,270,10.0,64.0
12259,74.0,8,1170,4.0,64.0
12260,68.0,59,60,6.0,64.0
12261,71.0,2,60,6.0,64.0
12262,64.0,7,60,7.0,64.0
12263,66.0,20,60,7.0,64.0
12264,68.0,23,60,6.0,64.0
12265,68.0,10,60,7.0,64.0
12266,71.0,56,60,6.0,64.0
12267,64.0,47,240,8.0,64.0
12268,68.0,49,60,6.0,64.0
12269,71.0,22,60,6.0,64.0
12270,68.0,15,60,7.0,64.0
12271,69.0,35,60,7.0,64.0
12272,68.0,16,40,6.0,64.0
12273,71.0,4,60,7.0,64.0
12274,62.0,41,60,6.0,64.0
12275,40.0,28,240,10.0,64.0
12276,68.0,66,60,6.0,64.0
12277,71.0,56,60,6.0,64.0
12278,68.0,4,60,7.0,64.0
12279,68.0,26,90,6.0,64.0
12280,69.0,5,60,7.0,64.0
12281,71.0,51,90,6.0,64.0
12282,71.0,10,60,7.0,64.0
12283,68.0,25,270,8.0,64.0
12284,68.0,64,60,6.0,64.0
12285,71.0,25,90,6.0,64.0
12286,71.0,2,60,7.0,64.0
12287,68.0,9,40,6.0,64.0
12288,73.0,52,40,7.0,64.0
12289,62.0,60,60,6.0,64.0
12290,74.0,8,60,7.0,64.0
12291,68.0,48,90,6.0,64.0
12292,71.0,14,90,6.0,64.0
12293,74.0,3,60,7.0,64.0
12294,40.0,14,60,10.0,64.0
12295,69.0,56,90,6.0,64.0
12296,73.0,29,40,7.0,64.0
12297,68.0,7,90,6.0,64.0
12298,74.0,35,60,7.0,64.0
12299,71.0,32,240,4.0,64.0
12300,52.0,1,60,10.0,64.0
12301,71.0,40,240,8.0,64.0
12302,66.0,66,60,6.0,64.0
12303,64.0,9,60,6.0,64.0
12304,73.0,18,60,7.0,64.0
12305,44.0,1,40,10.0,64.0
12306,62.0,16,40,6.0,64.0
12307,71.0,11,40,7.0,64.0
12308,61.0,68,60,6.0,64.0
12309,73.0,4,180,7.0,64.0
12310,73.0,24,1440,4.0,64.0
12311,45.0,41,240,10.0,64.0
12312,67.0,2,1170,5.0,64.0
12313,67.0,54,90,6.0,64.0
12314,69.0,43,60,6.0,64.0
12315,57.0,0,60,8.0,64.0
12316,69.0,10,90,0.0,64.0
12317,67.0,9,60,6.0,64.0
12318,59.0,2,60,8.0,64.0
12319,69.0,41,60,6.0,64.0
12320,61.0,18,40,8.0,64.0
12321,76.0,37,240,7.0,64.0
12322,69.0,18,90,0.0,64.0
12323,67.0,48,60,6.0,64.0
12324,61.0,11,60,8.0,64.0
12325,69.0,39,60,6.0,64.0
12326,69.0,0,90,0.0,64.0
12327,62.0,1,60,8.0,64.0
12328,67.0,40,60,6.0,64.0
12329,64.0,31,60,8.0,64.0
12330,61.0,10,60,6.0,64.0
12331,69.0,30,90,0.0,64.0
12332,57.0,40,240,10.0,64.0
12333,67.0,59,90,6.0,64.0
12334,69.0,28,60,6.0,64.0
12335,69.0,4,90,0.0,64.0
12336,61.0,3,60,8.0,64.0
12337,81.0,3,90,1.0,64.0
12338,67.0,23,60,6.0,64.0
12339,62.0,12,40,8.0,64.0
12340,69.0,28,60,6.0,64.0
12341,64.0,2,60,8.0,64.0
12342,69.0,9,90,0.0,64.0
12343,81.0,22,90,1.0,64.0
12344,73.0,42,240,7.0,64.0
12345,67.0,49,60,6.0,64.0
12346,69.0,19,60,6.0,64.0
12347,69.0,16,90,0.0,64.0
12348,81.0,18,90,1.0,64.0
12349,64.0,9,60,8.0,64.0
12350,67.0,6,60,6.0,64.0
12351,66.0,13,60,8.0,64.0
12352,61.0,41,60,6.0,64.0
12353,69.0,3,90,0.0,64.0
12354,67.0,2,60,8.0,64.0
12355,81.0,37,90,1.0,64.0
12356,67.0,35,90,6.0,64.0
12357,69.0,6,90,6.0,64.0
12358,45.0,11,60,10.0,64.0
12359,76.0,1,90,0.0,64.0
12360,81.0,22,90,2.0,64.0
12361,67.0,9,60,8.0,64.0
12362,45.0,6,40,3.0,64.0
12363,81.0,5,60,1.0,64.0
12364,66.0,29,60,8.0,64.0
12365,71.0,22,90,6.0,64.0
12366,76.0,1,90,0.0,64.0
12367,81.0,9,60,1.0,64.0
12368,67.0,10,60,8.0,64.0
12369,69.0,12,90,6.0,64.0
12370,45.0,4,40,3.0,64.0
12371,49.0,14,40,10.0,64.0
12372,69.0,10,240,7.0,64.0
12373,81.0,32,90,2.0,64.0
12374,64.0,1,210,5.0,64.0
12375,67.0,26,60,6.0,64.0
12376,88.0,4,60,1.0,64.0
12377,66.0,11,60,6.0,64.0
12378,45.0,21,40,3.0,64.0
12379,81.0,7,90,0.0,64.0
12380,81.0,11,90,2.0,64.0
12381,45.0,2,40,10.0,64.0
12382,69.0,9,60,8.0,64.0
12383,67.0,16,40,8.0,64.0
12384,64.0,2,30,6.0,64.0
12385,60.0,24,60,6.0,64.0
12386,86.0,7,90,1.0,64.0
12387,81.0,10,120,2.0,64.0
12388,50.0,25,30,3.0,64.0
12389,78.0,9,90,0.0,64.0
12390,66.0,6,180,8.0,64.0
12391,66.0,6,1410,5.0,64.0
12392,50.0,3,240,10.0,64.0
12393,72.0,2,1050,4.0,64.0
12394,50.0,13,20,3.0,64.0
12395,66.0,30,60,6.0,64.0
12396,50.0,0,20,3.0,64.0
12397,50.0,2,15,3.0,64.0
12398,69.0,3,60,6.0,64.0
12399,62.0,5,60,7.0,64.0
12400,69.0,6,90,2.0,64.0
12401,66.0,3,90,0.0,64.0
12402,74.0,4,90,1.0,64.0
12403,50.0,29,20,3.0,64.0
12404,50.0,9,20,3.0,64.0
12405,66.0,36,60,6.0,64.0
12406,64.0,7,60,7.0,64.0
12407,50.0,13,15,3.0,64.0
12408,50.0,15,40,3.0,64.0
12409,69.0,14,60,6.0,64.0
12410,66.0,8,60,7.0,64.0
12411,69.0,1,90,2.0,64.0
12412,66.0,1,90,0.0,64.0
12413,74.0,5,90,1.0,64.0
12414,62.0,4,240,8.0,64.0
12415,66.0,15,60,6.0,64.0
12416,50.0,20,20,3.0,64.0
12417,50.0,19,15,3.0,64.0
12418,69.0,17,60,6.0,64.0
12419,50.0,31,15,3.0,64.0
12420,74.0,1,90,2.0,64.0
12421,69.0,5,90,0.0,64.0
12422,66.0,9,60,7.0,64.0
12423,78.0,13,90,1.0,64.0
12424,50.0,7,20,3.0,64.0
12425,67.0,10,60,7.0,64.0
12426,66.0,1,60,6.0,64.0
12427,50.0,1,20,3.0,64.0
12428,50.0,29,20,3.0,64.0
12429,60.0,17,90,6.0,64.0
12430,69.0,8,60,7.0,64.0
12431,50.0,33,20,3.0,64.0
12432,69.0,5,90,0.0,64.0
12433,74.0,15,90,2.0,64.0
12434,78.0,2,90,1.0,64.0
12435,38.0,20,240,10.0,64.0
12436,50.0,7,20,3.0,64.0
12437,66.0,7,60,6.0,64.0
12438,50.0,1,20,3.0,64.0
12439,50.0,31,20,3.0,64.0
12440,69.0,15,60,6.0,64.0
12441,74.0,7,90,0.0,64.0
12442,78.0,1,90,2.0,64.0
12443,66.0,4,60,7.0,64.0
12444,81.0,3,90,1.0,64.0
12445,50.0,25,20,3.0,64.0
12446,50.0,5,20,3.0,64.0
12447,66.0,12,60,6.0,64.0
12448,67.0,5,60,7.0,64.0
12449,50.0,19,20,3.0,64.0
12450,50.0,11,20,3.0,64.0
12451,69.0,6,60,6.0,64.0
12452,69.0,7,60,7.0,64.0
12453,78.0,6,90,2.0,64.0
12454,66.0,22,270,8.0,64.0
12455,74.0,0,90,0.0,64.0
12456,81.0,1,90,1.0,64.0
12457,50.0,16,20,3.0,64.0
12458,66.0,2,90,6.0,64.0
12459,50.0,24,20,3.0,64.0
12460,50.0,27,20,3.0,64.0
12461,50.0,30,20,3.0,64.0
12462,69.0,4,60,6.0,64.0
12463,81.0,11,90,2.0,64.0
12464,78.0,3,90,0.0,64.0
12465,86.0,1,60,1.0,64.0
12466,69.0,2,60,7.0,64.0
12467,50.0,30,20,3.0,64.0
12468,66.0,4,60,6.0,64.0
12469,50.0,9,20,3.0,64.0
12470,71.0,29,40,7.0,64.0
12471,50.0,4,20,3.0,64.0
12472,50.0,8,15,3.0,64.0
12473,81.0,15,90,2.0,64.0
12474,60.0,5,60,6.0,64.0
12475,78.0,7,90,0.0,64.0
12476,72.0,13,60,7.0,64.0
12477,86.0,1,60,1.0,64.0
12478,50.0,14,20,3.0,64.0
12479,66.0,4,90,6.0,64.0
12480,50.0,9,20,3.0,64.0
12481,50.0,28,20,3.0,64.0
12482,90.0,5,60,1.0,64.0
12483,50.0,11,60,10.0,64.0
12484,86.0,1,90,2.0,64.0
12485,69.0,1,90,6.0,64.0
12486,69.0,24,120,4.0,64.0
12487,81.0,8,60,0.0,64.0
12488,50.0,32,15,3.0,64.0
12489,72.0,3,60,7.0,64.0
12490,50.0,4,20,3.0,64.0
12491,71.0,10,60,7.0,64.0
12492,67.0,15,90,6.0,64.0
12493,50.0,14,20,3.0,64.0
12494,50.0,37,60,3.0,64.0
12495,38.0,6,90,10.0,64.0
12496,66.0,8,90,6.0,64.0
12497,72.0,3,60,7.0,64.0
12498,90.0,2,90,1.0,64.0
12499,86.0,14,90,2.0,64.0
12500,81.0,0,60,0.0,64.0
12501,66.0,15,90,4.0,64.0
12502,69.0,3,180,8.0,64.0
12503,50.0,6,40,3.0,64.0
12504,64.0,24,60,6.0,64.0
12505,50.0,25,40,3.0,64.0
12506,62.0,7,60,6.0,64.0
12507,90.0,4,90,2.0,64.0
12508,42.0,7,60,10.0,64.0
12509,86.0,4,60,0.0,64.0
12510,93.0,1,60,1.0,64.0
12511,62.0,35,90,4.0,64.0
12512,71.0,1,40,7.0,64.0
12513,50.0,10,30,3.0,64.0
12514,60.0,2,30,6.0,64.0
12515,69.0,6,40,7.0,64.0
12516,50.0,51,30,3.0,64.0
12517,59.0,50,60,6.0,64.0
12518,95.0,4,120,1.0,64.0
12519,43.0,3,60,10.0,64.0
12520,91.0,0,120,2.0,64.0
12521,86.0,6,120,0.0,64.0
12522,62.0,19,150,5.0,64.0
12523,71.0,3,240,7.0,64.0
12524,71.0,16,150,4.0,64.0
12525,62.0,42,240,8.0,64.0
12526,55.0,17,90,6.0,64.0
12527,42.0,0,60,10.0,64.0
12528,57.0,34,60,6.0,64.0
12529,60.0,37,40,6.0,64.0
12530,59.0,14,60,6.0,64.0
12531,43.0,16,60,10.0,64.0
12532,62.0,81,40,6.0,64.0
12533,61.0,13,60,6.0,64.0
12534,45.0,23,60,10.0,64.0
12535,64.0,98,40,6.0,64.0
12536,62.0,64,60,6.0,64.0
12537,47.0,3,60,10.0,64.0
12538,59.0,56,90,6.0,64.0
12539,61.0,2,90,6.0,64.0
12540,45.0,29,60,10.0,64.0
12541,64.0,87,40,6.0,64.0
12542,62.0,4,60,6.0,64.0
12543,47.0,33,60,10.0,64.0
12544,66.0,81,60,6.0,64.0
12545,64.0,6,60,6.0,64.0
12546,49.0,19,60,10.0,64.0
12547,67.0,105,40,6.0,64.0
12548,66.0,1,90,6.0,64.0
12549,50.0,51,60,10.0,64.0
12550,62.0,46,60,6.0,64.0
12551,64.0,14,60,6.0,64.0
12552,49.0,26,60,10.0,64.0
12553,67.0,88,40,6.0,64.0
12554,66.0,1,60,6.0,64.0
12555,50.0,26,60,10.0,64.0
12556,69.0,99,40,6.0,64.0
12557,67.0,1,90,6.0,64.0
12558,52.0,16,60,10.0,64.0
12559,71.0,105,40,6.0,64.0
12560,69.0,4,60,6.0,64.0
12561,54.0,47,60,10.0,64.0
12562,62.0,55,60,6.0,64.0
12563,66.0,21,60,6.0,64.0
12564,52.0,22,90,10.0,64.0
12565,69.0,85,60,6.0,64.0
12566,54.0,52,90,10.0,64.0
12567,74.0,6,60,6.0,64.0
12568,78.0,56,60,6.0,64.0
12569,55.0,19,90,10.0,64.0
12570,76.0,21,60,6.0,64.0
12571,74.0,95,40,6.0,64.0
12572,73.0,29,60,6.0,64.0
12573,57.0,72,90,10.0,64.0
12574,57.0,8,90,10.0,64.0
12575,76.0,2,60,5.0,64.0
12576,69.0,3,60,6.0,64.0
12577,45.0,2,40,3.0,64.0
12578,76.0,6,60,7.0,64.0
12579,69.0,2,60,4.0,64.0
12580,61.0,28,60,8.0,64.0
12581,71.0,17,40,6.0,64.0
12582,71.0,3,60,4.0,64.0
12583,62.0,51,60,8.0,64.0
12584,73.0,0,60,6.0,64.0
12585,57.0,6,90,10.0,64.0
12586,73.0,1,60,4.0,64.0
12587,81.0,31,120,2.0,64.0
12588,88.0,12,90,1.0,64.0
12589,93.0,3,90,0.0,64.0
12590,69.0,15,60,5.0,64.0
12591,64.0,20,60,8.0,64.0
12592,45.0,1,60,3.0,64.0
12593,69.0,5,40,7.0,64.0
12594,66.0,12,60,8.0,64.0
12595,73.0,11,40,6.0,64.0
12596,57.0,15,90,10.0,64.0
12597,64.0,23,60,8.0,64.0
12598,45.0,11,40,3.0,64.0
12599,73.0,0,150,7.0,64.0
12600,73.0,4,180,5.0,64.0
12601,73.0,2,60,4.0,64.0
12602,74.0,1,40,6.0,64.0
12603,66.0,6,40,8.0,64.0
12604,74.0,59,40,4.0,64.0
12605,76.0,12,60,6.0,64.0
12606,57.0,1,90,10.0,64.0
12607,67.0,3,60,8.0,64.0
12608,93.0,8,60,0.0,64.0
12609,45.0,1,40,3.0,64.0
12610,76.0,14,60,4.0,64.0
12611,81.0,13,90,2.0,64.0
12612,88.0,2,90,1.0,64.0
12613,64.0,47,60,8.0,64.0
12614,73.0,11,40,6.0,64.0
12615,57.0,16,90,10.0,64.0
12616,76.0,7,40,7.0,64.0
12617,57.0,4,60,8.0,64.0
12618,76.0,11,60,5.0,64.0
12619,45.0,6,40,3.0,64.0
12620,73.0,14,60,4.0,64.0
12621,74.0,15,60,6.0,64.0
12622,59.0,6,60,8.0,64.0
12623,74.0,38,60,4.0,64.0
12624,76.0,10,60,6.0,64.0
12625,67.0,1,40,7.0,64.0
12626,93.0,9,90,1.0,64.0
12627,57.0,11,60,10.0,64.0
12628,88.0,2,90,0.0,64.0
12629,61.0,2,60,8.0,64.0
12630,81.0,11,90,2.0,64.0
12631,67.0,7,60,5.0,64.0
12632,76.0,2,60,4.0,64.0
12633,45.0,8,40,3.0,64.0
12634,62.0,63,40,8.0,64.0
12635,73.0,2,180,7.0,64.0
12636,57.0,20,90,10.0,64.0
12637,76.0,3,60,6.0,64.0
12638,61.0,20,60,8.0,64.0
12639,76.0,5,40,4.0,64.0
12640,45.0,4,40,3.0,64.0
12641,73.0,9,180,5.0,64.0
12642,78.0,2,40,6.0,64.0
12643,78.0,2,40,4.0,64.0
12644,62.0,66,40,8.0,64.0
12645,79.0,8,60,6.0,64.0
12646,79.0,8,60,4.0,64.0
12647,57.0,1,90,10.0,64.0
12648,81.0,13,90,2.0,64.0
12649,64.0,5,60,8.0,64.0
12650,88.0,3,90,0.0,64.0
12651,93.0,6,90,1.0,64.0
12652,45.0,3,40,3.0,64.0
12653,62.0,52,60,8.0,64.0
12654,61.0,18,60,8.0,64.0
12655,79.0,1,40,4.0,64.0
12656,76.0,10,60,5.0,64.0
12657,52.0,15,90,10.0,64.0
12658,76.0,8,40,7.0,64.0
12659,79.0,2,60,6.0,64.0
12660,45.0,1,40,3.0,64.0
12661,78.0,5,40,6.0,64.0
12662,62.0,63,60,8.0,64.0
12663,78.0,4,40,4.0,64.0
12664,79.0,1,90,4.0,64.0
12665,49.0,15,90,10.0,64.0
12666,64.0,5,60,8.0,64.0
12667,79.0,2,60,6.0,64.0
12668,91.0,2,90,0.0,64.0
12669,69.0,5,60,7.0,64.0
12670,69.0,6,60,5.0,64.0
12671,81.0,35,90,2.0,64.0
12672,45.0,9,40,3.0,64.0
12673,88.0,0,90,1.0,64.0
12674,62.0,42,60,8.0,64.0
12675,61.0,0,60,8.0,64.0
12676,45.0,7,60,10.0,64.0
12677,81.0,15,40,6.0,64.0
12678,73.0,1,60,5.0,64.0
12679,73.0,6,60,7.0,64.0
12680,45.0,0,40,3.0,64.0
12681,81.0,20,60,4.0,64.0
12682,59.0,1,40,8.0,64.0
12683,79.0,15,40,6.0,64.0
12684,79.0,47,40,4.0,64.0
12685,57.0,12,60,8.0,64.0
12686,78.0,3,60,6.0,64.0
12687,90.0,2,90,0.0,64.0
12688,78.0,19,60,4.0,64.0
12689,74.0,5,90,7.0,64.0
12690,81.0,3,90,2.0,64.0
12691,86.0,7,90,1.0,64.0
12692,50.0,12,40,3.0,64.0
12693,50.0,14,90,10.0,64.0
12694,74.0,5,60,5.0,64.0
12695,69.0,39,60,8.0,64.0
12696,66.0,1,60,8.0,64.0
12697,62.0,6,60,7.0,64.0
12698,81.0,12,40,6.0,64.0
12699,74.0,3,90,2.0,64.0
12700,62.0,3,90,10.0,64.0
12701,62.0,4,40,5.0,64.0
12702,81.0,37,40,4.0,64.0
12703,67.0,43,60,8.0,64.0
12704,64.0,3,40,7.0,64.0
12705,64.0,9,40,5.0,64.0
12706,74.0,18,40,6.0,64.0
12707,66.0,2,60,7.0,64.0
12708,69.0,21,60,8.0,64.0
12709,74.0,5,90,2.0,64.0
12710,62.0,56,90,10.0,64.0
12711,66.0,12,60,5.0,64.0
12712,74.0,2,40,4.0,64.0
12713,71.0,5,40,8.0,64.0
12714,69.0,31,60,8.0,64.0
12715,66.0,3,40,7.0,64.0
12716,78.0,15,150,6.0,64.0
12717,74.0,0,90,2.0,64.0
12718,62.0,61,90,10.0,64.0
12719,66.0,0,40,5.0,64.0
12720,74.0,2,90,1.0,64.0
12721,78.0,10,180,4.0,64.0
12722,50.0,12,20,3.0,64.0
12723,67.0,2,60,7.0,64.0
12724,67.0,3,40,5.0,64.0
12725,71.0,6,40,8.0,64.0
12726,50.0,1,20,3.0,64.0
12727,69.0,4,60,7.0,64.0
12728,72.0,1,90,8.0,64.0
12729,74.0,2,90,1.0,64.0
12730,69.0,23,60,5.0,64.0
12731,62.0,48,90,10.0,64.0
12732,50.0,2,30,3.0,64.0
12733,74.0,11,90,2.0,64.0
12734,69.0,0,40,8.0,64.0
12735,62.0,5,60,8.0,64.0
12736,66.0,8,60,7.0,64.0
12737,81.0,9,40,6.0,64.0
12738,74.0,2,90,1.0,64.0
12739,62.0,1,90,10.0,64.0
12740,81.0,7,40,4.0,64.0
12741,74.0,12,90,0.0,64.0
12742,74.0,5,90,2.0,64.0
12743,66.0,26,60,5.0,64.0
12744,67.0,2,60,7.0,64.0
12745,64.0,12,60,8.0,64.0
12746,67.0,30,60,5.0,64.0
12747,69.0,4,60,7.0,64.0
12748,66.0,9,60,8.0,64.0
12749,72.0,6,40,6.0,64.0
12750,62.0,7,90,10.0,64.0
12751,72.0,7,40,4.0,64.0
12752,74.0,4,90,1.0,64.0
12753,74.0,59,90,0.0,64.0
12754,69.0,24,60,5.0,64.0
12755,74.0,7,90,2.0,64.0
12756,67.0,3,60,8.0,64.0
12757,66.0,1,60,8.0,64.0
12758,62.0,4,90,10.0,64.0
12759,78.0,4,150,6.0,64.0
12760,69.0,7,60,7.0,64.0
12761,74.0,1,90,1.0,64.0
12762,74.0,21,90,0.0,64.0
12763,69.0,27,60,5.0,64.0
12764,74.0,4,90,2.0,64.0
12765,78.0,6,150,4.0,64.0
12766,50.0,5,30,3.0,64.0
12767,67.0,1,60,8.0,64.0
12768,71.0,1,40,7.0,64.0
12769,71.0,31,60,5.0,64.0
12770,50.0,2,30,3.0,64.0
12771,69.0,27,60,8.0,64.0
12772,72.0,5,60,7.0,64.0
12773,62.0,55,90,10.0,64.0
12774,50.0,17,30,3.0,64.0
12775,74.0,3,90,2.0,64.0
12776,72.0,0,60,5.0,64.0
12777,74.0,1,90,1.0,64.0
12778,74.0,4,90,0.0,64.0
12779,67.0,2,60,8.0,64.0
12780,66.0,18,60,8.0,64.0
12781,72.0,2,60,7.0,64.0
12782,81.0,9,40,6.0,64.0
12783,72.0,1,40,5.0,64.0
12784,90.0,2,90,1.0,64.0
12785,57.0,1,90,10.0,64.0
12786,86.0,12,90,2.0,64.0
12787,93.0,4,60,0.0,64.0
12788,50.0,1,40,3.0,64.0
12789,81.0,13,40,4.0,64.0
12790,67.0,0,60,8.0,64.0
12791,71.0,3,40,7.0,64.0
12792,71.0,62,40,5.0,64.0
12793,69.0,2,60,8.0,64.0
12794,72.0,9,60,7.0,64.0
12795,86.0,39,90,1.0,64.0
12796,72.0,0,60,5.0,64.0
12797,54.0,7,90,10.0,64.0
12798,98.0,12,60,0.0,64.0
12799,74.0,4,40,6.0,64.0
12800,81.0,2,90,2.0,64.0
12801,50.0,7,40,3.0,64.0
12802,74.0,6,40,4.0,64.0
12803,67.0,33,60,8.0,64.0
12804,78.0,12,60,6.0,64.0
12805,66.0,7,60,8.0,64.0
12806,90.0,20,90,1.0,64.0
12807,74.0,1,40,7.0,64.0
12808,50.0,2,60,10.0,64.0
12809,74.0,0,40,5.0,64.0
12810,78.0,4,60,4.0,64.0
12811,86.0,0,60,2.0,64.0
12812,93.0,3,60,0.0,64.0
12813,50.0,3,40,3.0,64.0
12814,72.0,3,40,7.0,64.0
12815,64.0,9,40,8.0,64.0
12816,72.0,53,40,5.0,64.0
12817,91.0,5,120,1.0,64.0
12818,79.0,5,40,6.0,64.0
12819,62.0,3,40,8.0,64.0
12820,71.0,2,60,7.0,64.0
12821,79.0,13,60,4.0,64.0
12822,71.0,37,60,5.0,64.0
12823,55.0,4,90,10.0,64.0
12824,86.0,4,120,2.0,64.0
12825,95.0,37,120,0.0,64.0
12826,50.0,1,40,3.0,64.0
12827,59.0,8,60,8.0,64.0
12828,64.0,1,60,8.0,64.0
12829,83.0,9,40,6.0,64.0
12830,83.0,6,40,4.0,64.0
12831,67.0,48,60,7.0,64.0
12832,64.0,7,90,10.0,64.0
12833,67.0,2,40,5.0,64.0
12834,66.0,10,60,8.0,64.0
12835,69.0,5,40,7.0,64.0
12836,69.0,32,60,5.0,64.0
12837,68.0,26,60,8.0,64.0
12838,74.0,8,40,6.0,64.0
12839,71.0,16,60,7.0,64.0
12840,74.0,5,40,4.0,64.0
12841,64.0,66,90,10.0,64.0
12842,71.0,4,60,5.0,64.0
12843,69.0,3,40,8.0,64.0
12844,68.0,20,60,8.0,64.0
12845,80.0,11,150,6.0,64.0
12846,71.0,3,60,7.0,64.0
12847,64.0,4,90,10.0,64.0
12848,71.0,22,60,5.0,64.0
12849,80.0,12,150,4.0,64.0
12850,73.0,8,40,7.0,64.0
12851,69.0,1,40,8.0,64.0
12852,73.0,51,40,5.0,64.0
12853,71.0,5,60,8.0,64.0
12854,74.0,1,60,7.0,64.0
12855,74.0,36,60,5.0,64.0
12856,64.0,57,90,10.0,64.0
12857,69.0,1,60,8.0,64.0
12858,68.0,3,60,8.0,64.0
12859,74.0,0,60,7.0,64.0
12860,83.0,9,40,6.0,64.0
12861,74.0,2,40,5.0,64.0
12862,83.0,38,60,4.0,64.0
12863,59.0,5,90,10.0,64.0
12864,73.0,7,40,7.0,64.0
12865,69.0,2,40,8.0,64.0
12866,73.0,65,60,5.0,64.0
12867,71.0,2,60,8.0,64.0
12868,74.0,29,60,7.0,64.0
12869,74.0,6,60,5.0,64.0
12870,76.0,10,60,6.0,64.0
12871,56.0,16,90,10.0,64.0
12872,76.0,1,60,4.0,64.0
12873,69.0,48,60,8.0,64.0
12874,68.0,2,60,8.0,64.0
12875,76.0,0,60,7.0,64.0
12876,76.0,7,60,5.0,64.0
12877,80.0,16,40,6.0,64.0
12878,80.0,3,40,4.0,64.0
12879,52.0,12,60,10.0,64.0
12880,66.0,60,60,8.0,64.0
12881,74.0,14,30,7.0,64.0
12882,74.0,13,40,5.0,64.0
12883,73.0,11,60,5.0,64.0
12884,64.0,30,60,8.0,64.0
12885,73.0,4,60,7.0,64.0
12886,81.0,2,60,4.0,64.0
12887,81.0,1,60,6.0,64.0
12888,57.0,39,240,10.0,64.0
12889,76.0,7,40,4.0,64.0
12890,76.0,63,40,6.0,64.0
12891,73.0,6,60,4.0,64.0
12892,73.0,11,60,6.0,64.0
12893,76.0,0,40,7.0,64.0
12894,76.0,0,40,5.0,64.0
12895,57.0,33,60,8.0,64.0
12896,74.0,11,60,4.0,64.0
12897,74.0,5,40,6.0,64.0
12898,59.0,15,60,8.0,64.0
12899,76.0,2,60,6.0,64.0
12900,76.0,12,60,4.0,64.0
12901,61.0,37,60,8.0,64.0
12902,69.0,0,40,5.0,64.0
12903,69.0,4,40,7.0,64.0
12904,78.0,5,60,6.0,64.0
12905,78.0,72,60,4.0,64.0
12906,76.0,11,60,6.0,64.0
12907,76.0,25,60,4.0,64.0
12908,61.0,1,60,8.0,64.0
12909,73.0,20,150,7.0,64.0
12910,73.0,5,180,5.0,64.0
12911,78.0,2,40,6.0,64.0
12912,62.0,6,40,8.0,64.0
12913,78.0,55,60,4.0,64.0
12914,64.0,23,60,8.0,64.0
12915,79.0,1,60,6.0,64.0
12916,79.0,5,60,4.0,64.0
12917,45.0,29,240,10.0,64.0
12918,76.0,11,40,6.0,64.0
12919,76.0,50,40,4.0,64.0
12920,69.0,8,60,6.0,64.0
12921,61.0,5,60,8.0,64.0
12922,76.0,4,60,5.0,64.0
12923,76.0,13,40,7.0,64.0
12924,69.0,28,60,4.0,64.0
12925,71.0,8,60,6.0,64.0
12926,62.0,3,40,8.0,64.0
12927,71.0,31,40,4.0,64.0
12928,64.0,0,60,8.0,64.0
12929,73.0,37,60,6.0,64.0
12930,73.0,4,60,4.0,64.0
12931,67.0,2,40,5.0,64.0
12932,67.0,2,40,7.0,64.0
12933,74.0,4,40,6.0,64.0
12934,74.0,63,40,4.0,64.0
12935,73.0,13,60,6.0,64.0
12936,73.0,5,60,4.0,64.0
12937,64.0,30,60,8.0,64.0
12938,73.0,12,150,7.0,64.0
12939,73.0,20,180,5.0,64.0
12940,74.0,10,40,6.0,64.0
12941,66.0,5,40,8.0,64.0
12942,74.0,58,60,4.0,64.0
12943,76.0,11,60,6.0,64.0
12944,67.0,1,60,8.0,64.0
12945,57.0,37,240,10.0,64.0
12946,76.0,15,60,4.0,64.0
12947,74.0,8,60,6.0,64.0
12948,74.0,48,60,4.0,64.0
12949,73.0,9,60,6.0,64.0
12950,67.0,2,40,8.0,64.0
12951,76.0,8,40,7.0,64.0
12952,73.0,25,60,4.0,64.0
12953,76.0,1,40,5.0,64.0
12954,66.0,4,40,8.0,64.0
12955,74.0,18,40,6.0,64.0
12956,74.0,26,40,4.0,64.0
12957,67.0,47,90,8.0,64.0
12958,76.0,6,60,6.0,64.0
12959,69.0,9,60,7.0,64.0
12960,69.0,4,60,5.0,64.0
12961,76.0,3,60,4.0,64.0
12962,74.0,0,60,6.0,64.0
12963,74.0,32,60,4.0,64.0
12964,69.0,4,40,8.0,64.0
12965,73.0,0,60,6.0,64.0
12966,73.0,9,40,7.0,64.0
12967,73.0,29,60,4.0,64.0
12968,73.0,15,40,5.0,64.0
12969,67.0,28,40,8.0,64.0
12970,71.0,33,60,6.0,64.0
12971,71.0,5,60,4.0,64.0
12972,66.0,20,40,8.0,64.0
12973,69.0,1,60,4.0,64.0
12974,74.0,43,60,7.0,64.0
12975,69.0,2,60,6.0,64.0
12976,74.0,1,60,5.0,64.0
12977,69.0,25,40,7.0,64.0
12978,74.0,6,60,4.0,64.0
12979,69.0,2,40,5.0,64.0
12980,74.0,23,60,6.0,64.0
12981,66.0,9,60,7.0,64.0
12982,73.0,1,60,4.0,64.0
12983,66.0,3,60,5.0,64.0
12984,73.0,17,90,6.0,64.0
12985,69.0,11,40,8.0,64.0
12986,50.0,11,60,10.0,64.0
12987,67.0,5,40,7.0,64.0
12988,67.0,12,40,5.0,64.0
12989,71.0,17,60,4.0,64.0
12990,71.0,4,60,6.0,64.0
12991,52.0,41,60,10.0,64.0
12992,69.0,1,60,6.0,64.0
12993,69.0,37,60,4.0,64.0
12994,69.0,0,60,7.0,64.0
12995,69.0,3,60,5.0,64.0
12996,54.0,1,60,10.0,64.0
12997,62.0,1,60,8.0,64.0
12998,71.0,14,40,7.0,64.0
12999,67.0,0,60,6.0,64.0
13000,67.0,51,60,4.0,64.0
13001,71.0,3,60,5.0,64.0
13002,69.0,4,60,7.0,64.0
13003,66.0,2,60,6.0,64.0
13004,66.0,40,60,4.0,64.0
13005,54.0,0,60,10.0,64.0
13006,69.0,0,40,5.0,64.0
13007,66.0,0,180,8.0,64.0
13008,64.0,7,40,6.0,64.0
13009,71.0,1,40,7.0,64.0
13010,55.0,75,60,10.0,64.0
13011,64.0,0,40,4.0,64.0
13012,71.0,4,40,5.0,64.0
13013,62.0,17,90,6.0,64.0
13014,57.0,9,60,10.0,64.0
13015,62.0,2,60,4.0,64.0
13016,72.0,4,60,7.0,64.0
13017,72.0,2,60,5.0,64.0
13018,69.0,76,40,7.0,64.0
13019,69.0,8,40,5.0,64.0
13020,62.0,1,60,7.0,64.0
13021,62.0,3,60,5.0,64.0
13022,54.0,39,60,10.0,64.0
13023,69.0,2,60,8.0,64.0
13024,86.0,4,90,0.0,64.0
13025,74.0,15,90,6.0,64.0
13026,74.0,1,90,4.0,64.0
13027,64.0,1,60,7.0,64.0
13028,64.0,1,40,5.0,64.0
13029,55.0,50,60,10.0,64.0
13030,66.0,2,60,7.0,64.0
13031,57.0,8,60,10.0,64.0
13032,66.0,8,60,5.0,64.0
13033,86.0,1,90,0.0,64.0
13034,60.0,29,60,8.0,64.0
13035,74.0,3,90,4.0,64.0
13036,74.0,4,90,6.0,64.0
13037,67.0,53,60,7.0,64.0
13038,67.0,6,40,5.0,64.0
13039,66.0,4,60,7.0,64.0
13040,66.0,16,40,5.0,64.0
13041,57.0,28,60,10.0,64.0
13042,86.0,9,90,0.0,64.0
13043,74.0,5,90,6.0,64.0
13044,74.0,63,90,4.0,64.0
13045,66.0,8,150,8.0,64.0
13046,59.0,1,40,10.0,64.0
13047,67.0,0,40,5.0,64.0
13048,67.0,7,40,7.0,64.0
13049,60.0,0,60,10.0,64.0
13050,69.0,6,60,5.0,64.0
13051,69.0,36,60,7.0,64.0
13052,86.0,2,90,0.0,64.0
13053,74.0,3,90,6.0,64.0
13054,74.0,2,90,4.0,64.0
13055,67.0,1,60,7.0,64.0
13056,67.0,55,60,5.0,64.0
13057,66.0,9,60,7.0,64.0
13058,60.0,3,60,10.0,64.0
13059,66.0,1,60,5.0,64.0
13060,81.0,1,90,2.0,64.0
13061,90.0,12,90,0.0,64.0
13062,86.0,1,90,1.0,64.0
13063,74.0,2,90,4.0,64.0
13064,74.0,2,90,6.0,64.0
13065,69.0,3,40,8.0,64.0
13066,50.0,25,40,3.0,64.0
13067,59.0,5,40,10.0,64.0
13068,67.0,0,60,7.0,64.0
13069,67.0,68,60,5.0,64.0
13070,60.0,2,60,10.0,64.0
13071,81.0,5,90,2.0,64.0
13072,90.0,3,90,0.0,64.0
13073,69.0,5,60,7.0,64.0
13074,86.0,12,90,1.0,64.0
13075,74.0,2,90,6.0,64.0
13076,74.0,9,90,4.0,64.0
13077,69.0,2,60,5.0,64.0
13078,62.0,11,60,8.0,64.0
13079,50.0,10,40,3.0,64.0
13080,67.0,5,60,7.0,64.0
13081,67.0,50,60,5.0,64.0
13082,66.0,0,60,7.0,64.0
13083,78.0,15,90,2.0,64.0
13084,86.0,7,90,1.0,64.0
13085,93.0,2,90,0.0,64.0
13086,66.0,14,60,5.0,64.0
13087,66.0,3,60,8.0,64.0
13088,74.0,1,90,4.0,64.0
13089,74.0,0,90,6.0,64.0
13090,62.0,11,60,10.0,64.0
13091,50.0,6,40,3.0,64.0
13092,64.0,1,60,7.0,64.0
13093,60.0,3,40,10.0,64.0
13094,64.0,65,60,5.0,64.0
13095,74.0,1,90,6.0,64.0
13096,62.0,0,60,5.0,64.0
13097,59.0,1,60,10.0,64.0
13098,74.0,32,120,2.0,64.0
13099,62.0,22,60,7.0,64.0
13100,67.0,8,60,8.0,64.0
13101,86.0,3,120,1.0,64.0
13102,50.0,7,60,3.0,64.0
13103,91.0,2,120,0.0,64.0
13104,74.0,9,90,4.0,64.0
13105,71.0,30,40,8.0,64.0
13106,76.0,5,90,6.0,64.0
13107,68.0,1,60,8.0,64.0
13108,76.0,66,90,4.0,64.0
13109,52.0,31,60,10.0,64.0
13110,71.0,6,40,7.0,64.0
13111,71.0,8,40,5.0,64.0
13112,69.0,0,40,8.0,64.0
13113,54.0,3,40,10.0,64.0
13114,56.0,3,60,10.0,64.0
13115,71.0,31,60,8.0,64.0
13116,76.0,12,90,6.0,64.0
13117,76.0,68,120,4.0,64.0
13118,64.0,7,40,7.0,64.0
13119,64.0,7,40,5.0,64.0
13120,73.0,2,40,8.0,64.0
13121,71.0,21,90,8.0,64.0
13122,76.0,4,90,6.0,64.0
13123,68.0,9,180,5.0,64.0
13124,56.0,14,60,10.0,64.0
13125,68.0,9,150,7.0,64.0
13126,76.0,62,90,4.0,64.0
13127,73.0,11,60,8.0,64.0
13128,57.0,1,40,10.0,64.0
13129,59.0,24,90,10.0,64.0
13130,74.0,2,60,8.0,64.0
13131,76.0,11,90,6.0,64.0
13132,76.0,54,90,4.0,64.0
13133,71.0,6,60,8.0,64.0
13134,64.0,6,60,8.0,64.0
13135,76.0,9,90,6.0,64.0
13136,71.0,8,40,7.0,64.0
13137,56.0,10,60,10.0,64.0
13138,88.0,3,90,0.0,64.0
13139,71.0,21,60,5.0,64.0
13140,76.0,59,90,4.0,64.0
13141,57.0,2,60,10.0,64.0
13142,66.0,8,60,8.0,64.0
13143,68.0,2,60,8.0,64.0
13144,59.0,16,90,10.0,64.0
13145,76.0,4,90,6.0,64.0
13146,62.0,0,60,7.0,64.0
13147,88.0,0,90,0.0,64.0
13148,62.0,20,40,5.0,64.0
13149,76.0,62,90,4.0,64.0
13150,69.0,12,40,8.0,64.0
13151,68.0,4,60,8.0,64.0
13152,76.0,1,90,6.0,64.0
13153,59.0,36,60,10.0,64.0
13154,68.0,1,180,5.0,64.0
13155,68.0,3,180,7.0,64.0
13156,76.0,0,90,4.0,64.0
13157,88.0,5,90,0.0,64.0
13158,61.0,14,40,10.0,64.0
13159,69.0,69,60,8.0,64.0
13160,62.0,4,60,10.0,64.0
13161,76.0,5,90,6.0,64.0
13162,71.0,25,60,8.0,64.0
13163,88.0,7,90,0.0,64.0
13164,76.0,6,90,4.0,64.0
13165,69.0,47,60,8.0,64.0
13166,76.0,6,90,6.0,64.0
13167,71.0,14,40,7.0,64.0
13168,68.0,3,60,8.0,64.0
13169,62.0,28,60,10.0,64.0
13170,92.0,3,90,0.0,64.0
13171,50.0,1,40,3.0,64.0
13172,88.0,1,90,1.0,64.0
13173,74.0,1,90,2.0,64.0
13174,76.0,1,90,4.0,64.0
13175,71.0,3,40,5.0,64.0
13176,61.0,7,60,10.0,64.0
13177,69.0,64,60,8.0,64.0
13178,62.0,14,90,10.0,64.0
13179,64.0,6,60,7.0,64.0
13180,76.0,2,90,4.0,64.0
13181,64.0,7,60,5.0,64.0
13182,76.0,21,90,6.0,64.0
13183,71.0,5,60,8.0,64.0
13184,88.0,4,90,1.0,64.0
13185,50.0,5,40,3.0,64.0
13186,74.0,0,90,2.0,64.0
13187,92.0,1,90,0.0,64.0
13188,69.0,36,60,8.0,64.0
13189,68.0,18,60,8.0,64.0
13190,68.0,8,30,5.0,64.0
13191,64.0,13,60,10.0,64.0
13192,76.0,2,90,6.0,64.0
13193,76.0,0,90,4.0,64.0
13194,68.0,9,40,7.0,64.0
13195,74.0,1,90,2.0,64.0
13196,95.0,11,90,0.0,64.0
13197,88.0,3,60,1.0,64.0
13198,50.0,1,40,3.0,64.0
13199,62.0,80,60,10.0,64.0
13200,66.0,6,40,8.0,64.0
13201,76.0,5,60,6.0,64.0
13202,64.0,15,90,8.0,64.0
13203,81.0,9,120,2.0,64.0
13204,61.0,3,60,10.0,64.0
13205,76.0,0,90,4.0,64.0
13206,93.0,1,120,0.0,64.0
13207,69.0,2,60,5.0,64.0
13208,88.0,46,120,1.0,64.0
13209,69.0,1,60,7.0,64.0
13210,45.0,13,60,3.0,64.0
13211,81.0,19,40,5.0,64.0
13212,81.0,0,40,7.0,64.0
13213,69.0,2,120,8.0,64.0
13214,73.0,9,60,7.0,64.0
13215,64.0,3,60,10.0,64.0
13216,69.0,1,60,4.0,64.0
13217,69.0,3,60,6.0,64.0
13218,73.0,21,60,5.0,64.0
13219,71.0,3,40,6.0,64.0
13220,71.0,7,40,4.0,64.0
13221,74.0,0,40,7.0,64.0
13222,74.0,60,40,5.0,64.0
13223,73.0,9,60,6.0,64.0
13224,73.0,10,60,4.0,64.0
13225,76.0,3,60,7.0,64.0
13226,69.0,13,90,8.0,64.0
13227,76.0,8,60,5.0,64.0
13228,57.0,7,60,10.0,64.0
13229,78.0,14,40,7.0,64.0
13230,78.0,58,40,5.0,64.0
13231,76.0,18,60,7.0,64.0
13232,73.0,5,60,6.0,64.0
13233,69.0,7,90,8.0,64.0
13234,73.0,4,60,4.0,64.0
13235,76.0,4,60,5.0,64.0
13236,61.0,12,180,10.0,64.0
13237,74.0,11,40,6.0,64.0
13238,78.0,1,40,7.0,64.0
13239,78.0,68,40,5.0,64.0
13240,74.0,1,40,4.0,64.0
13241,79.0,5,60,7.0,64.0
13242,76.0,9,60,6.0,64.0
13243,69.0,6,120,8.0,64.0
13244,76.0,10,60,4.0,64.0
13245,79.0,2,60,5.0,64.0
13246,76.0,10,40,7.0,64.0
13247,76.0,61,40,5.0,64.0
13248,69.0,13,60,7.0,64.0
13249,69.0,12,90,8.0,64.0
13250,73.0,5,60,6.0,64.0
13251,64.0,0,60,10.0,64.0
13252,73.0,2,60,4.0,64.0
13253,69.0,18,60,5.0,64.0
13254,71.0,53,60,7.0,64.0
13255,74.0,5,40,6.0,64.0
13256,74.0,8,40,4.0,64.0
13257,71.0,0,60,5.0,64.0
13258,73.0,2,60,7.0,64.0
13259,69.0,6,90,8.0,64.0
13260,76.0,1,60,6.0,64.0
13261,76.0,14,40,4.0,64.0
13262,73.0,22,60,5.0,64.0
13263,55.0,2,60,10.0,64.0
13264,74.0,22,60,7.0,64.0
13265,74.0,47,60,5.0,64.0
13266,73.0,18,60,7.0,64.0
13267,69.0,8,90,8.0,64.0
13268,73.0,7,60,5.0,64.0
13269,76.0,0,60,4.0,64.0
13270,76.0,7,60,6.0,64.0
13271,61.0,3,180,10.0,64.0
13272,74.0,14,40,7.0,64.0
13273,78.0,1,40,4.0,64.0
13274,74.0,5,40,5.0,64.0
13275,78.0,70,40,6.0,64.0
13276,69.0,28,90,8.0,64.0
13277,76.0,4,60,7.0,64.0
13278,79.0,4,60,4.0,64.0
13279,76.0,1,60,5.0,64.0
13280,79.0,13,60,6.0,64.0
13281,74.0,5,60,7.0,64.0
13282,74.0,47,60,5.0,64.0
13283,69.0,17,90,8.0,64.0
13284,73.0,4,60,7.0,64.0
13285,79.0,10,40,4.0,64.0
13286,64.0,9,60,10.0,64.0
13287,73.0,1,60,5.0,64.0
13288,79.0,10,40,6.0,64.0
13289,78.0,3,60,6.0,64.0
13290,78.0,10,40,4.0,64.0
13291,74.0,71,60,5.0,64.0
13292,74.0,9,40,7.0,64.0
13293,79.0,5,60,4.0,64.0
13294,69.0,30,90,8.0,64.0
13295,79.0,0,60,6.0,64.0
13296,76.0,18,60,7.0,64.0
13297,57.0,4,60,10.0,64.0
13298,76.0,4,60,5.0,64.0
13299,74.0,7,60,7.0,64.0
13300,74.0,47,60,5.0,64.0
13301,73.0,2,60,7.0,64.0
13302,69.0,14,90,8.0,64.0
13303,61.0,9,60,10.0,64.0
13304,81.0,4,60,6.0,64.0
13305,73.0,1,60,5.0,64.0
13306,81.0,9,60,4.0,64.0
13307,71.0,0,60,7.0,64.0
13308,79.0,14,40,6.0,64.0
13309,71.0,73,60,5.0,64.0
13310,79.0,7,40,4.0,64.0
13311,78.0,8,90,6.0,64.0
13312,69.0,9,90,8.0,64.0
13313,69.0,7,60,7.0,64.0
13314,78.0,59,90,4.0,64.0
13315,69.0,2,60,5.0,64.0
13316,50.0,3,60,10.0,64.0
13317,62.0,13,60,8.0,64.0
13318,78.0,8,30,6.0,64.0
13319,66.0,6,40,7.0,64.0
13320,62.0,19,60,10.0,64.0
13321,66.0,6,40,5.0,64.0
13322,78.0,3,30,4.0,64.0
13323,76.0,13,40,6.0,64.0
13324,64.0,52,60,8.0,64.0
13325,76.0,17,40,4.0,64.0
13326,78.0,30,90,6.0,64.0
13327,62.0,4,60,8.0,64.0
13328,55.0,23,60,10.0,64.0
13329,71.0,11,270,7.0,64.0
13330,71.0,11,270,5.0,64.0
13331,78.0,2,90,4.0,64.0
13332,61.0,46,40,8.0,64.0
13333,59.0,2,60,8.0,64.0
13334,59.0,32,60,10.0,64.0
13335,79.0,19,40,6.0,64.0
13336,79.0,6,30,4.0,64.0
13337,78.0,1,40,6.0,64.0
13338,78.0,60,40,4.0,64.0
13339,62.0,1,40,8.0,64.0
13340,76.0,12,120,6.0,64.0
13341,76.0,10,90,4.0,64.0
13342,61.0,8,60,8.0,64.0
13343,49.0,26,60,10.0,64.0
13344,62.0,46,60,8.0,64.0
13345,61.0,12,40,8.0,64.0
13346,61.0,1,60,10.0,64.0
13347,76.0,5,40,4.0,64.0
13348,76.0,13,60,6.0,64.0
13349,70.0,1,40,5.0,64.0
13350,70.0,33,60,7.0,64.0
13351,59.0,1,60,8.0,64.0
13352,74.0,4,40,6.0,64.0
13353,71.0,6,40,5.0,64.0
13354,74.0,0,40,4.0,64.0
13355,71.0,65,40,7.0,64.0
13356,58.0,10,60,8.0,64.0
13357,76.0,19,90,6.0,64.0
13358,73.0,3,60,5.0,64.0
13359,73.0,14,60,7.0,64.0
13360,76.0,6,120,4.0,64.0
13361,54.0,9,60,10.0,64.0
13362,71.0,44,60,5.0,64.0
13363,71.0,0,60,7.0,64.0
13364,70.0,3,60,5.0,64.0
13365,61.0,9,40,8.0,64.0
13366,70.0,2,60,7.0,64.0
13367,58.0,26,60,10.0,64.0
13368,78.0,0,40,6.0,64.0
13369,78.0,8,40,4.0,64.0
13370,76.0,1,40,6.0,64.0
13371,68.0,8,30,5.0,64.0
13372,68.0,13,40,7.0,64.0
13373,76.0,68,40,4.0,64.0
13374,74.0,3,90,6.0,64.0
13375,66.0,0,60,5.0,64.0
13376,66.0,3,60,7.0,64.0
13377,74.0,15,90,4.0,64.0
13378,62.0,10,60,8.0,64.0
13379,47.0,15,60,10.0,64.0
13380,78.0,4,40,5.0,64.0
13381,78.0,61,40,7.0,64.0
13382,59.0,19,60,10.0,64.0
13383,74.0,8,60,6.0,64.0
13384,66.0,3,40,8.0,64.0
13385,71.0,4,60,5.0,64.0
13386,71.0,3,60,7.0,64.0
13387,74.0,1,90,1.0,64.0
13388,86.0,3,40,0.0,64.0
13389,74.0,4,60,4.0,64.0
13390,76.0,9,40,6.0,64.0
13391,88.0,6,40,0.0,64.0
13392,76.0,5,40,4.0,64.0
13393,73.0,45,60,5.0,64.0
13394,73.0,5,40,7.0,64.0
13395,78.0,5,60,6.0,64.0
13396,90.0,2,60,0.0,64.0
13397,78.0,2,60,4.0,64.0
13398,74.0,23,60,7.0,64.0
13399,74.0,13,60,5.0,64.0
13400,74.0,3,90,1.0,64.0
13401,57.0,1,60,10.0,64.0
13402,59.0,8,40,8.0,64.0
13403,76.0,39,40,5.0,64.0
13404,76.0,4,40,7.0,64.0
13405,74.0,6,60,7.0,64.0
13406,55.0,13,90,10.0,64.0
13407,74.0,6,90,1.0,64.0
13408,90.0,1,60,0.0,64.0
13409,74.0,3,60,5.0,64.0
13410,78.0,5,60,6.0,64.0
13411,62.0,20,180,8.0,64.0
13412,64.0,29,15,8.0,64.0
13413,78.0,16,60,4.0,64.0
13414,91.0,2,40,0.0,64.0
13415,76.0,63,60,7.0,64.0
13416,79.0,2,40,6.0,64.0
13417,79.0,4,40,4.0,64.0
13418,76.0,4,40,5.0,64.0
13419,81.0,3,60,6.0,64.0
13420,78.0,10,60,7.0,64.0
13421,54.0,2,90,10.0,64.0
13422,93.0,1,60,0.0,64.0
13423,74.0,4,90,1.0,64.0
13424,81.0,8,60,4.0,64.0
13425,78.0,2,60,5.0,64.0
13426,81.0,6,40,7.0,64.0
13427,81.0,52,40,5.0,64.0
13428,74.0,17,60,7.0,64.0
13429,78.0,4,40,6.0,64.0
13430,74.0,0,60,5.0,64.0
13431,59.0,2,60,10.0,64.0
13432,74.0,18,60,8.0,64.0
13433,78.0,5,40,4.0,64.0
13434,74.0,4,90,1.0,64.0
13435,90.0,2,40,0.0,64.0
13436,74.0,0,90,2.0,64.0
13437,79.0,4,40,6.0,64.0
13438,76.0,73,60,7.0,64.0
13439,76.0,2,40,5.0,64.0
13440,79.0,1,40,4.0,64.0
13441,91.0,0,40,0.0,64.0
13442,81.0,6,60,6.0,64.0
13443,78.0,3,60,5.0,64.0
13444,78.0,0,60,7.0,64.0
13445,74.0,1,90,8.0,64.0
13446,57.0,14,60,10.0,64.0
13447,81.0,4,90,4.0,64.0
13448,74.0,62,90,1.0,64.0
13449,93.0,8,60,0.0,64.0
13450,74.0,2,90,2.0,64.0
13451,79.0,0,40,5.0,64.0
13452,79.0,2,40,7.0,64.0
13453,78.0,4,60,5.0,64.0
13454,78.0,3,60,7.0,64.0
13455,81.0,3,40,6.0,64.0
13456,74.0,0,90,8.0,64.0
13457,55.0,24,60,10.0,64.0
13458,93.0,3,40,0.0,64.0
13459,74.0,0,90,1.0,64.0
13460,81.0,10,40,4.0,64.0
13461,74.0,5,90,2.0,64.0
13462,83.0,2,40,6.0,64.0
13463,79.0,0,40,5.0,64.0
13464,79.0,4,40,7.0,64.0
13465,83.0,70,40,4.0,64.0
13466,95.0,1,30,0.0,64.0
13467,84.0,14,60,6.0,64.0
13468,81.0,1,60,7.0,64.0
13469,81.0,8,90,5.0,64.0
13470,74.0,4,90,8.0,64.0
13471,84.0,15,60,4.0,64.0
13472,54.0,1,60,10.0,64.0
13473,96.0,6,60,0.0,64.0
13474,74.0,2,90,1.0,64.0
13475,74.0,2,90,2.0,64.0
13476,79.0,59,60,7.0,64.0
13477,74.0,0,90,8.0,64.0
13478,78.0,4,60,7.0,64.0
13479,57.0,25,60,10.0,64.0
13480,84.0,0,40,6.0,64.0
13481,96.0,1,40,0.0,64.0
13482,90.0,1,40,1.0,64.0
13483,79.0,1,90,5.0,64.0
13484,84.0,8,60,4.0,64.0
13485,74.0,3,90,2.0,64.0
13486,50.0,9,40,3.0,64.0
13487,83.0,0,40,6.0,64.0
13488,79.0,0,40,7.0,64.0
13489,91.0,1,40,1.0,64.0
13490,95.0,14,40,0.0,64.0
13491,83.0,50,60,4.0,64.0
13492,74.0,8,90,8.0,64.0
13493,93.0,3,90,1.0,64.0
13494,84.0,2,60,6.0,64.0
13495,81.0,3,60,7.0,64.0
13496,50.0,1,60,10.0,64.0
13497,78.0,6,60,2.0,64.0
13498,50.0,19,40,3.0,64.0
13499,78.0,30,90,5.0,64.0
13500,84.0,5,60,4.0,64.0
13501,96.0,1,60,0.0,64.0
13502,79.0,32,60,7.0,64.0
13503,78.0,5,60,7.0,64.0
13504,69.0,1,90,8.0,64.0
13505,76.0,8,90,5.0,64.0
13506,95.0,7,30,1.0,64.0
13507,50.0,13,40,3.0,64.0
13508,86.0,4,60,6.0,64.0
13509,74.0,7,60,2.0,64.0
13510,54.0,3,60,10.0,64.0
13511,86.0,1,60,4.0,64.0
13512,98.0,4,40,0.0,64.0
13513,76.0,64,60,7.0,64.0
13514,93.0,12,30,1.0,64.0
13515,84.0,2,40,6.0,64.0
13516,84.0,8,40,4.0,64.0
13517,96.0,2,30,0.0,64.0
13518,71.0,0,120,8.0,64.0
13519,74.0,3,60,7.0,64.0
13520,83.0,3,60,6.0,64.0
13521,91.0,15,120,1.0,64.0
13522,43.0,1,60,10.0,64.0
13523,50.0,24,60,3.0,64.0
13524,74.0,4,60,5.0,64.0
13525,86.0,2,120,2.0,64.0
13526,83.0,10,60,4.0,64.0
13527,95.0,24,120,0.0,64.0
13528,79.0,11,40,6.0,64.0
13529,79.0,13,40,4.0,64.0
13530,71.0,11,60,7.0,64.0
13531,76.0,10,60,6.0,64.0
13532,71.0,12,90,8.0,64.0
13533,55.0,24,60,10.0,64.0
13534,71.0,7,60,5.0,64.0
13535,76.0,1,60,4.0,64.0
13536,78.0,3,40,6.0,64.0
13537,78.0,61,40,4.0,64.0
13538,79.0,7,60,6.0,64.0
13539,49.0,23,60,10.0,64.0
13540,71.0,11,90,8.0,64.0
13541,76.0,2,270,7.0,64.0
13542,76.0,10,270,5.0,64.0
13543,79.0,7,60,4.0,64.0
13544,81.0,7,40,6.0,64.0
13545,81.0,44,40,4.0,64.0
13546,78.0,14,40,6.0,64.0
13547,71.0,10,90,8.0,64.0
13548,78.0,12,40,4.0,64.0
13549,52.0,21,60,10.0,64.0
13550,95.0,2,60,0.0,64.0
13551,88.0,1,60,2.0,64.0
13552,91.0,5,60,1.0,64.0
13553,79.0,3,40,6.0,64.0
13554,79.0,57,40,4.0,64.0
13555,81.0,3,60,6.0,64.0
13556,69.0,5,90,8.0,64.0
13557,42.0,19,60,10.0,64.0
13558,93.0,7,120,0.0,64.0
13559,81.0,12,40,4.0,64.0
13560,90.0,4,150,1.0,64.0
13561,45.0,10,60,3.0,64.0
13562,88.0,18,120,2.0,64.0
13563,78.0,4,60,6.0,64.0
13564,78.0,31,40,4.0,64.0
13565,54.0,38,60,10.0,64.0
13566,69.0,12,90,8.0,64.0
13567,74.0,1,40,6.0,64.0
13568,69.0,2,40,5.0,64.0
13569,74.0,1,40,4.0,64.0
13570,69.0,2,40,7.0,64.0
13571,76.0,0,40,6.0,64.0
13572,76.0,79,40,4.0,64.0
13573,69.0,14,90,8.0,64.0
13574,47.0,5,60,10.0,64.0
13575,78.0,16,60,6.0,64.0
13576,78.0,5,60,4.0,64.0
13577,74.0,2,300,5.0,64.0
13578,74.0,2,270,7.0,64.0
13579,79.0,59,40,6.0,64.0
13580,79.0,2,40,4.0,64.0
13581,69.0,3,120,8.0,64.0
13582,50.0,27,60,10.0,64.0
13583,93.0,7,60,0.0,64.0
13584,76.0,1,40,6.0,64.0
13585,76.0,16,40,4.0,64.0
13586,86.0,4,60,2.0,64.0
13587,90.0,4,60,1.0,64.0
13588,78.0,2,40,6.0,64.0
13589,78.0,60,40,4.0,64.0
13590,67.0,3,120,8.0,64.0
13591,79.0,3,60,6.0,64.0
13592,91.0,11,40,0.0,64.0
13593,40.0,2,60,10.0,64.0
13594,79.0,14,60,4.0,64.0
13595,86.0,13,90,2.0,64.0
13596,88.0,9,60,1.0,64.0
13597,78.0,5,40,6.0,64.0
13598,90.0,2,40,0.0,64.0
13599,78.0,42,40,4.0,64.0
13600,76.0,4,30,6.0,64.0
13601,88.0,12,40,0.0,64.0
13602,45.0,0,60,10.0,64.0
13603,69.0,2,90,8.0,64.0
13604,73.0,2,60,7.0,64.0
13605,81.0,1,60,2.0,64.0
13606,93.0,2,60,1.0,64.0
13607,73.0,19,60,5.0,64.0
13608,76.0,13,40,4.0,64.0
13609,45.0,2,40,3.0,64.0
13610,79.0,5,30,6.0,64.0
13611,91.0,8,30,0.0,64.0
13612,79.0,65,30,4.0,64.0
13613,69.0,9,90,8.0,64.0
13614,50.0,6,60,10.0,64.0
13615,74.0,5,40,7.0,64.0
13616,78.0,3,60,6.0,64.0
13617,74.0,5,40,5.0,64.0
13618,81.0,2,60,2.0,64.0
13619,90.0,0,40,0.0,64.0
13620,93.0,0,40,1.0,64.0
13621,50.0,2,40,3.0,64.0
13622,78.0,20,60,4.0,64.0
13623,73.0,2,40,7.0,64.0
13624,76.0,7,40,6.0,64.0
13625,73.0,3,40,5.0,64.0
13626,88.0,1,40,0.0,64.0
13627,76.0,43,40,4.0,64.0
13628,71.0,1,40,7.0,64.0
13629,74.0,5,40,6.0,64.0
13630,69.0,3,90,8.0,64.0
13631,38.0,4,40,10.0,64.0
13632,71.0,3,40,5.0,64.0
13633,86.0,6,30,0.0,64.0
13634,74.0,0,40,4.0,64.0
13635,93.0,0,40,1.0,64.0
13636,81.0,25,40,2.0,64.0
13637,50.0,4,40,3.0,64.0
13638,74.0,6,40,7.0,64.0
13639,78.0,7,40,6.0,64.0
13640,74.0,5,40,5.0,64.0
13641,78.0,52,40,4.0,64.0
13642,90.0,3,30,0.0,64.0
13643,73.0,15,60,7.0,64.0
13644,69.0,8,90,8.0,64.0
13645,73.0,5,60,5.0,64.0
13646,76.0,21,60,6.0,64.0
13647,45.0,11,90,10.0,64.0
13648,93.0,16,120,1.0,64.0
13649,76.0,1,40,4.0,64.0
13650,88.0,2,120,0.0,64.0
13651,81.0,1,120,2.0,64.0
13652,45.0,5,60,3.0,64.0
13653,81.0,4,40,6.0,64.0
13654,81.0,28,40,4.0,64.0
13655,76.0,14,40,7.0,64.0
13656,76.0,2,40,5.0,64.0
13657,69.0,58,90,8.0,64.0
13658,73.0,5,60,6.0,64.0
13659,45.0,35,60,10.0,64.0
13660,73.0,2,40,4.0,64.0
13661,47.0,4,60,10.0,64.0
13662,74.0,4,40,4.0,64.0
13663,74.0,0,40,6.0,64.0
13664,49.0,4,60,10.0,64.0
13665,76.0,3,60,4.0,64.0
13666,69.0,8,40,7.0,64.0
13667,69.0,6,60,5.0,64.0
13668,69.0,6,90,8.0,64.0
13669,76.0,32,60,6.0,64.0
13670,78.0,9,40,6.0,64.0
13671,78.0,61,60,4.0,64.0
13672,76.0,15,60,6.0,64.0
13673,49.0,11,40,10.0,64.0
13674,73.0,4,150,7.0,64.0
13675,76.0,10,60,4.0,64.0
13676,69.0,16,90,8.0,64.0
13677,73.0,15,150,5.0,64.0
13678,50.0,5,40,10.0,64.0
13679,78.0,1,40,6.0,64.0
13680,78.0,57,40,4.0,64.0
13681,69.0,9,90,8.0,64.0
13682,52.0,5,60,10.0,64.0
13683,79.0,6,60,6.0,64.0
13684,79.0,17,60,4.0,64.0
13685,76.0,53,60,6.0,64.0
13686,76.0,7,40,4.0,64.0
13687,49.0,4,40,10.0,64.0
13688,69.0,6,90,8.0,64.0
13689,76.0,5,40,7.0,64.0
13690,69.0,33,60,6.0,64.0
13691,69.0,1,60,4.0,64.0
13692,76.0,11,40,5.0,64.0
13693,81.0,9,90,0.0,64.0
13694,50.0,2,40,10.0,64.0
13695,71.0,2,60,6.0,64.0
13696,71.0,52,40,4.0,64.0
13697,52.0,5,60,10.0,64.0
13698,69.0,2,90,8.0,64.0
13699,67.0,4,40,7.0,64.0
13700,73.0,4,60,6.0,64.0
13701,73.0,29,60,4.0,64.0
13702,67.0,6,40,5.0,64.0
13703,81.0,5,90,0.0,64.0
13704,74.0,7,40,6.0,64.0
13705,74.0,67,40,4.0,64.0
13706,69.0,6,90,8.0,64.0
13707,73.0,25,60,6.0,64.0
13708,73.0,9,40,4.0,64.0
13709,52.0,3,60,10.0,64.0
13710,73.0,30,180,5.0,64.0
13711,81.0,1,90,0.0,64.0
13712,73.0,2,180,7.0,64.0
13713,54.0,3,40,10.0,64.0
13714,74.0,79,40,4.0,64.0
13715,74.0,2,40,6.0,64.0
13716,55.0,0,60,10.0,64.0
13717,69.0,0,90,8.0,64.0
13718,76.0,7,60,6.0,64.0
13719,76.0,1,60,4.0,64.0
13720,81.0,11,90,0.0,64.0
13721,74.0,2,40,6.0,64.0
13722,74.0,48,60,4.0,64.0
13723,73.0,1,60,6.0,64.0
13724,55.0,4,60,10.0,64.0
13725,73.0,8,40,4.0,64.0
13726,69.0,0,90,8.0,64.0
13727,81.0,65,90,2.0,64.0
13728,76.0,3,40,7.0,64.0
13729,88.0,0,90,0.0,64.0
13730,76.0,39,40,5.0,64.0
13731,45.0,1,40,3.0,64.0
13732,81.0,4,60,1.0,64.0
13733,54.0,0,40,10.0,64.0
13734,74.0,4,40,4.0,64.0
13735,74.0,5,40,6.0,64.0
13736,55.0,0,60,10.0,64.0
13737,76.0,2,60,4.0,64.0
13738,76.0,2,60,6.0,64.0
13739,88.0,15,90,0.0,64.0
13740,69.0,4,60,7.0,64.0
13741,81.0,8,90,2.0,64.0
13742,69.0,15,60,5.0,64.0
13743,69.0,1,90,8.0,64.0
13744,81.0,6,90,1.0,64.0
13745,45.0,4,40,3.0,64.0
13746,79.0,4,60,6.0,64.0
13747,79.0,55,60,4.0,64.0
13748,78.0,4,60,6.0,64.0
13749,57.0,1,60,10.0,64.0
13750,93.0,1,60,0.0,64.0
13751,69.0,3,90,8.0,64.0
13752,78.0,5,40,4.0,64.0
13753,73.0,0,60,5.0,64.0
13754,73.0,0,60,7.0,64.0
13755,88.0,26,60,1.0,64.0
13756,81.0,2,60,2.0,64.0
13757,45.0,3,40,3.0,64.0
13758,55.0,5,40,10.0,64.0
13759,76.0,5,40,6.0,64.0
13760,76.0,65,40,4.0,64.0
13761,54.0,1,90,10.0,64.0
13762,69.0,21,90,8.0,64.0
13763,81.0,3,60,6.0,64.0
13764,93.0,11,120,0.0,64.0
13765,74.0,1,40,7.0,64.0
13766,74.0,14,40,5.0,64.0
13767,81.0,11,60,4.0,64.0
13768,74.0,20,120,2.0,64.0
13769,50.0,3,60,3.0,64.0
13770,90.0,9,90,1.0,64.0
13771,79.0,15,60,6.0,64.0
13772,79.0,2,60,4.0,64.0
13773,54.0,4,40,10.0,64.0
13774,78.0,4,40,6.0,64.0
13775,69.0,0,40,7.0,64.0
13776,78.0,26,40,4.0,64.0
13777,62.0,13,60,8.0,64.0
13778,69.0,2,40,5.0,64.0
13779,93.0,2,30,1.0,64.0
13780,52.0,8,40,10.0,64.0
13781,79.0,2,40,6.0,64.0
13782,79.0,64,40,4.0,64.0
13783,91.0,1,30,1.0,64.0
13784,54.0,23,90,10.0,64.0
13785,81.0,7,40,6.0,64.0
13786,81.0,1,40,4.0,64.0
13787,66.0,9,60,8.0,64.0
13788,90.0,17,60,1.0,64.0
13789,74.0,5,270,5.0,64.0
13790,74.0,8,270,7.0,64.0
13791,78.0,3,60,4.0,64.0
13792,78.0,46,60,6.0,64.0
13793,74.0,21,90,6.0,64.0
13794,74.0,2,60,4.0,64.0
13795,71.0,17,60,8.0,64.0
13796,95.0,16,30,0.0,64.0
13797,86.0,3,40,1.0,64.0
13798,55.0,1,40,10.0,64.0
13799,78.0,4,40,6.0,64.0
13800,78.0,1,40,4.0,64.0
13801,93.0,1,40,0.0,64.0
13802,54.0,60,40,10.0,64.0
13803,79.0,1,60,6.0,64.0
13804,52.0,28,60,10.0,64.0
13805,79.0,16,60,4.0,64.0
13806,91.0,0,120,0.0,64.0
13807,88.0,6,90,1.0,64.0
13808,71.0,11,120,8.0,64.0
13809,78.0,9,60,6.0,64.0
13810,78.0,31,60,4.0,64.0
13811,76.0,23,60,6.0,64.0
13812,76.0,3,40,4.0,64.0
13813,52.0,2,40,10.0,64.0
13814,67.0,5,60,7.0,64.0
13815,91.0,12,30,1.0,64.0
13816,73.0,5,60,5.0,64.0
13817,73.0,2,40,8.0,64.0
13818,50.0,1,60,10.0,64.0
13819,78.0,4,40,6.0,64.0
13820,78.0,5,40,4.0,64.0
13821,90.0,3,30,1.0,64.0
13822,74.0,67,40,8.0,64.0
13823,52.0,6,60,10.0,64.0
13824,73.0,2,60,8.0,64.0
13825,79.0,3,40,6.0,64.0
13826,88.0,2,60,1.0,64.0
13827,64.0,27,60,7.0,64.0
13828,76.0,1,60,5.0,64.0
13829,79.0,3,60,4.0,64.0
13830,83.0,20,40,6.0,64.0
13831,83.0,47,60,4.0,64.0
13832,81.0,2,40,6.0,64.0
13833,69.0,1,60,8.0,64.0
13834,81.0,5,40,4.0,64.0
13835,88.0,3,60,2.0,64.0
13836,54.0,0,60,10.0,64.0
13837,73.0,2,40,7.0,64.0
13838,73.0,23,60,5.0,64.0
13839,81.0,10,60,1.0,64.0
13840,93.0,3,30,0.0,64.0
13841,45.0,2,40,3.0,64.0
13842,79.0,0,40,6.0,64.0
13843,52.0,3,40,10.0,64.0
13844,91.0,6,40,0.0,64.0
13845,79.0,65,40,4.0,64.0
13846,69.0,9,90,8.0,64.0
13847,50.0,1,60,10.0,64.0
13848,78.0,9,40,6.0,64.0
13849,90.0,4,60,0.0,64.0
13850,74.0,1,60,5.0,64.0
13851,74.0,3,60,7.0,64.0
13852,90.0,67,90,2.0,64.0
13853,78.0,1,60,4.0,64.0
13854,50.0,10,60,3.0,64.0
13855,81.0,15,60,1.0,64.0
13856,52.0,3,40,10.0,64.0
13857,54.0,4,60,10.0,64.0
13858,74.0,4,60,6.0,64.0
13859,69.0,22,60,8.0,64.0
13860,69.0,1,60,5.0,64.0
13861,86.0,4,60,1.0,64.0
13862,93.0,0,40,0.0,64.0
13863,69.0,1,60,7.0,64.0
13864,74.0,10,60,4.0,64.0
13865,50.0,77,40,10.0,64.0
13866,55.0,2,60,10.0,64.0
13867,62.0,2,60,7.0,64.0
13868,67.0,26,60,8.0,64.0
13869,71.0,3,60,6.0,64.0
13870,91.0,67,90,2.0,64.0
13871,62.0,2,60,5.0,64.0
13872,95.0,0,60,0.0,64.0
13873,86.0,1,60,1.0,64.0
13874,71.0,6,40,4.0,64.0
13875,50.0,1,60,3.0,64.0
13876,57.0,1,40,10.0,64.0
13877,54.0,2,60,10.0,64.0
13878,71.0,28,60,8.0,64.0
13879,88.0,2,60,1.0,64.0
13880,67.0,8,40,7.0,64.0
13881,74.0,0,40,5.0,64.0
13882,91.0,6,40,0.0,64.0
13883,76.0,0,40,6.0,64.0
13884,76.0,12,40,4.0,64.0
13885,55.0,77,60,10.0,64.0
13886,57.0,1,60,10.0,64.0
13887,69.0,10,60,8.0,64.0
13888,81.0,1,60,1.0,64.0
13889,88.0,2,120,2.0,64.0
13890,64.0,2,60,7.0,64.0
13891,45.0,0,60,3.0,64.0
13892,64.0,18,270,5.0,64.0
13893,73.0,3,60,4.0,64.0
13894,97.0,3,40,0.0,64.0
13895,73.0,38,60,6.0,64.0
13896,61.0,6,60,7.0,64.0
13897,69.0,4,60,4.0,64.0
13898,69.0,43,60,6.0,64.0
13899,55.0,24,90,10.0,64.0
13900,62.0,4,40,7.0,64.0
13901,64.0,2,60,8.0,64.0
13902,71.0,3,60,4.0,64.0
13903,88.0,10,60,1.0,64.0
13904,71.0,4,60,6.0,64.0
13905,93.0,7,40,0.0,64.0
13906,64.0,6,40,7.0,64.0
13907,73.0,2,40,4.0,64.0
13908,73.0,40,40,6.0,64.0
13909,74.0,5,60,6.0,64.0
13910,74.0,1,60,4.0,64.0
13911,90.0,4,40,1.0,64.0
13912,54.0,0,60,10.0,64.0
13913,69.0,24,60,8.0,64.0
13914,81.0,1,60,2.0,64.0
13915,57.0,5,60,7.0,64.0
13916,45.0,6,40,3.0,64.0
13917,98.0,4,40,0.0,64.0
13918,88.0,9,40,1.0,64.0
13919,76.0,44,40,6.0,64.0
13920,76.0,2,40,4.0,64.0
13921,90.0,14,40,1.0,64.0
13922,78.0,3,40,6.0,64.0
13923,52.0,7,60,10.0,64.0
13924,69.0,21,60,8.0,64.0
13925,73.0,1,40,7.0,64.0
13926,78.0,1,40,4.0,64.0
13927,73.0,4,40,5.0,64.0
13928,81.0,8,60,2.0,64.0
13929,91.0,1,60,0.0,64.0
13930,45.0,1,30,3.0,64.0
13931,91.0,5,40,1.0,64.0
13932,79.0,0,40,6.0,64.0
13933,79.0,68,40,4.0,64.0
13934,78.0,5,40,6.0,64.0
13935,50.0,5,60,10.0,64.0
13936,74.0,3,60,7.0,64.0
13937,74.0,3,60,5.0,64.0
13938,69.0,1,40,8.0,64.0
13939,78.0,1,40,4.0,64.0
13940,93.0,0,120,1.0,64.0
13941,81.0,23,120,2.0,64.0
13942,50.0,36,60,3.0,64.0
13943,90.0,3,120,0.0,64.0
13944,76.0,11,40,6.0,64.0
13945,67.0,1,60,8.0,64.0
13946,76.0,20,40,4.0,64.0
13947,66.0,2,60,8.0,64.0
13948,74.0,9,40,6.0,64.0
13949,55.0,37,60,10.0,64.0
13950,71.0,0,60,5.0,64.0
13951,71.0,4,60,7.0,64.0
13952,74.0,4,40,4.0,64.0
13953,67.0,66,60,8.0,64.0
13954,76.0,9,40,6.0,64.0
13955,76.0,0,40,4.0,64.0
13956,64.0,3,60,8.0,64.0
13957,69.0,5,60,7.0,64.0
13958,57.0,6,60,10.0,64.0
13959,69.0,2,60,5.0,64.0
13960,69.0,2,60,6.0,64.0
13961,91.0,5,120,1.0,64.0
13962,88.0,45,120,0.0,64.0
13963,69.0,9,60,4.0,64.0
13964,81.0,2,120,2.0,64.0
13965,45.0,58,60,3.0,64.0
13966,69.0,3,60,7.0,64.0
13967,45.0,1,60,10.0,64.0
13968,64.0,6,60,8.0,64.0
13969,69.0,100,60,5.0,64.0
13970,73.0,0,60,6.0,64.0
13971,73.0,2,60,4.0,64.0
13972,69.0,11,270,5.0,64.0
13973,74.0,3,120,0.0,64.0
13974,50.0,5,2160,10.0,64.0
13975,69.0,2,120,7.0,64.0
13976,74.0,2,240,6.0,64.0
13977,66.0,4,240,8.0,64.0
13978,90.0,9,120,1.0,64.0
13979,81.0,3,120,2.0,64.0
13980,50.0,18,20,3.0,64.0
13981,74.0,22,240,4.0,64.0
13982,50.0,29,15,3.0,64.0
13983,50.0,18,20,3.0,64.0
13984,50.0,28,15,3.0,64.0
13985,50.0,28,40,3.0,64.0
13986,50.0,17,15,3.0,64.0
13987,62.0,12,40,7.0,64.0
13988,50.0,22,15,3.0,64.0
13989,50.0,17,15,3.0,64.0
13990,50.0,14,15,3.0,64.0
13991,62.0,2,90,7.0,64.0
13992,50.0,25,30,3.0,64.0
13993,76.0,2,60,6.0,64.0
13994,76.0,2,40,4.0,64.0
13995,76.0,12,40,5.0,64.0
13996,50.0,3,20,3.0,64.0
13997,50.0,36,15,3.0,64.0
13998,78.0,6,40,6.0,64.0
13999,78.0,5,40,4.0,64.0
14000,78.0,0,30,5.0,64.0
14001,50.0,38,30,3.0,64.0
14002,74.0,6,40,4.0,64.0
14003,74.0,0,40,5.0,64.0
14004,74.0,50,40,6.0,64.0
14005,66.0,3,30,7.0,64.0
14006,62.0,2,30,8.0,64.0
14007,50.0,3,30,3.0,64.0
14008,69.0,2,300,4.0,64.0
14009,62.0,0,90,8.0,64.0
14010,50.0,33,30,3.0,64.0
14011,66.0,17,90,7.0,64.0
14012,69.0,17,270,5.0,64.0
14013,69.0,18,300,6.0,64.0
14014,78.0,5,120,0.0,64.0
14015,86.0,3,120,1.0,64.0
14016,81.0,12,150,2.0,64.0
14017,50.0,20,20,3.0,64.0
14018,50.0,13,15,3.0,64.0
14019,50.0,12,15,3.0,64.0
14020,50.0,18,15,3.0,64.0
14021,50.0,22,15,3.0,64.0
14022,50.0,28,15,3.0,64.0
14023,69.0,19,30,7.0,64.0
14024,66.0,4,40,8.0,64.0
14025,50.0,0,15,3.0,64.0
14026,50.0,24,15,3.0,64.0
14027,69.0,3,60,7.0,64.0
14028,50.0,6,15,3.0,64.0
14029,66.0,6,60,8.0,64.0
14030,50.0,6,15,3.0,64.0
14031,71.0,7,30,5.0,64.0
14032,50.0,5,15,3.0,64.0
14033,71.0,6,40,4.0,64.0
14034,71.0,35,30,6.0,64.0
14035,50.0,8,15,3.0,64.0
14036,50.0,7,30,3.0,64.0
14037,72.0,14,30,5.0,64.0
14038,72.0,13,40,4.0,64.0
14039,72.0,2,40,6.0,64.0
14040,50.0,21,15,3.0,64.0
14041,69.0,0,40,5.0,64.0
14042,66.0,13,40,7.0,64.0
14043,69.0,2,40,4.0,64.0
14044,50.0,13,15,3.0,64.0
14045,69.0,14,40,6.0,64.0
14046,69.0,5,40,8.0,64.0
14047,50.0,4,15,3.0,64.0
14048,62.0,1,150,7.0,64.0
14049,50.0,32,15,3.0,64.0
14050,81.0,29,120,0.0,64.0
14051,69.0,13,90,8.0,64.0
14052,66.0,14,270,4.0,64.0
14053,66.0,1,270,5.0,64.0
14054,86.0,2,120,2.0,64.0
14055,90.0,2,120,1.0,64.0
14056,66.0,7,270,6.0,64.0
14057,50.0,19,20,3.0,64.0
14058,50.0,33,15,3.0,64.0
14059,50.0,2,20,3.0,64.0
14060,50.0,19,15,3.0,64.0
14061,50.0,53,30,3.0,64.0
14062,50.0,20,30,3.0,64.0
14063,57.0,2,40,8.0,64.0
14064,66.0,13,40,7.0,64.0
14065,50.0,20,15,3.0,64.0
14066,50.0,10,15,3.0,64.0
14067,57.0,2,90,8.0,64.0
14068,66.0,7,90,7.0,64.0
14069,50.0,25,15,3.0,64.0
14070,67.0,6,40,5.0,64.0
14071,67.0,1,40,6.0,64.0
14072,67.0,6,40,4.0,64.0
14073,50.0,6,20,3.0,64.0
14074,50.0,24,15,3.0,64.0
14075,50.0,24,15,3.0,64.0
14076,69.0,2,40,6.0,64.0
14077,69.0,5,30,4.0,64.0
14078,69.0,12,40,5.0,64.0
14079,50.0,6,15,3.0,64.0
14080,50.0,30,15,3.0,64.0
14081,66.0,3,40,6.0,64.0
14082,66.0,2,40,4.0,64.0
14083,62.0,2,40,8.0,64.0
14084,69.0,2,30,7.0,64.0
14085,66.0,11,40,5.0,64.0
14086,50.0,55,30,3.0,64.0
14087,66.0,4,90,8.0,64.0
14088,62.0,4,300,4.0,64.0
14089,69.0,26,120,7.0,64.0
14090,62.0,20,270,6.0,64.0
14091,62.0,0,300,5.0,64.0
14092,90.0,1,120,2.0,64.0
14093,93.0,4,120,1.0,64.0
14094,50.0,33,30,3.0,64.0
14095,86.0,25,120,0.0,64.0
14096,50.0,21,15,3.0,64.0
14097,50.0,2,15,3.0,64.0
14098,50.0,4,20,3.0,64.0
14099,50.0,27,20,3.0,64.0
14100,50.0,31,15,3.0,64.0
14101,69.0,24,40,8.0,64.0
14102,72.0,1,40,7.0,64.0
14103,50.0,0,20,3.0,64.0
14104,50.0,33,15,3.0,64.0
14105,69.0,24,60,8.0,64.0
14106,72.0,4,60,7.0,64.0
14107,50.0,1,40,3.0,64.0
14108,50.0,22,20,3.0,64.0
14109,50.0,30,15,3.0,64.0
14110,64.0,10,40,6.0,64.0
14111,64.0,2,40,4.0,64.0
14112,64.0,2,40,5.0,64.0
14113,50.0,9,20,3.0,64.0
14114,66.0,3,30,6.0,64.0
14115,66.0,10,30,4.0,64.0
14116,50.0,13,20,3.0,64.0
14117,66.0,1,30,5.0,64.0
14118,67.0,3,40,6.0,64.0
14119,50.0,11,20,3.0,64.0
14120,69.0,8,30,7.0,64.0
14121,66.0,6,40,8.0,64.0
14122,67.0,4,40,5.0,64.0
14123,69.0,2,40,6.0,64.0
14124,67.0,7,40,4.0,64.0
14125,50.0,6,30,3.0,64.0
14126,69.0,5,40,5.0,64.0
14127,71.0,1,30,6.0,64.0
14128,69.0,11,40,4.0,64.0
14129,71.0,4,30,5.0,64.0
14130,72.0,16,90,6.0,64.0
14131,71.0,18,30,4.0,64.0
14132,66.0,0,330,7.0,64.0
14133,62.0,7,90,8.0,64.0
14134,72.0,3,90,5.0,64.0
14135,72.0,107,90,4.0,64.0
14136,50.0,36,30,3.0,64.0
14137,57.0,7,40,8.0,64.0
14138,72.0,3,40,5.0,64.0
14139,86.0,4,30,2.0,64.0
14140,72.0,3,40,4.0,64.0
14141,72.0,38,40,6.0,64.0
14142,81.0,0,40,0.0,64.0
14143,90.0,1,30,1.0,64.0
14144,74.0,0,90,5.0,64.0
14145,86.0,9,60,2.0,64.0
14146,57.0,1,90,8.0,64.0
14147,74.0,6,90,6.0,64.0
14148,74.0,0,90,4.0,64.0
14149,50.0,36,30,3.0,64.0
14150,90.0,3,60,1.0,64.0
14151,81.0,4,60,0.0,64.0
14152,50.0,11,30,3.0,64.0
14153,48.0,48,40,10.0,64.0
14154,47.0,46,40,10.0,64.0
14155,50.0,15,30,3.0,64.0
14156,45.0,0,40,10.0,64.0
14157,66.0,2,40,7.0,64.0
14158,81.0,2,40,0.0,64.0
14159,60.0,4,40,8.0,64.0
14160,76.0,0,40,4.0,64.0
14161,90.0,6,30,2.0,64.0
14162,76.0,1,40,5.0,64.0
14163,50.0,4,30,3.0,64.0
14164,93.0,5,30,1.0,64.0
14165,76.0,55,40,6.0,64.0
14166,67.0,5,90,7.0,64.0
14167,62.0,107,90,8.0,64.0
14168,86.0,4,90,2.0,64.0
14169,74.0,2,90,4.0,64.0
14170,47.0,1,90,10.0,64.0
14171,74.0,4,90,5.0,64.0
14172,74.0,4,90,6.0,64.0
14173,86.0,1,60,0.0,64.0
14174,91.0,0,90,1.0,64.0
14175,50.0,31,40,3.0,64.0
14176,64.0,1,40,8.0,64.0
14177,86.0,1,40,2.0,64.0
14178,50.0,9,30,3.0,64.0
14179,72.0,7,40,4.0,64.0
14180,69.0,1,40,7.0,64.0
14181,81.0,1,40,0.0,64.0
14182,72.0,1,40,5.0,64.0
14183,91.0,2,30,1.0,64.0
14184,48.0,55,40,10.0,64.0
14185,72.0,0,40,6.0,64.0
14186,62.0,2,90,8.0,64.0
14187,71.0,5,90,4.0,64.0
14188,71.0,0,90,6.0,64.0
14189,67.0,0,90,7.0,64.0
14190,86.0,3,60,2.0,64.0
14191,91.0,4,90,1.0,64.0
14192,83.0,115,90,0.0,64.0
14193,71.0,0,90,5.0,64.0
14194,50.0,4,60,10.0,64.0
14195,50.0,34,40,3.0,64.0
14196,62.0,3,40,8.0,64.0
14197,69.0,1,30,4.0,64.0
14198,66.0,10,40,7.0,64.0
14199,50.0,5,30,3.0,64.0
14200,84.0,0,30,0.0,64.0
14201,69.0,1,40,5.0,64.0
14202,69.0,4,30,6.0,64.0
14203,86.0,2,30,2.0,64.0
14204,91.0,1,30,1.0,64.0
14205,38.0,65,40,10.0,64.0
14206,71.0,4,180,6.0,64.0
14207,71.0,3,180,4.0,64.0
14208,71.0,35,180,5.0,64.0
14209,67.0,85,90,7.0,64.0
14210,62.0,40,330,8.0,64.0
14211,91.0,7,240,1.0,64.0
14212,50.0,28,40,3.0,64.0
14213,83.0,4,240,0.0,64.0
14214,86.0,54,240,2.0,64.0
14215,43.0,36,420,10.0,64.0
14216,71.0,31,40,7.0,64.0
14217,71.0,40,60,7.0,64.0
14218,67.0,8,180,6.0,64.0
14219,67.0,19,150,5.0,64.0
14220,67.0,3,150,4.0,64.0
14221,67.0,11,40,7.0,64.0
14222,62.0,102,40,8.0,64.0
14223,71.0,42,390,4.0,64.0
14224,71.0,33,360,5.0,64.0
14225,71.0,2,360,6.0,64.0
14226,55.0,18,420,10.0,64.0
14227,62.0,28,300,7.0,64.0
14228,67.0,129,90,8.0,64.0
14229,71.0,89,40,8.0,64.0
14230,71.0,8,60,8.0,64.0
14231,64.0,12,40,7.0,64.0
14232,73.0,1,40,5.0,64.0
14233,73.0,2,40,6.0,64.0
14234,67.0,8,40,8.0,64.0
14235,73.0,103,40,4.0,64.0
14236,57.0,128,90,7.0,64.0
14237,74.0,43,270,6.0,64.0
14238,74.0,1,270,5.0,64.0
14239,74.0,3,270,4.0,64.0
14240,69.0,9,330,8.0,64.0
14241,54.0,7,510,10.0,64.0
14242,62.0,44,60,7.0,64.0
14243,66.0,19,60,7.0,64.0
14244,73.0,2,40,5.0,64.0
14245,73.0,2,40,4.0,64.0
14246,73.0,51,40,6.0,64.0
14247,74.0,2,40,4.0,64.0
14248,74.0,2,40,5.0,64.0
14249,74.0,43,40,6.0,64.0
14250,76.0,5,30,5.0,64.0
14251,76.0,7,40,4.0,64.0
14252,67.0,5,40,7.0,64.0
14253,76.0,3,40,6.0,64.0
14254,67.0,62,40,8.0,64.0
14255,76.0,4,60,4.0,64.0
14256,76.0,7,60,5.0,64.0
14257,69.0,9,120,7.0,64.0
14258,76.0,13,60,6.0,64.0
14259,66.0,3,90,8.0,64.0
14260,75.0,7,30,5.0,64.0
14261,75.0,7,30,4.0,64.0
14262,75.0,10,30,6.0,64.0
14263,55.0,1,40,10.0,64.0
14264,76.0,2,20,5.0,64.0
14265,76.0,7,30,4.0,64.0
14266,76.0,1,30,6.0,64.0
14267,75.0,8,20,5.0,64.0
14268,75.0,9,20,4.0,64.0
14269,75.0,6,20,6.0,64.0
14270,76.0,10,20,5.0,64.0
14271,76.0,3,20,4.0,64.0
14272,57.0,4,40,10.0,64.0
14273,76.0,5,20,6.0,64.0
14274,75.0,7,20,5.0,64.0
14275,75.0,3,15,4.0,64.0
14276,75.0,7,20,6.0,64.0
14277,76.0,12,20,5.0,64.0
14278,76.0,1,30,4.0,64.0
14279,76.0,7,20,6.0,64.0
14280,72.0,0,30,7.0,64.0
14281,64.0,2,40,8.0,64.0
14282,75.0,10,20,5.0,64.0
14283,59.0,9,40,10.0,64.0
14284,75.0,7,20,4.0,64.0
14285,75.0,3,30,6.0,64.0
14286,76.0,5,30,5.0,64.0
14287,76.0,6,30,4.0,64.0
14288,76.0,48,30,6.0,64.0
14289,75.0,0,150,5.0,64.0
14290,75.0,10,120,4.0,64.0
14291,72.0,20,60,7.0,64.0
14292,75.0,29,120,6.0,64.0
14293,66.0,8,90,8.0,64.0
14294,57.0,17,40,10.0,64.0
14295,55.0,25,40,10.0,64.0
14296,54.0,50,40,10.0,64.0
14297,76.0,0,40,6.0,64.0
14298,71.0,1,40,7.0,64.0
14299,52.0,101,40,10.0,64.0
14300,67.0,1,40,8.0,64.0
14301,76.0,8,40,4.0,64.0
14302,76.0,2,30,5.0,64.0
14303,71.0,2,90,7.0,64.0
14304,78.0,45,270,6.0,64.0
14305,78.0,4,240,5.0,64.0
14306,78.0,9,270,4.0,64.0
14307,66.0,133,90,8.0,64.0
14308,51.0,0,570,10.0,64.0
14309,66.0,33,40,7.0,64.0
14310,69.0,0,40,8.0,64.0
14311,63.0,2,60,7.0,64.0
14312,69.0,26,60,8.0,64.0
14313,81.0,1,40,4.0,64.0
14314,81.0,1,40,5.0,64.0
14315,81.0,57,40,6.0,64.0
14316,79.0,2,40,6.0,64.0
14317,79.0,2,40,4.0,64.0
14318,79.0,62,40,5.0,64.0
14319,69.0,2,40,7.0,64.0
14320,78.0,84,60,6.0,64.0
14321,78.0,2,40,4.0,64.0
14322,72.0,4,40,8.0,64.0
14323,78.0,0,40,5.0,64.0
14324,59.0,17,90,7.0,64.0
14325,66.0,11,60,8.0,64.0
14326,83.0,119,90,4.0,64.0
14327,83.0,0,90,6.0,64.0
14328,83.0,2,90,5.0,64.0
14329,59.0,6,40,8.0,64.0
14330,47.0,4,40,10.0,64.0
14331,81.0,1,40,6.0,64.0
14332,75.0,95,40,7.0,64.0
14333,81.0,0,40,5.0,64.0
14334,81.0,1,40,4.0,64.0
14335,49.0,3,90,10.0,64.0
14336,64.0,0,90,8.0,64.0
14337,79.0,1,90,6.0,64.0
14338,76.0,3,90,7.0,64.0
14339,79.0,1,90,4.0,64.0
14340,79.0,125,90,5.0,64.0
14341,78.0,7,40,6.0,64.0
14342,78.0,0,40,7.0,64.0
14343,78.0,1,40,4.0,64.0
14344,78.0,15,40,5.0,64.0
14345,71.0,2,40,8.0,64.0
14346,51.0,82,40,10.0,64.0
14347,79.0,3,90,6.0,64.0
14348,76.0,5,90,7.0,64.0
14349,79.0,2,90,4.0,64.0
14350,71.0,124,90,8.0,64.0
14351,79.0,1,90,5.0,64.0
14352,52.0,1,90,10.0,64.0
14353,69.0,3,40,8.0,64.0
14354,75.0,7,40,7.0,64.0
14355,54.0,2,60,10.0,64.0
14356,78.0,1,40,6.0,64.0
14357,78.0,1,40,4.0,64.0
14358,78.0,94,40,5.0,64.0
14359,76.0,111,90,6.0,64.0
14360,76.0,4,90,7.0,64.0
14361,55.0,3,90,10.0,64.0
14362,71.0,1,90,8.0,64.0
14363,76.0,2,90,4.0,64.0
14364,76.0,2,90,5.0,64.0
14365,78.0,8,40,7.0,64.0
14366,78.0,1,40,6.0,64.0
14367,72.0,1,40,8.0,64.0
14368,78.0,1,30,4.0,64.0
14369,78.0,3,30,5.0,64.0
14370,57.0,82,40,10.0,64.0
14371,71.0,15,330,8.0,64.0
14372,76.0,14,90,7.0,64.0
14373,79.0,2,60,6.0,64.0
14374,79.0,0,60,4.0,64.0
14375,79.0,9,60,5.0,64.0
14376,59.0,3,120,10.0,64.0
14377,78.0,7,30,6.0,64.0
14378,78.0,3,30,5.0,64.0
14379,78.0,1,30,4.0,64.0
14380,75.0,20,30,7.0,64.0
14381,79.0,6,30,6.0,64.0
14382,79.0,2,30,5.0,64.0
14383,79.0,2,30,4.0,64.0
14384,76.0,2,30,7.0,64.0
14385,78.0,6,20,6.0,64.0
14386,78.0,6,15,5.0,64.0
14387,78.0,14,20,4.0,64.0
14388,75.0,0,20,7.0,64.0
14389,79.0,4,20,5.0,64.0
14390,79.0,1,30,6.0,64.0
14391,79.0,2,15,4.0,64.0
14392,76.0,9,20,7.0,64.0
14393,78.0,5,20,5.0,64.0
14394,78.0,7,20,6.0,64.0
14395,75.0,8,30,7.0,64.0
14396,78.0,2,15,4.0,64.0
14397,57.0,3,40,10.0,64.0
14398,79.0,7,20,5.0,64.0
14399,79.0,2,30,6.0,64.0
14400,79.0,1,20,4.0,64.0
14401,76.0,5,30,7.0,64.0
14402,56.0,0,30,10.0,64.0
14403,78.0,5,20,5.0,64.0
14404,78.0,7,20,6.0,64.0
14405,78.0,0,20,4.0,64.0
14406,75.0,12,20,7.0,64.0
14407,79.0,4,30,5.0,64.0
14408,79.0,0,30,6.0,64.0
14409,79.0,4,20,4.0,64.0
14410,76.0,72,20,7.0,64.0
14411,57.0,11,90,10.0,64.0
14412,78.0,4,120,5.0,64.0
14413,78.0,89,120,6.0,64.0
14414,78.0,5,120,4.0,64.0
14415,75.0,0,120,7.0,64.0
14416,76.0,3,30,4.0,64.0
14417,76.0,0,30,6.0,64.0
14418,71.0,2,30,8.0,64.0
14419,76.0,6,30,5.0,64.0
14420,76.0,2,40,7.0,64.0
14421,59.0,141,40,10.0,64.0
14422,56.0,50,510,10.0,64.0
14423,71.0,19,480,8.0,64.0
14424,76.0,12,240,6.0,64.0
14425,76.0,8,240,4.0,64.0
14426,76.0,89,120,7.0,64.0
14427,76.0,53,240,5.0,64.0
14428,64.0,31,40,7.0,64.0
14429,64.0,15,90,7.0,64.0
14430,76.0,0,40,6.0,64.0
14431,76.0,10,40,4.0,64.0
14432,76.0,44,40,5.0,64.0
14433,74.0,8,40,6.0,64.0
14434,74.0,2,30,4.0,64.0
14435,74.0,49,30,5.0,64.0
14436,73.0,1,40,6.0,64.0
14437,73.0,1,40,4.0,64.0
14438,68.0,8,40,7.0,64.0
14439,73.0,38,40,5.0,64.0
14440,71.0,51,360,7.0,64.0
14441,74.0,8,90,4.0,64.0
14442,74.0,55,90,6.0,64.0
14443,74.0,1,90,5.0,64.0
14444,54.0,1,40,10.0,64.0
14445,52.0,62,40,10.0,64.0
14446,54.0,2,40,10.0,64.0
14447,83.0,6,40,5.0,64.0
14448,83.0,51,40,6.0,64.0
14449,64.0,5,40,8.0,64.0
14450,83.0,3,40,4.0,64.0
14451,56.0,42,40,10.0,64.0
14452,64.0,9,90,8.0,64.0
14453,76.0,1,90,5.0,64.0
14454,76.0,0,90,4.0,64.0
14455,76.0,3,90,6.0,64.0
14456,54.0,13,40,10.0,64.0
14457,56.0,64,40,10.0,64.0
14458,52.0,1,40,10.0,64.0
14459,68.0,0,40,8.0,64.0
14460,74.0,99,40,6.0,64.0
14461,74.0,2,40,4.0,64.0
14462,74.0,1,40,5.0,64.0
14463,71.0,1,30,7.0,64.0
14464,64.0,2,90,8.0,64.0
14465,73.0,8,90,6.0,64.0
14466,73.0,114,120,4.0,64.0
14467,57.0,68,510,10.0,64.0
14468,69.0,6,90,7.0,64.0
14469,73.0,8,90,5.0,64.0
14470,69.0,1,40,6.0,64.0
14471,69.0,88,60,4.0,64.0
14472,61.0,1,40,7.0,64.0
14473,69.0,6,40,5.0,64.0
14474,69.0,0,40,8.0,64.0
14475,73.0,123,90,6.0,64.0
14476,64.0,1,90,7.0,64.0
14477,73.0,6,60,4.0,64.0
14478,69.0,3,90,8.0,64.0
14479,73.0,4,90,5.0,64.0
14480,76.0,8,40,4.0,64.0
14481,69.0,0,40,7.0,64.0
14482,76.0,51,40,6.0,64.0
14483,76.0,1,30,5.0,64.0
14484,67.0,1,40,8.0,64.0
14485,81.0,23,360,4.0,64.0
14486,74.0,8,330,7.0,64.0
14487,66.0,1,90,8.0,64.0
14488,81.0,3,300,6.0,64.0
14489,81.0,22,330,5.0,64.0
14490,55.0,56,40,10.0,64.0
14491,54.0,58,40,10.0,64.0
14492,55.0,8,40,10.0,64.0
14493,66.0,51,40,8.0,64.0
14494,57.0,39,40,10.0,64.0
14495,66.0,12,60,8.0,64.0
14496,55.0,9,40,10.0,64.0
14497,57.0,60,40,10.0,64.0
14498,54.0,2,40,10.0,64.0
14499,81.0,1,40,6.0,64.0
14500,64.0,4,40,8.0,64.0
14501,69.0,97,40,7.0,64.0
14502,81.0,3,30,5.0,64.0
14503,81.0,1,30,4.0,64.0
14504,81.0,4,300,6.0,64.0
14505,62.0,4,90,8.0,64.0
14506,66.0,126,90,7.0,64.0
14507,81.0,76,330,4.0,64.0
14508,59.0,52,510,10.0,64.0
14509,81.0,23,300,5.0,64.0
14510,74.0,11,40,7.0,64.0
14511,59.0,64,40,8.0,64.0
14512,74.0,4,90,7.0,64.0
14513,66.0,7,90,8.0,64.0
14514,71.0,6,40,4.0,64.0
14515,71.0,1,40,6.0,64.0
14516,71.0,9,40,5.0,64.0
14517,73.0,1,30,4.0,64.0
14518,73.0,18,30,6.0,64.0
14519,73.0,13,40,5.0,64.0
14520,74.0,6,40,4.0,64.0
14521,74.0,2,40,6.0,64.0
14522,62.0,0,40,8.0,64.0
14523,74.0,0,40,5.0,64.0
14524,73.0,9,30,7.0,64.0
14525,76.0,3,40,4.0,64.0
14526,76.0,10,40,6.0,64.0
14527,76.0,6,40,5.0,64.0
14528,78.0,3,40,4.0,64.0
14529,78.0,10,40,6.0,64.0
14530,78.0,12,40,5.0,64.0
14531,79.0,9,330,6.0,64.0
14532,79.0,35,360,4.0,64.0
14533,71.0,1,330,7.0,64.0
14534,62.0,13,90,8.0,64.0
14535,79.0,8,360,5.0,64.0
14536,60.0,53,40,10.0,64.0
14537,59.0,67,40,10.0,64.0
14538,57.0,6,40,10.0,64.0
14539,59.0,51,40,8.0,64.0
14540,55.0,46,40,10.0,64.0
14541,64.0,5,90,8.0,64.0
14542,54.0,21,40,10.0,64.0
14543,52.0,53,40,10.0,64.0
14544,50.0,104,60,10.0,64.0
14545,71.0,1,40,7.0,64.0
14546,79.0,1,30,6.0,64.0
14547,79.0,3,30,5.0,64.0
14548,79.0,6,30,4.0,64.0
14549,64.0,1,40,8.0,64.0
14550,79.0,24,330,6.0,64.0
14551,69.0,122,90,7.0,64.0
14552,79.0,9,300,5.0,64.0
14553,79.0,44,360,4.0,64.0
14554,49.0,17,480,10.0,64.0
14555,64.0,8,90,8.0,64.0
14556,69.0,4,40,8.0,64.0
14557,73.0,77,40,7.0,64.0
14558,69.0,17,90,8.0,64.0
14559,73.0,4,60,7.0,64.0
14560,78.0,22,40,5.0,64.0
14561,76.0,10,40,5.0,64.0
14562,78.0,0,40,4.0,64.0
14563,78.0,12,40,6.0,64.0
14564,76.0,0,40,4.0,64.0
14565,74.0,4,60,5.0,64.0
14566,76.0,16,30,6.0,64.0
14567,64.0,0,40,8.0,64.0
14568,73.0,3,40,5.0,64.0
14569,76.0,3,40,7.0,64.0
14570,74.0,2,40,4.0,64.0
14571,73.0,4,40,4.0,64.0
14572,74.0,2,40,6.0,64.0
14573,71.0,10,30,5.0,64.0
14574,71.0,13,30,4.0,64.0
14575,73.0,1,40,6.0,64.0
14576,76.0,4,90,7.0,64.0
14577,69.0,10,330,8.0,64.0
14578,71.0,55,40,6.0,64.0
14579,69.0,11,150,4.0,64.0
14580,69.0,9,120,5.0,64.0
14581,69.0,1,120,6.0,64.0
14582,50.0,43,40,10.0,64.0
14583,49.0,58,40,10.0,64.0
14584,47.0,9,40,10.0,64.0
14585,74.0,0,40,7.0,64.0
14586,67.0,3,30,5.0,64.0
14587,67.0,2,30,4.0,64.0
14588,67.0,11,40,6.0,64.0
14589,66.0,0,30,5.0,64.0
14590,66.0,4,30,4.0,64.0
14591,66.0,35,20,6.0,64.0
14592,76.0,15,60,7.0,64.0
14593,45.0,32,40,10.0,64.0
14594,67.0,5,90,5.0,64.0
14595,67.0,14,90,4.0,64.0
14596,67.0,40,90,6.0,64.0
14597,47.0,2,40,10.0,64.0
14598,49.0,52,40,10.0,64.0
14599,45.0,2,40,10.0,64.0
14600,76.0,2,40,5.0,64.0
14601,73.0,37,40,7.0,64.0
14602,76.0,1,30,4.0,64.0
14603,76.0,2,30,6.0,64.0
14604,69.0,10,40,8.0,64.0
14605,66.0,20,270,5.0,64.0
14606,66.0,12,240,6.0,64.0
14607,69.0,8,90,8.0,64.0
14608,66.0,0,270,4.0,64.0
14609,74.0,7,90,7.0,64.0
14610,50.0,22,510,10.0,64.0
14611,50.0,28,15,3.0,64.0
14612,50.0,23,15,3.0,64.0
14613,50.0,7,15,3.0,64.0
14614,50.0,27,15,3.0,64.0
14615,50.0,17,20,3.0,64.0
14616,50.0,49,15,3.0,64.0
14617,50.0,21,30,3.0,64.0
14618,69.0,8,30,7.0,64.0
14619,66.0,5,40,8.0,64.0
14620,74.0,4,40,0.0,64.0
14621,81.0,10,40,1.0,64.0
14622,78.0,1,40,2.0,64.0
14623,50.0,12,40,3.0,64.0
14624,69.0,3,90,7.0,64.0
14625,66.0,0,60,8.0,64.0
14626,81.0,8,60,1.0,64.0
14627,78.0,0,60,2.0,64.0
14628,74.0,2,60,0.0,64.0
14629,50.0,31,30,3.0,64.0
14630,67.0,5,30,6.0,64.0
14631,67.0,11,40,4.0,64.0
14632,67.0,44,40,5.0,64.0
14633,50.0,4,20,3.0,64.0
14634,69.0,10,40,6.0,64.0
14635,50.0,2,30,3.0,64.0
14636,69.0,9,40,4.0,64.0
14637,69.0,13,40,5.0,64.0
14638,50.0,19,15,3.0,64.0
14639,71.0,5,40,6.0,64.0
14640,62.0,3,40,8.0,64.0
14641,71.0,3,30,4.0,64.0
14642,66.0,1,30,7.0,64.0
14643,86.0,1,40,1.0,64.0
14644,78.0,3,30,0.0,64.0
14645,71.0,13,40,5.0,64.0
14646,81.0,0,30,2.0,64.0
14647,50.0,3,15,3.0,64.0
14648,50.0,20,15,3.0,64.0
14649,72.0,1,360,6.0,64.0
14650,57.0,3,90,8.0,64.0
14651,66.0,6,60,7.0,64.0
14652,50.0,11,15,3.0,64.0
14653,72.0,1,360,4.0,64.0
14654,72.0,8,360,5.0,64.0
14655,86.0,2,60,1.0,64.0
14656,78.0,16,60,0.0,64.0
14657,81.0,1,60,2.0,64.0
14658,50.0,15,15,3.0,64.0
14659,50.0,2,15,3.0,64.0
14660,52.0,29,40,10.0,64.0
14661,50.0,33,30,3.0,64.0
14662,50.0,13,40,10.0,64.0
14663,50.0,4,15,3.0,64.0
14664,50.0,33,15,3.0,64.0
14665,48.0,4,40,10.0,64.0
14666,62.0,2,40,8.0,64.0
14667,62.0,1,30,7.0,64.0
14668,86.0,1,30,2.0,64.0
14669,81.0,1,40,0.0,64.0
14670,90.0,6,30,1.0,64.0
14671,50.0,8,15,3.0,64.0
14672,50.0,30,20,3.0,64.0
14673,47.0,24,60,10.0,64.0
14674,66.0,3,60,8.0,64.0
14675,50.0,24,15,3.0,64.0
14676,81.0,1,60,0.0,64.0
14677,90.0,0,60,1.0,64.0
14678,62.0,20,330,7.0,64.0
14679,86.0,12,60,2.0,64.0
14680,50.0,5,15,3.0,64.0
14681,45.0,7,40,10.0,64.0
14682,50.0,2,15,3.0,64.0
14683,50.0,21,15,3.0,64.0
14684,43.0,32,40,10.0,64.0
14685,50.0,18,15,3.0,64.0
14686,50.0,11,15,3.0,64.0
14687,50.0,19,30,3.0,64.0
14688,69.0,24,40,8.0,64.0
14689,74.0,4,30,4.0,64.0
14690,42.0,1,40,10.0,64.0
14691,74.0,1,30,5.0,64.0
14692,74.0,2,40,6.0,64.0
14693,91.0,0,30,1.0,64.0
14694,83.0,2,30,0.0,64.0
14695,86.0,3,30,2.0,64.0
14696,50.0,36,20,3.0,64.0
14697,67.0,5,90,8.0,64.0
14698,71.0,5,270,4.0,64.0
14699,71.0,3,270,5.0,64.0
14700,71.0,0,270,6.0,64.0
14701,43.0,30,1200,10.0,64.0
14702,83.0,1,90,0.0,64.0
14703,91.0,90,90,1.0,64.0
14704,86.0,7,90,2.0,64.0
14705,50.0,39,20,3.0,64.0
14706,66.0,5,40,7.0,64.0
14707,62.0,19,40,8.0,64.0
14708,50.0,14,15,3.0,64.0
14709,50.0,10,15,3.0,64.0
14710,50.0,21,20,3.0,64.0
14711,67.0,9,90,7.0,64.0
14712,64.0,4,90,8.0,64.0
14713,50.0,44,20,3.0,64.0
14714,69.0,7,40,6.0,64.0
14715,69.0,1,40,5.0,64.0
14716,69.0,46,40,4.0,64.0
14717,67.0,3,30,6.0,64.0
14718,67.0,47,40,5.0,64.0
14719,67.0,4,30,4.0,64.0
14720,66.0,0,40,6.0,64.0
14721,66.0,10,40,5.0,64.0
14722,66.0,1,40,4.0,64.0
14723,66.0,51,40,8.0,64.0
14724,50.0,11,20,3.0,64.0
14725,69.0,1,40,7.0,64.0
14726,64.0,37,60,6.0,64.0
14727,64.0,0,60,5.0,64.0
14728,64.0,5,40,4.0,64.0
14729,71.0,8,90,7.0,64.0
14730,67.0,3,90,8.0,64.0
14731,50.0,5,30,3.0,64.0
14732,95.0,0,90,1.0,64.0
14733,79.0,0,90,0.0,64.0
14734,88.0,4,60,2.0,64.0
14735,66.0,0,40,4.0,64.0
14736,66.0,58,40,5.0,64.0
14737,66.0,4,40,6.0,64.0
14738,67.0,8,40,6.0,64.0
14739,67.0,2,40,4.0,64.0
14740,67.0,49,60,5.0,64.0
14741,69.0,1,40,4.0,64.0
14742,69.0,4,40,6.0,64.0
14743,69.0,7,40,5.0,64.0
14744,73.0,1,60,7.0,64.0
14745,64.0,50,40,8.0,64.0
14746,71.0,8,40,6.0,64.0
14747,71.0,1,60,4.0,64.0
14748,74.0,15,90,7.0,64.0
14749,71.0,27,40,5.0,64.0
14750,66.0,13,90,8.0,64.0
14751,73.0,0,40,4.0,64.0
14752,73.0,2,40,6.0,64.0
14753,73.0,52,40,5.0,64.0
14754,74.0,1,40,6.0,64.0
14755,74.0,5,40,4.0,64.0
14756,74.0,60,40,5.0,64.0
14757,71.0,1,60,6.0,64.0
14758,76.0,2,60,7.0,64.0
14759,71.0,1,60,4.0,64.0
14760,67.0,0,60,8.0,64.0
14761,71.0,48,60,5.0,64.0
14762,64.0,1,90,8.0,64.0
14763,73.0,5,40,6.0,64.0
14764,73.0,1,40,4.0,64.0
14765,73.0,4,40,5.0,64.0
14766,69.0,13,90,7.0,64.0
14767,45.0,12,20,3.0,64.0
14768,45.0,26,15,3.0,64.0
14769,74.0,3,40,4.0,64.0
14770,74.0,5,40,5.0,64.0
14771,74.0,1,40,6.0,64.0
14772,45.0,1,20,3.0,64.0
14773,45.0,27,15,3.0,64.0
14774,45.0,19,20,3.0,64.0
14775,73.0,4,40,4.0,64.0
14776,73.0,0,40,6.0,64.0
14777,73.0,20,40,5.0,64.0
14778,45.0,8,15,3.0,64.0
14779,45.0,20,15,3.0,64.0
14780,81.0,2,40,1.0,64.0
14781,71.0,3,40,5.0,64.0
14782,71.0,3,40,4.0,64.0
14783,71.0,0,40,6.0,64.0
14784,64.0,10,40,7.0,64.0
14785,69.0,1,40,8.0,64.0
14786,88.0,3,30,0.0,64.0
14787,81.0,2,30,2.0,64.0
14788,45.0,6,15,3.0,64.0
14789,45.0,22,15,3.0,64.0
14790,69.0,2,60,6.0,64.0
14791,69.0,7,40,5.0,64.0
14792,45.0,1,15,3.0,64.0
14793,69.0,4,60,4.0,64.0
14794,88.0,6,60,0.0,64.0
14795,81.0,2,60,1.0,64.0
14796,61.0,4,60,7.0,64.0
14797,69.0,11,60,8.0,64.0
14798,81.0,2,60,2.0,64.0
14799,45.0,5,40,3.0,64.0
14800,42.0,15,40,10.0,64.0
14801,71.0,1,60,4.0,64.0
14802,71.0,13,60,6.0,64.0
14803,71.0,4,40,5.0,64.0
14804,45.0,30,30,3.0,64.0
14805,40.0,8,40,10.0,64.0
14806,73.0,2,40,5.0,64.0
14807,73.0,3,40,6.0,64.0
14808,73.0,5,40,4.0,64.0
14809,45.0,38,30,3.0,64.0
14810,38.0,2,40,10.0,64.0
14811,74.0,2,40,5.0,64.0
14812,57.0,0,40,7.0,64.0
14813,64.0,7,40,8.0,64.0
14814,74.0,3,40,6.0,64.0
14815,81.0,1,30,2.0,64.0
14816,88.0,1,30,1.0,64.0
14817,74.0,24,40,4.0,64.0
14818,93.0,2,40,0.0,64.0
14819,45.0,1,20,3.0,64.0
14820,45.0,29,20,3.0,64.0
14821,76.0,3,40,6.0,64.0
14822,76.0,1,40,5.0,64.0
14823,81.0,4,60,2.0,64.0
14824,76.0,11,40,4.0,64.0
14825,69.0,11,60,7.0,64.0
14826,37.0,13,90,10.0,64.0
14827,64.0,1,60,8.0,64.0
14828,93.0,1,60,0.0,64.0
14829,88.0,5,60,1.0,64.0
14830,45.0,6,30,3.0,64.0
14831,78.0,5,40,6.0,64.0
14832,78.0,0,40,5.0,64.0
14833,78.0,34,40,4.0,64.0
14834,79.0,1,40,6.0,64.0
14835,79.0,5,40,5.0,64.0
14836,79.0,17,40,4.0,64.0
14837,45.0,17,15,3.0,64.0
14838,45.0,28,20,3.0,64.0
14839,66.0,1,40,7.0,64.0
14840,81.0,2,40,6.0,64.0
14841,78.0,1,40,2.0,64.0
14842,81.0,1,40,5.0,64.0
14843,95.0,2,30,0.0,64.0
14844,90.0,0,30,1.0,64.0
14845,61.0,1,40,8.0,64.0
14846,81.0,1,30,4.0,64.0
14847,45.0,34,40,10.0,64.0
14848,45.0,3,20,3.0,64.0
14849,50.0,23,30,3.0,64.0
14850,62.0,3,90,7.0,64.0
14851,79.0,0,40,6.0,64.0
14852,79.0,4,40,5.0,64.0
14853,79.0,15,40,4.0,64.0
14854,91.0,7,60,0.0,64.0
14855,90.0,1,60,1.0,64.0
14856,62.0,3,60,8.0,64.0
14857,74.0,8,60,2.0,64.0
14858,47.0,9,60,10.0,64.0
14859,78.0,3,30,5.0,64.0
14860,78.0,0,30,6.0,64.0
14861,78.0,57,30,4.0,64.0
14862,79.0,0,40,6.0,64.0
14863,79.0,8,40,5.0,64.0
14864,79.0,45,40,4.0,64.0
14865,81.0,0,40,2.0,64.0
14866,76.0,1,30,5.0,64.0
14867,76.0,3,30,6.0,64.0
14868,88.0,0,40,1.0,64.0
14869,93.0,1,30,0.0,64.0
14870,76.0,1,30,4.0,64.0
14871,69.0,3,30,7.0,64.0
14872,49.0,5,40,10.0,64.0
14873,64.0,56,40,8.0,64.0
14874,45.0,6,30,3.0,64.0
14875,78.0,10,120,5.0,64.0
14876,81.0,5,60,2.0,64.0
14877,78.0,46,150,6.0,64.0
14878,90.0,6,60,0.0,64.0
14879,86.0,5,60,1.0,64.0
14880,78.0,4,120,4.0,64.0
14881,69.0,30,90,7.0,64.0
14882,50.0,23,40,3.0,64.0
14883,57.0,11,60,8.0,64.0
14884,50.0,1,90,10.0,64.0
14885,76.0,5,30,5.0,64.0
14886,76.0,0,30,6.0,64.0
14887,76.0,13,30,4.0,64.0
14888,81.0,2,40,1.0,64.0
14889,81.0,3,40,2.0,64.0
14890,64.0,1,40,8.0,64.0
14891,52.0,0,40,10.0,64.0
14892,45.0,5,30,3.0,64.0
14893,67.0,17,40,7.0,64.0
14894,91.0,4,30,0.0,64.0
14895,74.0,0,30,5.0,64.0
14896,74.0,0,30,4.0,64.0
14897,74.0,0,30,6.0,64.0
14898,73.0,8,20,5.0,64.0
14899,73.0,10,20,6.0,64.0
14900,73.0,19,30,4.0,64.0
14901,50.0,16,40,3.0,64.0
14902,81.0,9,60,2.0,64.0
14903,86.0,21,60,1.0,64.0
14904,90.0,3,90,0.0,64.0
14905,69.0,105,90,7.0,64.0
14906,62.0,2,60,8.0,64.0
14907,54.0,3,90,10.0,64.0
14908,74.0,3,90,5.0,64.0
14909,74.0,0,90,6.0,64.0
14910,74.0,4,90,4.0,64.0
14911,67.0,2,40,8.0,64.0
14912,71.0,0,30,6.0,64.0
14913,71.0,0,30,7.0,64.0
14914,88.0,2,40,0.0,64.0
14915,81.0,2,30,2.0,64.0
14916,71.0,0,30,4.0,64.0
14917,71.0,1,30,5.0,64.0
14918,81.0,0,30,1.0,64.0
14919,55.0,68,30,10.0,64.0
14920,50.0,3,30,3.0,64.0
14921,90.0,1,90,0.0,64.0
14922,66.0,2,60,8.0,64.0
14923,74.0,1,60,6.0,64.0
14924,69.0,1,180,7.0,64.0
14925,74.0,2,60,5.0,64.0
14926,81.0,4,330,2.0,64.0
14927,45.0,32,40,3.0,64.0
14928,81.0,0,60,1.0,64.0
14929,74.0,16,60,4.0,64.0
14930,57.0,5,120,10.0,64.0
14931,88.0,0,30,0.0,64.0
14932,73.0,4,30,6.0,64.0
14933,64.0,1,30,8.0,64.0
14934,73.0,19,30,5.0,64.0
14935,73.0,2,20,4.0,64.0
14936,90.0,2,30,0.0,64.0
14937,74.0,1,20,6.0,64.0
14938,66.0,5,20,8.0,64.0
14939,74.0,7,30,4.0,64.0
14940,74.0,0,30,5.0,64.0
14941,73.0,3,20,6.0,64.0
14942,88.0,1,20,0.0,64.0
14943,64.0,5,20,8.0,64.0
14944,45.0,3,20,3.0,64.0
14945,73.0,0,15,4.0,64.0
14946,73.0,7,20,5.0,64.0
14947,74.0,7,20,6.0,64.0
14948,90.0,1,15,0.0,64.0
14949,74.0,1,20,4.0,64.0
14950,66.0,0,20,8.0,64.0
14951,74.0,13,20,5.0,64.0
14952,88.0,4,20,0.0,64.0
14953,73.0,1,20,6.0,64.0
14954,64.0,2,30,8.0,64.0
14955,73.0,3,20,4.0,64.0
14956,73.0,10,20,5.0,64.0
14957,78.0,0,40,1.0,64.0
14958,45.0,7,30,3.0,64.0
14959,74.0,0,30,6.0,64.0
14960,90.0,4,20,0.0,64.0
14961,66.0,1,30,8.0,64.0
14962,74.0,0,20,4.0,64.0
14963,74.0,10,30,5.0,64.0
14964,73.0,1,20,6.0,64.0
14965,73.0,0,20,4.0,64.0
14966,88.0,18,20,0.0,64.0
14967,73.0,8,120,5.0,64.0
14968,64.0,4,120,8.0,64.0
14969,74.0,31,30,6.0,64.0
14970,90.0,0,20,0.0,64.0
14971,74.0,2,20,4.0,64.0
14972,73.0,12,120,6.0,64.0
14973,88.0,5,90,0.0,64.0
14974,73.0,6,120,4.0,64.0
14975,69.0,34,180,7.0,64.0
14976,45.0,28,30,3.0,64.0
14977,81.0,29,60,1.0,64.0
14978,45.0,36,120,10.0,64.0
14979,86.0,3,40,0.0,64.0
14980,66.0,3,30,8.0,64.0
14981,74.0,8,30,4.0,64.0
14982,74.0,0,30,5.0,64.0
14983,81.0,4,30,2.0,64.0
14984,74.0,0,30,6.0,64.0
14985,45.0,0,20,3.0,64.0
14986,81.0,61,30,1.0,64.0
14987,74.0,0,540,4.0,64.0
14988,74.0,6,510,5.0,64.0
14989,74.0,9,510,6.0,64.0
14990,66.0,0,510,8.0,64.0
14991,81.0,4,480,2.0,64.0
14992,78.0,8,480,1.0,64.0
14993,69.0,1,510,7.0,64.0
14994,38.0,27,510,10.0,64.0
14995,50.0,20,20,3.0,64.0
14996,86.0,0,480,0.0,64.0
14997,50.0,26,15,3.0,64.0
14998,50.0,18,15,3.0,64.0
14999,50.0,44,15,3.0,64.0
15000,50.0,50,30,3.0,64.0
15001,50.0,27,40,3.0,64.0
15002,50.0,25,15,3.0,64.0
15003,50.0,22,20,3.0,64.0
15004,50.0,26,20,3.0,64.0
15005,50.0,21,20,3.0,64.0
15006,50.0,24,15,3.0,64.0
15007,50.0,20,15,3.0,64.0
15008,50.0,20,15,3.0,64.0
15009,50.0,57,15,3.0,64.0
15010,50.0,25,40,3.0,64.0
15011,50.0,25,20,3.0,64.0
15012,50.0,14,15,3.0,64.0
