,note,step,duration,channel,velocity
0,43.0,0,120,2.0,0.0
1,62.0,30,30,0.0,0.0
2,64.0,30,30,0.0,0.0
3,66.0,30,30,0.0,0.0
4,67.0,30,30,0.0,0.0
5,69.0,30,30,0.0,0.0
6,55.0,0,60,2.0,0.0
7,70.0,30,30,0.0,0.0
8,67.0,30,30,0.0,0.0
9,69.0,30,30,0.0,0.0
10,54.0,0,30,2.0,0.0
11,55.0,0,30,2.0,0.0
12,67.0,30,30,0.0,0.0
13,57.0,0,30,2.0,0.0
14,66.0,30,30,0.0,0.0
15,64.0,0,30,0.0,0.0
16,55.0,30,30,2.0,0.0
17,54.0,30,60,2.0,0.0
18,62.0,30,30,0.0,0.0
19,72.0,0,30,0.0,0.0
20,53.0,0,60,2.0,0.0
21,70.0,30,30,0.0,0.0
22,69.0,30,30,0.0,0.0
23,67.0,0,30,0.0,0.0
24,52.0,30,30,2.0,0.0
25,65.0,0,30,0.0,0.0
26,53.0,30,30,2.0,0.0
27,64.0,0,30,0.0,0.0
28,55.0,30,30,2.0,0.0
29,62.0,30,30,0.0,0.0
30,53.0,0,30,2.0,0.0
31,52.0,0,60,2.0,0.0
32,60.0,30,30,0.0,0.0
33,70.0,30,30,0.0,0.0
34,51.0,0,60,2.0,0.0
35,69.0,30,30,0.0,0.0
36,67.0,30,30,0.0,0.0
37,50.0,0,60,2.0,0.0
38,74.0,30,30,0.0,0.0
39,72.0,15,30,0.0,0.0
40,70.0,30,30,0.0,0.0
41,55.0,15,15,2.0,0.0
42,57.0,0,15,2.0,0.0
43,55.0,30,90,2.0,0.0
44,74.0,30,30,0.0,0.0
45,72.0,30,30,0.0,0.0
46,70.0,0,30,0.0,0.0
47,69.0,30,30,0.0,0.0
48,54.0,30,60,2.0,0.0
49,72.0,0,30,0.0,0.0
50,70.0,30,30,0.0,0.0
51,55.0,0,30,2.0,0.0
52,50.0,0,30,2.0,0.0
53,69.0,30,30,0.0,0.0
54,52.0,30,30,2.0,0.0
55,67.0,0,30,0.0,0.0
56,69.0,0,30,0.0,0.0
57,54.0,30,30,2.0,0.0
58,70.0,0,30,0.0,0.0
59,55.0,30,30,2.0,0.0
60,72.0,0,30,0.0,0.0
61,57.0,30,30,2.0,0.0
62,74.0,30,30,0.0,0.0
63,58.0,0,30,2.0,0.0
64,76.0,0,30,0.0,0.0
65,55.0,30,30,2.0,0.0
66,77.0,30,60,0.0,0.0
67,57.0,30,30,2.0,0.0
68,55.0,0,30,2.0,0.0
69,53.0,0,30,2.0,0.0
70,74.0,30,30,0.0,0.0
71,52.0,30,30,2.0,0.0
72,50.0,30,30,2.0,0.0
73,60.0,30,30,2.0,0.0
74,58.0,30,30,2.0,0.0
75,74.0,30,60,0.0,0.0
76,57.0,0,30,2.0,0.0
77,55.0,30,30,2.0,0.0
78,75.0,0,30,0.0,0.0
79,74.0,30,30,0.0,0.0
80,53.0,0,30,2.0,0.0
81,51.0,0,30,2.0,0.0
82,72.0,30,30,0.0,0.0
83,50.0,30,30,2.0,0.0
84,74.0,0,30,0.0,0.0
85,48.0,30,30,2.0,0.0
86,75.0,0,60,0.0,0.0
87,58.0,30,30,2.0,0.0
88,57.0,30,30,2.0,0.0
89,76.0,30,60,0.0,0.0
90,55.0,0,30,2.0,0.0
91,62.0,30,30,2.0,0.0
92,77.0,0,30,0.0,0.0
93,60.0,0,30,2.0,0.0
94,76.0,30,30,0.0,0.0
95,58.0,0,30,2.0,0.0
96,74.0,30,30,0.0,0.0
97,62.0,30,30,2.0,0.0
98,76.0,0,30,0.0,0.0
99,77.0,30,60,0.0,0.0
100,60.0,30,30,2.0,0.0
101,58.0,0,30,2.0,0.0
102,57.0,30,30,2.0,0.0
103,78.0,0,60,0.0,0.0
104,60.0,30,30,2.0,0.0
105,79.0,30,60,0.0,0.0
106,58.0,30,30,2.0,0.0
107,57.0,0,30,2.0,0.0
108,74.0,0,30,0.0,0.0
109,55.0,30,30,2.0,0.0
110,57.0,30,30,2.0,0.0
111,72.0,0,30,0.0,0.0
112,74.0,0,30,0.0,0.0
113,58.0,30,30,2.0,0.0
114,75.0,30,30,0.0,0.0
115,60.0,0,30,2.0,0.0
116,62.0,0,30,2.0,0.0
117,77.0,30,30,0.0,0.0
118,58.0,30,30,2.0,0.0
119,74.0,0,30,0.0,0.0
120,75.0,30,30,0.0,0.0
121,60.0,0,60,2.0,0.0
122,74.0,30,30,0.0,0.0
123,51.0,15,60,2.0,0.0
124,72.0,30,30,0.0,0.0
125,70.0,0,30,0.0,0.0
126,69.0,30,30,0.0,0.0
127,53.0,15,15,2.0,0.0
128,52.0,0,15,2.0,0.0
129,53.0,30,30,2.0,0.0
130,79.0,0,30,0.0,0.0
131,41.0,0,60,2.0,0.0
132,77.0,30,30,0.0,0.0
133,75.0,30,30,0.0,0.0
134,46.0,30,60,2.0,0.0
135,74.0,30,30,0.0,0.0
136,72.0,0,30,0.0,0.0
137,74.0,30,30,0.0,0.0
138,58.0,0,60,2.0,0.0
139,76.0,30,30,0.0,0.0
140,57.0,30,60,2.0,0.0
141,77.0,30,30,0.0,0.0
142,79.0,0,30,0.0,0.0
143,81.0,30,30,0.0,0.0
144,62.0,30,60,2.0,0.0
145,77.0,0,30,0.0,0.0
146,58.0,30,60,2.0,0.0
147,79.0,30,30,0.0,0.0
148,77.0,0,30,0.0,0.0
149,76.0,30,30,0.0,0.0
150,55.0,15,60,2.0,0.0
151,74.0,0,30,0.0,0.0
152,57.0,15,15,2.0,0.0
153,73.0,0,30,0.0,0.0
154,56.0,30,15,2.0,0.0
155,82.0,30,30,0.0,0.0
156,57.0,0,30,2.0,0.0
157,45.0,15,60,2.0,0.0
158,81.0,30,30,0.0,0.0
159,79.0,0,30,0.0,0.0
160,38.0,30,30,2.0,0.0
161,77.0,15,15,0.0,0.0
162,79.0,0,15,0.0,0.0
163,45.0,30,30,2.0,0.0
164,77.0,0,120,0.0,0.0
165,47.0,30,30,2.0,0.0
166,49.0,30,30,2.0,0.0
167,50.0,30,30,2.0,0.0
168,79.0,30,30,0.0,0.0
169,52.0,0,30,2.0,0.0
170,81.0,30,30,0.0,0.0
171,53.0,0,30,2.0,0.0
172,50.0,0,30,2.0,0.0
173,82.0,30,30,0.0,0.0
174,52.0,0,30,2.0,0.0
175,73.0,30,30,0.0,0.0
176,50.0,0,30,2.0,0.0
177,74.0,30,30,0.0,0.0
178,49.0,30,30,2.0,0.0
179,76.0,0,30,0.0,0.0
180,46.0,0,30,2.0,0.0
181,74.0,30,30,0.0,0.0
182,45.0,30,30,2.0,0.0
183,73.0,0,60,0.0,0.0
184,55.0,30,30,2.0,0.0
185,72.0,0,60,0.0,0.0
186,53.0,30,30,2.0,0.0
187,52.0,30,30,2.0,0.0
188,71.0,0,30,0.0,0.0
189,50.0,30,30,2.0,0.0
190,48.0,0,30,2.0,0.0
191,72.0,30,30,0.0,0.0
192,47.0,0,30,2.0,0.0
193,74.0,30,30,0.0,0.0
194,45.0,0,30,2.0,0.0
195,72.0,30,30,0.0,0.0
196,71.0,30,60,0.0,0.0
197,43.0,30,30,2.0,0.0
198,53.0,0,30,2.0,0.0
199,52.0,30,30,2.0,0.0
200,70.0,0,60,0.0,0.0
201,50.0,30,30,2.0,0.0
202,69.0,0,60,0.0,0.0
203,57.0,30,30,2.0,0.0
204,55.0,15,30,2.0,0.0
205,74.0,15,15,0.0,0.0
206,53.0,30,30,2.0,0.0
207,76.0,0,15,0.0,0.0
208,74.0,0,90,0.0,0.0
209,57.0,30,30,2.0,0.0
210,55.0,30,30,2.0,0.0
211,53.0,30,30,2.0,0.0
212,52.0,30,30,2.0,0.0
213,73.0,30,60,0.0,0.0
214,55.0,0,30,2.0,0.0
215,53.0,30,30,2.0,0.0
216,69.0,15,60,0.0,0.0
217,52.0,0,30,2.0,0.0
218,50.0,30,30,2.0,0.0
219,77.0,15,15,0.0,0.0
220,79.0,0,15,0.0,0.0
221,77.0,0,90,0.0,0.0
222,53.0,30,30,2.0,0.0
223,52.0,30,30,2.0,0.0
224,50.0,30,30,2.0,0.0
225,76.0,30,60,0.0,0.0
226,49.0,30,30,2.0,0.0
227,52.0,0,30,2.0,0.0
228,50.0,30,30,2.0,0.0
229,69.0,15,60,0.0,0.0
230,52.0,0,30,2.0,0.0
231,81.0,15,15,0.0,0.0
232,53.0,30,30,2.0,0.0
233,82.0,0,15,0.0,0.0
234,81.0,30,90,0.0,0.0
235,50.0,30,30,2.0,0.0
236,55.0,30,30,2.0,0.0
237,57.0,0,30,2.0,0.0
238,58.0,30,30,2.0,0.0
239,79.0,30,120,0.0,0.0
240,55.0,30,30,2.0,0.0
241,61.0,30,30,2.0,0.0
242,57.0,0,30,2.0,0.0
243,59.0,0,30,2.0,0.0
244,77.0,30,30,0.0,0.0
245,61.0,0,30,2.0,0.0
246,76.0,30,30,0.0,0.0
247,62.0,30,30,2.0,0.0
248,77.0,0,30,0.0,0.0
249,74.0,30,30,0.0,0.0
250,53.0,0,30,2.0,0.0
251,76.0,30,30,0.0,0.0
252,55.0,0,30,2.0,0.0
253,57.0,0,30,2.0,0.0
254,73.0,30,30,0.0,0.0
255,58.0,15,30,2.0,0.0
256,74.0,0,30,0.0,0.0
257,52.0,15,30,2.0,0.0
258,76.0,15,15,0.0,0.0
259,74.0,0,15,0.0,0.0
260,72.0,15,15,0.0,0.0
261,53.0,30,30,2.0,0.0
262,74.0,0,15,0.0,0.0
263,76.0,15,30,0.0,0.0
264,55.0,0,30,2.0,0.0
265,57.0,0,60,2.0,0.0
266,77.0,15,15,0.0,0.0
267,76.0,15,15,0.0,0.0
268,77.0,15,15,0.0,0.0
269,76.0,15,15,0.0,0.0
270,45.0,60,60,2.0,0.0
271,77.0,15,15,0.0,0.0
272,76.0,30,15,0.0,0.0
273,74.0,0,30,0.0,0.0
274,74.0,30,60,0.0,0.0
275,50.0,0,120,2.0,0.0
276,72.0,30,30,0.0,0.0
277,70.0,30,30,0.0,0.0
278,69.0,30,30,0.0,0.0
279,70.0,30,30,0.0,0.0
280,50.0,0,30,2.0,0.0
281,72.0,30,30,0.0,0.0
282,52.0,0,30,2.0,0.0
283,53.0,30,30,2.0,0.0
284,69.0,0,30,0.0,0.0
285,70.0,0,30,0.0,0.0
286,55.0,30,30,2.0,0.0
287,69.0,30,30,0.0,0.0
288,57.0,0,30,2.0,0.0
289,58.0,30,30,2.0,0.0
290,67.0,0,30,0.0,0.0
291,65.0,0,30,0.0,0.0
292,55.0,15,30,2.0,0.0
293,64.0,0,30,0.0,0.0
294,60.0,15,15,2.0,0.0
295,59.0,30,15,2.0,0.0
296,74.0,30,30,0.0,0.0
297,60.0,0,30,2.0,0.0
298,48.0,30,60,2.0,0.0
299,72.0,30,30,0.0,0.0
300,70.0,0,30,0.0,0.0
301,69.0,30,30,0.0,0.0
302,53.0,0,60,2.0,0.0
303,67.0,30,30,0.0,0.0
304,51.0,30,30,2.0,0.0
305,69.0,0,30,0.0,0.0
306,71.0,0,30,0.0,0.0
307,50.0,15,30,2.0,0.0
308,51.0,30,30,2.0,0.0
309,72.0,15,15,0.0,0.0
310,74.0,0,15,0.0,0.0
311,53.0,30,30,2.0,0.0
312,72.0,0,120,0.0,0.0
313,55.0,30,30,2.0,0.0
314,51.0,30,30,2.0,0.0
315,53.0,30,30,2.0,0.0
316,69.0,0,30,0.0,0.0
317,51.0,30,30,2.0,0.0
318,71.0,30,30,0.0,0.0
319,50.0,0,30,2.0,0.0
320,72.0,15,30,0.0,0.0
321,48.0,0,30,2.0,0.0
322,74.0,15,15,0.0,0.0
323,47.0,0,30,2.0,0.0
324,75.0,30,15,0.0,0.0
325,74.0,30,120,0.0,0.0
326,56.0,30,30,2.0,0.0
327,55.0,30,30,2.0,0.0
328,53.0,30,30,2.0,0.0
329,51.0,0,30,2.0,0.0
330,50.0,30,30,2.0,0.0
331,67.0,0,30,0.0,0.0
332,69.0,0,30,0.0,0.0
333,48.0,30,30,2.0,0.0
334,71.0,0,30,0.0,0.0
335,50.0,30,30,2.0,0.0
336,72.0,30,30,0.0,0.0
337,51.0,0,30,2.0,0.0
338,74.0,0,30,0.0,0.0
339,53.0,30,30,2.0,0.0
340,75.0,30,30,0.0,0.0
341,55.0,0,30,2.0,0.0
342,72.0,30,30,0.0,0.0
343,56.0,0,30,2.0,0.0
344,47.0,30,60,2.0,0.0
345,74.0,30,30,0.0,0.0
346,72.0,0,30,0.0,0.0
347,71.0,30,30,0.0,0.0
348,43.0,0,60,2.0,0.0
349,69.0,30,30,0.0,0.0
350,67.0,30,30,0.0,0.0
351,77.0,30,30,0.0,0.0
352,43.0,0,60,2.0,0.0
353,75.0,30,30,0.0,0.0
354,74.0,30,30,0.0,0.0
355,44.0,30,30,2.0,0.0
356,72.0,0,30,0.0,0.0
357,70.0,0,30,0.0,0.0
358,43.0,30,30,2.0,0.0
359,41.0,0,30,2.0,0.0
360,68.0,30,30,0.0,0.0
361,43.0,0,30,2.0,0.0
362,67.0,30,30,0.0,0.0
363,65.0,30,30,0.0,0.0
364,44.0,30,60,2.0,0.0
365,75.0,0,30,0.0,0.0
366,45.0,0,60,2.0,0.0
367,74.0,30,30,0.0,0.0
368,72.0,30,30,0.0,0.0
369,79.0,0,30,0.0,0.0
370,46.0,30,30,2.0,0.0
371,45.0,0,30,2.0,0.0
372,77.0,30,30,0.0,0.0
373,43.0,30,30,2.0,0.0
374,75.0,0,30,0.0,0.0
375,79.0,30,30,0.0,0.0
376,45.0,0,30,2.0,0.0
377,77.0,30,30,0.0,0.0
378,46.0,30,60,2.0,0.0
379,75.0,0,30,0.0,0.0
380,74.0,30,30,0.0,0.0
381,47.0,30,60,2.0,0.0
382,77.0,0,30,0.0,0.0
383,75.0,30,30,0.0,0.0
384,48.0,0,30,2.0,0.0
385,43.0,30,30,2.0,0.0
386,74.0,0,30,0.0,0.0
387,72.0,0,30,0.0,0.0
388,45.0,30,30,2.0,0.0
389,74.0,0,30,0.0,0.0
390,47.0,30,30,2.0,0.0
391,75.0,30,30,0.0,0.0
392,48.0,0,30,2.0,0.0
393,50.0,0,30,2.0,0.0
394,77.0,30,30,0.0,0.0
395,51.0,30,30,2.0,0.0
396,79.0,0,30,0.0,0.0
397,80.0,0,30,0.0,0.0
398,48.0,30,30,2.0,0.0
399,50.0,30,30,2.0,0.0
400,71.0,30,60,0.0,0.0
401,48.0,0,30,2.0,0.0
402,74.0,0,30,0.0,0.0
403,46.0,30,30,2.0,0.0
404,45.0,30,30,2.0,0.0
405,43.0,30,30,2.0,0.0
406,53.0,30,30,2.0,0.0
407,65.0,30,30,0.0,0.0
408,51.0,0,30,2.0,0.0
409,50.0,30,30,2.0,0.0
410,48.0,0,30,2.0,0.0
411,63.0,30,30,0.0,0.0
412,46.0,30,30,2.0,0.0
413,72.0,0,30,0.0,0.0
414,44.0,30,30,2.0,0.0
415,43.0,30,30,2.0,0.0
416,62.0,30,30,0.0,0.0
417,41.0,0,30,2.0,0.0
418,39.0,15,30,2.0,0.0
419,72.0,15,15,0.0,0.0
420,41.0,15,30,2.0,0.0
421,71.0,0,15,0.0,0.0
422,43.0,0,30,2.0,0.0
423,69.0,15,15,0.0,0.0
424,71.0,30,15,0.0,0.0
425,36.0,0,30,2.0,0.0
426,72.0,30,30,0.0,0.0
427,50.0,30,30,2.0,0.0
428,67.0,0,30,0.0,0.0
429,51.0,0,30,2.0,0.0
430,72.0,30,30,0.0,0.0
431,53.0,0,30,2.0,0.0
432,74.0,15,30,0.0,0.0
433,75.0,15,15,0.0,0.0
434,55.0,0,30,2.0,0.0
435,77.0,30,15,0.0,0.0
436,56.0,30,30,2.0,0.0
437,75.0,30,120,0.0,0.0
438,58.0,30,30,2.0,0.0
439,55.0,30,30,2.0,0.0
440,56.0,0,30,2.0,0.0
441,72.0,0,30,0.0,0.0
442,55.0,30,30,2.0,0.0
443,74.0,0,30,0.0,0.0
444,53.0,30,30,2.0,0.0
445,75.0,15,30,0.0,0.0
446,51.0,0,30,2.0,0.0
447,50.0,30,30,2.0,0.0
448,77.0,15,15,0.0,0.0
449,79.0,0,15,0.0,0.0
450,60.0,30,30,2.0,0.0
451,77.0,30,150,0.0,0.0
452,58.0,30,30,2.0,0.0
453,56.0,30,30,2.0,0.0
454,55.0,30,30,2.0,0.0
455,53.0,0,30,2.0,0.0
456,75.0,30,30,0.0,0.0
457,55.0,0,30,2.0,0.0
458,57.0,0,30,2.0,0.0
459,74.0,15,30,0.0,0.0
460,79.0,15,15,0.0,0.0
461,58.0,0,30,2.0,0.0
462,81.0,30,15,0.0,0.0
463,79.0,30,60,0.0,0.0
464,60.0,30,30,2.0,0.0
465,62.0,0,30,2.0,0.0
466,77.0,0,30,0.0,0.0
467,58.0,30,30,2.0,0.0
468,75.0,30,30,0.0,0.0
469,60.0,0,30,2.0,0.0
470,58.0,0,30,2.0,0.0
471,74.0,30,30,0.0,0.0
472,72.0,0,30,0.0,0.0
473,57.0,30,30,2.0,0.0
474,70.0,0,30,0.0,0.0
475,55.0,30,30,2.0,0.0
476,69.0,0,30,0.0,0.0
477,54.0,30,30,2.0,0.0
478,67.0,0,30,0.0,0.0
479,63.0,30,30,2.0,0.0
480,66.0,0,30,0.0,0.0
481,62.0,30,30,2.0,0.0
482,69.0,0,30,0.0,0.0
483,60.0,30,30,2.0,0.0
484,58.0,0,150,2.0,0.0
485,63.0,30,30,0.0,0.0
486,62.0,30,30,0.0,0.0
487,64.0,30,30,0.0,0.0
488,65.0,30,30,0.0,0.0
489,67.0,30,30,0.0,0.0
490,69.0,30,30,0.0,0.0
491,60.0,0,30,2.0,0.0
492,62.0,30,30,2.0,0.0
493,70.0,0,30,0.0,0.0
494,67.0,0,30,0.0,0.0
495,63.0,30,30,2.0,0.0
496,69.0,0,30,0.0,0.0
497,54.0,30,30,2.0,0.0
498,67.0,30,30,0.0,0.0
499,55.0,0,30,2.0,0.0
500,66.0,30,30,0.0,0.0
501,57.0,0,30,2.0,0.0
502,55.0,30,30,2.0,0.0
503,64.0,0,30,0.0,0.0
504,54.0,0,60,2.0,0.0
505,62.0,30,30,0.0,0.0
506,72.0,30,30,0.0,0.0
507,70.0,30,30,0.0,0.0
508,53.0,0,60,2.0,0.0
509,69.0,30,30,0.0,0.0
510,52.0,0,30,2.0,0.0
511,67.0,30,30,0.0,0.0
512,65.0,30,30,0.0,0.0
513,53.0,0,30,2.0,0.0
514,55.0,30,30,2.0,0.0
515,64.0,0,30,0.0,0.0
516,53.0,0,30,2.0,0.0
517,62.0,30,30,0.0,0.0
518,52.0,0,60,2.0,0.0
519,60.0,30,30,0.0,0.0
520,70.0,30,30,0.0,0.0
521,69.0,30,30,0.0,0.0
522,51.0,0,60,2.0,0.0
523,67.0,30,30,0.0,0.0
524,74.0,30,30,0.0,0.0
525,50.0,15,60,2.0,0.0
526,72.0,0,30,0.0,0.0
527,70.0,30,30,0.0,0.0
528,55.0,15,15,2.0,0.0
529,57.0,0,15,2.0,0.0
530,55.0,0,90,2.0,0.0
531,74.0,30,30,0.0,0.0
532,72.0,30,30,0.0,0.0
533,70.0,30,30,0.0,0.0
534,54.0,0,60,2.0,0.0
535,69.0,30,30,0.0,0.0
536,72.0,30,30,0.0,0.0
537,50.0,15,60,2.0,0.0
538,70.0,30,30,0.0,0.0
539,69.0,0,30,0.0,0.0
540,58.0,15,15,2.0,0.0
541,67.0,30,30,0.0,0.0
542,60.0,0,15,2.0,0.0
543,58.0,0,90,2.0,0.0
544,70.0,30,30,0.0,0.0
545,69.0,30,30,0.0,0.0
546,67.0,30,30,0.0,0.0
547,66.0,30,30,0.0,0.0
548,57.0,30,60,2.0,0.0
549,69.0,0,30,0.0,0.0
550,67.0,30,30,0.0,0.0
551,50.0,0,60,2.0,0.0
552,69.0,30,30,0.0,0.0
553,62.0,0,120,2.0,0.0
554,70.0,30,30,0.0,0.0
555,72.0,30,30,0.0,0.0
556,74.0,30,30,0.0,0.0
557,76.0,30,30,0.0,0.0
558,78.0,30,30,0.0,0.0
559,60.0,30,90,2.0,0.0
560,79.0,30,30,0.0,0.0
561,81.0,0,30,0.0,0.0
562,78.0,30,30,0.0,0.0
563,63.0,0,30,2.0,0.0
564,79.0,30,30,0.0,0.0
565,62.0,0,30,2.0,0.0
566,81.0,30,30,0.0,0.0
567,60.0,0,30,2.0,0.0
568,74.0,30,150,0.0,0.0
569,58.0,30,30,2.0,0.0
570,57.0,30,30,2.0,0.0
571,55.0,30,30,2.0,0.0
572,58.0,30,30,2.0,0.0
573,51.0,30,150,2.0,0.0
574,72.0,30,30,0.0,0.0
575,75.0,30,30,0.0,0.0
576,74.0,30,30,0.0,0.0
577,72.0,0,30,0.0,0.0
578,50.0,30,30,2.0,0.0
579,70.0,0,30,0.0,0.0
580,48.0,30,30,2.0,0.0
581,69.0,0,30,0.0,0.0
582,51.0,0,30,2.0,0.0
583,72.0,30,30,0.0,0.0
584,45.0,0,60,2.0,0.0
585,66.0,30,30,0.0,0.0
586,69.0,15,30,0.0,0.0
587,50.0,15,15,2.0,0.0
588,70.0,30,30,0.0,0.0
589,51.0,0,15,2.0,0.0
590,50.0,0,90,2.0,0.0
591,69.0,30,30,0.0,0.0
592,67.0,30,30,0.0,0.0
593,65.0,30,30,0.0,0.0
594,48.0,30,60,2.0,0.0
595,63.0,30,30,0.0,0.0
596,67.0,0,30,0.0,0.0
597,61.0,30,30,0.0,0.0
598,46.0,0,60,2.0,0.0
599,67.0,30,30,0.0,0.0
600,45.0,30,30,2.0,0.0
601,69.0,0,30,0.0,0.0
602,43.0,0,30,2.0,0.0
603,70.0,15,30,0.0,0.0
604,62.0,0,30,0.0,0.0
605,50.0,15,15,2.0,0.0
606,49.0,30,15,2.0,0.0
607,69.0,0,30,0.0,0.0
608,50.0,30,30,2.0,0.0
609,38.0,15,60,2.0,0.0
610,67.0,30,30,0.0,0.0
611,66.0,0,30,0.0,0.0
612,67.0,15,15,0.0,0.0
613,43.0,0,240,2.0,0.0
614,69.0,210,15,0.0,0.0
615,67.0,983,210,0.0,0.0
