,note,step,duration,channel,velocity
0,60.0,0,30,0.0,64.0
1,62.0,30,30,0.0,64.0
2,64.0,30,30,0.0,64.0
3,65.0,30,30,0.0,64.0
4,62.0,30,30,0.0,64.0
5,64.0,30,30,0.0,54.0
6,60.0,30,30,0.0,54.0
7,67.0,30,60,0.0,54.0
8,48.0,30,30,2.0,54.0
9,50.0,0,30,2.0,54.0
10,52.0,30,30,2.0,54.0
11,72.0,30,60,0.0,54.0
12,71.0,30,15,0.0,54.0
13,69.0,15,15,0.0,54.0
14,53.0,0,30,2.0,54.0
15,71.0,0,30,0.0,54.0
16,50.0,15,30,2.0,54.0
17,52.0,0,30,2.0,54.0
18,48.0,30,30,2.0,54.0
19,72.0,30,60,0.0,54.0
20,74.0,0,30,0.0,54.0
21,55.0,30,60,2.0,54.0
22,67.0,30,30,0.0,54.0
23,43.0,30,30,2.0,54.0
24,69.0,0,30,0.0,54.0
25,71.0,30,30,0.0,54.0
26,72.0,30,30,0.0,54.0
27,69.0,30,30,0.0,54.0
28,71.0,30,30,0.0,54.0
29,67.0,30,30,0.0,54.0
30,74.0,30,60,0.0,54.0
31,55.0,30,30,2.0,54.0
32,57.0,30,30,2.0,54.0
33,59.0,30,30,2.0,54.0
34,79.0,0,60,0.0,54.0
35,77.0,0,15,0.0,54.0
36,76.0,15,15,0.0,54.0
37,60.0,30,30,2.0,54.0
38,57.0,0,30,2.0,54.0
39,77.0,15,30,0.0,54.0
40,59.0,0,30,2.0,54.0
41,55.0,30,30,2.0,54.0
42,79.0,30,60,0.0,90.0
43,76.0,0,30,0.0,54.0
44,60.0,30,60,2.0,54.0
45,81.0,30,30,0.0,54.0
46,79.0,0,30,0.0,54.0
47,47.0,30,60,2.0,54.0
48,77.0,30,30,0.0,54.0
49,76.0,0,30,0.0,54.0
50,79.0,30,30,0.0,54.0
51,48.0,30,60,2.0,54.0
52,77.0,30,30,0.0,54.0
53,50.0,0,60,2.0,54.0
54,81.0,30,30,0.0,54.0
55,79.0,0,30,0.0,54.0
56,52.0,30,60,2.0,54.0
57,77.0,30,30,0.0,54.0
58,76.0,0,30,0.0,54.0
59,74.0,30,30,0.0,54.0
60,43.0,30,60,2.0,54.0
61,72.0,30,30,0.0,54.0
62,45.0,0,60,2.0,54.0
63,76.0,30,30,0.0,54.0
64,74.0,30,30,0.0,54.0
65,77.0,30,30,0.0,54.0
66,47.0,0,60,2.0,54.0
67,76.0,30,30,0.0,54.0
68,48.0,0,60,2.0,54.0
69,74.0,30,30,0.0,54.0
70,72.0,0,30,0.0,54.0
71,71.0,30,30,0.0,54.0
72,40.0,30,60,2.0,54.0
73,69.0,30,30,0.0,54.0
74,42.0,0,60,2.0,54.0
75,72.0,30,30,0.0,54.0
76,71.0,0,30,0.0,54.0
77,43.0,30,60,2.0,54.0
78,74.0,30,30,0.0,54.0
79,72.0,30,30,0.0,54.0
80,45.0,0,60,2.0,54.0
81,71.0,30,30,0.0,54.0
82,69.0,0,30,0.0,54.0
83,47.0,30,60,2.0,54.0
84,67.0,30,30,0.0,54.0
85,66.0,0,30,0.0,54.0
86,69.0,30,30,0.0,54.0
87,67.0,30,30,0.0,54.0
88,71.0,30,30,0.0,54.0
89,48.0,30,150,2.0,54.0
90,38.0,30,30,2.0,54.0
91,69.0,30,60,0.0,54.0
92,40.0,30,30,2.0,54.0
93,62.0,0,30,0.0,54.0
94,42.0,30,30,2.0,54.0
95,72.0,0,15,0.0,54.0
96,43.0,30,30,2.0,54.0
97,71.0,15,15,0.0,54.0
98,40.0,15,30,2.0,54.0
99,72.0,0,60,0.0,54.0
100,42.0,30,30,2.0,54.0
101,38.0,30,30,2.0,54.0
102,74.0,0,30,0.0,54.0
103,71.0,30,30,0.0,54.0
104,69.0,30,30,0.0,54.0
105,43.0,0,60,2.0,54.0
106,67.0,30,30,0.0,54.0
107,66.0,30,30,0.0,54.0
108,47.0,0,60,2.0,54.0
109,64.0,30,30,0.0,54.0
110,48.0,0,60,2.0,54.0
111,67.0,30,30,0.0,54.0
112,66.0,30,30,0.0,54.0
113,50.0,0,60,2.0,54.0
114,69.0,30,30,0.0,54.0
115,67.0,30,30,0.0,54.0
116,52.0,0,60,2.0,54.0
117,71.0,30,30,0.0,54.0
118,69.0,0,30,0.0,54.0
119,54.0,30,60,2.0,54.0
120,72.0,30,30,0.0,54.0
121,71.0,30,30,0.0,54.0
122,74.0,30,30,0.0,54.0
123,55.0,0,60,2.0,54.0
124,72.0,30,30,0.0,54.0
125,52.0,0,60,2.0,54.0
126,76.0,30,30,0.0,54.0
127,74.0,30,30,0.0,54.0
128,71.0,30,15,0.0,54.0
129,72.0,15,16,0.0,54.0
130,47.0,0,90,2.0,54.0
131,74.0,15,30,0.0,54.0
132,79.0,0,30,0.0,54.0
133,48.0,30,30,2.0,54.0
134,71.0,0,15,0.0,54.0
135,72.0,15,15,0.0,54.0
136,50.0,30,60,2.0,54.0
137,71.0,15,30,0.0,54.0
138,69.0,0,30,0.0,54.0
139,38.0,30,60,2.0,54.0
140,67.0,30,0,0.0,54.0
141,43.0,30,30,2.0,54.0
142,45.0,30,30,2.0,54.0
143,47.0,30,30,2.0,54.0
144,48.0,30,30,2.0,54.0
145,45.0,30,30,2.0,54.0
146,47.0,30,30,2.0,54.0
147,43.0,30,30,2.0,54.0
148,50.0,30,60,2.0,54.0
149,67.0,30,30,0.0,54.0
150,69.0,0,30,0.0,54.0
151,55.0,30,60,2.0,54.0
152,71.0,30,30,0.0,54.0
153,54.0,30,15,2.0,54.0
154,53.0,15,15,2.0,54.0
155,72.0,0,30,0.0,54.0
156,54.0,15,30,2.0,54.0
157,69.0,0,30,0.0,54.0
158,71.0,0,30,0.0,54.0
159,67.0,30,30,0.0,54.0
160,55.0,30,60,2.0,54.0
161,57.0,30,30,2.0,54.0
162,66.0,0,60,0.0,54.0
163,38.0,30,30,2.0,54.0
164,40.0,30,30,2.0,54.0
165,42.0,30,30,2.0,54.0
166,43.0,30,30,2.0,54.0
167,40.0,30,30,2.0,54.0
168,42.0,30,30,2.0,54.0
169,38.0,30,30,2.0,54.0
170,69.0,30,30,0.0,54.0
171,45.0,30,60,2.0,54.0
172,71.0,30,30,0.0,54.0
173,72.0,30,30,0.0,54.0
174,50.0,0,60,2.0,54.0
175,48.0,30,15,2.0,54.0
176,47.0,15,15,2.0,54.0
177,74.0,0,30,0.0,54.0
178,48.0,15,30,2.0,54.0
179,71.0,0,30,0.0,54.0
180,72.0,0,30,0.0,54.0
181,69.0,30,30,0.0,54.0
182,50.0,30,60,2.0,54.0
183,43.0,0,30,2.0,54.0
184,71.0,30,60,0.0,54.0
185,55.0,30,30,2.0,54.0
186,53.0,30,30,2.0,54.0
187,52.0,30,30,2.0,54.0
188,50.0,30,30,2.0,54.0
189,53.0,30,30,2.0,54.0
190,52.0,30,30,2.0,54.0
191,55.0,30,30,2.0,54.0
192,74.0,30,30,0.0,54.0
193,53.0,30,60,2.0,54.0
194,72.0,0,30,0.0,54.0
195,52.0,30,60,2.0,54.0
196,71.0,30,30,0.0,54.0
197,69.0,0,30,0.0,54.0
198,72.0,30,30,0.0,54.0
199,53.0,30,60,2.0,54.0
200,71.0,30,30,0.0,54.0
201,74.0,30,30,0.0,54.0
202,50.0,0,60,2.0,54.0
203,52.0,30,30,2.0,54.0
204,72.0,0,60,0.0,54.0
205,57.0,30,30,2.0,54.0
206,55.0,30,30,2.0,54.0
207,53.0,30,30,2.0,54.0
208,52.0,30,30,2.0,54.0
209,55.0,30,30,2.0,54.0
210,53.0,30,30,2.0,54.0
211,57.0,30,30,2.0,54.0
212,55.0,30,60,2.0,54.0
213,76.0,30,30,0.0,54.0
214,74.0,30,30,0.0,54.0
215,72.0,30,30,0.0,54.0
216,53.0,0,60,2.0,54.0
217,71.0,30,30,0.0,54.0
218,55.0,0,60,2.0,54.0
219,74.0,30,30,0.0,54.0
220,73.0,30,30,0.0,54.0
221,52.0,0,60,2.0,54.0
222,76.0,30,30,0.0,54.0
223,53.0,30,30,2.0,54.0
224,74.0,0,60,0.0,54.0
225,58.0,30,30,2.0,54.0
226,57.0,0,30,2.0,54.0
227,73.0,30,60,0.0,54.0
228,55.0,30,30,2.0,54.0
229,53.0,30,30,2.0,54.0
230,57.0,30,30,2.0,54.0
231,74.0,0,60,0.0,54.0
232,55.0,0,30,2.0,54.0
233,58.0,30,30,2.0,54.0
234,76.0,30,60,0.0,54.0
235,57.0,0,30,2.0,54.0
236,77.0,30,60,0.0,54.0
237,55.0,30,30,2.0,54.0
238,53.0,0,30,2.0,54.0
239,52.0,30,30,2.0,54.0
240,69.0,30,60,0.0,54.0
241,50.0,30,30,2.0,54.0
242,71.0,0,60,0.0,54.0
243,53.0,30,30,2.0,54.0
244,52.0,30,30,2.0,54.0
245,73.0,0,60,0.0,54.0
246,55.0,30,30,2.0,54.0
247,53.0,0,30,2.0,54.0
248,52.0,30,30,2.0,54.0
249,74.0,30,60,0.0,54.0
250,50.0,30,30,2.0,54.0
251,66.0,0,60,0.0,54.0
252,48.0,30,30,2.0,54.0
253,47.0,0,30,2.0,54.0
254,50.0,30,30,2.0,54.0
255,68.0,30,60,0.0,54.0
256,48.0,30,30,2.0,54.0
257,52.0,30,30,2.0,54.0
258,69.0,0,60,0.0,54.0
259,50.0,0,30,2.0,54.0
260,48.0,30,30,2.0,54.0
261,71.0,30,60,0.0,54.0
262,47.0,0,30,2.0,54.0
263,45.0,30,30,2.0,54.0
264,72.0,30,60,0.0,54.0
265,44.0,0,30,2.0,54.0
266,47.0,30,30,2.0,54.0
267,45.0,30,30,2.0,54.0
268,48.0,30,30,2.0,54.0
269,74.0,30,150,0.0,54.0
270,47.0,30,60,2.0,54.0
271,64.0,30,30,0.0,54.0
272,66.0,30,30,0.0,54.0
273,68.0,30,30,0.0,54.0
274,40.0,0,60,2.0,54.0
275,50.0,0,15,2.0,54.0
276,49.0,15,15,2.0,54.0
277,69.0,30,30,0.0,54.0
278,66.0,0,30,0.0,54.0
279,68.0,30,30,0.0,54.0
280,50.0,15,60,2.0,54.0
281,52.0,0,30,2.0,54.0
282,64.0,30,30,0.0,54.0
283,76.0,0,30,0.0,54.0
284,48.0,30,30,2.0,54.0
285,74.0,30,30,0.0,54.0
286,47.0,0,30,2.0,54.0
287,72.0,30,30,0.0,54.0
288,45.0,0,30,2.0,54.0
289,43.0,0,30,2.0,54.0
290,76.0,30,30,0.0,54.0
291,74.0,30,30,0.0,54.0
292,42.0,0,30,2.0,54.0
293,45.0,0,30,2.0,54.0
294,72.0,30,30,0.0,54.0
295,71.0,0,30,0.0,54.0
296,44.0,30,30,2.0,54.0
297,47.0,30,30,2.0,54.0
298,74.0,0,30,0.0,54.0
299,72.0,0,30,0.0,54.0
300,45.0,30,30,2.0,54.0
301,48.0,0,30,2.0,54.0
302,81.0,30,30,0.0,54.0
303,47.0,30,30,2.0,54.0
304,80.0,0,30,0.0,54.0
305,50.0,30,30,2.0,54.0
306,83.0,0,30,0.0,54.0
307,81.0,0,30,0.0,54.0
308,48.0,30,30,2.0,54.0
309,52.0,0,30,2.0,54.0
310,76.0,30,30,0.0,54.0
311,50.0,30,30,2.0,54.0
312,77.0,0,30,0.0,54.0
313,74.0,0,30,0.0,54.0
314,53.0,30,30,2.0,54.0
315,68.0,0,30,0.0,54.0
316,77.0,30,30,0.0,54.0
317,52.0,30,60,2.0,54.0
318,76.0,30,30,0.0,54.0
319,45.0,0,60,2.0,54.0
320,74.0,30,30,0.0,54.0
321,72.0,30,15,0.0,54.0
322,74.0,15,15,0.0,54.0
323,72.0,15,30,0.0,54.0
324,52.0,0,60,2.0,54.0
325,71.0,30,30,0.0,54.0
326,69.0,30,30,0.0,54.0
327,40.0,0,60,2.0,54.0
328,69.0,0,30,0.0,90.0
329,81.0,30,30,0.0,54.0
330,57.0,30,60,2.0,54.0
331,79.0,30,30,0.0,54.0
332,45.0,0,30,2.0,54.0
333,77.0,30,30,0.0,54.0
334,76.0,30,30,0.0,54.0
335,79.0,30,30,0.0,54.0
336,77.0,30,30,0.0,54.0
337,81.0,30,30,0.0,54.0
338,52.0,30,30,2.0,54.0
339,50.0,30,30,2.0,54.0
340,48.0,30,30,2.0,54.0
341,47.0,30,30,2.0,54.0
342,50.0,30,30,2.0,54.0
343,49.0,30,30,2.0,54.0
344,52.0,30,30,2.0,54.0
345,79.0,30,270,0.0,54.0
346,76.0,30,30,0.0,54.0
347,77.0,30,30,0.0,54.0
348,79.0,30,30,0.0,54.0
349,81.0,30,30,0.0,54.0
350,77.0,30,30,0.0,54.0
351,79.0,30,30,0.0,54.0
352,76.0,30,30,0.0,54.0
353,50.0,30,270,2.0,54.0
354,45.0,30,30,2.0,54.0
355,47.0,30,30,2.0,54.0
356,48.0,30,30,2.0,54.0
357,50.0,30,30,2.0,54.0
358,47.0,30,30,2.0,54.0
359,48.0,30,30,2.0,54.0
360,45.0,30,30,2.0,54.0
361,77.0,30,270,0.0,54.0
362,79.0,30,30,0.0,54.0
363,77.0,30,30,0.0,54.0
364,76.0,30,30,0.0,54.0
365,74.0,30,30,0.0,54.0
366,77.0,30,30,0.0,54.0
367,76.0,30,30,0.0,54.0
368,79.0,30,30,0.0,54.0
369,47.0,30,270,2.0,54.0
370,50.0,30,30,2.0,54.0
371,48.0,30,30,2.0,54.0
372,47.0,30,30,2.0,54.0
373,45.0,30,30,2.0,54.0
374,48.0,30,30,2.0,54.0
375,47.0,30,30,2.0,54.0
376,50.0,30,30,2.0,54.0
377,77.0,30,270,0.0,54.0
378,74.0,30,30,0.0,54.0
379,76.0,30,30,0.0,54.0
380,77.0,30,30,0.0,54.0
381,79.0,30,30,0.0,54.0
382,76.0,30,30,0.0,54.0
383,77.0,30,30,0.0,54.0
384,74.0,30,30,0.0,54.0
385,48.0,30,270,2.0,54.0
386,43.0,30,30,2.0,54.0
387,45.0,30,30,2.0,54.0
388,46.0,30,30,2.0,54.0
389,48.0,30,30,2.0,54.0
390,45.0,30,30,2.0,54.0
391,46.0,30,30,2.0,54.0
392,43.0,30,30,2.0,54.0
393,76.0,30,270,0.0,54.0
394,45.0,30,60,2.0,54.0
395,72.0,30,30,0.0,54.0
396,74.0,30,30,0.0,54.0
397,76.0,30,30,0.0,54.0
398,46.0,0,60,2.0,54.0
399,77.0,0,30,0.0,54.0
400,74.0,30,30,0.0,54.0
401,45.0,30,60,2.0,54.0
402,76.0,30,30,0.0,54.0
403,72.0,30,30,0.0,54.0
404,43.0,0,60,2.0,54.0
405,74.0,30,30,0.0,54.0
406,41.0,0,60,2.0,54.0
407,76.0,30,30,0.0,54.0
408,77.0,30,30,0.0,54.0
409,50.0,0,60,2.0,54.0
410,79.0,30,30,0.0,54.0
411,81.0,0,30,0.0,54.0
412,77.0,30,30,0.0,54.0
413,48.0,30,60,2.0,54.0
414,79.0,0,30,0.0,54.0
415,46.0,30,60,2.0,54.0
416,76.0,30,30,0.0,54.0
417,77.0,0,30,0.0,54.0
418,79.0,30,30,0.0,54.0
419,45.0,30,60,2.0,54.0
420,81.0,30,30,0.0,54.0
421,83.0,30,30,0.0,54.0
422,53.0,0,60,2.0,54.0
423,84.0,0,30,0.0,54.0
424,52.0,30,60,2.0,54.0
425,81.0,30,30,0.0,54.0
426,83.0,30,30,0.0,54.0
427,50.0,0,60,2.0,54.0
428,79.0,30,30,0.0,54.0
429,52.0,30,30,2.0,54.0
430,50.0,30,30,2.0,54.0
431,84.0,0,60,0.0,54.0
432,52.0,30,30,2.0,54.0
433,53.0,30,30,2.0,54.0
434,79.0,0,60,0.0,90.0
435,55.0,30,30,2.0,54.0
436,52.0,30,30,2.0,54.0
437,76.0,0,60,0.0,90.0
438,74.0,30,30,0.0,54.0
439,53.0,0,30,2.0,54.0
440,50.0,0,30,2.0,54.0
441,72.0,30,0,0.0,54.0
442,52.0,0,60,2.0,54.0
443,70.0,30,30,0.0,54.0
444,69.0,30,30,0.0,54.0
445,67.0,30,30,0.0,54.0
446,48.0,0,60,2.0,54.0
447,65.0,30,30,0.0,54.0
448,50.0,0,60,2.0,54.0
449,69.0,30,30,0.0,54.0
450,67.0,0,30,0.0,54.0
451,52.0,30,60,2.0,54.0
452,70.0,30,30,0.0,54.0
453,53.0,0,30,2.0,54.0
454,69.0,30,30,0.0,54.0
455,71.0,0,30,0.0,54.0
456,50.0,30,30,2.0,54.0
457,52.0,0,30,2.0,54.0
458,72.0,30,30,0.0,54.0
459,53.0,0,30,2.0,54.0
460,64.0,30,30,0.0,54.0
461,62.0,0,30,0.0,54.0
462,55.0,30,60,2.0,54.0
463,72.0,30,30,0.0,54.0
464,65.0,0,30,0.0,54.0
465,43.0,30,60,2.0,54.0
466,71.0,30,30,0.0,54.0
467,48.0,0,480,2.0,54.0
468,72.0,30,480,0.0,54.0
469,64.0,0,480,0.0,54.0
