,note,step,duration,channel,velocity
0,50.0,384,180,0.0,0.0
1,57.0,192,390,0.0,0.0
2,53.0,384,180,0.0,0.0
3,50.0,192,390,0.0,0.0
4,49.0,192,180,0.0,0.0
5,50.0,192,180,0.0,0.0
6,52.0,288,180,0.0,0.0
7,53.0,96,300,0.0,0.0
8,55.0,96,90,0.0,0.0
9,53.0,96,90,0.0,0.0
10,52.0,192,90,0.0,0.0
11,50.0,0,180,0.0,0.0
12,57.0,192,180,0.0,0.0
13,62.0,0,390,0.0,0.0
14,52.0,96,90,0.0,0.0
15,53.0,96,90,0.0,0.0
16,55.0,192,90,0.0,0.0
17,60.0,0,180,0.0,0.0
18,57.0,192,15,0.0,0.0
19,59.0,96,90,0.0,0.0
20,60.0,96,90,0.0,0.0
21,62.0,96,90,0.0,0.0
22,56.0,96,180,0.0,0.0
23,64.0,96,90,0.0,0.0
24,62.0,0,90,0.0,0.0
25,60.0,96,90,0.0,0.0
26,57.0,0,180,0.0,0.0
27,59.0,96,15,0.0,0.0
28,57.0,96,90,0.0,0.0
29,56.0,96,90,0.0,0.0
30,60.0,0,300,0.0,0.0
31,57.0,48,90,0.0,0.0
32,55.0,48,40,0.0,0.0
33,53.0,24,15,0.0,0.0
34,52.0,24,20,0.0,0.0
35,53.0,24,20,0.0,0.0
36,52.0,24,20,0.0,0.0
37,62.0,24,90,0.0,0.0
38,53.0,24,20,0.0,0.0
39,52.0,24,20,0.0,0.0
40,53.0,24,20,0.0,0.0
41,52.0,0,20,0.0,0.0
42,53.0,24,20,0.0,0.0
43,60.0,48,90,0.0,0.0
44,52.0,24,20,0.0,0.0
45,53.0,24,20,0.0,0.0
46,52.0,0,20,0.0,0.0
47,59.0,0,90,0.0,0.0
48,50.0,48,40,0.0,0.0
49,52.0,96,40,0.0,0.0
50,53.0,48,90,0.0,0.0
51,57.0,24,300,0.0,0.0
52,52.0,48,40,0.0,0.0
53,50.0,24,40,0.0,0.0
54,50.0,24,20,0.0,0.0
55,49.0,24,20,0.0,0.0
56,50.0,24,20,0.0,0.0
57,49.0,0,20,0.0,0.0
58,50.0,24,20,0.0,0.0
59,58.0,0,90,0.0,0.0
60,49.0,24,20,0.0,0.0
61,50.0,24,20,0.0,0.0
62,49.0,24,20,0.0,0.0
63,57.0,0,90,0.0,0.0
64,50.0,24,20,0.0,0.0
65,49.0,24,20,0.0,0.0
66,50.0,24,20,0.0,0.0
67,49.0,48,20,0.0,0.0
68,55.0,48,90,0.0,0.0
69,47.0,48,40,0.0,0.0
70,49.0,0,40,0.0,0.0
71,50.0,0,180,0.0,0.0
72,62.0,96,180,0.0,0.0
73,53.0,48,40,0.0,0.0
74,55.0,48,40,0.0,0.0
75,53.0,48,40,0.0,0.0
76,52.0,0,40,0.0,0.0
77,50.0,96,90,0.0,0.0
78,69.0,0,390,0.0,0.0
79,41.0,0,90,0.0,0.0
80,57.0,96,90,0.0,0.0
81,43.0,96,90,0.0,0.0
82,59.0,0,90,0.0,0.0
83,45.0,0,90,0.0,0.0
84,61.0,96,90,0.0,0.0
85,65.0,0,180,0.0,0.0
86,46.0,96,90,0.0,0.0
87,45.0,0,90,0.0,0.0
88,48.0,24,20,0.0,0.0
89,62.0,24,15,0.0,0.0
90,46.0,24,20,0.0,0.0
91,48.0,24,20,0.0,0.0
92,46.0,24,20,0.0,0.0
93,64.0,0,90,0.0,0.0
94,48.0,24,20,0.0,0.0
95,46.0,24,20,0.0,0.0
96,48.0,24,20,0.0,0.0
97,46.0,24,20,0.0,0.0
98,48.0,24,20,0.0,0.0
99,65.0,24,90,0.0,0.0
100,46.0,24,20,0.0,0.0
101,48.0,24,20,0.0,0.0
102,46.0,0,20,0.0,0.0
103,67.0,0,90,0.0,0.0
104,48.0,24,20,0.0,0.0
105,46.0,24,20,0.0,0.0
106,48.0,24,20,0.0,0.0
107,46.0,96,20,0.0,0.0
108,69.0,96,90,0.0,0.0
109,61.0,96,180,0.0,0.0
110,45.0,48,570,0.0,0.0
111,67.0,0,90,0.0,0.0
112,65.0,96,90,0.0,0.0
113,62.0,96,15,0.0,0.0
114,64.0,0,15,0.0,0.0
115,61.0,0,90,0.0,0.0
116,65.0,0,300,0.0,0.0
117,62.0,96,300,0.0,0.0
118,45.0,48,40,0.0,0.0
119,43.0,48,40,0.0,0.0
120,41.0,48,40,0.0,0.0
121,43.0,96,40,0.0,0.0
122,45.0,0,90,0.0,0.0
123,67.0,96,90,0.0,0.0
124,61.0,0,90,0.0,0.0
125,46.0,0,90,0.0,0.0
126,62.0,96,90,0.0,0.0
127,65.0,0,90,0.0,0.0
128,45.0,0,90,0.0,0.0
129,43.0,0,90,0.0,0.0
130,64.0,0,90,0.0,0.0
131,69.0,0,180,0.0,0.0
132,62.0,0,180,0.0,0.0
133,57.0,0,90,0.0,0.0
134,41.0,96,90,0.0,0.0
135,40.0,96,90,0.0,0.0
136,55.0,0,90,0.0,0.0
137,53.0,96,90,0.0,0.0
138,74.0,0,390,0.0,0.0
139,38.0,0,180,0.0,0.0
140,52.0,96,90,0.0,0.0
141,64.0,0,90,0.0,0.0
142,50.0,96,90,0.0,0.0
143,65.0,0,90,0.0,0.0
144,46.0,0,90,0.0,0.0
145,67.0,48,90,0.0,0.0
146,52.0,0,90,0.0,0.0
147,72.0,96,180,0.0,0.0
148,45.0,48,40,0.0,0.0
149,53.0,48,90,0.0,0.0
150,43.0,0,40,0.0,0.0
151,41.0,48,40,0.0,0.0
152,55.0,0,90,0.0,0.0
153,40.0,0,40,0.0,0.0
154,57.0,96,90,0.0,0.0
155,69.0,0,15,0.0,0.0
156,41.0,0,180,0.0,0.0
157,56.0,96,90,0.0,0.0
158,71.0,0,90,0.0,0.0
159,57.0,96,90,0.0,0.0
160,72.0,0,90,0.0,0.0
161,74.0,48,90,0.0,0.0
162,59.0,0,90,0.0,0.0
163,53.0,0,90,0.0,0.0
164,60.0,0,90,0.0,0.0
165,68.0,96,180,0.0,0.0
166,52.0,48,40,0.0,0.0
167,76.0,0,90,0.0,0.0
168,50.0,48,40,0.0,0.0
169,62.0,0,90,0.0,0.0
170,74.0,0,90,0.0,0.0
171,48.0,48,40,0.0,0.0
172,47.0,0,40,0.0,0.0
173,72.0,96,90,0.0,0.0
174,48.0,0,180,0.0,0.0
175,69.0,96,180,0.0,0.0
176,71.0,0,90,0.0,0.0
177,71.0,0,180,0.0,0.0
178,69.0,96,90,0.0,0.0
179,52.0,0,90,0.0,0.0
180,68.0,0,90,0.0,0.0
181,69.0,96,300,0.0,0.0
182,72.0,0,300,0.0,0.0
183,64.0,48,15,0.0,0.0
184,45.0,48,40,0.0,0.0
185,47.0,48,40,0.0,0.0
186,57.0,0,90,0.0,0.0
187,48.0,48,40,0.0,0.0
188,50.0,96,40,0.0,0.0
189,52.0,0,180,0.0,0.0
190,70.0,96,90,0.0,0.0
191,74.0,0,90,0.0,0.0
192,69.0,0,90,0.0,0.0
193,72.0,96,90,0.0,0.0
194,40.0,48,180,0.0,0.0
195,67.0,0,90,0.0,0.0
196,70.0,0,90,0.0,0.0
197,62.0,0,90,0.0,0.0
198,41.0,48,40,0.0,0.0
199,69.0,0,300,0.0,0.0
200,60.0,48,90,0.0,0.0
201,65.0,96,300,0.0,0.0
202,43.0,0,40,0.0,0.0
203,45.0,48,40,0.0,0.0
204,53.0,96,90,0.0,0.0
205,46.0,0,40,0.0,0.0
206,48.0,0,180,0.0,0.0
207,67.0,0,90,0.0,0.0
208,70.0,0,90,0.0,0.0
209,69.0,96,90,0.0,0.0
210,65.0,0,90,0.0,0.0
211,36.0,0,180,0.0,0.0
212,64.0,48,90,0.0,0.0
213,67.0,0,90,0.0,0.0
214,58.0,0,90,0.0,0.0
215,38.0,48,40,0.0,0.0
216,57.0,48,90,0.0,0.0
217,40.0,0,40,0.0,0.0
218,62.0,48,40,0.0,0.0
219,41.0,0,40,0.0,0.0
220,43.0,96,40,0.0,0.0
221,64.0,0,40,0.0,0.0
222,65.0,0,90,0.0,0.0
223,45.0,0,180,0.0,0.0
224,64.0,0,90,0.0,0.0
225,61.0,0,90,0.0,0.0
226,67.0,96,90,0.0,0.0
227,62.0,0,90,0.0,0.0
228,65.0,96,90,0.0,0.0
229,55.0,0,90,0.0,0.0
230,61.0,0,90,0.0,0.0
231,64.0,0,90,0.0,0.0
232,46.0,96,90,0.0,0.0
233,45.0,96,90,0.0,0.0
234,62.0,0,90,0.0,0.0
235,65.0,0,90,0.0,0.0
236,57.0,96,300,0.0,0.0
237,64.0,0,90,0.0,0.0
238,43.0,96,90,0.0,0.0
239,67.0,0,90,0.0,0.0
240,65.0,0,300,0.0,0.0
241,69.0,0,300,0.0,0.0
242,41.0,0,90,0.0,0.0
243,40.0,0,90,0.0,0.0
244,55.0,96,90,0.0,0.0
245,38.0,0,180,0.0,0.0
246,53.0,48,90,0.0,0.0
247,52.0,0,90,0.0,0.0
248,67.0,0,40,0.0,0.0
249,71.0,48,40,0.0,0.0
250,64.0,0,40,0.0,0.0
251,73.0,48,40,0.0,0.0
252,74.0,48,40,0.0,0.0
253,65.0,0,90,0.0,0.0
254,76.0,48,40,0.0,0.0
255,77.0,48,40,0.0,0.0
256,69.0,0,90,0.0,0.0
257,79.0,0,40,0.0,0.0
258,50.0,48,15,0.0,0.0
259,62.0,48,90,0.0,0.0
260,52.0,0,40,0.0,0.0
261,53.0,0,40,0.0,0.0
262,57.0,48,40,0.0,0.0
263,59.0,0,40,0.0,0.0
264,55.0,0,40,0.0,0.0
265,61.0,0,90,0.0,0.0
266,81.0,48,15,0.0,0.0
267,57.0,0,180,0.0,0.0
268,82.0,48,40,0.0,0.0
269,62.0,0,40,0.0,0.0
270,81.0,48,40,0.0,0.0
271,64.0,0,40,0.0,0.0
272,79.0,48,40,0.0,0.0
273,62.0,0,90,0.0,0.0
274,57.0,48,40,0.0,0.0
275,77.0,48,90,0.0,0.0
276,69.0,0,40,0.0,0.0
277,61.0,48,90,0.0,0.0
278,57.0,48,40,0.0,0.0
279,76.0,0,90,0.0,0.0
280,55.0,0,40,0.0,0.0
281,62.0,0,40,0.0,0.0
282,74.0,0,300,0.0,0.0
283,53.0,48,40,0.0,0.0
284,52.0,0,40,0.0,0.0
285,64.0,48,40,0.0,0.0
286,50.0,0,40,0.0,0.0
287,65.0,48,40,0.0,0.0
288,67.0,0,40,0.0,0.0
289,52.0,48,40,0.0,0.0
290,69.0,0,180,0.0,0.0
291,50.0,48,40,0.0,0.0
292,52.0,0,40,0.0,0.0
293,73.0,0,40,0.0,0.0
294,53.0,48,15,0.0,0.0
295,65.0,0,90,0.0,0.0
296,71.0,0,40,0.0,0.0
297,55.0,48,40,0.0,0.0
298,64.0,0,180,0.0,0.0
299,73.0,96,180,0.0,0.0
300,69.0,0,300,0.0,0.0
301,57.0,48,40,0.0,0.0
302,58.0,48,40,0.0,0.0
303,57.0,48,40,0.0,0.0
304,55.0,0,40,0.0,0.0
305,65.0,0,300,0.0,0.0
306,74.0,24,300,0.0,0.0
307,53.0,48,90,0.0,0.0
308,52.0,0,90,0.0,0.0
309,70.0,48,40,0.0,0.0
310,72.0,24,40,0.0,0.0
311,72.0,24,20,0.0,0.0
312,50.0,0,90,0.0,0.0
313,70.0,24,20,0.0,0.0
314,72.0,24,20,0.0,0.0
315,70.0,0,20,0.0,0.0
316,49.0,96,90,0.0,0.0
317,72.0,24,20,0.0,0.0
318,67.0,0,90,0.0,0.0
319,76.0,0,90,0.0,0.0
320,70.0,24,20,0.0,0.0
321,72.0,24,20,0.0,0.0
322,70.0,0,20,0.0,0.0
323,77.0,0,300,0.0,0.0
324,69.0,48,90,0.0,0.0
325,65.0,0,180,0.0,0.0
326,50.0,0,90,0.0,0.0
327,62.0,24,180,0.0,0.0
328,48.0,48,40,0.0,0.0
329,53.0,0,390,0.0,0.0
330,46.0,24,15,0.0,0.0
331,45.0,24,20,0.0,0.0
332,46.0,24,20,0.0,0.0
333,45.0,0,20,0.0,0.0
334,46.0,24,20,0.0,0.0
335,79.0,24,90,0.0,0.0
336,63.0,0,90,0.0,0.0
337,45.0,24,20,0.0,0.0
338,46.0,24,20,0.0,0.0
339,45.0,0,20,0.0,0.0
340,62.0,48,90,0.0,0.0
341,77.0,0,90,0.0,0.0
342,46.0,24,20,0.0,0.0
343,45.0,24,20,0.0,0.0
344,46.0,24,20,0.0,0.0
345,45.0,0,20,0.0,0.0
346,60.0,0,90,0.0,0.0
347,75.0,0,90,0.0,0.0
348,43.0,48,40,0.0,0.0
349,45.0,96,40,0.0,0.0
350,53.0,48,90,0.0,0.0
351,74.0,0,390,0.0,0.0
352,46.0,0,90,0.0,0.0
353,58.0,24,150,0.0,0.0
354,43.0,48,90,0.0,0.0
355,55.0,0,40,0.0,0.0
356,60.0,24,20,0.0,0.0
357,52.0,0,40,0.0,0.0
358,58.0,0,20,0.0,0.0
359,54.0,48,40,0.0,0.0
360,50.0,96,180,0.0,0.0
361,57.0,48,40,0.0,0.0
362,58.0,48,40,0.0,0.0
363,60.0,0,40,0.0,0.0
364,62.0,48,90,0.0,0.0
365,46.0,0,40,0.0,0.0
366,74.0,0,40,0.0,0.0
367,76.0,48,40,0.0,0.0
368,60.0,0,90,0.0,0.0
369,48.0,0,40,0.0,0.0
370,50.0,0,40,0.0,0.0
371,78.0,48,40,0.0,0.0
372,67.0,0,40,0.0,0.0
373,58.0,0,40,0.0,0.0
374,51.0,48,90,0.0,0.0
375,79.0,48,40,0.0,0.0
376,60.0,0,40,0.0,0.0
377,69.0,0,40,0.0,0.0
378,78.0,0,40,0.0,0.0
379,58.0,48,40,0.0,0.0
380,70.0,0,40,0.0,0.0
381,50.0,0,40,0.0,0.0
382,79.0,0,40,0.0,0.0
383,81.0,0,40,0.0,0.0
384,72.0,0,40,0.0,0.0
385,57.0,48,40,0.0,0.0
386,48.0,0,40,0.0,0.0
387,82.0,0,90,0.0,0.0
388,55.0,48,40,0.0,0.0
389,46.0,0,90,0.0,0.0
390,74.0,0,180,0.0,0.0
391,54.0,48,40,0.0,0.0
392,55.0,48,40,0.0,0.0
393,45.0,48,90,0.0,0.0
394,57.0,0,40,0.0,0.0
395,58.0,0,40,0.0,0.0
396,43.0,48,90,0.0,0.0
397,74.0,48,40,0.0,0.0
398,60.0,0,40,0.0,0.0
399,75.0,0,40,0.0,0.0
400,62.0,0,40,0.0,0.0
401,74.0,48,40,0.0,0.0
402,42.0,0,90,0.0,0.0
403,72.0,96,40,0.0,0.0
404,63.0,0,40,0.0,0.0
405,43.0,96,90,0.0,0.0
406,62.0,0,180,0.0,0.0
407,70.0,0,90,0.0,0.0
408,69.0,0,90,0.0,0.0
409,45.0,96,90,0.0,0.0
410,67.0,48,300,0.0,0.0
411,46.0,96,90,0.0,0.0
412,45.0,96,90,0.0,0.0
413,46.0,0,90,0.0,0.0
414,74.0,0,180,0.0,0.0
415,48.0,96,90,0.0,0.0
416,66.0,48,40,0.0,0.0
417,64.0,0,40,0.0,0.0
418,66.0,0,180,0.0,0.0
419,50.0,96,180,0.0,0.0
420,74.0,96,90,0.0,0.0
421,72.0,0,90,0.0,0.0
422,70.0,96,90,0.0,0.0
423,51.0,96,180,0.0,0.0
424,69.0,0,90,0.0,0.0
425,67.0,0,90,0.0,0.0
426,51.0,48,40,0.0,0.0
427,69.0,48,90,0.0,0.0
428,66.0,0,90,0.0,0.0
429,50.0,48,40,0.0,0.0
430,48.0,0,40,0.0,0.0
431,70.0,0,300,0.0,0.0
432,67.0,0,90,0.0,0.0
433,46.0,48,40,0.0,0.0
434,45.0,48,40,0.0,0.0
435,63.0,0,90,0.0,0.0
436,43.0,48,40,0.0,0.0
437,42.0,48,40,0.0,0.0
438,43.0,48,40,0.0,0.0
439,38.0,48,40,0.0,0.0
440,72.0,48,90,0.0,0.0
441,40.0,48,40,0.0,0.0
442,42.0,0,40,0.0,0.0
443,43.0,48,40,0.0,0.0
444,70.0,48,90,0.0,0.0
445,45.0,0,40,0.0,0.0
446,46.0,48,40,0.0,0.0
447,69.0,0,90,0.0,0.0
448,48.0,0,40,0.0,0.0
449,46.0,48,40,0.0,0.0
450,62.0,48,15,0.0,0.0
451,45.0,0,40,0.0,0.0
452,43.0,48,40,0.0,0.0
453,63.0,0,40,0.0,0.0
454,65.0,0,40,0.0,0.0
455,45.0,96,40,0.0,0.0
456,67.0,0,90,0.0,0.0
457,46.0,0,180,0.0,0.0
458,65.0,0,90,0.0,0.0
459,68.0,96,90,0.0,0.0
460,63.0,0,90,0.0,0.0
461,67.0,96,90,0.0,0.0
462,62.0,0,90,0.0,0.0
463,47.0,0,90,0.0,0.0
464,65.0,48,90,0.0,0.0
465,48.0,48,40,0.0,0.0
466,50.0,48,40,0.0,0.0
467,51.0,48,40,0.0,0.0
468,48.0,0,40,0.0,0.0
469,45.0,0,180,0.0,0.0
470,60.0,48,15,0.0,0.0
471,62.0,0,40,0.0,0.0
472,63.0,48,15,0.0,0.0
473,67.0,0,90,0.0,0.0
474,60.0,48,40,0.0,0.0
475,65.0,0,90,0.0,0.0
476,62.0,48,40,0.0,0.0
477,50.0,0,40,0.0,0.0
478,58.0,48,40,0.0,0.0
479,60.0,48,40,0.0,0.0
480,51.0,0,40,0.0,0.0
481,63.0,0,90,0.0,0.0
482,57.0,0,40,0.0,0.0
483,53.0,48,40,0.0,0.0
484,58.0,48,40,0.0,0.0
485,55.0,48,90,0.0,0.0
486,60.0,0,40,0.0,0.0
487,62.0,0,40,0.0,0.0
488,53.0,48,40,0.0,0.0
489,63.0,0,40,0.0,0.0
490,51.0,0,40,0.0,0.0
491,50.0,48,90,0.0,0.0
492,62.0,0,15,0.0,0.0
493,58.0,48,15,0.0,0.0
494,60.0,0,40,0.0,0.0
495,63.0,0,40,0.0,0.0
496,62.0,0,40,0.0,0.0
497,48.0,0,90,0.0,0.0
498,65.0,48,40,0.0,0.0
499,63.0,0,40,0.0,0.0
500,62.0,0,40,0.0,0.0
501,65.0,48,40,0.0,0.0
502,46.0,48,90,0.0,0.0
503,67.0,0,40,0.0,0.0
504,63.0,0,40,0.0,0.0
505,65.0,48,40,0.0,0.0
506,45.0,0,90,0.0,0.0
507,62.0,0,40,0.0,0.0
508,60.0,0,40,0.0,0.0
509,63.0,96,40,0.0,0.0
510,46.0,0,90,0.0,0.0
511,58.0,48,90,0.0,0.0
512,62.0,0,90,0.0,0.0
513,65.0,48,180,0.0,0.0
514,48.0,0,90,0.0,0.0
515,60.0,0,90,0.0,0.0
516,57.0,48,40,0.0,0.0
517,55.0,0,40,0.0,0.0
518,77.0,48,40,0.0,0.0
519,50.0,0,90,0.0,0.0
520,58.0,0,300,0.0,0.0
521,75.0,48,40,0.0,0.0
522,51.0,0,90,0.0,0.0
523,74.0,48,40,0.0,0.0
524,72.0,0,40,0.0,0.0
525,74.0,48,90,0.0,0.0
526,53.0,48,15,0.0,0.0
527,55.0,0,40,0.0,0.0
528,77.0,0,90,0.0,0.0
529,57.0,0,40,0.0,0.0
530,55.0,48,40,0.0,0.0
531,58.0,0,40,0.0,0.0
532,72.0,48,40,0.0,0.0
533,57.0,0,180,0.0,0.0
534,60.0,0,180,0.0,0.0
535,53.0,0,40,0.0,0.0
536,70.0,48,40,0.0,0.0
537,55.0,0,40,0.0,0.0
538,53.0,48,40,0.0,0.0
539,69.0,0,40,0.0,0.0
540,51.0,0,40,0.0,0.0
541,67.0,48,40,0.0,0.0
542,62.0,48,40,0.0,0.0
543,63.0,48,40,0.0,0.0
544,62.0,48,40,0.0,0.0
545,60.0,0,40,0.0,0.0
546,65.0,48,15,0.0,0.0
547,58.0,0,90,0.0,0.0
548,50.0,0,15,0.0,0.0
549,51.0,48,40,0.0,0.0
550,67.0,0,40,0.0,0.0
551,60.0,0,90,0.0,0.0
552,50.0,0,40,0.0,0.0
553,65.0,48,40,0.0,0.0
554,63.0,0,40,0.0,0.0
555,48.0,48,40,0.0,0.0
556,58.0,0,40,0.0,0.0
557,62.0,48,40,0.0,0.0
558,46.0,0,90,0.0,0.0
559,60.0,0,40,0.0,0.0
560,64.0,48,40,0.0,0.0
561,45.0,48,40,0.0,0.0
562,62.0,0,40,0.0,0.0
563,66.0,0,40,0.0,0.0
564,67.0,0,40,0.0,0.0
565,63.0,0,40,0.0,0.0
566,43.0,24,40,0.0,0.0
567,62.0,0,90,0.0,0.0
568,43.0,24,20,0.0,0.0
569,42.0,24,20,0.0,0.0
570,43.0,24,20,0.0,0.0
571,42.0,24,20,0.0,0.0
572,43.0,24,20,0.0,0.0
573,60.0,24,40,0.0,0.0
574,63.0,0,90,0.0,0.0
575,42.0,0,20,0.0,0.0
576,43.0,24,20,0.0,0.0
577,58.0,0,40,0.0,0.0
578,42.0,24,20,0.0,0.0
579,62.0,0,90,0.0,0.0
580,57.0,0,90,0.0,0.0
581,43.0,24,20,0.0,0.0
582,42.0,24,20,0.0,0.0
583,43.0,24,20,0.0,0.0
584,42.0,48,20,0.0,0.0
585,40.0,48,40,0.0,0.0
586,60.0,0,90,0.0,0.0
587,69.0,0,90,0.0,0.0
588,42.0,0,40,0.0,0.0
589,43.0,48,90,0.0,0.0
590,67.0,0,180,0.0,0.0
591,70.0,48,40,0.0,0.0
592,69.0,0,40,0.0,0.0
593,70.0,48,40,0.0,0.0
594,39.0,0,90,0.0,0.0
595,72.0,48,40,0.0,0.0
596,65.0,0,300,0.0,0.0
597,46.0,0,180,0.0,0.0
598,58.0,0,15,0.0,0.0
599,74.0,0,40,0.0,0.0
600,72.0,0,40,0.0,0.0
601,57.0,48,40,0.0,0.0
602,58.0,0,40,0.0,0.0
603,74.0,48,40,0.0,0.0
604,60.0,0,40,0.0,0.0
605,75.0,48,40,0.0,0.0
606,62.0,0,90,0.0,0.0
607,77.0,48,40,0.0,0.0
608,75.0,48,40,0.0,0.0
609,58.0,48,90,0.0,0.0
610,67.0,48,40,0.0,0.0
611,74.0,0,40,0.0,0.0
612,68.0,0,40,0.0,0.0
613,72.0,0,40,0.0,0.0
614,70.0,0,40,0.0,0.0
615,67.0,48,40,0.0,0.0
616,65.0,48,40,0.0,0.0
617,68.0,0,40,0.0,0.0
618,63.0,48,40,0.0,0.0
619,67.0,0,40,0.0,0.0
620,68.0,0,40,0.0,0.0
621,65.0,0,40,0.0,0.0
622,67.0,48,40,0.0,0.0
623,70.0,0,90,0.0,0.0
624,63.0,0,40,0.0,0.0
625,62.0,0,40,0.0,0.0
626,65.0,48,40,0.0,0.0
627,70.0,0,180,0.0,0.0
628,63.0,0,40,0.0,0.0
629,67.0,48,40,0.0,0.0
630,65.0,96,40,0.0,0.0
631,68.0,0,40,0.0,0.0
632,63.0,48,90,0.0,0.0
633,67.0,0,90,0.0,0.0
634,62.0,0,90,0.0,0.0
635,72.0,48,40,0.0,0.0
636,65.0,0,90,0.0,0.0
637,74.0,48,40,0.0,0.0
638,63.0,0,180,0.0,0.0
639,60.0,48,40,0.0,0.0
640,58.0,48,40,0.0,0.0
641,60.0,48,40,0.0,0.0
642,62.0,96,40,0.0,0.0
643,60.0,0,90,0.0,0.0
644,57.0,48,40,0.0,0.0
645,55.0,48,40,0.0,0.0
646,58.0,0,40,0.0,0.0
647,57.0,0,90,0.0,0.0
648,60.0,48,40,0.0,0.0
649,62.0,48,40,0.0,0.0
650,55.0,0,90,0.0,0.0
651,63.0,48,40,0.0,0.0
652,62.0,0,40,0.0,0.0
653,60.0,0,90,0.0,0.0
654,75.0,96,15,0.0,0.0
655,57.0,48,15,0.0,0.0
656,53.0,0,90,0.0,0.0
657,77.0,48,40,0.0,0.0
658,79.0,96,40,0.0,0.0
659,58.0,96,90,0.0,0.0
660,77.0,0,90,0.0,0.0
661,55.0,0,90,0.0,0.0
662,57.0,0,90,0.0,0.0
663,60.0,48,90,0.0,0.0
664,75.0,0,90,0.0,0.0
665,58.0,48,40,0.0,0.0
666,74.0,0,180,0.0,0.0
667,60.0,0,40,0.0,0.0
668,62.0,48,15,0.0,0.0
669,66.0,48,90,0.0,0.0
670,60.0,0,40,0.0,0.0
671,58.0,48,90,0.0,0.0
672,67.0,48,40,0.0,0.0
673,69.0,0,40,0.0,0.0
674,57.0,0,90,0.0,0.0
675,70.0,48,40,0.0,0.0
676,72.0,48,40,0.0,0.0
677,55.0,0,90,0.0,0.0
678,70.0,48,40,0.0,0.0
679,74.0,48,40,0.0,0.0
680,69.0,48,40,0.0,0.0
681,54.0,96,90,0.0,0.0
682,72.0,0,40,0.0,0.0
683,55.0,0,90,0.0,0.0
684,70.0,0,90,0.0,0.0
685,74.0,48,90,0.0,0.0
686,76.0,48,40,0.0,0.0
687,67.0,0,90,0.0,0.0
688,52.0,48,90,0.0,0.0
689,77.0,0,40,0.0,0.0
690,69.0,0,90,0.0,0.0
691,76.0,48,40,0.0,0.0
692,53.0,0,90,0.0,0.0
693,74.0,48,40,0.0,0.0
694,55.0,0,90,0.0,0.0
695,73.0,48,40,0.0,0.0
696,70.0,0,90,0.0,0.0
697,74.0,48,40,0.0,0.0
698,57.0,48,40,0.0,0.0
699,69.0,0,90,0.0,0.0
700,73.0,48,90,0.0,0.0
701,55.0,0,40,0.0,0.0
702,57.0,48,40,0.0,0.0
703,65.0,48,90,0.0,0.0
704,74.0,0,90,0.0,0.0
705,58.0,0,40,0.0,0.0
706,57.0,48,90,0.0,0.0
707,76.0,0,180,0.0,0.0
708,61.0,48,40,0.0,0.0
709,62.0,0,40,0.0,0.0
710,64.0,48,40,0.0,0.0
711,55.0,0,90,0.0,0.0
712,61.0,48,40,0.0,0.0
713,62.0,48,180,0.0,0.0
714,69.0,0,90,0.0,0.0
715,50.0,48,40,0.0,0.0
716,53.0,0,40,0.0,0.0
717,52.0,48,40,0.0,0.0
718,55.0,0,40,0.0,0.0
719,81.0,48,180,0.0,0.0
720,53.0,48,40,0.0,0.0
721,55.0,0,40,0.0,0.0
722,57.0,48,40,0.0,0.0
723,62.0,0,40,0.0,0.0
724,65.0,0,40,0.0,0.0
725,59.0,0,40,0.0,0.0
726,61.0,0,40,0.0,0.0
727,64.0,48,40,0.0,0.0
728,79.0,0,40,0.0,0.0
729,77.0,0,40,0.0,0.0
730,62.0,0,40,0.0,0.0
731,61.0,0,180,0.0,0.0
732,57.0,0,40,0.0,0.0
733,76.0,48,40,0.0,0.0
734,64.0,0,90,0.0,0.0
735,79.0,48,40,0.0,0.0
736,58.0,0,40,0.0,0.0
737,77.0,48,40,0.0,0.0
738,69.0,0,90,0.0,0.0
739,57.0,0,40,0.0,0.0
740,76.0,48,40,0.0,0.0
741,55.0,0,40,0.0,0.0
742,53.0,0,90,0.0,0.0
743,74.0,48,40,0.0,0.0
744,69.0,48,90,0.0,0.0
745,73.0,0,40,0.0,0.0
746,52.0,0,90,0.0,0.0
747,67.0,0,90,0.0,0.0
748,74.0,48,40,0.0,0.0
749,76.0,0,40,0.0,0.0
750,77.0,0,180,0.0,0.0
751,50.0,48,300,0.0,0.0
752,62.0,48,15,0.0,0.0
753,64.0,0,40,0.0,0.0
754,65.0,48,15,0.0,0.0
755,69.0,0,90,0.0,0.0
756,67.0,48,40,0.0,0.0
757,62.0,0,180,0.0,0.0
758,69.0,0,180,0.0,0.0
759,77.0,48,40,0.0,0.0
760,76.0,0,40,0.0,0.0
761,77.0,48,40,0.0,0.0
762,49.0,0,40,0.0,0.0
763,79.0,0,40,0.0,0.0
764,47.0,48,40,0.0,0.0
765,81.0,48,40,0.0,0.0
766,49.0,48,180,0.0,0.0
767,69.0,48,90,0.0,0.0
768,79.0,0,40,0.0,0.0
769,81.0,48,40,0.0,0.0
770,64.0,0,90,0.0,0.0
771,82.0,0,40,0.0,0.0
772,81.0,48,40,0.0,0.0
773,65.0,0,90,0.0,0.0
774,79.0,0,40,0.0,0.0
775,49.0,48,40,0.0,0.0
776,50.0,0,40,0.0,0.0
777,77.0,48,40,0.0,0.0
778,69.0,0,90,0.0,0.0
779,76.0,48,40,0.0,0.0
780,52.0,0,40,0.0,0.0
781,70.0,24,150,0.0,0.0
782,74.0,0,180,0.0,0.0
783,53.0,48,40,0.0,0.0
784,57.0,48,40,0.0,0.0
785,52.0,48,90,0.0,0.0
786,55.0,0,40,0.0,0.0
787,69.0,24,20,0.0,0.0
788,58.0,0,40,0.0,0.0
789,67.0,0,20,0.0,0.0
790,74.0,48,40,0.0,0.0
791,53.0,48,300,0.0,0.0
792,57.0,0,300,0.0,0.0
793,65.0,0,40,0.0,0.0
794,64.0,0,40,0.0,0.0
795,73.0,48,40,0.0,0.0
796,65.0,48,40,0.0,0.0
797,74.0,0,40,0.0,0.0
798,76.0,0,40,0.0,0.0
799,67.0,48,40,0.0,0.0
800,74.0,0,40,0.0,0.0
801,65.0,48,40,0.0,0.0
802,72.0,0,40,0.0,0.0
803,64.0,0,40,0.0,0.0
804,58.0,48,90,0.0,0.0
805,70.0,48,40,0.0,0.0
806,55.0,0,90,0.0,0.0
807,62.0,0,180,0.0,0.0
808,69.0,0,40,0.0,0.0
809,71.0,48,40,0.0,0.0
810,53.0,0,90,0.0,0.0
811,57.0,48,90,0.0,0.0
812,73.0,0,40,0.0,0.0
813,74.0,48,40,0.0,0.0
814,52.0,0,90,0.0,0.0
815,61.0,0,90,0.0,0.0
816,55.0,0,90,0.0,0.0
817,76.0,48,40,0.0,0.0
818,53.0,48,40,0.0,0.0
819,62.0,0,90,0.0,0.0
820,77.0,0,40,0.0,0.0
821,76.0,0,40,0.0,0.0
822,55.0,48,40,0.0,0.0
823,77.0,48,40,0.0,0.0
824,57.0,0,90,0.0,0.0
825,79.0,48,40,0.0,0.0
826,50.0,0,15,0.0,0.0
827,77.0,0,40,0.0,0.0
828,62.0,48,40,0.0,0.0
829,50.0,0,40,0.0,0.0
830,76.0,0,40,0.0,0.0
831,64.0,48,40,0.0,0.0
832,49.0,0,40,0.0,0.0
833,65.0,48,150,0.0,0.0
834,50.0,0,40,0.0,0.0
835,74.0,48,40,0.0,0.0
836,52.0,0,40,0.0,0.0
837,73.0,48,40,0.0,0.0
838,53.0,0,90,0.0,0.0
839,74.0,0,40,0.0,0.0
840,67.0,48,40,0.0,0.0
841,76.0,0,40,0.0,0.0
842,62.0,0,90,0.0,0.0
843,77.0,48,40,0.0,0.0
844,69.0,0,40,0.0,0.0
845,50.0,48,90,0.0,0.0
846,74.0,0,40,0.0,0.0
847,65.0,0,40,0.0,0.0
848,55.0,0,180,0.0,0.0
849,70.0,48,40,0.0,0.0
850,62.0,48,90,0.0,0.0
851,69.0,0,40,0.0,0.0
852,67.0,0,40,0.0,0.0
853,70.0,48,40,0.0,0.0
854,72.0,0,40,0.0,0.0
855,66.0,48,40,0.0,0.0
856,55.0,48,40,0.0,0.0
857,67.0,48,90,0.0,0.0
858,70.0,0,90,0.0,0.0
859,54.0,0,40,0.0,0.0
860,55.0,48,40,0.0,0.0
861,58.0,0,40,0.0,0.0
862,74.0,48,90,0.0,0.0
863,60.0,0,40,0.0,0.0
864,57.0,0,40,0.0,0.0
865,70.0,48,90,0.0,0.0
866,62.0,48,40,0.0,0.0
867,55.0,0,90,0.0,0.0
868,60.0,0,40,0.0,0.0
869,62.0,48,90,0.0,0.0
870,74.0,0,90,0.0,0.0
871,53.0,0,90,0.0,0.0
872,58.0,48,40,0.0,0.0
873,57.0,0,40,0.0,0.0
874,52.0,0,180,0.0,0.0
875,55.0,48,40,0.0,0.0
876,79.0,0,40,0.0,0.0
877,64.0,0,90,0.0,0.0
878,77.0,48,40,0.0,0.0
879,57.0,0,40,0.0,0.0
880,58.0,0,180,0.0,0.0
881,61.0,0,90,0.0,0.0
882,79.0,48,40,0.0,0.0
883,81.0,48,40,0.0,0.0
884,64.0,48,90,0.0,0.0
885,52.0,0,40,0.0,0.0
886,79.0,48,40,0.0,0.0
887,50.0,0,40,0.0,0.0
888,77.0,0,40,0.0,0.0
889,52.0,48,40,0.0,0.0
890,59.0,0,180,0.0,0.0
891,76.0,48,150,0.0,0.0
892,67.0,0,150,0.0,0.0
893,53.0,48,40,0.0,0.0
894,55.0,0,90,0.0,0.0
895,69.0,0,40,0.0,0.0
896,77.0,48,40,0.0,0.0
897,67.0,0,40,0.0,0.0
898,76.0,48,40,0.0,0.0
899,52.0,0,90,0.0,0.0
900,65.0,0,40,0.0,0.0
901,74.0,0,40,0.0,0.0
902,73.0,0,40,0.0,0.0
903,64.0,48,15,0.0,0.0
904,71.0,48,40,0.0,0.0
905,62.0,0,40,0.0,0.0
906,64.0,0,15,0.0,0.0
907,69.0,0,90,0.0,0.0
908,73.0,48,40,0.0,0.0
909,65.0,0,40,0.0,0.0
910,74.0,0,40,0.0,0.0
911,73.0,0,40,0.0,0.0
912,57.0,48,15,0.0,0.0
913,67.0,48,90,0.0,0.0
914,55.0,0,40,0.0,0.0
915,76.0,0,40,0.0,0.0
916,57.0,48,40,0.0,0.0
917,64.0,48,150,0.0,0.0
918,61.0,0,180,0.0,0.0
919,58.0,48,40,0.0,0.0
920,57.0,0,90,0.0,0.0
921,65.0,48,40,0.0,0.0
922,52.0,0,90,0.0,0.0
923,61.0,48,90,0.0,0.0
924,67.0,24,40,0.0,0.0
925,69.0,24,20,0.0,0.0
926,70.0,0,20,0.0,0.0
927,53.0,48,300,0.0,0.0
928,62.0,48,40,0.0,0.0
929,64.0,48,40,0.0,0.0
930,65.0,48,40,0.0,0.0
931,67.0,0,40,0.0,0.0
932,69.0,0,300,0.0,0.0
933,62.0,48,40,0.0,0.0
934,59.0,0,40,0.0,0.0
935,61.0,48,40,0.0,0.0
936,52.0,0,40,0.0,0.0
937,62.0,0,40,0.0,0.0
938,50.0,48,40,0.0,0.0
939,49.0,0,40,0.0,0.0
940,64.0,48,40,0.0,0.0
941,45.0,48,40,0.0,0.0
942,61.0,0,40,0.0,0.0
943,62.0,48,40,0.0,0.0
944,47.0,0,40,0.0,0.0
945,67.0,0,90,0.0,0.0
946,64.0,0,40,0.0,0.0
947,49.0,48,40,0.0,0.0
948,57.0,48,90,0.0,0.0
949,69.0,0,15,0.0,0.0
950,50.0,48,40,0.0,0.0
951,65.0,0,90,0.0,0.0
952,49.0,0,40,0.0,0.0
953,50.0,48,40,0.0,0.0
954,64.0,48,90,0.0,0.0
955,52.0,0,40,0.0,0.0
956,62.0,48,300,0.0,0.0
957,50.0,48,40,0.0,0.0
958,52.0,48,40,0.0,0.0
959,53.0,48,40,0.0,0.0
960,55.0,48,40,0.0,0.0
961,53.0,0,15,0.0,0.0
962,52.0,0,40,0.0,0.0
963,61.0,0,40,0.0,0.0
964,53.0,48,40,0.0,0.0
965,59.0,0,40,0.0,0.0
966,55.0,0,40,0.0,0.0
967,61.0,48,180,0.0,0.0
968,57.0,48,15,0.0,0.0
969,57.0,48,40,0.0,0.0
970,58.0,0,40,0.0,0.0
971,57.0,48,15,0.0,0.0
972,55.0,0,40,0.0,0.0
973,53.0,48,180,0.0,0.0
974,38.0,48,40,0.0,0.0
975,62.0,48,300,0.0,0.0
976,40.0,48,40,0.0,0.0
977,41.0,48,40,0.0,0.0
978,43.0,0,40,0.0,0.0
979,53.0,48,40,0.0,0.0
980,45.0,0,180,0.0,0.0
981,52.0,0,40,0.0,0.0
982,64.0,48,90,0.0,0.0
983,50.0,48,40,0.0,0.0
984,49.0,0,40,0.0,0.0
985,50.0,48,40,0.0,0.0
986,69.0,0,15,0.0,0.0
987,65.0,0,90,0.0,0.0
988,45.0,0,90,0.0,0.0
989,57.0,48,40,0.0,0.0
990,43.0,0,90,0.0,0.0
991,64.0,48,90,0.0,0.0
992,59.0,48,40,0.0,0.0
993,61.0,0,40,0.0,0.0
994,65.0,0,90,0.0,0.0
995,62.0,48,40,0.0,0.0
996,41.0,0,90,0.0,0.0
997,64.0,48,40,0.0,0.0
998,67.0,48,90,0.0,0.0
999,62.0,48,40,0.0,0.0
1000,40.0,0,90,0.0,0.0
1001,61.0,0,40,0.0,0.0
1002,41.0,48,40,0.0,0.0
1003,62.0,0,90,0.0,0.0
1004,65.0,48,90,0.0,0.0
1005,45.0,0,40,0.0,0.0
1006,55.0,0,90,0.0,0.0
1007,47.0,48,40,0.0,0.0
1008,64.0,96,90,0.0,0.0
1009,49.0,0,40,0.0,0.0
1010,54.0,0,90,0.0,0.0
1011,69.0,48,90,0.0,0.0
1012,50.0,0,570,0.0,0.0
1013,62.0,0,90,0.0,0.0
1014,67.0,48,40,0.0,0.0
1015,58.0,0,150,0.0,0.0
1016,66.0,48,40,0.0,0.0
1017,64.0,0,90,0.0,0.0
1018,67.0,48,40,0.0,0.0
1019,69.0,0,40,0.0,0.0
1020,57.0,48,40,0.0,0.0
1021,70.0,48,40,0.0,0.0
1022,55.0,0,40,0.0,0.0
1023,72.0,48,40,0.0,0.0
1024,57.0,0,40,0.0,0.0
1025,58.0,48,40,0.0,0.0
1026,60.0,48,40,0.0,0.0
1027,66.0,0,40,0.0,0.0
1028,58.0,0,40,0.0,0.0
1029,67.0,48,40,0.0,0.0
1030,69.0,0,40,0.0,0.0
1031,57.0,48,40,0.0,0.0
1032,70.0,0,90,0.0,0.0
1033,74.0,0,15,0.0,0.0
1034,55.0,48,40,0.0,0.0
1035,50.0,48,40,0.0,0.0
1036,52.0,48,40,0.0,0.0
1037,69.0,0,90,0.0,0.0
1038,72.0,48,90,0.0,0.0
1039,54.0,0,40,0.0,0.0
1040,55.0,48,40,0.0,0.0
1041,67.0,0,90,0.0,0.0
1042,70.0,48,90,0.0,0.0
1043,57.0,0,40,0.0,0.0
1044,58.0,48,40,0.0,0.0
1045,66.0,48,90,0.0,0.0
1046,69.0,0,90,0.0,0.0
1047,60.0,0,40,0.0,0.0
1048,58.0,48,40,0.0,0.0
1049,67.0,0,40,0.0,0.0
1050,57.0,48,40,0.0,0.0
1051,69.0,0,40,0.0,0.0
1052,70.0,0,90,0.0,0.0
1053,55.0,24,40,0.0,0.0
1054,54.0,24,20,0.0,0.0
1055,52.0,0,20,0.0,0.0
1056,54.0,0,40,0.0,0.0
1057,64.0,48,15,0.0,0.0
1058,55.0,0,40,0.0,0.0
1059,64.0,48,40,0.0,0.0
1060,66.0,48,40,0.0,0.0
1061,57.0,0,90,0.0,0.0
1062,67.0,0,40,0.0,0.0
1063,69.0,0,15,0.0,0.0
1064,66.0,0,390,0.0,0.0
1065,50.0,48,15,0.0,0.0
1066,50.0,24,40,0.0,0.0
1067,45.0,24,20,0.0,0.0
1068,43.0,24,20,0.0,0.0
1069,42.0,24,20,0.0,0.0
1070,43.0,48,20,0.0,0.0
1071,45.0,192,40,0.0,0.0
1072,38.0,0,180,0.0,0.0
1073,69.0,384,180,0.0,0.0
1074,62.0,192,390,0.0,0.0
1075,65.0,384,180,0.0,0.0
1076,69.0,192,390,0.0,0.0
1077,70.0,192,180,0.0,0.0
1078,69.0,192,180,0.0,0.0
1079,67.0,288,180,0.0,0.0
1080,65.0,96,300,0.0,0.0
1081,64.0,96,90,0.0,0.0
1082,65.0,96,90,0.0,0.0
1083,67.0,192,90,0.0,0.0
1084,69.0,192,180,0.0,0.0
1085,62.0,0,180,0.0,0.0
1086,57.0,192,390,0.0,0.0
1087,67.0,96,90,0.0,0.0
1088,65.0,96,90,0.0,0.0
1089,64.0,0,90,0.0,0.0
1090,58.0,192,180,0.0,0.0
1091,62.0,0,15,0.0,0.0
1092,60.0,96,90,0.0,0.0
1093,58.0,96,90,0.0,0.0
1094,57.0,96,90,0.0,0.0
1095,63.0,96,180,0.0,0.0
1096,55.0,96,90,0.0,0.0
1097,57.0,0,90,0.0,0.0
1098,58.0,96,90,0.0,0.0
1099,60.0,0,90,0.0,0.0
1100,62.0,96,15,0.0,0.0
1101,60.0,0,180,0.0,0.0
1102,63.0,96,90,0.0,0.0
1103,58.0,96,300,0.0,0.0
1104,62.0,48,90,0.0,0.0
1105,64.0,48,40,0.0,0.0
1106,66.0,96,40,0.0,0.0
1107,67.0,48,300,0.0,0.0
1108,57.0,96,90,0.0,0.0
1109,59.0,0,90,0.0,0.0
1110,69.0,48,40,0.0,0.0
1111,61.0,0,90,0.0,0.0
1112,67.0,96,40,0.0,0.0
1113,62.0,96,300,0.0,0.0
1114,65.0,48,90,0.0,0.0
1115,67.0,48,40,0.0,0.0
1116,69.0,96,40,0.0,0.0
1117,70.0,48,300,0.0,0.0
1118,60.0,96,90,0.0,0.0
1119,62.0,0,90,0.0,0.0
1120,64.0,48,90,0.0,0.0
1121,72.0,48,40,0.0,0.0
1122,70.0,0,40,0.0,0.0
1123,57.0,96,180,0.0,0.0
1124,69.0,0,180,0.0,0.0
1125,65.0,48,40,0.0,0.0
1126,64.0,48,40,0.0,0.0
1127,65.0,48,40,0.0,0.0
1128,67.0,0,40,0.0,0.0
1129,50.0,0,390,0.0,0.0
1130,69.0,96,90,0.0,0.0
1131,77.0,96,90,0.0,0.0
1132,62.0,0,90,0.0,0.0
1133,76.0,0,90,0.0,0.0
1134,60.0,96,90,0.0,0.0
1135,58.0,96,90,0.0,0.0
1136,74.0,0,90,0.0,0.0
1137,53.0,0,180,0.0,0.0
1138,72.0,96,90,0.0,0.0
1139,74.0,24,15,0.0,0.0
1140,57.0,0,15,0.0,0.0
1141,73.0,24,20,0.0,0.0
1142,74.0,24,20,0.0,0.0
1143,73.0,24,20,0.0,0.0
1144,74.0,24,20,0.0,0.0
1145,55.0,24,90,0.0,0.0
1146,73.0,24,20,0.0,0.0
1147,74.0,24,20,0.0,0.0
1148,73.0,0,20,0.0,0.0
1149,74.0,24,20,0.0,0.0
1150,53.0,24,90,0.0,0.0
1151,73.0,24,20,0.0,0.0
1152,74.0,24,20,0.0,0.0
1153,73.0,0,20,0.0,0.0
1154,74.0,24,20,0.0,0.0
1155,52.0,0,90,0.0,0.0
1156,73.0,24,20,0.0,0.0
1157,74.0,24,20,0.0,0.0
1158,73.0,96,20,0.0,0.0
1159,58.0,96,180,0.0,0.0
1160,50.0,96,90,0.0,0.0
1161,74.0,0,570,0.0,0.0
1162,52.0,0,90,0.0,0.0
1163,57.0,0,180,0.0,0.0
1164,53.0,96,90,0.0,0.0
1165,55.0,96,15,0.0,0.0
1166,57.0,96,90,0.0,0.0
1167,58.0,0,90,0.0,0.0
1168,74.0,48,40,0.0,0.0
1169,53.0,96,300,0.0,0.0
1170,57.0,0,300,0.0,0.0
1171,76.0,48,40,0.0,0.0
1172,77.0,48,40,0.0,0.0
1173,76.0,96,40,0.0,0.0
1174,74.0,0,90,0.0,0.0
1175,52.0,0,90,0.0,0.0
1176,58.0,0,90,0.0,0.0
1177,73.0,96,90,0.0,0.0
1178,53.0,0,90,0.0,0.0
1179,57.0,0,90,0.0,0.0
1180,74.0,96,90,0.0,0.0
1181,76.0,0,90,0.0,0.0
1182,55.0,0,90,0.0,0.0
1183,50.0,0,180,0.0,0.0
1184,57.0,0,180,0.0,0.0
1185,62.0,0,90,0.0,0.0
1186,77.0,96,90,0.0,0.0
1187,64.0,0,90,0.0,0.0
1188,79.0,96,90,0.0,0.0
1189,45.0,48,390,0.0,0.0
1190,81.0,96,180,0.0,0.0
1191,65.0,96,90,0.0,0.0
1192,67.0,0,90,0.0,0.0
1193,55.0,0,90,0.0,0.0
1194,53.0,96,90,0.0,0.0
1195,69.0,0,90,0.0,0.0
1196,52.0,0,90,0.0,0.0
1197,73.0,0,90,0.0,0.0
1198,67.0,0,90,0.0,0.0
1199,65.0,0,90,0.0,0.0
1200,46.0,0,180,0.0,0.0
1201,50.0,0,180,0.0,0.0
1202,74.0,48,40,0.0,0.0
1203,76.0,48,40,0.0,0.0
1204,64.0,96,90,0.0,0.0
1205,77.0,48,40,0.0,0.0
1206,79.0,0,40,0.0,0.0
1207,50.0,0,390,0.0,0.0
1208,77.0,0,180,0.0,0.0
1209,62.0,96,90,0.0,0.0
1210,48.0,0,90,0.0,0.0
1211,63.0,96,90,0.0,0.0
1212,46.0,96,90,0.0,0.0
1213,62.0,0,90,0.0,0.0
1214,60.0,0,90,0.0,0.0
1215,66.0,48,90,0.0,0.0
1216,45.0,0,90,0.0,0.0
1217,43.0,0,90,0.0,0.0
1218,51.0,96,180,0.0,0.0
1219,58.0,0,90,0.0,0.0
1220,67.0,48,40,0.0,0.0
1221,69.0,48,40,0.0,0.0
1222,57.0,0,90,0.0,0.0
1223,70.0,48,40,0.0,0.0
1224,45.0,0,90,0.0,0.0
1225,72.0,0,40,0.0,0.0
1226,46.0,96,90,0.0,0.0
1227,55.0,0,390,0.0,0.0
1228,70.0,0,180,0.0,0.0
1229,50.0,0,180,0.0,0.0
1230,48.0,96,15,0.0,0.0
1231,50.0,96,90,0.0,0.0
1232,67.0,0,90,0.0,0.0
1233,51.0,0,90,0.0,0.0
1234,74.0,48,40,0.0,0.0
1235,50.0,0,300,0.0,0.0
1236,46.0,96,300,0.0,0.0
1237,55.0,0,90,0.0,0.0
1238,72.0,48,40,0.0,0.0
1239,62.0,96,90,0.0,0.0
1240,70.0,48,40,0.0,0.0
1241,69.0,0,40,0.0,0.0
1242,67.0,0,180,0.0,0.0
1243,49.0,96,90,0.0,0.0
1244,45.0,0,90,0.0,0.0
1245,79.0,0,180,0.0,0.0
1246,50.0,0,90,0.0,0.0
1247,47.0,96,90,0.0,0.0
1248,49.0,0,90,0.0,0.0
1249,52.0,0,90,0.0,0.0
1250,57.0,48,90,0.0,0.0
1251,58.0,48,90,0.0,0.0
1252,77.0,48,40,0.0,0.0
1253,53.0,96,300,0.0,0.0
1254,50.0,0,300,0.0,0.0
1255,76.0,0,40,0.0,0.0
1256,65.0,0,90,0.0,0.0
1257,74.0,48,40,0.0,0.0
1258,72.0,96,40,0.0,0.0
1259,70.0,0,180,0.0,0.0
1260,49.0,96,90,0.0,0.0
1261,52.0,0,90,0.0,0.0
1262,82.0,0,180,0.0,0.0
1263,53.0,0,90,0.0,0.0
1264,50.0,96,90,0.0,0.0
1265,61.0,48,90,0.0,0.0
1266,52.0,0,90,0.0,0.0
1267,55.0,0,90,0.0,0.0
1268,81.0,48,40,0.0,0.0
1269,62.0,48,90,0.0,0.0
1270,79.0,0,40,0.0,0.0
1271,77.0,0,40,0.0,0.0
1272,57.0,48,40,0.0,0.0
1273,76.0,96,40,0.0,0.0
1274,55.0,0,40,0.0,0.0
1275,53.0,0,90,0.0,0.0
1276,74.0,0,180,0.0,0.0
1277,58.0,0,90,0.0,0.0
1278,52.0,0,90,0.0,0.0
1279,55.0,96,90,0.0,0.0
1280,57.0,0,90,0.0,0.0
1281,53.0,96,90,0.0,0.0
1282,73.0,96,90,0.0,0.0
1283,58.0,0,90,0.0,0.0
1284,64.0,0,90,0.0,0.0
1285,55.0,0,90,0.0,0.0
1286,57.0,0,90,0.0,0.0
1287,62.0,96,300,0.0,0.0
1288,53.0,96,90,0.0,0.0
1289,74.0,0,90,0.0,0.0
1290,76.0,0,90,0.0,0.0
1291,52.0,96,90,0.0,0.0
1292,55.0,0,90,0.0,0.0
1293,77.0,0,90,0.0,0.0
1294,50.0,0,300,0.0,0.0
1295,53.0,48,300,0.0,0.0
1296,79.0,96,90,0.0,0.0
1297,64.0,0,90,0.0,0.0
1298,65.0,0,90,0.0,0.0
1299,81.0,0,180,0.0,0.0
1300,48.0,0,40,0.0,0.0
1301,52.0,48,40,0.0,0.0
1302,67.0,0,90,0.0,0.0
1303,46.0,48,40,0.0,0.0
1304,55.0,0,40,0.0,0.0
1305,53.0,48,90,0.0,0.0
1306,45.0,48,40,0.0,0.0
1307,43.0,0,40,0.0,0.0
1308,41.0,48,40,0.0,0.0
1309,50.0,0,90,0.0,0.0
1310,40.0,48,40,0.0,0.0
1311,69.0,0,15,0.0,0.0
1312,57.0,0,90,0.0,0.0
1313,38.0,48,180,0.0,0.0
1314,67.0,48,40,0.0,0.0
1315,62.0,0,40,0.0,0.0
1316,65.0,48,40,0.0,0.0
1317,60.0,0,40,0.0,0.0
1318,64.0,0,40,0.0,0.0
1319,62.0,0,180,0.0,0.0
1320,38.0,48,40,0.0,0.0
1321,58.0,0,90,0.0,0.0
1322,37.0,48,40,0.0,0.0
1323,57.0,0,40,0.0,0.0
1324,38.0,48,40,0.0,0.0
1325,40.0,48,40,0.0,0.0
1326,55.0,0,40,0.0,0.0
1327,62.0,48,40,0.0,0.0
1328,57.0,0,90,0.0,0.0
1329,41.0,48,90,0.0,0.0
1330,50.0,0,40,0.0,0.0
1331,43.0,0,90,0.0,0.0
1332,62.0,48,40,0.0,0.0
1333,58.0,48,90,0.0,0.0
1334,64.0,0,40,0.0,0.0
1335,45.0,48,300,0.0,0.0
1336,65.0,0,40,0.0,0.0
1337,57.0,48,40,0.0,0.0
1338,67.0,0,40,0.0,0.0
1339,55.0,48,40,0.0,0.0
1340,69.0,48,40,0.0,0.0
1341,53.0,0,40,0.0,0.0
1342,67.0,48,40,0.0,0.0
1343,52.0,0,40,0.0,0.0
1344,50.0,0,180,0.0,0.0
1345,65.0,0,90,0.0,0.0
1346,69.0,48,40,0.0,0.0
1347,67.0,0,40,0.0,0.0
1348,46.0,48,40,0.0,0.0
1349,53.0,48,90,0.0,0.0
1350,65.0,0,40,0.0,0.0
1351,64.0,0,40,0.0,0.0
1352,48.0,0,40,0.0,0.0
1353,55.0,0,180,0.0,0.0
1354,62.0,48,40,0.0,0.0
1355,46.0,0,180,0.0,0.0
1356,50.0,48,300,0.0,0.0
1357,61.0,48,40,0.0,0.0
1358,62.0,48,40,0.0,0.0
1359,64.0,96,40,0.0,0.0
1360,45.0,96,300,0.0,0.0
1361,65.0,0,90,0.0,0.0
1362,53.0,0,300,0.0,0.0
1363,67.0,0,90,0.0,0.0
1364,49.0,48,40,0.0,0.0
1365,47.0,96,40,0.0,0.0
1366,69.0,0,90,0.0,0.0
1367,49.0,96,180,0.0,0.0
1368,52.0,0,90,0.0,0.0
1369,70.0,0,90,0.0,0.0
1370,43.0,0,90,0.0,0.0
1371,69.0,48,90,0.0,0.0
1372,41.0,96,300,0.0,0.0
1373,50.0,0,90,0.0,0.0
1374,53.0,0,180,0.0,0.0
1375,57.0,0,180,0.0,0.0
1376,71.0,48,40,0.0,0.0
1377,73.0,96,40,0.0,0.0
1378,74.0,0,300,0.0,0.0
1379,55.0,0,90,0.0,0.0
1380,40.0,96,90,0.0,0.0
1381,57.0,0,90,0.0,0.0
1382,41.0,48,90,0.0,0.0
1383,76.0,48,40,0.0,0.0
1384,59.0,0,90,0.0,0.0
1385,43.0,0,90,0.0,0.0
1386,74.0,96,40,0.0,0.0
1387,45.0,96,390,0.0,0.0
1388,65.0,0,15,0.0,0.0
1389,72.0,0,90,0.0,0.0
1390,60.0,0,150,0.0,0.0
1391,76.0,0,90,0.0,0.0
1392,64.0,24,40,0.0,0.0
1393,59.0,24,20,0.0,0.0
1394,67.0,0,40,0.0,0.0
1395,60.0,48,20,0.0,0.0
1396,65.0,48,40,0.0,0.0
1397,69.0,0,180,0.0,0.0
1398,62.0,48,40,0.0,0.0
1399,60.0,48,40,0.0,0.0
1400,59.0,0,40,0.0,0.0
1401,57.0,0,90,0.0,0.0
1402,45.0,0,40,0.0,0.0
1403,72.0,48,40,0.0,0.0
1404,59.0,48,90,0.0,0.0
1405,43.0,48,40,0.0,0.0
1406,71.0,0,40,0.0,0.0
1407,69.0,0,40,0.0,0.0
1408,41.0,0,40,0.0,0.0
1409,40.0,0,40,0.0,0.0
1410,52.0,48,40,0.0,0.0
1411,68.0,0,90,0.0,0.0
1412,60.0,0,40,0.0,0.0
1413,59.0,0,40,0.0,0.0
1414,41.0,0,40,0.0,0.0
1415,50.0,48,40,0.0,0.0
1416,69.0,0,40,0.0,0.0
1417,60.0,48,40,0.0,0.0
1418,40.0,0,40,0.0,0.0
1419,48.0,0,40,0.0,0.0
1420,47.0,0,40,0.0,0.0
1421,71.0,0,40,0.0,0.0
1422,38.0,0,40,0.0,0.0
1423,62.0,48,40,0.0,0.0
1424,72.0,48,90,0.0,0.0
1425,36.0,48,180,0.0,0.0
1426,64.0,48,40,0.0,0.0
1427,65.0,0,40,0.0,0.0
1428,64.0,48,40,0.0,0.0
1429,74.0,0,90,0.0,0.0
1430,62.0,0,40,0.0,0.0
1431,45.0,0,15,0.0,0.0
1432,76.0,0,90,0.0,0.0
1433,60.0,0,40,0.0,0.0
1434,59.0,0,40,0.0,0.0
1435,44.0,48,40,0.0,0.0
1436,77.0,96,90,0.0,0.0
1437,45.0,0,40,0.0,0.0
1438,57.0,48,40,0.0,0.0
1439,47.0,0,40,0.0,0.0
1440,56.0,0,40,0.0,0.0
1441,48.0,96,90,0.0,0.0
1442,76.0,0,90,0.0,0.0
1443,57.0,96,180,0.0,0.0
1444,74.0,0,90,0.0,0.0
1445,50.0,0,90,0.0,0.0
1446,52.0,0,300,0.0,0.0
1447,72.0,96,90,0.0,0.0
1448,74.0,96,90,0.0,0.0
1449,72.0,48,90,0.0,0.0
1450,53.0,48,40,0.0,0.0
1451,71.0,0,90,0.0,0.0
1452,55.0,0,40,0.0,0.0
1453,69.0,96,180,0.0,0.0
1454,45.0,96,15,0.0,0.0
1455,53.0,0,180,0.0,0.0
1456,47.0,0,90,0.0,0.0
1457,48.0,96,90,0.0,0.0
1458,67.0,96,180,0.0,0.0
1459,50.0,0,90,0.0,0.0
1460,52.0,0,90,0.0,0.0
1461,67.0,48,40,0.0,0.0
1462,53.0,0,90,0.0,0.0
1463,69.0,48,40,0.0,0.0
1464,50.0,0,90,0.0,0.0
1465,71.0,48,40,0.0,0.0
1466,72.0,48,40,0.0,0.0
1467,52.0,0,90,0.0,0.0
1468,48.0,0,300,0.0,0.0
1469,74.0,48,40,0.0,0.0
1470,56.0,48,90,0.0,0.0
1471,76.0,48,40,0.0,0.0
1472,77.0,0,40,0.0,0.0
1473,76.0,48,40,0.0,0.0
1474,57.0,48,390,0.0,0.0
1475,81.0,48,40,0.0,0.0
1476,47.0,0,90,0.0,0.0
1477,79.0,48,40,0.0,0.0
1478,77.0,48,40,0.0,0.0
1479,48.0,48,90,0.0,0.0
1480,76.0,48,40,0.0,0.0
1481,74.0,0,40,0.0,0.0
1482,50.0,0,90,0.0,0.0
1483,72.0,48,40,0.0,0.0
1484,71.0,0,40,0.0,0.0
1485,72.0,48,40,0.0,0.0
1486,57.0,48,90,0.0,0.0
1487,74.0,0,40,0.0,0.0
1488,76.0,48,40,0.0,0.0
1489,55.0,0,40,0.0,0.0
1490,74.0,0,40,0.0,0.0
1491,53.0,96,40,0.0,0.0
1492,72.0,0,180,0.0,0.0
1493,52.0,0,90,0.0,0.0
1494,54.0,96,90,0.0,0.0
1495,50.0,0,90,0.0,0.0
1496,52.0,0,90,0.0,0.0
1497,55.0,96,90,0.0,0.0
1498,54.0,48,90,0.0,0.0
1499,72.0,0,90,0.0,0.0
1500,57.0,0,90,0.0,0.0
1501,70.0,48,40,0.0,0.0
1502,55.0,0,300,0.0,0.0
1503,69.0,48,40,0.0,0.0
1504,67.0,48,40,0.0,0.0
1505,70.0,48,40,0.0,0.0
1506,58.0,0,15,0.0,0.0
1507,74.0,0,180,0.0,0.0
1508,57.0,48,40,0.0,0.0
1509,52.0,48,90,0.0,0.0
1510,55.0,48,40,0.0,0.0
1511,58.0,0,40,0.0,0.0
1512,53.0,0,90,0.0,0.0
1513,57.0,48,40,0.0,0.0
1514,60.0,48,40,0.0,0.0
1515,69.0,0,40,0.0,0.0
1516,58.0,48,40,0.0,0.0
1517,67.0,0,40,0.0,0.0
1518,55.0,48,90,0.0,0.0
1519,65.0,0,40,0.0,0.0
1520,62.0,0,40,0.0,0.0
1521,64.0,48,90,0.0,0.0
1522,60.0,48,40,0.0,0.0
1523,58.0,0,40,0.0,0.0
1524,57.0,0,40,0.0,0.0
1525,65.0,48,40,0.0,0.0
1526,55.0,48,40,0.0,0.0
1527,67.0,0,40,0.0,0.0
1528,60.0,0,40,0.0,0.0
1529,69.0,0,90,0.0,0.0
1530,57.0,48,40,0.0,0.0
1531,58.0,0,40,0.0,0.0
1532,55.0,48,40,0.0,0.0
1533,70.0,0,90,0.0,0.0
1534,57.0,48,40,0.0,0.0
1535,53.0,0,40,0.0,0.0
1536,55.0,0,40,0.0,0.0
1537,53.0,0,15,0.0,0.0
1538,72.0,48,90,0.0,0.0
1539,53.0,48,40,0.0,0.0
1540,57.0,0,40,0.0,0.0
1541,52.0,0,40,0.0,0.0
1542,55.0,0,40,0.0,0.0
1543,53.0,0,40,0.0,0.0
1544,57.0,48,40,0.0,0.0
1545,74.0,96,90,0.0,0.0
1546,58.0,0,40,0.0,0.0
1547,55.0,0,40,0.0,0.0
1548,60.0,0,90,0.0,0.0
1549,57.0,48,90,0.0,0.0
1550,53.0,48,180,0.0,0.0
1551,72.0,0,90,0.0,0.0
1552,70.0,0,90,0.0,0.0
1553,58.0,0,90,0.0,0.0
1554,62.0,48,40,0.0,0.0
1555,64.0,0,40,0.0,0.0
1556,41.0,48,40,0.0,0.0
1557,60.0,0,300,0.0,0.0
1558,69.0,0,90,0.0,0.0
1559,43.0,48,40,0.0,0.0
1560,67.0,48,90,0.0,0.0
1561,45.0,48,40,0.0,0.0
1562,46.0,0,40,0.0,0.0
1563,65.0,0,15,0.0,0.0
1564,45.0,0,90,0.0,0.0
1565,65.0,48,40,0.0,0.0
1566,63.0,48,40,0.0,0.0
1567,41.0,0,90,0.0,0.0
1568,62.0,0,40,0.0,0.0
1569,63.0,0,40,0.0,0.0
1570,60.0,0,40,0.0,0.0
1571,58.0,0,180,0.0,0.0
1572,62.0,48,180,0.0,0.0
1573,46.0,48,40,0.0,0.0
1574,65.0,0,40,0.0,0.0
1575,48.0,48,40,0.0,0.0
1576,64.0,0,40,0.0,0.0
1577,65.0,0,40,0.0,0.0
1578,50.0,48,40,0.0,0.0
1579,67.0,0,40,0.0,0.0
1580,52.0,0,40,0.0,0.0
1581,57.0,48,40,0.0,0.0
1582,69.0,48,180,0.0,0.0
1583,55.0,48,40,0.0,0.0
1584,57.0,48,40,0.0,0.0
1585,58.0,0,40,0.0,0.0
1586,60.0,48,90,0.0,0.0
1587,53.0,0,15,0.0,0.0
1588,69.0,48,40,0.0,0.0
1589,67.0,0,40,0.0,0.0
1590,52.0,0,40,0.0,0.0
1591,69.0,48,40,0.0,0.0
1592,58.0,0,90,0.0,0.0
1593,53.0,0,40,0.0,0.0
1594,70.0,0,40,0.0,0.0
1595,55.0,48,40,0.0,0.0
1596,60.0,48,40,0.0,0.0
1597,57.0,0,40,0.0,0.0
1598,72.0,48,90,0.0,0.0
1599,55.0,0,40,0.0,0.0
1600,58.0,0,40,0.0,0.0
1601,57.0,48,40,0.0,0.0
1602,74.0,0,40,0.0,0.0
1603,53.0,0,40,0.0,0.0
1604,76.0,0,40,0.0,0.0
1605,55.0,96,40,0.0,0.0
1606,52.0,0,40,0.0,0.0
1607,57.0,0,90,0.0,0.0
1608,77.0,48,300,0.0,0.0
1609,55.0,96,90,0.0,0.0
1610,59.0,48,40,0.0,0.0
1611,60.0,0,40,0.0,0.0
1612,57.0,0,90,0.0,0.0
1613,62.0,0,90,0.0,0.0
1614,79.0,48,40,0.0,0.0
1615,50.0,0,90,0.0,0.0
1616,59.0,0,90,0.0,0.0
1617,77.0,0,40,0.0,0.0
1618,48.0,48,40,0.0,0.0
1619,76.0,0,90,0.0,0.0
1620,52.0,0,180,0.0,0.0
1621,50.0,48,40,0.0,0.0
1622,79.0,48,90,0.0,0.0
1623,48.0,48,40,0.0,0.0
1624,46.0,0,40,0.0,0.0
1625,53.0,0,300,0.0,0.0
1626,60.0,0,15,0.0,0.0
1627,45.0,48,40,0.0,0.0
1628,72.0,0,180,0.0,0.0
1629,46.0,48,40,0.0,0.0
1630,62.0,0,40,0.0,0.0
1631,60.0,48,40,0.0,0.0
1632,45.0,0,40,0.0,0.0
1633,58.0,0,40,0.0,0.0
1634,43.0,48,40,0.0,0.0
1635,41.0,48,40,0.0,0.0
1636,57.0,0,90,0.0,0.0
1637,43.0,48,40,0.0,0.0
1638,60.0,0,90,0.0,0.0
1639,45.0,0,40,0.0,0.0
1640,52.0,48,40,0.0,0.0
1641,50.0,48,40,0.0,0.0
1642,46.0,0,40,0.0,0.0
1643,48.0,0,40,0.0,0.0
1644,52.0,48,40,0.0,0.0
1645,53.0,48,40,0.0,0.0
1646,50.0,0,40,0.0,0.0
1647,52.0,0,40,0.0,0.0
1648,55.0,48,40,0.0,0.0
1649,50.0,0,40,0.0,0.0
1650,53.0,48,40,0.0,0.0
1651,55.0,48,40,0.0,0.0
1652,48.0,0,90,0.0,0.0
1653,52.0,0,40,0.0,0.0
1654,53.0,0,40,0.0,0.0
1655,57.0,48,40,0.0,0.0
1656,55.0,48,40,0.0,0.0
1657,48.0,48,180,0.0,0.0
1658,52.0,0,40,0.0,0.0
1659,50.0,96,40,0.0,0.0
1660,53.0,0,40,0.0,0.0
1661,55.0,0,90,0.0,0.0
1662,52.0,0,90,0.0,0.0
1663,57.0,48,90,0.0,0.0
1664,46.0,48,40,0.0,0.0
1665,54.0,0,90,0.0,0.0
1666,45.0,0,40,0.0,0.0
1667,55.0,96,180,0.0,0.0
1668,58.0,48,40,0.0,0.0
1669,60.0,48,40,0.0,0.0
1670,58.0,48,40,0.0,0.0
1671,57.0,0,40,0.0,0.0
1672,58.0,0,90,0.0,0.0
1673,62.0,48,40,0.0,0.0
1674,63.0,48,40,0.0,0.0
1675,60.0,0,40,0.0,0.0
1676,62.0,48,90,0.0,0.0
1677,58.0,48,40,0.0,0.0
1678,57.0,0,40,0.0,0.0
1679,63.0,0,90,0.0,0.0
1680,55.0,48,40,0.0,0.0
1681,57.0,96,40,0.0,0.0
1682,43.0,0,15,0.0,0.0
1683,58.0,0,90,0.0,0.0
1684,65.0,96,90,0.0,0.0
1685,41.0,48,40,0.0,0.0
1686,62.0,48,15,0.0,0.0
1687,40.0,0,40,0.0,0.0
1688,60.0,0,90,0.0,0.0
1689,41.0,96,90,0.0,0.0
1690,63.0,0,90,0.0,0.0
1691,62.0,0,90,0.0,0.0
1692,58.0,48,90,0.0,0.0
1693,43.0,0,90,0.0,0.0
1694,45.0,48,180,0.0,0.0
1695,61.0,48,40,0.0,0.0
1696,59.0,48,40,0.0,0.0
1697,53.0,0,90,0.0,0.0
1698,57.0,0,15,0.0,0.0
1699,59.0,0,40,0.0,0.0
1700,61.0,48,90,0.0,0.0
1701,52.0,48,40,0.0,0.0
1702,50.0,0,40,0.0,0.0
1703,49.0,48,40,0.0,0.0
1704,62.0,0,90,0.0,0.0
1705,47.0,48,40,0.0,0.0
1706,64.0,48,90,0.0,0.0
1707,49.0,48,40,0.0,0.0
1708,45.0,0,40,0.0,0.0
1709,65.0,96,90,0.0,0.0
1710,50.0,48,40,0.0,0.0
1711,47.0,0,40,0.0,0.0
1712,64.0,48,90,0.0,0.0
1713,45.0,0,90,0.0,0.0
1714,49.0,0,90,0.0,0.0
1715,52.0,0,90,0.0,0.0
1716,67.0,0,90,0.0,0.0
1717,43.0,48,40,0.0,0.0
1718,41.0,48,40,0.0,0.0
1719,65.0,0,90,0.0,0.0
1720,50.0,48,90,0.0,0.0
1721,43.0,48,40,0.0,0.0
1722,45.0,0,40,0.0,0.0
1723,46.0,48,40,0.0,0.0
1724,64.0,48,90,0.0,0.0
1725,49.0,0,90,0.0,0.0
1726,45.0,0,40,0.0,0.0
1727,46.0,0,90,0.0,0.0
1728,50.0,48,90,0.0,0.0
1729,62.0,48,40,0.0,0.0
1730,64.0,0,40,0.0,0.0
1731,62.0,48,40,0.0,0.0
1732,45.0,0,90,0.0,0.0
1733,53.0,48,90,0.0,0.0
1734,61.0,0,40,0.0,0.0
1735,58.0,48,40,0.0,0.0
1736,62.0,0,90,0.0,0.0
1737,43.0,0,180,0.0,0.0
1738,57.0,48,40,0.0,0.0
1739,55.0,48,40,0.0,0.0
1740,64.0,0,90,0.0,0.0
1741,58.0,48,40,0.0,0.0
1742,69.0,48,40,0.0,0.0
1743,65.0,0,40,0.0,0.0
1744,57.0,48,180,0.0,0.0
1745,50.0,0,90,0.0,0.0
1746,64.0,48,40,0.0,0.0
1747,67.0,0,40,0.0,0.0
1748,65.0,48,40,0.0,0.0
1749,38.0,0,180,0.0,0.0
1750,64.0,0,40,0.0,0.0
1751,57.0,0,40,0.0,0.0
1752,62.0,48,40,0.0,0.0
1753,53.0,48,40,0.0,0.0
1754,60.0,0,40,0.0,0.0
1755,55.0,0,40,0.0,0.0
1756,58.0,48,40,0.0,0.0
1757,40.0,0,40,0.0,0.0
1758,57.0,0,40,0.0,0.0
1759,41.0,0,40,0.0,0.0
1760,55.0,0,90,0.0,0.0
1761,62.0,0,15,0.0,0.0
1762,43.0,48,40,0.0,0.0
1763,58.0,0,180,0.0,0.0
1764,61.0,0,40,0.0,0.0
1765,40.0,48,40,0.0,0.0
1766,62.0,48,40,0.0,0.0
1767,41.0,0,40,0.0,0.0
1768,43.0,48,40,0.0,0.0
1769,64.0,0,40,0.0,0.0
1770,65.0,48,90,0.0,0.0
1771,50.0,0,15,0.0,0.0
1772,57.0,0,180,0.0,0.0
1773,45.0,48,40,0.0,0.0
1774,46.0,0,40,0.0,0.0
1775,45.0,48,40,0.0,0.0
1776,52.0,0,90,0.0,0.0
1777,67.0,0,90,0.0,0.0
1778,43.0,48,40,0.0,0.0
1779,57.0,48,40,0.0,0.0
1780,69.0,48,300,0.0,0.0
1781,53.0,0,90,0.0,0.0
1782,55.0,48,40,0.0,0.0
1783,50.0,0,90,0.0,0.0
1784,53.0,48,40,0.0,0.0
1785,52.0,48,40,0.0,0.0
1786,57.0,48,180,0.0,0.0
1787,41.0,0,15,0.0,0.0
1788,50.0,0,180,0.0,0.0
1789,43.0,0,40,0.0,0.0
1790,70.0,48,40,0.0,0.0
1791,41.0,0,40,0.0,0.0
1792,40.0,0,40,0.0,0.0
1793,72.0,0,40,0.0,0.0
1794,38.0,48,40,0.0,0.0
1795,50.0,0,90,0.0,0.0
1796,70.0,0,180,0.0,0.0
1797,40.0,48,40,0.0,0.0
1798,38.0,48,40,0.0,0.0
1799,55.0,48,90,0.0,0.0
1800,37.0,0,40,0.0,0.0
1801,38.0,48,40,0.0,0.0
1802,53.0,0,90,0.0,0.0
1803,40.0,0,40,0.0,0.0
1804,70.0,48,40,0.0,0.0
1805,69.0,48,40,0.0,0.0
1806,50.0,48,90,0.0,0.0
1807,41.0,0,40,0.0,0.0
1808,67.0,0,40,0.0,0.0
1809,43.0,0,40,0.0,0.0
1810,49.0,0,150,0.0,0.0
1811,45.0,0,180,0.0,0.0
1812,65.0,48,40,0.0,0.0
1813,62.0,48,40,0.0,0.0
1814,67.0,0,90,0.0,0.0
1815,64.0,24,40,0.0,0.0
1816,50.0,24,20,0.0,0.0
1817,61.0,0,40,0.0,0.0
1818,52.0,48,20,0.0,0.0
1819,62.0,0,300,0.0,0.0
1820,65.0,0,300,0.0,0.0
1821,45.0,48,40,0.0,0.0
1822,53.0,0,40,0.0,0.0
1823,46.0,0,40,0.0,0.0
1824,55.0,48,40,0.0,0.0
1825,53.0,48,40,0.0,0.0
1826,45.0,0,40,0.0,0.0
1827,43.0,48,40,0.0,0.0
1828,52.0,0,40,0.0,0.0
1829,45.0,48,40,0.0,0.0
1830,53.0,0,40,0.0,0.0
1831,55.0,48,40,0.0,0.0
1832,46.0,0,40,0.0,0.0
1833,64.0,0,90,0.0,0.0
1834,60.0,0,90,0.0,0.0
1835,57.0,0,180,0.0,0.0
1836,48.0,48,40,0.0,0.0
1837,50.0,48,40,0.0,0.0
1838,65.0,48,90,0.0,0.0
1839,62.0,0,90,0.0,0.0
1840,48.0,48,40,0.0,0.0
1841,46.0,0,40,0.0,0.0
1842,64.0,0,90,0.0,0.0
1843,67.0,48,90,0.0,0.0
1844,58.0,0,90,0.0,0.0
1845,45.0,48,40,0.0,0.0
1846,43.0,0,40,0.0,0.0
1847,57.0,0,90,0.0,0.0
1848,69.0,0,180,0.0,0.0
1849,41.0,0,40,0.0,0.0
1850,65.0,48,40,0.0,0.0
1851,64.0,48,40,0.0,0.0
1852,43.0,0,40,0.0,0.0
1853,62.0,0,90,0.0,0.0
1854,41.0,48,40,0.0,0.0
1855,40.0,48,40,0.0,0.0
1856,57.0,0,40,0.0,0.0
1857,41.0,48,40,0.0,0.0
1858,69.0,0,40,0.0,0.0
1859,55.0,48,40,0.0,0.0
1860,70.0,0,40,0.0,0.0
1861,43.0,0,40,0.0,0.0
1862,53.0,0,150,0.0,0.0
1863,69.0,0,15,0.0,0.0
1864,45.0,0,40,0.0,0.0
1865,46.0,48,40,0.0,0.0
1866,67.0,0,40,0.0,0.0
1867,45.0,48,40,0.0,0.0
1868,65.0,0,90,0.0,0.0
1869,52.0,48,40,0.0,0.0
1870,43.0,0,40,0.0,0.0
1871,41.0,0,40,0.0,0.0
1872,69.0,0,90,0.0,0.0
1873,50.0,48,40,0.0,0.0
1874,45.0,0,40,0.0,0.0
1875,53.0,0,40,0.0,0.0
1876,57.0,48,15,0.0,0.0
1877,48.0,48,40,0.0,0.0
1878,50.0,0,40,0.0,0.0
1879,52.0,48,40,0.0,0.0
1880,48.0,0,40,0.0,0.0
1881,50.0,0,40,0.0,0.0
1882,47.0,0,40,0.0,0.0
1883,48.0,0,90,0.0,0.0
1884,64.0,48,15,0.0,0.0
1885,52.0,0,90,0.0,0.0
1886,65.0,48,40,0.0,0.0
1887,45.0,0,90,0.0,0.0
1888,60.0,0,40,0.0,0.0
1889,64.0,48,40,0.0,0.0
1890,59.0,48,40,0.0,0.0
1891,62.0,0,40,0.0,0.0
1892,64.0,48,90,0.0,0.0
1893,48.0,0,90,0.0,0.0
1894,57.0,48,40,0.0,0.0
1895,59.0,0,40,0.0,0.0
1896,60.0,48,40,0.0,0.0
1897,45.0,0,90,0.0,0.0
1898,57.0,48,90,0.0,0.0
1899,65.0,0,90,0.0,0.0
1900,62.0,0,40,0.0,0.0
1901,40.0,48,40,0.0,0.0
1902,55.0,0,90,0.0,0.0
1903,64.0,0,40,0.0,0.0
1904,62.0,48,40,0.0,0.0
1905,41.0,0,40,0.0,0.0
1906,58.0,0,90,0.0,0.0
1907,40.0,48,40,0.0,0.0
1908,61.0,48,180,0.0,0.0
1909,38.0,0,40,0.0,0.0
1910,67.0,48,15,0.0,0.0
1911,40.0,48,40,0.0,0.0
1912,55.0,0,90,0.0,0.0
1913,69.0,0,40,0.0,0.0
1914,41.0,0,40,0.0,0.0
1915,67.0,48,40,0.0,0.0
1916,43.0,0,150,0.0,0.0
1917,52.0,48,150,0.0,0.0
1918,64.0,48,90,0.0,0.0
1919,65.0,0,40,0.0,0.0
1920,64.0,0,90,0.0,0.0
1921,60.0,0,90,0.0,0.0
1922,42.0,0,40,0.0,0.0
1923,50.0,48,40,0.0,0.0
1924,43.0,48,40,0.0,0.0
1925,67.0,0,90,0.0,0.0
1926,52.0,0,40,0.0,0.0
1927,45.0,0,40,0.0,0.0
1928,54.0,0,40,0.0,0.0
1929,46.0,0,40,0.0,0.0
1930,55.0,48,15,0.0,0.0
1931,62.0,0,180,0.0,0.0
1932,48.0,0,40,0.0,0.0
1933,57.0,0,40,0.0,0.0
1934,46.0,48,40,0.0,0.0
1935,55.0,48,15,0.0,0.0
1936,50.0,0,90,0.0,0.0
1937,53.0,0,40,0.0,0.0
1938,45.0,48,40,0.0,0.0
1939,52.0,0,90,0.0,0.0
1940,46.0,48,40,0.0,0.0
1941,62.0,0,40,0.0,0.0
1942,64.0,48,40,0.0,0.0
1943,43.0,0,40,0.0,0.0
1944,58.0,0,180,0.0,0.0
1945,62.0,48,40,0.0,0.0
1946,55.0,48,150,0.0,0.0
1947,61.0,48,40,0.0,0.0
1948,62.0,0,90,0.0,0.0
1949,53.0,48,40,0.0,0.0
1950,67.0,0,90,0.0,0.0
1951,58.0,0,90,0.0,0.0
1952,52.0,24,40,0.0,0.0
1953,50.0,24,20,0.0,0.0
1954,49.0,48,20,0.0,0.0
1955,65.0,0,300,0.0,0.0
1956,57.0,48,40,0.0,0.0
1957,55.0,48,40,0.0,0.0
1958,53.0,48,40,0.0,0.0
1959,52.0,0,40,0.0,0.0
1960,50.0,48,300,0.0,0.0
1961,57.0,48,40,0.0,0.0
1962,60.0,48,40,0.0,0.0
1963,67.0,48,40,0.0,0.0
1964,58.0,0,40,0.0,0.0
1965,57.0,0,40,0.0,0.0
1966,69.0,48,40,0.0,0.0
1967,55.0,48,40,0.0,0.0
1968,70.0,0,40,0.0,0.0
1969,74.0,0,40,0.0,0.0
1970,58.0,0,40,0.0,0.0
1971,57.0,48,40,0.0,0.0
1972,72.0,0,40,0.0,0.0
1973,52.0,0,90,0.0,0.0
1974,55.0,0,40,0.0,0.0
1975,70.0,0,40,0.0,0.0
1976,62.0,0,90,0.0,0.0
1977,53.0,48,90,0.0,0.0
1978,50.0,48,15,0.0,0.0
1979,69.0,48,40,0.0,0.0
1980,70.0,0,40,0.0,0.0
1981,55.0,0,90,0.0,0.0
1982,69.0,48,40,0.0,0.0
1983,67.0,48,40,0.0,0.0
1984,69.0,48,40,0.0,0.0
1985,57.0,0,300,0.0,0.0
1986,67.0,48,40,0.0,0.0
1987,65.0,48,40,0.0,0.0
1988,64.0,48,40,0.0,0.0
1989,65.0,48,40,0.0,0.0
1990,62.0,0,180,0.0,0.0
1991,67.0,48,40,0.0,0.0
1992,58.0,0,40,0.0,0.0
1993,65.0,48,40,0.0,0.0
1994,60.0,0,40,0.0,0.0
1995,64.0,48,40,0.0,0.0
1996,58.0,0,180,0.0,0.0
1997,50.0,0,570,0.0,0.0
1998,62.0,48,40,0.0,0.0
1999,61.0,48,40,0.0,0.0
2000,62.0,48,40,0.0,0.0
2001,64.0,48,40,0.0,0.0
2002,81.0,48,40,0.0,0.0
2003,57.0,0,300,0.0,0.0
2004,79.0,48,40,0.0,0.0
2005,77.0,48,40,0.0,0.0
2006,76.0,0,40,0.0,0.0
2007,65.0,48,15,0.0,0.0
2008,67.0,48,40,0.0,0.0
2009,69.0,48,40,0.0,0.0
2010,55.0,0,90,0.0,0.0
2011,70.0,48,40,0.0,0.0
2012,53.0,0,90,0.0,0.0
2013,74.0,0,15,0.0,0.0
2014,50.0,0,570,0.0,0.0
2015,69.0,48,40,0.0,0.0
2016,62.0,48,40,0.0,0.0
2017,76.0,0,90,0.0,0.0
2018,60.0,48,40,0.0,0.0
2019,55.0,48,90,0.0,0.0
2020,58.0,0,40,0.0,0.0
2021,77.0,48,90,0.0,0.0
2022,57.0,48,40,0.0,0.0
2023,53.0,0,90,0.0,0.0
2024,55.0,0,40,0.0,0.0
2025,52.0,48,90,0.0,0.0
2026,57.0,48,40,0.0,0.0
2027,79.0,0,90,0.0,0.0
2028,58.0,0,40,0.0,0.0
2029,77.0,48,40,0.0,0.0
2030,53.0,0,90,0.0,0.0
2031,57.0,0,90,0.0,0.0
2032,74.0,48,40,0.0,0.0
2033,64.0,0,90,0.0,0.0
2034,55.0,0,90,0.0,0.0
2035,72.0,48,40,0.0,0.0
2036,70.0,96,40,0.0,0.0
2037,57.0,0,90,0.0,0.0
2038,65.0,0,90,0.0,0.0
2039,50.0,48,90,0.0,0.0
2040,69.0,48,570,0.0,0.0
2041,52.0,48,40,0.0,0.0
2042,61.0,48,150,0.0,0.0
2043,53.0,48,40,0.0,0.0
2044,52.0,0,40,0.0,0.0
2045,55.0,0,90,0.0,0.0
2046,50.0,0,40,0.0,0.0
2047,62.0,48,40,0.0,0.0
2048,49.0,48,40,0.0,0.0
2049,64.0,0,40,0.0,0.0
2050,62.0,0,40,0.0,0.0
2051,47.0,48,40,0.0,0.0
2052,61.0,48,40,0.0,0.0
2053,53.0,0,40,0.0,0.0
2054,59.0,48,40,0.0,0.0
2055,61.0,48,40,0.0,0.0
2056,52.0,0,40,0.0,0.0
2057,62.0,0,40,0.0,0.0
2058,50.0,0,40,0.0,0.0
2059,64.0,48,40,0.0,0.0
2060,45.0,0,15,0.0,0.0
2061,49.0,0,90,0.0,0.0
2062,69.0,48,40,0.0,0.0
2063,50.0,0,90,0.0,0.0
2064,47.0,0,90,0.0,0.0
2065,67.0,48,40,0.0,0.0
2066,65.0,48,40,0.0,0.0
2067,52.0,0,90,0.0,0.0
2068,49.0,0,90,0.0,0.0
2069,64.0,48,40,0.0,0.0
2070,62.0,48,40,0.0,0.0
2071,53.0,48,90,0.0,0.0
2072,61.0,48,40,0.0,0.0
2073,50.0,0,90,0.0,0.0
2074,59.0,0,40,0.0,0.0
2075,61.0,0,40,0.0,0.0
2076,52.0,48,40,0.0,0.0
2077,50.0,48,40,0.0,0.0
2078,62.0,0,40,0.0,0.0
2079,49.0,48,90,0.0,0.0
2080,64.0,24,40,0.0,0.0
2081,66.0,24,20,0.0,0.0
2082,67.0,0,20,0.0,0.0
2083,55.0,0,15,0.0,0.0
2084,69.0,0,15,0.0,0.0
2085,66.0,0,40,0.0,0.0
2086,50.0,0,570,0.0,0.0
2087,64.0,48,40,0.0,0.0
2088,55.0,48,15,0.0,0.0
2089,62.0,0,90,0.0,0.0
2090,54.0,48,40,0.0,0.0
2091,52.0,48,40,0.0,0.0
2092,69.0,0,15,0.0,0.0
2093,54.0,0,390,0.0,0.0
2094,74.0,24,20,0.0,0.0
2095,76.0,24,20,0.0,0.0
2096,78.0,24,20,0.0,0.0
2097,76.0,48,20,0.0,0.0
2098,74.0,192,40,0.0,0.0
2099,81.0,0,180,0.0,0.0
