,note,step,duration,channel,velocity
0,51.0,15,15,2.0,0.0
1,50.0,60,15,2.0,0.0
2,51.0,30,90,2.0,0.0
3,55.0,0,30,1.0,0.0
4,63.0,30,30,0.0,0.0
5,62.0,0,30,0.0,0.0
6,53.0,0,30,1.0,0.0
7,63.0,30,30,0.0,0.0
8,55.0,30,60,1.0,0.0
9,39.0,0,120,2.0,0.0
10,65.0,30,30,0.0,0.0
11,56.0,15,60,1.0,0.0
12,67.0,15,15,0.0,0.0
13,58.0,30,30,1.0,0.0
14,65.0,0,15,0.0,0.0
15,67.0,0,30,1.0,0.0
16,51.0,30,30,2.0,0.0
17,67.0,0,90,0.0,0.0
18,65.0,30,30,1.0,0.0
19,50.0,0,30,2.0,0.0
20,51.0,30,30,2.0,0.0
21,67.0,0,30,1.0,0.0
22,68.0,1,120,0.0,0.0
23,63.0,0,30,1.0,0.0
24,48.0,30,30,2.0,0.0
25,65.0,30,30,1.0,0.0
26,50.0,0,30,2.0,0.0
27,62.0,29,30,1.0,0.0
28,46.0,0,30,2.0,0.0
29,48.0,30,30,2.0,0.0
30,63.0,0,30,1.0,0.0
31,60.0,0,30,1.0,0.0
32,44.0,30,30,2.0,0.0
33,63.0,0,30,1.0,0.0
34,48.0,30,30,2.0,0.0
35,62.0,30,30,1.0,0.0
36,46.0,0,30,2.0,0.0
37,65.0,0,30,0.0,0.0
38,63.0,0,30,0.0,0.0
39,63.0,0,30,1.0,0.0
40,48.0,30,30,2.0,0.0
41,65.0,0,30,0.0,0.0
42,60.0,0,30,1.0,0.0
43,44.0,30,30,2.0,0.0
44,62.0,0,30,1.0,0.0
45,46.0,30,30,2.0,0.0
46,67.0,30,30,0.0,0.0
47,58.0,0,30,1.0,0.0
48,43.0,0,30,2.0,0.0
49,44.0,0,30,2.0,0.0
50,60.0,15,30,1.0,0.0
51,41.0,0,30,2.0,0.0
52,56.0,30,30,1.0,0.0
53,68.0,15,15,0.0,0.0
54,67.0,0,15,0.0,0.0
55,68.0,0,90,0.0,0.0
56,51.0,30,30,2.0,0.0
57,67.0,0,30,1.0,0.0
58,65.0,30,30,1.0,0.0
59,50.0,0,30,2.0,0.0
60,63.0,0,30,1.0,0.0
61,48.0,30,30,2.0,0.0
62,65.0,30,30,1.0,0.0
63,70.0,0,120,0.0,0.0
64,50.0,0,30,2.0,0.0
65,51.0,30,30,2.0,0.0
66,67.0,0,30,1.0,0.0
67,63.0,0,30,1.0,0.0
68,48.0,30,30,2.0,0.0
69,65.0,0,30,1.0,0.0
70,50.0,30,30,2.0,0.0
71,63.0,0,30,1.0,0.0
72,39.0,30,30,2.0,0.0
73,67.0,0,60,0.0,0.0
74,67.0,30,30,1.0,0.0
75,51.0,0,30,2.0,0.0
76,72.0,0,60,0.0,0.0
77,50.0,0,30,2.0,0.0
78,65.0,30,30,1.0,0.0
79,48.0,15,30,2.0,0.0
80,63.0,0,30,1.0,0.0
81,65.0,0,30,1.0,0.0
82,70.0,15,15,0.0,0.0
83,50.0,0,30,2.0,0.0
84,72.0,30,15,0.0,0.0
85,67.0,0,30,1.0,0.0
86,51.0,0,30,2.0,0.0
87,70.0,30,30,0.0,0.0
88,48.0,30,30,2.0,0.0
89,63.0,0,30,1.0,0.0
90,68.0,0,60,0.0,0.0
91,50.0,30,30,2.0,0.0
92,65.0,30,120,1.0,0.0
93,67.0,0,30,0.0,0.0
94,46.0,30,30,2.0,0.0
95,68.0,0,30,0.0,0.0
96,51.0,30,30,2.0,0.0
97,70.0,0,30,0.0,0.0
98,50.0,0,30,2.0,0.0
99,48.0,0,30,2.0,0.0
100,63.0,30,30,1.0,0.0
101,68.0,0,30,0.0,0.0
102,62.0,0,30,1.0,0.0
103,46.0,30,30,2.0,0.0
104,67.0,29,60,0.0,0.0
105,48.0,0,30,2.0,0.0
106,63.0,1,30,1.0,0.0
107,44.0,0,30,2.0,0.0
108,60.0,30,30,1.0,0.0
109,65.0,30,60,0.0,0.0
110,46.0,0,30,2.0,0.0
111,62.0,0,30,1.0,0.0
112,43.0,30,30,2.0,0.0
113,58.0,0,30,1.0,0.0
114,63.0,0,60,0.0,0.0
115,48.0,30,30,2.0,0.0
116,56.0,0,30,1.0,0.0
117,55.0,0,30,1.0,0.0
118,67.0,0,60,0.0,0.0
119,46.0,30,30,2.0,0.0
120,44.0,0,30,2.0,0.0
121,53.0,30,30,1.0,0.0
122,70.0,0,60,0.0,0.0
123,51.0,0,30,1.0,0.0
124,43.0,30,30,2.0,0.0
125,44.0,0,30,2.0,0.0
126,53.0,30,30,1.0,0.0
127,50.0,30,30,1.0,0.0
128,41.0,0,30,2.0,0.0
129,75.0,0,90,0.0,0.0
130,43.0,30,30,2.0,0.0
131,51.0,0,30,1.0,0.0
132,36.0,30,30,2.0,0.0
133,55.0,0,60,1.0,0.0
134,46.0,30,30,2.0,0.0
135,72.0,0,30,0.0,0.0
136,74.0,30,30,0.0,0.0
137,53.0,30,120,1.0,0.0
138,45.0,0,30,2.0,0.0
139,43.0,30,30,2.0,0.0
140,75.0,0,30,0.0,0.0
141,45.0,30,30,2.0,0.0
142,77.0,0,60,0.0,0.0
143,46.0,0,30,2.0,0.0
144,75.0,0,60,0.0,0.0
145,65.0,0,210,1.0,0.0
146,43.0,30,30,2.0,0.0
147,45.0,30,30,2.0,0.0
148,74.0,30,30,0.0,0.0
149,46.0,0,60,2.0,0.0
150,75.0,30,30,0.0,0.0
151,46.0,30,30,2.0,0.0
152,74.0,0,30,0.0,0.0
153,72.0,0,30,0.0,0.0
154,45.0,30,30,2.0,0.0
155,74.0,0,30,0.0,0.0
156,46.0,30,30,2.0,0.0
157,67.0,30,30,1.0,0.0
158,75.0,0,30,0.0,0.0
159,48.0,0,30,2.0,0.0
160,72.0,30,30,0.0,0.0
161,63.0,0,30,1.0,0.0
162,65.0,15,30,1.0,0.0
163,74.0,0,30,0.0,0.0
164,62.0,30,60,1.0,0.0
165,70.0,30,30,0.0,0.0
166,50.0,15,15,2.0,0.0
167,49.0,0,15,2.0,0.0
168,50.0,0,90,2.0,0.0
169,82.0,0,30,0.0,0.0
170,81.0,0,30,0.0,0.0
171,60.0,30,30,1.0,0.0
172,82.0,0,30,0.0,0.0
173,62.0,30,30,1.0,0.0
174,51.0,30,120,2.0,0.0
175,58.0,0,30,1.0,0.0
176,79.0,30,30,0.0,0.0
177,60.0,30,30,1.0,0.0
178,81.0,0,30,0.0,0.0
179,57.0,30,30,1.0,0.0
180,77.0,0,30,0.0,0.0
181,79.0,0,30,0.0,0.0
182,58.0,0,30,1.0,0.0
183,55.0,30,60,1.0,0.0
184,75.0,30,30,0.0,0.0
185,79.0,0,30,0.0,0.0
186,48.0,0,30,2.0,0.0
187,77.0,30,30,0.0,0.0
188,67.0,0,90,1.0,0.0
189,46.0,30,30,2.0,0.0
190,79.0,0,30,0.0,0.0
191,75.0,0,30,0.0,0.0
192,48.0,30,30,2.0,0.0
193,77.0,30,30,0.0,0.0
194,69.0,0,30,1.0,0.0
195,50.0,30,30,2.0,0.0
196,65.0,0,30,1.0,0.0
197,74.0,0,30,0.0,0.0
198,67.0,30,90,1.0,0.0
199,75.0,15,30,0.0,0.0
200,72.0,30,30,0.0,0.0
201,51.0,15,15,2.0,0.0
202,50.0,0,15,2.0,0.0
203,51.0,0,90,2.0,0.0
204,82.0,0,30,0.0,0.0
205,81.0,30,30,0.0,0.0
206,60.0,0,90,1.0,0.0
207,79.0,30,30,0.0,0.0
208,81.0,30,30,0.0,0.0
209,53.0,30,120,2.0,0.0
210,82.0,0,30,0.0,0.0
211,62.0,30,30,1.0,0.0
212,79.0,30,30,0.0,0.0
213,63.0,0,60,1.0,0.0
214,81.0,0,30,0.0,0.0
215,65.0,0,90,1.0,0.0
216,70.0,30,30,0.0,0.0
217,50.0,0,60,2.0,0.0
218,82.0,30,30,0.0,0.0
219,81.0,30,30,0.0,0.0
220,55.0,15,60,2.0,0.0
221,79.0,0,30,0.0,0.0
222,63.0,0,30,1.0,0.0
223,53.0,15,15,2.0,0.0
224,62.0,30,90,1.0,0.0
225,81.0,0,30,0.0,0.0
226,55.0,30,15,2.0,0.0
227,82.0,0,30,0.0,0.0
228,53.0,30,30,2.0,0.0
229,79.0,0,30,0.0,0.0
230,51.0,30,60,2.0,0.0
231,60.0,30,90,1.0,0.0
232,81.0,0,30,0.0,0.0
233,50.0,30,30,2.0,0.0
234,77.0,0,30,0.0,0.0
235,51.0,0,30,2.0,0.0
236,82.0,0,30,0.0,0.0
237,80.0,0,30,0.0,0.0
238,58.0,30,120,1.0,0.0
239,53.0,30,30,2.0,0.0
240,79.0,0,30,0.0,0.0
241,51.0,30,30,2.0,0.0
242,50.0,0,60,2.0,0.0
243,77.0,30,30,0.0,0.0
244,79.0,0,30,0.0,0.0
245,48.0,0,60,2.0,0.0
246,75.0,30,30,0.0,0.0
247,63.0,30,60,1.0,0.0
248,77.0,0,30,0.0,0.0
249,46.0,0,60,2.0,0.0
250,74.0,30,30,0.0,0.0
251,65.0,30,60,1.0,0.0
252,79.0,0,30,0.0,0.0
253,58.0,30,60,1.0,0.0
254,50.0,0,60,2.0,0.0
255,77.0,30,30,0.0,0.0
256,75.0,0,30,0.0,0.0
257,53.0,0,60,2.0,0.0
258,74.0,30,30,0.0,0.0
259,68.0,30,60,1.0,0.0
260,75.0,0,30,0.0,0.0
261,56.0,0,90,2.0,0.0
262,72.0,30,30,0.0,0.0
263,63.0,0,60,1.0,0.0
264,74.0,30,30,0.0,0.0
265,62.0,30,60,1.0,0.0
266,65.0,30,30,0.0,0.0
267,53.0,0,30,2.0,0.0
268,75.0,0,30,0.0,0.0
269,74.0,30,30,0.0,0.0
270,55.0,0,30,2.0,0.0
271,58.0,30,60,1.0,0.0
272,56.0,0,30,2.0,0.0
273,72.0,0,30,0.0,0.0
274,65.0,30,120,1.0,0.0
275,74.0,30,30,0.0,0.0
276,58.0,0,60,2.0,0.0
277,75.0,30,30,0.0,0.0
278,56.0,0,60,2.0,0.0
279,72.0,30,30,0.0,0.0
280,74.0,0,30,0.0,0.0
281,75.0,30,60,0.0,0.0
282,63.0,6,150,1.0,0.0
283,55.0,30,30,2.0,0.0
284,56.0,0,30,2.0,0.0
285,55.0,0,30,2.0,0.0
286,70.0,30,30,0.0,0.0
287,68.0,0,30,0.0,0.0
288,53.0,24,30,2.0,0.0
289,70.0,0,30,0.0,0.0
290,55.0,30,30,2.0,0.0
291,56.0,30,30,2.0,0.0
292,65.0,0,30,1.0,0.0
293,61.0,30,30,1.0,0.0
294,53.0,0,30,2.0,0.0
295,72.0,0,30,0.0,0.0
296,55.0,15,30,2.0,0.0
297,63.0,0,30,1.0,0.0
298,55.0,30,30,1.0,0.0
299,73.0,15,15,0.0,0.0
300,72.0,0,15,0.0,0.0
301,73.0,0,90,0.0,0.0
302,51.0,0,15,2.0,0.0
303,67.0,30,30,1.0,0.0
304,49.0,30,30,2.0,0.0
305,65.0,0,30,1.0,0.0
306,51.0,0,30,2.0,0.0
307,67.0,30,30,1.0,0.0
308,48.0,30,30,2.0,0.0
309,75.0,30,120,0.0,0.0
310,63.0,0,30,1.0,0.0
311,65.0,0,30,1.0,0.0
312,49.0,30,30,2.0,0.0
313,61.0,0,30,1.0,0.0
314,46.0,30,30,2.0,0.0
315,63.0,0,30,1.0,0.0
316,48.0,0,30,2.0,0.0
317,44.0,0,30,2.0,0.0
318,60.0,30,30,1.0,0.0
319,46.0,30,30,2.0,0.0
320,61.0,0,30,1.0,0.0
321,72.0,30,30,0.0,0.0
322,60.0,30,90,1.0,0.0
323,44.0,0,30,2.0,0.0
324,70.0,0,30,0.0,0.0
325,43.0,30,30,2.0,0.0
326,72.0,0,30,0.0,0.0
327,44.0,0,30,2.0,0.0
328,46.0,0,30,2.0,0.0
329,62.0,30,30,1.0,0.0
330,43.0,30,30,2.0,0.0
331,58.0,0,30,1.0,0.0
332,74.0,0,30,0.0,0.0
333,44.0,15,30,2.0,0.0
334,60.0,0,30,1.0,0.0
335,75.0,15,15,0.0,0.0
336,41.0,0,30,2.0,0.0
337,56.0,0,30,1.0,0.0
338,74.0,30,15,0.0,0.0
339,58.0,0,30,1.0,0.0
340,75.0,0,90,0.0,0.0
341,53.0,30,30,2.0,0.0
342,55.0,30,30,1.0,0.0
343,51.0,0,30,2.0,0.0
344,56.0,30,30,1.0,0.0
345,53.0,0,30,2.0,0.0
346,77.0,0,120,0.0,0.0
347,50.0,0,30,2.0,0.0
348,53.0,30,30,1.0,0.0
349,51.0,0,30,2.0,0.0
350,55.0,30,30,1.0,0.0
351,48.0,0,30,2.0,0.0
352,51.0,30,30,1.0,0.0
353,53.0,30,30,1.0,0.0
354,50.0,0,30,2.0,0.0
355,46.0,30,30,2.0,0.0
356,50.0,30,60,1.0,0.0
357,48.0,0,30,2.0,0.0
358,74.0,0,30,0.0,0.0
359,46.0,30,30,2.0,0.0
360,65.0,0,90,1.0,0.0
361,72.0,30,30,0.0,0.0
362,45.0,0,30,2.0,0.0
363,46.0,30,30,2.0,0.0
364,74.0,0,30,0.0,0.0
365,48.0,30,30,2.0,0.0
366,68.0,0,30,1.0,0.0
367,75.0,0,30,0.0,0.0
368,44.0,30,30,2.0,0.0
369,65.0,0,30,1.0,0.0
370,46.0,0,30,2.0,0.0
371,67.0,15,30,1.0,0.0
372,77.0,15,15,0.0,0.0
373,43.0,0,30,2.0,0.0
374,63.0,0,30,1.0,0.0
375,75.0,30,15,0.0,0.0
376,65.0,30,30,1.0,0.0
377,44.0,0,30,2.0,0.0
378,77.0,0,90,0.0,0.0
379,62.0,30,30,1.0,0.0
380,41.0,0,30,2.0,0.0
381,43.0,0,30,2.0,0.0
382,63.0,30,30,1.0,0.0
383,60.0,30,30,1.0,0.0
384,79.0,30,120,0.0,0.0
385,39.0,0,30,2.0,0.0
386,41.0,0,30,2.0,0.0
387,62.0,30,30,1.0,0.0
388,59.0,0,30,1.0,0.0
389,38.0,30,30,2.0,0.0
390,39.0,0,30,2.0,0.0
391,60.0,0,15,1.0,0.0
392,36.0,30,60,2.0,0.0
393,75.0,30,30,0.0,0.0
394,77.0,0,30,0.0,0.0
395,67.0,30,90,1.0,0.0
396,48.0,0,30,2.0,0.0
397,75.0,30,30,0.0,0.0
398,74.0,30,30,0.0,0.0
399,47.0,0,30,2.0,0.0
400,75.0,0,30,0.0,0.0
401,48.0,0,30,2.0,0.0
402,77.0,30,30,0.0,0.0
403,68.0,0,30,1.0,0.0
404,74.0,0,30,0.0,0.0
405,65.0,0,30,1.0,0.0
406,50.0,30,30,2.0,0.0
407,67.0,0,150,1.0,0.0
408,75.0,15,30,0.0,0.0
409,51.0,15,15,2.0,0.0
410,72.0,0,30,0.0,0.0
411,50.0,30,15,2.0,0.0
412,84.0,30,30,0.0,0.0
413,51.0,0,90,2.0,0.0
414,82.0,30,30,0.0,0.0
415,84.0,30,30,0.0,0.0
416,53.0,30,120,2.0,0.0
417,60.0,0,120,1.0,0.0
418,80.0,30,30,0.0,0.0
419,82.0,30,30,0.0,0.0
420,79.0,30,30,0.0,0.0
421,80.0,0,30,0.0,0.0
422,77.0,30,30,0.0,0.0
423,62.0,0,60,1.0,0.0
424,80.0,30,30,0.0,0.0
425,50.0,0,30,2.0,0.0
426,63.0,0,60,1.0,0.0
427,79.0,30,30,0.0,0.0
428,48.0,30,30,2.0,0.0
429,80.0,0,30,0.0,0.0
430,62.0,0,30,1.0,0.0
431,50.0,30,30,2.0,0.0
432,77.0,0,30,0.0,0.0
433,63.0,0,30,1.0,0.0
434,79.0,30,30,0.0,0.0
435,51.0,0,30,2.0,0.0
436,60.0,30,30,1.0,0.0
437,75.0,0,30,0.0,0.0
438,77.0,15,30,0.0,0.0
439,62.0,30,180,1.0,0.0
440,74.0,30,30,0.0,0.0
441,53.0,15,15,2.0,0.0
442,52.0,0,15,2.0,0.0
443,53.0,30,90,2.0,0.0
444,84.0,30,30,0.0,0.0
445,83.0,30,30,0.0,0.0
446,81.0,0,30,0.0,0.0
447,83.0,0,30,0.0,0.0
448,55.0,0,120,2.0,0.0
449,84.0,30,30,0.0,0.0
450,63.0,0,30,1.0,0.0
451,60.0,0,30,1.0,0.0
452,81.0,30,30,0.0,0.0
453,62.0,0,30,1.0,0.0
454,83.0,30,30,0.0,0.0
455,72.0,30,30,0.0,0.0
456,51.0,0,60,2.0,0.0
457,84.0,0,30,0.0,0.0
458,56.0,15,60,2.0,0.0
459,60.0,15,15,1.0,0.0
460,82.0,0,30,0.0,0.0
461,58.0,30,15,1.0,0.0
462,60.0,0,90,1.0,0.0
463,80.0,0,30,0.0,0.0
464,82.0,0,30,0.0,0.0
465,55.0,15,15,2.0,0.0
466,56.0,30,15,2.0,0.0
467,84.0,30,30,0.0,0.0
468,55.0,0,30,2.0,0.0
469,60.0,0,120,1.0,0.0
470,80.0,30,30,0.0,0.0
471,53.0,30,60,2.0,0.0
472,82.0,0,30,0.0,0.0
473,79.0,0,30,0.0,0.0
474,52.0,30,30,2.0,0.0
475,84.0,30,30,0.0,0.0
476,53.0,0,30,2.0,0.0
477,82.0,0,30,0.0,0.0
478,55.0,30,30,2.0,0.0
479,72.0,0,120,1.0,0.0
480,53.0,0,30,2.0,0.0
481,80.0,30,30,0.0,0.0
482,79.0,30,30,0.0,0.0
483,52.0,0,60,2.0,0.0
484,80.0,30,30,0.0,0.0
485,60.0,0,60,1.0,0.0
486,50.0,0,60,2.0,0.0
487,77.0,30,30,0.0,0.0
488,79.0,30,30,0.0,0.0
489,76.0,30,30,0.0,0.0
490,67.0,0,60,1.0,0.0
491,48.0,15,60,2.0,0.0
492,80.0,0,30,0.0,0.0
493,52.0,30,60,2.0,0.0
494,79.0,0,30,0.0,0.0
495,60.0,15,15,1.0,0.0
496,58.0,30,15,1.0,0.0
497,77.0,0,30,0.0,0.0
498,60.0,0,90,1.0,0.0
499,76.0,30,30,0.0,0.0
500,55.0,30,60,2.0,0.0
501,77.0,0,30,0.0,0.0
502,67.0,0,60,1.0,0.0
503,74.0,30,30,0.0,0.0
504,58.0,0,90,2.0,0.0
505,76.0,30,30,0.0,0.0
506,67.0,30,30,0.0,0.0
507,72.0,0,60,1.0,0.0
508,55.0,30,30,2.0,0.0
509,77.0,0,30,0.0,0.0
510,60.0,3,120,1.0,0.0
511,56.0,30,30,2.0,0.0
512,76.0,0,30,0.0,0.0
513,58.0,0,30,2.0,0.0
514,74.0,30,30,0.0,0.0
515,60.0,0,60,2.0,0.0
516,76.0,27,30,0.0,0.0
517,77.0,30,30,0.0,0.0
518,58.0,0,60,2.0,0.0
519,72.0,15,60,1.0,0.0
520,74.0,30,30,0.0,0.0
521,76.0,0,30,0.0,0.0
522,56.0,15,30,2.0,0.0
523,77.0,15,60,0.0,0.0
524,73.0,15,15,1.0,0.0
525,72.0,0,15,1.0,0.0
526,58.0,0,30,2.0,0.0
527,73.0,15,15,1.0,0.0
528,72.0,0,15,1.0,0.0
529,73.0,15,15,1.0,0.0
530,56.0,0,30,2.0,0.0
531,65.0,0,30,0.0,0.0
532,72.0,15,15,1.0,0.0
533,64.0,0,30,0.0,0.0
534,55.0,0,30,2.0,0.0
535,73.0,15,15,1.0,0.0
536,72.0,15,15,1.0,0.0
537,65.0,0,30,0.0,0.0
538,56.0,0,30,2.0,0.0
539,73.0,15,15,1.0,0.0
540,72.0,15,15,1.0,0.0
541,58.0,15,30,2.0,0.0
542,73.0,15,15,1.0,0.0
543,72.0,0,15,1.0,0.0
544,55.0,0,30,2.0,0.0
545,67.0,15,30,0.0,0.0
546,73.0,15,15,1.0,0.0
547,72.0,0,15,1.0,0.0
548,56.0,15,30,2.0,0.0
549,73.0,15,15,1.0,0.0
550,72.0,0,15,1.0,0.0
551,73.0,0,15,1.0,0.0
552,68.0,15,15,0.0,0.0
553,67.0,0,15,0.0,0.0
554,72.0,15,15,1.0,0.0
555,53.0,0,15,2.0,0.0
556,68.0,0,90,0.0,0.0
557,73.0,15,15,1.0,0.0
558,72.0,15,15,1.0,0.0
559,51.0,15,30,2.0,0.0
560,73.0,15,15,1.0,0.0
561,72.0,0,15,1.0,0.0
562,53.0,0,30,2.0,0.0
563,71.0,15,15,1.0,0.0
564,72.0,30,15,1.0,0.0
565,49.0,30,30,2.0,0.0
566,65.0,0,90,1.0,0.0
567,70.0,0,120,0.0,0.0
568,51.0,30,30,2.0,0.0
569,48.0,30,30,2.0,0.0
570,63.0,30,30,1.0,0.0
571,49.0,0,30,2.0,0.0
572,46.0,30,30,2.0,0.0
573,61.0,0,30,1.0,0.0
574,65.0,0,30,1.0,0.0
575,49.0,30,30,2.0,0.0
576,48.0,30,30,2.0,0.0
577,63.0,0,30,1.0,0.0
578,67.0,0,30,0.0,0.0
579,65.0,30,30,0.0,0.0
580,65.0,0,30,1.0,0.0
581,49.0,0,30,2.0,0.0
582,61.0,0,30,1.0,0.0
583,67.0,0,30,0.0,0.0
584,46.0,30,30,2.0,0.0
585,63.0,30,30,1.0,0.0
586,48.0,0,30,2.0,0.0
587,44.0,30,30,2.0,0.0
588,68.0,0,30,0.0,0.0
589,60.0,0,30,1.0,0.0
590,61.0,15,30,1.0,0.0
591,46.0,0,30,2.0,0.0
592,43.0,0,30,2.0,0.0
593,70.0,15,15,0.0,0.0
594,58.0,0,30,1.0,0.0
595,68.0,30,15,0.0,0.0
596,53.0,30,30,2.0,0.0
597,68.0,0,30,1.0,0.0
598,70.0,0,90,0.0,0.0
599,67.0,0,30,1.0,0.0
600,52.0,30,30,2.0,0.0
601,65.0,0,30,1.0,0.0
602,50.0,30,30,2.0,0.0
603,72.0,0,120,0.0,0.0
604,67.0,0,30,1.0,0.0
605,52.0,30,30,2.0,0.0
606,53.0,30,30,2.0,0.0
607,68.0,0,30,1.0,0.0
608,65.0,0,30,1.0,0.0
609,50.0,30,30,2.0,0.0
610,67.0,0,30,1.0,0.0
611,52.0,30,30,2.0,0.0
612,68.0,0,60,0.0,0.0
613,41.0,30,30,2.0,0.0
614,60.0,30,60,1.0,0.0
615,53.0,0,30,2.0,0.0
616,51.0,30,30,2.0,0.0
617,73.0,0,60,0.0,0.0
618,65.0,0,60,1.0,0.0
619,49.0,15,30,2.0,0.0
620,67.0,0,60,1.0,0.0
621,72.0,15,15,0.0,0.0
622,51.0,30,30,2.0,0.0
623,74.0,0,15,0.0,0.0
624,72.0,30,30,0.0,0.0
625,53.0,0,30,2.0,0.0
626,65.0,0,60,1.0,0.0
627,49.0,30,30,2.0,0.0
628,70.0,0,60,0.0,0.0
629,51.0,30,30,2.0,0.0
630,63.0,0,60,1.0,0.0
631,48.0,30,30,2.0,0.0
632,69.0,0,30,0.0,0.0
633,70.0,30,30,0.0,0.0
634,53.0,0,30,2.0,0.0
635,51.0,30,30,2.0,0.0
636,72.0,0,30,0.0,0.0
637,60.0,0,30,1.0,0.0
638,70.0,0,30,0.0,0.0
639,49.0,0,30,2.0,0.0
640,61.0,30,30,1.0,0.0
641,63.0,30,210,1.0,0.0
642,48.0,30,30,2.0,0.0
643,69.0,0,60,0.0,0.0
644,49.0,30,30,2.0,0.0
645,67.0,0,60,0.0,0.0
646,46.0,30,30,2.0,0.0
647,48.0,30,30,2.0,0.0
648,65.0,30,60,0.0,0.0
649,45.0,30,30,2.0,0.0
650,49.0,0,30,2.0,0.0
651,69.0,0,60,0.0,0.0
652,48.0,0,30,2.0,0.0
653,66.0,30,30,1.0,0.0
654,46.0,0,30,2.0,0.0
655,45.0,30,30,2.0,0.0
656,72.0,0,60,0.0,0.0
657,65.0,30,60,1.0,0.0
658,46.0,0,30,2.0,0.0
659,75.0,30,90,0.0,0.0
660,67.0,30,60,1.0,0.0
661,43.0,30,30,2.0,0.0
662,45.0,0,30,2.0,0.0
663,36.0,0,30,2.0,0.0
664,69.0,30,60,1.0,0.0
665,46.0,0,30,2.0,0.0
666,72.0,0,30,0.0,0.0
667,45.0,0,30,2.0,0.0
668,73.0,30,30,0.0,0.0
669,43.0,0,30,2.0,0.0
670,75.0,30,30,0.0,0.0
671,45.0,30,30,2.0,0.0
672,77.0,0,60,0.0,0.0
673,46.0,0,30,2.0,0.0
674,75.0,30,60,0.0,0.0
675,65.0,30,15,1.0,0.0
676,43.0,30,30,2.0,0.0
677,45.0,0,30,2.0,0.0
678,46.0,30,60,2.0,0.0
679,73.0,30,30,0.0,0.0
680,75.0,0,30,0.0,0.0
681,73.0,0,30,0.0,0.0
682,46.0,30,30,2.0,0.0
683,72.0,0,30,0.0,0.0
684,45.0,30,30,2.0,0.0
685,46.0,0,30,2.0,0.0
686,73.0,30,30,0.0,0.0
687,75.0,0,30,0.0,0.0
688,72.0,0,30,0.0,0.0
689,65.0,30,15,1.0,0.0
690,48.0,30,30,2.0,0.0
691,73.0,15,30,0.0,0.0
692,49.0,15,15,2.0,0.0
693,70.0,30,30,0.0,0.0
694,48.0,0,15,2.0,0.0
695,80.0,30,30,0.0,0.0
696,49.0,30,90,2.0,0.0
697,79.0,30,30,0.0,0.0
698,77.0,0,30,0.0,0.0
699,51.0,30,120,2.0,0.0
700,79.0,30,30,0.0,0.0
701,80.0,30,30,0.0,0.0
702,58.0,0,60,1.0,0.0
703,77.0,30,30,0.0,0.0
704,79.0,0,30,0.0,0.0
705,80.0,30,30,0.0,0.0
706,60.0,0,30,1.0,0.0
707,65.0,30,30,1.0,0.0
708,73.0,0,30,0.0,0.0
709,63.0,7,120,1.0,0.0
710,72.0,0,30,0.0,0.0
711,44.0,30,30,2.0,0.0
712,70.0,0,30,0.0,0.0
713,43.0,30,30,2.0,0.0
714,72.0,0,30,0.0,0.0
715,44.0,23,30,2.0,0.0
716,73.0,30,30,0.0,0.0
717,63.0,0,60,1.0,0.0
718,46.0,0,30,2.0,0.0
719,70.0,30,30,0.0,0.0
720,72.0,15,30,0.0,0.0
721,48.0,15,15,2.0,0.0
722,63.0,30,60,1.0,0.0
723,68.0,0,30,0.0,0.0
724,47.0,30,15,2.0,0.0
725,79.0,0,30,0.0,0.0
726,48.0,30,90,2.0,0.0
727,77.0,30,30,0.0,0.0
728,68.0,30,120,1.0,0.0
729,76.0,0,30,0.0,0.0
730,49.0,30,120,2.0,0.0
731,77.0,30,30,0.0,0.0
732,79.0,0,30,0.0,0.0
733,76.0,30,30,0.0,0.0
734,56.0,0,60,1.0,0.0
735,77.0,0,30,0.0,0.0
736,58.0,0,30,1.0,0.0
737,79.0,30,30,0.0,0.0
738,63.0,30,30,1.0,0.0
739,72.0,0,30,0.0,0.0
740,43.0,30,30,2.0,0.0
741,70.0,0,30,0.0,0.0
742,41.0,0,30,2.0,0.0
743,68.0,30,30,0.0,0.0
744,43.0,0,30,2.0,0.0
745,70.0,30,30,0.0,0.0
746,72.0,0,30,0.0,0.0
747,61.0,30,15,1.0,0.0
748,44.0,0,30,2.0,0.0
749,68.0,30,30,0.0,0.0
750,70.0,15,30,0.0,0.0
751,67.0,0,30,0.0,0.0
752,46.0,15,15,2.0,0.0
753,45.0,30,15,2.0,0.0
754,77.0,30,30,0.0,0.0
755,46.0,30,90,2.0,0.0
756,67.0,0,120,1.0,0.0
757,76.0,30,30,0.0,0.0
758,74.0,0,30,0.0,0.0
759,48.0,0,120,2.0,0.0
760,76.0,30,30,0.0,0.0
761,77.0,30,30,0.0,0.0
762,55.0,30,60,1.0,0.0
763,74.0,30,30,0.0,0.0
764,76.0,0,30,0.0,0.0
765,41.0,30,30,2.0,0.0
766,77.0,0,60,0.0,0.0
767,56.0,0,60,1.0,0.0
768,60.0,15,30,2.0,0.0
769,58.0,30,30,2.0,0.0
770,68.0,0,30,0.0,0.0
771,65.0,15,15,1.0,0.0
772,64.0,0,15,1.0,0.0
773,67.0,30,30,0.0,0.0
774,60.0,0,30,2.0,0.0
775,68.0,0,30,0.0,0.0
776,56.0,30,30,2.0,0.0
777,58.0,0,30,2.0,0.0
778,55.0,30,30,2.0,0.0
779,70.0,0,30,0.0,0.0
780,65.0,30,15,1.0,0.0
781,56.0,15,30,2.0,0.0
782,72.0,15,15,0.0,0.0
783,53.0,0,30,2.0,0.0
784,70.0,30,15,0.0,0.0
785,72.0,0,90,0.0,0.0
786,56.0,0,30,2.0,0.0
787,65.0,30,15,1.0,0.0
788,55.0,30,30,2.0,0.0
789,56.0,30,30,2.0,0.0
790,73.0,30,120,0.0,0.0
791,53.0,30,30,2.0,0.0
792,55.0,0,30,2.0,0.0
793,51.0,30,30,2.0,0.0
794,66.0,0,30,1.0,0.0
795,53.0,0,30,2.0,0.0
796,68.0,0,30,1.0,0.0
797,49.0,30,30,2.0,0.0
798,53.0,15,30,2.0,0.0
799,51.0,30,30,2.0,0.0
800,65.0,0,15,1.0,0.0
801,70.0,0,30,0.0,0.0
802,64.0,0,15,1.0,0.0
803,65.0,0,120,1.0,0.0
804,68.0,0,30,0.0,0.0
805,53.0,30,30,2.0,0.0
806,70.0,30,30,0.0,0.0
807,49.0,0,30,2.0,0.0
808,51.0,30,30,2.0,0.0
809,72.0,0,30,0.0,0.0
810,48.0,30,30,2.0,0.0
811,63.0,0,30,1.0,0.0
812,49.0,15,30,2.0,0.0
813,46.0,30,30,2.0,0.0
814,73.0,15,15,0.0,0.0
815,61.0,0,60,1.0,0.0
816,72.0,0,15,0.0,0.0
817,56.0,30,30,2.0,0.0
818,73.0,0,90,0.0,0.0
819,65.0,0,60,1.0,0.0
820,55.0,30,30,2.0,0.0
821,53.0,30,30,2.0,0.0
822,70.0,30,120,1.0,0.0
823,55.0,30,30,2.0,0.0
824,75.0,0,120,0.0,0.0
825,56.0,30,30,2.0,0.0
826,53.0,30,30,2.0,0.0
827,55.0,0,30,2.0,0.0
828,72.0,30,30,0.0,0.0
829,56.0,0,60,2.0,0.0
830,63.0,30,60,1.0,0.0
831,80.0,0,30,0.0,0.0
832,60.0,0,30,1.0,0.0
833,79.0,0,30,0.0,0.0
834,51.0,30,30,2.0,0.0
835,59.0,30,30,1.0,0.0
836,50.0,0,30,2.0,0.0
837,80.0,0,30,0.0,0.0
838,60.0,0,30,1.0,0.0
839,77.0,0,30,0.0,0.0
840,51.0,30,30,2.0,0.0
841,79.0,30,30,0.0,0.0
842,61.0,0,30,1.0,0.0
843,53.0,0,30,2.0,0.0
844,75.0,30,30,0.0,0.0
845,77.0,15,30,0.0,0.0
846,63.0,0,15,1.0,0.0
847,55.0,15,15,2.0,0.0
848,73.0,0,30,0.0,0.0
849,61.0,0,15,1.0,0.0
850,54.0,30,15,2.0,0.0
851,63.0,0,60,1.0,0.0
852,55.0,0,90,2.0,0.0
853,82.0,30,30,0.0,0.0
854,80.0,30,30,0.0,0.0
855,67.0,30,30,1.0,0.0
856,82.0,0,30,0.0,0.0
857,72.0,30,30,0.0,0.0
858,65.0,0,120,1.0,0.0
859,56.0,0,120,2.0,0.0
860,73.0,30,30,0.0,0.0
861,70.0,30,30,0.0,0.0
862,72.0,30,30,0.0,0.0
863,68.0,30,30,0.0,0.0
864,72.0,30,30,0.0,0.0
865,62.0,0,30,1.0,0.0
866,70.0,30,30,0.0,0.0
867,53.0,0,30,2.0,0.0
868,72.0,0,30,0.0,0.0
869,60.0,30,30,1.0,0.0
870,51.0,0,30,2.0,0.0
871,53.0,0,30,2.0,0.0
872,68.0,0,30,0.0,0.0
873,62.0,30,30,1.0,0.0
874,70.0,30,30,0.0,0.0
875,67.0,30,30,0.0,0.0
876,63.0,0,30,1.0,0.0
877,55.0,0,30,2.0,0.0
878,68.0,15,30,0.0,0.0
879,56.0,15,15,2.0,0.0
880,65.0,30,90,1.0,0.0
881,65.0,30,30,0.0,0.0
882,55.0,0,15,2.0,0.0
883,56.0,0,90,2.0,0.0
884,75.0,30,30,0.0,0.0
885,74.0,0,30,0.0,0.0
886,72.0,15,30,0.0,0.0
887,68.0,0,30,1.0,0.0
888,67.0,15,15,1.0,0.0
889,74.0,0,30,0.0,0.0
890,58.0,30,120,2.0,0.0
891,68.0,30,15,1.0,0.0
892,67.0,0,60,1.0,0.0
893,75.0,30,30,0.0,0.0
894,72.0,30,30,0.0,0.0
895,74.0,0,30,0.0,0.0
896,65.0,0,30,1.0,0.0
897,75.0,15,60,0.0,0.0
898,63.0,0,60,1.0,0.0
899,55.0,30,30,2.0,0.0
900,56.0,0,30,2.0,0.0
901,70.0,15,15,1.0,0.0
902,55.0,0,30,2.0,0.0
903,63.0,0,30,0.0,0.0
904,68.0,30,15,1.0,0.0
905,62.0,0,30,0.0,0.0
906,53.0,30,30,2.0,0.0
907,55.0,30,30,2.0,0.0
908,63.0,0,30,0.0,0.0
909,56.0,0,30,2.0,0.0
910,70.0,30,15,1.0,0.0
911,53.0,0,30,2.0,0.0
912,65.0,30,30,0.0,0.0
913,55.0,15,30,2.0,0.0
914,67.0,15,15,0.0,0.0
915,65.0,25,15,0.0,0.0
916,51.0,0,15,2.0,0.0
917,67.0,0,90,0.0,0.0
918,58.0,30,60,1.0,0.0
919,50.0,30,30,2.0,0.0
920,51.0,0,30,2.0,0.0
921,68.0,0,120,0.0,0.0
922,48.0,30,30,2.0,0.0
923,63.0,30,90,1.0,0.0
924,50.0,30,30,2.0,0.0
925,46.0,0,30,2.0,0.0
926,48.0,30,30,2.0,0.0
927,62.0,0,30,1.0,0.0
928,60.0,0,60,1.0,0.0
929,44.0,30,30,2.0,0.0
930,48.0,30,30,2.0,0.0
931,72.0,0,120,1.0,0.0
932,65.0,0,30,0.0,0.0
933,46.0,30,30,2.0,0.0
934,63.0,0,30,0.0,0.0
935,48.0,30,30,2.0,0.0
936,44.0,0,30,2.0,0.0
937,65.0,30,30,0.0,0.0
938,46.0,30,30,2.0,0.0
939,72.0,0,120,1.0,0.0
940,67.0,30,30,0.0,0.0
941,43.0,0,30,2.0,0.0
942,44.0,15,30,2.0,0.0
943,41.0,0,30,2.0,0.0
944,68.0,15,15,0.0,0.0
945,67.0,30,15,0.0,0.0
946,51.0,30,30,2.0,0.0
947,68.0,0,90,0.0,0.0
948,60.0,30,60,1.0,0.0
949,50.0,30,30,2.0,0.0
950,48.0,0,30,2.0,0.0
951,70.0,30,120,0.0,0.0
952,65.0,30,210,1.0,0.0
953,50.0,30,30,2.0,0.0
954,51.0,30,30,2.0,0.0
955,48.0,30,30,2.0,0.0
956,50.0,0,30,2.0,0.0
957,39.0,30,30,2.0,0.0
958,67.0,30,60,0.0,0.0
959,51.0,0,30,2.0,0.0
960,72.0,15,60,0.0,0.0
961,50.0,0,30,2.0,0.0
962,63.0,0,30,1.0,0.0
963,48.0,0,30,2.0,0.0
964,65.0,0,30,1.0,0.0
965,50.0,30,30,2.0,0.0
966,70.0,15,15,0.0,0.0
967,72.0,0,15,0.0,0.0
968,51.0,30,30,2.0,0.0
969,70.0,0,30,0.0,0.0
970,67.0,0,30,1.0,0.0
971,63.0,0,30,1.0,0.0
972,68.0,30,60,0.0,0.0
973,48.0,30,30,2.0,0.0
974,50.0,0,30,2.0,0.0
975,65.0,0,120,1.0,0.0
976,46.0,30,30,2.0,0.0
977,67.0,0,30,0.0,0.0
978,68.0,0,30,0.0,0.0
979,51.0,30,30,2.0,0.0
980,50.0,30,30,2.0,0.0
981,70.0,0,30,0.0,0.0
982,68.0,0,30,0.0,0.0
983,48.0,30,30,2.0,0.0
984,63.0,0,30,1.0,0.0
985,67.0,0,60,0.0,0.0
986,46.0,30,30,2.0,0.0
987,62.0,30,60,1.0,0.0
988,48.0,0,30,2.0,0.0
989,44.0,30,30,2.0,0.0
990,65.0,0,60,0.0,0.0
991,60.0,0,30,1.0,0.0
992,46.0,0,30,2.0,0.0
993,62.0,30,30,1.0,0.0
994,58.0,0,60,1.0,0.0
995,63.0,0,60,0.0,0.0
996,43.0,30,30,2.0,0.0
997,60.0,30,30,2.0,0.0
998,77.0,0,60,0.0,0.0
999,58.0,30,30,2.0,0.0
1000,62.0,0,60,1.0,0.0
1001,56.0,30,30,2.0,0.0
1002,75.0,30,60,0.0,0.0
1003,70.0,0,60,1.0,0.0
1004,55.0,30,30,2.0,0.0
1005,56.0,0,30,2.0,0.0
1006,68.0,30,270,1.0,0.0
1007,53.0,30,30,2.0,0.0
1008,73.0,0,60,0.0,0.0
1009,55.0,30,30,2.0,0.0
1010,72.0,30,30,0.0,0.0
1011,51.0,0,30,2.0,0.0
1012,56.0,30,30,2.0,0.0
1013,73.0,0,30,0.0,0.0
1014,75.0,30,30,0.0,0.0
1015,55.0,0,30,2.0,0.0
1016,73.0,0,30,0.0,0.0
1017,53.0,30,30,2.0,0.0
1018,72.0,0,60,0.0,0.0
1019,51.0,30,30,2.0,0.0
1020,53.0,30,30,2.0,0.0
1021,70.0,30,60,0.0,0.0
1022,49.0,0,30,2.0,0.0
1023,67.0,0,30,1.0,0.0
1024,51.0,0,30,2.0,0.0
1025,48.0,30,30,2.0,0.0
1026,68.0,0,60,0.0,0.0
1027,68.0,30,90,1.0,0.0
1028,53.0,30,30,2.0,0.0
1029,72.0,0,60,0.0,0.0
1030,51.0,0,30,2.0,0.0
1031,49.0,30,30,2.0,0.0
1032,70.0,0,30,1.0,0.0
1033,48.0,0,30,2.0,0.0
1034,75.0,30,60,0.0,0.0
1035,68.0,30,30,1.0,0.0
1036,49.0,0,30,2.0,0.0
1037,70.0,0,30,1.0,0.0
1038,67.0,30,30,1.0,0.0
1039,80.0,30,90,0.0,0.0
1040,46.0,0,30,2.0,0.0
1041,48.0,0,30,2.0,0.0
1042,64.0,30,30,1.0,0.0
1043,65.0,15,60,1.0,0.0
1044,41.0,0,30,2.0,0.0
1045,77.0,0,30,0.0,0.0
1046,51.0,0,30,2.0,0.0
1047,79.0,30,30,0.0,0.0
1048,50.0,0,30,2.0,0.0
1049,65.0,15,15,1.0,0.0
1050,64.0,0,15,1.0,0.0
1051,48.0,30,30,2.0,0.0
1052,80.0,0,30,0.0,0.0
1053,82.0,30,60,0.0,0.0
1054,50.0,30,30,2.0,0.0
1055,51.0,0,30,2.0,0.0
1056,65.0,0,15,1.0,0.0
1057,48.0,30,30,2.0,0.0
1058,50.0,0,30,2.0,0.0
1059,51.0,15,60,2.0,0.0
1060,65.0,0,90,1.0,0.0
1061,80.0,15,15,0.0,0.0
1062,79.0,15,60,0.0,0.0
1063,43.0,15,60,2.0,0.0
1064,77.0,15,15,0.0,0.0
1065,58.0,0,30,1.0,0.0
1066,75.0,15,15,0.0,0.0
1067,77.0,0,15,0.0,0.0
1068,60.0,0,30,1.0,0.0
1069,79.0,15,15,0.0,0.0
1070,44.0,15,60,2.0,0.0
1071,77.0,15,15,0.0,0.0
1072,79.0,15,15,0.0,0.0
1073,63.0,15,60,1.0,0.0
1074,77.0,0,15,0.0,0.0
1075,46.0,240,60,2.0,0.0
1076,79.0,15,15,0.0,0.0
1077,77.0,0,15,0.0,0.0
1078,62.0,0,30,1.0,0.0
1079,75.0,15,15,0.0,0.0
1080,77.0,0,15,0.0,0.0
1081,63.0,0,240,1.0,0.0
1082,39.0,1,240,2.0,0.0
1083,75.0,1169,240,0.0,0.0
