,note,step,duration,channel,velocity
0,88.0,0,120,11.0,108.0
1,88.0,0,120,0.0,92.0
2,76.0,0,120,1.0,92.0
3,88.0,240,120,10.0,108.0
4,56.0,0,400,13.0,92.0
5,47.0,0,400,3.0,92.0
6,64.0,0,400,5.0,92.0
7,59.0,0,400,5.0,92.0
8,52.0,0,400,8.0,92.0
9,64.0,0,400,12.0,92.0
10,71.0,0,400,12.0,92.0
11,64.0,0,400,2.0,92.0
12,59.0,0,400,6.0,92.0
13,52.0,0,400,4.0,92.0
14,56.0,0,400,4.0,92.0
15,59.0,0,400,4.0,92.0
16,64.0,0,400,4.0,92.0
17,68.0,0,400,2.0,92.0
18,56.0,0,400,6.0,92.0
19,40.0,0,400,3.0,92.0
20,47.0,0,400,14.0,92.0
21,40.0,0,400,14.0,92.0
22,40.0,0,400,15.0,92.0
23,40.0,0,400,7.0,92.0
24,52.0,0,400,6.0,92.0
25,87.0,0,85,10.0,108.0
26,87.0,0,120,0.0,92.0
27,75.0,120,120,1.0,92.0
28,87.0,0,120,11.0,108.0
29,88.0,0,80,11.0,108.0
30,76.0,0,80,1.0,92.0
31,88.0,0,80,10.0,108.0
32,88.0,120,80,0.0,92.0
33,83.0,0,80,0.0,92.0
34,83.0,0,80,10.0,108.0
35,71.0,0,80,1.0,92.0
36,83.0,240,80,11.0,108.0
37,80.0,240,80,0.0,92.0
38,80.0,0,80,11.0,108.0
39,68.0,0,80,1.0,92.0
40,80.0,0,80,10.0,108.0
41,83.0,240,80,0.0,92.0
42,71.0,0,80,1.0,92.0
43,83.0,0,80,10.0,108.0
44,83.0,0,80,11.0,108.0
45,76.0,0,120,10.0,108.0
46,76.0,0,120,11.0,108.0
47,76.0,0,120,0.0,92.0
48,76.0,0,120,1.0,92.0
49,78.0,0,120,1.0,92.0
50,78.0,120,120,0.0,92.0
51,78.0,0,120,10.0,108.0
52,78.0,0,120,11.0,108.0
53,76.0,0,120,1.0,92.0
54,76.0,120,120,11.0,108.0
55,76.0,0,120,10.0,108.0
56,76.0,0,120,0.0,92.0
57,47.0,0,400,14.0,92.0
58,40.0,0,400,7.0,92.0
59,52.0,0,400,8.0,92.0
60,40.0,0,400,14.0,92.0
61,52.0,0,400,6.0,92.0
62,40.0,0,400,15.0,92.0
63,59.0,0,400,6.0,92.0
64,52.0,0,400,4.0,92.0
65,64.0,240,400,2.0,92.0
66,71.0,0,400,12.0,92.0
67,64.0,0,400,12.0,92.0
68,68.0,0,400,2.0,92.0
69,64.0,0,400,5.0,92.0
70,56.0,0,400,6.0,92.0
71,59.0,0,400,5.0,92.0
72,56.0,0,400,4.0,92.0
73,59.0,0,400,4.0,92.0
74,64.0,0,400,4.0,92.0
75,40.0,0,400,3.0,92.0
76,47.0,0,400,3.0,92.0
77,56.0,0,400,13.0,92.0
78,75.0,0,120,0.0,92.0
79,75.0,0,120,10.0,108.0
80,75.0,0,120,11.0,108.0
81,75.0,120,120,1.0,92.0
82,76.0,120,80,0.0,92.0
83,76.0,0,80,1.0,92.0
84,76.0,0,80,10.0,108.0
85,76.0,0,80,11.0,108.0
86,71.0,0,80,10.0,108.0
87,71.0,240,80,11.0,108.0
88,71.0,0,80,0.0,92.0
89,71.0,0,80,1.0,92.0
90,68.0,0,80,11.0,108.0
91,68.0,0,80,1.0,92.0
92,68.0,0,80,10.0,108.0
93,68.0,240,80,0.0,92.0
94,71.0,240,80,0.0,92.0
95,71.0,0,80,11.0,108.0
96,71.0,0,80,1.0,92.0
97,71.0,0,80,10.0,108.0
98,64.0,0,120,10.0,108.0
99,64.0,0,120,11.0,108.0
100,71.0,120,115,11.0,108.0
101,71.0,0,115,10.0,108.0
102,66.0,120,120,10.0,108.0
103,66.0,0,120,11.0,108.0
104,71.0,0,115,10.0,108.0
105,71.0,120,115,11.0,108.0
106,68.0,120,120,10.0,108.0
107,68.0,0,120,11.0,108.0
108,56.0,0,715,6.0,92.0
109,71.0,0,115,11.0,108.0
110,68.0,0,715,4.0,92.0
111,68.0,0,715,2.0,92.0
112,64.0,0,715,6.0,92.0
113,59.0,0,715,6.0,92.0
114,64.0,0,715,2.0,92.0
115,68.0,240,715,5.0,92.0
116,64.0,0,715,5.0,92.0
117,64.0,0,715,4.0,92.0
118,71.0,120,115,10.0,108.0
119,69.0,0,120,10.0,108.0
120,69.0,120,120,11.0,108.0
121,71.0,120,115,10.0,108.0
122,71.0,0,115,11.0,108.0
123,66.0,0,240,4.0,92.0
124,56.0,0,960,13.0,92.0
125,52.0,0,960,13.0,92.0
126,59.0,0,960,12.0,92.0
127,69.0,0,240,2.0,92.0
128,69.0,0,240,5.0,92.0
129,66.0,0,240,5.0,92.0
130,66.0,0,240,2.0,92.0
131,57.0,0,240,6.0,92.0
132,66.0,0,240,6.0,92.0
133,69.0,0,240,4.0,92.0
134,68.0,0,120,10.0,108.0
135,68.0,0,120,11.0,108.0
136,71.0,0,115,11.0,108.0
137,71.0,120,115,10.0,108.0
138,68.0,0,240,5.0,92.0
139,64.0,120,240,4.0,92.0
140,68.0,0,240,4.0,92.0
141,64.0,0,240,6.0,92.0
142,56.0,0,240,6.0,92.0
143,59.0,0,240,6.0,92.0
144,64.0,0,240,5.0,92.0
145,64.0,0,240,2.0,92.0
146,68.0,0,240,2.0,92.0
147,66.0,0,120,10.0,108.0
148,66.0,120,120,11.0,108.0
149,52.0,0,400,13.0,92.0
150,59.0,0,400,12.0,92.0
151,57.0,0,400,13.0,92.0
152,71.0,120,115,10.0,108.0
153,71.0,0,115,11.0,108.0
154,66.0,0,240,4.0,92.0
155,66.0,0,240,2.0,92.0
156,63.0,0,240,2.0,92.0
157,54.0,0,240,6.0,92.0
158,63.0,0,240,4.0,92.0
159,57.0,0,240,6.0,92.0
160,63.0,0,240,6.0,92.0
161,63.0,0,240,5.0,92.0
162,66.0,0,240,5.0,92.0
163,64.0,0,120,10.0,108.0
164,64.0,0,120,11.0,108.0
165,76.0,120,115,10.0,108.0
166,76.0,0,115,11.0,108.0
167,75.0,0,115,11.0,108.0
168,75.0,120,115,10.0,108.0
169,40.0,0,1840,3.0,92.0
170,40.0,0,1840,7.0,92.0
171,40.0,0,1840,14.0,92.0
172,47.0,0,1840,3.0,92.0
173,40.0,0,1840,15.0,92.0
174,47.0,0,1840,14.0,92.0
175,73.0,0,115,10.0,108.0
176,73.0,120,115,11.0,108.0
177,71.0,0,120,10.0,108.0
178,71.0,0,120,11.0,108.0
179,76.0,0,115,11.0,108.0
180,76.0,120,115,10.0,108.0
181,75.0,120,115,11.0,108.0
182,75.0,0,115,10.0,108.0
183,44.0,0,400,3.0,92.0
184,44.0,0,400,14.0,92.0
185,44.0,0,400,15.0,92.0
186,44.0,120,400,7.0,92.0
187,73.0,120,115,10.0,108.0
188,73.0,0,115,11.0,108.0
189,64.0,0,960,4.0,92.0
190,59.0,0,960,12.0,92.0
191,56.0,0,960,4.0,92.0
192,64.0,120,960,6.0,92.0
193,64.0,0,960,5.0,92.0
194,68.0,0,960,5.0,92.0
195,59.0,0,960,6.0,92.0
196,52.0,0,960,4.0,92.0
197,59.0,0,0,4.0,92.0
198,64.0,0,960,2.0,92.0
199,68.0,0,960,2.0,92.0
200,56.0,0,960,6.0,92.0
201,52.0,0,960,13.0,92.0
202,56.0,0,960,13.0,92.0
203,71.0,0,115,10.0,108.0
204,71.0,0,115,11.0,108.0
205,69.0,0,115,11.0,108.0
206,69.0,120,115,10.0,108.0
207,68.0,120,115,10.0,108.0
208,68.0,0,115,11.0,108.0
209,47.0,0,400,7.0,92.0
210,54.0,0,400,13.0,92.0
211,63.0,0,400,6.0,92.0
212,59.0,0,400,6.0,92.0
213,47.0,120,400,8.0,92.0
214,63.0,0,400,2.0,92.0
215,47.0,0,400,15.0,92.0
216,51.0,0,400,4.0,92.0
217,54.0,0,400,6.0,92.0
218,63.0,0,400,5.0,92.0
219,47.0,0,400,14.0,92.0
220,66.0,0,400,5.0,92.0
221,54.0,0,400,4.0,92.0
222,59.0,0,400,12.0,92.0
223,66.0,0,400,4.0,92.0
224,47.0,0,400,3.0,92.0
225,66.0,0,400,2.0,92.0
226,66.0,0,115,11.0,108.0
227,66.0,120,115,10.0,108.0
228,64.0,0,120,11.0,75.0
229,64.0,0,120,10.0,75.0
230,71.0,0,115,10.0,75.0
231,71.0,120,115,11.0,75.0
232,66.0,120,120,10.0,75.0
233,66.0,0,120,11.0,75.0
234,71.0,0,115,11.0,75.0
235,71.0,120,115,10.0,75.0
236,68.0,0,120,10.0,75.0
237,68.0,120,120,11.0,75.0
238,68.0,0,715,5.0,60.0
239,64.0,0,715,5.0,60.0
240,71.0,120,115,11.0,75.0
241,68.0,0,715,2.0,60.0
242,64.0,0,715,6.0,60.0
243,56.0,0,715,6.0,60.0
244,68.0,0,715,4.0,60.0
245,64.0,0,715,4.0,60.0
246,64.0,0,715,2.0,60.0
247,71.0,0,115,10.0,75.0
248,59.0,0,715,6.0,60.0
249,69.0,0,120,11.0,75.0
250,69.0,0,120,10.0,75.0
251,52.0,0,840,8.0,45.0
252,71.0,0,115,10.0,75.0
253,71.0,120,115,11.0,75.0
254,57.0,0,240,6.0,60.0
255,69.0,0,240,4.0,60.0
256,69.0,0,240,5.0,60.0
257,66.0,0,240,5.0,60.0
258,66.0,0,240,4.0,60.0
259,66.0,0,240,6.0,60.0
260,66.0,0,240,2.0,60.0
261,59.0,0,0,12.0,45.0
262,52.0,0,960,13.0,45.0
263,56.0,120,960,13.0,45.0
264,69.0,0,240,2.0,60.0
265,68.0,0,120,10.0,75.0
266,68.0,0,120,11.0,75.0
267,71.0,120,115,11.0,75.0
268,71.0,0,115,10.0,75.0
269,64.0,120,240,4.0,60.0
270,59.0,0,240,6.0,60.0
271,68.0,0,240,2.0,60.0
272,68.0,0,240,4.0,60.0
273,64.0,0,240,6.0,60.0
274,64.0,0,240,2.0,60.0
275,56.0,0,240,6.0,60.0
276,68.0,0,240,5.0,60.0
277,64.0,0,240,5.0,60.0
278,66.0,0,120,10.0,75.0
279,66.0,0,120,11.0,75.0
280,52.0,0,400,13.0,45.0
281,57.0,0,400,13.0,45.0
282,71.0,0,115,11.0,75.0
283,71.0,120,115,10.0,75.0
284,63.0,0,240,2.0,60.0
285,63.0,120,240,4.0,60.0
286,66.0,0,240,4.0,60.0
287,66.0,0,240,2.0,60.0
288,66.0,0,240,5.0,60.0
289,63.0,0,240,5.0,60.0
290,54.0,0,240,6.0,60.0
291,57.0,0,240,6.0,60.0
292,63.0,0,240,6.0,60.0
293,64.0,0,80,11.0,75.0
294,64.0,0,80,10.0,75.0
295,76.0,120,80,11.0,75.0
296,76.0,0,80,10.0,75.0
297,75.0,0,80,11.0,75.0
298,75.0,120,80,10.0,75.0
299,40.0,0,1840,3.0,45.0
300,47.0,0,1840,3.0,45.0
301,40.0,0,1840,7.0,45.0
302,40.0,0,1840,15.0,45.0
303,47.0,0,1840,14.0,45.0
304,40.0,0,1840,14.0,45.0
305,73.0,0,80,10.0,75.0
306,73.0,120,80,11.0,75.0
307,71.0,0,80,11.0,75.0
308,71.0,0,80,10.0,75.0
309,76.0,120,80,11.0,75.0
310,76.0,0,80,10.0,75.0
311,75.0,0,80,10.0,75.0
312,75.0,120,80,11.0,75.0
313,44.0,0,400,14.0,45.0
314,44.0,0,400,3.0,45.0
315,44.0,120,400,15.0,45.0
316,44.0,0,400,7.0,45.0
317,73.0,120,80,11.0,75.0
318,73.0,0,80,10.0,75.0
319,52.0,0,960,4.0,60.0
320,56.0,0,960,6.0,60.0
321,64.0,0,960,4.0,60.0
322,59.0,0,0,6.0,60.0
323,64.0,0,960,6.0,60.0
324,56.0,0,960,4.0,60.0
325,68.0,0,960,2.0,60.0
326,56.0,0,960,13.0,45.0
327,52.0,0,960,13.0,45.0
328,64.0,0,960,2.0,60.0
329,68.0,0,960,5.0,60.0
330,59.0,0,0,12.0,45.0
331,59.0,0,0,4.0,60.0
332,64.0,0,960,5.0,60.0
333,71.0,120,80,11.0,75.0
334,71.0,0,80,10.0,75.0
335,69.0,120,80,11.0,75.0
336,69.0,0,80,10.0,75.0
337,68.0,120,80,11.0,75.0
338,68.0,0,80,10.0,75.0
339,66.0,0,400,5.0,60.0
340,63.0,0,400,5.0,60.0
341,47.0,0,400,3.0,45.0
342,54.0,0,400,13.0,45.0
343,47.0,0,400,15.0,45.0
344,63.0,0,400,2.0,60.0
345,63.0,0,400,6.0,60.0
346,47.0,0,400,7.0,45.0
347,54.0,0,400,4.0,60.0
348,66.0,0,400,4.0,60.0
349,47.0,0,400,14.0,45.0
350,54.0,0,400,6.0,60.0
351,51.0,0,400,4.0,60.0
352,66.0,0,400,2.0,60.0
353,47.0,0,400,8.0,60.0
354,66.0,120,80,10.0,75.0
355,66.0,0,80,11.0,75.0
356,64.0,0,120,10.0,75.0
357,64.0,0,120,11.0,75.0
358,66.0,120,85,11.0,76.0
359,66.0,0,120,10.0,76.0
360,68.0,120,80,10.0,77.0
361,68.0,0,80,11.0,77.0
362,69.0,0,80,10.0,78.0
363,69.0,120,80,11.0,78.0
364,71.0,0,80,11.0,79.0
365,71.0,120,80,10.0,79.0
366,73.0,120,80,10.0,80.0
367,73.0,0,80,11.0,80.0
368,75.0,0,80,11.0,81.0
369,75.0,120,80,10.0,81.0
370,52.0,120,840,8.0,60.0
371,76.0,0,80,10.0,82.0
372,76.0,120,80,11.0,82.0
373,56.0,0,960,6.0,45.0
374,68.0,0,960,2.0,45.0
375,59.0,0,960,4.0,45.0
376,59.0,0,960,6.0,45.0
377,64.0,0,960,6.0,45.0
378,59.0,0,960,12.0,45.0
379,47.0,0,960,14.0,45.0
380,56.0,0,960,13.0,45.0
381,56.0,0,960,4.0,45.0
382,68.0,0,960,4.0,45.0
383,47.0,0,960,3.0,45.0
384,64.0,0,0,4.0,60.0
385,68.0,0,960,5.0,45.0
386,78.0,0,80,10.0,83.0
387,78.0,120,80,11.0,83.0
388,80.0,120,80,10.0,84.0
389,80.0,0,80,11.0,84.0
390,81.0,0,80,10.0,85.0
391,81.0,120,80,11.0,85.0
392,69.0,0,400,13.0,53.0
393,73.0,0,400,12.0,53.0
394,64.0,0,400,12.0,53.0
395,78.0,120,80,11.0,86.0
396,78.0,0,80,10.0,86.0
397,49.0,0,480,14.0,53.0
398,61.0,0,480,4.0,60.0
399,57.0,0,480,4.0,60.0
400,69.0,0,480,2.0,60.0
401,61.0,0,480,6.0,60.0
402,64.0,0,0,6.0,68.0
403,49.0,0,480,3.0,53.0
404,69.0,0,480,5.0,60.0
405,69.0,0,480,4.0,60.0
406,57.0,0,480,6.0,60.0
407,80.0,0,120,10.0,87.0
408,80.0,0,120,11.0,87.0
409,83.0,0,80,11.0,88.0
410,83.0,120,80,10.0,88.0
411,76.0,120,80,11.0,89.0
412,76.0,0,80,10.0,89.0
413,78.0,120,80,11.0,90.0
414,78.0,0,80,10.0,90.0
415,80.0,120,80,11.0,92.0
416,80.0,0,80,10.0,92.0
417,81.0,0,80,11.0,94.0
418,81.0,120,80,10.0,94.0
419,83.0,0,80,10.0,96.0
420,83.0,120,80,11.0,96.0
421,85.0,120,80,10.0,98.0
422,85.0,0,80,11.0,98.0
423,68.0,0,960,4.0,68.0
424,59.0,0,960,4.0,68.0
425,56.0,120,960,4.0,68.0
426,47.0,120,0,14.0,65.0
427,47.0,0,960,3.0,57.0
428,64.0,0,960,12.0,57.0
429,71.0,0,960,12.0,57.0
430,64.0,0,960,4.0,68.0
431,59.0,0,0,6.0,84.0
432,64.0,0,0,6.0,84.0
433,68.0,0,960,2.0,68.0
434,56.0,0,960,6.0,68.0
435,68.0,0,960,13.0,57.0
436,68.0,0,960,5.0,68.0
437,87.0,0,120,11.0,100.0
438,87.0,0,120,10.0,100.0
439,88.0,120,80,10.0,102.0
440,88.0,0,80,11.0,102.0
441,85.0,0,80,10.0,104.0
442,85.0,120,80,11.0,104.0
443,59.0,0,400,4.0,84.0
444,64.0,0,400,12.0,65.0
445,66.0,0,400,13.0,65.0
446,66.0,0,400,4.0,84.0
447,61.0,0,400,4.0,84.0
448,71.0,0,400,12.0,65.0
449,66.0,0,400,2.0,84.0
450,54.0,0,400,6.0,84.0
451,66.0,0,400,5.0,84.0
452,54.0,0,400,4.0,84.0
453,87.0,0,80,10.0,106.0
454,87.0,120,80,11.0,106.0
455,47.0,0,0,3.0,69.0
456,88.0,0,115,11.0,108.0
457,88.0,120,115,10.0,108.0
458,83.0,120,115,11.0,108.0
459,83.0,0,115,10.0,108.0
460,81.0,0,120,10.0,108.0
461,81.0,120,120,11.0,108.0
462,83.0,0,115,11.0,108.0
463,83.0,120,115,10.0,108.0
464,80.0,0,120,11.0,108.0
465,80.0,120,120,10.0,108.0
466,56.0,0,715,6.0,92.0
467,64.0,0,715,2.0,92.0
468,64.0,0,715,6.0,92.0
469,59.0,0,715,6.0,92.0
470,83.0,0,115,10.0,108.0
471,68.0,0,715,5.0,92.0
472,64.0,0,715,4.0,92.0
473,64.0,0,715,5.0,92.0
474,83.0,120,115,11.0,108.0
475,68.0,0,715,2.0,92.0
476,68.0,0,715,4.0,92.0
477,81.0,0,120,11.0,108.0
478,81.0,0,120,10.0,108.0
479,83.0,120,115,11.0,108.0
480,83.0,0,115,10.0,108.0
481,66.0,0,240,6.0,92.0
482,66.0,0,240,2.0,92.0
483,57.0,0,240,6.0,92.0
484,66.0,0,240,4.0,92.0
485,69.0,120,240,2.0,92.0
486,64.0,0,0,12.0,78.0
487,69.0,0,240,4.0,92.0
488,68.0,0,960,13.0,69.0
489,69.0,0,240,5.0,92.0
490,71.0,0,0,12.0,78.0
491,66.0,0,240,5.0,92.0
492,80.0,120,120,11.0,108.0
493,80.0,0,120,10.0,108.0
494,83.0,120,115,11.0,108.0
495,83.0,0,115,10.0,108.0
496,64.0,0,240,6.0,92.0
497,59.0,0,240,6.0,92.0
498,64.0,0,240,4.0,92.0
499,68.0,0,240,4.0,92.0
500,56.0,0,240,6.0,92.0
501,68.0,0,240,5.0,92.0
502,64.0,0,240,5.0,92.0
503,64.0,0,240,2.0,92.0
504,68.0,0,240,2.0,92.0
505,78.0,0,120,11.0,108.0
506,78.0,0,120,10.0,108.0
507,69.0,0,400,13.0,78.0
508,83.0,0,115,11.0,108.0
509,83.0,120,115,10.0,108.0
510,57.0,0,240,6.0,92.0
511,63.0,0,240,2.0,92.0
512,66.0,0,240,2.0,92.0
513,66.0,0,240,4.0,92.0
514,54.0,0,240,6.0,92.0
515,63.0,0,240,5.0,92.0
516,66.0,0,240,5.0,92.0
517,63.0,0,240,6.0,92.0
518,63.0,120,240,4.0,92.0
519,76.0,0,115,10.0,108.0
520,76.0,0,115,11.0,108.0
521,88.0,120,120,11.0,108.0
522,88.0,0,120,10.0,108.0
523,87.0,0,120,11.0,108.0
524,87.0,120,120,10.0,108.0
525,85.0,0,115,11.0,108.0
526,85.0,120,115,10.0,108.0
527,83.0,120,115,10.0,108.0
528,83.0,0,115,11.0,108.0
529,76.0,120,120,10.0,108.0
530,76.0,0,120,11.0,108.0
531,85.0,120,115,10.0,108.0
532,85.0,0,115,11.0,108.0
533,40.0,0,5160,3.0,45.0
534,47.0,0,2280,14.0,69.0
535,40.0,0,5160,7.0,45.0
536,40.0,0,5160,14.0,45.0
537,40.0,0,5160,15.0,45.0
538,68.0,0,960,5.0,92.0
539,64.0,0,960,4.0,92.0
540,64.0,0,960,2.0,92.0
541,56.0,0,960,4.0,92.0
542,64.0,0,960,5.0,92.0
543,64.0,0,960,6.0,92.0
544,59.0,0,960,6.0,92.0
545,56.0,0,960,6.0,92.0
546,59.0,120,960,4.0,92.0
547,52.0,0,960,4.0,92.0
548,64.0,0,960,12.0,82.0
549,71.0,0,0,12.0,92.0
550,68.0,0,960,2.0,92.0
551,76.0,120,120,10.0,108.0
552,68.0,0,960,13.0,82.0
553,76.0,0,120,11.0,108.0
554,83.0,0,115,10.0,108.0
555,83.0,0,115,11.0,108.0
556,76.0,120,120,10.0,108.0
557,76.0,0,120,11.0,108.0
558,81.0,0,115,10.0,108.0
559,81.0,120,115,11.0,108.0
560,66.0,0,400,13.0,92.0
561,66.0,120,400,5.0,92.0
562,63.0,0,400,5.0,92.0
563,47.0,0,400,7.0,92.0
564,47.0,0,400,3.0,92.0
565,66.0,0,400,4.0,92.0
566,54.0,0,400,4.0,92.0
567,35.0,0,400,15.0,92.0
568,63.0,0,400,12.0,92.0
569,47.0,0,400,14.0,92.0
570,63.0,0,400,6.0,92.0
571,59.0,0,400,6.0,92.0
572,51.0,0,400,4.0,92.0
573,59.0,0,400,4.0,92.0
574,47.0,0,400,8.0,92.0
575,54.0,0,400,6.0,92.0
576,63.0,0,400,2.0,92.0
577,66.0,0,400,2.0,92.0
578,76.0,120,115,11.0,108.0
579,76.0,0,115,10.0,108.0
580,80.0,0,120,11.0,60.0
581,80.0,0,120,10.0,60.0
582,83.0,120,115,10.0,60.0
583,83.0,0,115,11.0,60.0
584,78.0,120,120,10.0,60.0
585,78.0,0,120,11.0,60.0
586,83.0,0,115,10.0,60.0
587,83.0,120,115,11.0,60.0
588,80.0,0,120,11.0,60.0
589,80.0,120,120,10.0,60.0
590,56.0,0,715,6.0,60.0
591,64.0,0,715,6.0,60.0
592,68.0,0,715,2.0,45.0
593,83.0,120,115,11.0,60.0
594,64.0,0,715,4.0,60.0
595,68.0,0,715,4.0,60.0
596,64.0,0,715,5.0,45.0
597,68.0,0,715,5.0,45.0
598,64.0,0,715,2.0,45.0
599,59.0,120,715,6.0,60.0
600,83.0,0,115,10.0,60.0
601,81.0,0,120,11.0,60.0
602,81.0,0,120,10.0,60.0
603,52.0,0,840,8.0,45.0
604,83.0,0,115,11.0,60.0
605,83.0,120,115,10.0,60.0
606,66.0,0,240,2.0,45.0
607,66.0,0,240,6.0,60.0
608,57.0,0,240,6.0,60.0
609,66.0,120,240,4.0,60.0
610,64.0,0,960,12.0,45.0
611,71.0,0,0,12.0,45.0
612,68.0,0,960,13.0,45.0
613,69.0,0,240,5.0,45.0
614,66.0,0,240,5.0,45.0
615,69.0,0,240,4.0,60.0
616,69.0,0,240,2.0,45.0
617,80.0,0,120,11.0,60.0
618,80.0,0,120,10.0,60.0
619,83.0,0,115,11.0,60.0
620,83.0,120,115,10.0,60.0
621,68.0,0,240,2.0,45.0
622,56.0,0,240,6.0,60.0
623,64.0,0,240,5.0,45.0
624,68.0,0,240,5.0,45.0
625,68.0,0,240,4.0,60.0
626,64.0,0,240,2.0,45.0
627,64.0,0,240,6.0,60.0
628,64.0,0,240,4.0,60.0
629,59.0,120,240,6.0,60.0
630,78.0,0,120,11.0,60.0
631,78.0,120,120,10.0,60.0
632,64.0,0,400,12.0,45.0
633,69.0,0,400,13.0,45.0
634,83.0,0,115,10.0,60.0
635,83.0,120,115,11.0,60.0
636,63.0,0,240,2.0,45.0
637,54.0,0,240,6.0,60.0
638,66.0,0,240,4.0,60.0
639,66.0,0,240,5.0,45.0
640,63.0,0,240,5.0,45.0
641,63.0,0,240,6.0,60.0
642,66.0,0,240,2.0,45.0
643,63.0,0,240,4.0,60.0
644,57.0,0,240,6.0,60.0
645,76.0,0,115,10.0,60.0
646,76.0,0,115,11.0,60.0
647,88.0,120,120,11.0,62.0
648,88.0,0,120,10.0,62.0
649,87.0,120,120,11.0,64.0
650,87.0,0,120,10.0,64.0
651,85.0,0,115,10.0,66.0
652,85.0,120,115,11.0,66.0
653,83.0,120,115,10.0,68.0
654,83.0,0,115,11.0,68.0
655,76.0,120,120,10.0,71.0
656,76.0,0,120,11.0,71.0
657,85.0,120,115,10.0,74.0
658,85.0,0,115,11.0,74.0
659,40.0,0,2280,3.0,45.0
660,47.0,0,2280,3.0,45.0
661,40.0,0,2280,15.0,45.0
662,40.0,0,2280,7.0,45.0
663,47.0,0,2280,14.0,45.0
664,40.0,0,2280,14.0,45.0
665,68.0,0,960,2.0,45.0
666,64.0,120,960,2.0,45.0
667,64.0,0,960,6.0,60.0
668,59.0,0,960,6.0,60.0
669,68.0,0,960,13.0,45.0
670,76.0,120,120,10.0,77.0
671,52.0,0,960,4.0,60.0
672,59.0,0,0,4.0,70.0
673,64.0,0,960,5.0,45.0
674,68.0,0,960,5.0,45.0
675,64.0,0,960,12.0,45.0
676,71.0,0,0,12.0,65.0
677,56.0,0,960,6.0,60.0
678,76.0,0,120,11.0,77.0
679,64.0,0,960,4.0,60.0
680,56.0,0,960,4.0,60.0
681,83.0,0,115,11.0,80.0
682,83.0,0,115,10.0,80.0
683,76.0,120,120,10.0,83.0
684,76.0,0,120,11.0,83.0
685,81.0,120,115,10.0,86.0
686,81.0,0,115,11.0,86.0
687,47.0,0,400,14.0,45.0
688,47.0,0,400,7.0,45.0
689,66.0,0,400,5.0,65.0
690,63.0,0,400,6.0,70.0
691,59.0,0,400,6.0,70.0
692,66.0,0,400,13.0,65.0
693,63.0,120,400,2.0,65.0
694,63.0,0,400,5.0,65.0
695,47.0,0,400,3.0,45.0
696,35.0,0,400,15.0,45.0
697,54.0,0,400,6.0,70.0
698,66.0,0,400,2.0,45.0
699,54.0,0,400,4.0,70.0
700,47.0,0,400,8.0,65.0
701,66.0,0,400,4.0,70.0
702,63.0,0,400,12.0,65.0
703,51.0,0,400,4.0,70.0
704,76.0,120,115,11.0,89.0
705,76.0,0,115,10.0,89.0
706,59.0,0,80,6.0,75.0
707,64.0,0,80,6.0,75.0
708,68.0,0,80,2.0,75.0
709,56.0,0,80,6.0,75.0
710,64.0,0,80,4.0,75.0
711,64.0,0,80,5.0,75.0
712,68.0,0,80,4.0,75.0
713,59.0,0,80,4.0,75.0
714,64.0,0,80,2.0,75.0
715,68.0,0,80,5.0,75.0
716,56.0,0,80,4.0,75.0
717,80.0,0,120,11.0,92.0
718,80.0,120,120,10.0,92.0
719,76.0,0,115,10.0,92.0
720,76.0,120,115,11.0,92.0
721,76.0,0,115,10.0,92.0
722,76.0,0,115,11.0,92.0
723,76.0,120,115,10.0,92.0
724,76.0,0,115,11.0,92.0
725,75.0,0,120,10.0,92.0
726,75.0,120,120,11.0,92.0
727,59.0,0,400,6.0,75.0
728,64.0,0,400,6.0,75.0
729,68.0,0,400,2.0,75.0
730,64.0,120,400,5.0,75.0
731,56.0,0,400,4.0,75.0
732,64.0,0,400,4.0,75.0
733,68.0,0,400,5.0,75.0
734,56.0,0,400,6.0,75.0
735,68.0,0,400,4.0,75.0
736,59.0,0,400,4.0,75.0
737,64.0,0,400,2.0,75.0
738,76.0,0,115,11.0,92.0
739,76.0,120,115,10.0,92.0
740,76.0,120,115,11.0,92.0
741,76.0,0,115,10.0,92.0
742,52.0,0,840,8.0,75.0
743,76.0,0,115,10.0,92.0
744,76.0,120,115,11.0,92.0
745,78.0,0,120,11.0,92.0
746,78.0,120,120,10.0,92.0
747,64.0,0,400,4.0,75.0
748,56.0,0,400,4.0,75.0
749,56.0,0,400,6.0,75.0
750,59.0,0,400,4.0,75.0
751,64.0,0,400,6.0,75.0
752,68.0,0,400,5.0,75.0
753,64.0,0,400,5.0,75.0
754,64.0,0,400,2.0,75.0
755,68.0,0,400,2.0,75.0
756,59.0,0,400,6.0,75.0
757,68.0,0,400,4.0,75.0
758,76.0,120,120,11.0,92.0
759,76.0,0,120,10.0,92.0
760,64.0,0,1320,12.0,75.0
761,75.0,0,120,10.0,92.0
762,75.0,120,120,11.0,92.0
763,71.0,0,1320,12.0,75.0
764,76.0,120,115,10.0,92.0
765,76.0,0,115,11.0,92.0
766,76.0,120,115,10.0,92.0
767,76.0,0,115,11.0,92.0
768,68.0,0,1675,13.0,75.0
769,68.0,0,475,2.0,75.0
770,64.0,0,475,5.0,75.0
771,68.0,0,475,5.0,75.0
772,64.0,0,475,2.0,75.0
773,40.0,0,1675,3.0,75.0
774,47.0,0,1675,3.0,75.0
775,40.0,0,1675,14.0,75.0
776,47.0,0,1675,14.0,75.0
777,64.0,0,475,4.0,75.0
778,56.0,0,475,4.0,75.0
779,56.0,0,475,6.0,75.0
780,76.0,0,115,11.0,92.0
781,76.0,120,115,10.0,92.0
782,68.0,0,475,4.0,75.0
783,59.0,0,475,4.0,75.0
784,64.0,0,475,6.0,75.0
785,59.0,0,475,6.0,75.0
786,80.0,120,115,10.0,92.0
787,80.0,0,115,11.0,92.0
788,76.0,120,115,10.0,92.0
789,76.0,0,115,11.0,92.0
790,64.0,0,240,2.0,92.0
791,52.0,0,240,14.0,92.0
792,56.0,0,240,4.0,92.0
793,64.0,0,240,6.0,92.0
794,64.0,0,240,4.0,92.0
795,68.0,0,240,4.0,92.0
796,59.0,0,0,6.0,92.0
797,56.0,0,240,6.0,92.0
798,52.0,0,240,3.0,92.0
799,68.0,0,240,5.0,92.0
800,64.0,0,240,5.0,92.0
801,68.0,0,240,13.0,92.0
802,68.0,0,240,2.0,92.0
803,78.0,0,115,11.0,92.0
804,78.0,0,115,10.0,92.0
805,76.0,0,115,10.0,92.0
806,76.0,120,115,11.0,92.0
807,63.0,0,240,4.0,92.0
808,66.0,0,240,4.0,92.0
809,63.0,0,240,5.0,92.0
810,66.0,0,240,5.0,92.0
811,66.0,0,240,13.0,92.0
812,63.0,120,240,6.0,92.0
813,66.0,0,240,2.0,92.0
814,51.0,0,240,3.0,92.0
815,51.0,0,240,14.0,92.0
816,54.0,0,240,6.0,92.0
817,63.0,0,240,2.0,92.0
818,80.0,0,115,10.0,92.0
819,80.0,0,115,11.0,92.0
820,76.0,0,115,10.0,92.0
821,76.0,120,115,11.0,92.0
822,68.0,120,240,13.0,92.0
823,68.0,0,240,2.0,92.0
824,71.0,0,960,12.0,75.0
825,64.0,0,240,2.0,92.0
826,56.0,0,240,6.0,92.0
827,64.0,0,240,6.0,92.0
828,59.0,0,240,6.0,92.0
829,52.0,0,240,14.0,92.0
830,68.0,0,240,4.0,92.0
831,64.0,0,0,4.0,92.0
832,68.0,0,240,5.0,92.0
833,64.0,0,0,5.0,92.0
834,52.0,0,240,3.0,92.0
835,81.0,0,115,10.0,92.0
836,81.0,0,115,11.0,92.0
837,76.0,0,115,10.0,92.0
838,76.0,120,115,11.0,92.0
839,61.0,0,240,5.0,92.0
840,64.0,0,240,2.0,92.0
841,61.0,0,240,4.0,92.0
842,52.0,0,240,6.0,92.0
843,64.0,0,240,13.0,92.0
844,49.0,0,240,3.0,92.0
845,59.0,0,0,6.0,92.0
846,61.0,120,240,2.0,92.0
847,49.0,0,240,14.0,92.0
848,61.0,0,240,6.0,92.0
849,78.0,0,115,10.0,92.0
850,78.0,0,115,11.0,92.0
851,71.0,0,400,12.0,75.0
852,76.0,0,115,11.0,92.0
853,66.0,120,235,4.0,92.0
854,51.0,0,235,3.0,92.0
855,54.0,0,235,6.0,92.0
856,63.0,0,235,6.0,92.0
857,66.0,0,235,13.0,92.0
858,66.0,0,235,2.0,92.0
859,63.0,0,235,5.0,92.0
860,63.0,0,235,4.0,92.0
861,51.0,0,235,14.0,92.0
862,76.0,120,115,10.0,92.0
863,63.0,0,235,2.0,92.0
864,66.0,0,235,5.0,92.0
865,40.0,0,0,7.0,45.0
866,40.0,0,0,15.0,45.0
867,68.0,0,80,2.0,45.0
868,56.0,0,80,4.0,60.0
869,68.0,0,80,4.0,60.0
870,59.0,0,80,4.0,60.0
871,64.0,0,80,4.0,60.0
872,64.0,0,80,2.0,45.0
873,80.0,0,120,11.0,92.0
874,80.0,0,120,10.0,92.0
875,76.0,120,80,11.0,60.0
876,76.0,0,80,10.0,60.0
877,76.0,0,80,11.0,60.0
878,76.0,0,80,10.0,60.0
879,52.0,0,400,8.0,45.0
880,76.0,120,80,11.0,60.0
881,76.0,0,80,10.0,60.0
882,75.0,120,120,10.0,60.0
883,75.0,0,120,11.0,60.0
884,59.0,0,400,4.0,60.0
885,64.0,0,400,4.0,60.0
886,56.0,0,400,4.0,60.0
887,68.0,120,400,4.0,60.0
888,64.0,0,400,2.0,45.0
889,68.0,0,400,2.0,45.0
890,76.0,0,80,11.0,60.0
891,76.0,120,80,10.0,60.0
892,76.0,0,80,10.0,60.0
893,76.0,0,80,11.0,60.0
894,76.0,0,80,10.0,60.0
895,76.0,120,80,11.0,60.0
896,78.0,0,120,11.0,60.0
897,78.0,120,120,10.0,60.0
898,68.0,120,400,4.0,60.0
899,64.0,0,400,4.0,60.0
900,68.0,0,400,2.0,45.0
901,59.0,0,400,4.0,60.0
902,56.0,0,400,4.0,60.0
903,64.0,0,400,2.0,45.0
904,76.0,0,120,11.0,60.0
905,76.0,120,120,10.0,60.0
906,64.0,0,1320,12.0,45.0
907,71.0,0,1320,12.0,45.0
908,75.0,0,120,10.0,60.0
909,75.0,0,120,11.0,60.0
910,76.0,0,115,11.0,60.0
911,76.0,120,115,10.0,60.0
912,76.0,0,80,10.0,60.0
913,76.0,120,80,11.0,60.0
914,76.0,120,80,10.0,60.0
915,76.0,0,80,11.0,60.0
916,68.0,120,1675,13.0,60.0
917,68.0,0,475,2.0,45.0
918,47.0,0,1675,3.0,60.0
919,40.0,0,1675,3.0,60.0
920,56.0,0,475,4.0,60.0
921,64.0,0,475,2.0,45.0
922,64.0,0,475,4.0,60.0
923,59.0,0,475,4.0,60.0
924,68.0,120,475,4.0,60.0
925,47.0,0,1675,14.0,60.0
926,40.0,0,1675,14.0,60.0
927,80.0,0,80,10.0,60.0
928,80.0,0,80,11.0,60.0
929,76.0,120,80,11.0,60.0
930,76.0,0,80,10.0,60.0
931,52.0,0,240,3.0,75.0
932,64.0,0,240,2.0,75.0
933,68.0,0,240,2.0,75.0
934,68.0,0,240,13.0,92.0
935,68.0,0,240,4.0,75.0
936,56.0,0,240,4.0,75.0
937,64.0,120,240,4.0,75.0
938,52.0,0,240,14.0,92.0
939,78.0,0,80,10.0,60.0
940,78.0,0,80,11.0,60.0
941,76.0,0,80,11.0,60.0
942,76.0,120,80,10.0,60.0
943,51.0,0,240,14.0,92.0
944,51.0,120,240,3.0,75.0
945,66.0,0,240,2.0,75.0
946,63.0,0,240,4.0,75.0
947,54.0,0,240,4.0,75.0
948,63.0,0,240,2.0,75.0
949,66.0,0,240,4.0,75.0
950,66.0,0,240,13.0,92.0
951,80.0,0,80,10.0,60.0
952,80.0,0,80,11.0,60.0
953,71.0,0,840,12.0,45.0
954,76.0,0,80,10.0,60.0
955,76.0,120,80,11.0,60.0
956,68.0,0,240,13.0,92.0
957,56.0,0,240,4.0,75.0
958,64.0,0,240,4.0,75.0
959,68.0,0,240,4.0,75.0
960,52.0,120,240,14.0,92.0
961,64.0,0,240,2.0,75.0
962,68.0,0,240,2.0,75.0
963,52.0,0,240,3.0,75.0
964,81.0,0,80,11.0,60.0
965,81.0,0,80,10.0,60.0
966,76.0,0,80,10.0,60.0
967,76.0,120,80,11.0,60.0
968,64.0,0,240,2.0,75.0
969,61.0,120,240,4.0,75.0
970,52.0,0,240,4.0,75.0
971,61.0,0,240,2.0,75.0
972,49.0,0,240,14.0,92.0
973,64.0,0,240,4.0,75.0
974,49.0,0,240,3.0,75.0
975,64.0,0,240,13.0,92.0
976,78.0,0,80,10.0,60.0
977,78.0,0,80,11.0,60.0
978,71.0,0,400,12.0,45.0
979,76.0,0,80,11.0,60.0
980,76.0,120,80,10.0,60.0
981,66.0,120,235,4.0,75.0
982,51.0,0,235,14.0,92.0
983,51.0,0,235,3.0,75.0
984,66.0,0,235,13.0,92.0
985,63.0,0,235,2.0,75.0
986,63.0,0,235,4.0,75.0
987,66.0,0,235,2.0,75.0
988,54.0,0,235,4.0,75.0
989,40.0,0,0,15.0,60.0
990,68.0,0,80,2.0,60.0
991,64.0,0,80,6.0,60.0
992,64.0,0,80,2.0,60.0
993,56.0,0,80,6.0,60.0
994,59.0,0,80,6.0,60.0
995,80.0,0,120,10.0,75.0
996,80.0,0,120,11.0,75.0
997,76.0,0,120,11.0,75.0
998,76.0,120,120,10.0,75.0
999,80.0,0,115,10.0,75.0
1000,80.0,0,115,11.0,75.0
1001,76.0,0,115,10.0,75.0
1002,76.0,120,115,11.0,75.0
1003,80.0,120,120,10.0,75.0
1004,80.0,0,120,11.0,75.0
1005,64.0,0,400,6.0,60.0
1006,64.0,120,400,2.0,60.0
1007,68.0,0,400,2.0,60.0
1008,56.0,0,400,6.0,60.0
1009,59.0,0,400,6.0,60.0
1010,76.0,120,120,11.0,75.0
1011,76.0,0,120,10.0,75.0
1012,80.0,0,115,11.0,75.0
1013,80.0,0,115,10.0,75.0
1014,76.0,120,115,11.0,75.0
1015,76.0,0,115,10.0,75.0
1016,80.0,0,120,10.0,75.0
1017,80.0,120,120,11.0,75.0
1018,64.0,0,400,2.0,60.0
1019,64.0,0,400,6.0,60.0
1020,68.0,0,400,2.0,60.0
1021,56.0,120,400,6.0,60.0
1022,59.0,0,400,6.0,60.0
1023,76.0,120,120,11.0,75.0
1024,76.0,0,120,10.0,75.0
1025,64.0,0,80,6.0,60.0
1026,59.0,0,80,6.0,60.0
1027,56.0,0,80,6.0,60.0
1028,64.0,0,80,2.0,60.0
1029,68.0,120,80,2.0,60.0
1030,80.0,0,115,11.0,75.0
1031,80.0,0,115,10.0,75.0
1032,76.0,120,115,11.0,75.0
1033,76.0,0,115,10.0,75.0
1034,59.0,0,1440,4.0,60.0
1035,64.0,0,1440,4.0,60.0
1036,56.0,0,0,4.0,60.0
1037,76.0,0,1440,4.0,60.0
1038,68.0,120,80,2.0,60.0
1039,56.0,0,80,6.0,60.0
1040,63.0,0,80,6.0,60.0
1041,59.0,0,80,6.0,60.0
1042,64.0,0,80,2.0,60.0
1043,80.0,0,120,10.0,75.0
1044,80.0,0,120,11.0,75.0
1045,76.0,0,120,11.0,75.0
1046,76.0,120,120,10.0,75.0
1047,80.0,0,115,11.0,75.0
1048,80.0,0,115,10.0,75.0
1049,75.0,0,115,11.0,75.0
1050,75.0,120,115,10.0,75.0
1051,80.0,120,120,10.0,75.0
1052,80.0,0,120,11.0,75.0
1053,59.0,0,400,6.0,60.0
1054,63.0,0,400,6.0,60.0
1055,56.0,0,400,6.0,60.0
1056,64.0,120,400,2.0,60.0
1057,68.0,0,400,2.0,60.0
1058,76.0,0,120,10.0,75.0
1059,76.0,120,120,11.0,75.0
1060,80.0,0,115,11.0,75.0
1061,80.0,0,115,10.0,75.0
1062,75.0,0,115,10.0,75.0
1063,75.0,120,115,11.0,75.0
1064,80.0,0,120,10.0,75.0
1065,80.0,120,120,11.0,75.0
1066,68.0,0,400,2.0,60.0
1067,63.0,0,400,6.0,60.0
1068,59.0,120,400,6.0,60.0
1069,56.0,0,400,6.0,60.0
1070,64.0,0,400,2.0,60.0
1071,76.0,120,120,11.0,75.0
1072,76.0,0,120,10.0,75.0
1073,64.0,0,80,2.0,60.0
1074,63.0,120,80,6.0,60.0
1075,59.0,0,80,6.0,60.0
1076,68.0,0,80,2.0,60.0
1077,56.0,0,80,6.0,60.0
1078,80.0,0,115,10.0,75.0
1079,80.0,0,115,11.0,75.0
1080,75.0,120,115,11.0,75.0
1081,75.0,0,115,10.0,75.0
1082,59.0,120,0,4.0,60.0
1083,63.0,0,1440,4.0,60.0
1084,75.0,0,1440,4.0,60.0
1085,56.0,0,80,6.0,60.0
1086,62.0,0,80,6.0,60.0
1087,64.0,0,80,2.0,60.0
1088,68.0,0,80,2.0,60.0
1089,59.0,0,80,6.0,60.0
1090,80.0,0,120,10.0,75.0
1091,80.0,0,120,11.0,75.0
1092,76.0,120,120,10.0,75.0
1093,76.0,0,120,11.0,75.0
1094,80.0,0,115,11.0,75.0
1095,80.0,0,115,10.0,75.0
1096,74.0,0,115,10.0,75.0
1097,74.0,120,115,11.0,75.0
1098,80.0,120,120,11.0,75.0
1099,80.0,0,120,10.0,75.0
1100,62.0,0,400,6.0,60.0
1101,59.0,0,400,6.0,60.0
1102,64.0,0,400,2.0,60.0
1103,68.0,0,400,2.0,60.0
1104,56.0,120,400,6.0,60.0
1105,76.0,0,120,10.0,75.0
1106,76.0,120,120,11.0,75.0
1107,80.0,0,115,10.0,75.0
1108,80.0,0,115,11.0,75.0
1109,74.0,0,115,11.0,75.0
1110,74.0,120,115,10.0,75.0
1111,80.0,0,120,11.0,75.0
1112,80.0,120,120,10.0,75.0
1113,62.0,0,400,6.0,60.0
1114,59.0,0,400,6.0,60.0
1115,64.0,0,400,2.0,60.0
1116,68.0,120,400,2.0,60.0
1117,56.0,0,400,6.0,60.0
1118,76.0,120,120,11.0,75.0
1119,76.0,0,120,10.0,75.0
1120,56.0,0,80,6.0,60.0
1121,68.0,0,80,2.0,60.0
1122,62.0,0,80,6.0,60.0
1123,59.0,0,80,6.0,60.0
1124,64.0,0,80,2.0,60.0
1125,80.0,0,115,10.0,75.0
1126,80.0,120,115,11.0,75.0
1127,40.0,0,4200,7.0,60.0
1128,64.0,0,4200,12.0,60.0
1129,68.0,0,4200,13.0,60.0
1130,71.0,0,4200,12.0,60.0
1131,74.0,120,115,11.0,75.0
1132,74.0,0,115,10.0,75.0
1133,47.0,120,4320,14.0,60.0
1134,47.0,0,4320,3.0,60.0
1135,74.0,0,1440,4.0,60.0
1136,62.0,0,1440,4.0,60.0
1137,56.0,0,1440,4.0,60.0
1138,61.0,0,80,6.0,60.0
1139,64.0,0,80,2.0,60.0
1140,57.0,0,80,6.0,60.0
1141,69.0,120,80,2.0,60.0
1142,64.0,0,80,6.0,60.0
1143,81.0,0,120,10.0,75.0
1144,81.0,0,120,11.0,75.0
1145,76.0,120,120,11.0,76.0
1146,76.0,0,120,10.0,76.0
1147,81.0,0,115,11.0,77.0
1148,81.0,0,115,10.0,77.0
1149,73.0,120,115,11.0,78.0
1150,73.0,0,115,10.0,78.0
1151,81.0,120,120,10.0,79.0
1152,81.0,0,120,11.0,79.0
1153,64.0,0,400,2.0,62.0
1154,61.0,0,400,6.0,62.0
1155,57.0,0,400,6.0,62.0
1156,69.0,0,400,2.0,62.0
1157,64.0,120,400,6.0,62.0
1158,76.0,120,120,11.0,80.0
1159,76.0,0,120,10.0,80.0
1160,81.0,0,115,10.0,81.0
1161,81.0,120,115,11.0,81.0
1162,73.0,120,115,11.0,82.0
1163,73.0,0,115,10.0,82.0
1164,81.0,0,120,11.0,84.0
1165,81.0,120,120,10.0,84.0
1166,64.0,0,400,2.0,67.0
1167,69.0,0,400,2.0,67.0
1168,64.0,0,400,6.0,67.0
1169,57.0,0,400,6.0,67.0
1170,61.0,0,400,6.0,67.0
1171,76.0,0,115,11.0,86.0
1172,76.0,120,115,10.0,86.0
1173,57.0,0,80,6.0,72.0
1174,69.0,120,80,2.0,72.0
1175,64.0,0,80,6.0,72.0
1176,61.0,0,80,6.0,72.0
1177,64.0,0,80,2.0,72.0
1178,81.0,0,115,10.0,88.0
1179,81.0,0,115,11.0,88.0
1180,57.0,0,1320,4.0,60.0
1181,40.0,0,5640,3.0,60.0
1182,64.0,0,1320,4.0,60.0
1183,69.0,0,1320,12.0,60.0
1184,64.0,0,1320,12.0,60.0
1185,33.0,0,1320,15.0,60.0
1186,49.0,0,1320,14.0,60.0
1187,40.0,0,5640,14.0,60.0
1188,49.0,0,1320,3.0,60.0
1189,61.0,0,1320,4.0,60.0
1190,64.0,0,1320,13.0,60.0
1191,33.0,0,1320,7.0,60.0
1192,73.0,0,1320,4.0,60.0
1193,73.0,120,115,11.0,90.0
1194,73.0,0,115,10.0,90.0
1195,64.0,0,80,2.0,75.0
1196,59.0,0,80,6.0,75.0
1197,68.0,120,80,2.0,75.0
1198,64.0,0,80,6.0,75.0
1199,56.0,0,80,6.0,75.0
1200,81.0,0,120,10.0,92.0
1201,81.0,0,120,11.0,92.0
1202,76.0,0,120,10.0,92.0
1203,76.0,120,120,11.0,92.0
1204,81.0,0,115,10.0,92.0
1205,81.0,0,115,11.0,92.0
1206,71.0,120,115,10.0,92.0
1207,71.0,0,115,11.0,92.0
1208,81.0,120,120,10.0,92.0
1209,81.0,0,120,11.0,92.0
1210,59.0,0,400,6.0,75.0
1211,68.0,0,400,2.0,75.0
1212,64.0,0,400,2.0,75.0
1213,64.0,0,400,6.0,75.0
1214,56.0,120,400,6.0,75.0
1215,76.0,120,120,10.0,92.0
1216,76.0,0,120,11.0,92.0
1217,81.0,0,115,10.0,92.0
1218,81.0,120,115,11.0,92.0
1219,71.0,120,115,11.0,92.0
1220,71.0,0,115,10.0,92.0
1221,81.0,120,120,11.0,92.0
1222,81.0,0,120,10.0,92.0
1223,64.0,0,400,2.0,75.0
1224,68.0,0,400,2.0,75.0
1225,56.0,0,400,6.0,75.0
1226,59.0,0,400,6.0,75.0
1227,64.0,0,400,6.0,75.0
1228,76.0,0,120,10.0,92.0
1229,76.0,120,120,11.0,92.0
1230,56.0,0,80,6.0,75.0
1231,68.0,0,80,2.0,75.0
1232,64.0,120,80,6.0,75.0
1233,59.0,0,80,6.0,75.0
1234,64.0,0,80,2.0,75.0
1235,81.0,0,115,11.0,92.0
1236,81.0,0,115,10.0,92.0
1237,71.0,120,115,11.0,92.0
1238,71.0,0,115,10.0,92.0
1239,71.0,0,1440,4.0,75.0
1240,64.0,0,1440,4.0,75.0
1241,59.0,120,0,4.0,75.0
1242,47.0,0,1440,3.0,75.0
1243,40.0,0,1440,3.0,75.0
1244,56.0,0,0,4.0,75.0
1245,56.0,0,1440,13.0,75.0
1246,40.0,0,1440,14.0,75.0
1247,47.0,0,1440,14.0,75.0
1248,40.0,0,0,7.0,75.0
1249,40.0,0,1440,15.0,75.0
1250,64.0,0,0,12.0,75.0
1251,59.0,0,0,12.0,75.0
1252,68.0,0,80,2.0,75.0
1253,64.0,0,80,2.0,75.0
1254,56.0,0,80,6.0,75.0
1255,64.0,0,80,6.0,75.0
1256,59.0,0,80,6.0,75.0
1257,80.0,0,120,11.0,92.0
1258,80.0,0,120,10.0,92.0
1259,76.0,120,120,11.0,90.0
1260,76.0,0,120,10.0,90.0
1261,80.0,0,115,11.0,88.0
1262,80.0,0,115,10.0,88.0
1263,71.0,0,115,10.0,86.0
1264,71.0,120,115,11.0,86.0
1265,80.0,0,120,11.0,84.0
1266,80.0,120,120,10.0,84.0
1267,64.0,0,400,2.0,70.0
1268,68.0,0,400,2.0,70.0
1269,56.0,120,400,6.0,70.0
1270,64.0,0,400,6.0,70.0
1271,59.0,0,400,6.0,70.0
1272,76.0,0,120,10.0,81.0
1273,76.0,120,120,11.0,81.0
1274,80.0,120,115,11.0,78.0
1275,80.0,0,115,10.0,78.0
1276,71.0,0,115,11.0,75.0
1277,71.0,120,115,10.0,75.0
1278,80.0,0,120,10.0,72.0
1279,80.0,120,120,11.0,72.0
1280,59.0,0,400,6.0,60.0
1281,64.0,0,400,2.0,60.0
1282,64.0,0,400,6.0,60.0
1283,68.0,0,400,2.0,60.0
1284,56.0,0,400,6.0,60.0
1285,76.0,0,120,11.0,69.0
1286,76.0,120,120,10.0,69.0
1287,56.0,0,80,6.0,50.0
1288,68.0,0,80,2.0,50.0
1289,64.0,0,80,2.0,50.0
1290,64.0,120,80,6.0,50.0
1291,59.0,0,80,6.0,50.0
1292,80.0,0,115,10.0,66.0
1293,80.0,0,115,11.0,66.0
1294,47.0,0,1320,3.0,75.0
1295,40.0,0,1320,3.0,75.0
1296,56.0,0,1320,13.0,75.0
1297,71.0,0,1320,4.0,75.0
1298,40.0,0,1320,15.0,75.0
1299,64.0,0,1320,4.0,75.0
1300,40.0,0,1320,14.0,75.0
1301,47.0,0,1320,14.0,75.0
1302,71.0,120,115,10.0,63.0
1303,71.0,0,115,11.0,63.0
1304,57.0,0,80,6.0,45.0
1305,61.0,0,80,6.0,45.0
1306,69.0,0,80,2.0,45.0
1307,64.0,0,80,6.0,45.0
1308,64.0,0,80,2.0,45.0
1309,80.0,120,120,10.0,60.0
1310,80.0,0,120,11.0,60.0
1311,76.0,0,120,10.0,60.0
1312,76.0,120,120,11.0,60.0
1313,80.0,0,115,11.0,60.0
1314,80.0,120,115,10.0,60.0
1315,69.0,120,115,11.0,60.0
1316,69.0,0,115,10.0,60.0
1317,80.0,120,120,10.0,60.0
1318,80.0,0,120,11.0,60.0
1319,69.0,0,400,2.0,45.0
1320,57.0,0,400,6.0,45.0
1321,64.0,0,400,6.0,45.0
1322,64.0,0,400,2.0,45.0
1323,61.0,0,400,6.0,45.0
1324,76.0,120,120,10.0,60.0
1325,76.0,0,120,11.0,60.0
1326,80.0,0,115,10.0,60.0
1327,80.0,0,115,11.0,60.0
1328,69.0,120,115,10.0,60.0
1329,69.0,0,115,11.0,60.0
1330,80.0,120,120,10.0,60.0
1331,80.0,0,120,11.0,60.0
1332,61.0,0,400,6.0,45.0
1333,64.0,0,400,6.0,45.0
1334,57.0,0,400,6.0,45.0
1335,64.0,120,400,2.0,45.0
1336,69.0,0,400,2.0,45.0
1337,76.0,0,120,10.0,60.0
1338,76.0,120,120,11.0,60.0
1339,64.0,0,80,6.0,45.0
1340,61.0,0,80,6.0,45.0
1341,64.0,0,80,2.0,45.0
1342,57.0,0,80,6.0,45.0
1343,69.0,0,80,2.0,45.0
1344,80.0,120,115,10.0,60.0
1345,80.0,0,115,11.0,60.0
1346,33.0,0,1320,15.0,45.0
1347,69.0,0,115,10.0,60.0
1348,69.0,120,115,11.0,60.0
1349,64.0,0,1440,12.0,45.0
1350,61.0,0,1440,12.0,45.0
1351,49.0,0,1440,14.0,45.0
1352,69.0,0,0,4.0,60.0
1353,40.0,0,1440,14.0,45.0
1354,57.0,0,1440,13.0,45.0
1355,40.0,0,1440,7.0,45.0
1356,73.0,0,1440,4.0,60.0
1357,64.0,0,1440,4.0,60.0
1358,40.0,0,1440,3.0,45.0
1359,49.0,0,0,3.0,45.0
1360,61.0,0,0,4.0,60.0
1361,57.0,0,80,6.0,45.0
1362,66.0,0,80,6.0,45.0
1363,66.0,0,80,2.0,45.0
1364,61.0,0,80,6.0,45.0
1365,69.0,0,80,2.0,45.0
1366,78.0,0,120,11.0,60.0
1367,78.0,0,120,10.0,60.0
1368,76.0,120,120,11.0,60.0
1369,76.0,0,120,10.0,60.0
1370,78.0,120,115,11.0,60.0
1371,78.0,0,115,10.0,60.0
1372,69.0,120,115,11.0,60.0
1373,69.0,0,115,10.0,60.0
1374,78.0,0,120,11.0,60.0
1375,78.0,120,120,10.0,60.0
1376,69.0,0,400,2.0,45.0
1377,66.0,0,400,6.0,45.0
1378,61.0,0,400,6.0,45.0
1379,57.0,0,400,6.0,45.0
1380,66.0,0,400,2.0,45.0
1381,76.0,0,120,10.0,60.0
1382,76.0,120,120,11.0,60.0
1383,78.0,0,115,11.0,60.0
1384,78.0,0,115,10.0,60.0
1385,69.0,120,115,10.0,60.0
1386,69.0,0,115,11.0,60.0
1387,78.0,120,120,10.0,60.0
1388,78.0,0,120,11.0,60.0
1389,66.0,0,400,6.0,45.0
1390,61.0,0,400,6.0,45.0
1391,57.0,0,400,6.0,45.0
1392,66.0,0,400,2.0,45.0
1393,69.0,120,400,2.0,45.0
1394,76.0,0,120,11.0,60.0
1395,76.0,120,120,10.0,60.0
1396,66.0,0,80,6.0,45.0
1397,69.0,0,80,2.0,45.0
1398,57.0,0,80,6.0,45.0
1399,61.0,0,80,6.0,45.0
1400,66.0,0,80,2.0,45.0
1401,78.0,0,115,10.0,60.0
1402,78.0,120,115,11.0,60.0
1403,61.0,0,1320,12.0,45.0
1404,54.0,0,1320,13.0,45.0
1405,42.0,120,1320,15.0,45.0
1406,57.0,0,1320,12.0,45.0
1407,69.0,120,115,11.0,60.0
1408,69.0,0,115,10.0,60.0
1409,75.0,0,1440,4.0,60.0
1410,42.0,0,1440,14.0,45.0
1411,49.0,0,1440,14.0,45.0
1412,42.0,0,1440,7.0,45.0
1413,66.0,0,1440,4.0,60.0
1414,42.0,0,1440,3.0,45.0
1415,59.0,0,80,6.0,45.0
1416,66.0,0,80,6.0,45.0
1417,56.0,0,80,6.0,45.0
1418,64.0,0,80,2.0,45.0
1419,68.0,0,80,2.0,45.0
1420,78.0,0,120,11.0,60.0
1421,78.0,0,120,10.0,60.0
1422,76.0,120,120,11.0,60.0
1423,76.0,0,120,10.0,60.0
1424,78.0,0,115,10.0,60.0
1425,78.0,0,115,11.0,60.0
1426,68.0,120,115,11.0,60.0
1427,68.0,0,115,10.0,60.0
1428,78.0,0,120,10.0,60.0
1429,78.0,120,120,11.0,60.0
1430,56.0,0,400,6.0,45.0
1431,68.0,120,400,2.0,45.0
1432,66.0,0,400,6.0,45.0
1433,59.0,0,400,6.0,45.0
1434,64.0,0,400,2.0,45.0
1435,76.0,120,120,11.0,60.0
1436,76.0,0,120,10.0,60.0
1437,78.0,0,115,10.0,60.0
1438,78.0,0,115,11.0,60.0
1439,68.0,0,115,10.0,60.0
1440,68.0,120,115,11.0,60.0
1441,78.0,120,120,11.0,60.0
1442,78.0,0,120,10.0,60.0
1443,68.0,120,400,2.0,45.0
1444,56.0,0,400,6.0,45.0
1445,64.0,0,400,2.0,45.0
1446,59.0,0,400,6.0,45.0
1447,66.0,0,400,6.0,45.0
1448,76.0,120,120,10.0,60.0
1449,76.0,0,120,11.0,60.0
1450,66.0,0,80,6.0,45.0
1451,64.0,120,80,2.0,45.0
1452,56.0,0,80,6.0,45.0
1453,68.0,0,80,2.0,45.0
1454,59.0,0,80,6.0,45.0
1455,78.0,0,115,10.0,60.0
1456,78.0,0,115,11.0,60.0
1457,35.0,0,1320,15.0,45.0
1458,68.0,0,115,11.0,60.0
1459,68.0,120,115,10.0,60.0
1460,75.0,0,1440,4.0,60.0
1461,64.0,0,0,4.0,60.0
1462,69.0,0,1440,4.0,60.0
1463,59.0,0,1440,4.0,60.0
1464,59.0,0,80,6.0,45.0
1465,64.0,120,80,2.0,45.0
1466,56.0,0,80,6.0,45.0
1467,68.0,0,80,2.0,45.0
1468,64.0,0,80,6.0,45.0
1469,76.0,120,0,11.0,60.0
1470,76.0,0,120,10.0,60.0
1471,76.0,0,120,10.0,60.0
1472,76.0,0,115,10.0,60.0
1473,76.0,0,115,11.0,60.0
1474,68.0,120,115,11.0,60.0
1475,68.0,0,115,10.0,60.0
1476,76.0,120,0,11.0,60.0
1477,76.0,0,0,10.0,60.0
1478,56.0,120,400,6.0,45.0
1479,59.0,0,400,6.0,45.0
1480,64.0,0,400,6.0,45.0
1481,64.0,0,400,2.0,45.0
1482,68.0,0,400,2.0,45.0
1483,76.0,120,0,11.0,60.0
1484,76.0,0,115,10.0,60.0
1485,68.0,0,115,10.0,60.0
1486,68.0,120,115,11.0,60.0
1487,76.0,120,120,10.0,60.0
1488,76.0,120,0,11.0,60.0
1489,64.0,0,400,2.0,45.0
1490,56.0,0,400,6.0,45.0
1491,68.0,0,400,2.0,45.0
1492,59.0,0,400,6.0,45.0
1493,64.0,0,400,6.0,45.0
1494,76.0,0,120,10.0,60.0
1495,76.0,0,0,11.0,60.0
1496,64.0,0,80,6.0,45.0
1497,68.0,0,80,2.0,45.0
1498,56.0,0,80,6.0,45.0
1499,59.0,120,80,6.0,45.0
1500,64.0,0,80,2.0,45.0
1501,76.0,0,115,10.0,60.0
1502,64.0,0,2760,12.0,45.0
1503,56.0,0,2760,13.0,45.0
1504,59.0,0,2760,12.0,45.0
1505,68.0,120,115,10.0,60.0
1506,68.0,0,115,11.0,60.0
1507,40.0,0,2880,14.0,45.0
1508,68.0,0,1440,4.0,60.0
1509,61.0,0,1440,4.0,60.0
1510,40.0,0,1440,15.0,45.0
1511,40.0,0,2880,7.0,45.0
1512,47.0,0,0,14.0,45.0
1513,47.0,0,2880,3.0,45.0
1514,40.0,0,2880,3.0,45.0
1515,64.0,0,80,2.0,45.0
1516,59.0,0,80,6.0,45.0
1517,71.0,0,80,2.0,45.0
1518,66.0,0,80,6.0,45.0
1519,64.0,0,80,6.0,45.0
1520,76.0,0,120,10.0,60.0
1521,76.0,120,120,11.0,60.0
1522,76.0,0,0,11.0,60.0
1523,76.0,0,0,10.0,60.0
1524,66.0,0,115,10.0,60.0
1525,66.0,120,115,11.0,60.0
1526,76.0,120,0,10.0,60.0
1527,76.0,120,120,11.0,60.0
1528,59.0,120,400,6.0,45.0
1529,66.0,0,400,6.0,45.0
1530,64.0,0,400,2.0,45.0
1531,64.0,0,400,6.0,45.0
1532,71.0,0,400,2.0,45.0
1533,76.0,0,120,11.0,60.0
1534,76.0,0,115,10.0,60.0
1535,76.0,0,115,11.0,60.0
1536,66.0,0,115,11.0,60.0
1537,66.0,120,115,10.0,60.0
1538,76.0,120,0,10.0,60.0
1539,76.0,0,0,11.0,60.0
1540,64.0,0,400,6.0,45.0
1541,66.0,0,400,6.0,45.0
1542,64.0,0,400,2.0,45.0
1543,59.0,120,400,6.0,45.0
1544,71.0,0,400,2.0,45.0
1545,76.0,0,0,11.0,60.0
1546,76.0,0,0,10.0,60.0
1547,71.0,0,80,2.0,45.0
1548,66.0,0,80,6.0,45.0
1549,64.0,120,80,6.0,45.0
1550,64.0,0,80,2.0,45.0
1551,59.0,0,80,6.0,45.0
1552,66.0,120,115,11.0,60.0
1553,66.0,0,115,10.0,60.0
1554,42.0,0,1440,15.0,45.0
1555,61.0,0,1440,4.0,60.0
1556,66.0,0,1440,4.0,60.0
1557,47.0,0,0,14.0,45.0
1558,54.0,120,0,14.0,45.0
1559,42.0,0,1440,7.0,45.0
1560,52.0,0,1440,13.0,45.0
1561,73.0,0,2880,4.0,60.0
1562,47.0,0,0,3.0,45.0
1563,54.0,0,0,3.0,45.0
1564,71.0,0,80,2.0,45.0
1565,63.0,0,80,6.0,45.0
1566,66.0,0,80,6.0,45.0
1567,59.0,0,80,6.0,45.0
1568,66.0,0,80,2.0,45.0
1569,75.0,0,120,11.0,60.0
1570,75.0,0,120,10.0,60.0
1571,76.0,0,120,11.0,60.0
1572,76.0,120,120,10.0,60.0
1573,75.0,0,80,10.0,60.0
1574,75.0,0,80,11.0,60.0
1575,35.0,0,400,7.0,45.0
1576,35.0,0,400,15.0,45.0
1577,66.0,120,80,10.0,60.0
1578,66.0,0,80,11.0,60.0
1579,75.0,120,120,11.0,60.0
1580,75.0,0,120,10.0,60.0
1581,63.0,0,400,6.0,45.0
1582,71.0,120,400,2.0,45.0
1583,59.0,0,400,6.0,45.0
1584,66.0,0,400,2.0,45.0
1585,66.0,0,400,6.0,45.0
1586,76.0,120,120,11.0,60.0
1587,76.0,0,120,10.0,60.0
1588,75.0,0,80,10.0,60.0
1589,75.0,120,80,11.0,60.0
1590,39.0,0,400,15.0,45.0
1591,51.0,0,400,3.0,45.0
1592,39.0,0,400,7.0,45.0
1593,51.0,0,400,14.0,45.0
1594,66.0,0,80,11.0,60.0
1595,66.0,120,80,10.0,60.0
1596,75.0,0,120,10.0,60.0
1597,75.0,0,120,11.0,60.0
1598,66.0,0,400,2.0,45.0
1599,71.0,0,400,2.0,45.0
1600,59.0,0,400,6.0,45.0
1601,66.0,0,400,6.0,45.0
1602,63.0,0,400,6.0,45.0
1603,76.0,0,120,11.0,60.0
1604,76.0,120,120,10.0,60.0
1605,63.0,0,80,6.0,45.0
1606,66.0,0,80,6.0,45.0
1607,75.0,120,80,11.0,60.0
1608,71.0,0,80,2.0,45.0
1609,75.0,0,80,10.0,60.0
1610,59.0,0,80,6.0,45.0
1611,66.0,0,80,2.0,45.0
1612,59.0,0,2760,12.0,45.0
1613,51.0,0,1320,13.0,45.0
1614,54.0,120,360,3.0,45.0
1615,54.0,0,360,14.0,45.0
1616,59.0,0,1320,4.0,60.0
1617,71.0,0,1320,4.0,60.0
1618,63.0,0,1320,4.0,60.0
1619,66.0,0,1320,4.0,60.0
1620,47.0,0,400,8.0,60.0
1621,42.0,0,400,7.0,45.0
1622,42.0,0,400,15.0,45.0
1623,66.0,120,80,11.0,60.0
1624,66.0,0,80,10.0,60.0
1625,64.0,0,115,10.0,92.0
1626,64.0,120,115,11.0,92.0
1627,64.0,0,235,2.0,75.0
1628,66.0,0,115,10.0,92.0
1629,71.0,0,235,2.0,75.0
1630,66.0,120,115,11.0,92.0
1631,64.0,0,115,10.0,92.0
1632,64.0,0,115,11.0,92.0
1633,76.0,120,120,1.0,92.0
1634,76.0,0,120,2.0,92.0
1635,88.0,0,120,0.0,92.0
1636,52.0,0,400,4.0,75.0
1637,40.0,0,400,15.0,75.0
1638,52.0,0,400,8.0,75.0
1639,59.0,0,400,12.0,75.0
1640,64.0,0,400,4.0,75.0
1641,59.0,0,400,4.0,75.0
1642,64.0,0,400,6.0,75.0
1643,68.0,0,400,6.0,75.0
1644,56.0,0,400,4.0,75.0
1645,40.0,0,400,14.0,75.0
1646,52.0,0,400,13.0,75.0
1647,59.0,0,400,6.0,75.0
1648,40.0,0,400,7.0,75.0
1649,47.0,0,400,14.0,75.0
1650,40.0,0,400,3.0,75.0
1651,64.0,0,400,5.0,75.0
1652,68.0,0,400,5.0,75.0
1653,87.0,0,120,0.0,92.0
1654,75.0,0,120,1.0,92.0
1655,66.0,120,120,10.0,92.0
1656,75.0,0,120,2.0,92.0
1657,66.0,0,120,11.0,92.0
1658,76.0,0,80,1.0,92.0
1659,88.0,120,80,0.0,92.0
1660,76.0,0,80,2.0,92.0
1661,68.0,0,120,10.0,92.0
1662,68.0,0,120,11.0,92.0
1663,71.0,0,115,11.0,92.0
1664,71.0,120,115,10.0,92.0
1665,71.0,120,80,2.0,92.0
1666,83.0,0,80,0.0,92.0
1667,71.0,0,80,1.0,92.0
1668,64.0,0,115,11.0,92.0
1669,64.0,0,115,10.0,92.0
1670,66.0,0,120,10.0,92.0
1671,66.0,120,120,11.0,92.0
1672,80.0,0,80,0.0,92.0
1673,68.0,0,80,2.0,92.0
1674,68.0,0,80,1.0,92.0
1675,68.0,0,120,11.0,92.0
1676,68.0,120,120,10.0,92.0
1677,71.0,120,115,11.0,92.0
1678,71.0,0,115,10.0,92.0
1679,71.0,0,80,1.0,92.0
1680,71.0,0,80,2.0,92.0
1681,83.0,120,80,0.0,92.0
1682,64.0,0,115,11.0,92.0
1683,64.0,0,115,10.0,92.0
1684,66.0,0,115,10.0,92.0
1685,66.0,120,115,11.0,92.0
1686,76.0,0,80,0.0,92.0
1687,64.0,120,80,1.0,92.0
1688,64.0,0,80,2.0,92.0
1689,68.0,0,115,11.0,92.0
1690,68.0,0,115,10.0,92.0
1691,69.0,120,115,10.0,92.0
1692,69.0,0,115,11.0,92.0
1693,68.0,0,120,10.0,92.0
1694,68.0,0,120,11.0,92.0
1695,64.0,0,120,2.0,92.0
1696,76.0,120,120,2.0,92.0
1697,52.0,0,400,8.0,78.0
1698,40.0,0,400,3.0,81.0
1699,63.0,0,400,5.0,78.0
1700,56.0,0,400,13.0,78.0
1701,40.0,0,400,7.0,78.0
1702,59.0,0,400,12.0,78.0
1703,59.0,0,400,4.0,78.0
1704,64.0,0,400,12.0,78.0
1705,40.0,0,400,15.0,78.0
1706,68.0,0,400,5.0,78.0
1707,63.0,0,400,4.0,78.0
1708,68.0,0,400,6.0,78.0
1709,63.0,0,400,6.0,78.0
1710,40.0,0,400,14.0,78.0
1711,47.0,0,400,14.0,78.0
1712,59.0,0,400,6.0,78.0
1713,56.0,0,400,4.0,78.0
1714,52.0,0,400,4.0,78.0
1715,63.0,120,120,2.0,92.0
1716,69.0,0,120,10.0,92.0
1717,75.0,0,120,2.0,92.0
1718,69.0,0,120,11.0,92.0
1719,64.0,120,80,2.0,92.0
1720,76.0,0,80,2.0,92.0
1721,71.0,0,115,10.0,92.0
1722,71.0,0,115,11.0,92.0
1723,76.0,0,115,11.0,92.0
1724,76.0,120,115,10.0,92.0
1725,59.0,120,80,2.0,92.0
1726,71.0,0,80,2.0,92.0
1727,68.0,0,120,10.0,92.0
1728,68.0,0,120,11.0,92.0
1729,69.0,0,120,11.0,92.0
1730,69.0,120,120,10.0,92.0
1731,68.0,120,80,2.0,92.0
1732,56.0,0,80,2.0,92.0
1733,71.0,0,115,11.0,92.0
1734,71.0,0,115,10.0,92.0
1735,76.0,0,115,10.0,93.0
1736,76.0,120,115,11.0,93.0
1737,59.0,0,80,2.0,92.0
1738,71.0,120,80,2.0,92.0
1739,68.0,0,115,11.0,94.0
1740,68.0,0,115,10.0,94.0
1741,69.0,120,115,11.0,95.0
1742,69.0,0,115,10.0,95.0
1743,40.0,0,80,3.0,90.0
1744,64.0,0,80,2.0,92.0
1745,52.0,0,80,2.0,92.0
1746,71.0,0,115,11.0,96.0
1747,71.0,0,115,10.0,96.0
1748,73.0,120,115,11.0,97.0
1749,73.0,0,115,10.0,97.0
1750,64.0,0,120,2.0,92.0
1751,52.0,0,120,3.0,92.0
1752,71.0,0,120,11.0,98.0
1753,71.0,120,120,10.0,98.0
1754,56.0,0,400,4.0,82.0
1755,52.0,0,400,4.0,82.0
1756,59.0,120,400,4.0,82.0
1757,68.0,0,400,12.0,82.0
1758,62.0,0,400,5.0,82.0
1759,68.0,0,400,5.0,82.0
1760,64.0,0,400,12.0,82.0
1761,62.0,0,400,4.0,82.0
1762,47.0,0,400,14.0,82.0
1763,68.0,0,400,6.0,82.0
1764,62.0,0,400,6.0,82.0
1765,59.0,0,400,6.0,82.0
1766,40.0,0,400,14.0,82.0
1767,40.0,0,400,15.0,82.0
1768,59.0,0,400,13.0,82.0
1769,52.0,0,400,8.0,82.0
1770,40.0,0,400,7.0,82.0
1771,73.0,0,120,11.0,99.0
1772,63.0,120,120,2.0,92.0
1773,51.0,0,120,3.0,92.0
1774,73.0,0,120,10.0,99.0
1775,64.0,0,80,2.0,92.0
1776,52.0,0,80,3.0,92.0
1777,74.0,120,115,11.0,100.0
1778,74.0,0,115,10.0,100.0
1779,80.0,120,115,10.0,101.0
1780,80.0,0,115,11.0,101.0
1781,47.0,0,80,3.0,92.0
1782,59.0,0,80,2.0,92.0
1783,71.0,0,120,11.0,102.0
1784,71.0,120,120,10.0,102.0
1785,73.0,0,120,11.0,103.0
1786,73.0,120,120,10.0,103.0
1787,56.0,0,80,2.0,92.0
1788,44.0,0,80,3.0,92.0
1789,74.0,0,115,10.0,104.0
1790,74.0,120,115,11.0,104.0
1791,80.0,120,115,11.0,105.0
1792,80.0,0,115,10.0,105.0
1793,47.0,120,80,3.0,92.0
1794,59.0,0,80,2.0,92.0
1795,71.0,0,115,11.0,106.0
1796,71.0,0,115,10.0,106.0
1797,73.0,120,115,10.0,107.0
1798,73.0,0,115,11.0,107.0
1799,40.0,120,80,3.0,92.0
1800,52.0,0,80,2.0,92.0
1801,74.0,0,115,11.0,108.0
1802,74.0,0,115,10.0,108.0
1803,83.0,0,115,10.0,108.0
1804,83.0,120,115,11.0,108.0
1805,80.0,0,115,10.0,108.0
1806,80.0,120,115,11.0,108.0
1807,76.0,0,115,11.0,108.0
1808,76.0,120,115,10.0,108.0
1809,74.0,0,115,10.0,108.0
1810,74.0,120,115,11.0,108.0
1811,71.0,120,115,10.0,108.0
1812,71.0,0,115,11.0,108.0
1813,68.0,0,115,11.0,108.0
1814,68.0,120,115,10.0,108.0
1815,64.0,0,115,10.0,108.0
1816,64.0,120,115,11.0,108.0
1817,62.0,0,115,11.0,108.0
1818,62.0,0,115,10.0,108.0
1819,61.0,120,115,10.0,108.0
1820,61.0,0,115,11.0,108.0
1821,62.0,0,115,10.0,108.0
1822,62.0,120,115,11.0,108.0
1823,52.0,0,400,8.0,92.0
1824,59.0,0,115,11.0,108.0
1825,59.0,120,115,10.0,108.0
1826,59.0,0,480,12.0,92.0
1827,44.0,0,480,14.0,92.0
1828,37.0,0,480,14.0,92.0
1829,64.0,120,480,4.0,92.0
1830,59.0,0,480,4.0,92.0
1831,59.0,0,480,6.0,92.0
1832,64.0,0,480,12.0,92.0
1833,37.0,0,480,15.0,92.0
1834,68.0,0,480,5.0,92.0
1835,37.0,0,480,7.0,92.0
1836,52.0,0,480,4.0,92.0
1837,56.0,0,0,4.0,45.0
1838,68.0,0,0,6.0,45.0
1839,62.0,0,480,6.0,92.0
1840,56.0,0,480,13.0,92.0
1841,37.0,0,0,3.0,45.0
1842,71.0,0,480,5.0,92.0
1843,61.0,0,120,10.0,60.0
1844,61.0,0,120,11.0,60.0
1845,63.0,120,120,10.0,60.0
1846,63.0,0,120,11.0,60.0
1847,61.0,0,115,10.0,60.0
1848,61.0,0,115,11.0,60.0
1849,73.0,120,120,2.0,75.0
1850,73.0,0,120,1.0,75.0
1851,85.0,0,120,0.0,75.0
1852,61.0,0,400,4.0,45.0
1853,65.0,0,400,6.0,45.0
1854,61.0,0,400,6.0,45.0
1855,56.0,0,400,13.0,45.0
1856,37.0,0,400,7.0,45.0
1857,37.0,0,400,15.0,45.0
1858,44.0,0,400,14.0,45.0
1859,68.0,0,400,5.0,45.0
1860,65.0,0,400,4.0,45.0
1861,49.0,0,400,8.0,45.0
1862,73.0,0,400,5.0,45.0
1863,61.0,0,400,12.0,45.0
1864,53.0,0,400,4.0,45.0
1865,65.0,0,400,12.0,45.0
1866,37.0,120,400,14.0,45.0
1867,63.0,0,115,11.0,60.0
1868,63.0,0,115,10.0,60.0
1869,84.0,0,120,0.0,75.0
1870,72.0,0,120,2.0,75.0
1871,72.0,120,120,1.0,75.0
1872,73.0,0,80,2.0,75.0
1873,85.0,0,80,0.0,75.0
1874,73.0,0,80,1.0,75.0
1875,65.0,0,120,11.0,60.0
1876,65.0,120,120,10.0,60.0
1877,68.0,120,115,10.0,60.0
1878,68.0,0,115,11.0,60.0
1879,68.0,120,80,1.0,75.0
1880,68.0,0,80,2.0,75.0
1881,80.0,0,80,0.0,75.0
1882,61.0,0,115,10.0,60.0
1883,61.0,0,115,11.0,60.0
1884,63.0,0,115,10.0,60.0
1885,63.0,120,115,11.0,60.0
1886,77.0,0,80,0.0,75.0
1887,65.0,120,80,2.0,75.0
1888,65.0,0,80,1.0,75.0
1889,65.0,0,120,11.0,60.0
1890,65.0,0,120,10.0,60.0
1891,68.0,120,115,11.0,60.0
1892,68.0,0,115,10.0,60.0
1893,80.0,0,80,0.0,75.0
1894,68.0,120,80,2.0,75.0
1895,68.0,0,80,1.0,75.0
1896,61.0,0,115,10.0,60.0
1897,61.0,0,115,11.0,60.0
1898,63.0,120,115,10.0,60.0
1899,63.0,0,115,11.0,60.0
1900,61.0,0,80,1.0,75.0
1901,61.0,0,80,2.0,75.0
1902,73.0,0,80,0.0,75.0
1903,65.0,0,120,10.0,60.0
1904,65.0,0,120,11.0,60.0
1905,66.0,0,120,11.0,62.0
1906,66.0,120,120,10.0,62.0
1907,65.0,0,115,10.0,64.0
1908,65.0,0,115,11.0,64.0
1909,61.0,120,120,2.0,75.0
1910,73.0,0,120,2.0,75.0
1911,37.0,0,400,3.0,45.0
1912,68.0,0,400,5.0,45.0
1913,65.0,0,400,4.0,45.0
1914,61.0,0,400,6.0,45.0
1915,37.0,0,400,7.0,45.0
1916,53.0,0,400,4.0,45.0
1917,56.0,0,400,4.0,45.0
1918,68.0,0,400,6.0,45.0
1919,65.0,0,400,6.0,45.0
1920,61.0,0,400,12.0,45.0
1921,68.0,0,400,12.0,45.0
1922,61.0,0,400,4.0,45.0
1923,49.0,0,400,8.0,45.0
1924,56.0,0,400,13.0,45.0
1925,37.0,0,400,14.0,45.0
1926,44.0,0,400,14.0,45.0
1927,37.0,120,400,15.0,45.0
1928,73.0,0,400,5.0,45.0
1929,66.0,0,115,11.0,66.0
1930,66.0,0,115,10.0,66.0
1931,60.0,0,120,2.0,75.0
1932,72.0,120,120,2.0,75.0
1933,73.0,0,80,2.0,75.0
1934,61.0,120,80,2.0,75.0
1935,68.0,0,120,10.0,68.0
1936,68.0,0,120,11.0,68.0
1937,73.0,0,115,11.0,70.0
1938,73.0,120,115,10.0,70.0
1939,68.0,0,80,2.0,75.0
1940,56.0,0,80,2.0,75.0
1941,65.0,120,115,11.0,72.0
1942,65.0,0,115,10.0,72.0
1943,66.0,120,115,10.0,74.0
1944,66.0,0,115,11.0,74.0
1945,65.0,0,80,2.0,75.0
1946,53.0,0,80,2.0,75.0
1947,68.0,120,120,10.0,76.0
1948,68.0,0,120,11.0,76.0
1949,73.0,0,115,11.0,78.0
1950,73.0,120,115,10.0,78.0
1951,68.0,0,80,2.0,75.0
1952,56.0,120,80,2.0,77.0
1953,65.0,0,115,10.0,80.0
1954,65.0,0,115,11.0,80.0
1955,66.0,120,115,10.0,82.0
1956,66.0,0,115,11.0,82.0
1957,49.0,0,80,2.0,79.0
1958,61.0,0,80,2.0,75.0
1959,37.0,0,80,3.0,70.0
1960,68.0,0,120,11.0,84.0
1961,68.0,0,120,10.0,84.0
1962,69.0,120,120,11.0,86.0
1963,69.0,0,120,10.0,86.0
1964,68.0,0,115,11.0,88.0
1965,68.0,0,115,10.0,88.0
1966,61.0,0,120,2.0,81.0
1967,49.0,120,120,3.0,75.0
1968,61.0,0,400,13.0,62.0
1969,65.0,0,400,6.0,62.0
1970,68.0,0,400,5.0,62.0
1971,73.0,0,400,5.0,62.0
1972,37.0,120,400,15.0,62.0
1973,49.0,0,400,8.0,62.0
1974,56.0,0,400,4.0,62.0
1975,56.0,0,400,12.0,62.0
1976,61.0,0,400,4.0,68.0
1977,44.0,0,400,14.0,62.0
1978,53.0,0,400,4.0,62.0
1979,37.0,0,400,7.0,62.0
1980,65.0,0,400,4.0,68.0
1981,65.0,0,400,12.0,62.0
1982,61.0,0,400,6.0,62.0
1983,37.0,0,400,14.0,62.0
1984,68.0,0,400,6.0,62.0
1985,69.0,0,115,10.0,90.0
1986,69.0,0,115,11.0,90.0
1987,48.0,120,120,3.0,75.0
1988,60.0,0,120,2.0,82.0
1989,49.0,120,80,3.0,75.0
1990,61.0,0,80,2.0,83.0
1991,71.0,0,120,11.0,92.0
1992,71.0,0,120,10.0,92.0
1993,77.0,120,115,11.0,94.0
1994,77.0,0,115,10.0,94.0
1995,44.0,0,80,3.0,75.0
1996,56.0,120,80,2.0,85.0
1997,68.0,0,115,11.0,96.0
1998,68.0,0,115,10.0,96.0
1999,69.0,0,115,11.0,98.0
2000,69.0,120,115,10.0,98.0
2001,53.0,120,80,2.0,87.0
2002,41.0,0,80,3.0,75.0
2003,71.0,0,120,10.0,100.0
2004,71.0,0,120,11.0,100.0
2005,77.0,120,115,10.0,102.0
2006,77.0,0,115,11.0,102.0
2007,44.0,120,80,3.0,77.0
2008,56.0,0,80,2.0,89.0
2009,68.0,0,115,10.0,104.0
2010,68.0,0,115,11.0,104.0
2011,69.0,120,115,11.0,106.0
2012,69.0,0,115,10.0,106.0
2013,49.0,0,80,2.0,92.0
2014,37.0,0,80,3.0,80.0
2015,71.0,120,115,10.0,108.0
2016,71.0,0,115,11.0,108.0
2017,80.0,120,120,11.0,108.0
2018,80.0,0,120,10.0,108.0
2019,77.0,0,120,10.0,108.0
2020,77.0,120,120,11.0,108.0
2021,73.0,0,115,10.0,108.0
2022,73.0,120,115,11.0,108.0
2023,83.0,120,115,11.0,108.0
2024,83.0,0,115,10.0,108.0
2025,80.0,120,120,11.0,108.0
2026,80.0,0,120,10.0,108.0
2027,81.0,0,120,10.0,108.0
2028,81.0,120,120,11.0,108.0
2029,78.0,0,115,11.0,108.0
2030,78.0,120,115,10.0,108.0
2031,77.0,0,120,10.0,108.0
2032,77.0,0,120,11.0,108.0
2033,80.0,120,120,10.0,108.0
2034,80.0,0,120,11.0,108.0
2035,73.0,0,115,11.0,108.0
2036,73.0,120,115,10.0,108.0
2037,49.0,0,400,8.0,92.0
2038,71.0,0,115,10.0,108.0
2039,71.0,120,115,11.0,108.0
2040,61.0,0,480,4.0,108.0
2041,37.0,0,480,7.0,92.0
2042,68.0,0,480,6.0,92.0
2043,65.0,0,480,6.0,92.0
2044,61.0,0,480,12.0,92.0
2045,68.0,0,480,12.0,92.0
2046,65.0,0,480,4.0,108.0
2047,68.0,120,480,5.0,92.0
2048,53.0,0,480,13.0,92.0
2049,56.0,0,480,4.0,92.0
2050,53.0,0,480,4.0,92.0
2051,37.0,0,480,14.0,92.0
2052,37.0,0,480,15.0,92.0
2053,44.0,0,480,14.0,92.0
2054,37.0,0,480,3.0,92.0
2055,73.0,0,0,5.0,92.0
2056,69.0,0,120,11.0,108.0
2057,69.0,0,120,10.0,108.0
2058,73.0,120,120,11.0,108.0
2059,57.0,0,240,4.0,92.0
2060,66.0,0,240,4.0,108.0
2061,73.0,0,120,10.0,108.0
2062,57.0,0,240,6.0,92.0
2063,66.0,0,240,6.0,92.0
2064,69.0,0,115,11.0,108.0
2065,69.0,0,115,10.0,108.0
2066,66.0,0,400,12.0,92.0
2067,42.0,0,400,3.0,92.0
2068,73.0,0,400,12.0,92.0
2069,42.0,0,400,14.0,92.0
2070,54.0,0,400,8.0,92.0
2071,42.0,0,400,15.0,92.0
2072,57.0,0,400,13.0,92.0
2073,69.0,0,400,5.0,92.0
2074,49.0,0,400,14.0,92.0
2075,66.0,120,115,10.0,108.0
2076,66.0,0,115,11.0,108.0
2077,68.0,0,240,4.0,108.0
2078,59.0,0,240,6.0,92.0
2079,68.0,0,240,6.0,92.0
2080,59.0,120,240,4.0,92.0
2081,78.0,0,115,10.0,108.0
2082,78.0,0,115,11.0,108.0
2083,61.0,0,240,6.0,92.0
2084,69.0,0,240,6.0,92.0
2085,69.0,0,240,4.0,108.0
2086,75.0,120,120,11.0,108.0
2087,61.0,120,240,4.0,92.0
2088,75.0,0,120,10.0,108.0
2089,42.0,120,840,7.0,92.0
2090,76.0,0,120,10.0,108.0
2091,76.0,0,120,11.0,108.0
2092,73.0,120,115,11.0,108.0
2093,73.0,0,115,10.0,108.0
2094,57.0,0,240,6.0,92.0
2095,66.0,120,240,6.0,92.0
2096,57.0,0,240,4.0,92.0
2097,66.0,0,240,4.0,108.0
2098,72.0,0,115,10.0,108.0
2099,72.0,0,115,11.0,108.0
2100,75.0,0,120,10.0,108.0
2101,75.0,120,120,11.0,108.0
2102,68.0,120,120,10.0,108.0
2103,68.0,0,120,11.0,108.0
2104,60.0,0,400,4.0,92.0
2105,60.0,0,400,6.0,92.0
2106,68.0,0,400,6.0,92.0
2107,68.0,0,400,4.0,108.0
2108,66.0,0,115,10.0,108.0
2109,66.0,120,115,11.0,108.0
2110,68.0,0,480,12.0,92.0
2111,75.0,0,480,12.0,92.0
2112,44.0,0,480,7.0,92.0
2113,63.0,0,480,6.0,92.0
2114,72.0,120,480,5.0,92.0
2115,68.0,0,480,5.0,92.0
2116,56.0,0,0,14.0,92.0
2117,51.0,0,480,14.0,92.0
2118,44.0,0,480,15.0,92.0
2119,44.0,0,480,3.0,92.0
2120,60.0,0,480,13.0,92.0
2121,44.0,0,0,14.0,92.0
2122,64.0,0,120,11.0,108.0
2123,64.0,0,120,10.0,108.0
2124,56.0,0,240,4.0,92.0
2125,64.0,0,240,4.0,108.0
2126,68.0,120,120,11.0,108.0
2127,68.0,0,120,10.0,108.0
2128,64.0,0,240,6.0,92.0
2129,56.0,0,240,6.0,92.0
2130,64.0,0,115,11.0,108.0
2131,64.0,0,115,10.0,108.0
2132,61.0,120,400,12.0,92.0
2133,56.0,0,400,13.0,92.0
2134,61.0,120,115,10.0,108.0
2135,61.0,0,115,11.0,108.0
2136,57.0,0,240,4.0,92.0
2137,66.0,0,240,4.0,108.0
2138,57.0,120,240,6.0,92.0
2139,66.0,0,240,6.0,92.0
2140,64.0,0,115,10.0,108.0
2141,64.0,0,115,11.0,108.0
2142,68.0,120,115,11.0,108.0
2143,68.0,0,115,10.0,108.0
2144,59.0,0,240,4.0,92.0
2145,68.0,0,240,6.0,92.0
2146,68.0,0,240,4.0,108.0
2147,59.0,0,240,6.0,92.0
2148,73.0,0,115,11.0,108.0
2149,73.0,0,115,10.0,108.0
2150,68.0,120,115,11.0,108.0
2151,68.0,0,115,10.0,108.0
2152,56.0,0,240,6.0,92.0
2153,56.0,120,240,4.0,92.0
2154,64.0,0,240,6.0,92.0
2155,64.0,0,480,12.0,92.0
2156,61.0,120,480,13.0,92.0
2157,64.0,0,240,4.0,108.0
2158,76.0,0,115,11.0,108.0
2159,76.0,120,115,10.0,108.0
2160,73.0,120,115,11.0,108.0
2161,73.0,0,115,10.0,108.0
2162,80.0,120,115,10.0,108.0
2163,80.0,0,115,11.0,108.0
2164,61.0,0,1320,6.0,92.0
2165,49.0,0,1320,14.0,92.0
2166,37.0,0,1320,14.0,92.0
2167,68.0,0,1320,5.0,92.0
2168,73.0,0,1320,5.0,92.0
2169,37.0,0,1320,7.0,92.0
2170,37.0,0,1320,15.0,92.0
2171,37.0,0,1320,3.0,92.0
2172,66.0,0,400,4.0,108.0
2173,64.0,0,400,13.0,92.0
2174,57.0,0,400,4.0,92.0
2175,57.0,0,400,6.0,92.0
2176,66.0,0,400,6.0,92.0
2177,68.0,0,400,12.0,92.0
2178,73.0,120,115,11.0,108.0
2179,73.0,0,115,10.0,108.0
2180,44.0,0,25,8.0,60.0
2181,44.0,30,25,8.0,60.0
2182,60.0,0,80,6.0,92.0
2183,63.0,120,80,6.0,92.0
2184,72.0,0,80,5.0,92.0
2185,68.0,0,80,5.0,92.0
2186,56.0,0,80,6.0,92.0
2187,44.0,30,25,8.0,60.0
2188,44.0,30,25,8.0,60.0
2189,72.0,0,120,10.0,108.0
2190,72.0,0,120,11.0,108.0
2191,44.0,0,25,8.0,60.0
2192,44.0,30,25,8.0,60.0
2193,44.0,30,25,8.0,60.0
2194,44.0,30,25,8.0,60.0
2195,75.0,30,120,10.0,108.0
2196,75.0,0,120,11.0,108.0
2197,44.0,0,25,8.0,60.0
2198,44.0,30,25,8.0,60.0
2199,44.0,30,25,8.0,60.0
2200,44.0,30,25,8.0,60.0
2201,72.0,0,115,11.0,108.0
2202,72.0,0,115,10.0,108.0
2203,68.0,0,120,2.0,108.0
2204,92.0,0,120,0.0,108.0
2205,80.0,30,120,1.0,108.0
2206,80.0,0,120,2.0,108.0
2207,44.0,30,25,8.0,60.0
2208,44.0,30,25,8.0,60.0
2209,44.0,30,25,8.0,60.0
2210,68.0,0,115,10.0,108.0
2211,68.0,0,115,11.0,108.0
2212,44.0,30,25,8.0,60.0
2213,79.0,0,120,2.0,108.0
2214,79.0,0,120,1.0,108.0
2215,67.0,0,120,2.0,108.0
2216,91.0,0,120,0.0,108.0
2217,44.0,0,25,8.0,60.0
2218,44.0,30,25,8.0,60.0
2219,80.0,0,80,2.0,108.0
2220,80.0,0,80,1.0,108.0
2221,92.0,0,80,0.0,108.0
2222,68.0,0,80,2.0,108.0
2223,44.0,30,25,8.0,60.0
2224,44.0,30,25,8.0,60.0
2225,80.0,0,120,11.0,108.0
2226,80.0,30,120,10.0,108.0
2227,44.0,0,25,8.0,60.0
2228,60.0,0,400,6.0,92.0
2229,56.0,0,400,6.0,92.0
2230,72.0,0,400,5.0,92.0
2231,63.0,0,400,6.0,92.0
2232,68.0,0,400,5.0,92.0
2233,44.0,30,25,8.0,60.0
2234,44.0,30,25,8.0,60.0
2235,44.0,30,25,8.0,60.0
2236,79.0,0,115,11.0,108.0
2237,79.0,30,115,10.0,108.0
2238,44.0,0,25,8.0,60.0
2239,44.0,30,25,8.0,60.0
2240,87.0,0,80,0.0,108.0
2241,75.0,0,80,1.0,108.0
2242,75.0,0,80,2.0,108.0
2243,63.0,0,80,2.0,108.0
2244,44.0,30,25,8.0,60.0
2245,44.0,30,25,8.0,60.0
2246,80.0,0,120,11.0,108.0
2247,80.0,0,120,10.0,108.0
2248,44.0,0,25,8.0,60.0
2249,44.0,30,25,8.0,60.0
2250,44.0,30,25,8.0,60.0
2251,79.0,30,115,10.0,108.0
2252,44.0,30,25,8.0,60.0
2253,79.0,0,115,11.0,108.0
2254,44.0,0,25,8.0,60.0
2255,44.0,30,25,8.0,60.0
2256,84.0,30,80,0.0,108.0
2257,72.0,0,80,1.0,108.0
2258,72.0,0,80,2.0,108.0
2259,60.0,0,80,2.0,108.0
2260,44.0,30,25,8.0,60.0
2261,44.0,30,25,8.0,60.0
2262,80.0,0,120,11.0,108.0
2263,80.0,0,120,10.0,108.0
2264,44.0,0,25,8.0,60.0
2265,63.0,0,400,6.0,92.0
2266,68.0,0,400,5.0,92.0
2267,60.0,0,400,6.0,92.0
2268,56.0,0,400,6.0,92.0
2269,72.0,30,400,5.0,92.0
2270,44.0,30,25,8.0,60.0
2271,44.0,30,25,8.0,60.0
2272,44.0,30,25,8.0,60.0
2273,75.0,30,120,10.0,108.0
2274,75.0,0,120,11.0,108.0
2275,44.0,0,25,8.0,60.0
2276,44.0,30,25,8.0,60.0
2277,68.0,0,80,5.0,92.0
2278,75.0,0,80,1.0,108.0
2279,63.0,0,80,6.0,92.0
2280,87.0,0,80,0.0,108.0
2281,60.0,0,80,6.0,92.0
2282,72.0,0,80,5.0,92.0
2283,75.0,0,80,2.0,108.0
2284,63.0,0,80,2.0,108.0
2285,56.0,0,80,6.0,92.0
2286,44.0,30,25,8.0,60.0
2287,76.0,30,115,10.0,108.0
2288,44.0,30,25,8.0,60.0
2289,76.0,0,115,11.0,108.0
2290,44.0,0,25,8.0,60.0
2291,44.0,30,25,8.0,60.0
2292,44.0,30,25,8.0,60.0
2293,73.0,0,115,11.0,108.0
2294,73.0,30,115,10.0,108.0
2295,44.0,30,25,8.0,60.0
2296,44.0,0,25,8.0,60.0
2297,44.0,30,25,8.0,60.0
2298,68.0,0,80,1.0,108.0
2299,56.0,0,80,2.0,108.0
2300,68.0,0,80,2.0,108.0
2301,60.0,0,80,6.0,92.0
2302,63.0,0,80,6.0,92.0
2303,80.0,0,80,0.0,108.0
2304,68.0,30,80,5.0,92.0
2305,72.0,0,80,5.0,92.0
2306,56.0,0,80,6.0,92.0
2307,44.0,30,25,8.0,60.0
2308,44.0,30,25,8.0,60.0
2309,72.0,0,120,10.0,108.0
2310,72.0,0,120,11.0,108.0
2311,44.0,0,25,8.0,60.0
2312,44.0,30,25,8.0,60.0
2313,44.0,30,25,8.0,60.0
2314,44.0,30,25,8.0,60.0
2315,75.0,30,120,10.0,108.0
2316,75.0,0,120,11.0,108.0
2317,44.0,0,25,8.0,60.0
2318,44.0,30,25,8.0,60.0
2319,44.0,30,25,8.0,60.0
2320,72.0,0,115,11.0,108.0
2321,44.0,30,25,8.0,60.0
2322,72.0,0,115,10.0,108.0
2323,44.0,30,25,8.0,60.0
2324,44.0,30,25,8.0,60.0
2325,44.0,30,25,8.0,60.0
2326,68.0,0,115,10.0,108.0
2327,44.0,30,25,8.0,60.0
2328,68.0,0,115,11.0,108.0
2329,44.0,0,25,8.0,60.0
2330,44.0,30,25,8.0,60.0
2331,44.0,30,25,8.0,60.0
2332,44.0,30,25,8.0,60.0
2333,78.0,0,120,10.0,108.0
2334,78.0,30,120,11.0,108.0
2335,44.0,0,25,8.0,60.0
2336,56.0,30,400,6.0,92.0
2337,68.0,0,400,5.0,92.0
2338,63.0,0,400,6.0,92.0
2339,60.0,0,400,6.0,92.0
2340,72.0,0,400,5.0,92.0
2341,44.0,30,25,8.0,60.0
2342,44.0,30,25,8.0,60.0
2343,44.0,30,25,8.0,60.0
2344,77.0,0,120,10.0,108.0
2345,77.0,30,120,11.0,108.0
2346,44.0,0,25,8.0,60.0
2347,44.0,30,25,8.0,60.0
2348,44.0,30,25,8.0,60.0
2349,44.0,30,25,8.0,60.0
2350,78.0,0,115,10.0,108.0
2351,78.0,0,115,11.0,108.0
2352,44.0,0,25,8.0,60.0
2353,44.0,30,25,8.0,60.0
2354,44.0,30,25,8.0,60.0
2355,77.0,30,115,11.0,108.0
2356,44.0,30,25,8.0,60.0
2357,77.0,0,115,10.0,108.0
2358,44.0,30,25,8.0,60.0
2359,44.0,30,25,8.0,60.0
2360,44.0,30,25,8.0,60.0
2361,44.0,30,25,8.0,60.0
2362,78.0,0,120,11.0,108.0
2363,78.0,0,120,10.0,108.0
2364,44.0,0,25,8.0,60.0
2365,60.0,0,400,6.0,92.0
2366,63.0,0,400,6.0,92.0
2367,56.0,30,400,6.0,92.0
2368,68.0,0,400,5.0,92.0
2369,72.0,0,400,5.0,92.0
2370,44.0,30,25,8.0,60.0
2371,44.0,30,25,8.0,60.0
2372,44.0,30,25,8.0,60.0
2373,75.0,30,120,10.0,108.0
2374,75.0,0,120,11.0,108.0
2375,44.0,0,25,8.0,60.0
2376,44.0,30,25,8.0,60.0
2377,56.0,0,80,6.0,92.0
2378,63.0,0,80,6.0,92.0
2379,60.0,0,80,6.0,92.0
2380,68.0,0,80,5.0,92.0
2381,72.0,0,80,5.0,92.0
2382,44.0,30,25,8.0,60.0
2383,76.0,0,115,11.0,108.0
2384,76.0,30,115,10.0,108.0
2385,44.0,30,25,8.0,60.0
2386,60.0,0,2760,13.0,92.0
2387,32.0,0,2760,7.0,92.0
2388,56.0,0,2760,4.0,92.0
2389,63.0,0,2760,4.0,92.0
2390,60.0,0,2760,4.0,92.0
2391,68.0,0,2760,4.0,92.0
2392,32.0,0,2760,15.0,92.0
2393,44.0,0,2760,3.0,92.0
2394,63.0,0,2760,12.0,92.0
2395,51.0,0,2760,14.0,92.0
2396,44.0,0,2760,14.0,92.0
2397,44.0,0,25,8.0,60.0
2398,44.0,30,25,8.0,60.0
2399,44.0,30,25,8.0,60.0
2400,73.0,30,115,11.0,108.0
2401,44.0,30,25,8.0,60.0
2402,73.0,0,115,10.0,108.0
2403,44.0,0,25,8.0,45.0
2404,44.0,30,25,8.0,45.0
2405,54.0,0,80,6.0,75.0
2406,63.0,0,80,6.0,75.0
2407,60.0,0,80,6.0,75.0
2408,68.0,30,80,5.0,75.0
2409,72.0,0,80,5.0,75.0
2410,44.0,30,25,8.0,45.0
2411,44.0,30,25,8.0,45.0
2412,72.0,0,120,10.0,92.0
2413,72.0,0,120,11.0,92.0
2414,44.0,30,25,8.0,45.0
2415,44.0,30,25,8.0,45.0
2416,44.0,30,25,8.0,45.0
2417,44.0,30,25,8.0,45.0
2418,75.0,0,120,11.0,92.0
2419,75.0,0,120,10.0,92.0
2420,44.0,0,25,8.0,45.0
2421,44.0,30,25,8.0,45.0
2422,44.0,30,25,8.0,45.0
2423,72.0,0,115,11.0,92.0
2424,72.0,0,115,10.0,92.0
2425,44.0,30,25,8.0,45.0
2426,56.0,0,120,3.0,108.0
2427,68.0,0,120,2.0,108.0
2428,44.0,0,25,8.0,45.0
2429,44.0,30,25,8.0,45.0
2430,44.0,30,25,8.0,45.0
2431,68.0,0,115,11.0,92.0
2432,68.0,30,115,10.0,92.0
2433,44.0,30,25,8.0,45.0
2434,55.0,0,120,3.0,108.0
2435,67.0,0,120,2.0,108.0
2436,44.0,0,25,8.0,45.0
2437,44.0,30,25,8.0,45.0
2438,68.0,0,80,2.0,108.0
2439,56.0,0,80,3.0,108.0
2440,44.0,30,25,8.0,45.0
2441,44.0,30,25,8.0,45.0
2442,69.0,30,120,11.0,92.0
2443,69.0,0,120,10.0,92.0
2444,44.0,30,25,8.0,45.0
2445,54.0,0,400,6.0,75.0
2446,60.0,0,400,6.0,75.0
2447,63.0,0,400,6.0,75.0
2448,72.0,30,400,5.0,75.0
2449,68.0,0,400,5.0,75.0
2450,44.0,30,25,8.0,45.0
2451,44.0,30,25,8.0,45.0
2452,44.0,30,25,8.0,45.0
2453,68.0,0,120,11.0,92.0
2454,68.0,0,120,10.0,92.0
2455,44.0,0,25,8.0,45.0
2456,44.0,30,25,8.0,45.0
2457,51.0,0,80,3.0,108.0
2458,63.0,0,80,2.0,108.0
2459,44.0,30,25,8.0,45.0
2460,69.0,0,115,11.0,92.0
2461,69.0,30,115,10.0,92.0
2462,44.0,30,25,8.0,45.0
2463,44.0,0,25,8.0,45.0
2464,44.0,30,25,8.0,45.0
2465,44.0,30,25,8.0,45.0
2466,68.0,30,115,10.0,92.0
2467,44.0,30,25,8.0,45.0
2468,68.0,0,115,11.0,92.0
2469,44.0,0,25,8.0,45.0
2470,44.0,30,25,8.0,45.0
2471,48.0,30,80,3.0,108.0
2472,60.0,0,80,2.0,108.0
2473,44.0,30,25,8.0,45.0
2474,44.0,30,25,8.0,45.0
2475,69.0,0,115,10.0,92.0
2476,69.0,0,115,11.0,92.0
2477,44.0,0,25,8.0,45.0
2478,63.0,0,400,6.0,75.0
2479,54.0,0,400,6.0,75.0
2480,60.0,0,400,6.0,75.0
2481,72.0,0,400,5.0,75.0
2482,68.0,0,400,5.0,75.0
2483,44.0,30,25,8.0,45.0
2484,44.0,30,25,8.0,45.0
2485,44.0,30,25,8.0,45.0
2486,63.0,30,120,10.0,92.0
2487,63.0,0,120,11.0,92.0
2488,44.0,0,25,8.0,45.0
2489,44.0,30,25,8.0,45.0
2490,51.0,0,80,3.0,108.0
2491,54.0,0,80,6.0,75.0
2492,63.0,0,80,6.0,75.0
2493,63.0,0,80,2.0,108.0
2494,60.0,0,80,6.0,75.0
2495,72.0,30,80,5.0,75.0
2496,68.0,0,80,5.0,75.0
2497,44.0,30,25,8.0,45.0
2498,64.0,0,115,11.0,92.0
2499,64.0,0,115,10.0,92.0
2500,44.0,30,25,8.0,45.0
2501,44.0,0,25,8.0,45.0
2502,44.0,30,25,8.0,45.0
2503,44.0,30,25,8.0,45.0
2504,44.0,30,25,8.0,45.0
2505,61.0,30,115,11.0,92.0
2506,61.0,0,115,10.0,92.0
2507,44.0,0,80,3.0,108.0
2508,54.0,0,80,6.0,75.0
2509,56.0,0,80,2.0,108.0
2510,72.0,0,80,5.0,75.0
2511,63.0,0,80,6.0,75.0
2512,68.0,0,80,5.0,75.0
2513,60.0,0,80,6.0,75.0
2514,60.0,0,120,10.0,92.0
2515,60.0,0,120,11.0,92.0
2516,66.0,120,115,11.0,92.0
2517,66.0,0,115,10.0,92.0
2518,61.0,0,120,10.0,92.0
2519,61.0,0,120,11.0,92.0
2520,32.0,0,1840,7.0,75.0
2521,44.0,0,1840,14.0,75.0
2522,32.0,0,1840,15.0,75.0
2523,44.0,30,400,8.0,45.0
2524,51.0,0,1840,14.0,75.0
2525,66.0,0,115,10.0,92.0
2526,66.0,120,115,11.0,92.0
2527,63.0,0,120,11.0,92.0
2528,63.0,120,120,10.0,92.0
2529,60.0,0,400,6.0,75.0
2530,54.0,120,400,6.0,75.0
2531,63.0,0,400,6.0,75.0
2532,72.0,0,400,5.0,75.0
2533,68.0,0,400,5.0,75.0
2534,66.0,0,115,11.0,92.0
2535,66.0,120,115,10.0,92.0
2536,61.0,0,120,11.0,92.0
2537,61.0,0,120,10.0,92.0
2538,36.0,0,400,15.0,75.0
2539,48.0,0,400,14.0,75.0
2540,36.0,0,400,7.0,75.0
2541,66.0,0,115,10.0,92.0
2542,66.0,120,115,11.0,92.0
2543,60.0,120,120,11.0,92.0
2544,60.0,0,120,10.0,92.0
2545,63.0,0,400,6.0,75.0
2546,68.0,120,400,5.0,75.0
2547,60.0,0,400,6.0,75.0
2548,72.0,0,400,5.0,75.0
2549,54.0,0,400,6.0,75.0
2550,66.0,0,115,10.0,92.0
2551,66.0,120,115,11.0,92.0
2552,68.0,0,80,5.0,75.0
2553,54.0,120,80,6.0,75.0
2554,63.0,0,80,6.0,75.0
2555,60.0,0,80,6.0,75.0
2556,72.0,0,80,5.0,75.0
2557,68.0,0,2760,4.0,75.0
2558,63.0,0,2760,4.0,75.0
2559,63.0,0,120,11.0,92.0
2560,60.0,0,2760,12.0,75.0
2561,60.0,0,2760,4.0,75.0
2562,56.0,0,2760,4.0,75.0
2563,63.0,0,120,10.0,92.0
2564,60.0,0,2760,13.0,75.0
2565,51.0,0,400,14.0,75.0
2566,39.0,0,400,15.0,75.0
2567,39.0,0,400,7.0,75.0
2568,66.0,120,115,11.0,92.0
2569,66.0,0,115,10.0,92.0
2570,54.0,120,80,6.0,60.0
2571,60.0,0,80,6.0,60.0
2572,72.0,0,80,5.0,60.0
2573,63.0,0,80,6.0,60.0
2574,68.0,0,80,5.0,60.0
2575,56.0,0,120,10.0,75.0
2576,56.0,0,120,11.0,75.0
2577,66.0,0,120,10.0,75.0
2578,66.0,120,120,11.0,75.0
2579,92.0,0,120,0.0,92.0
2580,68.0,0,120,2.0,92.0
2581,80.0,0,120,1.0,92.0
2582,75.0,0,120,10.0,75.0
2583,80.0,0,120,2.0,92.0
2584,75.0,0,120,11.0,75.0
2585,66.0,0,115,10.0,75.0
2586,66.0,0,115,11.0,75.0
2587,67.0,120,120,2.0,92.0
2588,79.0,0,120,2.0,92.0
2589,91.0,0,120,0.0,92.0
2590,79.0,0,120,1.0,92.0
2591,80.0,0,80,2.0,92.0
2592,80.0,0,80,1.0,92.0
2593,92.0,0,80,0.0,92.0
2594,68.0,0,80,2.0,92.0
2595,72.0,0,120,10.0,75.0
2596,72.0,120,120,11.0,75.0
2597,72.0,0,400,5.0,60.0
2598,63.0,0,400,6.0,60.0
2599,68.0,120,400,5.0,60.0
2600,54.0,0,400,6.0,60.0
2601,60.0,0,400,6.0,60.0
2602,66.0,0,115,10.0,75.0
2603,66.0,120,115,11.0,75.0
2604,63.0,0,80,2.0,92.0
2605,87.0,120,80,0.0,92.0
2606,75.0,0,80,2.0,92.0
2607,75.0,0,80,1.0,92.0
2608,75.0,0,120,10.0,75.0
2609,75.0,0,120,11.0,75.0
2610,66.0,120,115,10.0,75.0
2611,66.0,0,115,11.0,75.0
2612,84.0,0,80,0.0,92.0
2613,60.0,0,80,2.0,92.0
2614,72.0,0,80,2.0,92.0
2615,72.0,0,80,1.0,92.0
2616,72.0,0,120,10.0,75.0
2617,72.0,120,120,11.0,75.0
2618,63.0,0,400,6.0,60.0
2619,68.0,0,400,5.0,60.0
2620,72.0,0,400,5.0,60.0
2621,60.0,0,400,6.0,60.0
2622,54.0,0,400,6.0,60.0
2623,66.0,120,115,10.0,75.0
2624,66.0,0,115,11.0,75.0
2625,63.0,0,80,6.0,60.0
2626,75.0,120,80,2.0,92.0
2627,72.0,0,80,5.0,60.0
2628,68.0,0,80,5.0,60.0
2629,63.0,0,80,2.0,92.0
2630,54.0,0,80,6.0,60.0
2631,60.0,0,80,6.0,60.0
2632,87.0,0,80,0.0,92.0
2633,75.0,0,80,1.0,92.0
2634,75.0,0,120,11.0,75.0
2635,75.0,0,120,10.0,75.0
2636,66.0,120,115,11.0,75.0
2637,66.0,0,115,10.0,75.0
2638,60.0,0,1440,13.0,60.0
2639,63.0,0,1440,12.0,60.0
2640,32.0,0,1440,15.0,60.0
2641,44.0,0,0,14.0,60.0
2642,51.0,0,1440,14.0,60.0
2643,60.0,0,1440,4.0,60.0
2644,32.0,0,1440,7.0,60.0
2645,66.0,0,1440,4.0,60.0
2646,63.0,0,1440,4.0,60.0
2647,56.0,0,1440,4.0,60.0
2648,44.0,0,1440,3.0,60.0
2649,64.0,0,80,6.0,60.0
2650,61.0,0,80,2.0,92.0
2651,85.0,0,80,0.0,92.0
2652,73.0,0,80,1.0,92.0
2653,73.0,0,80,5.0,60.0
2654,68.0,0,80,5.0,60.0
2655,56.0,0,80,6.0,60.0
2656,73.0,120,80,2.0,92.0
2657,61.0,0,80,6.0,60.0
2658,56.0,0,120,10.0,75.0
2659,56.0,0,120,11.0,75.0
2660,64.0,120,120,10.0,75.0
2661,64.0,0,120,11.0,75.0
2662,73.0,0,120,10.0,75.0
2663,73.0,0,120,11.0,75.0
2664,64.0,120,115,10.0,75.0
2665,64.0,0,115,11.0,75.0
2666,76.0,120,120,11.0,75.0
2667,76.0,0,120,10.0,75.0
2668,68.0,0,400,5.0,60.0
2669,61.0,0,400,6.0,60.0
2670,56.0,120,400,6.0,60.0
2671,64.0,0,400,6.0,60.0
2672,73.0,0,400,5.0,60.0
2673,64.0,0,115,11.0,75.0
2674,64.0,120,115,10.0,75.0
2675,73.0,0,120,11.0,75.0
2676,73.0,0,120,10.0,75.0
2677,64.0,120,115,10.0,75.0
2678,64.0,0,115,11.0,75.0
2679,76.0,0,120,10.0,75.0
2680,76.0,120,120,11.0,75.0
2681,61.0,0,400,6.0,60.0
2682,64.0,0,400,6.0,60.0
2683,68.0,120,400,5.0,60.0
2684,73.0,0,400,5.0,60.0
2685,56.0,0,400,6.0,60.0
2686,64.0,120,115,11.0,75.0
2687,64.0,0,115,10.0,75.0
2688,68.0,0,80,5.0,60.0
2689,56.0,0,80,6.0,60.0
2690,73.0,0,80,5.0,60.0
2691,49.0,0,1320,14.0,60.0
2692,73.0,0,120,11.0,75.0
2693,61.0,0,1320,12.0,60.0
2694,73.0,0,120,10.0,75.0
2695,56.0,0,1320,13.0,60.0
2696,49.0,0,1320,3.0,60.0
2697,37.0,0,1320,15.0,60.0
2698,61.0,0,1320,4.0,60.0
2699,64.0,0,1320,4.0,60.0
2700,56.0,0,1320,4.0,60.0
2701,37.0,0,1320,7.0,60.0
2702,52.0,0,1320,4.0,60.0
2703,64.0,0,235,6.0,60.0
2704,64.0,120,115,11.0,75.0
2705,61.0,120,235,6.0,60.0
2706,64.0,0,115,10.0,75.0
2707,72.0,0,80,5.0,45.0
2708,68.0,0,80,5.0,45.0
2709,54.0,0,80,6.0,45.0
2710,56.0,0,120,10.0,60.0
2711,56.0,0,120,11.0,60.0
2712,63.0,0,235,6.0,45.0
2713,60.0,0,235,6.0,45.0
2714,66.0,0,120,11.0,60.0
2715,66.0,120,120,10.0,60.0
2716,92.0,0,120,0.0,60.0
2717,75.0,0,120,10.0,60.0
2718,68.0,0,120,2.0,60.0
2719,80.0,0,120,1.0,60.0
2720,80.0,0,120,2.0,60.0
2721,75.0,120,120,11.0,60.0
2722,66.0,120,115,11.0,60.0
2723,66.0,0,115,10.0,60.0
2724,91.0,0,120,0.0,60.0
2725,79.0,0,120,1.0,60.0
2726,79.0,0,120,2.0,60.0
2727,67.0,0,120,2.0,60.0
2728,68.0,0,80,2.0,60.0
2729,92.0,0,80,0.0,60.0
2730,80.0,120,80,1.0,60.0
2731,80.0,0,80,2.0,60.0
2732,72.0,0,120,10.0,60.0
2733,72.0,0,120,11.0,60.0
2734,54.0,0,400,6.0,45.0
2735,60.0,0,400,6.0,45.0
2736,72.0,0,400,5.0,45.0
2737,63.0,0,400,6.0,45.0
2738,68.0,0,400,5.0,45.0
2739,66.0,0,115,10.0,60.0
2740,66.0,120,115,11.0,60.0
2741,75.0,0,80,1.0,60.0
2742,75.0,0,80,2.0,60.0
2743,87.0,0,80,0.0,60.0
2744,63.0,0,80,2.0,60.0
2745,75.0,0,120,10.0,60.0
2746,75.0,0,120,11.0,60.0
2747,66.0,120,115,10.0,60.0
2748,66.0,0,115,11.0,60.0
2749,84.0,0,80,0.0,60.0
2750,72.0,0,80,1.0,60.0
2751,60.0,0,80,2.0,60.0
2752,72.0,120,80,2.0,60.0
2753,72.0,0,120,11.0,60.0
2754,72.0,0,120,10.0,60.0
2755,60.0,0,400,6.0,45.0
2756,72.0,0,400,5.0,45.0
2757,54.0,120,400,6.0,45.0
2758,68.0,0,400,5.0,45.0
2759,63.0,0,400,6.0,45.0
2760,66.0,0,115,11.0,60.0
2761,66.0,120,115,10.0,60.0
2762,68.0,0,80,5.0,45.0
2763,72.0,0,80,5.0,45.0
2764,54.0,0,80,6.0,45.0
2765,75.0,0,80,2.0,60.0
2766,63.0,0,80,2.0,60.0
2767,87.0,0,80,0.0,60.0
2768,63.0,0,80,6.0,45.0
2769,60.0,0,80,6.0,45.0
2770,75.0,0,80,1.0,60.0
2771,75.0,0,120,11.0,60.0
2772,75.0,120,120,10.0,60.0
2773,66.0,120,115,11.0,60.0
2774,66.0,0,115,10.0,60.0
2775,60.0,0,1440,4.0,45.0
2776,56.0,120,1440,4.0,45.0
2777,63.0,0,1440,4.0,45.0
2778,44.0,0,1440,14.0,45.0
2779,51.0,0,1440,14.0,45.0
2780,32.0,0,1440,7.0,45.0
2781,60.0,0,1440,13.0,45.0
2782,44.0,0,1440,3.0,45.0
2783,63.0,0,1440,12.0,45.0
2784,32.0,0,1440,15.0,45.0
2785,66.0,0,1440,4.0,45.0
2786,68.0,0,80,5.0,45.0
2787,61.0,0,80,2.0,60.0
2788,73.0,120,80,5.0,45.0
2789,73.0,0,80,1.0,60.0
2790,73.0,0,80,2.0,60.0
2791,61.0,0,80,6.0,45.0
2792,56.0,0,80,6.0,45.0
2793,64.0,0,80,6.0,45.0
2794,85.0,0,80,0.0,60.0
2795,56.0,0,120,11.0,60.0
2796,56.0,0,120,10.0,60.0
2797,64.0,0,120,10.0,60.0
2798,64.0,120,120,11.0,60.0
2799,73.0,0,120,11.0,60.0
2800,73.0,120,120,10.0,60.0
2801,64.0,120,115,10.0,60.0
2802,64.0,0,115,11.0,60.0
2803,76.0,120,120,10.0,60.0
2804,76.0,0,120,11.0,60.0
2805,73.0,0,400,5.0,45.0
2806,68.0,0,400,5.0,45.0
2807,61.0,0,400,6.0,45.0
2808,64.0,0,400,6.0,45.0
2809,56.0,0,400,6.0,45.0
2810,64.0,0,115,11.0,60.0
2811,64.0,120,115,10.0,60.0
2812,73.0,0,120,11.0,60.0
2813,73.0,0,120,10.0,60.0
2814,64.0,120,115,10.0,60.0
2815,64.0,0,115,11.0,60.0
2816,76.0,120,120,10.0,60.0
2817,76.0,0,120,11.0,60.0
2818,68.0,0,400,5.0,45.0
2819,73.0,0,400,5.0,45.0
2820,64.0,120,400,6.0,45.0
2821,61.0,0,400,6.0,45.0
2822,56.0,0,400,6.0,45.0
2823,64.0,0,115,10.0,60.0
2824,64.0,120,115,11.0,60.0
2825,61.0,0,80,6.0,45.0
2826,64.0,0,80,6.0,45.0
2827,68.0,0,80,5.0,45.0
2828,73.0,0,80,5.0,45.0
2829,56.0,120,80,6.0,45.0
2830,73.0,0,120,11.0,60.0
2831,37.0,0,1320,15.0,45.0
2832,73.0,0,120,10.0,60.0
2833,64.0,0,1320,4.0,45.0
2834,56.0,0,1320,4.0,45.0
2835,37.0,0,1320,3.0,45.0
2836,37.0,0,1320,14.0,45.0
2837,61.0,0,1320,12.0,45.0
2838,49.0,0,1320,14.0,45.0
2839,37.0,0,1320,7.0,45.0
2840,44.0,0,1320,14.0,45.0
2841,52.0,0,1320,4.0,45.0
2842,61.0,0,1320,4.0,45.0
2843,56.0,0,1320,13.0,45.0
2844,64.0,120,115,10.0,60.0
2845,64.0,0,115,11.0,60.0
2846,61.0,0,80,6.0,60.0
2847,70.0,0,80,5.0,60.0
2848,55.0,120,80,6.0,60.0
2849,64.0,0,80,6.0,60.0
2850,67.0,0,80,5.0,60.0
2851,56.0,0,115,11.0,75.0
2852,56.0,0,115,10.0,75.0
2853,67.0,0,120,11.0,75.0
2854,67.0,120,120,10.0,75.0
2855,79.0,120,0,2.0,92.0
2856,91.0,0,120,0.0,92.0
2857,73.0,0,120,10.0,75.0
2858,79.0,0,120,1.0,92.0
2859,67.0,0,0,2.0,92.0
2860,73.0,120,120,11.0,75.0
2861,67.0,0,115,10.0,75.0
2862,67.0,0,115,11.0,75.0
2863,78.0,0,120,1.0,92.0
2864,79.0,0,0,2.0,92.0
2865,67.0,0,0,2.0,92.0
2866,90.0,0,120,0.0,92.0
2867,79.0,0,80,1.0,92.0
2868,91.0,120,80,0.0,92.0
2869,76.0,0,120,11.0,75.0
2870,76.0,0,120,10.0,75.0
2871,55.0,0,400,6.0,60.0
2872,70.0,0,400,5.0,60.0
2873,64.0,0,400,6.0,60.0
2874,67.0,0,400,5.0,60.0
2875,61.0,0,400,6.0,60.0
2876,67.0,0,115,10.0,75.0
2877,67.0,120,115,11.0,75.0
2878,73.0,0,80,1.0,92.0
2879,85.0,0,80,0.0,92.0
2880,73.0,0,80,2.0,92.0
2881,61.0,0,80,2.0,92.0
2882,73.0,0,120,11.0,75.0
2883,73.0,0,120,10.0,75.0
2884,67.0,0,115,10.0,75.0
2885,67.0,120,115,11.0,75.0
2886,58.0,0,80,2.0,92.0
2887,70.0,0,80,1.0,92.0
2888,70.0,0,80,2.0,92.0
2889,82.0,0,80,0.0,92.0
2890,76.0,120,120,11.0,75.0
2891,76.0,0,120,10.0,75.0
2892,64.0,0,400,6.0,60.0
2893,70.0,0,400,5.0,60.0
2894,55.0,0,400,6.0,60.0
2895,61.0,0,400,6.0,60.0
2896,67.0,120,400,5.0,60.0
2897,67.0,0,115,10.0,75.0
2898,67.0,120,115,11.0,75.0
2899,67.0,0,80,5.0,60.0
2900,70.0,0,80,5.0,60.0
2901,85.0,0,80,0.0,92.0
2902,64.0,0,80,6.0,60.0
2903,61.0,0,80,2.0,92.0
2904,73.0,0,80,1.0,92.0
2905,61.0,0,80,6.0,60.0
2906,55.0,0,80,6.0,60.0
2907,73.0,120,80,2.0,92.0
2908,73.0,0,120,11.0,75.0
2909,73.0,0,120,10.0,75.0
2910,67.0,120,115,11.0,75.0
2911,67.0,0,115,10.0,75.0
2912,37.0,0,0,7.0,45.0
2913,46.0,0,1440,14.0,60.0
2914,37.0,0,1440,14.0,60.0
2915,67.0,0,1440,4.0,60.0
2916,61.0,0,1440,4.0,60.0
2917,37.0,0,0,3.0,45.0
2918,64.0,0,1440,12.0,60.0
2919,58.0,0,1440,4.0,60.0
2920,55.0,0,1440,4.0,60.0
2921,55.0,0,0,13.0,45.0
2922,37.0,0,1440,15.0,60.0
2923,64.0,0,80,6.0,45.0
2924,55.0,0,80,6.0,45.0
2925,58.0,0,80,6.0,45.0
2926,70.0,120,80,5.0,45.0
2927,67.0,0,80,5.0,45.0
2928,79.0,0,120,0.0,92.0
2929,67.0,0,120,2.0,92.0
2930,67.0,0,120,1.0,92.0
2931,55.0,0,120,2.0,92.0
2932,56.0,0,120,11.0,60.0
2933,56.0,0,120,10.0,60.0
2934,67.0,120,120,11.0,60.0
2935,67.0,0,120,10.0,60.0
2936,73.0,0,120,11.0,60.0
2937,73.0,0,120,10.0,60.0
2938,67.0,120,115,10.0,60.0
2939,67.0,0,115,11.0,60.0
2940,76.0,0,120,11.0,60.0
2941,76.0,120,120,10.0,60.0
2942,55.0,120,400,6.0,45.0
2943,67.0,0,400,5.0,45.0
2944,64.0,0,400,6.0,45.0
2945,58.0,0,400,6.0,45.0
2946,70.0,0,400,5.0,45.0
2947,67.0,120,115,11.0,60.0
2948,67.0,0,115,10.0,60.0
2949,73.0,120,120,10.0,60.0
2950,73.0,0,120,11.0,60.0
2951,67.0,0,115,11.0,60.0
2952,67.0,120,115,10.0,60.0
2953,76.0,0,120,10.0,60.0
2954,76.0,120,120,11.0,60.0
2955,55.0,0,400,6.0,45.0
2956,67.0,0,400,5.0,45.0
2957,64.0,0,400,6.0,45.0
2958,58.0,0,400,6.0,45.0
2959,70.0,0,400,5.0,45.0
2960,67.0,120,115,10.0,60.0
2961,67.0,0,115,11.0,60.0
2962,70.0,0,80,5.0,45.0
2963,67.0,0,80,5.0,45.0
2964,55.0,0,80,6.0,45.0
2965,73.0,0,120,10.0,60.0
2966,73.0,0,120,11.0,60.0
2967,64.0,0,235,6.0,45.0
2968,67.0,0,115,10.0,60.0
2969,67.0,120,115,11.0,60.0
2970,58.0,120,235,6.0,45.0
2971,37.0,0,1440,15.0,45.0
2972,61.0,0,1440,4.0,45.0
2973,67.0,0,1440,4.0,45.0
2974,64.0,0,1440,12.0,45.0
2975,58.0,0,1440,4.0,45.0
2976,55.0,0,1440,4.0,45.0
2977,46.0,0,1440,14.0,45.0
2978,37.0,0,0,14.0,75.0
2979,56.0,0,80,6.0,75.0
2980,68.0,0,80,5.0,75.0
2981,73.0,0,80,5.0,75.0
2982,56.0,0,120,11.0,92.0
2983,56.0,120,120,10.0,92.0
2984,61.0,0,235,6.0,75.0
2985,64.0,0,235,6.0,75.0
2986,68.0,120,120,10.0,92.0
2987,68.0,0,120,11.0,92.0
2988,73.0,0,120,10.0,92.0
2989,80.0,0,120,2.0,92.0
2990,92.0,120,120,0.0,92.0
2991,73.0,0,120,11.0,92.0
2992,80.0,0,120,1.0,92.0
2993,68.0,0,120,2.0,92.0
2994,68.0,0,115,11.0,92.0
2995,68.0,0,115,10.0,92.0
2996,91.0,0,120,0.0,92.0
2997,79.0,0,120,1.0,92.0
2998,67.0,0,120,2.0,92.0
2999,79.0,120,120,2.0,92.0
3000,80.0,0,80,1.0,92.0
3001,80.0,0,80,2.0,92.0
3002,92.0,0,80,0.0,92.0
3003,68.0,0,80,2.0,92.0
3004,75.0,120,120,11.0,92.0
3005,75.0,0,120,10.0,92.0
3006,73.0,0,400,5.0,75.0
3007,68.0,0,400,5.0,75.0
3008,56.0,0,400,6.0,75.0
3009,64.0,0,400,6.0,75.0
3010,61.0,0,400,6.0,75.0
3011,68.0,0,115,11.0,92.0
3012,68.0,120,115,10.0,92.0
3013,73.0,0,80,2.0,92.0
3014,85.0,0,80,0.0,92.0
3015,73.0,0,80,1.0,92.0
3016,61.0,0,80,2.0,92.0
3017,73.0,0,120,10.0,92.0
3018,73.0,0,120,11.0,92.0
3019,68.0,0,115,11.0,92.0
3020,68.0,120,115,10.0,92.0
3021,56.0,0,80,2.0,92.0
3022,68.0,120,80,2.0,92.0
3023,80.0,0,80,0.0,92.0
3024,68.0,0,80,1.0,92.0
3025,75.0,0,120,11.0,92.0
3026,75.0,0,120,10.0,92.0
3027,56.0,0,400,6.0,75.0
3028,68.0,0,400,5.0,75.0
3029,73.0,0,400,5.0,75.0
3030,61.0,0,400,6.0,75.0
3031,64.0,120,400,6.0,75.0
3032,68.0,0,115,11.0,92.0
3033,68.0,120,115,10.0,92.0
3034,73.0,0,80,2.0,92.0
3035,68.0,0,80,5.0,75.0
3036,73.0,0,80,5.0,75.0
3037,85.0,0,80,0.0,92.0
3038,64.0,0,80,6.0,75.0
3039,73.0,0,80,1.0,92.0
3040,56.0,0,80,6.0,75.0
3041,61.0,0,80,2.0,92.0
3042,61.0,0,80,6.0,75.0
3043,73.0,0,120,10.0,92.0
3044,73.0,120,120,11.0,92.0
3045,68.0,0,115,10.0,92.0
3046,68.0,120,115,11.0,92.0
3047,44.0,0,1440,14.0,75.0
3048,68.0,0,1440,4.0,75.0
3049,64.0,0,1440,4.0,75.0
3050,37.0,0,1440,3.0,75.0
3051,64.0,0,1440,12.0,75.0
3052,61.0,0,1440,4.0,75.0
3053,56.0,0,0,4.0,45.0
3054,37.0,0,1440,7.0,75.0
3055,37.0,0,1440,15.0,75.0
3056,56.0,0,1440,13.0,75.0
3057,60.0,0,80,6.0,45.0
3058,72.0,0,80,5.0,45.0
3059,68.0,0,80,5.0,45.0
3060,54.0,0,80,6.0,45.0
3061,63.0,0,80,6.0,45.0
3062,80.0,0,120,0.0,92.0
3063,56.0,120,120,10.0,60.0
3064,68.0,0,120,1.0,92.0
3065,68.0,0,120,2.0,92.0
3066,56.0,0,120,11.0,60.0
3067,56.0,0,120,2.0,92.0
3068,66.0,120,120,10.0,60.0
3069,66.0,0,120,11.0,60.0
3070,72.0,0,120,11.0,60.0
3071,72.0,0,120,10.0,60.0
3072,32.0,0,400,7.0,45.0
3073,51.0,0,400,14.0,45.0
3074,32.0,0,400,15.0,45.0
3075,44.0,0,400,14.0,45.0
3076,44.0,0,400,3.0,45.0
3077,66.0,120,115,10.0,60.0
3078,66.0,0,115,11.0,60.0
3079,75.0,0,120,11.0,60.0
3080,75.0,0,120,10.0,60.0
3081,72.0,0,400,5.0,45.0
3082,68.0,0,400,5.0,45.0
3083,54.0,0,400,6.0,45.0
3084,63.0,0,400,6.0,45.0
3085,60.0,120,400,6.0,45.0
3086,66.0,0,115,10.0,60.0
3087,66.0,120,115,11.0,60.0
3088,72.0,0,120,10.0,60.0
3089,72.0,120,120,11.0,60.0
3090,39.0,0,400,7.0,45.0
3091,51.0,0,400,3.0,45.0
3092,56.0,0,400,14.0,45.0
3093,51.0,120,400,14.0,45.0
3094,39.0,0,400,15.0,45.0
3095,66.0,0,115,11.0,60.0
3096,66.0,120,115,10.0,60.0
3097,75.0,0,120,10.0,60.0
3098,75.0,120,120,11.0,60.0
3099,60.0,0,400,6.0,45.0
3100,72.0,0,400,5.0,45.0
3101,63.0,0,400,6.0,45.0
3102,54.0,0,400,6.0,45.0
3103,68.0,0,400,5.0,45.0
3104,66.0,120,115,10.0,60.0
3105,66.0,0,115,11.0,60.0
3106,72.0,0,80,5.0,45.0
3107,63.0,0,80,6.0,45.0
3108,60.0,120,80,6.0,45.0
3109,54.0,0,80,6.0,45.0
3110,68.0,0,80,5.0,45.0
3111,72.0,0,120,10.0,60.0
3112,72.0,0,120,11.0,60.0
3113,36.0,0,400,7.0,45.0
3114,48.0,0,400,3.0,45.0
3115,44.0,0,400,8.0,60.0
3116,36.0,0,400,15.0,45.0
3117,54.0,0,400,14.0,45.0
3118,48.0,0,400,14.0,45.0
3119,66.0,0,115,11.0,60.0
3120,66.0,120,115,10.0,60.0
3121,63.0,0,1440,12.0,45.0
3122,68.0,0,1440,4.0,45.0
3123,63.0,0,1440,4.0,45.0
3124,56.0,0,1440,13.0,45.0
3125,56.0,0,0,4.0,92.0
3126,60.0,0,1440,4.0,45.0
3127,61.0,0,115,11.0,108.0
3128,61.0,0,115,10.0,108.0
3129,73.0,0,115,11.0,108.0
3130,73.0,120,115,10.0,108.0
3131,71.0,0,115,11.0,108.0
3132,71.0,120,115,10.0,108.0
3133,49.0,0,400,8.0,92.0
3134,64.0,0,400,4.0,92.0
3135,68.0,0,400,4.0,92.0
3136,61.0,0,400,4.0,92.0
3137,64.0,0,400,6.0,92.0
3138,37.0,0,400,7.0,92.0
3139,73.0,0,400,5.0,92.0
3140,49.0,0,400,14.0,92.0
3141,49.0,0,400,3.0,92.0
3142,56.0,0,400,13.0,92.0
3143,44.0,0,400,14.0,92.0
3144,56.0,0,400,6.0,92.0
3145,37.0,0,400,3.0,92.0
3146,64.0,120,400,12.0,92.0
3147,37.0,0,400,15.0,92.0
3148,68.0,0,400,5.0,92.0
3149,37.0,0,400,14.0,92.0
3150,61.0,0,400,6.0,92.0
3151,69.0,120,115,11.0,108.0
3152,69.0,0,115,10.0,108.0
3153,68.0,120,115,10.0,108.0
3154,68.0,0,115,11.0,108.0
3155,73.0,120,115,11.0,108.0
3156,73.0,0,115,10.0,108.0
3157,68.0,0,115,10.0,108.0
3158,68.0,120,115,11.0,108.0
3159,66.0,0,115,10.0,108.0
3160,66.0,120,115,11.0,108.0
3161,64.0,120,115,10.0,108.0
3162,64.0,0,115,11.0,108.0
3163,68.0,0,115,11.0,108.0
3164,68.0,120,115,10.0,108.0
3165,64.0,0,115,11.0,108.0
3166,64.0,120,115,10.0,108.0
3167,63.0,0,115,10.0,108.0
3168,63.0,120,115,11.0,108.0
3169,61.0,0,115,10.0,108.0
3170,61.0,0,115,11.0,108.0
3171,73.0,0,115,11.0,108.0
3172,73.0,120,115,10.0,108.0
3173,68.0,120,115,10.0,108.0
3174,68.0,0,115,11.0,108.0
3175,56.0,0,400,6.0,92.0
3176,64.0,0,400,6.0,92.0
3177,64.0,0,400,4.0,92.0
3178,68.0,0,400,4.0,92.0
3179,37.0,0,400,14.0,92.0
3180,44.0,0,400,14.0,92.0
3181,37.0,0,400,7.0,92.0
3182,61.0,0,400,6.0,92.0
3183,56.0,0,400,4.0,92.0
3184,49.0,0,400,14.0,92.0
3185,73.0,0,400,5.0,92.0
3186,68.0,0,400,5.0,92.0
3187,64.0,0,400,12.0,92.0
3188,37.0,0,400,15.0,92.0
3189,61.0,0,400,4.0,92.0
3190,49.0,0,400,8.0,92.0
3191,37.0,0,400,3.0,92.0
3192,56.0,120,400,13.0,92.0
3193,66.0,120,115,11.0,108.0
3194,66.0,0,115,10.0,108.0
3195,64.0,120,115,11.0,108.0
3196,64.0,0,115,10.0,108.0
3197,68.0,0,115,10.0,108.0
3198,68.0,120,115,11.0,108.0
3199,64.0,120,115,11.0,108.0
3200,64.0,0,115,10.0,108.0
3201,63.0,120,115,11.0,108.0
3202,63.0,0,115,10.0,108.0
3203,61.0,0,115,10.0,108.0
3204,61.0,120,115,11.0,108.0
3205,64.0,120,115,10.0,108.0
3206,64.0,0,115,11.0,108.0
3207,61.0,120,115,10.0,108.0
3208,61.0,0,115,11.0,108.0
3209,59.0,0,115,10.0,108.0
3210,59.0,120,115,11.0,108.0
3211,73.0,0,80,5.0,92.0
3212,66.0,0,80,6.0,92.0
3213,61.0,0,80,6.0,92.0
3214,70.0,0,80,5.0,92.0
3215,58.0,0,80,6.0,92.0
3216,58.0,0,115,11.0,108.0
3217,58.0,0,115,10.0,108.0
3218,66.0,120,120,11.0,108.0
3219,66.0,0,120,10.0,108.0
3220,73.0,0,120,10.0,108.0
3221,78.0,0,120,2.0,108.0
3222,66.0,0,120,2.0,108.0
3223,90.0,0,120,0.0,108.0
3224,73.0,120,120,11.0,108.0
3225,78.0,0,120,1.0,108.0
3226,54.0,0,400,8.0,60.0
3227,66.0,0,115,11.0,108.0
3228,66.0,0,115,10.0,108.0
3229,65.0,120,120,2.0,108.0
3230,77.0,0,120,1.0,108.0
3231,77.0,0,120,2.0,108.0
3232,89.0,0,120,0.0,108.0
3233,66.0,0,80,2.0,108.0
3234,78.0,0,80,2.0,108.0
3235,90.0,0,80,0.0,108.0
3236,78.0,0,80,1.0,108.0
3237,76.0,120,120,11.0,108.0
3238,76.0,0,120,10.0,108.0
3239,66.0,0,400,6.0,92.0
3240,61.0,0,400,6.0,92.0
3241,73.0,0,400,5.0,92.0
3242,70.0,0,400,5.0,92.0
3243,58.0,0,400,6.0,92.0
3244,66.0,0,115,11.0,108.0
3245,66.0,120,115,10.0,108.0
3246,61.0,0,80,2.0,108.0
3247,73.0,0,80,1.0,108.0
3248,73.0,0,80,2.0,108.0
3249,85.0,0,80,0.0,108.0
3250,73.0,0,120,10.0,108.0
3251,73.0,120,120,11.0,108.0
3252,66.0,0,115,11.0,108.0
3253,66.0,120,115,10.0,108.0
3254,70.0,0,80,1.0,108.0
3255,58.0,0,80,2.0,108.0
3256,70.0,0,80,2.0,108.0
3257,82.0,120,80,0.0,108.0
3258,76.0,0,120,11.0,108.0
3259,76.0,0,120,10.0,108.0
3260,70.0,0,400,5.0,92.0
3261,73.0,0,400,5.0,92.0
3262,66.0,0,400,6.0,92.0
3263,61.0,0,400,6.0,92.0
3264,58.0,0,400,6.0,92.0
3265,66.0,120,115,10.0,108.0
3266,66.0,0,115,11.0,108.0
3267,85.0,0,80,0.0,108.0
3268,73.0,0,80,2.0,108.0
3269,70.0,0,80,5.0,92.0
3270,73.0,0,80,1.0,108.0
3271,58.0,0,80,6.0,92.0
3272,73.0,0,80,5.0,92.0
3273,61.0,0,80,2.0,108.0
3274,66.0,120,80,6.0,92.0
3275,61.0,0,80,6.0,92.0
3276,73.0,0,120,11.0,108.0
3277,73.0,0,120,10.0,108.0
3278,66.0,120,115,10.0,108.0
3279,66.0,0,115,11.0,108.0
3280,42.0,0,1440,7.0,92.0
3281,61.0,0,1440,12.0,92.0
3282,58.0,120,0,4.0,60.0
3283,42.0,0,1440,15.0,92.0
3284,42.0,0,1440,3.0,92.0
3285,42.0,0,1440,14.0,92.0
3286,58.0,0,0,13.0,60.0
3287,54.0,0,0,4.0,60.0
3288,61.0,0,0,4.0,60.0
3289,66.0,0,0,4.0,60.0
3290,61.0,0,80,6.0,60.0
3291,66.0,0,80,6.0,60.0
3292,73.0,0,80,5.0,60.0
3293,70.0,0,80,5.0,60.0
3294,58.0,0,80,6.0,60.0
3295,54.0,0,120,2.0,108.0
3296,66.0,0,120,1.0,108.0
3297,78.0,0,120,0.0,108.0
3298,58.0,0,120,11.0,75.0
3299,66.0,0,120,2.0,108.0
3300,58.0,0,120,10.0,75.0
3301,66.0,120,120,11.0,75.0
3302,66.0,0,120,10.0,75.0
3303,76.0,0,120,11.0,75.0
3304,76.0,0,120,10.0,75.0
3305,42.0,0,400,3.0,60.0
3306,49.0,120,1840,14.0,92.0
3307,42.0,0,400,14.0,60.0
3308,42.0,0,400,15.0,60.0
3309,54.0,0,400,8.0,60.0
3310,42.0,0,400,7.0,60.0
3311,66.0,0,115,11.0,75.0
3312,66.0,120,115,10.0,75.0
3313,73.0,0,120,10.0,75.0
3314,73.0,0,120,11.0,75.0
3315,73.0,120,400,5.0,60.0
3316,70.0,0,400,5.0,60.0
3317,58.0,0,400,6.0,60.0
3318,66.0,0,400,6.0,60.0
3319,61.0,0,400,6.0,60.0
3320,66.0,0,115,11.0,75.0
3321,66.0,120,115,10.0,75.0
3322,76.0,0,120,10.0,75.0
3323,76.0,0,120,11.0,75.0
3324,49.0,0,400,15.0,60.0
3325,49.0,0,400,7.0,60.0
3326,54.0,0,400,14.0,60.0
3327,49.0,0,400,14.0,60.0
3328,49.0,120,400,3.0,60.0
3329,66.0,0,115,11.0,75.0
3330,66.0,120,115,10.0,75.0
3331,73.0,0,120,10.0,75.0
3332,73.0,0,120,11.0,75.0
3333,73.0,0,400,5.0,60.0
3334,61.0,0,400,6.0,60.0
3335,70.0,0,400,5.0,60.0
3336,58.0,0,400,6.0,60.0
3337,66.0,120,400,6.0,60.0
3338,66.0,0,115,10.0,75.0
3339,66.0,120,115,11.0,75.0
3340,66.0,0,80,6.0,60.0
3341,73.0,0,80,5.0,60.0
3342,70.0,0,80,5.0,60.0
3343,58.0,0,80,6.0,60.0
3344,61.0,0,80,6.0,60.0
3345,76.0,0,120,10.0,75.0
3346,61.0,0,1320,12.0,60.0
3347,76.0,120,120,11.0,75.0
3348,46.0,0,400,14.0,60.0
3349,54.0,0,400,14.0,60.0
3350,46.0,120,400,7.0,60.0
3351,46.0,0,400,15.0,60.0
3352,46.0,0,400,3.0,60.0
3353,66.0,0,115,11.0,75.0
3354,66.0,120,115,10.0,75.0
3355,59.0,0,115,10.0,108.0
3356,59.0,0,115,11.0,108.0
3357,83.0,0,115,11.0,108.0
3358,83.0,120,115,10.0,108.0
3359,82.0,120,115,10.0,108.0
3360,82.0,0,115,11.0,108.0
3361,47.0,0,400,3.0,92.0
3362,63.0,0,400,4.0,92.0
3363,54.0,0,400,4.0,92.0
3364,63.0,0,400,12.0,92.0
3365,71.0,0,400,12.0,92.0
3366,66.0,0,400,6.0,92.0
3367,59.0,0,400,6.0,92.0
3368,35.0,0,400,7.0,92.0
3369,47.0,0,400,8.0,92.0
3370,47.0,120,400,14.0,92.0
3371,54.0,0,400,14.0,92.0
3372,35.0,0,400,15.0,92.0
3373,66.0,0,400,4.0,92.0
3374,59.0,0,400,4.0,92.0
3375,54.0,0,400,13.0,92.0
3376,63.0,0,400,6.0,92.0
3377,68.0,0,400,5.0,92.0
3378,71.0,0,400,5.0,92.0
3379,80.0,120,115,10.0,108.0
3380,80.0,0,115,11.0,108.0
3381,78.0,120,115,11.0,108.0
3382,78.0,0,115,10.0,108.0
3383,83.0,120,115,11.0,108.0
3384,83.0,0,115,10.0,108.0
3385,78.0,120,115,11.0,108.0
3386,78.0,0,115,10.0,108.0
3387,76.0,120,115,10.0,108.0
3388,76.0,0,115,11.0,108.0
3389,75.0,0,115,11.0,108.0
3390,75.0,120,115,10.0,108.0
3391,78.0,120,115,10.0,108.0
3392,78.0,0,115,11.0,108.0
3393,75.0,120,115,10.0,108.0
3394,75.0,0,115,11.0,108.0
3395,73.0,120,115,10.0,108.0
3396,73.0,0,115,11.0,108.0
3397,71.0,0,115,10.0,92.0
3398,71.0,0,115,11.0,92.0
3399,83.0,0,115,11.0,92.0
3400,83.0,120,115,10.0,92.0
3401,78.0,120,115,11.0,92.0
3402,78.0,0,115,10.0,92.0
3403,66.0,0,400,12.0,75.0
3404,59.0,0,400,12.0,75.0
3405,59.0,0,400,6.0,75.0
3406,54.0,0,400,4.0,75.0
3407,63.0,0,400,4.0,75.0
3408,35.0,0,400,15.0,75.0
3409,47.0,0,400,3.0,75.0
3410,66.0,0,400,4.0,75.0
3411,63.0,0,400,6.0,75.0
3412,75.0,0,400,5.0,60.0
3413,71.0,0,400,5.0,60.0
3414,66.0,0,400,6.0,75.0
3415,54.0,120,400,14.0,75.0
3416,47.0,0,400,14.0,75.0
3417,47.0,0,400,8.0,75.0
3418,59.0,0,400,4.0,75.0
3419,35.0,0,400,7.0,75.0
3420,63.0,0,400,13.0,75.0
3421,76.0,120,115,10.0,92.0
3422,76.0,0,115,11.0,92.0
3423,75.0,0,115,11.0,92.0
3424,75.0,120,115,10.0,92.0
3425,78.0,120,115,11.0,92.0
3426,78.0,0,115,10.0,92.0
3427,75.0,0,115,11.0,92.0
3428,75.0,120,115,10.0,92.0
3429,73.0,120,115,10.0,92.0
3430,73.0,0,115,11.0,92.0
3431,71.0,120,115,11.0,92.0
3432,71.0,0,115,10.0,92.0
3433,75.0,120,115,11.0,92.0
3434,75.0,0,115,10.0,92.0
3435,71.0,120,115,11.0,92.0
3436,71.0,0,115,10.0,92.0
3437,69.0,120,115,10.0,92.0
3438,69.0,0,115,11.0,92.0
3439,68.0,0,120,10.0,108.0
3440,68.0,0,120,11.0,108.0
3441,74.0,0,120,11.0,108.0
3442,74.0,120,120,10.0,108.0
3443,88.0,0,120,0.0,108.0
3444,76.0,0,120,2.0,108.0
3445,76.0,0,120,1.0,108.0
3446,76.0,0,120,11.0,108.0
3447,76.0,0,120,10.0,108.0
3448,64.0,120,120,2.0,108.0
3449,52.0,0,400,8.0,75.0
3450,74.0,0,115,10.0,108.0
3451,74.0,0,115,11.0,108.0
3452,87.0,120,120,0.0,108.0
3453,75.0,0,120,1.0,108.0
3454,63.0,0,120,2.0,108.0
3455,75.0,0,120,2.0,108.0
3456,88.0,0,80,0.0,108.0
3457,76.0,0,80,2.0,108.0
3458,76.0,120,80,1.0,108.0
3459,64.0,0,80,2.0,108.0
3460,80.0,0,120,10.0,108.0
3461,80.0,0,120,11.0,108.0
3462,74.0,120,115,11.0,108.0
3463,74.0,0,115,10.0,108.0
3464,71.0,0,80,2.0,108.0
3465,83.0,0,80,0.0,108.0
3466,59.0,0,80,2.0,108.0
3467,71.0,0,80,1.0,108.0
3468,83.0,0,120,10.0,108.0
3469,83.0,120,120,11.0,108.0
3470,74.0,120,115,11.0,108.0
3471,74.0,0,115,10.0,108.0
3472,68.0,0,80,1.0,108.0
3473,68.0,0,80,2.0,108.0
3474,56.0,0,80,2.0,108.0
3475,80.0,120,80,0.0,108.0
3476,80.0,0,120,11.0,108.0
3477,80.0,0,120,10.0,108.0
3478,74.0,120,115,10.0,108.0
3479,74.0,0,115,11.0,108.0
3480,59.0,0,80,2.0,108.0
3481,71.0,0,80,1.0,108.0
3482,83.0,0,80,0.0,108.0
3483,71.0,0,80,2.0,108.0
3484,76.0,120,120,10.0,108.0
3485,76.0,0,120,11.0,108.0
3486,74.0,120,115,11.0,108.0
3487,74.0,0,115,10.0,108.0
3488,28.0,120,1440,7.0,92.0
3489,56.0,0,1440,4.0,92.0
3490,59.0,0,1440,4.0,92.0
3491,66.0,120,0,12.0,45.0
3492,59.0,0,0,12.0,45.0
3493,62.0,0,0,13.0,45.0
3494,62.0,0,1440,4.0,92.0
3495,59.0,0,0,6.0,45.0
3496,74.0,0,1440,5.0,92.0
3497,71.0,0,1440,5.0,92.0
3498,68.0,0,1440,4.0,92.0
3499,47.0,0,1440,14.0,92.0
3500,28.0,0,1440,15.0,92.0
3501,52.0,0,1440,14.0,92.0
3502,62.0,0,1440,6.0,92.0
3503,40.0,0,1440,3.0,92.0
3504,40.0,0,1440,14.0,92.0
3505,64.0,0,0,6.0,45.0
3506,64.0,0,80,2.0,108.0
3507,76.0,0,80,0.0,108.0
3508,52.0,0,80,2.0,108.0
3509,64.0,0,80,1.0,108.0
3510,68.0,0,120,11.0,60.0
3511,68.0,0,120,10.0,60.0
3512,68.0,0,235,4.0,45.0
3513,62.0,0,235,4.0,45.0
3514,59.0,0,235,4.0,45.0
3515,68.0,0,235,5.0,45.0
3516,76.0,0,235,5.0,45.0
3517,56.0,0,235,4.0,45.0
3518,68.0,0,235,6.0,45.0
3519,74.0,120,120,10.0,60.0
3520,74.0,0,120,11.0,60.0
3521,64.0,0,80,6.0,75.0
3522,68.0,0,80,5.0,75.0
3523,68.0,0,80,6.0,75.0
3524,64.0,0,80,4.0,75.0
3525,76.0,0,80,5.0,75.0
3526,68.0,120,80,4.0,75.0
3527,76.0,0,120,11.0,60.0
3528,76.0,0,120,10.0,60.0
3529,62.0,0,80,6.0,75.0
3530,66.0,120,80,6.0,75.0
3531,66.0,0,80,4.0,75.0
3532,66.0,0,80,5.0,75.0
3533,74.0,0,80,5.0,75.0
3534,62.0,0,80,4.0,75.0
3535,74.0,0,115,10.0,60.0
3536,74.0,0,115,11.0,60.0
3537,64.0,0,80,6.0,75.0
3538,64.0,0,80,4.0,75.0
3539,68.0,0,80,11.0,60.0
3540,68.0,0,80,10.0,60.0
3541,68.0,0,80,6.0,75.0
3542,76.0,0,80,5.0,75.0
3543,68.0,120,80,4.0,75.0
3544,68.0,0,80,5.0,75.0
3545,74.0,120,80,10.0,60.0
3546,74.0,0,80,11.0,60.0
3547,74.0,0,80,5.0,75.0
3548,66.0,120,80,5.0,75.0
3549,66.0,0,80,10.0,60.0
3550,62.0,0,80,6.0,75.0
3551,66.0,0,80,4.0,75.0
3552,66.0,0,80,6.0,75.0
3553,62.0,0,80,4.0,75.0
3554,66.0,0,80,11.0,60.0
3555,74.0,0,80,10.0,60.0
3556,74.0,120,80,11.0,60.0
3557,68.0,0,80,10.0,60.0
3558,64.0,0,80,4.0,75.0
3559,64.0,0,80,6.0,75.0
3560,68.0,120,80,6.0,75.0
3561,76.0,0,80,5.0,75.0
3562,68.0,0,80,5.0,75.0
3563,68.0,0,80,11.0,60.0
3564,68.0,0,80,4.0,75.0
3565,74.0,0,80,10.0,60.0
3566,74.0,120,80,11.0,60.0
3567,61.0,0,80,6.0,75.0
3568,61.0,0,80,4.0,75.0
3569,64.0,0,80,4.0,75.0
3570,64.0,0,80,6.0,75.0
3571,73.0,0,80,5.0,75.0
3572,64.0,120,80,5.0,75.0
3573,64.0,0,80,10.0,60.0
3574,64.0,0,80,11.0,60.0
3575,52.0,0,1320,3.0,45.0
3576,47.0,0,1320,14.0,45.0
3577,52.0,0,1320,14.0,45.0
3578,40.0,0,1320,7.0,45.0
3579,40.0,0,1320,15.0,45.0
3580,74.0,0,80,11.0,60.0
3581,74.0,120,80,10.0,60.0
3582,73.0,0,120,10.0,108.0
3583,73.0,0,120,11.0,108.0
3584,76.0,120,120,11.0,108.0
3585,76.0,0,120,10.0,108.0
3586,81.0,120,120,11.0,108.0
3587,81.0,0,120,10.0,108.0
3588,80.0,0,115,10.0,108.0
3589,80.0,120,115,11.0,108.0
3590,81.0,120,115,10.0,108.0
3591,81.0,0,115,11.0,108.0
3592,73.0,0,715,5.0,92.0
3593,69.0,0,715,5.0,92.0
3594,76.0,0,115,11.0,108.0
3595,69.0,0,715,4.0,92.0
3596,76.0,120,115,10.0,108.0
3597,61.0,120,715,6.0,92.0
3598,64.0,0,715,6.0,92.0
3599,69.0,0,715,6.0,92.0
3600,73.0,0,715,4.0,92.0
3601,74.0,0,115,10.0,108.0
3602,74.0,0,115,11.0,108.0
3603,76.0,120,115,11.0,108.0
3604,76.0,0,115,10.0,108.0
3605,71.0,0,240,5.0,92.0
3606,61.0,0,960,12.0,92.0
3607,74.0,0,240,5.0,92.0
3608,74.0,0,240,4.0,92.0
3609,71.0,0,240,6.0,92.0
3610,59.0,0,240,6.0,92.0
3611,71.0,120,240,4.0,92.0
3612,62.0,0,240,6.0,92.0
3613,61.0,0,960,13.0,92.0
3614,57.0,0,0,13.0,92.0
3615,73.0,0,115,11.0,108.0
3616,73.0,0,115,10.0,108.0
3617,76.0,0,115,10.0,108.0
3618,76.0,120,115,11.0,108.0
3619,73.0,0,240,5.0,92.0
3620,64.0,0,240,6.0,92.0
3621,61.0,0,240,6.0,92.0
3622,69.0,0,240,4.0,92.0
3623,69.0,120,240,5.0,92.0
3624,73.0,0,240,4.0,92.0
3625,69.0,0,240,6.0,92.0
3626,71.0,0,115,10.0,108.0
3627,71.0,120,115,11.0,108.0
3628,69.0,0,1320,12.0,92.0
3629,62.0,0,400,13.0,92.0
3630,76.0,0,115,10.0,108.0
3631,76.0,120,115,11.0,108.0
3632,71.0,0,240,5.0,92.0
3633,68.0,0,240,5.0,92.0
3634,59.0,0,240,6.0,92.0
3635,71.0,0,240,4.0,92.0
3636,62.0,0,480,12.0,92.0
3637,68.0,0,240,6.0,92.0
3638,62.0,0,240,6.0,92.0
3639,68.0,0,240,4.0,92.0
3640,69.0,120,115,10.0,108.0
3641,69.0,0,115,11.0,108.0
3642,81.0,0,120,10.0,108.0
3643,81.0,120,120,11.0,108.0
3644,80.0,120,120,10.0,108.0
3645,80.0,0,120,11.0,108.0
3646,33.0,0,1840,7.0,92.0
3647,33.0,0,1840,15.0,92.0
3648,45.0,0,1840,3.0,92.0
3649,52.0,0,1840,3.0,92.0
3650,45.0,0,1840,14.0,92.0
3651,52.0,0,1840,14.0,92.0
3652,78.0,0,115,10.0,108.0
3653,78.0,120,115,11.0,108.0
3654,76.0,0,115,10.0,108.0
3655,76.0,0,115,11.0,108.0
3656,69.0,120,115,11.0,108.0
3657,69.0,0,115,10.0,108.0
3658,78.0,120,115,11.0,108.0
3659,78.0,0,115,10.0,108.0
3660,61.0,0,840,12.0,92.0
3661,69.0,0,840,12.0,92.0
3662,49.0,0,400,3.0,92.0
3663,37.0,0,400,15.0,92.0
3664,37.0,0,400,7.0,92.0
3665,49.0,120,400,14.0,92.0
3666,69.0,120,115,11.0,108.0
3667,69.0,0,115,10.0,108.0
3668,57.0,0,960,4.0,92.0
3669,64.0,120,0,4.0,92.0
3670,69.0,0,960,6.0,92.0
3671,64.0,0,960,6.0,92.0
3672,61.0,0,960,4.0,92.0
3673,73.0,0,960,5.0,92.0
3674,69.0,0,960,5.0,92.0
3675,57.0,0,960,13.0,92.0
3676,61.0,0,960,13.0,92.0
3677,69.0,0,960,4.0,92.0
3678,61.0,0,960,6.0,92.0
3679,76.0,0,115,10.0,108.0
3680,76.0,0,115,11.0,108.0
3681,69.0,120,115,10.0,108.0
3682,69.0,0,115,11.0,108.0
3683,74.0,120,115,11.0,108.0
3684,74.0,0,115,10.0,108.0
3685,68.0,0,400,6.0,92.0
3686,52.0,0,400,14.0,92.0
3687,64.0,0,400,4.0,92.0
3688,59.0,0,400,4.0,92.0
3689,71.0,0,400,5.0,92.0
3690,52.0,0,400,3.0,92.0
3691,40.0,0,400,15.0,92.0
3692,59.0,0,400,6.0,92.0
3693,52.0,0,400,8.0,92.0
3694,59.0,0,400,13.0,92.0
3695,40.0,0,400,7.0,92.0
3696,71.0,0,400,4.0,92.0
3697,59.0,0,400,12.0,92.0
3698,75.0,0,400,5.0,92.0
3699,64.0,0,400,6.0,92.0
3700,68.0,0,400,12.0,92.0
3701,69.0,0,115,10.0,108.0
3702,69.0,120,115,11.0,108.0
3703,73.0,120,80,10.0,75.0
3704,73.0,0,80,11.0,75.0
3705,76.0,0,80,10.0,75.0
3706,76.0,120,80,11.0,75.0
3707,71.0,120,80,10.0,75.0
3708,71.0,0,80,11.0,75.0
3709,45.0,0,400,8.0,75.0
3710,76.0,0,80,11.0,75.0
3711,76.0,120,80,10.0,75.0
3712,73.0,120,80,10.0,75.0
3713,73.0,0,80,11.0,75.0
3714,76.0,120,80,11.0,75.0
3715,76.0,0,80,10.0,75.0
3716,61.0,0,715,6.0,60.0
3717,69.0,0,715,5.0,60.0
3718,73.0,0,715,5.0,60.0
3719,73.0,0,715,4.0,60.0
3720,69.0,0,715,4.0,60.0
3721,64.0,0,715,6.0,60.0
3722,69.0,0,715,6.0,60.0
3723,74.0,0,80,10.0,75.0
3724,74.0,0,80,11.0,75.0
3725,76.0,0,80,11.0,75.0
3726,76.0,120,80,10.0,75.0
3727,71.0,0,240,4.0,60.0
3728,61.0,0,960,12.0,60.0
3729,59.0,0,240,6.0,60.0
3730,71.0,0,240,5.0,60.0
3731,74.0,120,240,5.0,60.0
3732,57.0,0,960,13.0,60.0
3733,71.0,0,240,6.0,60.0
3734,62.0,0,240,6.0,60.0
3735,74.0,0,240,4.0,60.0
3736,61.0,0,960,13.0,60.0
3737,73.0,0,80,10.0,75.0
3738,73.0,0,80,11.0,75.0
3739,76.0,0,80,10.0,75.0
3740,76.0,120,80,11.0,75.0
3741,69.0,120,240,5.0,60.0
3742,73.0,0,240,5.0,60.0
3743,69.0,0,240,4.0,60.0
3744,73.0,0,240,4.0,60.0
3745,64.0,0,240,6.0,60.0
3746,61.0,0,240,6.0,60.0
3747,69.0,0,240,6.0,60.0
3748,71.0,120,80,11.0,75.0
3749,71.0,0,80,10.0,75.0
3750,69.0,0,1320,12.0,60.0
3751,57.0,0,400,13.0,60.0
3752,62.0,0,400,13.0,60.0
3753,76.0,120,80,10.0,75.0
3754,76.0,0,80,11.0,75.0
3755,71.0,0,240,4.0,60.0
3756,68.0,0,240,6.0,60.0
3757,62.0,0,240,6.0,60.0
3758,59.0,0,240,6.0,60.0
3759,62.0,0,480,12.0,60.0
3760,68.0,0,240,5.0,60.0
3761,68.0,0,240,4.0,60.0
3762,71.0,0,240,5.0,60.0
3763,69.0,0,80,10.0,75.0
3764,69.0,0,80,11.0,75.0
3765,81.0,0,120,11.0,75.0
3766,81.0,120,120,10.0,75.0
3767,80.0,0,85,11.0,75.0
3768,80.0,120,85,10.0,75.0
3769,52.0,0,1840,14.0,60.0
3770,33.0,0,1840,15.0,60.0
3771,45.0,0,1840,14.0,60.0
3772,52.0,0,1840,3.0,60.0
3773,45.0,0,1840,3.0,60.0
3774,33.0,0,1840,7.0,60.0
3775,78.0,120,80,10.0,75.0
3776,78.0,0,80,11.0,75.0
3777,76.0,120,80,11.0,75.0
3778,76.0,0,80,10.0,75.0
3779,69.0,0,80,10.0,75.0
3780,69.0,120,80,11.0,75.0
3781,78.0,0,80,11.0,75.0
3782,78.0,120,80,10.0,75.0
3783,49.0,0,400,14.0,60.0
3784,37.0,0,400,15.0,60.0
3785,37.0,0,400,7.0,60.0
3786,49.0,0,400,3.0,60.0
3787,69.0,0,80,10.0,75.0
3788,69.0,120,80,11.0,75.0
3789,61.0,0,960,6.0,60.0
3790,61.0,120,960,4.0,60.0
3791,73.0,0,960,5.0,60.0
3792,69.0,0,960,5.0,60.0
3793,57.0,0,960,13.0,60.0
3794,61.0,0,960,13.0,60.0
3795,69.0,0,960,4.0,60.0
3796,57.0,0,960,4.0,60.0
3797,64.0,0,0,4.0,60.0
3798,64.0,0,0,12.0,60.0
3799,61.0,0,960,12.0,60.0
3800,64.0,0,0,6.0,60.0
3801,69.0,0,960,6.0,60.0
3802,76.0,0,80,10.0,75.0
3803,76.0,0,80,11.0,75.0
3804,69.0,120,80,10.0,75.0
3805,69.0,0,80,11.0,75.0
3806,74.0,0,80,11.0,75.0
3807,74.0,120,80,10.0,75.0
3808,75.0,0,400,5.0,60.0
3809,68.0,0,400,6.0,60.0
3810,59.0,0,400,13.0,60.0
3811,40.0,120,400,15.0,60.0
3812,64.0,0,400,4.0,60.0
3813,71.0,0,400,4.0,60.0
3814,52.0,0,400,14.0,60.0
3815,52.0,0,400,3.0,60.0
3816,56.0,0,400,12.0,60.0
3817,71.0,0,400,5.0,60.0
3818,52.0,0,400,8.0,75.0
3819,59.0,0,400,4.0,60.0
3820,59.0,0,400,6.0,60.0
3821,40.0,0,400,7.0,60.0
3822,69.0,120,80,10.0,75.0
3823,69.0,0,80,11.0,75.0
3824,73.0,0,115,10.0,108.0
3825,73.0,0,115,11.0,108.0
3826,69.0,0,120,11.0,108.0
3827,69.0,120,0,10.0,108.0
3828,69.0,0,0,10.0,108.0
3829,69.0,120,0,11.0,108.0
3830,45.0,0,400,8.0,75.0
3831,68.0,120,120,10.0,108.0
3832,68.0,0,120,11.0,108.0
3833,69.0,120,120,10.0,108.0
3834,69.0,0,120,11.0,108.0
3835,69.0,120,115,10.0,108.0
3836,69.0,0,115,11.0,108.0
3837,69.0,120,115,10.0,108.0
3838,69.0,0,115,11.0,108.0
3839,69.0,0,960,5.0,92.0
3840,73.0,0,960,5.0,92.0
3841,61.0,0,960,6.0,92.0
3842,69.0,0,0,6.0,92.0
3843,73.0,0,960,4.0,92.0
3844,64.0,0,960,4.0,92.0
3845,61.0,0,960,4.0,92.0
3846,64.0,120,960,6.0,92.0
3847,69.0,0,960,4.0,92.0
3848,71.0,0,120,11.0,108.0
3849,71.0,0,120,10.0,108.0
3850,69.0,120,120,11.0,108.0
3851,69.0,0,120,10.0,108.0
3852,68.0,120,120,11.0,108.0
3853,68.0,0,120,10.0,108.0
3854,69.0,0,115,11.0,108.0
3855,69.0,120,115,10.0,108.0
3856,69.0,0,480,5.0,92.0
3857,45.0,0,1440,3.0,92.0
3858,62.0,120,480,6.0,92.0
3859,64.0,0,480,4.0,92.0
3860,62.0,0,480,4.0,92.0
3861,74.0,0,480,5.0,92.0
3862,66.0,0,480,6.0,92.0
3863,45.0,0,0,14.0,92.0
3864,74.0,0,480,4.0,92.0
3865,69.0,0,480,4.0,92.0
3866,69.0,0,115,11.0,108.0
3867,69.0,0,115,10.0,108.0
3868,61.0,0,235,4.0,92.0
3869,73.0,0,235,5.0,92.0
3870,69.0,0,235,4.0,92.0
3871,64.0,0,235,6.0,92.0
3872,61.0,0,235,6.0,92.0
3873,64.0,120,235,5.0,92.0
3874,73.0,0,235,4.0,92.0
3875,64.0,0,235,4.0,92.0
3876,69.0,0,120,10.0,108.0
3877,69.0,120,120,11.0,108.0
3878,73.0,0,120,10.0,108.0
3879,73.0,120,120,11.0,108.0
3880,69.0,0,115,10.0,108.0
3881,69.0,120,115,11.0,108.0
3882,85.0,0,240,0.0,108.0
3883,73.0,0,240,1.0,108.0
3884,73.0,0,240,4.0,92.0
3885,73.0,0,240,5.0,92.0
3886,64.0,0,240,5.0,92.0
3887,64.0,0,240,4.0,92.0
3888,73.0,0,240,2.0,108.0
3889,64.0,0,240,6.0,92.0
3890,61.0,0,240,6.0,92.0
3891,71.0,0,120,11.0,108.0
3892,71.0,120,120,10.0,108.0
3893,69.0,120,115,11.0,108.0
3894,69.0,0,115,10.0,108.0
3895,62.0,0,240,4.0,92.0
3896,71.0,0,240,1.0,108.0
3897,83.0,0,240,0.0,108.0
3898,62.0,0,240,5.0,92.0
3899,62.0,0,240,6.0,92.0
3900,71.0,0,240,2.0,108.0
3901,59.0,0,240,6.0,92.0
3902,71.0,0,240,4.0,92.0
3903,71.0,0,240,5.0,92.0
3904,73.0,0,120,11.0,108.0
3905,45.0,0,840,3.0,92.0
3906,73.0,0,120,10.0,108.0
3907,52.0,0,2280,14.0,92.0
3908,33.0,0,2280,15.0,92.0
3909,33.0,0,2280,7.0,92.0
3910,57.0,0,840,6.0,92.0
3911,69.0,0,115,10.0,108.0
3912,69.0,120,115,11.0,108.0
3913,64.0,0,240,4.0,92.0
3914,85.0,0,240,0.0,108.0
3915,73.0,120,240,1.0,108.0
3916,64.0,0,240,6.0,92.0
3917,61.0,0,240,6.0,92.0
3918,73.0,0,240,4.0,92.0
3919,57.0,0,2400,13.0,92.0
3920,73.0,0,240,5.0,92.0
3921,64.0,0,240,5.0,92.0
3922,61.0,0,2400,12.0,92.0
3923,64.0,0,0,12.0,92.0
3924,73.0,0,240,2.0,108.0
3925,74.0,0,120,11.0,108.0
3926,74.0,0,120,10.0,108.0
3927,69.0,120,115,11.0,108.0
3928,69.0,0,115,10.0,108.0
3929,74.0,0,240,1.0,108.0
3930,66.0,120,240,4.0,92.0
3931,74.0,0,240,2.0,108.0
3932,74.0,0,240,4.0,92.0
3933,74.0,0,240,5.0,92.0
3934,66.0,0,240,5.0,92.0
3935,62.0,0,0,6.0,92.0
3936,66.0,0,240,6.0,92.0
3937,86.0,0,240,0.0,108.0
3938,71.0,0,120,10.0,108.0
3939,71.0,0,120,11.0,108.0
3940,40.0,0,400,15.0,92.0
3941,59.0,0,400,12.0,92.0
3942,40.0,0,400,7.0,92.0
3943,56.0,0,400,13.0,92.0
3944,52.0,0,400,14.0,92.0
3945,56.0,0,400,6.0,92.0
3946,52.0,0,400,3.0,92.0
3947,69.0,0,115,11.0,108.0
3948,62.0,0,235,5.0,92.0
3949,69.0,120,115,10.0,108.0
3950,71.0,0,235,4.0,92.0
3951,59.0,120,235,6.0,92.0
3952,71.0,0,235,5.0,92.0
3953,62.0,0,235,4.0,92.0
3954,71.0,0,240,1.0,108.0
3955,83.0,0,240,0.0,108.0
3956,71.0,0,240,2.0,108.0
3957,73.0,0,80,11.0,75.0
3958,73.0,0,80,10.0,75.0
3959,85.0,0,120,0.0,108.0
3960,73.0,0,120,1.0,108.0
3961,69.0,0,80,11.0,75.0
3962,69.0,120,80,10.0,75.0
3963,69.0,120,80,10.0,75.0
3964,69.0,0,80,11.0,75.0
3965,73.0,0,400,2.0,108.0
3966,69.0,0,80,11.0,75.0
3967,69.0,120,80,10.0,75.0
3968,68.0,0,80,11.0,75.0
3969,68.0,120,80,10.0,75.0
3970,69.0,120,80,10.0,75.0
3971,69.0,0,80,11.0,75.0
3972,61.0,120,715,6.0,75.0
3973,73.0,0,715,5.0,75.0
3974,64.0,0,715,6.0,75.0
3975,69.0,0,715,5.0,75.0
3976,73.0,0,715,4.0,75.0
3977,69.0,0,715,6.0,75.0
3978,69.0,0,80,11.0,75.0
3979,69.0,0,80,10.0,75.0
3980,69.0,120,80,10.0,75.0
3981,69.0,0,80,11.0,75.0
3982,71.0,0,240,6.0,75.0
3983,62.0,120,240,6.0,75.0
3984,74.0,0,240,4.0,75.0
3985,61.0,0,960,12.0,60.0
3986,64.0,0,960,4.0,75.0
3987,59.0,0,240,6.0,75.0
3988,64.0,0,0,12.0,60.0
3989,74.0,0,240,5.0,75.0
3990,71.0,0,240,5.0,75.0
3991,61.0,0,960,4.0,75.0
3992,71.0,0,80,11.0,75.0
3993,71.0,0,80,10.0,75.0
3994,69.0,0,80,10.0,75.0
3995,69.0,120,80,11.0,75.0
3996,73.0,0,240,5.0,75.0
3997,69.0,0,240,5.0,75.0
3998,61.0,0,240,6.0,75.0
3999,73.0,0,240,4.0,75.0
4000,64.0,120,240,6.0,75.0
4001,69.0,0,240,6.0,75.0
4002,68.0,0,80,10.0,75.0
4003,68.0,0,80,11.0,75.0
4004,69.0,120,80,10.0,75.0
4005,69.0,0,80,11.0,75.0
4006,68.0,0,240,5.0,75.0
4007,64.0,0,480,4.0,75.0
4008,68.0,0,240,6.0,75.0
4009,62.0,0,480,12.0,60.0
4010,71.0,0,240,5.0,75.0
4011,71.0,120,240,4.0,75.0
4012,59.0,0,240,6.0,75.0
4013,62.0,0,480,4.0,75.0
4014,64.0,0,0,6.0,75.0
4015,69.0,0,80,11.0,75.0
4016,69.0,0,80,10.0,75.0
4017,69.0,120,80,11.0,75.0
4018,69.0,0,80,10.0,75.0
4019,73.0,0,235,5.0,75.0
4020,64.0,0,235,5.0,75.0
4021,73.0,0,235,4.0,75.0
4022,61.0,0,235,6.0,75.0
4023,69.0,0,235,4.0,75.0
4024,73.0,0,80,11.0,75.0
4025,73.0,0,80,10.0,75.0
4026,69.0,0,80,10.0,75.0
4027,69.0,120,80,11.0,75.0
4028,85.0,0,240,0.0,60.0
4029,73.0,120,240,2.0,60.0
4030,73.0,0,240,5.0,75.0
4031,73.0,0,240,4.0,75.0
4032,69.0,0,240,4.0,75.0
4033,73.0,0,240,1.0,60.0
4034,64.0,0,240,5.0,75.0
4035,64.0,0,240,6.0,75.0
4036,61.0,0,240,6.0,75.0
4037,71.0,0,80,11.0,75.0
4038,71.0,0,80,10.0,75.0
4039,69.0,0,80,10.0,75.0
4040,69.0,120,80,11.0,75.0
4041,83.0,0,240,0.0,60.0
4042,63.0,0,240,6.0,75.0
4043,59.0,0,240,6.0,75.0
4044,71.0,0,240,5.0,75.0
4045,71.0,0,240,1.0,60.0
4046,62.0,0,240,5.0,75.0
4047,68.0,0,240,4.0,75.0
4048,71.0,120,240,2.0,60.0
4049,71.0,0,240,4.0,75.0
4050,73.0,0,80,10.0,75.0
4051,73.0,0,80,11.0,75.0
4052,45.0,0,2280,3.0,60.0
4053,33.0,0,2280,7.0,60.0
4054,45.0,0,2280,14.0,60.0
4055,33.0,0,2280,15.0,60.0
4056,52.0,0,2280,14.0,60.0
4057,69.0,0,80,10.0,75.0
4058,69.0,120,80,11.0,75.0
4059,64.0,0,960,12.0,60.0
4060,61.0,120,960,12.0,60.0
4061,73.0,0,240,4.0,75.0
4062,64.0,0,240,5.0,75.0
4063,73.0,0,240,5.0,75.0
4064,57.0,0,2400,13.0,60.0
4065,57.0,0,960,6.0,75.0
4066,69.0,0,240,4.0,75.0
4067,73.0,120,240,1.0,60.0
4068,64.0,0,240,6.0,75.0
4069,73.0,0,240,2.0,60.0
4070,61.0,0,240,6.0,75.0
4071,85.0,0,240,0.0,60.0
4072,74.0,0,80,10.0,75.0
4073,74.0,0,80,11.0,75.0
4074,69.0,120,80,10.0,75.0
4075,69.0,0,80,11.0,75.0
4076,66.0,0,240,6.0,75.0
4077,62.0,0,0,6.0,75.0
4078,86.0,0,240,0.0,60.0
4079,71.0,0,240,4.0,75.0
4080,74.0,0,240,4.0,75.0
4081,74.0,0,240,2.0,60.0
4082,74.0,0,240,5.0,75.0
4083,66.0,0,240,5.0,75.0
4084,74.0,0,240,1.0,60.0
4085,71.0,0,80,11.0,75.0
4086,71.0,0,80,10.0,75.0
4087,40.0,120,400,14.0,60.0
4088,64.0,0,400,12.0,60.0
4089,59.0,0,400,12.0,60.0
4090,56.0,0,400,13.0,60.0
4091,40.0,0,400,7.0,60.0
4092,56.0,0,400,6.0,75.0
4093,40.0,0,400,3.0,60.0
4094,40.0,0,400,15.0,60.0
4095,69.0,0,80,11.0,75.0
4096,69.0,120,80,10.0,75.0
4097,68.0,0,235,4.0,75.0
4098,71.0,0,235,5.0,75.0
4099,59.0,120,235,6.0,75.0
4100,62.0,0,235,5.0,75.0
4101,71.0,0,235,4.0,75.0
4102,83.0,0,240,0.0,60.0
4103,71.0,0,240,1.0,60.0
4104,71.0,0,240,2.0,60.0
4105,45.0,120,25,8.0,60.0
4106,45.0,30,25,8.0,60.0
4107,69.0,0,80,2.0,108.0
4108,61.0,0,80,6.0,108.0
4109,64.0,0,80,6.0,108.0
4110,64.0,0,80,2.0,108.0
4111,45.0,30,25,8.0,60.0
4112,45.0,30,25,8.0,60.0
4113,85.0,0,120,0.0,60.0
4114,73.0,0,120,10.0,127.0
4115,73.0,0,120,11.0,127.0
4116,73.0,0,120,1.0,60.0
4117,45.0,30,25,8.0,60.0
4118,45.0,30,25,8.0,60.0
4119,45.0,30,25,8.0,60.0
4120,45.0,30,25,8.0,60.0
4121,57.0,0,235,6.0,108.0
4122,69.0,0,120,10.0,127.0
4123,69.0,0,120,11.0,127.0
4124,45.0,0,25,8.0,60.0
4125,45.0,30,25,8.0,60.0
4126,45.0,30,25,8.0,60.0
4127,73.0,0,115,10.0,127.0
4128,45.0,30,25,8.0,60.0
4129,73.0,0,115,11.0,127.0
4130,45.0,0,25,8.0,60.0
4131,45.0,30,25,8.0,60.0
4132,45.0,30,25,8.0,60.0
4133,45.0,30,25,8.0,60.0
4134,69.0,30,115,10.0,127.0
4135,69.0,0,115,11.0,127.0
4136,45.0,30,25,8.0,60.0
4137,45.0,30,25,8.0,60.0
4138,45.0,30,25,8.0,60.0
4139,45.0,30,25,8.0,60.0
4140,73.0,0,120,11.0,127.0
4141,73.0,0,120,10.0,127.0
4142,45.0,30,25,8.0,60.0
4143,69.0,30,400,2.0,108.0
4144,64.0,0,400,2.0,108.0
4145,57.0,0,400,6.0,108.0
4146,64.0,0,400,6.0,108.0
4147,61.0,0,400,6.0,108.0
4148,45.0,30,25,8.0,60.0
4149,45.0,30,25,8.0,60.0
4150,45.0,30,25,8.0,60.0
4151,69.0,0,120,10.0,127.0
4152,69.0,0,120,11.0,127.0
4153,45.0,30,25,8.0,60.0
4154,45.0,30,25,8.0,60.0
4155,45.0,30,25,8.0,60.0
4156,45.0,30,25,8.0,60.0
4157,73.0,0,115,10.0,127.0
4158,73.0,0,115,11.0,127.0
4159,45.0,30,25,8.0,60.0
4160,45.0,30,25,8.0,60.0
4161,45.0,30,25,8.0,60.0
4162,69.0,0,115,11.0,127.0
4163,69.0,0,115,10.0,127.0
4164,45.0,30,25,8.0,60.0
4165,45.0,30,25,8.0,60.0
4166,45.0,30,25,8.0,60.0
4167,45.0,30,25,8.0,60.0
4168,45.0,30,25,8.0,60.0
4169,73.0,0,120,10.0,127.0
4170,73.0,0,120,11.0,127.0
4171,45.0,0,25,8.0,60.0
4172,61.0,0,400,6.0,108.0
4173,64.0,0,400,6.0,108.0
4174,69.0,0,400,2.0,108.0
4175,64.0,0,400,2.0,108.0
4176,57.0,0,400,6.0,108.0
4177,45.0,30,25,8.0,60.0
4178,45.0,30,25,8.0,60.0
4179,45.0,30,25,8.0,60.0
4180,69.0,0,120,11.0,127.0
4181,69.0,30,120,10.0,127.0
4182,45.0,0,25,8.0,60.0
4183,45.0,30,25,8.0,60.0
4184,64.0,0,80,6.0,108.0
4185,69.0,30,80,2.0,108.0
4186,64.0,0,80,2.0,108.0
4187,57.0,0,80,6.0,108.0
4188,61.0,0,80,6.0,108.0
4189,45.0,30,25,8.0,60.0
4190,45.0,30,25,8.0,60.0
4191,73.0,0,115,11.0,127.0
4192,73.0,0,115,10.0,127.0
4193,57.0,0,1320,4.0,108.0
4194,69.0,0,1320,5.0,108.0
4195,69.0,0,1320,4.0,108.0
4196,64.0,0,1320,5.0,108.0
4197,61.0,0,1320,4.0,108.0
4198,64.0,0,1320,4.0,108.0
4199,45.0,30,25,8.0,60.0
4200,45.0,30,25,8.0,60.0
4201,45.0,30,25,8.0,60.0
4202,69.0,0,115,10.0,127.0
4203,45.0,30,25,8.0,60.0
4204,69.0,0,115,11.0,127.0
4205,45.0,0,1440,3.0,108.0
4206,45.0,0,1440,15.0,108.0
4207,45.0,0,1440,7.0,108.0
4208,45.0,0,1440,14.0,108.0
4209,45.0,0,25,8.0,60.0
4210,45.0,30,25,8.0,60.0
4211,57.0,0,80,6.0,108.0
4212,68.0,0,80,2.0,108.0
4213,61.0,0,80,6.0,108.0
4214,64.0,0,80,2.0,108.0
4215,64.0,0,80,6.0,108.0
4216,45.0,30,25,8.0,60.0
4217,45.0,30,25,8.0,60.0
4218,73.0,0,120,10.0,127.0
4219,73.0,0,120,11.0,127.0
4220,45.0,0,25,8.0,60.0
4221,45.0,30,25,8.0,60.0
4222,45.0,30,25,8.0,60.0
4223,45.0,30,25,8.0,60.0
4224,69.0,30,120,10.0,127.0
4225,69.0,0,120,11.0,127.0
4226,45.0,30,25,8.0,60.0
4227,45.0,30,25,8.0,60.0
4228,45.0,30,25,8.0,60.0
4229,73.0,0,115,10.0,127.0
4230,73.0,0,115,11.0,127.0
4231,45.0,30,25,8.0,60.0
4232,45.0,0,25,8.0,60.0
4233,45.0,30,25,8.0,60.0
4234,45.0,30,25,8.0,60.0
4235,68.0,30,115,11.0,127.0
4236,68.0,0,115,10.0,127.0
4237,45.0,30,25,8.0,60.0
4238,45.0,30,25,8.0,60.0
4239,45.0,30,25,8.0,60.0
4240,45.0,30,25,8.0,60.0
4241,45.0,30,25,8.0,60.0
4242,73.0,0,120,11.0,127.0
4243,73.0,0,120,10.0,127.0
4244,45.0,0,25,8.0,60.0
4245,64.0,0,400,2.0,108.0
4246,57.0,0,400,6.0,108.0
4247,68.0,0,400,2.0,108.0
4248,61.0,0,400,6.0,108.0
4249,64.0,0,400,6.0,108.0
4250,45.0,30,25,8.0,60.0
4251,45.0,30,25,8.0,60.0
4252,45.0,30,25,8.0,60.0
4253,69.0,30,120,11.0,127.0
4254,69.0,0,120,10.0,127.0
4255,45.0,30,25,8.0,60.0
4256,45.0,30,25,8.0,60.0
4257,45.0,30,25,8.0,60.0
4258,45.0,30,25,8.0,60.0
4259,73.0,0,115,10.0,127.0
4260,73.0,0,115,11.0,127.0
4261,45.0,30,25,8.0,60.0
4262,45.0,30,25,8.0,60.0
4263,45.0,30,25,8.0,60.0
4264,68.0,0,115,10.0,127.0
4265,68.0,0,115,11.0,127.0
4266,45.0,30,25,8.0,60.0
4267,45.0,0,25,8.0,60.0
4268,45.0,30,25,8.0,60.0
4269,45.0,30,25,8.0,60.0
4270,45.0,30,25,8.0,60.0
4271,73.0,0,120,10.0,127.0
4272,73.0,30,120,11.0,127.0
4273,45.0,30,25,8.0,60.0
4274,64.0,0,400,2.0,108.0
4275,64.0,0,400,6.0,108.0
4276,57.0,0,400,6.0,108.0
4277,61.0,0,400,6.0,108.0
4278,68.0,0,400,2.0,108.0
4279,45.0,30,25,8.0,60.0
4280,45.0,30,25,8.0,60.0
4281,45.0,30,25,8.0,60.0
4282,69.0,0,120,10.0,127.0
4283,69.0,0,120,11.0,127.0
4284,45.0,0,25,8.0,60.0
4285,45.0,30,25,8.0,60.0
4286,64.0,0,80,2.0,108.0
4287,61.0,0,80,6.0,108.0
4288,68.0,0,80,2.0,108.0
4289,57.0,0,80,6.0,108.0
4290,64.0,0,80,6.0,108.0
4291,45.0,30,25,8.0,60.0
4292,73.0,0,115,11.0,127.0
4293,73.0,30,115,10.0,127.0
4294,45.0,30,25,8.0,60.0
4295,68.0,0,1320,5.0,108.0
4296,64.0,0,1320,5.0,108.0
4297,45.0,0,25,8.0,60.0
4298,45.0,30,25,8.0,60.0
4299,45.0,30,25,8.0,60.0
4300,68.0,30,115,10.0,127.0
4301,68.0,0,115,11.0,127.0
4302,45.0,30,25,8.0,60.0
4303,44.0,0,1440,15.0,108.0
4304,68.0,0,1440,4.0,108.0
4305,56.0,0,1440,4.0,108.0
4306,44.0,0,1440,7.0,108.0
4307,44.0,0,1440,14.0,108.0
4308,44.0,30,1440,3.0,108.0
4309,64.0,0,0,4.0,108.0
4310,61.0,0,1440,4.0,108.0
4311,45.0,0,25,8.0,60.0
4312,45.0,30,25,8.0,60.0
4313,64.0,0,80,2.0,108.0
4314,67.0,30,80,2.0,108.0
4315,67.0,0,80,6.0,108.0
4316,64.0,0,80,6.0,108.0
4317,61.0,0,80,6.0,108.0
4318,45.0,30,25,8.0,60.0
4319,45.0,30,25,8.0,60.0
4320,73.0,0,120,10.0,127.0
4321,73.0,0,120,11.0,127.0
4322,45.0,30,25,8.0,60.0
4323,45.0,30,25,8.0,60.0
4324,45.0,30,25,8.0,60.0
4325,45.0,30,25,8.0,60.0
4326,69.0,0,120,10.0,127.0
4327,69.0,0,120,11.0,127.0
4328,45.0,0,25,8.0,60.0
4329,45.0,30,25,8.0,60.0
4330,45.0,30,25,8.0,60.0
4331,45.0,30,25,8.0,60.0
4332,73.0,0,115,10.0,127.0
4333,73.0,0,115,11.0,127.0
4334,45.0,0,25,8.0,60.0
4335,45.0,30,25,8.0,60.0
4336,45.0,30,25,8.0,60.0
4337,45.0,30,25,8.0,60.0
4338,67.0,30,115,11.0,127.0
4339,67.0,0,115,10.0,127.0
4340,45.0,0,25,8.0,60.0
4341,45.0,30,25,8.0,60.0
4342,45.0,30,25,8.0,60.0
4343,45.0,30,25,8.0,60.0
4344,73.0,0,120,10.0,127.0
4345,73.0,30,120,11.0,127.0
4346,45.0,0,25,8.0,60.0
4347,64.0,0,400,6.0,108.0
4348,67.0,0,400,2.0,108.0
4349,61.0,30,400,6.0,108.0
4350,67.0,0,400,6.0,108.0
4351,64.0,0,400,2.0,108.0
4352,45.0,30,25,8.0,60.0
4353,45.0,30,25,8.0,60.0
4354,45.0,30,25,8.0,60.0
4355,69.0,30,120,10.0,127.0
4356,69.0,0,120,11.0,127.0
4357,45.0,0,25,8.0,60.0
4358,45.0,30,25,8.0,60.0
4359,45.0,30,25,8.0,60.0
4360,73.0,0,115,11.0,127.0
4361,73.0,0,115,10.0,127.0
4362,45.0,30,25,8.0,60.0
4363,45.0,0,25,8.0,60.0
4364,45.0,30,25,8.0,60.0
4365,45.0,30,25,8.0,60.0
4366,45.0,30,25,8.0,60.0
4367,67.0,30,115,10.0,127.0
4368,67.0,0,115,11.0,127.0
4369,45.0,0,25,8.0,60.0
4370,45.0,30,25,8.0,60.0
4371,45.0,30,25,8.0,60.0
4372,45.0,30,25,8.0,60.0
4373,73.0,30,120,10.0,127.0
4374,73.0,0,120,11.0,127.0
4375,45.0,30,25,8.0,60.0
4376,64.0,0,400,2.0,108.0
4377,61.0,30,400,6.0,108.0
4378,67.0,0,400,2.0,108.0
4379,67.0,0,400,6.0,108.0
4380,64.0,0,400,6.0,108.0
4381,45.0,30,25,8.0,60.0
4382,45.0,30,25,8.0,60.0
4383,45.0,30,25,8.0,60.0
4384,69.0,0,120,11.0,127.0
4385,69.0,0,120,10.0,127.0
4386,45.0,0,25,8.0,60.0
4387,45.0,30,25,8.0,60.0
4388,67.0,0,80,6.0,108.0
4389,64.0,0,80,6.0,108.0
4390,61.0,0,80,6.0,108.0
4391,64.0,30,80,2.0,108.0
4392,67.0,0,80,2.0,108.0
4393,45.0,30,25,8.0,60.0
4394,73.0,0,115,11.0,127.0
4395,45.0,30,25,8.0,60.0
4396,73.0,0,115,10.0,127.0
4397,57.0,0,4200,13.0,108.0
4398,64.0,0,1320,5.0,108.0
4399,67.0,0,1320,5.0,108.0
4400,45.0,0,25,8.0,60.0
4401,45.0,30,25,8.0,60.0
4402,45.0,30,25,8.0,60.0
4403,67.0,30,115,10.0,127.0
4404,45.0,30,25,8.0,60.0
4405,67.0,0,115,11.0,127.0
4406,43.0,0,1440,14.0,108.0
4407,43.0,0,1440,15.0,108.0
4408,61.0,0,4320,12.0,108.0
4409,52.0,0,4320,14.0,108.0
4410,43.0,0,1440,7.0,108.0
4411,64.0,0,4320,12.0,108.0
4412,61.0,0,1440,4.0,108.0
4413,43.0,0,1440,3.0,108.0
4414,67.0,0,1440,4.0,108.0
4415,55.0,0,1440,4.0,108.0
4416,62.0,0,80,6.0,108.0
4417,69.0,0,80,2.0,108.0
4418,66.0,0,80,6.0,108.0
4419,69.0,0,80,6.0,108.0
4420,66.0,0,80,2.0,108.0
4421,74.0,30,120,10.0,127.0
4422,74.0,0,120,11.0,127.0
4423,69.0,0,120,11.0,127.0
4424,69.0,120,120,10.0,127.0
4425,74.0,0,115,10.0,127.0
4426,74.0,120,115,11.0,127.0
4427,66.0,0,115,10.0,127.0
4428,66.0,120,115,11.0,127.0
4429,74.0,120,120,10.0,127.0
4430,74.0,0,120,11.0,127.0
4431,66.0,0,400,2.0,108.0
4432,66.0,0,400,6.0,108.0
4433,69.0,0,400,6.0,108.0
4434,69.0,0,400,2.0,108.0
4435,62.0,0,400,6.0,108.0
4436,69.0,120,120,10.0,127.0
4437,69.0,0,120,11.0,127.0
4438,74.0,0,115,11.0,127.0
4439,74.0,0,115,10.0,127.0
4440,66.0,0,115,10.0,127.0
4441,66.0,120,115,11.0,127.0
4442,74.0,120,120,11.0,127.0
4443,74.0,0,120,10.0,127.0
4444,66.0,0,400,2.0,108.0
4445,62.0,0,400,6.0,108.0
4446,69.0,0,400,2.0,108.0
4447,69.0,0,400,6.0,108.0
4448,66.0,120,400,6.0,108.0
4449,69.0,120,120,11.0,127.0
4450,69.0,0,120,10.0,127.0
4451,62.0,0,80,6.0,108.0
4452,66.0,0,80,6.0,108.0
4453,69.0,0,80,6.0,108.0
4454,69.0,0,80,2.0,108.0
4455,66.0,0,80,2.0,108.0
4456,74.0,0,115,10.0,127.0
4457,74.0,120,115,11.0,127.0
4458,66.0,0,1320,5.0,108.0
4459,69.0,0,1320,5.0,108.0
4460,66.0,0,115,10.0,127.0
4461,66.0,120,115,11.0,127.0
4462,42.0,0,1440,7.0,108.0
4463,66.0,0,1440,4.0,108.0
4464,62.0,0,1440,4.0,108.0
4465,49.0,0,1440,14.0,108.0
4466,54.0,0,1440,4.0,108.0
4467,42.0,0,1440,14.0,108.0
4468,54.0,0,1440,13.0,108.0
4469,57.0,0,1440,12.0,108.0
4470,62.0,0,1440,12.0,108.0
4471,42.0,0,1440,15.0,108.0
4472,42.0,0,1440,3.0,108.0
4473,64.0,0,80,6.0,108.0
4474,69.0,0,80,2.0,108.0
4475,69.0,0,80,6.0,108.0
4476,64.0,0,80,2.0,108.0
4477,62.0,0,80,6.0,108.0
4478,74.0,0,120,11.0,127.0
4479,74.0,0,120,10.0,127.0
4480,69.0,0,120,11.0,127.0
4481,69.0,120,120,10.0,127.0
4482,74.0,0,115,10.0,127.0
4483,74.0,0,115,11.0,127.0
4484,64.0,0,115,11.0,127.0
4485,64.0,120,115,10.0,127.0
4486,74.0,120,120,11.0,127.0
4487,74.0,0,120,10.0,127.0
4488,62.0,0,400,6.0,108.0
4489,64.0,0,400,2.0,108.0
4490,69.0,0,400,2.0,108.0
4491,69.0,120,400,6.0,108.0
4492,64.0,0,400,6.0,108.0
4493,69.0,120,120,11.0,127.0
4494,69.0,0,120,10.0,127.0
4495,74.0,120,115,10.0,127.0
4496,74.0,0,115,11.0,127.0
4497,64.0,0,115,11.0,127.0
4498,64.0,120,115,10.0,127.0
4499,74.0,120,120,11.0,127.0
4500,74.0,0,120,10.0,127.0
4501,69.0,0,400,6.0,108.0
4502,64.0,0,400,2.0,108.0
4503,62.0,0,400,6.0,108.0
4504,69.0,0,400,2.0,108.0
4505,64.0,0,400,6.0,108.0
4506,69.0,120,120,11.0,127.0
4507,69.0,0,120,10.0,127.0
4508,69.0,0,80,6.0,108.0
4509,62.0,120,80,6.0,108.0
4510,64.0,0,80,2.0,108.0
4511,69.0,0,80,2.0,108.0
4512,64.0,0,80,6.0,108.0
4513,74.0,0,115,11.0,127.0
4514,74.0,0,115,10.0,127.0
4515,40.0,120,1320,7.0,108.0
4516,64.0,0,1320,12.0,108.0
4517,64.0,0,1320,4.0,108.0
4518,64.0,0,1320,5.0,108.0
4519,69.0,0,1320,5.0,108.0
4520,40.0,0,1320,15.0,108.0
4521,40.0,0,1320,3.0,108.0
4522,52.0,0,1320,4.0,108.0
4523,62.0,0,1320,12.0,108.0
4524,57.0,0,1320,4.0,108.0
4525,40.0,0,1320,14.0,108.0
4526,57.0,0,1320,13.0,108.0
4527,62.0,0,1320,4.0,108.0
4528,52.0,0,1320,14.0,108.0
4529,64.0,0,115,11.0,127.0
4530,64.0,120,115,10.0,127.0
4531,64.0,0,80,2.0,92.0
4532,69.0,0,80,6.0,92.0
4533,69.0,0,80,2.0,92.0
4534,61.0,0,80,6.0,92.0
4535,64.0,0,80,6.0,92.0
4536,73.0,0,120,11.0,108.0
4537,73.0,0,120,10.0,108.0
4538,69.0,120,120,11.0,108.0
4539,69.0,0,120,10.0,108.0
4540,73.0,0,115,10.0,108.0
4541,73.0,0,115,11.0,108.0
4542,64.0,0,115,10.0,108.0
4543,64.0,120,115,11.0,108.0
4544,73.0,0,120,10.0,108.0
4545,73.0,120,120,11.0,108.0
4546,64.0,0,400,2.0,92.0
4547,61.0,0,400,6.0,92.0
4548,64.0,0,400,6.0,92.0
4549,69.0,0,400,6.0,92.0
4550,69.0,120,400,2.0,92.0
4551,69.0,120,120,10.0,108.0
4552,69.0,0,120,11.0,108.0
4553,73.0,120,115,10.0,108.0
4554,73.0,0,115,11.0,108.0
4555,64.0,0,115,10.0,108.0
4556,64.0,120,115,11.0,108.0
4557,73.0,0,120,11.0,108.0
4558,73.0,120,120,10.0,108.0
4559,61.0,0,400,6.0,92.0
4560,64.0,0,400,2.0,92.0
4561,69.0,0,400,2.0,92.0
4562,69.0,0,400,6.0,92.0
4563,64.0,0,400,6.0,92.0
4564,69.0,0,120,11.0,108.0
4565,69.0,120,120,10.0,108.0
4566,69.0,0,80,6.0,92.0
4567,64.0,0,80,6.0,92.0
4568,69.0,0,80,2.0,92.0
4569,61.0,0,80,6.0,92.0
4570,64.0,0,80,2.0,92.0
4571,73.0,0,115,11.0,108.0
4572,73.0,120,115,10.0,108.0
4573,69.0,0,1320,5.0,92.0
4574,64.0,120,1320,5.0,92.0
4575,64.0,120,115,10.0,108.0
4576,64.0,0,115,11.0,108.0
4577,64.0,0,1440,12.0,92.0
4578,57.0,120,0,12.0,92.0
4579,64.0,0,1440,4.0,92.0
4580,45.0,0,1440,3.0,92.0
4581,61.0,0,1440,4.0,92.0
4582,61.0,0,0,13.0,92.0
4583,73.0,0,1440,4.0,92.0
4584,45.0,0,0,14.0,92.0
4585,45.0,0,1440,7.0,92.0
4586,45.0,0,1440,15.0,92.0
4587,52.0,0,0,14.0,92.0
4588,69.0,0,80,2.0,92.0
4589,62.0,0,80,6.0,92.0
4590,66.0,0,80,6.0,92.0
4591,69.0,0,80,6.0,92.0
4592,66.0,0,80,2.0,92.0
4593,73.0,0,120,11.0,108.0
4594,73.0,0,120,10.0,108.0
4595,69.0,120,120,11.0,108.0
4596,69.0,0,120,10.0,108.0
4597,73.0,0,115,10.0,108.0
4598,73.0,0,115,11.0,108.0
4599,62.0,0,115,11.0,108.0
4600,62.0,120,115,10.0,108.0
4601,73.0,0,120,11.0,108.0
4602,73.0,120,120,10.0,108.0
4603,66.0,0,400,6.0,92.0
4604,69.0,0,400,6.0,92.0
4605,69.0,0,400,2.0,92.0
4606,66.0,120,400,2.0,92.0
4607,62.0,0,400,6.0,92.0
4608,69.0,0,120,11.0,108.0
4609,69.0,120,120,10.0,108.0
4610,73.0,120,115,11.0,108.0
4611,73.0,0,115,10.0,108.0
4612,62.0,120,115,11.0,108.0
4613,62.0,0,115,10.0,108.0
4614,73.0,0,120,10.0,108.0
4615,73.0,120,120,11.0,108.0
4616,69.0,0,400,2.0,92.0
4617,66.0,0,400,2.0,92.0
4618,66.0,0,400,6.0,92.0
4619,69.0,0,400,6.0,92.0
4620,62.0,0,400,6.0,92.0
4621,69.0,0,120,11.0,108.0
4622,69.0,120,120,10.0,108.0
4623,66.0,120,80,2.0,92.0
4624,69.0,0,80,6.0,92.0
4625,66.0,0,80,6.0,92.0
4626,69.0,0,80,2.0,92.0
4627,62.0,0,80,6.0,92.0
4628,73.0,0,115,10.0,108.0
4629,73.0,0,115,11.0,108.0
4630,69.0,0,1320,5.0,92.0
4631,66.0,0,1320,5.0,92.0
4632,62.0,120,115,10.0,108.0
4633,62.0,0,115,11.0,108.0
4634,66.0,0,1440,4.0,92.0
4635,62.0,0,1440,4.0,92.0
4636,38.0,0,0,7.0,92.0
4637,38.0,0,1440,15.0,92.0
4638,38.0,0,1440,3.0,92.0
4639,66.0,0,0,12.0,92.0
4640,74.0,0,1440,4.0,92.0
4641,45.0,0,0,14.0,92.0
4642,38.0,0,1440,14.0,92.0
4643,62.0,0,80,6.0,92.0
4644,66.0,0,80,6.0,92.0
4645,69.0,0,80,2.0,92.0
4646,66.0,0,80,2.0,92.0
4647,71.0,0,80,6.0,92.0
4648,71.0,0,120,10.0,108.0
4649,71.0,120,120,11.0,108.0
4650,69.0,120,120,10.0,107.0
4651,69.0,0,120,11.0,107.0
4652,71.0,120,115,10.0,106.0
4653,71.0,0,115,11.0,106.0
4654,62.0,0,115,11.0,105.0
4655,62.0,120,115,10.0,105.0
4656,71.0,0,120,10.0,104.0
4657,71.0,120,120,11.0,104.0
4658,66.0,0,400,2.0,90.0
4659,62.0,0,400,6.0,90.0
4660,66.0,0,400,6.0,90.0
4661,71.0,0,400,6.0,90.0
4662,69.0,0,400,2.0,90.0
4663,69.0,0,120,11.0,103.0
4664,69.0,120,120,10.0,103.0
4665,71.0,0,115,11.0,102.0
4666,71.0,0,115,10.0,102.0
4667,62.0,120,115,11.0,101.0
4668,62.0,0,115,10.0,101.0
4669,71.0,0,120,11.0,100.0
4670,71.0,120,120,10.0,100.0
4671,66.0,120,400,2.0,85.0
4672,62.0,0,400,6.0,85.0
4673,69.0,0,400,2.0,85.0
4674,66.0,0,400,6.0,85.0
4675,71.0,0,400,6.0,85.0
4676,69.0,120,120,11.0,99.0
4677,69.0,0,120,10.0,99.0
4678,66.0,0,80,6.0,80.0
4679,71.0,0,80,6.0,80.0
4680,69.0,0,80,2.0,80.0
4681,62.0,0,80,6.0,80.0
4682,66.0,0,80,2.0,80.0
4683,71.0,0,115,10.0,98.0
4684,71.0,120,115,11.0,98.0
4685,69.0,0,1320,5.0,92.0
4686,66.0,0,1320,5.0,92.0
4687,62.0,0,115,10.0,97.0
4688,62.0,120,115,11.0,97.0
4689,38.0,0,1440,15.0,92.0
4690,66.0,0,1440,4.0,92.0
4691,62.0,0,1440,4.0,92.0
4692,59.0,0,1440,12.0,92.0
4693,62.0,0,1440,13.0,92.0
4694,74.0,0,1440,4.0,92.0
4695,38.0,0,1440,14.0,92.0
4696,38.0,0,1440,3.0,92.0
4697,45.0,120,0,14.0,76.0
4698,50.0,0,1440,14.0,92.0
4699,64.0,0,80,2.0,78.0
4700,61.0,0,80,6.0,78.0
4701,69.0,0,80,2.0,78.0
4702,71.0,0,80,6.0,78.0
4703,64.0,0,80,6.0,78.0
4704,71.0,0,120,10.0,96.0
4705,71.0,0,120,11.0,96.0
4706,69.0,0,120,10.0,95.0
4707,69.0,120,120,11.0,95.0
4708,71.0,0,115,11.0,94.0
4709,71.0,120,115,10.0,94.0
4710,61.0,120,115,11.0,93.0
4711,61.0,0,115,10.0,93.0
4712,71.0,0,120,10.0,91.0
4713,71.0,120,120,11.0,91.0
4714,61.0,0,400,6.0,75.0
4715,64.0,0,400,2.0,75.0
4716,64.0,0,400,6.0,75.0
4717,71.0,0,400,6.0,75.0
4718,69.0,0,400,2.0,75.0
4719,69.0,0,120,11.0,89.0
4720,69.0,120,120,10.0,89.0
4721,71.0,0,115,10.0,87.0
4722,71.0,0,115,11.0,87.0
4723,61.0,120,115,10.0,85.0
4724,61.0,0,115,11.0,85.0
4725,71.0,0,120,10.0,83.0
4726,71.0,120,120,11.0,83.0
4727,64.0,0,400,6.0,69.0
4728,69.0,0,400,2.0,69.0
4729,61.0,0,400,6.0,69.0
4730,71.0,0,400,6.0,69.0
4731,64.0,120,400,2.0,69.0
4732,69.0,120,120,11.0,81.0
4733,69.0,0,120,10.0,81.0
4734,61.0,0,80,6.0,63.0
4735,64.0,120,80,2.0,63.0
4736,64.0,0,80,6.0,63.0
4737,69.0,0,80,2.0,63.0
4738,71.0,0,80,6.0,63.0
4739,71.0,0,115,11.0,79.0
4740,71.0,0,115,10.0,79.0
4741,69.0,0,1320,5.0,76.0
4742,64.0,0,1320,5.0,76.0
4743,61.0,120,115,10.0,77.0
4744,61.0,0,115,11.0,77.0
4745,64.0,0,1440,4.0,76.0
4746,57.0,0,1440,4.0,76.0
4747,61.0,0,1440,4.0,76.0
4748,40.0,0,1440,14.0,76.0
4749,52.0,0,0,14.0,60.0
4750,61.0,0,1440,13.0,76.0
4751,73.0,0,1440,4.0,76.0
4752,40.0,0,1440,3.0,76.0
4753,57.0,0,0,12.0,60.0
4754,64.0,0,0,12.0,60.0
4755,40.0,0,1440,7.0,76.0
4756,40.0,0,1440,15.0,76.0
4757,64.0,0,80,2.0,60.0
4758,69.0,120,80,6.0,60.0
4759,69.0,0,80,2.0,60.0
4760,64.0,0,80,6.0,60.0
4761,61.0,0,80,6.0,60.0
4762,69.0,120,0,10.0,75.0
4763,69.0,0,120,11.0,75.0
4764,69.0,0,0,11.0,75.0
4765,69.0,0,0,10.0,75.0
4766,61.0,120,115,10.0,75.0
4767,61.0,0,115,11.0,75.0
4768,69.0,120,120,11.0,75.0
4769,69.0,0,0,10.0,75.0
4770,69.0,0,400,6.0,60.0
4771,64.0,0,400,6.0,60.0
4772,69.0,120,400,2.0,60.0
4773,61.0,0,400,6.0,60.0
4774,64.0,0,400,2.0,60.0
4775,69.0,120,120,11.0,75.0
4776,69.0,0,115,10.0,75.0
4777,69.0,0,115,11.0,75.0
4778,61.0,0,115,11.0,75.0
4779,61.0,120,115,10.0,75.0
4780,69.0,120,0,11.0,75.0
4781,69.0,0,120,10.0,75.0
4782,64.0,120,400,2.0,60.0
4783,69.0,0,400,2.0,60.0
4784,69.0,0,400,6.0,60.0
4785,61.0,0,400,6.0,60.0
4786,64.0,0,400,6.0,60.0
4787,69.0,0,120,10.0,75.0
4788,69.0,120,0,11.0,75.0
4789,61.0,0,80,6.0,60.0
4790,69.0,0,80,6.0,60.0
4791,69.0,0,80,2.0,60.0
4792,64.0,0,80,2.0,60.0
4793,64.0,0,80,6.0,60.0
4794,69.0,0,115,10.0,75.0
4795,64.0,0,1320,5.0,60.0
4796,69.0,0,1320,5.0,60.0
4797,61.0,120,115,10.0,75.0
4798,61.0,0,115,11.0,75.0
4799,45.0,0,1440,7.0,60.0
4800,45.0,0,1440,14.0,60.0
4801,52.0,0,0,14.0,60.0
4802,64.0,0,1440,4.0,60.0
4803,57.0,0,1440,4.0,60.0
4804,73.0,0,1440,4.0,60.0
4805,45.0,0,1440,15.0,60.0
4806,61.0,0,1440,4.0,60.0
4807,61.0,0,1440,13.0,60.0
4808,45.0,0,1440,3.0,60.0
4809,69.0,0,80,6.0,60.0
4810,62.0,0,80,6.0,60.0
4811,69.0,0,80,2.0,60.0
4812,64.0,0,80,2.0,60.0
4813,71.0,0,80,6.0,60.0
4814,69.0,120,0,11.0,75.0
4815,69.0,0,120,10.0,75.0
4816,69.0,120,0,11.0,75.0
4817,69.0,0,120,10.0,75.0
4818,69.0,0,115,10.0,75.0
4819,59.0,0,115,10.0,75.0
4820,59.0,120,115,11.0,75.0
4821,69.0,120,120,10.0,75.0
4822,69.0,120,0,11.0,75.0
4823,71.0,0,400,6.0,60.0
4824,62.0,0,400,6.0,60.0
4825,69.0,0,400,2.0,60.0
4826,69.0,0,400,6.0,60.0
4827,64.0,0,400,2.0,60.0
4828,69.0,0,0,10.0,75.0
4829,69.0,0,0,11.0,75.0
4830,59.0,120,115,10.0,75.0
4831,59.0,0,115,11.0,75.0
4832,69.0,120,0,11.0,75.0
4833,69.0,0,120,10.0,75.0
4834,62.0,0,400,6.0,60.0
4835,71.0,0,400,6.0,60.0
4836,69.0,120,400,6.0,60.0
4837,69.0,0,400,2.0,60.0
4838,64.0,0,400,2.0,60.0
4839,69.0,0,0,10.0,75.0
4840,69.0,0,80,2.0,60.0
4841,62.0,0,80,6.0,60.0
4842,64.0,0,80,2.0,60.0
4843,71.0,0,80,6.0,60.0
4844,69.0,120,80,6.0,60.0
4845,69.0,0,115,11.0,75.0
4846,69.0,0,1320,5.0,60.0
4847,64.0,0,1320,5.0,60.0
4848,59.0,0,115,10.0,75.0
4849,59.0,120,115,11.0,75.0
4850,62.0,0,1440,12.0,60.0
4851,57.0,0,1440,12.0,60.0
4852,71.0,0,1440,4.0,60.0
4853,57.0,0,1440,13.0,60.0
4854,47.0,120,1440,15.0,60.0
4855,47.0,0,0,14.0,45.0
4856,57.0,0,1440,4.0,60.0
4857,62.0,0,0,4.0,45.0
4858,52.0,0,0,14.0,45.0
4859,47.0,0,1440,3.0,60.0
4860,47.0,0,1440,7.0,60.0
4861,64.0,0,80,6.0,45.0
4862,68.0,0,80,11.0,60.0
4863,68.0,0,80,2.0,45.0
4864,64.0,120,80,2.0,45.0
4865,71.0,0,80,6.0,45.0
4866,68.0,0,80,6.0,45.0
4867,68.0,0,80,10.0,60.0
4868,69.0,0,80,10.0,60.0
4869,69.0,120,80,11.0,60.0
4870,68.0,0,80,11.0,60.0
4871,68.0,0,80,10.0,60.0
4872,59.0,0,80,11.0,60.0
4873,59.0,120,80,10.0,60.0
4874,68.0,0,80,10.0,60.0
4875,68.0,120,80,11.0,60.0
4876,64.0,0,400,6.0,45.0
4877,68.0,120,400,2.0,45.0
4878,68.0,0,400,6.0,45.0
4879,71.0,0,400,6.0,45.0
4880,64.0,0,400,2.0,45.0
4881,69.0,0,80,11.0,60.0
4882,69.0,120,80,10.0,60.0
4883,68.0,0,80,10.0,60.0
4884,68.0,120,80,11.0,60.0
4885,59.0,120,80,10.0,60.0
4886,59.0,0,80,11.0,60.0
4887,68.0,120,80,10.0,60.0
4888,68.0,0,80,11.0,60.0
4889,68.0,0,400,6.0,45.0
4890,68.0,0,400,2.0,45.0
4891,64.0,0,400,6.0,45.0
4892,64.0,0,400,2.0,45.0
4893,71.0,0,400,6.0,45.0
4894,69.0,0,80,11.0,60.0
4895,69.0,120,80,10.0,60.0
4896,64.0,0,80,6.0,45.0
4897,68.0,120,80,10.0,60.0
4898,71.0,0,80,6.0,45.0
4899,68.0,0,80,6.0,45.0
4900,68.0,0,80,2.0,45.0
4901,68.0,0,80,11.0,60.0
4902,64.0,0,80,2.0,45.0
4903,40.0,0,1320,3.0,45.0
4904,56.0,0,1320,13.0,45.0
4905,59.0,0,1320,12.0,45.0
4906,68.0,0,1320,5.0,45.0
4907,64.0,0,1320,5.0,45.0
4908,62.0,0,1320,12.0,45.0
4909,40.0,0,1320,14.0,45.0
4910,52.0,0,400,8.0,45.0
4911,59.0,120,80,10.0,60.0
4912,59.0,0,80,11.0,60.0
4913,40.0,0,1440,15.0,45.0
4914,71.0,0,1440,4.0,45.0
4915,59.0,0,1440,4.0,45.0
4916,40.0,0,1440,7.0,45.0
4917,57.0,120,115,11.0,75.0
4918,57.0,0,115,10.0,75.0
4919,59.0,120,115,11.0,75.0
4920,64.0,0,235,2.0,60.0
4921,69.0,0,235,2.0,60.0
4922,59.0,0,115,10.0,75.0
4923,57.0,0,115,11.0,75.0
4924,57.0,0,115,10.0,75.0
4925,81.0,0,120,2.0,60.0
4926,93.0,0,120,0.0,60.0
4927,81.0,0,120,1.0,60.0
4928,69.0,120,120,2.0,60.0
4929,57.0,0,400,4.0,60.0
4930,33.0,0,400,15.0,60.0
4931,45.0,0,400,8.0,60.0
4932,57.0,0,400,6.0,60.0
4933,61.0,0,400,4.0,60.0
4934,61.0,0,400,6.0,60.0
4935,64.0,0,400,12.0,60.0
4936,69.0,0,400,5.0,60.0
4937,64.0,0,400,5.0,60.0
4938,61.0,0,400,13.0,60.0
4939,64.0,0,400,6.0,60.0
4940,45.0,0,400,14.0,60.0
4941,45.0,0,400,3.0,60.0
4942,33.0,0,400,7.0,60.0
4943,52.0,0,400,14.0,60.0
4944,59.0,120,115,11.0,75.0
4945,59.0,0,115,10.0,75.0
4946,92.0,0,120,0.0,60.0
4947,69.0,0,480,4.0,60.0
4948,64.0,0,480,4.0,60.0
4949,80.0,0,120,2.0,60.0
4950,68.0,0,120,2.0,60.0
4951,80.0,0,120,1.0,60.0
4952,81.0,0,80,1.0,60.0
4953,93.0,120,80,0.0,60.0
4954,81.0,0,80,2.0,60.0
4955,69.0,0,80,2.0,60.0
4956,61.0,0,120,10.0,76.0
4957,61.0,0,120,11.0,76.0
4958,64.0,120,115,10.0,77.0
4959,64.0,0,115,11.0,77.0
4960,64.0,0,80,2.0,60.0
4961,76.0,0,80,1.0,60.0
4962,88.0,120,80,0.0,60.0
4963,76.0,0,80,2.0,60.0
4964,57.0,0,115,11.0,77.0
4965,57.0,0,115,10.0,77.0
4966,59.0,120,115,10.0,78.0
4967,59.0,0,115,11.0,78.0
4968,73.0,0,80,1.0,60.0
4969,61.0,0,80,2.0,60.0
4970,85.0,0,80,0.0,60.0
4971,73.0,0,80,2.0,60.0
4972,61.0,0,120,10.0,79.0
4973,61.0,120,120,11.0,79.0
4974,64.0,0,115,11.0,80.0
4975,64.0,120,115,10.0,80.0
4976,88.0,0,80,0.0,60.0
4977,76.0,120,80,1.0,60.0
4978,64.0,0,80,2.0,60.0
4979,76.0,0,80,2.0,60.0
4980,57.0,0,115,10.0,81.0
4981,57.0,0,115,11.0,81.0
4982,59.0,120,115,10.0,82.0
4983,59.0,0,115,11.0,82.0
4984,69.0,0,80,2.0,60.0
4985,57.0,0,80,2.0,60.0
4986,81.0,0,80,0.0,60.0
4987,69.0,0,80,1.0,60.0
4988,61.0,0,115,10.0,83.0
4989,61.0,0,115,11.0,83.0
4990,62.0,0,115,10.0,84.0
4991,62.0,120,115,11.0,84.0
4992,61.0,0,115,11.0,85.0
4993,61.0,0,115,10.0,85.0
4994,69.0,120,120,1.0,92.0
4995,69.0,0,120,2.0,92.0
4996,57.0,0,400,4.0,68.0
4997,61.0,0,400,4.0,68.0
4998,33.0,0,400,15.0,68.0
4999,64.0,0,400,6.0,68.0
5000,52.0,120,400,14.0,68.0
5001,68.0,0,400,5.0,68.0
5002,64.0,0,400,5.0,68.0
5003,61.0,0,400,13.0,68.0
5004,45.0,0,400,3.0,74.0
5005,33.0,0,400,7.0,68.0
5006,61.0,0,400,6.0,68.0
5007,57.0,0,400,6.0,68.0
5008,64.0,0,400,12.0,68.0
5009,45.0,0,400,8.0,68.0
5010,45.0,0,400,14.0,68.0
5011,62.0,0,115,10.0,86.0
5012,62.0,0,115,11.0,86.0
5013,68.0,0,480,4.0,68.0
5014,64.0,0,480,4.0,68.0
5015,68.0,120,120,2.0,92.0
5016,68.0,0,120,1.0,92.0
5017,69.0,0,80,1.0,92.0
5018,69.0,120,80,2.0,92.0
5019,64.0,0,120,10.0,87.0
5020,64.0,0,120,11.0,87.0
5021,69.0,0,115,11.0,88.0
5022,69.0,120,115,10.0,88.0
5023,64.0,0,80,1.0,92.0
5024,64.0,120,80,2.0,92.0
5025,61.0,0,115,11.0,89.0
5026,61.0,0,115,10.0,89.0
5027,62.0,120,115,11.0,90.0
5028,62.0,0,115,10.0,90.0
5029,61.0,0,80,1.0,92.0
5030,61.0,120,80,2.0,92.0
5031,64.0,0,120,11.0,91.0
5032,64.0,0,120,10.0,91.0
5033,69.0,0,115,10.0,92.0
5034,69.0,120,115,11.0,92.0
5035,64.0,0,80,1.0,92.0
5036,64.0,0,80,2.0,92.0
5037,61.0,0,115,10.0,93.0
5038,61.0,120,115,11.0,93.0
5039,62.0,0,115,11.0,94.0
5040,62.0,120,115,10.0,94.0
5041,69.0,0,80,1.0,92.0
5042,57.0,0,80,2.0,92.0
5043,69.0,0,80,2.0,60.0
5044,64.0,0,115,10.0,95.0
5045,64.0,0,115,11.0,95.0
5046,66.0,120,115,10.0,96.0
5047,45.0,0,235,3.0,89.0
5048,66.0,0,115,11.0,96.0
5049,64.0,120,115,10.0,97.0
5050,64.0,0,115,11.0,97.0
5051,69.0,0,120,2.0,92.0
5052,57.0,0,120,3.0,92.0
5053,64.0,0,400,5.0,77.0
5054,33.0,0,400,15.0,77.0
5055,45.0,0,400,14.0,77.0
5056,52.0,0,400,14.0,77.0
5057,57.0,120,400,6.0,77.0
5058,33.0,0,400,7.0,77.0
5059,61.0,0,400,6.0,77.0
5060,68.0,0,400,5.0,77.0
5061,67.0,0,400,4.0,77.0
5062,52.0,0,400,13.0,77.0
5063,45.0,0,400,8.0,77.0
5064,61.0,0,400,12.0,77.0
5065,57.0,0,400,4.0,77.0
5066,61.0,0,400,4.0,77.0
5067,64.0,0,400,6.0,77.0
5068,64.0,0,400,4.0,77.0
5069,66.0,120,115,10.0,98.0
5070,66.0,0,115,11.0,98.0
5071,56.0,0,120,3.0,92.0
5072,68.0,0,120,2.0,92.0
5073,69.0,0,80,2.0,92.0
5074,57.0,0,80,3.0,92.0
5075,67.0,120,120,11.0,99.0
5076,67.0,0,120,10.0,99.0
5077,73.0,120,115,11.0,100.0
5078,73.0,0,115,10.0,100.0
5079,64.0,0,80,2.0,92.0
5080,52.0,0,80,3.0,92.0
5081,64.0,120,115,10.0,101.0
5082,64.0,0,115,11.0,101.0
5083,66.0,0,115,10.0,102.0
5084,66.0,120,115,11.0,102.0
5085,61.0,0,80,2.0,92.0
5086,49.0,0,80,3.0,92.0
5087,67.0,0,120,11.0,103.0
5088,67.0,120,120,10.0,103.0
5089,73.0,0,115,10.0,104.0
5090,73.0,120,115,11.0,104.0
5091,64.0,0,80,2.0,92.0
5092,52.0,120,80,3.0,92.0
5093,64.0,0,115,10.0,105.0
5094,64.0,0,115,11.0,105.0
5095,66.0,0,115,10.0,106.0
5096,66.0,120,115,11.0,106.0
5097,45.0,120,80,3.0,92.0
5098,67.0,0,115,11.0,108.0
5099,67.0,0,115,10.0,108.0
5100,76.0,0,115,10.0,108.0
5101,76.0,120,115,11.0,108.0
5102,73.0,0,120,10.0,108.0
5103,73.0,120,120,11.0,108.0
5104,74.0,0,120,11.0,108.0
5105,74.0,120,120,10.0,108.0
5106,76.0,0,115,10.0,108.0
5107,76.0,120,115,11.0,108.0
5108,73.0,0,115,11.0,108.0
5109,73.0,120,115,10.0,108.0
5110,70.0,120,120,10.0,108.0
5111,70.0,0,120,11.0,108.0
5112,71.0,120,120,11.0,108.0
5113,71.0,0,120,10.0,108.0
5114,73.0,0,115,11.0,108.0
5115,73.0,0,115,10.0,108.0
5116,70.0,120,115,11.0,108.0
5117,70.0,0,115,10.0,108.0
5118,66.0,120,115,11.0,108.0
5119,66.0,0,115,10.0,108.0
5120,42.0,0,400,8.0,92.0
5121,64.0,120,115,10.0,108.0
5122,64.0,0,115,11.0,108.0
5123,61.0,0,480,13.0,92.0
5124,66.0,0,480,4.0,92.0
5125,61.0,0,480,4.0,92.0
5126,52.0,0,480,14.0,92.0
5127,42.0,0,480,14.0,92.0
5128,42.0,0,480,3.0,92.0
5129,58.0,0,480,4.0,92.0
5130,58.0,0,480,12.0,92.0
5131,30.0,0,480,15.0,92.0
5132,68.0,0,480,5.0,92.0
5133,64.0,0,480,5.0,92.0
5134,66.0,0,480,12.0,92.0
5135,30.0,0,480,7.0,92.0
5136,61.0,0,480,6.0,92.0
5137,64.0,0,480,6.0,92.0
5138,64.0,120,480,4.0,92.0
5139,54.0,0,480,6.0,92.0
5140,62.0,0,115,11.0,60.0
5141,62.0,0,115,10.0,60.0
5142,61.0,0,115,10.0,61.0
5143,61.0,120,115,11.0,61.0
5144,59.0,0,115,10.0,62.0
5145,59.0,0,115,11.0,62.0
5146,83.0,120,120,2.0,60.0
5147,71.0,120,0,2.0,60.0
5148,83.0,0,120,1.0,60.0
5149,95.0,0,120,0.0,60.0
5150,47.0,0,400,3.0,45.0
5151,59.0,0,400,12.0,45.0
5152,66.0,0,400,4.0,45.0
5153,35.0,0,400,15.0,45.0
5154,71.0,120,400,4.0,45.0
5155,62.0,0,400,6.0,45.0
5156,62.0,0,400,13.0,45.0
5157,35.0,0,400,7.0,45.0
5158,59.0,0,400,4.0,45.0
5159,62.0,0,400,4.0,45.0
5160,47.0,0,400,6.0,45.0
5161,59.0,0,400,6.0,45.0
5162,66.0,0,400,12.0,45.0
5163,47.0,0,400,14.0,45.0
5164,62.0,0,400,5.0,45.0
5165,66.0,0,400,5.0,45.0
5166,47.0,0,400,8.0,45.0
5167,54.0,0,400,14.0,45.0
5168,61.0,0,120,10.0,63.0
5169,61.0,0,120,11.0,63.0
5170,94.0,0,120,0.0,60.0
5171,71.0,0,0,2.0,60.0
5172,82.0,0,120,1.0,60.0
5173,83.0,0,0,2.0,60.0
5174,83.0,0,80,1.0,60.0
5175,95.0,0,80,0.0,60.0
5176,62.0,0,120,11.0,64.0
5177,62.0,120,120,10.0,64.0
5178,66.0,120,115,10.0,65.0
5179,66.0,0,115,11.0,65.0
5180,66.0,120,80,2.0,60.0
5181,78.0,0,80,1.0,60.0
5182,90.0,0,80,0.0,60.0
5183,78.0,0,80,2.0,60.0
5184,59.0,0,115,10.0,66.0
5185,59.0,0,115,11.0,66.0
5186,61.0,0,120,11.0,67.0
5187,61.0,120,120,10.0,67.0
5188,86.0,0,80,0.0,60.0
5189,74.0,0,80,2.0,60.0
5190,74.0,0,80,1.0,60.0
5191,62.0,120,80,2.0,60.0
5192,62.0,0,120,10.0,68.0
5193,62.0,0,120,11.0,68.0
5194,66.0,0,115,11.0,69.0
5195,66.0,120,115,10.0,69.0
5196,78.0,0,80,1.0,60.0
5197,90.0,120,80,0.0,60.0
5198,78.0,0,80,2.0,60.0
5199,66.0,0,80,2.0,60.0
5200,59.0,0,115,11.0,70.0
5201,59.0,0,115,10.0,70.0
5202,61.0,0,115,11.0,71.0
5203,61.0,120,115,10.0,71.0
5204,83.0,0,80,0.0,60.0
5205,71.0,0,80,1.0,60.0
5206,59.0,0,80,2.0,60.0
5207,71.0,0,80,2.0,60.0
5208,62.0,0,115,10.0,72.0
5209,62.0,0,115,11.0,72.0
5210,64.0,120,115,10.0,73.0
5211,64.0,0,115,11.0,73.0
5212,71.0,0,120,2.0,75.0
5213,62.0,0,120,10.0,74.0
5214,59.0,0,0,2.0,75.0
5215,62.0,0,120,11.0,74.0
5216,83.0,0,120,0.0,75.0
5217,59.0,0,400,4.0,57.0
5218,59.0,0,400,12.0,57.0
5219,66.0,0,400,5.0,57.0
5220,62.0,0,400,5.0,57.0
5221,62.0,0,400,6.0,57.0
5222,59.0,0,400,6.0,57.0
5223,47.0,0,400,3.0,66.0
5224,47.0,0,400,7.0,57.0
5225,66.0,0,400,12.0,57.0
5226,47.0,0,400,8.0,51.0
5227,54.0,0,400,14.0,57.0
5228,47.0,0,400,14.0,57.0
5229,47.0,0,400,15.0,57.0
5230,71.0,120,400,4.0,57.0
5231,47.0,0,400,6.0,57.0
5232,66.0,0,400,4.0,57.0
5233,62.0,0,400,13.0,57.0
5234,62.0,0,400,4.0,57.0
5235,64.0,0,120,11.0,75.0
5236,82.0,0,120,0.0,75.0
5237,64.0,120,120,10.0,75.0
5238,71.0,120,0,2.0,75.0
5239,59.0,0,80,2.0,75.0
5240,83.0,0,80,0.0,75.0
5241,66.0,0,115,11.0,76.0
5242,66.0,0,115,10.0,76.0
5243,71.0,0,115,11.0,77.0
5244,71.0,120,115,10.0,77.0
5245,66.0,0,80,2.0,75.0
5246,54.0,0,80,2.0,75.0
5247,78.0,0,80,0.0,75.0
5248,62.0,0,120,11.0,78.0
5249,62.0,120,120,10.0,78.0
5250,64.0,120,120,11.0,79.0
5251,64.0,0,120,10.0,79.0
5252,62.0,120,80,2.0,75.0
5253,50.0,0,80,2.0,75.0
5254,74.0,0,80,0.0,75.0
5255,66.0,0,115,10.0,80.0
5256,66.0,0,115,11.0,80.0
5257,71.0,120,115,10.0,81.0
5258,71.0,0,115,11.0,81.0
5259,54.0,0,80,2.0,75.0
5260,66.0,0,80,2.0,75.0
5261,78.0,0,80,0.0,75.0
5262,62.0,0,120,11.0,82.0
5263,62.0,120,120,10.0,82.0
5264,64.0,120,120,11.0,83.0
5265,64.0,0,120,10.0,83.0
5266,59.0,0,80,2.0,75.0
5267,47.0,0,80,3.0,88.0
5268,71.0,0,80,0.0,75.0
5269,66.0,0,115,10.0,84.0
5270,66.0,120,115,11.0,84.0
5271,68.0,120,115,10.0,86.0
5272,68.0,0,115,11.0,86.0
5273,59.0,0,120,3.0,92.0
5274,59.0,0,120,2.0,92.0
5275,66.0,120,120,11.0,88.0
5276,66.0,0,120,10.0,88.0
5277,63.0,0,400,4.0,69.0
5278,59.0,0,400,4.0,69.0
5279,57.0,0,400,13.0,69.0
5280,66.0,0,400,5.0,69.0
5281,71.0,0,400,4.0,69.0
5282,47.0,0,400,15.0,69.0
5283,63.0,0,400,12.0,69.0
5284,59.0,0,400,12.0,69.0
5285,63.0,0,400,5.0,69.0
5286,47.0,0,400,7.0,69.0
5287,47.0,0,400,6.0,69.0
5288,66.0,0,400,4.0,69.0
5289,47.0,0,400,14.0,69.0
5290,57.0,0,400,6.0,69.0
5291,59.0,0,400,6.0,69.0
5292,54.0,0,400,14.0,69.0
5293,47.0,0,400,8.0,60.0
5294,68.0,0,120,10.0,90.0
5295,59.0,0,0,2.0,92.0
5296,58.0,0,120,3.0,92.0
5297,68.0,0,120,11.0,90.0
5298,59.0,0,80,3.0,92.0
5299,69.0,0,115,11.0,92.0
5300,69.0,120,115,10.0,92.0
5301,75.0,120,115,11.0,94.0
5302,75.0,0,115,10.0,94.0
5303,54.0,0,80,2.0,92.0
5304,54.0,0,80,3.0,92.0
5305,66.0,120,120,10.0,96.0
5306,66.0,0,120,11.0,96.0
5307,68.0,0,120,10.0,98.0
5308,68.0,120,120,11.0,98.0
5309,51.0,120,80,2.0,92.0
5310,51.0,0,80,3.0,92.0
5311,69.0,0,115,10.0,100.0
5312,69.0,0,115,11.0,100.0
5313,75.0,0,115,10.0,102.0
5314,75.0,120,115,11.0,102.0
5315,54.0,120,80,3.0,92.0
5316,54.0,0,80,2.0,92.0
5317,66.0,0,120,11.0,104.0
5318,66.0,0,120,10.0,104.0
5319,68.0,0,120,10.0,106.0
5320,68.0,120,120,11.0,106.0
5321,47.0,120,80,3.0,92.0
5322,59.0,0,80,2.0,92.0
5323,69.0,0,115,10.0,108.0
5324,69.0,0,115,11.0,108.0
5325,78.0,120,115,10.0,108.0
5326,78.0,0,115,11.0,108.0
5327,75.0,120,115,11.0,108.0
5328,75.0,0,115,10.0,108.0
5329,76.0,120,115,11.0,108.0
5330,76.0,0,115,10.0,108.0
5331,78.0,120,115,11.0,108.0
5332,78.0,0,115,10.0,108.0
5333,75.0,120,115,11.0,108.0
5334,75.0,0,115,10.0,108.0
5335,72.0,120,120,11.0,108.0
5336,72.0,0,120,10.0,108.0
5337,73.0,120,120,10.0,108.0
5338,73.0,0,120,11.0,108.0
5339,75.0,0,115,11.0,108.0
5340,75.0,0,115,10.0,108.0
5341,72.0,120,115,11.0,108.0
5342,72.0,0,115,10.0,108.0
5343,68.0,120,115,11.0,108.0
5344,68.0,0,115,10.0,108.0
5345,44.0,0,400,6.0,127.0
5346,44.0,0,400,8.0,75.0
5347,66.0,120,115,10.0,108.0
5348,66.0,0,115,11.0,108.0
5349,68.0,0,480,5.0,92.0
5350,63.0,0,480,5.0,92.0
5351,60.0,0,480,12.0,92.0
5352,63.0,0,480,4.0,92.0
5353,44.0,0,480,3.0,92.0
5354,63.0,0,480,2.0,92.0
5355,68.0,120,0,12.0,92.0
5356,44.0,0,480,14.0,92.0
5357,56.0,0,480,14.0,92.0
5358,63.0,0,480,13.0,92.0
5359,68.0,0,0,2.0,92.0
5360,60.0,0,480,4.0,92.0
5361,56.0,0,480,4.0,92.0
5362,32.0,0,480,15.0,92.0
5363,51.0,0,480,14.0,92.0
5364,68.0,0,0,4.0,92.0
5365,63.0,0,480,6.0,92.0
5366,60.0,120,480,6.0,92.0
5367,32.0,0,480,7.0,92.0
5368,65.0,0,115,10.0,108.0
5369,65.0,0,115,11.0,108.0
5370,83.0,120,115,11.0,108.0
5371,83.0,0,115,10.0,108.0
5372,80.0,0,120,10.0,108.0
5373,80.0,120,120,11.0,108.0
5374,53.0,0,400,8.0,75.0
5375,29.0,0,400,15.0,92.0
5376,41.0,0,400,6.0,127.0
5377,29.0,0,400,7.0,92.0
5378,47.0,0,400,14.0,92.0
5379,41.0,0,400,14.0,92.0
5380,53.0,0,400,14.0,92.0
5381,41.0,0,400,3.0,92.0
5382,81.0,120,120,10.0,108.0
5383,81.0,0,120,11.0,108.0
5384,83.0,120,115,11.0,108.0
5385,83.0,0,115,10.0,108.0
5386,80.0,120,115,11.0,108.0
5387,80.0,0,115,10.0,108.0
5388,77.0,120,120,11.0,108.0
5389,77.0,0,120,10.0,108.0
5390,32.0,0,400,15.0,92.0
5391,44.0,0,400,14.0,92.0
5392,44.0,0,400,6.0,127.0
5393,32.0,0,400,7.0,92.0
5394,44.0,0,400,3.0,92.0
5395,78.0,120,120,11.0,108.0
5396,78.0,0,120,10.0,108.0
5397,80.0,0,115,10.0,108.0
5398,80.0,0,115,11.0,108.0
5399,77.0,0,115,10.0,108.0
5400,77.0,120,115,11.0,108.0
5401,73.0,120,115,11.0,108.0
5402,73.0,0,115,10.0,108.0
5403,35.0,0,400,15.0,92.0
5404,35.0,0,400,7.0,92.0
5405,47.0,120,400,6.0,127.0
5406,47.0,0,400,14.0,92.0
5407,47.0,0,400,3.0,92.0
5408,71.0,120,115,11.0,108.0
5409,71.0,0,115,10.0,108.0
5410,61.0,0,1440,4.0,92.0
5411,56.0,0,1440,4.0,92.0
5412,65.0,0,1440,5.0,92.0
5413,59.0,0,1440,12.0,92.0
5414,68.0,0,1440,5.0,92.0
5415,61.0,0,1440,6.0,92.0
5416,56.0,0,1440,6.0,92.0
5417,65.0,0,1440,2.0,92.0
5418,65.0,0,1440,13.0,92.0
5419,65.0,0,1440,4.0,92.0
5420,69.0,120,115,10.0,108.0
5421,69.0,0,115,11.0,108.0
5422,85.0,120,115,11.0,108.0
5423,85.0,0,115,10.0,108.0
5424,81.0,0,120,11.0,108.0
5425,81.0,120,120,10.0,108.0
5426,30.0,0,400,15.0,92.0
5427,42.0,0,400,14.0,92.0
5428,49.0,0,400,14.0,92.0
5429,30.0,0,400,7.0,92.0
5430,42.0,0,400,3.0,92.0
5431,42.0,0,400,6.0,127.0
5432,83.0,120,120,10.0,108.0
5433,83.0,0,120,11.0,108.0
5434,85.0,0,115,11.0,108.0
5435,85.0,0,115,10.0,108.0
5436,81.0,120,115,10.0,108.0
5437,81.0,0,115,11.0,108.0
5438,78.0,120,120,10.0,108.0
5439,78.0,0,120,11.0,108.0
5440,45.0,0,400,14.0,92.0
5441,33.0,0,400,15.0,92.0
5442,45.0,120,400,6.0,127.0
5443,45.0,0,400,3.0,92.0
5444,33.0,0,400,7.0,92.0
5445,80.0,120,120,10.0,108.0
5446,80.0,0,120,11.0,108.0
5447,81.0,120,115,10.0,108.0
5448,81.0,0,115,11.0,108.0
5449,78.0,0,115,10.0,108.0
5450,78.0,120,115,11.0,108.0
5451,74.0,120,115,11.0,108.0
5452,74.0,0,115,10.0,108.0
5453,49.0,0,400,14.0,92.0
5454,49.0,0,400,3.0,92.0
5455,37.0,0,400,15.0,92.0
5456,49.0,0,400,6.0,127.0
5457,37.0,0,400,7.0,92.0
5458,73.0,120,115,11.0,108.0
5459,73.0,0,115,10.0,108.0
5460,57.0,0,1440,4.0,92.0
5461,61.0,0,1440,13.0,92.0
5462,66.0,0,1440,2.0,92.0
5463,66.0,0,0,5.0,92.0
5464,69.0,0,1440,5.0,92.0
5465,54.0,0,1440,4.0,92.0
5466,66.0,0,1440,4.0,92.0
5467,61.0,0,1440,4.0,92.0
5468,69.0,0,1440,2.0,92.0
5469,61.0,0,1440,6.0,92.0
5470,57.0,0,1440,6.0,92.0
5471,57.0,0,1440,12.0,92.0
5472,66.0,0,0,12.0,92.0
5473,71.0,0,115,10.0,108.0
5474,71.0,0,115,11.0,108.0
5475,86.0,0,115,10.0,108.0
5476,86.0,120,115,11.0,108.0
5477,83.0,120,120,11.0,108.0
5478,83.0,0,120,10.0,108.0
5479,85.0,0,120,11.0,108.0
5480,85.0,120,120,10.0,108.0
5481,86.0,120,115,10.0,108.0
5482,86.0,0,115,11.0,108.0
5483,83.0,120,115,10.0,108.0
5484,83.0,0,115,11.0,108.0
5485,80.0,120,120,11.0,108.0
5486,80.0,0,120,10.0,108.0
5487,81.0,0,120,11.0,108.0
5488,81.0,120,120,10.0,108.0
5489,83.0,0,115,10.0,108.0
5490,83.0,120,115,11.0,108.0
5491,80.0,120,115,10.0,108.0
5492,80.0,0,115,11.0,108.0
5493,77.0,120,115,10.0,108.0
5494,77.0,0,115,11.0,108.0
5495,59.0,0,1320,6.0,92.0
5496,54.0,0,1320,4.0,92.0
5497,62.0,120,1320,13.0,92.0
5498,47.0,0,1320,3.0,92.0
5499,62.0,0,1320,6.0,92.0
5500,35.0,0,1320,15.0,92.0
5501,59.0,0,1320,4.0,92.0
5502,71.0,0,1320,5.0,92.0
5503,66.0,0,1320,4.0,92.0
5504,59.0,0,1320,12.0,92.0
5505,35.0,0,1320,7.0,92.0
5506,54.0,0,1320,14.0,92.0
5507,71.0,0,1320,2.0,92.0
5508,47.0,0,1320,14.0,92.0
5509,62.0,0,1320,4.0,92.0
5510,66.0,0,1320,2.0,92.0
5511,47.0,0,1320,6.0,127.0
5512,80.0,120,115,10.0,108.0
5513,80.0,0,115,11.0,108.0
5514,65.0,120,80,2.0,45.0
5515,65.0,0,80,6.0,45.0
5516,68.0,0,80,2.0,45.0
5517,56.0,0,80,6.0,45.0
5518,61.0,0,80,6.0,45.0
5519,73.0,0,120,10.0,60.0
5520,73.0,0,120,11.0,60.0
5521,75.0,0,120,11.0,60.0
5522,75.0,120,120,10.0,60.0
5523,73.0,0,115,10.0,60.0
5524,73.0,0,115,11.0,60.0
5525,75.0,120,115,10.0,60.0
5526,75.0,0,115,11.0,60.0
5527,77.0,120,120,11.0,60.0
5528,77.0,0,120,10.0,60.0
5529,61.0,0,400,6.0,45.0
5530,65.0,0,400,6.0,45.0
5531,68.0,0,400,2.0,45.0
5532,65.0,0,400,2.0,45.0
5533,56.0,120,400,6.0,45.0
5534,80.0,0,115,10.0,60.0
5535,80.0,120,115,11.0,60.0
5536,73.0,120,115,10.0,60.0
5537,73.0,0,115,11.0,60.0
5538,75.0,120,115,10.0,60.0
5539,75.0,0,115,11.0,60.0
5540,77.0,120,120,11.0,60.0
5541,77.0,0,120,10.0,60.0
5542,68.0,0,400,2.0,45.0
5543,61.0,0,400,6.0,45.0
5544,65.0,0,400,6.0,45.0
5545,56.0,0,400,6.0,45.0
5546,65.0,0,400,2.0,45.0
5547,80.0,120,115,10.0,60.0
5548,80.0,0,115,11.0,60.0
5549,65.0,0,80,6.0,45.0
5550,61.0,0,80,6.0,45.0
5551,68.0,0,80,2.0,45.0
5552,65.0,0,80,2.0,45.0
5553,56.0,120,80,6.0,45.0
5554,73.0,0,115,10.0,60.0
5555,73.0,0,115,11.0,60.0
5556,75.0,0,115,11.0,60.0
5557,75.0,120,115,10.0,60.0
5558,37.0,0,1440,3.0,45.0
5559,37.0,0,1440,14.0,45.0
5560,49.0,0,1440,14.0,45.0
5561,65.0,0,1440,4.0,45.0
5562,56.0,0,1440,14.0,45.0
5563,68.0,120,0,4.0,45.0
5564,65.0,0,1440,13.0,45.0
5565,61.0,0,0,12.0,45.0
5566,37.0,0,0,7.0,45.0
5567,68.0,0,0,12.0,45.0
5568,37.0,0,1440,15.0,45.0
5569,61.0,0,0,4.0,45.0
5570,56.0,0,0,4.0,45.0
5571,68.0,0,80,2.0,45.0
5572,65.0,0,80,2.0,45.0
5573,56.0,0,80,6.0,45.0
5574,65.0,0,80,6.0,45.0
5575,61.0,0,80,6.0,45.0
5576,77.0,0,120,11.0,60.0
5577,77.0,0,120,10.0,60.0
5578,78.0,120,120,11.0,61.0
5579,78.0,0,120,10.0,61.0
5580,77.0,0,115,10.0,62.0
5581,77.0,0,115,11.0,62.0
5582,78.0,120,115,10.0,63.0
5583,78.0,0,115,11.0,63.0
5584,80.0,0,120,11.0,64.0
5585,80.0,120,120,10.0,64.0
5586,65.0,120,400,2.0,47.0
5587,61.0,0,400,6.0,47.0
5588,68.0,0,400,2.0,47.0
5589,65.0,0,400,6.0,47.0
5590,56.0,0,400,6.0,47.0
5591,83.0,0,115,11.0,65.0
5592,83.0,120,115,10.0,65.0
5593,77.0,0,115,11.0,66.0
5594,77.0,120,115,10.0,66.0
5595,78.0,0,115,11.0,67.0
5596,78.0,120,115,10.0,67.0
5597,80.0,120,120,11.0,68.0
5598,80.0,0,120,10.0,68.0
5599,65.0,0,400,2.0,52.0
5600,65.0,0,400,6.0,52.0
5601,56.0,0,400,6.0,52.0
5602,68.0,0,400,2.0,52.0
5603,61.0,0,400,6.0,52.0
5604,83.0,0,115,10.0,69.0
5605,83.0,120,115,11.0,69.0
5606,65.0,0,80,2.0,57.0
5607,61.0,120,80,6.0,57.0
5608,68.0,0,80,2.0,57.0
5609,65.0,0,80,6.0,57.0
5610,56.0,0,80,6.0,57.0
5611,77.0,0,115,11.0,70.0
5612,77.0,0,115,10.0,70.0
5613,78.0,120,115,10.0,71.0
5614,78.0,0,115,11.0,71.0
5615,37.0,0,1440,3.0,45.0
5616,65.0,0,1440,4.0,45.0
5617,37.0,0,0,7.0,60.0
5618,37.0,0,1440,15.0,45.0
5619,56.0,0,0,4.0,60.0
5620,65.0,0,1440,13.0,45.0
5621,61.0,0,0,12.0,60.0
5622,56.0,0,0,14.0,60.0
5623,49.0,0,0,14.0,60.0
5624,37.0,0,0,14.0,60.0
5625,65.0,0,80,2.0,59.0
5626,61.0,0,80,6.0,59.0
5627,65.0,0,80,6.0,59.0
5628,56.0,0,80,6.0,59.0
5629,68.0,0,80,2.0,59.0
5630,80.0,0,120,11.0,72.0
5631,80.0,120,120,10.0,72.0
5632,81.0,0,120,10.0,73.0
5633,81.0,120,120,11.0,73.0
5634,80.0,0,115,11.0,74.0
5635,80.0,0,115,10.0,74.0
5636,81.0,0,115,10.0,75.0
5637,81.0,120,115,11.0,75.0
5638,83.0,120,120,11.0,76.0
5639,83.0,0,120,10.0,76.0
5640,65.0,0,400,6.0,61.0
5641,61.0,0,400,6.0,61.0
5642,65.0,0,400,2.0,61.0
5643,68.0,0,400,2.0,61.0
5644,56.0,120,400,6.0,61.0
5645,86.0,0,115,11.0,78.0
5646,86.0,120,115,10.0,78.0
5647,80.0,120,115,10.0,80.0
5648,80.0,0,115,11.0,80.0
5649,81.0,0,115,11.0,82.0
5650,81.0,120,115,10.0,82.0
5651,83.0,0,120,11.0,84.0
5652,83.0,120,120,10.0,84.0
5653,56.0,0,400,6.0,66.0
5654,68.0,0,400,2.0,66.0
5655,65.0,0,400,6.0,66.0
5656,61.0,0,400,6.0,66.0
5657,65.0,0,400,2.0,66.0
5658,86.0,120,115,10.0,86.0
5659,86.0,0,115,11.0,86.0
5660,65.0,120,80,6.0,72.0
5661,61.0,0,80,6.0,72.0
5662,68.0,0,80,2.0,72.0
5663,65.0,0,80,2.0,72.0
5664,56.0,0,80,6.0,72.0
5665,80.0,0,115,10.0,88.0
5666,80.0,0,115,11.0,88.0
5667,37.0,0,1320,3.0,60.0
5668,68.0,0,1320,12.0,60.0
5669,61.0,0,1320,4.0,60.0
5670,65.0,0,1320,13.0,60.0
5671,68.0,0,1320,4.0,60.0
5672,65.0,0,1320,4.0,60.0
5673,37.0,0,1320,15.0,60.0
5674,81.0,120,115,10.0,90.0
5675,81.0,0,115,11.0,90.0
5676,68.0,0,80,2.0,75.0
5677,56.0,0,80,6.0,75.0
5678,61.0,0,80,6.0,75.0
5679,65.0,0,80,6.0,75.0
5680,65.0,0,80,2.0,75.0
5681,83.0,0,120,10.0,92.0
5682,83.0,0,120,11.0,92.0
5683,86.0,0,120,11.0,92.0
5684,86.0,120,120,10.0,92.0
5685,83.0,120,115,11.0,92.0
5686,83.0,0,115,10.0,92.0
5687,80.0,0,115,11.0,92.0
5688,80.0,120,115,10.0,92.0
5689,77.0,0,115,10.0,92.0
5690,77.0,120,115,11.0,92.0
5691,56.0,0,400,6.0,75.0
5692,65.0,0,400,2.0,75.0
5693,68.0,0,400,2.0,75.0
5694,61.0,0,400,6.0,75.0
5695,65.0,0,400,6.0,75.0
5696,83.0,120,115,10.0,92.0
5697,83.0,0,115,11.0,92.0
5698,80.0,0,115,10.0,92.0
5699,80.0,0,115,11.0,92.0
5700,37.0,0,840,15.0,75.0
5701,37.0,0,840,3.0,75.0
5702,49.0,0,840,14.0,75.0
5703,37.0,0,840,14.0,75.0
5704,37.0,120,840,7.0,75.0
5705,56.0,0,840,14.0,75.0
5706,56.0,120,235,6.0,75.0
5707,77.0,0,115,10.0,92.0
5708,77.0,120,115,11.0,92.0
5709,73.0,0,115,11.0,92.0
5710,73.0,120,115,10.0,92.0
5711,68.0,0,400,2.0,75.0
5712,65.0,0,400,6.0,75.0
5713,65.0,0,400,2.0,75.0
5714,61.0,0,400,6.0,75.0
5715,83.0,120,120,11.0,92.0
5716,83.0,0,120,10.0,92.0
5717,65.0,0,80,6.0,75.0
5718,61.0,0,80,6.0,75.0
5719,65.0,0,80,2.0,75.0
5720,68.0,0,80,2.0,75.0
5721,81.0,120,120,11.0,92.0
5722,68.0,0,1320,13.0,75.0
5723,71.0,0,1320,4.0,75.0
5724,65.0,0,1320,4.0,75.0
5725,65.0,0,1320,12.0,75.0
5726,61.0,0,1320,4.0,75.0
5727,59.0,0,1320,4.0,75.0
5728,81.0,0,120,10.0,92.0
5729,73.0,0,1320,12.0,75.0
5730,49.0,0,400,14.0,92.0
5731,37.0,0,400,14.0,92.0
5732,49.0,0,400,6.0,105.0
5733,37.0,0,400,3.0,92.0
5734,37.0,0,400,15.0,92.0
5735,37.0,0,400,7.0,92.0
5736,80.0,120,115,11.0,92.0
5737,80.0,0,115,10.0,92.0
5738,69.0,0,80,2.0,75.0
5739,66.0,0,80,6.0,75.0
5740,66.0,0,80,2.0,75.0
5741,61.0,0,80,6.0,75.0
5742,78.0,0,120,11.0,92.0
5743,78.0,0,120,10.0,92.0
5744,80.0,120,120,11.0,92.0
5745,80.0,0,120,10.0,92.0
5746,81.0,0,115,11.0,92.0
5747,81.0,0,115,10.0,92.0
5748,42.0,0,400,14.0,92.0
5749,49.0,0,400,14.0,92.0
5750,42.0,0,400,15.0,92.0
5751,42.0,0,400,3.0,92.0
5752,42.0,0,400,6.0,105.0
5753,42.0,120,400,7.0,92.0
5754,78.0,0,115,10.0,92.0
5755,78.0,120,115,11.0,92.0
5756,71.0,0,115,10.0,92.0
5757,71.0,0,115,11.0,92.0
5758,66.0,0,400,2.0,75.0
5759,69.0,120,400,2.0,75.0
5760,66.0,0,400,6.0,75.0
5761,61.0,0,400,6.0,75.0
5762,81.0,0,120,11.0,92.0
5763,81.0,120,120,10.0,92.0
5764,61.0,0,840,13.0,75.0
5765,66.0,0,840,4.0,75.0
5766,69.0,0,840,12.0,75.0
5767,57.0,0,840,4.0,75.0
5768,66.0,0,840,12.0,75.0
5769,80.0,120,120,10.0,92.0
5770,61.0,0,840,4.0,75.0
5771,69.0,0,840,4.0,75.0
5772,80.0,0,120,11.0,92.0
5773,45.0,120,400,15.0,92.0
5774,45.0,0,400,7.0,92.0
5775,45.0,0,400,3.0,92.0
5776,54.0,0,400,14.0,92.0
5777,45.0,0,400,14.0,92.0
5778,45.0,0,400,6.0,105.0
5779,78.0,120,115,11.0,92.0
5780,78.0,0,115,10.0,92.0
5781,73.0,0,115,10.0,92.0
5782,73.0,0,115,11.0,92.0
5783,69.0,0,400,2.0,75.0
5784,61.0,0,400,6.0,75.0
5785,66.0,0,400,6.0,75.0
5786,66.0,0,400,2.0,75.0
5787,80.0,0,120,11.0,92.0
5788,80.0,120,120,10.0,92.0
5789,78.0,0,120,10.0,92.0
5790,78.0,120,120,11.0,92.0
5791,49.0,0,400,7.0,92.0
5792,69.0,0,400,12.0,105.0
5793,49.0,0,400,15.0,92.0
5794,49.0,0,400,3.0,92.0
5795,68.0,120,400,4.0,75.0
5796,65.0,0,400,4.0,75.0
5797,61.0,0,400,12.0,105.0
5798,65.0,0,400,13.0,105.0
5799,61.0,0,400,4.0,75.0
5800,49.0,0,400,14.0,92.0
5801,56.0,0,400,14.0,92.0
5802,49.0,0,400,6.0,105.0
5803,77.0,0,115,10.0,92.0
5804,77.0,120,115,11.0,92.0
5805,61.0,0,235,6.0,75.0
5806,69.0,0,235,2.0,75.0
5807,66.0,0,235,2.0,75.0
5808,66.0,0,235,6.0,75.0
5809,74.0,0,120,10.0,75.0
5810,74.0,0,120,11.0,75.0
5811,76.0,120,120,10.0,75.0
5812,76.0,0,120,11.0,75.0
5813,78.0,120,115,10.0,75.0
5814,78.0,0,115,11.0,75.0
5815,54.0,0,400,4.0,60.0
5816,62.0,0,400,4.0,60.0
5817,71.0,0,400,2.0,60.0
5818,35.0,0,400,15.0,60.0
5819,62.0,0,400,2.0,60.0
5820,66.0,0,400,6.0,60.0
5821,47.0,0,400,6.0,84.0
5822,59.0,0,400,12.0,84.0
5823,66.0,120,400,12.0,84.0
5824,54.0,0,400,14.0,60.0
5825,47.0,0,400,3.0,60.0
5826,47.0,0,400,14.0,60.0
5827,66.0,0,400,4.0,60.0
5828,62.0,0,400,6.0,60.0
5829,62.0,0,400,13.0,84.0
5830,59.0,0,400,4.0,60.0
5831,35.0,0,400,7.0,60.0
5832,74.0,0,115,11.0,75.0
5833,74.0,120,115,10.0,75.0
5834,68.0,0,115,11.0,75.0
5835,68.0,0,115,10.0,75.0
5836,78.0,120,120,10.0,75.0
5837,78.0,0,120,11.0,75.0
5838,76.0,0,120,10.0,75.0
5839,76.0,120,120,11.0,75.0
5840,56.0,0,400,14.0,60.0
5841,62.0,0,400,2.0,60.0
5842,62.0,0,400,4.0,60.0
5843,56.0,0,400,3.0,60.0
5844,44.0,0,400,6.0,84.0
5845,44.0,0,400,7.0,60.0
5846,51.0,0,400,14.0,60.0
5847,66.0,0,400,4.0,60.0
5848,44.0,0,400,15.0,60.0
5849,59.0,0,400,12.0,84.0
5850,62.0,0,400,12.0,84.0
5851,54.0,0,400,4.0,60.0
5852,59.0,0,400,4.0,60.0
5853,71.0,120,400,2.0,60.0
5854,66.0,0,400,6.0,60.0
5855,62.0,0,400,6.0,60.0
5856,59.0,0,400,13.0,84.0
5857,74.0,0,115,11.0,75.0
5858,74.0,120,115,10.0,75.0
5859,70.0,0,115,11.0,75.0
5860,70.0,0,115,10.0,75.0
5861,76.0,120,120,11.0,75.0
5862,76.0,0,120,10.0,75.0
5863,74.0,120,120,11.0,75.0
5864,74.0,0,120,10.0,75.0
5865,46.0,0,400,14.0,60.0
5866,64.0,0,400,6.0,60.0
5867,70.0,0,400,2.0,60.0
5868,54.0,0,400,14.0,60.0
5869,61.0,0,400,2.0,60.0
5870,58.0,0,400,4.0,60.0
5871,54.0,0,400,3.0,60.0
5872,64.0,0,400,4.0,60.0
5873,61.0,0,400,4.0,60.0
5874,61.0,0,400,12.0,84.0
5875,64.0,0,400,12.0,84.0
5876,42.0,0,400,6.0,84.0
5877,58.0,0,400,13.0,84.0
5878,61.0,0,400,6.0,60.0
5879,42.0,0,400,7.0,60.0
5880,42.0,120,400,15.0,60.0
5881,73.0,0,115,11.0,75.0
5882,73.0,120,115,10.0,75.0
5883,71.0,0,120,10.0,75.0
5884,71.0,0,120,11.0,75.0
5885,73.0,120,120,10.0,75.0
5886,73.0,0,120,11.0,75.0
5887,74.0,120,115,11.0,75.0
5888,74.0,0,115,10.0,75.0
5889,44.0,0,400,7.0,60.0
5890,59.0,0,400,6.0,60.0
5891,47.0,0,400,14.0,60.0
5892,56.0,0,400,14.0,60.0
5893,44.0,0,400,6.0,84.0
5894,62.0,0,400,4.0,60.0
5895,59.0,0,400,4.0,60.0
5896,68.0,0,400,12.0,84.0
5897,59.0,0,400,12.0,84.0
5898,68.0,0,400,2.0,60.0
5899,56.0,0,400,3.0,60.0
5900,62.0,120,400,6.0,60.0
5901,44.0,0,400,15.0,60.0
5902,56.0,0,400,4.0,60.0
5903,71.0,0,400,2.0,60.0
5904,62.0,0,400,13.0,84.0
5905,71.0,120,115,10.0,75.0
5906,71.0,0,115,11.0,75.0
5907,65.0,0,115,11.0,75.0
5908,65.0,0,115,10.0,75.0
5909,74.0,120,120,10.0,75.0
5910,74.0,0,120,11.0,75.0
5911,73.0,0,120,10.0,75.0
5912,73.0,120,120,11.0,75.0
5913,53.0,0,400,3.0,60.0
5914,41.0,0,400,6.0,84.0
5915,59.0,0,400,4.0,60.0
5916,71.0,0,400,2.0,60.0
5917,65.0,0,400,13.0,84.0
5918,41.0,0,400,15.0,60.0
5919,62.0,0,400,4.0,60.0
5920,41.0,0,400,7.0,60.0
5921,68.0,0,400,12.0,84.0
5922,44.0,0,400,14.0,60.0
5923,53.0,0,400,14.0,60.0
5924,56.0,120,400,4.0,60.0
5925,59.0,0,400,12.0,84.0
5926,59.0,0,400,6.0,60.0
5927,62.0,0,400,6.0,60.0
5928,68.0,0,400,2.0,60.0
5929,71.0,120,115,11.0,75.0
5930,71.0,0,115,10.0,75.0
5931,66.0,0,115,11.0,75.0
5932,66.0,0,115,10.0,75.0
5933,73.0,0,120,11.0,75.0
5934,73.0,120,120,10.0,75.0
5935,71.0,120,120,11.0,75.0
5936,71.0,0,120,10.0,75.0
5937,42.0,0,400,15.0,60.0
5938,42.0,0,400,6.0,84.0
5939,69.0,120,400,2.0,60.0
5940,66.0,0,400,13.0,84.0
5941,57.0,0,400,4.0,60.0
5942,54.0,0,400,3.0,60.0
5943,54.0,0,400,4.0,60.0
5944,61.0,0,400,4.0,60.0
5945,66.0,0,400,2.0,60.0
5946,69.0,0,400,12.0,84.0
5947,61.0,0,400,12.0,84.0
5948,66.0,0,400,4.0,60.0
5949,45.0,0,400,14.0,60.0
5950,42.0,0,400,7.0,60.0
5951,61.0,0,400,6.0,60.0
5952,57.0,0,400,6.0,60.0
5953,54.0,0,400,14.0,60.0
5954,69.0,120,115,10.0,75.0
5955,69.0,0,115,11.0,75.0
5956,68.0,0,120,10.0,60.0
5957,68.0,0,120,11.0,60.0
5958,69.0,0,120,10.0,60.0
5959,69.0,120,120,11.0,60.0
5960,71.0,0,115,11.0,60.0
5961,71.0,120,115,10.0,60.0
5962,69.0,120,115,10.0,60.0
5963,69.0,0,115,11.0,60.0
5964,68.0,0,115,11.0,60.0
5965,68.0,120,115,10.0,60.0
5966,68.0,0,720,4.0,60.0
5967,71.0,0,120,11.0,60.0
5968,61.0,0,720,4.0,60.0
5969,68.0,0,720,2.0,60.0
5970,56.0,0,720,6.0,60.0
5971,56.0,0,720,4.0,60.0
5972,68.0,0,720,5.0,60.0
5973,65.0,0,720,5.0,60.0
5974,65.0,0,720,4.0,60.0
5975,65.0,0,720,13.0,60.0
5976,65.0,0,720,2.0,60.0
5977,68.0,0,720,13.0,60.0
5978,65.0,0,720,6.0,60.0
5979,71.0,120,120,10.0,60.0
5980,69.0,0,115,10.0,60.0
5981,69.0,0,115,11.0,60.0
5982,66.0,0,240,6.0,60.0
5983,71.0,0,120,10.0,60.0
5984,71.0,120,120,11.0,60.0
5985,69.0,0,240,2.0,60.0
5986,69.0,0,240,5.0,60.0
5987,66.0,0,240,2.0,60.0
5988,66.0,0,240,4.0,60.0
5989,69.0,0,240,4.0,60.0
5990,66.0,0,240,5.0,60.0
5991,66.0,0,240,13.0,60.0
5992,69.0,120,240,13.0,60.0
5993,57.0,0,240,6.0,60.0
5994,68.0,0,115,10.0,60.0
5995,68.0,120,115,11.0,60.0
5996,68.0,0,240,4.0,60.0
5997,65.0,0,240,2.0,60.0
5998,65.0,0,240,4.0,60.0
5999,68.0,0,240,13.0,60.0
6000,65.0,0,240,13.0,60.0
6001,71.0,120,120,10.0,60.0
6002,68.0,0,240,5.0,60.0
6003,65.0,0,240,5.0,60.0
6004,56.0,0,240,6.0,60.0
6005,65.0,0,240,6.0,60.0
6006,71.0,0,120,11.0,60.0
6007,68.0,0,240,2.0,60.0
6008,66.0,0,115,11.0,60.0
6009,66.0,120,115,10.0,60.0
6010,37.0,0,1320,7.0,45.0
6011,37.0,0,1320,14.0,45.0
6012,65.0,0,1320,12.0,45.0
6013,53.0,0,1320,14.0,45.0
6014,49.0,0,1320,3.0,45.0
6015,49.0,0,1320,6.0,45.0
6016,37.0,120,1320,15.0,45.0
6017,61.0,0,1320,12.0,45.0
6018,71.0,0,115,11.0,60.0
6019,71.0,120,115,10.0,60.0
6020,66.0,0,240,5.0,60.0
6021,63.0,0,240,5.0,60.0
6022,63.0,0,240,2.0,60.0
6023,66.0,0,240,2.0,60.0
6024,66.0,0,240,4.0,60.0
6025,54.0,0,240,6.0,60.0
6026,63.0,0,240,13.0,60.0
6027,63.0,0,240,4.0,60.0
6028,66.0,0,240,13.0,60.0
6029,63.0,0,240,6.0,60.0
6030,65.0,0,120,10.0,60.0
6031,65.0,0,120,11.0,60.0
6032,66.0,120,120,10.0,60.0
6033,66.0,0,120,11.0,60.0
6034,68.0,0,115,11.0,60.0
6035,68.0,120,115,10.0,60.0
6036,69.0,0,115,10.0,60.0
6037,69.0,120,115,11.0,60.0
6038,71.0,120,120,10.0,60.0
6039,71.0,0,120,11.0,60.0
6040,65.0,0,115,11.0,60.0
6041,65.0,120,115,10.0,60.0
6042,74.0,120,120,10.0,60.0
6043,74.0,0,120,11.0,60.0
6044,65.0,120,115,11.0,60.0
6045,65.0,0,115,10.0,60.0
6046,73.0,120,120,11.0,60.0
6047,73.0,0,120,10.0,60.0
6048,65.0,0,115,11.0,60.0
6049,65.0,120,115,10.0,60.0
6050,61.0,0,1320,4.0,45.0
6051,65.0,0,1320,4.0,45.0
6052,56.0,0,1320,4.0,45.0
6053,68.0,0,1320,2.0,45.0
6054,61.0,0,1320,13.0,45.0
6055,65.0,0,1320,13.0,45.0
6056,65.0,0,1320,5.0,45.0
6057,56.0,0,1320,6.0,45.0
6058,37.0,0,1320,7.0,45.0
6059,61.0,0,1320,12.0,45.0
6060,68.0,0,1320,12.0,45.0
6061,37.0,0,1320,15.0,45.0
6062,68.0,0,1320,4.0,45.0
6063,37.0,120,1320,14.0,45.0
6064,53.0,0,1320,14.0,45.0
6065,71.0,120,120,11.0,60.0
6066,65.0,0,1320,2.0,45.0
6067,65.0,0,1320,6.0,45.0
6068,68.0,0,1320,5.0,45.0
6069,49.0,0,1320,3.0,45.0
6070,49.0,0,1320,6.0,45.0
6071,71.0,0,120,10.0,60.0
6072,65.0,120,115,11.0,60.0
6073,65.0,0,115,10.0,60.0
6074,66.0,0,80,2.0,45.0
6075,54.0,0,80,6.0,45.0
6076,57.0,0,80,6.0,45.0
6077,61.0,0,80,6.0,45.0
6078,69.0,120,80,2.0,45.0
6079,66.0,0,120,10.0,60.0
6080,66.0,0,120,11.0,60.0
6081,69.0,0,120,11.0,60.0
6082,69.0,120,120,10.0,60.0
6083,66.0,0,80,10.0,60.0
6084,66.0,0,80,11.0,60.0
6085,61.0,120,80,11.0,60.0
6086,61.0,0,80,10.0,60.0
6087,57.0,0,80,11.0,60.0
6088,57.0,120,80,10.0,60.0
6089,66.0,0,400,2.0,45.0
6090,69.0,120,400,2.0,45.0
6091,54.0,0,400,6.0,45.0
6092,57.0,0,400,6.0,45.0
6093,61.0,0,400,6.0,45.0
6094,61.0,0,80,11.0,60.0
6095,61.0,120,80,10.0,60.0
6096,66.0,0,80,10.0,60.0
6097,66.0,0,80,11.0,60.0
6098,61.0,0,80,10.0,60.0
6099,61.0,120,80,11.0,60.0
6100,69.0,120,80,10.0,60.0
6101,69.0,0,80,11.0,60.0
6102,54.0,0,400,6.0,45.0
6103,66.0,0,400,2.0,45.0
6104,61.0,0,400,6.0,45.0
6105,57.0,0,400,6.0,45.0
6106,69.0,120,400,2.0,45.0
6107,61.0,120,80,10.0,60.0
6108,61.0,0,80,11.0,60.0
6109,54.0,0,80,6.0,45.0
6110,69.0,0,80,2.0,45.0
6111,57.0,0,80,6.0,45.0
6112,66.0,0,80,2.0,45.0
6113,66.0,0,80,10.0,60.0
6114,66.0,120,80,11.0,60.0
6115,61.0,0,80,6.0,45.0
6116,61.0,120,80,10.0,60.0
6117,61.0,0,80,11.0,60.0
6118,61.0,0,1440,4.0,45.0
6119,54.0,0,1440,14.0,45.0
6120,45.0,0,1440,14.0,45.0
6121,54.0,0,1440,4.0,45.0
6122,54.0,0,1440,3.0,45.0
6123,42.0,0,1440,15.0,45.0
6124,61.0,0,1440,12.0,45.0
6125,57.0,0,1440,13.0,45.0
6126,66.0,0,1440,4.0,45.0
6127,57.0,0,1440,4.0,45.0
6128,42.0,0,1440,7.0,45.0
6129,68.0,0,80,2.0,45.0
6130,56.0,0,80,6.0,45.0
6131,61.0,0,80,6.0,45.0
6132,65.0,0,80,2.0,45.0
6133,65.0,0,80,6.0,45.0
6134,65.0,120,120,10.0,60.0
6135,65.0,0,120,11.0,60.0
6136,68.0,0,120,11.0,61.0
6137,68.0,120,120,10.0,61.0
6138,65.0,0,80,10.0,62.0
6139,65.0,0,80,11.0,62.0
6140,61.0,120,80,10.0,63.0
6141,61.0,0,80,11.0,63.0
6142,65.0,120,80,11.0,64.0
6143,65.0,0,80,10.0,64.0
6144,68.0,0,400,2.0,48.0
6145,56.0,0,400,6.0,48.0
6146,65.0,0,400,2.0,48.0
6147,65.0,0,400,6.0,48.0
6148,61.0,120,400,6.0,48.0
6149,68.0,0,80,11.0,65.0
6150,68.0,120,80,10.0,65.0
6151,73.0,120,80,11.0,66.0
6152,73.0,0,80,10.0,66.0
6153,68.0,0,80,11.0,67.0
6154,68.0,120,80,10.0,67.0
6155,77.0,0,80,10.0,68.0
6156,77.0,120,80,11.0,68.0
6157,56.0,0,400,6.0,56.0
6158,61.0,0,400,6.0,56.0
6159,65.0,0,400,6.0,56.0
6160,65.0,0,400,2.0,56.0
6161,68.0,0,400,2.0,56.0
6162,73.0,0,80,11.0,70.0
6163,73.0,120,80,10.0,70.0
6164,80.0,0,80,10.0,72.0
6165,68.0,0,80,2.0,64.0
6166,65.0,0,80,2.0,64.0
6167,56.0,0,80,6.0,64.0
6168,80.0,0,80,11.0,72.0
6169,65.0,120,80,6.0,64.0
6170,61.0,0,80,6.0,64.0
6171,71.0,120,80,11.0,74.0
6172,71.0,0,80,10.0,74.0
6173,65.0,0,1440,4.0,45.0
6174,44.0,0,1440,14.0,45.0
6175,49.0,0,1440,14.0,45.0
6176,56.0,0,1440,4.0,45.0
6177,56.0,0,1440,13.0,45.0
6178,59.0,0,1440,4.0,45.0
6179,61.0,0,1440,12.0,45.0
6180,53.0,0,1440,4.0,45.0
6181,37.0,0,1440,15.0,45.0
6182,37.0,0,1440,7.0,45.0
6183,49.0,0,1440,3.0,45.0
6184,57.0,0,80,6.0,68.0
6185,61.0,0,80,6.0,68.0
6186,66.0,0,80,2.0,68.0
6187,69.0,0,80,2.0,68.0
6188,66.0,120,80,6.0,68.0
6189,69.0,0,120,11.0,76.0
6190,69.0,0,120,10.0,76.0
6191,73.0,0,120,10.0,78.0
6192,73.0,120,120,11.0,78.0
6193,69.0,0,80,11.0,80.0
6194,69.0,0,80,10.0,80.0
6195,66.0,120,80,10.0,82.0
6196,66.0,0,80,11.0,82.0
6197,69.0,120,80,11.0,84.0
6198,69.0,0,80,10.0,84.0
6199,66.0,120,400,6.0,72.0
6200,61.0,0,400,6.0,72.0
6201,69.0,0,400,2.0,72.0
6202,57.0,0,400,6.0,72.0
6203,66.0,0,400,2.0,72.0
6204,73.0,0,80,11.0,86.0
6205,73.0,120,80,10.0,86.0
6206,78.0,0,80,11.0,88.0
6207,78.0,0,80,10.0,88.0
6208,73.0,0,80,11.0,90.0
6209,73.0,120,80,10.0,90.0
6210,81.0,0,80,10.0,92.0
6211,81.0,120,80,11.0,92.0
6212,66.0,0,400,6.0,80.0
6213,61.0,0,400,6.0,80.0
6214,69.0,0,400,2.0,80.0
6215,66.0,120,400,2.0,80.0
6216,57.0,0,400,6.0,80.0
6217,78.0,120,80,11.0,94.0
6218,78.0,0,80,10.0,94.0
6219,66.0,0,80,2.0,88.0
6220,69.0,0,80,2.0,88.0
6221,61.0,0,80,6.0,88.0
6222,85.0,120,80,10.0,96.0
6223,85.0,0,80,11.0,96.0
6224,57.0,0,80,6.0,88.0
6225,66.0,0,80,6.0,88.0
6226,57.0,0,1320,13.0,68.0
6227,57.0,0,1320,4.0,68.0
6228,61.0,0,1320,4.0,68.0
6229,61.0,0,1320,12.0,68.0
6230,54.0,0,1320,14.0,68.0
6231,45.0,0,1320,14.0,68.0
6232,54.0,0,1320,3.0,68.0
6233,54.0,0,1320,4.0,68.0
6234,66.0,0,1320,4.0,68.0
6235,42.0,0,1320,15.0,68.0
6236,42.0,0,1320,7.0,68.0
6237,78.0,120,80,10.0,98.0
6238,78.0,0,80,11.0,98.0
6239,49.0,0,25,8.0,75.0
6240,49.0,30,25,8.0,75.0
6241,49.0,30,25,8.0,75.0
6242,49.0,30,25,8.0,75.0
6243,77.0,0,120,10.0,100.0
6244,77.0,0,120,11.0,100.0
6245,49.0,0,25,8.0,75.0
6246,49.0,30,25,8.0,75.0
6247,49.0,30,25,8.0,75.0
6248,49.0,30,25,8.0,75.0
6249,80.0,30,120,11.0,102.0
6250,80.0,0,120,10.0,102.0
6251,49.0,0,25,8.0,75.0
6252,49.0,30,25,8.0,75.0
6253,49.0,30,25,8.0,75.0
6254,49.0,30,25,8.0,75.0
6255,77.0,30,115,11.0,104.0
6256,77.0,0,115,10.0,104.0
6257,49.0,0,25,8.0,75.0
6258,49.0,30,25,8.0,75.0
6259,49.0,30,25,8.0,75.0
6260,73.0,0,115,11.0,106.0
6261,49.0,30,25,8.0,75.0
6262,73.0,30,115,10.0,106.0
6263,49.0,0,25,8.0,75.0
6264,49.0,30,25,8.0,75.0
6265,49.0,30,25,8.0,75.0
6266,49.0,30,25,8.0,75.0
6267,85.0,0,120,10.0,108.0
6268,85.0,30,120,11.0,108.0
6269,49.0,30,25,8.0,75.0
6270,49.0,30,25,8.0,75.0
6271,49.0,30,25,8.0,75.0
6272,49.0,30,25,8.0,75.0
6273,84.0,0,120,10.0,108.0
6274,84.0,0,120,11.0,108.0
6275,49.0,0,25,8.0,75.0
6276,49.0,30,25,8.0,75.0
6277,49.0,30,25,8.0,75.0
6278,85.0,0,115,11.0,108.0
6279,85.0,30,115,10.0,108.0
6280,49.0,30,25,8.0,75.0
6281,49.0,0,25,8.0,75.0
6282,49.0,30,25,8.0,75.0
6283,49.0,30,25,8.0,75.0
6284,84.0,0,115,11.0,108.0
6285,84.0,30,115,10.0,108.0
6286,49.0,30,25,8.0,75.0
6287,49.0,0,25,8.0,75.0
6288,49.0,30,25,8.0,75.0
6289,49.0,30,25,8.0,75.0
6290,85.0,30,115,11.0,108.0
6291,49.0,30,25,8.0,75.0
6292,85.0,0,115,10.0,108.0
6293,49.0,0,25,8.0,75.0
6294,49.0,30,25,8.0,75.0
6295,49.0,30,25,8.0,75.0
6296,80.0,30,115,10.0,108.0
6297,49.0,30,25,8.0,75.0
6298,80.0,0,115,11.0,108.0
6299,49.0,30,25,8.0,75.0
6300,49.0,30,25,8.0,75.0
6301,49.0,30,25,8.0,75.0
6302,81.0,0,115,11.0,108.0
6303,49.0,30,25,8.0,75.0
6304,81.0,0,115,10.0,108.0
6305,49.0,0,25,8.0,75.0
6306,49.0,30,25,8.0,75.0
6307,49.0,30,25,8.0,75.0
6308,49.0,30,25,8.0,75.0
6309,78.0,0,115,10.0,108.0
6310,78.0,30,115,11.0,108.0
6311,49.0,0,25,8.0,75.0
6312,49.0,30,25,8.0,75.0
6313,49.0,30,25,8.0,75.0
6314,49.0,30,25,8.0,75.0
6315,77.0,0,120,10.0,108.0
6316,77.0,30,120,11.0,108.0
6317,49.0,30,25,8.0,75.0
6318,49.0,30,25,8.0,75.0
6319,49.0,30,25,8.0,75.0
6320,80.0,0,115,10.0,108.0
6321,49.0,30,25,8.0,75.0
6322,80.0,0,115,11.0,108.0
6323,49.0,0,25,8.0,75.0
6324,49.0,30,25,8.0,75.0
6325,49.0,30,25,8.0,75.0
6326,77.0,30,115,11.0,108.0
6327,77.0,0,115,10.0,108.0
6328,49.0,30,25,8.0,75.0
6329,49.0,30,25,8.0,75.0
6330,49.0,30,25,8.0,75.0
6331,49.0,30,25,8.0,75.0
6332,73.0,0,115,11.0,108.0
6333,49.0,30,25,8.0,75.0
6334,73.0,0,115,10.0,108.0
6335,49.0,0,25,8.0,75.0
6336,49.0,30,25,8.0,75.0
6337,49.0,30,25,8.0,75.0
6338,49.0,30,25,8.0,75.0
6339,83.0,0,120,10.0,108.0
6340,83.0,30,120,11.0,108.0
6341,49.0,0,25,8.0,75.0
6342,49.0,30,25,8.0,75.0
6343,49.0,30,25,8.0,75.0
6344,49.0,30,25,8.0,75.0
6345,82.0,30,120,11.0,108.0
6346,82.0,0,120,10.0,108.0
6347,49.0,0,25,8.0,75.0
6348,49.0,30,25,8.0,75.0
6349,49.0,30,25,8.0,75.0
6350,83.0,0,115,10.0,108.0
6351,83.0,30,115,11.0,108.0
6352,49.0,30,25,8.0,75.0
6353,49.0,0,25,8.0,75.0
6354,49.0,30,25,8.0,75.0
6355,49.0,30,25,8.0,75.0
6356,82.0,30,115,11.0,108.0
6357,49.0,30,25,8.0,75.0
6358,82.0,0,115,10.0,108.0
6359,49.0,30,25,8.0,75.0
6360,49.0,30,25,8.0,75.0
6361,49.0,30,25,8.0,75.0
6362,83.0,0,115,11.0,108.0
6363,83.0,0,115,10.0,108.0
6364,49.0,30,25,8.0,75.0
6365,49.0,30,25,8.0,75.0
6366,49.0,30,25,8.0,75.0
6367,49.0,30,25,8.0,75.0
6368,80.0,0,115,10.0,108.0
6369,49.0,30,25,8.0,75.0
6370,80.0,0,115,11.0,108.0
6371,49.0,0,25,8.0,75.0
6372,49.0,30,25,8.0,75.0
6373,49.0,30,25,8.0,75.0
6374,81.0,0,115,10.0,108.0
6375,49.0,30,25,8.0,75.0
6376,81.0,30,115,11.0,108.0
6377,49.0,0,25,8.0,75.0
6378,49.0,30,25,8.0,75.0
6379,49.0,30,25,8.0,75.0
6380,49.0,30,25,8.0,75.0
6381,78.0,30,115,10.0,108.0
6382,78.0,0,115,11.0,108.0
6383,49.0,0,25,8.0,75.0
6384,49.0,30,25,8.0,75.0
6385,49.0,30,25,8.0,75.0
6386,49.0,30,25,8.0,75.0
6387,77.0,0,120,11.0,108.0
6388,77.0,30,120,10.0,108.0
6389,49.0,0,25,8.0,75.0
6390,49.0,30,25,8.0,75.0
6391,49.0,30,25,8.0,75.0
6392,80.0,0,115,10.0,108.0
6393,49.0,30,25,8.0,75.0
6394,80.0,30,115,11.0,108.0
6395,49.0,0,25,8.0,75.0
6396,49.0,30,25,8.0,75.0
6397,49.0,30,25,8.0,75.0
6398,49.0,30,25,8.0,75.0
6399,77.0,30,115,10.0,108.0
6400,77.0,0,115,11.0,108.0
6401,49.0,30,25,8.0,75.0
6402,49.0,30,25,8.0,75.0
6403,49.0,30,25,8.0,75.0
6404,49.0,30,25,8.0,75.0
6405,73.0,0,115,11.0,108.0
6406,73.0,0,115,10.0,108.0
6407,49.0,30,25,8.0,75.0
6408,49.0,30,25,8.0,75.0
6409,49.0,30,25,8.0,75.0
6410,49.0,30,25,8.0,75.0
6411,74.0,0,120,11.0,108.0
6412,74.0,0,120,10.0,108.0
6413,49.0,0,25,8.0,75.0
6414,49.0,30,25,8.0,75.0
6415,49.0,30,25,8.0,75.0
6416,49.0,30,25,8.0,75.0
6417,73.0,30,120,10.0,108.0
6418,73.0,0,120,11.0,108.0
6419,49.0,0,25,8.0,75.0
6420,49.0,30,25,8.0,75.0
6421,49.0,30,25,8.0,75.0
6422,74.0,0,115,11.0,108.0
6423,74.0,30,115,10.0,108.0
6424,49.0,30,25,8.0,75.0
6425,49.0,0,25,8.0,75.0
6426,49.0,30,25,8.0,75.0
6427,49.0,30,25,8.0,75.0
6428,49.0,30,25,8.0,75.0
6429,73.0,30,115,10.0,108.0
6430,73.0,0,115,11.0,108.0
6431,49.0,0,25,8.0,75.0
6432,49.0,30,25,8.0,75.0
6433,49.0,30,25,8.0,75.0
6434,49.0,30,25,8.0,75.0
6435,74.0,0,115,11.0,108.0
6436,74.0,30,115,10.0,108.0
6437,49.0,0,25,8.0,75.0
6438,49.0,30,25,8.0,75.0
6439,49.0,30,25,8.0,75.0
6440,68.0,0,115,10.0,108.0
6441,68.0,30,115,11.0,108.0
6442,49.0,30,25,8.0,75.0
6443,49.0,0,25,8.0,75.0
6444,49.0,30,25,8.0,75.0
6445,49.0,30,25,8.0,75.0
6446,69.0,30,115,11.0,108.0
6447,69.0,0,115,10.0,108.0
6448,49.0,30,25,8.0,75.0
6449,49.0,0,25,8.0,75.0
6450,49.0,30,25,8.0,75.0
6451,49.0,30,25,8.0,75.0
6452,66.0,30,115,10.0,108.0
6453,66.0,0,115,11.0,108.0
6454,49.0,30,25,8.0,75.0
6455,65.0,30,120,11.0,108.0
6456,65.0,0,120,10.0,108.0
6457,68.0,120,120,10.0,108.0
6458,68.0,0,120,11.0,108.0
6459,73.0,0,120,11.0,108.0
6460,73.0,120,120,10.0,108.0
6461,56.0,0,4720,6.0,92.0
6462,65.0,0,4720,13.0,92.0
6463,59.0,120,4720,4.0,92.0
6464,56.0,0,4720,4.0,92.0
6465,49.0,0,4720,3.0,92.0
6466,49.0,0,400,8.0,92.0
6467,65.0,0,4720,2.0,92.0
6468,68.0,0,4720,2.0,92.0
6469,68.0,0,4720,4.0,92.0
6470,68.0,0,4720,5.0,92.0
6471,65.0,0,4720,5.0,92.0
6472,37.0,0,4720,7.0,92.0
6473,44.0,0,4720,14.0,92.0
6474,37.0,0,4720,15.0,92.0
6475,65.0,0,4720,4.0,92.0
6476,49.0,0,4720,14.0,92.0
6477,83.0,0,115,10.0,108.0
6478,83.0,120,115,11.0,108.0
6479,83.0,0,115,10.0,108.0
6480,83.0,0,115,11.0,108.0
6481,80.0,0,115,11.0,108.0
6482,80.0,120,115,10.0,108.0
6483,37.0,0,240,7.0,108.0
6484,73.0,0,240,2.0,108.0
6485,37.0,0,240,15.0,108.0
6486,65.0,0,240,2.0,108.0
6487,49.0,0,240,6.0,108.0
6488,41.0,0,240,14.0,108.0
6489,49.0,0,240,14.0,108.0
6490,65.0,0,240,13.0,108.0
6491,65.0,0,240,4.0,108.0
6492,73.0,0,240,5.0,108.0
6493,61.0,0,240,4.0,108.0
6494,65.0,0,240,5.0,108.0
6495,49.0,120,240,3.0,108.0
6496,81.0,0,115,11.0,108.0
6497,81.0,0,115,10.0,108.0
6498,61.0,0,5160,6.0,92.0
6499,65.0,0,5160,6.0,92.0
6500,78.0,0,120,11.0,108.0
6501,66.0,0,240,4.0,108.0
6502,63.0,0,240,4.0,108.0
6503,66.0,0,240,13.0,108.0
6504,39.0,0,240,7.0,108.0
6505,78.0,120,120,10.0,108.0
6506,51.0,0,240,3.0,108.0
6507,75.0,0,240,5.0,108.0
6508,66.0,0,240,5.0,108.0
6509,51.0,0,240,14.0,108.0
6510,75.0,0,240,2.0,108.0
6511,42.0,0,240,14.0,108.0
6512,39.0,0,240,15.0,108.0
6513,51.0,120,240,6.0,108.0
6514,66.0,0,240,2.0,108.0
6515,77.0,0,120,10.0,108.0
6516,77.0,120,120,11.0,108.0
6517,80.0,0,115,11.0,108.0
6518,80.0,120,115,10.0,108.0
6519,61.0,0,5640,12.0,92.0
6520,68.0,0,5640,12.0,92.0
6521,73.0,0,120,11.0,108.0
6522,73.0,120,120,10.0,108.0
6523,65.0,0,400,6.0,127.0
6524,53.0,0,400,6.0,108.0
6525,53.0,0,400,3.0,108.0
6526,44.0,0,400,14.0,108.0
6527,53.0,0,400,14.0,108.0
6528,61.0,0,400,6.0,127.0
6529,65.0,0,400,13.0,108.0
6530,41.0,0,400,15.0,108.0
6531,41.0,0,400,7.0,108.0
6532,71.0,120,115,10.0,108.0
6533,71.0,0,115,11.0,108.0
6534,68.0,0,480,4.0,108.0
6535,77.0,0,480,2.0,108.0
6536,68.0,0,480,2.0,108.0
6537,68.0,0,480,5.0,108.0
6538,65.0,0,480,4.0,108.0
6539,77.0,0,480,5.0,108.0
6540,69.0,0,120,10.0,108.0
6541,69.0,0,120,11.0,108.0
6542,73.0,0,120,11.0,108.0
6543,73.0,120,120,10.0,108.0
6544,78.0,120,120,11.0,108.0
6545,78.0,0,120,10.0,108.0
6546,66.0,120,400,13.0,108.0
6547,61.0,0,400,12.0,92.0
6548,66.0,0,400,4.0,108.0
6549,54.0,0,400,3.0,108.0
6550,42.0,0,400,15.0,108.0
6551,61.0,0,400,4.0,108.0
6552,66.0,0,400,12.0,92.0
6553,69.0,0,400,5.0,108.0
6554,69.0,0,400,2.0,108.0
6555,42.0,0,400,7.0,108.0
6556,73.0,0,400,5.0,108.0
6557,73.0,0,400,2.0,108.0
6558,54.0,0,400,8.0,92.0
6559,54.0,0,400,6.0,127.0
6560,45.0,0,400,14.0,108.0
6561,54.0,0,400,14.0,108.0
6562,85.0,0,115,10.0,108.0
6563,85.0,120,115,11.0,108.0
6564,85.0,0,115,10.0,108.0
6565,85.0,0,115,11.0,108.0
6566,81.0,0,115,10.0,108.0
6567,81.0,120,115,11.0,108.0
6568,66.0,0,240,4.0,108.0
6569,69.0,0,240,5.0,108.0
6570,30.0,0,240,15.0,108.0
6571,66.0,0,240,5.0,108.0
6572,66.0,0,240,2.0,108.0
6573,57.0,120,240,4.0,108.0
6574,42.0,0,240,6.0,108.0
6575,54.0,0,240,14.0,108.0
6576,69.0,0,240,2.0,108.0
6577,57.0,0,240,13.0,108.0
6578,30.0,0,240,7.0,108.0
6579,45.0,0,240,14.0,108.0
6580,66.0,0,240,12.0,92.0
6581,42.0,0,240,3.0,108.0
6582,83.0,0,115,11.0,108.0
6583,83.0,0,115,10.0,108.0
6584,68.0,120,240,4.0,108.0
6585,71.0,0,240,5.0,108.0
6586,68.0,0,240,5.0,108.0
6587,59.0,0,240,4.0,108.0
6588,80.0,120,120,11.0,108.0
6589,32.0,0,240,15.0,108.0
6590,59.0,0,240,13.0,108.0
6591,68.0,0,240,12.0,92.0
6592,44.0,0,240,6.0,108.0
6593,44.0,0,240,3.0,108.0
6594,47.0,0,240,14.0,108.0
6595,56.0,0,240,14.0,108.0
6596,71.0,0,240,2.0,108.0
6597,32.0,0,240,7.0,108.0
6598,68.0,0,240,2.0,108.0
6599,80.0,0,120,10.0,108.0
6600,78.0,0,120,10.0,108.0
6601,78.0,120,120,11.0,108.0
6602,81.0,0,115,11.0,108.0
6603,81.0,120,115,10.0,108.0
6604,74.0,0,120,11.0,108.0
6605,61.0,0,1320,6.0,92.0
6606,66.0,0,1320,6.0,92.0
6607,74.0,120,120,10.0,108.0
6608,73.0,0,400,5.0,108.0
6609,73.0,0,400,2.0,108.0
6610,61.0,0,400,13.0,108.0
6611,33.0,0,400,15.0,108.0
6612,45.0,0,400,6.0,108.0
6613,69.0,0,400,2.0,108.0
6614,33.0,0,400,7.0,108.0
6615,45.0,0,400,3.0,108.0
6616,69.0,0,400,5.0,108.0
6617,49.0,0,400,14.0,108.0
6618,69.0,0,400,12.0,92.0
6619,57.0,0,400,14.0,108.0
6620,73.0,120,115,10.0,108.0
6621,73.0,0,115,11.0,108.0
6622,69.0,0,480,4.0,108.0
6623,61.0,0,480,4.0,108.0
6624,71.0,0,120,11.0,92.0
6625,71.0,0,120,10.0,92.0
6626,74.0,0,120,10.0,92.0
6627,74.0,120,120,11.0,92.0
6628,67.0,0,115,11.0,92.0
6629,67.0,120,115,10.0,92.0
6630,59.0,0,400,6.0,84.0
6631,53.0,0,400,6.0,84.0
6632,62.0,0,400,6.0,84.0
6633,59.0,0,400,14.0,60.0
6634,59.0,0,400,4.0,60.0
6635,74.0,0,400,2.0,60.0
6636,41.0,0,400,7.0,60.0
6637,59.0,0,400,12.0,84.0
6638,67.0,0,400,12.0,84.0
6639,62.0,0,400,13.0,84.0
6640,65.0,120,400,2.0,60.0
6641,41.0,0,400,15.0,60.0
6642,62.0,0,400,4.0,60.0
6643,67.0,0,400,4.0,60.0
6644,53.0,0,400,14.0,60.0
6645,65.0,0,400,5.0,60.0
6646,53.0,0,400,3.0,60.0
6647,74.0,0,400,5.0,60.0
6648,66.0,120,115,10.0,92.0
6649,66.0,0,115,11.0,92.0
6650,65.0,0,120,11.0,92.0
6651,65.0,0,120,10.0,92.0
6652,68.0,120,115,11.0,92.0
6653,68.0,0,115,10.0,92.0
6654,61.0,120,115,10.0,92.0
6655,61.0,0,115,11.0,92.0
6656,65.0,0,400,6.0,84.0
6657,61.0,0,400,6.0,84.0
6658,37.0,0,400,15.0,60.0
6659,61.0,0,400,4.0,60.0
6660,49.0,0,400,14.0,60.0
6661,49.0,0,400,3.0,60.0
6662,65.0,0,400,13.0,84.0
6663,56.0,0,400,4.0,60.0
6664,67.0,0,400,4.0,60.0
6665,65.0,0,400,4.0,60.0
6666,37.0,0,400,7.0,60.0
6667,77.0,0,400,2.0,60.0
6668,49.0,0,400,6.0,84.0
6669,67.0,0,400,12.0,84.0
6670,61.0,0,400,12.0,84.0
6671,56.0,0,400,14.0,60.0
6672,68.0,0,400,5.0,60.0
6673,77.0,0,400,5.0,60.0
6674,68.0,120,400,2.0,60.0
6675,59.0,0,115,10.0,92.0
6676,59.0,120,115,11.0,92.0
6677,57.0,0,120,10.0,92.0
6678,57.0,0,120,11.0,92.0
6679,61.0,0,115,11.0,92.0
6680,61.0,120,115,10.0,92.0
6681,66.0,120,115,11.0,92.0
6682,66.0,0,115,10.0,92.0
6683,61.0,0,400,4.0,60.0
6684,42.0,0,400,15.0,60.0
6685,78.0,0,400,2.0,60.0
6686,69.0,0,400,5.0,60.0
6687,77.0,0,400,5.0,60.0
6688,69.0,0,400,4.0,60.0
6689,54.0,0,400,6.0,84.0
6690,61.0,0,400,6.0,84.0
6691,54.0,0,400,14.0,60.0
6692,45.0,0,400,14.0,60.0
6693,57.0,0,400,6.0,84.0
6694,61.0,120,400,12.0,84.0
6695,66.0,0,400,12.0,84.0
6696,66.0,0,400,4.0,60.0
6697,42.0,0,400,7.0,60.0
6698,57.0,0,400,4.0,60.0
6699,54.0,0,400,3.0,60.0
6700,69.0,0,400,2.0,60.0
6701,57.0,0,400,13.0,84.0
6702,68.0,120,115,10.0,92.0
6703,68.0,0,115,11.0,92.0
6704,69.0,0,120,10.0,75.0
6705,69.0,0,120,11.0,75.0
6706,66.0,120,115,10.0,75.0
6707,66.0,0,115,11.0,75.0
6708,71.0,0,120,11.0,75.0
6709,71.0,120,120,10.0,75.0
6710,61.0,0,400,6.0,84.0
6711,78.0,0,400,2.0,60.0
6712,54.0,0,400,6.0,84.0
6713,45.0,0,400,14.0,60.0
6714,57.0,0,400,13.0,84.0
6715,54.0,0,400,14.0,60.0
6716,61.0,0,400,4.0,60.0
6717,57.0,0,400,4.0,60.0
6718,61.0,0,400,12.0,84.0
6719,42.0,0,400,15.0,60.0
6720,69.0,0,400,5.0,60.0
6721,66.0,0,400,12.0,84.0
6722,78.0,0,400,5.0,60.0
6723,69.0,0,400,2.0,60.0
6724,54.0,0,400,3.0,60.0
6725,57.0,0,400,6.0,84.0
6726,42.0,0,400,7.0,60.0
6727,69.0,0,400,4.0,60.0
6728,66.0,120,400,4.0,60.0
6729,66.0,120,115,11.0,75.0
6730,66.0,0,115,10.0,75.0
6731,73.0,0,120,10.0,75.0
6732,73.0,0,120,11.0,75.0
6733,66.0,120,115,10.0,75.0
6734,66.0,0,115,11.0,75.0
6735,74.0,0,120,11.0,75.0
6736,74.0,120,120,10.0,75.0
6737,78.0,0,400,5.0,60.0
6738,68.0,0,400,5.0,60.0
6739,37.0,0,400,7.0,60.0
6740,37.0,0,400,15.0,60.0
6741,68.0,0,400,4.0,60.0
6742,68.0,120,400,2.0,60.0
6743,49.0,0,400,3.0,60.0
6744,66.0,0,400,4.0,60.0
6745,44.0,0,400,14.0,60.0
6746,61.0,0,400,4.0,60.0
6747,56.0,0,400,4.0,60.0
6748,66.0,0,400,12.0,84.0
6749,49.0,0,400,6.0,84.0
6750,61.0,0,400,12.0,84.0
6751,68.0,0,400,13.0,84.0
6752,49.0,0,400,14.0,60.0
6753,78.0,0,400,2.0,60.0
6754,57.0,0,400,6.0,84.0
6755,56.0,0,400,6.0,84.0
6756,66.0,120,115,11.0,75.0
6757,66.0,0,115,10.0,75.0
6758,61.0,0,120,10.0,75.0
6759,61.0,0,120,11.0,75.0
6760,66.0,120,120,10.0,75.0
6761,66.0,0,120,11.0,75.0
6762,68.0,0,80,11.0,75.0
6763,68.0,120,80,10.0,75.0
6764,61.0,0,400,4.0,60.0
6765,56.0,0,400,4.0,60.0
6766,49.0,0,400,3.0,60.0
6767,56.0,0,400,12.0,84.0
6768,65.0,0,400,12.0,84.0
6769,44.0,120,400,14.0,60.0
6770,56.0,0,400,6.0,84.0
6771,49.0,0,400,6.0,84.0
6772,68.0,0,400,13.0,84.0
6773,65.0,0,400,6.0,84.0
6774,49.0,0,400,14.0,60.0
6775,68.0,0,400,4.0,60.0
6776,65.0,0,400,4.0,60.0
6777,37.0,0,400,7.0,60.0
6778,37.0,0,400,15.0,60.0
6779,77.0,0,400,2.0,60.0
6780,68.0,0,400,2.0,60.0
6781,77.0,0,400,5.0,60.0
6782,68.0,0,400,5.0,60.0
6783,65.0,120,80,10.0,75.0
6784,65.0,0,80,11.0,75.0
6785,66.0,0,80,11.0,60.0
6786,66.0,0,80,10.0,60.0
6787,69.0,120,115,11.0,60.0
6788,69.0,0,115,10.0,60.0
6789,78.0,0,240,1.0,45.0
6790,66.0,0,240,2.0,45.0
6791,66.0,0,240,4.0,45.0
6792,90.0,0,240,0.0,45.0
6793,78.0,0,240,2.0,45.0
6794,68.0,0,120,11.0,60.0
6795,68.0,120,120,10.0,60.0
6796,69.0,120,115,11.0,60.0
6797,69.0,0,115,10.0,60.0
6798,80.0,0,240,2.0,45.0
6799,80.0,0,240,1.0,45.0
6800,92.0,0,240,0.0,45.0
6801,68.0,0,240,2.0,45.0
6802,68.0,0,240,4.0,45.0
6803,69.0,0,120,11.0,60.0
6804,69.0,120,0,10.0,60.0
6805,69.0,0,115,11.0,60.0
6806,69.0,0,240,4.0,45.0
6807,69.0,0,240,2.0,45.0
6808,93.0,0,240,0.0,45.0
6809,81.0,0,240,1.0,45.0
6810,81.0,0,240,2.0,45.0
6811,68.0,0,120,11.0,60.0
6812,68.0,120,120,10.0,60.0
6813,69.0,0,115,10.0,60.0
6814,69.0,120,115,11.0,60.0
6815,68.0,0,240,2.0,45.0
6816,68.0,0,240,4.0,45.0
6817,80.0,0,240,2.0,45.0
6818,92.0,0,240,0.0,45.0
6819,80.0,0,240,1.0,45.0
6820,66.0,0,120,10.0,60.0
6821,66.0,120,120,11.0,60.0
6822,69.0,0,115,11.0,60.0
6823,69.0,120,115,10.0,60.0
6824,66.0,0,240,2.0,45.0
6825,78.0,0,240,2.0,45.0
6826,66.0,0,240,4.0,45.0
6827,90.0,0,240,0.0,45.0
6828,78.0,0,240,1.0,45.0
6829,64.0,0,120,11.0,60.0
6830,64.0,120,120,10.0,60.0
6831,69.0,120,115,11.0,60.0
6832,69.0,0,115,10.0,60.0
6833,64.0,0,240,2.0,45.0
6834,61.0,0,1440,4.0,45.0
6835,76.0,0,240,1.0,45.0
6836,57.0,0,1440,4.0,45.0
6837,57.0,120,1440,6.0,45.0
6838,64.0,0,240,4.0,45.0
6839,76.0,0,240,2.0,45.0
6840,88.0,0,240,0.0,45.0
6841,69.0,0,1440,5.0,45.0
6842,66.0,0,1440,5.0,45.0
6843,61.0,0,1440,6.0,45.0
6844,63.0,120,120,10.0,60.0
6845,63.0,0,120,11.0,60.0
6846,69.0,120,115,10.0,60.0
6847,69.0,0,115,11.0,60.0
6848,63.0,0,240,2.0,45.0
6849,63.0,0,240,4.0,45.0
6850,75.0,0,240,2.0,45.0
6851,87.0,0,240,0.0,45.0
6852,75.0,0,240,1.0,45.0
6853,64.0,0,120,10.0,60.0
6854,64.0,0,120,11.0,60.0
6855,69.0,0,115,11.0,60.0
6856,69.0,120,115,10.0,60.0
6857,76.0,0,240,1.0,45.0
6858,76.0,0,240,2.0,45.0
6859,64.0,120,240,4.0,45.0
6860,88.0,0,240,0.0,45.0
6861,64.0,0,240,2.0,45.0
6862,66.0,0,120,11.0,60.0
6863,66.0,0,120,10.0,60.0
6864,69.0,120,115,11.0,60.0
6865,69.0,0,115,10.0,60.0
6866,66.0,0,240,2.0,45.0
6867,78.0,0,240,1.0,45.0
6868,66.0,120,240,4.0,45.0
6869,78.0,0,240,2.0,45.0
6870,90.0,0,240,0.0,45.0
6871,68.0,0,120,10.0,60.0
6872,68.0,0,120,11.0,60.0
6873,69.0,120,115,11.0,60.0
6874,69.0,0,115,10.0,60.0
6875,92.0,0,240,0.0,45.0
6876,80.0,0,240,1.0,45.0
6877,68.0,120,240,2.0,45.0
6878,80.0,0,240,2.0,45.0
6879,68.0,0,240,4.0,45.0
6880,69.0,120,0,10.0,60.0
6881,69.0,0,120,11.0,60.0
6882,69.0,0,115,11.0,60.0
6883,69.0,0,240,2.0,45.0
6884,81.0,0,240,2.0,45.0
6885,81.0,0,240,1.0,45.0
6886,93.0,120,240,0.0,45.0
6887,69.0,0,240,4.0,45.0
6888,66.0,0,120,11.0,60.0
6889,66.0,0,120,10.0,60.0
6890,69.0,120,115,11.0,60.0
6891,69.0,0,115,10.0,60.0
6892,78.0,0,240,2.0,45.0
6893,42.0,0,2880,7.0,45.0
6894,61.0,0,2880,12.0,45.0
6895,66.0,0,240,2.0,45.0
6896,61.0,0,1440,6.0,45.0
6897,66.0,0,240,4.0,45.0
6898,54.0,0,2880,14.0,45.0
6899,45.0,0,2880,14.0,45.0
6900,78.0,0,240,1.0,45.0
6901,54.0,0,2880,3.0,45.0
6902,57.0,0,1440,6.0,45.0
6903,90.0,120,240,0.0,45.0
6904,42.0,0,2880,15.0,45.0
6905,69.0,0,1440,5.0,45.0
6906,64.0,0,1440,5.0,45.0
6907,57.0,0,1440,4.0,45.0
6908,54.0,0,1440,4.0,45.0
6909,54.0,0,2880,13.0,45.0
6910,57.0,0,2880,13.0,45.0
6911,42.0,0,2880,6.0,45.0
6912,68.0,0,120,10.0,60.0
6913,68.0,0,120,11.0,60.0
6914,69.0,120,120,11.0,60.0
6915,69.0,0,120,10.0,60.0
6916,68.0,0,115,10.0,60.0
6917,68.0,120,115,11.0,60.0
6918,68.0,0,400,4.0,45.0
6919,66.0,0,115,11.0,60.0
6920,66.0,120,115,10.0,60.0
6921,68.0,0,480,2.0,45.0
6922,92.0,0,480,0.0,45.0
6923,80.0,0,480,1.0,45.0
6924,80.0,120,480,2.0,45.0
6925,64.0,0,120,11.0,60.0
6926,64.0,0,120,10.0,60.0
6927,76.0,120,115,11.0,60.0
6928,76.0,0,115,10.0,60.0
6929,76.0,0,240,1.0,45.0
6930,76.0,0,240,2.0,45.0
6931,64.0,120,240,2.0,45.0
6932,88.0,0,240,0.0,45.0
6933,64.0,0,240,4.0,45.0
6934,75.0,120,120,10.0,60.0
6935,75.0,0,120,11.0,60.0
6936,76.0,0,115,10.0,60.0
6937,76.0,120,115,11.0,60.0
6938,63.0,0,240,2.0,45.0
6939,75.0,0,240,1.0,45.0
6940,75.0,0,240,2.0,45.0
6941,63.0,0,240,4.0,45.0
6942,87.0,0,240,0.0,45.0
6943,73.0,0,120,11.0,60.0
6944,73.0,0,120,10.0,60.0
6945,76.0,120,115,11.0,60.0
6946,76.0,0,115,10.0,60.0
6947,73.0,0,240,2.0,45.0
6948,61.0,0,240,2.0,45.0
6949,61.0,0,240,4.0,45.0
6950,73.0,120,240,1.0,45.0
6951,85.0,0,240,0.0,45.0
6952,71.0,0,120,10.0,60.0
6953,71.0,120,120,11.0,60.0
6954,76.0,120,115,10.0,60.0
6955,76.0,0,115,11.0,60.0
6956,56.0,0,1440,13.0,45.0
6957,52.0,0,1440,13.0,45.0
6958,59.0,0,240,4.0,45.0
6959,56.0,0,1440,4.0,45.0
6960,71.0,0,240,1.0,45.0
6961,52.0,0,1440,4.0,45.0
6962,40.0,0,1440,6.0,45.0
6963,68.0,0,1440,5.0,45.0
6964,40.0,0,1440,7.0,45.0
6965,52.0,0,1440,3.0,45.0
6966,47.0,0,1440,14.0,45.0
6967,52.0,0,1440,14.0,45.0
6968,56.0,0,1440,6.0,45.0
6969,83.0,0,240,0.0,45.0
6970,59.0,0,1440,6.0,45.0
6971,59.0,0,240,2.0,45.0
6972,40.0,0,1440,15.0,45.0
6973,59.0,0,1440,12.0,45.0
6974,64.0,0,1440,5.0,45.0
6975,71.0,0,240,2.0,45.0
6976,70.0,0,120,10.0,60.0
6977,70.0,0,120,11.0,60.0
6978,76.0,120,115,10.0,60.0
6979,76.0,0,115,11.0,60.0
6980,82.0,0,240,0.0,45.0
6981,70.0,0,240,2.0,45.0
6982,58.0,0,240,4.0,45.0
6983,70.0,0,240,1.0,45.0
6984,58.0,0,240,2.0,45.0
6985,71.0,0,120,11.0,60.0
6986,71.0,120,120,10.0,60.0
6987,76.0,120,115,11.0,60.0
6988,76.0,0,115,10.0,60.0
6989,83.0,0,240,0.0,45.0
6990,71.0,0,240,2.0,45.0
6991,59.0,0,240,2.0,45.0
6992,59.0,0,240,4.0,45.0
6993,71.0,0,240,1.0,45.0
6994,73.0,0,120,10.0,60.0
6995,73.0,0,120,11.0,60.0
6996,76.0,0,115,10.0,60.0
6997,76.0,120,115,11.0,60.0
6998,85.0,0,240,0.0,45.0
6999,73.0,0,240,1.0,45.0
7000,61.0,120,240,2.0,45.0
7001,73.0,0,240,2.0,45.0
7002,61.0,0,240,4.0,45.0
7003,75.0,0,120,10.0,60.0
7004,75.0,0,120,11.0,60.0
7005,76.0,120,115,11.0,60.0
7006,76.0,0,115,10.0,60.0
7007,75.0,0,240,2.0,45.0
7008,87.0,0,240,0.0,45.0
7009,75.0,0,240,1.0,45.0
7010,63.0,120,240,2.0,45.0
7011,63.0,0,240,4.0,45.0
7012,76.0,0,0,10.0,60.0
7013,76.0,120,0,11.0,60.0
7014,76.0,0,240,2.0,45.0
7015,88.0,0,240,0.0,45.0
7016,64.0,0,240,2.0,45.0
7017,76.0,120,240,1.0,45.0
7018,64.0,0,240,4.0,45.0
7019,73.0,0,120,11.0,60.0
7020,73.0,0,120,10.0,60.0
7021,76.0,0,115,10.0,60.0
7022,76.0,120,115,11.0,60.0
7023,61.0,120,240,2.0,45.0
7024,85.0,0,240,0.0,45.0
7025,70.0,0,1440,5.0,45.0
7026,42.0,0,1440,15.0,45.0
7027,61.0,0,240,4.0,45.0
7028,66.0,0,1440,5.0,45.0
7029,58.0,0,1440,13.0,45.0
7030,54.0,0,1440,3.0,45.0
7031,73.0,0,240,2.0,45.0
7032,58.0,0,1440,6.0,45.0
7033,61.0,0,1440,6.0,45.0
7034,54.0,0,1440,14.0,45.0
7035,45.0,0,1440,14.0,45.0
7036,42.0,0,1440,6.0,45.0
7037,70.0,120,1440,4.0,45.0
7038,54.0,0,1440,4.0,45.0
7039,42.0,0,1440,7.0,45.0
7040,73.0,0,240,1.0,45.0
7041,64.0,0,1440,12.0,45.0
7042,61.0,0,1440,13.0,45.0
7043,75.0,0,120,11.0,60.0
7044,75.0,0,120,10.0,60.0
7045,76.0,0,120,10.0,64.0
7046,76.0,120,120,11.0,64.0
7047,75.0,120,80,11.0,68.0
7048,75.0,0,80,10.0,68.0
7049,73.0,0,80,11.0,72.0
7050,73.0,120,80,10.0,72.0
7051,71.0,0,80,10.0,76.0
7052,71.0,120,80,11.0,76.0
7053,73.0,0,80,10.0,80.0
7054,73.0,120,80,11.0,80.0
7055,75.0,0,80,11.0,84.0
7056,75.0,120,80,10.0,84.0
7057,76.0,120,80,11.0,88.0
7058,76.0,0,80,10.0,88.0
7059,78.0,120,80,11.0,92.0
7060,78.0,0,80,10.0,92.0
7061,80.0,0,80,10.0,96.0
7062,80.0,120,80,11.0,96.0
7063,81.0,0,80,11.0,100.0
7064,81.0,120,80,10.0,100.0
7065,66.0,0,1320,4.0,45.0
7066,47.0,0,1320,14.0,45.0
7067,66.0,0,1320,12.0,45.0
7068,63.0,0,1320,4.0,45.0
7069,71.0,0,1320,5.0,45.0
7070,59.0,0,1320,4.0,45.0
7071,35.0,0,1320,15.0,45.0
7072,63.0,120,1320,5.0,45.0
7073,63.0,0,1320,6.0,45.0
7074,54.0,0,1320,14.0,45.0
7075,59.0,0,1320,6.0,45.0
7076,75.0,0,1320,2.0,45.0
7077,87.0,0,1320,0.0,45.0
7078,63.0,0,1320,2.0,45.0
7079,35.0,0,1320,7.0,45.0
7080,47.0,0,1320,6.0,45.0
7081,63.0,0,1320,13.0,45.0
7082,75.0,0,1320,1.0,45.0
7083,59.0,0,1320,13.0,45.0
7084,47.0,0,1320,3.0,45.0
7085,78.0,120,80,11.0,104.0
7086,78.0,0,80,10.0,104.0
7087,83.0,0,115,10.0,108.0
7088,83.0,0,115,11.0,108.0
7089,71.0,0,240,4.0,45.0
7090,71.0,120,240,5.0,45.0
7091,80.0,0,240,5.0,45.0
7092,80.0,0,240,2.0,45.0
7093,71.0,0,120,10.0,60.0
7094,80.0,0,240,1.0,45.0
7095,71.0,0,240,2.0,45.0
7096,83.0,0,240,1.0,45.0
7097,68.0,0,240,6.0,45.0
7098,68.0,0,240,4.0,45.0
7099,83.0,0,240,0.0,45.0
7100,80.0,0,240,0.0,45.0
7101,71.0,120,120,11.0,60.0
7102,59.0,0,240,6.0,45.0
7103,69.0,0,115,10.0,60.0
7104,69.0,0,115,11.0,60.0
7105,69.0,0,240,4.0,45.0
7106,66.0,0,240,6.0,45.0
7107,71.0,0,120,11.0,60.0
7108,57.0,0,240,6.0,45.0
7109,66.0,0,480,12.0,45.0
7110,78.0,0,240,2.0,45.0
7111,69.0,120,240,2.0,45.0
7112,59.0,0,480,13.0,45.0
7113,78.0,0,240,5.0,45.0
7114,69.0,0,240,5.0,45.0
7115,78.0,0,240,1.0,45.0
7116,63.0,0,480,13.0,45.0
7117,81.0,0,240,1.0,45.0
7118,78.0,0,240,0.0,45.0
7119,71.0,120,120,10.0,60.0
7120,66.0,0,240,4.0,45.0
7121,81.0,0,240,0.0,45.0
7122,68.0,0,115,10.0,60.0
7123,68.0,0,115,11.0,60.0
7124,80.0,0,240,0.0,45.0
7125,80.0,0,240,1.0,45.0
7126,76.0,0,240,1.0,45.0
7127,71.0,0,120,11.0,60.0
7128,76.0,0,240,2.0,45.0
7129,68.0,0,240,2.0,45.0
7130,76.0,0,240,0.0,45.0
7131,68.0,0,240,4.0,45.0
7132,68.0,0,240,5.0,45.0
7133,56.0,0,240,6.0,45.0
7134,64.0,120,240,6.0,45.0
7135,64.0,0,240,4.0,45.0
7136,71.0,120,120,10.0,60.0
7137,76.0,0,240,5.0,45.0
7138,66.0,0,115,10.0,60.0
7139,66.0,120,115,11.0,60.0
7140,74.0,0,240,1.0,45.0
7141,62.0,0,240,4.0,45.0
7142,71.0,0,120,10.0,60.0
7143,62.0,0,240,6.0,45.0
7144,54.0,0,240,6.0,45.0
7145,71.0,120,120,11.0,60.0
7146,51.0,0,480,13.0,45.0
7147,54.0,0,480,13.0,45.0
7148,78.0,0,240,1.0,45.0
7149,66.0,0,240,2.0,45.0
7150,66.0,0,240,4.0,45.0
7151,78.0,0,240,0.0,45.0
7152,74.0,0,240,0.0,45.0
7153,74.0,0,240,2.0,45.0
7154,66.0,0,240,5.0,45.0
7155,74.0,0,240,5.0,45.0
7156,64.0,0,115,10.0,60.0
7157,64.0,0,115,11.0,60.0
7158,61.0,0,240,6.0,45.0
7159,52.0,0,240,6.0,45.0
7160,76.0,0,240,1.0,45.0
7161,71.0,0,120,10.0,60.0
7162,73.0,0,240,1.0,45.0
7163,64.0,0,240,2.0,45.0
7164,71.0,120,120,11.0,60.0
7165,61.0,0,240,4.0,45.0
7166,73.0,0,240,2.0,45.0
7167,64.0,0,240,4.0,45.0
7168,73.0,0,240,0.0,45.0
7169,64.0,0,240,5.0,45.0
7170,76.0,120,240,0.0,45.0
7171,73.0,0,240,5.0,45.0
7172,62.0,0,115,11.0,60.0
7173,62.0,0,115,10.0,60.0
7174,35.0,0,1320,7.0,45.0
7175,71.0,120,115,11.0,60.0
7176,71.0,0,115,10.0,60.0
7177,47.0,0,1440,3.0,45.0
7178,62.0,0,240,4.0,45.0
7179,71.0,0,240,2.0,45.0
7180,35.0,0,1440,15.0,45.0
7181,59.0,0,240,4.0,45.0
7182,47.0,0,1440,14.0,45.0
7183,54.0,0,1440,14.0,45.0
7184,71.0,0,240,1.0,45.0
7185,74.0,0,240,1.0,45.0
7186,59.0,0,240,6.0,45.0
7187,50.0,120,240,6.0,45.0
7188,62.0,0,240,2.0,45.0
7189,71.0,0,240,0.0,45.0
7190,62.0,0,240,5.0,45.0
7191,59.0,0,960,12.0,45.0
7192,71.0,0,240,5.0,45.0
7193,74.0,0,240,0.0,45.0
7194,51.0,0,480,13.0,45.0
7195,47.0,0,1440,6.0,45.0
7196,53.0,0,480,13.0,45.0
7197,61.0,0,120,11.0,60.0
7198,61.0,0,120,10.0,60.0
7199,64.0,120,80,10.0,64.0
7200,64.0,0,80,11.0,64.0
7201,66.0,0,80,11.0,68.0
7202,66.0,120,80,10.0,68.0
7203,45.0,120,400,3.0,45.0
7204,57.0,0,400,12.0,45.0
7205,33.0,0,400,15.0,45.0
7206,52.0,0,400,13.0,45.0
7207,33.0,0,400,7.0,45.0
7208,45.0,0,400,6.0,45.0
7209,52.0,0,400,14.0,45.0
7210,45.0,0,400,14.0,45.0
7211,68.0,120,80,10.0,72.0
7212,68.0,0,80,11.0,72.0
7213,69.0,0,80,11.0,76.0
7214,69.0,0,80,10.0,76.0
7215,71.0,0,80,10.0,80.0
7216,71.0,120,80,11.0,80.0
7217,73.0,120,80,11.0,84.0
7218,73.0,0,80,10.0,84.0
7219,57.0,0,400,13.0,63.0
7220,37.0,0,400,15.0,45.0
7221,37.0,0,400,7.0,45.0
7222,61.0,0,400,12.0,63.0
7223,49.0,0,400,6.0,63.0
7224,49.0,0,400,3.0,45.0
7225,49.0,120,400,14.0,45.0
7226,74.0,0,80,11.0,88.0
7227,74.0,120,80,10.0,88.0
7228,76.0,0,80,11.0,92.0
7229,76.0,0,80,10.0,92.0
7230,78.0,0,80,10.0,96.0
7231,78.0,120,80,11.0,96.0
7232,80.0,0,80,11.0,100.0
7233,80.0,120,80,10.0,100.0
7234,64.0,0,1320,2.0,45.0
7235,69.0,0,1320,0.0,45.0
7236,73.0,0,1320,0.0,45.0
7237,64.0,0,1320,4.0,45.0
7238,52.0,0,1320,4.0,45.0
7239,69.0,0,1320,1.0,45.0
7240,61.0,0,1320,5.0,45.0
7241,61.0,0,1320,4.0,45.0
7242,69.0,0,1320,5.0,45.0
7243,73.0,0,1320,1.0,45.0
7244,73.0,0,1320,2.0,45.0
7245,57.0,0,1320,4.0,45.0
7246,57.0,0,1320,6.0,45.0
7247,52.0,0,400,3.0,45.0
7248,64.0,0,400,12.0,63.0
7249,61.0,0,400,13.0,63.0
7250,52.0,0,400,6.0,63.0
7251,52.0,0,400,14.0,45.0
7252,40.0,120,400,7.0,45.0
7253,40.0,0,400,15.0,45.0
7254,76.0,0,80,11.0,104.0
7255,76.0,120,80,10.0,104.0
7256,81.0,0,115,10.0,108.0
7257,81.0,0,115,11.0,108.0
7258,69.0,120,115,10.0,60.0
7259,69.0,0,115,11.0,60.0
7260,78.0,0,240,5.0,45.0
7261,69.0,0,240,5.0,45.0
7262,78.0,0,240,1.0,45.0
7263,69.0,120,240,4.0,45.0
7264,78.0,0,240,0.0,45.0
7265,78.0,0,240,2.0,45.0
7266,66.0,0,240,6.0,45.0
7267,81.0,0,240,1.0,45.0
7268,57.0,0,240,6.0,45.0
7269,66.0,0,240,4.0,45.0
7270,69.0,0,240,2.0,45.0
7271,81.0,0,240,0.0,45.0
7272,68.0,0,120,11.0,60.0
7273,68.0,0,120,10.0,60.0
7274,61.0,0,400,13.0,45.0
7275,69.0,0,400,12.0,45.0
7276,64.0,0,400,13.0,45.0
7277,69.0,0,115,10.0,60.0
7278,69.0,120,115,11.0,60.0
7279,76.0,0,240,1.0,45.0
7280,76.0,120,240,0.0,45.0
7281,80.0,0,240,0.0,45.0
7282,76.0,0,240,5.0,45.0
7283,80.0,0,240,1.0,45.0
7284,68.0,0,240,5.0,45.0
7285,64.0,0,240,4.0,45.0
7286,68.0,0,240,4.0,45.0
7287,64.0,0,240,6.0,45.0
7288,56.0,0,240,6.0,45.0
7289,68.0,0,240,2.0,45.0
7290,76.0,0,240,2.0,45.0
7291,66.0,0,120,10.0,60.0
7292,66.0,0,120,11.0,60.0
7293,69.0,120,115,10.0,60.0
7294,69.0,0,115,11.0,60.0
7295,63.0,0,240,6.0,45.0
7296,66.0,0,240,5.0,45.0
7297,75.0,0,240,5.0,45.0
7298,63.0,0,240,4.0,45.0
7299,78.0,0,240,1.0,45.0
7300,75.0,0,240,1.0,45.0
7301,54.0,0,240,6.0,45.0
7302,66.0,0,240,2.0,45.0
7303,75.0,0,240,2.0,45.0
7304,75.0,0,240,0.0,45.0
7305,78.0,120,240,0.0,45.0
7306,66.0,0,240,4.0,45.0
7307,64.0,0,120,10.0,60.0
7308,64.0,0,120,11.0,60.0
7309,69.0,120,115,10.0,60.0
7310,69.0,0,115,11.0,60.0
7311,73.0,0,240,2.0,45.0
7312,61.0,0,240,6.0,45.0
7313,52.0,0,240,6.0,45.0
7314,73.0,120,240,5.0,45.0
7315,64.0,0,240,4.0,45.0
7316,64.0,0,240,5.0,45.0
7317,61.0,0,240,4.0,45.0
7318,64.0,0,240,2.0,45.0
7319,73.0,0,240,0.0,45.0
7320,76.0,0,240,0.0,45.0
7321,76.0,0,240,1.0,45.0
7322,73.0,0,240,1.0,45.0
7323,63.0,0,120,10.0,60.0
7324,63.0,0,120,11.0,60.0
7325,69.0,0,115,10.0,60.0
7326,69.0,120,115,11.0,60.0
7327,71.0,0,240,1.0,45.0
7328,71.0,0,240,0.0,45.0
7329,59.0,0,240,4.0,45.0
7330,75.0,0,240,0.0,45.0
7331,63.0,0,240,5.0,45.0
7332,63.0,0,240,4.0,45.0
7333,71.0,120,240,2.0,45.0
7334,71.0,0,240,5.0,45.0
7335,75.0,0,240,1.0,45.0
7336,63.0,0,240,2.0,45.0
7337,51.0,0,240,6.0,45.0
7338,59.0,0,240,6.0,45.0
7339,61.0,0,120,10.0,60.0
7340,61.0,0,120,11.0,60.0
7341,69.0,120,115,10.0,60.0
7342,69.0,0,115,11.0,60.0
7343,69.0,0,240,2.0,45.0
7344,69.0,0,240,0.0,45.0
7345,57.0,0,240,6.0,45.0
7346,52.0,0,1440,14.0,45.0
7347,45.0,0,1440,3.0,45.0
7348,33.0,0,1440,7.0,45.0
7349,69.0,0,240,5.0,45.0
7350,61.0,0,240,5.0,45.0
7351,61.0,0,240,4.0,45.0
7352,45.0,0,1440,6.0,45.0
7353,45.0,0,1440,14.0,45.0
7354,73.0,0,240,0.0,45.0
7355,49.0,0,960,13.0,45.0
7356,33.0,0,1440,15.0,45.0
7357,57.0,0,960,12.0,45.0
7358,52.0,0,960,13.0,45.0
7359,49.0,0,240,6.0,45.0
7360,61.0,0,240,2.0,45.0
7361,73.0,0,240,1.0,45.0
7362,69.0,0,240,1.0,45.0
7363,57.0,120,240,4.0,45.0
7364,59.0,0,120,10.0,60.0
7365,59.0,0,120,11.0,60.0
7366,63.0,120,80,10.0,64.0
7367,63.0,0,80,11.0,64.0
7368,64.0,0,80,11.0,68.0
7369,64.0,120,80,10.0,68.0
7370,59.0,0,400,12.0,45.0
7371,35.0,0,400,7.0,45.0
7372,47.0,0,400,3.0,45.0
7373,54.0,0,400,13.0,45.0
7374,47.0,0,400,14.0,45.0
7375,47.0,0,400,6.0,45.0
7376,35.0,0,400,15.0,45.0
7377,54.0,0,400,14.0,45.0
7378,66.0,0,80,10.0,72.0
7379,66.0,120,80,11.0,72.0
7380,68.0,0,80,11.0,76.0
7381,68.0,120,80,10.0,76.0
7382,69.0,120,80,10.0,80.0
7383,69.0,0,80,11.0,80.0
7384,71.0,0,80,11.0,84.0
7385,71.0,120,80,10.0,84.0
7386,51.0,0,400,14.0,45.0
7387,51.0,0,400,6.0,63.0
7388,39.0,0,400,15.0,45.0
7389,59.0,0,400,13.0,84.0
7390,63.0,0,400,12.0,84.0
7391,51.0,0,400,3.0,45.0
7392,39.0,0,400,7.0,45.0
7393,73.0,120,80,10.0,88.0
7394,73.0,0,80,11.0,88.0
7395,75.0,0,80,11.0,92.0
7396,75.0,0,80,10.0,92.0
7397,76.0,120,80,10.0,96.0
7398,76.0,0,80,11.0,96.0
7399,78.0,0,80,10.0,100.0
7400,78.0,120,80,11.0,100.0
7401,63.0,0,1320,5.0,45.0
7402,51.0,0,1320,4.0,45.0
7403,63.0,0,1320,4.0,45.0
7404,71.0,0,1320,1.0,45.0
7405,71.0,0,1320,0.0,45.0
7406,66.0,120,1320,0.0,45.0
7407,59.0,0,1320,6.0,45.0
7408,71.0,0,1320,2.0,45.0
7409,59.0,0,1320,4.0,45.0
7410,66.0,0,1320,1.0,45.0
7411,54.0,0,1320,4.0,45.0
7412,63.0,0,1320,2.0,45.0
7413,71.0,0,1320,5.0,45.0
7414,63.0,120,400,13.0,106.0
7415,42.0,0,400,7.0,45.0
7416,54.0,0,400,3.0,45.0
7417,54.0,0,400,6.0,63.0
7418,54.0,0,400,14.0,45.0
7419,42.0,0,400,15.0,45.0
7420,66.0,0,400,12.0,106.0
7421,75.0,0,80,10.0,104.0
7422,75.0,120,80,11.0,104.0
7423,80.0,0,115,11.0,108.0
7424,80.0,0,115,10.0,108.0
7425,64.0,0,115,11.0,60.0
7426,64.0,120,115,10.0,60.0
7427,64.0,120,240,6.0,60.0
7428,76.0,0,240,5.0,60.0
7429,73.0,0,240,5.0,60.0
7430,76.0,0,240,2.0,60.0
7431,64.0,0,240,4.0,60.0
7432,73.0,0,240,2.0,60.0
7433,61.0,0,240,6.0,60.0
7434,85.0,0,240,0.0,60.0
7435,73.0,0,240,1.0,60.0
7436,76.0,0,240,1.0,60.0
7437,88.0,0,240,0.0,60.0
7438,61.0,0,240,4.0,60.0
7439,62.0,0,120,11.0,60.0
7440,62.0,0,120,10.0,60.0
7441,62.0,0,400,13.0,92.0
7442,66.0,0,400,13.0,92.0
7443,71.0,0,400,12.0,92.0
7444,64.0,0,115,10.0,60.0
7445,64.0,120,115,11.0,60.0
7446,71.0,0,240,1.0,45.0
7447,74.0,0,240,1.0,45.0
7448,86.0,0,240,0.0,45.0
7449,62.0,0,240,4.0,45.0
7450,83.0,0,240,0.0,45.0
7451,62.0,0,240,6.0,45.0
7452,74.0,0,240,2.0,45.0
7453,59.0,120,240,6.0,45.0
7454,59.0,0,240,4.0,45.0
7455,74.0,0,240,5.0,45.0
7456,71.0,0,240,5.0,45.0
7457,71.0,0,240,2.0,45.0
7458,61.0,0,120,10.0,60.0
7459,61.0,0,120,11.0,60.0
7460,64.0,0,115,11.0,60.0
7461,64.0,120,115,10.0,60.0
7462,85.0,0,240,0.0,45.0
7463,57.0,0,240,6.0,45.0
7464,61.0,0,240,6.0,45.0
7465,81.0,0,240,0.0,45.0
7466,73.0,0,240,5.0,45.0
7467,61.0,0,240,4.0,45.0
7468,69.0,0,240,5.0,45.0
7469,73.0,0,240,2.0,45.0
7470,57.0,0,240,4.0,45.0
7471,69.0,0,240,2.0,45.0
7472,69.0,120,240,1.0,45.0
7473,73.0,0,240,1.0,45.0
7474,59.0,0,120,10.0,60.0
7475,59.0,0,120,11.0,60.0
7476,64.0,120,115,10.0,60.0
7477,64.0,0,115,11.0,60.0
7478,68.0,0,240,5.0,45.0
7479,56.0,0,240,6.0,45.0
7480,71.0,0,240,5.0,45.0
7481,83.0,120,240,0.0,45.0
7482,80.0,0,240,0.0,45.0
7483,71.0,0,240,1.0,45.0
7484,59.0,0,240,4.0,45.0
7485,59.0,0,240,6.0,45.0
7486,68.0,0,240,2.0,45.0
7487,71.0,0,240,2.0,45.0
7488,56.0,0,240,4.0,45.0
7489,68.0,0,240,1.0,45.0
7490,57.0,0,120,11.0,60.0
7491,57.0,0,120,10.0,60.0
7492,64.0,120,115,11.0,60.0
7493,64.0,0,115,10.0,60.0
7494,69.0,0,240,5.0,45.0
7495,57.0,0,240,6.0,45.0
7496,54.0,120,240,6.0,45.0
7497,57.0,0,240,4.0,45.0
7498,54.0,0,240,4.0,45.0
7499,66.0,0,240,5.0,45.0
7500,69.0,0,240,2.0,45.0
7501,66.0,0,240,1.0,45.0
7502,69.0,0,240,1.0,45.0
7503,81.0,0,240,0.0,45.0
7504,78.0,0,240,0.0,45.0
7505,66.0,0,240,2.0,45.0
7506,52.0,0,840,13.0,45.0
7507,56.0,0,120,11.0,60.0
7508,52.0,0,120,6.0,45.0
7509,52.0,0,1320,14.0,45.0
7510,52.0,0,1320,3.0,45.0
7511,62.0,0,840,13.0,45.0
7512,40.0,0,1320,7.0,45.0
7513,40.0,0,1320,15.0,45.0
7514,59.0,0,1320,14.0,45.0
7515,56.0,0,840,12.0,45.0
7516,56.0,0,120,10.0,60.0
7517,64.0,120,115,11.0,60.0
7518,64.0,0,115,10.0,60.0
7519,52.0,0,240,4.0,45.0
7520,80.0,0,240,0.0,45.0
7521,68.0,0,240,1.0,45.0
7522,56.0,0,240,4.0,45.0
7523,64.0,0,240,1.0,45.0
7524,68.0,0,240,2.0,45.0
7525,56.0,0,240,6.0,45.0
7526,76.0,0,0,0.0,45.0
7527,68.0,120,240,5.0,45.0
7528,64.0,0,0,2.0,45.0
7529,64.0,0,240,5.0,45.0
7530,57.0,0,120,11.0,60.0
7531,57.0,0,120,10.0,60.0
7532,64.0,120,85,11.0,61.0
7533,64.0,0,85,10.0,61.0
7534,73.0,120,80,10.0,61.0
7535,73.0,0,80,11.0,61.0
7536,69.0,0,400,5.0,45.0
7537,81.0,0,400,0.0,45.0
7538,69.0,0,400,2.0,45.0
7539,57.0,0,400,6.0,45.0
7540,61.0,0,400,4.0,45.0
7541,57.0,0,400,4.0,45.0
7542,69.0,0,400,1.0,45.0
7543,64.0,0,400,1.0,45.0
7544,52.0,0,400,6.0,45.0
7545,49.0,0,400,4.0,45.0
7546,52.0,0,400,4.0,45.0
7547,64.0,0,400,5.0,45.0
7548,71.0,0,80,11.0,62.0
7549,71.0,120,80,10.0,62.0
7550,73.0,0,80,11.0,63.0
7551,73.0,0,80,10.0,63.0
7552,76.0,120,80,11.0,64.0
7553,76.0,0,80,10.0,64.0
7554,81.0,0,120,11.0,65.0
7555,81.0,120,120,10.0,65.0
7556,61.0,0,400,6.0,46.0
7557,57.0,0,400,4.0,46.0
7558,52.0,0,400,4.0,46.0
7559,73.0,0,400,1.0,46.0
7560,64.0,0,400,4.0,46.0
7561,61.0,0,400,4.0,46.0
7562,69.0,0,400,1.0,46.0
7563,57.0,0,400,6.0,46.0
7564,73.0,0,400,2.0,46.0
7565,69.0,120,400,2.0,46.0
7566,81.0,0,400,0.0,46.0
7567,85.0,0,400,0.0,46.0
7568,73.0,0,400,5.0,46.0
7569,69.0,0,400,5.0,46.0
7570,80.0,120,120,11.0,66.0
7571,80.0,0,120,10.0,66.0
7572,81.0,120,80,11.0,67.0
7573,81.0,0,80,10.0,67.0
7574,78.0,120,80,10.0,68.0
7575,78.0,0,80,11.0,68.0
7576,73.0,0,80,11.0,69.0
7577,73.0,120,80,10.0,69.0
7578,45.0,0,1320,15.0,45.0
7579,45.0,0,1320,7.0,45.0
7580,64.0,0,1320,13.0,45.0
7581,57.0,0,1320,3.0,45.0
7582,52.0,120,1320,14.0,45.0
7583,57.0,0,1320,14.0,45.0
7584,61.0,0,1320,12.0,45.0
7585,57.0,0,400,4.0,47.0
7586,73.0,0,400,2.0,47.0
7587,73.0,0,400,1.0,47.0
7588,76.0,0,400,1.0,47.0
7589,61.0,0,400,4.0,47.0
7590,88.0,0,400,0.0,47.0
7591,61.0,0,400,6.0,47.0
7592,64.0,0,400,4.0,47.0
7593,69.0,0,400,4.0,47.0
7594,64.0,0,400,6.0,47.0
7595,85.0,0,400,0.0,47.0
7596,76.0,0,400,2.0,47.0
7597,76.0,0,400,5.0,47.0
7598,73.0,0,400,5.0,47.0
7599,76.0,120,80,11.0,70.0
7600,76.0,0,80,10.0,70.0
7601,59.0,0,120,10.0,71.0
7602,59.0,0,120,11.0,71.0
7603,66.0,120,85,10.0,72.0
7604,66.0,0,85,11.0,72.0
7605,75.0,120,80,11.0,73.0
7606,75.0,0,80,10.0,73.0
7607,90.0,120,400,0.0,48.0
7608,78.0,0,400,1.0,48.0
7609,75.0,0,400,2.0,48.0
7610,78.0,0,400,2.0,48.0
7611,87.0,0,400,0.0,48.0
7612,75.0,0,400,1.0,48.0
7613,73.0,0,80,11.0,74.0
7614,73.0,120,80,10.0,74.0
7615,75.0,120,80,10.0,75.0
7616,75.0,0,80,11.0,75.0
7617,78.0,0,80,10.0,76.0
7618,78.0,120,80,11.0,76.0
7619,81.0,120,120,11.0,77.0
7620,81.0,0,120,10.0,77.0
7621,87.0,0,400,0.0,49.0
7622,75.0,0,400,1.0,49.0
7623,71.0,0,400,1.0,49.0
7624,71.0,0,400,2.0,49.0
7625,83.0,0,400,0.0,49.0
7626,75.0,0,400,2.0,49.0
7627,80.0,0,120,10.0,78.0
7628,80.0,120,120,11.0,78.0
7629,81.0,0,80,10.0,79.0
7630,81.0,0,80,11.0,79.0
7631,78.0,0,80,11.0,80.0
7632,78.0,120,80,10.0,80.0
7633,75.0,120,80,11.0,81.0
7634,75.0,0,80,10.0,81.0
7635,66.0,0,1320,13.0,48.0
7636,59.0,0,1320,6.0,48.0
7637,63.0,0,1320,12.0,48.0
7638,63.0,0,1320,6.0,48.0
7639,59.0,0,1320,3.0,48.0
7640,75.0,0,1320,5.0,48.0
7641,51.0,0,1320,14.0,48.0
7642,47.0,0,1320,7.0,48.0
7643,66.0,0,1320,6.0,48.0
7644,63.0,0,1320,4.0,48.0
7645,59.0,0,1320,4.0,48.0
7646,66.0,0,1320,4.0,48.0
7647,71.0,0,1320,4.0,48.0
7648,47.0,0,1320,15.0,48.0
7649,66.0,0,1320,5.0,48.0
7650,59.0,0,1320,14.0,48.0
7651,83.0,0,400,0.0,50.0
7652,78.0,0,400,0.0,50.0
7653,71.0,0,400,2.0,50.0
7654,71.0,0,400,1.0,50.0
7655,66.0,0,400,2.0,50.0
7656,66.0,120,400,1.0,50.0
7657,78.0,120,80,11.0,82.0
7658,78.0,0,80,10.0,82.0
7659,59.0,120,120,10.0,83.0
7660,59.0,0,120,11.0,83.0
7661,68.0,0,80,10.0,84.0
7662,68.0,120,80,11.0,84.0
7663,71.0,120,80,11.0,85.0
7664,71.0,0,80,10.0,85.0
7665,76.0,0,400,1.0,51.0
7666,71.0,0,400,2.0,51.0
7667,71.0,0,400,1.0,51.0
7668,88.0,0,400,0.0,51.0
7669,76.0,0,400,2.0,51.0
7670,83.0,0,400,0.0,51.0
7671,69.0,120,80,10.0,86.0
7672,69.0,0,80,11.0,86.0
7673,71.0,0,80,10.0,87.0
7674,71.0,0,80,11.0,87.0
7675,76.0,0,80,10.0,88.0
7676,76.0,120,80,11.0,88.0
7677,80.0,0,120,11.0,89.0
7678,80.0,120,120,10.0,89.0
7679,83.0,0,400,0.0,52.0
7680,71.0,0,400,2.0,52.0
7681,80.0,0,400,0.0,52.0
7682,68.0,0,400,2.0,52.0
7683,71.0,120,400,1.0,52.0
7684,68.0,0,400,1.0,52.0
7685,78.0,0,120,10.0,90.0
7686,78.0,120,120,11.0,90.0
7687,80.0,0,80,11.0,91.0
7688,80.0,0,80,10.0,91.0
7689,76.0,0,80,11.0,92.0
7690,76.0,120,80,10.0,92.0
7691,71.0,120,80,10.0,93.0
7692,71.0,0,80,11.0,93.0
7693,59.0,0,1320,4.0,52.0
7694,40.0,0,1320,7.0,52.0
7695,64.0,0,1320,4.0,52.0
7696,76.0,0,1320,5.0,52.0
7697,68.0,0,1320,5.0,52.0
7698,52.0,0,1320,3.0,52.0
7699,71.0,0,1320,4.0,52.0
7700,68.0,0,1320,4.0,52.0
7701,64.0,0,1320,12.0,52.0
7702,64.0,0,1320,6.0,52.0
7703,59.0,0,1320,13.0,52.0
7704,68.0,0,1320,6.0,52.0
7705,47.0,0,1320,14.0,52.0
7706,40.0,0,1320,15.0,52.0
7707,52.0,0,1320,6.0,52.0
7708,52.0,0,1320,14.0,52.0
7709,64.0,0,400,1.0,53.0
7710,68.0,0,400,1.0,53.0
7711,80.0,0,400,0.0,53.0
7712,68.0,0,400,2.0,53.0
7713,64.0,120,400,2.0,53.0
7714,76.0,0,400,0.0,53.0
7715,76.0,0,80,11.0,94.0
7716,76.0,120,80,10.0,94.0
7717,59.0,0,120,10.0,95.0
7718,59.0,0,120,11.0,95.0
7719,70.0,0,80,11.0,96.0
7720,70.0,120,80,10.0,96.0
7721,73.0,0,80,11.0,97.0
7722,73.0,120,80,10.0,97.0
7723,78.0,0,400,2.0,54.0
7724,73.0,0,400,1.0,54.0
7725,85.0,0,400,0.0,54.0
7726,78.0,0,400,1.0,54.0
7727,73.0,0,400,2.0,54.0
7728,90.0,0,400,0.0,54.0
7729,71.0,0,80,10.0,98.0
7730,71.0,120,80,11.0,98.0
7731,73.0,0,80,11.0,99.0
7732,73.0,0,80,10.0,99.0
7733,76.0,120,80,10.0,100.0
7734,76.0,0,80,11.0,100.0
7735,82.0,120,120,11.0,101.0
7736,82.0,0,120,10.0,101.0
7737,70.0,0,400,1.0,56.0
7738,70.0,120,400,2.0,56.0
7739,73.0,0,400,1.0,56.0
7740,85.0,0,400,0.0,56.0
7741,73.0,0,400,2.0,56.0
7742,82.0,0,400,0.0,56.0
7743,80.0,120,120,11.0,102.0
7744,80.0,0,120,10.0,102.0
7745,82.0,0,80,10.0,103.0
7746,82.0,0,80,11.0,103.0
7747,76.0,120,80,10.0,104.0
7748,76.0,0,80,11.0,104.0
7749,73.0,120,80,10.0,105.0
7750,73.0,0,80,11.0,105.0
7751,61.0,0,1320,6.0,56.0
7752,54.0,0,1320,6.0,56.0
7753,73.0,0,1320,5.0,56.0
7754,66.0,0,1320,5.0,56.0
7755,49.0,0,1320,14.0,56.0
7756,54.0,0,1320,14.0,56.0
7757,54.0,0,1320,3.0,56.0
7758,61.0,120,1320,4.0,56.0
7759,58.0,0,1320,4.0,56.0
7760,42.0,0,1320,7.0,56.0
7761,42.0,0,1320,15.0,56.0
7762,58.0,0,1320,13.0,56.0
7763,58.0,0,1320,6.0,56.0
7764,66.0,0,1320,4.0,56.0
7765,66.0,0,1320,12.0,56.0
7766,70.0,0,1320,4.0,56.0
7767,78.0,0,400,0.0,58.0
7768,82.0,0,400,0.0,58.0
7769,66.0,120,400,1.0,58.0
7770,66.0,0,400,2.0,58.0
7771,70.0,0,400,2.0,58.0
7772,70.0,0,400,1.0,58.0
7773,76.0,120,80,11.0,106.0
7774,76.0,0,80,10.0,106.0
7775,75.0,0,115,10.0,108.0
7776,75.0,0,115,11.0,108.0
7777,83.0,120,115,11.0,108.0
7778,83.0,0,115,10.0,108.0
7779,82.0,0,115,10.0,108.0
7780,82.0,120,115,11.0,108.0
7781,35.0,120,400,7.0,60.0
7782,83.0,0,400,0.0,60.0
7783,66.0,0,400,2.0,60.0
7784,71.0,0,400,12.0,60.0
7785,47.0,0,400,14.0,60.0
7786,54.0,0,400,14.0,60.0
7787,78.0,0,400,0.0,60.0
7788,71.0,0,400,1.0,60.0
7789,47.0,0,400,6.0,60.0
7790,71.0,0,400,2.0,60.0
7791,66.0,0,400,1.0,60.0
7792,47.0,0,400,3.0,60.0
7793,66.0,0,400,13.0,60.0
7794,35.0,0,400,15.0,60.0
7795,80.0,0,115,10.0,108.0
7796,80.0,120,115,11.0,108.0
7797,78.0,120,120,10.0,108.0
7798,78.0,0,120,11.0,108.0
7799,83.0,120,115,10.0,108.0
7800,83.0,0,115,11.0,108.0
7801,78.0,0,115,11.0,108.0
7802,78.0,120,115,10.0,108.0
7803,71.0,0,400,2.0,60.0
7804,75.0,0,400,2.0,60.0
7805,66.0,0,400,13.0,60.0
7806,51.0,0,400,6.0,60.0
7807,71.0,0,400,12.0,60.0
7808,51.0,0,400,14.0,60.0
7809,75.0,0,400,1.0,60.0
7810,83.0,0,400,0.0,60.0
7811,39.0,0,400,7.0,60.0
7812,87.0,0,400,0.0,60.0
7813,39.0,0,400,15.0,60.0
7814,51.0,0,400,3.0,60.0
7815,71.0,0,400,1.0,60.0
7816,76.0,120,115,10.0,108.0
7817,76.0,0,115,11.0,108.0
7818,75.0,0,120,10.0,108.0
7819,75.0,0,120,11.0,108.0
7820,78.0,120,115,11.0,108.0
7821,78.0,0,115,10.0,108.0
7822,75.0,0,115,10.0,108.0
7823,75.0,120,115,11.0,108.0
7824,75.0,0,400,2.0,60.0
7825,42.0,0,400,6.0,60.0
7826,87.0,0,400,0.0,60.0
7827,90.0,0,400,0.0,60.0
7828,42.0,0,400,7.0,60.0
7829,78.0,0,400,2.0,60.0
7830,42.0,0,400,15.0,60.0
7831,54.0,0,400,14.0,60.0
7832,71.0,0,400,12.0,60.0
7833,54.0,0,400,3.0,60.0
7834,75.0,0,400,1.0,60.0
7835,78.0,0,400,1.0,60.0
7836,66.0,120,400,13.0,60.0
7837,73.0,0,115,11.0,108.0
7838,73.0,120,115,10.0,108.0
7839,71.0,0,1440,4.0,60.0
7840,66.0,0,1440,4.0,60.0
7841,63.0,0,1440,4.0,60.0
7842,59.0,0,1440,6.0,60.0
7843,58.0,0,1440,6.0,60.0
7844,70.0,0,1440,5.0,60.0
7845,71.0,0,0,5.0,60.0
7846,71.0,0,115,11.0,108.0
7847,71.0,0,115,10.0,108.0
7848,83.0,120,115,11.0,108.0
7849,83.0,0,115,10.0,108.0
7850,81.0,120,115,11.0,108.0
7851,81.0,0,115,10.0,108.0
7852,90.0,0,400,0.0,60.0
7853,66.0,0,400,12.0,60.0
7854,39.0,120,400,7.0,60.0
7855,51.0,0,400,6.0,60.0
7856,78.0,0,400,1.0,60.0
7857,81.0,0,400,1.0,60.0
7858,81.0,0,400,2.0,60.0
7859,93.0,0,400,0.0,60.0
7860,78.0,0,400,2.0,60.0
7861,63.0,0,400,13.0,60.0
7862,39.0,0,400,15.0,60.0
7863,51.0,0,400,14.0,60.0
7864,59.0,0,400,14.0,60.0
7865,51.0,0,400,3.0,60.0
7866,80.0,0,115,10.0,108.0
7867,80.0,120,115,11.0,108.0
7868,78.0,0,120,11.0,108.0
7869,78.0,0,120,10.0,108.0
7870,81.0,120,115,11.0,108.0
7871,81.0,0,115,10.0,108.0
7872,78.0,120,115,10.0,108.0
7873,78.0,0,115,11.0,108.0
7874,90.0,0,400,0.0,60.0
7875,69.0,0,400,12.0,60.0
7876,87.0,0,400,0.0,60.0
7877,42.0,120,400,7.0,60.0
7878,75.0,0,400,2.0,60.0
7879,54.0,0,400,14.0,60.0
7880,78.0,0,400,2.0,60.0
7881,66.0,0,400,13.0,60.0
7882,54.0,0,400,3.0,60.0
7883,75.0,0,400,1.0,60.0
7884,78.0,0,400,1.0,60.0
7885,54.0,0,400,6.0,60.0
7886,42.0,0,400,15.0,60.0
7887,76.0,0,115,10.0,108.0
7888,76.0,120,115,11.0,108.0
7889,75.0,0,120,10.0,108.0
7890,75.0,0,120,11.0,108.0
7891,78.0,0,115,11.0,108.0
7892,78.0,120,115,10.0,108.0
7893,75.0,0,115,11.0,108.0
7894,75.0,120,115,10.0,108.0
7895,75.0,0,400,1.0,60.0
7896,71.0,0,400,1.0,60.0
7897,66.0,0,400,12.0,60.0
7898,47.0,0,400,15.0,60.0
7899,87.0,120,400,0.0,60.0
7900,83.0,0,400,0.0,60.0
7901,59.0,0,400,3.0,60.0
7902,47.0,0,400,6.0,60.0
7903,71.0,0,400,2.0,60.0
7904,75.0,0,400,2.0,60.0
7905,47.0,0,400,7.0,60.0
7906,63.0,0,400,13.0,60.0
7907,59.0,0,400,14.0,60.0
7908,73.0,0,115,11.0,108.0
7909,73.0,120,115,10.0,108.0
7910,63.0,0,1440,4.0,60.0
7911,75.0,0,1440,5.0,60.0
7912,69.0,0,0,4.0,60.0
7913,66.0,0,0,4.0,60.0
7914,63.0,0,0,6.0,60.0
7915,59.0,0,1440,6.0,60.0
7916,71.0,0,115,10.0,108.0
7917,71.0,0,115,11.0,108.0
7918,81.0,120,115,10.0,108.0
7919,81.0,0,115,11.0,108.0
7920,80.0,120,115,11.0,108.0
7921,80.0,0,115,10.0,108.0
7922,71.0,0,400,2.0,60.0
7923,83.0,0,400,0.0,60.0
7924,66.0,0,400,2.0,60.0
7925,66.0,0,400,1.0,60.0
7926,71.0,0,400,1.0,60.0
7927,78.0,0,400,0.0,60.0
7928,66.0,0,400,12.0,60.0
7929,63.0,0,400,13.0,60.0
7930,78.0,120,115,11.0,108.0
7931,78.0,0,115,10.0,108.0
7932,76.0,0,120,10.0,108.0
7933,76.0,0,120,11.0,108.0
7934,80.0,0,115,11.0,108.0
7935,80.0,120,115,10.0,108.0
7936,76.0,0,115,11.0,108.0
7937,76.0,120,115,10.0,108.0
7938,47.0,0,840,6.0,60.0
7939,35.0,0,840,15.0,60.0
7940,47.0,0,840,3.0,60.0
7941,47.0,0,840,14.0,60.0
7942,54.0,0,840,14.0,60.0
7943,35.0,0,840,7.0,60.0
7944,69.0,0,400,12.0,60.0
7945,75.0,0,400,1.0,60.0
7946,71.0,0,400,1.0,60.0
7947,71.0,120,400,2.0,60.0
7948,64.0,0,400,13.0,60.0
7949,75.0,0,400,2.0,60.0
7950,83.0,0,400,0.0,60.0
7951,87.0,0,400,0.0,60.0
7952,75.0,120,115,11.0,108.0
7953,75.0,0,115,10.0,108.0
7954,71.0,0,960,5.0,60.0
7955,59.0,0,960,6.0,60.0
7956,75.0,0,960,5.0,60.0
7957,63.0,120,960,4.0,60.0
7958,73.0,0,120,11.0,108.0
7959,73.0,0,120,10.0,108.0
7960,76.0,120,115,10.0,108.0
7961,76.0,0,115,11.0,108.0
7962,73.0,120,115,10.0,108.0
7963,73.0,0,115,11.0,108.0
7964,45.0,0,400,6.0,60.0
7965,45.0,0,400,14.0,60.0
7966,61.0,0,400,13.0,60.0
7967,52.0,0,400,14.0,60.0
7968,90.0,0,400,0.0,60.0
7969,33.0,0,400,15.0,60.0
7970,45.0,0,400,3.0,60.0
7971,78.0,0,400,1.0,60.0
7972,33.0,0,400,7.0,60.0
7973,75.0,0,400,2.0,60.0
7974,78.0,0,400,2.0,60.0
7975,87.0,0,400,0.0,60.0
7976,75.0,0,400,1.0,60.0
7977,64.0,0,400,12.0,60.0
7978,71.0,120,115,11.0,108.0
7979,71.0,0,115,10.0,108.0
7980,64.0,0,480,6.0,60.0
7981,61.0,0,480,6.0,60.0
7982,61.0,0,480,4.0,60.0
7983,64.0,0,480,4.0,60.0
7984,69.0,0,480,4.0,60.0
7985,73.0,0,0,5.0,60.0
7986,69.0,0,0,5.0,60.0
7987,69.0,0,115,11.0,108.0
7988,69.0,0,115,10.0,108.0
7989,80.0,120,115,10.0,108.0
7990,80.0,0,115,11.0,108.0
7991,78.0,0,115,11.0,108.0
7992,78.0,120,115,10.0,108.0
7993,64.0,0,400,12.0,60.0
7994,64.0,0,400,2.0,60.0
7995,45.0,0,400,6.0,60.0
7996,81.0,0,400,0.0,60.0
7997,52.0,0,400,14.0,60.0
7998,45.0,0,400,14.0,60.0
7999,61.0,0,400,13.0,60.0
8000,68.0,0,400,1.0,60.0
8001,69.0,0,400,1.0,60.0
8002,45.0,0,400,3.0,60.0
8003,33.0,0,400,15.0,60.0
8004,33.0,120,400,7.0,60.0
8005,80.0,0,400,0.0,60.0
8006,69.0,0,400,2.0,60.0
8007,76.0,0,115,10.0,108.0
8008,76.0,120,115,11.0,108.0
8009,75.0,0,120,11.0,108.0
8010,75.0,0,120,10.0,108.0
8011,78.0,120,115,11.0,108.0
8012,78.0,0,115,10.0,108.0
8013,75.0,120,115,10.0,108.0
8014,75.0,0,115,11.0,108.0
8015,68.0,0,400,12.0,60.0
8016,49.0,120,400,6.0,60.0
8017,69.0,0,400,2.0,60.0
8018,73.0,0,400,2.0,60.0
8019,49.0,0,400,3.0,60.0
8020,81.0,0,400,0.0,60.0
8021,49.0,0,400,14.0,60.0
8022,73.0,0,400,1.0,60.0
8023,37.0,0,400,15.0,60.0
8024,69.0,0,400,1.0,60.0
8025,85.0,0,400,0.0,60.0
8026,37.0,0,400,7.0,60.0
8027,64.0,0,400,13.0,60.0
8028,73.0,120,115,10.0,108.0
8029,73.0,0,115,11.0,108.0
8030,71.0,0,120,10.0,108.0
8031,71.0,0,120,11.0,108.0
8032,75.0,0,115,10.0,108.0
8033,75.0,120,115,11.0,108.0
8034,71.0,120,115,10.0,108.0
8035,71.0,0,115,11.0,108.0
8036,64.0,0,1320,4.0,60.0
8037,61.0,0,1320,4.0,60.0
8038,64.0,0,1320,6.0,60.0
8039,61.0,0,1320,6.0,60.0
8040,68.0,0,1320,4.0,60.0
8041,52.0,0,400,6.0,60.0
8042,73.0,0,400,1.0,60.0
8043,76.0,0,400,1.0,60.0
8044,88.0,0,400,0.0,60.0
8045,40.0,0,400,15.0,60.0
8046,85.0,120,400,0.0,60.0
8047,64.0,0,400,12.0,60.0
8048,40.0,0,400,7.0,60.0
8049,52.0,0,400,14.0,60.0
8050,52.0,0,400,3.0,60.0
8051,76.0,0,400,2.0,60.0
8052,73.0,0,400,2.0,60.0
8053,61.0,0,400,13.0,60.0
8054,69.0,0,115,10.0,108.0
8055,69.0,120,115,11.0,108.0
8056,68.0,0,115,10.0,108.0
8057,68.0,0,115,11.0,108.0
8058,76.0,120,115,10.0,108.0
8059,76.0,0,115,11.0,108.0
8060,73.0,120,115,11.0,108.0
8061,73.0,0,115,10.0,108.0
8062,71.0,0,400,1.0,60.0
8063,68.0,120,400,1.0,60.0
8064,83.0,0,400,0.0,60.0
8065,52.0,0,400,14.0,60.0
8066,71.0,0,400,2.0,60.0
8067,59.0,0,400,13.0,60.0
8068,76.0,0,400,5.0,60.0
8069,80.0,0,400,0.0,60.0
8070,64.0,0,400,4.0,60.0
8071,59.0,0,400,4.0,60.0
8072,71.0,0,400,5.0,60.0
8073,64.0,0,400,12.0,60.0
8074,52.0,0,400,6.0,60.0
8075,40.0,0,400,7.0,60.0
8076,64.0,0,400,6.0,60.0
8077,68.0,0,400,2.0,60.0
8078,59.0,0,400,6.0,60.0
8079,68.0,0,400,4.0,60.0
8080,52.0,0,400,3.0,60.0
8081,56.0,0,400,4.0,60.0
8082,40.0,0,400,15.0,60.0
8083,71.0,120,115,10.0,108.0
8084,71.0,0,115,11.0,108.0
8085,69.0,0,120,10.0,108.0
8086,69.0,0,120,11.0,108.0
8087,73.0,0,115,11.0,108.0
8088,73.0,120,115,10.0,108.0
8089,69.0,0,115,10.0,108.0
8090,69.0,120,115,11.0,108.0
8091,71.0,0,400,2.0,60.0
8092,87.0,0,400,0.0,60.0
8093,35.0,0,400,7.0,60.0
8094,83.0,0,400,0.0,60.0
8095,35.0,0,400,15.0,60.0
8096,71.0,0,400,1.0,60.0
8097,47.0,0,400,3.0,60.0
8098,75.0,0,400,1.0,60.0
8099,75.0,0,400,2.0,60.0
8100,47.0,0,400,14.0,60.0
8101,71.0,0,400,4.0,60.0
8102,68.0,0,400,12.0,60.0
8103,64.0,0,400,6.0,60.0
8104,64.0,0,400,4.0,60.0
8105,68.0,0,400,4.0,60.0
8106,68.0,0,400,6.0,60.0
8107,59.0,0,400,4.0,60.0
8108,63.0,0,400,13.0,60.0
8109,47.0,0,400,6.0,60.0
8110,76.0,120,400,5.0,60.0
8111,80.0,0,400,5.0,60.0
8112,68.0,120,115,10.0,108.0
8113,68.0,0,115,11.0,108.0
8114,66.0,0,120,10.0,108.0
8115,66.0,0,120,11.0,108.0
8116,69.0,0,115,11.0,108.0
8117,69.0,120,115,10.0,108.0
8118,66.0,0,115,10.0,108.0
8119,66.0,120,115,11.0,108.0
8120,44.0,0,400,14.0,60.0
8121,44.0,0,400,6.0,60.0
8122,64.0,0,400,12.0,60.0
8123,56.0,0,400,4.0,60.0
8124,87.0,0,400,0.0,60.0
8125,92.0,0,400,0.0,60.0
8126,75.0,120,400,2.0,60.0
8127,68.0,0,400,4.0,60.0
8128,64.0,0,400,6.0,60.0
8129,44.0,0,400,3.0,60.0
8130,80.0,0,400,1.0,60.0
8131,59.0,0,400,13.0,60.0
8132,80.0,0,400,2.0,60.0
8133,76.0,0,400,5.0,60.0
8134,71.0,0,400,5.0,60.0
8135,59.0,0,400,6.0,60.0
8136,32.0,0,400,15.0,60.0
8137,64.0,0,400,4.0,60.0
8138,59.0,0,400,4.0,60.0
8139,32.0,0,400,7.0,60.0
8140,75.0,0,400,1.0,60.0
8141,64.0,0,115,11.0,108.0
8142,64.0,120,115,10.0,108.0
8143,63.0,0,120,10.0,108.0
8144,63.0,0,120,11.0,108.0
8145,66.0,0,120,10.0,108.0
8146,66.0,120,120,11.0,108.0
8147,69.0,0,115,11.0,108.0
8148,69.0,120,115,10.0,108.0
8149,69.0,0,400,1.0,60.0
8150,75.0,0,400,5.0,60.0
8151,71.0,0,400,5.0,60.0
8152,59.0,0,400,6.0,60.0
8153,63.0,0,400,6.0,60.0
8154,59.0,0,400,12.0,60.0
8155,66.0,120,400,1.0,60.0
8156,47.0,0,400,14.0,60.0
8157,81.0,0,400,0.0,60.0
8158,63.0,0,400,4.0,60.0
8159,35.0,0,400,15.0,60.0
8160,66.0,0,400,4.0,60.0
8161,54.0,0,400,4.0,60.0
8162,47.0,0,400,6.0,60.0
8163,47.0,0,400,3.0,60.0
8164,59.0,0,400,4.0,60.0
8165,78.0,0,400,0.0,60.0
8166,63.0,0,400,2.0,60.0
8167,71.0,0,400,2.0,60.0
8168,51.0,0,400,13.0,60.0
8169,35.0,0,400,7.0,60.0
8170,73.0,120,115,11.0,108.0
8171,73.0,0,115,10.0,108.0
8172,71.0,0,120,11.0,109.0
8173,71.0,0,120,10.0,109.0
8174,75.0,120,120,10.0,110.0
8175,75.0,0,120,11.0,110.0
8176,78.0,120,115,10.0,111.0
8177,78.0,0,115,11.0,111.0
8178,87.0,0,400,0.0,69.0
8179,51.0,0,400,14.0,69.0
8180,51.0,0,400,3.0,69.0
8181,66.0,0,400,4.0,69.0
8182,69.0,0,400,4.0,69.0
8183,57.0,0,400,4.0,69.0
8184,39.0,0,400,7.0,69.0
8185,81.0,0,400,0.0,69.0
8186,75.0,0,400,2.0,69.0
8187,63.0,0,400,6.0,69.0
8188,51.0,0,400,6.0,69.0
8189,63.0,0,400,12.0,69.0
8190,66.0,0,400,6.0,69.0
8191,75.0,120,400,1.0,69.0
8192,75.0,0,400,5.0,69.0
8193,78.0,0,400,5.0,69.0
8194,39.0,0,400,15.0,62.0
8195,54.0,0,400,13.0,69.0
8196,69.0,0,400,1.0,69.0
8197,66.0,0,400,2.0,69.0
8198,63.0,0,400,4.0,69.0
8199,80.0,120,115,11.0,112.0
8200,80.0,0,115,10.0,112.0
8201,81.0,0,120,11.0,113.0
8202,81.0,0,120,10.0,113.0
8203,80.0,120,120,10.0,114.0
8204,80.0,0,120,11.0,114.0
8205,81.0,0,115,11.0,115.0
8206,81.0,120,115,10.0,115.0
8207,78.0,0,400,2.0,78.0
8208,87.0,0,400,0.0,78.0
8209,57.0,0,400,13.0,78.0
8210,63.0,0,400,4.0,78.0
8211,59.0,0,400,4.0,78.0
8212,75.0,0,400,1.0,78.0
8213,66.0,120,400,12.0,78.0
8214,90.0,0,400,0.0,78.0
8215,42.0,0,400,7.0,78.0
8216,69.0,0,400,2.0,78.0
8217,78.0,0,400,1.0,78.0
8218,71.0,0,400,5.0,78.0
8219,75.0,0,400,5.0,78.0
8220,59.0,0,400,6.0,78.0
8221,66.0,0,400,4.0,78.0
8222,54.0,0,400,4.0,78.0
8223,54.0,0,400,3.0,78.0
8224,63.0,0,400,6.0,78.0
8225,42.0,0,400,6.0,78.0
8226,42.0,0,400,15.0,64.0
8227,54.0,0,400,14.0,78.0
8228,78.0,0,115,11.0,116.0
8229,78.0,120,115,10.0,116.0
8230,80.0,0,120,11.0,117.0
8231,80.0,0,120,10.0,117.0
8232,76.0,120,120,11.0,118.0
8233,76.0,0,120,10.0,118.0
8234,80.0,120,115,11.0,119.0
8235,80.0,0,115,10.0,119.0
8236,71.0,0,400,2.0,88.0
8237,56.0,0,400,3.0,88.0
8238,64.0,0,400,2.0,88.0
8239,64.0,0,400,6.0,88.0
8240,44.0,0,400,6.0,88.0
8241,56.0,0,400,6.0,88.0
8242,68.0,0,400,4.0,88.0
8243,68.0,0,400,5.0,88.0
8244,80.0,0,400,0.0,88.0
8245,56.0,0,400,4.0,88.0
8246,64.0,0,400,4.0,88.0
8247,59.0,0,400,13.0,88.0
8248,44.0,0,400,15.0,66.0
8249,68.0,0,400,12.0,88.0
8250,83.0,0,400,0.0,88.0
8251,76.0,0,400,5.0,88.0
8252,71.0,0,400,1.0,88.0
8253,68.0,0,400,1.0,88.0
8254,44.0,120,400,7.0,88.0
8255,56.0,0,400,14.0,88.0
8256,59.0,0,400,4.0,88.0
8257,83.0,0,115,10.0,120.0
8258,83.0,120,115,11.0,120.0
8259,88.0,0,120,11.0,121.0
8260,88.0,0,120,10.0,121.0
8261,64.0,120,240,6.0,98.0
8262,56.0,0,240,4.0,98.0
8263,76.0,0,240,1.0,98.0
8264,68.0,0,240,1.0,98.0
8265,76.0,0,240,2.0,98.0
8266,68.0,0,240,4.0,98.0
8267,64.0,0,240,4.0,98.0
8268,88.0,0,240,0.0,98.0
8269,32.0,0,240,7.0,98.0
8270,83.0,0,120,11.0,122.0
8271,80.0,0,240,0.0,98.0
8272,83.0,120,120,10.0,122.0
8273,68.0,0,240,5.0,98.0
8274,68.0,0,240,12.0,98.0
8275,32.0,0,240,15.0,69.0
8276,59.0,0,240,13.0,98.0
8277,68.0,0,240,2.0,98.0
8278,76.0,0,240,5.0,98.0
8279,56.0,0,240,6.0,98.0
8280,44.0,0,240,6.0,98.0
8281,47.0,0,240,14.0,98.0
8282,56.0,0,240,14.0,98.0
8283,80.0,0,115,10.0,123.0
8284,80.0,0,115,11.0,123.0
8285,52.0,0,400,3.0,98.0
8286,76.0,0,115,11.0,124.0
8287,76.0,120,115,10.0,124.0
8288,49.0,0,240,14.0,103.0
8289,90.0,0,240,0.0,103.0
8290,33.0,0,240,7.0,103.0
8291,57.0,0,240,14.0,103.0
8292,81.0,0,240,0.0,103.0
8293,69.0,0,240,1.0,103.0
8294,78.0,0,240,1.0,103.0
8295,69.0,0,240,5.0,103.0
8296,78.0,0,240,5.0,103.0
8297,69.0,0,240,12.0,103.0
8298,57.0,120,240,4.0,103.0
8299,66.0,0,240,4.0,103.0
8300,33.0,0,240,15.0,70.0
8301,61.0,0,240,13.0,103.0
8302,78.0,0,240,2.0,103.0
8303,45.0,0,240,6.0,103.0
8304,57.0,0,240,6.0,103.0
8305,66.0,0,240,6.0,103.0
8306,69.0,0,240,2.0,103.0
8307,69.0,0,240,4.0,103.0
8308,71.0,0,120,11.0,125.0
8309,71.0,0,120,10.0,125.0
8310,78.0,0,115,11.0,126.0
8311,78.0,120,115,10.0,126.0
8312,88.0,120,120,11.0,127.0
8313,88.0,0,120,10.0,127.0
8314,59.0,120,400,14.0,108.0
8315,35.0,0,400,7.0,108.0
8316,71.0,0,400,1.0,108.0
8317,93.0,0,400,0.0,108.0
8318,71.0,0,400,4.0,108.0
8319,51.0,0,400,14.0,108.0
8320,63.0,0,400,6.0,108.0
8321,59.0,0,400,6.0,108.0
8322,63.0,0,400,13.0,108.0
8323,59.0,0,400,4.0,108.0
8324,81.0,0,400,1.0,108.0
8325,47.0,0,400,6.0,108.0
8326,63.0,0,400,4.0,108.0
8327,35.0,0,400,15.0,71.0
8328,66.0,0,400,4.0,108.0
8329,81.0,0,400,2.0,108.0
8330,71.0,0,400,5.0,108.0
8331,47.0,0,400,3.0,108.0
8332,71.0,0,400,2.0,108.0
8333,80.0,0,400,5.0,108.0
8334,90.0,0,400,0.0,108.0
8335,66.0,0,400,12.0,108.0
8336,87.0,120,115,11.0,127.0
8337,87.0,0,115,10.0,127.0
8338,88.0,0,115,11.0,127.0
8339,88.0,0,115,10.0,127.0
8340,83.0,0,120,11.0,92.0
8341,83.0,120,120,10.0,92.0
8342,80.0,120,120,11.0,92.0
8343,80.0,0,120,10.0,92.0
8344,88.0,0,400,0.0,105.0
8345,68.0,0,400,5.0,75.0
8346,76.0,0,400,5.0,75.0
8347,76.0,0,400,1.0,105.0
8348,76.0,0,400,2.0,105.0
8349,64.0,0,400,2.0,105.0
8350,59.0,0,400,6.0,75.0
8351,64.0,0,400,6.0,75.0
8352,76.0,0,115,10.0,92.0
8353,76.0,120,115,11.0,92.0
8354,74.0,0,80,2.0,105.0
8355,62.0,120,80,2.0,105.0
8356,74.0,0,80,5.0,127.0
8357,74.0,0,120,11.0,92.0
8358,74.0,0,120,10.0,92.0
8359,76.0,120,115,11.0,92.0
8360,86.0,0,235,0.0,105.0
8361,76.0,0,115,10.0,92.0
8362,74.0,0,235,1.0,105.0
8363,62.0,0,235,6.0,127.0
8364,50.0,0,235,6.0,127.0
8365,61.0,0,80,2.0,105.0
8366,73.0,0,80,2.0,105.0
8367,73.0,120,80,5.0,127.0
8368,73.0,0,120,10.0,92.0
8369,73.0,0,120,11.0,92.0
8370,49.0,0,235,6.0,127.0
8371,76.0,120,115,10.0,92.0
8372,76.0,0,115,11.0,92.0
8373,85.0,0,235,0.0,105.0
8374,73.0,0,235,1.0,105.0
8375,61.0,0,235,6.0,127.0
8376,74.0,0,80,2.0,105.0
8377,74.0,0,80,5.0,127.0
8378,62.0,0,80,2.0,105.0
8379,74.0,0,120,11.0,92.0
8380,74.0,120,120,10.0,92.0
8381,76.0,120,115,10.0,92.0
8382,62.0,0,235,6.0,127.0
8383,86.0,0,235,0.0,105.0
8384,76.0,0,115,11.0,92.0
8385,74.0,0,235,1.0,105.0
8386,50.0,0,235,6.0,127.0
8387,71.0,0,80,2.0,105.0
8388,71.0,0,80,5.0,127.0
8389,59.0,120,80,2.0,105.0
8390,71.0,0,120,11.0,92.0
8391,47.0,0,1320,14.0,75.0
8392,68.0,0,1320,12.0,75.0
8393,68.0,0,1320,4.0,75.0
8394,62.0,0,1320,4.0,75.0
8395,52.0,0,1320,14.0,75.0
8396,71.0,0,120,10.0,92.0
8397,40.0,120,1320,6.0,75.0
8398,40.0,0,1320,7.0,75.0
8399,64.0,0,1320,13.0,75.0
8400,52.0,0,1320,3.0,75.0
8401,64.0,0,1320,4.0,75.0
8402,56.0,0,1320,4.0,75.0
8403,40.0,0,1320,15.0,75.0
8404,59.0,0,235,6.0,127.0
8405,76.0,0,115,10.0,92.0
8406,47.0,0,235,6.0,127.0
8407,83.0,0,235,0.0,105.0
8408,71.0,0,235,1.0,105.0
8409,76.0,120,115,11.0,92.0
8410,73.0,0,120,10.0,92.0
8411,73.0,0,120,11.0,92.0
8412,76.0,120,120,11.0,92.0
8413,76.0,0,120,10.0,92.0
8414,81.0,120,115,11.0,92.0
8415,81.0,0,115,10.0,92.0
8416,85.0,0,400,0.0,105.0
8417,73.0,0,400,1.0,105.0
8418,73.0,0,400,2.0,105.0
8419,73.0,0,400,5.0,127.0
8420,61.0,0,400,2.0,105.0
8421,49.0,0,400,6.0,127.0
8422,61.0,0,400,6.0,127.0
8423,76.0,0,115,10.0,92.0
8424,76.0,120,115,11.0,92.0
8425,61.0,0,80,2.0,105.0
8426,73.0,0,80,2.0,105.0
8427,73.0,0,80,5.0,127.0
8428,73.0,0,120,11.0,92.0
8429,73.0,120,120,10.0,92.0
8430,49.0,0,235,6.0,127.0
8431,85.0,0,235,0.0,105.0
8432,76.0,120,115,11.0,92.0
8433,76.0,0,115,10.0,92.0
8434,73.0,0,235,1.0,105.0
8435,61.0,0,235,6.0,127.0
8436,71.0,0,80,5.0,127.0
8437,71.0,0,80,2.0,105.0
8438,59.0,120,80,2.0,105.0
8439,71.0,0,120,10.0,92.0
8440,71.0,0,120,11.0,92.0
8441,83.0,0,235,0.0,105.0
8442,59.0,0,235,6.0,127.0
8443,47.0,0,235,6.0,127.0
8444,76.0,0,115,11.0,92.0
8445,71.0,0,235,1.0,105.0
8446,76.0,120,115,10.0,92.0
8447,61.0,0,80,2.0,105.0
8448,73.0,0,80,2.0,105.0
8449,73.0,0,80,5.0,127.0
8450,73.0,0,120,11.0,92.0
8451,73.0,120,120,10.0,92.0
8452,76.0,0,115,11.0,92.0
8453,73.0,0,235,1.0,105.0
8454,49.0,0,235,6.0,127.0
8455,61.0,0,235,6.0,127.0
8456,85.0,0,235,0.0,105.0
8457,76.0,120,115,10.0,92.0
8458,57.0,0,80,2.0,105.0
8459,69.0,0,80,2.0,105.0
8460,69.0,0,80,5.0,127.0
8461,61.0,0,1320,4.0,75.0
8462,57.0,0,1320,14.0,75.0
8463,49.0,120,1320,14.0,75.0
8464,69.0,0,1320,4.0,75.0
8465,69.0,0,120,10.0,92.0
8466,61.0,0,1320,13.0,75.0
8467,69.0,120,120,11.0,92.0
8468,45.0,0,1320,7.0,75.0
8469,45.0,0,120,6.0,127.0
8470,57.0,0,1320,4.0,75.0
8471,64.0,0,1320,4.0,75.0
8472,57.0,0,1320,3.0,75.0
8473,69.0,0,1320,12.0,75.0
8474,45.0,0,1320,15.0,75.0
8475,69.0,0,235,1.0,105.0
8476,76.0,0,115,10.0,92.0
8477,81.0,0,235,0.0,105.0
8478,76.0,120,115,11.0,92.0
8479,57.0,0,235,6.0,127.0
8480,71.0,0,120,11.0,92.0
8481,71.0,0,120,10.0,92.0
8482,76.0,0,120,10.0,92.0
8483,76.0,120,120,11.0,92.0
8484,80.0,0,115,10.0,92.0
8485,80.0,120,115,11.0,92.0
8486,47.0,0,400,6.0,127.0
8487,71.0,0,400,2.0,105.0
8488,71.0,0,400,5.0,127.0
8489,59.0,0,400,6.0,127.0
8490,71.0,0,400,1.0,105.0
8491,59.0,0,400,2.0,105.0
8492,83.0,0,400,0.0,105.0
8493,76.0,0,115,11.0,92.0
8494,76.0,120,115,10.0,92.0
8495,59.0,0,80,2.0,105.0
8496,71.0,0,80,5.0,127.0
8497,71.0,0,80,2.0,105.0
8498,71.0,0,120,10.0,92.0
8499,71.0,120,120,11.0,92.0
8500,71.0,0,235,1.0,105.0
8501,76.0,0,115,11.0,92.0
8502,59.0,0,235,6.0,127.0
8503,83.0,0,235,0.0,105.0
8504,76.0,120,115,10.0,92.0
8505,47.0,0,235,6.0,127.0
8506,57.0,0,80,2.0,105.0
8507,69.0,0,80,2.0,105.0
8508,69.0,0,80,5.0,127.0
8509,69.0,0,120,10.0,92.0
8510,69.0,0,120,11.0,92.0
8511,76.0,0,115,11.0,92.0
8512,45.0,120,235,6.0,127.0
8513,81.0,0,235,0.0,105.0
8514,69.0,0,235,1.0,105.0
8515,57.0,0,235,6.0,127.0
8516,76.0,120,115,10.0,92.0
8517,71.0,0,80,2.0,105.0
8518,59.0,0,80,2.0,105.0
8519,71.0,120,80,5.0,127.0
8520,71.0,0,120,10.0,92.0
8521,71.0,0,120,11.0,92.0
8522,83.0,0,235,0.0,105.0
8523,76.0,0,115,10.0,92.0
8524,76.0,120,115,11.0,92.0
8525,47.0,0,235,6.0,127.0
8526,71.0,0,235,1.0,105.0
8527,59.0,0,235,6.0,127.0
8528,68.0,0,80,2.0,105.0
8529,68.0,0,80,5.0,127.0
8530,56.0,0,80,2.0,105.0
8531,59.0,0,1320,13.0,75.0
8532,52.0,0,1320,3.0,75.0
8533,40.0,120,1320,6.0,75.0
8534,40.0,0,1320,7.0,75.0
8535,68.0,0,120,10.0,92.0
8536,47.0,0,1320,14.0,75.0
8537,68.0,0,1320,12.0,75.0
8538,59.0,0,1320,4.0,75.0
8539,71.0,0,1320,4.0,75.0
8540,52.0,0,1320,14.0,75.0
8541,64.0,0,1320,4.0,75.0
8542,68.0,0,120,11.0,92.0
8543,56.0,0,1320,4.0,75.0
8544,40.0,0,1320,15.0,75.0
8545,76.0,120,115,10.0,92.0
8546,68.0,0,235,1.0,105.0
8547,76.0,0,115,11.0,92.0
8548,80.0,120,235,0.0,105.0
8549,44.0,0,235,6.0,127.0
8550,56.0,0,235,6.0,127.0
8551,69.0,0,120,10.0,92.0
8552,69.0,0,120,11.0,92.0
8553,76.0,0,120,10.0,93.0
8554,76.0,120,120,11.0,93.0
8555,78.0,120,115,10.0,94.0
8556,78.0,0,115,11.0,94.0
8557,69.0,0,400,5.0,127.0
8558,61.0,0,400,5.0,127.0
8559,45.0,0,400,6.0,127.0
8560,69.0,0,400,2.0,105.0
8561,33.0,120,400,15.0,75.0
8562,33.0,0,400,7.0,75.0
8563,45.0,0,400,14.0,75.0
8564,64.0,0,400,12.0,75.0
8565,57.0,0,400,2.0,105.0
8566,45.0,0,400,3.0,75.0
8567,69.0,0,400,4.0,75.0
8568,73.0,0,400,4.0,75.0
8569,52.0,0,400,14.0,75.0
8570,61.0,0,400,4.0,75.0
8571,61.0,0,400,13.0,75.0
8572,81.0,0,400,0.0,105.0
8573,57.0,0,400,6.0,127.0
8574,69.0,0,400,1.0,105.0
8575,76.0,120,115,10.0,95.0
8576,76.0,0,115,11.0,95.0
8577,75.0,0,80,2.0,112.0
8578,63.0,0,80,5.0,127.0
8579,75.0,0,80,5.0,127.0
8580,63.0,0,80,2.0,112.0
8581,75.0,0,120,11.0,96.0
8582,75.0,0,120,10.0,96.0
8583,75.0,0,235,1.0,112.0
8584,42.0,0,235,15.0,80.0
8585,87.0,0,235,0.0,112.0
8586,51.0,0,235,6.0,127.0
8587,42.0,120,235,14.0,80.0
8588,54.0,0,235,6.0,80.0
8589,63.0,0,235,13.0,80.0
8590,63.0,0,235,6.0,127.0
8591,54.0,0,235,3.0,80.0
8592,66.0,0,235,4.0,80.0
8593,42.0,0,235,7.0,80.0
8594,76.0,0,115,10.0,97.0
8595,76.0,120,115,11.0,97.0
8596,54.0,0,235,14.0,80.0
8597,76.0,0,80,5.0,127.0
8598,64.0,0,80,2.0,116.0
8599,64.0,0,80,5.0,127.0
8600,76.0,0,80,2.0,116.0
8601,76.0,0,115,10.0,98.0
8602,76.0,0,115,11.0,98.0
8603,69.0,0,400,12.0,80.0
8604,76.0,120,115,10.0,99.0
8605,52.0,0,235,3.0,83.0
8606,52.0,0,235,14.0,83.0
8607,88.0,0,235,0.0,116.0
8608,52.0,0,235,6.0,127.0
8609,76.0,0,235,1.0,116.0
8610,64.0,0,235,4.0,116.0
8611,40.0,120,235,14.0,83.0
8612,40.0,0,235,15.0,83.0
8613,40.0,0,235,7.0,83.0
8614,76.0,0,115,11.0,99.0
8615,64.0,0,235,6.0,127.0
8616,64.0,0,235,13.0,83.0
8617,66.0,0,80,5.0,127.0
8618,78.0,0,80,5.0,127.0
8619,78.0,0,80,2.0,120.0
8620,66.0,0,80,2.0,120.0
8621,78.0,0,120,10.0,100.0
8622,78.0,0,120,11.0,100.0
8623,39.0,0,235,7.0,86.0
8624,78.0,0,235,1.0,120.0
8625,51.0,120,235,14.0,86.0
8626,39.0,0,235,14.0,86.0
8627,51.0,0,235,6.0,86.0
8628,54.0,0,235,6.0,127.0
8629,66.0,0,235,6.0,127.0
8630,76.0,120,115,11.0,102.0
8631,90.0,0,235,0.0,120.0
8632,63.0,0,235,4.0,86.0
8633,75.0,0,235,12.0,86.0
8634,51.0,0,235,3.0,86.0
8635,76.0,0,115,10.0,102.0
8636,39.0,0,235,15.0,86.0
8637,68.0,0,80,5.0,127.0
8638,80.0,0,80,2.0,124.0
8639,68.0,0,80,2.0,124.0
8640,80.0,0,80,5.0,127.0
8641,80.0,0,120,10.0,104.0
8642,80.0,0,120,11.0,104.0
8643,69.0,0,400,13.0,86.0
8644,80.0,0,235,1.0,124.0
8645,61.0,0,235,4.0,124.0
8646,49.0,0,235,6.0,89.0
8647,49.0,0,235,3.0,89.0
8648,37.0,0,235,15.0,89.0
8649,37.0,0,235,14.0,89.0
8650,73.0,0,235,12.0,89.0
8651,49.0,0,235,14.0,89.0
8652,76.0,0,115,11.0,106.0
8653,76.0,120,115,10.0,106.0
8654,68.0,0,235,6.0,127.0
8655,56.0,120,235,6.0,127.0
8656,37.0,0,235,7.0,89.0
8657,92.0,0,235,0.0,124.0
8658,47.0,0,25,8.0,92.0
8659,47.0,30,25,8.0,92.0
8660,47.0,30,25,8.0,92.0
8661,47.0,30,25,8.0,92.0
8662,47.0,30,25,8.0,92.0
8663,47.0,30,25,8.0,92.0
8664,47.0,30,25,8.0,92.0
8665,47.0,30,25,8.0,92.0
8666,47.0,30,25,8.0,92.0
8667,47.0,30,25,8.0,92.0
8668,47.0,30,25,8.0,92.0
8669,47.0,30,25,8.0,92.0
8670,47.0,30,25,8.0,92.0
8671,47.0,30,25,8.0,92.0
8672,47.0,30,25,8.0,92.0
8673,47.0,30,25,8.0,92.0
8674,47.0,30,25,8.0,92.0
8675,47.0,30,25,8.0,92.0
8676,47.0,30,25,8.0,92.0
8677,47.0,30,25,8.0,92.0
8678,47.0,30,25,8.0,92.0
8679,75.0,0,640,10.0,108.0
8680,81.0,0,640,2.0,127.0
8681,69.0,0,640,6.0,127.0
8682,57.0,0,640,6.0,127.0
8683,75.0,0,640,11.0,108.0
8684,93.0,0,640,0.0,127.0
8685,81.0,0,640,10.0,108.0
8686,69.0,0,640,5.0,127.0
8687,81.0,0,640,11.0,108.0
8688,81.0,0,640,1.0,127.0
8689,81.0,0,640,5.0,127.0
8690,47.0,30,25,8.0,92.0
8691,47.0,30,25,8.0,92.0
8692,47.0,30,25,8.0,92.0
8693,47.0,0,25,8.0,92.0
8694,47.0,30,25,8.0,92.0
8695,47.0,30,25,8.0,92.0
8696,47.0,30,25,8.0,92.0
8697,59.0,0,840,12.0,92.0
8698,66.0,0,840,12.0,92.0
8699,47.0,30,25,8.0,92.0
8700,47.0,30,25,8.0,92.0
8701,47.0,30,25,8.0,92.0
8702,71.0,0,235,6.0,127.0
8703,83.0,0,235,11.0,108.0
8704,95.0,0,235,0.0,127.0
8705,83.0,30,235,10.0,108.0
8706,47.0,30,25,8.0,92.0
8707,71.0,0,235,5.0,127.0
8708,59.0,0,235,6.0,127.0
8709,83.0,0,235,2.0,127.0
8710,83.0,0,235,5.0,127.0
8711,83.0,0,235,1.0,127.0
8712,35.0,0,960,7.0,92.0
8713,35.0,0,960,15.0,92.0
8714,47.0,120,960,7.0,92.0
8715,75.0,0,960,2.0,92.0
8716,63.0,0,960,13.0,92.0
8717,47.0,0,960,6.0,92.0
8718,47.0,0,960,3.0,92.0
8719,42.0,0,960,14.0,92.0
8720,47.0,0,960,14.0,92.0
8721,59.0,0,960,4.0,92.0
8722,54.0,0,960,4.0,92.0
8723,63.0,0,960,4.0,92.0
8724,57.0,0,960,4.0,92.0
8725,52.0,0,25,8.0,92.0
8726,52.0,30,25,8.0,92.0
8727,52.0,30,25,8.0,92.0
8728,52.0,30,25,8.0,92.0
8729,52.0,30,25,8.0,92.0
8730,52.0,30,25,8.0,92.0
8731,52.0,30,25,8.0,92.0
8732,52.0,30,25,8.0,92.0
8733,52.0,30,25,8.0,92.0
8734,52.0,30,25,8.0,92.0
8735,52.0,30,25,8.0,92.0
8736,52.0,30,25,8.0,92.0
8737,52.0,30,25,8.0,92.0
8738,80.0,0,400,1.0,127.0
8739,40.0,0,400,6.0,92.0
8740,40.0,0,400,15.0,92.0
8741,64.0,0,400,4.0,92.0
8742,56.0,0,400,4.0,92.0
8743,64.0,0,400,12.0,92.0
8744,52.0,0,400,3.0,92.0
8745,80.0,0,400,2.0,127.0
8746,68.0,0,400,6.0,127.0
8747,56.0,0,400,6.0,127.0
8748,92.0,0,400,0.0,127.0
8749,59.0,0,400,12.0,92.0
8750,71.0,0,400,10.0,108.0
8751,52.0,0,400,4.0,92.0
8752,64.0,0,400,13.0,92.0
8753,80.0,0,400,10.0,108.0
8754,71.0,30,400,11.0,108.0
8755,40.0,0,400,7.0,92.0
8756,52.0,0,400,7.0,92.0
8757,80.0,0,400,11.0,108.0
8758,59.0,0,400,4.0,92.0
8759,44.0,0,400,14.0,92.0
8760,52.0,0,400,14.0,92.0
8761,68.0,0,400,5.0,127.0
8762,80.0,0,400,5.0,127.0
8763,71.0,0,400,2.0,92.0
8764,52.0,30,25,8.0,92.0
8765,52.0,30,25,8.0,92.0
8766,52.0,30,25,8.0,92.0
8767,45.0,0,25,8.0,92.0
8768,45.0,30,25,8.0,92.0
8769,45.0,30,25,8.0,92.0
8770,57.0,0,115,10.0,108.0
8771,45.0,30,25,8.0,92.0
8772,57.0,30,115,11.0,108.0
8773,45.0,0,25,8.0,92.0
8774,45.0,30,25,8.0,92.0
8775,45.0,30,25,8.0,92.0
8776,93.0,0,235,0.0,92.0
8777,45.0,30,25,8.0,92.0
8778,81.0,0,235,2.0,92.0
8779,81.0,0,235,5.0,127.0
8780,69.0,0,235,6.0,127.0
8781,57.0,0,235,6.0,127.0
8782,69.0,0,235,5.0,127.0
8783,81.0,0,235,1.0,92.0
8784,81.0,0,120,11.0,108.0
8785,81.0,30,120,10.0,108.0
8786,45.0,0,25,8.0,92.0
8787,45.0,30,25,8.0,92.0
8788,45.0,30,25,8.0,92.0
8789,45.0,30,25,8.0,92.0
8790,80.0,0,120,11.0,108.0
8791,80.0,0,120,10.0,108.0
8792,45.0,30,25,8.0,92.0
8793,45.0,0,400,6.0,92.0
8794,45.0,0,400,7.0,92.0
8795,45.0,30,25,8.0,92.0
8796,81.0,0,60,11.0,108.0
8797,81.0,0,60,10.0,108.0
8798,45.0,0,25,8.0,92.0
8799,78.0,0,235,2.0,92.0
8800,45.0,30,25,8.0,92.0
8801,66.0,0,235,6.0,127.0
8802,78.0,0,55,10.0,108.0
8803,54.0,0,235,6.0,127.0
8804,78.0,30,55,11.0,108.0
8805,78.0,0,235,1.0,92.0
8806,66.0,30,235,5.0,127.0
8807,90.0,0,235,0.0,92.0
8808,78.0,0,235,5.0,127.0
8809,33.0,0,480,15.0,92.0
8810,64.0,0,480,12.0,92.0
8811,57.0,0,480,12.0,92.0
8812,64.0,0,480,4.0,92.0
8813,52.0,0,480,14.0,92.0
8814,61.0,0,480,4.0,92.0
8815,57.0,0,480,4.0,92.0
8816,54.0,0,480,4.0,92.0
8817,45.0,0,480,14.0,92.0
8818,61.0,0,480,13.0,92.0
8819,73.0,0,480,2.0,92.0
8820,45.0,0,480,3.0,92.0
8821,47.0,0,25,8.0,92.0
8822,78.0,0,30,10.0,108.0
8823,78.0,0,30,11.0,108.0
8824,47.0,0,25,8.0,92.0
8825,80.0,30,30,10.0,108.0
8826,80.0,0,30,11.0,108.0
8827,47.0,0,25,8.0,92.0
8828,78.0,30,30,11.0,108.0
8829,78.0,0,30,10.0,108.0
8830,47.0,0,25,8.0,92.0
8831,80.0,0,30,11.0,108.0
8832,80.0,30,30,10.0,108.0
8833,47.0,0,25,8.0,92.0
8834,78.0,0,30,10.0,108.0
8835,78.0,30,30,11.0,108.0
8836,47.0,0,25,8.0,92.0
8837,80.0,0,30,11.0,108.0
8838,80.0,30,30,10.0,108.0
8839,47.0,0,25,8.0,92.0
8840,78.0,0,30,10.0,108.0
8841,78.0,30,30,11.0,108.0
8842,47.0,30,25,8.0,92.0
8843,80.0,0,30,11.0,108.0
8844,80.0,0,30,10.0,108.0
8845,47.0,0,25,8.0,92.0
8846,78.0,0,30,11.0,108.0
8847,78.0,30,30,10.0,108.0
8848,47.0,0,25,8.0,92.0
8849,80.0,0,30,10.0,108.0
8850,80.0,30,30,11.0,108.0
8851,47.0,0,25,8.0,92.0
8852,78.0,30,30,11.0,108.0
8853,78.0,0,30,10.0,108.0
8854,47.0,0,25,8.0,92.0
8855,80.0,30,30,11.0,108.0
8856,80.0,0,30,10.0,108.0
8857,47.0,0,25,8.0,92.0
8858,78.0,0,30,10.0,108.0
8859,78.0,30,30,11.0,108.0
8860,54.0,0,400,14.0,92.0
8861,47.0,0,400,14.0,92.0
8862,59.0,0,400,4.0,92.0
8863,71.0,0,400,4.0,92.0
8864,47.0,0,400,7.0,92.0
8865,35.0,30,400,15.0,92.0
8866,47.0,0,400,3.0,92.0
8867,47.0,0,400,6.0,92.0
8868,47.0,0,25,8.0,92.0
8869,80.0,0,30,11.0,108.0
8870,80.0,30,30,10.0,108.0
8871,47.0,0,25,8.0,92.0
8872,78.0,0,30,11.0,108.0
8873,78.0,30,30,10.0,108.0
8874,47.0,0,25,8.0,92.0
8875,80.0,0,30,11.0,108.0
8876,80.0,30,30,10.0,108.0
8877,47.0,0,25,8.0,92.0
8878,78.0,0,30,10.0,108.0
8879,78.0,0,30,11.0,108.0
8880,47.0,30,25,8.0,92.0
8881,80.0,0,30,10.0,108.0
8882,80.0,0,30,11.0,108.0
8883,47.0,0,25,8.0,92.0
8884,78.0,0,30,11.0,108.0
8885,78.0,30,30,10.0,108.0
8886,47.0,0,25,8.0,92.0
8887,80.0,0,30,10.0,108.0
8888,80.0,30,30,11.0,108.0
8889,47.0,30,25,8.0,92.0
8890,78.0,0,30,11.0,108.0
8891,78.0,0,30,10.0,108.0
8892,90.0,0,640,0.0,92.0
8893,78.0,0,640,2.0,92.0
8894,78.0,0,640,1.0,92.0
8895,54.0,0,640,6.0,127.0
8896,66.0,0,640,6.0,127.0
8897,78.0,0,640,5.0,127.0
8898,66.0,0,640,5.0,127.0
8899,47.0,0,25,8.0,92.0
8900,80.0,30,30,11.0,108.0
8901,80.0,0,30,10.0,108.0
8902,47.0,0,25,8.0,92.0
8903,78.0,0,30,11.0,108.0
8904,78.0,30,30,10.0,108.0
8905,47.0,30,25,8.0,92.0
8906,80.0,0,30,11.0,108.0
8907,80.0,0,30,10.0,108.0
8908,47.0,0,25,8.0,92.0
8909,47.0,30,25,8.0,92.0
8910,47.0,30,25,8.0,92.0
8911,47.0,30,25,8.0,92.0
8912,75.0,0,840,2.0,92.0
8913,59.0,0,840,12.0,92.0
8914,63.0,0,840,13.0,92.0
8915,66.0,0,840,12.0,92.0
8916,63.0,0,840,4.0,92.0
8917,54.0,0,840,4.0,92.0
8918,47.0,30,25,8.0,92.0
8919,35.0,0,400,7.0,92.0
8920,47.0,0,400,14.0,92.0
8921,54.0,0,400,14.0,92.0
8922,57.0,0,400,4.0,127.0
8923,69.0,30,400,4.0,127.0
8924,35.0,0,400,15.0,92.0
8925,47.0,0,400,3.0,92.0
8926,35.0,0,400,6.0,92.0
8927,47.0,30,25,8.0,92.0
8928,47.0,30,25,8.0,92.0
8929,64.0,0,235,5.0,127.0
8930,76.0,30,235,5.0,127.0
8931,76.0,0,235,10.0,108.0
8932,88.0,0,235,0.0,92.0
8933,76.0,0,235,2.0,92.0
8934,76.0,0,235,11.0,108.0
8935,47.0,30,25,8.0,92.0
8936,76.0,0,235,1.0,92.0
8937,52.0,0,235,6.0,127.0
8938,64.0,0,235,6.0,127.0
8939,76.0,0,115,11.0,108.0
8940,76.0,0,115,10.0,108.0
8941,88.0,120,115,11.0,108.0
8942,88.0,0,115,10.0,108.0
8943,87.0,0,115,10.0,108.0
8944,87.0,120,115,11.0,108.0
8945,40.0,0,400,6.0,92.0
8946,64.0,0,400,2.0,92.0
8947,28.0,0,400,15.0,92.0
8948,52.0,0,400,14.0,92.0
8949,47.0,0,400,14.0,92.0
8950,40.0,30,400,14.0,92.0
8951,40.0,0,400,3.0,92.0
8952,52.0,0,400,6.0,127.0
8953,64.0,0,400,6.0,127.0
8954,76.0,0,400,1.0,92.0
8955,88.0,0,400,0.0,92.0
8956,64.0,0,400,5.0,127.0
8957,76.0,0,400,5.0,127.0
8958,40.0,0,400,7.0,92.0
8959,76.0,0,400,2.0,92.0
8960,28.0,0,400,7.0,92.0
8961,85.0,120,115,11.0,108.0
8962,85.0,0,115,10.0,108.0
8963,83.0,0,120,10.0,108.0
8964,83.0,0,120,11.0,108.0
8965,64.0,0,640,4.0,92.0
8966,64.0,0,640,13.0,92.0
8967,68.0,0,640,4.0,92.0
8968,52.0,0,640,8.0,92.0
8969,68.0,0,640,12.0,92.0
8970,88.0,120,115,10.0,108.0
8971,80.0,0,235,5.0,127.0
8972,80.0,0,235,2.0,94.0
8973,64.0,0,235,6.0,127.0
8974,68.0,0,235,6.0,127.0
8975,68.0,0,235,5.0,127.0
8976,92.0,0,235,0.0,94.0
8977,80.0,120,235,1.0,94.0
8978,68.0,0,235,2.0,94.0
8979,88.0,0,115,11.0,108.0
8980,44.0,0,240,14.0,94.0
8981,56.0,0,240,14.0,94.0
8982,32.0,0,240,15.0,94.0
8983,44.0,0,240,3.0,94.0
8984,32.0,0,240,7.0,94.0
8985,44.0,0,240,7.0,94.0
8986,81.0,0,120,11.0,109.0
8987,81.0,0,120,10.0,109.0
8988,44.0,0,400,6.0,94.0
8989,81.0,0,235,5.0,127.0
8990,69.0,0,235,6.0,127.0
8991,66.0,0,235,6.0,127.0
8992,69.0,0,235,2.0,95.0
8993,69.0,120,235,5.0,127.0
8994,52.0,0,235,8.0,92.0
8995,81.0,0,235,1.0,95.0
8996,81.0,0,235,2.0,95.0
8997,88.0,0,115,10.0,110.0
8998,88.0,120,115,11.0,110.0
8999,93.0,0,235,0.0,95.0
9000,69.0,0,240,4.0,96.0
9001,33.0,0,240,15.0,95.0
9002,69.0,0,240,12.0,96.0
9003,45.0,0,240,3.0,95.0
9004,57.0,0,240,14.0,95.0
9005,45.0,0,240,14.0,95.0
9006,66.0,0,240,4.0,96.0
9007,66.0,0,240,13.0,96.0
9008,45.0,0,240,7.0,95.0
9009,33.0,0,240,7.0,95.0
9010,80.0,0,120,10.0,111.0
9011,80.0,0,120,11.0,111.0
9012,92.0,0,235,0.0,96.0
9013,80.0,0,235,1.0,96.0
9014,88.0,0,115,10.0,112.0
9015,80.0,0,235,5.0,127.0
9016,68.0,0,235,2.0,96.0
9017,52.0,0,235,8.0,92.0
9018,68.0,0,235,6.0,127.0
9019,64.0,0,235,6.0,127.0
9020,88.0,120,115,11.0,112.0
9021,80.0,0,235,2.0,96.0
9022,68.0,0,235,5.0,127.0
9023,68.0,0,240,4.0,97.0
9024,68.0,0,240,12.0,97.0
9025,64.0,120,240,13.0,97.0
9026,64.0,0,240,4.0,97.0
9027,78.0,120,120,11.0,113.0
9028,78.0,0,120,10.0,113.0
9029,35.0,0,400,15.0,96.0
9030,59.0,0,400,14.0,96.0
9031,47.0,0,400,14.0,96.0
9032,47.0,0,400,6.0,96.0
9033,47.0,0,400,7.0,96.0
9034,47.0,0,400,3.0,96.0
9035,35.0,0,400,7.0,96.0
9036,90.0,0,235,0.0,97.0
9037,47.0,0,235,8.0,92.0
9038,78.0,0,235,5.0,127.0
9039,66.0,0,235,4.0,98.0
9040,66.0,0,235,5.0,127.0
9041,66.0,0,235,12.0,98.0
9042,63.0,0,235,13.0,98.0
9043,66.0,0,235,6.0,127.0
9044,63.0,0,235,6.0,127.0
9045,78.0,0,235,1.0,97.0
9046,88.0,0,115,10.0,114.0
9047,88.0,120,115,11.0,114.0
9048,66.0,0,235,2.0,97.0
9049,63.0,0,235,4.0,98.0
9050,78.0,0,235,2.0,97.0
9051,76.0,0,115,11.0,115.0
9052,76.0,0,115,10.0,115.0
9053,76.0,0,115,10.0,116.0
9054,76.0,120,115,11.0,116.0
9055,75.0,0,115,10.0,117.0
9056,75.0,120,115,11.0,117.0
9057,59.0,0,400,6.0,127.0
9058,40.0,0,400,15.0,99.0
9059,64.0,0,400,6.0,127.0
9060,64.0,0,400,5.0,127.0
9061,40.0,0,400,6.0,99.0
9062,76.0,0,400,5.0,127.0
9063,88.0,0,400,0.0,98.0
9064,40.0,0,400,14.0,99.0
9065,47.0,0,400,14.0,99.0
9066,52.0,120,400,14.0,99.0
9067,40.0,0,400,7.0,99.0
9068,52.0,0,400,3.0,99.0
9069,76.0,0,400,1.0,98.0
9070,64.0,0,400,2.0,98.0
9071,76.0,0,400,2.0,98.0
9072,73.0,120,115,10.0,118.0
9073,73.0,0,115,11.0,118.0
9074,71.0,0,120,10.0,119.0
9075,71.0,0,120,11.0,119.0
9076,68.0,0,640,12.0,99.0
9077,64.0,0,640,4.0,99.0
9078,52.0,0,640,8.0,92.0
9079,59.0,0,640,4.0,99.0
9080,64.0,0,640,13.0,99.0
9081,56.0,0,235,6.0,127.0
9082,71.0,0,235,5.0,127.0
9083,68.0,0,235,5.0,127.0
9084,76.0,120,115,10.0,120.0
9085,59.0,0,235,6.0,127.0
9086,80.0,0,235,1.0,101.0
9087,92.0,0,235,0.0,101.0
9088,68.0,120,235,2.0,101.0
9089,80.0,0,235,2.0,101.0
9090,76.0,0,115,11.0,120.0
9091,56.0,0,240,14.0,102.0
9092,44.0,0,240,7.0,102.0
9093,44.0,0,240,15.0,102.0
9094,56.0,0,240,3.0,102.0
9095,69.0,0,120,11.0,121.0
9096,69.0,0,120,10.0,121.0
9097,44.0,0,400,6.0,102.0
9098,66.0,120,235,5.0,127.0
9099,69.0,0,235,5.0,127.0
9100,66.0,0,235,2.0,102.0
9101,78.0,0,235,2.0,102.0
9102,78.0,0,235,1.0,102.0
9103,52.0,0,235,8.0,92.0
9104,54.0,0,235,6.0,127.0
9105,57.0,0,235,6.0,127.0
9106,76.0,120,115,10.0,122.0
9107,90.0,0,235,0.0,102.0
9108,76.0,0,115,11.0,122.0
9109,45.0,0,240,15.0,103.0
9110,69.0,0,240,12.0,103.0
9111,66.0,0,240,4.0,103.0
9112,66.0,0,240,13.0,103.0
9113,45.0,0,240,7.0,103.0
9114,57.0,0,240,14.0,103.0
9115,57.0,0,240,3.0,103.0
9116,57.0,0,240,4.0,103.0
9117,68.0,0,120,10.0,123.0
9118,68.0,0,120,11.0,123.0
9119,76.0,120,115,10.0,124.0
9120,76.0,0,235,1.0,104.0
9121,52.0,0,235,6.0,127.0
9122,56.0,0,235,6.0,127.0
9123,64.0,0,235,5.0,127.0
9124,52.0,0,235,8.0,92.0
9125,76.0,0,115,11.0,124.0
9126,88.0,0,235,0.0,104.0
9127,64.0,0,235,2.0,104.0
9128,68.0,0,235,5.0,127.0
9129,76.0,0,235,2.0,104.0
9130,56.0,0,240,4.0,104.0
9131,64.0,0,240,13.0,104.0
9132,68.0,0,240,12.0,104.0
9133,64.0,0,240,4.0,104.0
9134,66.0,0,120,11.0,125.0
9135,66.0,0,120,10.0,125.0
9136,47.0,0,400,6.0,105.0
9137,59.0,0,400,14.0,104.0
9138,59.0,0,400,3.0,104.0
9139,47.0,0,400,7.0,104.0
9140,47.0,120,400,15.0,104.0
9141,76.0,120,115,11.0,126.0
9142,63.0,0,235,13.0,106.0
9143,87.0,0,235,0.0,106.0
9144,63.0,0,235,4.0,106.0
9145,63.0,0,235,5.0,127.0
9146,66.0,0,235,5.0,127.0
9147,75.0,120,235,2.0,106.0
9148,66.0,0,235,12.0,106.0
9149,47.0,0,235,8.0,92.0
9150,54.0,0,235,4.0,106.0
9151,63.0,0,235,2.0,106.0
9152,75.0,0,235,1.0,106.0
9153,54.0,0,235,6.0,127.0
9154,51.0,0,235,6.0,127.0
9155,76.0,0,115,10.0,126.0
9156,52.0,0,25,8.0,92.0
9157,52.0,30,25,8.0,92.0
9158,52.0,30,25,8.0,92.0
9159,52.0,30,25,8.0,92.0
9160,64.0,0,120,10.0,127.0
9161,64.0,0,120,11.0,127.0
9162,52.0,30,25,8.0,92.0
9163,52.0,30,25,8.0,92.0
9164,52.0,30,25,8.0,92.0
9165,52.0,30,25,8.0,92.0
9166,68.0,0,120,11.0,127.0
9167,68.0,0,120,10.0,127.0
9168,52.0,30,25,8.0,92.0
9169,52.0,30,25,8.0,92.0
9170,52.0,30,25,8.0,92.0
9171,52.0,30,25,8.0,92.0
9172,71.0,0,115,11.0,127.0
9173,71.0,0,115,10.0,127.0
9174,52.0,0,25,8.0,92.0
9175,56.0,0,400,6.0,127.0
9176,64.0,120,400,5.0,127.0
9177,52.0,0,400,6.0,127.0
9178,71.0,0,400,5.0,127.0
9179,52.0,30,25,8.0,92.0
9180,52.0,30,25,8.0,92.0
9181,75.0,30,115,11.0,127.0
9182,52.0,30,25,8.0,92.0
9183,75.0,0,115,10.0,127.0
9184,52.0,0,25,8.0,92.0
9185,52.0,30,25,8.0,92.0
9186,52.0,30,25,8.0,92.0
9187,52.0,30,25,8.0,92.0
9188,76.0,0,120,10.0,127.0
9189,76.0,0,120,11.0,127.0
9190,52.0,0,25,8.0,92.0
9191,52.0,30,25,8.0,92.0
9192,52.0,30,25,8.0,92.0
9193,64.0,0,235,6.0,127.0
9194,59.0,0,235,6.0,127.0
9195,71.0,0,235,5.0,127.0
9196,68.0,30,235,5.0,127.0
9197,52.0,30,25,8.0,92.0
9198,80.0,0,120,10.0,127.0
9199,80.0,30,120,11.0,127.0
9200,52.0,30,25,8.0,92.0
9201,52.0,30,25,8.0,92.0
9202,52.0,30,25,8.0,92.0
9203,83.0,0,115,10.0,127.0
9204,52.0,30,25,8.0,92.0
9205,83.0,0,115,11.0,127.0
9206,52.0,0,25,8.0,92.0
9207,52.0,30,25,8.0,92.0
9208,52.0,30,25,8.0,92.0
9209,64.0,0,235,6.0,127.0
9210,87.0,0,115,10.0,127.0
9211,71.0,0,235,5.0,127.0
9212,68.0,0,235,5.0,127.0
9213,87.0,30,115,11.0,127.0
9214,52.0,30,25,8.0,92.0
9215,59.0,0,235,6.0,127.0
9216,52.0,0,25,8.0,92.0
9217,52.0,30,25,8.0,92.0
9218,52.0,30,25,8.0,92.0
9219,52.0,30,25,8.0,92.0
9220,52.0,30,25,8.0,92.0
9221,52.0,30,25,8.0,92.0
9222,52.0,30,25,8.0,92.0
9223,52.0,30,25,8.0,92.0
9224,64.0,0,235,6.0,127.0
9225,71.0,0,235,5.0,127.0
9226,68.0,0,235,5.0,127.0
9227,59.0,0,235,6.0,127.0
9228,52.0,0,25,8.0,92.0
9229,52.0,30,25,8.0,92.0
9230,52.0,30,25,8.0,92.0
9231,52.0,30,25,8.0,92.0
9232,52.0,30,25,8.0,92.0
9233,52.0,30,25,8.0,92.0
9234,52.0,30,25,8.0,92.0
9235,52.0,30,25,8.0,92.0
9236,52.0,30,25,8.0,92.0
9237,52.0,30,25,8.0,92.0
9238,52.0,30,25,8.0,92.0
9239,52.0,30,25,8.0,92.0
9240,52.0,30,25,8.0,92.0
9241,52.0,30,25,8.0,92.0
9242,52.0,30,25,8.0,92.0
9243,52.0,30,25,8.0,92.0
9244,64.0,0,640,6.0,127.0
9245,71.0,0,640,5.0,108.0
9246,68.0,30,640,5.0,108.0
9247,59.0,0,640,6.0,127.0
9248,88.0,0,955,10.0,127.0
9249,52.0,0,1915,3.0,108.0
9250,40.0,0,1915,15.0,108.0
9251,56.0,0,1915,4.0,108.0
9252,68.0,0,1915,12.0,108.0
9253,52.0,0,1915,14.0,108.0
9254,47.0,0,1915,14.0,108.0
9255,40.0,0,1915,14.0,108.0
9256,64.0,0,1915,4.0,108.0
9257,52.0,0,1915,4.0,108.0
9258,59.0,0,1915,4.0,108.0
9259,68.0,0,1915,2.0,108.0
9260,76.0,0,1915,2.0,108.0
9261,88.0,0,1915,0.0,108.0
9262,59.0,0,1915,13.0,108.0
9263,40.0,0,1915,7.0,108.0
9264,52.0,30,235,8.0,92.0
9265,88.0,30,955,11.0,127.0
9266,76.0,0,1915,1.0,108.0
9267,40.0,0,1915,6.0,108.0
