,note,step,duration,channel,velocity
0,69.0,0,192,0.0,88.0
1,62.0,192,192,0.0,88.0
2,65.0,192,192,0.0,88.0
3,69.0,192,192,0.0,88.0
4,70.0,192,192,0.0,88.0
5,69.0,192,96,0.0,88.0
6,67.0,96,96,0.0,88.0
7,65.0,192,0,0.0,88.0
8,64.0,48,48,0.0,88.0
9,65.0,48,48,0.0,88.0
10,67.0,48,48,0.0,88.0
11,62.0,0,192,0.0,88.0
12,69.0,48,192,0.0,88.0
13,69.0,0,48,0.0,88.0
14,70.0,48,48,0.0,72.0
15,69.0,48,48,0.0,72.0
16,57.0,192,192,0.0,88.0
17,68.0,48,48,0.0,72.0
18,69.0,0,192,0.0,72.0
19,60.0,48,192,0.0,88.0
20,69.0,192,48,0.0,72.0
21,70.0,48,48,0.0,72.0
22,69.0,48,48,0.0,72.0
23,64.0,0,192,0.0,88.0
24,68.0,48,48,0.0,72.0
25,69.0,0,96,0.0,72.0
26,74.0,96,96,0.0,72.0
27,65.0,48,192,0.0,88.0
28,67.0,96,96,0.0,72.0
29,64.0,0,96,0.0,88.0
30,62.0,0,96,0.0,88.0
31,70.0,0,0,0.0,72.0
32,64.0,96,96,0.0,72.0
33,61.0,96,192,0.0,88.0
34,61.0,0,48,0.0,88.0
35,69.0,96,96,0.0,72.0
36,57.0,48,48,0.0,88.0
37,59.0,0,48,0.0,88.0
38,67.0,0,0,0.0,72.0
39,61.0,48,48,0.0,88.0
40,62.0,48,192,0.0,88.0
41,65.0,96,96,0.0,72.0
42,62.0,96,48,0.0,72.0
43,60.0,48,48,0.0,72.0
44,62.0,48,48,0.0,72.0
45,64.0,48,48,0.0,72.0
46,70.0,0,192,0.0,72.0
47,70.0,0,96,0.0,72.0
48,69.0,96,96,0.0,72.0
49,65.0,96,0,0.0,72.0
50,64.0,48,48,0.0,72.0
51,65.0,48,48,0.0,72.0
52,74.0,0,192,0.0,72.0
53,67.0,48,48,0.0,72.0
54,74.0,48,96,0.0,72.0
55,57.0,0,192,0.0,88.0
56,72.0,96,96,0.0,72.0
57,69.0,0,0,0.0,72.0
58,67.0,48,48,0.0,72.0
59,65.0,48,48,0.0,72.0
60,64.0,48,48,0.0,72.0
61,70.0,96,192,0.0,72.0
62,50.0,0,192,0.0,88.0
63,70.0,0,96,0.0,72.0
64,69.0,96,48,0.0,72.0
65,53.0,0,192,0.0,88.0
66,67.0,48,48,0.0,72.0
67,62.0,48,192,0.0,72.0
68,62.0,48,48,0.0,72.0
69,64.0,48,48,0.0,72.0
70,62.0,48,48,0.0,72.0
71,65.0,0,192,0.0,72.0
72,57.0,0,192,0.0,88.0
73,61.0,48,48,0.0,72.0
74,65.0,0,48,0.0,72.0
75,62.0,48,96,0.0,72.0
76,77.0,48,48,0.0,72.0
77,76.0,0,48,0.0,72.0
78,67.0,48,96,0.0,72.0
79,74.0,48,48,0.0,72.0
80,58.0,0,192,0.0,88.0
81,76.0,0,48,0.0,72.0
82,61.0,0,96,0.0,72.0
83,77.0,48,48,0.0,72.0
84,57.0,48,96,0.0,88.0
85,79.0,0,48,0.0,72.0
86,55.0,48,96,0.0,88.0
87,64.0,48,0,0.0,72.0
88,76.0,48,48,0.0,72.0
89,57.0,96,96,0.0,72.0
90,81.0,0,192,0.0,72.0
91,53.0,0,192,0.0,88.0
92,53.0,0,48,0.0,88.0
93,52.0,48,48,0.0,88.0
94,53.0,0,48,0.0,88.0
95,62.0,48,0,0.0,72.0
96,55.0,48,48,0.0,88.0
97,69.0,48,96,0.0,72.0
98,63.0,48,48,0.0,72.0
99,62.0,48,48,0.0,72.0
100,50.0,0,192,0.0,88.0
101,57.0,48,0,0.0,72.0
102,61.0,48,48,0.0,72.0
103,58.0,48,48,0.0,72.0
104,62.0,0,96,0.0,72.0
105,57.0,48,48,0.0,72.0
106,74.0,48,0,0.0,72.0
107,45.0,0,192,0.0,88.0
108,56.0,48,48,0.0,72.0
109,65.0,0,384,0.0,72.0
110,64.0,0,96,0.0,72.0
111,72.0,0,48,0.0,72.0
112,76.0,96,96,0.0,72.0
113,48.0,0,192,0.0,88.0
114,71.0,48,48,0.0,72.0
115,57.0,0,0,0.0,72.0
116,69.0,0,48,0.0,72.0
117,58.0,0,48,0.0,72.0
118,67.0,48,48,0.0,72.0
119,65.0,48,48,0.0,72.0
120,57.0,0,48,0.0,72.0
121,64.0,48,48,0.0,72.0
122,56.0,0,48,0.0,72.0
123,52.0,48,192,0.0,88.0
124,72.0,0,0,0.0,72.0
125,72.0,48,48,0.0,72.0
126,57.0,48,96,0.0,72.0
127,62.0,0,0,0.0,72.0
128,71.0,48,48,0.0,72.0
129,53.0,0,192,0.0,88.0
130,69.0,48,48,0.0,72.0
131,71.0,0,48,0.0,72.0
132,67.0,0,144,0.0,72.0
133,55.0,48,96,0.0,72.0
134,52.0,0,96,0.0,88.0
135,69.0,0,48,0.0,72.0
136,73.0,48,48,0.0,72.0
137,67.0,0,48,0.0,72.0
138,74.0,0,96,0.0,72.0
139,65.0,48,48,0.0,72.0
140,50.0,0,96,0.0,88.0
141,58.0,48,0,0.0,72.0
142,67.0,0,48,0.0,72.0
143,69.0,48,48,0.0,72.0
144,70.0,48,48,0.0,72.0
145,52.0,0,96,0.0,72.0
146,49.0,48,0,0.0,88.0
147,76.0,0,192,0.0,72.0
148,67.0,48,48,0.0,72.0
149,76.0,0,48,0.0,72.0
150,73.0,48,48,0.0,72.0
151,57.0,0,96,0.0,72.0
152,45.0,0,48,0.0,88.0
153,74.0,48,48,0.0,72.0
154,47.0,0,48,0.0,88.0
155,49.0,0,48,0.0,88.0
156,55.0,0,96,0.0,72.0
157,76.0,48,48,0.0,72.0
158,64.0,0,192,0.0,72.0
159,53.0,48,48,0.0,72.0
160,52.0,48,48,0.0,72.0
161,64.0,0,96,0.0,72.0
162,53.0,48,48,0.0,72.0
163,62.0,0,48,0.0,72.0
164,64.0,0,48,0.0,72.0
165,55.0,48,48,0.0,72.0
166,50.0,0,192,0.0,88.0
167,50.0,0,48,0.0,72.0
168,48.0,48,48,0.0,72.0
169,69.0,0,288,0.0,72.0
170,57.0,48,96,0.0,72.0
171,46.0,0,48,0.0,72.0
172,74.0,48,96,0.0,72.0
173,65.0,0,0,0.0,72.0
174,45.0,48,48,0.0,72.0
175,50.0,48,48,0.0,72.0
176,52.0,48,48,0.0,72.0
177,53.0,48,48,0.0,72.0
178,67.0,0,96,0.0,72.0
179,43.0,0,192,0.0,72.0
180,43.0,0,48,0.0,72.0
181,46.0,48,48,0.0,72.0
182,70.0,48,288,0.0,72.0
183,55.0,0,96,0.0,72.0
184,45.0,48,48,0.0,72.0
185,72.0,0,96,0.0,72.0
186,43.0,48,48,0.0,72.0
187,64.0,48,192,0.0,72.0
188,64.0,0,96,0.0,72.0
189,49.0,48,48,0.0,72.0
190,50.0,48,48,0.0,72.0
191,41.0,48,0,0.0,72.0
192,65.0,0,96,0.0,72.0
193,52.0,48,48,0.0,72.0
194,69.0,48,288,0.0,72.0
195,45.0,48,48,0.0,72.0
196,53.0,0,96,0.0,72.0
197,43.0,48,48,0.0,72.0
198,70.0,0,96,0.0,72.0
199,41.0,48,48,0.0,72.0
200,62.0,0,0,0.0,72.0
201,47.0,48,48,0.0,72.0
202,49.0,0,48,0.0,72.0
203,40.0,0,192,0.0,72.0
204,50.0,48,48,0.0,72.0
205,64.0,48,96,0.0,72.0
206,40.0,48,48,0.0,72.0
207,67.0,48,288,0.0,72.0
208,52.0,0,96,0.0,72.0
209,43.0,48,48,0.0,72.0
210,41.0,48,48,0.0,72.0
211,40.0,48,48,0.0,72.0
212,61.0,0,192,0.0,72.0
213,69.0,0,96,0.0,72.0
214,38.0,0,96,0.0,72.0
215,57.0,48,48,0.0,72.0
216,58.0,0,48,0.0,72.0
217,65.0,0,192,0.0,72.0
218,62.0,48,192,0.0,72.0
219,50.0,48,96,0.0,72.0
220,60.0,48,48,0.0,72.0
221,72.0,48,48,0.0,72.0
222,46.0,48,96,0.0,72.0
223,70.0,48,48,0.0,72.0
224,69.0,48,48,0.0,72.0
225,43.0,0,96,0.0,72.0
226,62.0,48,0,0.0,72.0
227,59.0,48,48,0.0,72.0
228,40.0,0,96,0.0,72.0
229,60.0,0,48,0.0,72.0
230,62.0,48,48,0.0,72.0
231,52.0,48,96,0.0,72.0
232,67.0,48,0,0.0,72.0
233,74.0,48,48,0.0,72.0
234,48.0,0,96,0.0,72.0
235,72.0,48,48,0.0,72.0
236,45.0,0,96,0.0,72.0
237,70.0,48,48,0.0,72.0
238,64.0,0,0,0.0,72.0
239,61.0,48,48,0.0,72.0
240,41.0,48,96,0.0,72.0
241,62.0,48,48,0.0,72.0
242,69.0,48,0,0.0,72.0
243,53.0,0,96,0.0,72.0
244,64.0,48,48,0.0,72.0
245,50.0,0,96,0.0,72.0
246,75.0,48,48,0.0,72.0
247,74.0,0,48,0.0,72.0
248,46.0,48,96,0.0,72.0
249,65.0,48,0,0.0,72.0
250,72.0,48,48,0.0,72.0
251,65.0,48,48,0.0,72.0
252,41.0,0,96,0.0,72.0
253,64.0,0,48,0.0,72.0
254,55.0,48,96,0.0,72.0
255,70.0,0,192,0.0,72.0
256,62.0,48,48,0.0,72.0
257,70.0,0,48,0.0,72.0
258,52.0,0,96,0.0,72.0
259,70.0,48,48,0.0,72.0
260,69.0,0,48,0.0,72.0
261,60.0,48,0,0.0,72.0
262,48.0,48,96,0.0,72.0
263,67.0,48,48,0.0,72.0
264,45.0,0,48,0.0,72.0
265,65.0,0,96,0.0,72.0
266,41.0,48,48,0.0,72.0
267,43.0,0,48,0.0,72.0
268,45.0,48,48,0.0,72.0
269,63.0,48,96,0.0,72.0
270,72.0,0,192,0.0,88.0
271,46.0,0,48,0.0,72.0
272,48.0,48,48,0.0,72.0
273,50.0,48,48,0.0,72.0
274,62.0,0,192,0.0,72.0
275,58.0,0,96,0.0,72.0
276,65.0,48,192,0.0,88.0
277,52.0,48,48,0.0,72.0
278,60.0,48,48,0.0,72.0
279,57.0,0,96,0.0,72.0
280,66.0,48,48,0.0,72.0
281,65.0,0,48,0.0,72.0
282,64.0,48,48,0.0,72.0
283,60.0,48,96,0.0,72.0
284,53.0,0,0,0.0,72.0
285,69.0,0,192,0.0,88.0
286,51.0,48,48,0.0,72.0
287,50.0,48,48,0.0,72.0
288,48.0,48,48,0.0,72.0
289,65.0,48,192,0.0,72.0
290,72.0,0,192,0.0,88.0
291,57.0,0,0,0.0,72.0
292,65.0,0,48,0.0,72.0
293,57.0,48,48,0.0,72.0
294,72.0,0,48,0.0,72.0
295,55.0,48,48,0.0,72.0
296,70.0,0,48,0.0,72.0
297,53.0,48,48,0.0,72.0
298,46.0,0,192,0.0,72.0
299,74.0,48,192,0.0,88.0
300,69.0,0,48,0.0,72.0
301,67.0,0,48,0.0,72.0
302,52.0,48,48,0.0,72.0
303,50.0,48,48,0.0,72.0
304,72.0,0,96,0.0,88.0
305,69.0,0,48,0.0,72.0
306,67.0,0,48,0.0,72.0
307,48.0,0,192,0.0,72.0
308,70.0,0,96,0.0,88.0
309,52.0,48,96,0.0,72.0
310,65.0,48,48,0.0,72.0
311,64.0,0,48,0.0,72.0
312,52.0,0,96,0.0,72.0
313,62.0,48,48,0.0,72.0
314,57.0,48,48,0.0,72.0
315,55.0,48,48,0.0,72.0
316,64.0,0,96,0.0,72.0
317,49.0,0,192,0.0,72.0
318,69.0,0,0,0.0,88.0
319,53.0,48,48,0.0,72.0
320,52.0,48,48,0.0,72.0
321,67.0,0,48,0.0,88.0
322,62.0,0,96,0.0,72.0
323,69.0,48,48,0.0,88.0
324,71.0,48,48,0.0,88.0
325,50.0,0,192,0.0,72.0
326,53.0,48,0,0.0,72.0
327,52.0,96,48,0.0,72.0
328,67.0,0,192,0.0,88.0
329,72.0,0,192,0.0,88.0
330,48.0,0,192,0.0,72.0
331,50.0,48,48,0.0,72.0
332,52.0,0,48,0.0,72.0
333,53.0,48,48,0.0,72.0
334,60.0,48,192,0.0,88.0
335,52.0,48,96,0.0,72.0
336,55.0,0,0,0.0,72.0
337,48.0,0,96,0.0,72.0
338,57.0,48,48,0.0,72.0
339,55.0,48,48,0.0,72.0
340,53.0,48,48,0.0,72.0
341,64.0,96,192,0.0,88.0
342,76.0,0,96,0.0,72.0
343,52.0,48,48,0.0,72.0
344,50.0,48,48,0.0,72.0
345,58.0,0,192,0.0,72.0
346,57.0,0,48,0.0,72.0
347,51.0,0,0,0.0,72.0
348,72.0,48,0,0.0,72.0
349,55.0,48,48,0.0,72.0
350,67.0,0,192,0.0,88.0
351,51.0,48,48,0.0,72.0
352,71.0,48,48,0.0,72.0
353,50.0,0,48,0.0,72.0
354,69.0,0,192,0.0,88.0
355,48.0,0,48,0.0,72.0
356,72.0,48,48,0.0,72.0
357,53.0,0,192,0.0,72.0
358,47.0,48,48,0.0,72.0
359,43.0,48,48,0.0,72.0
360,67.0,0,96,0.0,88.0
361,45.0,48,48,0.0,72.0
362,65.0,0,96,0.0,88.0
363,74.0,0,0,0.0,72.0
364,47.0,48,48,0.0,72.0
365,67.0,48,48,0.0,72.0
366,48.0,0,96,0.0,72.0
367,69.0,0,48,0.0,72.0
368,71.0,48,48,0.0,72.0
369,64.0,48,192,0.0,88.0
370,46.0,48,96,0.0,72.0
371,64.0,0,48,0.0,88.0
372,62.0,48,48,0.0,88.0
373,64.0,48,48,0.0,88.0
374,45.0,0,192,0.0,72.0
375,72.0,48,192,0.0,72.0
376,66.0,48,48,0.0,88.0
377,43.0,48,48,0.0,72.0
378,72.0,0,96,0.0,72.0
379,45.0,48,48,0.0,72.0
380,46.0,48,48,0.0,72.0
381,62.0,0,192,0.0,88.0
382,50.0,48,48,0.0,72.0
383,67.0,0,0,0.0,72.0
384,74.0,0,96,0.0,72.0
385,55.0,0,96,0.0,88.0
386,68.0,48,48,0.0,72.0
387,67.0,48,48,0.0,72.0
388,70.0,0,192,0.0,72.0
389,66.0,48,48,0.0,72.0
390,74.0,96,96,0.0,72.0
391,67.0,48,192,0.0,72.0
392,58.0,0,192,0.0,88.0
393,67.0,0,48,0.0,72.0
394,68.0,48,48,0.0,72.0
395,70.0,96,96,0.0,72.0
396,67.0,48,48,0.0,72.0
397,66.0,48,48,0.0,72.0
398,62.0,0,192,0.0,88.0
399,82.0,0,0,0.0,72.0
400,67.0,48,96,0.0,72.0
401,81.0,96,48,0.0,72.0
402,63.0,0,192,0.0,88.0
403,79.0,48,48,0.0,72.0
404,72.0,0,96,0.0,72.0
405,81.0,0,48,0.0,72.0
406,66.0,48,96,0.0,72.0
407,62.0,0,96,0.0,88.0
408,79.0,48,48,0.0,72.0
409,78.0,0,48,0.0,72.0
410,60.0,48,96,0.0,88.0
411,69.0,48,0,0.0,72.0
412,81.0,48,48,0.0,72.0
413,68.0,48,48,0.0,72.0
414,67.0,48,48,0.0,72.0
415,58.0,0,0,0.0,88.0
416,66.0,48,48,0.0,72.0
417,74.0,0,192,0.0,72.0
418,57.0,48,48,0.0,88.0
419,58.0,0,48,0.0,88.0
420,74.0,48,96,0.0,72.0
421,60.0,48,48,0.0,88.0
422,67.0,48,192,0.0,72.0
423,67.0,0,48,0.0,72.0
424,62.0,0,48,0.0,88.0
425,66.0,48,48,0.0,72.0
426,63.0,0,48,0.0,72.0
427,70.0,0,0,0.0,72.0
428,62.0,0,48,0.0,72.0
429,61.0,48,48,0.0,72.0
430,55.0,0,192,0.0,88.0
431,62.0,48,48,0.0,72.0
432,67.0,0,0,0.0,72.0
433,52.0,48,48,0.0,72.0
434,53.0,48,48,0.0,72.0
435,65.0,0,48,0.0,72.0
436,69.0,0,192,0.0,72.0
437,64.0,48,48,0.0,72.0
438,55.0,0,48,0.0,72.0
439,50.0,0,192,0.0,88.0
440,57.0,0,48,0.0,72.0
441,50.0,48,48,0.0,72.0
442,62.0,48,0,0.0,72.0
443,81.0,0,96,0.0,72.0
444,53.0,0,192,0.0,88.0
445,63.0,48,48,0.0,72.0
446,62.0,0,48,0.0,72.0
447,61.0,48,48,0.0,72.0
448,77.0,96,192,0.0,72.0
449,57.0,0,192,0.0,88.0
450,69.0,48,96,0.0,72.0
451,62.0,0,48,0.0,72.0
452,65.0,48,48,0.0,72.0
453,64.0,0,48,0.0,72.0
454,70.0,0,96,0.0,72.0
455,58.0,48,192,0.0,88.0
456,79.0,48,96,0.0,72.0
457,62.0,48,48,0.0,72.0
458,73.0,0,48,0.0,72.0
459,57.0,0,96,0.0,88.0
460,69.0,0,96,0.0,72.0
461,74.0,48,48,0.0,72.0
462,64.0,48,144,0.0,72.0
463,70.0,48,48,0.0,72.0
464,55.0,0,96,0.0,88.0
465,61.0,48,96,0.0,72.0
466,76.0,48,0,0.0,72.0
467,69.0,0,48,0.0,72.0
468,69.0,0,48,0.0,72.0
469,67.0,48,48,0.0,72.0
470,61.0,0,96,0.0,72.0
471,65.0,0,48,0.0,72.0
472,62.0,0,48,0.0,72.0
473,71.0,48,48,0.0,72.0
474,67.0,48,48,0.0,72.0
475,53.0,0,192,0.0,88.0
476,73.0,0,48,0.0,72.0
477,64.0,0,48,0.0,72.0
478,53.0,0,48,0.0,88.0
479,52.0,48,48,0.0,88.0
480,53.0,48,48,0.0,88.0
481,74.0,48,0,0.0,72.0
482,55.0,48,48,0.0,88.0
483,69.0,48,192,0.0,72.0
484,65.0,0,0,0.0,72.0
485,69.0,0,48,0.0,72.0
486,68.0,0,48,0.0,72.0
487,71.0,48,48,0.0,72.0
488,72.0,0,48,0.0,72.0
489,69.0,48,96,0.0,72.0
490,64.0,0,96,0.0,72.0
491,74.0,48,48,0.0,72.0
492,57.0,0,192,0.0,88.0
493,64.0,48,48,0.0,72.0
494,65.0,0,48,0.0,72.0
495,76.0,0,192,0.0,72.0
496,60.0,48,0,0.0,72.0
497,67.0,48,48,0.0,72.0
498,57.0,48,96,0.0,72.0
499,76.0,0,48,0.0,72.0
500,79.0,48,48,0.0,72.0
501,77.0,0,48,0.0,72.0
502,76.0,48,48,0.0,72.0
503,62.0,48,96,0.0,72.0
504,69.0,0,192,0.0,72.0
505,53.0,0,192,0.0,72.0
506,62.0,48,48,0.0,72.0
507,64.0,0,48,0.0,72.0
508,59.0,48,192,0.0,72.0
509,65.0,48,48,0.0,72.0
510,55.0,48,96,0.0,72.0
511,74.0,0,0,0.0,72.0
512,77.0,48,48,0.0,72.0
513,59.0,0,96,0.0,72.0
514,76.0,48,48,0.0,72.0
515,52.0,0,192,0.0,72.0
516,67.0,48,192,0.0,72.0
517,60.0,0,96,0.0,72.0
518,74.0,48,48,0.0,72.0
519,60.0,48,48,0.0,72.0
520,62.0,48,48,0.0,72.0
521,53.0,0,96,0.0,72.0
522,64.0,48,48,0.0,72.0
523,57.0,48,0,0.0,72.0
524,72.0,0,192,0.0,72.0
525,72.0,0,48,0.0,72.0
526,76.0,48,48,0.0,72.0
527,74.0,0,48,0.0,72.0
528,50.0,48,0,0.0,72.0
529,59.0,48,96,0.0,72.0
530,72.0,48,48,0.0,72.0
531,65.0,0,0,0.0,72.0
532,64.0,48,48,0.0,72.0
533,48.0,0,48,0.0,72.0
534,47.0,0,48,0.0,72.0
535,62.0,48,48,0.0,72.0
536,50.0,48,48,0.0,72.0
537,65.0,0,48,0.0,72.0
538,56.0,0,192,0.0,72.0
539,71.0,0,0,0.0,72.0
540,56.0,0,96,0.0,72.0
541,69.0,48,48,0.0,72.0
542,68.0,0,48,0.0,72.0
543,48.0,0,144,0.0,72.0
544,71.0,48,48,0.0,72.0
545,47.0,0,48,0.0,72.0
546,69.0,0,48,0.0,72.0
547,48.0,48,96,0.0,72.0
548,71.0,48,48,0.0,72.0
549,52.0,48,192,0.0,72.0
550,64.0,0,0,0.0,72.0
551,69.0,48,48,0.0,72.0
552,45.0,48,96,0.0,72.0
553,57.0,0,96,0.0,72.0
554,72.0,0,96,0.0,72.0
555,72.0,0,48,0.0,72.0
556,57.0,0,96,0.0,72.0
557,71.0,48,48,0.0,72.0
558,65.0,0,96,0.0,72.0
559,50.0,48,144,0.0,72.0
560,69.0,0,48,0.0,72.0
561,48.0,48,48,0.0,72.0
562,72.0,0,48,0.0,72.0
563,71.0,0,48,0.0,72.0
564,53.0,48,192,0.0,72.0
565,69.0,0,0,0.0,72.0
566,50.0,48,0,0.0,72.0
567,72.0,48,48,0.0,72.0
568,71.0,48,48,0.0,72.0
569,47.0,0,96,0.0,72.0
570,74.0,0,0,0.0,72.0
571,59.0,48,96,0.0,72.0
572,68.0,0,96,0.0,72.0
573,72.0,48,48,0.0,72.0
574,71.0,0,48,0.0,72.0
575,52.0,0,144,0.0,72.0
576,50.0,0,48,0.0,72.0
577,74.0,48,48,0.0,72.0
578,72.0,0,48,0.0,72.0
579,71.0,0,0,0.0,72.0
580,52.0,48,96,0.0,72.0
581,56.0,48,0,0.0,72.0
582,74.0,48,48,0.0,72.0
583,72.0,48,48,0.0,72.0
584,48.0,0,96,0.0,72.0
585,76.0,48,0,0.0,72.0
586,57.0,0,96,0.0,72.0
587,74.0,48,48,0.0,72.0
588,73.0,0,48,0.0,72.0
589,53.0,0,144,0.0,72.0
590,52.0,48,48,0.0,72.0
591,76.0,0,48,0.0,72.0
592,64.0,48,96,0.0,72.0
593,74.0,0,48,0.0,72.0
594,57.0,0,96,0.0,72.0
595,69.0,0,288,0.0,72.0
596,76.0,48,48,0.0,72.0
597,53.0,48,96,0.0,72.0
598,68.0,0,48,0.0,72.0
599,77.0,0,96,0.0,72.0
600,69.0,48,48,0.0,72.0
601,50.0,0,96,0.0,72.0
602,62.0,0,0,0.0,72.0
603,60.0,48,48,0.0,72.0
604,77.0,48,96,0.0,72.0
605,71.0,0,96,0.0,72.0
606,59.0,48,48,0.0,72.0
607,74.0,0,96,0.0,72.0
608,56.0,0,192,0.0,72.0
609,62.0,48,48,0.0,72.0
610,60.0,0,48,0.0,72.0
611,68.0,48,96,0.0,72.0
612,59.0,48,48,0.0,72.0
613,76.0,0,192,0.0,72.0
614,57.0,0,48,0.0,72.0
615,71.0,48,96,0.0,72.0
616,56.0,48,48,0.0,72.0
617,52.0,0,96,0.0,72.0
618,74.0,0,96,0.0,72.0
619,71.0,0,48,0.0,72.0
620,72.0,48,0,0.0,72.0
621,57.0,0,96,0.0,72.0
622,69.0,48,48,0.0,72.0
623,53.0,0,96,0.0,72.0
624,59.0,48,48,0.0,72.0
625,60.0,0,24,0.0,72.0
626,59.0,24,24,0.0,72.0
627,60.0,24,24,0.0,72.0
628,50.0,48,96,0.0,72.0
629,77.0,0,48,0.0,72.0
630,81.0,0,192,0.0,72.0
631,59.0,24,24,0.0,72.0
632,60.0,0,24,0.0,72.0
633,76.0,0,48,0.0,72.0
634,59.0,24,24,0.0,72.0
635,57.0,24,24,0.0,72.0
636,52.0,0,96,0.0,72.0
637,74.0,0,0,0.0,72.0
638,59.0,24,24,0.0,72.0
639,80.0,24,96,0.0,72.0
640,74.0,48,0,0.0,72.0
641,81.0,0,96,0.0,72.0
642,72.0,0,48,0.0,72.0
643,76.0,48,96,0.0,72.0
644,57.0,0,192,0.0,72.0
645,45.0,24,192,0.0,72.0
646,71.0,48,48,0.0,72.0
647,62.0,48,48,0.0,72.0
648,60.0,48,48,0.0,72.0
649,72.0,0,192,0.0,72.0
650,58.0,48,48,0.0,72.0
651,69.0,48,192,0.0,72.0
652,57.0,0,0,0.0,72.0
653,70.0,48,48,0.0,72.0
654,69.0,0,48,0.0,72.0
655,72.0,48,96,0.0,72.0
656,53.0,48,192,0.0,72.0
657,67.0,48,48,0.0,72.0
658,58.0,48,48,0.0,72.0
659,57.0,0,48,0.0,72.0
660,55.0,48,48,0.0,72.0
661,69.0,48,192,0.0,72.0
662,53.0,48,0,0.0,72.0
663,65.0,0,192,0.0,72.0
664,79.0,48,48,0.0,72.0
665,77.0,0,48,0.0,72.0
666,50.0,0,192,0.0,72.0
667,76.0,48,48,0.0,72.0
668,81.0,48,96,0.0,72.0
669,67.0,48,48,0.0,72.0
670,65.0,0,48,0.0,72.0
671,62.0,48,96,0.0,72.0
672,77.0,48,192,0.0,72.0
673,64.0,48,48,0.0,72.0
674,74.0,0,192,0.0,72.0
675,75.0,48,48,0.0,72.0
676,74.0,48,48,0.0,72.0
677,72.0,48,48,0.0,72.0
678,62.0,0,192,0.0,72.0
679,58.0,48,192,0.0,72.0
680,77.0,0,96,0.0,72.0
681,63.0,48,48,0.0,72.0
682,62.0,48,48,0.0,72.0
683,58.0,0,96,0.0,72.0
684,70.0,0,192,0.0,72.0
685,60.0,48,48,0.0,72.0
686,74.0,48,192,0.0,72.0
687,58.0,0,96,0.0,72.0
688,84.0,48,48,0.0,72.0
689,82.0,48,48,0.0,72.0
690,55.0,48,192,0.0,72.0
691,81.0,48,48,0.0,72.0
692,67.0,0,96,0.0,72.0
693,79.0,48,48,0.0,72.0
694,77.0,48,48,0.0,72.0
695,57.0,0,48,0.0,72.0
696,55.0,0,48,0.0,72.0
697,76.0,48,48,0.0,72.0
698,53.0,48,48,0.0,72.0
699,64.0,0,192,0.0,72.0
700,74.0,0,48,0.0,72.0
701,70.0,0,96,0.0,72.0
702,72.0,0,96,0.0,72.0
703,60.0,48,48,0.0,72.0
704,58.0,0,48,0.0,72.0
705,52.0,48,192,0.0,72.0
706,57.0,48,48,0.0,72.0
707,74.0,48,96,0.0,72.0
708,67.0,0,192,0.0,72.0
709,67.0,0,48,0.0,72.0
710,69.0,48,48,0.0,72.0
711,53.0,0,48,0.0,72.0
712,52.0,48,48,0.0,72.0
713,67.0,0,48,0.0,72.0
714,55.0,48,0,0.0,72.0
715,70.0,0,192,0.0,72.0
716,65.0,0,48,0.0,72.0
717,50.0,48,48,0.0,72.0
718,64.0,0,48,0.0,72.0
719,70.0,0,96,0.0,72.0
720,72.0,48,48,0.0,72.0
721,70.0,0,48,0.0,72.0
722,79.0,48,96,0.0,72.0
723,69.0,48,48,0.0,72.0
724,48.0,0,192,0.0,72.0
725,67.0,0,48,0.0,72.0
726,62.0,48,48,0.0,72.0
727,70.0,0,48,0.0,72.0
728,60.0,48,48,0.0,72.0
729,69.0,0,48,0.0,72.0
730,74.0,48,48,0.0,72.0
731,76.0,48,0,0.0,72.0
732,58.0,0,48,0.0,72.0
733,72.0,0,96,0.0,72.0
734,81.0,48,48,0.0,72.0
735,79.0,0,48,0.0,72.0
736,64.0,48,96,0.0,72.0
737,77.0,48,48,0.0,72.0
738,57.0,0,192,0.0,72.0
739,76.0,0,48,0.0,72.0
740,58.0,0,48,0.0,72.0
741,74.0,48,48,0.0,72.0
742,57.0,48,48,0.0,72.0
743,72.0,0,48,0.0,72.0
744,60.0,0,0,0.0,72.0
745,70.0,48,48,0.0,72.0
746,55.0,0,48,0.0,72.0
747,69.0,0,48,0.0,72.0
748,57.0,0,96,0.0,72.0
749,77.0,48,48,0.0,72.0
750,76.0,48,48,0.0,72.0
751,75.0,48,48,0.0,72.0
752,68.0,0,96,0.0,72.0
753,53.0,48,192,0.0,88.0
754,59.0,0,96,0.0,72.0
755,67.0,48,48,0.0,72.0
756,60.0,0,96,0.0,72.0
757,73.0,48,48,0.0,72.0
758,72.0,0,48,0.0,72.0
759,64.0,48,96,0.0,72.0
760,71.0,48,48,0.0,72.0
761,76.0,48,0,0.0,72.0
762,48.0,0,192,0.0,88.0
763,77.0,48,48,0.0,72.0
764,76.0,48,48,0.0,72.0
765,72.0,0,192,0.0,72.0
766,75.0,48,48,0.0,72.0
767,60.0,0,192,0.0,72.0
768,52.0,0,192,0.0,88.0
769,72.0,0,48,0.0,72.0
770,73.0,48,48,0.0,72.0
771,72.0,0,48,0.0,72.0
772,76.0,0,192,0.0,72.0
773,71.0,48,48,0.0,72.0
774,55.0,48,192,0.0,88.0
775,64.0,48,96,0.0,72.0
776,76.0,48,48,0.0,72.0
777,79.0,48,48,0.0,72.0
778,78.0,48,48,0.0,72.0
779,76.0,48,48,0.0,72.0
780,60.0,0,192,0.0,72.0
781,58.0,0,192,0.0,88.0
782,78.0,0,48,0.0,72.0
783,57.0,48,96,0.0,88.0
784,79.0,48,48,0.0,72.0
785,72.0,0,0,0.0,72.0
786,55.0,0,96,0.0,88.0
787,63.0,48,96,0.0,72.0
788,72.0,48,48,0.0,72.0
789,81.0,0,96,0.0,72.0
790,72.0,0,48,0.0,72.0
791,70.0,48,48,0.0,72.0
792,69.0,48,48,0.0,72.0
793,57.0,48,192,0.0,72.0
794,54.0,0,192,0.0,88.0
795,67.0,48,48,0.0,72.0
796,54.0,0,48,0.0,88.0
797,50.0,48,48,0.0,88.0
798,74.0,0,0,0.0,72.0
799,52.0,48,48,0.0,88.0
800,69.0,48,192,0.0,72.0
801,54.0,48,48,0.0,88.0
802,69.0,48,48,0.0,72.0
803,68.0,48,48,0.0,72.0
804,55.0,0,96,0.0,88.0
805,67.0,48,48,0.0,72.0
806,70.0,48,0,0.0,72.0
807,62.0,0,192,0.0,88.0
808,50.0,0,96,0.0,72.0
809,66.0,48,48,0.0,72.0
810,75.0,48,48,0.0,72.0
811,74.0,48,48,0.0,72.0
812,46.0,0,192,0.0,72.0
813,67.0,0,192,0.0,72.0
814,55.0,0,192,0.0,88.0
815,73.0,48,48,0.0,72.0
816,67.0,0,48,0.0,72.0
817,68.0,48,48,0.0,72.0
818,67.0,48,48,0.0,72.0
819,50.0,0,96,0.0,72.0
820,58.0,48,192,0.0,88.0
821,74.0,0,192,0.0,72.0
822,66.0,48,48,0.0,72.0
823,74.0,0,48,0.0,72.0
824,75.0,48,48,0.0,72.0
825,67.0,0,96,0.0,72.0
826,74.0,48,48,0.0,72.0
827,62.0,48,192,0.0,88.0
828,46.0,0,192,0.0,72.0
829,73.0,48,48,0.0,72.0
830,68.0,0,0,0.0,72.0
831,69.0,0,48,0.0,72.0
832,48.0,48,48,0.0,72.0
833,47.0,0,48,0.0,72.0
834,68.0,48,48,0.0,72.0
835,69.0,0,48,0.0,72.0
836,65.0,48,192,0.0,88.0
837,74.0,0,192,0.0,72.0
838,45.0,48,48,0.0,72.0
839,44.0,0,48,0.0,72.0
840,40.0,48,48,0.0,72.0
841,64.0,0,96,0.0,88.0
842,42.0,0,48,0.0,72.0
843,71.0,48,192,0.0,72.0
844,44.0,48,48,0.0,72.0
845,62.0,48,96,0.0,88.0
846,45.0,0,48,0.0,72.0
847,71.0,48,96,0.0,72.0
848,57.0,48,48,0.0,72.0
849,55.0,0,48,0.0,72.0
850,53.0,48,48,0.0,72.0
851,61.0,0,0,0.0,88.0
852,70.0,48,96,0.0,72.0
853,52.0,0,48,0.0,72.0
854,57.0,0,48,0.0,88.0
855,67.0,48,96,0.0,72.0
856,53.0,48,48,0.0,72.0
857,55.0,0,48,0.0,72.0
858,59.0,48,48,0.0,88.0
859,52.0,48,48,0.0,72.0
860,61.0,0,48,0.0,88.0
861,64.0,0,96,0.0,72.0
862,53.0,0,48,0.0,72.0
863,62.0,48,96,0.0,88.0
864,55.0,48,48,0.0,72.0
865,53.0,48,48,0.0,72.0
866,57.0,0,96,0.0,72.0
867,52.0,48,48,0.0,72.0
868,50.0,0,48,0.0,72.0
869,69.0,0,288,0.0,72.0
870,48.0,48,48,0.0,72.0
871,46.0,48,48,0.0,72.0
872,45.0,48,48,0.0,72.0
873,65.0,0,0,0.0,72.0
874,62.0,0,96,0.0,72.0
875,43.0,48,48,0.0,72.0
876,45.0,48,48,0.0,72.0
877,46.0,0,48,0.0,72.0
878,43.0,48,48,0.0,72.0
879,55.0,48,96,0.0,72.0
880,48.0,48,48,0.0,72.0
881,70.0,0,288,0.0,72.0
882,50.0,48,48,0.0,72.0
883,52.0,48,48,0.0,72.0
884,48.0,48,48,0.0,72.0
885,64.0,48,0,0.0,72.0
886,60.0,0,96,0.0,72.0
887,53.0,0,48,0.0,72.0
888,55.0,48,48,0.0,72.0
889,57.0,48,48,0.0,72.0
890,53.0,48,48,0.0,72.0
891,65.0,0,96,0.0,72.0
892,58.0,0,48,0.0,72.0
893,69.0,0,288,0.0,72.0
894,57.0,48,48,0.0,72.0
895,55.0,0,48,0.0,72.0
896,62.0,48,192,0.0,72.0
897,70.0,48,96,0.0,72.0
898,53.0,48,48,0.0,72.0
899,62.0,0,48,0.0,72.0
900,52.0,48,48,0.0,72.0
901,50.0,0,48,0.0,72.0
902,65.0,48,48,0.0,72.0
903,49.0,48,48,0.0,72.0
904,64.0,0,48,0.0,72.0
905,62.0,48,48,0.0,72.0
906,67.0,0,0,0.0,72.0
907,47.0,0,48,0.0,72.0
908,45.0,0,48,0.0,72.0
909,43.0,0,48,0.0,72.0
910,70.0,48,48,0.0,72.0
911,69.0,48,48,0.0,72.0
912,41.0,0,48,0.0,72.0
913,67.0,48,48,0.0,72.0
914,40.0,0,48,0.0,72.0
915,61.0,0,0,0.0,72.0
916,41.0,0,96,0.0,72.0
917,63.0,48,48,0.0,72.0
918,62.0,0,48,0.0,72.0
919,69.0,48,192,0.0,88.0
920,57.0,48,96,0.0,72.0
921,61.0,48,48,0.0,72.0
922,62.0,0,48,0.0,88.0
923,53.0,48,96,0.0,72.0
924,67.0,48,48,0.0,72.0
925,65.0,0,48,0.0,72.0
926,62.0,48,0,0.0,72.0
927,50.0,48,96,0.0,72.0
928,64.0,48,48,0.0,72.0
929,63.0,48,48,0.0,72.0
930,62.0,0,48,0.0,72.0
931,61.0,48,48,0.0,72.0
932,65.0,0,192,0.0,88.0
933,45.0,48,96,0.0,72.0
934,62.0,48,48,0.0,72.0
935,67.0,48,48,0.0,72.0
936,41.0,0,96,0.0,72.0
937,65.0,48,48,0.0,72.0
938,64.0,48,48,0.0,72.0
939,38.0,0,96,0.0,72.0
940,69.0,0,192,0.0,88.0
941,63.0,48,48,0.0,72.0
942,55.0,48,48,0.0,72.0
943,64.0,0,48,0.0,72.0
944,63.0,48,48,0.0,72.0
945,54.0,0,48,0.0,72.0
946,72.0,0,192,0.0,88.0
947,52.0,48,48,0.0,72.0
948,64.0,0,48,0.0,72.0
949,66.0,48,48,0.0,72.0
950,51.0,0,48,0.0,72.0
951,64.0,48,48,0.0,72.0
952,49.0,0,48,0.0,72.0
953,71.0,0,96,0.0,88.0
954,66.0,48,48,0.0,72.0
955,51.0,0,48,0.0,72.0
956,69.0,0,96,0.0,88.0
957,63.0,48,48,0.0,72.0
958,47.0,0,48,0.0,72.0
959,59.0,48,48,0.0,72.0
960,60.0,48,48,0.0,72.0
961,52.0,0,96,0.0,72.0
962,59.0,48,48,0.0,72.0
963,68.0,0,192,0.0,88.0
964,60.0,48,48,0.0,72.0
965,40.0,0,96,0.0,72.0
966,68.0,48,48,0.0,88.0
967,64.0,48,48,0.0,88.0
968,62.0,0,96,0.0,72.0
969,47.0,0,96,0.0,72.0
970,66.0,48,48,0.0,88.0
971,68.0,48,48,0.0,88.0
972,50.0,0,96,0.0,72.0
973,59.0,0,96,0.0,72.0
974,69.0,48,48,0.0,88.0
975,48.0,0,96,0.0,72.0
976,57.0,0,96,0.0,72.0
977,70.0,48,48,0.0,72.0
978,69.0,48,48,0.0,72.0
979,68.0,48,48,0.0,72.0
980,64.0,0,96,0.0,72.0
981,76.0,0,192,0.0,88.0
982,69.0,0,48,0.0,88.0
983,60.0,0,96,0.0,72.0
984,74.0,48,48,0.0,72.0
985,72.0,0,48,0.0,72.0
986,57.0,48,96,0.0,72.0
987,71.0,48,48,0.0,72.0
988,69.0,0,48,0.0,72.0
989,70.0,48,48,0.0,72.0
990,69.0,48,48,0.0,72.0
991,68.0,48,48,0.0,72.0
992,54.0,48,192,0.0,72.0
993,64.0,0,96,0.0,72.0
994,72.0,0,192,0.0,88.0
995,69.0,48,48,0.0,72.0
996,60.0,0,96,0.0,72.0
997,74.0,48,48,0.0,72.0
998,72.0,0,48,0.0,72.0
999,64.0,0,0,0.0,72.0
1000,76.0,0,192,0.0,88.0
1001,71.0,48,48,0.0,72.0
1002,57.0,48,96,0.0,72.0
1003,70.0,0,48,0.0,72.0
1004,78.0,48,48,0.0,72.0
1005,54.0,0,96,0.0,72.0
1006,76.0,0,48,0.0,72.0
1007,49.0,48,96,0.0,72.0
1008,79.0,48,192,0.0,88.0
1009,58.0,0,96,0.0,72.0
1010,74.0,48,48,0.0,72.0
1011,73.0,0,48,0.0,72.0
1012,71.0,48,48,0.0,72.0
1013,78.0,0,96,0.0,88.0
1014,46.0,48,96,0.0,72.0
1015,70.0,0,48,0.0,72.0
1016,54.0,48,48,0.0,72.0
1017,42.0,0,96,0.0,72.0
1018,73.0,48,48,0.0,72.0
1019,76.0,0,96,0.0,88.0
1020,55.0,0,48,0.0,72.0
1021,66.0,0,48,0.0,72.0
1022,67.0,48,48,0.0,72.0
1023,66.0,48,48,0.0,72.0
1024,67.0,48,48,0.0,72.0
1025,57.0,48,192,0.0,72.0
1026,75.0,0,192,0.0,88.0
1027,47.0,0,96,0.0,72.0
1028,75.0,0,48,0.0,88.0
1029,71.0,48,48,0.0,88.0
1030,69.0,0,96,0.0,72.0
1031,54.0,48,96,0.0,72.0
1032,73.0,0,48,0.0,88.0
1033,57.0,48,0,0.0,72.0
1034,66.0,0,96,0.0,72.0
1035,75.0,48,48,0.0,88.0
1036,59.0,48,96,0.0,72.0
1037,59.0,0,48,0.0,72.0
1038,60.0,48,48,0.0,72.0
1039,64.0,0,96,0.0,72.0
1040,62.0,48,48,0.0,72.0
1041,59.0,48,48,0.0,72.0
1042,71.0,0,96,0.0,72.0
1043,76.0,0,192,0.0,88.0
1044,56.0,0,96,0.0,72.0
1045,76.0,0,48,0.0,88.0
1046,60.0,48,96,0.0,72.0
1047,77.0,48,48,0.0,72.0
1048,79.0,48,48,0.0,72.0
1049,69.0,0,192,0.0,72.0
1050,76.0,48,48,0.0,72.0
1051,61.0,0,96,0.0,72.0
1052,57.0,48,0,0.0,72.0
1053,77.0,0,48,0.0,72.0
1054,69.0,0,48,0.0,72.0
1055,76.0,48,48,0.0,72.0
1056,59.0,0,48,0.0,72.0
1057,68.0,0,48,0.0,72.0
1058,66.0,0,48,0.0,72.0
1059,60.0,0,48,0.0,72.0
1060,69.0,48,48,0.0,72.0
1061,57.0,0,48,0.0,72.0
1062,74.0,48,144,0.0,72.0
1063,62.0,0,288,0.0,72.0
1064,59.0,48,96,0.0,72.0
1065,68.0,0,96,0.0,72.0
1066,76.0,48,48,0.0,72.0
1067,77.0,0,48,0.0,72.0
1068,60.0,0,96,0.0,72.0
1069,57.0,48,96,0.0,72.0
1070,69.0,0,96,0.0,72.0
1071,74.0,48,48,0.0,72.0
1072,76.0,0,48,0.0,72.0
1073,56.0,0,96,0.0,72.0
1074,74.0,48,48,0.0,72.0
1075,71.0,48,96,0.0,72.0
1076,59.0,0,96,0.0,72.0
1077,69.0,0,48,0.0,72.0
1078,64.0,0,96,0.0,72.0
1079,68.0,48,48,0.0,72.0
1080,52.0,0,96,0.0,72.0
1081,60.0,48,48,0.0,72.0
1082,72.0,48,144,0.0,72.0
1083,53.0,0,96,0.0,72.0
1084,59.0,48,48,0.0,72.0
1085,74.0,0,48,0.0,72.0
1086,75.0,0,48,0.0,72.0
1087,54.0,48,96,0.0,72.0
1088,72.0,48,48,0.0,72.0
1089,60.0,0,96,0.0,72.0
1090,69.0,0,192,0.0,72.0
1091,74.0,48,48,0.0,72.0
1092,54.0,0,96,0.0,72.0
1093,72.0,48,48,0.0,72.0
1094,69.0,0,96,0.0,72.0
1095,57.0,0,96,0.0,72.0
1096,67.0,0,48,0.0,72.0
1097,66.0,48,48,0.0,72.0
1098,62.0,0,96,0.0,72.0
1099,71.0,0,144,0.0,72.0
1100,67.0,0,96,0.0,72.0
1101,72.0,48,48,0.0,72.0
1102,55.0,48,192,0.0,72.0
1103,63.0,48,96,0.0,72.0
1104,74.0,0,48,0.0,72.0
1105,71.0,48,48,0.0,72.0
1106,56.0,48,96,0.0,72.0
1107,65.0,0,0,0.0,72.0
1108,59.0,48,48,0.0,72.0
1109,56.0,0,96,0.0,72.0
1110,60.0,0,48,0.0,72.0
1111,62.0,48,48,0.0,72.0
1112,66.0,48,144,0.0,72.0
1113,57.0,0,144,0.0,72.0
1114,55.0,48,48,0.0,72.0
1115,67.0,0,48,0.0,72.0
1116,69.0,48,48,0.0,72.0
1117,54.0,0,48,0.0,72.0
1118,66.0,0,48,0.0,72.0
1119,63.0,0,0,0.0,72.0
1120,72.0,48,384,0.0,72.0
1121,57.0,48,48,0.0,72.0
1122,67.0,48,96,0.0,72.0
1123,65.0,48,48,0.0,72.0
1124,72.0,0,192,0.0,72.0
1125,68.0,48,48,0.0,72.0
1126,55.0,0,192,0.0,72.0
1127,67.0,48,48,0.0,72.0
1128,62.0,48,192,0.0,72.0
1129,62.0,48,48,0.0,72.0
1130,65.0,0,48,0.0,72.0
1131,64.0,0,48,0.0,72.0
1132,55.0,48,0,0.0,72.0
1133,43.0,0,192,0.0,72.0
1134,62.0,48,48,0.0,72.0
1135,71.0,0,192,0.0,72.0
1136,64.0,0,96,0.0,72.0
1137,55.0,48,48,0.0,72.0
1138,57.0,48,48,0.0,72.0
1139,48.0,0,192,0.0,72.0
1140,72.0,0,192,0.0,72.0
1141,59.0,48,48,0.0,72.0
1142,67.0,0,96,0.0,72.0
1143,64.0,48,96,0.0,72.0
1144,60.0,0,96,0.0,72.0
1145,48.0,48,48,0.0,72.0
1146,50.0,0,48,0.0,72.0
1147,52.0,48,48,0.0,72.0
1148,67.0,0,0,0.0,72.0
1149,72.0,0,96,0.0,72.0
1150,67.0,48,0,0.0,72.0
1151,65.0,0,48,0.0,72.0
1152,69.0,0,192,0.0,72.0
1153,64.0,48,48,0.0,72.0
1154,53.0,48,192,0.0,72.0
1155,60.0,48,96,0.0,72.0
1156,55.0,48,48,0.0,72.0
1157,65.0,48,96,0.0,72.0
1158,53.0,48,48,0.0,72.0
1159,81.0,0,96,0.0,72.0
1160,52.0,48,48,0.0,72.0
1161,57.0,0,192,0.0,72.0
1162,57.0,48,48,0.0,72.0
1163,59.0,0,48,0.0,72.0
1164,69.0,48,96,0.0,72.0
1165,61.0,48,48,0.0,72.0
1166,50.0,48,192,0.0,72.0
1167,77.0,0,192,0.0,72.0
1168,62.0,48,96,0.0,72.0
1169,50.0,48,48,0.0,72.0
1170,65.0,0,96,0.0,72.0
1171,52.0,0,48,0.0,72.0
1172,74.0,48,96,0.0,72.0
1173,53.0,48,48,0.0,72.0
1174,69.0,0,96,0.0,72.0
1175,69.0,0,48,0.0,72.0
1176,69.0,48,48,0.0,72.0
1177,67.0,0,48,0.0,72.0
1178,62.0,48,96,0.0,72.0
1179,66.0,48,48,0.0,72.0
1180,55.0,48,192,0.0,72.0
1181,71.0,0,192,0.0,72.0
1182,57.0,48,48,0.0,72.0
1183,55.0,48,48,0.0,72.0
1184,74.0,0,96,0.0,72.0
1185,59.0,48,192,0.0,72.0
1186,53.0,48,48,0.0,72.0
1187,67.0,0,192,0.0,72.0
1188,59.0,48,48,0.0,72.0
1189,61.0,0,48,0.0,72.0
1190,76.0,48,96,0.0,72.0
1191,62.0,48,48,0.0,72.0
1192,52.0,48,192,0.0,72.0
1193,73.0,0,96,0.0,72.0
1194,64.0,48,96,0.0,72.0
1195,52.0,48,48,0.0,72.0
1196,53.0,0,48,0.0,72.0
1197,79.0,0,384,0.0,72.0
1198,55.0,48,48,0.0,72.0
1199,70.0,0,96,0.0,72.0
1200,74.0,48,96,0.0,72.0
1201,64.0,48,48,0.0,72.0
1202,74.0,0,48,0.0,72.0
1203,71.0,48,48,0.0,72.0
1204,62.0,0,48,0.0,72.0
1205,73.0,0,48,0.0,72.0
1206,74.0,48,48,0.0,72.0
1207,64.0,48,96,0.0,72.0
1208,79.0,48,0,0.0,72.0
1209,57.0,0,192,0.0,72.0
1210,79.0,48,48,0.0,72.0
1211,77.0,48,48,0.0,72.0
1212,76.0,48,48,0.0,72.0
1213,57.0,0,96,0.0,72.0
1214,61.0,0,192,0.0,72.0
1215,76.0,48,0,0.0,72.0
1216,76.0,48,48,0.0,72.0
1217,74.0,0,48,0.0,72.0
1218,50.0,0,192,0.0,72.0
1219,77.0,0,192,0.0,72.0
1220,57.0,48,96,0.0,72.0
1221,73.0,48,48,0.0,72.0
1222,79.0,0,48,0.0,72.0
1223,50.0,48,48,0.0,72.0
1224,81.0,0,48,0.0,72.0
1225,48.0,48,48,0.0,72.0
1226,46.0,0,48,0.0,72.0
1227,53.0,0,192,0.0,72.0
1228,82.0,48,48,0.0,72.0
1229,74.0,48,192,0.0,72.0
1230,84.0,0,48,0.0,72.0
1231,45.0,48,96,0.0,72.0
1232,77.0,48,48,0.0,72.0
1233,75.0,0,48,0.0,72.0
1234,60.0,48,96,0.0,72.0
1235,74.0,48,48,0.0,72.0
1236,70.0,48,48,0.0,72.0
1237,57.0,48,96,0.0,72.0
1238,69.0,48,48,0.0,72.0
1239,60.0,0,96,0.0,72.0
1240,67.0,48,48,0.0,72.0
1241,53.0,0,96,0.0,72.0
1242,75.0,48,0,0.0,72.0
1243,65.0,0,48,0.0,72.0
1244,72.0,48,48,0.0,72.0
1245,70.0,0,48,0.0,72.0
1246,53.0,0,96,0.0,72.0
1247,74.0,48,96,0.0,72.0
1248,46.0,0,192,0.0,72.0
1249,69.0,48,48,0.0,72.0
1250,76.0,0,48,0.0,72.0
1251,70.0,0,96,0.0,72.0
1252,46.0,48,48,0.0,72.0
1253,45.0,0,48,0.0,72.0
1254,78.0,48,48,0.0,72.0
1255,79.0,0,48,0.0,72.0
1256,50.0,48,192,0.0,72.0
1257,43.0,48,48,0.0,72.0
1258,81.0,48,48,0.0,72.0
1259,42.0,0,96,0.0,72.0
1260,74.0,48,48,0.0,72.0
1261,72.0,0,48,0.0,72.0
1262,57.0,48,96,0.0,72.0
1263,70.0,48,48,0.0,72.0
1264,67.0,48,48,0.0,72.0
1265,54.0,48,96,0.0,72.0
1266,66.0,0,48,0.0,72.0
1267,50.0,0,96,0.0,72.0
1268,57.0,48,96,0.0,72.0
1269,64.0,48,48,0.0,72.0
1270,72.0,48,0,0.0,72.0
1271,62.0,0,96,0.0,72.0
1272,43.0,0,96,0.0,72.0
1273,57.0,0,96,0.0,72.0
1274,70.0,48,48,0.0,72.0
1275,72.0,0,48,0.0,72.0
1276,55.0,48,48,0.0,72.0
1277,45.0,0,96,0.0,72.0
1278,75.0,48,48,0.0,72.0
1279,54.0,0,48,0.0,72.0
1280,67.0,48,48,0.0,72.0
1281,46.0,48,96,0.0,72.0
1282,69.0,0,48,0.0,72.0
1283,55.0,48,0,0.0,72.0
1284,43.0,48,96,0.0,72.0
1285,70.0,48,48,0.0,72.0
1286,74.0,0,0,0.0,72.0
1287,48.0,0,96,0.0,72.0
1288,54.0,48,48,0.0,72.0
1289,63.0,0,96,0.0,72.0
1290,72.0,48,48,0.0,72.0
1291,55.0,0,48,0.0,72.0
1292,58.0,0,48,0.0,72.0
1293,74.0,48,48,0.0,72.0
1294,51.0,0,96,0.0,72.0
1295,69.0,48,48,0.0,72.0
1296,48.0,48,96,0.0,72.0
1297,70.0,48,48,0.0,72.0
1298,75.0,0,192,0.0,72.0
1299,45.0,0,96,0.0,72.0
1300,72.0,48,48,0.0,72.0
1301,57.0,0,0,0.0,72.0
1302,50.0,0,96,0.0,72.0
1303,55.0,48,48,0.0,72.0
1304,75.0,0,96,0.0,72.0
1305,66.0,48,96,0.0,72.0
1306,57.0,0,48,0.0,72.0
1307,74.0,0,48,0.0,72.0
1308,54.0,48,96,0.0,72.0
1309,60.0,48,48,0.0,72.0
1310,75.0,0,48,0.0,72.0
1311,70.0,48,48,0.0,72.0
1312,50.0,0,96,0.0,72.0
1313,74.0,0,48,0.0,72.0
1314,58.0,48,0,0.0,72.0
1315,77.0,0,0,0.0,72.0
1316,68.0,48,48,0.0,72.0
1317,46.0,48,96,0.0,72.0
1318,67.0,0,96,0.0,72.0
1319,51.0,0,96,0.0,72.0
1320,57.0,48,48,0.0,72.0
1321,75.0,48,48,0.0,72.0
1322,58.0,0,48,0.0,72.0
1323,62.0,0,48,0.0,72.0
1324,55.0,0,96,0.0,72.0
1325,77.0,48,48,0.0,72.0
1326,69.0,48,48,0.0,72.0
1327,52.0,0,96,0.0,72.0
1328,70.0,0,48,0.0,72.0
1329,48.0,48,96,0.0,72.0
1330,79.0,48,192,0.0,72.0
1331,67.0,48,48,0.0,72.0
1332,60.0,0,192,0.0,72.0
1333,60.0,0,48,0.0,72.0
1334,53.0,48,96,0.0,72.0
1335,79.0,0,96,0.0,72.0
1336,69.0,0,96,0.0,72.0
1337,58.0,48,48,0.0,72.0
1338,77.0,48,48,0.0,72.0
1339,60.0,0,48,0.0,72.0
1340,79.0,48,48,0.0,72.0
1341,57.0,0,96,0.0,72.0
1342,63.0,0,48,0.0,72.0
1343,62.0,0,48,0.0,72.0
1344,60.0,48,48,0.0,72.0
1345,54.0,48,96,0.0,72.0
1346,58.0,48,48,0.0,72.0
1347,57.0,48,48,0.0,72.0
1348,81.0,48,0,0.0,72.0
1349,50.0,0,96,0.0,72.0
1350,74.0,48,48,0.0,72.0
1351,55.0,0,96,0.0,72.0
1352,58.0,0,144,0.0,72.0
1353,60.0,48,48,0.0,72.0
1354,51.0,0,96,0.0,72.0
1355,58.0,48,24,0.0,72.0
1356,57.0,24,24,0.0,72.0
1357,58.0,24,24,0.0,72.0
1358,57.0,24,24,0.0,72.0
1359,48.0,0,96,0.0,72.0
1360,79.0,48,192,0.0,72.0
1361,75.0,0,48,0.0,72.0
1362,58.0,24,24,0.0,72.0
1363,74.0,0,48,0.0,72.0
1364,57.0,24,24,0.0,72.0
1365,55.0,24,24,0.0,72.0
1366,50.0,0,96,0.0,72.0
1367,72.0,0,48,0.0,72.0
1368,78.0,0,96,0.0,72.0
1369,57.0,24,24,0.0,72.0
1370,55.0,0,48,0.0,72.0
1371,70.0,24,96,0.0,72.0
1372,79.0,0,96,0.0,72.0
1373,63.0,48,48,0.0,72.0
1374,62.0,0,48,0.0,72.0
1375,60.0,48,48,0.0,72.0
1376,58.0,48,0,0.0,72.0
1377,72.0,48,48,0.0,72.0
1378,70.0,48,48,0.0,72.0
1379,69.0,48,48,0.0,72.0
1380,55.0,0,192,0.0,72.0
1381,79.0,0,96,0.0,72.0
1382,60.0,48,48,0.0,72.0
1383,58.0,48,48,0.0,72.0
1384,67.0,48,192,0.0,72.0
1385,57.0,48,48,0.0,72.0
1386,55.0,0,96,0.0,72.0
1387,76.0,0,192,0.0,72.0
1388,77.0,48,48,0.0,72.0
1389,76.0,0,48,0.0,72.0
1390,67.0,48,96,0.0,72.0
1391,52.0,48,192,0.0,72.0
1392,55.0,0,192,0.0,72.0
1393,74.0,48,48,0.0,72.0
1394,62.0,48,48,0.0,72.0
1395,60.0,0,48,0.0,72.0
1396,57.0,48,96,0.0,72.0
1397,58.0,48,48,0.0,72.0
1398,72.0,48,192,0.0,72.0
1399,64.0,0,192,0.0,72.0
1400,70.0,48,48,0.0,72.0
1401,69.0,0,48,0.0,72.0
1402,57.0,0,192,0.0,72.0
1403,67.0,48,48,0.0,72.0
1404,53.0,48,192,0.0,72.0
1405,72.0,48,96,0.0,72.0
1406,58.0,48,48,0.0,72.0
1407,57.0,0,48,0.0,72.0
1408,55.0,48,48,0.0,72.0
1409,53.0,48,0,0.0,72.0
1410,65.0,48,192,0.0,72.0
1411,69.0,0,192,0.0,72.0
1412,79.0,48,48,0.0,72.0
1413,77.0,0,48,0.0,72.0
1414,76.0,48,48,0.0,72.0
1415,69.0,48,96,0.0,72.0
1416,50.0,48,0,0.0,72.0
1417,74.0,0,48,0.0,72.0
1418,75.0,48,48,0.0,72.0
1419,74.0,48,48,0.0,72.0
1420,73.0,48,48,0.0,72.0
1421,57.0,0,192,0.0,88.0
1422,65.0,48,0,0.0,72.0
1423,53.0,0,192,0.0,88.0
1424,67.0,48,48,0.0,72.0
1425,65.0,0,48,0.0,72.0
1426,50.0,0,192,0.0,88.0
1427,46.0,48,0,0.0,88.0
1428,74.0,0,192,0.0,72.0
1429,64.0,48,48,0.0,72.0
1430,74.0,0,48,0.0,72.0
1431,75.0,48,48,0.0,72.0
1432,62.0,0,96,0.0,72.0
1433,74.0,48,48,0.0,72.0
1434,53.0,0,192,0.0,88.0
1435,73.0,48,48,0.0,72.0
1436,65.0,0,144,0.0,72.0
1437,50.0,0,192,0.0,88.0
1438,67.0,48,48,0.0,72.0
1439,65.0,0,48,0.0,72.0
1440,74.0,0,192,0.0,72.0
1441,53.0,48,96,0.0,88.0
1442,57.0,48,192,0.0,88.0
1443,64.0,48,48,0.0,72.0
1444,74.0,0,48,0.0,72.0
1445,75.0,48,48,0.0,72.0
1446,53.0,0,96,0.0,88.0
1447,62.0,48,96,0.0,72.0
1448,74.0,48,48,0.0,72.0
1449,73.0,48,48,0.0,72.0
1450,58.0,0,192,0.0,88.0
1451,64.0,0,96,0.0,72.0
1452,55.0,0,144,0.0,88.0
1453,65.0,0,48,0.0,72.0
1454,57.0,48,96,0.0,88.0
1455,69.0,0,48,0.0,72.0
1456,53.0,48,96,0.0,88.0
1457,71.0,0,48,0.0,72.0
1458,74.0,0,144,0.0,72.0
1459,76.0,0,48,0.0,72.0
1460,52.0,0,48,0.0,88.0
1461,73.0,48,48,0.0,72.0
1462,55.0,48,96,0.0,88.0
1463,77.0,48,96,0.0,72.0
1464,74.0,0,96,0.0,72.0
1465,81.0,96,96,0.0,72.0
1466,77.0,0,0,0.0,72.0
1467,53.0,0,0,0.0,88.0
1468,50.0,0,0,0.0,88.0
1469,52.0,48,48,0.0,88.0
1470,74.0,96,96,0.0,72.0
1471,49.0,0,48,0.0,88.0
1472,53.0,0,48,0.0,88.0
1473,50.0,0,48,0.0,88.0
1474,55.0,48,48,0.0,88.0
1475,69.0,48,96,0.0,72.0
1476,52.0,0,48,0.0,88.0
1477,57.0,0,48,0.0,88.0
1478,58.0,48,48,0.0,72.0
1479,74.0,0,96,0.0,72.0
1480,57.0,48,48,0.0,72.0
1481,56.0,48,48,0.0,72.0
1482,65.0,48,192,0.0,88.0
1483,53.0,0,0,0.0,88.0
1484,53.0,48,48,0.0,72.0
1485,69.0,0,192,0.0,88.0
1486,52.0,0,48,0.0,72.0
1487,57.0,48,0,0.0,72.0
1488,60.0,0,192,0.0,88.0
1489,72.0,0,0,0.0,88.0
1490,50.0,48,48,0.0,72.0
1491,57.0,48,0,0.0,72.0
1492,55.0,48,48,0.0,72.0
1493,53.0,48,48,0.0,72.0
1494,64.0,0,192,0.0,88.0
1495,48.0,0,192,0.0,72.0
1496,48.0,0,48,0.0,72.0
1497,76.0,0,192,0.0,88.0
1498,52.0,48,96,0.0,72.0
1499,47.0,48,96,0.0,72.0
1500,68.0,0,192,0.0,88.0
1501,50.0,48,0,0.0,72.0
1502,46.0,48,48,0.0,72.0
1503,77.0,0,0,0.0,88.0
1504,52.0,48,48,0.0,72.0
1505,50.0,48,48,0.0,72.0
1506,49.0,48,48,0.0,72.0
1507,69.0,0,192,0.0,88.0
1508,50.0,48,48,0.0,72.0
1509,76.0,0,192,0.0,88.0
1510,52.0,48,48,0.0,72.0
1511,67.0,0,96,0.0,88.0
1512,53.0,0,48,0.0,72.0
1513,55.0,48,48,0.0,72.0
1514,74.0,48,96,0.0,88.0
1515,45.0,0,0,0.0,72.0
1516,65.0,0,96,0.0,88.0
1517,57.0,48,48,0.0,72.0
1518,55.0,48,48,0.0,72.0
1519,74.0,0,96,0.0,88.0
1520,57.0,48,48,0.0,72.0
1521,64.0,0,192,0.0,88.0
1522,58.0,48,48,0.0,72.0
1523,73.0,0,144,0.0,88.0
1524,57.0,48,48,0.0,72.0
1525,64.0,0,48,0.0,88.0
1526,55.0,0,48,0.0,72.0
1527,61.0,0,48,0.0,88.0
1528,69.0,48,48,0.0,88.0
1529,53.0,0,48,0.0,72.0
1530,62.0,48,48,0.0,88.0
1531,71.0,0,48,0.0,88.0
1532,73.0,0,48,0.0,88.0
1533,64.0,0,48,0.0,88.0
1534,52.0,48,48,0.0,72.0
1535,57.0,48,96,0.0,88.0
1536,60.0,48,48,0.0,72.0
1537,62.0,0,48,0.0,72.0
1538,63.0,48,48,0.0,72.0
1539,54.0,0,192,0.0,72.0
1540,74.0,0,192,0.0,88.0
1541,69.0,48,96,0.0,72.0
1542,62.0,0,48,0.0,72.0
1543,60.0,48,48,0.0,72.0
1544,58.0,0,48,0.0,72.0
1545,50.0,0,96,0.0,72.0
1546,57.0,48,48,0.0,72.0
1547,74.0,48,96,0.0,72.0
1548,66.0,48,192,0.0,72.0
1549,66.0,48,48,0.0,72.0
1550,43.0,0,96,0.0,72.0
1551,55.0,48,96,0.0,72.0
1552,67.0,48,48,0.0,72.0
1553,69.0,48,48,0.0,72.0
1554,62.0,0,96,0.0,72.0
1555,70.0,0,192,0.0,72.0
1556,67.0,48,48,0.0,72.0
1557,65.0,48,48,0.0,72.0
1558,64.0,48,48,0.0,72.0
1559,62.0,48,48,0.0,72.0
1560,55.0,0,96,0.0,72.0
1561,58.0,0,0,0.0,72.0
1562,55.0,0,48,0.0,72.0
1563,60.0,0,96,0.0,72.0
1564,70.0,48,48,0.0,72.0
1565,72.0,0,48,0.0,72.0
1566,57.0,48,48,0.0,72.0
1567,52.0,48,192,0.0,72.0
1568,74.0,48,48,0.0,72.0
1569,58.0,0,48,0.0,72.0
1570,57.0,48,48,0.0,72.0
1571,72.0,0,48,0.0,72.0
1572,70.0,0,48,0.0,72.0
1573,55.0,48,48,0.0,72.0
1574,53.0,0,48,0.0,72.0
1575,69.0,0,48,0.0,72.0
1576,67.0,48,48,0.0,72.0
1577,52.0,0,48,0.0,72.0
1578,48.0,48,96,0.0,72.0
1579,53.0,0,96,0.0,72.0
1580,64.0,48,48,0.0,72.0
1581,65.0,0,48,0.0,72.0
1582,67.0,48,48,0.0,72.0
1583,48.0,48,96,0.0,72.0
1584,65.0,48,48,0.0,72.0
1585,45.0,0,96,0.0,72.0
1586,63.0,48,48,0.0,72.0
1587,62.0,48,48,0.0,72.0
1588,61.0,48,48,0.0,72.0
1589,53.0,0,0,0.0,72.0
1590,69.0,48,384,0.0,72.0
1591,41.0,0,96,0.0,72.0
1592,53.0,48,0,0.0,72.0
1593,69.0,0,96,0.0,72.0
1594,62.0,48,96,0.0,72.0
1595,52.0,48,48,0.0,72.0
1596,50.0,48,48,0.0,72.0
1597,67.0,0,96,0.0,72.0
1598,46.0,0,192,0.0,72.0
1599,46.0,48,48,0.0,72.0
1600,45.0,48,48,0.0,72.0
1601,52.0,0,96,0.0,72.0
1602,43.0,0,48,0.0,72.0
1603,72.0,48,0,0.0,72.0
1604,64.0,0,96,0.0,72.0
1605,55.0,0,0,0.0,72.0
1606,46.0,48,48,0.0,72.0
1607,45.0,0,48,0.0,72.0
1608,60.0,0,96,0.0,72.0
1609,47.0,48,48,0.0,72.0
1610,54.0,0,48,0.0,72.0
1611,69.0,48,96,0.0,72.0
1612,52.0,48,48,0.0,72.0
1613,48.0,0,144,0.0,72.0
1614,47.0,48,48,0.0,72.0
1615,54.0,48,96,0.0,72.0
1616,45.0,48,48,0.0,72.0
1617,57.0,0,96,0.0,72.0
1618,66.0,0,96,0.0,72.0
1619,48.0,48,48,0.0,72.0
1620,74.0,48,0,0.0,72.0
1621,47.0,0,48,0.0,72.0
1622,49.0,48,48,0.0,72.0
1623,62.0,0,96,0.0,72.0
1624,57.0,0,96,0.0,72.0
1625,56.0,0,48,0.0,72.0
1626,54.0,48,48,0.0,72.0
1627,71.0,0,96,0.0,72.0
1628,50.0,48,144,0.0,72.0
1629,56.0,0,96,0.0,72.0
1630,49.0,48,48,0.0,72.0
1631,47.0,48,48,0.0,72.0
1632,76.0,48,0,0.0,72.0
1633,68.0,0,96,0.0,72.0
1634,59.0,0,0,0.0,72.0
1635,50.0,48,48,0.0,72.0
1636,49.0,0,48,0.0,72.0
1637,50.0,48,48,0.0,72.0
1638,77.0,0,48,0.0,72.0
1639,64.0,0,96,0.0,72.0
1640,79.0,0,48,0.0,72.0
1641,74.0,48,48,0.0,72.0
1642,58.0,48,96,0.0,72.0
1643,52.0,0,144,0.0,72.0
1644,73.0,0,48,0.0,72.0
1645,82.0,0,48,0.0,72.0
1646,50.0,48,48,0.0,72.0
1647,81.0,0,48,0.0,72.0
1648,49.0,48,48,0.0,72.0
1649,52.0,0,48,0.0,72.0
1650,57.0,48,192,0.0,72.0
1651,79.0,48,48,0.0,72.0
1652,57.0,0,96,0.0,72.0
1653,74.0,48,48,0.0,72.0
1654,50.0,0,96,0.0,72.0
1655,73.0,0,48,0.0,72.0
1656,52.0,0,96,0.0,72.0
1657,76.0,48,48,0.0,72.0
1658,55.0,48,96,0.0,72.0
1659,74.0,0,48,0.0,72.0
1660,72.0,48,48,0.0,72.0
1661,53.0,0,96,0.0,72.0
1662,57.0,48,96,0.0,72.0
1663,70.0,0,48,0.0,72.0
1664,69.0,48,48,0.0,72.0
1665,77.0,48,384,0.0,72.0
1666,50.0,48,96,0.0,72.0
1667,62.0,0,96,0.0,72.0
1668,70.0,0,48,0.0,72.0
1669,69.0,48,48,0.0,72.0
1670,77.0,0,96,0.0,72.0
1671,62.0,0,96,0.0,72.0
1672,76.0,0,48,0.0,72.0
1673,55.0,48,192,0.0,72.0
1674,58.0,48,96,0.0,72.0
1675,74.0,48,48,0.0,72.0
1676,67.0,0,144,0.0,72.0
1677,69.0,48,48,0.0,72.0
1678,55.0,48,96,0.0,72.0
1679,70.0,0,48,0.0,72.0
1680,48.0,48,96,0.0,72.0
1681,52.0,0,96,0.0,72.0
1682,67.0,48,48,0.0,72.0
1683,76.0,0,0,0.0,72.0
1684,69.0,0,48,0.0,72.0
1685,67.0,48,48,0.0,72.0
1686,74.0,48,48,0.0,72.0
1687,53.0,48,192,0.0,72.0
1688,73.0,48,48,0.0,72.0
1689,57.0,0,96,0.0,72.0
1690,65.0,0,144,0.0,72.0
1691,53.0,0,96,0.0,72.0
1692,67.0,48,48,0.0,72.0
1693,69.0,0,48,0.0,72.0
1694,74.0,48,192,0.0,72.0
1695,50.0,0,96,0.0,72.0
1696,41.0,48,96,0.0,72.0
1697,65.0,48,48,0.0,72.0
1698,67.0,0,48,0.0,72.0
1699,74.0,48,96,0.0,72.0
1700,65.0,48,48,0.0,72.0
1701,72.0,48,48,0.0,72.0
1702,70.0,48,48,0.0,72.0
1703,46.0,48,0,0.0,72.0
1704,55.0,0,96,0.0,72.0
1705,63.0,0,144,0.0,72.0
1706,51.0,0,96,0.0,72.0
1707,66.0,0,48,0.0,72.0
1708,45.0,48,48,0.0,72.0
1709,46.0,0,48,0.0,72.0
1710,67.0,0,48,0.0,72.0
1711,64.0,0,48,0.0,72.0
1712,43.0,48,48,0.0,72.0
1713,72.0,0,0,0.0,72.0
1714,48.0,48,96,0.0,72.0
1715,46.0,0,48,0.0,72.0
1716,66.0,48,48,0.0,72.0
1717,45.0,48,48,0.0,72.0
1718,67.0,0,48,0.0,72.0
1719,43.0,0,48,0.0,72.0
1720,69.0,48,96,0.0,72.0
1721,42.0,48,48,0.0,72.0
1722,72.0,0,0,0.0,72.0
1723,50.0,0,0,0.0,72.0
1724,62.0,48,96,0.0,72.0
1725,50.0,48,48,0.0,72.0
1726,70.0,0,48,0.0,72.0
1727,72.0,0,48,0.0,72.0
1728,52.0,48,48,0.0,72.0
1729,54.0,48,48,0.0,72.0
1730,43.0,0,192,0.0,72.0
1731,69.0,0,48,0.0,72.0
1732,70.0,0,48,0.0,72.0
1733,43.0,0,48,0.0,72.0
1734,42.0,48,48,0.0,72.0
1735,55.0,48,96,0.0,72.0
1736,74.0,0,48,0.0,72.0
1737,75.0,48,48,0.0,72.0
1738,43.0,0,48,0.0,72.0
1739,45.0,0,48,0.0,72.0
1740,72.0,48,48,0.0,72.0
1741,74.0,0,48,0.0,72.0
1742,46.0,48,48,0.0,72.0
1743,79.0,0,48,0.0,72.0
1744,43.0,48,48,0.0,72.0
1745,46.0,48,48,0.0,72.0
1746,74.0,0,48,0.0,72.0
1747,50.0,48,48,0.0,72.0
1748,72.0,0,48,0.0,72.0
1749,72.0,48,48,0.0,72.0
1750,70.0,48,48,0.0,72.0
1751,72.0,48,48,0.0,72.0
1752,62.0,0,192,0.0,88.0
1753,75.0,48,48,0.0,72.0
1754,57.0,0,96,0.0,72.0
1755,74.0,0,48,0.0,72.0
1756,72.0,48,48,0.0,72.0
1757,58.0,48,96,0.0,72.0
1758,70.0,48,48,0.0,72.0
1759,55.0,48,0,0.0,72.0
1760,60.0,0,96,0.0,72.0
1761,69.0,48,48,0.0,72.0
1762,67.0,0,48,0.0,72.0
1763,66.0,0,48,0.0,72.0
1764,50.0,48,48,0.0,72.0
1765,48.0,48,48,0.0,72.0
1766,58.0,0,192,0.0,88.0
1767,45.0,48,48,0.0,72.0
1768,67.0,0,96,0.0,72.0
1769,62.0,48,0,0.0,88.0
1770,46.0,0,48,0.0,72.0
1771,50.0,48,48,0.0,72.0
1772,43.0,48,48,0.0,72.0
1773,57.0,0,96,0.0,72.0
1774,69.0,0,96,0.0,72.0
1775,41.0,48,48,0.0,72.0
1776,40.0,0,48,0.0,72.0
1777,52.0,48,48,0.0,72.0
1778,50.0,48,48,0.0,72.0
1779,47.0,48,48,0.0,72.0
1780,65.0,48,192,0.0,88.0
1781,59.0,0,192,0.0,72.0
1782,68.0,0,192,0.0,72.0
1783,48.0,48,48,0.0,72.0
1784,69.0,0,96,0.0,72.0
1785,64.0,0,96,0.0,88.0
1786,52.0,48,48,0.0,72.0
1787,45.0,48,48,0.0,72.0
1788,65.0,48,0,0.0,72.0
1789,62.0,0,96,0.0,88.0
1790,44.0,48,48,0.0,72.0
1791,45.0,0,48,0.0,72.0
1792,57.0,48,48,0.0,72.0
1793,55.0,48,48,0.0,72.0
1794,61.0,48,0,0.0,88.0
1795,64.0,0,96,0.0,72.0
1796,52.0,48,48,0.0,72.0
1797,57.0,0,48,0.0,88.0
1798,81.0,48,48,0.0,72.0
1799,79.0,48,48,0.0,72.0
1800,59.0,0,48,0.0,88.0
1801,61.0,0,48,0.0,88.0
1802,53.0,0,0,0.0,72.0
1803,76.0,48,48,0.0,72.0
1804,77.0,0,48,0.0,72.0
1805,81.0,48,48,0.0,72.0
1806,62.0,48,96,0.0,88.0
1807,74.0,0,48,0.0,72.0
1808,73.0,48,48,0.0,72.0
1809,69.0,0,192,0.0,88.0
1810,57.0,48,144,0.0,88.0
1811,58.0,48,48,0.0,88.0
1812,57.0,48,48,0.0,88.0
1813,62.0,0,192,0.0,88.0
1814,46.0,0,192,0.0,72.0
1815,56.0,48,48,0.0,88.0
1816,74.0,48,192,0.0,72.0
1817,74.0,0,48,0.0,72.0
1818,57.0,48,48,0.0,88.0
1819,77.0,48,48,0.0,72.0
1820,47.0,0,48,0.0,88.0
1821,76.0,0,48,0.0,72.0
1822,49.0,48,48,0.0,88.0
1823,74.0,48,48,0.0,72.0
1824,65.0,0,192,0.0,88.0
1825,50.0,0,48,0.0,88.0
1826,73.0,0,48,0.0,72.0
1827,52.0,0,48,0.0,88.0
1828,74.0,48,48,0.0,72.0
1829,53.0,0,48,0.0,88.0
1830,55.0,0,48,0.0,88.0
1831,71.0,48,48,0.0,72.0
1832,45.0,0,384,0.0,72.0
1833,73.0,0,48,0.0,72.0
1834,52.0,48,48,0.0,88.0
1835,69.0,48,192,0.0,88.0
1836,54.0,0,48,0.0,88.0
1837,57.0,48,48,0.0,88.0
1838,74.0,48,144,0.0,72.0
1839,70.0,0,192,0.0,88.0
1840,73.0,48,48,0.0,72.0
1841,55.0,48,144,0.0,88.0
1842,54.0,48,48,0.0,88.0
1843,69.0,48,96,0.0,88.0
1844,74.0,0,144,0.0,72.0
1845,58.0,48,0,0.0,88.0
1846,38.0,0,384,0.0,72.0
1847,67.0,0,96,0.0,88.0
1848,73.0,48,48,0.0,72.0
1849,57.0,48,48,0.0,88.0
1850,74.0,0,144,0.0,72.0
1851,75.0,48,48,0.0,72.0
1852,66.0,48,0,0.0,88.0
1853,69.0,0,96,0.0,72.0
1854,62.0,48,48,0.0,88.0
1855,60.0,48,192,0.0,88.0
1856,64.0,0,48,0.0,88.0
1857,59.0,48,48,0.0,88.0
1858,38.0,0,384,0.0,72.0
1859,57.0,0,48,0.0,88.0
1860,66.0,48,48,0.0,88.0
1861,74.0,48,48,0.0,72.0
1862,59.0,0,96,0.0,88.0
1863,76.0,0,48,0.0,72.0
1864,67.0,48,192,0.0,88.0
1865,79.0,48,48,0.0,72.0
1866,73.0,48,48,0.0,72.0
1867,67.0,0,48,0.0,88.0
1868,58.0,48,192,0.0,88.0
1869,66.0,0,48,0.0,88.0
1870,67.0,0,48,0.0,88.0
1871,57.0,48,48,0.0,88.0
1872,38.0,0,384,0.0,72.0
1873,64.0,48,48,0.0,88.0
1874,55.0,0,48,0.0,88.0
1875,73.0,48,144,0.0,72.0
1876,57.0,0,384,0.0,88.0
1877,74.0,0,384,0.0,72.0
1878,38.0,48,384,0.0,72.0
1879,66.0,0,384,0.0,88.0
