,note,step,duration,channel,velocity
0,54.0,49,180,6.0,0.0
1,56.0,48,60,8.0,0.0
2,57.0,48,60,10.0,0.0
3,59.0,48,60,12.0,0.0
4,61.0,48,60,1.0,0.0
5,62.0,48,60,2.0,0.0
6,61.0,48,60,1.0,0.0
7,59.0,48,60,12.0,0.0
8,57.0,48,60,10.0,0.0
9,56.0,48,60,8.0,0.0
10,57.0,48,60,10.0,0.0
11,54.0,48,60,6.0,0.0
12,61.0,48,60,1.0,0.0
13,57.0,48,60,10.0,0.0
14,66.0,48,60,6.0,0.0
15,61.0,91,60,1.0,0.0
16,66.0,53,90,6.0,0.0
17,68.0,48,60,8.0,0.0
18,69.0,48,60,10.0,0.0
19,71.0,48,60,12.0,0.0
20,73.0,48,60,1.0,0.0
21,74.0,48,60,2.0,0.0
22,73.0,48,60,1.0,0.0
23,71.0,48,60,12.0,0.0
24,69.0,48,60,10.0,0.0
25,68.0,48,60,8.0,0.0
26,69.0,48,60,10.0,0.0
27,66.0,48,60,6.0,0.0
28,73.0,48,60,1.0,0.0
29,69.0,49,60,10.0,0.0
30,77.0,24,60,5.0,0.0
31,78.0,24,15,6.0,0.0
32,77.0,296,60,5.0,0.0
33,78.0,24,15,6.0,0.0
34,73.0,48,60,1.0,0.0
35,69.0,48,60,10.0,0.0
36,68.0,96,60,8.0,0.0
37,69.0,3,150,10.0,0.0
38,66.0,45,60,6.0,0.0
39,61.0,48,60,1.0,0.0
40,59.0,96,60,12.0,0.0
41,61.0,51,150,1.0,0.0
42,57.0,45,60,10.0,0.0
43,54.0,236,330,6.0,0.0
44,49.0,245,60,1.0,0.0
45,42.0,310,480,6.0,0.0
46,76.0,72,120,4.0,0.0
47,74.0,49,60,2.0,0.0
48,76.0,48,60,4.0,0.0
49,78.0,48,60,6.0,0.0
50,76.0,48,60,4.0,0.0
51,74.0,48,60,2.0,0.0
52,73.0,48,60,1.0,0.0
53,71.0,48,60,12.0,0.0
54,70.0,96,60,11.0,0.0
55,71.0,13,120,12.0,0.0
56,73.0,35,60,1.0,0.0
57,74.0,48,60,2.0,0.0
58,73.0,48,60,1.0,0.0
59,71.0,48,60,12.0,0.0
60,69.0,48,60,10.0,0.0
61,68.0,48,60,8.0,0.0
62,66.0,96,60,6.0,0.0
63,68.0,13,120,8.0,0.0
64,69.0,35,60,10.0,0.0
65,71.0,48,60,12.0,0.0
66,69.0,48,60,10.0,0.0
67,68.0,48,60,8.0,0.0
68,66.0,48,60,6.0,0.0
69,65.0,48,60,5.0,0.0
70,63.0,96,60,3.0,0.0
71,65.0,13,120,5.0,0.0
72,66.0,35,60,6.0,0.0
73,68.0,48,60,8.0,0.0
74,66.0,48,60,6.0,0.0
75,65.0,48,60,5.0,0.0
76,63.0,48,60,3.0,0.0
77,61.0,48,60,1.0,0.0
78,59.0,91,60,12.0,0.0
79,57.0,9,90,10.0,0.0
80,61.0,61,60,1.0,0.0
81,66.0,54,60,6.0,0.0
82,65.0,264,60,5.0,0.0
83,66.0,28,390,6.0,0.0
84,54.0,49,60,6.0,0.0
85,57.0,48,60,10.0,0.0
86,56.0,20,60,8.0,0.0
87,54.0,48,60,6.0,0.0
88,53.0,48,60,5.0,0.0
89,54.0,48,60,6.0,0.0
90,56.0,48,60,8.0,0.0
91,57.0,48,60,10.0,0.0
92,59.0,48,60,12.0,0.0
93,61.0,48,60,1.0,0.0
94,62.0,91,60,2.0,0.0
95,61.0,5,90,1.0,0.0
96,66.0,48,60,6.0,0.0
97,69.0,48,60,10.0,0.0
98,68.0,91,60,8.0,0.0
99,69.0,5,90,10.0,0.0
100,61.0,59,60,1.0,0.0
101,66.0,60,60,6.0,0.0
102,65.0,97,60,5.0,0.0
103,66.0,48,90,6.0,0.0
104,68.0,48,60,8.0,0.0
105,69.0,48,60,10.0,0.0
106,71.0,48,60,12.0,0.0
107,73.0,48,60,1.0,0.0
108,74.0,48,60,2.0,0.0
109,76.0,48,60,4.0,0.0
110,78.0,96,60,6.0,0.0
111,74.0,96,90,2.0,0.0
112,69.0,96,90,10.0,0.0
113,71.0,96,90,12.0,0.0
114,68.0,96,90,8.0,0.0
115,64.0,96,90,4.0,0.0
116,68.0,96,90,8.0,0.0
117,73.0,96,90,1.0,0.0
118,68.0,96,90,8.0,0.0
119,69.0,96,90,10.0,0.0
120,42.0,0,2310,6.0,0.0
121,65.0,191,90,5.0,0.0
122,66.0,1,180,6.0,0.0
123,61.0,192,90,1.0,0.0
124,62.0,103,270,2.0,0.0
125,59.0,89,90,12.0,0.0
126,68.0,103,270,8.0,0.0
127,59.0,89,90,12.0,0.0
128,61.0,7,270,1.0,0.0
129,56.0,89,90,8.0,0.0
130,57.0,96,90,10.0,0.0
131,61.0,192,90,1.0,0.0
132,66.0,7,270,6.0,0.0
133,57.0,89,90,10.0,0.0
134,62.0,96,90,2.0,0.0
135,54.0,192,90,6.0,0.0
136,59.0,103,270,12.0,0.0
137,54.0,89,90,6.0,0.0
138,56.0,103,270,8.0,0.0
139,51.0,89,90,3.0,0.0
140,53.0,3,390,5.0,0.0
141,56.0,96,90,8.0,0.0
142,61.0,93,90,1.0,0.0
143,56.0,96,90,8.0,0.0
144,57.0,96,90,10.0,0.0
145,53.0,192,90,5.0,0.0
146,54.0,98,390,6.0,0.0
147,49.0,96,90,1.0,0.0
148,45.0,93,90,10.0,0.0
149,42.0,478,180,6.0,0.0
150,51.0,85,570,3.0,0.0
151,42.0,3,480,6.0,0.0
152,60.0,40,450,0.0,0.0
153,56.0,189,480,8.0,0.0
154,40.0,98,90,4.0,0.0
155,42.0,98,90,6.0,0.0
156,39.0,205,90,3.0,0.0
157,40.0,96,480,4.0,0.0
158,56.0,185,90,8.0,0.0
159,61.0,198,600,1.0,0.0
160,54.0,101,90,6.0,0.0
161,56.0,3,390,8.0,0.0
162,51.0,98,90,3.0,0.0
163,52.0,95,90,4.0,0.0
164,49.0,7,90,1.0,0.0
165,38.0,6,390,2.0,0.0
166,61.0,184,90,1.0,0.0
167,66.0,168,600,6.0,0.0
168,61.0,186,90,1.0,0.0
169,62.0,9,390,2.0,0.0
170,57.0,93,90,10.0,0.0
171,59.0,107,90,12.0,0.0
172,54.0,8,270,6.0,0.0
173,48.0,7,360,0.0,0.0
174,66.0,177,90,6.0,0.0
175,69.0,0,180,10.0,0.0
176,66.0,183,90,6.0,0.0
177,68.0,10,180,8.0,0.0
178,65.0,90,90,5.0,0.0
179,56.0,0,90,8.0,0.0
180,66.0,200,180,6.0,0.0
181,57.0,92,90,10.0,0.0
182,54.0,0,90,6.0,0.0
183,63.0,1,90,3.0,0.0
184,64.0,0,360,4.0,0.0
185,56.0,4,360,8.0,0.0
186,49.0,0,360,1.0,0.0
187,68.0,86,90,8.0,0.0
188,73.0,84,90,1.0,0.0
189,68.0,85,90,8.0,0.0
190,69.0,95,90,10.0,0.0
191,66.0,91,90,6.0,0.0
192,68.0,92,90,8.0,0.0
193,63.0,136,90,3.0,0.0
194,64.0,71,120,4.0,0.0
195,60.0,91,90,0.0,0.0
196,61.0,91,90,1.0,0.0
197,56.0,92,90,8.0,0.0
198,57.0,91,90,10.0,0.0
199,54.0,92,90,6.0,0.0
200,56.0,91,90,8.0,0.0
201,51.0,245,90,3.0,0.0
202,53.0,61,360,5.0,0.0
203,77.0,89,90,5.0,0.0
204,80.0,29,90,8.0,0.0
205,73.0,89,90,1.0,0.0
206,74.0,92,90,2.0,0.0
207,71.0,183,90,12.0,0.0
208,73.0,40,540,1.0,0.0
209,68.0,222,90,8.0,0.0
210,54.0,3,360,6.0,0.0
211,69.0,0,360,10.0,0.0
212,65.0,92,90,5.0,0.0
213,66.0,48,90,6.0,0.0
214,61.0,92,90,1.0,0.0
215,62.0,91,90,2.0,0.0
216,57.0,92,90,10.0,0.0
217,59.0,91,90,12.0,0.0
218,54.0,223,90,6.0,0.0
219,56.0,44,360,8.0,0.0
220,50.0,0,360,2.0,0.0
221,78.0,91,90,6.0,0.0
222,83.0,48,90,12.0,0.0
223,78.0,91,90,6.0,0.0
224,80.0,92,90,8.0,0.0
225,77.0,181,90,5.0,0.0
226,78.0,1,180,6.0,0.0
227,75.0,115,90,3.0,0.0
228,77.0,108,120,5.0,0.0
229,56.0,0,360,8.0,0.0
230,49.0,43,360,1.0,0.0
231,73.0,140,90,1.0,0.0
232,77.0,91,540,5.0,0.0
233,73.0,92,90,1.0,0.0
234,74.0,91,90,2.0,0.0
235,71.0,91,90,12.0,0.0
236,73.0,92,90,1.0,0.0
237,68.0,0,90,8.0,0.0
238,54.0,36,360,6.0,0.0
239,69.0,124,90,10.0,0.0
240,49.0,0,360,1.0,0.0
241,61.0,0,360,1.0,0.0
242,73.0,91,90,1.0,0.0
243,78.0,56,90,6.0,0.0
244,73.0,91,90,1.0,0.0
245,74.0,91,90,2.0,0.0
246,71.0,92,90,12.0,0.0
247,73.0,91,90,1.0,0.0
248,68.0,92,90,8.0,0.0
249,54.0,19,360,6.0,0.0
250,69.0,107,90,10.0,0.0
251,49.0,0,360,1.0,0.0
252,61.0,23,270,1.0,0.0
253,65.0,69,90,5.0,0.0
254,66.0,72,90,6.0,0.0
255,61.0,91,90,1.0,0.0
256,62.0,92,90,2.0,0.0
257,59.0,91,90,12.0,0.0
258,61.0,97,90,1.0,0.0
259,56.0,117,90,8.0,0.0
260,57.0,77,120,10.0,0.0
261,53.0,91,90,5.0,0.0
262,54.0,91,90,6.0,0.0
263,47.0,92,90,12.0,0.0
264,49.0,91,90,1.0,0.0
265,44.0,102,90,8.0,0.0
266,45.0,106,90,10.0,0.0
267,42.0,284,90,6.0,0.0
268,36.0,64,390,0.0,0.0
269,66.0,84,120,6.0,0.0
270,69.0,32,90,10.0,0.0
271,65.0,192,90,5.0,0.0
272,66.0,3,390,6.0,0.0
273,61.0,96,90,1.0,0.0
274,63.0,93,90,3.0,0.0
275,56.0,191,90,8.0,0.0
276,57.0,25,180,10.0,0.0
277,37.0,23,480,1.0,0.0
278,61.0,96,90,1.0,0.0
279,66.0,96,90,6.0,0.0
280,59.0,73,90,12.0,0.0
281,61.0,96,90,1.0,0.0
282,56.0,96,90,8.0,0.0
283,57.0,96,90,10.0,0.0
284,53.0,192,90,5.0,0.0
285,54.0,3,390,6.0,0.0
286,57.0,96,90,10.0,0.0
287,61.0,93,90,1.0,0.0
288,56.0,96,90,8.0,0.0
289,57.0,96,90,10.0,0.0
290,53.0,191,90,5.0,0.0
291,54.0,1,180,6.0,0.0
292,48.0,192,90,0.0,0.0
293,49.0,3,390,1.0,0.0
294,54.0,96,90,6.0,0.0
295,57.0,93,90,10.0,0.0
296,53.0,96,90,5.0,0.0
297,54.0,96,90,6.0,0.0
298,47.0,191,90,12.0,0.0
299,49.0,1,180,1.0,0.0
300,44.0,224,90,8.0,0.0
301,45.0,54,270,10.0,0.0
302,49.0,57,90,1.0,0.0
303,54.0,193,120,6.0,0.0
304,49.0,17,270,1.0,0.0
305,54.0,79,90,6.0,0.0
306,57.0,217,90,10.0,0.0
307,54.0,32,270,6.0,0.0
308,57.0,64,120,10.0,0.0
309,61.0,167,120,1.0,0.0
310,57.0,86,270,10.0,0.0
311,61.0,89,90,1.0,0.0
312,66.0,154,180,6.0,0.0
313,56.0,56,330,8.0,0.0
314,37.0,60,390,1.0,0.0
315,66.0,92,120,6.0,0.0
316,65.0,8,150,5.0,0.0
317,59.0,271,120,12.0,0.0
318,58.0,191,480,11.0,0.0
319,42.0,88,2310,6.0,0.0
320,61.0,96,90,1.0,0.0
321,66.0,96,90,6.0,0.0
322,61.0,17,90,1.0,0.0
323,62.0,143,480,2.0,0.0
324,58.0,96,90,11.0,0.0
325,59.0,96,90,12.0,0.0
326,53.0,81,90,5.0,0.0
327,54.0,143,480,6.0,0.0
328,59.0,96,90,12.0,0.0
329,62.0,96,90,2.0,0.0
330,59.0,65,90,12.0,0.0
331,61.0,122,480,1.0,0.0
332,56.0,96,90,8.0,0.0
333,58.0,96,90,11.0,0.0
334,53.0,81,90,5.0,0.0
335,54.0,78,330,6.0,0.0
336,58.0,118,90,11.0,0.0
337,61.0,1,180,1.0,0.0
338,56.0,171,90,8.0,0.0
339,58.0,21,180,11.0,0.0
340,54.0,29,90,6.0,0.0
341,56.0,138,120,8.0,0.0
342,53.0,775,120,5.0,0.0
343,54.0,250,780,6.0,0.0
344,73.0,106,90,1.0,0.0
345,78.0,54,120,6.0,0.0
346,81.0,48,60,10.0,0.0
347,80.0,106,60,8.0,0.0
348,78.0,54,120,6.0,0.0
349,80.0,48,60,8.0,0.0
350,77.0,106,60,5.0,0.0
351,78.0,54,120,6.0,0.0
352,76.0,48,60,4.0,0.0
353,74.0,48,60,2.0,0.0
354,73.0,48,60,1.0,0.0
355,71.0,48,60,12.0,0.0
356,69.0,48,60,10.0,0.0
357,68.0,48,60,8.0,0.0
358,66.0,48,60,6.0,0.0
359,69.0,48,60,10.0,0.0
360,68.0,48,60,8.0,0.0
361,66.0,48,60,6.0,0.0
362,64.0,48,60,4.0,0.0
363,63.0,48,60,3.0,0.0
364,64.0,48,60,4.0,0.0
365,61.0,768,60,1.0,0.0
366,51.0,0,1140,3.0,0.0
367,56.0,0,1140,8.0,0.0
368,60.0,385,1140,0.0,0.0
369,44.0,0,1140,8.0,0.0
370,66.0,361,390,6.0,0.0
371,66.0,22,360,6.0,0.0
372,66.0,384,390,6.0,0.0
373,56.0,0,390,8.0,0.0
374,61.0,0,390,1.0,0.0
375,49.0,385,1140,1.0,0.0
376,65.0,192,390,5.0,0.0
377,61.0,0,390,1.0,0.0
378,64.0,96,180,4.0,0.0
379,61.0,2,390,1.0,0.0
380,67.0,90,90,7.0,0.0
381,66.0,3,90,6.0,0.0
382,66.0,27,750,6.0,0.0
383,51.0,0,780,3.0,0.0
384,61.0,357,390,1.0,0.0
385,60.0,384,390,0.0,0.0
386,68.0,37,720,8.0,0.0
387,53.0,347,390,5.0,0.0
388,59.0,0,390,12.0,0.0
389,58.0,97,390,11.0,0.0
390,54.0,99,480,6.0,0.0
391,66.0,0,420,6.0,0.0
392,59.0,1,420,12.0,0.0
393,52.0,54,90,4.0,0.0
394,50.0,62,60,2.0,0.0
395,49.0,46,60,1.0,0.0
396,50.0,59,60,2.0,0.0
397,47.0,362,60,12.0,0.0
398,46.0,0,390,11.0,0.0
399,61.0,12,780,1.0,0.0
400,64.0,383,390,4.0,0.0
401,63.0,1,360,3.0,0.0
402,47.0,192,390,12.0,0.0
403,66.0,189,180,6.0,0.0
404,49.0,3,390,1.0,0.0
405,59.0,0,390,12.0,0.0
406,65.0,371,180,5.0,0.0
407,57.0,0,390,10.0,0.0
408,50.0,192,390,2.0,0.0
409,66.0,13,360,6.0,0.0
410,56.0,1,1140,8.0,0.0
411,47.0,3,390,12.0,0.0
412,69.0,96,90,10.0,0.0
413,68.0,93,90,8.0,0.0
414,71.0,384,90,12.0,0.0
415,65.0,189,570,5.0,0.0
416,59.0,192,390,12.0,0.0
417,49.0,0,780,1.0,0.0
418,59.0,2,390,12.0,0.0
419,66.0,341,180,6.0,0.0
420,66.0,20,330,6.0,0.0
421,42.0,192,390,6.0,0.0
422,54.0,23,360,6.0,0.0
423,59.0,0,390,12.0,0.0
424,54.0,189,180,6.0,0.0
425,58.0,3,390,11.0,0.0
426,66.0,0,390,6.0,0.0
427,52.0,192,180,4.0,0.0
428,51.0,96,180,3.0,0.0
429,66.0,0,390,6.0,0.0
430,57.0,3,390,10.0,0.0
431,52.0,93,90,4.0,0.0
432,49.0,384,90,1.0,0.0
433,56.0,0,570,8.0,0.0
434,66.0,0,390,6.0,0.0
435,48.0,192,390,0.0,0.0
436,73.0,0,390,1.0,0.0
437,49.0,189,180,1.0,0.0
438,65.0,3,390,5.0,0.0
439,47.0,0,180,12.0,0.0
440,68.0,96,180,8.0,0.0
441,73.0,2,390,1.0,0.0
442,46.0,54,90,11.0,0.0
443,64.0,213,570,4.0,0.0
444,67.0,13,180,7.0,0.0
445,49.0,41,60,1.0,0.0
446,47.0,96,60,12.0,0.0
447,68.0,25,180,8.0,0.0
448,46.0,54,90,11.0,0.0
449,47.0,27,60,12.0,0.0
450,44.0,168,60,8.0,0.0
451,73.0,195,390,1.0,0.0
452,43.0,0,390,7.0,0.0
453,70.0,96,570,11.0,0.0
454,63.0,0,570,3.0,0.0
455,44.0,3,390,8.0,0.0
456,72.0,0,180,0.0,0.0
457,71.0,2,390,12.0,0.0
458,68.0,93,90,8.0,0.0
459,66.0,189,90,6.0,0.0
460,64.0,1,180,4.0,0.0
461,49.0,2,390,1.0,0.0
462,63.0,96,90,3.0,0.0
463,70.0,1,180,11.0,0.0
464,64.0,93,90,4.0,0.0
465,61.0,192,90,1.0,0.0
466,71.0,100,270,12.0,0.0
467,63.0,3,390,3.0,0.0
468,51.0,0,1140,3.0,0.0
469,55.0,89,180,7.0,0.0
470,56.0,192,390,8.0,0.0
471,73.0,189,90,1.0,0.0
472,61.0,3,390,1.0,0.0
473,70.0,89,570,11.0,0.0
474,55.0,192,180,7.0,0.0
475,55.0,100,270,7.0,0.0
476,61.0,2,390,1.0,0.0
477,68.0,1,180,8.0,0.0
478,56.0,384,90,8.0,0.0
479,68.0,384,390,8.0,0.0
480,56.0,24,780,8.0,0.0
481,44.0,0,390,8.0,0.0
482,61.0,0,390,1.0,0.0
483,76.0,384,390,4.0,0.0
484,59.0,0,390,12.0,0.0
485,58.0,0,390,11.0,0.0
486,76.0,0,390,4.0,0.0
487,61.0,384,390,1.0,0.0
488,59.0,192,780,12.0,0.0
489,76.0,384,390,4.0,0.0
490,66.0,0,390,6.0,0.0
491,75.0,0,390,3.0,0.0
492,71.0,0,390,12.0,0.0
493,59.0,0,390,12.0,0.0
494,71.0,3,390,12.0,0.0
495,74.0,96,180,2.0,0.0
496,77.0,93,90,5.0,0.0
497,76.0,384,90,4.0,0.0
498,71.0,347,390,12.0,0.0
499,61.0,20,720,1.0,0.0
500,76.0,17,750,4.0,0.0
501,70.0,384,390,11.0,0.0
502,63.0,0,390,3.0,0.0
503,69.0,0,390,10.0,0.0
504,78.0,384,390,6.0,0.0
505,71.0,0,390,12.0,0.0
506,64.0,15,1140,4.0,0.0
507,69.0,192,390,10.0,0.0
508,68.0,189,180,8.0,0.0
509,76.0,3,390,4.0,0.0
510,66.0,96,180,6.0,0.0
511,68.0,2,390,8.0,0.0
512,74.0,96,90,2.0,0.0
513,77.0,96,90,5.0,0.0
514,76.0,54,90,4.0,0.0
515,77.0,39,60,5.0,0.0
516,74.0,194,60,2.0,0.0
517,69.0,0,390,10.0,0.0
518,74.0,189,180,2.0,0.0
519,57.0,3,390,10.0,0.0
520,73.0,192,180,1.0,0.0
521,73.0,96,180,1.0,0.0
522,78.0,0,390,6.0,0.0
523,69.0,3,390,10.0,0.0
524,75.0,93,90,3.0,0.0
525,76.0,192,90,4.0,0.0
526,66.0,0,390,6.0,0.0
527,78.0,3,390,6.0,0.0
528,75.0,96,180,3.0,0.0
529,76.0,93,90,4.0,0.0
530,73.0,192,90,1.0,0.0
531,68.0,0,390,8.0,0.0
532,78.0,189,180,6.0,0.0
533,72.0,3,390,0.0,0.0
534,77.0,381,180,5.0,0.0
535,61.0,192,390,1.0,0.0
536,73.0,0,780,1.0,0.0
537,76.0,99,390,4.0,0.0
538,66.0,3,390,6.0,0.0
539,81.0,93,90,10.0,0.0
540,75.0,144,90,3.0,0.0
541,76.0,54,150,4.0,0.0
542,68.0,29,390,8.0,0.0
543,73.0,32,780,1.0,0.0
544,80.0,53,60,8.0,0.0
545,78.0,53,60,6.0,0.0
546,76.0,53,60,4.0,0.0
547,78.0,24,60,6.0,0.0
548,80.0,358,60,8.0,0.0
549,75.0,189,570,3.0,0.0
550,66.0,192,390,6.0,0.0
551,72.0,3,390,0.0,0.0
552,66.0,0,390,6.0,0.0
553,73.0,192,180,1.0,0.0
554,73.0,189,570,1.0,0.0
555,66.0,192,180,6.0,0.0
556,65.0,192,180,5.0,0.0
557,66.0,0,390,6.0,0.0
558,75.0,0,390,3.0,0.0
559,59.0,3,390,12.0,0.0
560,71.0,192,180,12.0,0.0
561,74.0,189,180,2.0,0.0
562,59.0,0,390,12.0,0.0
563,77.0,0,390,5.0,0.0
564,68.0,3,390,8.0,0.0
565,73.0,384,180,1.0,0.0
566,59.0,192,390,12.0,0.0
567,61.0,192,570,1.0,0.0
568,73.0,1,1140,1.0,0.0
569,78.0,383,780,6.0,0.0
570,58.0,0,780,11.0,0.0
571,62.0,0,180,2.0,0.0
572,64.0,0,780,4.0,0.0
573,78.0,288,390,6.0,0.0
574,71.0,5,1530,12.0,0.0
575,59.0,96,570,12.0,0.0
576,79.0,96,90,7.0,0.0
577,81.0,192,90,10.0,0.0
578,79.0,0,180,7.0,0.0
579,63.0,0,180,3.0,0.0
580,64.0,1,180,4.0,0.0
581,81.0,95,90,10.0,0.0
582,61.0,0,180,1.0,0.0
583,83.0,192,90,12.0,0.0
584,62.0,0,390,2.0,0.0
585,66.0,3,390,6.0,0.0
586,79.0,96,180,7.0,0.0
587,78.0,93,90,6.0,0.0
588,77.0,379,90,5.0,0.0
589,68.0,0,390,8.0,0.0
590,56.0,192,390,8.0,0.0
591,77.0,0,390,5.0,0.0
592,57.0,3,390,10.0,0.0
593,78.0,1,1140,6.0,0.0
594,66.0,189,180,6.0,0.0
595,73.0,95,480,1.0,0.0
596,64.0,97,180,4.0,0.0
597,59.0,0,390,12.0,0.0
598,62.0,3,390,2.0,0.0
599,71.0,96,90,12.0,0.0
600,69.0,93,90,10.0,0.0
601,68.0,192,90,8.0,0.0
602,69.0,96,180,10.0,0.0
603,61.0,192,780,1.0,0.0
604,71.0,95,90,12.0,0.0
605,73.0,384,90,1.0,0.0
606,68.0,189,570,8.0,0.0
607,49.0,192,780,1.0,0.0
608,80.0,0,180,8.0,0.0
609,77.0,3,390,5.0,0.0
610,59.0,0,390,12.0,0.0
611,71.0,0,180,12.0,0.0
612,76.0,5,1530,4.0,0.0
613,58.0,96,180,11.0,0.0
614,66.0,0,1530,6.0,0.0
615,54.0,3,390,6.0,0.0
616,59.0,93,90,12.0,0.0
617,61.0,192,90,1.0,0.0
618,59.0,96,180,12.0,0.0
619,56.0,3,390,8.0,0.0
620,62.0,93,90,2.0,0.0
621,61.0,381,90,1.0,0.0
622,58.0,100,390,11.0,0.0
623,61.0,282,480,1.0,0.0
624,59.0,192,390,12.0,0.0
625,74.0,96,180,2.0,0.0
626,47.0,0,780,12.0,0.0
627,59.0,0,180,12.0,0.0
628,76.0,95,90,4.0,0.0
629,57.0,1,180,10.0,0.0
630,73.0,191,90,1.0,0.0
631,55.0,1,180,7.0,0.0
632,74.0,157,780,2.0,0.0
633,71.0,96,180,12.0,0.0
634,73.0,95,90,1.0,0.0
635,54.0,1,180,6.0,0.0
636,69.0,384,90,10.0,0.0
637,49.0,0,570,1.0,0.0
638,68.0,96,570,8.0,0.0
639,53.0,35,540,5.0,0.0
640,73.0,0,180,1.0,0.0
641,49.0,1,180,1.0,0.0
642,78.0,95,90,6.0,0.0
643,71.0,0,180,12.0,0.0
644,56.0,0,180,8.0,0.0
645,77.0,288,90,5.0,0.0
646,69.0,0,390,10.0,0.0
647,54.0,3,390,6.0,0.0
648,78.0,93,300,6.0,0.0
649,50.0,0,390,2.0,0.0
650,76.0,96,90,4.0,0.0
651,74.0,96,90,2.0,0.0
652,47.0,2,390,12.0,0.0
653,73.0,96,90,1.0,0.0
654,54.0,32,390,6.0,0.0
655,62.0,1,180,2.0,0.0
656,71.0,48,90,12.0,0.0
657,69.0,45,60,10.0,0.0
658,68.0,189,60,8.0,0.0
659,69.0,160,210,10.0,0.0
660,49.0,384,780,1.0,0.0
661,61.0,2,390,1.0,0.0
662,56.0,1,180,8.0,0.0
663,71.0,192,90,12.0,0.0
664,68.0,96,180,8.0,0.0
665,53.0,0,390,5.0,0.0
666,59.0,3,390,12.0,0.0
667,66.0,93,90,6.0,0.0
668,68.0,0,90,8.0,0.0
669,66.0,67,690,6.0,0.0
670,54.0,297,390,6.0,0.0
671,42.0,0,390,6.0,0.0
672,58.0,0,390,11.0,0.0
673,78.0,52,60,6.0,0.0
674,79.0,55,60,7.0,0.0
675,78.0,49,60,6.0,0.0
676,76.0,96,60,4.0,0.0
677,74.0,48,90,2.0,0.0
678,76.0,52,60,4.0,0.0
679,73.0,195,60,1.0,0.0
680,74.0,96,240,2.0,0.0
681,69.0,2,390,10.0,0.0
682,66.0,49,180,6.0,0.0
683,54.0,22,1170,6.0,0.0
684,64.0,1,180,4.0,0.0
685,76.0,45,60,4.0,0.0
686,78.0,576,60,6.0,0.0
687,72.0,65,570,0.0,0.0
688,68.0,23,630,8.0,0.0
689,63.0,0,630,3.0,0.0
690,73.0,54,60,1.0,0.0
691,75.0,68,60,3.0,0.0
692,73.0,11,60,1.0,0.0
693,75.0,41,30,3.0,0.0
694,72.0,380,30,0.0,0.0
695,61.0,53,480,1.0,0.0
696,73.0,11,1170,1.0,0.0
697,53.0,97,390,5.0,0.0
698,52.0,19,390,4.0,0.0
699,59.0,56,60,12.0,0.0
700,57.0,98,60,10.0,0.0
701,57.0,48,90,10.0,0.0
702,56.0,29,60,8.0,0.0
703,54.0,192,60,6.0,0.0
704,54.0,89,180,6.0,0.0
705,69.0,7,270,10.0,0.0
706,51.0,3,390,3.0,0.0
707,56.0,64,90,8.0,0.0
708,68.0,37,60,8.0,0.0
709,57.0,2,120,10.0,0.0
710,69.0,186,60,10.0,0.0
711,71.0,0,390,12.0,0.0
712,50.0,246,390,2.0,0.0
713,56.0,96,180,8.0,0.0
714,65.0,1,180,5.0,0.0
715,57.0,96,90,10.0,0.0
716,66.0,1,120,6.0,0.0
717,54.0,16,90,6.0,0.0
718,49.0,0,990,1.0,0.0
719,73.0,14,1050,1.0,0.0
720,56.0,51,990,8.0,0.0
721,66.0,755,240,6.0,0.0
722,65.0,829,780,5.0,0.0
723,73.0,192,180,1.0,0.0
724,74.0,192,180,2.0,0.0
725,73.0,192,180,1.0,0.0
726,71.0,192,180,12.0,0.0
727,69.0,192,180,10.0,0.0
728,68.0,192,180,8.0,0.0
729,66.0,192,180,6.0,0.0
730,65.0,192,180,5.0,0.0
731,63.0,192,180,3.0,0.0
732,61.0,192,180,1.0,0.0
733,69.0,49,180,10.0,0.0
734,69.0,48,60,10.0,0.0
735,68.0,48,60,8.0,0.0
736,69.0,240,60,10.0,0.0
737,68.0,191,240,8.0,0.0
738,66.0,96,180,6.0,0.0
739,66.0,96,90,6.0,0.0
740,68.0,96,90,8.0,0.0
741,69.0,96,90,10.0,0.0
742,68.0,96,90,8.0,0.0
743,69.0,96,90,10.0,0.0
744,78.0,96,180,6.0,0.0
745,68.0,0,90,8.0,0.0
746,66.0,96,90,6.0,0.0
747,81.0,0,180,10.0,0.0
748,64.0,96,90,4.0,0.0
749,80.0,96,180,8.0,0.0
750,66.0,96,90,6.0,0.0
751,64.0,0,90,4.0,0.0
752,78.0,0,180,6.0,0.0
753,63.0,96,90,3.0,0.0
754,61.0,96,90,1.0,0.0
755,63.0,96,90,3.0,0.0
756,76.0,0,180,4.0,0.0
757,61.0,96,90,1.0,0.0
758,75.0,0,180,3.0,0.0
759,60.0,96,90,0.0,0.0
760,58.0,96,90,11.0,0.0
761,73.0,0,180,1.0,0.0
762,60.0,96,90,0.0,0.0
763,58.0,96,90,11.0,0.0
764,72.0,96,180,0.0,0.0
765,56.0,96,90,8.0,0.0
766,54.0,0,90,6.0,0.0
767,56.0,96,90,8.0,0.0
768,70.0,96,180,11.0,0.0
769,54.0,0,90,6.0,0.0
770,68.0,0,180,8.0,0.0
771,52.0,96,90,4.0,0.0
772,51.0,96,90,3.0,0.0
773,52.0,96,90,4.0,0.0
774,76.0,49,180,4.0,0.0
775,49.0,0,90,1.0,0.0
776,76.0,48,60,4.0,0.0
777,54.0,192,180,6.0,0.0
778,75.0,48,60,3.0,0.0
779,76.0,47,60,4.0,0.0
780,75.0,191,240,3.0,0.0
781,56.0,1,180,8.0,0.0
782,73.0,0,390,1.0,0.0
783,49.0,96,180,1.0,0.0
784,61.0,96,90,1.0,0.0
785,63.0,96,90,3.0,0.0
786,73.0,0,180,1.0,0.0
787,65.0,96,90,5.0,0.0
788,66.0,96,90,6.0,0.0
789,65.0,96,90,5.0,0.0
790,75.0,0,180,3.0,0.0
791,66.0,96,90,6.0,0.0
792,77.0,0,180,5.0,0.0
793,68.0,96,90,8.0,0.0
794,69.0,96,90,10.0,0.0
795,78.0,0,180,6.0,0.0
796,68.0,96,90,8.0,0.0
797,69.0,96,90,10.0,0.0
798,71.0,96,90,12.0,0.0
799,80.0,116,450,8.0,0.0
800,73.0,96,90,1.0,0.0
801,71.0,96,90,12.0,0.0
802,73.0,76,90,1.0,0.0
803,74.0,0,570,2.0,0.0
804,78.0,96,90,6.0,0.0
805,80.0,96,90,8.0,0.0
806,81.0,96,90,10.0,0.0
807,83.0,96,90,12.0,0.0
808,81.0,96,90,10.0,0.0
809,73.0,0,180,1.0,0.0
810,83.0,96,90,12.0,0.0
811,81.0,96,90,10.0,0.0
812,71.0,0,90,12.0,0.0
813,80.0,96,90,8.0,0.0
814,69.0,96,90,10.0,0.0
815,81.0,0,90,10.0,0.0
816,78.0,96,390,6.0,0.0
817,71.0,96,90,12.0,0.0
818,69.0,96,90,10.0,0.0
819,68.0,96,90,8.0,0.0
820,73.0,0,90,1.0,0.0
821,71.0,96,90,12.0,0.0
822,77.0,96,180,5.0,0.0
823,73.0,0,90,1.0,0.0
824,78.0,0,180,6.0,0.0
825,69.0,96,90,10.0,0.0
826,68.0,96,90,8.0,0.0
827,78.0,96,90,6.0,0.0
828,69.0,0,90,10.0,0.0
829,68.0,96,90,8.0,0.0
830,80.0,0,90,8.0,0.0
831,66.0,96,180,6.0,0.0
832,81.0,96,90,10.0,0.0
833,80.0,0,90,8.0,0.0
834,54.0,96,180,6.0,0.0
835,81.0,96,90,10.0,0.0
836,80.0,0,90,8.0,0.0
837,57.0,0,180,10.0,0.0
838,78.0,96,90,6.0,0.0
839,61.0,96,180,1.0,0.0
840,76.0,0,90,4.0,0.0
841,56.0,0,180,8.0,0.0
842,78.0,96,90,6.0,0.0
843,59.0,96,180,12.0,0.0
844,76.0,0,90,4.0,0.0
845,57.0,0,180,10.0,0.0
846,54.0,0,180,6.0,0.0
847,75.0,96,90,3.0,0.0
848,73.0,96,90,1.0,0.0
849,56.0,0,180,8.0,0.0
850,75.0,96,90,3.0,0.0
851,52.0,96,180,4.0,0.0
852,73.0,0,90,1.0,0.0
853,72.0,96,90,0.0,0.0
854,54.0,0,570,6.0,0.0
855,51.0,0,180,3.0,0.0
856,73.0,96,90,1.0,0.0
857,72.0,96,90,0.0,0.0
858,49.0,0,180,1.0,0.0
859,73.0,96,90,1.0,0.0
860,75.0,96,90,3.0,0.0
861,48.0,0,180,0.0,0.0
862,76.0,96,90,4.0,0.0
863,46.0,96,180,11.0,0.0
864,75.0,96,90,3.0,0.0
865,49.0,0,180,1.0,0.0
866,76.0,0,90,4.0,0.0
867,44.0,0,180,8.0,0.0
868,48.0,0,180,0.0,0.0
869,78.0,96,90,6.0,0.0
870,72.0,96,90,0.0,0.0
871,52.0,96,180,4.0,0.0
872,56.0,96,90,8.0,0.0
873,73.0,73,300,1.0,0.0
874,57.0,0,90,10.0,0.0
875,51.0,0,390,3.0,0.0
876,56.0,23,90,8.0,0.0
877,57.0,96,90,10.0,0.0
878,71.0,96,390,12.0,0.0
879,53.0,96,90,5.0,0.0
880,54.0,96,90,6.0,0.0
881,53.0,0,180,5.0,0.0
882,49.0,96,90,1.0,0.0
883,61.0,96,180,1.0,0.0
884,69.0,96,390,10.0,0.0
885,54.0,0,180,6.0,0.0
886,61.0,96,90,1.0,0.0
887,47.0,0,180,12.0,0.0
888,62.0,96,90,2.0,0.0
889,61.0,0,90,1.0,0.0
890,52.0,0,180,4.0,0.0
891,68.0,0,390,8.0,0.0
892,62.0,96,90,2.0,0.0
893,59.0,96,90,12.0,0.0
894,45.0,96,180,10.0,0.0
895,61.0,96,90,1.0,0.0
896,59.0,0,90,12.0,0.0
897,66.0,0,390,6.0,0.0
898,50.0,0,180,2.0,0.0
899,61.0,96,90,1.0,0.0
900,57.0,96,90,10.0,0.0
901,44.0,96,180,8.0,0.0
902,59.0,96,90,12.0,0.0
903,57.0,0,90,10.0,0.0
904,65.0,21,180,5.0,0.0
905,49.0,96,180,1.0,0.0
906,59.0,75,90,12.0,0.0
907,56.0,0,90,8.0,0.0
908,57.0,96,90,10.0,0.0
909,42.0,0,390,6.0,0.0
910,66.0,3,390,6.0,0.0
911,61.0,96,90,1.0,0.0
912,59.0,93,90,12.0,0.0
913,61.0,192,90,1.0,0.0
914,62.0,96,480,2.0,0.0
915,69.0,0,90,10.0,0.0
916,54.0,96,90,6.0,0.0
917,68.0,96,90,8.0,0.0
918,52.0,0,90,4.0,0.0
919,69.0,0,90,10.0,0.0
920,54.0,96,90,6.0,0.0
921,71.0,155,420,12.0,0.0
922,56.0,3,390,8.0,0.0
923,63.0,96,90,3.0,0.0
924,61.0,93,90,1.0,0.0
925,63.0,37,90,3.0,0.0
926,64.0,96,480,4.0,0.0
927,71.0,96,90,12.0,0.0
928,56.0,0,90,8.0,0.0
929,69.0,0,90,10.0,0.0
930,54.0,96,90,6.0,0.0
931,56.0,0,90,8.0,0.0
932,71.0,96,90,12.0,0.0
933,57.0,3,390,10.0,0.0
934,73.0,135,450,1.0,0.0
935,65.0,96,90,5.0,0.0
936,63.0,93,90,3.0,0.0
937,65.0,57,90,5.0,0.0
938,66.0,96,480,6.0,0.0
939,57.0,0,90,10.0,0.0
940,73.0,96,90,1.0,0.0
941,71.0,0,90,12.0,0.0
942,56.0,96,90,8.0,0.0
943,58.0,0,90,11.0,0.0
944,73.0,96,90,1.0,0.0
945,59.0,3,390,12.0,0.0
946,74.0,15,570,2.0,0.0
947,66.0,96,90,6.0,0.0
948,65.0,93,90,5.0,0.0
949,66.0,177,90,6.0,0.0
950,68.0,0,180,8.0,0.0
951,59.0,96,90,12.0,0.0
952,66.0,96,180,6.0,0.0
953,57.0,96,90,10.0,0.0
954,74.0,96,300,2.0,0.0
955,59.0,0,90,12.0,0.0
956,61.0,96,180,1.0,0.0
957,65.0,96,390,5.0,0.0
958,73.0,0,90,1.0,0.0
959,71.0,96,90,12.0,0.0
960,49.0,0,180,1.0,0.0
961,73.0,0,90,1.0,0.0
962,50.0,96,90,2.0,0.0
963,69.0,96,180,10.0,0.0
964,66.0,0,180,6.0,0.0
965,49.0,0,90,1.0,0.0
966,73.0,0,180,1.0,0.0
967,50.0,96,90,2.0,0.0
968,70.0,96,180,11.0,0.0
969,49.0,0,90,1.0,0.0
970,47.0,96,90,12.0,0.0
971,71.0,96,180,12.0,0.0
972,74.0,0,180,2.0,0.0
973,45.0,0,90,10.0,0.0
974,47.0,96,90,12.0,0.0
975,73.0,0,180,1.0,0.0
976,66.0,0,180,6.0,0.0
977,45.0,96,90,10.0,0.0
978,44.0,96,90,8.0,0.0
979,71.0,0,180,12.0,0.0
980,65.0,0,180,5.0,0.0
981,42.0,96,90,6.0,0.0
982,44.0,96,90,8.0,0.0
983,69.0,96,180,10.0,0.0
984,61.0,0,180,1.0,0.0
985,42.0,0,90,6.0,0.0
986,41.0,96,90,5.0,0.0
987,59.0,0,180,12.0,0.0
988,68.0,96,180,8.0,0.0
989,42.0,0,90,6.0,0.0
990,41.0,96,90,5.0,0.0
991,66.0,96,180,6.0,0.0
992,57.0,0,180,10.0,0.0
993,42.0,0,90,6.0,0.0
994,44.0,96,90,8.0,0.0
995,56.0,96,180,8.0,0.0
996,65.0,0,180,5.0,0.0
997,45.0,0,90,10.0,0.0
998,54.0,0,180,6.0,0.0
999,63.0,96,180,3.0,0.0
1000,44.0,96,90,8.0,0.0
1001,45.0,0,90,10.0,0.0
1002,53.0,0,180,5.0,0.0
1003,61.0,0,180,1.0,0.0
1004,47.0,96,90,12.0,0.0
1005,49.0,96,90,1.0,0.0
1006,69.0,65,180,10.0,0.0
1007,54.0,41,300,6.0,0.0
1008,45.0,96,90,10.0,0.0
1009,47.0,0,90,12.0,0.0
1010,69.0,31,60,10.0,0.0
1011,49.0,0,390,1.0,0.0
1012,68.0,55,60,8.0,0.0
1013,53.0,9,90,5.0,0.0
1014,69.0,87,60,10.0,0.0
1015,51.0,96,90,3.0,0.0
1016,68.0,0,180,8.0,0.0
1017,53.0,191,90,5.0,0.0
1018,50.0,192,180,2.0,0.0
1019,66.0,1,180,6.0,0.0
1020,54.0,0,180,6.0,0.0
1021,50.0,25,390,2.0,0.0
1022,66.0,25,180,6.0,0.0
1023,69.0,167,120,10.0,0.0
1024,68.0,0,180,8.0,0.0
1025,71.0,167,120,12.0,0.0
1026,70.0,0,180,11.0,0.0
1027,49.0,0,180,1.0,0.0
1028,73.0,191,90,1.0,0.0
1029,47.0,192,180,12.0,0.0
1030,74.0,0,180,2.0,0.0
1031,71.0,1,180,12.0,0.0
1032,71.0,0,390,12.0,0.0
1033,59.0,25,180,12.0,0.0
1034,62.0,167,120,2.0,0.0
1035,61.0,25,180,1.0,0.0
1036,64.0,167,120,4.0,0.0
1037,63.0,0,180,3.0,0.0
1038,69.0,96,180,10.0,0.0
1039,66.0,0,90,6.0,0.0
1040,64.0,192,180,4.0,0.0
1041,69.0,91,90,10.0,0.0
1042,68.0,5,90,8.0,0.0
1043,52.0,25,390,4.0,0.0
1044,68.0,25,180,8.0,0.0
1045,71.0,167,120,12.0,0.0
1046,69.0,0,180,10.0,0.0
1047,73.0,167,120,1.0,0.0
1048,50.0,191,180,2.0,0.0
1049,71.0,0,180,12.0,0.0
1050,74.0,0,90,2.0,0.0
1051,49.0,192,180,1.0,0.0
1052,76.0,0,180,4.0,0.0
1053,73.0,1,180,1.0,0.0
1054,61.0,25,180,1.0,0.0
1055,73.0,0,390,1.0,0.0
1056,64.0,167,120,4.0,0.0
1057,63.0,25,180,3.0,0.0
1058,66.0,167,120,6.0,0.0
1059,65.0,0,180,5.0,0.0
1060,71.0,96,180,12.0,0.0
1061,68.0,0,90,8.0,0.0
1062,71.0,91,90,12.0,0.0
1063,66.0,192,180,6.0,0.0
1064,69.0,5,90,10.0,0.0
1065,69.0,25,180,10.0,0.0
1066,54.0,0,390,6.0,0.0
1067,73.0,167,120,1.0,0.0
1068,71.0,25,180,12.0,0.0
1069,74.0,167,120,2.0,0.0
1070,52.0,0,180,4.0,0.0
1071,73.0,25,180,1.0,0.0
1072,76.0,167,120,4.0,0.0
1073,50.0,0,180,2.0,0.0
1074,74.0,95,180,2.0,0.0
1075,78.0,97,180,6.0,0.0
1076,69.0,25,180,10.0,0.0
1077,62.0,25,390,2.0,0.0
1078,78.0,167,120,6.0,0.0
1079,71.0,0,180,12.0,0.0
1080,80.0,167,120,8.0,0.0
1081,61.0,191,180,1.0,0.0
1082,73.0,0,180,1.0,0.0
1083,82.0,192,300,11.0,0.0
1084,59.0,0,180,12.0,0.0
1085,74.0,1,180,2.0,0.0
1086,71.0,25,180,12.0,0.0
1087,83.0,25,390,12.0,0.0
1088,74.0,167,120,2.0,0.0
1089,73.0,0,180,1.0,0.0
1090,76.0,167,120,4.0,0.0
1091,75.0,0,180,3.0,0.0
1092,81.0,191,180,10.0,0.0
1093,78.0,0,90,6.0,0.0
1094,76.0,1,180,4.0,0.0
1095,80.0,0,390,8.0,0.0
1096,74.0,192,90,2.0,0.0
1097,73.0,96,390,1.0,0.0
1098,69.0,96,90,10.0,0.0
1099,78.0,95,90,6.0,0.0
1100,62.0,1,180,2.0,0.0
1101,76.0,0,90,4.0,0.0
1102,78.0,96,90,6.0,0.0
1103,71.0,0,390,12.0,0.0
1104,68.0,96,90,8.0,0.0
1105,74.0,0,90,2.0,0.0
1106,76.0,95,90,4.0,0.0
1107,61.0,1,180,1.0,0.0
1108,74.0,96,90,2.0,0.0
1109,69.0,96,390,10.0,0.0
1110,76.0,96,90,4.0,0.0
1111,73.0,0,90,1.0,0.0
1112,66.0,96,90,6.0,0.0
1113,59.0,1,180,12.0,0.0
1114,74.0,95,90,2.0,0.0
1115,73.0,0,90,1.0,0.0
1116,74.0,96,90,2.0,0.0
1117,68.0,96,180,8.0,0.0
1118,76.0,0,90,4.0,0.0
1119,64.0,0,90,4.0,0.0
1120,73.0,0,300,1.0,0.0
1121,66.0,0,180,6.0,0.0
1122,69.0,96,90,10.0,0.0
1123,68.0,96,90,8.0,0.0
1124,69.0,96,90,10.0,0.0
1125,64.0,96,180,4.0,0.0
1126,73.0,0,90,1.0,0.0
1127,68.0,0,300,8.0,0.0
1128,63.0,0,180,3.0,0.0
1129,78.0,96,90,6.0,0.0
1130,76.0,96,90,4.0,0.0
1131,61.0,0,180,1.0,0.0
1132,78.0,96,90,6.0,0.0
1133,69.0,96,180,10.0,0.0
1134,76.0,0,90,4.0,0.0
1135,59.0,0,180,12.0,0.0
1136,68.0,96,180,8.0,0.0
1137,74.0,96,90,2.0,0.0
1138,73.0,0,90,1.0,0.0
1139,74.0,96,90,2.0,0.0
1140,69.0,0,180,10.0,0.0
1141,57.0,0,180,10.0,0.0
1142,73.0,96,90,1.0,0.0
1143,71.0,96,90,12.0,0.0
1144,56.0,96,180,8.0,0.0
1145,64.0,0,180,4.0,0.0
1146,69.0,0,90,10.0,0.0
1147,54.0,0,180,6.0,0.0
1148,71.0,96,90,12.0,0.0
1149,62.0,96,300,2.0,0.0
1150,69.0,96,90,10.0,0.0
1151,52.0,96,180,4.0,0.0
1152,68.0,0,90,8.0,0.0
1153,56.0,0,90,8.0,0.0
1154,74.0,0,90,2.0,0.0
1155,73.0,96,90,1.0,0.0
1156,54.0,49,180,6.0,0.0
1157,57.0,96,480,10.0,0.0
1158,71.0,0,90,12.0,0.0
1159,50.0,93,180,2.0,0.0
1160,73.0,48,60,1.0,0.0
1161,71.0,48,60,12.0,0.0
1162,73.0,47,60,1.0,0.0
1163,71.0,3,150,12.0,0.0
1164,52.0,96,180,4.0,0.0
1165,69.0,0,90,10.0,0.0
1166,56.0,0,90,8.0,0.0
1167,45.0,3,390,10.0,0.0
1168,69.0,96,480,10.0,0.0
1169,57.0,96,90,10.0,0.0
1170,73.0,96,90,1.0,0.0
1171,71.0,93,90,12.0,0.0
1172,73.0,96,90,1.0,0.0
1173,66.0,96,480,6.0,0.0
1174,51.0,0,90,3.0,0.0
1175,78.0,96,90,6.0,0.0
1176,76.0,96,90,4.0,0.0
1177,49.0,0,90,1.0,0.0
1178,51.0,0,90,3.0,0.0
1179,78.0,96,90,6.0,0.0
1180,72.0,96,480,0.0,0.0
1181,44.0,3,390,8.0,0.0
1182,68.0,96,90,8.0,0.0
1183,66.0,93,90,6.0,0.0
1184,68.0,96,90,8.0,0.0
1185,61.0,96,480,1.0,0.0
1186,73.0,96,90,1.0,0.0
1187,45.0,0,90,10.0,0.0
1188,44.0,0,90,8.0,0.0
1189,71.0,96,90,12.0,0.0
1190,45.0,0,90,10.0,0.0
1191,73.0,96,90,1.0,0.0
1192,69.0,96,480,10.0,0.0
1193,42.0,3,390,6.0,0.0
1194,66.0,96,90,6.0,0.0
1195,64.0,93,90,4.0,0.0
1196,66.0,96,90,6.0,0.0
1197,63.0,96,480,3.0,0.0
1198,71.0,96,90,12.0,0.0
1199,44.0,0,90,8.0,0.0
1200,69.0,96,90,10.0,0.0
1201,42.0,0,90,6.0,0.0
1202,44.0,0,90,8.0,0.0
1203,71.0,96,90,12.0,0.0
1204,68.0,96,480,8.0,0.0
1205,40.0,3,390,4.0,0.0
1206,64.0,96,90,4.0,0.0
1207,63.0,93,90,3.0,0.0
1208,64.0,96,90,4.0,0.0
1209,61.0,96,480,1.0,0.0
1210,45.0,0,90,10.0,0.0
1211,73.0,96,90,1.0,0.0
1212,71.0,96,90,12.0,0.0
1213,44.0,0,90,8.0,0.0
1214,45.0,0,90,10.0,0.0
1215,73.0,96,90,1.0,0.0
1216,66.0,96,480,6.0,0.0
1217,39.0,3,390,3.0,0.0
1218,63.0,96,90,3.0,0.0
1219,61.0,93,90,1.0,0.0
1220,63.0,96,90,3.0,0.0
1221,60.0,0,390,0.0,0.0
1222,44.0,96,90,8.0,0.0
1223,63.0,0,90,3.0,0.0
1224,68.0,0,90,8.0,0.0
1225,42.0,96,90,6.0,0.0
1226,44.0,0,90,8.0,0.0
1227,63.0,96,90,3.0,0.0
1228,61.0,0,570,1.0,0.0
1229,37.0,96,90,1.0,0.0
1230,64.0,0,180,4.0,0.0
1231,56.0,96,90,8.0,0.0
1232,76.0,0,180,4.0,0.0
1233,54.0,96,90,6.0,0.0
1234,56.0,96,90,8.0,0.0
1235,78.0,96,180,6.0,0.0
1236,57.0,96,90,10.0,0.0
1237,56.0,0,90,8.0,0.0
1238,80.0,0,180,8.0,0.0
1239,76.0,0,180,4.0,0.0
1240,57.0,96,90,10.0,0.0
1241,56.0,96,90,8.0,0.0
1242,75.0,0,180,3.0,0.0
1243,81.0,0,180,10.0,0.0
1244,54.0,96,90,6.0,0.0
1245,52.0,96,90,4.0,0.0
1246,54.0,96,90,6.0,0.0
1247,80.0,0,180,8.0,0.0
1248,76.0,0,180,4.0,0.0
1249,52.0,96,90,4.0,0.0
1250,51.0,96,90,3.0,0.0
1251,78.0,96,180,6.0,0.0
1252,72.0,0,180,0.0,0.0
1253,49.0,0,90,1.0,0.0
1254,76.0,0,180,4.0,0.0
1255,68.0,96,180,8.0,0.0
1256,51.0,96,90,3.0,0.0
1257,49.0,0,90,1.0,0.0
1258,66.0,0,180,6.0,0.0
1259,75.0,96,180,3.0,0.0
1260,48.0,96,90,0.0,0.0
1261,49.0,0,90,1.0,0.0
1262,73.0,0,180,1.0,0.0
1263,48.0,96,90,0.0,0.0
1264,64.0,0,180,4.0,0.0
1265,49.0,96,90,1.0,0.0
1266,63.0,0,180,3.0,0.0
1267,72.0,0,180,0.0,0.0
1268,51.0,96,90,3.0,0.0
1269,52.0,96,90,4.0,0.0
1270,51.0,96,90,3.0,0.0
1271,70.0,0,180,11.0,0.0
1272,61.0,96,180,1.0,0.0
1273,52.0,0,90,4.0,0.0
1274,60.0,96,180,0.0,0.0
1275,54.0,96,90,6.0,0.0
1276,68.0,0,180,8.0,0.0
1277,56.0,0,90,8.0,0.0
1278,52.0,96,90,4.0,0.0
1279,76.0,0,180,4.0,0.0
1280,61.0,41,300,1.0,0.0
1281,54.0,65,90,6.0,0.0
1282,76.0,31,60,4.0,0.0
1283,56.0,192,390,8.0,0.0
1284,75.0,55,60,3.0,0.0
1285,60.0,9,90,0.0,0.0
1286,76.0,87,60,4.0,0.0
1287,58.0,53,90,11.0,0.0
1288,75.0,43,150,3.0,0.0
1289,60.0,0,90,0.0,0.0
1290,49.0,0,390,1.0,0.0
1291,61.0,3,390,1.0,0.0
1292,68.0,96,90,8.0,0.0
1293,66.0,93,90,6.0,0.0
1294,68.0,105,90,8.0,0.0
1295,69.0,87,90,10.0,0.0
1296,61.0,0,90,1.0,0.0
1297,68.0,96,90,8.0,0.0
1298,69.0,86,120,10.0,0.0
1299,59.0,10,90,12.0,0.0
1300,61.0,0,90,1.0,0.0
1301,68.0,96,90,8.0,0.0
1302,66.0,1,180,6.0,0.0
1303,62.0,95,90,2.0,0.0
1304,78.0,96,90,6.0,0.0
1305,61.0,0,90,1.0,0.0
1306,77.0,96,90,5.0,0.0
1307,62.0,0,90,2.0,0.0
1308,78.0,0,90,6.0,0.0
1309,61.0,96,90,1.0,0.0
1310,79.0,0,90,7.0,0.0
1311,59.0,96,90,12.0,0.0
1312,59.0,96,90,12.0,0.0
1313,78.0,0,90,6.0,0.0
1314,57.0,96,90,10.0,0.0
1315,79.0,0,90,7.0,0.0
1316,78.0,0,90,6.0,0.0
1317,59.0,96,90,12.0,0.0
1318,61.0,95,90,1.0,0.0
1319,76.0,1,180,4.0,0.0
1320,68.0,0,90,8.0,0.0
1321,59.0,96,90,12.0,0.0
1322,61.0,0,90,1.0,0.0
1323,75.0,96,90,3.0,0.0
1324,66.0,0,90,6.0,0.0
1325,59.0,0,90,12.0,0.0
1326,68.0,96,90,8.0,0.0
1327,76.0,0,90,4.0,0.0
1328,78.0,0,90,6.0,0.0
1329,69.0,96,90,10.0,0.0
1330,57.0,0,90,10.0,0.0
1331,57.0,0,90,10.0,0.0
1332,68.0,96,90,8.0,0.0
1333,76.0,0,90,4.0,0.0
1334,78.0,96,90,6.0,0.0
1335,69.0,0,90,10.0,0.0
1336,56.0,0,90,8.0,0.0
1337,68.0,0,90,8.0,0.0
1338,57.0,96,90,10.0,0.0
1339,76.0,0,90,4.0,0.0
1340,66.0,21,180,6.0,0.0
1341,59.0,75,90,12.0,0.0
1342,74.0,0,180,2.0,0.0
1343,57.0,96,90,10.0,0.0
1344,56.0,96,90,8.0,0.0
1345,71.0,96,390,12.0,0.0
1346,54.0,96,90,6.0,0.0
1347,73.0,0,390,1.0,0.0
1348,53.0,96,90,5.0,0.0
1349,56.0,0,90,8.0,0.0
1350,54.0,96,90,6.0,0.0
1351,69.0,96,390,10.0,0.0
1352,57.0,96,90,10.0,0.0
1353,51.0,96,90,3.0,0.0
1354,71.0,96,390,12.0,0.0
1355,54.0,0,90,6.0,0.0
1356,68.0,0,390,8.0,0.0
1357,52.0,96,90,4.0,0.0
1358,56.0,0,90,8.0,0.0
1359,69.0,0,390,10.0,0.0
1360,54.0,96,90,6.0,0.0
1361,52.0,96,90,4.0,0.0
1362,66.0,0,390,6.0,0.0
1363,50.0,96,90,2.0,0.0
1364,49.0,96,90,1.0,0.0
1365,68.0,3,390,8.0,0.0
1366,47.0,96,90,12.0,0.0
1367,50.0,96,90,2.0,0.0
1368,49.0,93,90,1.0,0.0
1369,66.0,96,180,6.0,0.0
1370,47.0,0,90,12.0,0.0
1371,65.0,52,150,5.0,0.0
1372,49.0,44,90,1.0,0.0
1373,47.0,192,90,12.0,0.0
1374,49.0,191,180,1.0,0.0
1375,73.0,0,180,1.0,0.0
1376,74.0,89,180,2.0,0.0
1377,66.0,103,270,6.0,0.0
1378,42.0,1,180,6.0,0.0
1379,73.0,0,180,1.0,0.0
1380,61.0,96,90,1.0,0.0
1381,71.0,96,180,12.0,0.0
1382,62.0,96,90,2.0,0.0
1383,61.0,0,90,1.0,0.0
1384,69.0,0,180,10.0,0.0
1385,62.0,96,90,2.0,0.0
1386,61.0,96,90,1.0,0.0
1387,59.0,96,90,12.0,0.0
1388,68.0,0,180,8.0,0.0
1389,57.0,96,90,10.0,0.0
1390,66.0,96,180,6.0,0.0
1391,59.0,96,90,12.0,0.0
1392,57.0,0,90,10.0,0.0
1393,56.0,96,90,8.0,0.0
1394,65.0,0,180,5.0,0.0
1395,54.0,96,90,6.0,0.0
1396,56.0,96,90,8.0,0.0
1397,63.0,0,180,3.0,0.0
1398,54.0,96,90,6.0,0.0
1399,61.0,0,180,1.0,0.0
1400,53.0,96,90,5.0,0.0
1401,49.0,192,90,1.0,0.0
1402,54.0,9,300,6.0,0.0
1403,69.0,49,180,10.0,0.0
1404,69.0,47,60,10.0,0.0
1405,68.0,48,60,8.0,0.0
1406,53.0,96,90,5.0,0.0
1407,69.0,39,60,10.0,0.0
1408,68.0,41,180,8.0,0.0
1409,54.0,55,90,6.0,0.0
1410,56.0,192,90,8.0,0.0
1411,57.0,145,420,10.0,0.0
1412,66.0,96,90,6.0,0.0
1413,68.0,96,90,8.0,0.0
1414,69.0,47,90,10.0,0.0
1415,71.0,135,450,12.0,0.0
1416,56.0,96,90,8.0,0.0
1417,57.0,96,90,10.0,0.0
1418,59.0,57,90,12.0,0.0
1419,61.0,125,450,1.0,0.0
1420,69.0,96,90,10.0,0.0
1421,71.0,96,90,12.0,0.0
1422,73.0,67,90,1.0,0.0
1423,74.0,115,450,2.0,0.0
1424,59.0,96,90,12.0,0.0
1425,61.0,96,90,1.0,0.0
1426,62.0,77,90,2.0,0.0
1427,64.0,105,480,4.0,0.0
1428,73.0,96,90,1.0,0.0
1429,74.0,96,90,2.0,0.0
1430,76.0,87,90,4.0,0.0
1431,78.0,55,510,6.0,0.0
1432,62.0,96,90,2.0,0.0
1433,64.0,96,90,4.0,0.0
1434,66.0,137,90,6.0,0.0
1435,67.0,96,300,7.0,0.0
1436,71.0,96,90,12.0,0.0
1437,76.0,96,300,4.0,0.0
1438,73.0,96,90,1.0,0.0
1439,66.0,96,300,6.0,0.0
1440,69.0,96,90,10.0,0.0
1441,74.0,96,300,2.0,0.0
1442,71.0,96,90,12.0,0.0
1443,64.0,96,300,4.0,0.0
1444,67.0,96,90,7.0,0.0
1445,73.0,96,300,1.0,0.0
1446,69.0,96,90,10.0,0.0
1447,62.0,96,300,2.0,0.0
1448,66.0,96,90,6.0,0.0
1449,71.0,96,300,12.0,0.0
1450,67.0,96,90,7.0,0.0
1451,61.0,25,540,1.0,0.0
1452,71.0,96,90,12.0,0.0
1453,70.0,96,90,11.0,0.0
1454,68.0,167,90,8.0,0.0
1455,70.0,23,360,11.0,0.0
1456,64.0,96,90,4.0,0.0
1457,62.0,73,90,2.0,0.0
1458,54.0,96,180,6.0,0.0
1459,61.0,0,90,1.0,0.0
1460,55.0,0,180,7.0,0.0
1461,59.0,95,90,12.0,0.0
1462,71.0,1,180,12.0,0.0
1463,63.0,96,90,3.0,0.0
1464,64.0,96,90,4.0,0.0
1465,54.0,96,180,6.0,0.0
1466,66.0,0,90,6.0,0.0
1467,52.0,96,180,4.0,0.0
1468,67.0,96,90,7.0,0.0
1469,66.0,0,90,6.0,0.0
1470,71.0,0,180,12.0,0.0
1471,50.0,96,180,2.0,0.0
1472,67.0,96,90,7.0,0.0
1473,66.0,0,90,6.0,0.0
1474,70.0,0,180,11.0,0.0
1475,64.0,96,90,4.0,0.0
1476,49.0,96,180,1.0,0.0
1477,62.0,0,90,2.0,0.0
1478,64.0,96,90,4.0,0.0
1479,47.0,96,180,12.0,0.0
1480,71.0,0,180,12.0,0.0
1481,62.0,0,90,2.0,0.0
1482,46.0,96,180,11.0,0.0
1483,61.0,96,90,1.0,0.0
1484,66.0,0,180,6.0,0.0
1485,62.0,0,90,2.0,0.0
1486,61.0,96,90,1.0,0.0
1487,44.0,0,180,8.0,0.0
1488,68.0,96,180,8.0,0.0
1489,62.0,0,90,2.0,0.0
1490,64.0,96,90,4.0,0.0
1491,42.0,0,180,6.0,0.0
1492,70.0,0,180,11.0,0.0
1493,66.0,96,90,6.0,0.0
1494,47.0,0,180,12.0,0.0
1495,71.0,0,390,12.0,0.0
1496,62.0,96,90,2.0,0.0
1497,64.0,96,90,4.0,0.0
1498,61.0,96,90,1.0,0.0
1499,40.0,0,180,4.0,0.0
1500,66.0,96,90,6.0,0.0
1501,64.0,96,90,4.0,0.0
1502,42.0,0,180,6.0,0.0
1503,70.0,0,180,11.0,0.0
1504,66.0,96,90,6.0,0.0
1505,71.0,96,90,12.0,0.0
1506,62.0,89,180,2.0,0.0
1507,47.0,7,270,12.0,0.0
1508,78.0,91,180,6.0,0.0
1509,71.0,192,180,12.0,0.0
1510,77.0,5,90,5.0,0.0
1511,73.0,0,180,1.0,0.0
1512,47.0,96,90,12.0,0.0
1513,78.0,0,180,6.0,0.0
1514,50.0,91,90,2.0,0.0
1515,71.0,0,180,12.0,0.0
1516,80.0,5,90,8.0,0.0
1517,47.0,192,90,12.0,0.0
1518,54.0,3,390,6.0,0.0
1519,73.0,96,180,1.0,0.0
1520,81.0,93,180,10.0,0.0
1521,69.0,96,180,10.0,0.0
1522,72.0,96,180,0.0,0.0
1523,68.0,0,180,8.0,0.0
1524,42.0,96,90,6.0,0.0
1525,73.0,0,180,1.0,0.0
1526,66.0,0,180,6.0,0.0
1527,45.0,96,90,10.0,0.0
1528,75.0,96,180,3.0,0.0
1529,42.0,96,90,6.0,0.0
1530,49.0,0,90,1.0,0.0
1531,64.0,96,180,4.0,0.0
1532,77.0,96,180,5.0,0.0
1533,59.0,0,90,12.0,0.0
1534,73.0,96,180,1.0,0.0
1535,57.0,0,90,10.0,0.0
1536,75.0,0,180,3.0,0.0
1537,59.0,0,90,12.0,0.0
1538,71.0,0,180,12.0,0.0
1539,56.0,96,90,8.0,0.0
1540,59.0,96,90,12.0,0.0
1541,77.0,0,180,5.0,0.0
1542,54.0,96,90,6.0,0.0
1543,69.0,96,180,10.0,0.0
1544,78.0,0,180,6.0,0.0
1545,57.0,0,90,10.0,0.0
1546,68.0,0,180,8.0,0.0
1547,53.0,96,90,5.0,0.0
1548,80.0,96,90,8.0,0.0
1549,56.0,0,90,8.0,0.0
1550,71.0,0,180,12.0,0.0
1551,74.0,96,180,2.0,0.0
1552,49.0,96,90,1.0,0.0
1553,53.0,0,90,5.0,0.0
1554,51.0,96,90,3.0,0.0
1555,73.0,96,180,1.0,0.0
1556,69.0,0,180,10.0,0.0
1557,54.0,0,90,6.0,0.0
1558,68.0,96,390,8.0,0.0
1559,53.0,96,90,5.0,0.0
1560,71.0,0,180,12.0,0.0
1561,56.0,96,90,8.0,0.0
1562,54.0,96,90,6.0,0.0
1563,69.0,0,390,10.0,0.0
1564,57.0,0,90,10.0,0.0
1565,62.0,96,90,2.0,0.0
1566,66.0,0,390,6.0,0.0
1567,57.0,96,90,10.0,0.0
1568,59.0,96,90,12.0,0.0
1569,68.0,192,390,8.0,0.0
1570,56.0,96,90,8.0,0.0
1571,65.0,0,180,5.0,0.0
1572,61.0,96,90,1.0,0.0
1573,49.0,0,90,1.0,0.0
1574,66.0,3,390,6.0,0.0
1575,50.0,0,180,2.0,0.0
1576,69.0,96,90,10.0,0.0
1577,49.0,0,180,1.0,0.0
1578,73.0,93,90,1.0,0.0
1579,69.0,192,90,10.0,0.0
1580,74.0,0,180,2.0,0.0
1581,47.0,0,180,12.0,0.0
1582,66.0,96,90,6.0,0.0
1583,45.0,0,180,10.0,0.0
1584,69.0,96,90,10.0,0.0
1585,73.0,0,180,1.0,0.0
1586,66.0,96,90,6.0,0.0
1587,71.0,0,180,12.0,0.0
1588,68.0,96,180,8.0,0.0
1589,44.0,96,90,8.0,0.0
1590,56.0,0,90,8.0,0.0
1591,66.0,0,180,6.0,0.0
1592,69.0,96,300,10.0,0.0
1593,59.0,96,90,12.0,0.0
1594,56.0,96,90,8.0,0.0
1595,64.0,96,180,4.0,0.0
1596,61.0,0,180,1.0,0.0
1597,68.0,0,90,8.0,0.0
1598,59.0,0,180,12.0,0.0
1599,71.0,95,90,12.0,0.0
1600,62.0,1,180,2.0,0.0
1601,68.0,192,90,8.0,0.0
1602,57.0,96,180,10.0,0.0
1603,73.0,0,180,1.0,0.0
1604,61.0,0,90,1.0,0.0
1605,56.0,1,180,8.0,0.0
1606,65.0,95,90,5.0,0.0
1607,71.0,192,180,12.0,0.0
1608,61.0,0,90,1.0,0.0
1609,66.0,0,180,6.0,0.0
1610,69.0,96,180,10.0,0.0
1611,54.0,0,90,6.0,0.0
1612,57.0,95,90,10.0,0.0
1613,64.0,0,180,4.0,0.0
1614,68.0,1,180,8.0,0.0
1615,54.0,192,90,6.0,0.0
1616,63.0,0,180,3.0,0.0
1617,59.0,0,180,12.0,0.0
1618,66.0,96,90,6.0,0.0
1619,61.0,1,180,1.0,0.0
1620,57.0,192,180,10.0,0.0
1621,69.0,95,90,10.0,0.0
1622,66.0,0,90,6.0,0.0
1623,71.0,0,180,12.0,0.0
1624,56.0,96,180,8.0,0.0
1625,59.0,0,90,12.0,0.0
1626,69.0,192,180,10.0,0.0
1627,54.0,1,180,6.0,0.0
1628,63.0,95,90,3.0,0.0
1629,59.0,0,90,12.0,0.0
1630,64.0,96,180,4.0,0.0
1631,68.0,0,180,8.0,0.0
1632,52.0,0,90,4.0,0.0
1633,66.0,1,180,6.0,0.0
1634,63.0,0,180,3.0,0.0
1635,56.0,95,90,8.0,0.0
1636,52.0,192,90,4.0,0.0
1637,61.0,0,180,1.0,0.0
1638,57.0,0,180,10.0,0.0
1639,64.0,96,90,4.0,0.0
1640,68.0,95,90,8.0,0.0
1641,59.0,1,180,12.0,0.0
1642,56.0,192,180,8.0,0.0
1643,64.0,0,90,4.0,0.0
1644,69.0,0,180,10.0,0.0
1645,54.0,96,180,6.0,0.0
1646,57.0,0,90,10.0,0.0
1647,61.0,95,90,1.0,0.0
1648,68.0,0,180,8.0,0.0
1649,52.0,1,180,4.0,0.0
1650,57.0,192,90,10.0,0.0
1651,66.0,96,180,6.0,0.0
1652,63.0,0,180,3.0,0.0
1653,51.0,0,90,3.0,0.0
1654,54.0,95,90,6.0,0.0
1655,61.0,0,180,1.0,0.0
1656,64.0,1,180,4.0,0.0
1657,51.0,91,90,3.0,0.0
1658,56.0,0,180,8.0,0.0
1659,63.0,101,90,3.0,0.0
1660,63.0,96,90,3.0,0.0
1661,66.0,95,90,6.0,0.0
1662,57.0,1,180,10.0,0.0
1663,54.0,0,180,6.0,0.0
1664,63.0,192,90,3.0,0.0
1665,52.0,96,180,4.0,0.0
1666,68.0,0,180,8.0,0.0
1667,56.0,0,90,8.0,0.0
1668,60.0,95,90,0.0,0.0
1669,51.0,1,180,3.0,0.0
1670,66.0,0,180,6.0,0.0
1671,56.0,192,90,8.0,0.0
1672,61.0,0,180,1.0,0.0
1673,64.0,96,180,4.0,0.0
1674,49.0,0,90,1.0,0.0
1675,63.0,0,180,3.0,0.0
1676,59.0,0,180,12.0,0.0
1677,52.0,96,90,4.0,0.0
1678,49.0,96,90,1.0,0.0
1679,57.0,3,390,10.0,0.0
1680,54.0,96,90,6.0,0.0
1681,61.0,0,180,1.0,0.0
1682,52.0,96,90,4.0,0.0
1683,66.0,192,390,6.0,0.0
1684,51.0,93,90,3.0,0.0
1685,49.0,191,90,1.0,0.0
1686,48.0,1,180,0.0,0.0
1687,56.0,0,90,8.0,0.0
1688,64.0,0,180,4.0,0.0
1689,61.0,0,390,1.0,0.0
1690,49.0,96,90,1.0,0.0
1691,54.0,95,90,6.0,0.0
1692,63.0,1,180,3.0,0.0
1693,51.0,82,90,3.0,0.0
1694,56.0,96,90,8.0,0.0
1695,60.0,14,90,0.0,0.0
1696,44.0,2,90,8.0,0.0
1697,68.0,94,90,8.0,0.0
1698,69.0,95,90,10.0,0.0
1699,49.0,1,180,1.0,0.0
1700,61.0,96,180,1.0,0.0
1701,68.0,0,90,8.0,0.0
1702,64.0,96,180,4.0,0.0
1703,69.0,96,90,10.0,0.0
1704,49.0,0,90,1.0,0.0
1705,68.0,0,90,8.0,0.0
1706,67.0,96,180,7.0,0.0
1707,58.0,1,180,11.0,0.0
1708,51.0,95,90,3.0,0.0
1709,49.0,0,90,1.0,0.0
1710,70.0,96,180,11.0,0.0
1711,51.0,96,90,3.0,0.0
1712,49.0,0,90,1.0,0.0
1713,75.0,0,90,3.0,0.0
1714,47.0,96,90,12.0,0.0
1715,46.0,96,90,11.0,0.0
1716,73.0,0,90,1.0,0.0
1717,75.0,96,90,3.0,0.0
1718,63.0,96,180,3.0,0.0
1719,47.0,0,90,12.0,0.0
1720,73.0,0,90,1.0,0.0
1721,46.0,0,90,11.0,0.0
1722,68.0,96,90,8.0,0.0
1723,71.0,0,180,12.0,0.0
1724,44.0,96,180,8.0,0.0
1725,67.0,0,90,7.0,0.0
1726,70.0,96,180,11.0,0.0
1727,68.0,96,90,8.0,0.0
1728,51.0,0,180,3.0,0.0
1729,67.0,0,90,7.0,0.0
1730,52.0,0,180,4.0,0.0
1731,68.0,96,90,8.0,0.0
1732,73.0,96,180,1.0,0.0
1733,67.0,0,90,7.0,0.0
1734,51.0,0,180,3.0,0.0
1735,68.0,96,90,8.0,0.0
1736,71.0,0,180,12.0,0.0
1737,67.0,96,90,7.0,0.0
1738,76.0,0,180,4.0,0.0
1739,49.0,0,180,1.0,0.0
1740,68.0,96,90,8.0,0.0
1741,67.0,96,90,7.0,0.0
1742,75.0,0,180,3.0,0.0
1743,47.0,96,180,12.0,0.0
1744,68.0,96,90,8.0,0.0
1745,67.0,0,90,7.0,0.0
1746,73.0,143,240,1.0,0.0
1747,46.0,49,180,11.0,0.0
1748,68.0,96,90,8.0,0.0
1749,67.0,0,90,7.0,0.0
1750,68.0,0,180,8.0,0.0
1751,44.0,0,180,8.0,0.0
1752,71.0,96,90,12.0,0.0
1753,70.0,96,90,11.0,0.0
1754,43.0,0,180,7.0,0.0
1755,63.0,96,180,3.0,0.0
1756,71.0,0,90,12.0,0.0
1757,70.0,96,90,11.0,0.0
1758,41.0,0,180,5.0,0.0
1759,68.0,96,180,8.0,0.0
1760,71.0,0,90,12.0,0.0
1761,73.0,96,90,1.0,0.0
1762,67.0,96,180,7.0,0.0
1763,39.0,0,180,3.0,0.0
1764,75.0,0,90,3.0,0.0
1765,68.0,0,180,8.0,0.0
1766,44.0,43,330,8.0,0.0
1767,73.0,96,90,1.0,0.0
1768,75.0,96,90,3.0,0.0
1769,70.0,0,390,11.0,0.0
1770,73.0,53,90,1.0,0.0
1771,76.0,96,90,4.0,0.0
1772,43.0,96,180,7.0,0.0
1773,75.0,96,90,3.0,0.0
1774,78.0,0,90,6.0,0.0
1775,76.0,96,90,4.0,0.0
1776,44.0,0,180,8.0,0.0
1777,71.0,96,180,12.0,0.0
1778,75.0,0,90,3.0,0.0
1779,43.0,0,180,7.0,0.0
1780,76.0,96,90,4.0,0.0
1781,70.0,96,180,11.0,0.0
1782,75.0,0,90,3.0,0.0
1783,76.0,96,90,4.0,0.0
1784,71.0,0,180,12.0,0.0
1785,44.0,0,180,8.0,0.0
1786,80.0,96,90,8.0,0.0
1787,73.0,96,300,1.0,0.0
1788,46.0,0,180,11.0,0.0
1789,78.0,96,90,6.0,0.0
1790,76.0,96,90,4.0,0.0
1791,47.0,0,180,12.0,0.0
1792,75.0,96,300,3.0,0.0
1793,66.0,96,90,6.0,0.0
1794,46.0,0,180,11.0,0.0
1795,71.0,95,480,12.0,0.0
1796,75.0,96,90,3.0,0.0
1797,77.0,96,90,5.0,0.0
1798,44.0,0,180,8.0,0.0
1799,80.0,96,90,8.0,0.0
1800,56.0,96,180,8.0,0.0
1801,77.0,1,90,5.0,0.0
1802,75.0,0,90,3.0,0.0
1803,74.0,96,90,2.0,0.0
1804,65.0,2,390,5.0,0.0
1805,58.0,0,90,11.0,0.0
1806,72.0,96,90,0.0,0.0
1807,59.0,93,90,12.0,0.0
1808,70.0,1,180,11.0,0.0
1809,58.0,192,90,11.0,0.0
1810,59.0,0,180,12.0,0.0
1811,78.0,96,90,6.0,0.0
1812,80.0,96,90,8.0,0.0
1813,58.0,0,180,11.0,0.0
1814,82.0,192,90,11.0,0.0
1815,56.0,96,180,8.0,0.0
1816,83.0,0,180,12.0,0.0
1817,75.0,0,90,3.0,0.0
1818,82.0,0,180,11.0,0.0
1819,54.0,192,180,6.0,0.0
1820,77.0,91,90,5.0,0.0
1821,78.0,5,90,6.0,0.0
1822,80.0,0,180,8.0,0.0
1823,53.0,0,180,5.0,0.0
1824,72.0,96,90,0.0,0.0
1825,78.0,96,180,6.0,0.0
1826,51.0,0,180,3.0,0.0
1827,74.0,91,90,2.0,0.0
1828,75.0,5,90,3.0,0.0
1829,77.0,96,90,5.0,0.0
1830,50.0,0,180,2.0,0.0
1831,75.0,96,90,3.0,0.0
1832,77.0,96,90,5.0,0.0
1833,48.0,0,180,0.0,0.0
1834,78.0,192,90,6.0,0.0
1835,46.0,96,180,11.0,0.0
1836,80.0,96,480,8.0,0.0
1837,72.0,0,90,0.0,0.0
1838,74.0,96,90,2.0,0.0
1839,44.0,0,180,8.0,0.0
1840,75.0,96,90,3.0,0.0
1841,46.0,0,180,11.0,0.0
1842,74.0,96,180,2.0,0.0
1843,82.0,0,90,11.0,0.0
1844,74.0,0,390,2.0,0.0
1845,50.0,96,180,2.0,0.0
1846,77.0,96,90,5.0,0.0
1847,78.0,0,90,6.0,0.0
1848,46.0,96,180,11.0,0.0
1849,77.0,96,90,5.0,0.0
1850,83.0,0,90,12.0,0.0
1851,73.0,96,300,1.0,0.0
1852,46.0,96,180,11.0,0.0
1853,82.0,96,90,11.0,0.0
1854,80.0,0,90,8.0,0.0
1855,79.0,96,390,7.0,0.0
1856,39.0,96,180,3.0,0.0
1857,76.0,0,90,4.0,0.0
1858,75.0,96,90,3.0,0.0
1859,51.0,0,180,3.0,0.0
1860,73.0,0,90,1.0,0.0
1861,80.0,96,480,8.0,0.0
1862,52.0,96,180,4.0,0.0
1863,71.0,96,90,12.0,0.0
1864,75.0,0,90,3.0,0.0
1865,51.0,0,180,3.0,0.0
1866,73.0,96,90,1.0,0.0
1867,71.0,96,90,12.0,0.0
1868,49.0,96,180,1.0,0.0
1869,70.0,96,480,11.0,0.0
1870,80.0,0,90,8.0,0.0
1871,46.0,0,180,11.0,0.0
1872,82.0,96,90,11.0,0.0
1873,80.0,96,90,8.0,0.0
1874,51.0,0,180,3.0,0.0
1875,78.0,96,480,6.0,0.0
1876,69.0,96,90,10.0,0.0
1877,49.0,0,180,1.0,0.0
1878,71.0,96,90,12.0,0.0
1879,69.0,96,90,10.0,0.0
1880,68.0,96,180,8.0,0.0
1881,48.0,0,180,0.0,0.0
1882,78.0,0,90,6.0,0.0
1883,80.0,96,90,8.0,0.0
1884,60.0,0,180,0.0,0.0
1885,56.0,0,180,8.0,0.0
1886,78.0,96,90,6.0,0.0
1887,57.0,0,180,10.0,0.0
1888,76.0,96,90,4.0,0.0
1889,61.0,0,480,1.0,0.0
1890,80.0,96,90,8.0,0.0
1891,56.0,96,180,8.0,0.0
1892,78.0,96,90,6.0,0.0
1893,76.0,0,90,4.0,0.0
1894,54.0,96,180,6.0,0.0
1895,75.0,96,90,3.0,0.0
1896,80.0,0,90,8.0,0.0
1897,60.0,0,90,0.0,0.0
1898,61.0,0,180,1.0,0.0
1899,51.0,49,180,3.0,0.0
1900,81.0,96,90,10.0,0.0
1901,75.0,0,90,3.0,0.0
1902,60.0,0,390,0.0,0.0
1903,76.0,56,60,4.0,0.0
1904,56.0,96,390,8.0,0.0
1905,75.0,48,60,3.0,0.0
1906,76.0,140,60,4.0,0.0
1907,75.0,91,150,3.0,0.0
1908,73.0,0,90,1.0,0.0
1909,61.0,96,90,1.0,0.0
1910,49.0,0,390,1.0,0.0
1911,73.0,3,390,1.0,0.0
1912,64.0,96,90,4.0,0.0
1913,66.0,93,90,6.0,0.0
1914,68.0,96,90,8.0,0.0
1915,69.0,96,90,10.0,0.0
1916,68.0,96,90,8.0,0.0
1917,69.0,96,90,10.0,0.0
1918,80.0,0,180,8.0,0.0
1919,68.0,96,90,8.0,0.0
1920,66.0,96,90,6.0,0.0
1921,81.0,0,180,10.0,0.0
1922,64.0,96,90,4.0,0.0
1923,66.0,96,90,6.0,0.0
1924,80.0,96,180,8.0,0.0
1925,64.0,0,90,4.0,0.0
1926,63.0,96,90,3.0,0.0
1927,78.0,0,180,6.0,0.0
1928,61.0,96,90,1.0,0.0
1929,76.0,96,180,4.0,0.0
1930,63.0,96,90,3.0,0.0
1931,61.0,0,90,1.0,0.0
1932,60.0,96,90,0.0,0.0
1933,75.0,96,180,3.0,0.0
1934,61.0,0,90,1.0,0.0
1935,73.0,96,180,1.0,0.0
1936,60.0,96,90,0.0,0.0
1937,61.0,0,90,1.0,0.0
1938,63.0,96,90,3.0,0.0
1939,72.0,96,180,0.0,0.0
1940,64.0,0,90,4.0,0.0
1941,63.0,96,90,3.0,0.0
1942,70.0,96,180,11.0,0.0
1943,64.0,0,90,4.0,0.0
1944,68.0,0,180,8.0,0.0
1945,66.0,96,90,6.0,0.0
1946,60.0,96,90,0.0,0.0
1947,76.0,49,180,4.0,0.0
1948,61.0,96,90,1.0,0.0
1949,63.0,0,90,3.0,0.0
1950,61.0,81,300,1.0,0.0
1951,76.0,56,60,4.0,0.0
1952,75.0,48,60,3.0,0.0
1953,76.0,135,60,4.0,0.0
1954,75.0,15,210,3.0,0.0
1955,60.0,96,90,0.0,0.0
1956,61.0,96,90,1.0,0.0
1957,73.0,7,270,1.0,0.0
1958,63.0,89,90,3.0,0.0
1959,61.0,96,90,1.0,0.0
1960,63.0,96,90,3.0,0.0
1961,64.0,3,390,4.0,0.0
1962,68.0,96,90,8.0,0.0
1963,70.0,96,90,11.0,0.0
1964,68.0,93,90,8.0,0.0
1965,70.0,192,90,11.0,0.0
1966,71.0,3,390,12.0,0.0
1967,63.0,96,90,3.0,0.0
1968,64.0,93,90,4.0,0.0
1969,66.0,91,90,6.0,0.0
1970,68.0,101,90,8.0,0.0
1971,68.0,96,90,8.0,0.0
1972,66.0,0,180,6.0,0.0
1973,69.0,96,90,10.0,0.0
1974,71.0,96,90,12.0,0.0
1975,65.0,96,90,5.0,0.0
1976,73.0,96,180,1.0,0.0
1977,61.0,0,90,1.0,0.0
1978,71.0,0,180,12.0,0.0
1979,63.0,96,90,3.0,0.0
1980,65.0,96,90,5.0,0.0
1981,69.0,96,90,10.0,0.0
1982,66.0,0,180,6.0,0.0
1983,73.0,96,90,1.0,0.0
1984,74.0,96,90,2.0,0.0
1985,64.0,0,180,4.0,0.0
1986,76.0,96,90,4.0,0.0
1987,78.0,0,180,6.0,0.0
1988,62.0,96,90,2.0,0.0
1989,66.0,96,90,6.0,0.0
1990,68.0,96,90,8.0,0.0
1991,76.0,0,180,4.0,0.0
1992,70.0,96,90,11.0,0.0
1993,71.0,96,180,12.0,0.0
1994,74.0,96,90,2.0,0.0
1995,78.0,0,90,6.0,0.0
1996,80.0,96,90,8.0,0.0
1997,69.0,0,180,10.0,0.0
1998,81.0,96,90,10.0,0.0
1999,68.0,96,90,8.0,0.0
2000,83.0,1,1140,12.0,0.0
2001,75.0,96,90,3.0,0.0
2002,76.0,96,90,4.0,0.0
2003,78.0,96,90,6.0,0.0
2004,80.0,96,90,8.0,0.0
2005,78.0,96,90,6.0,0.0
2006,80.0,96,90,8.0,0.0
2007,78.0,96,90,6.0,0.0
2008,77.0,96,90,5.0,0.0
2009,73.0,96,90,1.0,0.0
2010,75.0,95,90,3.0,0.0
2011,77.0,192,90,5.0,0.0
2012,78.0,96,180,6.0,0.0
2013,81.0,0,90,10.0,0.0
2014,80.0,96,90,8.0,0.0
2015,71.0,96,300,12.0,0.0
2016,78.0,96,90,6.0,0.0
2017,77.0,0,180,5.0,0.0
2018,69.0,96,90,10.0,0.0
2019,78.0,96,180,6.0,0.0
2020,68.0,96,90,8.0,0.0
2021,66.0,0,90,6.0,0.0
2022,80.0,96,90,8.0,0.0
2023,65.0,96,180,5.0,0.0
2024,74.0,0,90,2.0,0.0
2025,61.0,0,180,1.0,0.0
2026,73.0,96,90,1.0,0.0
2027,71.0,96,90,12.0,0.0
2028,66.0,96,90,6.0,0.0
2029,69.0,0,180,10.0,0.0
2030,61.0,96,90,1.0,0.0
2031,59.0,0,90,12.0,0.0
2032,68.0,96,90,8.0,0.0
2033,57.0,192,90,10.0,0.0
2034,66.0,0,90,6.0,0.0
2035,65.0,96,180,5.0,0.0
2036,56.0,3,390,8.0,0.0
2037,65.0,93,90,5.0,0.0
2038,49.0,96,180,1.0,0.0
2039,66.0,0,90,6.0,0.0
2040,50.0,96,180,2.0,0.0
2041,54.0,0,780,6.0,0.0
2042,66.0,96,90,6.0,0.0
2043,69.0,0,90,10.0,0.0
2044,71.0,96,90,12.0,0.0
2045,49.0,96,180,1.0,0.0
2046,73.0,0,90,1.0,0.0
2047,47.0,0,180,12.0,0.0
2048,74.0,96,90,2.0,0.0
2049,73.0,96,90,1.0,0.0
2050,74.0,96,90,2.0,0.0
2051,45.0,0,180,10.0,0.0
2052,73.0,96,90,1.0,0.0
2053,71.0,96,90,12.0,0.0
2054,44.0,0,180,8.0,0.0
2055,53.0,96,180,5.0,0.0
2056,69.0,0,90,10.0,0.0
2057,42.0,0,180,6.0,0.0
2058,71.0,96,90,12.0,0.0
2059,54.0,96,180,6.0,0.0
2060,69.0,0,90,10.0,0.0
2061,68.0,96,90,8.0,0.0
2062,49.0,96,180,1.0,0.0
2063,41.0,0,180,5.0,0.0
2064,66.0,0,90,6.0,0.0
2065,68.0,96,90,8.0,0.0
2066,48.0,0,180,0.0,0.0
2067,39.0,8,180,3.0,0.0
2068,66.0,101,90,6.0,0.0
2069,65.0,101,510,5.0,0.0
2070,37.0,0,1320,1.0,0.0
2071,49.0,101,90,1.0,0.0
2072,56.0,100,90,8.0,0.0
2073,57.0,101,90,10.0,0.0
2074,59.0,101,90,12.0,0.0
2075,61.0,101,510,1.0,0.0
2076,65.0,101,90,5.0,0.0
2077,66.0,100,90,6.0,0.0
2078,68.0,101,90,8.0,0.0
2079,69.0,101,300,10.0,0.0
2080,61.0,101,90,1.0,0.0
2081,66.0,100,300,6.0,0.0
2082,69.0,101,90,10.0,0.0
2083,68.0,101,210,8.0,0.0
2084,49.0,0,90,1.0,0.0
2085,65.0,0,90,5.0,0.0
2086,51.0,0,90,3.0,0.0
2087,66.0,101,90,6.0,0.0
2088,73.0,0,210,1.0,0.0
2089,68.0,0,90,8.0,0.0
2090,53.0,101,90,5.0,0.0
2091,69.0,0,210,10.0,0.0
2092,54.0,100,90,6.0,0.0
2093,61.0,100,210,1.0,0.0
2094,52.0,1,90,4.0,0.0
2095,54.0,101,90,6.0,0.0
2096,61.0,0,210,1.0,0.0
2097,70.0,101,210,11.0,0.0
2098,52.0,0,90,4.0,0.0
2099,50.0,101,90,2.0,0.0
2100,62.0,0,210,2.0,0.0
2101,71.0,100,210,12.0,0.0
2102,49.0,0,90,1.0,0.0
2103,64.0,0,210,4.0,0.0
2104,50.0,101,90,2.0,0.0
2105,73.0,101,210,1.0,0.0
2106,49.0,0,90,1.0,0.0
2107,66.0,0,210,6.0,0.0
2108,74.0,0,210,2.0,0.0
2109,47.0,101,90,12.0,0.0
2110,45.0,101,90,10.0,0.0
2111,75.0,0,210,3.0,0.0
2112,66.0,100,210,6.0,0.0
2113,47.0,100,90,12.0,0.0
2114,45.0,1,90,10.0,0.0
2115,77.0,0,210,5.0,0.0
2116,44.0,101,90,8.0,0.0
2117,68.0,101,210,8.0,0.0
2118,42.0,0,90,6.0,0.0
2119,78.0,0,210,6.0,0.0
2120,41.0,100,90,5.0,0.0
2121,69.0,9,210,10.0,0.0
2122,42.0,212,90,6.0,0.0
2123,36.0,3,420,0.0,0.0
2124,78.0,105,90,6.0,0.0
2125,81.0,103,90,10.0,0.0
2126,80.0,105,90,8.0,0.0
2127,78.0,106,90,6.0,0.0
2128,77.0,211,90,5.0,0.0
2129,78.0,0,540,6.0,0.0
2130,73.0,211,90,1.0,0.0
2131,75.0,98,840,3.0,0.0
2132,66.0,106,90,6.0,0.0
2133,69.0,106,90,10.0,0.0
2134,68.0,105,90,8.0,0.0
2135,80.0,0,90,8.0,0.0
2136,66.0,106,90,6.0,0.0
2137,81.0,0,90,10.0,0.0
2138,80.0,0,90,8.0,0.0
2139,65.0,211,90,5.0,0.0
2140,66.0,7,300,6.0,0.0
2141,81.0,106,300,10.0,0.0
2142,60.0,0,90,0.0,0.0
2143,61.0,106,540,1.0,0.0
2144,73.0,0,540,1.0,0.0
2145,66.0,0,90,6.0,0.0
2146,81.0,106,90,10.0,0.0
2147,80.0,105,90,8.0,0.0
2148,68.0,0,90,8.0,0.0
2149,69.0,0,90,10.0,0.0
2150,78.0,106,90,6.0,0.0
2151,77.0,125,540,5.0,0.0
2152,71.0,7,300,12.0,0.0
2153,74.0,98,90,2.0,0.0
2154,73.0,115,90,1.0,0.0
2155,71.0,96,120,12.0,0.0
2156,54.0,111,1860,6.0,0.0
2157,70.0,111,990,11.0,0.0
2158,73.0,110,120,1.0,0.0
2159,78.0,110,120,6.0,0.0
2160,76.0,111,120,4.0,0.0
2161,74.0,110,120,2.0,0.0
2162,73.0,111,120,1.0,0.0
2163,74.0,110,120,2.0,0.0
2164,71.0,110,120,12.0,0.0
2165,73.0,111,660,1.0,0.0
2166,61.0,110,120,1.0,0.0
2167,70.0,2,210,11.0,0.0
2168,66.0,109,120,6.0,0.0
2169,64.0,110,120,4.0,0.0
2170,62.0,110,120,2.0,0.0
2171,66.0,110,870,6.0,0.0
2172,61.0,0,120,1.0,0.0
2173,71.0,110,450,12.0,0.0
2174,62.0,110,120,2.0,0.0
2175,59.0,110,120,12.0,0.0
2176,61.0,0,450,1.0,0.0
2177,49.0,0,120,1.0,0.0
2178,70.0,1,210,11.0,0.0
2179,54.0,110,120,6.0,0.0
2180,52.0,0,120,4.0,0.0
2181,50.0,111,120,2.0,0.0
2182,66.0,0,330,6.0,0.0
2183,71.0,0,330,12.0,0.0
2184,62.0,120,330,2.0,0.0
2185,49.0,110,120,1.0,0.0
2186,50.0,0,120,2.0,0.0
2187,47.0,231,120,12.0,0.0
2188,49.0,0,930,1.0,0.0
2189,57.0,0,120,10.0,0.0
2190,66.0,115,120,6.0,0.0
2191,56.0,115,120,8.0,0.0
2192,68.0,0,120,8.0,0.0
2193,69.0,115,120,10.0,0.0
2194,54.0,0,120,6.0,0.0
2195,53.0,115,120,5.0,0.0
2196,71.0,1,450,12.0,0.0
2197,65.0,116,120,5.0,0.0
2198,56.0,0,120,8.0,0.0
2199,54.0,114,120,6.0,0.0
2200,66.0,0,120,6.0,0.0
2201,53.0,0,120,5.0,0.0
2202,68.0,230,120,8.0,0.0
2203,70.0,0,1380,11.0,0.0
2204,42.0,7,1380,6.0,0.0
2205,54.0,0,1380,6.0,0.0
2206,68.0,115,120,8.0,0.0
2207,66.0,116,120,6.0,0.0
2208,65.0,278,120,5.0,0.0
2209,66.0,583,330,6.0,0.0
2210,60.0,59,150,0.0,0.0
2211,61.0,588,630,1.0,0.0
2212,51.0,7,300,3.0,0.0
2213,73.0,94,480,1.0,0.0
2214,67.0,97,300,7.0,0.0
2215,58.0,92,90,11.0,0.0
2216,63.0,3,390,3.0,0.0
2217,68.0,99,90,8.0,0.0
2218,53.0,0,90,5.0,0.0
2219,55.0,93,180,7.0,0.0
2220,70.0,0,180,11.0,0.0
2221,73.0,0,90,1.0,0.0
2222,75.0,98,90,3.0,0.0
2223,55.0,0,180,7.0,0.0
2224,63.0,98,180,3.0,0.0
2225,70.0,5,90,11.0,0.0
2226,70.0,0,90,11.0,0.0
2227,71.0,98,90,12.0,0.0
2228,63.0,0,390,3.0,0.0
2229,56.0,3,390,8.0,0.0
2230,68.0,0,390,8.0,0.0
2231,75.0,98,90,3.0,0.0
2232,80.0,95,90,8.0,0.0
2233,75.0,98,90,3.0,0.0
2234,71.0,97,90,12.0,0.0
2235,75.0,98,90,3.0,0.0
2236,68.0,49,90,8.0,0.0
2237,71.0,49,60,12.0,0.0
2238,70.0,196,60,11.0,0.0
2239,65.0,7,300,5.0,0.0
2240,49.0,98,300,1.0,0.0
2241,71.0,95,480,12.0,0.0
2242,56.0,91,90,8.0,0.0
2243,61.0,3,390,1.0,0.0
2244,66.0,0,90,6.0,0.0
2245,51.0,98,90,3.0,0.0
2246,68.0,0,180,8.0,0.0
2247,53.0,93,180,5.0,0.0
2248,71.0,0,90,12.0,0.0
2249,73.0,98,90,1.0,0.0
2250,61.0,98,180,1.0,0.0
2251,68.0,5,90,8.0,0.0
2252,53.0,0,180,5.0,0.0
2253,68.0,0,90,8.0,0.0
2254,69.0,98,90,10.0,0.0
2255,66.0,0,390,6.0,0.0
2256,54.0,0,390,6.0,0.0
2257,61.0,2,390,1.0,0.0
2258,73.0,97,90,1.0,0.0
2259,78.0,96,90,6.0,0.0
2260,73.0,98,90,1.0,0.0
2261,69.0,98,90,10.0,0.0
2262,73.0,98,90,1.0,0.0
2263,66.0,49,90,6.0,0.0
2264,69.0,49,60,10.0,0.0
2265,67.0,196,60,7.0,0.0
2266,45.0,98,300,10.0,0.0
2267,67.0,95,480,7.0,0.0
2268,61.0,7,300,1.0,0.0
2269,52.0,91,90,4.0,0.0
2270,57.0,3,390,10.0,0.0
2271,47.0,0,90,12.0,0.0
2272,62.0,98,90,2.0,0.0
2273,64.0,0,180,4.0,0.0
2274,49.0,92,180,1.0,0.0
2275,67.0,0,90,7.0,0.0
2276,49.0,98,180,1.0,0.0
2277,69.0,98,90,10.0,0.0
2278,64.0,5,90,4.0,0.0
2279,57.0,0,180,10.0,0.0
2280,64.0,0,90,4.0,0.0
2281,50.0,3,390,2.0,0.0
2282,57.0,0,390,10.0,0.0
2283,66.0,98,90,6.0,0.0
2284,62.0,0,390,2.0,0.0
2285,69.0,98,90,10.0,0.0
2286,74.0,95,90,2.0,0.0
2287,69.0,98,90,10.0,0.0
2288,66.0,98,90,6.0,0.0
2289,69.0,98,90,10.0,0.0
2290,62.0,49,90,2.0,0.0
2291,69.0,49,60,10.0,0.0
2292,68.0,196,60,8.0,0.0
2293,47.0,97,300,12.0,0.0
2294,69.0,95,480,10.0,0.0
2295,63.0,7,300,3.0,0.0
2296,54.0,91,90,6.0,0.0
2297,59.0,2,390,12.0,0.0
2298,64.0,0,90,4.0,0.0
2299,49.0,99,90,1.0,0.0
2300,51.0,0,180,3.0,0.0
2301,66.0,93,180,6.0,0.0
2302,69.0,0,90,10.0,0.0
2303,59.0,0,180,12.0,0.0
2304,71.0,98,90,12.0,0.0
2305,66.0,5,90,6.0,0.0
2306,51.0,98,180,3.0,0.0
2307,66.0,0,90,6.0,0.0
2308,64.0,0,390,4.0,0.0
2309,52.0,0,390,4.0,0.0
2310,59.0,3,390,12.0,0.0
2311,68.0,98,90,8.0,0.0
2312,71.0,98,90,12.0,0.0
2313,76.0,95,90,4.0,0.0
2314,71.0,98,90,12.0,0.0
2315,68.0,98,90,8.0,0.0
2316,71.0,98,90,12.0,0.0
2317,64.0,48,90,4.0,0.0
2318,71.0,49,60,12.0,0.0
2319,70.0,196,60,11.0,0.0
2320,71.0,95,480,12.0,0.0
2321,65.0,7,300,5.0,0.0
2322,49.0,98,300,1.0,0.0
2323,56.0,91,90,8.0,0.0
2324,61.0,3,390,1.0,0.0
2325,51.0,98,90,3.0,0.0
2326,66.0,0,90,6.0,0.0
2327,68.0,0,180,8.0,0.0
2328,53.0,0,180,5.0,0.0
2329,71.0,93,90,12.0,0.0
2330,53.0,0,180,5.0,0.0
2331,73.0,98,90,1.0,0.0
2332,68.0,5,90,8.0,0.0
2333,61.0,0,180,1.0,0.0
2334,68.0,98,90,8.0,0.0
2335,69.0,98,90,10.0,0.0
2336,66.0,3,390,6.0,0.0
2337,54.0,0,390,6.0,0.0
2338,61.0,0,390,1.0,0.0
2339,73.0,98,90,1.0,0.0
2340,78.0,95,90,6.0,0.0
2341,73.0,97,90,1.0,0.0
2342,69.0,98,90,10.0,0.0
2343,73.0,98,90,1.0,0.0
2344,66.0,49,90,6.0,0.0
2345,78.0,49,60,6.0,0.0
2346,76.0,193,60,4.0,0.0
2347,70.0,7,270,11.0,0.0
2348,76.0,93,480,4.0,0.0
2349,54.0,96,300,6.0,0.0
2350,61.0,89,90,1.0,0.0
2351,66.0,3,390,6.0,0.0
2352,71.0,0,90,12.0,0.0
2353,56.0,96,90,8.0,0.0
2354,58.0,0,180,11.0,0.0
2355,73.0,91,180,1.0,0.0
2356,76.0,0,90,4.0,0.0
2357,58.0,0,180,11.0,0.0
2358,78.0,96,90,6.0,0.0
2359,73.0,5,90,1.0,0.0
2360,66.0,96,180,6.0,0.0
2361,73.0,0,90,1.0,0.0
2362,74.0,96,90,2.0,0.0
2363,66.0,3,390,6.0,0.0
2364,59.0,0,390,12.0,0.0
2365,71.0,0,390,12.0,0.0
2366,78.0,96,90,6.0,0.0
2367,83.0,93,90,12.0,0.0
2368,78.0,96,90,6.0,0.0
2369,74.0,96,90,2.0,0.0
2370,78.0,96,90,6.0,0.0
2371,71.0,48,90,12.0,0.0
2372,78.0,48,60,6.0,0.0
2373,77.0,192,60,5.0,0.0
2374,56.0,96,300,8.0,0.0
2375,72.0,7,270,0.0,0.0
2376,78.0,93,480,6.0,0.0
2377,63.0,89,90,3.0,0.0
2378,68.0,3,390,8.0,0.0
2379,73.0,0,90,1.0,0.0
2380,58.0,96,90,11.0,0.0
2381,60.0,0,180,0.0,0.0
2382,75.0,91,180,3.0,0.0
2383,78.0,0,90,6.0,0.0
2384,75.0,5,90,3.0,0.0
2385,80.0,96,90,8.0,0.0
2386,68.0,0,180,8.0,0.0
2387,60.0,96,180,0.0,0.0
2388,75.0,0,90,3.0,0.0
2389,68.0,1,180,8.0,0.0
2390,61.0,95,90,1.0,0.0
2391,76.0,0,390,4.0,0.0
2392,73.0,2,390,1.0,0.0
2393,64.0,189,90,4.0,0.0
2394,68.0,1,180,8.0,0.0
2395,64.0,96,90,4.0,0.0
2396,61.0,96,90,1.0,0.0
2397,64.0,96,90,4.0,0.0
2398,56.0,48,90,8.0,0.0
2399,61.0,48,60,1.0,0.0
2400,59.0,188,60,12.0,0.0
2401,59.0,99,450,12.0,0.0
2402,77.0,0,270,5.0,0.0
2403,68.0,94,90,8.0,0.0
2404,73.0,94,90,1.0,0.0
2405,75.0,89,90,3.0,0.0
2406,78.0,0,90,6.0,0.0
2407,80.0,0,180,8.0,0.0
2408,73.0,0,180,1.0,0.0
2409,77.0,94,180,5.0,0.0
2410,59.0,0,90,12.0,0.0
2411,73.0,94,180,1.0,0.0
2412,61.0,94,90,1.0,0.0
2413,77.0,0,180,5.0,0.0
2414,80.0,0,180,8.0,0.0
2415,56.0,0,90,8.0,0.0
2416,73.0,3,360,1.0,0.0
2417,57.0,94,90,10.0,0.0
2418,80.0,1,180,8.0,0.0
2419,61.0,94,90,1.0,0.0
2420,78.0,1,180,6.0,0.0
2421,66.0,90,90,6.0,0.0
2422,61.0,94,90,1.0,0.0
2423,57.0,94,90,10.0,0.0
2424,61.0,94,90,1.0,0.0
2425,54.0,47,90,6.0,0.0
2426,57.0,47,60,10.0,0.0
2427,56.0,189,60,8.0,0.0
2428,75.0,1,270,3.0,0.0
2429,57.0,95,480,10.0,0.0
2430,66.0,93,90,6.0,0.0
2431,71.0,94,90,12.0,0.0
2432,73.0,93,90,1.0,0.0
2433,76.0,0,90,4.0,0.0
2434,78.0,94,180,6.0,0.0
2435,71.0,0,180,12.0,0.0
2436,75.0,0,180,3.0,0.0
2437,57.0,0,90,10.0,0.0
2438,59.0,94,90,12.0,0.0
2439,71.0,94,180,12.0,0.0
2440,75.0,0,180,3.0,0.0
2441,78.0,0,180,6.0,0.0
2442,54.0,0,90,6.0,0.0
2443,78.0,95,180,6.0,0.0
2444,71.0,3,360,12.0,0.0
2445,56.0,94,90,8.0,0.0
2446,59.0,0,90,12.0,0.0
2447,64.0,90,90,4.0,0.0
2448,76.0,1,180,4.0,0.0
2449,59.0,94,90,12.0,0.0
2450,56.0,94,90,8.0,0.0
2451,59.0,94,90,12.0,0.0
2452,52.0,47,90,4.0,0.0
2453,56.0,47,60,8.0,0.0
2454,54.0,188,60,6.0,0.0
2455,54.0,95,480,6.0,0.0
2456,72.0,1,270,0.0,0.0
2457,63.0,94,90,3.0,0.0
2458,68.0,94,90,8.0,0.0
2459,73.0,93,90,1.0,0.0
2460,70.0,0,90,11.0,0.0
2461,72.0,0,180,0.0,0.0
2462,75.0,0,180,3.0,0.0
2463,68.0,0,180,8.0,0.0
2464,54.0,94,90,6.0,0.0
2465,75.0,94,180,3.0,0.0
2466,68.0,0,180,8.0,0.0
2467,72.0,0,180,0.0,0.0
2468,56.0,94,90,8.0,0.0
2469,51.0,0,90,3.0,0.0
2470,75.0,0,180,3.0,0.0
2471,52.0,94,90,4.0,0.0
2472,68.0,2,360,8.0,0.0
2473,56.0,94,90,8.0,0.0
2474,73.0,2,180,1.0,0.0
2475,61.0,91,90,1.0,0.0
2476,56.0,94,90,8.0,0.0
2477,52.0,94,90,4.0,0.0
2478,56.0,94,90,8.0,0.0
2479,49.0,47,90,1.0,0.0
2480,52.0,47,60,4.0,0.0
2481,51.0,188,60,3.0,0.0
2482,70.0,7,270,11.0,0.0
2483,52.0,103,450,4.0,0.0
2484,61.0,87,90,1.0,0.0
2485,66.0,95,90,6.0,0.0
2486,68.0,0,90,8.0,0.0
2487,71.0,85,90,12.0,0.0
2488,70.0,0,180,11.0,0.0
2489,66.0,0,180,6.0,0.0
2490,73.0,0,180,1.0,0.0
2491,52.0,94,90,4.0,0.0
2492,73.0,0,180,1.0,0.0
2493,54.0,94,90,6.0,0.0
2494,70.0,0,180,11.0,0.0
2495,66.0,0,180,6.0,0.0
2496,49.0,94,90,1.0,0.0
2497,66.0,2,360,6.0,0.0
2498,50.0,94,90,2.0,0.0
2499,73.0,94,180,1.0,0.0
2500,54.0,0,90,6.0,0.0
2501,59.0,91,90,12.0,0.0
2502,71.0,1,180,12.0,0.0
2503,54.0,95,90,6.0,0.0
2504,50.0,94,90,2.0,0.0
2505,54.0,94,90,6.0,0.0
2506,47.0,47,90,12.0,0.0
2507,50.0,47,60,2.0,0.0
2508,46.0,188,60,11.0,0.0
2509,47.0,101,450,12.0,0.0
2510,65.0,0,270,5.0,0.0
2511,56.0,94,90,8.0,0.0
2512,61.0,94,90,1.0,0.0
2513,63.0,0,90,3.0,0.0
2514,66.0,88,90,6.0,0.0
2515,61.0,0,180,1.0,0.0
2516,65.0,0,180,5.0,0.0
2517,68.0,0,180,8.0,0.0
2518,47.0,94,90,12.0,0.0
2519,61.0,0,180,1.0,0.0
2520,49.0,94,90,1.0,0.0
2521,65.0,0,180,5.0,0.0
2522,68.0,0,180,8.0,0.0
2523,44.0,94,90,8.0,0.0
2524,61.0,2,360,1.0,0.0
2525,68.0,0,180,8.0,0.0
2526,45.0,94,90,10.0,0.0
2527,49.0,94,90,1.0,0.0
2528,66.0,1,180,6.0,0.0
2529,54.0,91,90,6.0,0.0
2530,49.0,94,90,1.0,0.0
2531,45.0,95,90,10.0,0.0
2532,49.0,94,90,1.0,0.0
2533,42.0,47,90,6.0,0.0
2534,45.0,47,60,10.0,0.0
2535,44.0,188,60,8.0,0.0
2536,63.0,0,270,3.0,0.0
2537,45.0,94,480,10.0,0.0
2538,54.0,94,90,6.0,0.0
2539,59.0,94,90,12.0,0.0
2540,61.0,94,90,1.0,0.0
2541,64.0,0,90,4.0,0.0
2542,66.0,0,180,6.0,0.0
2543,63.0,0,180,3.0,0.0
2544,59.0,1,180,12.0,0.0
2545,45.0,94,90,10.0,0.0
2546,66.0,94,180,6.0,0.0
2547,63.0,0,180,3.0,0.0
2548,47.0,94,90,12.0,0.0
2549,59.0,0,180,12.0,0.0
2550,42.0,0,90,6.0,0.0
2551,59.0,2,360,12.0,0.0
2552,66.0,94,180,6.0,0.0
2553,44.0,94,90,8.0,0.0
2554,47.0,0,90,12.0,0.0
2555,64.0,1,180,4.0,0.0
2556,52.0,91,90,4.0,0.0
2557,47.0,94,90,12.0,0.0
2558,44.0,94,90,8.0,0.0
2559,47.0,95,90,12.0,0.0
2560,40.0,47,90,4.0,0.0
2561,52.0,45,60,4.0,0.0
2562,50.0,184,30,2.0,0.0
2563,68.0,0,270,8.0,0.0
2564,50.0,92,450,2.0,0.0
2565,59.0,92,90,12.0,0.0
2566,64.0,92,90,4.0,0.0
2567,69.0,93,90,10.0,0.0
2568,66.0,0,90,6.0,0.0
2569,68.0,0,180,8.0,0.0
2570,64.0,0,180,4.0,0.0
2571,71.0,92,180,12.0,0.0
2572,50.0,0,90,2.0,0.0
2573,68.0,0,180,8.0,0.0
2574,64.0,1,180,4.0,0.0
2575,52.0,92,90,4.0,0.0
2576,71.0,0,180,12.0,0.0
2577,47.0,92,90,12.0,0.0
2578,71.0,93,180,12.0,0.0
2579,68.0,0,180,8.0,0.0
2580,64.0,2,360,4.0,0.0
2581,49.0,92,90,1.0,0.0
2582,52.0,0,90,4.0,0.0
2583,69.0,1,180,10.0,0.0
2584,57.0,89,90,10.0,0.0
2585,52.0,92,90,4.0,0.0
2586,49.0,93,90,1.0,0.0
2587,52.0,92,90,4.0,0.0
2588,45.0,46,90,10.0,0.0
2589,52.0,46,60,4.0,0.0
2590,51.0,185,60,3.0,0.0
2591,52.0,93,450,4.0,0.0
2592,70.0,1,270,11.0,0.0
2593,61.0,91,90,1.0,0.0
2594,66.0,92,90,6.0,0.0
2595,71.0,0,90,12.0,0.0
2596,68.0,92,90,8.0,0.0
2597,70.0,0,180,11.0,0.0
2598,73.0,0,180,1.0,0.0
2599,66.0,0,180,6.0,0.0
2600,52.0,92,90,4.0,0.0
2601,54.0,92,90,6.0,0.0
2602,70.0,0,180,11.0,0.0
2603,73.0,0,180,1.0,0.0
2604,66.0,1,180,6.0,0.0
2605,49.0,92,90,1.0,0.0
2606,66.0,2,360,6.0,0.0
2607,73.0,93,180,1.0,0.0
2608,50.0,92,90,2.0,0.0
2609,54.0,0,90,6.0,0.0
2610,71.0,1,180,12.0,0.0
2611,59.0,89,90,12.0,0.0
2612,54.0,92,90,6.0,0.0
2613,50.0,92,90,2.0,0.0
2614,54.0,93,90,6.0,0.0
2615,47.0,46,90,12.0,0.0
2616,54.0,46,60,6.0,0.0
2617,53.0,185,60,5.0,0.0
2618,72.0,1,270,0.0,0.0
2619,54.0,93,450,6.0,0.0
2620,63.0,91,90,3.0,0.0
2621,68.0,92,90,8.0,0.0
2622,73.0,0,90,1.0,0.0
2623,70.0,92,90,11.0,0.0
2624,72.0,0,180,0.0,0.0
2625,75.0,0,180,3.0,0.0
2626,68.0,92,180,8.0,0.0
2627,54.0,0,90,6.0,0.0
2628,75.0,0,180,3.0,0.0
2629,72.0,1,180,0.0,0.0
2630,68.0,0,180,8.0,0.0
2631,56.0,92,90,8.0,0.0
2632,51.0,92,90,3.0,0.0
2633,75.0,0,180,3.0,0.0
2634,68.0,1,360,8.0,0.0
2635,52.0,92,90,4.0,0.0
2636,56.0,92,90,8.0,0.0
2637,73.0,2,180,1.0,0.0
2638,61.0,90,90,1.0,0.0
2639,56.0,92,90,8.0,0.0
2640,52.0,92,90,4.0,0.0
2641,56.0,93,90,8.0,0.0
2642,49.0,46,90,1.0,0.0
2643,55.0,46,60,7.0,0.0
2644,54.0,185,60,6.0,0.0
2645,73.0,1,270,1.0,0.0
2646,55.0,93,450,7.0,0.0
2647,64.0,91,90,4.0,0.0
2648,69.0,92,90,10.0,0.0
2649,74.0,92,90,2.0,0.0
2650,71.0,0,90,12.0,0.0
2651,76.0,0,180,4.0,0.0
2652,69.0,0,180,10.0,0.0
2653,73.0,0,180,1.0,0.0
2654,55.0,92,90,7.0,0.0
2655,73.0,0,180,1.0,0.0
2656,57.0,92,90,10.0,0.0
2657,76.0,93,180,4.0,0.0
2658,69.0,0,180,10.0,0.0
2659,52.0,0,90,4.0,0.0
2660,73.0,0,180,1.0,0.0
2661,54.0,92,90,6.0,0.0
2662,76.0,0,180,4.0,0.0
2663,69.0,1,360,10.0,0.0
2664,57.0,92,90,10.0,0.0
2665,74.0,2,180,2.0,0.0
2666,62.0,90,90,2.0,0.0
2667,57.0,92,90,10.0,0.0
2668,54.0,92,90,6.0,0.0
2669,57.0,93,90,10.0,0.0
2670,50.0,46,90,2.0,0.0
2671,57.0,46,60,10.0,0.0
2672,56.0,185,60,8.0,0.0
2673,75.0,1,270,3.0,0.0
2674,57.0,92,450,10.0,0.0
2675,66.0,91,90,6.0,0.0
2676,71.0,92,90,12.0,0.0
2677,73.0,92,90,1.0,0.0
2678,76.0,0,90,4.0,0.0
2679,78.0,0,180,6.0,0.0
2680,71.0,0,180,12.0,0.0
2681,75.0,1,180,3.0,0.0
2682,57.0,92,90,10.0,0.0
2683,75.0,0,180,3.0,0.0
2684,71.0,0,180,12.0,0.0
2685,59.0,92,90,12.0,0.0
2686,78.0,93,180,6.0,0.0
2687,54.0,0,90,6.0,0.0
2688,56.0,92,90,8.0,0.0
2689,78.0,0,180,6.0,0.0
2690,71.0,1,360,12.0,0.0
2691,59.0,92,90,12.0,0.0
2692,76.0,2,180,4.0,0.0
2693,64.0,90,90,4.0,0.0
2694,59.0,92,90,12.0,0.0
2695,56.0,92,90,8.0,0.0
2696,59.0,93,90,12.0,0.0
2697,52.0,46,90,4.0,0.0
2698,59.0,46,60,12.0,0.0
2699,58.0,184,60,11.0,0.0
2700,77.0,1,270,5.0,0.0
2701,59.0,92,450,12.0,0.0
2702,68.0,92,90,8.0,0.0
2703,73.0,92,90,1.0,0.0
2704,75.0,0,90,3.0,0.0
2705,78.0,92,90,6.0,0.0
2706,73.0,1,180,1.0,0.0
2707,77.0,0,180,5.0,0.0
2708,80.0,0,180,8.0,0.0
2709,59.0,92,90,12.0,0.0
2710,77.0,0,180,5.0,0.0
2711,73.0,0,180,1.0,0.0
2712,61.0,92,90,1.0,0.0
2713,80.0,0,180,8.0,0.0
2714,56.0,93,90,8.0,0.0
2715,73.0,1,360,1.0,0.0
2716,57.0,92,90,10.0,0.0
2717,77.0,0,180,5.0,0.0
2718,80.0,92,180,8.0,0.0
2719,61.0,0,90,1.0,0.0
2720,78.0,2,180,6.0,0.0
2721,66.0,90,90,6.0,0.0
2722,61.0,92,90,1.0,0.0
2723,57.0,92,90,10.0,0.0
2724,61.0,139,90,1.0,0.0
2725,54.0,14,180,6.0,0.0
2726,76.0,32,60,4.0,0.0
2727,75.0,82,60,3.0,0.0
2728,70.0,94,90,11.0,0.0
2729,54.0,94,270,6.0,0.0
2730,76.0,94,480,4.0,0.0
2731,61.0,94,90,1.0,0.0
2732,66.0,0,90,6.0,0.0
2733,71.0,0,90,12.0,0.0
2734,56.0,94,90,8.0,0.0
2735,58.0,89,180,11.0,0.0
2736,73.0,0,180,1.0,0.0
2737,76.0,0,90,4.0,0.0
2738,58.0,94,180,11.0,0.0
2739,73.0,5,90,1.0,0.0
2740,78.0,94,90,6.0,0.0
2741,66.0,0,180,6.0,0.0
2742,73.0,0,90,1.0,0.0
2743,71.0,4,360,12.0,0.0
2744,66.0,0,360,6.0,0.0
2745,74.0,95,90,2.0,0.0
2746,59.0,0,360,12.0,0.0
2747,78.0,94,90,6.0,0.0
2748,83.0,90,90,12.0,0.0
2749,78.0,94,90,6.0,0.0
2750,74.0,94,90,2.0,0.0
2751,78.0,94,90,6.0,0.0
2752,71.0,47,90,12.0,0.0
2753,73.0,47,60,1.0,0.0
2754,70.0,192,60,11.0,0.0
2755,71.0,1,180,12.0,0.0
2756,77.0,0,300,5.0,0.0
2757,49.0,96,300,1.0,0.0
2758,56.0,96,90,8.0,0.0
2759,61.0,96,300,1.0,0.0
2760,78.0,96,90,6.0,0.0
2761,51.0,0,90,3.0,0.0
2762,53.0,96,180,5.0,0.0
2763,80.0,96,480,8.0,0.0
2764,71.0,0,90,12.0,0.0
2765,53.0,0,180,5.0,0.0
2766,73.0,96,90,1.0,0.0
2767,61.0,0,90,1.0,0.0
2768,68.0,96,90,8.0,0.0
2769,69.0,0,390,10.0,0.0
2770,54.0,3,390,6.0,0.0
2771,61.0,0,390,1.0,0.0
2772,73.0,96,90,1.0,0.0
2773,78.0,93,90,6.0,0.0
2774,73.0,96,90,1.0,0.0
2775,69.0,96,90,10.0,0.0
2776,73.0,96,90,1.0,0.0
2777,66.0,48,90,6.0,0.0
2778,69.0,48,60,10.0,0.0
2779,67.0,97,60,7.0,0.0
2780,62.0,97,90,2.0,0.0
2781,67.0,97,480,7.0,0.0
2782,47.0,97,300,12.0,0.0
2783,50.0,98,90,2.0,0.0
2784,55.0,1,90,7.0,0.0
2785,49.0,99,90,1.0,0.0
2786,58.0,0,90,11.0,0.0
2787,64.0,0,90,4.0,0.0
2788,50.0,98,180,2.0,0.0
2789,59.0,0,180,12.0,0.0
2790,66.0,0,90,6.0,0.0
2791,71.0,98,90,12.0,0.0
2792,59.0,0,180,12.0,0.0
2793,54.0,0,180,6.0,0.0
2794,50.0,0,180,2.0,0.0
2795,66.0,98,90,6.0,0.0
2796,65.0,98,90,5.0,0.0
2797,59.0,0,390,12.0,0.0
2798,49.0,0,390,1.0,0.0
2799,56.0,3,390,8.0,0.0
2800,68.0,98,90,8.0,0.0
2801,73.0,95,90,1.0,0.0
2802,68.0,98,90,8.0,0.0
2803,65.0,97,90,5.0,0.0
2804,68.0,98,90,8.0,0.0
2805,61.0,49,90,1.0,0.0
2806,66.0,49,60,6.0,0.0
2807,65.0,100,60,5.0,0.0
2808,45.0,100,810,10.0,0.0
2809,61.0,151,600,1.0,0.0
2810,54.0,0,810,6.0,0.0
2811,57.0,0,810,10.0,0.0
2812,66.0,100,90,6.0,0.0
2813,69.0,101,90,10.0,0.0
2814,73.0,101,90,1.0,0.0
2815,69.0,101,90,10.0,0.0
2816,66.0,51,90,6.0,0.0
2817,69.0,50,60,10.0,0.0
2818,66.0,1,60,6.0,0.0
2819,61.0,1,210,1.0,0.0
2820,66.0,49,60,6.0,0.0
2821,65.0,1,60,5.0,0.0
2822,54.0,0,810,6.0,0.0
2823,66.0,100,90,6.0,0.0
2824,62.0,0,810,2.0,0.0
2825,47.0,100,810,12.0,0.0
2826,57.0,0,810,10.0,0.0
2827,69.0,101,90,10.0,0.0
2828,73.0,101,90,1.0,0.0
2829,69.0,101,90,10.0,0.0
2830,66.0,51,90,6.0,0.0
2831,69.0,50,60,10.0,0.0
2832,66.0,101,60,6.0,0.0
2833,61.0,51,90,1.0,0.0
2834,66.0,50,60,6.0,0.0
2835,65.0,1,60,5.0,0.0
2836,57.0,2,390,10.0,0.0
2837,66.0,100,90,6.0,0.0
2838,54.0,0,390,6.0,0.0
2839,49.0,0,390,1.0,0.0
2840,61.0,0,390,1.0,0.0
2841,68.0,101,90,8.0,0.0
2842,71.0,99,90,12.0,0.0
2843,68.0,101,90,8.0,0.0
2844,65.0,51,90,5.0,0.0
2845,68.0,50,60,8.0,0.0
2846,65.0,101,60,5.0,0.0
2847,59.0,0,210,12.0,0.0
2848,56.0,0,210,8.0,0.0
2849,61.0,51,90,1.0,0.0
2850,49.0,106,210,1.0,0.0
2851,66.0,50,60,6.0,0.0
2852,65.0,0,60,5.0,0.0
2853,42.0,104,420,6.0,0.0
2854,49.0,0,420,1.0,0.0
2855,57.0,0,420,10.0,0.0
2856,66.0,53,90,6.0,0.0
2857,54.0,0,420,6.0,0.0
2858,69.0,53,60,10.0,0.0
2859,66.0,105,60,6.0,0.0
2860,61.0,54,90,1.0,0.0
2861,66.0,52,60,6.0,0.0
2862,65.0,2,60,5.0,0.0
2863,49.0,0,420,1.0,0.0
2864,45.0,0,420,10.0,0.0
2865,57.0,104,420,10.0,0.0
2866,54.0,0,420,6.0,0.0
2867,66.0,54,90,6.0,0.0
2868,69.0,52,60,10.0,0.0
2869,66.0,105,60,6.0,0.0
2870,61.0,54,90,1.0,0.0
2871,66.0,53,60,6.0,0.0
2872,65.0,1,60,5.0,0.0
2873,57.0,0,420,10.0,0.0
2874,54.0,105,420,6.0,0.0
2875,66.0,54,90,6.0,0.0
2876,50.0,0,420,2.0,0.0
2877,47.0,0,420,12.0,0.0
2878,69.0,52,60,10.0,0.0
2879,66.0,106,60,6.0,0.0
2880,61.0,54,90,1.0,0.0
2881,66.0,53,60,6.0,0.0
2882,65.0,0,60,5.0,0.0
2883,49.0,3,420,1.0,0.0
2884,57.0,105,210,10.0,0.0
2885,66.0,54,90,6.0,0.0
2886,69.0,52,60,10.0,0.0
2887,66.0,1,60,6.0,0.0
2888,61.0,54,90,1.0,0.0
2889,56.0,213,210,8.0,0.0
2890,64.0,49,60,4.0,0.0
2891,63.0,1,60,3.0,0.0
2892,42.0,107,330,6.0,0.0
2893,64.0,104,540,4.0,0.0
2894,58.0,8,300,11.0,0.0
2895,49.0,101,120,1.0,0.0
2896,54.0,3,420,6.0,0.0
2897,44.0,0,120,8.0,0.0
2898,59.0,109,120,12.0,0.0
2899,61.0,0,210,1.0,0.0
2900,46.0,0,210,11.0,0.0
2901,64.0,102,120,4.0,0.0
2902,46.0,1,210,11.0,0.0
2903,66.0,108,120,6.0,0.0
2904,54.0,0,210,6.0,0.0
2905,61.0,7,90,1.0,0.0
2906,61.0,107,120,1.0,0.0
2907,47.0,3,420,12.0,0.0
2908,62.0,108,120,2.0,0.0
2909,59.0,0,420,12.0,0.0
2910,54.0,0,420,6.0,0.0
2911,66.0,108,120,6.0,0.0
2912,71.0,105,120,12.0,0.0
2913,66.0,108,120,6.0,0.0
2914,62.0,53,120,2.0,0.0
2915,66.0,54,60,6.0,0.0
2916,62.0,109,60,2.0,0.0
2917,59.0,54,120,12.0,0.0
2918,61.0,54,60,1.0,0.0
2919,58.0,218,60,11.0,0.0
2920,37.0,110,330,1.0,0.0
2921,56.0,7,330,8.0,0.0
2922,59.0,107,540,12.0,0.0
2923,44.0,104,120,8.0,0.0
2924,49.0,3,420,1.0,0.0
2925,39.0,0,120,3.0,0.0
2926,54.0,110,120,6.0,0.0
2927,56.0,0,210,8.0,0.0
2928,41.0,1,210,5.0,0.0
2929,59.0,103,120,12.0,0.0
2930,49.0,111,210,1.0,0.0
2931,61.0,110,120,1.0,0.0
2932,56.0,7,90,8.0,0.0
2933,41.0,0,210,5.0,0.0
2934,56.0,0,120,8.0,0.0
2935,57.0,110,120,10.0,0.0
2936,42.0,0,420,6.0,0.0
2937,49.0,4,420,1.0,0.0
2938,54.0,0,420,6.0,0.0
2939,61.0,110,120,1.0,0.0
2940,66.0,107,120,6.0,0.0
2941,61.0,110,120,1.0,0.0
2942,57.0,54,120,10.0,0.0
2943,61.0,55,60,1.0,0.0
2944,57.0,110,60,10.0,0.0
2945,54.0,56,120,6.0,0.0
2946,57.0,54,60,10.0,0.0
2947,56.0,119,60,8.0,0.0
2948,36.0,19,450,0.0,0.0
2949,57.0,60,120,10.0,0.0
2950,66.0,61,60,6.0,0.0
2951,65.0,125,60,5.0,0.0
2952,66.0,104,120,6.0,0.0
2953,57.0,245,120,10.0,0.0
2954,56.0,131,240,8.0,0.0
2955,37.0,111,480,1.0,0.0
2956,66.0,115,240,6.0,0.0
2957,49.0,0,330,1.0,0.0
2958,61.0,62,330,1.0,0.0
2959,59.0,22,390,12.0,0.0
2960,65.0,559,210,5.0,0.0
2961,42.0,0,570,6.0,0.0
2962,58.0,0,570,11.0,0.0
2963,61.0,0,570,1.0,0.0
2964,49.0,212,570,1.0,0.0
2965,66.0,0,570,6.0,0.0
2966,66.0,192,180,6.0,0.0
2967,66.0,192,180,6.0,0.0
2968,65.0,192,180,5.0,0.0
2969,64.0,192,180,4.0,0.0
2970,64.0,192,180,4.0,0.0
2971,63.0,192,180,3.0,0.0
2972,62.0,192,180,2.0,0.0
2973,62.0,96,180,2.0,0.0
2974,61.0,96,90,1.0,0.0
2975,59.0,96,90,12.0,0.0
2976,61.0,96,90,1.0,0.0
2977,73.0,0,180,1.0,0.0
2978,63.0,96,90,3.0,0.0
2979,73.0,0,180,1.0,0.0
2980,64.0,96,90,4.0,0.0
2981,61.0,192,90,1.0,0.0
2982,63.0,0,180,3.0,0.0
2983,72.0,96,180,0.0,0.0
2984,71.0,192,180,12.0,0.0
2985,68.0,96,90,8.0,0.0
2986,66.0,0,90,6.0,0.0
2987,68.0,0,180,8.0,0.0
2988,71.0,192,180,12.0,0.0
2989,70.0,0,180,11.0,0.0
2990,61.0,96,180,1.0,0.0
2991,66.0,96,90,6.0,0.0
2992,69.0,0,180,10.0,0.0
2993,65.0,192,90,5.0,0.0
2994,69.0,89,180,10.0,0.0
2995,66.0,7,270,6.0,0.0
2996,68.0,96,90,8.0,0.0
2997,66.0,96,90,6.0,0.0
2998,65.0,96,390,5.0,0.0
2999,68.0,96,90,8.0,0.0
3000,69.0,96,90,10.0,0.0
3001,71.0,96,90,12.0,0.0
3002,68.0,0,90,8.0,0.0
3003,66.0,0,180,6.0,0.0
3004,69.0,96,90,10.0,0.0
3005,68.0,96,90,8.0,0.0
3006,54.0,0,180,6.0,0.0
3007,66.0,96,90,6.0,0.0
3008,57.0,96,180,10.0,0.0
3009,68.0,0,90,8.0,0.0
3010,69.0,96,90,10.0,0.0
3011,54.0,192,180,6.0,0.0
3012,62.0,0,390,2.0,0.0
3013,66.0,0,90,6.0,0.0
3014,68.0,0,180,8.0,0.0
3015,53.0,96,180,5.0,0.0
3016,56.0,0,180,8.0,0.0
3017,73.0,96,90,1.0,0.0
3018,52.0,192,180,4.0,0.0
3019,71.0,0,90,12.0,0.0
3020,61.0,192,180,1.0,0.0
3021,73.0,0,180,1.0,0.0
3022,52.0,0,180,4.0,0.0
3023,66.0,0,180,6.0,0.0
3024,54.0,96,180,6.0,0.0
3025,51.0,0,180,3.0,0.0
3026,50.0,192,180,2.0,0.0
3027,59.0,96,480,12.0,0.0
3028,71.0,96,90,12.0,0.0
3029,70.0,0,90,11.0,0.0
3030,50.0,96,180,2.0,0.0
3031,71.0,0,180,12.0,0.0
3032,49.0,96,180,1.0,0.0
3033,65.0,0,180,5.0,0.0
3034,59.0,0,90,12.0,0.0
3035,66.0,96,480,6.0,0.0
3036,50.0,0,390,2.0,0.0
3037,57.0,96,90,10.0,0.0
3038,56.0,96,90,8.0,0.0
3039,57.0,96,90,10.0,0.0
3040,54.0,96,90,6.0,0.0
3041,56.0,0,180,8.0,0.0
3042,47.0,0,180,12.0,0.0
3043,66.0,96,90,6.0,0.0
3044,61.0,96,180,1.0,0.0
3045,49.0,0,390,1.0,0.0
3046,65.0,96,90,5.0,0.0
3047,66.0,0,90,6.0,0.0
3048,68.0,96,90,8.0,0.0
3049,59.0,96,180,12.0,0.0
3050,65.0,0,90,5.0,0.0
3051,50.0,96,570,2.0,0.0
3052,66.0,96,660,6.0,0.0
3053,57.0,96,90,10.0,0.0
3054,59.0,96,90,12.0,0.0
3055,57.0,96,90,10.0,0.0
3056,56.0,96,90,8.0,0.0
3057,54.0,96,90,6.0,0.0
3058,57.0,0,90,10.0,0.0
3059,59.0,96,660,12.0,0.0
3060,51.0,0,570,3.0,0.0
3061,64.0,96,90,4.0,0.0
3062,66.0,96,90,6.0,0.0
3063,68.0,96,90,8.0,0.0
3064,69.0,96,90,10.0,0.0
3065,66.0,96,90,6.0,0.0
3066,52.0,0,570,4.0,0.0
3067,68.0,96,660,8.0,0.0
3068,61.0,96,90,1.0,0.0
3069,59.0,96,90,12.0,0.0
3070,57.0,96,90,10.0,0.0
3071,56.0,96,90,8.0,0.0
3072,60.0,96,90,0.0,0.0
3073,61.0,96,660,1.0,0.0
3074,57.0,96,570,10.0,0.0
3075,69.0,96,90,10.0,0.0
3076,68.0,96,90,8.0,0.0
3077,66.0,96,90,6.0,0.0
3078,64.0,96,90,4.0,0.0
3079,68.0,0,90,8.0,0.0
3080,51.0,96,570,3.0,0.0
3081,66.0,96,660,6.0,0.0
3082,58.0,96,90,11.0,0.0
3083,60.0,96,90,0.0,0.0
3084,61.0,96,90,1.0,0.0
3085,63.0,96,90,3.0,0.0
3086,58.0,0,90,11.0,0.0
3087,60.0,0,570,0.0,0.0
3088,56.0,96,570,8.0,0.0
3089,68.0,96,90,8.0,0.0
3090,66.0,96,90,6.0,0.0
3091,64.0,96,90,4.0,0.0
3092,63.0,96,90,3.0,0.0
3093,66.0,0,90,6.0,0.0
3094,49.0,96,90,1.0,0.0
3095,61.0,0,180,1.0,0.0
3096,64.0,96,390,4.0,0.0
3097,48.0,96,90,0.0,0.0
3098,49.0,96,90,1.0,0.0
3099,61.0,0,180,1.0,0.0
3100,51.0,0,90,3.0,0.0
3101,52.0,96,90,4.0,0.0
3102,64.0,0,180,4.0,0.0
3103,61.0,192,180,1.0,0.0
3104,49.0,0,90,1.0,0.0
3105,60.0,0,180,0.0,0.0
3106,51.0,96,180,3.0,0.0
3107,66.0,0,180,6.0,0.0
3108,63.0,0,180,3.0,0.0
3109,59.0,0,180,12.0,0.0
3110,56.0,96,90,8.0,0.0
3111,54.0,192,90,6.0,0.0
3112,68.0,192,180,8.0,0.0
3113,56.0,0,180,8.0,0.0
3114,59.0,0,180,12.0,0.0
3115,65.0,0,180,5.0,0.0
3116,49.0,96,180,1.0,0.0
3117,58.0,0,180,11.0,0.0
3118,61.0,96,390,1.0,0.0
3119,54.0,96,90,6.0,0.0
3120,57.0,192,180,10.0,0.0
3121,53.0,0,90,5.0,0.0
3122,57.0,0,180,10.0,0.0
3123,54.0,0,390,6.0,0.0
3124,71.0,96,90,12.0,0.0
3125,56.0,96,390,8.0,0.0
3126,73.0,96,90,1.0,0.0
3127,71.0,96,90,12.0,0.0
3128,53.0,96,390,5.0,0.0
3129,69.0,0,90,10.0,0.0
3130,61.0,0,390,1.0,0.0
3131,68.0,96,90,8.0,0.0
3132,71.0,0,90,12.0,0.0
3133,69.0,0,180,10.0,0.0
3134,54.0,96,90,6.0,0.0
3135,56.0,96,90,8.0,0.0
3136,69.0,0,180,10.0,0.0
3137,73.0,96,180,1.0,0.0
3138,54.0,96,90,6.0,0.0
3139,52.0,0,90,4.0,0.0
3140,50.0,96,90,2.0,0.0
3141,78.0,0,390,6.0,0.0
3142,66.0,0,180,6.0,0.0
3143,49.0,96,90,1.0,0.0
3144,68.0,96,90,8.0,0.0
3145,47.0,0,180,12.0,0.0
3146,66.0,96,90,6.0,0.0
3147,44.0,0,180,8.0,0.0
3148,68.0,96,90,8.0,0.0
3149,77.0,0,390,5.0,0.0
3150,69.0,96,90,10.0,0.0
3151,49.0,96,180,1.0,0.0
3152,71.0,96,90,12.0,0.0
3153,68.0,0,90,8.0,0.0
3154,42.0,1,180,6.0,0.0
3155,78.0,96,180,6.0,0.0
3156,69.0,95,90,10.0,0.0
3157,71.0,0,90,12.0,0.0
3158,69.0,96,90,10.0,0.0
3159,78.0,0,180,6.0,0.0
3160,68.0,96,90,8.0,0.0
3161,78.0,192,180,6.0,0.0
3162,66.0,96,90,6.0,0.0
3163,69.0,0,90,10.0,0.0
3164,68.0,0,180,8.0,0.0
3165,77.0,96,180,5.0,0.0
3166,73.0,96,90,1.0,0.0
3167,76.0,0,180,4.0,0.0
3168,71.0,192,90,12.0,0.0
3169,76.0,0,180,4.0,0.0
3170,73.0,192,180,1.0,0.0
3171,66.0,96,180,6.0,0.0
3172,75.0,0,180,3.0,0.0
3173,71.0,96,90,12.0,0.0
3174,74.0,0,180,2.0,0.0
3175,70.0,192,90,11.0,0.0
3176,71.0,96,300,12.0,0.0
3177,74.0,96,180,2.0,0.0
3178,73.0,96,180,1.0,0.0
3179,71.0,0,90,12.0,0.0
3180,78.0,96,480,6.0,0.0
3181,69.0,96,90,10.0,0.0
3182,68.0,96,90,8.0,0.0
3183,66.0,96,90,6.0,0.0
3184,69.0,96,90,10.0,0.0
3185,68.0,96,180,8.0,0.0
3186,78.0,0,90,6.0,0.0
3187,73.0,0,570,1.0,0.0
3188,77.0,96,90,5.0,0.0
3189,78.0,96,90,6.0,0.0
3190,80.0,96,90,8.0,0.0
3191,77.0,96,90,5.0,0.0
3192,78.0,96,90,6.0,0.0
3193,75.0,96,90,3.0,0.0
3194,71.0,96,660,12.0,0.0
3195,80.0,96,90,8.0,0.0
3196,81.0,96,90,10.0,0.0
3197,80.0,96,90,8.0,0.0
3198,78.0,96,90,6.0,0.0
3199,77.0,96,90,5.0,0.0
3200,73.0,96,90,1.0,0.0
3201,78.0,0,570,6.0,0.0
3202,69.0,96,90,10.0,0.0
3203,68.0,96,90,8.0,0.0
3204,66.0,96,90,6.0,0.0
3205,68.0,96,90,8.0,0.0
3206,69.0,96,90,10.0,0.0
3207,76.0,0,180,4.0,0.0
3208,61.0,0,180,1.0,0.0
3209,68.0,96,90,8.0,0.0
3210,66.0,96,90,6.0,0.0
3211,64.0,96,90,4.0,0.0
3212,61.0,192,180,1.0,0.0
3213,81.0,0,390,10.0,0.0
3214,66.0,0,90,6.0,0.0
3215,63.0,96,180,3.0,0.0
3216,60.0,0,180,0.0,0.0
3217,68.0,96,90,8.0,0.0
3218,75.0,192,180,3.0,0.0
3219,59.0,0,180,12.0,0.0
3220,66.0,0,90,6.0,0.0
3221,68.0,0,180,8.0,0.0
3222,80.0,96,390,8.0,0.0
3223,59.0,192,180,12.0,0.0
3224,58.0,0,180,11.0,0.0
3225,61.0,0,180,1.0,0.0
3226,73.0,0,180,1.0,0.0
3227,57.0,192,180,10.0,0.0
3228,66.0,96,90,6.0,0.0
3229,65.0,0,90,5.0,0.0
3230,57.0,96,180,10.0,0.0
3231,66.0,0,180,6.0,0.0
3232,78.0,0,390,6.0,0.0
3233,56.0,96,300,8.0,0.0
3234,60.0,96,90,0.0,0.0
3235,63.0,96,90,3.0,0.0
3236,68.0,0,90,8.0,0.0
3237,72.0,0,180,0.0,0.0
3238,66.0,0,90,6.0,0.0
3239,56.0,96,90,8.0,0.0
3240,57.0,96,90,10.0,0.0
3241,73.0,96,390,1.0,0.0
3242,64.0,0,180,4.0,0.0
3243,56.0,96,90,8.0,0.0
3244,66.0,0,300,6.0,0.0
3245,54.0,48,90,6.0,0.0
3246,56.0,48,60,8.0,0.0
3247,57.0,0,60,10.0,0.0
3248,72.0,96,390,0.0,0.0
3249,56.0,96,90,8.0,0.0
3250,63.0,0,90,3.0,0.0
3251,54.0,96,90,6.0,0.0
3252,56.0,0,180,8.0,0.0
3253,68.0,96,90,8.0,0.0
3254,66.0,0,90,6.0,0.0
3255,49.0,93,300,1.0,0.0
3256,73.0,3,390,1.0,0.0
3257,64.0,96,90,4.0,0.0
3258,61.0,96,90,1.0,0.0
3259,69.0,96,480,10.0,0.0
3260,61.0,96,90,1.0,0.0
3261,59.0,96,90,12.0,0.0
3262,57.0,96,90,10.0,0.0
3263,62.0,96,300,2.0,0.0
3264,66.0,96,90,6.0,0.0
3265,74.0,0,90,2.0,0.0
3266,71.0,96,90,12.0,0.0
3267,62.0,0,90,2.0,0.0
3268,59.0,0,90,12.0,0.0
3269,68.0,96,90,8.0,0.0
3270,71.0,96,90,12.0,0.0
3271,56.0,0,90,8.0,0.0
3272,65.0,96,180,5.0,0.0
3273,61.0,96,90,1.0,0.0
3274,59.0,0,90,12.0,0.0
3275,73.0,0,180,1.0,0.0
3276,66.0,0,90,6.0,0.0
3277,57.0,96,90,10.0,0.0
3278,61.0,96,90,1.0,0.0
3279,68.0,0,90,8.0,0.0
3280,69.0,0,390,10.0,0.0
3281,66.0,96,90,6.0,0.0
3282,73.0,0,180,1.0,0.0
3283,64.0,96,90,4.0,0.0
3284,63.0,96,90,3.0,0.0
3285,72.0,0,180,0.0,0.0
3286,66.0,96,90,6.0,0.0
3287,71.0,0,180,12.0,0.0
3288,65.0,0,90,5.0,0.0
3289,68.0,96,90,8.0,0.0
3290,66.0,0,90,6.0,0.0
3291,63.0,96,90,3.0,0.0
3292,71.0,0,180,12.0,0.0
3293,65.0,95,90,5.0,0.0
3294,68.0,1,180,8.0,0.0
3295,61.0,192,90,1.0,0.0
3296,70.0,96,180,11.0,0.0
3297,66.0,0,180,6.0,0.0
3298,64.0,0,90,4.0,0.0
3299,62.0,96,90,2.0,0.0
3300,66.0,0,90,6.0,0.0
3301,54.0,0,180,6.0,0.0
3302,69.0,96,180,10.0,0.0
3303,61.0,0,90,1.0,0.0
3304,64.0,0,90,4.0,0.0
3305,54.0,0,180,6.0,0.0
3306,74.0,192,180,2.0,0.0
3307,59.0,96,90,12.0,0.0
3308,62.0,0,390,2.0,0.0
3309,57.0,0,90,10.0,0.0
3310,53.0,0,180,5.0,0.0
3311,68.0,96,180,8.0,0.0
3312,59.0,0,180,12.0,0.0
3313,61.0,96,570,1.0,0.0
3314,56.0,192,390,8.0,0.0
3315,52.0,192,180,4.0,0.0
3316,73.0,96,90,1.0,0.0
3317,71.0,0,90,12.0,0.0
3318,73.0,0,180,1.0,0.0
3319,52.0,0,180,4.0,0.0
3320,51.0,0,180,3.0,0.0
3321,66.0,0,180,6.0,0.0
3322,57.0,0,180,10.0,0.0
3323,59.0,96,480,12.0,0.0
3324,71.0,96,90,12.0,0.0
3325,54.0,0,390,6.0,0.0
3326,50.0,192,180,2.0,0.0
3327,70.0,0,90,11.0,0.0
3328,71.0,0,180,12.0,0.0
3329,50.0,96,180,2.0,0.0
3330,49.0,96,180,1.0,0.0
3331,65.0,0,180,5.0,0.0
3332,61.0,0,180,1.0,0.0
3333,59.0,0,90,12.0,0.0
3334,54.0,96,300,6.0,0.0
3335,66.0,96,480,6.0,0.0
3336,57.0,96,90,10.0,0.0
3337,50.0,96,180,2.0,0.0
3338,59.0,0,90,12.0,0.0
3339,61.0,96,180,1.0,0.0
3340,45.0,0,180,10.0,0.0
3341,56.0,0,90,8.0,0.0
3342,62.0,96,180,2.0,0.0
3343,57.0,0,180,10.0,0.0
3344,47.0,0,180,12.0,0.0
3345,66.0,0,90,6.0,0.0
3346,61.0,0,180,1.0,0.0
3347,65.0,96,90,5.0,0.0
3348,49.0,0,390,1.0,0.0
3349,56.0,0,180,8.0,0.0
3350,66.0,96,90,6.0,0.0
3351,68.0,96,90,8.0,0.0
3352,61.0,0,180,1.0,0.0
3353,65.0,0,180,5.0,0.0
3354,69.0,96,90,10.0,0.0
3355,59.0,0,300,12.0,0.0
3356,71.0,95,480,12.0,0.0
3357,66.0,96,90,6.0,0.0
3358,51.0,0,180,3.0,0.0
3359,69.0,96,90,10.0,0.0
3360,52.0,0,180,4.0,0.0
3361,68.0,96,90,8.0,0.0
3362,61.0,96,90,1.0,0.0
3363,66.0,0,90,6.0,0.0
3364,53.0,0,180,5.0,0.0
3365,68.0,1,180,8.0,0.0
3366,62.0,192,180,2.0,0.0
3367,71.0,0,90,12.0,0.0
3368,54.0,0,300,6.0,0.0
3369,61.0,96,300,1.0,0.0
3370,69.0,95,480,10.0,0.0
3371,68.0,96,90,8.0,0.0
3372,66.0,0,90,6.0,0.0
3373,59.0,0,90,12.0,0.0
3374,56.0,96,90,8.0,0.0
3375,65.0,0,90,5.0,0.0
3376,66.0,1,180,6.0,0.0
3377,57.0,192,180,10.0,0.0
3378,61.0,0,180,1.0,0.0
3379,69.0,0,90,10.0,0.0
3380,62.0,96,180,2.0,0.0
3381,68.0,96,480,8.0,0.0
3382,59.0,0,180,12.0,0.0
3383,66.0,0,90,6.0,0.0
3384,65.0,95,90,5.0,0.0
3385,56.0,0,180,8.0,0.0
3386,59.0,1,180,12.0,0.0
3387,63.0,96,90,3.0,0.0
3388,65.0,96,180,5.0,0.0
3389,61.0,0,180,1.0,0.0
3390,69.0,0,90,10.0,0.0
3391,57.0,95,90,10.0,0.0
3392,66.0,0,180,6.0,0.0
3393,54.0,1,180,6.0,0.0
3394,56.0,96,90,8.0,0.0
3395,54.0,96,90,6.0,0.0
3396,66.0,0,180,6.0,0.0
3397,69.0,0,180,10.0,0.0
3398,53.0,192,90,5.0,0.0
3399,54.0,0,180,6.0,0.0
3400,74.0,192,180,2.0,0.0
3401,66.0,0,180,6.0,0.0
3402,56.0,0,180,8.0,0.0
3403,65.0,0,180,5.0,0.0
3404,71.0,96,180,12.0,0.0
3405,68.0,0,180,8.0,0.0
3406,61.0,96,90,1.0,0.0
3407,64.0,192,180,4.0,0.0
3408,59.0,0,90,12.0,0.0
3409,64.0,0,180,4.0,0.0
3410,73.0,0,180,1.0,0.0
3411,61.0,192,180,1.0,0.0
3412,63.0,96,180,3.0,0.0
3413,70.0,0,180,11.0,0.0
3414,54.0,0,180,6.0,0.0
3415,59.0,96,90,12.0,0.0
3416,62.0,0,180,2.0,0.0
3417,66.0,0,180,6.0,0.0
3418,58.0,192,90,11.0,0.0
3419,62.0,0,180,2.0,0.0
3420,71.0,96,180,12.0,0.0
3421,59.0,96,300,12.0,0.0
3422,65.0,0,180,5.0,0.0
3423,61.0,96,180,1.0,0.0
3424,59.0,0,90,12.0,0.0
3425,57.0,96,90,10.0,0.0
3426,66.0,0,180,6.0,0.0
3427,73.0,96,570,1.0,0.0
3428,56.0,96,90,8.0,0.0
3429,57.0,96,90,10.0,0.0
3430,64.0,0,180,4.0,0.0
3431,52.0,96,90,4.0,0.0
3432,54.0,96,90,6.0,0.0
3433,69.0,0,90,10.0,0.0
3434,66.0,0,90,6.0,0.0
3435,57.0,0,90,10.0,0.0
3436,56.0,0,90,8.0,0.0
3437,63.0,96,90,3.0,0.0
3438,72.0,0,390,0.0,0.0
3439,66.0,96,90,6.0,0.0
3440,54.0,0,90,6.0,0.0
3441,64.0,96,90,4.0,0.0
3442,56.0,0,90,8.0,0.0
3443,44.0,0,90,8.0,0.0
3444,63.0,96,90,3.0,0.0
3445,73.0,96,390,1.0,0.0
3446,49.0,3,390,1.0,0.0
3447,64.0,96,90,4.0,0.0
3448,66.0,96,90,6.0,0.0
3449,64.0,93,90,4.0,0.0
3450,63.0,0,90,3.0,0.0
3451,80.0,96,180,8.0,0.0
3452,61.0,96,90,1.0,0.0
3453,64.0,0,90,4.0,0.0
3454,63.0,96,90,3.0,0.0
3455,78.0,0,90,6.0,0.0
3456,64.0,0,90,4.0,0.0
3457,80.0,96,90,8.0,0.0
3458,63.0,0,90,3.0,0.0
3459,78.0,96,90,6.0,0.0
3460,76.0,96,90,4.0,0.0
3461,61.0,0,90,1.0,0.0
3462,56.0,192,180,8.0,0.0
3463,75.0,0,90,3.0,0.0
3464,60.0,96,90,0.0,0.0
3465,63.0,0,90,3.0,0.0
3466,78.0,0,90,6.0,0.0
3467,61.0,0,180,1.0,0.0
3468,76.0,0,180,4.0,0.0
3469,63.0,96,90,3.0,0.0
3470,64.0,0,180,4.0,0.0
3471,73.0,96,180,1.0,0.0
3472,61.0,96,90,1.0,0.0
3473,59.0,0,90,12.0,0.0
3474,78.0,96,180,6.0,0.0
3475,57.0,96,90,10.0,0.0
3476,69.0,0,390,10.0,0.0
3477,61.0,0,90,1.0,0.0
3478,75.0,0,180,3.0,0.0
3479,59.0,96,90,12.0,0.0
3480,61.0,96,90,1.0,0.0
3481,59.0,96,90,12.0,0.0
3482,63.0,0,180,3.0,0.0
3483,71.0,0,180,12.0,0.0
3484,57.0,96,90,10.0,0.0
3485,76.0,96,180,4.0,0.0
3486,68.0,96,390,8.0,0.0
3487,56.0,96,90,8.0,0.0
3488,59.0,0,90,12.0,0.0
3489,73.0,0,180,1.0,0.0
3490,57.0,96,90,10.0,0.0
3491,59.0,0,90,12.0,0.0
3492,69.0,0,180,10.0,0.0
3493,61.0,96,180,1.0,0.0
3494,57.0,96,90,10.0,0.0
3495,56.0,0,90,8.0,0.0
3496,66.0,0,390,6.0,0.0
3497,75.0,96,180,3.0,0.0
3498,54.0,96,90,6.0,0.0
3499,57.0,0,90,10.0,0.0
3500,72.0,0,180,0.0,0.0
3501,56.0,96,90,8.0,0.0
3502,57.0,96,90,10.0,0.0
3503,73.0,0,570,1.0,0.0
3504,64.0,0,180,4.0,0.0
3505,56.0,96,90,8.0,0.0
3506,54.0,96,90,6.0,0.0
3507,68.0,0,180,8.0,0.0
3508,52.0,96,90,4.0,0.0
3509,56.0,96,90,8.0,0.0
3510,69.0,0,180,10.0,0.0
3511,54.0,96,90,6.0,0.0
3512,56.0,96,90,8.0,0.0
3513,54.0,96,90,6.0,0.0
3514,63.0,0,390,3.0,0.0
3515,72.0,96,390,0.0,0.0
3516,52.0,96,90,4.0,0.0
3517,51.0,96,90,3.0,0.0
3518,54.0,0,90,6.0,0.0
3519,52.0,96,90,4.0,0.0
3520,73.0,0,390,1.0,0.0
3521,61.0,0,180,1.0,0.0
3522,54.0,96,90,6.0,0.0
3523,68.0,96,180,8.0,0.0
3524,56.0,0,180,8.0,0.0
3525,52.0,96,90,4.0,0.0
3526,51.0,0,90,3.0,0.0
3527,49.0,96,90,1.0,0.0
3528,73.0,0,180,1.0,0.0
3529,76.0,0,390,4.0,0.0
3530,56.0,96,180,8.0,0.0
3531,52.0,0,90,4.0,0.0
3532,55.0,0,180,7.0,0.0
3533,51.0,96,90,3.0,0.0
3534,70.0,96,180,11.0,0.0
3535,52.0,0,90,4.0,0.0
3536,51.0,96,90,3.0,0.0
3537,69.0,96,180,10.0,0.0
3538,54.0,0,180,6.0,0.0
3539,49.0,0,90,1.0,0.0
3540,48.0,96,90,0.0,0.0
3541,54.0,0,180,6.0,0.0
3542,75.0,96,390,3.0,0.0
3543,68.0,3,390,8.0,0.0
3544,51.0,96,90,3.0,0.0
3545,53.0,0,180,5.0,0.0
3546,49.0,93,90,1.0,0.0
3547,51.0,0,90,3.0,0.0
3548,68.0,0,180,8.0,0.0
3549,52.0,96,180,4.0,0.0
3550,49.0,96,90,1.0,0.0
3551,47.0,0,90,12.0,0.0
3552,68.0,96,180,8.0,0.0
3553,52.0,96,300,4.0,0.0
3554,73.0,0,390,1.0,0.0
3555,45.0,96,90,10.0,0.0
3556,44.0,0,90,8.0,0.0
3557,42.0,0,180,6.0,0.0
3558,69.0,0,180,10.0,0.0
3559,51.0,96,90,3.0,0.0
3560,51.0,0,390,3.0,0.0
3561,68.0,96,90,8.0,0.0
3562,44.0,0,390,8.0,0.0
3563,72.0,0,390,0.0,0.0
3564,69.0,96,90,10.0,0.0
3565,66.0,96,90,6.0,0.0
3566,63.0,96,90,3.0,0.0
3567,73.0,95,90,1.0,0.0
3568,37.0,1,180,1.0,0.0
3569,49.0,96,300,1.0,0.0
3570,64.0,0,180,4.0,0.0
3571,75.0,96,90,3.0,0.0
3572,76.0,95,480,4.0,0.0
3573,68.0,96,180,8.0,0.0
3574,61.0,0,90,1.0,0.0
3575,58.0,96,90,11.0,0.0
3576,66.0,96,570,6.0,0.0
3577,54.0,96,90,6.0,0.0
3578,59.0,1,180,12.0,0.0
3579,76.0,192,90,4.0,0.0
3580,74.0,96,480,2.0,0.0
3581,59.0,0,90,12.0,0.0
3582,56.0,96,90,8.0,0.0
3583,64.0,96,480,4.0,0.0
3584,52.0,96,90,4.0,0.0
3585,57.0,96,180,10.0,0.0
3586,73.0,0,90,1.0,0.0
3587,57.0,96,180,10.0,0.0
3588,61.0,0,390,1.0,0.0
3589,78.0,96,480,6.0,0.0
3590,73.0,0,90,1.0,0.0
3591,57.0,0,180,10.0,0.0
3592,69.0,96,90,10.0,0.0
3593,66.0,96,90,6.0,0.0
3594,63.0,0,180,3.0,0.0
3595,71.0,96,300,12.0,0.0
3596,56.0,0,180,8.0,0.0
3597,78.0,96,90,6.0,0.0
3598,76.0,96,480,4.0,0.0
3599,59.0,0,180,12.0,0.0
3600,55.0,0,180,7.0,0.0
3601,71.0,96,90,12.0,0.0
3602,67.0,96,90,7.0,0.0
3603,59.0,0,180,12.0,0.0
3604,55.0,0,180,7.0,0.0
3605,64.0,96,90,4.0,0.0
3606,61.0,96,180,1.0,0.0
3607,69.0,0,570,10.0,0.0
3608,54.0,0,180,6.0,0.0
3609,76.0,0,90,4.0,0.0
3610,74.0,96,90,2.0,0.0
3611,53.0,96,180,5.0,0.0
3612,57.0,0,180,10.0,0.0
3613,81.0,0,90,10.0,0.0
3614,62.0,0,180,2.0,0.0
3615,53.0,0,180,5.0,0.0
3616,77.0,96,90,5.0,0.0
3617,74.0,281,90,2.0,0.0
3618,62.0,0,270,2.0,0.0
3619,64.0,7,270,4.0,0.0
3620,52.0,0,270,4.0,0.0
3621,68.0,96,300,8.0,0.0
3622,78.0,96,90,6.0,0.0
3623,76.0,96,90,4.0,0.0
3624,74.0,96,90,2.0,0.0
3625,73.0,96,90,1.0,0.0
3626,71.0,96,90,12.0,0.0
3627,69.0,96,90,10.0,0.0
3628,68.0,96,90,8.0,0.0
3629,66.0,96,90,6.0,0.0
3630,64.0,96,90,4.0,0.0
3631,62.0,96,90,2.0,0.0
3632,61.0,96,90,1.0,0.0
3633,59.0,96,90,12.0,0.0
3634,57.0,96,90,10.0,0.0
3635,56.0,96,90,8.0,0.0
3636,57.0,192,90,10.0,0.0
3637,51.0,0,180,3.0,0.0
3638,78.0,192,90,6.0,0.0
3639,69.0,0,180,10.0,0.0
3640,52.0,0,390,4.0,0.0
3641,59.0,96,180,12.0,0.0
3642,71.0,96,300,12.0,0.0
3643,62.0,0,180,2.0,0.0
3644,68.0,0,180,8.0,0.0
3645,69.0,192,90,10.0,0.0
3646,45.0,3,390,10.0,0.0
3647,61.0,0,390,1.0,0.0
3648,69.0,96,180,10.0,0.0
3649,71.0,0,90,12.0,0.0
3650,76.0,0,180,4.0,0.0
3651,73.0,93,90,1.0,0.0
3652,71.0,96,90,12.0,0.0
3653,69.0,96,90,10.0,0.0
3654,61.0,3,390,1.0,0.0
3655,76.0,96,180,4.0,0.0
3656,68.0,0,90,8.0,0.0
3657,75.0,0,180,3.0,0.0
3658,66.0,93,90,6.0,0.0
3659,68.0,0,90,8.0,0.0
3660,54.0,96,90,6.0,0.0
3661,69.0,96,180,10.0,0.0
3662,59.0,96,90,12.0,0.0
3663,74.0,0,180,2.0,0.0
3664,57.0,0,90,10.0,0.0
3665,71.0,96,300,12.0,0.0
3666,56.0,96,90,8.0,0.0
3667,74.0,96,180,2.0,0.0
3668,52.0,0,90,4.0,0.0
3669,73.0,96,390,1.0,0.0
3670,57.0,96,300,10.0,0.0
3671,64.0,96,90,4.0,0.0
3672,69.0,96,390,10.0,0.0
3673,66.0,0,90,6.0,0.0
3674,63.0,96,90,3.0,0.0
3675,78.0,96,300,6.0,0.0
3676,59.0,0,90,12.0,0.0
3677,64.0,96,300,4.0,0.0
3678,68.0,0,390,8.0,0.0
3679,71.0,96,90,12.0,0.0
3680,76.0,0,570,4.0,0.0
3681,64.0,96,90,4.0,0.0
3682,61.0,96,90,1.0,0.0
3683,68.0,96,180,8.0,0.0
3684,56.0,0,90,8.0,0.0
3685,66.0,0,300,6.0,0.0
3686,57.0,96,90,10.0,0.0
3687,61.0,96,90,1.0,0.0
3688,76.0,0,570,4.0,0.0
3689,57.0,96,90,10.0,0.0
3690,54.0,96,90,6.0,0.0
3691,69.0,0,90,10.0,0.0
3692,59.0,0,90,12.0,0.0
3693,68.0,96,90,8.0,0.0
3694,56.0,96,90,8.0,0.0
3695,71.0,0,90,12.0,0.0
3696,69.0,0,300,10.0,0.0
3697,61.0,96,90,1.0,0.0
3698,64.0,96,90,4.0,0.0
3699,61.0,96,90,1.0,0.0
3700,76.0,96,480,4.0,0.0
3701,57.0,0,90,10.0,0.0
3702,73.0,96,90,1.0,0.0
3703,56.0,0,90,8.0,0.0
3704,71.0,96,90,12.0,0.0
3705,52.0,96,90,4.0,0.0
3706,74.0,0,90,2.0,0.0
3707,73.0,96,180,1.0,0.0
3708,57.0,0,90,10.0,0.0
3709,76.0,96,300,4.0,0.0
3710,61.0,0,90,1.0,0.0
3711,57.0,96,90,10.0,0.0
3712,66.0,96,390,6.0,0.0
3713,54.0,0,90,6.0,0.0
3714,75.0,0,180,3.0,0.0
3715,59.0,96,90,12.0,0.0
3716,47.0,0,90,12.0,0.0
3717,68.0,96,90,8.0,0.0
3718,52.0,0,180,4.0,0.0
3719,76.0,96,300,4.0,0.0
3720,69.0,96,90,10.0,0.0
3721,64.0,0,180,4.0,0.0
3722,71.0,0,180,12.0,0.0
3723,79.0,96,90,7.0,0.0
3724,67.0,0,180,7.0,0.0
3725,64.0,96,390,4.0,0.0
3726,76.0,96,90,4.0,0.0
3727,73.0,192,90,1.0,0.0
3728,66.0,192,390,6.0,0.0
3729,70.0,0,180,11.0,0.0
3730,78.0,0,180,6.0,0.0
3731,63.0,96,90,3.0,0.0
3732,61.0,0,90,1.0,0.0
3733,62.0,192,180,2.0,0.0
3734,71.0,0,390,12.0,0.0
3735,78.0,0,180,6.0,0.0
3736,77.0,96,180,5.0,0.0
3737,61.0,0,180,1.0,0.0
3738,66.0,0,90,6.0,0.0
3739,76.0,0,180,4.0,0.0
3740,70.0,96,90,11.0,0.0
3741,68.0,192,90,8.0,0.0
3742,64.0,0,90,4.0,0.0
3743,70.0,192,180,11.0,0.0
3744,76.0,0,180,4.0,0.0
3745,66.0,0,180,6.0,0.0
3746,71.0,192,390,12.0,0.0
3747,59.0,96,180,12.0,0.0
3748,74.0,0,180,2.0,0.0
3749,59.0,0,180,12.0,0.0
3750,79.0,96,90,7.0,0.0
3751,62.0,0,180,2.0,0.0
3752,78.0,0,90,6.0,0.0
3753,67.0,0,390,7.0,0.0
3754,74.0,0,180,2.0,0.0
3755,79.0,192,180,7.0,0.0
3756,59.0,0,180,12.0,0.0
3757,73.0,0,390,1.0,0.0
3758,58.0,96,180,11.0,0.0
3759,78.0,96,90,6.0,0.0
3760,57.0,0,180,10.0,0.0
3761,61.0,192,180,1.0,0.0
3762,76.0,0,90,4.0,0.0
3763,78.0,0,180,6.0,0.0
3764,66.0,96,390,6.0,0.0
3765,73.0,192,180,1.0,0.0
3766,57.0,0,180,10.0,0.0
3767,71.0,0,390,12.0,0.0
3768,56.0,0,180,8.0,0.0
3769,59.0,0,180,12.0,0.0
3770,76.0,96,90,4.0,0.0
3771,55.0,192,180,7.0,0.0
3772,75.0,0,90,3.0,0.0
3773,71.0,0,180,12.0,0.0
3774,76.0,95,300,4.0,0.0
3775,64.0,0,180,4.0,0.0
3776,55.0,96,180,7.0,0.0
3777,70.0,96,480,11.0,0.0
3778,66.0,1,180,6.0,0.0
3779,54.0,0,180,6.0,0.0
3780,76.0,96,90,4.0,0.0
3781,74.0,96,90,2.0,0.0
3782,59.0,0,90,12.0,0.0
3783,58.0,0,90,11.0,0.0
3784,78.0,96,90,6.0,0.0
3785,59.0,96,180,12.0,0.0
3786,74.0,89,300,2.0,0.0
3787,71.0,6,270,12.0,0.0
3788,52.0,0,180,4.0,0.0
3789,67.0,1,180,7.0,0.0
3790,74.0,96,90,2.0,0.0
3791,73.0,96,90,1.0,0.0
3792,57.0,0,90,10.0,0.0
3793,55.0,0,90,7.0,0.0
3794,76.0,192,90,4.0,0.0
3795,73.0,89,300,1.0,0.0
3796,57.0,96,180,10.0,0.0
3797,69.0,6,270,10.0,0.0
3798,66.0,1,180,6.0,0.0
3799,50.0,0,180,2.0,0.0
3800,73.0,96,90,1.0,0.0
3801,55.0,0,90,7.0,0.0
3802,71.0,96,90,12.0,0.0
3803,74.0,0,90,2.0,0.0
3804,54.0,192,90,6.0,0.0
3805,55.0,96,180,7.0,0.0
3806,71.0,89,300,12.0,0.0
3807,67.0,6,270,7.0,0.0
3808,64.0,1,180,4.0,0.0
3809,49.0,0,180,1.0,0.0
3810,71.0,96,90,12.0,0.0
3811,54.0,96,90,6.0,0.0
3812,70.0,0,90,11.0,0.0
3813,73.0,288,90,1.0,0.0
3814,52.0,0,90,4.0,0.0
3815,54.0,96,300,6.0,0.0
3816,70.0,0,390,11.0,0.0
3817,66.0,0,300,6.0,0.0
3818,64.0,0,180,4.0,0.0
3819,54.0,91,90,6.0,0.0
3820,71.0,96,480,12.0,0.0
3821,62.0,0,390,2.0,0.0
3822,59.0,5,90,12.0,0.0
3823,55.0,96,90,7.0,0.0
3824,59.0,96,90,12.0,0.0
3825,67.0,0,390,7.0,0.0
3826,55.0,96,90,7.0,0.0
3827,52.0,96,90,4.0,0.0
3828,49.0,0,180,1.0,0.0
3829,64.0,96,390,4.0,0.0
3830,71.0,192,90,12.0,0.0
3831,66.0,3,390,6.0,0.0
3832,70.0,93,300,11.0,0.0
3833,54.0,0,180,6.0,0.0
3834,42.0,0,180,6.0,0.0
3835,64.0,7,270,4.0,0.0
3836,70.0,89,90,11.0,0.0
3837,71.0,96,90,12.0,0.0
3838,47.0,0,390,12.0,0.0
3839,66.0,96,90,6.0,0.0
3840,67.0,96,90,7.0,0.0
3841,62.0,0,180,2.0,0.0
3842,71.0,96,90,12.0,0.0
3843,67.0,96,90,7.0,0.0
3844,59.0,0,300,12.0,0.0
3845,62.0,0,180,2.0,0.0
3846,66.0,96,90,6.0,0.0
3847,61.0,1,180,1.0,0.0
3848,65.0,95,90,5.0,0.0
3849,68.0,0,90,8.0,0.0
3850,59.0,96,90,12.0,0.0
3851,73.0,96,90,1.0,0.0
3852,57.0,0,90,10.0,0.0
3853,62.0,0,90,2.0,0.0
3854,78.0,96,90,6.0,0.0
3855,74.0,96,90,2.0,0.0
3856,59.0,0,90,12.0,0.0
3857,73.0,96,90,1.0,0.0
3858,57.0,0,90,10.0,0.0
3859,71.0,96,90,12.0,0.0
3860,56.0,0,180,8.0,0.0
3861,74.0,96,90,2.0,0.0
3862,61.0,0,180,1.0,0.0
3863,65.0,96,90,5.0,0.0
3864,74.0,96,90,2.0,0.0
3865,73.0,96,90,1.0,0.0
3866,49.0,96,180,1.0,0.0
3867,71.0,0,90,12.0,0.0
3868,54.0,96,300,6.0,0.0
3869,69.0,96,90,10.0,0.0
3870,71.0,96,90,12.0,0.0
3871,69.0,0,90,10.0,0.0
3872,56.0,96,90,8.0,0.0
3873,68.0,0,90,8.0,0.0
3874,57.0,0,90,10.0,0.0
3875,66.0,96,90,6.0,0.0
3876,54.0,0,90,6.0,0.0
3877,69.0,96,90,10.0,0.0
3878,59.0,96,90,12.0,0.0
3879,63.0,0,300,3.0,0.0
3880,61.0,96,90,1.0,0.0
3881,59.0,96,90,12.0,0.0
3882,57.0,0,90,10.0,0.0
3883,73.0,96,90,1.0,0.0
3884,71.0,96,90,12.0,0.0
3885,56.0,0,90,8.0,0.0
3886,59.0,96,90,12.0,0.0
3887,69.0,0,90,10.0,0.0
3888,52.0,0,300,4.0,0.0
3889,68.0,96,90,8.0,0.0
3890,69.0,96,90,10.0,0.0
3891,68.0,96,90,8.0,0.0
3892,66.0,96,90,6.0,0.0
3893,54.0,0,90,6.0,0.0
3894,64.0,0,90,4.0,0.0
3895,56.0,96,90,8.0,0.0
3896,68.0,0,90,8.0,0.0
3897,52.0,96,90,4.0,0.0
3898,61.0,96,300,1.0,0.0
3899,57.0,96,90,10.0,0.0
3900,59.0,96,90,12.0,0.0
3901,57.0,0,90,10.0,0.0
3902,56.0,0,90,8.0,0.0
3903,71.0,96,90,12.0,0.0
3904,54.0,0,90,6.0,0.0
3905,69.0,96,90,10.0,0.0
3906,68.0,0,90,8.0,0.0
3907,57.0,96,90,10.0,0.0
3908,66.0,96,90,6.0,0.0
3909,51.0,0,300,3.0,0.0
3910,68.0,96,90,8.0,0.0
3911,66.0,96,90,6.0,0.0
3912,64.0,96,90,4.0,0.0
3913,52.0,0,90,4.0,0.0
3914,63.0,0,90,3.0,0.0
3915,54.0,96,90,6.0,0.0
3916,66.0,0,90,6.0,0.0
3917,51.0,96,90,3.0,0.0
3918,60.0,96,300,0.0,0.0
3919,56.0,96,90,8.0,0.0
3920,57.0,96,90,10.0,0.0
3921,56.0,0,90,8.0,0.0
3922,54.0,0,90,6.0,0.0
3923,69.0,96,90,10.0,0.0
3924,53.0,0,90,5.0,0.0
3925,68.0,96,90,8.0,0.0
3926,56.0,0,90,8.0,0.0
3927,66.0,96,90,6.0,0.0
3928,65.0,0,90,5.0,0.0
3929,49.0,96,90,1.0,0.0
3930,68.0,0,90,8.0,0.0
3931,50.0,96,90,2.0,0.0
3932,49.0,96,90,1.0,0.0
3933,73.0,0,90,1.0,0.0
3934,47.0,0,90,12.0,0.0
3935,74.0,96,90,2.0,0.0
3936,73.0,96,90,1.0,0.0
3937,45.0,0,90,10.0,0.0
3938,49.0,192,90,1.0,0.0
3939,71.0,0,90,12.0,0.0
3940,42.0,96,180,6.0,0.0
3941,69.0,0,180,10.0,0.0
3942,54.0,192,180,6.0,0.0
3943,74.0,96,90,2.0,0.0
3944,73.0,0,90,1.0,0.0
3945,74.0,192,180,2.0,0.0
3946,54.0,0,180,6.0,0.0
3947,53.0,0,180,5.0,0.0
3948,68.0,96,180,8.0,0.0
3949,52.0,0,180,4.0,0.0
3950,73.0,96,90,1.0,0.0
3951,71.0,192,90,12.0,0.0
3952,73.0,192,180,1.0,0.0
3953,52.0,0,180,4.0,0.0
3954,51.0,96,180,3.0,0.0
3955,66.0,0,180,6.0,0.0
3956,71.0,96,90,12.0,0.0
3957,50.0,0,180,2.0,0.0
3958,62.0,0,180,2.0,0.0
3959,78.0,192,180,6.0,0.0
3960,69.0,0,90,10.0,0.0
3961,62.0,0,180,2.0,0.0
3962,50.0,0,180,2.0,0.0
3963,71.0,192,180,12.0,0.0
3964,78.0,0,180,6.0,0.0
3965,49.0,0,570,1.0,0.0
3966,56.0,0,180,8.0,0.0
3967,77.0,0,180,5.0,0.0
3968,73.0,96,180,1.0,0.0
3969,68.0,0,180,8.0,0.0
3970,76.0,0,180,4.0,0.0
3971,61.0,96,90,1.0,0.0
3972,59.0,192,90,12.0,0.0
3973,70.0,0,180,11.0,0.0
3974,61.0,0,180,1.0,0.0
3975,76.0,192,180,4.0,0.0
3976,54.0,0,180,6.0,0.0
3977,71.0,96,180,12.0,0.0
3978,47.0,0,570,12.0,0.0
3979,75.0,0,180,3.0,0.0
3980,66.0,0,90,6.0,0.0
3981,74.0,0,180,2.0,0.0
3982,59.0,96,90,12.0,0.0
3983,69.0,96,90,10.0,0.0
3984,57.0,0,90,10.0,0.0
3985,68.0,96,90,8.0,0.0
3986,74.0,96,180,2.0,0.0
3987,59.0,0,180,12.0,0.0
3988,71.0,0,90,12.0,0.0
3989,47.0,96,570,12.0,0.0
3990,65.0,0,570,5.0,0.0
3991,73.0,0,570,1.0,0.0
3992,56.0,96,90,8.0,0.0
3993,61.0,96,90,1.0,0.0
3994,56.0,96,90,8.0,0.0
3995,53.0,96,90,5.0,0.0
3996,49.0,96,90,1.0,0.0
3997,56.0,0,90,8.0,0.0
3998,45.0,0,570,10.0,0.0
3999,57.0,96,570,10.0,0.0
4000,73.0,96,90,1.0,0.0
4001,66.0,3,390,6.0,0.0
4002,78.0,96,90,6.0,0.0
4003,73.0,93,90,1.0,0.0
4004,69.0,191,90,10.0,0.0
4005,66.0,1,180,6.0,0.0
4006,69.0,0,90,10.0,0.0
4007,63.0,0,570,3.0,0.0
4008,45.0,0,570,10.0,0.0
4009,71.0,96,570,12.0,0.0
4010,54.0,96,90,6.0,0.0
4011,59.0,96,90,12.0,0.0
4012,54.0,96,90,6.0,0.0
4013,51.0,96,90,3.0,0.0
4014,47.0,96,90,12.0,0.0
4015,54.0,0,90,6.0,0.0
4016,71.0,96,90,12.0,0.0
4017,44.0,0,390,8.0,0.0
4018,56.0,191,390,8.0,0.0
4019,65.0,3,390,5.0,0.0
4020,74.0,96,90,2.0,0.0
4021,71.0,93,90,12.0,0.0
4022,68.0,0,90,8.0,0.0
4023,56.0,0,180,8.0,0.0
4024,49.0,192,180,1.0,0.0
4025,65.0,1,180,5.0,0.0
4026,68.0,0,90,8.0,0.0
4027,69.0,1,1140,10.0,0.0
4028,54.0,96,570,6.0,0.0
4029,42.0,0,570,6.0,0.0
4030,61.0,96,90,1.0,0.0
4031,66.0,96,90,6.0,0.0
4032,61.0,96,90,1.0,0.0
4033,57.0,96,90,10.0,0.0
4034,61.0,94,660,1.0,0.0
4035,54.0,96,90,6.0,0.0
4036,49.0,96,90,1.0,0.0
4037,54.0,96,90,6.0,0.0
4038,49.0,96,90,1.0,0.0
4039,45.0,95,90,10.0,0.0
4040,49.0,2,90,1.0,0.0
4041,42.0,96,90,6.0,0.0
4042,37.0,96,90,1.0,0.0
4043,42.0,96,90,6.0,0.0
4044,45.0,96,90,10.0,0.0
4045,44.0,96,90,8.0,0.0
4046,47.0,96,90,12.0,0.0
4047,45.0,96,90,10.0,0.0
4048,42.0,96,90,6.0,0.0
4049,45.0,96,90,10.0,0.0
4050,49.0,96,90,1.0,0.0
4051,47.0,96,90,12.0,0.0
4052,50.0,96,90,2.0,0.0
4053,49.0,96,90,1.0,0.0
4054,45.0,96,90,10.0,0.0
4055,49.0,96,90,1.0,0.0
4056,54.0,96,90,6.0,0.0
4057,53.0,96,90,5.0,0.0
4058,56.0,96,90,8.0,0.0
4059,54.0,96,90,6.0,0.0
4060,49.0,96,90,1.0,0.0
4061,54.0,96,90,6.0,0.0
4062,57.0,96,90,10.0,0.0
4063,56.0,96,90,8.0,0.0
4064,59.0,96,90,12.0,0.0
4065,57.0,96,90,10.0,0.0
4066,54.0,96,90,6.0,0.0
4067,57.0,96,90,10.0,0.0
4068,61.0,96,90,1.0,0.0
4069,59.0,96,90,12.0,0.0
4070,62.0,96,90,2.0,0.0
4071,61.0,96,90,1.0,0.0
4072,57.0,96,90,10.0,0.0
4073,61.0,96,90,1.0,0.0
4074,66.0,96,90,6.0,0.0
4075,65.0,96,90,5.0,0.0
4076,68.0,96,90,8.0,0.0
4077,66.0,96,90,6.0,0.0
4078,61.0,96,90,1.0,0.0
4079,66.0,96,90,6.0,0.0
4080,69.0,96,90,10.0,0.0
4081,68.0,96,90,8.0,0.0
4082,71.0,96,90,12.0,0.0
4083,69.0,96,90,10.0,0.0
4084,66.0,96,90,6.0,0.0
4085,69.0,96,90,10.0,0.0
4086,73.0,99,90,1.0,0.0
4087,71.0,99,90,12.0,0.0
4088,74.0,100,90,2.0,0.0
4089,73.0,100,90,1.0,0.0
4090,69.0,50,90,10.0,0.0
4091,73.0,50,60,1.0,0.0
4092,75.0,100,60,3.0,0.0
4093,76.0,50,90,4.0,0.0
4094,75.0,49,60,3.0,0.0
4095,77.0,100,60,5.0,0.0
4096,78.0,50,90,6.0,0.0
4097,77.0,50,60,5.0,0.0
4098,78.0,100,60,6.0,0.0
4099,80.0,50,90,8.0,0.0
4100,78.0,50,60,6.0,0.0
4101,80.0,100,60,8.0,0.0
4102,81.0,54,90,10.0,0.0
4103,80.0,53,60,8.0,0.0
4104,81.0,108,60,10.0,0.0
4105,83.0,216,120,12.0,0.0
4106,73.0,0,420,1.0,0.0
4107,54.0,0,210,6.0,0.0
4108,66.0,107,420,6.0,0.0
4109,81.0,215,120,10.0,0.0
4110,61.0,1,420,1.0,0.0
4111,80.0,108,330,8.0,0.0
4112,65.0,0,210,5.0,0.0
4113,71.0,0,210,12.0,0.0
4114,78.0,112,120,6.0,0.0
4115,54.0,10,1350,6.0,0.0
4116,70.0,0,210,11.0,0.0
4117,66.0,113,120,6.0,0.0
4118,78.0,114,210,6.0,0.0
4119,64.0,1,120,4.0,0.0
4120,62.0,114,120,2.0,0.0
4121,71.0,0,120,12.0,0.0
4122,78.0,0,210,6.0,0.0
4123,61.0,0,120,1.0,0.0
4124,73.0,115,120,1.0,0.0
4125,78.0,0,210,6.0,0.0
4126,59.0,114,120,12.0,0.0
4127,74.0,1,450,2.0,0.0
4128,58.0,227,120,11.0,0.0
4129,77.0,0,210,5.0,0.0
4130,56.0,115,210,8.0,0.0
4131,61.0,113,120,1.0,0.0
4132,68.0,0,210,8.0,0.0
4133,76.0,218,210,4.0,0.0
4134,59.0,1,120,12.0,0.0
4135,73.0,0,450,1.0,0.0
4136,70.0,0,450,11.0,0.0
4137,61.0,9,450,1.0,0.0
4138,76.0,227,210,4.0,0.0
4139,54.0,53,1380,6.0,0.0
4140,75.0,119,240,3.0,0.0
4141,74.0,0,240,2.0,0.0
4142,66.0,1,240,6.0,0.0
4143,59.0,116,120,12.0,0.0
4144,71.0,0,240,12.0,0.0
4145,58.0,118,120,11.0,0.0
4146,66.0,116,120,6.0,0.0
4147,59.0,3,330,12.0,0.0
4148,71.0,0,120,12.0,0.0
4149,74.0,1,240,2.0,0.0
4150,69.0,115,120,10.0,0.0
4151,74.0,142,330,2.0,0.0
4152,68.0,124,120,8.0,0.0
4153,66.0,108,120,6.0,0.0
4154,57.0,0,120,10.0,0.0
4155,56.0,49,480,8.0,0.0
4156,65.0,26,240,5.0,0.0
4157,74.0,138,120,2.0,0.0
4158,73.0,28,120,1.0,0.0
4159,59.0,18,270,12.0,0.0
4160,71.0,1471,150,12.0,0.0
4161,42.0,1,1470,6.0,0.0
4162,61.0,0,1470,1.0,0.0
4163,70.0,0,1470,11.0,0.0
4164,54.0,0,1470,6.0,0.0
4165,66.0,0,1470,6.0,0.0
