,note,step,duration,channel,velocity
0,62.0,96,180,0.0,0.0
1,60.0,96,90,0.0,0.0
2,65.0,96,90,0.0,0.0
3,59.0,96,90,0.0,0.0
4,58.0,96,90,0.0,0.0
5,57.0,96,90,0.0,0.0
6,62.0,24,90,0.0,0.0
7,57.0,24,20,0.0,0.0
8,55.0,24,20,0.0,0.0
9,57.0,24,20,0.0,0.0
10,55.0,24,20,0.0,0.0
11,57.0,24,20,0.0,0.0
12,55.0,24,20,0.0,0.0
13,53.0,24,20,0.0,0.0
14,55.0,96,20,0.0,0.0
15,53.0,96,90,0.0,0.0
16,55.0,48,90,0.0,0.0
17,57.0,48,60,0.0,0.0
18,55.0,96,60,0.0,0.0
19,57.0,96,90,0.0,0.0
20,50.0,96,90,0.0,0.0
21,62.0,96,90,0.0,0.0
22,60.0,96,90,0.0,0.0
23,59.0,96,90,0.0,0.0
24,60.0,96,90,0.0,0.0
25,65.0,96,90,0.0,0.0
26,64.0,96,90,0.0,0.0
27,57.0,0,180,0.0,0.0
28,63.0,96,90,0.0,0.0
29,55.0,96,90,0.0,0.0
30,64.0,0,180,0.0,0.0
31,60.0,96,90,0.0,0.0
32,54.0,48,90,0.0,0.0
33,62.0,0,60,0.0,0.0
34,53.0,0,90,0.0,0.0
35,60.0,48,60,0.0,0.0
36,59.0,96,60,0.0,0.0
37,52.0,96,90,0.0,0.0
38,60.0,24,180,0.0,0.0
39,57.0,0,90,0.0,0.0
40,52.0,24,20,0.0,0.0
41,50.0,24,20,0.0,0.0
42,52.0,24,20,0.0,0.0
43,59.0,0,60,0.0,0.0
44,50.0,24,20,0.0,0.0
45,57.0,0,60,0.0,0.0
46,52.0,24,20,0.0,0.0
47,50.0,24,20,0.0,0.0
48,48.0,24,20,0.0,0.0
49,56.0,0,60,0.0,0.0
50,50.0,48,20,0.0,0.0
51,57.0,48,60,0.0,0.0
52,48.0,48,90,0.0,0.0
53,60.0,0,60,0.0,0.0
54,59.0,48,60,0.0,0.0
55,50.0,48,90,0.0,0.0
56,62.0,0,60,0.0,0.0
57,56.0,48,60,0.0,0.0
58,52.0,0,60,0.0,0.0
59,50.0,0,60,0.0,0.0
60,65.0,48,60,0.0,0.0
61,52.0,48,90,0.0,0.0
62,64.0,48,60,0.0,0.0
63,62.0,0,60,0.0,0.0
64,60.0,48,60,0.0,0.0
65,45.0,0,90,0.0,0.0
66,59.0,48,60,0.0,0.0
67,55.0,0,90,0.0,0.0
68,60.0,48,60,0.0,0.0
69,64.0,48,60,0.0,0.0
70,53.0,0,90,0.0,0.0
71,69.0,48,60,0.0,0.0
72,62.0,48,60,0.0,0.0
73,61.0,48,60,0.0,0.0
74,52.0,0,90,0.0,0.0
75,64.0,48,60,0.0,0.0
76,62.0,48,60,0.0,0.0
77,53.0,48,90,0.0,0.0
78,65.0,0,60,0.0,0.0
79,58.0,48,90,0.0,0.0
80,64.0,48,60,0.0,0.0
81,67.0,0,60,0.0,0.0
82,74.0,0,180,0.0,0.0
83,65.0,48,60,0.0,0.0
84,57.0,48,90,0.0,0.0
85,60.0,0,60,0.0,0.0
86,59.0,48,60,0.0,0.0
87,56.0,0,90,0.0,0.0
88,65.0,96,60,0.0,0.0
89,64.0,0,90,0.0,0.0
90,57.0,0,180,0.0,0.0
91,72.0,96,90,0.0,0.0
92,77.0,0,90,0.0,0.0
93,60.0,96,90,0.0,0.0
94,71.0,48,90,0.0,0.0
95,62.0,0,90,0.0,0.0
96,55.0,0,60,0.0,0.0
97,53.0,48,60,0.0,0.0
98,67.0,96,90,0.0,0.0
99,70.0,0,90,0.0,0.0
100,52.0,0,60,0.0,0.0
101,53.0,0,180,0.0,0.0
102,60.0,0,90,0.0,0.0
103,69.0,96,90,0.0,0.0
104,57.0,24,90,0.0,0.0
105,74.0,0,90,0.0,0.0
106,59.0,24,90,0.0,0.0
107,69.0,24,20,0.0,0.0
108,67.0,24,20,0.0,0.0
109,69.0,24,20,0.0,0.0
110,52.0,0,60,0.0,0.0
111,67.0,0,20,0.0,0.0
112,69.0,24,20,0.0,0.0
113,64.0,48,90,0.0,0.0
114,50.0,0,60,0.0,0.0
115,67.0,24,20,0.0,0.0
116,65.0,24,20,0.0,0.0
117,49.0,0,60,0.0,0.0
118,67.0,0,20,0.0,0.0
119,50.0,0,180,0.0,0.0
120,65.0,0,90,0.0,0.0
121,57.0,48,60,0.0,0.0
122,60.0,48,60,0.0,0.0
123,67.0,48,90,0.0,0.0
124,58.0,48,60,0.0,0.0
125,62.0,0,60,0.0,0.0
126,69.0,48,60,0.0,0.0
127,67.0,0,60,0.0,0.0
128,48.0,48,60,0.0,0.0
129,46.0,48,60,0.0,0.0
130,69.0,0,90,0.0,0.0
131,45.0,48,60,0.0,0.0
132,60.0,0,15,0.0,0.0
133,62.0,48,90,0.0,0.0
134,46.0,0,180,0.0,0.0
135,58.0,0,60,0.0,0.0
136,57.0,48,60,0.0,0.0
137,74.0,0,90,0.0,0.0
138,55.0,48,60,0.0,0.0
139,48.0,0,180,0.0,0.0
140,57.0,48,60,0.0,0.0
141,72.0,48,90,0.0,0.0
142,53.0,0,60,0.0,0.0
143,55.0,48,60,0.0,0.0
144,70.0,0,90,0.0,0.0
145,52.0,48,60,0.0,0.0
146,69.0,0,90,0.0,0.0
147,41.0,0,60,0.0,0.0
148,53.0,48,60,0.0,0.0
149,72.0,0,60,0.0,0.0
150,45.0,48,60,0.0,0.0
151,70.0,0,60,0.0,0.0
152,43.0,48,60,0.0,0.0
153,77.0,48,90,0.0,0.0
154,69.0,0,60,0.0,0.0
155,41.0,0,60,0.0,0.0
156,70.0,48,60,0.0,0.0
157,76.0,48,90,0.0,0.0
158,43.0,0,60,0.0,0.0
159,67.0,0,60,0.0,0.0
160,40.0,0,60,0.0,0.0
161,74.0,0,90,0.0,0.0
162,41.0,0,60,0.0,0.0
163,69.0,48,60,0.0,0.0
164,38.0,0,60,0.0,0.0
165,65.0,48,60,0.0,0.0
166,73.0,0,180,0.0,0.0
167,64.0,48,90,0.0,0.0
168,45.0,48,60,0.0,0.0
169,55.0,0,60,0.0,0.0
170,70.0,0,90,0.0,0.0
171,53.0,48,60,0.0,0.0
172,52.0,48,60,0.0,0.0
173,69.0,0,90,0.0,0.0
174,53.0,48,60,0.0,0.0
175,50.0,48,60,0.0,0.0
176,67.0,48,90,0.0,0.0
177,52.0,0,60,0.0,0.0
178,73.0,24,60,0.0,0.0
179,49.0,0,60,0.0,0.0
180,74.0,24,20,0.0,0.0
181,76.0,0,20,0.0,0.0
182,69.0,48,60,0.0,0.0
183,65.0,48,90,0.0,0.0
184,50.0,0,390,0.0,0.0
185,74.0,0,60,0.0,0.0
186,52.0,0,90,0.0,0.0
187,72.0,48,60,0.0,0.0
188,70.0,48,60,0.0,0.0
189,54.0,0,90,0.0,0.0
190,72.0,48,60,0.0,0.0
191,69.0,48,60,0.0,0.0
192,70.0,48,60,0.0,0.0
193,55.0,0,90,0.0,0.0
194,67.0,48,60,0.0,0.0
195,55.0,48,60,0.0,0.0
196,49.0,48,90,0.0,0.0
197,67.0,0,60,0.0,0.0
198,57.0,0,90,0.0,0.0
199,65.0,48,60,0.0,0.0
200,64.0,48,60,0.0,0.0
201,65.0,48,60,0.0,0.0
202,50.0,48,90,0.0,0.0
203,62.0,0,60,0.0,0.0
204,64.0,48,60,0.0,0.0
205,53.0,48,90,0.0,0.0
206,61.0,0,60,0.0,0.0
207,62.0,0,390,0.0,0.0
208,69.0,0,15,0.0,0.0
209,46.0,0,90,0.0,0.0
210,69.0,48,60,0.0,0.0
211,67.0,48,60,0.0,0.0
212,45.0,48,90,0.0,0.0
213,65.0,0,60,0.0,0.0
214,67.0,48,60,0.0,0.0
215,46.0,0,90,0.0,0.0
216,64.0,48,60,0.0,0.0
217,65.0,48,60,0.0,0.0
218,43.0,24,90,0.0,0.0
219,74.0,0,60,0.0,0.0
220,65.0,24,20,0.0,0.0
221,45.0,48,60,0.0,0.0
222,62.0,0,90,0.0,0.0
223,64.0,0,20,0.0,0.0
224,65.0,0,60,0.0,0.0
225,57.0,48,60,0.0,0.0
226,64.0,0,90,0.0,0.0
227,55.0,48,60,0.0,0.0
228,61.0,0,90,0.0,0.0
229,53.0,48,60,0.0,0.0
230,69.0,0,180,0.0,0.0
231,55.0,48,60,0.0,0.0
232,73.0,48,60,0.0,0.0
233,52.0,0,60,0.0,0.0
234,53.0,48,60,0.0,0.0
235,50.0,0,60,0.0,0.0
236,74.0,48,15,0.0,0.0
237,67.0,48,90,0.0,0.0
238,52.0,0,180,0.0,0.0
239,71.0,0,60,0.0,0.0
240,72.0,0,90,0.0,0.0
241,69.0,48,60,0.0,0.0
242,67.0,48,60,0.0,0.0
243,50.0,0,90,0.0,0.0
244,69.0,48,60,0.0,0.0
245,66.0,0,90,0.0,0.0
246,72.0,96,60,0.0,0.0
247,55.0,0,90,0.0,0.0
248,65.0,48,90,0.0,0.0
249,71.0,0,90,0.0,0.0
250,49.0,48,90,0.0,0.0
251,64.0,0,90,0.0,0.0
252,71.0,48,60,0.0,0.0
253,68.0,0,60,0.0,0.0
254,66.0,48,60,0.0,0.0
255,69.0,0,90,0.0,0.0
256,48.0,24,90,0.0,0.0
257,64.0,0,60,0.0,0.0
258,47.0,0,90,0.0,0.0
259,66.0,0,60,0.0,0.0
260,64.0,24,20,0.0,0.0
261,62.0,24,20,0.0,0.0
262,69.0,24,60,0.0,0.0
263,64.0,24,20,0.0,0.0
264,62.0,0,20,0.0,0.0
265,52.0,0,90,0.0,0.0
266,64.0,24,20,0.0,0.0
267,68.0,24,60,0.0,0.0
268,62.0,0,20,0.0,0.0
269,60.0,24,20,0.0,0.0
270,71.0,0,60,0.0,0.0
271,62.0,48,20,0.0,0.0
272,45.0,0,180,0.0,0.0
273,60.0,0,90,0.0,0.0
274,69.0,48,60,0.0,0.0
275,72.0,48,60,0.0,0.0
276,62.0,48,90,0.0,0.0
277,71.0,48,60,0.0,0.0
278,74.0,0,60,0.0,0.0
279,64.0,48,60,0.0,0.0
280,62.0,48,60,0.0,0.0
281,57.0,48,60,0.0,0.0
282,64.0,0,90,0.0,0.0
283,55.0,48,60,0.0,0.0
284,72.0,0,15,0.0,0.0
285,57.0,0,90,0.0,0.0
286,75.0,48,60,0.0,0.0
287,54.0,0,15,0.0,0.0
288,50.0,0,90,0.0,0.0
289,74.0,48,60,0.0,0.0
290,72.0,0,60,0.0,0.0
291,52.0,0,90,0.0,0.0
292,74.0,48,60,0.0,0.0
293,55.0,48,90,0.0,0.0
294,70.0,0,60,0.0,0.0
295,72.0,48,60,0.0,0.0
296,54.0,0,90,0.0,0.0
297,57.0,0,90,0.0,0.0
298,69.0,48,60,0.0,0.0
299,57.0,48,60,0.0,0.0
300,43.0,0,90,0.0,0.0
301,70.0,0,390,0.0,0.0
302,69.0,48,60,0.0,0.0
303,45.0,0,90,0.0,0.0
304,67.0,48,60,0.0,0.0
305,66.0,48,60,0.0,0.0
306,46.0,48,90,0.0,0.0
307,67.0,48,60,0.0,0.0
308,64.0,0,60,0.0,0.0
309,65.0,48,60,0.0,0.0
310,43.0,0,90,0.0,0.0
311,62.0,48,60,0.0,0.0
312,70.0,48,60,0.0,0.0
313,48.0,48,90,0.0,0.0
314,64.0,0,90,0.0,0.0
315,74.0,0,60,0.0,0.0
316,72.0,48,60,0.0,0.0
317,65.0,48,90,0.0,0.0
318,50.0,0,90,0.0,0.0
319,70.0,0,60,0.0,0.0
320,52.0,48,90,0.0,0.0
321,72.0,48,60,0.0,0.0
322,67.0,0,90,0.0,0.0
323,69.0,0,60,0.0,0.0
324,48.0,0,90,0.0,0.0
325,70.0,48,60,0.0,0.0
326,64.0,48,90,0.0,0.0
327,67.0,0,60,0.0,0.0
328,69.0,0,90,0.0,0.0
329,65.0,0,90,0.0,0.0
330,41.0,48,60,0.0,0.0
331,55.0,48,60,0.0,0.0
332,74.0,0,90,0.0,0.0
333,69.0,48,90,0.0,0.0
334,53.0,48,60,0.0,0.0
335,52.0,0,60,0.0,0.0
336,68.0,0,90,0.0,0.0
337,53.0,48,60,0.0,0.0
338,50.0,48,60,0.0,0.0
339,59.0,0,60,0.0,0.0
340,61.0,0,60,0.0,0.0
341,67.0,0,90,0.0,0.0
342,52.0,48,60,0.0,0.0
343,64.0,0,60,0.0,0.0
344,49.0,48,60,0.0,0.0
345,57.0,48,90,0.0,0.0
346,50.0,48,60,0.0,0.0
347,51.0,0,60,0.0,0.0
348,50.0,48,60,0.0,0.0
349,65.0,0,15,0.0,0.0
350,70.0,0,90,0.0,0.0
351,48.0,48,60,0.0,0.0
352,64.0,0,90,0.0,0.0
353,50.0,48,60,0.0,0.0
354,55.0,48,60,0.0,0.0
355,46.0,0,60,0.0,0.0
356,48.0,0,60,0.0,0.0
357,57.0,48,60,0.0,0.0
358,63.0,0,90,0.0,0.0
359,45.0,0,60,0.0,0.0
360,60.0,48,60,0.0,0.0
361,46.0,48,60,0.0,0.0
362,53.0,0,90,0.0,0.0
363,48.0,0,60,0.0,0.0
364,46.0,48,60,0.0,0.0
365,62.0,48,15,0.0,0.0
366,67.0,0,90,0.0,0.0
367,45.0,48,60,0.0,0.0
368,61.0,0,90,0.0,0.0
369,46.0,48,60,0.0,0.0
370,52.0,48,60,0.0,0.0
371,43.0,0,60,0.0,0.0
372,60.0,0,90,0.0,0.0
373,45.0,48,60,0.0,0.0
374,54.0,0,60,0.0,0.0
375,57.0,48,60,0.0,0.0
376,42.0,0,60,0.0,0.0
377,43.0,0,390,0.0,0.0
378,50.0,0,90,0.0,0.0
379,60.0,48,15,0.0,0.0
380,54.0,48,90,0.0,0.0
381,58.0,48,60,0.0,0.0
382,57.0,0,60,0.0,0.0
383,58.0,48,60,0.0,0.0
384,55.0,0,90,0.0,0.0
385,62.0,48,60,0.0,0.0
386,57.0,48,90,0.0,0.0
387,60.0,48,60,0.0,0.0
388,63.0,0,60,0.0,0.0
389,43.0,0,390,0.0,0.0
390,62.0,48,60,0.0,0.0
391,58.0,0,90,0.0,0.0
392,69.0,48,60,0.0,0.0
393,57.0,48,90,0.0,0.0
394,67.0,48,60,0.0,0.0
395,66.0,0,60,0.0,0.0
396,67.0,48,60,0.0,0.0
397,58.0,0,90,0.0,0.0
398,70.0,48,60,0.0,0.0
399,69.0,48,60,0.0,0.0
400,60.0,0,90,0.0,0.0
401,72.0,48,60,0.0,0.0
402,43.0,0,60,0.0,0.0
403,62.0,48,60,0.0,0.0
404,70.0,48,180,0.0,0.0
405,65.0,0,60,0.0,0.0
406,45.0,48,60,0.0,0.0
407,64.0,48,60,0.0,0.0
408,43.0,0,60,0.0,0.0
409,41.0,0,60,0.0,0.0
410,62.0,0,60,0.0,0.0
411,61.0,0,90,0.0,0.0
412,43.0,48,60,0.0,0.0
413,70.0,0,60,0.0,0.0
414,67.0,48,60,0.0,0.0
415,40.0,0,60,0.0,0.0
416,69.0,0,60,0.0,0.0
417,41.0,48,60,0.0,0.0
418,62.0,0,90,0.0,0.0
419,65.0,48,60,0.0,0.0
420,38.0,0,60,0.0,0.0
421,37.0,48,60,0.0,0.0
422,64.0,0,60,0.0,0.0
423,67.0,48,180,0.0,0.0
424,62.0,48,60,0.0,0.0
425,46.0,0,60,0.0,0.0
426,45.0,0,60,0.0,0.0
427,61.0,48,60,0.0,0.0
428,43.0,0,60,0.0,0.0
429,59.0,0,60,0.0,0.0
430,61.0,0,90,0.0,0.0
431,45.0,48,60,0.0,0.0
432,41.0,48,60,0.0,0.0
433,64.0,0,90,0.0,0.0
434,73.0,48,90,0.0,0.0
435,43.0,48,60,0.0,0.0
436,40.0,0,60,0.0,0.0
437,41.0,48,90,0.0,0.0
438,69.0,0,90,0.0,0.0
439,74.0,48,60,0.0,0.0
440,67.0,0,60,0.0,0.0
441,45.0,0,90,0.0,0.0
442,49.0,48,90,0.0,0.0
443,65.0,48,60,0.0,0.0
444,64.0,0,60,0.0,0.0
445,50.0,48,90,0.0,0.0
446,65.0,48,60,0.0,0.0
447,69.0,0,60,0.0,0.0
448,58.0,0,90,0.0,0.0
449,67.0,48,60,0.0,0.0
450,70.0,0,60,0.0,0.0
451,69.0,48,60,0.0,0.0
452,52.0,0,90,0.0,0.0
453,48.0,0,90,0.0,0.0
454,64.0,48,60,0.0,0.0
455,53.0,48,90,0.0,0.0
456,57.0,48,180,0.0,0.0
457,62.0,48,60,0.0,0.0
458,61.0,0,60,0.0,0.0
459,62.0,48,60,0.0,0.0
460,47.0,0,90,0.0,0.0
461,65.0,0,60,0.0,0.0
462,55.0,0,90,0.0,0.0
463,46.0,48,90,0.0,0.0
464,64.0,48,60,0.0,0.0
465,67.0,0,60,0.0,0.0
466,48.0,0,90,0.0,0.0
467,65.0,48,60,0.0,0.0
468,45.0,0,90,0.0,0.0
469,60.0,48,60,0.0,0.0
470,59.0,48,60,0.0,0.0
471,50.0,24,90,0.0,0.0
472,53.0,0,180,0.0,0.0
473,57.0,0,60,0.0,0.0
474,59.0,24,60,0.0,0.0
475,45.0,24,20,0.0,0.0
476,43.0,0,20,0.0,0.0
477,45.0,24,20,0.0,0.0
478,62.0,0,60,0.0,0.0
479,43.0,24,20,0.0,0.0
480,45.0,24,20,0.0,0.0
481,52.0,48,90,0.0,0.0
482,61.0,0,60,0.0,0.0
483,43.0,24,20,0.0,0.0
484,64.0,0,60,0.0,0.0
485,41.0,24,20,0.0,0.0
486,43.0,0,20,0.0,0.0
487,41.0,0,90,0.0,0.0
488,57.0,48,90,0.0,0.0
489,62.0,48,60,0.0,0.0
490,65.0,0,60,0.0,0.0
491,43.0,0,90,0.0,0.0
492,64.0,48,60,0.0,0.0
493,67.0,48,60,0.0,0.0
494,45.0,48,60,0.0,0.0
495,65.0,0,60,0.0,0.0
496,64.0,48,60,0.0,0.0
497,43.0,0,60,0.0,0.0
498,45.0,0,90,0.0,0.0
499,62.0,48,60,0.0,0.0
500,55.0,192,90,0.0,0.0
501,61.0,0,60,0.0,0.0
502,53.0,0,180,0.0,0.0
503,38.0,0,180,0.0,0.0
504,62.0,192,180,0.0,0.0
505,74.0,48,180,0.0,0.0
506,70.0,0,90,0.0,0.0
507,70.0,48,60,0.0,0.0
508,72.0,48,90,0.0,0.0
509,68.0,0,60,0.0,0.0
510,69.0,48,60,0.0,0.0
511,77.0,0,90,0.0,0.0
512,71.0,48,90,0.0,0.0
513,69.0,48,15,0.0,0.0
514,66.0,0,60,0.0,0.0
515,67.0,48,60,0.0,0.0
516,70.0,0,90,0.0,0.0
517,69.0,48,90,0.0,0.0
518,67.0,48,15,0.0,0.0
519,64.0,0,60,0.0,0.0
520,74.0,24,90,0.0,0.0
521,65.0,48,60,0.0,0.0
522,65.0,0,15,0.0,0.0
523,69.0,24,20,0.0,0.0
524,67.0,24,20,0.0,0.0
525,64.0,0,60,0.0,0.0
526,69.0,24,20,0.0,0.0
527,67.0,24,20,0.0,0.0
528,62.0,0,60,0.0,0.0
529,69.0,24,20,0.0,0.0
530,67.0,24,20,0.0,0.0
531,61.0,96,60,0.0,0.0
532,65.0,24,20,0.0,0.0
533,67.0,0,20,0.0,0.0
534,62.0,0,300,0.0,0.0
535,65.0,0,90,0.0,0.0
536,58.0,48,60,0.0,0.0
537,57.0,48,60,0.0,0.0
538,67.0,0,90,0.0,0.0
539,55.0,48,60,0.0,0.0
540,69.0,48,60,0.0,0.0
541,54.0,0,60,0.0,0.0
542,55.0,0,60,0.0,0.0
543,67.0,48,60,0.0,0.0
544,52.0,48,60,0.0,0.0
545,69.0,48,90,0.0,0.0
546,60.0,0,90,0.0,0.0
547,54.0,0,60,0.0,0.0
548,55.0,48,90,0.0,0.0
549,60.0,48,60,0.0,0.0
550,62.0,0,180,0.0,0.0
551,60.0,0,60,0.0,0.0
552,58.0,48,60,0.0,0.0
553,50.0,48,90,0.0,0.0
554,57.0,0,60,0.0,0.0
555,58.0,48,60,0.0,0.0
556,55.0,0,180,0.0,0.0
557,62.0,48,60,0.0,0.0
558,60.0,48,60,0.0,0.0
559,58.0,0,60,0.0,0.0
560,57.0,48,90,0.0,0.0
561,75.0,48,15,0.0,0.0
562,53.0,0,90,0.0,0.0
563,73.0,0,60,0.0,0.0
564,58.0,0,90,0.0,0.0
565,74.0,48,15,0.0,0.0
566,52.0,48,90,0.0,0.0
567,67.0,0,180,0.0,0.0
568,74.0,48,15,0.0,0.0
569,71.0,0,60,0.0,0.0
570,51.0,0,90,0.0,0.0
571,72.0,48,15,0.0,0.0
572,72.0,48,15,0.0,0.0
573,50.0,48,90,0.0,0.0
574,65.0,0,90,0.0,0.0
575,69.0,0,60,0.0,0.0
576,70.0,48,60,0.0,0.0
577,62.0,24,90,0.0,0.0
578,55.0,0,90,0.0,0.0
579,70.0,0,60,0.0,0.0
580,70.0,24,60,0.0,0.0
581,50.0,24,20,0.0,0.0
582,63.0,0,180,0.0,0.0
583,48.0,0,20,0.0,0.0
584,50.0,24,20,0.0,0.0
585,69.0,0,60,0.0,0.0
586,48.0,24,20,0.0,0.0
587,67.0,24,60,0.0,0.0
588,50.0,24,20,0.0,0.0
589,48.0,0,20,0.0,0.0
590,66.0,0,60,0.0,0.0
591,46.0,24,20,0.0,0.0
592,48.0,48,20,0.0,0.0
593,46.0,0,90,0.0,0.0
594,63.0,48,60,0.0,0.0
595,67.0,48,300,0.0,0.0
596,62.0,48,60,0.0,0.0
597,48.0,0,90,0.0,0.0
598,60.0,48,60,0.0,0.0
599,58.0,48,60,0.0,0.0
600,57.0,48,60,0.0,0.0
601,50.0,0,60,0.0,0.0
602,48.0,0,60,0.0,0.0
603,58.0,0,60,0.0,0.0
604,55.0,48,60,0.0,0.0
605,50.0,0,90,0.0,0.0
606,57.0,0,60,0.0,0.0
607,59.0,48,90,0.0,0.0
608,65.0,48,15,0.0,0.0
609,43.0,48,180,0.0,0.0
610,67.0,0,60,0.0,0.0
611,60.0,0,180,0.0,0.0
612,65.0,48,60,0.0,0.0
613,63.0,0,60,0.0,0.0
614,62.0,48,60,0.0,0.0
615,63.0,48,60,0.0,0.0
616,60.0,48,60,0.0,0.0
617,55.0,48,90,0.0,0.0
618,62.0,0,60,0.0,0.0
619,64.0,48,60,0.0,0.0
620,58.0,0,15,0.0,0.0
621,48.0,0,180,0.0,0.0
622,72.0,48,60,0.0,0.0
623,57.0,0,60,0.0,0.0
624,55.0,48,60,0.0,0.0
625,70.0,0,60,0.0,0.0
626,53.0,0,60,0.0,0.0
627,69.0,48,60,0.0,0.0
628,52.0,48,60,0.0,0.0
629,67.0,0,60,0.0,0.0
630,69.0,48,60,0.0,0.0
631,53.0,0,60,0.0,0.0
632,65.0,48,60,0.0,0.0
633,50.0,0,60,0.0,0.0
634,48.0,0,90,0.0,0.0
635,67.0,0,60,0.0,0.0
636,52.0,48,60,0.0,0.0
637,69.0,48,60,0.0,0.0
638,41.0,48,180,0.0,0.0
639,53.0,0,90,0.0,0.0
640,67.0,48,60,0.0,0.0
641,65.0,48,60,0.0,0.0
642,64.0,0,60,0.0,0.0
643,69.0,0,180,0.0,0.0
644,62.0,48,60,0.0,0.0
645,64.0,48,60,0.0,0.0
646,60.0,48,60,0.0,0.0
647,62.0,48,60,0.0,0.0
648,53.0,0,15,0.0,0.0
649,59.0,48,90,0.0,0.0
650,51.0,0,60,0.0,0.0
651,72.0,48,90,0.0,0.0
652,67.0,0,15,0.0,0.0
653,52.0,48,15,0.0,0.0
654,66.0,0,90,0.0,0.0
655,69.0,0,90,0.0,0.0
656,52.0,48,60,0.0,0.0
657,49.0,48,60,0.0,0.0
658,70.0,48,90,0.0,0.0
659,65.0,0,90,0.0,0.0
660,50.0,48,15,0.0,0.0
661,68.0,0,90,0.0,0.0
662,64.0,0,90,0.0,0.0
663,50.0,0,15,0.0,0.0
664,47.0,48,60,0.0,0.0
665,76.0,24,90,0.0,0.0
666,69.0,0,90,0.0,0.0
667,48.0,48,15,0.0,0.0
668,48.0,0,60,0.0,0.0
669,64.0,24,20,0.0,0.0
670,62.0,24,20,0.0,0.0
671,47.0,24,60,0.0,0.0
672,64.0,24,20,0.0,0.0
673,62.0,0,20,0.0,0.0
674,64.0,24,20,0.0,0.0
675,45.0,24,60,0.0,0.0
676,62.0,0,20,0.0,0.0
677,60.0,24,20,0.0,0.0
678,44.0,96,60,0.0,0.0
679,62.0,0,20,0.0,0.0
680,60.0,48,90,0.0,0.0
681,45.0,0,180,0.0,0.0
682,76.0,0,60,0.0,0.0
683,62.0,48,90,0.0,0.0
684,74.0,48,60,0.0,0.0
685,72.0,0,60,0.0,0.0
686,71.0,48,60,0.0,0.0
687,64.0,0,60,0.0,0.0
688,62.0,0,60,0.0,0.0
689,72.0,48,60,0.0,0.0
690,64.0,0,90,0.0,0.0
691,69.0,48,60,0.0,0.0
692,71.0,0,60,0.0,0.0
693,73.0,0,90,0.0,0.0
694,55.0,48,15,0.0,0.0
695,57.0,48,180,0.0,0.0
696,53.0,48,60,0.0,0.0
697,74.0,0,90,0.0,0.0
698,52.0,48,60,0.0,0.0
699,50.0,0,60,0.0,0.0
700,76.0,48,60,0.0,0.0
701,49.0,0,60,0.0,0.0
702,50.0,0,60,0.0,0.0
703,74.0,48,60,0.0,0.0
704,47.0,48,60,0.0,0.0
705,55.0,0,90,0.0,0.0
706,76.0,48,90,0.0,0.0
707,49.0,0,60,0.0,0.0
708,50.0,48,180,0.0,0.0
709,55.0,48,60,0.0,0.0
710,69.0,48,90,0.0,0.0
711,53.0,0,60,0.0,0.0
712,55.0,48,60,0.0,0.0
713,70.0,0,60,0.0,0.0
714,57.0,0,60,0.0,0.0
715,69.0,0,60,0.0,0.0
716,67.0,0,60,0.0,0.0
717,58.0,48,60,0.0,0.0
718,65.0,48,60,0.0,0.0
719,57.0,0,60,0.0,0.0
720,60.0,48,60,0.0,0.0
721,52.0,0,90,0.0,0.0
722,67.0,48,90,0.0,0.0
723,58.0,0,60,0.0,0.0
724,67.0,48,60,0.0,0.0
725,53.0,0,90,0.0,0.0
726,57.0,0,180,0.0,0.0
727,60.0,48,60,0.0,0.0
728,41.0,48,60,0.0,0.0
729,62.0,0,60,0.0,0.0
730,64.0,0,60,0.0,0.0
731,43.0,48,60,0.0,0.0
732,65.0,48,60,0.0,0.0
733,45.0,48,90,0.0,0.0
734,64.0,0,60,0.0,0.0
735,47.0,48,90,0.0,0.0
736,62.0,0,90,0.0,0.0
737,67.0,48,60,0.0,0.0
738,65.0,0,60,0.0,0.0
739,62.0,48,60,0.0,0.0
740,48.0,0,90,0.0,0.0
741,64.0,48,180,0.0,0.0
742,55.0,48,60,0.0,0.0
743,46.0,0,90,0.0,0.0
744,57.0,48,60,0.0,0.0
745,58.0,0,60,0.0,0.0
746,45.0,0,90,0.0,0.0
747,60.0,48,60,0.0,0.0
748,58.0,48,60,0.0,0.0
749,62.0,48,60,0.0,0.0
750,69.0,0,90,0.0,0.0
751,54.0,0,90,0.0,0.0
752,60.0,48,60,0.0,0.0
753,69.0,48,60,0.0,0.0
754,43.0,0,60,0.0,0.0
755,58.0,0,180,0.0,0.0
756,53.0,48,60,0.0,0.0
757,62.0,0,60,0.0,0.0
758,52.0,48,60,0.0,0.0
759,64.0,0,60,0.0,0.0
760,50.0,0,60,0.0,0.0
761,65.0,48,60,0.0,0.0
762,49.0,48,60,0.0,0.0
763,67.0,0,60,0.0,0.0
764,50.0,0,60,0.0,0.0
765,65.0,48,60,0.0,0.0
766,69.0,48,60,0.0,0.0
767,47.0,0,60,0.0,0.0
768,64.0,0,90,0.0,0.0
769,49.0,0,60,0.0,0.0
770,67.0,48,60,0.0,0.0
771,50.0,0,60,0.0,0.0
772,64.0,48,60,0.0,0.0
773,61.0,0,60,0.0,0.0
774,52.0,48,60,0.0,0.0
775,53.0,0,60,0.0,0.0
776,62.0,48,60,0.0,0.0
777,55.0,48,60,0.0,0.0
778,64.0,0,60,0.0,0.0
779,65.0,0,15,0.0,0.0
780,57.0,0,60,0.0,0.0
781,64.0,0,60,0.0,0.0
782,55.0,48,60,0.0,0.0
783,74.0,0,90,0.0,0.0
784,58.0,48,60,0.0,0.0
785,67.0,0,60,0.0,0.0
786,57.0,0,60,0.0,0.0
787,65.0,48,60,0.0,0.0
788,74.0,0,90,0.0,0.0
789,55.0,48,60,0.0,0.0
790,64.0,0,180,0.0,0.0
791,53.0,48,60,0.0,0.0
792,72.0,0,180,0.0,0.0
793,57.0,48,60,0.0,0.0
794,55.0,48,60,0.0,0.0
795,62.0,0,180,0.0,0.0
796,53.0,48,60,0.0,0.0
797,52.0,48,60,0.0,0.0
798,55.0,48,60,0.0,0.0
799,53.0,0,60,0.0,0.0
800,60.0,0,90,0.0,0.0
801,70.0,48,15,0.0,0.0
802,52.0,48,60,0.0,0.0
803,53.0,0,60,0.0,0.0
804,55.0,48,60,0.0,0.0
805,65.0,0,180,0.0,0.0
806,69.0,0,90,0.0,0.0
807,57.0,48,60,0.0,0.0
808,58.0,48,60,0.0,0.0
809,67.0,0,180,0.0,0.0
810,57.0,48,60,0.0,0.0
811,64.0,0,90,0.0,0.0
812,60.0,48,60,0.0,0.0
813,58.0,48,60,0.0,0.0
814,57.0,48,60,0.0,0.0
815,65.0,0,60,0.0,0.0
816,72.0,0,60,0.0,0.0
817,55.0,48,60,0.0,0.0
818,74.0,48,60,0.0,0.0
819,53.0,0,60,0.0,0.0
820,52.0,0,60,0.0,0.0
821,76.0,48,60,0.0,0.0
822,50.0,48,60,0.0,0.0
823,77.0,0,180,0.0,0.0
824,57.0,48,60,0.0,0.0
825,48.0,48,60,0.0,0.0
826,47.0,0,60,0.0,0.0
827,74.0,48,15,0.0,0.0
828,76.0,48,90,0.0,0.0
829,71.0,0,60,0.0,0.0
830,81.0,0,90,0.0,0.0
831,72.0,48,15,0.0,0.0
832,72.0,48,15,0.0,0.0
833,74.0,48,90,0.0,0.0
834,69.0,0,60,0.0,0.0
835,73.0,48,90,0.0,0.0
836,70.0,48,15,0.0,0.0
837,48.0,0,15,0.0,0.0
838,70.0,0,15,0.0,0.0
839,72.0,0,90,0.0,0.0
840,68.0,48,60,0.0,0.0
841,77.0,24,90,0.0,0.0
842,69.0,48,60,0.0,0.0
843,69.0,0,60,0.0,0.0
844,69.0,24,60,0.0,0.0
845,72.0,24,20,0.0,0.0
846,70.0,0,20,0.0,0.0
847,72.0,24,20,0.0,0.0
848,67.0,0,60,0.0,0.0
849,70.0,24,20,0.0,0.0
850,65.0,0,60,0.0,0.0
851,72.0,24,20,0.0,0.0
852,49.0,0,90,0.0,0.0
853,70.0,24,20,0.0,0.0
854,64.0,0,60,0.0,0.0
855,69.0,24,20,0.0,0.0
856,70.0,48,20,0.0,0.0
857,50.0,48,60,0.0,0.0
858,69.0,48,90,0.0,0.0
859,65.0,0,300,0.0,0.0
860,62.0,0,60,0.0,0.0
861,60.0,48,60,0.0,0.0
862,70.0,0,90,0.0,0.0
863,58.0,48,60,0.0,0.0
864,72.0,0,60,0.0,0.0
865,57.0,48,60,0.0,0.0
866,58.0,0,60,0.0,0.0
867,70.0,48,60,0.0,0.0
868,72.0,48,90,0.0,0.0
869,55.0,48,60,0.0,0.0
870,63.0,0,90,0.0,0.0
871,57.0,0,60,0.0,0.0
872,58.0,0,60,0.0,0.0
873,63.0,48,60,0.0,0.0
874,65.0,0,90,0.0,0.0
875,57.0,48,60,0.0,0.0
876,62.0,0,60,0.0,0.0
877,55.0,0,60,0.0,0.0
878,64.0,48,60,0.0,0.0
879,65.0,48,60,0.0,0.0
880,53.0,0,60,0.0,0.0
881,67.0,48,60,0.0,0.0
882,52.0,0,60,0.0,0.0
883,53.0,48,60,0.0,0.0
884,65.0,0,60,0.0,0.0
885,70.0,48,90,0.0,0.0
886,50.0,48,60,0.0,0.0
887,67.0,0,90,0.0,0.0
888,52.0,0,60,0.0,0.0
889,60.0,48,90,0.0,0.0
890,53.0,48,60,0.0,0.0
891,70.0,0,60,0.0,0.0
892,52.0,0,60,0.0,0.0
893,69.0,0,60,0.0,0.0
894,50.0,0,60,0.0,0.0
895,62.0,48,60,0.0,0.0
896,71.0,0,60,0.0,0.0
897,48.0,0,60,0.0,0.0
898,64.0,48,60,0.0,0.0
899,72.0,0,60,0.0,0.0
900,74.0,48,60,0.0,0.0
901,47.0,0,60,0.0,0.0
902,65.0,0,60,0.0,0.0
903,64.0,0,60,0.0,0.0
904,48.0,48,60,0.0,0.0
905,72.0,0,60,0.0,0.0
906,45.0,48,60,0.0,0.0
907,65.0,0,90,0.0,0.0
908,74.0,0,90,0.0,0.0
909,47.0,48,60,0.0,0.0
910,64.0,0,90,0.0,0.0
911,67.0,0,60,0.0,0.0
912,48.0,48,60,0.0,0.0
913,50.0,0,60,0.0,0.0
914,71.0,48,60,0.0,0.0
915,52.0,48,60,0.0,0.0
916,72.0,0,60,0.0,0.0
917,74.0,48,60,0.0,0.0
918,53.0,0,60,0.0,0.0
919,76.0,48,60,0.0,0.0
920,55.0,0,60,0.0,0.0
921,57.0,0,60,0.0,0.0
922,77.0,48,60,0.0,0.0
923,58.0,48,60,0.0,0.0
924,79.0,0,60,0.0,0.0
925,62.0,48,90,0.0,0.0
926,55.0,0,60,0.0,0.0
927,79.0,0,60,0.0,0.0
928,79.0,48,60,0.0,0.0
929,60.0,0,90,0.0,0.0
930,57.0,48,90,0.0,0.0
931,76.0,0,60,0.0,0.0
932,77.0,48,60,0.0,0.0
933,69.0,0,90,0.0,0.0
934,62.0,48,90,0.0,0.0
935,77.0,0,60,0.0,0.0
936,70.0,48,90,0.0,0.0
937,55.0,0,90,0.0,0.0
938,77.0,48,60,0.0,0.0
939,74.0,0,60,0.0,0.0
940,54.0,48,90,0.0,0.0
941,58.0,0,90,0.0,0.0
942,75.0,48,15,0.0,0.0
943,57.0,0,90,0.0,0.0
944,53.0,0,90,0.0,0.0
945,75.0,48,60,0.0,0.0
946,73.0,48,60,0.0,0.0
947,58.0,0,90,0.0,0.0
948,65.0,24,90,0.0,0.0
949,74.0,48,60,0.0,0.0
950,74.0,0,15,0.0,0.0
951,67.0,0,90,0.0,0.0
952,53.0,24,20,0.0,0.0
953,51.0,0,20,0.0,0.0
954,72.0,24,60,0.0,0.0
955,53.0,24,20,0.0,0.0
956,51.0,0,20,0.0,0.0
957,53.0,24,20,0.0,0.0
958,70.0,24,60,0.0,0.0
959,55.0,48,90,0.0,0.0
960,51.0,0,20,0.0,0.0
961,50.0,24,20,0.0,0.0
962,69.0,0,60,0.0,0.0
963,51.0,0,20,0.0,0.0
964,50.0,48,90,0.0,0.0
965,70.0,48,60,0.0,0.0
966,53.0,0,60,0.0,0.0
967,65.0,0,60,0.0,0.0
968,70.0,48,180,0.0,0.0
969,63.0,48,60,0.0,0.0
970,51.0,0,90,0.0,0.0
971,62.0,48,60,0.0,0.0
972,53.0,48,60,0.0,0.0
973,60.0,0,60,0.0,0.0
974,51.0,0,60,0.0,0.0
975,62.0,0,60,0.0,0.0
976,69.0,0,90,0.0,0.0
977,58.0,48,60,0.0,0.0
978,53.0,48,90,0.0,0.0
979,60.0,0,60,0.0,0.0
980,70.0,48,60,0.0,0.0
981,46.0,48,90,0.0,0.0
982,62.0,48,180,0.0,0.0
983,77.0,0,60,0.0,0.0
984,75.0,48,60,0.0,0.0
985,58.0,48,180,0.0,0.0
986,74.0,0,60,0.0,0.0
987,72.0,48,60,0.0,0.0
988,74.0,0,60,0.0,0.0
989,57.0,0,90,0.0,0.0
990,70.0,48,60,0.0,0.0
991,72.0,48,60,0.0,0.0
992,58.0,48,60,0.0,0.0
993,74.0,0,90,0.0,0.0
994,55.0,48,60,0.0,0.0
995,79.0,0,180,0.0,0.0
996,57.0,48,60,0.0,0.0
997,70.0,0,90,0.0,0.0
998,58.0,48,60,0.0,0.0
999,69.0,0,180,0.0,0.0
1000,60.0,48,60,0.0,0.0
1001,58.0,48,60,0.0,0.0
1002,62.0,48,60,0.0,0.0
1003,78.0,48,90,0.0,0.0
1004,60.0,0,60,0.0,0.0
1005,58.0,48,90,0.0,0.0
1006,79.0,48,60,0.0,0.0
1007,62.0,0,90,0.0,0.0
1008,74.0,0,60,0.0,0.0
1009,72.0,48,60,0.0,0.0
1010,63.0,48,90,0.0,0.0
1011,70.0,0,60,0.0,0.0
1012,69.0,48,60,0.0,0.0
1013,60.0,48,90,0.0,0.0
1014,70.0,0,60,0.0,0.0
1015,62.0,0,90,0.0,0.0
1016,67.0,0,15,0.0,0.0
1017,66.0,48,90,0.0,0.0
1018,69.0,0,60,0.0,0.0
1019,67.0,48,60,0.0,0.0
1020,55.0,48,90,0.0,0.0
1021,70.0,0,180,0.0,0.0
1022,62.0,0,60,0.0,0.0
1023,51.0,0,90,0.0,0.0
1024,67.0,48,60,0.0,0.0
1025,69.0,0,180,0.0,0.0
1026,49.0,48,90,0.0,0.0
1027,67.0,48,15,0.0,0.0
1028,64.0,0,60,0.0,0.0
1029,50.0,48,90,0.0,0.0
1030,65.0,48,60,0.0,0.0
1031,65.0,0,60,0.0,0.0
1032,74.0,48,90,0.0,0.0
1033,47.0,0,90,0.0,0.0
1034,65.0,48,60,0.0,0.0
1035,62.0,0,60,0.0,0.0
1036,67.0,0,90,0.0,0.0
1037,48.0,48,90,0.0,0.0
1038,63.0,48,60,0.0,0.0
1039,63.0,0,60,0.0,0.0
1040,65.0,48,180,0.0,0.0
1041,45.0,0,90,0.0,0.0
1042,63.0,48,60,0.0,0.0
1043,61.0,48,60,0.0,0.0
1044,46.0,0,90,0.0,0.0
1045,62.0,48,15,0.0,0.0
1046,62.0,0,15,0.0,0.0
1047,43.0,0,90,0.0,0.0
1048,63.0,48,180,0.0,0.0
1049,59.0,48,60,0.0,0.0
1050,44.0,0,90,0.0,0.0
1051,60.0,48,15,0.0,0.0
1052,62.0,0,90,0.0,0.0
1053,60.0,48,60,0.0,0.0
1054,42.0,0,90,0.0,0.0
1055,58.0,48,60,0.0,0.0
1056,43.0,0,90,0.0,0.0
1057,57.0,48,60,0.0,0.0
1058,63.0,0,90,0.0,0.0
1059,55.0,48,60,0.0,0.0
1060,61.0,0,90,0.0,0.0
1061,57.0,0,180,0.0,0.0
1062,43.0,48,60,0.0,0.0
1063,40.0,48,60,0.0,0.0
1064,62.0,0,90,0.0,0.0
1065,41.0,48,15,0.0,0.0
1066,59.0,48,90,0.0,0.0
1067,41.0,48,60,0.0,0.0
1068,38.0,0,60,0.0,0.0
1069,40.0,48,60,0.0,0.0
1070,61.0,0,90,0.0,0.0
1071,40.0,48,60,0.0,0.0
1072,62.0,0,60,0.0,0.0
1073,67.0,0,15,0.0,0.0
1074,38.0,48,180,0.0,0.0
1075,64.0,48,60,0.0,0.0
1076,57.0,0,60,0.0,0.0
1077,62.0,48,150,0.0,0.0
1078,65.0,48,15,0.0,0.0
1079,64.0,48,90,0.0,0.0
1080,59.0,0,60,0.0,0.0
1081,69.0,0,90,0.0,0.0
1082,60.0,48,15,0.0,0.0
1083,60.0,48,60,0.0,0.0
1084,74.0,0,150,0.0,0.0
1085,57.0,48,60,0.0,0.0
1086,55.0,48,150,0.0,0.0
1087,58.0,48,15,0.0,0.0
1088,76.0,48,60,0.0,0.0
1089,57.0,0,90,0.0,0.0
1090,73.0,48,90,0.0,0.0
1091,52.0,0,60,0.0,0.0
1092,74.0,48,90,0.0,0.0
1093,69.0,0,90,0.0,0.0
1094,53.0,48,15,0.0,0.0
1095,67.0,0,90,0.0,0.0
1096,53.0,48,60,0.0,0.0
1097,71.0,0,90,0.0,0.0
1098,51.0,48,60,0.0,0.0
1099,72.0,0,90,0.0,0.0
1100,52.0,48,15,0.0,0.0
1101,52.0,48,60,0.0,0.0
1102,66.0,0,90,0.0,0.0
1103,49.0,48,60,0.0,0.0
1104,65.0,0,90,0.0,0.0
1105,70.0,0,90,0.0,0.0
1106,50.0,48,15,0.0,0.0
1107,68.0,0,90,0.0,0.0
1108,64.0,0,90,0.0,0.0
1109,50.0,48,15,0.0,0.0
1110,47.0,48,60,0.0,0.0
1111,69.0,0,90,0.0,0.0
1112,48.0,48,60,0.0,0.0
1113,48.0,0,15,0.0,0.0
1114,62.0,48,90,0.0,0.0
1115,47.0,0,60,0.0,0.0
1116,45.0,48,60,0.0,0.0
1117,71.0,0,90,0.0,0.0
1118,74.0,48,90,0.0,0.0
1119,44.0,0,60,0.0,0.0
1120,72.0,48,90,0.0,0.0
1121,71.0,48,60,0.0,0.0
1122,45.0,48,180,0.0,0.0
1123,68.0,0,60,0.0,0.0
1124,77.0,0,90,0.0,0.0
1125,69.0,48,15,0.0,0.0
1126,69.0,48,60,0.0,0.0
1127,71.0,0,90,0.0,0.0
1128,66.0,48,60,0.0,0.0
1129,70.0,48,90,0.0,0.0
1130,50.0,0,90,0.0,0.0
1131,67.0,48,15,0.0,0.0
1132,69.0,0,90,0.0,0.0
1133,67.0,0,15,0.0,0.0
1134,49.0,0,90,0.0,0.0
1135,64.0,48,60,0.0,0.0
1136,74.0,0,90,0.0,0.0
1137,65.0,48,60,0.0,0.0
1138,48.0,0,90,0.0,0.0
1139,47.0,24,90,0.0,0.0
1140,69.0,24,20,0.0,0.0
1141,65.0,24,15,0.0,0.0
1142,67.0,0,20,0.0,0.0
1143,69.0,24,20,0.0,0.0
1144,63.0,0,60,0.0,0.0
1145,67.0,0,20,0.0,0.0
1146,69.0,24,20,0.0,0.0
1147,62.0,0,60,0.0,0.0
1148,48.0,48,90,0.0,0.0
1149,67.0,24,20,0.0,0.0
1150,60.0,0,60,0.0,0.0
1151,66.0,24,20,0.0,0.0
1152,67.0,0,20,0.0,0.0
1153,66.0,48,90,0.0,0.0
1154,48.0,48,60,0.0,0.0
1155,62.0,48,180,0.0,0.0
1156,46.0,0,60,0.0,0.0
1157,45.0,48,60,0.0,0.0
1158,67.0,0,90,0.0,0.0
1159,43.0,0,60,0.0,0.0
1160,42.0,0,60,0.0,0.0
1161,69.0,48,60,0.0,0.0
1162,43.0,0,60,0.0,0.0
1163,67.0,48,60,0.0,0.0
1164,40.0,48,60,0.0,0.0
1165,69.0,0,90,0.0,0.0
1166,42.0,48,60,0.0,0.0
1167,43.0,0,90,0.0,0.0
1168,60.0,0,15,0.0,0.0
1169,62.0,48,60,0.0,0.0
1170,64.0,48,60,0.0,0.0
1171,58.0,48,90,0.0,0.0
1172,66.0,48,60,0.0,0.0
1173,55.0,0,180,0.0,0.0
1174,67.0,0,60,0.0,0.0
1175,60.0,0,90,0.0,0.0
1176,69.0,48,60,0.0,0.0
1177,67.0,48,60,0.0,0.0
1178,54.0,0,90,0.0,0.0
1179,62.0,48,90,0.0,0.0
1180,70.0,48,60,0.0,0.0
1181,69.0,0,60,0.0,0.0
1182,72.0,48,60,0.0,0.0
1183,55.0,0,90,0.0,0.0
1184,71.0,0,60,0.0,0.0
1185,59.0,0,90,0.0,0.0
1186,74.0,48,60,0.0,0.0
1187,53.0,0,90,0.0,0.0
1188,73.0,48,60,0.0,0.0
1189,61.0,0,90,0.0,0.0
1190,76.0,48,60,0.0,0.0
1191,52.0,48,90,0.0,0.0
1192,74.0,0,60,0.0,0.0
1193,77.0,48,60,0.0,0.0
1194,62.0,48,90,0.0,0.0
1195,50.0,0,90,0.0,0.0
1196,76.0,0,60,0.0,0.0
1197,79.0,0,60,0.0,0.0
1198,57.0,48,60,0.0,0.0
1199,49.0,0,60,0.0,0.0
1200,58.0,0,60,0.0,0.0
1201,74.0,48,60,0.0,0.0
1202,57.0,0,60,0.0,0.0
1203,73.0,48,60,0.0,0.0
1204,76.0,48,60,0.0,0.0
1205,55.0,0,60,0.0,0.0
1206,53.0,48,60,0.0,0.0
1207,69.0,0,90,0.0,0.0
1208,55.0,48,60,0.0,0.0
1209,79.0,0,90,0.0,0.0
1210,52.0,48,60,0.0,0.0
1211,73.0,48,90,0.0,0.0
1212,53.0,0,60,0.0,0.0
1213,74.0,0,90,0.0,0.0
1214,77.0,48,90,0.0,0.0
1215,50.0,48,60,0.0,0.0
1216,52.0,0,60,0.0,0.0
1217,81.0,48,90,0.0,0.0
1218,48.0,48,60,0.0,0.0
1219,50.0,0,60,0.0,0.0
1220,74.0,48,60,0.0,0.0
1221,46.0,0,60,0.0,0.0
1222,48.0,0,60,0.0,0.0
1223,76.0,48,60,0.0,0.0
1224,72.0,0,90,0.0,0.0
1225,45.0,0,60,0.0,0.0
1226,46.0,48,60,0.0,0.0
1227,77.0,48,15,0.0,0.0
1228,77.0,0,60,0.0,0.0
1229,43.0,48,90,0.0,0.0
1230,70.0,48,15,0.0,0.0
1231,75.0,0,60,0.0,0.0
1232,76.0,0,60,0.0,0.0
1233,48.0,0,90,0.0,0.0
1234,70.0,48,60,0.0,0.0
1235,76.0,48,60,0.0,0.0
1236,67.0,0,60,0.0,0.0
1237,42.0,48,90,0.0,0.0
1238,69.0,0,60,0.0,0.0
1239,76.0,48,60,0.0,0.0
1240,69.0,0,60,0.0,0.0
1241,73.0,0,60,0.0,0.0
1242,41.0,0,90,0.0,0.0
1243,69.0,0,60,0.0,0.0
1244,65.0,0,60,0.0,0.0
1245,74.0,48,15,0.0,0.0
1246,40.0,0,90,0.0,0.0
1247,74.0,48,15,0.0,0.0
1248,67.0,0,15,0.0,0.0
1249,71.0,48,60,0.0,0.0
1250,45.0,48,90,0.0,0.0
1251,67.0,48,60,0.0,0.0
1252,72.0,0,15,0.0,0.0
1253,64.0,0,60,0.0,0.0
1254,65.0,0,90,0.0,0.0
1255,72.0,48,60,0.0,0.0
1256,38.0,0,90,0.0,0.0
1257,69.0,24,60,0.0,0.0
1258,55.0,24,20,0.0,0.0
1259,62.0,0,60,0.0,0.0
1260,53.0,0,20,0.0,0.0
1261,52.0,24,20,0.0,0.0
1262,67.0,0,60,0.0,0.0
1263,70.0,24,15,0.0,0.0
1264,50.0,24,20,0.0,0.0
1265,49.0,24,20,0.0,0.0
1266,70.0,24,60,0.0,0.0
1267,64.0,0,90,0.0,0.0
1268,50.0,0,20,0.0,0.0
1269,52.0,24,20,0.0,0.0
1270,67.0,24,60,0.0,0.0
1271,53.0,0,20,0.0,0.0
1272,52.0,24,20,0.0,0.0
1273,73.0,24,60,0.0,0.0
1274,50.0,0,20,0.0,0.0
1275,49.0,24,20,0.0,0.0
1276,47.0,0,20,0.0,0.0
1277,45.0,24,20,0.0,0.0
1278,73.0,24,15,0.0,0.0
1279,47.0,24,20,0.0,0.0
1280,49.0,24,20,0.0,0.0
1281,50.0,0,20,0.0,0.0
1282,49.0,24,20,0.0,0.0
1283,67.0,24,15,0.0,0.0
1284,76.0,0,60,0.0,0.0
1285,47.0,24,20,0.0,0.0
1286,45.0,24,20,0.0,0.0
1287,67.0,0,15,0.0,0.0
1288,43.0,0,20,0.0,0.0
1289,41.0,0,90,0.0,0.0
1290,76.0,48,15,0.0,0.0
1291,67.0,48,60,0.0,0.0
1292,64.0,0,60,0.0,0.0
1293,73.0,48,60,0.0,0.0
1294,65.0,0,90,0.0,0.0
1295,74.0,24,90,0.0,0.0
1296,38.0,24,20,0.0,0.0
1297,41.0,24,20,0.0,0.0
1298,45.0,0,20,0.0,0.0
1299,48.0,24,20,0.0,0.0
1300,46.0,0,20,0.0,0.0
1301,72.0,24,20,0.0,0.0
1302,70.0,24,20,0.0,0.0
1303,48.0,0,20,0.0,0.0
1304,46.0,0,20,0.0,0.0
1305,69.0,24,20,0.0,0.0
1306,48.0,24,20,0.0,0.0
1307,67.0,0,20,0.0,0.0
1308,77.0,0,20,0.0,0.0
1309,46.0,24,20,0.0,0.0
1310,76.0,0,20,0.0,0.0
1311,45.0,24,20,0.0,0.0
1312,74.0,0,20,0.0,0.0
1313,46.0,0,20,0.0,0.0
1314,73.0,0,180,0.0,0.0
1315,45.0,48,60,0.0,0.0
1316,69.0,0,180,0.0,0.0
1317,57.0,48,60,0.0,0.0
1318,55.0,48,60,0.0,0.0
1319,53.0,48,60,0.0,0.0
1320,52.0,48,60,0.0,0.0
1321,53.0,48,60,0.0,0.0
1322,69.0,0,60,0.0,0.0
1323,71.0,48,60,0.0,0.0
1324,50.0,0,60,0.0,0.0
1325,52.0,48,60,0.0,0.0
1326,73.0,0,60,0.0,0.0
1327,74.0,48,60,0.0,0.0
1328,53.0,0,180,0.0,0.0
1329,73.0,48,60,0.0,0.0
1330,69.0,96,90,0.0,0.0
1331,76.0,48,60,0.0,0.0
1332,74.0,0,60,0.0,0.0
1333,77.0,48,90,0.0,0.0
1334,62.0,0,90,0.0,0.0
1335,52.0,0,60,0.0,0.0
1336,64.0,0,90,0.0,0.0
1337,50.0,48,60,0.0,0.0
1338,49.0,0,60,0.0,0.0
1339,70.0,48,15,0.0,0.0
1340,50.0,0,180,0.0,0.0
1341,69.0,48,60,0.0,0.0
1342,74.0,48,60,0.0,0.0
1343,65.0,48,90,0.0,0.0
1344,72.0,0,60,0.0,0.0
1345,75.0,48,60,0.0,0.0
1346,67.0,48,90,0.0,0.0
1347,74.0,0,60,0.0,0.0
1348,48.0,0,60,0.0,0.0
1349,66.0,48,60,0.0,0.0
1350,69.0,0,90,0.0,0.0
1351,46.0,0,60,0.0,0.0
1352,72.0,0,60,0.0,0.0
1353,45.0,48,60,0.0,0.0
1354,70.0,48,60,0.0,0.0
1355,43.0,0,90,0.0,0.0
1356,74.0,48,60,0.0,0.0
1357,55.0,48,90,0.0,0.0
1358,70.0,0,90,0.0,0.0
1359,75.0,48,60,0.0,0.0
1360,79.0,0,60,0.0,0.0
1361,57.0,0,90,0.0,0.0
1362,69.0,0,90,0.0,0.0
1363,77.0,48,60,0.0,0.0
1364,74.0,48,60,0.0,0.0
1365,67.0,0,90,0.0,0.0
1366,76.0,48,60,0.0,0.0
1367,45.0,48,90,0.0,0.0
1368,73.0,0,15,0.0,0.0
1369,46.0,0,180,0.0,0.0
1370,74.0,48,60,0.0,0.0
1371,65.0,48,60,0.0,0.0
1372,62.0,0,90,0.0,0.0
1373,64.0,96,60,0.0,0.0
1374,65.0,0,90,0.0,0.0
1375,74.0,48,90,0.0,0.0
1376,58.0,0,60,0.0,0.0
1377,67.0,0,90,0.0,0.0
1378,76.0,0,90,0.0,0.0
1379,57.0,48,60,0.0,0.0
1380,69.0,0,180,0.0,0.0
1381,55.0,48,15,0.0,0.0
1382,73.0,0,90,0.0,0.0
1383,52.0,48,60,0.0,0.0
1384,74.0,48,90,0.0,0.0
1385,53.0,48,15,0.0,0.0
1386,79.0,0,180,0.0,0.0
1387,71.0,0,90,0.0,0.0
1388,53.0,48,60,0.0,0.0
1389,50.0,48,60,0.0,0.0
1390,73.0,48,90,0.0,0.0
1391,52.0,48,15,0.0,0.0
1392,74.0,0,90,0.0,0.0
1393,79.0,48,60,0.0,0.0
1394,50.0,48,90,0.0,0.0
1395,76.0,0,60,0.0,0.0
1396,69.0,48,150,0.0,0.0
1397,77.0,48,60,0.0,0.0
1398,62.0,0,90,0.0,0.0
1399,57.0,0,90,0.0,0.0
1400,77.0,48,15,0.0,0.0
1401,65.0,48,60,0.0,0.0
1402,59.0,48,90,0.0,0.0
1403,67.0,48,15,0.0,0.0
1404,67.0,0,15,0.0,0.0
1405,77.0,48,60,0.0,0.0
1406,76.0,0,60,0.0,0.0
1407,81.0,48,60,0.0,0.0
1408,64.0,96,90,0.0,0.0
1409,60.0,0,90,0.0,0.0
1410,81.0,0,60,0.0,0.0
1411,81.0,48,90,0.0,0.0
1412,62.0,0,90,0.0,0.0
1413,77.0,0,60,0.0,0.0
1414,76.0,48,60,0.0,0.0
1415,80.0,0,90,0.0,0.0
1416,64.0,48,90,0.0,0.0
1417,74.0,0,60,0.0,0.0
1418,81.0,48,90,0.0,0.0
1419,72.0,48,60,0.0,0.0
1420,71.0,0,60,0.0,0.0
1421,69.0,48,150,0.0,0.0
1422,74.0,48,60,0.0,0.0
1423,65.0,0,90,0.0,0.0
1424,71.0,48,60,0.0,0.0
1425,72.0,48,90,0.0,0.0
1426,64.0,0,90,0.0,0.0
1427,69.0,48,90,0.0,0.0
1428,62.0,0,90,0.0,0.0
1429,71.0,0,90,0.0,0.0
1430,68.0,48,60,0.0,0.0
1431,69.0,48,60,0.0,0.0
1432,64.0,0,60,0.0,0.0
1433,69.0,48,15,0.0,0.0
1434,60.0,48,60,0.0,0.0
1435,68.0,0,60,0.0,0.0
1436,59.0,48,60,0.0,0.0
1437,69.0,48,60,0.0,0.0
1438,60.0,48,90,0.0,0.0
1439,72.0,0,60,0.0,0.0
1440,71.0,48,60,0.0,0.0
1441,62.0,48,90,0.0,0.0
1442,74.0,0,60,0.0,0.0
1443,64.0,48,390,0.0,0.0
1444,72.0,48,60,0.0,0.0
1445,76.0,48,60,0.0,0.0
1446,69.0,48,90,0.0,0.0
1447,84.0,48,60,0.0,0.0
1448,81.0,0,60,0.0,0.0
1449,83.0,48,60,0.0,0.0
1450,74.0,48,90,0.0,0.0
1451,80.0,0,60,0.0,0.0
1452,81.0,48,60,0.0,0.0
1453,72.0,0,90,0.0,0.0
1454,78.0,0,60,0.0,0.0
1455,80.0,48,60,0.0,0.0
1456,71.0,0,90,0.0,0.0
1457,64.0,48,90,0.0,0.0
1458,76.0,0,60,0.0,0.0
1459,74.0,0,60,0.0,0.0
1460,56.0,48,60,0.0,0.0
1461,71.0,0,60,0.0,0.0
1462,65.0,48,60,0.0,0.0
1463,57.0,48,60,0.0,0.0
1464,72.0,0,60,0.0,0.0
1465,69.0,0,60,0.0,0.0
1466,64.0,48,60,0.0,0.0
1467,71.0,48,60,0.0,0.0
1468,59.0,0,60,0.0,0.0
1469,62.0,0,60,0.0,0.0
1470,68.0,48,60,0.0,0.0
1471,60.0,48,60,0.0,0.0
1472,69.0,48,150,0.0,0.0
1473,59.0,48,60,0.0,0.0
1474,60.0,48,150,0.0,0.0
1475,76.0,0,90,0.0,0.0
1476,67.0,48,60,0.0,0.0
1477,66.0,0,90,0.0,0.0
1478,69.0,48,90,0.0,0.0
1479,59.0,0,60,0.0,0.0
1480,71.0,0,90,0.0,0.0
1481,65.0,0,90,0.0,0.0
1482,57.0,48,60,0.0,0.0
1483,56.0,48,60,0.0,0.0
1484,57.0,48,150,0.0,0.0
1485,65.0,48,60,0.0,0.0
1486,62.0,48,60,0.0,0.0
1487,72.0,0,90,0.0,0.0
1488,64.0,48,90,0.0,0.0
1489,55.0,0,60,0.0,0.0
1490,53.0,48,60,0.0,0.0
1491,74.0,48,90,0.0,0.0
1492,52.0,0,60,0.0,0.0
1493,50.0,48,60,0.0,0.0
1494,76.0,48,90,0.0,0.0
1495,48.0,0,60,0.0,0.0
1496,47.0,48,90,0.0,0.0
1497,69.0,0,15,0.0,0.0
1498,68.0,0,60,0.0,0.0
1499,74.0,48,60,0.0,0.0
1500,40.0,0,90,0.0,0.0
1501,77.0,48,90,0.0,0.0
1502,68.0,0,60,0.0,0.0
1503,42.0,0,90,0.0,0.0
1504,69.0,48,60,0.0,0.0
1505,76.0,48,90,0.0,0.0
1506,72.0,0,60,0.0,0.0
1507,74.0,0,90,0.0,0.0
1508,44.0,0,90,0.0,0.0
1509,71.0,48,60,0.0,0.0
1510,65.0,48,60,0.0,0.0
1511,64.0,48,60,0.0,0.0
1512,45.0,48,150,0.0,0.0
1513,63.0,48,60,0.0,0.0
1514,64.0,0,90,0.0,0.0
1515,72.0,0,60,0.0,0.0
1516,44.0,48,60,0.0,0.0
1517,71.0,0,60,0.0,0.0
1518,72.0,48,90,0.0,0.0
1519,45.0,48,60,0.0,0.0
1520,48.0,0,60,0.0,0.0
1521,47.0,48,60,0.0,0.0
1522,74.0,96,90,0.0,0.0
1523,50.0,0,60,0.0,0.0
1524,48.0,48,180,0.0,0.0
1525,64.0,48,60,0.0,0.0
1526,68.0,48,60,0.0,0.0
1527,71.0,0,60,0.0,0.0
1528,69.0,48,60,0.0,0.0
1529,66.0,48,60,0.0,0.0
1530,67.0,48,60,0.0,0.0
1531,49.0,0,90,0.0,0.0
1532,64.0,0,60,0.0,0.0
1533,50.0,48,90,0.0,0.0
1534,65.0,0,90,0.0,0.0
1535,76.0,48,15,0.0,0.0
1536,69.0,0,60,0.0,0.0
1537,66.0,0,90,0.0,0.0
1538,45.0,0,90,0.0,0.0
1539,72.0,48,60,0.0,0.0
1540,75.0,48,60,0.0,0.0
1541,67.0,0,150,0.0,0.0
1542,46.0,48,90,0.0,0.0
1543,74.0,48,60,0.0,0.0
1544,70.0,0,60,0.0,0.0
1545,50.0,48,90,0.0,0.0
1546,72.0,48,60,0.0,0.0
1547,69.0,0,60,0.0,0.0
1548,66.0,0,60,0.0,0.0
1549,67.0,48,90,0.0,0.0
1550,70.0,0,90,0.0,0.0
1551,43.0,48,60,0.0,0.0
1552,50.0,0,60,0.0,0.0
1553,55.0,48,60,0.0,0.0
1554,74.0,0,60,0.0,0.0
1555,58.0,0,60,0.0,0.0
1556,79.0,48,60,0.0,0.0
1557,72.0,0,60,0.0,0.0
1558,57.0,48,60,0.0,0.0
1559,78.0,0,90,0.0,0.0
1560,69.0,48,60,0.0,0.0
1561,60.0,0,60,0.0,0.0
1562,77.0,48,90,0.0,0.0
1563,59.0,0,60,0.0,0.0
1564,74.0,48,60,0.0,0.0
1565,62.0,0,60,0.0,0.0
1566,68.0,0,60,0.0,0.0
1567,67.0,0,90,0.0,0.0
1568,51.0,48,60,0.0,0.0
1569,55.0,48,60,0.0,0.0
1570,75.0,0,60,0.0,0.0
1571,68.0,48,150,0.0,0.0
1572,53.0,0,60,0.0,0.0
1573,74.0,48,60,0.0,0.0
1574,56.0,48,60,0.0,0.0
1575,72.0,0,60,0.0,0.0
1576,74.0,0,90,0.0,0.0
1577,47.0,0,60,0.0,0.0
1578,50.0,0,60,0.0,0.0
1579,67.0,48,60,0.0,0.0
1580,66.0,48,60,0.0,0.0
1581,48.0,0,60,0.0,0.0
1582,67.0,0,60,0.0,0.0
1583,51.0,0,60,0.0,0.0
1584,42.0,0,60,0.0,0.0
1585,69.0,0,90,0.0,0.0
1586,75.0,48,15,0.0,0.0
1587,45.0,0,60,0.0,0.0
1588,74.0,48,60,0.0,0.0
1589,43.0,48,60,0.0,0.0
1590,70.0,0,90,0.0,0.0
1591,73.0,0,60,0.0,0.0
1592,46.0,0,60,0.0,0.0
1593,74.0,48,60,0.0,0.0
1594,37.0,48,180,0.0,0.0
1595,76.0,48,60,0.0,0.0
1596,78.0,48,60,0.0,0.0
1597,70.0,0,90,0.0,0.0
1598,79.0,48,15,0.0,0.0
1599,69.0,0,90,0.0,0.0
1600,79.0,0,15,0.0,0.0
1601,76.0,48,60,0.0,0.0
1602,77.0,48,60,0.0,0.0
1603,74.0,48,90,0.0,0.0
1604,77.0,0,60,0.0,0.0
1605,68.0,0,90,0.0,0.0
1606,77.0,48,60,0.0,0.0
1607,74.0,48,60,0.0,0.0
1608,75.0,48,60,0.0,0.0
1609,67.0,0,90,0.0,0.0
1610,65.0,48,90,0.0,0.0
1611,38.0,48,15,0.0,0.0
1612,75.0,0,15,0.0,0.0
1613,73.0,0,60,0.0,0.0
1614,70.0,0,90,0.0,0.0
1615,74.0,48,15,0.0,0.0
1616,64.0,48,90,0.0,0.0
1617,74.0,48,60,0.0,0.0
1618,71.0,0,60,0.0,0.0
1619,63.0,0,90,0.0,0.0
1620,72.0,48,60,0.0,0.0
1621,38.0,0,15,0.0,0.0
1622,62.0,48,90,0.0,0.0
1623,72.0,48,15,0.0,0.0
1624,69.0,0,60,0.0,0.0
1625,67.0,0,90,0.0,0.0
1626,70.0,48,15,0.0,0.0
1627,61.0,48,90,0.0,0.0
1628,70.0,48,60,0.0,0.0
1629,67.0,0,60,0.0,0.0
1630,60.0,0,90,0.0,0.0
1631,68.0,48,15,0.0,0.0
1632,59.0,48,90,0.0,0.0
1633,38.0,0,90,0.0,0.0
1634,68.0,48,60,0.0,0.0
1635,66.0,0,60,0.0,0.0
1636,50.0,48,60,0.0,0.0
1637,67.0,0,180,0.0,0.0
1638,50.0,24,60,0.0,0.0
1639,58.0,0,15,0.0,0.0
1640,50.0,0,60,0.0,0.0
1641,57.0,24,20,0.0,0.0
1642,58.0,24,20,0.0,0.0
1643,47.0,24,60,0.0,0.0
1644,57.0,0,20,0.0,0.0
1645,58.0,24,20,0.0,0.0
1646,48.0,0,60,0.0,0.0
1647,66.0,0,90,0.0,0.0
1648,57.0,24,20,0.0,0.0
1649,48.0,0,60,0.0,0.0
1650,55.0,24,20,0.0,0.0
1651,57.0,48,20,0.0,0.0
1652,55.0,48,90,0.0,0.0
1653,48.0,48,60,0.0,0.0
1654,67.0,0,180,0.0,0.0
1655,45.0,0,60,0.0,0.0
1656,46.0,48,60,0.0,0.0
1657,62.0,0,60,0.0,0.0
1658,43.0,0,60,0.0,0.0
1659,50.0,0,90,0.0,0.0
1660,66.0,48,60,0.0,0.0
1661,62.0,48,15,0.0,0.0
1662,58.0,0,60,0.0,0.0
1663,67.0,48,60,0.0,0.0
1664,60.0,48,60,0.0,0.0
1665,38.0,48,90,0.0,0.0
1666,69.0,0,15,0.0,0.0
1667,60.0,0,15,0.0,0.0
1668,43.0,24,90,0.0,0.0
1669,57.0,0,60,0.0,0.0
1670,67.0,24,60,0.0,0.0
1671,43.0,24,20,0.0,0.0
1672,45.0,0,20,0.0,0.0
1673,58.0,0,15,0.0,0.0
1674,67.0,0,60,0.0,0.0
1675,46.0,24,20,0.0,0.0
1676,48.0,0,20,0.0,0.0
1677,50.0,0,90,0.0,0.0
1678,57.0,24,90,0.0,0.0
1679,67.0,48,60,0.0,0.0
1680,64.0,0,60,0.0,0.0
1681,48.0,24,20,0.0,0.0
1682,62.0,0,60,0.0,0.0
1683,65.0,24,60,0.0,0.0
1684,47.0,0,20,0.0,0.0
1685,45.0,24,20,0.0,0.0
1686,65.0,0,60,0.0,0.0
1687,43.0,48,20,0.0,0.0
1688,63.0,0,90,0.0,0.0
1689,62.0,0,15,0.0,0.0
1690,48.0,0,90,0.0,0.0
1691,59.0,24,60,0.0,0.0
1692,43.0,24,20,0.0,0.0
1693,42.0,0,20,0.0,0.0
1694,40.0,24,20,0.0,0.0
1695,69.0,24,15,0.0,0.0
1696,60.0,0,15,0.0,0.0
1697,38.0,0,20,0.0,0.0
1698,69.0,0,15,0.0,0.0
1699,58.0,0,90,0.0,0.0
1700,43.0,0,90,0.0,0.0
1701,67.0,24,15,0.0,0.0
1702,55.0,24,20,0.0,0.0
1703,53.0,0,20,0.0,0.0
1704,52.0,24,20,0.0,0.0
1705,70.0,24,15,0.0,0.0
1706,67.0,0,60,0.0,0.0
1707,50.0,0,20,0.0,0.0
1708,49.0,0,90,0.0,0.0
1709,67.0,48,60,0.0,0.0
1710,69.0,0,90,0.0,0.0
1711,64.0,24,60,0.0,0.0
1712,50.0,24,20,0.0,0.0
1713,48.0,0,20,0.0,0.0
1714,74.0,0,15,0.0,0.0
1715,65.0,24,15,0.0,0.0
1716,47.0,24,20,0.0,0.0
1717,45.0,0,20,0.0,0.0
1718,44.0,0,90,0.0,0.0
1719,74.0,48,60,0.0,0.0
1720,64.0,0,90,0.0,0.0
1721,71.0,24,60,0.0,0.0
1722,45.0,24,20,0.0,0.0
1723,72.0,0,60,0.0,0.0
1724,69.0,0,60,0.0,0.0
1725,43.0,24,20,0.0,0.0
1726,72.0,48,60,0.0,0.0
1727,41.0,24,20,0.0,0.0
1728,40.0,0,20,0.0,0.0
1729,69.0,0,15,0.0,0.0
1730,38.0,0,90,0.0,0.0
1731,68.0,0,60,0.0,0.0
1732,76.0,0,90,0.0,0.0
1733,36.0,0,90,0.0,0.0
1734,71.0,48,15,0.0,0.0
1735,69.0,48,60,0.0,0.0
1736,38.0,48,90,0.0,0.0
1737,72.0,48,60,0.0,0.0
1738,78.0,0,90,0.0,0.0
1739,71.0,0,60,0.0,0.0
1740,74.0,48,60,0.0,0.0
1741,80.0,48,90,0.0,0.0
1742,40.0,0,90,0.0,0.0
1743,72.0,0,60,0.0,0.0
1744,76.0,48,60,0.0,0.0
1745,81.0,0,90,0.0,0.0
1746,41.0,0,90,0.0,0.0
1747,74.0,48,60,0.0,0.0
1748,83.0,0,90,0.0,0.0
1749,77.0,48,60,0.0,0.0
1750,38.0,48,90,0.0,0.0
1751,76.0,0,60,0.0,0.0
1752,76.0,0,90,0.0,0.0
1753,74.0,48,60,0.0,0.0
1754,40.0,48,90,0.0,0.0
1755,72.0,0,60,0.0,0.0
1756,71.0,48,60,0.0,0.0
1757,80.0,48,90,0.0,0.0
1758,52.0,0,90,0.0,0.0
1759,72.0,0,60,0.0,0.0
1760,69.0,0,180,0.0,0.0
1761,45.0,48,60,0.0,0.0
1762,81.0,48,180,0.0,0.0
1763,52.0,48,60,0.0,0.0
1764,57.0,48,15,0.0,0.0
1765,57.0,48,60,0.0,0.0
1766,53.0,48,60,0.0,0.0
1767,55.0,48,60,0.0,0.0
1768,55.0,48,60,0.0,0.0
1769,55.0,48,60,0.0,0.0
1770,52.0,48,60,0.0,0.0
1771,53.0,0,60,0.0,0.0
1772,81.0,48,15,0.0,0.0
1773,53.0,48,60,0.0,0.0
1774,81.0,0,15,0.0,0.0
1775,62.0,0,180,0.0,0.0
1776,53.0,48,60,0.0,0.0
1777,50.0,48,60,0.0,0.0
1778,77.0,0,60,0.0,0.0
1779,79.0,48,60,0.0,0.0
1780,58.0,48,90,0.0,0.0
1781,79.0,0,15,0.0,0.0
1782,57.0,48,90,0.0,0.0
1783,60.0,0,90,0.0,0.0
1784,76.0,0,60,0.0,0.0
1785,62.0,48,90,0.0,0.0
1786,65.0,0,90,0.0,0.0
1787,77.0,48,15,0.0,0.0
1788,77.0,0,15,0.0,0.0
1789,59.0,0,90,0.0,0.0
1790,56.0,48,90,0.0,0.0
1791,76.0,0,60,0.0,0.0
1792,55.0,0,90,0.0,0.0
1793,74.0,48,60,0.0,0.0
1794,58.0,48,90,0.0,0.0
1795,73.0,0,60,0.0,0.0
1796,74.0,48,60,0.0,0.0
1797,57.0,0,90,0.0,0.0
1798,53.0,48,90,0.0,0.0
1799,77.0,0,60,0.0,0.0
1800,76.0,48,60,0.0,0.0
1801,62.0,0,90,0.0,0.0
1802,58.0,24,90,0.0,0.0
1803,74.0,0,60,0.0,0.0
1804,57.0,24,20,0.0,0.0
1805,73.0,0,60,0.0,0.0
1806,55.0,24,20,0.0,0.0
1807,74.0,24,60,0.0,0.0
1808,57.0,24,20,0.0,0.0
1809,55.0,0,20,0.0,0.0
1810,57.0,24,20,0.0,0.0
1811,71.0,0,60,0.0,0.0
1812,55.0,24,20,0.0,0.0
1813,73.0,48,60,0.0,0.0
1814,53.0,24,20,0.0,0.0
1815,55.0,0,20,0.0,0.0
1816,52.0,0,15,0.0,0.0
1817,53.0,48,90,0.0,0.0
1818,74.0,48,60,0.0,0.0
1819,69.0,0,60,0.0,0.0
1820,70.0,48,60,0.0,0.0
1821,55.0,0,90,0.0,0.0
1822,67.0,48,60,0.0,0.0
1823,57.0,48,60,0.0,0.0
1824,64.0,0,90,0.0,0.0
1825,55.0,0,60,0.0,0.0
1826,57.0,0,90,0.0,0.0
1827,67.0,0,90,0.0,0.0
1828,50.0,48,15,0.0,0.0
1829,49.0,48,60,0.0,0.0
1830,50.0,48,90,0.0,0.0
1831,67.0,48,15,0.0,0.0
1832,65.0,48,60,0.0,0.0
1833,62.0,48,90,0.0,0.0
1834,64.0,0,60,0.0,0.0
1835,66.0,48,60,0.0,0.0
1836,60.0,48,90,0.0,0.0
1837,74.0,0,60,0.0,0.0
1838,68.0,48,60,0.0,0.0
1839,59.0,48,90,0.0,0.0
1840,71.0,0,60,0.0,0.0
1841,71.0,48,60,0.0,0.0
1842,60.0,48,90,0.0,0.0
1843,71.0,0,60,0.0,0.0
1844,69.0,48,60,0.0,0.0
1845,65.0,48,90,0.0,0.0
1846,68.0,0,60,0.0,0.0
1847,69.0,48,60,0.0,0.0
1848,64.0,48,90,0.0,0.0
1849,77.0,0,60,0.0,0.0
1850,71.0,48,60,0.0,0.0
1851,62.0,48,90,0.0,0.0
1852,74.0,0,60,0.0,0.0
1853,64.0,48,90,0.0,0.0
1854,74.0,48,60,0.0,0.0
1855,74.0,0,60,0.0,0.0
1856,72.0,48,60,0.0,0.0
1857,69.0,48,90,0.0,0.0
1858,71.0,0,60,0.0,0.0
1859,73.0,48,60,0.0,0.0
1860,67.0,0,90,0.0,0.0
1861,57.0,0,180,0.0,0.0
1862,81.0,48,60,0.0,0.0
1863,74.0,48,60,0.0,0.0
1864,77.0,48,60,0.0,0.0
1865,65.0,0,15,0.0,0.0
1866,55.0,48,90,0.0,0.0
1867,71.0,0,90,0.0,0.0
1868,63.0,0,60,0.0,0.0
1869,76.0,0,90,0.0,0.0
1870,60.0,48,90,0.0,0.0
1871,64.0,48,15,0.0,0.0
1872,81.0,0,90,0.0,0.0
1873,54.0,48,90,0.0,0.0
1874,64.0,48,60,0.0,0.0
1875,61.0,0,60,0.0,0.0
1876,69.0,48,90,0.0,0.0
1877,62.0,48,60,0.0,0.0
1878,53.0,0,90,0.0,0.0
1879,62.0,0,15,0.0,0.0
1880,52.0,0,90,0.0,0.0
1881,67.0,0,90,0.0,0.0
1882,59.0,48,60,0.0,0.0
1883,60.0,48,60,0.0,0.0
1884,57.0,0,90,0.0,0.0
1885,72.0,24,90,0.0,0.0
1886,60.0,0,60,0.0,0.0
1887,60.0,0,60,0.0,0.0
1888,52.0,24,20,0.0,0.0
1889,77.0,0,90,0.0,0.0
1890,50.0,24,20,0.0,0.0
1891,59.0,0,60,0.0,0.0
1892,52.0,24,20,0.0,0.0
1893,50.0,24,20,0.0,0.0
1894,57.0,0,60,0.0,0.0
1895,65.0,48,90,0.0,0.0
1896,52.0,24,20,0.0,0.0
1897,50.0,24,20,0.0,0.0
1898,48.0,24,20,0.0,0.0
1899,56.0,0,60,0.0,0.0
1900,50.0,0,20,0.0,0.0
1901,64.0,48,60,0.0,0.0
1902,48.0,0,90,0.0,0.0
1903,57.0,0,300,0.0,0.0
1904,76.0,48,60,0.0,0.0
1905,50.0,48,90,0.0,0.0
1906,74.0,48,60,0.0,0.0
1907,72.0,0,60,0.0,0.0
1908,71.0,0,60,0.0,0.0
1909,52.0,48,60,0.0,0.0
1910,72.0,0,60,0.0,0.0
1911,50.0,48,60,0.0,0.0
1912,56.0,0,90,0.0,0.0
1913,69.0,48,60,0.0,0.0
1914,52.0,0,90,0.0,0.0
1915,71.0,48,60,0.0,0.0
1916,45.0,0,180,0.0,0.0
1917,57.0,0,60,0.0,0.0
1918,72.0,48,60,0.0,0.0
1919,76.0,0,60,0.0,0.0
1920,60.0,48,60,0.0,0.0
1921,74.0,48,60,0.0,0.0
1922,59.0,0,60,0.0,0.0
1923,57.0,0,60,0.0,0.0
1924,77.0,48,60,0.0,0.0
1925,76.0,0,90,0.0,0.0
1926,56.0,48,60,0.0,0.0
1927,57.0,48,60,0.0,0.0
1928,74.0,48,90,0.0,0.0
1929,47.0,0,90,0.0,0.0
1930,54.0,48,60,0.0,0.0
1931,56.0,0,60,0.0,0.0
1932,48.0,0,60,0.0,0.0
1933,57.0,48,60,0.0,0.0
1934,74.0,0,90,0.0,0.0
1935,64.0,48,60,0.0,0.0
1936,47.0,0,60,0.0,0.0
1937,48.0,48,60,0.0,0.0
1938,69.0,0,180,0.0,0.0
1939,72.0,48,90,0.0,0.0
1940,50.0,0,60,0.0,0.0
1941,52.0,48,60,0.0,0.0
1942,71.0,48,90,0.0,0.0
1943,50.0,0,60,0.0,0.0
1944,73.0,48,90,0.0,0.0
1945,53.0,48,60,0.0,0.0
1946,52.0,0,60,0.0,0.0
1947,53.0,0,60,0.0,0.0
1948,67.0,0,15,0.0,0.0
1949,74.0,48,60,0.0,0.0
1950,65.0,48,60,0.0,0.0
1951,50.0,0,60,0.0,0.0
1952,69.0,0,60,0.0,0.0
1953,55.0,0,180,0.0,0.0
1954,64.0,48,60,0.0,0.0
1955,67.0,0,60,0.0,0.0
1956,65.0,48,60,0.0,0.0
1957,62.0,0,60,0.0,0.0
1958,64.0,0,60,0.0,0.0
1959,61.0,48,60,0.0,0.0
1960,62.0,0,60,0.0,0.0
1961,53.0,48,60,0.0,0.0
1962,64.0,0,90,0.0,0.0
1963,59.0,0,60,0.0,0.0
1964,52.0,0,60,0.0,0.0
1965,61.0,48,60,0.0,0.0
1966,53.0,0,90,0.0,0.0
1967,62.0,48,60,0.0,0.0
1968,64.0,48,60,0.0,0.0
1969,57.0,48,90,0.0,0.0
1970,65.0,48,60,0.0,0.0
1971,67.0,0,60,0.0,0.0
1972,69.0,48,60,0.0,0.0
1973,67.0,0,60,0.0,0.0
1974,50.0,0,90,0.0,0.0
1975,54.0,48,15,0.0,0.0
1976,70.0,48,60,0.0,0.0
1977,69.0,48,60,0.0,0.0
1978,55.0,48,60,0.0,0.0
1979,70.0,0,180,0.0,0.0
1980,57.0,48,60,0.0,0.0
1981,58.0,48,60,0.0,0.0
1982,60.0,0,60,0.0,0.0
1983,62.0,24,60,0.0,0.0
1984,72.0,24,20,0.0,0.0
1985,71.0,0,20,0.0,0.0
1986,72.0,24,20,0.0,0.0
1987,60.0,0,60,0.0,0.0
1988,71.0,24,20,0.0,0.0
1989,64.0,0,60,0.0,0.0
1990,72.0,24,20,0.0,0.0
1991,55.0,0,90,0.0,0.0
1992,71.0,24,20,0.0,0.0
1993,69.0,24,20,0.0,0.0
1994,62.0,0,60,0.0,0.0
1995,71.0,48,20,0.0,0.0
1996,48.0,48,60,0.0,0.0
1997,72.0,48,180,0.0,0.0
1998,64.0,0,60,0.0,0.0
1999,65.0,0,60,0.0,0.0
2000,60.0,48,60,0.0,0.0
2001,67.0,48,60,0.0,0.0
2002,58.0,0,60,0.0,0.0
2003,57.0,0,60,0.0,0.0
2004,69.0,0,60,0.0,0.0
2005,70.0,48,60,0.0,0.0
2006,55.0,0,60,0.0,0.0
2007,57.0,0,60,0.0,0.0
2008,69.0,48,60,0.0,0.0
2009,53.0,48,60,0.0,0.0
2010,72.0,0,60,0.0,0.0
2011,55.0,0,60,0.0,0.0
2012,70.0,48,60,0.0,0.0
2013,57.0,48,60,0.0,0.0
2014,72.0,48,90,0.0,0.0
2015,77.0,0,60,0.0,0.0
2016,58.0,0,60,0.0,0.0
2017,76.0,48,60,0.0,0.0
2018,60.0,0,60,0.0,0.0
2019,62.0,48,60,0.0,0.0
2020,74.0,0,60,0.0,0.0
2021,72.0,0,60,0.0,0.0
2022,64.0,48,60,0.0,0.0
2023,62.0,48,60,0.0,0.0
2024,74.0,0,60,0.0,0.0
2025,70.0,0,60,0.0,0.0
2026,65.0,48,60,0.0,0.0
2027,64.0,0,60,0.0,0.0
2028,72.0,48,60,0.0,0.0
2029,65.0,48,90,0.0,0.0
2030,69.0,48,15,0.0,0.0
2031,72.0,0,60,0.0,0.0
2032,70.0,48,60,0.0,0.0
2033,67.0,0,60,0.0,0.0
2034,58.0,48,90,0.0,0.0
2035,69.0,0,60,0.0,0.0
2036,65.0,0,60,0.0,0.0
2037,67.0,48,60,0.0,0.0
2038,64.0,0,60,0.0,0.0
2039,60.0,48,90,0.0,0.0
2040,69.0,0,60,0.0,0.0
2041,65.0,0,60,0.0,0.0
2042,62.0,48,60,0.0,0.0
2043,65.0,0,60,0.0,0.0
2044,48.0,48,90,0.0,0.0
2045,67.0,0,60,0.0,0.0
2046,64.0,0,60,0.0,0.0
2047,69.0,48,180,0.0,0.0
2048,65.0,0,60,0.0,0.0
2049,53.0,48,60,0.0,0.0
2050,55.0,48,60,0.0,0.0
2051,60.0,0,60,0.0,0.0
2052,65.0,48,180,0.0,0.0
2053,57.0,48,60,0.0,0.0
2054,58.0,0,60,0.0,0.0
2055,60.0,48,60,0.0,0.0
2056,67.0,48,180,0.0,0.0
2057,59.0,0,60,0.0,0.0
2058,64.0,0,90,0.0,0.0
2059,62.0,48,60,0.0,0.0
2060,61.0,0,60,0.0,0.0
2061,62.0,48,60,0.0,0.0
2062,64.0,48,90,0.0,0.0
2063,65.0,48,180,0.0,0.0
2064,47.0,0,60,0.0,0.0
2065,62.0,48,150,0.0,0.0
2066,49.0,48,60,0.0,0.0
2067,50.0,0,60,0.0,0.0
2068,52.0,0,60,0.0,0.0
2069,50.0,48,60,0.0,0.0
2070,59.0,0,60,0.0,0.0
2071,61.0,48,60,0.0,0.0
2072,53.0,0,60,0.0,0.0
2073,64.0,0,60,0.0,0.0
2074,52.0,0,60,0.0,0.0
2075,55.0,48,60,0.0,0.0
2076,57.0,0,60,0.0,0.0
2077,53.0,0,60,0.0,0.0
2078,59.0,48,60,0.0,0.0
2079,52.0,48,60,0.0,0.0
2080,61.0,0,60,0.0,0.0
2081,62.0,0,60,0.0,0.0
2082,50.0,0,60,0.0,0.0
2083,49.0,48,60,0.0,0.0
2084,64.0,0,60,0.0,0.0
2085,62.0,48,60,0.0,0.0
2086,50.0,0,60,0.0,0.0
2087,65.0,0,60,0.0,0.0
2088,47.0,48,60,0.0,0.0
2089,64.0,48,60,0.0,0.0
2090,49.0,0,60,0.0,0.0
2091,50.0,48,60,0.0,0.0
2092,67.0,0,60,0.0,0.0
2093,66.0,48,60,0.0,0.0
2094,48.0,0,60,0.0,0.0
2095,68.0,0,60,0.0,0.0
2096,47.0,48,60,0.0,0.0
2097,69.0,0,60,0.0,0.0
2098,45.0,48,60,0.0,0.0
2099,71.0,48,60,0.0,0.0
2100,44.0,0,60,0.0,0.0
2101,45.0,0,60,0.0,0.0
2102,69.0,48,60,0.0,0.0
2103,42.0,0,60,0.0,0.0
2104,72.0,48,60,0.0,0.0
2105,44.0,0,60,0.0,0.0
2106,71.0,48,60,0.0,0.0
2107,74.0,48,60,0.0,0.0
2108,45.0,0,90,0.0,0.0
2109,72.0,48,60,0.0,0.0
2110,57.0,0,180,0.0,0.0
2111,71.0,48,60,0.0,0.0
2112,69.0,48,60,0.0,0.0
2113,71.0,48,60,0.0,0.0
2114,77.0,0,180,0.0,0.0
2115,72.0,48,60,0.0,0.0
2116,71.0,48,60,0.0,0.0
2117,56.0,0,90,0.0,0.0
2118,76.0,0,90,0.0,0.0
2119,74.0,48,15,0.0,0.0
2120,57.0,48,90,0.0,0.0
2121,71.0,0,60,0.0,0.0
2122,72.0,48,60,0.0,0.0
2123,60.0,0,90,0.0,0.0
2124,81.0,0,90,0.0,0.0
2125,72.0,48,15,0.0,0.0
2126,54.0,48,90,0.0,0.0
2127,75.0,0,90,0.0,0.0
2128,70.0,0,60,0.0,0.0
2129,71.0,48,60,0.0,0.0
2130,74.0,0,90,0.0,0.0
2131,56.0,48,90,0.0,0.0
2132,71.0,0,60,0.0,0.0
2133,71.0,48,60,0.0,0.0
2134,72.0,0,90,0.0,0.0
2135,68.0,48,60,0.0,0.0
2136,77.0,0,90,0.0,0.0
2137,69.0,48,60,0.0,0.0
2138,57.0,24,90,0.0,0.0
2139,69.0,0,60,0.0,0.0
2140,69.0,24,60,0.0,0.0
2141,72.0,24,20,0.0,0.0
2142,58.0,0,90,0.0,0.0
2143,71.0,0,20,0.0,0.0
2144,72.0,24,20,0.0,0.0
2145,67.0,0,60,0.0,0.0
2146,71.0,24,20,0.0,0.0
2147,72.0,24,20,0.0,0.0
2148,65.0,0,60,0.0,0.0
2149,60.0,0,90,0.0,0.0
2150,71.0,24,20,0.0,0.0
2151,64.0,48,60,0.0,0.0
2152,69.0,24,20,0.0,0.0
2153,71.0,0,20,0.0,0.0
2154,65.0,48,60,0.0,0.0
2155,69.0,0,60,0.0,0.0
2156,67.0,48,60,0.0,0.0
2157,70.0,48,90,0.0,0.0
2158,62.0,0,90,0.0,0.0
2159,65.0,0,60,0.0,0.0
2160,64.0,0,60,0.0,0.0
2161,60.0,0,90,0.0,0.0
2162,72.0,48,60,0.0,0.0
2163,70.0,48,60,0.0,0.0
2164,65.0,0,60,0.0,0.0
2165,62.0,48,60,0.0,0.0
2166,72.0,48,90,0.0,0.0
2167,58.0,0,90,0.0,0.0
2168,64.0,0,60,0.0,0.0
2169,65.0,48,60,0.0,0.0
2170,69.0,0,60,0.0,0.0
2171,72.0,0,60,0.0,0.0
2172,77.0,48,150,0.0,0.0
2173,57.0,48,60,0.0,0.0
2174,55.0,0,60,0.0,0.0
2175,70.0,48,60,0.0,0.0
2176,72.0,0,90,0.0,0.0
2177,57.0,48,90,0.0,0.0
2178,76.0,0,60,0.0,0.0
2179,59.0,48,90,0.0,0.0
2180,74.0,48,60,0.0,0.0
2181,77.0,0,60,0.0,0.0
2182,60.0,48,60,0.0,0.0
2183,76.0,48,90,0.0,0.0
2184,62.0,0,60,0.0,0.0
2185,81.0,0,60,0.0,0.0
2186,60.0,48,60,0.0,0.0
2187,80.0,0,60,0.0,0.0
2188,59.0,48,60,0.0,0.0
2189,81.0,48,90,0.0,0.0
2190,72.0,0,180,0.0,0.0
2191,57.0,48,60,0.0,0.0
2192,60.0,0,60,0.0,0.0
2193,66.0,48,60,0.0,0.0
2194,75.0,48,90,0.0,0.0
2195,69.0,0,60,0.0,0.0
2196,69.0,48,60,0.0,0.0
2197,71.0,0,90,0.0,0.0
2198,66.0,0,60,0.0,0.0
2199,67.0,48,60,0.0,0.0
2200,76.0,48,15,0.0,0.0
2201,79.0,0,90,0.0,0.0
2202,67.0,0,60,0.0,0.0
2203,70.0,48,90,0.0,0.0
2204,73.0,0,90,0.0,0.0
2205,67.0,48,60,0.0,0.0
2206,64.0,0,60,0.0,0.0
2207,69.0,0,90,0.0,0.0
2208,74.0,0,90,0.0,0.0
2209,65.0,48,15,0.0,0.0
2210,67.0,48,90,0.0,0.0
2211,65.0,48,60,0.0,0.0
2212,63.0,0,60,0.0,0.0
2213,76.0,24,90,0.0,0.0
2214,72.0,0,90,0.0,0.0
2215,64.0,48,15,0.0,0.0
2216,67.0,24,20,0.0,0.0
2217,77.0,0,90,0.0,0.0
2218,64.0,24,60,0.0,0.0
2219,65.0,0,20,0.0,0.0
2220,62.0,24,60,0.0,0.0
2221,67.0,24,20,0.0,0.0
2222,65.0,0,20,0.0,0.0
2223,60.0,24,60,0.0,0.0
2224,79.0,0,90,0.0,0.0
2225,67.0,24,20,0.0,0.0
2226,65.0,0,20,0.0,0.0
2227,64.0,24,20,0.0,0.0
2228,59.0,48,60,0.0,0.0
2229,65.0,0,20,0.0,0.0
2230,60.0,48,60,0.0,0.0
2231,64.0,0,60,0.0,0.0
2232,62.0,48,60,0.0,0.0
2233,81.0,0,90,0.0,0.0
2234,65.0,48,90,0.0,0.0
2235,60.0,0,60,0.0,0.0
2236,79.0,0,90,0.0,0.0
2237,59.0,48,60,0.0,0.0
2238,67.0,0,60,0.0,0.0
2239,60.0,48,60,0.0,0.0
2240,65.0,0,60,0.0,0.0
2241,57.0,48,60,0.0,0.0
2242,67.0,0,90,0.0,0.0
2243,77.0,48,90,0.0,0.0
2244,59.0,0,60,0.0,0.0
2245,60.0,48,60,0.0,0.0
2246,62.0,0,60,0.0,0.0
2247,60.0,48,15,0.0,0.0
2248,76.0,48,60,0.0,0.0
2249,72.0,48,150,0.0,0.0
2250,58.0,48,60,0.0,0.0
2251,74.0,0,60,0.0,0.0
2252,76.0,0,90,0.0,0.0
2253,57.0,48,90,0.0,0.0
2254,70.0,0,60,0.0,0.0
2255,69.0,48,60,0.0,0.0
2256,62.0,0,90,0.0,0.0
2257,78.0,0,90,0.0,0.0
2258,72.0,48,60,0.0,0.0
2259,79.0,48,60,0.0,0.0
2260,70.0,48,90,0.0,0.0
2261,67.0,0,90,0.0,0.0
2262,74.0,0,60,0.0,0.0
2263,76.0,48,60,0.0,0.0
2264,60.0,0,90,0.0,0.0
2265,69.0,48,90,0.0,0.0
2266,78.0,0,60,0.0,0.0
2267,58.0,0,90,0.0,0.0
2268,79.0,48,60,0.0,0.0
2269,67.0,0,90,0.0,0.0
2270,78.0,48,60,0.0,0.0
2271,81.0,48,60,0.0,0.0
2272,57.0,0,90,0.0,0.0
2273,66.0,48,90,0.0,0.0
2274,79.0,0,60,0.0,0.0
2275,67.0,48,60,0.0,0.0
2276,82.0,0,60,0.0,0.0
2277,55.0,0,180,0.0,0.0
2278,65.0,48,60,0.0,0.0
2279,81.0,0,60,0.0,0.0
2280,63.0,0,60,0.0,0.0
2281,79.0,48,60,0.0,0.0
2282,77.0,0,60,0.0,0.0
2283,62.0,48,60,0.0,0.0
2284,75.0,48,60,0.0,0.0
2285,60.0,48,90,0.0,0.0
2286,58.0,0,60,0.0,0.0
2287,74.0,0,60,0.0,0.0
2288,57.0,48,60,0.0,0.0
2289,75.0,0,60,0.0,0.0
2290,55.0,48,60,0.0,0.0
2291,75.0,0,60,0.0,0.0
2292,53.0,48,90,0.0,0.0
2293,75.0,48,60,0.0,0.0
2294,73.0,0,60,0.0,0.0
2295,62.0,0,90,0.0,0.0
2296,58.0,0,90,0.0,0.0
2297,74.0,48,60,0.0,0.0
2298,55.0,48,90,0.0,0.0
2299,74.0,48,15,0.0,0.0
2300,52.0,0,90,0.0,0.0
2301,71.0,0,60,0.0,0.0
2302,51.0,48,90,0.0,0.0
2303,57.0,0,90,0.0,0.0
2304,72.0,48,15,0.0,0.0
2305,72.0,0,15,0.0,0.0
2306,50.0,0,90,0.0,0.0
2307,69.0,48,60,0.0,0.0
2308,58.0,0,90,0.0,0.0
2309,55.0,24,90,0.0,0.0
2310,70.0,48,15,0.0,0.0
2311,60.0,0,90,0.0,0.0
2312,50.0,24,20,0.0,0.0
2313,70.0,0,60,0.0,0.0
2314,48.0,24,20,0.0,0.0
2315,50.0,24,20,0.0,0.0
2316,69.0,24,60,0.0,0.0
2317,48.0,0,20,0.0,0.0
2318,50.0,24,20,0.0,0.0
2319,67.0,0,60,0.0,0.0
2320,62.0,0,90,0.0,0.0
2321,48.0,24,20,0.0,0.0
2322,46.0,24,20,0.0,0.0
2323,66.0,0,60,0.0,0.0
2324,48.0,48,20,0.0,0.0
2325,46.0,0,90,0.0,0.0
2326,67.0,48,60,0.0,0.0
2327,70.0,48,60,0.0,0.0
2328,48.0,0,90,0.0,0.0
2329,69.0,48,60,0.0,0.0
2330,63.0,48,90,0.0,0.0
2331,67.0,0,60,0.0,0.0
2332,62.0,0,90,0.0,0.0
2333,66.0,0,60,0.0,0.0
2334,50.0,48,60,0.0,0.0
2335,48.0,0,60,0.0,0.0
2336,67.0,48,60,0.0,0.0
2337,60.0,48,90,0.0,0.0
2338,63.0,48,60,0.0,0.0
2339,50.0,0,90,0.0,0.0
2340,66.0,0,60,0.0,0.0
2341,43.0,48,180,0.0,0.0
2342,67.0,48,60,0.0,0.0
2343,62.0,48,60,0.0,0.0
2344,58.0,48,60,0.0,0.0
2345,67.0,48,150,0.0,0.0
2346,57.0,0,60,0.0,0.0
2347,58.0,0,90,0.0,0.0
2348,70.0,48,60,0.0,0.0
2349,60.0,48,90,0.0,0.0
2350,69.0,48,60,0.0,0.0
2351,72.0,0,60,0.0,0.0
2352,70.0,0,390,0.0,0.0
2353,62.0,48,60,0.0,0.0
2354,63.0,48,60,0.0,0.0
2355,55.0,0,60,0.0,0.0
2356,62.0,48,60,0.0,0.0
2357,57.0,0,60,0.0,0.0
2358,61.0,48,60,0.0,0.0
2359,55.0,48,90,0.0,0.0
2360,62.0,48,60,0.0,0.0
2361,65.0,0,60,0.0,0.0
2362,49.0,0,90,0.0,0.0
2363,64.0,48,60,0.0,0.0
2364,67.0,48,60,0.0,0.0
2365,70.0,0,90,0.0,0.0
2366,50.0,0,90,0.0,0.0
2367,65.0,48,60,0.0,0.0
2368,64.0,48,60,0.0,0.0
2369,62.0,48,150,0.0,0.0
2370,65.0,0,150,0.0,0.0
2371,69.0,48,60,0.0,0.0
2372,67.0,48,60,0.0,0.0
2373,69.0,0,90,0.0,0.0
2374,60.0,0,60,0.0,0.0
2375,64.0,48,60,0.0,0.0
2376,62.0,0,60,0.0,0.0
2377,58.0,48,60,0.0,0.0
2378,74.0,0,90,0.0,0.0
2379,57.0,0,60,0.0,0.0
2380,65.0,48,60,0.0,0.0
2381,74.0,48,60,0.0,0.0
2382,64.0,0,60,0.0,0.0
2383,55.0,0,150,0.0,0.0
2384,72.0,0,60,0.0,0.0
2385,66.0,48,60,0.0,0.0
2386,71.0,48,60,0.0,0.0
2387,67.0,48,150,0.0,0.0
2388,53.0,48,60,0.0,0.0
2389,74.0,0,60,0.0,0.0
2390,52.0,0,60,0.0,0.0
2391,73.0,0,60,0.0,0.0
2392,50.0,48,60,0.0,0.0
2393,74.0,0,60,0.0,0.0
2394,65.0,0,60,0.0,0.0
2395,49.0,0,60,0.0,0.0
2396,76.0,0,90,0.0,0.0
2397,64.0,48,60,0.0,0.0
2398,58.0,48,60,0.0,0.0
2399,67.0,0,60,0.0,0.0
2400,65.0,48,60,0.0,0.0
2401,76.0,0,60,0.0,0.0
2402,57.0,0,150,0.0,0.0
2403,74.0,48,60,0.0,0.0
2404,67.0,0,60,0.0,0.0
2405,73.0,48,60,0.0,0.0
2406,69.0,0,150,0.0,0.0
2407,55.0,0,60,0.0,0.0
2408,76.0,48,60,0.0,0.0
2409,74.0,0,60,0.0,0.0
2410,53.0,48,60,0.0,0.0
2411,76.0,0,60,0.0,0.0
2412,52.0,0,60,0.0,0.0
2413,67.0,48,60,0.0,0.0
2414,50.0,0,60,0.0,0.0
2415,65.0,48,60,0.0,0.0
2416,60.0,0,60,0.0,0.0
2417,69.0,0,60,0.0,0.0
2418,59.0,48,150,0.0,0.0
2419,68.0,0,60,0.0,0.0
2420,77.0,48,15,0.0,0.0
2421,76.0,0,60,0.0,0.0
2422,69.0,48,60,0.0,0.0
2423,71.0,0,180,0.0,0.0
2424,74.0,0,60,0.0,0.0
2425,77.0,48,60,0.0,0.0
2426,57.0,0,60,0.0,0.0
2427,56.0,0,60,0.0,0.0
2428,76.0,48,60,0.0,0.0
2429,59.0,48,60,0.0,0.0
2430,74.0,0,60,0.0,0.0
2431,73.0,0,60,0.0,0.0
2432,69.0,48,60,0.0,0.0
2433,52.0,0,90,0.0,0.0
2434,68.0,0,60,0.0,0.0
2435,71.0,48,60,0.0,0.0
2436,69.0,48,60,0.0,0.0
2437,73.0,0,90,0.0,0.0
2438,57.0,0,390,0.0,0.0
2439,64.0,48,60,0.0,0.0
2440,77.0,0,90,0.0,0.0
2441,69.0,48,15,0.0,0.0
2442,71.0,0,60,0.0,0.0
2443,69.0,48,15,0.0,0.0
2444,66.0,48,60,0.0,0.0
2445,74.0,0,60,0.0,0.0
2446,73.0,0,60,0.0,0.0
2447,76.0,48,60,0.0,0.0
2448,67.0,48,15,0.0,0.0
2449,69.0,48,90,0.0,0.0
2450,67.0,48,60,0.0,0.0
2451,64.0,0,60,0.0,0.0
2452,65.0,48,60,0.0,0.0
2453,81.0,0,15,0.0,0.0
2454,62.0,0,60,0.0,0.0
2455,59.0,48,60,0.0,0.0
2456,81.0,48,15,0.0,0.0
2457,78.0,0,60,0.0,0.0
2458,62.0,48,60,0.0,0.0
2459,61.0,0,60,0.0,0.0
2460,64.0,0,60,0.0,0.0
2461,79.0,48,15,0.0,0.0
2462,79.0,48,60,0.0,0.0
2463,57.0,48,15,0.0,0.0
2464,76.0,48,60,0.0,0.0
2465,62.0,0,60,0.0,0.0
2466,60.0,0,60,0.0,0.0
2467,77.0,48,15,0.0,0.0
2468,77.0,48,15,0.0,0.0
2469,59.0,48,90,0.0,0.0
2470,50.0,48,180,0.0,0.0
2471,74.0,0,60,0.0,0.0
2472,76.0,48,60,0.0,0.0
2473,76.0,0,60,0.0,0.0
2474,58.0,0,15,0.0,0.0
2475,76.0,48,90,0.0,0.0
2476,48.0,0,90,0.0,0.0
2477,56.0,0,60,0.0,0.0
2478,53.0,0,90,0.0,0.0
2479,69.0,0,90,0.0,0.0
2480,57.0,48,60,0.0,0.0
2481,62.0,48,90,0.0,0.0
2482,57.0,48,15,0.0,0.0
2483,47.0,0,90,0.0,0.0
2484,54.0,0,60,0.0,0.0
2485,64.0,0,90,0.0,0.0
2486,55.0,48,60,0.0,0.0
2487,46.0,48,90,0.0,0.0
2488,55.0,0,60,0.0,0.0
2489,55.0,48,60,0.0,0.0
2490,45.0,48,90,0.0,0.0
2491,52.0,0,60,0.0,0.0
2492,65.0,0,90,0.0,0.0
2493,53.0,48,60,0.0,0.0
2494,50.0,24,90,0.0,0.0
2495,53.0,0,60,0.0,0.0
2496,67.0,24,90,0.0,0.0
2497,45.0,24,20,0.0,0.0
2498,53.0,24,60,0.0,0.0
2499,43.0,0,20,0.0,0.0
2500,45.0,24,20,0.0,0.0
2501,51.0,0,60,0.0,0.0
2502,43.0,0,20,0.0,0.0
2503,50.0,24,60,0.0,0.0
2504,45.0,24,20,0.0,0.0
2505,69.0,0,90,0.0,0.0
2506,43.0,0,20,0.0,0.0
2507,41.0,24,20,0.0,0.0
2508,49.0,0,60,0.0,0.0
2509,43.0,48,20,0.0,0.0
2510,50.0,48,60,0.0,0.0
2511,41.0,0,90,0.0,0.0
2512,53.0,48,60,0.0,0.0
2513,52.0,48,60,0.0,0.0
2514,70.0,0,90,0.0,0.0
2515,43.0,0,90,0.0,0.0
2516,50.0,48,60,0.0,0.0
2517,45.0,48,60,0.0,0.0
2518,69.0,0,90,0.0,0.0
2519,49.0,0,60,0.0,0.0
2520,43.0,48,60,0.0,0.0
2521,50.0,0,60,0.0,0.0
2522,47.0,48,60,0.0,0.0
2523,45.0,0,90,0.0,0.0
2524,67.0,0,90,0.0,0.0
2525,49.0,48,60,0.0,0.0
2526,38.0,48,90,0.0,0.0
2527,50.0,48,60,0.0,0.0
2528,52.0,0,60,0.0,0.0
2529,50.0,48,150,0.0,0.0
2530,53.0,0,60,0.0,0.0
2531,65.0,48,60,0.0,0.0
2532,55.0,48,60,0.0,0.0
2533,64.0,0,60,0.0,0.0
2534,57.0,48,90,0.0,0.0
2535,65.0,0,90,0.0,0.0
2536,48.0,0,60,0.0,0.0
2537,46.0,48,60,0.0,0.0
2538,62.0,48,90,0.0,0.0
2539,67.0,0,90,0.0,0.0
2540,50.0,0,60,0.0,0.0
2541,48.0,0,90,0.0,0.0
2542,54.0,48,90,0.0,0.0
2543,69.0,48,60,0.0,0.0
2544,67.0,0,60,0.0,0.0
2545,60.0,48,150,0.0,0.0
2546,57.0,48,90,0.0,0.0
2547,66.0,48,60,0.0,0.0
2548,69.0,0,60,0.0,0.0
2549,62.0,0,90,0.0,0.0
2550,58.0,0,60,0.0,0.0
2551,57.0,48,60,0.0,0.0
2552,66.0,0,90,0.0,0.0
2553,60.0,0,60,0.0,0.0
2554,67.0,48,150,0.0,0.0
2555,58.0,48,90,0.0,0.0
2556,74.0,48,15,0.0,0.0
2557,72.0,0,60,0.0,0.0
2558,70.0,0,60,0.0,0.0
2559,46.0,48,150,0.0,0.0
2560,65.0,0,60,0.0,0.0
2561,74.0,48,60,0.0,0.0
2562,64.0,0,90,0.0,0.0
2563,67.0,0,90,0.0,0.0
2564,45.0,48,60,0.0,0.0
2565,63.0,0,90,0.0,0.0
2566,43.0,48,60,0.0,0.0
2567,46.0,0,60,0.0,0.0
2568,63.0,0,60,0.0,0.0
2569,72.0,48,15,0.0,0.0
2570,45.0,48,90,0.0,0.0
2571,62.0,0,60,0.0,0.0
2572,70.0,0,60,0.0,0.0
2573,60.0,0,60,0.0,0.0
2574,57.0,48,150,0.0,0.0
2575,69.0,48,60,0.0,0.0
2576,63.0,0,60,0.0,0.0
2577,72.0,48,60,0.0,0.0
2578,70.0,0,90,0.0,0.0
2579,55.0,48,60,0.0,0.0
2580,62.0,0,15,0.0,0.0
2581,54.0,48,60,0.0,0.0
2582,57.0,0,60,0.0,0.0
2583,62.0,0,15,0.0,0.0
2584,70.0,24,15,0.0,0.0
2585,72.0,24,20,0.0,0.0
2586,70.0,24,20,0.0,0.0
2587,69.0,0,20,0.0,0.0
2588,67.0,24,20,0.0,0.0
2589,55.0,24,15,0.0,0.0
2590,70.0,0,20,0.0,0.0
2591,55.0,0,15,0.0,0.0
2592,58.0,24,15,0.0,0.0
2593,72.0,24,20,0.0,0.0
2594,74.0,0,20,0.0,0.0
2595,58.0,24,90,0.0,0.0
2596,55.0,24,15,0.0,0.0
2597,75.0,24,20,0.0,0.0
2598,77.0,24,20,0.0,0.0
2599,75.0,24,20,0.0,0.0
2600,74.0,0,20,0.0,0.0
2601,55.0,0,15,0.0,0.0
2602,73.0,24,20,0.0,0.0
2603,74.0,24,20,0.0,0.0
2604,52.0,0,15,0.0,0.0
2605,55.0,0,60,0.0,0.0
2606,76.0,24,20,0.0,0.0
2607,77.0,24,20,0.0,0.0
2608,79.0,24,20,0.0,0.0
2609,52.0,0,15,0.0,0.0
2610,55.0,0,90,0.0,0.0
2611,81.0,24,20,0.0,0.0
2612,79.0,24,20,0.0,0.0
2613,77.0,24,20,0.0,0.0
2614,58.0,0,60,0.0,0.0
2615,76.0,24,20,0.0,0.0
2616,77.0,24,20,0.0,0.0
2617,49.0,0,15,0.0,0.0
2618,58.0,48,60,0.0,0.0
2619,79.0,24,20,0.0,0.0
2620,81.0,0,20,0.0,0.0
2621,52.0,0,90,0.0,0.0
2622,49.0,24,90,0.0,0.0
2623,82.0,24,60,0.0,0.0
2624,81.0,24,20,0.0,0.0
2625,79.0,0,20,0.0,0.0
2626,77.0,24,20,0.0,0.0
2627,76.0,24,20,0.0,0.0
2628,74.0,24,20,0.0,0.0
2629,73.0,96,20,0.0,0.0
2630,74.0,0,300,0.0,0.0
2631,56.0,48,90,0.0,0.0
2632,65.0,48,15,0.0,0.0
2633,64.0,0,15,0.0,0.0
2634,57.0,0,90,0.0,0.0
2635,67.0,48,60,0.0,0.0
2636,45.0,0,90,0.0,0.0
2637,73.0,48,90,0.0,0.0
2638,67.0,48,60,0.0,0.0
2639,66.0,0,60,0.0,0.0
2640,50.0,0,390,0.0,0.0
2641,66.0,48,60,0.0,0.0
2642,74.0,48,90,0.0,0.0
2643,69.0,0,15,0.0,0.0
2644,72.0,48,90,0.0,0.0
2645,67.0,0,60,0.0,0.0
2646,71.0,48,60,0.0,0.0
2647,67.0,48,90,0.0,0.0
2648,79.0,0,60,0.0,0.0
2649,70.0,0,90,0.0,0.0
2650,79.0,48,60,0.0,0.0
2651,69.0,0,90,0.0,0.0
2652,78.0,48,15,0.0,0.0
2653,50.0,0,180,0.0,0.0
2654,72.0,0,90,0.0,0.0
2655,81.0,48,15,0.0,0.0
2656,79.0,48,15,0.0,0.0
2657,70.0,48,60,0.0,0.0
2658,77.0,48,60,0.0,0.0
2659,69.0,0,60,0.0,0.0
2660,75.0,48,60,0.0,0.0
2661,74.0,0,60,0.0,0.0
2662,70.0,48,15,0.0,0.0
2663,73.0,0,90,0.0,0.0
2664,68.0,48,60,0.0,0.0
2665,69.0,48,60,0.0,0.0
2666,45.0,48,90,0.0,0.0
2667,77.0,0,90,0.0,0.0
2668,71.0,0,90,0.0,0.0
2669,38.0,48,90,0.0,0.0
2670,69.0,0,15,0.0,0.0
2671,66.0,0,60,0.0,0.0
2672,70.0,0,90,0.0,0.0
2673,40.0,0,90,0.0,0.0
2674,67.0,48,15,0.0,0.0
2675,69.0,48,90,0.0,0.0
2676,67.0,48,15,0.0,0.0
2677,64.0,0,60,0.0,0.0
2678,41.0,0,90,0.0,0.0
2679,74.0,24,90,0.0,0.0
2680,65.0,48,15,0.0,0.0
2681,65.0,0,15,0.0,0.0
2682,69.0,24,20,0.0,0.0
2683,43.0,0,90,0.0,0.0
2684,67.0,0,20,0.0,0.0
2685,63.0,0,60,0.0,0.0
2686,69.0,24,20,0.0,0.0
2687,67.0,24,20,0.0,0.0
2688,62.0,0,60,0.0,0.0
2689,45.0,48,90,0.0,0.0
2690,69.0,24,20,0.0,0.0
2691,67.0,24,20,0.0,0.0
2692,61.0,0,60,0.0,0.0
2693,65.0,24,20,0.0,0.0
2694,67.0,0,20,0.0,0.0
2695,62.0,48,60,0.0,0.0
2696,65.0,0,60,0.0,0.0
2697,67.0,0,90,0.0,0.0
2698,64.0,48,60,0.0,0.0
2699,46.0,0,90,0.0,0.0
2700,62.0,48,60,0.0,0.0
2701,61.0,48,60,0.0,0.0
2702,69.0,0,60,0.0,0.0
2703,45.0,0,90,0.0,0.0
2704,67.0,0,60,0.0,0.0
2705,62.0,48,60,0.0,0.0
2706,59.0,48,60,0.0,0.0
2707,69.0,48,90,0.0,0.0
2708,43.0,0,90,0.0,0.0
2709,61.0,0,60,0.0,0.0
2710,62.0,48,60,0.0,0.0
2711,58.0,48,60,0.0,0.0
2712,41.0,0,60,0.0,0.0
2713,57.0,48,60,0.0,0.0
2714,40.0,0,60,0.0,0.0
2715,55.0,48,60,0.0,0.0
2716,41.0,24,90,0.0,0.0
2717,57.0,24,60,0.0,0.0
2718,62.0,24,20,0.0,0.0
2719,60.0,0,20,0.0,0.0
2720,43.0,24,90,0.0,0.0
2721,58.0,24,20,0.0,0.0
2722,57.0,48,20,0.0,0.0
2723,55.0,0,60,0.0,0.0
2724,53.0,24,90,0.0,0.0
2725,62.0,24,20,0.0,0.0
2726,45.0,0,390,0.0,0.0
2727,59.0,24,20,0.0,0.0
2728,61.0,24,20,0.0,0.0
2729,62.0,0,20,0.0,0.0
2730,64.0,24,20,0.0,0.0
2731,52.0,0,60,0.0,0.0
2732,65.0,24,20,0.0,0.0
2733,50.0,0,60,0.0,0.0
2734,67.0,24,20,0.0,0.0
2735,64.0,24,20,0.0,0.0
2736,52.0,24,60,0.0,0.0
2737,62.0,24,20,0.0,0.0
2738,61.0,0,20,0.0,0.0
2739,62.0,24,20,0.0,0.0
2740,53.0,0,60,0.0,0.0
2741,61.0,24,20,0.0,0.0
2742,62.0,24,20,0.0,0.0
2743,61.0,24,20,0.0,0.0
2744,59.0,24,20,0.0,0.0
2745,61.0,96,20,0.0,0.0
2746,55.0,0,15,0.0,0.0
2747,62.0,0,300,0.0,0.0
2748,38.0,96,300,0.0,0.0
2749,54.0,0,180,0.0,0.0
