,note,step,duration,channel,velocity
0,71.0,0,120,0.0,100.0
1,69.0,120,120,0.0,100.0
2,67.0,120,120,0.0,100.0
3,66.0,120,120,0.0,100.0
4,64.0,120,120,0.0,100.0
5,55.0,0,600,1.0,100.0
6,59.0,120,120,1.0,100.0
7,62.0,0,120,0.0,100.0
8,64.0,120,120,1.0,100.0
9,62.0,120,120,1.0,100.0
10,61.0,120,120,1.0,100.0
11,59.0,120,120,1.0,100.0
12,57.0,120,120,1.0,100.0
13,61.0,0,600,0.0,100.0
14,64.0,120,120,0.0,100.0
15,55.0,0,120,1.0,100.0
16,69.0,120,120,0.0,100.0
17,67.0,120,120,0.0,100.0
18,66.0,120,120,0.0,100.0
19,64.0,120,120,0.0,100.0
20,62.0,120,120,0.0,100.0
21,54.0,0,600,1.0,100.0
22,61.0,120,120,0.0,100.0
23,64.0,0,120,1.0,100.0
24,62.0,0,120,1.0,100.0
25,61.0,120,120,1.0,100.0
26,59.0,120,120,1.0,100.0
27,57.0,120,120,1.0,100.0
28,59.0,120,600,0.0,100.0
29,55.0,120,120,1.0,100.0
30,69.0,120,120,0.0,100.0
31,54.0,0,120,1.0,100.0
32,67.0,120,120,0.0,100.0
33,52.0,0,240,1.0,100.0
34,66.0,120,120,0.0,100.0
35,55.0,0,120,1.0,100.0
36,64.0,120,120,0.0,100.0
37,62.0,0,120,0.0,100.0
38,61.0,120,120,0.0,100.0
39,59.0,120,240,1.0,100.0
40,62.0,120,120,1.0,100.0
41,59.0,0,120,0.0,100.0
42,61.0,120,120,1.0,100.0
43,57.0,0,240,0.0,100.0
44,59.0,120,120,1.0,100.0
45,61.0,0,120,0.0,100.0
46,57.0,120,120,1.0,100.0
47,55.0,0,120,1.0,100.0
48,64.0,120,240,0.0,100.0
49,54.0,120,120,1.0,100.0
50,67.0,120,120,0.0,100.0
51,52.0,0,120,1.0,100.0
52,50.0,0,120,1.0,100.0
53,66.0,120,120,0.0,100.0
54,64.0,120,120,0.0,100.0
55,52.0,0,120,1.0,100.0
56,54.0,120,120,1.0,100.0
57,62.0,0,120,0.0,100.0
58,61.0,0,120,0.0,100.0
59,55.0,120,120,1.0,100.0
60,59.0,0,120,0.0,100.0
61,57.0,120,120,1.0,100.0
62,57.0,0,120,0.0,100.0
63,59.0,120,120,1.0,100.0
64,61.0,0,120,1.0,100.0
65,55.0,120,120,0.0,100.0
66,62.0,0,120,1.0,100.0
67,54.0,120,120,0.0,100.0
68,64.0,120,120,1.0,100.0
69,52.0,0,120,0.0,100.0
70,50.0,0,120,0.0,100.0
71,66.0,120,120,1.0,100.0
72,67.0,120,120,1.0,100.0
73,52.0,0,120,0.0,100.0
74,48.0,0,120,0.0,100.0
75,69.0,0,0,1.0,100.0
76,47.0,120,120,0.0,100.0
77,67.0,120,60,1.0,100.0
78,69.0,60,60,1.0,100.0
79,50.0,0,120,0.0,100.0
80,67.0,0,60,1.0,100.0
81,55.0,60,120,0.0,100.0
82,69.0,60,60,1.0,100.0
83,67.0,60,60,1.0,100.0
84,59.0,0,120,0.0,100.0
85,69.0,60,60,1.0,100.0
86,67.0,60,60,1.0,100.0
87,69.0,60,60,1.0,100.0
88,62.0,0,120,0.0,100.0
89,67.0,60,60,1.0,100.0
90,67.0,0,120,0.0,100.0
91,69.0,60,60,1.0,100.0
92,62.0,0,120,0.0,100.0
93,59.0,120,120,0.0,100.0
94,67.0,60,240,1.0,100.0
95,59.0,120,120,1.0,100.0
96,55.0,0,120,0.0,100.0
97,53.0,0,120,0.0,100.0
98,52.0,120,120,0.0,100.0
99,62.0,120,240,1.0,100.0
100,50.0,120,120,0.0,100.0
101,67.0,0,120,1.0,100.0
102,66.0,0,120,1.0,100.0
103,49.0,120,120,0.0,100.0
104,67.0,120,60,1.0,100.0
105,69.0,60,60,1.0,100.0
106,52.0,0,120,0.0,100.0
107,67.0,0,60,1.0,100.0
108,69.0,60,60,1.0,100.0
109,55.0,60,120,0.0,100.0
110,67.0,60,60,1.0,100.0
111,69.0,60,60,1.0,100.0
112,58.0,0,120,0.0,100.0
113,67.0,0,60,1.0,100.0
114,64.0,60,120,0.0,100.0
115,69.0,60,60,1.0,100.0
116,67.0,0,60,1.0,100.0
117,69.0,60,60,1.0,100.0
118,67.0,60,120,0.0,100.0
119,64.0,0,120,0.0,100.0
120,58.0,120,120,0.0,100.0
121,67.0,60,240,1.0,100.0
122,61.0,120,120,1.0,100.0
123,57.0,0,120,0.0,100.0
124,55.0,0,120,0.0,100.0
125,54.0,120,120,0.0,100.0
126,64.0,120,240,1.0,100.0
127,52.0,0,120,0.0,100.0
128,67.0,120,120,1.0,100.0
129,66.0,0,120,1.0,100.0
130,50.0,120,120,0.0,100.0
131,67.0,120,60,1.0,100.0
132,69.0,60,60,1.0,100.0
133,55.0,0,120,0.0,100.0
134,67.0,60,60,1.0,100.0
135,59.0,0,120,0.0,100.0
136,69.0,60,60,1.0,100.0
137,67.0,0,60,1.0,100.0
138,62.0,60,120,0.0,100.0
139,69.0,60,60,1.0,100.0
140,67.0,0,60,1.0,100.0
141,69.0,60,60,1.0,100.0
142,67.0,60,120,0.0,100.0
143,67.0,60,60,1.0,100.0
144,71.0,0,120,0.0,100.0
145,69.0,60,60,1.0,100.0
146,69.0,0,120,0.0,100.0
147,67.0,60,120,1.0,100.0
148,69.0,0,120,1.0,100.0
149,66.0,120,120,0.0,100.0
150,62.0,0,120,0.0,100.0
151,72.0,120,120,1.0,100.0
152,66.0,0,120,1.0,100.0
153,60.0,120,120,0.0,100.0
154,69.0,0,120,1.0,100.0
155,59.0,120,120,0.0,100.0
156,57.0,0,120,0.0,100.0
157,72.0,120,120,1.0,100.0
158,55.0,0,120,0.0,100.0
159,59.0,120,120,0.0,100.0
160,62.0,120,120,0.0,100.0
161,67.0,120,120,0.0,100.0
162,71.0,120,480,1.0,100.0
163,71.0,120,120,0.0,100.0
164,67.0,0,120,1.0,100.0
165,74.0,120,120,0.0,100.0
166,62.0,0,120,1.0,100.0
167,59.0,0,120,1.0,100.0
168,55.0,120,120,1.0,100.0
169,79.0,120,240,0.0,100.0
170,74.0,0,120,0.0,100.0
171,59.0,120,120,1.0,100.0
172,62.0,120,120,1.0,100.0
173,67.0,120,120,1.0,100.0
174,71.0,0,240,0.0,100.0
175,69.0,120,120,1.0,100.0
176,66.0,0,120,0.0,100.0
177,71.0,120,120,1.0,100.0
178,69.0,120,120,1.0,100.0
179,67.0,120,120,1.0,100.0
180,66.0,120,120,1.0,100.0
181,64.0,120,120,1.0,100.0
182,67.0,0,600,0.0,100.0
183,71.0,0,120,0.0,100.0
184,62.0,120,120,1.0,100.0
185,76.0,120,120,0.0,100.0
186,74.0,120,120,0.0,100.0
187,73.0,120,120,0.0,100.0
188,71.0,120,120,0.0,100.0
189,69.0,120,120,0.0,100.0
190,61.0,0,600,1.0,100.0
191,64.0,0,120,1.0,100.0
192,67.0,120,120,0.0,100.0
193,69.0,120,120,1.0,100.0
194,67.0,120,120,1.0,100.0
195,66.0,120,120,1.0,100.0
196,64.0,120,120,1.0,100.0
197,66.0,0,600,0.0,100.0
198,62.0,120,120,1.0,100.0
199,61.0,120,120,1.0,100.0
200,76.0,0,120,0.0,100.0
201,74.0,120,120,0.0,100.0
202,73.0,120,120,0.0,100.0
203,71.0,120,120,0.0,100.0
204,69.0,120,120,0.0,100.0
205,67.0,120,120,0.0,100.0
206,59.0,0,600,1.0,100.0
207,69.0,0,120,1.0,100.0
208,66.0,120,120,0.0,100.0
209,67.0,120,120,1.0,100.0
210,66.0,120,120,1.0,100.0
211,64.0,120,120,1.0,100.0
212,64.0,0,480,0.0,100.0
213,62.0,120,120,1.0,100.0
214,61.0,120,120,1.0,100.0
215,66.0,0,120,0.0,100.0
216,59.0,120,120,1.0,100.0
217,67.0,0,120,0.0,100.0
218,64.0,0,120,1.0,100.0
219,61.0,120,120,0.0,100.0
220,71.0,120,120,0.0,100.0
221,62.0,0,120,1.0,100.0
222,69.0,120,120,0.0,100.0
223,61.0,0,120,1.0,100.0
224,67.0,120,120,0.0,100.0
225,59.0,0,120,1.0,100.0
226,69.0,120,120,0.0,100.0
227,57.0,0,120,1.0,100.0
228,71.0,0,120,0.0,100.0
229,55.0,120,120,1.0,100.0
230,61.0,0,120,1.0,100.0
231,64.0,120,120,0.0,100.0
232,59.0,120,120,1.0,100.0
233,74.0,0,120,0.0,100.0
234,73.0,0,120,0.0,100.0
235,57.0,120,120,1.0,100.0
236,71.0,120,120,0.0,100.0
237,55.0,0,120,1.0,100.0
238,73.0,120,120,0.0,100.0
239,54.0,0,120,1.0,100.0
240,52.0,120,120,1.0,100.0
241,74.0,0,120,0.0,100.0
242,57.0,120,120,1.0,100.0
243,73.0,0,120,0.0,100.0
244,55.0,120,120,1.0,100.0
245,76.0,0,120,0.0,100.0
246,78.0,0,120,0.0,100.0
247,54.0,120,120,1.0,100.0
248,79.0,0,120,0.0,100.0
249,52.0,120,120,1.0,100.0
250,78.0,0,120,0.0,100.0
251,54.0,120,120,1.0,100.0
252,76.0,0,120,0.0,100.0
253,55.0,120,120,1.0,100.0
254,76.0,120,120,0.0,100.0
255,54.0,0,120,1.0,100.0
256,74.0,0,60,0.0,100.0
257,73.0,60,60,0.0,100.0
258,57.0,120,120,1.0,100.0
259,74.0,60,60,0.0,100.0
260,62.0,0,120,1.0,100.0
261,76.0,60,60,0.0,100.0
262,74.0,60,60,0.0,100.0
263,76.0,60,60,0.0,100.0
264,66.0,0,120,1.0,100.0
265,74.0,60,60,0.0,100.0
266,69.0,0,120,1.0,100.0
267,76.0,60,60,0.0,100.0
268,74.0,0,60,0.0,100.0
269,76.0,60,60,0.0,100.0
270,74.0,60,120,1.0,100.0
271,69.0,60,120,1.0,100.0
272,74.0,0,240,0.0,100.0
273,66.0,120,120,1.0,100.0
274,66.0,0,120,0.0,100.0
275,62.0,120,120,1.0,100.0
276,60.0,0,120,1.0,100.0
277,59.0,120,120,1.0,100.0
278,69.0,120,240,0.0,100.0
279,57.0,0,120,1.0,100.0
280,74.0,120,120,0.0,100.0
281,73.0,0,120,0.0,100.0
282,56.0,120,120,1.0,100.0
283,74.0,0,60,0.0,100.0
284,76.0,60,60,0.0,100.0
285,59.0,120,120,1.0,100.0
286,74.0,60,60,0.0,100.0
287,76.0,60,60,0.0,100.0
288,62.0,0,120,1.0,100.0
289,74.0,60,60,0.0,100.0
290,76.0,60,60,0.0,100.0
291,65.0,0,120,1.0,100.0
292,74.0,0,60,0.0,100.0
293,71.0,60,120,1.0,100.0
294,76.0,60,60,0.0,100.0
295,74.0,60,60,0.0,100.0
296,74.0,0,120,1.0,100.0
297,76.0,60,60,0.0,100.0
298,71.0,60,120,1.0,100.0
299,74.0,0,240,0.0,100.0
300,65.0,120,120,1.0,100.0
301,64.0,0,120,1.0,100.0
302,68.0,120,120,0.0,100.0
303,62.0,120,120,1.0,100.0
304,61.0,120,120,1.0,100.0
305,71.0,0,240,0.0,100.0
306,74.0,0,120,0.0,100.0
307,59.0,120,120,1.0,100.0
308,73.0,120,120,0.0,100.0
309,57.0,0,120,1.0,100.0
310,74.0,0,60,0.0,100.0
311,62.0,120,120,1.0,100.0
312,76.0,60,60,0.0,100.0
313,74.0,0,60,0.0,100.0
314,66.0,60,120,1.0,100.0
315,76.0,60,60,0.0,100.0
316,74.0,0,60,0.0,100.0
317,76.0,60,60,0.0,100.0
318,69.0,60,120,1.0,100.0
319,74.0,0,60,0.0,100.0
320,74.0,60,120,1.0,100.0
321,76.0,60,60,0.0,100.0
322,74.0,60,60,0.0,100.0
323,76.0,60,60,0.0,100.0
324,78.0,0,120,1.0,100.0
325,74.0,0,120,0.0,100.0
326,76.0,60,120,1.0,100.0
327,76.0,0,120,0.0,100.0
328,73.0,120,120,1.0,100.0
329,79.0,120,120,0.0,100.0
330,69.0,0,120,1.0,100.0
331,67.0,0,120,1.0,100.0
332,73.0,120,120,0.0,100.0
333,66.0,0,120,1.0,100.0
334,76.0,120,120,0.0,100.0
335,64.0,120,120,1.0,100.0
336,79.0,0,120,0.0,100.0
337,62.0,0,120,1.0,100.0
338,57.0,120,120,1.0,100.0
339,54.0,120,120,1.0,100.0
340,78.0,120,480,0.0,100.0
341,50.0,120,120,1.0,100.0
342,74.0,0,120,0.0,100.0
343,45.0,120,120,1.0,100.0
344,42.0,120,120,1.0,100.0
345,69.0,0,120,0.0,100.0
346,66.0,0,120,0.0,100.0
347,38.0,120,120,1.0,100.0
348,42.0,120,120,1.0,100.0
349,62.0,0,120,0.0,100.0
350,66.0,0,120,0.0,100.0
351,45.0,120,120,1.0,100.0
352,69.0,120,120,0.0,100.0
353,73.0,120,120,0.0,100.0
354,74.0,120,120,0.0,100.0
355,50.0,0,360,1.0,100.0
356,71.0,120,120,0.0,100.0
357,69.0,120,120,0.0,100.0
358,67.0,120,120,0.0,100.0
359,66.0,120,120,0.0,100.0
360,64.0,120,120,0.0,100.0
361,55.0,0,600,1.0,100.0
362,62.0,120,120,0.0,100.0
363,59.0,0,120,1.0,100.0
364,64.0,0,120,1.0,100.0
365,62.0,120,120,1.0,100.0
366,61.0,120,120,1.0,100.0
367,59.0,120,120,1.0,100.0
368,61.0,120,600,0.0,100.0
369,57.0,120,120,1.0,100.0
370,55.0,0,120,1.0,100.0
371,64.0,120,120,0.0,100.0
372,69.0,120,120,0.0,100.0
373,67.0,120,120,0.0,100.0
374,66.0,120,120,0.0,100.0
375,64.0,120,120,0.0,100.0
376,54.0,0,600,1.0,100.0
377,62.0,120,120,0.0,100.0
378,61.0,120,120,0.0,100.0
379,64.0,0,120,1.0,100.0
380,62.0,0,120,1.0,100.0
381,61.0,120,120,1.0,100.0
382,59.0,120,120,1.0,100.0
383,57.0,120,120,1.0,100.0
384,59.0,120,600,0.0,100.0
385,55.0,120,120,1.0,100.0
386,69.0,120,120,0.0,100.0
387,54.0,0,120,1.0,100.0
388,67.0,120,120,0.0,100.0
389,66.0,120,120,0.0,100.0
390,52.0,0,240,1.0,100.0
391,64.0,0,120,0.0,100.0
392,55.0,120,120,1.0,100.0
393,62.0,120,120,0.0,100.0
394,61.0,120,120,0.0,100.0
395,59.0,0,240,1.0,100.0
396,62.0,120,120,1.0,100.0
397,59.0,0,120,0.0,100.0
398,61.0,120,120,1.0,100.0
399,59.0,120,120,1.0,100.0
400,57.0,0,240,0.0,100.0
401,57.0,120,120,1.0,100.0
402,61.0,0,120,0.0,100.0
403,55.0,0,120,1.0,100.0
404,54.0,120,120,1.0,100.0
405,64.0,120,240,0.0,100.0
406,52.0,0,120,1.0,100.0
407,67.0,120,120,0.0,100.0
408,66.0,0,120,0.0,100.0
409,50.0,120,120,1.0,100.0
410,64.0,120,120,0.0,100.0
411,52.0,0,120,1.0,100.0
412,54.0,0,120,1.0,100.0
413,62.0,120,120,0.0,100.0
414,55.0,120,120,1.0,100.0
415,61.0,0,120,0.0,100.0
416,59.0,0,120,0.0,100.0
417,57.0,120,120,1.0,100.0
418,59.0,120,120,1.0,100.0
419,57.0,0,120,0.0,100.0
420,61.0,120,120,1.0,100.0
421,55.0,0,120,0.0,100.0
422,62.0,0,120,1.0,100.0
423,54.0,120,120,0.0,100.0
424,64.0,120,120,1.0,100.0
425,52.0,0,120,0.0,100.0
426,50.0,0,120,0.0,100.0
427,66.0,120,120,1.0,100.0
428,67.0,0,120,1.0,100.0
429,52.0,120,120,0.0,100.0
430,69.0,120,0,1.0,100.0
431,48.0,0,120,0.0,100.0
432,47.0,0,120,0.0,100.0
433,67.0,0,60,1.0,100.0
434,50.0,120,120,0.0,100.0
435,69.0,60,60,1.0,100.0
436,67.0,60,60,1.0,100.0
437,55.0,0,120,0.0,100.0
438,69.0,60,60,1.0,100.0
439,67.0,60,60,1.0,100.0
440,59.0,0,120,0.0,100.0
441,69.0,60,60,1.0,100.0
442,67.0,60,60,1.0,100.0
443,69.0,60,60,1.0,100.0
444,62.0,0,120,0.0,100.0
445,67.0,60,60,1.0,100.0
446,67.0,0,120,0.0,100.0
447,69.0,60,60,1.0,100.0
448,62.0,60,120,0.0,100.0
449,59.0,120,120,0.0,100.0
450,67.0,0,240,1.0,100.0
451,55.0,120,120,0.0,100.0
452,59.0,0,120,1.0,100.0
453,53.0,120,120,0.0,100.0
454,52.0,120,120,0.0,100.0
455,62.0,0,240,1.0,100.0
456,50.0,120,120,0.0,100.0
457,67.0,0,120,1.0,100.0
458,49.0,120,120,0.0,100.0
459,66.0,0,120,1.0,100.0
460,67.0,120,60,1.0,100.0
461,69.0,60,60,1.0,100.0
462,52.0,0,120,0.0,100.0
463,67.0,60,60,1.0,100.0
464,55.0,0,120,0.0,100.0
465,69.0,60,60,1.0,100.0
466,67.0,0,60,1.0,100.0
467,58.0,60,120,0.0,100.0
468,69.0,60,60,1.0,100.0
469,67.0,0,60,1.0,100.0
470,64.0,60,120,0.0,100.0
471,69.0,60,60,1.0,100.0
472,67.0,0,60,1.0,100.0
473,67.0,60,120,0.0,100.0
474,69.0,60,60,1.0,100.0
475,64.0,60,120,0.0,100.0
476,58.0,120,120,0.0,100.0
477,67.0,0,240,1.0,100.0
478,57.0,120,120,0.0,100.0
479,61.0,0,120,1.0,100.0
480,55.0,120,120,0.0,100.0
481,64.0,0,240,1.0,100.0
482,54.0,120,120,0.0,100.0
483,67.0,0,120,1.0,100.0
484,52.0,120,120,0.0,100.0
485,50.0,120,120,0.0,100.0
486,66.0,0,120,1.0,100.0
487,67.0,0,60,1.0,100.0
488,69.0,60,60,1.0,100.0
489,55.0,120,120,0.0,100.0
490,67.0,0,60,1.0,100.0
491,69.0,60,60,1.0,100.0
492,59.0,60,120,0.0,100.0
493,67.0,60,60,1.0,100.0
494,69.0,60,60,1.0,100.0
495,62.0,0,120,0.0,100.0
496,67.0,60,60,1.0,100.0
497,69.0,60,60,1.0,100.0
498,67.0,0,120,0.0,100.0
499,67.0,60,60,1.0,100.0
500,69.0,60,60,1.0,100.0
501,71.0,0,120,0.0,100.0
502,67.0,0,120,1.0,100.0
503,69.0,60,120,0.0,100.0
504,69.0,120,120,1.0,100.0
505,66.0,0,120,0.0,100.0
506,72.0,120,120,1.0,100.0
507,62.0,0,120,0.0,100.0
508,66.0,0,120,1.0,100.0
509,60.0,120,120,0.0,100.0
510,59.0,0,120,0.0,100.0
511,69.0,120,120,1.0,100.0
512,57.0,120,120,0.0,100.0
513,72.0,0,120,1.0,100.0
514,55.0,120,120,0.0,100.0
515,59.0,120,120,0.0,100.0
516,62.0,120,120,0.0,100.0
517,71.0,0,480,1.0,100.0
518,67.0,120,120,0.0,100.0
519,71.0,120,120,0.0,100.0
520,67.0,0,120,1.0,100.0
521,74.0,120,120,0.0,100.0
522,62.0,0,120,1.0,100.0
523,59.0,0,120,1.0,100.0
524,79.0,120,240,0.0,100.0
525,55.0,120,120,1.0,100.0
526,74.0,120,120,0.0,100.0
527,59.0,0,120,1.0,100.0
528,62.0,120,120,1.0,100.0
529,71.0,0,240,0.0,100.0
530,67.0,120,120,1.0,100.0
531,69.0,0,120,1.0,100.0
532,66.0,120,120,0.0,100.0
533,71.0,120,120,1.0,100.0
534,69.0,120,120,1.0,100.0
535,67.0,120,120,1.0,100.0
536,66.0,120,120,1.0,100.0
537,64.0,120,120,1.0,100.0
538,67.0,0,600,0.0,100.0
539,62.0,120,120,1.0,100.0
540,71.0,0,120,0.0,100.0
541,76.0,0,120,0.0,100.0
542,74.0,120,120,0.0,100.0
543,73.0,120,120,0.0,100.0
544,71.0,120,120,0.0,100.0
545,61.0,120,600,1.0,100.0
546,69.0,120,120,0.0,100.0
547,67.0,120,120,0.0,100.0
548,64.0,0,120,1.0,100.0
549,69.0,0,120,1.0,100.0
550,67.0,120,120,1.0,100.0
551,66.0,120,120,1.0,100.0
552,64.0,120,120,1.0,100.0
553,66.0,120,600,0.0,100.0
554,62.0,120,120,1.0,100.0
555,61.0,0,120,1.0,100.0
556,76.0,120,120,0.0,100.0
557,74.0,0,120,0.0,100.0
558,73.0,120,120,0.0,100.0
559,71.0,120,120,0.0,100.0
560,69.0,120,120,0.0,100.0
561,59.0,120,600,1.0,100.0
562,67.0,120,120,0.0,100.0
563,66.0,0,120,0.0,100.0
564,69.0,120,120,1.0,100.0
565,67.0,0,120,1.0,100.0
566,66.0,120,120,1.0,100.0
567,64.0,120,120,1.0,100.0
568,64.0,120,480,0.0,100.0
569,62.0,120,120,1.0,100.0
570,61.0,0,120,1.0,100.0
571,66.0,120,120,0.0,100.0
572,59.0,120,120,1.0,100.0
573,67.0,0,120,0.0,100.0
574,64.0,120,120,1.0,100.0
575,61.0,0,120,0.0,100.0
576,71.0,0,120,0.0,100.0
577,62.0,120,120,1.0,100.0
578,61.0,0,120,1.0,100.0
579,69.0,120,120,0.0,100.0
580,67.0,0,120,0.0,100.0
581,59.0,120,120,1.0,100.0
582,57.0,120,120,1.0,100.0
583,69.0,0,120,0.0,100.0
584,71.0,120,120,0.0,100.0
585,55.0,0,120,1.0,100.0
586,64.0,120,120,0.0,100.0
587,61.0,0,120,1.0,100.0
588,59.0,0,120,1.0,100.0
589,74.0,120,120,0.0,100.0
590,73.0,0,120,0.0,100.0
591,57.0,120,120,1.0,100.0
592,71.0,0,120,0.0,100.0
593,55.0,120,120,1.0,100.0
594,54.0,120,120,1.0,100.0
595,73.0,0,120,0.0,100.0
596,74.0,120,120,0.0,100.0
597,52.0,0,120,1.0,100.0
598,57.0,120,120,1.0,100.0
599,73.0,0,120,0.0,100.0
600,76.0,0,120,0.0,100.0
601,55.0,120,120,1.0,100.0
602,78.0,120,120,0.0,100.0
603,54.0,0,120,1.0,100.0
604,79.0,120,120,0.0,100.0
605,52.0,0,120,1.0,100.0
606,54.0,120,120,1.0,100.0
607,78.0,0,120,0.0,100.0
608,55.0,120,120,1.0,100.0
609,76.0,0,120,0.0,100.0
610,76.0,0,120,0.0,100.0
611,54.0,120,120,1.0,100.0
612,74.0,0,60,0.0,100.0
613,57.0,120,120,1.0,100.0
614,73.0,60,60,0.0,100.0
615,74.0,60,60,0.0,100.0
616,76.0,60,60,0.0,100.0
617,62.0,0,120,1.0,100.0
618,74.0,60,60,0.0,100.0
619,76.0,60,60,0.0,100.0
620,66.0,0,120,1.0,100.0
621,74.0,60,60,0.0,100.0
622,76.0,60,60,0.0,100.0
623,69.0,0,120,1.0,100.0
624,74.0,60,60,0.0,100.0
625,76.0,60,60,0.0,100.0
626,74.0,0,120,1.0,100.0
627,69.0,0,120,1.0,100.0
628,74.0,60,240,0.0,100.0
629,66.0,120,120,1.0,100.0
630,62.0,120,120,1.0,100.0
631,66.0,0,120,0.0,100.0
632,60.0,120,120,1.0,100.0
633,59.0,120,120,1.0,100.0
634,69.0,0,240,0.0,100.0
635,57.0,120,120,1.0,100.0
636,74.0,0,120,0.0,100.0
637,73.0,0,120,0.0,100.0
638,56.0,120,120,1.0,100.0
639,74.0,120,60,0.0,100.0
640,76.0,60,60,0.0,100.0
641,59.0,0,120,1.0,100.0
642,74.0,60,60,0.0,100.0
643,76.0,60,60,0.0,100.0
644,62.0,0,120,1.0,100.0
645,74.0,60,60,0.0,100.0
646,65.0,0,120,1.0,100.0
647,76.0,60,60,0.0,100.0
648,74.0,60,60,0.0,100.0
649,71.0,0,120,1.0,100.0
650,76.0,60,60,0.0,100.0
651,74.0,60,60,0.0,100.0
652,76.0,60,60,0.0,100.0
653,74.0,0,120,1.0,100.0
654,71.0,60,120,1.0,100.0
655,74.0,0,240,0.0,100.0
656,65.0,120,120,1.0,100.0
657,68.0,120,120,0.0,100.0
658,64.0,0,120,1.0,100.0
659,62.0,0,120,1.0,100.0
660,61.0,120,120,1.0,100.0
661,71.0,120,240,0.0,100.0
662,74.0,0,120,0.0,100.0
663,59.0,120,120,1.0,100.0
664,73.0,120,120,0.0,100.0
665,57.0,0,120,1.0,100.0
666,74.0,120,60,0.0,100.0
667,76.0,60,60,0.0,100.0
668,62.0,0,120,1.0,100.0
669,74.0,60,60,0.0,100.0
670,66.0,0,120,1.0,100.0
671,76.0,60,60,0.0,100.0
672,74.0,60,60,0.0,100.0
673,69.0,0,120,1.0,100.0
674,76.0,60,60,0.0,100.0
675,74.0,60,60,0.0,100.0
676,74.0,0,120,1.0,100.0
677,76.0,60,60,0.0,100.0
678,74.0,0,60,0.0,100.0
679,76.0,60,60,0.0,100.0
680,78.0,60,120,1.0,100.0
681,76.0,0,120,1.0,100.0
682,74.0,60,120,0.0,100.0
683,73.0,120,120,1.0,100.0
684,76.0,0,120,0.0,100.0
685,79.0,0,120,0.0,100.0
686,69.0,120,120,1.0,100.0
687,67.0,120,120,1.0,100.0
688,73.0,0,120,0.0,100.0
689,76.0,0,120,0.0,100.0
690,66.0,120,120,1.0,100.0
691,64.0,120,120,1.0,100.0
692,79.0,0,120,0.0,100.0
693,62.0,120,120,1.0,100.0
694,57.0,120,120,1.0,100.0
695,54.0,120,120,1.0,100.0
696,78.0,0,480,0.0,100.0
697,50.0,120,120,1.0,100.0
698,45.0,120,120,1.0,100.0
699,74.0,0,120,0.0,100.0
700,42.0,120,120,1.0,100.0
701,69.0,0,120,0.0,100.0
702,38.0,120,120,1.0,100.0
703,66.0,0,120,0.0,100.0
704,42.0,120,120,1.0,100.0
705,62.0,0,120,0.0,100.0
706,66.0,0,120,0.0,100.0
707,45.0,120,120,1.0,100.0
708,69.0,120,120,0.0,100.0
709,73.0,120,120,0.0,100.0
710,50.0,120,0,1.0,100.0
711,74.0,120,120,0.0,100.0
712,52.0,120,120,1.0,100.0
713,54.0,120,120,1.0,100.0
714,55.0,120,120,1.0,100.0
715,57.0,120,120,1.0,100.0
716,59.0,120,120,1.0,100.0
717,60.0,120,120,1.0,100.0
718,81.0,0,120,0.0,100.0
719,50.0,0,120,1.0,100.0
720,79.0,120,120,0.0,100.0
721,78.0,0,120,0.0,100.0
722,76.0,120,120,0.0,100.0
723,60.0,120,240,1.0,100.0
724,59.0,120,120,1.0,100.0
725,74.0,0,120,0.0,100.0
726,57.0,120,120,1.0,100.0
727,72.0,0,120,0.0,100.0
728,55.0,120,120,1.0,100.0
729,71.0,0,120,0.0,100.0
730,57.0,120,120,1.0,100.0
731,69.0,0,120,0.0,100.0
732,59.0,120,120,1.0,100.0
733,67.0,0,120,0.0,100.0
734,60.0,120,120,1.0,100.0
735,62.0,120,120,1.0,100.0
736,64.0,120,120,1.0,100.0
737,86.0,120,120,0.0,100.0
738,65.0,0,120,1.0,100.0
739,55.0,0,120,1.0,100.0
740,84.0,120,120,0.0,100.0
741,83.0,120,120,0.0,100.0
742,81.0,120,120,0.0,100.0
743,65.0,0,240,1.0,100.0
744,79.0,120,120,0.0,100.0
745,64.0,0,120,1.0,100.0
746,62.0,0,120,1.0,100.0
747,77.0,120,120,0.0,100.0
748,76.0,120,120,0.0,100.0
749,74.0,120,120,0.0,100.0
750,72.0,120,120,0.0,100.0
751,71.0,120,120,0.0,100.0
752,60.0,0,480,1.0,100.0
753,69.0,120,120,0.0,100.0
754,64.0,0,120,1.0,100.0
755,67.0,0,120,1.0,100.0
756,67.0,120,120,0.0,100.0
757,72.0,120,120,1.0,100.0
758,66.0,0,240,0.0,100.0
759,71.0,120,120,1.0,100.0
760,75.0,120,120,0.0,100.0
761,69.0,0,120,1.0,100.0
762,67.0,0,120,1.0,100.0
763,66.0,120,120,1.0,100.0
764,76.0,120,240,0.0,100.0
765,64.0,0,120,1.0,100.0
766,70.0,120,120,0.0,100.0
767,63.0,120,120,1.0,100.0
768,61.0,120,120,1.0,100.0
769,71.0,0,240,0.0,100.0
770,59.0,0,120,1.0,100.0
771,63.0,120,120,0.0,100.0
772,57.0,120,120,1.0,100.0
773,55.0,120,120,1.0,100.0
774,66.0,0,240,0.0,100.0
775,54.0,0,120,1.0,100.0
776,69.0,120,120,0.0,100.0
777,72.0,120,120,0.0,100.0
778,52.0,0,120,1.0,100.0
779,51.0,0,120,1.0,100.0
780,71.0,120,120,0.0,100.0
781,49.0,120,120,1.0,100.0
782,69.0,0,120,0.0,100.0
783,67.0,120,120,0.0,100.0
784,47.0,0,120,1.0,100.0
785,48.0,0,120,1.0,100.0
786,69.0,120,120,0.0,100.0
787,45.0,120,120,1.0,100.0
788,66.0,0,120,0.0,100.0
789,64.0,120,120,0.0,100.0
790,67.0,120,120,0.0,100.0
791,71.0,120,120,0.0,100.0
792,43.0,0,480,1.0,100.0
793,76.0,120,120,0.0,100.0
794,79.0,0,120,0.0,100.0
795,47.0,120,120,1.0,100.0
796,52.0,120,120,1.0,100.0
797,83.0,0,120,0.0,100.0
798,55.0,0,120,1.0,100.0
799,79.0,120,120,0.0,100.0
800,59.0,0,120,1.0,100.0
801,76.0,120,120,0.0,100.0
802,63.0,120,120,1.0,100.0
803,71.0,0,120,0.0,100.0
804,67.0,0,120,0.0,100.0
805,64.0,120,240,1.0,100.0
806,66.0,120,120,0.0,100.0
807,64.0,0,120,0.0,100.0
808,43.0,120,120,1.0,100.0
809,65.0,120,120,0.0,100.0
810,69.0,120,120,0.0,100.0
811,72.0,120,120,0.0,100.0
812,45.0,0,480,1.0,100.0
813,77.0,120,120,0.0,100.0
814,48.0,120,120,1.0,100.0
815,81.0,0,120,0.0,100.0
816,53.0,120,120,1.0,100.0
817,84.0,0,120,0.0,100.0
818,81.0,0,120,0.0,100.0
819,57.0,120,120,1.0,100.0
820,77.0,0,120,0.0,100.0
821,60.0,120,120,1.0,100.0
822,72.0,120,120,0.0,100.0
823,63.0,0,120,1.0,100.0
824,69.0,120,120,0.0,100.0
825,67.0,120,120,0.0,100.0
826,64.0,0,240,1.0,100.0
827,46.0,120,120,1.0,100.0
828,66.0,0,120,0.0,100.0
829,67.0,0,120,0.0,100.0
830,71.0,120,120,0.0,100.0
831,76.0,120,120,0.0,100.0
832,79.0,120,120,0.0,100.0
833,47.0,120,480,1.0,100.0
834,49.0,120,120,1.0,100.0
835,76.0,0,120,0.0,100.0
836,51.0,120,120,1.0,100.0
837,84.0,0,120,0.0,100.0
838,52.0,0,120,1.0,100.0
839,83.0,120,120,0.0,100.0
840,54.0,120,120,1.0,100.0
841,81.0,0,120,0.0,100.0
842,55.0,0,120,1.0,100.0
843,79.0,120,120,0.0,100.0
844,78.0,120,120,0.0,100.0
845,57.0,0,120,1.0,100.0
846,55.0,0,120,1.0,100.0
847,76.0,120,120,0.0,100.0
848,54.0,120,120,1.0,100.0
849,75.0,0,120,0.0,100.0
850,76.0,0,120,0.0,100.0
851,55.0,120,120,1.0,100.0
852,52.0,120,120,1.0,100.0
853,79.0,0,120,0.0,100.0
854,76.0,0,120,0.0,100.0
855,55.0,120,120,1.0,100.0
856,71.0,0,120,0.0,100.0
857,59.0,120,120,1.0,100.0
858,64.0,0,120,1.0,100.0
859,67.0,120,120,0.0,100.0
860,66.0,0,120,0.0,100.0
861,63.0,120,120,1.0,100.0
862,64.0,120,120,1.0,100.0
863,67.0,0,120,0.0,100.0
864,64.0,0,120,0.0,100.0
865,67.0,120,120,1.0,100.0
866,67.0,120,120,0.0,100.0
867,64.0,0,120,1.0,100.0
868,59.0,0,120,1.0,100.0
869,71.0,120,120,0.0,100.0
870,76.0,120,120,0.0,100.0
871,55.0,0,120,1.0,100.0
872,75.0,120,120,0.0,100.0
873,59.0,0,120,1.0,100.0
874,76.0,120,120,0.0,100.0
875,74.0,120,120,0.0,100.0
876,72.0,120,120,0.0,100.0
877,71.0,120,120,0.0,100.0
878,48.0,0,600,1.0,100.0
879,69.0,120,120,0.0,100.0
880,67.0,120,120,0.0,100.0
881,64.0,0,120,1.0,100.0
882,69.0,0,120,1.0,100.0
883,67.0,120,120,1.0,100.0
884,66.0,120,120,1.0,100.0
885,64.0,120,120,1.0,100.0
886,62.0,120,120,1.0,100.0
887,66.0,120,600,0.0,100.0
888,60.0,120,120,1.0,100.0
889,69.0,0,120,0.0,100.0
890,74.0,120,120,0.0,100.0
891,72.0,120,120,0.0,100.0
892,71.0,120,120,0.0,100.0
893,69.0,120,120,0.0,100.0
894,59.0,0,600,1.0,100.0
895,67.0,120,120,0.0,100.0
896,66.0,0,120,0.0,100.0
897,69.0,120,120,1.0,100.0
898,67.0,120,120,1.0,100.0
899,66.0,120,120,1.0,100.0
900,64.0,120,120,1.0,100.0
901,62.0,120,120,1.0,100.0
902,60.0,120,120,1.0,100.0
903,64.0,0,600,0.0,100.0
904,59.0,120,120,1.0,100.0
905,74.0,0,120,0.0,100.0
906,72.0,120,120,0.0,100.0
907,71.0,120,120,0.0,100.0
908,69.0,120,120,0.0,100.0
909,57.0,0,480,1.0,100.0
910,67.0,120,120,0.0,100.0
911,66.0,120,120,0.0,100.0
912,59.0,0,120,1.0,100.0
913,64.0,120,120,0.0,100.0
914,60.0,0,120,1.0,100.0
915,66.0,120,120,0.0,100.0
916,62.0,0,120,1.0,100.0
917,64.0,120,120,1.0,100.0
918,64.0,0,120,0.0,100.0
919,62.0,120,120,0.0,100.0
920,66.0,0,120,1.0,100.0
921,61.0,0,120,0.0,100.0
922,67.0,120,120,1.0,100.0
923,66.0,120,120,1.0,100.0
924,62.0,0,120,0.0,100.0
925,64.0,0,120,0.0,100.0
926,64.0,120,120,1.0,100.0
927,66.0,0,120,0.0,100.0
928,64.0,120,120,0.0,100.0
929,62.0,120,120,0.0,100.0
930,60.0,120,120,0.0,100.0
931,62.0,120,480,1.0,100.0
932,59.0,120,120,0.0,100.0
933,64.0,0,120,1.0,100.0
934,66.0,0,120,1.0,100.0
935,57.0,120,120,0.0,100.0
936,59.0,0,120,0.0,100.0
937,67.0,120,120,1.0,100.0
938,57.0,120,120,0.0,100.0
939,69.0,0,120,1.0,100.0
940,55.0,120,120,0.0,100.0
941,71.0,0,120,1.0,100.0
942,54.0,120,120,0.0,100.0
943,72.0,0,120,1.0,100.0
944,55.0,120,120,0.0,100.0
945,71.0,0,120,1.0,100.0
946,57.0,0,120,0.0,100.0
947,69.0,120,120,1.0,100.0
948,59.0,120,120,0.0,100.0
949,57.0,120,120,0.0,100.0
950,55.0,120,120,0.0,100.0
951,53.0,120,120,0.0,100.0
952,67.0,0,480,1.0,100.0
953,52.0,120,120,0.0,100.0
954,69.0,0,120,1.0,100.0
955,71.0,0,120,1.0,100.0
956,50.0,120,120,0.0,100.0
957,52.0,0,120,0.0,100.0
958,72.0,120,120,1.0,100.0
959,50.0,120,120,0.0,100.0
960,74.0,0,120,1.0,100.0
961,48.0,0,120,0.0,100.0
962,76.0,120,120,1.0,100.0
963,77.0,0,120,1.0,100.0
964,47.0,120,120,0.0,100.0
965,48.0,0,120,0.0,100.0
966,76.0,120,120,1.0,100.0
967,50.0,0,120,0.0,100.0
968,74.0,120,120,1.0,100.0
969,52.0,120,120,0.0,100.0
970,48.0,120,120,0.0,100.0
971,52.0,120,120,0.0,100.0
972,55.0,120,120,0.0,100.0
973,72.0,0,480,1.0,100.0
974,60.0,120,120,0.0,100.0
975,76.0,0,120,1.0,100.0
976,72.0,120,120,1.0,100.0
977,64.0,0,120,0.0,100.0
978,69.0,0,120,1.0,100.0
979,60.0,120,120,0.0,100.0
980,64.0,0,120,1.0,100.0
981,57.0,120,120,0.0,100.0
982,60.0,0,120,1.0,100.0
983,60.0,120,120,0.0,100.0
984,64.0,0,120,0.0,100.0
985,57.0,120,120,1.0,100.0
986,60.0,120,120,1.0,100.0
987,69.0,0,120,0.0,100.0
988,72.0,0,120,0.0,100.0
989,64.0,120,120,1.0,100.0
990,69.0,0,120,1.0,100.0
991,66.0,120,120,0.0,100.0
992,72.0,120,120,1.0,100.0
993,62.0,0,120,0.0,100.0
994,66.0,120,120,0.0,100.0
995,69.0,0,120,1.0,100.0
996,66.0,120,120,1.0,100.0
997,69.0,0,120,0.0,100.0
998,62.0,0,120,1.0,100.0
999,74.0,120,120,0.0,100.0
1000,78.0,0,120,0.0,100.0
1001,57.0,120,120,1.0,100.0
1002,54.0,120,120,1.0,100.0
1003,74.0,0,120,0.0,100.0
1004,50.0,0,120,1.0,100.0
1005,69.0,120,120,0.0,100.0
1006,54.0,120,120,1.0,100.0
1007,74.0,0,120,0.0,100.0
1008,57.0,120,120,1.0,100.0
1009,78.0,0,120,0.0,100.0
1010,60.0,120,120,1.0,100.0
1011,81.0,0,120,0.0,100.0
1012,54.0,120,120,1.0,100.0
1013,84.0,0,120,0.0,100.0
1014,83.0,0,120,0.0,100.0
1015,55.0,120,120,1.0,100.0
1016,59.0,0,120,1.0,100.0
1017,79.0,120,120,0.0,100.0
1018,62.0,120,120,1.0,100.0
1019,74.0,0,120,0.0,100.0
1020,71.0,120,120,0.0,100.0
1021,67.0,0,120,1.0,100.0
1022,71.0,120,120,1.0,100.0
1023,67.0,0,120,0.0,100.0
1024,74.0,120,120,1.0,100.0
1025,66.0,0,120,0.0,100.0
1026,79.0,120,120,1.0,100.0
1027,67.0,0,120,0.0,100.0
1028,74.0,120,120,1.0,100.0
1029,71.0,0,120,0.0,100.0
1030,71.0,0,120,1.0,100.0
1031,74.0,120,120,0.0,100.0
1032,79.0,120,360,0.0,100.0
1033,67.0,0,360,1.0,100.0
1034,50.0,360,120,1.0,100.0
1035,52.0,120,120,1.0,100.0
1036,54.0,120,120,1.0,100.0
1037,55.0,120,120,1.0,100.0
1038,57.0,120,120,1.0,100.0
1039,59.0,120,120,1.0,100.0
1040,60.0,120,120,1.0,100.0
1041,81.0,0,120,0.0,100.0
1042,79.0,0,120,0.0,100.0
1043,50.0,120,120,1.0,100.0
1044,78.0,0,120,0.0,100.0
1045,76.0,120,120,0.0,100.0
1046,60.0,120,240,1.0,100.0
1047,59.0,0,120,1.0,100.0
1048,74.0,120,120,0.0,100.0
1049,72.0,120,120,0.0,100.0
1050,57.0,0,120,1.0,100.0
1051,55.0,0,120,1.0,100.0
1052,71.0,120,120,0.0,100.0
1053,57.0,120,120,1.0,100.0
1054,69.0,0,120,0.0,100.0
1055,59.0,120,120,1.0,100.0
1056,67.0,0,120,0.0,100.0
1057,60.0,120,120,1.0,100.0
1058,62.0,120,120,1.0,100.0
1059,64.0,120,120,1.0,100.0
1060,65.0,0,120,1.0,100.0
1061,86.0,120,120,0.0,100.0
1062,55.0,0,120,1.0,100.0
1063,84.0,120,120,0.0,100.0
1064,83.0,0,120,0.0,100.0
1065,65.0,120,240,1.0,100.0
1066,81.0,120,120,0.0,100.0
1067,79.0,0,120,0.0,100.0
1068,64.0,120,120,1.0,100.0
1069,77.0,120,120,0.0,100.0
1070,62.0,0,120,1.0,100.0
1071,76.0,120,120,0.0,100.0
1072,74.0,120,120,0.0,100.0
1073,72.0,120,120,0.0,100.0
1074,60.0,0,480,1.0,100.0
1075,71.0,120,120,0.0,100.0
1076,64.0,120,120,1.0,100.0
1077,69.0,0,120,0.0,100.0
1078,67.0,0,120,0.0,100.0
1079,67.0,120,120,1.0,100.0
1080,72.0,120,120,1.0,100.0
1081,66.0,0,240,0.0,100.0
1082,71.0,120,120,1.0,100.0
1083,75.0,120,120,0.0,100.0
1084,69.0,0,120,1.0,100.0
1085,67.0,0,120,1.0,100.0
1086,66.0,120,120,1.0,100.0
1087,76.0,120,240,0.0,100.0
1088,70.0,0,120,0.0,100.0
1089,64.0,120,120,1.0,100.0
1090,63.0,0,120,1.0,100.0
1091,61.0,120,120,1.0,100.0
1092,71.0,120,240,0.0,100.0
1093,59.0,0,120,1.0,100.0
1094,63.0,120,120,0.0,100.0
1095,57.0,0,120,1.0,100.0
1096,55.0,120,120,1.0,100.0
1097,66.0,120,240,0.0,100.0
1098,54.0,120,120,1.0,100.0
1099,69.0,0,120,0.0,100.0
1100,72.0,0,120,0.0,100.0
1101,52.0,120,120,1.0,100.0
1102,51.0,120,120,1.0,100.0
1103,71.0,0,120,0.0,100.0
1104,49.0,0,120,1.0,100.0
1105,69.0,120,120,0.0,100.0
1106,67.0,0,120,0.0,100.0
1107,47.0,120,120,1.0,100.0
1108,48.0,120,120,1.0,100.0
1109,69.0,0,120,0.0,100.0
1110,45.0,120,120,1.0,100.0
1111,66.0,0,120,0.0,100.0
1112,64.0,0,120,0.0,100.0
1113,67.0,120,120,0.0,100.0
1114,71.0,120,120,0.0,100.0
1115,43.0,120,480,1.0,100.0
1116,76.0,120,120,0.0,100.0
1117,47.0,120,120,1.0,100.0
1118,79.0,0,120,0.0,100.0
1119,83.0,120,120,0.0,100.0
1120,52.0,0,120,1.0,100.0
1121,79.0,120,120,0.0,100.0
1122,55.0,0,120,1.0,100.0
1123,59.0,120,120,1.0,100.0
1124,76.0,0,120,0.0,100.0
1125,63.0,120,120,1.0,100.0
1126,71.0,0,120,0.0,100.0
1127,67.0,0,120,0.0,100.0
1128,66.0,120,120,0.0,100.0
1129,64.0,120,240,1.0,100.0
1130,64.0,120,120,0.0,100.0
1131,43.0,0,120,1.0,100.0
1132,65.0,0,120,0.0,100.0
1133,69.0,120,120,0.0,100.0
1134,72.0,120,120,0.0,100.0
1135,45.0,120,480,1.0,100.0
1136,77.0,120,120,0.0,100.0
1137,48.0,0,120,1.0,100.0
1138,81.0,120,120,0.0,100.0
1139,84.0,0,120,0.0,100.0
1140,53.0,120,120,1.0,100.0
1141,57.0,0,120,1.0,100.0
1142,81.0,120,120,0.0,100.0
1143,77.0,120,120,0.0,100.0
1144,60.0,0,120,1.0,100.0
1145,63.0,0,120,1.0,100.0
1146,72.0,120,120,0.0,100.0
1147,69.0,0,120,0.0,100.0
1148,64.0,120,240,1.0,100.0
1149,67.0,120,120,0.0,100.0
1150,46.0,120,120,1.0,100.0
1151,66.0,0,120,0.0,100.0
1152,67.0,0,120,0.0,100.0
1153,71.0,120,120,0.0,100.0
1154,76.0,120,120,0.0,100.0
1155,79.0,120,120,0.0,100.0
1156,47.0,120,480,1.0,100.0
1157,49.0,0,120,1.0,100.0
1158,76.0,120,120,0.0,100.0
1159,51.0,120,120,1.0,100.0
1160,84.0,0,120,0.0,100.0
1161,52.0,120,120,1.0,100.0
1162,83.0,0,120,0.0,100.0
1163,54.0,120,120,1.0,100.0
1164,81.0,0,120,0.0,100.0
1165,79.0,0,120,0.0,100.0
1166,55.0,120,120,1.0,100.0
1167,57.0,120,120,1.0,100.0
1168,78.0,0,120,0.0,100.0
1169,55.0,0,120,1.0,100.0
1170,76.0,120,120,0.0,100.0
1171,75.0,120,120,0.0,100.0
1172,54.0,0,120,1.0,100.0
1173,76.0,120,120,0.0,100.0
1174,55.0,0,120,1.0,100.0
1175,79.0,0,120,0.0,100.0
1176,52.0,120,120,1.0,100.0
1177,55.0,120,120,1.0,100.0
1178,76.0,0,120,0.0,100.0
1179,71.0,0,120,0.0,100.0
1180,59.0,120,120,1.0,100.0
1181,67.0,120,120,0.0,100.0
1182,64.0,0,120,1.0,100.0
1183,63.0,0,120,1.0,100.0
1184,66.0,120,120,0.0,100.0
1185,64.0,120,120,1.0,100.0
1186,67.0,0,120,0.0,100.0
1187,64.0,0,120,0.0,100.0
1188,67.0,120,120,1.0,100.0
1189,67.0,0,120,0.0,100.0
1190,64.0,120,120,1.0,100.0
1191,71.0,120,120,0.0,100.0
1192,59.0,0,120,1.0,100.0
1193,76.0,120,120,0.0,100.0
1194,55.0,0,120,1.0,100.0
1195,75.0,120,120,0.0,100.0
1196,59.0,0,120,1.0,100.0
1197,76.0,120,120,0.0,100.0
1198,74.0,120,120,0.0,100.0
1199,72.0,120,120,0.0,100.0
1200,71.0,120,120,0.0,100.0
1201,48.0,0,600,1.0,100.0
1202,69.0,120,120,0.0,100.0
1203,67.0,120,120,0.0,100.0
1204,64.0,0,120,1.0,100.0
1205,69.0,0,120,1.0,100.0
1206,67.0,120,120,1.0,100.0
1207,66.0,120,120,1.0,100.0
1208,64.0,120,120,1.0,100.0
1209,62.0,120,120,1.0,100.0
1210,66.0,120,600,0.0,100.0
1211,60.0,0,120,1.0,100.0
1212,69.0,120,120,0.0,100.0
1213,74.0,0,120,0.0,100.0
1214,72.0,120,120,0.0,100.0
1215,71.0,120,120,0.0,100.0
1216,69.0,120,120,0.0,100.0
1217,67.0,120,120,0.0,100.0
1218,59.0,120,600,1.0,100.0
1219,69.0,0,120,1.0,100.0
1220,66.0,120,120,0.0,100.0
1221,67.0,120,120,1.0,100.0
1222,66.0,120,120,1.0,100.0
1223,64.0,120,120,1.0,100.0
1224,62.0,120,120,1.0,100.0
1225,64.0,0,600,0.0,100.0
1226,60.0,120,120,1.0,100.0
1227,74.0,120,120,0.0,100.0
1228,59.0,0,120,1.0,100.0
1229,72.0,120,120,0.0,100.0
1230,71.0,120,120,0.0,100.0
1231,69.0,120,120,0.0,100.0
1232,57.0,0,480,1.0,100.0
1233,67.0,120,120,0.0,100.0
1234,66.0,0,120,0.0,100.0
1235,59.0,120,120,1.0,100.0
1236,64.0,0,120,0.0,100.0
1237,60.0,120,120,1.0,100.0
1238,66.0,120,120,0.0,100.0
1239,62.0,0,120,1.0,100.0
1240,64.0,0,120,0.0,100.0
1241,64.0,120,120,1.0,100.0
1242,62.0,120,120,0.0,100.0
1243,66.0,0,120,1.0,100.0
1244,67.0,0,120,1.0,100.0
1245,61.0,120,120,0.0,100.0
1246,62.0,0,120,0.0,100.0
1247,66.0,120,120,1.0,100.0
1248,64.0,0,120,0.0,100.0
1249,64.0,120,120,1.0,100.0
1250,66.0,120,120,0.0,100.0
1251,64.0,120,120,0.0,100.0
1252,62.0,120,120,0.0,100.0
1253,62.0,0,480,1.0,100.0
1254,60.0,120,120,0.0,100.0
1255,59.0,120,120,0.0,100.0
1256,64.0,0,120,1.0,100.0
1257,66.0,120,120,1.0,100.0
1258,57.0,0,120,0.0,100.0
1259,59.0,0,120,0.0,100.0
1260,67.0,120,120,1.0,100.0
1261,69.0,0,120,1.0,100.0
1262,57.0,120,120,0.0,100.0
1263,55.0,0,120,0.0,100.0
1264,71.0,120,120,1.0,100.0
1265,54.0,0,120,0.0,100.0
1266,72.0,120,120,1.0,100.0
1267,71.0,0,120,1.0,100.0
1268,55.0,120,120,0.0,100.0
1269,69.0,120,120,1.0,100.0
1270,57.0,0,120,0.0,100.0
1271,59.0,0,120,0.0,100.0
1272,57.0,120,120,0.0,100.0
1273,55.0,120,120,0.0,100.0
1274,53.0,120,120,0.0,100.0
1275,67.0,120,480,1.0,100.0
1276,69.0,0,120,1.0,100.0
1277,52.0,120,120,0.0,100.0
1278,50.0,120,120,0.0,100.0
1279,71.0,0,120,1.0,100.0
1280,72.0,0,120,1.0,100.0
1281,52.0,120,120,0.0,100.0
1282,74.0,0,120,1.0,100.0
1283,50.0,120,120,0.0,100.0
1284,76.0,120,120,1.0,100.0
1285,48.0,0,120,0.0,100.0
1286,47.0,0,120,0.0,100.0
1287,77.0,120,120,1.0,100.0
1288,48.0,120,120,0.0,100.0
1289,76.0,0,120,1.0,100.0
1290,50.0,120,120,0.0,100.0
1291,74.0,0,120,1.0,100.0
1292,52.0,120,120,0.0,100.0
1293,48.0,120,120,0.0,100.0
1294,52.0,120,120,0.0,100.0
1295,55.0,120,120,0.0,100.0
1296,72.0,0,480,1.0,100.0
1297,60.0,0,120,0.0,100.0
1298,76.0,120,120,1.0,100.0
1299,72.0,120,120,1.0,100.0
1300,64.0,0,120,0.0,100.0
1301,60.0,0,120,0.0,100.0
1302,69.0,120,120,1.0,100.0
1303,57.0,120,120,0.0,100.0
1304,64.0,0,120,1.0,100.0
1305,60.0,120,120,1.0,100.0
1306,60.0,0,120,0.0,100.0
1307,64.0,0,120,0.0,100.0
1308,57.0,120,120,1.0,100.0
1309,69.0,120,120,0.0,100.0
1310,60.0,0,120,1.0,100.0
1311,72.0,0,120,0.0,100.0
1312,64.0,120,120,1.0,100.0
1313,66.0,120,120,0.0,100.0
1314,69.0,0,120,1.0,100.0
1315,72.0,120,120,1.0,100.0
1316,62.0,0,120,0.0,100.0
1317,66.0,120,120,0.0,100.0
1318,69.0,0,120,1.0,100.0
1319,66.0,120,120,1.0,100.0
1320,69.0,0,120,0.0,100.0
1321,74.0,0,120,0.0,100.0
1322,62.0,120,120,1.0,100.0
1323,78.0,120,120,0.0,100.0
1324,57.0,0,120,1.0,100.0
1325,74.0,0,120,0.0,100.0
1326,54.0,120,120,1.0,100.0
1327,69.0,120,120,0.0,100.0
1328,50.0,0,120,1.0,100.0
1329,74.0,120,120,0.0,100.0
1330,54.0,0,120,1.0,100.0
1331,78.0,120,120,0.0,100.0
1332,57.0,0,120,1.0,100.0
1333,60.0,0,120,1.0,100.0
1334,81.0,120,120,0.0,100.0
1335,54.0,0,120,1.0,100.0
1336,84.0,120,120,0.0,100.0
1337,83.0,0,120,0.0,100.0
1338,55.0,120,120,1.0,100.0
1339,59.0,120,120,1.0,100.0
1340,79.0,0,120,0.0,100.0
1341,74.0,0,120,0.0,100.0
1342,62.0,120,120,1.0,100.0
1343,71.0,120,120,0.0,100.0
1344,67.0,0,120,1.0,100.0
1345,71.0,0,120,1.0,100.0
1346,67.0,120,120,0.0,100.0
1347,74.0,120,120,1.0,100.0
1348,66.0,0,120,0.0,100.0
1349,67.0,0,120,0.0,100.0
1350,79.0,120,120,1.0,100.0
1351,74.0,120,120,1.0,100.0
1352,71.0,0,120,0.0,100.0
1353,74.0,120,120,0.0,100.0
1354,71.0,0,120,1.0,100.0
1355,67.0,0,360,1.0,100.0
1356,79.0,120,360,0.0,100.0
