,note,step,duration,channel,velocity
0,55.0,0,480,2.0,0.0
1,58.0,60,480,1.0,0.0
2,74.0,15,120,0.0,0.0
3,75.0,45,15,0.0,0.0
4,74.0,60,45,0.0,0.0
5,73.0,120,60,0.0,0.0
6,74.0,0,120,0.0,0.0
7,74.0,240,60,0.0,0.0
8,82.0,60,240,0.0,0.0
9,62.0,0,240,1.0,0.0
10,81.0,60,60,0.0,0.0
11,79.0,60,60,0.0,0.0
12,77.0,120,60,0.0,0.0
13,60.0,120,240,1.0,0.0
14,55.0,0,0,2.0,0.0
15,75.0,120,120,0.0,0.0
16,74.0,120,240,0.0,0.0
17,55.0,0,0,2.0,0.0
18,58.0,120,240,1.0,0.0
19,73.0,120,240,0.0,0.0
20,55.0,0,0,2.0,0.0
21,57.0,0,480,1.0,0.0
22,72.0,15,120,0.0,0.0
23,74.0,45,15,0.0,0.0
24,54.0,0,240,2.0,0.0
25,72.0,60,45,0.0,0.0
26,71.0,120,60,0.0,0.0
27,72.0,60,120,0.0,0.0
28,72.0,240,60,0.0,0.0
29,80.0,60,240,0.0,0.0
30,60.0,0,240,1.0,0.0
31,53.0,0,240,2.0,0.0
32,79.0,60,60,0.0,0.0
33,77.0,60,60,0.0,0.0
34,75.0,120,60,0.0,0.0
35,58.0,120,240,1.0,0.0
36,73.0,120,120,0.0,0.0
37,53.0,0,240,2.0,0.0
38,72.0,120,240,0.0,0.0
39,56.0,0,240,1.0,0.0
40,71.0,120,240,0.0,0.0
41,53.0,120,0,2.0,0.0
42,55.0,0,480,1.0,0.0
43,70.0,15,120,0.0,0.0
44,52.0,120,240,2.0,0.0
45,72.0,45,15,0.0,0.0
46,70.0,60,45,0.0,0.0
47,69.0,120,60,0.0,0.0
48,70.0,0,120,0.0,0.0
49,78.0,240,120,0.0,0.0
50,79.0,120,240,0.0,0.0
51,58.0,120,240,1.0,0.0
52,73.0,120,240,0.0,0.0
53,51.0,0,0,2.0,0.0
54,57.0,120,240,1.0,0.0
55,74.0,120,240,0.0,0.0
56,51.0,120,240,2.0,0.0
57,55.0,120,480,1.0,0.0
58,50.0,0,480,2.0,0.0
59,67.0,0,0,0.0,0.0
60,69.0,60,60,0.0,0.0
61,70.0,0,60,0.0,0.0
62,54.0,120,120,1.0,0.0
63,69.0,120,240,0.0,0.0
64,52.0,0,120,1.0,0.0
65,54.0,240,120,1.0,0.0
66,57.0,120,240,1.0,0.0
67,51.0,120,240,2.0,0.0
68,60.0,120,240,1.0,0.0
69,50.0,120,240,2.0,0.0
70,54.0,120,240,1.0,0.0
71,48.0,120,240,2.0,0.0
72,57.0,120,240,1.0,0.0
73,46.0,0,480,2.0,0.0
74,54.0,0,120,1.0,0.0
75,62.0,15,120,0.0,0.0
76,63.0,45,15,0.0,0.0
77,55.0,60,240,1.0,0.0
78,62.0,60,45,0.0,0.0
79,61.0,120,60,0.0,0.0
80,62.0,0,0,0.0,0.0
81,74.0,60,240,0.0,0.0
82,46.0,60,240,2.0,0.0
83,55.0,0,240,1.0,0.0
84,72.0,60,60,0.0,0.0
85,70.0,60,60,0.0,0.0
86,69.0,0,60,0.0,0.0
87,67.0,60,60,0.0,0.0
88,50.0,0,120,1.0,0.0
89,65.0,120,60,0.0,0.0
90,53.0,60,120,1.0,0.0
91,68.0,60,180,0.0,0.0
92,47.0,0,0,2.0,0.0
93,55.0,120,120,1.0,0.0
94,62.0,0,60,0.0,0.0
95,65.0,120,240,0.0,0.0
96,47.0,0,0,2.0,0.0
97,56.0,120,0,1.0,0.0
98,63.0,15,120,0.0,0.0
99,65.0,45,15,0.0,0.0
100,48.0,60,240,2.0,0.0
101,55.0,0,240,1.0,0.0
102,63.0,60,45,0.0,0.0
103,62.0,120,60,0.0,0.0
104,63.0,0,0,0.0,0.0
105,75.0,60,240,0.0,0.0
106,57.0,60,240,1.0,0.0
107,48.0,0,240,2.0,0.0
108,74.0,60,60,0.0,0.0
109,72.0,60,60,0.0,0.0
110,70.0,0,60,0.0,0.0
111,69.0,60,60,0.0,0.0
112,52.0,120,120,1.0,0.0
113,67.0,0,60,0.0,0.0
114,70.0,60,180,0.0,0.0
115,55.0,60,120,1.0,0.0
116,49.0,0,0,2.0,0.0
117,57.0,120,120,1.0,0.0
118,64.0,0,60,0.0,0.0
119,67.0,120,240,0.0,0.0
120,58.0,120,0,1.0,0.0
121,49.0,0,240,2.0,0.0
122,66.0,15,120,0.0,0.0
123,57.0,0,240,1.0,0.0
124,50.0,0,240,2.0,0.0
125,67.0,45,15,0.0,0.0
126,66.0,60,45,0.0,0.0
127,64.0,120,60,0.0,0.0
128,66.0,80,120,0.0,0.0
129,71.0,80,80,0.0,0.0
130,72.0,80,80,0.0,0.0
131,75.0,80,80,0.0,0.0
132,73.0,80,80,0.0,0.0
133,50.0,0,240,2.0,0.0
134,57.0,0,240,1.0,0.0
135,74.0,80,80,0.0,0.0
136,66.0,80,80,0.0,0.0
137,55.0,0,240,1.0,0.0
138,70.0,80,80,0.0,0.0
139,69.0,80,80,0.0,0.0
140,62.0,0,80,0.0,0.0
141,54.0,0,480,1.0,0.0
142,50.0,80,0,2.0,0.0
143,63.0,80,80,0.0,0.0
144,59.0,80,80,0.0,0.0
145,60.0,60,200,0.0,0.0
146,43.0,120,480,2.0,0.0
147,58.0,60,60,0.0,0.0
148,57.0,120,60,0.0,0.0
149,55.0,120,120,1.0,0.0
150,58.0,0,240,0.0,0.0
151,54.0,0,120,1.0,0.0
152,55.0,240,120,1.0,0.0
153,50.0,120,240,1.0,0.0
154,43.0,60,240,2.0,0.0
155,51.0,60,180,1.0,0.0
156,46.0,60,240,2.0,0.0
157,50.0,120,60,1.0,0.0
158,55.0,60,180,1.0,0.0
159,50.0,120,240,2.0,0.0
160,54.0,120,60,1.0,0.0
161,60.0,0,240,1.0,0.0
162,55.0,0,360,2.0,0.0
163,62.0,60,60,0.0,0.0
164,58.0,0,60,1.0,0.0
165,64.0,60,60,0.0,0.0
166,57.0,0,60,1.0,0.0
167,66.0,60,60,0.0,0.0
168,58.0,120,240,1.0,0.0
169,67.0,60,60,0.0,0.0
170,70.0,120,60,0.0,0.0
171,62.0,0,120,2.0,0.0
172,69.0,120,240,0.0,0.0
173,67.0,120,240,2.0,0.0
174,70.0,120,240,0.0,0.0
175,65.0,0,240,2.0,0.0
176,71.0,0,120,0.0,0.0
177,72.0,120,120,0.0,0.0
178,67.0,120,0,1.0,0.0
179,63.0,120,240,2.0,0.0
180,73.0,120,240,0.0,0.0
181,62.0,120,240,2.0,0.0
182,74.0,0,120,0.0,0.0
183,67.0,0,0,1.0,0.0
184,75.0,120,120,0.0,0.0
185,61.0,0,240,2.0,0.0
186,76.0,60,180,0.0,0.0
187,57.0,60,240,2.0,0.0
188,66.0,0,240,1.0,0.0
189,82.0,60,60,0.0,0.0
190,81.0,60,60,0.0,0.0
191,79.0,0,60,0.0,0.0
192,78.0,60,60,0.0,0.0
193,62.0,120,240,2.0,0.0
194,76.0,120,60,0.0,0.0
195,74.0,120,240,0.0,0.0
196,65.0,0,240,1.0,0.0
197,60.0,0,240,2.0,0.0
198,74.0,120,120,0.0,0.0
199,58.0,0,240,2.0,0.0
200,65.0,120,240,1.0,0.0
201,86.0,120,120,0.0,0.0
202,85.0,120,240,0.0,0.0
203,57.0,0,240,2.0,0.0
204,84.0,120,120,0.0,0.0
205,65.0,0,0,1.0,0.0
206,83.0,120,120,0.0,0.0
207,55.0,60,240,2.0,0.0
208,82.0,60,180,0.0,0.0
209,64.0,0,240,1.0,0.0
210,60.0,120,240,2.0,0.0
211,81.0,120,60,0.0,0.0
212,80.0,120,240,0.0,0.0
213,53.0,60,240,2.0,0.0
214,81.0,60,180,0.0,0.0
215,54.0,0,240,2.0,0.0
216,74.0,60,60,0.0,0.0
217,72.0,60,60,0.0,0.0
218,70.0,60,60,0.0,0.0
219,63.0,0,0,1.0,0.0
220,72.0,60,60,0.0,0.0
221,55.0,0,240,2.0,0.0
222,69.0,60,60,0.0,0.0
223,70.0,60,60,0.0,0.0
224,67.0,0,60,0.0,0.0
225,65.0,60,60,0.0,0.0
226,56.0,0,240,2.0,0.0
227,62.0,15,240,1.0,0.0
228,64.0,60,60,0.0,0.0
229,65.0,60,60,0.0,0.0
230,74.0,0,60,0.0,0.0
231,67.0,15,15,0.0,0.0
232,57.0,240,240,2.0,0.0
233,62.0,0,240,1.0,0.0
234,65.0,15,15,0.0,0.0
235,67.0,15,15,0.0,0.0
236,65.0,60,15,0.0,0.0
237,64.0,120,60,0.0,0.0
238,65.0,0,120,0.0,0.0
239,61.0,0,240,1.0,0.0
240,58.0,0,240,2.0,0.0
241,64.0,120,240,0.0,0.0
242,57.0,0,240,2.0,0.0
243,62.0,60,60,0.0,0.0
244,61.0,60,60,0.0,0.0
245,62.0,60,60,0.0,0.0
246,55.0,0,240,2.0,0.0
247,64.0,60,60,0.0,0.0
248,65.0,60,60,0.0,0.0
249,67.0,60,60,0.0,0.0
250,69.0,60,60,0.0,0.0
251,53.0,60,240,2.0,0.0
252,70.0,60,60,0.0,0.0
253,69.0,120,60,0.0,0.0
254,74.0,60,180,0.0,0.0
255,52.0,120,240,2.0,0.0
256,73.0,120,60,0.0,0.0
257,76.0,120,240,0.0,0.0
258,53.0,0,480,2.0,0.0
259,69.0,15,120,0.0,0.0
260,70.0,45,15,0.0,0.0
261,69.0,60,45,0.0,0.0
262,68.0,120,60,0.0,0.0
263,62.0,60,0,1.0,0.0
264,69.0,0,0,0.0,0.0
265,81.0,60,240,0.0,0.0
266,54.0,0,240,2.0,0.0
267,82.0,60,60,0.0,0.0
268,81.0,60,60,0.0,0.0
269,80.0,0,60,0.0,0.0
270,63.0,45,0,1.0,0.0
271,81.0,75,45,0.0,0.0
272,54.0,45,240,2.0,0.0
273,74.0,60,60,0.0,0.0
274,72.0,60,60,0.0,0.0
275,70.0,0,60,0.0,0.0
276,72.0,75,45,0.0,0.0
277,72.0,60,60,0.0,0.0
278,70.0,60,60,0.0,0.0
279,55.0,120,0,2.0,0.0
280,69.0,0,0,0.0,0.0
281,70.0,15,120,0.0,0.0
282,72.0,45,15,0.0,0.0
283,64.0,60,240,1.0,0.0
284,70.0,60,45,0.0,0.0
285,69.0,120,60,0.0,0.0
286,70.0,0,0,0.0,0.0
287,64.0,60,240,1.0,0.0
288,82.0,60,240,0.0,0.0
289,56.0,0,240,2.0,0.0
290,75.0,60,60,0.0,0.0
291,74.0,60,60,0.0,0.0
292,73.0,0,60,0.0,0.0
293,65.0,60,0,1.0,0.0
294,74.0,60,60,0.0,0.0
295,56.0,120,240,2.0,0.0
296,84.0,120,60,0.0,0.0
297,83.0,120,240,0.0,0.0
298,74.0,0,120,0.0,0.0
299,57.0,120,0,2.0,0.0
300,73.0,240,120,0.0,0.0
301,70.0,120,240,0.0,0.0
302,66.0,120,240,1.0,0.0
303,69.0,0,120,0.0,0.0
304,75.0,120,120,0.0,0.0
305,66.0,60,240,1.0,0.0
306,74.0,60,180,0.0,0.0
307,57.0,120,240,2.0,0.0
308,67.0,0,240,1.0,0.0
309,73.0,60,60,0.0,0.0
310,76.0,60,60,0.0,0.0
311,79.0,0,60,0.0,0.0
312,67.0,120,720,1.0,0.0
313,82.0,120,120,0.0,0.0
314,61.0,30,240,2.0,0.0
315,81.0,30,150,0.0,0.0
316,57.0,240,240,2.0,0.0
317,79.0,30,30,0.0,0.0
318,77.0,30,30,0.0,0.0
319,76.0,60,30,0.0,0.0
320,74.0,60,60,0.0,0.0
321,73.0,0,0,0.0,0.0
322,62.0,240,720,2.0,0.0
323,74.0,240,240,0.0,0.0
324,66.0,120,120,1.0,0.0
325,64.0,0,120,1.0,0.0
326,66.0,240,480,1.0,0.0
327,60.0,0,240,2.0,0.0
328,58.0,240,240,2.0,0.0
329,57.0,240,240,2.0,0.0
330,55.0,60,480,2.0,0.0
331,58.0,0,480,1.0,0.0
332,74.0,15,120,0.0,0.0
333,75.0,45,15,0.0,0.0
334,74.0,60,45,0.0,0.0
335,73.0,120,60,0.0,0.0
336,74.0,0,120,0.0,0.0
337,74.0,240,60,0.0,0.0
338,82.0,60,240,0.0,0.0
339,62.0,0,240,1.0,0.0
340,81.0,60,60,0.0,0.0
341,79.0,60,60,0.0,0.0
342,77.0,0,60,0.0,0.0
343,75.0,120,120,0.0,0.0
344,55.0,120,0,2.0,0.0
345,60.0,120,240,1.0,0.0
346,74.0,120,240,0.0,0.0
347,58.0,0,240,1.0,0.0
348,73.0,120,240,0.0,0.0
349,55.0,120,0,2.0,0.0
350,57.0,0,480,1.0,0.0
351,72.0,15,120,0.0,0.0
352,74.0,45,15,0.0,0.0
353,54.0,0,240,2.0,0.0
354,72.0,60,45,0.0,0.0
355,71.0,120,60,0.0,0.0
356,72.0,60,0,0.0,0.0
357,80.0,60,240,0.0,0.0
358,53.0,0,240,2.0,0.0
359,60.0,120,240,1.0,0.0
360,79.0,60,60,0.0,0.0
361,77.0,60,60,0.0,0.0
362,75.0,0,60,0.0,0.0
363,73.0,120,120,0.0,0.0
364,53.0,0,240,2.0,0.0
365,58.0,120,240,1.0,0.0
366,72.0,120,240,0.0,0.0
367,56.0,0,240,1.0,0.0
368,71.0,120,240,0.0,0.0
369,55.0,0,480,1.0,0.0
370,53.0,120,0,2.0,0.0
371,70.0,0,120,0.0,0.0
372,52.0,0,240,2.0,0.0
373,72.0,45,15,0.0,0.0
374,70.0,60,45,0.0,0.0
375,69.0,120,60,0.0,0.0
376,70.0,120,120,0.0,0.0
377,78.0,240,120,0.0,0.0
378,79.0,120,240,0.0,0.0
379,58.0,0,240,1.0,0.0
380,51.0,120,240,2.0,0.0
381,73.0,120,240,0.0,0.0
382,57.0,120,240,1.0,0.0
383,51.0,0,240,2.0,0.0
384,74.0,120,240,0.0,0.0
385,51.0,0,240,2.0,0.0
386,55.0,0,480,1.0,0.0
387,67.0,120,120,0.0,0.0
388,67.0,60,120,0.0,0.0
389,50.0,0,480,2.0,0.0
390,69.0,60,60,0.0,0.0
391,70.0,120,60,0.0,0.0
392,69.0,0,240,0.0,0.0
393,54.0,120,120,1.0,0.0
394,52.0,120,120,1.0,0.0
395,54.0,240,120,1.0,0.0
396,57.0,120,240,1.0,0.0
397,51.0,120,240,2.0,0.0
398,60.0,120,240,1.0,0.0
399,50.0,120,240,2.0,0.0
400,54.0,120,240,1.0,0.0
401,48.0,120,240,2.0,0.0
402,57.0,120,240,1.0,0.0
403,46.0,0,480,2.0,0.0
404,54.0,15,120,1.0,0.0
405,62.0,0,120,0.0,0.0
406,63.0,45,15,0.0,0.0
407,55.0,0,240,1.0,0.0
408,62.0,60,45,0.0,0.0
409,61.0,120,60,0.0,0.0
410,62.0,60,0,0.0,0.0
411,74.0,60,240,0.0,0.0
412,46.0,0,240,2.0,0.0
413,55.0,60,240,1.0,0.0
414,72.0,60,60,0.0,0.0
415,70.0,60,60,0.0,0.0
416,69.0,0,60,0.0,0.0
417,47.0,0,240,2.0,0.0
418,50.0,120,120,1.0,0.0
419,67.0,60,60,0.0,0.0
420,65.0,0,60,0.0,0.0
421,68.0,60,180,0.0,0.0
422,53.0,60,120,1.0,0.0
423,55.0,120,120,1.0,0.0
424,62.0,0,60,0.0,0.0
425,65.0,120,240,0.0,0.0
426,56.0,120,120,1.0,0.0
427,47.0,0,0,2.0,0.0
428,56.0,0,240,1.0,0.0
429,63.0,0,120,0.0,0.0
430,65.0,45,15,0.0,0.0
431,55.0,60,240,1.0,0.0
432,48.0,0,240,2.0,0.0
433,63.0,60,45,0.0,0.0
434,62.0,120,60,0.0,0.0
435,63.0,0,120,0.0,0.0
436,63.0,240,60,0.0,0.0
437,75.0,60,240,0.0,0.0
438,57.0,0,240,1.0,0.0
439,48.0,0,240,2.0,0.0
440,74.0,60,60,0.0,0.0
441,72.0,60,60,0.0,0.0
442,70.0,60,60,0.0,0.0
443,52.0,120,120,1.0,0.0
444,69.0,60,60,0.0,0.0
445,67.0,0,60,0.0,0.0
446,70.0,60,180,0.0,0.0
447,55.0,60,120,1.0,0.0
448,49.0,0,0,2.0,0.0
449,57.0,0,120,1.0,0.0
450,64.0,120,60,0.0,0.0
451,58.0,120,120,1.0,0.0
452,67.0,120,240,0.0,0.0
453,58.0,15,240,1.0,0.0
454,49.0,0,240,2.0,0.0
455,66.0,0,120,0.0,0.0
456,57.0,80,240,1.0,0.0
457,67.0,45,15,0.0,0.0
458,50.0,0,240,2.0,0.0
459,66.0,60,45,0.0,0.0
460,64.0,120,60,0.0,0.0
461,66.0,0,120,0.0,0.0
462,71.0,80,80,0.0,0.0
463,72.0,80,80,0.0,0.0
464,75.0,80,80,0.0,0.0
465,73.0,80,80,0.0,0.0
466,50.0,80,240,2.0,0.0
467,57.0,0,240,1.0,0.0
468,74.0,80,80,0.0,0.0
469,66.0,0,80,0.0,0.0
470,70.0,80,80,0.0,0.0
471,55.0,80,240,1.0,0.0
472,50.0,0,240,2.0,0.0
473,69.0,80,80,0.0,0.0
474,62.0,0,80,0.0,0.0
475,54.0,120,480,1.0,0.0
476,50.0,120,240,2.0,0.0
477,63.0,80,80,0.0,0.0
478,59.0,80,80,0.0,0.0
479,60.0,60,200,0.0,0.0
480,43.0,0,480,2.0,0.0
481,58.0,60,60,0.0,0.0
482,57.0,0,60,0.0,0.0
483,55.0,120,120,1.0,0.0
484,58.0,0,240,0.0,0.0
485,54.0,120,120,1.0,0.0
486,55.0,240,120,1.0,0.0
487,50.0,120,240,1.0,0.0
488,43.0,60,240,2.0,0.0
489,51.0,60,180,1.0,0.0
490,46.0,60,240,2.0,0.0
491,50.0,120,60,1.0,0.0
492,55.0,60,180,1.0,0.0
493,50.0,120,240,2.0,0.0
494,54.0,120,60,1.0,0.0
495,60.0,60,240,1.0,0.0
496,55.0,0,360,2.0,0.0
497,62.0,0,60,0.0,0.0
498,64.0,60,60,0.0,0.0
499,58.0,0,60,1.0,0.0
500,57.0,0,60,1.0,0.0
501,66.0,60,60,0.0,0.0
502,58.0,120,240,1.0,0.0
503,67.0,60,60,0.0,0.0
504,70.0,120,60,0.0,0.0
505,62.0,0,120,2.0,0.0
506,69.0,120,240,0.0,0.0
507,67.0,120,240,2.0,0.0
508,70.0,120,240,0.0,0.0
509,65.0,0,240,2.0,0.0
510,71.0,120,120,0.0,0.0
511,67.0,0,0,1.0,0.0
512,63.0,120,240,2.0,0.0
513,72.0,120,120,0.0,0.0
514,73.0,120,240,0.0,0.0
515,67.0,0,0,1.0,0.0
516,62.0,0,240,2.0,0.0
517,74.0,120,120,0.0,0.0
518,67.0,0,0,1.0,0.0
519,61.0,60,240,2.0,0.0
520,75.0,120,120,0.0,0.0
521,76.0,60,180,0.0,0.0
522,66.0,60,240,1.0,0.0
523,57.0,0,240,2.0,0.0
524,82.0,60,60,0.0,0.0
525,81.0,60,60,0.0,0.0
526,79.0,0,60,0.0,0.0
527,62.0,120,240,2.0,0.0
528,78.0,60,60,0.0,0.0
529,76.0,120,60,0.0,0.0
530,74.0,120,240,0.0,0.0
531,60.0,120,240,2.0,0.0
532,65.0,0,240,1.0,0.0
533,74.0,0,120,0.0,0.0
534,86.0,120,120,0.0,0.0
535,58.0,0,240,2.0,0.0
536,85.0,120,240,0.0,0.0
537,57.0,0,240,2.0,0.0
538,65.0,120,0,1.0,0.0
539,84.0,120,120,0.0,0.0
540,83.0,120,120,0.0,0.0
541,65.0,0,240,1.0,0.0
542,55.0,60,240,2.0,0.0
543,82.0,60,180,0.0,0.0
544,60.0,120,240,2.0,0.0
545,64.0,0,240,1.0,0.0
546,81.0,120,60,0.0,0.0
547,80.0,120,240,0.0,0.0
548,53.0,60,240,2.0,0.0
549,81.0,60,180,0.0,0.0
550,54.0,0,240,2.0,0.0
551,74.0,60,60,0.0,0.0
552,72.0,60,60,0.0,0.0
553,70.0,60,60,0.0,0.0
554,63.0,0,0,1.0,0.0
555,55.0,60,240,2.0,0.0
556,72.0,60,60,0.0,0.0
557,69.0,60,60,0.0,0.0
558,70.0,60,60,0.0,0.0
559,67.0,0,60,0.0,0.0
560,62.0,0,240,1.0,0.0
561,65.0,60,60,0.0,0.0
562,56.0,15,240,2.0,0.0
563,64.0,60,60,0.0,0.0
564,65.0,60,60,0.0,0.0
565,74.0,0,60,0.0,0.0
566,62.0,0,240,1.0,0.0
567,57.0,240,240,2.0,0.0
568,67.0,15,15,0.0,0.0
569,65.0,15,15,0.0,0.0
570,67.0,15,15,0.0,0.0
571,65.0,60,15,0.0,0.0
572,64.0,120,60,0.0,0.0
573,65.0,0,120,0.0,0.0
574,58.0,0,240,2.0,0.0
575,64.0,0,240,0.0,0.0
576,61.0,120,240,1.0,0.0
577,57.0,0,240,2.0,0.0
578,62.0,60,60,0.0,0.0
579,61.0,60,60,0.0,0.0
580,62.0,60,60,0.0,0.0
581,55.0,60,240,2.0,0.0
582,64.0,60,60,0.0,0.0
583,65.0,60,60,0.0,0.0
584,67.0,60,60,0.0,0.0
585,69.0,0,60,0.0,0.0
586,70.0,60,60,0.0,0.0
587,53.0,60,240,2.0,0.0
588,69.0,120,60,0.0,0.0
589,74.0,60,180,0.0,0.0
590,52.0,120,240,2.0,0.0
591,73.0,120,60,0.0,0.0
592,76.0,120,240,0.0,0.0
593,53.0,0,480,2.0,0.0
594,69.0,15,120,0.0,0.0
595,70.0,45,15,0.0,0.0
596,69.0,60,45,0.0,0.0
597,68.0,120,60,0.0,0.0
598,69.0,60,120,0.0,0.0
599,62.0,0,0,1.0,0.0
600,69.0,180,60,0.0,0.0
601,81.0,60,240,0.0,0.0
602,54.0,45,240,2.0,0.0
603,63.0,0,240,1.0,0.0
604,82.0,60,60,0.0,0.0
605,81.0,60,60,0.0,0.0
606,80.0,0,60,0.0,0.0
607,81.0,75,45,0.0,0.0
608,63.0,120,480,1.0,0.0
609,54.0,45,240,2.0,0.0
610,74.0,60,60,0.0,0.0
611,72.0,60,60,0.0,0.0
612,70.0,0,60,0.0,0.0
613,72.0,75,45,0.0,0.0
614,55.0,0,240,2.0,0.0
615,72.0,60,60,0.0,0.0
616,70.0,60,60,0.0,0.0
617,69.0,0,60,0.0,0.0
618,69.0,120,120,0.0,0.0
619,55.0,0,480,2.0,0.0
620,70.0,15,120,0.0,0.0
621,64.0,0,240,1.0,0.0
622,72.0,45,15,0.0,0.0
623,70.0,60,45,0.0,0.0
624,69.0,120,60,0.0,0.0
625,70.0,60,0,0.0,0.0
626,64.0,60,240,1.0,0.0
627,82.0,60,240,0.0,0.0
628,65.0,60,240,1.0,0.0
629,75.0,60,60,0.0,0.0
630,74.0,60,60,0.0,0.0
631,73.0,0,60,0.0,0.0
632,56.0,0,0,2.0,0.0
633,65.0,0,480,1.0,0.0
634,74.0,60,60,0.0,0.0
635,84.0,120,60,0.0,0.0
636,83.0,120,240,0.0,0.0
637,74.0,0,120,0.0,0.0
638,73.0,240,120,0.0,0.0
639,57.0,120,0,2.0,0.0
640,70.0,120,240,0.0,0.0
641,69.0,0,120,0.0,0.0
642,75.0,120,120,0.0,0.0
643,66.0,120,0,1.0,0.0
644,74.0,60,180,0.0,0.0
645,57.0,0,240,2.0,0.0
646,73.0,60,60,0.0,0.0
647,76.0,60,60,0.0,0.0
648,79.0,0,60,0.0,0.0
649,61.0,30,240,2.0,0.0
650,67.0,120,0,1.0,0.0
651,82.0,120,120,0.0,0.0
652,81.0,30,150,0.0,0.0
653,57.0,0,240,2.0,0.0
654,79.0,30,30,0.0,0.0
655,77.0,30,30,0.0,0.0
656,76.0,60,30,0.0,0.0
657,74.0,60,60,0.0,0.0
658,73.0,240,0,0.0,0.0
659,62.0,240,720,2.0,0.0
660,74.0,240,240,0.0,0.0
661,66.0,120,120,1.0,0.0
662,64.0,0,120,1.0,0.0
663,66.0,0,480,1.0,0.0
664,57.0,480,240,2.0,0.0
665,50.0,240,480,2.0,0.0
666,62.0,120,480,2.0,0.0
667,81.0,15,120,0.0,0.0
668,82.0,45,15,0.0,0.0
669,65.0,0,240,1.0,0.0
670,81.0,60,45,0.0,0.0
671,80.0,120,60,0.0,0.0
672,81.0,0,120,0.0,0.0
673,65.0,60,240,1.0,0.0
674,75.0,120,120,0.0,0.0
675,74.0,60,180,0.0,0.0
676,66.0,0,240,1.0,0.0
677,60.0,0,240,2.0,0.0
678,76.0,60,60,0.0,0.0
679,78.0,60,60,0.0,0.0
680,79.0,60,60,0.0,0.0
681,81.0,60,60,0.0,0.0
682,66.0,0,240,1.0,0.0
683,60.0,120,240,2.0,0.0
684,72.0,120,60,0.0,0.0
685,75.0,120,240,0.0,0.0
686,74.0,120,240,0.0,0.0
687,58.0,120,0,2.0,0.0
688,67.0,0,0,1.0,0.0
689,77.0,0,120,0.0,0.0
690,79.0,45,15,0.0,0.0
691,62.0,0,240,1.0,0.0
692,55.0,120,120,2.0,0.0
693,77.0,60,45,0.0,0.0
694,75.0,0,60,0.0,0.0
695,57.0,0,120,2.0,0.0
696,77.0,120,120,0.0,0.0
697,58.0,60,240,2.0,0.0
698,68.0,120,120,0.0,0.0
699,67.0,60,180,0.0,0.0
700,59.0,0,240,2.0,0.0
701,69.0,60,60,0.0,0.0
702,71.0,60,60,0.0,0.0
703,72.0,60,60,0.0,0.0
704,74.0,60,60,0.0,0.0
705,59.0,120,240,2.0,0.0
706,65.0,0,0,1.0,0.0
707,65.0,120,60,0.0,0.0
708,68.0,120,240,0.0,0.0
709,63.0,0,240,1.0,0.0
710,67.0,120,240,0.0,0.0
711,60.0,120,0,2.0,0.0
712,63.0,120,240,1.0,0.0
713,72.0,120,240,0.0,0.0
714,62.0,60,240,1.0,0.0
715,71.0,0,120,0.0,0.0
716,72.0,60,60,0.0,0.0
717,63.0,120,240,1.0,0.0
718,75.0,120,60,0.0,0.0
719,73.0,120,240,0.0,0.0
720,55.0,0,240,2.0,0.0
721,64.0,60,240,1.0,0.0
722,72.0,60,180,0.0,0.0
723,56.0,60,240,2.0,0.0
724,65.0,0,240,1.0,0.0
725,77.0,120,60,0.0,0.0
726,75.0,60,180,0.0,0.0
727,66.0,120,480,1.0,0.0
728,57.0,0,240,2.0,0.0
729,77.0,60,60,0.0,0.0
730,75.0,60,60,0.0,0.0
731,74.0,60,60,0.0,0.0
732,58.0,120,480,2.0,0.0
733,75.0,60,60,0.0,0.0
734,81.0,120,60,0.0,0.0
735,82.0,0,120,0.0,0.0
736,75.0,120,120,0.0,0.0
737,65.0,0,120,1.0,0.0
738,74.0,0,120,0.0,0.0
739,66.0,0,120,1.0,0.0
740,68.0,240,120,1.0,0.0
741,62.0,60,240,1.0,0.0
742,59.0,0,240,2.0,0.0
743,63.0,60,60,1.0,0.0
744,65.0,60,60,1.0,0.0
745,58.0,120,240,2.0,0.0
746,66.0,60,60,1.0,0.0
747,63.0,120,60,1.0,0.0
748,65.0,120,240,1.0,0.0
749,56.0,120,240,2.0,0.0
750,59.0,0,120,1.0,0.0
751,54.0,0,480,2.0,0.0
752,59.0,120,120,1.0,0.0
753,58.0,0,120,1.0,0.0
754,70.0,15,120,0.0,0.0
755,63.0,120,240,1.0,0.0
756,71.0,45,15,0.0,0.0
757,70.0,60,45,0.0,0.0
758,68.0,120,60,0.0,0.0
759,70.0,0,120,0.0,0.0
760,70.0,120,120,0.0,0.0
761,63.0,60,240,1.0,0.0
762,82.0,60,180,0.0,0.0
763,83.0,60,60,0.0,0.0
764,82.0,60,60,0.0,0.0
765,80.0,120,60,0.0,0.0
766,55.0,0,0,2.0,0.0
767,64.0,0,0,1.0,0.0
768,82.0,120,120,0.0,0.0
769,73.0,60,180,0.0,0.0
770,56.0,0,240,2.0,0.0
771,71.0,120,60,0.0,0.0
772,70.0,120,240,0.0,0.0
773,56.0,0,480,2.0,0.0
774,71.0,15,120,0.0,0.0
775,73.0,45,15,0.0,0.0
776,71.0,60,45,0.0,0.0
777,70.0,120,60,0.0,0.0
778,71.0,120,120,0.0,0.0
779,65.0,0,0,1.0,0.0
780,71.0,120,120,0.0,0.0
781,83.0,60,180,0.0,0.0
782,57.0,0,240,2.0,0.0
783,76.0,60,60,0.0,0.0
784,75.0,60,60,0.0,0.0
785,74.0,60,60,0.0,0.0
786,66.0,0,0,1.0,0.0
787,57.0,120,240,2.0,0.0
788,75.0,60,60,0.0,0.0
789,85.0,120,60,0.0,0.0
790,84.0,120,240,0.0,0.0
791,75.0,0,120,0.0,0.0
792,58.0,120,0,2.0,0.0
793,74.0,240,120,0.0,0.0
794,71.0,120,240,0.0,0.0
795,67.0,0,240,1.0,0.0
796,70.0,0,120,0.0,0.0
797,76.0,120,120,0.0,0.0
798,67.0,60,240,1.0,0.0
799,75.0,60,180,0.0,0.0
800,58.0,120,240,2.0,0.0
801,68.0,0,240,1.0,0.0
802,74.0,60,60,0.0,0.0
803,77.0,60,60,0.0,0.0
804,80.0,0,60,0.0,0.0
805,83.0,120,120,0.0,0.0
806,68.0,0,720,1.0,0.0
807,62.0,30,240,2.0,0.0
808,82.0,30,150,0.0,0.0
809,58.0,0,240,2.0,0.0
810,80.0,30,30,0.0,0.0
811,78.0,30,30,0.0,0.0
812,77.0,60,30,0.0,0.0
813,75.0,60,60,0.0,0.0
814,74.0,240,60,0.0,0.0
815,63.0,360,480,2.0,0.0
816,74.0,120,240,0.0,0.0
817,75.0,0,240,0.0,0.0
818,67.0,120,120,1.0,0.0
819,65.0,0,120,1.0,0.0
820,67.0,60,360,1.0,0.0
821,65.0,0,240,2.0,0.0
822,69.0,60,60,1.0,0.0
823,71.0,60,60,1.0,0.0
824,63.0,120,240,2.0,0.0
825,72.0,60,60,1.0,0.0
826,65.0,120,60,1.0,0.0
827,68.0,120,240,1.0,0.0
828,62.0,240,240,2.0,0.0
829,67.0,0,120,1.0,0.0
830,60.0,0,480,2.0,0.0
831,65.0,0,240,1.0,0.0
832,67.0,15,120,0.0,0.0
833,63.0,60,240,1.0,0.0
834,68.0,45,15,0.0,0.0
835,67.0,60,45,0.0,0.0
836,66.0,120,60,0.0,0.0
837,67.0,0,120,0.0,0.0
838,67.0,240,60,0.0,0.0
839,75.0,60,240,0.0,0.0
840,67.0,0,240,1.0,0.0
841,60.0,120,240,2.0,0.0
842,74.0,60,60,0.0,0.0
843,72.0,60,60,0.0,0.0
844,70.0,0,60,0.0,0.0
845,68.0,120,120,0.0,0.0
846,65.0,0,240,1.0,0.0
847,67.0,120,240,0.0,0.0
848,63.0,0,240,1.0,0.0
849,60.0,120,0,2.0,0.0
850,66.0,120,240,0.0,0.0
851,62.0,0,480,1.0,0.0
852,60.0,120,0,2.0,0.0
853,65.0,15,120,0.0,0.0
854,67.0,45,15,0.0,0.0
855,59.0,300,240,2.0,0.0
856,65.0,60,45,0.0,0.0
857,64.0,120,60,0.0,0.0
858,65.0,0,120,0.0,0.0
859,73.0,60,300,0.0,0.0
860,65.0,0,240,1.0,0.0
861,58.0,0,240,2.0,0.0
862,72.0,60,60,0.0,0.0
863,70.0,60,60,0.0,0.0
864,68.0,120,60,0.0,0.0
865,63.0,0,240,1.0,0.0
866,58.0,120,240,2.0,0.0
867,66.0,120,120,0.0,0.0
868,65.0,120,240,0.0,0.0
869,61.0,120,240,1.0,0.0
870,58.0,0,240,2.0,0.0
871,64.0,120,240,0.0,0.0
872,58.0,15,240,2.0,0.0
873,60.0,0,480,1.0,0.0
874,63.0,0,120,0.0,0.0
875,65.0,45,15,0.0,0.0
876,57.0,0,240,2.0,0.0
877,63.0,60,45,0.0,0.0
878,62.0,120,60,0.0,0.0
879,63.0,300,120,0.0,0.0
880,72.0,60,300,0.0,0.0
881,56.0,0,240,2.0,0.0
882,63.0,0,120,1.0,0.0
883,70.0,60,60,0.0,0.0
884,62.0,0,120,1.0,0.0
885,68.0,60,60,0.0,0.0
886,67.0,120,60,0.0,0.0
887,66.0,120,120,0.0,0.0
888,56.0,0,240,2.0,0.0
889,60.0,60,240,1.0,0.0
890,75.0,60,180,0.0,0.0
891,55.0,120,240,2.0,0.0
892,58.0,0,240,1.0,0.0
893,74.0,120,60,0.0,0.0
894,73.0,0,0,0.0,0.0
895,57.0,0,360,1.0,0.0
896,55.0,120,240,2.0,0.0
897,74.0,0,120,0.0,0.0
898,54.0,0,240,2.0,0.0
899,63.0,120,120,0.0,0.0
900,62.0,120,120,0.0,0.0
901,57.0,0,120,1.0,0.0
902,62.0,0,240,1.0,0.0
903,64.0,60,60,0.0,0.0
904,66.0,60,60,0.0,0.0
905,67.0,60,60,0.0,0.0
906,69.0,60,60,0.0,0.0
907,54.0,0,240,2.0,0.0
908,60.0,60,240,1.0,0.0
909,70.0,60,60,0.0,0.0
910,72.0,60,60,0.0,0.0
911,74.0,0,60,0.0,0.0
912,75.0,60,60,0.0,0.0
913,58.0,0,240,1.0,0.0
914,55.0,60,240,2.0,0.0
915,74.0,120,60,0.0,0.0
916,79.0,60,180,0.0,0.0
917,57.0,0,240,1.0,0.0
918,48.0,120,240,2.0,0.0
919,78.0,120,60,0.0,0.0
920,81.0,120,240,0.0,0.0
921,50.0,0,240,1.0,0.0
922,46.0,240,480,2.0,0.0
923,74.0,15,120,0.0,0.0
924,54.0,0,240,1.0,0.0
925,75.0,45,15,0.0,0.0
926,74.0,60,45,0.0,0.0
927,73.0,120,60,0.0,0.0
928,74.0,0,120,0.0,0.0
929,86.0,60,300,0.0,0.0
930,54.0,60,240,1.0,0.0
931,46.0,0,240,2.0,0.0
932,55.0,0,240,1.0,0.0
933,84.0,60,60,0.0,0.0
934,82.0,60,60,0.0,0.0
935,81.0,60,60,0.0,0.0
936,55.0,60,240,1.0,0.0
937,46.0,0,240,2.0,0.0
938,79.0,60,60,0.0,0.0
939,86.0,120,60,0.0,0.0
940,77.0,60,180,0.0,0.0
941,56.0,60,240,1.0,0.0
942,75.0,60,60,0.0,0.0
943,74.0,60,60,0.0,0.0
944,72.0,0,60,0.0,0.0
945,47.0,0,0,2.0,0.0
946,74.0,60,60,0.0,0.0
947,80.0,0,60,0.0,0.0
948,79.0,60,60,0.0,0.0
949,50.0,0,120,2.0,0.0
950,77.0,60,60,0.0,0.0
951,75.0,60,60,0.0,0.0
952,48.0,0,240,2.0,0.0
953,74.0,60,60,0.0,0.0
954,72.0,60,60,0.0,0.0
955,71.0,0,60,0.0,0.0
956,72.0,60,60,0.0,0.0
957,55.0,60,0,1.0,0.0
958,77.0,60,60,0.0,0.0
959,75.0,60,60,0.0,0.0
960,74.0,60,60,0.0,0.0
961,57.0,0,240,1.0,0.0
962,72.0,60,60,0.0,0.0
963,48.0,0,240,2.0,0.0
964,70.0,60,60,0.0,0.0
965,69.0,60,60,0.0,0.0
966,67.0,60,60,0.0,0.0
967,69.0,60,60,0.0,0.0
968,48.0,60,240,2.0,0.0
969,57.0,0,240,1.0,0.0
970,74.0,60,60,0.0,0.0
971,72.0,60,60,0.0,0.0
972,70.0,0,60,0.0,0.0
973,69.0,60,60,0.0,0.0
974,58.0,0,240,1.0,0.0
975,67.0,60,60,0.0,0.0
976,66.0,60,60,0.0,0.0
977,64.0,0,60,0.0,0.0
978,66.0,60,60,0.0,0.0
979,49.0,60,0,2.0,0.0
980,70.0,0,60,0.0,0.0
981,52.0,60,120,2.0,0.0
982,69.0,60,60,0.0,0.0
983,67.0,0,60,0.0,0.0
984,66.0,60,60,0.0,0.0
985,50.0,0,240,2.0,0.0
986,57.0,0,240,1.0,0.0
987,64.0,60,60,0.0,0.0
988,62.0,60,60,0.0,0.0
989,61.0,60,60,0.0,0.0
990,62.0,60,60,0.0,0.0
991,57.0,0,240,1.0,0.0
992,67.0,60,60,0.0,0.0
993,66.0,60,60,0.0,0.0
994,64.0,60,60,0.0,0.0
995,62.0,60,60,0.0,0.0
996,60.0,60,60,0.0,0.0
997,58.0,60,60,0.0,0.0
998,57.0,60,60,0.0,0.0
999,58.0,0,0,1.0,0.0
1000,50.0,0,0,2.0,0.0
1001,58.0,60,60,0.0,0.0
1002,63.0,60,60,0.0,0.0
1003,62.0,60,60,0.0,0.0
1004,60.0,60,60,0.0,0.0
1005,60.0,120,480,1.0,0.0
1006,50.0,0,240,2.0,0.0
1007,58.0,60,60,0.0,0.0
1008,57.0,60,60,0.0,0.0
1009,55.0,60,60,0.0,0.0
1010,55.0,240,720,2.0,0.0
1011,54.0,120,0,0.0,0.0
1012,55.0,0,360,0.0,0.0
1013,58.0,120,120,1.0,0.0
1014,57.0,240,120,1.0,0.0
1015,58.0,120,480,1.0,0.0
1016,50.0,0,240,2.0,0.0
1017,43.0,120,120,2.0,0.0
1018,57.0,120,120,2.0,0.0
1019,58.0,120,120,2.0,0.0
1020,60.0,240,120,2.0,0.0
1021,62.0,120,480,2.0,0.0
1022,81.0,15,120,0.0,0.0
1023,82.0,45,15,0.0,0.0
1024,65.0,0,240,1.0,0.0
1025,81.0,60,45,0.0,0.0
1026,80.0,120,60,0.0,0.0
1027,81.0,0,120,0.0,0.0
1028,65.0,60,240,1.0,0.0
1029,75.0,120,120,0.0,0.0
1030,74.0,60,180,0.0,0.0
1031,66.0,60,240,1.0,0.0
1032,60.0,0,240,2.0,0.0
1033,76.0,60,60,0.0,0.0
1034,78.0,60,60,0.0,0.0
1035,79.0,0,60,0.0,0.0
1036,81.0,60,60,0.0,0.0
1037,66.0,0,240,1.0,0.0
1038,60.0,120,240,2.0,0.0
1039,72.0,120,60,0.0,0.0
1040,75.0,120,240,0.0,0.0
1041,74.0,120,240,0.0,0.0
1042,58.0,0,0,2.0,0.0
1043,67.0,120,0,1.0,0.0
1044,77.0,0,120,0.0,0.0
1045,79.0,45,15,0.0,0.0
1046,55.0,0,120,2.0,0.0
1047,62.0,0,240,1.0,0.0
1048,77.0,60,45,0.0,0.0
1049,75.0,120,60,0.0,0.0
1050,77.0,120,120,0.0,0.0
1051,57.0,0,120,2.0,0.0
1052,58.0,60,240,2.0,0.0
1053,68.0,120,120,0.0,0.0
1054,67.0,60,180,0.0,0.0
1055,59.0,60,240,2.0,0.0
1056,69.0,60,60,0.0,0.0
1057,71.0,60,60,0.0,0.0
1058,72.0,0,60,0.0,0.0
1059,74.0,60,60,0.0,0.0
1060,65.0,0,0,1.0,0.0
1061,59.0,120,240,2.0,0.0
1062,65.0,120,60,0.0,0.0
1063,68.0,120,240,0.0,0.0
1064,67.0,120,240,0.0,0.0
1065,63.0,0,0,1.0,0.0
1066,60.0,120,0,2.0,0.0
1067,72.0,120,240,0.0,0.0
1068,62.0,0,240,1.0,0.0
1069,71.0,60,120,0.0,0.0
1070,63.0,120,240,1.0,0.0
1071,72.0,60,60,0.0,0.0
1072,75.0,120,60,0.0,0.0
1073,73.0,120,240,0.0,0.0
1074,55.0,60,240,2.0,0.0
1075,64.0,0,240,1.0,0.0
1076,72.0,60,180,0.0,0.0
1077,56.0,60,240,2.0,0.0
1078,65.0,0,240,1.0,0.0
1079,77.0,120,60,0.0,0.0
1080,75.0,60,180,0.0,0.0
1081,57.0,0,240,2.0,0.0
1082,66.0,120,480,1.0,0.0
1083,77.0,60,60,0.0,0.0
1084,75.0,60,60,0.0,0.0
1085,74.0,60,60,0.0,0.0
1086,58.0,0,480,2.0,0.0
1087,75.0,60,60,0.0,0.0
1088,81.0,120,60,0.0,0.0
1089,82.0,0,120,0.0,0.0
1090,75.0,120,120,0.0,0.0
1091,65.0,0,120,1.0,0.0
1092,74.0,120,120,0.0,0.0
1093,66.0,0,120,1.0,0.0
1094,68.0,240,120,1.0,0.0
1095,62.0,60,240,1.0,0.0
1096,59.0,60,240,2.0,0.0
1097,63.0,60,60,1.0,0.0
1098,65.0,0,60,1.0,0.0
1099,66.0,60,60,1.0,0.0
1100,58.0,120,240,2.0,0.0
1101,63.0,120,60,1.0,0.0
1102,65.0,120,240,1.0,0.0
1103,56.0,0,240,2.0,0.0
1104,59.0,120,120,1.0,0.0
1105,59.0,120,120,1.0,0.0
1106,54.0,0,480,2.0,0.0
1107,58.0,0,120,1.0,0.0
1108,70.0,15,120,0.0,0.0
1109,71.0,45,15,0.0,0.0
1110,70.0,60,45,0.0,0.0
1111,68.0,120,60,0.0,0.0
1112,70.0,0,0,0.0,0.0
1113,63.0,120,0,1.0,0.0
1114,82.0,60,180,0.0,0.0
1115,55.0,0,240,2.0,0.0
1116,64.0,120,240,1.0,0.0
1117,83.0,60,60,0.0,0.0
1118,82.0,60,60,0.0,0.0
1119,80.0,0,60,0.0,0.0
1120,82.0,120,120,0.0,0.0
1121,64.0,0,480,1.0,0.0
1122,55.0,60,240,2.0,0.0
1123,73.0,60,180,0.0,0.0
1124,56.0,120,240,2.0,0.0
1125,71.0,120,60,0.0,0.0
1126,70.0,120,240,0.0,0.0
1127,56.0,0,480,2.0,0.0
1128,71.0,15,120,0.0,0.0
1129,65.0,120,240,1.0,0.0
1130,73.0,45,15,0.0,0.0
1131,71.0,60,45,0.0,0.0
1132,70.0,120,60,0.0,0.0
1133,71.0,0,120,0.0,0.0
1134,71.0,120,120,0.0,0.0
1135,65.0,60,240,1.0,0.0
1136,83.0,60,180,0.0,0.0
1137,66.0,0,240,1.0,0.0
1138,76.0,60,60,0.0,0.0
1139,75.0,60,60,0.0,0.0
1140,74.0,60,60,0.0,0.0
1141,57.0,0,0,2.0,0.0
1142,66.0,0,480,1.0,0.0
1143,75.0,60,60,0.0,0.0
1144,85.0,120,60,0.0,0.0
1145,84.0,120,240,0.0,0.0
1146,75.0,0,120,0.0,0.0
1147,58.0,120,0,2.0,0.0
1148,74.0,240,120,0.0,0.0
1149,71.0,120,240,0.0,0.0
1150,70.0,0,120,0.0,0.0
1151,67.0,0,0,1.0,0.0
1152,76.0,120,120,0.0,0.0
1153,75.0,60,180,0.0,0.0
1154,68.0,0,240,1.0,0.0
1155,58.0,120,240,2.0,0.0
1156,74.0,60,60,0.0,0.0
1157,77.0,60,60,0.0,0.0
1158,80.0,0,60,0.0,0.0
1159,68.0,0,720,1.0,0.0
1160,83.0,120,120,0.0,0.0
1161,62.0,30,240,2.0,0.0
1162,82.0,30,150,0.0,0.0
1163,58.0,240,240,2.0,0.0
1164,80.0,30,30,0.0,0.0
1165,78.0,30,30,0.0,0.0
1166,77.0,60,30,0.0,0.0
1167,75.0,60,60,0.0,0.0
1168,74.0,0,60,0.0,0.0
1169,63.0,0,480,2.0,0.0
1170,74.0,120,240,0.0,0.0
1171,75.0,0,240,0.0,0.0
1172,67.0,120,120,1.0,0.0
1173,65.0,360,120,1.0,0.0
1174,67.0,60,360,1.0,0.0
1175,65.0,0,240,2.0,0.0
1176,69.0,60,60,1.0,0.0
1177,71.0,60,60,1.0,0.0
1178,63.0,120,240,2.0,0.0
1179,72.0,60,60,1.0,0.0
1180,65.0,120,60,1.0,0.0
1181,68.0,120,240,1.0,0.0
1182,62.0,0,240,2.0,0.0
1183,67.0,240,120,1.0,0.0
1184,65.0,15,240,1.0,0.0
1185,60.0,60,480,2.0,0.0
1186,67.0,0,120,0.0,0.0
1187,68.0,45,15,0.0,0.0
1188,63.0,0,240,1.0,0.0
1189,67.0,60,45,0.0,0.0
1190,66.0,120,60,0.0,0.0
1191,67.0,0,120,0.0,0.0
1192,67.0,240,60,0.0,0.0
1193,75.0,60,240,0.0,0.0
1194,67.0,0,240,1.0,0.0
1195,74.0,60,60,0.0,0.0
1196,72.0,60,60,0.0,0.0
1197,70.0,0,60,0.0,0.0
1198,60.0,120,0,2.0,0.0
1199,65.0,0,240,1.0,0.0
1200,68.0,120,120,0.0,0.0
1201,67.0,120,240,0.0,0.0
1202,63.0,120,240,1.0,0.0
1203,60.0,120,0,2.0,0.0
1204,66.0,120,240,0.0,0.0
1205,60.0,0,240,2.0,0.0
1206,62.0,0,480,1.0,0.0
1207,65.0,15,120,0.0,0.0
1208,67.0,45,15,0.0,0.0
1209,59.0,300,240,2.0,0.0
1210,65.0,60,45,0.0,0.0
1211,64.0,120,60,0.0,0.0
1212,65.0,0,120,0.0,0.0
1213,73.0,60,300,0.0,0.0
1214,58.0,0,240,2.0,0.0
1215,65.0,120,240,1.0,0.0
1216,72.0,60,60,0.0,0.0
1217,70.0,60,60,0.0,0.0
1218,68.0,0,60,0.0,0.0
1219,66.0,120,120,0.0,0.0
1220,63.0,0,240,1.0,0.0
1221,65.0,120,240,0.0,0.0
1222,61.0,0,240,1.0,0.0
1223,58.0,120,0,2.0,0.0
1224,64.0,120,240,0.0,0.0
1225,58.0,15,240,2.0,0.0
1226,60.0,0,480,1.0,0.0
1227,63.0,0,120,0.0,0.0
1228,65.0,45,15,0.0,0.0
1229,57.0,300,240,2.0,0.0
1230,63.0,60,45,0.0,0.0
1231,62.0,120,60,0.0,0.0
1232,63.0,0,120,0.0,0.0
1233,72.0,60,300,0.0,0.0
1234,63.0,0,120,1.0,0.0
1235,56.0,0,240,2.0,0.0
1236,70.0,60,60,0.0,0.0
1237,62.0,120,120,1.0,0.0
1238,68.0,60,60,0.0,0.0
1239,67.0,0,60,0.0,0.0
1240,56.0,0,240,2.0,0.0
1241,66.0,120,120,0.0,0.0
1242,60.0,60,240,1.0,0.0
1243,75.0,60,180,0.0,0.0
1244,55.0,0,240,2.0,0.0
1245,58.0,0,240,1.0,0.0
1246,74.0,120,60,0.0,0.0
1247,57.0,0,360,1.0,0.0
1248,55.0,120,240,2.0,0.0
1249,73.0,120,0,0.0,0.0
1250,74.0,0,120,0.0,0.0
1251,54.0,120,240,2.0,0.0
1252,63.0,120,120,0.0,0.0
1253,62.0,0,120,0.0,0.0
1254,57.0,0,120,1.0,0.0
1255,62.0,0,240,1.0,0.0
1256,64.0,60,60,0.0,0.0
1257,66.0,60,60,0.0,0.0
1258,67.0,60,60,0.0,0.0
1259,54.0,0,240,2.0,0.0
1260,60.0,60,240,1.0,0.0
1261,69.0,60,60,0.0,0.0
1262,70.0,60,60,0.0,0.0
1263,72.0,60,60,0.0,0.0
1264,74.0,0,60,0.0,0.0
1265,75.0,60,60,0.0,0.0
1266,55.0,0,240,2.0,0.0
1267,58.0,60,240,1.0,0.0
1268,74.0,120,60,0.0,0.0
1269,79.0,60,180,0.0,0.0
1270,48.0,0,240,2.0,0.0
1271,57.0,120,240,1.0,0.0
1272,78.0,120,60,0.0,0.0
1273,81.0,120,240,0.0,0.0
1274,50.0,15,240,1.0,0.0
1275,46.0,0,480,2.0,0.0
1276,74.0,0,120,0.0,0.0
1277,75.0,45,15,0.0,0.0
1278,54.0,240,240,1.0,0.0
1279,74.0,60,45,0.0,0.0
1280,73.0,120,60,0.0,0.0
1281,74.0,0,120,0.0,0.0
1282,86.0,60,300,0.0,0.0
1283,54.0,60,240,1.0,0.0
1284,55.0,0,240,1.0,0.0
1285,84.0,60,60,0.0,0.0
1286,82.0,60,60,0.0,0.0
1287,81.0,0,60,0.0,0.0
1288,79.0,60,60,0.0,0.0
1289,55.0,60,240,1.0,0.0
1290,46.0,60,0,2.0,0.0
1291,86.0,120,60,0.0,0.0
1292,77.0,60,180,0.0,0.0
1293,56.0,0,240,1.0,0.0
1294,75.0,60,60,0.0,0.0
1295,74.0,60,60,0.0,0.0
1296,72.0,60,60,0.0,0.0
1297,47.0,0,0,2.0,0.0
1298,74.0,60,60,0.0,0.0
1299,80.0,0,60,0.0,0.0
1300,79.0,60,60,0.0,0.0
1301,50.0,0,120,2.0,0.0
1302,77.0,60,60,0.0,0.0
1303,55.0,0,240,1.0,0.0
1304,75.0,60,60,0.0,0.0
1305,48.0,60,240,2.0,0.0
1306,74.0,60,60,0.0,0.0
1307,72.0,60,60,0.0,0.0
1308,71.0,0,60,0.0,0.0
1309,72.0,60,60,0.0,0.0
1310,55.0,60,240,1.0,0.0
1311,77.0,60,60,0.0,0.0
1312,75.0,60,60,0.0,0.0
1313,74.0,0,60,0.0,0.0
1314,48.0,0,240,2.0,0.0
1315,72.0,60,60,0.0,0.0
1316,57.0,0,240,1.0,0.0
1317,70.0,60,60,0.0,0.0
1318,69.0,60,60,0.0,0.0
1319,67.0,60,60,0.0,0.0
1320,48.0,0,240,2.0,0.0
1321,57.0,60,240,1.0,0.0
1322,69.0,60,60,0.0,0.0
1323,74.0,60,60,0.0,0.0
1324,72.0,60,60,0.0,0.0
1325,70.0,0,60,0.0,0.0
1326,49.0,0,240,2.0,0.0
1327,58.0,60,240,1.0,0.0
1328,69.0,60,60,0.0,0.0
1329,67.0,60,60,0.0,0.0
1330,66.0,60,60,0.0,0.0
1331,64.0,0,60,0.0,0.0
1332,66.0,60,60,0.0,0.0
1333,49.0,60,120,2.0,0.0
1334,70.0,0,60,0.0,0.0
1335,69.0,60,60,0.0,0.0
1336,52.0,0,120,2.0,0.0
1337,67.0,60,60,0.0,0.0
1338,50.0,60,240,2.0,0.0
1339,57.0,0,240,1.0,0.0
1340,66.0,60,60,0.0,0.0
1341,64.0,60,60,0.0,0.0
1342,62.0,60,60,0.0,0.0
1343,61.0,0,60,0.0,0.0
1344,62.0,60,60,0.0,0.0
1345,57.0,60,240,1.0,0.0
1346,67.0,60,60,0.0,0.0
1347,66.0,60,60,0.0,0.0
1348,64.0,0,60,0.0,0.0
1349,50.0,0,240,2.0,0.0
1350,62.0,60,60,0.0,0.0
1351,60.0,60,60,0.0,0.0
1352,58.0,60,60,0.0,0.0
1353,57.0,0,60,0.0,0.0
1354,58.0,60,60,0.0,0.0
1355,58.0,60,0,1.0,0.0
1356,63.0,60,60,0.0,0.0
1357,62.0,60,60,0.0,0.0
1358,60.0,0,60,0.0,0.0
1359,50.0,60,0,2.0,0.0
1360,60.0,120,480,1.0,0.0
1361,58.0,60,60,0.0,0.0
1362,57.0,60,60,0.0,0.0
1363,55.0,60,60,0.0,0.0
1364,54.0,0,60,0.0,0.0
1365,55.0,120,480,0.0,0.0
1366,55.0,120,600,2.0,0.0
1367,58.0,120,120,1.0,0.0
1368,57.0,0,120,1.0,0.0
1369,58.0,0,240,1.0,0.0
1370,54.0,120,120,2.0,0.0
1371,55.0,120,120,2.0,0.0
1372,50.0,480,120,2.0,0.0
1373,43.0,0,480,2.0,0.0
