tick,type,time,meta,track,frame_rate,hours,minutes,seconds,frames,sub_frames,numerator,denominator,clocks_per_click,notated_32nd_notes_per_beat,key,tempo,port,program,channel,control,value,note,velocity
0,track_name,0,1,0,,,,,,,,,,,,,,,,,,,
0,track_name,0,1,7,,,,,,,,,,,,,,,,,,,
0,midi_port,0,1,7,,,,,,,,,,,,,0,,,,,,
0,end_of_track,0,1,6,,,,,,,,,,,,,,,,,,,
0,track_name,0,1,6,,,,,,,,,,,,,,,,,,,
0,midi_port,0,1,6,,,,,,,,,,,,,0,,,,,,
0,end_of_track,0,1,5,,,,,,,,,,,,,,,,,,,
0,track_name,0,1,5,,,,,,,,,,,,,,,,,,,
0,midi_port,0,1,5,,,,,,,,,,,,,0,,,,,,
0,end_of_track,0,1,4,,,,,,,,,,,,,,,,,,,
0,track_name,0,1,4,,,,,,,,,,,,,,,,,,,
0,midi_port,0,1,4,,,,,,,,,,,,,0,,,,,,
0,note_on,0,0,3,,,,,,,,,,,,,,,2,,,55,100
0,control_change,0,0,3,,,,,,,,,,,,,,,2,10,54,,
0,control_change,0,0,3,,,,,,,,,,,,,,,2,7,100,,
0,program_change,0,0,3,,,,,,,,,,,,,,6,2,,,,
0,track_name,0,1,3,,,,,,,,,,,,,,,,,,,
0,midi_port,0,1,3,,,,,,,,,,,,,0,,,,,,
0,track_name,0,1,16,,,,,,,,,,,,,,,,,,,
0,control_change,0,0,2,,,,,,,,,,,,,,,1,10,64,,
0,control_change,0,0,2,,,,,,,,,,,,,,,1,7,100,,
0,program_change,0,0,2,,,,,,,,,,,,,,6,1,,,,
0,end_of_track,0,1,7,,,,,,,,,,,,,,,,,,,
0,midi_port,0,1,8,,,,,,,,,,,,,0,,,,,,
0,track_name,0,1,8,,,,,,,,,,,,,,,,,,,
0,end_of_track,0,1,8,,,,,,,,,,,,,,,,,,,
0,midi_port,0,1,16,,,,,,,,,,,,,0,,,,,,
0,end_of_track,0,1,15,,,,,,,,,,,,,,,,,,,
0,track_name,0,1,15,,,,,,,,,,,,,,,,,,,
0,midi_port,0,1,15,,,,,,,,,,,,,0,,,,,,
0,end_of_track,0,1,14,,,,,,,,,,,,,,,,,,,
0,track_name,0,1,14,,,,,,,,,,,,,,,,,,,
0,midi_port,0,1,14,,,,,,,,,,,,,0,,,,,,
0,end_of_track,0,1,13,,,,,,,,,,,,,,,,,,,
0,track_name,0,1,13,,,,,,,,,,,,,,,,,,,
0,midi_port,0,1,13,,,,,,,,,,,,,0,,,,,,
0,track_name,0,1,2,,,,,,,,,,,,,,,,,,,
0,end_of_track,0,1,12,,,,,,,,,,,,,,,,,,,
0,midi_port,0,1,12,,,,,,,,,,,,,0,,,,,,
0,end_of_track,0,1,11,,,,,,,,,,,,,,,,,,,
0,track_name,0,1,11,,,,,,,,,,,,,,,,,,,
0,midi_port,0,1,11,,,,,,,,,,,,,0,,,,,,
0,end_of_track,0,1,10,,,,,,,,,,,,,,,,,,,
0,track_name,0,1,10,,,,,,,,,,,,,,,,,,,
0,midi_port,0,1,10,,,,,,,,,,,,,0,,,,,,
0,end_of_track,0,1,9,,,,,,,,,,,,,,,,,,,
0,track_name,0,1,9,,,,,,,,,,,,,,,,,,,
0,midi_port,0,1,9,,,,,,,,,,,,,0,,,,,,
0,track_name,0,1,12,,,,,,,,,,,,,,,,,,,
0,midi_port,0,1,2,,,,,,,,,,,,,0,,,,,,
0,end_of_track,0,1,16,,,,,,,,,,,,,,,,,,,
0,note_on,0,0,1,,,,,,,,,,,,,,,0,,,67,100
0,key_signature,0,1,0,,,,,,,,,,,G,,,,,,,,
0,set_tempo,0,1,0,,,,,,,,,,,,600000,,,,,,,
0,marker,0,1,0,,,,,,,,,,,,,,,,,,,
0,midi_port,0,1,1,,,,,,,,,,,,,0,,,,,,
0,track_name,0,1,1,,,,,,,,,,,,,,,,,,,
0,program_change,0,0,1,,,,,,,,,,,,,,6,0,,,,
0,control_change,0,0,1,,,,,,,,,,,,,,,0,7,100,,
0,control_change,0,0,1,,,,,,,,,,,,,,,0,10,74,,
0,time_signature,0,1,0,,,,,,,9,8,12,8,,,,,,,,,
0,smpte_offset,0,1,0,25,32,0,3,0,0,,,,,,,,,,,,,
480,note_on,0,0,1,,,,,,,,,,,,,,,0,,,66,100
480,note_on,480,0,1,,,,,,,,,,,,,,,0,,,67,0
720,note_on,240,0,1,,,,,,,,,,,,,,,0,,,66,0
720,note_on,720,0,3,,,,,,,,,,,,,,,2,,,55,0
720,note_on,0,0,1,,,,,,,,,,,,,,,0,,,67,100
1200,note_on,480,0,3,,,,,,,,,,,,,,,2,,,54,100
1200,note_on,0,0,1,,,,,,,,,,,,,,,0,,,69,100
1200,note_on,480,0,1,,,,,,,,,,,,,,,0,,,67,0
1440,note_on,240,0,1,,,,,,,,,,,,,,,0,,,69,0
1440,note_on,240,0,3,,,,,,,,,,,,,,,2,,,54,0
1440,note_on,0,0,3,,,,,,,,,,,,,,,2,,,55,100
1440,note_on,0,0,1,,,,,,,,,,,,,,,0,,,71,100
1680,note_on,240,0,1,,,,,,,,,,,,,,,0,,,71,0
1680,note_on,0,0,1,,,,,,,,,,,,,,,0,,,74,100
1920,note_on,240,0,1,,,,,,,,,,,,,,,0,,,74,0
1920,note_on,0,0,1,,,,,,,,,,,,,,,0,,,73,100
1920,note_on,480,0,3,,,,,,,,,,,,,,,2,,,55,0
1920,note_on,0,0,3,,,,,,,,,,,,,,,2,,,52,100
2160,note_on,0,0,3,,,,,,,,,,,,,,,2,,,54,100
2160,note_on,240,0,1,,,,,,,,,,,,,,,0,,,73,0
2160,note_on,0,0,1,,,,,,,,,,,,,,,0,,,74,100
2160,note_on,240,0,3,,,,,,,,,,,,,,,2,,,52,0
2640,note_on,480,0,1,,,,,,,,,,,,,,,0,,,74,0
2640,note_on,0,0,1,,,,,,,,,,,,,,,0,,,69,100
2880,note_on,0,0,1,,,,,,,,,,,,,,,0,,,74,100
2880,note_on,240,0,1,,,,,,,,,,,,,,,0,,,69,0
2880,note_on,720,0,3,,,,,,,,,,,,,,,2,,,54,0
3360,note_on,480,0,3,,,,,,,,,,,,,,,2,,,57,100
3360,note_on,480,0,1,,,,,,,,,,,,,,,0,,,74,0
3360,note_on,0,0,1,,,,,,,,,,,,,,,0,,,76,100
3600,note_on,240,0,3,,,,,,,,,,,,,,,2,,,57,0
3600,note_on,0,0,3,,,,,,,,,,,,,,,2,,,50,100
3600,note_on,0,0,1,,,,,,,,,,,,,,,0,,,76,100
3600,note_on,240,0,1,,,,,,,,,,,,,,,0,,,76,0
3630,note_on,0,0,1,,,,,,,,,,,,,,,0,,,78,100
3630,note_on,30,0,1,,,,,,,,,,,,,,,0,,,76,0
3720,note_on,90,0,1,,,,,,,,,,,,,,,0,,,78,0
3720,note_on,0,0,1,,,,,,,,,,,,,,,0,,,79,100
3840,note_on,0,0,1,,,,,,,,,,,,,,,0,,,78,100
3840,note_on,120,0,1,,,,,,,,,,,,,,,0,,,79,0
3960,note_on,0,0,1,,,,,,,,,,,,,,,0,,,76,100
3960,note_on,120,0,1,,,,,,,,,,,,,,,0,,,78,0
4080,note_on,0,0,3,,,,,,,,,,,,,,,2,,,54,100
4080,note_on,480,0,3,,,,,,,,,,,,,,,2,,,50,0
4080,note_on,0,0,1,,,,,,,,,,,,,,,0,,,74,100
4080,note_on,120,0,1,,,,,,,,,,,,,,,0,,,76,0
4320,note_on,240,0,3,,,,,,,,,,,,,,,2,,,54,0
4320,note_on,4320,0,2,,,,,,,,,,,,,,,1,,,55,100
4320,note_on,0,0,3,,,,,,,,,,,,,,,2,,,52,100
4320,note_on,240,0,1,,,,,,,,,,,,,,,0,,,74,0
4320,note_on,0,0,1,,,,,,,,,,,,,,,0,,,79,100
4560,note_on,240,0,1,,,,,,,,,,,,,,,0,,,79,0
4560,note_on,0,0,1,,,,,,,,,,,,,,,0,,,83,100
4800,note_on,240,0,1,,,,,,,,,,,,,,,0,,,83,0
4800,note_on,0,0,1,,,,,,,,,,,,,,,0,,,81,100
4800,note_on,480,0,2,,,,,,,,,,,,,,,1,,,55,0
4800,note_on,0,0,2,,,,,,,,,,,,,,,1,,,54,100
5040,note_on,240,0,1,,,,,,,,,,,,,,,0,,,81,0
5040,note_on,0,0,1,,,,,,,,,,,,,,,0,,,83,100
5040,note_on,0,0,2,,,,,,,,,,,,,,,1,,,55,100
5040,note_on,240,0,2,,,,,,,,,,,,,,,1,,,54,0
5280,note_on,240,0,1,,,,,,,,,,,,,,,0,,,83,0
5280,note_on,0,0,1,,,,,,,,,,,,,,,0,,,79,100
5520,note_on,240,0,1,,,,,,,,,,,,,,,0,,,79,0
5520,note_on,480,0,2,,,,,,,,,,,,,,,1,,,55,0
5520,note_on,0,0,1,,,,,,,,,,,,,,,0,,,78,100
5520,note_on,0,0,2,,,,,,,,,,,,,,,1,,,57,100
5760,note_on,0,0,2,,,,,,,,,,,,,,,1,,,59,100
5760,note_on,240,0,2,,,,,,,,,,,,,,,1,,,57,0
5760,note_on,0,0,1,,,,,,,,,,,,,,,0,,,79,100
5760,note_on,240,0,1,,,,,,,,,,,,,,,0,,,78,0
6000,note_on,240,0,2,,,,,,,,,,,,,,,1,,,59,0
6000,note_on,0,0,2,,,,,,,,,,,,,,,1,,,62,100
6240,note_on,240,0,2,,,,,,,,,,,,,,,1,,,62,0
6240,note_on,0,0,2,,,,,,,,,,,,,,,1,,,61,100
6240,note_on,0,0,3,,,,,,,,,,,,,,,2,,,57,100
6240,note_on,1920,0,3,,,,,,,,,,,,,,,2,,,52,0
6480,note_on,0,0,2,,,,,,,,,,,,,,,1,,,62,100
6480,note_on,240,0,2,,,,,,,,,,,,,,,1,,,61,0
6480,note_on,0,0,3,,,,,,,,,,,,,,,2,,,50,100
6480,note_on,240,0,3,,,,,,,,,,,,,,,2,,,57,0
6720,note_on,0,0,1,,,,,,,,,,,,,,,0,,,78,100
6720,note_on,960,0,1,,,,,,,,,,,,,,,0,,,79,0
6960,note_on,0,0,2,,,,,,,,,,,,,,,1,,,57,100
6960,note_on,480,0,2,,,,,,,,,,,,,,,1,,,62,0
6960,note_on,240,0,1,,,,,,,,,,,,,,,0,,,78,0
6960,note_on,0,0,1,,,,,,,,,,,,,,,0,,,76,100
7200,note_on,0,0,2,,,,,,,,,,,,,,,1,,,62,100
7200,note_on,240,0,2,,,,,,,,,,,,,,,1,,,57,0
7200,note_on,240,0,1,,,,,,,,,,,,,,,0,,,76,0
7200,note_on,0,0,1,,,,,,,,,,,,,,,0,,,78,100
7200,note_on,720,0,3,,,,,,,,,,,,,,,2,,,50,0
7440,note_on,0,0,1,,,,,,,,,,,,,,,0,,,79,100
7440,note_on,240,0,1,,,,,,,,,,,,,,,0,,,78,0
7680,note_on,0,0,1,,,,,,,,,,,,,,,0,,,81,100
7680,note_on,240,0,1,,,,,,,,,,,,,,,0,,,79,0
7680,note_on,0,0,2,,,,,,,,,,,,,,,1,,,64,100
7680,note_on,480,0,2,,,,,,,,,,,,,,,1,,,62,0
7920,note_on,240,0,1,,,,,,,,,,,,,,,0,,,81,0
7920,note_on,0,0,2,,,,,,,,,,,,,,,1,,,64,100
7920,note_on,0,0,1,,,,,,,,,,,,,,,0,,,74,100
7920,note_on,240,0,2,,,,,,,,,,,,,,,1,,,64,0
7950,note_on,0,0,2,,,,,,,,,,,,,,,1,,,66,100
7950,note_on,30,0,2,,,,,,,,,,,,,,,1,,,64,0
8040,note_on,0,0,2,,,,,,,,,,,,,,,1,,,67,100
8040,note_on,90,0,2,,,,,,,,,,,,,,,1,,,66,0
8160,note_on,120,0,2,,,,,,,,,,,,,,,1,,,67,0
8160,note_on,0,0,2,,,,,,,,,,,,,,,1,,,66,100
8280,note_on,120,0,2,,,,,,,,,,,,,,,1,,,66,0
8280,note_on,0,0,2,,,,,,,,,,,,,,,1,,,64,100
8400,note_on,120,0,2,,,,,,,,,,,,,,,1,,,64,0
8400,note_on,0,0,2,,,,,,,,,,,,,,,1,,,62,100
8400,note_on,1200,0,3,,,,,,,,,,,,,,,2,,,60,100
8640,note_on,240,0,2,,,,,,,,,,,,,,,1,,,62,0
8640,note_on,0,0,3,,,,,,,,,,,,,,,2,,,59,100
8640,note_on,240,0,3,,,,,,,,,,,,,,,2,,,60,0
8640,note_on,0,0,2,,,,,,,,,,,,,,,1,,,67,100
8880,note_on,0,0,1,,,,,,,,,,,,,,,0,,,79,100
8880,note_on,0,0,2,,,,,,,,,,,,,,,1,,,71,100
8880,note_on,960,0,1,,,,,,,,,,,,,,,0,,,74,0
8880,note_on,240,0,2,,,,,,,,,,,,,,,1,,,67,0
9120,note_on,0,0,2,,,,,,,,,,,,,,,1,,,69,100
9120,note_on,0,0,1,,,,,,,,,,,,,,,0,,,78,100
9120,note_on,240,0,2,,,,,,,,,,,,,,,1,,,71,0
9120,note_on,240,0,1,,,,,,,,,,,,,,,0,,,79,0
9360,note_on,240,0,1,,,,,,,,,,,,,,,0,,,78,0
9360,note_on,720,0,3,,,,,,,,,,,,,,,2,,,59,0
9360,note_on,0,0,1,,,,,,,,,,,,,,,0,,,79,100
9360,note_on,0,0,2,,,,,,,,,,,,,,,1,,,71,100
9360,note_on,240,0,2,,,,,,,,,,,,,,,1,,,69,0
9600,note_on,240,0,2,,,,,,,,,,,,,,,1,,,71,0
9600,note_on,0,0,2,,,,,,,,,,,,,,,1,,,67,100
9600,note_on,240,0,1,,,,,,,,,,,,,,,0,,,79,0
9600,note_on,0,0,1,,,,,,,,,,,,,,,0,,,83,100
9840,note_on,240,0,1,,,,,,,,,,,,,,,0,,,83,0
9840,note_on,0,0,2,,,,,,,,,,,,,,,1,,,66,100
9840,note_on,480,0,3,,,,,,,,,,,,,,,2,,,62,100
9840,note_on,240,0,2,,,,,,,,,,,,,,,1,,,67,0
9840,note_on,0,0,1,,,,,,,,,,,,,,,0,,,81,100
10080,note_on,0,0,1,,,,,,,,,,,,,,,0,,,83,100
10080,note_on,240,0,1,,,,,,,,,,,,,,,0,,,81,0
10080,note_on,0,0,2,,,,,,,,,,,,,,,1,,,67,100
10080,note_on,240,0,3,,,,,,,,,,,,,,,2,,,62,0
10080,note_on,0,0,3,,,,,,,,,,,,,,,2,,,55,100
10080,note_on,240,0,2,,,,,,,,,,,,,,,1,,,66,0
10320,note_on,240,0,1,,,,,,,,,,,,,,,0,,,83,0
10320,note_on,0,0,1,,,,,,,,,,,,,,,0,,,86,100
10440,note_on,120,0,1,,,,,,,,,,,,,,,0,,,86,0
10440,note_on,0,0,1,,,,,,,,,,,,,,,0,,,84,100
10560,note_on,0,0,3,,,,,,,,,,,,,,,2,,,59,100
10560,note_on,480,0,3,,,,,,,,,,,,,,,2,,,55,0
10560,note_on,120,0,1,,,,,,,,,,,,,,,0,,,84,0
10560,note_on,0,0,1,,,,,,,,,,,,,,,0,,,83,100
10680,note_on,120,0,1,,,,,,,,,,,,,,,0,,,83,0
10680,note_on,0,0,1,,,,,,,,,,,,,,,0,,,81,100
10800,note_on,120,0,1,,,,,,,,,,,,,,,0,,,81,0
10800,note_on,0,0,1,,,,,,,,,,,,,,,0,,,83,100
10800,note_on,240,0,3,,,,,,,,,,,,,,,2,,,59,0
10800,note_on,0,0,3,,,,,,,,,,,,,,,2,,,64,100
11040,note_on,960,0,2,,,,,,,,,,,,,,,1,,,67,0
11040,note_on,0,0,2,,,,,,,,,,,,,,,1,,,66,100
11040,note_on,0,0,1,,,,,,,,,,,,,,,0,,,84,100
11040,note_on,240,0,1,,,,,,,,,,,,,,,0,,,83,0
11160,note_on,120,0,1,,,,,,,,,,,,,,,0,,,84,0
11160,note_on,0,0,1,,,,,,,,,,,,,,,0,,,83,100
11280,note_on,0,0,2,,,,,,,,,,,,,,,1,,,64,100
11280,note_on,240,0,2,,,,,,,,,,,,,,,1,,,66,0
11280,note_on,0,0,1,,,,,,,,,,,,,,,0,,,81,100
11280,note_on,120,0,1,,,,,,,,,,,,,,,0,,,83,0
11400,note_on,0,0,1,,,,,,,,,,,,,,,0,,,79,100
11400,note_on,120,0,1,,,,,,,,,,,,,,,0,,,81,0
11520,note_on,0,0,1,,,,,,,,,,,,,,,0,,,81,100
11520,note_on,120,0,1,,,,,,,,,,,,,,,0,,,79,0
11520,note_on,0,0,2,,,,,,,,,,,,,,,1,,,66,100
11520,note_on,240,0,2,,,,,,,,,,,,,,,1,,,64,0
11520,note_on,720,0,3,,,,,,,,,,,,,,,2,,,64,0
11760,note_on,0,0,1,,,,,,,,,,,,,,,0,,,83,100
11760,note_on,0,0,2,,,,,,,,,,,,,,,1,,,67,100
11760,note_on,240,0,1,,,,,,,,,,,,,,,0,,,81,0
11760,note_on,240,0,2,,,,,,,,,,,,,,,1,,,66,0
11880,note_on,120,0,1,,,,,,,,,,,,,,,0,,,83,0
11880,note_on,0,0,1,,,,,,,,,,,,,,,0,,,81,100
12000,note_on,480,0,3,,,,,,,,,,,,,,,2,,,57,100
12000,note_on,0,0,1,,,,,,,,,,,,,,,0,,,79,100
12000,note_on,120,0,1,,,,,,,,,,,,,,,0,,,81,0
12000,note_on,240,0,2,,,,,,,,,,,,,,,1,,,67,0
12000,note_on,0,0,2,,,,,,,,,,,,,,,1,,,69,100
12120,note_on,120,0,1,,,,,,,,,,,,,,,0,,,79,0
12120,note_on,0,0,1,,,,,,,,,,,,,,,0,,,78,100
12240,note_on,240,0,2,,,,,,,,,,,,,,,1,,,69,0
12240,note_on,0,0,3,,,,,,,,,,,,,,,2,,,59,100
12240,note_on,120,0,1,,,,,,,,,,,,,,,0,,,78,0
12240,note_on,0,0,1,,,,,,,,,,,,,,,0,,,79,100
12240,note_on,240,0,3,,,,,,,,,,,,,,,2,,,57,0
12240,note_on,0,0,2,,,,,,,,,,,,,,,1,,,62,100
12480,note_on,240,0,1,,,,,,,,,,,,,,,0,,,79,0
12480,note_on,240,0,3,,,,,,,,,,,,,,,2,,,59,0
12480,note_on,0,0,3,,,,,,,,,,,,,,,2,,,57,100
12480,note_on,0,0,1,,,,,,,,,,,,,,,0,,,81,100
12600,note_on,120,0,1,,,,,,,,,,,,,,,0,,,81,0
12600,note_on,0,0,1,,,,,,,,,,,,,,,0,,,79,100
12720,note_on,240,0,3,,,,,,,,,,,,,,,2,,,57,0
12720,note_on,0,0,1,,,,,,,,,,,,,,,0,,,78,100
12720,note_on,120,0,1,,,,,,,,,,,,,,,0,,,79,0
12720,note_on,0,0,3,,,,,,,,,,,,,,,2,,,59,100
12840,note_on,0,0,1,,,,,,,,,,,,,,,0,,,76,100
12840,note_on,120,0,1,,,,,,,,,,,,,,,0,,,78,0
12960,note_on,240,0,3,,,,,,,,,,,,,,,2,,,59,0
12960,note_on,0,0,1,,,,,,,,,,,,,,,0,,,74,100
12960,note_on,120,0,1,,,,,,,,,,,,,,,0,,,76,0
12960,note_on,0,0,3,,,,,,,,,,,,,,,2,,,60,100
13200,note_on,0,0,2,,,,,,,,,,,,,,,1,,,67,100
13200,note_on,960,0,2,,,,,,,,,,,,,,,1,,,62,0
13200,note_on,240,0,3,,,,,,,,,,,,,,,2,,,60,0
13200,note_on,0,0,3,,,,,,,,,,,,,,,2,,,59,100
13200,note_on,240,0,1,,,,,,,,,,,,,,,0,,,74,0
13440,note_on,0,0,2,,,,,,,,,,,,,,,1,,,66,100
13440,note_on,240,0,2,,,,,,,,,,,,,,,1,,,67,0
13440,note_on,240,0,3,,,,,,,,,,,,,,,2,,,59,0
13440,note_on,0,0,3,,,,,,,,,,,,,,,2,,,57,100
13680,note_on,0,0,3,,,,,,,,,,,,,,,2,,,59,100
13680,note_on,240,0,3,,,,,,,,,,,,,,,2,,,57,0
13680,note_on,240,0,2,,,,,,,,,,,,,,,1,,,66,0
13680,note_on,0,0,2,,,,,,,,,,,,,,,1,,,67,100
13680,note_on,480,0,1,,,,,,,,,,,,,,,0,,,79,100
13920,note_on,0,0,3,,,,,,,,,,,,,,,2,,,62,100
13920,note_on,240,0,1,,,,,,,,,,,,,,,0,,,79,0
13920,note_on,240,0,2,,,,,,,,,,,,,,,1,,,67,0
13920,note_on,0,0,2,,,,,,,,,,,,,,,1,,,71,100
13920,note_on,240,0,3,,,,,,,,,,,,,,,2,,,59,0
14160,note_on,240,0,3,,,,,,,,,,,,,,,2,,,62,0
14160,note_on,0,0,3,,,,,,,,,,,,,,,2,,,60,100
14160,note_on,0,0,2,,,,,,,,,,,,,,,1,,,69,100
14160,note_on,240,0,2,,,,,,,,,,,,,,,1,,,71,0
14400,note_on,480,0,1,,,,,,,,,,,,,,,0,,,78,100
14400,note_on,240,0,2,,,,,,,,,,,,,,,1,,,69,0
14400,note_on,240,0,3,,,,,,,,,,,,,,,2,,,60,0
14400,note_on,0,0,3,,,,,,,,,,,,,,,2,,,62,100
14400,note_on,0,0,2,,,,,,,,,,,,,,,1,,,71,100
14640,note_on,240,0,1,,,,,,,,,,,,,,,0,,,78,0
14640,note_on,240,0,2,,,,,,,,,,,,,,,1,,,71,0
14640,note_on,0,0,2,,,,,,,,,,,,,,,1,,,74,100
14760,note_on,0,0,2,,,,,,,,,,,,,,,1,,,72,100
14760,note_on,120,0,2,,,,,,,,,,,,,,,1,,,74,0
14880,note_on,480,0,3,,,,,,,,,,,,,,,2,,,62,0
14880,note_on,120,0,2,,,,,,,,,,,,,,,1,,,72,0
14880,note_on,0,0,3,,,,,,,,,,,,,,,2,,,50,100
14880,note_on,0,0,2,,,,,,,,,,,,,,,1,,,71,100
15000,note_on,120,0,2,,,,,,,,,,,,,,,1,,,71,0
15000,note_on,0,0,2,,,,,,,,,,,,,,,1,,,69,100
15120,note_on,480,0,1,,,,,,,,,,,,,,,0,,,79,100
15120,note_on,240,0,3,,,,,,,,,,,,,,,2,,,50,0
15120,note_on,120,0,2,,,,,,,,,,,,,,,1,,,69,0
15120,note_on,0,0,2,,,,,,,,,,,,,,,1,,,71,100
15120,note_on,0,0,3,,,,,,,,,,,,,,,2,,,55,100
15360,note_on,240,0,1,,,,,,,,,,,,,,,0,,,79,0
15360,note_on,240,0,2,,,,,,,,,,,,,,,1,,,71,0
15360,note_on,0,0,2,,,,,,,,,,,,,,,1,,,72,100
15480,note_on,120,0,2,,,,,,,,,,,,,,,1,,,72,0
15480,note_on,0,0,2,,,,,,,,,,,,,,,1,,,71,100
15600,note_on,120,0,2,,,,,,,,,,,,,,,1,,,71,0
15600,note_on,0,0,2,,,,,,,,,,,,,,,1,,,69,100
15600,note_on,480,0,3,,,,,,,,,,,,,,,2,,,55,0
15600,note_on,0,0,3,,,,,,,,,,,,,,,2,,,43,100
15720,note_on,120,0,2,,,,,,,,,,,,,,,1,,,69,0
15720,note_on,0,0,2,,,,,,,,,,,,,,,1,,,67,100
15840,note_on,480,0,1,,,,,,,,,,,,,,,0,,,72,100
15840,note_on,120,0,2,,,,,,,,,,,,,,,1,,,67,0
15840,note_on,0,0,2,,,,,,,,,,,,,,,1,,,69,100
15840,note_on,240,0,3,,,,,,,,,,,,,,,2,,,43,0
15840,note_on,0,0,3,,,,,,,,,,,,,,,2,,,43,100
16080,note_on,240,0,2,,,,,,,,,,,,,,,1,,,69,0
16080,note_on,240,0,1,,,,,,,,,,,,,,,0,,,72,0
16080,note_on,0,0,2,,,,,,,,,,,,,,,1,,,71,100
16200,note_on,120,0,2,,,,,,,,,,,,,,,1,,,71,0
16200,note_on,0,0,2,,,,,,,,,,,,,,,1,,,69,100
16320,note_on,0,0,3,,,,,,,,,,,,,,,2,,,55,100
16320,note_on,120,0,2,,,,,,,,,,,,,,,1,,,69,0
16320,note_on,0,0,2,,,,,,,,,,,,,,,1,,,67,100
16320,note_on,480,0,3,,,,,,,,,,,,,,,2,,,43,0
16440,note_on,120,0,2,,,,,,,,,,,,,,,1,,,67,0
16440,note_on,0,0,2,,,,,,,,,,,,,,,1,,,66,100
16560,note_on,0,0,2,,,,,,,,,,,,,,,1,,,67,100
16560,note_on,480,0,1,,,,,,,,,,,,,,,0,,,71,100
16560,note_on,0,0,3,,,,,,,,,,,,,,,2,,,55,100
16560,note_on,120,0,2,,,,,,,,,,,,,,,1,,,66,0
16560,note_on,240,0,3,,,,,,,,,,,,,,,2,,,55,0
16800,note_on,0,0,3,,,,,,,,,,,,,,,2,,,54,100
16800,note_on,240,0,2,,,,,,,,,,,,,,,1,,,67,0
16800,note_on,240,0,1,,,,,,,,,,,,,,,0,,,71,0
16800,note_on,240,0,3,,,,,,,,,,,,,,,2,,,55,0
16800,note_on,0,0,2,,,,,,,,,,,,,,,1,,,69,100
16920,note_on,0,0,3,,,,,,,,,,,,,,,2,,,52,100
16920,note_on,120,0,2,,,,,,,,,,,,,,,1,,,69,0
16920,note_on,0,0,2,,,,,,,,,,,,,,,1,,,67,100
16920,note_on,120,0,3,,,,,,,,,,,,,,,2,,,54,0
17040,note_on,0,0,2,,,,,,,,,,,,,,,1,,,66,100
17040,note_on,120,0,2,,,,,,,,,,,,,,,1,,,67,0
17040,note_on,120,0,3,,,,,,,,,,,,,,,2,,,52,0
17040,note_on,0,0,3,,,,,,,,,,,,,,,2,,,50,100
17160,note_on,120,0,2,,,,,,,,,,,,,,,1,,,66,0
17160,note_on,120,0,3,,,,,,,,,,,,,,,2,,,50,0
17160,note_on,0,0,3,,,,,,,,,,,,,,,2,,,48,100
17160,note_on,0,0,2,,,,,,,,,,,,,,,1,,,64,100
17280,marker,17280,1,0,,,,,,,,,,,,,,,,,,,
17280,note_on,0,0,2,,,,,,,,,,,,,,,1,,,62,100
17280,note_on,0,0,3,,,,,,,,,,,,,,,2,,,47,100
17280,note_on,120,0,2,,,,,,,,,,,,,,,1,,,64,0
17280,note_on,120,0,3,,,,,,,,,,,,,,,2,,,48,0
17520,note_on,0,0,3,,,,,,,,,,,,,,,2,,,43,100
17520,note_on,0,0,2,,,,,,,,,,,,,,,1,,,71,100
17520,note_on,240,0,3,,,,,,,,,,,,,,,2,,,47,0
17520,note_on,240,0,2,,,,,,,,,,,,,,,1,,,62,0
17760,note_on,0,0,2,,,,,,,,,,,,,,,1,,,69,100
17760,note_on,240,0,2,,,,,,,,,,,,,,,1,,,71,0
17760,note_on,240,0,3,,,,,,,,,,,,,,,2,,,43,0
17760,note_on,0,0,3,,,,,,,,,,,,,,,2,,,45,100
18000,note_on,240,0,2,,,,,,,,,,,,,,,1,,,69,0
18000,note_on,0,0,2,,,,,,,,,,,,,,,1,,,67,100
18000,note_on,0,0,3,,,,,,,,,,,,,,,2,,,47,100
18000,note_on,240,0,3,,,,,,,,,,,,,,,2,,,45,0
18240,note_on,240,0,3,,,,,,,,,,,,,,,2,,,47,0
18240,note_on,0,0,3,,,,,,,,,,,,,,,2,,,48,100
18240,note_on,240,0,2,,,,,,,,,,,,,,,1,,,67,0
18240,note_on,0,0,2,,,,,,,,,,,,,,,1,,,69,100
18480,note_on,240,0,3,,,,,,,,,,,,,,,2,,,48,0
18480,note_on,240,0,2,,,,,,,,,,,,,,,1,,,69,0
18480,note_on,0,0,2,,,,,,,,,,,,,,,1,,,66,100
18480,note_on,0,0,3,,,,,,,,,,,,,,,2,,,50,100
18720,note_on,0,0,3,,,,,,,,,,,,,,,2,,,43,100
18720,note_on,240,0,3,,,,,,,,,,,,,,,2,,,50,0
18720,note_on,240,0,2,,,,,,,,,,,,,,,1,,,66,0
18720,note_on,0,0,2,,,,,,,,,,,,,,,1,,,64,100
18840,note_on,120,0,2,,,,,,,,,,,,,,,1,,,64,0
18840,note_on,0,0,2,,,,,,,,,,,,,,,1,,,62,100
18960,note_on,0,0,2,,,,,,,,,,,,,,,1,,,61,100
18960,note_on,120,0,2,,,,,,,,,,,,,,,1,,,62,0
19200,note_on,0,0,3,,,,,,,,,,,,,,,2,,,55,100
19200,note_on,0,0,2,,,,,,,,,,,,,,,1,,,62,100
19200,note_on,480,0,3,,,,,,,,,,,,,,,2,,,43,0
19200,note_on,240,0,2,,,,,,,,,,,,,,,1,,,61,0
19440,note_on,0,0,2,,,,,,,,,,,,,,,1,,,62,100
19440,note_on,240,0,2,,,,,,,,,,,,,,,1,,,62,0
19560,note_on,0,0,2,,,,,,,,,,,,,,,1,,,61,100
19560,note_on,120,0,2,,,,,,,,,,,,,,,1,,,62,0
19680,note_on,0,0,3,,,,,,,,,,,,,,,2,,,54,100
19680,note_on,480,0,3,,,,,,,,,,,,,,,2,,,55,0
19920,note_on,0,0,3,,,,,,,,,,,,,,,2,,,52,100
19920,note_on,240,0,3,,,,,,,,,,,,,,,2,,,54,0
20160,note_on,0,0,3,,,,,,,,,,,,,,,2,,,57,100
20160,note_on,240,0,3,,,,,,,,,,,,,,,2,,,52,0
20400,note_on,840,0,2,,,,,,,,,,,,,,,1,,,61,0
20400,note_on,0,0,2,,,,,,,,,,,,,,,1,,,62,100
20640,note_on,240,0,2,,,,,,,,,,,,,,,1,,,62,0
20640,note_on,480,0,3,,,,,,,,,,,,,,,2,,,57,0
20640,note_on,0,0,3,,,,,,,,,,,,,,,2,,,55,100
20640,note_on,0,0,2,,,,,,,,,,,,,,,1,,,64,100
20880,note_on,240,0,3,,,,,,,,,,,,,,,2,,,55,0
20880,note_on,0,0,3,,,,,,,,,,,,,,,2,,,54,100
20880,note_on,0,0,2,,,,,,,,,,,,,,,1,,,57,100
20880,note_on,240,0,2,,,,,,,,,,,,,,,1,,,64,0
21120,note_on,0,0,2,,,,,,,,,,,,,,,1,,,59,100
21120,note_on,240,0,2,,,,,,,,,,,,,,,1,,,57,0
21120,note_on,0,0,3,,,,,,,,,,,,,,,2,,,55,100
21120,note_on,240,0,3,,,,,,,,,,,,,,,2,,,54,0
21360,note_on,0,0,2,,,,,,,,,,,,,,,1,,,61,100
21360,note_on,240,0,2,,,,,,,,,,,,,,,1,,,59,0
21360,note_on,240,0,3,,,,,,,,,,,,,,,2,,,55,0
21360,note_on,0,0,3,,,,,,,,,,,,,,,2,,,57,100
21600,note_on,240,0,2,,,,,,,,,,,,,,,1,,,61,0
21600,note_on,240,0,3,,,,,,,,,,,,,,,2,,,57,0
21600,note_on,0,0,3,,,,,,,,,,,,,,,2,,,59,100
21600,note_on,0,0,2,,,,,,,,,,,,,,,1,,,62,100
21840,note_on,5040,0,1,,,,,,,,,,,,,,,0,,,83,100
22080,note_on,240,0,1,,,,,,,,,,,,,,,0,,,83,0
22080,note_on,0,0,1,,,,,,,,,,,,,,,0,,,81,100
22080,note_on,0,0,2,,,,,,,,,,,,,,,1,,,66,100
22080,note_on,480,0,2,,,,,,,,,,,,,,,1,,,62,0
22320,note_on,240,0,2,,,,,,,,,,,,,,,1,,,66,0
22320,note_on,240,0,1,,,,,,,,,,,,,,,0,,,81,0
22320,note_on,0,0,1,,,,,,,,,,,,,,,0,,,79,100
22320,note_on,0,0,2,,,,,,,,,,,,,,,1,,,67,100
22560,note_on,240,0,1,,,,,,,,,,,,,,,0,,,79,0
22560,note_on,0,0,1,,,,,,,,,,,,,,,0,,,81,100
22800,note_on,0,0,2,,,,,,,,,,,,,,,1,,,69,100
22800,note_on,0,0,1,,,,,,,,,,,,,,,0,,,78,100
22800,note_on,240,0,1,,,,,,,,,,,,,,,0,,,81,0
22800,note_on,1200,0,3,,,,,,,,,,,,,,,2,,,59,0
22800,note_on,0,0,3,,,,,,,,,,,,,,,2,,,57,100
22800,note_on,480,0,2,,,,,,,,,,,,,,,1,,,67,0
23040,note_on,240,0,2,,,,,,,,,,,,,,,1,,,69,0
23040,note_on,0,0,3,,,,,,,,,,,,,,,2,,,55,100
23040,note_on,0,0,1,,,,,,,,,,,,,,,0,,,76,100
23040,note_on,240,0,1,,,,,,,,,,,,,,,0,,,78,0
23040,note_on,240,0,3,,,,,,,,,,,,,,,2,,,57,0
23040,note_on,0,0,2,,,,,,,,,,,,,,,1,,,59,100
23160,note_on,0,0,1,,,,,,,,,,,,,,,0,,,74,100
23160,note_on,120,0,1,,,,,,,,,,,,,,,0,,,76,0
23280,note_on,0,0,1,,,,,,,,,,,,,,,0,,,73,100
23280,note_on,120,0,1,,,,,,,,,,,,,,,0,,,74,0
23520,note_on,480,0,3,,,,,,,,,,,,,,,2,,,55,0
23520,note_on,0,0,3,,,,,,,,,,,,,,,2,,,52,100
23520,note_on,0,0,1,,,,,,,,,,,,,,,0,,,74,100
23520,note_on,240,0,1,,,,,,,,,,,,,,,0,,,73,0
23760,note_on,0,0,3,,,,,,,,,,,,,,,2,,,45,100
23760,note_on,240,0,3,,,,,,,,,,,,,,,2,,,52,0
23760,note_on,240,0,1,,,,,,,,,,,,,,,0,,,74,0
23760,note_on,0,0,1,,,,,,,,,,,,,,,0,,,74,100
23880,note_on,120,0,1,,,,,,,,,,,,,,,0,,,74,0
23880,note_on,0,0,1,,,,,,,,,,,,,,,0,,,73,100
24000,note_on,0,0,2,,,,,,,,,,,,,,,1,,,57,100
24000,note_on,960,0,2,,,,,,,,,,,,,,,1,,,59,0
24240,note_on,0,0,2,,,,,,,,,,,,,,,1,,,56,100
24240,note_on,240,0,2,,,,,,,,,,,,,,,1,,,57,0
24240,note_on,480,0,3,,,,,,,,,,,,,,,2,,,45,0
24480,note_on,240,0,2,,,,,,,,,,,,,,,1,,,56,0
24480,note_on,0,0,2,,,,,,,,,,,,,,,1,,,57,100
24720,note_on,840,0,1,,,,,,,,,,,,,,,0,,,73,0
24720,note_on,0,0,1,,,,,,,,,,,,,,,0,,,74,100
24960,note_on,240,0,1,,,,,,,,,,,,,,,0,,,74,0
24960,note_on,0,0,1,,,,,,,,,,,,,,,0,,,76,100
24960,note_on,720,0,3,,,,,,,,,,,,,,,2,,,55,100
25200,note_on,0,0,3,,,,,,,,,,,,,,,2,,,54,100
25200,note_on,240,0,3,,,,,,,,,,,,,,,2,,,55,0
25200,note_on,240,0,1,,,,,,,,,,,,,,,0,,,76,0
25200,note_on,0,0,1,,,,,,,,,,,,,,,0,,,69,100
25440,note_on,240,0,1,,,,,,,,,,,,,,,0,,,69,0
25440,note_on,0,0,1,,,,,,,,,,,,,,,0,,,71,100
25680,note_on,240,0,1,,,,,,,,,,,,,,,0,,,71,0
25680,note_on,0,0,1,,,,,,,,,,,,,,,0,,,73,100
25680,note_on,480,0,3,,,,,,,,,,,,,,,2,,,54,0
25680,note_on,0,0,3,,,,,,,,,,,,,,,2,,,52,100
25920,note_on,0,0,1,,,,,,,,,,,,,,,0,,,74,100
25920,note_on,240,0,3,,,,,,,,,,,,,,,2,,,52,0
25920,note_on,240,0,1,,,,,,,,,,,,,,,0,,,73,0
25920,note_on,0,0,3,,,,,,,,,,,,,,,2,,,54,100
26160,note_on,0,0,2,,,,,,,,,,,,,,,1,,,62,100
26160,note_on,1680,0,2,,,,,,,,,,,,,,,1,,,57,0
26400,note_on,480,0,1,,,,,,,,,,,,,,,0,,,74,0
26400,note_on,0,0,3,,,,,,,,,,,,,,,2,,,57,100
26400,note_on,240,0,2,,,,,,,,,,,,,,,1,,,62,0
26400,note_on,0,0,2,,,,,,,,,,,,,,,1,,,61,100
26400,note_on,480,0,3,,,,,,,,,,,,,,,2,,,54,0
26400,note_on,0,0,1,,,,,,,,,,,,,,,0,,,78,100
26640,note_on,240,0,3,,,,,,,,,,,,,,,2,,,57,0
26640,note_on,0,0,3,,,,,,,,,,,,,,,2,,,59,100
26640,note_on,0,0,2,,,,,,,,,,,,,,,1,,,62,100
26640,note_on,240,0,1,,,,,,,,,,,,,,,0,,,78,0
26640,note_on,0,0,1,,,,,,,,,,,,,,,0,,,79,100
26640,note_on,240,0,2,,,,,,,,,,,,,,,1,,,61,0
26760,note_on,120,0,2,,,,,,,,,,,,,,,1,,,62,0
26760,note_on,0,0,2,,,,,,,,,,,,,,,1,,,64,100
26880,note_on,120,0,2,,,,,,,,,,,,,,,1,,,64,0
26880,note_on,0,0,2,,,,,,,,,,,,,,,1,,,66,100
27120,note_on,240,0,2,,,,,,,,,,,,,,,1,,,66,0
27120,note_on,480,0,1,,,,,,,,,,,,,,,0,,,79,0
27120,note_on,0,0,1,,,,,,,,,,,,,,,0,,,81,100
27120,note_on,480,0,3,,,,,,,,,,,,,,,2,,,59,0
27120,note_on,0,0,3,,,,,,,,,,,,,,,2,,,61,100
27120,note_on,0,0,2,,,,,,,,,,,,,,,1,,,64,100
27360,note_on,240,0,1,,,,,,,,,,,,,,,0,,,81,0
27360,note_on,0,0,2,,,,,,,,,,,,,,,1,,,66,100
27360,note_on,240,0,2,,,,,,,,,,,,,,,1,,,64,0
27360,note_on,0,0,1,,,,,,,,,,,,,,,0,,,71,100
27360,note_on,240,0,3,,,,,,,,,,,,,,,2,,,61,0
27360,note_on,0,0,3,,,,,,,,,,,,,,,2,,,62,100
27600,note_on,240,0,2,,,,,,,,,,,,,,,1,,,66,0
27600,note_on,0,0,2,,,,,,,,,,,,,,,1,,,69,100
27720,note_on,120,0,2,,,,,,,,,,,,,,,1,,,69,0
27720,note_on,0,0,2,,,,,,,,,,,,,,,1,,,67,100
27840,note_on,0,0,3,,,,,,,,,,,,,,,2,,,50,100
27840,note_on,480,0,3,,,,,,,,,,,,,,,2,,,62,0
27840,note_on,120,0,2,,,,,,,,,,,,,,,1,,,67,0
27840,note_on,0,0,2,,,,,,,,,,,,,,,1,,,66,100
27960,note_on,120,0,2,,,,,,,,,,,,,,,1,,,66,0
27960,note_on,0,0,2,,,,,,,,,,,,,,,1,,,64,100
28080,note_on,240,0,3,,,,,,,,,,,,,,,2,,,50,0
28080,note_on,120,0,2,,,,,,,,,,,,,,,1,,,64,0
28080,note_on,0,0,2,,,,,,,,,,,,,,,1,,,66,100
28080,note_on,0,0,3,,,,,,,,,,,,,,,2,,,55,100
28320,note_on,0,0,1,,,,,,,,,,,,,,,0,,,69,100
28320,note_on,240,0,2,,,,,,,,,,,,,,,1,,,66,0
28320,note_on,0,0,2,,,,,,,,,,,,,,,1,,,67,100
28320,note_on,960,0,1,,,,,,,,,,,,,,,0,,,71,0
28440,note_on,120,0,2,,,,,,,,,,,,,,,1,,,67,0
28440,note_on,0,0,2,,,,,,,,,,,,,,,1,,,66,100
28560,note_on,0,0,3,,,,,,,,,,,,,,,2,,,47,100
28560,note_on,240,0,1,,,,,,,,,,,,,,,0,,,69,0
28560,note_on,480,0,3,,,,,,,,,,,,,,,2,,,55,0
28560,note_on,120,0,2,,,,,,,,,,,,,,,1,,,66,0
28560,note_on,0,0,2,,,,,,,,,,,,,,,1,,,64,100
28560,note_on,0,0,1,,,,,,,,,,,,,,,0,,,67,100
28680,note_on,120,0,2,,,,,,,,,,,,,,,1,,,64,0
28680,note_on,0,0,2,,,,,,,,,,,,,,,1,,,62,100
28800,note_on,240,0,1,,,,,,,,,,,,,,,0,,,67,0
28800,note_on,0,0,1,,,,,,,,,,,,,,,0,,,69,100
28800,note_on,120,0,2,,,,,,,,,,,,,,,1,,,62,0
28800,note_on,0,0,2,,,,,,,,,,,,,,,1,,,64,100
28800,note_on,240,0,3,,,,,,,,,,,,,,,2,,,47,0
28800,note_on,0,0,3,,,,,,,,,,,,,,,2,,,49,100
29040,note_on,240,0,2,,,,,,,,,,,,,,,1,,,64,0
29040,note_on,0,0,2,,,,,,,,,,,,,,,1,,,66,100
29040,note_on,240,0,3,,,,,,,,,,,,,,,2,,,49,0
29040,note_on,0,0,3,,,,,,,,,,,,,,,2,,,50,100
29160,note_on,0,0,2,,,,,,,,,,,,,,,1,,,64,100
29160,note_on,120,0,2,,,,,,,,,,,,,,,1,,,66,0
29280,note_on,240,0,3,,,,,,,,,,,,,,,2,,,50,0
29280,note_on,120,0,2,,,,,,,,,,,,,,,1,,,64,0
29280,note_on,0,0,2,,,,,,,,,,,,,,,1,,,62,100
29280,note_on,0,0,3,,,,,,,,,,,,,,,2,,,52,100
29400,note_on,120,0,2,,,,,,,,,,,,,,,1,,,62,0
29400,note_on,0,0,2,,,,,,,,,,,,,,,1,,,61,100
29520,note_on,240,0,3,,,,,,,,,,,,,,,2,,,52,0
29520,note_on,0,0,3,,,,,,,,,,,,,,,2,,,54,100
29520,note_on,0,0,2,,,,,,,,,,,,,,,1,,,62,100
29520,note_on,120,0,2,,,,,,,,,,,,,,,1,,,61,0
29760,note_on,0,0,3,,,,,,,,,,,,,,,2,,,52,100
29760,note_on,240,0,3,,,,,,,,,,,,,,,2,,,54,0
29760,note_on,240,0,2,,,,,,,,,,,,,,,1,,,62,0
29760,note_on,0,0,2,,,,,,,,,,,,,,,1,,,64,100
29880,note_on,120,0,2,,,,,,,,,,,,,,,1,,,64,0
29880,note_on,0,0,2,,,,,,,,,,,,,,,1,,,62,100
30000,note_on,120,0,2,,,,,,,,,,,,,,,1,,,62,0
30000,note_on,0,0,2,,,,,,,,,,,,,,,1,,,61,100
30000,note_on,240,0,3,,,,,,,,,,,,,,,2,,,52,0
30000,note_on,0,0,3,,,,,,,,,,,,,,,2,,,54,100
30120,note_on,0,0,2,,,,,,,,,,,,,,,1,,,59,100
30120,note_on,120,0,2,,,,,,,,,,,,,,,1,,,61,0
30240,note_on,120,0,2,,,,,,,,,,,,,,,1,,,59,0
30240,note_on,0,0,2,,,,,,,,,,,,,,,1,,,57,100
30240,note_on,240,0,3,,,,,,,,,,,,,,,2,,,54,0
30240,note_on,0,0,3,,,,,,,,,,,,,,,2,,,55,100
30480,note_on,1680,0,1,,,,,,,,,,,,,,,0,,,69,0
30480,note_on,0,0,1,,,,,,,,,,,,,,,0,,,74,100
30480,note_on,240,0,3,,,,,,,,,,,,,,,2,,,55,0
30480,note_on,0,0,3,,,,,,,,,,,,,,,2,,,54,100
30480,note_on,240,0,2,,,,,,,,,,,,,,,1,,,57,0
30720,note_on,240,0,1,,,,,,,,,,,,,,,0,,,74,0
30720,note_on,0,0,1,,,,,,,,,,,,,,,0,,,73,100
30720,note_on,0,0,3,,,,,,,,,,,,,,,2,,,52,100
30720,note_on,240,0,3,,,,,,,,,,,,,,,2,,,54,0
30960,note_on,0,0,1,,,,,,,,,,,,,,,0,,,74,100
30960,note_on,240,0,1,,,,,,,,,,,,,,,0,,,73,0
30960,note_on,240,0,3,,,,,,,,,,,,,,,2,,,52,0
30960,note_on,0,0,3,,,,,,,,,,,,,,,2,,,54,100
30960,note_on,480,0,2,,,,,,,,,,,,,,,1,,,62,100
31080,note_on,0,0,1,,,,,,,,,,,,,,,0,,,76,100
31080,note_on,120,0,1,,,,,,,,,,,,,,,0,,,74,0
31200,note_on,120,0,1,,,,,,,,,,,,,,,0,,,76,0
31200,note_on,0,0,1,,,,,,,,,,,,,,,0,,,78,100
31200,note_on,240,0,2,,,,,,,,,,,,,,,1,,,62,0
31200,note_on,240,0,3,,,,,,,,,,,,,,,2,,,54,0
31200,note_on,0,0,3,,,,,,,,,,,,,,,2,,,57,100
31440,note_on,0,0,1,,,,,,,,,,,,,,,0,,,76,100
31440,note_on,240,0,1,,,,,,,,,,,,,,,0,,,78,0
31440,note_on,240,0,3,,,,,,,,,,,,,,,2,,,57,0
31440,note_on,0,0,3,,,,,,,,,,,,,,,2,,,55,100
31680,note_on,240,0,3,,,,,,,,,,,,,,,2,,,55,0
31680,note_on,0,0,3,,,,,,,,,,,,,,,2,,,57,100
31680,note_on,480,0,2,,,,,,,,,,,,,,,1,,,61,100
31680,note_on,240,0,1,,,,,,,,,,,,,,,0,,,76,0
31680,note_on,0,0,1,,,,,,,,,,,,,,,0,,,78,100
31920,note_on,240,0,2,,,,,,,,,,,,,,,1,,,61,0
31920,note_on,0,0,1,,,,,,,,,,,,,,,0,,,81,100
31920,note_on,240,0,1,,,,,,,,,,,,,,,0,,,78,0
32040,note_on,0,0,1,,,,,,,,,,,,,,,0,,,79,100
32040,note_on,120,0,1,,,,,,,,,,,,,,,0,,,81,0
32160,note_on,480,0,3,,,,,,,,,,,,,,,2,,,57,0
32160,note_on,0,0,3,,,,,,,,,,,,,,,2,,,45,100
32160,note_on,0,0,1,,,,,,,,,,,,,,,0,,,78,100
32160,note_on,120,0,1,,,,,,,,,,,,,,,0,,,79,0
32280,note_on,120,0,1,,,,,,,,,,,,,,,0,,,78,0
32280,note_on,0,0,1,,,,,,,,,,,,,,,0,,,76,100
32400,note_on,0,0,1,,,,,,,,,,,,,,,0,,,78,100
32400,note_on,120,0,1,,,,,,,,,,,,,,,0,,,76,0
32400,note_on,480,0,2,,,,,,,,,,,,,,,1,,,62,100
32400,note_on,240,0,3,,,,,,,,,,,,,,,2,,,45,0
32400,note_on,0,0,3,,,,,,,,,,,,,,,2,,,50,100
32640,note_on,240,0,2,,,,,,,,,,,,,,,1,,,62,0
32640,note_on,0,0,1,,,,,,,,,,,,,,,0,,,79,100
32640,note_on,240,0,1,,,,,,,,,,,,,,,0,,,78,0
32760,note_on,0,0,1,,,,,,,,,,,,,,,0,,,78,100
32760,note_on,120,0,1,,,,,,,,,,,,,,,0,,,79,0
32880,note_on,480,0,3,,,,,,,,,,,,,,,2,,,50,0
32880,note_on,0,0,3,,,,,,,,,,,,,,,2,,,38,100
32880,note_on,120,0,1,,,,,,,,,,,,,,,0,,,78,0
32880,note_on,0,0,1,,,,,,,,,,,,,,,0,,,76,100
33000,note_on,120,0,1,,,,,,,,,,,,,,,0,,,76,0
33000,note_on,0,0,1,,,,,,,,,,,,,,,0,,,74,100
33120,note_on,480,0,2,,,,,,,,,,,,,,,1,,,67,100
33120,note_on,0,0,3,,,,,,,,,,,,,,,2,,,38,100
33120,note_on,240,0,3,,,,,,,,,,,,,,,2,,,38,0
33120,note_on,0,0,1,,,,,,,,,,,,,,,0,,,76,100
33120,note_on,120,0,1,,,,,,,,,,,,,,,0,,,74,0
33360,note_on,240,0,1,,,,,,,,,,,,,,,0,,,76,0
33360,note_on,0,0,1,,,,,,,,,,,,,,,0,,,78,100
33360,note_on,240,0,2,,,,,,,,,,,,,,,1,,,67,0
33480,note_on,120,0,1,,,,,,,,,,,,,,,0,,,78,0
33480,note_on,0,0,1,,,,,,,,,,,,,,,0,,,76,100
33600,note_on,0,0,1,,,,,,,,,,,,,,,0,,,74,100
33600,note_on,120,0,1,,,,,,,,,,,,,,,0,,,76,0
33600,note_on,480,0,3,,,,,,,,,,,,,,,2,,,38,0
33600,note_on,0,0,3,,,,,,,,,,,,,,,2,,,50,100
33720,note_on,0,0,1,,,,,,,,,,,,,,,0,,,73,100
33720,note_on,120,0,1,,,,,,,,,,,,,,,0,,,74,0
33840,note_on,0,0,1,,,,,,,,,,,,,,,0,,,74,100
33840,note_on,480,0,2,,,,,,,,,,,,,,,1,,,66,100
33840,note_on,240,0,3,,,,,,,,,,,,,,,2,,,50,0
33840,note_on,0,0,3,,,,,,,,,,,,,,,2,,,50,100
33840,note_on,120,0,1,,,,,,,,,,,,,,,0,,,73,0
34560,note_on,720,0,1,,,,,,,,,,,,,,,0,,,74,0
34560,note_on,0,0,1,,,,,,,,,,,,,,,0,,,67,100
34560,note_on,0,0,3,,,,,,,,,,,,,,,2,,,55,100
34560,note_on,720,0,2,,,,,,,,,,,,,,,1,,,66,0
34560,note_on,720,0,3,,,,,,,,,,,,,,,2,,,50,0
34560,marker,17280,1,0,,,,,,,,,,,,,,,,,,,
35040,note_on,480,0,1,,,,,,,,,,,,,,,0,,,67,0
35040,note_on,0,0,1,,,,,,,,,,,,,,,0,,,66,100
35280,note_on,720,0,3,,,,,,,,,,,,,,,2,,,55,0
35280,note_on,240,0,1,,,,,,,,,,,,,,,0,,,66,0
35280,note_on,0,0,1,,,,,,,,,,,,,,,0,,,67,100
35760,note_on,0,0,1,,,,,,,,,,,,,,,0,,,69,100
35760,note_on,480,0,3,,,,,,,,,,,,,,,2,,,54,100
35760,note_on,480,0,1,,,,,,,,,,,,,,,0,,,67,0
36000,note_on,0,0,3,,,,,,,,,,,,,,,2,,,55,100
36000,note_on,240,0,3,,,,,,,,,,,,,,,2,,,54,0
36000,note_on,0,0,1,,,,,,,,,,,,,,,0,,,71,100
36000,note_on,240,0,1,,,,,,,,,,,,,,,0,,,69,0
36240,note_on,0,0,1,,,,,,,,,,,,,,,0,,,74,100
36240,note_on,240,0,1,,,,,,,,,,,,,,,0,,,71,0
36480,note_on,0,0,3,,,,,,,,,,,,,,,2,,,52,100
36480,note_on,0,0,1,,,,,,,,,,,,,,,0,,,73,100
36480,note_on,480,0,3,,,,,,,,,,,,,,,2,,,55,0
36480,note_on,240,0,1,,,,,,,,,,,,,,,0,,,74,0
36720,note_on,240,0,1,,,,,,,,,,,,,,,0,,,73,0
36720,note_on,0,0,1,,,,,,,,,,,,,,,0,,,74,100
36720,note_on,240,0,3,,,,,,,,,,,,,,,2,,,52,0
36720,note_on,0,0,3,,,,,,,,,,,,,,,2,,,54,100
37200,note_on,480,0,1,,,,,,,,,,,,,,,0,,,74,0
37200,note_on,0,0,1,,,,,,,,,,,,,,,0,,,69,100
37440,note_on,240,0,1,,,,,,,,,,,,,,,0,,,69,0
37440,note_on,0,0,1,,,,,,,,,,,,,,,0,,,74,100
37440,note_on,720,0,3,,,,,,,,,,,,,,,2,,,54,0
37920,note_on,480,0,3,,,,,,,,,,,,,,,2,,,57,100
37920,note_on,0,0,1,,,,,,,,,,,,,,,0,,,76,100
37920,note_on,480,0,1,,,,,,,,,,,,,,,0,,,74,0
38160,note_on,0,0,3,,,,,,,,,,,,,,,2,,,50,100
38160,note_on,240,0,3,,,,,,,,,,,,,,,2,,,57,0
38160,note_on,240,0,1,,,,,,,,,,,,,,,0,,,76,0
38160,note_on,0,0,1,,,,,,,,,,,,,,,0,,,76,100
38190,note_on,0,0,1,,,,,,,,,,,,,,,0,,,78,100
38190,note_on,30,0,1,,,,,,,,,,,,,,,0,,,76,0
38280,note_on,90,0,1,,,,,,,,,,,,,,,0,,,78,0
38280,note_on,0,0,1,,,,,,,,,,,,,,,0,,,79,100
38400,note_on,120,0,1,,,,,,,,,,,,,,,0,,,79,0
38400,note_on,0,0,1,,,,,,,,,,,,,,,0,,,78,100
38520,note_on,120,0,1,,,,,,,,,,,,,,,0,,,78,0
38520,note_on,0,0,1,,,,,,,,,,,,,,,0,,,76,100
38640,note_on,120,0,1,,,,,,,,,,,,,,,0,,,76,0
38640,note_on,0,0,1,,,,,,,,,,,,,,,0,,,74,100
38640,note_on,0,0,3,,,,,,,,,,,,,,,2,,,54,100
38640,note_on,480,0,3,,,,,,,,,,,,,,,2,,,50,0
38880,note_on,240,0,3,,,,,,,,,,,,,,,2,,,54,0
38880,note_on,4320,0,2,,,,,,,,,,,,,,,1,,,55,100
38880,note_on,0,0,3,,,,,,,,,,,,,,,2,,,52,100
38880,note_on,240,0,1,,,,,,,,,,,,,,,0,,,74,0
38880,note_on,0,0,1,,,,,,,,,,,,,,,0,,,79,100
39120,note_on,240,0,1,,,,,,,,,,,,,,,0,,,79,0
39120,note_on,0,0,1,,,,,,,,,,,,,,,0,,,83,100
39360,note_on,0,0,2,,,,,,,,,,,,,,,1,,,54,100
39360,note_on,480,0,2,,,,,,,,,,,,,,,1,,,55,0
39360,note_on,240,0,1,,,,,,,,,,,,,,,0,,,83,0
39360,note_on,0,0,1,,,,,,,,,,,,,,,0,,,81,100
39600,note_on,0,0,2,,,,,,,,,,,,,,,1,,,55,100
39600,note_on,240,0,2,,,,,,,,,,,,,,,1,,,54,0
39600,note_on,240,0,1,,,,,,,,,,,,,,,0,,,81,0
39600,note_on,0,0,1,,,,,,,,,,,,,,,0,,,83,100
39840,note_on,240,0,1,,,,,,,,,,,,,,,0,,,83,0
39840,note_on,0,0,1,,,,,,,,,,,,,,,0,,,79,100
40080,note_on,0,0,1,,,,,,,,,,,,,,,0,,,78,100
40080,note_on,240,0,1,,,,,,,,,,,,,,,0,,,79,0
40080,note_on,480,0,2,,,,,,,,,,,,,,,1,,,55,0
40080,note_on,0,0,2,,,,,,,,,,,,,,,1,,,57,100
40320,note_on,0,0,2,,,,,,,,,,,,,,,1,,,59,100
40320,note_on,240,0,1,,,,,,,,,,,,,,,0,,,78,0
40320,note_on,0,0,1,,,,,,,,,,,,,,,0,,,79,100
40320,note_on,240,0,2,,,,,,,,,,,,,,,1,,,57,0
40560,note_on,240,0,2,,,,,,,,,,,,,,,1,,,59,0
40560,note_on,0,0,2,,,,,,,,,,,,,,,1,,,62,100
40800,note_on,240,0,2,,,,,,,,,,,,,,,1,,,62,0
40800,note_on,0,0,2,,,,,,,,,,,,,,,1,,,61,100
40800,note_on,0,0,3,,,,,,,,,,,,,,,2,,,57,100
40800,note_on,1920,0,3,,,,,,,,,,,,,,,2,,,52,0
41040,note_on,240,0,3,,,,,,,,,,,,,,,2,,,57,0
41040,note_on,0,0,3,,,,,,,,,,,,,,,2,,,50,100
41040,note_on,0,0,2,,,,,,,,,,,,,,,1,,,62,100
41040,note_on,240,0,2,,,,,,,,,,,,,,,1,,,61,0
41280,note_on,960,0,1,,,,,,,,,,,,,,,0,,,79,0
41280,note_on,0,0,1,,,,,,,,,,,,,,,0,,,78,100
41520,note_on,0,0,2,,,,,,,,,,,,,,,1,,,57,100
41520,note_on,0,0,1,,,,,,,,,,,,,,,0,,,76,100
41520,note_on,480,0,2,,,,,,,,,,,,,,,1,,,62,0
41520,note_on,240,0,1,,,,,,,,,,,,,,,0,,,78,0
41760,note_on,720,0,3,,,,,,,,,,,,,,,2,,,50,0
41760,note_on,240,0,1,,,,,,,,,,,,,,,0,,,76,0
41760,note_on,0,0,1,,,,,,,,,,,,,,,0,,,78,100
41760,note_on,0,0,2,,,,,,,,,,,,,,,1,,,62,100
41760,note_on,240,0,2,,,,,,,,,,,,,,,1,,,57,0
42000,note_on,240,0,1,,,,,,,,,,,,,,,0,,,78,0
42000,note_on,0,0,1,,,,,,,,,,,,,,,0,,,79,100
42240,note_on,0,0,2,,,,,,,,,,,,,,,1,,,64,100
42240,note_on,480,0,2,,,,,,,,,,,,,,,1,,,62,0
42240,note_on,0,0,1,,,,,,,,,,,,,,,0,,,81,100
42240,note_on,240,0,1,,,,,,,,,,,,,,,0,,,79,0
42480,note_on,240,0,2,,,,,,,,,,,,,,,1,,,64,0
42480,note_on,0,0,1,,,,,,,,,,,,,,,0,,,74,100
42480,note_on,240,0,1,,,,,,,,,,,,,,,0,,,81,0
42480,note_on,0,0,2,,,,,,,,,,,,,,,1,,,64,100
42510,note_on,0,0,2,,,,,,,,,,,,,,,1,,,66,100
42510,note_on,30,0,2,,,,,,,,,,,,,,,1,,,64,0
42600,note_on,0,0,2,,,,,,,,,,,,,,,1,,,67,100
42600,note_on,90,0,2,,,,,,,,,,,,,,,1,,,66,0
42720,note_on,0,0,2,,,,,,,,,,,,,,,1,,,66,100
42720,note_on,120,0,2,,,,,,,,,,,,,,,1,,,67,0
42840,note_on,0,0,2,,,,,,,,,,,,,,,1,,,64,100
42840,note_on,120,0,2,,,,,,,,,,,,,,,1,,,66,0
42960,note_on,120,0,2,,,,,,,,,,,,,,,1,,,64,0
42960,note_on,1200,0,3,,,,,,,,,,,,,,,2,,,60,100
42960,note_on,0,0,2,,,,,,,,,,,,,,,1,,,62,100
43200,note_on,0,0,2,,,,,,,,,,,,,,,1,,,67,100
43200,note_on,240,0,2,,,,,,,,,,,,,,,1,,,62,0
43200,note_on,0,0,3,,,,,,,,,,,,,,,2,,,59,100
43200,note_on,240,0,3,,,,,,,,,,,,,,,2,,,60,0
43440,note_on,0,0,1,,,,,,,,,,,,,,,0,,,79,100
43440,note_on,960,0,1,,,,,,,,,,,,,,,0,,,74,0
43440,note_on,240,0,2,,,,,,,,,,,,,,,1,,,67,0
43440,note_on,0,0,2,,,,,,,,,,,,,,,1,,,71,100
43680,note_on,240,0,2,,,,,,,,,,,,,,,1,,,71,0
43680,note_on,0,0,2,,,,,,,,,,,,,,,1,,,69,100
43680,note_on,0,0,1,,,,,,,,,,,,,,,0,,,78,100
43680,note_on,240,0,1,,,,,,,,,,,,,,,0,,,79,0
43920,note_on,240,0,2,,,,,,,,,,,,,,,1,,,69,0
43920,note_on,0,0,2,,,,,,,,,,,,,,,1,,,71,100
43920,note_on,0,0,1,,,,,,,,,,,,,,,0,,,79,100
43920,note_on,240,0,1,,,,,,,,,,,,,,,0,,,78,0
43920,note_on,720,0,3,,,,,,,,,,,,,,,2,,,59,0
44160,note_on,240,0,2,,,,,,,,,,,,,,,1,,,71,0
44160,note_on,0,0,2,,,,,,,,,,,,,,,1,,,67,100
44160,note_on,0,0,1,,,,,,,,,,,,,,,0,,,83,100
44160,note_on,240,0,1,,,,,,,,,,,,,,,0,,,79,0
44400,note_on,240,0,2,,,,,,,,,,,,,,,1,,,67,0
44400,note_on,0,0,1,,,,,,,,,,,,,,,0,,,81,100
44400,note_on,240,0,1,,,,,,,,,,,,,,,0,,,83,0
44400,note_on,480,0,3,,,,,,,,,,,,,,,2,,,62,100
44400,note_on,0,0,2,,,,,,,,,,,,,,,1,,,66,100
44640,note_on,240,0,1,,,,,,,,,,,,,,,0,,,81,0
44640,note_on,0,0,1,,,,,,,,,,,,,,,0,,,83,100
44640,note_on,0,0,2,,,,,,,,,,,,,,,1,,,67,100
44640,note_on,240,0,2,,,,,,,,,,,,,,,1,,,66,0
44640,note_on,240,0,3,,,,,,,,,,,,,,,2,,,62,0
44640,note_on,0,0,3,,,,,,,,,,,,,,,2,,,55,100
44880,note_on,0,0,1,,,,,,,,,,,,,,,0,,,86,100
44880,note_on,240,0,1,,,,,,,,,,,,,,,0,,,83,0
45000,note_on,0,0,1,,,,,,,,,,,,,,,0,,,84,100
45000,note_on,120,0,1,,,,,,,,,,,,,,,0,,,86,0
45120,note_on,0,0,3,,,,,,,,,,,,,,,2,,,59,100
45120,note_on,0,0,1,,,,,,,,,,,,,,,0,,,83,100
45120,note_on,120,0,1,,,,,,,,,,,,,,,0,,,84,0
45120,note_on,480,0,3,,,,,,,,,,,,,,,2,,,55,0
45240,note_on,0,0,1,,,,,,,,,,,,,,,0,,,81,100
45240,note_on,120,0,1,,,,,,,,,,,,,,,0,,,83,0
45360,note_on,240,0,3,,,,,,,,,,,,,,,2,,,59,0
45360,note_on,0,0,3,,,,,,,,,,,,,,,2,,,64,100
45360,note_on,0,0,1,,,,,,,,,,,,,,,0,,,83,100
45360,note_on,120,0,1,,,,,,,,,,,,,,,0,,,81,0
45600,note_on,0,0,1,,,,,,,,,,,,,,,0,,,84,100
45600,note_on,960,0,2,,,,,,,,,,,,,,,1,,,67,0
45600,note_on,240,0,1,,,,,,,,,,,,,,,0,,,83,0
45600,note_on,0,0,2,,,,,,,,,,,,,,,1,,,66,100
45720,note_on,120,0,1,,,,,,,,,,,,,,,0,,,84,0
45720,note_on,0,0,1,,,,,,,,,,,,,,,0,,,83,100
45840,note_on,0,0,1,,,,,,,,,,,,,,,0,,,81,100
45840,note_on,120,0,1,,,,,,,,,,,,,,,0,,,83,0
45840,note_on,240,0,2,,,,,,,,,,,,,,,1,,,66,0
45840,note_on,0,0,2,,,,,,,,,,,,,,,1,,,64,100
45960,note_on,120,0,1,,,,,,,,,,,,,,,0,,,81,0
45960,note_on,0,0,1,,,,,,,,,,,,,,,0,,,79,100
46080,note_on,0,0,1,,,,,,,,,,,,,,,0,,,81,100
46080,note_on,720,0,3,,,,,,,,,,,,,,,2,,,64,0
46080,note_on,120,0,1,,,,,,,,,,,,,,,0,,,79,0
46080,note_on,0,0,2,,,,,,,,,,,,,,,1,,,66,100
46080,note_on,240,0,2,,,,,,,,,,,,,,,1,,,64,0
46320,note_on,240,0,2,,,,,,,,,,,,,,,1,,,66,0
46320,note_on,0,0,2,,,,,,,,,,,,,,,1,,,67,100
46320,note_on,240,0,1,,,,,,,,,,,,,,,0,,,81,0
46320,note_on,0,0,1,,,,,,,,,,,,,,,0,,,83,100
46440,note_on,120,0,1,,,,,,,,,,,,,,,0,,,83,0
46440,note_on,0,0,1,,,,,,,,,,,,,,,0,,,81,100
46560,note_on,480,0,3,,,,,,,,,,,,,,,2,,,57,100
46560,note_on,240,0,2,,,,,,,,,,,,,,,1,,,67,0
46560,note_on,0,0,2,,,,,,,,,,,,,,,1,,,69,100
46560,note_on,120,0,1,,,,,,,,,,,,,,,0,,,81,0
46560,note_on,0,0,1,,,,,,,,,,,,,,,0,,,79,100
46680,note_on,0,0,1,,,,,,,,,,,,,,,0,,,78,100
46680,note_on,120,0,1,,,,,,,,,,,,,,,0,,,79,0
46800,note_on,120,0,1,,,,,,,,,,,,,,,0,,,78,0
46800,note_on,240,0,2,,,,,,,,,,,,,,,1,,,69,0
46800,note_on,0,0,1,,,,,,,,,,,,,,,0,,,79,100
46800,note_on,0,0,3,,,,,,,,,,,,,,,2,,,59,100
46800,note_on,0,0,2,,,,,,,,,,,,,,,1,,,62,100
46800,note_on,240,0,3,,,,,,,,,,,,,,,2,,,57,0
47040,note_on,0,0,3,,,,,,,,,,,,,,,2,,,57,100
47040,note_on,240,0,1,,,,,,,,,,,,,,,0,,,79,0
47040,note_on,0,0,1,,,,,,,,,,,,,,,0,,,81,100
47040,note_on,240,0,3,,,,,,,,,,,,,,,2,,,59,0
47160,note_on,120,0,1,,,,,,,,,,,,,,,0,,,81,0
47160,note_on,0,0,1,,,,,,,,,,,,,,,0,,,79,100
47280,note_on,0,0,1,,,,,,,,,,,,,,,0,,,78,100
47280,note_on,240,0,3,,,,,,,,,,,,,,,2,,,57,0
47280,note_on,0,0,3,,,,,,,,,,,,,,,2,,,59,100
47280,note_on,120,0,1,,,,,,,,,,,,,,,0,,,79,0
47400,note_on,120,0,1,,,,,,,,,,,,,,,0,,,78,0
47400,note_on,0,0,1,,,,,,,,,,,,,,,0,,,76,100
47520,note_on,120,0,1,,,,,,,,,,,,,,,0,,,76,0
47520,note_on,0,0,1,,,,,,,,,,,,,,,0,,,74,100
47520,note_on,240,0,3,,,,,,,,,,,,,,,2,,,59,0
47520,note_on,0,0,3,,,,,,,,,,,,,,,2,,,60,100
47760,note_on,0,0,2,,,,,,,,,,,,,,,1,,,67,100
47760,note_on,960,0,2,,,,,,,,,,,,,,,1,,,62,0
47760,note_on,240,0,3,,,,,,,,,,,,,,,2,,,60,0
47760,note_on,0,0,3,,,,,,,,,,,,,,,2,,,59,100
47760,note_on,240,0,1,,,,,,,,,,,,,,,0,,,74,0
48000,note_on,240,0,2,,,,,,,,,,,,,,,1,,,67,0
48000,note_on,0,0,2,,,,,,,,,,,,,,,1,,,66,100
48000,note_on,0,0,3,,,,,,,,,,,,,,,2,,,57,100
48000,note_on,240,0,3,,,,,,,,,,,,,,,2,,,59,0
48240,note_on,0,0,3,,,,,,,,,,,,,,,2,,,59,100
48240,note_on,240,0,2,,,,,,,,,,,,,,,1,,,66,0
48240,note_on,0,0,2,,,,,,,,,,,,,,,1,,,67,100
48240,note_on,480,0,1,,,,,,,,,,,,,,,0,,,79,100
48240,note_on,240,0,3,,,,,,,,,,,,,,,2,,,57,0
48480,note_on,240,0,1,,,,,,,,,,,,,,,0,,,79,0
48480,note_on,240,0,2,,,,,,,,,,,,,,,1,,,67,0
48480,note_on,0,0,2,,,,,,,,,,,,,,,1,,,71,100
48480,note_on,240,0,3,,,,,,,,,,,,,,,2,,,59,0
48480,note_on,0,0,3,,,,,,,,,,,,,,,2,,,62,100
48720,note_on,240,0,2,,,,,,,,,,,,,,,1,,,71,0
48720,note_on,0,0,2,,,,,,,,,,,,,,,1,,,69,100
48720,note_on,0,0,3,,,,,,,,,,,,,,,2,,,60,100
48720,note_on,240,0,3,,,,,,,,,,,,,,,2,,,62,0
48960,note_on,0,0,2,,,,,,,,,,,,,,,1,,,71,100
48960,note_on,240,0,3,,,,,,,,,,,,,,,2,,,60,0
48960,note_on,0,0,3,,,,,,,,,,,,,,,2,,,62,100
48960,note_on,480,0,1,,,,,,,,,,,,,,,0,,,78,100
48960,note_on,240,0,2,,,,,,,,,,,,,,,1,,,69,0
49200,note_on,240,0,2,,,,,,,,,,,,,,,1,,,71,0
49200,note_on,240,0,1,,,,,,,,,,,,,,,0,,,78,0
49200,note_on,0,0,2,,,,,,,,,,,,,,,1,,,74,100
49320,note_on,120,0,2,,,,,,,,,,,,,,,1,,,74,0
49320,note_on,0,0,2,,,,,,,,,,,,,,,1,,,72,100
49440,note_on,0,0,3,,,,,,,,,,,,,,,2,,,50,100
49440,note_on,480,0,3,,,,,,,,,,,,,,,2,,,62,0
49440,note_on,120,0,2,,,,,,,,,,,,,,,1,,,72,0
49440,note_on,0,0,2,,,,,,,,,,,,,,,1,,,71,100
49560,note_on,120,0,2,,,,,,,,,,,,,,,1,,,71,0
49560,note_on,0,0,2,,,,,,,,,,,,,,,1,,,69,100
49680,note_on,0,0,3,,,,,,,,,,,,,,,2,,,55,100
49680,note_on,480,0,1,,,,,,,,,,,,,,,0,,,79,100
49680,note_on,120,0,2,,,,,,,,,,,,,,,1,,,69,0
49680,note_on,0,0,2,,,,,,,,,,,,,,,1,,,71,100
49680,note_on,240,0,3,,,,,,,,,,,,,,,2,,,50,0
49920,note_on,240,0,1,,,,,,,,,,,,,,,0,,,79,0
49920,note_on,0,0,2,,,,,,,,,,,,,,,1,,,72,100
49920,note_on,240,0,2,,,,,,,,,,,,,,,1,,,71,0
50040,note_on,0,0,2,,,,,,,,,,,,,,,1,,,71,100
50040,note_on,120,0,2,,,,,,,,,,,,,,,1,,,72,0
50160,note_on,120,0,2,,,,,,,,,,,,,,,1,,,71,0
50160,note_on,0,0,2,,,,,,,,,,,,,,,1,,,69,100
50160,note_on,0,0,3,,,,,,,,,,,,,,,2,,,43,100
50160,note_on,480,0,3,,,,,,,,,,,,,,,2,,,55,0
50280,note_on,120,0,2,,,,,,,,,,,,,,,1,,,69,0
50280,note_on,0,0,2,,,,,,,,,,,,,,,1,,,67,100
50400,note_on,0,0,2,,,,,,,,,,,,,,,1,,,69,100
50400,note_on,120,0,2,,,,,,,,,,,,,,,1,,,67,0
50400,note_on,240,0,3,,,,,,,,,,,,,,,2,,,43,0
50400,note_on,0,0,3,,,,,,,,,,,,,,,2,,,43,100
50400,note_on,480,0,1,,,,,,,,,,,,,,,0,,,72,100
50640,note_on,240,0,2,,,,,,,,,,,,,,,1,,,69,0
50640,note_on,240,0,1,,,,,,,,,,,,,,,0,,,72,0
50640,note_on,0,0,2,,,,,,,,,,,,,,,1,,,71,100
50760,note_on,0,0,2,,,,,,,,,,,,,,,1,,,69,100
50760,note_on,120,0,2,,,,,,,,,,,,,,,1,,,71,0
50880,note_on,0,0,3,,,,,,,,,,,,,,,2,,,55,100
50880,note_on,120,0,2,,,,,,,,,,,,,,,1,,,69,0
50880,note_on,0,0,2,,,,,,,,,,,,,,,1,,,67,100
50880,note_on,480,0,3,,,,,,,,,,,,,,,2,,,43,0
51000,note_on,120,0,2,,,,,,,,,,,,,,,1,,,67,0
51000,note_on,0,0,2,,,,,,,,,,,,,,,1,,,66,100
51120,note_on,0,0,3,,,,,,,,,,,,,,,2,,,55,100
51120,note_on,480,0,1,,,,,,,,,,,,,,,0,,,71,100
51120,note_on,120,0,2,,,,,,,,,,,,,,,1,,,66,0
51120,note_on,0,0,2,,,,,,,,,,,,,,,1,,,67,100
51120,note_on,240,0,3,,,,,,,,,,,,,,,2,,,55,0
51360,note_on,240,0,3,,,,,,,,,,,,,,,2,,,55,0
51360,note_on,0,0,3,,,,,,,,,,,,,,,2,,,54,100
51360,note_on,240,0,2,,,,,,,,,,,,,,,1,,,67,0
51360,note_on,240,0,1,,,,,,,,,,,,,,,0,,,71,0
51360,note_on,0,0,2,,,,,,,,,,,,,,,1,,,69,100
51480,note_on,0,0,2,,,,,,,,,,,,,,,1,,,67,100
51480,note_on,120,0,3,,,,,,,,,,,,,,,2,,,54,0
51480,note_on,0,0,3,,,,,,,,,,,,,,,2,,,52,100
51480,note_on,120,0,2,,,,,,,,,,,,,,,1,,,69,0
51600,note_on,0,0,2,,,,,,,,,,,,,,,1,,,66,100
51600,note_on,120,0,2,,,,,,,,,,,,,,,1,,,67,0
51600,note_on,120,0,3,,,,,,,,,,,,,,,2,,,52,0
51600,note_on,0,0,3,,,,,,,,,,,,,,,2,,,50,100
51720,note_on,0,0,2,,,,,,,,,,,,,,,1,,,64,100
51720,note_on,120,0,2,,,,,,,,,,,,,,,1,,,66,0
51720,note_on,120,0,3,,,,,,,,,,,,,,,2,,,50,0
51720,note_on,0,0,3,,,,,,,,,,,,,,,2,,,48,100
51840,note_on,0,0,3,,,,,,,,,,,,,,,2,,,47,100
51840,note_on,120,0,3,,,,,,,,,,,,,,,2,,,48,0
51840,note_on,0,0,2,,,,,,,,,,,,,,,1,,,62,100
51840,note_on,120,0,2,,,,,,,,,,,,,,,1,,,64,0
52080,note_on,240,0,2,,,,,,,,,,,,,,,1,,,62,0
52080,note_on,240,0,3,,,,,,,,,,,,,,,2,,,47,0
52080,note_on,0,0,2,,,,,,,,,,,,,,,1,,,71,100
52080,note_on,0,0,3,,,,,,,,,,,,,,,2,,,43,100
52320,note_on,0,0,3,,,,,,,,,,,,,,,2,,,45,100
52320,note_on,0,0,2,,,,,,,,,,,,,,,1,,,69,100
52320,note_on,240,0,2,,,,,,,,,,,,,,,1,,,71,0
52320,note_on,240,0,3,,,,,,,,,,,,,,,2,,,43,0
52560,note_on,0,0,3,,,,,,,,,,,,,,,2,,,47,100
52560,note_on,240,0,2,,,,,,,,,,,,,,,1,,,69,0
52560,note_on,0,0,2,,,,,,,,,,,,,,,1,,,67,100
52560,note_on,240,0,3,,,,,,,,,,,,,,,2,,,45,0
52800,note_on,0,0,3,,,,,,,,,,,,,,,2,,,48,100
52800,note_on,240,0,3,,,,,,,,,,,,,,,2,,,47,0
52800,note_on,240,0,2,,,,,,,,,,,,,,,1,,,67,0
52800,note_on,0,0,2,,,,,,,,,,,,,,,1,,,69,100
53040,note_on,240,0,2,,,,,,,,,,,,,,,1,,,69,0
53040,note_on,0,0,2,,,,,,,,,,,,,,,1,,,66,100
53040,note_on,0,0,3,,,,,,,,,,,,,,,2,,,50,100
53040,note_on,240,0,3,,,,,,,,,,,,,,,2,,,48,0
53280,note_on,0,0,3,,,,,,,,,,,,,,,2,,,43,100
53280,note_on,240,0,3,,,,,,,,,,,,,,,2,,,50,0
53280,note_on,240,0,2,,,,,,,,,,,,,,,1,,,66,0
53280,note_on,0,0,2,,,,,,,,,,,,,,,1,,,64,100
53400,note_on,0,0,2,,,,,,,,,,,,,,,1,,,62,100
53400,note_on,120,0,2,,,,,,,,,,,,,,,1,,,64,0
53520,note_on,120,0,2,,,,,,,,,,,,,,,1,,,62,0
53520,note_on,0,0,2,,,,,,,,,,,,,,,1,,,61,100
53760,note_on,0,0,3,,,,,,,,,,,,,,,2,,,55,100
53760,note_on,480,0,3,,,,,,,,,,,,,,,2,,,43,0
53760,note_on,0,0,2,,,,,,,,,,,,,,,1,,,62,100
53760,note_on,240,0,2,,,,,,,,,,,,,,,1,,,61,0
54000,note_on,240,0,2,,,,,,,,,,,,,,,1,,,62,0
54000,note_on,0,0,2,,,,,,,,,,,,,,,1,,,62,100
54120,note_on,120,0,2,,,,,,,,,,,,,,,1,,,62,0
54120,note_on,0,0,2,,,,,,,,,,,,,,,1,,,61,100
54240,note_on,0,0,3,,,,,,,,,,,,,,,2,,,54,100
54240,note_on,480,0,3,,,,,,,,,,,,,,,2,,,55,0
54480,note_on,240,0,3,,,,,,,,,,,,,,,2,,,54,0
54480,note_on,0,0,3,,,,,,,,,,,,,,,2,,,52,100
54720,note_on,0,0,3,,,,,,,,,,,,,,,2,,,57,100
54720,note_on,240,0,3,,,,,,,,,,,,,,,2,,,52,0
54960,note_on,840,0,2,,,,,,,,,,,,,,,1,,,61,0
54960,note_on,0,0,2,,,,,,,,,,,,,,,1,,,62,100
55200,note_on,0,0,2,,,,,,,,,,,,,,,1,,,64,100
55200,note_on,240,0,2,,,,,,,,,,,,,,,1,,,62,0
55200,note_on,480,0,3,,,,,,,,,,,,,,,2,,,57,0
55200,note_on,0,0,3,,,,,,,,,,,,,,,2,,,55,100
55440,note_on,0,0,2,,,,,,,,,,,,,,,1,,,57,100
55440,note_on,240,0,2,,,,,,,,,,,,,,,1,,,64,0
55440,note_on,240,0,3,,,,,,,,,,,,,,,2,,,55,0
55440,note_on,0,0,3,,,,,,,,,,,,,,,2,,,54,100
55680,note_on,240,0,2,,,,,,,,,,,,,,,1,,,57,0
55680,note_on,240,0,3,,,,,,,,,,,,,,,2,,,54,0
55680,note_on,0,0,3,,,,,,,,,,,,,,,2,,,55,100
55680,note_on,0,0,2,,,,,,,,,,,,,,,1,,,59,100
55920,note_on,240,0,3,,,,,,,,,,,,,,,2,,,55,0
55920,note_on,0,0,3,,,,,,,,,,,,,,,2,,,57,100
55920,note_on,240,0,2,,,,,,,,,,,,,,,1,,,59,0
55920,note_on,0,0,2,,,,,,,,,,,,,,,1,,,61,100
56160,note_on,0,0,3,,,,,,,,,,,,,,,2,,,59,100
56160,note_on,240,0,3,,,,,,,,,,,,,,,2,,,57,0
56160,note_on,240,0,2,,,,,,,,,,,,,,,1,,,61,0
56160,note_on,0,0,2,,,,,,,,,,,,,,,1,,,62,100
56400,note_on,5040,0,1,,,,,,,,,,,,,,,0,,,83,100
56640,note_on,0,0,2,,,,,,,,,,,,,,,1,,,66,100
56640,note_on,480,0,2,,,,,,,,,,,,,,,1,,,62,0
56640,note_on,240,0,1,,,,,,,,,,,,,,,0,,,83,0
56640,note_on,0,0,1,,,,,,,,,,,,,,,0,,,81,100
56880,note_on,0,0,1,,,,,,,,,,,,,,,0,,,79,100
56880,note_on,240,0,1,,,,,,,,,,,,,,,0,,,81,0
56880,note_on,0,0,2,,,,,,,,,,,,,,,1,,,67,100
56880,note_on,240,0,2,,,,,,,,,,,,,,,1,,,66,0
57120,note_on,0,0,1,,,,,,,,,,,,,,,0,,,81,100
57120,note_on,240,0,1,,,,,,,,,,,,,,,0,,,79,0
57360,note_on,240,0,1,,,,,,,,,,,,,,,0,,,81,0
57360,note_on,1200,0,3,,,,,,,,,,,,,,,2,,,59,0
57360,note_on,0,0,3,,,,,,,,,,,,,,,2,,,57,100
57360,note_on,480,0,2,,,,,,,,,,,,,,,1,,,67,0
57360,note_on,0,0,2,,,,,,,,,,,,,,,1,,,69,100
57360,note_on,0,0,1,,,,,,,,,,,,,,,0,,,78,100
57600,note_on,240,0,1,,,,,,,,,,,,,,,0,,,78,0
57600,note_on,0,0,1,,,,,,,,,,,,,,,0,,,76,100
57600,note_on,240,0,2,,,,,,,,,,,,,,,1,,,69,0
57600,note_on,0,0,2,,,,,,,,,,,,,,,1,,,59,100
57600,note_on,0,0,3,,,,,,,,,,,,,,,2,,,55,100
57600,note_on,240,0,3,,,,,,,,,,,,,,,2,,,57,0
57720,note_on,120,0,1,,,,,,,,,,,,,,,0,,,76,0
57720,note_on,0,0,1,,,,,,,,,,,,,,,0,,,74,100
57840,note_on,120,0,1,,,,,,,,,,,,,,,0,,,74,0
57840,note_on,0,0,1,,,,,,,,,,,,,,,0,,,73,100
58080,note_on,0,0,3,,,,,,,,,,,,,,,2,,,52,100
58080,note_on,480,0,3,,,,,,,,,,,,,,,2,,,55,0
58080,note_on,0,0,1,,,,,,,,,,,,,,,0,,,74,100
58080,note_on,240,0,1,,,,,,,,,,,,,,,0,,,73,0
58320,note_on,0,0,1,,,,,,,,,,,,,,,0,,,74,100
58320,note_on,240,0,1,,,,,,,,,,,,,,,0,,,74,0
58320,note_on,0,0,3,,,,,,,,,,,,,,,2,,,45,100
58320,note_on,240,0,3,,,,,,,,,,,,,,,2,,,52,0
58440,note_on,120,0,1,,,,,,,,,,,,,,,0,,,74,0
58440,note_on,0,0,1,,,,,,,,,,,,,,,0,,,73,100
58560,note_on,960,0,2,,,,,,,,,,,,,,,1,,,59,0
58560,note_on,0,0,2,,,,,,,,,,,,,,,1,,,57,100
58800,note_on,240,0,2,,,,,,,,,,,,,,,1,,,57,0
58800,note_on,0,0,2,,,,,,,,,,,,,,,1,,,56,100
58800,note_on,480,0,3,,,,,,,,,,,,,,,2,,,45,0
59040,note_on,0,0,2,,,,,,,,,,,,,,,1,,,57,100
59040,note_on,240,0,2,,,,,,,,,,,,,,,1,,,56,0
59280,note_on,0,0,1,,,,,,,,,,,,,,,0,,,74,100
59280,note_on,840,0,1,,,,,,,,,,,,,,,0,,,73,0
59520,note_on,720,0,3,,,,,,,,,,,,,,,2,,,55,100
59520,note_on,0,0,1,,,,,,,,,,,,,,,0,,,76,100
59520,note_on,240,0,1,,,,,,,,,,,,,,,0,,,74,0
59760,note_on,0,0,3,,,,,,,,,,,,,,,2,,,54,100
59760,note_on,0,0,1,,,,,,,,,,,,,,,0,,,69,100
59760,note_on,240,0,3,,,,,,,,,,,,,,,2,,,55,0
59760,note_on,240,0,1,,,,,,,,,,,,,,,0,,,76,0
60000,note_on,0,0,1,,,,,,,,,,,,,,,0,,,71,100
60000,note_on,240,0,1,,,,,,,,,,,,,,,0,,,69,0
60240,note_on,480,0,3,,,,,,,,,,,,,,,2,,,54,0
60240,note_on,0,0,3,,,,,,,,,,,,,,,2,,,52,100
60240,note_on,0,0,1,,,,,,,,,,,,,,,0,,,73,100
60240,note_on,240,0,1,,,,,,,,,,,,,,,0,,,71,0
60480,note_on,240,0,3,,,,,,,,,,,,,,,2,,,52,0
60480,note_on,0,0,3,,,,,,,,,,,,,,,2,,,54,100
60480,note_on,0,0,1,,,,,,,,,,,,,,,0,,,74,100
60480,note_on,240,0,1,,,,,,,,,,,,,,,0,,,73,0
60720,note_on,0,0,2,,,,,,,,,,,,,,,1,,,62,100
60720,note_on,1680,0,2,,,,,,,,,,,,,,,1,,,57,0
60960,note_on,240,0,2,,,,,,,,,,,,,,,1,,,62,0
60960,note_on,0,0,3,,,,,,,,,,,,,,,2,,,57,100
60960,note_on,0,0,1,,,,,,,,,,,,,,,0,,,78,100
60960,note_on,480,0,1,,,,,,,,,,,,,,,0,,,74,0
60960,note_on,0,0,2,,,,,,,,,,,,,,,1,,,61,100
60960,note_on,480,0,3,,,,,,,,,,,,,,,2,,,54,0
61200,note_on,240,0,3,,,,,,,,,,,,,,,2,,,57,0
61200,note_on,240,0,2,,,,,,,,,,,,,,,1,,,61,0
61200,note_on,0,0,1,,,,,,,,,,,,,,,0,,,79,100
61200,note_on,240,0,1,,,,,,,,,,,,,,,0,,,78,0
61200,note_on,0,0,2,,,,,,,,,,,,,,,1,,,62,100
61200,note_on,0,0,3,,,,,,,,,,,,,,,2,,,59,100
61320,note_on,120,0,2,,,,,,,,,,,,,,,1,,,62,0
61320,note_on,0,0,2,,,,,,,,,,,,,,,1,,,64,100
61440,note_on,120,0,2,,,,,,,,,,,,,,,1,,,64,0
61440,note_on,0,0,2,,,,,,,,,,,,,,,1,,,66,100
61680,note_on,0,0,3,,,,,,,,,,,,,,,2,,,61,100
61680,note_on,480,0,1,,,,,,,,,,,,,,,0,,,79,0
61680,note_on,0,0,1,,,,,,,,,,,,,,,0,,,81,100
61680,note_on,480,0,3,,,,,,,,,,,,,,,2,,,59,0
61680,note_on,240,0,2,,,,,,,,,,,,,,,1,,,66,0
61680,note_on,0,0,2,,,,,,,,,,,,,,,1,,,64,100
61920,note_on,240,0,1,,,,,,,,,,,,,,,0,,,81,0
61920,note_on,0,0,1,,,,,,,,,,,,,,,0,,,71,100
61920,note_on,0,0,2,,,,,,,,,,,,,,,1,,,66,100
61920,note_on,0,0,3,,,,,,,,,,,,,,,2,,,62,100
61920,note_on,240,0,2,,,,,,,,,,,,,,,1,,,64,0
61920,note_on,240,0,3,,,,,,,,,,,,,,,2,,,61,0
62160,note_on,0,0,2,,,,,,,,,,,,,,,1,,,69,100
62160,note_on,240,0,2,,,,,,,,,,,,,,,1,,,66,0
62280,note_on,120,0,2,,,,,,,,,,,,,,,1,,,69,0
62280,note_on,0,0,2,,,,,,,,,,,,,,,1,,,67,100
62400,note_on,480,0,3,,,,,,,,,,,,,,,2,,,62,0
62400,note_on,0,0,3,,,,,,,,,,,,,,,2,,,50,100
62400,note_on,0,0,2,,,,,,,,,,,,,,,1,,,66,100
62400,note_on,120,0,2,,,,,,,,,,,,,,,1,,,67,0
62520,note_on,0,0,2,,,,,,,,,,,,,,,1,,,64,100
62520,note_on,120,0,2,,,,,,,,,,,,,,,1,,,66,0
62640,note_on,240,0,3,,,,,,,,,,,,,,,2,,,50,0
62640,note_on,0,0,3,,,,,,,,,,,,,,,2,,,55,100
62640,note_on,120,0,2,,,,,,,,,,,,,,,1,,,64,0
62640,note_on,0,0,2,,,,,,,,,,,,,,,1,,,66,100
62880,note_on,240,0,2,,,,,,,,,,,,,,,1,,,66,0
62880,note_on,0,0,2,,,,,,,,,,,,,,,1,,,67,100
62880,note_on,0,0,1,,,,,,,,,,,,,,,0,,,69,100
62880,note_on,960,0,1,,,,,,,,,,,,,,,0,,,71,0
63000,note_on,120,0,2,,,,,,,,,,,,,,,1,,,67,0
63000,note_on,0,0,2,,,,,,,,,,,,,,,1,,,66,100
63120,note_on,0,0,1,,,,,,,,,,,,,,,0,,,67,100
63120,note_on,120,0,2,,,,,,,,,,,,,,,1,,,66,0
63120,note_on,0,0,2,,,,,,,,,,,,,,,1,,,64,100
63120,note_on,240,0,1,,,,,,,,,,,,,,,0,,,69,0
63120,note_on,480,0,3,,,,,,,,,,,,,,,2,,,55,0
63120,note_on,0,0,3,,,,,,,,,,,,,,,2,,,47,100
63240,note_on,0,0,2,,,,,,,,,,,,,,,1,,,62,100
63240,note_on,120,0,2,,,,,,,,,,,,,,,1,,,64,0
63360,note_on,0,0,3,,,,,,,,,,,,,,,2,,,49,100
63360,note_on,0,0,2,,,,,,,,,,,,,,,1,,,64,100
63360,note_on,120,0,2,,,,,,,,,,,,,,,1,,,62,0
63360,note_on,0,0,1,,,,,,,,,,,,,,,0,,,69,100
63360,note_on,240,0,1,,,,,,,,,,,,,,,0,,,67,0
63360,note_on,240,0,3,,,,,,,,,,,,,,,2,,,47,0
63600,note_on,240,0,3,,,,,,,,,,,,,,,2,,,49,0
63600,note_on,0,0,3,,,,,,,,,,,,,,,2,,,50,100
63600,note_on,240,0,2,,,,,,,,,,,,,,,1,,,64,0
63600,note_on,0,0,2,,,,,,,,,,,,,,,1,,,66,100
63720,note_on,0,0,2,,,,,,,,,,,,,,,1,,,64,100
63720,note_on,120,0,2,,,,,,,,,,,,,,,1,,,66,0
63840,note_on,240,0,3,,,,,,,,,,,,,,,2,,,50,0
63840,note_on,0,0,3,,,,,,,,,,,,,,,2,,,52,100
63840,note_on,0,0,2,,,,,,,,,,,,,,,1,,,62,100
63840,note_on,120,0,2,,,,,,,,,,,,,,,1,,,64,0
63960,note_on,0,0,2,,,,,,,,,,,,,,,1,,,61,100
63960,note_on,120,0,2,,,,,,,,,,,,,,,1,,,62,0
64080,note_on,0,0,3,,,,,,,,,,,,,,,2,,,54,100
64080,note_on,120,0,2,,,,,,,,,,,,,,,1,,,61,0
64080,note_on,0,0,2,,,,,,,,,,,,,,,1,,,62,100
64080,note_on,240,0,3,,,,,,,,,,,,,,,2,,,52,0
64320,note_on,240,0,3,,,,,,,,,,,,,,,2,,,54,0
64320,note_on,240,0,2,,,,,,,,,,,,,,,1,,,62,0
64320,note_on,0,0,3,,,,,,,,,,,,,,,2,,,52,100
64320,note_on,0,0,2,,,,,,,,,,,,,,,1,,,64,100
64440,note_on,120,0,2,,,,,,,,,,,,,,,1,,,64,0
64440,note_on,0,0,2,,,,,,,,,,,,,,,1,,,62,100
64560,note_on,240,0,3,,,,,,,,,,,,,,,2,,,52,0
64560,note_on,0,0,3,,,,,,,,,,,,,,,2,,,54,100
64560,note_on,120,0,2,,,,,,,,,,,,,,,1,,,62,0
64560,note_on,0,0,2,,,,,,,,,,,,,,,1,,,61,100
64680,note_on,120,0,2,,,,,,,,,,,,,,,1,,,61,0
64680,note_on,0,0,2,,,,,,,,,,,,,,,1,,,59,100
64800,note_on,0,0,2,,,,,,,,,,,,,,,1,,,57,100
64800,note_on,0,0,3,,,,,,,,,,,,,,,2,,,55,100
64800,note_on,240,0,3,,,,,,,,,,,,,,,2,,,54,0
64800,note_on,120,0,2,,,,,,,,,,,,,,,1,,,59,0
65040,note_on,240,0,3,,,,,,,,,,,,,,,2,,,55,0
65040,note_on,1680,0,1,,,,,,,,,,,,,,,0,,,69,0
65040,note_on,0,0,3,,,,,,,,,,,,,,,2,,,54,100
65040,note_on,240,0,2,,,,,,,,,,,,,,,1,,,57,0
65040,note_on,0,0,1,,,,,,,,,,,,,,,0,,,74,100
65280,note_on,240,0,3,,,,,,,,,,,,,,,2,,,54,0
65280,note_on,0,0,3,,,,,,,,,,,,,,,2,,,52,100
65280,note_on,0,0,1,,,,,,,,,,,,,,,0,,,73,100
65280,note_on,240,0,1,,,,,,,,,,,,,,,0,,,74,0
65520,note_on,240,0,3,,,,,,,,,,,,,,,2,,,52,0
65520,note_on,0,0,3,,,,,,,,,,,,,,,2,,,54,100
65520,note_on,480,0,2,,,,,,,,,,,,,,,1,,,62,100
65520,note_on,240,0,1,,,,,,,,,,,,,,,0,,,73,0
65520,note_on,0,0,1,,,,,,,,,,,,,,,0,,,74,100
65640,note_on,120,0,1,,,,,,,,,,,,,,,0,,,74,0
65640,note_on,0,0,1,,,,,,,,,,,,,,,0,,,76,100
65760,note_on,0,0,1,,,,,,,,,,,,,,,0,,,78,100
65760,note_on,240,0,2,,,,,,,,,,,,,,,1,,,62,0
65760,note_on,240,0,3,,,,,,,,,,,,,,,2,,,54,0
65760,note_on,0,0,3,,,,,,,,,,,,,,,2,,,57,100
65760,note_on,120,0,1,,,,,,,,,,,,,,,0,,,76,0
66000,note_on,240,0,3,,,,,,,,,,,,,,,2,,,57,0
66000,note_on,0,0,3,,,,,,,,,,,,,,,2,,,55,100
66000,note_on,240,0,1,,,,,,,,,,,,,,,0,,,78,0
66000,note_on,0,0,1,,,,,,,,,,,,,,,0,,,76,100
66240,note_on,480,0,2,,,,,,,,,,,,,,,1,,,61,100
66240,note_on,0,0,1,,,,,,,,,,,,,,,0,,,78,100
66240,note_on,240,0,1,,,,,,,,,,,,,,,0,,,76,0
66240,note_on,0,0,3,,,,,,,,,,,,,,,2,,,57,100
66240,note_on,240,0,3,,,,,,,,,,,,,,,2,,,55,0
66480,note_on,0,0,1,,,,,,,,,,,,,,,0,,,81,100
66480,note_on,240,0,1,,,,,,,,,,,,,,,0,,,78,0
66480,note_on,240,0,2,,,,,,,,,,,,,,,1,,,61,0
66600,note_on,120,0,1,,,,,,,,,,,,,,,0,,,81,0
66600,note_on,0,0,1,,,,,,,,,,,,,,,0,,,79,100
66720,note_on,0,0,1,,,,,,,,,,,,,,,0,,,78,100
66720,note_on,480,0,3,,,,,,,,,,,,,,,2,,,57,0
66720,note_on,0,0,3,,,,,,,,,,,,,,,2,,,45,100
66720,note_on,120,0,1,,,,,,,,,,,,,,,0,,,79,0
66840,note_on,0,0,1,,,,,,,,,,,,,,,0,,,76,100
66840,note_on,120,0,1,,,,,,,,,,,,,,,0,,,78,0
66960,note_on,240,0,3,,,,,,,,,,,,,,,2,,,45,0
66960,note_on,0,0,3,,,,,,,,,,,,,,,2,,,50,100
66960,note_on,480,0,2,,,,,,,,,,,,,,,1,,,62,100
66960,note_on,120,0,1,,,,,,,,,,,,,,,0,,,76,0
66960,note_on,0,0,1,,,,,,,,,,,,,,,0,,,78,100
67200,note_on,240,0,2,,,,,,,,,,,,,,,1,,,62,0
67200,note_on,0,0,1,,,,,,,,,,,,,,,0,,,79,100
67200,note_on,240,0,1,,,,,,,,,,,,,,,0,,,78,0
67320,note_on,0,0,1,,,,,,,,,,,,,,,0,,,78,100
67320,note_on,120,0,1,,,,,,,,,,,,,,,0,,,79,0
67440,note_on,0,0,1,,,,,,,,,,,,,,,0,,,76,100
67440,note_on,120,0,1,,,,,,,,,,,,,,,0,,,78,0
67440,note_on,0,0,3,,,,,,,,,,,,,,,2,,,38,100
67440,note_on,480,0,3,,,,,,,,,,,,,,,2,,,50,0
67560,note_on,0,0,1,,,,,,,,,,,,,,,0,,,74,100
67560,note_on,120,0,1,,,,,,,,,,,,,,,0,,,76,0
67680,note_on,0,0,1,,,,,,,,,,,,,,,0,,,76,100
67680,note_on,120,0,1,,,,,,,,,,,,,,,0,,,74,0
67680,note_on,0,0,3,,,,,,,,,,,,,,,2,,,38,100
67680,note_on,240,0,3,,,,,,,,,,,,,,,2,,,38,0
67680,note_on,480,0,2,,,,,,,,,,,,,,,1,,,67,100
67920,note_on,240,0,1,,,,,,,,,,,,,,,0,,,76,0
67920,note_on,0,0,1,,,,,,,,,,,,,,,0,,,78,100
67920,note_on,240,0,2,,,,,,,,,,,,,,,1,,,67,0
68040,note_on,120,0,1,,,,,,,,,,,,,,,0,,,78,0
68040,note_on,0,0,1,,,,,,,,,,,,,,,0,,,76,100
68160,note_on,480,0,3,,,,,,,,,,,,,,,2,,,38,0
68160,note_on,120,0,1,,,,,,,,,,,,,,,0,,,76,0
68160,note_on,0,0,1,,,,,,,,,,,,,,,0,,,74,100
68160,note_on,0,0,3,,,,,,,,,,,,,,,2,,,50,100
68280,note_on,0,0,1,,,,,,,,,,,,,,,0,,,73,100
68280,note_on,120,0,1,,,,,,,,,,,,,,,0,,,74,0
68400,note_on,480,0,2,,,,,,,,,,,,,,,1,,,66,100
68400,note_on,240,0,3,,,,,,,,,,,,,,,2,,,50,0
68400,note_on,0,0,3,,,,,,,,,,,,,,,2,,,50,100
68400,note_on,0,0,1,,,,,,,,,,,,,,,0,,,74,100
68400,note_on,120,0,1,,,,,,,,,,,,,,,0,,,73,0
69120,note_on,720,0,1,,,,,,,,,,,,,,,0,,,74,0
69120,note_on,0,0,3,,,,,,,,,,,,,,,2,,,50,100
69120,note_on,720,0,3,,,,,,,,,,,,,,,2,,,50,0
69120,marker,34560,1,0,,,,,,,,,,,,,,,,,,,
69120,note_on,720,0,2,,,,,,,,,,,,,,,1,,,66,0
69120,note_on,0,0,2,,,,,,,,,,,,,,,1,,,71,100
69240,note_on,0,0,2,,,,,,,,,,,,,,,1,,,69,100
69240,note_on,120,0,2,,,,,,,,,,,,,,,1,,,71,0
69360,note_on,0,0,2,,,,,,,,,,,,,,,1,,,67,100
69360,note_on,120,0,2,,,,,,,,,,,,,,,1,,,69,0
69360,note_on,0,0,3,,,,,,,,,,,,,,,2,,,54,100
69360,note_on,240,0,3,,,,,,,,,,,,,,,2,,,50,0
69480,note_on,120,0,2,,,,,,,,,,,,,,,1,,,67,0
69480,note_on,0,0,2,,,,,,,,,,,,,,,1,,,69,100
69600,note_on,240,0,3,,,,,,,,,,,,,,,2,,,54,0
69600,note_on,120,0,2,,,,,,,,,,,,,,,1,,,69,0
69600,note_on,0,0,2,,,,,,,,,,,,,,,1,,,71,100
69600,note_on,0,0,3,,,,,,,,,,,,,,,2,,,57,100
69660,note_on,60,0,2,,,,,,,,,,,,,,,1,,,71,0
69660,note_on,0,0,2,,,,,,,,,,,,,,,1,,,69,100
69720,note_on,60,0,2,,,,,,,,,,,,,,,1,,,69,0
69720,note_on,0,0,2,,,,,,,,,,,,,,,1,,,71,100
69780,note_on,60,0,2,,,,,,,,,,,,,,,1,,,71,0
69780,note_on,0,0,2,,,,,,,,,,,,,,,1,,,69,100
69840,note_on,60,0,2,,,,,,,,,,,,,,,1,,,69,0
69840,note_on,0,0,2,,,,,,,,,,,,,,,1,,,71,100
69840,note_on,240,0,3,,,,,,,,,,,,,,,2,,,57,0
69840,note_on,0,0,3,,,,,,,,,,,,,,,2,,,62,100
69900,note_on,60,0,2,,,,,,,,,,,,,,,1,,,71,0
69900,note_on,0,0,2,,,,,,,,,,,,,,,1,,,69,100
69960,note_on,60,0,2,,,,,,,,,,,,,,,1,,,69,0
69960,note_on,0,0,2,,,,,,,,,,,,,,,1,,,71,100
70020,note_on,60,0,2,,,,,,,,,,,,,,,1,,,71,0
70020,note_on,0,0,2,,,,,,,,,,,,,,,1,,,69,100
70080,note_on,0,0,2,,,,,,,,,,,,,,,1,,,71,100
70080,note_on,60,0,2,,,,,,,,,,,,,,,1,,,69,0
70080,note_on,240,0,3,,,,,,,,,,,,,,,2,,,62,0
70080,note_on,0,0,3,,,,,,,,,,,,,,,2,,,64,100
70140,note_on,60,0,2,,,,,,,,,,,,,,,1,,,71,0
70140,note_on,0,0,2,,,,,,,,,,,,,,,1,,,69,100
70200,note_on,60,0,2,,,,,,,,,,,,,,,1,,,69,0
70200,note_on,0,0,2,,,,,,,,,,,,,,,1,,,71,100
70200,note_on,0,0,3,,,,,,,,,,,,,,,2,,,62,100
70200,note_on,120,0,3,,,,,,,,,,,,,,,2,,,64,0
70260,note_on,60,0,2,,,,,,,,,,,,,,,1,,,71,0
70260,note_on,0,0,2,,,,,,,,,,,,,,,1,,,69,100
70320,note_on,60,0,2,,,,,,,,,,,,,,,1,,,69,0
70320,note_on,0,0,2,,,,,,,,,,,,,,,1,,,71,100
70320,note_on,0,0,3,,,,,,,,,,,,,,,2,,,60,100
70320,note_on,120,0,3,,,,,,,,,,,,,,,2,,,62,0
70380,note_on,0,0,2,,,,,,,,,,,,,,,1,,,69,100
70380,note_on,60,0,2,,,,,,,,,,,,,,,1,,,71,0
70440,note_on,60,0,2,,,,,,,,,,,,,,,1,,,69,0
70440,note_on,0,0,2,,,,,,,,,,,,,,,1,,,71,100
70440,note_on,120,0,3,,,,,,,,,,,,,,,2,,,60,0
70440,note_on,0,0,3,,,,,,,,,,,,,,,2,,,59,100
70500,note_on,60,0,2,,,,,,,,,,,,,,,1,,,71,0
70500,note_on,0,0,2,,,,,,,,,,,,,,,1,,,69,100
70560,note_on,60,0,2,,,,,,,,,,,,,,,1,,,69,0
70560,note_on,0,0,2,,,,,,,,,,,,,,,1,,,71,100
70560,note_on,120,0,3,,,,,,,,,,,,,,,2,,,59,0
70560,note_on,0,0,3,,,,,,,,,,,,,,,2,,,60,100
70620,note_on,60,0,2,,,,,,,,,,,,,,,1,,,71,0
70620,note_on,0,0,2,,,,,,,,,,,,,,,1,,,69,100
70680,note_on,60,0,2,,,,,,,,,,,,,,,1,,,69,0
70680,note_on,0,0,2,,,,,,,,,,,,,,,1,,,71,100
70740,note_on,0,0,2,,,,,,,,,,,,,,,1,,,69,100
70740,note_on,60,0,2,,,,,,,,,,,,,,,1,,,71,0
70800,note_on,0,0,2,,,,,,,,,,,,,,,1,,,71,100
70800,note_on,60,0,2,,,,,,,,,,,,,,,1,,,69,0
70800,note_on,0,0,3,,,,,,,,,,,,,,,2,,,62,100
70800,note_on,240,0,3,,,,,,,,,,,,,,,2,,,60,0
70860,note_on,60,0,2,,,,,,,,,,,,,,,1,,,71,0
70860,note_on,0,0,2,,,,,,,,,,,,,,,1,,,69,100
70920,note_on,0,0,3,,,,,,,,,,,,,,,2,,,60,100
70920,note_on,120,0,3,,,,,,,,,,,,,,,2,,,62,0
70920,note_on,60,0,2,,,,,,,,,,,,,,,1,,,69,0
70920,note_on,0,0,2,,,,,,,,,,,,,,,1,,,71,100
70980,note_on,0,0,2,,,,,,,,,,,,,,,1,,,69,100
70980,note_on,60,0,2,,,,,,,,,,,,,,,1,,,71,0
71040,note_on,60,0,2,,,,,,,,,,,,,,,1,,,69,0
71040,note_on,0,0,3,,,,,,,,,,,,,,,2,,,59,100
71040,note_on,0,0,2,,,,,,,,,,,,,,,1,,,71,100
71040,note_on,120,0,3,,,,,,,,,,,,,,,2,,,60,0
71100,note_on,0,0,2,,,,,,,,,,,,,,,1,,,69,100
71100,note_on,60,0,2,,,,,,,,,,,,,,,1,,,71,0
71160,note_on,0,0,2,,,,,,,,,,,,,,,1,,,71,100
71160,note_on,120,0,3,,,,,,,,,,,,,,,2,,,59,0
71160,note_on,0,0,3,,,,,,,,,,,,,,,2,,,57,100
71160,note_on,60,0,2,,,,,,,,,,,,,,,1,,,69,0
71220,note_on,0,0,2,,,,,,,,,,,,,,,1,,,69,100
71220,note_on,60,0,2,,,,,,,,,,,,,,,1,,,71,0
71280,note_on,60,0,2,,,,,,,,,,,,,,,1,,,69,0
71280,note_on,0,0,2,,,,,,,,,,,,,,,1,,,71,100
71280,note_on,120,0,3,,,,,,,,,,,,,,,2,,,57,0
71280,note_on,0,0,3,,,,,,,,,,,,,,,2,,,59,100
71400,note_on,0,0,2,,,,,,,,,,,,,,,1,,,69,100
71400,note_on,120,0,2,,,,,,,,,,,,,,,1,,,71,0
71520,note_on,0,0,2,,,,,,,,,,,,,,,1,,,67,100
71520,note_on,120,0,2,,,,,,,,,,,,,,,1,,,69,0
71760,note_on,0,0,2,,,,,,,,,,,,,,,1,,,66,100
71760,note_on,240,0,2,,,,,,,,,,,,,,,1,,,67,0
72000,note_on,240,0,2,,,,,,,,,,,,,,,1,,,66,0
72000,note_on,0,0,2,,,,,,,,,,,,,,,1,,,67,100
72240,note_on,0,0,2,,,,,,,,,,,,,,,1,,,71,100
72240,note_on,240,0,2,,,,,,,,,,,,,,,1,,,67,0
72240,note_on,960,0,3,,,,,,,,,,,,,,,2,,,59,0
72240,note_on,0,0,3,,,,,,,,,,,,,,,2,,,60,100
72480,note_on,240,0,2,,,,,,,,,,,,,,,1,,,71,0
72480,note_on,0,0,3,,,,,,,,,,,,,,,2,,,62,100
72480,note_on,240,0,3,,,,,,,,,,,,,,,2,,,60,0
72480,note_on,0,0,2,,,,,,,,,,,,,,,1,,,69,100
72720,note_on,240,0,2,,,,,,,,,,,,,,,1,,,69,0
72720,note_on,240,0,3,,,,,,,,,,,,,,,2,,,62,0
72720,note_on,0,0,3,,,,,,,,,,,,,,,2,,,55,100
72720,note_on,0,0,2,,,,,,,,,,,,,,,1,,,71,100
72960,note_on,240,0,3,,,,,,,,,,,,,,,2,,,55,0
72960,note_on,0,0,3,,,,,,,,,,,,,,,2,,,57,100
73200,note_on,0,0,2,,,,,,,,,,,,,,,1,,,63,100
73200,note_on,480,0,2,,,,,,,,,,,,,,,1,,,71,0
73200,note_on,240,0,3,,,,,,,,,,,,,,,2,,,57,0
73200,note_on,0,0,3,,,,,,,,,,,,,,,2,,,59,100
73440,note_on,0,0,2,,,,,,,,,,,,,,,1,,,64,100
73440,note_on,4320,0,1,,,,,,,,,,,,,,,0,,,83,100
73440,note_on,240,0,2,,,,,,,,,,,,,,,1,,,63,0
73440,note_on,240,0,3,,,,,,,,,,,,,,,2,,,59,0
73440,note_on,0,0,3,,,,,,,,,,,,,,,2,,,60,100
73560,note_on,120,0,1,,,,,,,,,,,,,,,0,,,83,0
73560,note_on,0,0,1,,,,,,,,,,,,,,,0,,,81,100
73680,note_on,240,0,2,,,,,,,,,,,,,,,1,,,64,0
73680,note_on,240,0,3,,,,,,,,,,,,,,,2,,,60,0
73680,note_on,0,0,2,,,,,,,,,,,,,,,1,,,67,100
73680,note_on,0,0,1,,,,,,,,,,,,,,,0,,,79,100
73680,note_on,120,0,1,,,,,,,,,,,,,,,0,,,81,0
73800,note_on,120,0,1,,,,,,,,,,,,,,,0,,,79,0
73800,note_on,0,0,2,,,,,,,,,,,,,,,1,,,66,100
73800,note_on,120,0,2,,,,,,,,,,,,,,,1,,,67,0
73800,note_on,0,0,1,,,,,,,,,,,,,,,0,,,81,100
73920,note_on,0,0,2,,,,,,,,,,,,,,,1,,,64,100
73920,note_on,120,0,1,,,,,,,,,,,,,,,0,,,81,0
73920,note_on,0,0,1,,,,,,,,,,,,,,,0,,,83,100
73920,note_on,120,0,2,,,,,,,,,,,,,,,1,,,66,0
73980,note_on,60,0,1,,,,,,,,,,,,,,,0,,,83,0
73980,note_on,0,0,1,,,,,,,,,,,,,,,0,,,81,100
74040,note_on,60,0,1,,,,,,,,,,,,,,,0,,,81,0
74040,note_on,0,0,1,,,,,,,,,,,,,,,0,,,83,100
74040,note_on,0,0,2,,,,,,,,,,,,,,,1,,,62,100
74040,note_on,120,0,2,,,,,,,,,,,,,,,1,,,64,0
74100,note_on,0,0,1,,,,,,,,,,,,,,,0,,,81,100
74100,note_on,60,0,1,,,,,,,,,,,,,,,0,,,83,0
74160,note_on,0,0,1,,,,,,,,,,,,,,,0,,,83,100
74160,note_on,60,0,1,,,,,,,,,,,,,,,0,,,81,0
74160,note_on,480,0,3,,,,,,,,,,,,,,,2,,,57,100
74160,note_on,120,0,2,,,,,,,,,,,,,,,1,,,62,0
74160,note_on,0,0,2,,,,,,,,,,,,,,,1,,,60,100
74220,note_on,0,0,1,,,,,,,,,,,,,,,0,,,81,100
74220,note_on,60,0,1,,,,,,,,,,,,,,,0,,,83,0
74280,note_on,0,0,1,,,,,,,,,,,,,,,0,,,83,100
74280,note_on,60,0,1,,,,,,,,,,,,,,,0,,,81,0
74340,note_on,0,0,1,,,,,,,,,,,,,,,0,,,81,100
74340,note_on,60,0,1,,,,,,,,,,,,,,,0,,,83,0
74400,note_on,60,0,1,,,,,,,,,,,,,,,0,,,81,0
74400,note_on,240,0,3,,,,,,,,,,,,,,,2,,,57,0
74400,note_on,0,0,1,,,,,,,,,,,,,,,0,,,83,100
74400,note_on,0,0,2,,,,,,,,,,,,,,,1,,,64,100
74400,note_on,240,0,2,,,,,,,,,,,,,,,1,,,60,0
74460,note_on,60,0,1,,,,,,,,,,,,,,,0,,,83,0
74460,note_on,0,0,1,,,,,,,,,,,,,,,0,,,81,100
74520,note_on,120,0,2,,,,,,,,,,,,,,,1,,,64,0
74520,note_on,0,0,2,,,,,,,,,,,,,,,1,,,62,100
74520,note_on,60,0,1,,,,,,,,,,,,,,,0,,,81,0
74520,note_on,0,0,1,,,,,,,,,,,,,,,0,,,83,100
74580,note_on,0,0,1,,,,,,,,,,,,,,,0,,,81,100
74580,note_on,60,0,1,,,,,,,,,,,,,,,0,,,83,0
74640,note_on,120,0,2,,,,,,,,,,,,,,,1,,,62,0
74640,note_on,0,0,2,,,,,,,,,,,,,,,1,,,60,100
74640,note_on,0,0,1,,,,,,,,,,,,,,,0,,,83,100
74640,note_on,60,0,1,,,,,,,,,,,,,,,0,,,81,0
74700,note_on,60,0,1,,,,,,,,,,,,,,,0,,,83,0
74700,note_on,0,0,1,,,,,,,,,,,,,,,0,,,81,100
74760,note_on,0,0,2,,,,,,,,,,,,,,,1,,,59,100
74760,note_on,120,0,2,,,,,,,,,,,,,,,1,,,60,0
74760,note_on,60,0,1,,,,,,,,,,,,,,,0,,,81,0
74760,note_on,0,0,1,,,,,,,,,,,,,,,0,,,83,100
74820,note_on,0,0,1,,,,,,,,,,,,,,,0,,,81,100
74820,note_on,60,0,1,,,,,,,,,,,,,,,0,,,83,0
74880,note_on,60,0,1,,,,,,,,,,,,,,,0,,,81,0
74880,note_on,0,0,1,,,,,,,,,,,,,,,0,,,83,100
74880,note_on,0,0,2,,,,,,,,,,,,,,,1,,,57,100
74880,note_on,120,0,2,,,,,,,,,,,,,,,1,,,59,0
74880,note_on,480,0,3,,,,,,,,,,,,,,,2,,,54,100
74940,note_on,60,0,1,,,,,,,,,,,,,,,0,,,83,0
74940,note_on,0,0,1,,,,,,,,,,,,,,,0,,,81,100
75000,note_on,60,0,1,,,,,,,,,,,,,,,0,,,81,0
75000,note_on,0,0,1,,,,,,,,,,,,,,,0,,,83,100
75060,note_on,60,0,1,,,,,,,,,,,,,,,0,,,83,0
75060,note_on,0,0,1,,,,,,,,,,,,,,,0,,,81,100
75120,note_on,0,0,2,,,,,,,,,,,,,,,1,,,60,100
75120,note_on,240,0,2,,,,,,,,,,,,,,,1,,,57,0
75120,note_on,0,0,1,,,,,,,,,,,,,,,0,,,83,100
75120,note_on,60,0,1,,,,,,,,,,,,,,,0,,,81,0
75120,note_on,240,0,3,,,,,,,,,,,,,,,2,,,54,0
75180,note_on,0,0,1,,,,,,,,,,,,,,,0,,,81,100
75180,note_on,60,0,1,,,,,,,,,,,,,,,0,,,83,0
75240,note_on,0,0,2,,,,,,,,,,,,,,,1,,,59,100
75240,note_on,120,0,2,,,,,,,,,,,,,,,1,,,60,0
75240,note_on,60,0,1,,,,,,,,,,,,,,,0,,,81,0
75240,note_on,0,0,1,,,,,,,,,,,,,,,0,,,83,100
75300,note_on,60,0,1,,,,,,,,,,,,,,,0,,,83,0
75300,note_on,0,0,1,,,,,,,,,,,,,,,0,,,81,100
75360,note_on,60,0,1,,,,,,,,,,,,,,,0,,,81,0
75360,note_on,0,0,1,,,,,,,,,,,,,,,0,,,83,100
75360,note_on,120,0,2,,,,,,,,,,,,,,,1,,,59,0
75360,note_on,0,0,2,,,,,,,,,,,,,,,1,,,57,100
75420,note_on,60,0,1,,,,,,,,,,,,,,,0,,,83,0
75420,note_on,0,0,1,,,,,,,,,,,,,,,0,,,81,100
75480,note_on,60,0,1,,,,,,,,,,,,,,,0,,,81,0
75480,note_on,120,0,2,,,,,,,,,,,,,,,1,,,57,0
75480,note_on,0,0,2,,,,,,,,,,,,,,,1,,,55,100
75480,note_on,0,0,1,,,,,,,,,,,,,,,0,,,83,100
75540,note_on,60,0,1,,,,,,,,,,,,,,,0,,,83,0
75540,note_on,0,0,1,,,,,,,,,,,,,,,0,,,81,100
75600,note_on,120,0,2,,,,,,,,,,,,,,,1,,,55,0
75600,note_on,480,0,3,,,,,,,,,,,,,,,2,,,51,100
75600,note_on,0,0,1,,,,,,,,,,,,,,,0,,,83,100
75600,note_on,60,0,1,,,,,,,,,,,,,,,0,,,81,0
75600,note_on,0,0,2,,,,,,,,,,,,,,,1,,,54,100
75720,note_on,120,0,1,,,,,,,,,,,,,,,0,,,83,0
75720,note_on,0,0,1,,,,,,,,,,,,,,,0,,,81,100
75840,note_on,120,0,1,,,,,,,,,,,,,,,0,,,81,0
75840,note_on,0,0,1,,,,,,,,,,,,,,,0,,,79,100
76080,note_on,0,0,2,,,,,,,,,,,,,,,1,,,64,100
76080,note_on,0,0,3,,,,,,,,,,,,,,,2,,,54,100
76080,note_on,0,0,1,,,,,,,,,,,,,,,0,,,78,100
76080,note_on,240,0,1,,,,,,,,,,,,,,,0,,,79,0
76080,note_on,480,0,2,,,,,,,,,,,,,,,1,,,54,0
76080,note_on,480,0,3,,,,,,,,,,,,,,,2,,,51,0
76320,note_on,0,0,2,,,,,,,,,,,,,,,1,,,63,100
76320,note_on,240,0,3,,,,,,,,,,,,,,,2,,,54,0
76320,note_on,0,0,1,,,,,,,,,,,,,,,0,,,79,100
76320,note_on,240,0,1,,,,,,,,,,,,,,,0,,,78,0
76320,note_on,240,0,2,,,,,,,,,,,,,,,1,,,64,0
76320,note_on,0,0,3,,,,,,,,,,,,,,,2,,,59,100
76560,note_on,240,0,2,,,,,,,,,,,,,,,1,,,63,0
76560,note_on,0,0,2,,,,,,,,,,,,,,,1,,,66,100
76560,note_on,0,0,1,,,,,,,,,,,,,,,0,,,83,100
76560,note_on,240,0,1,,,,,,,,,,,,,,,0,,,79,0
76620,note_on,0,0,2,,,,,,,,,,,,,,,1,,,64,100
76620,note_on,60,0,2,,,,,,,,,,,,,,,1,,,66,0
76680,note_on,0,0,2,,,,,,,,,,,,,,,1,,,63,100
76680,note_on,60,0,2,,,,,,,,,,,,,,,1,,,64,0
76740,note_on,0,0,2,,,,,,,,,,,,,,,1,,,64,100
76740,note_on,60,0,2,,,,,,,,,,,,,,,1,,,63,0
76800,note_on,60,0,2,,,,,,,,,,,,,,,1,,,64,0
76800,note_on,0,0,2,,,,,,,,,,,,,,,1,,,66,100
76800,note_on,240,0,1,,,,,,,,,,,,,,,0,,,83,0
76800,note_on,0,0,1,,,,,,,,,,,,,,,0,,,81,100
77040,note_on,240,0,2,,,,,,,,,,,,,,,1,,,66,0
77040,note_on,0,0,2,,,,,,,,,,,,,,,1,,,59,100
77040,note_on,240,0,1,,,,,,,,,,,,,,,0,,,81,0
77040,note_on,0,0,1,,,,,,,,,,,,,,,0,,,83,100
77280,note_on,960,0,3,,,,,,,,,,,,,,,2,,,59,0
77280,note_on,0,0,3,,,,,,,,,,,,,,,2,,,55,100
77520,note_on,480,0,1,,,,,,,,,,,,,,,0,,,83,0
77520,note_on,0,0,1,,,,,,,,,,,,,,,0,,,75,100
77520,note_on,0,0,3,,,,,,,,,,,,,,,2,,,57,100
77520,note_on,240,0,3,,,,,,,,,,,,,,,2,,,55,0
77760,note_on,0,0,1,,,,,,,,,,,,,,,0,,,76,100
77760,note_on,240,0,3,,,,,,,,,,,,,,,2,,,57,0
77760,note_on,0,0,3,,,,,,,,,,,,,,,2,,,55,100
77760,note_on,240,0,1,,,,,,,,,,,,,,,0,,,75,0
78000,note_on,240,0,1,,,,,,,,,,,,,,,0,,,76,0
78000,note_on,0,0,1,,,,,,,,,,,,,,,0,,,79,100
78000,note_on,0,0,2,,,,,,,,,,,,,,,1,,,63,100
78000,note_on,960,0,2,,,,,,,,,,,,,,,1,,,59,0
78000,note_on,240,0,3,,,,,,,,,,,,,,,2,,,55,0
78120,note_on,120,0,1,,,,,,,,,,,,,,,0,,,79,0
78120,note_on,0,0,1,,,,,,,,,,,,,,,0,,,78,100
78240,note_on,120,0,1,,,,,,,,,,,,,,,0,,,78,0
78240,note_on,0,0,1,,,,,,,,,,,,,,,0,,,76,100
78240,note_on,240,0,2,,,,,,,,,,,,,,,1,,,63,0
78240,note_on,0,0,2,,,,,,,,,,,,,,,1,,,64,100
78360,note_on,120,0,1,,,,,,,,,,,,,,,0,,,76,0
78360,note_on,0,0,1,,,,,,,,,,,,,,,0,,,74,100
78480,note_on,480,0,3,,,,,,,,,,,,,,,2,,,52,100
78480,note_on,0,0,1,,,,,,,,,,,,,,,0,,,72,100
78480,note_on,120,0,1,,,,,,,,,,,,,,,0,,,74,0
78600,note_on,360,0,2,,,,,,,,,,,,,,,1,,,64,0
78600,note_on,0,0,2,,,,,,,,,,,,,,,1,,,62,100
78720,note_on,240,0,1,,,,,,,,,,,,,,,0,,,72,0
78720,note_on,0,0,1,,,,,,,,,,,,,,,0,,,76,100
78720,note_on,240,0,3,,,,,,,,,,,,,,,2,,,52,0
78720,note_on,120,0,2,,,,,,,,,,,,,,,1,,,62,0
78720,note_on,0,0,2,,,,,,,,,,,,,,,1,,,60,100
78840,note_on,0,0,1,,,,,,,,,,,,,,,0,,,74,100
78840,note_on,120,0,2,,,,,,,,,,,,,,,1,,,60,0
78840,note_on,0,0,2,,,,,,,,,,,,,,,1,,,59,100
78840,note_on,120,0,1,,,,,,,,,,,,,,,0,,,76,0
78960,note_on,120,0,2,,,,,,,,,,,,,,,1,,,59,0
78960,note_on,120,0,1,,,,,,,,,,,,,,,0,,,74,0
78960,note_on,0,0,2,,,,,,,,,,,,,,,1,,,60,100
78960,note_on,0,0,1,,,,,,,,,,,,,,,0,,,72,100
79080,note_on,120,0,1,,,,,,,,,,,,,,,0,,,72,0
79080,note_on,0,0,1,,,,,,,,,,,,,,,0,,,71,100
79200,note_on,0,0,1,,,,,,,,,,,,,,,0,,,69,100
79200,note_on,480,0,3,,,,,,,,,,,,,,,2,,,48,100
79200,note_on,120,0,1,,,,,,,,,,,,,,,0,,,71,0
79320,note_on,360,0,2,,,,,,,,,,,,,,,1,,,60,0
79320,note_on,0,0,2,,,,,,,,,,,,,,,1,,,59,100
79440,note_on,240,0,1,,,,,,,,,,,,,,,0,,,69,0
79440,note_on,0,0,1,,,,,,,,,,,,,,,0,,,72,100
79440,note_on,240,0,3,,,,,,,,,,,,,,,2,,,48,0
79440,note_on,120,0,2,,,,,,,,,,,,,,,1,,,59,0
79440,note_on,0,0,2,,,,,,,,,,,,,,,1,,,57,100
79560,note_on,0,0,2,,,,,,,,,,,,,,,1,,,55,100
79560,note_on,120,0,2,,,,,,,,,,,,,,,1,,,57,0
79560,note_on,0,0,1,,,,,,,,,,,,,,,0,,,71,100
79560,note_on,120,0,1,,,,,,,,,,,,,,,0,,,72,0
79680,note_on,0,0,2,,,,,,,,,,,,,,,1,,,57,100
79680,note_on,120,0,2,,,,,,,,,,,,,,,1,,,55,0
79680,note_on,120,0,1,,,,,,,,,,,,,,,0,,,71,0
79680,note_on,0,0,1,,,,,,,,,,,,,,,0,,,69,100
79800,note_on,120,0,1,,,,,,,,,,,,,,,0,,,69,0
79800,note_on,0,0,1,,,,,,,,,,,,,,,0,,,67,100
79920,note_on,120,0,1,,,,,,,,,,,,,,,0,,,67,0
79920,note_on,0,0,1,,,,,,,,,,,,,,,0,,,66,100
79920,note_on,480,0,3,,,,,,,,,,,,,,,2,,,45,100
80160,note_on,480,0,2,,,,,,,,,,,,,,,1,,,57,0
80160,note_on,0,0,2,,,,,,,,,,,,,,,1,,,54,100
80400,note_on,480,0,3,,,,,,,,,,,,,,,2,,,45,0
80400,note_on,0,0,3,,,,,,,,,,,,,,,2,,,46,100
80400,note_on,240,0,2,,,,,,,,,,,,,,,1,,,54,0
80400,note_on,0,0,2,,,,,,,,,,,,,,,1,,,55,100
80400,note_on,0,0,1,,,,,,,,,,,,,,,0,,,76,100
80400,note_on,480,0,1,,,,,,,,,,,,,,,0,,,66,0
80640,note_on,0,0,3,,,,,,,,,,,,,,,2,,,47,100
80640,note_on,0,0,1,,,,,,,,,,,,,,,0,,,75,100
80640,note_on,240,0,1,,,,,,,,,,,,,,,0,,,76,0
80640,note_on,240,0,2,,,,,,,,,,,,,,,1,,,55,0
80640,note_on,240,0,3,,,,,,,,,,,,,,,2,,,46,0
80880,note_on,240,0,3,,,,,,,,,,,,,,,2,,,47,0
80880,note_on,240,0,1,,,,,,,,,,,,,,,0,,,75,0
80880,note_on,0,0,1,,,,,,,,,,,,,,,0,,,78,100
80880,note_on,0,0,3,,,,,,,,,,,,,,,2,,,60,100
80940,note_on,60,0,1,,,,,,,,,,,,,,,0,,,78,0
80940,note_on,0,0,1,,,,,,,,,,,,,,,0,,,76,100
81000,note_on,60,0,1,,,,,,,,,,,,,,,0,,,76,0
81000,note_on,0,0,1,,,,,,,,,,,,,,,0,,,75,100
81000,note_on,120,0,3,,,,,,,,,,,,,,,2,,,60,0
81000,note_on,0,0,3,,,,,,,,,,,,,,,2,,,59,100
81060,note_on,60,0,1,,,,,,,,,,,,,,,0,,,75,0
81060,note_on,0,0,1,,,,,,,,,,,,,,,0,,,76,100
81120,note_on,120,0,3,,,,,,,,,,,,,,,2,,,59,0
81120,note_on,0,0,3,,,,,,,,,,,,,,,2,,,57,100
81120,note_on,60,0,1,,,,,,,,,,,,,,,0,,,76,0
81120,note_on,0,0,1,,,,,,,,,,,,,,,0,,,78,100
81240,note_on,120,0,3,,,,,,,,,,,,,,,2,,,57,0
81240,note_on,0,0,3,,,,,,,,,,,,,,,2,,,55,100
81360,note_on,0,0,3,,,,,,,,,,,,,,,2,,,57,100
81360,note_on,240,0,1,,,,,,,,,,,,,,,0,,,78,0
81360,note_on,0,0,1,,,,,,,,,,,,,,,0,,,71,100
81360,note_on,120,0,3,,,,,,,,,,,,,,,2,,,55,0
81600,note_on,0,0,3,,,,,,,,,,,,,,,2,,,59,100
81600,note_on,240,0,3,,,,,,,,,,,,,,,2,,,57,0
81720,note_on,120,0,3,,,,,,,,,,,,,,,2,,,59,0
81720,note_on,0,0,3,,,,,,,,,,,,,,,2,,,57,100
81840,note_on,120,0,3,,,,,,,,,,,,,,,2,,,57,0
81840,note_on,0,0,3,,,,,,,,,,,,,,,2,,,55,100
81960,note_on,0,0,3,,,,,,,,,,,,,,,2,,,54,100
81960,note_on,120,0,3,,,,,,,,,,,,,,,2,,,55,0
82080,note_on,0,0,3,,,,,,,,,,,,,,,2,,,55,100
82080,note_on,120,0,3,,,,,,,,,,,,,,,2,,,54,0
82320,note_on,0,0,1,,,,,,,,,,,,,,,0,,,75,100
82320,note_on,960,0,1,,,,,,,,,,,,,,,0,,,71,0
82320,note_on,240,0,3,,,,,,,,,,,,,,,2,,,55,0
82320,note_on,0,0,3,,,,,,,,,,,,,,,2,,,57,100
82440,note_on,120,0,3,,,,,,,,,,,,,,,2,,,57,0
82440,note_on,0,0,3,,,,,,,,,,,,,,,2,,,55,100
82560,note_on,120,0,3,,,,,,,,,,,,,,,2,,,55,0
82560,note_on,0,0,3,,,,,,,,,,,,,,,2,,,54,100
82560,note_on,240,0,1,,,,,,,,,,,,,,,0,,,75,0
82560,note_on,0,0,1,,,,,,,,,,,,,,,0,,,76,100
82680,note_on,120,0,3,,,,,,,,,,,,,,,2,,,54,0
82680,note_on,0,0,3,,,,,,,,,,,,,,,2,,,52,100
82800,note_on,120,0,3,,,,,,,,,,,,,,,2,,,52,0
82800,note_on,0,0,3,,,,,,,,,,,,,,,2,,,60,100
82920,note_on,360,0,1,,,,,,,,,,,,,,,0,,,76,0
82920,note_on,0,0,1,,,,,,,,,,,,,,,0,,,74,100
83040,note_on,0,0,3,,,,,,,,,,,,,,,2,,,51,100
83040,note_on,240,0,3,,,,,,,,,,,,,,,2,,,60,0
83040,note_on,120,0,1,,,,,,,,,,,,,,,0,,,74,0
83040,note_on,0,0,1,,,,,,,,,,,,,,,0,,,72,100
83160,note_on,120,0,1,,,,,,,,,,,,,,,0,,,72,0
83160,note_on,0,0,1,,,,,,,,,,,,,,,0,,,71,100
83280,note_on,0,0,3,,,,,,,,,,,,,,,2,,,52,100
83280,note_on,240,0,3,,,,,,,,,,,,,,,2,,,51,0
83280,note_on,0,0,1,,,,,,,,,,,,,,,0,,,72,100
83280,note_on,120,0,1,,,,,,,,,,,,,,,0,,,71,0
83520,note_on,240,0,3,,,,,,,,,,,,,,,2,,,52,0
83520,note_on,0,0,3,,,,,,,,,,,,,,,2,,,47,100
83640,note_on,360,0,1,,,,,,,,,,,,,,,0,,,72,0
83640,note_on,0,0,1,,,,,,,,,,,,,,,0,,,71,100
83760,note_on,120,0,1,,,,,,,,,,,,,,,0,,,71,0
83760,note_on,0,0,1,,,,,,,,,,,,,,,0,,,69,100
83760,note_on,240,0,3,,,,,,,,,,,,,,,2,,,47,0
83760,note_on,0,0,3,,,,,,,,,,,,,,,2,,,52,100
83880,note_on,120,0,1,,,,,,,,,,,,,,,0,,,69,0
83880,note_on,0,0,1,,,,,,,,,,,,,,,0,,,67,100
84000,note_on,240,0,3,,,,,,,,,,,,,,,2,,,52,0
84000,note_on,0,0,1,,,,,,,,,,,,,,,0,,,69,100
84000,note_on,0,0,3,,,,,,,,,,,,,,,2,,,51,100
84000,note_on,120,0,1,,,,,,,,,,,,,,,0,,,67,0
84240,note_on,240,0,3,,,,,,,,,,,,,,,2,,,51,0
84240,note_on,0,0,3,,,,,,,,,,,,,,,2,,,52,100
84300,note_on,60,0,3,,,,,,,,,,,,,,,2,,,52,0
84300,note_on,0,0,3,,,,,,,,,,,,,,,2,,,50,100
84360,note_on,60,0,3,,,,,,,,,,,,,,,2,,,50,0
84360,note_on,0,0,3,,,,,,,,,,,,,,,2,,,52,100
84480,note_on,480,0,1,,,,,,,,,,,,,,,0,,,69,0
84480,note_on,0,0,1,,,,,,,,,,,,,,,0,,,66,100
84720,note_on,0,0,1,,,,,,,,,,,,,,,0,,,67,100
84720,note_on,240,0,1,,,,,,,,,,,,,,,0,,,66,0
84960,note_on,0,0,1,,,,,,,,,,,,,,,0,,,71,100
84960,note_on,240,0,1,,,,,,,,,,,,,,,0,,,67,0
84960,marker,15840,1,0,,,,,,,,,,,,,,,,,,,
85020,note_on,60,0,1,,,,,,,,,,,,,,,0,,,71,0
85020,note_on,0,0,1,,,,,,,,,,,,,,,0,,,69,100
85080,note_on,60,0,1,,,,,,,,,,,,,,,0,,,69,0
85080,note_on,0,0,1,,,,,,,,,,,,,,,0,,,71,100
85200,note_on,840,0,3,,,,,,,,,,,,,,,2,,,52,0
85200,note_on,0,0,3,,,,,,,,,,,,,,,2,,,55,100
85440,note_on,240,0,3,,,,,,,,,,,,,,,2,,,55,0
85440,note_on,0,0,3,,,,,,,,,,,,,,,2,,,59,100
85680,note_on,0,0,3,,,,,,,,,,,,,,,2,,,64,100
85680,note_on,240,0,3,,,,,,,,,,,,,,,2,,,59,0
85920,note_on,0,0,1,,,,,,,,,,,,,,,0,,,72,100
85920,note_on,840,0,1,,,,,,,,,,,,,,,0,,,71,0
86160,note_on,0,0,3,,,,,,,,,,,,,,,2,,,62,100
86160,note_on,480,0,3,,,,,,,,,,,,,,,2,,,64,0
86160,note_on,0,0,1,,,,,,,,,,,,,,,0,,,74,100
86160,note_on,240,0,1,,,,,,,,,,,,,,,0,,,72,0
86400,note_on,240,0,1,,,,,,,,,,,,,,,0,,,74,0
86400,note_on,0,0,1,,,,,,,,,,,,,,,0,,,76,100
86400,note_on,240,0,3,,,,,,,,,,,,,,,2,,,62,0
86400,note_on,0,0,3,,,,,,,,,,,,,,,2,,,60,100
86640,note_on,0,0,1,,,,,,,,,,,,,,,0,,,68,100
86640,note_on,240,0,1,,,,,,,,,,,,,,,0,,,76,0
86880,note_on,240,0,1,,,,,,,,,,,,,,,0,,,68,0
86880,note_on,0,0,1,,,,,,,,,,,,,,,0,,,71,100
87120,note_on,240,0,1,,,,,,,,,,,,,,,0,,,71,0
87120,note_on,0,0,1,,,,,,,,,,,,,,,0,,,69,100
87360,note_on,0,0,3,,,,,,,,,,,,,,,2,,,59,100
87360,note_on,960,0,3,,,,,,,,,,,,,,,2,,,60,0
87600,note_on,240,0,3,,,,,,,,,,,,,,,2,,,59,0
87600,note_on,0,0,3,,,,,,,,,,,,,,,2,,,60,100
87840,note_on,240,0,3,,,,,,,,,,,,,,,2,,,60,0
87840,note_on,0,0,3,,,,,,,,,,,,,,,2,,,54,100
88080,note_on,0,0,3,,,,,,,,,,,,,,,2,,,55,100
88080,note_on,240,0,3,,,,,,,,,,,,,,,2,,,54,0
88080,note_on,0,0,1,,,,,,,,,,,,,,,0,,,71,100
88080,note_on,960,0,1,,,,,,,,,,,,,,,0,,,69,0
88320,note_on,240,0,3,,,,,,,,,,,,,,,2,,,55,0
88320,note_on,0,0,3,,,,,,,,,,,,,,,2,,,57,100
88320,note_on,0,0,1,,,,,,,,,,,,,,,0,,,72,100
88320,note_on,240,0,1,,,,,,,,,,,,,,,0,,,71,0
88560,note_on,0,0,1,,,,,,,,,,,,,,,0,,,74,100
88560,note_on,240,0,1,,,,,,,,,,,,,,,0,,,72,0
88560,note_on,0,0,3,,,,,,,,,,,,,,,2,,,59,100
88560,note_on,240,0,3,,,,,,,,,,,,,,,2,,,57,0
88800,note_on,240,0,1,,,,,,,,,,,,,,,0,,,74,0
88800,note_on,240,0,3,,,,,,,,,,,,,,,2,,,59,0
88800,note_on,0,0,1,,,,,,,,,,,,,,,0,,,66,100
88800,note_on,0,0,3,,,,,,,,,,,,,,,2,,,50,100
89040,note_on,240,0,1,,,,,,,,,,,,,,,0,,,66,0
89040,note_on,0,0,1,,,,,,,,,,,,,,,0,,,69,100
89040,note_on,0,0,3,,,,,,,,,,,,,,,2,,,54,100
89040,note_on,240,0,3,,,,,,,,,,,,,,,2,,,50,0
89280,note_on,0,0,1,,,,,,,,,,,,,,,0,,,62,100
89280,note_on,240,0,3,,,,,,,,,,,,,,,2,,,54,0
89280,note_on,0,0,3,,,,,,,,,,,,,,,2,,,47,100
89280,note_on,8640,0,2,,,,,,,,,,,,,,,1,,,59,100
89280,note_on,240,0,1,,,,,,,,,,,,,,,0,,,69,0
89520,note_on,0,0,3,,,,,,,,,,,,,,,2,,,48,100
89520,note_on,240,0,3,,,,,,,,,,,,,,,2,,,47,0
89760,note_on,480,0,1,,,,,,,,,,,,,,,0,,,62,0
89760,note_on,0,0,1,,,,,,,,,,,,,,,0,,,66,100
89760,note_on,0,0,3,,,,,,,,,,,,,,,2,,,50,100
89760,note_on,240,0,3,,,,,,,,,,,,,,,2,,,48,0
90000,note_on,240,0,1,,,,,,,,,,,,,,,0,,,66,0
90000,note_on,0,0,1,,,,,,,,,,,,,,,0,,,71,100
90000,note_on,240,0,3,,,,,,,,,,,,,,,2,,,50,0
90000,note_on,0,0,3,,,,,,,,,,,,,,,2,,,43,100
90240,note_on,240,0,3,,,,,,,,,,,,,,,2,,,43,0
90240,note_on,960,0,2,,,,,,,,,,,,,,,1,,,59,0
90240,note_on,0,0,2,,,,,,,,,,,,,,,1,,,60,100
90240,note_on,0,0,3,,,,,,,,,,,,,,,2,,,45,100
90480,note_on,240,0,3,,,,,,,,,,,,,,,2,,,45,0
90480,note_on,240,0,2,,,,,,,,,,,,,,,1,,,60,0
90480,note_on,0,0,2,,,,,,,,,,,,,,,1,,,62,100
90480,note_on,0,0,3,,,,,,,,,,,,,,,2,,,47,100
90720,note_on,0,0,3,,,,,,,,,,,,,,,2,,,48,100
90720,note_on,240,0,3,,,,,,,,,,,,,,,2,,,47,0
90720,note_on,240,0,2,,,,,,,,,,,,,,,1,,,62,0
90720,note_on,0,0,2,,,,,,,,,,,,,,,1,,,64,100
90960,note_on,0,0,2,,,,,,,,,,,,,,,1,,,56,100
90960,note_on,240,0,2,,,,,,,,,,,,,,,1,,,64,0
91200,note_on,1200,0,1,,,,,,,,,,,,,,,0,,,71,0
91200,note_on,0,0,1,,,,,,,,,,,,,,,0,,,63,100
91200,note_on,240,0,2,,,,,,,,,,,,,,,1,,,56,0
91200,note_on,0,0,2,,,,,,,,,,,,,,,1,,,59,100
91440,note_on,0,0,1,,,,,,,,,,,,,,,0,,,64,100
91440,note_on,240,0,1,,,,,,,,,,,,,,,0,,,63,0
91440,note_on,240,0,2,,,,,,,,,,,,,,,1,,,59,0
91440,note_on,720,0,3,,,,,,,,,,,,,,,2,,,48,0
91440,note_on,0,0,2,,,,,,,,,,,,,,,1,,,57,100
91440,note_on,0,0,3,,,,,,,,,,,,,,,2,,,48,100
91680,note_on,240,0,1,,,,,,,,,,,,,,,0,,,64,0
91680,note_on,0,0,1,,,,,,,,,,,,,,,0,,,66,100
91920,note_on,240,0,1,,,,,,,,,,,,,,,0,,,66,0
91920,note_on,0,0,1,,,,,,,,,,,,,,,0,,,67,100
92160,note_on,0,0,1,,,,,,,,,,,,,,,0,,,66,100
92160,note_on,240,0,1,,,,,,,,,,,,,,,0,,,67,0
92160,note_on,720,0,3,,,,,,,,,,,,,,,2,,,48,0
92160,note_on,0,0,3,,,,,,,,,,,,,,,2,,,48,100
92400,note_on,0,0,2,,,,,,,,,,,,,,,1,,,59,100
92400,note_on,960,0,2,,,,,,,,,,,,,,,1,,,57,0
92400,note_on,240,0,1,,,,,,,,,,,,,,,0,,,66,0
92400,note_on,0,0,1,,,,,,,,,,,,,,,0,,,67,100
92640,note_on,0,0,2,,,,,,,,,,,,,,,1,,,60,100
92640,note_on,240,0,2,,,,,,,,,,,,,,,1,,,59,0
92640,note_on,240,0,1,,,,,,,,,,,,,,,0,,,67,0
92640,note_on,0,0,1,,,,,,,,,,,,,,,0,,,69,100
92880,note_on,240,0,2,,,,,,,,,,,,,,,1,,,60,0
92880,note_on,0,0,2,,,,,,,,,,,,,,,1,,,62,100
92880,note_on,240,0,1,,,,,,,,,,,,,,,0,,,69,0
92880,note_on,0,0,1,,,,,,,,,,,,,,,0,,,62,100
93120,note_on,0,0,2,,,,,,,,,,,,,,,1,,,54,100
93120,note_on,240,0,2,,,,,,,,,,,,,,,1,,,62,0
93120,note_on,960,0,3,,,,,,,,,,,,,,,2,,,48,0
93120,note_on,0,0,3,,,,,,,,,,,,,,,2,,,50,100
93240,note_on,120,0,3,,,,,,,,,,,,,,,2,,,50,0
93240,note_on,0,0,3,,,,,,,,,,,,,,,2,,,48,100
93360,note_on,0,0,2,,,,,,,,,,,,,,,1,,,57,100
93360,note_on,120,0,3,,,,,,,,,,,,,,,2,,,48,0
93360,note_on,0,0,3,,,,,,,,,,,,,,,2,,,47,100
93360,note_on,240,0,2,,,,,,,,,,,,,,,1,,,54,0
93480,note_on,120,0,3,,,,,,,,,,,,,,,2,,,47,0
93480,note_on,0,0,3,,,,,,,,,,,,,,,2,,,45,100
93600,note_on,240,0,2,,,,,,,,,,,,,,,1,,,57,0
93600,note_on,720,0,1,,,,,,,,,,,,,,,0,,,62,0
93600,note_on,0,0,1,,,,,,,,,,,,,,,0,,,62,100
93600,note_on,120,0,3,,,,,,,,,,,,,,,2,,,45,0
93600,note_on,0,0,2,,,,,,,,,,,,,,,1,,,50,100
93600,note_on,0,0,3,,,,,,,,,,,,,,,2,,,47,100
93840,note_on,240,0,3,,,,,,,,,,,,,,,2,,,47,0
93840,note_on,0,0,3,,,,,,,,,,,,,,,2,,,48,100
94080,note_on,0,0,3,,,,,,,,,,,,,,,2,,,50,100
94080,note_on,480,0,2,,,,,,,,,,,,,,,1,,,50,0
94080,note_on,240,0,3,,,,,,,,,,,,,,,2,,,48,0
94080,note_on,0,0,2,,,,,,,,,,,,,,,1,,,54,100
94320,note_on,240,0,2,,,,,,,,,,,,,,,1,,,54,0
94320,note_on,0,0,2,,,,,,,,,,,,,,,1,,,59,100
94320,note_on,240,0,3,,,,,,,,,,,,,,,2,,,50,0
94320,note_on,0,0,1,,,,,,,,,,,,,,,0,,,62,100
94320,note_on,0,0,3,,,,,,,,,,,,,,,2,,,43,100
94320,note_on,720,0,1,,,,,,,,,,,,,,,0,,,62,0
94560,note_on,240,0,3,,,,,,,,,,,,,,,2,,,43,0
94560,note_on,0,0,3,,,,,,,,,,,,,,,2,,,45,100
94800,note_on,0,0,3,,,,,,,,,,,,,,,2,,,47,100
94800,note_on,240,0,3,,,,,,,,,,,,,,,2,,,45,0
95040,note_on,240,0,3,,,,,,,,,,,,,,,2,,,47,0
95040,note_on,0,0,3,,,,,,,,,,,,,,,2,,,40,100
95280,note_on,240,0,3,,,,,,,,,,,,,,,2,,,40,0
95280,note_on,960,0,1,,,,,,,,,,,,,,,0,,,62,0
95280,note_on,0,0,1,,,,,,,,,,,,,,,0,,,67,100
95520,note_on,240,0,1,,,,,,,,,,,,,,,0,,,67,0
95520,note_on,0,0,2,,,,,,,,,,,,,,,1,,,51,100
95520,note_on,0,0,1,,,,,,,,,,,,,,,0,,,66,100
95520,note_on,1200,0,2,,,,,,,,,,,,,,,1,,,59,0
95760,note_on,240,0,1,,,,,,,,,,,,,,,0,,,66,0
95760,note_on,0,0,1,,,,,,,,,,,,,,,0,,,67,100
95760,note_on,480,0,3,,,,,,,,,,,,,,,2,,,52,100
95760,note_on,0,0,2,,,,,,,,,,,,,,,1,,,52,100
95760,note_on,240,0,2,,,,,,,,,,,,,,,1,,,51,0
96000,note_on,0,0,2,,,,,,,,,,,,,,,1,,,54,100
96000,note_on,240,0,1,,,,,,,,,,,,,,,0,,,67,0
96000,note_on,0,0,1,,,,,,,,,,,,,,,0,,,69,100
96000,note_on,240,0,3,,,,,,,,,,,,,,,2,,,52,0
96000,note_on,240,0,2,,,,,,,,,,,,,,,1,,,52,0
96240,note_on,0,0,2,,,,,,,,,,,,,,,1,,,55,100
96240,note_on,240,0,2,,,,,,,,,,,,,,,1,,,54,0
96240,note_on,0,0,1,,,,,,,,,,,,,,,0,,,71,100
96240,note_on,240,0,1,,,,,,,,,,,,,,,0,,,69,0
96480,note_on,240,0,1,,,,,,,,,,,,,,,0,,,71,0
96480,note_on,240,0,2,,,,,,,,,,,,,,,1,,,55,0
96480,note_on,0,0,1,,,,,,,,,,,,,,,0,,,72,100
96480,note_on,480,0,3,,,,,,,,,,,,,,,2,,,45,100
96480,note_on,0,0,2,,,,,,,,,,,,,,,1,,,54,100
96720,note_on,240,0,3,,,,,,,,,,,,,,,2,,,45,0
96720,note_on,240,0,2,,,,,,,,,,,,,,,1,,,54,0
96720,note_on,0,0,2,,,,,,,,,,,,,,,1,,,55,100
96720,note_on,0,0,1,,,,,,,,,,,,,,,0,,,74,100
96720,note_on,240,0,1,,,,,,,,,,,,,,,0,,,72,0
96840,note_on,0,0,1,,,,,,,,,,,,,,,0,,,72,100
96840,note_on,120,0,1,,,,,,,,,,,,,,,0,,,74,0
96960,note_on,0,0,2,,,,,,,,,,,,,,,1,,,57,100
96960,note_on,0,0,1,,,,,,,,,,,,,,,0,,,71,100
96960,note_on,120,0,1,,,,,,,,,,,,,,,0,,,72,0
96960,note_on,240,0,2,,,,,,,,,,,,,,,1,,,55,0
97080,note_on,0,0,1,,,,,,,,,,,,,,,0,,,69,100
97080,note_on,120,0,1,,,,,,,,,,,,,,,0,,,71,0
97200,note_on,0,0,1,,,,,,,,,,,,,,,0,,,71,100
97200,note_on,120,0,1,,,,,,,,,,,,,,,0,,,69,0
97200,note_on,240,0,2,,,,,,,,,,,,,,,1,,,57,0
97200,note_on,0,0,2,,,,,,,,,,,,,,,1,,,50,100
97200,note_on,480,0,3,,,,,,,,,,,,,,,2,,,43,100
97440,note_on,240,0,3,,,,,,,,,,,,,,,2,,,43,0
97440,note_on,0,0,3,,,,,,,,,,,,,,,2,,,45,100
97440,note_on,240,0,1,,,,,,,,,,,,,,,0,,,71,0
97440,note_on,0,0,1,,,,,,,,,,,,,,,0,,,72,100
97560,note_on,120,0,1,,,,,,,,,,,,,,,0,,,72,0
97560,note_on,0,0,1,,,,,,,,,,,,,,,0,,,71,100
97680,note_on,240,0,3,,,,,,,,,,,,,,,2,,,45,0
97680,note_on,0,0,3,,,,,,,,,,,,,,,2,,,47,100
97680,note_on,120,0,1,,,,,,,,,,,,,,,0,,,71,0
97680,note_on,0,0,1,,,,,,,,,,,,,,,0,,,69,100
97800,note_on,0,0,1,,,,,,,,,,,,,,,0,,,67,100
97800,note_on,120,0,1,,,,,,,,,,,,,,,0,,,69,0
97920,note_on,0,0,1,,,,,,,,,,,,,,,0,,,69,100
97920,note_on,0,0,2,,,,,,,,,,,,,,,1,,,50,100
97920,note_on,720,0,2,,,,,,,,,,,,,,,1,,,50,0
97920,note_on,240,0,3,,,,,,,,,,,,,,,2,,,47,0
97920,note_on,0,0,3,,,,,,,,,,,,,,,2,,,48,100
97920,note_on,120,0,1,,,,,,,,,,,,,,,0,,,67,0
98160,note_on,240,0,1,,,,,,,,,,,,,,,0,,,69,0
98160,note_on,0,0,1,,,,,,,,,,,,,,,0,,,71,100
98160,note_on,240,0,3,,,,,,,,,,,,,,,2,,,48,0
98160,note_on,0,0,3,,,,,,,,,,,,,,,2,,,47,100
98280,note_on,120,0,1,,,,,,,,,,,,,,,0,,,71,0
98280,note_on,0,0,1,,,,,,,,,,,,,,,0,,,69,100
98400,note_on,240,0,3,,,,,,,,,,,,,,,2,,,47,0
98400,note_on,0,0,1,,,,,,,,,,,,,,,0,,,67,100
98400,note_on,0,0,3,,,,,,,,,,,,,,,2,,,45,100
98400,note_on,120,0,1,,,,,,,,,,,,,,,0,,,69,0
98520,note_on,120,0,1,,,,,,,,,,,,,,,0,,,67,0
98520,note_on,0,0,1,,,,,,,,,,,,,,,0,,,66,100
98640,note_on,0,0,2,,,,,,,,,,,,,,,1,,,50,100
98640,note_on,120,0,1,,,,,,,,,,,,,,,0,,,66,0
98640,note_on,0,0,1,,,,,,,,,,,,,,,0,,,67,100
98640,note_on,0,0,3,,,,,,,,,,,,,,,2,,,47,100
98640,note_on,240,0,3,,,,,,,,,,,,,,,2,,,45,0
98640,note_on,720,0,2,,,,,,,,,,,,,,,1,,,50,0
98880,note_on,0,0,1,,,,,,,,,,,,,,,0,,,71,100
98880,note_on,240,0,1,,,,,,,,,,,,,,,0,,,67,0
98880,note_on,240,0,3,,,,,,,,,,,,,,,2,,,47,0
98880,note_on,0,0,3,,,,,,,,,,,,,,,2,,,43,100
99000,note_on,0,0,1,,,,,,,,,,,,,,,0,,,69,100
99000,note_on,120,0,1,,,,,,,,,,,,,,,0,,,71,0
99120,note_on,0,0,1,,,,,,,,,,,,,,,0,,,67,100
99120,note_on,120,0,1,,,,,,,,,,,,,,,0,,,69,0
99120,note_on,0,0,3,,,,,,,,,,,,,,,2,,,45,100
99120,note_on,240,0,3,,,,,,,,,,,,,,,2,,,43,0
99240,note_on,0,0,1,,,,,,,,,,,,,,,0,,,66,100
99240,note_on,120,0,1,,,,,,,,,,,,,,,0,,,67,0
99360,note_on,0,0,3,,,,,,,,,,,,,,,2,,,47,100
99360,note_on,0,0,1,,,,,,,,,,,,,,,0,,,67,100
99360,note_on,120,0,1,,,,,,,,,,,,,,,0,,,66,0
99360,note_on,240,0,3,,,,,,,,,,,,,,,2,,,45,0
99600,note_on,0,0,2,,,,,,,,,,,,,,,1,,,55,100
99600,note_on,960,0,2,,,,,,,,,,,,,,,1,,,50,0
99600,note_on,240,0,1,,,,,,,,,,,,,,,0,,,67,0
99840,note_on,0,0,2,,,,,,,,,,,,,,,1,,,54,100
99840,note_on,240,0,2,,,,,,,,,,,,,,,1,,,55,0
100080,note_on,0,0,2,,,,,,,,,,,,,,,1,,,55,100
100080,note_on,240,0,2,,,,,,,,,,,,,,,1,,,54,0
100080,note_on,480,0,1,,,,,,,,,,,,,,,0,,,62,100
100320,note_on,960,0,3,,,,,,,,,,,,,,,2,,,47,0
100320,note_on,0,0,3,,,,,,,,,,,,,,,2,,,45,100
100320,note_on,240,0,1,,,,,,,,,,,,,,,0,,,62,0
100320,note_on,0,0,2,,,,,,,,,,,,,,,1,,,57,100
100320,note_on,240,0,2,,,,,,,,,,,,,,,1,,,55,0
100560,note_on,0,0,2,,,,,,,,,,,,,,,1,,,59,100
100560,note_on,240,0,3,,,,,,,,,,,,,,,2,,,45,0
100560,note_on,0,0,3,,,,,,,,,,,,,,,2,,,43,100
100560,note_on,240,0,2,,,,,,,,,,,,,,,1,,,57,0
100800,note_on,0,0,2,,,,,,,,,,,,,,,1,,,60,100
100800,note_on,240,0,2,,,,,,,,,,,,,,,1,,,59,0
100800,note_on,480,0,1,,,,,,,,,,,,,,,0,,,66,100
100800,note_on,0,0,3,,,,,,,,,,,,,,,2,,,50,100
100800,note_on,240,0,3,,,,,,,,,,,,,,,2,,,43,0
101040,note_on,0,0,2,,,,,,,,,,,,,,,1,,,62,100
101040,note_on,240,0,2,,,,,,,,,,,,,,,1,,,60,0
101040,note_on,240,0,1,,,,,,,,,,,,,,,0,,,66,0
101160,note_on,120,0,2,,,,,,,,,,,,,,,1,,,62,0
101160,note_on,0,0,2,,,,,,,,,,,,,,,1,,,60,100
101280,note_on,480,0,3,,,,,,,,,,,,,,,2,,,50,0
101280,note_on,0,0,3,,,,,,,,,,,,,,,2,,,38,100
101280,note_on,120,0,2,,,,,,,,,,,,,,,1,,,60,0
101280,note_on,0,0,2,,,,,,,,,,,,,,,1,,,59,100
101400,note_on,120,0,2,,,,,,,,,,,,,,,1,,,59,0
101400,note_on,0,0,2,,,,,,,,,,,,,,,1,,,57,100
101520,note_on,120,0,2,,,,,,,,,,,,,,,1,,,57,0
101520,note_on,0,0,2,,,,,,,,,,,,,,,1,,,59,100
101520,note_on,0,0,3,,,,,,,,,,,,,,,2,,,43,100
101520,note_on,480,0,1,,,,,,,,,,,,,,,0,,,67,100
101520,note_on,240,0,3,,,,,,,,,,,,,,,2,,,38,0
101760,note_on,240,0,1,,,,,,,,,,,,,,,0,,,67,0
101760,note_on,240,0,2,,,,,,,,,,,,,,,1,,,59,0
101760,note_on,0,0,2,,,,,,,,,,,,,,,1,,,60,100
101880,note_on,0,0,2,,,,,,,,,,,,,,,1,,,59,100
101880,note_on,120,0,2,,,,,,,,,,,,,,,1,,,60,0
102000,note_on,0,0,2,,,,,,,,,,,,,,,1,,,57,100
102000,note_on,480,0,3,,,,,,,,,,,,,,,2,,,43,0
102000,note_on,0,0,3,,,,,,,,,,,,,,,2,,,31,100
102000,note_on,120,0,2,,,,,,,,,,,,,,,1,,,59,0
102120,note_on,0,0,2,,,,,,,,,,,,,,,1,,,55,100
102120,note_on,120,0,2,,,,,,,,,,,,,,,1,,,57,0
102240,note_on,480,0,1,,,,,,,,,,,,,,,0,,,60,100
102240,note_on,0,0,2,,,,,,,,,,,,,,,1,,,57,100
102240,note_on,120,0,2,,,,,,,,,,,,,,,1,,,55,0
102240,note_on,0,0,3,,,,,,,,,,,,,,,2,,,31,100
102240,note_on,240,0,3,,,,,,,,,,,,,,,2,,,31,0
102480,note_on,240,0,1,,,,,,,,,,,,,,,0,,,60,0
102480,note_on,240,0,2,,,,,,,,,,,,,,,1,,,57,0
102480,note_on,0,0,2,,,,,,,,,,,,,,,1,,,59,100
102600,note_on,120,0,2,,,,,,,,,,,,,,,1,,,59,0
102600,note_on,0,0,2,,,,,,,,,,,,,,,1,,,57,100
102720,note_on,480,0,3,,,,,,,,,,,,,,,2,,,31,0
102720,note_on,0,0,3,,,,,,,,,,,,,,,2,,,43,100
102720,note_on,120,0,2,,,,,,,,,,,,,,,1,,,57,0
102720,note_on,0,0,2,,,,,,,,,,,,,,,1,,,55,100
102840,note_on,120,0,2,,,,,,,,,,,,,,,1,,,55,0
102840,note_on,0,0,2,,,,,,,,,,,,,,,1,,,54,100
102960,note_on,240,0,3,,,,,,,,,,,,,,,2,,,43,0
102960,note_on,0,0,3,,,,,,,,,,,,,,,2,,,43,100
102960,note_on,0,0,2,,,,,,,,,,,,,,,1,,,55,100
102960,note_on,480,0,1,,,,,,,,,,,,,,,0,,,59,100
102960,note_on,120,0,2,,,,,,,,,,,,,,,1,,,54,0
103680,note_on,720,0,2,,,,,,,,,,,,,,,1,,,55,0
103680,note_on,0,0,2,,,,,,,,,,,,,,,1,,,71,100
103680,marker,18720,1,0,,,,,,,,,,,,,,,,,,,
103680,note_on,720,0,1,,,,,,,,,,,,,,,0,,,59,0
103680,note_on,720,0,3,,,,,,,,,,,,,,,2,,,43,0
103680,note_on,0,0,3,,,,,,,,,,,,,,,2,,,50,100
103800,note_on,120,0,2,,,,,,,,,,,,,,,1,,,71,0
103800,note_on,0,0,2,,,,,,,,,,,,,,,1,,,69,100
103920,note_on,240,0,3,,,,,,,,,,,,,,,2,,,50,0
103920,note_on,0,0,3,,,,,,,,,,,,,,,2,,,54,100
103920,note_on,0,0,2,,,,,,,,,,,,,,,1,,,67,100
103920,note_on,120,0,2,,,,,,,,,,,,,,,1,,,69,0
104040,note_on,0,0,2,,,,,,,,,,,,,,,1,,,69,100
104040,note_on,120,0,2,,,,,,,,,,,,,,,1,,,67,0
104160,note_on,0,0,3,,,,,,,,,,,,,,,2,,,57,100
104160,note_on,240,0,3,,,,,,,,,,,,,,,2,,,54,0
104160,note_on,120,0,2,,,,,,,,,,,,,,,1,,,69,0
104160,note_on,0,0,2,,,,,,,,,,,,,,,1,,,71,100
104220,note_on,60,0,2,,,,,,,,,,,,,,,1,,,71,0
104220,note_on,0,0,2,,,,,,,,,,,,,,,1,,,69,100
104280,note_on,60,0,2,,,,,,,,,,,,,,,1,,,69,0
104280,note_on,0,0,2,,,,,,,,,,,,,,,1,,,71,100
104340,note_on,0,0,2,,,,,,,,,,,,,,,1,,,69,100
104340,note_on,60,0,2,,,,,,,,,,,,,,,1,,,71,0
104400,note_on,0,0,2,,,,,,,,,,,,,,,1,,,71,100
104400,note_on,0,0,3,,,,,,,,,,,,,,,2,,,62,100
104400,note_on,240,0,3,,,,,,,,,,,,,,,2,,,57,0
104400,note_on,60,0,2,,,,,,,,,,,,,,,1,,,69,0
104460,note_on,60,0,2,,,,,,,,,,,,,,,1,,,71,0
104460,note_on,0,0,2,,,,,,,,,,,,,,,1,,,69,100
104520,note_on,0,0,2,,,,,,,,,,,,,,,1,,,71,100
104520,note_on,60,0,2,,,,,,,,,,,,,,,1,,,69,0
104580,note_on,60,0,2,,,,,,,,,,,,,,,1,,,71,0
104580,note_on,0,0,2,,,,,,,,,,,,,,,1,,,69,100
104640,note_on,0,0,2,,,,,,,,,,,,,,,1,,,71,100
104640,note_on,60,0,2,,,,,,,,,,,,,,,1,,,69,0
104640,note_on,240,0,3,,,,,,,,,,,,,,,2,,,62,0
104640,note_on,0,0,3,,,,,,,,,,,,,,,2,,,64,100
104700,note_on,0,0,2,,,,,,,,,,,,,,,1,,,69,100
104700,note_on,60,0,2,,,,,,,,,,,,,,,1,,,71,0
104760,note_on,0,0,2,,,,,,,,,,,,,,,1,,,71,100
104760,note_on,60,0,2,,,,,,,,,,,,,,,1,,,69,0
104760,note_on,0,0,3,,,,,,,,,,,,,,,2,,,62,100
104760,note_on,120,0,3,,,,,,,,,,,,,,,2,,,64,0
104820,note_on,0,0,2,,,,,,,,,,,,,,,1,,,69,100
104820,note_on,60,0,2,,,,,,,,,,,,,,,1,,,71,0
104880,note_on,60,0,2,,,,,,,,,,,,,,,1,,,69,0
104880,note_on,0,0,2,,,,,,,,,,,,,,,1,,,71,100
104880,note_on,120,0,3,,,,,,,,,,,,,,,2,,,62,0
104880,note_on,0,0,3,,,,,,,,,,,,,,,2,,,60,100
104940,note_on,60,0,2,,,,,,,,,,,,,,,1,,,71,0
104940,note_on,0,0,2,,,,,,,,,,,,,,,1,,,69,100
105000,note_on,60,0,2,,,,,,,,,,,,,,,1,,,69,0
105000,note_on,0,0,2,,,,,,,,,,,,,,,1,,,71,100
105000,note_on,0,0,3,,,,,,,,,,,,,,,2,,,59,100
105000,note_on,120,0,3,,,,,,,,,,,,,,,2,,,60,0
105060,note_on,60,0,2,,,,,,,,,,,,,,,1,,,71,0
105060,note_on,0,0,2,,,,,,,,,,,,,,,1,,,69,100
105120,note_on,0,0,3,,,,,,,,,,,,,,,2,,,60,100
105120,note_on,120,0,3,,,,,,,,,,,,,,,2,,,59,0
105120,note_on,60,0,2,,,,,,,,,,,,,,,1,,,69,0
105120,note_on,0,0,2,,,,,,,,,,,,,,,1,,,71,100
105180,note_on,60,0,2,,,,,,,,,,,,,,,1,,,71,0
105180,note_on,0,0,2,,,,,,,,,,,,,,,1,,,69,100
105240,note_on,0,0,2,,,,,,,,,,,,,,,1,,,71,100
105240,note_on,60,0,2,,,,,,,,,,,,,,,1,,,69,0
105300,note_on,60,0,2,,,,,,,,,,,,,,,1,,,71,0
105300,note_on,0,0,2,,,,,,,,,,,,,,,1,,,69,100
105360,note_on,60,0,2,,,,,,,,,,,,,,,1,,,69,0
105360,note_on,0,0,2,,,,,,,,,,,,,,,1,,,71,100
105360,note_on,240,0,3,,,,,,,,,,,,,,,2,,,60,0
105360,note_on,0,0,3,,,,,,,,,,,,,,,2,,,62,100
105420,note_on,60,0,2,,,,,,,,,,,,,,,1,,,71,0
105420,note_on,0,0,2,,,,,,,,,,,,,,,1,,,69,100
105480,note_on,0,0,3,,,,,,,,,,,,,,,2,,,60,100
105480,note_on,60,0,2,,,,,,,,,,,,,,,1,,,69,0
105480,note_on,0,0,2,,,,,,,,,,,,,,,1,,,71,100
105480,note_on,120,0,3,,,,,,,,,,,,,,,2,,,62,0
105540,note_on,0,0,2,,,,,,,,,,,,,,,1,,,69,100
105540,note_on,60,0,2,,,,,,,,,,,,,,,1,,,71,0
105600,note_on,0,0,2,,,,,,,,,,,,,,,1,,,71,100
105600,note_on,60,0,2,,,,,,,,,,,,,,,1,,,69,0
105600,note_on,120,0,3,,,,,,,,,,,,,,,2,,,60,0
105600,note_on,0,0,3,,,,,,,,,,,,,,,2,,,59,100
105660,note_on,0,0,2,,,,,,,,,,,,,,,1,,,69,100
105660,note_on,60,0,2,,,,,,,,,,,,,,,1,,,71,0
105720,note_on,0,0,2,,,,,,,,,,,,,,,1,,,71,100
105720,note_on,60,0,2,,,,,,,,,,,,,,,1,,,69,0
105720,note_on,0,0,3,,,,,,,,,,,,,,,2,,,57,100
105720,note_on,120,0,3,,,,,,,,,,,,,,,2,,,59,0
105780,note_on,0,0,2,,,,,,,,,,,,,,,1,,,69,100
105780,note_on,60,0,2,,,,,,,,,,,,,,,1,,,71,0
105840,note_on,60,0,2,,,,,,,,,,,,,,,1,,,69,0
105840,note_on,0,0,3,,,,,,,,,,,,,,,2,,,59,100
105840,note_on,120,0,3,,,,,,,,,,,,,,,2,,,57,0
105840,note_on,0,0,2,,,,,,,,,,,,,,,1,,,71,100
105960,note_on,120,0,2,,,,,,,,,,,,,,,1,,,71,0
105960,note_on,0,0,2,,,,,,,,,,,,,,,1,,,69,100
106080,note_on,120,0,2,,,,,,,,,,,,,,,1,,,69,0
106080,note_on,0,0,2,,,,,,,,,,,,,,,1,,,67,100
106320,note_on,0,0,2,,,,,,,,,,,,,,,1,,,66,100
106320,note_on,240,0,2,,,,,,,,,,,,,,,1,,,67,0
106560,note_on,240,0,2,,,,,,,,,,,,,,,1,,,66,0
106560,note_on,0,0,2,,,,,,,,,,,,,,,1,,,67,100
106800,note_on,240,0,2,,,,,,,,,,,,,,,1,,,67,0
106800,note_on,960,0,3,,,,,,,,,,,,,,,2,,,59,0
106800,note_on,0,0,3,,,,,,,,,,,,,,,2,,,60,100
106800,note_on,0,0,2,,,,,,,,,,,,,,,1,,,71,100
107040,note_on,240,0,3,,,,,,,,,,,,,,,2,,,60,0
107040,note_on,0,0,3,,,,,,,,,,,,,,,2,,,62,100
107040,note_on,240,0,2,,,,,,,,,,,,,,,1,,,71,0
107040,note_on,0,0,2,,,,,,,,,,,,,,,1,,,69,100
107280,note_on,0,0,3,,,,,,,,,,,,,,,2,,,55,100
107280,note_on,240,0,2,,,,,,,,,,,,,,,1,,,69,0
107280,note_on,0,0,2,,,,,,,,,,,,,,,1,,,71,100
107280,note_on,240,0,3,,,,,,,,,,,,,,,2,,,62,0
107520,note_on,0,0,3,,,,,,,,,,,,,,,2,,,57,100
107520,note_on,240,0,3,,,,,,,,,,,,,,,2,,,55,0
107760,note_on,0,0,2,,,,,,,,,,,,,,,1,,,63,100
107760,note_on,480,0,2,,,,,,,,,,,,,,,1,,,71,0
107760,note_on,0,0,3,,,,,,,,,,,,,,,2,,,59,100
107760,note_on,240,0,3,,,,,,,,,,,,,,,2,,,57,0
108000,note_on,240,0,2,,,,,,,,,,,,,,,1,,,63,0
108000,note_on,4320,0,1,,,,,,,,,,,,,,,0,,,83,100
108000,note_on,0,0,2,,,,,,,,,,,,,,,1,,,64,100
108000,note_on,240,0,3,,,,,,,,,,,,,,,2,,,59,0
108000,note_on,0,0,3,,,,,,,,,,,,,,,2,,,60,100
108120,note_on,0,0,1,,,,,,,,,,,,,,,0,,,81,100
108120,note_on,120,0,1,,,,,,,,,,,,,,,0,,,83,0
108240,note_on,240,0,2,,,,,,,,,,,,,,,1,,,64,0
108240,note_on,0,0,2,,,,,,,,,,,,,,,1,,,67,100
108240,note_on,0,0,1,,,,,,,,,,,,,,,0,,,79,100
108240,note_on,120,0,1,,,,,,,,,,,,,,,0,,,81,0
108240,note_on,240,0,3,,,,,,,,,,,,,,,2,,,60,0
108360,note_on,0,0,1,,,,,,,,,,,,,,,0,,,81,100
108360,note_on,120,0,1,,,,,,,,,,,,,,,0,,,79,0
108360,note_on,120,0,2,,,,,,,,,,,,,,,1,,,67,0
108360,note_on,0,0,2,,,,,,,,,,,,,,,1,,,66,100
108480,note_on,0,0,1,,,,,,,,,,,,,,,0,,,83,100
108480,note_on,120,0,2,,,,,,,,,,,,,,,1,,,66,0
108480,note_on,0,0,2,,,,,,,,,,,,,,,1,,,64,100
108480,note_on,120,0,1,,,,,,,,,,,,,,,0,,,81,0
108540,note_on,60,0,1,,,,,,,,,,,,,,,0,,,83,0
108540,note_on,0,0,1,,,,,,,,,,,,,,,0,,,81,100
108600,note_on,0,0,2,,,,,,,,,,,,,,,1,,,62,100
108600,note_on,60,0,1,,,,,,,,,,,,,,,0,,,81,0
108600,note_on,120,0,2,,,,,,,,,,,,,,,1,,,64,0
108600,note_on,0,0,1,,,,,,,,,,,,,,,0,,,83,100
108660,note_on,60,0,1,,,,,,,,,,,,,,,0,,,83,0
108660,note_on,0,0,1,,,,,,,,,,,,,,,0,,,81,100
108720,note_on,60,0,1,,,,,,,,,,,,,,,0,,,81,0
108720,note_on,0,0,1,,,,,,,,,,,,,,,0,,,83,100
108720,note_on,0,0,2,,,,,,,,,,,,,,,1,,,60,100
108720,note_on,120,0,2,,,,,,,,,,,,,,,1,,,62,0
108720,note_on,480,0,3,,,,,,,,,,,,,,,2,,,57,100
108780,note_on,60,0,1,,,,,,,,,,,,,,,0,,,83,0
108780,note_on,0,0,1,,,,,,,,,,,,,,,0,,,81,100
108840,note_on,60,0,1,,,,,,,,,,,,,,,0,,,81,0
108840,note_on,0,0,1,,,,,,,,,,,,,,,0,,,83,100
108900,note_on,0,0,1,,,,,,,,,,,,,,,0,,,81,100
108900,note_on,60,0,1,,,,,,,,,,,,,,,0,,,83,0
108960,note_on,0,0,2,,,,,,,,,,,,,,,1,,,64,100
108960,note_on,240,0,3,,,,,,,,,,,,,,,2,,,57,0
108960,note_on,60,0,1,,,,,,,,,,,,,,,0,,,81,0
108960,note_on,0,0,1,,,,,,,,,,,,,,,0,,,83,100
108960,note_on,240,0,2,,,,,,,,,,,,,,,1,,,60,0
109020,note_on,0,0,1,,,,,,,,,,,,,,,0,,,81,100
109020,note_on,60,0,1,,,,,,,,,,,,,,,0,,,83,0
109080,note_on,0,0,2,,,,,,,,,,,,,,,1,,,62,100
109080,note_on,120,0,2,,,,,,,,,,,,,,,1,,,64,0
109080,note_on,0,0,1,,,,,,,,,,,,,,,0,,,83,100
109080,note_on,60,0,1,,,,,,,,,,,,,,,0,,,81,0
109140,note_on,60,0,1,,,,,,,,,,,,,,,0,,,83,0
109140,note_on,0,0,1,,,,,,,,,,,,,,,0,,,81,100
109200,note_on,60,0,1,,,,,,,,,,,,,,,0,,,81,0
109200,note_on,0,0,1,,,,,,,,,,,,,,,0,,,83,100
109200,note_on,120,0,2,,,,,,,,,,,,,,,1,,,62,0
109200,note_on,0,0,2,,,,,,,,,,,,,,,1,,,60,100
109260,note_on,0,0,1,,,,,,,,,,,,,,,0,,,81,100
109260,note_on,60,0,1,,,,,,,,,,,,,,,0,,,83,0
109320,note_on,120,0,2,,,,,,,,,,,,,,,1,,,60,0
109320,note_on,0,0,2,,,,,,,,,,,,,,,1,,,59,100
109320,note_on,60,0,1,,,,,,,,,,,,,,,0,,,81,0
109320,note_on,0,0,1,,,,,,,,,,,,,,,0,,,83,100
109380,note_on,60,0,1,,,,,,,,,,,,,,,0,,,83,0
109380,note_on,0,0,1,,,,,,,,,,,,,,,0,,,81,100
109440,note_on,60,0,1,,,,,,,,,,,,,,,0,,,81,0
109440,note_on,480,0,3,,,,,,,,,,,,,,,2,,,54,100
109440,note_on,0,0,1,,,,,,,,,,,,,,,0,,,83,100
109440,note_on,120,0,2,,,,,,,,,,,,,,,1,,,59,0
109440,note_on,0,0,2,,,,,,,,,,,,,,,1,,,57,100
109500,note_on,60,0,1,,,,,,,,,,,,,,,0,,,83,0
109500,note_on,0,0,1,,,,,,,,,,,,,,,0,,,81,100
109560,note_on,60,0,1,,,,,,,,,,,,,,,0,,,81,0
109560,note_on,0,0,1,,,,,,,,,,,,,,,0,,,83,100
109620,note_on,0,0,1,,,,,,,,,,,,,,,0,,,81,100
109620,note_on,60,0,1,,,,,,,,,,,,,,,0,,,83,0
109680,note_on,0,0,1,,,,,,,,,,,,,,,0,,,83,100
109680,note_on,60,0,1,,,,,,,,,,,,,,,0,,,81,0
109680,note_on,240,0,3,,,,,,,,,,,,,,,2,,,54,0
109680,note_on,0,0,2,,,,,,,,,,,,,,,1,,,60,100
109680,note_on,240,0,2,,,,,,,,,,,,,,,1,,,57,0
109740,note_on,60,0,1,,,,,,,,,,,,,,,0,,,83,0
109740,note_on,0,0,1,,,,,,,,,,,,,,,0,,,81,100
109800,note_on,120,0,2,,,,,,,,,,,,,,,1,,,60,0
109800,note_on,60,0,1,,,,,,,,,,,,,,,0,,,81,0
109800,note_on,0,0,1,,,,,,,,,,,,,,,0,,,83,100
109800,note_on,0,0,2,,,,,,,,,,,,,,,1,,,59,100
109860,note_on,0,0,1,,,,,,,,,,,,,,,0,,,81,100
109860,note_on,60,0,1,,,,,,,,,,,,,,,0,,,83,0
109920,note_on,120,0,2,,,,,,,,,,,,,,,1,,,59,0
109920,note_on,0,0,2,,,,,,,,,,,,,,,1,,,57,100
109920,note_on,0,0,1,,,,,,,,,,,,,,,0,,,83,100
109920,note_on,60,0,1,,,,,,,,,,,,,,,0,,,81,0
109980,note_on,0,0,1,,,,,,,,,,,,,,,0,,,81,100
109980,note_on,60,0,1,,,,,,,,,,,,,,,0,,,83,0
110040,note_on,120,0,2,,,,,,,,,,,,,,,1,,,57,0
110040,note_on,0,0,1,,,,,,,,,,,,,,,0,,,83,100
110040,note_on,60,0,1,,,,,,,,,,,,,,,0,,,81,0
110040,note_on,0,0,2,,,,,,,,,,,,,,,1,,,55,100
110100,note_on,0,0,1,,,,,,,,,,,,,,,0,,,81,100
110100,note_on,60,0,1,,,,,,,,,,,,,,,0,,,83,0
110160,note_on,60,0,1,,,,,,,,,,,,,,,0,,,81,0
110160,note_on,0,0,1,,,,,,,,,,,,,,,0,,,83,100
110160,note_on,480,0,3,,,,,,,,,,,,,,,2,,,51,100
110160,note_on,120,0,2,,,,,,,,,,,,,,,1,,,55,0
110160,note_on,0,0,2,,,,,,,,,,,,,,,1,,,54,100
110280,note_on,120,0,1,,,,,,,,,,,,,,,0,,,83,0
110280,note_on,0,0,1,,,,,,,,,,,,,,,0,,,81,100
110400,note_on,0,0,1,,,,,,,,,,,,,,,0,,,79,100
110400,note_on,120,0,1,,,,,,,,,,,,,,,0,,,81,0
110640,note_on,0,0,1,,,,,,,,,,,,,,,0,,,78,100
110640,note_on,240,0,1,,,,,,,,,,,,,,,0,,,79,0
110640,note_on,0,0,2,,,,,,,,,,,,,,,1,,,64,100
110640,note_on,0,0,3,,,,,,,,,,,,,,,2,,,54,100
110640,note_on,480,0,3,,,,,,,,,,,,,,,2,,,51,0
110640,note_on,480,0,2,,,,,,,,,,,,,,,1,,,54,0
110880,note_on,240,0,1,,,,,,,,,,,,,,,0,,,78,0
110880,note_on,240,0,2,,,,,,,,,,,,,,,1,,,64,0
110880,note_on,0,0,2,,,,,,,,,,,,,,,1,,,63,100
110880,note_on,0,0,3,,,,,,,,,,,,,,,2,,,59,100
110880,note_on,240,0,3,,,,,,,,,,,,,,,2,,,54,0
110880,note_on,0,0,1,,,,,,,,,,,,,,,0,,,79,100
111120,note_on,0,0,1,,,,,,,,,,,,,,,0,,,83,100
111120,note_on,240,0,2,,,,,,,,,,,,,,,1,,,63,0
111120,note_on,0,0,2,,,,,,,,,,,,,,,1,,,66,100
111120,note_on,240,0,1,,,,,,,,,,,,,,,0,,,79,0
111180,note_on,0,0,2,,,,,,,,,,,,,,,1,,,64,100
111180,note_on,60,0,2,,,,,,,,,,,,,,,1,,,66,0
111240,note_on,0,0,2,,,,,,,,,,,,,,,1,,,63,100
111240,note_on,60,0,2,,,,,,,,,,,,,,,1,,,64,0
111300,note_on,0,0,2,,,,,,,,,,,,,,,1,,,64,100
111300,note_on,60,0,2,,,,,,,,,,,,,,,1,,,63,0
111360,note_on,240,0,1,,,,,,,,,,,,,,,0,,,83,0
111360,note_on,0,0,1,,,,,,,,,,,,,,,0,,,81,100
111360,note_on,0,0,2,,,,,,,,,,,,,,,1,,,66,100
111360,note_on,60,0,2,,,,,,,,,,,,,,,1,,,64,0
111600,note_on,240,0,2,,,,,,,,,,,,,,,1,,,66,0
111600,note_on,0,0,2,,,,,,,,,,,,,,,1,,,59,100
111600,note_on,0,0,1,,,,,,,,,,,,,,,0,,,83,100
111600,note_on,240,0,1,,,,,,,,,,,,,,,0,,,81,0
111840,note_on,0,0,3,,,,,,,,,,,,,,,2,,,55,100
111840,note_on,960,0,3,,,,,,,,,,,,,,,2,,,59,0
112080,note_on,0,0,3,,,,,,,,,,,,,,,2,,,57,100
112080,note_on,240,0,3,,,,,,,,,,,,,,,2,,,55,0
112080,note_on,0,0,1,,,,,,,,,,,,,,,0,,,75,100
112080,note_on,480,0,1,,,,,,,,,,,,,,,0,,,83,0
112320,note_on,0,0,3,,,,,,,,,,,,,,,2,,,55,100
112320,note_on,240,0,3,,,,,,,,,,,,,,,2,,,57,0
112320,note_on,0,0,1,,,,,,,,,,,,,,,0,,,76,100
112320,note_on,240,0,1,,,,,,,,,,,,,,,0,,,75,0
112560,note_on,0,0,1,,,,,,,,,,,,,,,0,,,79,100
112560,note_on,240,0,1,,,,,,,,,,,,,,,0,,,76,0
112560,note_on,240,0,3,,,,,,,,,,,,,,,2,,,55,0
112560,note_on,960,0,2,,,,,,,,,,,,,,,1,,,59,0
112560,note_on,0,0,2,,,,,,,,,,,,,,,1,,,63,100
112680,note_on,0,0,1,,,,,,,,,,,,,,,0,,,78,100
112680,note_on,120,0,1,,,,,,,,,,,,,,,0,,,79,0
112800,note_on,240,0,2,,,,,,,,,,,,,,,1,,,63,0
112800,note_on,0,0,2,,,,,,,,,,,,,,,1,,,64,100
112800,note_on,0,0,1,,,,,,,,,,,,,,,0,,,76,100
112800,note_on,120,0,1,,,,,,,,,,,,,,,0,,,78,0
112920,note_on,0,0,1,,,,,,,,,,,,,,,0,,,74,100
112920,note_on,120,0,1,,,,,,,,,,,,,,,0,,,76,0
113040,note_on,120,0,1,,,,,,,,,,,,,,,0,,,74,0
113040,note_on,0,0,1,,,,,,,,,,,,,,,0,,,72,100
113040,note_on,480,0,3,,,,,,,,,,,,,,,2,,,52,100
113160,note_on,360,0,2,,,,,,,,,,,,,,,1,,,64,0
113160,note_on,0,0,2,,,,,,,,,,,,,,,1,,,62,100
113280,note_on,0,0,1,,,,,,,,,,,,,,,0,,,76,100
113280,note_on,240,0,1,,,,,,,,,,,,,,,0,,,72,0
113280,note_on,240,0,3,,,,,,,,,,,,,,,2,,,52,0
113280,note_on,120,0,2,,,,,,,,,,,,,,,1,,,62,0
113280,note_on,0,0,2,,,,,,,,,,,,,,,1,,,60,100
113400,note_on,0,0,1,,,,,,,,,,,,,,,0,,,74,100
113400,note_on,120,0,1,,,,,,,,,,,,,,,0,,,76,0
113400,note_on,120,0,2,,,,,,,,,,,,,,,1,,,60,0
113400,note_on,0,0,2,,,,,,,,,,,,,,,1,,,59,100
113520,note_on,120,0,1,,,,,,,,,,,,,,,0,,,74,0
113520,note_on,0,0,1,,,,,,,,,,,,,,,0,,,72,100
113520,note_on,120,0,2,,,,,,,,,,,,,,,1,,,59,0
113520,note_on,0,0,2,,,,,,,,,,,,,,,1,,,60,100
113640,note_on,0,0,1,,,,,,,,,,,,,,,0,,,71,100
113640,note_on,120,0,1,,,,,,,,,,,,,,,0,,,72,0
113760,note_on,120,0,1,,,,,,,,,,,,,,,0,,,71,0
113760,note_on,480,0,3,,,,,,,,,,,,,,,2,,,48,100
113760,note_on,0,0,1,,,,,,,,,,,,,,,0,,,69,100
113880,note_on,0,0,2,,,,,,,,,,,,,,,1,,,59,100
113880,note_on,360,0,2,,,,,,,,,,,,,,,1,,,60,0
114000,note_on,120,0,2,,,,,,,,,,,,,,,1,,,59,0
114000,note_on,240,0,3,,,,,,,,,,,,,,,2,,,48,0
114000,note_on,240,0,1,,,,,,,,,,,,,,,0,,,69,0
114000,note_on,0,0,2,,,,,,,,,,,,,,,1,,,57,100
114000,note_on,0,0,1,,,,,,,,,,,,,,,0,,,72,100
114120,note_on,120,0,1,,,,,,,,,,,,,,,0,,,72,0
114120,note_on,0,0,2,,,,,,,,,,,,,,,1,,,55,100
114120,note_on,0,0,1,,,,,,,,,,,,,,,0,,,71,100
114120,note_on,120,0,2,,,,,,,,,,,,,,,1,,,57,0
114240,note_on,120,0,1,,,,,,,,,,,,,,,0,,,71,0
114240,note_on,0,0,1,,,,,,,,,,,,,,,0,,,69,100
114240,note_on,0,0,2,,,,,,,,,,,,,,,1,,,57,100
114240,note_on,120,0,2,,,,,,,,,,,,,,,1,,,55,0
114360,note_on,120,0,1,,,,,,,,,,,,,,,0,,,69,0
114360,note_on,0,0,1,,,,,,,,,,,,,,,0,,,67,100
114480,note_on,480,0,3,,,,,,,,,,,,,,,2,,,45,100
114480,note_on,120,0,1,,,,,,,,,,,,,,,0,,,67,0
114480,note_on,0,0,1,,,,,,,,,,,,,,,0,,,66,100
114720,note_on,480,0,2,,,,,,,,,,,,,,,1,,,57,0
114720,note_on,0,0,2,,,,,,,,,,,,,,,1,,,54,100
114960,note_on,240,0,2,,,,,,,,,,,,,,,1,,,54,0
114960,note_on,480,0,1,,,,,,,,,,,,,,,0,,,66,0
114960,note_on,0,0,1,,,,,,,,,,,,,,,0,,,76,100
114960,note_on,0,0,2,,,,,,,,,,,,,,,1,,,55,100
114960,note_on,0,0,3,,,,,,,,,,,,,,,2,,,46,100
114960,note_on,480,0,3,,,,,,,,,,,,,,,2,,,45,0
115200,note_on,240,0,1,,,,,,,,,,,,,,,0,,,76,0
115200,note_on,0,0,1,,,,,,,,,,,,,,,0,,,75,100
115200,note_on,0,0,3,,,,,,,,,,,,,,,2,,,47,100
115200,note_on,240,0,3,,,,,,,,,,,,,,,2,,,46,0
115200,note_on,240,0,2,,,,,,,,,,,,,,,1,,,55,0
115440,note_on,240,0,3,,,,,,,,,,,,,,,2,,,47,0
115440,note_on,0,0,1,,,,,,,,,,,,,,,0,,,78,100
115440,note_on,240,0,1,,,,,,,,,,,,,,,0,,,75,0
115440,note_on,0,0,3,,,,,,,,,,,,,,,2,,,60,100
115500,note_on,0,0,1,,,,,,,,,,,,,,,0,,,76,100
115500,note_on,60,0,1,,,,,,,,,,,,,,,0,,,78,0
115560,note_on,60,0,1,,,,,,,,,,,,,,,0,,,76,0
115560,note_on,120,0,3,,,,,,,,,,,,,,,2,,,60,0
115560,note_on,0,0,3,,,,,,,,,,,,,,,2,,,59,100
115560,note_on,0,0,1,,,,,,,,,,,,,,,0,,,75,100
115620,note_on,60,0,1,,,,,,,,,,,,,,,0,,,75,0
115620,note_on,0,0,1,,,,,,,,,,,,,,,0,,,76,100
115680,note_on,60,0,1,,,,,,,,,,,,,,,0,,,76,0
115680,note_on,0,0,1,,,,,,,,,,,,,,,0,,,78,100
115680,note_on,0,0,3,,,,,,,,,,,,,,,2,,,57,100
115680,note_on,120,0,3,,,,,,,,,,,,,,,2,,,59,0
115800,note_on,0,0,3,,,,,,,,,,,,,,,2,,,55,100
115800,note_on,120,0,3,,,,,,,,,,,,,,,2,,,57,0
115920,note_on,120,0,3,,,,,,,,,,,,,,,2,,,55,0
115920,note_on,0,0,3,,,,,,,,,,,,,,,2,,,57,100
115920,note_on,0,0,1,,,,,,,,,,,,,,,0,,,71,100
115920,note_on,240,0,1,,,,,,,,,,,,,,,0,,,78,0
116160,note_on,240,0,3,,,,,,,,,,,,,,,2,,,57,0
116160,note_on,0,0,3,,,,,,,,,,,,,,,2,,,59,100
116280,note_on,120,0,3,,,,,,,,,,,,,,,2,,,59,0
116280,note_on,0,0,3,,,,,,,,,,,,,,,2,,,57,100
116400,note_on,0,0,3,,,,,,,,,,,,,,,2,,,55,100
116400,note_on,120,0,3,,,,,,,,,,,,,,,2,,,57,0
116520,note_on,120,0,3,,,,,,,,,,,,,,,2,,,55,0
116520,note_on,0,0,3,,,,,,,,,,,,,,,2,,,54,100
116640,note_on,0,0,3,,,,,,,,,,,,,,,2,,,55,100
116640,note_on,120,0,3,,,,,,,,,,,,,,,2,,,54,0
116880,note_on,240,0,3,,,,,,,,,,,,,,,2,,,55,0
116880,note_on,960,0,1,,,,,,,,,,,,,,,0,,,71,0
116880,note_on,0,0,3,,,,,,,,,,,,,,,2,,,57,100
116880,note_on,0,0,1,,,,,,,,,,,,,,,0,,,75,100
117000,note_on,0,0,3,,,,,,,,,,,,,,,2,,,55,100
117000,note_on,120,0,3,,,,,,,,,,,,,,,2,,,57,0
117120,note_on,0,0,1,,,,,,,,,,,,,,,0,,,76,100
117120,note_on,120,0,3,,,,,,,,,,,,,,,2,,,55,0
117120,note_on,0,0,3,,,,,,,,,,,,,,,2,,,54,100
117120,note_on,240,0,1,,,,,,,,,,,,,,,0,,,75,0
117240,note_on,0,0,3,,,,,,,,,,,,,,,2,,,52,100
117240,note_on,120,0,3,,,,,,,,,,,,,,,2,,,54,0
117360,note_on,120,0,3,,,,,,,,,,,,,,,2,,,52,0
117360,note_on,0,0,3,,,,,,,,,,,,,,,2,,,60,100
117480,note_on,0,0,1,,,,,,,,,,,,,,,0,,,74,100
117480,note_on,360,0,1,,,,,,,,,,,,,,,0,,,76,0
117600,note_on,120,0,1,,,,,,,,,,,,,,,0,,,74,0
117600,note_on,240,0,3,,,,,,,,,,,,,,,2,,,60,0
117600,note_on,0,0,3,,,,,,,,,,,,,,,2,,,51,100
117600,note_on,0,0,1,,,,,,,,,,,,,,,0,,,72,100
117720,note_on,120,0,1,,,,,,,,,,,,,,,0,,,72,0
117720,note_on,0,0,1,,,,,,,,,,,,,,,0,,,71,100
117840,note_on,240,0,3,,,,,,,,,,,,,,,2,,,51,0
117840,note_on,0,0,3,,,,,,,,,,,,,,,2,,,52,100
117840,note_on,0,0,1,,,,,,,,,,,,,,,0,,,72,100
117840,note_on,120,0,1,,,,,,,,,,,,,,,0,,,71,0
118080,note_on,240,0,3,,,,,,,,,,,,,,,2,,,52,0
118080,note_on,0,0,3,,,,,,,,,,,,,,,2,,,47,100
118200,note_on,360,0,1,,,,,,,,,,,,,,,0,,,72,0
118200,note_on,0,0,1,,,,,,,,,,,,,,,0,,,71,100
118320,note_on,0,0,3,,,,,,,,,,,,,,,2,,,52,100
118320,note_on,240,0,3,,,,,,,,,,,,,,,2,,,47,0
118320,note_on,120,0,1,,,,,,,,,,,,,,,0,,,71,0
118320,note_on,0,0,1,,,,,,,,,,,,,,,0,,,69,100
118440,note_on,120,0,1,,,,,,,,,,,,,,,0,,,69,0
118440,note_on,0,0,1,,,,,,,,,,,,,,,0,,,67,100
118560,note_on,0,0,3,,,,,,,,,,,,,,,2,,,51,100
118560,note_on,240,0,3,,,,,,,,,,,,,,,2,,,52,0
118560,note_on,0,0,1,,,,,,,,,,,,,,,0,,,69,100
118560,note_on,120,0,1,,,,,,,,,,,,,,,0,,,67,0
118800,note_on,0,0,3,,,,,,,,,,,,,,,2,,,52,100
118800,note_on,240,0,3,,,,,,,,,,,,,,,2,,,51,0
118860,note_on,60,0,3,,,,,,,,,,,,,,,2,,,52,0
118860,note_on,0,0,3,,,,,,,,,,,,,,,2,,,50,100
118920,note_on,60,0,3,,,,,,,,,,,,,,,2,,,50,0
118920,note_on,0,0,3,,,,,,,,,,,,,,,2,,,52,100
119040,note_on,480,0,1,,,,,,,,,,,,,,,0,,,69,0
119040,note_on,0,0,1,,,,,,,,,,,,,,,0,,,66,100
119280,note_on,0,0,1,,,,,,,,,,,,,,,0,,,67,100
119280,note_on,240,0,1,,,,,,,,,,,,,,,0,,,66,0
119520,note_on,0,0,1,,,,,,,,,,,,,,,0,,,71,100
119520,note_on,240,0,1,,,,,,,,,,,,,,,0,,,67,0
119580,note_on,60,0,1,,,,,,,,,,,,,,,0,,,71,0
119580,note_on,0,0,1,,,,,,,,,,,,,,,0,,,69,100
119640,note_on,0,0,1,,,,,,,,,,,,,,,0,,,71,100
119640,note_on,60,0,1,,,,,,,,,,,,,,,0,,,69,0
119760,note_on,840,0,3,,,,,,,,,,,,,,,2,,,52,0
119760,note_on,0,0,3,,,,,,,,,,,,,,,2,,,55,100
120000,note_on,0,0,3,,,,,,,,,,,,,,,2,,,59,100
120000,note_on,240,0,3,,,,,,,,,,,,,,,2,,,55,0
120240,note_on,240,0,3,,,,,,,,,,,,,,,2,,,59,0
120240,note_on,0,0,3,,,,,,,,,,,,,,,2,,,64,100
120480,note_on,840,0,1,,,,,,,,,,,,,,,0,,,71,0
120480,note_on,0,0,1,,,,,,,,,,,,,,,0,,,72,100
120720,note_on,480,0,3,,,,,,,,,,,,,,,2,,,64,0
120720,note_on,0,0,3,,,,,,,,,,,,,,,2,,,62,100
120720,note_on,240,0,1,,,,,,,,,,,,,,,0,,,72,0
120720,note_on,0,0,1,,,,,,,,,,,,,,,0,,,74,100
120960,note_on,240,0,3,,,,,,,,,,,,,,,2,,,62,0
120960,note_on,0,0,3,,,,,,,,,,,,,,,2,,,60,100
120960,note_on,240,0,1,,,,,,,,,,,,,,,0,,,74,0
120960,note_on,0,0,1,,,,,,,,,,,,,,,0,,,76,100
121200,note_on,240,0,1,,,,,,,,,,,,,,,0,,,76,0
121200,note_on,0,0,1,,,,,,,,,,,,,,,0,,,68,100
121440,note_on,240,0,1,,,,,,,,,,,,,,,0,,,68,0
121440,note_on,0,0,1,,,,,,,,,,,,,,,0,,,71,100
121680,note_on,240,0,1,,,,,,,,,,,,,,,0,,,71,0
121680,note_on,0,0,1,,,,,,,,,,,,,,,0,,,69,100
121920,note_on,0,0,3,,,,,,,,,,,,,,,2,,,59,100
121920,note_on,960,0,3,,,,,,,,,,,,,,,2,,,60,0
122160,note_on,0,0,3,,,,,,,,,,,,,,,2,,,60,100
122160,note_on,240,0,3,,,,,,,,,,,,,,,2,,,59,0
122400,note_on,0,0,3,,,,,,,,,,,,,,,2,,,54,100
122400,note_on,240,0,3,,,,,,,,,,,,,,,2,,,60,0
122640,note_on,960,0,1,,,,,,,,,,,,,,,0,,,69,0
122640,note_on,0,0,1,,,,,,,,,,,,,,,0,,,71,100
122640,note_on,0,0,3,,,,,,,,,,,,,,,2,,,55,100
122640,note_on,240,0,3,,,,,,,,,,,,,,,2,,,54,0
122880,note_on,0,0,3,,,,,,,,,,,,,,,2,,,57,100
122880,note_on,240,0,3,,,,,,,,,,,,,,,2,,,55,0
122880,note_on,240,0,1,,,,,,,,,,,,,,,0,,,71,0
122880,note_on,0,0,1,,,,,,,,,,,,,,,0,,,72,100
123120,note_on,0,0,1,,,,,,,,,,,,,,,0,,,74,100
123120,note_on,0,0,3,,,,,,,,,,,,,,,2,,,59,100
123120,note_on,240,0,3,,,,,,,,,,,,,,,2,,,57,0
123120,note_on,240,0,1,,,,,,,,,,,,,,,0,,,72,0
123360,note_on,240,0,3,,,,,,,,,,,,,,,2,,,59,0
123360,note_on,0,0,3,,,,,,,,,,,,,,,2,,,50,100
123360,note_on,0,0,1,,,,,,,,,,,,,,,0,,,66,100
123360,note_on,240,0,1,,,,,,,,,,,,,,,0,,,74,0
123600,note_on,0,0,3,,,,,,,,,,,,,,,2,,,54,100
123600,note_on,240,0,3,,,,,,,,,,,,,,,2,,,50,0
123600,note_on,0,0,1,,,,,,,,,,,,,,,0,,,69,100
123600,note_on,240,0,1,,,,,,,,,,,,,,,0,,,66,0
123840,note_on,240,0,1,,,,,,,,,,,,,,,0,,,69,0
123840,note_on,8640,0,2,,,,,,,,,,,,,,,1,,,59,100
123840,note_on,0,0,1,,,,,,,,,,,,,,,0,,,62,100
123840,note_on,240,0,3,,,,,,,,,,,,,,,2,,,54,0
123840,note_on,0,0,3,,,,,,,,,,,,,,,2,,,47,100
124080,note_on,240,0,3,,,,,,,,,,,,,,,2,,,47,0
124080,note_on,0,0,3,,,,,,,,,,,,,,,2,,,48,100
124320,note_on,0,0,3,,,,,,,,,,,,,,,2,,,50,100
124320,note_on,240,0,3,,,,,,,,,,,,,,,2,,,48,0
124320,note_on,480,0,1,,,,,,,,,,,,,,,0,,,62,0
124320,note_on,0,0,1,,,,,,,,,,,,,,,0,,,66,100
124560,note_on,0,0,3,,,,,,,,,,,,,,,2,,,43,100
124560,note_on,240,0,1,,,,,,,,,,,,,,,0,,,66,0
124560,note_on,240,0,3,,,,,,,,,,,,,,,2,,,50,0
124560,note_on,0,0,1,,,,,,,,,,,,,,,0,,,71,100
124800,note_on,960,0,2,,,,,,,,,,,,,,,1,,,59,0
124800,note_on,0,0,2,,,,,,,,,,,,,,,1,,,60,100
124800,note_on,240,0,3,,,,,,,,,,,,,,,2,,,43,0
124800,note_on,0,0,3,,,,,,,,,,,,,,,2,,,45,100
125040,note_on,240,0,2,,,,,,,,,,,,,,,1,,,60,0
125040,note_on,0,0,2,,,,,,,,,,,,,,,1,,,62,100
125040,note_on,240,0,3,,,,,,,,,,,,,,,2,,,45,0
125040,note_on,0,0,3,,,,,,,,,,,,,,,2,,,47,100
125280,note_on,0,0,2,,,,,,,,,,,,,,,1,,,64,100
125280,note_on,240,0,2,,,,,,,,,,,,,,,1,,,62,0
125280,note_on,0,0,3,,,,,,,,,,,,,,,2,,,48,100
125280,note_on,240,0,3,,,,,,,,,,,,,,,2,,,47,0
125520,note_on,240,0,2,,,,,,,,,,,,,,,1,,,64,0
125520,note_on,0,0,2,,,,,,,,,,,,,,,1,,,56,100
125760,note_on,0,0,2,,,,,,,,,,,,,,,1,,,59,100
125760,note_on,240,0,2,,,,,,,,,,,,,,,1,,,56,0
125760,note_on,1200,0,1,,,,,,,,,,,,,,,0,,,71,0
125760,note_on,0,0,1,,,,,,,,,,,,,,,0,,,63,100
126000,note_on,720,0,3,,,,,,,,,,,,,,,2,,,48,0
126000,note_on,240,0,2,,,,,,,,,,,,,,,1,,,59,0
126000,note_on,0,0,2,,,,,,,,,,,,,,,1,,,57,100
126000,note_on,0,0,1,,,,,,,,,,,,,,,0,,,64,100
126000,note_on,0,0,3,,,,,,,,,,,,,,,2,,,48,100
126000,note_on,240,0,1,,,,,,,,,,,,,,,0,,,63,0
126240,note_on,0,0,1,,,,,,,,,,,,,,,0,,,66,100
126240,note_on,240,0,1,,,,,,,,,,,,,,,0,,,64,0
126480,note_on,0,0,1,,,,,,,,,,,,,,,0,,,67,100
126480,note_on,240,0,1,,,,,,,,,,,,,,,0,,,66,0
126720,note_on,240,0,1,,,,,,,,,,,,,,,0,,,67,0
126720,note_on,0,0,3,,,,,,,,,,,,,,,2,,,48,100
126720,note_on,720,0,3,,,,,,,,,,,,,,,2,,,48,0
126720,note_on,0,0,1,,,,,,,,,,,,,,,0,,,66,100
126960,note_on,240,0,1,,,,,,,,,,,,,,,0,,,66,0
126960,note_on,0,0,1,,,,,,,,,,,,,,,0,,,67,100
126960,note_on,960,0,2,,,,,,,,,,,,,,,1,,,57,0
126960,note_on,0,0,2,,,,,,,,,,,,,,,1,,,59,100
127200,note_on,0,0,2,,,,,,,,,,,,,,,1,,,60,100
127200,note_on,0,0,1,,,,,,,,,,,,,,,0,,,69,100
127200,note_on,240,0,1,,,,,,,,,,,,,,,0,,,67,0
127200,note_on,240,0,2,,,,,,,,,,,,,,,1,,,59,0
127440,note_on,240,0,2,,,,,,,,,,,,,,,1,,,60,0
127440,note_on,0,0,1,,,,,,,,,,,,,,,0,,,62,100
127440,note_on,240,0,1,,,,,,,,,,,,,,,0,,,69,0
127440,note_on,0,0,2,,,,,,,,,,,,,,,1,,,62,100
127680,note_on,240,0,2,,,,,,,,,,,,,,,1,,,62,0
127680,note_on,0,0,2,,,,,,,,,,,,,,,1,,,54,100
127680,note_on,960,0,3,,,,,,,,,,,,,,,2,,,48,0
127680,note_on,0,0,3,,,,,,,,,,,,,,,2,,,50,100
127800,note_on,120,0,3,,,,,,,,,,,,,,,2,,,50,0
127800,note_on,0,0,3,,,,,,,,,,,,,,,2,,,48,100
127920,note_on,120,0,3,,,,,,,,,,,,,,,2,,,48,0
127920,note_on,240,0,2,,,,,,,,,,,,,,,1,,,54,0
127920,note_on,0,0,2,,,,,,,,,,,,,,,1,,,57,100
127920,note_on,0,0,3,,,,,,,,,,,,,,,2,,,47,100
128040,note_on,120,0,3,,,,,,,,,,,,,,,2,,,47,0
128040,note_on,0,0,3,,,,,,,,,,,,,,,2,,,45,100
128160,note_on,0,0,3,,,,,,,,,,,,,,,2,,,47,100
128160,note_on,240,0,2,,,,,,,,,,,,,,,1,,,57,0
128160,note_on,120,0,3,,,,,,,,,,,,,,,2,,,45,0
128160,note_on,0,0,1,,,,,,,,,,,,,,,0,,,62,100
128160,note_on,0,0,2,,,,,,,,,,,,,,,1,,,50,100
128160,note_on,720,0,1,,,,,,,,,,,,,,,0,,,62,0
128400,note_on,0,0,3,,,,,,,,,,,,,,,2,,,48,100
128400,note_on,240,0,3,,,,,,,,,,,,,,,2,,,47,0
128640,note_on,0,0,3,,,,,,,,,,,,,,,2,,,50,100
128640,note_on,240,0,3,,,,,,,,,,,,,,,2,,,48,0
128640,note_on,480,0,2,,,,,,,,,,,,,,,1,,,50,0
128640,note_on,0,0,2,,,,,,,,,,,,,,,1,,,54,100
128880,note_on,0,0,2,,,,,,,,,,,,,,,1,,,59,100
128880,note_on,720,0,1,,,,,,,,,,,,,,,0,,,62,0
128880,note_on,0,0,1,,,,,,,,,,,,,,,0,,,62,100
128880,note_on,0,0,3,,,,,,,,,,,,,,,2,,,43,100
128880,note_on,240,0,3,,,,,,,,,,,,,,,2,,,50,0
128880,note_on,240,0,2,,,,,,,,,,,,,,,1,,,54,0
129120,note_on,0,0,3,,,,,,,,,,,,,,,2,,,45,100
129120,note_on,240,0,3,,,,,,,,,,,,,,,2,,,43,0
129360,note_on,240,0,3,,,,,,,,,,,,,,,2,,,45,0
129360,note_on,0,0,3,,,,,,,,,,,,,,,2,,,47,100
129600,note_on,240,0,3,,,,,,,,,,,,,,,2,,,47,0
129600,note_on,0,0,3,,,,,,,,,,,,,,,2,,,40,100
129840,note_on,240,0,3,,,,,,,,,,,,,,,2,,,40,0
129840,note_on,960,0,1,,,,,,,,,,,,,,,0,,,62,0
129840,note_on,0,0,1,,,,,,,,,,,,,,,0,,,67,100
130080,note_on,0,0,2,,,,,,,,,,,,,,,1,,,51,100
130080,note_on,240,0,1,,,,,,,,,,,,,,,0,,,67,0
130080,note_on,0,0,1,,,,,,,,,,,,,,,0,,,66,100
130080,note_on,1200,0,2,,,,,,,,,,,,,,,1,,,59,0
130320,note_on,480,0,3,,,,,,,,,,,,,,,2,,,52,100
130320,note_on,0,0,2,,,,,,,,,,,,,,,1,,,52,100
130320,note_on,240,0,2,,,,,,,,,,,,,,,1,,,51,0
130320,note_on,240,0,1,,,,,,,,,,,,,,,0,,,66,0
130320,note_on,0,0,1,,,,,,,,,,,,,,,0,,,67,100
130560,note_on,240,0,2,,,,,,,,,,,,,,,1,,,52,0
130560,note_on,0,0,2,,,,,,,,,,,,,,,1,,,54,100
130560,note_on,0,0,1,,,,,,,,,,,,,,,0,,,69,100
130560,note_on,240,0,1,,,,,,,,,,,,,,,0,,,67,0
130560,note_on,240,0,3,,,,,,,,,,,,,,,2,,,52,0
130800,note_on,0,0,2,,,,,,,,,,,,,,,1,,,55,100
130800,note_on,240,0,2,,,,,,,,,,,,,,,1,,,54,0
130800,note_on,240,0,1,,,,,,,,,,,,,,,0,,,69,0
130800,note_on,0,0,1,,,,,,,,,,,,,,,0,,,71,100
131040,note_on,240,0,1,,,,,,,,,,,,,,,0,,,71,0
131040,note_on,0,0,1,,,,,,,,,,,,,,,0,,,72,100
131040,note_on,0,0,2,,,,,,,,,,,,,,,1,,,54,100
131040,note_on,240,0,2,,,,,,,,,,,,,,,1,,,55,0
131040,note_on,480,0,3,,,,,,,,,,,,,,,2,,,45,100
131280,note_on,240,0,2,,,,,,,,,,,,,,,1,,,54,0
131280,note_on,0,0,2,,,,,,,,,,,,,,,1,,,55,100
131280,note_on,0,0,1,,,,,,,,,,,,,,,0,,,74,100
131280,note_on,240,0,3,,,,,,,,,,,,,,,2,,,45,0
131280,note_on,240,0,1,,,,,,,,,,,,,,,0,,,72,0
131400,note_on,0,0,1,,,,,,,,,,,,,,,0,,,72,100
131400,note_on,120,0,1,,,,,,,,,,,,,,,0,,,74,0
131520,note_on,120,0,1,,,,,,,,,,,,,,,0,,,72,0
131520,note_on,240,0,2,,,,,,,,,,,,,,,1,,,55,0
131520,note_on,0,0,1,,,,,,,,,,,,,,,0,,,71,100
131520,note_on,0,0,2,,,,,,,,,,,,,,,1,,,57,100
131640,note_on,120,0,1,,,,,,,,,,,,,,,0,,,71,0
131640,note_on,0,0,1,,,,,,,,,,,,,,,0,,,69,100
131760,note_on,0,0,2,,,,,,,,,,,,,,,1,,,50,100
131760,note_on,480,0,3,,,,,,,,,,,,,,,2,,,43,100
131760,note_on,240,0,2,,,,,,,,,,,,,,,1,,,57,0
131760,note_on,120,0,1,,,,,,,,,,,,,,,0,,,69,0
131760,note_on,0,0,1,,,,,,,,,,,,,,,0,,,71,100
132000,note_on,240,0,3,,,,,,,,,,,,,,,2,,,43,0
132000,note_on,0,0,3,,,,,,,,,,,,,,,2,,,45,100
132000,note_on,0,0,1,,,,,,,,,,,,,,,0,,,72,100
132000,note_on,240,0,1,,,,,,,,,,,,,,,0,,,71,0
132120,note_on,120,0,1,,,,,,,,,,,,,,,0,,,72,0
132120,note_on,0,0,1,,,,,,,,,,,,,,,0,,,71,100
132240,note_on,120,0,1,,,,,,,,,,,,,,,0,,,71,0
132240,note_on,0,0,3,,,,,,,,,,,,,,,2,,,47,100
132240,note_on,240,0,3,,,,,,,,,,,,,,,2,,,45,0
132240,note_on,0,0,1,,,,,,,,,,,,,,,0,,,69,100
132360,note_on,0,0,1,,,,,,,,,,,,,,,0,,,67,100
132360,note_on,120,0,1,,,,,,,,,,,,,,,0,,,69,0
132480,note_on,0,0,1,,,,,,,,,,,,,,,0,,,69,100
132480,note_on,0,0,2,,,,,,,,,,,,,,,1,,,50,100
132480,note_on,240,0,3,,,,,,,,,,,,,,,2,,,47,0
132480,note_on,0,0,3,,,,,,,,,,,,,,,2,,,48,100
132480,note_on,720,0,2,,,,,,,,,,,,,,,1,,,50,0
132480,note_on,120,0,1,,,,,,,,,,,,,,,0,,,67,0
132720,note_on,240,0,1,,,,,,,,,,,,,,,0,,,69,0
132720,note_on,0,0,1,,,,,,,,,,,,,,,0,,,71,100
132720,note_on,240,0,3,,,,,,,,,,,,,,,2,,,48,0
132720,note_on,0,0,3,,,,,,,,,,,,,,,2,,,47,100
132840,note_on,120,0,1,,,,,,,,,,,,,,,0,,,71,0
132840,note_on,0,0,1,,,,,,,,,,,,,,,0,,,69,100
132960,note_on,240,0,3,,,,,,,,,,,,,,,2,,,47,0
132960,note_on,0,0,3,,,,,,,,,,,,,,,2,,,45,100
132960,note_on,0,0,1,,,,,,,,,,,,,,,0,,,67,100
132960,note_on,120,0,1,,,,,,,,,,,,,,,0,,,69,0
133080,note_on,120,0,1,,,,,,,,,,,,,,,0,,,67,0
133080,note_on,0,0,1,,,,,,,,,,,,,,,0,,,66,100
133200,note_on,120,0,1,,,,,,,,,,,,,,,0,,,66,0
133200,note_on,0,0,3,,,,,,,,,,,,,,,2,,,47,100
133200,note_on,240,0,3,,,,,,,,,,,,,,,2,,,45,0
133200,note_on,0,0,2,,,,,,,,,,,,,,,1,,,50,100
133200,note_on,720,0,2,,,,,,,,,,,,,,,1,,,50,0
133200,note_on,0,0,1,,,,,,,,,,,,,,,0,,,67,100
133440,note_on,240,0,3,,,,,,,,,,,,,,,2,,,47,0
133440,note_on,0,0,3,,,,,,,,,,,,,,,2,,,43,100
133440,note_on,240,0,1,,,,,,,,,,,,,,,0,,,67,0
133440,note_on,0,0,1,,,,,,,,,,,,,,,0,,,71,100
133560,note_on,0,0,1,,,,,,,,,,,,,,,0,,,69,100
133560,note_on,120,0,1,,,,,,,,,,,,,,,0,,,71,0
133680,note_on,0,0,3,,,,,,,,,,,,,,,2,,,45,100
133680,note_on,240,0,3,,,,,,,,,,,,,,,2,,,43,0
133680,note_on,0,0,1,,,,,,,,,,,,,,,0,,,67,100
133680,note_on,120,0,1,,,,,,,,,,,,,,,0,,,69,0
133800,note_on,0,0,1,,,,,,,,,,,,,,,0,,,66,100
133800,note_on,120,0,1,,,,,,,,,,,,,,,0,,,67,0
133920,note_on,0,0,3,,,,,,,,,,,,,,,2,,,47,100
133920,note_on,0,0,1,,,,,,,,,,,,,,,0,,,67,100
133920,note_on,120,0,1,,,,,,,,,,,,,,,0,,,66,0
133920,note_on,240,0,3,,,,,,,,,,,,,,,2,,,45,0
134160,note_on,960,0,2,,,,,,,,,,,,,,,1,,,50,0
134160,note_on,0,0,2,,,,,,,,,,,,,,,1,,,55,100
134160,note_on,240,0,1,,,,,,,,,,,,,,,0,,,67,0
134400,note_on,240,0,2,,,,,,,,,,,,,,,1,,,55,0
134400,note_on,0,0,2,,,,,,,,,,,,,,,1,,,54,100
134640,note_on,480,0,1,,,,,,,,,,,,,,,0,,,62,100
134640,note_on,0,0,2,,,,,,,,,,,,,,,1,,,55,100
134640,note_on,240,0,2,,,,,,,,,,,,,,,1,,,54,0
134880,note_on,0,0,2,,,,,,,,,,,,,,,1,,,57,100
134880,note_on,0,0,3,,,,,,,,,,,,,,,2,,,45,100
134880,note_on,960,0,3,,,,,,,,,,,,,,,2,,,47,0
134880,note_on,240,0,2,,,,,,,,,,,,,,,1,,,55,0
134880,note_on,240,0,1,,,,,,,,,,,,,,,0,,,62,0
135120,note_on,240,0,2,,,,,,,,,,,,,,,1,,,57,0
135120,note_on,0,0,3,,,,,,,,,,,,,,,2,,,43,100
135120,note_on,240,0,3,,,,,,,,,,,,,,,2,,,45,0
135120,note_on,0,0,2,,,,,,,,,,,,,,,1,,,59,100
135360,note_on,240,0,3,,,,,,,,,,,,,,,2,,,43,0
135360,note_on,0,0,3,,,,,,,,,,,,,,,2,,,50,100
135360,note_on,480,0,1,,,,,,,,,,,,,,,0,,,66,100
135360,note_on,0,0,2,,,,,,,,,,,,,,,1,,,60,100
135360,note_on,240,0,2,,,,,,,,,,,,,,,1,,,59,0
135600,note_on,0,0,2,,,,,,,,,,,,,,,1,,,62,100
135600,note_on,240,0,2,,,,,,,,,,,,,,,1,,,60,0
135600,note_on,240,0,1,,,,,,,,,,,,,,,0,,,66,0
135720,note_on,0,0,2,,,,,,,,,,,,,,,1,,,60,100
135720,note_on,120,0,2,,,,,,,,,,,,,,,1,,,62,0
135840,note_on,120,0,2,,,,,,,,,,,,,,,1,,,60,0
135840,note_on,480,0,3,,,,,,,,,,,,,,,2,,,50,0
135840,note_on,0,0,3,,,,,,,,,,,,,,,2,,,38,100
135840,note_on,0,0,2,,,,,,,,,,,,,,,1,,,59,100
135960,note_on,120,0,2,,,,,,,,,,,,,,,1,,,59,0
135960,note_on,0,0,2,,,,,,,,,,,,,,,1,,,57,100
136080,note_on,480,0,1,,,,,,,,,,,,,,,0,,,67,100
136080,note_on,240,0,3,,,,,,,,,,,,,,,2,,,38,0
136080,note_on,120,0,2,,,,,,,,,,,,,,,1,,,57,0
136080,note_on,0,0,2,,,,,,,,,,,,,,,1,,,59,100
136080,note_on,0,0,3,,,,,,,,,,,,,,,2,,,43,100
136320,note_on,240,0,1,,,,,,,,,,,,,,,0,,,67,0
136320,note_on,240,0,2,,,,,,,,,,,,,,,1,,,59,0
136320,note_on,0,0,2,,,,,,,,,,,,,,,1,,,60,100
136440,note_on,0,0,2,,,,,,,,,,,,,,,1,,,59,100
136440,note_on,120,0,2,,,,,,,,,,,,,,,1,,,60,0
136560,note_on,0,0,2,,,,,,,,,,,,,,,1,,,57,100
136560,note_on,480,0,3,,,,,,,,,,,,,,,2,,,43,0
136560,note_on,0,0,3,,,,,,,,,,,,,,,2,,,31,100
136560,note_on,120,0,2,,,,,,,,,,,,,,,1,,,59,0
136680,note_on,120,0,2,,,,,,,,,,,,,,,1,,,57,0
136680,note_on,0,0,2,,,,,,,,,,,,,,,1,,,55,100
136800,note_on,120,0,2,,,,,,,,,,,,,,,1,,,55,0
136800,note_on,0,0,2,,,,,,,,,,,,,,,1,,,57,100
136800,note_on,480,0,1,,,,,,,,,,,,,,,0,,,60,100
136800,note_on,240,0,3,,,,,,,,,,,,,,,2,,,31,0
136800,note_on,0,0,3,,,,,,,,,,,,,,,2,,,31,100
137040,note_on,240,0,2,,,,,,,,,,,,,,,1,,,57,0
137040,note_on,0,0,2,,,,,,,,,,,,,,,1,,,59,100
137040,note_on,240,0,1,,,,,,,,,,,,,,,0,,,60,0
137160,note_on,120,0,2,,,,,,,,,,,,,,,1,,,59,0
137160,note_on,0,0,2,,,,,,,,,,,,,,,1,,,57,100
137280,note_on,120,0,2,,,,,,,,,,,,,,,1,,,57,0
137280,note_on,0,0,3,,,,,,,,,,,,,,,2,,,43,100
137280,note_on,480,0,3,,,,,,,,,,,,,,,2,,,31,0
137280,note_on,0,0,2,,,,,,,,,,,,,,,1,,,55,100
137400,note_on,0,0,2,,,,,,,,,,,,,,,1,,,54,100
137400,note_on,120,0,2,,,,,,,,,,,,,,,1,,,55,0
137520,note_on,0,0,3,,,,,,,,,,,,,,,2,,,43,100
137520,note_on,240,0,3,,,,,,,,,,,,,,,2,,,43,0
137520,end_of_track,0,1,0,,,,,,,,,,,,,,,,,,,
137520,set_tempo,33840,1,0,,,,,,,,,,,,1200000,,,,,,,
137520,note_on,480,0,1,,,,,,,,,,,,,,,0,,,59,100
137520,note_on,0,0,2,,,,,,,,,,,,,,,1,,,55,100
137520,note_on,120,0,2,,,,,,,,,,,,,,,1,,,54,0
138240,note_on,720,0,3,,,,,,,,,,,,,,,2,,,43,0
138240,end_of_track,0,1,1,,,,,,,,,,,,,,,,,,,
138240,note_on,720,0,2,,,,,,,,,,,,,,,1,,,55,0
138240,end_of_track,0,1,2,,,,,,,,,,,,,,,,,,,
138240,end_of_track,0,1,3,,,,,,,,,,,,,,,,,,,
138240,note_on,720,0,1,,,,,,,,,,,,,,,0,,,59,0
