tick,type,time,meta,track,numerator,denominator,clocks_per_click,notated_32nd_notes_per_beat,key,tempo,program,channel,control,value,note,velocity
0,track_name,0,1,0,,,,,,,,,,,,
0,program_change,0,0,2,,,,,,,0,1,,,,
0,control_change,0,0,2,,,,,,,,1,7,100,,
0,control_change,0,0,2,,,,,,,,1,10,59,,
0,note_on,0,0,2,,,,,,,,1,,,55,100
0,track_name,0,1,3,,,,,,,,,,,,
0,end_of_track,0,1,3,,,,,,,,,,,,
0,track_name,0,1,4,,,,,,,,,,,,
0,end_of_track,0,1,4,,,,,,,,,,,,
0,track_name,0,1,5,,,,,,,,,,,,
0,end_of_track,0,1,5,,,,,,,,,,,,
0,track_name,0,1,6,,,,,,,,,,,,
0,end_of_track,0,1,6,,,,,,,,,,,,
0,track_name,0,1,7,,,,,,,,,,,,
0,end_of_track,0,1,7,,,,,,,,,,,,
0,track_name,0,1,8,,,,,,,,,,,,
0,end_of_track,0,1,8,,,,,,,,,,,,
0,track_name,0,1,9,,,,,,,,,,,,
0,track_name,0,1,16,,,,,,,,,,,,
0,end_of_track,0,1,15,,,,,,,,,,,,
0,track_name,0,1,15,,,,,,,,,,,,
0,end_of_track,0,1,14,,,,,,,,,,,,
0,track_name,0,1,14,,,,,,,,,,,,
0,end_of_track,0,1,13,,,,,,,,,,,,
0,track_name,0,1,2,,,,,,,,,,,,
0,track_name,0,1,13,,,,,,,,,,,,
0,track_name,0,1,12,,,,,,,,,,,,
0,end_of_track,0,1,11,,,,,,,,,,,,
0,track_name,0,1,11,,,,,,,,,,,,
0,end_of_track,0,1,10,,,,,,,,,,,,
0,track_name,0,1,10,,,,,,,,,,,,
0,end_of_track,0,1,9,,,,,,,,,,,,
0,end_of_track,0,1,12,,,,,,,,,,,,
0,end_of_track,0,1,16,,,,,,,,,,,,
0,end_of_track,0,1,17,,,,,,,,,,,,
0,marker,0,1,0,,,,,,,,,,,,
0,key_signature,0,1,0,,,,,G,,,,,,,
0,track_name,0,1,1,,,,,,,,,,,,
0,time_signature,0,1,0,3,4,24,8,,,,,,,,
0,program_change,0,0,1,,,,,,,0,0,,,,
0,control_change,0,0,1,,,,,,,,0,7,100,,
0,control_change,0,0,1,,,,,,,,0,10,69,,
0,set_tempo,0,1,0,,,,,,600000,,,,,,
240,note_on,0,0,2,,,,,,,,1,,,43,100
240,note_on,240,0,2,,,,,,,,1,,,55,0
360,note_on,0,0,1,,,,,,,,0,,,67,100
360,note_on,0,0,1,,,,,,,,0,,,62,100
360,note_on,360,0,1,,,,,,,,0,,,59,100
480,note_on,0,0,1,,,,,,,,0,,,62,0
480,note_on,0,0,1,,,,,,,,0,,,59,0
480,note_on,0,0,2,,,,,,,,1,,,60,100
480,note_on,240,0,2,,,,,,,,1,,,43,0
480,note_on,0,0,2,,,,,,,,1,,,57,100
480,note_on,120,0,1,,,,,,,,0,,,67,0
480,note_on,0,0,2,,,,,,,,1,,,66,100
600,note_on,120,0,1,,,,,,,,0,,,59,100
600,note_on,0,0,2,,,,,,,,1,,,60,0
600,note_on,0,0,2,,,,,,,,1,,,57,0
600,note_on,0,0,1,,,,,,,,0,,,62,100
600,note_on,0,0,1,,,,,,,,0,,,67,100
600,note_on,120,0,2,,,,,,,,1,,,66,0
720,note_on,120,0,1,,,,,,,,0,,,67,0
720,note_on,120,0,2,,,,,,,,1,,,57,100
720,note_on,0,0,2,,,,,,,,1,,,60,100
720,note_on,0,0,2,,,,,,,,1,,,66,100
720,note_on,0,0,1,,,,,,,,0,,,62,0
720,note_on,0,0,1,,,,,,,,0,,,59,0
840,note_on,0,0,1,,,,,,,,0,,,62,100
840,note_on,0,0,1,,,,,,,,0,,,67,100
840,note_on,120,0,1,,,,,,,,0,,,59,100
840,note_on,0,0,2,,,,,,,,1,,,57,0
840,note_on,120,0,2,,,,,,,,1,,,66,0
840,note_on,0,0,2,,,,,,,,1,,,60,0
960,note_on,0,0,2,,,,,,,,1,,,66,100
960,note_on,120,0,2,,,,,,,,1,,,57,100
960,note_on,0,0,2,,,,,,,,1,,,60,100
960,note_on,120,0,1,,,,,,,,0,,,67,0
960,note_on,0,0,1,,,,,,,,0,,,62,0
960,note_on,0,0,1,,,,,,,,0,,,59,0
1080,note_on,120,0,2,,,,,,,,1,,,66,0
1080,note_on,0,0,2,,,,,,,,1,,,60,0
1080,note_on,0,0,2,,,,,,,,1,,,57,0
1080,note_on,0,0,1,,,,,,,,0,,,62,100
1080,note_on,0,0,1,,,,,,,,0,,,67,100
1080,note_on,120,0,1,,,,,,,,0,,,59,100
1200,note_on,120,0,2,,,,,,,,1,,,57,100
1200,note_on,0,0,2,,,,,,,,1,,,60,100
1200,note_on,120,0,1,,,,,,,,0,,,67,0
1200,note_on,0,0,2,,,,,,,,1,,,66,100
1200,note_on,0,0,1,,,,,,,,0,,,62,0
1200,note_on,0,0,1,,,,,,,,0,,,59,0
1320,note_on,0,0,2,,,,,,,,1,,,60,0
1320,note_on,0,0,2,,,,,,,,1,,,57,0
1320,note_on,0,0,1,,,,,,,,0,,,62,100
1320,note_on,0,0,1,,,,,,,,0,,,67,100
1320,note_on,120,0,2,,,,,,,,1,,,66,0
1320,note_on,120,0,1,,,,,,,,0,,,59,100
1440,note_on,120,0,2,,,,,,,,1,,,54,100
1440,note_on,120,0,1,,,,,,,,0,,,67,0
1440,note_on,0,0,1,,,,,,,,0,,,62,0
1440,note_on,0,0,1,,,,,,,,0,,,59,0
1680,note_on,240,0,2,,,,,,,,1,,,54,0
1680,note_on,0,0,2,,,,,,,,1,,,42,100
1800,note_on,360,0,1,,,,,,,,0,,,66,100
1800,note_on,0,0,1,,,,,,,,0,,,74,100
1800,note_on,0,0,1,,,,,,,,0,,,69,100
1920,note_on,0,0,2,,,,,,,,1,,,67,100
1920,note_on,0,0,2,,,,,,,,1,,,64,100
1920,note_on,240,0,2,,,,,,,,1,,,42,0
1920,note_on,120,0,1,,,,,,,,0,,,74,0
1920,note_on,0,0,1,,,,,,,,0,,,69,0
1920,note_on,0,0,1,,,,,,,,0,,,66,0
1920,note_on,0,0,2,,,,,,,,1,,,73,100
2040,note_on,0,0,2,,,,,,,,1,,,67,0
2040,note_on,0,0,2,,,,,,,,1,,,64,0
2040,note_on,120,0,1,,,,,,,,0,,,66,100
2040,note_on,0,0,1,,,,,,,,0,,,74,100
2040,note_on,0,0,1,,,,,,,,0,,,69,100
2040,note_on,120,0,2,,,,,,,,1,,,73,0
2160,note_on,0,0,1,,,,,,,,0,,,69,0
2160,note_on,0,0,1,,,,,,,,0,,,66,0
2160,note_on,0,0,2,,,,,,,,1,,,73,100
2160,note_on,0,0,2,,,,,,,,1,,,67,100
2160,note_on,120,0,2,,,,,,,,1,,,64,100
2160,note_on,120,0,1,,,,,,,,0,,,74,0
2280,note_on,120,0,1,,,,,,,,0,,,66,100
2280,note_on,0,0,1,,,,,,,,0,,,69,100
2280,note_on,0,0,1,,,,,,,,0,,,74,100
2280,note_on,120,0,2,,,,,,,,1,,,73,0
2280,note_on,0,0,2,,,,,,,,1,,,67,0
2280,note_on,0,0,2,,,,,,,,1,,,64,0
2400,note_on,120,0,2,,,,,,,,1,,,64,100
2400,note_on,0,0,2,,,,,,,,1,,,67,100
2400,note_on,0,0,2,,,,,,,,1,,,73,100
2400,note_on,0,0,1,,,,,,,,0,,,66,0
2400,note_on,0,0,1,,,,,,,,0,,,69,0
2400,note_on,120,0,1,,,,,,,,0,,,74,0
2520,note_on,0,0,1,,,,,,,,0,,,69,100
2520,note_on,0,0,2,,,,,,,,1,,,67,0
2520,note_on,0,0,2,,,,,,,,1,,,64,0
2520,note_on,120,0,1,,,,,,,,0,,,66,100
2520,note_on,0,0,1,,,,,,,,0,,,74,100
2520,note_on,120,0,2,,,,,,,,1,,,73,0
2640,note_on,0,0,1,,,,,,,,0,,,69,0
2640,note_on,0,0,2,,,,,,,,1,,,73,100
2640,note_on,0,0,2,,,,,,,,1,,,67,100
2640,note_on,120,0,2,,,,,,,,1,,,64,100
2640,note_on,0,0,1,,,,,,,,0,,,66,0
2640,note_on,120,0,1,,,,,,,,0,,,74,0
2760,note_on,0,0,1,,,,,,,,0,,,69,100
2760,note_on,0,0,2,,,,,,,,1,,,64,0
2760,note_on,0,0,2,,,,,,,,1,,,67,0
2760,note_on,120,0,2,,,,,,,,1,,,73,0
2760,note_on,120,0,1,,,,,,,,0,,,66,100
2760,note_on,0,0,1,,,,,,,,0,,,74,100
2880,note_on,0,0,1,,,,,,,,0,,,69,0
2880,note_on,0,0,1,,,,,,,,0,,,66,0
2880,note_on,120,0,1,,,,,,,,0,,,74,0
2880,note_on,120,0,2,,,,,,,,1,,,52,100
3120,note_on,240,0,2,,,,,,,,1,,,52,0
3120,note_on,0,0,2,,,,,,,,1,,,40,100
3240,note_on,0,0,1,,,,,,,,0,,,76,100
3240,note_on,0,0,1,,,,,,,,0,,,79,100
3240,note_on,360,0,1,,,,,,,,0,,,71,100
3360,note_on,240,0,2,,,,,,,,1,,,40,0
3360,note_on,0,0,2,,,,,,,,1,,,69,100
3360,note_on,0,0,2,,,,,,,,1,,,78,100
3360,note_on,0,0,2,,,,,,,,1,,,74,100
3360,note_on,0,0,1,,,,,,,,0,,,71,0
3360,note_on,120,0,1,,,,,,,,0,,,76,0
3360,note_on,0,0,1,,,,,,,,0,,,79,0
3480,note_on,120,0,1,,,,,,,,0,,,76,100
3480,note_on,0,0,2,,,,,,,,1,,,78,0
3480,note_on,0,0,2,,,,,,,,1,,,69,0
3480,note_on,0,0,1,,,,,,,,0,,,79,100
3480,note_on,120,0,2,,,,,,,,1,,,74,0
3480,note_on,0,0,1,,,,,,,,0,,,71,100
3600,note_on,0,0,2,,,,,,,,1,,,73,100
3600,note_on,0,0,2,,,,,,,,1,,,76,100
3600,note_on,120,0,2,,,,,,,,1,,,67,100
3600,note_on,0,0,1,,,,,,,,0,,,76,0
3600,note_on,120,0,1,,,,,,,,0,,,79,0
3600,note_on,0,0,1,,,,,,,,0,,,71,0
3720,note_on,120,0,1,,,,,,,,0,,,76,100
3720,note_on,120,0,2,,,,,,,,1,,,73,0
3720,note_on,0,0,1,,,,,,,,0,,,79,100
3720,note_on,0,0,1,,,,,,,,0,,,71,100
3720,note_on,0,0,2,,,,,,,,1,,,76,0
3720,note_on,0,0,2,,,,,,,,1,,,67,0
3840,note_on,0,0,1,,,,,,,,0,,,76,0
3840,note_on,0,0,1,,,,,,,,0,,,71,0
3840,note_on,120,0,1,,,,,,,,0,,,79,0
3840,note_on,120,0,2,,,,,,,,1,,,74,100
3840,note_on,0,0,2,,,,,,,,1,,,69,100
3840,note_on,0,0,2,,,,,,,,1,,,78,100
3960,note_on,120,0,1,,,,,,,,0,,,76,100
3960,note_on,0,0,2,,,,,,,,1,,,74,0
3960,note_on,0,0,2,,,,,,,,1,,,69,0
3960,note_on,120,0,2,,,,,,,,1,,,78,0
3960,note_on,0,0,1,,,,,,,,0,,,71,100
3960,note_on,0,0,1,,,,,,,,0,,,79,100
4080,note_on,0,0,1,,,,,,,,0,,,76,0
4080,note_on,0,0,2,,,,,,,,1,,,76,100
4080,note_on,0,0,2,,,,,,,,1,,,67,100
4080,note_on,120,0,2,,,,,,,,1,,,73,100
4080,note_on,0,0,1,,,,,,,,0,,,71,0
4080,note_on,120,0,1,,,,,,,,0,,,79,0
4200,note_on,120,0,1,,,,,,,,0,,,76,100
4200,note_on,0,0,2,,,,,,,,1,,,67,0
4200,note_on,120,0,2,,,,,,,,1,,,76,0
4200,note_on,0,0,1,,,,,,,,0,,,73,100
4200,note_on,0,0,2,,,,,,,,1,,,73,0
4200,note_on,0,0,1,,,,,,,,0,,,79,100
4320,note_on,0,0,1,,,,,,,,0,,,78,100
4320,note_on,0,0,1,,,,,,,,0,,,79,0
4320,note_on,0,0,1,,,,,,,,0,,,76,0
4320,note_on,0,0,1,,,,,,,,0,,,74,100
4320,note_on,0,0,1,,,,,,,,0,,,69,100
4320,note_on,120,0,1,,,,,,,,0,,,73,0
4440,note_on,240,0,2,,,,,,,,1,,,62,100
4440,note_on,120,0,1,,,,,,,,0,,,78,0
4440,note_on,0,0,1,,,,,,,,0,,,69,0
4440,note_on,0,0,1,,,,,,,,0,,,74,0
4560,note_on,120,0,2,,,,,,,,1,,,62,0
4560,note_on,0,0,2,,,,,,,,1,,,57,100
4680,note_on,0,0,2,,,,,,,,1,,,54,100
4680,note_on,120,0,2,,,,,,,,1,,,57,0
4800,note_on,0,0,2,,,,,,,,1,,,50,100
4800,note_on,120,0,2,,,,,,,,1,,,54,0
4880,note_on,440,0,1,,,,,,,,0,,,84,100
4960,note_on,0,0,2,,,,,,,,1,,,62,100
4960,note_on,160,0,2,,,,,,,,1,,,50,0
4960,note_on,80,0,1,,,,,,,,0,,,84,0
4960,note_on,0,0,1,,,,,,,,0,,,83,100
5040,note_on,0,0,2,,,,,,,,1,,,52,100
5040,note_on,80,0,2,,,,,,,,1,,,62,0
5040,note_on,80,0,1,,,,,,,,0,,,83,0
5040,note_on,0,0,1,,,,,,,,0,,,72,100
5120,note_on,0,0,1,,,,,,,,0,,,83,100
5120,note_on,80,0,1,,,,,,,,0,,,72,0
5200,note_on,80,0,1,,,,,,,,0,,,83,0
5200,note_on,0,0,1,,,,,,,,0,,,81,100
5200,note_on,160,0,2,,,,,,,,1,,,52,0
5200,note_on,0,0,2,,,,,,,,1,,,60,100
5280,note_on,80,0,1,,,,,,,,0,,,81,0
5280,note_on,0,0,1,,,,,,,,0,,,71,100
5280,note_on,80,0,2,,,,,,,,1,,,60,0
5280,note_on,0,0,2,,,,,,,,1,,,50,100
5360,note_on,0,0,1,,,,,,,,0,,,81,100
5360,note_on,80,0,1,,,,,,,,0,,,71,0
5440,note_on,0,0,1,,,,,,,,0,,,79,100
5440,note_on,80,0,1,,,,,,,,0,,,81,0
5440,note_on,160,0,2,,,,,,,,1,,,50,0
5440,note_on,0,0,2,,,,,,,,1,,,59,100
5520,note_on,0,0,1,,,,,,,,0,,,69,100
5520,note_on,80,0,1,,,,,,,,0,,,79,0
5520,note_on,80,0,2,,,,,,,,1,,,59,0
5520,note_on,0,0,2,,,,,,,,1,,,48,100
5600,note_on,80,0,1,,,,,,,,0,,,69,0
5600,note_on,0,0,1,,,,,,,,0,,,79,100
5680,note_on,80,0,1,,,,,,,,0,,,79,0
5680,note_on,160,0,2,,,,,,,,1,,,48,0
5680,note_on,0,0,2,,,,,,,,1,,,57,100
5680,note_on,0,0,1,,,,,,,,0,,,78,100
5760,note_on,0,0,1,,,,,,,,0,,,74,100
5760,note_on,0,0,1,,,,,,,,0,,,79,100
5760,note_on,0,0,1,,,,,,,,0,,,71,100
5760,note_on,80,0,2,,,,,,,,1,,,57,0
5760,note_on,0,0,2,,,,,,,,1,,,47,100
5760,note_on,80,0,1,,,,,,,,0,,,78,0
6000,note_on,0,0,1,,,,,,,,0,,,79,0
6000,note_on,240,0,1,,,,,,,,0,,,71,0
6000,note_on,0,0,1,,,,,,,,0,,,74,0
6000,note_on,240,0,2,,,,,,,,1,,,47,0
6000,note_on,0,0,2,,,,,,,,1,,,59,100
6120,note_on,0,0,1,,,,,,,,0,,,71,100
6120,note_on,0,0,1,,,,,,,,0,,,74,100
6120,note_on,120,0,1,,,,,,,,0,,,79,100
6240,note_on,0,0,2,,,,,,,,1,,,72,100
6240,note_on,120,0,1,,,,,,,,0,,,74,0
6240,note_on,0,0,1,,,,,,,,0,,,71,0
6240,note_on,0,0,2,,,,,,,,1,,,69,100
6240,note_on,0,0,1,,,,,,,,0,,,79,0
6240,note_on,240,0,2,,,,,,,,1,,,59,0
6240,note_on,0,0,2,,,,,,,,1,,,78,100
6360,note_on,120,0,1,,,,,,,,0,,,74,100
6360,note_on,0,0,1,,,,,,,,0,,,71,100
6360,note_on,0,0,1,,,,,,,,0,,,79,100
6360,note_on,0,0,2,,,,,,,,1,,,78,0
6360,note_on,120,0,2,,,,,,,,1,,,69,0
6360,note_on,0,0,2,,,,,,,,1,,,72,0
6480,note_on,120,0,1,,,,,,,,0,,,79,0
6480,note_on,0,0,1,,,,,,,,0,,,74,0
6480,note_on,0,0,1,,,,,,,,0,,,71,0
6480,note_on,120,0,2,,,,,,,,1,,,72,100
6480,note_on,0,0,2,,,,,,,,1,,,69,100
6480,note_on,0,0,2,,,,,,,,1,,,78,100
6600,note_on,0,0,2,,,,,,,,1,,,72,0
6600,note_on,0,0,2,,,,,,,,1,,,69,0
6600,note_on,120,0,2,,,,,,,,1,,,78,0
6600,note_on,0,0,1,,,,,,,,0,,,74,100
6600,note_on,120,0,1,,,,,,,,0,,,71,100
6600,note_on,0,0,1,,,,,,,,0,,,79,100
6720,note_on,0,0,1,,,,,,,,0,,,79,0
6720,note_on,0,0,1,,,,,,,,0,,,71,0
6720,note_on,120,0,1,,,,,,,,0,,,74,0
6720,note_on,0,0,2,,,,,,,,1,,,69,100
6720,note_on,120,0,2,,,,,,,,1,,,78,100
6720,note_on,0,0,2,,,,,,,,1,,,72,100
6840,note_on,0,0,1,,,,,,,,0,,,71,100
6840,note_on,0,0,2,,,,,,,,1,,,78,0
6840,note_on,0,0,2,,,,,,,,1,,,69,0
6840,note_on,120,0,2,,,,,,,,1,,,72,0
6840,note_on,0,0,1,,,,,,,,0,,,79,100
6840,note_on,120,0,1,,,,,,,,0,,,74,100
6960,note_on,0,0,2,,,,,,,,1,,,71,100
6960,note_on,0,0,2,,,,,,,,1,,,67,100
6960,note_on,120,0,2,,,,,,,,1,,,74,100
6960,note_on,0,0,1,,,,,,,,0,,,74,0
6960,note_on,0,0,1,,,,,,,,0,,,71,0
6960,note_on,120,0,1,,,,,,,,0,,,79,0
7080,note_on,0,0,2,,,,,,,,1,,,74,0
7080,note_on,0,0,1,,,,,,,,0,,,74,100
7080,note_on,0,0,1,,,,,,,,0,,,77,100
7080,note_on,120,0,2,,,,,,,,1,,,71,0
7080,note_on,0,0,2,,,,,,,,1,,,67,0
7080,note_on,120,0,1,,,,,,,,0,,,71,100
7200,note_on,120,0,2,,,,,,,,1,,,48,100
7200,note_on,120,0,1,,,,,,,,0,,,77,0
7200,note_on,0,0,1,,,,,,,,0,,,74,0
7200,note_on,0,0,1,,,,,,,,0,,,71,0
7440,note_on,240,0,2,,,,,,,,1,,,48,0
7440,note_on,0,0,2,,,,,,,,1,,,60,100
7560,note_on,360,0,1,,,,,,,,0,,,67,100
7560,note_on,0,0,1,,,,,,,,0,,,72,100
7560,note_on,0,0,1,,,,,,,,0,,,76,100
7680,note_on,0,0,1,,,,,,,,0,,,67,0
7680,note_on,0,0,2,,,,,,,,1,,,74,100
7680,note_on,0,0,2,,,,,,,,1,,,65,100
7680,note_on,0,0,2,,,,,,,,1,,,71,100
7680,note_on,240,0,2,,,,,,,,1,,,60,0
7680,note_on,120,0,1,,,,,,,,0,,,76,0
7680,note_on,0,0,1,,,,,,,,0,,,72,0
7800,note_on,0,0,1,,,,,,,,0,,,72,100
7800,note_on,0,0,2,,,,,,,,1,,,71,0
7800,note_on,120,0,1,,,,,,,,0,,,67,100
7800,note_on,0,0,2,,,,,,,,1,,,65,0
7800,note_on,120,0,2,,,,,,,,1,,,74,0
7800,note_on,0,0,1,,,,,,,,0,,,76,100
7920,note_on,0,0,2,,,,,,,,1,,,65,100
7920,note_on,0,0,1,,,,,,,,0,,,67,0
7920,note_on,120,0,2,,,,,,,,1,,,74,100
7920,note_on,0,0,2,,,,,,,,1,,,71,100
7920,note_on,120,0,1,,,,,,,,0,,,76,0
7920,note_on,0,0,1,,,,,,,,0,,,72,0
8040,note_on,120,0,1,,,,,,,,0,,,72,100
8040,note_on,0,0,1,,,,,,,,0,,,67,100
8040,note_on,0,0,1,,,,,,,,0,,,76,100
8040,note_on,120,0,2,,,,,,,,1,,,65,0
8040,note_on,0,0,2,,,,,,,,1,,,74,0
8040,note_on,0,0,2,,,,,,,,1,,,71,0
8160,note_on,120,0,1,,,,,,,,0,,,76,0
8160,note_on,0,0,1,,,,,,,,0,,,72,0
8160,note_on,0,0,2,,,,,,,,1,,,71,100
8160,note_on,0,0,2,,,,,,,,1,,,74,100
8160,note_on,120,0,2,,,,,,,,1,,,65,100
8160,note_on,0,0,1,,,,,,,,0,,,67,0
8280,note_on,120,0,1,,,,,,,,0,,,72,100
8280,note_on,0,0,1,,,,,,,,0,,,67,100
8280,note_on,0,0,1,,,,,,,,0,,,76,100
8280,note_on,0,0,2,,,,,,,,1,,,65,0
8280,note_on,120,0,2,,,,,,,,1,,,71,0
8280,note_on,0,0,2,,,,,,,,1,,,74,0
8400,note_on,0,0,2,,,,,,,,1,,,64,100
8400,note_on,0,0,2,,,,,,,,1,,,72,100
8400,note_on,120,0,2,,,,,,,,1,,,69,100
8400,note_on,0,0,1,,,,,,,,0,,,67,0
8400,note_on,120,0,1,,,,,,,,0,,,76,0
8400,note_on,0,0,1,,,,,,,,0,,,72,0
8520,note_on,120,0,1,,,,,,,,0,,,67,100
8520,note_on,120,0,2,,,,,,,,1,,,64,0
8520,note_on,0,0,2,,,,,,,,1,,,72,0
8520,note_on,0,0,1,,,,,,,,0,,,76,100
8520,note_on,0,0,1,,,,,,,,0,,,72,100
8520,note_on,0,0,2,,,,,,,,1,,,69,0
8640,note_on,120,0,1,,,,,,,,0,,,76,0
8640,note_on,0,0,1,,,,,,,,0,,,72,0
8640,note_on,120,0,2,,,,,,,,1,,,50,100
8640,note_on,0,0,1,,,,,,,,0,,,67,0
8880,note_on,0,0,2,,,,,,,,1,,,62,100
8880,note_on,240,0,2,,,,,,,,1,,,50,0
9000,note_on,0,0,1,,,,,,,,0,,,69,100
9000,note_on,360,0,1,,,,,,,,0,,,74,100
9000,note_on,0,0,1,,,,,,,,0,,,66,100
9120,note_on,120,0,1,,,,,,,,0,,,66,0
9120,note_on,0,0,1,,,,,,,,0,,,69,0
9120,note_on,0,0,2,,,,,,,,1,,,73,100
9120,note_on,0,0,2,,,,,,,,1,,,64,100
9120,note_on,0,0,2,,,,,,,,1,,,67,100
9120,note_on,240,0,2,,,,,,,,1,,,62,0
9120,note_on,0,0,1,,,,,,,,0,,,74,0
9240,note_on,0,0,2,,,,,,,,1,,,67,0
9240,note_on,120,0,2,,,,,,,,1,,,64,0
9240,note_on,0,0,1,,,,,,,,0,,,69,100
9240,note_on,0,0,1,,,,,,,,0,,,66,100
9240,note_on,120,0,1,,,,,,,,0,,,74,100
9240,note_on,0,0,2,,,,,,,,1,,,73,0
9360,note_on,120,0,2,,,,,,,,1,,,64,100
9360,note_on,0,0,1,,,,,,,,0,,,66,0
9360,note_on,0,0,1,,,,,,,,0,,,74,0
9360,note_on,0,0,2,,,,,,,,1,,,73,100
9360,note_on,0,0,2,,,,,,,,1,,,67,100
9360,note_on,120,0,1,,,,,,,,0,,,69,0
9480,note_on,0,0,1,,,,,,,,0,,,66,100
9480,note_on,120,0,1,,,,,,,,0,,,69,100
9480,note_on,0,0,2,,,,,,,,1,,,64,0
9480,note_on,0,0,2,,,,,,,,1,,,67,0
9480,note_on,120,0,2,,,,,,,,1,,,73,0
9480,note_on,0,0,1,,,,,,,,0,,,74,100
9600,note_on,120,0,2,,,,,,,,1,,,73,100
9600,note_on,0,0,1,,,,,,,,0,,,74,0
9600,note_on,0,0,1,,,,,,,,0,,,69,0
9600,note_on,0,0,2,,,,,,,,1,,,64,100
9600,note_on,0,0,2,,,,,,,,1,,,67,100
9600,note_on,120,0,1,,,,,,,,0,,,66,0
9720,note_on,120,0,1,,,,,,,,0,,,66,100
9720,note_on,0,0,1,,,,,,,,0,,,74,100
9720,note_on,0,0,2,,,,,,,,1,,,73,0
9720,note_on,0,0,1,,,,,,,,0,,,69,100
9720,note_on,120,0,2,,,,,,,,1,,,64,0
9720,note_on,0,0,2,,,,,,,,1,,,67,0
9840,note_on,0,0,2,,,,,,,,1,,,66,100
9840,note_on,0,0,1,,,,,,,,0,,,66,0
9840,note_on,0,0,2,,,,,,,,1,,,69,100
9840,note_on,120,0,2,,,,,,,,1,,,62,100
9840,note_on,0,0,1,,,,,,,,0,,,74,0
9840,note_on,120,0,1,,,,,,,,0,,,69,0
9960,note_on,120,0,1,,,,,,,,0,,,66,100
9960,note_on,0,0,1,,,,,,,,0,,,69,100
9960,note_on,120,0,2,,,,,,,,1,,,69,0
9960,note_on,0,0,2,,,,,,,,1,,,66,0
9960,note_on,0,0,1,,,,,,,,0,,,72,100
9960,note_on,0,0,2,,,,,,,,1,,,62,0
10080,note_on,0,0,1,,,,,,,,0,,,66,0
10080,note_on,0,0,1,,,,,,,,0,,,69,0
10080,note_on,0,0,1,,,,,,,,0,,,62,100
10080,note_on,0,0,1,,,,,,,,0,,,71,100
10080,note_on,120,0,1,,,,,,,,0,,,72,0
10080,note_on,0,0,1,,,,,,,,0,,,67,100
10200,note_on,0,0,1,,,,,,,,0,,,67,0
10200,note_on,0,0,1,,,,,,,,0,,,71,0
10200,note_on,240,0,2,,,,,,,,1,,,55,100
10200,note_on,120,0,1,,,,,,,,0,,,62,0
10320,note_on,120,0,2,,,,,,,,1,,,55,0
10320,note_on,0,0,2,,,,,,,,1,,,50,100
10440,note_on,120,0,2,,,,,,,,1,,,50,0
10440,note_on,0,0,2,,,,,,,,1,,,47,100
10560,note_on,120,0,2,,,,,,,,1,,,47,0
10560,note_on,0,0,2,,,,,,,,1,,,43,100
10640,note_on,440,0,1,,,,,,,,0,,,69,100
10720,note_on,160,0,2,,,,,,,,1,,,43,0
10720,note_on,80,0,1,,,,,,,,0,,,69,0
10720,note_on,0,0,1,,,,,,,,0,,,71,100
10720,note_on,0,0,2,,,,,,,,1,,,55,100
10800,note_on,80,0,1,,,,,,,,0,,,71,0
10800,note_on,0,0,1,,,,,,,,0,,,72,100
10800,note_on,0,0,2,,,,,,,,1,,,54,100
10800,note_on,80,0,2,,,,,,,,1,,,55,0
10880,note_on,0,0,1,,,,,,,,0,,,71,100
10880,note_on,80,0,1,,,,,,,,0,,,72,0
10960,note_on,160,0,2,,,,,,,,1,,,54,0
10960,note_on,0,0,1,,,,,,,,0,,,69,100
10960,note_on,80,0,1,,,,,,,,0,,,71,0
10960,note_on,0,0,2,,,,,,,,1,,,62,100
11040,note_on,80,0,2,,,,,,,,1,,,62,0
11040,note_on,0,0,2,,,,,,,,1,,,55,100
11040,note_on,0,0,1,,,,,,,,0,,,71,100
11040,note_on,80,0,1,,,,,,,,0,,,69,0
11120,note_on,0,0,1,,,,,,,,0,,,69,100
11120,note_on,80,0,1,,,,,,,,0,,,71,0
11200,note_on,80,0,1,,,,,,,,0,,,69,0
11200,note_on,0,0,2,,,,,,,,1,,,64,100
11200,note_on,0,0,1,,,,,,,,0,,,67,100
11200,note_on,160,0,2,,,,,,,,1,,,55,0
11280,note_on,0,0,2,,,,,,,,1,,,57,100
11280,note_on,80,0,1,,,,,,,,0,,,67,0
11280,note_on,0,0,1,,,,,,,,0,,,76,100
11280,note_on,80,0,2,,,,,,,,1,,,64,0
11360,note_on,80,0,1,,,,,,,,0,,,76,0
11360,note_on,0,0,1,,,,,,,,0,,,74,100
11440,note_on,0,0,2,,,,,,,,1,,,66,100
11440,note_on,80,0,1,,,,,,,,0,,,74,0
11440,note_on,0,0,1,,,,,,,,0,,,72,100
11440,note_on,160,0,2,,,,,,,,1,,,57,0
11520,note_on,0,0,2,,,,,,,,1,,,59,100
11520,note_on,80,0,2,,,,,,,,1,,,66,0
11520,note_on,80,0,1,,,,,,,,0,,,72,0
11520,note_on,0,0,1,,,,,,,,0,,,74,100
11600,note_on,0,0,2,,,,,,,,1,,,62,100
11600,note_on,80,0,1,,,,,,,,0,,,74,0
11600,note_on,80,0,2,,,,,,,,1,,,59,0
11680,note_on,80,0,2,,,,,,,,1,,,62,0
11680,note_on,80,0,1,,,,,,,,0,,,67,100
11760,note_on,80,0,1,,,,,,,,0,,,67,0
11760,note_on,0,0,1,,,,,,,,0,,,66,100
11840,note_on,80,0,1,,,,,,,,0,,,66,0
11840,note_on,0,0,1,,,,,,,,0,,,60,100
11920,note_on,240,0,2,,,,,,,,1,,,57,100
11920,note_on,80,0,1,,,,,,,,0,,,60,0
12000,note_on,0,0,2,,,,,,,,1,,,59,100
12000,note_on,80,0,2,,,,,,,,1,,,57,0
12080,note_on,0,0,2,,,,,,,,1,,,62,100
12080,note_on,80,0,2,,,,,,,,1,,,59,0
12160,note_on,240,0,1,,,,,,,,0,,,67,100
12160,note_on,80,0,2,,,,,,,,1,,,62,0
12240,note_on,0,0,1,,,,,,,,0,,,69,100
12240,note_on,80,0,1,,,,,,,,0,,,67,0
12320,note_on,0,0,1,,,,,,,,0,,,66,100
12320,note_on,80,0,1,,,,,,,,0,,,69,0
12400,note_on,240,0,2,,,,,,,,1,,,60,100
12400,note_on,80,0,1,,,,,,,,0,,,66,0
12480,note_on,0,0,2,,,,,,,,1,,,62,100
12480,note_on,80,0,2,,,,,,,,1,,,60,0
12560,note_on,0,0,2,,,,,,,,1,,,67,100
12560,note_on,80,0,2,,,,,,,,1,,,62,0
12640,note_on,240,0,1,,,,,,,,0,,,71,100
12640,note_on,80,0,2,,,,,,,,1,,,67,0
12720,note_on,0,0,1,,,,,,,,0,,,73,100
12720,note_on,80,0,1,,,,,,,,0,,,71,0
12800,note_on,80,0,1,,,,,,,,0,,,73,0
12800,note_on,0,0,1,,,,,,,,0,,,69,100
12880,note_on,80,0,1,,,,,,,,0,,,69,0
12880,note_on,240,0,2,,,,,,,,1,,,64,100
12960,note_on,80,0,2,,,,,,,,1,,,64,0
12960,note_on,0,0,2,,,,,,,,1,,,66,100
13040,note_on,80,0,2,,,,,,,,1,,,66,0
13040,note_on,0,0,2,,,,,,,,1,,,69,100
13120,note_on,80,0,2,,,,,,,,1,,,69,0
13120,note_on,240,0,1,,,,,,,,0,,,74,100
13200,note_on,0,0,1,,,,,,,,0,,,73,100
13200,note_on,80,0,1,,,,,,,,0,,,74,0
13280,note_on,0,0,1,,,,,,,,0,,,67,100
13280,note_on,80,0,1,,,,,,,,0,,,73,0
13360,note_on,80,0,1,,,,,,,,0,,,67,0
13360,note_on,240,0,2,,,,,,,,1,,,64,100
13440,note_on,80,0,2,,,,,,,,1,,,64,0
13440,note_on,0,0,2,,,,,,,,1,,,66,100
13520,note_on,0,0,2,,,,,,,,1,,,69,100
13520,note_on,80,0,2,,,,,,,,1,,,66,0
13600,note_on,80,0,2,,,,,,,,1,,,69,0
13600,note_on,240,0,1,,,,,,,,0,,,74,100
13680,note_on,80,0,1,,,,,,,,0,,,74,0
13680,note_on,0,0,1,,,,,,,,0,,,76,100
13760,note_on,80,0,1,,,,,,,,0,,,76,0
13760,note_on,0,0,1,,,,,,,,0,,,73,100
13840,note_on,80,0,1,,,,,,,,0,,,73,0
13840,note_on,240,0,2,,,,,,,,1,,,67,100
13920,note_on,0,0,2,,,,,,,,1,,,69,100
13920,note_on,80,0,2,,,,,,,,1,,,67,0
14000,note_on,0,0,2,,,,,,,,1,,,74,100
14000,note_on,80,0,2,,,,,,,,1,,,69,0
14080,note_on,240,0,1,,,,,,,,0,,,78,100
14080,note_on,80,0,2,,,,,,,,1,,,74,0
14160,note_on,80,0,1,,,,,,,,0,,,78,0
14160,note_on,0,0,1,,,,,,,,0,,,74,100
14240,note_on,80,0,1,,,,,,,,0,,,74,0
14240,note_on,0,0,1,,,,,,,,0,,,71,100
14320,note_on,80,0,1,,,,,,,,0,,,71,0
14320,note_on,240,0,2,,,,,,,,1,,,69,100
14400,note_on,80,0,2,,,,,,,,1,,,69,0
14400,note_on,0,0,2,,,,,,,,1,,,67,100
14480,note_on,80,0,2,,,,,,,,1,,,67,0
14480,note_on,0,0,2,,,,,,,,1,,,71,100
14560,note_on,80,0,2,,,,,,,,1,,,71,0
14560,note_on,240,0,1,,,,,,,,0,,,72,100
14640,note_on,80,0,1,,,,,,,,0,,,72,0
14640,note_on,0,0,1,,,,,,,,0,,,71,100
14720,note_on,0,0,1,,,,,,,,0,,,67,100
14720,note_on,80,0,1,,,,,,,,0,,,71,0
14800,note_on,80,0,1,,,,,,,,0,,,67,0
14800,note_on,240,0,2,,,,,,,,1,,,66,100
14880,note_on,0,0,2,,,,,,,,1,,,64,100
14880,note_on,80,0,2,,,,,,,,1,,,66,0
14960,note_on,80,0,2,,,,,,,,1,,,64,0
14960,note_on,0,0,2,,,,,,,,1,,,67,100
15040,note_on,240,0,1,,,,,,,,0,,,69,100
15040,note_on,80,0,2,,,,,,,,1,,,67,0
15120,note_on,80,0,1,,,,,,,,0,,,69,0
15120,note_on,0,0,1,,,,,,,,0,,,67,100
15200,note_on,80,0,1,,,,,,,,0,,,67,0
15200,note_on,0,0,1,,,,,,,,0,,,64,100
15280,note_on,240,0,2,,,,,,,,1,,,62,100
15280,note_on,80,0,1,,,,,,,,0,,,64,0
15360,note_on,80,0,2,,,,,,,,1,,,62,0
15360,note_on,0,0,2,,,,,,,,1,,,61,100
15440,note_on,0,0,2,,,,,,,,1,,,64,100
15440,note_on,80,0,2,,,,,,,,1,,,61,0
15520,note_on,80,0,2,,,,,,,,1,,,64,0
15520,note_on,240,0,1,,,,,,,,0,,,66,100
15600,note_on,80,0,1,,,,,,,,0,,,66,0
15600,note_on,0,0,1,,,,,,,,0,,,64,100
15680,note_on,80,0,1,,,,,,,,0,,,64,0
15680,note_on,0,0,1,,,,,,,,0,,,61,100
15760,note_on,240,0,2,,,,,,,,1,,,59,100
15760,note_on,80,0,1,,,,,,,,0,,,61,0
15840,note_on,0,0,2,,,,,,,,1,,,57,100
15840,note_on,80,0,2,,,,,,,,1,,,59,0
15920,note_on,80,0,2,,,,,,,,1,,,57,0
15920,note_on,0,0,2,,,,,,,,1,,,61,100
16000,note_on,80,0,2,,,,,,,,1,,,61,0
16000,note_on,240,0,1,,,,,,,,0,,,66,100
16080,note_on,0,0,1,,,,,,,,0,,,64,100
16080,note_on,80,0,1,,,,,,,,0,,,66,0
16160,note_on,0,0,1,,,,,,,,0,,,61,100
16160,note_on,80,0,1,,,,,,,,0,,,64,0
16240,note_on,80,0,1,,,,,,,,0,,,61,0
16240,note_on,240,0,2,,,,,,,,1,,,59,100
16320,note_on,80,0,2,,,,,,,,1,,,59,0
16320,note_on,0,0,2,,,,,,,,1,,,57,100
16400,note_on,80,0,2,,,,,,,,1,,,57,0
16400,note_on,0,0,2,,,,,,,,1,,,61,100
16480,note_on,80,0,2,,,,,,,,1,,,61,0
16480,note_on,240,0,1,,,,,,,,0,,,62,100
16560,note_on,0,0,1,,,,,,,,0,,,61,100
16560,note_on,80,0,1,,,,,,,,0,,,62,0
16640,note_on,0,0,1,,,,,,,,0,,,57,100
16640,note_on,80,0,1,,,,,,,,0,,,61,0
16720,note_on,240,0,2,,,,,,,,1,,,55,100
16720,note_on,80,0,1,,,,,,,,0,,,57,0
16800,note_on,0,0,2,,,,,,,,1,,,54,100
16800,note_on,80,0,2,,,,,,,,1,,,55,0
16880,note_on,80,0,2,,,,,,,,1,,,54,0
16880,note_on,0,0,2,,,,,,,,1,,,57,100
16960,note_on,240,0,1,,,,,,,,0,,,59,100
16960,note_on,80,0,2,,,,,,,,1,,,57,0
17040,note_on,80,0,1,,,,,,,,0,,,59,0
17040,note_on,0,0,1,,,,,,,,0,,,57,100
17120,note_on,80,0,1,,,,,,,,0,,,57,0
17120,note_on,0,0,1,,,,,,,,0,,,54,100
17200,note_on,240,0,2,,,,,,,,1,,,52,100
17200,note_on,80,0,1,,,,,,,,0,,,54,0
17280,note_on,80,0,2,,,,,,,,1,,,52,0
17280,note_on,0,0,2,,,,,,,,1,,,50,100
17360,note_on,80,0,2,,,,,,,,1,,,50,0
17360,note_on,0,0,2,,,,,,,,1,,,54,100
17440,note_on,240,0,1,,,,,,,,0,,,59,100
17440,note_on,80,0,2,,,,,,,,1,,,54,0
17520,note_on,0,0,1,,,,,,,,0,,,57,100
17520,note_on,80,0,1,,,,,,,,0,,,59,0
17600,note_on,80,0,1,,,,,,,,0,,,57,0
17600,note_on,0,0,1,,,,,,,,0,,,54,100
17680,note_on,80,0,1,,,,,,,,0,,,54,0
17680,note_on,240,0,2,,,,,,,,1,,,52,100
17760,note_on,80,0,2,,,,,,,,1,,,52,0
17760,note_on,0,0,2,,,,,,,,1,,,50,100
17840,note_on,80,0,2,,,,,,,,1,,,50,0
17840,note_on,0,0,2,,,,,,,,1,,,54,100
17920,note_on,80,0,2,,,,,,,,1,,,54,0
17920,note_on,240,0,1,,,,,,,,0,,,55,100
18000,note_on,80,0,1,,,,,,,,0,,,55,0
18000,note_on,0,0,1,,,,,,,,0,,,54,100
18080,note_on,80,0,1,,,,,,,,0,,,54,0
18080,note_on,0,0,1,,,,,,,,0,,,50,100
18160,note_on,240,0,2,,,,,,,,1,,,48,100
18160,note_on,80,0,1,,,,,,,,0,,,50,0
18240,note_on,0,0,2,,,,,,,,1,,,47,100
18240,note_on,80,0,2,,,,,,,,1,,,48,0
18320,note_on,0,0,2,,,,,,,,1,,,50,100
18320,note_on,80,0,2,,,,,,,,1,,,47,0
18400,note_on,240,0,1,,,,,,,,0,,,52,100
18400,note_on,80,0,2,,,,,,,,1,,,50,0
18480,note_on,80,0,1,,,,,,,,0,,,52,0
18480,note_on,0,0,1,,,,,,,,0,,,50,100
18560,note_on,0,0,1,,,,,,,,0,,,47,100
18560,note_on,80,0,1,,,,,,,,0,,,50,0
18640,note_on,80,0,1,,,,,,,,0,,,47,0
18640,note_on,240,0,2,,,,,,,,1,,,45,100
18720,note_on,80,0,2,,,,,,,,1,,,45,0
18720,note_on,0,0,2,,,,,,,,1,,,43,100
18800,note_on,80,0,2,,,,,,,,1,,,43,0
18800,note_on,0,0,2,,,,,,,,1,,,47,100
18880,note_on,240,0,1,,,,,,,,0,,,52,100
18880,note_on,80,0,2,,,,,,,,1,,,47,0
18960,note_on,80,0,1,,,,,,,,0,,,52,0
18960,note_on,0,0,1,,,,,,,,0,,,50,100
19040,note_on,80,0,1,,,,,,,,0,,,50,0
19040,note_on,0,0,1,,,,,,,,0,,,47,100
19120,note_on,80,0,1,,,,,,,,0,,,47,0
19120,note_on,240,0,2,,,,,,,,1,,,45,100
19200,note_on,0,0,2,,,,,,,,1,,,43,100
19200,note_on,80,0,2,,,,,,,,1,,,45,0
19280,note_on,0,0,2,,,,,,,,1,,,47,100
19280,note_on,80,0,2,,,,,,,,1,,,43,0
19360,note_on,80,0,2,,,,,,,,1,,,47,0
19360,note_on,240,0,1,,,,,,,,0,,,48,100
19440,note_on,80,0,1,,,,,,,,0,,,48,0
19440,note_on,0,0,1,,,,,,,,0,,,47,100
19520,note_on,80,0,1,,,,,,,,0,,,47,0
19520,note_on,0,0,1,,,,,,,,0,,,43,100
19600,note_on,80,0,1,,,,,,,,0,,,43,0
19600,note_on,240,0,2,,,,,,,,1,,,42,100
19680,note_on,80,0,2,,,,,,,,1,,,42,0
19680,note_on,0,0,2,,,,,,,,1,,,40,100
19760,note_on,0,0,2,,,,,,,,1,,,43,100
19760,note_on,80,0,2,,,,,,,,1,,,40,0
19840,note_on,80,0,2,,,,,,,,1,,,43,0
19840,note_on,240,0,1,,,,,,,,0,,,45,100
19920,note_on,80,0,1,,,,,,,,0,,,45,0
19920,note_on,0,0,1,,,,,,,,0,,,43,100
20000,note_on,0,0,1,,,,,,,,0,,,40,100
20000,note_on,80,0,1,,,,,,,,0,,,43,0
20080,note_on,240,0,2,,,,,,,,1,,,38,100
20080,note_on,80,0,1,,,,,,,,0,,,40,0
20160,note_on,0,0,2,,,,,,,,1,,,37,100
20160,note_on,80,0,2,,,,,,,,1,,,38,0
20240,note_on,160,0,1,,,,,,,,0,,,55,100
20320,note_on,80,0,1,,,,,,,,0,,,55,0
20320,note_on,0,0,1,,,,,,,,0,,,57,100
20400,note_on,0,0,2,,,,,,,,1,,,49,100
20400,note_on,80,0,1,,,,,,,,0,,,57,0
20400,note_on,0,0,1,,,,,,,,0,,,64,100
20400,note_on,240,0,2,,,,,,,,1,,,37,0
20480,note_on,80,0,1,,,,,,,,0,,,64,0
20480,note_on,0,0,1,,,,,,,,0,,,57,100
20560,note_on,80,0,1,,,,,,,,0,,,57,0
20560,note_on,0,0,1,,,,,,,,0,,,55,100
20640,note_on,0,0,2,,,,,,,,1,,,50,100
20640,note_on,240,0,2,,,,,,,,1,,,49,0
20640,note_on,80,0,1,,,,,,,,0,,,55,0
20720,note_on,80,0,1,,,,,,,,0,,,54,100
20800,note_on,0,0,1,,,,,,,,0,,,57,100
20800,note_on,80,0,1,,,,,,,,0,,,54,0
20880,note_on,0,0,1,,,,,,,,0,,,62,100
20880,note_on,0,0,2,,,,,,,,1,,,42,100
20880,note_on,240,0,2,,,,,,,,1,,,50,0
20880,note_on,80,0,1,,,,,,,,0,,,57,0
20960,note_on,80,0,1,,,,,,,,0,,,62,0
20960,note_on,0,0,1,,,,,,,,0,,,57,100
21040,note_on,80,0,1,,,,,,,,0,,,57,0
21040,note_on,0,0,1,,,,,,,,0,,,54,100
21120,note_on,0,0,2,,,,,,,,1,,,43,100
21120,note_on,240,0,2,,,,,,,,1,,,42,0
21120,note_on,80,0,1,,,,,,,,0,,,54,0
21200,note_on,80,0,1,,,,,,,,0,,,52,100
21280,note_on,0,0,1,,,,,,,,0,,,55,100
21280,note_on,80,0,1,,,,,,,,0,,,52,0
21360,note_on,0,0,1,,,,,,,,0,,,61,100
21360,note_on,80,0,1,,,,,,,,0,,,55,0
21360,note_on,0,0,2,,,,,,,,1,,,45,100
21360,note_on,240,0,2,,,,,,,,1,,,43,0
21440,note_on,80,0,1,,,,,,,,0,,,61,0
21440,note_on,0,0,1,,,,,,,,0,,,55,100
21520,note_on,80,0,1,,,,,,,,0,,,55,0
21520,note_on,0,0,1,,,,,,,,0,,,52,100
21600,note_on,0,0,2,,,,,,,,1,,,38,100
21600,note_on,240,0,2,,,,,,,,1,,,45,0
21600,note_on,80,0,1,,,,,,,,0,,,52,0
21840,note_on,0,0,2,,,,,,,,1,,,50,100
21840,note_on,240,0,2,,,,,,,,1,,,38,0
21960,note_on,0,0,1,,,,,,,,0,,,62,100
21960,note_on,0,0,1,,,,,,,,0,,,54,100
21960,note_on,360,0,1,,,,,,,,0,,,57,100
22080,note_on,0,0,2,,,,,,,,1,,,61,100
22080,note_on,0,0,1,,,,,,,,0,,,57,0
22080,note_on,0,0,1,,,,,,,,0,,,62,0
22080,note_on,120,0,1,,,,,,,,0,,,54,0
22080,note_on,0,0,2,,,,,,,,1,,,55,100
22080,note_on,0,0,2,,,,,,,,1,,,52,100
22080,note_on,240,0,2,,,,,,,,1,,,50,0
22200,note_on,0,0,2,,,,,,,,1,,,55,0
22200,note_on,0,0,1,,,,,,,,0,,,54,100
22200,note_on,0,0,2,,,,,,,,1,,,52,0
22200,note_on,0,0,1,,,,,,,,0,,,62,100
22200,note_on,120,0,1,,,,,,,,0,,,57,100
22200,note_on,120,0,2,,,,,,,,1,,,61,0
22320,note_on,120,0,2,,,,,,,,1,,,52,100
22320,note_on,0,0,2,,,,,,,,1,,,55,100
22320,note_on,0,0,2,,,,,,,,1,,,61,100
22320,note_on,120,0,1,,,,,,,,0,,,54,0
22320,note_on,0,0,1,,,,,,,,0,,,62,0
22320,note_on,0,0,1,,,,,,,,0,,,57,0
22440,note_on,120,0,1,,,,,,,,0,,,57,100
22440,note_on,0,0,1,,,,,,,,0,,,62,100
22440,note_on,0,0,1,,,,,,,,0,,,54,100
22440,note_on,120,0,2,,,,,,,,1,,,61,0
22440,note_on,0,0,2,,,,,,,,1,,,55,0
22440,note_on,0,0,2,,,,,,,,1,,,52,0
22560,note_on,120,0,2,,,,,,,,1,,,38,100
22560,note_on,120,0,1,,,,,,,,0,,,54,0
22560,note_on,0,0,1,,,,,,,,0,,,62,0
22560,note_on,0,0,1,,,,,,,,0,,,57,0
23040,note_on,0,0,2,,,,,,,,1,,,55,100
23040,marker,23040,1,0,,,,,,,,,,,,
23040,note_on,480,0,2,,,,,,,,1,,,38,0
23280,note_on,0,0,2,,,,,,,,1,,,43,100
23280,note_on,240,0,2,,,,,,,,1,,,55,0
23400,note_on,0,0,1,,,,,,,,0,,,67,100
23400,note_on,0,0,1,,,,,,,,0,,,62,100
23400,note_on,840,0,1,,,,,,,,0,,,59,100
23520,note_on,0,0,2,,,,,,,,1,,,66,100
23520,note_on,0,0,1,,,,,,,,0,,,59,0
23520,note_on,0,0,1,,,,,,,,0,,,62,0
23520,note_on,0,0,2,,,,,,,,1,,,60,100
23520,note_on,0,0,2,,,,,,,,1,,,57,100
23520,note_on,240,0,2,,,,,,,,1,,,43,0
23520,note_on,120,0,1,,,,,,,,0,,,67,0
23640,note_on,120,0,1,,,,,,,,0,,,59,100
23640,note_on,0,0,1,,,,,,,,0,,,62,100
23640,note_on,0,0,1,,,,,,,,0,,,67,100
23640,note_on,0,0,2,,,,,,,,1,,,60,0
23640,note_on,0,0,2,,,,,,,,1,,,57,0
23640,note_on,120,0,2,,,,,,,,1,,,66,0
23760,note_on,120,0,2,,,,,,,,1,,,57,100
23760,note_on,0,0,2,,,,,,,,1,,,60,100
23760,note_on,0,0,2,,,,,,,,1,,,66,100
23760,note_on,0,0,1,,,,,,,,0,,,59,0
23760,note_on,120,0,1,,,,,,,,0,,,67,0
23760,note_on,0,0,1,,,,,,,,0,,,62,0
23880,note_on,120,0,2,,,,,,,,1,,,66,0
23880,note_on,0,0,2,,,,,,,,1,,,60,0
23880,note_on,0,0,2,,,,,,,,1,,,57,0
23880,note_on,0,0,1,,,,,,,,0,,,67,100
23880,note_on,0,0,1,,,,,,,,0,,,62,100
23880,note_on,120,0,1,,,,,,,,0,,,59,100
24000,note_on,0,0,2,,,,,,,,1,,,66,100
24000,note_on,120,0,1,,,,,,,,0,,,67,0
24000,note_on,0,0,2,,,,,,,,1,,,60,100
24000,note_on,120,0,2,,,,,,,,1,,,57,100
24000,note_on,0,0,1,,,,,,,,0,,,59,0
24000,note_on,0,0,1,,,,,,,,0,,,62,0
24120,note_on,0,0,2,,,,,,,,1,,,57,0
24120,note_on,120,0,1,,,,,,,,0,,,59,100
24120,note_on,0,0,1,,,,,,,,0,,,62,100
24120,note_on,0,0,1,,,,,,,,0,,,67,100
24120,note_on,120,0,2,,,,,,,,1,,,66,0
24120,note_on,0,0,2,,,,,,,,1,,,60,0
24240,note_on,0,0,2,,,,,,,,1,,,66,100
24240,note_on,0,0,2,,,,,,,,1,,,60,100
24240,note_on,120,0,2,,,,,,,,1,,,57,100
24240,note_on,0,0,1,,,,,,,,0,,,62,0
24240,note_on,120,0,1,,,,,,,,0,,,67,0
24240,note_on,0,0,1,,,,,,,,0,,,59,0
24360,note_on,0,0,1,,,,,,,,0,,,67,100
24360,note_on,0,0,2,,,,,,,,1,,,57,0
24360,note_on,0,0,2,,,,,,,,1,,,60,0
24360,note_on,120,0,2,,,,,,,,1,,,66,0
24360,note_on,0,0,1,,,,,,,,0,,,62,100
24360,note_on,120,0,1,,,,,,,,0,,,59,100
24480,note_on,120,0,2,,,,,,,,1,,,54,100
24480,note_on,120,0,1,,,,,,,,0,,,67,0
24480,note_on,0,0,1,,,,,,,,0,,,62,0
24480,note_on,0,0,1,,,,,,,,0,,,59,0
24720,note_on,240,0,2,,,,,,,,1,,,54,0
24720,note_on,0,0,2,,,,,,,,1,,,42,100
24840,note_on,0,0,1,,,,,,,,0,,,74,100
24840,note_on,0,0,1,,,,,,,,0,,,69,100
24840,note_on,360,0,1,,,,,,,,0,,,66,100
24960,note_on,0,0,2,,,,,,,,1,,,64,100
24960,note_on,0,0,2,,,,,,,,1,,,67,100
24960,note_on,240,0,2,,,,,,,,1,,,42,0
24960,note_on,0,0,2,,,,,,,,1,,,73,100
24960,note_on,0,0,1,,,,,,,,0,,,69,0
24960,note_on,0,0,1,,,,,,,,0,,,66,0
24960,note_on,120,0,1,,,,,,,,0,,,74,0
25080,note_on,0,0,2,,,,,,,,1,,,67,0
25080,note_on,120,0,1,,,,,,,,0,,,66,100
25080,note_on,0,0,1,,,,,,,,0,,,69,100
25080,note_on,0,0,1,,,,,,,,0,,,74,100
25080,note_on,120,0,2,,,,,,,,1,,,73,0
25080,note_on,0,0,2,,,,,,,,1,,,64,0
25200,note_on,120,0,1,,,,,,,,0,,,74,0
25200,note_on,120,0,2,,,,,,,,1,,,64,100
25200,note_on,0,0,2,,,,,,,,1,,,67,100
25200,note_on,0,0,1,,,,,,,,0,,,69,0
25200,note_on,0,0,1,,,,,,,,0,,,66,0
25200,note_on,0,0,2,,,,,,,,1,,,73,100
25320,note_on,120,0,2,,,,,,,,1,,,73,0
25320,note_on,0,0,2,,,,,,,,1,,,67,0
25320,note_on,0,0,2,,,,,,,,1,,,64,0
25320,note_on,0,0,1,,,,,,,,0,,,69,100
25320,note_on,120,0,1,,,,,,,,0,,,66,100
25320,note_on,0,0,1,,,,,,,,0,,,74,100
25440,note_on,120,0,1,,,,,,,,0,,,74,0
25440,note_on,0,0,1,,,,,,,,0,,,69,0
25440,note_on,0,0,1,,,,,,,,0,,,66,0
25440,note_on,0,0,2,,,,,,,,1,,,67,100
25440,note_on,120,0,2,,,,,,,,1,,,64,100
25440,note_on,0,0,2,,,,,,,,1,,,73,100
25560,note_on,120,0,1,,,,,,,,0,,,66,100
25560,note_on,0,0,1,,,,,,,,0,,,69,100
25560,note_on,0,0,1,,,,,,,,0,,,74,100
25560,note_on,0,0,2,,,,,,,,1,,,64,0
25560,note_on,0,0,2,,,,,,,,1,,,67,0
25560,note_on,120,0,2,,,,,,,,1,,,73,0
25680,note_on,0,0,1,,,,,,,,0,,,69,0
25680,note_on,120,0,2,,,,,,,,1,,,64,100
25680,note_on,0,0,2,,,,,,,,1,,,73,100
25680,note_on,0,0,1,,,,,,,,0,,,66,0
25680,note_on,120,0,1,,,,,,,,0,,,74,0
25680,note_on,0,0,2,,,,,,,,1,,,67,100
25800,note_on,0,0,2,,,,,,,,1,,,67,0
25800,note_on,120,0,2,,,,,,,,1,,,73,0
25800,note_on,0,0,1,,,,,,,,0,,,74,100
25800,note_on,0,0,1,,,,,,,,0,,,69,100
25800,note_on,120,0,1,,,,,,,,0,,,66,100
25800,note_on,0,0,2,,,,,,,,1,,,64,0
25920,note_on,120,0,2,,,,,,,,1,,,52,100
25920,note_on,0,0,1,,,,,,,,0,,,69,0
25920,note_on,0,0,1,,,,,,,,0,,,66,0
25920,note_on,120,0,1,,,,,,,,0,,,74,0
26160,note_on,240,0,2,,,,,,,,1,,,52,0
26160,note_on,0,0,2,,,,,,,,1,,,40,100
26280,note_on,0,0,1,,,,,,,,0,,,79,100
26280,note_on,0,0,1,,,,,,,,0,,,76,100
26280,note_on,360,0,1,,,,,,,,0,,,71,100
26400,note_on,0,0,1,,,,,,,,0,,,71,0
26400,note_on,240,0,2,,,,,,,,1,,,40,0
26400,note_on,0,0,2,,,,,,,,1,,,69,100
26400,note_on,0,0,2,,,,,,,,1,,,78,100
26400,note_on,0,0,2,,,,,,,,1,,,74,100
26400,note_on,0,0,1,,,,,,,,0,,,79,0
26400,note_on,120,0,1,,,,,,,,0,,,76,0
26520,note_on,0,0,2,,,,,,,,1,,,78,0
26520,note_on,120,0,2,,,,,,,,1,,,74,0
26520,note_on,0,0,2,,,,,,,,1,,,69,0
26520,note_on,120,0,1,,,,,,,,0,,,76,100
26520,note_on,0,0,1,,,,,,,,0,,,71,100
26520,note_on,0,0,1,,,,,,,,0,,,79,100
26640,note_on,120,0,2,,,,,,,,1,,,67,100
26640,note_on,0,0,2,,,,,,,,1,,,73,100
26640,note_on,0,0,1,,,,,,,,0,,,76,0
26640,note_on,0,0,2,,,,,,,,1,,,76,100
26640,note_on,0,0,1,,,,,,,,0,,,71,0
26640,note_on,120,0,1,,,,,,,,0,,,79,0
26760,note_on,120,0,1,,,,,,,,0,,,76,100
26760,note_on,0,0,2,,,,,,,,1,,,67,0
26760,note_on,0,0,2,,,,,,,,1,,,76,0
26760,note_on,120,0,2,,,,,,,,1,,,73,0
26760,note_on,0,0,1,,,,,,,,0,,,79,100
26760,note_on,0,0,1,,,,,,,,0,,,71,100
26880,note_on,0,0,1,,,,,,,,0,,,71,0
26880,note_on,120,0,1,,,,,,,,0,,,79,0
26880,note_on,120,0,2,,,,,,,,1,,,74,100
26880,note_on,0,0,2,,,,,,,,1,,,69,100
26880,note_on,0,0,2,,,,,,,,1,,,78,100
26880,note_on,0,0,1,,,,,,,,0,,,76,0
27000,note_on,120,0,1,,,,,,,,0,,,76,100
27000,note_on,0,0,1,,,,,,,,0,,,79,100
27000,note_on,120,0,2,,,,,,,,1,,,78,0
27000,note_on,0,0,2,,,,,,,,1,,,69,0
27000,note_on,0,0,2,,,,,,,,1,,,74,0
27000,note_on,0,0,1,,,,,,,,0,,,71,100
27120,note_on,0,0,2,,,,,,,,1,,,76,100
27120,note_on,120,0,2,,,,,,,,1,,,73,100
27120,note_on,0,0,2,,,,,,,,1,,,67,100
27120,note_on,120,0,1,,,,,,,,0,,,79,0
27120,note_on,0,0,1,,,,,,,,0,,,71,0
27120,note_on,0,0,1,,,,,,,,0,,,76,0
27240,note_on,0,0,2,,,,,,,,1,,,73,0
27240,note_on,120,0,1,,,,,,,,0,,,76,100
27240,note_on,0,0,1,,,,,,,,0,,,79,100
27240,note_on,0,0,1,,,,,,,,0,,,73,100
27240,note_on,0,0,2,,,,,,,,1,,,67,0
27240,note_on,120,0,2,,,,,,,,1,,,76,0
27360,note_on,0,0,1,,,,,,,,0,,,78,100
27360,note_on,0,0,1,,,,,,,,0,,,69,100
27360,note_on,0,0,1,,,,,,,,0,,,79,0
27360,note_on,0,0,1,,,,,,,,0,,,76,0
27360,note_on,120,0,1,,,,,,,,0,,,73,0
27360,note_on,0,0,1,,,,,,,,0,,,74,100
27480,note_on,0,0,1,,,,,,,,0,,,69,0
27480,note_on,240,0,2,,,,,,,,1,,,62,100
27480,note_on,0,0,1,,,,,,,,0,,,74,0
27480,note_on,120,0,1,,,,,,,,0,,,78,0
27600,note_on,0,0,2,,,,,,,,1,,,57,100
27600,note_on,120,0,2,,,,,,,,1,,,62,0
27720,note_on,120,0,2,,,,,,,,1,,,57,0
27720,note_on,0,0,2,,,,,,,,1,,,54,100
27840,note_on,120,0,2,,,,,,,,1,,,54,0
27840,note_on,0,0,2,,,,,,,,1,,,50,100
27920,note_on,440,0,1,,,,,,,,0,,,84,100
28000,note_on,80,0,1,,,,,,,,0,,,84,0
28000,note_on,0,0,1,,,,,,,,0,,,83,100
28000,note_on,0,0,2,,,,,,,,1,,,62,100
28000,note_on,160,0,2,,,,,,,,1,,,50,0
28080,note_on,0,0,1,,,,,,,,0,,,72,100
28080,note_on,80,0,1,,,,,,,,0,,,83,0
28080,note_on,0,0,2,,,,,,,,1,,,52,100
28080,note_on,80,0,2,,,,,,,,1,,,62,0
28160,note_on,80,0,1,,,,,,,,0,,,72,0
28160,note_on,0,0,1,,,,,,,,0,,,83,100
28240,note_on,0,0,2,,,,,,,,1,,,60,100
28240,note_on,160,0,2,,,,,,,,1,,,52,0
28240,note_on,80,0,1,,,,,,,,0,,,83,0
28240,note_on,0,0,1,,,,,,,,0,,,81,100
28320,note_on,80,0,1,,,,,,,,0,,,81,0
28320,note_on,0,0,1,,,,,,,,0,,,71,100
28320,note_on,0,0,2,,,,,,,,1,,,50,100
28320,note_on,80,0,2,,,,,,,,1,,,60,0
28400,note_on,80,0,1,,,,,,,,0,,,71,0
28400,note_on,0,0,1,,,,,,,,0,,,81,100
28480,note_on,0,0,1,,,,,,,,0,,,79,100
28480,note_on,80,0,1,,,,,,,,0,,,81,0
28480,note_on,0,0,2,,,,,,,,1,,,59,100
28480,note_on,160,0,2,,,,,,,,1,,,50,0
28560,note_on,80,0,2,,,,,,,,1,,,59,0
28560,note_on,80,0,1,,,,,,,,0,,,79,0
28560,note_on,0,0,1,,,,,,,,0,,,69,100
28560,note_on,0,0,2,,,,,,,,1,,,48,100
28640,note_on,80,0,1,,,,,,,,0,,,69,0
28640,note_on,0,0,1,,,,,,,,0,,,79,100
28720,note_on,0,0,2,,,,,,,,1,,,57,100
28720,note_on,160,0,2,,,,,,,,1,,,48,0
28720,note_on,80,0,1,,,,,,,,0,,,79,0
28720,note_on,0,0,1,,,,,,,,0,,,78,100
28800,note_on,0,0,2,,,,,,,,1,,,47,100
28800,note_on,80,0,1,,,,,,,,0,,,78,0
28800,note_on,0,0,1,,,,,,,,0,,,74,100
28800,note_on,0,0,1,,,,,,,,0,,,79,100
28800,note_on,0,0,1,,,,,,,,0,,,71,100
28800,note_on,80,0,2,,,,,,,,1,,,57,0
29040,note_on,240,0,2,,,,,,,,1,,,47,0
29040,note_on,0,0,2,,,,,,,,1,,,59,100
29040,note_on,240,0,1,,,,,,,,0,,,71,0
29040,note_on,0,0,1,,,,,,,,0,,,79,0
29040,note_on,0,0,1,,,,,,,,0,,,74,0
29160,note_on,0,0,1,,,,,,,,0,,,74,100
29160,note_on,0,0,1,,,,,,,,0,,,71,100
29160,note_on,120,0,1,,,,,,,,0,,,79,100
29280,note_on,0,0,1,,,,,,,,0,,,71,0
29280,note_on,0,0,1,,,,,,,,0,,,79,0
29280,note_on,0,0,2,,,,,,,,1,,,69,100
29280,note_on,0,0,2,,,,,,,,1,,,72,100
29280,note_on,0,0,2,,,,,,,,1,,,78,100
29280,note_on,240,0,2,,,,,,,,1,,,59,0
29280,note_on,120,0,1,,,,,,,,0,,,74,0
29400,note_on,120,0,1,,,,,,,,0,,,74,100
29400,note_on,0,0,1,,,,,,,,0,,,71,100
29400,note_on,120,0,2,,,,,,,,1,,,69,0
29400,note_on,0,0,2,,,,,,,,1,,,72,0
29400,note_on,0,0,2,,,,,,,,1,,,78,0
29400,note_on,0,0,1,,,,,,,,0,,,79,100
29520,note_on,120,0,2,,,,,,,,1,,,72,100
29520,note_on,0,0,2,,,,,,,,1,,,69,100
29520,note_on,0,0,2,,,,,,,,1,,,78,100
29520,note_on,0,0,1,,,,,,,,0,,,74,0
29520,note_on,0,0,1,,,,,,,,0,,,71,0
29520,note_on,120,0,1,,,,,,,,0,,,79,0
29640,note_on,120,0,2,,,,,,,,1,,,78,0
29640,note_on,0,0,2,,,,,,,,1,,,72,0
29640,note_on,120,0,1,,,,,,,,0,,,71,100
29640,note_on,0,0,1,,,,,,,,0,,,79,100
29640,note_on,0,0,1,,,,,,,,0,,,74,100
29640,note_on,0,0,2,,,,,,,,1,,,69,0
29760,note_on,0,0,2,,,,,,,,1,,,69,100
29760,note_on,120,0,1,,,,,,,,0,,,74,0
29760,note_on,0,0,1,,,,,,,,0,,,71,0
29760,note_on,120,0,2,,,,,,,,1,,,78,100
29760,note_on,0,0,1,,,,,,,,0,,,79,0
29760,note_on,0,0,2,,,,,,,,1,,,72,100
29880,note_on,0,0,1,,,,,,,,0,,,79,100
29880,note_on,0,0,1,,,,,,,,0,,,71,100
29880,note_on,120,0,1,,,,,,,,0,,,74,100
29880,note_on,0,0,2,,,,,,,,1,,,78,0
29880,note_on,0,0,2,,,,,,,,1,,,69,0
29880,note_on,120,0,2,,,,,,,,1,,,72,0
30000,note_on,0,0,1,,,,,,,,0,,,74,0
30000,note_on,0,0,2,,,,,,,,1,,,71,100
30000,note_on,120,0,1,,,,,,,,0,,,79,0
30000,note_on,0,0,2,,,,,,,,1,,,67,100
30000,note_on,120,0,2,,,,,,,,1,,,74,100
30000,note_on,0,0,1,,,,,,,,0,,,71,0
30120,note_on,0,0,2,,,,,,,,1,,,67,0
30120,note_on,0,0,2,,,,,,,,1,,,74,0
30120,note_on,120,0,2,,,,,,,,1,,,71,0
30120,note_on,0,0,1,,,,,,,,0,,,74,100
30120,note_on,0,0,1,,,,,,,,0,,,77,100
30120,note_on,120,0,1,,,,,,,,0,,,71,100
30240,note_on,120,0,2,,,,,,,,1,,,48,100
30240,note_on,0,0,1,,,,,,,,0,,,71,0
30240,note_on,0,0,1,,,,,,,,0,,,74,0
30240,note_on,120,0,1,,,,,,,,0,,,77,0
30480,note_on,0,0,2,,,,,,,,1,,,60,100
30480,note_on,240,0,2,,,,,,,,1,,,48,0
30600,note_on,0,0,1,,,,,,,,0,,,72,100
30600,note_on,0,0,1,,,,,,,,0,,,76,100
30600,note_on,360,0,1,,,,,,,,0,,,67,100
30720,note_on,0,0,2,,,,,,,,1,,,65,100
30720,note_on,0,0,1,,,,,,,,0,,,67,0
30720,note_on,0,0,1,,,,,,,,0,,,72,0
30720,note_on,120,0,1,,,,,,,,0,,,76,0
30720,note_on,240,0,2,,,,,,,,1,,,60,0
30720,note_on,0,0,2,,,,,,,,1,,,74,100
30720,note_on,0,0,2,,,,,,,,1,,,71,100
30840,note_on,0,0,1,,,,,,,,0,,,72,100
30840,note_on,0,0,2,,,,,,,,1,,,71,0
30840,note_on,0,0,2,,,,,,,,1,,,65,0
30840,note_on,120,0,2,,,,,,,,1,,,74,0
30840,note_on,120,0,1,,,,,,,,0,,,67,100
30840,note_on,0,0,1,,,,,,,,0,,,76,100
30960,note_on,0,0,2,,,,,,,,1,,,65,100
30960,note_on,0,0,2,,,,,,,,1,,,71,100
30960,note_on,120,0,2,,,,,,,,1,,,74,100
30960,note_on,120,0,1,,,,,,,,0,,,76,0
30960,note_on,0,0,1,,,,,,,,0,,,72,0
30960,note_on,0,0,1,,,,,,,,0,,,67,0
31080,note_on,0,0,2,,,,,,,,1,,,74,0
31080,note_on,0,0,2,,,,,,,,1,,,71,0
31080,note_on,120,0,2,,,,,,,,1,,,65,0
31080,note_on,120,0,1,,,,,,,,0,,,72,100
31080,note_on,0,0,1,,,,,,,,0,,,76,100
31080,note_on,0,0,1,,,,,,,,0,,,67,100
31200,note_on,120,0,1,,,,,,,,0,,,76,0
31200,note_on,0,0,1,,,,,,,,0,,,67,0
31200,note_on,0,0,1,,,,,,,,0,,,72,0
31200,note_on,0,0,2,,,,,,,,1,,,74,100
31200,note_on,120,0,2,,,,,,,,1,,,65,100
31200,note_on,0,0,2,,,,,,,,1,,,71,100
31320,note_on,0,0,2,,,,,,,,1,,,74,0
31320,note_on,0,0,2,,,,,,,,1,,,65,0
31320,note_on,120,0,2,,,,,,,,1,,,71,0
31320,note_on,0,0,1,,,,,,,,0,,,76,100
31320,note_on,0,0,1,,,,,,,,0,,,67,100
31320,note_on,120,0,1,,,,,,,,0,,,72,100
31440,note_on,0,0,1,,,,,,,,0,,,72,0
31440,note_on,120,0,2,,,,,,,,1,,,69,100
31440,note_on,0,0,2,,,,,,,,1,,,72,100
31440,note_on,0,0,2,,,,,,,,1,,,64,100
31440,note_on,0,0,1,,,,,,,,0,,,67,0
31440,note_on,120,0,1,,,,,,,,0,,,76,0
31560,note_on,120,0,1,,,,,,,,0,,,67,100
31560,note_on,0,0,1,,,,,,,,0,,,76,100
31560,note_on,0,0,1,,,,,,,,0,,,72,100
31560,note_on,0,0,2,,,,,,,,1,,,69,0
31560,note_on,0,0,2,,,,,,,,1,,,72,0
31560,note_on,120,0,2,,,,,,,,1,,,64,0
31680,note_on,0,0,1,,,,,,,,0,,,72,0
31680,note_on,0,0,1,,,,,,,,0,,,67,0
31680,note_on,120,0,2,,,,,,,,1,,,50,100
31680,note_on,120,0,1,,,,,,,,0,,,76,0
31920,note_on,240,0,2,,,,,,,,1,,,50,0
31920,note_on,0,0,2,,,,,,,,1,,,62,100
32040,note_on,360,0,1,,,,,,,,0,,,74,100
32040,note_on,0,0,1,,,,,,,,0,,,69,100
32040,note_on,0,0,1,,,,,,,,0,,,66,100
32160,note_on,0,0,1,,,,,,,,0,,,74,0
32160,note_on,0,0,1,,,,,,,,0,,,69,0
32160,note_on,120,0,1,,,,,,,,0,,,66,0
32160,note_on,240,0,2,,,,,,,,1,,,62,0
32160,note_on,0,0,2,,,,,,,,1,,,73,100
32160,note_on,0,0,2,,,,,,,,1,,,67,100
32160,note_on,0,0,2,,,,,,,,1,,,64,100
32280,note_on,120,0,2,,,,,,,,1,,,64,0
32280,note_on,0,0,2,,,,,,,,1,,,67,0
32280,note_on,0,0,2,,,,,,,,1,,,73,0
32280,note_on,0,0,1,,,,,,,,0,,,69,100
32280,note_on,0,0,1,,,,,,,,0,,,66,100
32280,note_on,120,0,1,,,,,,,,0,,,74,100
32400,note_on,0,0,2,,,,,,,,1,,,73,100
32400,note_on,0,0,1,,,,,,,,0,,,66,0
32400,note_on,120,0,2,,,,,,,,1,,,64,100
32400,note_on,0,0,2,,,,,,,,1,,,67,100
32400,note_on,120,0,1,,,,,,,,0,,,69,0
32400,note_on,0,0,1,,,,,,,,0,,,74,0
32520,note_on,0,0,1,,,,,,,,0,,,66,100
32520,note_on,0,0,1,,,,,,,,0,,,74,100
32520,note_on,0,0,2,,,,,,,,1,,,67,0
32520,note_on,0,0,2,,,,,,,,1,,,64,0
32520,note_on,120,0,1,,,,,,,,0,,,69,100
32520,note_on,120,0,2,,,,,,,,1,,,73,0
32640,note_on,120,0,1,,,,,,,,0,,,66,0
32640,note_on,0,0,2,,,,,,,,1,,,64,100
32640,note_on,0,0,2,,,,,,,,1,,,67,100
32640,note_on,0,0,1,,,,,,,,0,,,69,0
32640,note_on,0,0,1,,,,,,,,0,,,74,0
32640,note_on,120,0,2,,,,,,,,1,,,73,100
32760,note_on,0,0,2,,,,,,,,1,,,73,0
32760,note_on,120,0,2,,,,,,,,1,,,64,0
32760,note_on,120,0,1,,,,,,,,0,,,66,100
32760,note_on,0,0,1,,,,,,,,0,,,74,100
32760,note_on,0,0,1,,,,,,,,0,,,69,100
32760,note_on,0,0,2,,,,,,,,1,,,67,0
32880,note_on,0,0,1,,,,,,,,0,,,66,0
32880,note_on,0,0,2,,,,,,,,1,,,69,100
32880,note_on,0,0,2,,,,,,,,1,,,66,100
32880,note_on,120,0,1,,,,,,,,0,,,69,0
32880,note_on,0,0,1,,,,,,,,0,,,74,0
32880,note_on,120,0,2,,,,,,,,1,,,62,100
33000,note_on,120,0,1,,,,,,,,0,,,66,100
33000,note_on,0,0,1,,,,,,,,0,,,72,100
33000,note_on,0,0,1,,,,,,,,0,,,69,100
33000,note_on,120,0,2,,,,,,,,1,,,69,0
33000,note_on,0,0,2,,,,,,,,1,,,62,0
33000,note_on,0,0,2,,,,,,,,1,,,66,0
33120,note_on,0,0,1,,,,,,,,0,,,62,100
33120,note_on,0,0,1,,,,,,,,0,,,67,100
33120,note_on,0,0,1,,,,,,,,0,,,71,100
33120,note_on,0,0,1,,,,,,,,0,,,66,0
33120,note_on,0,0,1,,,,,,,,0,,,69,0
33120,note_on,120,0,1,,,,,,,,0,,,72,0
33240,note_on,0,0,1,,,,,,,,0,,,67,0
33240,note_on,120,0,1,,,,,,,,0,,,62,0
33240,note_on,0,0,1,,,,,,,,0,,,71,0
33240,note_on,240,0,2,,,,,,,,1,,,55,100
33360,note_on,120,0,2,,,,,,,,1,,,55,0
33360,note_on,0,0,2,,,,,,,,1,,,50,100
33480,note_on,120,0,2,,,,,,,,1,,,50,0
33480,note_on,0,0,2,,,,,,,,1,,,47,100
33600,note_on,120,0,2,,,,,,,,1,,,47,0
33600,note_on,0,0,2,,,,,,,,1,,,43,100
33680,note_on,440,0,1,,,,,,,,0,,,69,100
33760,note_on,160,0,2,,,,,,,,1,,,43,0
33760,note_on,80,0,1,,,,,,,,0,,,69,0
33760,note_on,0,0,1,,,,,,,,0,,,71,100
33760,note_on,0,0,2,,,,,,,,1,,,55,100
33840,note_on,80,0,2,,,,,,,,1,,,55,0
33840,note_on,80,0,1,,,,,,,,0,,,71,0
33840,note_on,0,0,1,,,,,,,,0,,,72,100
33840,note_on,0,0,2,,,,,,,,1,,,54,100
33920,note_on,80,0,1,,,,,,,,0,,,72,0
33920,note_on,0,0,1,,,,,,,,0,,,71,100
34000,note_on,0,0,1,,,,,,,,0,,,69,100
34000,note_on,0,0,2,,,,,,,,1,,,62,100
34000,note_on,160,0,2,,,,,,,,1,,,54,0
34000,note_on,80,0,1,,,,,,,,0,,,71,0
34080,note_on,80,0,1,,,,,,,,0,,,69,0
34080,note_on,0,0,1,,,,,,,,0,,,71,100
34080,note_on,80,0,2,,,,,,,,1,,,62,0
34080,note_on,0,0,2,,,,,,,,1,,,55,100
34160,note_on,80,0,1,,,,,,,,0,,,71,0
34160,note_on,0,0,1,,,,,,,,0,,,69,100
34240,note_on,0,0,1,,,,,,,,0,,,67,100
34240,note_on,0,0,2,,,,,,,,1,,,64,100
34240,note_on,160,0,2,,,,,,,,1,,,55,0
34240,note_on,80,0,1,,,,,,,,0,,,69,0
34320,note_on,80,0,2,,,,,,,,1,,,64,0
34320,note_on,80,0,1,,,,,,,,0,,,67,0
34320,note_on,0,0,1,,,,,,,,0,,,76,100
34320,note_on,0,0,2,,,,,,,,1,,,57,100
34400,note_on,80,0,1,,,,,,,,0,,,76,0
34400,note_on,0,0,1,,,,,,,,0,,,74,100
34480,note_on,80,0,1,,,,,,,,0,,,74,0
34480,note_on,160,0,2,,,,,,,,1,,,57,0
34480,note_on,0,0,2,,,,,,,,1,,,66,100
34480,note_on,0,0,1,,,,,,,,0,,,72,100
34560,note_on,80,0,1,,,,,,,,0,,,72,0
34560,note_on,0,0,1,,,,,,,,0,,,74,100
34560,note_on,80,0,2,,,,,,,,1,,,66,0
34560,note_on,0,0,2,,,,,,,,1,,,59,100
34640,note_on,0,0,2,,,,,,,,1,,,62,100
34640,note_on,80,0,1,,,,,,,,0,,,74,0
34640,note_on,80,0,2,,,,,,,,1,,,59,0
34720,note_on,80,0,2,,,,,,,,1,,,62,0
34720,note_on,80,0,1,,,,,,,,0,,,67,100
34800,note_on,0,0,1,,,,,,,,0,,,66,100
34800,note_on,80,0,1,,,,,,,,0,,,67,0
34880,note_on,0,0,1,,,,,,,,0,,,60,100
34880,note_on,80,0,1,,,,,,,,0,,,66,0
34960,note_on,240,0,2,,,,,,,,1,,,57,100
34960,note_on,80,0,1,,,,,,,,0,,,60,0
35040,note_on,80,0,2,,,,,,,,1,,,57,0
35040,note_on,0,0,2,,,,,,,,1,,,59,100
35120,note_on,80,0,2,,,,,,,,1,,,59,0
35120,note_on,0,0,2,,,,,,,,1,,,62,100
35200,note_on,240,0,1,,,,,,,,0,,,67,100
35200,note_on,80,0,2,,,,,,,,1,,,62,0
35280,note_on,80,0,1,,,,,,,,0,,,67,0
35280,note_on,0,0,1,,,,,,,,0,,,69,100
35360,note_on,80,0,1,,,,,,,,0,,,69,0
35360,note_on,0,0,1,,,,,,,,0,,,66,100
35440,note_on,240,0,2,,,,,,,,1,,,60,100
35440,note_on,80,0,1,,,,,,,,0,,,66,0
35520,note_on,80,0,2,,,,,,,,1,,,60,0
35520,note_on,0,0,2,,,,,,,,1,,,62,100
35600,note_on,80,0,2,,,,,,,,1,,,62,0
35600,note_on,0,0,2,,,,,,,,1,,,67,100
35680,note_on,80,0,2,,,,,,,,1,,,67,0
35680,note_on,240,0,1,,,,,,,,0,,,71,100
35760,note_on,0,0,1,,,,,,,,0,,,73,100
35760,note_on,80,0,1,,,,,,,,0,,,71,0
35840,note_on,0,0,1,,,,,,,,0,,,69,100
35840,note_on,80,0,1,,,,,,,,0,,,73,0
35920,note_on,80,0,1,,,,,,,,0,,,69,0
35920,note_on,240,0,2,,,,,,,,1,,,64,100
36000,note_on,80,0,2,,,,,,,,1,,,64,0
36000,note_on,0,0,2,,,,,,,,1,,,66,100
36080,note_on,0,0,2,,,,,,,,1,,,69,100
36080,note_on,80,0,2,,,,,,,,1,,,66,0
36160,note_on,80,0,2,,,,,,,,1,,,69,0
36160,note_on,240,0,1,,,,,,,,0,,,74,100
36240,note_on,0,0,1,,,,,,,,0,,,73,100
36240,note_on,80,0,1,,,,,,,,0,,,74,0
36320,note_on,0,0,1,,,,,,,,0,,,67,100
36320,note_on,80,0,1,,,,,,,,0,,,73,0
36400,note_on,240,0,2,,,,,,,,1,,,64,100
36400,note_on,80,0,1,,,,,,,,0,,,67,0
36480,note_on,0,0,2,,,,,,,,1,,,66,100
36480,note_on,80,0,2,,,,,,,,1,,,64,0
36560,note_on,0,0,2,,,,,,,,1,,,69,100
36560,note_on,80,0,2,,,,,,,,1,,,66,0
36640,note_on,80,0,2,,,,,,,,1,,,69,0
36640,note_on,240,0,1,,,,,,,,0,,,74,100
36720,note_on,80,0,1,,,,,,,,0,,,74,0
36720,note_on,0,0,1,,,,,,,,0,,,76,100
36800,note_on,0,0,1,,,,,,,,0,,,73,100
36800,note_on,80,0,1,,,,,,,,0,,,76,0
36880,note_on,240,0,2,,,,,,,,1,,,67,100
36880,note_on,80,0,1,,,,,,,,0,,,73,0
36960,note_on,0,0,2,,,,,,,,1,,,69,100
36960,note_on,80,0,2,,,,,,,,1,,,67,0
37040,note_on,0,0,2,,,,,,,,1,,,74,100
37040,note_on,80,0,2,,,,,,,,1,,,69,0
37120,note_on,80,0,2,,,,,,,,1,,,74,0
37120,note_on,240,0,1,,,,,,,,0,,,78,100
37200,note_on,80,0,1,,,,,,,,0,,,78,0
37200,note_on,0,0,1,,,,,,,,0,,,74,100
37280,note_on,80,0,1,,,,,,,,0,,,74,0
37280,note_on,0,0,1,,,,,,,,0,,,71,100
37360,note_on,80,0,1,,,,,,,,0,,,71,0
37360,note_on,240,0,2,,,,,,,,1,,,69,100
37440,note_on,80,0,2,,,,,,,,1,,,69,0
37440,note_on,0,0,2,,,,,,,,1,,,67,100
37520,note_on,80,0,2,,,,,,,,1,,,67,0
37520,note_on,0,0,2,,,,,,,,1,,,71,100
37600,note_on,80,0,2,,,,,,,,1,,,71,0
37600,note_on,240,0,1,,,,,,,,0,,,72,100
37680,note_on,80,0,1,,,,,,,,0,,,72,0
37680,note_on,0,0,1,,,,,,,,0,,,71,100
37760,note_on,80,0,1,,,,,,,,0,,,71,0
37760,note_on,0,0,1,,,,,,,,0,,,67,100
37840,note_on,80,0,1,,,,,,,,0,,,67,0
37840,note_on,240,0,2,,,,,,,,1,,,66,100
37920,note_on,0,0,2,,,,,,,,1,,,64,100
37920,note_on,80,0,2,,,,,,,,1,,,66,0
38000,note_on,80,0,2,,,,,,,,1,,,64,0
38000,note_on,0,0,2,,,,,,,,1,,,67,100
38080,note_on,240,0,1,,,,,,,,0,,,69,100
38080,note_on,80,0,2,,,,,,,,1,,,67,0
38160,note_on,0,0,1,,,,,,,,0,,,67,100
38160,note_on,80,0,1,,,,,,,,0,,,69,0
38240,note_on,80,0,1,,,,,,,,0,,,67,0
38240,note_on,0,0,1,,,,,,,,0,,,64,100
38320,note_on,240,0,2,,,,,,,,1,,,62,100
38320,note_on,80,0,1,,,,,,,,0,,,64,0
38400,note_on,0,0,2,,,,,,,,1,,,61,100
38400,note_on,80,0,2,,,,,,,,1,,,62,0
38480,note_on,80,0,2,,,,,,,,1,,,61,0
38480,note_on,0,0,2,,,,,,,,1,,,64,100
38560,note_on,240,0,1,,,,,,,,0,,,66,100
38560,note_on,80,0,2,,,,,,,,1,,,64,0
38640,note_on,80,0,1,,,,,,,,0,,,66,0
38640,note_on,0,0,1,,,,,,,,0,,,64,100
38720,note_on,0,0,1,,,,,,,,0,,,61,100
38720,note_on,80,0,1,,,,,,,,0,,,64,0
38800,note_on,240,0,2,,,,,,,,1,,,59,100
38800,note_on,80,0,1,,,,,,,,0,,,61,0
38880,note_on,0,0,2,,,,,,,,1,,,57,100
38880,note_on,80,0,2,,,,,,,,1,,,59,0
38960,note_on,0,0,2,,,,,,,,1,,,61,100
38960,note_on,80,0,2,,,,,,,,1,,,57,0
39040,note_on,240,0,1,,,,,,,,0,,,66,100
39040,note_on,80,0,2,,,,,,,,1,,,61,0
39120,note_on,80,0,1,,,,,,,,0,,,66,0
39120,note_on,0,0,1,,,,,,,,0,,,64,100
39200,note_on,80,0,1,,,,,,,,0,,,64,0
39200,note_on,0,0,1,,,,,,,,0,,,61,100
39280,note_on,80,0,1,,,,,,,,0,,,61,0
39280,note_on,240,0,2,,,,,,,,1,,,59,100
39360,note_on,0,0,2,,,,,,,,1,,,57,100
39360,note_on,80,0,2,,,,,,,,1,,,59,0
39440,note_on,0,0,2,,,,,,,,1,,,61,100
39440,note_on,80,0,2,,,,,,,,1,,,57,0
39520,note_on,240,0,1,,,,,,,,0,,,62,100
39520,note_on,80,0,2,,,,,,,,1,,,61,0
39600,note_on,80,0,1,,,,,,,,0,,,62,0
39600,note_on,0,0,1,,,,,,,,0,,,61,100
39680,note_on,80,0,1,,,,,,,,0,,,61,0
39680,note_on,0,0,1,,,,,,,,0,,,57,100
39760,note_on,80,0,1,,,,,,,,0,,,57,0
39760,note_on,240,0,2,,,,,,,,1,,,55,100
39840,note_on,80,0,2,,,,,,,,1,,,55,0
39840,note_on,0,0,2,,,,,,,,1,,,54,100
39920,note_on,80,0,2,,,,,,,,1,,,54,0
39920,note_on,0,0,2,,,,,,,,1,,,57,100
40000,note_on,240,0,1,,,,,,,,0,,,59,100
40000,note_on,80,0,2,,,,,,,,1,,,57,0
40080,note_on,80,0,1,,,,,,,,0,,,59,0
40080,note_on,0,0,1,,,,,,,,0,,,57,100
40160,note_on,0,0,1,,,,,,,,0,,,54,100
40160,note_on,80,0,1,,,,,,,,0,,,57,0
40240,note_on,80,0,1,,,,,,,,0,,,54,0
40240,note_on,240,0,2,,,,,,,,1,,,52,100
40320,note_on,80,0,2,,,,,,,,1,,,52,0
40320,note_on,0,0,2,,,,,,,,1,,,50,100
40400,note_on,0,0,2,,,,,,,,1,,,54,100
40400,note_on,80,0,2,,,,,,,,1,,,50,0
40480,note_on,80,0,2,,,,,,,,1,,,54,0
40480,note_on,240,0,1,,,,,,,,0,,,59,100
40560,note_on,0,0,1,,,,,,,,0,,,57,100
40560,note_on,80,0,1,,,,,,,,0,,,59,0
40640,note_on,0,0,1,,,,,,,,0,,,54,100
40640,note_on,80,0,1,,,,,,,,0,,,57,0
40720,note_on,80,0,1,,,,,,,,0,,,54,0
40720,note_on,240,0,2,,,,,,,,1,,,52,100
40800,note_on,0,0,2,,,,,,,,1,,,50,100
40800,note_on,80,0,2,,,,,,,,1,,,52,0
40880,note_on,0,0,2,,,,,,,,1,,,54,100
40880,note_on,80,0,2,,,,,,,,1,,,50,0
40960,note_on,80,0,2,,,,,,,,1,,,54,0
40960,note_on,240,0,1,,,,,,,,0,,,55,100
41040,note_on,0,0,1,,,,,,,,0,,,54,100
41040,note_on,80,0,1,,,,,,,,0,,,55,0
41120,note_on,80,0,1,,,,,,,,0,,,54,0
41120,note_on,0,0,1,,,,,,,,0,,,50,100
41200,note_on,80,0,1,,,,,,,,0,,,50,0
41200,note_on,240,0,2,,,,,,,,1,,,48,100
41280,note_on,80,0,2,,,,,,,,1,,,48,0
41280,note_on,0,0,2,,,,,,,,1,,,47,100
41360,note_on,80,0,2,,,,,,,,1,,,47,0
41360,note_on,0,0,2,,,,,,,,1,,,50,100
41440,note_on,240,0,1,,,,,,,,0,,,52,100
41440,note_on,80,0,2,,,,,,,,1,,,50,0
41520,note_on,80,0,1,,,,,,,,0,,,52,0
41520,note_on,0,0,1,,,,,,,,0,,,50,100
41600,note_on,80,0,1,,,,,,,,0,,,50,0
41600,note_on,0,0,1,,,,,,,,0,,,47,100
41680,note_on,80,0,1,,,,,,,,0,,,47,0
41680,note_on,240,0,2,,,,,,,,1,,,45,100
41760,note_on,0,0,2,,,,,,,,1,,,43,100
41760,note_on,80,0,2,,,,,,,,1,,,45,0
41840,note_on,0,0,2,,,,,,,,1,,,47,100
41840,note_on,80,0,2,,,,,,,,1,,,43,0
41920,note_on,80,0,2,,,,,,,,1,,,47,0
41920,note_on,240,0,1,,,,,,,,0,,,52,100
42000,note_on,0,0,1,,,,,,,,0,,,50,100
42000,note_on,80,0,1,,,,,,,,0,,,52,0
42080,note_on,0,0,1,,,,,,,,0,,,47,100
42080,note_on,80,0,1,,,,,,,,0,,,50,0
42160,note_on,240,0,2,,,,,,,,1,,,45,100
42160,note_on,80,0,1,,,,,,,,0,,,47,0
42240,note_on,0,0,2,,,,,,,,1,,,43,100
42240,note_on,80,0,2,,,,,,,,1,,,45,0
42320,note_on,0,0,2,,,,,,,,1,,,47,100
42320,note_on,80,0,2,,,,,,,,1,,,43,0
42400,note_on,240,0,1,,,,,,,,0,,,48,100
42400,note_on,80,0,2,,,,,,,,1,,,47,0
42480,note_on,80,0,1,,,,,,,,0,,,48,0
42480,note_on,0,0,1,,,,,,,,0,,,47,100
42560,note_on,80,0,1,,,,,,,,0,,,47,0
42560,note_on,0,0,1,,,,,,,,0,,,43,100
42640,note_on,240,0,2,,,,,,,,1,,,42,100
42640,note_on,80,0,1,,,,,,,,0,,,43,0
42720,note_on,80,0,2,,,,,,,,1,,,42,0
42720,note_on,0,0,2,,,,,,,,1,,,40,100
42800,note_on,80,0,2,,,,,,,,1,,,40,0
42800,note_on,0,0,2,,,,,,,,1,,,43,100
42880,note_on,240,0,1,,,,,,,,0,,,45,100
42880,note_on,80,0,2,,,,,,,,1,,,43,0
42960,note_on,0,0,1,,,,,,,,0,,,43,100
42960,note_on,80,0,1,,,,,,,,0,,,45,0
43040,note_on,0,0,1,,,,,,,,0,,,40,100
43040,note_on,80,0,1,,,,,,,,0,,,43,0
43120,note_on,80,0,1,,,,,,,,0,,,40,0
43120,note_on,240,0,2,,,,,,,,1,,,38,100
43200,note_on,80,0,2,,,,,,,,1,,,38,0
43200,note_on,0,0,2,,,,,,,,1,,,37,100
43280,note_on,160,0,1,,,,,,,,0,,,55,100
43360,note_on,0,0,1,,,,,,,,0,,,57,100
43360,note_on,80,0,1,,,,,,,,0,,,55,0
43440,note_on,0,0,2,,,,,,,,1,,,49,100
43440,note_on,240,0,2,,,,,,,,1,,,37,0
43440,note_on,80,0,1,,,,,,,,0,,,57,0
43440,note_on,0,0,1,,,,,,,,0,,,64,100
43520,note_on,0,0,1,,,,,,,,0,,,57,100
43520,note_on,80,0,1,,,,,,,,0,,,64,0
43600,note_on,0,0,1,,,,,,,,0,,,55,100
43600,note_on,80,0,1,,,,,,,,0,,,57,0
43680,note_on,0,0,2,,,,,,,,1,,,50,100
43680,note_on,240,0,2,,,,,,,,1,,,49,0
43680,note_on,80,0,1,,,,,,,,0,,,55,0
43760,note_on,80,0,1,,,,,,,,0,,,54,100
43840,note_on,80,0,1,,,,,,,,0,,,54,0
43840,note_on,0,0,1,,,,,,,,0,,,57,100
43920,note_on,240,0,2,,,,,,,,1,,,50,0
43920,note_on,0,0,2,,,,,,,,1,,,42,100
43920,note_on,80,0,1,,,,,,,,0,,,57,0
43920,note_on,0,0,1,,,,,,,,0,,,62,100
44000,note_on,80,0,1,,,,,,,,0,,,62,0
44000,note_on,0,0,1,,,,,,,,0,,,57,100
44080,note_on,80,0,1,,,,,,,,0,,,57,0
44080,note_on,0,0,1,,,,,,,,0,,,54,100
44160,note_on,240,0,2,,,,,,,,1,,,42,0
44160,note_on,0,0,2,,,,,,,,1,,,43,100
44160,note_on,80,0,1,,,,,,,,0,,,54,0
44240,note_on,80,0,1,,,,,,,,0,,,52,100
44320,note_on,0,0,1,,,,,,,,0,,,55,100
44320,note_on,80,0,1,,,,,,,,0,,,52,0
44400,note_on,80,0,1,,,,,,,,0,,,55,0
44400,note_on,0,0,1,,,,,,,,0,,,61,100
44400,note_on,0,0,2,,,,,,,,1,,,45,100
44400,note_on,240,0,2,,,,,,,,1,,,43,0
44480,note_on,80,0,1,,,,,,,,0,,,61,0
44480,note_on,0,0,1,,,,,,,,0,,,55,100
44560,note_on,80,0,1,,,,,,,,0,,,55,0
44560,note_on,0,0,1,,,,,,,,0,,,52,100
44640,note_on,80,0,1,,,,,,,,0,,,52,0
44640,note_on,240,0,2,,,,,,,,1,,,45,0
44640,note_on,0,0,2,,,,,,,,1,,,38,100
44880,note_on,240,0,2,,,,,,,,1,,,38,0
44880,note_on,0,0,2,,,,,,,,1,,,50,100
45000,note_on,0,0,1,,,,,,,,0,,,54,100
45000,note_on,0,0,1,,,,,,,,0,,,62,100
45000,note_on,360,0,1,,,,,,,,0,,,57,100
45120,note_on,120,0,1,,,,,,,,0,,,54,0
45120,note_on,240,0,2,,,,,,,,1,,,50,0
45120,note_on,0,0,2,,,,,,,,1,,,52,100
45120,note_on,0,0,1,,,,,,,,0,,,62,0
45120,note_on,0,0,2,,,,,,,,1,,,61,100
45120,note_on,0,0,2,,,,,,,,1,,,55,100
45120,note_on,0,0,1,,,,,,,,0,,,57,0
45240,note_on,0,0,2,,,,,,,,1,,,55,0
45240,note_on,0,0,2,,,,,,,,1,,,52,0
45240,note_on,0,0,1,,,,,,,,0,,,54,100
45240,note_on,0,0,1,,,,,,,,0,,,62,100
45240,note_on,120,0,1,,,,,,,,0,,,57,100
45240,note_on,120,0,2,,,,,,,,1,,,61,0
45360,note_on,120,0,2,,,,,,,,1,,,52,100
45360,note_on,0,0,2,,,,,,,,1,,,55,100
45360,note_on,0,0,2,,,,,,,,1,,,61,100
45360,note_on,120,0,1,,,,,,,,0,,,54,0
45360,note_on,0,0,1,,,,,,,,0,,,62,0
45360,note_on,0,0,1,,,,,,,,0,,,57,0
45480,note_on,120,0,1,,,,,,,,0,,,57,100
45480,note_on,0,0,1,,,,,,,,0,,,54,100
45480,note_on,0,0,1,,,,,,,,0,,,62,100
45480,note_on,120,0,2,,,,,,,,1,,,61,0
45480,note_on,0,0,2,,,,,,,,1,,,55,0
45480,note_on,0,0,2,,,,,,,,1,,,52,0
45600,note_on,120,0,1,,,,,,,,0,,,54,0
45600,note_on,120,0,2,,,,,,,,1,,,38,100
45600,note_on,0,0,1,,,,,,,,0,,,57,0
45600,note_on,0,0,1,,,,,,,,0,,,62,0
46080,note_on,480,0,2,,,,,,,,1,,,38,0
46080,note_on,0,0,2,,,,,,,,1,,,74,100
46080,marker,23040,1,0,,,,,,,,,,,,
46160,note_on,80,0,2,,,,,,,,1,,,74,0
46160,note_on,0,0,2,,,,,,,,1,,,78,100
46240,note_on,80,0,2,,,,,,,,1,,,78,0
46240,note_on,640,0,1,,,,,,,,0,,,83,100
46320,note_on,80,0,1,,,,,,,,0,,,83,0
46320,note_on,0,0,1,,,,,,,,0,,,81,100
46400,note_on,0,0,1,,,,,,,,0,,,78,100
46400,note_on,80,0,1,,,,,,,,0,,,81,0
46480,note_on,240,0,2,,,,,,,,1,,,76,100
46480,note_on,80,0,1,,,,,,,,0,,,78,0
46560,note_on,80,0,2,,,,,,,,1,,,76,0
46560,note_on,0,0,2,,,,,,,,1,,,74,100
46640,note_on,0,0,2,,,,,,,,1,,,78,100
46640,note_on,80,0,2,,,,,,,,1,,,74,0
46720,note_on,240,0,1,,,,,,,,0,,,79,100
46720,note_on,80,0,2,,,,,,,,1,,,78,0
46800,note_on,0,0,1,,,,,,,,0,,,78,100
46800,note_on,80,0,1,,,,,,,,0,,,79,0
46880,note_on,0,0,1,,,,,,,,0,,,74,100
46880,note_on,80,0,1,,,,,,,,0,,,78,0
46960,note_on,80,0,1,,,,,,,,0,,,74,0
46960,note_on,240,0,2,,,,,,,,1,,,72,100
47040,note_on,80,0,2,,,,,,,,1,,,72,0
47040,note_on,0,0,2,,,,,,,,1,,,71,100
47120,note_on,80,0,2,,,,,,,,1,,,71,0
47120,note_on,0,0,2,,,,,,,,1,,,74,100
47200,note_on,240,0,1,,,,,,,,0,,,76,100
47200,note_on,80,0,2,,,,,,,,1,,,74,0
47280,note_on,80,0,1,,,,,,,,0,,,76,0
47280,note_on,0,0,1,,,,,,,,0,,,74,100
47360,note_on,80,0,1,,,,,,,,0,,,74,0
47360,note_on,0,0,1,,,,,,,,0,,,71,100
47440,note_on,80,0,1,,,,,,,,0,,,71,0
47440,note_on,240,0,2,,,,,,,,1,,,69,100
47520,note_on,0,0,2,,,,,,,,1,,,67,100
47520,note_on,80,0,2,,,,,,,,1,,,69,0
47600,note_on,80,0,2,,,,,,,,1,,,67,0
47600,note_on,0,0,2,,,,,,,,1,,,71,100
47680,note_on,80,0,2,,,,,,,,1,,,71,0
47680,note_on,240,0,1,,,,,,,,0,,,76,100
47760,note_on,0,0,1,,,,,,,,0,,,74,100
47760,note_on,80,0,1,,,,,,,,0,,,76,0
47840,note_on,0,0,1,,,,,,,,0,,,71,100
47840,note_on,80,0,1,,,,,,,,0,,,74,0
47920,note_on,240,0,2,,,,,,,,1,,,69,100
47920,note_on,80,0,1,,,,,,,,0,,,71,0
48000,note_on,0,0,2,,,,,,,,1,,,67,100
48000,note_on,80,0,2,,,,,,,,1,,,69,0
48080,note_on,80,0,2,,,,,,,,1,,,67,0
48080,note_on,0,0,2,,,,,,,,1,,,71,100
48160,note_on,80,0,2,,,,,,,,1,,,71,0
48160,note_on,240,0,1,,,,,,,,0,,,72,100
48240,note_on,0,0,1,,,,,,,,0,,,71,100
48240,note_on,80,0,1,,,,,,,,0,,,72,0
48320,note_on,0,0,1,,,,,,,,0,,,67,100
48320,note_on,80,0,1,,,,,,,,0,,,71,0
48400,note_on,80,0,1,,,,,,,,0,,,67,0
48400,note_on,240,0,2,,,,,,,,1,,,66,100
48480,note_on,80,0,2,,,,,,,,1,,,66,0
48480,note_on,0,0,2,,,,,,,,1,,,64,100
48560,note_on,80,0,2,,,,,,,,1,,,64,0
48560,note_on,0,0,2,,,,,,,,1,,,67,100
48640,note_on,240,0,1,,,,,,,,0,,,69,100
48640,note_on,80,0,2,,,,,,,,1,,,67,0
48720,note_on,0,0,1,,,,,,,,0,,,67,100
48720,note_on,80,0,1,,,,,,,,0,,,69,0
48800,note_on,0,0,1,,,,,,,,0,,,64,100
48800,note_on,80,0,1,,,,,,,,0,,,67,0
48880,note_on,240,0,2,,,,,,,,1,,,62,100
48880,note_on,80,0,1,,,,,,,,0,,,64,0
48960,note_on,0,0,2,,,,,,,,1,,,60,100
48960,note_on,80,0,2,,,,,,,,1,,,62,0
49040,note_on,0,0,2,,,,,,,,1,,,64,100
49040,note_on,80,0,2,,,,,,,,1,,,60,0
49120,note_on,240,0,1,,,,,,,,0,,,65,100
49120,note_on,80,0,2,,,,,,,,1,,,64,0
49200,note_on,0,0,1,,,,,,,,0,,,64,100
49200,note_on,80,0,1,,,,,,,,0,,,65,0
49280,note_on,80,0,1,,,,,,,,0,,,64,0
49280,note_on,0,0,1,,,,,,,,0,,,60,100
49360,note_on,80,0,1,,,,,,,,0,,,60,0
49360,note_on,240,0,2,,,,,,,,1,,,59,100
49440,note_on,80,0,2,,,,,,,,1,,,59,0
49440,note_on,0,0,2,,,,,,,,1,,,57,100
49520,note_on,80,0,2,,,,,,,,1,,,57,0
49520,note_on,0,0,2,,,,,,,,1,,,60,100
49600,note_on,80,0,2,,,,,,,,1,,,60,0
49600,note_on,240,0,1,,,,,,,,0,,,62,100
49680,note_on,0,0,1,,,,,,,,0,,,60,100
49680,note_on,80,0,1,,,,,,,,0,,,62,0
49760,note_on,0,0,1,,,,,,,,0,,,57,100
49760,note_on,80,0,1,,,,,,,,0,,,60,0
49840,note_on,240,0,2,,,,,,,,1,,,55,100
49840,note_on,80,0,1,,,,,,,,0,,,57,0
49920,note_on,80,0,2,,,,,,,,1,,,55,0
49920,note_on,0,0,2,,,,,,,,1,,,54,100
50000,note_on,0,0,2,,,,,,,,1,,,57,100
50000,note_on,80,0,2,,,,,,,,1,,,54,0
50080,note_on,80,0,2,,,,,,,,1,,,57,0
50080,note_on,240,0,1,,,,,,,,0,,,59,100
50160,note_on,0,0,1,,,,,,,,0,,,57,100
50160,note_on,80,0,1,,,,,,,,0,,,59,0
50240,note_on,80,0,1,,,,,,,,0,,,57,0
50240,note_on,0,0,1,,,,,,,,0,,,54,100
50320,note_on,240,0,2,,,,,,,,1,,,52,100
50320,note_on,80,0,1,,,,,,,,0,,,54,0
50400,note_on,0,0,2,,,,,,,,1,,,51,100
50400,note_on,80,0,2,,,,,,,,1,,,52,0
50480,note_on,80,0,2,,,,,,,,1,,,51,0
50480,note_on,0,0,2,,,,,,,,1,,,54,100
50560,note_on,240,0,1,,,,,,,,0,,,55,100
50560,note_on,80,0,2,,,,,,,,1,,,54,0
50640,note_on,0,0,1,,,,,,,,0,,,54,100
50640,note_on,80,0,1,,,,,,,,0,,,55,0
50720,note_on,0,0,1,,,,,,,,0,,,51,100
50720,note_on,80,0,1,,,,,,,,0,,,54,0
50800,note_on,240,0,2,,,,,,,,1,,,49,100
50800,note_on,80,0,1,,,,,,,,0,,,51,0
50880,note_on,80,0,2,,,,,,,,1,,,49,0
50880,note_on,0,0,2,,,,,,,,1,,,47,100
50960,note_on,80,0,2,,,,,,,,1,,,47,0
50960,note_on,0,0,2,,,,,,,,1,,,51,100
51040,note_on,240,0,1,,,,,,,,0,,,52,100
51040,note_on,80,0,2,,,,,,,,1,,,51,0
51120,note_on,0,0,1,,,,,,,,0,,,51,100
51120,note_on,80,0,1,,,,,,,,0,,,52,0
51200,note_on,80,0,1,,,,,,,,0,,,51,0
51200,note_on,0,0,1,,,,,,,,0,,,47,100
51280,note_on,240,0,2,,,,,,,,1,,,45,100
51280,note_on,80,0,1,,,,,,,,0,,,47,0
51360,note_on,0,0,2,,,,,,,,1,,,43,100
51360,note_on,80,0,2,,,,,,,,1,,,45,0
51440,note_on,0,0,2,,,,,,,,1,,,47,100
51440,note_on,80,0,2,,,,,,,,1,,,43,0
51520,note_on,80,0,2,,,,,,,,1,,,47,0
51520,note_on,240,0,1,,,,,,,,0,,,48,100
51600,note_on,0,0,1,,,,,,,,0,,,47,100
51600,note_on,80,0,1,,,,,,,,0,,,48,0
51680,note_on,0,0,1,,,,,,,,0,,,43,100
51680,note_on,80,0,1,,,,,,,,0,,,47,0
51760,note_on,80,0,1,,,,,,,,0,,,43,0
51760,note_on,240,0,2,,,,,,,,1,,,42,100
51840,note_on,0,0,2,,,,,,,,1,,,40,100
51840,note_on,80,0,2,,,,,,,,1,,,42,0
52080,note_on,0,0,2,,,,,,,,1,,,52,100
52080,note_on,240,0,2,,,,,,,,1,,,40,0
52200,note_on,0,0,1,,,,,,,,0,,,76,100
52200,note_on,440,0,1,,,,,,,,0,,,67,100
52200,note_on,0,0,1,,,,,,,,0,,,71,100
52320,note_on,240,0,2,,,,,,,,1,,,52,0
52320,note_on,0,0,2,,,,,,,,1,,,69,100
52320,note_on,120,0,1,,,,,,,,0,,,76,0
52320,note_on,0,0,1,,,,,,,,0,,,67,0
52320,note_on,0,0,1,,,,,,,,0,,,71,0
52320,note_on,0,0,2,,,,,,,,1,,,75,100
52320,note_on,0,0,2,,,,,,,,1,,,66,100
52440,note_on,120,0,1,,,,,,,,0,,,67,100
52440,note_on,0,0,1,,,,,,,,0,,,71,100
52440,note_on,0,0,1,,,,,,,,0,,,76,100
52440,note_on,120,0,2,,,,,,,,1,,,75,0
52440,note_on,0,0,2,,,,,,,,1,,,69,0
52440,note_on,0,0,2,,,,,,,,1,,,66,0
52560,note_on,120,0,2,,,,,,,,1,,,75,100
52560,note_on,0,0,2,,,,,,,,1,,,69,100
52560,note_on,120,0,1,,,,,,,,0,,,76,0
52560,note_on,0,0,2,,,,,,,,1,,,66,100
52560,note_on,0,0,1,,,,,,,,0,,,71,0
52560,note_on,0,0,1,,,,,,,,0,,,67,0
52680,note_on,0,0,2,,,,,,,,1,,,69,0
52680,note_on,120,0,2,,,,,,,,1,,,66,0
52680,note_on,0,0,1,,,,,,,,0,,,76,100
52680,note_on,0,0,2,,,,,,,,1,,,75,0
52680,note_on,0,0,1,,,,,,,,0,,,71,100
52680,note_on,120,0,1,,,,,,,,0,,,67,100
52800,note_on,120,0,1,,,,,,,,0,,,76,0
52800,note_on,0,0,1,,,,,,,,0,,,71,0
52800,note_on,0,0,1,,,,,,,,0,,,67,0
52800,note_on,120,0,2,,,,,,,,1,,,67,100
52800,note_on,0,0,2,,,,,,,,1,,,55,100
52920,note_on,0,0,1,,,,,,,,0,,,76,100
52920,note_on,0,0,1,,,,,,,,0,,,71,100
52920,note_on,120,0,1,,,,,,,,0,,,67,100
52920,note_on,120,0,2,,,,,,,,1,,,55,0
52920,note_on,0,0,2,,,,,,,,1,,,67,0
53040,note_on,0,0,1,,,,,,,,0,,,67,0
53040,note_on,120,0,2,,,,,,,,1,,,75,100
53040,note_on,0,0,2,,,,,,,,1,,,69,100
53040,note_on,0,0,2,,,,,,,,1,,,66,100
53040,note_on,0,0,1,,,,,,,,0,,,71,0
53040,note_on,120,0,1,,,,,,,,0,,,76,0
53160,note_on,0,0,2,,,,,,,,1,,,75,0
53160,note_on,0,0,1,,,,,,,,0,,,76,100
53160,note_on,120,0,1,,,,,,,,0,,,67,100
53160,note_on,0,0,1,,,,,,,,0,,,71,100
53160,note_on,120,0,2,,,,,,,,1,,,66,0
53160,note_on,0,0,2,,,,,,,,1,,,69,0
53280,note_on,120,0,1,,,,,,,,0,,,76,0
53280,note_on,120,0,2,,,,,,,,1,,,48,100
53280,note_on,0,0,1,,,,,,,,0,,,67,0
53280,note_on,0,0,1,,,,,,,,0,,,71,0
53520,note_on,240,0,2,,,,,,,,1,,,48,0
53520,note_on,0,0,2,,,,,,,,1,,,60,100
53640,note_on,360,0,1,,,,,,,,0,,,67,100
53640,note_on,0,0,1,,,,,,,,0,,,71,100
53640,note_on,0,0,1,,,,,,,,0,,,76,100
53760,note_on,0,0,2,,,,,,,,1,,,75,100
53760,note_on,0,0,2,,,,,,,,1,,,69,100
53760,note_on,0,0,2,,,,,,,,1,,,66,100
53760,note_on,240,0,2,,,,,,,,1,,,60,0
53760,note_on,0,0,1,,,,,,,,0,,,67,0
53760,note_on,0,0,1,,,,,,,,0,,,71,0
53760,note_on,120,0,1,,,,,,,,0,,,76,0
53880,note_on,0,0,2,,,,,,,,1,,,66,0
53880,note_on,0,0,1,,,,,,,,0,,,76,100
53880,note_on,0,0,1,,,,,,,,0,,,71,100
53880,note_on,120,0,2,,,,,,,,1,,,75,0
53880,note_on,120,0,1,,,,,,,,0,,,67,100
53880,note_on,0,0,2,,,,,,,,1,,,69,0
54000,note_on,120,0,1,,,,,,,,0,,,76,0
54000,note_on,0,0,1,,,,,,,,0,,,71,0
54000,note_on,0,0,1,,,,,,,,0,,,67,0
54000,note_on,120,0,2,,,,,,,,1,,,75,100
54000,note_on,0,0,2,,,,,,,,1,,,69,100
54000,note_on,0,0,2,,,,,,,,1,,,66,100
54120,note_on,0,0,1,,,,,,,,0,,,76,100
54120,note_on,0,0,1,,,,,,,,0,,,71,100
54120,note_on,120,0,2,,,,,,,,1,,,66,0
54120,note_on,0,0,2,,,,,,,,1,,,69,0
54120,note_on,0,0,2,,,,,,,,1,,,75,0
54120,note_on,120,0,1,,,,,,,,0,,,67,100
54240,note_on,120,0,1,,,,,,,,0,,,76,0
54240,note_on,0,0,1,,,,,,,,0,,,71,0
54240,note_on,0,0,1,,,,,,,,0,,,67,0
54240,note_on,120,0,2,,,,,,,,1,,,59,100
54240,note_on,0,0,2,,,,,,,,1,,,71,100
54360,note_on,0,0,2,,,,,,,,1,,,59,0
54360,note_on,0,0,1,,,,,,,,0,,,76,100
54360,note_on,0,0,1,,,,,,,,0,,,71,100
54360,note_on,120,0,2,,,,,,,,1,,,71,0
54360,note_on,120,0,1,,,,,,,,0,,,67,100
54480,note_on,0,0,1,,,,,,,,0,,,67,0
54480,note_on,120,0,1,,,,,,,,0,,,76,0
54480,note_on,0,0,1,,,,,,,,0,,,71,0
54480,note_on,120,0,2,,,,,,,,1,,,75,100
54480,note_on,0,0,2,,,,,,,,1,,,66,100
54480,note_on,0,0,2,,,,,,,,1,,,69,100
54600,note_on,0,0,1,,,,,,,,0,,,76,100
54600,note_on,0,0,1,,,,,,,,0,,,71,100
54600,note_on,120,0,1,,,,,,,,0,,,67,100
54600,note_on,120,0,2,,,,,,,,1,,,66,0
54600,note_on,0,0,2,,,,,,,,1,,,69,0
54600,note_on,0,0,2,,,,,,,,1,,,75,0
54720,note_on,0,0,1,,,,,,,,0,,,71,0
54720,note_on,120,0,1,,,,,,,,0,,,76,0
54720,note_on,120,0,2,,,,,,,,1,,,57,100
54720,note_on,0,0,1,,,,,,,,0,,,67,0
54800,note_on,80,0,1,,,,,,,,0,,,78,100
54880,note_on,0,0,1,,,,,,,,0,,,79,100
54880,note_on,80,0,1,,,,,,,,0,,,78,0
54960,note_on,0,0,2,,,,,,,,1,,,51,100
54960,note_on,80,0,1,,,,,,,,0,,,79,0
54960,note_on,240,0,2,,,,,,,,1,,,57,0
54960,note_on,0,0,1,,,,,,,,0,,,81,100
55040,note_on,80,0,1,,,,,,,,0,,,81,0
55040,note_on,0,0,1,,,,,,,,0,,,83,100
55120,note_on,80,0,1,,,,,,,,0,,,83,0
55120,note_on,0,0,1,,,,,,,,0,,,84,100
55200,note_on,0,0,2,,,,,,,,1,,,52,100
55200,note_on,240,0,2,,,,,,,,1,,,51,0
55280,note_on,160,0,1,,,,,,,,0,,,84,0
55280,note_on,0,0,1,,,,,,,,0,,,83,100
55360,note_on,80,0,1,,,,,,,,0,,,83,0
55360,note_on,0,0,1,,,,,,,,0,,,81,100
55440,note_on,0,0,1,,,,,,,,0,,,79,100
55440,note_on,80,0,1,,,,,,,,0,,,81,0
55440,note_on,0,0,2,,,,,,,,1,,,57,100
55440,note_on,240,0,2,,,,,,,,1,,,52,0
55520,note_on,0,0,1,,,,,,,,0,,,78,100
55520,note_on,80,0,1,,,,,,,,0,,,79,0
55600,note_on,0,0,1,,,,,,,,0,,,76,100
55600,note_on,80,0,1,,,,,,,,0,,,78,0
55680,note_on,80,0,1,,,,,,,,0,,,76,0
55680,note_on,0,0,1,,,,,,,,0,,,75,100
55680,note_on,0,0,2,,,,,,,,1,,,59,100
55680,note_on,240,0,2,,,,,,,,1,,,57,0
55760,note_on,80,0,1,,,,,,,,0,,,75,0
55760,note_on,0,0,1,,,,,,,,0,,,72,100
55840,note_on,0,0,1,,,,,,,,0,,,71,100
55840,note_on,80,0,1,,,,,,,,0,,,72,0
55920,note_on,240,0,2,,,,,,,,1,,,59,0
55920,note_on,0,0,2,,,,,,,,1,,,47,100
55920,note_on,80,0,1,,,,,,,,0,,,71,0
55920,note_on,0,0,1,,,,,,,,0,,,69,100
56000,note_on,0,0,1,,,,,,,,0,,,67,100
56000,note_on,80,0,1,,,,,,,,0,,,69,0
56080,note_on,80,0,1,,,,,,,,0,,,67,0
56080,note_on,0,0,1,,,,,,,,0,,,66,100
56160,note_on,240,0,2,,,,,,,,1,,,47,0
56160,note_on,80,0,1,,,,,,,,0,,,66,0
56160,note_on,0,0,2,,,,,,,,1,,,52,100
56160,note_on,0,0,1,,,,,,,,0,,,64,100
56280,note_on,120,0,1,,,,,,,,0,,,64,0
56280,note_on,0,0,1,,,,,,,,0,,,71,100
56280,note_on,0,0,1,,,,,,,,0,,,76,100
56280,note_on,0,0,1,,,,,,,,0,,,67,100
56400,note_on,0,0,2,,,,,,,,1,,,75,100
56400,note_on,0,0,2,,,,,,,,1,,,69,100
56400,note_on,0,0,2,,,,,,,,1,,,66,100
56400,note_on,240,0,2,,,,,,,,1,,,52,0
56400,note_on,0,0,1,,,,,,,,0,,,71,0
56400,note_on,0,0,1,,,,,,,,0,,,67,0
56400,note_on,120,0,1,,,,,,,,0,,,76,0
56520,note_on,120,0,2,,,,,,,,1,,,75,0
56520,note_on,120,0,1,,,,,,,,0,,,67,100
56520,note_on,0,0,1,,,,,,,,0,,,71,100
56520,note_on,0,0,1,,,,,,,,0,,,76,100
56520,note_on,0,0,2,,,,,,,,1,,,66,0
56520,note_on,0,0,2,,,,,,,,1,,,69,0
56640,note_on,120,0,2,,,,,,,,1,,,63,100
56640,note_on,0,0,2,,,,,,,,1,,,66,100
56640,note_on,0,0,2,,,,,,,,1,,,71,100
56640,note_on,0,0,1,,,,,,,,0,,,67,0
56640,note_on,0,0,1,,,,,,,,0,,,71,0
56640,note_on,120,0,1,,,,,,,,0,,,76,0
56760,note_on,0,0,1,,,,,,,,0,,,72,100
56760,note_on,120,0,1,,,,,,,,0,,,64,100
56760,note_on,120,0,2,,,,,,,,1,,,71,0
56760,note_on,0,0,2,,,,,,,,1,,,66,0
56760,note_on,0,0,1,,,,,,,,0,,,67,100
56760,note_on,0,0,2,,,,,,,,1,,,63,0
56880,note_on,120,0,1,,,,,,,,0,,,72,0
56880,note_on,0,0,1,,,,,,,,0,,,67,0
56880,note_on,0,0,1,,,,,,,,0,,,64,0
56880,note_on,120,0,2,,,,,,,,1,,,71,100
56880,note_on,0,0,2,,,,,,,,1,,,63,100
56880,note_on,0,0,2,,,,,,,,1,,,66,100
57000,note_on,0,0,2,,,,,,,,1,,,71,0
57000,note_on,0,0,2,,,,,,,,1,,,66,0
57000,note_on,0,0,1,,,,,,,,0,,,72,100
57000,note_on,0,0,1,,,,,,,,0,,,67,100
57000,note_on,120,0,2,,,,,,,,1,,,63,0
57000,note_on,120,0,1,,,,,,,,0,,,64,100
57120,note_on,0,0,2,,,,,,,,1,,,63,100
57120,note_on,0,0,1,,,,,,,,0,,,64,0
57120,note_on,0,0,1,,,,,,,,0,,,67,0
57120,note_on,120,0,2,,,,,,,,1,,,66,100
57120,note_on,0,0,2,,,,,,,,1,,,57,100
57120,note_on,120,0,1,,,,,,,,0,,,72,0
57240,note_on,120,0,2,,,,,,,,1,,,57,0
57240,note_on,0,0,2,,,,,,,,1,,,63,0
57240,note_on,120,0,1,,,,,,,,0,,,59,100
57240,note_on,0,0,1,,,,,,,,0,,,67,100
57240,note_on,0,0,2,,,,,,,,1,,,66,0
57240,note_on,0,0,1,,,,,,,,0,,,64,100
57360,note_on,0,0,2,,,,,,,,1,,,66,100
57360,note_on,120,0,2,,,,,,,,1,,,63,100
57360,note_on,120,0,1,,,,,,,,0,,,64,0
57360,note_on,0,0,1,,,,,,,,0,,,67,0
57360,note_on,0,0,2,,,,,,,,1,,,57,100
57360,note_on,0,0,1,,,,,,,,0,,,59,0
57480,note_on,120,0,2,,,,,,,,1,,,57,0
57480,note_on,0,0,1,,,,,,,,0,,,64,100
57480,note_on,0,0,1,,,,,,,,0,,,67,100
57480,note_on,0,0,2,,,,,,,,1,,,63,0
57480,note_on,0,0,2,,,,,,,,1,,,66,0
57480,note_on,120,0,1,,,,,,,,0,,,59,100
57600,note_on,0,0,1,,,,,,,,0,,,67,0
57600,note_on,0,0,1,,,,,,,,0,,,59,0
57600,note_on,120,0,2,,,,,,,,1,,,48,100
57600,note_on,120,0,1,,,,,,,,0,,,64,0
57680,note_on,80,0,1,,,,,,,,0,,,52,100
57760,note_on,0,0,1,,,,,,,,0,,,53,100
57760,note_on,80,0,1,,,,,,,,0,,,52,0
57840,note_on,0,0,1,,,,,,,,0,,,54,100
57840,note_on,80,0,1,,,,,,,,0,,,53,0
57840,note_on,240,0,2,,,,,,,,1,,,48,0
57840,note_on,0,0,2,,,,,,,,1,,,59,100
57920,note_on,0,0,1,,,,,,,,0,,,55,100
57920,note_on,80,0,1,,,,,,,,0,,,54,0
58000,note_on,0,0,1,,,,,,,,0,,,56,100
58000,note_on,80,0,1,,,,,,,,0,,,55,0
58080,note_on,80,0,1,,,,,,,,0,,,56,0
58080,note_on,240,0,2,,,,,,,,1,,,59,0
58080,note_on,0,0,2,,,,,,,,1,,,57,100
58160,note_on,80,0,1,,,,,,,,0,,,59,100
58240,note_on,0,0,1,,,,,,,,0,,,60,100
58240,note_on,80,0,1,,,,,,,,0,,,59,0
58320,note_on,0,0,1,,,,,,,,0,,,62,100
58320,note_on,80,0,1,,,,,,,,0,,,60,0
58320,note_on,240,0,2,,,,,,,,1,,,57,0
58320,note_on,0,0,2,,,,,,,,1,,,56,100
58400,note_on,0,0,1,,,,,,,,0,,,60,100
58400,note_on,80,0,1,,,,,,,,0,,,62,0
58480,note_on,80,0,1,,,,,,,,0,,,60,0
58480,note_on,0,0,1,,,,,,,,0,,,59,100
58560,note_on,0,0,1,,,,,,,,0,,,60,100
58560,note_on,0,0,2,,,,,,,,1,,,57,100
58560,note_on,240,0,2,,,,,,,,1,,,56,0
58560,note_on,80,0,1,,,,,,,,0,,,59,0
58640,note_on,0,0,1,,,,,,,,0,,,62,100
58640,note_on,80,0,1,,,,,,,,0,,,60,0
58720,note_on,0,0,1,,,,,,,,0,,,64,100
58720,note_on,80,0,1,,,,,,,,0,,,62,0
58800,note_on,0,0,2,,,,,,,,1,,,48,100
58800,note_on,240,0,2,,,,,,,,1,,,57,0
58800,note_on,80,0,1,,,,,,,,0,,,64,0
58800,note_on,0,0,1,,,,,,,,0,,,66,100
58880,note_on,80,0,1,,,,,,,,0,,,66,0
58880,note_on,0,0,1,,,,,,,,0,,,67,100
58960,note_on,0,0,1,,,,,,,,0,,,69,100
58960,note_on,80,0,1,,,,,,,,0,,,67,0
59040,note_on,80,0,1,,,,,,,,0,,,69,0
59040,note_on,0,0,2,,,,,,,,1,,,47,100
59040,note_on,240,0,2,,,,,,,,1,,,48,0
59120,note_on,80,0,1,,,,,,,,0,,,50,100
59200,note_on,0,0,1,,,,,,,,0,,,51,100
59200,note_on,80,0,1,,,,,,,,0,,,50,0
59280,note_on,0,0,2,,,,,,,,1,,,57,100
59280,note_on,240,0,2,,,,,,,,1,,,47,0
59280,note_on,0,0,1,,,,,,,,0,,,52,100
59280,note_on,80,0,1,,,,,,,,0,,,51,0
59360,note_on,80,0,1,,,,,,,,0,,,52,0
59360,note_on,0,0,1,,,,,,,,0,,,53,100
59440,note_on,0,0,1,,,,,,,,0,,,54,100
59440,note_on,80,0,1,,,,,,,,0,,,53,0
59520,note_on,0,0,2,,,,,,,,1,,,55,100
59520,note_on,240,0,2,,,,,,,,1,,,57,0
59520,note_on,80,0,1,,,,,,,,0,,,54,0
59600,note_on,80,0,1,,,,,,,,0,,,57,100
59680,note_on,80,0,1,,,,,,,,0,,,57,0
59680,note_on,0,0,1,,,,,,,,0,,,59,100
59760,note_on,240,0,2,,,,,,,,1,,,55,0
59760,note_on,80,0,1,,,,,,,,0,,,59,0
59760,note_on,0,0,1,,,,,,,,0,,,60,100
59760,note_on,0,0,2,,,,,,,,1,,,54,100
59840,note_on,80,0,1,,,,,,,,0,,,60,0
59840,note_on,0,0,1,,,,,,,,0,,,59,100
59920,note_on,80,0,1,,,,,,,,0,,,59,0
59920,note_on,0,0,1,,,,,,,,0,,,57,100
60000,note_on,0,0,1,,,,,,,,0,,,59,100
60000,note_on,240,0,2,,,,,,,,1,,,54,0
60000,note_on,0,0,2,,,,,,,,1,,,55,100
60000,note_on,80,0,1,,,,,,,,0,,,57,0
60080,note_on,80,0,1,,,,,,,,0,,,59,0
60080,note_on,0,0,1,,,,,,,,0,,,60,100
60160,note_on,80,0,1,,,,,,,,0,,,60,0
60160,note_on,0,0,1,,,,,,,,0,,,62,100
60240,note_on,0,0,2,,,,,,,,1,,,47,100
60240,note_on,80,0,1,,,,,,,,0,,,62,0
60240,note_on,0,0,1,,,,,,,,0,,,64,100
60240,note_on,240,0,2,,,,,,,,1,,,55,0
60320,note_on,80,0,1,,,,,,,,0,,,64,0
60320,note_on,0,0,1,,,,,,,,0,,,66,100
60400,note_on,80,0,1,,,,,,,,0,,,66,0
60400,note_on,0,0,1,,,,,,,,0,,,67,100
60480,note_on,80,0,1,,,,,,,,0,,,67,0
60480,note_on,0,0,1,,,,,,,,0,,,60,100
60480,note_on,0,0,2,,,,,,,,1,,,45,100
60480,note_on,240,0,2,,,,,,,,1,,,47,0
60560,note_on,80,0,1,,,,,,,,0,,,60,0
60560,note_on,0,0,2,,,,,,,,1,,,57,100
60560,note_on,80,0,2,,,,,,,,1,,,45,0
60640,note_on,80,0,1,,,,,,,,0,,,65,100
60640,note_on,80,0,2,,,,,,,,1,,,57,0
60720,note_on,80,0,1,,,,,,,,0,,,65,0
60720,note_on,0,0,1,,,,,,,,0,,,64,100
60800,note_on,80,0,1,,,,,,,,0,,,64,0
60800,note_on,0,0,1,,,,,,,,0,,,60,100
60880,note_on,240,0,2,,,,,,,,1,,,59,100
60880,note_on,80,0,1,,,,,,,,0,,,60,0
60960,note_on,80,0,2,,,,,,,,1,,,59,0
60960,note_on,0,0,2,,,,,,,,1,,,57,100
61040,note_on,0,0,2,,,,,,,,1,,,60,100
61040,note_on,80,0,2,,,,,,,,1,,,57,0
61120,note_on,240,0,1,,,,,,,,0,,,62,100
61120,note_on,80,0,2,,,,,,,,1,,,60,0
61200,note_on,80,0,1,,,,,,,,0,,,62,0
61200,note_on,0,0,1,,,,,,,,0,,,60,100
61280,note_on,80,0,1,,,,,,,,0,,,60,0
61280,note_on,0,0,1,,,,,,,,0,,,57,100
61360,note_on,80,0,1,,,,,,,,0,,,57,0
61360,note_on,240,0,2,,,,,,,,1,,,55,100
61440,note_on,0,0,2,,,,,,,,1,,,54,100
61440,note_on,80,0,2,,,,,,,,1,,,55,0
61520,note_on,80,0,2,,,,,,,,1,,,54,0
61520,note_on,0,0,2,,,,,,,,1,,,57,100
61600,note_on,80,0,2,,,,,,,,1,,,57,0
61600,note_on,240,0,1,,,,,,,,0,,,59,100
61680,note_on,80,0,1,,,,,,,,0,,,59,0
61680,note_on,0,0,1,,,,,,,,0,,,57,100
61760,note_on,80,0,1,,,,,,,,0,,,57,0
61760,note_on,0,0,1,,,,,,,,0,,,54,100
61840,note_on,240,0,2,,,,,,,,1,,,52,100
61840,note_on,80,0,1,,,,,,,,0,,,54,0
61920,note_on,0,0,2,,,,,,,,1,,,50,100
61920,note_on,80,0,2,,,,,,,,1,,,52,0
62000,note_on,0,0,2,,,,,,,,1,,,62,100
62000,note_on,80,0,2,,,,,,,,1,,,50,0
62080,note_on,240,0,1,,,,,,,,0,,,71,100
62080,note_on,80,0,2,,,,,,,,1,,,62,0
62160,note_on,80,0,1,,,,,,,,0,,,71,0
62160,note_on,0,0,1,,,,,,,,0,,,69,100
62240,note_on,0,0,1,,,,,,,,0,,,66,100
62240,note_on,80,0,1,,,,,,,,0,,,69,0
62320,note_on,240,0,2,,,,,,,,1,,,64,100
62320,note_on,80,0,1,,,,,,,,0,,,66,0
62400,note_on,80,0,2,,,,,,,,1,,,64,0
62400,note_on,0,0,2,,,,,,,,1,,,62,100
62480,note_on,0,0,2,,,,,,,,1,,,66,100
62480,note_on,80,0,2,,,,,,,,1,,,62,0
62560,note_on,240,0,1,,,,,,,,0,,,67,100
62560,note_on,80,0,2,,,,,,,,1,,,66,0
62640,note_on,0,0,1,,,,,,,,0,,,66,100
62640,note_on,80,0,1,,,,,,,,0,,,67,0
62720,note_on,80,0,1,,,,,,,,0,,,66,0
62720,note_on,0,0,1,,,,,,,,0,,,62,100
62800,note_on,80,0,1,,,,,,,,0,,,62,0
62800,note_on,240,0,2,,,,,,,,1,,,60,100
62880,note_on,0,0,2,,,,,,,,1,,,59,100
62880,note_on,80,0,2,,,,,,,,1,,,60,0
62960,note_on,0,0,2,,,,,,,,1,,,62,100
62960,note_on,80,0,2,,,,,,,,1,,,59,0
63040,note_on,80,0,2,,,,,,,,1,,,62,0
63040,note_on,240,0,1,,,,,,,,0,,,64,100
63120,note_on,80,0,1,,,,,,,,0,,,64,0
63120,note_on,0,0,1,,,,,,,,0,,,62,100
63200,note_on,0,0,1,,,,,,,,0,,,59,100
63200,note_on,80,0,1,,,,,,,,0,,,62,0
63280,note_on,80,0,1,,,,,,,,0,,,59,0
63280,note_on,240,0,2,,,,,,,,1,,,57,100
63360,note_on,0,0,2,,,,,,,,1,,,55,100
63360,note_on,80,0,2,,,,,,,,1,,,57,0
63440,note_on,80,0,2,,,,,,,,1,,,55,0
63440,note_on,0,0,2,,,,,,,,1,,,67,100
63520,note_on,240,0,1,,,,,,,,0,,,76,100
63520,note_on,80,0,2,,,,,,,,1,,,67,0
63600,note_on,0,0,1,,,,,,,,0,,,74,100
63600,note_on,80,0,1,,,,,,,,0,,,76,0
63680,note_on,0,0,1,,,,,,,,0,,,71,100
63680,note_on,80,0,1,,,,,,,,0,,,74,0
63760,note_on,80,0,1,,,,,,,,0,,,71,0
63760,note_on,240,0,2,,,,,,,,1,,,69,100
63840,note_on,0,0,2,,,,,,,,1,,,67,100
63840,note_on,80,0,2,,,,,,,,1,,,69,0
63920,note_on,0,0,2,,,,,,,,1,,,71,100
63920,note_on,80,0,2,,,,,,,,1,,,67,0
64000,note_on,80,0,2,,,,,,,,1,,,71,0
64000,note_on,240,0,1,,,,,,,,0,,,72,100
64080,note_on,0,0,1,,,,,,,,0,,,71,100
64080,note_on,80,0,1,,,,,,,,0,,,72,0
64160,note_on,0,0,1,,,,,,,,0,,,67,100
64160,note_on,80,0,1,,,,,,,,0,,,71,0
64240,note_on,80,0,1,,,,,,,,0,,,67,0
64240,note_on,240,0,2,,,,,,,,1,,,65,100
64320,note_on,80,0,2,,,,,,,,1,,,65,0
64320,note_on,0,0,2,,,,,,,,1,,,64,100
64400,note_on,80,0,2,,,,,,,,1,,,64,0
64400,note_on,0,0,2,,,,,,,,1,,,67,100
64480,note_on,240,0,1,,,,,,,,0,,,69,100
64480,note_on,80,0,2,,,,,,,,1,,,67,0
64560,note_on,80,0,1,,,,,,,,0,,,69,0
64560,note_on,0,0,1,,,,,,,,0,,,67,100
64640,note_on,0,0,1,,,,,,,,0,,,64,100
64640,note_on,80,0,1,,,,,,,,0,,,67,0
64720,note_on,80,0,1,,,,,,,,0,,,64,0
64720,note_on,240,0,2,,,,,,,,1,,,62,100
64800,note_on,80,0,2,,,,,,,,1,,,62,0
64800,note_on,0,0,2,,,,,,,,1,,,60,100
64880,note_on,80,0,2,,,,,,,,1,,,60,0
64880,note_on,0,0,2,,,,,,,,1,,,72,100
64960,note_on,80,0,2,,,,,,,,1,,,72,0
64960,note_on,240,0,1,,,,,,,,0,,,81,100
65040,note_on,80,0,1,,,,,,,,0,,,81,0
65040,note_on,0,0,1,,,,,,,,0,,,79,100
65120,note_on,80,0,1,,,,,,,,0,,,79,0
65120,note_on,0,0,1,,,,,,,,0,,,76,100
65200,note_on,240,0,2,,,,,,,,1,,,74,100
65200,note_on,80,0,1,,,,,,,,0,,,76,0
65280,note_on,0,0,2,,,,,,,,1,,,72,100
65280,note_on,80,0,2,,,,,,,,1,,,74,0
65360,note_on,0,0,2,,,,,,,,1,,,76,100
65360,note_on,80,0,2,,,,,,,,1,,,72,0
65440,note_on,240,0,1,,,,,,,,0,,,77,100
65440,note_on,80,0,2,,,,,,,,1,,,76,0
65520,note_on,80,0,1,,,,,,,,0,,,77,0
65520,note_on,0,0,1,,,,,,,,0,,,76,100
65600,note_on,80,0,1,,,,,,,,0,,,76,0
65600,note_on,0,0,1,,,,,,,,0,,,72,100
65680,note_on,80,0,1,,,,,,,,0,,,72,0
65680,note_on,240,0,2,,,,,,,,1,,,71,100
65760,note_on,80,0,2,,,,,,,,1,,,71,0
65760,note_on,0,0,2,,,,,,,,1,,,69,100
65840,note_on,0,0,2,,,,,,,,1,,,72,100
65840,note_on,80,0,2,,,,,,,,1,,,69,0
65920,note_on,240,0,1,,,,,,,,0,,,74,100
65920,note_on,80,0,2,,,,,,,,1,,,72,0
66000,note_on,80,0,1,,,,,,,,0,,,74,0
66000,note_on,0,0,1,,,,,,,,0,,,72,100
66080,note_on,80,0,1,,,,,,,,0,,,72,0
66080,note_on,0,0,1,,,,,,,,0,,,69,100
66160,note_on,80,0,1,,,,,,,,0,,,69,0
66160,note_on,240,0,2,,,,,,,,1,,,67,100
66240,note_on,0,0,2,,,,,,,,1,,,66,100
66240,note_on,80,0,2,,,,,,,,1,,,67,0
66320,note_on,160,0,1,,,,,,,,0,,,69,100
66400,note_on,0,0,1,,,,,,,,0,,,71,100
66400,note_on,80,0,1,,,,,,,,0,,,69,0
66480,note_on,0,0,1,,,,,,,,0,,,72,100
66480,note_on,240,0,2,,,,,,,,1,,,66,0
66480,note_on,0,0,2,,,,,,,,1,,,57,100
66480,note_on,80,0,1,,,,,,,,0,,,71,0
66560,note_on,0,0,1,,,,,,,,0,,,74,100
66560,note_on,80,0,1,,,,,,,,0,,,72,0
66640,note_on,0,0,1,,,,,,,,0,,,76,100
66640,note_on,80,0,1,,,,,,,,0,,,74,0
66720,note_on,240,0,2,,,,,,,,1,,,57,0
66720,note_on,0,0,2,,,,,,,,1,,,59,100
66800,note_on,0,0,1,,,,,,,,0,,,74,100
66800,note_on,160,0,1,,,,,,,,0,,,76,0
66880,note_on,0,0,1,,,,,,,,0,,,72,100
66880,note_on,80,0,1,,,,,,,,0,,,74,0
66960,note_on,240,0,2,,,,,,,,1,,,59,0
66960,note_on,80,0,1,,,,,,,,0,,,72,0
66960,note_on,0,0,2,,,,,,,,1,,,60,100
66960,note_on,0,0,1,,,,,,,,0,,,71,100
67040,note_on,0,0,1,,,,,,,,0,,,69,100
67040,note_on,80,0,1,,,,,,,,0,,,71,0
67120,note_on,80,0,1,,,,,,,,0,,,69,0
67120,note_on,0,0,1,,,,,,,,0,,,67,100
67200,note_on,0,0,2,,,,,,,,1,,,62,100
67200,note_on,240,0,2,,,,,,,,1,,,60,0
67280,note_on,160,0,1,,,,,,,,0,,,67,0
67280,note_on,0,0,1,,,,,,,,0,,,66,100
67360,note_on,0,0,1,,,,,,,,0,,,67,100
67360,note_on,80,0,1,,,,,,,,0,,,66,0
67440,note_on,0,0,2,,,,,,,,1,,,50,100
67440,note_on,0,0,1,,,,,,,,0,,,69,100
67440,note_on,240,0,2,,,,,,,,1,,,62,0
67440,note_on,80,0,1,,,,,,,,0,,,67,0
67520,note_on,0,0,1,,,,,,,,0,,,71,100
67520,note_on,80,0,1,,,,,,,,0,,,69,0
67600,note_on,0,0,1,,,,,,,,0,,,72,100
67600,note_on,80,0,1,,,,,,,,0,,,71,0
67680,note_on,240,0,2,,,,,,,,1,,,50,0
67680,note_on,0,0,2,,,,,,,,1,,,55,100
67680,note_on,0,0,1,,,,,,,,0,,,72,100
67680,note_on,80,0,1,,,,,,,,0,,,72,0
67740,note_on,0,0,1,,,,,,,,0,,,71,100
67740,note_on,60,0,1,,,,,,,,0,,,72,0
67920,note_on,180,0,1,,,,,,,,0,,,71,0
67920,note_on,240,0,2,,,,,,,,1,,,55,0
67920,note_on,0,0,2,,,,,,,,1,,,43,100
68040,note_on,120,0,1,,,,,,,,0,,,74,100
68040,note_on,0,0,1,,,,,,,,0,,,79,100
68040,note_on,0,0,1,,,,,,,,0,,,71,100
68160,note_on,0,0,2,,,,,,,,1,,,78,100
68160,note_on,0,0,2,,,,,,,,1,,,72,100
68160,note_on,240,0,2,,,,,,,,1,,,43,0
68160,note_on,0,0,2,,,,,,,,1,,,69,100
68160,note_on,0,0,1,,,,,,,,0,,,74,0
68160,note_on,0,0,1,,,,,,,,0,,,79,0
68160,note_on,120,0,1,,,,,,,,0,,,71,0
68280,note_on,120,0,1,,,,,,,,0,,,74,100
68280,note_on,0,0,2,,,,,,,,1,,,69,0
68280,note_on,0,0,2,,,,,,,,1,,,78,0
68280,note_on,120,0,2,,,,,,,,1,,,72,0
68280,note_on,0,0,1,,,,,,,,0,,,71,100
68280,note_on,0,0,1,,,,,,,,0,,,79,100
68400,note_on,120,0,2,,,,,,,,1,,,72,100
68400,note_on,0,0,2,,,,,,,,1,,,69,100
68400,note_on,0,0,1,,,,,,,,0,,,74,0
68400,note_on,120,0,1,,,,,,,,0,,,71,0
68400,note_on,0,0,2,,,,,,,,1,,,78,100
68400,note_on,0,0,1,,,,,,,,0,,,79,0
68520,note_on,0,0,2,,,,,,,,1,,,78,0
68520,note_on,120,0,2,,,,,,,,1,,,69,0
68520,note_on,0,0,1,,,,,,,,0,,,71,100
68520,note_on,120,0,1,,,,,,,,0,,,74,100
68520,note_on,0,0,2,,,,,,,,1,,,72,0
68520,note_on,0,0,1,,,,,,,,0,,,79,100
68640,note_on,0,0,1,,,,,,,,0,,,74,0
68640,note_on,0,0,1,,,,,,,,0,,,79,0
68640,note_on,120,0,2,,,,,,,,1,,,55,100
68640,note_on,120,0,1,,,,,,,,0,,,71,0
69120,marker,23040,1,0,,,,,,,,,,,,
69120,note_on,480,0,2,,,,,,,,1,,,55,0
69120,note_on,0,0,2,,,,,,,,1,,,74,100
69200,note_on,80,0,2,,,,,,,,1,,,74,0
69200,note_on,0,0,2,,,,,,,,1,,,78,100
69280,note_on,640,0,1,,,,,,,,0,,,83,100
69280,note_on,80,0,2,,,,,,,,1,,,78,0
69360,note_on,80,0,1,,,,,,,,0,,,83,0
69360,note_on,0,0,1,,,,,,,,0,,,81,100
69440,note_on,80,0,1,,,,,,,,0,,,81,0
69440,note_on,0,0,1,,,,,,,,0,,,78,100
69520,note_on,80,0,1,,,,,,,,0,,,78,0
69520,note_on,240,0,2,,,,,,,,1,,,76,100
69600,note_on,0,0,2,,,,,,,,1,,,74,100
69600,note_on,80,0,2,,,,,,,,1,,,76,0
69680,note_on,0,0,2,,,,,,,,1,,,78,100
69680,note_on,80,0,2,,,,,,,,1,,,74,0
69760,note_on,80,0,2,,,,,,,,1,,,78,0
69760,note_on,240,0,1,,,,,,,,0,,,79,100
69840,note_on,80,0,1,,,,,,,,0,,,79,0
69840,note_on,0,0,1,,,,,,,,0,,,78,100
69920,note_on,0,0,1,,,,,,,,0,,,74,100
69920,note_on,80,0,1,,,,,,,,0,,,78,0
70000,note_on,240,0,2,,,,,,,,1,,,72,100
70000,note_on,80,0,1,,,,,,,,0,,,74,0
70080,note_on,0,0,2,,,,,,,,1,,,71,100
70080,note_on,80,0,2,,,,,,,,1,,,72,0
70160,note_on,0,0,2,,,,,,,,1,,,74,100
70160,note_on,80,0,2,,,,,,,,1,,,71,0
70240,note_on,80,0,2,,,,,,,,1,,,74,0
70240,note_on,240,0,1,,,,,,,,0,,,76,100
70320,note_on,0,0,1,,,,,,,,0,,,74,100
70320,note_on,80,0,1,,,,,,,,0,,,76,0
70400,note_on,80,0,1,,,,,,,,0,,,74,0
70400,note_on,0,0,1,,,,,,,,0,,,71,100
70480,note_on,80,0,1,,,,,,,,0,,,71,0
70480,note_on,240,0,2,,,,,,,,1,,,69,100
70560,note_on,80,0,2,,,,,,,,1,,,69,0
70560,note_on,0,0,2,,,,,,,,1,,,67,100
70640,note_on,80,0,2,,,,,,,,1,,,67,0
70640,note_on,0,0,2,,,,,,,,1,,,71,100
70720,note_on,240,0,1,,,,,,,,0,,,76,100
70720,note_on,80,0,2,,,,,,,,1,,,71,0
70800,note_on,0,0,1,,,,,,,,0,,,74,100
70800,note_on,80,0,1,,,,,,,,0,,,76,0
70880,note_on,80,0,1,,,,,,,,0,,,74,0
70880,note_on,0,0,1,,,,,,,,0,,,71,100
70960,note_on,240,0,2,,,,,,,,1,,,69,100
70960,note_on,80,0,1,,,,,,,,0,,,71,0
71040,note_on,0,0,2,,,,,,,,1,,,67,100
71040,note_on,80,0,2,,,,,,,,1,,,69,0
71120,note_on,0,0,2,,,,,,,,1,,,71,100
71120,note_on,80,0,2,,,,,,,,1,,,67,0
71200,note_on,80,0,2,,,,,,,,1,,,71,0
71200,note_on,240,0,1,,,,,,,,0,,,72,100
71280,note_on,80,0,1,,,,,,,,0,,,72,0
71280,note_on,0,0,1,,,,,,,,0,,,71,100
71360,note_on,0,0,1,,,,,,,,0,,,67,100
71360,note_on,80,0,1,,,,,,,,0,,,71,0
71440,note_on,240,0,2,,,,,,,,1,,,66,100
71440,note_on,80,0,1,,,,,,,,0,,,67,0
71520,note_on,80,0,2,,,,,,,,1,,,66,0
71520,note_on,0,0,2,,,,,,,,1,,,64,100
71600,note_on,80,0,2,,,,,,,,1,,,64,0
71600,note_on,0,0,2,,,,,,,,1,,,67,100
71680,note_on,240,0,1,,,,,,,,0,,,69,100
71680,note_on,80,0,2,,,,,,,,1,,,67,0
71760,note_on,80,0,1,,,,,,,,0,,,69,0
71760,note_on,0,0,1,,,,,,,,0,,,67,100
71840,note_on,80,0,1,,,,,,,,0,,,67,0
71840,note_on,0,0,1,,,,,,,,0,,,64,100
71920,note_on,80,0,1,,,,,,,,0,,,64,0
71920,note_on,240,0,2,,,,,,,,1,,,62,100
72000,note_on,0,0,2,,,,,,,,1,,,60,100
72000,note_on,80,0,2,,,,,,,,1,,,62,0
72080,note_on,0,0,2,,,,,,,,1,,,64,100
72080,note_on,80,0,2,,,,,,,,1,,,60,0
72160,note_on,80,0,2,,,,,,,,1,,,64,0
72160,note_on,240,0,1,,,,,,,,0,,,65,100
72240,note_on,80,0,1,,,,,,,,0,,,65,0
72240,note_on,0,0,1,,,,,,,,0,,,64,100
72320,note_on,0,0,1,,,,,,,,0,,,60,100
72320,note_on,80,0,1,,,,,,,,0,,,64,0
72400,note_on,80,0,1,,,,,,,,0,,,60,0
72400,note_on,240,0,2,,,,,,,,1,,,59,100
72480,note_on,80,0,2,,,,,,,,1,,,59,0
72480,note_on,0,0,2,,,,,,,,1,,,57,100
72560,note_on,80,0,2,,,,,,,,1,,,57,0
72560,note_on,0,0,2,,,,,,,,1,,,60,100
72640,note_on,240,0,1,,,,,,,,0,,,62,100
72640,note_on,80,0,2,,,,,,,,1,,,60,0
72720,note_on,0,0,1,,,,,,,,0,,,60,100
72720,note_on,80,0,1,,,,,,,,0,,,62,0
72800,note_on,80,0,1,,,,,,,,0,,,60,0
72800,note_on,0,0,1,,,,,,,,0,,,57,100
72880,note_on,80,0,1,,,,,,,,0,,,57,0
72880,note_on,240,0,2,,,,,,,,1,,,55,100
72960,note_on,0,0,2,,,,,,,,1,,,54,100
72960,note_on,80,0,2,,,,,,,,1,,,55,0
73040,note_on,0,0,2,,,,,,,,1,,,57,100
73040,note_on,80,0,2,,,,,,,,1,,,54,0
73120,note_on,240,0,1,,,,,,,,0,,,59,100
73120,note_on,80,0,2,,,,,,,,1,,,57,0
73200,note_on,0,0,1,,,,,,,,0,,,57,100
73200,note_on,80,0,1,,,,,,,,0,,,59,0
73280,note_on,0,0,1,,,,,,,,0,,,54,100
73280,note_on,80,0,1,,,,,,,,0,,,57,0
73360,note_on,240,0,2,,,,,,,,1,,,52,100
73360,note_on,80,0,1,,,,,,,,0,,,54,0
73440,note_on,0,0,2,,,,,,,,1,,,51,100
73440,note_on,80,0,2,,,,,,,,1,,,52,0
73520,note_on,80,0,2,,,,,,,,1,,,51,0
73520,note_on,0,0,2,,,,,,,,1,,,54,100
73600,note_on,240,0,1,,,,,,,,0,,,55,100
73600,note_on,80,0,2,,,,,,,,1,,,54,0
73680,note_on,80,0,1,,,,,,,,0,,,55,0
73680,note_on,0,0,1,,,,,,,,0,,,54,100
73760,note_on,0,0,1,,,,,,,,0,,,51,100
73760,note_on,80,0,1,,,,,,,,0,,,54,0
73840,note_on,240,0,2,,,,,,,,1,,,49,100
73840,note_on,80,0,1,,,,,,,,0,,,51,0
73920,note_on,0,0,2,,,,,,,,1,,,47,100
73920,note_on,80,0,2,,,,,,,,1,,,49,0
74000,note_on,0,0,2,,,,,,,,1,,,51,100
74000,note_on,80,0,2,,,,,,,,1,,,47,0
74080,note_on,80,0,2,,,,,,,,1,,,51,0
74080,note_on,240,0,1,,,,,,,,0,,,52,100
74160,note_on,80,0,1,,,,,,,,0,,,52,0
74160,note_on,0,0,1,,,,,,,,0,,,51,100
74240,note_on,80,0,1,,,,,,,,0,,,51,0
74240,note_on,0,0,1,,,,,,,,0,,,47,100
74320,note_on,240,0,2,,,,,,,,1,,,45,100
74320,note_on,80,0,1,,,,,,,,0,,,47,0
74400,note_on,80,0,2,,,,,,,,1,,,45,0
74400,note_on,0,0,2,,,,,,,,1,,,43,100
74480,note_on,80,0,2,,,,,,,,1,,,43,0
74480,note_on,0,0,2,,,,,,,,1,,,47,100
74560,note_on,80,0,2,,,,,,,,1,,,47,0
74560,note_on,240,0,1,,,,,,,,0,,,48,100
74640,note_on,80,0,1,,,,,,,,0,,,48,0
74640,note_on,0,0,1,,,,,,,,0,,,47,100
74720,note_on,80,0,1,,,,,,,,0,,,47,0
74720,note_on,0,0,1,,,,,,,,0,,,43,100
74800,note_on,80,0,1,,,,,,,,0,,,43,0
74800,note_on,240,0,2,,,,,,,,1,,,42,100
74880,note_on,80,0,2,,,,,,,,1,,,42,0
74880,note_on,0,0,2,,,,,,,,1,,,40,100
75120,note_on,0,0,2,,,,,,,,1,,,52,100
75120,note_on,240,0,2,,,,,,,,1,,,40,0
75240,note_on,0,0,1,,,,,,,,0,,,76,100
75240,note_on,0,0,1,,,,,,,,0,,,71,100
75240,note_on,440,0,1,,,,,,,,0,,,67,100
75360,note_on,240,0,2,,,,,,,,1,,,52,0
75360,note_on,0,0,2,,,,,,,,1,,,69,100
75360,note_on,0,0,1,,,,,,,,0,,,67,0
75360,note_on,0,0,1,,,,,,,,0,,,71,0
75360,note_on,120,0,1,,,,,,,,0,,,76,0
75360,note_on,0,0,2,,,,,,,,1,,,66,100
75360,note_on,0,0,2,,,,,,,,1,,,75,100
75480,note_on,0,0,2,,,,,,,,1,,,66,0
75480,note_on,0,0,1,,,,,,,,0,,,76,100
75480,note_on,0,0,1,,,,,,,,0,,,71,100
75480,note_on,120,0,1,,,,,,,,0,,,67,100
75480,note_on,120,0,2,,,,,,,,1,,,75,0
75480,note_on,0,0,2,,,,,,,,1,,,69,0
75600,note_on,120,0,2,,,,,,,,1,,,75,100
75600,note_on,0,0,2,,,,,,,,1,,,69,100
75600,note_on,0,0,2,,,,,,,,1,,,66,100
75600,note_on,0,0,1,,,,,,,,0,,,67,0
75600,note_on,0,0,1,,,,,,,,0,,,71,0
75600,note_on,120,0,1,,,,,,,,0,,,76,0
75720,note_on,0,0,1,,,,,,,,0,,,76,100
75720,note_on,0,0,1,,,,,,,,0,,,71,100
75720,note_on,120,0,1,,,,,,,,0,,,67,100
75720,note_on,120,0,2,,,,,,,,1,,,66,0
75720,note_on,0,0,2,,,,,,,,1,,,75,0
75720,note_on,0,0,2,,,,,,,,1,,,69,0
75840,note_on,0,0,2,,,,,,,,1,,,55,100
75840,note_on,120,0,2,,,,,,,,1,,,67,100
75840,note_on,0,0,1,,,,,,,,0,,,71,0
75840,note_on,120,0,1,,,,,,,,0,,,76,0
75840,note_on,0,0,1,,,,,,,,0,,,67,0
75960,note_on,120,0,1,,,,,,,,0,,,67,100
75960,note_on,0,0,1,,,,,,,,0,,,71,100
75960,note_on,0,0,1,,,,,,,,0,,,76,100
75960,note_on,120,0,2,,,,,,,,1,,,55,0
75960,note_on,0,0,2,,,,,,,,1,,,67,0
76080,note_on,0,0,2,,,,,,,,1,,,69,100
76080,note_on,120,0,1,,,,,,,,0,,,76,0
76080,note_on,0,0,1,,,,,,,,0,,,71,0
76080,note_on,120,0,2,,,,,,,,1,,,75,100
76080,note_on,0,0,2,,,,,,,,1,,,66,100
76080,note_on,0,0,1,,,,,,,,0,,,67,0
76200,note_on,0,0,1,,,,,,,,0,,,76,100
76200,note_on,0,0,1,,,,,,,,0,,,71,100
76200,note_on,120,0,1,,,,,,,,0,,,67,100
76200,note_on,0,0,2,,,,,,,,1,,,75,0
76200,note_on,120,0,2,,,,,,,,1,,,66,0
76200,note_on,0,0,2,,,,,,,,1,,,69,0
76320,note_on,120,0,2,,,,,,,,1,,,48,100
76320,note_on,0,0,1,,,,,,,,0,,,67,0
76320,note_on,0,0,1,,,,,,,,0,,,71,0
76320,note_on,120,0,1,,,,,,,,0,,,76,0
76560,note_on,240,0,2,,,,,,,,1,,,48,0
76560,note_on,0,0,2,,,,,,,,1,,,60,100
76680,note_on,0,0,1,,,,,,,,0,,,71,100
76680,note_on,360,0,1,,,,,,,,0,,,67,100
76680,note_on,0,0,1,,,,,,,,0,,,76,100
76800,note_on,240,0,2,,,,,,,,1,,,60,0
76800,note_on,0,0,1,,,,,,,,0,,,71,0
76800,note_on,120,0,1,,,,,,,,0,,,76,0
76800,note_on,0,0,1,,,,,,,,0,,,67,0
76800,note_on,0,0,2,,,,,,,,1,,,66,100
76800,note_on,0,0,2,,,,,,,,1,,,69,100
76800,note_on,0,0,2,,,,,,,,1,,,75,100
76920,note_on,0,0,1,,,,,,,,0,,,71,100
76920,note_on,0,0,1,,,,,,,,0,,,76,100
76920,note_on,120,0,2,,,,,,,,1,,,75,0
76920,note_on,0,0,2,,,,,,,,1,,,69,0
76920,note_on,120,0,1,,,,,,,,0,,,67,100
76920,note_on,0,0,2,,,,,,,,1,,,66,0
77040,note_on,120,0,2,,,,,,,,1,,,75,100
77040,note_on,120,0,1,,,,,,,,0,,,76,0
77040,note_on,0,0,1,,,,,,,,0,,,67,0
77040,note_on,0,0,1,,,,,,,,0,,,71,0
77040,note_on,0,0,2,,,,,,,,1,,,66,100
77040,note_on,0,0,2,,,,,,,,1,,,69,100
77160,note_on,0,0,1,,,,,,,,0,,,71,100
77160,note_on,120,0,1,,,,,,,,0,,,67,100
77160,note_on,0,0,2,,,,,,,,1,,,69,0
77160,note_on,0,0,2,,,,,,,,1,,,75,0
77160,note_on,120,0,2,,,,,,,,1,,,66,0
77160,note_on,0,0,1,,,,,,,,0,,,76,100
77280,note_on,0,0,1,,,,,,,,0,,,67,0
77280,note_on,0,0,1,,,,,,,,0,,,71,0
77280,note_on,120,0,1,,,,,,,,0,,,76,0
77280,note_on,120,0,2,,,,,,,,1,,,59,100
77280,note_on,0,0,2,,,,,,,,1,,,71,100
77400,note_on,0,0,1,,,,,,,,0,,,71,100
77400,note_on,120,0,1,,,,,,,,0,,,67,100
77400,note_on,0,0,1,,,,,,,,0,,,76,100
77400,note_on,0,0,2,,,,,,,,1,,,59,0
77400,note_on,120,0,2,,,,,,,,1,,,71,0
77520,note_on,120,0,2,,,,,,,,1,,,75,100
77520,note_on,0,0,2,,,,,,,,1,,,69,100
77520,note_on,0,0,2,,,,,,,,1,,,66,100
77520,note_on,0,0,1,,,,,,,,0,,,67,0
77520,note_on,120,0,1,,,,,,,,0,,,76,0
77520,note_on,0,0,1,,,,,,,,0,,,71,0
77640,note_on,120,0,2,,,,,,,,1,,,66,0
77640,note_on,0,0,2,,,,,,,,1,,,69,0
77640,note_on,0,0,2,,,,,,,,1,,,75,0
77640,note_on,0,0,1,,,,,,,,0,,,76,100
77640,note_on,0,0,1,,,,,,,,0,,,71,100
77640,note_on,120,0,1,,,,,,,,0,,,67,100
77760,note_on,0,0,1,,,,,,,,0,,,67,0
77760,note_on,0,0,1,,,,,,,,0,,,71,0
77760,note_on,120,0,1,,,,,,,,0,,,76,0
77760,note_on,120,0,2,,,,,,,,1,,,57,100
77840,note_on,80,0,1,,,,,,,,0,,,78,100
77920,note_on,80,0,1,,,,,,,,0,,,78,0
77920,note_on,0,0,1,,,,,,,,0,,,79,100
78000,note_on,0,0,2,,,,,,,,1,,,51,100
78000,note_on,240,0,2,,,,,,,,1,,,57,0
78000,note_on,80,0,1,,,,,,,,0,,,79,0
78000,note_on,0,0,1,,,,,,,,0,,,81,100
78080,note_on,80,0,1,,,,,,,,0,,,81,0
78080,note_on,0,0,1,,,,,,,,0,,,83,100
78160,note_on,0,0,1,,,,,,,,0,,,84,100
78160,note_on,80,0,1,,,,,,,,0,,,83,0
78240,note_on,0,0,2,,,,,,,,1,,,52,100
78240,note_on,240,0,2,,,,,,,,1,,,51,0
78320,note_on,160,0,1,,,,,,,,0,,,84,0
78320,note_on,0,0,1,,,,,,,,0,,,83,100
78400,note_on,80,0,1,,,,,,,,0,,,83,0
78400,note_on,0,0,1,,,,,,,,0,,,81,100
78480,note_on,0,0,2,,,,,,,,1,,,57,100
78480,note_on,80,0,1,,,,,,,,0,,,81,0
78480,note_on,0,0,1,,,,,,,,0,,,79,100
78480,note_on,240,0,2,,,,,,,,1,,,52,0
78560,note_on,0,0,1,,,,,,,,0,,,78,100
78560,note_on,80,0,1,,,,,,,,0,,,79,0
78640,note_on,0,0,1,,,,,,,,0,,,76,100
78640,note_on,80,0,1,,,,,,,,0,,,78,0
78720,note_on,240,0,2,,,,,,,,1,,,57,0
78720,note_on,0,0,2,,,,,,,,1,,,59,100
78720,note_on,0,0,1,,,,,,,,0,,,75,100
78720,note_on,80,0,1,,,,,,,,0,,,76,0
78800,note_on,0,0,1,,,,,,,,0,,,72,100
78800,note_on,80,0,1,,,,,,,,0,,,75,0
78880,note_on,0,0,1,,,,,,,,0,,,71,100
78880,note_on,80,0,1,,,,,,,,0,,,72,0
78960,note_on,0,0,1,,,,,,,,0,,,69,100
78960,note_on,240,0,2,,,,,,,,1,,,59,0
78960,note_on,0,0,2,,,,,,,,1,,,47,100
78960,note_on,80,0,1,,,,,,,,0,,,71,0
79040,note_on,0,0,1,,,,,,,,0,,,67,100
79040,note_on,80,0,1,,,,,,,,0,,,69,0
79120,note_on,0,0,1,,,,,,,,0,,,66,100
79120,note_on,80,0,1,,,,,,,,0,,,67,0
79200,note_on,0,0,1,,,,,,,,0,,,64,100
79200,note_on,0,0,2,,,,,,,,1,,,52,100
79200,note_on,240,0,2,,,,,,,,1,,,47,0
79200,note_on,80,0,1,,,,,,,,0,,,66,0
79320,note_on,0,0,1,,,,,,,,0,,,67,100
79320,note_on,120,0,1,,,,,,,,0,,,64,0
79320,note_on,0,0,1,,,,,,,,0,,,76,100
79320,note_on,0,0,1,,,,,,,,0,,,71,100
79440,note_on,120,0,1,,,,,,,,0,,,76,0
79440,note_on,0,0,1,,,,,,,,0,,,71,0
79440,note_on,0,0,1,,,,,,,,0,,,67,0
79440,note_on,0,0,2,,,,,,,,1,,,75,100
79440,note_on,240,0,2,,,,,,,,1,,,52,0
79440,note_on,0,0,2,,,,,,,,1,,,66,100
79440,note_on,0,0,2,,,,,,,,1,,,69,100
79560,note_on,0,0,2,,,,,,,,1,,,66,0
79560,note_on,0,0,2,,,,,,,,1,,,69,0
79560,note_on,120,0,2,,,,,,,,1,,,75,0
79560,note_on,120,0,1,,,,,,,,0,,,67,100
79560,note_on,0,0,1,,,,,,,,0,,,71,100
79560,note_on,0,0,1,,,,,,,,0,,,76,100
79680,note_on,0,0,1,,,,,,,,0,,,67,0
79680,note_on,0,0,1,,,,,,,,0,,,71,0
79680,note_on,120,0,1,,,,,,,,0,,,76,0
79680,note_on,0,0,2,,,,,,,,1,,,71,100
79680,note_on,0,0,2,,,,,,,,1,,,66,100
79680,note_on,120,0,2,,,,,,,,1,,,63,100
79800,note_on,120,0,2,,,,,,,,1,,,71,0
79800,note_on,0,0,2,,,,,,,,1,,,66,0
79800,note_on,120,0,1,,,,,,,,0,,,64,100
79800,note_on,0,0,2,,,,,,,,1,,,63,0
79800,note_on,0,0,1,,,,,,,,0,,,72,100
79800,note_on,0,0,1,,,,,,,,0,,,67,100
79920,note_on,0,0,1,,,,,,,,0,,,64,0
79920,note_on,0,0,1,,,,,,,,0,,,67,0
79920,note_on,120,0,1,,,,,,,,0,,,72,0
79920,note_on,120,0,2,,,,,,,,1,,,71,100
79920,note_on,0,0,2,,,,,,,,1,,,66,100
79920,note_on,0,0,2,,,,,,,,1,,,63,100
80040,note_on,120,0,1,,,,,,,,0,,,64,100
80040,note_on,120,0,2,,,,,,,,1,,,63,0
80040,note_on,0,0,2,,,,,,,,1,,,66,0
80040,note_on,0,0,2,,,,,,,,1,,,71,0
80040,note_on,0,0,1,,,,,,,,0,,,67,100
80040,note_on,0,0,1,,,,,,,,0,,,72,100
80160,note_on,120,0,2,,,,,,,,1,,,66,100
80160,note_on,120,0,1,,,,,,,,0,,,72,0
80160,note_on,0,0,1,,,,,,,,0,,,67,0
80160,note_on,0,0,1,,,,,,,,0,,,64,0
80160,note_on,0,0,2,,,,,,,,1,,,63,100
80160,note_on,0,0,2,,,,,,,,1,,,57,100
80280,note_on,120,0,1,,,,,,,,0,,,59,100
80280,note_on,0,0,1,,,,,,,,0,,,67,100
80280,note_on,0,0,1,,,,,,,,0,,,64,100
80280,note_on,0,0,2,,,,,,,,1,,,63,0
80280,note_on,0,0,2,,,,,,,,1,,,66,0
80280,note_on,120,0,2,,,,,,,,1,,,57,0
80400,note_on,0,0,1,,,,,,,,0,,,59,0
80400,note_on,0,0,1,,,,,,,,0,,,67,0
80400,note_on,0,0,2,,,,,,,,1,,,57,100
80400,note_on,0,0,2,,,,,,,,1,,,66,100
80400,note_on,120,0,1,,,,,,,,0,,,64,0
80400,note_on,120,0,2,,,,,,,,1,,,63,100
80520,note_on,0,0,2,,,,,,,,1,,,63,0
80520,note_on,0,0,2,,,,,,,,1,,,66,0
80520,note_on,120,0,2,,,,,,,,1,,,57,0
80520,note_on,120,0,1,,,,,,,,0,,,59,100
80520,note_on,0,0,1,,,,,,,,0,,,67,100
80520,note_on,0,0,1,,,,,,,,0,,,64,100
80640,note_on,120,0,2,,,,,,,,1,,,48,100
80640,note_on,120,0,1,,,,,,,,0,,,64,0
80640,note_on,0,0,1,,,,,,,,0,,,67,0
80640,note_on,0,0,1,,,,,,,,0,,,59,0
80720,note_on,80,0,1,,,,,,,,0,,,52,100
80800,note_on,80,0,1,,,,,,,,0,,,52,0
80800,note_on,0,0,1,,,,,,,,0,,,53,100
80880,note_on,0,0,2,,,,,,,,1,,,59,100
80880,note_on,80,0,1,,,,,,,,0,,,53,0
80880,note_on,0,0,1,,,,,,,,0,,,54,100
80880,note_on,240,0,2,,,,,,,,1,,,48,0
80960,note_on,0,0,1,,,,,,,,0,,,55,100
80960,note_on,80,0,1,,,,,,,,0,,,54,0
81040,note_on,80,0,1,,,,,,,,0,,,55,0
81040,note_on,0,0,1,,,,,,,,0,,,56,100
81120,note_on,80,0,1,,,,,,,,0,,,56,0
81120,note_on,0,0,2,,,,,,,,1,,,57,100
81120,note_on,240,0,2,,,,,,,,1,,,59,0
81200,note_on,80,0,1,,,,,,,,0,,,59,100
81280,note_on,0,0,1,,,,,,,,0,,,60,100
81280,note_on,80,0,1,,,,,,,,0,,,59,0
81360,note_on,0,0,1,,,,,,,,0,,,62,100
81360,note_on,80,0,1,,,,,,,,0,,,60,0
81360,note_on,240,0,2,,,,,,,,1,,,57,0
81360,note_on,0,0,2,,,,,,,,1,,,56,100
81440,note_on,80,0,1,,,,,,,,0,,,62,0
81440,note_on,0,0,1,,,,,,,,0,,,60,100
81520,note_on,80,0,1,,,,,,,,0,,,60,0
81520,note_on,0,0,1,,,,,,,,0,,,59,100
81600,note_on,240,0,2,,,,,,,,1,,,56,0
81600,note_on,80,0,1,,,,,,,,0,,,59,0
81600,note_on,0,0,1,,,,,,,,0,,,60,100
81600,note_on,0,0,2,,,,,,,,1,,,57,100
81680,note_on,80,0,1,,,,,,,,0,,,60,0
81680,note_on,0,0,1,,,,,,,,0,,,62,100
81760,note_on,0,0,1,,,,,,,,0,,,64,100
81760,note_on,80,0,1,,,,,,,,0,,,62,0
81840,note_on,240,0,2,,,,,,,,1,,,57,0
81840,note_on,0,0,2,,,,,,,,1,,,48,100
81840,note_on,0,0,1,,,,,,,,0,,,66,100
81840,note_on,80,0,1,,,,,,,,0,,,64,0
81920,note_on,80,0,1,,,,,,,,0,,,66,0
81920,note_on,0,0,1,,,,,,,,0,,,67,100
82000,note_on,80,0,1,,,,,,,,0,,,67,0
82000,note_on,0,0,1,,,,,,,,0,,,69,100
82080,note_on,240,0,2,,,,,,,,1,,,48,0
82080,note_on,80,0,1,,,,,,,,0,,,69,0
82080,note_on,0,0,2,,,,,,,,1,,,47,100
82160,note_on,80,0,1,,,,,,,,0,,,50,100
82240,note_on,0,0,1,,,,,,,,0,,,51,100
82240,note_on,80,0,1,,,,,,,,0,,,50,0
82320,note_on,0,0,1,,,,,,,,0,,,52,100
82320,note_on,240,0,2,,,,,,,,1,,,47,0
82320,note_on,80,0,1,,,,,,,,0,,,51,0
82320,note_on,0,0,2,,,,,,,,1,,,57,100
82400,note_on,0,0,1,,,,,,,,0,,,53,100
82400,note_on,80,0,1,,,,,,,,0,,,52,0
82480,note_on,0,0,1,,,,,,,,0,,,54,100
82480,note_on,80,0,1,,,,,,,,0,,,53,0
82560,note_on,240,0,2,,,,,,,,1,,,57,0
82560,note_on,0,0,2,,,,,,,,1,,,55,100
82560,note_on,80,0,1,,,,,,,,0,,,54,0
82640,note_on,80,0,1,,,,,,,,0,,,57,100
82720,note_on,0,0,1,,,,,,,,0,,,59,100
82720,note_on,80,0,1,,,,,,,,0,,,57,0
82800,note_on,0,0,2,,,,,,,,1,,,54,100
82800,note_on,240,0,2,,,,,,,,1,,,55,0
82800,note_on,0,0,1,,,,,,,,0,,,60,100
82800,note_on,80,0,1,,,,,,,,0,,,59,0
82880,note_on,80,0,1,,,,,,,,0,,,60,0
82880,note_on,0,0,1,,,,,,,,0,,,59,100
82960,note_on,80,0,1,,,,,,,,0,,,59,0
82960,note_on,0,0,1,,,,,,,,0,,,57,100
83040,note_on,0,0,2,,,,,,,,1,,,55,100
83040,note_on,240,0,2,,,,,,,,1,,,54,0
83040,note_on,0,0,1,,,,,,,,0,,,59,100
83040,note_on,80,0,1,,,,,,,,0,,,57,0
83120,note_on,80,0,1,,,,,,,,0,,,59,0
83120,note_on,0,0,1,,,,,,,,0,,,60,100
83200,note_on,80,0,1,,,,,,,,0,,,60,0
83200,note_on,0,0,1,,,,,,,,0,,,62,100
83280,note_on,240,0,2,,,,,,,,1,,,55,0
83280,note_on,80,0,1,,,,,,,,0,,,62,0
83280,note_on,0,0,1,,,,,,,,0,,,64,100
83280,note_on,0,0,2,,,,,,,,1,,,47,100
83360,note_on,80,0,1,,,,,,,,0,,,64,0
83360,note_on,0,0,1,,,,,,,,0,,,66,100
83440,note_on,80,0,1,,,,,,,,0,,,66,0
83440,note_on,0,0,1,,,,,,,,0,,,67,100
83520,note_on,80,0,1,,,,,,,,0,,,67,0
83520,note_on,0,0,1,,,,,,,,0,,,60,100
83520,note_on,240,0,2,,,,,,,,1,,,47,0
83520,note_on,0,0,2,,,,,,,,1,,,45,100
83600,note_on,80,0,1,,,,,,,,0,,,60,0
83600,note_on,0,0,2,,,,,,,,1,,,57,100
83600,note_on,80,0,2,,,,,,,,1,,,45,0
83680,note_on,80,0,2,,,,,,,,1,,,57,0
83680,note_on,80,0,1,,,,,,,,0,,,65,100
83760,note_on,0,0,1,,,,,,,,0,,,64,100
83760,note_on,80,0,1,,,,,,,,0,,,65,0
83840,note_on,0,0,1,,,,,,,,0,,,60,100
83840,note_on,80,0,1,,,,,,,,0,,,64,0
83920,note_on,240,0,2,,,,,,,,1,,,59,100
83920,note_on,80,0,1,,,,,,,,0,,,60,0
84000,note_on,80,0,2,,,,,,,,1,,,59,0
84000,note_on,0,0,2,,,,,,,,1,,,57,100
84080,note_on,80,0,2,,,,,,,,1,,,57,0
84080,note_on,0,0,2,,,,,,,,1,,,60,100
84160,note_on,240,0,1,,,,,,,,0,,,62,100
84160,note_on,80,0,2,,,,,,,,1,,,60,0
84240,note_on,80,0,1,,,,,,,,0,,,62,0
84240,note_on,0,0,1,,,,,,,,0,,,60,100
84320,note_on,80,0,1,,,,,,,,0,,,60,0
84320,note_on,0,0,1,,,,,,,,0,,,57,100
84400,note_on,80,0,1,,,,,,,,0,,,57,0
84400,note_on,240,0,2,,,,,,,,1,,,55,100
84480,note_on,0,0,2,,,,,,,,1,,,54,100
84480,note_on,80,0,2,,,,,,,,1,,,55,0
84560,note_on,0,0,2,,,,,,,,1,,,57,100
84560,note_on,80,0,2,,,,,,,,1,,,54,0
84640,note_on,240,0,1,,,,,,,,0,,,59,100
84640,note_on,80,0,2,,,,,,,,1,,,57,0
84720,note_on,0,0,1,,,,,,,,0,,,57,100
84720,note_on,80,0,1,,,,,,,,0,,,59,0
84800,note_on,80,0,1,,,,,,,,0,,,57,0
84800,note_on,0,0,1,,,,,,,,0,,,54,100
84880,note_on,240,0,2,,,,,,,,1,,,52,100
84880,note_on,80,0,1,,,,,,,,0,,,54,0
84960,note_on,80,0,2,,,,,,,,1,,,52,0
84960,note_on,0,0,2,,,,,,,,1,,,50,100
85040,note_on,80,0,2,,,,,,,,1,,,50,0
85040,note_on,0,0,2,,,,,,,,1,,,62,100
85120,note_on,80,0,2,,,,,,,,1,,,62,0
85120,note_on,240,0,1,,,,,,,,0,,,71,100
85200,note_on,0,0,1,,,,,,,,0,,,69,100
85200,note_on,80,0,1,,,,,,,,0,,,71,0
85280,note_on,80,0,1,,,,,,,,0,,,69,0
85280,note_on,0,0,1,,,,,,,,0,,,66,100
85360,note_on,240,0,2,,,,,,,,1,,,64,100
85360,note_on,80,0,1,,,,,,,,0,,,66,0
85440,note_on,80,0,2,,,,,,,,1,,,64,0
85440,note_on,0,0,2,,,,,,,,1,,,62,100
85520,note_on,80,0,2,,,,,,,,1,,,62,0
85520,note_on,0,0,2,,,,,,,,1,,,66,100
85600,note_on,240,0,1,,,,,,,,0,,,67,100
85600,note_on,80,0,2,,,,,,,,1,,,66,0
85680,note_on,80,0,1,,,,,,,,0,,,67,0
85680,note_on,0,0,1,,,,,,,,0,,,66,100
85760,note_on,80,0,1,,,,,,,,0,,,66,0
85760,note_on,0,0,1,,,,,,,,0,,,62,100
85840,note_on,240,0,2,,,,,,,,1,,,60,100
85840,note_on,80,0,1,,,,,,,,0,,,62,0
85920,note_on,80,0,2,,,,,,,,1,,,60,0
85920,note_on,0,0,2,,,,,,,,1,,,59,100
86000,note_on,80,0,2,,,,,,,,1,,,59,0
86000,note_on,0,0,2,,,,,,,,1,,,62,100
86080,note_on,240,0,1,,,,,,,,0,,,64,100
86080,note_on,80,0,2,,,,,,,,1,,,62,0
86160,note_on,80,0,1,,,,,,,,0,,,64,0
86160,note_on,0,0,1,,,,,,,,0,,,62,100
86240,note_on,80,0,1,,,,,,,,0,,,62,0
86240,note_on,0,0,1,,,,,,,,0,,,59,100
86320,note_on,80,0,1,,,,,,,,0,,,59,0
86320,note_on,240,0,2,,,,,,,,1,,,57,100
86400,note_on,80,0,2,,,,,,,,1,,,57,0
86400,note_on,0,0,2,,,,,,,,1,,,55,100
86480,note_on,80,0,2,,,,,,,,1,,,55,0
86480,note_on,0,0,2,,,,,,,,1,,,67,100
86560,note_on,80,0,2,,,,,,,,1,,,67,0
86560,note_on,240,0,1,,,,,,,,0,,,76,100
86640,note_on,80,0,1,,,,,,,,0,,,76,0
86640,note_on,0,0,1,,,,,,,,0,,,74,100
86720,note_on,80,0,1,,,,,,,,0,,,74,0
86720,note_on,0,0,1,,,,,,,,0,,,71,100
86800,note_on,240,0,2,,,,,,,,1,,,69,100
86800,note_on,80,0,1,,,,,,,,0,,,71,0
86880,note_on,0,0,2,,,,,,,,1,,,67,100
86880,note_on,80,0,2,,,,,,,,1,,,69,0
86960,note_on,0,0,2,,,,,,,,1,,,71,100
86960,note_on,80,0,2,,,,,,,,1,,,67,0
87040,note_on,80,0,2,,,,,,,,1,,,71,0
87040,note_on,240,0,1,,,,,,,,0,,,72,100
87120,note_on,0,0,1,,,,,,,,0,,,71,100
87120,note_on,80,0,1,,,,,,,,0,,,72,0
87200,note_on,0,0,1,,,,,,,,0,,,67,100
87200,note_on,80,0,1,,,,,,,,0,,,71,0
87280,note_on,240,0,2,,,,,,,,1,,,65,100
87280,note_on,80,0,1,,,,,,,,0,,,67,0
87360,note_on,80,0,2,,,,,,,,1,,,65,0
87360,note_on,0,0,2,,,,,,,,1,,,64,100
87440,note_on,0,0,2,,,,,,,,1,,,67,100
87440,note_on,80,0,2,,,,,,,,1,,,64,0
87520,note_on,240,0,1,,,,,,,,0,,,69,100
87520,note_on,80,0,2,,,,,,,,1,,,67,0
87600,note_on,80,0,1,,,,,,,,0,,,69,0
87600,note_on,0,0,1,,,,,,,,0,,,67,100
87680,note_on,80,0,1,,,,,,,,0,,,67,0
87680,note_on,0,0,1,,,,,,,,0,,,64,100
87760,note_on,80,0,1,,,,,,,,0,,,64,0
87760,note_on,240,0,2,,,,,,,,1,,,62,100
87840,note_on,80,0,2,,,,,,,,1,,,62,0
87840,note_on,0,0,2,,,,,,,,1,,,60,100
87920,note_on,80,0,2,,,,,,,,1,,,60,0
87920,note_on,0,0,2,,,,,,,,1,,,72,100
88000,note_on,240,0,1,,,,,,,,0,,,81,100
88000,note_on,80,0,2,,,,,,,,1,,,72,0
88080,note_on,80,0,1,,,,,,,,0,,,81,0
88080,note_on,0,0,1,,,,,,,,0,,,79,100
88160,note_on,80,0,1,,,,,,,,0,,,79,0
88160,note_on,0,0,1,,,,,,,,0,,,76,100
88240,note_on,80,0,1,,,,,,,,0,,,76,0
88240,note_on,240,0,2,,,,,,,,1,,,74,100
88320,note_on,80,0,2,,,,,,,,1,,,74,0
88320,note_on,0,0,2,,,,,,,,1,,,72,100
88400,note_on,0,0,2,,,,,,,,1,,,76,100
88400,note_on,80,0,2,,,,,,,,1,,,72,0
88480,note_on,240,0,1,,,,,,,,0,,,77,100
88480,note_on,80,0,2,,,,,,,,1,,,76,0
88560,note_on,0,0,1,,,,,,,,0,,,76,100
88560,note_on,80,0,1,,,,,,,,0,,,77,0
88640,note_on,80,0,1,,,,,,,,0,,,76,0
88640,note_on,0,0,1,,,,,,,,0,,,72,100
88720,note_on,240,0,2,,,,,,,,1,,,71,100
88720,note_on,80,0,1,,,,,,,,0,,,72,0
88800,note_on,0,0,2,,,,,,,,1,,,69,100
88800,note_on,80,0,2,,,,,,,,1,,,71,0
88880,note_on,80,0,2,,,,,,,,1,,,69,0
88880,note_on,0,0,2,,,,,,,,1,,,72,100
88960,note_on,80,0,2,,,,,,,,1,,,72,0
88960,note_on,240,0,1,,,,,,,,0,,,74,100
89040,note_on,0,0,1,,,,,,,,0,,,72,100
89040,note_on,80,0,1,,,,,,,,0,,,74,0
89120,note_on,80,0,1,,,,,,,,0,,,72,0
89120,note_on,0,0,1,,,,,,,,0,,,69,100
89200,note_on,240,0,2,,,,,,,,1,,,67,100
89200,note_on,80,0,1,,,,,,,,0,,,69,0
89280,note_on,80,0,2,,,,,,,,1,,,67,0
89280,note_on,0,0,2,,,,,,,,1,,,66,100
89360,note_on,160,0,1,,,,,,,,0,,,69,100
89440,note_on,0,0,1,,,,,,,,0,,,71,100
89440,note_on,80,0,1,,,,,,,,0,,,69,0
89520,note_on,240,0,2,,,,,,,,1,,,66,0
89520,note_on,80,0,1,,,,,,,,0,,,71,0
89520,note_on,0,0,1,,,,,,,,0,,,72,100
89520,note_on,0,0,2,,,,,,,,1,,,57,100
89600,note_on,0,0,1,,,,,,,,0,,,74,100
89600,note_on,80,0,1,,,,,,,,0,,,72,0
89680,note_on,0,0,1,,,,,,,,0,,,76,100
89680,note_on,80,0,1,,,,,,,,0,,,74,0
89760,note_on,240,0,2,,,,,,,,1,,,57,0
89760,note_on,0,0,2,,,,,,,,1,,,59,100
89840,note_on,0,0,1,,,,,,,,0,,,74,100
89840,note_on,160,0,1,,,,,,,,0,,,76,0
89920,note_on,80,0,1,,,,,,,,0,,,74,0
89920,note_on,0,0,1,,,,,,,,0,,,72,100
90000,note_on,80,0,1,,,,,,,,0,,,72,0
90000,note_on,0,0,1,,,,,,,,0,,,71,100
90000,note_on,240,0,2,,,,,,,,1,,,59,0
90000,note_on,0,0,2,,,,,,,,1,,,60,100
90080,note_on,80,0,1,,,,,,,,0,,,71,0
90080,note_on,0,0,1,,,,,,,,0,,,69,100
90160,note_on,80,0,1,,,,,,,,0,,,69,0
90160,note_on,0,0,1,,,,,,,,0,,,67,100
90240,note_on,240,0,2,,,,,,,,1,,,60,0
90240,note_on,0,0,2,,,,,,,,1,,,62,100
90320,note_on,160,0,1,,,,,,,,0,,,67,0
90320,note_on,0,0,1,,,,,,,,0,,,66,100
90400,note_on,0,0,1,,,,,,,,0,,,67,100
90400,note_on,80,0,1,,,,,,,,0,,,66,0
90480,note_on,80,0,1,,,,,,,,0,,,67,0
90480,note_on,0,0,1,,,,,,,,0,,,69,100
90480,note_on,240,0,2,,,,,,,,1,,,62,0
90480,note_on,0,0,2,,,,,,,,1,,,50,100
90560,note_on,0,0,1,,,,,,,,0,,,71,100
90560,note_on,80,0,1,,,,,,,,0,,,69,0
90640,note_on,0,0,1,,,,,,,,0,,,72,100
90640,note_on,80,0,1,,,,,,,,0,,,71,0
90720,note_on,0,0,2,,,,,,,,1,,,55,100
90720,note_on,80,0,1,,,,,,,,0,,,72,0
90720,note_on,0,0,1,,,,,,,,0,,,72,100
90720,note_on,240,0,2,,,,,,,,1,,,50,0
90780,note_on,0,0,1,,,,,,,,0,,,71,100
90780,note_on,60,0,1,,,,,,,,0,,,72,0
90960,note_on,180,0,1,,,,,,,,0,,,71,0
90960,note_on,240,0,2,,,,,,,,1,,,55,0
90960,note_on,0,0,2,,,,,,,,1,,,43,100
91080,note_on,0,0,1,,,,,,,,0,,,79,100
91080,note_on,0,0,1,,,,,,,,0,,,71,100
91080,note_on,120,0,1,,,,,,,,0,,,74,100
91200,note_on,0,0,1,,,,,,,,0,,,74,0
91200,note_on,0,0,1,,,,,,,,0,,,79,0
91200,note_on,120,0,1,,,,,,,,0,,,71,0
91200,note_on,0,0,2,,,,,,,,1,,,72,100
91200,note_on,0,0,2,,,,,,,,1,,,69,100
91200,note_on,0,0,2,,,,,,,,1,,,78,100
91200,note_on,240,0,2,,,,,,,,1,,,43,0
91320,note_on,0,0,1,,,,,,,,0,,,79,100
91320,note_on,0,0,1,,,,,,,,0,,,71,100
91320,note_on,0,0,2,,,,,,,,1,,,69,0
91320,note_on,120,0,2,,,,,,,,1,,,72,0
91320,note_on,120,0,1,,,,,,,,0,,,74,100
91320,note_on,0,0,2,,,,,,,,1,,,78,0
91440,note_on,120,0,1,,,,,,,,0,,,71,0
91440,note_on,0,0,1,,,,,,,,0,,,74,0
91440,note_on,0,0,1,,,,,,,,0,,,79,0
91440,note_on,0,0,2,,,,,,,,1,,,69,100
91440,note_on,0,0,2,,,,,,,,1,,,78,100
91440,note_on,120,0,2,,,,,,,,1,,,72,100
91560,note_on,0,0,2,,,,,,,,1,,,78,0
91560,note_on,120,0,2,,,,,,,,1,,,69,0
91560,note_on,0,0,1,,,,,,,,0,,,79,100
91560,note_on,120,0,1,,,,,,,,0,,,74,100
91560,note_on,0,0,1,,,,,,,,0,,,71,100
91560,note_on,0,0,2,,,,,,,,1,,,72,0
91680,note_on,120,0,1,,,,,,,,0,,,71,0
91680,note_on,0,0,1,,,,,,,,0,,,79,0
91680,end_of_track,0,1,1,,,,,,,,,,,,
91680,end_of_track,0,1,0,,,,,,,,,,,,
91680,note_on,120,0,2,,,,,,,,1,,,55,100
91680,set_tempo,22560,1,0,,,,,,1200000,,,,,,
91680,note_on,0,0,1,,,,,,,,0,,,74,0
92160,end_of_track,0,1,2,,,,,,,,,,,,
92160,note_on,480,0,2,,,,,,,,1,,,55,0
