tick,type,numerator,denominator,clocks_per_click,notated_32nd_notes_per_beat,time,meta,track,key,tempo,port,program,channel,note,velocity
0,time_signature,4,4,24,8,0,1,0,,,,,,,
0,key_signature,,,,,0,1,0,C,,,,,,
0,set_tempo,,,,,0,1,0,,722891,,,,,
0,track_name,,,,,0,1,3,,,,,,,
0,midi_port,,,,,0,1,3,,,0,,,,
0,midi_port,,,,,0,1,2,,,0,,,,
0,track_name,,,,,0,1,2,,,,,,,
0,program_change,,,,,0,0,2,,,,6,1,,
0,midi_port,,,,,0,1,1,,,0,,,,
0,track_name,,,,,0,1,1,,,,,,,
0,program_change,,,,,0,0,1,,,,6,0,,
0,program_change,,,,,0,0,3,,,,6,2,,
120,note_on,,,,,120,0,2,,,,,1,72,64
180,note_on,,,,,60,0,2,,,,,1,72,0
180,note_on,,,,,0,0,2,,,,,1,71,64
240,note_on,,,,,0,0,2,,,,,1,72,64
240,note_on,,,,,60,0,2,,,,,1,71,0
360,note_on,,,,,120,0,2,,,,,1,72,0
360,note_on,,,,,0,0,2,,,,,1,67,64
480,note_on,,,,,120,0,2,,,,,1,67,0
480,note_on,,,,,0,0,2,,,,,1,68,64
600,note_on,,,,,120,0,2,,,,,1,68,0
600,note_on,,,,,0,0,2,,,,,1,72,64
660,note_on,,,,,60,0,2,,,,,1,71,64
663,note_on,,,,,3,0,2,,,,,1,72,0
720,note_on,,,,,57,0,2,,,,,1,71,0
720,note_on,,,,,0,0,2,,,,,1,72,64
840,note_on,,,,,120,0,2,,,,,1,72,0
840,note_on,,,,,0,0,2,,,,,1,74,64
960,note_on,,,,,120,0,2,,,,,1,74,0
960,note_on,,,,,0,0,2,,,,,1,67,64
1080,note_on,,,,,0,0,2,,,,,1,72,64
1080,note_on,,,,,120,0,2,,,,,1,67,0
1140,note_on,,,,,60,0,2,,,,,1,72,0
1140,note_on,,,,,0,0,2,,,,,1,71,64
1200,note_on,,,,,60,0,2,,,,,1,71,0
1200,note_on,,,,,0,0,2,,,,,1,72,64
1320,note_on,,,,,120,0,2,,,,,1,72,0
1320,note_on,,,,,0,0,2,,,,,1,74,64
1440,note_on,,,,,120,0,2,,,,,1,74,0
1440,note_on,,,,,0,0,2,,,,,1,65,64
1500,note_on,,,,,60,0,2,,,,,1,65,0
1500,note_on,,,,,0,0,2,,,,,1,67,64
1560,note_on,,,,,60,0,2,,,,,1,67,0
1560,note_on,,,,,0,0,2,,,,,1,68,64
1800,note_on,,,,,240,0,2,,,,,1,67,64
1809,note_on,,,,,9,0,2,,,,,1,68,0
1860,note_on,,,,,51,0,2,,,,,1,67,0
1860,note_on,,,,,0,0,2,,,,,1,65,64
1920,note_on,,,,,60,0,2,,,,,1,65,0
1920,note_on,,,,,0,0,2,,,,,1,63,64
1980,note_on,,,,,60,0,2,,,,,1,63,0
1980,note_on,,,,,0,0,2,,,,,1,72,64
2040,note_on,,,,,2040,0,1,,,,,0,79,64
2040,note_on,,,,,60,0,2,,,,,1,72,0
2040,note_on,,,,,0,0,2,,,,,1,71,64
2100,note_on,,,,,0,0,2,,,,,1,69,64
2100,note_on,,,,,60,0,2,,,,,1,71,0
2100,note_on,,,,,60,0,1,,,,,0,79,0
2100,note_on,,,,,0,0,1,,,,,0,78,64
2160,note_on,,,,,0,0,2,,,,,1,67,64
2160,note_on,,,,,60,0,1,,,,,0,78,0
2160,note_on,,,,,0,0,1,,,,,0,79,64
2160,note_on,,,,,60,0,2,,,,,1,69,0
2220,note_on,,,,,0,0,2,,,,,1,65,64
2220,note_on,,,,,60,0,2,,,,,1,67,0
2280,note_on,,,,,0,0,2,,,,,1,63,64
2280,note_on,,,,,60,0,2,,,,,1,65,0
2280,note_on,,,,,120,0,1,,,,,0,79,0
2280,note_on,,,,,0,0,1,,,,,0,72,64
2340,note_on,,,,,60,0,2,,,,,1,63,0
2340,note_on,,,,,0,0,2,,,,,1,62,64
2400,note_on,,,,,0,0,1,,,,,0,75,64
2400,note_on,,,,,120,0,1,,,,,0,72,0
2400,note_on,,,,,60,0,2,,,,,1,62,0
2400,note_on,,,,,0,0,2,,,,,1,60,64
2520,note_on,,,,,0,0,1,,,,,0,79,64
2520,note_on,,,,,120,0,1,,,,,0,75,0
2520,note_on,,,,,120,0,2,,,,,1,60,0
2520,note_on,,,,,0,0,2,,,,,1,75,64
2580,note_on,,,,,0,0,1,,,,,0,78,64
2580,note_on,,,,,60,0,1,,,,,0,79,0
2640,note_on,,,,,0,0,2,,,,,1,74,64
2640,note_on,,,,,120,0,2,,,,,1,75,0
2640,note_on,,,,,60,0,1,,,,,0,78,0
2640,note_on,,,,,0,0,1,,,,,0,79,64
2760,note_on,,,,,120,0,1,,,,,0,79,0
2760,note_on,,,,,0,0,2,,,,,1,72,64
2760,note_on,,,,,120,0,2,,,,,1,74,0
2760,note_on,,,,,0,0,1,,,,,0,81,64
2880,note_on,,,,,0,0,1,,,,,0,74,64
2880,note_on,,,,,120,0,1,,,,,0,81,0
2880,note_on,,,,,0,0,2,,,,,1,70,64
2880,note_on,,,,,120,0,2,,,,,1,72,0
3000,note_on,,,,,0,0,2,,,,,1,69,64
3000,note_on,,,,,120,0,1,,,,,0,74,0
3000,note_on,,,,,0,0,1,,,,,0,79,64
3000,note_on,,,,,120,0,2,,,,,1,70,0
3060,note_on,,,,,60,0,1,,,,,0,79,0
3060,note_on,,,,,0,0,1,,,,,0,78,64
3105,note_on,,,,,45,0,1,,,,,0,78,0
3120,note_on,,,,,15,0,1,,,,,0,79,64
3120,note_on,,,,,0,0,2,,,,,1,70,64
3120,note_on,,,,,120,0,2,,,,,1,69,0
3240,note_on,,,,,120,0,2,,,,,1,70,0
3240,note_on,,,,,0,0,2,,,,,1,72,64
3240,note_on,,,,,120,0,1,,,,,0,79,0
3240,note_on,,,,,0,0,1,,,,,0,81,64
3360,note_on,,,,,120,0,2,,,,,1,72,0
3360,note_on,,,,,0,0,2,,,,,1,66,64
3360,note_on,,,,,0,0,1,,,,,0,72,64
3360,note_on,,,,,120,0,1,,,,,0,81,0
3420,note_on,,,,,0,0,1,,,,,0,74,64
3420,note_on,,,,,60,0,1,,,,,0,72,0
3480,note_on,,,,,120,0,2,,,,,1,66,0
3480,note_on,,,,,0,0,2,,,,,1,67,64
3480,note_on,,,,,60,0,1,,,,,0,74,0
3480,note_on,,,,,0,0,1,,,,,0,75,64
3600,note_on,,,,,0,0,2,,,,,1,69,64
3600,note_on,,,,,120,0,2,,,,,1,67,0
3720,note_on,,,,,0,0,2,,,,,1,66,64
3720,note_on,,,,,120,0,2,,,,,1,69,0
3720,note_on,,,,,240,0,1,,,,,0,75,0
3720,note_on,,,,,0,0,1,,,,,0,74,64
3780,note_on,,,,,0,0,1,,,,,0,72,64
3780,note_on,,,,,60,0,1,,,,,0,74,0
3840,note_on,,,,,0,0,2,,,,,1,67,64
3840,note_on,,,,,120,0,2,,,,,1,66,0
3840,note_on,,,,,60,0,1,,,,,0,72,0
3840,note_on,,,,,0,0,1,,,,,0,70,64
3960,note_on,,,,,120,0,1,,,,,0,70,0
3960,note_on,,,,,0,0,1,,,,,0,75,64
4020,note_on,,,,,60,0,1,,,,,0,75,0
4020,note_on,,,,,0,0,1,,,,,0,74,64
4068,note_on,,,,,228,0,2,,,,,1,67,0
4080,note_on,,,,,60,0,1,,,,,0,74,0
4080,note_on,,,,,0,0,1,,,,,0,75,64
4140,note_on,,,,,72,0,2,,,,,1,60,64
4200,note_on,,,,,60,0,2,,,,,1,60,0
4200,note_on,,,,,0,0,2,,,,,1,62,64
4200,note_on,,,,,0,0,1,,,,,0,67,64
4200,note_on,,,,,120,0,1,,,,,0,75,0
4260,note_on,,,,,60,0,2,,,,,1,62,0
4260,note_on,,,,,0,0,2,,,,,1,63,64
4320,note_on,,,,,120,0,1,,,,,0,67,0
4320,note_on,,,,,0,0,1,,,,,0,68,64
4320,note_on,,,,,60,0,2,,,,,1,63,0
4320,note_on,,,,,0,0,2,,,,,1,65,64
4380,note_on,,,,,60,0,2,,,,,1,65,0
4380,note_on,,,,,0,0,2,,,,,1,67,64
4440,note_on,,,,,60,0,2,,,,,1,67,0
4440,note_on,,,,,0,0,2,,,,,1,68,64
4440,note_on,,,,,0,0,1,,,,,0,77,64
4440,note_on,,,,,120,0,1,,,,,0,68,0
4500,note_on,,,,,60,0,1,,,,,0,77,0
4500,note_on,,,,,0,0,1,,,,,0,75,64
4546,note_on,,,,,46,0,1,,,,,0,75,0
4560,note_on,,,,,14,0,1,,,,,0,77,64
4614,note_on,,,,,174,0,2,,,,,1,68,0
4620,note_on,,,,,6,0,2,,,,,1,62,64
4680,note_on,,,,,0,0,2,,,,,1,63,64
4680,note_on,,,,,60,0,2,,,,,1,62,0
4680,note_on,,,,,120,0,1,,,,,0,77,0
4680,note_on,,,,,0,0,1,,,,,0,69,64
4740,note_on,,,,,0,0,2,,,,,1,65,64
4740,note_on,,,,,60,0,2,,,,,1,63,0
4800,note_on,,,,,60,0,2,,,,,1,65,0
4800,note_on,,,,,120,0,1,,,,,0,69,0
4800,note_on,,,,,0,0,2,,,,,1,67,64
4800,note_on,,,,,0,0,1,,,,,0,70,64
4860,note_on,,,,,60,0,2,,,,,1,67,0
4860,note_on,,,,,0,0,2,,,,,1,69,64
4920,note_on,,,,,0,0,1,,,,,0,79,64
4920,note_on,,,,,120,0,1,,,,,0,70,0
4920,note_on,,,,,60,0,2,,,,,1,69,0
4920,note_on,,,,,0,0,2,,,,,1,70,64
4980,note_on,,,,,60,0,1,,,,,0,79,0
4980,note_on,,,,,0,0,1,,,,,0,77,64
5040,note_on,,,,,60,0,1,,,,,0,77,0
5040,note_on,,,,,0,0,1,,,,,0,79,64
5100,note_on,,,,,180,0,2,,,,,1,63,64
5101,note_on,,,,,1,0,2,,,,,1,70,0
5136,note_on,,,,,96,0,1,,,,,0,79,0
5160,note_on,,,,,0,0,2,,,,,1,65,64
5160,note_on,,,,,59,0,2,,,,,1,63,0
5160,note_on,,,,,24,0,1,,,,,0,71,64
5220,note_on,,,,,60,0,2,,,,,1,65,0
5220,note_on,,,,,0,0,2,,,,,1,67,64
5276,note_on,,,,,116,0,1,,,,,0,71,0
5280,note_on,,,,,4,0,1,,,,,0,72,64
5280,note_on,,,,,0,0,2,,,,,1,68,64
5280,note_on,,,,,60,0,2,,,,,1,67,0
5340,note_on,,,,,60,0,2,,,,,1,68,0
5340,note_on,,,,,0,0,2,,,,,1,67,64
5389,note_on,,,,,109,0,1,,,,,0,72,0
5400,note_on,,,,,60,0,2,,,,,1,67,0
5400,note_on,,,,,0,0,2,,,,,1,65,64
5400,note_on,,,,,11,0,1,,,,,0,74,64
5460,note_on,,,,,60,0,1,,,,,0,74,0
5460,note_on,,,,,0,0,1,,,,,0,75,64
5460,note_on,,,,,0,0,2,,,,,1,63,64
5460,note_on,,,,,60,0,2,,,,,1,65,0
5520,note_on,,,,,60,0,1,,,,,0,75,0
5520,note_on,,,,,0,0,1,,,,,0,77,64
5520,note_on,,,,,0,0,2,,,,,1,62,64
5520,note_on,,,,,60,0,2,,,,,1,63,0
5627,note_on,,,,,107,0,2,,,,,1,62,0
5640,note_on,,,,,13,0,2,,,,,1,72,64
5700,note_on,,,,,0,0,2,,,,,1,71,64
5700,note_on,,,,,60,0,2,,,,,1,72,0
5760,note_on,,,,,60,0,2,,,,,1,71,0
5760,note_on,,,,,0,0,2,,,,,1,72,64
5880,note_on,,,,,5880,0,3,,,,,2,60,64
5880,note_on,,,,,360,0,1,,,,,0,77,0
5880,note_on,,,,,0,0,1,,,,,0,75,64
5926,note_on,,,,,166,0,2,,,,,1,72,0
5940,note_on,,,,,60,0,3,,,,,2,60,0
5940,note_on,,,,,0,0,1,,,,,0,74,64
5940,note_on,,,,,0,0,3,,,,,2,59,64
5940,note_on,,,,,60,0,1,,,,,0,75,0
6000,note_on,,,,,60,0,1,,,,,0,74,0
6000,note_on,,,,,0,0,1,,,,,0,72,64
6000,note_on,,,,,60,0,3,,,,,2,59,0
6000,note_on,,,,,0,0,3,,,,,2,60,64
6060,note_on,,,,,60,0,1,,,,,0,72,0
6060,note_on,,,,,0,0,1,,,,,0,70,64
6120,note_on,,,,,0,0,1,,,,,0,68,64
6120,note_on,,,,,0,0,3,,,,,2,55,64
6120,note_on,,,,,120,0,3,,,,,2,60,0
6120,note_on,,,,,60,0,1,,,,,0,70,0
6180,note_on,,,,,60,0,1,,,,,0,68,0
6180,note_on,,,,,0,0,1,,,,,0,67,64
6240,note_on,,,,,60,0,1,,,,,0,67,0
6240,note_on,,,,,0,0,1,,,,,0,65,64
6240,note_on,,,,,120,0,3,,,,,2,55,0
6240,note_on,,,,,0,0,3,,,,,2,56,64
6360,note_on,,,,,120,0,1,,,,,0,80,64
6360,note_on,,,,,120,0,3,,,,,2,56,0
6360,note_on,,,,,0,0,3,,,,,2,60,64
6360,note_on,,,,,434,0,2,,,,,1,75,64
6373,note_on,,,,,13,0,1,,,,,0,65,0
6420,note_on,,,,,0,0,3,,,,,2,59,64
6420,note_on,,,,,60,0,3,,,,,2,60,0
6465,note_on,,,,,92,0,1,,,,,0,80,0
6480,note_on,,,,,60,0,3,,,,,2,59,0
6480,note_on,,,,,0,0,3,,,,,2,60,64
6480,note_on,,,,,120,0,2,,,,,1,75,0
6480,note_on,,,,,0,0,2,,,,,1,74,64
6480,note_on,,,,,15,0,1,,,,,0,79,64
6574,note_on,,,,,94,0,1,,,,,0,79,0
6600,note_on,,,,,120,0,3,,,,,2,60,0
6600,note_on,,,,,0,0,3,,,,,2,62,64
6600,note_on,,,,,26,0,1,,,,,0,77,64
6600,note_on,,,,,120,0,2,,,,,1,74,0
6600,note_on,,,,,0,0,2,,,,,1,72,64
6696,note_on,,,,,96,0,1,,,,,0,77,0
6720,note_on,,,,,120,0,3,,,,,2,62,0
6720,note_on,,,,,0,0,3,,,,,2,55,64
6720,note_on,,,,,120,0,2,,,,,1,72,0
6720,note_on,,,,,24,0,1,,,,,0,75,64
6822,note_on,,,,,102,0,1,,,,,0,75,0
6840,note_on,,,,,120,0,3,,,,,2,55,0
6840,note_on,,,,,18,0,1,,,,,0,74,64
6840,note_on,,,,,120,0,2,,,,,1,68,64
6840,note_on,,,,,0,0,3,,,,,2,60,64
6900,note_on,,,,,0,0,3,,,,,2,59,64
6900,note_on,,,,,60,0,3,,,,,2,60,0
6937,note_on,,,,,97,0,1,,,,,0,74,0
6960,note_on,,,,,0,0,2,,,,,1,67,64
6960,note_on,,,,,23,0,1,,,,,0,75,64
6960,note_on,,,,,60,0,3,,,,,2,60,64
6960,note_on,,,,,120,0,2,,,,,1,68,0
6963,note_on,,,,,3,0,3,,,,,2,59,0
7055,note_on,,,,,95,0,1,,,,,0,75,0
7080,note_on,,,,,117,0,3,,,,,2,60,0
7080,note_on,,,,,0,0,3,,,,,2,62,64
7080,note_on,,,,,25,0,1,,,,,0,77,64
7080,note_on,,,,,120,0,2,,,,,1,67,0
7080,note_on,,,,,0,0,2,,,,,1,65,64
7192,note_on,,,,,112,0,1,,,,,0,77,0
7200,note_on,,,,,0,0,3,,,,,2,53,64
7200,note_on,,,,,120,0,3,,,,,2,62,0
7200,note_on,,,,,120,0,2,,,,,1,65,0
7200,note_on,,,,,0,0,2,,,,,1,67,64
7200,note_on,,,,,8,0,1,,,,,0,71,64
7260,note_on,,,,,60,0,3,,,,,2,53,0
7260,note_on,,,,,0,0,3,,,,,2,55,64
7303,note_on,,,,,103,0,1,,,,,0,71,0
7320,note_on,,,,,0,0,2,,,,,1,65,64
7320,note_on,,,,,120,0,2,,,,,1,67,0
7320,note_on,,,,,0,0,3,,,,,2,56,64
7320,note_on,,,,,60,0,3,,,,,2,55,0
7320,note_on,,,,,17,0,1,,,,,0,72,64
7380,note_on,,,,,0,0,2,,,,,1,63,64
7380,note_on,,,,,60,0,2,,,,,1,65,0
7420,note_on,,,,,100,0,1,,,,,0,72,0
7440,note_on,,,,,0,0,2,,,,,1,65,64
7440,note_on,,,,,20,0,1,,,,,0,74,64
7440,note_on,,,,,60,0,2,,,,,1,63,0
7538,note_on,,,,,98,0,1,,,,,0,74,0
7560,note_on,,,,,0,0,2,,,,,1,62,64
7560,note_on,,,,,22,0,1,,,,,0,71,64
7560,note_on,,,,,120,0,2,,,,,1,65,0
7560,note_on,,,,,240,0,3,,,,,2,56,0
7560,note_on,,,,,0,0,3,,,,,2,55,64
7620,note_on,,,,,60,0,3,,,,,2,55,0
7620,note_on,,,,,0,0,3,,,,,2,53,64
7670,note_on,,,,,110,0,1,,,,,0,71,0
7680,note_on,,,,,0,0,3,,,,,2,51,64
7680,note_on,,,,,60,0,3,,,,,2,53,0
7680,note_on,,,,,10,0,1,,,,,0,72,64
7680,note_on,,,,,120,0,2,,,,,1,62,0
7680,note_on,,,,,0,0,2,,,,,1,67,64
7740,note_on,,,,,60,0,3,,,,,2,51,0
7740,note_on,,,,,0,0,3,,,,,2,60,64
7792,note_on,,,,,112,0,1,,,,,0,72,0
7800,note_on,,,,,8,0,1,,,,,0,79,64
7800,note_on,,,,,60,0,3,,,,,2,60,0
7800,note_on,,,,,0,0,3,,,,,2,59,64
7860,note_on,,,,,0,0,3,,,,,2,57,64
7860,note_on,,,,,0,0,1,,,,,0,78,64
7860,note_on,,,,,60,0,3,,,,,2,59,0
7860,note_on,,,,,60,0,1,,,,,0,79,0
7920,note_on,,,,,240,0,2,,,,,1,67,0
7920,note_on,,,,,60,0,3,,,,,2,57,0
7920,note_on,,,,,0,0,1,,,,,0,79,64
7920,note_on,,,,,60,0,1,,,,,0,78,0
7920,note_on,,,,,0,0,3,,,,,2,55,64
7980,note_on,,,,,60,0,3,,,,,2,55,0
7980,note_on,,,,,0,0,3,,,,,2,53,64
8009,note_on,,,,,89,0,1,,,,,0,79,0
8040,note_on,,,,,60,0,3,,,,,2,53,0
8040,note_on,,,,,0,0,3,,,,,2,51,64
8040,note_on,,,,,31,0,1,,,,,0,74,64
8040,note_on,,,,,120,0,2,,,,,1,71,64
8100,note_on,,,,,60,0,3,,,,,2,51,0
8100,note_on,,,,,0,0,3,,,,,2,50,64
8138,note_on,,,,,98,0,2,,,,,1,71,0
8141,note_on,,,,,101,0,1,,,,,0,74,0
8160,note_on,,,,,22,0,2,,,,,1,72,64
8160,note_on,,,,,0,0,3,,,,,2,48,64
8160,note_on,,,,,60,0,3,,,,,2,50,0
8160,note_on,,,,,19,0,1,,,,,0,75,64
8220,note_on,,,,,60,0,3,,,,,2,48,0
8220,note_on,,,,,0,0,3,,,,,2,50,64
8263,note_on,,,,,103,0,2,,,,,1,72,0
8280,note_on,,,,,60,0,3,,,,,2,50,0
8280,note_on,,,,,0,0,3,,,,,2,51,64
8280,note_on,,,,,17,0,2,,,,,1,72,64
8340,note_on,,,,,0,0,3,,,,,2,50,64
8340,note_on,,,,,60,0,3,,,,,2,51,0
8340,note_on,,,,,60,0,2,,,,,1,72,0
8340,note_on,,,,,0,0,2,,,,,1,71,64
8400,note_on,,,,,0,0,2,,,,,1,72,64
8400,note_on,,,,,60,0,2,,,,,1,71,0
8400,note_on,,,,,0,0,3,,,,,2,48,64
8400,note_on,,,,,60,0,3,,,,,2,50,0
8406,note_on,,,,,246,0,1,,,,,0,75,0
8460,note_on,,,,,0,0,3,,,,,2,46,64
8460,note_on,,,,,60,0,3,,,,,2,48,0
8520,note_on,,,,,0,0,3,,,,,2,44,64
8520,note_on,,,,,114,0,1,,,,,0,76,64
8520,note_on,,,,,60,0,3,,,,,2,46,0
8520,note_on,,,,,120,0,2,,,,,1,72,0
8520,note_on,,,,,0,0,2,,,,,1,67,64
8580,note_on,,,,,60,0,3,,,,,2,44,0
8580,note_on,,,,,0,0,3,,,,,2,43,64
8620,note_on,,,,,100,0,1,,,,,0,76,0
8640,note_on,,,,,0,0,2,,,,,1,68,64
8640,note_on,,,,,20,0,1,,,,,0,77,64
8640,note_on,,,,,120,0,2,,,,,1,67,0
8640,note_on,,,,,0,0,3,,,,,2,41,64
8640,note_on,,,,,60,0,3,,,,,2,43,0
8700,note_on,,,,,60,0,3,,,,,2,41,0
8700,note_on,,,,,0,0,3,,,,,2,58,64
8731,note_on,,,,,91,0,1,,,,,0,77,0
8760,note_on,,,,,29,0,1,,,,,0,77,64
8760,note_on,,,,,0,0,3,,,,,2,56,64
8760,note_on,,,,,60,0,3,,,,,2,58,0
8820,note_on,,,,,60,0,1,,,,,0,77,0
8820,note_on,,,,,60,0,3,,,,,2,56,0
8820,note_on,,,,,0,0,3,,,,,2,55,64
8820,note_on,,,,,0,0,1,,,,,0,76,64
8860,note_on,,,,,40,0,1,,,,,0,76,0
8880,note_on,,,,,60,0,3,,,,,2,55,0
8880,note_on,,,,,0,0,3,,,,,2,53,64
8880,note_on,,,,,240,0,2,,,,,1,68,0
8880,note_on,,,,,20,0,1,,,,,0,77,64
8940,note_on,,,,,60,0,3,,,,,2,53,0
8940,note_on,,,,,0,0,3,,,,,2,51,64
8976,note_on,,,,,96,0,1,,,,,0,77,0
9000,note_on,,,,,24,0,1,,,,,0,72,64
9000,note_on,,,,,60,0,3,,,,,2,51,0
9000,note_on,,,,,0,0,3,,,,,2,50,64
9000,note_on,,,,,120,0,2,,,,,1,69,64
9060,note_on,,,,,0,0,3,,,,,2,48,64
9060,note_on,,,,,60,0,3,,,,,2,50,0
9099,note_on,,,,,99,0,1,,,,,0,72,0
9120,note_on,,,,,60,0,3,,,,,2,48,0
9120,note_on,,,,,0,0,3,,,,,2,46,64
9120,note_on,,,,,21,0,1,,,,,0,74,64
9120,note_on,,,,,120,0,2,,,,,1,69,0
9120,note_on,,,,,0,0,2,,,,,1,70,64
9180,note_on,,,,,0,0,3,,,,,2,48,64
9180,note_on,,,,,60,0,3,,,,,2,46,0
9240,note_on,,,,,120,0,2,,,,,1,70,0
9240,note_on,,,,,0,0,2,,,,,1,70,64
9240,note_on,,,,,60,0,3,,,,,2,48,0
9240,note_on,,,,,0,0,3,,,,,2,50,64
9300,note_on,,,,,0,0,3,,,,,2,48,64
9300,note_on,,,,,60,0,3,,,,,2,50,0
9300,note_on,,,,,0,0,2,,,,,1,68,64
9300,note_on,,,,,60,0,2,,,,,1,70,0
9342,note_on,,,,,42,0,2,,,,,1,68,0
9360,note_on,,,,,18,0,2,,,,,1,70,64
9360,note_on,,,,,0,0,3,,,,,2,46,64
9360,note_on,,,,,60,0,3,,,,,2,48,0
9373,note_on,,,,,253,0,1,,,,,0,74,0
9420,note_on,,,,,60,0,3,,,,,2,46,0
9420,note_on,,,,,0,0,3,,,,,2,44,64
9480,note_on,,,,,120,0,2,,,,,1,70,0
9480,note_on,,,,,107,0,1,,,,,0,74,64
9480,note_on,,,,,60,0,3,,,,,2,44,0
9480,note_on,,,,,0,0,3,,,,,2,43,64
9480,note_on,,,,,0,0,2,,,,,1,65,64
9540,note_on,,,,,0,0,3,,,,,2,41,64
9540,note_on,,,,,60,0,3,,,,,2,43,0
9580,note_on,,,,,100,0,1,,,,,0,74,0
9600,note_on,,,,,0,0,3,,,,,2,39,64
9600,note_on,,,,,60,0,3,,,,,2,41,0
9600,note_on,,,,,0,0,2,,,,,1,67,64
9600,note_on,,,,,120,0,2,,,,,1,65,0
9600,note_on,,,,,20,0,1,,,,,0,75,64
9660,note_on,,,,,0,0,3,,,,,2,56,64
9660,note_on,,,,,60,0,3,,,,,2,39,0
9692,note_on,,,,,92,0,1,,,,,0,75,0
9720,note_on,,,,,0,0,3,,,,,2,55,64
9720,note_on,,,,,60,0,3,,,,,2,56,0
9720,note_on,,,,,28,0,1,,,,,0,75,64
9780,note_on,,,,,60,0,3,,,,,2,55,0
9780,note_on,,,,,0,0,3,,,,,2,53,64
9780,note_on,,,,,60,0,1,,,,,0,75,0
9780,note_on,,,,,0,0,1,,,,,0,74,64
9823,note_on,,,,,43,0,1,,,,,0,74,0
9840,note_on,,,,,17,0,1,,,,,0,75,64
9840,note_on,,,,,60,0,3,,,,,2,53,0
9840,note_on,,,,,0,0,3,,,,,2,51,64
9840,note_on,,,,,240,0,2,,,,,1,67,0
9900,note_on,,,,,0,0,3,,,,,2,49,64
9900,note_on,,,,,60,0,3,,,,,2,51,0
9944,note_on,,,,,104,0,1,,,,,0,75,0
9960,note_on,,,,,120,0,2,,,,,1,67,64
9960,note_on,,,,,0,0,3,,,,,2,48,64
9960,note_on,,,,,16,0,1,,,,,0,70,64
9960,note_on,,,,,60,0,3,,,,,2,49,0
10020,note_on,,,,,0,0,3,,,,,2,46,64
10020,note_on,,,,,60,0,3,,,,,2,48,0
10065,note_on,,,,,105,0,1,,,,,0,70,0
10080,note_on,,,,,15,0,1,,,,,0,72,64
10080,note_on,,,,,0,0,3,,,,,2,44,64
10080,note_on,,,,,120,0,2,,,,,1,67,0
10080,note_on,,,,,60,0,3,,,,,2,46,0
10080,note_on,,,,,0,0,2,,,,,1,68,64
10182,note_on,,,,,102,0,1,,,,,0,72,0
10200,note_on,,,,,120,0,2,,,,,1,68,0
10200,note_on,,,,,18,0,1,,,,,0,75,64
10200,note_on,,,,,0,0,2,,,,,1,68,64
10200,note_on,,,,,120,0,3,,,,,2,44,0
10200,note_on,,,,,0,0,3,,,,,2,60,64
10260,note_on,,,,,60,0,1,,,,,0,75,0
10260,note_on,,,,,0,0,1,,,,,0,74,64
10320,note_on,,,,,60,0,1,,,,,0,74,0
10320,note_on,,,,,0,0,3,,,,,2,58,64
10320,note_on,,,,,120,0,3,,,,,2,60,0
10320,note_on,,,,,0,0,1,,,,,0,75,64
10320,note_on,,,,,120,0,2,,,,,1,68,0
10320,note_on,,,,,0,0,2,,,,,1,67,64
10418,note_on,,,,,98,0,1,,,,,0,75,0
10440,note_on,,,,,0,0,3,,,,,2,56,64
10440,note_on,,,,,0,0,2,,,,,1,65,64
10440,note_on,,,,,120,0,3,,,,,2,58,0
10440,note_on,,,,,22,0,1,,,,,0,77,64
10440,note_on,,,,,120,0,2,,,,,1,67,0
10546,note_on,,,,,106,0,1,,,,,0,77,0
10560,note_on,,,,,120,0,2,,,,,1,65,0
10560,note_on,,,,,14,0,1,,,,,0,70,64
10560,note_on,,,,,0,0,3,,,,,2,55,64
10560,note_on,,,,,120,0,3,,,,,2,56,0
10662,note_on,,,,,102,0,1,,,,,0,70,0
10680,note_on,,,,,120,0,2,,,,,1,56,64
10680,note_on,,,,,0,0,3,,,,,2,53,64
10680,note_on,,,,,120,0,3,,,,,2,55,0
10680,note_on,,,,,18,0,1,,,,,0,75,64
10740,note_on,,,,,60,0,1,,,,,0,75,0
10740,note_on,,,,,0,0,1,,,,,0,74,64
10800,note_on,,,,,60,0,1,,,,,0,74,0
10800,note_on,,,,,0,0,1,,,,,0,75,64
10800,note_on,,,,,120,0,2,,,,,1,56,0
10800,note_on,,,,,0,0,2,,,,,1,58,64
10800,note_on,,,,,0,0,3,,,,,2,55,64
10800,note_on,,,,,120,0,3,,,,,2,53,0
10906,note_on,,,,,106,0,1,,,,,0,75,0
10920,note_on,,,,,0,0,2,,,,,1,60,64
10920,note_on,,,,,14,0,1,,,,,0,77,64
10920,note_on,,,,,120,0,2,,,,,1,58,0
10920,note_on,,,,,120,0,3,,,,,2,55,0
10920,note_on,,,,,0,0,3,,,,,2,56,64
11018,note_on,,,,,98,0,1,,,,,0,77,0
11040,note_on,,,,,22,0,1,,,,,0,68,64
11040,note_on,,,,,120,0,2,,,,,1,60,0
11040,note_on,,,,,120,0,3,,,,,2,56,0
11040,note_on,,,,,0,0,3,,,,,2,50,64
11100,note_on,,,,,60,0,1,,,,,0,68,0
11100,note_on,,,,,0,0,1,,,,,0,70,64
11160,note_on,,,,,60,0,1,,,,,0,70,0
11160,note_on,,,,,0,0,1,,,,,0,72,64
11160,note_on,,,,,120,0,3,,,,,2,50,0
11160,note_on,,,,,120,0,2,,,,,1,56,64
11160,note_on,,,,,0,0,3,,,,,2,51,64
11220,note_on,,,,,60,0,2,,,,,1,56,0
11220,note_on,,,,,0,0,2,,,,,1,55,64
11280,note_on,,,,,120,0,3,,,,,2,51,0
11280,note_on,,,,,0,0,3,,,,,2,53,64
11280,note_on,,,,,60,0,2,,,,,1,55,0
11280,note_on,,,,,0,0,2,,,,,1,56,64
11400,note_on,,,,,0,0,2,,,,,1,53,64
11400,note_on,,,,,120,0,3,,,,,2,53,0
11400,note_on,,,,,0,0,3,,,,,2,50,64
11400,note_on,,,,,0,0,1,,,,,0,70,64
11400,note_on,,,,,240,0,1,,,,,0,72,0
11400,note_on,,,,,120,0,2,,,,,1,56,0
11460,note_on,,,,,0,0,1,,,,,0,68,64
11460,note_on,,,,,60,0,1,,,,,0,70,0
11520,note_on,,,,,120,0,3,,,,,2,50,0
11520,note_on,,,,,0,0,1,,,,,0,67,64
11520,note_on,,,,,60,0,1,,,,,0,68,0
11520,note_on,,,,,0,0,3,,,,,2,51,64
11520,note_on,,,,,120,0,2,,,,,1,53,0
11520,note_on,,,,,0,0,2,,,,,1,58,64
11580,note_on,,,,,60,0,1,,,,,0,67,0
11580,note_on,,,,,0,0,1,,,,,0,63,64
11640,note_on,,,,,60,0,1,,,,,0,63,0
11640,note_on,,,,,0,0,1,,,,,0,65,64
11640,note_on,,,,,0,0,2,,,,,1,60,64
11640,note_on,,,,,0,0,3,,,,,2,56,64
11640,note_on,,,,,120,0,3,,,,,2,51,0
11640,note_on,,,,,120,0,2,,,,,1,58,0
11700,note_on,,,,,60,0,1,,,,,0,65,0
11700,note_on,,,,,0,0,1,,,,,0,67,64
11760,note_on,,,,,120,0,3,,,,,2,56,0
11760,note_on,,,,,120,0,2,,,,,1,60,0
11760,note_on,,,,,0,0,2,,,,,1,58,64
11760,note_on,,,,,0,0,3,,,,,2,55,64
11760,note_on,,,,,0,0,1,,,,,0,68,64
11760,note_on,,,,,60,0,1,,,,,0,67,0
11820,note_on,,,,,0,0,1,,,,,0,70,64
11820,note_on,,,,,60,0,1,,,,,0,68,0
11880,note_on,,,,,0,0,2,,,,,1,56,64
11880,note_on,,,,,120,0,3,,,,,2,55,0
11880,note_on,,,,,0,0,1,,,,,0,72,64
11880,note_on,,,,,60,0,1,,,,,0,70,0
11880,note_on,,,,,0,0,3,,,,,2,53,64
11880,note_on,,,,,120,0,2,,,,,1,58,0
11940,note_on,,,,,0,0,1,,,,,0,74,64
11940,note_on,,,,,60,0,1,,,,,0,72,0
12000,note_on,,,,,120,0,2,,,,,1,56,0
12000,note_on,,,,,120,0,3,,,,,2,53,0
12000,note_on,,,,,0,0,2,,,,,1,58,64
12000,note_on,,,,,60,0,1,,,,,0,74,0
12000,note_on,,,,,0,0,1,,,,,0,75,64
12000,note_on,,,,,0,0,3,,,,,2,55,64
12060,note_on,,,,,60,0,1,,,,,0,75,0
12060,note_on,,,,,0,0,1,,,,,0,74,64
12120,note_on,,,,,0,0,3,,,,,2,51,64
12120,note_on,,,,,120,0,3,,,,,2,55,0
12120,note_on,,,,,0,0,1,,,,,0,72,64
12120,note_on,,,,,60,0,1,,,,,0,74,0
12120,note_on,,,,,0,0,2,,,,,1,55,64
12120,note_on,,,,,120,0,2,,,,,1,58,0
12180,note_on,,,,,60,0,1,,,,,0,72,0
12180,note_on,,,,,0,0,1,,,,,0,74,64
12240,note_on,,,,,60,0,1,,,,,0,74,0
12240,note_on,,,,,120,0,2,,,,,1,55,0
12240,note_on,,,,,0,0,2,,,,,1,53,64
12240,note_on,,,,,0,0,1,,,,,0,75,64
12240,note_on,,,,,120,0,3,,,,,2,51,0
12240,note_on,,,,,0,0,3,,,,,2,50,64
12300,note_on,,,,,60,0,1,,,,,0,75,0
12300,note_on,,,,,0,0,1,,,,,0,77,64
12360,note_on,,,,,120,0,2,,,,,1,53,0
12360,note_on,,,,,120,0,3,,,,,2,50,0
12360,note_on,,,,,0,0,3,,,,,2,48,64
12360,note_on,,,,,0,0,2,,,,,1,51,64
12360,note_on,,,,,60,0,1,,,,,0,77,0
12360,note_on,,,,,0,0,1,,,,,0,79,64
12420,note_on,,,,,60,0,1,,,,,0,79,0
12420,note_on,,,,,0,0,1,,,,,0,81,64
12480,note_on,,,,,0,0,2,,,,,1,53,64
12480,note_on,,,,,0,0,3,,,,,2,50,64
12480,note_on,,,,,120,0,3,,,,,2,48,0
12480,note_on,,,,,120,0,2,,,,,1,51,0
12480,note_on,,,,,0,0,1,,,,,0,82,64
12480,note_on,,,,,60,0,1,,,,,0,81,0
12540,note_on,,,,,60,0,1,,,,,0,82,0
12540,note_on,,,,,0,0,1,,,,,0,65,64
12600,note_on,,,,,120,0,2,,,,,1,53,0
12600,note_on,,,,,120,0,3,,,,,2,50,0
12600,note_on,,,,,0,0,3,,,,,2,58,64
12600,note_on,,,,,0,0,1,,,,,0,67,64
12600,note_on,,,,,60,0,1,,,,,0,65,0
12600,note_on,,,,,0,0,2,,,,,1,61,64
12660,note_on,,,,,0,0,1,,,,,0,68,64
12660,note_on,,,,,60,0,1,,,,,0,67,0
12720,note_on,,,,,60,0,1,,,,,0,68,0
12720,note_on,,,,,0,0,1,,,,,0,70,64
12720,note_on,,,,,120,0,2,,,,,1,61,0
12720,note_on,,,,,0,0,3,,,,,2,56,64
12720,note_on,,,,,0,0,2,,,,,1,60,64
12720,note_on,,,,,120,0,3,,,,,2,58,0
12780,note_on,,,,,60,0,1,,,,,0,70,0
12780,note_on,,,,,0,0,1,,,,,0,72,64
12840,note_on,,,,,60,0,1,,,,,0,72,0
12840,note_on,,,,,0,0,3,,,,,2,55,64
12840,note_on,,,,,0,0,2,,,,,1,58,64
12840,note_on,,,,,0,0,1,,,,,0,74,64
12840,note_on,,,,,120,0,2,,,,,1,60,0
12840,note_on,,,,,120,0,3,,,,,2,56,0
12900,note_on,,,,,0,0,1,,,,,0,76,64
12900,note_on,,,,,60,0,1,,,,,0,74,0
12960,note_on,,,,,0,0,1,,,,,0,77,64
12960,note_on,,,,,60,0,1,,,,,0,76,0
12960,note_on,,,,,120,0,2,,,,,1,58,0
12960,note_on,,,,,0,0,2,,,,,1,60,64
12960,note_on,,,,,0,0,3,,,,,2,56,64
12960,note_on,,,,,120,0,3,,,,,2,55,0
13020,note_on,,,,,0,0,1,,,,,0,75,64
13020,note_on,,,,,60,0,1,,,,,0,77,0
13080,note_on,,,,,0,0,3,,,,,2,53,64
13080,note_on,,,,,120,0,3,,,,,2,56,0
13080,note_on,,,,,0,0,1,,,,,0,74,64
13080,note_on,,,,,60,0,1,,,,,0,75,0
13080,note_on,,,,,120,0,2,,,,,1,60,0
13080,note_on,,,,,0,0,2,,,,,1,56,64
13140,note_on,,,,,0,0,1,,,,,0,75,64
13140,note_on,,,,,60,0,1,,,,,0,74,0
13200,note_on,,,,,0,0,3,,,,,2,51,64
13200,note_on,,,,,120,0,3,,,,,2,53,0
13200,note_on,,,,,0,0,1,,,,,0,77,64
13200,note_on,,,,,60,0,1,,,,,0,75,0
13200,note_on,,,,,0,0,2,,,,,1,55,64
13200,note_on,,,,,120,0,2,,,,,1,56,0
13260,note_on,,,,,60,0,1,,,,,0,77,0
13260,note_on,,,,,0,0,1,,,,,0,79,64
13320,note_on,,,,,0,0,2,,,,,1,53,64
13320,note_on,,,,,120,0,3,,,,,2,51,0
13320,note_on,,,,,0,0,3,,,,,2,50,64
13320,note_on,,,,,60,0,1,,,,,0,79,0
13320,note_on,,,,,0,0,1,,,,,0,81,64
13320,note_on,,,,,120,0,2,,,,,1,55,0
13380,note_on,,,,,60,0,1,,,,,0,81,0
13380,note_on,,,,,0,0,1,,,,,0,83,64
13440,note_on,,,,,60,0,1,,,,,0,83,0
13440,note_on,,,,,120,0,3,,,,,2,50,0
13440,note_on,,,,,0,0,1,,,,,0,84,64
13440,note_on,,,,,120,0,2,,,,,1,53,0
13440,note_on,,,,,0,0,2,,,,,1,55,64
13440,note_on,,,,,0,0,3,,,,,2,51,64
13560,note_on,,,,,120,0,2,,,,,1,55,0
13560,note_on,,,,,0,0,2,,,,,1,67,64
13560,note_on,,,,,120,0,3,,,,,2,51,0
13560,note_on,,,,,120,0,1,,,,,0,84,0
13560,note_on,,,,,0,0,1,,,,,0,83,64
13620,note_on,,,,,0,0,2,,,,,1,66,64
13620,note_on,,,,,60,0,2,,,,,1,67,0
13620,note_on,,,,,0,0,1,,,,,0,81,64
13620,note_on,,,,,60,0,1,,,,,0,83,0
13680,note_on,,,,,60,0,2,,,,,1,66,0
13680,note_on,,,,,60,0,1,,,,,0,81,0
13680,note_on,,,,,0,0,1,,,,,0,79,64
13680,note_on,,,,,0,0,2,,,,,1,67,64
13740,note_on,,,,,60,0,1,,,,,0,79,0
13740,note_on,,,,,0,0,1,,,,,0,77,64
13800,note_on,,,,,60,0,1,,,,,0,77,0
13800,note_on,,,,,120,0,2,,,,,1,67,0
13800,note_on,,,,,0,0,2,,,,,1,60,64
13800,note_on,,,,,0,0,1,,,,,0,75,64
13860,note_on,,,,,0,0,1,,,,,0,74,64
13860,note_on,,,,,60,0,1,,,,,0,75,0
13920,note_on,,,,,0,0,1,,,,,0,72,64
13920,note_on,,,,,60,0,1,,,,,0,74,0
13920,note_on,,,,,120,0,2,,,,,1,60,0
13920,note_on,,,,,0,0,2,,,,,1,63,64
14040,note_on,,,,,0,0,1,,,,,0,75,64
14040,note_on,,,,,0,0,2,,,,,1,67,64
14040,note_on,,,,,480,0,3,,,,,2,48,64
14040,note_on,,,,,120,0,2,,,,,1,63,0
14040,note_on,,,,,120,0,1,,,,,0,72,0
14100,note_on,,,,,0,0,2,,,,,1,66,64
14100,note_on,,,,,60,0,2,,,,,1,67,0
14160,note_on,,,,,0,0,1,,,,,0,74,64
14160,note_on,,,,,120,0,1,,,,,0,75,0
14160,note_on,,,,,60,0,2,,,,,1,66,0
14160,note_on,,,,,120,0,3,,,,,2,48,0
14160,note_on,,,,,0,0,2,,,,,1,67,64
14160,note_on,,,,,0,0,3,,,,,2,46,64
14280,note_on,,,,,120,0,3,,,,,2,46,0
14280,note_on,,,,,120,0,1,,,,,0,74,0
14280,note_on,,,,,0,0,2,,,,,1,69,64
14280,note_on,,,,,120,0,2,,,,,1,67,0
14280,note_on,,,,,0,0,1,,,,,0,72,64
14280,note_on,,,,,0,0,3,,,,,2,45,64
14400,note_on,,,,,120,0,2,,,,,1,69,0
14400,note_on,,,,,0,0,2,,,,,1,62,64
14400,note_on,,,,,120,0,3,,,,,2,45,0
14400,note_on,,,,,0,0,1,,,,,0,70,64
14400,note_on,,,,,120,0,1,,,,,0,72,0
14520,note_on,,,,,120,0,3,,,,,2,51,64
14520,note_on,,,,,120,0,2,,,,,1,62,0
14520,note_on,,,,,0,0,1,,,,,0,69,64
14520,note_on,,,,,120,0,1,,,,,0,70,0
14520,note_on,,,,,0,0,2,,,,,1,67,64
14580,note_on,,,,,60,0,2,,,,,1,67,0
14580,note_on,,,,,0,0,2,,,,,1,66,64
14640,note_on,,,,,120,0,1,,,,,0,69,0
14640,note_on,,,,,0,0,1,,,,,0,70,64
14640,note_on,,,,,60,0,2,,,,,1,66,0
14640,note_on,,,,,0,0,3,,,,,2,50,64
14640,note_on,,,,,0,0,2,,,,,1,67,64
14640,note_on,,,,,120,0,3,,,,,2,51,0
14741,note_on,,,,,101,0,2,,,,,1,67,0
14760,note_on,,,,,120,0,3,,,,,2,50,0
14760,note_on,,,,,120,0,1,,,,,0,70,0
14760,note_on,,,,,0,0,1,,,,,0,72,64
14760,note_on,,,,,0,0,3,,,,,2,48,64
14760,note_on,,,,,19,0,2,,,,,1,69,64
14869,note_on,,,,,109,0,2,,,,,1,69,0
14880,note_on,,,,,0,0,3,,,,,2,50,64
14880,note_on,,,,,120,0,3,,,,,2,48,0
14880,note_on,,,,,0,0,1,,,,,0,66,64
14880,note_on,,,,,11,0,2,,,,,1,60,64
14880,note_on,,,,,120,0,1,,,,,0,72,0
14940,note_on,,,,,0,0,2,,,,,1,62,64
14940,note_on,,,,,60,0,2,,,,,1,60,0
15000,note_on,,,,,60,0,2,,,,,1,62,0
15000,note_on,,,,,0,0,2,,,,,1,63,64
15000,note_on,,,,,0,0,3,,,,,2,48,64
15000,note_on,,,,,120,0,3,,,,,2,50,0
15000,note_on,,,,,0,0,1,,,,,0,67,64
15000,note_on,,,,,120,0,1,,,,,0,66,0
15060,note_on,,,,,60,0,3,,,,,2,48,0
15060,note_on,,,,,0,0,3,,,,,2,46,64
15120,note_on,,,,,0,0,1,,,,,0,69,64
15120,note_on,,,,,120,0,1,,,,,0,67,0
15120,note_on,,,,,60,0,3,,,,,2,46,0
15120,note_on,,,,,0,0,3,,,,,2,48,64
15240,note_on,,,,,120,0,3,,,,,2,48,0
15240,note_on,,,,,120,0,1,,,,,0,69,0
15240,note_on,,,,,0,0,1,,,,,0,66,64
15240,note_on,,,,,0,0,3,,,,,2,50,64
15240,note_on,,,,,240,0,2,,,,,1,63,0
15240,note_on,,,,,0,0,2,,,,,1,62,64
15300,note_on,,,,,60,0,2,,,,,1,62,0
15300,note_on,,,,,0,0,2,,,,,1,60,64
15336,note_on,,,,,36,0,2,,,,,1,60,0
15360,note_on,,,,,0,0,3,,,,,2,43,64
15360,note_on,,,,,120,0,1,,,,,0,66,0
15360,note_on,,,,,0,0,1,,,,,0,67,64
15360,note_on,,,,,24,0,2,,,,,1,58,64
15360,note_on,,,,,120,0,3,,,,,2,50,0
15453,note_on,,,,,93,0,2,,,,,1,58,0
15480,note_on,,,,,0,0,1,,,,,0,74,64
15480,note_on,,,,,120,0,3,,,,,2,43,0
15480,note_on,,,,,0,0,3,,,,,2,58,64
15480,note_on,,,,,120,0,1,,,,,0,67,0
15540,note_on,,,,,0,0,1,,,,,0,72,64
15540,note_on,,,,,60,0,1,,,,,0,74,0
15540,note_on,,,,,60,0,3,,,,,2,58,0
15540,note_on,,,,,0,0,3,,,,,2,57,64
15590,note_on,,,,,50,0,1,,,,,0,72,0
15600,note_on,,,,,0,0,3,,,,,2,58,64
15600,note_on,,,,,10,0,1,,,,,0,74,64
15600,note_on,,,,,60,0,3,,,,,2,57,0
15660,note_on,,,,,207,0,2,,,,,1,62,64
15720,note_on,,,,,120,0,1,,,,,0,74,0
15720,note_on,,,,,0,0,2,,,,,1,64,64
15720,note_on,,,,,60,0,2,,,,,1,62,0
15720,note_on,,,,,120,0,3,,,,,2,58,0
15720,note_on,,,,,0,0,3,,,,,2,50,64
15780,note_on,,,,,60,0,2,,,,,1,64,0
15780,note_on,,,,,0,0,2,,,,,1,66,64
15840,note_on,,,,,0,0,3,,,,,2,51,64
15840,note_on,,,,,0,0,2,,,,,1,67,64
15840,note_on,,,,,120,0,3,,,,,2,50,0
15840,note_on,,,,,60,0,2,,,,,1,66,0
15900,note_on,,,,,60,0,2,,,,,1,67,0
15900,note_on,,,,,0,0,2,,,,,1,69,64
15960,note_on,,,,,60,0,2,,,,,1,69,0
15960,note_on,,,,,0,0,2,,,,,1,70,64
15960,note_on,,,,,240,0,1,,,,,0,76,64
15960,note_on,,,,,120,0,3,,,,,2,51,0
15960,note_on,,,,,0,0,3,,,,,2,60,64
16020,note_on,,,,,60,0,1,,,,,0,76,0
16020,note_on,,,,,0,0,1,,,,,0,74,64
16020,note_on,,,,,0,0,3,,,,,2,58,64
16020,note_on,,,,,60,0,3,,,,,2,60,0
16080,note_on,,,,,0,0,3,,,,,2,60,64
16080,note_on,,,,,60,0,1,,,,,0,74,0
16080,note_on,,,,,0,0,1,,,,,0,76,64
16080,note_on,,,,,60,0,3,,,,,2,58,0
16126,note_on,,,,,166,0,2,,,,,1,70,0
16140,note_on,,,,,14,0,2,,,,,1,64,64
16200,note_on,,,,,0,0,2,,,,,1,65,64
16200,note_on,,,,,120,0,1,,,,,0,76,0
16200,note_on,,,,,120,0,3,,,,,2,60,0
16200,note_on,,,,,0,0,3,,,,,2,52,64
16200,note_on,,,,,60,0,2,,,,,1,64,0
16260,note_on,,,,,0,0,2,,,,,1,67,64
16260,note_on,,,,,60,0,2,,,,,1,65,0
16320,note_on,,,,,120,0,3,,,,,2,52,0
16320,note_on,,,,,0,0,2,,,,,1,69,64
16320,note_on,,,,,60,0,2,,,,,1,67,0
16320,note_on,,,,,0,0,3,,,,,2,53,64
16380,note_on,,,,,0,0,2,,,,,1,70,64
16380,note_on,,,,,60,0,2,,,,,1,69,0
16440,note_on,,,,,0,0,2,,,,,1,72,64
16440,note_on,,,,,60,0,2,,,,,1,70,0
16440,note_on,,,,,120,0,3,,,,,2,53,0
16440,note_on,,,,,240,0,1,,,,,0,78,64
16440,note_on,,,,,0,0,3,,,,,2,62,64
16500,note_on,,,,,60,0,1,,,,,0,78,0
16500,note_on,,,,,0,0,1,,,,,0,76,64
16500,note_on,,,,,60,0,3,,,,,2,62,0
16500,note_on,,,,,0,0,3,,,,,2,60,64
16560,note_on,,,,,60,0,1,,,,,0,76,0
16560,note_on,,,,,60,0,3,,,,,2,60,0
16560,note_on,,,,,0,0,3,,,,,2,62,64
16560,note_on,,,,,0,0,1,,,,,0,78,64
16610,note_on,,,,,170,0,2,,,,,1,72,0
16620,note_on,,,,,10,0,2,,,,,1,66,64
16680,note_on,,,,,60,0,2,,,,,1,66,0
16680,note_on,,,,,120,0,1,,,,,0,78,0
16680,note_on,,,,,0,0,2,,,,,1,67,64
16680,note_on,,,,,0,0,3,,,,,2,54,64
16680,note_on,,,,,120,0,3,,,,,2,62,0
16740,note_on,,,,,60,0,2,,,,,1,67,0
16740,note_on,,,,,0,0,2,,,,,1,69,64
16800,note_on,,,,,0,0,3,,,,,2,55,64
16800,note_on,,,,,120,0,3,,,,,2,54,0
16800,note_on,,,,,60,0,2,,,,,1,69,0
16800,note_on,,,,,0,0,2,,,,,1,70,64
16907,note_on,,,,,107,0,2,,,,,1,70,0
16920,note_on,,,,,240,0,1,,,,,0,67,64
16920,note_on,,,,,13,0,2,,,,,1,63,64
16980,note_on,,,,,0,0,1,,,,,0,65,64
16980,note_on,,,,,60,0,1,,,,,0,67,0
16980,note_on,,,,,0,0,2,,,,,1,62,64
16980,note_on,,,,,60,0,2,,,,,1,63,0
16980,note_on,,,,,180,0,3,,,,,2,55,0
17040,note_on,,,,,60,0,2,,,,,1,62,0
17040,note_on,,,,,0,0,2,,,,,1,63,64
17040,note_on,,,,,0,0,1,,,,,0,67,64
17040,note_on,,,,,60,0,1,,,,,0,65,0
17100,note_on,,,,,120,0,3,,,,,2,43,64
17160,note_on,,,,,120,0,1,,,,,0,67,0
17160,note_on,,,,,0,0,3,,,,,2,45,64
17160,note_on,,,,,120,0,2,,,,,1,63,0
17160,note_on,,,,,0,0,2,,,,,1,55,64
17160,note_on,,,,,60,0,3,,,,,2,43,0
17220,note_on,,,,,60,0,3,,,,,2,45,0
17220,note_on,,,,,0,0,3,,,,,2,47,64
17280,note_on,,,,,0,0,3,,,,,2,48,64
17280,note_on,,,,,120,0,2,,,,,1,55,0
17280,note_on,,,,,60,0,3,,,,,2,47,0
17280,note_on,,,,,0,0,2,,,,,1,56,64
17340,note_on,,,,,0,0,3,,,,,2,50,64
17340,note_on,,,,,60,0,3,,,,,2,48,0
17400,note_on,,,,,120,0,2,,,,,1,56,0
17400,note_on,,,,,60,0,3,,,,,2,50,0
17400,note_on,,,,,0,0,3,,,,,2,51,64
17400,note_on,,,,,240,0,1,,,,,0,69,64
17400,note_on,,,,,0,0,2,,,,,1,65,64
17460,note_on,,,,,0,0,1,,,,,0,67,64
17460,note_on,,,,,60,0,2,,,,,1,65,0
17460,note_on,,,,,60,0,1,,,,,0,69,0
17460,note_on,,,,,0,0,2,,,,,1,63,64
17520,note_on,,,,,60,0,2,,,,,1,63,0
17520,note_on,,,,,0,0,2,,,,,1,65,64
17520,note_on,,,,,60,0,1,,,,,0,67,0
17520,note_on,,,,,0,0,1,,,,,0,69,64
17580,note_on,,,,,0,0,3,,,,,2,45,64
17580,note_on,,,,,180,0,3,,,,,2,51,0
17640,note_on,,,,,120,0,2,,,,,1,65,0
17640,note_on,,,,,0,0,2,,,,,1,57,64
17640,note_on,,,,,120,0,1,,,,,0,69,0
17640,note_on,,,,,0,0,3,,,,,2,46,64
17640,note_on,,,,,60,0,3,,,,,2,45,0
17700,note_on,,,,,60,0,3,,,,,2,46,0
17700,note_on,,,,,0,0,3,,,,,2,48,64
17760,note_on,,,,,60,0,3,,,,,2,48,0
17760,note_on,,,,,0,0,3,,,,,2,50,64
17760,note_on,,,,,120,0,2,,,,,1,57,0
17760,note_on,,,,,0,0,2,,,,,1,58,64
17820,note_on,,,,,0,0,3,,,,,2,51,64
17820,note_on,,,,,60,0,3,,,,,2,50,0
17880,note_on,,,,,120,0,2,,,,,1,58,0
17880,note_on,,,,,240,0,1,,,,,0,71,64
17880,note_on,,,,,0,0,3,,,,,2,53,64
17880,note_on,,,,,0,0,2,,,,,1,67,64
17880,note_on,,,,,60,0,3,,,,,2,51,0
17940,note_on,,,,,0,0,1,,,,,0,69,64
17940,note_on,,,,,60,0,1,,,,,0,71,0
17940,note_on,,,,,60,0,2,,,,,1,67,0
17940,note_on,,,,,0,0,2,,,,,1,65,64
18000,note_on,,,,,0,0,1,,,,,0,71,64
18000,note_on,,,,,60,0,1,,,,,0,69,0
18000,note_on,,,,,60,0,2,,,,,1,65,0
18000,note_on,,,,,0,0,2,,,,,1,67,64
18060,note_on,,,,,0,0,3,,,,,2,47,64
18060,note_on,,,,,180,0,3,,,,,2,53,0
18120,note_on,,,,,0,0,2,,,,,1,59,64
18120,note_on,,,,,120,0,2,,,,,1,67,0
18120,note_on,,,,,0,0,3,,,,,2,48,64
18120,note_on,,,,,60,0,3,,,,,2,47,0
18120,note_on,,,,,120,0,1,,,,,0,71,0
18180,note_on,,,,,60,0,3,,,,,2,48,0
18180,note_on,,,,,0,0,3,,,,,2,50,64
18240,note_on,,,,,60,0,3,,,,,2,50,0
18240,note_on,,,,,0,0,3,,,,,2,51,64
18240,note_on,,,,,0,0,2,,,,,1,60,64
18240,note_on,,,,,120,0,2,,,,,1,59,0
18300,note_on,,,,,0,0,2,,,,,1,65,64
18300,note_on,,,,,60,0,2,,,,,1,60,0
18360,note_on,,,,,240,0,1,,,,,0,72,64
18360,note_on,,,,,60,0,2,,,,,1,65,0
18360,note_on,,,,,0,0,2,,,,,1,63,64
18360,note_on,,,,,120,0,3,,,,,2,51,0
18420,note_on,,,,,0,0,2,,,,,1,62,64
18420,note_on,,,,,0,0,1,,,,,0,71,64
18420,note_on,,,,,60,0,1,,,,,0,72,0
18420,note_on,,,,,60,0,2,,,,,1,63,0
18480,note_on,,,,,0,0,2,,,,,1,60,64
18480,note_on,,,,,60,0,2,,,,,1,62,0
18480,note_on,,,,,60,0,1,,,,,0,71,0
18480,note_on,,,,,0,0,1,,,,,0,72,64
18540,note_on,,,,,0,0,2,,,,,1,58,64
18540,note_on,,,,,60,0,2,,,,,1,60,0
18600,note_on,,,,,240,0,3,,,,,2,52,64
18600,note_on,,,,,120,0,1,,,,,0,72,0
18600,note_on,,,,,60,0,2,,,,,1,58,0
18600,note_on,,,,,0,0,2,,,,,1,56,64
18600,note_on,,,,,0,0,1,,,,,0,67,64
18660,note_on,,,,,60,0,2,,,,,1,56,0
18660,note_on,,,,,0,0,2,,,,,1,55,64
18720,note_on,,,,,0,0,1,,,,,0,68,64
18720,note_on,,,,,60,0,2,,,,,1,55,0
18720,note_on,,,,,0,0,2,,,,,1,53,64
18720,note_on,,,,,120,0,1,,,,,0,67,0
18720,note_on,,,,,120,0,3,,,,,2,52,0
18720,note_on,,,,,0,0,3,,,,,2,53,64
18840,note_on,,,,,0,0,2,,,,,1,68,64
18840,note_on,,,,,120,0,2,,,,,1,53,0
18840,note_on,,,,,120,0,3,,,,,2,53,0
18840,note_on,,,,,0,0,3,,,,,2,41,64
18840,note_on,,,,,0,0,1,,,,,0,72,64
18840,note_on,,,,,120,0,1,,,,,0,68,0
18900,note_on,,,,,0,0,1,,,,,0,71,64
18900,note_on,,,,,60,0,1,,,,,0,72,0
18960,note_on,,,,,120,0,2,,,,,1,68,0
18960,note_on,,,,,60,0,1,,,,,0,71,0
18960,note_on,,,,,0,0,3,,,,,2,39,64
18960,note_on,,,,,0,0,1,,,,,0,72,64
18960,note_on,,,,,120,0,3,,,,,2,41,0
18960,note_on,,,,,0,0,2,,,,,1,67,64
19080,note_on,,,,,120,0,3,,,,,2,39,0
19080,note_on,,,,,0,0,3,,,,,2,38,64
19080,note_on,,,,,0,0,2,,,,,1,65,64
19080,note_on,,,,,120,0,2,,,,,1,67,0
19080,note_on,,,,,120,0,1,,,,,0,72,0
19080,note_on,,,,,0,0,1,,,,,0,74,64
19200,note_on,,,,,120,0,1,,,,,0,74,0
19200,note_on,,,,,0,0,1,,,,,0,67,64
19200,note_on,,,,,120,0,2,,,,,1,65,0
19200,note_on,,,,,0,0,2,,,,,1,63,64
19200,note_on,,,,,120,0,3,,,,,2,38,0
19320,note_on,,,,,120,0,2,,,,,1,63,0
19320,note_on,,,,,0,0,2,,,,,1,62,64
19320,note_on,,,,,120,0,1,,,,,0,72,64
19320,note_on,,,,,120,0,3,,,,,2,44,64
19331,note_on,,,,,11,0,1,,,,,0,67,0
19380,note_on,,,,,49,0,1,,,,,0,72,0
19380,note_on,,,,,0,0,1,,,,,0,71,64
19440,note_on,,,,,120,0,2,,,,,1,62,0
19440,note_on,,,,,120,0,3,,,,,2,44,0
19440,note_on,,,,,0,0,3,,,,,2,43,64
19440,note_on,,,,,60,0,1,,,,,0,71,0
19440,note_on,,,,,0,0,1,,,,,0,72,64
19440,note_on,,,,,0,0,2,,,,,1,63,64
19560,note_on,,,,,120,0,2,,,,,1,63,0
19560,note_on,,,,,120,0,3,,,,,2,43,0
19560,note_on,,,,,0,0,3,,,,,2,41,64
19560,note_on,,,,,120,0,1,,,,,0,74,64
19560,note_on,,,,,0,0,2,,,,,1,65,64
19566,note_on,,,,,6,0,1,,,,,0,72,0
19680,note_on,,,,,0,0,2,,,,,1,59,64
19680,note_on,,,,,120,0,2,,,,,1,65,0
19680,note_on,,,,,120,0,3,,,,,2,41,0
19680,note_on,,,,,0,0,3,,,,,2,43,64
19680,note_on,,,,,114,0,1,,,,,0,65,64
19690,note_on,,,,,10,0,1,,,,,0,74,0
19740,note_on,,,,,0,0,1,,,,,0,67,64
19740,note_on,,,,,50,0,1,,,,,0,65,0
19800,note_on,,,,,0,0,3,,,,,2,41,64
19800,note_on,,,,,120,0,3,,,,,2,43,0
19800,note_on,,,,,0,0,1,,,,,0,68,64
19800,note_on,,,,,0,0,2,,,,,1,60,64
19800,note_on,,,,,120,0,2,,,,,1,59,0
19800,note_on,,,,,60,0,1,,,,,0,67,0
19860,note_on,,,,,0,0,3,,,,,2,39,64
19860,note_on,,,,,60,0,3,,,,,2,41,0
19920,note_on,,,,,0,0,3,,,,,2,41,64
19920,note_on,,,,,60,0,3,,,,,2,39,0
19920,note_on,,,,,0,0,2,,,,,1,62,64
19920,note_on,,,,,120,0,2,,,,,1,60,0
20040,note_on,,,,,240,0,1,,,,,0,68,0
20040,note_on,,,,,120,0,2,,,,,1,62,0
20040,note_on,,,,,0,0,1,,,,,0,67,64
20040,note_on,,,,,120,0,3,,,,,2,41,0
20040,note_on,,,,,0,0,3,,,,,2,43,64
20040,note_on,,,,,0,0,2,,,,,1,59,64
20100,note_on,,,,,60,0,1,,,,,0,67,0
20100,note_on,,,,,0,0,1,,,,,0,65,64
20160,note_on,,,,,0,0,3,,,,,2,48,64
20160,note_on,,,,,60,0,1,,,,,0,65,0
20160,note_on,,,,,0,0,1,,,,,0,63,64
20160,note_on,,,,,0,0,2,,,,,1,60,64
20160,note_on,,,,,120,0,2,,,,,1,59,0
20160,note_on,,,,,120,0,3,,,,,2,43,0
20220,note_on,,,,,0,0,3,,,,,2,50,64
20220,note_on,,,,,60,0,3,,,,,2,48,0
20280,note_on,,,,,120,0,1,,,,,0,63,0
20280,note_on,,,,,0,0,1,,,,,0,72,64
20280,note_on,,,,,0,0,3,,,,,2,51,64
20280,note_on,,,,,60,0,3,,,,,2,50,0
20340,note_on,,,,,0,0,3,,,,,2,50,64
20340,note_on,,,,,60,0,3,,,,,2,51,0
20340,note_on,,,,,0,0,1,,,,,0,71,64
20340,note_on,,,,,60,0,1,,,,,0,72,0
20400,note_on,,,,,0,0,3,,,,,2,48,64
20400,note_on,,,,,240,0,2,,,,,1,60,0
20400,note_on,,,,,60,0,3,,,,,2,50,0
20400,note_on,,,,,0,0,1,,,,,0,72,64
20400,note_on,,,,,60,0,1,,,,,0,71,0
20460,note_on,,,,,0,0,3,,,,,2,46,64
20460,note_on,,,,,60,0,3,,,,,2,48,0
20520,note_on,,,,,120,0,2,,,,,1,64,64
20520,note_on,,,,,0,0,1,,,,,0,67,64
20520,note_on,,,,,120,0,1,,,,,0,72,0
20520,note_on,,,,,0,0,3,,,,,2,44,64
20520,note_on,,,,,60,0,3,,,,,2,46,0
20580,note_on,,,,,0,0,3,,,,,2,43,64
20580,note_on,,,,,60,0,3,,,,,2,44,0
20640,note_on,,,,,0,0,1,,,,,0,68,64
20640,note_on,,,,,60,0,3,,,,,2,43,0
20640,note_on,,,,,0,0,3,,,,,2,41,64
20640,note_on,,,,,0,0,2,,,,,1,65,64
20640,note_on,,,,,120,0,1,,,,,0,67,0
20640,note_on,,,,,120,0,2,,,,,1,64,0
20700,note_on,,,,,60,0,3,,,,,2,41,0
20700,note_on,,,,,0,0,3,,,,,2,58,64
20750,note_on,,,,,110,0,2,,,,,1,65,0
20760,note_on,,,,,60,0,3,,,,,2,58,0
20760,note_on,,,,,0,0,3,,,,,2,56,64
20760,note_on,,,,,10,0,2,,,,,1,65,64
20820,note_on,,,,,0,0,3,,,,,2,55,64
20820,note_on,,,,,60,0,3,,,,,2,56,0
20820,note_on,,,,,60,0,2,,,,,1,65,0
20820,note_on,,,,,0,0,2,,,,,1,64,64
20880,note_on,,,,,60,0,2,,,,,1,64,0
20880,note_on,,,,,240,0,1,,,,,0,68,0
20880,note_on,,,,,60,0,3,,,,,2,55,0
20880,note_on,,,,,0,0,3,,,,,2,53,64
20880,note_on,,,,,0,0,2,,,,,1,65,64
20940,note_on,,,,,60,0,3,,,,,2,53,0
20940,note_on,,,,,0,0,3,,,,,2,51,64
21000,note_on,,,,,60,0,3,,,,,2,51,0
21000,note_on,,,,,0,0,3,,,,,2,50,64
21000,note_on,,,,,120,0,1,,,,,0,69,64
21000,note_on,,,,,120,0,2,,,,,1,65,0
21000,note_on,,,,,0,0,2,,,,,1,60,64
21060,note_on,,,,,0,0,3,,,,,2,48,64
21060,note_on,,,,,60,0,3,,,,,2,50,0
21120,note_on,,,,,0,0,1,,,,,0,70,64
21120,note_on,,,,,120,0,2,,,,,1,60,0
21120,note_on,,,,,0,0,2,,,,,1,62,64
21120,note_on,,,,,60,0,3,,,,,2,48,0
21120,note_on,,,,,120,0,1,,,,,0,69,0
21120,note_on,,,,,0,0,3,,,,,2,46,64
21180,note_on,,,,,60,0,3,,,,,2,46,0
21180,note_on,,,,,0,0,3,,,,,2,48,64
21200,note_on,,,,,80,0,1,,,,,0,70,0
21240,note_on,,,,,0,0,3,,,,,2,50,64
21240,note_on,,,,,60,0,3,,,,,2,48,0
21240,note_on,,,,,40,0,1,,,,,0,70,64
21300,note_on,,,,,0,0,3,,,,,2,48,64
21300,note_on,,,,,60,0,1,,,,,0,70,0
21300,note_on,,,,,60,0,3,,,,,2,50,0
21300,note_on,,,,,0,0,1,,,,,0,69,64
21360,note_on,,,,,0,0,1,,,,,0,70,64
21360,note_on,,,,,60,0,3,,,,,2,48,0
21360,note_on,,,,,60,0,1,,,,,0,69,0
21360,note_on,,,,,0,0,3,,,,,2,46,64
21360,note_on,,,,,240,0,2,,,,,1,62,0
21420,note_on,,,,,0,0,3,,,,,2,44,64
21420,note_on,,,,,60,0,3,,,,,2,46,0
21480,note_on,,,,,120,0,2,,,,,1,62,64
21480,note_on,,,,,0,0,1,,,,,0,65,64
21480,note_on,,,,,120,0,1,,,,,0,70,0
21480,note_on,,,,,0,0,3,,,,,2,43,64
21480,note_on,,,,,60,0,3,,,,,2,44,0
21540,note_on,,,,,60,0,3,,,,,2,43,0
21540,note_on,,,,,0,0,3,,,,,2,41,64
21600,note_on,,,,,0,0,3,,,,,2,39,64
21600,note_on,,,,,0,0,2,,,,,1,63,64
21600,note_on,,,,,120,0,2,,,,,1,62,0
21600,note_on,,,,,120,0,1,,,,,0,65,0
21600,note_on,,,,,0,0,1,,,,,0,67,64
21600,note_on,,,,,60,0,3,,,,,2,41,0
21660,note_on,,,,,0,0,3,,,,,2,56,64
21660,note_on,,,,,60,0,3,,,,,2,39,0
21710,note_on,,,,,110,0,2,,,,,1,63,0
21720,note_on,,,,,0,0,3,,,,,2,55,64
21720,note_on,,,,,60,0,3,,,,,2,56,0
21720,note_on,,,,,10,0,2,,,,,1,63,64
21780,note_on,,,,,0,0,3,,,,,2,53,64
21780,note_on,,,,,60,0,3,,,,,2,55,0
21780,note_on,,,,,0,0,2,,,,,1,62,64
21780,note_on,,,,,60,0,2,,,,,1,63,0
21840,note_on,,,,,240,0,1,,,,,0,67,0
21840,note_on,,,,,60,0,3,,,,,2,53,0
21840,note_on,,,,,0,0,3,,,,,2,51,64
21840,note_on,,,,,0,0,2,,,,,1,63,64
21840,note_on,,,,,60,0,2,,,,,1,62,0
21900,note_on,,,,,0,0,3,,,,,2,50,64
21900,note_on,,,,,60,0,3,,,,,2,51,0
21960,note_on,,,,,60,0,3,,,,,2,50,0
21960,note_on,,,,,0,0,3,,,,,2,48,64
21960,note_on,,,,,120,0,2,,,,,1,63,0
21960,note_on,,,,,120,0,1,,,,,0,67,64
21960,note_on,,,,,0,0,2,,,,,1,58,64
22020,note_on,,,,,0,0,3,,,,,2,46,64
22020,note_on,,,,,60,0,3,,,,,2,48,0
22080,note_on,,,,,120,0,2,,,,,1,58,0
22080,note_on,,,,,0,0,3,,,,,2,44,64
22080,note_on,,,,,60,0,3,,,,,2,46,0
22080,note_on,,,,,0,0,2,,,,,1,60,64
22140,note_on,,,,,0,0,3,,,,,2,46,64
22140,note_on,,,,,60,0,3,,,,,2,44,0
22200,note_on,,,,,0,0,3,,,,,2,48,64
22200,note_on,,,,,60,0,3,,,,,2,46,0
22200,note_on,,,,,0,0,1,,,,,0,68,64
22200,note_on,,,,,240,0,1,,,,,0,67,0
22260,note_on,,,,,0,0,3,,,,,2,46,64
22260,note_on,,,,,60,0,3,,,,,2,48,0
22260,note_on,,,,,0,0,1,,,,,0,70,64
22260,note_on,,,,,60,0,1,,,,,0,68,0
22320,note_on,,,,,0,0,3,,,,,2,44,64
22320,note_on,,,,,60,0,3,,,,,2,46,0
22320,note_on,,,,,60,0,1,,,,,0,70,0
22320,note_on,,,,,0,0,1,,,,,0,72,64
22380,note_on,,,,,60,0,3,,,,,2,44,0
22380,note_on,,,,,0,0,1,,,,,0,71,64
22380,note_on,,,,,60,0,1,,,,,0,72,0
22380,note_on,,,,,0,0,3,,,,,2,43,64
22440,note_on,,,,,0,0,1,,,,,0,72,64
22440,note_on,,,,,60,0,1,,,,,0,71,0
22440,note_on,,,,,60,0,3,,,,,2,43,0
22440,note_on,,,,,0,0,3,,,,,2,41,64
22500,note_on,,,,,0,0,1,,,,,0,68,64
22500,note_on,,,,,60,0,1,,,,,0,72,0
22500,note_on,,,,,60,0,3,,,,,2,41,0
22500,note_on,,,,,0,0,3,,,,,2,39,64
22560,note_on,,,,,0,0,3,,,,,2,38,64
22560,note_on,,,,,60,0,1,,,,,0,68,0
22560,note_on,,,,,0,0,1,,,,,0,65,64
22560,note_on,,,,,60,0,3,,,,,2,39,0
22620,note_on,,,,,60,0,3,,,,,2,38,0
22620,note_on,,,,,0,0,3,,,,,2,55,64
22680,note_on,,,,,600,0,2,,,,,1,60,0
22680,note_on,,,,,0,0,2,,,,,1,62,64
22680,note_on,,,,,0,0,3,,,,,2,53,64
22680,note_on,,,,,60,0,3,,,,,2,55,0
22740,note_on,,,,,60,0,2,,,,,1,62,0
22740,note_on,,,,,0,0,2,,,,,1,63,64
22740,note_on,,,,,0,0,3,,,,,2,51,64
22740,note_on,,,,,60,0,3,,,,,2,53,0
22800,note_on,,,,,60,0,2,,,,,1,63,0
22800,note_on,,,,,0,0,2,,,,,1,65,64
22800,note_on,,,,,0,0,3,,,,,2,50,64
22800,note_on,,,,,60,0,3,,,,,2,51,0
22860,note_on,,,,,0,0,3,,,,,2,48,64
22860,note_on,,,,,60,0,3,,,,,2,50,0
22860,note_on,,,,,0,0,2,,,,,1,63,64
22860,note_on,,,,,60,0,2,,,,,1,65,0
22920,note_on,,,,,60,0,3,,,,,2,48,0
22920,note_on,,,,,0,0,3,,,,,2,47,64
22920,note_on,,,,,0,0,2,,,,,1,65,64
22920,note_on,,,,,60,0,2,,,,,1,63,0
22980,note_on,,,,,60,0,3,,,,,2,47,0
22980,note_on,,,,,0,0,3,,,,,2,45,64
22980,note_on,,,,,0,0,2,,,,,1,62,64
22980,note_on,,,,,60,0,2,,,,,1,65,0
23040,note_on,,,,,60,0,3,,,,,2,45,0
23040,note_on,,,,,60,0,2,,,,,1,62,0
23040,note_on,,,,,0,0,3,,,,,2,43,64
23040,note_on,,,,,0,0,2,,,,,1,59,64
23160,note_on,,,,,0,0,1,,,,,0,74,64
23160,note_on,,,,,600,0,1,,,,,0,65,0
23160,note_on,,,,,120,0,2,,,,,1,59,0
23220,note_on,,,,,60,0,1,,,,,0,74,0
23220,note_on,,,,,0,0,1,,,,,0,72,64
23280,note_on,,,,,60,0,1,,,,,0,72,0
23280,note_on,,,,,0,0,1,,,,,0,74,64
23280,note_on,,,,,240,0,3,,,,,2,43,0
23400,note_on,,,,,120,0,1,,,,,0,74,0
23400,note_on,,,,,0,0,1,,,,,0,65,64
23400,note_on,,,,,240,0,2,,,,,1,59,64
23520,note_on,,,,,120,0,2,,,,,1,59,0
23520,note_on,,,,,0,0,1,,,,,0,63,64
23520,note_on,,,,,120,0,1,,,,,0,65,0
23520,note_on,,,,,0,0,2,,,,,1,60,64
23580,note_on,,,,,300,0,3,,,,,2,43,64
23640,note_on,,,,,0,0,1,,,,,0,75,64
23640,note_on,,,,,120,0,2,,,,,1,60,0
23640,note_on,,,,,120,0,1,,,,,0,63,0
23640,note_on,,,,,0,0,3,,,,,2,45,64
23640,note_on,,,,,60,0,3,,,,,2,43,0
23700,note_on,,,,,0,0,3,,,,,2,47,64
23700,note_on,,,,,60,0,3,,,,,2,45,0
23700,note_on,,,,,0,0,1,,,,,0,74,64
23700,note_on,,,,,60,0,1,,,,,0,75,0
23760,note_on,,,,,0,0,1,,,,,0,75,64
23760,note_on,,,,,60,0,1,,,,,0,74,0
23760,note_on,,,,,60,0,3,,,,,2,47,0
23760,note_on,,,,,0,0,3,,,,,2,48,64
23820,note_on,,,,,60,0,3,,,,,2,48,0
23820,note_on,,,,,0,0,3,,,,,2,50,64
23880,note_on,,,,,60,0,3,,,,,2,50,0
23880,note_on,,,,,0,0,3,,,,,2,51,64
23880,note_on,,,,,0,0,1,,,,,0,67,64
23880,note_on,,,,,120,0,1,,,,,0,75,0
23880,note_on,,,,,240,0,2,,,,,1,63,64
23940,note_on,,,,,0,0,3,,,,,2,53,64
23940,note_on,,,,,60,0,3,,,,,2,51,0
24000,note_on,,,,,0,0,3,,,,,2,55,64
24000,note_on,,,,,60,0,3,,,,,2,53,0
24000,note_on,,,,,0,0,2,,,,,1,62,64
24000,note_on,,,,,120,0,2,,,,,1,63,0
24000,note_on,,,,,0,0,1,,,,,0,65,64
24000,note_on,,,,,120,0,1,,,,,0,67,0
24060,note_on,,,,,60,0,3,,,,,2,55,0
24060,note_on,,,,,0,0,3,,,,,2,53,64
24120,note_on,,,,,120,0,1,,,,,0,65,0
24120,note_on,,,,,0,0,1,,,,,0,77,64
24120,note_on,,,,,120,0,2,,,,,1,62,0
24120,note_on,,,,,60,0,3,,,,,2,53,0
24120,note_on,,,,,0,0,3,,,,,2,56,64
24180,note_on,,,,,60,0,3,,,,,2,56,0
24180,note_on,,,,,60,0,1,,,,,0,77,0
24180,note_on,,,,,0,0,1,,,,,0,75,64
24180,note_on,,,,,0,0,3,,,,,2,55,64
24240,note_on,,,,,60,0,1,,,,,0,75,0
24240,note_on,,,,,0,0,3,,,,,2,53,64
24240,note_on,,,,,60,0,3,,,,,2,55,0
24240,note_on,,,,,0,0,1,,,,,0,77,64
24300,note_on,,,,,60,0,3,,,,,2,53,0
24300,note_on,,,,,0,0,3,,,,,2,51,64
24360,note_on,,,,,0,0,3,,,,,2,50,64
24360,note_on,,,,,60,0,3,,,,,2,51,0
24360,note_on,,,,,120,0,1,,,,,0,77,0
24360,note_on,,,,,240,0,2,,,,,1,65,64
24360,note_on,,,,,0,0,1,,,,,0,68,64
24420,note_on,,,,,60,0,3,,,,,2,50,0
24420,note_on,,,,,0,0,3,,,,,2,48,64
24480,note_on,,,,,60,0,3,,,,,2,48,0
24480,note_on,,,,,0,0,1,,,,,0,67,64
24480,note_on,,,,,120,0,1,,,,,0,68,0
24480,note_on,,,,,0,0,3,,,,,2,47,64
24540,note_on,,,,,0,0,1,,,,,0,77,64
24540,note_on,,,,,60,0,1,,,,,0,67,0
24600,note_on,,,,,0,0,1,,,,,0,75,64
24600,note_on,,,,,60,0,1,,,,,0,77,0
24600,note_on,,,,,240,0,2,,,,,1,65,0
24600,note_on,,,,,120,0,3,,,,,2,47,0
24600,note_on,,,,,0,0,3,,,,,2,48,64
24660,note_on,,,,,0,0,1,,,,,0,74,64
24660,note_on,,,,,0,0,3,,,,,2,47,64
24660,note_on,,,,,60,0,1,,,,,0,75,0
24660,note_on,,,,,60,0,3,,,,,2,48,0
24720,note_on,,,,,60,0,1,,,,,0,74,0
24720,note_on,,,,,60,0,3,,,,,2,47,0
24720,note_on,,,,,0,0,1,,,,,0,72,64
24720,note_on,,,,,0,0,3,,,,,2,48,64
24780,note_on,,,,,60,0,1,,,,,0,72,0
24780,note_on,,,,,0,0,1,,,,,0,71,64
24840,note_on,,,,,0,0,3,,,,,2,43,64
24840,note_on,,,,,120,0,3,,,,,2,48,0
24840,note_on,,,,,0,0,1,,,,,0,69,64
24840,note_on,,,,,60,0,1,,,,,0,71,0
24840,note_on,,,,,240,0,2,,,,,1,65,64
24900,note_on,,,,,60,0,1,,,,,0,69,0
24900,note_on,,,,,0,0,1,,,,,0,67,64
24960,note_on,,,,,0,0,2,,,,,1,63,64
24960,note_on,,,,,60,0,1,,,,,0,67,0
24960,note_on,,,,,0,0,3,,,,,2,44,64
24960,note_on,,,,,120,0,3,,,,,2,43,0
24960,note_on,,,,,0,0,1,,,,,0,72,64
24960,note_on,,,,,120,0,2,,,,,1,65,0
25080,note_on,,,,,120,0,2,,,,,1,63,0
25080,note_on,,,,,120,0,1,,,,,0,72,0
25080,note_on,,,,,0,0,3,,,,,2,48,64
25080,note_on,,,,,120,0,3,,,,,2,44,0
25080,note_on,,,,,0,0,2,,,,,1,68,64
25080,note_on,,,,,0,0,1,,,,,0,77,64
25140,note_on,,,,,0,0,3,,,,,2,47,64
25140,note_on,,,,,60,0,3,,,,,2,48,0
25200,note_on,,,,,0,0,2,,,,,1,67,64
25200,note_on,,,,,60,0,3,,,,,2,47,0
25200,note_on,,,,,0,0,1,,,,,0,75,64
25200,note_on,,,,,120,0,1,,,,,0,77,0
25200,note_on,,,,,0,0,3,,,,,2,48,64
25200,note_on,,,,,120,0,2,,,,,1,68,0
25320,note_on,,,,,120,0,2,,,,,1,67,0
25320,note_on,,,,,0,0,2,,,,,1,65,64
25320,note_on,,,,,0,0,1,,,,,0,74,64
25320,note_on,,,,,120,0,1,,,,,0,75,0
25320,note_on,,,,,120,0,3,,,,,2,48,0
25320,note_on,,,,,0,0,3,,,,,2,50,64
25440,note_on,,,,,120,0,2,,,,,1,65,0
25440,note_on,,,,,0,0,2,,,,,1,63,64
25440,note_on,,,,,120,0,3,,,,,2,50,0
25440,note_on,,,,,0,0,3,,,,,2,43,64
25440,note_on,,,,,120,0,1,,,,,0,74,0
25560,note_on,,,,,120,0,3,,,,,2,43,0
25560,note_on,,,,,0,0,3,,,,,2,48,64
25560,note_on,,,,,0,0,2,,,,,1,62,64
25560,note_on,,,,,120,0,2,,,,,1,63,0
25560,note_on,,,,,120,0,1,,,,,0,68,64
25620,note_on,,,,,60,0,3,,,,,2,48,0
25620,note_on,,,,,0,0,3,,,,,2,47,64
25680,note_on,,,,,60,0,3,,,,,2,47,0
25680,note_on,,,,,0,0,3,,,,,2,48,64
25680,note_on,,,,,120,0,2,,,,,1,62,0
25680,note_on,,,,,120,0,1,,,,,0,68,0
25680,note_on,,,,,0,0,1,,,,,0,67,64
25680,note_on,,,,,0,0,2,,,,,1,63,64
25800,note_on,,,,,0,0,2,,,,,1,65,64
25800,note_on,,,,,120,0,2,,,,,1,63,0
25800,note_on,,,,,0,0,1,,,,,0,65,64
25800,note_on,,,,,120,0,1,,,,,0,67,0
25800,note_on,,,,,120,0,3,,,,,2,48,0
25800,note_on,,,,,0,0,3,,,,,2,50,64
25920,note_on,,,,,120,0,2,,,,,1,65,0
25920,note_on,,,,,0,0,1,,,,,0,67,64
25920,note_on,,,,,0,0,2,,,,,1,59,64
25920,note_on,,,,,0,0,3,,,,,2,41,64
25920,note_on,,,,,120,0,1,,,,,0,65,0
25920,note_on,,,,,120,0,3,,,,,2,50,0
25980,note_on,,,,,60,0,3,,,,,2,41,0
25980,note_on,,,,,0,0,3,,,,,2,43,64
26040,note_on,,,,,0,0,3,,,,,2,44,64
26040,note_on,,,,,120,0,2,,,,,1,59,0
26040,note_on,,,,,0,0,2,,,,,1,60,64
26040,note_on,,,,,0,0,1,,,,,0,65,64
26040,note_on,,,,,120,0,1,,,,,0,67,0
26040,note_on,,,,,60,0,3,,,,,2,43,0
26100,note_on,,,,,0,0,1,,,,,0,63,64
26100,note_on,,,,,60,0,1,,,,,0,65,0
26160,note_on,,,,,0,0,1,,,,,0,65,64
26160,note_on,,,,,120,0,2,,,,,1,60,0
26160,note_on,,,,,0,0,2,,,,,1,62,64
26160,note_on,,,,,60,0,1,,,,,0,63,0
26280,note_on,,,,,120,0,1,,,,,0,65,0
26280,note_on,,,,,0,0,1,,,,,0,62,64
26280,note_on,,,,,240,0,3,,,,,2,43,64
26280,note_on,,,,,120,0,2,,,,,1,62,0
26280,note_on,,,,,0,0,2,,,,,1,59,64
26283,note_on,,,,,3,0,3,,,,,2,44,0
26340,note_on,,,,,0,0,3,,,,,2,41,64
26340,note_on,,,,,57,0,3,,,,,2,43,0
26400,note_on,,,,,120,0,2,,,,,1,59,0
26400,note_on,,,,,0,0,1,,,,,0,68,64
26400,note_on,,,,,120,0,1,,,,,0,62,0
26400,note_on,,,,,60,0,3,,,,,2,41,0
26400,note_on,,,,,0,0,3,,,,,2,39,64
26400,note_on,,,,,0,0,2,,,,,1,59,64
26520,note_on,,,,,120,0,1,,,,,0,68,0
26520,note_on,,,,,120,0,2,,,,,1,59,0
26520,note_on,,,,,0,0,2,,,,,1,60,64
26520,note_on,,,,,0,0,1,,,,,0,67,64
26640,note_on,,,,,240,0,3,,,,,2,39,0
26640,note_on,,,,,120,0,1,,,,,0,67,0
26640,note_on,,,,,120,0,2,,,,,1,60,0
26760,note_on,,,,,120,0,2,,,,,1,60,64
26760,note_on,,,,,120,0,1,,,,,0,69,64
26760,note_on,,,,,120,0,3,,,,,2,51,64
26880,note_on,,,,,120,0,2,,,,,1,60,0
26880,note_on,,,,,0,0,2,,,,,1,65,64
26880,note_on,,,,,120,0,1,,,,,0,69,0
26880,note_on,,,,,0,0,1,,,,,0,71,64
26880,note_on,,,,,0,0,3,,,,,2,50,64
26880,note_on,,,,,120,0,3,,,,,2,51,0
26940,note_on,,,,,60,0,2,,,,,1,65,0
26940,note_on,,,,,0,0,2,,,,,1,62,64
27000,note_on,,,,,120,0,3,,,,,2,50,0
27000,note_on,,,,,60,0,2,,,,,1,62,0
27000,note_on,,,,,0,0,2,,,,,1,63,64
27000,note_on,,,,,0,0,3,,,,,2,48,64
27000,note_on,,,,,0,0,1,,,,,0,72,64
27000,note_on,,,,,120,0,1,,,,,0,71,0
27060,note_on,,,,,0,0,2,,,,,1,60,64
27060,note_on,,,,,60,0,2,,,,,1,63,0
27120,note_on,,,,,0,0,1,,,,,0,65,64
27120,note_on,,,,,120,0,1,,,,,0,72,0
27120,note_on,,,,,0,0,3,,,,,2,55,64
27120,note_on,,,,,120,0,3,,,,,2,48,0
27180,note_on,,,,,0,0,1,,,,,0,63,64
27180,note_on,,,,,60,0,1,,,,,0,65,0
27240,note_on,,,,,120,0,3,,,,,2,55,0
27240,note_on,,,,,180,0,2,,,,,1,60,0
27240,note_on,,,,,60,0,1,,,,,0,63,0
27240,note_on,,,,,0,0,1,,,,,0,62,64
27240,note_on,,,,,0,0,2,,,,,1,59,64
27240,note_on,,,,,0,0,3,,,,,2,43,64
27300,note_on,,,,,0,0,1,,,,,0,60,64
27300,note_on,,,,,60,0,1,,,,,0,62,0
27350,note_on,,,,,50,0,1,,,,,0,60,0
27360,note_on,,,,,0,0,2,,,,,1,60,64
27360,note_on,,,,,0,0,3,,,,,2,36,64
27360,note_on,,,,,0,0,3,,,,,2,48,64
27360,note_on,,,,,10,0,1,,,,,0,60,64
27360,note_on,,,,,120,0,3,,,,,2,43,0
27360,note_on,,,,,120,0,2,,,,,1,59,0
27480,note_on,,,,,0,0,1,,,,,0,72,64
27480,note_on,,,,,120,0,1,,,,,0,60,0
27540,note_on,,,,,60,0,1,,,,,0,72,0
27540,note_on,,,,,0,0,1,,,,,0,71,64
27600,note_on,,,,,240,0,2,,,,,1,60,0
27600,note_on,,,,,0,0,1,,,,,0,72,64
27600,note_on,,,,,60,0,1,,,,,0,71,0
27720,note_on,,,,,120,0,2,,,,,1,64,64
27720,note_on,,,,,120,0,1,,,,,0,72,0
27720,note_on,,,,,0,0,1,,,,,0,67,64
27840,note_on,,,,,120,0,1,,,,,0,67,0
27840,note_on,,,,,120,0,2,,,,,1,64,0
27840,note_on,,,,,0,0,2,,,,,1,65,64
27840,note_on,,,,,0,0,1,,,,,0,68,64
27960,note_on,,,,,0,0,1,,,,,0,72,64
27960,note_on,,,,,120,0,1,,,,,0,68,0
27970,note_on,,,,,130,0,2,,,,,1,65,0
28020,note_on,,,,,0,0,1,,,,,0,71,64
28020,note_on,,,,,60,0,1,,,,,0,72,0
28080,note_on,,,,,0,0,1,,,,,0,72,64
28080,note_on,,,,,60,0,1,,,,,0,71,0
28200,note_on,,,,,0,0,1,,,,,0,74,64
28200,note_on,,,,,120,0,1,,,,,0,72,0
28200,note_on,,,,,0,0,1,,,,,0,71,64
28200,note_on,,,,,0,0,1,,,,,0,68,64
28200,note_on,,,,,230,0,2,,,,,1,65,64
28310,note_on,,,,,110,0,2,,,,,1,65,0
28320,note_on,,,,,120,0,1,,,,,0,68,0
28320,note_on,,,,,0,0,1,,,,,0,71,0
28320,note_on,,,,,0,0,1,,,,,0,74,0
28320,note_on,,,,,0,0,1,,,,,0,67,64
28320,note_on,,,,,10,0,2,,,,,1,65,64
28440,note_on,,,,,0,0,2,,,,,1,63,64
28440,note_on,,,,,120,0,1,,,,,0,67,0
28440,note_on,,,,,0,0,1,,,,,0,72,64
28440,note_on,,,,,120,0,2,,,,,1,65,0
28500,note_on,,,,,0,0,2,,,,,1,62,64
28500,note_on,,,,,60,0,2,,,,,1,63,0
28500,note_on,,,,,60,0,1,,,,,0,72,0
28500,note_on,,,,,0,0,1,,,,,0,71,64
28560,note_on,,,,,60,0,2,,,,,1,62,0
28560,note_on,,,,,0,0,2,,,,,1,63,64
28560,note_on,,,,,60,0,1,,,,,0,71,0
28560,note_on,,,,,0,0,1,,,,,0,72,64
28680,note_on,,,,,0,0,1,,,,,0,74,64
28680,note_on,,,,,120,0,2,,,,,1,63,0
28680,note_on,,,,,0,0,2,,,,,1,68,64
28680,note_on,,,,,0,0,2,,,,,1,65,64
28680,note_on,,,,,120,0,1,,,,,0,72,0
28800,note_on,,,,,0,0,2,,,,,1,62,64
28800,note_on,,,,,0,0,2,,,,,1,68,0
28800,note_on,,,,,120,0,2,,,,,1,65,0
28800,note_on,,,,,120,0,1,,,,,0,74,0
28800,note_on,,,,,0,0,2,,,,,1,59,64
28800,set_tempo,,,,,28800,1,0,,750000,,,,,
28800,note_on,,,,,0,0,1,,,,,0,65,64
28860,note_on,,,,,60,0,1,,,,,0,65,0
28860,note_on,,,,,0,0,1,,,,,0,67,64
28920,note_on,,,,,60,0,1,,,,,0,67,0
28920,note_on,,,,,0,0,1,,,,,0,68,64
28920,note_on,,,,,0,0,2,,,,,1,62,0
28920,note_on,,,,,120,0,2,,,,,1,59,0
28924,set_tempo,,,,,124,1,0,,800000,,,,,
29040,set_tempo,,,,,116,1,0,,869565,,,,,
29040,note_on,,,,,0,0,2,,,,,1,62,64
29040,note_on,,,,,120,0,2,,,,,1,59,64
29160,note_on,,,,,0,0,1,,,,,0,67,64
29160,note_on,,,,,0,0,2,,,,,1,59,0
29160,note_on,,,,,240,0,1,,,,,0,68,0
29160,set_tempo,,,,,120,1,0,,1000000,,,,,
29160,note_on,,,,,120,0,2,,,,,1,62,0
29220,note_on,,,,,60,0,1,,,,,0,67,0
29220,note_on,,,,,0,0,1,,,,,0,65,64
29280,note_on,,,,,120,0,2,,,,,1,55,64
29280,note_on,,,,,0,0,2,,,,,1,60,64
29280,note_on,,,,,0,0,1,,,,,0,64,64
29280,end_of_track,,,,,0,1,0,,,,,,,
29280,set_tempo,,,,,120,1,0,,1111111,,,,,
29280,note_on,,,,,60,0,1,,,,,0,65,0
29759,note_on,,,,,2399,0,3,,,,,2,36,0
29760,note_on,,,,,480,0,1,,,,,0,64,0
29760,end_of_track,,,,,0,1,2,,,,,,,
29760,note_on,,,,,0,0,2,,,,,1,55,0
29760,note_on,,,,,480,0,2,,,,,1,60,0
29760,note_on,,,,,1,0,3,,,,,2,48,0
29760,end_of_track,,,,,0,1,1,,,,,,,
29760,end_of_track,,,,,0,1,3,,,,,,,
