,note,step,duration,channel,velocity
0,48.0,60,60,1.0,0.0
1,72.0,0,60,0.0,0.0
2,63.0,0,60,0.0,0.0
3,55.0,60,60,1.0,0.0
4,62.0,60,60,0.0,0.0
5,53.0,0,60,1.0,0.0
6,63.0,60,60,0.0,0.0
7,55.0,0,60,1.0,0.0
8,60.0,60,60,0.0,0.0
9,51.0,0,60,1.0,0.0
10,55.0,0,60,1.0,0.0
11,63.0,60,60,0.0,0.0
12,53.0,0,60,1.0,0.0
13,62.0,60,60,0.0,0.0
14,55.0,0,60,1.0,0.0
15,63.0,60,60,0.0,0.0
16,72.0,0,60,0.0,0.0
17,48.0,60,60,1.0,0.0
18,55.0,0,60,1.0,0.0
19,63.0,60,60,0.0,0.0
20,62.0,60,60,0.0,0.0
21,53.0,0,60,1.0,0.0
22,55.0,0,60,1.0,0.0
23,63.0,60,60,0.0,0.0
24,60.0,0,60,0.0,0.0
25,51.0,60,60,1.0,0.0
26,63.0,0,60,0.0,0.0
27,55.0,60,60,1.0,0.0
28,53.0,0,60,1.0,0.0
29,62.0,60,60,0.0,0.0
30,63.0,0,60,0.0,0.0
31,55.0,60,60,1.0,0.0
32,48.0,60,60,1.0,0.0
33,68.0,0,60,0.0,0.0
34,65.0,60,60,0.0,0.0
35,56.0,0,60,1.0,0.0
36,55.0,0,60,1.0,0.0
37,64.0,60,60,0.0,0.0
38,56.0,0,60,1.0,0.0
39,65.0,60,60,0.0,0.0
40,53.0,60,60,1.0,0.0
41,60.0,0,60,0.0,0.0
42,65.0,60,60,0.0,0.0
43,56.0,0,60,1.0,0.0
44,55.0,0,60,1.0,0.0
45,64.0,60,60,0.0,0.0
46,65.0,0,60,0.0,0.0
47,56.0,60,60,1.0,0.0
48,68.0,60,60,0.0,0.0
49,48.0,0,60,1.0,0.0
50,56.0,0,60,1.0,0.0
51,65.0,60,60,0.0,0.0
52,55.0,0,60,1.0,0.0
53,64.0,60,60,0.0,0.0
54,65.0,60,60,0.0,0.0
55,56.0,0,60,1.0,0.0
56,60.0,60,60,0.0,0.0
57,53.0,0,60,1.0,0.0
58,65.0,0,60,0.0,0.0
59,56.0,60,60,1.0,0.0
60,55.0,0,60,1.0,0.0
61,64.0,60,60,0.0,0.0
62,56.0,0,60,1.0,0.0
63,65.0,60,60,0.0,0.0
64,71.0,60,60,0.0,0.0
65,48.0,0,60,1.0,0.0
66,56.0,60,60,1.0,0.0
67,65.0,0,60,0.0,0.0
68,55.0,0,60,1.0,0.0
69,63.0,60,60,0.0,0.0
70,56.0,60,60,1.0,0.0
71,65.0,0,60,0.0,0.0
72,62.0,0,60,0.0,0.0
73,53.0,60,60,1.0,0.0
74,65.0,60,60,0.0,0.0
75,56.0,0,60,1.0,0.0
76,55.0,60,60,1.0,0.0
77,63.0,0,60,0.0,0.0
78,56.0,60,60,1.0,0.0
79,65.0,0,60,0.0,0.0
80,71.0,0,60,0.0,0.0
81,48.0,60,60,1.0,0.0
82,56.0,0,60,1.0,0.0
83,65.0,60,60,0.0,0.0
84,55.0,0,60,1.0,0.0
85,63.0,60,60,0.0,0.0
86,56.0,60,60,1.0,0.0
87,65.0,0,60,0.0,0.0
88,62.0,0,60,0.0,0.0
89,53.0,60,60,1.0,0.0
90,65.0,0,60,0.0,0.0
91,56.0,60,60,1.0,0.0
92,63.0,0,60,0.0,0.0
93,55.0,60,60,1.0,0.0
94,56.0,60,60,1.0,0.0
95,65.0,0,60,0.0,0.0
96,72.0,0,60,0.0,0.0
97,48.0,60,60,1.0,0.0
98,67.0,0,60,0.0,0.0
99,51.0,60,60,1.0,0.0
100,50.0,60,60,1.0,0.0
101,65.0,0,60,0.0,0.0
102,67.0,0,60,0.0,0.0
103,51.0,60,60,1.0,0.0
104,55.0,60,60,1.0,0.0
105,63.0,0,60,0.0,0.0
106,51.0,60,60,1.0,0.0
107,67.0,0,60,0.0,0.0
108,65.0,60,60,0.0,0.0
109,50.0,0,60,1.0,0.0
110,67.0,60,60,0.0,0.0
111,51.0,0,60,1.0,0.0
112,72.0,60,60,0.0,0.0
113,48.0,0,60,1.0,0.0
114,67.0,60,60,0.0,0.0
115,51.0,0,60,1.0,0.0
116,50.0,0,60,1.0,0.0
117,65.0,60,60,0.0,0.0
118,51.0,60,60,1.0,0.0
119,67.0,0,60,0.0,0.0
120,55.0,0,60,1.0,0.0
121,63.0,60,60,0.0,0.0
122,51.0,60,60,1.0,0.0
123,67.0,0,60,0.0,0.0
124,50.0,0,60,1.0,0.0
125,65.0,60,60,0.0,0.0
126,51.0,0,60,1.0,0.0
127,67.0,60,60,0.0,0.0
128,48.0,0,60,1.0,0.0
129,75.0,60,60,0.0,0.0
130,60.0,0,60,1.0,0.0
131,68.0,60,60,0.0,0.0
132,58.0,60,60,1.0,0.0
133,67.0,0,60,0.0,0.0
134,60.0,60,60,1.0,0.0
135,68.0,0,60,0.0,0.0
136,56.0,0,60,1.0,0.0
137,63.0,60,60,0.0,0.0
138,68.0,0,60,0.0,0.0
139,60.0,60,60,1.0,0.0
140,67.0,0,60,0.0,0.0
141,58.0,60,60,1.0,0.0
142,60.0,0,60,1.0,0.0
143,68.0,60,60,0.0,0.0
144,75.0,0,60,0.0,0.0
145,48.0,60,60,1.0,0.0
146,68.0,60,60,0.0,0.0
147,60.0,0,60,1.0,0.0
148,67.0,0,60,0.0,0.0
149,58.0,60,60,1.0,0.0
150,60.0,60,60,1.0,0.0
151,68.0,0,60,0.0,0.0
152,63.0,60,60,0.0,0.0
153,56.0,0,60,1.0,0.0
154,68.0,60,60,0.0,0.0
155,60.0,0,60,1.0,0.0
156,58.0,0,60,1.0,0.0
157,67.0,60,60,0.0,0.0
158,60.0,60,60,1.0,0.0
159,68.0,0,60,0.0,0.0
160,74.0,0,60,0.0,0.0
161,48.0,60,60,1.0,0.0
162,66.0,0,60,0.0,0.0
163,57.0,60,60,1.0,0.0
164,55.0,0,60,1.0,0.0
165,64.0,60,60,0.0,0.0
166,66.0,60,60,0.0,0.0
167,57.0,0,60,1.0,0.0
168,54.0,60,60,1.0,0.0
169,62.0,0,60,0.0,0.0
170,66.0,60,60,0.0,0.0
171,57.0,0,60,1.0,0.0
172,64.0,0,60,0.0,0.0
173,55.0,60,60,1.0,0.0
174,66.0,0,60,0.0,0.0
175,57.0,60,60,1.0,0.0
176,74.0,60,60,0.0,0.0
177,48.0,0,60,1.0,0.0
178,66.0,60,60,0.0,0.0
179,57.0,0,60,1.0,0.0
180,55.0,0,60,1.0,0.0
181,64.0,60,60,0.0,0.0
182,66.0,0,60,0.0,0.0
183,57.0,60,60,1.0,0.0
184,54.0,0,60,1.0,0.0
185,62.0,60,60,0.0,0.0
186,66.0,60,60,0.0,0.0
187,57.0,0,60,1.0,0.0
188,55.0,60,60,1.0,0.0
189,64.0,0,60,0.0,0.0
190,66.0,60,60,0.0,0.0
191,57.0,0,60,1.0,0.0
192,46.0,60,60,1.0,0.0
193,74.0,0,60,0.0,0.0
194,58.0,60,60,1.0,0.0
195,67.0,0,60,0.0,0.0
196,57.0,60,60,1.0,0.0
197,66.0,0,60,0.0,0.0
198,67.0,0,60,0.0,0.0
199,58.0,60,60,1.0,0.0
200,62.0,0,60,0.0,0.0
201,55.0,60,60,1.0,0.0
202,67.0,0,60,0.0,0.0
203,58.0,60,60,1.0,0.0
204,66.0,60,60,0.0,0.0
205,57.0,0,60,1.0,0.0
206,58.0,0,60,1.0,0.0
207,67.0,60,60,0.0,0.0
208,46.0,60,60,1.0,0.0
209,74.0,0,60,0.0,0.0
210,67.0,60,60,0.0,0.0
211,58.0,0,60,1.0,0.0
212,57.0,60,60,1.0,0.0
213,66.0,0,60,0.0,0.0
214,58.0,60,60,1.0,0.0
215,67.0,0,60,0.0,0.0
216,62.0,60,60,0.0,0.0
217,55.0,0,60,1.0,0.0
218,58.0,0,60,1.0,0.0
219,67.0,60,60,0.0,0.0
220,66.0,60,60,0.0,0.0
221,57.0,0,60,1.0,0.0
222,58.0,60,60,1.0,0.0
223,67.0,0,60,0.0,0.0
224,72.0,60,60,0.0,0.0
225,46.0,0,60,1.0,0.0
226,64.0,0,60,0.0,0.0
227,55.0,60,60,1.0,0.0
228,62.0,60,60,0.0,0.0
229,53.0,0,60,1.0,0.0
230,55.0,0,60,1.0,0.0
231,64.0,60,60,0.0,0.0
232,52.0,0,60,1.0,0.0
233,60.0,60,60,0.0,0.0
234,64.0,60,60,0.0,0.0
235,55.0,0,60,1.0,0.0
236,62.0,0,60,0.0,0.0
237,53.0,60,60,1.0,0.0
238,64.0,60,60,0.0,0.0
239,55.0,0,60,1.0,0.0
240,72.0,60,60,0.0,0.0
241,46.0,0,60,1.0,0.0
242,55.0,60,60,1.0,0.0
243,64.0,0,60,0.0,0.0
244,62.0,60,60,0.0,0.0
245,53.0,0,60,1.0,0.0
246,55.0,60,60,1.0,0.0
247,64.0,0,60,0.0,0.0
248,60.0,60,60,0.0,0.0
249,52.0,0,60,1.0,0.0
250,55.0,60,60,1.0,0.0
251,64.0,0,60,0.0,0.0
252,53.0,60,60,1.0,0.0
253,62.0,0,60,0.0,0.0
254,64.0,0,60,0.0,0.0
255,55.0,60,60,1.0,0.0
256,72.0,60,60,0.0,0.0
257,44.0,0,60,1.0,0.0
258,65.0,0,60,0.0,0.0
259,56.0,60,60,1.0,0.0
260,64.0,0,60,0.0,0.0
261,55.0,60,60,1.0,0.0
262,65.0,0,60,0.0,0.0
263,56.0,60,60,1.0,0.0
264,60.0,0,60,0.0,0.0
265,53.0,60,60,1.0,0.0
266,65.0,0,60,0.0,0.0
267,56.0,60,60,1.0,0.0
268,64.0,0,60,0.0,0.0
269,55.0,60,60,1.0,0.0
270,65.0,60,60,0.0,0.0
271,56.0,0,60,1.0,0.0
272,72.0,60,60,0.0,0.0
273,44.0,0,60,1.0,0.0
274,65.0,0,60,0.0,0.0
275,56.0,60,60,1.0,0.0
276,64.0,0,60,0.0,0.0
277,55.0,60,60,1.0,0.0
278,65.0,60,60,0.0,0.0
279,56.0,0,60,1.0,0.0
280,53.0,0,60,1.0,0.0
281,60.0,60,60,0.0,0.0
282,65.0,0,60,0.0,0.0
283,56.0,60,60,1.0,0.0
284,64.0,0,60,0.0,0.0
285,55.0,60,60,1.0,0.0
286,65.0,60,60,0.0,0.0
287,56.0,0,60,1.0,0.0
288,44.0,60,60,1.0,0.0
289,70.0,0,60,0.0,0.0
290,65.0,0,60,0.0,0.0
291,50.0,60,60,1.0,0.0
292,48.0,0,60,1.0,0.0
293,63.0,60,60,0.0,0.0
294,50.0,60,60,1.0,0.0
295,65.0,0,60,0.0,0.0
296,62.0,60,60,0.0,0.0
297,53.0,0,60,1.0,0.0
298,50.0,60,60,1.0,0.0
299,65.0,0,60,0.0,0.0
300,63.0,60,60,0.0,0.0
301,48.0,0,60,1.0,0.0
302,50.0,0,60,1.0,0.0
303,65.0,60,60,0.0,0.0
304,70.0,0,60,0.0,0.0
305,44.0,60,60,1.0,0.0
306,50.0,0,60,1.0,0.0
307,65.0,60,60,0.0,0.0
308,48.0,60,60,1.0,0.0
309,63.0,0,60,0.0,0.0
310,50.0,0,60,1.0,0.0
311,65.0,60,60,0.0,0.0
312,53.0,0,60,1.0,0.0
313,62.0,60,60,0.0,0.0
314,50.0,0,60,1.0,0.0
315,65.0,60,60,0.0,0.0
316,63.0,0,60,0.0,0.0
317,48.0,60,60,1.0,0.0
318,65.0,0,60,0.0,0.0
319,50.0,60,60,1.0,0.0
320,70.0,60,60,0.0,0.0
321,43.0,0,60,1.0,0.0
322,51.0,60,60,1.0,0.0
323,67.0,0,60,0.0,0.0
324,65.0,0,60,0.0,0.0
325,50.0,60,60,1.0,0.0
326,51.0,60,60,1.0,0.0
327,67.0,0,60,0.0,0.0
328,63.0,60,60,0.0,0.0
329,55.0,0,60,1.0,0.0
330,51.0,0,60,1.0,0.0
331,67.0,60,60,0.0,0.0
332,50.0,60,60,1.0,0.0
333,65.0,0,60,0.0,0.0
334,67.0,0,60,0.0,0.0
335,51.0,60,60,1.0,0.0
336,70.0,0,60,0.0,0.0
337,43.0,60,60,1.0,0.0
338,51.0,0,60,1.0,0.0
339,67.0,60,60,0.0,0.0
340,50.0,0,60,1.0,0.0
341,65.0,60,60,0.0,0.0
342,67.0,60,60,0.0,0.0
343,51.0,0,60,1.0,0.0
344,63.0,60,60,0.0,0.0
345,55.0,0,60,1.0,0.0
346,51.0,0,60,1.0,0.0
347,67.0,60,60,0.0,0.0
348,50.0,0,60,1.0,0.0
349,65.0,60,60,0.0,0.0
350,51.0,60,60,1.0,0.0
351,67.0,0,60,0.0,0.0
352,68.0,0,60,0.0,0.0
353,48.0,60,60,1.0,0.0
354,67.0,0,60,0.0,0.0
355,51.0,60,60,1.0,0.0
356,50.0,0,60,1.0,0.0
357,65.0,60,60,0.0,0.0
358,51.0,60,60,1.0,0.0
359,67.0,0,60,0.0,0.0
360,56.0,0,60,1.0,0.0
361,63.0,60,60,0.0,0.0
362,67.0,60,60,0.0,0.0
363,51.0,0,60,1.0,0.0
364,65.0,0,60,0.0,0.0
365,50.0,60,60,1.0,0.0
366,67.0,0,60,0.0,0.0
367,51.0,60,60,1.0,0.0
368,68.0,0,60,0.0,0.0
369,48.0,60,60,1.0,0.0
370,67.0,60,60,0.0,0.0
371,51.0,0,60,1.0,0.0
372,50.0,0,60,1.0,0.0
373,65.0,60,60,0.0,0.0
374,51.0,0,60,1.0,0.0
375,67.0,60,60,0.0,0.0
376,63.0,60,60,0.0,0.0
377,56.0,0,60,1.0,0.0
378,67.0,60,60,0.0,0.0
379,51.0,0,60,1.0,0.0
380,50.0,60,60,1.0,0.0
381,65.0,0,60,0.0,0.0
382,51.0,60,60,1.0,0.0
383,67.0,0,60,0.0,0.0
384,68.0,0,60,0.0,0.0
385,50.0,60,60,1.0,0.0
386,62.0,0,60,0.0,0.0
387,53.0,60,60,1.0,0.0
388,51.0,60,60,1.0,0.0
389,60.0,0,60,0.0,0.0
390,53.0,60,60,1.0,0.0
391,62.0,0,60,0.0,0.0
392,56.0,60,60,1.0,0.0
393,58.0,0,60,0.0,0.0
394,62.0,0,60,0.0,0.0
395,53.0,60,60,1.0,0.0
396,60.0,60,60,0.0,0.0
397,51.0,0,60,1.0,0.0
398,62.0,60,60,0.0,0.0
399,53.0,0,60,1.0,0.0
400,50.0,0,60,1.0,0.0
401,68.0,60,60,0.0,0.0
402,53.0,0,60,1.0,0.0
403,62.0,60,60,0.0,0.0
404,51.0,60,60,1.0,0.0
405,60.0,0,60,0.0,0.0
406,53.0,0,60,1.0,0.0
407,62.0,60,60,0.0,0.0
408,58.0,0,60,0.0,0.0
409,56.0,60,60,1.0,0.0
410,53.0,60,60,1.0,0.0
411,62.0,0,60,0.0,0.0
412,60.0,60,60,0.0,0.0
413,51.0,0,60,1.0,0.0
414,53.0,60,60,1.0,0.0
415,62.0,0,60,0.0,0.0
416,51.0,60,60,1.0,0.0
417,67.0,0,60,0.0,0.0
418,58.0,60,60,0.0,0.0
419,55.0,0,60,1.0,0.0
420,53.0,0,60,1.0,0.0
421,56.0,60,60,0.0,0.0
422,55.0,0,60,1.0,0.0
423,58.0,60,60,0.0,0.0
424,63.0,0,60,0.0,0.0
425,56.0,60,60,1.0,0.0
426,58.0,60,60,0.0,0.0
427,55.0,0,60,1.0,0.0
428,53.0,0,60,1.0,0.0
429,56.0,60,60,0.0,0.0
430,55.0,0,60,1.0,0.0
431,58.0,60,60,0.0,0.0
432,51.0,0,60,1.0,0.0
433,67.0,60,60,0.0,0.0
434,55.0,0,60,1.0,0.0
435,58.0,60,60,0.0,0.0
436,56.0,0,60,0.0,0.0
437,53.0,60,60,1.0,0.0
438,55.0,60,60,1.0,0.0
439,58.0,0,60,0.0,0.0
440,56.0,60,60,1.0,0.0
441,63.0,0,60,0.0,0.0
442,55.0,0,60,1.0,0.0
443,58.0,60,60,0.0,0.0
444,53.0,60,60,1.0,0.0
445,56.0,0,60,0.0,0.0
446,55.0,0,60,1.0,0.0
447,58.0,60,60,0.0,0.0
448,65.0,60,60,0.0,0.0
449,51.0,0,60,1.0,0.0
450,60.0,60,60,0.0,0.0
451,57.0,0,60,1.0,0.0
452,55.0,60,60,1.0,0.0
453,58.0,0,60,0.0,0.0
454,60.0,0,60,0.0,0.0
455,57.0,60,60,1.0,0.0
456,57.0,0,60,0.0,0.0
457,53.0,60,60,1.0,0.0
458,57.0,60,60,1.0,0.0
459,60.0,0,60,0.0,0.0
460,55.0,0,60,1.0,0.0
461,58.0,60,60,0.0,0.0
462,60.0,60,60,0.0,0.0
463,57.0,0,60,1.0,0.0
464,51.0,60,60,1.0,0.0
465,65.0,0,60,0.0,0.0
466,60.0,0,60,0.0,0.0
467,57.0,60,60,1.0,0.0
468,58.0,0,60,0.0,0.0
469,55.0,60,60,1.0,0.0
470,60.0,0,60,0.0,0.0
471,57.0,60,60,1.0,0.0
472,53.0,0,60,1.0,0.0
473,57.0,60,60,0.0,0.0
474,57.0,0,60,1.0,0.0
475,60.0,60,60,0.0,0.0
476,55.0,60,60,1.0,0.0
477,58.0,0,60,0.0,0.0
478,60.0,60,60,0.0,0.0
479,57.0,0,60,1.0,0.0
480,65.0,0,60,0.0,0.0
481,50.0,60,60,1.0,0.0
482,62.0,60,60,0.0,0.0
483,53.0,0,60,1.0,0.0
484,60.0,60,60,0.0,0.0
485,51.0,0,60,1.0,0.0
486,53.0,60,60,1.0,0.0
487,62.0,0,60,0.0,0.0
488,59.0,60,60,0.0,0.0
489,56.0,0,60,1.0,0.0
490,53.0,0,60,1.0,0.0
491,62.0,60,60,0.0,0.0
492,51.0,0,60,1.0,0.0
493,60.0,60,60,0.0,0.0
494,53.0,60,60,1.0,0.0
495,62.0,0,60,0.0,0.0
496,65.0,0,60,0.0,0.0
497,50.0,60,60,1.0,0.0
498,62.0,0,60,0.0,0.0
499,53.0,60,60,1.0,0.0
500,60.0,0,60,0.0,0.0
501,51.0,60,60,1.0,0.0
502,62.0,60,60,0.0,0.0
503,53.0,0,60,1.0,0.0
504,59.0,0,60,0.0,0.0
505,56.0,60,60,1.0,0.0
506,53.0,0,60,1.0,0.0
507,62.0,60,60,0.0,0.0
508,60.0,0,60,0.0,0.0
509,51.0,60,60,1.0,0.0
510,53.0,0,60,1.0,0.0
511,62.0,60,60,0.0,0.0
512,65.0,60,60,0.0,0.0
513,48.0,0,60,1.0,0.0
514,62.0,60,60,0.0,0.0
515,53.0,0,60,1.0,0.0
516,52.0,0,60,1.0,0.0
517,60.0,60,60,0.0,0.0
518,62.0,0,60,0.0,0.0
519,53.0,60,60,1.0,0.0
520,59.0,0,60,0.0,0.0
521,56.0,60,60,1.0,0.0
522,53.0,0,60,1.0,0.0
523,62.0,60,60,0.0,0.0
524,52.0,60,60,1.0,0.0
525,60.0,0,60,0.0,0.0
526,53.0,0,60,1.0,0.0
527,62.0,60,60,0.0,0.0
528,48.0,60,60,1.0,0.0
529,65.0,0,60,0.0,0.0
530,62.0,0,60,0.0,0.0
531,53.0,60,60,1.0,0.0
532,52.0,60,60,1.0,0.0
533,60.0,0,60,0.0,0.0
534,62.0,60,60,0.0,0.0
535,53.0,0,60,1.0,0.0
536,56.0,60,60,1.0,0.0
537,59.0,0,60,0.0,0.0
538,62.0,0,60,0.0,0.0
539,53.0,60,60,1.0,0.0
540,60.0,60,60,0.0,0.0
541,52.0,0,60,1.0,0.0
542,53.0,60,60,1.0,0.0
543,62.0,0,60,0.0,0.0
544,63.0,0,60,0.0,0.0
545,48.0,60,60,1.0,0.0
546,51.0,0,60,1.0,0.0
547,60.0,60,60,0.0,0.0
548,50.0,60,60,1.0,0.0
549,59.0,0,60,0.0,0.0
550,51.0,0,60,1.0,0.0
551,60.0,60,60,0.0,0.0
552,53.0,60,60,1.0,0.0
553,55.0,0,60,0.0,0.0
554,60.0,0,60,0.0,0.0
555,51.0,60,60,1.0,0.0
556,59.0,0,60,0.0,0.0
557,50.0,60,60,1.0,0.0
558,51.0,0,60,1.0,0.0
559,60.0,60,60,0.0,0.0
560,63.0,0,60,0.0,0.0
561,46.0,60,60,1.0,0.0
562,51.0,0,60,1.0,0.0
563,60.0,60,60,0.0,0.0
564,50.0,60,60,1.0,0.0
565,59.0,0,60,0.0,0.0
566,51.0,0,60,1.0,0.0
567,60.0,60,60,0.0,0.0
568,53.0,0,60,1.0,0.0
569,55.0,60,60,0.0,0.0
570,60.0,60,60,0.0,0.0
571,51.0,0,60,1.0,0.0
572,59.0,60,60,0.0,0.0
573,50.0,0,60,1.0,0.0
574,60.0,0,60,0.0,0.0
575,51.0,60,60,1.0,0.0
576,53.0,60,60,0.0,0.0
577,44.0,0,60,1.0,0.0
578,63.0,0,60,0.0,0.0
579,48.0,60,60,1.0,0.0
580,62.0,0,60,0.0,0.0
581,47.0,60,60,1.0,0.0
582,63.0,60,60,0.0,0.0
583,48.0,0,60,1.0,0.0
584,65.0,60,60,0.0,0.0
585,50.0,0,60,1.0,0.0
586,48.0,0,60,1.0,0.0
587,63.0,60,60,0.0,0.0
588,62.0,0,60,0.0,0.0
589,47.0,60,60,1.0,0.0
590,48.0,60,60,1.0,0.0
591,63.0,0,60,0.0,0.0
592,53.0,60,60,0.0,0.0
593,44.0,0,60,1.0,0.0
594,63.0,60,60,0.0,0.0
595,48.0,0,60,1.0,0.0
596,47.0,0,60,1.0,0.0
597,62.0,60,60,0.0,0.0
598,63.0,0,60,0.0,0.0
599,48.0,60,60,1.0,0.0
600,50.0,60,60,1.0,0.0
601,65.0,0,60,0.0,0.0
602,48.0,60,60,1.0,0.0
603,63.0,0,60,0.0,0.0
604,62.0,0,60,0.0,0.0
605,47.0,60,60,1.0,0.0
606,63.0,60,60,0.0,0.0
607,48.0,0,60,1.0,0.0
608,54.0,60,60,0.0,0.0
609,45.0,0,60,1.0,0.0
610,60.0,60,60,0.0,0.0
611,51.0,0,60,1.0,0.0
612,59.0,60,60,0.0,0.0
613,50.0,0,60,1.0,0.0
614,51.0,60,60,1.0,0.0
615,60.0,0,60,0.0,0.0
616,63.0,60,60,0.0,0.0
617,48.0,0,60,1.0,0.0
618,51.0,0,60,1.0,0.0
619,60.0,60,60,0.0,0.0
620,50.0,0,60,1.0,0.0
621,59.0,60,60,0.0,0.0
622,60.0,60,60,0.0,0.0
623,51.0,0,60,1.0,0.0
624,45.0,60,60,1.0,0.0
625,54.0,0,60,0.0,0.0
626,51.0,0,60,1.0,0.0
627,60.0,60,60,0.0,0.0
628,59.0,0,60,0.0,0.0
629,50.0,60,60,1.0,0.0
630,60.0,0,60,0.0,0.0
631,51.0,60,60,1.0,0.0
632,63.0,60,60,0.0,0.0
633,48.0,0,60,1.0,0.0
634,60.0,0,60,0.0,0.0
635,51.0,60,60,1.0,0.0
636,59.0,0,60,0.0,0.0
637,50.0,60,60,1.0,0.0
638,51.0,0,60,1.0,0.0
639,60.0,60,60,0.0,0.0
640,63.0,60,60,0.0,0.0
641,43.0,0,60,1.0,0.0
642,51.0,0,60,1.0,0.0
643,60.0,60,60,0.0,0.0
644,50.0,0,60,1.0,0.0
645,59.0,60,60,0.0,0.0
646,60.0,0,60,0.0,0.0
647,51.0,60,60,1.0,0.0
648,55.0,60,60,0.0,0.0
649,53.0,0,60,1.0,0.0
650,51.0,0,60,1.0,0.0
651,60.0,60,60,0.0,0.0
652,50.0,0,60,1.0,0.0
653,59.0,60,60,0.0,0.0
654,60.0,0,60,0.0,0.0
655,51.0,60,60,1.0,0.0
656,63.0,0,60,0.0,0.0
657,43.0,60,60,1.0,0.0
658,60.0,60,60,0.0,0.0
659,51.0,0,60,1.0,0.0
660,59.0,60,60,0.0,0.0
661,50.0,0,60,1.0,0.0
662,60.0,0,60,0.0,0.0
663,51.0,60,60,1.0,0.0
664,53.0,60,60,1.0,0.0
665,55.0,0,60,0.0,0.0
666,60.0,0,60,0.0,0.0
667,51.0,60,60,1.0,0.0
668,59.0,0,60,0.0,0.0
669,50.0,60,60,1.0,0.0
670,51.0,0,60,1.0,0.0
671,60.0,60,60,0.0,0.0
672,66.0,60,60,0.0,0.0
673,43.0,0,60,1.0,0.0
674,60.0,0,60,0.0,0.0
675,51.0,60,60,1.0,0.0
676,59.0,60,60,0.0,0.0
677,50.0,0,60,1.0,0.0
678,60.0,0,60,0.0,0.0
679,51.0,60,60,1.0,0.0
680,48.0,0,60,1.0,0.0
681,57.0,60,60,0.0,0.0
682,60.0,60,60,0.0,0.0
683,51.0,0,60,1.0,0.0
684,50.0,0,60,1.0,0.0
685,59.0,60,60,0.0,0.0
686,51.0,60,60,1.0,0.0
687,60.0,0,60,0.0,0.0
688,66.0,60,60,0.0,0.0
689,43.0,0,60,1.0,0.0
690,60.0,0,60,0.0,0.0
691,51.0,60,60,1.0,0.0
692,50.0,60,60,1.0,0.0
693,59.0,0,60,0.0,0.0
694,51.0,0,60,1.0,0.0
695,60.0,60,60,0.0,0.0
696,57.0,0,60,0.0,0.0
697,48.0,60,60,1.0,0.0
698,60.0,0,60,0.0,0.0
699,51.0,60,60,1.0,0.0
700,50.0,60,60,1.0,0.0
701,59.0,0,60,0.0,0.0
702,60.0,0,60,0.0,0.0
703,51.0,60,60,1.0,0.0
704,67.0,0,60,0.0,0.0
705,43.0,60,60,1.0,0.0
706,51.0,0,60,1.0,0.0
707,60.0,60,60,0.0,0.0
708,50.0,0,60,1.0,0.0
709,59.0,60,60,0.0,0.0
710,51.0,0,60,1.0,0.0
711,60.0,60,60,0.0,0.0
712,53.0,60,60,1.0,0.0
713,62.0,0,60,0.0,0.0
714,60.0,0,60,0.0,0.0
715,51.0,60,60,1.0,0.0
716,59.0,0,60,0.0,0.0
717,50.0,60,60,1.0,0.0
718,60.0,60,60,0.0,0.0
719,51.0,0,60,1.0,0.0
720,43.0,0,60,1.0,0.0
721,67.0,60,60,0.0,0.0
722,51.0,60,60,1.0,0.0
723,60.0,0,60,0.0,0.0
724,59.0,0,60,0.0,0.0
725,50.0,60,60,1.0,0.0
726,60.0,60,60,0.0,0.0
727,51.0,0,60,1.0,0.0
728,53.0,0,60,1.0,0.0
729,62.0,60,60,0.0,0.0
730,51.0,60,60,1.0,0.0
731,60.0,0,60,0.0,0.0
732,50.0,60,60,1.0,0.0
733,59.0,0,60,0.0,0.0
734,60.0,60,60,0.0,0.0
735,51.0,0,60,1.0,0.0
736,68.0,0,60,0.0,0.0
737,43.0,60,60,1.0,0.0
738,60.0,0,60,0.0,0.0
739,51.0,60,60,1.0,0.0
740,59.0,0,60,0.0,0.0
741,50.0,60,60,1.0,0.0
742,60.0,0,60,0.0,0.0
743,51.0,60,60,1.0,0.0
744,53.0,60,60,1.0,0.0
745,62.0,0,60,0.0,0.0
746,51.0,60,60,1.0,0.0
747,60.0,0,60,0.0,0.0
748,50.0,0,60,1.0,0.0
749,59.0,60,60,0.0,0.0
750,51.0,60,60,1.0,0.0
751,60.0,0,60,0.0,0.0
752,68.0,60,60,0.0,0.0
753,43.0,0,60,1.0,0.0
754,51.0,60,60,1.0,0.0
755,60.0,0,60,0.0,0.0
756,59.0,0,60,0.0,0.0
757,50.0,60,60,1.0,0.0
758,60.0,0,60,0.0,0.0
759,51.0,60,60,1.0,0.0
760,62.0,0,60,0.0,0.0
761,53.0,60,60,1.0,0.0
762,60.0,0,60,0.0,0.0
763,51.0,60,60,1.0,0.0
764,59.0,0,60,0.0,0.0
765,50.0,60,60,1.0,0.0
766,51.0,0,60,1.0,0.0
767,60.0,60,60,0.0,0.0
768,43.0,60,60,1.0,0.0
769,47.0,60,60,1.0,0.0
770,50.0,60,60,1.0,0.0
771,53.0,60,60,0.0,0.0
772,56.0,60,60,0.0,0.0
773,53.0,60,60,0.0,0.0
774,52.0,60,60,0.0,0.0
775,53.0,60,60,0.0,0.0
776,59.0,60,60,0.0,0.0
777,53.0,60,60,0.0,0.0
778,62.0,60,60,0.0,0.0
779,59.0,60,60,0.0,0.0
780,56.0,60,60,0.0,0.0
781,53.0,60,60,0.0,0.0
782,52.0,60,60,0.0,0.0
783,53.0,60,60,0.0,0.0
784,43.0,60,60,1.0,0.0
785,48.0,60,60,1.0,0.0
786,51.0,60,60,1.0,0.0
787,55.0,60,60,0.0,0.0
788,60.0,60,60,0.0,0.0
789,55.0,60,60,0.0,0.0
790,54.0,60,60,0.0,0.0
791,55.0,60,60,0.0,0.0
792,63.0,60,60,0.0,0.0
793,60.0,60,60,0.0,0.0
794,67.0,60,60,0.0,0.0
795,63.0,60,60,0.0,0.0
796,60.0,60,60,0.0,0.0
797,56.0,60,60,0.0,0.0
798,55.0,60,60,0.0,0.0
799,56.0,60,60,0.0,0.0
800,43.0,60,60,1.0,0.0
801,45.0,60,60,1.0,0.0
802,54.0,60,60,1.0,0.0
803,60.0,60,60,0.0,0.0
804,63.0,60,60,0.0,0.0
805,60.0,60,60,0.0,0.0
806,59.0,60,60,0.0,0.0
807,60.0,60,60,0.0,0.0
808,66.0,60,60,0.0,0.0
809,60.0,60,60,0.0,0.0
810,69.0,60,60,0.0,0.0
811,66.0,60,60,0.0,0.0
812,63.0,60,60,0.0,0.0
813,60.0,60,60,0.0,0.0
814,59.0,60,60,0.0,0.0
815,60.0,120,60,0.0,0.0
816,43.0,1,1020,1.0,0.0
817,74.0,60,60,0.0,0.0
818,72.0,60,60,0.0,0.0
819,74.0,60,60,0.0,0.0
820,75.0,60,60,0.0,0.0
821,72.0,60,60,0.0,0.0
822,71.0,60,60,0.0,0.0
823,72.0,60,60,0.0,0.0
824,69.0,60,60,0.0,0.0
825,72.0,60,60,0.0,0.0
826,71.0,60,60,0.0,0.0
827,72.0,60,60,0.0,0.0
828,74.0,60,60,0.0,0.0
829,71.0,60,60,0.0,0.0
830,69.0,60,60,0.0,0.0
831,71.0,59,60,0.0,0.0
832,67.0,60,60,0.0,0.0
833,62.0,60,60,1.0,0.0
834,71.0,0,60,0.0,0.0
835,69.0,60,60,0.0,0.0
836,60.0,0,60,1.0,0.0
837,62.0,0,60,1.0,0.0
838,71.0,60,60,0.0,0.0
839,72.0,0,60,0.0,0.0
840,63.0,60,60,1.0,0.0
841,60.0,60,60,1.0,0.0
842,69.0,0,60,0.0,0.0
843,67.0,0,60,0.0,0.0
844,59.0,60,60,1.0,0.0
845,69.0,0,60,0.0,0.0
846,60.0,60,60,1.0,0.0
847,66.0,0,60,0.0,0.0
848,57.0,60,60,1.0,0.0
849,69.0,0,60,0.0,0.0
850,60.0,60,60,1.0,0.0
851,67.0,60,60,0.0,0.0
852,59.0,0,60,1.0,0.0
853,69.0,0,60,0.0,0.0
854,60.0,60,60,1.0,0.0
855,62.0,0,60,1.0,0.0
856,71.0,60,60,0.0,0.0
857,67.0,0,60,0.0,0.0
858,59.0,60,60,1.0,0.0
859,66.0,60,60,0.0,0.0
860,57.0,0,60,1.0,0.0
861,59.0,0,60,1.0,0.0
862,67.0,60,60,0.0,0.0
863,55.0,0,60,1.0,0.0
864,62.0,60,60,0.0,0.0
865,59.0,60,60,1.0,0.0
866,79.0,0,60,0.0,0.0
867,77.0,0,60,0.0,0.0
868,57.0,60,60,1.0,0.0
869,79.0,0,60,0.0,0.0
870,59.0,60,60,1.0,0.0
871,60.0,0,60,1.0,0.0
872,80.0,60,60,0.0,0.0
873,56.0,60,60,1.0,0.0
874,77.0,0,60,0.0,0.0
875,75.0,60,60,0.0,0.0
876,55.0,0,60,1.0,0.0
877,56.0,0,60,1.0,0.0
878,77.0,60,60,0.0,0.0
879,74.0,60,60,0.0,0.0
880,53.0,0,60,1.0,0.0
881,57.0,60,60,1.0,0.0
882,77.0,0,60,0.0,0.0
883,75.0,0,60,0.0,0.0
884,55.0,60,60,1.0,0.0
885,57.0,0,60,1.0,0.0
886,77.0,60,60,0.0,0.0
887,59.0,0,60,1.0,0.0
888,79.0,60,60,0.0,0.0
889,55.0,60,60,1.0,0.0
890,75.0,0,60,0.0,0.0
891,74.0,0,60,0.0,0.0
892,53.0,60,60,1.0,0.0
893,55.0,60,60,1.0,0.0
894,75.0,0,60,0.0,0.0
895,72.0,60,60,0.0,0.0
896,51.0,0,60,1.0,0.0
897,75.0,0,60,0.0,0.0
898,67.0,60,60,1.0,0.0
899,74.0,60,60,0.0,0.0
900,65.0,0,60,1.0,0.0
901,75.0,0,60,0.0,0.0
902,67.0,60,60,1.0,0.0
903,77.0,0,60,0.0,0.0
904,68.0,60,60,1.0,0.0
905,74.0,4,60,0.0,0.0
906,65.0,56,60,1.0,0.0
907,63.0,60,60,1.0,0.0
908,72.0,0,60,0.0,0.0
909,74.0,0,60,0.0,0.0
910,65.0,60,60,1.0,0.0
911,71.0,0,60,0.0,0.0
912,62.0,60,60,1.0,0.0
913,65.0,60,60,1.0,0.0
914,74.0,0,60,0.0,0.0
915,63.0,0,60,1.0,0.0
916,72.0,60,60,0.0,0.0
917,74.0,60,60,0.0,0.0
918,65.0,0,60,1.0,0.0
919,75.0,0,60,0.0,0.0
920,67.0,60,60,1.0,0.0
921,63.0,0,60,1.0,0.0
922,72.0,60,60,0.0,0.0
923,62.0,0,60,1.0,0.0
924,70.0,60,60,0.0,0.0
925,63.0,60,60,1.0,0.0
926,72.0,0,60,0.0,0.0
927,60.0,60,60,1.0,0.0
928,67.0,0,60,0.0,0.0
929,63.0,0,60,1.0,0.0
930,72.0,60,60,0.0,0.0
931,62.0,60,60,1.0,0.0
932,71.0,0,60,0.0,0.0
933,72.0,0,60,0.0,0.0
934,63.0,60,60,1.0,0.0
935,68.0,0,60,0.0,0.0
936,65.0,60,60,1.0,0.0
937,77.0,0,60,0.0,0.0
938,62.0,60,60,1.0,0.0
939,60.0,0,60,1.0,0.0
940,75.0,60,60,0.0,0.0
941,62.0,0,60,1.0,0.0
942,77.0,60,60,0.0,0.0
943,63.0,0,60,1.0,0.0
944,67.0,60,60,0.0,0.0
945,75.0,60,60,0.0,0.0
946,60.0,0,60,1.0,0.0
947,74.0,0,60,0.0,0.0
948,59.0,60,60,1.0,0.0
949,60.0,0,60,1.0,0.0
950,75.0,60,60,0.0,0.0
951,65.0,0,60,0.0,0.0
952,62.0,60,60,1.0,0.0
953,74.0,0,60,0.0,0.0
954,59.0,60,60,1.0,0.0
955,72.0,0,60,0.0,0.0
956,57.0,60,60,1.0,0.0
957,74.0,0,60,0.0,0.0
958,59.0,60,60,1.0,0.0
959,63.0,0,60,0.0,0.0
960,60.0,60,60,1.0,0.0
961,72.0,60,60,0.0,0.0
962,63.0,0,60,1.0,0.0
963,71.0,60,60,0.0,0.0
964,62.0,0,60,1.0,0.0
965,63.0,60,60,1.0,0.0
966,72.0,0,60,0.0,0.0
967,68.0,0,60,0.0,0.0
968,53.0,60,60,1.0,0.0
969,65.0,60,60,0.0,0.0
970,62.0,0,60,1.0,0.0
971,60.0,0,60,1.0,0.0
972,63.0,60,60,0.0,0.0
973,62.0,60,60,1.0,0.0
974,65.0,0,60,0.0,0.0
975,67.0,60,60,0.0,0.0
976,51.0,0,60,1.0,0.0
977,60.0,0,60,1.0,0.0
978,63.0,60,60,0.0,0.0
979,59.0,0,60,1.0,0.0
980,62.0,60,60,0.0,0.0
981,60.0,0,60,1.0,0.0
982,63.0,60,60,0.0,0.0
983,50.0,60,60,1.0,0.0
984,65.0,0,60,0.0,0.0
985,59.0,0,60,1.0,0.0
986,62.0,60,60,0.0,0.0
987,57.0,60,60,1.0,0.0
988,60.0,0,60,0.0,0.0
989,62.0,0,60,0.0,0.0
990,59.0,150,60,1.0,0.0
991,48.0,0,240,1.0,0.0
992,55.0,0,240,1.0,0.0
993,58.0,0,240,1.0,0.0
994,64.0,30,120,0.0,0.0
995,60.0,30,30,0.0,0.0
996,62.0,30,30,0.0,0.0
997,64.0,0,30,0.0,0.0
998,65.0,16,15,0.0,0.0
999,67.0,14,15,0.0,0.0
1000,68.0,16,15,0.0,0.0
1001,70.0,14,15,0.0,0.0
1002,72.0,16,15,0.0,0.0
1003,70.0,14,15,0.0,0.0
1004,68.0,16,15,0.0,0.0
1005,67.0,59,15,0.0,0.0
1006,65.0,30,60,0.0,0.0
1007,67.0,30,30,0.0,0.0
1008,64.0,10,30,0.0,0.0
1009,48.0,30,240,1.0,0.0
1010,65.0,10,15,0.0,0.0
1011,53.0,0,240,1.0,0.0
1012,56.0,0,240,1.0,0.0
1013,64.0,130,15,0.0,0.0
1014,60.0,0,240,0.0,0.0
1015,65.0,30,120,0.0,0.0
1016,67.0,30,30,0.0,0.0
1017,65.0,30,30,0.0,0.0
1018,64.0,0,30,0.0,0.0
1019,65.0,30,30,0.0,0.0
1020,67.0,30,30,0.0,0.0
1021,68.0,30,30,0.0,0.0
1022,67.0,15,30,0.0,0.0
1023,65.0,15,15,0.0,0.0
1024,63.0,15,15,0.0,0.0
1025,62.0,15,15,0.0,0.0
1026,63.0,15,15,0.0,0.0
1027,65.0,15,15,0.0,0.0
1028,62.0,15,15,0.0,0.0
1029,63.0,15,15,0.0,0.0
1030,65.0,180,15,0.0,0.0
1031,59.0,60,180,0.0,0.0
1032,36.0,0,900,1.0,0.0
1033,47.0,0,840,1.0,0.0
1034,50.0,60,60,0.0,0.0
1035,53.0,60,60,0.0,0.0
1036,56.0,60,60,0.0,0.0
1037,55.0,60,60,0.0,0.0
1038,53.0,60,60,0.0,0.0
1039,59.0,60,60,0.0,0.0
1040,53.0,60,60,0.0,0.0
1041,62.0,60,60,0.0,0.0
1042,53.0,60,60,0.0,0.0
1043,59.0,60,60,0.0,0.0
1044,56.0,60,60,0.0,0.0
1045,55.0,60,60,0.0,0.0
1046,53.0,60,60,0.0,0.0
1047,52.0,60,60,0.0,0.0
1048,61.0,60,60,0.0,0.0
1049,58.0,60,60,0.0,0.0
1050,55.0,60,60,0.0,0.0
1051,60.0,60,60,0.0,0.0
1052,56.0,60,60,0.0,0.0
1053,53.0,60,60,0.0,0.0
1054,56.0,60,60,0.0,0.0
1055,55.0,60,60,0.0,0.0
1056,58.0,60,60,0.0,0.0
1057,55.0,60,60,0.0,0.0
1058,52.0,60,60,0.0,0.0
1059,56.0,60,60,0.0,0.0
1060,53.0,60,60,0.0,0.0
1061,50.0,60,60,0.0,0.0
1062,53.0,60,60,0.0,0.0
1063,52.0,60,60,0.0,0.0
1064,55.0,60,60,0.0,0.0
1065,52.0,60,60,0.0,0.0
1066,48.0,60,60,0.0,0.0
1067,53.0,60,60,0.0,0.0
1068,50.0,60,60,0.0,0.0
1069,47.0,60,60,0.0,0.0
1070,50.0,240,60,0.0,0.0
1071,36.0,6,1920,1.0,0.0
1072,43.0,0,1860,1.0,0.0
1073,48.0,0,1800,1.0,0.0
1074,50.0,60,60,0.0,0.0
1075,52.0,60,60,0.0,0.0
1076,55.0,60,60,0.0,0.0
1077,58.0,60,60,0.0,0.0
1078,55.0,60,60,0.0,0.0
1079,56.0,60,60,0.0,0.0
1080,60.0,60,60,0.0,0.0
1081,65.0,60,60,0.0,0.0
1082,62.0,60,60,0.0,0.0
1083,65.0,60,60,0.0,0.0
1084,68.0,60,60,0.0,0.0
1085,72.0,60,60,0.0,0.0
1086,71.0,60,60,0.0,0.0
1087,72.0,60,60,0.0,0.0
1088,67.0,60,60,0.0,0.0
1089,65.0,60,60,0.0,0.0
1090,62.0,30,60,0.0,0.0
1091,64.0,28,30,0.0,0.0
1092,62.0,662,30,0.0,0.0
1093,64.0,0,660,0.0,0.0
