tick,type,numerator,denominator,clocks_per_click,notated_32nd_notes_per_beat,time,meta,track,key,tempo,port,program,channel,note,velocity
0,time_signature,4,4,24,8,0,1,0,,,,,,,
0,program_change,,,,,0,0,3,,,,6,2,,
0,note_on,,,,,0,0,2,,,,,1,63,64
0,program_change,,,,,0,0,2,,,,6,1,,
0,track_name,,,,,0,1,2,,,,,,,
0,midi_port,,,,,0,1,2,,,0,,,,
0,track_name,,,,,0,1,3,,,,,,,
0,program_change,,,,,0,0,1,,,,6,0,,
0,track_name,,,,,0,1,1,,,,,,,
0,midi_port,,,,,0,1,1,,,0,,,,
0,midi_port,,,,,0,1,3,,,0,,,,
0,set_tempo,,,,,0,1,0,,674157,,,,,
0,key_signature,,,,,0,1,0,C,,,,,,
240,note_on,,,,,0,0,2,,,,,1,70,64
240,note_on,,,,,240,0,2,,,,,1,63,0
600,note_on,,,,,360,0,2,,,,,1,70,0
600,note_on,,,,,0,0,2,,,,,1,71,64
720,note_on,,,,,0,0,2,,,,,1,70,64
720,note_on,,,,,120,0,2,,,,,1,71,0
840,note_on,,,,,0,0,2,,,,,1,68,64
840,note_on,,,,,120,0,2,,,,,1,70,0
960,note_on,,,,,0,0,2,,,,,1,66,64
960,note_on,,,,,120,0,2,,,,,1,68,0
1080,note_on,,,,,0,0,2,,,,,1,68,64
1080,note_on,,,,,120,0,2,,,,,1,66,0
1200,note_on,,,,,0,0,2,,,,,1,70,64
1200,note_on,,,,,120,0,2,,,,,1,68,0
1440,note_on,,,,,0,0,2,,,,,1,63,64
1440,note_on,,,,,240,0,2,,,,,1,70,0
1680,note_on,,,,,240,0,2,,,,,1,63,0
1680,note_on,,,,,0,0,2,,,,,1,68,64
2040,note_on,,,,,0,0,2,,,,,1,66,64
2040,note_on,,,,,360,0,2,,,,,1,68,0
2160,note_on,,,,,120,0,2,,,,,1,66,0
2160,note_on,,,,,0,0,2,,,,,1,65,64
2400,note_on,,,,,240,0,2,,,,,1,65,0
2400,note_on,,,,,0,0,2,,,,,1,63,64
2400,note_on,,,,,2400,0,1,,,,,0,70,64
2640,note_on,,,,,240,0,1,,,,,0,70,0
2640,note_on,,,,,0,0,1,,,,,0,75,64
2760,note_on,,,,,0,0,2,,,,,1,65,64
2760,note_on,,,,,360,0,2,,,,,1,63,0
2880,note_on,,,,,120,0,2,,,,,1,65,0
2880,note_on,,,,,0,0,2,,,,,1,66,64
3000,note_on,,,,,360,0,1,,,,,0,75,0
3000,note_on,,,,,0,0,1,,,,,0,78,64
3120,note_on,,,,,240,0,2,,,,,1,66,0
3120,note_on,,,,,0,0,2,,,,,1,68,64
3120,note_on,,,,,120,0,1,,,,,0,78,0
3120,note_on,,,,,0,0,1,,,,,0,77,64
3240,note_on,,,,,0,0,1,,,,,0,75,64
3240,note_on,,,,,120,0,1,,,,,0,77,0
3360,note_on,,,,,120,0,1,,,,,0,75,0
3360,note_on,,,,,0,0,2,,,,,1,70,64
3360,note_on,,,,,240,0,2,,,,,1,68,0
3360,note_on,,,,,0,0,1,,,,,0,73,64
3480,note_on,,,,,0,0,1,,,,,0,75,64
3480,note_on,,,,,120,0,1,,,,,0,73,0
3600,note_on,,,,,120,0,1,,,,,0,75,0
3600,note_on,,,,,0,0,1,,,,,0,77,64
3720,note_on,,,,,0,0,2,,,,,1,68,64
3720,note_on,,,,,360,0,2,,,,,1,70,0
3840,note_on,,,,,0,0,2,,,,,1,66,64
3840,note_on,,,,,120,0,2,,,,,1,68,0
3840,note_on,,,,,240,0,1,,,,,0,77,0
3840,note_on,,,,,0,0,1,,,,,0,70,64
3960,note_on,,,,,0,0,2,,,,,1,65,64
3960,note_on,,,,,120,0,2,,,,,1,66,0
4080,note_on,,,,,0,0,2,,,,,1,66,64
4080,note_on,,,,,240,0,1,,,,,0,70,0
4080,note_on,,,,,0,0,1,,,,,0,75,64
4080,note_on,,,,,120,0,2,,,,,1,65,0
4200,note_on,,,,,120,0,2,,,,,1,66,0
4200,note_on,,,,,0,0,2,,,,,1,65,64
4260,note_on,,,,,0,0,2,,,,,1,63,64
4260,note_on,,,,,60,0,2,,,,,1,65,0
4320,note_on,,,,,0,0,2,,,,,1,65,64
4320,note_on,,,,,60,0,2,,,,,1,63,0
4440,note_on,,,,,360,0,1,,,,,0,75,0
4440,note_on,,,,,0,0,2,,,,,1,70,64
4440,note_on,,,,,120,0,2,,,,,1,65,0
4440,note_on,,,,,0,0,1,,,,,0,73,64
4560,note_on,,,,,0,0,1,,,,,0,72,64
4560,note_on,,,,,120,0,1,,,,,0,73,0
4680,note_on,,,,,240,0,2,,,,,1,70,0
4680,note_on,,,,,0,0,2,,,,,1,69,64
4800,note_on,,,,,240,0,1,,,,,0,72,0
4800,note_on,,,,,120,0,2,,,,,1,69,0
4800,note_on,,,,,0,0,2,,,,,1,70,64
4920,note_on,,,,,120,0,1,,,,,0,72,64
5040,note_on,,,,,120,0,1,,,,,0,72,0
5040,note_on,,,,,0,0,1,,,,,0,73,64
5160,note_on,,,,,360,0,2,,,,,1,70,0
5160,note_on,,,,,0,0,2,,,,,1,68,64
5280,note_on,,,,,0,0,2,,,,,1,67,64
5280,note_on,,,,,120,0,2,,,,,1,68,0
5400,note_on,,,,,120,0,2,,,,,1,67,0
5400,note_on,,,,,0,0,2,,,,,1,63,64
5520,note_on,,,,,120,0,2,,,,,1,63,0
5520,note_on,,,,,0,0,2,,,,,1,68,64
5640,note_on,,,,,0,0,1,,,,,0,71,64
5640,note_on,,,,,600,0,1,,,,,0,73,0
5760,note_on,,,,,0,0,1,,,,,0,70,64
5760,note_on,,,,,120,0,1,,,,,0,71,0
5880,note_on,,,,,360,0,2,,,,,1,68,0
5880,note_on,,,,,0,0,2,,,,,1,66,64
6000,note_on,,,,,0,0,2,,,,,1,65,64
6000,note_on,,,,,120,0,2,,,,,1,66,0
6000,note_on,,,,,0,0,1,,,,,0,75,64
6000,note_on,,,,,240,0,1,,,,,0,70,0
6120,note_on,,,,,120,0,2,,,,,1,65,0
6120,note_on,,,,,0,0,2,,,,,1,63,64
6240,note_on,,,,,0,0,2,,,,,1,65,64
6240,note_on,,,,,120,0,2,,,,,1,63,0
6360,note_on,,,,,0,0,1,,,,,0,74,64
6360,note_on,,,,,360,0,1,,,,,0,75,0
6480,note_on,,,,,240,0,2,,,,,1,65,0
6480,note_on,,,,,0,0,1,,,,,0,75,64
6480,note_on,,,,,0,0,2,,,,,1,66,64
6480,note_on,,,,,120,0,1,,,,,0,74,0
6600,note_on,,,,,0,0,1,,,,,0,77,64
6600,note_on,,,,,120,0,1,,,,,0,75,0
6600,note_on,,,,,0,0,2,,,,,1,68,64
6600,note_on,,,,,120,0,2,,,,,1,66,0
6720,note_on,,,,,120,0,1,,,,,0,77,0
6720,note_on,,,,,6720,0,3,,,,,2,51,64
6720,note_on,,,,,120,0,2,,,,,1,68,0
6720,note_on,,,,,0,0,2,,,,,1,70,64
6720,note_on,,,,,0,0,1,,,,,0,78,64
6840,note_on,,,,,120,0,2,,,,,1,70,0
6840,note_on,,,,,0,0,2,,,,,1,72,64
6960,note_on,,,,,0,0,2,,,,,1,74,64
6960,note_on,,,,,240,0,3,,,,,2,51,0
6960,note_on,,,,,0,0,1,,,,,0,77,64
6960,note_on,,,,,0,0,3,,,,,2,58,64
6960,note_on,,,,,120,0,2,,,,,1,72,0
6960,note_on,,,,,240,0,1,,,,,0,78,0
7080,note_on,,,,,120,0,1,,,,,0,77,0
7080,note_on,,,,,0,0,1,,,,,0,78,64
7080,note_on,,,,,120,0,2,,,,,1,74,0
7080,note_on,,,,,0,0,2,,,,,1,75,64
7200,note_on,,,,,120,0,1,,,,,0,78,0
7200,note_on,,,,,120,0,2,,,,,1,75,0
7200,note_on,,,,,0,0,1,,,,,0,80,64
7200,note_on,,,,,0,0,2,,,,,1,77,64
7320,note_on,,,,,0,0,2,,,,,1,74,64
7320,note_on,,,,,360,0,3,,,,,2,58,0
7320,note_on,,,,,120,0,2,,,,,1,77,0
7320,note_on,,,,,0,0,3,,,,,2,59,64
7320,note_on,,,,,0,0,1,,,,,0,77,64
7320,note_on,,,,,120,0,1,,,,,0,80,0
7440,note_on,,,,,0,0,3,,,,,2,58,64
7440,note_on,,,,,0,0,1,,,,,0,78,64
7440,note_on,,,,,0,0,2,,,,,1,75,64
7440,note_on,,,,,120,0,2,,,,,1,74,0
7440,note_on,,,,,120,0,1,,,,,0,77,0
7440,note_on,,,,,120,0,3,,,,,2,59,0
7560,note_on,,,,,0,0,2,,,,,1,77,64
7560,note_on,,,,,0,0,1,,,,,0,80,64
7560,note_on,,,,,120,0,3,,,,,2,58,0
7560,note_on,,,,,0,0,3,,,,,2,56,64
7560,note_on,,,,,120,0,2,,,,,1,75,0
7560,note_on,,,,,120,0,1,,,,,0,78,0
7680,note_on,,,,,120,0,3,,,,,2,56,0
7680,note_on,,,,,0,0,3,,,,,2,54,64
7680,note_on,,,,,120,0,2,,,,,1,77,0
7680,note_on,,,,,120,0,1,,,,,0,80,0
7680,note_on,,,,,0,0,1,,,,,0,82,64
7680,note_on,,,,,0,0,2,,,,,1,78,64
7800,note_on,,,,,120,0,1,,,,,0,82,0
7800,note_on,,,,,0,0,1,,,,,0,80,64
7800,note_on,,,,,0,0,2,,,,,1,77,64
7800,note_on,,,,,120,0,2,,,,,1,78,0
7800,note_on,,,,,120,0,3,,,,,2,54,0
7800,note_on,,,,,0,0,3,,,,,2,56,64
7920,note_on,,,,,120,0,1,,,,,0,80,0
7920,note_on,,,,,0,0,1,,,,,0,78,64
7920,note_on,,,,,0,0,2,,,,,1,75,64
7920,note_on,,,,,120,0,2,,,,,1,77,0
7920,note_on,,,,,120,0,3,,,,,2,56,0
7920,note_on,,,,,0,0,3,,,,,2,58,64
8040,note_on,,,,,120,0,1,,,,,0,78,0
8040,note_on,,,,,0,0,1,,,,,0,77,64
8040,note_on,,,,,120,0,2,,,,,1,75,0
8040,note_on,,,,,0,0,2,,,,,1,74,64
8160,note_on,,,,,120,0,2,,,,,1,74,0
8160,note_on,,,,,0,0,2,,,,,1,75,64
8160,note_on,,,,,0,0,1,,,,,0,78,64
8160,note_on,,,,,240,0,3,,,,,2,58,0
8160,note_on,,,,,120,0,1,,,,,0,77,0
8160,note_on,,,,,0,0,3,,,,,2,51,64
8280,note_on,,,,,0,0,2,,,,,1,73,64
8280,note_on,,,,,120,0,2,,,,,1,75,0
8400,note_on,,,,,240,0,3,,,,,2,51,0
8400,note_on,,,,,0,0,3,,,,,2,56,64
8400,note_on,,,,,0,0,1,,,,,0,77,64
8400,note_on,,,,,240,0,1,,,,,0,78,0
8400,note_on,,,,,120,0,2,,,,,1,73,0
8400,note_on,,,,,0,0,2,,,,,1,71,64
8520,note_on,,,,,0,0,1,,,,,0,75,64
8520,note_on,,,,,120,0,1,,,,,0,77,0
8640,note_on,,,,,120,0,1,,,,,0,75,0
8640,note_on,,,,,240,0,2,,,,,1,71,0
8640,note_on,,,,,0,0,1,,,,,0,74,64
8640,note_on,,,,,0,0,2,,,,,1,70,64
8760,note_on,,,,,120,0,1,,,,,0,74,0
8760,note_on,,,,,360,0,3,,,,,2,56,0
8760,note_on,,,,,0,0,1,,,,,0,75,64
8760,note_on,,,,,0,0,3,,,,,2,54,64
8880,note_on,,,,,0,0,3,,,,,2,53,64
8880,note_on,,,,,240,0,2,,,,,1,70,0
8880,note_on,,,,,0,0,2,,,,,1,68,64
8880,note_on,,,,,120,0,3,,,,,2,54,0
9000,note_on,,,,,0,0,1,,,,,0,74,64
9000,note_on,,,,,240,0,1,,,,,0,75,0
9120,note_on,,,,,120,0,1,,,,,0,74,0
9120,note_on,,,,,0,0,1,,,,,0,75,64
9120,note_on,,,,,0,0,3,,,,,2,51,64
9120,note_on,,,,,240,0,3,,,,,2,53,0
9120,note_on,,,,,240,0,2,,,,,1,68,0
9120,note_on,,,,,0,0,2,,,,,1,66,64
9240,note_on,,,,,120,0,1,,,,,0,75,0
9240,note_on,,,,,0,0,1,,,,,0,73,64
9360,note_on,,,,,0,0,3,,,,,2,63,64
9360,note_on,,,,,240,0,2,,,,,1,66,0
9360,note_on,,,,,120,0,1,,,,,0,73,0
9360,note_on,,,,,0,0,1,,,,,0,71,64
9360,note_on,,,,,240,0,3,,,,,2,51,0
9360,note_on,,,,,0,0,2,,,,,1,68,64
9480,note_on,,,,,0,0,2,,,,,1,66,64
9480,note_on,,,,,120,0,2,,,,,1,68,0
9600,note_on,,,,,240,0,3,,,,,2,63,0
9600,note_on,,,,,0,0,2,,,,,1,65,64
9600,note_on,,,,,120,0,2,,,,,1,66,0
9600,note_on,,,,,0,0,3,,,,,2,62,64
9720,note_on,,,,,0,0,1,,,,,0,70,64
9720,note_on,,,,,360,0,1,,,,,0,71,0
9780,note_on,,,,,60,0,1,,,,,0,70,0
9780,note_on,,,,,0,0,1,,,,,0,68,64
9840,note_on,,,,,240,0,3,,,,,2,62,0
9840,note_on,,,,,0,0,3,,,,,2,61,64
9840,note_on,,,,,0,0,1,,,,,0,70,64
9840,note_on,,,,,60,0,1,,,,,0,68,0
9960,note_on,,,,,360,0,2,,,,,1,65,0
9960,note_on,,,,,0,0,2,,,,,1,63,64
9960,note_on,,,,,0,0,1,,,,,0,71,64
9960,note_on,,,,,120,0,1,,,,,0,70,0
10020,note_on,,,,,0,0,1,,,,,0,73,64
10020,note_on,,,,,60,0,2,,,,,1,63,0
10020,note_on,,,,,60,0,1,,,,,0,71,0
10020,note_on,,,,,0,0,2,,,,,1,65,64
10080,note_on,,,,,240,0,3,,,,,2,61,0
10080,note_on,,,,,0,0,2,,,,,1,66,64
10080,note_on,,,,,60,0,2,,,,,1,65,0
10080,note_on,,,,,0,0,1,,,,,0,75,64
10080,note_on,,,,,60,0,1,,,,,0,73,0
10080,note_on,,,,,0,0,3,,,,,2,60,64
10200,note_on,,,,,120,0,2,,,,,1,66,0
10200,note_on,,,,,0,0,1,,,,,0,77,64
10200,note_on,,,,,120,0,1,,,,,0,75,0
10200,note_on,,,,,0,0,2,,,,,1,68,64
10260,note_on,,,,,60,0,1,,,,,0,77,0
10260,note_on,,,,,0,0,2,,,,,1,70,64
10260,note_on,,,,,60,0,2,,,,,1,68,0
10260,note_on,,,,,0,0,1,,,,,0,78,64
10320,note_on,,,,,240,0,3,,,,,2,60,0
10320,note_on,,,,,0,0,1,,,,,0,77,64
10320,note_on,,,,,60,0,1,,,,,0,78,0
10320,note_on,,,,,0,0,2,,,,,1,68,64
10320,note_on,,,,,60,0,2,,,,,1,70,0
10320,note_on,,,,,0,0,3,,,,,2,59,64
10500,note_on,,,,,0,0,1,,,,,0,75,64
10500,note_on,,,,,0,0,2,,,,,1,66,64
10500,note_on,,,,,180,0,2,,,,,1,68,0
10500,note_on,,,,,180,0,1,,,,,0,77,0
10530,note_on,,,,,30,0,2,,,,,1,66,0
10530,note_on,,,,,0,0,2,,,,,1,68,64
10560,note_on,,,,,60,0,1,,,,,0,75,0
10560,note_on,,,,,0,0,1,,,,,0,74,64
10560,note_on,,,,,0,0,2,,,,,1,70,64
10560,note_on,,,,,240,0,3,,,,,2,59,0
10560,note_on,,,,,0,0,3,,,,,2,58,64
10560,note_on,,,,,30,0,2,,,,,1,68,0
10680,note_on,,,,,120,0,3,,,,,2,58,0
10680,note_on,,,,,0,0,2,,,,,1,68,64
10680,note_on,,,,,120,0,2,,,,,1,70,0
10680,note_on,,,,,0,0,3,,,,,2,46,64
10800,note_on,,,,,240,0,1,,,,,0,74,0
10800,note_on,,,,,0,0,1,,,,,0,75,64
10800,note_on,,,,,0,0,3,,,,,2,51,64
10800,note_on,,,,,120,0,3,,,,,2,46,0
10800,note_on,,,,,120,0,2,,,,,1,68,0
10800,note_on,,,,,0,0,2,,,,,1,66,64
10920,note_on,,,,,0,0,1,,,,,0,73,64
10920,note_on,,,,,0,0,2,,,,,1,65,64
10920,note_on,,,,,120,0,1,,,,,0,75,0
10920,note_on,,,,,120,0,2,,,,,1,66,0
11040,note_on,,,,,120,0,2,,,,,1,65,0
11040,note_on,,,,,120,0,1,,,,,0,73,0
11040,note_on,,,,,0,0,1,,,,,0,71,64
11040,note_on,,,,,0,0,2,,,,,1,63,64
11160,note_on,,,,,120,0,1,,,,,0,71,0
11160,note_on,,,,,360,0,3,,,,,2,51,0
11160,note_on,,,,,0,0,3,,,,,2,54,64
11160,note_on,,,,,0,0,1,,,,,0,70,64
11280,note_on,,,,,0,0,2,,,,,1,62,64
11280,note_on,,,,,0,0,3,,,,,2,53,64
11280,note_on,,,,,0,0,1,,,,,0,68,64
11280,note_on,,,,,240,0,2,,,,,1,63,0
11280,note_on,,,,,120,0,1,,,,,0,70,0
11280,note_on,,,,,120,0,3,,,,,2,54,0
11400,note_on,,,,,120,0,1,,,,,0,68,0
11400,note_on,,,,,120,0,2,,,,,1,62,0
11400,note_on,,,,,0,0,2,,,,,1,63,64
11400,note_on,,,,,0,0,3,,,,,2,51,64
11400,note_on,,,,,120,0,3,,,,,2,53,0
11400,note_on,,,,,0,0,1,,,,,0,66,64
11520,note_on,,,,,120,0,3,,,,,2,51,0
11520,note_on,,,,,0,0,3,,,,,2,50,64
11520,note_on,,,,,120,0,2,,,,,1,63,0
11520,note_on,,,,,120,0,1,,,,,0,66,0
11520,note_on,,,,,0,0,1,,,,,0,65,64
11640,note_on,,,,,0,0,1,,,,,0,66,64
11640,note_on,,,,,120,0,2,,,,,1,63,64
11640,note_on,,,,,120,0,1,,,,,0,65,0
11640,note_on,,,,,0,0,3,,,,,2,51,64
11640,note_on,,,,,120,0,3,,,,,2,50,0
11760,note_on,,,,,0,0,2,,,,,1,62,64
11760,note_on,,,,,120,0,3,,,,,2,51,0
11760,note_on,,,,,0,0,1,,,,,0,68,64
11760,note_on,,,,,120,0,2,,,,,1,63,0
11760,note_on,,,,,120,0,1,,,,,0,66,0
11760,note_on,,,,,0,0,3,,,,,2,53,64
11880,note_on,,,,,0,0,2,,,,,1,60,64
11880,note_on,,,,,120,0,2,,,,,1,62,0
12000,note_on,,,,,120,0,2,,,,,1,60,0
12000,note_on,,,,,0,0,2,,,,,1,62,64
12000,note_on,,,,,240,0,3,,,,,2,53,0
12000,note_on,,,,,0,0,3,,,,,2,46,64
12120,note_on,,,,,360,0,1,,,,,0,68,0
12120,note_on,,,,,0,0,1,,,,,0,66,64
12180,note_on,,,,,0,0,1,,,,,0,65,64
12180,note_on,,,,,60,0,1,,,,,0,66,0
12240,note_on,,,,,0,0,1,,,,,0,66,64
12240,note_on,,,,,240,0,3,,,,,2,46,0
12240,note_on,,,,,0,0,2,,,,,1,63,64
12240,note_on,,,,,0,0,3,,,,,2,51,64
12240,note_on,,,,,240,0,2,,,,,1,62,0
12240,note_on,,,,,60,0,1,,,,,0,65,0
12360,note_on,,,,,0,0,1,,,,,0,68,64
12360,note_on,,,,,0,0,2,,,,,1,65,64
12360,note_on,,,,,120,0,2,,,,,1,63,0
12360,note_on,,,,,120,0,1,,,,,0,66,0
12480,note_on,,,,,0,0,2,,,,,1,66,64
12480,note_on,,,,,120,0,1,,,,,0,68,0
12480,note_on,,,,,120,0,2,,,,,1,65,0
12480,note_on,,,,,0,0,1,,,,,0,70,64
12600,note_on,,,,,360,0,3,,,,,2,51,0
12600,note_on,,,,,0,0,3,,,,,2,49,64
12720,note_on,,,,,120,0,3,,,,,2,49,0
12720,note_on,,,,,0,0,1,,,,,0,71,64
12720,note_on,,,,,240,0,1,,,,,0,70,0
12720,note_on,,,,,240,0,2,,,,,1,66,0
12720,note_on,,,,,0,0,2,,,,,1,68,64
12720,note_on,,,,,0,0,3,,,,,2,47,64
12840,note_on,,,,,0,0,1,,,,,0,73,64
12840,note_on,,,,,0,0,2,,,,,1,66,64
12840,note_on,,,,,120,0,2,,,,,1,68,0
12840,note_on,,,,,120,0,1,,,,,0,71,0
12900,note_on,,,,,0,0,1,,,,,0,75,64
12900,note_on,,,,,60,0,1,,,,,0,73,0
12960,note_on,,,,,60,0,1,,,,,0,75,0
12960,note_on,,,,,0,0,1,,,,,0,68,64
12960,note_on,,,,,120,0,2,,,,,1,66,0
12960,note_on,,,,,0,0,2,,,,,1,65,64
13080,note_on,,,,,120,0,2,,,,,1,65,0
13080,note_on,,,,,0,0,2,,,,,1,61,64
13200,note_on,,,,,0,0,3,,,,,2,46,64
13200,note_on,,,,,120,0,2,,,,,1,61,0
13200,note_on,,,,,240,0,1,,,,,0,68,0
13200,note_on,,,,,0,0,2,,,,,1,66,64
13200,note_on,,,,,480,0,3,,,,,2,47,0
13320,note_on,,,,,120,0,1,,,,,0,70,64
13440,note_on,,,,,0,0,1,,,,,0,71,64
13440,note_on,,,,,120,0,1,,,,,0,70,0
13440,note_on,,,,,0,0,3,,,,,2,44,64
13440,note_on,,,,,240,0,3,,,,,2,46,0
13560,note_on,,,,,0,0,3,,,,,2,46,64
13560,note_on,,,,,120,0,3,,,,,2,44,0
13560,note_on,,,,,0,0,1,,,,,0,73,64
13560,note_on,,,,,120,0,1,,,,,0,71,0
13680,note_on,,,,,120,0,1,,,,,0,73,0
13680,note_on,,,,,0,0,2,,,,,1,65,64
13680,note_on,,,,,480,0,2,,,,,1,66,0
13680,note_on,,,,,0,0,3,,,,,2,47,64
13680,note_on,,,,,120,0,3,,,,,2,46,0
13680,note_on,,,,,0,0,1,,,,,0,75,64
13800,note_on,,,,,0,0,1,,,,,0,77,64
13800,note_on,,,,,0,0,3,,,,,2,49,64
13800,note_on,,,,,120,0,3,,,,,2,47,0
13800,note_on,,,,,120,0,1,,,,,0,75,0
13920,note_on,,,,,0,0,1,,,,,0,78,64
13920,note_on,,,,,120,0,3,,,,,2,49,0
13920,note_on,,,,,0,0,3,,,,,2,51,64
13920,note_on,,,,,120,0,1,,,,,0,77,0
14040,note_on,,,,,120,0,1,,,,,0,78,0
14040,note_on,,,,,0,0,1,,,,,0,80,64
14040,note_on,,,,,120,0,3,,,,,2,51,0
14040,note_on,,,,,0,0,3,,,,,2,53,64
14160,note_on,,,,,480,0,2,,,,,1,65,0
14160,note_on,,,,,0,0,2,,,,,1,63,64
14160,note_on,,,,,0,0,1,,,,,0,82,64
14160,note_on,,,,,0,0,3,,,,,2,54,64
14160,note_on,,,,,120,0,3,,,,,2,53,0
14160,note_on,,,,,120,0,1,,,,,0,80,0
14280,note_on,,,,,120,0,3,,,,,2,54,0
14280,note_on,,,,,0,0,1,,,,,0,83,64
14280,note_on,,,,,120,0,1,,,,,0,82,0
14280,note_on,,,,,0,0,3,,,,,2,56,64
14400,note_on,,,,,120,0,3,,,,,2,56,0
14400,note_on,,,,,0,0,3,,,,,2,58,64
14400,note_on,,,,,240,0,2,,,,,1,63,0
14400,note_on,,,,,0,0,2,,,,,1,61,64
14520,note_on,,,,,120,0,2,,,,,1,61,0
14520,note_on,,,,,0,0,1,,,,,0,73,64
14520,note_on,,,,,240,0,1,,,,,0,83,0
14520,note_on,,,,,0,0,2,,,,,1,65,64
14520,note_on,,,,,120,0,3,,,,,2,58,0
14520,note_on,,,,,0,0,3,,,,,2,56,64
14640,note_on,,,,,120,0,2,,,,,1,65,0
14640,note_on,,,,,0,0,1,,,,,0,78,64
14640,note_on,,,,,120,0,1,,,,,0,73,0
14640,note_on,,,,,0,0,3,,,,,2,58,64
14640,note_on,,,,,120,0,3,,,,,2,56,0
14640,note_on,,,,,0,0,2,,,,,1,66,64
14760,note_on,,,,,120,0,2,,,,,1,66,0
14760,note_on,,,,,0,0,2,,,,,1,68,64
14760,note_on,,,,,120,0,3,,,,,2,58,0
14760,note_on,,,,,0,0,3,,,,,2,59,64
14880,note_on,,,,,0,0,3,,,,,2,61,64
14880,note_on,,,,,120,0,3,,,,,2,59,0
14880,note_on,,,,,0,0,2,,,,,1,70,64
14880,note_on,,,,,120,0,2,,,,,1,68,0
15000,note_on,,,,,120,0,2,,,,,1,70,0
15000,note_on,,,,,0,0,2,,,,,1,71,64
15120,note_on,,,,,0,0,1,,,,,0,77,64
15120,note_on,,,,,240,0,3,,,,,2,61,0
15120,note_on,,,,,0,0,3,,,,,2,49,64
15120,note_on,,,,,0,0,2,,,,,1,73,64
15120,note_on,,,,,120,0,2,,,,,1,71,0
15120,note_on,,,,,480,0,1,,,,,0,78,0
15240,note_on,,,,,0,0,2,,,,,1,71,64
15240,note_on,,,,,120,0,2,,,,,1,73,0
15360,note_on,,,,,0,0,2,,,,,1,70,64
15360,note_on,,,,,240,0,3,,,,,2,49,0
15360,note_on,,,,,0,0,3,,,,,2,42,64
15360,note_on,,,,,120,0,2,,,,,1,71,0
15480,note_on,,,,,0,0,2,,,,,1,68,64
15480,note_on,,,,,120,0,2,,,,,1,70,0
15600,note_on,,,,,240,0,3,,,,,2,42,0
15600,note_on,,,,,120,0,2,,,,,1,68,0
15600,note_on,,,,,0,0,2,,,,,1,66,64
15600,note_on,,,,,480,0,1,,,,,0,77,0
15600,note_on,,,,,0,0,1,,,,,0,75,64
15600,note_on,,,,,0,0,3,,,,,2,54,64
15720,note_on,,,,,120,0,2,,,,,1,66,0
15720,note_on,,,,,0,0,2,,,,,1,65,64
15720,note_on,,,,,120,0,1,,,,,0,75,0
15720,note_on,,,,,0,0,1,,,,,0,73,64
15840,note_on,,,,,120,0,2,,,,,1,65,0
15840,note_on,,,,,0,0,2,,,,,1,63,64
15840,note_on,,,,,0,0,1,,,,,0,72,64
15840,note_on,,,,,120,0,1,,,,,0,73,0
15960,note_on,,,,,0,0,1,,,,,0,74,64
15960,note_on,,,,,120,0,1,,,,,0,72,0
15960,note_on,,,,,360,0,3,,,,,2,54,0
15960,note_on,,,,,0,0,2,,,,,1,65,64
15960,note_on,,,,,120,0,2,,,,,1,63,0
15960,note_on,,,,,0,0,3,,,,,2,53,64
16080,note_on,,,,,120,0,1,,,,,0,74,0
16080,note_on,,,,,0,0,1,,,,,0,75,64
16080,note_on,,,,,0,0,3,,,,,2,51,64
16080,note_on,,,,,0,0,2,,,,,1,66,64
16080,note_on,,,,,120,0,2,,,,,1,65,0
16080,note_on,,,,,120,0,3,,,,,2,53,0
16200,note_on,,,,,0,0,2,,,,,1,70,64
16200,note_on,,,,,0,0,3,,,,,2,49,64
16200,note_on,,,,,120,0,1,,,,,0,75,0
16200,note_on,,,,,0,0,1,,,,,0,77,64
16200,note_on,,,,,120,0,2,,,,,1,66,0
16200,note_on,,,,,120,0,3,,,,,2,51,0
16320,note_on,,,,,120,0,1,,,,,0,77,0
16320,note_on,,,,,0,0,3,,,,,2,48,64
16320,note_on,,,,,120,0,2,,,,,1,70,0
16320,note_on,,,,,0,0,2,,,,,1,75,64
16320,note_on,,,,,0,0,1,,,,,0,78,64
16320,note_on,,,,,120,0,3,,,,,2,49,0
16440,note_on,,,,,120,0,3,,,,,2,48,0
16440,note_on,,,,,0,0,2,,,,,1,73,64
16440,note_on,,,,,120,0,2,,,,,1,75,0
16440,note_on,,,,,0,0,3,,,,,2,46,64
16560,note_on,,,,,0,0,2,,,,,1,72,64
16560,note_on,,,,,120,0,3,,,,,2,46,0
16560,note_on,,,,,0,0,3,,,,,2,45,64
16560,note_on,,,,,120,0,2,,,,,1,73,0
16560,note_on,,,,,0,0,1,,,,,0,77,64
16560,note_on,,,,,240,0,1,,,,,0,78,0
16680,note_on,,,,,0,0,1,,,,,0,75,64
16680,note_on,,,,,0,0,3,,,,,2,41,64
16680,note_on,,,,,120,0,3,,,,,2,45,0
16680,note_on,,,,,120,0,1,,,,,0,77,0
16800,note_on,,,,,120,0,3,,,,,2,41,0
16800,note_on,,,,,120,0,1,,,,,0,75,0
16800,note_on,,,,,0,0,1,,,,,0,73,64
16800,note_on,,,,,0,0,3,,,,,2,46,64
16920,note_on,,,,,120,0,3,,,,,2,46,0
16920,note_on,,,,,0,0,3,,,,,2,48,64
16920,note_on,,,,,0,0,1,,,,,0,75,64
16920,note_on,,,,,120,0,1,,,,,0,73,0
17040,note_on,,,,,0,0,2,,,,,1,70,64
17040,note_on,,,,,120,0,3,,,,,2,48,0
17040,note_on,,,,,0,0,3,,,,,2,49,64
17040,note_on,,,,,0,0,1,,,,,0,77,64
17040,note_on,,,,,120,0,1,,,,,0,75,0
17040,note_on,,,,,480,0,2,,,,,1,72,0
17160,note_on,,,,,120,0,1,,,,,0,77,0
17160,note_on,,,,,0,0,1,,,,,0,78,64
17160,note_on,,,,,0,0,3,,,,,2,51,64
17160,note_on,,,,,120,0,3,,,,,2,49,0
17280,note_on,,,,,120,0,3,,,,,2,51,0
17280,note_on,,,,,0,0,1,,,,,0,73,64
17280,note_on,,,,,120,0,1,,,,,0,78,0
17280,note_on,,,,,0,0,3,,,,,2,53,64
17400,note_on,,,,,120,0,3,,,,,2,53,0
17400,note_on,,,,,0,0,3,,,,,2,51,64
17520,note_on,,,,,0,0,3,,,,,2,53,64
17520,note_on,,,,,0,0,1,,,,,0,72,64
17520,note_on,,,,,120,0,3,,,,,2,51,0
17520,note_on,,,,,0,0,2,,,,,1,69,64
17520,note_on,,,,,480,0,2,,,,,1,70,0
17520,note_on,,,,,240,0,1,,,,,0,73,0
17640,note_on,,,,,0,0,3,,,,,2,41,64
17640,note_on,,,,,120,0,3,,,,,2,53,0
17760,note_on,,,,,0,0,2,,,,,1,58,64
17760,note_on,,,,,240,0,1,,,,,0,72,0
17760,note_on,,,,,0,0,1,,,,,0,70,64
17760,note_on,,,,,240,0,2,,,,,1,69,0
17760,note_on,,,,,0,0,3,,,,,2,46,64
17760,note_on,,,,,120,0,3,,,,,2,41,0
17880,note_on,,,,,0,0,3,,,,,2,45,64
17880,note_on,,,,,120,0,3,,,,,2,46,0
18000,note_on,,,,,240,0,2,,,,,1,58,0
18000,note_on,,,,,0,0,2,,,,,1,65,64
18000,note_on,,,,,240,0,1,,,,,0,70,0
18000,note_on,,,,,0,0,3,,,,,2,46,64
18000,note_on,,,,,120,0,3,,,,,2,45,0
18120,note_on,,,,,120,0,3,,,,,2,46,0
18120,note_on,,,,,0,0,3,,,,,2,48,64
18240,note_on,,,,,120,0,3,,,,,2,48,0
18240,note_on,,,,,240,0,1,,,,,0,70,64
18240,note_on,,,,,0,0,3,,,,,2,49,64
18360,note_on,,,,,360,0,2,,,,,1,65,0
18360,note_on,,,,,0,0,2,,,,,1,66,64
18360,note_on,,,,,120,0,3,,,,,2,49,0
18360,note_on,,,,,0,0,3,,,,,2,48,64
18480,note_on,,,,,120,0,3,,,,,2,48,0
18480,note_on,,,,,0,0,3,,,,,2,49,64
18480,note_on,,,,,0,0,2,,,,,1,65,64
18480,note_on,,,,,0,0,1,,,,,0,77,64
18480,note_on,,,,,240,0,1,,,,,0,70,0
18480,note_on,,,,,120,0,2,,,,,1,66,0
18600,note_on,,,,,0,0,2,,,,,1,63,64
18600,note_on,,,,,120,0,2,,,,,1,65,0
18600,note_on,,,,,0,0,3,,,,,2,51,64
18600,note_on,,,,,120,0,3,,,,,2,49,0
18720,note_on,,,,,0,0,2,,,,,1,61,64
18720,note_on,,,,,0,0,3,,,,,2,53,64
18720,note_on,,,,,120,0,3,,,,,2,51,0
18720,note_on,,,,,120,0,2,,,,,1,63,0
18840,note_on,,,,,0,0,3,,,,,2,51,64
18840,note_on,,,,,120,0,2,,,,,1,61,0
18840,note_on,,,,,0,0,2,,,,,1,63,64
18840,note_on,,,,,120,0,3,,,,,2,53,0
18840,note_on,,,,,0,0,1,,,,,0,78,64
18840,note_on,,,,,360,0,1,,,,,0,77,0
18960,note_on,,,,,0,0,3,,,,,2,49,64
18960,note_on,,,,,0,0,2,,,,,1,65,64
18960,note_on,,,,,0,0,1,,,,,0,77,64
18960,note_on,,,,,120,0,1,,,,,0,78,0
18960,note_on,,,,,120,0,3,,,,,2,51,0
18960,note_on,,,,,120,0,2,,,,,1,63,0
19080,note_on,,,,,120,0,3,,,,,2,49,0
19080,note_on,,,,,0,0,3,,,,,2,51,64
19080,note_on,,,,,0,0,1,,,,,0,75,64
19080,note_on,,,,,120,0,1,,,,,0,77,0
19140,note_on,,,,,0,0,3,,,,,2,53,64
19140,note_on,,,,,60,0,3,,,,,2,51,0
19200,note_on,,,,,60,0,3,,,,,2,53,0
19200,note_on,,,,,0,0,1,,,,,0,73,64
19200,note_on,,,,,120,0,1,,,,,0,75,0
19200,note_on,,,,,240,0,2,,,,,1,65,0
19200,note_on,,,,,0,0,3,,,,,2,54,64
19200,note_on,,,,,0,0,2,,,,,1,58,64
19260,note_on,,,,,60,0,3,,,,,2,54,0
19260,note_on,,,,,0,0,3,,,,,2,53,64
19320,note_on,,,,,60,0,3,,,,,2,53,0
19320,note_on,,,,,0,0,3,,,,,2,54,64
19320,note_on,,,,,0,0,1,,,,,0,75,64
19320,note_on,,,,,120,0,1,,,,,0,73,0
19440,note_on,,,,,120,0,1,,,,,0,75,0
19440,note_on,,,,,120,0,3,,,,,2,54,0
19440,note_on,,,,,0,0,3,,,,,2,45,64
19440,note_on,,,,,0,0,1,,,,,0,77,64
19440,note_on,,,,,240,0,2,,,,,1,58,0
19560,note_on,,,,,120,0,2,,,,,1,63,64
19680,note_on,,,,,240,0,3,,,,,2,45,0
19680,note_on,,,,,240,0,1,,,,,0,77,0
19680,note_on,,,,,0,0,1,,,,,0,70,64
19680,note_on,,,,,0,0,3,,,,,2,46,64
19800,note_on,,,,,240,0,2,,,,,1,63,0
19800,note_on,,,,,0,0,2,,,,,1,61,64
19920,note_on,,,,,240,0,1,,,,,0,70,0
19920,note_on,,,,,240,0,3,,,,,2,46,0
19920,note_on,,,,,0,0,3,,,,,2,48,64
19920,note_on,,,,,120,0,2,,,,,1,61,0
19920,note_on,,,,,0,0,2,,,,,1,60,64
20040,note_on,,,,,120,0,1,,,,,0,75,64
20160,note_on,,,,,0,0,3,,,,,2,49,64
20160,note_on,,,,,0,0,2,,,,,1,58,64
20160,note_on,,,,,240,0,3,,,,,2,48,0
20160,note_on,,,,,240,0,2,,,,,1,60,0
20280,note_on,,,,,0,0,1,,,,,0,73,64
20280,note_on,,,,,240,0,1,,,,,0,75,0
20280,note_on,,,,,0,0,3,,,,,2,46,64
20280,note_on,,,,,120,0,3,,,,,2,49,0
20400,note_on,,,,,240,0,2,,,,,1,58,0
20400,note_on,,,,,0,0,1,,,,,0,72,64
20400,note_on,,,,,120,0,1,,,,,0,73,0
20400,note_on,,,,,0,0,3,,,,,2,53,64
20400,note_on,,,,,120,0,3,,,,,2,46,0
20520,note_on,,,,,120,0,2,,,,,1,68,64
20520,note_on,,,,,0,0,3,,,,,2,51,64
20520,note_on,,,,,120,0,3,,,,,2,53,0
20640,note_on,,,,,0,0,1,,,,,0,70,64
20640,note_on,,,,,120,0,3,,,,,2,51,0
20640,note_on,,,,,240,0,1,,,,,0,72,0
20640,note_on,,,,,0,0,3,,,,,2,50,64
20760,note_on,,,,,0,0,2,,,,,1,66,64
20760,note_on,,,,,240,0,2,,,,,1,68,0
20760,note_on,,,,,0,0,3,,,,,2,51,64
20760,note_on,,,,,120,0,3,,,,,2,50,0
20880,note_on,,,,,120,0,2,,,,,1,66,0
20880,note_on,,,,,240,0,1,,,,,0,70,0
20880,note_on,,,,,0,0,2,,,,,1,65,64
21000,note_on,,,,,0,0,3,,,,,2,50,64
21000,note_on,,,,,120,0,1,,,,,0,80,64
21000,note_on,,,,,240,0,3,,,,,2,51,0
21120,note_on,,,,,0,0,2,,,,,1,63,64
21120,note_on,,,,,0,0,3,,,,,2,51,64
21120,note_on,,,,,120,0,3,,,,,2,50,0
21120,note_on,,,,,240,0,2,,,,,1,65,0
21240,note_on,,,,,120,0,3,,,,,2,51,0
21240,note_on,,,,,0,0,1,,,,,0,78,64
21240,note_on,,,,,240,0,1,,,,,0,80,0
21240,note_on,,,,,0,0,3,,,,,2,60,64
21360,note_on,,,,,240,0,2,,,,,1,63,0
21360,note_on,,,,,0,0,1,,,,,0,77,64
21360,note_on,,,,,120,0,1,,,,,0,78,0
21360,note_on,,,,,120,0,3,,,,,2,60,0
21360,note_on,,,,,0,0,3,,,,,2,57,64
21480,note_on,,,,,120,0,2,,,,,1,61,64
21480,note_on,,,,,120,0,3,,,,,2,57,0
21480,note_on,,,,,0,0,3,,,,,2,58,64
21600,note_on,,,,,120,0,3,,,,,2,58,0
21600,note_on,,,,,0,0,3,,,,,2,54,64
21600,note_on,,,,,0,0,2,,,,,1,70,64
21600,note_on,,,,,120,0,2,,,,,1,61,0
21660,note_on,,,,,0,0,1,,,,,0,75,64
21660,note_on,,,,,300,0,1,,,,,0,77,0
21720,note_on,,,,,120,0,3,,,,,2,54,0
21720,note_on,,,,,0,0,3,,,,,2,53,64
21720,note_on,,,,,0,0,1,,,,,0,77,64
21720,note_on,,,,,0,0,2,,,,,1,69,64
21720,note_on,,,,,120,0,2,,,,,1,70,0
21720,note_on,,,,,60,0,1,,,,,0,75,0
21780,note_on,,,,,0,0,1,,,,,0,78,64
21780,note_on,,,,,60,0,1,,,,,0,77,0
21840,note_on,,,,,0,0,1,,,,,0,75,64
21840,note_on,,,,,60,0,1,,,,,0,78,0
21840,note_on,,,,,0,0,3,,,,,2,54,64
21840,note_on,,,,,120,0,3,,,,,2,53,0
21840,note_on,,,,,0,0,2,,,,,1,70,64
21840,note_on,,,,,120,0,2,,,,,1,69,0
22020,note_on,,,,,180,0,1,,,,,0,75,0
22020,note_on,,,,,0,0,1,,,,,0,77,64
22080,note_on,,,,,240,0,3,,,,,2,54,0
22080,note_on,,,,,0,0,3,,,,,2,53,64
22080,note_on,,,,,0,0,1,,,,,0,77,64
22080,note_on,,,,,60,0,1,,,,,0,77,0
22080,note_on,,,,,0,0,2,,,,,1,69,64
22080,note_on,,,,,240,0,2,,,,,1,70,0
22320,note_on,,,,,0,0,2,,,,,1,70,64
22320,note_on,,,,,240,0,2,,,,,1,69,0
22320,note_on,,,,,240,0,3,,,,,2,53,0
22320,note_on,,,,,240,0,1,,,,,0,77,0
22320,note_on,,,,,0,0,1,,,,,0,82,64
22560,note_on,,,,,240,0,3,,,,,2,54,64
22560,note_on,,,,,0,0,2,,,,,1,75,64
22560,note_on,,,,,240,0,2,,,,,1,70,0
22680,note_on,,,,,0,0,1,,,,,0,83,64
22680,note_on,,,,,360,0,1,,,,,0,82,0
22800,note_on,,,,,240,0,3,,,,,2,54,0
22800,note_on,,,,,0,0,3,,,,,2,59,64
22800,note_on,,,,,0,0,1,,,,,0,82,64
22800,note_on,,,,,120,0,1,,,,,0,83,0
22920,note_on,,,,,120,0,1,,,,,0,82,0
22920,note_on,,,,,0,0,2,,,,,1,77,64
22920,note_on,,,,,0,0,1,,,,,0,80,64
22920,note_on,,,,,360,0,2,,,,,1,75,0
23040,note_on,,,,,120,0,2,,,,,1,77,0
23040,note_on,,,,,120,0,1,,,,,0,80,0
23040,note_on,,,,,0,0,2,,,,,1,75,64
23040,note_on,,,,,0,0,1,,,,,0,79,64
23160,note_on,,,,,120,0,1,,,,,0,79,0
23160,note_on,,,,,0,0,1,,,,,0,80,64
23160,note_on,,,,,360,0,3,,,,,2,59,0
23160,note_on,,,,,0,0,3,,,,,2,61,64
23280,note_on,,,,,0,0,1,,,,,0,82,64
23280,note_on,,,,,120,0,3,,,,,2,61,0
23280,note_on,,,,,0,0,3,,,,,2,59,64
23280,note_on,,,,,120,0,1,,,,,0,80,0
23400,note_on,,,,,0,0,3,,,,,2,58,64
23400,note_on,,,,,360,0,2,,,,,1,75,0
23400,note_on,,,,,0,0,2,,,,,1,73,64
23400,note_on,,,,,120,0,3,,,,,2,59,0
23520,note_on,,,,,120,0,3,,,,,2,58,0
23520,note_on,,,,,0,0,3,,,,,2,56,64
23520,note_on,,,,,240,0,1,,,,,0,82,0
23520,note_on,,,,,0,0,2,,,,,1,72,64
23520,note_on,,,,,0,0,1,,,,,0,75,64
23520,note_on,,,,,120,0,2,,,,,1,73,0
23640,note_on,,,,,0,0,3,,,,,2,55,64
23640,note_on,,,,,120,0,3,,,,,2,56,0
23760,note_on,,,,,0,0,3,,,,,2,56,64
23760,note_on,,,,,120,0,3,,,,,2,55,0
23760,note_on,,,,,240,0,1,,,,,0,75,0
23760,note_on,,,,,0,0,1,,,,,0,80,64
23880,note_on,,,,,0,0,2,,,,,1,73,64
23880,note_on,,,,,120,0,3,,,,,2,56,0
23880,note_on,,,,,0,0,3,,,,,2,58,64
23880,note_on,,,,,360,0,2,,,,,1,72,0
24000,note_on,,,,,120,0,2,,,,,1,73,0
24000,note_on,,,,,0,0,2,,,,,1,75,64
24000,note_on,,,,,0,0,3,,,,,2,60,64
24000,note_on,,,,,120,0,3,,,,,2,58,0
24120,note_on,,,,,0,0,1,,,,,0,78,64
24120,note_on,,,,,360,0,1,,,,,0,80,0
24240,note_on,,,,,0,0,3,,,,,2,61,64
24240,note_on,,,,,240,0,2,,,,,1,75,0
24240,note_on,,,,,0,0,2,,,,,1,68,64
24240,note_on,,,,,0,0,1,,,,,0,77,64
24240,note_on,,,,,120,0,1,,,,,0,78,0
24240,note_on,,,,,240,0,3,,,,,2,60,0
24360,note_on,,,,,0,0,3,,,,,2,59,64
24360,note_on,,,,,120,0,3,,,,,2,61,0
24480,note_on,,,,,120,0,3,,,,,2,59,0
24480,note_on,,,,,0,0,3,,,,,2,58,64
24480,note_on,,,,,240,0,2,,,,,1,68,0
24480,note_on,,,,,0,0,2,,,,,1,73,64
24600,note_on,,,,,0,0,3,,,,,2,56,64
24600,note_on,,,,,120,0,3,,,,,2,58,0
24720,note_on,,,,,480,0,1,,,,,0,77,0
24720,note_on,,,,,120,0,3,,,,,2,56,0
24720,note_on,,,,,0,0,3,,,,,2,55,64
24720,note_on,,,,,0,0,1,,,,,0,75,64
24840,note_on,,,,,120,0,3,,,,,2,55,0
24840,note_on,,,,,0,0,3,,,,,2,51,64
24960,note_on,,,,,0,0,2,,,,,1,72,64
24960,note_on,,,,,480,0,2,,,,,1,73,0
24960,note_on,,,,,0,0,3,,,,,2,56,64
24960,note_on,,,,,120,0,3,,,,,2,51,0
25080,note_on,,,,,0,0,3,,,,,2,58,64
25080,note_on,,,,,120,0,3,,,,,2,56,0
25200,note_on,,,,,120,0,3,,,,,2,58,0
25200,note_on,,,,,0,0,1,,,,,0,80,64
25200,note_on,,,,,480,0,1,,,,,0,75,0
25200,note_on,,,,,240,0,2,,,,,1,72,0
25200,note_on,,,,,0,0,3,,,,,2,56,64
25320,note_on,,,,,120,0,3,,,,,2,56,0
25320,note_on,,,,,0,0,3,,,,,2,54,64
25440,note_on,,,,,120,0,3,,,,,2,54,0
25440,note_on,,,,,0,0,3,,,,,2,53,64
25440,note_on,,,,,240,0,2,,,,,1,68,64
25560,note_on,,,,,0,0,1,,,,,0,82,64
25560,note_on,,,,,360,0,1,,,,,0,80,0
25560,note_on,,,,,0,0,3,,,,,2,54,64
25560,note_on,,,,,120,0,3,,,,,2,53,0
25680,note_on,,,,,240,0,2,,,,,1,68,0
25680,note_on,,,,,0,0,3,,,,,2,53,64
25680,note_on,,,,,120,0,3,,,,,2,54,0
25680,note_on,,,,,0,0,2,,,,,1,73,64
25680,note_on,,,,,0,0,1,,,,,0,80,64
25680,note_on,,,,,120,0,1,,,,,0,82,0
25800,note_on,,,,,0,0,1,,,,,0,78,64
25800,note_on,,,,,120,0,1,,,,,0,80,0
25800,note_on,,,,,120,0,3,,,,,2,53,0
25800,note_on,,,,,0,0,3,,,,,2,51,64
25920,note_on,,,,,0,0,1,,,,,0,77,64
25920,note_on,,,,,120,0,3,,,,,2,51,0
25920,note_on,,,,,120,0,1,,,,,0,78,0
25920,note_on,,,,,0,0,3,,,,,2,49,64
26040,note_on,,,,,120,0,1,,,,,0,77,0
26040,note_on,,,,,0,0,1,,,,,0,78,64
26040,note_on,,,,,120,0,3,,,,,2,49,0
26040,note_on,,,,,0,0,2,,,,,1,75,64
26040,note_on,,,,,360,0,2,,,,,1,73,0
26040,note_on,,,,,0,0,3,,,,,2,59,64
26160,note_on,,,,,120,0,2,,,,,1,75,0
26160,note_on,,,,,120,0,3,,,,,2,59,0
26160,note_on,,,,,0,0,3,,,,,2,58,64
26160,note_on,,,,,0,0,2,,,,,1,73,64
26160,note_on,,,,,120,0,1,,,,,0,78,0
26160,note_on,,,,,0,0,1,,,,,0,80,64
26280,note_on,,,,,120,0,3,,,,,2,58,0
26280,note_on,,,,,0,0,3,,,,,2,56,64
26280,note_on,,,,,120,0,2,,,,,1,73,0
26280,note_on,,,,,0,0,2,,,,,1,71,64
26400,note_on,,,,,0,0,2,,,,,1,70,64
26400,note_on,,,,,120,0,2,,,,,1,71,0
26400,note_on,,,,,0,0,3,,,,,2,54,64
26400,note_on,,,,,120,0,3,,,,,2,56,0
26400,note_on,,,,,240,0,1,,,,,0,80,0
26400,note_on,,,,,0,0,1,,,,,0,73,64
26520,note_on,,,,,0,0,3,,,,,2,56,64
26520,note_on,,,,,120,0,3,,,,,2,54,0
26520,note_on,,,,,0,0,2,,,,,1,71,64
26520,note_on,,,,,120,0,2,,,,,1,70,0
26640,note_on,,,,,240,0,1,,,,,0,73,0
26640,note_on,,,,,0,0,1,,,,,0,78,64
26640,note_on,,,,,120,0,3,,,,,2,56,0
26640,note_on,,,,,0,0,3,,,,,2,54,64
26640,note_on,,,,,0,0,2,,,,,1,73,64
26640,note_on,,,,,120,0,2,,,,,1,71,0
26760,note_on,,,,,120,0,3,,,,,2,54,0
26760,note_on,,,,,0,0,3,,,,,2,52,64
26880,note_on,,,,,0,0,3,,,,,2,51,64
26880,note_on,,,,,0,0,2,,,,,1,66,64
26880,note_on,,,,,120,0,3,,,,,2,52,0
26880,note_on,,,,,240,0,2,,,,,1,73,0
27000,note_on,,,,,0,0,3,,,,,2,49,64
27000,note_on,,,,,0,0,1,,,,,0,76,64
27000,note_on,,,,,360,0,1,,,,,0,78,0
27000,note_on,,,,,120,0,3,,,,,2,51,0
27120,note_on,,,,,120,0,3,,,,,2,49,0
27120,note_on,,,,,0,0,3,,,,,2,47,64
27120,note_on,,,,,240,0,2,,,,,1,66,0
27120,note_on,,,,,0,0,2,,,,,1,71,64
27120,note_on,,,,,120,0,1,,,,,0,76,0
27120,note_on,,,,,0,0,1,,,,,0,75,64
27240,note_on,,,,,120,0,3,,,,,2,47,0
27240,note_on,,,,,0,0,3,,,,,2,44,64
27240,note_on,,,,,120,0,1,,,,,0,75,0
27240,note_on,,,,,0,0,1,,,,,0,80,64
27360,note_on,,,,,120,0,1,,,,,0,80,0
27360,note_on,,,,,0,0,1,,,,,0,73,64
27360,note_on,,,,,0,0,3,,,,,2,46,64
27360,note_on,,,,,120,0,3,,,,,2,44,0
27480,note_on,,,,,360,0,2,,,,,1,71,0
27480,note_on,,,,,120,0,3,,,,,2,46,0
27480,note_on,,,,,0,0,3,,,,,2,42,64
27480,note_on,,,,,120,0,1,,,,,0,73,0
27480,note_on,,,,,0,0,1,,,,,0,78,64
27480,note_on,,,,,0,0,2,,,,,1,70,64
27600,note_on,,,,,120,0,3,,,,,2,42,0
27600,note_on,,,,,0,0,3,,,,,2,49,64
27600,note_on,,,,,120,0,2,,,,,1,70,0
27600,note_on,,,,,0,0,2,,,,,1,68,64
27720,note_on,,,,,120,0,3,,,,,2,49,0
27720,note_on,,,,,0,0,3,,,,,2,37,64
27720,note_on,,,,,240,0,1,,,,,0,78,0
27720,note_on,,,,,0,0,1,,,,,0,77,64
27840,note_on,,,,,120,0,1,,,,,0,77,0
27840,note_on,,,,,240,0,2,,,,,1,68,0
27840,note_on,,,,,0,0,3,,,,,2,42,64
27840,note_on,,,,,120,0,3,,,,,2,37,0
27840,note_on,,,,,0,0,1,,,,,0,78,64
27840,note_on,,,,,0,0,2,,,,,1,66,64
27960,note_on,,,,,0,0,3,,,,,2,44,64
27960,note_on,,,,,120,0,3,,,,,2,42,0
27960,note_on,,,,,0,0,2,,,,,1,65,64
27960,note_on,,,,,120,0,2,,,,,1,66,0
28080,note_on,,,,,240,0,1,,,,,0,78,0
28080,note_on,,,,,0,0,2,,,,,1,66,64
28080,note_on,,,,,0,0,3,,,,,2,46,64
28080,note_on,,,,,120,0,3,,,,,2,44,0
28080,note_on,,,,,120,0,2,,,,,1,65,0
28080,note_on,,,,,0,0,1,,,,,0,73,64
28200,note_on,,,,,0,0,3,,,,,2,44,64
28200,note_on,,,,,120,0,3,,,,,2,46,0
28200,note_on,,,,,120,0,2,,,,,1,66,0
28200,note_on,,,,,0,0,2,,,,,1,68,64
28320,note_on,,,,,0,0,3,,,,,2,42,64
28320,note_on,,,,,120,0,3,,,,,2,44,0
28320,note_on,,,,,120,0,2,,,,,1,68,0
28320,note_on,,,,,0,0,2,,,,,1,70,64
28440,note_on,,,,,120,0,2,,,,,1,70,0
28440,note_on,,,,,120,0,3,,,,,2,42,0
28440,note_on,,,,,0,0,3,,,,,2,54,64
28440,note_on,,,,,360,0,1,,,,,0,73,0
28440,note_on,,,,,0,0,1,,,,,0,71,64
28440,note_on,,,,,0,0,2,,,,,1,68,64
28560,note_on,,,,,0,0,2,,,,,1,70,64
28560,note_on,,,,,0,0,1,,,,,0,73,64
28560,note_on,,,,,120,0,2,,,,,1,68,0
28560,note_on,,,,,120,0,1,,,,,0,71,0
28560,note_on,,,,,0,0,3,,,,,2,53,64
28560,note_on,,,,,120,0,3,,,,,2,54,0
28680,note_on,,,,,120,0,2,,,,,1,70,0
28680,note_on,,,,,0,0,2,,,,,1,72,64
28680,note_on,,,,,0,0,3,,,,,2,51,64
28680,note_on,,,,,0,0,1,,,,,0,75,64
28680,note_on,,,,,120,0,3,,,,,2,53,0
28680,note_on,,,,,120,0,1,,,,,0,73,0
28800,note_on,,,,,120,0,3,,,,,2,51,0
28800,note_on,,,,,0,0,3,,,,,2,49,64
28800,note_on,,,,,0,0,1,,,,,0,77,64
28800,note_on,,,,,120,0,1,,,,,0,75,0
28800,note_on,,,,,120,0,2,,,,,1,72,0
28800,note_on,,,,,0,0,2,,,,,1,73,64
28920,note_on,,,,,120,0,1,,,,,0,77,0
28920,note_on,,,,,0,0,1,,,,,0,75,64
28920,note_on,,,,,0,0,2,,,,,1,71,64
28920,note_on,,,,,120,0,2,,,,,1,73,0
29040,note_on,,,,,120,0,1,,,,,0,75,0
29040,note_on,,,,,0,0,1,,,,,0,73,64
29040,note_on,,,,,0,0,3,,,,,2,54,64
29040,note_on,,,,,240,0,3,,,,,2,49,0
29160,note_on,,,,,0,0,2,,,,,1,70,64
29160,note_on,,,,,240,0,2,,,,,1,71,0
29280,note_on,,,,,0,0,2,,,,,1,71,64
29280,note_on,,,,,120,0,2,,,,,1,70,0
29280,note_on,,,,,240,0,1,,,,,0,73,0
29280,note_on,,,,,0,0,1,,,,,0,80,64
29400,note_on,,,,,0,0,2,,,,,1,70,64
29400,note_on,,,,,120,0,2,,,,,1,71,0
29520,note_on,,,,,0,0,1,,,,,0,73,64
29520,note_on,,,,,240,0,1,,,,,0,80,0
29520,note_on,,,,,0,0,2,,,,,1,68,64
29520,note_on,,,,,120,0,2,,,,,1,70,0
29520,note_on,,,,,480,0,3,,,,,2,54,0
29520,note_on,,,,,0,0,3,,,,,2,53,64
29640,note_on,,,,,0,0,2,,,,,1,71,64
29640,note_on,,,,,120,0,2,,,,,1,68,0
29760,note_on,,,,,240,0,3,,,,,2,53,0
29760,note_on,,,,,0,0,3,,,,,2,54,64
29760,note_on,,,,,0,0,2,,,,,1,70,64
29760,note_on,,,,,120,0,2,,,,,1,71,0
29880,note_on,,,,,360,0,1,,,,,0,73,0
29880,note_on,,,,,120,0,3,,,,,2,54,0
29880,note_on,,,,,0,0,3,,,,,2,53,64
29880,note_on,,,,,0,0,1,,,,,0,75,64
30000,note_on,,,,,0,0,3,,,,,2,51,64
30000,note_on,,,,,120,0,3,,,,,2,53,0
30000,note_on,,,,,0,0,1,,,,,0,77,64
30000,note_on,,,,,120,0,1,,,,,0,75,0
30120,note_on,,,,,0,0,3,,,,,2,50,64
30120,note_on,,,,,120,0,3,,,,,2,51,0
30240,note_on,,,,,120,0,3,,,,,2,50,0
30240,note_on,,,,,0,0,1,,,,,0,78,64
30240,note_on,,,,,240,0,1,,,,,0,77,0
30240,note_on,,,,,0,0,3,,,,,2,51,64
30240,note_on,,,,,480,0,2,,,,,1,70,0
30360,note_on,,,,,120,0,2,,,,,1,72,64
30480,note_on,,,,,0,0,3,,,,,2,46,64
30480,note_on,,,,,120,0,2,,,,,1,72,0
30480,note_on,,,,,240,0,3,,,,,2,51,0
30480,note_on,,,,,0,0,2,,,,,1,73,64
30600,note_on,,,,,120,0,2,,,,,1,73,0
30600,note_on,,,,,0,0,2,,,,,1,75,64
30600,note_on,,,,,0,0,3,,,,,2,48,64
30600,note_on,,,,,120,0,3,,,,,2,46,0
30720,note_on,,,,,0,0,3,,,,,2,49,64
30720,note_on,,,,,0,0,2,,,,,1,68,64
30720,note_on,,,,,480,0,1,,,,,0,78,0
30720,note_on,,,,,120,0,2,,,,,1,75,0
30720,note_on,,,,,120,0,3,,,,,2,48,0
30840,note_on,,,,,120,0,1,,,,,0,77,64
30960,note_on,,,,,0,0,1,,,,,0,75,64
30960,note_on,,,,,240,0,2,,,,,1,68,0
30960,note_on,,,,,0,0,2,,,,,1,70,64
30960,note_on,,,,,0,0,3,,,,,2,42,64
30960,note_on,,,,,240,0,3,,,,,2,49,0
30960,note_on,,,,,120,0,1,,,,,0,77,0
31080,note_on,,,,,0,0,1,,,,,0,73,64
31080,note_on,,,,,120,0,1,,,,,0,75,0
31200,note_on,,,,,0,0,1,,,,,0,72,64
31200,note_on,,,,,0,0,3,,,,,2,44,64
31200,note_on,,,,,240,0,3,,,,,2,42,0
31200,note_on,,,,,120,0,1,,,,,0,73,0
31320,note_on,,,,,360,0,2,,,,,1,70,0
31320,note_on,,,,,0,0,2,,,,,1,68,64
31440,note_on,,,,,0,0,2,,,,,1,66,64
31440,note_on,,,,,240,0,1,,,,,0,72,0
31440,note_on,,,,,0,0,1,,,,,0,74,64
31440,note_on,,,,,0,0,3,,,,,2,46,64
31440,note_on,,,,,240,0,3,,,,,2,44,0
31440,note_on,,,,,120,0,2,,,,,1,68,0
31560,note_on,,,,,0,0,2,,,,,1,65,64
31560,note_on,,,,,120,0,2,,,,,1,66,0
31680,note_on,,,,,0,0,2,,,,,1,63,64
31680,note_on,,,,,120,0,2,,,,,1,65,0
31680,note_on,,,,,0,0,1,,,,,0,75,64
31680,note_on,,,,,0,0,3,,,,,2,47,64
31680,note_on,,,,,240,0,1,,,,,0,74,0
31680,note_on,,,,,240,0,3,,,,,2,46,0
31800,note_on,,,,,0,0,2,,,,,1,66,64
31800,note_on,,,,,120,0,3,,,,,2,47,0
31800,note_on,,,,,120,0,2,,,,,1,63,0
31800,note_on,,,,,0,0,3,,,,,2,46,64
31920,note_on,,,,,0,0,2,,,,,1,71,64
31920,note_on,,,,,120,0,3,,,,,2,46,0
31920,note_on,,,,,0,0,3,,,,,2,44,64
31920,note_on,,,,,120,0,2,,,,,1,66,0
32040,note_on,,,,,120,0,3,,,,,2,44,0
32040,note_on,,,,,0,0,3,,,,,2,42,64
32160,note_on,,,,,0,0,1,,,,,0,73,64
32160,note_on,,,,,480,0,1,,,,,0,75,0
32160,note_on,,,,,0,0,3,,,,,2,40,64
32160,note_on,,,,,120,0,3,,,,,2,42,0
32280,note_on,,,,,360,0,2,,,,,1,71,0
32280,note_on,,,,,0,0,2,,,,,1,70,64
32400,note_on,,,,,240,0,3,,,,,2,40,0
32400,note_on,,,,,0,0,3,,,,,2,39,64
32400,note_on,,,,,120,0,2,,,,,1,70,0
32400,note_on,,,,,0,0,2,,,,,1,68,64
32520,note_on,,,,,120,0,2,,,,,1,68,0
32520,note_on,,,,,0,0,2,,,,,1,67,64
32640,note_on,,,,,120,0,2,,,,,1,67,0
32640,note_on,,,,,240,0,3,,,,,2,39,0
32640,note_on,,,,,0,0,3,,,,,2,44,64
32640,note_on,,,,,480,0,1,,,,,0,73,0
32640,note_on,,,,,0,0,1,,,,,0,71,64
32640,note_on,,,,,0,0,2,,,,,1,68,64
32760,note_on,,,,,0,0,1,,,,,0,73,64
32760,note_on,,,,,120,0,1,,,,,0,71,0
32760,note_on,,,,,120,0,3,,,,,2,44,0
32760,note_on,,,,,0,0,3,,,,,2,46,64
32880,note_on,,,,,120,0,3,,,,,2,46,0
32880,note_on,,,,,0,0,3,,,,,2,47,64
32880,note_on,,,,,0,0,1,,,,,0,75,64
32880,note_on,,,,,120,0,1,,,,,0,73,0
33000,note_on,,,,,0,0,3,,,,,2,49,64
33000,note_on,,,,,120,0,3,,,,,2,47,0
33000,note_on,,,,,120,0,1,,,,,0,75,0
33000,note_on,,,,,0,0,1,,,,,0,76,64
33120,note_on,,,,,0,0,3,,,,,2,51,64
33120,note_on,,,,,120,0,3,,,,,2,49,0
33120,note_on,,,,,0,0,1,,,,,0,70,64
33120,note_on,,,,,120,0,1,,,,,0,76,0
33240,note_on,,,,,120,0,1,,,,,0,70,0
33240,note_on,,,,,0,0,1,,,,,0,71,64
33360,note_on,,,,,720,0,2,,,,,1,68,0
33360,note_on,,,,,0,0,2,,,,,1,67,64
33360,note_on,,,,,240,0,3,,,,,2,51,0
33360,note_on,,,,,120,0,1,,,,,0,71,0
33360,note_on,,,,,0,0,1,,,,,0,73,64
33480,note_on,,,,,120,0,3,,,,,2,51,64
33480,note_on,,,,,0,0,1,,,,,0,75,64
33480,note_on,,,,,120,0,1,,,,,0,73,0
33600,note_on,,,,,0,0,3,,,,,2,56,64
33600,note_on,,,,,120,0,3,,,,,2,51,0
33600,note_on,,,,,120,0,1,,,,,0,75,0
33600,note_on,,,,,0,0,1,,,,,0,71,64
33600,note_on,,,,,240,0,2,,,,,1,67,0
33600,note_on,,,,,0,0,2,,,,,1,68,64
33720,note_on,,,,,0,0,3,,,,,2,58,64
33720,note_on,,,,,120,0,3,,,,,2,56,0
33720,note_on,,,,,120,0,1,,,,,0,71,0
33720,note_on,,,,,0,0,1,,,,,0,70,64
33840,note_on,,,,,120,0,1,,,,,0,70,0
33840,note_on,,,,,0,0,1,,,,,0,68,64
33840,note_on,,,,,240,0,2,,,,,1,68,0
33840,note_on,,,,,0,0,3,,,,,2,59,64
33840,note_on,,,,,120,0,3,,,,,2,58,0
33840,note_on,,,,,0,0,2,,,,,1,63,64
33960,note_on,,,,,0,0,3,,,,,2,56,64
33960,note_on,,,,,120,0,3,,,,,2,59,0
33960,note_on,,,,,120,0,1,,,,,0,68,0
33960,note_on,,,,,0,0,1,,,,,0,66,64
34080,note_on,,,,,120,0,3,,,,,2,56,0
34080,note_on,,,,,0,0,3,,,,,2,58,64
34080,note_on,,,,,120,0,1,,,,,0,66,0
34080,note_on,,,,,0,0,1,,,,,0,65,64
34200,note_on,,,,,0,0,2,,,,,1,62,64
34200,note_on,,,,,360,0,2,,,,,1,63,0
34200,note_on,,,,,120,0,3,,,,,2,58,0
34200,note_on,,,,,0,0,3,,,,,2,56,64
34320,note_on,,,,,0,0,2,,,,,1,63,64
34320,note_on,,,,,120,0,2,,,,,1,62,0
34320,note_on,,,,,120,0,3,,,,,2,56,0
34320,note_on,,,,,0,0,3,,,,,2,54,64
34320,note_on,,,,,240,0,1,,,,,0,65,0
34320,note_on,,,,,0,0,1,,,,,0,66,64
34440,note_on,,,,,120,0,1,,,,,0,66,0
34440,note_on,,,,,0,0,1,,,,,0,68,64
34440,note_on,,,,,0,0,3,,,,,2,53,64
34440,note_on,,,,,120,0,3,,,,,2,54,0
34440,note_on,,,,,120,0,2,,,,,1,63,0
34440,note_on,,,,,0,0,2,,,,,1,65,64
34560,note_on,,,,,120,0,3,,,,,2,53,0
34560,note_on,,,,,120,0,1,,,,,0,68,0
34560,note_on,,,,,0,0,1,,,,,0,70,64
34560,note_on,,,,,0,0,3,,,,,2,51,64
34560,note_on,,,,,0,0,2,,,,,1,66,64
34560,note_on,,,,,120,0,2,,,,,1,65,0
34680,note_on,,,,,120,0,2,,,,,1,66,0
34680,note_on,,,,,0,0,2,,,,,1,65,64
34800,note_on,,,,,120,0,2,,,,,1,65,0
34800,note_on,,,,,0,0,2,,,,,1,63,64
34800,note_on,,,,,0,0,3,,,,,2,56,64
34800,note_on,,,,,0,0,1,,,,,0,72,64
34800,note_on,,,,,240,0,1,,,,,0,70,0
34800,note_on,,,,,240,0,3,,,,,2,51,0
34920,note_on,,,,,0,0,1,,,,,0,74,64
34920,note_on,,,,,120,0,1,,,,,0,72,0
35040,note_on,,,,,240,0,2,,,,,1,63,0
35040,note_on,,,,,0,0,2,,,,,1,70,64
35040,note_on,,,,,120,0,1,,,,,0,74,0
35040,note_on,,,,,0,0,1,,,,,0,75,64
35160,note_on,,,,,360,0,3,,,,,2,56,0
35160,note_on,,,,,0,0,3,,,,,2,55,64
35220,note_on,,,,,60,0,3,,,,,2,55,0
35220,note_on,,,,,0,0,3,,,,,2,53,64
35280,note_on,,,,,0,0,2,,,,,1,63,64
35280,note_on,,,,,240,0,2,,,,,1,70,0
35280,note_on,,,,,60,0,3,,,,,2,53,0
35280,note_on,,,,,0,0,3,,,,,2,55,64
35400,note_on,,,,,360,0,1,,,,,0,75,0
35400,note_on,,,,,0,0,1,,,,,0,73,64
35520,note_on,,,,,120,0,1,,,,,0,73,0
35520,note_on,,,,,0,0,1,,,,,0,72,64
35520,note_on,,,,,240,0,3,,,,,2,55,0
35520,note_on,,,,,0,0,3,,,,,2,56,64
35640,note_on,,,,,360,0,2,,,,,1,63,0
35640,note_on,,,,,0,0,2,,,,,1,65,64
35640,note_on,,,,,120,0,1,,,,,0,72,0
35640,note_on,,,,,0,0,1,,,,,0,74,64
35640,note_on,,,,,0,0,3,,,,,2,54,64
35640,note_on,,,,,120,0,3,,,,,2,56,0
35760,note_on,,,,,0,0,2,,,,,1,66,64
35760,note_on,,,,,0,0,3,,,,,2,53,64
35760,note_on,,,,,120,0,3,,,,,2,54,0
35760,note_on,,,,,120,0,2,,,,,1,65,0
35760,note_on,,,,,120,0,1,,,,,0,74,0
35760,note_on,,,,,0,0,1,,,,,0,75,64
35880,note_on,,,,,120,0,3,,,,,2,53,0
35880,note_on,,,,,0,0,3,,,,,2,51,64
36000,note_on,,,,,120,0,3,,,,,2,51,0
36000,note_on,,,,,240,0,2,,,,,1,66,0
36000,note_on,,,,,0,0,2,,,,,1,68,64
36000,note_on,,,,,0,0,3,,,,,2,53,64
36120,note_on,,,,,120,0,3,,,,,2,53,0
36120,note_on,,,,,0,0,3,,,,,2,54,64
36240,note_on,,,,,0,0,1,,,,,0,74,64
36240,note_on,,,,,480,0,1,,,,,0,75,0
36240,note_on,,,,,0,0,3,,,,,2,56,64
36240,note_on,,,,,120,0,3,,,,,2,54,0
36360,note_on,,,,,0,0,3,,,,,2,58,64
36360,note_on,,,,,120,0,3,,,,,2,56,0
36480,note_on,,,,,240,0,1,,,,,0,74,0
36480,note_on,,,,,480,0,2,,,,,1,68,0
36480,note_on,,,,,120,0,3,,,,,2,58,0
36480,note_on,,,,,0,0,3,,,,,2,51,64
36480,note_on,,,,,0,0,1,,,,,0,75,64
36480,note_on,,,,,0,0,2,,,,,1,66,64
36540,note_on,,,,,60,0,3,,,,,2,51,0
36540,note_on,,,,,0,0,3,,,,,2,63,64
36600,note_on,,,,,0,0,3,,,,,2,61,64
36600,note_on,,,,,120,0,2,,,,,1,66,0
36600,note_on,,,,,0,0,2,,,,,1,68,64
36600,note_on,,,,,60,0,3,,,,,2,63,0
36660,note_on,,,,,60,0,3,,,,,2,61,0
36660,note_on,,,,,0,0,3,,,,,2,59,64
36720,note_on,,,,,0,0,1,,,,,0,74,64
36720,note_on,,,,,120,0,2,,,,,1,68,0
36720,note_on,,,,,0,0,2,,,,,1,70,64
36720,note_on,,,,,0,0,3,,,,,2,58,64
36720,note_on,,,,,60,0,3,,,,,2,59,0
36720,note_on,,,,,240,0,1,,,,,0,75,0
36840,note_on,,,,,0,0,2,,,,,1,72,64
36840,note_on,,,,,0,0,1,,,,,0,75,64
36840,note_on,,,,,120,0,1,,,,,0,74,0
36840,note_on,,,,,120,0,2,,,,,1,70,0
36960,note_on,,,,,120,0,2,,,,,1,72,0
36960,note_on,,,,,0,0,2,,,,,1,74,64
36960,note_on,,,,,120,0,1,,,,,0,75,0
36960,note_on,,,,,0,0,1,,,,,0,77,64
37080,note_on,,,,,120,0,1,,,,,0,77,0
37080,note_on,,,,,0,0,1,,,,,0,80,64
37080,note_on,,,,,0,0,3,,,,,2,54,64
37080,note_on,,,,,360,0,3,,,,,2,58,0
37080,note_on,,,,,0,0,2,,,,,1,58,64
37080,note_on,,,,,120,0,2,,,,,1,74,0
37200,note_on,,,,,0,0,2,,,,,1,60,64
37200,note_on,,,,,120,0,1,,,,,0,80,0
37200,note_on,,,,,0,0,1,,,,,0,78,64
37200,note_on,,,,,120,0,3,,,,,2,54,0
37200,note_on,,,,,0,0,3,,,,,2,56,64
37200,note_on,,,,,120,0,2,,,,,1,58,0
37320,note_on,,,,,0,0,3,,,,,2,58,64
37320,note_on,,,,,120,0,3,,,,,2,56,0
37320,note_on,,,,,120,0,2,,,,,1,60,0
37320,note_on,,,,,0,0,2,,,,,1,62,64
37320,note_on,,,,,0,0,1,,,,,0,77,64
37320,note_on,,,,,120,0,1,,,,,0,78,0
37440,note_on,,,,,120,0,3,,,,,2,58,0
37440,note_on,,,,,0,0,3,,,,,2,59,64
37440,note_on,,,,,120,0,2,,,,,1,62,0
37440,note_on,,,,,0,0,2,,,,,1,63,64
37440,note_on,,,,,120,0,1,,,,,0,77,0
37440,note_on,,,,,0,0,1,,,,,0,75,64
37560,note_on,,,,,0,0,3,,,,,2,58,64
37560,note_on,,,,,0,0,1,,,,,0,73,64
37560,note_on,,,,,120,0,3,,,,,2,59,0
37560,note_on,,,,,120,0,1,,,,,0,75,0
37680,note_on,,,,,120,0,3,,,,,2,58,0
37680,note_on,,,,,0,0,1,,,,,0,71,64
37680,note_on,,,,,120,0,1,,,,,0,73,0
37680,note_on,,,,,0,0,3,,,,,2,56,64
37800,note_on,,,,,0,0,1,,,,,0,70,64
37800,note_on,,,,,120,0,1,,,,,0,71,0
37800,note_on,,,,,0,0,2,,,,,1,65,64
37800,note_on,,,,,360,0,2,,,,,1,63,0
37860,note_on,,,,,60,0,1,,,,,0,70,0
37860,note_on,,,,,0,0,1,,,,,0,71,64
37920,note_on,,,,,60,0,1,,,,,0,71,0
37920,note_on,,,,,0,0,1,,,,,0,70,64
37920,note_on,,,,,240,0,3,,,,,2,56,0
37920,note_on,,,,,0,0,3,,,,,2,63,64
37920,note_on,,,,,120,0,2,,,,,1,65,0
37920,note_on,,,,,0,0,2,,,,,1,66,64
38040,note_on,,,,,0,0,1,,,,,0,72,64
38040,note_on,,,,,120,0,1,,,,,0,70,0
38160,note_on,,,,,0,0,2,,,,,1,65,64
38160,note_on,,,,,240,0,2,,,,,1,66,0
38160,note_on,,,,,240,0,3,,,,,2,63,0
38160,note_on,,,,,0,0,3,,,,,2,58,64
38160,note_on,,,,,0,0,1,,,,,0,74,64
38160,note_on,,,,,120,0,1,,,,,0,72,0
38280,note_on,,,,,0,0,1,,,,,0,75,64
38280,note_on,,,,,0,0,2,,,,,1,63,64
38280,note_on,,,,,120,0,2,,,,,1,65,0
38280,note_on,,,,,120,0,1,,,,,0,74,0
38400,note_on,,,,,120,0,2,,,,,1,63,0
38400,note_on,,,,,120,0,1,,,,,0,75,0
38400,note_on,,,,,0,0,1,,,,,0,77,64
38400,note_on,,,,,0,0,2,,,,,1,62,64
38520,note_on,,,,,120,0,2,,,,,1,62,0
38520,note_on,,,,,0,0,2,,,,,1,63,64
38520,note_on,,,,,120,0,1,,,,,0,77,0
38520,note_on,,,,,0,0,1,,,,,0,70,64
38520,note_on,,,,,360,0,3,,,,,2,58,0
38520,note_on,,,,,0,0,3,,,,,2,60,64
38640,note_on,,,,,120,0,2,,,,,1,63,0
38640,note_on,,,,,0,0,2,,,,,1,65,64
38640,note_on,,,,,120,0,1,,,,,0,70,0
38640,note_on,,,,,0,0,1,,,,,0,82,64
38640,note_on,,,,,120,0,3,,,,,2,60,0
38640,note_on,,,,,0,0,3,,,,,2,62,64
38760,note_on,,,,,120,0,1,,,,,0,82,0
38760,note_on,,,,,0,0,1,,,,,0,80,64
38880,note_on,,,,,0,0,3,,,,,2,63,64
38880,note_on,,,,,120,0,1,,,,,0,80,0
38880,note_on,,,,,0,0,1,,,,,0,78,64
38880,note_on,,,,,240,0,3,,,,,2,62,0
39000,note_on,,,,,0,0,2,,,,,1,63,64
39000,note_on,,,,,0,0,1,,,,,0,80,64
39000,note_on,,,,,0,0,3,,,,,2,59,64
39000,note_on,,,,,120,0,3,,,,,2,63,0
39000,note_on,,,,,120,0,1,,,,,0,78,0
39000,note_on,,,,,360,0,2,,,,,1,65,0
39060,note_on,,,,,60,0,2,,,,,1,63,0
39060,note_on,,,,,0,0,2,,,,,1,62,64
39120,note_on,,,,,60,0,2,,,,,1,62,0
39120,note_on,,,,,0,0,2,,,,,1,63,64
39120,note_on,,,,,120,0,3,,,,,2,59,0
39120,note_on,,,,,120,0,1,,,,,0,80,0
39120,note_on,,,,,0,0,3,,,,,2,54,64
39120,note_on,,,,,0,0,1,,,,,0,82,64
39240,note_on,,,,,120,0,1,,,,,0,82,0
39240,note_on,,,,,0,0,1,,,,,0,83,64
39240,note_on,,,,,120,0,3,,,,,2,54,0
39240,note_on,,,,,0,0,3,,,,,2,56,64
39360,note_on,,,,,0,0,1,,,,,0,77,64
39360,note_on,,,,,120,0,1,,,,,0,83,0
39360,note_on,,,,,0,0,3,,,,,2,58,64
39360,note_on,,,,,120,0,3,,,,,2,56,0
39480,note_on,,,,,360,0,2,,,,,1,63,0
39480,note_on,,,,,0,0,2,,,,,1,61,64
39600,note_on,,,,,0,0,3,,,,,2,51,64
39600,note_on,,,,,0,0,1,,,,,0,79,64
39600,note_on,,,,,240,0,1,,,,,0,77,0
39600,note_on,,,,,120,0,2,,,,,1,61,0
39600,note_on,,,,,0,0,2,,,,,1,59,64
39600,note_on,,,,,240,0,3,,,,,2,58,0
39720,note_on,,,,,120,0,2,,,,,1,59,0
39720,note_on,,,,,0,0,2,,,,,1,58,64
39840,note_on,,,,,120,0,2,,,,,1,58,0
39840,note_on,,,,,0,0,2,,,,,1,59,64
39840,note_on,,,,,0,0,3,,,,,2,56,64
39840,note_on,,,,,240,0,3,,,,,2,51,0
39840,note_on,,,,,240,0,1,,,,,0,79,0
39840,note_on,,,,,0,0,1,,,,,0,80,64
39960,note_on,,,,,0,0,1,,,,,0,78,64
39960,note_on,,,,,120,0,1,,,,,0,80,0
39960,note_on,,,,,120,0,2,,,,,1,59,0
39960,note_on,,,,,0,0,2,,,,,1,63,64
39960,note_on,,,,,0,0,3,,,,,2,58,64
39960,note_on,,,,,120,0,3,,,,,2,56,0
40080,note_on,,,,,120,0,3,,,,,2,58,0
40080,note_on,,,,,120,0,1,,,,,0,78,0
40080,note_on,,,,,0,0,1,,,,,0,77,64
40080,note_on,,,,,0,0,2,,,,,1,68,64
40080,note_on,,,,,120,0,2,,,,,1,63,0
40080,note_on,,,,,0,0,3,,,,,2,59,64
40200,note_on,,,,,120,0,1,,,,,0,77,0
40200,note_on,,,,,0,0,1,,,,,0,75,64
40320,note_on,,,,,120,0,1,,,,,0,75,0
40320,note_on,,,,,0,0,1,,,,,0,74,64
40320,note_on,,,,,240,0,3,,,,,2,59,0
40320,note_on,,,,,0,0,3,,,,,2,58,64
40440,note_on,,,,,0,0,2,,,,,1,66,64
40440,note_on,,,,,360,0,2,,,,,1,68,0
40560,note_on,,,,,0,0,2,,,,,1,65,64
40560,note_on,,,,,120,0,2,,,,,1,66,0
40560,note_on,,,,,0,0,1,,,,,0,75,64
40560,note_on,,,,,240,0,1,,,,,0,74,0
40680,note_on,,,,,0,0,2,,,,,1,63,64
40680,note_on,,,,,120,0,2,,,,,1,65,0
40800,note_on,,,,,0,0,2,,,,,1,65,64
40800,note_on,,,,,480,0,3,,,,,2,58,0
40800,note_on,,,,,120,0,2,,,,,1,63,0
40920,note_on,,,,,0,0,1,,,,,0,73,64
40920,note_on,,,,,360,0,1,,,,,0,75,0
41040,note_on,,,,,240,0,2,,,,,1,65,0
41040,note_on,,,,,0,0,2,,,,,1,67,64
41040,note_on,,,,,120,0,1,,,,,0,73,0
41040,note_on,,,,,0,0,1,,,,,0,71,64
41160,note_on,,,,,0,0,1,,,,,0,70,64
41160,note_on,,,,,120,0,1,,,,,0,71,0
41280,note_on,,,,,0,0,1,,,,,0,71,64
41280,note_on,,,,,240,0,2,,,,,1,67,0
41280,note_on,,,,,0,0,2,,,,,1,68,64
41280,note_on,,,,,120,0,1,,,,,0,70,0
41400,note_on,,,,,120,0,1,,,,,0,71,0
41400,note_on,,,,,0,0,1,,,,,0,70,64
41400,note_on,,,,,120,0,2,,,,,1,68,0
41400,note_on,,,,,0,0,2,,,,,1,66,64
41520,note_on,,,,,0,0,1,,,,,0,68,64
41520,note_on,,,,,120,0,1,,,,,0,70,0
41520,note_on,,,,,0,0,2,,,,,1,65,64
41520,note_on,,,,,120,0,2,,,,,1,66,0
41640,note_on,,,,,120,0,2,,,,,1,65,0
41640,note_on,,,,,0,0,2,,,,,1,63,64
41760,note_on,,,,,0,0,2,,,,,1,62,64
41760,note_on,,,,,120,0,2,,,,,1,63,0
41760,note_on,,,,,960,0,3,,,,,2,46,64
41880,note_on,,,,,0,0,1,,,,,0,66,64
41880,note_on,,,,,360,0,1,,,,,0,68,0
41940,note_on,,,,,0,0,1,,,,,0,65,64
41940,note_on,,,,,60,0,1,,,,,0,66,0
42000,note_on,,,,,0,0,1,,,,,0,66,64
42000,note_on,,,,,240,0,2,,,,,1,62,0
42000,note_on,,,,,60,0,1,,,,,0,65,0
42000,note_on,,,,,0,0,2,,,,,1,63,64
42000,note_on,,,,,240,0,3,,,,,2,46,0
42000,note_on,,,,,0,0,3,,,,,2,39,64
42120,note_on,,,,,120,0,2,,,,,1,63,0
42120,note_on,,,,,120,0,1,,,,,0,66,0
42120,note_on,,,,,0,0,1,,,,,0,68,64
42120,note_on,,,,,0,0,2,,,,,1,65,64
42240,note_on,,,,,0,0,2,,,,,1,66,64
42240,note_on,,,,,120,0,2,,,,,1,65,0
42240,note_on,,,,,120,0,1,,,,,0,68,0
42240,note_on,,,,,0,0,1,,,,,0,70,64
42360,note_on,,,,,360,0,3,,,,,2,39,0
42360,note_on,,,,,120,0,2,,,,,1,66,0
42360,note_on,,,,,0,0,3,,,,,2,38,64
42360,note_on,,,,,0,0,2,,,,,1,65,64
42480,note_on,,,,,240,0,1,,,,,0,70,0
42480,note_on,,,,,0,0,1,,,,,0,63,64
42480,note_on,,,,,0,0,2,,,,,1,66,64
42480,note_on,,,,,120,0,3,,,,,2,38,0
42480,note_on,,,,,0,0,3,,,,,2,39,64
42480,note_on,,,,,120,0,2,,,,,1,65,0
42600,note_on,,,,,120,0,2,,,,,1,66,0
42600,note_on,,,,,120,0,3,,,,,2,39,0
42600,note_on,,,,,0,0,2,,,,,1,68,64
42600,note_on,,,,,0,0,3,,,,,2,41,64
42720,note_on,,,,,120,0,2,,,,,1,68,0
42720,note_on,,,,,0,0,2,,,,,1,70,64
42720,note_on,,,,,120,0,3,,,,,2,41,0
42720,note_on,,,,,0,0,3,,,,,2,42,64
42840,note_on,,,,,120,0,2,,,,,1,70,0
42840,note_on,,,,,0,0,2,,,,,1,68,64
42840,note_on,,,,,0,0,3,,,,,2,41,64
42840,note_on,,,,,360,0,1,,,,,0,63,0
42840,note_on,,,,,0,0,1,,,,,0,62,64
42840,note_on,,,,,120,0,3,,,,,2,42,0
42960,note_on,,,,,120,0,3,,,,,2,41,0
42960,note_on,,,,,0,0,3,,,,,2,39,64
42960,note_on,,,,,0,0,2,,,,,1,66,64
42960,note_on,,,,,120,0,2,,,,,1,68,0
42960,note_on,,,,,120,0,1,,,,,0,62,0
42960,note_on,,,,,0,0,1,,,,,0,63,64
43080,note_on,,,,,120,0,2,,,,,1,66,0
43080,note_on,,,,,120,0,1,,,,,0,63,0
43080,note_on,,,,,0,0,1,,,,,0,65,64
43140,note_on,,,,,60,0,2,,,,,1,63,64
43200,note_on,,,,,0,0,1,,,,,0,66,64
43200,note_on,,,,,120,0,1,,,,,0,65,0
43200,note_on,,,,,240,0,3,,,,,2,39,0
43200,note_on,,,,,0,0,3,,,,,2,46,64
43200,note_on,,,,,0,0,2,,,,,1,62,64
43200,note_on,,,,,60,0,2,,,,,1,63,0
43320,note_on,,,,,120,0,2,,,,,1,62,0
43320,note_on,,,,,120,0,1,,,,,0,66,0
43320,note_on,,,,,0,0,1,,,,,0,65,64
43320,note_on,,,,,0,0,2,,,,,1,68,64
43440,note_on,,,,,0,0,3,,,,,2,39,64
43440,note_on,,,,,240,0,3,,,,,2,46,0
43440,note_on,,,,,0,0,1,,,,,0,63,64
43440,note_on,,,,,120,0,1,,,,,0,65,0
43560,note_on,,,,,240,0,2,,,,,1,68,0
43560,note_on,,,,,0,0,2,,,,,1,66,64
43620,note_on,,,,,60,0,2,,,,,1,66,0
43620,note_on,,,,,0,0,2,,,,,1,65,64
43680,note_on,,,,,0,0,1,,,,,0,70,64
43680,note_on,,,,,60,0,2,,,,,1,65,0
43680,note_on,,,,,0,0,2,,,,,1,67,64
43680,note_on,,,,,240,0,1,,,,,0,63,0
43800,note_on,,,,,0,0,3,,,,,2,41,64
43800,note_on,,,,,360,0,3,,,,,2,39,0
43800,note_on,,,,,120,0,2,,,,,1,67,0
43800,note_on,,,,,0,0,2,,,,,1,68,64
43920,note_on,,,,,0,0,3,,,,,2,43,64
43920,note_on,,,,,120,0,3,,,,,2,41,0
43920,note_on,,,,,0,0,1,,,,,0,63,64
43920,note_on,,,,,240,0,1,,,,,0,70,0
43920,note_on,,,,,120,0,2,,,,,1,68,0
43920,note_on,,,,,0,0,2,,,,,1,70,64
44040,note_on,,,,,120,0,2,,,,,1,70,0
44040,note_on,,,,,0,0,2,,,,,1,61,64
44160,note_on,,,,,0,0,3,,,,,2,44,64
44160,note_on,,,,,240,0,3,,,,,2,43,0
44160,note_on,,,,,0,0,2,,,,,1,59,64
44160,note_on,,,,,120,0,2,,,,,1,61,0
44280,note_on,,,,,120,0,2,,,,,1,59,0
44280,note_on,,,,,0,0,2,,,,,1,61,64
44280,note_on,,,,,0,0,1,,,,,0,65,64
44280,note_on,,,,,360,0,1,,,,,0,63,0
44400,note_on,,,,,0,0,3,,,,,2,46,64
44400,note_on,,,,,240,0,3,,,,,2,44,0
44400,note_on,,,,,0,0,1,,,,,0,67,64
44400,note_on,,,,,120,0,1,,,,,0,65,0
44400,note_on,,,,,0,0,2,,,,,1,63,64
44400,note_on,,,,,120,0,2,,,,,1,61,0
44520,note_on,,,,,0,0,2,,,,,1,64,64
44520,note_on,,,,,120,0,2,,,,,1,63,0
44640,note_on,,,,,0,0,2,,,,,1,63,64
44640,note_on,,,,,0,0,3,,,,,2,47,64
44640,note_on,,,,,240,0,3,,,,,2,46,0
44640,note_on,,,,,0,0,1,,,,,0,68,64
44640,note_on,,,,,240,0,1,,,,,0,67,0
44640,note_on,,,,,120,0,2,,,,,1,64,0
44760,note_on,,,,,120,0,3,,,,,2,47,0
44760,note_on,,,,,0,0,3,,,,,2,49,64
44880,note_on,,,,,240,0,1,,,,,0,68,0
44880,note_on,,,,,0,0,1,,,,,0,80,64
44880,note_on,,,,,0,0,2,,,,,1,56,64
44880,note_on,,,,,240,0,2,,,,,1,63,0
44880,note_on,,,,,0,0,3,,,,,2,47,64
44880,note_on,,,,,120,0,3,,,,,2,49,0
45000,note_on,,,,,0,0,3,,,,,2,46,64
45000,note_on,,,,,120,0,3,,,,,2,47,0
45120,note_on,,,,,240,0,1,,,,,0,80,0
45120,note_on,,,,,0,0,1,,,,,0,75,64
45120,note_on,,,,,0,0,3,,,,,2,44,64
45120,note_on,,,,,120,0,3,,,,,2,46,0
45240,note_on,,,,,120,0,3,,,,,2,44,0
45240,note_on,,,,,0,0,3,,,,,2,46,64
45240,note_on,,,,,360,0,2,,,,,1,56,0
45240,note_on,,,,,0,0,2,,,,,1,55,64
45360,note_on,,,,,0,0,3,,,,,2,47,64
45360,note_on,,,,,120,0,3,,,,,2,46,0
45360,note_on,,,,,120,0,2,,,,,1,55,0
45360,note_on,,,,,0,0,2,,,,,1,56,64
45480,note_on,,,,,0,0,1,,,,,0,73,64
45480,note_on,,,,,120,0,2,,,,,1,56,0
45480,note_on,,,,,0,0,2,,,,,1,58,64
45480,note_on,,,,,360,0,1,,,,,0,75,0
45480,note_on,,,,,120,0,3,,,,,2,47,0
45480,note_on,,,,,0,0,3,,,,,2,53,64
45540,note_on,,,,,60,0,3,,,,,2,53,0
45540,note_on,,,,,0,0,3,,,,,2,49,64
45600,note_on,,,,,0,0,2,,,,,1,59,64
45600,note_on,,,,,0,0,3,,,,,2,56,64
45600,note_on,,,,,60,0,3,,,,,2,49,0
45600,note_on,,,,,120,0,2,,,,,1,58,0
45600,note_on,,,,,0,0,1,,,,,0,75,64
45600,note_on,,,,,120,0,1,,,,,0,73,0
45720,note_on,,,,,0,0,2,,,,,1,58,64
45720,note_on,,,,,120,0,2,,,,,1,59,0
45840,note_on,,,,,0,0,3,,,,,2,47,64
45840,note_on,,,,,0,0,2,,,,,1,56,64
45840,note_on,,,,,120,0,2,,,,,1,58,0
45840,note_on,,,,,240,0,3,,,,,2,56,0
45960,note_on,,,,,120,0,3,,,,,2,47,0
45960,note_on,,,,,0,0,1,,,,,0,77,64
45960,note_on,,,,,0,0,3,,,,,2,49,64
45960,note_on,,,,,360,0,1,,,,,0,75,0
46080,note_on,,,,,120,0,3,,,,,2,49,0
46080,note_on,,,,,120,0,1,,,,,0,77,0
46080,note_on,,,,,0,0,1,,,,,0,78,64
46080,note_on,,,,,240,0,2,,,,,1,56,0
46080,note_on,,,,,0,0,2,,,,,1,63,64
46080,note_on,,,,,0,0,3,,,,,2,51,64
46200,note_on,,,,,120,0,3,,,,,2,51,0
46200,note_on,,,,,0,0,3,,,,,2,50,64
46320,note_on,,,,,120,0,3,,,,,2,50,0
46320,note_on,,,,,0,0,3,,,,,2,51,64
46320,note_on,,,,,0,0,2,,,,,1,58,64
46320,note_on,,,,,240,0,2,,,,,1,63,0
46440,note_on,,,,,0,0,1,,,,,0,77,64
46440,note_on,,,,,360,0,1,,,,,0,78,0
46440,note_on,,,,,120,0,3,,,,,2,51,0
46440,note_on,,,,,0,0,3,,,,,2,53,64
46560,note_on,,,,,120,0,3,,,,,2,53,0
46560,note_on,,,,,120,0,1,,,,,0,77,0
46560,note_on,,,,,0,0,1,,,,,0,75,64
46560,note_on,,,,,0,0,3,,,,,2,54,64
46680,note_on,,,,,0,0,2,,,,,1,59,64
46680,note_on,,,,,360,0,2,,,,,1,58,0
46680,note_on,,,,,120,0,3,,,,,2,54,0
46680,note_on,,,,,0,0,3,,,,,2,56,64
46800,note_on,,,,,240,0,1,,,,,0,75,0
46800,note_on,,,,,0,0,2,,,,,1,61,64
46800,note_on,,,,,120,0,2,,,,,1,59,0
46800,note_on,,,,,0,0,3,,,,,2,53,64
46800,note_on,,,,,120,0,3,,,,,2,56,0
46800,note_on,,,,,0,0,1,,,,,0,82,64
46920,note_on,,,,,120,0,3,,,,,2,53,0
46920,note_on,,,,,0,0,3,,,,,2,55,64
47040,note_on,,,,,120,0,3,,,,,2,55,0
47040,note_on,,,,,0,0,3,,,,,2,56,64
47040,note_on,,,,,0,0,1,,,,,0,75,64
47040,note_on,,,,,240,0,1,,,,,0,82,0
47160,note_on,,,,,360,0,2,,,,,1,61,0
47160,note_on,,,,,0,0,2,,,,,1,73,64
47160,note_on,,,,,0,0,3,,,,,2,58,64
47160,note_on,,,,,120,0,3,,,,,2,56,0
47280,note_on,,,,,0,0,2,,,,,1,71,64
47280,note_on,,,,,120,0,3,,,,,2,58,0
47280,note_on,,,,,0,0,3,,,,,2,56,64
47280,note_on,,,,,120,0,2,,,,,1,73,0
47400,note_on,,,,,0,0,1,,,,,0,75,64
47400,note_on,,,,,360,0,1,,,,,0,75,0
47400,note_on,,,,,120,0,3,,,,,2,56,0
47400,note_on,,,,,0,0,3,,,,,2,54,64
47400,note_on,,,,,0,0,2,,,,,1,70,64
47400,note_on,,,,,120,0,2,,,,,1,71,0
47520,note_on,,,,,120,0,2,,,,,1,70,0
47520,note_on,,,,,0,0,2,,,,,1,68,64
47520,note_on,,,,,0,0,1,,,,,0,74,64
47520,note_on,,,,,0,0,3,,,,,2,53,64
47520,note_on,,,,,120,0,3,,,,,2,54,0
47520,note_on,,,,,120,0,1,,,,,0,75,0
47640,note_on,,,,,0,0,3,,,,,2,51,64
47640,note_on,,,,,120,0,3,,,,,2,53,0
47640,note_on,,,,,120,0,1,,,,,0,74,0
47640,note_on,,,,,0,0,1,,,,,0,75,64
47640,note_on,,,,,0,0,2,,,,,1,66,64
47640,note_on,,,,,120,0,2,,,,,1,68,0
47760,note_on,,,,,120,0,1,,,,,0,75,0
47760,note_on,,,,,0,0,1,,,,,0,77,64
47760,note_on,,,,,0,0,2,,,,,1,68,64
47760,note_on,,,,,120,0,2,,,,,1,66,0
47760,note_on,,,,,120,0,3,,,,,2,51,0
47760,note_on,,,,,0,0,3,,,,,2,50,64
47880,note_on,,,,,0,0,2,,,,,1,65,64
47880,note_on,,,,,120,0,2,,,,,1,68,0
47880,note_on,,,,,120,0,3,,,,,2,50,0
47880,note_on,,,,,0,0,3,,,,,2,59,64
47880,note_on,,,,,0,0,1,,,,,0,74,64
47880,note_on,,,,,120,0,1,,,,,0,77,0
48000,note_on,,,,,120,0,3,,,,,2,59,0
48000,note_on,,,,,0,0,3,,,,,2,58,64
48000,note_on,,,,,0,0,1,,,,,0,75,64
48000,note_on,,,,,120,0,1,,,,,0,74,0
48000,note_on,,,,,120,0,2,,,,,1,65,0
48000,note_on,,,,,0,0,2,,,,,1,66,64
48120,note_on,,,,,120,0,3,,,,,2,58,0
48120,note_on,,,,,0,0,3,,,,,2,56,64
48120,note_on,,,,,120,0,2,,,,,1,66,0
48120,note_on,,,,,0,0,2,,,,,1,68,64
48120,note_on,,,,,120,0,1,,,,,0,75,0
48120,note_on,,,,,0,0,1,,,,,0,77,64
48240,note_on,,,,,0,0,2,,,,,1,70,64
48240,note_on,,,,,120,0,2,,,,,1,68,0
48240,note_on,,,,,0,0,3,,,,,2,54,64
48240,note_on,,,,,120,0,3,,,,,2,56,0
48240,note_on,,,,,120,0,1,,,,,0,77,0
48240,note_on,,,,,0,0,1,,,,,0,78,64
48360,note_on,,,,,0,0,3,,,,,2,53,64
48360,note_on,,,,,120,0,3,,,,,2,54,0
48360,note_on,,,,,120,0,1,,,,,0,78,0
48360,note_on,,,,,120,0,2,,,,,1,70,0
48360,note_on,,,,,0,0,1,,,,,0,80,64
48360,note_on,,,,,0,0,2,,,,,1,68,64
48480,note_on,,,,,0,0,1,,,,,0,82,64
48480,note_on,,,,,120,0,1,,,,,0,80,0
48480,note_on,,,,,0,0,3,,,,,2,51,64
48480,note_on,,,,,120,0,3,,,,,2,53,0
48600,note_on,,,,,0,0,3,,,,,2,49,64
48600,note_on,,,,,120,0,3,,,,,2,51,0
48600,note_on,,,,,240,0,2,,,,,1,68,0
48600,note_on,,,,,0,0,2,,,,,1,66,64
48600,note_on,,,,,0,0,1,,,,,0,70,64
48600,note_on,,,,,120,0,1,,,,,0,82,0
48660,note_on,,,,,60,0,2,,,,,1,66,0
48660,note_on,,,,,0,0,2,,,,,1,65,64
48720,note_on,,,,,120,0,3,,,,,2,49,0
48720,note_on,,,,,0,0,1,,,,,0,75,64
48720,note_on,,,,,120,0,1,,,,,0,70,0
48720,note_on,,,,,60,0,2,,,,,1,65,0
48720,note_on,,,,,0,0,3,,,,,2,47,64
48720,note_on,,,,,0,0,2,,,,,1,66,64
48840,note_on,,,,,120,0,2,,,,,1,66,0
48840,note_on,,,,,0,0,1,,,,,0,77,64
48840,note_on,,,,,120,0,1,,,,,0,75,0
48840,note_on,,,,,0,0,2,,,,,1,68,64
48960,note_on,,,,,0,0,1,,,,,0,74,64
48960,note_on,,,,,120,0,1,,,,,0,77,0
48960,note_on,,,,,120,0,2,,,,,1,68,0
48960,note_on,,,,,0,0,2,,,,,1,70,64
48960,note_on,,,,,240,0,3,,,,,2,47,0
48960,note_on,,,,,0,0,3,,,,,2,46,64
49200,note_on,,,,,0,0,2,,,,,1,58,64
49200,note_on,,,,,240,0,1,,,,,0,74,0
49200,note_on,,,,,240,0,3,,,,,2,46,0
49200,note_on,,,,,0,0,3,,,,,2,51,64
49200,note_on,,,,,240,0,2,,,,,1,70,0
49440,note_on,,,,,240,0,2,,,,,1,58,0
49440,note_on,,,,,240,0,1,,,,,0,70,64
49440,note_on,,,,,0,0,2,,,,,1,63,64
49560,note_on,,,,,0,0,3,,,,,2,52,64
49560,note_on,,,,,360,0,3,,,,,2,51,0
49680,note_on,,,,,120,0,3,,,,,2,52,0
49680,note_on,,,,,0,0,1,,,,,0,75,64
49680,note_on,,,,,240,0,1,,,,,0,70,0
49680,note_on,,,,,0,0,3,,,,,2,51,64
49800,note_on,,,,,360,0,2,,,,,1,63,0
49800,note_on,,,,,0,0,3,,,,,2,49,64
49800,note_on,,,,,120,0,3,,,,,2,51,0
49800,note_on,,,,,0,0,2,,,,,1,64,64
49920,note_on,,,,,0,0,3,,,,,2,47,64
49920,note_on,,,,,120,0,3,,,,,2,49,0
49920,note_on,,,,,0,0,2,,,,,1,63,64
49920,note_on,,,,,120,0,2,,,,,1,64,0
50040,note_on,,,,,120,0,3,,,,,2,47,0
50040,note_on,,,,,360,0,1,,,,,0,75,0
50040,note_on,,,,,0,0,3,,,,,2,49,64
50040,note_on,,,,,0,0,1,,,,,0,76,64
50040,note_on,,,,,120,0,2,,,,,1,63,0
50040,note_on,,,,,0,0,2,,,,,1,61,64
50160,note_on,,,,,0,0,1,,,,,0,75,64
50160,note_on,,,,,120,0,1,,,,,0,76,0
50160,note_on,,,,,0,0,3,,,,,2,51,64
50160,note_on,,,,,0,0,2,,,,,1,59,64
50160,note_on,,,,,120,0,3,,,,,2,49,0
50160,note_on,,,,,120,0,2,,,,,1,61,0
50280,note_on,,,,,120,0,2,,,,,1,59,0
50280,note_on,,,,,120,0,1,,,,,0,75,0
50280,note_on,,,,,0,0,2,,,,,1,61,64
50280,note_on,,,,,0,0,1,,,,,0,73,64
50400,note_on,,,,,0,0,1,,,,,0,71,64
50400,note_on,,,,,120,0,1,,,,,0,73,0
50400,note_on,,,,,0,0,2,,,,,1,63,64
50400,note_on,,,,,120,0,2,,,,,1,61,0
50400,note_on,,,,,0,0,3,,,,,2,44,64
50400,note_on,,,,,240,0,3,,,,,2,51,0
50520,note_on,,,,,120,0,3,,,,,2,44,0
50520,note_on,,,,,0,0,3,,,,,2,46,64
50520,note_on,,,,,0,0,1,,,,,0,73,64
50520,note_on,,,,,120,0,1,,,,,0,71,0
50640,note_on,,,,,0,0,1,,,,,0,75,64
50640,note_on,,,,,120,0,1,,,,,0,73,0
50640,note_on,,,,,0,0,2,,,,,1,56,64
50640,note_on,,,,,0,0,3,,,,,2,47,64
50640,note_on,,,,,240,0,2,,,,,1,63,0
50640,note_on,,,,,120,0,3,,,,,2,46,0
50760,note_on,,,,,0,0,2,,,,,1,54,64
50760,note_on,,,,,120,0,2,,,,,1,56,0
50880,note_on,,,,,0,0,2,,,,,1,52,64
50880,note_on,,,,,0,0,3,,,,,2,49,64
50880,note_on,,,,,240,0,1,,,,,0,75,0
50880,note_on,,,,,0,0,1,,,,,0,68,64
50880,note_on,,,,,120,0,2,,,,,1,54,0
50880,note_on,,,,,240,0,3,,,,,2,47,0
51000,note_on,,,,,120,0,1,,,,,0,68,0
51000,note_on,,,,,0,0,1,,,,,0,70,64
51060,note_on,,,,,0,0,1,,,,,0,71,64
51060,note_on,,,,,60,0,1,,,,,0,70,0
51120,note_on,,,,,240,0,3,,,,,2,49,0
51120,note_on,,,,,0,0,3,,,,,2,42,64
51120,note_on,,,,,60,0,1,,,,,0,71,0
51120,note_on,,,,,0,0,1,,,,,0,70,64
51120,note_on,,,,,0,0,2,,,,,1,61,64
51120,note_on,,,,,240,0,2,,,,,1,52,0
51240,note_on,,,,,120,0,1,,,,,0,70,0
51240,note_on,,,,,0,0,1,,,,,0,71,64
51360,note_on,,,,,120,0,1,,,,,0,71,0
51360,note_on,,,,,240,0,2,,,,,1,61,0
51360,note_on,,,,,0,0,2,,,,,1,54,64
51360,note_on,,,,,0,0,1,,,,,0,73,64
51480,note_on,,,,,360,0,3,,,,,2,42,0
51480,note_on,,,,,0,0,3,,,,,2,41,64
51600,note_on,,,,,120,0,3,,,,,2,41,0
51600,note_on,,,,,0,0,3,,,,,2,42,64
51600,note_on,,,,,240,0,1,,,,,0,73,0
51600,note_on,,,,,0,0,1,,,,,0,66,64
51720,note_on,,,,,0,0,2,,,,,1,53,64
51720,note_on,,,,,120,0,3,,,,,2,42,0
51720,note_on,,,,,360,0,2,,,,,1,54,0
51720,note_on,,,,,0,0,3,,,,,2,44,64
51840,note_on,,,,,0,0,2,,,,,1,54,64
51840,note_on,,,,,120,0,3,,,,,2,44,0
51840,note_on,,,,,0,0,3,,,,,2,46,64
51840,note_on,,,,,120,0,2,,,,,1,53,0
51960,note_on,,,,,0,0,1,,,,,0,65,64
51960,note_on,,,,,360,0,1,,,,,0,66,0
51960,note_on,,,,,0,0,3,,,,,2,44,64
51960,note_on,,,,,120,0,2,,,,,1,54,0
51960,note_on,,,,,0,0,2,,,,,1,56,64
51960,note_on,,,,,120,0,3,,,,,2,46,0
52080,note_on,,,,,120,0,2,,,,,1,56,0
52080,note_on,,,,,120,0,1,,,,,0,65,0
52080,note_on,,,,,0,0,3,,,,,2,42,64
52080,note_on,,,,,0,0,2,,,,,1,58,64
52080,note_on,,,,,120,0,3,,,,,2,44,0
52080,note_on,,,,,0,0,1,,,,,0,66,64
52200,note_on,,,,,120,0,3,,,,,2,42,0
52200,note_on,,,,,0,0,3,,,,,2,52,64
52200,note_on,,,,,0,0,1,,,,,0,68,64
52200,note_on,,,,,120,0,1,,,,,0,66,0
52200,note_on,,,,,0,0,2,,,,,1,56,64
52200,note_on,,,,,120,0,2,,,,,1,58,0
52320,note_on,,,,,0,0,3,,,,,2,51,64
52320,note_on,,,,,120,0,3,,,,,2,52,0
52320,note_on,,,,,0,0,2,,,,,1,54,64
52320,note_on,,,,,120,0,2,,,,,1,56,0
52320,note_on,,,,,120,0,1,,,,,0,68,0
52320,note_on,,,,,0,0,1,,,,,0,70,64
52440,note_on,,,,,0,0,1,,,,,0,68,64
52440,note_on,,,,,120,0,1,,,,,0,70,0
52560,note_on,,,,,120,0,1,,,,,0,68,0
52560,note_on,,,,,240,0,2,,,,,1,54,0
52560,note_on,,,,,0,0,2,,,,,1,59,64
52560,note_on,,,,,0,0,1,,,,,0,66,64
52680,note_on,,,,,120,0,2,,,,,1,59,0
52680,note_on,,,,,0,0,2,,,,,1,58,64
52800,note_on,,,,,0,0,1,,,,,0,76,64
52800,note_on,,,,,120,0,2,,,,,1,58,0
52800,note_on,,,,,0,0,2,,,,,1,56,64
52800,note_on,,,,,240,0,1,,,,,0,66,0
52800,note_on,,,,,480,0,3,,,,,2,51,0
52920,note_on,,,,,120,0,3,,,,,2,49,64
53040,note_on,,,,,0,0,3,,,,,2,47,64
53040,note_on,,,,,120,0,3,,,,,2,49,0
53040,note_on,,,,,240,0,2,,,,,1,56,0
53040,note_on,,,,,0,0,2,,,,,1,73,64
53160,note_on,,,,,120,0,3,,,,,2,47,0
53160,note_on,,,,,0,0,3,,,,,2,46,64
53280,note_on,,,,,0,0,2,,,,,1,66,64
53280,note_on,,,,,480,0,1,,,,,0,76,0
53280,note_on,,,,,120,0,3,,,,,2,46,0
53280,note_on,,,,,0,0,3,,,,,2,47,64
53280,note_on,,,,,240,0,2,,,,,1,73,0
53400,note_on,,,,,120,0,1,,,,,0,74,64
53520,note_on,,,,,0,0,3,,,,,2,59,64
53520,note_on,,,,,240,0,3,,,,,2,47,0
53520,note_on,,,,,0,0,1,,,,,0,75,64
53520,note_on,,,,,120,0,1,,,,,0,74,0
53640,note_on,,,,,0,0,3,,,,,2,58,64
53640,note_on,,,,,120,0,3,,,,,2,59,0
53760,note_on,,,,,120,0,3,,,,,2,58,0
53760,note_on,,,,,0,0,3,,,,,2,56,64
53760,note_on,,,,,480,0,2,,,,,1,66,0
53760,note_on,,,,,0,0,2,,,,,1,71,64
53880,note_on,,,,,120,0,2,,,,,1,71,0
53880,note_on,,,,,360,0,1,,,,,0,75,0
53880,note_on,,,,,0,0,1,,,,,0,78,64
53880,note_on,,,,,0,0,2,,,,,1,70,64
53880,note_on,,,,,120,0,3,,,,,2,56,0
53880,note_on,,,,,0,0,3,,,,,2,58,64
54000,note_on,,,,,120,0,1,,,,,0,78,0
54000,note_on,,,,,0,0,1,,,,,0,77,64
54000,note_on,,,,,0,0,2,,,,,1,68,64
54000,note_on,,,,,120,0,2,,,,,1,70,0
54000,note_on,,,,,0,0,3,,,,,2,59,64
54000,note_on,,,,,120,0,3,,,,,2,58,0
54120,note_on,,,,,0,0,3,,,,,2,56,64
54120,note_on,,,,,120,0,2,,,,,1,68,0
54120,note_on,,,,,0,0,2,,,,,1,66,64
54120,note_on,,,,,120,0,3,,,,,2,59,0
54120,note_on,,,,,0,0,1,,,,,0,75,64
54120,note_on,,,,,120,0,1,,,,,0,77,0
54240,note_on,,,,,0,0,3,,,,,2,58,64
54240,note_on,,,,,0,0,2,,,,,1,65,64
54240,note_on,,,,,120,0,2,,,,,1,66,0
54240,note_on,,,,,0,0,1,,,,,0,74,64
54240,note_on,,,,,120,0,1,,,,,0,75,0
54240,note_on,,,,,120,0,3,,,,,2,56,0
54360,note_on,,,,,0,0,1,,,,,0,77,64
54360,note_on,,,,,120,0,1,,,,,0,74,0
54360,note_on,,,,,0,0,2,,,,,1,63,64
54360,note_on,,,,,120,0,2,,,,,1,65,0
54480,note_on,,,,,0,0,2,,,,,1,62,64
54480,note_on,,,,,120,0,2,,,,,1,63,0
54480,note_on,,,,,120,0,1,,,,,0,77,0
54480,note_on,,,,,0,0,1,,,,,0,82,64
54600,note_on,,,,,120,0,2,,,,,1,62,0
54600,note_on,,,,,360,0,3,,,,,2,58,0
54600,note_on,,,,,0,0,2,,,,,1,65,64
54600,note_on,,,,,0,0,3,,,,,2,56,64
54720,note_on,,,,,0,0,3,,,,,2,54,64
54720,note_on,,,,,120,0,2,,,,,1,65,0
54720,note_on,,,,,0,0,2,,,,,1,58,64
54720,note_on,,,,,120,0,3,,,,,2,56,0
54840,note_on,,,,,0,0,2,,,,,1,68,64
54840,note_on,,,,,360,0,1,,,,,0,82,0
54840,note_on,,,,,0,0,1,,,,,0,83,64
54840,note_on,,,,,120,0,2,,,,,1,58,0
54840,note_on,,,,,0,0,3,,,,,2,56,64
54840,note_on,,,,,120,0,3,,,,,2,54,0
54960,note_on,,,,,0,0,1,,,,,0,82,64
54960,note_on,,,,,120,0,1,,,,,0,83,0
54960,note_on,,,,,0,0,2,,,,,1,66,64
54960,note_on,,,,,120,0,2,,,,,1,68,0
54960,note_on,,,,,0,0,3,,,,,2,58,64
54960,note_on,,,,,120,0,3,,,,,2,56,0
55080,note_on,,,,,0,0,2,,,,,1,65,64
55080,note_on,,,,,120,0,2,,,,,1,66,0
55080,note_on,,,,,120,0,1,,,,,0,82,0
55080,note_on,,,,,0,0,1,,,,,0,80,64
55200,note_on,,,,,120,0,1,,,,,0,80,0
55200,note_on,,,,,0,0,1,,,,,0,78,64
55200,note_on,,,,,240,0,3,,,,,2,58,0
55200,note_on,,,,,0,0,3,,,,,2,51,64
55200,note_on,,,,,0,0,2,,,,,1,63,64
55200,note_on,,,,,120,0,2,,,,,1,65,0
55320,note_on,,,,,120,0,3,,,,,2,51,0
55320,note_on,,,,,0,0,3,,,,,2,53,64
55320,note_on,,,,,120,0,1,,,,,0,78,0
55320,note_on,,,,,0,0,1,,,,,0,80,64
55440,note_on,,,,,120,0,3,,,,,2,53,0
55440,note_on,,,,,0,0,3,,,,,2,55,64
55440,note_on,,,,,0,0,1,,,,,0,82,64
55440,note_on,,,,,120,0,1,,,,,0,80,0
55440,note_on,,,,,0,0,2,,,,,1,75,64
55440,note_on,,,,,240,0,2,,,,,1,63,0
55560,note_on,,,,,0,0,2,,,,,1,73,64
55560,note_on,,,,,120,0,2,,,,,1,75,0
55680,note_on,,,,,0,0,2,,,,,1,71,64
55680,note_on,,,,,120,0,2,,,,,1,73,0
55680,note_on,,,,,240,0,3,,,,,2,55,0
55680,note_on,,,,,240,0,1,,,,,0,82,0
55680,note_on,,,,,0,0,3,,,,,2,56,64
55680,note_on,,,,,0,0,1,,,,,0,75,64
55800,note_on,,,,,120,0,3,,,,,2,56,0
55800,note_on,,,,,0,0,3,,,,,2,54,64
55800,note_on,,,,,120,0,2,,,,,1,71,0
55800,note_on,,,,,0,0,2,,,,,1,70,64
55920,note_on,,,,,240,0,1,,,,,0,75,0
55920,note_on,,,,,0,0,2,,,,,1,68,64
55920,note_on,,,,,0,0,1,,,,,0,80,64
55920,note_on,,,,,120,0,3,,,,,2,54,0
55920,note_on,,,,,0,0,3,,,,,2,53,64
55920,note_on,,,,,120,0,2,,,,,1,70,0
56040,note_on,,,,,120,0,2,,,,,1,68,0
56040,note_on,,,,,0,0,3,,,,,2,51,64
56040,note_on,,,,,120,0,3,,,,,2,53,0
56040,note_on,,,,,0,0,2,,,,,1,71,64
56160,note_on,,,,,0,0,3,,,,,2,50,64
56160,note_on,,,,,120,0,3,,,,,2,51,0
56160,note_on,,,,,120,0,2,,,,,1,71,0
56160,note_on,,,,,0,0,2,,,,,1,70,64
56280,note_on,,,,,120,0,2,,,,,1,70,0
56280,note_on,,,,,120,0,3,,,,,2,50,0
56280,note_on,,,,,0,0,3,,,,,2,51,64
56280,note_on,,,,,360,0,1,,,,,0,80,0
56280,note_on,,,,,0,0,1,,,,,0,78,64
56280,note_on,,,,,0,0,2,,,,,1,75,64
56400,note_on,,,,,0,0,3,,,,,2,46,64
56400,note_on,,,,,120,0,1,,,,,0,78,0
56400,note_on,,,,,0,0,1,,,,,0,76,64
56400,note_on,,,,,120,0,3,,,,,2,51,0
56520,note_on,,,,,120,0,3,,,,,2,46,0
56520,note_on,,,,,0,0,3,,,,,2,58,64
56520,note_on,,,,,240,0,2,,,,,1,75,0
56520,note_on,,,,,0,0,2,,,,,1,73,64
56640,note_on,,,,,120,0,3,,,,,2,58,0
56640,note_on,,,,,0,0,3,,,,,2,59,64
56640,note_on,,,,,0,0,1,,,,,0,75,64
56640,note_on,,,,,240,0,1,,,,,0,76,0
56760,note_on,,,,,240,0,2,,,,,1,73,0
56760,note_on,,,,,0,0,2,,,,,1,71,64
56760,note_on,,,,,0,0,3,,,,,2,51,64
56760,note_on,,,,,120,0,3,,,,,2,59,0
56880,note_on,,,,,0,0,1,,,,,0,73,64
56880,note_on,,,,,240,0,1,,,,,0,75,0
56880,note_on,,,,,0,0,3,,,,,2,53,64
56880,note_on,,,,,120,0,3,,,,,2,51,0
57000,note_on,,,,,120,0,3,,,,,2,53,0
57000,note_on,,,,,0,0,3,,,,,2,55,64
57000,note_on,,,,,240,0,2,,,,,1,71,0
57000,note_on,,,,,0,0,2,,,,,1,70,64
57120,note_on,,,,,0,0,1,,,,,0,71,64
57120,note_on,,,,,240,0,1,,,,,0,73,0
57120,note_on,,,,,120,0,3,,,,,2,55,0
57120,note_on,,,,,0,0,3,,,,,2,56,64
57240,note_on,,,,,0,0,2,,,,,1,68,64
57240,note_on,,,,,120,0,3,,,,,2,56,0
57240,note_on,,,,,0,0,3,,,,,2,53,64
57240,note_on,,,,,240,0,2,,,,,1,70,0
57360,note_on,,,,,0,0,1,,,,,0,70,64
57360,note_on,,,,,240,0,1,,,,,0,71,0
57360,note_on,,,,,120,0,3,,,,,2,53,0
57360,note_on,,,,,0,0,3,,,,,2,50,64
57480,note_on,,,,,120,0,3,,,,,2,50,0
57480,note_on,,,,,0,0,2,,,,,1,66,64
57480,note_on,,,,,0,0,3,,,,,2,51,64
57480,note_on,,,,,240,0,2,,,,,1,68,0
57600,note_on,,,,,0,0,1,,,,,0,68,64
57600,note_on,,,,,0,0,3,,,,,2,48,64
57600,note_on,,,,,120,0,3,,,,,2,51,0
57600,note_on,,,,,240,0,1,,,,,0,70,0
57720,note_on,,,,,240,0,2,,,,,1,66,0
57720,note_on,,,,,0,0,2,,,,,1,65,64
57720,note_on,,,,,0,0,3,,,,,2,50,64
57720,note_on,,,,,120,0,3,,,,,2,48,0
57840,note_on,,,,,0,0,3,,,,,2,51,64
57840,note_on,,,,,120,0,3,,,,,2,50,0
57840,note_on,,,,,240,0,1,,,,,0,68,0
57840,note_on,,,,,0,0,1,,,,,0,66,64
57960,note_on,,,,,240,0,2,,,,,1,65,0
57960,note_on,,,,,0,0,3,,,,,2,39,64
57960,note_on,,,,,120,0,3,,,,,2,51,0
57960,note_on,,,,,0,0,2,,,,,1,63,64
58080,note_on,,,,,240,0,1,,,,,0,66,0
58080,note_on,,,,,0,0,1,,,,,0,65,64
58080,note_on,,,,,0,0,3,,,,,2,46,64
58080,note_on,,,,,120,0,3,,,,,2,39,0
58080,note_on,,,,,0,0,2,,,,,1,62,64
58080,note_on,,,,,120,0,2,,,,,1,63,0
58200,note_on,,,,,0,0,2,,,,,1,65,64
58200,note_on,,,,,120,0,2,,,,,1,62,0
58320,note_on,,,,,120,0,2,,,,,1,65,0
58320,note_on,,,,,0,0,2,,,,,1,70,64
58320,note_on,,,,,240,0,1,,,,,0,65,0
58320,note_on,,,,,240,0,3,,,,,2,46,0
58440,note_on,,,,,120,0,1,,,,,0,72,64
58560,note_on,,,,,240,0,3,,,,,2,58,64
58560,note_on,,,,,0,0,1,,,,,0,74,64
58560,note_on,,,,,120,0,1,,,,,0,72,0
58680,note_on,,,,,0,0,1,,,,,0,75,64
58680,note_on,,,,,120,0,1,,,,,0,74,0
58680,note_on,,,,,0,0,2,,,,,1,71,64
58680,note_on,,,,,360,0,2,,,,,1,70,0
58800,note_on,,,,,0,0,2,,,,,1,70,64
58800,note_on,,,,,120,0,2,,,,,1,71,0
58800,note_on,,,,,0,0,1,,,,,0,77,64
58800,note_on,,,,,120,0,1,,,,,0,75,0
58920,note_on,,,,,0,0,2,,,,,1,68,64
58920,note_on,,,,,120,0,2,,,,,1,70,0
59040,note_on,,,,,480,0,3,,,,,2,58,0
59040,note_on,,,,,0,0,2,,,,,1,66,64
59040,note_on,,,,,120,0,2,,,,,1,68,0
59040,note_on,,,,,0,0,3,,,,,2,63,64
59160,note_on,,,,,0,0,2,,,,,1,68,64
59160,note_on,,,,,120,0,2,,,,,1,66,0
59160,note_on,,,,,360,0,1,,,,,0,77,0
59160,note_on,,,,,0,0,1,,,,,0,75,64
59280,note_on,,,,,0,0,1,,,,,0,73,64
59280,note_on,,,,,120,0,1,,,,,0,75,0
59280,note_on,,,,,120,0,2,,,,,1,68,0
59280,note_on,,,,,0,0,2,,,,,1,70,64
59340,note_on,,,,,0,0,1,,,,,0,71,64
59340,note_on,,,,,60,0,1,,,,,0,73,0
59400,note_on,,,,,60,0,1,,,,,0,71,0
59400,note_on,,,,,0,0,1,,,,,0,73,64
59460,note_on,,,,,0,0,1,,,,,0,79,64
59460,note_on,,,,,60,0,1,,,,,0,73,0
59520,note_on,,,,,240,0,2,,,,,1,70,0
59520,note_on,,,,,0,0,2,,,,,1,63,64
59520,note_on,,,,,0,0,1,,,,,0,80,64
59520,note_on,,,,,60,0,1,,,,,0,79,0
59580,note_on,,,,,0,0,1,,,,,0,82,64
59580,note_on,,,,,60,0,1,,,,,0,80,0
59640,note_on,,,,,0,0,1,,,,,0,83,64
59640,note_on,,,,,60,0,1,,,,,0,82,0
59760,note_on,,,,,0,0,3,,,,,2,64,64
59760,note_on,,,,,720,0,3,,,,,2,63,0
59760,note_on,,,,,0,0,2,,,,,1,68,64
59760,note_on,,,,,240,0,2,,,,,1,63,0
59880,note_on,,,,,0,0,1,,,,,0,82,64
59880,note_on,,,,,240,0,1,,,,,0,83,0
59940,note_on,,,,,0,0,1,,,,,0,80,64
59940,note_on,,,,,60,0,1,,,,,0,82,0
60000,note_on,,,,,0,0,1,,,,,0,82,64
60000,note_on,,,,,240,0,3,,,,,2,64,0
60000,note_on,,,,,0,0,3,,,,,2,63,64
60000,note_on,,,,,60,0,1,,,,,0,80,0
60120,note_on,,,,,120,0,1,,,,,0,82,0
60120,note_on,,,,,0,0,1,,,,,0,75,64
60120,note_on,,,,,360,0,2,,,,,1,68,0
60120,note_on,,,,,0,0,2,,,,,1,67,64
60240,note_on,,,,,120,0,1,,,,,0,75,0
60240,note_on,,,,,0,0,1,,,,,0,77,64
60240,note_on,,,,,120,0,2,,,,,1,67,0
60240,note_on,,,,,0,0,2,,,,,1,65,64
60240,note_on,,,,,0,0,3,,,,,2,61,64
60240,note_on,,,,,240,0,3,,,,,2,63,0
60360,note_on,,,,,120,0,1,,,,,0,77,0
60360,note_on,,,,,0,0,2,,,,,1,64,64
60360,note_on,,,,,120,0,2,,,,,1,65,0
60360,note_on,,,,,0,0,1,,,,,0,79,64
60480,note_on,,,,,120,0,1,,,,,0,79,0
60480,note_on,,,,,120,0,2,,,,,1,64,0
60480,note_on,,,,,240,0,3,,,,,2,61,0
60480,note_on,,,,,0,0,2,,,,,1,63,64
60480,note_on,,,,,0,0,1,,,,,0,80,64
60480,note_on,,,,,0,0,3,,,,,2,59,64
60600,note_on,,,,,120,0,2,,,,,1,63,0
60600,note_on,,,,,0,0,2,,,,,1,71,64
60720,note_on,,,,,240,0,1,,,,,0,80,0
60720,note_on,,,,,240,0,3,,,,,2,59,0
60720,note_on,,,,,0,0,2,,,,,1,70,64
60720,note_on,,,,,0,0,3,,,,,2,61,64
60720,note_on,,,,,120,0,2,,,,,1,71,0
60840,note_on,,,,,0,0,2,,,,,1,68,64
60840,note_on,,,,,120,0,2,,,,,1,70,0
60960,note_on,,,,,240,0,1,,,,,0,82,64
60960,note_on,,,,,0,0,2,,,,,1,67,64
60960,note_on,,,,,120,0,2,,,,,1,68,0
60960,note_on,,,,,0,0,3,,,,,2,63,64
60960,note_on,,,,,240,0,3,,,,,2,61,0
61080,note_on,,,,,120,0,2,,,,,1,67,0
61080,note_on,,,,,0,0,2,,,,,1,63,64
61140,note_on,,,,,60,0,2,,,,,1,63,0
61140,note_on,,,,,0,0,2,,,,,1,65,64
61200,note_on,,,,,0,0,1,,,,,0,75,64
61200,note_on,,,,,240,0,1,,,,,0,82,0
61200,note_on,,,,,0,0,2,,,,,1,67,64
61200,note_on,,,,,60,0,2,,,,,1,65,0
61320,note_on,,,,,120,0,2,,,,,1,67,0
61320,note_on,,,,,0,0,2,,,,,1,68,64
61380,note_on,,,,,60,0,2,,,,,1,68,0
61380,note_on,,,,,0,0,2,,,,,1,70,64
61440,note_on,,,,,480,0,3,,,,,2,63,0
61440,note_on,,,,,60,0,2,,,,,1,70,0
61440,note_on,,,,,0,0,2,,,,,1,71,64
61440,note_on,,,,,0,0,3,,,,,2,56,64
61560,note_on,,,,,0,0,1,,,,,0,72,64
61560,note_on,,,,,360,0,1,,,,,0,75,0
61680,note_on,,,,,120,0,1,,,,,0,72,0
61680,note_on,,,,,0,0,1,,,,,0,73,64
61800,note_on,,,,,120,0,1,,,,,0,73,0
61800,note_on,,,,,0,0,2,,,,,1,70,64
61800,note_on,,,,,360,0,2,,,,,1,71,0
61800,note_on,,,,,0,0,1,,,,,0,75,64
61920,note_on,,,,,480,0,3,,,,,2,56,0
61920,note_on,,,,,120,0,1,,,,,0,75,0
61920,note_on,,,,,0,0,1,,,,,0,76,64
61920,note_on,,,,,0,0,2,,,,,1,68,64
61920,note_on,,,,,0,0,3,,,,,2,61,64
61920,note_on,,,,,120,0,2,,,,,1,70,0
62040,note_on,,,,,0,0,1,,,,,0,75,64
62040,note_on,,,,,120,0,1,,,,,0,76,0
62040,note_on,,,,,0,0,2,,,,,1,67,64
62040,note_on,,,,,120,0,2,,,,,1,68,0
62160,note_on,,,,,0,0,1,,,,,0,73,64
62160,note_on,,,,,120,0,2,,,,,1,67,0
62160,note_on,,,,,0,0,2,,,,,1,68,64
62160,note_on,,,,,120,0,1,,,,,0,75,0
62280,note_on,,,,,120,0,2,,,,,1,68,0
62280,note_on,,,,,0,0,2,,,,,1,70,64
62400,note_on,,,,,0,0,1,,,,,0,80,64
62400,note_on,,,,,120,0,2,,,,,1,70,0
62400,note_on,,,,,0,0,2,,,,,1,63,64
62400,note_on,,,,,240,0,1,,,,,0,73,0
62520,note_on,,,,,0,0,2,,,,,1,65,64
62520,note_on,,,,,120,0,2,,,,,1,63,0
62640,note_on,,,,,120,0,2,,,,,1,65,0
62640,note_on,,,,,0,0,1,,,,,0,75,64
62640,note_on,,,,,240,0,1,,,,,0,80,0
62640,note_on,,,,,720,0,3,,,,,2,61,0
62640,note_on,,,,,0,0,2,,,,,1,67,64
62640,note_on,,,,,0,0,3,,,,,2,59,64
62760,note_on,,,,,0,0,2,,,,,1,68,64
62760,note_on,,,,,120,0,2,,,,,1,67,0
62880,note_on,,,,,0,0,3,,,,,2,58,64
62880,note_on,,,,,240,0,3,,,,,2,59,0
62880,note_on,,,,,120,0,2,,,,,1,68,0
62880,note_on,,,,,0,0,2,,,,,1,70,64
62940,note_on,,,,,60,0,2,,,,,1,70,0
62940,note_on,,,,,0,0,2,,,,,1,71,64
63000,note_on,,,,,0,0,2,,,,,1,73,64
63000,note_on,,,,,60,0,2,,,,,1,71,0
63000,note_on,,,,,360,0,1,,,,,0,75,0
63000,note_on,,,,,0,0,1,,,,,0,77,64
63120,note_on,,,,,120,0,1,,,,,0,77,0
63120,note_on,,,,,0,0,1,,,,,0,79,64
63240,note_on,,,,,240,0,2,,,,,1,73,0
63240,note_on,,,,,0,0,2,,,,,1,71,64
63300,note_on,,,,,60,0,2,,,,,1,71,0
63300,note_on,,,,,0,0,2,,,,,1,70,64
63360,note_on,,,,,480,0,3,,,,,2,58,0
63360,note_on,,,,,0,0,3,,,,,2,56,64
63360,note_on,,,,,0,0,1,,,,,0,80,64
63360,note_on,,,,,240,0,1,,,,,0,79,0
63360,note_on,,,,,0,0,2,,,,,1,71,64
63360,note_on,,,,,60,0,2,,,,,1,70,0
63480,note_on,,,,,0,0,1,,,,,0,82,64
63480,note_on,,,,,120,0,1,,,,,0,80,0
63600,note_on,,,,,0,0,1,,,,,0,80,64
63600,note_on,,,,,120,0,1,,,,,0,82,0
63600,note_on,,,,,240,0,2,,,,,1,71,0
63600,note_on,,,,,240,0,3,,,,,2,56,0
63600,note_on,,,,,0,0,3,,,,,2,61,64
63720,note_on,,,,,0,0,1,,,,,0,78,64
63720,note_on,,,,,120,0,1,,,,,0,80,0
63840,note_on,,,,,0,0,1,,,,,0,77,64
63840,note_on,,,,,240,0,2,,,,,1,65,64
63840,note_on,,,,,120,0,1,,,,,0,78,0
63960,note_on,,,,,120,0,1,,,,,0,77,0
63960,note_on,,,,,0,0,1,,,,,0,78,64
63960,note_on,,,,,360,0,3,,,,,2,61,0
63960,note_on,,,,,0,0,3,,,,,2,63,64
64080,note_on,,,,,0,0,3,,,,,2,61,64
64080,note_on,,,,,120,0,1,,,,,0,78,0
64080,note_on,,,,,0,0,1,,,,,0,80,64
64080,note_on,,,,,120,0,3,,,,,2,63,0
64200,note_on,,,,,120,0,3,,,,,2,61,0
64200,note_on,,,,,0,0,3,,,,,2,59,64
64320,note_on,,,,,120,0,3,,,,,2,59,0
64320,note_on,,,,,0,0,3,,,,,2,58,64
64320,note_on,,,,,480,0,2,,,,,1,65,0
64320,note_on,,,,,0,0,2,,,,,1,73,64
64440,note_on,,,,,0,0,3,,,,,2,59,64
64440,note_on,,,,,120,0,3,,,,,2,58,0
64440,note_on,,,,,0,0,1,,,,,0,78,64
64440,note_on,,,,,360,0,1,,,,,0,80,0
64560,note_on,,,,,0,0,1,,,,,0,77,64
64560,note_on,,,,,120,0,1,,,,,0,78,0
64560,note_on,,,,,0,0,3,,,,,2,61,64
64560,note_on,,,,,120,0,3,,,,,2,59,0
64680,note_on,,,,,120,0,1,,,,,0,77,0
64680,note_on,,,,,0,0,1,,,,,0,78,64
64740,note_on,,,,,0,0,1,,,,,0,80,64
64740,note_on,,,,,60,0,1,,,,,0,78,0
64800,note_on,,,,,60,0,1,,,,,0,80,0
64800,note_on,,,,,0,0,1,,,,,0,82,64
64800,note_on,,,,,240,0,3,,,,,2,61,0
64800,note_on,,,,,0,0,3,,,,,2,54,64
64860,note_on,,,,,60,0,1,,,,,0,82,0
64860,note_on,,,,,0,0,1,,,,,0,80,64
64920,note_on,,,,,60,0,1,,,,,0,80,0
64920,note_on,,,,,0,0,1,,,,,0,82,64
65040,note_on,,,,,240,0,3,,,,,2,54,0
65040,note_on,,,,,0,0,3,,,,,2,59,64
65040,note_on,,,,,0,0,2,,,,,1,75,64
65040,note_on,,,,,720,0,2,,,,,1,73,0
65160,note_on,,,,,240,0,1,,,,,0,82,0
65160,note_on,,,,,0,0,1,,,,,0,80,64
65220,note_on,,,,,60,0,1,,,,,0,80,0
65220,note_on,,,,,0,0,1,,,,,0,78,64
65280,note_on,,,,,60,0,1,,,,,0,78,0
65280,note_on,,,,,0,0,1,,,,,0,77,64
65280,note_on,,,,,0,0,2,,,,,1,73,64
65280,note_on,,,,,240,0,2,,,,,1,75,0
65400,note_on,,,,,120,0,1,,,,,0,77,0
65400,note_on,,,,,0,0,1,,,,,0,78,64
65400,note_on,,,,,360,0,3,,,,,2,59,0
65400,note_on,,,,,0,0,3,,,,,2,58,64
65520,note_on,,,,,120,0,3,,,,,2,58,0
65520,note_on,,,,,0,0,3,,,,,2,56,64
65520,note_on,,,,,0,0,2,,,,,1,71,64
65520,note_on,,,,,240,0,2,,,,,1,73,0
65640,note_on,,,,,240,0,1,,,,,0,78,0
65640,note_on,,,,,0,0,1,,,,,0,77,64
65760,note_on,,,,,0,0,2,,,,,1,70,64
65760,note_on,,,,,0,0,1,,,,,0,78,64
65760,note_on,,,,,120,0,1,,,,,0,77,0
65760,note_on,,,,,0,0,3,,,,,2,54,64
65760,note_on,,,,,240,0,3,,,,,2,56,0
65760,note_on,,,,,240,0,2,,,,,1,71,0
65880,note_on,,,,,0,0,1,,,,,0,73,64
65880,note_on,,,,,120,0,1,,,,,0,78,0
65880,note_on,,,,,0,0,3,,,,,2,52,64
65880,note_on,,,,,120,0,3,,,,,2,54,0
66000,note_on,,,,,0,0,2,,,,,1,71,64
66000,note_on,,,,,240,0,2,,,,,1,70,0
66000,note_on,,,,,120,0,1,,,,,0,73,0
66000,note_on,,,,,0,0,1,,,,,0,78,64
66000,note_on,,,,,120,0,3,,,,,2,52,0
66000,note_on,,,,,0,0,3,,,,,2,51,64
66060,note_on,,,,,60,0,3,,,,,2,51,0
66060,note_on,,,,,0,0,3,,,,,2,49,64
66120,note_on,,,,,0,0,3,,,,,2,51,64
66120,note_on,,,,,60,0,3,,,,,2,49,0
66180,note_on,,,,,60,0,3,,,,,2,51,0
66180,note_on,,,,,0,0,3,,,,,2,52,64
66240,note_on,,,,,240,0,2,,,,,1,71,0
66240,note_on,,,,,0,0,2,,,,,1,73,64
66240,note_on,,,,,0,0,3,,,,,2,46,64
66240,note_on,,,,,60,0,3,,,,,2,52,0
66360,note_on,,,,,0,0,1,,,,,0,80,64
66360,note_on,,,,,0,0,3,,,,,2,42,64
66360,note_on,,,,,120,0,3,,,,,2,46,0
66360,note_on,,,,,360,0,1,,,,,0,78,0
66480,note_on,,,,,120,0,1,,,,,0,80,0
66480,note_on,,,,,0,0,1,,,,,0,78,64
66480,note_on,,,,,0,0,3,,,,,2,44,64
66480,note_on,,,,,120,0,3,,,,,2,42,0
66600,note_on,,,,,120,0,1,,,,,0,78,0
66600,note_on,,,,,0,0,3,,,,,2,46,64
66600,note_on,,,,,120,0,3,,,,,2,44,0
66600,note_on,,,,,0,0,1,,,,,0,76,64
66720,note_on,,,,,120,0,1,,,,,0,76,0
66720,note_on,,,,,0,0,1,,,,,0,75,64
66720,note_on,,,,,0,0,2,,,,,1,66,64
66720,note_on,,,,,480,0,2,,,,,1,73,0
66720,note_on,,,,,0,0,3,,,,,2,47,64
66720,note_on,,,,,120,0,3,,,,,2,46,0
66840,note_on,,,,,0,0,3,,,,,2,49,64
66840,note_on,,,,,120,0,3,,,,,2,47,0
66840,note_on,,,,,120,0,1,,,,,0,75,0
66840,note_on,,,,,0,0,1,,,,,0,76,64
66960,note_on,,,,,0,0,1,,,,,0,78,64
66960,note_on,,,,,0,0,3,,,,,2,51,64
66960,note_on,,,,,120,0,3,,,,,2,49,0
66960,note_on,,,,,120,0,1,,,,,0,76,0
67080,note_on,,,,,0,0,3,,,,,2,52,64
67080,note_on,,,,,120,0,3,,,,,2,51,0
67140,note_on,,,,,0,0,3,,,,,2,54,64
67140,note_on,,,,,60,0,3,,,,,2,52,0
67200,note_on,,,,,240,0,1,,,,,0,78,0
67200,note_on,,,,,0,0,2,,,,,1,71,64
67200,note_on,,,,,0,0,3,,,,,2,56,64
67200,note_on,,,,,60,0,3,,,,,2,54,0
67200,note_on,,,,,480,0,2,,,,,1,66,0
67320,note_on,,,,,0,0,3,,,,,2,58,64
67320,note_on,,,,,120,0,3,,,,,2,56,0
67380,note_on,,,,,60,0,3,,,,,2,58,0
67380,note_on,,,,,0,0,3,,,,,2,59,64
67440,note_on,,,,,60,0,3,,,,,2,59,0
67440,note_on,,,,,0,0,3,,,,,2,49,64
67440,note_on,,,,,240,0,1,,,,,0,76,64
67560,note_on,,,,,120,0,3,,,,,2,49,0
67560,note_on,,,,,0,0,3,,,,,2,51,64
67620,note_on,,,,,60,0,3,,,,,2,51,0
67620,note_on,,,,,0,0,3,,,,,2,52,64
67680,note_on,,,,,60,0,3,,,,,2,52,0
67680,note_on,,,,,0,0,3,,,,,2,42,64
67800,note_on,,,,,0,0,1,,,,,0,75,64
67800,note_on,,,,,360,0,1,,,,,0,76,0
67800,note_on,,,,,120,0,3,,,,,2,42,0
67800,note_on,,,,,0,0,3,,,,,2,54,64
67920,note_on,,,,,0,0,2,,,,,1,70,64
67920,note_on,,,,,120,0,1,,,,,0,75,0
67920,note_on,,,,,720,0,2,,,,,1,71,0
67920,note_on,,,,,0,0,1,,,,,0,73,64
68040,note_on,,,,,0,0,3,,,,,2,55,64
68040,note_on,,,,,240,0,3,,,,,2,54,0
68160,note_on,,,,,0,0,1,,,,,0,71,64
68160,note_on,,,,,240,0,2,,,,,1,70,0
68160,note_on,,,,,0,0,2,,,,,1,68,64
68160,note_on,,,,,0,0,3,,,,,2,56,64
68160,note_on,,,,,240,0,1,,,,,0,73,0
68160,note_on,,,,,120,0,3,,,,,2,55,0
68280,note_on,,,,,0,0,3,,,,,2,55,64
68280,note_on,,,,,120,0,3,,,,,2,56,0
68400,note_on,,,,,240,0,1,,,,,0,71,0
68400,note_on,,,,,0,0,3,,,,,2,56,64
68400,note_on,,,,,120,0,3,,,,,2,55,0
68400,note_on,,,,,0,0,1,,,,,0,76,64
68520,note_on,,,,,120,0,3,,,,,2,56,0
68520,note_on,,,,,0,0,3,,,,,2,58,64
68640,note_on,,,,,0,0,3,,,,,2,59,64
68640,note_on,,,,,120,0,3,,,,,2,58,0
68640,note_on,,,,,0,0,2,,,,,1,66,64
68640,note_on,,,,,480,0,2,,,,,1,68,0
68760,note_on,,,,,0,0,3,,,,,2,58,64
68760,note_on,,,,,120,0,3,,,,,2,59,0
68760,note_on,,,,,360,0,1,,,,,0,76,0
68760,note_on,,,,,0,0,1,,,,,0,74,64
68880,note_on,,,,,120,0,3,,,,,2,58,0
68880,note_on,,,,,240,0,2,,,,,1,66,0
68880,note_on,,,,,0,0,2,,,,,1,71,64
68880,note_on,,,,,120,0,1,,,,,0,74,0
68880,note_on,,,,,0,0,1,,,,,0,75,64
68880,note_on,,,,,0,0,3,,,,,2,56,64
69000,note_on,,,,,120,0,3,,,,,2,56,0
69000,note_on,,,,,0,0,3,,,,,2,54,64
69120,note_on,,,,,0,0,3,,,,,2,53,64
69120,note_on,,,,,120,0,3,,,,,2,54,0
69240,note_on,,,,,0,0,3,,,,,2,54,64
69240,note_on,,,,,120,0,3,,,,,2,53,0
69240,note_on,,,,,360,0,2,,,,,1,71,0
69240,note_on,,,,,0,0,2,,,,,1,75,64
69360,note_on,,,,,120,0,2,,,,,1,75,0
69360,note_on,,,,,0,0,2,,,,,1,73,64
69360,note_on,,,,,120,0,3,,,,,2,54,0
69360,note_on,,,,,0,0,1,,,,,0,80,64
69360,note_on,,,,,480,0,1,,,,,0,75,0
69360,note_on,,,,,0,0,3,,,,,2,53,64
69480,note_on,,,,,0,0,3,,,,,2,51,64
69480,note_on,,,,,0,0,2,,,,,1,71,64
69480,note_on,,,,,120,0,2,,,,,1,73,0
69480,note_on,,,,,120,0,3,,,,,2,53,0
69600,note_on,,,,,120,0,3,,,,,2,51,0
69600,note_on,,,,,0,0,3,,,,,2,50,64
69600,note_on,,,,,0,0,2,,,,,1,70,64
69600,note_on,,,,,120,0,2,,,,,1,71,0
69720,note_on,,,,,0,0,2,,,,,1,71,64
69720,note_on,,,,,120,0,2,,,,,1,70,0
69720,note_on,,,,,0,0,1,,,,,0,80,64
69720,note_on,,,,,360,0,1,,,,,0,80,0
69720,note_on,,,,,120,0,3,,,,,2,50,0
69720,note_on,,,,,0,0,3,,,,,2,62,64
69780,note_on,,,,,60,0,3,,,,,2,62,0
69780,note_on,,,,,0,0,3,,,,,2,63,64
69840,note_on,,,,,0,0,2,,,,,1,73,64
69840,note_on,,,,,120,0,1,,,,,0,80,0
69840,note_on,,,,,0,0,1,,,,,0,79,64
69840,note_on,,,,,60,0,3,,,,,2,63,0
69840,note_on,,,,,120,0,2,,,,,1,71,0
69840,note_on,,,,,0,0,3,,,,,2,64,64
69960,note_on,,,,,0,0,1,,,,,0,78,64
69960,note_on,,,,,120,0,1,,,,,0,79,0
69960,note_on,,,,,120,0,3,,,,,2,64,0
69960,note_on,,,,,0,0,3,,,,,2,58,64
70080,note_on,,,,,120,0,3,,,,,2,58,0
70080,note_on,,,,,240,0,2,,,,,1,73,0
70080,note_on,,,,,0,0,3,,,,,2,59,64
70080,note_on,,,,,0,0,2,,,,,1,68,64
70200,note_on,,,,,120,0,3,,,,,2,59,0
70200,note_on,,,,,0,0,3,,,,,2,61,74
70200,note_on,,,,,0,0,1,,,,,0,78,64
70200,note_on,,,,,240,0,1,,,,,0,78,0
70222,note_on,,,,,0,0,3,,,,,2,60,50
70222,note_on,,,,,22,0,3,,,,,2,61,0
70244,note_on,,,,,0,0,3,,,,,2,61,54
70244,note_on,,,,,22,0,3,,,,,2,60,0
70266,note_on,,,,,0,0,3,,,,,2,60,57
70266,note_on,,,,,22,0,3,,,,,2,61,0
70288,note_on,,,,,22,0,3,,,,,2,60,0
70288,note_on,,,,,0,0,3,,,,,2,59,61
70310,note_on,,,,,22,0,3,,,,,2,59,0
70310,note_on,,,,,0,0,3,,,,,2,60,66
70320,note_on,,,,,240,0,2,,,,,1,68,0
70320,note_on,,,,,10,0,3,,,,,2,61,64
70320,note_on,,,,,120,0,1,,,,,0,78,0
70320,note_on,,,,,0,0,1,,,,,0,77,64
70320,note_on,,,,,0,0,2,,,,,1,73,64
70332,note_on,,,,,12,0,3,,,,,2,60,0
70440,note_on,,,,,120,0,1,,,,,0,77,0
70440,note_on,,,,,108,0,3,,,,,2,61,0
70440,note_on,,,,,0,0,3,,,,,2,58,64
70440,note_on,,,,,0,0,1,,,,,0,76,64
70560,note_on,,,,,0,0,1,,,,,0,75,64
70560,note_on,,,,,120,0,3,,,,,2,58,0
70560,note_on,,,,,0,0,3,,,,,2,55,64
70560,note_on,,,,,120,0,1,,,,,0,76,0
70680,note_on,,,,,0,0,3,,,,,2,56,64
70680,note_on,,,,,0,0,2,,,,,1,71,64
70680,note_on,,,,,120,0,3,,,,,2,55,0
70680,note_on,,,,,360,0,2,,,,,1,73,0
70800,note_on,,,,,240,0,1,,,,,0,75,0
70800,note_on,,,,,120,0,2,,,,,1,71,0
70800,note_on,,,,,0,0,2,,,,,1,70,64
70800,note_on,,,,,0,0,1,,,,,0,73,64
70920,note_on,,,,,0,0,3,,,,,2,55,64
70920,note_on,,,,,240,0,3,,,,,2,56,0
71040,note_on,,,,,0,0,3,,,,,2,56,64
71040,note_on,,,,,120,0,3,,,,,2,55,0
71040,note_on,,,,,240,0,1,,,,,0,73,0
71040,note_on,,,,,0,0,1,,,,,0,71,64
71160,note_on,,,,,0,0,3,,,,,2,54,64
71160,note_on,,,,,0,0,2,,,,,1,63,64
71160,note_on,,,,,360,0,2,,,,,1,70,0
71160,note_on,,,,,120,0,3,,,,,2,56,0
71280,note_on,,,,,120,0,3,,,,,2,54,0
71280,note_on,,,,,0,0,2,,,,,1,68,64
71280,note_on,,,,,120,0,2,,,,,1,63,0
71280,note_on,,,,,0,0,3,,,,,2,52,64
71400,note_on,,,,,0,0,3,,,,,2,51,64
71400,note_on,,,,,0,0,1,,,,,0,71,64
71400,note_on,,,,,360,0,1,,,,,0,71,0
71400,note_on,,,,,120,0,3,,,,,2,52,0
71520,note_on,,,,,0,0,3,,,,,2,49,64
71520,note_on,,,,,120,0,3,,,,,2,51,0
71520,note_on,,,,,0,0,1,,,,,0,70,64
71520,note_on,,,,,120,0,1,,,,,0,71,0
71640,note_on,,,,,120,0,3,,,,,2,49,0
71640,note_on,,,,,0,0,3,,,,,2,50,64
71640,note_on,,,,,360,0,2,,,,,1,68,0
71640,note_on,,,,,0,0,2,,,,,1,68,64
71760,note_on,,,,,0,0,2,,,,,1,66,64
71760,note_on,,,,,120,0,2,,,,,1,68,0
71760,note_on,,,,,120,0,3,,,,,2,50,0
71760,note_on,,,,,0,0,3,,,,,2,51,64
71880,note_on,,,,,120,0,3,,,,,2,51,0
71880,note_on,,,,,360,0,1,,,,,0,70,0
71880,note_on,,,,,0,0,1,,,,,0,78,64
71880,note_on,,,,,0,0,3,,,,,2,46,64
72000,note_on,,,,,120,0,1,,,,,0,78,0
72000,note_on,,,,,0,0,1,,,,,0,68,64
72000,note_on,,,,,120,0,3,,,,,2,46,0
72000,note_on,,,,,0,0,3,,,,,2,47,64
72120,note_on,,,,,120,0,3,,,,,2,47,0
72120,note_on,,,,,0,0,3,,,,,2,48,64
72120,note_on,,,,,0,0,2,,,,,1,66,64
72120,note_on,,,,,360,0,2,,,,,1,66,0
72240,note_on,,,,,120,0,3,,,,,2,48,0
72240,note_on,,,,,0,0,3,,,,,2,49,64
72240,note_on,,,,,120,0,2,,,,,1,66,0
72240,note_on,,,,,0,0,2,,,,,1,64,64
72360,note_on,,,,,120,0,3,,,,,2,49,0
72360,note_on,,,,,0,0,3,,,,,2,44,64
72360,note_on,,,,,120,0,2,,,,,1,64,0
72360,note_on,,,,,0,0,2,,,,,1,63,64
72480,note_on,,,,,120,0,3,,,,,2,44,0
72480,note_on,,,,,0,0,3,,,,,2,46,64
72480,note_on,,,,,120,0,2,,,,,1,63,0
72480,note_on,,,,,0,0,2,,,,,1,62,64
72600,note_on,,,,,600,0,1,,,,,0,68,0
72600,note_on,,,,,0,0,1,,,,,0,66,64
72660,note_on,,,,,0,0,1,,,,,0,65,64
72660,note_on,,,,,60,0,1,,,,,0,66,0
72720,note_on,,,,,240,0,2,,,,,1,62,0
72720,note_on,,,,,60,0,1,,,,,0,65,0
72720,note_on,,,,,0,0,1,,,,,0,66,64
72720,note_on,,,,,0,0,2,,,,,1,63,64
72840,note_on,,,,,120,0,1,,,,,0,66,0
72840,note_on,,,,,0,0,1,,,,,0,68,64
72960,note_on,,,,,120,0,1,,,,,0,68,0
72960,note_on,,,,,0,0,1,,,,,0,70,64
73080,note_on,,,,,0,0,3,,,,,2,53,64
73080,note_on,,,,,360,0,2,,,,,1,63,0
73080,note_on,,,,,0,0,2,,,,,1,62,64
73080,note_on,,,,,600,0,3,,,,,2,46,0
73140,note_on,,,,,60,0,2,,,,,1,62,0
73140,note_on,,,,,0,0,2,,,,,1,60,64
73200,note_on,,,,,240,0,1,,,,,0,70,0
73200,note_on,,,,,120,0,3,,,,,2,53,0
73200,note_on,,,,,60,0,2,,,,,1,60,0
73200,note_on,,,,,0,0,3,,,,,2,58,64
73200,note_on,,,,,0,0,2,,,,,1,62,64
73320,note_on,,,,,120,0,2,,,,,1,62,0
73320,note_on,,,,,0,0,2,,,,,1,65,64
73440,note_on,,,,,120,0,2,,,,,1,65,0
73440,note_on,,,,,0,0,2,,,,,1,70,64
73440,note_on,,,,,240,0,1,,,,,0,77,64
73560,note_on,,,,,360,0,3,,,,,2,58,0
73560,note_on,,,,,0,0,3,,,,,2,59,64
73680,note_on,,,,,120,0,3,,,,,2,59,0
73680,note_on,,,,,0,0,3,,,,,2,58,64
73800,note_on,,,,,360,0,2,,,,,1,70,0
73800,note_on,,,,,0,0,3,,,,,2,56,64
73800,note_on,,,,,0,0,2,,,,,1,71,64
73800,note_on,,,,,120,0,3,,,,,2,58,0
73920,note_on,,,,,480,0,1,,,,,0,77,0
73920,note_on,,,,,120,0,3,,,,,2,56,0
73920,note_on,,,,,0,0,3,,,,,2,54,64
73920,note_on,,,,,0,0,2,,,,,1,70,64
73920,note_on,,,,,120,0,2,,,,,1,71,0
73920,note_on,,,,,0,0,1,,,,,0,82,64
74040,note_on,,,,,0,0,3,,,,,2,56,64
74040,note_on,,,,,120,0,3,,,,,2,54,0
74160,note_on,,,,,0,0,3,,,,,2,58,64
74160,note_on,,,,,120,0,3,,,,,2,56,0
74280,note_on,,,,,360,0,2,,,,,1,70,0
74280,note_on,,,,,0,0,2,,,,,1,68,64
74400,note_on,,,,,120,0,2,,,,,1,68,0
74400,note_on,,,,,0,0,2,,,,,1,66,64
74400,note_on,,,,,0,0,3,,,,,2,51,64
74400,note_on,,,,,240,0,3,,,,,2,58,0
74520,note_on,,,,,0,0,3,,,,,2,53,64
74520,note_on,,,,,120,0,3,,,,,2,51,0
74580,note_on,,,,,60,0,3,,,,,2,53,0
74580,note_on,,,,,0,0,3,,,,,2,54,64
74640,note_on,,,,,720,0,1,,,,,0,82,0
74640,note_on,,,,,60,0,3,,,,,2,54,0
74640,note_on,,,,,0,0,3,,,,,2,56,64
74640,note_on,,,,,0,0,1,,,,,0,83,64
74760,note_on,,,,,0,0,2,,,,,1,68,64
74760,note_on,,,,,360,0,2,,,,,1,66,0
74880,note_on,,,,,240,0,1,,,,,0,83,0
74880,note_on,,,,,0,0,1,,,,,0,82,64
74880,note_on,,,,,0,0,2,,,,,1,70,64
74880,note_on,,,,,120,0,2,,,,,1,68,0
75000,note_on,,,,,360,0,3,,,,,2,56,0
75000,note_on,,,,,0,0,3,,,,,2,54,64
75120,note_on,,,,,120,0,3,,,,,2,54,0
75120,note_on,,,,,0,0,3,,,,,2,53,64
75120,note_on,,,,,0,0,1,,,,,0,80,64
75120,note_on,,,,,240,0,1,,,,,0,82,0
75240,note_on,,,,,0,0,3,,,,,2,62,64
75240,note_on,,,,,120,0,3,,,,,2,53,0
75360,note_on,,,,,120,0,3,,,,,2,62,0
75360,note_on,,,,,240,0,1,,,,,0,80,0
75360,note_on,,,,,480,0,2,,,,,1,70,0
75360,note_on,,,,,0,0,2,,,,,1,63,64
75360,note_on,,,,,0,0,1,,,,,0,78,64
75480,note_on,,,,,120,0,2,,,,,1,63,0
75480,note_on,,,,,0,0,2,,,,,1,65,64
75480,note_on,,,,,120,0,3,,,,,2,65,64
75540,note_on,,,,,0,0,2,,,,,1,66,64
75540,note_on,,,,,0,0,3,,,,,2,66,64
75540,note_on,,,,,60,0,3,,,,,2,65,0
75540,note_on,,,,,60,0,2,,,,,1,65,0
75600,note_on,,,,,60,0,2,,,,,1,66,0
75600,note_on,,,,,0,0,2,,,,,1,68,64
75600,note_on,,,,,0,0,3,,,,,2,65,64
75600,note_on,,,,,60,0,3,,,,,2,66,0
75600,note_on,,,,,240,0,1,,,,,0,78,0
75600,note_on,,,,,0,0,1,,,,,0,80,64
75720,note_on,,,,,0,0,3,,,,,2,63,64
75720,note_on,,,,,120,0,3,,,,,2,65,0
75840,note_on,,,,,0,0,3,,,,,2,62,64
75840,note_on,,,,,120,0,3,,,,,2,63,0
75840,note_on,,,,,0,0,1,,,,,0,82,64
75840,note_on,,,,,240,0,1,,,,,0,80,0
75960,note_on,,,,,120,0,3,,,,,2,62,0
75960,note_on,,,,,0,0,3,,,,,2,63,64
75960,note_on,,,,,360,0,2,,,,,1,68,0
75960,note_on,,,,,0,0,2,,,,,1,66,64
76080,note_on,,,,,120,0,2,,,,,1,66,0
76080,note_on,,,,,0,0,2,,,,,1,65,64
76200,note_on,,,,,240,0,3,,,,,2,63,0
76200,note_on,,,,,0,0,3,,,,,2,61,64
76320,note_on,,,,,0,0,1,,,,,0,75,64
76320,note_on,,,,,480,0,1,,,,,0,82,0
76320,note_on,,,,,240,0,2,,,,,1,65,0
76320,note_on,,,,,0,0,2,,,,,1,67,64
76440,note_on,,,,,240,0,3,,,,,2,61,0
76440,note_on,,,,,0,0,3,,,,,2,63,64
76440,note_on,,,,,120,0,2,,,,,1,67,0
76440,note_on,,,,,0,0,2,,,,,1,58,64
76500,note_on,,,,,60,0,3,,,,,2,63,0
76500,note_on,,,,,0,0,3,,,,,2,64,64
76560,note_on,,,,,0,0,2,,,,,1,63,64
76560,note_on,,,,,60,0,3,,,,,2,64,0
76560,note_on,,,,,120,0,2,,,,,1,58,0
76680,note_on,,,,,120,0,3,,,,,2,61,64
76800,note_on,,,,,120,0,3,,,,,2,61,0
76800,note_on,,,,,0,0,3,,,,,2,59,64
76800,note_on,,,,,0,0,1,,,,,0,80,64
76800,note_on,,,,,480,0,1,,,,,0,75,0
76920,note_on,,,,,360,0,2,,,,,1,63,0
76920,note_on,,,,,0,0,3,,,,,2,61,64
76920,note_on,,,,,0,0,2,,,,,1,64,64
76920,note_on,,,,,120,0,3,,,,,2,59,0
77040,note_on,,,,,0,0,3,,,,,2,59,64
77040,note_on,,,,,120,0,3,,,,,2,61,0
77040,note_on,,,,,120,0,2,,,,,1,64,0
77040,note_on,,,,,0,0,2,,,,,1,63,64
77160,note_on,,,,,0,0,2,,,,,1,61,64
77160,note_on,,,,,120,0,2,,,,,1,63,0
77160,note_on,,,,,0,0,3,,,,,2,58,64
77160,note_on,,,,,120,0,3,,,,,2,59,0
77280,note_on,,,,,120,0,3,,,,,2,58,0
77280,note_on,,,,,120,0,2,,,,,1,61,0
77280,note_on,,,,,0,0,2,,,,,1,59,64
77280,note_on,,,,,0,0,3,,,,,2,56,64
77400,note_on,,,,,120,0,2,,,,,1,59,0
77400,note_on,,,,,0,0,2,,,,,1,61,64
77400,note_on,,,,,120,0,3,,,,,2,56,0
77400,note_on,,,,,0,0,3,,,,,2,54,64
77520,note_on,,,,,720,0,1,,,,,0,80,0
77520,note_on,,,,,0,0,1,,,,,0,78,64
77520,note_on,,,,,0,0,3,,,,,2,52,64
77520,note_on,,,,,0,0,2,,,,,1,63,64
77520,note_on,,,,,120,0,2,,,,,1,61,0
77520,note_on,,,,,120,0,3,,,,,2,54,0
77640,note_on,,,,,0,0,3,,,,,2,51,64
77640,note_on,,,,,120,0,3,,,,,2,52,0
77760,note_on,,,,,120,0,3,,,,,2,51,0
77760,note_on,,,,,240,0,1,,,,,0,78,0
77760,note_on,,,,,0,0,2,,,,,1,56,64
77760,note_on,,,,,240,0,2,,,,,1,63,0
77760,note_on,,,,,0,0,3,,,,,2,49,64
77760,note_on,,,,,0,0,1,,,,,0,76,64
77880,note_on,,,,,120,0,3,,,,,2,49,0
77880,note_on,,,,,0,0,3,,,,,2,61,64
77940,note_on,,,,,60,0,3,,,,,2,61,0
77940,note_on,,,,,0,0,3,,,,,2,59,64
78000,note_on,,,,,0,0,3,,,,,2,58,64
78000,note_on,,,,,60,0,3,,,,,2,59,0
78000,note_on,,,,,240,0,2,,,,,1,56,0
78000,note_on,,,,,0,0,2,,,,,1,61,64
78120,note_on,,,,,120,0,3,,,,,2,58,0
78120,note_on,,,,,0,0,3,,,,,2,56,64
78240,note_on,,,,,480,0,1,,,,,0,76,0
78240,note_on,,,,,120,0,3,,,,,2,56,0
78240,note_on,,,,,0,0,3,,,,,2,55,64
78240,note_on,,,,,0,0,1,,,,,0,75,64
78360,note_on,,,,,360,0,2,,,,,1,61,0
78360,note_on,,,,,0,0,3,,,,,2,56,64
78360,note_on,,,,,0,0,2,,,,,1,59,64
78360,note_on,,,,,120,0,3,,,,,2,55,0
78480,note_on,,,,,0,0,2,,,,,1,58,64
78480,note_on,,,,,120,0,2,,,,,1,59,0
78600,note_on,,,,,0,0,3,,,,,2,54,64
78600,note_on,,,,,240,0,3,,,,,2,56,0
78720,note_on,,,,,0,0,2,,,,,1,56,64
78720,note_on,,,,,240,0,2,,,,,1,58,0
78720,note_on,,,,,120,0,3,,,,,2,54,0
78720,note_on,,,,,480,0,1,,,,,0,75,0
78720,note_on,,,,,0,0,3,,,,,2,53,64
78840,note_on,,,,,120,0,1,,,,,0,71,64
78960,note_on,,,,,0,0,1,,,,,0,68,64
78960,note_on,,,,,120,0,1,,,,,0,71,0
79080,note_on,,,,,360,0,2,,,,,1,56,0
79080,note_on,,,,,0,0,2,,,,,1,58,64
79200,note_on,,,,,0,0,2,,,,,1,59,64
79200,note_on,,,,,120,0,2,,,,,1,58,0
79320,note_on,,,,,360,0,1,,,,,0,68,0
79320,note_on,,,,,0,0,1,,,,,0,70,64
79320,note_on,,,,,0,0,2,,,,,1,58,64
79320,note_on,,,,,0,0,3,,,,,2,54,64
79320,note_on,,,,,600,0,3,,,,,2,53,0
79320,note_on,,,,,120,0,2,,,,,1,59,0
79440,note_on,,,,,120,0,2,,,,,1,58,0
79440,note_on,,,,,0,0,2,,,,,1,56,64
79440,note_on,,,,,120,0,3,,,,,2,54,0
79440,note_on,,,,,0,0,3,,,,,2,53,64
79440,note_on,,,,,0,0,1,,,,,0,71,64
79440,note_on,,,,,120,0,1,,,,,0,70,0
79560,note_on,,,,,0,0,3,,,,,2,51,64
79560,note_on,,,,,120,0,3,,,,,2,53,0
79560,note_on,,,,,0,0,2,,,,,1,54,64
79560,note_on,,,,,120,0,2,,,,,1,56,0
79680,note_on,,,,,0,0,3,,,,,2,50,64
79680,note_on,,,,,120,0,3,,,,,2,51,0
79680,note_on,,,,,0,0,2,,,,,1,53,64
79680,note_on,,,,,120,0,2,,,,,1,54,0
79800,note_on,,,,,0,0,1,,,,,0,68,64
79800,note_on,,,,,360,0,1,,,,,0,71,0
79920,note_on,,,,,0,0,1,,,,,0,65,64
79920,note_on,,,,,120,0,1,,,,,0,68,0
80040,note_on,,,,,360,0,2,,,,,1,53,0
80040,note_on,,,,,0,0,2,,,,,1,54,64
80160,note_on,,,,,120,0,2,,,,,1,54,0
80160,note_on,,,,,0,0,2,,,,,1,56,64
80280,note_on,,,,,0,0,1,,,,,0,66,64
80280,note_on,,,,,120,0,2,,,,,1,56,0
80280,note_on,,,,,0,0,2,,,,,1,54,64
80280,note_on,,,,,0,0,3,,,,,2,51,64
80280,note_on,,,,,360,0,1,,,,,0,65,0
80280,note_on,,,,,600,0,3,,,,,2,50,0
80400,note_on,,,,,120,0,3,,,,,2,51,0
80400,note_on,,,,,0,0,1,,,,,0,68,64
80400,note_on,,,,,120,0,1,,,,,0,66,0
80400,note_on,,,,,0,0,2,,,,,1,53,64
80400,note_on,,,,,0,0,3,,,,,2,50,64
80400,note_on,,,,,120,0,2,,,,,1,54,0
80520,note_on,,,,,120,0,2,,,,,1,53,0
80520,note_on,,,,,0,0,2,,,,,1,51,64
80520,note_on,,,,,0,0,3,,,,,2,48,64
80520,note_on,,,,,120,0,3,,,,,2,50,0
80640,note_on,,,,,120,0,3,,,,,2,48,0
80640,note_on,,,,,0,0,3,,,,,2,46,64
80640,note_on,,,,,0,0,2,,,,,1,50,64
80640,note_on,,,,,120,0,2,,,,,1,51,0
80760,note_on,,,,,360,0,1,,,,,0,68,0
80760,note_on,,,,,0,0,1,,,,,0,65,64
80880,note_on,,,,,120,0,1,,,,,0,65,0
80880,note_on,,,,,0,0,1,,,,,0,62,64
81000,note_on,,,,,360,0,2,,,,,1,50,0
81000,note_on,,,,,0,0,2,,,,,1,51,64
81120,note_on,,,,,120,0,2,,,,,1,51,0
81120,note_on,,,,,0,0,2,,,,,1,53,64
81240,note_on,,,,,360,0,1,,,,,0,62,0
81240,note_on,,,,,0,0,3,,,,,2,44,64
81240,note_on,,,,,600,0,3,,,,,2,46,0
81240,note_on,,,,,0,0,1,,,,,0,62,64
81360,note_on,,,,,240,0,2,,,,,1,53,0
81360,note_on,,,,,0,0,1,,,,,0,63,64
81360,note_on,,,,,0,0,2,,,,,1,54,64
81360,note_on,,,,,120,0,3,,,,,2,44,0
81360,note_on,,,,,0,0,3,,,,,2,42,64
81360,note_on,,,,,120,0,1,,,,,0,62,0
81480,note_on,,,,,120,0,1,,,,,0,63,0
81480,note_on,,,,,0,0,1,,,,,0,65,64
81480,note_on,,,,,0,0,2,,,,,1,56,64
81480,note_on,,,,,120,0,2,,,,,1,54,0
81480,note_on,,,,,120,0,3,,,,,2,42,0
81480,note_on,,,,,0,0,3,,,,,2,41,64
81600,note_on,,,,,120,0,2,,,,,1,56,0
81600,note_on,,,,,120,0,1,,,,,0,65,0
81600,note_on,,,,,0,0,1,,,,,0,66,64
81600,note_on,,,,,0,0,3,,,,,2,39,64
81600,note_on,,,,,0,0,2,,,,,1,58,64
81600,note_on,,,,,120,0,3,,,,,2,41,0
81720,note_on,,,,,120,0,3,,,,,2,39,0
81720,note_on,,,,,0,0,3,,,,,2,49,64
81720,note_on,,,,,120,0,2,,,,,1,58,0
81720,note_on,,,,,0,0,2,,,,,1,58,64
81720,note_on,,,,,120,0,1,,,,,0,66,0
81720,note_on,,,,,0,0,1,,,,,0,67,64
81840,note_on,,,,,120,0,2,,,,,1,58,0
81840,note_on,,,,,0,0,2,,,,,1,59,64
81840,note_on,,,,,120,0,1,,,,,0,67,0
81840,note_on,,,,,0,0,1,,,,,0,68,64
81840,note_on,,,,,0,0,3,,,,,2,47,64
81840,note_on,,,,,120,0,3,,,,,2,49,0
81960,note_on,,,,,0,0,1,,,,,0,70,64
81960,note_on,,,,,120,0,2,,,,,1,59,0
81960,note_on,,,,,0,0,3,,,,,2,46,64
81960,note_on,,,,,120,0,3,,,,,2,47,0
81960,note_on,,,,,0,0,2,,,,,1,61,64
81960,note_on,,,,,120,0,1,,,,,0,68,0
82080,note_on,,,,,0,0,3,,,,,2,44,64
82080,note_on,,,,,120,0,3,,,,,2,46,0
82080,set_tempo,,,,,82080,1,0,,689655,,,,,
82080,note_on,,,,,0,0,2,,,,,1,63,64
82080,note_on,,,,,120,0,1,,,,,0,70,0
82080,note_on,,,,,0,0,1,,,,,0,71,64
82080,note_on,,,,,120,0,2,,,,,1,61,0
82200,note_on,,,,,0,0,1,,,,,0,72,64
82200,note_on,,,,,0,0,3,,,,,2,54,64
82200,note_on,,,,,120,0,3,,,,,2,44,0
82200,note_on,,,,,120,0,1,,,,,0,71,0
82200,note_on,,,,,0,0,2,,,,,1,63,64
82200,note_on,,,,,120,0,2,,,,,1,63,0
82320,note_on,,,,,120,0,2,,,,,1,63,0
82320,note_on,,,,,0,0,2,,,,,1,65,64
82320,note_on,,,,,120,0,3,,,,,2,54,0
82320,note_on,,,,,0,0,3,,,,,2,53,64
82320,note_on,,,,,120,0,1,,,,,0,72,0
82320,note_on,,,,,0,0,1,,,,,0,74,64
82356,set_tempo,,,,,276,1,0,,731707,,,,,
82440,note_on,,,,,0,0,1,,,,,0,75,64
82440,note_on,,,,,120,0,1,,,,,0,74,0
82440,note_on,,,,,0,0,3,,,,,2,51,64
82440,note_on,,,,,120,0,2,,,,,1,65,0
82440,note_on,,,,,120,0,3,,,,,2,53,0
82440,note_on,,,,,0,0,2,,,,,1,66,64
82560,note_on,,,,,120,0,1,,,,,0,75,0
82560,note_on,,,,,0,0,1,,,,,0,75,64
82560,note_on,,,,,120,0,3,,,,,2,51,0
82560,note_on,,,,,0,0,3,,,,,2,58,64
82560,set_tempo,,,,,204,1,0,,769230,,,,,
82560,note_on,,,,,120,0,2,,,,,1,66,0
82560,note_on,,,,,0,0,2,,,,,1,65,64
82680,note_on,,,,,120,0,2,,,,,1,65,0
82680,set_tempo,,,,,120,1,0,,800000,,,,,
82680,note_on,,,,,0,0,2,,,,,1,71,64
82788,set_tempo,,,,,108,1,0,,833333,,,,,
82800,note_on,,,,,240,0,3,,,,,2,58,0
82800,note_on,,,,,120,0,2,,,,,1,71,0
82800,note_on,,,,,0,0,3,,,,,2,46,64
82800,note_on,,,,,240,0,1,,,,,0,75,0
82800,note_on,,,,,0,0,1,,,,,0,74,64
82800,note_on,,,,,0,0,2,,,,,1,70,64
82920,note_on,,,,,120,0,2,,,,,1,70,0
82920,set_tempo,,,,,132,1,0,,923076,,,,,
82920,note_on,,,,,0,0,2,,,,,1,68,64
83040,note_on,,,,,240,0,1,,,,,0,74,0
83040,note_on,,,,,0,0,1,,,,,0,75,64
83040,note_on,,,,,240,0,3,,,,,2,46,0
83040,note_on,,,,,0,0,3,,,,,2,39,64
83040,note_on,,,,,120,0,2,,,,,1,68,0
83040,note_on,,,,,0,0,2,,,,,1,67,64
83052,set_tempo,,,,,132,1,0,,1090909,,,,,
83280,set_tempo,,,,,228,1,0,,1200000,,,,,
83520,end_of_track,,,,,0,1,1,,,,,,,
83520,note_on,,,,,480,0,3,,,,,2,39,0
83520,end_of_track,,,,,0,1,2,,,,,,,
83520,note_on,,,,,480,0,2,,,,,1,67,0
83520,end_of_track,,,,,0,1,0,,,,,,,
83520,set_tempo,,,,,240,1,0,,1363636,,,,,
83520,note_on,,,,,480,0,1,,,,,0,75,0
83520,end_of_track,,,,,0,1,3,,,,,,,
