,note,step,duration,channel,velocity
0,67.0,60,120,0.0,0.0
1,69.0,60,60,0.0,0.0
2,67.0,60,60,0.0,0.0
3,66.0,60,60,0.0,0.0
4,67.0,120,60,0.0,0.0
5,69.0,60,120,0.0,0.0
6,71.0,60,60,0.0,0.0
7,69.0,60,60,0.0,0.0
8,67.0,60,60,0.0,0.0
9,69.0,120,60,0.0,0.0
10,71.0,120,120,0.0,0.0
11,69.0,120,120,0.0,0.0
12,67.0,120,120,0.0,0.0
13,62.0,240,120,0.0,0.0
14,72.0,120,240,0.0,0.0
15,71.0,120,120,0.0,0.0
16,69.0,120,120,0.0,0.0
17,67.0,120,120,0.0,0.0
18,66.0,240,120,0.0,0.0
19,76.0,120,240,0.0,0.0
20,74.0,60,120,0.0,0.0
21,76.0,60,60,0.0,0.0
22,74.0,60,60,0.0,0.0
23,72.0,60,60,0.0,0.0
24,71.0,120,60,0.0,0.0
25,69.0,60,120,0.0,0.0
26,72.0,60,60,0.0,0.0
27,71.0,60,60,0.0,0.0
28,69.0,60,60,0.0,0.0
29,67.0,120,60,0.0,0.0
30,66.0,60,120,0.0,0.0
31,62.0,0,120,1.0,0.0
32,67.0,0,120,0.0,0.0
33,64.0,60,60,1.0,0.0
34,62.0,60,60,1.0,0.0
35,69.0,120,120,0.0,0.0
36,61.0,60,60,1.0,0.0
37,62.0,0,60,1.0,0.0
38,64.0,60,120,1.0,0.0
39,67.0,0,120,0.0,0.0
40,69.0,0,120,0.0,0.0
41,66.0,60,60,1.0,0.0
42,64.0,60,60,1.0,0.0
43,71.0,0,120,0.0,0.0
44,62.0,60,60,1.0,0.0
45,64.0,120,60,1.0,0.0
46,66.0,0,120,1.0,0.0
47,69.0,60,120,0.0,0.0
48,64.0,0,120,1.0,0.0
49,71.0,60,60,0.0,0.0
50,73.0,60,60,0.0,0.0
51,62.0,60,120,1.0,0.0
52,74.0,60,60,0.0,0.0
53,71.0,0,60,0.0,0.0
54,57.0,0,120,1.0,0.0
55,73.0,60,60,0.0,0.0
56,71.0,60,60,0.0,0.0
57,67.0,0,240,1.0,0.0
58,73.0,60,60,0.0,0.0
59,74.0,60,60,0.0,0.0
60,76.0,60,60,0.0,0.0
61,73.0,60,60,0.0,0.0
62,74.0,60,60,0.0,0.0
63,66.0,0,120,1.0,0.0
64,73.0,60,60,0.0,0.0
65,64.0,60,120,1.0,0.0
66,74.0,60,60,0.0,0.0
67,76.0,0,60,0.0,0.0
68,78.0,60,60,0.0,0.0
69,62.0,60,120,1.0,0.0
70,74.0,0,60,0.0,0.0
71,76.0,60,60,0.0,0.0
72,61.0,60,120,1.0,0.0
73,74.0,0,60,0.0,0.0
74,71.0,120,240,1.0,0.0
75,76.0,60,60,0.0,0.0
76,78.0,60,60,0.0,0.0
77,79.0,60,60,0.0,0.0
78,76.0,0,60,0.0,0.0
79,78.0,0,120,0.0,0.0
80,69.0,60,120,1.0,0.0
81,79.0,60,60,0.0,0.0
82,71.0,0,60,1.0,0.0
83,69.0,0,60,1.0,0.0
84,78.0,60,60,0.0,0.0
85,67.0,60,60,1.0,0.0
86,76.0,0,60,0.0,0.0
87,74.0,0,60,0.0,0.0
88,66.0,120,60,1.0,0.0
89,64.0,60,120,1.0,0.0
90,79.0,60,420,0.0,0.0
91,67.0,60,60,1.0,0.0
92,66.0,60,60,1.0,0.0
93,64.0,60,60,1.0,0.0
94,62.0,60,60,1.0,0.0
95,61.0,0,120,1.0,0.0
96,78.0,60,60,0.0,0.0
97,76.0,60,60,0.0,0.0
98,67.0,60,120,1.0,0.0
99,79.0,0,60,0.0,0.0
100,66.0,0,120,1.0,0.0
101,74.0,60,60,0.0,0.0
102,79.0,60,60,0.0,0.0
103,64.0,0,120,1.0,0.0
104,73.0,60,60,0.0,0.0
105,79.0,60,60,0.0,0.0
106,62.0,0,120,1.0,0.0
107,71.0,60,60,0.0,0.0
108,79.0,60,60,0.0,0.0
109,61.0,0,120,1.0,0.0
110,69.0,60,60,0.0,0.0
111,79.0,60,60,0.0,0.0
112,78.0,60,120,0.0,0.0
113,62.0,60,60,1.0,0.0
114,64.0,0,60,1.0,0.0
115,74.0,0,120,0.0,0.0
116,66.0,60,60,1.0,0.0
117,62.0,60,60,1.0,0.0
118,76.0,60,120,0.0,0.0
119,67.0,60,60,1.0,0.0
120,62.0,0,60,1.0,0.0
121,69.0,60,60,1.0,0.0
122,78.0,60,120,0.0,0.0
123,62.0,0,60,1.0,0.0
124,71.0,60,60,1.0,0.0
125,79.0,60,120,0.0,0.0
126,62.0,0,60,1.0,0.0
127,72.0,60,60,1.0,0.0
128,81.0,60,240,0.0,0.0
129,62.0,120,60,1.0,0.0
130,55.0,0,120,2.0,0.0
131,71.0,120,360,1.0,0.0
132,57.0,60,60,2.0,0.0
133,74.0,60,120,0.0,0.0
134,55.0,0,60,2.0,0.0
135,79.0,0,240,0.0,0.0
136,54.0,60,60,2.0,0.0
137,55.0,0,60,2.0,0.0
138,57.0,60,120,2.0,0.0
139,72.0,0,480,1.0,0.0
140,78.0,60,120,0.0,0.0
141,59.0,60,60,2.0,0.0
142,57.0,0,60,2.0,0.0
143,76.0,120,120,0.0,0.0
144,55.0,60,60,2.0,0.0
145,57.0,0,60,2.0,0.0
146,59.0,0,120,2.0,0.0
147,74.0,120,120,0.0,0.0
148,66.0,0,120,1.0,0.0
149,57.0,120,120,2.0,0.0
150,72.0,0,120,0.0,0.0
151,55.0,120,120,2.0,0.0
152,67.0,0,240,1.0,0.0
153,71.0,0,120,0.0,0.0
154,69.0,60,240,0.0,0.0
155,50.0,60,120,2.0,0.0
156,60.0,0,240,2.0,0.0
157,66.0,60,60,1.0,0.0
158,67.0,0,60,1.0,0.0
159,69.0,60,60,1.0,0.0
160,66.0,60,60,1.0,0.0
161,67.0,60,60,1.0,0.0
162,59.0,0,120,2.0,0.0
163,66.0,60,60,1.0,0.0
164,57.0,60,120,2.0,0.0
165,67.0,60,60,1.0,0.0
166,69.0,0,60,1.0,0.0
167,74.0,0,240,0.0,0.0
168,55.0,60,120,2.0,0.0
169,71.0,60,60,1.0,0.0
170,67.0,0,60,1.0,0.0
171,69.0,60,60,1.0,0.0
172,54.0,60,120,2.0,0.0
173,67.0,0,60,1.0,0.0
174,64.0,120,240,2.0,0.0
175,72.0,0,120,0.0,0.0
176,69.0,60,60,1.0,0.0
177,71.0,60,60,1.0,0.0
178,72.0,60,60,1.0,0.0
179,81.0,0,240,0.0,0.0
180,69.0,0,60,1.0,0.0
181,62.0,60,120,2.0,0.0
182,71.0,0,120,1.0,0.0
183,79.0,0,360,0.0,0.0
184,64.0,60,60,2.0,0.0
185,72.0,0,60,1.0,0.0
186,62.0,0,60,2.0,0.0
187,71.0,60,60,1.0,0.0
188,60.0,0,60,2.0,0.0
189,69.0,60,60,1.0,0.0
190,67.0,120,60,1.0,0.0
191,59.0,0,60,2.0,0.0
192,72.0,60,420,1.0,0.0
193,57.0,60,120,2.0,0.0
194,81.0,0,60,0.0,0.0
195,60.0,60,60,2.0,0.0
196,79.0,0,60,0.0,0.0
197,59.0,60,60,2.0,0.0
198,78.0,60,60,0.0,0.0
199,57.0,0,60,2.0,0.0
200,76.0,0,60,0.0,0.0
201,55.0,60,60,2.0,0.0
202,74.0,10,830,0.0,0.0
203,54.0,60,240,2.0,0.0
204,71.0,60,60,1.0,0.0
205,69.0,60,60,1.0,0.0
206,72.0,0,60,1.0,0.0
207,67.0,60,60,1.0,0.0
208,52.0,60,120,2.0,0.0
209,72.0,0,60,1.0,0.0
210,50.0,60,60,2.0,0.0
211,66.0,0,60,1.0,0.0
212,72.0,60,60,1.0,0.0
213,52.0,0,60,2.0,0.0
214,64.0,60,60,1.0,0.0
215,50.0,0,60,2.0,0.0
216,72.0,60,60,1.0,0.0
217,48.0,0,60,2.0,0.0
218,62.0,0,60,1.0,0.0
219,47.0,60,60,2.0,0.0
220,45.0,0,60,2.0,0.0
221,72.0,60,60,1.0,0.0
222,43.0,50,60,2.0,0.0
223,71.0,0,120,1.0,0.0
224,45.0,60,60,2.0,0.0
225,65.0,0,120,1.0,0.0
226,74.0,60,120,0.0,0.0
227,47.0,60,60,2.0,0.0
228,43.0,0,60,2.0,0.0
229,64.0,0,120,1.0,0.0
230,48.0,60,60,2.0,0.0
231,72.0,60,120,0.0,0.0
232,43.0,0,60,2.0,0.0
233,50.0,60,60,2.0,0.0
234,62.0,0,120,1.0,0.0
235,71.0,60,120,0.0,0.0
236,43.0,0,60,2.0,0.0
237,60.0,60,120,1.0,0.0
238,52.0,60,60,2.0,0.0
239,69.0,0,120,0.0,0.0
240,43.0,0,60,2.0,0.0
241,53.0,60,60,2.0,0.0
242,59.0,0,120,1.0,0.0
243,67.0,0,120,0.0,0.0
244,43.0,60,60,2.0,0.0
245,52.0,60,60,2.0,0.0
246,72.0,0,60,0.0,0.0
247,50.0,60,60,2.0,0.0
248,74.0,0,60,0.0,0.0
249,76.0,0,300,0.0,0.0
250,48.0,60,60,2.0,0.0
251,52.0,60,60,2.0,0.0
252,47.0,60,60,2.0,0.0
253,67.0,0,120,1.0,0.0
254,52.0,60,60,2.0,0.0
255,45.0,60,60,2.0,0.0
256,66.0,10,590,1.0,0.0
257,52.0,0,60,2.0,0.0
258,74.0,60,60,0.0,0.0
259,43.0,0,60,2.0,0.0
260,72.0,60,60,0.0,0.0
261,52.0,0,60,2.0,0.0
262,71.0,60,60,0.0,0.0
263,42.0,60,60,2.0,0.0
264,69.0,0,60,0.0,0.0
265,52.0,60,60,2.0,0.0
266,72.0,0,60,0.0,0.0
267,71.0,60,60,0.0,0.0
268,50.0,0,60,2.0,0.0
269,48.0,0,60,2.0,0.0
270,72.0,60,60,0.0,0.0
271,74.0,60,300,0.0,0.0
272,47.0,50,60,2.0,0.0
273,50.0,60,60,2.0,0.0
274,45.0,60,60,2.0,0.0
275,66.0,0,120,1.0,0.0
276,50.0,60,60,2.0,0.0
277,43.0,0,60,2.0,0.0
278,64.0,10,590,1.0,0.0
279,50.0,60,60,2.0,0.0
280,72.0,0,60,0.0,0.0
281,42.0,60,60,2.0,0.0
282,71.0,0,60,0.0,0.0
283,50.0,0,60,2.0,0.0
284,69.0,60,60,0.0,0.0
285,40.0,60,60,2.0,0.0
286,67.0,0,60,0.0,0.0
287,50.0,0,60,2.0,0.0
288,71.0,60,60,0.0,0.0
289,48.0,60,60,2.0,0.0
290,69.0,0,60,0.0,0.0
291,71.0,60,60,0.0,0.0
292,47.0,0,60,2.0,0.0
293,72.0,60,300,0.0,0.0
294,45.0,50,60,2.0,0.0
295,48.0,60,60,2.0,0.0
296,43.0,60,60,2.0,0.0
297,64.0,0,120,1.0,0.0
298,48.0,60,60,2.0,0.0
299,62.0,0,360,1.0,0.0
300,42.0,0,60,2.0,0.0
301,48.0,0,60,2.0,0.0
302,71.0,60,60,0.0,0.0
303,40.0,0,60,2.0,0.0
304,69.0,60,60,0.0,0.0
305,67.0,60,60,0.0,0.0
306,48.0,0,60,2.0,0.0
307,66.0,60,60,0.0,0.0
308,38.0,0,60,2.0,0.0
309,48.0,60,60,2.0,0.0
310,69.0,0,60,0.0,0.0
311,67.0,60,60,0.0,0.0
312,62.0,0,120,1.0,0.0
313,47.0,0,120,2.0,0.0
314,69.0,60,60,0.0,0.0
315,60.0,60,60,1.0,0.0
316,45.0,0,120,2.0,0.0
317,71.0,60,360,0.0,0.0
318,62.0,60,60,1.0,0.0
319,43.0,120,120,2.0,0.0
320,64.0,60,60,1.0,0.0
321,62.0,0,60,1.0,0.0
322,60.0,0,120,1.0,0.0
323,45.0,0,120,2.0,0.0
324,59.0,60,60,1.0,0.0
325,64.0,60,120,0.0,0.0
326,43.0,0,120,2.0,0.0
327,60.0,0,60,1.0,0.0
328,62.0,60,60,1.0,0.0
329,42.0,60,120,2.0,0.0
330,69.0,0,180,0.0,0.0
331,60.0,0,60,1.0,0.0
332,59.0,0,120,1.0,0.0
333,43.0,60,60,2.0,0.0
334,55.0,0,60,2.0,0.0
335,67.0,60,60,0.0,0.0
336,60.0,60,120,1.0,0.0
337,53.0,60,60,2.0,0.0
338,69.0,0,120,0.0,0.0
339,52.0,0,60,2.0,0.0
340,71.0,60,120,0.0,0.0
341,50.0,60,60,2.0,0.0
342,62.0,0,120,1.0,0.0
343,53.0,0,60,2.0,0.0
344,67.0,0,120,1.0,0.0
345,52.0,0,60,2.0,0.0
346,72.0,60,60,0.0,0.0
347,53.0,60,60,2.0,0.0
348,74.0,0,60,0.0,0.0
349,72.0,60,60,0.0,0.0
350,57.0,0,240,1.0,0.0
351,52.0,0,60,2.0,0.0
352,50.0,0,60,2.0,0.0
353,71.0,60,60,0.0,0.0
354,69.0,50,60,0.0,0.0
355,48.0,0,60,2.0,0.0
356,67.0,10,50,0.0,0.0
357,52.0,22,60,2.0,0.0
358,50.0,6,60,2.0,0.0
359,67.0,22,22,0.0,0.0
360,59.0,0,120,1.0,0.0
361,66.0,16,22,0.0,0.0
362,67.0,22,22,0.0,0.0
363,52.0,12,60,2.0,0.0
364,66.0,22,22,0.0,0.0
365,67.0,10,22,0.0,0.0
366,66.0,22,22,0.0,0.0
367,60.0,0,120,1.0,0.0
368,50.0,30,60,2.0,0.0
369,67.0,22,22,0.0,0.0
370,66.0,4,22,0.0,0.0
371,64.0,30,30,0.0,0.0
372,48.0,60,60,2.0,0.0
373,66.0,0,30,0.0,0.0
374,67.0,0,180,0.0,0.0
375,62.0,60,120,1.0,0.0
376,47.0,60,60,2.0,0.0
377,50.0,0,60,2.0,0.0
378,48.0,60,60,2.0,0.0
379,64.0,0,120,1.0,0.0
380,71.0,0,60,0.0,0.0
381,50.0,60,60,2.0,0.0
382,54.0,0,240,1.0,0.0
383,48.0,0,60,2.0,0.0
384,69.0,60,60,0.0,0.0
385,67.0,60,60,0.0,0.0
386,47.0,0,60,2.0,0.0
387,45.0,60,60,2.0,0.0
388,66.0,0,60,0.0,0.0
389,64.0,0,60,0.0,0.0
390,48.0,60,60,2.0,0.0
391,62.0,0,120,0.0,0.0
392,47.0,50,60,2.0,0.0
393,55.0,10,110,1.0,0.0
394,48.0,60,60,2.0,0.0
395,55.0,0,60,1.0,0.0
396,47.0,60,60,2.0,0.0
397,57.0,0,60,1.0,0.0
398,45.0,60,60,2.0,0.0
399,59.0,0,60,1.0,0.0
400,43.0,60,60,2.0,0.0
401,61.0,60,60,1.0,0.0
402,45.0,0,60,2.0,0.0
403,47.0,60,60,2.0,0.0
404,62.0,0,120,1.0,0.0
405,49.0,60,60,2.0,0.0
406,59.0,60,60,1.0,0.0
407,50.0,0,60,2.0,0.0
408,61.0,0,60,1.0,0.0
409,52.0,60,60,2.0,0.0
410,62.0,60,60,1.0,0.0
411,54.0,0,60,2.0,0.0
412,55.0,0,60,2.0,0.0
413,64.0,120,60,1.0,0.0
414,69.0,0,120,0.0,0.0
415,54.0,0,120,2.0,0.0
416,66.0,60,120,1.0,0.0
417,59.0,0,120,2.0,0.0
418,67.0,60,60,0.0,0.0
419,64.0,60,120,1.0,0.0
420,69.0,0,60,0.0,0.0
421,47.0,120,120,2.0,0.0
422,63.0,0,120,1.0,0.0
423,71.0,60,60,0.0,0.0
424,69.0,0,60,0.0,0.0
425,64.0,0,120,1.0,0.0
426,67.0,60,120,0.0,0.0
427,52.0,0,120,2.0,0.0
428,62.0,0,120,1.0,0.0
429,66.0,60,60,0.0,0.0
430,57.0,0,120,2.0,0.0
431,67.0,60,60,0.0,0.0
432,69.0,60,60,0.0,0.0
433,45.0,0,120,2.0,0.0
434,61.0,120,120,1.0,0.0
435,66.0,0,60,0.0,0.0
436,50.0,0,120,2.0,0.0
437,67.0,0,120,0.0,0.0
438,62.0,60,120,1.0,0.0
439,52.0,0,120,2.0,0.0
440,69.0,60,120,0.0,0.0
441,61.0,60,60,1.0,0.0
442,59.0,0,60,1.0,0.0
443,71.0,0,120,0.0,0.0
444,54.0,0,240,2.0,0.0
445,57.0,60,60,1.0,0.0
446,60.0,60,60,1.0,0.0
447,74.0,22,120,0.0,0.0
448,59.0,60,60,1.0,0.0
449,60.0,0,60,1.0,0.0
450,55.0,12,120,2.0,0.0
451,66.0,22,22,0.0,0.0
452,59.0,6,60,1.0,0.0
453,64.0,16,22,0.0,0.0
454,66.0,22,22,0.0,0.0
455,57.0,0,60,1.0,0.0
456,64.0,22,22,0.0,0.0
457,66.0,10,22,0.0,0.0
458,64.0,22,22,0.0,0.0
459,55.0,18,60,1.0,0.0
460,49.0,0,120,2.0,0.0
461,66.0,22,22,0.0,0.0
462,64.0,4,22,0.0,0.0
463,66.0,40,22,0.0,0.0
464,59.0,60,60,1.0,0.0
465,64.0,2,40,0.0,0.0
466,57.0,60,60,1.0,0.0
467,66.0,0,120,0.0,0.0
468,50.0,0,120,2.0,0.0
469,59.0,60,60,1.0,0.0
470,57.0,60,60,1.0,0.0
471,67.0,60,120,0.0,0.0
472,55.0,0,60,1.0,0.0
473,54.0,60,60,1.0,0.0
474,69.0,0,120,0.0,0.0
475,57.0,60,60,1.0,0.0
476,55.0,60,60,1.0,0.0
477,71.0,22,120,0.0,0.0
478,57.0,0,60,1.0,0.0
479,55.0,6,60,1.0,0.0
480,62.0,22,22,0.0,0.0
481,61.0,16,22,0.0,0.0
482,62.0,22,22,0.0,0.0
483,54.0,12,60,1.0,0.0
484,61.0,22,22,0.0,0.0
485,62.0,10,22,0.0,0.0
486,61.0,22,22,0.0,0.0
487,52.0,18,60,1.0,0.0
488,62.0,22,22,0.0,0.0
489,61.0,4,22,0.0,0.0
490,62.0,40,22,0.0,0.0
491,55.0,60,60,1.0,0.0
492,61.0,2,40,0.0,0.0
493,54.0,50,60,1.0,0.0
494,62.0,10,110,0.0,0.0
495,55.0,60,60,1.0,0.0
496,54.0,60,60,1.0,0.0
497,62.0,0,60,0.0,0.0
498,52.0,0,60,1.0,0.0
499,64.0,60,60,0.0,0.0
500,66.0,0,60,0.0,0.0
501,50.0,60,60,1.0,0.0
502,67.0,60,60,0.0,0.0
503,52.0,0,60,1.0,0.0
504,69.0,0,120,0.0,0.0
505,54.0,60,60,1.0,0.0
506,55.0,60,60,1.0,0.0
507,66.0,0,60,0.0,0.0
508,57.0,60,60,1.0,0.0
509,59.0,60,60,1.0,0.0
510,67.0,0,60,0.0,0.0
511,69.0,0,60,0.0,0.0
512,60.0,60,60,1.0,0.0
513,62.0,120,60,1.0,0.0
514,71.0,0,60,0.0,0.0
515,54.0,0,120,1.0,0.0
516,50.0,60,120,2.0,0.0
517,72.0,0,240,0.0,0.0
518,69.0,60,120,1.0,0.0
519,48.0,60,60,2.0,0.0
520,50.0,0,60,2.0,0.0
521,52.0,60,60,2.0,0.0
522,71.0,120,120,0.0,0.0
523,67.0,60,240,1.0,0.0
524,50.0,0,60,2.0,0.0
525,69.0,120,360,0.0,0.0
526,48.0,0,120,2.0,0.0
527,47.0,60,60,2.0,0.0
528,67.0,60,120,1.0,0.0
529,48.0,0,60,2.0,0.0
530,66.0,0,120,1.0,0.0
531,50.0,60,60,2.0,0.0
532,48.0,0,60,2.0,0.0
533,47.0,60,120,2.0,0.0
534,67.0,0,120,1.0,0.0
535,79.0,0,60,0.0,0.0
536,78.0,60,60,0.0,0.0
537,48.0,60,120,2.0,0.0
538,76.0,0,60,0.0,0.0
539,74.0,60,60,0.0,0.0
540,50.0,60,120,2.0,0.0
541,78.0,0,60,0.0,0.0
542,76.0,60,60,0.0,0.0
543,55.0,0,120,2.0,0.0
544,78.0,60,60,0.0,0.0
545,76.0,60,60,0.0,0.0
546,45.0,0,240,2.0,0.0
547,74.0,60,60,0.0,0.0
548,72.0,60,60,0.0,0.0
549,76.0,60,60,0.0,0.0
550,47.0,0,120,2.0,0.0
551,74.0,60,60,0.0,0.0
552,76.0,60,60,0.0,0.0
553,48.0,60,120,2.0,0.0
554,74.0,60,60,0.0,0.0
555,72.0,0,60,0.0,0.0
556,71.0,60,60,0.0,0.0
557,50.0,0,120,2.0,0.0
558,74.0,60,60,0.0,0.0
559,52.0,60,120,2.0,0.0
560,72.0,60,60,0.0,0.0
561,74.0,0,60,0.0,0.0
562,72.0,60,60,0.0,0.0
563,42.0,0,240,2.0,0.0
564,71.0,60,60,0.0,0.0
565,69.0,60,60,0.0,0.0
566,72.0,60,60,0.0,0.0
567,43.0,60,60,2.0,0.0
568,71.0,0,60,0.0,0.0
569,69.0,0,60,0.0,0.0
570,45.0,60,60,2.0,0.0
571,67.0,60,60,0.0,0.0
572,47.0,0,300,2.0,0.0
573,71.0,60,60,0.0,0.0
574,62.0,0,120,1.0,0.0
575,66.0,60,60,0.0,0.0
576,71.0,60,60,0.0,0.0
577,64.0,60,60,0.0,0.0
578,61.0,60,120,1.0,0.0
579,45.0,0,60,2.0,0.0
580,71.0,0,60,0.0,0.0
581,43.0,60,60,2.0,0.0
582,62.0,0,60,0.0,0.0
583,42.0,0,60,2.0,0.0
584,71.0,60,60,0.0,0.0
585,40.0,60,60,2.0,0.0
586,61.0,0,60,0.0,0.0
587,71.0,60,60,0.0,0.0
588,43.0,0,60,2.0,0.0
589,42.0,60,60,2.0,0.0
590,69.0,0,60,0.0,0.0
591,67.0,0,60,0.0,0.0
592,43.0,60,60,2.0,0.0
593,45.0,0,300,2.0,0.0
594,66.0,60,60,0.0,0.0
595,69.0,60,60,0.0,0.0
596,61.0,0,120,1.0,0.0
597,64.0,60,60,0.0,0.0
598,69.0,60,60,0.0,0.0
599,59.0,60,120,1.0,0.0
600,62.0,60,60,0.0,0.0
601,69.0,0,60,0.0,0.0
602,43.0,0,60,2.0,0.0
603,42.0,60,60,2.0,0.0
604,61.0,0,60,0.0,0.0
605,69.0,60,60,0.0,0.0
606,40.0,0,60,2.0,0.0
607,38.0,0,60,2.0,0.0
608,59.0,60,60,0.0,0.0
609,42.0,0,60,2.0,0.0
610,69.0,60,60,0.0,0.0
611,40.0,60,60,2.0,0.0
612,67.0,0,60,0.0,0.0
613,42.0,0,60,2.0,0.0
614,66.0,60,60,0.0,0.0
615,64.0,60,60,0.0,0.0
616,43.0,0,300,2.0,0.0
617,67.0,60,60,0.0,0.0
618,62.0,60,60,0.0,0.0
619,59.0,60,120,1.0,0.0
620,67.0,0,60,0.0,0.0
621,57.0,60,120,1.0,0.0
622,61.0,60,60,0.0,0.0
623,42.0,0,60,2.0,0.0
624,67.0,0,60,0.0,0.0
625,40.0,0,60,2.0,0.0
626,59.0,60,60,0.0,0.0
627,67.0,0,60,0.0,0.0
628,38.0,60,60,2.0,0.0
629,57.0,0,60,0.0,0.0
630,37.0,60,60,2.0,0.0
631,40.0,60,60,2.0,0.0
632,67.0,0,60,0.0,0.0
633,66.0,0,60,0.0,0.0
634,38.0,60,60,2.0,0.0
635,40.0,0,60,2.0,0.0
636,74.0,60,60,0.0,0.0
637,42.0,60,60,2.0,0.0
638,72.0,0,60,0.0,0.0
639,71.0,60,60,0.0,0.0
640,38.0,0,60,2.0,0.0
641,69.0,60,60,0.0,0.0
642,43.0,0,60,2.0,0.0
643,38.0,0,60,2.0,0.0
644,67.0,60,60,0.0,0.0
645,66.0,0,60,0.0,0.0
646,45.0,60,60,2.0,0.0
647,64.0,0,60,0.0,0.0
648,38.0,60,60,2.0,0.0
649,62.0,0,60,0.0,0.0
650,47.0,60,60,2.0,0.0
651,60.0,60,60,0.0,0.0
652,38.0,0,60,2.0,0.0
653,59.0,0,60,0.0,0.0
654,48.0,60,60,2.0,0.0
655,57.0,0,60,0.0,0.0
656,38.0,60,60,2.0,0.0
657,55.0,0,60,0.0,0.0
658,47.0,60,60,2.0,0.0
659,57.0,0,60,0.0,0.0
660,55.0,60,60,2.0,0.0
661,59.0,60,60,0.0,0.0
662,53.0,0,60,2.0,0.0
663,55.0,0,60,0.0,0.0
664,52.0,60,60,2.0,0.0
665,60.0,60,60,0.0,0.0
666,50.0,0,60,2.0,0.0
667,48.0,60,60,2.0,0.0
668,55.0,0,60,0.0,0.0
669,62.0,60,60,0.0,0.0
670,47.0,0,60,2.0,0.0
671,45.0,60,60,2.0,0.0
672,55.0,0,60,0.0,0.0
673,64.0,60,60,0.0,0.0
674,43.0,0,60,2.0,0.0
675,41.0,0,60,2.0,0.0
676,55.0,60,60,0.0,0.0
677,65.0,0,60,0.0,0.0
678,40.0,60,60,2.0,0.0
679,38.0,0,60,2.0,0.0
680,55.0,60,60,0.0,0.0
681,36.0,0,60,2.0,0.0
682,64.0,60,60,0.0,0.0
683,72.0,0,60,0.0,0.0
684,38.0,60,60,2.0,0.0
685,71.0,0,60,0.0,0.0
686,40.0,60,60,2.0,0.0
687,74.0,60,60,0.0,0.0
688,42.0,0,60,2.0,0.0
689,44.0,0,60,2.0,0.0
690,69.0,60,60,0.0,0.0
691,45.0,0,60,2.0,0.0
692,74.0,60,60,0.0,0.0
693,47.0,0,60,2.0,0.0
694,68.0,60,60,0.0,0.0
695,48.0,0,60,2.0,0.0
696,74.0,60,60,0.0,0.0
697,50.0,60,60,2.0,0.0
698,66.0,0,60,0.0,0.0
699,52.0,0,60,2.0,0.0
700,74.0,60,60,0.0,0.0
701,54.0,0,60,2.0,0.0
702,64.0,60,60,0.0,0.0
703,74.0,60,60,0.0,0.0
704,56.0,0,60,2.0,0.0
705,72.0,0,60,0.0,0.0
706,57.0,60,60,2.0,0.0
707,55.0,60,60,2.0,0.0
708,69.0,0,60,0.0,0.0
709,71.0,0,60,0.0,0.0
710,54.0,60,60,2.0,0.0
711,73.0,60,60,0.0,0.0
712,57.0,0,60,2.0,0.0
713,75.0,0,60,0.0,0.0
714,52.0,60,60,2.0,0.0
715,76.0,0,60,0.0,0.0
716,57.0,60,60,2.0,0.0
717,78.0,60,60,0.0,0.0
718,51.0,0,60,2.0,0.0
719,79.0,60,60,0.0,0.0
720,57.0,0,60,2.0,0.0
721,49.0,0,60,2.0,0.0
722,81.0,60,60,0.0,0.0
723,57.0,60,60,2.0,0.0
724,83.0,0,60,0.0,0.0
725,47.0,60,60,2.0,0.0
726,84.0,0,60,0.0,0.0
727,75.0,0,60,0.0,0.0
728,57.0,120,60,2.0,0.0
729,76.0,60,120,0.0,0.0
730,55.0,0,120,2.0,0.0
731,60.0,0,120,2.0,0.0
732,78.0,60,60,0.0,0.0
733,76.0,60,60,0.0,0.0
734,59.0,0,120,2.0,0.0
735,75.0,60,60,0.0,0.0
736,76.0,120,60,0.0,0.0
737,78.0,60,120,0.0,0.0
738,57.0,0,120,2.0,0.0
739,59.0,60,120,2.0,0.0
740,79.0,60,60,0.0,0.0
741,78.0,0,60,0.0,0.0
742,47.0,60,120,2.0,0.0
743,76.0,60,60,0.0,0.0
744,78.0,0,60,0.0,0.0
745,52.0,60,60,2.0,0.0
746,79.0,60,120,0.0,0.0
747,54.0,0,60,2.0,0.0
748,55.0,60,60,2.0,0.0
749,78.0,0,120,0.0,0.0
750,52.0,60,60,2.0,0.0
751,57.0,60,60,2.0,0.0
752,76.0,0,120,0.0,0.0
753,52.0,60,60,2.0,0.0
754,71.0,60,120,0.0,0.0
755,59.0,60,60,2.0,0.0
756,52.0,0,60,2.0,0.0
757,61.0,60,60,2.0,0.0
758,81.0,0,240,0.0,0.0
759,52.0,60,60,2.0,0.0
760,63.0,60,60,2.0,0.0
761,52.0,120,60,2.0,0.0
762,79.0,60,120,0.0,0.0
763,64.0,0,120,2.0,0.0
764,63.0,0,60,1.0,0.0
765,64.0,60,60,1.0,0.0
766,78.0,0,120,0.0,0.0
767,66.0,60,60,1.0,0.0
768,76.0,0,120,0.0,0.0
769,67.0,60,60,1.0,0.0
770,64.0,60,60,1.0,0.0
771,66.0,60,60,1.0,0.0
772,75.0,0,120,0.0,0.0
773,64.0,60,60,1.0,0.0
774,84.0,120,240,0.0,0.0
775,66.0,60,60,1.0,0.0
776,67.0,60,60,1.0,0.0
777,69.0,60,60,1.0,0.0
778,66.0,0,60,1.0,0.0
779,67.0,0,120,1.0,0.0
780,83.0,60,120,0.0,0.0
781,69.0,60,60,1.0,0.0
782,84.0,0,60,0.0,0.0
783,83.0,0,60,0.0,0.0
784,67.0,60,60,1.0,0.0
785,81.0,60,60,0.0,0.0
786,66.0,0,60,1.0,0.0
787,79.0,120,60,0.0,0.0
788,64.0,0,60,1.0,0.0
789,69.0,60,420,1.0,0.0
790,78.0,60,120,0.0,0.0
791,81.0,60,60,0.0,0.0
792,79.0,60,60,0.0,0.0
793,78.0,60,60,0.0,0.0
794,76.0,60,60,0.0,0.0
795,75.0,0,120,0.0,0.0
796,67.0,60,60,1.0,0.0
797,66.0,60,60,1.0,0.0
798,81.0,0,120,0.0,0.0
799,69.0,60,60,1.0,0.0
800,64.0,60,60,1.0,0.0
801,79.0,60,120,0.0,0.0
802,69.0,0,60,1.0,0.0
803,63.0,60,60,1.0,0.0
804,78.0,0,120,0.0,0.0
805,69.0,60,60,1.0,0.0
806,76.0,0,120,0.0,0.0
807,61.0,60,60,1.0,0.0
808,69.0,60,60,1.0,0.0
809,75.0,120,120,0.0,0.0
810,59.0,60,60,1.0,0.0
811,69.0,0,60,1.0,0.0
812,67.0,0,120,1.0,0.0
813,76.0,60,120,0.0,0.0
814,66.0,60,60,1.0,0.0
815,74.0,0,120,0.0,0.0
816,67.0,60,60,1.0,0.0
817,72.0,120,120,0.0,0.0
818,69.0,60,60,1.0,0.0
819,67.0,0,60,1.0,0.0
820,66.0,60,120,1.0,0.0
821,74.0,0,120,0.0,0.0
822,72.0,60,120,0.0,0.0
823,64.0,60,60,1.0,0.0
824,66.0,0,60,1.0,0.0
825,67.0,60,60,1.0,0.0
826,71.0,60,120,0.0,0.0
827,66.0,0,60,1.0,0.0
828,72.0,60,60,0.0,0.0
829,64.0,0,120,1.0,0.0
830,84.0,60,60,0.0,0.0
831,83.0,60,60,0.0,0.0
832,66.0,0,120,1.0,0.0
833,81.0,60,60,0.0,0.0
834,67.0,60,120,1.0,0.0
835,79.0,60,60,0.0,0.0
836,83.0,0,60,0.0,0.0
837,72.0,0,120,1.0,0.0
838,81.0,60,60,0.0,0.0
839,83.0,60,60,0.0,0.0
840,63.0,60,240,1.0,0.0
841,81.0,60,60,0.0,0.0
842,79.0,60,60,0.0,0.0
843,78.0,60,60,0.0,0.0
844,81.0,0,60,0.0,0.0
845,64.0,0,120,1.0,0.0
846,79.0,60,60,0.0,0.0
847,81.0,60,60,0.0,0.0
848,66.0,0,120,1.0,0.0
849,79.0,60,60,0.0,0.0
850,78.0,60,60,0.0,0.0
851,67.0,60,120,1.0,0.0
852,76.0,60,60,0.0,0.0
853,79.0,0,60,0.0,0.0
854,78.0,60,60,0.0,0.0
855,69.0,0,120,1.0,0.0
856,79.0,60,60,0.0,0.0
857,78.0,60,60,0.0,0.0
858,59.0,60,240,1.0,0.0
859,76.0,60,60,0.0,0.0
860,75.0,60,60,0.0,0.0
861,78.0,0,60,0.0,0.0
862,60.0,60,60,1.0,0.0
863,76.0,60,120,0.0,0.0
864,59.0,0,60,1.0,0.0
865,57.0,60,60,1.0,0.0
866,78.0,0,60,0.0,0.0
867,59.0,0,60,1.0,0.0
868,79.0,60,60,0.0,0.0
869,60.0,60,60,1.0,0.0
870,81.0,0,240,0.0,0.0
871,62.0,60,60,1.0,0.0
872,64.0,60,60,1.0,0.0
873,63.0,60,60,1.0,0.0
874,64.0,60,60,1.0,0.0
875,79.0,0,60,0.0,0.0
876,66.0,0,60,1.0,0.0
877,81.0,60,60,0.0,0.0
878,83.0,60,240,0.0,0.0
879,67.0,60,60,1.0,0.0
880,69.0,90,60,1.0,0.0
881,71.0,0,480,1.0,0.0
882,47.0,30,30,2.0,0.0
883,49.0,0,30,2.0,0.0
884,81.0,60,120,0.0,0.0
885,51.0,60,60,2.0,0.0
886,47.0,0,60,2.0,0.0
887,79.0,60,120,0.0,0.0
888,52.0,60,60,2.0,0.0
889,47.0,0,60,2.0,0.0
890,78.0,60,60,0.0,0.0
891,54.0,0,60,2.0,0.0
892,47.0,60,60,2.0,0.0
893,79.0,0,60,0.0,0.0
894,81.0,0,120,0.0,0.0
895,72.0,0,120,1.0,0.0
896,55.0,60,60,2.0,0.0
897,47.0,60,60,2.0,0.0
898,57.0,60,60,2.0,0.0
899,75.0,0,120,0.0,0.0
900,66.0,60,120,1.0,0.0
901,47.0,0,60,2.0,0.0
902,55.0,60,60,2.0,0.0
903,76.0,60,240,0.0,0.0
904,64.0,0,60,1.0,0.0
905,54.0,0,60,2.0,0.0
906,66.0,60,60,1.0,0.0
907,67.0,0,300,1.0,0.0
908,52.0,60,60,2.0,0.0
909,55.0,0,60,2.0,0.0
910,50.0,60,60,2.0,0.0
911,71.0,0,120,0.0,0.0
912,55.0,60,60,2.0,0.0
913,49.0,60,60,2.0,0.0
914,69.0,10,590,0.0,0.0
915,66.0,60,60,1.0,0.0
916,55.0,0,60,2.0,0.0
917,64.0,60,60,1.0,0.0
918,47.0,0,60,2.0,0.0
919,55.0,0,60,2.0,0.0
920,62.0,60,60,1.0,0.0
921,61.0,60,60,1.0,0.0
922,45.0,0,60,2.0,0.0
923,55.0,0,60,2.0,0.0
924,64.0,60,60,1.0,0.0
925,62.0,60,60,1.0,0.0
926,54.0,0,60,2.0,0.0
927,52.0,60,60,2.0,0.0
928,64.0,0,60,1.0,0.0
929,66.0,0,300,1.0,0.0
930,50.0,50,60,2.0,0.0
931,54.0,60,60,2.0,0.0
932,49.0,60,60,2.0,0.0
933,69.0,0,120,0.0,0.0
934,54.0,60,60,2.0,0.0
935,47.0,60,60,2.0,0.0
936,67.0,10,590,0.0,0.0
937,64.0,0,60,1.0,0.0
938,54.0,60,60,2.0,0.0
939,62.0,60,60,1.0,0.0
940,45.0,0,60,2.0,0.0
941,61.0,0,60,1.0,0.0
942,54.0,60,60,2.0,0.0
943,43.0,0,60,2.0,0.0
944,59.0,60,60,1.0,0.0
945,54.0,0,60,2.0,0.0
946,62.0,60,60,1.0,0.0
947,52.0,60,60,2.0,0.0
948,61.0,0,60,1.0,0.0
949,62.0,0,60,1.0,0.0
950,50.0,60,60,2.0,0.0
951,64.0,0,300,1.0,0.0
952,49.0,50,60,2.0,0.0
953,52.0,60,60,2.0,0.0
954,47.0,60,60,2.0,0.0
955,67.0,0,120,0.0,0.0
956,52.0,60,60,2.0,0.0
957,46.0,60,60,2.0,0.0
958,66.0,60,420,0.0,0.0
959,52.0,60,60,2.0,0.0
960,62.0,0,60,1.0,0.0
961,61.0,60,60,1.0,0.0
962,44.0,0,60,2.0,0.0
963,59.0,0,60,1.0,0.0
964,52.0,60,60,2.0,0.0
965,42.0,60,60,2.0,0.0
966,58.0,0,60,1.0,0.0
967,52.0,60,60,2.0,0.0
968,61.0,0,60,1.0,0.0
969,50.0,0,60,2.0,0.0
970,59.0,60,120,1.0,0.0
971,71.0,0,60,0.0,0.0
972,54.0,0,60,2.0,0.0
973,52.0,0,60,2.0,0.0
974,73.0,60,60,0.0,0.0
975,50.0,0,60,2.0,0.0
976,71.0,60,60,0.0,0.0
977,49.0,60,60,2.0,0.0
978,70.0,0,60,0.0,0.0
979,71.0,0,60,0.0,0.0
980,47.0,60,60,2.0,0.0
981,46.0,60,60,2.0,0.0
982,73.0,0,120,0.0,0.0
983,49.0,60,60,2.0,0.0
984,74.0,60,60,0.0,0.0
985,47.0,0,60,2.0,0.0
986,73.0,0,60,0.0,0.0
987,46.0,60,60,2.0,0.0
988,44.0,0,60,2.0,0.0
989,71.0,60,60,0.0,0.0
990,42.0,0,60,2.0,0.0
991,73.0,120,60,0.0,0.0
992,74.0,60,120,0.0,0.0
993,47.0,0,120,2.0,0.0
994,49.0,60,60,2.0,0.0
995,73.0,0,120,0.0,0.0
996,47.0,60,60,2.0,0.0
997,71.0,0,120,0.0,0.0
998,46.0,60,60,2.0,0.0
999,47.0,120,60,2.0,0.0
1000,70.0,0,120,0.0,0.0
1001,49.0,60,120,2.0,0.0
1002,79.0,120,240,0.0,0.0
1003,50.0,60,60,2.0,0.0
1004,49.0,60,60,2.0,0.0
1005,47.0,60,60,2.0,0.0
1006,49.0,0,60,2.0,0.0
1007,50.0,0,120,2.0,0.0
1008,78.0,60,120,0.0,0.0
1009,49.0,0,120,2.0,0.0
1010,79.0,60,60,0.0,0.0
1011,78.0,60,60,0.0,0.0
1012,47.0,0,120,2.0,0.0
1013,76.0,60,60,0.0,0.0
1014,74.0,120,60,0.0,0.0
1015,73.0,0,120,0.0,0.0
1016,46.0,60,120,2.0,0.0
1017,76.0,60,60,0.0,0.0
1018,55.0,60,240,2.0,0.0
1019,74.0,60,60,0.0,0.0
1020,73.0,60,60,0.0,0.0
1021,71.0,0,60,0.0,0.0
1022,70.0,60,60,0.0,0.0
1023,54.0,0,60,2.0,0.0
1024,56.0,0,60,2.0,0.0
1025,71.0,60,60,0.0,0.0
1026,73.0,0,60,0.0,0.0
1027,58.0,60,60,2.0,0.0
1028,70.0,60,60,0.0,0.0
1029,54.0,0,60,2.0,0.0
1030,74.0,0,60,0.0,0.0
1031,59.0,60,60,2.0,0.0
1032,70.0,0,60,0.0,0.0
1033,54.0,60,60,2.0,0.0
1034,61.0,60,60,2.0,0.0
1035,76.0,0,60,0.0,0.0
1036,54.0,60,60,2.0,0.0
1037,70.0,0,60,0.0,0.0
1038,62.0,0,60,2.0,0.0
1039,78.0,60,60,0.0,0.0
1040,54.0,60,60,2.0,0.0
1041,70.0,0,60,0.0,0.0
1042,64.0,0,60,2.0,0.0
1043,79.0,60,60,0.0,0.0
1044,70.0,60,60,0.0,0.0
1045,54.0,0,60,2.0,0.0
1046,62.0,60,60,2.0,0.0
1047,78.0,0,60,0.0,0.0
1048,54.0,0,60,2.0,0.0
1049,70.0,60,60,0.0,0.0
1050,55.0,0,60,2.0,0.0
1051,71.0,60,60,0.0,0.0
1052,78.0,0,60,0.0,0.0
1053,62.0,30,60,2.0,0.0
1054,76.0,30,30,0.0,0.0
1055,61.0,0,30,2.0,0.0
1056,74.0,0,30,0.0,0.0
1057,59.0,30,30,2.0,0.0
1058,73.0,0,30,0.0,0.0
1059,58.0,30,30,2.0,0.0
1060,74.0,60,30,0.0,0.0
1061,59.0,0,30,2.0,0.0
1062,61.0,0,60,2.0,0.0
1063,76.0,60,60,0.0,0.0
1064,52.0,0,60,2.0,0.0
1065,68.0,60,60,0.0,0.0
1066,54.0,0,60,2.0,0.0
1067,69.0,60,60,0.0,0.0
1068,61.0,30,60,2.0,0.0
1069,76.0,0,60,0.0,0.0
1070,59.0,30,30,2.0,0.0
1071,74.0,0,30,0.0,0.0
1072,73.0,0,30,0.0,0.0
1073,57.0,30,30,2.0,0.0
1074,71.0,0,30,0.0,0.0
1075,56.0,30,30,2.0,0.0
1076,73.0,0,30,0.0,0.0
1077,57.0,120,30,2.0,0.0
1078,74.0,30,1500,0.0,0.0
1079,59.0,60,120,2.0,0.0
1080,61.0,0,60,1.0,0.0
1081,62.0,60,60,1.0,0.0
1082,59.0,60,60,1.0,0.0
1083,64.0,60,60,1.0,0.0
1084,59.0,60,60,1.0,0.0
1085,66.0,60,60,1.0,0.0
1086,59.0,60,60,1.0,0.0
1087,68.0,60,60,1.0,0.0
1088,59.0,60,60,1.0,0.0
1089,47.0,60,120,2.0,0.0
1090,69.0,60,60,1.0,0.0
1091,59.0,0,60,1.0,0.0
1092,68.0,0,120,1.0,0.0
1093,52.0,60,60,2.0,0.0
1094,54.0,60,60,2.0,0.0
1095,64.0,60,120,1.0,0.0
1096,56.0,60,60,2.0,0.0
1097,52.0,0,60,2.0,0.0
1098,57.0,60,60,2.0,0.0
1099,66.0,60,120,1.0,0.0
1100,52.0,0,60,2.0,0.0
1101,59.0,60,60,2.0,0.0
1102,68.0,60,120,1.0,0.0
1103,52.0,0,60,2.0,0.0
1104,61.0,60,60,2.0,0.0
1105,69.0,60,120,1.0,0.0
1106,52.0,0,60,2.0,0.0
1107,62.0,60,60,2.0,0.0
1108,71.0,60,120,1.0,0.0
1109,52.0,0,60,2.0,0.0
1110,64.0,60,180,1.0,0.0
1111,61.0,60,120,2.0,0.0
1112,66.0,30,30,0.0,0.0
1113,68.0,0,30,0.0,0.0
1114,69.0,0,60,0.0,0.0
1115,62.0,0,60,1.0,0.0
1116,64.0,60,60,0.0,0.0
1117,61.0,60,60,1.0,0.0
1118,71.0,0,60,0.0,0.0
1119,59.0,60,60,1.0,0.0
1120,64.0,0,60,0.0,0.0
1121,73.0,0,60,0.0,0.0
1122,57.0,60,60,1.0,0.0
1123,64.0,0,60,0.0,0.0
1124,59.0,60,60,1.0,0.0
1125,74.0,0,60,0.0,0.0
1126,57.0,60,60,1.0,0.0
1127,66.0,0,60,0.0,0.0
1128,55.0,60,60,1.0,0.0
1129,49.0,0,120,2.0,0.0
1130,76.0,0,60,0.0,0.0
1131,54.0,60,60,1.0,0.0
1132,67.0,60,60,0.0,0.0
1133,52.0,0,60,1.0,0.0
1134,50.0,60,180,2.0,0.0
1135,66.0,30,60,0.0,0.0
1136,67.0,30,30,0.0,0.0
1137,69.0,60,30,0.0,0.0
1138,71.0,0,60,0.0,0.0
1139,66.0,60,60,0.0,0.0
1140,52.0,0,60,2.0,0.0
1141,73.0,60,60,0.0,0.0
1142,50.0,0,60,2.0,0.0
1143,49.0,60,60,2.0,0.0
1144,66.0,0,60,0.0,0.0
1145,74.0,0,60,0.0,0.0
1146,47.0,60,60,2.0,0.0
1147,66.0,0,60,0.0,0.0
1148,49.0,60,60,2.0,0.0
1149,76.0,60,60,0.0,0.0
1150,47.0,0,60,2.0,0.0
1151,45.0,60,60,2.0,0.0
1152,67.0,0,60,0.0,0.0
1153,43.0,60,60,2.0,0.0
1154,78.0,0,60,0.0,0.0
1155,42.0,0,60,2.0,0.0
1156,69.0,60,60,0.0,0.0
1157,40.0,60,120,2.0,0.0
1158,67.0,60,60,0.0,0.0
1159,66.0,0,60,0.0,0.0
1160,50.0,60,120,2.0,0.0
1161,67.0,60,60,0.0,0.0
1162,71.0,0,60,0.0,0.0
1163,49.0,60,120,2.0,0.0
1164,76.0,60,60,0.0,0.0
1165,67.0,0,60,0.0,0.0
1166,66.0,60,60,0.0,0.0
1167,50.0,0,120,2.0,0.0
1168,71.0,60,60,0.0,0.0
1169,52.0,0,60,1.0,0.0
1170,69.0,60,60,0.0,0.0
1171,50.0,60,60,1.0,0.0
1172,73.0,0,60,0.0,0.0
1173,47.0,0,120,2.0,0.0
1174,74.0,0,240,0.0,0.0
1175,49.0,60,60,1.0,0.0
1176,50.0,120,60,1.0,0.0
1177,43.0,60,120,2.0,0.0
1178,52.0,0,120,1.0,0.0
1179,45.0,0,240,2.0,0.0
1180,54.0,60,60,1.0,0.0
1181,73.0,0,240,0.0,0.0
1182,52.0,60,60,1.0,0.0
1183,50.0,60,60,1.0,0.0
1184,52.0,120,60,1.0,0.0
1185,50.0,60,120,2.0,0.0
1186,74.0,0,120,0.0,0.0
1187,54.0,0,120,1.0,0.0
1188,76.0,60,60,0.0,0.0
1189,52.0,0,120,1.0,0.0
1190,49.0,60,120,2.0,0.0
1191,74.0,0,60,0.0,0.0
1192,47.0,120,120,2.0,0.0
1193,50.0,0,120,1.0,0.0
1194,73.0,60,60,0.0,0.0
1195,74.0,0,60,0.0,0.0
1196,49.0,60,120,1.0,0.0
1197,45.0,16,2040,2.0,0.0
1198,76.0,0,120,0.0,0.0
1199,59.0,0,240,1.0,0.0
1200,78.0,60,60,0.0,0.0
1201,76.0,60,60,0.0,0.0
1202,74.0,60,60,0.0,0.0
1203,76.0,120,60,0.0,0.0
1204,78.0,60,120,0.0,0.0
1205,57.0,0,120,1.0,0.0
1206,59.0,60,60,1.0,0.0
1207,79.0,0,60,0.0,0.0
1208,78.0,0,60,0.0,0.0
1209,57.0,60,60,1.0,0.0
1210,55.0,0,60,1.0,0.0
1211,76.0,60,60,0.0,0.0
1212,74.0,120,60,0.0,0.0
1213,54.0,0,60,1.0,0.0
1214,52.0,0,120,1.0,0.0
1215,73.0,60,120,0.0,0.0
1216,83.0,60,300,0.0,0.0
1217,55.0,60,60,1.0,0.0
1218,54.0,60,60,1.0,0.0
1219,52.0,60,60,1.0,0.0
1220,50.0,60,60,1.0,0.0
1221,49.0,0,240,1.0,0.0
1222,81.0,60,60,0.0,0.0
1223,83.0,60,60,0.0,0.0
1224,81.0,60,60,0.0,0.0
1225,50.0,6,180,1.0,0.0
1226,79.0,60,60,0.0,0.0
1227,78.0,22,0,0.0,0.0
1228,76.0,16,22,0.0,0.0
1229,78.0,22,22,0.0,0.0
1230,55.0,20,30,1.0,0.0
1231,76.0,2,22,0.0,0.0
1232,78.0,10,22,0.0,0.0
1233,54.0,12,30,1.0,0.0
1234,76.0,22,22,0.0,0.0
1235,52.0,18,60,1.0,0.0
1236,78.0,22,22,0.0,0.0
1237,76.0,4,22,0.0,0.0
1238,78.0,22,22,0.0,0.0
1239,55.0,2,60,1.0,0.0
1240,76.0,20,22,0.0,0.0
1241,78.0,22,22,0.0,0.0
1242,50.0,8,60,1.0,0.0
1243,76.0,22,22,0.0,0.0
1244,78.0,14,22,0.0,0.0
1245,76.0,22,22,0.0,0.0
1246,55.0,14,60,1.0,0.0
1247,78.0,22,22,0.0,0.0
1248,76.0,8,22,0.0,0.0
1249,78.0,22,22,0.0,0.0
1250,49.0,20,60,1.0,0.0
1251,76.0,22,22,0.0,0.0
1252,78.0,2,22,0.0,0.0
1253,76.0,22,22,0.0,0.0
1254,55.0,4,60,1.0,0.0
1255,78.0,18,22,0.0,0.0
1256,76.0,22,22,0.0,0.0
1257,47.0,10,60,1.0,0.0
1258,78.0,22,22,0.0,0.0
1259,76.0,12,22,0.0,0.0
1260,78.0,22,22,0.0,0.0
1261,55.0,0,60,1.0,0.0
1262,76.0,22,22,0.0,0.0
1263,78.0,6,22,0.0,0.0
1264,76.0,22,22,0.0,0.0
1265,45.0,22,60,1.0,0.0
1266,78.0,22,22,0.0,0.0
1267,76.0,0,22,0.0,0.0
1268,55.0,6,60,1.0,0.0
1269,78.0,22,22,0.0,0.0
1270,76.0,16,22,0.0,0.0
1271,78.0,54,22,0.0,0.0
1272,54.0,6,60,1.0,0.0
1273,76.0,24,60,0.0,0.0
1274,55.0,60,60,1.0,0.0
1275,81.0,30,30,0.0,0.0
1276,79.0,0,30,0.0,0.0
1277,78.0,60,60,0.0,0.0
1278,57.0,60,300,1.0,0.0
1279,52.0,0,60,2.0,0.0
1280,81.0,60,60,0.0,0.0
1281,76.0,0,60,0.0,0.0
1282,50.0,60,60,2.0,0.0
1283,81.0,60,60,0.0,0.0
1284,49.0,0,60,2.0,0.0
1285,47.0,60,240,2.0,0.0
1286,74.0,0,60,0.0,0.0
1287,81.0,0,60,0.0,0.0
1288,55.0,60,60,1.0,0.0
1289,73.0,60,60,0.0,0.0
1290,54.0,0,60,1.0,0.0
1291,52.0,0,60,1.0,0.0
1292,81.0,0,60,0.0,0.0
1293,50.0,0,60,1.0,0.0
1294,71.0,60,60,0.0,0.0
1295,54.0,0,60,1.0,0.0
1296,81.0,60,60,0.0,0.0
1297,52.0,0,60,1.0,0.0
1298,79.0,60,60,0.0,0.0
1299,54.0,60,60,1.0,0.0
1300,78.0,0,60,0.0,0.0
1301,55.0,60,300,1.0,0.0
1302,76.0,60,60,0.0,0.0
1303,79.0,60,60,0.0,0.0
1304,50.0,0,60,2.0,0.0
1305,74.0,60,60,0.0,0.0
1306,49.0,0,60,2.0,0.0
1307,47.0,60,60,2.0,0.0
1308,79.0,0,60,0.0,0.0
1309,45.0,0,240,2.0,0.0
1310,73.0,0,60,0.0,0.0
1311,79.0,0,60,0.0,0.0
1312,54.0,60,60,1.0,0.0
1313,52.0,0,60,1.0,0.0
1314,71.0,60,60,0.0,0.0
1315,50.0,0,60,1.0,0.0
1316,79.0,60,60,0.0,0.0
1317,49.0,60,60,1.0,0.0
1318,69.0,0,60,0.0,0.0
1319,79.0,0,60,0.0,0.0
1320,52.0,60,60,1.0,0.0
1321,78.0,0,60,0.0,0.0
1322,50.0,60,60,1.0,0.0
1323,52.0,60,60,1.0,0.0
1324,76.0,0,60,0.0,0.0
1325,54.0,60,300,1.0,0.0
1326,74.0,60,60,0.0,0.0
1327,48.0,0,60,2.0,0.0
1328,78.0,60,60,0.0,0.0
1329,47.0,60,60,2.0,0.0
1330,72.0,0,60,0.0,0.0
1331,78.0,0,60,0.0,0.0
1332,45.0,60,60,2.0,0.0
1333,71.0,0,60,0.0,0.0
1334,43.0,0,120,2.0,0.0
1335,47.0,0,60,1.0,0.0
1336,78.0,60,60,0.0,0.0
1337,49.0,60,60,1.0,0.0
1338,69.0,0,60,0.0,0.0
1339,50.0,60,60,1.0,0.0
1340,78.0,0,60,0.0,0.0
1341,67.0,0,60,0.0,0.0
1342,52.0,60,60,1.0,0.0
1343,78.0,60,60,0.0,0.0
1344,54.0,0,60,1.0,0.0
1345,76.0,0,60,0.0,0.0
1346,55.0,60,60,1.0,0.0
1347,74.0,0,60,0.0,0.0
1348,57.0,60,60,1.0,0.0
1349,73.0,0,60,0.0,0.0
1350,55.0,60,60,1.0,0.0
1351,76.0,60,60,0.0,0.0
1352,54.0,0,60,1.0,0.0
1353,71.0,0,60,0.0,0.0
1354,52.0,60,60,1.0,0.0
1355,76.0,0,60,0.0,0.0
1356,50.0,60,60,1.0,0.0
1357,69.0,60,60,0.0,0.0
1358,49.0,0,120,1.0,0.0
1359,45.0,0,60,2.0,0.0
1360,76.0,60,60,0.0,0.0
1361,47.0,0,60,2.0,0.0
1362,67.0,60,60,0.0,0.0
1363,76.0,60,60,0.0,0.0
1364,49.0,0,60,2.0,0.0
1365,50.0,0,60,2.0,0.0
1366,66.0,60,60,0.0,0.0
1367,76.0,0,60,0.0,0.0
1368,52.0,60,60,2.0,0.0
1369,74.0,60,60,0.0,0.0
1370,54.0,0,60,2.0,0.0
1371,66.0,0,60,0.0,0.0
1372,55.0,60,60,2.0,0.0
1373,57.0,0,120,2.0,0.0
1374,64.0,60,60,0.0,0.0
1375,67.0,60,60,0.0,0.0
1376,45.0,22,120,2.0,0.0
1377,74.0,60,60,0.0,0.0
1378,73.0,0,60,0.0,0.0
1379,50.0,12,120,2.0,0.0
1380,76.0,22,22,0.0,0.0
1381,74.0,22,22,0.0,0.0
1382,76.0,22,22,0.0,0.0
1383,74.0,22,22,0.0,0.0
1384,76.0,10,22,0.0,0.0
1385,74.0,22,22,0.0,0.0
1386,48.0,18,60,2.0,0.0
1387,76.0,22,22,0.0,0.0
1388,74.0,4,22,0.0,0.0
1389,76.0,22,22,0.0,0.0
1390,50.0,2,60,2.0,0.0
1391,74.0,20,22,0.0,0.0
1392,76.0,22,22,0.0,0.0
1393,52.0,8,60,2.0,0.0
1394,74.0,22,22,0.0,0.0
1395,76.0,14,22,0.0,0.0
1396,74.0,22,22,0.0,0.0
1397,50.0,14,60,2.0,0.0
1398,76.0,22,22,0.0,0.0
1399,74.0,8,22,0.0,0.0
1400,76.0,22,22,0.0,0.0
1401,48.0,4,120,2.0,0.0
1402,74.0,22,22,0.0,0.0
1403,76.0,22,22,0.0,0.0
1404,74.0,22,22,0.0,0.0
1405,76.0,18,22,0.0,0.0
1406,74.0,22,22,0.0,0.0
1407,47.0,10,60,2.0,0.0
1408,76.0,22,22,0.0,0.0
1409,74.0,12,22,0.0,0.0
1410,76.0,22,22,0.0,0.0
1411,48.0,16,60,2.0,0.0
1412,74.0,22,22,0.0,0.0
1413,76.0,6,22,0.0,0.0
1414,74.0,22,22,0.0,0.0
1415,50.0,22,60,2.0,0.0
1416,76.0,22,22,0.0,0.0
1417,74.0,0,22,0.0,0.0
1418,76.0,22,22,0.0,0.0
1419,48.0,6,60,2.0,0.0
1420,74.0,16,22,0.0,0.0
1421,76.0,22,22,0.0,0.0
1422,47.0,0,120,2.0,0.0
1423,74.0,22,22,0.0,0.0
1424,76.0,22,22,0.0,0.0
1425,74.0,22,22,0.0,0.0
1426,67.0,18,60,1.0,0.0
1427,76.0,22,22,0.0,0.0
1428,74.0,4,22,0.0,0.0
1429,76.0,22,22,0.0,0.0
1430,65.0,2,60,1.0,0.0
1431,48.0,0,120,2.0,0.0
1432,74.0,20,22,0.0,0.0
1433,76.0,22,22,0.0,0.0
1434,64.0,8,60,1.0,0.0
1435,74.0,22,22,0.0,0.0
1436,76.0,14,22,0.0,0.0
1437,74.0,22,22,0.0,0.0
1438,62.0,14,60,1.0,0.0
1439,50.0,0,120,2.0,0.0
1440,76.0,22,22,0.0,0.0
1441,74.0,8,22,0.0,0.0
1442,76.0,22,22,0.0,0.0
1443,65.0,20,60,1.0,0.0
1444,74.0,22,22,0.0,0.0
1445,76.0,2,22,0.0,0.0
1446,74.0,22,22,0.0,0.0
1447,64.0,42,60,1.0,0.0
1448,55.0,60,120,2.0,0.0
1449,76.0,18,22,0.0,0.0
1450,74.0,18,60,0.0,0.0
1451,65.0,0,60,1.0,0.0
1452,64.0,60,60,1.0,0.0
1453,45.0,60,240,2.0,0.0
1454,72.0,0,360,0.0,0.0
1455,62.0,60,60,1.0,0.0
1456,60.0,60,60,1.0,0.0
1457,64.0,0,60,1.0,0.0
1458,62.0,60,60,1.0,0.0
1459,47.0,0,120,2.0,0.0
1460,64.0,60,60,1.0,0.0
1461,71.0,0,360,0.0,0.0
1462,48.0,60,120,2.0,0.0
1463,62.0,60,60,1.0,0.0
1464,60.0,0,60,1.0,0.0
1465,50.0,60,120,2.0,0.0
1466,59.0,60,60,1.0,0.0
1467,62.0,0,60,1.0,0.0
1468,60.0,60,60,1.0,0.0
1469,52.0,0,120,2.0,0.0
1470,62.0,60,60,1.0,0.0
1471,42.0,120,240,2.0,0.0
1472,69.0,0,240,0.0,0.0
1473,60.0,60,60,1.0,0.0
1474,59.0,60,60,1.0,0.0
1475,57.0,60,60,1.0,0.0
1476,60.0,0,60,1.0,0.0
1477,59.0,0,360,1.0,0.0
1478,43.0,60,120,2.0,0.0
1479,67.0,0,60,0.0,0.0
1480,69.0,0,60,0.0,0.0
1481,42.0,60,60,2.0,0.0
1482,67.0,0,60,0.0,0.0
1483,43.0,60,60,2.0,0.0
1484,66.0,60,60,0.0,0.0
1485,45.0,0,60,2.0,0.0
1486,47.0,0,60,2.0,0.0
1487,67.0,60,60,0.0,0.0
1488,36.0,0,120,2.0,0.0
1489,66.0,30,60,0.0,0.0
1490,57.0,0,120,1.0,0.0
1491,62.0,30,30,0.0,0.0
1492,64.0,60,30,0.0,0.0
1493,66.0,60,60,0.0,0.0
1494,60.0,0,60,2.0,0.0
1495,62.0,60,60,0.0,0.0
1496,59.0,0,60,2.0,0.0
1497,67.0,0,60,0.0,0.0
1498,57.0,60,60,2.0,0.0
1499,55.0,0,60,2.0,0.0
1500,62.0,60,60,0.0,0.0
1501,54.0,0,60,2.0,0.0
1502,69.0,60,60,0.0,0.0
1503,52.0,0,60,2.0,0.0
1504,62.0,60,60,0.0,0.0
1505,50.0,0,60,2.0,0.0
1506,71.0,60,60,0.0,0.0
1507,48.0,60,60,2.0,0.0
1508,62.0,0,60,0.0,0.0
1509,47.0,60,60,2.0,0.0
1510,72.0,0,60,0.0,0.0
1511,62.0,60,60,0.0,0.0
1512,45.0,0,60,2.0,0.0
1513,71.0,0,60,0.0,0.0
1514,43.0,60,60,2.0,0.0
1515,79.0,0,60,0.0,0.0
1516,45.0,60,60,2.0,0.0
1517,47.0,0,60,2.0,0.0
1518,77.0,60,60,0.0,0.0
1519,76.0,0,60,0.0,0.0
1520,43.0,60,60,2.0,0.0
1521,74.0,60,60,0.0,0.0
1522,48.0,0,60,2.0,0.0
1523,43.0,0,60,2.0,0.0
1524,72.0,60,60,0.0,0.0
1525,50.0,0,60,2.0,0.0
1526,71.0,60,60,0.0,0.0
1527,43.0,0,60,2.0,0.0
1528,69.0,60,60,0.0,0.0
1529,67.0,0,60,0.0,0.0
1530,52.0,60,60,2.0,0.0
1531,43.0,60,60,2.0,0.0
1532,65.0,0,60,0.0,0.0
1533,53.0,0,60,2.0,0.0
1534,64.0,60,60,0.0,0.0
1535,43.0,0,60,2.0,0.0
1536,62.0,60,60,0.0,0.0
1537,52.0,0,60,2.0,0.0
1538,60.0,30,60,0.0,0.0
1539,40.0,30,30,2.0,0.0
1540,76.0,60,60,0.0,0.0
1541,42.0,0,30,2.0,0.0
1542,44.0,0,60,2.0,0.0
1543,74.0,60,60,0.0,0.0
1544,40.0,60,60,2.0,0.0
1545,72.0,0,60,0.0,0.0
1546,71.0,60,60,0.0,0.0
1547,45.0,0,60,2.0,0.0
1548,40.0,60,60,2.0,0.0
1549,69.0,0,60,0.0,0.0
1550,47.0,0,60,2.0,0.0
1551,68.0,60,60,0.0,0.0
1552,40.0,0,60,2.0,0.0
1553,66.0,60,60,0.0,0.0
1554,48.0,0,60,2.0,0.0
1555,64.0,60,60,0.0,0.0
1556,62.0,0,60,0.0,0.0
1557,40.0,60,60,2.0,0.0
1558,60.0,60,60,0.0,0.0
1559,50.0,0,60,2.0,0.0
1560,40.0,60,60,2.0,0.0
1561,59.0,0,60,0.0,0.0
1562,49.0,0,60,2.0,0.0
1563,57.0,60,60,0.0,0.0
1564,59.0,0,60,0.0,0.0
1565,57.0,60,60,2.0,0.0
1566,61.0,0,60,0.0,0.0
1567,55.0,60,60,2.0,0.0
1568,54.0,60,60,2.0,0.0
1569,57.0,0,60,0.0,0.0
1570,62.0,0,60,0.0,0.0
1571,52.0,60,60,2.0,0.0
1572,50.0,0,60,2.0,0.0
1573,57.0,60,60,0.0,0.0
1574,49.0,0,60,2.0,0.0
1575,64.0,60,60,0.0,0.0
1576,47.0,0,60,2.0,0.0
1577,57.0,60,60,0.0,0.0
1578,45.0,60,60,2.0,0.0
1579,66.0,0,60,0.0,0.0
1580,57.0,60,60,0.0,0.0
1581,43.0,0,60,2.0,0.0
1582,42.0,60,60,2.0,0.0
1583,67.0,0,60,0.0,0.0
1584,40.0,120,60,2.0,0.0
1585,57.0,0,60,0.0,0.0
1586,62.0,0,120,1.0,0.0
1587,66.0,60,120,0.0,0.0
1588,38.0,60,780,2.0,0.0
1589,60.0,60,60,1.0,0.0
1590,71.0,0,120,0.0,0.0
1591,62.0,60,60,1.0,0.0
1592,67.0,120,120,0.0,0.0
1593,64.0,60,60,1.0,0.0
1594,62.0,0,60,1.0,0.0
1595,60.0,0,120,1.0,0.0
1596,64.0,60,120,0.0,0.0
1597,69.0,0,120,0.0,0.0
1598,59.0,60,60,1.0,0.0
1599,60.0,60,60,1.0,0.0
1600,66.0,0,120,0.0,0.0
1601,62.0,60,60,1.0,0.0
1602,60.0,60,60,1.0,0.0
1603,67.0,50,420,0.0,0.0
1604,59.0,0,120,1.0,0.0
1605,50.0,60,60,2.0,0.0
1606,60.0,0,120,1.0,0.0
1607,48.0,60,60,2.0,0.0
1608,50.0,60,60,2.0,0.0
1609,62.0,0,120,1.0,0.0
1610,52.0,60,60,2.0,0.0
1611,50.0,60,60,2.0,0.0
1612,64.0,14,120,1.0,0.0
1613,48.0,0,120,2.0,0.0
1614,69.0,10,50,0.0,0.0
1615,71.0,22,22,0.0,0.0
1616,47.0,20,60,2.0,0.0
1617,54.0,0,240,1.0,0.0
1618,69.0,22,22,0.0,0.0
1619,71.0,2,22,0.0,0.0
1620,69.0,22,22,0.0,0.0
1621,48.0,60,60,2.0,0.0
1622,71.0,18,22,0.0,0.0
1623,69.0,0,78,0.0,0.0
1624,50.0,30,60,2.0,0.0
1625,67.0,30,30,0.0,0.0
1626,48.0,120,60,2.0,0.0
1627,69.0,0,30,0.0,0.0
1628,71.0,0,120,0.0,0.0
1629,47.0,60,120,2.0,0.0
1630,55.0,0,120,1.0,0.0
1631,69.0,0,60,1.0,0.0
1632,45.0,0,60,2.0,0.0
1633,72.0,60,60,0.0,0.0
1634,67.0,60,60,1.0,0.0
1635,47.0,0,60,2.0,0.0
1636,71.0,0,60,0.0,0.0
1637,48.0,60,60,2.0,0.0
1638,69.0,0,60,0.0,0.0
1639,66.0,0,60,1.0,0.0
1640,71.0,0,60,0.0,0.0
1641,47.0,0,60,2.0,0.0
1642,67.0,120,60,1.0,0.0
1643,72.0,0,120,0.0,0.0
1644,69.0,0,120,1.0,0.0
1645,45.0,60,120,2.0,0.0
1646,74.0,60,60,0.0,0.0
1647,71.0,0,60,1.0,0.0
1648,43.0,0,60,2.0,0.0
1649,69.0,0,60,1.0,0.0
1650,45.0,0,60,2.0,0.0
1651,72.0,60,60,0.0,0.0
1652,47.0,0,60,2.0,0.0
1653,67.0,0,60,1.0,0.0
1654,71.0,60,60,0.0,0.0
1655,69.0,0,60,1.0,0.0
1656,45.0,0,60,2.0,0.0
1657,72.0,60,60,0.0,0.0
1658,71.0,60,120,1.0,0.0
1659,74.0,0,120,0.0,0.0
1660,43.0,30,60,2.0,0.0
1661,55.0,30,30,2.0,0.0
1662,54.0,0,30,2.0,0.0
1663,72.0,60,120,0.0,0.0
1664,69.0,0,120,1.0,0.0
1665,52.0,60,60,2.0,0.0
1666,55.0,0,60,2.0,0.0
1667,67.0,0,240,1.0,0.0
1668,50.0,60,60,2.0,0.0
1669,71.0,0,120,0.0,0.0
1670,55.0,60,60,2.0,0.0
1671,69.0,0,120,0.0,0.0
1672,49.0,60,60,2.0,0.0
1673,55.0,60,60,2.0,0.0
1674,74.0,60,120,1.0,0.0
1675,47.0,60,60,2.0,0.0
1676,79.0,60,240,0.0,0.0
1677,55.0,0,60,2.0,0.0
1678,73.0,0,120,1.0,0.0
1679,45.0,60,60,2.0,0.0
1680,55.0,0,60,2.0,0.0
1681,50.0,60,60,2.0,0.0
1682,74.0,0,120,1.0,0.0
1683,78.0,0,120,0.0,0.0
1684,48.0,60,60,2.0,0.0
1685,76.0,0,120,0.0,0.0
1686,46.0,60,60,2.0,0.0
1687,67.0,0,120,1.0,0.0
1688,50.0,60,60,2.0,0.0
1689,45.0,60,60,2.0,0.0
1690,66.0,60,120,1.0,0.0
1691,74.0,0,120,0.0,0.0
1692,50.0,0,60,2.0,0.0
1693,43.0,60,60,2.0,0.0
1694,64.0,0,120,1.0,0.0
1695,73.0,0,120,0.0,0.0
1696,52.0,60,60,2.0,0.0
1697,82.0,60,240,0.0,0.0
1698,73.0,0,240,1.0,0.0
1699,42.0,60,60,2.0,0.0
1700,52.0,60,60,2.0,0.0
1701,40.0,60,60,2.0,0.0
1702,52.0,0,60,2.0,0.0
1703,42.0,60,120,2.0,0.0
1704,72.0,0,240,1.0,0.0
1705,81.0,60,60,0.0,0.0
1706,79.0,0,60,0.0,0.0
1707,78.0,60,60,0.0,0.0
1708,38.0,0,120,2.0,0.0
1709,76.0,90,60,0.0,0.0
1710,43.0,120,120,2.0,0.0
1711,74.0,0,120,0.0,0.0
1712,71.0,30,30,1.0,0.0
1713,69.0,0,30,1.0,0.0
1714,71.0,0,120,1.0,0.0
1715,40.0,60,120,2.0,0.0
1716,79.0,60,120,0.0,0.0
1717,69.0,0,240,1.0,0.0
1718,36.0,60,120,2.0,0.0
1719,72.0,0,60,0.0,0.0
1720,38.0,0,120,2.0,0.0
1721,79.0,60,60,0.0,0.0
1722,78.0,60,60,0.0,0.0
1723,43.0,0,360,2.0,0.0
1724,79.0,30,60,0.0,0.0
1725,71.0,0,120,1.0,0.0
1726,78.0,30,30,0.0,0.0
1727,76.0,60,30,0.0,0.0
1728,71.0,60,120,1.0,0.0
1729,74.0,60,60,0.0,0.0
1730,79.0,0,60,0.0,0.0
1731,72.0,60,60,0.0,0.0
1732,69.0,0,120,1.0,0.0
1733,79.0,90,60,0.0,0.0
1734,67.0,0,240,1.0,0.0
1735,71.0,0,120,0.0,0.0
1736,43.0,30,30,2.0,0.0
1737,45.0,60,30,2.0,0.0
1738,47.0,60,60,2.0,0.0
1739,79.0,60,120,0.0,0.0
1740,43.0,0,60,2.0,0.0
1741,66.0,60,120,1.0,0.0
1742,48.0,60,60,2.0,0.0
1743,69.0,0,120,0.0,0.0
1744,43.0,10,170,2.0,0.0
1745,50.0,0,120,2.0,0.0
1746,71.0,30,60,0.0,0.0
1747,74.0,20,30,0.0,0.0
1748,72.0,60,30,0.0,0.0
1749,43.0,0,2040,2.0,0.0
1750,71.0,60,60,0.0,0.0
1751,67.0,0,0,1.0,0.0
1752,74.0,0,60,0.0,0.0
1753,47.0,0,120,2.0,0.0
1754,65.0,30,120,1.0,0.0
1755,69.0,60,60,0.0,0.0
1756,74.0,0,60,0.0,0.0
1757,67.0,60,120,0.0,0.0
1758,64.0,60,240,1.0,0.0
1759,48.0,30,30,2.0,0.0
1760,47.0,30,30,2.0,0.0
1761,48.0,30,30,2.0,0.0
1762,50.0,0,30,2.0,0.0
1763,72.0,0,300,0.0,0.0
1764,52.0,60,60,2.0,0.0
1765,48.0,0,60,2.0,0.0
1766,63.0,60,120,1.0,0.0
1767,54.0,60,60,2.0,0.0
1768,48.0,0,60,2.0,0.0
1769,55.0,0,1440,2.0,0.0
1770,62.0,60,120,1.0,0.0
1771,67.0,30,30,0.0,0.0
1772,69.0,30,30,0.0,0.0
1773,71.0,0,30,0.0,0.0
1774,72.0,60,60,0.0,0.0
1775,64.0,60,120,1.0,0.0
1776,67.0,0,60,0.0,0.0
1777,74.0,60,60,0.0,0.0
1778,71.0,0,120,1.0,0.0
1779,65.0,0,120,1.0,0.0
1780,67.0,30,60,0.0,0.0
1781,72.0,0,120,1.0,0.0
1782,76.0,30,30,0.0,0.0
1783,71.0,30,30,0.0,0.0
1784,72.0,30,30,0.0,0.0
1785,74.0,0,30,0.0,0.0
1786,76.0,60,60,0.0,0.0
1787,67.0,60,0,1.0,0.0
1788,72.0,0,60,0.0,0.0
1789,78.0,60,60,0.0,0.0
1790,69.0,0,120,1.0,0.0
1791,72.0,120,60,0.0,0.0
1792,79.0,60,300,0.0,0.0
1793,71.0,60,240,1.0,0.0
1794,74.0,60,60,1.0,0.0
1795,76.0,60,60,1.0,0.0
1796,72.0,0,180,1.0,0.0
1797,69.0,360,120,1.0,0.0
1798,78.0,0,60,0.0,0.0
1799,74.0,0,360,1.0,0.0
1800,71.0,0,360,1.0,0.0
1801,79.0,0,360,0.0,0.0
