,note,step,duration,channel,velocity
0,48.0,0,79,0.0,120.0
1,60.0,0,79,1.0,30.0
2,67.0,0,60,0.0,120.0
3,79.0,60,60,1.0,30.0
4,65.0,60,60,0.0,120.0
5,77.0,0,60,1.0,30.0
6,72.0,0,87,1.0,30.0
7,60.0,0,87,0.0,120.0
8,79.0,60,60,1.0,30.0
9,67.0,0,60,0.0,120.0
10,68.0,0,60,0.0,120.0
11,80.0,0,60,1.0,30.0
12,65.0,60,79,1.0,30.0
13,53.0,0,79,0.0,120.0
14,77.0,0,60,1.0,30.0
15,65.0,60,60,0.0,120.0
16,75.0,60,60,1.0,30.0
17,63.0,0,60,0.0,120.0
18,72.0,0,87,1.0,30.0
19,60.0,0,87,0.0,120.0
20,77.0,0,60,1.0,30.0
21,65.0,60,60,0.0,120.0
22,67.0,0,60,0.0,120.0
23,79.0,0,60,1.0,30.0
24,51.0,60,87,0.0,120.0
25,63.0,0,87,1.0,30.0
26,75.0,0,60,1.0,30.0
27,63.0,60,60,0.0,120.0
28,74.0,0,60,1.0,30.0
29,62.0,0,60,0.0,120.0
30,60.0,0,87,0.0,120.0
31,72.0,60,87,1.0,30.0
32,63.0,0,60,0.0,120.0
33,75.0,60,60,1.0,30.0
34,77.0,0,60,1.0,30.0
35,65.0,0,60,0.0,120.0
36,62.0,0,87,1.0,30.0
37,50.0,60,87,0.0,120.0
38,74.0,60,60,1.0,30.0
39,62.0,0,60,0.0,120.0
40,60.0,0,60,0.0,120.0
41,72.0,0,60,1.0,30.0
42,71.0,60,71,1.0,30.0
43,59.0,0,71,0.0,120.0
44,62.0,60,60,0.0,120.0
45,74.0,0,60,1.0,30.0
46,48.0,0,60,0.0,120.0
47,60.0,0,60,1.0,30.0
48,63.0,0,79,0.0,120.0
49,75.0,60,79,1.0,30.0
50,55.0,60,60,0.0,120.0
51,67.0,0,60,1.0,30.0
52,53.0,0,60,0.0,120.0
53,65.0,0,60,1.0,30.0
54,72.0,0,71,0.0,120.0
55,84.0,60,71,1.0,30.0
56,67.0,0,60,1.0,30.0
57,55.0,60,60,0.0,120.0
58,56.0,60,60,0.0,120.0
59,68.0,0,60,1.0,30.0
60,65.0,0,71,0.0,120.0
61,77.0,0,71,1.0,30.0
62,53.0,60,60,0.0,120.0
63,65.0,0,60,1.0,30.0
64,63.0,0,60,1.0,30.0
65,51.0,0,60,0.0,120.0
66,84.0,0,71,1.0,30.0
67,72.0,60,71,0.0,120.0
68,65.0,0,60,1.0,30.0
69,53.0,60,60,0.0,120.0
70,55.0,0,60,0.0,120.0
71,67.0,60,60,1.0,30.0
72,63.0,0,71,0.0,120.0
73,75.0,0,71,1.0,30.0
74,51.0,60,60,0.0,120.0
75,63.0,0,60,1.0,30.0
76,62.0,0,60,1.0,30.0
77,50.0,0,60,0.0,120.0
78,72.0,60,79,0.0,120.0
79,84.0,0,79,1.0,30.0
80,51.0,60,60,0.0,120.0
81,63.0,0,60,1.0,30.0
82,53.0,60,60,0.0,120.0
83,65.0,0,60,1.0,30.0
84,74.0,0,63,1.0,30.0
85,62.0,0,63,0.0,120.0
86,50.0,60,60,0.0,120.0
87,62.0,0,60,1.0,30.0
88,48.0,0,60,0.0,120.0
89,60.0,0,60,1.0,30.0
90,71.0,0,63,0.0,120.0
91,83.0,60,63,1.0,30.0
92,50.0,60,60,0.0,120.0
93,62.0,0,60,1.0,30.0
94,72.0,0,60,1.0,30.0
95,60.0,60,60,0.0,120.0
96,63.0,0,79,1.0,30.0
97,51.0,0,79,0.0,120.0
98,75.0,60,60,1.0,30.0
99,63.0,0,60,0.0,120.0
100,79.0,0,60,1.0,30.0
101,67.0,0,60,0.0,120.0
102,60.0,60,87,1.0,30.0
103,48.0,0,87,0.0,120.0
104,72.0,0,60,0.0,120.0
105,84.0,60,60,1.0,30.0
106,62.0,0,60,0.0,120.0
107,74.0,0,60,1.0,30.0
108,53.0,0,79,0.0,120.0
109,65.0,60,79,1.0,30.0
110,72.0,60,60,0.0,120.0
111,84.0,0,60,1.0,30.0
112,83.0,60,60,1.0,30.0
113,71.0,0,60,0.0,120.0
114,50.0,0,79,0.0,120.0
115,62.0,0,79,1.0,30.0
116,69.0,0,60,0.0,120.0
117,81.0,60,60,1.0,30.0
118,74.0,0,60,1.0,30.0
119,62.0,0,60,0.0,120.0
120,55.0,0,120,0.0,120.0
121,79.0,60,60,1.0,30.0
122,67.0,0,60,0.0,120.0
123,67.0,60,120,1.0,30.0
124,83.0,0,60,1.0,30.0
125,71.0,0,60,0.0,120.0
126,86.0,60,60,1.0,30.0
127,65.0,0,120,1.0,30.0
128,74.0,0,60,0.0,120.0
129,53.0,60,120,0.0,120.0
130,75.0,60,60,1.0,30.0
131,63.0,0,60,0.0,120.0
132,55.0,0,79,0.0,120.0
133,67.0,0,79,1.0,30.0
134,86.0,60,60,1.0,30.0
135,74.0,0,60,0.0,120.0
136,84.0,60,60,1.0,30.0
137,72.0,0,60,0.0,120.0
138,51.0,0,79,0.0,120.0
139,63.0,0,79,1.0,30.0
140,71.0,60,60,0.0,120.0
141,83.0,0,60,1.0,30.0
142,63.0,0,60,0.0,120.0
143,75.0,60,60,1.0,30.0
144,68.0,0,120,1.0,30.0
145,80.0,0,60,1.0,30.0
146,68.0,60,60,0.0,120.0
147,56.0,0,120,0.0,120.0
148,84.0,0,60,1.0,30.0
149,72.0,0,60,0.0,120.0
150,87.0,60,60,1.0,30.0
151,67.0,60,120,1.0,30.0
152,75.0,0,60,0.0,120.0
153,55.0,0,120,0.0,120.0
154,65.0,0,60,0.0,120.0
155,77.0,0,60,1.0,30.0
156,57.0,0,79,0.0,120.0
157,69.0,60,79,1.0,30.0
158,75.0,0,60,0.0,120.0
159,87.0,60,60,1.0,30.0
160,86.0,0,60,1.0,30.0
161,74.0,0,60,0.0,120.0
162,65.0,60,79,1.0,30.0
163,53.0,0,79,0.0,120.0
164,84.0,60,60,1.0,30.0
165,72.0,0,60,0.0,120.0
166,65.0,0,60,0.0,120.0
167,77.0,60,60,1.0,30.0
168,82.0,0,60,1.0,30.0
169,70.0,0,120,1.0,30.0
170,58.0,0,120,0.0,120.0
171,70.0,60,60,0.0,120.0
172,86.0,60,60,1.0,30.0
173,74.0,0,60,0.0,120.0
174,69.0,0,120,1.0,30.0
175,89.0,0,60,1.0,30.0
176,77.0,60,60,0.0,120.0
177,57.0,0,120,0.0,120.0
178,67.0,0,60,0.0,120.0
179,79.0,60,60,1.0,30.0
180,59.0,0,87,0.0,120.0
181,71.0,0,87,1.0,30.0
182,77.0,0,60,0.0,120.0
183,89.0,60,60,1.0,30.0
184,75.0,60,60,0.0,120.0
185,87.0,0,60,1.0,30.0
186,67.0,0,71,1.0,30.0
187,55.0,0,71,0.0,120.0
188,86.0,60,60,1.0,30.0
189,74.0,0,60,0.0,120.0
190,60.0,0,60,0.0,120.0
191,75.0,0,60,0.0,120.0
192,87.0,60,60,1.0,30.0
193,72.0,0,60,1.0,30.0
194,68.0,60,60,0.0,120.0
195,72.0,0,60,0.0,120.0
196,84.0,0,60,1.0,30.0
197,80.0,0,60,1.0,30.0
198,67.0,0,60,0.0,120.0
199,70.0,0,60,0.0,120.0
200,82.0,0,60,1.0,30.0
201,79.0,60,60,1.0,30.0
202,72.0,0,60,0.0,120.0
203,84.0,0,60,1.0,30.0
204,80.0,0,60,1.0,30.0
205,68.0,60,60,0.0,120.0
206,74.0,0,60,0.0,120.0
207,58.0,60,60,0.0,120.0
208,86.0,0,60,1.0,30.0
209,70.0,0,60,1.0,30.0
210,67.0,60,60,0.0,120.0
211,82.0,0,60,1.0,30.0
212,79.0,0,60,1.0,30.0
213,70.0,0,60,0.0,120.0
214,65.0,0,60,0.0,120.0
215,68.0,60,60,0.0,120.0
216,80.0,0,60,1.0,30.0
217,77.0,0,60,1.0,30.0
218,70.0,60,60,0.0,120.0
219,82.0,0,60,1.0,30.0
220,79.0,0,60,1.0,30.0
221,67.0,0,60,0.0,120.0
222,72.0,0,60,0.0,120.0
223,84.0,0,60,1.0,30.0
224,68.0,60,120,1.0,30.0
225,82.0,60,60,1.0,30.0
226,70.0,0,60,0.0,120.0
227,56.0,0,120,0.0,120.0
228,68.0,0,60,0.0,120.0
229,80.0,60,60,1.0,30.0
230,67.0,60,60,0.0,120.0
231,79.0,0,60,1.0,30.0
232,77.0,0,60,1.0,30.0
233,65.0,60,60,0.0,120.0
234,75.0,60,60,1.0,30.0
235,63.0,0,60,0.0,120.0
236,74.0,60,60,1.0,30.0
237,62.0,0,60,0.0,120.0
238,60.0,60,60,0.0,120.0
239,72.0,0,60,1.0,30.0
240,58.0,0,60,0.0,120.0
241,74.0,0,60,0.0,120.0
242,86.0,0,60,1.0,30.0
243,70.0,60,60,1.0,30.0
244,70.0,0,60,0.0,120.0
245,82.0,0,60,1.0,30.0
246,67.0,0,60,0.0,120.0
247,79.0,60,60,1.0,30.0
248,80.0,60,60,1.0,30.0
249,68.0,0,60,0.0,120.0
250,65.0,0,60,0.0,120.0
251,77.0,0,60,1.0,30.0
252,70.0,0,60,0.0,120.0
253,82.0,0,60,1.0,30.0
254,79.0,0,60,1.0,30.0
255,67.0,60,60,0.0,120.0
256,72.0,0,60,0.0,120.0
257,56.0,0,60,0.0,120.0
258,84.0,0,60,1.0,30.0
259,68.0,60,60,1.0,30.0
260,68.0,0,60,0.0,120.0
261,77.0,0,60,1.0,30.0
262,65.0,60,60,0.0,120.0
263,80.0,0,60,1.0,30.0
264,79.0,0,60,1.0,30.0
265,63.0,60,60,0.0,120.0
266,67.0,0,60,0.0,120.0
267,75.0,0,60,1.0,30.0
268,77.0,60,60,1.0,30.0
269,80.0,0,60,1.0,30.0
270,65.0,0,60,0.0,120.0
271,68.0,0,60,0.0,120.0
272,70.0,60,60,0.0,120.0
273,82.0,0,60,1.0,30.0
274,80.0,60,60,1.0,30.0
275,55.0,0,120,0.0,120.0
276,67.0,0,120,1.0,30.0
277,68.0,0,60,0.0,120.0
278,79.0,60,60,1.0,30.0
279,67.0,0,60,0.0,120.0
280,77.0,0,60,1.0,30.0
281,65.0,60,60,0.0,120.0
282,63.0,0,60,0.0,120.0
283,75.0,60,60,1.0,30.0
284,73.0,60,60,1.0,30.0
285,61.0,0,60,0.0,120.0
286,72.0,0,60,1.0,30.0
287,60.0,60,60,0.0,120.0
288,70.0,60,60,1.0,30.0
289,58.0,0,60,0.0,120.0
290,56.0,0,60,0.0,120.0
291,68.0,0,60,1.0,30.0
292,84.0,60,60,1.0,30.0
293,72.0,0,60,0.0,120.0
294,77.0,0,60,1.0,30.0
295,68.0,0,60,0.0,120.0
296,65.0,0,60,0.0,120.0
297,80.0,60,60,1.0,30.0
298,75.0,0,60,1.0,30.0
299,79.0,0,60,1.0,30.0
300,63.0,60,60,0.0,120.0
301,67.0,0,60,0.0,120.0
302,80.0,60,60,1.0,30.0
303,77.0,0,60,1.0,30.0
304,65.0,0,60,0.0,120.0
305,68.0,0,60,0.0,120.0
306,55.0,0,60,0.0,120.0
307,70.0,60,60,0.0,120.0
308,67.0,0,60,1.0,30.0
309,82.0,0,60,1.0,30.0
310,79.0,0,60,1.0,30.0
311,67.0,0,60,0.0,120.0
312,75.0,0,60,1.0,30.0
313,63.0,60,60,0.0,120.0
314,77.0,0,60,1.0,30.0
315,74.0,0,60,1.0,30.0
316,65.0,60,60,0.0,120.0
317,62.0,0,60,0.0,120.0
318,63.0,0,60,0.0,120.0
319,67.0,0,60,0.0,120.0
320,79.0,60,60,1.0,30.0
321,75.0,0,60,1.0,30.0
322,53.0,60,60,0.0,120.0
323,68.0,0,60,0.0,120.0
324,80.0,0,60,1.0,30.0
325,65.0,0,60,1.0,30.0
326,65.0,0,60,0.0,120.0
327,77.0,0,60,1.0,30.0
328,74.0,0,60,1.0,30.0
329,62.0,60,60,0.0,120.0
330,63.0,60,60,0.0,120.0
331,60.0,0,60,0.0,120.0
332,75.0,0,60,1.0,30.0
333,72.0,0,60,1.0,30.0
334,74.0,60,60,1.0,30.0
335,77.0,0,60,1.0,30.0
336,65.0,0,60,0.0,120.0
337,62.0,0,60,0.0,120.0
338,68.0,0,30,0.0,120.0
339,80.0,60,30,1.0,30.0
340,67.0,24,30,0.0,120.0
341,79.0,0,30,1.0,30.0
342,51.0,0,60,0.0,120.0
343,63.0,0,60,1.0,30.0
344,80.0,0,50,1.0,30.0
345,68.0,24,50,0.0,120.0
346,60.0,12,60,0.0,120.0
347,72.0,0,60,1.0,30.0
348,58.0,0,60,0.0,120.0
349,70.0,0,60,1.0,30.0
350,68.0,60,120,0.0,120.0
351,72.0,0,60,1.0,30.0
352,80.0,0,120,1.0,30.0
353,60.0,60,60,0.0,120.0
354,62.0,0,60,1.0,30.0
355,80.0,60,60,1.0,30.0
356,68.0,0,60,0.0,120.0
357,50.0,0,60,0.0,120.0
358,70.0,0,60,1.0,30.0
359,79.0,60,60,1.0,30.0
360,58.0,0,60,0.0,120.0
361,67.0,0,60,0.0,120.0
362,65.0,0,60,0.0,120.0
363,68.0,0,60,1.0,30.0
364,77.0,60,60,1.0,30.0
365,56.0,0,60,0.0,120.0
366,70.0,60,60,1.0,30.0
367,67.0,0,60,0.0,120.0
368,79.0,0,60,1.0,30.0
369,58.0,0,60,0.0,120.0
370,68.0,0,30,0.0,120.0
371,80.0,60,30,1.0,30.0
372,67.0,0,30,0.0,120.0
373,79.0,24,30,1.0,30.0
374,60.0,0,60,1.0,30.0
375,48.0,0,60,0.0,120.0
376,68.0,0,50,0.0,120.0
377,80.0,24,50,1.0,30.0
378,68.0,12,60,1.0,30.0
379,56.0,0,60,0.0,120.0
380,55.0,0,60,0.0,120.0
381,67.0,0,60,1.0,30.0
382,56.0,0,60,0.0,120.0
383,68.0,60,60,1.0,30.0
384,68.0,60,0,0.0,120.0
385,80.0,0,0,1.0,30.0
386,46.0,0,71,0.0,120.0
387,58.0,0,71,1.0,30.0
388,74.0,0,60,0.0,120.0
389,86.0,60,60,1.0,30.0
390,89.0,0,60,1.0,30.0
391,77.0,60,60,0.0,120.0
392,70.0,0,71,1.0,30.0
393,58.0,0,71,0.0,120.0
394,87.0,60,60,1.0,30.0
395,75.0,0,60,0.0,120.0
396,74.0,0,60,0.0,120.0
397,86.0,60,60,1.0,30.0
398,84.0,0,60,1.0,30.0
399,72.0,60,60,0.0,120.0
400,70.0,0,60,0.0,120.0
401,82.0,0,60,1.0,30.0
402,50.0,60,120,0.0,120.0
403,80.0,0,60,1.0,30.0
404,62.0,0,120,1.0,30.0
405,68.0,60,60,0.0,120.0
406,79.0,60,60,1.0,30.0
407,67.0,0,60,0.0,120.0
408,63.0,0,95,1.0,30.0
409,51.0,0,95,0.0,120.0
410,70.0,0,60,0.0,120.0
411,82.0,60,60,1.0,30.0
412,75.0,0,60,0.0,120.0
413,87.0,0,60,1.0,30.0
414,60.0,60,95,1.0,30.0
415,48.0,0,95,0.0,120.0
416,67.0,60,60,0.0,120.0
417,79.0,0,60,1.0,30.0
418,77.0,0,60,1.0,30.0
419,65.0,0,60,0.0,120.0
420,44.0,0,87,0.0,120.0
421,56.0,60,87,1.0,30.0
422,87.0,0,60,1.0,30.0
423,75.0,60,60,0.0,120.0
424,77.0,0,60,1.0,30.0
425,65.0,0,60,0.0,120.0
426,46.0,0,79,0.0,120.0
427,58.0,60,79,1.0,30.0
428,74.0,0,60,0.0,120.0
429,86.0,60,60,1.0,30.0
430,87.0,0,60,1.0,30.0
431,75.0,0,60,0.0,120.0
432,39.0,60,95,0.0,120.0
433,51.0,0,95,1.0,30.0
434,70.0,0,60,0.0,120.0
435,82.0,60,60,1.0,30.0
436,80.0,60,60,1.0,30.0
437,68.0,0,60,0.0,120.0
438,51.0,0,87,0.0,120.0
439,63.0,0,87,1.0,30.0
440,82.0,60,60,1.0,30.0
441,70.0,0,60,0.0,120.0
442,84.0,0,60,1.0,30.0
443,72.0,0,60,0.0,120.0
444,56.0,60,87,1.0,30.0
445,44.0,0,87,0.0,120.0
446,68.0,0,60,0.0,120.0
447,80.0,60,60,1.0,30.0
448,79.0,60,60,1.0,30.0
449,67.0,0,60,0.0,120.0
450,51.0,0,79,0.0,120.0
451,63.0,0,79,1.0,30.0
452,80.0,60,60,1.0,30.0
453,68.0,0,60,0.0,120.0
454,70.0,0,60,0.0,120.0
455,82.0,0,60,1.0,30.0
456,55.0,60,79,1.0,30.0
457,43.0,0,79,0.0,120.0
458,79.0,0,60,1.0,30.0
459,67.0,60,60,0.0,120.0
460,77.0,60,60,1.0,30.0
461,65.0,0,60,0.0,120.0
462,51.0,0,79,0.0,120.0
463,63.0,0,79,1.0,30.0
464,67.0,0,60,0.0,120.0
465,79.0,60,60,1.0,30.0
466,68.0,60,60,0.0,120.0
467,80.0,0,60,1.0,30.0
468,41.0,0,71,0.0,120.0
469,53.0,0,71,1.0,30.0
470,65.0,60,60,0.0,120.0
471,77.0,0,60,1.0,30.0
472,63.0,0,60,0.0,120.0
473,75.0,0,60,1.0,30.0
474,62.0,0,71,1.0,30.0
475,50.0,60,71,0.0,120.0
476,65.0,60,60,0.0,120.0
477,77.0,0,60,1.0,30.0
478,79.0,0,60,1.0,30.0
479,63.0,0,60,1.0,30.0
480,67.0,0,60,0.0,120.0
481,51.0,60,60,0.0,120.0
482,55.0,0,60,0.0,120.0
483,63.0,0,60,0.0,120.0
484,75.0,0,60,1.0,30.0
485,67.0,60,60,1.0,30.0
486,53.0,0,60,0.0,120.0
487,74.0,60,60,1.0,30.0
488,65.0,0,60,1.0,30.0
489,62.0,0,60,0.0,120.0
490,67.0,60,60,1.0,30.0
491,55.0,0,60,0.0,120.0
492,75.0,0,60,1.0,30.0
493,63.0,0,60,0.0,120.0
494,56.0,0,60,0.0,120.0
495,68.0,0,60,1.0,30.0
496,60.0,0,87,0.0,120.0
497,72.0,60,87,1.0,30.0
498,65.0,0,60,1.0,30.0
499,53.0,60,60,0.0,120.0
500,63.0,0,60,1.0,30.0
501,51.0,60,60,0.0,120.0
502,68.0,0,87,0.0,120.0
503,80.0,0,87,1.0,30.0
504,65.0,60,60,1.0,30.0
505,53.0,0,60,0.0,120.0
506,67.0,0,60,1.0,30.0
507,55.0,0,60,0.0,120.0
508,70.0,60,71,1.0,30.0
509,58.0,0,71,0.0,120.0
510,63.0,0,60,1.0,30.0
511,51.0,60,60,0.0,120.0
512,50.0,0,60,0.0,120.0
513,62.0,60,60,1.0,30.0
514,67.0,0,79,0.0,120.0
515,79.0,0,79,1.0,30.0
516,51.0,60,60,0.0,120.0
517,63.0,0,60,1.0,30.0
518,53.0,0,60,0.0,120.0
519,65.0,0,60,1.0,30.0
520,56.0,60,79,0.0,120.0
521,68.0,0,79,1.0,30.0
522,62.0,0,60,1.0,30.0
523,50.0,60,60,0.0,120.0
524,48.0,0,60,0.0,120.0
525,60.0,60,60,1.0,30.0
526,77.0,0,79,1.0,30.0
527,65.0,0,79,0.0,120.0
528,62.0,60,60,1.0,30.0
529,50.0,0,60,0.0,120.0
530,55.0,0,60,0.0,120.0
531,67.0,0,60,1.0,30.0
532,51.0,60,87,0.0,120.0
533,63.0,0,87,1.0,30.0
534,70.0,0,60,1.0,30.0
535,58.0,60,60,0.0,120.0
536,63.0,0,60,0.0,120.0
537,75.0,0,60,1.0,30.0
538,55.0,60,79,0.0,120.0
539,67.0,0,79,1.0,30.0
540,79.0,0,120,1.0,30.0
541,67.0,60,120,0.0,120.0
542,68.0,0,87,1.0,30.0
543,56.0,60,87,0.0,120.0
544,65.0,0,60,0.0,120.0
545,77.0,60,60,1.0,30.0
546,75.0,60,60,1.0,30.0
547,63.0,0,60,0.0,120.0
548,58.0,0,87,0.0,120.0
549,70.0,0,87,1.0,30.0
550,62.0,60,60,0.0,120.0
551,74.0,0,60,1.0,30.0
552,60.0,0,95,0.0,120.0
553,72.0,0,95,1.0,30.0
554,67.0,60,60,0.0,120.0
555,79.0,0,60,1.0,30.0
556,56.0,0,79,0.0,120.0
557,68.0,60,79,1.0,30.0
558,72.0,0,120,0.0,120.0
559,84.0,0,120,1.0,30.0
560,77.0,60,60,1.0,30.0
561,65.0,0,60,0.0,120.0
562,75.0,0,300,1.0,30.0
563,63.0,60,300,0.0,120.0
564,70.0,0,87,1.0,30.0
565,58.0,0,87,0.0,120.0
566,67.0,60,120,0.0,120.0
567,79.0,0,120,1.0,30.0
568,82.0,0,120,1.0,30.0
569,70.0,0,120,0.0,120.0
570,75.0,0,120,1.0,30.0
571,63.0,60,120,0.0,120.0
572,58.0,0,79,1.0,30.0
573,46.0,0,79,0.0,120.0
574,74.0,60,60,1.0,30.0
575,65.0,0,120,0.0,120.0
576,68.0,0,120,0.0,120.0
577,62.0,0,60,0.0,120.0
578,80.0,60,120,1.0,30.0
579,77.0,0,120,1.0,30.0
580,63.0,28,60,1.0,30.0
581,51.0,0,60,0.0,120.0
582,46.0,60,60,0.0,120.0
583,58.0,0,60,1.0,30.0
584,43.0,60,60,0.0,120.0
585,55.0,0,60,1.0,30.0
586,75.0,0,463,1.0,30.0
587,63.0,16,463,0.0,120.0
588,70.0,60,480,1.0,30.0
589,51.0,0,240,1.0,30.0
590,58.0,0,480,0.0,120.0
591,39.0,60,240,0.0,120.0
592,79.0,16,455,1.0,30.0
593,67.0,0,455,0.0,120.0
594,48.0,240,79,0.0,100.0
595,67.0,60,60,0.0,100.0
596,65.0,60,60,0.0,100.0
597,60.0,0,87,0.0,100.0
598,67.0,60,60,0.0,100.0
599,68.0,60,60,0.0,100.0
600,53.0,0,79,0.0,100.0
601,65.0,60,60,0.0,100.0
602,63.0,0,60,0.0,100.0
603,60.0,60,87,0.0,100.0
604,65.0,60,60,0.0,100.0
605,67.0,60,60,0.0,100.0
606,51.0,0,87,0.0,100.0
607,63.0,60,60,0.0,100.0
608,62.0,60,60,0.0,100.0
609,60.0,0,87,0.0,100.0
610,63.0,60,60,0.0,100.0
611,65.0,60,60,0.0,100.0
612,50.0,0,87,0.0,100.0
613,62.0,60,60,0.0,100.0
614,59.0,60,35,0.0,100.0
615,60.0,0,60,0.0,100.0
616,62.0,60,60,0.0,100.0
617,48.0,60,60,0.0,100.0
618,63.0,0,79,0.0,100.0
619,55.0,60,60,0.0,100.0
620,53.0,0,60,0.0,100.0
621,72.0,60,71,0.0,100.0
622,55.0,60,60,0.0,100.0
623,56.0,0,60,0.0,100.0
624,65.0,60,71,0.0,100.0
625,53.0,60,60,0.0,100.0
626,51.0,0,60,0.0,100.0
627,72.0,60,71,0.0,100.0
628,53.0,60,60,0.0,100.0
629,55.0,0,60,0.0,100.0
630,63.0,60,71,0.0,100.0
631,51.0,60,60,0.0,100.0
632,50.0,0,60,0.0,100.0
633,72.0,60,79,0.0,100.0
634,51.0,60,60,0.0,100.0
635,53.0,0,60,0.0,100.0
636,62.0,60,63,0.0,100.0
637,50.0,60,60,0.0,100.0
638,72.0,60,39,0.0,100.0
639,71.0,24,23,0.0,100.0
640,48.0,0,60,0.0,100.0
641,72.0,24,23,0.0,100.0
642,71.0,4,55,0.0,100.0
643,50.0,12,60,0.0,100.0
644,60.0,56,60,0.0,100.0
645,51.0,0,79,0.0,100.0
646,63.0,60,60,0.0,100.0
647,67.0,60,60,0.0,100.0
648,48.0,0,87,0.0,100.0
649,72.0,60,60,0.0,100.0
650,62.0,0,60,0.0,100.0
651,53.0,60,79,0.0,100.0
652,72.0,60,60,0.0,100.0
653,71.0,60,31,0.0,100.0
654,72.0,16,31,0.0,100.0
655,71.0,24,31,0.0,100.0
656,50.0,0,79,0.0,100.0
657,69.0,20,60,0.0,100.0
658,62.0,60,60,0.0,100.0
659,67.0,60,60,0.0,100.0
660,55.0,0,120,0.0,100.0
661,71.0,60,60,0.0,100.0
662,74.0,60,60,0.0,100.0
663,53.0,0,120,0.0,100.0
664,63.0,0,60,0.0,100.0
665,74.0,64,15,0.0,100.0
666,55.0,60,79,0.0,100.0
667,72.0,20,31,0.0,100.0
668,74.0,20,31,0.0,100.0
669,72.0,8,63,0.0,100.0
670,51.0,16,79,0.0,100.0
671,71.0,60,55,0.0,100.0
672,63.0,0,60,0.0,100.0
673,68.0,60,60,0.0,100.0
674,56.0,52,120,0.0,100.0
675,72.0,60,60,0.0,100.0
676,75.0,60,60,0.0,100.0
677,55.0,0,120,0.0,100.0
678,65.0,60,60,0.0,100.0
679,57.0,0,79,0.0,100.0
680,75.0,60,60,0.0,100.0
681,74.0,60,35,0.0,100.0
682,75.0,16,35,0.0,100.0
683,74.0,24,23,0.0,100.0
684,53.0,0,79,0.0,100.0
685,72.0,24,23,0.0,100.0
686,74.0,12,23,0.0,100.0
687,72.0,20,23,0.0,100.0
688,65.0,24,60,0.0,100.0
689,70.0,60,60,0.0,100.0
690,58.0,0,120,0.0,100.0
691,74.0,60,60,0.0,100.0
692,57.0,0,120,0.0,100.0
693,77.0,60,60,0.0,100.0
694,67.0,60,60,0.0,100.0
695,59.0,0,87,0.0,100.0
696,77.0,64,35,0.0,100.0
697,77.0,48,23,0.0,100.0
698,75.0,16,23,0.0,100.0
699,77.0,16,27,0.0,100.0
700,75.0,16,23,0.0,100.0
701,55.0,8,71,0.0,100.0
702,74.0,20,55,0.0,100.0
703,60.0,0,60,0.0,100.0
704,75.0,52,60,0.0,100.0
705,68.0,0,60,0.0,100.0
706,72.0,60,60,0.0,100.0
707,70.0,60,60,0.0,100.0
708,67.0,0,60,0.0,100.0
709,68.0,0,60,0.0,100.0
710,72.0,60,60,0.0,100.0
711,58.0,0,60,0.0,100.0
712,74.0,60,60,0.0,100.0
713,67.0,0,60,0.0,100.0
714,70.0,60,60,0.0,100.0
715,65.0,60,60,0.0,100.0
716,68.0,0,60,0.0,100.0
717,67.0,0,60,0.0,100.0
718,70.0,60,60,0.0,100.0
719,72.0,60,60,0.0,100.0
720,70.0,60,60,0.0,100.0
721,56.0,0,120,0.0,100.0
722,68.0,60,60,0.0,100.0
723,67.0,60,60,0.0,100.0
724,65.0,60,60,0.0,100.0
725,63.0,60,60,0.0,100.0
726,62.0,60,60,0.0,100.0
727,60.0,60,60,0.0,100.0
728,74.0,60,60,0.0,100.0
729,58.0,0,60,0.0,100.0
730,67.0,0,60,0.0,100.0
731,70.0,60,60,0.0,100.0
732,65.0,0,60,0.0,100.0
733,68.0,60,60,0.0,100.0
734,67.0,0,60,0.0,100.0
735,70.0,60,60,0.0,100.0
736,56.0,0,60,0.0,100.0
737,72.0,60,60,0.0,100.0
738,65.0,60,60,0.0,100.0
739,68.0,0,60,0.0,100.0
740,63.0,0,60,0.0,100.0
741,67.0,60,60,0.0,100.0
742,65.0,0,60,0.0,100.0
743,68.0,60,60,0.0,100.0
744,70.0,60,23,0.0,100.0
745,68.0,20,23,0.0,100.0
746,70.0,16,23,0.0,100.0
747,68.0,24,60,0.0,100.0
748,55.0,0,120,0.0,100.0
749,67.0,60,60,0.0,100.0
750,65.0,60,60,0.0,100.0
751,63.0,60,60,0.0,100.0
752,61.0,60,60,0.0,100.0
753,60.0,60,60,0.0,100.0
754,58.0,60,60,0.0,100.0
755,72.0,0,35,0.0,100.0
756,70.0,16,35,0.0,100.0
757,56.0,60,60,0.0,100.0
758,72.0,20,35,0.0,100.0
759,65.0,24,60,0.0,100.0
760,68.0,0,60,0.0,100.0
761,67.0,0,60,0.0,100.0
762,63.0,60,60,0.0,100.0
763,68.0,0,60,0.0,100.0
764,65.0,60,60,0.0,100.0
765,55.0,0,60,0.0,100.0
766,70.0,60,60,0.0,100.0
767,67.0,0,60,0.0,100.0
768,63.0,60,60,0.0,100.0
769,65.0,60,60,0.0,100.0
770,62.0,0,60,0.0,100.0
771,67.0,0,60,0.0,100.0
772,63.0,60,60,0.0,100.0
773,53.0,0,60,0.0,100.0
774,68.0,60,60,0.0,100.0
775,62.0,0,60,0.0,100.0
776,65.0,60,60,0.0,100.0
777,60.0,60,60,0.0,100.0
778,63.0,0,60,0.0,100.0
779,65.0,60,60,0.0,100.0
780,62.0,0,60,0.0,100.0
781,68.0,0,30,0.0,100.0
782,67.0,20,30,0.0,100.0
783,51.0,60,60,0.0,100.0
784,68.0,28,50,0.0,100.0
785,60.0,12,60,0.0,100.0
786,58.0,0,60,0.0,100.0
787,68.0,60,120,0.0,100.0
788,60.0,60,60,0.0,100.0
789,50.0,60,60,0.0,100.0
790,68.0,0,60,0.0,100.0
791,67.0,0,60,0.0,100.0
792,58.0,60,60,0.0,100.0
793,56.0,60,60,0.0,100.0
794,65.0,0,60,0.0,100.0
795,58.0,0,60,0.0,100.0
796,67.0,60,60,0.0,100.0
797,68.0,60,35,0.0,100.0
798,67.0,16,35,0.0,100.0
799,48.0,0,60,0.0,100.0
800,68.0,24,55,0.0,100.0
801,56.0,20,60,0.0,100.0
802,70.0,60,31,0.0,100.0
803,68.0,20,19,0.0,100.0
804,55.0,0,60,0.0,100.0
805,70.0,16,31,0.0,100.0
806,68.0,20,55,0.0,100.0
807,56.0,4,60,0.0,100.0
808,68.0,4,60,0.0,100.0
809,46.0,60,71,0.0,100.0
810,74.0,56,60,0.0,100.0
811,77.0,60,60,0.0,100.0
812,58.0,0,71,0.0,100.0
813,75.0,60,60,0.0,100.0
814,74.0,60,60,0.0,100.0
815,72.0,60,60,0.0,100.0
816,70.0,60,60,0.0,100.0
817,50.0,0,120,0.0,100.0
818,68.0,60,60,0.0,100.0
819,67.0,60,60,0.0,100.0
820,51.0,0,95,0.0,100.0
821,70.0,60,60,0.0,100.0
822,75.0,0,60,0.0,100.0
823,48.0,60,95,0.0,100.0
824,67.0,60,60,0.0,100.0
825,65.0,60,60,0.0,100.0
826,44.0,0,87,0.0,100.0
827,75.0,60,60,0.0,100.0
828,65.0,60,60,0.0,100.0
829,46.0,0,79,0.0,100.0
830,74.0,60,60,0.0,100.0
831,75.0,60,51,0.0,100.0
832,39.0,0,95,0.0,100.0
833,70.0,60,60,0.0,100.0
834,68.0,60,60,0.0,100.0
835,51.0,0,87,0.0,100.0
836,70.0,60,60,0.0,100.0
837,72.0,0,60,0.0,100.0
838,44.0,60,87,0.0,100.0
839,68.0,60,60,0.0,100.0
840,67.0,0,60,0.0,100.0
841,51.0,60,79,0.0,100.0
842,68.0,60,60,0.0,100.0
843,70.0,0,60,0.0,100.0
844,43.0,60,79,0.0,100.0
845,67.0,60,60,0.0,100.0
846,65.0,60,60,0.0,100.0
847,51.0,0,79,0.0,100.0
848,67.0,60,60,0.0,100.0
849,68.0,0,60,0.0,100.0
850,41.0,60,71,0.0,100.0
851,65.0,60,60,0.0,100.0
852,63.0,0,60,0.0,100.0
853,50.0,60,71,0.0,100.0
854,65.0,60,60,0.0,100.0
855,51.0,60,60,0.0,100.0
856,67.0,0,60,0.0,100.0
857,55.0,60,60,0.0,100.0
858,63.0,0,60,0.0,100.0
859,62.0,60,60,0.0,100.0
860,53.0,0,60,0.0,100.0
861,55.0,0,60,0.0,100.0
862,63.0,60,60,0.0,100.0
863,56.0,60,60,0.0,100.0
864,60.0,0,87,0.0,100.0
865,53.0,60,60,0.0,100.0
866,68.0,60,31,0.0,100.0
867,67.0,16,31,0.0,100.0
868,51.0,0,60,0.0,100.0
869,68.0,20,31,0.0,100.0
870,53.0,24,60,0.0,100.0
871,55.0,60,60,0.0,100.0
872,58.0,0,71,0.0,100.0
873,51.0,60,60,0.0,100.0
874,67.0,0,31,0.0,100.0
875,65.0,16,19,0.0,100.0
876,67.0,20,19,0.0,100.0
877,50.0,60,60,0.0,100.0
878,51.0,24,60,0.0,100.0
879,53.0,0,60,0.0,100.0
880,56.0,60,79,0.0,100.0
881,50.0,60,60,0.0,100.0
882,67.0,0,27,0.0,100.0
883,65.0,16,23,0.0,100.0
884,67.0,20,15,0.0,100.0
885,48.0,60,60,0.0,100.0
886,65.0,16,35,0.0,100.0
887,50.0,8,60,0.0,100.0
888,55.0,60,60,0.0,100.0
889,51.0,0,87,0.0,100.0
890,58.0,60,60,0.0,100.0
891,63.0,60,60,0.0,100.0
892,55.0,0,79,0.0,100.0
893,67.0,60,119,0.0,100.0
894,65.0,60,27,0.0,100.0
895,56.0,60,87,0.0,100.0
896,67.0,16,27,0.0,100.0
897,65.0,20,27,0.0,100.0
898,63.0,0,60,0.0,100.0
899,58.0,24,87,0.0,100.0
900,62.0,60,60,0.0,100.0
901,60.0,0,95,0.0,100.0
902,67.0,60,60,0.0,100.0
903,56.0,0,79,0.0,100.0
904,72.0,60,120,0.0,100.0
905,65.0,60,60,0.0,100.0
906,63.0,60,300,0.0,100.0
907,58.0,0,87,0.0,100.0
908,70.0,0,120,0.0,100.0
909,67.0,60,120,0.0,100.0
910,70.0,60,27,0.0,100.0
911,68.0,24,27,0.0,100.0
912,63.0,60,120,0.0,100.0
913,70.0,16,27,0.0,100.0
914,46.0,0,79,0.0,100.0
915,65.0,0,120,0.0,100.0
916,62.0,8,51,0.0,100.0
917,68.0,24,63,0.0,100.0
918,51.0,28,60,0.0,100.0
919,46.0,60,60,0.0,100.0
920,43.0,60,60,0.0,100.0
921,63.0,16,463,0.0,100.0
922,39.0,60,240,0.0,100.0
923,58.0,48,480,0.0,100.0
924,67.0,16,455,0.0,100.0
925,63.0,0,87,1.0,30.0
926,51.0,240,87,0.0,120.0
927,70.0,60,60,0.0,120.0
928,82.0,0,60,1.0,30.0
929,69.0,60,60,0.0,120.0
930,81.0,0,60,1.0,30.0
931,65.0,0,95,1.0,30.0
932,53.0,0,95,0.0,120.0
933,82.0,0,60,1.0,30.0
934,70.0,60,60,0.0,120.0
935,75.0,60,60,0.0,120.0
936,87.0,0,60,1.0,30.0
937,55.0,0,95,0.0,120.0
938,67.0,0,95,1.0,30.0
939,70.0,0,60,0.0,120.0
940,82.0,60,60,1.0,30.0
941,81.0,60,60,1.0,30.0
942,69.0,0,60,0.0,120.0
943,63.0,0,87,1.0,30.0
944,51.0,0,87,0.0,120.0
945,82.0,60,60,1.0,30.0
946,70.0,0,60,0.0,120.0
947,89.0,0,60,1.0,30.0
948,77.0,0,60,0.0,120.0
949,62.0,60,120,1.0,30.0
950,82.0,60,60,1.0,30.0
951,70.0,0,60,0.0,120.0
952,50.0,0,120,0.0,120.0
953,81.0,60,60,1.0,30.0
954,69.0,0,60,0.0,120.0
955,70.0,0,60,0.0,120.0
956,48.0,0,120,0.0,120.0
957,60.0,0,120,1.0,30.0
958,82.0,60,60,1.0,30.0
959,92.0,0,60,1.0,30.0
960,80.0,0,60,0.0,120.0
961,62.0,0,71,1.0,30.0
962,50.0,60,71,0.0,120.0
963,82.0,60,60,1.0,30.0
964,70.0,0,60,0.0,120.0
965,46.0,0,55,0.0,120.0
966,58.0,0,55,1.0,30.0
967,81.0,60,60,1.0,30.0
968,69.0,0,60,0.0,120.0
969,70.0,0,60,0.0,120.0
970,82.0,60,60,1.0,30.0
971,63.0,60,60,1.0,30.0
972,51.0,0,60,0.0,120.0
973,79.0,0,71,0.0,120.0
974,91.0,0,71,1.0,30.0
975,67.0,60,60,1.0,30.0
976,55.0,0,60,0.0,120.0
977,56.0,0,60,0.0,120.0
978,68.0,60,60,1.0,30.0
979,75.0,0,63,0.0,120.0
980,87.0,0,63,1.0,30.0
981,67.0,60,60,1.0,30.0
982,55.0,0,60,0.0,120.0
983,86.0,0,20,1.0,30.0
984,74.0,0,20,0.0,120.0
985,72.0,0,20,0.0,120.0
986,84.0,20,20,1.0,30.0
987,44.0,60,60,0.0,120.0
988,74.0,20,20,0.0,120.0
989,86.0,0,20,1.0,30.0
990,56.0,0,60,1.0,30.0
991,84.0,0,23,1.0,30.0
992,72.0,16,23,0.0,120.0
993,83.0,12,47,1.0,30.0
994,71.0,0,47,0.0,120.0
995,67.0,4,60,1.0,30.0
996,55.0,0,60,0.0,120.0
997,68.0,0,60,1.0,30.0
998,56.0,0,60,0.0,120.0
999,72.0,48,103,0.0,120.0
1000,84.0,0,103,1.0,30.0
1001,55.0,0,60,0.0,120.0
1002,67.0,60,60,1.0,30.0
1003,50.0,60,60,0.0,120.0
1004,62.0,0,60,1.0,30.0
1005,77.0,0,63,0.0,120.0
1006,89.0,0,63,1.0,30.0
1007,65.0,0,60,1.0,30.0
1008,53.0,60,60,0.0,120.0
1009,74.0,0,55,0.0,120.0
1010,86.0,0,55,1.0,30.0
1011,55.0,60,60,0.0,120.0
1012,67.0,0,60,1.0,30.0
1013,53.0,60,60,0.0,120.0
1014,65.0,0,60,1.0,30.0
1015,72.0,60,20,0.0,120.0
1016,84.0,0,20,1.0,30.0
1017,71.0,0,20,0.0,120.0
1018,83.0,20,20,1.0,30.0
1019,84.0,0,20,1.0,30.0
1020,72.0,12,20,0.0,120.0
1021,55.0,0,60,1.0,30.0
1022,43.0,0,60,0.0,120.0
1023,83.0,0,20,1.0,30.0
1024,71.0,24,20,0.0,120.0
1025,65.0,0,60,1.0,30.0
1026,53.0,4,60,0.0,120.0
1027,69.0,0,60,0.0,120.0
1028,81.0,12,60,1.0,30.0
1029,67.0,48,60,1.0,30.0
1030,55.0,0,60,0.0,120.0
1031,53.0,0,60,0.0,120.0
1032,83.0,0,120,1.0,30.0
1033,71.0,0,120,0.0,120.0
1034,65.0,60,60,1.0,30.0
1035,87.0,60,60,1.0,30.0
1036,75.0,0,60,0.0,120.0
1037,48.0,0,63,0.0,120.0
1038,60.0,0,63,1.0,30.0
1039,75.0,60,60,1.0,30.0
1040,63.0,0,60,0.0,120.0
1041,74.0,0,60,1.0,30.0
1042,62.0,0,60,0.0,120.0
1043,72.0,60,95,1.0,30.0
1044,60.0,0,95,0.0,120.0
1045,75.0,0,60,1.0,30.0
1046,63.0,60,60,0.0,120.0
1047,79.0,60,60,1.0,30.0
1048,67.0,0,60,0.0,120.0
1049,58.0,0,103,0.0,120.0
1050,70.0,0,103,1.0,30.0
1051,75.0,0,60,1.0,30.0
1052,63.0,60,60,0.0,120.0
1053,74.0,0,60,1.0,30.0
1054,62.0,0,60,0.0,120.0
1055,56.0,0,103,0.0,120.0
1056,68.0,60,103,1.0,30.0
1057,75.0,60,60,1.0,30.0
1058,63.0,0,60,0.0,120.0
1059,82.0,0,60,1.0,30.0
1060,70.0,0,60,0.0,120.0
1061,55.0,0,120,0.0,120.0
1062,63.0,60,60,0.0,120.0
1063,67.0,60,120,1.0,30.0
1064,75.0,0,60,1.0,30.0
1065,74.0,0,60,1.0,30.0
1066,62.0,60,60,0.0,120.0
1067,75.0,60,60,1.0,30.0
1068,65.0,0,120,1.0,30.0
1069,53.0,0,120,0.0,120.0
1070,63.0,0,60,0.0,120.0
1071,85.0,60,60,1.0,30.0
1072,73.0,0,60,0.0,120.0
1073,55.0,0,87,0.0,120.0
1074,67.0,0,87,1.0,30.0
1075,63.0,0,60,0.0,120.0
1076,75.0,60,60,1.0,30.0
1077,74.0,0,60,1.0,30.0
1078,62.0,0,60,0.0,120.0
1079,51.0,0,71,0.0,120.0
1080,63.0,60,71,1.0,30.0
1081,63.0,0,60,0.0,120.0
1082,75.0,60,60,1.0,30.0
1083,68.0,0,60,1.0,30.0
1084,56.0,0,60,0.0,120.0
1085,72.0,60,71,0.0,120.0
1086,84.0,0,71,1.0,30.0
1087,72.0,60,60,1.0,30.0
1088,60.0,0,60,0.0,120.0
1089,61.0,0,60,0.0,120.0
1090,73.0,0,60,1.0,30.0
1091,68.0,0,63,0.0,120.0
1092,80.0,60,63,1.0,30.0
1093,72.0,0,60,1.0,30.0
1094,60.0,60,60,0.0,120.0
1095,67.0,0,20,0.0,120.0
1096,79.0,60,20,1.0,30.0
1097,65.0,20,20,0.0,120.0
1098,77.0,0,20,1.0,30.0
1099,67.0,12,20,0.0,120.0
1100,79.0,0,20,1.0,30.0
1101,61.0,0,60,1.0,30.0
1102,49.0,0,60,0.0,120.0
1103,77.0,0,20,1.0,30.0
1104,65.0,16,20,0.0,120.0
1105,60.0,12,60,0.0,120.0
1106,72.0,0,60,1.0,30.0
1107,64.0,0,60,0.0,120.0
1108,76.0,12,60,1.0,30.0
1109,61.0,48,60,0.0,120.0
1110,73.0,0,60,1.0,30.0
1111,65.0,0,87,0.0,120.0
1112,77.0,0,87,1.0,30.0
1113,72.0,0,60,1.0,30.0
1114,60.0,60,60,0.0,120.0
1115,67.0,0,60,1.0,30.0
1116,55.0,0,60,0.0,120.0
1117,82.0,60,71,1.0,30.0
1118,70.0,0,71,0.0,120.0
1119,70.0,60,60,1.0,30.0
1120,58.0,0,60,0.0,120.0
1121,72.0,0,60,1.0,30.0
1122,60.0,0,60,0.0,120.0
1123,79.0,0,63,1.0,30.0
1124,67.0,60,63,0.0,120.0
1125,70.0,60,60,1.0,30.0
1126,58.0,0,60,0.0,120.0
1127,77.0,60,20,1.0,30.0
1128,65.0,0,20,0.0,120.0
1129,64.0,20,20,0.0,120.0
1130,76.0,0,20,1.0,30.0
1131,65.0,0,20,0.0,120.0
1132,77.0,12,20,1.0,30.0
1133,48.0,0,60,0.0,120.0
1134,60.0,0,60,1.0,30.0
1135,76.0,0,20,1.0,30.0
1136,64.0,24,20,0.0,120.0
1137,70.0,0,60,1.0,30.0
1138,58.0,4,60,0.0,120.0
1139,74.0,12,60,1.0,30.0
1140,62.0,0,60,0.0,120.0
1141,72.0,48,60,1.0,30.0
1142,60.0,0,60,0.0,120.0
1143,76.0,0,95,1.0,30.0
1144,64.0,0,95,0.0,120.0
1145,70.0,0,60,1.0,30.0
1146,58.0,60,60,0.0,120.0
1147,80.0,60,60,1.0,30.0
1148,68.0,0,60,0.0,120.0
1149,53.0,0,87,0.0,120.0
1150,65.0,0,87,1.0,30.0
1151,72.0,0,60,0.0,120.0
1152,84.0,60,60,1.0,30.0
1153,83.0,0,60,1.0,30.0
1154,71.0,60,60,0.0,120.0
1155,68.0,0,71,1.0,30.0
1156,56.0,0,71,0.0,120.0
1157,72.0,60,60,0.0,120.0
1158,84.0,0,60,1.0,30.0
1159,85.0,0,60,1.0,30.0
1160,73.0,60,60,0.0,120.0
1161,53.0,0,71,0.0,120.0
1162,65.0,0,71,1.0,30.0
1163,72.0,60,60,0.0,120.0
1164,84.0,0,60,1.0,30.0
1165,71.0,60,60,0.0,120.0
1166,83.0,0,60,1.0,30.0
1167,61.0,0,71,0.0,120.0
1168,73.0,0,71,1.0,30.0
1169,84.0,0,60,1.0,30.0
1170,72.0,60,60,0.0,120.0
1171,67.0,0,60,0.0,120.0
1172,79.0,60,60,1.0,30.0
1173,64.0,0,95,1.0,30.0
1174,52.0,0,95,0.0,120.0
1175,72.0,60,60,0.0,120.0
1176,84.0,0,60,1.0,30.0
1177,83.0,0,60,1.0,30.0
1178,71.0,0,60,0.0,120.0
1179,67.0,60,87,1.0,30.0
1180,55.0,0,87,0.0,120.0
1181,84.0,60,60,1.0,30.0
1182,72.0,0,60,0.0,120.0
1183,73.0,60,60,0.0,120.0
1184,85.0,0,60,1.0,30.0
1185,51.0,0,87,0.0,120.0
1186,63.0,0,87,1.0,30.0
1187,84.0,0,60,1.0,30.0
1188,72.0,60,60,0.0,120.0
1189,83.0,0,60,1.0,30.0
1190,71.0,60,60,0.0,120.0
1191,72.0,0,71,1.0,30.0
1192,60.0,0,71,0.0,120.0
1193,72.0,0,60,0.0,120.0
1194,84.0,60,60,1.0,30.0
1195,77.0,0,60,1.0,30.0
1196,65.0,0,60,0.0,120.0
1197,62.0,60,120,1.0,30.0
1198,84.0,60,60,1.0,30.0
1199,50.0,0,120,0.0,120.0
1200,72.0,0,60,0.0,120.0
1201,74.0,0,60,0.0,120.0
1202,86.0,60,60,1.0,30.0
1203,53.0,0,87,0.0,120.0
1204,65.0,0,87,1.0,30.0
1205,88.0,0,60,1.0,30.0
1206,76.0,60,60,0.0,120.0
1207,77.0,0,60,0.0,120.0
1208,89.0,0,60,1.0,30.0
1209,61.0,60,87,1.0,30.0
1210,49.0,0,87,0.0,120.0
1211,70.0,0,60,0.0,120.0
1212,82.0,60,60,1.0,30.0
1213,81.0,0,60,1.0,30.0
1214,69.0,0,60,0.0,120.0
1215,70.0,0,87,1.0,30.0
1216,58.0,60,87,0.0,120.0
1217,70.0,0,60,0.0,120.0
1218,82.0,60,60,1.0,30.0
1219,79.0,60,60,0.0,120.0
1220,91.0,0,60,1.0,30.0
1221,77.0,60,60,0.0,120.0
1222,48.0,0,120,0.0,120.0
1223,60.0,0,120,1.0,30.0
1224,89.0,0,60,1.0,30.0
1225,76.0,60,60,0.0,120.0
1226,88.0,0,60,1.0,30.0
1227,50.0,0,120,0.0,120.0
1228,62.0,0,120,1.0,30.0
1229,86.0,0,60,1.0,30.0
1230,74.0,60,60,0.0,120.0
1231,84.0,0,60,1.0,30.0
1232,72.0,0,60,0.0,120.0
1233,64.0,60,87,1.0,30.0
1234,52.0,0,87,0.0,120.0
1235,70.0,0,60,0.0,120.0
1236,82.0,60,60,1.0,30.0
1237,80.0,0,60,1.0,30.0
1238,68.0,60,60,0.0,120.0
1239,60.0,0,87,1.0,30.0
1240,48.0,0,87,0.0,120.0
1241,79.0,60,60,1.0,30.0
1242,67.0,0,60,0.0,120.0
1243,80.0,0,60,1.0,30.0
1244,65.0,60,60,1.0,30.0
1245,53.0,0,60,0.0,120.0
1246,68.0,0,60,0.0,120.0
1247,56.0,0,60,0.0,120.0
1248,65.0,0,60,0.0,120.0
1249,68.0,60,60,1.0,30.0
1250,77.0,0,60,1.0,30.0
1251,67.0,0,60,1.0,30.0
1252,64.0,0,60,0.0,120.0
1253,55.0,60,60,0.0,120.0
1254,76.0,0,60,1.0,30.0
1255,56.0,0,60,0.0,120.0
1256,77.0,0,60,1.0,30.0
1257,68.0,60,60,1.0,30.0
1258,65.0,0,60,0.0,120.0
1259,51.0,0,60,0.0,120.0
1260,72.0,0,60,0.0,120.0
1261,84.0,0,60,1.0,30.0
1262,63.0,60,60,1.0,30.0
1263,60.0,0,60,0.0,120.0
1264,68.0,0,60,0.0,120.0
1265,72.0,0,60,1.0,30.0
1266,80.0,60,60,1.0,30.0
1267,67.0,0,60,0.0,120.0
1268,58.0,0,60,0.0,120.0
1269,79.0,60,60,1.0,30.0
1270,70.0,0,60,1.0,30.0
1271,80.0,0,60,1.0,30.0
1272,60.0,0,60,0.0,120.0
1273,72.0,60,60,1.0,30.0
1274,68.0,0,60,0.0,120.0
1275,77.0,0,60,0.0,120.0
1276,89.0,60,60,1.0,30.0
1277,49.0,0,87,0.0,120.0
1278,61.0,0,87,1.0,30.0
1279,75.0,0,60,0.0,120.0
1280,87.0,60,60,1.0,30.0
1281,73.0,60,60,0.0,120.0
1282,85.0,0,60,1.0,30.0
1283,65.0,0,79,1.0,30.0
1284,53.0,0,79,0.0,120.0
1285,84.0,0,60,1.0,30.0
1286,72.0,60,60,0.0,120.0
1287,70.0,0,60,0.0,120.0
1288,82.0,0,60,1.0,30.0
1289,70.0,60,79,1.0,30.0
1290,58.0,0,79,0.0,120.0
1291,80.0,0,60,1.0,30.0
1292,68.0,60,60,0.0,120.0
1293,79.0,60,60,1.0,30.0
1294,67.0,0,60,0.0,120.0
1295,73.0,0,71,1.0,30.0
1296,61.0,0,71,0.0,120.0
1297,77.0,0,60,1.0,30.0
1298,65.0,60,60,0.0,120.0
1299,79.0,0,60,1.0,30.0
1300,51.0,0,60,0.0,120.0
1301,67.0,0,60,0.0,120.0
1302,63.0,60,60,1.0,30.0
1303,67.0,0,60,1.0,30.0
1304,75.0,60,60,1.0,30.0
1305,63.0,0,60,0.0,120.0
1306,55.0,0,60,0.0,120.0
1307,62.0,0,60,0.0,120.0
1308,65.0,0,60,1.0,30.0
1309,53.0,0,60,0.0,120.0
1310,74.0,60,60,1.0,30.0
1311,75.0,0,60,1.0,30.0
1312,63.0,60,60,0.0,120.0
1313,55.0,0,60,0.0,120.0
1314,67.0,0,60,1.0,30.0
1315,49.0,60,60,0.0,120.0
1316,82.0,0,60,1.0,30.0
1317,70.0,0,60,0.0,120.0
1318,61.0,0,60,1.0,30.0
1319,67.0,0,60,0.0,120.0
1320,70.0,0,60,1.0,30.0
1321,79.0,0,60,1.0,30.0
1322,58.0,60,60,0.0,120.0
1323,65.0,0,60,0.0,120.0
1324,68.0,0,60,1.0,30.0
1325,77.0,0,60,1.0,30.0
1326,56.0,60,60,0.0,120.0
1327,67.0,0,60,0.0,120.0
1328,58.0,60,60,0.0,120.0
1329,70.0,0,60,1.0,30.0
1330,79.0,0,60,1.0,30.0
1331,87.0,0,60,1.0,30.0
1332,75.0,0,60,0.0,120.0
1333,48.0,60,79,0.0,120.0
1334,60.0,0,79,1.0,30.0
1335,73.0,60,60,0.0,120.0
1336,85.0,0,60,1.0,30.0
1337,72.0,0,60,0.0,120.0
1338,84.0,0,60,1.0,30.0
1339,51.0,60,87,0.0,120.0
1340,63.0,0,87,1.0,30.0
1341,82.0,60,60,1.0,30.0
1342,70.0,0,60,0.0,120.0
1343,68.0,60,60,0.0,120.0
1344,80.0,0,60,1.0,30.0
1345,56.0,0,87,0.0,120.0
1346,68.0,0,87,1.0,30.0
1347,79.0,60,60,1.0,30.0
1348,67.0,0,60,0.0,120.0
1349,77.0,60,60,1.0,30.0
1350,65.0,0,60,0.0,120.0
1351,60.0,0,87,0.0,120.0
1352,72.0,0,87,1.0,30.0
1353,76.0,0,60,1.0,30.0
1354,64.0,60,60,0.0,120.0
1355,61.0,60,60,1.0,30.0
1356,49.0,0,60,0.0,120.0
1357,77.0,0,87,1.0,30.0
1358,65.0,0,87,0.0,120.0
1359,65.0,60,60,1.0,30.0
1360,53.0,0,60,0.0,120.0
1361,63.0,60,60,1.0,30.0
1362,51.0,0,60,0.0,120.0
1363,53.0,0,60,0.0,120.0
1364,81.0,0,120,1.0,30.0
1365,69.0,0,120,0.0,120.0
1366,65.0,60,60,1.0,30.0
1367,66.0,0,60,1.0,30.0
1368,54.0,0,60,0.0,120.0
1369,53.0,60,60,0.0,120.0
1370,82.0,0,120,1.0,30.0
1371,65.0,0,60,1.0,30.0
1372,70.0,60,120,0.0,120.0
1373,63.0,60,60,1.0,30.0
1374,51.0,0,60,0.0,120.0
1375,84.0,0,120,1.0,30.0
1376,65.0,0,60,1.0,30.0
1377,53.0,60,60,0.0,120.0
1378,72.0,0,120,0.0,120.0
1379,46.0,0,60,0.0,120.0
1380,58.0,0,60,1.0,30.0
1381,53.0,0,60,0.0,120.0
1382,85.0,60,120,1.0,30.0
1383,73.0,0,120,0.0,120.0
1384,65.0,60,60,1.0,30.0
1385,67.0,0,60,1.0,30.0
1386,55.0,0,60,0.0,120.0
1387,56.0,60,60,0.0,120.0
1388,76.0,60,120,0.0,120.0
1389,68.0,0,60,1.0,30.0
1390,88.0,0,120,1.0,30.0
1391,55.0,60,60,0.0,120.0
1392,67.0,0,60,1.0,30.0
1393,65.0,60,60,1.0,30.0
1394,89.0,0,120,1.0,30.0
1395,53.0,0,60,0.0,120.0
1396,77.0,0,120,0.0,120.0
1397,52.0,0,60,0.0,120.0
1398,64.0,0,60,1.0,30.0
1399,79.0,60,120,0.0,120.0
1400,91.0,0,120,1.0,30.0
1401,53.0,60,60,0.0,120.0
1402,65.0,0,60,1.0,30.0
1403,84.0,0,60,1.0,30.0
1404,72.0,60,60,0.0,120.0
1405,44.0,0,79,0.0,120.0
1406,56.0,0,79,1.0,30.0
1407,76.0,60,60,0.0,120.0
1408,88.0,0,60,1.0,30.0
1409,89.0,0,60,1.0,30.0
1410,77.0,60,60,0.0,120.0
1411,53.0,0,71,1.0,30.0
1412,41.0,0,71,0.0,120.0
1413,80.0,0,60,0.0,120.0
1414,92.0,60,60,1.0,30.0
1415,82.0,60,60,1.0,30.0
1416,70.0,0,60,0.0,120.0
1417,48.0,0,71,0.0,120.0
1418,60.0,0,71,1.0,30.0
1419,79.0,0,60,0.0,120.0
1420,91.0,60,60,1.0,30.0
1421,89.0,0,60,1.0,30.0
1422,77.0,60,60,0.0,120.0
1423,48.0,0,71,1.0,30.0
1424,36.0,0,71,0.0,120.0
1425,76.0,60,60,0.0,120.0
1426,88.0,0,60,1.0,30.0
1427,68.0,0,60,0.0,120.0
1428,80.0,0,60,1.0,30.0
1429,53.0,60,79,1.0,30.0
1430,41.0,0,79,0.0,120.0
1431,72.0,0,60,0.0,120.0
1432,84.0,60,60,1.0,30.0
1433,88.0,0,60,1.0,30.0
1434,76.0,60,60,0.0,120.0
1435,77.0,60,60,0.0,120.0
1436,44.0,0,120,0.0,120.0
1437,56.0,0,120,1.0,30.0
1438,89.0,0,60,1.0,30.0
1439,67.0,0,60,0.0,120.0
1440,79.0,0,60,1.0,30.0
1441,85.0,0,60,1.0,30.0
1442,58.0,0,120,1.0,30.0
1443,46.0,60,120,0.0,120.0
1444,73.0,60,60,0.0,120.0
1445,72.0,0,60,0.0,120.0
1446,84.0,0,60,1.0,30.0
1447,48.0,0,87,0.0,120.0
1448,60.0,60,87,1.0,30.0
1449,70.0,0,60,0.0,120.0
1450,82.0,60,60,1.0,30.0
1451,68.0,0,60,0.0,120.0
1452,80.0,0,60,1.0,30.0
1453,53.0,0,120,0.0,120.0
1454,67.0,60,60,0.0,120.0
1455,65.0,60,120,1.0,30.0
1456,79.0,0,60,1.0,30.0
1457,77.0,0,60,1.0,30.0
1458,65.0,0,60,0.0,120.0
1459,55.0,60,120,0.0,120.0
1460,64.0,60,60,0.0,120.0
1461,67.0,0,120,1.0,30.0
1462,76.0,0,60,1.0,30.0
1463,65.0,0,60,0.0,120.0
1464,77.0,0,60,1.0,30.0
1465,68.0,0,87,1.0,30.0
1466,56.0,60,87,0.0,120.0
1467,80.0,60,60,1.0,30.0
1468,68.0,0,60,0.0,120.0
1469,60.0,0,60,0.0,120.0
1470,72.0,0,60,1.0,30.0
1471,53.0,60,71,0.0,120.0
1472,65.0,0,71,1.0,30.0
1473,63.0,0,60,0.0,120.0
1474,75.0,60,60,1.0,30.0
1475,74.0,0,60,1.0,30.0
1476,62.0,0,60,0.0,120.0
1477,70.0,0,79,1.0,30.0
1478,58.0,60,79,0.0,120.0
1479,68.0,60,60,0.0,120.0
1480,80.0,0,60,1.0,30.0
1481,77.0,60,60,1.0,30.0
1482,65.0,0,60,0.0,120.0
1483,46.0,0,87,0.0,120.0
1484,58.0,0,87,1.0,30.0
1485,74.0,0,60,1.0,30.0
1486,62.0,60,60,0.0,120.0
1487,58.0,60,60,0.0,120.0
1488,70.0,0,60,1.0,30.0
1489,56.0,60,60,0.0,120.0
1490,68.0,0,60,1.0,30.0
1491,55.0,60,60,0.0,120.0
1492,67.0,0,60,1.0,30.0
1493,53.0,60,60,0.0,120.0
1494,65.0,0,60,1.0,30.0
1495,67.0,0,60,0.0,120.0
1496,79.0,0,60,1.0,30.0
1497,51.0,60,120,0.0,120.0
1498,65.0,60,60,0.0,120.0
1499,77.0,0,60,1.0,30.0
1500,63.0,0,120,1.0,30.0
1501,63.0,0,60,0.0,120.0
1502,75.0,0,60,1.0,30.0
1503,65.0,0,120,1.0,30.0
1504,74.0,0,60,1.0,30.0
1505,53.0,60,120,0.0,120.0
1506,62.0,60,60,0.0,120.0
1507,75.0,0,60,1.0,30.0
1508,63.0,0,60,0.0,120.0
1509,55.0,0,79,0.0,120.0
1510,67.0,60,79,1.0,30.0
1511,67.0,0,60,0.0,120.0
1512,79.0,60,60,1.0,30.0
1513,71.0,0,60,1.0,30.0
1514,59.0,0,60,0.0,120.0
1515,51.0,0,79,0.0,120.0
1516,63.0,60,79,1.0,30.0
1517,62.0,60,60,0.0,120.0
1518,74.0,0,60,1.0,30.0
1519,72.0,0,60,1.0,30.0
1520,60.0,60,60,0.0,120.0
1521,68.0,0,71,1.0,30.0
1522,56.0,0,71,0.0,120.0
1523,67.0,0,60,0.0,120.0
1524,79.0,60,60,1.0,30.0
1525,63.0,60,60,0.0,120.0
1526,75.0,0,60,1.0,30.0
1527,44.0,0,71,0.0,120.0
1528,56.0,0,71,1.0,30.0
1529,60.0,60,60,0.0,120.0
1530,72.0,0,60,1.0,30.0
1531,68.0,0,60,1.0,30.0
1532,56.0,60,60,0.0,120.0
1533,55.0,0,60,0.0,120.0
1534,67.0,60,60,1.0,30.0
1535,53.0,60,60,0.0,120.0
1536,65.0,0,60,1.0,30.0
1537,63.0,60,60,1.0,30.0
1538,51.0,0,60,0.0,120.0
1539,77.0,0,60,1.0,30.0
1540,65.0,0,60,0.0,120.0
1541,62.0,0,120,1.0,30.0
1542,50.0,60,120,0.0,120.0
1543,63.0,60,60,0.0,120.0
1544,75.0,0,60,1.0,30.0
1545,74.0,0,60,1.0,30.0
1546,62.0,0,60,0.0,120.0
1547,72.0,0,60,1.0,30.0
1548,63.0,60,120,1.0,30.0
1549,60.0,60,60,0.0,120.0
1550,51.0,0,120,0.0,120.0
1551,62.0,0,60,0.0,120.0
1552,74.0,60,60,1.0,30.0
1553,53.0,0,87,0.0,120.0
1554,65.0,0,87,1.0,30.0
1555,65.0,60,60,0.0,120.0
1556,77.0,0,60,1.0,30.0
1557,80.0,0,60,1.0,30.0
1558,68.0,60,60,0.0,120.0
1559,50.0,0,79,0.0,120.0
1560,62.0,0,79,1.0,30.0
1561,60.0,0,60,0.0,120.0
1562,72.0,60,60,1.0,30.0
1563,59.0,0,60,0.0,120.0
1564,71.0,60,60,1.0,30.0
1565,67.0,0,71,1.0,30.0
1566,55.0,0,71,0.0,120.0
1567,65.0,0,60,0.0,120.0
1568,77.0,60,60,1.0,30.0
1569,74.0,0,60,1.0,30.0
1570,62.0,0,60,0.0,120.0
1571,55.0,0,71,1.0,30.0
1572,43.0,60,71,0.0,120.0
1573,59.0,0,60,0.0,120.0
1574,71.0,60,60,1.0,30.0
1575,67.0,0,60,1.0,30.0
1576,55.0,60,60,0.0,120.0
1577,65.0,0,60,1.0,30.0
1578,59.0,0,60,0.0,120.0
1579,71.0,0,60,1.0,30.0
1580,53.0,60,60,0.0,120.0
1581,72.0,0,60,1.0,30.0
1582,63.0,0,60,1.0,30.0
1583,51.0,0,60,0.0,120.0
1584,60.0,60,60,0.0,120.0
1585,74.0,60,60,1.0,30.0
1586,62.0,0,60,1.0,30.0
1587,62.0,0,60,0.0,120.0
1588,50.0,0,60,0.0,120.0
1589,60.0,0,60,1.0,30.0
1590,48.0,0,60,0.0,120.0
1591,62.0,0,60,1.0,30.0
1592,50.0,60,60,0.0,120.0
1593,63.0,60,60,1.0,30.0
1594,51.0,0,60,0.0,120.0
1595,60.0,60,60,1.0,30.0
1596,79.0,0,120,1.0,30.0
1597,67.0,0,120,0.0,120.0
1598,48.0,0,60,0.0,120.0
1599,63.0,0,300,0.0,120.0
1600,75.0,60,300,1.0,30.0
1601,56.0,60,60,1.0,30.0
1602,44.0,0,60,0.0,120.0
1603,67.0,0,60,1.0,30.0
1604,82.0,0,60,1.0,30.0
1605,55.0,0,60,0.0,120.0
1606,70.0,60,60,0.0,120.0
1607,53.0,0,60,0.0,120.0
1608,68.0,0,60,0.0,120.0
1609,65.0,0,60,1.0,30.0
1610,80.0,60,60,1.0,30.0
1611,63.0,0,60,1.0,30.0
1612,51.0,0,60,0.0,120.0
1613,67.0,60,60,0.0,120.0
1614,79.0,0,60,1.0,30.0
1615,65.0,0,60,0.0,120.0
1616,62.0,0,60,1.0,30.0
1617,77.0,0,60,1.0,30.0
1618,50.0,60,60,0.0,120.0
1619,63.0,0,60,1.0,30.0
1620,79.0,60,60,1.0,30.0
1621,51.0,0,60,0.0,120.0
1622,67.0,0,60,0.0,120.0
1623,53.0,0,60,0.0,120.0
1624,80.0,60,60,1.0,30.0
1625,65.0,0,60,1.0,30.0
1626,68.0,0,60,0.0,120.0
1627,62.0,0,60,1.0,30.0
1628,77.0,0,60,1.0,30.0
1629,50.0,60,60,0.0,120.0
1630,65.0,0,60,0.0,120.0
1631,84.0,0,540,1.0,30.0
1632,46.0,0,60,0.0,120.0
1633,72.0,0,540,0.0,120.0
1634,58.0,60,60,1.0,30.0
1635,72.0,0,60,0.0,120.0
1636,84.0,60,60,1.0,30.0
1637,68.0,0,60,1.0,30.0
1638,56.0,0,60,0.0,120.0
1639,67.0,0,60,1.0,30.0
1640,82.0,0,60,1.0,30.0
1641,55.0,0,60,0.0,120.0
1642,70.0,60,60,0.0,120.0
1643,80.0,0,60,1.0,30.0
1644,62.0,0,240,0.0,120.0
1645,74.0,0,240,1.0,30.0
1646,65.0,60,60,1.0,30.0
1647,68.0,0,60,0.0,120.0
1648,53.0,0,60,0.0,120.0
1649,67.0,0,60,0.0,120.0
1650,79.0,0,60,1.0,30.0
1651,63.0,0,120,1.0,30.0
1652,68.0,0,60,0.0,120.0
1653,51.0,60,120,0.0,120.0
1654,80.0,60,60,1.0,30.0
1655,70.0,0,60,0.0,120.0
1656,82.0,0,60,1.0,30.0
1657,79.0,0,60,1.0,30.0
1658,62.0,60,120,1.0,30.0
1659,67.0,60,60,0.0,120.0
1660,50.0,0,120,0.0,120.0
1661,72.0,60,60,1.0,30.0
1662,60.0,0,60,0.0,120.0
1663,73.0,60,60,0.0,120.0
1664,63.0,0,120,1.0,30.0
1665,85.0,0,60,1.0,30.0
1666,51.0,0,120,0.0,120.0
1667,72.0,0,60,0.0,120.0
1668,84.0,0,60,1.0,30.0
1669,52.0,0,120,0.0,120.0
1670,70.0,60,60,0.0,120.0
1671,64.0,60,120,1.0,30.0
1672,82.0,0,60,1.0,30.0
1673,80.0,60,60,1.0,30.0
1674,68.0,0,60,0.0,120.0
1675,53.0,0,120,0.0,120.0
1676,70.0,0,60,0.0,120.0
1677,82.0,60,60,1.0,30.0
1678,65.0,0,120,1.0,30.0
1679,84.0,0,60,1.0,30.0
1680,72.0,0,60,0.0,120.0
1681,52.0,60,120,0.0,120.0
1682,64.0,0,120,1.0,30.0
1683,80.0,0,60,1.0,30.0
1684,68.0,60,60,0.0,120.0
1685,62.0,0,60,0.0,120.0
1686,74.0,0,60,1.0,30.0
1687,87.0,0,60,1.0,30.0
1688,65.0,60,120,1.0,30.0
1689,75.0,60,60,0.0,120.0
1690,53.0,0,120,0.0,120.0
1691,86.0,0,60,1.0,30.0
1692,74.0,0,60,0.0,120.0
1693,72.0,0,60,0.0,120.0
1694,54.0,0,120,0.0,120.0
1695,84.0,60,60,1.0,30.0
1696,66.0,60,120,1.0,30.0
1697,83.0,0,60,1.0,30.0
1698,67.0,0,60,1.0,30.0
1699,55.0,0,60,0.0,120.0
1700,71.0,60,60,0.0,120.0
1701,65.0,0,60,1.0,30.0
1702,79.0,60,60,1.0,30.0
1703,67.0,0,60,0.0,120.0
1704,53.0,0,60,0.0,120.0
1705,63.0,60,60,1.0,30.0
1706,51.0,0,60,0.0,120.0
1707,86.0,0,60,1.0,30.0
1708,65.0,60,60,1.0,30.0
1709,72.0,0,0,0.0,120.0
1710,74.0,0,60,0.0,120.0
1711,53.0,0,60,0.0,120.0
1712,84.0,60,0,1.0,30.0
1713,67.0,0,71,1.0,30.0
1714,55.0,0,71,0.0,120.0
1715,87.0,0,120,1.0,30.0
1716,75.0,0,120,0.0,120.0
1717,67.0,60,120,0.0,120.0
1718,79.0,0,120,1.0,30.0
1719,55.0,0,79,1.0,30.0
1720,43.0,0,79,0.0,120.0
1721,74.0,0,120,0.0,120.0
1722,77.0,60,60,1.0,30.0
1723,71.0,0,120,0.0,120.0
1724,86.0,60,120,1.0,30.0
1725,83.0,0,120,1.0,30.0
1726,65.0,0,60,0.0,120.0
1727,36.0,0,60,0.0,120.0
1728,48.0,0,60,1.0,30.0
1729,48.0,28,60,0.0,120.0
1730,60.0,0,60,1.0,30.0
1731,51.0,60,60,0.0,120.0
1732,63.0,0,60,1.0,30.0
1733,67.0,60,60,1.0,30.0
1734,55.0,0,60,0.0,120.0
1735,67.0,16,463,0.0,120.0
1736,79.0,0,463,1.0,30.0
1737,72.0,60,240,1.0,30.0
1738,60.0,0,240,0.0,120.0
1739,72.0,0,480,0.0,120.0
1740,84.0,60,480,1.0,30.0
1741,63.0,0,455,0.0,120.0
1742,75.0,16,455,1.0,30.0
1743,51.0,240,87,0.0,100.0
1744,70.0,60,60,0.0,100.0
1745,69.0,60,60,0.0,100.0
1746,53.0,0,95,0.0,100.0
1747,70.0,60,60,0.0,100.0
1748,75.0,0,60,0.0,100.0
1749,55.0,60,95,0.0,100.0
1750,70.0,60,60,0.0,100.0
1751,69.0,60,60,0.0,100.0
1752,51.0,0,87,0.0,100.0
1753,70.0,60,60,0.0,100.0
1754,77.0,0,60,0.0,100.0
1755,50.0,60,120,0.0,100.0
1756,70.0,60,60,0.0,100.0
1757,69.0,0,60,0.0,100.0
1758,70.0,60,60,0.0,100.0
1759,48.0,60,120,0.0,100.0
1760,80.0,60,60,0.0,100.0
1761,50.0,0,71,0.0,100.0
1762,70.0,60,60,0.0,100.0
1763,46.0,60,55,0.0,100.0
1764,69.0,0,60,0.0,100.0
1765,70.0,60,60,0.0,100.0
1766,51.0,0,60,0.0,100.0
1767,79.0,60,71,0.0,100.0
1768,55.0,60,60,0.0,100.0
1769,56.0,60,60,0.0,100.0
1770,75.0,0,63,0.0,100.0
1771,55.0,60,60,0.0,100.0
1772,74.0,60,20,0.0,100.0
1773,72.0,20,20,0.0,100.0
1774,44.0,0,60,0.0,100.0
1775,74.0,20,20,0.0,100.0
1776,72.0,16,23,0.0,100.0
1777,71.0,12,47,0.0,100.0
1778,55.0,4,60,0.0,100.0
1779,56.0,0,60,0.0,100.0
1780,72.0,48,103,0.0,100.0
1781,55.0,60,60,0.0,100.0
1782,50.0,60,60,0.0,100.0
1783,77.0,0,63,0.0,100.0
1784,53.0,60,60,0.0,100.0
1785,74.0,60,55,0.0,100.0
1786,55.0,0,60,0.0,100.0
1787,53.0,60,60,0.0,100.0
1788,72.0,60,20,0.0,100.0
1789,71.0,20,20,0.0,100.0
1790,72.0,12,20,0.0,100.0
1791,43.0,0,60,0.0,100.0
1792,71.0,24,20,0.0,100.0
1793,53.0,4,60,0.0,100.0
1794,69.0,12,60,0.0,100.0
1795,55.0,0,60,0.0,100.0
1796,71.0,48,120,0.0,100.0
1797,53.0,60,60,0.0,100.0
1798,75.0,60,60,0.0,100.0
1799,48.0,0,63,0.0,100.0
1800,63.0,60,60,0.0,100.0
1801,62.0,60,60,0.0,100.0
1802,60.0,0,95,0.0,100.0
1803,63.0,60,60,0.0,100.0
1804,67.0,60,60,0.0,100.0
1805,58.0,0,103,0.0,100.0
1806,63.0,60,60,0.0,100.0
1807,62.0,60,60,0.0,100.0
1808,56.0,0,103,0.0,100.0
1809,63.0,60,60,0.0,100.0
1810,70.0,0,60,0.0,100.0
1811,63.0,60,60,0.0,100.0
1812,55.0,60,120,0.0,100.0
1813,62.0,0,60,0.0,100.0
1814,63.0,60,60,0.0,100.0
1815,53.0,60,120,0.0,100.0
1816,73.0,60,60,0.0,100.0
1817,65.0,60,15,0.0,100.0
1818,55.0,0,87,0.0,100.0
1819,63.0,12,27,0.0,100.0
1820,65.0,20,27,0.0,100.0
1821,63.0,12,27,0.0,100.0
1822,62.0,0,60,0.0,100.0
1823,51.0,16,71,0.0,100.0
1824,63.0,60,60,0.0,100.0
1825,56.0,60,60,0.0,100.0
1826,72.0,0,71,0.0,100.0
1827,60.0,60,60,0.0,100.0
1828,61.0,0,60,0.0,100.0
1829,68.0,60,63,0.0,100.0
1830,60.0,60,60,0.0,100.0
1831,67.0,60,20,0.0,100.0
1832,65.0,20,20,0.0,100.0
1833,67.0,12,20,0.0,100.0
1834,49.0,0,60,0.0,100.0
1835,65.0,16,20,0.0,100.0
1836,60.0,12,60,0.0,100.0
1837,64.0,12,60,0.0,100.0
1838,61.0,0,60,0.0,100.0
1839,65.0,48,87,0.0,100.0
1840,60.0,60,60,0.0,100.0
1841,55.0,0,60,0.0,100.0
1842,70.0,60,71,0.0,100.0
1843,58.0,60,60,0.0,100.0
1844,60.0,60,60,0.0,100.0
1845,67.0,0,63,0.0,100.0
1846,58.0,60,60,0.0,100.0
1847,65.0,0,20,0.0,100.0
1848,64.0,20,20,0.0,100.0
1849,65.0,12,20,0.0,100.0
1850,48.0,60,60,0.0,100.0
1851,64.0,24,20,0.0,100.0
1852,58.0,4,60,0.0,100.0
1853,62.0,12,60,0.0,100.0
1854,60.0,0,60,0.0,100.0
1855,64.0,48,95,0.0,100.0
1856,58.0,60,60,0.0,100.0
1857,68.0,60,60,0.0,100.0
1858,53.0,0,87,0.0,100.0
1859,72.0,60,60,0.0,100.0
1860,71.0,0,60,0.0,100.0
1861,56.0,60,71,0.0,100.0
1862,72.0,60,60,0.0,100.0
1863,75.0,0,31,0.0,100.0
1864,73.0,12,3,0.0,100.0
1865,75.0,16,31,0.0,100.0
1866,53.0,60,71,0.0,100.0
1867,72.0,16,60,0.0,100.0
1868,71.0,0,60,0.0,100.0
1869,61.0,60,71,0.0,100.0
1870,72.0,60,60,0.0,100.0
1871,67.0,60,60,0.0,100.0
1872,52.0,0,95,0.0,100.0
1873,72.0,60,60,0.0,100.0
1874,71.0,60,60,0.0,100.0
1875,55.0,0,87,0.0,100.0
1876,72.0,60,60,0.0,100.0
1877,73.0,60,0,0.0,100.0
1878,51.0,60,87,0.0,100.0
1879,72.0,8,3,0.0,100.0
1880,73.0,20,31,0.0,100.0
1881,71.0,20,60,0.0,100.0
1882,60.0,0,71,0.0,100.0
1883,72.0,60,60,0.0,100.0
1884,65.0,60,60,0.0,100.0
1885,72.0,60,60,0.0,100.0
1886,50.0,0,120,0.0,100.0
1887,74.0,60,60,0.0,100.0
1888,53.0,0,87,0.0,100.0
1889,76.0,60,60,0.0,100.0
1890,77.0,0,60,0.0,100.0
1891,49.0,60,87,0.0,100.0
1892,70.0,60,39,0.0,100.0
1893,72.0,16,43,0.0,100.0
1894,70.0,24,43,0.0,100.0
1895,72.0,4,39,0.0,100.0
1896,70.0,24,35,0.0,100.0
1897,58.0,20,87,0.0,100.0
1898,69.0,24,39,0.0,100.0
1899,70.0,24,39,0.0,100.0
1900,79.0,0,60,0.0,100.0
1901,77.0,60,60,0.0,100.0
1902,48.0,44,120,0.0,100.0
1903,76.0,60,60,0.0,100.0
1904,74.0,60,60,0.0,100.0
1905,50.0,0,120,0.0,100.0
1906,72.0,60,60,0.0,100.0
1907,52.0,0,87,0.0,100.0
1908,70.0,60,60,0.0,100.0
1909,68.0,0,60,0.0,100.0
1910,48.0,60,87,0.0,100.0
1911,67.0,60,60,0.0,100.0
1912,68.0,0,60,0.0,100.0
1913,53.0,60,60,0.0,100.0
1914,65.0,0,60,0.0,100.0
1915,56.0,60,60,0.0,100.0
1916,64.0,0,60,0.0,100.0
1917,55.0,60,60,0.0,100.0
1918,56.0,60,60,0.0,100.0
1919,65.0,0,60,0.0,100.0
1920,72.0,60,60,0.0,100.0
1921,51.0,0,60,0.0,100.0
1922,68.0,0,60,0.0,100.0
1923,60.0,60,60,0.0,100.0
1924,67.0,60,60,0.0,100.0
1925,58.0,0,60,0.0,100.0
1926,60.0,60,60,0.0,100.0
1927,68.0,0,60,0.0,100.0
1928,77.0,16,15,0.0,100.0
1929,79.0,0,35,0.0,100.0
1930,79.0,20,35,0.0,100.0
1931,77.0,12,35,0.0,100.0
1932,49.0,60,87,0.0,100.0
1933,75.0,12,60,0.0,100.0
1934,73.0,60,60,0.0,100.0
1935,53.0,0,79,0.0,100.0
1936,72.0,60,60,0.0,100.0
1937,70.0,60,60,0.0,100.0
1938,58.0,0,79,0.0,100.0
1939,68.0,60,60,0.0,100.0
1940,67.0,60,60,0.0,100.0
1941,61.0,0,71,0.0,100.0
1942,65.0,60,60,0.0,100.0
1943,51.0,0,60,0.0,100.0
1944,67.0,60,60,0.0,100.0
1945,63.0,0,60,0.0,100.0
1946,55.0,60,60,0.0,100.0
1947,62.0,0,60,0.0,100.0
1948,53.0,60,60,0.0,100.0
1949,55.0,60,60,0.0,100.0
1950,63.0,0,60,0.0,100.0
1951,49.0,60,60,0.0,100.0
1952,70.0,0,60,0.0,100.0
1953,58.0,0,60,0.0,100.0
1954,67.0,60,60,0.0,100.0
1955,56.0,60,60,0.0,100.0
1956,65.0,0,60,0.0,100.0
1957,67.0,60,60,0.0,100.0
1958,58.0,0,60,0.0,100.0
1959,75.0,60,35,0.0,100.0
1960,73.0,20,35,0.0,100.0
1961,75.0,16,35,0.0,100.0
1962,48.0,0,79,0.0,100.0
1963,73.0,24,60,0.0,100.0
1964,72.0,60,60,0.0,100.0
1965,51.0,0,87,0.0,100.0
1966,70.0,60,60,0.0,100.0
1967,68.0,60,60,0.0,100.0
1968,56.0,0,87,0.0,100.0
1969,67.0,60,60,0.0,100.0
1970,65.0,60,60,0.0,100.0
1971,60.0,0,87,0.0,100.0
1972,64.0,60,60,0.0,100.0
1973,49.0,0,60,0.0,100.0
1974,65.0,60,87,0.0,100.0
1975,53.0,60,60,0.0,100.0
1976,51.0,60,60,0.0,100.0
1977,53.0,60,60,0.0,100.0
1978,69.0,0,120,0.0,100.0
1979,70.0,60,23,0.0,100.0
1980,69.0,16,23,0.0,100.0
1981,54.0,0,60,0.0,100.0
1982,53.0,24,60,0.0,100.0
1983,70.0,20,87,0.0,100.0
1984,51.0,0,60,0.0,100.0
1985,53.0,60,60,0.0,100.0
1986,72.0,60,120,0.0,100.0
1987,46.0,60,60,0.0,100.0
1988,53.0,60,60,0.0,100.0
1989,73.0,0,120,0.0,100.0
1990,55.0,0,60,0.0,100.0
1991,76.0,60,120,0.0,100.0
1992,56.0,60,60,0.0,100.0
1993,55.0,60,60,0.0,100.0
1994,53.0,60,60,0.0,100.0
1995,77.0,0,120,0.0,100.0
1996,79.0,60,19,0.0,100.0
1997,77.0,16,19,0.0,100.0
1998,79.0,20,19,0.0,100.0
1999,52.0,0,60,0.0,100.0
2000,77.0,16,19,0.0,100.0
2001,53.0,8,60,0.0,100.0
2002,79.0,12,55,0.0,100.0
2003,72.0,48,60,0.0,100.0
2004,44.0,0,79,0.0,100.0
2005,76.0,60,60,0.0,100.0
2006,77.0,0,43,0.0,100.0
2007,79.0,24,43,0.0,100.0
2008,41.0,60,71,0.0,100.0
2009,80.0,36,60,0.0,100.0
2010,70.0,60,60,0.0,100.0
2011,48.0,0,71,0.0,100.0
2012,79.0,0,0,0.0,100.0
2013,77.0,16,15,0.0,100.0
2014,79.0,16,15,0.0,100.0
2015,77.0,12,15,0.0,100.0
2016,36.0,60,71,0.0,100.0
2017,76.0,16,60,0.0,100.0
2018,68.0,0,60,0.0,100.0
2019,70.0,32,43,0.0,100.0
2020,41.0,60,79,0.0,100.0
2021,72.0,28,43,0.0,100.0
2022,74.0,32,43,0.0,100.0
2023,76.0,0,60,0.0,100.0
2024,77.0,60,60,0.0,100.0
2025,44.0,28,120,0.0,100.0
2026,67.0,60,60,0.0,100.0
2027,73.0,60,60,0.0,100.0
2028,46.0,0,120,0.0,100.0
2029,72.0,0,31,0.0,100.0
2030,73.0,16,31,0.0,100.0
2031,72.0,20,31,0.0,100.0
2032,70.0,24,23,0.0,100.0
2033,48.0,60,87,0.0,100.0
2034,72.0,16,23,0.0,100.0
2035,70.0,16,23,0.0,100.0
2036,68.0,28,60,0.0,100.0
2037,68.0,60,11,0.0,100.0
2038,67.0,16,11,0.0,100.0
2039,68.0,16,11,0.0,100.0
2040,67.0,12,11,0.0,100.0
2041,53.0,0,120,0.0,100.0
2042,65.0,0,60,0.0,100.0
2043,55.0,16,120,0.0,100.0
2044,64.0,60,60,0.0,100.0
2045,65.0,0,60,0.0,100.0
2046,56.0,60,87,0.0,100.0
2047,68.0,60,60,0.0,100.0
2048,60.0,0,60,0.0,100.0
2049,53.0,60,71,0.0,100.0
2050,63.0,60,60,0.0,100.0
2051,62.0,0,60,0.0,100.0
2052,58.0,60,79,0.0,100.0
2053,68.0,60,60,0.0,100.0
2054,65.0,60,60,0.0,100.0
2055,46.0,0,87,0.0,100.0
2056,62.0,60,60,0.0,100.0
2057,58.0,60,60,0.0,100.0
2058,56.0,60,60,0.0,100.0
2059,55.0,60,60,0.0,100.0
2060,53.0,60,60,0.0,100.0
2061,67.0,0,15,0.0,100.0
2062,65.0,16,15,0.0,100.0
2063,67.0,16,15,0.0,100.0
2064,65.0,28,60,0.0,100.0
2065,51.0,60,120,0.0,100.0
2066,63.0,60,60,0.0,100.0
2067,62.0,60,60,0.0,100.0
2068,53.0,0,120,0.0,100.0
2069,63.0,0,60,0.0,100.0
2070,55.0,60,79,0.0,100.0
2071,67.0,60,60,0.0,100.0
2072,59.0,60,60,0.0,100.0
2073,51.0,0,79,0.0,100.0
2074,62.0,60,60,0.0,100.0
2075,60.0,0,60,0.0,100.0
2076,56.0,60,71,0.0,100.0
2077,67.0,60,60,0.0,100.0
2078,63.0,60,60,0.0,100.0
2079,44.0,0,71,0.0,100.0
2080,60.0,60,60,0.0,100.0
2081,56.0,60,60,0.0,100.0
2082,55.0,60,60,0.0,100.0
2083,53.0,60,60,0.0,100.0
2084,51.0,60,60,0.0,100.0
2085,65.0,0,60,0.0,100.0
2086,63.0,60,60,0.0,100.0
2087,50.0,60,120,0.0,100.0
2088,62.0,0,60,0.0,100.0
2089,51.0,60,120,0.0,100.0
2090,60.0,60,60,0.0,100.0
2091,62.0,0,43,0.0,100.0
2092,63.0,32,39,0.0,100.0
2093,53.0,60,87,0.0,100.0
2094,65.0,28,39,0.0,100.0
2095,67.0,32,39,0.0,100.0
2096,68.0,28,35,0.0,100.0
2097,67.0,16,39,0.0,100.0
2098,68.0,20,39,0.0,100.0
2099,50.0,0,79,0.0,100.0
2100,60.0,24,60,0.0,100.0
2101,59.0,0,60,0.0,100.0
2102,55.0,60,71,0.0,100.0
2103,65.0,60,60,0.0,100.0
2104,62.0,60,60,0.0,100.0
2105,43.0,0,71,0.0,100.0
2106,59.0,60,60,0.0,100.0
2107,55.0,60,60,0.0,100.0
2108,53.0,0,60,0.0,100.0
2109,59.0,60,60,0.0,100.0
2110,60.0,0,60,0.0,100.0
2111,51.0,60,60,0.0,100.0
2112,62.0,0,60,0.0,100.0
2113,50.0,60,60,0.0,100.0
2114,48.0,0,60,0.0,100.0
2115,50.0,60,60,0.0,100.0
2116,51.0,60,60,0.0,100.0
2117,67.0,0,63,0.0,100.0
2118,48.0,60,60,0.0,100.0
2119,72.0,0,43,0.0,100.0
2120,63.0,60,300,0.0,100.0
2121,44.0,60,60,0.0,100.0
2122,71.0,20,43,0.0,100.0
2123,55.0,0,60,0.0,100.0
2124,70.0,16,60,0.0,100.0
2125,53.0,0,60,0.0,100.0
2126,68.0,60,60,0.0,100.0
2127,51.0,60,60,0.0,100.0
2128,67.0,0,60,0.0,100.0
2129,65.0,60,60,0.0,100.0
2130,50.0,0,60,0.0,100.0
2131,67.0,0,60,0.0,100.0
2132,51.0,60,60,0.0,100.0
2133,53.0,60,60,0.0,100.0
2134,68.0,0,60,0.0,100.0
2135,50.0,0,60,0.0,100.0
2136,65.0,60,60,0.0,100.0
2137,72.0,24,491,0.0,100.0
2138,46.0,0,60,0.0,100.0
2139,56.0,0,60,0.0,100.0
2140,72.0,60,60,0.0,100.0
2141,72.0,60,23,0.0,100.0
2142,70.0,16,23,0.0,100.0
2143,72.0,16,23,0.0,100.0
2144,55.0,0,60,0.0,100.0
2145,70.0,12,23,0.0,100.0
2146,68.0,16,60,0.0,100.0
2147,53.0,0,60,0.0,100.0
2148,62.0,60,240,0.0,100.0
2149,67.0,60,60,0.0,100.0
2150,68.0,60,60,0.0,100.0
2151,51.0,0,120,0.0,100.0
2152,70.0,60,60,0.0,100.0
2153,50.0,0,120,0.0,100.0
2154,67.0,60,60,0.0,100.0
2155,60.0,0,60,0.0,100.0
2156,73.0,60,60,0.0,100.0
2157,51.0,60,120,0.0,100.0
2158,72.0,0,35,0.0,100.0
2159,73.0,16,35,0.0,100.0
2160,72.0,20,35,0.0,100.0
2161,70.0,24,35,0.0,100.0
2162,72.0,12,35,0.0,100.0
2163,52.0,60,120,0.0,100.0
2164,70.0,24,35,0.0,100.0
2165,68.0,24,60,0.0,100.0
2166,70.0,60,60,0.0,100.0
2167,53.0,0,120,0.0,100.0
2168,72.0,60,60,0.0,100.0
2169,68.0,60,60,0.0,100.0
2170,52.0,0,120,0.0,100.0
2171,62.0,60,60,0.0,100.0
2172,75.0,60,0,0.0,100.0
2173,53.0,0,120,0.0,100.0
2174,74.0,12,3,0.0,100.0
2175,75.0,20,35,0.0,100.0
2176,54.0,0,120,0.0,100.0
2177,72.0,12,60,0.0,100.0
2178,55.0,0,60,0.0,100.0
2179,71.0,60,60,0.0,100.0
2180,53.0,0,60,0.0,100.0
2181,67.0,60,60,0.0,100.0
2182,51.0,60,60,0.0,100.0
2183,72.0,0,120,0.0,100.0
2184,74.0,60,60,0.0,100.0
2185,53.0,0,60,0.0,100.0
2186,55.0,60,71,0.0,100.0
2187,75.0,0,120,0.0,100.0
2188,72.0,12,111,0.0,100.0
2189,67.0,48,120,0.0,100.0
2190,43.0,60,79,0.0,100.0
2191,74.0,0,120,0.0,100.0
2192,65.0,44,60,0.0,100.0
2193,71.0,16,107,0.0,100.0
2194,36.0,0,60,0.0,100.0
2195,48.0,28,60,0.0,100.0
2196,51.0,60,60,0.0,100.0
2197,55.0,60,60,0.0,100.0
2198,67.0,16,463,0.0,100.0
2199,72.0,60,480,0.0,100.0
2200,60.0,60,240,0.0,100.0
2201,63.0,16,455,0.0,100.0
