,note,step,duration,channel,velocity
0,59.0,0,120,0.0,0.0
1,68.0,30,30,0.0,0.0
2,56.0,11,120,0.0,0.0
3,63.0,0,120,0.0,0.0
4,70.0,30,30,0.0,0.0
5,71.0,19,30,0.0,0.0
6,73.0,30,30,0.0,0.0
7,75.0,30,30,0.0,0.0
8,71.0,30,30,0.0,0.0
9,70.0,30,30,0.0,0.0
10,68.0,30,30,0.0,0.0
11,67.0,30,30,0.0,0.0
12,58.0,0,120,0.0,0.0
13,61.0,0,120,0.0,0.0
14,56.0,11,120,0.0,0.0
15,68.0,30,30,0.0,0.0
16,70.0,19,30,0.0,0.0
17,64.0,30,30,0.0,0.0
18,63.0,30,30,0.0,0.0
19,61.0,30,30,0.0,0.0
20,59.0,30,30,0.0,0.0
21,58.0,30,30,0.0,0.0
22,56.0,30,30,0.0,0.0
23,63.0,30,30,0.0,0.0
24,71.0,4,60,0.0,0.0
25,68.0,0,60,0.0,0.0
26,56.0,26,30,0.0,0.0
27,63.0,30,30,0.0,0.0
28,55.0,30,30,0.0,0.0
29,71.0,0,60,0.0,0.0
30,68.0,19,60,0.0,0.0
31,63.0,11,30,0.0,0.0
32,55.0,7,30,0.0,0.0
33,70.0,0,30,0.0,0.0
34,73.0,23,30,0.0,0.0
35,63.0,30,30,0.0,0.0
36,56.0,30,30,0.0,0.0
37,63.0,30,30,0.0,0.0
38,71.0,4,60,0.0,0.0
39,68.0,0,60,0.0,0.0
40,56.0,26,30,0.0,0.0
41,63.0,30,30,0.0,0.0
42,51.0,30,30,0.0,0.0
43,68.0,19,60,0.0,0.0
44,71.0,0,60,0.0,0.0
45,63.0,11,30,0.0,0.0
46,51.0,17,30,0.0,0.0
47,67.0,13,30,0.0,0.0
48,70.0,0,30,0.0,0.0
49,63.0,30,30,0.0,0.0
50,63.0,11,120,0.0,0.0
51,56.0,0,120,0.0,0.0
52,68.0,30,30,0.0,0.0
53,59.0,0,120,0.0,0.0
54,70.0,30,30,0.0,0.0
55,71.0,19,30,0.0,0.0
56,73.0,30,30,0.0,0.0
57,75.0,30,30,0.0,0.0
58,71.0,30,30,0.0,0.0
59,70.0,30,30,0.0,0.0
60,68.0,30,30,0.0,0.0
61,67.0,30,30,0.0,0.0
62,58.0,0,120,0.0,0.0
63,61.0,11,120,0.0,0.0
64,56.0,0,120,0.0,0.0
65,68.0,30,30,0.0,0.0
66,70.0,19,30,0.0,0.0
67,64.0,30,30,0.0,0.0
68,63.0,30,30,0.0,0.0
69,61.0,30,30,0.0,0.0
70,59.0,30,30,0.0,0.0
71,58.0,30,30,0.0,0.0
72,56.0,30,30,0.0,0.0
73,63.0,30,30,0.0,0.0
74,80.0,0,60,0.0,0.0
75,71.0,4,60,0.0,0.0
76,56.0,26,30,0.0,0.0
77,63.0,30,30,0.0,0.0
78,71.0,27,60,0.0,0.0
79,80.0,0,60,0.0,0.0
80,55.0,30,30,0.0,0.0
81,63.0,3,30,0.0,0.0
82,82.0,0,60,0.0,0.0
83,73.0,27,60,0.0,0.0
84,55.0,30,30,0.0,0.0
85,63.0,3,30,0.0,0.0
86,56.0,30,30,0.0,0.0
87,63.0,30,30,0.0,0.0
88,80.0,0,60,0.0,0.0
89,71.0,4,60,0.0,0.0
90,56.0,26,30,0.0,0.0
91,63.0,30,30,0.0,0.0
92,80.0,27,60,0.0,0.0
93,71.0,0,60,0.0,0.0
94,51.0,30,30,0.0,0.0
95,63.0,3,30,0.0,0.0
96,70.0,0,60,0.0,0.0
97,79.0,27,60,0.0,0.0
98,51.0,30,30,0.0,0.0
99,63.0,3,30,0.0,0.0
100,56.0,30,30,0.0,0.0
101,63.0,30,30,0.0,0.0
102,71.0,30,30,0.0,0.0
103,68.0,0,30,0.0,0.0
104,56.0,0,30,0.0,0.0
105,70.0,0,30,0.0,0.0
106,67.0,30,30,0.0,0.0
107,63.0,0,30,0.0,0.0
108,71.0,0,60,0.0,0.0
109,54.0,26,30,0.0,0.0
110,68.0,4,60,0.0,0.0
111,63.0,30,30,0.0,0.0
112,80.0,4,60,0.0,0.0
113,71.0,0,60,0.0,0.0
114,54.0,26,30,0.0,0.0
115,63.0,30,30,0.0,0.0
116,53.0,30,30,0.0,0.0
117,61.0,30,30,0.0,0.0
118,53.0,26,30,0.0,0.0
119,68.0,0,60,0.0,0.0
120,71.0,4,60,0.0,0.0
121,61.0,30,30,0.0,0.0
122,49.0,30,30,0.0,0.0
123,61.0,30,30,0.0,0.0
124,70.0,26,30,0.0,0.0
125,65.0,4,60,0.0,0.0
126,49.0,0,30,0.0,0.0
127,61.0,0,30,0.0,0.0
128,68.0,30,30,0.0,0.0
129,54.0,30,30,0.0,0.0
130,61.0,30,30,0.0,0.0
131,70.0,30,30,0.0,0.0
132,66.0,0,30,0.0,0.0
133,54.0,0,30,0.0,0.0
134,68.0,30,30,0.0,0.0
135,65.0,0,30,0.0,0.0
136,61.0,0,30,0.0,0.0
137,70.0,0,60,0.0,0.0
138,66.0,4,60,0.0,0.0
139,52.0,26,30,0.0,0.0
140,61.0,30,30,0.0,0.0
141,78.0,4,60,0.0,0.0
142,70.0,0,60,0.0,0.0
143,52.0,26,30,0.0,0.0
144,61.0,30,30,0.0,0.0
145,51.0,30,30,0.0,0.0
146,59.0,30,30,0.0,0.0
147,51.0,26,30,0.0,0.0
148,70.0,0,60,0.0,0.0
149,66.0,4,60,0.0,0.0
150,59.0,30,30,0.0,0.0
151,47.0,30,30,0.0,0.0
152,59.0,30,30,0.0,0.0
153,68.0,26,30,0.0,0.0
154,63.0,4,60,0.0,0.0
155,47.0,0,30,0.0,0.0
156,66.0,0,30,0.0,0.0
157,59.0,30,30,0.0,0.0
158,53.0,30,30,0.0,0.0
159,59.0,30,30,0.0,0.0
160,68.0,30,30,0.0,0.0
161,62.0,0,30,0.0,0.0
162,53.0,0,30,0.0,0.0
163,66.0,30,30,0.0,0.0
164,63.0,0,30,0.0,0.0
165,59.0,0,30,0.0,0.0
166,65.0,4,60,0.0,0.0
167,68.0,0,60,0.0,0.0
168,51.0,26,30,0.0,0.0
169,59.0,30,30,0.0,0.0
170,68.0,4,60,0.0,0.0
171,77.0,0,60,0.0,0.0
172,51.0,26,30,0.0,0.0
173,59.0,30,30,0.0,0.0
174,50.0,30,30,0.0,0.0
175,58.0,30,30,0.0,0.0
176,68.0,4,60,0.0,0.0
177,65.0,0,60,0.0,0.0
178,50.0,26,30,0.0,0.0
179,58.0,30,30,0.0,0.0
180,46.0,30,30,0.0,0.0
181,58.0,30,30,0.0,0.0
182,62.0,4,60,0.0,0.0
183,66.0,0,30,0.0,0.0
184,46.0,26,30,0.0,0.0
185,65.0,30,30,0.0,0.0
186,58.0,0,30,0.0,0.0
187,66.0,11,120,0.0,0.0
188,63.0,0,120,0.0,0.0
189,51.0,30,30,0.0,0.0
190,54.0,30,30,0.0,0.0
191,56.0,19,30,0.0,0.0
192,58.0,56,30,0.0,0.0
193,59.0,4,60,0.0,0.0
194,70.0,30,30,0.0,0.0
195,68.0,26,30,0.0,0.0
196,51.0,4,60,0.0,0.0
197,66.0,30,30,0.0,0.0
198,65.0,26,30,0.0,0.0
199,50.0,4,60,0.0,0.0
200,63.0,30,30,0.0,0.0
201,59.0,4,60,0.0,0.0
202,65.0,26,30,0.0,0.0
203,68.0,30,30,0.0,0.0
204,67.0,26,30,0.0,0.0
205,58.0,4,60,0.0,0.0
206,65.0,30,30,0.0,0.0
207,67.0,26,30,0.0,0.0
208,49.0,4,60,0.0,0.0
209,70.0,30,30,0.0,0.0
210,70.0,4,60,0.0,0.0
211,48.0,26,30,0.0,0.0
212,51.0,30,30,0.0,0.0
213,53.0,26,30,0.0,0.0
214,68.0,4,60,0.0,0.0
215,55.0,56,30,0.0,0.0
216,56.0,4,60,0.0,0.0
217,66.0,30,30,0.0,0.0
218,64.0,26,30,0.0,0.0
219,47.0,4,60,0.0,0.0
220,63.0,30,30,0.0,0.0
221,46.0,4,60,0.0,0.0
222,61.0,26,30,0.0,0.0
223,60.0,30,30,0.0,0.0
224,61.0,26,30,0.0,0.0
225,55.0,4,60,0.0,0.0
226,64.0,30,30,0.0,0.0
227,63.0,26,30,0.0,0.0
228,54.0,4,60,0.0,0.0
229,61.0,30,30,0.0,0.0
230,45.0,4,60,0.0,0.0
231,63.0,26,30,0.0,0.0
232,66.0,30,30,0.0,0.0
233,66.0,4,60,0.0,0.0
234,44.0,26,30,0.0,0.0
235,48.0,30,30,0.0,0.0
236,64.0,4,60,0.0,0.0
237,49.0,26,30,0.0,0.0
238,51.0,56,30,0.0,0.0
239,52.0,4,60,0.0,0.0
240,63.0,30,30,0.0,0.0
241,44.0,4,60,0.0,0.0
242,61.0,26,30,0.0,0.0
243,59.0,30,30,0.0,0.0
244,58.0,26,30,0.0,0.0
245,43.0,4,60,0.0,0.0
246,56.0,30,30,0.0,0.0
247,58.0,26,30,0.0,0.0
248,52.0,4,60,0.0,0.0
249,61.0,30,30,0.0,0.0
250,60.0,26,30,0.0,0.0
251,51.0,4,60,0.0,0.0
252,58.0,30,30,0.0,0.0
253,42.0,4,60,0.0,0.0
254,60.0,26,30,0.0,0.0
255,63.0,30,30,0.0,0.0
256,56.0,26,30,0.0,0.0
257,41.0,4,60,0.0,0.0
258,55.0,30,30,0.0,0.0
259,56.0,26,30,0.0,0.0
260,50.0,4,60,0.0,0.0
261,59.0,30,30,0.0,0.0
262,58.0,26,30,0.0,0.0
263,49.0,4,60,0.0,0.0
264,56.0,30,30,0.0,0.0
265,58.0,26,30,0.0,0.0
266,40.0,4,60,0.0,0.0
267,61.0,30,30,0.0,0.0
268,55.0,26,30,0.0,0.0
269,39.0,4,60,0.0,0.0
270,64.0,30,30,0.0,0.0
271,63.0,26,30,0.0,0.0
272,41.0,4,60,0.0,0.0
273,61.0,30,30,0.0,0.0
274,43.0,4,60,0.0,0.0
275,70.0,26,30,0.0,0.0
276,61.0,30,30,0.0,0.0
277,70.0,26,30,0.0,0.0
278,39.0,4,60,0.0,0.0
279,61.0,30,30,0.0,0.0
280,60.0,26,30,0.0,0.0
281,44.0,4,60,0.0,0.0
282,69.0,30,30,0.0,0.0
283,46.0,4,60,0.0,0.0
284,68.0,26,30,0.0,0.0
285,66.0,30,30,0.0,0.0
286,75.0,26,30,0.0,0.0
287,48.0,4,60,0.0,0.0
288,66.0,30,30,0.0,0.0
289,75.0,26,30,0.0,0.0
290,44.0,4,60,0.0,0.0
291,66.0,30,30,0.0,0.0
292,49.0,4,60,0.0,0.0
293,65.0,26,30,0.0,0.0
294,62.0,30,30,0.0,0.0
295,51.0,4,60,0.0,0.0
296,61.0,26,30,0.0,0.0
297,59.0,30,30,0.0,0.0
298,68.0,26,30,0.0,0.0
299,53.0,4,60,0.0,0.0
300,59.0,30,30,0.0,0.0
301,68.0,26,30,0.0,0.0
302,49.0,4,60,0.0,0.0
303,59.0,30,30,0.0,0.0
304,54.0,4,60,0.0,0.0
305,58.0,26,30,0.0,0.0
306,67.0,30,30,0.0,0.0
307,66.0,26,30,0.0,0.0
308,56.0,4,60,0.0,0.0
309,64.0,30,30,0.0,0.0
310,73.0,26,30,0.0,0.0
311,58.0,4,60,0.0,0.0
312,64.0,30,30,0.0,0.0
313,73.0,26,30,0.0,0.0
314,54.0,4,60,0.0,0.0
315,64.0,30,30,0.0,0.0
316,63.0,26,30,0.0,0.0
317,59.0,4,60,0.0,0.0
318,66.0,30,30,0.0,0.0
319,68.0,26,30,0.0,0.0
320,58.0,4,60,0.0,0.0
321,70.0,30,30,0.0,0.0
322,56.0,4,60,0.0,0.0
323,71.0,26,30,0.0,0.0
324,66.0,30,30,0.0,0.0
325,65.0,26,30,0.0,0.0
326,54.0,4,60,0.0,0.0
327,63.0,30,30,0.0,0.0
328,62.0,26,30,0.0,0.0
329,53.0,4,60,0.0,0.0
330,71.0,30,30,0.0,0.0
331,70.0,26,30,0.0,0.0
332,56.0,4,60,0.0,0.0
333,68.0,30,30,0.0,0.0
334,77.0,26,30,0.0,0.0
335,50.0,4,60,0.0,0.0
336,68.0,30,30,0.0,0.0
337,77.0,26,30,0.0,0.0
338,46.0,4,60,0.0,0.0
339,68.0,30,30,0.0,0.0
340,66.0,26,30,0.0,0.0
341,51.0,4,60,0.0,0.0
342,70.0,30,30,0.0,0.0
343,75.0,26,30,0.0,0.0
344,49.0,4,60,0.0,0.0
345,77.0,30,30,0.0,0.0
346,78.0,26,30,0.0,0.0
347,48.0,4,60,0.0,0.0
348,75.0,30,30,0.0,0.0
349,72.0,26,30,0.0,0.0
350,46.0,4,60,0.0,0.0
351,75.0,30,30,0.0,0.0
352,69.0,26,30,0.0,0.0
353,48.0,4,60,0.0,0.0
354,78.0,30,30,0.0,0.0
355,77.0,26,30,0.0,0.0
356,51.0,4,60,0.0,0.0
357,75.0,30,30,0.0,0.0
358,45.0,4,60,0.0,0.0
359,84.0,26,30,0.0,0.0
360,75.0,30,30,0.0,0.0
361,84.0,26,30,0.0,0.0
362,41.0,4,60,0.0,0.0
363,75.0,30,30,0.0,0.0
364,74.0,26,30,0.0,0.0
365,46.0,4,60,0.0,0.0
366,75.0,30,30,0.0,0.0
367,77.0,30,30,0.0,0.0
368,82.0,30,30,0.0,0.0
369,70.0,30,30,0.0,0.0
370,68.0,30,30,0.0,0.0
371,66.0,30,30,0.0,0.0
372,65.0,30,30,0.0,0.0
373,63.0,30,30,0.0,0.0
374,74.0,0,30,0.0,0.0
375,65.0,30,30,0.0,0.0
376,75.0,30,30,0.0,0.0
377,66.0,0,30,0.0,0.0
378,77.0,0,30,0.0,0.0
379,68.0,17,30,0.0,0.0
380,78.0,13,15,0.0,0.0
381,70.0,2,30,0.0,0.0
382,77.0,28,15,0.0,0.0
383,75.0,30,30,0.0,0.0
384,66.0,0,30,0.0,0.0
385,83.0,0,60,0.0,0.0
386,80.0,4,60,0.0,0.0
387,65.0,26,30,0.0,0.0
388,63.0,30,30,0.0,0.0
389,83.0,4,60,0.0,0.0
390,80.0,0,60,0.0,0.0
391,62.0,26,30,0.0,0.0
392,63.0,30,30,0.0,0.0
393,82.0,0,60,0.0,0.0
394,74.0,4,60,0.0,0.0
395,65.0,26,30,0.0,0.0
396,59.0,30,30,0.0,0.0
397,58.0,30,30,0.0,0.0
398,56.0,30,30,0.0,0.0
399,54.0,30,30,0.0,0.0
400,53.0,30,30,0.0,0.0
401,51.0,30,30,0.0,0.0
402,58.0,30,30,0.0,0.0
403,78.0,4,60,0.0,0.0
404,75.0,0,60,0.0,0.0
405,51.0,26,30,0.0,0.0
406,58.0,30,30,0.0,0.0
407,50.0,30,30,0.0,0.0
408,78.0,0,60,0.0,0.0
409,75.0,27,60,0.0,0.0
410,58.0,3,30,0.0,0.0
411,77.0,27,60,0.0,0.0
412,80.0,0,60,0.0,0.0
413,50.0,30,30,0.0,0.0
414,58.0,3,30,0.0,0.0
415,51.0,30,30,0.0,0.0
416,58.0,30,30,0.0,0.0
417,78.0,0,60,0.0,0.0
418,51.0,26,30,0.0,0.0
419,75.0,4,60,0.0,0.0
420,58.0,30,30,0.0,0.0
421,78.0,0,60,0.0,0.0
422,75.0,27,60,0.0,0.0
423,46.0,30,30,0.0,0.0
424,56.0,3,30,0.0,0.0
425,74.0,27,60,0.0,0.0
426,46.0,30,30,0.0,0.0
427,77.0,0,60,0.0,0.0
428,56.0,3,30,0.0,0.0
429,47.0,30,30,0.0,0.0
430,54.0,30,30,0.0,0.0
431,75.0,4,60,0.0,0.0
432,47.0,26,30,0.0,0.0
433,54.0,19,30,0.0,0.0
434,77.0,10,15,0.0,0.0
435,46.0,17,30,0.0,0.0
436,75.0,1,15,0.0,0.0
437,77.0,2,20,0.0,0.0
438,54.0,1,30,0.0,0.0
439,75.0,11,15,0.0,0.0
440,74.0,29,15,0.0,0.0
441,75.0,4,60,0.0,0.0
442,46.0,26,30,0.0,0.0
443,54.0,30,30,0.0,0.0
444,47.0,30,30,0.0,0.0
445,54.0,30,30,0.0,0.0
446,75.0,4,60,0.0,0.0
447,47.0,26,30,0.0,0.0
448,54.0,7,30,0.0,0.0
449,43.0,11,30,0.0,0.0
450,75.0,10,15,0.0,0.0
451,73.0,8,15,0.0,0.0
452,75.0,5,15,0.0,0.0
453,73.0,16,15,0.0,0.0
454,52.0,30,30,0.0,0.0
455,71.0,3,20,0.0,0.0
456,73.0,0,30,0.0,0.0
457,43.0,30,30,0.0,0.0
458,82.0,30,30,0.0,0.0
459,52.0,0,30,0.0,0.0
460,71.0,4,60,0.0,0.0
461,44.0,26,30,0.0,0.0
462,51.0,30,30,0.0,0.0
463,63.0,4,60,0.0,0.0
464,44.0,26,30,0.0,0.0
465,51.0,19,30,0.0,0.0
466,64.0,10,15,0.0,0.0
467,73.0,4,60,0.0,0.0
468,43.0,9,30,0.0,0.0
469,63.0,1,15,0.0,0.0
470,64.0,10,15,0.0,0.0
471,63.0,7,15,0.0,0.0
472,51.0,6,30,0.0,0.0
473,62.0,24,30,0.0,0.0
474,63.0,4,60,0.0,0.0
475,43.0,26,30,0.0,0.0
476,51.0,30,30,0.0,0.0
477,44.0,26,30,0.0,0.0
478,71.0,4,60,0.0,0.0
479,51.0,17,30,0.0,0.0
480,64.0,13,15,0.0,0.0
481,44.0,2,30,0.0,0.0
482,63.0,28,15,0.0,0.0
483,62.0,0,30,0.0,0.0
484,51.0,30,30,0.0,0.0
485,70.0,4,60,0.0,0.0
486,63.0,0,60,0.0,0.0
487,42.0,26,30,0.0,0.0
488,51.0,30,30,0.0,0.0
489,75.0,4,60,0.0,0.0
490,42.0,26,30,0.0,0.0
491,51.0,30,30,0.0,0.0
492,68.0,26,270,0.0,0.0
493,41.0,30,30,0.0,0.0
494,51.0,30,30,0.0,0.0
495,77.0,30,30,0.0,0.0
496,50.0,0,30,0.0,0.0
497,48.0,0,30,0.0,0.0
498,75.0,30,30,0.0,0.0
499,77.0,4,60,0.0,0.0
500,50.0,26,30,0.0,0.0
501,56.0,30,30,0.0,0.0
502,53.0,26,30,0.0,0.0
503,80.0,4,60,0.0,0.0
504,56.0,30,30,0.0,0.0
505,74.0,4,60,0.0,0.0
506,46.0,0,30,0.0,0.0
507,70.0,0,30,0.0,0.0
508,58.0,30,30,0.0,0.0
509,77.0,4,60,0.0,0.0
510,68.0,26,30,0.0,0.0
511,48.0,0,30,0.0,0.0
512,66.0,30,30,0.0,0.0
513,58.0,0,30,0.0,0.0
514,65.0,30,30,0.0,0.0
515,50.0,0,30,0.0,0.0
516,70.0,4,180,0.0,0.0
517,63.0,30,30,0.0,0.0
518,58.0,0,30,0.0,0.0
519,65.0,30,30,0.0,0.0
520,46.0,0,30,0.0,0.0
521,56.0,0,30,0.0,0.0
522,62.0,30,30,0.0,0.0
523,51.0,26,30,0.0,0.0
524,63.0,0,60,0.0,0.0
525,54.0,30,30,0.0,0.0
526,70.0,30,30,0.0,0.0
527,66.0,0,30,0.0,0.0
528,51.0,0,30,0.0,0.0
529,68.0,0,30,0.0,0.0
530,65.0,0,30,0.0,0.0
531,54.0,30,30,0.0,0.0
532,70.0,4,60,0.0,0.0
533,66.0,0,60,0.0,0.0
534,49.0,26,30,0.0,0.0
535,58.0,30,30,0.0,0.0
536,70.0,0,60,0.0,0.0
537,49.0,26,30,0.0,0.0
538,78.0,4,60,0.0,0.0
539,58.0,30,30,0.0,0.0
540,48.0,30,30,0.0,0.0
541,56.0,30,30,0.0,0.0
542,75.0,4,60,0.0,0.0
543,66.0,0,60,0.0,0.0
544,48.0,26,30,0.0,0.0
545,56.0,30,30,0.0,0.0
546,44.0,30,30,0.0,0.0
547,56.0,30,30,0.0,0.0
548,72.0,4,60,0.0,0.0
549,65.0,26,30,0.0,0.0
550,44.0,0,30,0.0,0.0
551,54.0,0,30,0.0,0.0
552,63.0,30,30,0.0,0.0
553,49.0,30,30,0.0,0.0
554,53.0,30,30,0.0,0.0
555,68.0,30,30,0.0,0.0
556,65.0,0,30,0.0,0.0
557,49.0,0,30,0.0,0.0
558,66.0,0,30,0.0,0.0
559,63.0,30,30,0.0,0.0
560,53.0,0,30,0.0,0.0
561,68.0,0,60,0.0,0.0
562,48.0,26,30,0.0,0.0
563,65.0,4,60,0.0,0.0
564,56.0,30,30,0.0,0.0
565,77.0,4,60,0.0,0.0
566,68.0,0,60,0.0,0.0
567,48.0,26,30,0.0,0.0
568,56.0,30,30,0.0,0.0
569,46.0,30,30,0.0,0.0
570,54.0,30,30,0.0,0.0
571,46.0,26,30,0.0,0.0
572,65.0,0,60,0.0,0.0
573,73.0,4,60,0.0,0.0
574,54.0,30,30,0.0,0.0
575,42.0,30,30,0.0,0.0
576,54.0,30,30,0.0,0.0
577,70.0,4,60,0.0,0.0
578,63.0,26,30,0.0,0.0
579,42.0,0,30,0.0,0.0
580,53.0,0,30,0.0,0.0
581,62.0,30,30,0.0,0.0
582,48.0,30,30,0.0,0.0
583,51.0,30,30,0.0,0.0
584,69.0,4,60,0.0,0.0
585,48.0,0,30,0.0,0.0
586,66.0,26,30,0.0,0.0
587,51.0,0,30,0.0,0.0
588,65.0,30,30,0.0,0.0
589,70.0,4,60,0.0,0.0
590,46.0,0,30,0.0,0.0
591,66.0,26,30,0.0,0.0
592,63.0,0,30,0.0,0.0
593,54.0,30,30,0.0,0.0
594,72.0,0,60,0.0,0.0
595,46.0,26,30,0.0,0.0
596,75.0,4,60,0.0,0.0
597,54.0,30,30,0.0,0.0
598,45.0,30,30,0.0,0.0
599,53.0,30,30,0.0,0.0
600,75.0,4,60,0.0,0.0
601,72.0,0,30,0.0,0.0
602,45.0,26,30,0.0,0.0
603,53.0,30,30,0.0,0.0
604,70.0,0,30,0.0,0.0
605,41.0,0,30,0.0,0.0
606,74.0,4,60,0.0,0.0
607,71.0,26,30,0.0,0.0
608,68.0,30,30,0.0,0.0
609,53.0,0,30,0.0,0.0
610,83.0,4,60,0.0,0.0
611,80.0,4,120,0.0,0.0
612,41.0,26,30,0.0,0.0
613,51.0,30,30,0.0,0.0
614,82.0,11,120,0.0,0.0
615,50.0,26,30,0.0,0.0
616,46.0,17,30,0.0,0.0
617,78.0,13,15,0.0,0.0
618,51.0,2,30,0.0,0.0
619,77.0,17,15,0.0,0.0
620,75.0,0,30,0.0,0.0
621,54.0,56,30,0.0,0.0
622,58.0,4,60,0.0,0.0
623,74.0,26,180,0.0,0.0
624,82.0,30,30,0.0,0.0
625,46.0,60,60,0.0,0.0
626,77.0,26,30,0.0,0.0
627,80.0,0,90,0.0,0.0
628,39.0,25,90,0.0,0.0
629,79.0,6,60,0.0,0.0
630,75.0,0,60,0.0,0.0
631,43.0,9,15,0.0,0.0
632,46.0,107,15,0.0,0.0
633,51.0,41,120,0.0,0.0
634,59.0,0,120,0.0,0.0
635,68.0,30,30,0.0,0.0
636,63.0,11,120,0.0,0.0
637,56.0,0,120,0.0,0.0
638,70.0,30,30,0.0,0.0
639,71.0,19,30,0.0,0.0
640,73.0,30,30,0.0,0.0
641,75.0,30,30,0.0,0.0
642,71.0,30,30,0.0,0.0
643,70.0,30,30,0.0,0.0
644,68.0,30,30,0.0,0.0
645,56.0,0,120,0.0,0.0
646,67.0,30,30,0.0,0.0
647,58.0,0,120,0.0,0.0
648,61.0,11,120,0.0,0.0
649,68.0,30,30,0.0,0.0
650,70.0,19,30,0.0,0.0
651,64.0,30,30,0.0,0.0
652,63.0,30,30,0.0,0.0
653,61.0,30,30,0.0,0.0
654,59.0,30,30,0.0,0.0
655,58.0,30,30,0.0,0.0
656,56.0,30,30,0.0,0.0
657,63.0,30,30,0.0,0.0
658,68.0,0,60,0.0,0.0
659,56.0,26,30,0.0,0.0
660,71.0,4,60,0.0,0.0
661,63.0,30,30,0.0,0.0
662,55.0,30,30,0.0,0.0
663,68.0,0,60,0.0,0.0
664,71.0,19,60,0.0,0.0
665,63.0,11,30,0.0,0.0
666,55.0,7,30,0.0,0.0
667,73.0,0,30,0.0,0.0
668,70.0,23,30,0.0,0.0
669,63.0,30,30,0.0,0.0
670,56.0,30,30,0.0,0.0
671,63.0,30,30,0.0,0.0
672,71.0,4,60,0.0,0.0
673,68.0,0,60,0.0,0.0
674,56.0,26,30,0.0,0.0
675,63.0,30,30,0.0,0.0
676,51.0,30,30,0.0,0.0
677,68.0,19,60,0.0,0.0
678,71.0,0,60,0.0,0.0
679,63.0,11,30,0.0,0.0
680,70.0,13,30,0.0,0.0
681,67.0,0,30,0.0,0.0
682,51.0,17,30,0.0,0.0
683,63.0,30,30,0.0,0.0
684,68.0,30,30,0.0,0.0
685,63.0,0,120,0.0,0.0
686,56.0,0,120,0.0,0.0
687,59.0,11,120,0.0,0.0
688,70.0,30,30,0.0,0.0
689,71.0,19,30,0.0,0.0
690,73.0,30,30,0.0,0.0
691,75.0,30,30,0.0,0.0
692,71.0,30,30,0.0,0.0
693,70.0,30,30,0.0,0.0
694,68.0,30,30,0.0,0.0
695,67.0,30,30,0.0,0.0
696,61.0,0,120,0.0,0.0
697,56.0,0,120,0.0,0.0
698,58.0,11,120,0.0,0.0
699,68.0,30,30,0.0,0.0
700,70.0,19,30,0.0,0.0
701,64.0,30,30,0.0,0.0
702,63.0,30,30,0.0,0.0
703,61.0,30,30,0.0,0.0
704,59.0,30,30,0.0,0.0
705,58.0,30,30,0.0,0.0
706,56.0,30,30,0.0,0.0
707,63.0,30,30,0.0,0.0
708,56.0,26,30,0.0,0.0
709,80.0,4,60,0.0,0.0
710,71.0,0,60,0.0,0.0
711,63.0,30,30,0.0,0.0
712,71.0,27,60,0.0,0.0
713,80.0,0,60,0.0,0.0
714,55.0,30,30,0.0,0.0
715,63.0,3,30,0.0,0.0
716,82.0,0,60,0.0,0.0
717,73.0,27,60,0.0,0.0
718,55.0,30,30,0.0,0.0
719,63.0,3,30,0.0,0.0
720,56.0,30,30,0.0,0.0
721,63.0,30,30,0.0,0.0
722,80.0,0,60,0.0,0.0
723,71.0,4,60,0.0,0.0
724,56.0,26,30,0.0,0.0
725,63.0,30,30,0.0,0.0
726,80.0,27,60,0.0,0.0
727,71.0,0,60,0.0,0.0
728,51.0,30,30,0.0,0.0
729,63.0,3,30,0.0,0.0
730,70.0,27,60,0.0,0.0
731,51.0,30,30,0.0,0.0
732,79.0,0,60,0.0,0.0
733,63.0,3,30,0.0,0.0
734,56.0,30,30,0.0,0.0
735,63.0,30,30,0.0,0.0
736,71.0,30,30,0.0,0.0
737,68.0,0,30,0.0,0.0
738,56.0,0,30,0.0,0.0
739,67.0,0,30,0.0,0.0
740,63.0,0,30,0.0,0.0
741,70.0,30,30,0.0,0.0
742,71.0,4,60,0.0,0.0
743,68.0,0,60,0.0,0.0
744,54.0,26,30,0.0,0.0
745,63.0,30,30,0.0,0.0
746,80.0,0,60,0.0,0.0
747,71.0,4,60,0.0,0.0
748,54.0,26,30,0.0,0.0
749,63.0,30,30,0.0,0.0
750,53.0,30,30,0.0,0.0
751,61.0,30,30,0.0,0.0
752,71.0,4,60,0.0,0.0
753,53.0,26,30,0.0,0.0
754,68.0,0,60,0.0,0.0
755,61.0,30,30,0.0,0.0
756,49.0,30,30,0.0,0.0
757,61.0,30,30,0.0,0.0
758,70.0,26,30,0.0,0.0
759,65.0,4,60,0.0,0.0
760,49.0,0,30,0.0,0.0
761,61.0,0,30,0.0,0.0
762,68.0,30,30,0.0,0.0
763,54.0,30,30,0.0,0.0
764,61.0,30,30,0.0,0.0
765,70.0,30,30,0.0,0.0
766,66.0,0,30,0.0,0.0
767,54.0,0,30,0.0,0.0
768,68.0,0,30,0.0,0.0
769,65.0,30,30,0.0,0.0
770,61.0,0,30,0.0,0.0
771,70.0,0,60,0.0,0.0
772,52.0,26,30,0.0,0.0
773,66.0,4,60,0.0,0.0
774,61.0,30,30,0.0,0.0
775,78.0,4,60,0.0,0.0
776,70.0,0,60,0.0,0.0
777,52.0,26,30,0.0,0.0
778,61.0,30,30,0.0,0.0
779,51.0,30,30,0.0,0.0
780,59.0,30,30,0.0,0.0
781,66.0,0,60,0.0,0.0
782,51.0,26,30,0.0,0.0
783,70.0,4,60,0.0,0.0
784,59.0,30,30,0.0,0.0
785,47.0,30,30,0.0,0.0
786,59.0,30,30,0.0,0.0
787,68.0,0,30,0.0,0.0
788,63.0,4,60,0.0,0.0
789,47.0,26,30,0.0,0.0
790,66.0,0,30,0.0,0.0
791,59.0,30,30,0.0,0.0
792,53.0,30,30,0.0,0.0
793,59.0,30,30,0.0,0.0
794,68.0,30,30,0.0,0.0
795,62.0,0,30,0.0,0.0
796,53.0,0,30,0.0,0.0
797,66.0,30,30,0.0,0.0
798,63.0,0,30,0.0,0.0
799,59.0,0,30,0.0,0.0
800,65.0,4,60,0.0,0.0
801,68.0,0,60,0.0,0.0
802,51.0,26,30,0.0,0.0
803,59.0,30,30,0.0,0.0
804,77.0,4,60,0.0,0.0
805,68.0,0,60,0.0,0.0
806,51.0,26,30,0.0,0.0
807,59.0,30,30,0.0,0.0
808,50.0,30,30,0.0,0.0
809,58.0,30,30,0.0,0.0
810,50.0,26,30,0.0,0.0
811,68.0,4,60,0.0,0.0
812,65.0,0,60,0.0,0.0
813,58.0,30,30,0.0,0.0
814,46.0,30,30,0.0,0.0
815,58.0,30,30,0.0,0.0
816,66.0,26,30,0.0,0.0
817,46.0,0,30,0.0,0.0
818,62.0,4,60,0.0,0.0
819,65.0,30,30,0.0,0.0
820,58.0,0,30,0.0,0.0
821,63.0,11,120,0.0,0.0
822,66.0,0,120,0.0,0.0
823,51.0,30,30,0.0,0.0
824,54.0,30,30,0.0,0.0
825,56.0,19,30,0.0,0.0
826,58.0,56,30,0.0,0.0
827,59.0,4,60,0.0,0.0
828,70.0,30,30,0.0,0.0
829,68.0,26,30,0.0,0.0
830,51.0,4,60,0.0,0.0
831,66.0,30,30,0.0,0.0
832,65.0,26,30,0.0,0.0
833,50.0,4,60,0.0,0.0
834,63.0,30,30,0.0,0.0
835,65.0,26,30,0.0,0.0
836,59.0,4,60,0.0,0.0
837,68.0,30,30,0.0,0.0
838,67.0,26,30,0.0,0.0
839,58.0,4,60,0.0,0.0
840,65.0,30,30,0.0,0.0
841,67.0,26,30,0.0,0.0
842,49.0,4,60,0.0,0.0
843,70.0,30,30,0.0,0.0
844,70.0,4,60,0.0,0.0
845,48.0,26,30,0.0,0.0
846,51.0,30,30,0.0,0.0
847,68.0,4,60,0.0,0.0
848,53.0,26,30,0.0,0.0
849,55.0,56,30,0.0,0.0
850,56.0,4,60,0.0,0.0
851,66.0,30,30,0.0,0.0
852,64.0,26,30,0.0,0.0
853,47.0,4,60,0.0,0.0
854,63.0,30,30,0.0,0.0
855,46.0,4,60,0.0,0.0
856,61.0,26,30,0.0,0.0
857,60.0,30,30,0.0,0.0
858,61.0,26,30,0.0,0.0
859,55.0,4,60,0.0,0.0
860,64.0,30,30,0.0,0.0
861,63.0,26,30,0.0,0.0
862,54.0,4,60,0.0,0.0
863,61.0,30,30,0.0,0.0
864,45.0,4,60,0.0,0.0
865,63.0,26,30,0.0,0.0
866,66.0,30,30,0.0,0.0
867,66.0,4,60,0.0,0.0
868,44.0,26,30,0.0,0.0
869,48.0,30,30,0.0,0.0
870,64.0,4,60,0.0,0.0
871,49.0,26,30,0.0,0.0
872,51.0,56,30,0.0,0.0
873,52.0,4,60,0.0,0.0
874,63.0,30,30,0.0,0.0
875,61.0,26,30,0.0,0.0
876,44.0,4,60,0.0,0.0
877,59.0,30,30,0.0,0.0
878,58.0,26,30,0.0,0.0
879,43.0,4,60,0.0,0.0
880,56.0,30,30,0.0,0.0
881,58.0,26,30,0.0,0.0
882,52.0,4,60,0.0,0.0
883,61.0,30,30,0.0,0.0
884,60.0,26,30,0.0,0.0
885,51.0,4,60,0.0,0.0
886,58.0,30,30,0.0,0.0
887,60.0,26,30,0.0,0.0
888,42.0,4,60,0.0,0.0
889,63.0,30,30,0.0,0.0
890,56.0,26,30,0.0,0.0
891,41.0,4,60,0.0,0.0
892,55.0,30,30,0.0,0.0
893,50.0,4,60,0.0,0.0
894,56.0,26,30,0.0,0.0
895,59.0,30,30,0.0,0.0
896,58.0,26,30,0.0,0.0
897,49.0,4,60,0.0,0.0
898,56.0,30,30,0.0,0.0
899,58.0,26,30,0.0,0.0
900,40.0,4,60,0.0,0.0
901,61.0,30,30,0.0,0.0
902,55.0,26,30,0.0,0.0
903,39.0,4,60,0.0,0.0
904,64.0,30,30,0.0,0.0
905,63.0,26,30,0.0,0.0
906,41.0,4,60,0.0,0.0
907,61.0,30,30,0.0,0.0
908,70.0,26,30,0.0,0.0
909,43.0,4,60,0.0,0.0
910,61.0,30,30,0.0,0.0
911,70.0,26,30,0.0,0.0
912,39.0,4,60,0.0,0.0
913,61.0,30,30,0.0,0.0
914,60.0,26,30,0.0,0.0
915,44.0,4,60,0.0,0.0
916,69.0,30,30,0.0,0.0
917,46.0,4,60,0.0,0.0
918,68.0,26,30,0.0,0.0
919,66.0,30,30,0.0,0.0
920,75.0,26,30,0.0,0.0
921,48.0,4,60,0.0,0.0
922,66.0,30,30,0.0,0.0
923,75.0,26,30,0.0,0.0
924,44.0,4,60,0.0,0.0
925,66.0,30,30,0.0,0.0
926,49.0,4,60,0.0,0.0
927,65.0,26,30,0.0,0.0
928,62.0,30,30,0.0,0.0
929,61.0,26,30,0.0,0.0
930,51.0,4,60,0.0,0.0
931,59.0,30,30,0.0,0.0
932,68.0,26,30,0.0,0.0
933,53.0,4,60,0.0,0.0
934,59.0,30,30,0.0,0.0
935,49.0,4,60,0.0,0.0
936,68.0,26,30,0.0,0.0
937,59.0,30,30,0.0,0.0
938,58.0,26,30,0.0,0.0
939,54.0,4,60,0.0,0.0
940,67.0,30,30,0.0,0.0
941,66.0,26,30,0.0,0.0
942,56.0,4,60,0.0,0.0
943,64.0,30,30,0.0,0.0
944,58.0,4,60,0.0,0.0
945,73.0,26,30,0.0,0.0
946,64.0,30,30,0.0,0.0
947,73.0,26,30,0.0,0.0
948,54.0,4,60,0.0,0.0
949,64.0,30,30,0.0,0.0
950,63.0,26,30,0.0,0.0
951,59.0,4,60,0.0,0.0
952,66.0,30,30,0.0,0.0
953,58.0,4,60,0.0,0.0
954,68.0,26,30,0.0,0.0
955,70.0,30,30,0.0,0.0
956,71.0,26,30,0.0,0.0
957,56.0,4,60,0.0,0.0
958,66.0,30,30,0.0,0.0
959,65.0,26,30,0.0,0.0
960,54.0,4,60,0.0,0.0
961,63.0,30,30,0.0,0.0
962,62.0,26,30,0.0,0.0
963,53.0,4,60,0.0,0.0
964,71.0,30,30,0.0,0.0
965,70.0,26,30,0.0,0.0
966,56.0,4,60,0.0,0.0
967,68.0,30,30,0.0,0.0
968,77.0,26,30,0.0,0.0
969,50.0,4,60,0.0,0.0
970,68.0,30,30,0.0,0.0
971,77.0,26,30,0.0,0.0
972,46.0,4,60,0.0,0.0
973,68.0,30,30,0.0,0.0
974,66.0,26,30,0.0,0.0
975,51.0,4,60,0.0,0.0
976,70.0,30,30,0.0,0.0
977,75.0,26,30,0.0,0.0
978,49.0,4,60,0.0,0.0
979,77.0,30,30,0.0,0.0
980,78.0,26,30,0.0,0.0
981,48.0,4,60,0.0,0.0
982,75.0,30,30,0.0,0.0
983,72.0,26,30,0.0,0.0
984,46.0,4,60,0.0,0.0
985,75.0,30,30,0.0,0.0
986,69.0,26,30,0.0,0.0
987,48.0,4,60,0.0,0.0
988,78.0,30,30,0.0,0.0
989,77.0,26,30,0.0,0.0
990,51.0,4,60,0.0,0.0
991,75.0,30,30,0.0,0.0
992,84.0,26,30,0.0,0.0
993,45.0,4,60,0.0,0.0
994,75.0,30,30,0.0,0.0
995,84.0,26,30,0.0,0.0
996,41.0,4,60,0.0,0.0
997,75.0,30,30,0.0,0.0
998,74.0,26,30,0.0,0.0
999,46.0,4,60,0.0,0.0
1000,75.0,30,30,0.0,0.0
1001,77.0,30,30,0.0,0.0
1002,82.0,30,30,0.0,0.0
1003,70.0,30,30,0.0,0.0
1004,68.0,30,30,0.0,0.0
1005,66.0,30,30,0.0,0.0
1006,65.0,30,30,0.0,0.0
1007,63.0,30,30,0.0,0.0
1008,74.0,0,30,0.0,0.0
1009,65.0,30,30,0.0,0.0
1010,75.0,30,30,0.0,0.0
1011,66.0,0,30,0.0,0.0
1012,77.0,17,30,0.0,0.0
1013,68.0,0,30,0.0,0.0
1014,78.0,13,15,0.0,0.0
1015,70.0,2,30,0.0,0.0
1016,77.0,28,15,0.0,0.0
1017,75.0,0,30,0.0,0.0
1018,66.0,30,30,0.0,0.0
1019,80.0,0,60,0.0,0.0
1020,83.0,4,60,0.0,0.0
1021,65.0,26,30,0.0,0.0
1022,63.0,30,30,0.0,0.0
1023,83.0,4,60,0.0,0.0
1024,80.0,0,60,0.0,0.0
1025,62.0,26,30,0.0,0.0
1026,63.0,30,30,0.0,0.0
1027,82.0,0,60,0.0,0.0
1028,74.0,4,60,0.0,0.0
1029,65.0,26,30,0.0,0.0
1030,59.0,30,30,0.0,0.0
1031,58.0,30,30,0.0,0.0
1032,56.0,30,30,0.0,0.0
1033,54.0,30,30,0.0,0.0
1034,53.0,30,30,0.0,0.0
1035,51.0,30,30,0.0,0.0
1036,58.0,30,30,0.0,0.0
1037,51.0,26,30,0.0,0.0
1038,78.0,4,60,0.0,0.0
1039,75.0,0,60,0.0,0.0
1040,58.0,30,30,0.0,0.0
1041,50.0,30,30,0.0,0.0
1042,75.0,27,60,0.0,0.0
1043,78.0,0,60,0.0,0.0
1044,58.0,3,30,0.0,0.0
1045,77.0,27,60,0.0,0.0
1046,80.0,0,60,0.0,0.0
1047,50.0,30,30,0.0,0.0
1048,58.0,3,30,0.0,0.0
1049,51.0,30,30,0.0,0.0
1050,58.0,30,30,0.0,0.0
1051,78.0,4,60,0.0,0.0
1052,75.0,0,60,0.0,0.0
1053,51.0,26,30,0.0,0.0
1054,58.0,30,30,0.0,0.0
1055,75.0,0,60,0.0,0.0
1056,78.0,27,60,0.0,0.0
1057,46.0,30,30,0.0,0.0
1058,56.0,3,30,0.0,0.0
1059,74.0,0,60,0.0,0.0
1060,77.0,27,60,0.0,0.0
1061,46.0,30,30,0.0,0.0
1062,56.0,3,30,0.0,0.0
1063,47.0,30,30,0.0,0.0
1064,54.0,30,30,0.0,0.0
1065,47.0,26,30,0.0,0.0
1066,75.0,4,60,0.0,0.0
1067,54.0,19,30,0.0,0.0
1068,77.0,10,15,0.0,0.0
1069,46.0,17,30,0.0,0.0
1070,75.0,1,15,0.0,0.0
1071,77.0,2,20,0.0,0.0
1072,54.0,1,30,0.0,0.0
1073,75.0,11,15,0.0,0.0
1074,74.0,29,15,0.0,0.0
1075,75.0,4,60,0.0,0.0
1076,46.0,26,30,0.0,0.0
1077,54.0,30,30,0.0,0.0
1078,47.0,30,30,0.0,0.0
1079,54.0,30,30,0.0,0.0
1080,75.0,4,60,0.0,0.0
1081,47.0,26,30,0.0,0.0
1082,54.0,7,30,0.0,0.0
1083,43.0,11,30,0.0,0.0
1084,75.0,10,15,0.0,0.0
1085,73.0,8,15,0.0,0.0
1086,75.0,5,15,0.0,0.0
1087,73.0,16,15,0.0,0.0
1088,52.0,30,30,0.0,0.0
1089,71.0,3,20,0.0,0.0
1090,73.0,0,30,0.0,0.0
1091,43.0,30,30,0.0,0.0
1092,52.0,0,30,0.0,0.0
1093,82.0,30,30,0.0,0.0
1094,71.0,4,60,0.0,0.0
1095,44.0,26,30,0.0,0.0
1096,51.0,30,30,0.0,0.0
1097,63.0,4,60,0.0,0.0
1098,44.0,26,30,0.0,0.0
1099,51.0,19,30,0.0,0.0
1100,43.0,9,30,0.0,0.0
1101,64.0,10,15,0.0,0.0
1102,73.0,4,60,0.0,0.0
1103,63.0,1,15,0.0,0.0
1104,64.0,10,15,0.0,0.0
1105,51.0,6,30,0.0,0.0
1106,63.0,7,15,0.0,0.0
1107,62.0,24,30,0.0,0.0
1108,63.0,4,60,0.0,0.0
1109,43.0,26,30,0.0,0.0
1110,51.0,30,30,0.0,0.0
1111,44.0,26,30,0.0,0.0
1112,71.0,4,60,0.0,0.0
1113,51.0,17,30,0.0,0.0
1114,64.0,13,15,0.0,0.0
1115,44.0,2,30,0.0,0.0
1116,63.0,28,15,0.0,0.0
1117,62.0,30,30,0.0,0.0
1118,51.0,0,30,0.0,0.0
1119,63.0,0,60,0.0,0.0
1120,70.0,4,60,0.0,0.0
1121,42.0,26,30,0.0,0.0
1122,51.0,30,30,0.0,0.0
1123,42.0,26,30,0.0,0.0
1124,75.0,4,60,0.0,0.0
1125,51.0,30,30,0.0,0.0
1126,68.0,0,270,0.0,0.0
1127,41.0,30,30,0.0,0.0
1128,51.0,30,30,0.0,0.0
1129,77.0,30,30,0.0,0.0
1130,50.0,0,30,0.0,0.0
1131,48.0,30,30,0.0,0.0
1132,75.0,0,30,0.0,0.0
1133,77.0,4,60,0.0,0.0
1134,50.0,26,30,0.0,0.0
1135,56.0,30,30,0.0,0.0
1136,80.0,4,60,0.0,0.0
1137,53.0,26,30,0.0,0.0
1138,56.0,30,30,0.0,0.0
1139,74.0,4,60,0.0,0.0
1140,46.0,26,30,0.0,0.0
1141,70.0,0,30,0.0,0.0
1142,58.0,30,30,0.0,0.0
1143,48.0,0,30,0.0,0.0
1144,77.0,4,60,0.0,0.0
1145,68.0,26,30,0.0,0.0
1146,66.0,30,30,0.0,0.0
1147,58.0,0,30,0.0,0.0
1148,70.0,4,180,0.0,0.0
1149,65.0,30,30,0.0,0.0
1150,50.0,0,30,0.0,0.0
1151,58.0,0,30,0.0,0.0
1152,63.0,30,30,0.0,0.0
1153,65.0,30,30,0.0,0.0
1154,46.0,0,30,0.0,0.0
1155,62.0,30,30,0.0,0.0
1156,56.0,0,30,0.0,0.0
1157,63.0,0,60,0.0,0.0
1158,51.0,26,30,0.0,0.0
1159,54.0,30,30,0.0,0.0
1160,51.0,0,30,0.0,0.0
1161,66.0,30,30,0.0,0.0
1162,70.0,0,30,0.0,0.0
1163,54.0,0,30,0.0,0.0
1164,68.0,0,30,0.0,0.0
1165,65.0,30,30,0.0,0.0
1166,49.0,26,30,0.0,0.0
1167,70.0,4,60,0.0,0.0
1168,66.0,0,60,0.0,0.0
1169,58.0,30,30,0.0,0.0
1170,78.0,4,60,0.0,0.0
1171,70.0,0,60,0.0,0.0
1172,49.0,26,30,0.0,0.0
1173,58.0,30,30,0.0,0.0
1174,48.0,30,30,0.0,0.0
1175,56.0,30,30,0.0,0.0
1176,75.0,4,60,0.0,0.0
1177,66.0,0,60,0.0,0.0
1178,48.0,26,30,0.0,0.0
1179,56.0,30,30,0.0,0.0
1180,44.0,30,30,0.0,0.0
1181,56.0,30,30,0.0,0.0
1182,72.0,4,60,0.0,0.0
1183,65.0,0,30,0.0,0.0
1184,44.0,26,30,0.0,0.0
1185,63.0,0,30,0.0,0.0
1186,54.0,30,30,0.0,0.0
1187,49.0,30,30,0.0,0.0
1188,53.0,30,30,0.0,0.0
1189,68.0,30,30,0.0,0.0
1190,65.0,0,30,0.0,0.0
1191,49.0,0,30,0.0,0.0
1192,66.0,0,30,0.0,0.0
1193,63.0,0,30,0.0,0.0
1194,53.0,30,30,0.0,0.0
1195,68.0,4,60,0.0,0.0
1196,65.0,0,60,0.0,0.0
1197,48.0,26,30,0.0,0.0
1198,56.0,30,30,0.0,0.0
1199,68.0,0,60,0.0,0.0
1200,48.0,26,30,0.0,0.0
1201,77.0,4,60,0.0,0.0
1202,56.0,30,30,0.0,0.0
1203,46.0,30,30,0.0,0.0
1204,54.0,30,30,0.0,0.0
1205,73.0,4,60,0.0,0.0
1206,65.0,0,60,0.0,0.0
1207,46.0,26,30,0.0,0.0
1208,54.0,30,30,0.0,0.0
1209,42.0,30,30,0.0,0.0
1210,54.0,30,30,0.0,0.0
1211,63.0,26,30,0.0,0.0
1212,42.0,0,30,0.0,0.0
1213,70.0,4,60,0.0,0.0
1214,62.0,0,30,0.0,0.0
1215,53.0,30,30,0.0,0.0
1216,48.0,30,30,0.0,0.0
1217,51.0,30,30,0.0,0.0
1218,69.0,4,60,0.0,0.0
1219,66.0,26,30,0.0,0.0
1220,48.0,0,30,0.0,0.0
1221,65.0,30,30,0.0,0.0
1222,51.0,0,30,0.0,0.0
1223,46.0,0,30,0.0,0.0
1224,66.0,26,30,0.0,0.0
1225,70.0,4,60,0.0,0.0
1226,54.0,30,30,0.0,0.0
1227,63.0,0,30,0.0,0.0
1228,75.0,4,60,0.0,0.0
1229,72.0,0,60,0.0,0.0
1230,46.0,26,30,0.0,0.0
1231,54.0,30,30,0.0,0.0
1232,45.0,30,30,0.0,0.0
1233,53.0,30,30,0.0,0.0
1234,45.0,0,30,0.0,0.0
1235,75.0,4,60,0.0,0.0
1236,72.0,26,30,0.0,0.0
1237,70.0,30,30,0.0,0.0
1238,53.0,0,30,0.0,0.0
1239,71.0,26,30,0.0,0.0
1240,41.0,0,30,0.0,0.0
1241,74.0,4,60,0.0,0.0
1242,68.0,30,30,0.0,0.0
1243,53.0,0,30,0.0,0.0
1244,83.0,4,60,0.0,0.0
1245,41.0,26,30,0.0,0.0
1246,80.0,4,120,0.0,0.0
1247,51.0,30,30,0.0,0.0
1248,50.0,26,30,0.0,0.0
1249,82.0,11,120,0.0,0.0
1250,46.0,17,30,0.0,0.0
1251,78.0,13,15,0.0,0.0
1252,51.0,2,30,0.0,0.0
1253,77.0,17,15,0.0,0.0
1254,75.0,56,30,0.0,0.0
1255,54.0,0,30,0.0,0.0
1256,74.0,0,180,0.0,0.0
1257,58.0,4,60,0.0,0.0
1258,82.0,30,30,0.0,0.0
1259,46.0,60,60,0.0,0.0
1260,77.0,26,30,0.0,0.0
1261,80.0,26,90,0.0,0.0
1262,39.0,25,90,0.0,0.0
1263,79.0,6,60,0.0,0.0
1264,75.0,0,60,0.0,0.0
1265,43.0,9,15,0.0,0.0
1266,46.0,107,15,0.0,0.0
1267,51.0,41,120,0.0,0.0
1268,75.0,30,30,0.0,0.0
1269,77.0,30,30,0.0,0.0
1270,79.0,30,30,0.0,0.0
1271,51.0,0,30,0.0,0.0
1272,53.0,0,30,0.0,0.0
1273,80.0,30,30,0.0,0.0
1274,82.0,26,30,0.0,0.0
1275,55.0,4,60,0.0,0.0
1276,76.0,30,30,0.0,0.0
1277,75.0,26,30,0.0,0.0
1278,58.0,4,60,0.0,0.0
1279,73.0,30,30,0.0,0.0
1280,72.0,26,30,0.0,0.0
1281,63.0,4,60,0.0,0.0
1282,73.0,30,30,0.0,0.0
1283,75.0,26,30,0.0,0.0
1284,61.0,4,60,0.0,0.0
1285,69.0,30,30,0.0,0.0
1286,68.0,26,30,0.0,0.0
1287,60.0,4,60,0.0,0.0
1288,66.0,30,30,0.0,0.0
1289,64.0,26,30,0.0,0.0
1290,56.0,4,60,0.0,0.0
1291,63.0,30,30,0.0,0.0
1292,64.0,26,30,0.0,0.0
1293,61.0,4,60,0.0,0.0
1294,73.0,30,30,0.0,0.0
1295,49.0,4,60,0.0,0.0
1296,64.0,26,30,0.0,0.0
1297,73.0,30,30,0.0,0.0
1298,65.0,26,30,0.0,0.0
1299,47.0,4,60,0.0,0.0
1300,74.0,30,30,0.0,0.0
1301,65.0,26,30,0.0,0.0
1302,59.0,4,60,0.0,0.0
1303,74.0,30,30,0.0,0.0
1304,57.0,4,60,0.0,0.0
1305,73.0,26,30,0.0,0.0
1306,69.0,30,30,0.0,0.0
1307,68.0,26,30,0.0,0.0
1308,45.0,4,60,0.0,0.0
1309,66.0,30,30,0.0,0.0
1310,65.0,26,30,0.0,0.0
1311,44.0,4,60,0.0,0.0
1312,74.0,30,30,0.0,0.0
1313,73.0,26,30,0.0,0.0
1314,56.0,4,60,0.0,0.0
1315,71.0,30,30,0.0,0.0
1316,70.0,26,30,0.0,0.0
1317,54.0,4,60,0.0,0.0
1318,71.0,30,30,0.0,0.0
1319,73.0,26,30,0.0,0.0
1320,42.0,4,60,0.0,0.0
1321,75.0,30,30,0.0,0.0
1322,76.0,26,30,0.0,0.0
1323,49.0,4,60,0.0,0.0
1324,71.0,30,30,0.0,0.0
1325,69.0,26,30,0.0,0.0
1326,52.0,4,60,0.0,0.0
1327,68.0,30,30,0.0,0.0
1328,67.0,26,30,0.0,0.0
1329,46.0,4,60,0.0,0.0
1330,68.0,30,30,0.0,0.0
1331,70.0,26,30,0.0,0.0
1332,49.0,4,60,0.0,0.0
1333,64.0,30,30,0.0,0.0
1334,63.0,26,30,0.0,0.0
1335,43.0,4,60,0.0,0.0
1336,61.0,30,30,0.0,0.0
1337,59.0,26,30,0.0,0.0
1338,51.0,4,60,0.0,0.0
1339,58.0,30,30,0.0,0.0
1340,59.0,26,30,0.0,0.0
1341,56.0,4,60,0.0,0.0
1342,68.0,30,30,0.0,0.0
1343,59.0,26,30,0.0,0.0
1344,44.0,4,60,0.0,0.0
1345,68.0,30,30,0.0,0.0
1346,60.0,26,30,0.0,0.0
1347,42.0,4,60,0.0,0.0
1348,69.0,30,30,0.0,0.0
1349,60.0,26,30,0.0,0.0
1350,54.0,4,60,0.0,0.0
1351,69.0,30,30,0.0,0.0
1352,52.0,4,60,0.0,0.0
1353,68.0,26,30,0.0,0.0
1354,64.0,30,30,0.0,0.0
1355,63.0,26,30,0.0,0.0
1356,40.0,4,60,0.0,0.0
1357,61.0,30,30,0.0,0.0
1358,60.0,26,30,0.0,0.0
1359,39.0,4,60,0.0,0.0
1360,69.0,30,30,0.0,0.0
1361,68.0,26,30,0.0,0.0
1362,51.0,4,60,0.0,0.0
1363,66.0,30,30,0.0,0.0
1364,65.0,26,30,0.0,0.0
1365,49.0,4,60,0.0,0.0
1366,66.0,30,30,0.0,0.0
1367,68.0,26,30,0.0,0.0
1368,37.0,4,60,0.0,0.0
1369,70.0,30,30,0.0,0.0
1370,71.0,30,30,0.0,0.0
1371,74.0,0,30,0.0,0.0
1372,61.0,30,30,0.0,0.0
1373,63.0,0,30,0.0,0.0
1374,73.0,30,30,0.0,0.0
1375,65.0,0,30,0.0,0.0
1376,71.0,30,30,0.0,0.0
1377,70.0,26,30,0.0,0.0
1378,66.0,4,60,0.0,0.0
1379,71.0,30,30,0.0,0.0
1380,73.0,26,30,0.0,0.0
1381,54.0,4,60,0.0,0.0
1382,67.0,30,30,0.0,0.0
1383,66.0,30,30,0.0,0.0
1384,54.0,0,30,0.0,0.0
1385,64.0,30,30,0.0,0.0
1386,63.0,30,30,0.0,0.0
1387,56.0,0,30,0.0,0.0
1388,61.0,30,30,0.0,0.0
1389,58.0,0,30,0.0,0.0
1390,63.0,26,30,0.0,0.0
1391,59.0,4,60,0.0,0.0
1392,64.0,30,30,0.0,0.0
1393,66.0,26,30,0.0,0.0
1394,47.0,4,60,0.0,0.0
1395,68.0,30,30,0.0,0.0
1396,69.0,30,30,0.0,0.0
1397,73.0,30,30,0.0,0.0
1398,47.0,0,30,0.0,0.0
1399,71.0,30,30,0.0,0.0
1400,49.0,0,30,0.0,0.0
1401,69.0,0,30,0.0,0.0
1402,51.0,30,30,0.0,0.0
1403,52.0,4,60,0.0,0.0
1404,68.0,26,30,0.0,0.0
1405,69.0,30,30,0.0,0.0
1406,71.0,26,30,0.0,0.0
1407,40.0,4,60,0.0,0.0
1408,66.0,30,30,0.0,0.0
1409,64.0,30,30,0.0,0.0
1410,62.0,0,30,0.0,0.0
1411,40.0,30,30,0.0,0.0
1412,42.0,30,30,0.0,0.0
1413,61.0,0,30,0.0,0.0
1414,59.0,0,30,0.0,0.0
1415,44.0,30,30,0.0,0.0
1416,45.0,26,30,0.0,0.0
1417,61.0,4,60,0.0,0.0
1418,52.0,30,30,0.0,0.0
1419,69.0,4,60,0.0,0.0
1420,61.0,0,60,0.0,0.0
1421,45.0,26,30,0.0,0.0
1422,52.0,30,30,0.0,0.0
1423,71.0,11,120,0.0,0.0
1424,62.0,0,120,0.0,0.0
1425,44.0,30,30,0.0,0.0
1426,52.0,30,30,0.0,0.0
1427,44.0,19,30,0.0,0.0
1428,52.0,30,30,0.0,0.0
1429,45.0,30,30,0.0,0.0
1430,52.0,30,30,0.0,0.0
1431,69.0,4,60,0.0,0.0
1432,61.0,0,60,0.0,0.0
1433,45.0,26,30,0.0,0.0
1434,52.0,30,30,0.0,0.0
1435,68.0,11,120,0.0,0.0
1436,41.0,30,30,0.0,0.0
1437,59.0,0,120,0.0,0.0
1438,50.0,30,30,0.0,0.0
1439,41.0,19,30,0.0,0.0
1440,50.0,30,30,0.0,0.0
1441,42.0,30,30,0.0,0.0
1442,49.0,30,30,0.0,0.0
1443,42.0,0,30,0.0,0.0
1444,66.0,30,30,0.0,0.0
1445,57.0,0,30,0.0,0.0
1446,59.0,0,30,0.0,0.0
1447,49.0,0,30,0.0,0.0
1448,68.0,30,30,0.0,0.0
1449,61.0,0,60,0.0,0.0
1450,40.0,26,30,0.0,0.0
1451,69.0,4,60,0.0,0.0
1452,49.0,30,30,0.0,0.0
1453,68.0,0,60,0.0,0.0
1454,73.0,4,60,0.0,0.0
1455,40.0,26,30,0.0,0.0
1456,49.0,30,30,0.0,0.0
1457,39.0,30,30,0.0,0.0
1458,43.0,30,30,0.0,0.0
1459,76.0,4,60,0.0,0.0
1460,67.0,0,60,0.0,0.0
1461,46.0,26,30,0.0,0.0
1462,49.0,30,30,0.0,0.0
1463,75.0,0,60,0.0,0.0
1464,68.0,4,60,0.0,0.0
1465,47.0,26,30,0.0,0.0
1466,46.0,30,30,0.0,0.0
1467,73.0,4,60,0.0,0.0
1468,70.0,0,60,0.0,0.0
1469,44.0,26,30,0.0,0.0
1470,43.0,30,30,0.0,0.0
1471,44.0,30,30,0.0,0.0
1472,51.0,30,30,0.0,0.0
1473,44.0,0,30,0.0,0.0
1474,71.0,0,30,0.0,0.0
1475,68.0,30,30,0.0,0.0
1476,70.0,30,30,0.0,0.0
1477,67.0,0,30,0.0,0.0
1478,51.0,0,30,0.0,0.0
1479,71.0,4,60,0.0,0.0
1480,68.0,0,60,0.0,0.0
1481,42.0,26,30,0.0,0.0
1482,51.0,30,30,0.0,0.0
1483,42.0,26,30,0.0,0.0
1484,75.0,0,60,0.0,0.0
1485,70.0,4,60,0.0,0.0
1486,51.0,30,30,0.0,0.0
1487,41.0,30,30,0.0,0.0
1488,45.0,30,30,0.0,0.0
1489,69.0,0,60,0.0,0.0
1490,48.0,26,30,0.0,0.0
1491,78.0,4,60,0.0,0.0
1492,51.0,30,30,0.0,0.0
1493,70.0,4,60,0.0,0.0
1494,77.0,0,60,0.0,0.0
1495,49.0,26,30,0.0,0.0
1496,48.0,30,30,0.0,0.0
1497,72.0,4,60,0.0,0.0
1498,75.0,0,60,0.0,0.0
1499,46.0,26,30,0.0,0.0
1500,45.0,30,30,0.0,0.0
1501,46.0,4,60,0.0,0.0
1502,65.0,26,30,0.0,0.0
1503,74.0,0,30,0.0,0.0
1504,71.0,30,30,0.0,0.0
1505,70.0,26,30,0.0,0.0
1506,48.0,4,60,0.0,0.0
1507,68.0,30,30,0.0,0.0
1508,77.0,26,30,0.0,0.0
1509,50.0,4,60,0.0,0.0
1510,68.0,30,30,0.0,0.0
1511,77.0,26,30,0.0,0.0
1512,46.0,4,60,0.0,0.0
1513,68.0,30,30,0.0,0.0
1514,67.0,26,30,0.0,0.0
1515,51.0,4,60,0.0,0.0
1516,76.0,30,30,0.0,0.0
1517,53.0,4,60,0.0,0.0
1518,75.0,26,30,0.0,0.0
1519,73.0,30,30,0.0,0.0
1520,82.0,26,30,0.0,0.0
1521,55.0,4,60,0.0,0.0
1522,73.0,30,30,0.0,0.0
1523,82.0,26,30,0.0,0.0
1524,51.0,4,60,0.0,0.0
1525,73.0,30,30,0.0,0.0
1526,72.0,26,30,0.0,0.0
1527,56.0,4,60,0.0,0.0
1528,69.0,30,30,0.0,0.0
1529,68.0,26,30,0.0,0.0
1530,58.0,4,60,0.0,0.0
1531,66.0,30,30,0.0,0.0
1532,75.0,26,30,0.0,0.0
1533,60.0,4,60,0.0,0.0
1534,66.0,30,30,0.0,0.0
1535,75.0,26,30,0.0,0.0
1536,56.0,4,60,0.0,0.0
1537,66.0,30,30,0.0,0.0
1538,61.0,4,60,0.0,0.0
1539,65.0,26,30,0.0,0.0
1540,74.0,30,30,0.0,0.0
1541,73.0,26,30,0.0,0.0
1542,63.0,4,60,0.0,0.0
1543,71.0,30,30,0.0,0.0
1544,80.0,26,30,0.0,0.0
1545,65.0,4,60,0.0,0.0
1546,71.0,30,30,0.0,0.0
1547,80.0,26,30,0.0,0.0
1548,61.0,4,60,0.0,0.0
1549,71.0,30,30,0.0,0.0
1550,70.0,30,30,0.0,0.0
1551,66.0,11,120,0.0,0.0
1552,73.0,30,30,0.0,0.0
1553,75.0,19,30,0.0,0.0
1554,77.0,56,30,0.0,0.0
1555,78.0,4,60,0.0,0.0
1556,65.0,30,30,0.0,0.0
1557,63.0,26,30,0.0,0.0
1558,70.0,4,60,0.0,0.0
1559,61.0,30,30,0.0,0.0
1560,69.0,4,60,0.0,0.0
1561,60.0,26,30,0.0,0.0
1562,58.0,30,30,0.0,0.0
1563,78.0,4,60,0.0,0.0
1564,60.0,26,30,0.0,0.0
1565,63.0,30,30,0.0,0.0
1566,77.0,4,60,0.0,0.0
1567,62.0,26,30,0.0,0.0
1568,60.0,30,30,0.0,0.0
1569,68.0,4,60,0.0,0.0
1570,62.0,26,30,0.0,0.0
1571,65.0,30,30,0.0,0.0
1572,67.0,26,30,0.0,0.0
1573,65.0,4,60,0.0,0.0
1574,70.0,30,30,0.0,0.0
1575,72.0,26,30,0.0,0.0
1576,63.0,4,60,0.0,0.0
1577,74.0,56,30,0.0,0.0
1578,75.0,4,60,0.0,0.0
1579,61.0,30,30,0.0,0.0
1580,66.0,4,60,0.0,0.0
1581,59.0,26,30,0.0,0.0
1582,58.0,30,30,0.0,0.0
1583,65.0,4,60,0.0,0.0
1584,56.0,26,30,0.0,0.0
1585,55.0,30,30,0.0,0.0
1586,74.0,4,60,0.0,0.0
1587,56.0,26,30,0.0,0.0
1588,59.0,30,30,0.0,0.0
1589,58.0,26,30,0.0,0.0
1590,73.0,4,60,0.0,0.0
1591,56.0,30,30,0.0,0.0
1592,64.0,4,60,0.0,0.0
1593,58.0,26,30,0.0,0.0
1594,61.0,30,30,0.0,0.0
1595,63.0,26,30,0.0,0.0
1596,61.0,4,60,0.0,0.0
1597,67.0,30,30,0.0,0.0
1598,59.0,4,60,0.0,0.0
1599,68.0,26,30,0.0,0.0
1600,70.0,56,30,0.0,0.0
1601,71.0,4,60,0.0,0.0
1602,58.0,30,30,0.0,0.0
1603,63.0,4,60,0.0,0.0
1604,56.0,26,30,0.0,0.0
1605,54.0,30,30,0.0,0.0
1606,62.0,4,60,0.0,0.0
1607,53.0,26,30,0.0,0.0
1608,51.0,30,30,0.0,0.0
1609,53.0,26,30,0.0,0.0
1610,71.0,4,60,0.0,0.0
1611,56.0,30,30,0.0,0.0
1612,70.0,4,60,0.0,0.0
1613,55.0,26,30,0.0,0.0
1614,53.0,30,30,0.0,0.0
1615,61.0,4,60,0.0,0.0
1616,55.0,26,30,0.0,0.0
1617,58.0,30,30,0.0,0.0
1618,51.0,26,30,0.0,0.0
1619,60.0,4,60,0.0,0.0
1620,50.0,30,30,0.0,0.0
1621,51.0,26,30,0.0,0.0
1622,69.0,4,60,0.0,0.0
1623,54.0,30,30,0.0,0.0
1624,68.0,4,60,0.0,0.0
1625,52.0,26,30,0.0,0.0
1626,51.0,30,30,0.0,0.0
1627,59.0,4,60,0.0,0.0
1628,52.0,26,30,0.0,0.0
1629,56.0,30,30,0.0,0.0
1630,50.0,26,30,0.0,0.0
1631,58.0,4,60,0.0,0.0
1632,48.0,30,30,0.0,0.0
1633,68.0,4,60,0.0,0.0
1634,50.0,26,30,0.0,0.0
1635,53.0,30,30,0.0,0.0
1636,67.0,4,60,0.0,0.0
1637,51.0,26,30,0.0,0.0
1638,50.0,30,30,0.0,0.0
1639,57.0,4,60,0.0,0.0
1640,51.0,26,30,0.0,0.0
1641,54.0,30,30,0.0,0.0
1642,56.0,4,60,0.0,0.0
1643,48.0,26,30,0.0,0.0
1644,46.0,30,30,0.0,0.0
1645,66.0,4,60,0.0,0.0
1646,48.0,26,30,0.0,0.0
1647,51.0,30,30,0.0,0.0
1648,65.0,4,60,0.0,0.0
1649,49.0,26,30,0.0,0.0
1650,48.0,30,30,0.0,0.0
1651,64.0,4,60,0.0,0.0
1652,56.0,0,60,0.0,0.0
1653,49.0,26,30,0.0,0.0
1654,52.0,30,30,0.0,0.0
1655,64.0,0,60,0.0,0.0
1656,56.0,4,60,0.0,0.0
1657,46.0,26,30,0.0,0.0
1658,47.0,30,30,0.0,0.0
1659,63.0,4,60,0.0,0.0
1660,55.0,0,60,0.0,0.0
1661,49.0,26,30,0.0,0.0
1662,47.0,30,30,0.0,0.0
1663,49.0,30,30,0.0,0.0
1664,55.0,30,30,0.0,0.0
1665,58.0,30,30,0.0,0.0
1666,49.0,30,30,0.0,0.0
1667,68.0,0,30,0.0,0.0
1668,47.0,0,30,0.0,0.0
1669,70.0,0,30,0.0,0.0
1670,46.0,0,30,0.0,0.0
1671,71.0,0,30,0.0,0.0
1672,44.0,0,30,0.0,0.0
1673,73.0,0,30,0.0,0.0
1674,46.0,0,30,0.0,0.0
1675,75.0,0,30,0.0,0.0
1676,47.0,0,30,0.0,0.0
1677,49.0,0,30,0.0,0.0
1678,71.0,0,30,0.0,0.0
1679,70.0,0,30,0.0,0.0
1680,51.0,0,30,0.0,0.0
1681,68.0,0,30,0.0,0.0
1682,52.0,0,30,0.0,0.0
1683,67.0,0,30,0.0,0.0
1684,52.0,4,60,0.0,0.0
1685,68.0,0,30,0.0,0.0
1686,70.0,0,30,0.0,0.0
1687,43.0,4,60,0.0,0.0
1688,64.0,0,30,0.0,0.0
1689,63.0,0,120,0.0,0.0
1690,61.0,30,30,0.0,0.0
1691,59.0,19,30,0.0,0.0
1692,58.0,30,30,0.0,0.0
1693,56.0,30,30,0.0,0.0
1694,63.0,30,30,0.0,0.0
1695,80.0,4,60,0.0,0.0
1696,71.0,0,60,0.0,0.0
1697,56.0,26,30,0.0,0.0
1698,63.0,30,30,0.0,0.0
1699,71.0,3,60,0.0,0.0
1700,80.0,0,60,0.0,0.0
1701,55.0,27,30,0.0,0.0
1702,63.0,30,30,0.0,0.0
1703,73.0,0,60,0.0,0.0
1704,82.0,3,60,0.0,0.0
1705,55.0,27,30,0.0,0.0
1706,63.0,30,30,0.0,0.0
1707,56.0,30,30,0.0,0.0
1708,63.0,30,30,0.0,0.0
1709,71.0,4,60,0.0,0.0
1710,80.0,0,60,0.0,0.0
1711,56.0,26,30,0.0,0.0
1712,63.0,30,30,0.0,0.0
1713,80.0,29,60,0.0,0.0
1714,71.0,0,60,0.0,0.0
1715,51.0,30,30,0.0,0.0
1716,63.0,1,30,0.0,0.0
1717,79.0,0,60,0.0,0.0
1718,70.0,29,60,0.0,0.0
1719,51.0,30,30,0.0,0.0
1720,63.0,1,30,0.0,0.0
1721,56.0,30,30,0.0,0.0
1722,67.0,30,30,0.0,0.0
1723,58.0,0,30,0.0,0.0
1724,68.0,30,30,0.0,0.0
1725,59.0,0,30,0.0,0.0
1726,70.0,17,30,0.0,0.0
1727,61.0,0,30,0.0,0.0
1728,63.0,2,30,0.0,0.0
1729,71.0,13,15,0.0,0.0
1730,70.0,28,15,0.0,0.0
1731,68.0,0,30,0.0,0.0
1732,59.0,30,30,0.0,0.0
1733,58.0,26,30,0.0,0.0
1734,73.0,0,60,0.0,0.0
1735,76.0,4,60,0.0,0.0
1736,56.0,30,30,0.0,0.0
1737,76.0,4,60,0.0,0.0
1738,73.0,0,60,0.0,0.0
1739,55.0,26,30,0.0,0.0
1740,56.0,30,30,0.0,0.0
1741,58.0,26,30,0.0,0.0
1742,67.0,4,60,0.0,0.0
1743,75.0,0,60,0.0,0.0
1744,52.0,30,30,0.0,0.0
1745,51.0,30,30,0.0,0.0
1746,49.0,30,30,0.0,0.0
1747,47.0,30,30,0.0,0.0
1748,46.0,30,30,0.0,0.0
1749,44.0,30,30,0.0,0.0
1750,56.0,30,30,0.0,0.0
1751,68.0,0,60,0.0,0.0
1752,71.0,4,60,0.0,0.0
1753,44.0,26,30,0.0,0.0
1754,56.0,30,30,0.0,0.0
1755,73.0,4,60,0.0,0.0
1756,69.0,0,60,0.0,0.0
1757,54.0,26,30,0.0,0.0
1758,63.0,30,30,0.0,0.0
1759,72.0,0,60,0.0,0.0
1760,68.0,4,60,0.0,0.0
1761,54.0,26,30,0.0,0.0
1762,63.0,30,30,0.0,0.0
1763,52.0,30,30,0.0,0.0
1764,61.0,30,30,0.0,0.0
1765,73.0,4,60,0.0,0.0
1766,68.0,0,60,0.0,0.0
1767,52.0,26,30,0.0,0.0
1768,61.0,30,30,0.0,0.0
1769,51.0,26,30,0.0,0.0
1770,69.0,0,60,0.0,0.0
1771,78.0,4,60,0.0,0.0
1772,60.0,30,30,0.0,0.0
1773,66.0,0,60,0.0,0.0
1774,75.0,4,60,0.0,0.0
1775,51.0,26,30,0.0,0.0
1776,60.0,30,30,0.0,0.0
1777,49.0,30,30,0.0,0.0
1778,61.0,30,30,0.0,0.0
1779,76.0,0,60,0.0,0.0
1780,68.0,4,60,0.0,0.0
1781,49.0,26,30,0.0,0.0
1782,61.0,30,30,0.0,0.0
1783,78.0,4,60,0.0,0.0
1784,74.0,0,60,0.0,0.0
1785,59.0,26,30,0.0,0.0
1786,68.0,30,30,0.0,0.0
1787,77.0,0,60,0.0,0.0
1788,73.0,4,60,0.0,0.0
1789,59.0,26,30,0.0,0.0
1790,68.0,30,30,0.0,0.0
1791,58.0,30,30,0.0,0.0
1792,67.0,30,30,0.0,0.0
1793,82.0,4,60,0.0,0.0
1794,76.0,26,30,0.0,0.0
1795,73.0,0,60,0.0,0.0
1796,58.0,0,30,0.0,0.0
1797,75.0,0,30,0.0,0.0
1798,67.0,30,30,0.0,0.0
1799,56.0,26,30,0.0,0.0
1800,76.0,0,60,0.0,0.0
1801,82.0,4,60,0.0,0.0
1802,73.0,0,60,0.0,0.0
1803,68.0,30,30,0.0,0.0
1804,82.0,0,60,0.0,0.0
1805,73.0,4,60,0.0,0.0
1806,56.0,26,30,0.0,0.0
1807,76.0,0,60,0.0,0.0
1808,68.0,30,30,0.0,0.0
1809,67.0,30,30,0.0,0.0
1810,76.0,11,120,0.0,0.0
1811,82.0,0,120,0.0,0.0
1812,73.0,0,120,0.0,0.0
1813,68.0,30,30,0.0,0.0
1814,70.0,19,30,0.0,0.0
1815,64.0,30,30,0.0,0.0
1816,63.0,30,30,0.0,0.0
1817,61.0,0,30,0.0,0.0
1818,76.0,30,30,0.0,0.0
1819,75.0,30,30,0.0,0.0
1820,59.0,0,30,0.0,0.0
1821,73.0,30,30,0.0,0.0
1822,58.0,0,30,0.0,0.0
1823,71.0,26,30,0.0,0.0
1824,56.0,4,60,0.0,0.0
1825,73.0,30,30,0.0,0.0
1826,59.0,4,60,0.0,0.0
1827,75.0,26,30,0.0,0.0
1828,68.0,30,30,0.0,0.0
1829,71.0,26,30,0.0,0.0
1830,61.0,4,60,0.0,0.0
1831,70.0,30,30,0.0,0.0
1832,68.0,26,30,0.0,0.0
1833,63.0,4,60,0.0,0.0
1834,67.0,30,30,0.0,0.0
1835,68.0,26,30,0.0,0.0
1836,64.0,0,60,0.0,0.0
1837,71.0,30,30,0.0,0.0
1838,68.0,26,30,0.0,0.0
1839,52.0,4,60,0.0,0.0
1840,71.0,30,30,0.0,0.0
1841,66.0,30,30,0.0,0.0
1842,75.0,30,30,0.0,0.0
1843,66.0,26,30,0.0,0.0
1844,57.0,0,60,0.0,0.0
1845,51.0,4,60,0.0,0.0
1846,48.0,0,60,0.0,0.0
1847,75.0,30,30,0.0,0.0
1848,65.0,30,30,0.0,0.0
1849,73.0,30,30,0.0,0.0
1850,49.0,0,30,0.0,0.0
1851,65.0,26,30,0.0,0.0
1852,56.0,4,60,0.0,0.0
1853,51.0,30,30,0.0,0.0
1854,73.0,0,30,0.0,0.0
1855,61.0,26,30,0.0,0.0
1856,56.0,4,60,0.0,0.0
1857,53.0,0,60,0.0,0.0
1858,71.0,30,30,0.0,0.0
1859,61.0,26,30,0.0,0.0
1860,56.0,0,60,0.0,0.0
1861,53.0,4,60,0.0,0.0
1862,71.0,30,30,0.0,0.0
1863,66.0,26,30,0.0,0.0
1864,54.0,7,120,0.0,0.0
1865,52.0,4,60,0.0,0.0
1866,70.0,30,30,0.0,0.0
1867,66.0,19,30,0.0,0.0
1868,42.0,4,60,0.0,0.0
1869,70.0,30,30,0.0,0.0
1870,64.0,30,30,0.0,0.0
1871,73.0,30,30,0.0,0.0
1872,55.0,4,60,0.0,0.0
1873,64.0,26,30,0.0,0.0
1874,49.0,0,60,0.0,0.0
1875,46.0,0,60,0.0,0.0
1876,73.0,30,30,0.0,0.0
1877,63.0,30,30,0.0,0.0
1878,71.0,30,30,0.0,0.0
1879,63.0,26,30,0.0,0.0
1880,54.0,4,60,0.0,0.0
1881,47.0,0,30,0.0,0.0
1882,71.0,30,30,0.0,0.0
1883,49.0,0,30,0.0,0.0
1884,54.0,4,60,0.0,0.0
1885,51.0,0,60,0.0,0.0
1886,59.0,26,30,0.0,0.0
1887,70.0,30,30,0.0,0.0
1888,59.0,26,30,0.0,0.0
1889,54.0,0,60,0.0,0.0
1890,51.0,4,60,0.0,0.0
1891,70.0,30,30,0.0,0.0
1892,64.0,26,30,0.0,0.0
1893,51.0,4,60,0.0,0.0
1894,52.0,7,120,0.0,0.0
1895,68.0,30,30,0.0,0.0
1896,40.0,4,60,0.0,0.0
1897,64.0,19,30,0.0,0.0
1898,68.0,30,30,0.0,0.0
1899,63.0,30,30,0.0,0.0
1900,71.0,30,30,0.0,0.0
1901,63.0,26,30,0.0,0.0
1902,54.0,0,60,0.0,0.0
1903,44.0,0,60,0.0,0.0
1904,47.0,4,60,0.0,0.0
1905,71.0,30,30,0.0,0.0
1906,62.0,30,30,0.0,0.0
1907,70.0,30,30,0.0,0.0
1908,62.0,0,30,0.0,0.0
1909,53.0,4,60,0.0,0.0
1910,46.0,26,30,0.0,0.0
1911,70.0,30,30,0.0,0.0
1912,48.0,0,30,0.0,0.0
1913,50.0,4,60,0.0,0.0
1914,58.0,26,30,0.0,0.0
1915,53.0,0,60,0.0,0.0
1916,68.0,30,30,0.0,0.0
1917,58.0,26,30,0.0,0.0
1918,52.0,4,60,0.0,0.0
1919,49.0,0,120,0.0,0.0
1920,68.0,30,30,0.0,0.0
1921,67.0,26,30,0.0,0.0
1922,51.0,4,60,0.0,0.0
1923,63.0,30,30,0.0,0.0
1924,68.0,30,30,0.0,0.0
1925,47.0,0,30,0.0,0.0
1926,70.0,30,30,0.0,0.0
1927,49.0,0,30,0.0,0.0
1928,71.0,30,60,0.0,0.0
1929,51.0,0,60,0.0,0.0
1930,63.0,30,60,0.0,0.0
1931,39.0,60,60,0.0,0.0
1932,67.0,0,120,0.0,0.0
1933,70.0,0,120,0.0,0.0
1934,61.0,26,90,0.0,0.0
1935,44.0,25,90,0.0,0.0
1936,59.0,6,60,0.0,0.0
1937,63.0,0,60,0.0,0.0
1938,68.0,0,60,0.0,0.0
1939,47.0,9,15,0.0,0.0
1940,51.0,107,15,0.0,0.0
1941,56.0,41,120,0.0,0.0
1942,75.0,30,30,0.0,0.0
1943,77.0,30,30,0.0,0.0
1944,79.0,30,30,0.0,0.0
1945,51.0,0,30,0.0,0.0
1946,80.0,30,30,0.0,0.0
1947,53.0,0,30,0.0,0.0
1948,82.0,26,30,0.0,0.0
1949,55.0,4,60,0.0,0.0
1950,76.0,30,30,0.0,0.0
1951,58.0,4,60,0.0,0.0
1952,75.0,26,30,0.0,0.0
1953,73.0,30,30,0.0,0.0
1954,72.0,26,30,0.0,0.0
1955,63.0,4,60,0.0,0.0
1956,73.0,30,30,0.0,0.0
1957,75.0,26,30,0.0,0.0
1958,61.0,4,60,0.0,0.0
1959,69.0,30,30,0.0,0.0
1960,68.0,26,30,0.0,0.0
1961,60.0,4,60,0.0,0.0
1962,66.0,30,30,0.0,0.0
1963,64.0,26,30,0.0,0.0
1964,56.0,4,60,0.0,0.0
1965,63.0,30,30,0.0,0.0
1966,64.0,26,30,0.0,0.0
1967,61.0,4,60,0.0,0.0
1968,73.0,30,30,0.0,0.0
1969,64.0,26,30,0.0,0.0
1970,49.0,4,60,0.0,0.0
1971,73.0,30,30,0.0,0.0
1972,65.0,26,30,0.0,0.0
1973,47.0,4,60,0.0,0.0
1974,74.0,30,30,0.0,0.0
1975,59.0,4,60,0.0,0.0
1976,65.0,26,30,0.0,0.0
1977,74.0,30,30,0.0,0.0
1978,57.0,4,60,0.0,0.0
1979,73.0,26,30,0.0,0.0
1980,69.0,30,30,0.0,0.0
1981,45.0,4,60,0.0,0.0
1982,68.0,26,30,0.0,0.0
1983,66.0,30,30,0.0,0.0
1984,65.0,26,30,0.0,0.0
1985,44.0,4,60,0.0,0.0
1986,74.0,30,30,0.0,0.0
1987,73.0,26,30,0.0,0.0
1988,56.0,4,60,0.0,0.0
1989,71.0,30,30,0.0,0.0
1990,54.0,4,60,0.0,0.0
1991,70.0,26,30,0.0,0.0
1992,71.0,30,30,0.0,0.0
1993,73.0,26,30,0.0,0.0
1994,42.0,4,60,0.0,0.0
1995,75.0,30,30,0.0,0.0
1996,76.0,26,30,0.0,0.0
1997,49.0,4,60,0.0,0.0
1998,71.0,30,30,0.0,0.0
1999,69.0,26,30,0.0,0.0
2000,52.0,4,60,0.0,0.0
2001,68.0,30,30,0.0,0.0
2002,67.0,26,30,0.0,0.0
2003,46.0,4,60,0.0,0.0
2004,68.0,30,30,0.0,0.0
2005,70.0,26,30,0.0,0.0
2006,49.0,4,60,0.0,0.0
2007,64.0,30,30,0.0,0.0
2008,43.0,4,60,0.0,0.0
2009,63.0,26,30,0.0,0.0
2010,61.0,30,30,0.0,0.0
2011,59.0,26,30,0.0,0.0
2012,51.0,4,60,0.0,0.0
2013,58.0,30,30,0.0,0.0
2014,59.0,26,30,0.0,0.0
2015,56.0,4,60,0.0,0.0
2016,68.0,30,30,0.0,0.0
2017,59.0,26,30,0.0,0.0
2018,44.0,4,60,0.0,0.0
2019,68.0,30,30,0.0,0.0
2020,60.0,26,30,0.0,0.0
2021,42.0,4,60,0.0,0.0
2022,69.0,30,30,0.0,0.0
2023,60.0,26,30,0.0,0.0
2024,54.0,4,60,0.0,0.0
2025,69.0,30,30,0.0,0.0
2026,68.0,26,30,0.0,0.0
2027,52.0,4,60,0.0,0.0
2028,64.0,30,30,0.0,0.0
2029,63.0,26,30,0.0,0.0
2030,40.0,4,60,0.0,0.0
2031,61.0,30,30,0.0,0.0
2032,60.0,26,30,0.0,0.0
2033,39.0,4,60,0.0,0.0
2034,69.0,30,30,0.0,0.0
2035,68.0,26,30,0.0,0.0
2036,51.0,4,60,0.0,0.0
2037,66.0,30,30,0.0,0.0
2038,49.0,4,60,0.0,0.0
2039,65.0,26,30,0.0,0.0
2040,66.0,30,30,0.0,0.0
2041,68.0,26,30,0.0,0.0
2042,37.0,4,60,0.0,0.0
2043,70.0,30,30,0.0,0.0
2044,71.0,30,30,0.0,0.0
2045,74.0,30,30,0.0,0.0
2046,61.0,0,30,0.0,0.0
2047,73.0,0,30,0.0,0.0
2048,63.0,30,30,0.0,0.0
2049,65.0,0,30,0.0,0.0
2050,71.0,30,30,0.0,0.0
2051,70.0,26,30,0.0,0.0
2052,66.0,4,60,0.0,0.0
2053,71.0,30,30,0.0,0.0
2054,73.0,26,30,0.0,0.0
2055,54.0,4,60,0.0,0.0
2056,67.0,30,30,0.0,0.0
2057,66.0,30,30,0.0,0.0
2058,54.0,30,30,0.0,0.0
2059,64.0,0,30,0.0,0.0
2060,63.0,0,30,0.0,0.0
2061,56.0,30,30,0.0,0.0
2062,58.0,0,30,0.0,0.0
2063,61.0,30,30,0.0,0.0
2064,59.0,4,60,0.0,0.0
2065,63.0,26,30,0.0,0.0
2066,64.0,30,30,0.0,0.0
2067,47.0,4,60,0.0,0.0
2068,66.0,26,30,0.0,0.0
2069,68.0,30,30,0.0,0.0
2070,69.0,30,30,0.0,0.0
2071,47.0,0,30,0.0,0.0
2072,73.0,30,30,0.0,0.0
2073,49.0,0,30,0.0,0.0
2074,71.0,30,30,0.0,0.0
2075,69.0,0,30,0.0,0.0
2076,51.0,30,30,0.0,0.0
2077,68.0,26,30,0.0,0.0
2078,52.0,4,60,0.0,0.0
2079,69.0,30,30,0.0,0.0
2080,71.0,26,30,0.0,0.0
2081,40.0,4,60,0.0,0.0
2082,66.0,30,30,0.0,0.0
2083,64.0,30,30,0.0,0.0
2084,62.0,30,30,0.0,0.0
2085,40.0,0,30,0.0,0.0
2086,61.0,30,30,0.0,0.0
2087,42.0,0,30,0.0,0.0
2088,59.0,30,30,0.0,0.0
2089,44.0,0,30,0.0,0.0
2090,45.0,26,30,0.0,0.0
2091,61.0,4,60,0.0,0.0
2092,52.0,30,30,0.0,0.0
2093,69.0,4,60,0.0,0.0
2094,61.0,0,60,0.0,0.0
2095,45.0,26,30,0.0,0.0
2096,52.0,30,30,0.0,0.0
2097,61.0,21,60,0.0,0.0
2098,69.0,0,60,0.0,0.0
2099,44.0,30,30,0.0,0.0
2100,52.0,9,30,0.0,0.0
2101,71.0,29,60,0.0,0.0
2102,62.0,3,60,0.0,0.0
2103,44.0,27,30,0.0,0.0
2104,52.0,1,30,0.0,0.0
2105,45.0,30,30,0.0,0.0
2106,52.0,30,30,0.0,0.0
2107,61.0,0,60,0.0,0.0
2108,45.0,26,30,0.0,0.0
2109,69.0,4,60,0.0,0.0
2110,52.0,30,30,0.0,0.0
2111,69.0,29,60,0.0,0.0
2112,61.0,0,60,0.0,0.0
2113,41.0,30,30,0.0,0.0
2114,50.0,1,30,0.0,0.0
2115,68.0,29,60,0.0,0.0
2116,59.0,0,60,0.0,0.0
2117,41.0,30,30,0.0,0.0
2118,50.0,1,30,0.0,0.0
2119,42.0,30,30,0.0,0.0
2120,49.0,30,30,0.0,0.0
2121,66.0,30,30,0.0,0.0
2122,42.0,0,30,0.0,0.0
2123,57.0,0,30,0.0,0.0
2124,68.0,30,30,0.0,0.0
2125,59.0,0,30,0.0,0.0
2126,49.0,0,30,0.0,0.0
2127,69.0,0,60,0.0,0.0
2128,61.0,4,60,0.0,0.0
2129,40.0,26,30,0.0,0.0
2130,49.0,30,30,0.0,0.0
2131,73.0,4,60,0.0,0.0
2132,68.0,0,60,0.0,0.0
2133,40.0,26,30,0.0,0.0
2134,49.0,30,30,0.0,0.0
2135,39.0,30,30,0.0,0.0
2136,43.0,30,30,0.0,0.0
2137,76.0,0,60,0.0,0.0
2138,67.0,4,60,0.0,0.0
2139,46.0,26,30,0.0,0.0
2140,49.0,30,30,0.0,0.0
2141,68.0,4,60,0.0,0.0
2142,75.0,0,60,0.0,0.0
2143,47.0,26,30,0.0,0.0
2144,46.0,30,30,0.0,0.0
2145,44.0,26,30,0.0,0.0
2146,70.0,0,60,0.0,0.0
2147,73.0,4,60,0.0,0.0
2148,43.0,30,30,0.0,0.0
2149,44.0,30,30,0.0,0.0
2150,51.0,30,30,0.0,0.0
2151,71.0,0,30,0.0,0.0
2152,68.0,30,30,0.0,0.0
2153,44.0,0,30,0.0,0.0
2154,70.0,0,30,0.0,0.0
2155,67.0,0,30,0.0,0.0
2156,51.0,30,30,0.0,0.0
2157,71.0,4,60,0.0,0.0
2158,68.0,0,60,0.0,0.0
2159,42.0,26,30,0.0,0.0
2160,51.0,30,30,0.0,0.0
2161,75.0,4,60,0.0,0.0
2162,70.0,0,60,0.0,0.0
2163,42.0,26,30,0.0,0.0
2164,51.0,30,30,0.0,0.0
2165,41.0,30,30,0.0,0.0
2166,45.0,30,30,0.0,0.0
2167,78.0,0,60,0.0,0.0
2168,69.0,4,60,0.0,0.0
2169,48.0,26,30,0.0,0.0
2170,51.0,30,30,0.0,0.0
2171,77.0,0,60,0.0,0.0
2172,70.0,4,60,0.0,0.0
2173,49.0,26,30,0.0,0.0
2174,48.0,30,30,0.0,0.0
2175,75.0,4,60,0.0,0.0
2176,72.0,0,60,0.0,0.0
2177,46.0,26,30,0.0,0.0
2178,45.0,30,30,0.0,0.0
2179,65.0,26,30,0.0,0.0
2180,74.0,0,30,0.0,0.0
2181,46.0,4,60,0.0,0.0
2182,71.0,30,30,0.0,0.0
2183,70.0,26,30,0.0,0.0
2184,48.0,4,60,0.0,0.0
2185,68.0,30,30,0.0,0.0
2186,77.0,26,30,0.0,0.0
2187,50.0,4,60,0.0,0.0
2188,68.0,30,30,0.0,0.0
2189,77.0,26,30,0.0,0.0
2190,46.0,4,60,0.0,0.0
2191,68.0,30,30,0.0,0.0
2192,67.0,26,30,0.0,0.0
2193,51.0,4,60,0.0,0.0
2194,76.0,30,30,0.0,0.0
2195,75.0,26,30,0.0,0.0
2196,53.0,4,60,0.0,0.0
2197,73.0,30,30,0.0,0.0
2198,82.0,26,30,0.0,0.0
2199,55.0,4,60,0.0,0.0
2200,73.0,30,30,0.0,0.0
2201,82.0,26,30,0.0,0.0
2202,51.0,4,60,0.0,0.0
2203,73.0,30,30,0.0,0.0
2204,72.0,26,30,0.0,0.0
2205,56.0,4,60,0.0,0.0
2206,69.0,30,30,0.0,0.0
2207,68.0,26,30,0.0,0.0
2208,58.0,4,60,0.0,0.0
2209,66.0,30,30,0.0,0.0
2210,75.0,26,30,0.0,0.0
2211,60.0,4,60,0.0,0.0
2212,66.0,30,30,0.0,0.0
2213,56.0,4,60,0.0,0.0
2214,75.0,26,30,0.0,0.0
2215,66.0,30,30,0.0,0.0
2216,65.0,26,30,0.0,0.0
2217,61.0,4,60,0.0,0.0
2218,74.0,30,30,0.0,0.0
2219,73.0,26,30,0.0,0.0
2220,63.0,4,60,0.0,0.0
2221,71.0,30,30,0.0,0.0
2222,65.0,4,60,0.0,0.0
2223,80.0,26,30,0.0,0.0
2224,71.0,30,30,0.0,0.0
2225,61.0,4,60,0.0,0.0
2226,80.0,26,30,0.0,0.0
2227,71.0,30,30,0.0,0.0
2228,70.0,30,30,0.0,0.0
2229,66.0,11,120,0.0,0.0
2230,73.0,30,30,0.0,0.0
2231,75.0,19,30,0.0,0.0
2232,77.0,56,30,0.0,0.0
2233,78.0,4,60,0.0,0.0
2234,65.0,30,30,0.0,0.0
2235,70.0,4,60,0.0,0.0
2236,63.0,26,30,0.0,0.0
2237,61.0,30,30,0.0,0.0
2238,69.0,4,60,0.0,0.0
2239,60.0,26,30,0.0,0.0
2240,58.0,30,30,0.0,0.0
2241,78.0,4,60,0.0,0.0
2242,60.0,26,30,0.0,0.0
2243,63.0,30,30,0.0,0.0
2244,62.0,26,30,0.0,0.0
2245,77.0,4,60,0.0,0.0
2246,60.0,30,30,0.0,0.0
2247,68.0,4,60,0.0,0.0
2248,62.0,26,30,0.0,0.0
2249,65.0,30,30,0.0,0.0
2250,67.0,26,30,0.0,0.0
2251,65.0,4,60,0.0,0.0
2252,70.0,30,30,0.0,0.0
2253,72.0,26,30,0.0,0.0
2254,63.0,4,60,0.0,0.0
2255,74.0,56,30,0.0,0.0
2256,75.0,4,60,0.0,0.0
2257,61.0,30,30,0.0,0.0
2258,66.0,4,60,0.0,0.0
2259,59.0,26,30,0.0,0.0
2260,58.0,30,30,0.0,0.0
2261,65.0,4,60,0.0,0.0
2262,56.0,26,30,0.0,0.0
2263,55.0,30,30,0.0,0.0
2264,56.0,26,30,0.0,0.0
2265,74.0,4,60,0.0,0.0
2266,59.0,30,30,0.0,0.0
2267,58.0,26,30,0.0,0.0
2268,73.0,4,60,0.0,0.0
2269,56.0,30,30,0.0,0.0
2270,64.0,4,60,0.0,0.0
2271,58.0,26,30,0.0,0.0
2272,61.0,30,30,0.0,0.0
2273,63.0,26,30,0.0,0.0
2274,61.0,4,60,0.0,0.0
2275,67.0,30,30,0.0,0.0
2276,59.0,4,60,0.0,0.0
2277,68.0,26,30,0.0,0.0
2278,70.0,56,30,0.0,0.0
2279,71.0,4,60,0.0,0.0
2280,58.0,30,30,0.0,0.0
2281,63.0,4,60,0.0,0.0
2282,56.0,26,30,0.0,0.0
2283,54.0,30,30,0.0,0.0
2284,53.0,26,30,0.0,0.0
2285,62.0,4,60,0.0,0.0
2286,51.0,30,30,0.0,0.0
2287,71.0,4,60,0.0,0.0
2288,53.0,26,30,0.0,0.0
2289,56.0,30,30,0.0,0.0
2290,70.0,4,60,0.0,0.0
2291,55.0,26,30,0.0,0.0
2292,53.0,30,30,0.0,0.0
2293,61.0,4,60,0.0,0.0
2294,55.0,26,30,0.0,0.0
2295,58.0,30,30,0.0,0.0
2296,60.0,4,60,0.0,0.0
2297,51.0,26,30,0.0,0.0
2298,50.0,30,30,0.0,0.0
2299,69.0,4,60,0.0,0.0
2300,51.0,26,30,0.0,0.0
2301,54.0,30,30,0.0,0.0
2302,68.0,4,60,0.0,0.0
2303,52.0,26,30,0.0,0.0
2304,51.0,30,30,0.0,0.0
2305,59.0,4,60,0.0,0.0
2306,52.0,26,30,0.0,0.0
2307,56.0,30,30,0.0,0.0
2308,58.0,4,60,0.0,0.0
2309,50.0,26,30,0.0,0.0
2310,48.0,30,30,0.0,0.0
2311,50.0,26,30,0.0,0.0
2312,68.0,4,60,0.0,0.0
2313,53.0,30,30,0.0,0.0
2314,67.0,4,60,0.0,0.0
2315,51.0,26,30,0.0,0.0
2316,50.0,30,30,0.0,0.0
2317,57.0,4,60,0.0,0.0
2318,51.0,26,30,0.0,0.0
2319,54.0,30,30,0.0,0.0
2320,48.0,26,30,0.0,0.0
2321,56.0,4,60,0.0,0.0
2322,46.0,30,30,0.0,0.0
2323,66.0,4,60,0.0,0.0
2324,48.0,26,30,0.0,0.0
2325,51.0,30,30,0.0,0.0
2326,65.0,4,60,0.0,0.0
2327,49.0,26,30,0.0,0.0
2328,48.0,30,30,0.0,0.0
2329,64.0,4,60,0.0,0.0
2330,56.0,0,60,0.0,0.0
2331,49.0,26,30,0.0,0.0
2332,52.0,30,30,0.0,0.0
2333,64.0,4,60,0.0,0.0
2334,56.0,0,60,0.0,0.0
2335,46.0,26,30,0.0,0.0
2336,47.0,30,30,0.0,0.0
2337,49.0,26,30,0.0,0.0
2338,63.0,4,60,0.0,0.0
2339,55.0,0,60,0.0,0.0
2340,47.0,30,30,0.0,0.0
2341,49.0,30,30,0.0,0.0
2342,55.0,30,30,0.0,0.0
2343,58.0,30,30,0.0,0.0
2344,49.0,30,30,0.0,0.0
2345,68.0,0,30,0.0,0.0
2346,47.0,0,30,0.0,0.0
2347,70.0,0,30,0.0,0.0
2348,46.0,0,30,0.0,0.0
2349,44.0,0,30,0.0,0.0
2350,71.0,0,30,0.0,0.0
2351,73.0,0,30,0.0,0.0
2352,46.0,0,30,0.0,0.0
2353,75.0,0,30,0.0,0.0
2354,47.0,30,30,0.0,0.0
2355,71.0,0,30,0.0,0.0
2356,49.0,0,30,0.0,0.0
2357,70.0,0,30,0.0,0.0
2358,51.0,0,30,0.0,0.0
2359,68.0,0,30,0.0,0.0
2360,52.0,0,30,0.0,0.0
2361,67.0,0,30,0.0,0.0
2362,52.0,4,60,0.0,0.0
2363,68.0,0,30,0.0,0.0
2364,43.0,4,60,0.0,0.0
2365,70.0,0,30,0.0,0.0
2366,64.0,0,30,0.0,0.0
2367,63.0,0,120,0.0,0.0
2368,61.0,30,30,0.0,0.0
2369,59.0,19,30,0.0,0.0
2370,58.0,30,30,0.0,0.0
2371,56.0,30,30,0.0,0.0
2372,63.0,30,30,0.0,0.0
2373,80.0,4,60,0.0,0.0
2374,71.0,0,60,0.0,0.0
2375,56.0,26,30,0.0,0.0
2376,63.0,30,30,0.0,0.0
2377,82.0,11,120,0.0,0.0
2378,73.0,0,120,0.0,0.0
2379,55.0,30,30,0.0,0.0
2380,63.0,30,30,0.0,0.0
2381,55.0,19,30,0.0,0.0
2382,63.0,30,30,0.0,0.0
2383,56.0,30,30,0.0,0.0
2384,63.0,30,30,0.0,0.0
2385,80.0,4,60,0.0,0.0
2386,71.0,0,60,0.0,0.0
2387,56.0,26,30,0.0,0.0
2388,63.0,30,30,0.0,0.0
2389,79.0,11,120,0.0,0.0
2390,70.0,0,120,0.0,0.0
2391,51.0,30,30,0.0,0.0
2392,63.0,30,30,0.0,0.0
2393,51.0,19,30,0.0,0.0
2394,63.0,30,30,0.0,0.0
2395,56.0,30,30,0.0,0.0
2396,58.0,30,30,0.0,0.0
2397,67.0,0,30,0.0,0.0
2398,59.0,0,30,0.0,0.0
2399,68.0,30,30,0.0,0.0
2400,70.0,17,30,0.0,0.0
2401,61.0,0,30,0.0,0.0
2402,71.0,13,15,0.0,0.0
2403,63.0,2,30,0.0,0.0
2404,70.0,28,15,0.0,0.0
2405,68.0,0,30,0.0,0.0
2406,59.0,30,30,0.0,0.0
2407,73.0,0,60,0.0,0.0
2408,76.0,4,60,0.0,0.0
2409,58.0,26,30,0.0,0.0
2410,56.0,30,30,0.0,0.0
2411,76.0,4,60,0.0,0.0
2412,55.0,26,30,0.0,0.0
2413,73.0,0,60,0.0,0.0
2414,56.0,30,30,0.0,0.0
2415,58.0,26,30,0.0,0.0
2416,75.0,4,60,0.0,0.0
2417,67.0,0,60,0.0,0.0
2418,52.0,30,30,0.0,0.0
2419,51.0,30,30,0.0,0.0
2420,49.0,30,30,0.0,0.0
2421,47.0,30,30,0.0,0.0
2422,46.0,30,30,0.0,0.0
2423,44.0,30,30,0.0,0.0
2424,56.0,30,30,0.0,0.0
2425,71.0,0,60,0.0,0.0
2426,68.0,4,60,0.0,0.0
2427,44.0,26,30,0.0,0.0
2428,56.0,30,30,0.0,0.0
2429,73.0,4,60,0.0,0.0
2430,69.0,0,60,0.0,0.0
2431,54.0,26,30,0.0,0.0
2432,63.0,30,30,0.0,0.0
2433,72.0,0,60,0.0,0.0
2434,68.0,4,60,0.0,0.0
2435,54.0,26,30,0.0,0.0
2436,63.0,30,30,0.0,0.0
2437,52.0,30,30,0.0,0.0
2438,61.0,30,30,0.0,0.0
2439,52.0,26,30,0.0,0.0
2440,73.0,4,60,0.0,0.0
2441,68.0,0,60,0.0,0.0
2442,61.0,30,30,0.0,0.0
2443,78.0,4,60,0.0,0.0
2444,69.0,0,60,0.0,0.0
2445,51.0,26,30,0.0,0.0
2446,60.0,30,30,0.0,0.0
2447,51.0,26,30,0.0,0.0
2448,66.0,0,60,0.0,0.0
2449,75.0,4,60,0.0,0.0
2450,60.0,30,30,0.0,0.0
2451,49.0,30,30,0.0,0.0
2452,61.0,30,30,0.0,0.0
2453,76.0,0,60,0.0,0.0
2454,68.0,4,60,0.0,0.0
2455,49.0,26,30,0.0,0.0
2456,61.0,30,30,0.0,0.0
2457,78.0,0,60,0.0,0.0
2458,59.0,26,30,0.0,0.0
2459,74.0,4,60,0.0,0.0
2460,68.0,30,30,0.0,0.0
2461,77.0,4,60,0.0,0.0
2462,73.0,0,60,0.0,0.0
2463,59.0,26,30,0.0,0.0
2464,68.0,30,30,0.0,0.0
2465,58.0,30,30,0.0,0.0
2466,67.0,30,30,0.0,0.0
2467,82.0,0,60,0.0,0.0
2468,76.0,26,30,0.0,0.0
2469,73.0,4,60,0.0,0.0
2470,58.0,0,30,0.0,0.0
2471,67.0,30,30,0.0,0.0
2472,75.0,0,30,0.0,0.0
2473,82.0,0,60,0.0,0.0
2474,73.0,4,60,0.0,0.0
2475,76.0,0,60,0.0,0.0
2476,56.0,26,30,0.0,0.0
2477,68.0,30,30,0.0,0.0
2478,56.0,26,30,0.0,0.0
2479,73.0,0,60,0.0,0.0
2480,82.0,0,60,0.0,0.0
2481,76.0,4,60,0.0,0.0
2482,68.0,30,30,0.0,0.0
2483,76.0,11,120,0.0,0.0
2484,73.0,0,120,0.0,0.0
2485,67.0,30,30,0.0,0.0
2486,82.0,0,120,0.0,0.0
2487,68.0,30,30,0.0,0.0
2488,70.0,19,30,0.0,0.0
2489,64.0,30,30,0.0,0.0
2490,63.0,30,30,0.0,0.0
2491,76.0,0,30,0.0,0.0
2492,61.0,30,30,0.0,0.0
2493,75.0,30,30,0.0,0.0
2494,59.0,0,30,0.0,0.0
2495,58.0,0,30,0.0,0.0
2496,73.0,30,30,0.0,0.0
2497,71.0,26,30,0.0,0.0
2498,56.0,4,60,0.0,0.0
2499,73.0,30,30,0.0,0.0
2500,75.0,26,30,0.0,0.0
2501,59.0,4,60,0.0,0.0
2502,68.0,30,30,0.0,0.0
2503,61.0,4,60,0.0,0.0
2504,71.0,26,30,0.0,0.0
2505,70.0,30,30,0.0,0.0
2506,68.0,26,30,0.0,0.0
2507,63.0,4,60,0.0,0.0
2508,67.0,30,30,0.0,0.0
2509,68.0,26,30,0.0,0.0
2510,64.0,0,60,0.0,0.0
2511,71.0,30,30,0.0,0.0
2512,68.0,26,30,0.0,0.0
2513,52.0,4,60,0.0,0.0
2514,71.0,30,30,0.0,0.0
2515,66.0,30,30,0.0,0.0
2516,75.0,30,30,0.0,0.0
2517,48.0,0,60,0.0,0.0
2518,66.0,26,30,0.0,0.0
2519,57.0,0,60,0.0,0.0
2520,51.0,4,60,0.0,0.0
2521,75.0,30,30,0.0,0.0
2522,65.0,30,30,0.0,0.0
2523,73.0,30,30,0.0,0.0
2524,56.0,4,60,0.0,0.0
2525,49.0,0,30,0.0,0.0
2526,65.0,26,30,0.0,0.0
2527,73.0,0,30,0.0,0.0
2528,51.0,30,30,0.0,0.0
2529,61.0,26,30,0.0,0.0
2530,56.0,4,60,0.0,0.0
2531,53.0,0,60,0.0,0.0
2532,71.0,30,30,0.0,0.0
2533,61.0,26,30,0.0,0.0
2534,53.0,0,60,0.0,0.0
2535,56.0,4,60,0.0,0.0
2536,71.0,30,30,0.0,0.0
2537,54.0,7,120,0.0,0.0
2538,66.0,26,30,0.0,0.0
2539,52.0,4,60,0.0,0.0
2540,70.0,30,30,0.0,0.0
2541,66.0,19,30,0.0,0.0
2542,42.0,4,60,0.0,0.0
2543,70.0,30,30,0.0,0.0
2544,64.0,30,30,0.0,0.0
2545,73.0,30,30,0.0,0.0
2546,64.0,26,30,0.0,0.0
2547,55.0,0,60,0.0,0.0
2548,46.0,0,60,0.0,0.0
2549,49.0,4,60,0.0,0.0
2550,73.0,30,30,0.0,0.0
2551,63.0,30,30,0.0,0.0
2552,71.0,30,30,0.0,0.0
2553,63.0,0,30,0.0,0.0
2554,54.0,4,60,0.0,0.0
2555,47.0,26,30,0.0,0.0
2556,71.0,30,30,0.0,0.0
2557,49.0,0,30,0.0,0.0
2558,51.0,4,60,0.0,0.0
2559,59.0,26,30,0.0,0.0
2560,54.0,0,60,0.0,0.0
2561,70.0,30,30,0.0,0.0
2562,51.0,0,60,0.0,0.0
2563,59.0,26,30,0.0,0.0
2564,54.0,4,60,0.0,0.0
2565,70.0,30,30,0.0,0.0
2566,64.0,26,30,0.0,0.0
2567,52.0,7,120,0.0,0.0
2568,51.0,4,60,0.0,0.0
2569,68.0,30,30,0.0,0.0
2570,40.0,4,60,0.0,0.0
2571,64.0,19,30,0.0,0.0
2572,68.0,30,30,0.0,0.0
2573,63.0,30,30,0.0,0.0
2574,71.0,30,30,0.0,0.0
2575,63.0,26,30,0.0,0.0
2576,54.0,0,60,0.0,0.0
2577,44.0,4,60,0.0,0.0
2578,47.0,0,60,0.0,0.0
2579,71.0,30,30,0.0,0.0
2580,62.0,30,30,0.0,0.0
2581,70.0,30,30,0.0,0.0
2582,53.0,4,60,0.0,0.0
2583,46.0,0,30,0.0,0.0
2584,62.0,26,30,0.0,0.0
2585,70.0,30,30,0.0,0.0
2586,48.0,0,30,0.0,0.0
2587,58.0,26,30,0.0,0.0
2588,53.0,0,60,0.0,0.0
2589,50.0,4,60,0.0,0.0
2590,68.0,30,30,0.0,0.0
2591,58.0,26,30,0.0,0.0
2592,52.0,4,60,0.0,0.0
2593,49.0,4,120,0.0,0.0
2594,68.0,30,30,0.0,0.0
2595,67.0,26,30,0.0,0.0
2596,51.0,0,60,0.0,0.0
2597,63.0,30,30,0.0,0.0
2598,68.0,30,30,0.0,0.0
2599,47.0,0,30,0.0,0.0
2600,49.0,0,30,0.0,0.0
2601,70.0,30,30,0.0,0.0
2602,71.0,0,60,0.0,0.0
2603,51.0,30,60,0.0,0.0
2604,63.0,30,60,0.0,0.0
2605,67.0,26,120,0.0,0.0
2606,70.0,0,120,0.0,0.0
2607,39.0,60,60,0.0,0.0
2608,61.0,0,90,0.0,0.0
2609,44.0,25,90,0.0,0.0
2610,59.0,6,60,0.0,0.0
2611,63.0,0,60,0.0,0.0
2612,68.0,0,60,0.0,0.0
2613,47.0,9,15,0.0,0.0
2614,51.0,107,15,0.0,0.0
2615,56.0,0,120,0.0,0.0
