tick,type,numerator,denominator,clocks_per_click,notated_32nd_notes_per_beat,time,meta,track,key,tempo,port,program,channel,note,velocity
0,time_signature,3,4,24,8,0,1,0,,,,,,,
0,midi_port,,,,,0,1,4,,,0,,,,
0,end_of_track,,,,,0,1,3,,,,,,,
0,track_name,,,,,0,1,3,,,,,,,
0,midi_port,,,,,0,1,3,,,0,,,,
0,end_of_track,,,,,0,1,2,,,,,,,
0,track_name,,,,,0,1,2,,,,,,,
0,midi_port,,,,,0,1,2,,,0,,,,
0,track_name,,,,,0,1,4,,,,,,,
0,program_change,,,,,0,0,1,,,,6,0,,
0,track_name,,,,,0,1,1,,,,,,,
0,midi_port,,,,,0,1,1,,,0,,,,
0,end_of_track,,,,,0,1,4,,,,,,,
0,key_signature,,,,,0,1,0,Bb,,,,,,
0,set_tempo,,,,,0,1,0,,750000,,,,,
0,marker,,,,,0,1,0,,,,,,,
124,note_on,,,,,124,0,1,,,,,0,62,64
229,note_on,,,,,105,0,1,,,,,0,62,0
304,note_on,,,,,75,0,1,,,,,0,58,64
356,note_on,,,,,52,0,1,,,,,0,58,0
364,note_on,,,,,8,0,1,,,,,0,63,64
469,note_on,,,,,105,0,1,,,,,0,63,0
484,note_on,,,,,15,0,1,,,,,0,60,64
589,note_on,,,,,105,0,1,,,,,0,60,0
664,note_on,,,,,75,0,1,,,,,0,57,64
716,note_on,,,,,52,0,1,,,,,0,57,0
724,note_on,,,,,8,0,1,,,,,0,62,64
829,note_on,,,,,105,0,1,,,,,0,62,0
844,note_on,,,,,15,0,1,,,,,0,58,64
949,note_on,,,,,105,0,1,,,,,0,58,0
1024,note_on,,,,,75,0,1,,,,,0,55,64
1076,note_on,,,,,52,0,1,,,,,0,55,0
1084,note_on,,,,,8,0,1,,,,,0,60,64
1136,note_on,,,,,52,0,1,,,,,0,60,0
1144,note_on,,,,,8,0,1,,,,,0,60,64
1196,note_on,,,,,52,0,1,,,,,0,60,0
1204,note_on,,,,,8,0,1,,,,,0,60,64
1256,note_on,,,,,52,0,1,,,,,0,60,0
1264,note_on,,,,,8,0,1,,,,,0,60,64
1316,note_on,,,,,52,0,1,,,,,0,60,0
1324,note_on,,,,,8,0,1,,,,,0,60,64
1376,note_on,,,,,52,0,1,,,,,0,60,0
1384,note_on,,,,,8,0,1,,,,,0,60,64
1436,note_on,,,,,52,0,1,,,,,0,60,0
1444,note_on,,,,,8,0,1,,,,,0,60,64
1496,note_on,,,,,52,0,1,,,,,0,60,0
1504,note_on,,,,,8,0,1,,,,,0,58,64
1530,note_on,,,,,26,0,1,,,,,0,58,0
1534,note_on,,,,,4,0,1,,,,,0,57,64
1560,note_on,,,,,26,0,1,,,,,0,57,0
1564,note_on,,,,,4,0,1,,,,,0,67,64
1564,note_on,,,,,0,0,1,,,,,0,58,64
1590,note_on,,,,,26,0,1,,,,,0,58,0
1594,note_on,,,,,4,0,1,,,,,0,55,64
1620,note_on,,,,,26,0,1,,,,,0,55,0
1624,note_on,,,,,4,0,1,,,,,0,58,64
1650,note_on,,,,,26,0,1,,,,,0,58,0
1654,note_on,,,,,4,0,1,,,,,0,60,64
1669,note_on,,,,,15,0,1,,,,,0,67,0
1680,note_on,,,,,11,0,1,,,,,0,60,0
1684,note_on,,,,,4,0,1,,,,,0,62,64
1710,note_on,,,,,26,0,1,,,,,0,62,0
1714,note_on,,,,,4,0,1,,,,,0,61,64
1740,note_on,,,,,26,0,1,,,,,0,61,0
1744,note_on,,,,,4,0,1,,,,,0,65,64
1744,note_on,,,,,0,0,1,,,,,0,62,64
1796,note_on,,,,,0,0,1,,,,,0,65,0
1796,note_on,,,,,52,0,1,,,,,0,62,0
1804,note_on,,,,,8,0,1,,,,,0,70,64
1804,note_on,,,,,0,0,1,,,,,0,62,64
1843,note_on,,,,,39,0,1,,,,,0,62,0
1864,note_on,,,,,21,0,1,,,,,0,55,64
1903,note_on,,,,,39,0,1,,,,,0,55,0
1909,note_on,,,,,6,0,1,,,,,0,70,0
1924,note_on,,,,,15,0,1,,,,,0,67,64
1954,note_on,,,,,30,0,1,,,,,0,55,64
1980,note_on,,,,,26,0,1,,,,,0,55,0
1984,note_on,,,,,4,0,1,,,,,0,57,64
2010,note_on,,,,,26,0,1,,,,,0,57,0
2014,note_on,,,,,4,0,1,,,,,0,58,64
2029,note_on,,,,,15,0,1,,,,,0,67,0
2040,note_on,,,,,11,0,1,,,,,0,58,0
2044,note_on,,,,,4,0,1,,,,,0,60,64
2070,note_on,,,,,26,0,1,,,,,0,60,0
2074,note_on,,,,,4,0,1,,,,,0,58,64
2100,note_on,,,,,26,0,1,,,,,0,58,0
2104,note_on,,,,,4,0,1,,,,,0,64,64
2104,note_on,,,,,0,0,1,,,,,0,60,64
2156,note_on,,,,,52,0,1,,,,,0,60,0
2156,note_on,,,,,0,0,1,,,,,0,64,0
2164,note_on,,,,,8,0,1,,,,,0,69,64
2164,note_on,,,,,0,0,1,,,,,0,60,64
2203,note_on,,,,,39,0,1,,,,,0,60,0
2224,note_on,,,,,21,0,1,,,,,0,53,64
2259,note_on,,,,,35,0,1,,,,,0,53,0
2269,note_on,,,,,10,0,1,,,,,0,69,0
2284,note_on,,,,,15,0,1,,,,,0,65,64
2314,note_on,,,,,30,0,1,,,,,0,53,64
2340,note_on,,,,,26,0,1,,,,,0,53,0
2344,note_on,,,,,4,0,1,,,,,0,55,64
2370,note_on,,,,,26,0,1,,,,,0,55,0
2374,note_on,,,,,4,0,1,,,,,0,57,64
2389,note_on,,,,,15,0,1,,,,,0,65,0
2400,note_on,,,,,11,0,1,,,,,0,57,0
2404,note_on,,,,,4,0,1,,,,,0,58,64
2430,note_on,,,,,26,0,1,,,,,0,58,0
2434,note_on,,,,,4,0,1,,,,,0,57,64
2460,note_on,,,,,26,0,1,,,,,0,57,0
2464,note_on,,,,,4,0,1,,,,,0,62,64
2464,note_on,,,,,0,0,1,,,,,0,58,64
2516,note_on,,,,,52,0,1,,,,,0,62,0
2524,note_on,,,,,8,0,1,,,,,0,67,64
2550,note_on,,,,,26,0,1,,,,,0,58,0
2554,note_on,,,,,4,0,1,,,,,0,57,64
2576,note_on,,,,,22,0,1,,,,,0,67,0
2580,note_on,,,,,4,0,1,,,,,0,57,0
2584,note_on,,,,,4,0,1,,,,,0,67,64
2584,note_on,,,,,0,0,1,,,,,0,58,64
2610,note_on,,,,,26,0,1,,,,,0,58,0
2614,note_on,,,,,4,0,1,,,,,0,57,64
2636,note_on,,,,,22,0,1,,,,,0,67,0
2640,note_on,,,,,4,0,1,,,,,0,57,0
2644,note_on,,,,,4,0,1,,,,,0,67,64
2644,note_on,,,,,0,0,1,,,,,0,55,64
2670,note_on,,,,,26,0,1,,,,,0,55,0
2674,note_on,,,,,4,0,1,,,,,0,53,64
2696,note_on,,,,,22,0,1,,,,,0,67,0
2700,note_on,,,,,4,0,1,,,,,0,53,0
2704,note_on,,,,,4,0,1,,,,,0,67,64
2704,note_on,,,,,0,0,1,,,,,0,55,64
2730,note_on,,,,,26,0,1,,,,,0,55,0
2734,note_on,,,,,4,0,1,,,,,0,53,64
2756,note_on,,,,,22,0,1,,,,,0,67,0
2760,note_on,,,,,4,0,1,,,,,0,53,0
2764,note_on,,,,,4,0,1,,,,,0,67,64
2764,note_on,,,,,0,0,1,,,,,0,52,64
2790,note_on,,,,,26,0,1,,,,,0,52,0
2794,note_on,,,,,4,0,1,,,,,0,50,64
2816,note_on,,,,,22,0,1,,,,,0,67,0
2820,note_on,,,,,4,0,1,,,,,0,50,0
2824,note_on,,,,,4,0,1,,,,,0,67,64
2824,note_on,,,,,0,0,1,,,,,0,52,64
2850,note_on,,,,,26,0,1,,,,,0,52,0
2854,note_on,,,,,4,0,1,,,,,0,50,64
2876,note_on,,,,,22,0,1,,,,,0,67,0
2880,note_on,,,,,4,0,1,,,,,0,50,0
2884,note_on,,,,,4,0,1,,,,,0,67,64
2884,note_on,,,,,0,0,1,,,,,0,49,64
2923,note_on,,,,,39,0,1,,,,,0,49,0
2936,note_on,,,,,13,0,1,,,,,0,67,0
2944,note_on,,,,,8,0,1,,,,,0,65,64
2944,note_on,,,,,0,0,1,,,,,0,57,64
2970,note_on,,,,,26,0,1,,,,,0,65,0
2974,note_on,,,,,4,0,1,,,,,0,64,64
2983,note_on,,,,,9,0,1,,,,,0,57,0
3000,note_on,,,,,17,0,1,,,,,0,64,0
3004,note_on,,,,,0,0,1,,,,,0,65,64
3004,note_on,,,,,0,0,1,,,,,0,50,64
3004,note_on,,,,,4,0,1,,,,,0,74,64
3030,note_on,,,,,26,0,1,,,,,0,65,0
3034,note_on,,,,,4,0,1,,,,,0,62,64
3043,note_on,,,,,9,0,1,,,,,0,50,0
3060,note_on,,,,,17,0,1,,,,,0,62,0
3064,note_on,,,,,0,0,1,,,,,0,60,64
3064,note_on,,,,,4,0,1,,,,,0,64,64
3090,note_on,,,,,26,0,1,,,,,0,64,0
3094,note_on,,,,,4,0,1,,,,,0,66,64
3103,note_on,,,,,9,0,1,,,,,0,60,0
3109,note_on,,,,,6,0,1,,,,,0,74,0
3120,note_on,,,,,11,0,1,,,,,0,66,0
3124,note_on,,,,,4,0,1,,,,,0,67,64
3124,note_on,,,,,0,0,1,,,,,0,58,64
3150,note_on,,,,,26,0,1,,,,,0,67,0
3154,note_on,,,,,4,0,1,,,,,0,66,64
3167,note_on,,,,,13,0,1,,,,,0,58,0
3180,note_on,,,,,13,0,1,,,,,0,66,0
3184,note_on,,,,,4,0,1,,,,,0,70,64
3184,note_on,,,,,0,0,1,,,,,0,67,64
3184,note_on,,,,,0,0,1,,,,,0,55,64
3227,note_on,,,,,43,0,1,,,,,0,55,0
3236,note_on,,,,,0,0,1,,,,,0,70,0
3236,note_on,,,,,9,0,1,,,,,0,67,0
3244,note_on,,,,,8,0,1,,,,,0,75,64
3244,note_on,,,,,0,0,1,,,,,0,60,64
3244,note_on,,,,,0,0,1,,,,,0,67,64
3270,note_on,,,,,26,0,1,,,,,0,60,0
3274,note_on,,,,,4,0,1,,,,,0,58,64
3296,note_on,,,,,22,0,1,,,,,0,67,0
3300,note_on,,,,,4,0,1,,,,,0,58,0
3304,note_on,,,,,0,0,1,,,,,0,60,64
3304,note_on,,,,,4,0,1,,,,,0,60,64
3330,note_on,,,,,26,0,1,,,,,0,60,0
3334,note_on,,,,,4,0,1,,,,,0,58,64
3349,note_on,,,,,15,0,1,,,,,0,75,0
3356,note_on,,,,,7,0,1,,,,,0,60,0
3360,note_on,,,,,4,0,1,,,,,0,58,0
3364,note_on,,,,,0,0,1,,,,,0,57,64
3364,note_on,,,,,4,0,1,,,,,0,72,64
3394,note_on,,,,,30,0,1,,,,,0,60,64
3420,note_on,,,,,26,0,1,,,,,0,60,0
3424,note_on,,,,,4,0,1,,,,,0,62,64
3442,note_on,,,,,18,0,1,,,,,0,57,0
3450,note_on,,,,,8,0,1,,,,,0,62,0
3454,note_on,,,,,4,0,1,,,,,0,63,64
3454,note_on,,,,,0,0,1,,,,,0,55,64
3469,note_on,,,,,15,0,1,,,,,0,72,0
3480,note_on,,,,,11,0,1,,,,,0,55,0
3480,note_on,,,,,0,0,1,,,,,0,63,0
3484,note_on,,,,,4,0,1,,,,,0,65,64
3484,note_on,,,,,0,0,1,,,,,0,57,64
3510,note_on,,,,,26,0,1,,,,,0,65,0
3514,note_on,,,,,4,0,1,,,,,0,63,64
3536,note_on,,,,,22,0,1,,,,,0,57,0
3540,note_on,,,,,4,0,1,,,,,0,63,0
3544,note_on,,,,,4,0,1,,,,,0,69,64
3544,note_on,,,,,0,0,1,,,,,0,65,64
3544,note_on,,,,,0,0,1,,,,,0,53,64
3596,note_on,,,,,52,0,1,,,,,0,53,0
3596,note_on,,,,,0,0,1,,,,,0,65,0
3596,note_on,,,,,0,0,1,,,,,0,69,0
3604,note_on,,,,,0,0,1,,,,,0,58,64
3604,note_on,,,,,0,0,1,,,,,0,65,64
3604,note_on,,,,,8,0,1,,,,,0,74,64
3630,note_on,,,,,26,0,1,,,,,0,58,0
3634,note_on,,,,,4,0,1,,,,,0,57,64
3656,note_on,,,,,22,0,1,,,,,0,65,0
3660,note_on,,,,,4,0,1,,,,,0,57,0
3664,note_on,,,,,0,0,1,,,,,0,58,64
3664,note_on,,,,,4,0,1,,,,,0,58,64
3690,note_on,,,,,26,0,1,,,,,0,58,0
3694,note_on,,,,,4,0,1,,,,,0,57,64
3709,note_on,,,,,15,0,1,,,,,0,74,0
3716,note_on,,,,,7,0,1,,,,,0,58,0
3720,note_on,,,,,4,0,1,,,,,0,57,0
3724,note_on,,,,,4,0,1,,,,,0,70,64
3724,note_on,,,,,0,0,1,,,,,0,55,64
3754,note_on,,,,,30,0,1,,,,,0,58,64
3776,note_on,,,,,22,0,1,,,,,0,55,0
3780,note_on,,,,,4,0,1,,,,,0,58,0
3784,note_on,,,,,4,0,1,,,,,0,60,64
3784,note_on,,,,,0,0,1,,,,,0,57,64
3810,note_on,,,,,26,0,1,,,,,0,57,0
3810,note_on,,,,,0,0,1,,,,,0,60,0
3814,note_on,,,,,4,0,1,,,,,0,62,64
3814,note_on,,,,,0,0,1,,,,,0,58,64
3829,note_on,,,,,15,0,1,,,,,0,70,0
3840,note_on,,,,,11,0,1,,,,,0,58,0
3840,note_on,,,,,0,0,1,,,,,0,62,0
3844,note_on,,,,,4,0,1,,,,,0,63,64
3844,note_on,,,,,0,0,1,,,,,0,60,64
3870,note_on,,,,,26,0,1,,,,,0,63,0
3874,note_on,,,,,4,0,1,,,,,0,62,64
3900,note_on,,,,,26,0,1,,,,,0,62,0
3904,note_on,,,,,4,0,1,,,,,0,67,64
3904,note_on,,,,,0,0,1,,,,,0,63,64
3922,note_on,,,,,18,0,1,,,,,0,60,0
3934,note_on,,,,,12,0,1,,,,,0,58,64
3956,note_on,,,,,22,0,1,,,,,0,67,0
3960,note_on,,,,,4,0,1,,,,,0,58,0
3964,note_on,,,,,0,0,1,,,,,0,57,64
3964,note_on,,,,,4,0,1,,,,,0,72,64
3990,note_on,,,,,26,0,1,,,,,0,63,0
3994,note_on,,,,,4,0,1,,,,,0,62,64
4016,note_on,,,,,22,0,1,,,,,0,72,0
4020,note_on,,,,,4,0,1,,,,,0,62,0
4024,note_on,,,,,4,0,1,,,,,0,72,64
4024,note_on,,,,,0,0,1,,,,,0,63,64
4050,note_on,,,,,26,0,1,,,,,0,63,0
4054,note_on,,,,,4,0,1,,,,,0,62,64
4069,note_on,,,,,15,0,1,,,,,0,57,0
4076,note_on,,,,,7,0,1,,,,,0,72,0
4080,note_on,,,,,4,0,1,,,,,0,62,0
4084,note_on,,,,,4,0,1,,,,,0,72,64
4084,note_on,,,,,0,0,1,,,,,0,60,64
4110,note_on,,,,,26,0,1,,,,,0,60,0
4114,note_on,,,,,4,0,1,,,,,0,58,64
4136,note_on,,,,,22,0,1,,,,,0,72,0
4140,note_on,,,,,4,0,1,,,,,0,58,0
4144,note_on,,,,,4,0,1,,,,,0,72,64
4144,note_on,,,,,0,0,1,,,,,0,60,64
4144,note_on,,,,,0,0,1,,,,,0,55,64
4170,note_on,,,,,26,0,1,,,,,0,60,0
4174,note_on,,,,,4,0,1,,,,,0,58,64
4179,note_on,,,,,5,0,1,,,,,0,55,0
4196,note_on,,,,,17,0,1,,,,,0,72,0
4200,note_on,,,,,4,0,1,,,,,0,58,0
4204,note_on,,,,,0,0,1,,,,,0,57,64
4204,note_on,,,,,0,0,1,,,,,0,54,64
4204,note_on,,,,,4,0,1,,,,,0,72,64
4230,note_on,,,,,26,0,1,,,,,0,57,0
4234,note_on,,,,,4,0,1,,,,,0,55,64
4243,note_on,,,,,9,0,1,,,,,0,54,0
4256,note_on,,,,,13,0,1,,,,,0,72,0
4260,note_on,,,,,4,0,1,,,,,0,55,0
4264,note_on,,,,,4,0,1,,,,,0,72,64
4264,note_on,,,,,0,0,1,,,,,0,57,64
4264,note_on,,,,,0,0,1,,,,,0,52,64
4290,note_on,,,,,26,0,1,,,,,0,57,0
4294,note_on,,,,,4,0,1,,,,,0,55,64
4303,note_on,,,,,9,0,1,,,,,0,52,0
4316,note_on,,,,,13,0,1,,,,,0,72,0
4320,note_on,,,,,4,0,1,,,,,0,55,0
4324,note_on,,,,,4,0,1,,,,,0,72,64
4324,note_on,,,,,0,0,1,,,,,0,54,64
4324,note_on,,,,,0,0,1,,,,,0,50,64
4363,note_on,,,,,39,0,1,,,,,0,50,0
4376,note_on,,,,,13,0,1,,,,,0,54,0
4376,note_on,,,,,0,0,1,,,,,0,72,0
4384,note_on,,,,,0,0,1,,,,,0,54,64
4384,note_on,,,,,8,0,1,,,,,0,70,64
4384,note_on,,,,,0,0,1,,,,,0,62,64
4410,note_on,,,,,26,0,1,,,,,0,70,0
4414,note_on,,,,,4,0,1,,,,,0,69,64
4436,note_on,,,,,22,0,1,,,,,0,54,0
4440,note_on,,,,,4,0,1,,,,,0,69,0
4444,note_on,,,,,4,0,1,,,,,0,70,64
4444,note_on,,,,,0,0,1,,,,,0,55,64
4444,note_on,,,,,0,0,1,,,,,0,55,64
4470,note_on,,,,,26,0,1,,,,,0,70,0
4474,note_on,,,,,4,0,1,,,,,0,67,64
4496,note_on,,,,,0,0,1,,,,,0,55,0
4496,note_on,,,,,22,0,1,,,,,0,62,0
4500,note_on,,,,,4,0,1,,,,,0,67,0
4504,note_on,,,,,0,0,1,,,,,0,62,64
4504,note_on,,,,,4,0,1,,,,,0,70,64
4504,note_on,,,,,0,0,1,,,,,0,67,64
4530,note_on,,,,,0,0,1,,,,,0,70,0
4530,note_on,,,,,26,0,1,,,,,0,62,0
4534,note_on,,,,,4,0,1,,,,,0,72,64
4534,note_on,,,,,0,0,1,,,,,0,64,64
4549,note_on,,,,,15,0,1,,,,,0,55,0
4556,note_on,,,,,7,0,1,,,,,0,67,0
4560,note_on,,,,,4,0,1,,,,,0,72,0
4560,note_on,,,,,0,0,1,,,,,0,64,0
4564,note_on,,,,,4,0,1,,,,,0,74,64
4564,note_on,,,,,0,0,1,,,,,0,65,64
4590,note_on,,,,,0,0,1,,,,,0,74,0
4590,note_on,,,,,26,0,1,,,,,0,65,0
4594,note_on,,,,,0,0,1,,,,,0,64,64
4594,note_on,,,,,4,0,1,,,,,0,73,64
4620,note_on,,,,,26,0,1,,,,,0,64,0
4620,note_on,,,,,0,0,1,,,,,0,73,0
4624,note_on,,,,,4,0,1,,,,,0,74,64
4624,note_on,,,,,0,0,1,,,,,0,65,64
4624,note_on,,,,,0,0,1,,,,,0,53,64
4654,note_on,,,,,30,0,1,,,,,0,69,64
4676,note_on,,,,,22,0,1,,,,,0,53,0
4676,note_on,,,,,0,0,1,,,,,0,74,0
4676,note_on,,,,,0,0,1,,,,,0,65,0
4684,note_on,,,,,8,0,1,,,,,0,74,64
4684,note_on,,,,,0,0,1,,,,,0,62,64
4684,note_on,,,,,0,0,1,,,,,0,58,64
4710,note_on,,,,,26,0,1,,,,,0,69,0
4714,note_on,,,,,4,0,1,,,,,0,69,64
4736,note_on,,,,,22,0,1,,,,,0,74,0
4740,note_on,,,,,4,0,1,,,,,0,69,0
4744,note_on,,,,,0,0,1,,,,,0,67,64
4744,note_on,,,,,4,0,1,,,,,0,67,64
4770,note_on,,,,,26,0,1,,,,,0,67,0
4774,note_on,,,,,4,0,1,,,,,0,65,64
4789,note_on,,,,,15,0,1,,,,,0,58,0
4796,note_on,,,,,7,0,1,,,,,0,67,0
4800,note_on,,,,,4,0,1,,,,,0,65,0
4804,note_on,,,,,4,0,1,,,,,0,64,64
4804,note_on,,,,,0,0,1,,,,,0,55,64
4834,note_on,,,,,30,0,1,,,,,0,67,64
4856,note_on,,,,,22,0,1,,,,,0,62,0
4860,note_on,,,,,4,0,1,,,,,0,67,0
4864,note_on,,,,,0,0,1,,,,,0,60,64
4864,note_on,,,,,4,0,1,,,,,0,69,64
4890,note_on,,,,,26,0,1,,,,,0,60,0
4890,note_on,,,,,0,0,1,,,,,0,69,0
4894,note_on,,,,,4,0,1,,,,,0,70,64
4894,note_on,,,,,0,0,1,,,,,0,58,64
4909,note_on,,,,,15,0,1,,,,,0,55,0
4909,note_on,,,,,0,0,1,,,,,0,64,0
4920,note_on,,,,,0,0,1,,,,,0,58,0
4920,note_on,,,,,11,0,1,,,,,0,70,0
4924,note_on,,,,,0,0,1,,,,,0,57,64
4924,note_on,,,,,4,0,1,,,,,0,72,64
4950,note_on,,,,,26,0,1,,,,,0,72,0
4954,note_on,,,,,4,0,1,,,,,0,70,64
4976,note_on,,,,,22,0,1,,,,,0,57,0
4980,note_on,,,,,4,0,1,,,,,0,70,0
4984,note_on,,,,,0,0,1,,,,,0,55,64
4984,note_on,,,,,4,0,1,,,,,0,72,64
4984,note_on,,,,,0,0,1,,,,,0,52,64
5014,note_on,,,,,30,0,1,,,,,0,67,64
5036,note_on,,,,,0,0,1,,,,,0,72,0
5036,note_on,,,,,0,0,1,,,,,0,55,0
5036,note_on,,,,,22,0,1,,,,,0,52,0
5044,note_on,,,,,8,0,1,,,,,0,72,64
5044,note_on,,,,,0,0,1,,,,,0,57,64
5044,note_on,,,,,0,0,1,,,,,0,60,64
5070,note_on,,,,,26,0,1,,,,,0,67,0
5074,note_on,,,,,4,0,1,,,,,0,67,64
5096,note_on,,,,,22,0,1,,,,,0,72,0
5100,note_on,,,,,4,0,1,,,,,0,67,0
5104,note_on,,,,,0,0,1,,,,,0,65,64
5104,note_on,,,,,4,0,1,,,,,0,65,64
5130,note_on,,,,,26,0,1,,,,,0,65,0
5134,note_on,,,,,4,0,1,,,,,0,64,64
5149,note_on,,,,,15,0,1,,,,,0,57,0
5156,note_on,,,,,7,0,1,,,,,0,65,0
5160,note_on,,,,,4,0,1,,,,,0,64,0
5164,note_on,,,,,4,0,1,,,,,0,62,64
5164,note_on,,,,,0,0,1,,,,,0,53,64
5194,note_on,,,,,30,0,1,,,,,0,65,64
5216,note_on,,,,,22,0,1,,,,,0,60,0
5220,note_on,,,,,4,0,1,,,,,0,65,0
5224,note_on,,,,,4,0,1,,,,,0,67,64
5224,note_on,,,,,0,0,1,,,,,0,58,64
5250,note_on,,,,,26,0,1,,,,,0,58,0
5250,note_on,,,,,0,0,1,,,,,0,67,0
5254,note_on,,,,,4,0,1,,,,,0,69,64
5254,note_on,,,,,0,0,1,,,,,0,57,64
5269,note_on,,,,,15,0,1,,,,,0,53,0
5269,note_on,,,,,0,0,1,,,,,0,62,0
5280,note_on,,,,,11,0,1,,,,,0,69,0
5280,note_on,,,,,0,0,1,,,,,0,57,0
5284,note_on,,,,,0,0,1,,,,,0,55,64
5284,note_on,,,,,4,0,1,,,,,0,70,64
5310,note_on,,,,,26,0,1,,,,,0,70,0
5314,note_on,,,,,4,0,1,,,,,0,69,64
5336,note_on,,,,,22,0,1,,,,,0,55,0
5340,note_on,,,,,4,0,1,,,,,0,69,0
5344,note_on,,,,,0,0,1,,,,,0,50,64
5344,note_on,,,,,4,0,1,,,,,0,70,64
5344,note_on,,,,,0,0,1,,,,,0,53,64
5374,note_on,,,,,30,0,1,,,,,0,65,64
5396,note_on,,,,,0,0,1,,,,,0,53,0
5396,note_on,,,,,22,0,1,,,,,0,50,0
5400,note_on,,,,,4,0,1,,,,,0,65,0
5404,note_on,,,,,4,0,1,,,,,0,64,64
5404,note_on,,,,,0,0,1,,,,,0,58,64
5404,note_on,,,,,0,0,1,,,,,0,55,64
5430,note_on,,,,,26,0,1,,,,,0,70,0
5434,note_on,,,,,4,0,1,,,,,0,69,64
5456,note_on,,,,,22,0,1,,,,,0,55,0
5460,note_on,,,,,4,0,1,,,,,0,69,0
5464,note_on,,,,,0,0,1,,,,,0,55,64
5464,note_on,,,,,4,0,1,,,,,0,70,64
5482,note_on,,,,,18,0,1,,,,,0,64,0
5490,note_on,,,,,8,0,1,,,,,0,70,0
5494,note_on,,,,,4,0,1,,,,,0,69,64
5494,note_on,,,,,0,0,1,,,,,0,65,64
5509,note_on,,,,,15,0,1,,,,,0,58,0
5516,note_on,,,,,7,0,1,,,,,0,55,0
5520,note_on,,,,,4,0,1,,,,,0,69,0
5520,note_on,,,,,0,0,1,,,,,0,65,0
5524,note_on,,,,,0,0,1,,,,,0,55,64
5524,note_on,,,,,4,0,1,,,,,0,67,64
5524,note_on,,,,,0,0,1,,,,,0,64,64
5550,note_on,,,,,26,0,1,,,,,0,67,0
5554,note_on,,,,,4,0,1,,,,,0,65,64
5576,note_on,,,,,22,0,1,,,,,0,55,0
5580,note_on,,,,,4,0,1,,,,,0,65,0
5584,note_on,,,,,4,0,1,,,,,0,67,64
5584,note_on,,,,,0,0,1,,,,,0,55,64
5602,note_on,,,,,18,0,1,,,,,0,64,0
5610,note_on,,,,,8,0,1,,,,,0,67,0
5614,note_on,,,,,4,0,1,,,,,0,65,64
5614,note_on,,,,,0,0,1,,,,,0,62,64
5636,note_on,,,,,22,0,1,,,,,0,55,0
5640,note_on,,,,,4,0,1,,,,,0,62,0
5640,note_on,,,,,0,0,1,,,,,0,65,0
5644,note_on,,,,,0,0,1,,,,,0,61,64
5644,note_on,,,,,4,0,1,,,,,0,64,64
5644,note_on,,,,,0,0,1,,,,,0,55,64
5670,note_on,,,,,26,0,1,,,,,0,64,0
5674,note_on,,,,,4,0,1,,,,,0,62,64
5696,note_on,,,,,22,0,1,,,,,0,55,0
5700,note_on,,,,,4,0,1,,,,,0,62,0
5704,note_on,,,,,4,0,1,,,,,0,64,64
5704,note_on,,,,,0,0,1,,,,,0,55,64
5722,note_on,,,,,18,0,1,,,,,0,61,0
5730,note_on,,,,,8,0,1,,,,,0,64,0
5734,note_on,,,,,4,0,1,,,,,0,62,64
5734,note_on,,,,,0,0,1,,,,,0,62,64
5756,note_on,,,,,22,0,1,,,,,0,55,0
5760,note_on,,,,,0,0,1,,,,,0,62,0
5760,note_on,,,,,4,0,1,,,,,0,62,0
5764,note_on,,,,,4,0,1,,,,,0,61,64
5764,note_on,,,,,0,0,1,,,,,0,57,64
5764,note_on,,,,,0,0,1,,,,,0,55,64
5816,note_on,,,,,52,0,1,,,,,0,55,0
5816,note_on,,,,,0,0,1,,,,,0,61,0
5824,note_on,,,,,8,0,1,,,,,0,69,64
5824,note_on,,,,,0,0,1,,,,,0,53,64
5850,note_on,,,,,26,0,1,,,,,0,53,0
5854,note_on,,,,,4,0,1,,,,,0,52,64
5869,note_on,,,,,15,0,1,,,,,0,57,0
5876,note_on,,,,,7,0,1,,,,,0,69,0
5880,note_on,,,,,4,0,1,,,,,0,52,0
5884,note_on,,,,,4,0,1,,,,,0,62,64
5884,note_on,,,,,0,0,1,,,,,0,53,64
5910,note_on,,,,,26,0,1,,,,,0,53,0
5914,note_on,,,,,4,0,1,,,,,0,50,64
5936,note_on,,,,,22,0,1,,,,,0,62,0
5940,note_on,,,,,4,0,1,,,,,0,50,0
5944,note_on,,,,,0,0,1,,,,,0,51,64
5944,note_on,,,,,4,0,1,,,,,0,72,64
5970,note_on,,,,,26,0,1,,,,,0,51,0
5974,note_on,,,,,4,0,1,,,,,0,53,64
5996,note_on,,,,,22,0,1,,,,,0,72,0
6000,note_on,,,,,4,0,1,,,,,0,53,0
6004,note_on,,,,,4,0,1,,,,,0,71,64
6004,note_on,,,,,0,0,1,,,,,0,55,64
6030,note_on,,,,,26,0,1,,,,,0,55,0
6030,note_on,,,,,0,0,1,,,,,0,71,0
6034,note_on,,,,,4,0,1,,,,,0,74,64
6034,note_on,,,,,0,0,1,,,,,0,53,64
6060,note_on,,,,,0,0,1,,,,,0,74,0
6060,note_on,,,,,26,0,1,,,,,0,53,0
6064,note_on,,,,,4,0,1,,,,,0,77,64
6064,note_on,,,,,0,0,1,,,,,0,55,64
6094,note_on,,,,,30,0,1,,,,,0,74,64
6116,note_on,,,,,22,0,1,,,,,0,55,0
6116,note_on,,,,,0,0,1,,,,,0,77,0
6124,note_on,,,,,8,0,1,,,,,0,75,64
6124,note_on,,,,,0,0,1,,,,,0,48,64
6150,note_on,,,,,26,0,1,,,,,0,48,0
6154,note_on,,,,,4,0,1,,,,,0,47,64
6176,note_on,,,,,22,0,1,,,,,0,74,0
6180,note_on,,,,,4,0,1,,,,,0,47,0
6184,note_on,,,,,4,0,1,,,,,0,67,64
6184,note_on,,,,,0,0,1,,,,,0,48,64
6210,note_on,,,,,26,0,1,,,,,0,48,0
6214,note_on,,,,,4,0,1,,,,,0,50,64
6229,note_on,,,,,15,0,1,,,,,0,75,0
6236,note_on,,,,,7,0,1,,,,,0,67,0
6240,note_on,,,,,4,0,1,,,,,0,50,0
6244,note_on,,,,,4,0,1,,,,,0,60,64
6244,note_on,,,,,0,0,1,,,,,0,51,64
6270,note_on,,,,,26,0,1,,,,,0,51,0
6274,note_on,,,,,4,0,1,,,,,0,48,64
6296,note_on,,,,,22,0,1,,,,,0,60,0
6300,note_on,,,,,4,0,1,,,,,0,48,0
6304,note_on,,,,,4,0,1,,,,,0,70,64
6304,note_on,,,,,0,0,1,,,,,0,50,64
6330,note_on,,,,,26,0,1,,,,,0,50,0
6334,note_on,,,,,4,0,1,,,,,0,51,64
6356,note_on,,,,,22,0,1,,,,,0,70,0
6360,note_on,,,,,4,0,1,,,,,0,51,0
6364,note_on,,,,,4,0,1,,,,,0,69,64
6364,note_on,,,,,0,0,1,,,,,0,53,64
6390,note_on,,,,,26,0,1,,,,,0,53,0
6390,note_on,,,,,0,0,1,,,,,0,69,0
6394,note_on,,,,,4,0,1,,,,,0,72,64
6394,note_on,,,,,0,0,1,,,,,0,51,64
6420,note_on,,,,,26,0,1,,,,,0,51,0
6420,note_on,,,,,0,0,1,,,,,0,72,0
6424,note_on,,,,,0,0,1,,,,,0,53,64
6424,note_on,,,,,4,0,1,,,,,0,75,64
6454,note_on,,,,,30,0,1,,,,,0,81,64
6476,note_on,,,,,22,0,1,,,,,0,53,0
6480,note_on,,,,,4,0,1,,,,,0,81,0
6484,note_on,,,,,4,0,1,,,,,0,82,64
6484,note_on,,,,,0,0,1,,,,,0,46,64
6510,note_on,,,,,26,0,1,,,,,0,46,0
6514,note_on,,,,,4,0,1,,,,,0,53,64
6536,note_on,,,,,22,0,1,,,,,0,75,0
6540,note_on,,,,,4,0,1,,,,,0,53,0
6544,note_on,,,,,4,0,1,,,,,0,74,64
6544,note_on,,,,,0,0,1,,,,,0,55,64
6562,note_on,,,,,18,0,1,,,,,0,82,0
6570,note_on,,,,,8,0,1,,,,,0,55,0
6574,note_on,,,,,4,0,1,,,,,0,81,64
6574,note_on,,,,,0,0,1,,,,,0,57,64
6596,note_on,,,,,22,0,1,,,,,0,74,0
6600,note_on,,,,,4,0,1,,,,,0,57,0
6600,note_on,,,,,0,0,1,,,,,0,81,0
6604,note_on,,,,,4,0,1,,,,,0,79,64
6604,note_on,,,,,0,0,1,,,,,0,58,64
6630,note_on,,,,,26,0,1,,,,,0,58,0
6630,note_on,,,,,0,0,1,,,,,0,79,0
6634,note_on,,,,,4,0,1,,,,,0,78,64
6634,note_on,,,,,0,0,1,,,,,0,57,64
6660,note_on,,,,,26,0,1,,,,,0,57,0
6660,note_on,,,,,0,0,1,,,,,0,78,0
6664,note_on,,,,,0,0,1,,,,,0,58,64
6664,note_on,,,,,4,0,1,,,,,0,79,64
6690,note_on,,,,,26,0,1,,,,,0,79,0
6694,note_on,,,,,4,0,1,,,,,0,78,64
6716,note_on,,,,,22,0,1,,,,,0,58,0
6720,note_on,,,,,4,0,1,,,,,0,78,0
6724,note_on,,,,,4,0,1,,,,,0,79,64
6754,note_on,,,,,30,0,1,,,,,0,52,64
6780,note_on,,,,,26,0,1,,,,,0,52,0
6784,note_on,,,,,4,0,1,,,,,0,54,64
6810,note_on,,,,,26,0,1,,,,,0,54,0
6814,note_on,,,,,4,0,1,,,,,0,74,64
6814,note_on,,,,,0,0,1,,,,,0,55,64
6840,note_on,,,,,26,0,1,,,,,0,55,0
6840,note_on,,,,,0,0,1,,,,,0,74,0
6844,note_on,,,,,4,0,1,,,,,0,72,64
6844,note_on,,,,,0,0,1,,,,,0,57,64
6870,note_on,,,,,26,0,1,,,,,0,57,0
6870,note_on,,,,,0,0,1,,,,,0,72,0
6874,note_on,,,,,0,0,1,,,,,0,55,64
6874,note_on,,,,,4,0,1,,,,,0,70,64
6900,note_on,,,,,26,0,1,,,,,0,55,0
6900,note_on,,,,,0,0,1,,,,,0,70,0
6904,note_on,,,,,4,0,1,,,,,0,72,64
6904,note_on,,,,,0,0,1,,,,,0,57,64
6930,note_on,,,,,26,0,1,,,,,0,72,0
6934,note_on,,,,,4,0,1,,,,,0,70,64
6949,note_on,,,,,15,0,1,,,,,0,79,0
6956,note_on,,,,,7,0,1,,,,,0,57,0
6960,note_on,,,,,4,0,1,,,,,0,70,0
6964,note_on,,,,,0,0,1,,,,,0,62,64
6964,note_on,,,,,4,0,1,,,,,0,78,64
6964,note_on,,,,,0,0,1,,,,,0,72,64
6994,note_on,,,,,30,0,1,,,,,0,50,64
7020,note_on,,,,,26,0,1,,,,,0,50,0
7024,note_on,,,,,4,0,1,,,,,0,52,64
7042,note_on,,,,,18,0,1,,,,,0,78,0
7042,note_on,,,,,0,0,1,,,,,0,72,0
7050,note_on,,,,,8,0,1,,,,,0,52,0
7054,note_on,,,,,4,0,1,,,,,0,81,64
7054,note_on,,,,,0,0,1,,,,,0,72,64
7054,note_on,,,,,0,0,1,,,,,0,54,64
7069,note_on,,,,,15,0,1,,,,,0,62,0
7080,note_on,,,,,11,0,1,,,,,0,81,0
7080,note_on,,,,,0,0,1,,,,,0,72,0
7080,note_on,,,,,0,0,1,,,,,0,54,0
7084,note_on,,,,,0,0,1,,,,,0,70,64
7084,note_on,,,,,0,0,1,,,,,0,55,64
7084,note_on,,,,,4,0,1,,,,,0,74,64
7110,note_on,,,,,0,0,1,,,,,0,70,0
7110,note_on,,,,,26,0,1,,,,,0,55,0
7114,note_on,,,,,4,0,1,,,,,0,69,64
7114,note_on,,,,,0,0,1,,,,,0,54,64
7140,note_on,,,,,0,0,1,,,,,0,69,0
7140,note_on,,,,,26,0,1,,,,,0,54,0
7144,note_on,,,,,4,0,1,,,,,0,70,64
7144,note_on,,,,,0,0,1,,,,,0,58,64
7144,note_on,,,,,0,0,1,,,,,0,55,64
7162,note_on,,,,,18,0,1,,,,,0,74,0
7170,note_on,,,,,8,0,1,,,,,0,70,0
7174,note_on,,,,,4,0,1,,,,,0,72,64
7174,note_on,,,,,0,0,1,,,,,0,69,64
7196,note_on,,,,,0,0,1,,,,,0,55,0
7196,note_on,,,,,22,0,1,,,,,0,58,0
7200,note_on,,,,,0,0,1,,,,,0,69,0
7200,note_on,,,,,4,0,1,,,,,0,72,0
7204,note_on,,,,,4,0,1,,,,,0,70,64
7204,note_on,,,,,0,0,1,,,,,0,67,64
7204,note_on,,,,,0,0,1,,,,,0,63,64
7204,note_on,,,,,0,0,1,,,,,0,55,64
7230,note_on,,,,,26,0,1,,,,,0,67,0
7234,note_on,,,,,4,0,1,,,,,0,65,64
7256,note_on,,,,,22,0,1,,,,,0,55,0
7260,note_on,,,,,4,0,1,,,,,0,65,0
7264,note_on,,,,,0,0,1,,,,,0,48,64
7264,note_on,,,,,4,0,1,,,,,0,67,64
7290,note_on,,,,,26,0,1,,,,,0,67,0
7294,note_on,,,,,4,0,1,,,,,0,65,64
7309,note_on,,,,,15,0,1,,,,,0,63,0
7316,note_on,,,,,7,0,1,,,,,0,48,0
7320,note_on,,,,,4,0,1,,,,,0,65,0
7324,note_on,,,,,4,0,1,,,,,0,65,64
7324,note_on,,,,,0,0,1,,,,,0,60,64
7344,note_on,,,,,20,0,1,,,,,0,63,64
7351,note_on,,,,,7,0,1,,,,,0,65,0
7352,note_on,,,,,1,0,1,,,,,0,65,64
7354,note_on,,,,,2,0,1,,,,,0,48,64
7359,note_on,,,,,5,0,1,,,,,0,63,0
7360,note_on,,,,,1,0,1,,,,,0,63,64
7367,note_on,,,,,7,0,1,,,,,0,65,0
7380,note_on,,,,,13,0,1,,,,,0,48,0
7384,note_on,,,,,4,0,1,,,,,0,50,64
7410,note_on,,,,,26,0,1,,,,,0,50,0
7414,note_on,,,,,0,0,1,,,,,0,51,64
7414,note_on,,,,,4,0,1,,,,,0,62,64
7415,note_on,,,,,1,0,1,,,,,0,63,0
7429,note_on,,,,,0,0,1,,,,,0,60,0
7429,note_on,,,,,14,0,1,,,,,0,70,0
7440,note_on,,,,,11,0,1,,,,,0,62,0
7440,note_on,,,,,0,0,1,,,,,0,51,0
7444,note_on,,,,,4,0,1,,,,,0,69,64
7444,note_on,,,,,0,0,1,,,,,0,53,64
7444,note_on,,,,,0,0,1,,,,,0,60,64
7470,note_on,,,,,26,0,1,,,,,0,53,0
7474,note_on,,,,,4,0,1,,,,,0,51,64
7500,note_on,,,,,26,0,1,,,,,0,51,0
7504,note_on,,,,,4,0,1,,,,,0,57,64
7504,note_on,,,,,0,0,1,,,,,0,53,64
7549,note_on,,,,,45,0,1,,,,,0,60,0
7556,note_on,,,,,7,0,1,,,,,0,53,0
7556,note_on,,,,,0,0,1,,,,,0,57,0
7564,note_on,,,,,8,0,1,,,,,0,65,64
7564,note_on,,,,,0,0,1,,,,,0,62,64
7564,note_on,,,,,0,0,1,,,,,0,53,64
7590,note_on,,,,,26,0,1,,,,,0,69,0
7594,note_on,,,,,4,0,1,,,,,0,69,64
7616,note_on,,,,,22,0,1,,,,,0,53,0
7620,note_on,,,,,4,0,1,,,,,0,69,0
7624,note_on,,,,,4,0,1,,,,,0,70,64
7624,note_on,,,,,0,0,1,,,,,0,46,64
7650,note_on,,,,,26,0,1,,,,,0,70,0
7654,note_on,,,,,4,0,1,,,,,0,69,64
7669,note_on,,,,,15,0,1,,,,,0,65,0
7669,note_on,,,,,0,0,1,,,,,0,62,0
7676,note_on,,,,,7,0,1,,,,,0,46,0
7680,note_on,,,,,4,0,1,,,,,0,69,0
7684,note_on,,,,,0,0,1,,,,,0,62,64
7684,note_on,,,,,4,0,1,,,,,0,67,64
7684,note_on,,,,,0,0,1,,,,,0,58,64
7714,note_on,,,,,30,0,1,,,,,0,46,64
7740,note_on,,,,,26,0,1,,,,,0,46,0
7744,note_on,,,,,4,0,1,,,,,0,48,64
7762,note_on,,,,,18,0,1,,,,,0,67,0
7770,note_on,,,,,8,0,1,,,,,0,48,0
7774,note_on,,,,,4,0,1,,,,,0,66,64
7774,note_on,,,,,0,0,1,,,,,0,50,64
7789,note_on,,,,,15,0,1,,,,,0,58,0
7789,note_on,,,,,0,0,1,,,,,0,62,0
7800,note_on,,,,,0,0,1,,,,,0,50,0
7800,note_on,,,,,11,0,1,,,,,0,66,0
7804,note_on,,,,,4,0,1,,,,,0,67,64
7804,note_on,,,,,0,0,1,,,,,0,51,64
7830,note_on,,,,,26,0,1,,,,,0,51,0
7834,note_on,,,,,4,0,1,,,,,0,50,64
7860,note_on,,,,,26,0,1,,,,,0,50,0
7864,note_on,,,,,4,0,1,,,,,0,55,64
7864,note_on,,,,,0,0,1,,,,,0,51,64
7916,note_on,,,,,52,0,1,,,,,0,55,0
7924,note_on,,,,,8,0,1,,,,,0,60,64
7950,note_on,,,,,26,0,1,,,,,0,51,0
7954,note_on,,,,,4,0,1,,,,,0,50,64
7976,note_on,,,,,22,0,1,,,,,0,60,0
7980,note_on,,,,,4,0,1,,,,,0,50,0
7984,note_on,,,,,0,0,1,,,,,0,51,64
7984,note_on,,,,,4,0,1,,,,,0,60,64
8002,note_on,,,,,18,0,1,,,,,0,67,0
8010,note_on,,,,,8,0,1,,,,,0,51,0
8014,note_on,,,,,4,0,1,,,,,0,70,64
8014,note_on,,,,,0,0,1,,,,,0,50,64
8036,note_on,,,,,22,0,1,,,,,0,60,0
8040,note_on,,,,,4,0,1,,,,,0,50,0
8040,note_on,,,,,0,0,1,,,,,0,70,0
8044,note_on,,,,,4,0,1,,,,,0,69,64
8044,note_on,,,,,0,0,1,,,,,0,60,64
8044,note_on,,,,,0,0,1,,,,,0,48,64
8070,note_on,,,,,26,0,1,,,,,0,48,0
8074,note_on,,,,,4,0,1,,,,,0,46,64
8096,note_on,,,,,22,0,1,,,,,0,60,0
8100,note_on,,,,,4,0,1,,,,,0,46,0
8104,note_on,,,,,4,0,1,,,,,0,60,64
8104,note_on,,,,,0,0,1,,,,,0,48,64
8122,note_on,,,,,18,0,1,,,,,0,69,0
8130,note_on,,,,,8,0,1,,,,,0,48,0
8134,note_on,,,,,4,0,1,,,,,0,72,64
8134,note_on,,,,,0,0,1,,,,,0,46,64
8156,note_on,,,,,22,0,1,,,,,0,60,0
8160,note_on,,,,,4,0,1,,,,,0,46,0
8160,note_on,,,,,0,0,1,,,,,0,72,0
8164,note_on,,,,,0,0,1,,,,,0,60,64
8164,note_on,,,,,4,0,1,,,,,0,66,64
8164,note_on,,,,,0,0,1,,,,,0,45,64
8190,note_on,,,,,26,0,1,,,,,0,45,0
8194,note_on,,,,,4,0,1,,,,,0,43,64
8216,note_on,,,,,22,0,1,,,,,0,60,0
8220,note_on,,,,,4,0,1,,,,,0,43,0
8224,note_on,,,,,4,0,1,,,,,0,60,64
8224,note_on,,,,,0,0,1,,,,,0,45,64
8242,note_on,,,,,18,0,1,,,,,0,66,0
8250,note_on,,,,,8,0,1,,,,,0,45,0
8254,note_on,,,,,4,0,1,,,,,0,69,64
8254,note_on,,,,,0,0,1,,,,,0,43,64
8280,note_on,,,,,26,0,1,,,,,0,43,0
8280,note_on,,,,,0,0,1,,,,,0,69,0
8284,note_on,,,,,4,0,1,,,,,0,62,64
8284,note_on,,,,,0,0,1,,,,,0,42,64
8336,note_on,,,,,0,0,1,,,,,0,60,0
8336,note_on,,,,,52,0,1,,,,,0,42,0
8344,note_on,,,,,8,0,1,,,,,0,58,64
8344,note_on,,,,,0,0,1,,,,,0,50,64
8362,note_on,,,,,18,0,1,,,,,0,62,0
8370,note_on,,,,,8,0,1,,,,,0,58,0
8374,note_on,,,,,4,0,1,,,,,0,66,64
8374,note_on,,,,,0,0,1,,,,,0,57,64
8396,note_on,,,,,22,0,1,,,,,0,50,0
8400,note_on,,,,,4,0,1,,,,,0,57,0
8400,note_on,,,,,0,0,1,,,,,0,66,0
8404,note_on,,,,,0,0,1,,,,,0,58,64
8404,note_on,,,,,0,0,1,,,,,0,43,64
8404,note_on,,,,,4,0,1,,,,,0,67,64
8430,note_on,,,,,26,0,1,,,,,0,58,0
8434,note_on,,,,,4,0,1,,,,,0,55,64
8456,note_on,,,,,22,0,1,,,,,0,43,0
8460,note_on,,,,,4,0,1,,,,,0,55,0
8464,note_on,,,,,4,0,1,,,,,0,57,64
8464,note_on,,,,,0,0,1,,,,,0,53,64
8490,note_on,,,,,26,0,1,,,,,0,57,0
8494,note_on,,,,,4,0,1,,,,,0,58,64
8509,note_on,,,,,15,0,1,,,,,0,67,0
8516,note_on,,,,,7,0,1,,,,,0,53,0
8520,note_on,,,,,4,0,1,,,,,0,58,0
8524,note_on,,,,,4,0,1,,,,,0,60,64
8524,note_on,,,,,0,0,1,,,,,0,52,64
8550,note_on,,,,,26,0,1,,,,,0,60,0
8554,note_on,,,,,4,0,1,,,,,0,58,64
8576,note_on,,,,,22,0,1,,,,,0,52,0
8580,note_on,,,,,4,0,1,,,,,0,58,0
8584,note_on,,,,,4,0,1,,,,,0,60,64
8584,note_on,,,,,0,0,1,,,,,0,48,64
8614,note_on,,,,,30,0,1,,,,,0,70,64
8636,note_on,,,,,22,0,1,,,,,0,48,0
8636,note_on,,,,,0,0,1,,,,,0,60,0
8644,note_on,,,,,8,0,1,,,,,0,60,64
8644,note_on,,,,,0,0,1,,,,,0,53,64
8670,note_on,,,,,26,0,1,,,,,0,70,0
8674,note_on,,,,,4,0,1,,,,,0,70,64
8696,note_on,,,,,22,0,1,,,,,0,53,0
8696,note_on,,,,,0,0,1,,,,,0,60,0
8700,note_on,,,,,4,0,1,,,,,0,70,0
8704,note_on,,,,,4,0,1,,,,,0,69,64
8704,note_on,,,,,0,0,1,,,,,0,65,64
8704,note_on,,,,,0,0,1,,,,,0,57,64
8730,note_on,,,,,26,0,1,,,,,0,65,0
8730,note_on,,,,,0,0,1,,,,,0,69,0
8734,note_on,,,,,4,0,1,,,,,0,67,64
8734,note_on,,,,,0,0,1,,,,,0,64,64
8756,note_on,,,,,22,0,1,,,,,0,57,0
8760,note_on,,,,,0,0,1,,,,,0,67,0
8760,note_on,,,,,4,0,1,,,,,0,64,0
8764,note_on,,,,,4,0,1,,,,,0,69,64
8764,note_on,,,,,0,0,1,,,,,0,65,64
8764,note_on,,,,,0,0,1,,,,,0,50,64
8790,note_on,,,,,26,0,1,,,,,0,69,0
8794,note_on,,,,,4,0,1,,,,,0,69,64
8816,note_on,,,,,22,0,1,,,,,0,50,0
8816,note_on,,,,,0,0,1,,,,,0,65,0
8820,note_on,,,,,4,0,1,,,,,0,69,0
8824,note_on,,,,,0,0,1,,,,,0,60,64
8824,note_on,,,,,4,0,1,,,,,0,71,64
8850,note_on,,,,,26,0,1,,,,,0,71,0
8854,note_on,,,,,4,0,1,,,,,0,72,64
8876,note_on,,,,,22,0,1,,,,,0,60,0
8880,note_on,,,,,4,0,1,,,,,0,72,0
8884,note_on,,,,,0,0,1,,,,,0,59,64
8884,note_on,,,,,4,0,1,,,,,0,74,64
8910,note_on,,,,,26,0,1,,,,,0,74,0
8914,note_on,,,,,4,0,1,,,,,0,72,64
8936,note_on,,,,,22,0,1,,,,,0,59,0
8940,note_on,,,,,4,0,1,,,,,0,72,0
8944,note_on,,,,,4,0,1,,,,,0,74,64
8944,note_on,,,,,0,0,1,,,,,0,55,64
8974,note_on,,,,,30,0,1,,,,,0,65,64
8996,note_on,,,,,22,0,1,,,,,0,55,0
8996,note_on,,,,,0,0,1,,,,,0,74,0
9004,note_on,,,,,8,0,1,,,,,0,74,64
9004,note_on,,,,,0,0,1,,,,,0,60,64
9030,note_on,,,,,26,0,1,,,,,0,65,0
9034,note_on,,,,,4,0,1,,,,,0,65,64
9056,note_on,,,,,22,0,1,,,,,0,60,0
9056,note_on,,,,,0,0,1,,,,,0,74,0
9060,note_on,,,,,4,0,1,,,,,0,65,0
9064,note_on,,,,,4,0,1,,,,,0,72,64
9064,note_on,,,,,0,0,1,,,,,0,63,64
9064,note_on,,,,,0,0,1,,,,,0,55,64
9090,note_on,,,,,0,0,1,,,,,0,72,0
9090,note_on,,,,,26,0,1,,,,,0,63,0
9094,note_on,,,,,4,0,1,,,,,0,71,64
9094,note_on,,,,,0,0,1,,,,,0,62,64
9116,note_on,,,,,22,0,1,,,,,0,55,0
9120,note_on,,,,,4,0,1,,,,,0,62,0
9120,note_on,,,,,0,0,1,,,,,0,71,0
9124,note_on,,,,,4,0,1,,,,,0,72,64
9124,note_on,,,,,0,0,1,,,,,0,63,64
9124,note_on,,,,,0,0,1,,,,,0,48,64
9150,note_on,,,,,26,0,1,,,,,0,63,0
9154,note_on,,,,,4,0,1,,,,,0,60,64
9176,note_on,,,,,22,0,1,,,,,0,48,0
9180,note_on,,,,,4,0,1,,,,,0,60,0
9184,note_on,,,,,0,0,1,,,,,0,57,64
9184,note_on,,,,,4,0,1,,,,,0,66,64
9210,note_on,,,,,26,0,1,,,,,0,66,0
9214,note_on,,,,,4,0,1,,,,,0,67,64
9229,note_on,,,,,15,0,1,,,,,0,72,0
9236,note_on,,,,,7,0,1,,,,,0,57,0
9240,note_on,,,,,4,0,1,,,,,0,67,0
9244,note_on,,,,,4,0,1,,,,,0,69,64
9244,note_on,,,,,0,0,1,,,,,0,54,64
9270,note_on,,,,,26,0,1,,,,,0,69,0
9274,note_on,,,,,4,0,1,,,,,0,67,64
9296,note_on,,,,,22,0,1,,,,,0,54,0
9300,note_on,,,,,4,0,1,,,,,0,67,0
9304,note_on,,,,,0,0,1,,,,,0,50,64
9304,note_on,,,,,4,0,1,,,,,0,69,64
9334,note_on,,,,,30,0,1,,,,,0,72,64
9356,note_on,,,,,22,0,1,,,,,0,50,0
9356,note_on,,,,,0,0,1,,,,,0,69,0
9364,note_on,,,,,0,0,1,,,,,0,55,64
9364,note_on,,,,,8,0,1,,,,,0,69,64
9390,note_on,,,,,26,0,1,,,,,0,72,0
9394,note_on,,,,,4,0,1,,,,,0,72,64
9416,note_on,,,,,22,0,1,,,,,0,55,0
9416,note_on,,,,,0,0,1,,,,,0,69,0
9420,note_on,,,,,4,0,1,,,,,0,72,0
9424,note_on,,,,,0,0,1,,,,,0,58,64
9424,note_on,,,,,4,0,1,,,,,0,70,64
9424,note_on,,,,,0,0,1,,,,,0,67,64
9450,note_on,,,,,26,0,1,,,,,0,67,0
9450,note_on,,,,,0,0,1,,,,,0,70,0
9454,note_on,,,,,4,0,1,,,,,0,69,64
9454,note_on,,,,,0,0,1,,,,,0,66,64
9476,note_on,,,,,22,0,1,,,,,0,58,0
9480,note_on,,,,,4,0,1,,,,,0,66,0
9480,note_on,,,,,0,0,1,,,,,0,69,0
9484,note_on,,,,,4,0,1,,,,,0,70,64
9484,note_on,,,,,0,0,1,,,,,0,67,64
9484,note_on,,,,,0,0,1,,,,,0,52,64
9510,note_on,,,,,26,0,1,,,,,0,70,0
9514,note_on,,,,,4,0,1,,,,,0,74,64
9536,note_on,,,,,0,0,1,,,,,0,67,0
9536,note_on,,,,,22,0,1,,,,,0,52,0
9540,note_on,,,,,4,0,1,,,,,0,74,0
9544,note_on,,,,,4,0,1,,,,,0,76,64
9544,note_on,,,,,0,0,1,,,,,0,62,64
9570,note_on,,,,,26,0,1,,,,,0,76,0
9574,note_on,,,,,4,0,1,,,,,0,77,64
9596,note_on,,,,,22,0,1,,,,,0,62,0
9600,note_on,,,,,4,0,1,,,,,0,77,0
9604,note_on,,,,,4,0,1,,,,,0,79,64
9604,note_on,,,,,0,0,1,,,,,0,61,64
9630,note_on,,,,,26,0,1,,,,,0,79,0
9634,note_on,,,,,4,0,1,,,,,0,77,64
9656,note_on,,,,,22,0,1,,,,,0,61,0
9660,note_on,,,,,4,0,1,,,,,0,77,0
9664,note_on,,,,,0,0,1,,,,,0,57,64
9664,note_on,,,,,4,0,1,,,,,0,79,64
9694,note_on,,,,,30,0,1,,,,,0,61,64
9716,note_on,,,,,22,0,1,,,,,0,57,0
9720,note_on,,,,,4,0,1,,,,,0,61,0
9724,note_on,,,,,0,0,1,,,,,0,62,64
9724,note_on,,,,,4,0,1,,,,,0,62,64
9750,note_on,,,,,0,0,1,,,,,0,62,0
9750,note_on,,,,,26,0,1,,,,,0,62,0
9754,note_on,,,,,4,0,1,,,,,0,61,64
9776,note_on,,,,,22,0,1,,,,,0,79,0
9780,note_on,,,,,4,0,1,,,,,0,61,0
9784,note_on,,,,,0,0,1,,,,,0,62,64
9784,note_on,,,,,4,0,1,,,,,0,77,64
9810,note_on,,,,,26,0,1,,,,,0,62,0
9810,note_on,,,,,0,0,1,,,,,0,77,0
9814,note_on,,,,,4,0,1,,,,,0,76,64
9814,note_on,,,,,0,0,1,,,,,0,57,64
9840,note_on,,,,,26,0,1,,,,,0,57,0
9840,note_on,,,,,0,0,1,,,,,0,76,0
9844,note_on,,,,,4,0,1,,,,,0,77,64
9844,note_on,,,,,0,0,1,,,,,0,69,64
9844,note_on,,,,,0,0,1,,,,,0,50,64
9870,note_on,,,,,26,0,1,,,,,0,77,0
9874,note_on,,,,,4,0,1,,,,,0,74,64
9896,note_on,,,,,22,0,1,,,,,0,50,0
9900,note_on,,,,,4,0,1,,,,,0,74,0
9904,note_on,,,,,4,0,1,,,,,0,77,64
9904,note_on,,,,,0,0,1,,,,,0,62,64
9930,note_on,,,,,26,0,1,,,,,0,62,0
9930,note_on,,,,,0,0,1,,,,,0,77,0
9934,note_on,,,,,4,0,1,,,,,0,79,64
9934,note_on,,,,,0,0,1,,,,,0,64,64
9949,note_on,,,,,15,0,1,,,,,0,69,0
9960,note_on,,,,,11,0,1,,,,,0,64,0
9960,note_on,,,,,0,0,1,,,,,0,79,0
9964,note_on,,,,,4,0,1,,,,,0,81,64
9964,note_on,,,,,0,0,1,,,,,0,65,64
9990,note_on,,,,,26,0,1,,,,,0,81,0
9994,note_on,,,,,4,0,1,,,,,0,79,64
10016,note_on,,,,,22,0,1,,,,,0,65,0
10020,note_on,,,,,4,0,1,,,,,0,79,0
10024,note_on,,,,,4,0,1,,,,,0,81,64
10024,note_on,,,,,0,0,1,,,,,0,62,64
10024,note_on,,,,,0,0,1,,,,,0,65,64
10076,note_on,,,,,0,0,1,,,,,0,81,0
10076,note_on,,,,,0,0,1,,,,,0,65,0
10076,note_on,,,,,52,0,1,,,,,0,62,0
10084,note_on,,,,,0,0,1,,,,,0,67,64
10084,note_on,,,,,0,0,1,,,,,0,70,64
10084,note_on,,,,,8,0,1,,,,,0,81,64
10110,note_on,,,,,26,0,1,,,,,0,67,0
10114,note_on,,,,,4,0,1,,,,,0,55,64
10136,note_on,,,,,22,0,1,,,,,0,81,0
10140,note_on,,,,,4,0,1,,,,,0,55,0
10144,note_on,,,,,4,0,1,,,,,0,74,64
10144,note_on,,,,,0,0,1,,,,,0,57,64
10170,note_on,,,,,26,0,1,,,,,0,57,0
10174,note_on,,,,,4,0,1,,,,,0,58,64
10189,note_on,,,,,15,0,1,,,,,0,70,0
10196,note_on,,,,,7,0,1,,,,,0,74,0
10200,note_on,,,,,4,0,1,,,,,0,58,0
10204,note_on,,,,,0,0,1,,,,,0,60,64
10204,note_on,,,,,4,0,1,,,,,0,67,64
10230,note_on,,,,,26,0,1,,,,,0,60,0
10234,note_on,,,,,4,0,1,,,,,0,74,64
10234,note_on,,,,,0,0,1,,,,,0,55,64
10260,note_on,,,,,26,0,1,,,,,0,55,0
10260,note_on,,,,,0,0,1,,,,,0,74,0
10264,note_on,,,,,4,0,1,,,,,0,76,64
10264,note_on,,,,,0,0,1,,,,,0,60,64
10290,note_on,,,,,26,0,1,,,,,0,60,0
10290,note_on,,,,,0,0,1,,,,,0,76,0
10294,note_on,,,,,4,0,1,,,,,0,77,64
10294,note_on,,,,,0,0,1,,,,,0,62,64
10309,note_on,,,,,15,0,1,,,,,0,67,0
10320,note_on,,,,,0,0,1,,,,,0,77,0
10320,note_on,,,,,11,0,1,,,,,0,62,0
10324,note_on,,,,,0,0,1,,,,,0,64,64
10324,note_on,,,,,4,0,1,,,,,0,79,64
10350,note_on,,,,,26,0,1,,,,,0,79,0
10354,note_on,,,,,4,0,1,,,,,0,77,64
10376,note_on,,,,,22,0,1,,,,,0,64,0
10380,note_on,,,,,4,0,1,,,,,0,77,0
10384,note_on,,,,,4,0,1,,,,,0,79,64
10384,note_on,,,,,0,0,1,,,,,0,64,64
10384,note_on,,,,,0,0,1,,,,,0,60,64
10436,note_on,,,,,0,0,1,,,,,0,79,0
10436,note_on,,,,,52,0,1,,,,,0,60,0
10436,note_on,,,,,0,0,1,,,,,0,64,0
10444,note_on,,,,,8,0,1,,,,,0,79,64
10444,note_on,,,,,0,0,1,,,,,0,65,64
10444,note_on,,,,,0,0,1,,,,,0,69,64
10470,note_on,,,,,26,0,1,,,,,0,65,0
10474,note_on,,,,,4,0,1,,,,,0,53,64
10496,note_on,,,,,22,0,1,,,,,0,79,0
10500,note_on,,,,,4,0,1,,,,,0,53,0
10504,note_on,,,,,4,0,1,,,,,0,72,64
10504,note_on,,,,,0,0,1,,,,,0,55,64
10530,note_on,,,,,26,0,1,,,,,0,55,0
10534,note_on,,,,,4,0,1,,,,,0,57,64
10549,note_on,,,,,15,0,1,,,,,0,69,0
10556,note_on,,,,,7,0,1,,,,,0,72,0
10560,note_on,,,,,4,0,1,,,,,0,57,0
10564,note_on,,,,,0,0,1,,,,,0,58,64
10564,note_on,,,,,4,0,1,,,,,0,65,64
10590,note_on,,,,,26,0,1,,,,,0,58,0
10594,note_on,,,,,4,0,1,,,,,0,72,64
10594,note_on,,,,,0,0,1,,,,,0,53,64
10620,note_on,,,,,26,0,1,,,,,0,53,0
10620,note_on,,,,,0,0,1,,,,,0,72,0
10624,note_on,,,,,0,0,1,,,,,0,58,64
10624,note_on,,,,,4,0,1,,,,,0,74,64
10650,note_on,,,,,26,0,1,,,,,0,58,0
10650,note_on,,,,,0,0,1,,,,,0,74,0
10654,note_on,,,,,4,0,1,,,,,0,76,64
10654,note_on,,,,,0,0,1,,,,,0,60,64
10669,note_on,,,,,15,0,1,,,,,0,65,0
10680,note_on,,,,,11,0,1,,,,,0,60,0
10680,note_on,,,,,0,0,1,,,,,0,76,0
10684,note_on,,,,,0,0,1,,,,,0,62,64
10684,note_on,,,,,4,0,1,,,,,0,77,64
10710,note_on,,,,,0,0,1,,,,,0,77,0
10710,note_on,,,,,26,0,1,,,,,0,62,0
10714,note_on,,,,,4,0,1,,,,,0,76,64
10714,note_on,,,,,0,0,1,,,,,0,60,64
10740,note_on,,,,,26,0,1,,,,,0,60,0
10740,note_on,,,,,0,0,1,,,,,0,76,0
10744,note_on,,,,,4,0,1,,,,,0,77,64
10744,note_on,,,,,0,0,1,,,,,0,62,64
10744,note_on,,,,,0,0,1,,,,,0,58,64
10770,note_on,,,,,26,0,1,,,,,0,58,0
10774,note_on,,,,,4,0,1,,,,,0,57,64
10796,note_on,,,,,22,0,1,,,,,0,62,0
10800,note_on,,,,,4,0,1,,,,,0,57,0
10804,note_on,,,,,4,0,1,,,,,0,67,64
10804,note_on,,,,,0,0,1,,,,,0,58,64
10830,note_on,,,,,26,0,1,,,,,0,58,0
10834,note_on,,,,,4,0,1,,,,,0,62,64
10856,note_on,,,,,22,0,1,,,,,0,67,0
10860,note_on,,,,,4,0,1,,,,,0,62,0
10864,note_on,,,,,0,0,1,,,,,0,61,64
10864,note_on,,,,,4,0,1,,,,,0,67,64
10882,note_on,,,,,18,0,1,,,,,0,77,0
10890,note_on,,,,,8,0,1,,,,,0,61,0
10894,note_on,,,,,4,0,1,,,,,0,77,64
10894,note_on,,,,,0,0,1,,,,,0,62,64
10916,note_on,,,,,22,0,1,,,,,0,67,0
10920,note_on,,,,,0,0,1,,,,,0,77,0
10920,note_on,,,,,4,0,1,,,,,0,62,0
10924,note_on,,,,,0,0,1,,,,,0,55,64
10924,note_on,,,,,4,0,1,,,,,0,76,64
10924,note_on,,,,,0,0,1,,,,,0,67,64
10950,note_on,,,,,26,0,1,,,,,0,55,0
10950,note_on,,,,,0,0,1,,,,,0,76,0
10954,note_on,,,,,4,0,1,,,,,0,74,64
10954,note_on,,,,,0,0,1,,,,,0,58,64
10976,note_on,,,,,22,0,1,,,,,0,67,0
10980,note_on,,,,,0,0,1,,,,,0,74,0
10980,note_on,,,,,4,0,1,,,,,0,58,0
10984,note_on,,,,,0,0,1,,,,,0,67,64
10984,note_on,,,,,4,0,1,,,,,0,76,64
10984,note_on,,,,,0,0,1,,,,,0,57,64
11010,note_on,,,,,26,0,1,,,,,0,57,0
11010,note_on,,,,,0,0,1,,,,,0,76,0
11014,note_on,,,,,4,0,1,,,,,0,74,64
11014,note_on,,,,,0,0,1,,,,,0,58,64
11036,note_on,,,,,22,0,1,,,,,0,67,0
11040,note_on,,,,,4,0,1,,,,,0,58,0
11040,note_on,,,,,0,0,1,,,,,0,74,0
11044,note_on,,,,,4,0,1,,,,,0,73,64
11044,note_on,,,,,0,0,1,,,,,0,67,64
11044,note_on,,,,,0,0,1,,,,,0,52,64
11070,note_on,,,,,26,0,1,,,,,0,52,0
11070,note_on,,,,,0,0,1,,,,,0,73,0
11074,note_on,,,,,0,0,1,,,,,0,64,64
11074,note_on,,,,,4,0,1,,,,,0,74,64
11096,note_on,,,,,22,0,1,,,,,0,67,0
11100,note_on,,,,,4,0,1,,,,,0,64,0
11100,note_on,,,,,0,0,1,,,,,0,74,0
11104,note_on,,,,,4,0,1,,,,,0,76,64
11104,note_on,,,,,0,0,1,,,,,0,67,64
11104,note_on,,,,,0,0,1,,,,,0,61,64
11130,note_on,,,,,26,0,1,,,,,0,61,0
11134,note_on,,,,,4,0,1,,,,,0,57,64
11156,note_on,,,,,22,0,1,,,,,0,67,0
11160,note_on,,,,,4,0,1,,,,,0,57,0
11164,note_on,,,,,0,0,1,,,,,0,62,64
11164,note_on,,,,,4,0,1,,,,,0,67,64
11190,note_on,,,,,26,0,1,,,,,0,62,0
11194,note_on,,,,,4,0,1,,,,,0,50,64
11216,note_on,,,,,22,0,1,,,,,0,67,0
11216,note_on,,,,,0,0,1,,,,,0,76,0
11220,note_on,,,,,4,0,1,,,,,0,50,0
11224,note_on,,,,,4,0,1,,,,,0,74,64
11224,note_on,,,,,0,0,1,,,,,0,65,64
11224,note_on,,,,,0,0,1,,,,,0,53,64
11250,note_on,,,,,26,0,1,,,,,0,53,0
11254,note_on,,,,,4,0,1,,,,,0,57,64
11276,note_on,,,,,22,0,1,,,,,0,65,0
11276,note_on,,,,,0,0,1,,,,,0,74,0
11280,note_on,,,,,4,0,1,,,,,0,57,0
11284,note_on,,,,,4,0,1,,,,,0,77,64
11284,note_on,,,,,0,0,1,,,,,0,62,64
11310,note_on,,,,,26,0,1,,,,,0,62,0
11314,note_on,,,,,4,0,1,,,,,0,69,64
11314,note_on,,,,,0,0,1,,,,,0,60,64
11340,note_on,,,,,26,0,1,,,,,0,60,0
11340,note_on,,,,,0,0,1,,,,,0,69,0
11344,note_on,,,,,4,0,1,,,,,0,70,64
11344,note_on,,,,,0,0,1,,,,,0,62,64
11370,note_on,,,,,26,0,1,,,,,0,62,0
11370,note_on,,,,,0,0,1,,,,,0,70,0
11374,note_on,,,,,4,0,1,,,,,0,72,64
11374,note_on,,,,,0,0,1,,,,,0,60,64
11389,note_on,,,,,15,0,1,,,,,0,77,0
11400,note_on,,,,,0,0,1,,,,,0,72,0
11400,note_on,,,,,11,0,1,,,,,0,60,0
11404,note_on,,,,,4,0,1,,,,,0,74,64
11404,note_on,,,,,0,0,1,,,,,0,58,64
11430,note_on,,,,,26,0,1,,,,,0,58,0
11430,note_on,,,,,0,0,1,,,,,0,74,0
11434,note_on,,,,,4,0,1,,,,,0,72,64
11434,note_on,,,,,0,0,1,,,,,0,62,64
11460,note_on,,,,,26,0,1,,,,,0,62,0
11460,note_on,,,,,0,0,1,,,,,0,72,0
11464,note_on,,,,,0,0,1,,,,,0,55,64
11464,note_on,,,,,4,0,1,,,,,0,74,64
11464,note_on,,,,,0,0,1,,,,,0,74,64
11490,note_on,,,,,26,0,1,,,,,0,55,0
11494,note_on,,,,,4,0,1,,,,,0,58,64
11516,note_on,,,,,22,0,1,,,,,0,74,0
11516,note_on,,,,,0,0,1,,,,,0,74,0
11520,note_on,,,,,4,0,1,,,,,0,58,0
11524,note_on,,,,,4,0,1,,,,,0,79,64
11524,note_on,,,,,0,0,1,,,,,0,74,64
11524,note_on,,,,,0,0,1,,,,,0,51,64
11550,note_on,,,,,26,0,1,,,,,0,51,0
11554,note_on,,,,,4,0,1,,,,,0,55,64
11576,note_on,,,,,22,0,1,,,,,0,74,0
11580,note_on,,,,,4,0,1,,,,,0,55,0
11584,note_on,,,,,0,0,1,,,,,0,57,64
11584,note_on,,,,,4,0,1,,,,,0,67,64
11610,note_on,,,,,26,0,1,,,,,0,57,0
11614,note_on,,,,,4,0,1,,,,,0,58,64
11629,note_on,,,,,15,0,1,,,,,0,79,0
11636,note_on,,,,,7,0,1,,,,,0,67,0
11640,note_on,,,,,4,0,1,,,,,0,58,0
11644,note_on,,,,,4,0,1,,,,,0,75,64
11644,note_on,,,,,0,0,1,,,,,0,60,64
11670,note_on,,,,,26,0,1,,,,,0,60,0
11674,note_on,,,,,4,0,1,,,,,0,67,64
11674,note_on,,,,,0,0,1,,,,,0,58,64
11700,note_on,,,,,0,0,1,,,,,0,67,0
11700,note_on,,,,,26,0,1,,,,,0,58,0
11704,note_on,,,,,0,0,1,,,,,0,60,64
11704,note_on,,,,,4,0,1,,,,,0,69,64
11730,note_on,,,,,26,0,1,,,,,0,60,0
11730,note_on,,,,,0,0,1,,,,,0,69,0
11734,note_on,,,,,4,0,1,,,,,0,70,64
11734,note_on,,,,,0,0,1,,,,,0,58,64
11749,note_on,,,,,15,0,1,,,,,0,75,0
11760,note_on,,,,,11,0,1,,,,,0,58,0
11760,note_on,,,,,0,0,1,,,,,0,70,0
11764,note_on,,,,,4,0,1,,,,,0,72,64
11764,note_on,,,,,0,0,1,,,,,0,57,64
11790,note_on,,,,,26,0,1,,,,,0,57,0
11790,note_on,,,,,0,0,1,,,,,0,72,0
11794,note_on,,,,,4,0,1,,,,,0,70,64
11794,note_on,,,,,0,0,1,,,,,0,60,64
11820,note_on,,,,,26,0,1,,,,,0,60,0
11820,note_on,,,,,0,0,1,,,,,0,70,0
11824,note_on,,,,,4,0,1,,,,,0,72,64
11824,note_on,,,,,0,0,1,,,,,0,72,64
11824,note_on,,,,,0,0,1,,,,,0,53,64
11850,note_on,,,,,26,0,1,,,,,0,53,0
11854,note_on,,,,,4,0,1,,,,,0,57,64
11876,note_on,,,,,22,0,1,,,,,0,72,0
11876,note_on,,,,,0,0,1,,,,,0,72,0
11880,note_on,,,,,4,0,1,,,,,0,57,0
11884,note_on,,,,,0,0,1,,,,,0,50,64
11884,note_on,,,,,0,0,1,,,,,0,72,64
11884,note_on,,,,,4,0,1,,,,,0,77,64
11910,note_on,,,,,26,0,1,,,,,0,50,0
11914,note_on,,,,,4,0,1,,,,,0,53,64
11936,note_on,,,,,22,0,1,,,,,0,72,0
11940,note_on,,,,,4,0,1,,,,,0,53,0
11944,note_on,,,,,4,0,1,,,,,0,65,64
11944,note_on,,,,,0,0,1,,,,,0,55,64
11970,note_on,,,,,26,0,1,,,,,0,55,0
11974,note_on,,,,,4,0,1,,,,,0,57,64
11989,note_on,,,,,15,0,1,,,,,0,77,0
11996,note_on,,,,,7,0,1,,,,,0,65,0
12000,note_on,,,,,4,0,1,,,,,0,57,0
12004,note_on,,,,,4,0,1,,,,,0,74,64
12004,note_on,,,,,0,0,1,,,,,0,58,64
12030,note_on,,,,,26,0,1,,,,,0,58,0
12034,note_on,,,,,4,0,1,,,,,0,65,64
12034,note_on,,,,,0,0,1,,,,,0,57,64
12060,note_on,,,,,26,0,1,,,,,0,57,0
12060,note_on,,,,,0,0,1,,,,,0,65,0
12064,note_on,,,,,4,0,1,,,,,0,67,64
12064,note_on,,,,,0,0,1,,,,,0,58,64
12090,note_on,,,,,26,0,1,,,,,0,58,0
12090,note_on,,,,,0,0,1,,,,,0,67,0
12094,note_on,,,,,4,0,1,,,,,0,69,64
12094,note_on,,,,,0,0,1,,,,,0,57,64
12109,note_on,,,,,15,0,1,,,,,0,74,0
12120,note_on,,,,,11,0,1,,,,,0,57,0
12120,note_on,,,,,0,0,1,,,,,0,69,0
12124,note_on,,,,,4,0,1,,,,,0,70,64
12124,note_on,,,,,0,0,1,,,,,0,55,64
12150,note_on,,,,,26,0,1,,,,,0,55,0
12150,note_on,,,,,0,0,1,,,,,0,70,0
12154,note_on,,,,,4,0,1,,,,,0,69,64
12154,note_on,,,,,0,0,1,,,,,0,58,64
12180,note_on,,,,,26,0,1,,,,,0,58,0
12180,note_on,,,,,0,0,1,,,,,0,69,0
12184,note_on,,,,,4,0,1,,,,,0,70,64
12184,note_on,,,,,0,0,1,,,,,0,51,64
12184,note_on,,,,,0,0,1,,,,,0,70,64
12210,note_on,,,,,26,0,1,,,,,0,51,0
12214,note_on,,,,,4,0,1,,,,,0,55,64
12236,note_on,,,,,22,0,1,,,,,0,70,0
12240,note_on,,,,,4,0,1,,,,,0,55,0
12244,note_on,,,,,4,0,1,,,,,0,75,64
12244,note_on,,,,,0,0,1,,,,,0,48,64
12270,note_on,,,,,26,0,1,,,,,0,48,0
12274,note_on,,,,,4,0,1,,,,,0,55,64
12296,note_on,,,,,22,0,1,,,,,0,75,0
12300,note_on,,,,,4,0,1,,,,,0,55,0
12304,note_on,,,,,0,0,1,,,,,0,57,64
12304,note_on,,,,,4,0,1,,,,,0,75,64
12322,note_on,,,,,18,0,1,,,,,0,70,0
12330,note_on,,,,,8,0,1,,,,,0,57,0
12334,note_on,,,,,4,0,1,,,,,0,70,64
12334,note_on,,,,,0,0,1,,,,,0,58,64
12356,note_on,,,,,22,0,1,,,,,0,75,0
12360,note_on,,,,,4,0,1,,,,,0,58,0
12360,note_on,,,,,0,0,1,,,,,0,70,0
12364,note_on,,,,,4,0,1,,,,,0,75,64
12364,note_on,,,,,0,0,1,,,,,0,69,64
12364,note_on,,,,,0,0,1,,,,,0,60,64
12390,note_on,,,,,26,0,1,,,,,0,60,0
12390,note_on,,,,,0,0,1,,,,,0,69,0
12394,note_on,,,,,0,0,1,,,,,0,62,64
12394,note_on,,,,,4,0,1,,,,,0,67,64
12416,note_on,,,,,22,0,1,,,,,0,75,0
12420,note_on,,,,,0,0,1,,,,,0,67,0
12420,note_on,,,,,4,0,1,,,,,0,62,0
12424,note_on,,,,,4,0,1,,,,,0,75,64
12424,note_on,,,,,0,0,1,,,,,0,69,64
12424,note_on,,,,,0,0,1,,,,,0,60,64
12450,note_on,,,,,26,0,1,,,,,0,60,0
12450,note_on,,,,,0,0,1,,,,,0,69,0
12454,note_on,,,,,4,0,1,,,,,0,67,64
12454,note_on,,,,,0,0,1,,,,,0,58,64
12476,note_on,,,,,22,0,1,,,,,0,75,0
12480,note_on,,,,,0,0,1,,,,,0,67,0
12480,note_on,,,,,4,0,1,,,,,0,58,0
12484,note_on,,,,,0,0,1,,,,,0,65,64
12484,note_on,,,,,0,0,1,,,,,0,57,64
12484,note_on,,,,,4,0,1,,,,,0,75,64
12510,note_on,,,,,26,0,1,,,,,0,57,0
12514,note_on,,,,,4,0,1,,,,,0,53,64
12536,note_on,,,,,22,0,1,,,,,0,75,0
12540,note_on,,,,,4,0,1,,,,,0,53,0
12544,note_on,,,,,4,0,1,,,,,0,75,64
12544,note_on,,,,,0,0,1,,,,,0,55,64
12570,note_on,,,,,26,0,1,,,,,0,55,0
12574,note_on,,,,,4,0,1,,,,,0,57,64
12596,note_on,,,,,22,0,1,,,,,0,75,0
12600,note_on,,,,,4,0,1,,,,,0,57,0
12604,note_on,,,,,0,0,1,,,,,0,58,64
12604,note_on,,,,,4,0,1,,,,,0,75,64
12630,note_on,,,,,26,0,1,,,,,0,58,0
12634,note_on,,,,,4,0,1,,,,,0,57,64
12656,note_on,,,,,22,0,1,,,,,0,75,0
12660,note_on,,,,,4,0,1,,,,,0,57,0
12664,note_on,,,,,4,0,1,,,,,0,74,64
12664,note_on,,,,,0,0,1,,,,,0,58,64
12690,note_on,,,,,26,0,1,,,,,0,58,0
12690,note_on,,,,,0,0,1,,,,,0,74,0
12694,note_on,,,,,4,0,1,,,,,0,75,64
12694,note_on,,,,,0,0,1,,,,,0,60,64
12709,note_on,,,,,15,0,1,,,,,0,65,0
12720,note_on,,,,,11,0,1,,,,,0,60,0
12720,note_on,,,,,0,0,1,,,,,0,75,0
12724,note_on,,,,,4,0,1,,,,,0,77,64
12724,note_on,,,,,0,0,1,,,,,0,62,64
12724,note_on,,,,,0,0,1,,,,,0,58,64
12750,note_on,,,,,26,0,1,,,,,0,62,0
12750,note_on,,,,,0,0,1,,,,,0,77,0
12754,note_on,,,,,4,0,1,,,,,0,70,64
12754,note_on,,,,,0,0,1,,,,,0,60,64
12780,note_on,,,,,0,0,1,,,,,0,70,0
12780,note_on,,,,,26,0,1,,,,,0,60,0
12784,note_on,,,,,4,0,1,,,,,0,77,64
12784,note_on,,,,,0,0,1,,,,,0,62,64
12810,note_on,,,,,26,0,1,,,,,0,62,0
12810,note_on,,,,,0,0,1,,,,,0,77,0
12814,note_on,,,,,0,0,1,,,,,0,64,64
12814,note_on,,,,,4,0,1,,,,,0,79,64
12829,note_on,,,,,15,0,1,,,,,0,58,0
12840,note_on,,,,,11,0,1,,,,,0,64,0
12840,note_on,,,,,0,0,1,,,,,0,79,0
12844,note_on,,,,,4,0,1,,,,,0,81,64
12844,note_on,,,,,0,0,1,,,,,0,65,64
12870,note_on,,,,,26,0,1,,,,,0,65,0
12870,note_on,,,,,0,0,1,,,,,0,81,0
12874,note_on,,,,,0,0,1,,,,,0,64,64
12874,note_on,,,,,4,0,1,,,,,0,79,64
12900,note_on,,,,,26,0,1,,,,,0,64,0
12900,note_on,,,,,0,0,1,,,,,0,79,0
12904,note_on,,,,,4,0,1,,,,,0,81,64
12904,note_on,,,,,0,0,1,,,,,0,65,64
12904,note_on,,,,,0,0,1,,,,,0,57,64
12934,note_on,,,,,30,0,1,,,,,0,72,64
12956,note_on,,,,,22,0,1,,,,,0,57,0
12956,note_on,,,,,0,0,1,,,,,0,81,0
12960,note_on,,,,,4,0,1,,,,,0,72,0
12964,note_on,,,,,0,0,1,,,,,0,70,64
12964,note_on,,,,,0,0,1,,,,,0,62,64
12964,note_on,,,,,4,0,1,,,,,0,81,64
12990,note_on,,,,,26,0,1,,,,,0,70,0
12994,note_on,,,,,4,0,1,,,,,0,72,64
13016,note_on,,,,,22,0,1,,,,,0,81,0
13020,note_on,,,,,4,0,1,,,,,0,72,0
13024,note_on,,,,,0,0,1,,,,,0,70,64
13024,note_on,,,,,4,0,1,,,,,0,74,64
13050,note_on,,,,,26,0,1,,,,,0,70,0
13054,note_on,,,,,4,0,1,,,,,0,69,64
13069,note_on,,,,,15,0,1,,,,,0,62,0
13069,note_on,,,,,0,0,1,,,,,0,65,0
13076,note_on,,,,,7,0,1,,,,,0,74,0
13080,note_on,,,,,4,0,1,,,,,0,69,0
13084,note_on,,,,,0,0,1,,,,,0,58,64
13084,note_on,,,,,0,0,1,,,,,0,62,64
13084,note_on,,,,,4,0,1,,,,,0,67,64
13114,note_on,,,,,30,0,1,,,,,0,74,64
13140,note_on,,,,,26,0,1,,,,,0,74,0
13144,note_on,,,,,4,0,1,,,,,0,76,64
13170,note_on,,,,,26,0,1,,,,,0,76,0
13174,note_on,,,,,4,0,1,,,,,0,77,64
13189,note_on,,,,,15,0,1,,,,,0,58,0
13189,note_on,,,,,0,0,1,,,,,0,67,0
13189,note_on,,,,,0,0,1,,,,,0,62,0
13200,note_on,,,,,11,0,1,,,,,0,77,0
13204,note_on,,,,,4,0,1,,,,,0,79,64
13204,note_on,,,,,0,0,1,,,,,0,64,64
13230,note_on,,,,,26,0,1,,,,,0,79,0
13234,note_on,,,,,4,0,1,,,,,0,77,64
13260,note_on,,,,,26,0,1,,,,,0,77,0
13264,note_on,,,,,4,0,1,,,,,0,79,64
13264,note_on,,,,,0,0,1,,,,,0,55,64
13294,note_on,,,,,30,0,1,,,,,0,70,64
13316,note_on,,,,,22,0,1,,,,,0,55,0
13316,note_on,,,,,0,0,1,,,,,0,79,0
13320,note_on,,,,,4,0,1,,,,,0,70,0
13324,note_on,,,,,0,0,1,,,,,0,60,64
13324,note_on,,,,,0,0,1,,,,,0,69,64
13324,note_on,,,,,4,0,1,,,,,0,79,64
13350,note_on,,,,,26,0,1,,,,,0,69,0
13354,note_on,,,,,4,0,1,,,,,0,70,64
13376,note_on,,,,,22,0,1,,,,,0,79,0
13380,note_on,,,,,4,0,1,,,,,0,70,0
13384,note_on,,,,,4,0,1,,,,,0,72,64
13384,note_on,,,,,0,0,1,,,,,0,69,64
13410,note_on,,,,,26,0,1,,,,,0,69,0
13414,note_on,,,,,4,0,1,,,,,0,67,64
13429,note_on,,,,,15,0,1,,,,,0,60,0
13429,note_on,,,,,0,0,1,,,,,0,64,0
13436,note_on,,,,,7,0,1,,,,,0,72,0
13440,note_on,,,,,4,0,1,,,,,0,67,0
13444,note_on,,,,,0,0,1,,,,,0,60,64
13444,note_on,,,,,4,0,1,,,,,0,65,64
13444,note_on,,,,,0,0,1,,,,,0,57,64
13474,note_on,,,,,30,0,1,,,,,0,72,64
13500,note_on,,,,,26,0,1,,,,,0,72,0
13504,note_on,,,,,4,0,1,,,,,0,74,64
13530,note_on,,,,,26,0,1,,,,,0,74,0
13534,note_on,,,,,4,0,1,,,,,0,76,64
13549,note_on,,,,,15,0,1,,,,,0,57,0
13549,note_on,,,,,0,0,1,,,,,0,65,0
13549,note_on,,,,,0,0,1,,,,,0,60,0
13560,note_on,,,,,11,0,1,,,,,0,76,0
13564,note_on,,,,,0,0,1,,,,,0,62,64
13564,note_on,,,,,4,0,1,,,,,0,77,64
13590,note_on,,,,,26,0,1,,,,,0,77,0
13594,note_on,,,,,4,0,1,,,,,0,76,64
13620,note_on,,,,,26,0,1,,,,,0,76,0
13624,note_on,,,,,4,0,1,,,,,0,77,64
13624,note_on,,,,,0,0,1,,,,,0,53,64
13654,note_on,,,,,30,0,1,,,,,0,69,64
13676,note_on,,,,,22,0,1,,,,,0,53,0
13680,note_on,,,,,4,0,1,,,,,0,69,0
13684,note_on,,,,,4,0,1,,,,,0,67,64
13684,note_on,,,,,0,0,1,,,,,0,58,64
13710,note_on,,,,,26,0,1,,,,,0,77,0
13714,note_on,,,,,4,0,1,,,,,0,74,64
13736,note_on,,,,,22,0,1,,,,,0,58,0
13740,note_on,,,,,4,0,1,,,,,0,74,0
13744,note_on,,,,,4,0,1,,,,,0,76,64
13744,note_on,,,,,0,0,1,,,,,0,58,64
13770,note_on,,,,,26,0,1,,,,,0,76,0
13774,note_on,,,,,4,0,1,,,,,0,77,64
13796,note_on,,,,,22,0,1,,,,,0,58,0
13800,note_on,,,,,4,0,1,,,,,0,77,0
13804,note_on,,,,,0,0,1,,,,,0,58,64
13804,note_on,,,,,4,0,1,,,,,0,79,64
13830,note_on,,,,,26,0,1,,,,,0,79,0
13834,note_on,,,,,4,0,1,,,,,0,81,64
13856,note_on,,,,,22,0,1,,,,,0,58,0
13860,note_on,,,,,4,0,1,,,,,0,81,0
13864,note_on,,,,,4,0,1,,,,,0,82,64
13864,note_on,,,,,0,0,1,,,,,0,58,64
13890,note_on,,,,,26,0,1,,,,,0,82,0
13894,note_on,,,,,4,0,1,,,,,0,79,64
13909,note_on,,,,,15,0,1,,,,,0,62,0
13916,note_on,,,,,7,0,1,,,,,0,58,0
13920,note_on,,,,,4,0,1,,,,,0,79,0
13924,note_on,,,,,0,0,1,,,,,0,60,64
13924,note_on,,,,,0,0,1,,,,,0,58,64
13924,note_on,,,,,4,0,1,,,,,0,77,64
13950,note_on,,,,,26,0,1,,,,,0,77,0
13954,note_on,,,,,4,0,1,,,,,0,76,64
13976,note_on,,,,,22,0,1,,,,,0,58,0
13980,note_on,,,,,4,0,1,,,,,0,76,0
13984,note_on,,,,,4,0,1,,,,,0,74,64
13984,note_on,,,,,0,0,1,,,,,0,58,64
14010,note_on,,,,,26,0,1,,,,,0,74,0
14014,note_on,,,,,4,0,1,,,,,0,72,64
14029,note_on,,,,,15,0,1,,,,,0,67,0
14036,note_on,,,,,7,0,1,,,,,0,58,0
14040,note_on,,,,,4,0,1,,,,,0,72,0
14044,note_on,,,,,0,0,1,,,,,0,58,64
14044,note_on,,,,,0,0,1,,,,,0,65,64
14044,note_on,,,,,4,0,1,,,,,0,77,64
14096,note_on,,,,,52,0,1,,,,,0,58,0
14096,note_on,,,,,0,0,1,,,,,0,77,0
14104,note_on,,,,,8,0,1,,,,,0,72,64
14104,note_on,,,,,0,0,1,,,,,0,57,64
14130,note_on,,,,,26,0,1,,,,,0,57,0
14134,note_on,,,,,4,0,1,,,,,0,55,64
14149,note_on,,,,,0,0,1,,,,,0,65,0
14149,note_on,,,,,15,0,1,,,,,0,60,0
14156,note_on,,,,,7,0,1,,,,,0,72,0
14160,note_on,,,,,4,0,1,,,,,0,55,0
14164,note_on,,,,,4,0,1,,,,,0,77,64
14164,note_on,,,,,0,0,1,,,,,0,57,64
14190,note_on,,,,,26,0,1,,,,,0,57,0
14194,note_on,,,,,4,0,1,,,,,0,53,64
14216,note_on,,,,,22,0,1,,,,,0,77,0
14220,note_on,,,,,4,0,1,,,,,0,53,0
14224,note_on,,,,,0,0,1,,,,,0,57,64
14224,note_on,,,,,4,0,1,,,,,0,75,64
14250,note_on,,,,,26,0,1,,,,,0,57,0
14250,note_on,,,,,0,0,1,,,,,0,75,0
14254,note_on,,,,,4,0,1,,,,,0,74,64
14254,note_on,,,,,0,0,1,,,,,0,59,64
14280,note_on,,,,,26,0,1,,,,,0,59,0
14280,note_on,,,,,0,0,1,,,,,0,74,0
14284,note_on,,,,,0,0,1,,,,,0,60,64
14284,note_on,,,,,4,0,1,,,,,0,75,64
14310,note_on,,,,,26,0,1,,,,,0,60,0
14314,note_on,,,,,4,0,1,,,,,0,67,64
14314,note_on,,,,,0,0,1,,,,,0,59,64
14336,note_on,,,,,22,0,1,,,,,0,75,0
14340,note_on,,,,,0,0,1,,,,,0,67,0
14340,note_on,,,,,4,0,1,,,,,0,59,0
14344,note_on,,,,,0,0,1,,,,,0,60,64
14344,note_on,,,,,4,0,1,,,,,0,72,64
14344,note_on,,,,,0,0,1,,,,,0,68,64
14370,note_on,,,,,26,0,1,,,,,0,68,0
14374,note_on,,,,,4,0,1,,,,,0,67,64
14396,note_on,,,,,22,0,1,,,,,0,72,0
14400,note_on,,,,,4,0,1,,,,,0,67,0
14404,note_on,,,,,4,0,1,,,,,0,74,64
14404,note_on,,,,,0,0,1,,,,,0,65,64
14430,note_on,,,,,26,0,1,,,,,0,60,0
14434,note_on,,,,,4,0,1,,,,,0,60,64
14456,note_on,,,,,22,0,1,,,,,0,65,0
14456,note_on,,,,,0,0,1,,,,,0,74,0
14460,note_on,,,,,4,0,1,,,,,0,60,0
14464,note_on,,,,,0,0,1,,,,,0,59,64
14464,note_on,,,,,4,0,1,,,,,0,67,64
14464,note_on,,,,,0,0,1,,,,,0,62,64
14490,note_on,,,,,26,0,1,,,,,0,59,0
14494,note_on,,,,,4,0,1,,,,,0,57,64
14516,note_on,,,,,22,0,1,,,,,0,62,0
14516,note_on,,,,,0,0,1,,,,,0,67,0
14520,note_on,,,,,4,0,1,,,,,0,57,0
14524,note_on,,,,,4,0,1,,,,,0,79,64
14524,note_on,,,,,0,0,1,,,,,0,59,64
14550,note_on,,,,,26,0,1,,,,,0,59,0
14554,note_on,,,,,4,0,1,,,,,0,55,64
14576,note_on,,,,,22,0,1,,,,,0,79,0
14580,note_on,,,,,4,0,1,,,,,0,55,0
14584,note_on,,,,,4,0,1,,,,,0,77,64
14584,note_on,,,,,0,0,1,,,,,0,59,64
14610,note_on,,,,,26,0,1,,,,,0,59,0
14610,note_on,,,,,0,0,1,,,,,0,77,0
14614,note_on,,,,,4,0,1,,,,,0,75,64
14614,note_on,,,,,0,0,1,,,,,0,60,64
14640,note_on,,,,,26,0,1,,,,,0,60,0
14640,note_on,,,,,0,0,1,,,,,0,75,0
14644,note_on,,,,,4,0,1,,,,,0,77,64
14644,note_on,,,,,0,0,1,,,,,0,62,64
14670,note_on,,,,,26,0,1,,,,,0,62,0
14674,note_on,,,,,4,0,1,,,,,0,69,64
14674,note_on,,,,,0,0,1,,,,,0,60,64
14696,note_on,,,,,22,0,1,,,,,0,77,0
14700,note_on,,,,,4,0,1,,,,,0,60,0
14700,note_on,,,,,0,0,1,,,,,0,69,0
14704,note_on,,,,,4,0,1,,,,,0,74,64
14704,note_on,,,,,0,0,1,,,,,0,71,64
14704,note_on,,,,,0,0,1,,,,,0,62,64
14730,note_on,,,,,26,0,1,,,,,0,71,0
14734,note_on,,,,,4,0,1,,,,,0,69,64
14756,note_on,,,,,22,0,1,,,,,0,74,0
14760,note_on,,,,,4,0,1,,,,,0,69,0
14764,note_on,,,,,4,0,1,,,,,0,75,64
14764,note_on,,,,,0,0,1,,,,,0,67,64
14790,note_on,,,,,26,0,1,,,,,0,62,0
14794,note_on,,,,,4,0,1,,,,,0,55,64
14816,note_on,,,,,0,0,1,,,,,0,75,0
14816,note_on,,,,,22,0,1,,,,,0,67,0
14820,note_on,,,,,4,0,1,,,,,0,55,0
14824,note_on,,,,,4,0,1,,,,,0,72,64
14824,note_on,,,,,0,0,1,,,,,0,63,64
14824,note_on,,,,,0,0,1,,,,,0,60,64
14850,note_on,,,,,26,0,1,,,,,0,60,0
14854,note_on,,,,,4,0,1,,,,,0,59,64
14876,note_on,,,,,22,0,1,,,,,0,63,0
14876,note_on,,,,,0,0,1,,,,,0,72,0
14880,note_on,,,,,4,0,1,,,,,0,59,0
14884,note_on,,,,,4,0,1,,,,,0,80,64
14884,note_on,,,,,0,0,1,,,,,0,60,64
14910,note_on,,,,,26,0,1,,,,,0,60,0
14914,note_on,,,,,4,0,1,,,,,0,55,64
14936,note_on,,,,,22,0,1,,,,,0,80,0
14940,note_on,,,,,4,0,1,,,,,0,55,0
14944,note_on,,,,,4,0,1,,,,,0,79,64
14944,note_on,,,,,0,0,1,,,,,0,60,64
14970,note_on,,,,,26,0,1,,,,,0,60,0
14970,note_on,,,,,0,0,1,,,,,0,79,0
14974,note_on,,,,,4,0,1,,,,,0,77,64
14974,note_on,,,,,0,0,1,,,,,0,62,64
15000,note_on,,,,,26,0,1,,,,,0,62,0
15000,note_on,,,,,0,0,1,,,,,0,77,0
15004,note_on,,,,,4,0,1,,,,,0,79,64
15004,note_on,,,,,0,0,1,,,,,0,63,64
15030,note_on,,,,,26,0,1,,,,,0,63,0
15034,note_on,,,,,4,0,1,,,,,0,71,64
15034,note_on,,,,,0,0,1,,,,,0,62,64
15056,note_on,,,,,22,0,1,,,,,0,79,0
15060,note_on,,,,,4,0,1,,,,,0,62,0
15060,note_on,,,,,0,0,1,,,,,0,71,0
15064,note_on,,,,,4,0,1,,,,,0,75,64
15064,note_on,,,,,0,0,1,,,,,0,72,64
15064,note_on,,,,,0,0,1,,,,,0,63,64
15090,note_on,,,,,26,0,1,,,,,0,72,0
15094,note_on,,,,,4,0,1,,,,,0,70,64
15116,note_on,,,,,22,0,1,,,,,0,75,0
15120,note_on,,,,,4,0,1,,,,,0,70,0
15124,note_on,,,,,4,0,1,,,,,0,77,64
15124,note_on,,,,,0,0,1,,,,,0,68,64
15150,note_on,,,,,26,0,1,,,,,0,68,0
15154,note_on,,,,,4,0,1,,,,,0,67,64
15180,note_on,,,,,26,0,1,,,,,0,67,0
15184,note_on,,,,,4,0,1,,,,,0,68,64
15202,note_on,,,,,18,0,1,,,,,0,63,0
15214,note_on,,,,,12,0,1,,,,,0,63,64
15240,note_on,,,,,26,0,1,,,,,0,63,0
15244,note_on,,,,,4,0,1,,,,,0,62,64
15270,note_on,,,,,26,0,1,,,,,0,68,0
15274,note_on,,,,,4,0,1,,,,,0,67,64
15300,note_on,,,,,26,0,1,,,,,0,67,0
15304,note_on,,,,,4,0,1,,,,,0,68,64
15322,note_on,,,,,18,0,1,,,,,0,62,0
15334,note_on,,,,,12,0,1,,,,,0,60,64
15360,note_on,,,,,26,0,1,,,,,0,60,0
15364,note_on,,,,,4,0,1,,,,,0,59,64
15390,note_on,,,,,26,0,1,,,,,0,77,0
15394,note_on,,,,,4,0,1,,,,,0,75,64
15420,note_on,,,,,26,0,1,,,,,0,75,0
15424,note_on,,,,,4,0,1,,,,,0,74,64
15442,note_on,,,,,18,0,1,,,,,0,59,0
15450,note_on,,,,,8,0,1,,,,,0,74,0
15454,note_on,,,,,0,0,1,,,,,0,62,64
15454,note_on,,,,,4,0,1,,,,,0,72,64
15480,note_on,,,,,26,0,1,,,,,0,62,0
15480,note_on,,,,,0,0,1,,,,,0,72,0
15484,note_on,,,,,4,0,1,,,,,0,71,64
15484,note_on,,,,,0,0,1,,,,,0,55,64
15510,note_on,,,,,26,0,1,,,,,0,68,0
15514,note_on,,,,,4,0,1,,,,,0,68,64
15536,note_on,,,,,22,0,1,,,,,0,55,0
15536,note_on,,,,,0,0,1,,,,,0,71,0
15540,note_on,,,,,4,0,1,,,,,0,68,0
15544,note_on,,,,,0,0,1,,,,,0,59,64
15544,note_on,,,,,0,0,1,,,,,0,67,64
15544,note_on,,,,,4,0,1,,,,,0,74,64
15570,note_on,,,,,26,0,1,,,,,0,67,0
15574,note_on,,,,,4,0,1,,,,,0,65,64
15596,note_on,,,,,22,0,1,,,,,0,59,0
15600,note_on,,,,,4,0,1,,,,,0,65,0
15604,note_on,,,,,4,0,1,,,,,0,63,64
15604,note_on,,,,,0,0,1,,,,,0,60,64
15630,note_on,,,,,26,0,1,,,,,0,74,0
15634,note_on,,,,,4,0,1,,,,,0,67,64
15656,note_on,,,,,22,0,1,,,,,0,60,0
15660,note_on,,,,,4,0,1,,,,,0,67,0
15664,note_on,,,,,0,0,1,,,,,0,56,64
15664,note_on,,,,,4,0,1,,,,,0,72,64
15682,note_on,,,,,18,0,1,,,,,0,63,0
15694,note_on,,,,,12,0,1,,,,,0,63,64
15716,note_on,,,,,22,0,1,,,,,0,56,0
15720,note_on,,,,,4,0,1,,,,,0,63,0
15724,note_on,,,,,0,0,1,,,,,0,53,64
15724,note_on,,,,,4,0,1,,,,,0,62,64
15750,note_on,,,,,26,0,1,,,,,0,72,0
15754,note_on,,,,,4,0,1,,,,,0,72,64
15776,note_on,,,,,22,0,1,,,,,0,53,0
15780,note_on,,,,,4,0,1,,,,,0,72,0
15784,note_on,,,,,4,0,1,,,,,0,71,64
15784,note_on,,,,,0,0,1,,,,,0,55,64
15802,note_on,,,,,18,0,1,,,,,0,62,0
15814,note_on,,,,,12,0,1,,,,,0,65,64
15836,note_on,,,,,22,0,1,,,,,0,55,0
15836,note_on,,,,,0,0,1,,,,,0,71,0
15844,note_on,,,,,8,0,1,,,,,0,48,64
15844,note_on,,,,,0,0,1,,,,,0,72,64
15870,note_on,,,,,26,0,1,,,,,0,65,0
15874,note_on,,,,,4,0,1,,,,,0,65,64
15895,note_on,,,,,21,0,1,,,,,0,48,0
15900,note_on,,,,,5,0,1,,,,,0,65,0
15904,note_on,,,,,4,0,1,,,,,0,63,64
15908,note_on,,,,,4,0,1,,,,,0,36,64
15930,note_on,,,,,22,0,1,,,,,0,63,0
15934,note_on,,,,,4,0,1,,,,,0,62,64
15949,note_on,,,,,15,0,1,,,,,0,72,0
15959,note_on,,,,,10,0,1,,,,,0,36,0
15960,note_on,,,,,1,0,1,,,,,0,62,0
15964,note_on,,,,,4,0,1,,,,,0,63,64
15964,note_on,,,,,0,0,1,,,,,0,60,64
15994,note_on,,,,,30,0,1,,,,,0,70,64
15994,note_on,,,,,0,0,1,,,,,0,48,64
16020,note_on,,,,,26,0,1,,,,,0,48,0
16020,note_on,,,,,0,0,1,,,,,0,70,0
16024,note_on,,,,,4,0,1,,,,,0,69,64
16024,note_on,,,,,0,0,1,,,,,0,50,64
16050,note_on,,,,,26,0,1,,,,,0,50,0
16050,note_on,,,,,0,0,1,,,,,0,69,0
16054,note_on,,,,,0,0,1,,,,,0,51,64
16054,note_on,,,,,4,0,1,,,,,0,67,64
16069,note_on,,,,,15,0,1,,,,,0,60,0
16069,note_on,,,,,0,0,1,,,,,0,63,0
16080,note_on,,,,,0,0,1,,,,,0,51,0
16080,note_on,,,,,11,0,1,,,,,0,67,0
16084,note_on,,,,,4,0,1,,,,,0,69,64
16084,note_on,,,,,0,0,1,,,,,0,53,64
16110,note_on,,,,,26,0,1,,,,,0,53,0
16114,note_on,,,,,4,0,1,,,,,0,51,64
16140,note_on,,,,,26,0,1,,,,,0,51,0
16144,note_on,,,,,0,0,1,,,,,0,57,64
16144,note_on,,,,,4,0,1,,,,,0,60,64
16144,note_on,,,,,0,0,1,,,,,0,53,64
16196,note_on,,,,,52,0,1,,,,,0,53,0
16196,note_on,,,,,0,0,1,,,,,0,57,0
16196,note_on,,,,,0,0,1,,,,,0,60,0
16204,note_on,,,,,8,0,1,,,,,0,65,64
16204,note_on,,,,,0,0,1,,,,,0,62,64
16204,note_on,,,,,0,0,1,,,,,0,53,64
16230,note_on,,,,,26,0,1,,,,,0,69,0
16234,note_on,,,,,4,0,1,,,,,0,67,64
16256,note_on,,,,,22,0,1,,,,,0,53,0
16260,note_on,,,,,4,0,1,,,,,0,67,0
16264,note_on,,,,,0,0,1,,,,,0,46,64
16264,note_on,,,,,4,0,1,,,,,0,69,64
16290,note_on,,,,,26,0,1,,,,,0,69,0
16294,note_on,,,,,4,0,1,,,,,0,70,64
16309,note_on,,,,,15,0,1,,,,,0,65,0
16309,note_on,,,,,0,0,1,,,,,0,62,0
16316,note_on,,,,,7,0,1,,,,,0,46,0
16320,note_on,,,,,4,0,1,,,,,0,70,0
16324,note_on,,,,,4,0,1,,,,,0,67,64
16324,note_on,,,,,0,0,1,,,,,0,62,64
16324,note_on,,,,,0,0,1,,,,,0,58,64
16354,note_on,,,,,30,0,1,,,,,0,46,64
16380,note_on,,,,,26,0,1,,,,,0,46,0
16384,note_on,,,,,4,0,1,,,,,0,48,64
16410,note_on,,,,,26,0,1,,,,,0,48,0
16414,note_on,,,,,4,0,1,,,,,0,50,64
16429,note_on,,,,,15,0,1,,,,,0,58,0
16429,note_on,,,,,0,0,1,,,,,0,62,0
16440,note_on,,,,,11,0,1,,,,,0,50,0
16444,note_on,,,,,4,0,1,,,,,0,51,64
16470,note_on,,,,,26,0,1,,,,,0,51,0
16474,note_on,,,,,4,0,1,,,,,0,50,64
16500,note_on,,,,,26,0,1,,,,,0,50,0
16504,note_on,,,,,4,0,1,,,,,0,58,64
16504,note_on,,,,,0,0,1,,,,,0,55,64
16504,note_on,,,,,0,0,1,,,,,0,51,64
16556,note_on,,,,,52,0,1,,,,,0,51,0
16556,note_on,,,,,0,0,1,,,,,0,58,0
16556,note_on,,,,,0,0,1,,,,,0,55,0
16564,note_on,,,,,0,0,1,,,,,0,51,64
16564,note_on,,,,,8,0,1,,,,,0,63,64
16564,note_on,,,,,0,0,1,,,,,0,60,64
16590,note_on,,,,,26,0,1,,,,,0,67,0
16594,note_on,,,,,4,0,1,,,,,0,65,64
16616,note_on,,,,,22,0,1,,,,,0,51,0
16620,note_on,,,,,4,0,1,,,,,0,65,0
16624,note_on,,,,,4,0,1,,,,,0,67,64
16624,note_on,,,,,0,0,1,,,,,0,45,64
16650,note_on,,,,,26,0,1,,,,,0,67,0
16654,note_on,,,,,4,0,1,,,,,0,69,64
16669,note_on,,,,,15,0,1,,,,,0,63,0
16669,note_on,,,,,0,0,1,,,,,0,60,0
16676,note_on,,,,,7,0,1,,,,,0,45,0
16680,note_on,,,,,4,0,1,,,,,0,69,0
16684,note_on,,,,,4,0,1,,,,,0,65,64
16684,note_on,,,,,0,0,1,,,,,0,60,64
16684,note_on,,,,,0,0,1,,,,,0,57,64
16714,note_on,,,,,30,0,1,,,,,0,45,64
16740,note_on,,,,,26,0,1,,,,,0,45,0
16744,note_on,,,,,4,0,1,,,,,0,46,64
16770,note_on,,,,,26,0,1,,,,,0,46,0
16774,note_on,,,,,4,0,1,,,,,0,48,64
16789,note_on,,,,,0,0,1,,,,,0,60,0
16789,note_on,,,,,15,0,1,,,,,0,57,0
16800,note_on,,,,,11,0,1,,,,,0,48,0
16804,note_on,,,,,4,0,1,,,,,0,50,64
16830,note_on,,,,,26,0,1,,,,,0,50,0
16834,note_on,,,,,4,0,1,,,,,0,48,64
16860,note_on,,,,,26,0,1,,,,,0,48,0
16864,note_on,,,,,4,0,1,,,,,0,57,64
16864,note_on,,,,,0,0,1,,,,,0,53,64
16864,note_on,,,,,0,0,1,,,,,0,50,64
16916,note_on,,,,,52,0,1,,,,,0,53,0
16916,note_on,,,,,0,0,1,,,,,0,57,0
16924,note_on,,,,,8,0,1,,,,,0,62,64
16924,note_on,,,,,0,0,1,,,,,0,58,64
16950,note_on,,,,,26,0,1,,,,,0,50,0
16954,note_on,,,,,4,0,1,,,,,0,48,64
16976,note_on,,,,,22,0,1,,,,,0,58,0
16976,note_on,,,,,0,0,1,,,,,0,62,0
16980,note_on,,,,,4,0,1,,,,,0,48,0
16984,note_on,,,,,4,0,1,,,,,0,62,64
16984,note_on,,,,,0,0,1,,,,,0,58,64
16984,note_on,,,,,0,0,1,,,,,0,50,64
17002,note_on,,,,,18,0,1,,,,,0,65,0
17010,note_on,,,,,8,0,1,,,,,0,50,0
17014,note_on,,,,,4,0,1,,,,,0,69,64
17014,note_on,,,,,0,0,1,,,,,0,48,64
17036,note_on,,,,,22,0,1,,,,,0,58,0
17036,note_on,,,,,0,0,1,,,,,0,62,0
17040,note_on,,,,,4,0,1,,,,,0,69,0
17040,note_on,,,,,0,0,1,,,,,0,48,0
17044,note_on,,,,,4,0,1,,,,,0,67,64
17044,note_on,,,,,0,0,1,,,,,0,62,64
17044,note_on,,,,,0,0,1,,,,,0,58,64
17044,note_on,,,,,0,0,1,,,,,0,46,64
17070,note_on,,,,,26,0,1,,,,,0,46,0
17074,note_on,,,,,4,0,1,,,,,0,45,64
17096,note_on,,,,,22,0,1,,,,,0,58,0
17096,note_on,,,,,0,0,1,,,,,0,62,0
17100,note_on,,,,,4,0,1,,,,,0,45,0
17104,note_on,,,,,4,0,1,,,,,0,62,64
17104,note_on,,,,,0,0,1,,,,,0,58,64
17104,note_on,,,,,0,0,1,,,,,0,46,64
17122,note_on,,,,,18,0,1,,,,,0,67,0
17130,note_on,,,,,8,0,1,,,,,0,46,0
17134,note_on,,,,,4,0,1,,,,,0,65,64
17134,note_on,,,,,0,0,1,,,,,0,45,64
17156,note_on,,,,,0,0,1,,,,,0,62,0
17156,note_on,,,,,22,0,1,,,,,0,58,0
17160,note_on,,,,,4,0,1,,,,,0,65,0
17160,note_on,,,,,0,0,1,,,,,0,45,0
17164,note_on,,,,,0,0,1,,,,,0,43,64
17164,note_on,,,,,4,0,1,,,,,0,70,64
17164,note_on,,,,,0,0,1,,,,,0,62,64
17164,note_on,,,,,0,0,1,,,,,0,58,64
17190,note_on,,,,,26,0,1,,,,,0,43,0
17194,note_on,,,,,4,0,1,,,,,0,41,64
17216,note_on,,,,,0,0,1,,,,,0,62,0
17216,note_on,,,,,22,0,1,,,,,0,58,0
17220,note_on,,,,,4,0,1,,,,,0,41,0
17224,note_on,,,,,4,0,1,,,,,0,62,64
17224,note_on,,,,,0,0,1,,,,,0,58,64
17224,note_on,,,,,0,0,1,,,,,0,43,64
17242,note_on,,,,,18,0,1,,,,,0,70,0
17250,note_on,,,,,8,0,1,,,,,0,43,0
17254,note_on,,,,,4,0,1,,,,,0,69,64
17254,note_on,,,,,0,0,1,,,,,0,41,64
17276,note_on,,,,,22,0,1,,,,,0,58,0
17276,note_on,,,,,0,0,1,,,,,0,62,0
17280,note_on,,,,,0,0,1,,,,,0,41,0
17280,note_on,,,,,4,0,1,,,,,0,69,0
17284,note_on,,,,,4,0,1,,,,,0,67,64
17284,note_on,,,,,0,0,1,,,,,0,62,64
17284,note_on,,,,,0,0,1,,,,,0,58,64
17284,note_on,,,,,0,0,1,,,,,0,40,64
17310,note_on,,,,,26,0,1,,,,,0,40,0
17314,note_on,,,,,4,0,1,,,,,0,36,64
17336,note_on,,,,,22,0,1,,,,,0,58,0
17336,note_on,,,,,0,0,1,,,,,0,62,0
17340,note_on,,,,,4,0,1,,,,,0,36,0
17344,note_on,,,,,0,0,1,,,,,0,57,64
17344,note_on,,,,,0,0,1,,,,,0,38,64
17344,note_on,,,,,4,0,1,,,,,0,60,64
17370,note_on,,,,,0,0,1,,,,,0,57,0
17370,note_on,,,,,26,0,1,,,,,0,38,0
17374,note_on,,,,,0,0,1,,,,,0,40,64
17374,note_on,,,,,4,0,1,,,,,0,55,64
17389,note_on,,,,,15,0,1,,,,,0,67,0
17396,note_on,,,,,7,0,1,,,,,0,60,0
17400,note_on,,,,,0,0,1,,,,,0,40,0
17400,note_on,,,,,4,0,1,,,,,0,55,0
17404,note_on,,,,,0,0,1,,,,,0,41,64
17404,note_on,,,,,0,0,1,,,,,0,57,64
17404,note_on,,,,,4,0,1,,,,,0,65,64
17430,note_on,,,,,0,0,1,,,,,0,57,0
17430,note_on,,,,,26,0,1,,,,,0,41,0
17434,note_on,,,,,4,0,1,,,,,0,55,64
17434,note_on,,,,,0,0,1,,,,,0,36,64
17456,note_on,,,,,22,0,1,,,,,0,65,0
17460,note_on,,,,,4,0,1,,,,,0,36,0
17460,note_on,,,,,0,0,1,,,,,0,55,0
17464,note_on,,,,,4,0,1,,,,,0,57,64
17464,note_on,,,,,0,0,1,,,,,0,41,64
17490,note_on,,,,,26,0,1,,,,,0,41,0
17490,note_on,,,,,0,0,1,,,,,0,57,0
17494,note_on,,,,,0,0,1,,,,,0,43,64
17494,note_on,,,,,4,0,1,,,,,0,59,64
17520,note_on,,,,,0,0,1,,,,,0,59,0
17520,note_on,,,,,26,0,1,,,,,0,43,0
17524,note_on,,,,,4,0,1,,,,,0,60,64
17524,note_on,,,,,0,0,1,,,,,0,44,64
17550,note_on,,,,,26,0,1,,,,,0,60,0
17554,note_on,,,,,4,0,1,,,,,0,59,64
17576,note_on,,,,,22,0,1,,,,,0,44,0
17580,note_on,,,,,4,0,1,,,,,0,59,0
17584,note_on,,,,,4,0,1,,,,,0,60,64
17584,note_on,,,,,0,0,1,,,,,0,38,64
17614,note_on,,,,,30,0,1,,,,,0,65,64
17636,note_on,,,,,22,0,1,,,,,0,38,0
17640,note_on,,,,,4,0,1,,,,,0,65,0
17644,note_on,,,,,4,0,1,,,,,0,63,64
17644,note_on,,,,,0,0,1,,,,,0,43,64
17670,note_on,,,,,26,0,1,,,,,0,43,0
17674,note_on,,,,,4,0,1,,,,,0,42,64
17696,note_on,,,,,0,0,1,,,,,0,60,0
17696,note_on,,,,,22,0,1,,,,,0,63,0
17700,note_on,,,,,4,0,1,,,,,0,42,0
17704,note_on,,,,,0,0,1,,,,,0,43,64
17704,note_on,,,,,0,0,1,,,,,0,59,64
17704,note_on,,,,,4,0,1,,,,,0,62,64
17730,note_on,,,,,0,0,1,,,,,0,59,0
17730,note_on,,,,,26,0,1,,,,,0,43,0
17734,note_on,,,,,4,0,1,,,,,0,57,64
17734,note_on,,,,,0,0,1,,,,,0,45,64
17756,note_on,,,,,22,0,1,,,,,0,62,0
17760,note_on,,,,,0,0,1,,,,,0,57,0
17760,note_on,,,,,4,0,1,,,,,0,45,0
17764,note_on,,,,,0,0,1,,,,,0,47,64
17764,note_on,,,,,4,0,1,,,,,0,55,64
17790,note_on,,,,,0,0,1,,,,,0,55,0
17790,note_on,,,,,26,0,1,,,,,0,47,0
17794,note_on,,,,,4,0,1,,,,,0,50,64
17794,note_on,,,,,0,0,1,,,,,0,45,64
17820,note_on,,,,,26,0,1,,,,,0,45,0
17820,note_on,,,,,0,0,1,,,,,0,50,0
17824,note_on,,,,,4,0,1,,,,,0,55,64
17824,note_on,,,,,0,0,1,,,,,0,47,64
17850,note_on,,,,,26,0,1,,,,,0,47,0
17850,note_on,,,,,0,0,1,,,,,0,55,0
17854,note_on,,,,,0,0,1,,,,,0,50,64
17854,note_on,,,,,4,0,1,,,,,0,57,64
17880,note_on,,,,,26,0,1,,,,,0,50,0
17880,note_on,,,,,0,0,1,,,,,0,57,0
17884,note_on,,,,,4,0,1,,,,,0,59,64
17884,note_on,,,,,0,0,1,,,,,0,55,64
17910,note_on,,,,,26,0,1,,,,,0,59,0
17914,note_on,,,,,4,0,1,,,,,0,60,64
17936,note_on,,,,,22,0,1,,,,,0,55,0
17940,note_on,,,,,4,0,1,,,,,0,60,0
17944,note_on,,,,,4,0,1,,,,,0,62,64
17944,note_on,,,,,0,0,1,,,,,0,47,64
17974,note_on,,,,,30,0,1,,,,,0,67,64
17996,note_on,,,,,22,0,1,,,,,0,47,0
18000,note_on,,,,,4,0,1,,,,,0,67,0
18004,note_on,,,,,4,0,1,,,,,0,65,64
18004,note_on,,,,,0,0,1,,,,,0,48,64
18030,note_on,,,,,26,0,1,,,,,0,48,0
18034,note_on,,,,,4,0,1,,,,,0,60,64
18056,note_on,,,,,22,0,1,,,,,0,65,0
18056,note_on,,,,,0,0,1,,,,,0,62,0
18060,note_on,,,,,4,0,1,,,,,0,60,0
18064,note_on,,,,,0,0,1,,,,,0,55,64
18064,note_on,,,,,0,0,1,,,,,0,60,64
18064,note_on,,,,,4,0,1,,,,,0,63,64
18090,note_on,,,,,26,0,1,,,,,0,55,0
18090,note_on,,,,,0,0,1,,,,,0,63,0
18094,note_on,,,,,4,0,1,,,,,0,65,64
18094,note_on,,,,,0,0,1,,,,,0,51,64
18116,note_on,,,,,22,0,1,,,,,0,60,0
18120,note_on,,,,,4,0,1,,,,,0,51,0
18120,note_on,,,,,0,0,1,,,,,0,65,0
18124,note_on,,,,,4,0,1,,,,,0,75,64
18124,note_on,,,,,0,0,1,,,,,0,67,64
18124,note_on,,,,,0,0,1,,,,,0,48,64
18154,note_on,,,,,30,0,1,,,,,0,55,64
18180,note_on,,,,,26,0,1,,,,,0,55,0
18184,note_on,,,,,4,0,1,,,,,0,57,64
18210,note_on,,,,,26,0,1,,,,,0,57,0
18214,note_on,,,,,4,0,1,,,,,0,59,64
18229,note_on,,,,,15,0,1,,,,,0,48,0
18229,note_on,,,,,0,0,1,,,,,0,75,0
18229,note_on,,,,,0,0,1,,,,,0,67,0
18240,note_on,,,,,11,0,1,,,,,0,59,0
18244,note_on,,,,,4,0,1,,,,,0,60,64
18270,note_on,,,,,26,0,1,,,,,0,60,0
18274,note_on,,,,,4,0,1,,,,,0,59,64
18300,note_on,,,,,26,0,1,,,,,0,59,0
18304,note_on,,,,,0,0,1,,,,,0,63,64
18304,note_on,,,,,0,0,1,,,,,0,60,64
18304,note_on,,,,,4,0,1,,,,,0,72,64
18334,note_on,,,,,30,0,1,,,,,0,56,64
18356,note_on,,,,,22,0,1,,,,,0,60,0
18356,note_on,,,,,0,0,1,,,,,0,72,0
18356,note_on,,,,,0,0,1,,,,,0,63,0
18364,note_on,,,,,8,0,1,,,,,0,77,64
18364,note_on,,,,,0,0,1,,,,,0,68,64
18364,note_on,,,,,0,0,1,,,,,0,60,64
18390,note_on,,,,,26,0,1,,,,,0,56,0
18394,note_on,,,,,4,0,1,,,,,0,50,64
18416,note_on,,,,,22,0,1,,,,,0,60,0
18424,note_on,,,,,8,0,1,,,,,0,53,64
18446,note_on,,,,,22,0,1,,,,,0,50,0
18454,note_on,,,,,8,0,1,,,,,0,56,64
18469,note_on,,,,,15,0,1,,,,,0,77,0
18469,note_on,,,,,0,0,1,,,,,0,68,0
18476,note_on,,,,,7,0,1,,,,,0,53,0
18480,note_on,,,,,4,0,1,,,,,0,56,0
18484,note_on,,,,,4,0,1,,,,,0,74,64
18484,note_on,,,,,0,0,1,,,,,0,65,64
18484,note_on,,,,,0,0,1,,,,,0,58,64
18514,note_on,,,,,30,0,1,,,,,0,53,64
18540,note_on,,,,,26,0,1,,,,,0,53,0
18544,note_on,,,,,4,0,1,,,,,0,55,64
18570,note_on,,,,,26,0,1,,,,,0,55,0
18574,note_on,,,,,4,0,1,,,,,0,56,64
18589,note_on,,,,,15,0,1,,,,,0,58,0
18589,note_on,,,,,0,0,1,,,,,0,74,0
18589,note_on,,,,,0,0,1,,,,,0,65,0
18600,note_on,,,,,11,0,1,,,,,0,56,0
18604,note_on,,,,,4,0,1,,,,,0,58,64
18630,note_on,,,,,26,0,1,,,,,0,58,0
18634,note_on,,,,,4,0,1,,,,,0,56,64
18660,note_on,,,,,26,0,1,,,,,0,56,0
18664,note_on,,,,,0,0,1,,,,,0,58,64
18664,note_on,,,,,4,0,1,,,,,0,70,64
18664,note_on,,,,,0,0,1,,,,,0,62,64
18694,note_on,,,,,30,0,1,,,,,0,55,64
18716,note_on,,,,,0,0,1,,,,,0,62,0
18716,note_on,,,,,22,0,1,,,,,0,58,0
18716,note_on,,,,,0,0,1,,,,,0,70,0
18724,note_on,,,,,8,0,1,,,,,0,75,64
18724,note_on,,,,,0,0,1,,,,,0,67,64
18724,note_on,,,,,0,0,1,,,,,0,58,64
18750,note_on,,,,,26,0,1,,,,,0,55,0
18754,note_on,,,,,4,0,1,,,,,0,48,64
18776,note_on,,,,,22,0,1,,,,,0,58,0
18784,note_on,,,,,8,0,1,,,,,0,51,64
18806,note_on,,,,,22,0,1,,,,,0,48,0
18814,note_on,,,,,8,0,1,,,,,0,55,64
18829,note_on,,,,,0,0,1,,,,,0,67,0
18829,note_on,,,,,15,0,1,,,,,0,75,0
18836,note_on,,,,,7,0,1,,,,,0,51,0
18840,note_on,,,,,4,0,1,,,,,0,55,0
18844,note_on,,,,,4,0,1,,,,,0,72,64
18844,note_on,,,,,0,0,1,,,,,0,63,64
18844,note_on,,,,,0,0,1,,,,,0,56,64
18874,note_on,,,,,30,0,1,,,,,0,51,64
18900,note_on,,,,,26,0,1,,,,,0,51,0
18904,note_on,,,,,4,0,1,,,,,0,53,64
18930,note_on,,,,,26,0,1,,,,,0,53,0
18934,note_on,,,,,4,0,1,,,,,0,55,64
18949,note_on,,,,,0,0,1,,,,,0,63,0
18949,note_on,,,,,0,0,1,,,,,0,72,0
18949,note_on,,,,,15,0,1,,,,,0,56,0
18960,note_on,,,,,11,0,1,,,,,0,55,0
18964,note_on,,,,,4,0,1,,,,,0,56,64
18990,note_on,,,,,26,0,1,,,,,0,56,0
18994,note_on,,,,,4,0,1,,,,,0,55,64
19020,note_on,,,,,26,0,1,,,,,0,55,0
19024,note_on,,,,,4,0,1,,,,,0,68,64
19024,note_on,,,,,0,0,1,,,,,0,60,64
19024,note_on,,,,,0,0,1,,,,,0,56,64
19054,note_on,,,,,30,0,1,,,,,0,53,64
19076,note_on,,,,,0,0,1,,,,,0,68,0
19076,note_on,,,,,22,0,1,,,,,0,60,0
19080,note_on,,,,,4,0,1,,,,,0,53,0
19084,note_on,,,,,4,0,1,,,,,0,74,64
19084,note_on,,,,,0,0,1,,,,,0,65,64
19084,note_on,,,,,0,0,1,,,,,0,47,64
19110,note_on,,,,,26,0,1,,,,,0,56,0
19114,note_on,,,,,4,0,1,,,,,0,55,64
19136,note_on,,,,,22,0,1,,,,,0,74,0
19136,note_on,,,,,0,0,1,,,,,0,65,0
19140,note_on,,,,,4,0,1,,,,,0,55,0
19144,note_on,,,,,4,0,1,,,,,0,74,64
19144,note_on,,,,,0,0,1,,,,,0,65,64
19144,note_on,,,,,0,0,1,,,,,0,56,64
19170,note_on,,,,,26,0,1,,,,,0,56,0
19174,note_on,,,,,4,0,1,,,,,0,55,64
19189,note_on,,,,,15,0,1,,,,,0,47,0
19196,note_on,,,,,7,0,1,,,,,0,74,0
19196,note_on,,,,,0,0,1,,,,,0,65,0
19200,note_on,,,,,4,0,1,,,,,0,55,0
19204,note_on,,,,,4,0,1,,,,,0,74,64
19204,note_on,,,,,0,0,1,,,,,0,65,64
19204,note_on,,,,,0,0,1,,,,,0,53,64
19230,note_on,,,,,26,0,1,,,,,0,53,0
19234,note_on,,,,,4,0,1,,,,,0,51,64
19256,note_on,,,,,0,0,1,,,,,0,74,0
19256,note_on,,,,,22,0,1,,,,,0,65,0
19260,note_on,,,,,4,0,1,,,,,0,51,0
19264,note_on,,,,,4,0,1,,,,,0,74,64
19264,note_on,,,,,0,0,1,,,,,0,65,64
19264,note_on,,,,,0,0,1,,,,,0,53,64
19264,note_on,,,,,0,0,1,,,,,0,50,64
19290,note_on,,,,,26,0,1,,,,,0,53,0
19294,note_on,,,,,4,0,1,,,,,0,51,64
19316,note_on,,,,,22,0,1,,,,,0,74,0
19316,note_on,,,,,0,0,1,,,,,0,50,0
19316,note_on,,,,,0,0,1,,,,,0,65,0
19320,note_on,,,,,4,0,1,,,,,0,51,0
19324,note_on,,,,,4,0,1,,,,,0,74,64
19324,note_on,,,,,0,0,1,,,,,0,41,64
19324,note_on,,,,,0,0,1,,,,,0,50,64
19324,note_on,,,,,0,0,1,,,,,0,65,64
19350,note_on,,,,,26,0,1,,,,,0,50,0
19354,note_on,,,,,4,0,1,,,,,0,48,64
19376,note_on,,,,,22,0,1,,,,,0,74,0
19376,note_on,,,,,0,0,1,,,,,0,41,0
19376,note_on,,,,,0,0,1,,,,,0,65,0
19380,note_on,,,,,4,0,1,,,,,0,48,0
19384,note_on,,,,,4,0,1,,,,,0,74,64
19384,note_on,,,,,0,0,1,,,,,0,65,64
19384,note_on,,,,,0,0,1,,,,,0,50,64
19384,note_on,,,,,0,0,1,,,,,0,44,64
19410,note_on,,,,,26,0,1,,,,,0,50,0
19414,note_on,,,,,4,0,1,,,,,0,48,64
19436,note_on,,,,,0,0,1,,,,,0,44,0
19436,note_on,,,,,0,0,1,,,,,0,65,0
19436,note_on,,,,,22,0,1,,,,,0,74,0
19440,note_on,,,,,4,0,1,,,,,0,48,0
19444,note_on,,,,,4,0,1,,,,,0,74,64
19444,note_on,,,,,0,0,1,,,,,0,65,64
19444,note_on,,,,,0,0,1,,,,,0,47,64
19444,note_on,,,,,0,0,1,,,,,0,43,64
19470,note_on,,,,,26,0,1,,,,,0,74,0
19474,note_on,,,,,4,0,1,,,,,0,72,64
19496,note_on,,,,,22,0,1,,,,,0,65,0
19496,note_on,,,,,0,0,1,,,,,0,43,0
19496,note_on,,,,,0,0,1,,,,,0,47,0
19500,note_on,,,,,4,0,1,,,,,0,72,0
19504,note_on,,,,,4,0,1,,,,,0,74,64
19504,note_on,,,,,0,0,1,,,,,0,65,64
19504,note_on,,,,,0,0,1,,,,,0,59,64
19504,note_on,,,,,0,0,1,,,,,0,55,64
19530,note_on,,,,,26,0,1,,,,,0,74,0
19534,note_on,,,,,4,0,1,,,,,0,72,64
19556,note_on,,,,,0,0,1,,,,,0,55,0
19556,note_on,,,,,0,0,1,,,,,0,59,0
19556,note_on,,,,,22,0,1,,,,,0,65,0
19560,note_on,,,,,4,0,1,,,,,0,72,0
19564,note_on,,,,,4,0,1,,,,,0,71,64
19564,note_on,,,,,0,0,1,,,,,0,65,64
19564,note_on,,,,,0,0,1,,,,,0,59,64
19564,note_on,,,,,0,0,1,,,,,0,55,64
19590,note_on,,,,,26,0,1,,,,,0,71,0
19594,note_on,,,,,4,0,1,,,,,0,69,64
19616,note_on,,,,,22,0,1,,,,,0,65,0
19616,note_on,,,,,0,0,1,,,,,0,55,0
19616,note_on,,,,,0,0,1,,,,,0,59,0
19620,note_on,,,,,4,0,1,,,,,0,69,0
19624,note_on,,,,,4,0,1,,,,,0,71,64
19624,note_on,,,,,0,0,1,,,,,0,59,64
19624,note_on,,,,,0,0,1,,,,,0,55,64
19624,note_on,,,,,0,0,1,,,,,0,65,64
19650,note_on,,,,,26,0,1,,,,,0,71,0
19654,note_on,,,,,4,0,1,,,,,0,69,64
19676,note_on,,,,,22,0,1,,,,,0,65,0
19676,note_on,,,,,0,0,1,,,,,0,55,0
19676,note_on,,,,,0,0,1,,,,,0,59,0
19680,note_on,,,,,4,0,1,,,,,0,69,0
19684,note_on,,,,,4,0,1,,,,,0,67,64
19684,note_on,,,,,0,0,1,,,,,0,60,64
19684,note_on,,,,,0,0,1,,,,,0,57,64
19714,note_on,,,,,30,0,1,,,,,0,65,64
19736,note_on,,,,,0,0,1,,,,,0,60,0
19736,note_on,,,,,22,0,1,,,,,0,57,0
19740,note_on,,,,,4,0,1,,,,,0,65,0
19744,note_on,,,,,4,0,1,,,,,0,67,64
19744,note_on,,,,,0,0,1,,,,,0,62,64
19744,note_on,,,,,0,0,1,,,,,0,59,64
19770,note_on,,,,,26,0,1,,,,,0,67,0
19774,note_on,,,,,4,0,1,,,,,0,65,64
19796,note_on,,,,,22,0,1,,,,,0,59,0
19804,note_on,,,,,8,0,1,,,,,0,51,64
19830,note_on,,,,,26,0,1,,,,,0,65,0
19834,note_on,,,,,4,0,1,,,,,0,63,64
19856,note_on,,,,,22,0,1,,,,,0,62,0
19860,note_on,,,,,4,0,1,,,,,0,63,0
19864,note_on,,,,,0,0,1,,,,,0,55,64
19864,note_on,,,,,4,0,1,,,,,0,65,64
19890,note_on,,,,,26,0,1,,,,,0,65,0
19894,note_on,,,,,4,0,1,,,,,0,62,64
19909,note_on,,,,,15,0,1,,,,,0,51,0
19916,note_on,,,,,7,0,1,,,,,0,55,0
19920,note_on,,,,,4,0,1,,,,,0,62,0
19924,note_on,,,,,4,0,1,,,,,0,63,64
19924,note_on,,,,,0,0,1,,,,,0,60,64
19950,note_on,,,,,26,0,1,,,,,0,67,0
19954,note_on,,,,,4,0,1,,,,,0,67,64
19954,note_on,,,,,0,0,1,,,,,0,51,64
19980,note_on,,,,,26,0,1,,,,,0,51,0
19980,note_on,,,,,0,0,1,,,,,0,67,0
19984,note_on,,,,,0,0,1,,,,,0,53,64
19984,note_on,,,,,4,0,1,,,,,0,69,64
20010,note_on,,,,,0,0,1,,,,,0,69,0
20010,note_on,,,,,26,0,1,,,,,0,53,0
20014,note_on,,,,,4,0,1,,,,,0,71,64
20014,note_on,,,,,0,0,1,,,,,0,55,64
20040,note_on,,,,,26,0,1,,,,,0,55,0
20040,note_on,,,,,0,0,1,,,,,0,71,0
20044,note_on,,,,,4,0,1,,,,,0,72,64
20044,note_on,,,,,0,0,1,,,,,0,56,64
20070,note_on,,,,,26,0,1,,,,,0,56,0
20074,note_on,,,,,4,0,1,,,,,0,55,64
20096,note_on,,,,,22,0,1,,,,,0,63,0
20096,note_on,,,,,0,0,1,,,,,0,60,0
20100,note_on,,,,,4,0,1,,,,,0,55,0
20104,note_on,,,,,4,0,1,,,,,0,68,64
20104,note_on,,,,,0,0,1,,,,,0,65,64
20104,note_on,,,,,0,0,1,,,,,0,56,64
20156,note_on,,,,,52,0,1,,,,,0,56,0
20156,note_on,,,,,0,0,1,,,,,0,65,0
20156,note_on,,,,,0,0,1,,,,,0,68,0
20164,note_on,,,,,8,0,1,,,,,0,65,64
20164,note_on,,,,,0,0,1,,,,,0,62,64
20164,note_on,,,,,0,0,1,,,,,0,56,64
20216,note_on,,,,,0,0,1,,,,,0,72,0
20216,note_on,,,,,52,0,1,,,,,0,56,0
20224,note_on,,,,,0,0,1,,,,,0,50,64
20224,note_on,,,,,8,0,1,,,,,0,71,64
20250,note_on,,,,,26,0,1,,,,,0,71,0
20254,note_on,,,,,4,0,1,,,,,0,69,64
20269,note_on,,,,,15,0,1,,,,,0,65,0
20276,note_on,,,,,7,0,1,,,,,0,50,0
20280,note_on,,,,,4,0,1,,,,,0,69,0
20284,note_on,,,,,4,0,1,,,,,0,71,64
20314,note_on,,,,,30,0,1,,,,,0,68,64
20314,note_on,,,,,0,0,1,,,,,0,50,64
20340,note_on,,,,,0,0,1,,,,,0,68,0
20340,note_on,,,,,26,0,1,,,,,0,50,0
20344,note_on,,,,,4,0,1,,,,,0,67,64
20344,note_on,,,,,0,0,1,,,,,0,51,64
20370,note_on,,,,,26,0,1,,,,,0,51,0
20370,note_on,,,,,0,0,1,,,,,0,67,0
20374,note_on,,,,,0,0,1,,,,,0,53,64
20374,note_on,,,,,4,0,1,,,,,0,65,64
20389,note_on,,,,,15,0,1,,,,,0,71,0
20389,note_on,,,,,0,0,1,,,,,0,62,0
20400,note_on,,,,,11,0,1,,,,,0,65,0
20400,note_on,,,,,0,0,1,,,,,0,53,0
20404,note_on,,,,,0,0,1,,,,,0,55,64
20404,note_on,,,,,0,0,1,,,,,0,64,64
20404,note_on,,,,,4,0,1,,,,,0,70,64
20404,note_on,,,,,0,0,1,,,,,0,61,64
20430,note_on,,,,,26,0,1,,,,,0,55,0
20430,note_on,,,,,0,0,1,,,,,0,64,0
20434,note_on,,,,,4,0,1,,,,,0,65,64
20434,note_on,,,,,0,0,1,,,,,0,53,64
20460,note_on,,,,,26,0,1,,,,,0,53,0
20460,note_on,,,,,0,0,1,,,,,0,65,0
20464,note_on,,,,,4,0,1,,,,,0,64,64
20464,note_on,,,,,0,0,1,,,,,0,55,64
20490,note_on,,,,,26,0,1,,,,,0,64,0
20494,note_on,,,,,4,0,1,,,,,0,65,64
20509,note_on,,,,,15,0,1,,,,,0,61,0
20516,note_on,,,,,7,0,1,,,,,0,55,0
20520,note_on,,,,,4,0,1,,,,,0,65,0
20524,note_on,,,,,0,0,1,,,,,0,60,64
20524,note_on,,,,,0,0,1,,,,,0,55,64
20524,note_on,,,,,4,0,1,,,,,0,64,64
20576,note_on,,,,,52,0,1,,,,,0,55,0
20576,note_on,,,,,0,0,1,,,,,0,70,0
20584,note_on,,,,,8,0,1,,,,,0,69,64
20584,note_on,,,,,0,0,1,,,,,0,48,64
20610,note_on,,,,,26,0,1,,,,,0,69,0
20614,note_on,,,,,4,0,1,,,,,0,67,64
20629,note_on,,,,,15,0,1,,,,,0,64,0
20636,note_on,,,,,7,0,1,,,,,0,48,0
20640,note_on,,,,,4,0,1,,,,,0,67,0
20644,note_on,,,,,4,0,1,,,,,0,69,64
20674,note_on,,,,,30,0,1,,,,,0,67,64
20674,note_on,,,,,0,0,1,,,,,0,48,64
20700,note_on,,,,,26,0,1,,,,,0,48,0
20700,note_on,,,,,0,0,1,,,,,0,67,0
20704,note_on,,,,,4,0,1,,,,,0,65,64
20704,note_on,,,,,0,0,1,,,,,0,50,64
20730,note_on,,,,,26,0,1,,,,,0,50,0
20730,note_on,,,,,0,0,1,,,,,0,65,0
20734,note_on,,,,,4,0,1,,,,,0,63,64
20734,note_on,,,,,0,0,1,,,,,0,51,64
20749,note_on,,,,,15,0,1,,,,,0,69,0
20749,note_on,,,,,0,0,1,,,,,0,60,0
20760,note_on,,,,,11,0,1,,,,,0,63,0
20760,note_on,,,,,0,0,1,,,,,0,51,0
20764,note_on,,,,,4,0,1,,,,,0,68,64
20764,note_on,,,,,0,0,1,,,,,0,62,64
20764,note_on,,,,,0,0,1,,,,,0,59,64
20764,note_on,,,,,0,0,1,,,,,0,53,64
20790,note_on,,,,,26,0,1,,,,,0,53,0
20790,note_on,,,,,0,0,1,,,,,0,62,0
20794,note_on,,,,,0,0,1,,,,,0,51,64
20794,note_on,,,,,4,0,1,,,,,0,63,64
20820,note_on,,,,,26,0,1,,,,,0,51,0
20820,note_on,,,,,0,0,1,,,,,0,63,0
20824,note_on,,,,,4,0,1,,,,,0,62,64
20824,note_on,,,,,0,0,1,,,,,0,53,64
20850,note_on,,,,,26,0,1,,,,,0,62,0
20854,note_on,,,,,4,0,1,,,,,0,63,64
20869,note_on,,,,,15,0,1,,,,,0,59,0
20876,note_on,,,,,7,0,1,,,,,0,53,0
20880,note_on,,,,,4,0,1,,,,,0,63,0
20884,note_on,,,,,0,0,1,,,,,0,58,64
20884,note_on,,,,,4,0,1,,,,,0,62,64
20884,note_on,,,,,0,0,1,,,,,0,53,64
20936,note_on,,,,,52,0,1,,,,,0,53,0
20936,note_on,,,,,0,0,1,,,,,0,68,0
20944,note_on,,,,,8,0,1,,,,,0,67,64
20944,note_on,,,,,0,0,1,,,,,0,46,64
20970,note_on,,,,,26,0,1,,,,,0,67,0
20974,note_on,,,,,4,0,1,,,,,0,65,64
20989,note_on,,,,,15,0,1,,,,,0,62,0
20989,note_on,,,,,0,0,1,,,,,0,58,0
20996,note_on,,,,,7,0,1,,,,,0,46,0
21000,note_on,,,,,4,0,1,,,,,0,65,0
21004,note_on,,,,,4,0,1,,,,,0,67,64
21004,note_on,,,,,0,0,1,,,,,0,62,64
21004,note_on,,,,,0,0,1,,,,,0,58,64
21030,note_on,,,,,26,0,1,,,,,0,67,0
21034,note_on,,,,,0,0,1,,,,,0,74,64
21034,note_on,,,,,4,0,1,,,,,0,77,64
21060,note_on,,,,,26,0,1,,,,,0,74,0
21060,note_on,,,,,0,0,1,,,,,0,77,0
21064,note_on,,,,,4,0,1,,,,,0,79,64
21064,note_on,,,,,0,0,1,,,,,0,75,64
21090,note_on,,,,,26,0,1,,,,,0,75,0
21090,note_on,,,,,0,0,1,,,,,0,79,0
21094,note_on,,,,,4,0,1,,,,,0,80,64
21094,note_on,,,,,0,0,1,,,,,0,77,64
21109,note_on,,,,,15,0,1,,,,,0,58,0
21109,note_on,,,,,0,0,1,,,,,0,62,0
21120,note_on,,,,,0,0,1,,,,,0,77,0
21120,note_on,,,,,11,0,1,,,,,0,80,0
21124,note_on,,,,,4,0,1,,,,,0,82,64
21124,note_on,,,,,0,0,1,,,,,0,79,64
21150,note_on,,,,,26,0,1,,,,,0,79,0
21150,note_on,,,,,0,0,1,,,,,0,82,0
21154,note_on,,,,,4,0,1,,,,,0,80,64
21154,note_on,,,,,0,0,1,,,,,0,77,64
21180,note_on,,,,,26,0,1,,,,,0,77,0
21180,note_on,,,,,0,0,1,,,,,0,80,0
21184,note_on,,,,,0,0,1,,,,,0,55,64
21184,note_on,,,,,0,0,1,,,,,0,58,64
21184,note_on,,,,,4,0,1,,,,,0,82,64
21184,note_on,,,,,0,0,1,,,,,0,79,64
21236,note_on,,,,,52,0,1,,,,,0,55,0
21236,note_on,,,,,0,0,1,,,,,0,82,0
21236,note_on,,,,,0,0,1,,,,,0,79,0
21236,note_on,,,,,0,0,1,,,,,0,58,0
21244,note_on,,,,,8,0,1,,,,,0,82,64
21244,note_on,,,,,0,0,1,,,,,0,79,64
21244,note_on,,,,,0,0,1,,,,,0,63,64
21244,note_on,,,,,0,0,1,,,,,0,60,64
21296,note_on,,,,,52,0,1,,,,,0,79,0
21296,note_on,,,,,0,0,1,,,,,0,82,0
21304,note_on,,,,,0,0,1,,,,,0,72,64
21304,note_on,,,,,8,0,1,,,,,0,75,64
21349,note_on,,,,,45,0,1,,,,,0,63,0
21349,note_on,,,,,0,0,1,,,,,0,60,0
21356,note_on,,,,,0,0,1,,,,,0,72,0
21356,note_on,,,,,7,0,1,,,,,0,75,0
21364,note_on,,,,,8,0,1,,,,,0,60,64
21364,note_on,,,,,0,0,1,,,,,0,56,64
21394,note_on,,,,,30,0,1,,,,,0,75,64
21394,note_on,,,,,0,0,1,,,,,0,72,64
21420,note_on,,,,,26,0,1,,,,,0,72,0
21420,note_on,,,,,0,0,1,,,,,0,75,0
21424,note_on,,,,,0,0,1,,,,,0,74,64
21424,note_on,,,,,4,0,1,,,,,0,77,64
21450,note_on,,,,,26,0,1,,,,,0,74,0
21450,note_on,,,,,0,0,1,,,,,0,77,0
21454,note_on,,,,,4,0,1,,,,,0,79,64
21454,note_on,,,,,0,0,1,,,,,0,75,64
21469,note_on,,,,,15,0,1,,,,,0,56,0
21469,note_on,,,,,0,0,1,,,,,0,60,0
21480,note_on,,,,,11,0,1,,,,,0,79,0
21480,note_on,,,,,0,0,1,,,,,0,75,0
21484,note_on,,,,,0,0,1,,,,,0,77,64
21484,note_on,,,,,4,0,1,,,,,0,80,64
21510,note_on,,,,,0,0,1,,,,,0,80,0
21510,note_on,,,,,26,0,1,,,,,0,77,0
21514,note_on,,,,,4,0,1,,,,,0,79,64
21514,note_on,,,,,0,0,1,,,,,0,75,64
21540,note_on,,,,,26,0,1,,,,,0,75,0
21540,note_on,,,,,0,0,1,,,,,0,79,0
21544,note_on,,,,,4,0,1,,,,,0,80,64
21544,note_on,,,,,0,0,1,,,,,0,77,64
21544,note_on,,,,,0,0,1,,,,,0,56,64
21544,note_on,,,,,0,0,1,,,,,0,53,64
21596,note_on,,,,,0,0,1,,,,,0,56,0
21596,note_on,,,,,0,0,1,,,,,0,77,0
21596,note_on,,,,,0,0,1,,,,,0,80,0
21596,note_on,,,,,52,0,1,,,,,0,53,0
21604,note_on,,,,,8,0,1,,,,,0,80,64
21604,note_on,,,,,0,0,1,,,,,0,77,64
21604,note_on,,,,,0,0,1,,,,,0,62,64
21604,note_on,,,,,0,0,1,,,,,0,58,64
21656,note_on,,,,,0,0,1,,,,,0,80,0
21656,note_on,,,,,52,0,1,,,,,0,77,0
21664,note_on,,,,,0,0,1,,,,,0,70,64
21664,note_on,,,,,8,0,1,,,,,0,74,64
21709,note_on,,,,,45,0,1,,,,,0,62,0
21709,note_on,,,,,0,0,1,,,,,0,58,0
21716,note_on,,,,,0,0,1,,,,,0,70,0
21716,note_on,,,,,7,0,1,,,,,0,74,0
21724,note_on,,,,,0,0,1,,,,,0,55,64
21724,note_on,,,,,8,0,1,,,,,0,58,64
21754,note_on,,,,,0,0,1,,,,,0,70,64
21754,note_on,,,,,30,0,1,,,,,0,74,64
21780,note_on,,,,,26,0,1,,,,,0,70,0
21780,note_on,,,,,0,0,1,,,,,0,74,0
21784,note_on,,,,,0,0,1,,,,,0,72,64
21784,note_on,,,,,4,0,1,,,,,0,75,64
21810,note_on,,,,,26,0,1,,,,,0,72,0
21810,note_on,,,,,0,0,1,,,,,0,75,0
21814,note_on,,,,,4,0,1,,,,,0,77,64
21814,note_on,,,,,0,0,1,,,,,0,74,64
21829,note_on,,,,,15,0,1,,,,,0,55,0
21829,note_on,,,,,0,0,1,,,,,0,58,0
21840,note_on,,,,,0,0,1,,,,,0,74,0
21840,note_on,,,,,11,0,1,,,,,0,77,0
21844,note_on,,,,,4,0,1,,,,,0,79,64
21844,note_on,,,,,0,0,1,,,,,0,75,64
21870,note_on,,,,,26,0,1,,,,,0,75,0
21870,note_on,,,,,0,0,1,,,,,0,79,0
21874,note_on,,,,,4,0,1,,,,,0,77,64
21874,note_on,,,,,0,0,1,,,,,0,74,64
21900,note_on,,,,,26,0,1,,,,,0,74,0
21900,note_on,,,,,0,0,1,,,,,0,77,0
21904,note_on,,,,,0,0,1,,,,,0,75,64
21904,note_on,,,,,0,0,1,,,,,0,51,64
21904,note_on,,,,,0,0,1,,,,,0,55,64
21904,note_on,,,,,4,0,1,,,,,0,79,64
21956,note_on,,,,,52,0,1,,,,,0,51,0
21956,note_on,,,,,0,0,1,,,,,0,55,0
21964,note_on,,,,,8,0,1,,,,,0,60,64
21964,note_on,,,,,0,0,1,,,,,0,56,64
21990,note_on,,,,,26,0,1,,,,,0,75,0
21994,note_on,,,,,4,0,1,,,,,0,73,64
22016,note_on,,,,,22,0,1,,,,,0,79,0
22016,note_on,,,,,0,0,1,,,,,0,56,0
22016,note_on,,,,,0,0,1,,,,,0,60,0
22020,note_on,,,,,4,0,1,,,,,0,73,0
22024,note_on,,,,,0,0,1,,,,,0,56,64
22024,note_on,,,,,0,0,1,,,,,0,60,64
22024,note_on,,,,,0,0,1,,,,,0,75,64
22024,note_on,,,,,4,0,1,,,,,0,82,64
22050,note_on,,,,,26,0,1,,,,,0,75,0
22054,note_on,,,,,4,0,1,,,,,0,73,64
22076,note_on,,,,,0,0,1,,,,,0,56,0
22076,note_on,,,,,22,0,1,,,,,0,82,0
22076,note_on,,,,,0,0,1,,,,,0,60,0
22080,note_on,,,,,4,0,1,,,,,0,73,0
22084,note_on,,,,,4,0,1,,,,,0,80,64
22084,note_on,,,,,0,0,1,,,,,0,60,64
22084,note_on,,,,,0,0,1,,,,,0,56,64
22084,note_on,,,,,0,0,1,,,,,0,72,64
22110,note_on,,,,,26,0,1,,,,,0,72,0
22114,note_on,,,,,4,0,1,,,,,0,70,64
22136,note_on,,,,,0,0,1,,,,,0,56,0
22136,note_on,,,,,0,0,1,,,,,0,60,0
22136,note_on,,,,,22,0,1,,,,,0,80,0
22140,note_on,,,,,4,0,1,,,,,0,70,0
22144,note_on,,,,,4,0,1,,,,,0,79,64
22144,note_on,,,,,0,0,1,,,,,0,72,64
22144,note_on,,,,,0,0,1,,,,,0,60,64
22144,note_on,,,,,0,0,1,,,,,0,56,64
22170,note_on,,,,,26,0,1,,,,,0,72,0
22174,note_on,,,,,4,0,1,,,,,0,70,64
22196,note_on,,,,,0,0,1,,,,,0,56,0
22196,note_on,,,,,0,0,1,,,,,0,60,0
22196,note_on,,,,,22,0,1,,,,,0,79,0
22200,note_on,,,,,4,0,1,,,,,0,70,0
22204,note_on,,,,,0,0,1,,,,,0,60,64
22204,note_on,,,,,0,0,1,,,,,0,56,64
22204,note_on,,,,,4,0,1,,,,,0,77,64
22204,note_on,,,,,0,0,1,,,,,0,68,64
22230,note_on,,,,,26,0,1,,,,,0,68,0
22234,note_on,,,,,4,0,1,,,,,0,67,64
22256,note_on,,,,,22,0,1,,,,,0,77,0
22256,note_on,,,,,0,0,1,,,,,0,60,0
22256,note_on,,,,,0,0,1,,,,,0,56,0
22260,note_on,,,,,4,0,1,,,,,0,67,0
22264,note_on,,,,,4,0,1,,,,,0,75,64
22264,note_on,,,,,0,0,1,,,,,0,68,64
22264,note_on,,,,,0,0,1,,,,,0,60,64
22264,note_on,,,,,0,0,1,,,,,0,56,64
22290,note_on,,,,,26,0,1,,,,,0,68,0
22294,note_on,,,,,4,0,1,,,,,0,67,64
22316,note_on,,,,,0,0,1,,,,,0,56,0
22316,note_on,,,,,0,0,1,,,,,0,60,0
22316,note_on,,,,,22,0,1,,,,,0,75,0
22320,note_on,,,,,4,0,1,,,,,0,67,0
22324,note_on,,,,,0,0,1,,,,,0,62,64
22324,note_on,,,,,0,0,1,,,,,0,58,64
22324,note_on,,,,,0,0,1,,,,,0,65,64
22324,note_on,,,,,4,0,1,,,,,0,74,64
22350,note_on,,,,,26,0,1,,,,,0,62,0
22354,note_on,,,,,4,0,1,,,,,0,60,64
22376,note_on,,,,,0,0,1,,,,,0,65,0
22376,note_on,,,,,22,0,1,,,,,0,74,0
22376,note_on,,,,,0,0,1,,,,,0,58,0
22380,note_on,,,,,4,0,1,,,,,0,60,0
22384,note_on,,,,,0,0,1,,,,,0,65,64
22384,note_on,,,,,0,0,1,,,,,0,62,64
22384,note_on,,,,,0,0,1,,,,,0,56,64
22384,note_on,,,,,4,0,1,,,,,0,74,64
22410,note_on,,,,,26,0,1,,,,,0,62,0
22414,note_on,,,,,4,0,1,,,,,0,60,64
22436,note_on,,,,,22,0,1,,,,,0,74,0
22436,note_on,,,,,0,0,1,,,,,0,65,0
22436,note_on,,,,,0,0,1,,,,,0,56,0
22440,note_on,,,,,4,0,1,,,,,0,60,0
22444,note_on,,,,,4,0,1,,,,,0,75,64
22444,note_on,,,,,0,0,1,,,,,0,67,64
22444,note_on,,,,,0,0,1,,,,,0,58,64
22444,note_on,,,,,0,0,1,,,,,0,55,64
22470,note_on,,,,,26,0,1,,,,,0,58,0
22474,note_on,,,,,4,0,1,,,,,0,56,64
22496,note_on,,,,,22,0,1,,,,,0,55,0
22500,note_on,,,,,4,0,1,,,,,0,56,0
22504,note_on,,,,,4,0,1,,,,,0,58,64
22504,note_on,,,,,0,0,1,,,,,0,53,64
22522,note_on,,,,,18,0,1,,,,,0,67,0
22522,note_on,,,,,0,0,1,,,,,0,75,0
22530,note_on,,,,,8,0,1,,,,,0,58,0
22534,note_on,,,,,0,0,1,,,,,0,56,64
22534,note_on,,,,,4,0,1,,,,,0,77,64
22534,note_on,,,,,0,0,1,,,,,0,68,64
22556,note_on,,,,,22,0,1,,,,,0,53,0
22560,note_on,,,,,4,0,1,,,,,0,77,0
22560,note_on,,,,,0,0,1,,,,,0,68,0
22560,note_on,,,,,0,0,1,,,,,0,56,0
22564,note_on,,,,,4,0,1,,,,,0,79,64
22564,note_on,,,,,0,0,1,,,,,0,70,64
22564,note_on,,,,,0,0,1,,,,,0,55,64
22564,note_on,,,,,0,0,1,,,,,0,51,64
22590,note_on,,,,,26,0,1,,,,,0,55,0
22594,note_on,,,,,4,0,1,,,,,0,53,64
22616,note_on,,,,,22,0,1,,,,,0,51,0
22616,note_on,,,,,0,0,1,,,,,0,70,0
22620,note_on,,,,,4,0,1,,,,,0,53,0
22624,note_on,,,,,4,0,1,,,,,0,71,64
22624,note_on,,,,,0,0,1,,,,,0,55,64
22624,note_on,,,,,0,0,1,,,,,0,50,64
22650,note_on,,,,,26,0,1,,,,,0,55,0
22654,note_on,,,,,4,0,1,,,,,0,53,64
22676,note_on,,,,,22,0,1,,,,,0,50,0
22676,note_on,,,,,0,0,1,,,,,0,71,0
22680,note_on,,,,,4,0,1,,,,,0,53,0
22684,note_on,,,,,4,0,1,,,,,0,72,64
22684,note_on,,,,,0,0,1,,,,,0,51,64
22684,note_on,,,,,0,0,1,,,,,0,48,64
22710,note_on,,,,,26,0,1,,,,,0,72,0
22710,note_on,,,,,0,0,1,,,,,0,79,0
22714,note_on,,,,,4,0,1,,,,,0,77,64
22714,note_on,,,,,0,0,1,,,,,0,74,64
22736,note_on,,,,,22,0,1,,,,,0,51,0
22736,note_on,,,,,0,0,1,,,,,0,48,0
22740,note_on,,,,,4,0,1,,,,,0,77,0
22740,note_on,,,,,0,0,1,,,,,0,74,0
22744,note_on,,,,,0,0,1,,,,,0,75,64
22744,note_on,,,,,4,0,1,,,,,0,79,64
22744,note_on,,,,,0,0,1,,,,,0,63,64
22744,note_on,,,,,0,0,1,,,,,0,60,64
22770,note_on,,,,,26,0,1,,,,,0,75,0
22770,note_on,,,,,0,0,1,,,,,0,79,0
22774,note_on,,,,,4,0,1,,,,,0,77,64
22774,note_on,,,,,0,0,1,,,,,0,74,64
22796,note_on,,,,,22,0,1,,,,,0,63,0
22796,note_on,,,,,0,0,1,,,,,0,60,0
22800,note_on,,,,,4,0,1,,,,,0,77,0
22800,note_on,,,,,0,0,1,,,,,0,74,0
22804,note_on,,,,,0,0,1,,,,,0,72,64
22804,note_on,,,,,0,0,1,,,,,0,63,64
22804,note_on,,,,,0,0,1,,,,,0,60,64
22804,note_on,,,,,4,0,1,,,,,0,75,64
22830,note_on,,,,,26,0,1,,,,,0,72,0
22830,note_on,,,,,0,0,1,,,,,0,75,0
22834,note_on,,,,,4,0,1,,,,,0,74,64
22834,note_on,,,,,0,0,1,,,,,0,70,64
22856,note_on,,,,,22,0,1,,,,,0,63,0
22856,note_on,,,,,0,0,1,,,,,0,60,0
22860,note_on,,,,,0,0,1,,,,,0,70,0
22860,note_on,,,,,4,0,1,,,,,0,74,0
22864,note_on,,,,,4,0,1,,,,,0,75,64
22864,note_on,,,,,0,0,1,,,,,0,72,64
22864,note_on,,,,,0,0,1,,,,,0,63,64
22864,note_on,,,,,0,0,1,,,,,0,60,64
22890,note_on,,,,,26,0,1,,,,,0,72,0
22890,note_on,,,,,0,0,1,,,,,0,75,0
22894,note_on,,,,,4,0,1,,,,,0,74,64
22894,note_on,,,,,0,0,1,,,,,0,70,64
22916,note_on,,,,,22,0,1,,,,,0,63,0
22916,note_on,,,,,0,0,1,,,,,0,60,0
22920,note_on,,,,,4,0,1,,,,,0,74,0
22920,note_on,,,,,0,0,1,,,,,0,70,0
22924,note_on,,,,,4,0,1,,,,,0,72,64
22924,note_on,,,,,0,0,1,,,,,0,68,64
22924,note_on,,,,,0,0,1,,,,,0,63,64
22924,note_on,,,,,0,0,1,,,,,0,60,64
22950,note_on,,,,,26,0,1,,,,,0,68,0
22950,note_on,,,,,0,0,1,,,,,0,72,0
22954,note_on,,,,,4,0,1,,,,,0,70,64
22954,note_on,,,,,0,0,1,,,,,0,67,64
22976,note_on,,,,,22,0,1,,,,,0,63,0
22976,note_on,,,,,0,0,1,,,,,0,60,0
22980,note_on,,,,,4,0,1,,,,,0,70,0
22980,note_on,,,,,0,0,1,,,,,0,67,0
22984,note_on,,,,,0,0,1,,,,,0,60,64
22984,note_on,,,,,4,0,1,,,,,0,72,64
22984,note_on,,,,,0,0,1,,,,,0,68,64
22984,note_on,,,,,0,0,1,,,,,0,63,64
23010,note_on,,,,,26,0,1,,,,,0,68,0
23010,note_on,,,,,0,0,1,,,,,0,72,0
23014,note_on,,,,,4,0,1,,,,,0,70,64
23014,note_on,,,,,0,0,1,,,,,0,67,64
23036,note_on,,,,,22,0,1,,,,,0,63,0
23036,note_on,,,,,0,0,1,,,,,0,60,0
23040,note_on,,,,,4,0,1,,,,,0,70,0
23040,note_on,,,,,0,0,1,,,,,0,67,0
23044,note_on,,,,,0,0,1,,,,,0,60,64
23044,note_on,,,,,0,0,1,,,,,0,66,64
23044,note_on,,,,,4,0,1,,,,,0,69,64
23044,note_on,,,,,0,0,1,,,,,0,63,64
23070,note_on,,,,,26,0,1,,,,,0,63,0
23074,note_on,,,,,4,0,1,,,,,0,62,64
23096,note_on,,,,,22,0,1,,,,,0,60,0
23100,note_on,,,,,4,0,1,,,,,0,62,0
23104,note_on,,,,,4,0,1,,,,,0,63,64
23104,note_on,,,,,0,0,1,,,,,0,58,64
23130,note_on,,,,,26,0,1,,,,,0,63,0
23134,note_on,,,,,4,0,1,,,,,0,62,64
23156,note_on,,,,,22,0,1,,,,,0,58,0
23160,note_on,,,,,4,0,1,,,,,0,62,0
23164,note_on,,,,,0,0,1,,,,,0,57,64
23164,note_on,,,,,4,0,1,,,,,0,60,64
23190,note_on,,,,,26,0,1,,,,,0,60,0
23194,note_on,,,,,4,0,1,,,,,0,58,64
23209,note_on,,,,,15,0,1,,,,,0,69,0
23209,note_on,,,,,0,0,1,,,,,0,66,0
23216,note_on,,,,,7,0,1,,,,,0,57,0
23220,note_on,,,,,4,0,1,,,,,0,58,0
23224,note_on,,,,,4,0,1,,,,,0,70,64
23224,note_on,,,,,0,0,1,,,,,0,67,64
23224,note_on,,,,,0,0,1,,,,,0,60,64
23224,note_on,,,,,0,0,1,,,,,0,55,64
23250,note_on,,,,,26,0,1,,,,,0,60,0
23254,note_on,,,,,4,0,1,,,,,0,58,64
23276,note_on,,,,,22,0,1,,,,,0,70,0
23276,note_on,,,,,0,0,1,,,,,0,55,0
23276,note_on,,,,,0,0,1,,,,,0,67,0
23280,note_on,,,,,4,0,1,,,,,0,58,0
23284,note_on,,,,,4,0,1,,,,,0,72,64
23284,note_on,,,,,0,0,1,,,,,0,69,64
23284,note_on,,,,,0,0,1,,,,,0,57,64
23284,note_on,,,,,0,0,1,,,,,0,54,64
23310,note_on,,,,,26,0,1,,,,,0,57,0
23314,note_on,,,,,4,0,1,,,,,0,55,64
23336,note_on,,,,,22,0,1,,,,,0,54,0
23340,note_on,,,,,4,0,1,,,,,0,55,0
23344,note_on,,,,,4,0,1,,,,,0,57,64
23344,note_on,,,,,0,0,1,,,,,0,52,64
23370,note_on,,,,,26,0,1,,,,,0,57,0
23374,note_on,,,,,4,0,1,,,,,0,55,64
23396,note_on,,,,,22,0,1,,,,,0,52,0
23400,note_on,,,,,4,0,1,,,,,0,55,0
23404,note_on,,,,,0,0,1,,,,,0,50,64
23404,note_on,,,,,4,0,1,,,,,0,54,64
23430,note_on,,,,,26,0,1,,,,,0,69,0
23434,note_on,,,,,4,0,1,,,,,0,62,64
23456,note_on,,,,,0,0,1,,,,,0,54,0
23456,note_on,,,,,22,0,1,,,,,0,50,0
23460,note_on,,,,,4,0,1,,,,,0,62,0
23464,note_on,,,,,0,0,1,,,,,0,57,64
23464,note_on,,,,,0,0,1,,,,,0,54,64
23464,note_on,,,,,4,0,1,,,,,0,63,64
23490,note_on,,,,,26,0,1,,,,,0,63,0
23494,note_on,,,,,4,0,1,,,,,0,62,64
23509,note_on,,,,,15,0,1,,,,,0,72,0
23516,note_on,,,,,7,0,1,,,,,0,54,0
23516,note_on,,,,,0,0,1,,,,,0,57,0
23524,note_on,,,,,8,0,1,,,,,0,70,64
23524,note_on,,,,,0,0,1,,,,,0,58,64
23524,note_on,,,,,0,0,1,,,,,0,55,64
23550,note_on,,,,,26,0,1,,,,,0,62,0
23554,note_on,,,,,4,0,1,,,,,0,62,64
23576,note_on,,,,,22,0,1,,,,,0,55,0
23576,note_on,,,,,0,0,1,,,,,0,58,0
23580,note_on,,,,,4,0,1,,,,,0,62,0
23584,note_on,,,,,4,0,1,,,,,0,63,64
23584,note_on,,,,,0,0,1,,,,,0,54,64
23584,note_on,,,,,0,0,1,,,,,0,50,64
23610,note_on,,,,,26,0,1,,,,,0,63,0
23614,note_on,,,,,4,0,1,,,,,0,62,64
23636,note_on,,,,,22,0,1,,,,,0,50,0
23636,note_on,,,,,0,0,1,,,,,0,54,0
23640,note_on,,,,,4,0,1,,,,,0,62,0
23644,note_on,,,,,0,0,1,,,,,0,51,64
23644,note_on,,,,,4,0,1,,,,,0,60,64
23644,note_on,,,,,0,0,1,,,,,0,55,64
23670,note_on,,,,,26,0,1,,,,,0,70,0
23674,note_on,,,,,4,0,1,,,,,0,70,64
23696,note_on,,,,,22,0,1,,,,,0,60,0
23700,note_on,,,,,4,0,1,,,,,0,70,0
23704,note_on,,,,,4,0,1,,,,,0,69,64
23704,note_on,,,,,0,0,1,,,,,0,61,64
23730,note_on,,,,,26,0,1,,,,,0,69,0
23734,note_on,,,,,4,0,1,,,,,0,67,64
23749,note_on,,,,,15,0,1,,,,,0,51,0
23749,note_on,,,,,0,0,1,,,,,0,55,0
23756,note_on,,,,,7,0,1,,,,,0,61,0
23760,note_on,,,,,4,0,1,,,,,0,67,0
23764,note_on,,,,,0,0,1,,,,,0,57,64
23764,note_on,,,,,0,0,1,,,,,0,62,64
23764,note_on,,,,,0,0,1,,,,,0,50,64
23764,note_on,,,,,4,0,1,,,,,0,66,64
23816,note_on,,,,,52,0,1,,,,,0,50,0
23816,note_on,,,,,0,0,1,,,,,0,57,0
23824,note_on,,,,,8,0,1,,,,,0,38,64
23869,note_on,,,,,45,0,1,,,,,0,62,0
23869,note_on,,,,,0,0,1,,,,,0,66,0
23876,note_on,,,,,7,0,1,,,,,0,38,0
23884,note_on,,,,,8,0,1,,,,,0,62,64
23914,note_on,,,,,30,0,1,,,,,0,69,64
23940,note_on,,,,,26,0,1,,,,,0,69,0
23944,note_on,,,,,4,0,1,,,,,0,70,64
23970,note_on,,,,,26,0,1,,,,,0,70,0
23974,note_on,,,,,4,0,1,,,,,0,72,64
23989,note_on,,,,,15,0,1,,,,,0,62,0
24000,note_on,,,,,11,0,1,,,,,0,72,0
24004,note_on,,,,,4,0,1,,,,,0,74,64
24030,note_on,,,,,26,0,1,,,,,0,74,0
24034,note_on,,,,,4,0,1,,,,,0,72,64
24060,note_on,,,,,26,0,1,,,,,0,72,0
24064,note_on,,,,,4,0,1,,,,,0,74,64
24064,note_on,,,,,0,0,1,,,,,0,58,64
24116,note_on,,,,,52,0,1,,,,,0,58,0
24116,note_on,,,,,0,0,1,,,,,0,74,0
24124,note_on,,,,,8,0,1,,,,,0,74,64
24124,note_on,,,,,0,0,1,,,,,0,63,64
24176,note_on,,,,,52,0,1,,,,,0,74,0
24184,note_on,,,,,8,0,1,,,,,0,67,64
24229,note_on,,,,,45,0,1,,,,,0,63,0
24236,note_on,,,,,7,0,1,,,,,0,67,0
24244,note_on,,,,,8,0,1,,,,,0,60,64
24274,note_on,,,,,30,0,1,,,,,0,67,64
24300,note_on,,,,,26,0,1,,,,,0,67,0
24304,note_on,,,,,4,0,1,,,,,0,69,64
24330,note_on,,,,,26,0,1,,,,,0,69,0
24334,note_on,,,,,4,0,1,,,,,0,70,64
24349,note_on,,,,,15,0,1,,,,,0,60,0
24360,note_on,,,,,11,0,1,,,,,0,70,0
24364,note_on,,,,,4,0,1,,,,,0,72,64
24390,note_on,,,,,26,0,1,,,,,0,72,0
24394,note_on,,,,,4,0,1,,,,,0,70,64
24420,note_on,,,,,26,0,1,,,,,0,70,0
24424,note_on,,,,,4,0,1,,,,,0,72,64
24424,note_on,,,,,0,0,1,,,,,0,57,64
24476,note_on,,,,,52,0,1,,,,,0,57,0
24476,note_on,,,,,0,0,1,,,,,0,72,0
24484,note_on,,,,,8,0,1,,,,,0,72,64
24484,note_on,,,,,0,0,1,,,,,0,62,64
24536,note_on,,,,,52,0,1,,,,,0,72,0
24544,note_on,,,,,8,0,1,,,,,0,66,64
24589,note_on,,,,,45,0,1,,,,,0,62,0
24596,note_on,,,,,7,0,1,,,,,0,66,0
24604,note_on,,,,,8,0,1,,,,,0,74,64
24604,note_on,,,,,0,0,1,,,,,0,58,64
24634,note_on,,,,,30,0,1,,,,,0,66,64
24634,note_on,,,,,0,0,1,,,,,0,50,64
24660,note_on,,,,,26,0,1,,,,,0,50,0
24660,note_on,,,,,0,0,1,,,,,0,66,0
24664,note_on,,,,,0,0,1,,,,,0,52,64
24664,note_on,,,,,4,0,1,,,,,0,67,64
24690,note_on,,,,,26,0,1,,,,,0,52,0
24690,note_on,,,,,0,0,1,,,,,0,67,0
24694,note_on,,,,,0,0,1,,,,,0,54,64
24694,note_on,,,,,4,0,1,,,,,0,69,64
24709,note_on,,,,,0,0,1,,,,,0,74,0
24709,note_on,,,,,15,0,1,,,,,0,58,0
24720,note_on,,,,,11,0,1,,,,,0,69,0
24720,note_on,,,,,0,0,1,,,,,0,54,0
24724,note_on,,,,,0,0,1,,,,,0,55,64
24724,note_on,,,,,4,0,1,,,,,0,70,64
24750,note_on,,,,,26,0,1,,,,,0,55,0
24750,note_on,,,,,0,0,1,,,,,0,70,0
24754,note_on,,,,,4,0,1,,,,,0,69,64
24754,note_on,,,,,0,0,1,,,,,0,54,64
24780,note_on,,,,,0,0,1,,,,,0,69,0
24780,note_on,,,,,26,0,1,,,,,0,54,0
24784,note_on,,,,,4,0,1,,,,,0,70,64
24784,note_on,,,,,0,0,1,,,,,0,70,64
24784,note_on,,,,,0,0,1,,,,,0,55,64
24784,note_on,,,,,0,0,1,,,,,0,55,64
24836,note_on,,,,,0,0,1,,,,,0,55,0
24836,note_on,,,,,52,0,1,,,,,0,55,0
24836,note_on,,,,,0,0,1,,,,,0,70,0
24836,note_on,,,,,0,0,1,,,,,0,70,0
24844,note_on,,,,,8,0,1,,,,,0,75,64
24844,note_on,,,,,0,0,1,,,,,0,70,64
24844,note_on,,,,,0,0,1,,,,,0,60,64
24844,note_on,,,,,0,0,1,,,,,0,55,64
24896,note_on,,,,,52,0,1,,,,,0,55,0
24896,note_on,,,,,0,0,1,,,,,0,70,0
24904,note_on,,,,,8,0,1,,,,,0,63,64
24904,note_on,,,,,0,0,1,,,,,0,48,64
24949,note_on,,,,,45,0,1,,,,,0,60,0
24949,note_on,,,,,0,0,1,,,,,0,75,0
24956,note_on,,,,,0,0,1,,,,,0,48,0
24956,note_on,,,,,7,0,1,,,,,0,63,0
24964,note_on,,,,,8,0,1,,,,,0,72,64
24964,note_on,,,,,0,0,1,,,,,0,57,64
24994,note_on,,,,,30,0,1,,,,,0,64,64
24994,note_on,,,,,0,0,1,,,,,0,48,64
25020,note_on,,,,,26,0,1,,,,,0,48,0
25020,note_on,,,,,0,0,1,,,,,0,64,0
25024,note_on,,,,,0,0,1,,,,,0,50,64
25024,note_on,,,,,4,0,1,,,,,0,65,64
25050,note_on,,,,,0,0,1,,,,,0,65,0
25050,note_on,,,,,26,0,1,,,,,0,50,0
25054,note_on,,,,,4,0,1,,,,,0,67,64
25054,note_on,,,,,0,0,1,,,,,0,52,64
25069,note_on,,,,,15,0,1,,,,,0,57,0
25069,note_on,,,,,0,0,1,,,,,0,72,0
25080,note_on,,,,,11,0,1,,,,,0,67,0
25080,note_on,,,,,0,0,1,,,,,0,52,0
25084,note_on,,,,,4,0,1,,,,,0,69,64
25084,note_on,,,,,0,0,1,,,,,0,53,64
25110,note_on,,,,,26,0,1,,,,,0,53,0
25110,note_on,,,,,0,0,1,,,,,0,69,0
25114,note_on,,,,,4,0,1,,,,,0,67,64
25114,note_on,,,,,0,0,1,,,,,0,52,64
25140,note_on,,,,,26,0,1,,,,,0,52,0
25140,note_on,,,,,0,0,1,,,,,0,67,0
25144,note_on,,,,,4,0,1,,,,,0,69,64
25144,note_on,,,,,0,0,1,,,,,0,69,64
25144,note_on,,,,,0,0,1,,,,,0,53,64
25144,note_on,,,,,0,0,1,,,,,0,53,64
25196,note_on,,,,,52,0,1,,,,,0,53,0
25196,note_on,,,,,0,0,1,,,,,0,69,0
25196,note_on,,,,,0,0,1,,,,,0,69,0
25196,note_on,,,,,0,0,1,,,,,0,53,0
25204,note_on,,,,,0,0,1,,,,,0,53,64
25204,note_on,,,,,0,0,1,,,,,0,58,64
25204,note_on,,,,,8,0,1,,,,,0,74,64
25204,note_on,,,,,0,0,1,,,,,0,69,64
25256,note_on,,,,,52,0,1,,,,,0,53,0
25256,note_on,,,,,0,0,1,,,,,0,69,0
25264,note_on,,,,,8,0,1,,,,,0,62,64
25264,note_on,,,,,0,0,1,,,,,0,46,64
25309,note_on,,,,,45,0,1,,,,,0,58,0
25309,note_on,,,,,0,0,1,,,,,0,74,0
25316,note_on,,,,,7,0,1,,,,,0,62,0
25316,note_on,,,,,0,0,1,,,,,0,46,0
25324,note_on,,,,,0,0,1,,,,,0,55,64
25324,note_on,,,,,8,0,1,,,,,0,70,64
25354,note_on,,,,,30,0,1,,,,,0,62,64
25354,note_on,,,,,0,0,1,,,,,0,46,64
25380,note_on,,,,,0,0,1,,,,,0,62,0
25380,note_on,,,,,26,0,1,,,,,0,46,0
25384,note_on,,,,,4,0,1,,,,,0,64,64
25384,note_on,,,,,0,0,1,,,,,0,48,64
25410,note_on,,,,,26,0,1,,,,,0,48,0
25410,note_on,,,,,0,0,1,,,,,0,64,0
25414,note_on,,,,,4,0,1,,,,,0,66,64
25414,note_on,,,,,0,0,1,,,,,0,50,64
25429,note_on,,,,,15,0,1,,,,,0,55,0
25429,note_on,,,,,0,0,1,,,,,0,70,0
25440,note_on,,,,,0,0,1,,,,,0,50,0
25440,note_on,,,,,11,0,1,,,,,0,66,0
25444,note_on,,,,,4,0,1,,,,,0,67,64
25444,note_on,,,,,0,0,1,,,,,0,51,64
25470,note_on,,,,,26,0,1,,,,,0,51,0
25470,note_on,,,,,0,0,1,,,,,0,67,0
25474,note_on,,,,,4,0,1,,,,,0,66,64
25474,note_on,,,,,0,0,1,,,,,0,50,64
25500,note_on,,,,,26,0,1,,,,,0,50,0
25500,note_on,,,,,0,0,1,,,,,0,66,0
25504,note_on,,,,,4,0,1,,,,,0,67,64
25504,note_on,,,,,0,0,1,,,,,0,67,64
25504,note_on,,,,,0,0,1,,,,,0,58,64
25504,note_on,,,,,0,0,1,,,,,0,51,64
25556,note_on,,,,,52,0,1,,,,,0,58,0
25556,note_on,,,,,0,0,1,,,,,0,67,0
25564,note_on,,,,,8,0,1,,,,,0,72,64
25564,note_on,,,,,0,0,1,,,,,0,57,64
25590,note_on,,,,,26,0,1,,,,,0,51,0
25594,note_on,,,,,4,0,1,,,,,0,50,64
25616,note_on,,,,,22,0,1,,,,,0,67,0
25616,note_on,,,,,0,0,1,,,,,0,57,0
25616,note_on,,,,,0,0,1,,,,,0,72,0
25620,note_on,,,,,4,0,1,,,,,0,50,0
25624,note_on,,,,,0,0,1,,,,,0,51,64
25624,note_on,,,,,4,0,1,,,,,0,72,64
25624,note_on,,,,,0,0,1,,,,,0,70,64
25624,note_on,,,,,0,0,1,,,,,0,55,64
25650,note_on,,,,,26,0,1,,,,,0,51,0
25654,note_on,,,,,4,0,1,,,,,0,50,64
25676,note_on,,,,,22,0,1,,,,,0,72,0
25676,note_on,,,,,0,0,1,,,,,0,55,0
25676,note_on,,,,,0,0,1,,,,,0,70,0
25680,note_on,,,,,4,0,1,,,,,0,50,0
25684,note_on,,,,,4,0,1,,,,,0,72,64
25684,note_on,,,,,0,0,1,,,,,0,69,64
25684,note_on,,,,,0,0,1,,,,,0,63,64
25684,note_on,,,,,0,0,1,,,,,0,48,64
25710,note_on,,,,,26,0,1,,,,,0,48,0
25714,note_on,,,,,4,0,1,,,,,0,46,64
25736,note_on,,,,,22,0,1,,,,,0,72,0
25736,note_on,,,,,0,0,1,,,,,0,63,0
25736,note_on,,,,,0,0,1,,,,,0,69,0
25740,note_on,,,,,4,0,1,,,,,0,46,0
25744,note_on,,,,,0,0,1,,,,,0,48,64
25744,note_on,,,,,4,0,1,,,,,0,72,64
25744,note_on,,,,,0,0,1,,,,,0,67,64
25744,note_on,,,,,0,0,1,,,,,0,63,64
25770,note_on,,,,,26,0,1,,,,,0,48,0
25774,note_on,,,,,4,0,1,,,,,0,46,64
25796,note_on,,,,,22,0,1,,,,,0,72,0
25796,note_on,,,,,0,0,1,,,,,0,63,0
25796,note_on,,,,,0,0,1,,,,,0,67,0
25800,note_on,,,,,4,0,1,,,,,0,46,0
25804,note_on,,,,,0,0,1,,,,,0,45,64
25804,note_on,,,,,0,0,1,,,,,0,63,64
25804,note_on,,,,,0,0,1,,,,,0,66,64
25804,note_on,,,,,4,0,1,,,,,0,72,64
25830,note_on,,,,,26,0,1,,,,,0,45,0
25834,note_on,,,,,4,0,1,,,,,0,43,64
25856,note_on,,,,,22,0,1,,,,,0,72,0
25856,note_on,,,,,0,0,1,,,,,0,63,0
25856,note_on,,,,,0,0,1,,,,,0,66,0
25860,note_on,,,,,4,0,1,,,,,0,43,0
25864,note_on,,,,,4,0,1,,,,,0,72,64
25864,note_on,,,,,0,0,1,,,,,0,67,64
25864,note_on,,,,,0,0,1,,,,,0,45,64
25864,note_on,,,,,0,0,1,,,,,0,63,64
25890,note_on,,,,,26,0,1,,,,,0,45,0
25894,note_on,,,,,4,0,1,,,,,0,43,64
25916,note_on,,,,,22,0,1,,,,,0,72,0
25916,note_on,,,,,0,0,1,,,,,0,63,0
25916,note_on,,,,,0,0,1,,,,,0,67,0
25920,note_on,,,,,4,0,1,,,,,0,43,0
25924,note_on,,,,,4,0,1,,,,,0,72,64
25924,note_on,,,,,0,0,1,,,,,0,69,64
25924,note_on,,,,,0,0,1,,,,,0,62,64
25924,note_on,,,,,0,0,1,,,,,0,42,64
26029,note_on,,,,,0,0,1,,,,,0,69,0
26029,note_on,,,,,0,0,1,,,,,0,72,0
26029,note_on,,,,,105,0,1,,,,,0,42,0
26029,note_on,,,,,0,0,1,,,,,0,62,0
26104,note_on,,,,,75,0,1,,,,,0,74,64
26104,note_on,,,,,0,0,1,,,,,0,62,64
26104,note_on,,,,,0,0,1,,,,,0,38,64
26104,note_on,,,,,0,0,1,,,,,0,66,64
26156,note_on,,,,,52,0,1,,,,,0,38,0
26156,note_on,,,,,0,0,1,,,,,0,74,0
26156,note_on,,,,,0,0,1,,,,,0,66,0
26156,note_on,,,,,0,0,1,,,,,0,62,0
26164,note_on,,,,,0,0,1,,,,,0,67,64
26164,note_on,,,,,8,0,1,,,,,0,70,64
26164,note_on,,,,,0,0,1,,,,,0,43,64
26164,note_on,,,,,0,0,1,,,,,0,62,64
26269,note_on,,,,,105,0,1,,,,,0,43,0
26269,note_on,,,,,0,0,1,,,,,0,70,0
26269,note_on,,,,,0,0,1,,,,,0,67,0
26269,note_on,,,,,0,0,1,,,,,0,62,0
26344,note_on,,,,,75,0,1,,,,,0,72,64
26344,note_on,,,,,0,0,1,,,,,0,69,64
26344,note_on,,,,,0,0,1,,,,,0,63,64
26344,note_on,,,,,0,0,1,,,,,0,48,64
26396,note_on,,,,,0,0,1,,,,,0,63,0
26396,note_on,,,,,52,0,1,,,,,0,48,0
26396,note_on,,,,,0,0,1,,,,,0,72,0
26396,note_on,,,,,0,0,1,,,,,0,69,0
26404,note_on,,,,,0,0,1,,,,,0,50,64
26404,note_on,,,,,8,0,1,,,,,0,70,64
26404,note_on,,,,,0,0,1,,,,,0,67,64
26404,note_on,,,,,0,0,1,,,,,0,62,64
26456,note_on,,,,,52,0,1,,,,,0,70,0
26464,note_on,,,,,8,0,1,,,,,0,69,64
26509,note_on,,,,,45,0,1,,,,,0,67,0
26509,note_on,,,,,0,0,1,,,,,0,50,0
26509,note_on,,,,,0,0,1,,,,,0,62,0
26516,note_on,,,,,7,0,1,,,,,0,69,0
26524,note_on,,,,,8,0,1,,,,,0,69,64
26524,note_on,,,,,0,0,1,,,,,0,66,64
26524,note_on,,,,,0,0,1,,,,,0,60,64
26524,note_on,,,,,0,0,1,,,,,0,38,64
26576,note_on,,,,,52,0,1,,,,,0,69,0
26584,note_on,,,,,8,0,1,,,,,0,67,64
26629,note_on,,,,,0,0,1,,,,,0,38,0
26629,note_on,,,,,45,0,1,,,,,0,66,0
26629,note_on,,,,,0,0,1,,,,,0,60,0
26636,note_on,,,,,7,0,1,,,,,0,67,0
26644,note_on,,,,,8,0,1,,,,,0,67,64
26644,note_on,,,,,0,0,1,,,,,0,62,64
26644,note_on,,,,,0,0,1,,,,,0,58,64
26644,note_on,,,,,0,0,1,,,,,0,43,64
26670,note_on,,,,,26,0,1,,,,,0,43,0
26674,note_on,,,,,4,0,1,,,,,0,50,64
26700,note_on,,,,,26,0,1,,,,,0,50,0
26704,note_on,,,,,4,0,1,,,,,0,52,64
26730,note_on,,,,,26,0,1,,,,,0,52,0
26734,note_on,,,,,4,0,1,,,,,0,54,64
26749,note_on,,,,,15,0,1,,,,,0,67,0
26749,note_on,,,,,0,0,1,,,,,0,58,0
26749,note_on,,,,,0,0,1,,,,,0,62,0
26760,note_on,,,,,11,0,1,,,,,0,54,0
26764,note_on,,,,,4,0,1,,,,,0,55,64
26790,note_on,,,,,26,0,1,,,,,0,55,0
26794,note_on,,,,,4,0,1,,,,,0,69,64
26794,note_on,,,,,0,0,1,,,,,0,54,64
26820,note_on,,,,,26,0,1,,,,,0,54,0
26820,note_on,,,,,0,0,1,,,,,0,69,0
26824,note_on,,,,,4,0,1,,,,,0,70,64
26824,note_on,,,,,0,0,1,,,,,0,55,64
26850,note_on,,,,,26,0,1,,,,,0,70,0
26854,note_on,,,,,4,0,1,,,,,0,72,64
26876,note_on,,,,,22,0,1,,,,,0,55,0
26880,note_on,,,,,4,0,1,,,,,0,72,0
26884,note_on,,,,,4,0,1,,,,,0,74,64
26884,note_on,,,,,0,0,1,,,,,0,55,64
26910,note_on,,,,,26,0,1,,,,,0,74,0
26914,note_on,,,,,4,0,1,,,,,0,72,64
26914,note_on,,,,,0,0,1,,,,,0,57,64
26940,note_on,,,,,26,0,1,,,,,0,57,0
26940,note_on,,,,,0,0,1,,,,,0,72,0
26944,note_on,,,,,4,0,1,,,,,0,74,64
26944,note_on,,,,,0,0,1,,,,,0,58,64
26970,note_on,,,,,0,0,1,,,,,0,74,0
26970,note_on,,,,,26,0,1,,,,,0,58,0
26974,note_on,,,,,0,0,1,,,,,0,60,64
26974,note_on,,,,,4,0,1,,,,,0,75,64
27000,note_on,,,,,26,0,1,,,,,0,60,0
27000,note_on,,,,,0,0,1,,,,,0,75,0
27004,note_on,,,,,4,0,1,,,,,0,69,64
27004,note_on,,,,,0,0,1,,,,,0,62,64
27030,note_on,,,,,26,0,1,,,,,0,62,0
27034,note_on,,,,,4,0,1,,,,,0,64,64
27034,note_on,,,,,0,0,1,,,,,0,61,64
27056,note_on,,,,,22,0,1,,,,,0,55,0
27060,note_on,,,,,0,0,1,,,,,0,64,0
27060,note_on,,,,,4,0,1,,,,,0,61,0
27064,note_on,,,,,0,0,1,,,,,0,53,64
27064,note_on,,,,,4,0,1,,,,,0,65,64
27064,note_on,,,,,0,0,1,,,,,0,62,64
27090,note_on,,,,,26,0,1,,,,,0,65,0
27094,note_on,,,,,4,0,1,,,,,0,67,64
27109,note_on,,,,,15,0,1,,,,,0,69,0
27116,note_on,,,,,7,0,1,,,,,0,53,0
27120,note_on,,,,,4,0,1,,,,,0,67,0
27124,note_on,,,,,4,0,1,,,,,0,69,64
27124,note_on,,,,,0,0,1,,,,,0,53,64
27150,note_on,,,,,26,0,1,,,,,0,69,0
27154,note_on,,,,,4,0,1,,,,,0,70,64
27154,note_on,,,,,0,0,1,,,,,0,67,64
27176,note_on,,,,,22,0,1,,,,,0,62,0
27180,note_on,,,,,4,0,1,,,,,0,67,0
27180,note_on,,,,,0,0,1,,,,,0,70,0
27184,note_on,,,,,4,0,1,,,,,0,72,64
27184,note_on,,,,,0,0,1,,,,,0,69,64
27184,note_on,,,,,0,0,1,,,,,0,57,64
27210,note_on,,,,,26,0,1,,,,,0,57,0
27210,note_on,,,,,0,0,1,,,,,0,72,0
27214,note_on,,,,,4,0,1,,,,,0,74,64
27214,note_on,,,,,0,0,1,,,,,0,59,64
27240,note_on,,,,,26,0,1,,,,,0,59,0
27240,note_on,,,,,0,0,1,,,,,0,74,0
27244,note_on,,,,,4,0,1,,,,,0,75,64
27244,note_on,,,,,0,0,1,,,,,0,60,64
27270,note_on,,,,,26,0,1,,,,,0,60,0
27270,note_on,,,,,0,0,1,,,,,0,75,0
27274,note_on,,,,,0,0,1,,,,,0,59,64
27274,note_on,,,,,4,0,1,,,,,0,74,64
27296,note_on,,,,,22,0,1,,,,,0,69,0
27300,note_on,,,,,4,0,1,,,,,0,59,0
27300,note_on,,,,,0,0,1,,,,,0,74,0
27304,note_on,,,,,4,0,1,,,,,0,75,64
27304,note_on,,,,,0,0,1,,,,,0,68,64
27304,note_on,,,,,0,0,1,,,,,0,60,64
27330,note_on,,,,,26,0,1,,,,,0,75,0
27334,note_on,,,,,4,0,1,,,,,0,77,64
27356,note_on,,,,,22,0,1,,,,,0,60,0
27356,note_on,,,,,0,0,1,,,,,0,68,0
27360,note_on,,,,,4,0,1,,,,,0,77,0
27364,note_on,,,,,4,0,1,,,,,0,71,64
27364,note_on,,,,,0,0,1,,,,,0,67,64
27364,note_on,,,,,0,0,1,,,,,0,62,64
27390,note_on,,,,,26,0,1,,,,,0,71,0
27390,note_on,,,,,0,0,1,,,,,0,53,0
27394,note_on,,,,,4,0,1,,,,,0,67,64
27394,note_on,,,,,0,0,1,,,,,0,47,64
27416,note_on,,,,,22,0,1,,,,,0,67,0
27420,note_on,,,,,4,0,1,,,,,0,47,0
27420,note_on,,,,,0,0,1,,,,,0,67,0
27424,note_on,,,,,4,0,1,,,,,0,69,64
27424,note_on,,,,,0,0,1,,,,,0,48,64
27450,note_on,,,,,0,0,1,,,,,0,69,0
27450,note_on,,,,,26,0,1,,,,,0,48,0
27454,note_on,,,,,4,0,1,,,,,0,71,64
27454,note_on,,,,,0,0,1,,,,,0,50,64
27469,note_on,,,,,15,0,1,,,,,0,62,0
27480,note_on,,,,,11,0,1,,,,,0,50,0
27480,note_on,,,,,0,0,1,,,,,0,71,0
27484,note_on,,,,,4,0,1,,,,,0,72,64
27484,note_on,,,,,0,0,1,,,,,0,51,64
27510,note_on,,,,,0,0,1,,,,,0,72,0
27510,note_on,,,,,26,0,1,,,,,0,51,0
27514,note_on,,,,,0,0,1,,,,,0,50,64
27514,note_on,,,,,4,0,1,,,,,0,71,64
27540,note_on,,,,,26,0,1,,,,,0,50,0
27540,note_on,,,,,0,0,1,,,,,0,71,0
27544,note_on,,,,,4,0,1,,,,,0,72,64
27544,note_on,,,,,0,0,1,,,,,0,51,64
27574,note_on,,,,,30,0,1,,,,,0,70,64
27574,note_on,,,,,0,0,1,,,,,0,62,64
27596,note_on,,,,,22,0,1,,,,,0,51,0
27596,note_on,,,,,0,0,1,,,,,0,72,0
27600,note_on,,,,,0,0,1,,,,,0,62,0
27600,note_on,,,,,4,0,1,,,,,0,70,0
27604,note_on,,,,,4,0,1,,,,,0,72,64
27604,note_on,,,,,0,0,1,,,,,0,69,64
27604,note_on,,,,,0,0,1,,,,,0,60,64
27604,note_on,,,,,0,0,1,,,,,0,51,64
27630,note_on,,,,,26,0,1,,,,,0,60,0
27630,note_on,,,,,0,0,1,,,,,0,69,0
27634,note_on,,,,,4,0,1,,,,,0,67,64
27634,note_on,,,,,0,0,1,,,,,0,58,64
27656,note_on,,,,,22,0,1,,,,,0,72,0
27660,note_on,,,,,4,0,1,,,,,0,58,0
27660,note_on,,,,,0,0,1,,,,,0,67,0
27664,note_on,,,,,0,0,1,,,,,0,69,64
27664,note_on,,,,,0,0,1,,,,,0,60,64
27664,note_on,,,,,4,0,1,,,,,0,72,64
27690,note_on,,,,,26,0,1,,,,,0,60,0
27690,note_on,,,,,0,0,1,,,,,0,69,0
27694,note_on,,,,,4,0,1,,,,,0,67,64
27694,note_on,,,,,0,0,1,,,,,0,58,64
27716,note_on,,,,,22,0,1,,,,,0,72,0
27720,note_on,,,,,4,0,1,,,,,0,58,0
27720,note_on,,,,,0,0,1,,,,,0,67,0
27724,note_on,,,,,4,0,1,,,,,0,72,64
27724,note_on,,,,,0,0,1,,,,,0,66,64
27724,note_on,,,,,0,0,1,,,,,0,57,64
27829,note_on,,,,,105,0,1,,,,,0,57,0
27829,note_on,,,,,0,0,1,,,,,0,72,0
27829,note_on,,,,,0,0,1,,,,,0,66,0
27829,note_on,,,,,0,0,1,,,,,0,51,0
27904,note_on,,,,,0,0,1,,,,,0,60,64
27904,note_on,,,,,0,0,1,,,,,0,51,64
27904,note_on,,,,,75,0,1,,,,,0,78,64
27904,note_on,,,,,0,0,1,,,,,0,69,64
27956,note_on,,,,,52,0,1,,,,,0,51,0
27956,note_on,,,,,0,0,1,,,,,0,78,0
27956,note_on,,,,,0,0,1,,,,,0,69,0
27956,note_on,,,,,0,0,1,,,,,0,60,0
27964,note_on,,,,,0,0,1,,,,,0,50,64
27964,note_on,,,,,8,0,1,,,,,0,79,64
27964,note_on,,,,,0,0,1,,,,,0,70,64
27964,note_on,,,,,0,0,1,,,,,0,62,64
28069,note_on,,,,,0,0,1,,,,,0,62,0
28069,note_on,,,,,0,0,1,,,,,0,70,0
28069,note_on,,,,,105,0,1,,,,,0,50,0
28069,note_on,,,,,0,0,1,,,,,0,79,0
28114,note_on,,,,,45,0,1,,,,,0,82,64
28140,note_on,,,,,26,0,1,,,,,0,82,0
28144,note_on,,,,,0,0,1,,,,,0,49,64
28144,note_on,,,,,4,0,1,,,,,0,81,64
28170,note_on,,,,,26,0,1,,,,,0,81,0
28174,note_on,,,,,4,0,1,,,,,0,79,64
28196,note_on,,,,,22,0,1,,,,,0,49,0
28200,note_on,,,,,4,0,1,,,,,0,79,0
28204,note_on,,,,,4,0,1,,,,,0,78,64
28204,note_on,,,,,0,0,1,,,,,0,50,64
28230,note_on,,,,,26,0,1,,,,,0,78,0
28234,note_on,,,,,4,0,1,,,,,0,76,64
28234,note_on,,,,,0,0,1,,,,,0,57,64
28260,note_on,,,,,0,0,1,,,,,0,76,0
28260,note_on,,,,,26,0,1,,,,,0,57,0
28264,note_on,,,,,0,0,1,,,,,0,58,64
28264,note_on,,,,,4,0,1,,,,,0,74,64
28290,note_on,,,,,0,0,1,,,,,0,74,0
28290,note_on,,,,,26,0,1,,,,,0,58,0
28294,note_on,,,,,4,0,1,,,,,0,72,64
28294,note_on,,,,,0,0,1,,,,,0,60,64
28309,note_on,,,,,15,0,1,,,,,0,50,0
28320,note_on,,,,,0,0,1,,,,,0,72,0
28320,note_on,,,,,11,0,1,,,,,0,60,0
28324,note_on,,,,,4,0,1,,,,,0,70,64
28324,note_on,,,,,0,0,1,,,,,0,62,64
28350,note_on,,,,,26,0,1,,,,,0,70,0
28354,note_on,,,,,4,0,1,,,,,0,69,64
28380,note_on,,,,,26,0,1,,,,,0,69,0
28384,note_on,,,,,0,0,1,,,,,0,50,64
28384,note_on,,,,,4,0,1,,,,,0,67,64
28410,note_on,,,,,26,0,1,,,,,0,67,0
28414,note_on,,,,,4,0,1,,,,,0,66,64
28436,note_on,,,,,22,0,1,,,,,0,50,0
28440,note_on,,,,,4,0,1,,,,,0,66,0
28444,note_on,,,,,4,0,1,,,,,0,67,64
28444,note_on,,,,,0,0,1,,,,,0,51,64
28470,note_on,,,,,26,0,1,,,,,0,62,0
28474,note_on,,,,,4,0,1,,,,,0,59,64
28474,note_on,,,,,0,0,1,,,,,0,55,64
28500,note_on,,,,,26,0,1,,,,,0,55,0
28500,note_on,,,,,0,0,1,,,,,0,59,0
28504,note_on,,,,,4,0,1,,,,,0,60,64
28504,note_on,,,,,0,0,1,,,,,0,57,64
28530,note_on,,,,,26,0,1,,,,,0,57,0
28530,note_on,,,,,0,0,1,,,,,0,60,0
28534,note_on,,,,,0,0,1,,,,,0,59,64
28534,note_on,,,,,4,0,1,,,,,0,62,64
28549,note_on,,,,,15,0,1,,,,,0,51,0
28560,note_on,,,,,11,0,1,,,,,0,59,0
28560,note_on,,,,,0,0,1,,,,,0,62,0
28564,note_on,,,,,4,0,1,,,,,0,63,64
28564,note_on,,,,,0,0,1,,,,,0,60,64
28564,note_on,,,,,0,0,1,,,,,0,48,64
28590,note_on,,,,,26,0,1,,,,,0,60,0
28590,note_on,,,,,0,0,1,,,,,0,63,0
28594,note_on,,,,,0,0,1,,,,,0,59,64
28594,note_on,,,,,4,0,1,,,,,0,62,64
28620,note_on,,,,,26,0,1,,,,,0,59,0
28620,note_on,,,,,0,0,1,,,,,0,62,0
28624,note_on,,,,,4,0,1,,,,,0,63,64
28624,note_on,,,,,0,0,1,,,,,0,60,64
28669,note_on,,,,,45,0,1,,,,,0,48,0
28676,note_on,,,,,7,0,1,,,,,0,60,0
28676,note_on,,,,,0,0,1,,,,,0,63,0
28684,note_on,,,,,8,0,1,,,,,0,63,64
28684,note_on,,,,,0,0,1,,,,,0,60,64
28714,note_on,,,,,30,0,1,,,,,0,45,64
28740,note_on,,,,,26,0,1,,,,,0,45,0
28744,note_on,,,,,4,0,1,,,,,0,47,64
28770,note_on,,,,,26,0,1,,,,,0,47,0
28774,note_on,,,,,4,0,1,,,,,0,48,64
28789,note_on,,,,,15,0,1,,,,,0,60,0
28789,note_on,,,,,0,0,1,,,,,0,63,0
28800,note_on,,,,,11,0,1,,,,,0,48,0
28804,note_on,,,,,4,0,1,,,,,0,50,64
28834,note_on,,,,,30,0,1,,,,,0,60,64
28834,note_on,,,,,0,0,1,,,,,0,57,64
28860,note_on,,,,,26,0,1,,,,,0,57,0
28860,note_on,,,,,0,0,1,,,,,0,60,0
28864,note_on,,,,,4,0,1,,,,,0,62,64
28864,note_on,,,,,0,0,1,,,,,0,59,64
28890,note_on,,,,,26,0,1,,,,,0,59,0
28890,note_on,,,,,0,0,1,,,,,0,62,0
28894,note_on,,,,,0,0,1,,,,,0,60,64
28894,note_on,,,,,4,0,1,,,,,0,63,64
28909,note_on,,,,,15,0,1,,,,,0,50,0
28920,note_on,,,,,11,0,1,,,,,0,60,0
28920,note_on,,,,,0,0,1,,,,,0,63,0
28924,note_on,,,,,4,0,1,,,,,0,65,64
28924,note_on,,,,,0,0,1,,,,,0,62,64
28924,note_on,,,,,0,0,1,,,,,0,47,64
28950,note_on,,,,,26,0,1,,,,,0,62,0
28950,note_on,,,,,0,0,1,,,,,0,65,0
28954,note_on,,,,,4,0,1,,,,,0,63,64
28954,note_on,,,,,0,0,1,,,,,0,60,64
28980,note_on,,,,,0,0,1,,,,,0,63,0
28980,note_on,,,,,26,0,1,,,,,0,60,0
28984,note_on,,,,,0,0,1,,,,,0,62,64
28984,note_on,,,,,4,0,1,,,,,0,65,64
29029,note_on,,,,,45,0,1,,,,,0,47,0
29036,note_on,,,,,7,0,1,,,,,0,62,0
29036,note_on,,,,,0,0,1,,,,,0,65,0
29044,note_on,,,,,8,0,1,,,,,0,65,64
29044,note_on,,,,,0,0,1,,,,,0,62,64
29074,note_on,,,,,30,0,1,,,,,0,43,64
29100,note_on,,,,,26,0,1,,,,,0,43,0
29104,note_on,,,,,4,0,1,,,,,0,45,64
29130,note_on,,,,,26,0,1,,,,,0,45,0
29134,note_on,,,,,4,0,1,,,,,0,47,64
29160,note_on,,,,,26,0,1,,,,,0,47,0
29164,note_on,,,,,4,0,1,,,,,0,48,64
29216,note_on,,,,,52,0,1,,,,,0,48,0
29216,note_on,,,,,0,0,1,,,,,0,62,0
29216,note_on,,,,,0,0,1,,,,,0,65,0
29216,note_on,,,,,0,0,1,,,,,0,67,0
29224,note_on,,,,,8,0,1,,,,,0,68,64
29224,note_on,,,,,0,0,1,,,,,0,65,64
29224,note_on,,,,,0,0,1,,,,,0,48,64
29254,note_on,,,,,30,0,1,,,,,0,74,64
29276,note_on,,,,,0,0,1,,,,,0,65,0
29276,note_on,,,,,22,0,1,,,,,0,48,0
29276,note_on,,,,,0,0,1,,,,,0,68,0
29284,note_on,,,,,8,0,1,,,,,0,67,64
29284,note_on,,,,,0,0,1,,,,,0,63,64
29284,note_on,,,,,0,0,1,,,,,0,48,64
29306,note_on,,,,,22,0,1,,,,,0,74,0
29314,note_on,,,,,8,0,1,,,,,0,72,64
29336,note_on,,,,,0,0,1,,,,,0,63,0
29336,note_on,,,,,22,0,1,,,,,0,67,0
29336,note_on,,,,,0,0,1,,,,,0,48,0
29344,note_on,,,,,8,0,1,,,,,0,65,64
29344,note_on,,,,,0,0,1,,,,,0,48,64
29344,note_on,,,,,0,0,1,,,,,0,62,64
29366,note_on,,,,,22,0,1,,,,,0,72,0
29374,note_on,,,,,8,0,1,,,,,0,70,64
29396,note_on,,,,,0,0,1,,,,,0,48,0
29396,note_on,,,,,0,0,1,,,,,0,62,0
29396,note_on,,,,,22,0,1,,,,,0,65,0
29404,note_on,,,,,8,0,1,,,,,0,63,64
29404,note_on,,,,,0,0,1,,,,,0,60,64
29404,note_on,,,,,0,0,1,,,,,0,48,64
29426,note_on,,,,,22,0,1,,,,,0,70,0
29434,note_on,,,,,8,0,1,,,,,0,69,64
29456,note_on,,,,,22,0,1,,,,,0,48,0
29456,note_on,,,,,0,0,1,,,,,0,60,0
29464,note_on,,,,,8,0,1,,,,,0,58,64
29464,note_on,,,,,0,0,1,,,,,0,48,64
29486,note_on,,,,,22,0,1,,,,,0,69,0
29494,note_on,,,,,8,0,1,,,,,0,67,64
29509,note_on,,,,,15,0,1,,,,,0,63,0
29516,note_on,,,,,0,0,1,,,,,0,58,0
29516,note_on,,,,,7,0,1,,,,,0,48,0
29520,note_on,,,,,4,0,1,,,,,0,67,0
29524,note_on,,,,,4,0,1,,,,,0,66,64
29524,note_on,,,,,0,0,1,,,,,0,62,64
29524,note_on,,,,,0,0,1,,,,,0,57,64
29524,note_on,,,,,0,0,1,,,,,0,48,64
29576,note_on,,,,,0,0,1,,,,,0,66,0
29576,note_on,,,,,52,0,1,,,,,0,48,0
29576,note_on,,,,,0,0,1,,,,,0,57,0
29584,note_on,,,,,8,0,1,,,,,0,72,64
29584,note_on,,,,,0,0,1,,,,,0,46,64
29610,note_on,,,,,26,0,1,,,,,0,46,0
29610,note_on,,,,,0,0,1,,,,,0,72,0
29614,note_on,,,,,4,0,1,,,,,0,74,64
29614,note_on,,,,,0,0,1,,,,,0,45,64
29627,note_on,,,,,13,0,1,,,,,0,74,0
29629,note_on,,,,,2,0,1,,,,,0,62,0
29629,note_on,,,,,0,0,1,,,,,0,75,64
29629,note_on,,,,,0,0,1,,,,,0,75,64
29640,set_tempo,,,,,29640,1,0,,754717,,,,,
29640,note_on,,,,,11,0,1,,,,,0,45,0
29642,note_on,,,,,0,0,1,,,,,0,75,0
29642,note_on,,,,,2,0,1,,,,,0,75,0
29644,note_on,,,,,2,0,1,,,,,0,74,64
29644,note_on,,,,,0,0,1,,,,,0,46,64
29652,set_tempo,,,,,12,1,0,,759494,,,,,
29665,set_tempo,,,,,13,1,0,,764331,,,,,
29677,set_tempo,,,,,12,1,0,,769231,,,,,
29690,set_tempo,,,,,13,1,0,,774194,,,,,
29696,note_on,,,,,52,0,1,,,,,0,46,0
29696,note_on,,,,,0,0,1,,,,,0,74,0
29702,set_tempo,,,,,12,1,0,,779221,,,,,
29704,note_on,,,,,8,0,1,,,,,0,67,64
29704,note_on,,,,,0,0,1,,,,,0,63,64
29704,note_on,,,,,0,0,1,,,,,0,58,64
29704,note_on,,,,,0,0,1,,,,,0,48,64
29712,set_tempo,,,,,10,1,0,,784314,,,,,
29725,set_tempo,,,,,13,1,0,,789474,,,,,
29737,set_tempo,,,,,12,1,0,,794702,,,,,
29750,set_tempo,,,,,13,1,0,,800000,,,,,
29756,note_on,,,,,0,0,1,,,,,0,63,0
29756,note_on,,,,,0,0,1,,,,,0,58,0
29756,note_on,,,,,52,0,1,,,,,0,48,0
29762,set_tempo,,,,,12,1,0,,805369,,,,,
29764,note_on,,,,,0,0,1,,,,,0,50,64
29764,note_on,,,,,0,0,1,,,,,0,57,64
29764,note_on,,,,,8,0,1,,,,,0,62,64
29775,set_tempo,,,,,13,1,0,,810811,,,,,
29785,set_tempo,,,,,10,1,0,,816327,,,,,
29790,note_on,,,,,26,0,1,,,,,0,57,0
29794,note_on,,,,,4,0,1,,,,,0,58,64
29797,set_tempo,,,,,12,1,0,,821918,,,,,
29809,note_on,,,,,15,0,1,,,,,0,67,0
29810,set_tempo,,,,,13,1,0,,827586,,,,,
29816,note_on,,,,,7,0,1,,,,,0,50,0
29820,note_on,,,,,4,0,1,,,,,0,58,0
29822,set_tempo,,,,,12,1,0,,833333,,,,,
29824,note_on,,,,,0,0,1,,,,,0,38,64
29824,note_on,,,,,4,0,1,,,,,0,66,64
29824,note_on,,,,,0,0,1,,,,,0,60,64
29835,set_tempo,,,,,13,1,0,,839161,,,,,
29847,set_tempo,,,,,12,1,0,,845070,,,,,
29857,set_tempo,,,,,10,1,0,,851064,,,,,
29869,note_on,,,,,45,0,1,,,,,0,62,0
29870,set_tempo,,,,,13,1,0,,857143,,,,,
29876,note_on,,,,,7,0,1,,,,,0,66,0
29876,note_on,,,,,0,0,1,,,,,0,38,0
29882,set_tempo,,,,,12,1,0,,863309,,,,,
29884,note_on,,,,,0,0,1,,,,,0,62,64
29884,note_on,,,,,0,0,1,,,,,0,43,64
29884,note_on,,,,,8,0,1,,,,,0,67,64
29895,set_tempo,,,,,13,1,0,,869565,,,,,
29907,set_tempo,,,,,12,1,0,,875912,,,,,
29920,set_tempo,,,,,13,1,0,,882353,,,,,
29930,set_tempo,,,,,10,1,0,,888889,,,,,
29936,note_on,,,,,52,0,1,,,,,0,60,0
29942,set_tempo,,,,,12,1,0,,895522,,,,,
29944,note_on,,,,,8,0,1,,,,,0,59,64
29955,set_tempo,,,,,13,1,0,,902256,,,,,
29967,set_tempo,,,,,12,1,0,,909091,,,,,
29980,set_tempo,,,,,13,1,0,,916031,,,,,
29989,note_on,,,,,0,0,1,,,,,0,62,0
29989,note_on,,,,,0,0,1,,,,,0,43,0
29989,note_on,,,,,45,0,1,,,,,0,67,0
29992,set_tempo,,,,,12,1,0,,923077,,,,,
29996,end_of_track,,,,,0,1,1,,,,,,,
29996,note_on,,,,,7,0,1,,,,,0,59,0
30002,set_tempo,,,,,10,1,0,,930233,,,,,
30015,set_tempo,,,,,13,1,0,,937500,,,,,
30027,set_tempo,,,,,12,1,0,,944882,,,,,
30035,set_tempo,,,,,8,1,0,,967742,,,,,
30040,set_tempo,,,,,5,1,0,,975610,,,,,
30042,set_tempo,,,,,2,1,0,,983607,,,,,
30045,set_tempo,,,,,3,1,0,,991736,,,,,
30047,set_tempo,,,,,2,1,0,,1000000,,,,,
30052,set_tempo,,,,,5,1,0,,1008403,,,,,
30055,set_tempo,,,,,3,1,0,,1016949,,,,,
30057,set_tempo,,,,,2,1,0,,1025641,,,,,
30060,set_tempo,,,,,3,1,0,,1034483,,,,,
30065,set_tempo,,,,,5,1,0,,1043478,,,,,
30067,set_tempo,,,,,2,1,0,,1052632,,,,,
30070,set_tempo,,,,,3,1,0,,1061947,,,,,
30072,set_tempo,,,,,2,1,0,,1071429,,,,,
30077,set_tempo,,,,,5,1,0,,1081081,,,,,
30080,set_tempo,,,,,3,1,0,,1090909,,,,,
30082,set_tempo,,,,,2,1,0,,1100917,,,,,
30085,set_tempo,,,,,3,1,0,,1111111,,,,,
30090,set_tempo,,,,,5,1,0,,1121495,,,,,
30092,set_tempo,,,,,2,1,0,,1132075,,,,,
30095,set_tempo,,,,,3,1,0,,1142857,,,,,
30097,set_tempo,,,,,2,1,0,,1153846,,,,,
30102,set_tempo,,,,,5,1,0,,1165049,,,,,
30105,set_tempo,,,,,3,1,0,,1176471,,,,,
30107,set_tempo,,,,,2,1,0,,1188119,,,,,
30110,set_tempo,,,,,3,1,0,,1200000,,,,,
30110,end_of_track,,,,,0,1,0,,,,,,,
