,note,step,duration,channel,velocity
0,71.0,240,120,0.0,0.0
1,73.0,60,300,0.0,0.0
2,68.0,60,120,0.0,0.0
3,73.0,60,60,0.0,0.0
4,71.0,60,60,0.0,0.0
5,69.0,60,60,0.0,0.0
6,69.0,60,60,0.0,0.0
7,68.0,60,60,0.0,0.0
8,66.0,60,60,0.0,0.0
9,68.0,60,120,0.0,0.0
10,71.0,60,15,0.0,0.0
11,76.0,60,60,0.0,0.0
12,75.0,60,60,0.0,0.0
13,73.0,60,60,0.0,0.0
14,71.0,60,60,0.0,0.0
15,69.0,60,60,0.0,0.0
16,68.0,120,60,0.0,0.0
17,69.0,60,780,0.0,0.0
18,68.0,60,60,0.0,0.0
19,66.0,60,60,0.0,0.0
20,64.0,60,60,0.0,0.0
21,52.0,60,15,0.0,0.0
22,51.0,60,60,0.0,0.0
23,49.0,60,60,0.0,0.0
24,51.0,60,60,0.0,0.0
25,54.0,60,60,0.0,0.0
26,47.0,60,60,0.0,0.0
27,51.0,60,60,0.0,0.0
28,52.0,0,120,0.0,0.0
29,69.0,60,60,0.0,0.0
30,40.0,0,120,0.0,0.0
31,68.0,60,60,0.0,0.0
32,66.0,60,60,0.0,0.0
33,52.0,0,120,0.0,0.0
34,66.0,60,60,0.0,0.0
35,54.0,60,120,0.0,0.0
36,64.0,60,60,0.0,0.0
37,63.0,0,60,0.0,0.0
38,56.0,60,120,0.0,0.0
39,64.0,0,120,0.0,0.0
40,68.0,60,15,0.0,0.0
41,57.0,120,120,0.0,0.0
42,66.0,60,60,0.0,0.0
43,64.0,0,60,0.0,0.0
44,59.0,60,1740,0.0,0.0
45,63.0,120,120,0.0,0.0
46,66.0,240,120,0.0,0.0
47,68.0,60,300,0.0,0.0
48,75.0,60,120,0.0,0.0
49,68.0,60,60,0.0,0.0
50,66.0,60,60,0.0,0.0
51,64.0,60,60,0.0,0.0
52,76.0,60,15,0.0,0.0
53,75.0,60,60,0.0,0.0
54,73.0,60,60,0.0,0.0
55,75.0,0,120,0.0,0.0
56,66.0,60,15,0.0,0.0
57,71.0,60,60,0.0,0.0
58,69.0,60,60,0.0,0.0
59,68.0,60,60,0.0,0.0
60,66.0,60,60,0.0,0.0
61,64.0,60,60,0.0,0.0
62,63.0,120,60,0.0,0.0
63,64.0,60,780,0.0,0.0
64,75.0,60,60,0.0,0.0
65,73.0,60,60,0.0,0.0
66,71.0,60,60,0.0,0.0
67,73.0,60,780,0.0,0.0
68,59.0,60,60,0.0,0.0
69,58.0,60,60,0.0,0.0
70,56.0,60,60,0.0,0.0
71,58.0,60,60,0.0,0.0
72,61.0,60,60,0.0,0.0
73,54.0,60,60,0.0,0.0
74,58.0,60,60,0.0,0.0
75,59.0,60,540,0.0,0.0
76,64.0,60,60,0.0,0.0
77,63.0,60,60,0.0,0.0
78,61.0,60,60,0.0,0.0
79,63.0,0,480,0.0,0.0
80,73.0,60,60,0.0,0.0
81,71.0,60,60,0.0,0.0
82,70.0,60,60,0.0,0.0
83,71.0,60,300,0.0,0.0
84,61.0,60,60,0.0,0.0
85,59.0,60,60,0.0,0.0
86,57.0,60,60,0.0,0.0
87,56.0,60,720,0.0,0.0
88,69.0,60,60,0.0,0.0
89,68.0,60,60,0.0,0.0
90,57.0,0,120,0.0,0.0
91,66.0,60,60,0.0,0.0
92,59.0,60,120,0.0,0.0
93,65.0,60,60,0.0,0.0
94,68.0,0,60,0.0,0.0
95,62.0,60,60,0.0,0.0
96,71.0,0,60,0.0,0.0
97,65.0,60,60,0.0,0.0
98,74.0,60,120,0.0,0.0
99,66.0,60,120,0.0,0.0
100,74.0,0,60,0.0,0.0
101,73.0,60,60,0.0,0.0
102,71.0,60,120,0.0,0.0
103,54.0,60,780,0.0,0.0
104,69.0,0,60,0.0,0.0
105,65.0,60,15,0.0,0.0
106,68.0,60,60,0.0,0.0
107,71.0,60,60,0.0,0.0
108,69.0,60,60,0.0,0.0
109,66.0,60,120,0.0,0.0
110,73.0,0,60,0.0,0.0
111,64.0,60,120,0.0,0.0
112,78.0,60,60,0.0,0.0
113,81.0,60,120,0.0,0.0
114,63.0,0,120,0.0,0.0
115,78.0,60,60,0.0,0.0
116,80.0,60,60,0.0,0.0
117,61.0,0,120,0.0,0.0
118,81.0,60,60,0.0,0.0
119,63.0,60,120,0.0,0.0
120,72.0,0,120,0.0,0.0
121,52.0,0,60,0.0,0.0
122,73.0,0,120,0.0,0.0
123,64.0,60,120,0.0,0.0
124,51.0,60,60,0.0,0.0
125,49.0,0,60,0.0,0.0
126,48.0,60,60,0.0,0.0
127,66.0,0,120,0.0,0.0
128,75.0,0,480,0.0,0.0
129,51.0,60,60,0.0,0.0
130,69.0,0,60,0.0,0.0
131,54.0,60,60,0.0,0.0
132,72.0,60,60,0.0,0.0
133,57.0,60,120,0.0,0.0
134,73.0,60,120,0.0,0.0
135,57.0,0,60,0.0,0.0
136,72.0,60,120,0.0,0.0
137,56.0,60,60,0.0,0.0
138,54.0,60,120,0.0,0.0
139,52.0,60,60,0.0,0.0
140,51.0,60,60,0.0,0.0
141,68.0,0,120,0.0,0.0
142,54.0,60,60,0.0,0.0
143,73.0,0,15,0.0,0.0
144,52.0,60,60,0.0,0.0
145,56.0,60,60,0.0,0.0
146,61.0,60,60,0.0,0.0
147,76.0,60,120,0.0,0.0
148,64.0,60,120,0.0,0.0
149,67.0,60,240,0.0,0.0
150,70.0,0,120,0.0,0.0
151,61.0,60,60,0.0,0.0
152,71.0,60,60,0.0,0.0
153,63.0,0,60,0.0,0.0
154,73.0,60,120,0.0,0.0
155,64.0,0,60,0.0,0.0
156,58.0,60,120,0.0,0.0
157,65.0,0,60,0.0,0.0
158,61.0,60,120,0.0,0.0
159,66.0,0,15,0.0,0.0
160,68.0,0,60,0.0,0.0
161,70.0,60,60,0.0,0.0
162,66.0,0,120,0.0,0.0
163,71.0,60,60,0.0,0.0
164,61.0,60,120,0.0,0.0
165,73.0,60,60,0.0,0.0
166,75.0,0,60,0.0,0.0
167,58.0,60,120,0.0,0.0
168,76.0,60,60,0.0,0.0
169,75.0,0,60,0.0,0.0
170,54.0,120,120,0.0,0.0
171,76.0,60,60,0.0,0.0
172,73.0,0,60,0.0,0.0
173,75.0,0,960,0.0,0.0
174,59.0,0,120,0.0,0.0
175,58.0,60,60,0.0,0.0
176,59.0,60,60,0.0,0.0
177,61.0,60,60,0.0,0.0
178,63.0,60,60,0.0,0.0
179,64.0,60,60,0.0,0.0
180,66.0,60,60,0.0,0.0
181,68.0,60,60,0.0,0.0
182,69.0,60,60,0.0,0.0
183,68.0,60,60,0.0,0.0
184,69.0,60,60,0.0,0.0
185,66.0,60,60,0.0,0.0
186,68.0,60,60,0.0,0.0
187,66.0,0,60,0.0,0.0
188,51.0,60,60,0.0,0.0
189,52.0,60,60,0.0,0.0
190,68.0,0,60,0.0,0.0
191,54.0,60,60,0.0,0.0
192,70.0,0,60,0.0,0.0
193,74.0,0,120,0.0,0.0
194,56.0,60,60,0.0,0.0
195,58.0,60,60,0.0,0.0
196,71.0,0,15,0.0,0.0
197,59.0,60,60,0.0,0.0
198,61.0,0,60,0.0,0.0
199,65.0,0,240,0.0,0.0
200,62.0,60,60,0.0,0.0
201,68.0,60,15,0.0,0.0
202,61.0,0,60,0.0,0.0
203,62.0,60,60,0.0,0.0
204,59.0,60,60,0.0,0.0
205,61.0,60,360,0.0,0.0
206,64.0,60,540,0.0,0.0
207,71.0,60,15,0.0,0.0
208,70.0,60,60,0.0,0.0
209,68.0,60,60,0.0,0.0
210,70.0,60,60,0.0,0.0
211,71.0,0,60,0.0,0.0
212,73.0,60,60,0.0,0.0
213,59.0,60,120,0.0,0.0
214,70.0,0,60,0.0,0.0
215,66.0,0,120,0.0,0.0
216,58.0,60,240,0.0,0.0
217,64.0,60,60,0.0,0.0
218,78.0,60,180,0.0,0.0
219,63.0,60,60,0.0,0.0
220,61.0,0,60,0.0,0.0
221,63.0,0,120,0.0,0.0
222,59.0,0,120,0.0,0.0
223,76.0,60,60,0.0,0.0
224,58.0,0,120,0.0,0.0
225,54.0,0,120,0.0,0.0
226,80.0,60,60,0.0,0.0
227,78.0,60,60,0.0,0.0
228,76.0,60,60,0.0,0.0
229,56.0,0,120,0.0,0.0
230,59.0,0,360,0.0,0.0
231,75.0,60,60,0.0,0.0
232,73.0,60,60,0.0,0.0
233,52.0,0,120,0.0,0.0
234,71.0,60,60,0.0,0.0
235,75.0,60,60,0.0,0.0
236,54.0,0,240,0.0,0.0
237,66.0,60,60,0.0,0.0
238,58.0,60,120,0.0,0.0
239,73.0,60,60,0.0,0.0
240,64.0,0,60,0.0,0.0
241,63.0,60,60,0.0,0.0
242,59.0,120,240,0.0,0.0
243,66.0,60,60,0.0,0.0
244,71.0,60,60,0.0,0.0
245,70.0,0,60,0.0,0.0
246,47.0,0,15,0.0,0.0
247,71.0,60,240,0.0,0.0
248,66.0,60,60,0.0,0.0
249,64.0,60,60,0.0,0.0
250,66.0,60,120,0.0,0.0
251,59.0,0,15,0.0,0.0
252,68.0,0,240,0.0,0.0
253,64.0,60,60,0.0,0.0
254,63.0,60,60,0.0,0.0
255,47.0,60,120,0.0,0.0
256,64.0,0,300,0.0,0.0
257,59.0,60,120,0.0,0.0
258,66.0,60,60,0.0,0.0
259,68.0,0,60,0.0,0.0
260,69.0,60,60,0.0,0.0
261,47.0,0,120,0.0,0.0
262,68.0,120,60,0.0,0.0
263,47.0,0,120,0.0,0.0
264,69.0,60,240,0.0,0.0
265,64.0,60,60,0.0,0.0
266,59.0,0,120,0.0,0.0
267,63.0,60,60,0.0,0.0
268,64.0,60,120,0.0,0.0
269,66.0,0,240,0.0,0.0
270,59.0,60,120,0.0,0.0
271,63.0,0,60,0.0,0.0
272,47.0,60,120,0.0,0.0
273,61.0,60,60,0.0,0.0
274,63.0,120,300,0.0,0.0
275,59.0,0,120,0.0,0.0
276,64.0,60,60,0.0,0.0
277,66.0,60,60,0.0,0.0
278,47.0,0,120,0.0,0.0
279,67.0,60,60,0.0,0.0
280,66.0,0,60,0.0,0.0
281,67.0,0,240,0.0,0.0
282,47.0,0,120,0.0,0.0
283,63.0,60,60,0.0,0.0
284,61.0,60,60,0.0,0.0
285,63.0,60,120,0.0,0.0
286,59.0,60,15,0.0,0.0
287,64.0,30,360,0.0,0.0
288,61.0,60,60,0.0,0.0
289,47.0,120,120,0.0,0.0
290,59.0,60,60,0.0,0.0
291,61.0,0,300,0.0,0.0
292,59.0,0,120,0.0,0.0
293,59.0,24,30,0.0,0.0
294,73.0,63,120,0.0,0.0
295,58.0,24,30,0.0,0.0
296,59.0,42,30,0.0,0.0
297,58.0,57,120,0.0,0.0
298,73.0,0,120,0.0,0.0
299,54.0,60,60,0.0,0.0
300,56.0,60,60,0.0,0.0
301,61.0,60,120,0.0,0.0
302,64.0,0,120,0.0,0.0
303,58.0,0,60,0.0,0.0
304,63.0,60,120,0.0,0.0
305,59.0,60,60,0.0,0.0
306,56.0,0,60,0.0,0.0
307,54.0,60,60,0.0,0.0
308,78.0,0,120,0.0,0.0
309,52.0,0,60,0.0,0.0
310,78.0,0,120,0.0,0.0
311,51.0,60,60,0.0,0.0
312,49.0,60,60,0.0,0.0
313,71.0,60,120,0.0,0.0
314,51.0,60,60,0.0,0.0
315,63.0,0,120,0.0,0.0
316,52.0,0,60,0.0,0.0
317,70.0,60,120,0.0,0.0
318,61.0,0,240,0.0,0.0
319,54.0,60,60,0.0,0.0
320,51.0,0,60,0.0,0.0
321,49.0,60,60,0.0,0.0
322,76.0,0,120,0.0,0.0
323,47.0,60,60,0.0,0.0
324,76.0,0,120,0.0,0.0
325,46.0,60,60,0.0,0.0
326,44.0,60,60,0.0,0.0
327,64.0,60,120,0.0,0.0
328,61.0,0,120,0.0,0.0
329,66.0,0,120,0.0,0.0
330,46.0,60,60,0.0,0.0
331,47.0,0,60,0.0,0.0
332,49.0,60,60,0.0,0.0
333,66.0,0,360,0.0,0.0
334,58.0,60,240,0.0,0.0
335,64.0,60,300,0.0,0.0
336,46.0,60,60,0.0,0.0
337,44.0,60,60,0.0,0.0
338,42.0,0,60,0.0,0.0
339,59.0,0,240,0.0,0.0
340,47.0,60,120,0.0,0.0
341,63.0,0,180,0.0,0.0
342,68.0,60,60,0.0,0.0
343,44.0,60,120,0.0,0.0
344,40.0,0,120,0.0,0.0
345,61.0,60,120,0.0,0.0
346,71.0,60,15,0.0,0.0
347,54.0,60,240,0.0,0.0
348,64.0,60,180,0.0,0.0
349,42.0,0,120,0.0,0.0
350,70.0,60,60,0.0,0.0
351,47.0,240,720,0.0,0.0
352,71.0,0,120,0.0,0.0
353,63.0,60,120,0.0,0.0
354,64.0,0,120,0.0,0.0
355,55.0,60,120,0.0,0.0
356,61.0,60,120,0.0,0.0
357,54.0,0,120,0.0,0.0
358,63.0,60,120,0.0,0.0
359,59.0,60,120,0.0,0.0
360,61.0,240,120,0.0,0.0
361,52.0,0,120,0.0,0.0
362,58.0,0,60,0.0,0.0
363,63.0,0,240,0.0,0.0
364,59.0,0,240,0.0,0.0
365,54.0,0,240,0.0,0.0
366,52.0,60,1740,0.0,0.0
367,71.0,240,120,0.0,0.0
368,68.0,60,120,0.0,0.0
369,73.0,60,15,0.0,0.0
370,71.0,60,60,0.0,0.0
371,69.0,60,60,0.0,0.0
372,69.0,60,15,0.0,0.0
373,68.0,60,60,0.0,0.0
374,66.0,60,60,0.0,0.0
375,68.0,60,120,0.0,0.0
376,71.0,60,15,0.0,0.0
377,76.0,60,60,0.0,0.0
378,75.0,60,60,0.0,0.0
379,73.0,60,60,0.0,0.0
380,71.0,60,60,0.0,0.0
381,69.0,60,60,0.0,0.0
382,68.0,120,60,0.0,0.0
383,68.0,60,60,0.0,0.0
384,66.0,60,60,0.0,0.0
385,64.0,60,60,0.0,0.0
386,52.0,60,60,0.0,0.0
387,51.0,60,60,0.0,0.0
388,49.0,60,60,0.0,0.0
389,51.0,60,60,0.0,0.0
390,54.0,60,60,0.0,0.0
391,47.0,60,60,0.0,0.0
392,51.0,60,60,0.0,0.0
393,52.0,0,120,0.0,0.0
394,69.0,60,15,0.0,0.0
395,68.0,60,60,0.0,0.0
396,40.0,0,120,0.0,0.0
397,66.0,60,60,0.0,0.0
398,52.0,60,120,0.0,0.0
399,66.0,0,60,0.0,0.0
400,54.0,0,120,0.0,0.0
401,64.0,60,60,0.0,0.0
402,63.0,60,60,0.0,0.0
403,56.0,0,120,0.0,0.0
404,64.0,60,120,0.0,0.0
405,68.0,60,15,0.0,0.0
406,57.0,0,120,0.0,0.0
407,66.0,60,60,0.0,0.0
408,64.0,120,60,0.0,0.0
409,63.0,120,120,0.0,0.0
410,59.0,60,1740,0.0,0.0
411,66.0,240,120,0.0,0.0
412,68.0,60,300,0.0,0.0
413,75.0,60,120,0.0,0.0
414,68.0,60,60,0.0,0.0
415,66.0,60,60,0.0,0.0
416,64.0,60,60,0.0,0.0
417,66.0,60,300,0.0,0.0
418,76.0,60,15,0.0,0.0
419,75.0,60,60,0.0,0.0
420,73.0,60,60,0.0,0.0
421,75.0,0,120,0.0,0.0
422,66.0,60,60,0.0,0.0
423,71.0,60,60,0.0,0.0
424,69.0,60,60,0.0,0.0
425,68.0,60,60,0.0,0.0
426,66.0,60,60,0.0,0.0
427,64.0,60,60,0.0,0.0
428,63.0,120,60,0.0,0.0
429,75.0,60,60,0.0,0.0
430,73.0,60,60,0.0,0.0
431,71.0,60,60,0.0,0.0
432,73.0,60,780,0.0,0.0
433,59.0,60,60,0.0,0.0
434,58.0,60,60,0.0,0.0
435,56.0,60,60,0.0,0.0
436,58.0,60,60,0.0,0.0
437,61.0,60,60,0.0,0.0
438,54.0,60,60,0.0,0.0
439,58.0,60,60,0.0,0.0
440,59.0,60,540,0.0,0.0
441,64.0,60,15,0.0,0.0
442,63.0,60,60,0.0,0.0
443,61.0,60,60,0.0,0.0
444,63.0,60,480,0.0,0.0
445,73.0,60,60,0.0,0.0
446,71.0,60,60,0.0,0.0
447,70.0,60,60,0.0,0.0
448,71.0,60,300,0.0,0.0
449,61.0,60,60,0.0,0.0
450,59.0,60,60,0.0,0.0
451,57.0,0,60,0.0,0.0
452,56.0,60,720,0.0,0.0
453,69.0,60,60,0.0,0.0
454,68.0,60,60,0.0,0.0
455,57.0,60,120,0.0,0.0
456,66.0,0,60,0.0,0.0
457,59.0,0,120,0.0,0.0
458,65.0,60,60,0.0,0.0
459,68.0,60,60,0.0,0.0
460,71.0,60,60,0.0,0.0
461,62.0,0,60,0.0,0.0
462,65.0,60,60,0.0,0.0
463,66.0,0,120,0.0,0.0
464,74.0,60,15,0.0,0.0
465,73.0,60,60,0.0,0.0
466,65.0,0,240,0.0,0.0
467,71.0,60,120,0.0,0.0
468,54.0,60,780,0.0,0.0
469,69.0,60,60,0.0,0.0
470,68.0,60,60,0.0,0.0
471,65.0,0,120,0.0,0.0
472,71.0,60,60,0.0,0.0
473,66.0,0,120,0.0,0.0
474,69.0,60,60,0.0,0.0
475,73.0,60,60,0.0,0.0
476,78.0,60,60,0.0,0.0
477,64.0,60,120,0.0,0.0
478,81.0,60,120,0.0,0.0
479,63.0,0,120,0.0,0.0
480,78.0,60,60,0.0,0.0
481,80.0,60,60,0.0,0.0
482,61.0,0,120,0.0,0.0
483,81.0,60,60,0.0,0.0
484,63.0,0,120,0.0,0.0
485,72.0,0,120,0.0,0.0
486,52.0,60,60,0.0,0.0
487,73.0,60,120,0.0,0.0
488,51.0,60,60,0.0,0.0
489,64.0,0,120,0.0,0.0
490,49.0,0,60,0.0,0.0
491,48.0,60,60,0.0,0.0
492,75.0,0,480,0.0,0.0
493,66.0,0,120,0.0,0.0
494,51.0,60,60,0.0,0.0
495,54.0,60,60,0.0,0.0
496,69.0,0,60,0.0,0.0
497,72.0,60,60,0.0,0.0
498,57.0,60,120,0.0,0.0
499,73.0,0,120,0.0,0.0
500,57.0,60,60,0.0,0.0
501,72.0,60,120,0.0,0.0
502,56.0,60,60,0.0,0.0
503,54.0,60,120,0.0,0.0
504,73.0,0,240,0.0,0.0
505,52.0,60,60,0.0,0.0
506,51.0,60,60,0.0,0.0
507,68.0,60,120,0.0,0.0
508,54.0,0,60,0.0,0.0
509,73.0,60,120,0.0,0.0
510,52.0,60,60,0.0,0.0
511,56.0,0,60,0.0,0.0
512,76.0,60,120,0.0,0.0
513,61.0,60,60,0.0,0.0
514,64.0,60,120,0.0,0.0
515,70.0,0,120,0.0,0.0
516,67.0,0,240,0.0,0.0
517,61.0,60,60,0.0,0.0
518,63.0,60,60,0.0,0.0
519,71.0,0,60,0.0,0.0
520,73.0,60,120,0.0,0.0
521,64.0,60,60,0.0,0.0
522,58.0,0,120,0.0,0.0
523,66.0,60,120,0.0,0.0
524,65.0,0,60,0.0,0.0
525,61.0,0,120,0.0,0.0
526,66.0,60,60,0.0,0.0
527,68.0,60,60,0.0,0.0
528,70.0,60,60,0.0,0.0
529,66.0,60,120,0.0,0.0
530,71.0,0,60,0.0,0.0
531,61.0,0,120,0.0,0.0
532,73.0,60,60,0.0,0.0
533,75.0,60,60,0.0,0.0
534,76.0,60,60,0.0,0.0
535,58.0,60,120,0.0,0.0
536,75.0,0,60,0.0,0.0
537,54.0,120,120,0.0,0.0
538,76.0,60,60,0.0,0.0
539,73.0,0,60,0.0,0.0
540,75.0,0,960,0.0,0.0
541,58.0,60,60,0.0,0.0
542,59.0,0,15,0.0,0.0
543,61.0,60,60,0.0,0.0
544,63.0,60,60,0.0,0.0
545,64.0,60,60,0.0,0.0
546,66.0,60,60,0.0,0.0
547,68.0,60,60,0.0,0.0
548,69.0,60,60,0.0,0.0
549,68.0,60,60,0.0,0.0
550,69.0,60,60,0.0,0.0
551,66.0,60,60,0.0,0.0
552,68.0,60,60,0.0,0.0
553,66.0,0,60,0.0,0.0
554,51.0,60,60,0.0,0.0
555,52.0,60,60,0.0,0.0
556,68.0,0,60,0.0,0.0
557,70.0,0,60,0.0,0.0
558,54.0,60,60,0.0,0.0
559,74.0,0,120,0.0,0.0
560,56.0,60,60,0.0,0.0
561,58.0,60,60,0.0,0.0
562,59.0,60,60,0.0,0.0
563,68.0,0,120,0.0,0.0
564,71.0,0,15,0.0,0.0
565,61.0,0,60,0.0,0.0
566,68.0,60,120,0.0,0.0
567,62.0,60,60,0.0,0.0
568,65.0,60,240,0.0,0.0
569,61.0,0,60,0.0,0.0
570,62.0,60,60,0.0,0.0
571,59.0,0,60,0.0,0.0
572,61.0,0,360,0.0,0.0
573,71.0,60,15,0.0,0.0
574,70.0,60,60,0.0,0.0
575,68.0,60,60,0.0,0.0
576,70.0,60,60,0.0,0.0
577,71.0,60,60,0.0,0.0
578,59.0,60,120,0.0,0.0
579,73.0,60,60,0.0,0.0
580,70.0,0,60,0.0,0.0
581,66.0,60,120,0.0,0.0
582,58.0,60,240,0.0,0.0
583,64.0,60,15,0.0,0.0
584,63.0,60,60,0.0,0.0
585,78.0,60,180,0.0,0.0
586,61.0,0,60,0.0,0.0
587,59.0,0,120,0.0,0.0
588,63.0,0,120,0.0,0.0
589,76.0,60,60,0.0,0.0
590,54.0,60,120,0.0,0.0
591,58.0,0,120,0.0,0.0
592,80.0,60,60,0.0,0.0
593,78.0,0,60,0.0,0.0
594,76.0,60,60,0.0,0.0
595,59.0,0,360,0.0,0.0
596,56.0,60,120,0.0,0.0
597,75.0,0,60,0.0,0.0
598,73.0,60,60,0.0,0.0
599,52.0,0,120,0.0,0.0
600,71.0,60,60,0.0,0.0
601,75.0,60,60,0.0,0.0
602,54.0,60,240,0.0,0.0
603,66.0,60,60,0.0,0.0
604,73.0,60,60,0.0,0.0
605,58.0,0,120,0.0,0.0
606,64.0,0,60,0.0,0.0
607,63.0,60,60,0.0,0.0
608,59.0,120,240,0.0,0.0
609,66.0,60,60,0.0,0.0
610,71.0,60,60,0.0,0.0
611,47.0,0,120,0.0,0.0
612,70.0,0,60,0.0,0.0
613,71.0,0,240,0.0,0.0
614,47.0,0,120,0.0,0.0
615,66.0,60,60,0.0,0.0
616,64.0,60,60,0.0,0.0
617,66.0,60,120,0.0,0.0
618,59.0,60,15,0.0,0.0
619,68.0,60,240,0.0,0.0
620,64.0,60,60,0.0,0.0
621,47.0,0,120,0.0,0.0
622,63.0,60,60,0.0,0.0
623,64.0,0,300,0.0,0.0
624,59.0,0,120,0.0,0.0
625,66.0,60,60,0.0,0.0
626,68.0,60,60,0.0,0.0
627,69.0,60,60,0.0,0.0
628,68.0,120,60,0.0,0.0
629,47.0,0,15,0.0,0.0
630,69.0,0,240,0.0,0.0
631,64.0,60,60,0.0,0.0
632,63.0,60,60,0.0,0.0
633,59.0,60,120,0.0,0.0
634,64.0,60,120,0.0,0.0
635,66.0,0,240,0.0,0.0
636,59.0,0,120,0.0,0.0
637,63.0,60,60,0.0,0.0
638,61.0,60,60,0.0,0.0
639,47.0,60,120,0.0,0.0
640,63.0,0,300,0.0,0.0
641,59.0,0,120,0.0,0.0
642,64.0,60,60,0.0,0.0
643,66.0,60,60,0.0,0.0
644,47.0,0,120,0.0,0.0
645,67.0,60,60,0.0,0.0
646,66.0,120,60,0.0,0.0
647,67.0,0,240,0.0,0.0
648,47.0,0,120,0.0,0.0
649,63.0,60,60,0.0,0.0
650,59.0,60,120,0.0,0.0
651,61.0,60,60,0.0,0.0
652,63.0,60,120,0.0,0.0
653,59.0,60,120,0.0,0.0
654,64.0,30,360,0.0,0.0
655,61.0,0,60,0.0,0.0
656,47.0,120,120,0.0,0.0
657,59.0,60,60,0.0,0.0
658,61.0,63,300,0.0,0.0
659,59.0,0,120,0.0,0.0
660,73.0,0,120,0.0,0.0
661,59.0,24,30,0.0,0.0
662,58.0,20,30,0.0,0.0
663,59.0,46,30,0.0,0.0
664,58.0,57,120,0.0,0.0
665,73.0,0,120,0.0,0.0
666,54.0,60,60,0.0,0.0
667,64.0,60,120,0.0,0.0
668,56.0,60,60,0.0,0.0
669,61.0,0,120,0.0,0.0
670,58.0,0,60,0.0,0.0
671,63.0,60,120,0.0,0.0
672,59.0,60,60,0.0,0.0
673,56.0,0,60,0.0,0.0
674,54.0,60,60,0.0,0.0
675,78.0,0,120,0.0,0.0
676,52.0,0,60,0.0,0.0
677,51.0,60,60,0.0,0.0
678,78.0,60,120,0.0,0.0
679,49.0,0,60,0.0,0.0
680,63.0,60,120,0.0,0.0
681,51.0,60,60,0.0,0.0
682,71.0,0,120,0.0,0.0
683,52.0,0,60,0.0,0.0
684,54.0,60,60,0.0,0.0
685,61.0,0,240,0.0,0.0
686,70.0,60,120,0.0,0.0
687,51.0,0,60,0.0,0.0
688,49.0,60,60,0.0,0.0
689,47.0,60,60,0.0,0.0
690,76.0,0,15,0.0,0.0
691,46.0,60,60,0.0,0.0
692,44.0,60,60,0.0,0.0
693,46.0,60,60,0.0,0.0
694,66.0,0,120,0.0,0.0
695,61.0,0,120,0.0,0.0
696,64.0,0,120,0.0,0.0
697,47.0,60,60,0.0,0.0
698,58.0,0,240,0.0,0.0
699,64.0,60,300,0.0,0.0
700,49.0,60,60,0.0,0.0
701,66.0,0,360,0.0,0.0
702,46.0,60,60,0.0,0.0
703,44.0,60,60,0.0,0.0
704,42.0,60,60,0.0,0.0
705,47.0,60,120,0.0,0.0
706,59.0,0,240,0.0,0.0
707,63.0,0,180,0.0,0.0
708,68.0,60,60,0.0,0.0
709,44.0,60,120,0.0,0.0
710,40.0,60,120,0.0,0.0
711,61.0,0,120,0.0,0.0
712,71.0,60,15,0.0,0.0
713,42.0,0,120,0.0,0.0
714,54.0,0,240,0.0,0.0
715,64.0,60,180,0.0,0.0
716,70.0,60,60,0.0,0.0
717,71.0,60,120,0.0,0.0
718,47.0,0,720,0.0,0.0
719,63.0,60,120,0.0,0.0
720,64.0,0,120,0.0,0.0
721,55.0,60,120,0.0,0.0
722,61.0,60,120,0.0,0.0
723,54.0,0,120,0.0,0.0
724,63.0,60,120,0.0,0.0
725,59.0,60,120,0.0,0.0
726,61.0,0,120,0.0,0.0
727,52.0,240,120,0.0,0.0
728,58.0,0,60,0.0,0.0
729,54.0,0,240,0.0,0.0
730,63.0,0,240,0.0,0.0
731,59.0,240,15,0.0,0.0
732,78.0,240,120,0.0,0.0
733,75.0,60,120,0.0,0.0
734,80.0,60,15,0.0,0.0
735,78.0,60,60,0.0,0.0
736,76.0,60,60,0.0,0.0
737,76.0,60,60,0.0,0.0
738,75.0,60,60,0.0,0.0
739,73.0,0,60,0.0,0.0
740,75.0,3,240,0.0,0.0
741,61.0,30,30,0.0,0.0
742,60.0,30,30,0.0,0.0
743,78.0,3,15,0.0,0.0
744,61.0,27,30,0.0,0.0
745,60.0,30,30,0.0,0.0
746,80.0,3,60,0.0,0.0
747,61.0,27,30,0.0,0.0
748,60.0,30,30,0.0,0.0
749,61.0,27,30,0.0,0.0
750,81.0,0,60,0.0,0.0
751,60.0,30,30,0.0,0.0
752,80.0,3,60,0.0,0.0
753,61.0,27,30,0.0,0.0
754,60.0,30,30,0.0,0.0
755,78.0,3,60,0.0,0.0
756,61.0,27,30,0.0,0.0
757,60.0,30,30,0.0,0.0
758,61.0,27,30,0.0,0.0
759,76.0,3,60,0.0,0.0
760,60.0,30,30,0.0,0.0
761,61.0,27,30,0.0,0.0
762,75.0,3,60,0.0,0.0
763,60.0,117,30,0.0,0.0
764,61.0,60,300,0.0,0.0
765,76.0,60,360,0.0,0.0
766,75.0,60,60,0.0,0.0
767,73.0,60,60,0.0,0.0
768,72.0,60,60,0.0,0.0
769,73.0,0,240,0.0,0.0
770,59.0,0,60,0.0,0.0
771,57.0,60,60,0.0,0.0
772,76.0,60,120,0.0,0.0
773,56.0,0,60,0.0,0.0
774,66.0,60,300,0.0,0.0
775,75.0,60,120,0.0,0.0
776,57.0,60,60,0.0,0.0
777,61.0,0,60,0.0,0.0
778,54.0,60,60,0.0,0.0
779,73.0,0,120,0.0,0.0
780,57.0,60,60,0.0,0.0
781,56.0,0,120,0.0,0.0
782,72.0,60,480,0.0,0.0
783,66.0,60,60,0.0,0.0
784,68.0,60,60,0.0,0.0
785,44.0,60,120,0.0,0.0
786,69.0,0,60,0.0,0.0
787,68.0,60,60,0.0,0.0
788,56.0,0,120,0.0,0.0
789,66.0,60,60,0.0,0.0
790,57.0,0,120,0.0,0.0
791,64.0,60,60,0.0,0.0
792,63.0,0,60,0.0,0.0
793,61.0,60,60,0.0,0.0
794,56.0,0,120,0.0,0.0
795,60.0,60,60,0.0,0.0
796,54.0,120,120,0.0,0.0
797,61.0,60,60,0.0,0.0
798,63.0,0,60,0.0,0.0
799,52.0,0,120,0.0,0.0
800,56.0,60,120,0.0,0.0
801,73.0,0,60,0.0,0.0
802,61.0,60,120,0.0,0.0
803,68.0,60,60,0.0,0.0
804,67.0,0,60,0.0,0.0
805,61.0,0,120,0.0,0.0
806,68.0,60,60,0.0,0.0
807,72.0,60,60,0.0,0.0
808,73.0,60,60,0.0,0.0
809,75.0,0,60,0.0,0.0
810,76.0,60,60,0.0,0.0
811,56.0,60,15,0.0,0.0
812,49.0,0,240,0.0,0.0
813,75.0,0,60,0.0,0.0
814,56.0,60,15,0.0,0.0
815,76.0,60,60,0.0,0.0
816,73.0,0,60,0.0,0.0
817,48.0,60,120,0.0,0.0
818,56.0,60,15,0.0,0.0
819,75.0,60,60,0.0,0.0
820,72.0,0,60,0.0,0.0
821,68.0,60,60,0.0,0.0
822,63.0,0,120,0.0,0.0
823,67.0,60,60,0.0,0.0
824,63.0,0,120,0.0,0.0
825,68.0,60,60,0.0,0.0
826,72.0,60,60,0.0,0.0
827,75.0,60,60,0.0,0.0
828,56.0,0,120,0.0,0.0
829,76.0,60,60,0.0,0.0
830,56.0,0,120,0.0,0.0
831,78.0,60,60,0.0,0.0
832,44.0,0,240,0.0,0.0
833,76.0,60,60,0.0,0.0
834,78.0,60,60,0.0,0.0
835,75.0,0,60,0.0,0.0
836,76.0,60,420,0.0,0.0
837,56.0,60,15,0.0,0.0
838,49.0,60,120,0.0,0.0
839,73.0,0,60,0.0,0.0
840,68.0,60,60,0.0,0.0
841,52.0,0,120,0.0,0.0
842,71.0,60,60,0.0,0.0
843,54.0,60,120,0.0,0.0
844,69.0,60,60,0.0,0.0
845,73.0,0,60,0.0,0.0
846,66.0,0,120,0.0,0.0
847,57.0,60,120,0.0,0.0
848,75.0,60,120,0.0,0.0
849,55.0,0,120,0.0,0.0
850,64.0,60,120,0.0,0.0
851,73.0,60,120,0.0,0.0
852,63.0,0,120,0.0,0.0
853,56.0,60,120,0.0,0.0
854,72.0,0,60,0.0,0.0
855,73.0,0,240,0.0,0.0
856,49.0,0,120,0.0,0.0
857,64.0,60,60,0.0,0.0
858,69.0,60,60,0.0,0.0
859,52.0,0,120,0.0,0.0
860,68.0,60,60,0.0,0.0
861,66.0,60,60,0.0,0.0
862,56.0,60,120,0.0,0.0
863,64.0,60,60,0.0,0.0
864,63.0,0,60,0.0,0.0
865,61.0,60,120,0.0,0.0
866,64.0,60,60,0.0,0.0
867,66.0,0,60,0.0,0.0
868,68.0,60,60,0.0,0.0
869,59.0,0,120,0.0,0.0
870,69.0,30,60,0.0,0.0
871,71.0,30,30,0.0,0.0
872,57.0,120,120,0.0,0.0
873,69.0,30,30,0.0,0.0
874,68.0,30,30,0.0,0.0
875,69.0,0,30,0.0,0.0
876,71.0,0,120,0.0,0.0
877,56.0,60,120,0.0,0.0
878,76.0,0,60,0.0,0.0
879,59.0,60,120,0.0,0.0
880,75.0,60,60,0.0,0.0
881,73.0,0,60,0.0,0.0
882,64.0,60,120,0.0,0.0
883,71.0,60,60,0.0,0.0
884,70.0,0,60,0.0,0.0
885,71.0,60,60,0.0,0.0
886,68.0,60,120,0.0,0.0
887,73.0,0,60,0.0,0.0
888,66.0,0,120,0.0,0.0
889,75.0,60,60,0.0,0.0
890,76.0,30,60,0.0,0.0
891,64.0,60,120,0.0,0.0
892,78.0,30,30,0.0,0.0
893,76.0,30,30,0.0,0.0
894,75.0,30,30,0.0,0.0
895,76.0,0,30,0.0,0.0
896,78.0,60,60,0.0,0.0
897,63.0,60,120,0.0,0.0
898,80.0,0,60,0.0,0.0
899,78.0,60,60,0.0,0.0
900,71.0,0,120,0.0,0.0
901,68.0,0,120,0.0,0.0
902,76.0,60,60,0.0,0.0
903,69.0,0,120,0.0,0.0
904,66.0,60,120,0.0,0.0
905,75.0,60,60,0.0,0.0
906,73.0,0,60,0.0,0.0
907,64.0,60,120,0.0,0.0
908,68.0,0,120,0.0,0.0
909,75.0,60,60,0.0,0.0
910,76.0,0,60,0.0,0.0
911,63.0,0,120,0.0,0.0
912,78.0,60,60,0.0,0.0
913,66.0,0,120,0.0,0.0
914,80.0,30,60,0.0,0.0
915,81.0,30,30,0.0,0.0
916,61.0,0,120,0.0,0.0
917,64.0,0,120,0.0,0.0
918,80.0,30,30,0.0,0.0
919,78.0,30,30,0.0,0.0
920,80.0,60,30,0.0,0.0
921,59.0,0,120,0.0,0.0
922,63.0,0,120,0.0,0.0
923,81.0,60,60,0.0,0.0
924,73.0,60,60,0.0,0.0
925,71.0,60,60,0.0,0.0
926,61.0,0,120,0.0,0.0
927,64.0,60,120,0.0,0.0
928,70.0,0,60,0.0,0.0
929,71.0,60,60,0.0,0.0
930,59.0,60,120,0.0,0.0
931,63.0,0,120,0.0,0.0
932,81.0,0,60,0.0,0.0
933,80.0,60,60,0.0,0.0
934,57.0,0,120,0.0,0.0
935,61.0,60,120,0.0,0.0
936,78.0,0,60,0.0,0.0
937,56.0,0,120,0.0,0.0
938,83.0,60,60,0.0,0.0
939,59.0,0,300,0.0,0.0
940,76.0,60,60,0.0,0.0
941,75.0,60,60,0.0,0.0
942,54.0,0,120,0.0,0.0
943,81.0,60,60,0.0,0.0
944,52.0,60,120,0.0,0.0
945,80.0,60,60,0.0,0.0
946,66.0,0,60,0.0,0.0
947,54.0,60,120,0.0,0.0
948,64.0,60,60,0.0,0.0
949,63.0,0,60,0.0,0.0
950,64.0,60,60,0.0,0.0
951,56.0,60,120,0.0,0.0
952,74.0,0,60,0.0,0.0
953,73.0,60,60,0.0,0.0
954,52.0,0,120,0.0,0.0
955,71.0,60,60,0.0,0.0
956,49.0,0,120,0.0,0.0
957,76.0,60,60,0.0,0.0
958,69.0,60,60,0.0,0.0
959,52.0,120,120,0.0,0.0
960,68.0,60,60,0.0,0.0
961,74.0,0,60,0.0,0.0
962,45.0,60,120,0.0,0.0
963,73.0,0,480,0.0,0.0
964,80.0,0,60,0.0,0.0
965,78.0,60,60,0.0,0.0
966,57.0,60,180,0.0,0.0
967,76.0,60,60,0.0,0.0
968,78.0,60,120,0.0,0.0
969,56.0,0,60,0.0,0.0
970,81.0,0,240,0.0,0.0
971,54.0,60,60,0.0,0.0
972,52.0,60,60,0.0,0.0
973,71.0,60,720,0.0,0.0
974,51.0,60,60,0.0,0.0
975,49.0,60,60,0.0,0.0
976,47.0,60,60,0.0,0.0
977,75.0,60,180,0.0,0.0
978,45.0,60,60,0.0,0.0
979,44.0,0,120,0.0,0.0
980,78.0,60,60,0.0,0.0
981,56.0,60,180,0.0,0.0
982,76.0,60,60,0.0,0.0
983,75.0,60,60,0.0,0.0
984,76.0,60,120,0.0,0.0
985,54.0,0,60,0.0,0.0
986,80.0,60,240,0.0,0.0
987,52.0,60,60,0.0,0.0
988,51.0,0,60,0.0,0.0
989,69.0,0,840,0.0,0.0
990,49.0,60,60,0.0,0.0
991,47.0,0,60,0.0,0.0
992,45.0,60,60,0.0,0.0
993,73.0,60,180,0.0,0.0
994,44.0,60,60,0.0,0.0
995,42.0,0,120,0.0,0.0
996,76.0,60,60,0.0,0.0
997,54.0,60,180,0.0,0.0
998,75.0,60,60,0.0,0.0
999,73.0,60,60,0.0,0.0
1000,75.0,0,120,0.0,0.0
1001,52.0,60,60,0.0,0.0
1002,51.0,60,60,0.0,0.0
1003,78.0,0,120,0.0,0.0
1004,49.0,60,60,0.0,0.0
1005,47.0,60,60,0.0,0.0
1006,78.0,60,120,0.0,0.0
1007,45.0,0,60,0.0,0.0
1008,69.0,0,240,0.0,0.0
1009,63.0,60,180,0.0,0.0
1010,44.0,60,60,0.0,0.0
1011,42.0,60,60,0.0,0.0
1012,40.0,60,120,0.0,0.0
1013,59.0,0,420,0.0,0.0
1014,68.0,60,60,0.0,0.0
1015,52.0,60,180,0.0,0.0
1016,66.0,60,60,0.0,0.0
1017,64.0,60,480,0.0,0.0
1018,51.0,60,60,0.0,0.0
1019,52.0,60,60,0.0,0.0
1020,54.0,60,60,0.0,0.0
1021,56.0,60,60,0.0,0.0
1022,59.0,60,60,0.0,0.0
1023,52.0,60,60,0.0,0.0
1024,56.0,0,60,0.0,0.0
1025,57.0,0,120,0.0,0.0
1026,61.0,60,240,0.0,0.0
1027,68.0,60,15,0.0,0.0
1028,45.0,0,120,0.0,0.0
1029,66.0,60,60,0.0,0.0
1030,64.0,0,60,0.0,0.0
1031,57.0,60,120,0.0,0.0
1032,63.0,60,60,0.0,0.0
1033,61.0,0,60,0.0,0.0
1034,63.0,60,60,0.0,0.0
1035,59.0,0,120,0.0,0.0
1036,64.0,60,60,0.0,0.0
1037,66.0,60,60,0.0,0.0
1038,57.0,30,120,0.0,0.0
1039,68.0,0,60,0.0,0.0
1040,56.0,0,120,0.0,0.0
1041,69.0,30,30,0.0,0.0
1042,68.0,30,30,0.0,0.0
1043,66.0,30,30,0.0,0.0
1044,68.0,120,30,0.0,0.0
1045,54.0,0,240,0.0,0.0
1046,69.0,120,840,0.0,0.0
1047,64.0,60,60,0.0,0.0
1048,63.0,60,60,0.0,0.0
1049,61.0,60,60,0.0,0.0
1050,59.0,60,60,0.0,0.0
1051,58.0,60,60,0.0,0.0
1052,59.0,60,60,0.0,0.0
1053,56.0,0,120,0.0,0.0
1054,61.0,60,60,0.0,0.0
1055,54.0,30,120,0.0,0.0
1056,63.0,60,60,0.0,0.0
1057,64.0,0,60,0.0,0.0
1058,66.0,30,30,0.0,0.0
1059,52.0,10,120,0.0,0.0
1060,64.0,30,30,0.0,0.0
1061,63.0,20,30,0.0,0.0
1062,64.0,30,30,0.0,0.0
1063,66.0,60,240,0.0,0.0
1064,52.0,90,30,0.0,0.0
1065,51.0,60,270,0.0,0.0
1066,78.0,0,15,0.0,0.0
1067,59.0,0,60,0.0,0.0
1068,69.0,0,120,0.0,0.0
1069,66.0,120,120,0.0,0.0
1070,61.0,60,60,0.0,0.0
1071,63.0,0,60,0.0,0.0
1072,64.0,0,120,0.0,0.0
1073,68.0,60,120,0.0,0.0
1074,61.0,0,60,0.0,0.0
1075,59.0,60,60,0.0,0.0
1076,57.0,60,60,0.0,0.0
1077,56.0,60,60,0.0,0.0
1078,83.0,0,15,0.0,0.0
1079,54.0,0,60,0.0,0.0
1080,56.0,60,60,0.0,0.0
1081,68.0,60,120,0.0,0.0
1082,76.0,0,120,0.0,0.0
1083,57.0,0,60,0.0,0.0
1084,75.0,60,120,0.0,0.0
1085,59.0,60,60,0.0,0.0
1086,66.0,0,240,0.0,0.0
1087,56.0,0,60,0.0,0.0
1088,81.0,0,120,0.0,0.0
1089,54.0,60,60,0.0,0.0
1090,52.0,60,60,0.0,0.0
1091,51.0,60,60,0.0,0.0
1092,81.0,0,120,0.0,0.0
1093,49.0,60,60,0.0,0.0
1094,51.0,60,60,0.0,0.0
1095,66.0,0,120,0.0,0.0
1096,69.0,0,120,0.0,0.0
1097,52.0,0,60,0.0,0.0
1098,54.0,60,60,0.0,0.0
1099,63.0,60,240,0.0,0.0
1100,71.0,60,15,0.0,0.0
1101,69.0,60,300,0.0,0.0
1102,51.0,60,60,0.0,0.0
1103,49.0,60,60,0.0,0.0
1104,47.0,0,60,0.0,0.0
1105,64.0,60,240,0.0,0.0
1106,52.0,0,120,0.0,0.0
1107,68.0,0,180,0.0,0.0
1108,49.0,0,120,0.0,0.0
1109,73.0,60,60,0.0,0.0
1110,66.0,60,120,0.0,0.0
1111,45.0,0,120,0.0,0.0
1112,76.0,60,15,0.0,0.0
1113,47.0,0,120,0.0,0.0
1114,69.0,0,120,0.0,0.0
1115,75.0,120,60,0.0,0.0
1116,68.0,0,240,0.0,0.0
1117,52.0,60,120,0.0,0.0
1118,71.0,0,60,0.0,0.0
1119,76.0,60,60,0.0,0.0
1120,75.0,120,60,0.0,0.0
1121,40.0,0,15,0.0,0.0
1122,76.0,0,240,0.0,0.0
1123,71.0,0,60,0.0,0.0
1124,69.0,60,60,0.0,0.0
1125,71.0,0,60,0.0,0.0
1126,73.0,0,240,0.0,0.0
1127,52.0,120,15,0.0,0.0
1128,69.0,60,60,0.0,0.0
1129,68.0,60,60,0.0,0.0
1130,40.0,60,120,0.0,0.0
1131,71.0,60,60,0.0,0.0
1132,52.0,0,120,0.0,0.0
1133,73.0,60,60,0.0,0.0
1134,74.0,60,60,0.0,0.0
1135,73.0,60,60,0.0,0.0
1136,40.0,0,15,0.0,0.0
1137,74.0,60,240,0.0,0.0
1138,69.0,60,15,0.0,0.0
1139,52.0,0,120,0.0,0.0
1140,68.0,60,60,0.0,0.0
1141,69.0,60,120,0.0,0.0
1142,71.0,60,240,0.0,0.0
1143,52.0,60,120,0.0,0.0
1144,68.0,0,60,0.0,0.0
1145,40.0,0,120,0.0,0.0
1146,66.0,60,60,0.0,0.0
1147,68.0,120,300,0.0,0.0
1148,52.0,0,120,0.0,0.0
1149,69.0,60,60,0.0,0.0
1150,71.0,60,60,0.0,0.0
1151,72.0,60,60,0.0,0.0
1152,71.0,0,60,0.0,0.0
1153,40.0,0,15,0.0,0.0
1154,72.0,0,240,0.0,0.0
1155,68.0,60,60,0.0,0.0
1156,66.0,60,60,0.0,0.0
1157,68.0,120,60,0.0,0.0
1158,52.0,0,15,0.0,0.0
1159,69.0,60,480,0.0,0.0
1160,66.0,60,60,0.0,0.0
1161,64.0,60,60,0.0,0.0
1162,40.0,60,120,0.0,0.0
1163,66.0,0,300,0.0,0.0
1164,39.0,60,60,0.0,0.0
1165,59.0,0,240,0.0,0.0
1166,42.0,60,60,0.0,0.0
1167,47.0,60,60,0.0,0.0
1168,49.0,0,60,0.0,0.0
1169,51.0,60,60,0.0,0.0
1170,52.0,60,60,0.0,0.0
1171,54.0,60,60,0.0,0.0
1172,56.0,60,60,0.0,0.0
1173,57.0,60,60,0.0,0.0
1174,59.0,60,60,0.0,0.0
1175,61.0,60,60,0.0,0.0
1176,63.0,120,60,0.0,0.0
1177,64.0,120,240,0.0,0.0
1178,68.0,0,240,0.0,0.0
1179,61.0,60,60,0.0,0.0
1180,59.0,60,60,0.0,0.0
1181,57.0,0,60,0.0,0.0
1182,59.0,120,240,0.0,0.0
1183,68.0,60,60,0.0,0.0
1184,66.0,60,60,0.0,0.0
1185,64.0,0,60,0.0,0.0
1186,47.0,120,240,0.0,0.0
1187,66.0,0,240,0.0,0.0
1188,61.0,120,60,0.0,0.0
1189,63.0,0,120,0.0,0.0
1190,57.0,0,60,0.0,0.0
1191,56.0,0,120,0.0,0.0
1192,52.0,0,2880,0.0,0.0
1193,59.0,60,60,0.0,0.0
1194,64.0,60,60,0.0,0.0
1195,54.0,60,120,0.0,0.0
1196,63.0,0,60,0.0,0.0
1197,56.0,60,120,0.0,0.0
1198,64.0,60,60,0.0,0.0
1199,59.0,0,60,0.0,0.0
1200,68.0,60,60,0.0,0.0
1201,59.0,0,120,0.0,0.0
1202,64.0,120,60,0.0,0.0
1203,57.0,60,120,0.0,0.0
1204,71.0,60,300,0.0,0.0
1205,66.0,0,60,0.0,0.0
1206,64.0,60,60,0.0,0.0
1207,56.0,0,120,0.0,0.0
1208,62.0,60,60,0.0,0.0
1209,57.0,60,120,0.0,0.0
1210,61.0,0,120,0.0,0.0
1211,64.0,0,60,0.0,0.0
1212,69.0,60,60,0.0,0.0
1213,59.0,0,120,0.0,0.0
1214,68.0,60,60,0.0,0.0
1215,61.0,0,120,0.0,0.0
1216,69.0,60,60,0.0,0.0
1217,73.0,60,60,0.0,0.0
1218,64.0,60,15,0.0,0.0
1219,69.0,120,60,0.0,0.0
1220,76.0,60,300,0.0,0.0
1221,57.0,0,480,0.0,0.0
1222,71.0,60,60,0.0,0.0
1223,69.0,60,60,0.0,0.0
1224,59.0,0,120,0.0,0.0
1225,68.0,60,60,0.0,0.0
1226,66.0,0,120,0.0,0.0
1227,60.0,60,240,0.0,0.0
1228,69.0,60,60,0.0,0.0
1229,75.0,60,60,0.0,0.0
1230,73.0,0,60,0.0,0.0
1231,75.0,60,60,0.0,0.0
1232,69.0,60,60,0.0,0.0
1233,78.0,60,60,0.0,0.0
1234,75.0,60,60,0.0,0.0
1235,60.0,0,15,0.0,0.0
1236,57.0,0,15,0.0,0.0
1237,81.0,60,60,0.0,0.0
1238,78.0,0,60,0.0,0.0
1239,76.0,60,60,0.0,0.0
1240,57.0,0,15,0.0,0.0
1241,60.0,60,15,0.0,0.0
1242,75.0,0,60,0.0,0.0
1243,56.0,0,720,0.0,0.0
1244,59.0,0,720,0.0,0.0
1245,71.0,0,720,0.0,0.0
1246,68.0,0,720,0.0,0.0
1247,76.0,240,720,0.0,0.0
1248,59.0,30,960,0.0,0.0
1249,78.0,240,120,0.0,0.0
1250,80.0,60,300,0.0,0.0
1251,75.0,60,120,0.0,0.0
1252,80.0,60,60,0.0,0.0
1253,78.0,60,60,0.0,0.0
1254,76.0,60,60,0.0,0.0
1255,76.0,60,15,0.0,0.0
1256,75.0,60,60,0.0,0.0
1257,73.0,0,60,0.0,0.0
1258,75.0,0,240,0.0,0.0
1259,61.0,30,30,0.0,0.0
1260,60.0,30,30,0.0,0.0
1261,78.0,3,15,0.0,0.0
1262,61.0,27,30,0.0,0.0
1263,60.0,30,30,0.0,0.0
1264,61.0,27,30,0.0,0.0
1265,80.0,3,60,0.0,0.0
1266,60.0,30,30,0.0,0.0
1267,61.0,27,30,0.0,0.0
1268,81.0,3,60,0.0,0.0
1269,60.0,30,30,0.0,0.0
1270,80.0,3,60,0.0,0.0
1271,61.0,27,30,0.0,0.0
1272,60.0,30,30,0.0,0.0
1273,61.0,27,30,0.0,0.0
1274,78.0,3,60,0.0,0.0
1275,60.0,30,30,0.0,0.0
1276,76.0,3,60,0.0,0.0
1277,61.0,27,30,0.0,0.0
1278,60.0,30,30,0.0,0.0
1279,75.0,3,60,0.0,0.0
1280,61.0,27,30,0.0,0.0
1281,60.0,117,30,0.0,0.0
1282,61.0,60,300,0.0,0.0
1283,75.0,60,60,0.0,0.0
1284,73.0,60,60,0.0,0.0
1285,72.0,60,60,0.0,0.0
1286,73.0,0,240,0.0,0.0
1287,59.0,60,60,0.0,0.0
1288,57.0,60,60,0.0,0.0
1289,76.0,0,15,0.0,0.0
1290,56.0,60,60,0.0,0.0
1291,57.0,60,60,0.0,0.0
1292,75.0,0,120,0.0,0.0
1293,66.0,60,300,0.0,0.0
1294,61.0,60,60,0.0,0.0
1295,54.0,60,60,0.0,0.0
1296,73.0,0,120,0.0,0.0
1297,57.0,60,60,0.0,0.0
1298,56.0,0,120,0.0,0.0
1299,72.0,60,480,0.0,0.0
1300,66.0,60,60,0.0,0.0
1301,44.0,60,120,0.0,0.0
1302,68.0,60,60,0.0,0.0
1303,69.0,0,60,0.0,0.0
1304,56.0,0,120,0.0,0.0
1305,68.0,60,60,0.0,0.0
1306,66.0,60,60,0.0,0.0
1307,64.0,60,60,0.0,0.0
1308,57.0,0,120,0.0,0.0
1309,63.0,0,60,0.0,0.0
1310,56.0,0,120,0.0,0.0
1311,61.0,60,60,0.0,0.0
1312,60.0,60,60,0.0,0.0
1313,54.0,120,120,0.0,0.0
1314,61.0,60,60,0.0,0.0
1315,63.0,0,60,0.0,0.0
1316,52.0,0,120,0.0,0.0
1317,56.0,0,120,0.0,0.0
1318,73.0,60,60,0.0,0.0
1319,61.0,60,120,0.0,0.0
1320,68.0,60,60,0.0,0.0
1321,67.0,0,60,0.0,0.0
1322,68.0,60,60,0.0,0.0
1323,61.0,0,120,0.0,0.0
1324,72.0,60,60,0.0,0.0
1325,56.0,60,120,0.0,0.0
1326,73.0,60,60,0.0,0.0
1327,75.0,0,60,0.0,0.0
1328,49.0,0,240,0.0,0.0
1329,76.0,60,60,0.0,0.0
1330,75.0,60,60,0.0,0.0
1331,56.0,0,15,0.0,0.0
1332,76.0,60,60,0.0,0.0
1333,73.0,60,60,0.0,0.0
1334,48.0,60,120,0.0,0.0
1335,56.0,0,15,0.0,0.0
1336,75.0,60,60,0.0,0.0
1337,72.0,0,60,0.0,0.0
1338,68.0,60,60,0.0,0.0
1339,63.0,60,120,0.0,0.0
1340,67.0,0,60,0.0,0.0
1341,68.0,60,60,0.0,0.0
1342,63.0,60,120,0.0,0.0
1343,72.0,0,60,0.0,0.0
1344,75.0,60,60,0.0,0.0
1345,76.0,60,60,0.0,0.0
1346,56.0,0,15,0.0,0.0
1347,44.0,0,240,0.0,0.0
1348,78.0,60,60,0.0,0.0
1349,76.0,0,60,0.0,0.0
1350,78.0,60,60,0.0,0.0
1351,56.0,60,15,0.0,0.0
1352,75.0,60,60,0.0,0.0
1353,56.0,60,60,0.0,0.0
1354,49.0,0,120,0.0,0.0
1355,76.0,60,420,0.0,0.0
1356,73.0,60,60,0.0,0.0
1357,52.0,60,120,0.0,0.0
1358,68.0,60,60,0.0,0.0
1359,71.0,0,60,0.0,0.0
1360,54.0,0,120,0.0,0.0
1361,69.0,60,60,0.0,0.0
1362,73.0,60,60,0.0,0.0
1363,66.0,60,120,0.0,0.0
1364,57.0,0,120,0.0,0.0
1365,75.0,60,120,0.0,0.0
1366,55.0,0,120,0.0,0.0
1367,64.0,60,120,0.0,0.0
1368,73.0,60,120,0.0,0.0
1369,56.0,0,120,0.0,0.0
1370,63.0,0,120,0.0,0.0
1371,72.0,60,60,0.0,0.0
1372,49.0,60,120,0.0,0.0
1373,64.0,60,60,0.0,0.0
1374,73.0,0,240,0.0,0.0
1375,69.0,0,60,0.0,0.0
1376,68.0,60,60,0.0,0.0
1377,52.0,0,120,0.0,0.0
1378,66.0,60,60,0.0,0.0
1379,56.0,60,120,0.0,0.0
1380,64.0,60,60,0.0,0.0
1381,63.0,0,60,0.0,0.0
1382,61.0,60,120,0.0,0.0
1383,64.0,60,60,0.0,0.0
1384,66.0,0,60,0.0,0.0
1385,59.0,30,120,0.0,0.0
1386,68.0,60,60,0.0,0.0
1387,69.0,0,60,0.0,0.0
1388,57.0,120,120,0.0,0.0
1389,71.0,30,30,0.0,0.0
1390,69.0,30,30,0.0,0.0
1391,68.0,30,30,0.0,0.0
1392,69.0,0,30,0.0,0.0
1393,56.0,0,120,0.0,0.0
1394,71.0,0,120,0.0,0.0
1395,76.0,60,60,0.0,0.0
1396,59.0,0,120,0.0,0.0
1397,75.0,60,60,0.0,0.0
1398,73.0,60,60,0.0,0.0
1399,64.0,0,120,0.0,0.0
1400,71.0,60,60,0.0,0.0
1401,70.0,60,60,0.0,0.0
1402,68.0,60,120,0.0,0.0
1403,71.0,60,60,0.0,0.0
1404,73.0,0,60,0.0,0.0
1405,66.0,30,120,0.0,0.0
1406,75.0,60,60,0.0,0.0
1407,76.0,0,60,0.0,0.0
1408,78.0,30,30,0.0,0.0
1409,64.0,0,120,0.0,0.0
1410,76.0,30,30,0.0,0.0
1411,75.0,30,30,0.0,0.0
1412,76.0,60,30,0.0,0.0
1413,78.0,60,60,0.0,0.0
1414,63.0,0,120,0.0,0.0
1415,80.0,60,60,0.0,0.0
1416,78.0,60,60,0.0,0.0
1417,71.0,0,120,0.0,0.0
1418,68.0,0,120,0.0,0.0
1419,76.0,60,60,0.0,0.0
1420,75.0,60,60,0.0,0.0
1421,69.0,0,120,0.0,0.0
1422,66.0,60,120,0.0,0.0
1423,73.0,0,60,0.0,0.0
1424,75.0,60,60,0.0,0.0
1425,64.0,0,120,0.0,0.0
1426,68.0,0,120,0.0,0.0
1427,76.0,60,60,0.0,0.0
1428,66.0,0,120,0.0,0.0
1429,78.0,60,60,0.0,0.0
1430,63.0,0,120,0.0,0.0
1431,80.0,30,60,0.0,0.0
1432,81.0,30,30,0.0,0.0
1433,61.0,0,120,0.0,0.0
1434,64.0,0,120,0.0,0.0
1435,80.0,30,30,0.0,0.0
1436,78.0,30,30,0.0,0.0
1437,80.0,60,30,0.0,0.0
1438,81.0,60,60,0.0,0.0
1439,63.0,0,120,0.0,0.0
1440,59.0,60,120,0.0,0.0
1441,73.0,0,60,0.0,0.0
1442,61.0,60,120,0.0,0.0
1443,64.0,0,120,0.0,0.0
1444,71.0,60,60,0.0,0.0
1445,70.0,0,60,0.0,0.0
1446,71.0,60,60,0.0,0.0
1447,59.0,0,120,0.0,0.0
1448,63.0,0,120,0.0,0.0
1449,81.0,60,60,0.0,0.0
1450,61.0,60,120,0.0,0.0
1451,57.0,0,120,0.0,0.0
1452,80.0,60,60,0.0,0.0
1453,78.0,0,60,0.0,0.0
1454,56.0,60,120,0.0,0.0
1455,83.0,60,60,0.0,0.0
1456,59.0,60,300,0.0,0.0
1457,76.0,0,60,0.0,0.0
1458,54.0,0,120,0.0,0.0
1459,75.0,60,60,0.0,0.0
1460,81.0,60,60,0.0,0.0
1461,52.0,0,120,0.0,0.0
1462,80.0,0,60,0.0,0.0
1463,66.0,60,60,0.0,0.0
1464,54.0,0,120,0.0,0.0
1465,64.0,60,60,0.0,0.0
1466,63.0,60,60,0.0,0.0
1467,64.0,60,60,0.0,0.0
1468,56.0,60,120,0.0,0.0
1469,74.0,0,60,0.0,0.0
1470,52.0,0,120,0.0,0.0
1471,73.0,60,60,0.0,0.0
1472,71.0,60,60,0.0,0.0
1473,49.0,60,120,0.0,0.0
1474,76.0,60,60,0.0,0.0
1475,69.0,0,60,0.0,0.0
1476,52.0,0,120,0.0,0.0
1477,68.0,60,60,0.0,0.0
1478,74.0,120,60,0.0,0.0
1479,73.0,0,480,0.0,0.0
1480,45.0,60,120,0.0,0.0
1481,80.0,0,60,0.0,0.0
1482,57.0,60,180,0.0,0.0
1483,78.0,60,60,0.0,0.0
1484,76.0,60,60,0.0,0.0
1485,78.0,0,120,0.0,0.0
1486,56.0,60,60,0.0,0.0
1487,54.0,60,60,0.0,0.0
1488,81.0,60,240,0.0,0.0
1489,52.0,60,60,0.0,0.0
1490,71.0,60,720,0.0,0.0
1491,51.0,60,60,0.0,0.0
1492,49.0,0,60,0.0,0.0
1493,75.0,60,180,0.0,0.0
1494,47.0,60,60,0.0,0.0
1495,45.0,60,60,0.0,0.0
1496,44.0,0,120,0.0,0.0
1497,78.0,60,60,0.0,0.0
1498,56.0,60,180,0.0,0.0
1499,76.0,60,60,0.0,0.0
1500,75.0,60,60,0.0,0.0
1501,76.0,60,120,0.0,0.0
1502,54.0,0,60,0.0,0.0
1503,80.0,0,240,0.0,0.0
1504,52.0,60,60,0.0,0.0
1505,51.0,0,60,0.0,0.0
1506,49.0,60,60,0.0,0.0
1507,47.0,60,60,0.0,0.0
1508,73.0,60,180,0.0,0.0
1509,45.0,60,60,0.0,0.0
1510,44.0,60,60,0.0,0.0
1511,42.0,60,120,0.0,0.0
1512,76.0,0,60,0.0,0.0
1513,54.0,60,180,0.0,0.0
1514,75.0,60,60,0.0,0.0
1515,73.0,60,60,0.0,0.0
1516,75.0,60,120,0.0,0.0
1517,52.0,0,60,0.0,0.0
1518,51.0,60,60,0.0,0.0
1519,49.0,60,60,0.0,0.0
1520,47.0,60,60,0.0,0.0
1521,78.0,0,15,0.0,0.0
1522,45.0,0,60,0.0,0.0
1523,44.0,60,60,0.0,0.0
1524,69.0,0,15,0.0,0.0
1525,63.0,60,180,0.0,0.0
1526,42.0,60,60,0.0,0.0
1527,40.0,0,120,0.0,0.0
1528,59.0,0,420,0.0,0.0
1529,68.0,60,60,0.0,0.0
1530,52.0,60,180,0.0,0.0
1531,66.0,60,60,0.0,0.0
1532,64.0,0,480,0.0,0.0
1533,51.0,60,60,0.0,0.0
1534,52.0,60,60,0.0,0.0
1535,54.0,60,60,0.0,0.0
1536,56.0,60,60,0.0,0.0
1537,59.0,60,60,0.0,0.0
1538,52.0,60,60,0.0,0.0
1539,56.0,60,60,0.0,0.0
1540,57.0,60,120,0.0,0.0
1541,61.0,60,240,0.0,0.0
1542,68.0,60,15,0.0,0.0
1543,45.0,0,120,0.0,0.0
1544,66.0,60,60,0.0,0.0
1545,64.0,0,60,0.0,0.0
1546,57.0,60,120,0.0,0.0
1547,63.0,60,60,0.0,0.0
1548,61.0,0,60,0.0,0.0
1549,63.0,60,60,0.0,0.0
1550,59.0,60,120,0.0,0.0
1551,64.0,0,60,0.0,0.0
1552,66.0,60,60,0.0,0.0
1553,57.0,0,120,0.0,0.0
1554,68.0,30,60,0.0,0.0
1555,56.0,120,120,0.0,0.0
1556,69.0,30,30,0.0,0.0
1557,68.0,30,30,0.0,0.0
1558,66.0,30,30,0.0,0.0
1559,68.0,0,30,0.0,0.0
1560,54.0,60,240,0.0,0.0
1561,69.0,120,840,0.0,0.0
1562,64.0,60,60,0.0,0.0
1563,63.0,60,60,0.0,0.0
1564,61.0,0,60,0.0,0.0
1565,59.0,60,60,0.0,0.0
1566,58.0,60,60,0.0,0.0
1567,56.0,60,120,0.0,0.0
1568,59.0,60,60,0.0,0.0
1569,61.0,0,60,0.0,0.0
1570,54.0,30,120,0.0,0.0
1571,63.0,60,60,0.0,0.0
1572,64.0,0,60,0.0,0.0
1573,52.0,10,120,0.0,0.0
1574,66.0,30,30,0.0,0.0
1575,64.0,30,30,0.0,0.0
1576,63.0,20,30,0.0,0.0
1577,64.0,30,30,0.0,0.0
1578,52.0,90,30,0.0,0.0
1579,66.0,60,240,0.0,0.0
1580,51.0,60,270,0.0,0.0
1581,78.0,0,15,0.0,0.0
1582,59.0,60,60,0.0,0.0
1583,61.0,60,60,0.0,0.0
1584,66.0,120,120,0.0,0.0
1585,69.0,0,120,0.0,0.0
1586,63.0,0,60,0.0,0.0
1587,64.0,0,120,0.0,0.0
1588,68.0,60,120,0.0,0.0
1589,61.0,0,60,0.0,0.0
1590,59.0,60,60,0.0,0.0
1591,57.0,60,60,0.0,0.0
1592,83.0,0,15,0.0,0.0
1593,56.0,60,60,0.0,0.0
1594,54.0,60,60,0.0,0.0
1595,76.0,60,120,0.0,0.0
1596,68.0,0,120,0.0,0.0
1597,56.0,60,60,0.0,0.0
1598,57.0,0,60,0.0,0.0
1599,59.0,60,60,0.0,0.0
1600,66.0,60,240,0.0,0.0
1601,75.0,60,120,0.0,0.0
1602,56.0,0,60,0.0,0.0
1603,54.0,60,60,0.0,0.0
1604,81.0,0,120,0.0,0.0
1605,52.0,0,60,0.0,0.0
1606,81.0,60,120,0.0,0.0
1607,51.0,60,60,0.0,0.0
1608,49.0,0,60,0.0,0.0
1609,51.0,60,60,0.0,0.0
1610,66.0,0,120,0.0,0.0
1611,69.0,0,120,0.0,0.0
1612,52.0,0,60,0.0,0.0
1613,54.0,60,60,0.0,0.0
1614,69.0,60,300,0.0,0.0
1615,63.0,0,240,0.0,0.0
1616,71.0,60,15,0.0,0.0
1617,51.0,60,60,0.0,0.0
1618,49.0,60,60,0.0,0.0
1619,47.0,60,60,0.0,0.0
1620,52.0,60,120,0.0,0.0
1621,64.0,0,240,0.0,0.0
1622,68.0,0,180,0.0,0.0
1623,49.0,60,120,0.0,0.0
1624,73.0,60,60,0.0,0.0
1625,66.0,60,120,0.0,0.0
1626,45.0,0,120,0.0,0.0
1627,76.0,60,15,0.0,0.0
1628,69.0,0,120,0.0,0.0
1629,47.0,0,120,0.0,0.0
1630,75.0,120,60,0.0,0.0
1631,52.0,60,120,0.0,0.0
1632,68.0,0,240,0.0,0.0
1633,71.0,0,60,0.0,0.0
1634,40.0,0,120,0.0,0.0
1635,76.0,60,60,0.0,0.0
1636,75.0,120,60,0.0,0.0
1637,76.0,0,240,0.0,0.0
1638,40.0,60,120,0.0,0.0
1639,71.0,0,60,0.0,0.0
1640,69.0,60,60,0.0,0.0
1641,52.0,0,120,0.0,0.0
1642,71.0,120,60,0.0,0.0
1643,73.0,60,240,0.0,0.0
1644,52.0,60,120,0.0,0.0
1645,69.0,0,60,0.0,0.0
1646,68.0,60,60,0.0,0.0
1647,40.0,0,120,0.0,0.0
1648,69.0,60,360,0.0,0.0
1649,71.0,60,60,0.0,0.0
1650,52.0,0,120,0.0,0.0
1651,73.0,60,60,0.0,0.0
1652,40.0,0,120,0.0,0.0
1653,74.0,60,60,0.0,0.0
1654,73.0,60,60,0.0,0.0
1655,40.0,0,120,0.0,0.0
1656,74.0,60,240,0.0,0.0
1657,69.0,60,60,0.0,0.0
1658,68.0,60,60,0.0,0.0
1659,69.0,60,120,0.0,0.0
1660,52.0,0,15,0.0,0.0
1661,71.0,60,240,0.0,0.0
1662,68.0,60,60,0.0,0.0
1663,66.0,60,60,0.0,0.0
1664,40.0,0,120,0.0,0.0
1665,68.0,120,300,0.0,0.0
1666,69.0,60,60,0.0,0.0
1667,52.0,0,120,0.0,0.0
1668,71.0,60,60,0.0,0.0
1669,72.0,60,60,0.0,0.0
1670,71.0,0,60,0.0,0.0
1671,40.0,0,15,0.0,0.0
1672,72.0,0,240,0.0,0.0
1673,68.0,0,60,0.0,0.0
1674,66.0,60,60,0.0,0.0
1675,52.0,0,120,0.0,0.0
1676,68.0,120,60,0.0,0.0
1677,69.0,0,480,0.0,0.0
1678,52.0,60,120,0.0,0.0
1679,66.0,0,60,0.0,0.0
1680,40.0,60,120,0.0,0.0
1681,64.0,60,60,0.0,0.0
1682,66.0,0,300,0.0,0.0
1683,39.0,60,60,0.0,0.0
1684,59.0,60,240,0.0,0.0
1685,42.0,60,60,0.0,0.0
1686,47.0,60,60,0.0,0.0
1687,49.0,0,60,0.0,0.0
1688,51.0,60,60,0.0,0.0
1689,52.0,60,60,0.0,0.0
1690,54.0,60,60,0.0,0.0
1691,56.0,60,60,0.0,0.0
1692,57.0,60,60,0.0,0.0
1693,59.0,60,60,0.0,0.0
1694,61.0,60,60,0.0,0.0
1695,63.0,120,60,0.0,0.0
1696,68.0,120,240,0.0,0.0
1697,64.0,0,240,0.0,0.0
1698,61.0,60,60,0.0,0.0
1699,59.0,60,60,0.0,0.0
1700,57.0,0,60,0.0,0.0
1701,59.0,0,240,0.0,0.0
1702,68.0,60,60,0.0,0.0
1703,66.0,60,60,0.0,0.0
1704,64.0,120,60,0.0,0.0
1705,47.0,0,240,0.0,0.0
1706,66.0,0,240,0.0,0.0
1707,61.0,120,60,0.0,0.0
1708,63.0,120,120,0.0,0.0
1709,57.0,0,60,0.0,0.0
1710,52.0,0,2880,0.0,0.0
1711,56.0,0,120,0.0,0.0
1712,59.0,60,60,0.0,0.0
1713,54.0,60,120,0.0,0.0
1714,64.0,60,60,0.0,0.0
1715,63.0,0,60,0.0,0.0
1716,64.0,60,60,0.0,0.0
1717,56.0,0,120,0.0,0.0
1718,68.0,60,60,0.0,0.0
1719,59.0,60,15,0.0,0.0
1720,64.0,0,60,0.0,0.0
1721,57.0,60,120,0.0,0.0
1722,71.0,60,300,0.0,0.0
1723,66.0,0,60,0.0,0.0
1724,56.0,0,120,0.0,0.0
1725,64.0,60,60,0.0,0.0
1726,62.0,60,60,0.0,0.0
1727,57.0,60,120,0.0,0.0
1728,61.0,0,120,0.0,0.0
1729,64.0,0,60,0.0,0.0
1730,59.0,0,120,0.0,0.0
1731,69.0,60,60,0.0,0.0
1732,68.0,60,60,0.0,0.0
1733,61.0,0,120,0.0,0.0
1734,69.0,60,60,0.0,0.0
1735,64.0,60,60,0.0,0.0
1736,64.0,0,120,0.0,0.0
1737,73.0,60,60,0.0,0.0
1738,69.0,120,60,0.0,0.0
1739,76.0,60,300,0.0,0.0
1740,57.0,60,480,0.0,0.0
1741,71.0,60,60,0.0,0.0
1742,59.0,0,120,0.0,0.0
1743,69.0,60,60,0.0,0.0
1744,68.0,60,60,0.0,0.0
1745,66.0,60,120,0.0,0.0
1746,60.0,0,240,0.0,0.0
1747,69.0,0,60,0.0,0.0
1748,75.0,60,60,0.0,0.0
1749,73.0,0,60,0.0,0.0
1750,75.0,60,60,0.0,0.0
1751,69.0,60,60,0.0,0.0
1752,57.0,60,120,0.0,0.0
1753,78.0,60,60,0.0,0.0
1754,75.0,0,60,0.0,0.0
1755,60.0,0,15,0.0,0.0
1756,81.0,60,60,0.0,0.0
1757,57.0,60,120,0.0,0.0
1758,78.0,0,60,0.0,0.0
1759,60.0,0,120,0.0,0.0
1760,57.0,0,120,0.0,0.0
1761,76.0,60,60,0.0,0.0
1762,75.0,720,60,0.0,0.0
1763,68.0,0,720,0.0,0.0
1764,71.0,0,720,0.0,0.0
1765,76.0,0,720,0.0,0.0
1766,59.0,0,720,0.0,0.0
1767,56.0,0,720,0.0,0.0
