,note,step,duration,channel,velocity
0,47.0,0,225,3.0,64.0
1,51.0,240,225,3.0,64.0
2,56.0,240,225,3.0,64.0
3,52.0,240,225,3.0,64.0
4,49.0,240,225,3.0,64.0
5,58.0,240,225,3.0,64.0
6,59.0,240,105,3.0,64.0
7,58.0,120,52,3.0,64.0
8,56.0,60,52,3.0,64.0
9,54.0,60,105,3.0,64.0
10,52.0,120,105,3.0,64.0
11,51.0,120,52,3.0,64.0
12,49.0,60,52,3.0,64.0
13,54.0,0,225,2.0,64.0
14,52.0,60,225,3.0,64.0
15,51.0,120,52,3.0,64.0
16,58.0,120,225,2.0,64.0
17,49.0,60,52,3.0,64.0
18,47.0,0,52,3.0,64.0
19,54.0,60,52,3.0,64.0
20,63.0,60,225,2.0,64.0
21,58.0,60,225,3.0,64.0
22,56.0,120,52,3.0,64.0
23,59.0,120,225,2.0,64.0
24,54.0,60,52,3.0,64.0
25,53.0,60,52,3.0,64.0
26,59.0,60,52,3.0,64.0
27,56.0,0,225,2.0,64.0
28,63.0,60,225,3.0,64.0
29,61.0,120,52,3.0,64.0
30,65.0,120,225,2.0,64.0
31,59.0,60,52,3.0,64.0
32,66.0,0,105,2.0,64.0
33,58.0,60,105,3.0,64.0
34,65.0,0,52,2.0,64.0
35,59.0,120,105,3.0,64.0
36,63.0,60,52,2.0,64.0
37,61.0,0,105,2.0,64.0
38,58.0,60,105,3.0,64.0
39,59.0,120,105,2.0,64.0
40,56.0,0,105,3.0,64.0
41,58.0,120,52,2.0,64.0
42,54.0,0,105,3.0,64.0
43,56.0,60,52,2.0,64.0
44,53.0,0,52,3.0,64.0
45,51.0,60,52,3.0,64.0
46,49.0,60,52,3.0,64.0
47,59.0,60,225,2.0,64.0
48,51.0,60,52,3.0,64.0
49,58.0,60,52,2.0,64.0
50,56.0,60,52,2.0,64.0
51,54.0,0,52,2.0,64.0
52,52.0,0,225,3.0,64.0
53,56.0,60,52,2.0,64.0
54,51.0,60,52,3.0,64.0
55,59.0,60,225,1.0,64.0
56,49.0,60,52,3.0,64.0
57,57.0,0,225,2.0,64.0
58,56.0,120,52,2.0,64.0
59,63.0,0,225,1.0,64.0
60,54.0,60,52,2.0,64.0
61,52.0,60,52,2.0,64.0
62,59.0,60,52,2.0,64.0
63,47.0,60,405,3.0,64.0
64,68.0,0,225,1.0,64.0
65,48.0,60,52,3.0,64.0
66,49.0,0,52,3.0,64.0
67,63.0,60,225,2.0,64.0
68,51.0,60,52,3.0,64.0
69,52.0,60,52,3.0,64.0
70,61.0,0,52,2.0,64.0
71,64.0,60,225,1.0,64.0
72,49.0,0,52,3.0,64.0
73,59.0,60,52,2.0,64.0
74,58.0,0,52,2.0,64.0
75,64.0,60,52,2.0,64.0
76,54.0,60,165,3.0,64.0
77,61.0,0,225,1.0,64.0
78,52.0,60,52,3.0,64.0
79,51.0,0,52,3.0,64.0
80,68.0,60,225,2.0,64.0
81,49.0,60,52,3.0,64.0
82,66.0,0,52,2.0,64.0
83,70.0,60,225,1.0,64.0
84,51.0,60,105,3.0,64.0
85,64.0,60,52,2.0,64.0
86,63.0,0,105,2.0,64.0
87,71.0,60,105,1.0,64.0
88,56.0,0,105,3.0,64.0
89,70.0,0,52,1.0,64.0
90,64.0,120,105,2.0,64.0
91,68.0,60,52,1.0,64.0
92,44.0,0,225,3.0,64.0
93,66.0,0,105,1.0,64.0
94,63.0,60,105,2.0,64.0
95,61.0,0,105,2.0,64.0
96,46.0,120,105,3.0,64.0
97,64.0,0,105,1.0,64.0
98,63.0,0,52,1.0,64.0
99,59.0,0,105,2.0,64.0
100,47.0,120,105,3.0,64.0
101,61.0,60,52,1.0,64.0
102,58.0,0,52,2.0,64.0
103,66.0,0,225,0.0,64.0
104,56.0,60,52,2.0,64.0
105,64.0,60,225,1.0,64.0
106,63.0,120,52,1.0,64.0
107,70.0,60,225,0.0,64.0
108,61.0,60,52,1.0,64.0
109,59.0,60,52,1.0,64.0
110,66.0,60,52,1.0,64.0
111,54.0,0,405,2.0,64.0
112,75.0,0,225,0.0,64.0
113,55.0,60,52,2.0,64.0
114,56.0,0,52,2.0,64.0
115,70.0,60,225,1.0,64.0
116,58.0,60,52,2.0,64.0
117,59.0,60,52,2.0,64.0
118,68.0,0,52,1.0,64.0
119,71.0,60,225,0.0,64.0
120,56.0,60,52,2.0,64.0
121,66.0,0,52,1.0,64.0
122,65.0,60,52,1.0,64.0
123,71.0,60,52,1.0,64.0
124,61.0,0,165,2.0,64.0
125,68.0,0,225,0.0,64.0
126,59.0,60,52,2.0,64.0
127,58.0,60,52,2.0,64.0
128,75.0,60,225,1.0,64.0
129,56.0,60,52,2.0,64.0
130,73.0,60,52,1.0,64.0
131,77.0,0,225,0.0,64.0
132,58.0,0,105,2.0,64.0
133,71.0,60,52,1.0,64.0
134,78.0,0,105,0.0,64.0
135,63.0,0,105,2.0,64.0
136,70.0,60,105,1.0,64.0
137,77.0,120,52,0.0,64.0
138,71.0,0,105,1.0,64.0
139,75.0,60,52,0.0,64.0
140,73.0,60,105,0.0,64.0
141,51.0,0,225,2.0,64.0
142,70.0,0,105,1.0,64.0
143,53.0,0,105,2.0,64.0
144,71.0,120,105,0.0,64.0
145,68.0,0,105,1.0,64.0
146,70.0,120,52,0.0,64.0
147,66.0,0,105,1.0,64.0
148,54.0,0,105,2.0,64.0
149,68.0,60,52,0.0,64.0
150,65.0,0,52,1.0,64.0
151,56.0,0,105,2.0,64.0
152,63.0,60,52,1.0,64.0
153,61.0,60,52,1.0,64.0
154,58.0,0,105,2.0,64.0
155,71.0,60,225,0.0,64.0
156,63.0,60,52,1.0,64.0
157,70.0,60,52,0.0,64.0
158,54.0,0,105,2.0,64.0
159,68.0,60,52,0.0,64.0
160,66.0,60,52,0.0,64.0
161,59.0,0,105,2.0,64.0
162,64.0,0,225,1.0,64.0
163,68.0,60,52,0.0,64.0
164,54.0,0,52,2.0,64.0
165,63.0,0,52,1.0,64.0
166,47.0,0,225,3.0,64.0
167,52.0,60,52,2.0,64.0
168,61.0,0,52,1.0,64.0
169,59.0,0,52,1.0,64.0
170,69.0,60,225,0.0,64.0
171,54.0,60,105,2.0,64.0
172,61.0,60,52,1.0,64.0
173,68.0,0,52,0.0,64.0
174,63.0,0,105,1.0,64.0
175,51.0,0,225,3.0,64.0
176,66.0,60,52,0.0,64.0
177,64.0,0,52,0.0,64.0
178,71.0,60,52,0.0,64.0
179,64.0,60,165,1.0,64.0
180,59.0,60,285,2.0,64.0
181,56.0,0,225,3.0,64.0
182,66.0,60,52,1.0,64.0
183,58.0,0,52,2.0,64.0
184,59.0,0,52,2.0,64.0
185,75.0,60,225,0.0,64.0
186,56.0,60,52,2.0,64.0
187,73.0,60,52,0.0,64.0
188,58.0,0,52,2.0,64.0
189,68.0,60,225,1.0,64.0
190,52.0,0,225,3.0,64.0
191,71.0,0,52,0.0,64.0
192,59.0,60,52,2.0,64.0
193,70.0,0,52,0.0,64.0
194,76.0,60,52,0.0,64.0
195,70.0,0,165,1.0,64.0
196,49.0,0,225,3.0,64.0
197,71.0,60,52,1.0,64.0
198,61.0,60,292,2.0,64.0
199,80.0,60,225,0.0,64.0
200,61.0,60,52,2.0,64.0
201,78.0,60,52,0.0,64.0
202,58.0,60,225,3.0,64.0
203,76.0,60,52,0.0,64.0
204,73.0,0,292,1.0,64.0
205,59.0,0,105,3.0,64.0
206,66.0,0,225,2.0,64.0
207,73.0,60,52,1.0,64.0
208,71.0,0,52,1.0,64.0
209,66.0,0,52,2.0,64.0
210,63.0,60,52,3.0,64.0
211,61.0,60,52,3.0,64.0
212,70.0,0,52,1.0,64.0
213,64.0,0,52,2.0,64.0
214,68.0,0,52,1.0,64.0
215,63.0,0,105,2.0,64.0
216,59.0,60,105,3.0,64.0
217,67.0,60,52,1.0,64.0
218,68.0,0,52,1.0,64.0
219,61.0,60,105,2.0,64.0
220,58.0,0,105,3.0,64.0
221,67.0,60,52,1.0,64.0
222,68.0,0,52,1.0,64.0
223,59.0,60,105,2.0,64.0
224,75.0,60,585,0.0,64.0
225,71.0,60,52,1.0,64.0
226,70.0,60,52,1.0,64.0
227,61.0,0,105,2.0,64.0
228,79.0,0,105,0.0,64.0
229,73.0,60,52,1.0,64.0
230,56.0,0,292,3.0,64.0
231,63.0,0,105,2.0,64.0
232,71.0,0,105,1.0,64.0
233,80.0,60,105,0.0,64.0
234,55.0,60,52,3.0,64.0
235,56.0,0,52,3.0,64.0
236,73.0,0,105,0.0,64.0
237,64.0,0,105,2.0,64.0
238,55.0,60,52,3.0,64.0
239,70.0,60,172,1.0,64.0
240,56.0,0,105,3.0,64.0
241,70.0,60,52,1.0,64.0
242,63.0,0,165,2.0,64.0
243,59.0,60,52,3.0,64.0
244,68.0,0,52,1.0,64.0
245,66.0,0,52,1.0,64.0
246,61.0,0,52,2.0,64.0
247,58.0,60,52,3.0,64.0
248,65.0,60,52,1.0,64.0
249,56.0,0,105,3.0,64.0
250,59.0,0,105,2.0,64.0
251,66.0,60,52,1.0,64.0
252,65.0,0,52,1.0,64.0
253,62.0,60,105,2.0,64.0
254,54.0,0,105,3.0,64.0
255,66.0,60,52,1.0,64.0
256,71.0,60,532,0.0,64.0
257,70.0,60,52,0.0,64.0
258,61.0,0,165,2.0,64.0
259,53.0,0,225,3.0,64.0
260,68.0,60,225,1.0,64.0
261,56.0,60,52,2.0,64.0
262,58.0,0,52,2.0,64.0
263,61.0,0,105,1.0,64.0
264,59.0,60,52,2.0,64.0
265,71.0,60,285,0.0,64.0
266,54.0,60,225,3.0,64.0
267,70.0,60,52,0.0,64.0
268,68.0,0,52,0.0,64.0
269,61.0,60,225,2.0,64.0
270,71.0,60,52,0.0,64.0
271,59.0,60,52,2.0,64.0
272,66.0,0,345,1.0,64.0
273,58.0,60,52,2.0,64.0
274,56.0,60,52,2.0,64.0
275,75.0,0,225,0.0,64.0
276,54.0,60,52,2.0,64.0
277,73.0,0,52,0.0,64.0
278,56.0,60,105,2.0,64.0
279,65.0,0,225,1.0,64.0
280,49.0,60,465,3.0,64.0
281,71.0,60,52,0.0,64.0
282,66.0,0,225,1.0,64.0
283,70.0,60,225,0.0,64.0
284,54.0,0,225,2.0,64.0
285,42.0,0,225,3.0,64.0
286,58.0,240,225,2.0,64.0
287,78.0,120,52,0.0,64.0
288,63.0,240,225,2.0,64.0
289,76.0,60,52,0.0,64.0
290,75.0,0,52,0.0,64.0
291,76.0,60,52,0.0,64.0
292,78.0,60,52,0.0,64.0
293,59.0,60,225,2.0,64.0
294,75.0,60,52,0.0,64.0
295,71.0,60,52,0.0,64.0
296,73.0,60,52,0.0,64.0
297,75.0,60,52,0.0,64.0
298,56.0,0,225,2.0,64.0
299,71.0,60,52,0.0,64.0
300,68.0,60,52,0.0,64.0
301,70.0,60,52,0.0,64.0
302,65.0,0,225,2.0,64.0
303,71.0,60,172,0.0,64.0
304,68.0,60,52,0.0,64.0
305,70.0,60,52,0.0,64.0
306,71.0,60,52,0.0,64.0
307,66.0,120,292,2.0,64.0
308,64.0,60,52,2.0,64.0
309,63.0,60,52,2.0,64.0
310,61.0,60,52,2.0,64.0
311,73.0,60,292,0.0,64.0
312,66.0,60,52,0.0,64.0
313,68.0,60,52,0.0,64.0
314,59.0,0,52,3.0,64.0
315,70.0,60,52,0.0,64.0
316,58.0,0,52,3.0,64.0
317,56.0,60,52,3.0,64.0
318,63.0,60,345,2.0,64.0
319,58.0,60,52,3.0,64.0
320,59.0,0,52,3.0,64.0
321,63.0,60,105,2.0,64.0
322,56.0,60,52,3.0,64.0
323,61.0,0,52,2.0,64.0
324,52.0,60,52,3.0,64.0
325,54.0,60,52,3.0,64.0
326,63.0,0,52,2.0,64.0
327,56.0,0,52,3.0,64.0
328,71.0,0,465,0.0,64.0
329,52.0,60,52,3.0,64.0
330,70.0,0,52,0.0,64.0
331,49.0,60,52,3.0,64.0
332,64.0,60,225,2.0,64.0
333,51.0,60,52,3.0,64.0
334,71.0,0,52,0.0,64.0
335,73.0,0,52,0.0,64.0
336,58.0,0,105,2.0,64.0
337,70.0,60,52,0.0,64.0
338,52.0,60,172,3.0,64.0
339,66.0,0,105,0.0,64.0
340,49.0,60,52,3.0,64.0
341,83.0,60,52,0.0,64.0
342,51.0,0,105,3.0,64.0
343,82.0,60,52,0.0,64.0
344,80.0,60,52,0.0,64.0
345,52.0,0,105,3.0,64.0
346,82.0,60,52,0.0,64.0
347,83.0,0,52,0.0,64.0
348,47.0,60,105,3.0,64.0
349,80.0,60,52,0.0,64.0
350,76.0,0,52,0.0,64.0
351,49.0,60,52,3.0,64.0
352,51.0,0,52,3.0,64.0
353,78.0,60,52,0.0,64.0
354,52.0,60,52,3.0,64.0
355,80.0,0,52,0.0,64.0
356,76.0,60,52,0.0,64.0
357,49.0,0,52,3.0,64.0
358,59.0,60,772,2.0,64.0
359,73.0,60,52,0.0,64.0
360,58.0,60,52,2.0,64.0
361,75.0,0,52,0.0,64.0
362,56.0,60,52,2.0,64.0
363,54.0,0,225,3.0,64.0
364,58.0,60,52,2.0,64.0
365,59.0,60,52,2.0,64.0
366,47.0,0,105,3.0,64.0
367,76.0,0,225,0.0,64.0
368,54.0,60,52,2.0,64.0
369,59.0,0,52,2.0,64.0
370,75.0,60,52,0.0,64.0
371,59.0,0,225,1.0,64.0
372,58.0,0,52,2.0,64.0
373,73.0,60,52,0.0,64.0
374,56.0,60,52,2.0,64.0
375,58.0,60,52,2.0,64.0
376,59.0,60,52,2.0,64.0
377,63.0,0,225,1.0,64.0
378,56.0,60,52,2.0,64.0
379,71.0,0,240,0.0,64.0
380,52.0,0,105,2.0,64.0
381,47.0,60,52,3.0,64.0
382,52.0,0,52,3.0,64.0
383,73.0,60,52,0.0,64.0
384,68.0,60,225,1.0,64.0
385,71.0,0,52,0.0,64.0
386,51.0,60,52,3.0,64.0
387,49.0,0,52,3.0,64.0
388,70.0,60,105,0.0,64.0
389,51.0,60,52,3.0,64.0
390,52.0,0,52,3.0,64.0
391,64.0,0,225,1.0,64.0
392,68.0,60,105,0.0,64.0
393,49.0,60,52,3.0,64.0
394,46.0,60,52,3.0,64.0
395,67.0,0,105,0.0,64.0
396,47.0,60,52,3.0,64.0
397,49.0,0,52,3.0,64.0
398,64.0,60,105,2.0,64.0
399,61.0,0,225,1.0,64.0
400,46.0,60,52,3.0,64.0
401,43.0,60,52,3.0,64.0
402,63.0,0,105,2.0,64.0
403,44.0,60,52,3.0,64.0
404,68.0,0,52,0.0,64.0
405,70.0,0,225,1.0,64.0
406,61.0,0,105,2.0,64.0
407,67.0,60,52,0.0,64.0
408,46.0,60,172,3.0,64.0
409,68.0,0,105,0.0,64.0
410,44.0,60,52,3.0,64.0
411,46.0,60,52,3.0,64.0
412,63.0,0,225,2.0,64.0
413,47.0,60,52,3.0,64.0
414,71.0,60,292,1.0,64.0
415,71.0,60,52,1.0,64.0
416,70.0,60,52,1.0,64.0
417,64.0,0,225,2.0,64.0
418,68.0,60,52,1.0,64.0
419,63.0,0,52,2.0,64.0
420,49.0,60,292,3.0,64.0
421,61.0,60,52,2.0,64.0
422,42.0,0,52,3.0,64.0
423,59.0,60,52,2.0,64.0
424,44.0,0,52,3.0,64.0
425,46.0,0,52,3.0,64.0
426,61.0,60,52,2.0,64.0
427,66.0,60,292,1.0,64.0
428,69.0,60,52,1.0,64.0
429,68.0,60,52,1.0,64.0
430,62.0,60,225,2.0,64.0
431,66.0,60,52,1.0,64.0
432,65.0,60,52,1.0,64.0
433,47.0,0,292,3.0,64.0
434,66.0,60,52,1.0,64.0
435,46.0,0,52,3.0,64.0
436,68.0,0,52,1.0,64.0
437,47.0,60,52,3.0,64.0
438,65.0,0,52,1.0,64.0
439,49.0,60,52,3.0,64.0
440,61.0,0,292,2.0,64.0
441,51.0,60,105,3.0,64.0
442,59.0,60,52,2.0,64.0
443,58.0,0,52,2.0,64.0
444,49.0,60,105,3.0,64.0
445,59.0,60,52,2.0,64.0
446,47.0,0,52,3.0,64.0
447,44.0,60,52,3.0,64.0
448,46.0,60,52,3.0,64.0
449,66.0,0,465,1.0,64.0
450,47.0,60,52,3.0,64.0
451,56.0,60,292,2.0,64.0
452,49.0,60,105,3.0,64.0
453,56.0,60,52,2.0,64.0
454,58.0,0,52,2.0,64.0
455,65.0,0,225,1.0,64.0
456,59.0,60,52,2.0,64.0
457,47.0,60,172,3.0,64.0
458,47.0,60,52,3.0,64.0
459,46.0,60,52,3.0,64.0
460,66.0,0,225,1.0,64.0
461,66.0,0,225,0.0,64.0
462,44.0,60,52,3.0,64.0
463,61.0,60,292,2.0,64.0
464,42.0,0,105,3.0,64.0
465,64.0,60,52,2.0,64.0
466,63.0,60,52,2.0,64.0
467,70.0,60,225,0.0,64.0
468,61.0,60,52,2.0,64.0
469,51.0,60,52,3.0,64.0
470,53.0,60,52,3.0,64.0
471,71.0,0,52,1.0,64.0
472,59.0,60,225,2.0,64.0
473,75.0,0,225,0.0,64.0
474,70.0,0,52,1.0,64.0
475,55.0,60,52,3.0,64.0
476,68.0,0,52,1.0,64.0
477,56.0,0,52,3.0,64.0
478,55.0,0,52,3.0,64.0
479,70.0,60,52,1.0,64.0
480,71.0,0,52,1.0,64.0
481,71.0,60,225,0.0,64.0
482,68.0,60,52,1.0,64.0
483,65.0,60,52,1.0,64.0
484,56.0,60,225,3.0,64.0
485,66.0,60,52,1.0,64.0
486,68.0,60,52,1.0,64.0
487,68.0,0,225,0.0,64.0
488,59.0,0,105,2.0,64.0
489,65.0,60,52,1.0,64.0
490,62.0,60,52,1.0,64.0
491,56.0,0,225,3.0,64.0
492,63.0,60,52,1.0,64.0
493,58.0,0,165,2.0,64.0
494,77.0,0,225,0.0,64.0
495,50.0,60,105,3.0,64.0
496,56.0,60,52,2.0,64.0
497,65.0,0,172,1.0,64.0
498,51.0,0,105,3.0,64.0
499,54.0,0,105,2.0,64.0
500,63.0,60,52,1.0,64.0
501,65.0,60,52,1.0,64.0
502,66.0,60,52,1.0,64.0
503,78.0,60,292,0.0,64.0
504,77.0,60,52,0.0,64.0
505,78.0,60,52,0.0,64.0
506,80.0,60,52,0.0,64.0
507,68.0,60,292,1.0,64.0
508,66.0,60,52,1.0,64.0
509,68.0,60,52,1.0,64.0
510,70.0,60,52,1.0,64.0
511,82.0,60,292,0.0,64.0
512,82.0,60,52,0.0,64.0
513,80.0,60,52,0.0,64.0
514,78.0,60,52,0.0,64.0
515,71.0,60,292,1.0,64.0
516,77.0,60,105,0.0,64.0
517,71.0,60,52,1.0,64.0
518,70.0,60,52,1.0,64.0
519,79.0,0,52,0.0,64.0
520,80.0,0,52,0.0,64.0
521,68.0,60,52,1.0,64.0
522,70.0,60,52,1.0,64.0
523,79.0,0,52,0.0,64.0
524,80.0,60,52,0.0,64.0
525,71.0,0,52,1.0,64.0
526,82.0,0,52,0.0,64.0
527,79.0,60,52,0.0,64.0
528,73.0,60,172,1.0,64.0
529,73.0,60,52,1.0,64.0
530,71.0,60,52,1.0,64.0
531,75.0,60,225,0.0,64.0
532,44.0,0,225,3.0,64.0
533,70.0,60,52,1.0,64.0
534,68.0,0,52,1.0,64.0
535,70.0,60,52,1.0,64.0
536,71.0,60,52,1.0,64.0
537,47.0,60,225,3.0,64.0
538,68.0,60,52,1.0,64.0
539,61.0,0,52,1.0,64.0
540,60.0,60,52,1.0,64.0
541,80.0,60,52,0.0,64.0
542,52.0,60,225,3.0,64.0
543,78.0,60,52,0.0,64.0
544,76.0,60,52,0.0,64.0
545,61.0,0,225,1.0,64.0
546,78.0,60,52,0.0,64.0
547,80.0,60,52,0.0,64.0
548,49.0,0,225,3.0,64.0
549,76.0,60,52,0.0,64.0
550,73.0,60,52,0.0,64.0
551,68.0,0,225,1.0,64.0
552,75.0,60,52,0.0,64.0
553,76.0,0,52,0.0,64.0
554,67.0,60,105,1.0,64.0
555,46.0,0,225,3.0,64.0
556,73.0,60,52,0.0,64.0
557,70.0,60,52,0.0,64.0
558,71.0,60,52,0.0,64.0
559,55.0,0,225,3.0,64.0
560,70.0,60,52,1.0,64.0
561,73.0,60,172,0.0,64.0
562,70.0,60,52,0.0,64.0
563,63.0,60,165,1.0,64.0
564,66.0,60,52,1.0,64.0
565,65.0,60,52,1.0,64.0
566,56.0,0,292,3.0,64.0
567,68.0,60,52,1.0,64.0
568,54.0,0,52,3.0,64.0
569,71.0,60,285,0.0,64.0
570,53.0,60,52,3.0,64.0
571,56.0,60,52,3.0,64.0
572,71.0,0,52,0.0,64.0
573,71.0,0,52,0.0,64.0
574,68.0,60,52,0.0,64.0
575,61.0,0,285,1.0,64.0
576,64.0,60,52,1.0,64.0
577,54.0,60,292,3.0,64.0
578,63.0,60,52,1.0,64.0
579,66.0,60,52,1.0,64.0
580,52.0,0,52,3.0,64.0
581,70.0,60,285,0.0,64.0
582,51.0,60,52,3.0,64.0
583,69.0,0,52,0.0,64.0
584,54.0,60,52,3.0,64.0
585,69.0,60,52,0.0,64.0
586,67.0,60,52,0.0,64.0
587,59.0,0,285,1.0,64.0
588,52.0,0,165,3.0,64.0
589,52.0,0,225,2.0,64.0
590,60.0,60,52,1.0,64.0
591,51.0,0,52,3.0,64.0
592,49.0,0,52,3.0,64.0
593,68.0,60,172,0.0,64.0
594,51.0,60,52,3.0,64.0
595,72.0,0,52,0.0,64.0
596,64.0,0,165,1.0,64.0
597,52.0,60,52,3.0,64.0
598,56.0,60,225,2.0,64.0
599,65.0,60,52,1.0,64.0
600,49.0,0,52,3.0,64.0
601,45.0,0,52,3.0,64.0
602,73.0,0,225,0.0,64.0
603,66.0,60,105,1.0,64.0
604,49.0,60,52,3.0,64.0
605,69.0,0,52,1.0,64.0
606,73.0,0,105,0.0,64.0
607,61.0,0,225,2.0,64.0
608,68.0,60,52,1.0,64.0
609,66.0,0,52,1.0,64.0
610,54.0,60,225,3.0,64.0
611,68.0,60,52,1.0,64.0
612,69.0,0,52,1.0,64.0
613,57.0,0,225,2.0,64.0
614,66.0,60,52,1.0,64.0
615,63.0,0,52,1.0,64.0
616,48.0,60,172,3.0,64.0
617,75.0,60,345,0.0,64.0
618,64.0,60,52,1.0,64.0
619,49.0,0,52,3.0,64.0
620,51.0,0,52,3.0,64.0
621,66.0,60,52,1.0,64.0
622,54.0,60,225,2.0,64.0
623,48.0,60,52,3.0,64.0
624,63.0,0,52,1.0,64.0
625,44.0,60,52,3.0,64.0
626,60.0,0,52,1.0,64.0
627,69.0,0,225,0.0,64.0
628,46.0,60,52,3.0,64.0
629,61.0,0,52,1.0,64.0
630,48.0,0,52,3.0,64.0
631,68.0,60,52,0.0,64.0
632,63.0,0,225,2.0,64.0
633,44.0,0,52,3.0,64.0
634,66.0,60,52,0.0,64.0
635,49.0,0,52,3.0,64.0
636,64.0,0,105,0.0,64.0
637,63.0,0,225,1.0,64.0
638,51.0,60,52,3.0,64.0
639,52.0,0,52,3.0,64.0
640,68.0,60,105,0.0,64.0
641,49.0,60,52,3.0,64.0
642,45.0,0,52,3.0,64.0
643,61.0,0,225,1.0,64.0
644,64.0,60,345,2.0,64.0
645,47.0,60,52,3.0,64.0
646,49.0,0,52,3.0,64.0
647,61.0,0,105,2.0,64.0
648,64.0,60,105,1.0,64.0
649,45.0,60,52,3.0,64.0
650,42.0,0,52,3.0,64.0
651,73.0,60,345,0.0,64.0
652,44.0,60,52,3.0,64.0
653,78.0,0,52,0.0,64.0
654,45.0,60,52,3.0,64.0
655,66.0,60,225,2.0,64.0
656,69.0,0,225,1.0,64.0
657,42.0,0,52,3.0,64.0
658,76.0,60,52,0.0,64.0
659,39.0,60,52,3.0,64.0
660,78.0,0,105,0.0,64.0
661,40.0,60,52,3.0,64.0
662,42.0,0,52,3.0,64.0
663,66.0,0,105,2.0,64.0
664,75.0,0,105,0.0,64.0
665,39.0,60,52,3.0,64.0
666,44.0,60,52,3.0,64.0
667,63.0,0,105,2.0,64.0
668,71.0,0,105,0.0,64.0
669,69.0,60,225,1.0,64.0
670,42.0,60,52,3.0,64.0
671,40.0,0,52,3.0,64.0
672,73.0,60,52,0.0,64.0
673,68.0,0,52,1.0,64.0
674,64.0,0,105,2.0,64.0
675,75.0,60,52,0.0,64.0
676,42.0,0,52,3.0,64.0
677,69.0,0,52,1.0,64.0
678,44.0,60,52,3.0,64.0
679,71.0,0,105,1.0,64.0
680,76.0,0,105,0.0,64.0
681,42.0,60,52,3.0,64.0
682,44.0,0,52,3.0,64.0
683,69.0,0,105,0.0,64.0
684,61.0,0,105,2.0,64.0
685,45.0,60,52,3.0,64.0
686,66.0,60,172,1.0,64.0
687,63.0,60,52,1.0,64.0
688,68.0,0,165,0.0,64.0
689,69.0,60,52,0.0,64.0
690,64.0,60,172,1.0,64.0
691,61.0,60,52,1.0,64.0
692,59.0,0,405,2.0,64.0
693,66.0,60,225,0.0,64.0
694,47.0,60,465,3.0,64.0
695,63.0,60,105,1.0,64.0
696,57.0,60,52,2.0,64.0
697,64.0,0,52,1.0,64.0
698,71.0,60,52,1.0,64.0
699,56.0,0,225,2.0,64.0
700,52.0,0,225,3.0,64.0
701,64.0,60,225,0.0,64.0
702,76.0,60,172,1.0,64.0
703,73.0,60,52,1.0,64.0
704,83.0,60,52,0.0,64.0
705,59.0,120,225,2.0,64.0
706,75.0,0,105,1.0,64.0
707,81.0,60,52,0.0,64.0
708,80.0,60,52,0.0,64.0
709,81.0,60,52,0.0,64.0
710,83.0,60,52,0.0,64.0
711,64.0,0,225,2.0,64.0
712,80.0,60,52,0.0,64.0
713,76.0,60,52,0.0,64.0
714,78.0,60,52,0.0,64.0
715,68.0,0,240,1.0,64.0
716,80.0,60,52,0.0,64.0
717,61.0,0,225,2.0,64.0
718,64.0,0,105,1.0,64.0
719,76.0,60,52,0.0,64.0
720,73.0,60,52,0.0,64.0
721,75.0,60,52,0.0,64.0
722,73.0,60,52,1.0,64.0
723,58.0,0,225,2.0,64.0
724,71.0,60,52,1.0,64.0
725,70.0,60,52,1.0,64.0
726,76.0,0,225,0.0,64.0
727,71.0,60,52,1.0,64.0
728,73.0,0,52,1.0,64.0
729,67.0,0,225,2.0,64.0
730,70.0,60,52,1.0,64.0
731,68.0,0,52,2.0,64.0
732,75.0,60,225,0.0,64.0
733,66.0,60,52,2.0,64.0
734,65.0,0,52,2.0,64.0
735,71.0,60,225,1.0,64.0
736,63.0,60,52,2.0,64.0
737,62.0,60,52,2.0,64.0
738,80.0,60,172,0.0,64.0
739,78.0,60,52,0.0,64.0
740,63.0,0,52,2.0,64.0
741,65.0,0,52,2.0,64.0
742,80.0,60,105,0.0,64.0
743,62.0,60,52,2.0,64.0
744,70.0,0,292,1.0,64.0
745,76.0,60,52,1.0,64.0
746,75.0,60,52,1.0,64.0
747,73.0,60,52,1.0,64.0
748,72.0,60,52,1.0,64.0
749,63.0,0,292,2.0,64.0
750,64.0,0,52,2.0,64.0
751,73.0,60,52,1.0,64.0
752,66.0,60,52,2.0,64.0
753,75.0,0,52,1.0,64.0
754,63.0,60,52,2.0,64.0
755,72.0,0,52,1.0,64.0
756,64.0,0,52,2.0,64.0
757,78.0,60,585,0.0,64.0
758,63.0,60,52,2.0,64.0
759,61.0,0,52,2.0,64.0
760,68.0,60,225,1.0,64.0
761,59.0,60,52,2.0,64.0
762,58.0,60,52,2.0,64.0
763,76.0,60,172,0.0,64.0
764,59.0,60,52,2.0,64.0
765,75.0,0,52,0.0,64.0
766,67.0,0,165,1.0,64.0
767,61.0,60,52,2.0,64.0
768,76.0,0,105,0.0,64.0
769,58.0,60,52,2.0,64.0
770,73.0,0,112,1.0,64.0
771,73.0,60,52,1.0,64.0
772,71.0,60,52,1.0,64.0
773,70.0,60,52,1.0,64.0
774,68.0,60,52,1.0,64.0
775,59.0,0,292,2.0,64.0
776,70.0,60,52,1.0,64.0
777,61.0,0,52,2.0,64.0
778,63.0,60,52,2.0,64.0
779,71.0,0,52,1.0,64.0
780,59.0,60,52,2.0,64.0
781,68.0,0,52,1.0,64.0
782,61.0,0,52,2.0,64.0
783,75.0,60,585,0.0,64.0
784,65.0,60,105,1.0,64.0
785,59.0,60,52,2.0,64.0
786,58.0,0,52,2.0,64.0
787,67.0,60,52,1.0,64.0
788,56.0,0,52,2.0,64.0
789,68.0,60,52,1.0,64.0
790,73.0,0,172,0.0,64.0
791,55.0,60,52,2.0,64.0
792,71.0,0,52,0.0,64.0
793,56.0,60,52,2.0,64.0
794,70.0,0,165,1.0,64.0
795,58.0,0,52,2.0,64.0
796,73.0,60,105,0.0,64.0
797,55.0,0,52,2.0,64.0
798,70.0,60,112,1.0,64.0
799,67.0,60,52,1.0,64.0
800,56.0,60,146,2.0,64.0
801,71.0,0,165,0.0,64.0
802,54.0,30,26,2.0,64.0
803,52.0,0,26,2.0,64.0
804,71.0,30,52,0.0,64.0
805,51.0,30,26,2.0,64.0
806,49.0,0,52,2.0,64.0
807,68.0,60,172,1.0,64.0
808,59.0,0,52,2.0,64.0
809,68.0,60,52,1.0,64.0
810,76.0,30,165,0.0,64.0
811,58.0,60,52,2.0,64.0
812,54.0,0,52,2.0,64.0
813,76.0,60,52,0.0,64.0
814,73.0,0,172,1.0,64.0
815,70.0,60,52,1.0,64.0
816,59.0,0,146,2.0,64.0
817,75.0,60,165,0.0,64.0
818,58.0,30,26,2.0,64.0
819,56.0,30,26,2.0,64.0
820,75.0,0,52,0.0,64.0
821,54.0,30,26,2.0,64.0
822,71.0,60,172,1.0,64.0
823,52.0,30,52,2.0,64.0
824,63.0,60,52,2.0,64.0
825,71.0,0,52,1.0,64.0
826,80.0,0,165,0.0,64.0
827,61.0,60,52,2.0,64.0
828,58.0,60,52,2.0,64.0
829,80.0,0,52,0.0,64.0
830,76.0,0,172,1.0,64.0
831,73.0,60,52,1.0,64.0
832,63.0,60,146,2.0,64.0
833,78.0,0,165,0.0,64.0
834,61.0,30,26,2.0,64.0
835,59.0,30,26,2.0,64.0
836,78.0,0,52,0.0,64.0
837,58.0,30,26,2.0,64.0
838,75.0,60,172,1.0,64.0
839,56.0,30,52,2.0,64.0
840,66.0,0,52,2.0,64.0
841,75.0,60,52,1.0,64.0
842,83.0,0,165,0.0,64.0
843,65.0,0,52,2.0,64.0
844,83.0,60,52,0.0,64.0
845,61.0,0,52,2.0,64.0
846,80.0,60,172,1.0,64.0
847,66.0,60,52,2.0,64.0
848,68.0,0,52,2.0,64.0
849,77.0,60,52,1.0,64.0
850,82.0,0,165,0.0,64.0
851,70.0,0,52,2.0,64.0
852,66.0,60,52,2.0,64.0
853,73.0,0,52,0.0,64.0
854,78.0,60,146,1.0,64.0
855,63.0,60,52,2.0,64.0
856,80.0,30,26,1.0,64.0
857,78.0,0,26,1.0,64.0
858,64.0,30,52,2.0,64.0
859,76.0,30,26,1.0,64.0
860,81.0,0,165,0.0,64.0
861,66.0,30,52,2.0,64.0
862,78.0,0,52,0.0,64.0
863,63.0,60,52,2.0,64.0
864,75.0,0,172,1.0,64.0
865,60.0,60,52,2.0,64.0
866,76.0,60,52,1.0,64.0
867,61.0,0,52,2.0,64.0
868,63.0,60,52,2.0,64.0
869,78.0,0,52,1.0,64.0
870,60.0,60,52,2.0,64.0
871,75.0,0,52,1.0,64.0
872,61.0,0,52,2.0,64.0
873,76.0,60,52,1.0,64.0
874,63.0,60,52,2.0,64.0
875,72.0,0,52,1.0,64.0
876,73.0,60,52,1.0,64.0
877,76.0,60,52,1.0,64.0
878,64.0,0,172,2.0,64.0
879,80.0,0,532,0.0,64.0
880,80.0,0,52,0.0,64.0
881,64.0,60,52,2.0,64.0
882,78.0,60,52,0.0,64.0
883,63.0,0,52,2.0,64.0
884,70.0,60,225,1.0,64.0
885,76.0,60,52,0.0,64.0
886,61.0,0,52,2.0,64.0
887,59.0,0,52,2.0,64.0
888,75.0,0,52,0.0,64.0
889,61.0,60,52,2.0,64.0
890,76.0,0,52,0.0,64.0
891,78.0,60,52,0.0,64.0
892,63.0,0,52,2.0,64.0
893,59.0,0,52,2.0,64.0
894,75.0,60,52,0.0,64.0
895,56.0,0,52,2.0,64.0
896,71.0,60,292,1.0,64.0
897,73.0,0,52,1.0,64.0
898,58.0,60,52,2.0,64.0
899,59.0,60,52,2.0,64.0
900,75.0,0,52,1.0,64.0
901,56.0,0,52,2.0,64.0
902,71.0,60,52,1.0,64.0
903,73.0,0,52,1.0,64.0
904,58.0,60,52,2.0,64.0
905,68.0,60,52,1.0,64.0
906,59.0,0,52,2.0,64.0
907,70.0,60,52,1.0,64.0
908,76.0,60,465,0.0,64.0
909,73.0,60,52,1.0,64.0
910,61.0,0,172,2.0,64.0
911,66.0,0,105,1.0,64.0
912,59.0,60,52,2.0,64.0
913,58.0,60,52,2.0,64.0
914,47.0,60,225,3.0,64.0
915,71.0,0,105,1.0,64.0
916,56.0,60,52,2.0,64.0
917,55.0,60,52,2.0,64.0
918,75.0,0,345,0.0,64.0
919,56.0,60,52,2.0,64.0
920,58.0,0,52,2.0,64.0
921,73.0,60,105,0.0,64.0
922,51.0,0,225,3.0,64.0
923,55.0,60,52,2.0,64.0
924,56.0,0,52,2.0,64.0
925,70.0,0,345,1.0,64.0
926,59.0,60,52,2.0,64.0
927,61.0,60,52,2.0,64.0
928,68.0,0,52,1.0,64.0
929,56.0,60,225,3.0,64.0
930,67.0,0,52,1.0,64.0
931,63.0,60,52,2.0,64.0
932,71.0,0,292,0.0,64.0
933,64.0,0,105,2.0,64.0
934,71.0,60,52,0.0,64.0
935,68.0,0,165,1.0,64.0
936,76.0,0,52,0.0,64.0
937,52.0,60,225,3.0,64.0
938,78.0,60,52,0.0,64.0
939,71.0,0,52,1.0,64.0
940,59.0,60,172,2.0,64.0
941,56.0,60,52,2.0,64.0
942,58.0,60,52,2.0,64.0
943,49.0,0,225,3.0,64.0
944,59.0,60,52,2.0,64.0
945,80.0,60,292,0.0,64.0
946,76.0,0,292,1.0,64.0
947,61.0,60,105,2.0,64.0
948,80.0,60,52,0.0,64.0
949,76.0,0,52,1.0,64.0
950,78.0,60,52,0.0,64.0
951,75.0,0,52,1.0,64.0
952,58.0,0,225,3.0,64.0
953,76.0,60,52,0.0,64.0
954,73.0,0,52,1.0,64.0
955,66.0,0,172,2.0,64.0
956,68.0,60,52,2.0,64.0
957,66.0,60,52,2.0,64.0
958,64.0,60,52,2.0,64.0
959,71.0,0,292,1.0,64.0
960,59.0,60,292,3.0,64.0
961,61.0,60,52,3.0,64.0
962,67.0,0,52,1.0,64.0
963,59.0,0,52,3.0,64.0
964,68.0,60,52,1.0,64.0
965,58.0,0,52,3.0,64.0
966,70.0,60,52,1.0,64.0
967,71.0,60,52,1.0,64.0
968,63.0,60,292,2.0,64.0
969,64.0,60,52,2.0,64.0
970,70.0,0,52,1.0,64.0
971,63.0,60,52,2.0,64.0
972,73.0,0,52,1.0,64.0
973,61.0,60,52,2.0,64.0
974,67.0,0,52,1.0,64.0
975,56.0,0,292,3.0,64.0
976,58.0,60,52,3.0,64.0
977,56.0,60,52,3.0,64.0
978,68.0,60,225,1.0,64.0
979,54.0,60,52,3.0,64.0
980,75.0,0,1012,0.0,64.0
981,59.0,0,345,2.0,64.0
982,75.0,60,52,0.0,64.0
983,74.0,60,52,0.0,64.0
984,72.0,60,52,0.0,64.0
985,74.0,60,52,0.0,64.0
986,53.0,60,292,3.0,64.0
987,75.0,0,52,0.0,64.0
988,54.0,60,52,3.0,64.0
989,77.0,60,52,0.0,64.0
990,53.0,0,52,3.0,64.0
991,78.0,60,52,0.0,64.0
992,51.0,0,52,3.0,64.0
993,50.0,0,52,3.0,64.0
994,46.0,60,52,3.0,64.0
995,48.0,60,52,3.0,64.0
996,80.0,60,225,0.0,64.0
997,50.0,60,52,3.0,64.0
998,51.0,0,52,3.0,64.0
999,77.0,0,225,1.0,64.0
1000,53.0,60,52,3.0,64.0
1001,54.0,60,52,3.0,64.0
1002,75.0,0,52,1.0,64.0
1003,73.0,60,52,1.0,64.0
1004,51.0,0,52,3.0,64.0
1005,56.0,0,52,3.0,64.0
1006,71.0,60,105,1.0,64.0
1007,54.0,60,52,3.0,64.0
1008,56.0,0,52,3.0,64.0
1009,75.0,60,105,1.0,64.0
1010,58.0,60,52,3.0,64.0
1011,78.0,60,532,0.0,64.0
1012,59.0,60,52,3.0,64.0
1013,58.0,60,52,3.0,64.0
1014,78.0,0,52,0.0,64.0
1015,77.0,60,52,0.0,64.0
1016,59.0,0,52,3.0,64.0
1017,75.0,60,52,0.0,64.0
1018,56.0,0,52,3.0,64.0
1019,68.0,0,292,1.0,64.0
1020,71.0,60,52,1.0,64.0
1021,70.0,60,52,1.0,64.0
1022,68.0,60,52,1.0,64.0
1023,74.0,60,292,0.0,64.0
1024,70.0,60,52,0.0,64.0
1025,58.0,0,405,3.0,64.0
1026,66.0,60,225,1.0,64.0
1027,57.0,60,52,3.0,64.0
1028,75.0,60,172,0.0,64.0
1029,72.0,60,52,0.0,64.0
1030,74.0,60,52,0.0,64.0
1031,58.0,60,225,3.0,64.0
1032,77.0,60,52,0.0,64.0
1033,68.0,0,52,0.0,64.0
1034,71.0,60,52,0.0,64.0
1035,70.0,60,52,0.0,64.0
1036,46.0,60,225,3.0,64.0
1037,68.0,60,52,0.0,64.0
1038,65.0,0,532,1.0,64.0
1039,65.0,60,52,1.0,64.0
1040,63.0,60,52,1.0,64.0
1041,54.0,0,225,2.0,64.0
1042,62.0,60,52,1.0,64.0
1043,51.0,0,292,3.0,64.0
1044,52.0,60,52,3.0,64.0
1045,51.0,60,52,3.0,64.0
1046,58.0,0,225,2.0,64.0
1047,63.0,60,225,1.0,64.0
1048,66.0,60,465,0.0,64.0
1049,49.0,60,52,3.0,64.0
1050,47.0,0,52,3.0,64.0
1051,46.0,60,52,3.0,64.0
1052,66.0,60,52,1.0,64.0
1053,63.0,60,225,2.0,64.0
1054,64.0,60,52,1.0,64.0
1055,63.0,60,52,1.0,64.0
1056,47.0,0,172,3.0,64.0
1057,64.0,0,52,1.0,64.0
1058,49.0,60,52,3.0,64.0
1059,66.0,60,52,1.0,64.0
1060,59.0,0,225,2.0,64.0
1061,63.0,60,52,1.0,64.0
1062,51.0,0,172,3.0,64.0
1063,59.0,60,52,1.0,64.0
1064,61.0,60,52,1.0,64.0
1065,49.0,0,52,3.0,64.0
1066,47.0,0,52,3.0,64.0
1067,63.0,60,52,1.0,64.0
1068,56.0,0,225,2.0,64.0
1069,59.0,0,52,1.0,64.0
1070,51.0,60,52,3.0,64.0
1071,49.0,0,52,3.0,64.0
1072,56.0,0,52,1.0,64.0
1073,47.0,0,52,3.0,64.0
1074,58.0,60,52,1.0,64.0
1075,46.0,60,52,3.0,64.0
1076,65.0,60,225,2.0,64.0
1077,44.0,60,52,3.0,64.0
1078,59.0,0,172,1.0,64.0
1079,42.0,0,52,3.0,64.0
1080,59.0,60,52,1.0,64.0
1081,49.0,0,52,3.0,64.0
1082,58.0,60,52,1.0,64.0
1083,56.0,60,52,1.0,64.0
1084,66.0,60,292,2.0,64.0
1085,54.0,0,172,3.0,64.0
1086,58.0,60,105,1.0,64.0
1087,52.0,60,52,3.0,64.0
1088,61.0,0,52,2.0,64.0
1089,51.0,0,52,3.0,64.0
1090,49.0,60,52,3.0,64.0
1091,48.0,60,52,3.0,64.0
1092,69.0,0,225,1.0,64.0
1093,66.0,60,225,2.0,64.0
1094,49.0,60,52,3.0,64.0
1095,51.0,60,52,3.0,64.0
1096,60.0,0,52,2.0,64.0
1097,69.0,0,105,1.0,64.0
1098,66.0,60,52,2.0,64.0
1099,48.0,0,52,3.0,64.0
1100,44.0,0,52,3.0,64.0
1101,68.0,0,105,1.0,64.0
1102,64.0,60,105,2.0,64.0
1103,46.0,60,52,3.0,64.0
1104,48.0,60,52,3.0,64.0
1105,44.0,60,52,3.0,64.0
1106,49.0,60,52,3.0,64.0
1107,63.0,0,225,2.0,64.0
1108,66.0,0,225,1.0,64.0
1109,51.0,60,52,3.0,64.0
1110,61.0,60,52,2.0,64.0
1111,64.0,0,52,1.0,64.0
1112,60.0,60,52,2.0,64.0
1113,63.0,0,52,1.0,64.0
1114,61.0,0,52,2.0,64.0
1115,52.0,0,172,3.0,64.0
1116,64.0,60,52,1.0,64.0
1117,51.0,0,52,3.0,64.0
1118,66.0,60,52,1.0,64.0
1119,63.0,0,52,2.0,64.0
1120,49.0,0,52,3.0,64.0
1121,47.0,60,52,3.0,64.0
1122,46.0,60,52,3.0,64.0
1123,64.0,0,225,2.0,64.0
1124,68.0,60,225,1.0,64.0
1125,47.0,60,52,3.0,64.0
1126,58.0,60,52,2.0,64.0
1127,49.0,0,52,3.0,64.0
1128,68.0,0,105,1.0,64.0
1129,64.0,60,52,2.0,64.0
1130,46.0,0,52,3.0,64.0
1131,42.0,0,52,3.0,64.0
1132,63.0,60,105,2.0,64.0
1133,66.0,0,105,1.0,64.0
1134,44.0,60,52,3.0,64.0
1135,46.0,0,52,3.0,64.0
1136,42.0,60,52,3.0,64.0
1137,47.0,60,52,3.0,64.0
1138,64.0,60,225,1.0,64.0
1139,61.0,0,225,2.0,64.0
1140,49.0,60,52,3.0,64.0
1141,59.0,0,52,2.0,64.0
1142,63.0,0,52,1.0,64.0
1143,61.0,60,52,1.0,64.0
1144,58.0,0,52,2.0,64.0
1145,63.0,60,52,1.0,64.0
1146,51.0,60,172,3.0,64.0
1147,59.0,0,52,2.0,64.0
1148,61.0,0,52,2.0,64.0
1149,64.0,0,52,1.0,64.0
1150,49.0,60,52,3.0,64.0
1151,47.0,0,52,3.0,64.0
1152,51.0,60,52,3.0,64.0
1153,63.0,0,172,2.0,64.0
1154,66.0,60,172,1.0,64.0
1155,64.0,60,52,2.0,64.0
1156,68.0,0,52,1.0,64.0
1157,66.0,0,52,1.0,64.0
1158,63.0,60,52,2.0,64.0
1159,71.0,0,225,0.0,64.0
1160,64.0,60,52,1.0,64.0
1161,61.0,0,52,2.0,64.0
1162,59.0,0,52,2.0,64.0
1163,56.0,60,292,3.0,64.0
1164,63.0,60,105,1.0,64.0
1165,57.0,60,52,3.0,64.0
1166,61.0,0,52,2.0,64.0
1167,56.0,0,52,3.0,64.0
1168,59.0,60,52,2.0,64.0
1169,75.0,0,225,0.0,64.0
1170,54.0,60,52,3.0,64.0
1171,57.0,0,52,2.0,64.0
1172,56.0,0,52,2.0,64.0
1173,71.0,0,225,1.0,64.0
1174,59.0,60,52,2.0,64.0
1175,64.0,60,52,2.0,64.0
1176,80.0,60,225,0.0,64.0
1177,63.0,60,52,2.0,64.0
1178,61.0,60,52,2.0,64.0
1179,68.0,0,225,1.0,64.0
1180,63.0,60,52,2.0,64.0
1181,64.0,0,52,2.0,64.0
1182,73.0,60,105,1.0,64.0
1183,76.0,0,225,0.0,64.0
1184,61.0,60,52,2.0,64.0
1185,58.0,0,52,2.0,64.0
1186,66.0,0,52,1.0,64.0
1187,59.0,60,52,2.0,64.0
1188,68.0,0,52,1.0,64.0
1189,61.0,60,52,2.0,64.0
1190,70.0,0,52,1.0,64.0
1191,73.0,60,225,0.0,64.0
1192,66.0,0,52,1.0,64.0
1193,58.0,60,52,2.0,64.0
1194,54.0,0,52,2.0,64.0
1195,73.0,60,52,1.0,64.0
1196,52.0,0,825,3.0,64.0
1197,56.0,0,52,2.0,64.0
1198,76.0,60,52,1.0,64.0
1199,54.0,0,52,3.0,64.0
1200,75.0,0,52,1.0,64.0
1201,82.0,0,225,0.0,64.0
1202,73.0,0,52,1.0,64.0
1203,52.0,60,52,3.0,64.0
1204,78.0,0,52,1.0,64.0
1205,58.0,60,172,2.0,64.0
1206,54.0,60,52,2.0,64.0
1207,76.0,0,52,1.0,64.0
1208,59.0,60,52,2.0,64.0
1209,75.0,0,52,1.0,64.0
1210,83.0,60,225,0.0,64.0
1211,58.0,60,52,2.0,64.0
1212,78.0,0,52,1.0,64.0
1213,51.0,0,292,3.0,64.0
1214,49.0,60,52,3.0,64.0
1215,47.0,60,52,3.0,64.0
1216,51.0,60,52,3.0,64.0
1217,56.0,0,292,2.0,64.0
1218,71.0,0,292,1.0,64.0
1219,70.0,60,52,1.0,64.0
1220,54.0,0,52,2.0,64.0
1221,68.0,0,52,1.0,64.0
1222,52.0,60,52,2.0,64.0
1223,71.0,60,52,1.0,64.0
1224,56.0,0,52,2.0,64.0
1225,70.0,0,52,1.0,64.0
1226,49.0,60,292,3.0,64.0
1227,71.0,0,52,1.0,64.0
1228,51.0,60,52,3.0,64.0
1229,52.0,0,52,3.0,64.0
1230,73.0,60,52,1.0,64.0
1231,49.0,0,52,3.0,64.0
1232,70.0,60,52,1.0,64.0
1233,61.0,60,292,2.0,64.0
1234,76.0,60,772,0.0,64.0
1235,75.0,0,52,0.0,64.0
1236,59.0,60,52,2.0,64.0
1237,76.0,60,52,0.0,64.0
1238,61.0,0,52,2.0,64.0
1239,59.0,60,52,2.0,64.0
1240,75.0,0,52,0.0,64.0
1241,58.0,60,292,3.0,64.0
1242,61.0,60,105,2.0,64.0
1243,76.0,0,105,0.0,64.0
1244,66.0,0,345,1.0,64.0
1245,56.0,60,52,3.0,64.0
1246,54.0,60,52,3.0,64.0
1247,56.0,60,52,3.0,64.0
1248,66.0,0,52,2.0,64.0
1249,75.0,60,52,0.0,64.0
1250,73.0,0,52,0.0,64.0
1251,64.0,60,52,2.0,64.0
1252,66.0,60,52,2.0,64.0
1253,75.0,0,52,0.0,64.0
1254,64.0,0,52,2.0,64.0
1255,73.0,60,52,0.0,64.0
1256,57.0,0,292,3.0,64.0
1257,66.0,60,105,2.0,64.0
1258,71.0,0,345,1.0,64.0
1259,75.0,0,105,0.0,64.0
1260,56.0,60,52,3.0,64.0
1261,54.0,60,52,3.0,64.0
1262,57.0,60,52,3.0,64.0
1263,65.0,60,52,0.0,64.0
1264,74.0,60,52,0.0,64.0
1265,59.0,0,105,2.0,64.0
1266,73.0,60,52,0.0,64.0
1267,71.0,0,52,0.0,64.0
1268,73.0,60,52,0.0,64.0
1269,74.0,0,52,0.0,64.0
1270,56.0,60,465,3.0,64.0
1271,65.0,60,105,1.0,64.0
1272,62.0,60,225,2.0,64.0
1273,71.0,60,52,0.0,64.0
1274,68.0,0,52,0.0,64.0
1275,69.0,60,52,0.0,64.0
1276,71.0,60,52,0.0,64.0
1277,59.0,60,225,3.0,64.0
1278,65.0,0,225,1.0,64.0
1279,62.0,0,225,2.0,64.0
1280,68.0,60,52,0.0,64.0
1281,65.0,60,52,0.0,64.0
1282,74.0,60,52,0.0,64.0
1283,73.0,60,52,0.0,64.0
1284,53.0,0,105,3.0,64.0
1285,56.0,0,105,2.0,64.0
1286,71.0,60,52,0.0,64.0
1287,54.0,0,52,3.0,64.0
1288,61.0,0,172,1.0,64.0
1289,54.0,0,105,2.0,64.0
1290,52.0,60,52,3.0,64.0
1291,68.0,0,52,1.0,64.0
1292,51.0,60,52,3.0,64.0
1293,66.0,0,52,1.0,64.0
1294,70.0,60,225,0.0,64.0
1295,64.0,0,52,1.0,64.0
1296,49.0,60,52,3.0,64.0
1297,47.0,60,52,3.0,64.0
1298,66.0,60,52,0.0,64.0
1299,49.0,0,52,3.0,64.0
1300,63.0,0,165,1.0,64.0
1301,51.0,60,52,3.0,64.0
1302,62.0,60,52,1.0,64.0
1303,41.0,0,52,3.0,64.0
1304,61.0,60,52,1.0,64.0
1305,71.0,0,225,0.0,64.0
1306,63.0,60,52,1.0,64.0
1307,70.0,0,52,0.0,64.0
1308,68.0,60,52,0.0,64.0
1309,49.0,0,52,2.0,64.0
1310,64.0,60,172,1.0,64.0
1311,68.0,60,52,1.0,64.0
1312,66.0,60,52,1.0,64.0
1313,70.0,60,225,0.0,64.0
1314,42.0,0,465,3.0,64.0
1315,64.0,60,52,1.0,64.0
1316,54.0,0,705,2.0,64.0
1317,71.0,60,465,0.0,64.0
1318,47.0,0,465,3.0,64.0
1319,63.0,0,465,1.0,64.0
