,note,step,duration,channel,velocity
0,43.0,13,480,0.0,0.0
1,67.0,41,15,0.0,0.0
2,62.0,19,40,0.0,0.0
3,65.0,60,15,0.0,0.0
4,63.0,19,150,0.0,0.0
5,58.0,41,15,0.0,0.0
6,57.0,19,40,0.0,0.0
7,60.0,41,15,0.0,0.0
8,54.0,0,240,0.0,0.0
9,63.0,41,15,0.0,0.0
10,62.0,19,40,0.0,0.0
11,60.0,41,15,0.0,0.0
12,69.0,19,40,0.0,0.0
13,60.0,41,15,0.0,0.0
14,58.0,6,40,0.0,0.0
15,57.0,54,15,0.0,0.0
16,55.0,0,480,0.0,0.0
17,58.0,6,60,0.0,0.0
18,74.0,41,15,0.0,0.0
19,60.0,6,60,0.0,0.0
20,69.0,13,40,0.0,0.0
21,72.0,41,15,0.0,0.0
22,70.0,19,150,0.0,0.0
23,62.0,19,40,0.0,0.0
24,65.0,41,15,0.0,0.0
25,64.0,19,40,0.0,0.0
26,67.0,41,15,0.0,0.0
27,61.0,13,240,0.0,0.0
28,70.0,41,15,0.0,0.0
29,69.0,19,40,0.0,0.0
30,67.0,41,15,0.0,0.0
31,76.0,19,40,0.0,0.0
32,67.0,41,15,0.0,0.0
33,66.0,6,40,0.0,0.0
34,64.0,41,15,0.0,0.0
35,62.0,27,90,0.0,0.0
36,50.0,8,450,0.0,0.0
37,66.0,19,40,0.0,0.0
38,67.0,33,15,0.0,0.0
39,69.0,19,90,0.0,0.0
40,60.0,41,15,0.0,0.0
41,58.0,13,120,0.0,0.0
42,62.0,41,15,0.0,0.0
43,67.0,6,40,0.0,0.0
44,70.0,41,15,0.0,0.0
45,72.0,6,150,0.0,0.0
46,57.0,13,180,0.0,0.0
47,67.0,41,15,0.0,0.0
48,66.0,19,40,0.0,0.0
49,64.0,41,15,0.0,0.0
50,66.0,13,120,0.0,0.0
51,74.0,33,15,0.0,0.0
52,69.0,6,40,0.0,0.0
53,62.0,14,150,0.0,0.0
54,72.0,0,15,0.0,0.0
55,51.0,41,15,0.0,0.0
56,67.0,0,120,0.0,0.0
57,71.0,19,40,0.0,0.0
58,53.0,13,120,0.0,0.0
59,72.0,33,15,0.0,0.0
60,74.0,13,90,0.0,0.0
61,59.0,41,15,0.0,0.0
62,51.0,7,120,0.0,0.0
63,55.0,6,60,0.0,0.0
64,67.0,41,15,0.0,0.0
65,63.0,6,60,0.0,0.0
66,72.0,6,40,0.0,0.0
67,75.0,41,15,0.0,0.0
68,77.0,13,150,0.0,0.0
69,50.0,7,120,0.0,0.0
70,56.0,6,60,0.0,0.0
71,72.0,41,15,0.0,0.0
72,53.0,6,60,0.0,0.0
73,71.0,6,40,0.0,0.0
74,69.0,41,15,0.0,0.0
75,71.0,7,120,0.0,0.0
76,55.0,6,60,0.0,0.0
77,79.0,41,15,0.0,0.0
78,43.0,6,60,0.0,0.0
79,74.0,6,40,0.0,0.0
80,77.0,60,15,0.0,0.0
81,48.0,13,480,0.0,0.0
82,75.0,0,120,0.0,0.0
83,72.0,41,15,0.0,0.0
84,67.0,6,40,0.0,0.0
85,70.0,60,15,0.0,0.0
86,68.0,19,150,0.0,0.0
87,63.0,41,15,0.0,0.0
88,62.0,19,40,0.0,0.0
89,65.0,41,15,0.0,0.0
90,59.0,0,240,0.0,0.0
91,68.0,41,15,0.0,0.0
92,67.0,19,40,0.0,0.0
93,65.0,60,15,0.0,0.0
94,74.0,52,120,0.0,0.0
95,65.0,41,15,0.0,0.0
96,63.0,6,40,0.0,0.0
97,62.0,2,15,0.0,0.0
98,63.0,6,60,0.0,0.0
99,60.0,13,150,0.0,0.0
100,79.0,2,15,0.0,0.0
101,71.0,0,60,0.0,0.0
102,74.0,13,40,0.0,0.0
103,65.0,6,60,0.0,0.0
104,77.0,41,15,0.0,0.0
105,67.0,6,60,0.0,0.0
106,75.0,13,150,0.0,0.0
107,58.0,41,15,0.0,0.0
108,57.0,19,40,0.0,0.0
109,66.0,0,40,0.0,0.0
110,60.0,41,15,0.0,0.0
111,67.0,0,15,0.0,0.0
112,69.0,6,60,0.0,0.0
113,54.0,13,240,0.0,0.0
114,75.0,41,15,0.0,0.0
115,74.0,19,40,0.0,0.0
116,57.0,13,120,0.0,0.0
117,72.0,41,15,0.0,0.0
118,81.0,13,150,0.0,0.0
119,72.0,41,15,0.0,0.0
120,62.0,6,120,0.0,0.0
121,70.0,6,40,0.0,0.0
122,69.0,41,15,0.0,0.0
123,70.0,7,240,0.0,0.0
124,55.0,19,270,0.0,0.0
125,79.0,41,15,0.0,0.0
126,67.0,13,90,0.0,0.0
127,74.0,19,40,0.0,0.0
128,77.0,41,15,0.0,0.0
129,75.0,6,60,0.0,0.0
130,67.0,41,15,0.0,0.0
131,79.0,6,60,0.0,0.0
132,62.0,6,40,0.0,0.0
133,65.0,41,15,0.0,0.0
134,69.0,13,270,0.0,0.0
135,64.0,0,120,0.0,0.0
136,73.0,13,120,0.0,0.0
137,57.0,41,15,0.0,0.0
138,52.0,6,40,0.0,0.0
139,55.0,41,15,0.0,0.0
140,65.0,6,180,0.0,0.0
141,53.0,19,40,0.0,0.0
142,74.0,13,390,0.0,0.0
143,50.0,41,15,0.0,0.0
144,45.0,19,40,0.0,0.0
145,48.0,41,15,0.0,0.0
146,46.0,13,120,0.0,0.0
147,64.0,41,15,0.0,0.0
148,65.0,6,40,0.0,0.0
149,62.0,60,15,0.0,0.0
150,68.0,8,90,0.0,0.0
151,47.0,13,120,0.0,0.0
152,49.0,33,15,0.0,0.0
153,50.0,6,40,0.0,0.0
154,68.0,0,15,0.0,0.0
155,52.0,41,15,0.0,0.0
156,69.0,0,60,0.0,0.0
157,53.0,6,60,0.0,0.0
158,45.0,7,240,0.0,0.0
159,74.0,41,15,0.0,0.0
160,76.0,13,40,0.0,0.0
161,70.0,0,90,0.0,0.0
162,55.0,6,60,0.0,0.0
163,79.0,41,15,0.0,0.0
164,57.0,6,60,0.0,0.0
165,73.0,13,40,0.0,0.0
166,74.0,0,15,0.0,0.0
167,69.0,41,15,0.0,0.0
168,76.0,13,90,0.0,0.0
169,64.0,6,40,0.0,0.0
170,49.0,6,60,0.0,0.0
171,67.0,41,15,0.0,0.0
172,65.0,13,120,0.0,0.0
173,50.0,6,60,0.0,0.0
174,74.0,41,15,0.0,0.0
175,69.0,6,40,0.0,0.0
176,53.0,19,90,0.0,0.0
177,72.0,41,15,0.0,0.0
178,70.0,13,150,0.0,0.0
179,57.0,0,15,0.0,0.0
180,65.0,41,15,0.0,0.0
181,64.0,19,40,0.0,0.0
182,55.0,0,40,0.0,0.0
183,53.0,0,15,0.0,0.0
184,67.0,41,15,0.0,0.0
185,61.0,0,240,0.0,0.0
186,52.0,6,60,0.0,0.0
187,70.0,41,15,0.0,0.0
188,53.0,6,60,0.0,0.0
189,69.0,13,40,0.0,0.0
190,67.0,41,15,0.0,0.0
191,55.0,6,60,0.0,0.0
192,76.0,13,40,0.0,0.0
193,67.0,41,15,0.0,0.0
194,58.0,6,60,0.0,0.0
195,66.0,6,40,0.0,0.0
196,64.0,41,15,0.0,0.0
197,62.0,13,120,0.0,0.0
198,66.0,19,40,0.0,0.0
199,48.0,0,120,0.0,0.0
200,57.0,14,90,0.0,0.0
201,67.0,33,15,0.0,0.0
202,69.0,13,90,0.0,0.0
203,54.0,41,15,0.0,0.0
204,46.0,7,120,0.0,0.0
205,50.0,6,60,0.0,0.0
206,62.0,41,15,0.0,0.0
207,58.0,6,60,0.0,0.0
208,67.0,6,40,0.0,0.0
209,70.0,41,15,0.0,0.0
210,72.0,13,150,0.0,0.0
211,45.0,7,120,0.0,0.0
212,51.0,6,60,0.0,0.0
213,67.0,41,15,0.0,0.0
214,66.0,6,40,0.0,0.0
215,48.0,6,60,0.0,0.0
216,64.0,41,15,0.0,0.0
217,66.0,7,120,0.0,0.0
218,50.0,6,60,0.0,0.0
219,74.0,41,15,0.0,0.0
220,69.0,6,40,0.0,0.0
221,38.0,6,60,0.0,0.0
222,72.0,54,15,0.0,0.0
223,43.0,6,60,0.0,0.0
224,70.0,13,150,0.0,0.0
225,67.0,41,15,0.0,0.0
226,62.0,19,40,0.0,0.0
227,46.0,0,40,0.0,0.0
228,50.0,41,15,0.0,0.0
229,65.0,0,15,0.0,0.0
230,55.0,19,150,0.0,0.0
231,63.0,6,60,0.0,0.0
232,70.0,41,15,0.0,0.0
233,58.0,6,60,0.0,0.0
234,75.0,13,40,0.0,0.0
235,79.0,41,15,0.0,0.0
236,60.0,0,40,0.0,0.0
237,68.0,19,270,0.0,0.0
238,53.0,41,15,0.0,0.0
239,62.0,0,15,0.0,0.0
240,63.0,19,40,0.0,0.0
241,48.0,0,40,0.0,0.0
242,51.0,0,15,0.0,0.0
243,60.0,41,15,0.0,0.0
244,50.0,19,40,0.0,0.0
245,65.0,8,90,0.0,0.0
246,46.0,33,15,0.0,0.0
247,41.0,19,40,0.0,0.0
248,65.0,0,15,0.0,0.0
249,44.0,41,15,0.0,0.0
250,58.0,13,150,0.0,0.0
251,43.0,7,240,0.0,0.0
252,62.0,41,15,0.0,0.0
253,65.0,13,40,0.0,0.0
254,46.0,6,60,0.0,0.0
255,68.0,41,15,0.0,0.0
256,67.0,14,90,0.0,0.0
257,51.0,6,60,0.0,0.0
258,58.0,33,15,0.0,0.0
259,63.0,19,90,0.0,0.0
260,55.0,6,60,0.0,0.0
261,67.0,41,15,0.0,0.0
262,45.0,13,120,0.0,0.0
263,65.0,19,150,0.0,0.0
264,48.0,0,120,0.0,0.0
265,63.0,41,15,0.0,0.0
266,62.0,6,40,0.0,0.0
267,60.0,41,15,0.0,0.0
268,47.0,13,120,0.0,0.0
269,55.0,39,120,0.0,0.0
270,65.0,41,15,0.0,0.0
271,67.0,6,40,0.0,0.0
272,62.0,2,15,0.0,0.0
273,48.0,13,180,0.0,0.0
274,63.0,6,150,0.0,0.0
275,59.0,41,15,0.0,0.0
276,60.0,19,40,0.0,0.0
277,55.0,41,15,0.0,0.0
278,51.0,0,40,0.0,0.0
279,75.0,41,15,0.0,0.0
280,55.0,0,15,0.0,0.0
281,69.0,0,40,0.0,0.0
282,48.0,19,40,0.0,0.0
283,72.0,0,15,0.0,0.0
284,51.0,41,15,0.0,0.0
285,66.0,19,40,0.0,0.0
286,50.0,0,40,0.0,0.0
287,62.0,0,15,0.0,0.0
288,54.0,33,15,0.0,0.0
289,57.0,19,90,0.0,0.0
290,66.0,19,40,0.0,0.0
291,48.0,0,15,0.0,0.0
292,69.0,41,15,0.0,0.0
293,74.0,19,270,0.0,0.0
294,46.0,19,150,0.0,0.0
295,54.0,0,15,0.0,0.0
296,69.0,41,15,0.0,0.0
297,70.0,0,40,0.0,0.0
298,55.0,19,40,0.0,0.0
299,57.0,41,15,0.0,0.0
300,66.0,0,15,0.0,0.0
301,67.0,13,240,0.0,0.0
302,58.0,0,150,0.0,0.0
303,46.0,41,15,0.0,0.0
304,48.0,19,40,0.0,0.0
305,50.0,41,15,0.0,0.0
306,51.0,13,240,0.0,0.0
307,79.0,41,15,0.0,0.0
308,58.0,0,15,0.0,0.0
309,57.0,0,40,0.0,0.0
310,72.0,6,40,0.0,0.0
311,58.0,28,15,0.0,0.0
312,75.0,0,15,0.0,0.0
313,69.0,0,40,0.0,0.0
314,60.0,19,40,0.0,0.0
315,65.0,13,30,0.0,0.0
316,57.0,0,15,0.0,0.0
317,65.0,41,15,0.0,0.0
318,53.0,6,40,0.0,0.0
319,69.0,0,40,0.0,0.0
320,57.0,0,15,0.0,0.0
321,72.0,60,15,0.0,0.0
322,77.0,58,120,0.0,0.0
323,62.0,19,270,0.0,0.0
324,50.0,41,15,0.0,0.0
325,65.0,0,15,0.0,0.0
326,51.0,19,40,0.0,0.0
327,67.0,0,40,0.0,0.0
328,69.0,0,15,0.0,0.0
329,53.0,2,15,0.0,0.0
330,70.0,19,270,0.0,0.0
331,55.0,13,240,0.0,0.0
332,82.0,41,15,0.0,0.0
333,79.0,19,40,0.0,0.0
334,74.0,41,15,0.0,0.0
335,76.0,8,90,0.0,0.0
336,61.0,33,15,0.0,0.0
337,60.0,6,40,0.0,0.0
338,58.0,41,15,0.0,0.0
339,76.0,0,15,0.0,0.0
340,77.0,19,150,0.0,0.0
341,53.0,19,270,0.0,0.0
342,60.0,0,150,0.0,0.0
343,70.0,41,15,0.0,0.0
344,68.0,19,40,0.0,0.0
345,67.0,41,15,0.0,0.0
346,68.0,13,120,0.0,0.0
347,60.0,0,15,0.0,0.0
348,75.0,41,15,0.0,0.0
349,65.0,0,40,0.0,0.0
350,74.0,6,40,0.0,0.0
351,63.0,41,15,0.0,0.0
352,77.0,0,15,0.0,0.0
353,71.0,13,120,0.0,0.0
354,62.0,0,120,0.0,0.0
355,67.0,6,300,0.0,0.0
356,55.0,41,15,0.0,0.0
357,50.0,6,40,0.0,0.0
358,53.0,41,15,0.0,0.0
359,51.0,19,40,0.0,0.0
360,72.0,13,150,0.0,0.0
361,63.0,0,180,0.0,0.0
362,48.0,41,15,0.0,0.0
363,43.0,19,40,0.0,0.0
364,46.0,41,15,0.0,0.0
365,45.0,13,240,0.0,0.0
366,74.0,41,15,0.0,0.0
367,55.0,6,60,0.0,0.0
368,75.0,13,40,0.0,0.0
369,70.0,54,15,0.0,0.0
370,54.0,6,60,0.0,0.0
371,72.0,52,120,0.0,0.0
372,67.0,41,15,0.0,0.0
373,57.0,6,120,0.0,0.0
374,66.0,6,40,0.0,0.0
375,69.0,2,15,0.0,0.0
376,46.0,13,240,0.0,0.0
377,62.0,19,150,0.0,0.0
378,72.0,41,15,0.0,0.0
379,55.0,19,40,0.0,0.0
380,74.0,0,40,0.0,0.0
381,69.0,0,15,0.0,0.0
382,54.0,41,15,0.0,0.0
383,55.0,6,180,0.0,0.0
384,70.0,13,150,0.0,0.0
385,66.0,41,15,0.0,0.0
386,67.0,6,40,0.0,0.0
387,62.0,41,15,0.0,0.0
388,63.0,7,240,0.0,0.0
389,48.0,19,270,0.0,0.0
390,75.0,41,15,0.0,0.0
391,60.0,13,90,0.0,0.0
392,67.0,19,40,0.0,0.0
393,70.0,41,15,0.0,0.0
394,68.0,6,60,0.0,0.0
395,60.0,41,15,0.0,0.0
396,72.0,6,60,0.0,0.0
397,55.0,6,40,0.0,0.0
398,58.0,41,15,0.0,0.0
399,57.0,13,120,0.0,0.0
400,62.0,13,360,0.0,0.0
401,66.0,0,120,0.0,0.0
402,50.0,41,15,0.0,0.0
403,45.0,6,40,0.0,0.0
404,48.0,41,15,0.0,0.0
405,46.0,19,40,0.0,0.0
406,58.0,13,120,0.0,0.0
407,67.0,13,150,0.0,0.0
408,43.0,41,15,0.0,0.0
409,38.0,6,40,0.0,0.0
410,41.0,41,15,0.0,0.0
411,39.0,6,60,0.0,0.0
412,66.0,41,15,0.0,0.0
413,67.0,6,40,0.0,0.0
414,51.0,0,40,0.0,0.0
415,70.0,13,60,0.0,0.0
416,50.0,41,15,0.0,0.0
417,51.0,6,60,0.0,0.0
418,61.0,7,120,0.0,0.0
419,54.0,41,15,0.0,0.0
420,70.0,0,15,0.0,0.0
421,52.0,6,60,0.0,0.0
422,69.0,0,40,0.0,0.0
423,55.0,6,40,0.0,0.0
424,67.0,41,15,0.0,0.0
425,57.0,0,15,0.0,0.0
426,58.0,0,150,0.0,0.0
427,50.0,0,480,0.0,0.0
428,62.0,19,40,0.0,0.0
429,66.0,27,90,0.0,0.0
430,61.0,33,15,0.0,0.0
431,62.0,19,90,0.0,0.0
432,66.0,41,15,0.0,0.0
433,67.0,13,150,0.0,0.0
434,58.0,41,15,0.0,0.0
435,61.0,0,15,0.0,0.0
436,57.0,19,40,0.0,0.0
437,62.0,6,120,0.0,0.0
438,55.0,41,15,0.0,0.0
439,57.0,54,240,0.0,0.0
440,70.0,41,15,0.0,0.0
441,60.0,19,90,0.0,0.0
442,69.0,19,40,0.0,0.0
443,72.0,41,15,0.0,0.0
444,66.0,0,120,0.0,0.0
445,63.0,41,15,0.0,0.0
446,62.0,6,40,0.0,0.0
447,60.0,19,60,0.0,0.0
448,55.0,0,210,0.0,0.0
449,67.0,27,90,0.0,0.0
450,57.0,33,15,0.0,0.0
451,59.0,19,90,0.0,0.0
452,65.0,41,15,0.0,0.0
453,63.0,27,90,0.0,0.0
454,59.0,33,15,0.0,0.0
455,60.0,13,90,0.0,0.0
456,54.0,0,15,0.0,0.0
457,63.0,41,15,0.0,0.0
458,55.0,20,90,0.0,0.0
459,62.0,6,60,0.0,0.0
460,60.0,33,15,0.0,0.0
461,59.0,6,60,0.0,0.0
462,67.0,1,15,0.0,0.0
463,53.0,1,15,0.0,0.0
464,51.0,40,15,0.0,0.0
465,77.0,27,90,0.0,0.0
466,50.0,19,40,0.0,0.0
467,72.0,33,15,0.0,0.0
468,43.0,0,15,0.0,0.0
469,55.0,0,90,0.0,0.0
470,71.0,19,90,0.0,0.0
471,74.0,41,15,0.0,0.0
472,75.0,8,90,0.0,0.0
473,53.0,0,15,0.0,0.0
474,67.0,33,15,0.0,0.0
475,51.0,19,40,0.0,0.0
476,72.0,12,90,0.0,0.0
477,55.0,0,15,0.0,0.0
478,74.0,41,15,0.0,0.0
479,48.0,0,40,0.0,0.0
480,75.0,0,40,0.0,0.0
481,72.0,1,15,0.0,0.0
482,51.0,7,15,0.0,0.0
483,51.0,0,15,0.0,0.0
484,50.0,40,15,0.0,0.0
485,51.0,6,60,0.0,0.0
486,79.0,13,40,0.0,0.0
487,78.0,41,15,0.0,0.0
488,79.0,0,240,0.0,0.0
489,50.0,0,240,0.0,0.0
490,72.0,41,15,0.0,0.0
491,74.0,19,40,0.0,0.0
492,69.0,107,15,0.0,0.0
493,71.0,0,120,0.0,0.0
