,note,step,duration,channel,velocity
0,72.0,0,79,0.0,64.0
1,65.0,120,39,0.0,64.0
2,64.0,24,31,0.0,64.0
3,65.0,16,71,0.0,64.0
4,65.0,80,111,0.0,64.0
5,65.0,120,87,0.0,64.0
6,73.0,120,60,0.0,64.0
7,70.0,60,60,0.0,64.0
8,64.0,60,120,0.0,64.0
9,64.0,120,120,0.0,64.0
10,64.0,120,60,0.0,64.0
11,65.0,60,60,0.0,64.0
12,67.0,60,60,0.0,64.0
13,68.0,60,60,0.0,64.0
14,70.0,60,60,0.0,64.0
15,68.0,60,60,0.0,64.0
16,67.0,60,60,0.0,64.0
17,68.0,60,60,0.0,64.0
18,70.0,60,60,0.0,64.0
19,73.0,60,60,0.0,64.0
20,72.0,60,60,0.0,64.0
21,70.0,60,60,0.0,64.0
22,68.0,60,60,0.0,64.0
23,67.0,60,60,0.0,64.0
24,65.0,60,60,0.0,64.0
25,67.0,60,60,0.0,64.0
26,68.0,60,60,0.0,64.0
27,70.0,60,60,0.0,64.0
28,72.0,0,60,0.0,64.0
29,65.0,60,120,0.0,64.0
30,74.0,60,60,0.0,64.0
31,75.0,0,60,0.0,64.0
32,74.0,60,60,0.0,64.0
33,60.0,60,120,0.0,64.0
34,72.0,60,60,0.0,64.0
35,74.0,60,60,0.0,64.0
36,60.0,0,120,0.0,64.0
37,75.0,60,60,0.0,64.0
38,79.0,60,60,0.0,64.0
39,60.0,0,120,0.0,64.0
40,68.0,0,60,0.0,64.0
41,77.0,60,60,0.0,64.0
42,75.0,60,60,0.0,64.0
43,65.0,0,60,0.0,64.0
44,74.0,60,60,0.0,64.0
45,59.0,0,120,0.0,64.0
46,72.0,60,60,0.0,64.0
47,71.0,60,60,0.0,64.0
48,59.0,0,120,0.0,64.0
49,69.0,60,60,0.0,64.0
50,59.0,0,60,0.0,64.0
51,67.0,60,60,0.0,64.0
52,69.0,0,60,0.0,64.0
53,60.0,60,60,0.0,64.0
54,62.0,0,60,0.0,64.0
55,71.0,60,60,0.0,64.0
56,63.0,60,60,0.0,64.0
57,72.0,0,60,0.0,64.0
58,65.0,60,60,0.0,64.0
59,74.0,0,120,0.0,64.0
60,63.0,60,60,0.0,64.0
61,62.0,0,60,0.0,64.0
62,63.0,60,60,0.0,64.0
63,77.0,60,120,0.0,64.0
64,65.0,60,60,0.0,64.0
65,80.0,0,120,0.0,64.0
66,68.0,60,60,0.0,64.0
67,67.0,0,60,0.0,64.0
68,65.0,60,60,0.0,64.0
69,71.0,60,120,0.0,64.0
70,63.0,60,60,0.0,64.0
71,62.0,60,60,0.0,64.0
72,72.0,0,120,0.0,64.0
73,60.0,0,60,0.0,64.0
74,62.0,60,60,0.0,64.0
75,75.0,60,120,0.0,64.0
76,63.0,0,60,0.0,64.0
77,65.0,60,60,0.0,64.0
78,79.0,60,120,0.0,64.0
79,67.0,0,60,0.0,64.0
80,84.0,60,120,0.0,64.0
81,69.0,60,60,0.0,64.0
82,70.0,60,60,0.0,64.0
83,68.0,60,60,0.0,64.0
84,73.0,0,120,0.0,64.0
85,67.0,0,60,0.0,64.0
86,65.0,60,60,0.0,64.0
87,84.0,60,120,0.0,64.0
88,67.0,0,60,0.0,64.0
89,82.0,60,120,0.0,64.0
90,70.0,60,60,0.0,64.0
91,68.0,0,60,0.0,64.0
92,67.0,60,60,0.0,64.0
93,73.0,60,120,0.0,64.0
94,68.0,60,60,0.0,64.0
95,70.0,60,60,0.0,64.0
96,72.0,0,120,0.0,64.0
97,72.0,0,60,0.0,64.0
98,70.0,60,60,0.0,64.0
99,75.0,60,120,0.0,64.0
100,68.0,0,60,0.0,64.0
101,67.0,60,60,0.0,64.0
102,80.0,60,120,0.0,64.0
103,65.0,60,60,0.0,64.0
104,63.0,60,60,0.0,64.0
105,72.0,0,120,0.0,64.0
106,62.0,0,60,0.0,64.0
107,65.0,60,60,0.0,64.0
108,70.0,60,120,0.0,64.0
109,64.0,0,60,0.0,64.0
110,62.0,60,60,0.0,64.0
111,80.0,60,120,0.0,64.0
112,64.0,60,60,0.0,64.0
113,67.0,60,60,0.0,64.0
114,79.0,0,120,0.0,64.0
115,65.0,0,60,0.0,64.0
116,70.0,0,120,0.0,64.0
117,60.0,60,120,0.0,64.0
118,64.0,60,60,0.0,64.0
119,68.0,0,60,0.0,64.0
120,53.0,60,103,0.0,64.0
121,65.0,0,120,0.0,64.0
122,72.0,60,60,0.0,64.0
123,77.0,0,60,0.0,64.0
124,53.0,60,103,0.0,64.0
125,75.0,60,60,0.0,64.0
126,72.0,60,60,0.0,64.0
127,53.0,0,120,0.0,64.0
128,61.0,0,60,0.0,64.0
129,70.0,60,60,0.0,64.0
130,58.0,0,60,0.0,64.0
131,68.0,60,60,0.0,64.0
132,73.0,60,300,0.0,64.0
133,52.0,0,103,0.0,64.0
134,72.0,60,60,0.0,64.0
135,70.0,0,60,0.0,64.0
136,52.0,60,103,0.0,64.0
137,68.0,60,60,0.0,64.0
138,67.0,60,240,0.0,64.0
139,52.0,60,60,0.0,64.0
140,53.0,0,60,0.0,64.0
141,65.0,60,60,0.0,64.0
142,55.0,0,60,0.0,64.0
143,64.0,60,60,0.0,64.0
144,56.0,0,60,0.0,64.0
145,62.0,60,60,0.0,64.0
146,58.0,60,60,0.0,64.0
147,56.0,60,60,0.0,64.0
148,67.0,0,360,0.0,64.0
149,55.0,0,60,0.0,64.0
150,56.0,60,60,0.0,64.0
151,73.0,60,120,0.0,64.0
152,58.0,60,60,0.0,64.0
153,64.0,0,360,0.0,64.0
154,61.0,60,60,0.0,64.0
155,60.0,0,60,0.0,64.0
156,58.0,60,60,0.0,64.0
157,64.0,60,120,0.0,64.0
158,56.0,0,60,0.0,64.0
159,55.0,60,60,0.0,64.0
160,72.0,0,360,0.0,64.0
161,53.0,0,60,0.0,64.0
162,73.0,60,120,0.0,64.0
163,55.0,60,60,0.0,64.0
164,56.0,60,60,0.0,64.0
165,65.0,60,300,0.0,64.0
166,60.0,0,60,0.0,64.0
167,68.0,60,60,0.0,64.0
168,58.0,60,60,0.0,64.0
169,67.0,0,60,0.0,64.0
170,65.0,0,60,0.0,64.0
171,56.0,60,60,0.0,64.0
172,64.0,0,60,0.0,64.0
173,55.0,60,60,0.0,64.0
174,53.0,0,60,0.0,64.0
175,67.0,60,60,0.0,64.0
176,72.0,0,360,0.0,64.0
177,52.0,0,60,0.0,64.0
178,53.0,60,60,0.0,64.0
179,73.0,0,120,0.0,64.0
180,55.0,0,60,0.0,64.0
181,70.0,60,180,0.0,64.0
182,58.0,60,60,0.0,64.0
183,67.0,0,60,0.0,64.0
184,65.0,60,60,0.0,64.0
185,56.0,0,60,0.0,64.0
186,64.0,60,60,0.0,64.0
187,55.0,0,60,0.0,64.0
188,53.0,0,60,0.0,64.0
189,56.0,60,60,0.0,64.0
190,68.0,60,120,0.0,64.0
191,72.0,60,360,0.0,64.0
192,60.0,0,60,0.0,64.0
193,65.0,60,60,0.0,64.0
194,68.0,0,120,0.0,64.0
195,72.0,60,120,0.0,64.0
196,60.0,0,60,0.0,64.0
197,56.0,60,60,0.0,64.0
198,72.0,0,120,0.0,64.0
199,53.0,0,60,0.0,64.0
200,56.0,60,60,0.0,64.0
201,80.0,60,120,0.0,64.0
202,70.0,0,60,0.0,64.0
203,72.0,60,60,0.0,64.0
204,49.0,60,120,0.0,64.0
205,73.0,60,60,0.0,64.0
206,72.0,60,60,0.0,64.0
207,53.0,0,120,0.0,64.0
208,70.0,0,60,0.0,64.0
209,49.0,60,120,0.0,64.0
210,72.0,60,60,0.0,64.0
211,73.0,0,60,0.0,64.0
212,72.0,60,60,0.0,64.0
213,46.0,60,120,0.0,64.0
214,68.0,60,720,0.0,64.0
215,51.0,0,60,0.0,64.0
216,67.0,0,120,0.0,64.0
217,70.0,60,120,0.0,64.0
218,55.0,60,60,0.0,64.0
219,58.0,0,60,0.0,64.0
220,63.0,60,60,0.0,64.0
221,67.0,0,120,0.0,64.0
222,70.0,60,120,0.0,64.0
223,58.0,0,60,0.0,64.0
224,55.0,60,60,0.0,64.0
225,70.0,0,120,0.0,64.0
226,51.0,0,60,0.0,64.0
227,55.0,60,60,0.0,64.0
228,79.0,60,120,0.0,64.0
229,68.0,60,60,0.0,64.0
230,70.0,60,60,0.0,64.0
231,48.0,0,120,0.0,64.0
232,72.0,0,60,0.0,64.0
233,70.0,60,60,0.0,64.0
234,51.0,60,120,0.0,64.0
235,68.0,60,60,0.0,64.0
236,70.0,60,60,0.0,64.0
237,48.0,0,120,0.0,64.0
238,72.0,0,60,0.0,64.0
239,67.0,60,720,0.0,64.0
240,44.0,60,120,0.0,64.0
241,70.0,60,60,0.0,64.0
242,49.0,60,60,0.0,64.0
243,51.0,60,60,0.0,64.0
244,65.0,0,120,0.0,64.0
245,68.0,0,120,0.0,64.0
246,53.0,0,60,0.0,64.0
247,68.0,0,0,0.0,64.0
248,65.0,0,120,0.0,64.0
249,51.0,60,60,0.0,64.0
250,49.0,60,60,0.0,64.0
251,48.0,60,60,0.0,64.0
252,46.0,0,60,0.0,64.0
253,65.0,0,240,0.0,64.0
254,44.0,60,60,0.0,64.0
255,73.0,60,180,0.0,64.0
256,63.0,60,120,0.0,64.0
257,65.0,60,60,0.0,64.0
258,43.0,0,120,0.0,64.0
259,67.0,60,60,0.0,64.0
260,68.0,60,60,0.0,64.0
261,46.0,0,120,0.0,64.0
262,70.0,60,60,0.0,64.0
263,72.0,60,60,0.0,64.0
264,43.0,0,120,0.0,64.0
265,73.0,60,60,0.0,64.0
266,70.0,60,60,0.0,64.0
267,39.0,0,120,0.0,64.0
268,72.0,60,60,0.0,64.0
269,44.0,0,120,0.0,64.0
270,73.0,60,60,0.0,64.0
271,70.0,60,60,0.0,64.0
272,72.0,60,60,0.0,64.0
273,43.0,0,120,0.0,64.0
274,73.0,0,60,0.0,64.0
275,72.0,60,60,0.0,64.0
276,41.0,60,120,0.0,64.0
277,70.0,0,60,0.0,64.0
278,68.0,60,60,0.0,64.0
279,50.0,60,120,0.0,64.0
280,67.0,0,60,0.0,64.0
281,68.0,60,60,0.0,64.0
282,51.0,60,120,0.0,64.0
283,70.0,60,60,0.0,64.0
284,67.0,60,60,0.0,64.0
285,39.0,0,120,0.0,64.0
286,61.0,60,60,0.0,64.0
287,63.0,60,120,0.0,64.0
288,60.0,60,60,0.0,64.0
289,58.0,60,60,0.0,64.0
290,75.0,0,120,0.0,64.0
291,68.0,60,47,0.0,64.0
292,60.0,0,60,0.0,64.0
293,67.0,24,47,0.0,64.0
294,68.0,24,71,0.0,64.0
295,63.0,12,60,0.0,64.0
296,60.0,0,60,0.0,64.0
297,56.0,60,60,0.0,64.0
298,68.0,60,120,0.0,64.0
299,53.0,0,60,0.0,64.0
300,63.0,60,60,0.0,64.0
301,68.0,60,120,0.0,64.0
302,61.0,60,60,0.0,64.0
303,77.0,0,60,0.0,64.0
304,73.0,60,60,0.0,64.0
305,60.0,0,60,0.0,64.0
306,58.0,0,60,0.0,64.0
307,67.0,0,0,0.0,64.0
308,61.0,60,60,0.0,64.0
309,58.0,60,60,0.0,64.0
310,55.0,60,60,0.0,64.0
311,51.0,0,60,0.0,64.0
312,67.0,60,60,0.0,64.0
313,68.0,60,60,0.0,64.0
314,60.0,0,60,0.0,64.0
315,58.0,0,60,0.0,64.0
316,70.0,60,60,0.0,64.0
317,72.0,60,60,0.0,64.0
318,56.0,0,60,0.0,64.0
319,55.0,0,60,0.0,64.0
320,73.0,60,60,0.0,64.0
321,72.0,60,60,0.0,64.0
322,56.0,0,60,0.0,64.0
323,55.0,60,60,0.0,64.0
324,70.0,0,60,0.0,64.0
325,53.0,0,60,0.0,64.0
326,72.0,60,60,0.0,64.0
327,73.0,60,60,0.0,64.0
328,51.0,0,60,0.0,64.0
329,49.0,0,60,0.0,64.0
330,77.0,60,60,0.0,64.0
331,48.0,0,60,0.0,64.0
332,75.0,60,60,0.0,64.0
333,73.0,0,60,0.0,64.0
334,46.0,60,60,0.0,64.0
335,72.0,60,60,0.0,64.0
336,70.0,60,60,0.0,64.0
337,44.0,0,120,0.0,64.0
338,68.0,0,60,0.0,64.0
339,67.0,60,60,0.0,64.0
340,56.0,60,120,0.0,64.0
341,68.0,60,60,0.0,64.0
342,55.0,0,120,0.0,64.0
343,70.0,60,60,0.0,64.0
344,72.0,60,60,0.0,64.0
345,74.0,60,60,0.0,64.0
346,68.0,0,120,0.0,64.0
347,53.0,0,120,0.0,64.0
348,60.0,60,60,0.0,64.0
349,58.0,60,60,0.0,64.0
350,63.0,0,120,0.0,64.0
351,60.0,0,60,0.0,64.0
352,63.0,60,120,0.0,64.0
353,61.0,60,60,0.0,64.0
354,60.0,0,60,0.0,64.0
355,58.0,60,60,0.0,64.0
356,63.0,60,120,0.0,64.0
357,75.0,0,360,0.0,64.0
358,56.0,0,60,0.0,64.0
359,72.0,0,60,0.0,64.0
360,75.0,60,120,0.0,64.0
361,68.0,0,60,0.0,64.0
362,55.0,60,60,0.0,64.0
363,80.0,0,60,0.0,64.0
364,79.0,60,60,0.0,64.0
365,62.0,0,120,0.0,64.0
366,80.0,60,60,0.0,64.0
367,62.0,0,120,0.0,64.0
368,82.0,60,60,0.0,64.0
369,53.0,60,240,0.0,64.0
370,62.0,0,60,0.0,64.0
371,80.0,0,60,0.0,64.0
372,63.0,60,60,0.0,64.0
373,79.0,0,60,0.0,64.0
374,65.0,60,60,0.0,64.0
375,77.0,0,60,0.0,64.0
376,75.0,0,60,0.0,64.0
377,67.0,60,60,0.0,64.0
378,68.0,0,60,0.0,64.0
379,67.0,60,60,0.0,64.0
380,58.0,60,360,0.0,64.0
381,65.0,60,60,0.0,64.0
382,56.0,0,60,0.0,64.0
383,55.0,0,60,0.0,64.0
384,67.0,60,60,0.0,64.0
385,53.0,0,60,0.0,64.0
386,68.0,60,60,0.0,64.0
387,51.0,0,60,0.0,64.0
388,72.0,60,60,0.0,64.0
389,50.0,0,60,0.0,64.0
390,70.0,60,60,0.0,64.0
391,68.0,0,60,0.0,64.0
392,48.0,60,60,0.0,64.0
393,74.0,60,540,0.0,64.0
394,72.0,60,60,0.0,64.0
395,47.0,0,120,0.0,64.0
396,71.0,0,60,0.0,64.0
397,72.0,60,60,0.0,64.0
398,50.0,60,120,0.0,64.0
399,74.0,0,60,0.0,64.0
400,77.0,60,60,0.0,64.0
401,47.0,60,120,0.0,64.0
402,75.0,0,60,0.0,64.0
403,74.0,60,60,0.0,64.0
404,43.0,60,120,0.0,64.0
405,48.0,60,60,0.0,64.0
406,51.0,60,60,0.0,64.0
407,75.0,0,120,0.0,64.0
408,67.0,60,600,0.0,64.0
409,55.0,0,60,0.0,64.0
410,75.0,60,120,0.0,64.0
411,60.0,60,60,0.0,64.0
412,67.0,0,0,0.0,64.0
413,55.0,0,60,0.0,64.0
414,51.0,60,60,0.0,64.0
415,75.0,60,120,0.0,64.0
416,48.0,0,60,0.0,64.0
417,51.0,60,60,0.0,64.0
418,65.0,60,60,0.0,64.0
419,44.0,0,120,0.0,64.0
420,67.0,60,60,0.0,64.0
421,68.0,0,60,0.0,64.0
422,67.0,60,60,0.0,64.0
423,48.0,60,120,0.0,64.0
424,65.0,60,60,0.0,64.0
425,44.0,0,120,0.0,64.0
426,67.0,60,60,0.0,64.0
427,68.0,0,60,0.0,64.0
428,41.0,60,120,0.0,64.0
429,67.0,60,60,0.0,64.0
430,75.0,60,600,0.0,64.0
431,46.0,60,60,0.0,64.0
432,50.0,60,60,0.0,64.0
433,65.0,0,0,0.0,64.0
434,74.0,60,0,0.0,64.0
435,53.0,0,60,0.0,64.0
436,58.0,60,60,0.0,64.0
437,53.0,60,60,0.0,64.0
438,74.0,0,120,0.0,64.0
439,50.0,60,60,0.0,64.0
440,65.0,0,120,0.0,64.0
441,46.0,0,60,0.0,64.0
442,50.0,60,60,0.0,64.0
443,63.0,60,60,0.0,64.0
444,43.0,0,120,0.0,64.0
445,65.0,60,60,0.0,64.0
446,67.0,0,60,0.0,64.0
447,46.0,60,120,0.0,64.0
448,65.0,60,60,0.0,64.0
449,63.0,60,60,0.0,64.0
450,65.0,60,60,0.0,64.0
451,43.0,0,120,0.0,64.0
452,67.0,0,60,0.0,64.0
453,74.0,60,600,0.0,64.0
454,39.0,60,120,0.0,64.0
455,65.0,60,60,0.0,64.0
456,44.0,60,60,0.0,64.0
457,46.0,60,60,0.0,64.0
458,63.0,0,120,0.0,64.0
459,72.0,0,120,0.0,64.0
460,48.0,0,60,0.0,64.0
461,46.0,60,60,0.0,64.0
462,63.0,0,120,0.0,64.0
463,72.0,60,120,0.0,64.0
464,44.0,0,60,0.0,64.0
465,43.0,60,60,0.0,64.0
466,63.0,0,120,0.0,64.0
467,72.0,60,120,0.0,64.0
468,41.0,0,60,0.0,64.0
469,39.0,60,60,0.0,64.0
470,77.0,0,120,0.0,64.0
471,71.0,60,60,0.0,64.0
472,72.0,60,60,0.0,64.0
473,38.0,0,120,0.0,64.0
474,68.0,60,300,0.0,64.0
475,68.0,60,60,0.0,64.0
476,48.0,0,120,0.0,64.0
477,67.0,60,60,0.0,64.0
478,65.0,60,60,0.0,64.0
479,47.0,0,120,0.0,64.0
480,63.0,0,60,0.0,64.0
481,62.0,60,60,0.0,64.0
482,74.0,60,360,0.0,64.0
483,43.0,60,120,0.0,64.0
484,48.0,60,120,0.0,64.0
485,67.0,60,60,0.0,64.0
486,63.0,0,180,0.0,64.0
487,63.0,60,60,0.0,64.0
488,44.0,60,120,0.0,64.0
489,72.0,0,180,0.0,64.0
490,41.0,0,120,0.0,64.0
491,62.0,60,120,0.0,64.0
492,72.0,60,120,0.0,64.0
493,71.0,60,60,0.0,64.0
494,43.0,60,120,0.0,64.0
495,65.0,0,180,0.0,64.0
496,65.0,60,60,0.0,64.0
497,64.0,60,60,0.0,64.0
498,62.0,60,60,0.0,64.0
499,36.0,0,240,0.0,64.0
500,64.0,60,60,0.0,64.0
501,72.0,60,360,0.0,64.0
502,72.0,0,60,0.0,64.0
503,70.0,60,60,0.0,64.0
504,60.0,60,120,0.0,64.0
505,67.0,60,240,0.0,64.0
506,67.0,60,60,0.0,64.0
507,53.0,0,120,0.0,64.0
508,65.0,0,60,0.0,64.0
509,64.0,60,60,0.0,64.0
510,53.0,60,120,0.0,64.0
511,68.0,60,300,0.0,64.0
512,68.0,60,60,0.0,64.0
513,53.0,0,120,0.0,64.0
514,70.0,60,60,0.0,64.0
515,61.0,0,60,0.0,64.0
516,58.0,60,60,0.0,64.0
517,65.0,60,240,0.0,64.0
518,73.0,0,120,0.0,64.0
519,73.0,60,60,0.0,64.0
520,52.0,0,120,0.0,64.0
521,72.0,60,60,0.0,64.0
522,52.0,0,120,0.0,64.0
523,70.0,60,60,0.0,64.0
524,52.0,60,60,0.0,64.0
525,53.0,60,60,0.0,64.0
526,67.0,60,360,0.0,64.0
527,55.0,0,60,0.0,64.0
528,56.0,60,60,0.0,64.0
529,76.0,60,120,0.0,64.0
530,58.0,60,60,0.0,64.0
531,56.0,60,60,0.0,64.0
532,73.0,0,120,0.0,64.0
533,55.0,0,60,0.0,64.0
534,56.0,60,60,0.0,64.0
535,70.0,60,120,0.0,64.0
536,58.0,0,60,0.0,64.0
537,79.0,0,600,0.0,64.0
538,61.0,60,60,0.0,64.0
539,60.0,0,60,0.0,64.0
540,76.0,60,120,0.0,64.0
541,58.0,60,60,0.0,64.0
542,56.0,0,60,0.0,64.0
543,67.0,60,300,0.0,64.0
544,55.0,0,60,0.0,64.0
545,70.0,60,60,0.0,64.0
546,77.0,60,120,0.0,64.0
547,68.0,60,60,0.0,64.0
548,53.0,0,60,0.0,64.0
549,67.0,0,60,0.0,64.0
550,55.0,60,60,0.0,64.0
551,65.0,0,60,0.0,64.0
552,56.0,60,60,0.0,64.0
553,67.0,0,60,0.0,64.0
554,58.0,60,60,0.0,64.0
555,68.0,0,60,0.0,64.0
556,60.0,60,60,0.0,64.0
557,70.0,0,60,0.0,64.0
558,61.0,60,60,0.0,64.0
559,63.0,0,60,0.0,64.0
560,61.0,60,60,0.0,64.0
561,72.0,60,120,0.0,64.0
562,60.0,60,60,0.0,64.0
563,75.0,0,120,0.0,64.0
564,61.0,60,60,0.0,64.0
565,63.0,0,60,0.0,64.0
566,66.0,60,60,0.0,64.0
567,65.0,0,60,0.0,64.0
568,63.0,60,60,0.0,64.0
569,81.0,60,120,0.0,64.0
570,61.0,60,60,0.0,64.0
571,78.0,60,360,0.0,64.0
572,82.0,0,120,0.0,64.0
573,60.0,60,60,0.0,64.0
574,58.0,60,60,0.0,64.0
575,60.0,60,60,0.0,64.0
576,75.0,0,120,0.0,64.0
577,69.0,0,120,0.0,64.0
578,61.0,60,60,0.0,64.0
579,63.0,60,60,0.0,64.0
580,73.0,0,120,0.0,64.0
581,70.0,0,120,0.0,64.0
582,65.0,0,60,0.0,64.0
583,67.0,60,60,0.0,64.0
584,73.0,60,120,0.0,64.0
585,68.0,0,60,0.0,64.0
586,72.0,60,120,0.0,64.0
587,82.0,0,240,0.0,64.0
588,70.0,60,60,0.0,64.0
589,68.0,0,60,0.0,64.0
590,84.0,60,60,0.0,64.0
591,67.0,0,60,0.0,64.0
592,82.0,60,60,0.0,64.0
593,65.0,0,60,0.0,64.0
594,80.0,60,60,0.0,64.0
595,63.0,0,60,0.0,64.0
596,79.0,60,60,0.0,64.0
597,77.0,0,60,0.0,64.0
598,61.0,60,60,0.0,64.0
599,60.0,60,60,0.0,64.0
600,76.0,0,60,0.0,64.0
601,61.0,0,60,0.0,64.0
602,63.0,60,60,0.0,64.0
603,61.0,60,60,0.0,64.0
604,60.0,60,60,0.0,64.0
605,68.0,0,120,0.0,64.0
606,58.0,0,60,0.0,64.0
607,56.0,60,60,0.0,64.0
608,73.0,60,120,0.0,64.0
609,55.0,0,60,0.0,64.0
610,53.0,60,60,0.0,64.0
611,72.0,60,120,0.0,64.0
612,55.0,60,60,0.0,64.0
613,77.0,60,600,0.0,64.0
614,70.0,0,120,0.0,64.0
615,56.0,60,60,0.0,64.0
616,55.0,60,60,0.0,64.0
617,82.0,0,60,0.0,64.0
618,53.0,0,60,0.0,64.0
619,80.0,60,60,0.0,64.0
620,52.0,0,60,0.0,64.0
621,79.0,60,60,0.0,64.0
622,50.0,0,60,0.0,64.0
623,77.0,60,60,0.0,64.0
624,48.0,0,60,0.0,64.0
625,76.0,60,60,0.0,64.0
626,47.0,0,60,0.0,64.0
627,74.0,60,60,0.0,64.0
628,76.0,60,60,0.0,64.0
629,48.0,60,0,0.0,64.0
630,77.0,60,60,0.0,64.0
631,76.0,0,60,0.0,64.0
632,55.0,0,60,0.0,64.0
633,56.0,60,60,0.0,64.0
634,74.0,0,60,0.0,64.0
635,72.0,0,60,0.0,64.0
636,58.0,60,71,0.0,64.0
637,48.0,0,120,0.0,64.0
638,70.0,60,60,0.0,64.0
639,55.0,4,71,0.0,64.0
640,68.0,56,60,0.0,64.0
641,67.0,60,60,0.0,64.0
642,60.0,0,120,0.0,64.0
643,68.0,60,60,0.0,64.0
644,48.0,0,120,0.0,64.0
645,53.0,0,120,0.0,64.0
646,65.0,60,60,0.0,64.0
647,68.0,60,60,0.0,64.0
648,53.0,0,0,0.0,64.0
649,48.0,60,0,0.0,64.0
650,72.0,60,60,0.0,64.0
651,77.0,0,60,0.0,64.0
652,72.0,60,60,0.0,64.0
653,61.0,60,60,0.0,64.0
654,70.0,0,60,0.0,64.0
655,68.0,0,60,0.0,64.0
656,58.0,60,60,0.0,64.0
657,70.0,60,60,0.0,64.0
658,48.0,60,0,0.0,64.0
659,52.0,0,0,0.0,64.0
660,67.0,60,60,0.0,64.0
661,70.0,0,60,0.0,64.0
662,76.0,60,60,0.0,64.0
663,52.0,60,60,0.0,64.0
664,79.0,0,60,0.0,64.0
665,53.0,60,60,0.0,64.0
666,77.0,0,60,0.0,64.0
667,48.0,0,120,0.0,64.0
668,55.0,0,60,0.0,64.0
669,76.0,60,60,0.0,64.0
670,56.0,60,60,0.0,64.0
671,74.0,0,60,0.0,64.0
672,72.0,0,60,0.0,64.0
673,58.0,60,60,0.0,64.0
674,56.0,60,60,0.0,64.0
675,74.0,0,60,0.0,64.0
676,55.0,0,60,0.0,64.0
677,76.0,60,60,0.0,64.0
678,56.0,0,60,0.0,64.0
679,79.0,60,60,0.0,64.0
680,84.0,0,60,0.0,64.0
681,58.0,60,60,0.0,64.0
682,61.0,60,60,0.0,64.0
683,82.0,0,60,0.0,64.0
684,60.0,0,60,0.0,64.0
685,80.0,60,60,0.0,64.0
686,79.0,0,60,0.0,64.0
687,58.0,60,60,0.0,64.0
688,77.0,0,60,0.0,64.0
689,56.0,0,120,0.0,64.0
690,78.0,60,60,0.0,64.0
691,77.0,0,60,0.0,64.0
692,75.0,60,60,0.0,64.0
693,57.0,60,120,0.0,64.0
694,73.0,60,60,0.0,64.0
695,58.0,0,120,0.0,64.0
696,72.0,60,60,0.0,64.0
697,70.0,0,60,0.0,64.0
698,69.0,60,60,0.0,64.0
699,60.0,60,120,0.0,64.0
700,49.0,60,540,0.0,64.0
701,51.0,60,60,0.0,64.0
702,70.0,0,120,0.0,64.0
703,61.0,60,120,0.0,64.0
704,49.0,0,60,0.0,64.0
705,65.0,60,120,0.0,64.0
706,48.0,60,60,0.0,64.0
707,46.0,60,60,0.0,64.0
708,44.0,60,60,0.0,64.0
709,42.0,0,60,0.0,64.0
710,70.0,60,60,0.0,64.0
711,41.0,0,60,0.0,64.0
712,68.0,60,60,0.0,64.0
713,73.0,60,0,0.0,64.0
714,39.0,60,0,0.0,64.0
715,66.0,0,0,0.0,64.0
716,65.0,60,60,0.0,64.0
717,39.0,0,120,0.0,64.0
718,66.0,60,120,0.0,64.0
719,51.0,0,60,0.0,64.0
720,66.0,60,60,0.0,64.0
721,65.0,60,60,0.0,64.0
722,48.0,0,60,0.0,64.0
723,73.0,60,240,0.0,64.0
724,45.0,0,120,0.0,64.0
725,66.0,60,120,0.0,64.0
726,63.0,60,60,0.0,64.0
727,61.0,60,60,0.0,64.0
728,45.0,0,0,0.0,64.0
729,72.0,60,240,0.0,64.0
730,63.0,60,120,0.0,64.0
731,54.0,0,60,0.0,64.0
732,63.0,60,60,0.0,64.0
733,51.0,60,60,0.0,64.0
734,61.0,0,60,0.0,64.0
735,72.0,60,240,0.0,64.0
736,70.0,60,60,0.0,64.0
737,48.0,60,120,0.0,64.0
738,69.0,60,60,0.0,64.0
739,67.0,60,60,0.0,64.0
740,48.0,60,0,0.0,64.0
741,69.0,0,60,0.0,64.0
742,70.0,60,60,0.0,64.0
743,58.0,0,60,0.0,64.0
744,57.0,60,60,0.0,64.0
745,63.0,0,540,0.0,64.0
746,60.0,60,60,0.0,64.0
747,72.0,60,240,0.0,64.0
748,61.0,0,60,0.0,64.0
749,70.0,60,60,0.0,64.0
750,65.0,60,60,0.0,64.0
751,69.0,0,60,0.0,64.0
752,63.0,0,60,0.0,64.0
753,61.0,60,60,0.0,64.0
754,70.0,60,120,0.0,64.0
755,60.0,0,60,0.0,64.0
756,58.0,60,60,0.0,64.0
757,73.0,60,120,0.0,64.0
758,64.0,0,120,0.0,64.0
759,55.0,60,60,0.0,64.0
760,67.0,60,120,0.0,64.0
761,56.0,60,60,0.0,64.0
762,72.0,0,60,0.0,64.0
763,60.0,0,60,0.0,64.0
764,65.0,0,120,0.0,64.0
765,74.0,60,60,0.0,64.0
766,58.0,60,60,0.0,64.0
767,56.0,60,60,0.0,64.0
768,67.0,0,120,0.0,64.0
769,76.0,0,120,0.0,64.0
770,55.0,0,60,0.0,64.0
771,53.0,60,60,0.0,64.0
772,68.0,60,120,0.0,64.0
773,77.0,0,120,0.0,64.0
774,52.0,60,60,0.0,64.0
775,53.0,60,60,0.0,64.0
776,70.0,0,120,0.0,64.0
777,79.0,0,120,0.0,64.0
778,55.0,0,60,0.0,64.0
779,70.0,0,60,0.0,64.0
780,56.0,0,60,0.0,64.0
781,68.0,60,60,0.0,64.0
782,77.0,60,120,0.0,64.0
783,55.0,0,60,0.0,64.0
784,53.0,60,60,0.0,64.0
785,76.0,0,120,0.0,64.0
786,52.0,0,60,0.0,64.0
787,50.0,60,60,0.0,64.0
788,77.0,60,120,0.0,64.0
789,70.0,60,300,0.0,64.0
790,76.0,60,60,0.0,64.0
791,48.0,0,120,0.0,64.0
792,73.0,60,60,0.0,64.0
793,72.0,60,60,0.0,64.0
794,48.0,60,0,0.0,64.0
795,79.0,60,300,0.0,64.0
796,77.0,60,60,0.0,64.0
797,76.0,60,60,0.0,64.0
798,58.0,0,60,0.0,64.0
799,77.0,0,60,0.0,64.0
800,55.0,60,60,0.0,64.0
801,70.0,0,300,0.0,64.0
802,52.0,60,0,0.0,64.0
803,76.0,60,60,0.0,64.0
804,73.0,0,60,0.0,64.0
805,72.0,60,60,0.0,64.0
806,79.0,60,300,0.0,64.0
807,77.0,60,60,0.0,64.0
808,52.0,60,120,0.0,64.0
809,61.0,0,60,0.0,64.0
810,76.0,60,60,0.0,64.0
811,77.0,60,60,0.0,64.0
812,70.0,0,240,0.0,64.0
813,58.0,0,60,0.0,64.0
814,82.0,60,60,0.0,64.0
815,77.0,60,60,0.0,64.0
816,55.0,0,120,0.0,64.0
817,76.0,60,60,0.0,64.0
818,74.0,60,60,0.0,64.0
819,55.0,0,0,0.0,64.0
820,76.0,0,60,0.0,64.0
821,77.0,60,60,0.0,64.0
822,65.0,0,60,0.0,64.0
823,64.0,60,60,0.0,64.0
824,70.0,60,300,0.0,64.0
825,79.0,60,240,0.0,64.0
826,67.0,60,60,0.0,64.0
827,77.0,0,60,0.0,64.0
828,68.0,60,60,0.0,64.0
829,73.0,60,60,0.0,64.0
830,76.0,0,60,0.0,64.0
831,72.0,0,60,0.0,64.0
832,70.0,60,60,0.0,64.0
833,77.0,60,120,0.0,64.0
834,68.0,0,60,0.0,64.0
835,65.0,60,0,0.0,64.0
836,79.0,60,120,0.0,64.0
837,67.0,60,60,0.0,64.0
838,80.0,0,120,0.0,64.0
839,64.0,60,60,0.0,64.0
840,65.0,0,0,0.0,64.0
841,67.0,60,60,0.0,64.0
842,72.0,0,120,0.0,64.0
843,80.0,60,120,0.0,64.0
844,65.0,60,60,0.0,64.0
845,80.0,0,0,0.0,64.0
846,63.0,60,60,0.0,64.0
847,72.0,0,120,0.0,64.0
848,61.0,60,60,0.0,64.0
849,60.0,60,60,0.0,64.0
850,70.0,0,60,0.0,64.0
851,72.0,60,60,0.0,64.0
852,61.0,60,120,0.0,64.0
853,73.0,60,60,0.0,64.0
854,72.0,60,60,0.0,64.0
855,65.0,0,120,0.0,64.0
856,70.0,60,60,0.0,64.0
857,72.0,60,60,0.0,64.0
858,61.0,0,120,0.0,64.0
859,73.0,0,60,0.0,64.0
860,72.0,60,60,0.0,64.0
861,58.0,60,120,0.0,64.0
862,63.0,60,60,0.0,64.0
863,61.0,60,60,0.0,64.0
864,70.0,0,0,0.0,64.0
865,79.0,60,0,0.0,64.0
866,63.0,0,60,0.0,64.0
867,65.0,60,60,0.0,64.0
868,70.0,60,0,0.0,64.0
869,63.0,0,60,0.0,64.0
870,61.0,60,60,0.0,64.0
871,79.0,0,120,0.0,64.0
872,60.0,0,60,0.0,64.0
873,58.0,60,60,0.0,64.0
874,68.0,60,60,0.0,64.0
875,60.0,0,120,0.0,64.0
876,70.0,60,60,0.0,64.0
877,72.0,60,60,0.0,64.0
878,70.0,60,60,0.0,64.0
879,63.0,0,120,0.0,64.0
880,68.0,60,60,0.0,64.0
881,70.0,60,60,0.0,64.0
882,60.0,0,120,0.0,64.0
883,72.0,60,60,0.0,64.0
884,70.0,60,60,0.0,64.0
885,56.0,0,120,0.0,64.0
886,79.0,60,600,0.0,64.0
887,61.0,0,60,0.0,64.0
888,63.0,60,60,0.0,64.0
889,68.0,60,0,0.0,64.0
890,61.0,0,60,0.0,64.0
891,60.0,60,60,0.0,64.0
892,77.0,60,240,0.0,64.0
893,58.0,0,60,0.0,64.0
894,56.0,60,60,0.0,64.0
895,55.0,0,60,0.0,64.0
896,53.0,60,60,0.0,64.0
897,77.0,60,120,0.0,64.0
898,55.0,0,60,0.0,64.0
899,58.0,60,60,0.0,64.0
900,73.0,60,360,0.0,64.0
901,72.0,60,60,0.0,64.0
902,57.0,0,60,0.0,64.0
903,55.0,0,60,0.0,64.0
904,70.0,60,60,0.0,64.0
905,75.0,60,240,0.0,64.0
906,53.0,60,60,0.0,64.0
907,69.0,0,120,0.0,64.0
908,51.0,60,60,0.0,64.0
909,49.0,0,60,0.0,64.0
910,48.0,60,60,0.0,64.0
911,77.0,60,120,0.0,64.0
912,70.0,60,120,0.0,64.0
913,53.0,60,60,0.0,64.0
914,55.0,60,60,0.0,64.0
915,70.0,60,0,0.0,64.0
916,57.0,60,60,0.0,64.0
917,49.0,0,240,0.0,64.0
918,49.0,60,60,0.0,64.0
919,58.0,0,120,0.0,64.0
920,78.0,60,60,0.0,64.0
921,51.0,0,60,0.0,64.0
922,75.0,60,60,0.0,64.0
923,53.0,0,60,0.0,64.0
924,60.0,60,60,0.0,64.0
925,54.0,0,120,0.0,64.0
926,69.0,60,120,0.0,64.0
927,63.0,0,60,0.0,64.0
928,69.0,60,120,0.0,64.0
929,61.0,60,60,0.0,64.0
930,60.0,0,60,0.0,64.0
931,69.0,60,60,0.0,64.0
932,70.0,60,60,0.0,64.0
933,58.0,0,60,0.0,64.0
934,57.0,0,60,0.0,64.0
935,72.0,60,60,0.0,64.0
936,73.0,0,60,0.0,64.0
937,55.0,60,60,0.0,64.0
938,53.0,0,60,0.0,64.0
939,75.0,60,60,0.0,64.0
940,58.0,0,60,0.0,64.0
941,73.0,60,60,0.0,64.0
942,72.0,0,60,0.0,64.0
943,57.0,60,60,0.0,64.0
944,55.0,0,60,0.0,64.0
945,73.0,60,60,0.0,64.0
946,53.0,0,60,0.0,64.0
947,75.0,60,60,0.0,64.0
948,51.0,0,60,0.0,64.0
949,78.0,60,60,0.0,64.0
950,49.0,0,60,0.0,64.0
951,77.0,0,60,0.0,64.0
952,75.0,0,60,0.0,64.0
953,48.0,60,60,0.0,64.0
954,72.0,60,120,0.0,64.0
955,46.0,0,60,0.0,64.0
956,65.0,0,120,0.0,64.0
957,73.0,60,120,0.0,64.0
958,48.0,60,60,0.0,64.0
959,49.0,0,60,0.0,64.0
960,73.0,60,120,0.0,64.0
961,65.0,0,0,0.0,64.0
962,48.0,60,60,0.0,64.0
963,46.0,60,60,0.0,64.0
964,44.0,60,60,0.0,64.0
965,73.0,0,120,0.0,64.0
966,43.0,60,60,0.0,64.0
967,73.0,0,60,0.0,64.0
968,70.0,0,60,0.0,64.0
969,41.0,60,60,0.0,64.0
970,43.0,0,60,0.0,64.0
971,44.0,60,60,0.0,64.0
972,64.0,0,120,0.0,64.0
973,73.0,60,120,0.0,64.0
974,46.0,0,60,0.0,64.0
975,44.0,60,60,0.0,64.0
976,64.0,0,120,0.0,64.0
977,73.0,60,120,0.0,64.0
978,43.0,60,60,0.0,64.0
979,64.0,0,60,0.0,64.0
980,41.0,0,60,0.0,64.0
981,65.0,60,60,0.0,64.0
982,73.0,0,120,0.0,64.0
983,40.0,0,60,0.0,64.0
984,67.0,60,60,0.0,64.0
985,68.0,0,60,0.0,64.0
986,38.0,60,60,0.0,64.0
987,70.0,60,60,0.0,64.0
988,68.0,60,60,0.0,64.0
989,36.0,0,120,0.0,64.0
990,64.0,0,120,0.0,64.0
991,67.0,60,60,0.0,64.0
992,68.0,60,60,0.0,64.0
993,40.0,0,120,0.0,64.0
994,70.0,0,60,0.0,64.0
995,73.0,60,60,0.0,64.0
996,43.0,60,120,0.0,64.0
997,72.0,0,60,0.0,64.0
998,70.0,60,60,0.0,64.0
999,76.0,60,120,0.0,64.0
1000,48.0,0,180,0.0,64.0
1001,68.0,0,0,0.0,64.0
1002,77.0,60,120,0.0,64.0
1003,41.0,60,60,0.0,64.0
1004,44.0,60,60,0.0,64.0
1005,72.0,0,120,0.0,64.0
1006,48.0,60,60,0.0,64.0
1007,53.0,0,60,0.0,64.0
1008,72.0,0,120,0.0,64.0
1009,56.0,60,60,0.0,64.0
1010,55.0,60,60,0.0,64.0
1011,53.0,60,60,0.0,64.0
1012,80.0,0,120,0.0,64.0
1013,70.0,60,60,0.0,64.0
1014,72.0,60,60,0.0,64.0
1015,61.0,0,120,0.0,64.0
1016,73.0,0,60,0.0,64.0
1017,72.0,60,60,0.0,64.0
1018,58.0,60,120,0.0,64.0
1019,70.0,60,60,0.0,64.0
1020,55.0,0,120,0.0,64.0
1021,72.0,60,60,0.0,64.0
1022,73.0,60,60,0.0,64.0
1023,72.0,60,60,0.0,64.0
1024,53.0,0,120,0.0,64.0
1025,68.0,60,720,0.0,64.0
1026,36.0,0,60,0.0,64.0
1027,40.0,60,60,0.0,64.0
1028,67.0,0,120,0.0,64.0
1029,70.0,60,0,0.0,64.0
1030,43.0,0,60,0.0,64.0
1031,48.0,60,60,0.0,64.0
1032,67.0,0,120,0.0,64.0
1033,52.0,0,60,0.0,64.0
1034,70.0,0,120,0.0,64.0
1035,55.0,60,60,0.0,64.0
1036,53.0,60,60,0.0,64.0
1037,52.0,60,60,0.0,64.0
1038,79.0,0,120,0.0,64.0
1039,68.0,60,60,0.0,64.0
1040,70.0,60,60,0.0,64.0
1041,60.0,0,120,0.0,64.0
1042,72.0,60,60,0.0,64.0
1043,70.0,60,60,0.0,64.0
1044,56.0,0,120,0.0,64.0
1045,68.0,60,60,0.0,64.0
1046,53.0,0,120,0.0,64.0
1047,70.0,60,60,0.0,64.0
1048,72.0,0,60,0.0,64.0
1049,70.0,60,60,0.0,64.0
1050,52.0,60,120,0.0,64.0
1051,67.0,60,720,0.0,64.0
1052,36.0,0,60,0.0,64.0
1053,65.0,0,120,0.0,64.0
1054,68.0,60,120,0.0,64.0
1055,41.0,60,60,0.0,64.0
1056,44.0,0,60,0.0,64.0
1057,48.0,60,60,0.0,64.0
1058,65.0,0,120,0.0,64.0
1059,68.0,60,120,0.0,64.0
1060,53.0,0,60,0.0,64.0
1061,56.0,60,60,0.0,64.0
1062,68.0,0,120,0.0,64.0
1063,55.0,0,60,0.0,64.0
1064,53.0,60,60,0.0,64.0
1065,77.0,60,120,0.0,64.0
1066,67.0,60,60,0.0,64.0
1067,58.0,0,120,0.0,64.0
1068,65.0,60,360,0.0,64.0
1069,68.0,60,60,0.0,64.0
1070,70.0,0,60,0.0,64.0
1071,68.0,60,60,0.0,64.0
1072,55.0,60,120,0.0,64.0
1073,64.0,0,120,0.0,50.0
1074,67.0,60,60,0.0,64.0
1075,52.0,0,120,0.0,64.0
1076,73.0,60,60,0.0,64.0
1077,72.0,60,60,0.0,64.0
1078,64.0,0,120,0.0,64.0
1079,48.0,0,120,0.0,64.0
1080,70.0,60,60,0.0,64.0
1081,49.0,60,120,0.0,64.0
1082,68.0,0,180,0.0,64.0
1083,67.0,60,60,0.0,64.0
1084,46.0,120,120,0.0,64.0
1085,65.0,0,240,0.0,64.0
1086,48.0,60,120,0.0,64.0
1087,67.0,0,180,0.0,64.0
1088,65.0,60,60,0.0,64.0
1089,36.0,120,120,0.0,64.0
1090,64.0,0,240,0.0,64.0
1091,41.0,60,480,0.0,64.0
1092,65.0,0,480,0.0,64.0
