,note,step,duration,channel,velocity
0,67.0,0,1024,1.0,96.0
1,55.0,0,1024,3.0,96.0
2,70.0,0,1024,0.0,96.0
3,62.0,0,1024,2.0,96.0
4,62.0,0,512,2.0,96.0
5,50.0,0,1024,3.0,96.0
6,60.0,512,512,2.0,96.0
7,70.0,0,1024,0.0,96.0
8,65.0,1024,1024,1.0,96.0
9,67.0,0,512,0.0,96.0
10,51.0,0,512,3.0,96.0
11,58.0,512,1024,2.0,96.0
12,69.0,512,512,0.0,96.0
13,63.0,0,1024,1.0,96.0
14,53.0,0,512,3.0,96.0
15,55.0,0,512,3.0,96.0
16,70.0,512,512,0.0,96.0
17,57.0,0,512,3.0,96.0
18,62.0,0,1024,1.0,96.0
19,58.0,0,1024,2.0,96.0
20,72.0,512,512,0.0,96.0
21,62.0,0,1024,1.0,96.0
22,58.0,0,1024,3.0,96.0
23,74.0,0,1024,0.0,96.0
24,53.0,512,1024,2.0,96.0
25,51.0,1024,1024,3.0,96.0
26,72.0,0,1024,0.0,96.0
27,55.0,0,1024,2.0,96.0
28,63.0,0,0,1.0,96.0
29,62.0,256,256,1.0,96.0
30,72.0,0,1024,0.0,96.0
31,63.0,256,512,1.0,96.0
32,53.0,1024,1024,3.0,96.0
33,57.0,0,1024,2.0,96.0
34,70.0,0,1024,0.0,96.0
35,46.0,0,1024,3.0,96.0
36,53.0,0,1024,2.0,96.0
37,62.0,0,0,1.0,96.0
38,62.0,0,0,1.0,96.0
39,70.0,0,1024,0.0,96.0
40,55.0,0,1024,2.0,96.0
41,43.0,1024,1024,3.0,96.0
42,54.0,0,512,2.0,96.0
43,63.0,512,512,2.0,96.0
44,50.0,1024,1024,3.0,96.0
45,72.0,0,512,1.0,96.0
46,69.0,0,1024,0.0,96.0
47,67.0,512,512,0.0,96.0
48,52.0,0,512,3.0,96.0
49,62.0,0,512,2.0,96.0
50,70.0,0,512,1.0,96.0
51,69.0,0,512,0.0,96.0
52,69.0,0,512,1.0,96.0
53,54.0,0,512,3.0,96.0
54,60.0,512,512,2.0,96.0
55,55.0,0,512,3.0,96.0
56,58.0,0,512,2.0,96.0
57,53.0,512,512,3.0,96.0
58,70.0,0,1024,0.0,96.0
59,57.0,0,512,2.0,96.0
60,67.0,512,1024,1.0,96.0
61,67.0,0,512,1.0,96.0
62,51.0,0,512,3.0,96.0
63,72.0,512,512,0.0,96.0
64,65.0,0,512,1.0,96.0
65,50.0,512,512,3.0,96.0
66,55.0,0,0,2.0,96.0
67,70.0,0,512,0.0,96.0
68,48.0,0,1024,3.0,96.0
69,63.0,512,1024,1.0,96.0
70,62.0,0,512,1.0,96.0
71,50.0,1024,1024,3.0,96.0
72,60.0,512,512,1.0,96.0
73,69.0,0,2048,0.0,96.0
74,54.0,0,1024,2.0,96.0
75,43.0,0,1024,3.0,96.0
76,67.0,0,1024,0.0,96.0
77,55.0,0,1024,2.0,96.0
78,58.0,512,1024,1.0,96.0
79,55.0,1024,1024,3.0,96.0
80,62.0,1024,0,2.0,96.0
81,67.0,0,1024,1.0,96.0
82,70.0,0,1024,0.0,96.0
83,50.0,0,1024,3.0,96.0
84,60.0,512,512,2.0,96.0
85,65.0,0,1024,1.0,96.0
86,70.0,0,1024,0.0,96.0
87,51.0,512,512,3.0,96.0
88,67.0,0,512,0.0,96.0
89,69.0,512,512,0.0,96.0
90,58.0,0,1024,2.0,96.0
91,53.0,0,512,3.0,96.0
92,63.0,0,1024,1.0,96.0
93,70.0,0,512,0.0,96.0
94,55.0,0,512,3.0,96.0
95,58.0,512,1024,2.0,96.0
96,62.0,0,1024,1.0,96.0
97,72.0,512,512,0.0,96.0
98,57.0,0,512,3.0,96.0
99,58.0,0,1024,3.0,96.0
100,62.0,0,1024,1.0,96.0
101,74.0,0,1024,0.0,96.0
102,53.0,512,1024,2.0,96.0
103,55.0,0,1024,2.0,96.0
104,51.0,1024,1024,3.0,96.0
105,63.0,0,1024,1.0,96.0
106,72.0,0,1024,0.0,96.0
107,63.0,0,256,1.0,96.0
108,62.0,256,256,1.0,96.0
109,57.0,0,1024,2.0,96.0
110,53.0,1024,1024,3.0,96.0
111,63.0,256,512,1.0,96.0
112,72.0,0,1024,0.0,96.0
113,62.0,1024,0,1.0,96.0
114,46.0,0,1024,3.0,96.0
115,70.0,0,0,0.0,96.0
116,53.0,0,1024,2.0,96.0
117,55.0,0,1024,2.0,96.0
118,43.0,0,1024,3.0,96.0
119,54.0,1024,512,2.0,96.0
120,62.0,0,512,1.0,96.0
121,69.0,0,1024,0.0,96.0
122,72.0,512,512,1.0,96.0
123,63.0,0,512,2.0,96.0
124,50.0,0,1024,3.0,96.0
125,62.0,0,512,2.0,96.0
126,70.0,0,512,1.0,96.0
127,52.0,0,512,3.0,96.0
128,67.0,512,512,0.0,96.0
129,69.0,0,512,1.0,96.0
130,69.0,0,512,0.0,96.0
131,54.0,0,512,3.0,96.0
132,60.0,512,512,2.0,96.0
133,58.0,0,512,2.0,96.0
134,55.0,512,512,3.0,96.0
135,70.0,0,1024,0.0,96.0
136,53.0,512,512,3.0,96.0
137,57.0,0,512,2.0,96.0
138,67.0,0,1024,1.0,96.0
139,72.0,0,512,0.0,96.0
140,67.0,0,512,1.0,96.0
141,51.0,512,512,3.0,96.0
142,55.0,0,1024,2.0,96.0
143,70.0,0,512,0.0,96.0
144,65.0,0,512,1.0,96.0
145,50.0,512,512,3.0,96.0
146,63.0,0,1024,1.0,96.0
147,55.0,0,1024,2.0,96.0
148,48.0,512,1024,3.0,96.0
149,62.0,1024,512,1.0,96.0
150,60.0,512,512,1.0,96.0
151,69.0,0,2048,0.0,96.0
152,54.0,0,1024,2.0,96.0
153,50.0,0,1024,3.0,96.0
154,67.0,0,1024,0.0,96.0
155,55.0,0,1024,2.0,96.0
156,43.0,0,1024,3.0,96.0
157,58.0,512,1024,1.0,96.0
158,53.0,1024,1024,2.0,96.0
159,65.0,0,1024,1.0,96.0
160,45.0,0,1024,3.0,96.0
161,72.0,0,1024,0.0,96.0
162,46.0,1024,512,3.0,96.0
163,58.0,0,1024,2.0,96.0
164,65.0,0,1024,1.0,96.0
165,48.0,512,512,3.0,96.0
166,74.0,0,1024,0.0,96.0
167,50.0,0,512,3.0,96.0
168,58.0,512,1024,2.0,96.0
169,51.0,512,512,3.0,96.0
170,65.0,0,1024,1.0,96.0
171,74.0,0,1024,0.0,96.0
172,53.0,0,512,3.0,96.0
173,69.0,512,512,0.0,96.0
174,55.0,0,512,3.0,96.0
175,70.0,512,512,0.0,96.0
176,65.0,0,1024,2.0,96.0
177,60.0,0,1536,1.0,96.0
178,66.0,0,512,2.0,96.0
179,57.0,512,512,3.0,96.0
180,57.0,0,512,2.0,96.0
181,69.0,512,512,1.0,96.0
182,54.0,0,512,3.0,96.0
183,72.0,0,1024,0.0,96.0
184,69.0,512,512,1.0,96.0
185,58.0,0,512,2.0,96.0
186,55.0,0,512,3.0,96.0
187,67.0,0,256,1.0,96.0
188,70.0,0,0,0.0,96.0
189,66.0,256,256,1.0,96.0
190,60.0,512,512,2.0,96.0
191,57.0,0,512,3.0,96.0
192,58.0,0,512,3.0,96.0
193,60.0,512,512,3.0,96.0
194,67.0,256,1024,1.0,96.0
195,62.0,0,0,2.0,96.0
196,69.0,0,1024,0.0,96.0
197,62.0,512,1024,3.0,96.0
198,65.0,0,1024,1.0,96.0
199,62.0,0,0,2.0,96.0
200,55.0,1024,512,3.0,96.0
201,53.0,512,512,3.0,96.0
202,67.0,512,0,1.0,96.0
203,70.0,0,1024,0.0,96.0
204,51.0,0,512,3.0,96.0
205,50.0,0,512,3.0,96.0
206,65.0,512,512,1.0,96.0
207,55.0,0,1024,2.0,96.0
208,72.0,0,1024,0.0,96.0
209,67.0,512,512,0.0,96.0
210,69.0,512,512,0.0,96.0
211,63.0,0,1024,1.0,96.0
212,48.0,0,1024,3.0,96.0
213,60.0,0,1024,2.0,96.0
214,62.0,0,512,1.0,96.0
215,43.0,0,1024,3.0,96.0
216,64.0,512,512,1.0,96.0
217,58.0,0,1024,2.0,96.0
218,70.0,512,1024,0.0,96.0
219,45.0,0,512,3.0,96.0
220,60.0,512,1024,2.0,96.0
221,46.0,512,512,3.0,96.0
222,65.0,0,0,1.0,96.0
223,69.0,0,1024,0.0,96.0
224,48.0,0,512,3.0,96.0
225,60.0,0,512,2.0,96.0
226,55.0,0,512,2.0,96.0
227,46.0,512,512,3.0,96.0
228,67.0,512,1024,0.0,96.0
229,60.0,0,512,2.0,96.0
230,58.0,512,512,2.0,96.0
231,67.0,0,1024,0.0,96.0
232,48.0,0,1024,3.0,96.0
233,64.0,512,1024,1.0,96.0
234,60.0,0,1024,1.0,96.0
235,57.0,512,1024,2.0,96.0
236,41.0,0,1024,3.0,96.0
237,65.0,0,1024,0.0,96.0
238,53.0,0,512,2.0,96.0
239,50.0,0,512,3.0,96.0
240,70.0,0,1024,0.0,96.0
241,55.0,0,512,2.0,96.0
242,52.0,512,512,3.0,96.0
243,62.0,1024,1024,1.0,96.0
244,57.0,0,512,2.0,96.0
245,60.0,0,512,1.0,96.0
246,62.0,0,512,1.0,96.0
247,53.0,0,1024,3.0,96.0
248,58.0,512,512,2.0,96.0
249,69.0,512,1024,0.0,96.0
250,64.0,512,512,1.0,96.0
251,67.0,0,512,0.0,96.0
252,66.0,0,512,1.0,96.0
253,60.0,0,1024,2.0,96.0
254,48.0,0,1024,3.0,96.0
255,69.0,512,512,0.0,96.0
256,55.0,0,512,3.0,96.0
257,53.0,512,512,3.0,96.0
258,67.0,512,1024,1.0,96.0
259,62.0,0,1024,2.0,96.0
260,70.0,0,1024,0.0,96.0
261,60.0,0,512,2.0,96.0
262,51.0,512,512,3.0,96.0
263,72.0,0,512,0.0,96.0
264,50.0,512,512,3.0,96.0
265,67.0,512,0,1.0,96.0
266,62.0,0,512,2.0,96.0
267,70.0,0,512,0.0,96.0
268,63.0,0,512,2.0,96.0
269,48.0,0,1024,3.0,96.0
270,57.0,512,512,2.0,96.0
271,62.0,0,512,2.0,96.0
272,60.0,512,512,2.0,96.0
273,69.0,0,2048,0.0,96.0
274,50.0,0,1024,3.0,96.0
275,66.0,512,1024,1.0,96.0
276,67.0,0,2048,0.0,96.0
277,43.0,0,2048,3.0,96.0
278,62.0,0,2048,1.0,96.0
279,59.0,512,2048,2.0,96.0
