,note,step,duration,channel,velocity
0,58.0,256,512,0.0,0.0
1,63.0,256,256,0.0,0.0
2,65.0,512,256,0.0,0.0
3,27.0,0,0,4.0,0.0
4,39.0,512,0,3.0,0.0
5,67.0,0,0,0.0,0.0
6,65.0,0,512,0.0,0.0
7,68.0,512,512,0.0,0.0
8,27.0,0,0,4.0,0.0
9,39.0,512,0,3.0,0.0
10,67.0,512,512,0.0,0.0
11,43.0,256,1024,3.0,0.0
12,58.0,512,512,0.0,0.0
13,31.0,0,1024,4.0,0.0
14,56.0,0,512,0.0,0.0
15,32.0,0,1024,4.0,0.0
16,44.0,0,1024,3.0,0.0
17,67.0,256,256,0.0,0.0
18,63.0,512,256,0.0,0.0
19,65.0,512,512,0.0,0.0
20,34.0,0,1024,4.0,0.0
21,46.0,512,1024,3.0,0.0
22,56.0,512,512,0.0,0.0
23,55.0,0,512,0.0,0.0
24,62.0,512,512,0.0,0.0
25,27.0,0,1024,4.0,0.0
26,39.0,1024,1024,3.0,0.0
27,63.0,0,512,0.0,0.0
28,58.0,256,512,0.0,0.0
29,63.0,256,256,0.0,0.0
30,65.0,512,256,0.0,0.0
31,67.0,512,512,0.0,0.0
32,27.0,0,0,4.0,0.0
33,39.0,0,0,3.0,0.0
34,67.0,512,512,0.0,0.0
35,65.0,0,512,0.0,0.0
36,68.0,512,512,0.0,0.0
37,27.0,0,0,4.0,0.0
38,39.0,0,1024,3.0,0.0
39,67.0,0,512,0.0,0.0
40,43.0,0,1024,3.0,0.0
41,31.0,256,1024,4.0,0.0
42,58.0,512,512,0.0,0.0
43,56.0,0,512,0.0,0.0
44,32.0,0,1024,4.0,0.0
45,67.0,256,256,0.0,0.0
46,44.0,0,1024,3.0,0.0
47,63.0,512,256,0.0,0.0
48,65.0,512,512,0.0,0.0
49,46.0,512,1024,3.0,0.0
50,34.0,0,1024,4.0,0.0
51,56.0,512,512,0.0,0.0
52,55.0,0,512,0.0,0.0
53,27.0,1024,1024,4.0,0.0
54,39.0,0,1024,3.0,0.0
55,62.0,512,512,0.0,0.0
56,63.0,0,512,0.0,0.0
57,43.0,0,1024,3.0,0.0
58,70.0,1024,0,0.0,0.0
59,31.0,0,1024,4.0,0.0
60,36.0,0,1024,4.0,0.0
61,68.0,256,256,0.0,0.0
62,48.0,0,1024,3.0,0.0
63,67.0,256,256,0.0,0.0
64,65.0,256,256,0.0,0.0
65,63.0,256,256,0.0,0.0
66,34.0,0,1024,4.0,0.0
67,46.0,512,1024,3.0,0.0
68,65.0,256,256,0.0,0.0
69,63.0,256,256,0.0,0.0
70,62.0,256,256,0.0,0.0
71,60.0,0,256,0.0,0.0
72,32.0,256,1024,4.0,0.0
73,58.0,256,512,0.0,0.0
74,44.0,0,1024,3.0,0.0
75,60.0,256,256,0.0,0.0
76,62.0,0,256,0.0,0.0
77,63.0,256,256,0.0,0.0
78,43.0,0,1024,3.0,0.0
79,31.0,0,1024,4.0,0.0
80,65.0,256,256,0.0,0.0
81,67.0,256,256,0.0,0.0
82,65.0,256,256,0.0,0.0
83,27.0,0,1024,4.0,0.0
84,39.0,512,1024,3.0,0.0
85,68.0,256,256,0.0,0.0
86,67.0,256,256,0.0,0.0
87,65.0,256,256,0.0,0.0
88,63.0,0,256,0.0,0.0
89,67.0,512,512,0.0,0.0
90,34.0,0,1024,4.0,0.0
91,46.0,1024,1024,3.0,0.0
92,65.0,0,512,0.0,0.0
93,38.0,0,1024,4.0,0.0
94,50.0,0,1024,3.0,0.0
95,58.0,512,512,0.0,0.0
96,51.0,0,1024,3.0,0.0
97,67.0,512,512,0.0,0.0
98,39.0,512,1024,4.0,0.0
99,69.0,512,1024,0.0,0.0
100,50.0,256,1024,3.0,0.0
101,38.0,0,1024,4.0,0.0
102,70.0,0,512,0.0,0.0
103,36.0,1024,1024,4.0,0.0
104,63.0,256,256,0.0,0.0
105,48.0,0,1024,3.0,0.0
106,62.0,512,256,0.0,0.0
107,63.0,0,512,0.0,0.0
108,51.0,0,1024,3.0,0.0
109,39.0,512,1024,4.0,0.0
110,60.0,0,512,0.0,0.0
111,53.0,0,1024,3.0,0.0
112,41.0,512,1024,4.0,0.0
113,69.0,512,512,0.0,0.0
114,70.0,512,1024,0.0,0.0
115,55.0,0,1024,3.0,0.0
116,43.0,256,1024,4.0,0.0
117,72.0,0,512,0.0,0.0
118,57.0,1024,1024,3.0,0.0
119,63.0,256,256,0.0,0.0
120,45.0,0,1024,4.0,0.0
121,62.0,512,256,0.0,0.0
122,63.0,0,512,0.0,0.0
123,41.0,256,1024,4.0,0.0
124,53.0,0,1024,3.0,0.0
125,75.0,0,512,0.0,0.0
126,74.0,256,256,0.0,0.0
127,58.0,0,1024,3.0,0.0
128,46.0,256,1024,4.0,0.0
129,72.0,512,256,0.0,0.0
130,70.0,256,768,0.0,0.0
131,45.0,256,1024,4.0,0.0
132,57.0,0,1024,3.0,0.0
133,69.0,512,256,0.0,0.0
134,70.0,256,768,0.0,0.0
135,55.0,256,1024,3.0,0.0
136,43.0,0,1024,4.0,0.0
137,69.0,256,256,0.0,0.0
138,67.0,256,256,0.0,0.0
139,65.0,0,256,0.0,0.0
140,53.0,256,1024,3.0,0.0
141,63.0,256,256,0.0,0.0
142,41.0,0,1024,4.0,0.0
143,62.0,256,256,0.0,0.0
144,60.0,256,256,0.0,0.0
145,58.0,0,256,0.0,0.0
146,60.0,256,256,0.0,0.0
147,51.0,0,1024,3.0,0.0
148,39.0,0,1024,4.0,0.0
149,62.0,512,256,0.0,0.0
150,63.0,256,0,0.0,0.0
151,38.0,256,1024,4.0,0.0
152,50.0,0,1024,3.0,0.0
153,62.0,512,256,0.0,0.0
154,63.0,256,768,0.0,0.0
155,48.0,256,1024,3.0,0.0
156,36.0,0,1024,4.0,0.0
157,69.0,256,256,0.0,0.0
158,70.0,256,256,0.0,0.0
159,72.0,0,256,0.0,0.0
160,70.0,256,256,0.0,0.0
161,39.0,0,1024,4.0,0.0
162,51.0,512,1024,3.0,0.0
163,69.0,256,256,0.0,0.0
164,67.0,256,256,0.0,0.0
165,65.0,0,256,0.0,0.0
166,38.0,512,512,4.0,0.0
167,70.0,0,512,0.0,0.0
168,50.0,0,512,3.0,0.0
169,65.0,512,512,0.0,0.0
170,34.0,0,512,4.0,0.0
171,46.0,0,512,3.0,0.0
172,41.0,256,512,4.0,0.0
173,53.0,0,512,3.0,0.0
174,62.0,0,512,0.0,0.0
175,41.0,0,512,3.0,0.0
176,60.0,256,256,0.0,0.0
177,29.0,256,512,4.0,0.0
178,58.0,0,256,0.0,0.0
179,58.0,256,256,0.0,0.0
180,31.0,0,512,4.0,0.0
181,43.0,0,512,3.0,0.0
182,63.0,256,256,0.0,0.0
183,33.0,0,512,4.0,0.0
184,45.0,0,512,3.0,0.0
185,62.0,256,256,0.0,0.0
186,60.0,512,256,0.0,0.0
187,34.0,512,512,4.0,0.0
188,62.0,0,512,0.0,0.0
189,46.0,0,512,3.0,0.0
190,58.0,0,512,0.0,0.0
191,26.0,512,512,4.0,0.0
192,38.0,0,512,3.0,0.0
193,39.0,256,512,3.0,0.0
194,27.0,0,512,4.0,0.0
195,55.0,256,768,0.0,0.0
196,24.0,0,512,4.0,0.0
197,36.0,768,512,3.0,0.0
198,57.0,0,0,0.0,0.0
199,41.0,0,1024,3.0,0.0
200,29.0,0,1024,4.0,0.0
201,55.0,128,128,0.0,0.0
202,57.0,512,128,0.0,0.0
203,34.0,512,512,4.0,0.0
204,46.0,0,512,3.0,0.0
205,58.0,0,1024,0.0,0.0
206,36.0,512,512,4.0,0.0
207,48.0,0,512,3.0,0.0
208,34.0,0,512,4.0,0.0
209,46.0,512,512,3.0,0.0
210,44.0,256,512,3.0,0.0
211,32.0,0,512,4.0,0.0
212,58.0,0,512,0.0,0.0
213,31.0,0,512,4.0,0.0
214,43.0,512,512,3.0,0.0
215,63.0,256,256,0.0,0.0
216,65.0,0,256,0.0,0.0
217,29.0,512,512,4.0,0.0
218,67.0,0,512,0.0,0.0
219,41.0,0,512,3.0,0.0
220,67.0,0,512,0.0,0.0
221,39.0,0,512,3.0,0.0
222,27.0,512,512,4.0,0.0
223,38.0,512,512,3.0,0.0
224,26.0,0,512,4.0,0.0
225,65.0,0,512,0.0,0.0
226,51.0,0,1024,1.0,0.0
227,68.0,512,512,0.0,0.0
228,24.0,0,1024,4.0,0.0
229,36.0,512,1024,3.0,0.0
230,51.0,0,1024,2.0,0.0
231,67.0,0,512,0.0,0.0
232,55.0,0,1024,2.0,0.0
233,48.0,0,1024,3.0,0.0
234,58.0,512,512,0.0,0.0
235,55.0,0,1024,1.0,0.0
236,36.0,256,1024,4.0,0.0
237,56.0,0,512,0.0,0.0
238,67.0,256,256,0.0,0.0
239,31.0,0,1024,4.0,0.0
240,58.0,0,1024,2.0,0.0
241,43.0,0,1024,3.0,0.0
242,63.0,512,256,0.0,0.0
243,65.0,0,512,0.0,0.0
244,56.0,512,512,0.0,0.0
245,58.0,512,0,1.0,0.0
246,58.0,0,1024,2.0,0.0
247,46.0,0,1024,3.0,0.0
248,34.0,512,1024,4.0,0.0
249,55.0,0,512,0.0,0.0
250,39.0,0,1024,3.0,0.0
251,58.0,0,1024,2.0,0.0
252,27.0,0,1024,4.0,0.0
253,62.0,512,512,0.0,0.0
254,63.0,0,512,0.0,0.0
255,31.0,0,1024,4.0,0.0
256,58.0,0,1024,2.0,0.0
257,43.0,256,1024,3.0,0.0
258,58.0,1024,0,1.0,0.0
259,58.0,0,512,0.0,0.0
260,32.0,0,1024,4.0,0.0
261,63.0,256,256,0.0,0.0
262,60.0,0,2048,2.0,0.0
263,44.0,512,1024,3.0,0.0
264,60.0,0,2048,1.0,0.0
265,65.0,512,256,0.0,0.0
266,67.0,0,0,0.0,0.0
267,44.0,0,1024,4.0,0.0
268,56.0,0,1024,3.0,0.0
269,65.0,512,512,0.0,0.0
270,50.0,0,1024,3.0,0.0
271,58.0,256,2048,1.0,0.0
272,58.0,0,2048,2.0,0.0
273,68.0,512,512,0.0,0.0
274,38.0,512,1024,4.0,0.0
275,67.0,0,512,0.0,0.0
276,39.0,0,1024,4.0,0.0
277,51.0,0,1024,3.0,0.0
278,58.0,512,512,0.0,0.0
279,56.0,0,512,0.0,0.0
280,67.0,256,256,0.0,0.0
281,36.0,0,1024,4.0,0.0
282,48.0,0,1024,3.0,0.0
283,63.0,512,256,0.0,0.0
284,65.0,512,512,0.0,0.0
285,38.0,0,1024,4.0,0.0
286,56.0,512,512,0.0,0.0
287,50.0,0,1024,3.0,0.0
288,55.0,512,512,0.0,0.0
289,51.0,0,1024,3.0,0.0
290,39.0,0,1024,4.0,0.0
291,62.0,512,512,0.0,0.0
292,63.0,1024,512,0.0,0.0
293,58.0,0,1024,1.0,0.0
294,38.0,0,1024,4.0,0.0
295,50.0,0,1024,3.0,0.0
296,58.0,0,1024,2.0,0.0
297,65.0,512,512,0.0,0.0
298,63.0,0,1024,1.0,0.0
299,63.0,0,1024,2.0,0.0
300,36.0,0,1024,4.0,0.0
301,48.0,512,1024,3.0,0.0
302,67.0,512,512,0.0,0.0
303,69.0,512,1024,0.0,0.0
304,58.0,256,1024,2.0,0.0
305,43.0,0,1024,3.0,0.0
306,31.0,0,1024,4.0,0.0
307,58.0,0,1024,1.0,0.0
308,70.0,0,512,0.0,0.0
309,48.0,0,512,3.0,0.0
310,63.0,512,512,1.0,0.0
311,63.0,256,256,0.0,0.0
312,36.0,0,512,4.0,0.0
313,63.0,0,512,2.0,0.0
314,62.0,0,256,0.0,0.0
315,63.0,0,512,0.0,0.0
316,65.0,0,512,2.0,0.0
317,38.0,0,512,4.0,0.0
318,50.0,0,512,3.0,0.0
319,65.0,1024,512,1.0,0.0
320,51.0,0,1536,3.0,0.0
321,39.0,512,1536,4.0,0.0
322,67.0,512,1024,2.0,0.0
323,67.0,0,1024,1.0,0.0
324,63.0,0,512,0.0,0.0
325,69.0,0,512,0.0,0.0
326,65.0,0,1536,1.0,0.0
327,65.0,0,1536,2.0,0.0
328,70.0,0,1024,0.0,0.0
329,38.0,0,512,4.0,0.0
330,50.0,512,512,3.0,0.0
331,31.0,0,512,4.0,0.0
332,43.0,512,512,3.0,0.0
333,72.0,0,512,0.0,0.0
334,63.0,0,512,2.0,0.0
335,63.0,256,512,1.0,0.0
336,33.0,0,512,4.0,0.0
337,45.0,0,512,3.0,0.0
338,34.0,0,512,4.0,0.0
339,62.0,0,1024,1.0,0.0
340,65.0,256,256,0.0,0.0
341,46.0,0,512,3.0,0.0
342,62.0,0,1024,2.0,0.0
343,63.0,512,256,0.0,0.0
344,26.0,256,512,4.0,0.0
345,38.0,0,512,3.0,0.0
346,65.0,0,512,0.0,0.0
347,60.0,0,256,2.0,0.0
348,27.0,512,512,4.0,0.0
349,39.0,0,512,3.0,0.0
350,60.0,256,256,1.0,0.0
351,58.0,0,256,2.0,0.0
352,58.0,0,256,1.0,0.0
353,60.0,0,512,2.0,0.0
354,41.0,0,512,3.0,0.0
355,29.0,512,512,4.0,0.0
356,60.0,0,512,1.0,0.0
357,58.0,0,2048,1.0,0.0
358,58.0,0,2048,2.0,0.0
359,34.0,0,512,4.0,0.0
360,46.0,512,512,3.0,0.0
361,33.0,0,512,4.0,0.0
362,45.0,512,512,3.0,0.0
363,34.0,512,512,4.0,0.0
364,46.0,0,512,3.0,0.0
365,48.0,0,512,3.0,0.0
366,36.0,0,512,4.0,0.0
367,70.0,512,0,0.0,0.0
368,50.0,0,512,3.0,0.0
369,38.0,512,512,4.0,0.0
370,34.0,0,512,4.0,0.0
371,46.0,0,512,3.0,0.0
372,51.0,0,1024,3.0,0.0
373,39.0,0,1024,4.0,0.0
374,68.0,256,256,0.0,0.0
375,67.0,256,256,0.0,0.0
376,65.0,256,256,0.0,0.0
377,63.0,256,256,0.0,0.0
378,46.0,0,1024,3.0,0.0
379,34.0,0,1024,4.0,0.0
380,65.0,256,256,0.0,0.0
381,63.0,256,256,0.0,0.0
382,62.0,256,256,0.0,0.0
383,60.0,512,256,0.0,0.0
384,58.0,0,1024,1.0,0.0
385,44.0,0,1024,3.0,0.0
386,32.0,0,1024,4.0,0.0
387,58.0,256,1024,2.0,0.0
388,58.0,256,512,0.0,0.0
389,60.0,256,256,0.0,0.0
390,62.0,0,256,0.0,0.0
391,63.0,0,1024,1.0,0.0
392,63.0,256,256,0.0,0.0
393,43.0,256,1024,3.0,0.0
394,63.0,0,1024,2.0,0.0
395,31.0,0,1024,4.0,0.0
396,65.0,256,256,0.0,0.0
397,67.0,256,256,0.0,0.0
398,65.0,0,256,0.0,0.0
399,58.0,512,1024,1.0,0.0
400,68.0,256,256,0.0,0.0
401,58.0,0,1024,2.0,0.0
402,39.0,0,1024,3.0,0.0
403,27.0,0,1024,4.0,0.0
404,67.0,256,256,0.0,0.0
405,65.0,256,256,0.0,0.0
406,63.0,0,256,0.0,0.0
407,60.0,0,1024,2.0,0.0
408,67.0,512,512,0.0,0.0
409,32.0,0,512,4.0,0.0
410,44.0,0,512,3.0,0.0
411,60.0,512,1024,1.0,0.0
412,65.0,0,512,0.0,0.0
413,46.0,0,512,3.0,0.0
414,34.0,0,512,4.0,0.0
415,48.0,0,1024,3.0,0.0
416,36.0,0,1024,4.0,0.0
417,55.0,256,512,2.0,0.0
418,55.0,0,512,1.0,0.0
419,56.0,0,256,1.0,0.0
420,56.0,256,256,2.0,0.0
421,58.0,512,256,1.0,0.0
422,58.0,0,256,2.0,0.0
423,56.0,0,512,1.0,0.0
424,41.0,0,1024,3.0,0.0
425,29.0,0,1024,4.0,0.0
426,56.0,512,512,2.0,0.0
427,55.0,0,512,2.0,0.0
428,55.0,512,512,1.0,0.0
429,53.0,0,1024,2.0,0.0
430,46.0,512,512,3.0,0.0
431,53.0,0,1024,1.0,0.0
432,34.0,0,512,4.0,0.0
433,58.0,0,512,0.0,0.0
434,32.0,256,512,4.0,0.0
435,44.0,0,512,3.0,0.0
436,51.0,512,2048,2.0,0.0
437,43.0,512,1024,3.0,0.0
438,51.0,0,2048,1.0,0.0
439,63.0,256,256,0.0,0.0
440,31.0,0,1024,4.0,0.0
441,65.0,512,256,0.0,0.0
442,51.0,0,1024,3.0,0.0
443,67.0,0,0,0.0,0.0
444,39.0,0,1024,4.0,0.0
445,65.0,0,512,0.0,0.0
446,38.0,512,1024,4.0,0.0
447,50.0,0,1024,3.0,0.0
448,68.0,512,512,0.0,0.0
449,67.0,0,512,0.0,0.0
450,51.0,256,1024,3.0,0.0
451,58.0,512,512,0.0,0.0
452,39.0,0,1024,4.0,0.0
453,56.0,0,512,0.0,0.0
454,44.0,0,1024,3.0,0.0
455,32.0,0,1024,4.0,0.0
456,67.0,256,256,0.0,0.0
457,63.0,512,256,0.0,0.0
458,65.0,512,512,0.0,0.0
459,34.0,0,1024,4.0,0.0
460,46.0,512,1024,3.0,0.0
461,56.0,512,512,0.0,0.0
462,55.0,0,512,0.0,0.0
463,62.0,512,512,0.0,0.0
464,39.0,0,1024,3.0,0.0
465,27.0,1024,1024,4.0,0.0
466,63.0,0,512,0.0,0.0
467,58.0,256,512,0.0,0.0
468,63.0,256,256,0.0,0.0
469,65.0,512,256,0.0,0.0
470,67.0,512,0,0.0,0.0
471,27.0,0,0,4.0,0.0
472,39.0,0,0,3.0,0.0
473,65.0,512,512,0.0,0.0
474,68.0,512,512,0.0,0.0
475,39.0,0,0,3.0,0.0
476,27.0,512,1024,4.0,0.0
477,67.0,0,512,0.0,0.0
478,31.0,0,1024,4.0,0.0
479,43.0,0,1024,3.0,0.0
480,58.0,512,512,0.0,0.0
481,56.0,256,512,0.0,0.0
482,44.0,0,1024,3.0,0.0
483,32.0,512,1024,4.0,0.0
484,67.0,256,256,0.0,0.0
485,63.0,512,256,0.0,0.0
486,65.0,0,512,0.0,0.0
487,34.0,0,1024,4.0,0.0
488,56.0,512,512,0.0,0.0
489,46.0,0,1024,3.0,0.0
490,55.0,512,512,0.0,0.0
491,39.0,0,1024,3.0,0.0
492,27.0,1024,1024,4.0,0.0
493,62.0,512,512,0.0,0.0
494,63.0,0,512,0.0,0.0
495,70.0,1024,512,0.0,0.0
496,43.0,0,1024,3.0,0.0
497,70.0,0,1024,0.0,0.0
498,31.0,256,1024,4.0,0.0
499,68.0,256,256,0.0,0.0
500,48.0,256,1024,3.0,0.0
501,36.0,0,1024,4.0,0.0
502,67.0,256,256,0.0,0.0
503,65.0,256,256,0.0,0.0
504,63.0,0,256,0.0,0.0
505,65.0,256,256,0.0,0.0
506,46.0,0,1024,3.0,0.0
507,34.0,0,1024,4.0,0.0
508,63.0,256,256,0.0,0.0
509,62.0,256,256,0.0,0.0
510,60.0,512,256,0.0,0.0
511,32.0,0,1024,4.0,0.0
512,58.0,256,512,0.0,0.0
513,44.0,256,1024,3.0,0.0
514,60.0,256,256,0.0,0.0
515,62.0,0,256,0.0,0.0
516,63.0,256,256,0.0,0.0
517,31.0,256,1024,4.0,0.0
518,43.0,0,1024,3.0,0.0
519,65.0,256,256,0.0,0.0
520,67.0,256,256,0.0,0.0
521,65.0,0,256,0.0,0.0
522,68.0,256,256,0.0,0.0
523,39.0,0,1024,3.0,0.0
524,27.0,0,1024,4.0,0.0
525,67.0,256,256,0.0,0.0
526,65.0,256,256,0.0,0.0
527,63.0,512,256,0.0,0.0
528,34.0,1024,1024,4.0,0.0
529,67.0,512,512,0.0,0.0
530,46.0,0,1024,3.0,0.0
531,65.0,0,512,0.0,0.0
532,50.0,0,1024,3.0,0.0
533,38.0,512,1024,4.0,0.0
534,65.0,0,512,0.0,0.0
535,51.0,0,1024,3.0,0.0
536,67.0,512,512,0.0,0.0
537,39.0,512,1024,4.0,0.0
538,69.0,512,1024,0.0,0.0
539,50.0,0,1024,3.0,0.0
540,38.0,256,1024,4.0,0.0
541,70.0,0,512,0.0,0.0
542,48.0,0,1024,3.0,0.0
543,63.0,256,256,0.0,0.0
544,36.0,1024,1024,4.0,0.0
545,62.0,512,256,0.0,0.0
546,63.0,0,512,0.0,0.0
547,39.0,0,1024,4.0,0.0
548,51.0,512,1024,3.0,0.0
549,60.0,0,512,0.0,0.0
550,41.0,0,1024,4.0,0.0
551,69.0,512,512,0.0,0.0
552,53.0,512,1024,3.0,0.0
553,70.0,512,1024,0.0,0.0
554,55.0,256,1024,3.0,0.0
555,43.0,0,1024,4.0,0.0
556,72.0,0,512,0.0,0.0
557,63.0,256,256,0.0,0.0
558,45.0,0,1024,4.0,0.0
559,57.0,1024,1024,3.0,0.0
560,62.0,512,256,0.0,0.0
561,63.0,0,512,0.0,0.0
562,41.0,0,1024,4.0,0.0
563,53.0,0,1024,3.0,0.0
564,75.0,256,512,0.0,0.0
565,74.0,256,256,0.0,0.0
566,58.0,256,1024,3.0,0.0
567,46.0,0,1024,4.0,0.0
568,72.0,512,256,0.0,0.0
569,70.0,256,768,0.0,0.0
570,45.0,0,1024,4.0,0.0
571,57.0,256,1024,3.0,0.0
572,69.0,512,256,0.0,0.0
573,70.0,256,768,0.0,0.0
574,43.0,0,1024,4.0,0.0
575,55.0,256,1024,3.0,0.0
576,69.0,256,256,0.0,0.0
577,67.0,256,256,0.0,0.0
578,65.0,0,256,0.0,0.0
579,41.0,0,1024,4.0,0.0
580,53.0,256,1024,3.0,0.0
581,63.0,256,256,0.0,0.0
582,62.0,256,256,0.0,0.0
583,60.0,256,256,0.0,0.0
584,58.0,0,256,0.0,0.0
585,60.0,256,256,0.0,0.0
586,39.0,0,1024,4.0,0.0
587,51.0,256,1024,3.0,0.0
588,62.0,512,256,0.0,0.0
589,63.0,0,0,0.0,0.0
590,38.0,0,1024,4.0,0.0
591,50.0,256,1024,3.0,0.0
592,62.0,512,256,0.0,0.0
593,63.0,256,768,0.0,0.0
594,48.0,0,1024,3.0,0.0
595,36.0,0,1024,4.0,0.0
596,69.0,256,256,0.0,0.0
597,70.0,256,256,0.0,0.0
598,72.0,256,256,0.0,0.0
599,51.0,0,1024,3.0,0.0
600,39.0,512,1024,4.0,0.0
601,70.0,256,256,0.0,0.0
602,69.0,256,256,0.0,0.0
603,67.0,256,256,0.0,0.0
604,65.0,0,256,0.0,0.0
605,70.0,0,512,0.0,0.0
606,50.0,0,512,3.0,0.0
607,38.0,512,512,4.0,0.0
608,46.0,512,512,3.0,0.0
609,34.0,0,512,4.0,0.0
610,65.0,0,512,0.0,0.0
611,41.0,0,512,4.0,0.0
612,62.0,0,512,0.0,0.0
613,53.0,256,512,3.0,0.0
614,60.0,256,256,0.0,0.0
615,29.0,0,512,4.0,0.0
616,41.0,0,512,3.0,0.0
617,31.0,0,512,4.0,0.0
618,43.0,0,512,3.0,0.0
619,58.0,256,0,0.0,0.0
620,63.0,256,256,0.0,0.0
621,45.0,512,512,3.0,0.0
622,62.0,256,256,0.0,0.0
623,33.0,0,512,4.0,0.0
624,60.0,0,256,0.0,0.0
625,34.0,0,512,4.0,0.0
626,46.0,0,512,3.0,0.0
627,62.0,512,512,0.0,0.0
628,38.0,0,512,3.0,0.0
629,26.0,512,512,4.0,0.0
630,58.0,0,512,0.0,0.0
631,27.0,256,512,4.0,0.0
632,55.0,256,768,0.0,0.0
633,39.0,0,512,3.0,0.0
634,36.0,0,512,3.0,0.0
635,24.0,768,512,4.0,0.0
636,57.0,0,0,0.0,0.0
637,29.0,0,1024,4.0,0.0
638,41.0,0,1024,3.0,0.0
639,55.0,128,128,0.0,0.0
640,57.0,512,128,0.0,0.0
641,46.0,512,512,3.0,0.0
642,34.0,0,512,4.0,0.0
643,58.0,0,1024,0.0,0.0
644,36.0,0,512,4.0,0.0
645,48.0,512,512,3.0,0.0
646,34.0,0,512,4.0,0.0
647,46.0,512,512,3.0,0.0
648,58.0,0,512,0.0,0.0
649,44.0,256,512,3.0,0.0
650,32.0,0,512,4.0,0.0
651,31.0,512,512,4.0,0.0
652,63.0,256,256,0.0,0.0
653,43.0,0,512,3.0,0.0
654,65.0,0,256,0.0,0.0
655,41.0,512,512,3.0,0.0
656,29.0,0,512,4.0,0.0
657,67.0,0,0,0.0,0.0
658,39.0,0,512,3.0,0.0
659,27.0,0,512,4.0,0.0
660,26.0,0,512,4.0,0.0
661,65.0,0,512,0.0,0.0
662,38.0,512,512,3.0,0.0
663,51.0,0,1024,1.0,0.0
664,24.0,512,1024,4.0,0.0
665,51.0,0,1024,2.0,0.0
666,68.0,512,512,0.0,0.0
667,36.0,0,1024,3.0,0.0
668,67.0,0,512,0.0,0.0
669,55.0,0,1024,1.0,0.0
670,55.0,0,1024,2.0,0.0
671,58.0,512,512,0.0,0.0
672,48.0,256,1024,3.0,0.0
673,36.0,0,1024,4.0,0.0
674,56.0,0,512,0.0,0.0
675,43.0,0,1024,3.0,0.0
676,31.0,512,1024,4.0,0.0
677,67.0,256,256,0.0,0.0
678,63.0,512,256,0.0,0.0
679,65.0,0,512,0.0,0.0
680,46.0,0,1024,3.0,0.0
681,58.0,0,0,1.0,0.0
682,58.0,0,0,2.0,0.0
683,34.0,512,1024,4.0,0.0
684,56.0,512,512,0.0,0.0
685,55.0,0,512,0.0,0.0
686,62.0,512,512,0.0,0.0
687,27.0,0,1024,4.0,0.0
688,39.0,0,1024,3.0,0.0
689,63.0,0,512,0.0,0.0
690,58.0,1024,0,2.0,0.0
691,31.0,0,1024,4.0,0.0
692,43.0,0,1024,3.0,0.0
693,58.0,0,0,1.0,0.0
694,58.0,256,512,0.0,0.0
695,44.0,0,1024,3.0,0.0
696,32.0,0,1024,4.0,0.0
697,60.0,0,2048,2.0,0.0
698,63.0,256,256,0.0,0.0
699,60.0,0,2048,1.0,0.0
700,65.0,512,256,0.0,0.0
701,67.0,512,0,0.0,0.0
702,44.0,0,1024,4.0,0.0
703,56.0,512,1024,3.0,0.0
704,65.0,0,512,0.0,0.0
705,38.0,512,1024,4.0,0.0
706,58.0,0,2048,1.0,0.0
707,68.0,512,512,0.0,0.0
708,50.0,0,1024,3.0,0.0
709,58.0,0,2048,2.0,0.0
710,67.0,0,512,0.0,0.0
711,58.0,512,512,0.0,0.0
712,39.0,0,1024,4.0,0.0
713,51.0,0,1024,3.0,0.0
714,56.0,256,512,0.0,0.0
715,48.0,0,1024,3.0,0.0
716,36.0,512,1024,4.0,0.0
717,67.0,256,256,0.0,0.0
718,63.0,512,256,0.0,0.0
719,65.0,0,512,0.0,0.0
720,50.0,0,1024,3.0,0.0
721,38.0,512,1024,4.0,0.0
722,56.0,512,512,0.0,0.0
723,55.0,0,512,0.0,0.0
724,51.0,0,1024,3.0,0.0
725,62.0,512,512,0.0,0.0
726,39.0,1024,1024,4.0,0.0
727,63.0,0,512,0.0,0.0
728,58.0,512,1024,1.0,0.0
729,38.0,0,1024,4.0,0.0
730,50.0,0,1024,3.0,0.0
731,58.0,0,1024,2.0,0.0
732,65.0,0,512,0.0,0.0
733,36.0,512,1024,4.0,0.0
734,48.0,0,1024,3.0,0.0
735,67.0,512,512,0.0,0.0
736,63.0,0,1024,1.0,0.0
737,63.0,0,1024,2.0,0.0
738,69.0,512,1024,0.0,0.0
739,43.0,0,1024,3.0,0.0
740,31.0,0,1024,4.0,0.0
741,58.0,0,1024,1.0,0.0
742,58.0,0,1024,2.0,0.0
743,70.0,256,512,0.0,0.0
744,63.0,0,512,1.0,0.0
745,36.0,0,512,4.0,0.0
746,48.0,512,512,3.0,0.0
747,63.0,256,256,0.0,0.0
748,63.0,0,512,2.0,0.0
749,62.0,0,256,0.0,0.0
750,50.0,0,512,3.0,0.0
751,65.0,0,512,1.0,0.0
752,38.0,0,512,4.0,0.0
753,65.0,0,512,2.0,0.0
754,63.0,1024,512,0.0,0.0
755,39.0,0,1536,4.0,0.0
756,51.0,512,1536,3.0,0.0
757,67.0,0,1024,2.0,0.0
758,67.0,0,1024,1.0,0.0
759,63.0,512,512,0.0,0.0
760,65.0,0,1536,1.0,0.0
761,65.0,0,1536,2.0,0.0
762,69.0,0,512,0.0,0.0
763,50.0,512,512,3.0,0.0
764,38.0,0,512,4.0,0.0
765,70.0,0,1024,0.0,0.0
766,43.0,0,512,3.0,0.0
767,31.0,512,512,4.0,0.0
768,72.0,256,512,0.0,0.0
769,63.0,0,512,2.0,0.0
770,63.0,0,512,1.0,0.0
771,33.0,0,512,4.0,0.0
772,45.0,0,512,3.0,0.0
773,65.0,256,256,0.0,0.0
774,62.0,256,1024,1.0,0.0
775,46.0,0,512,3.0,0.0
776,62.0,0,1024,2.0,0.0
777,34.0,0,512,4.0,0.0
778,63.0,512,256,0.0,0.0
779,38.0,0,512,3.0,0.0
780,26.0,0,512,4.0,0.0
781,65.0,0,512,0.0,0.0
782,60.0,0,256,2.0,0.0
783,27.0,512,512,4.0,0.0
784,39.0,0,512,3.0,0.0
785,60.0,256,256,1.0,0.0
786,58.0,0,256,2.0,0.0
787,58.0,0,256,1.0,0.0
788,60.0,0,512,1.0,0.0
789,60.0,512,512,2.0,0.0
790,41.0,0,512,3.0,0.0
791,29.0,0,512,4.0,0.0
792,34.0,0,512,4.0,0.0
793,58.0,512,2048,2.0,0.0
794,58.0,0,2048,1.0,0.0
795,46.0,512,512,3.0,0.0
796,33.0,0,512,4.0,0.0
797,45.0,512,512,3.0,0.0
798,34.0,0,512,4.0,0.0
799,46.0,512,512,3.0,0.0
800,70.0,0,512,0.0,0.0
801,48.0,0,512,3.0,0.0
802,36.0,0,512,4.0,0.0
803,38.0,512,512,4.0,0.0
804,50.0,0,512,3.0,0.0
805,70.0,0,1024,0.0,0.0
806,34.0,0,512,4.0,0.0
807,46.0,256,512,3.0,0.0
808,68.0,256,256,0.0,0.0
809,39.0,256,1024,4.0,0.0
810,51.0,0,1024,3.0,0.0
811,67.0,256,256,0.0,0.0
812,65.0,256,256,0.0,0.0
813,63.0,0,256,0.0,0.0
814,65.0,256,256,0.0,0.0
815,34.0,0,1024,4.0,0.0
816,46.0,0,1024,3.0,0.0
817,63.0,256,256,0.0,0.0
818,62.0,256,256,0.0,0.0
819,60.0,512,256,0.0,0.0
820,44.0,256,1024,3.0,0.0
821,58.0,0,1024,1.0,0.0
822,58.0,0,1024,2.0,0.0
823,32.0,0,1024,4.0,0.0
824,58.0,256,512,0.0,0.0
825,60.0,256,256,0.0,0.0
826,62.0,0,256,0.0,0.0
827,63.0,0,1024,2.0,0.0
828,31.0,0,1024,4.0,0.0
829,63.0,0,1024,1.0,0.0
830,43.0,0,1024,3.0,0.0
831,63.0,256,256,0.0,0.0
832,65.0,256,256,0.0,0.0
833,67.0,256,256,0.0,0.0
834,65.0,256,256,0.0,0.0
835,39.0,0,1024,3.0,0.0
836,58.0,0,1024,1.0,0.0
837,58.0,0,1024,2.0,0.0
838,27.0,512,1024,4.0,0.0
839,68.0,256,256,0.0,0.0
840,67.0,256,256,0.0,0.0
841,65.0,256,256,0.0,0.0
842,63.0,0,256,0.0,0.0
843,60.0,512,1024,2.0,0.0
844,32.0,0,512,4.0,0.0
845,44.0,0,512,3.0,0.0
846,60.0,0,1024,1.0,0.0
847,67.0,512,512,0.0,0.0
848,46.0,0,512,3.0,0.0
849,34.0,0,512,4.0,0.0
850,65.0,0,512,0.0,0.0
851,55.0,256,512,2.0,0.0
852,48.0,0,1024,3.0,0.0
853,36.0,0,1024,4.0,0.0
854,55.0,0,512,1.0,0.0
855,56.0,256,256,1.0,0.0
856,56.0,0,256,2.0,0.0
857,58.0,512,256,1.0,0.0
858,58.0,0,256,2.0,0.0
859,41.0,0,1024,3.0,0.0
860,56.0,512,512,1.0,0.0
861,29.0,0,1024,4.0,0.0
862,56.0,0,512,2.0,0.0
863,55.0,0,512,2.0,0.0
864,55.0,512,512,1.0,0.0
865,46.0,512,512,3.0,0.0
866,34.0,0,512,4.0,0.0
867,53.0,0,1024,2.0,0.0
868,53.0,0,1024,1.0,0.0
869,44.0,0,512,3.0,0.0
870,32.0,0,512,4.0,0.0
871,51.0,0,2048,1.0,0.0
872,70.0,1024,0,0.0,0.0
873,31.0,0,1024,4.0,0.0
874,43.0,256,1024,3.0,0.0
875,51.0,0,2048,2.0,0.0
876,48.0,0,1024,3.0,0.0
877,68.0,256,256,0.0,0.0
878,36.0,256,1024,4.0,0.0
879,67.0,256,256,0.0,0.0
880,65.0,256,256,0.0,0.0
881,63.0,0,256,0.0,0.0
882,65.0,256,256,0.0,0.0
883,46.0,512,1024,3.0,0.0
884,34.0,0,1024,4.0,0.0
885,63.0,256,256,0.0,0.0
886,62.0,256,256,0.0,0.0
887,60.0,0,256,0.0,0.0
888,32.0,0,1024,4.0,0.0
889,44.0,256,1024,3.0,0.0
890,58.0,256,512,0.0,0.0
891,60.0,256,256,0.0,0.0
892,62.0,0,256,0.0,0.0
893,31.0,0,1024,4.0,0.0
894,63.0,256,256,0.0,0.0
895,43.0,0,1024,3.0,0.0
896,65.0,256,256,0.0,0.0
897,67.0,256,256,0.0,0.0
898,65.0,256,256,0.0,0.0
899,27.0,512,1024,4.0,0.0
900,39.0,0,1024,3.0,0.0
901,68.0,256,256,0.0,0.0
902,67.0,256,256,0.0,0.0
903,65.0,256,256,0.0,0.0
904,63.0,0,256,0.0,0.0
905,46.0,0,1024,3.0,0.0
906,34.0,1024,1024,4.0,0.0
907,67.0,512,512,0.0,0.0
908,65.0,0,512,0.0,0.0
909,38.0,0,1024,4.0,0.0
910,50.0,0,1024,3.0,0.0
911,58.0,512,512,0.0,0.0
912,51.0,0,1024,3.0,0.0
913,67.0,512,512,0.0,0.0
914,39.0,512,1024,4.0,0.0
915,69.0,512,1024,0.0,0.0
916,38.0,0,1024,4.0,0.0
917,50.0,256,1024,3.0,0.0
918,70.0,0,512,0.0,0.0
919,36.0,0,1024,4.0,0.0
920,63.0,256,256,0.0,0.0
921,48.0,0,1024,3.0,0.0
922,62.0,512,256,0.0,0.0
923,63.0,1024,512,0.0,0.0
924,51.0,0,1024,3.0,0.0
925,39.0,0,1024,4.0,0.0
926,60.0,512,512,0.0,0.0
927,53.0,0,1024,3.0,0.0
928,41.0,512,1024,4.0,0.0
929,69.0,512,512,0.0,0.0
930,70.0,512,1024,0.0,0.0
931,43.0,0,1024,4.0,0.0
932,55.0,256,1024,3.0,0.0
933,72.0,0,512,0.0,0.0
934,45.0,1024,1024,4.0,0.0
935,63.0,256,256,0.0,0.0
936,57.0,0,1024,3.0,0.0
937,62.0,512,256,0.0,0.0
938,63.0,0,512,0.0,0.0
939,41.0,0,1024,4.0,0.0
940,53.0,256,1024,3.0,0.0
941,75.0,0,512,0.0,0.0
942,74.0,256,256,0.0,0.0
943,46.0,0,1024,4.0,0.0
944,58.0,256,1024,3.0,0.0
945,72.0,512,256,0.0,0.0
946,70.0,256,768,0.0,0.0
947,45.0,0,1024,4.0,0.0
948,57.0,256,1024,3.0,0.0
949,69.0,512,256,0.0,0.0
950,70.0,256,768,0.0,0.0
951,43.0,0,1024,4.0,0.0
952,55.0,256,1024,3.0,0.0
953,69.0,256,256,0.0,0.0
954,67.0,256,256,0.0,0.0
955,65.0,0,256,0.0,0.0
956,63.0,256,256,0.0,0.0
957,41.0,0,1024,4.0,0.0
958,53.0,0,1024,3.0,0.0
959,62.0,256,256,0.0,0.0
960,60.0,256,256,0.0,0.0
961,58.0,256,256,0.0,0.0
962,51.0,0,1024,3.0,0.0
963,39.0,0,1024,4.0,0.0
964,60.0,256,256,0.0,0.0
965,62.0,512,256,0.0,0.0
966,50.0,256,1024,3.0,0.0
967,38.0,0,1024,4.0,0.0
968,63.0,256,0,0.0,0.0
969,62.0,512,256,0.0,0.0
970,63.0,256,768,0.0,0.0
971,48.0,0,1024,3.0,0.0
972,36.0,0,1024,4.0,0.0
973,69.0,256,256,0.0,0.0
974,70.0,256,256,0.0,0.0
975,72.0,256,256,0.0,0.0
976,39.0,0,1024,4.0,0.0
977,51.0,0,1024,3.0,0.0
978,70.0,256,256,0.0,0.0
979,69.0,256,256,0.0,0.0
980,67.0,256,256,0.0,0.0
981,65.0,512,256,0.0,0.0
982,50.0,0,512,3.0,0.0
983,70.0,0,512,0.0,0.0
984,38.0,512,512,4.0,0.0
985,46.0,0,512,3.0,0.0
986,34.0,512,512,4.0,0.0
987,65.0,0,512,0.0,0.0
988,53.0,0,512,3.0,0.0
989,41.0,256,512,4.0,0.0
990,62.0,0,512,0.0,0.0
991,41.0,0,512,3.0,0.0
992,29.0,0,512,4.0,0.0
993,60.0,256,256,0.0,0.0
994,58.0,256,0,0.0,0.0
995,31.0,0,512,4.0,0.0
996,43.0,0,512,3.0,0.0
997,63.0,256,256,0.0,0.0
998,33.0,0,512,4.0,0.0
999,45.0,0,512,3.0,0.0
1000,62.0,256,256,0.0,0.0
1001,60.0,512,256,0.0,0.0
1002,62.0,0,512,0.0,0.0
1003,46.0,512,512,3.0,0.0
1004,34.0,0,512,4.0,0.0
1005,26.0,512,512,4.0,0.0
1006,58.0,0,512,0.0,0.0
1007,38.0,0,512,3.0,0.0
1008,39.0,0,512,3.0,0.0
1009,55.0,256,768,0.0,0.0
1010,27.0,256,512,4.0,0.0
1011,24.0,0,512,4.0,0.0
1012,36.0,768,512,3.0,0.0
1013,41.0,0,1024,3.0,0.0
1014,57.0,0,0,0.0,0.0
1015,29.0,0,1024,4.0,0.0
1016,55.0,128,128,0.0,0.0
1017,57.0,512,128,0.0,0.0
1018,34.0,0,512,4.0,0.0
1019,46.0,512,512,3.0,0.0
1020,58.0,512,1024,0.0,0.0
1021,36.0,0,512,4.0,0.0
1022,48.0,0,512,3.0,0.0
1023,58.0,0,1024,2.0,0.0
1024,34.0,512,512,4.0,0.0
1025,46.0,0,512,3.0,0.0
1026,58.0,512,1024,1.0,0.0
1027,62.0,0,512,0.0,0.0
1028,32.0,0,512,4.0,0.0
1029,44.0,0,512,3.0,0.0
1030,31.0,0,512,4.0,0.0
1031,58.0,512,1024,2.0,0.0
1032,43.0,512,512,3.0,0.0
1033,63.0,0,512,0.0,0.0
1034,58.0,0,1024,1.0,0.0
1035,41.0,0,512,3.0,0.0
1036,29.0,0,512,4.0,0.0
1037,65.0,512,1024,0.0,0.0
1038,56.0,0,1024,1.0,0.0
1039,39.0,0,512,3.0,0.0
1040,27.0,0,512,4.0,0.0
1041,56.0,0,1024,2.0,0.0
1042,38.0,0,512,3.0,0.0
1043,67.0,0,512,0.0,0.0
1044,26.0,256,512,4.0,0.0
1045,39.0,0,512,3.0,0.0
1046,55.0,0,1024,1.0,0.0
1047,55.0,0,1024,2.0,0.0
1048,27.0,512,512,4.0,0.0
1049,58.0,256,256,0.0,0.0
1050,56.0,0,256,0.0,0.0
1051,31.0,0,512,4.0,0.0
1052,58.0,512,512,0.0,0.0
1053,43.0,0,512,3.0,0.0
1054,32.0,0,512,4.0,0.0
1055,53.0,0,1024,1.0,0.0
1056,53.0,0,1024,2.0,0.0
1057,44.0,512,512,3.0,0.0
1058,46.0,0,512,3.0,0.0
1059,34.0,0,512,4.0,0.0
1060,70.0,512,512,0.0,0.0
1061,51.0,0,2048,1.0,0.0
1062,36.0,0,512,4.0,0.0
1063,48.0,512,512,3.0,0.0
1064,70.0,0,1024,0.0,0.0
1065,51.0,256,2048,2.0,0.0
1066,50.0,256,512,3.0,0.0
1067,38.0,0,512,4.0,0.0
1068,51.0,0,1024,3.0,0.0
1069,68.0,256,256,0.0,0.0
1070,39.0,0,1024,4.0,0.0
1071,67.0,256,256,0.0,0.0
1072,65.0,256,256,0.0,0.0
1073,63.0,0,256,0.0,0.0
1074,46.0,0,1024,3.0,0.0
1075,34.0,0,1024,4.0,0.0
1076,65.0,256,256,0.0,0.0
1077,63.0,256,256,0.0,0.0
1078,62.0,256,256,0.0,0.0
1079,60.0,512,256,0.0,0.0
1080,32.0,0,1024,4.0,0.0
1081,44.0,256,1024,3.0,0.0
1082,58.0,256,512,0.0,0.0
1083,60.0,256,256,0.0,0.0
1084,62.0,0,256,0.0,0.0
1085,43.0,256,1024,3.0,0.0
1086,31.0,0,1024,4.0,0.0
1087,63.0,256,256,0.0,0.0
1088,65.0,256,256,0.0,0.0
1089,67.0,256,256,0.0,0.0
1090,65.0,0,256,0.0,0.0
1091,39.0,0,1024,3.0,0.0
1092,58.0,0,1024,2.0,0.0
1093,68.0,256,256,0.0,0.0
1094,27.0,0,1024,4.0,0.0
1095,58.0,0,1024,1.0,0.0
1096,67.0,256,256,0.0,0.0
1097,65.0,256,256,0.0,0.0
1098,63.0,512,256,0.0,0.0
1099,58.0,0,1024,2.0,0.0
1100,46.0,512,512,3.0,0.0
1101,34.0,0,512,4.0,0.0
1102,67.0,0,512,0.0,0.0
1103,58.0,512,1024,1.0,0.0
1104,48.0,0,512,3.0,0.0
1105,65.0,0,512,0.0,0.0
1106,36.0,0,512,4.0,0.0
1107,50.0,0,512,3.0,0.0
1108,38.0,512,512,4.0,0.0
1109,56.0,0,1024,2.0,0.0
1110,56.0,0,1024,1.0,0.0
1111,34.0,0,512,4.0,0.0
1112,46.0,512,512,3.0,0.0
1113,39.0,0,512,4.0,0.0
1114,55.0,512,1024,1.0,0.0
1115,51.0,512,512,3.0,0.0
1116,55.0,0,1024,2.0,0.0
1117,50.0,0,512,3.0,0.0
1118,38.0,0,512,4.0,0.0
1119,36.0,512,512,4.0,0.0
1120,53.0,0,1024,2.0,0.0
1121,53.0,0,1024,1.0,0.0
1122,48.0,0,512,3.0,0.0
1123,35.0,256,512,4.0,0.0
1124,47.0,0,512,3.0,0.0
1125,67.0,0,512,0.0,0.0
1126,48.0,512,512,3.0,0.0
1127,51.0,0,2048,1.0,0.0
1128,51.0,512,2048,2.0,0.0
1129,36.0,0,512,4.0,0.0
1130,72.0,256,256,0.0,0.0
1131,74.0,0,256,0.0,0.0
1132,43.0,512,512,4.0,0.0
1133,75.0,0,512,0.0,0.0
1134,55.0,0,512,3.0,0.0
1135,75.0,512,512,0.0,0.0
1136,48.0,0,512,4.0,0.0
1137,60.0,0,512,3.0,0.0
1138,58.0,0,512,3.0,0.0
1139,46.0,0,512,4.0,0.0
1140,74.0,0,512,0.0,0.0
1141,77.0,512,512,0.0,0.0
1142,56.0,0,1024,3.0,0.0
1143,44.0,512,1024,4.0,0.0
1144,75.0,0,512,0.0,0.0
1145,67.0,512,512,0.0,0.0
1146,39.0,0,1024,4.0,0.0
1147,51.0,0,1024,3.0,0.0
1148,65.0,256,512,0.0,0.0
1149,53.0,512,1024,3.0,0.0
1150,41.0,0,1024,4.0,0.0
1151,75.0,256,256,0.0,0.0
1152,72.0,512,256,0.0,0.0
1153,74.0,0,512,0.0,0.0
1154,55.0,0,1024,3.0,0.0
1155,43.0,0,1024,4.0,0.0
1156,65.0,512,512,0.0,0.0
1157,63.0,512,512,0.0,0.0
1158,53.0,0,1024,1.0,0.0
1159,53.0,0,1024,2.0,0.0
1160,44.0,0,512,4.0,0.0
1161,71.0,0,512,0.0,0.0
1162,56.0,512,512,3.0,0.0
1163,72.0,512,512,0.0,0.0
1164,43.0,0,512,4.0,0.0
1165,55.0,0,512,3.0,0.0
1166,53.0,512,512,3.0,0.0
1167,55.0,0,1024,1.0,0.0
1168,41.0,0,512,4.0,0.0
1169,55.0,0,1024,2.0,0.0
1170,51.0,0,512,3.0,0.0
1171,39.0,0,512,4.0,0.0
1172,41.0,0,512,4.0,0.0
1173,56.0,256,2048,1.0,0.0
1174,67.0,512,0,0.0,0.0
1175,56.0,0,2048,2.0,0.0
1176,53.0,512,512,3.0,0.0
1177,39.0,256,512,4.0,0.0
1178,51.0,0,512,3.0,0.0
1179,65.0,256,256,0.0,0.0
1180,38.0,0,512,4.0,0.0
1181,50.0,256,512,3.0,0.0
1182,63.0,0,256,0.0,0.0
1183,36.0,0,512,4.0,0.0
1184,48.0,0,512,3.0,0.0
1185,62.0,256,256,0.0,0.0
1186,60.0,0,256,0.0,0.0
1187,55.0,0,2048,1.0,0.0
1188,55.0,256,2048,2.0,0.0
1189,35.0,256,512,4.0,0.0
1190,47.0,0,512,3.0,0.0
1191,62.0,256,256,0.0,0.0
1192,60.0,0,256,0.0,0.0
1193,59.0,256,256,0.0,0.0
1194,31.0,0,512,4.0,0.0
1195,43.0,512,512,3.0,0.0
1196,57.0,0,256,0.0,0.0
1197,55.0,256,512,0.0,0.0
1198,43.0,0,512,4.0,0.0
1199,55.0,0,512,3.0,0.0
1200,53.0,0,512,3.0,0.0
1201,41.0,0,512,4.0,0.0
1202,57.0,256,256,0.0,0.0
1203,59.0,0,256,0.0,0.0
1204,60.0,256,256,0.0,0.0
1205,51.0,0,1024,3.0,0.0
1206,39.0,0,1024,4.0,0.0
1207,62.0,256,256,0.0,0.0
1208,63.0,256,256,0.0,0.0
1209,62.0,256,256,0.0,0.0
1210,65.0,256,256,0.0,0.0
1211,36.0,512,1024,4.0,0.0
1212,48.0,0,1024,3.0,0.0
1213,63.0,256,256,0.0,0.0
1214,62.0,256,256,0.0,0.0
1215,60.0,0,256,0.0,0.0
1216,63.0,512,512,0.0,0.0
1217,55.0,0,1024,3.0,0.0
1218,43.0,0,1024,4.0,0.0
1219,62.0,1024,512,0.0,0.0
1220,59.0,0,1024,3.0,0.0
1221,47.0,0,1024,4.0,0.0
1222,55.0,512,512,0.0,0.0
1223,63.0,512,512,0.0,0.0
1224,60.0,0,1024,3.0,0.0
1225,48.0,512,1024,4.0,0.0
1226,66.0,512,1024,0.0,0.0
1227,46.0,0,1024,4.0,0.0
1228,58.0,0,1024,3.0,0.0
1229,67.0,256,512,0.0,0.0
1230,60.0,256,256,0.0,0.0
1231,57.0,0,1024,3.0,0.0
1232,45.0,0,1024,4.0,0.0
1233,58.0,512,256,0.0,0.0
1234,60.0,1024,512,0.0,0.0
1235,48.0,0,1024,3.0,0.0
1236,36.0,0,1024,4.0,0.0
1237,57.0,512,512,0.0,0.0
1238,38.0,0,1024,4.0,0.0
1239,50.0,512,1024,3.0,0.0
1240,66.0,512,512,0.0,0.0
1241,67.0,512,1024,0.0,0.0
1242,39.0,0,1024,4.0,0.0
1243,51.0,256,1024,3.0,0.0
1244,69.0,0,512,0.0,0.0
1245,30.0,0,1024,4.0,0.0
1246,60.0,256,256,0.0,0.0
1247,42.0,0,1024,3.0,0.0
1248,58.0,512,256,0.0,0.0
1249,60.0,1024,512,0.0,0.0
1250,26.0,0,1024,4.0,0.0
1251,38.0,256,1024,3.0,0.0
1252,72.0,0,512,0.0,0.0
1253,43.0,256,1024,3.0,0.0
1254,31.0,0,1024,4.0,0.0
1255,70.0,256,256,0.0,0.0
1256,69.0,512,256,0.0,0.0
1257,67.0,256,768,0.0,0.0
1258,41.0,256,1024,3.0,0.0
1259,29.0,0,1024,4.0,0.0
1260,66.0,512,256,0.0,0.0
1261,67.0,256,768,0.0,0.0
1262,39.0,0,1024,4.0,0.0
1263,51.0,256,1024,3.0,0.0
1264,65.0,256,256,0.0,0.0
1265,63.0,256,256,0.0,0.0
1266,62.0,0,256,0.0,0.0
1267,50.0,256,1024,3.0,0.0
1268,38.0,0,1024,4.0,0.0
1269,60.0,256,256,0.0,0.0
1270,58.0,256,256,0.0,0.0
1271,57.0,256,256,0.0,0.0
1272,55.0,0,256,0.0,0.0
1273,57.0,256,256,0.0,0.0
1274,48.0,256,1024,3.0,0.0
1275,36.0,0,1024,4.0,0.0
1276,58.0,512,256,0.0,0.0
1277,60.0,256,768,0.0,0.0
1278,46.0,256,1024,3.0,0.0
1279,34.0,0,1024,4.0,0.0
1280,58.0,512,256,0.0,0.0
1281,60.0,256,768,0.0,0.0
1282,33.0,0,1024,4.0,0.0
1283,45.0,256,1024,3.0,0.0
1284,66.0,256,256,0.0,0.0
1285,67.0,256,256,0.0,0.0
1286,69.0,0,256,0.0,0.0
1287,67.0,256,256,0.0,0.0
1288,36.0,0,1024,4.0,0.0
1289,48.0,512,1024,3.0,0.0
1290,66.0,256,256,0.0,0.0
1291,64.0,256,256,0.0,0.0
1292,62.0,0,256,0.0,0.0
1293,67.0,0,512,0.0,0.0
1294,46.0,0,512,3.0,0.0
1295,34.0,512,512,4.0,0.0
1296,31.0,0,512,4.0,0.0
1297,43.0,0,512,3.0,0.0
1298,62.0,512,512,0.0,0.0
1299,38.0,256,512,4.0,0.0
1300,50.0,0,512,3.0,0.0
1301,58.0,0,512,0.0,0.0
1302,26.0,0,512,4.0,0.0
1303,57.0,256,256,0.0,0.0
1304,38.0,512,512,3.0,0.0
1305,55.0,0,256,0.0,0.0
1306,31.0,512,512,4.0,0.0
1307,43.0,0,512,3.0,0.0
1308,55.0,512,1024,0.0,0.0
1309,39.0,0,512,3.0,0.0
1310,27.0,0,512,4.0,0.0
1311,29.0,0,512,4.0,0.0
1312,41.0,512,512,3.0,0.0
1313,58.0,512,1024,1.0,0.0
1314,58.0,0,1024,2.0,0.0
1315,43.0,0,512,3.0,0.0
1316,31.0,0,512,4.0,0.0
1317,60.0,0,1024,2.0,0.0
1318,44.0,0,512,3.0,0.0
1319,32.0,512,512,4.0,0.0
1320,60.0,512,1024,1.0,0.0
1321,43.0,0,512,3.0,0.0
1322,31.0,0,512,4.0,0.0
1323,32.0,0,512,4.0,0.0
1324,62.0,0,1024,2.0,0.0
1325,44.0,512,512,3.0,0.0
1326,62.0,0,1024,1.0,0.0
1327,34.0,0,512,4.0,0.0
1328,58.0,0,512,0.0,0.0
1329,46.0,256,512,3.0,0.0
1330,63.0,0,2048,1.0,0.0
1331,63.0,0,2048,2.0,0.0
1332,36.0,512,512,4.0,0.0
1333,63.0,256,256,0.0,0.0
1334,48.0,0,512,3.0,0.0
1335,65.0,0,256,0.0,0.0
1336,34.0,0,512,4.0,0.0
1337,67.0,0,512,0.0,0.0
1338,46.0,512,512,3.0,0.0
1339,48.0,0,512,3.0,0.0
1340,36.0,512,512,4.0,0.0
1341,67.0,0,512,0.0,0.0
1342,50.0,0,512,3.0,0.0
1343,65.0,512,512,0.0,0.0
1344,38.0,0,512,4.0,0.0
1345,39.0,0,1024,4.0,0.0
1346,68.0,512,512,0.0,0.0
1347,51.0,0,1024,3.0,0.0
1348,67.0,512,512,0.0,0.0
1349,48.0,0,1024,3.0,0.0
1350,58.0,512,512,0.0,0.0
1351,36.0,0,1024,4.0,0.0
1352,56.0,256,512,0.0,0.0
1353,32.0,0,1024,4.0,0.0
1354,44.0,512,1024,3.0,0.0
1355,67.0,256,256,0.0,0.0
1356,63.0,512,256,0.0,0.0
1357,65.0,0,512,0.0,0.0
1358,56.0,512,512,0.0,0.0
1359,46.0,0,1024,3.0,0.0
1360,34.0,0,1024,4.0,0.0
1361,55.0,512,512,0.0,0.0
1362,48.0,512,512,3.0,0.0
1363,62.0,0,512,0.0,0.0
1364,36.0,0,512,4.0,0.0
1365,63.0,0,512,0.0,0.0
1366,46.0,512,512,3.0,0.0
1367,34.0,0,512,4.0,0.0
1368,48.0,0,512,3.0,0.0
1369,63.0,0,1024,2.0,0.0
1370,63.0,0,1024,1.0,0.0
1371,36.0,512,512,4.0,0.0
1372,50.0,512,512,3.0,0.0
1373,38.0,0,512,4.0,0.0
1374,67.0,0,1024,1.0,0.0
1375,67.0,0,1024,2.0,0.0
1376,39.0,0,512,4.0,0.0
1377,51.0,512,512,3.0,0.0
1378,38.0,0,512,4.0,0.0
1379,50.0,512,512,3.0,0.0
1380,39.0,512,512,4.0,0.0
1381,65.0,0,1024,1.0,0.0
1382,65.0,0,1024,2.0,0.0
1383,51.0,0,512,3.0,0.0
1384,53.0,0,512,3.0,0.0
1385,70.0,512,512,0.0,0.0
1386,41.0,0,512,4.0,0.0
1387,63.0,0,2048,1.0,0.0
1388,63.0,256,2048,2.0,0.0
1389,55.0,0,512,3.0,0.0
1390,43.0,512,512,4.0,0.0
1391,70.0,256,1024,0.0,0.0
1392,53.0,0,512,3.0,0.0
1393,41.0,0,512,4.0,0.0
1394,68.0,256,256,0.0,0.0
1395,43.0,0,512,4.0,0.0
1396,55.0,256,512,3.0,0.0
1397,67.0,0,256,0.0,0.0
1398,65.0,256,256,0.0,0.0
1399,56.0,0,512,3.0,0.0
1400,44.0,0,512,4.0,0.0
1401,63.0,0,256,0.0,0.0
1402,50.0,256,512,3.0,0.0
1403,65.0,256,256,0.0,0.0
1404,38.0,0,512,4.0,0.0
1405,63.0,0,256,0.0,0.0
1406,34.0,0,512,4.0,0.0
1407,46.0,512,512,3.0,0.0
1408,62.0,256,256,0.0,0.0
1409,60.0,0,256,0.0,0.0
1410,58.0,0,512,0.0,0.0
1411,58.0,0,512,3.0,0.0
1412,46.0,256,512,4.0,0.0
1413,44.0,256,512,4.0,0.0
1414,60.0,256,256,0.0,0.0
1415,56.0,0,512,3.0,0.0
1416,62.0,0,256,0.0,0.0
1417,63.0,256,256,0.0,0.0
1418,55.0,0,1024,3.0,0.0
1419,43.0,256,1024,4.0,0.0
1420,65.0,256,256,0.0,0.0
1421,67.0,256,256,0.0,0.0
1422,65.0,0,256,0.0,0.0
1423,39.0,0,1024,4.0,0.0
1424,51.0,0,1024,3.0,0.0
1425,68.0,256,256,0.0,0.0
1426,67.0,256,256,0.0,0.0
1427,65.0,256,256,0.0,0.0
1428,63.0,512,256,0.0,0.0
1429,46.0,0,512,4.0,0.0
1430,58.0,0,512,3.0,0.0
1431,67.0,512,512,0.0,0.0
1432,56.0,0,512,3.0,0.0
1433,44.0,0,512,4.0,0.0
1434,65.0,1024,512,0.0,0.0
1435,55.0,0,1024,3.0,0.0
1436,43.0,0,1024,4.0,0.0
1437,58.0,512,1024,2.0,0.0
1438,58.0,0,1024,1.0,0.0
1439,63.0,0,512,0.0,0.0
1440,63.0,0,1024,1.0,0.0
1441,44.0,0,1024,4.0,0.0
1442,63.0,0,1024,2.0,0.0
1443,56.0,512,1024,3.0,0.0
1444,72.0,512,512,0.0,0.0
1445,74.0,512,1024,0.0,0.0
1446,55.0,0,1024,3.0,0.0
1447,43.0,0,1024,4.0,0.0
1448,58.0,0,1024,1.0,0.0
1449,58.0,256,1024,2.0,0.0
1450,75.0,0,512,0.0,0.0
1451,60.0,0,1024,1.0,0.0
1452,53.0,0,1024,3.0,0.0
1453,41.0,0,1024,4.0,0.0
1454,68.0,256,256,0.0,0.0
1455,60.0,0,1024,2.0,0.0
1456,67.0,512,256,0.0,0.0
1457,68.0,1024,512,0.0,0.0
1458,39.0,0,1024,4.0,0.0
1459,55.0,0,1024,1.0,0.0
1460,55.0,0,1024,2.0,0.0
1461,51.0,0,1024,3.0,0.0
1462,72.0,512,512,0.0,0.0
1463,74.0,0,512,0.0,0.0
1464,56.0,512,512,2.0,0.0
1465,53.0,0,1024,3.0,0.0
1466,56.0,0,512,1.0,0.0
1467,41.0,0,1024,4.0,0.0
1468,55.0,0,512,1.0,0.0
1469,55.0,512,512,2.0,0.0
1470,75.0,512,1024,0.0,0.0
1471,53.0,0,1024,1.0,0.0
1472,46.0,0,1024,3.0,0.0
1473,53.0,0,1024,2.0,0.0
1474,34.0,256,1024,4.0,0.0
1475,77.0,0,512,0.0,0.0
1476,51.0,0,4096,1.0,0.0
1477,36.0,0,1024,4.0,0.0
1478,48.0,1024,1024,3.0,0.0
1479,68.0,256,256,0.0,0.0
1480,51.0,256,4096,2.0,0.0
1481,67.0,512,256,0.0,0.0
1482,68.0,0,512,0.0,0.0
1483,44.0,0,1024,3.0,0.0
1484,32.0,0,1024,4.0,0.0
1485,65.0,256,512,0.0,0.0
1486,34.0,0,1024,4.0,0.0
1487,46.0,256,1024,3.0,0.0
1488,67.0,256,256,0.0,0.0
1489,65.0,512,256,0.0,0.0
1490,63.0,256,768,0.0,0.0
1491,43.0,0,1024,3.0,0.0
1492,31.0,0,1024,4.0,0.0
1493,62.0,512,256,0.0,0.0
1494,63.0,256,768,0.0,0.0
1495,32.0,0,512,4.0,0.0
1496,44.0,0,512,3.0,0.0
1497,73.0,256,256,0.0,0.0
1498,43.0,256,512,3.0,0.0
1499,72.0,256,256,0.0,0.0
1500,31.0,0,512,4.0,0.0
1501,70.0,0,256,0.0,0.0
1502,29.0,256,512,4.0,0.0
1503,41.0,0,512,3.0,0.0
1504,68.0,256,256,0.0,0.0
1505,67.0,0,256,0.0,0.0
1506,39.0,256,512,3.0,0.0
1507,65.0,256,256,0.0,0.0
1508,27.0,0,512,4.0,0.0
1509,63.0,0,256,0.0,0.0
1510,65.0,256,256,0.0,0.0
1511,26.0,256,1024,4.0,0.0
1512,38.0,0,1024,3.0,0.0
1513,67.0,512,256,0.0,0.0
1514,68.0,256,768,0.0,0.0
1515,41.0,256,1024,3.0,0.0
1516,29.0,0,1024,4.0,0.0
1517,67.0,512,256,0.0,0.0
1518,68.0,256,768,0.0,0.0
1519,46.0,0,512,3.0,0.0
1520,34.0,0,512,4.0,0.0
1521,62.0,256,256,0.0,0.0
1522,48.0,0,512,3.0,0.0
1523,36.0,0,512,4.0,0.0
1524,63.0,256,256,0.0,0.0
1525,65.0,256,256,0.0,0.0
1526,34.0,256,512,4.0,0.0
1527,63.0,256,256,0.0,0.0
1528,46.0,0,512,3.0,0.0
1529,62.0,0,256,0.0,0.0
1530,60.0,256,256,0.0,0.0
1531,44.0,0,512,3.0,0.0
1532,32.0,0,512,4.0,0.0
1533,58.0,512,256,0.0,0.0
1534,43.0,0,512,3.0,0.0
1535,31.0,0,512,4.0,0.0
1536,70.0,512,512,0.0,0.0
1537,48.0,256,512,3.0,0.0
1538,36.0,0,512,4.0,0.0
1539,63.0,0,512,0.0,0.0
1540,32.0,0,512,4.0,0.0
1541,67.0,256,256,0.0,0.0
1542,44.0,0,512,3.0,0.0
1543,65.0,256,256,0.0,0.0
1544,34.0,0,512,4.0,0.0
1545,46.0,256,512,3.0,0.0
1546,63.0,256,256,0.0,0.0
1547,62.0,0,256,0.0,0.0
1548,63.0,256,256,0.0,0.0
1549,48.0,0,512,3.0,0.0
1550,36.0,0,512,4.0,0.0
1551,68.0,256,256,0.0,0.0
1552,50.0,0,512,3.0,0.0
1553,38.0,512,512,4.0,0.0
1554,67.0,256,256,0.0,0.0
1555,65.0,0,256,0.0,0.0
1556,39.0,0,512,4.0,0.0
1557,67.0,512,512,0.0,0.0
1558,51.0,0,512,3.0,0.0
1559,63.0,0,512,0.0,0.0
1560,43.0,512,512,4.0,0.0
1561,55.0,0,512,3.0,0.0
1562,44.0,256,512,4.0,0.0
1563,60.0,256,768,0.0,0.0
1564,56.0,0,512,3.0,0.0
1565,53.0,0,512,3.0,0.0
1566,41.0,512,512,4.0,0.0
1567,58.0,0,512,3.0,0.0
1568,62.0,0,0,0.0,0.0
1569,46.0,256,512,4.0,0.0
1570,34.0,0,512,4.0,0.0
1571,46.0,0,512,3.0,0.0
1572,27.0,0,4096,4.0,0.0
1573,51.0,0,4096,3.0,0.0
1574,39.0,0,4096,3.0,0.0
1575,39.0,0,4096,4.0,0.0
1576,63.0,4096,0,0.0,0.0
