,note,step,duration,channel,velocity
0,55.0,0,512,3.0,96.0
1,67.0,0,512,1.0,96.0
2,58.0,0,512,2.0,96.0
3,57.0,512,512,3.0,96.0
4,60.0,0,512,2.0,96.0
5,66.0,0,512,1.0,96.0
6,74.0,0,1024,0.0,96.0
7,58.0,0,512,3.0,96.0
8,60.0,512,512,3.0,96.0
9,74.0,0,1024,0.0,96.0
10,67.0,0,1024,1.0,96.0
11,62.0,512,1024,2.0,96.0
12,66.0,0,1024,1.0,96.0
13,62.0,0,1024,3.0,96.0
14,69.0,512,1024,0.0,96.0
15,62.0,0,1024,2.0,96.0
16,60.0,0,512,3.0,96.0
17,62.0,0,1024,2.0,96.0
18,67.0,0,1024,1.0,96.0
19,58.0,512,512,3.0,96.0
20,70.0,1024,1024,0.0,96.0
21,67.0,0,512,1.0,96.0
22,72.0,0,1024,0.0,96.0
23,57.0,0,1024,3.0,96.0
24,66.0,512,512,1.0,96.0
25,60.0,512,1024,2.0,96.0
26,70.0,512,512,0.0,96.0
27,62.0,0,1024,2.0,96.0
28,67.0,0,1024,1.0,96.0
29,55.0,0,1024,3.0,96.0
30,69.0,0,0,0.0,96.0
31,48.0,0,1024,3.0,96.0
32,63.0,512,1024,2.0,96.0
33,67.0,0,1024,1.0,96.0
34,62.0,0,512,2.0,96.0
35,66.0,1024,1024,1.0,96.0
36,60.0,512,512,2.0,96.0
37,50.0,0,1024,3.0,96.0
38,62.0,0,2048,1.0,96.0
39,43.0,0,2048,3.0,96.0
40,58.0,0,2048,2.0,96.0
41,67.0,512,2048,0.0,96.0
42,55.0,0,512,3.0,96.0
43,70.0,0,1024,0.0,96.0
44,62.0,2048,1024,2.0,96.0
45,53.0,512,512,3.0,96.0
46,67.0,512,0,1.0,96.0
47,51.0,0,512,3.0,96.0
48,65.0,512,512,1.0,96.0
49,50.0,0,512,3.0,96.0
50,55.0,0,0,2.0,96.0
51,70.0,0,1024,0.0,96.0
52,48.0,0,512,3.0,96.0
53,63.0,512,512,1.0,96.0
54,62.0,0,512,1.0,96.0
55,54.0,0,512,2.0,96.0
56,50.0,512,512,3.0,96.0
57,69.0,0,1024,0.0,96.0
58,62.0,0,512,1.0,96.0
59,55.0,0,1024,2.0,96.0
60,67.0,0,1024,0.0,96.0
61,51.0,512,1024,3.0,96.0
62,60.0,512,512,1.0,96.0
63,57.0,512,512,2.0,96.0
64,66.0,0,1024,0.0,96.0
65,60.0,512,512,2.0,96.0
66,60.0,0,1024,1.0,96.0
67,45.0,0,1024,3.0,96.0
68,58.0,0,512,2.0,96.0
69,62.0,512,1024,1.0,96.0
70,55.0,512,512,2.0,96.0
71,43.0,0,1024,3.0,96.0
72,67.0,0,1024,0.0,96.0
73,62.0,0,4096,1.0,96.0
74,69.0,0,4096,0.0,96.0
75,54.0,512,4096,2.0,96.0
76,50.0,0,4096,3.0,96.0
77,67.0,4096,512,1.0,96.0
78,58.0,0,512,2.0,96.0
79,55.0,0,512,3.0,96.0
80,60.0,512,512,2.0,96.0
81,57.0,0,512,3.0,96.0
82,66.0,0,512,1.0,96.0
83,74.0,0,1024,0.0,96.0
84,58.0,0,512,3.0,96.0
85,62.0,0,1024,2.0,96.0
86,74.0,0,1024,0.0,96.0
87,67.0,512,1024,1.0,96.0
88,60.0,512,512,3.0,96.0
89,62.0,0,0,2.0,96.0
90,69.0,512,1024,0.0,96.0
91,62.0,0,1024,3.0,96.0
92,66.0,0,1024,1.0,96.0
93,60.0,0,512,3.0,96.0
94,58.0,512,512,3.0,96.0
95,67.0,0,1024,1.0,96.0
96,70.0,1024,1024,0.0,96.0
97,67.0,0,512,1.0,96.0
98,72.0,0,1024,0.0,96.0
99,60.0,512,1024,2.0,96.0
100,66.0,512,512,1.0,96.0
101,57.0,0,1024,3.0,96.0
102,70.0,512,512,0.0,96.0
103,55.0,0,1024,3.0,96.0
104,67.0,0,1024,1.0,96.0
105,69.0,0,0,0.0,96.0
106,62.0,0,1024,2.0,96.0
107,63.0,512,1024,2.0,96.0
108,48.0,0,1024,3.0,96.0
109,67.0,0,1024,1.0,96.0
110,62.0,0,512,2.0,96.0
111,50.0,1024,1024,3.0,96.0
112,60.0,512,512,2.0,96.0
113,66.0,0,1024,1.0,96.0
114,43.0,0,2048,3.0,96.0
115,58.0,512,2048,2.0,96.0
116,62.0,0,2048,1.0,96.0
117,67.0,0,2048,0.0,96.0
118,55.0,2048,512,3.0,96.0
119,62.0,0,1024,2.0,96.0
120,70.0,512,0,0.0,96.0
121,67.0,0,0,1.0,96.0
122,53.0,512,512,3.0,96.0
123,51.0,0,512,3.0,96.0
124,50.0,0,512,3.0,96.0
125,55.0,0,1024,2.0,96.0
126,65.0,512,512,1.0,96.0
127,48.0,512,512,3.0,96.0
128,63.0,0,512,1.0,96.0
129,55.0,0,512,2.0,96.0
130,69.0,0,1024,0.0,96.0
131,54.0,0,512,2.0,96.0
132,62.0,512,512,1.0,96.0
133,50.0,0,512,3.0,96.0
134,62.0,0,512,1.0,96.0
135,60.0,512,512,1.0,96.0
136,55.0,0,1024,2.0,96.0
137,67.0,512,1024,0.0,96.0
138,51.0,0,1024,3.0,96.0
139,57.0,0,512,2.0,96.0
140,66.0,512,1024,0.0,96.0
141,45.0,0,1024,3.0,96.0
142,60.0,512,512,2.0,96.0
143,60.0,0,1024,1.0,96.0
144,58.0,0,512,2.0,96.0
145,43.0,0,1024,3.0,96.0
146,67.0,512,1024,0.0,96.0
147,62.0,0,0,1.0,96.0
148,55.0,512,512,2.0,96.0
149,50.0,0,4096,3.0,96.0
150,54.0,512,4096,2.0,96.0
151,69.0,0,4096,0.0,96.0
152,66.0,0,1024,1.0,96.0
153,69.0,0,1024,0.0,96.0
154,50.0,4096,1024,3.0,96.0
155,62.0,0,0,2.0,96.0
156,55.0,0,512,3.0,96.0
157,67.0,1024,1024,1.0,96.0
158,70.0,0,1024,0.0,96.0
159,53.0,512,512,3.0,96.0
160,52.0,0,1024,3.0,96.0
161,67.0,0,1024,1.0,96.0
162,60.0,512,1024,2.0,96.0
163,72.0,0,1024,0.0,96.0
164,53.0,0,512,3.0,96.0
165,65.0,0,0,1.0,96.0
166,60.0,0,1024,2.0,96.0
167,52.0,512,512,3.0,96.0
168,69.0,1024,1024,0.0,96.0
169,58.0,512,512,2.0,96.0
170,60.0,512,512,2.0,96.0
171,50.0,0,1024,3.0,96.0
172,70.0,0,1024,0.0,96.0
173,48.0,0,512,3.0,96.0
174,69.0,0,512,0.0,96.0
175,46.0,512,512,3.0,96.0
176,62.0,512,1024,2.0,96.0
177,67.0,0,0,0.0,96.0
178,65.0,0,1024,1.0,96.0
179,65.0,0,1024,1.0,96.0
180,60.0,512,1536,2.0,96.0
181,48.0,0,2048,3.0,96.0
182,64.0,1024,1024,1.0,96.0
183,58.0,512,512,2.0,96.0
184,60.0,0,2048,1.0,96.0
185,65.0,0,2048,0.0,96.0
186,41.0,512,2048,3.0,96.0
187,57.0,0,2048,2.0,96.0
188,62.0,0,1024,2.0,96.0
189,65.0,0,0,1.0,96.0
190,70.0,0,1024,0.0,96.0
191,50.0,0,1024,3.0,96.0
192,57.0,1024,1024,2.0,96.0
193,53.0,0,1024,3.0,96.0
194,72.0,0,1024,0.0,96.0
195,65.0,0,512,1.0,96.0
196,58.0,0,512,3.0,96.0
197,63.0,0,512,1.0,96.0
198,60.0,512,512,3.0,96.0
199,58.0,0,0,2.0,96.0
200,74.0,0,1024,0.0,96.0
201,62.0,512,512,3.0,96.0
202,65.0,0,512,1.0,96.0
203,62.0,0,512,1.0,96.0
204,58.0,512,0,2.0,96.0
205,70.0,0,1024,0.0,96.0
206,58.0,512,512,3.0,96.0
207,55.0,0,512,3.0,96.0
208,67.0,0,1024,1.0,96.0
209,75.0,0,1024,0.0,96.0
210,57.0,512,512,3.0,96.0
211,60.0,0,512,2.0,96.0
212,58.0,0,512,3.0,96.0
213,62.0,0,512,2.0,96.0
214,67.0,512,1024,1.0,96.0
215,74.0,0,1024,0.0,96.0
216,58.0,512,512,2.0,96.0
217,55.0,0,512,3.0,96.0
218,55.0,0,512,2.0,96.0
219,51.0,512,512,3.0,96.0
220,63.0,512,512,2.0,96.0
221,67.0,0,1024,1.0,96.0
222,48.0,0,512,3.0,96.0
223,65.0,0,512,1.0,96.0
224,72.0,0,2048,0.0,96.0
225,63.0,512,512,1.0,96.0
226,53.0,512,1024,3.0,96.0
227,57.0,0,1024,2.0,96.0
228,46.0,0,2048,3.0,96.0
229,58.0,0,2048,2.0,96.0
230,70.0,512,2048,0.0,96.0
231,62.0,0,2048,1.0,96.0
232,69.0,0,1024,0.0,96.0
233,53.0,2048,1024,3.0,96.0
234,60.0,0,1024,2.0,96.0
235,65.0,0,1024,1.0,96.0
236,63.0,0,512,1.0,96.0
237,55.0,1024,1024,3.0,96.0
238,62.0,512,512,1.0,96.0
239,70.0,0,1024,0.0,96.0
240,58.0,0,1024,2.0,96.0
241,65.0,0,512,2.0,96.0
242,60.0,0,1024,1.0,96.0
243,63.0,512,512,2.0,96.0
244,72.0,512,1024,0.0,96.0
245,57.0,0,1024,3.0,96.0
246,65.0,0,512,1.0,96.0
247,58.0,0,512,3.0,96.0
248,57.0,0,512,3.0,96.0
249,67.0,512,512,1.0,96.0
250,74.0,0,1024,0.0,96.0
251,62.0,512,1024,2.0,96.0
252,55.0,512,512,3.0,96.0
253,69.0,0,1024,1.0,96.0
254,62.0,512,0,2.0,96.0
255,72.0,0,1024,0.0,96.0
256,54.0,512,512,3.0,96.0
257,55.0,0,1024,3.0,96.0
258,67.0,0,1024,1.0,96.0
259,70.0,0,1024,0.0,96.0
260,50.0,1024,2048,3.0,96.0
261,66.0,0,2048,1.0,96.0
262,69.0,0,2048,0.0,96.0
263,62.0,0,0,2.0,96.0
264,58.0,2048,512,3.0,96.0
265,67.0,0,1024,1.0,96.0
266,67.0,0,1024,0.0,96.0
267,57.0,512,512,3.0,96.0
268,55.0,512,512,3.0,96.0
269,69.0,0,1024,0.0,96.0
270,54.0,512,512,3.0,96.0
271,62.0,0,1024,1.0,96.0
272,62.0,0,1024,2.0,96.0
273,55.0,0,512,3.0,96.0
274,70.0,0,1024,0.0,96.0
275,62.0,0,1024,2.0,96.0
276,67.0,0,0,1.0,96.0
277,53.0,512,512,3.0,96.0
278,60.0,0,512,2.0,96.0
279,51.0,0,512,3.0,96.0
280,72.0,512,512,0.0,96.0
281,70.0,0,512,0.0,96.0
282,62.0,0,512,2.0,96.0
283,50.0,512,512,3.0,96.0
284,48.0,0,512,3.0,96.0
285,63.0,512,512,2.0,96.0
286,45.0,512,512,3.0,96.0
287,67.0,0,1024,1.0,96.0
288,60.0,0,512,2.0,96.0
289,69.0,0,1536,0.0,96.0
290,57.0,512,512,2.0,96.0
291,62.0,512,512,2.0,96.0
292,66.0,0,1024,1.0,96.0
293,67.0,0,0,0.0,96.0
294,50.0,0,1024,3.0,96.0
295,62.0,0,2048,1.0,96.0
296,43.0,0,2048,3.0,96.0
297,59.0,512,2048,2.0,96.0
