,note,step,duration,channel,velocity
0,27.0,0,1024,4.0,0.0
1,39.0,768,1024,3.0,0.0
2,51.0,0,1024,3.0,0.0
3,67.0,0,768,1.0,0.0
4,58.0,256,768,2.0,0.0
5,39.0,768,1024,4.0,0.0
6,68.0,0,256,1.0,0.0
7,60.0,0,256,2.0,0.0
8,46.0,512,1024,3.0,0.0
9,65.0,128,768,1.0,0.0
10,56.0,0,768,2.0,0.0
11,34.0,0,1024,4.0,0.0
12,63.0,128,128,1.0,0.0
13,55.0,0,128,2.0,0.0
14,56.0,0,128,2.0,0.0
15,65.0,0,128,1.0,0.0
16,63.0,512,512,1.0,0.0
17,55.0,512,1024,2.0,0.0
18,36.0,0,1024,4.0,0.0
19,48.0,0,1024,3.0,0.0
20,65.0,0,512,1.0,0.0
21,48.0,0,1024,4.0,0.0
22,67.0,256,512,1.0,0.0
23,60.0,768,1024,3.0,0.0
24,63.0,256,768,2.0,0.0
25,68.0,0,512,1.0,0.0
26,65.0,0,256,2.0,0.0
27,61.0,128,768,2.0,0.0
28,70.0,512,1536,1.0,0.0
29,55.0,0,1024,3.0,0.0
30,43.0,512,1024,4.0,0.0
31,60.0,128,128,2.0,0.0
32,61.0,0,128,2.0,0.0
33,56.0,512,1024,3.0,0.0
34,44.0,0,1024,4.0,0.0
35,60.0,512,1536,2.0,0.0
36,72.0,0,512,1.0,0.0
37,41.0,512,1024,4.0,0.0
38,68.0,256,1536,1.0,0.0
39,53.0,0,1024,3.0,0.0
40,58.0,0,512,2.0,0.0
41,46.0,0,1024,4.0,0.0
42,58.0,512,1024,3.0,0.0
43,60.0,0,512,2.0,0.0
44,67.0,256,256,1.0,0.0
45,62.0,0,512,2.0,0.0
46,68.0,0,256,1.0,0.0
47,51.0,0,1024,3.0,0.0
48,63.0,0,1024,2.0,0.0
49,67.0,512,512,1.0,0.0
50,39.0,768,1024,4.0,0.0
51,65.0,0,512,1.0,0.0
52,38.0,0,1024,4.0,0.0
53,50.0,0,1024,3.0,0.0
54,67.0,0,768,1.0,0.0
55,58.0,256,768,2.0,0.0
56,68.0,0,256,1.0,0.0
57,36.0,512,1024,4.0,0.0
58,60.0,768,0,2.0,0.0
59,48.0,0,1024,3.0,0.0
60,68.0,128,768,1.0,0.0
61,58.0,128,128,2.0,0.0
62,67.0,0,128,1.0,0.0
63,68.0,0,128,1.0,0.0
64,60.0,0,128,2.0,0.0
65,70.0,512,3584,1.0,0.0
66,46.0,0,2048,3.0,0.0
67,62.0,512,512,2.0,0.0
68,34.0,0,2048,4.0,0.0
69,60.0,768,512,2.0,0.0
70,62.0,256,768,2.0,0.0
71,36.0,0,1024,4.0,0.0
72,48.0,0,1024,3.0,0.0
73,63.0,768,0,2.0,0.0
74,62.0,128,128,2.0,0.0
75,63.0,512,128,2.0,0.0
76,38.0,0,1024,4.0,0.0
77,65.0,512,1536,2.0,0.0
78,50.0,0,1024,3.0,0.0
79,68.0,512,512,1.0,0.0
80,39.0,0,1024,4.0,0.0
81,51.0,512,1024,3.0,0.0
82,67.0,0,1024,1.0,0.0
83,63.0,0,512,2.0,0.0
84,41.0,0,2048,4.0,0.0
85,65.0,0,512,1.0,0.0
86,53.0,0,2048,3.0,0.0
87,62.0,512,512,2.0,0.0
88,63.0,512,512,1.0,0.0
89,60.0,0,512,2.0,0.0
90,58.0,0,1536,2.0,0.0
91,62.0,512,512,1.0,0.0
92,68.0,512,512,1.0,0.0
93,51.0,0,2048,3.0,0.0
94,39.0,0,2048,4.0,0.0
95,67.0,512,512,1.0,0.0
96,65.0,512,512,1.0,0.0
97,55.0,0,512,2.0,0.0
98,60.0,512,1536,2.0,0.0
99,63.0,512,512,1.0,0.0
100,67.0,512,512,1.0,0.0
101,50.0,0,1536,3.0,0.0
102,38.0,512,1536,4.0,0.0
103,65.0,0,512,1.0,0.0
104,63.0,512,512,1.0,0.0
105,53.0,0,512,2.0,0.0
106,62.0,0,512,1.0,0.0
107,58.0,0,3072,2.0,0.0
108,44.0,0,512,4.0,0.0
109,56.0,0,512,3.0,0.0
110,65.0,512,512,1.0,0.0
111,43.0,0,512,4.0,0.0
112,55.0,512,512,3.0,0.0
113,63.0,0,512,1.0,0.0
114,41.0,0,512,4.0,0.0
115,62.0,0,512,1.0,0.0
116,53.0,512,512,3.0,0.0
117,60.0,0,512,1.0,0.0
118,51.0,0,512,3.0,0.0
119,39.0,512,512,4.0,0.0
120,62.0,0,512,1.0,0.0
121,50.0,0,512,3.0,0.0
122,38.0,512,512,4.0,0.0
123,63.0,512,1024,1.0,0.0
124,57.0,0,1536,2.0,0.0
125,48.0,512,512,3.0,0.0
126,36.0,0,512,4.0,0.0
127,43.0,0,512,4.0,0.0
128,55.0,0,512,3.0,0.0
129,41.0,0,512,4.0,0.0
130,62.0,256,512,1.0,0.0
131,53.0,0,512,3.0,0.0
132,51.0,0,512,3.0,0.0
133,55.0,256,256,2.0,0.0
134,39.0,512,512,4.0,0.0
135,60.0,0,512,1.0,0.0
136,57.0,0,256,2.0,0.0
137,58.0,256,1536,1.0,0.0
138,58.0,512,512,2.0,0.0
139,50.0,0,1024,3.0,0.0
140,38.0,512,1024,4.0,0.0
141,56.0,0,512,2.0,0.0
142,55.0,256,768,2.0,0.0
143,51.0,768,1024,3.0,0.0
144,39.0,0,1024,4.0,0.0
145,60.0,0,512,1.0,0.0
146,56.0,0,256,2.0,0.0
147,53.0,128,768,2.0,0.0
148,62.0,0,1024,1.0,0.0
149,35.0,512,1024,4.0,0.0
150,47.0,0,1024,3.0,0.0
151,51.0,128,128,2.0,0.0
152,53.0,0,128,2.0,0.0
153,51.0,0,512,2.0,0.0
154,48.0,0,1024,3.0,0.0
155,60.0,512,512,1.0,0.0
156,67.0,0,3072,0.0,0.0
157,53.0,0,512,2.0,0.0
158,62.0,512,512,1.0,0.0
159,36.0,0,0,4.0,0.0
160,55.0,512,512,2.0,0.0
161,63.0,0,3072,1.0,0.0
162,48.0,0,1024,3.0,0.0
163,56.0,0,512,2.0,0.0
164,43.0,0,1024,3.0,0.0
165,58.0,512,512,2.0,0.0
166,31.0,0,1024,4.0,0.0
167,51.0,512,512,2.0,0.0
168,44.0,0,1024,3.0,0.0
169,65.0,0,3072,0.0,0.0
170,60.0,512,512,2.0,0.0
171,32.0,0,1024,4.0,0.0
172,58.0,512,512,2.0,0.0
173,62.0,0,512,1.0,0.0
174,29.0,0,1024,4.0,0.0
175,41.0,0,1024,3.0,0.0
176,56.0,512,512,2.0,0.0
177,60.0,0,512,2.0,0.0
178,60.0,512,512,1.0,0.0
179,62.0,256,1536,1.0,0.0
180,58.0,512,512,2.0,0.0
181,46.0,0,1024,3.0,0.0
182,34.0,512,1024,4.0,0.0
183,56.0,0,512,2.0,0.0
184,63.0,0,2048,0.0,0.0
185,36.0,0,1024,3.0,0.0
186,55.0,512,1536,2.0,0.0
187,24.0,512,1024,4.0,0.0
188,60.0,256,256,1.0,0.0
189,59.0,0,256,1.0,0.0
190,60.0,0,1024,1.0,0.0
191,48.0,0,1024,3.0,0.0
192,36.0,0,1024,4.0,0.0
193,56.0,512,512,2.0,0.0
194,38.0,0,1024,4.0,0.0
195,65.0,128,768,0.0,0.0
196,58.0,256,1536,1.0,0.0
197,50.0,0,1024,3.0,0.0
198,55.0,256,512,2.0,0.0
199,53.0,0,512,2.0,0.0
200,67.0,128,128,0.0,0.0
201,68.0,512,128,0.0,0.0
202,51.0,0,1024,3.0,0.0
203,51.0,0,1024,2.0,0.0
204,39.0,512,1024,4.0,0.0
205,67.0,256,768,0.0,0.0
206,63.0,0,512,1.0,0.0
207,62.0,256,512,1.0,0.0
208,53.0,0,1024,3.0,0.0
209,41.0,0,1024,4.0,0.0
210,68.0,0,0,0.0,0.0
211,60.0,0,512,1.0,0.0
212,67.0,128,128,0.0,0.0
213,68.0,512,128,0.0,0.0
214,58.0,512,512,1.0,0.0
215,43.0,256,1024,4.0,0.0
216,70.0,256,1280,0.0,0.0
217,55.0,0,1024,3.0,0.0
218,67.0,0,512,1.0,0.0
219,65.0,256,512,1.0,0.0
220,44.0,512,1024,4.0,0.0
221,56.0,0,1024,3.0,0.0
222,73.0,0,256,0.0,0.0
223,63.0,0,512,1.0,0.0
224,72.0,256,256,0.0,0.0
225,70.0,0,256,0.0,0.0
226,68.0,256,1536,0.0,0.0
227,62.0,512,512,1.0,0.0
228,41.0,0,1024,4.0,0.0
229,53.0,0,1024,3.0,0.0
230,63.0,512,512,1.0,0.0
231,46.0,0,1024,4.0,0.0
232,58.0,0,1024,3.0,0.0
233,60.0,0,512,1.0,0.0
234,62.0,0,512,1.0,0.0
235,67.0,256,256,0.0,0.0
236,68.0,512,256,0.0,0.0
237,39.0,0,2048,4.0,0.0
238,63.0,512,512,1.0,0.0
239,51.0,0,2048,3.0,0.0
240,67.0,0,5120,0.0,0.0
241,65.0,512,512,1.0,0.0
242,67.0,768,1024,2.0,0.0
243,67.0,512,512,1.0,0.0
244,68.0,0,512,1.0,0.0
245,38.0,0,1024,4.0,0.0
246,71.0,0,1024,1.0,0.0
247,65.0,128,768,2.0,0.0
248,50.0,0,1024,3.0,0.0
249,63.0,128,128,2.0,0.0
250,65.0,512,128,2.0,0.0
251,72.0,0,512,1.0,0.0
252,36.0,0,1024,4.0,0.0
253,48.0,512,1024,3.0,0.0
254,63.0,512,512,2.0,0.0
255,60.0,0,512,2.0,0.0
256,63.0,0,512,1.0,0.0
257,62.0,256,512,2.0,0.0
258,48.0,0,1024,4.0,0.0
259,65.0,256,768,1.0,0.0
260,60.0,0,1024,3.0,0.0
261,65.0,0,512,2.0,0.0
262,46.0,0,1024,4.0,0.0
263,67.0,512,0,1.0,0.0
264,58.0,0,1024,3.0,0.0
265,63.0,256,512,2.0,0.0
266,62.0,0,512,2.0,0.0
267,65.0,128,128,1.0,0.0
268,67.0,512,128,1.0,0.0
269,60.0,512,512,2.0,0.0
270,56.0,768,1024,3.0,0.0
271,44.0,0,1024,4.0,0.0
272,68.0,512,3584,1.0,0.0
273,58.0,0,512,2.0,0.0
274,44.0,0,1024,3.0,0.0
275,60.0,256,768,2.0,0.0
276,32.0,0,1024,4.0,0.0
277,61.0,768,256,2.0,0.0
278,46.0,512,1024,3.0,0.0
279,61.0,128,768,2.0,0.0
280,34.0,0,1024,4.0,0.0
281,60.0,128,128,2.0,0.0
282,61.0,0,128,2.0,0.0
283,36.0,512,1024,4.0,0.0
284,48.0,0,1024,3.0,0.0
285,63.0,0,1024,2.0,0.0
286,72.0,0,512,1.0,0.0
287,49.0,512,1024,3.0,0.0
288,70.0,512,512,1.0,0.0
289,37.0,0,1024,4.0,0.0
290,65.0,0,1024,2.0,0.0
291,68.0,0,512,1.0,0.0
292,58.0,512,1024,2.0,0.0
293,67.0,512,512,1.0,0.0
294,51.0,0,2048,3.0,0.0
295,39.0,512,2048,4.0,0.0
296,70.0,0,512,1.0,0.0
297,60.0,0,2048,2.0,0.0
298,68.0,512,512,1.0,0.0
299,67.0,0,512,1.0,0.0
300,49.0,0,2048,3.0,0.0
301,65.0,512,512,1.0,0.0
302,37.0,512,2048,4.0,0.0
303,68.0,512,512,1.0,0.0
304,58.0,512,1536,2.0,0.0
305,67.0,512,512,1.0,0.0
306,65.0,0,512,1.0,0.0
307,48.0,512,2048,3.0,0.0
308,36.0,0,2048,4.0,0.0
309,64.0,0,1536,1.0,0.0
310,61.0,512,512,2.0,0.0
311,60.0,512,512,2.0,0.0
312,58.0,0,512,2.0,0.0
313,64.0,0,512,1.0,0.0
314,37.0,0,1024,4.0,0.0
315,49.0,512,1024,3.0,0.0
316,56.0,0,512,2.0,0.0
317,65.0,512,512,1.0,0.0
318,55.0,0,512,2.0,0.0
319,64.0,0,512,1.0,0.0
320,34.0,0,1024,4.0,0.0
321,56.0,0,512,2.0,0.0
322,65.0,512,512,1.0,0.0
323,46.0,0,1024,3.0,0.0
324,58.0,0,512,2.0,0.0
325,67.0,512,512,1.0,0.0
326,55.0,512,512,2.0,0.0
327,48.0,0,1024,3.0,0.0
328,36.0,512,1024,4.0,0.0
329,64.0,0,1536,1.0,0.0
330,61.0,0,512,2.0,0.0
331,60.0,256,512,2.0,0.0
332,36.0,0,1024,3.0,0.0
333,24.0,0,1024,4.0,0.0
334,62.0,256,256,1.0,0.0
335,58.0,0,512,2.0,0.0
336,64.0,512,256,1.0,0.0
337,56.0,512,512,2.0,0.0
338,29.0,512,1024,4.0,0.0
339,65.0,0,2048,1.0,0.0
340,41.0,0,1024,3.0,0.0
341,55.0,0,512,2.0,0.0
342,41.0,0,1024,4.0,0.0
343,53.0,0,1024,3.0,0.0
344,56.0,512,512,2.0,0.0
345,53.0,512,512,2.0,0.0
346,39.0,0,1024,4.0,0.0
347,51.0,512,1024,3.0,0.0
348,55.0,512,512,2.0,0.0
349,57.0,0,512,2.0,0.0
350,50.0,0,2048,3.0,0.0
351,58.0,512,512,2.0,0.0
352,38.0,256,2048,4.0,0.0
353,53.0,768,512,2.0,0.0
354,65.0,256,768,1.0,0.0
355,58.0,256,1536,2.0,0.0
356,67.0,0,256,1.0,0.0
357,65.0,256,256,1.0,0.0
358,36.0,0,1024,4.0,0.0
359,48.0,0,1024,3.0,0.0
360,63.0,0,256,1.0,0.0
361,62.0,256,256,1.0,0.0
362,57.0,0,512,2.0,0.0
363,63.0,512,256,1.0,0.0
364,58.0,0,1024,2.0,0.0
365,46.0,0,512,3.0,0.0
366,34.0,512,512,4.0,0.0
367,62.0,0,1024,1.0,0.0
368,70.0,0,3072,0.0,0.0
369,60.0,0,512,3.0,0.0
370,48.0,512,512,4.0,0.0
371,58.0,0,512,3.0,0.0
372,63.0,0,1024,1.0,0.0
373,60.0,512,1024,2.0,0.0
374,46.0,512,512,4.0,0.0
375,56.0,0,512,3.0,0.0
376,44.0,0,512,4.0,0.0
377,43.0,512,512,4.0,0.0
378,55.0,0,512,3.0,0.0
379,65.0,0,1024,1.0,0.0
380,62.0,512,1024,2.0,0.0
381,53.0,0,512,3.0,0.0
382,41.0,0,512,4.0,0.0
383,67.0,0,1024,1.0,0.0
384,39.0,512,512,4.0,0.0
385,63.0,0,1024,2.0,0.0
386,51.0,0,512,3.0,0.0
387,67.0,0,3072,0.0,0.0
388,38.0,512,512,4.0,0.0
389,50.0,0,512,3.0,0.0
390,64.0,0,2048,2.0,0.0
391,48.0,0,512,3.0,0.0
392,72.0,512,1024,1.0,0.0
393,36.0,512,512,4.0,0.0
394,46.0,0,512,3.0,0.0
395,34.0,0,512,4.0,0.0
396,70.0,0,1024,1.0,0.0
397,32.0,0,512,4.0,0.0
398,44.0,512,512,3.0,0.0
399,43.0,512,512,3.0,0.0
400,31.0,0,512,4.0,0.0
401,68.0,512,512,1.0,0.0
402,29.0,0,2048,4.0,0.0
403,65.0,0,512,2.0,0.0
404,41.0,0,2048,3.0,0.0
405,63.0,0,512,2.0,0.0
406,67.0,512,512,1.0,0.0
407,62.0,0,512,2.0,0.0
408,65.0,512,1024,1.0,0.0
409,68.0,512,0,0.0,0.0
410,60.0,0,512,2.0,0.0
411,58.0,512,1536,2.0,0.0
412,43.0,0,1024,3.0,0.0
413,67.0,0,512,0.0,0.0
414,63.0,512,512,1.0,0.0
415,31.0,0,1024,4.0,0.0
416,61.0,0,512,1.0,0.0
417,65.0,512,512,0.0,0.0
418,44.0,0,2048,3.0,0.0
419,60.0,0,1024,1.0,0.0
420,63.0,0,512,0.0,0.0
421,32.0,0,2048,4.0,0.0
422,65.0,0,512,0.0,0.0
423,56.0,768,512,2.0,0.0
424,58.0,512,1536,1.0,0.0
425,50.0,0,1024,2.0,0.0
426,65.0,128,768,0.0,0.0
427,63.0,128,128,0.0,0.0
428,65.0,512,128,0.0,0.0
429,31.0,0,1024,4.0,0.0
430,43.0,0,1024,3.0,0.0
431,67.0,256,1280,0.0,0.0
432,58.0,256,512,1.0,0.0
433,32.0,512,1024,4.0,0.0
434,44.0,0,1024,3.0,0.0
435,60.0,0,1024,1.0,0.0
436,72.0,256,256,0.0,0.0
437,70.0,256,256,0.0,0.0
438,68.0,0,256,0.0,0.0
439,58.0,512,2560,1.0,0.0
440,34.0,0,1024,4.0,0.0
441,46.0,0,1024,3.0,0.0
442,67.0,512,1024,0.0,0.0
443,51.0,512,0,2.0,0.0
444,65.0,0,512,0.0,0.0
445,44.0,512,1024,3.0,0.0
446,32.0,0,1024,4.0,0.0
447,50.0,256,512,2.0,0.0
448,63.0,256,256,0.0,0.0
449,51.0,0,512,2.0,0.0
450,65.0,0,256,0.0,0.0
451,31.0,512,2048,4.0,0.0
452,63.0,0,15360,0.0,0.0
453,53.0,512,1536,2.0,0.0
454,43.0,0,2048,3.0,0.0
455,60.0,512,512,1.0,0.0
456,61.0,0,1024,1.0,0.0
457,58.0,512,1024,2.0,0.0
458,44.0,512,1024,3.0,0.0
459,60.0,0,1024,1.0,0.0
460,32.0,0,1024,4.0,0.0
461,56.0,512,1024,2.0,0.0
462,34.0,0,1024,4.0,0.0
463,46.0,512,1024,3.0,0.0
464,58.0,0,1024,1.0,0.0
465,55.0,512,1024,2.0,0.0
466,56.0,512,1536,1.0,0.0
467,36.0,0,1024,4.0,0.0
468,48.0,512,1024,3.0,0.0
469,53.0,0,512,2.0,0.0
470,51.0,0,1536,2.0,0.0
471,37.0,512,1024,4.0,0.0
472,49.0,0,1024,3.0,0.0
473,55.0,0,512,1.0,0.0
474,48.0,0,1024,3.0,0.0
475,56.0,512,512,1.0,0.0
476,36.0,0,1024,4.0,0.0
477,55.0,0,512,2.0,0.0
478,58.0,512,512,1.0,0.0
479,46.0,512,1024,3.0,0.0
480,60.0,512,512,1.0,0.0
481,34.0,0,1024,4.0,0.0
482,56.0,0,512,2.0,0.0
483,61.0,0,512,1.0,0.0
484,58.0,0,512,2.0,0.0
485,60.0,512,512,2.0,0.0
486,32.0,0,1024,4.0,0.0
487,63.0,512,1536,1.0,0.0
488,44.0,0,1024,3.0,0.0
489,56.0,512,512,2.0,0.0
490,53.0,512,1024,2.0,0.0
491,34.0,0,1024,4.0,0.0
492,46.0,0,1024,3.0,0.0
493,65.0,0,512,1.0,0.0
494,32.0,0,1024,4.0,0.0
495,61.0,256,1536,1.0,0.0
496,55.0,512,512,2.0,0.0
497,44.0,512,1024,3.0,0.0
498,56.0,0,512,2.0,0.0
499,43.0,0,1024,3.0,0.0
500,31.0,0,1024,4.0,0.0
501,60.0,256,256,1.0,0.0
502,61.0,512,256,1.0,0.0
503,60.0,512,1536,1.0,0.0
504,32.0,512,3072,4.0,0.0
505,44.0,0,3072,3.0,0.0
506,58.0,512,0,2.0,0.0
507,56.0,0,512,2.0,0.0
508,55.0,0,512,2.0,0.0
509,58.0,512,512,1.0,0.0
510,60.0,512,512,1.0,0.0
511,56.0,0,512,2.0,0.0
512,53.0,0,512,2.0,0.0
513,62.0,0,512,1.0,0.0
514,55.0,0,512,2.0,0.0
515,39.0,0,1024,3.0,0.0
516,27.0,0,1024,4.0,0.0
517,63.0,512,512,1.0,0.0
518,56.0,768,512,2.0,0.0
519,65.0,0,512,1.0,0.0
520,39.0,0,1024,4.0,0.0
521,58.0,0,768,2.0,0.0
522,67.0,256,768,1.0,0.0
523,51.0,768,1024,3.0,0.0
524,68.0,0,256,1.0,0.0
525,60.0,0,256,2.0,0.0
526,65.0,0,768,1.0,0.0
527,34.0,0,1024,4.0,0.0
528,56.0,128,768,2.0,0.0
529,46.0,0,1024,3.0,0.0
530,55.0,0,128,2.0,0.0
531,63.0,128,128,1.0,0.0
532,56.0,0,128,2.0,0.0
533,65.0,512,128,1.0,0.0
534,63.0,512,512,1.0,0.0
535,48.0,0,1024,3.0,0.0
536,36.0,512,1024,4.0,0.0
537,55.0,0,1024,2.0,0.0
538,65.0,0,512,1.0,0.0
539,48.0,0,1024,4.0,0.0
540,60.0,0,1024,3.0,0.0
541,67.0,256,512,1.0,0.0
542,63.0,256,768,2.0,0.0
543,68.0,768,512,1.0,0.0
544,65.0,0,256,2.0,0.0
545,43.0,0,1024,4.0,0.0
546,70.0,512,1536,1.0,0.0
547,61.0,128,768,2.0,0.0
548,55.0,512,1024,3.0,0.0
549,60.0,128,128,2.0,0.0
550,61.0,0,128,2.0,0.0
551,56.0,0,1024,3.0,0.0
552,60.0,512,1536,2.0,0.0
553,44.0,512,1024,4.0,0.0
554,72.0,0,512,1.0,0.0
555,53.0,0,1024,3.0,0.0
556,68.0,256,1536,1.0,0.0
557,41.0,512,1024,4.0,0.0
558,58.0,0,512,2.0,0.0
559,46.0,512,1024,4.0,0.0
560,60.0,0,512,2.0,0.0
561,58.0,0,1024,3.0,0.0
562,67.0,256,256,1.0,0.0
563,62.0,0,512,2.0,0.0
564,68.0,0,256,1.0,0.0
565,67.0,512,512,1.0,0.0
566,39.0,0,1024,4.0,0.0
567,63.0,768,1024,2.0,0.0
568,51.0,0,1024,3.0,0.0
569,65.0,0,512,1.0,0.0
570,58.0,0,768,2.0,0.0
571,50.0,0,1024,3.0,0.0
572,38.0,0,1024,4.0,0.0
573,67.0,256,768,1.0,0.0
574,68.0,0,256,1.0,0.0
575,68.0,0,768,1.0,0.0
576,60.0,768,0,2.0,0.0
577,36.0,0,1024,4.0,0.0
578,48.0,0,1024,3.0,0.0
579,67.0,0,128,1.0,0.0
580,58.0,128,128,2.0,0.0
581,68.0,0,128,1.0,0.0
582,60.0,512,128,2.0,0.0
583,34.0,0,2048,4.0,0.0
584,70.0,512,3584,1.0,0.0
585,46.0,768,2048,3.0,0.0
586,62.0,512,512,2.0,0.0
587,60.0,768,512,2.0,0.0
588,62.0,256,768,2.0,0.0
589,63.0,0,256,2.0,0.0
590,36.0,0,1024,4.0,0.0
591,48.0,0,1024,3.0,0.0
592,63.0,128,768,2.0,0.0
593,62.0,128,128,2.0,0.0
594,63.0,512,128,2.0,0.0
595,65.0,512,1536,2.0,0.0
596,38.0,0,1024,4.0,0.0
597,50.0,512,1024,3.0,0.0
598,68.0,0,512,1.0,0.0
599,39.0,0,1024,4.0,0.0
600,67.0,0,1024,1.0,0.0
601,51.0,512,1024,3.0,0.0
602,63.0,0,512,2.0,0.0
603,62.0,0,512,2.0,0.0
604,41.0,512,2048,4.0,0.0
605,53.0,0,2048,3.0,0.0
606,65.0,512,512,1.0,0.0
607,60.0,512,512,2.0,0.0
608,63.0,0,512,1.0,0.0
609,58.0,512,1536,2.0,0.0
610,62.0,512,512,1.0,0.0
611,68.0,0,512,1.0,0.0
612,67.0,0,512,1.0,0.0
613,51.0,0,2048,3.0,0.0
614,39.0,512,2048,4.0,0.0
615,65.0,0,512,1.0,0.0
616,55.0,512,512,2.0,0.0
617,60.0,0,1536,2.0,0.0
618,63.0,512,512,1.0,0.0
619,67.0,0,512,1.0,0.0
620,50.0,0,1536,3.0,0.0
621,65.0,512,512,1.0,0.0
622,38.0,512,1536,4.0,0.0
623,53.0,512,512,2.0,0.0
624,63.0,0,512,1.0,0.0
625,62.0,0,512,1.0,0.0
626,58.0,0,3072,2.0,0.0
627,56.0,0,512,3.0,0.0
628,65.0,0,512,1.0,0.0
629,44.0,512,512,4.0,0.0
630,43.0,0,512,4.0,0.0
631,63.0,512,512,1.0,0.0
632,55.0,0,512,3.0,0.0
633,53.0,512,512,3.0,0.0
634,41.0,0,512,4.0,0.0
635,62.0,0,512,1.0,0.0
636,39.0,512,512,4.0,0.0
637,51.0,0,512,3.0,0.0
638,60.0,0,512,1.0,0.0
639,50.0,0,512,3.0,0.0
640,38.0,0,512,4.0,0.0
641,62.0,512,512,1.0,0.0
642,48.0,0,512,3.0,0.0
643,57.0,256,1536,2.0,0.0
644,63.0,0,1024,1.0,0.0
645,36.0,512,512,4.0,0.0
646,55.0,0,512,3.0,0.0
647,43.0,512,512,4.0,0.0
648,62.0,0,512,1.0,0.0
649,53.0,0,512,3.0,0.0
650,41.0,0,512,4.0,0.0
651,55.0,256,256,2.0,0.0
652,39.0,0,512,4.0,0.0
653,60.0,512,512,1.0,0.0
654,51.0,0,512,3.0,0.0
655,57.0,0,256,2.0,0.0
656,50.0,0,1024,3.0,0.0
657,38.0,0,1024,4.0,0.0
658,58.0,512,512,2.0,0.0
659,58.0,256,1536,1.0,0.0
660,56.0,512,512,2.0,0.0
661,39.0,0,1024,4.0,0.0
662,51.0,768,1024,3.0,0.0
663,55.0,256,768,2.0,0.0
664,60.0,0,512,1.0,0.0
665,56.0,0,256,2.0,0.0
666,62.0,0,1024,1.0,0.0
667,53.0,128,768,2.0,0.0
668,35.0,0,1024,4.0,0.0
669,47.0,512,1024,3.0,0.0
670,51.0,128,128,2.0,0.0
671,53.0,0,128,2.0,0.0
672,60.0,0,512,1.0,0.0
673,67.0,0,3072,0.0,0.0
674,51.0,512,512,2.0,0.0
675,62.0,0,512,1.0,0.0
676,53.0,512,512,2.0,0.0
677,48.0,0,0,3.0,0.0
678,63.0,0,3072,1.0,0.0
679,36.0,0,0,4.0,0.0
680,55.0,512,512,2.0,0.0
681,56.0,512,512,2.0,0.0
682,58.0,512,512,2.0,0.0
683,31.0,0,1024,4.0,0.0
684,43.0,512,1024,3.0,0.0
685,51.0,0,512,2.0,0.0
686,65.0,0,3072,0.0,0.0
687,44.0,512,1024,3.0,0.0
688,32.0,0,1024,4.0,0.0
689,60.0,512,512,2.0,0.0
690,58.0,0,512,2.0,0.0
691,56.0,512,512,2.0,0.0
692,41.0,0,1024,3.0,0.0
693,29.0,512,1024,4.0,0.0
694,62.0,0,512,1.0,0.0
695,60.0,0,512,1.0,0.0
696,60.0,0,512,2.0,0.0
697,46.0,0,1024,3.0,0.0
698,58.0,512,512,2.0,0.0
699,62.0,256,1536,1.0,0.0
700,34.0,512,1024,4.0,0.0
701,56.0,0,512,2.0,0.0
702,36.0,0,1024,3.0,0.0
703,24.0,512,1024,4.0,0.0
704,55.0,512,1536,2.0,0.0
705,63.0,0,2048,0.0,0.0
706,60.0,256,256,1.0,0.0
707,59.0,0,256,1.0,0.0
708,36.0,0,1024,4.0,0.0
709,48.0,0,1024,3.0,0.0
710,60.0,0,1024,1.0,0.0
711,56.0,512,512,2.0,0.0
712,65.0,128,768,0.0,0.0
713,38.0,512,1024,4.0,0.0
714,50.0,0,1024,3.0,0.0
715,58.0,256,1536,1.0,0.0
716,55.0,256,512,2.0,0.0
717,53.0,0,512,2.0,0.0
718,67.0,128,128,0.0,0.0
719,68.0,0,128,0.0,0.0
720,39.0,0,1024,4.0,0.0
721,67.0,256,768,0.0,0.0
722,51.0,512,1024,3.0,0.0
723,51.0,0,1024,2.0,0.0
724,63.0,0,512,1.0,0.0
725,68.0,0,256,0.0,0.0
726,53.0,512,1024,3.0,0.0
727,62.0,256,512,1.0,0.0
728,41.0,0,1024,4.0,0.0
729,68.0,128,768,0.0,0.0
730,60.0,0,512,1.0,0.0
731,67.0,128,128,0.0,0.0
732,68.0,0,128,0.0,0.0
733,70.0,256,1280,0.0,0.0
734,58.0,512,512,1.0,0.0
735,55.0,0,1024,3.0,0.0
736,43.0,0,1024,4.0,0.0
737,67.0,256,512,1.0,0.0
738,56.0,0,1024,3.0,0.0
739,44.0,0,1024,4.0,0.0
740,65.0,256,512,1.0,0.0
741,73.0,0,256,0.0,0.0
742,63.0,512,512,1.0,0.0
743,72.0,256,256,0.0,0.0
744,70.0,0,256,0.0,0.0
745,53.0,512,1024,3.0,0.0
746,62.0,512,512,1.0,0.0
747,41.0,0,1024,4.0,0.0
748,68.0,256,1536,0.0,0.0
749,63.0,0,512,1.0,0.0
750,58.0,0,1024,3.0,0.0
751,46.0,0,1024,4.0,0.0
752,60.0,0,512,1.0,0.0
753,62.0,0,512,1.0,0.0
754,67.0,256,256,0.0,0.0
755,68.0,512,256,0.0,0.0
756,39.0,0,2048,4.0,0.0
757,51.0,0,2048,3.0,0.0
758,63.0,512,512,1.0,0.0
759,67.0,0,5120,0.0,0.0
760,65.0,512,512,1.0,0.0
761,67.0,512,512,1.0,0.0
762,67.0,0,1024,2.0,0.0
763,68.0,768,512,1.0,0.0
764,50.0,0,1024,3.0,0.0
765,65.0,128,768,2.0,0.0
766,38.0,0,1024,4.0,0.0
767,71.0,0,1024,1.0,0.0
768,63.0,128,128,2.0,0.0
769,65.0,512,128,2.0,0.0
770,36.0,0,1024,4.0,0.0
771,63.0,0,512,2.0,0.0
772,48.0,512,1024,3.0,0.0
773,72.0,512,512,1.0,0.0
774,60.0,0,512,2.0,0.0
775,63.0,0,512,1.0,0.0
776,62.0,256,512,2.0,0.0
777,65.0,256,768,1.0,0.0
778,48.0,0,1024,4.0,0.0
779,60.0,0,1024,3.0,0.0
780,65.0,512,512,2.0,0.0
781,67.0,0,256,1.0,0.0
782,58.0,0,1024,3.0,0.0
783,46.0,512,1024,4.0,0.0
784,63.0,256,512,2.0,0.0
785,67.0,128,768,1.0,0.0
786,62.0,0,512,2.0,0.0
787,65.0,128,128,1.0,0.0
788,67.0,0,128,1.0,0.0
789,68.0,512,3584,1.0,0.0
790,56.0,768,1024,3.0,0.0
791,44.0,0,1024,4.0,0.0
792,60.0,512,512,2.0,0.0
793,58.0,0,512,2.0,0.0
794,44.0,0,1024,3.0,0.0
795,32.0,768,1024,4.0,0.0
796,60.0,256,768,2.0,0.0
797,61.0,0,256,2.0,0.0
798,61.0,128,768,2.0,0.0
799,46.0,0,1024,3.0,0.0
800,34.0,512,1024,4.0,0.0
801,60.0,128,128,2.0,0.0
802,61.0,0,128,2.0,0.0
803,48.0,0,1024,3.0,0.0
804,63.0,0,1024,2.0,0.0
805,36.0,512,1024,4.0,0.0
806,72.0,0,512,1.0,0.0
807,49.0,512,1024,3.0,0.0
808,65.0,0,1024,2.0,0.0
809,70.0,512,512,1.0,0.0
810,37.0,0,1024,4.0,0.0
811,68.0,0,512,1.0,0.0
812,39.0,0,2048,4.0,0.0
813,51.0,512,2048,3.0,0.0
814,58.0,512,1024,2.0,0.0
815,67.0,512,512,1.0,0.0
816,70.0,0,512,1.0,0.0
817,68.0,512,512,1.0,0.0
818,60.0,0,2048,2.0,0.0
819,67.0,0,512,1.0,0.0
820,65.0,512,512,1.0,0.0
821,49.0,0,2048,3.0,0.0
822,37.0,512,2048,4.0,0.0
823,68.0,512,512,1.0,0.0
824,58.0,512,1536,2.0,0.0
825,67.0,512,512,1.0,0.0
826,65.0,0,512,1.0,0.0
827,64.0,512,1536,1.0,0.0
828,48.0,0,2048,3.0,0.0
829,36.0,512,2048,4.0,0.0
830,61.0,512,512,2.0,0.0
831,60.0,0,512,2.0,0.0
832,58.0,0,512,2.0,0.0
833,64.0,0,512,1.0,0.0
834,56.0,512,512,2.0,0.0
835,65.0,0,512,1.0,0.0
836,37.0,0,1024,4.0,0.0
837,49.0,512,1024,3.0,0.0
838,64.0,0,512,1.0,0.0
839,55.0,0,512,2.0,0.0
840,65.0,512,512,1.0,0.0
841,56.0,0,512,2.0,0.0
842,34.0,512,1024,4.0,0.0
843,46.0,0,1024,3.0,0.0
844,58.0,0,512,2.0,0.0
845,67.0,0,512,1.0,0.0
846,64.0,0,1536,1.0,0.0
847,36.0,0,1024,4.0,0.0
848,48.0,512,1024,3.0,0.0
849,55.0,512,512,2.0,0.0
850,61.0,0,512,2.0,0.0
851,60.0,256,512,2.0,0.0
852,36.0,0,1024,3.0,0.0
853,24.0,0,1024,4.0,0.0
854,58.0,512,512,2.0,0.0
855,62.0,256,256,1.0,0.0
856,64.0,0,256,1.0,0.0
857,41.0,512,1024,3.0,0.0
858,29.0,0,1024,4.0,0.0
859,65.0,0,2048,1.0,0.0
860,56.0,512,512,2.0,0.0
861,55.0,0,512,2.0,0.0
862,53.0,512,1024,3.0,0.0
863,41.0,0,1024,4.0,0.0
864,56.0,512,512,2.0,0.0
865,53.0,0,512,2.0,0.0
866,51.0,0,1024,3.0,0.0
867,55.0,512,512,2.0,0.0
868,39.0,0,1024,4.0,0.0
869,57.0,512,512,2.0,0.0
870,38.0,0,2048,4.0,0.0
871,58.0,512,512,2.0,0.0
872,50.0,0,2048,3.0,0.0
873,53.0,768,512,2.0,0.0
874,58.0,256,1536,2.0,0.0
875,65.0,256,768,1.0,0.0
876,67.0,256,256,1.0,0.0
877,48.0,0,1024,3.0,0.0
878,36.0,0,1024,4.0,0.0
879,65.0,256,256,1.0,0.0
880,63.0,0,256,1.0,0.0
881,62.0,256,256,1.0,0.0
882,57.0,0,512,2.0,0.0
883,63.0,512,256,1.0,0.0
884,58.0,0,1024,2.0,0.0
885,34.0,0,512,4.0,0.0
886,70.0,512,3072,0.0,0.0
887,46.0,512,512,3.0,0.0
888,62.0,0,1024,1.0,0.0
889,48.0,512,512,4.0,0.0
890,60.0,0,512,3.0,0.0
891,46.0,512,512,4.0,0.0
892,60.0,0,1024,2.0,0.0
893,58.0,0,512,3.0,0.0
894,63.0,512,1024,1.0,0.0
895,56.0,0,512,3.0,0.0
896,44.0,0,512,4.0,0.0
897,55.0,0,512,3.0,0.0
898,65.0,0,1024,1.0,0.0
899,62.0,0,1024,2.0,0.0
900,43.0,512,512,4.0,0.0
901,41.0,0,512,4.0,0.0
902,53.0,0,512,3.0,0.0
903,39.0,512,512,4.0,0.0
904,63.0,512,1024,2.0,0.0
905,51.0,0,512,3.0,0.0
906,67.0,0,1024,1.0,0.0
907,67.0,0,3072,0.0,0.0
908,38.0,0,512,4.0,0.0
909,50.0,0,512,3.0,0.0
910,48.0,0,512,3.0,0.0
911,36.0,512,512,4.0,0.0
912,72.0,0,1024,1.0,0.0
913,64.0,0,2048,2.0,0.0
914,46.0,512,512,3.0,0.0
915,34.0,0,512,4.0,0.0
916,32.0,512,512,4.0,0.0
917,70.0,0,1024,1.0,0.0
918,44.0,0,512,3.0,0.0
919,43.0,512,512,3.0,0.0
920,31.0,0,512,4.0,0.0
921,65.0,0,512,2.0,0.0
922,68.0,512,512,1.0,0.0
923,29.0,0,2048,4.0,0.0
924,68.0,0,1536,0.0,0.0
925,41.0,512,2048,3.0,0.0
926,67.0,512,512,1.0,0.0
927,63.0,0,512,2.0,0.0
928,62.0,512,512,2.0,0.0
929,65.0,0,1024,1.0,0.0
930,68.0,0,512,0.0,0.0
931,60.0,0,512,2.0,0.0
932,58.0,512,1536,2.0,0.0
933,31.0,0,1024,4.0,0.0
934,63.0,0,512,1.0,0.0
935,43.0,0,1024,3.0,0.0
936,67.0,512,512,0.0,0.0
937,61.0,512,512,1.0,0.0
938,65.0,0,512,0.0,0.0
939,63.0,0,512,0.0,0.0
940,32.0,0,2048,4.0,0.0
941,60.0,0,1024,1.0,0.0
942,44.0,512,2048,3.0,0.0
943,56.0,0,512,2.0,0.0
944,65.0,768,0,0.0,0.0
945,58.0,512,1536,1.0,0.0
946,50.0,0,1024,2.0,0.0
947,63.0,128,128,0.0,0.0
948,65.0,0,128,0.0,0.0
949,51.0,512,2560,2.0,0.0
950,67.0,256,1280,0.0,0.0
951,31.0,0,1024,4.0,0.0
952,43.0,256,1024,3.0,0.0
953,58.0,0,512,1.0,0.0
954,32.0,0,1024,4.0,0.0
955,60.0,0,1024,1.0,0.0
956,44.0,0,1024,3.0,0.0
957,72.0,256,256,0.0,0.0
958,70.0,256,256,0.0,0.0
959,68.0,512,256,0.0,0.0
960,34.0,0,1024,4.0,0.0
961,46.0,0,1024,3.0,0.0
962,58.0,512,2560,1.0,0.0
963,67.0,512,1024,0.0,0.0
964,51.0,0,512,2.0,0.0
965,32.0,0,1024,4.0,0.0
966,50.0,256,512,2.0,0.0
967,44.0,0,1024,3.0,0.0
968,65.0,0,512,0.0,0.0
969,63.0,256,256,0.0,0.0
970,51.0,0,512,2.0,0.0
971,65.0,512,256,0.0,0.0
972,53.0,512,1536,2.0,0.0
973,31.0,0,2048,4.0,0.0
974,43.0,512,2048,3.0,0.0
975,63.0,0,15360,0.0,0.0
976,60.0,512,512,1.0,0.0
977,61.0,0,1024,1.0,0.0
978,58.0,512,1024,2.0,0.0
979,60.0,512,1024,1.0,0.0
980,32.0,0,1024,4.0,0.0
981,44.0,0,1024,3.0,0.0
982,56.0,512,1024,2.0,0.0
983,34.0,512,1024,4.0,0.0
984,46.0,0,1024,3.0,0.0
985,58.0,0,1024,1.0,0.0
986,55.0,512,1024,2.0,0.0
987,36.0,0,1024,4.0,0.0
988,48.0,512,1024,3.0,0.0
989,56.0,512,1536,1.0,0.0
990,53.0,0,512,2.0,0.0
991,37.0,0,1024,4.0,0.0
992,51.0,0,1536,2.0,0.0
993,49.0,0,1024,3.0,0.0
994,55.0,512,512,1.0,0.0
995,36.0,0,1024,4.0,0.0
996,48.0,0,1024,3.0,0.0
997,56.0,512,512,1.0,0.0
998,55.0,512,512,2.0,0.0
999,58.0,0,512,1.0,0.0
1000,60.0,0,512,1.0,0.0
1001,34.0,0,1024,4.0,0.0
1002,46.0,512,1024,3.0,0.0
1003,56.0,512,512,2.0,0.0
1004,61.0,0,512,1.0,0.0
1005,58.0,0,512,2.0,0.0
1006,32.0,0,1024,4.0,0.0
1007,63.0,512,1536,1.0,0.0
1008,60.0,512,512,2.0,0.0
1009,44.0,512,1024,3.0,0.0
1010,56.0,0,512,2.0,0.0
1011,53.0,512,1024,2.0,0.0
1012,34.0,0,1024,4.0,0.0
1013,46.0,0,1024,3.0,0.0
1014,65.0,0,512,1.0,0.0
1015,61.0,256,1536,1.0,0.0
1016,44.0,0,1024,3.0,0.0
1017,32.0,0,1024,4.0,0.0
1018,55.0,512,512,2.0,0.0
1019,56.0,512,512,2.0,0.0
1020,43.0,0,1024,3.0,0.0
1021,31.0,512,1024,4.0,0.0
1022,60.0,256,256,1.0,0.0
1023,61.0,0,256,1.0,0.0
1024,60.0,0,1536,1.0,0.0
1025,44.0,1024,3072,3.0,0.0
1026,32.0,0,3072,4.0,0.0
1027,58.0,512,0,2.0,0.0
1028,56.0,512,512,2.0,0.0
1029,58.0,0,512,1.0,0.0
1030,55.0,512,512,2.0,0.0
1031,56.0,512,512,2.0,0.0
1032,60.0,0,512,1.0,0.0
1033,53.0,0,512,2.0,0.0
1034,61.0,0,512,1.0,0.0
1035,27.0,0,1024,4.0,0.0
1036,55.0,1024,1024,2.0,0.0
1037,58.0,0,1024,1.0,0.0
1038,39.0,0,1024,3.0,0.0
1039,51.0,0,1024,3.0,0.0
1040,39.0,512,1024,4.0,0.0
1041,58.0,0,512,1.0,0.0
1042,50.0,512,1024,3.0,0.0
1043,60.0,512,512,1.0,0.0
1044,38.0,0,1024,4.0,0.0
1045,62.0,0,512,1.0,0.0
1046,36.0,0,2048,4.0,0.0
1047,48.0,512,2048,3.0,0.0
1048,63.0,512,512,1.0,0.0
1049,62.0,1024,512,1.0,0.0
1050,63.0,512,2560,1.0,0.0
1051,55.0,0,512,2.0,0.0
1052,34.0,0,1024,4.0,0.0
1053,57.0,512,512,2.0,0.0
1054,46.0,512,1024,3.0,0.0
1055,58.0,0,512,2.0,0.0
1056,33.0,0,1536,4.0,0.0
1057,45.0,0,1536,3.0,0.0
1058,60.0,0,512,2.0,0.0
1059,58.0,0,512,2.0,0.0
1060,62.0,512,512,1.0,0.0
1061,60.0,0,3072,2.0,0.0
1062,63.0,512,512,1.0,0.0
1063,41.0,0,512,3.0,0.0
1064,29.0,0,512,4.0,0.0
1065,67.0,512,512,1.0,0.0
1066,43.0,0,512,3.0,0.0
1067,31.0,512,512,4.0,0.0
1068,65.0,0,512,1.0,0.0
1069,63.0,512,512,1.0,0.0
1070,45.0,0,512,3.0,0.0
1071,33.0,0,512,4.0,0.0
1072,34.0,0,512,4.0,0.0
1073,46.0,512,512,3.0,0.0
1074,62.0,0,512,1.0,0.0
1075,45.0,0,512,3.0,0.0
1076,33.0,512,512,4.0,0.0
1077,63.0,0,512,1.0,0.0
1078,62.0,512,512,1.0,0.0
1079,46.0,0,1024,3.0,0.0
1080,58.0,0,512,2.0,0.0
1081,34.0,0,1024,4.0,0.0
1082,63.0,512,512,1.0,0.0
1083,60.0,0,512,2.0,0.0
1084,38.0,512,1024,3.0,0.0
1085,26.0,0,1024,4.0,0.0
1086,58.0,512,512,2.0,0.0
1087,65.0,0,2048,1.0,0.0
1088,56.0,0,512,2.0,0.0
1089,39.0,0,1024,3.0,0.0
1090,27.0,512,1024,4.0,0.0
1091,58.0,512,512,2.0,0.0
1092,61.0,0,512,2.0,0.0
1093,36.0,0,1024,3.0,0.0
1094,58.0,512,512,2.0,0.0
1095,63.0,0,512,1.0,0.0
1096,24.0,0,1024,4.0,0.0
1097,65.0,0,512,1.0,0.0
1098,61.0,512,512,2.0,0.0
1099,43.0,0,1024,4.0,0.0
1100,55.0,512,1024,3.0,0.0
1101,63.0,512,512,1.0,0.0
1102,62.0,512,3072,2.0,0.0
1103,62.0,0,512,1.0,0.0
1104,60.0,512,512,1.0,0.0
1105,51.0,0,1024,3.0,0.0
1106,39.0,0,1024,4.0,0.0
1107,62.0,512,512,1.0,0.0
1108,36.0,0,1024,4.0,0.0
1109,60.0,512,512,1.0,0.0
1110,48.0,0,1024,3.0,0.0
1111,62.0,0,512,1.0,0.0
1112,63.0,512,512,1.0,0.0
1113,53.0,0,1024,3.0,0.0
1114,41.0,1024,1024,4.0,0.0
1115,57.0,0,1024,2.0,0.0
1116,65.0,0,512,1.0,0.0
1117,62.0,0,1024,1.0,0.0
1118,46.0,0,1024,3.0,0.0
1119,34.0,0,1024,4.0,0.0
1120,58.0,512,512,2.0,0.0
1121,63.0,0,1024,1.0,0.0
1122,36.0,0,1024,4.0,0.0
1123,56.0,512,512,2.0,0.0
1124,48.0,0,1024,3.0,0.0
1125,55.0,512,512,2.0,0.0
1126,38.0,0,1024,4.0,0.0
1127,53.0,512,512,2.0,0.0
1128,65.0,512,1536,1.0,0.0
1129,50.0,0,1024,3.0,0.0
1130,56.0,512,512,2.0,0.0
1131,39.0,512,4096,4.0,0.0
1132,51.0,0,4096,3.0,0.0
1133,55.0,0,512,2.0,0.0
1134,70.0,512,3072,0.0,0.0
1135,63.0,512,512,1.0,0.0
1136,60.0,0,512,2.0,0.0
1137,58.0,512,512,2.0,0.0
1138,62.0,0,512,1.0,0.0
1139,65.0,0,512,1.0,0.0
1140,56.0,512,512,2.0,0.0
1141,55.0,512,512,2.0,0.0
1142,63.0,0,512,1.0,0.0
1143,67.0,0,512,1.0,0.0
1144,58.0,0,512,2.0,0.0
1145,57.0,0,512,2.0,0.0
1146,72.0,512,512,0.0,0.0
1147,65.0,0,2048,1.0,0.0
1148,59.0,0,512,2.0,0.0
1149,74.0,0,512,0.0,0.0
1150,38.0,0,512,4.0,0.0
1151,74.0,0,1536,0.0,0.0
1152,50.0,512,512,3.0,0.0
1153,59.0,256,1536,2.0,0.0
1154,55.0,512,512,3.0,0.0
1155,43.0,0,512,4.0,0.0
1156,41.0,0,512,4.0,0.0
1157,53.0,0,512,3.0,0.0
1158,43.0,0,512,4.0,0.0
1159,55.0,1024,512,3.0,0.0
1160,72.0,0,256,0.0,0.0
1161,57.0,256,256,2.0,0.0
1162,74.0,0,256,0.0,0.0
1163,59.0,0,256,2.0,0.0
1164,36.0,512,1024,4.0,0.0
1165,48.0,0,1024,3.0,0.0
1166,60.0,512,2560,2.0,0.0
1167,62.0,0,512,1.0,0.0
1168,63.0,512,512,1.0,0.0
1169,50.0,512,1024,3.0,0.0
1170,38.0,0,1024,4.0,0.0
1171,65.0,0,512,1.0,0.0
1172,67.0,512,1536,1.0,0.0
1173,39.0,0,1024,4.0,0.0
1174,75.0,0,0,0.0,0.0
1175,51.0,0,1024,3.0,0.0
1176,58.0,512,512,2.0,0.0
1177,57.0,512,2560,2.0,0.0
1178,53.0,0,2048,3.0,0.0
1179,41.0,512,2048,4.0,0.0
1180,67.0,512,512,1.0,0.0
1181,65.0,512,512,1.0,0.0
1182,74.0,0,1024,0.0,0.0
1183,63.0,0,512,1.0,0.0
1184,72.0,0,1024,0.0,0.0
1185,54.0,512,1024,3.0,0.0
1186,62.0,0,3072,1.0,0.0
1187,42.0,0,1024,4.0,0.0
1188,57.0,0,512,2.0,0.0
1189,55.0,512,512,2.0,0.0
1190,43.0,0,1024,4.0,0.0
1191,55.0,512,1024,3.0,0.0
1192,70.0,0,512,0.0,0.0
1193,57.0,0,512,2.0,0.0
1194,72.0,0,512,0.0,0.0
1195,70.0,512,512,0.0,0.0
1196,55.0,0,512,2.0,0.0
1197,41.0,0,512,4.0,0.0
1198,53.0,0,512,3.0,0.0
1199,51.0,768,512,3.0,0.0
1200,57.0,0,512,2.0,0.0
1201,39.0,0,512,4.0,0.0
1202,72.0,0,512,0.0,0.0
1203,58.0,0,3072,2.0,0.0
1204,38.0,0,1024,4.0,0.0
1205,50.0,512,1024,3.0,0.0
1206,74.0,256,768,0.0,0.0
1207,65.0,0,512,1.0,0.0
1208,75.0,0,256,0.0,0.0
1209,74.0,128,768,0.0,0.0
1210,67.0,256,512,1.0,0.0
1211,39.0,0,1024,4.0,0.0
1212,51.0,0,1024,3.0,0.0
1213,65.0,512,512,1.0,0.0
1214,75.0,128,128,0.0,0.0
1215,72.0,0,128,0.0,0.0
1216,72.0,0,1536,0.0,0.0
1217,53.0,0,1024,3.0,0.0
1218,63.0,512,512,1.0,0.0
1219,41.0,0,1024,4.0,0.0
1220,62.0,512,512,1.0,0.0
1221,60.0,256,512,1.0,0.0
1222,57.0,0,1024,2.0,0.0
1223,29.0,512,1024,4.0,0.0
1224,41.0,0,1024,3.0,0.0
1225,63.0,0,512,1.0,0.0
1226,70.0,256,256,0.0,0.0
1227,72.0,0,256,0.0,0.0
1228,70.0,512,5120,0.0,0.0
1229,58.0,0,1024,2.0,0.0
1230,62.0,512,512,1.0,0.0
1231,46.0,0,1024,3.0,0.0
1232,34.0,0,1024,4.0,0.0
1233,70.0,512,512,1.0,0.0
1234,48.0,512,1024,3.0,0.0
1235,36.0,0,1024,4.0,0.0
1236,68.0,512,512,1.0,0.0
1237,67.0,0,512,1.0,0.0
1238,50.0,1024,1024,3.0,0.0
1239,38.0,0,1024,4.0,0.0
1240,65.0,512,512,1.0,0.0
1241,68.0,0,512,1.0,0.0
1242,51.0,0,1024,3.0,0.0
1243,67.0,0,1024,1.0,0.0
1244,39.0,0,1024,4.0,0.0
1245,63.0,512,512,2.0,0.0
1246,68.0,0,1024,1.0,0.0
1247,53.0,0,1024,3.0,0.0
1248,41.0,0,1024,4.0,0.0
1249,61.0,512,512,2.0,0.0
1250,60.0,0,512,2.0,0.0
1251,43.0,0,1024,4.0,0.0
1252,70.0,512,1536,1.0,0.0
1253,58.0,512,512,2.0,0.0
1254,55.0,0,1024,3.0,0.0
1255,61.0,512,512,2.0,0.0
1256,56.0,0,3584,3.0,0.0
1257,60.0,0,512,2.0,0.0
1258,70.0,0,512,1.0,0.0
1259,61.0,512,512,2.0,0.0
1260,60.0,512,512,2.0,0.0
1261,68.0,0,512,1.0,0.0
1262,58.0,512,512,2.0,0.0
1263,67.0,0,512,1.0,0.0
1264,56.0,512,512,2.0,0.0
1265,65.0,0,512,1.0,0.0
1266,68.0,0,512,1.0,0.0
1267,60.0,512,512,2.0,0.0
1268,62.0,512,1024,1.0,0.0
1269,70.0,0,3072,0.0,0.0
1270,53.0,0,1024,2.0,0.0
1271,56.0,0,512,3.0,0.0
1272,44.0,512,0,4.0,0.0
1273,43.0,512,512,4.0,0.0
1274,55.0,0,512,3.0,0.0
1275,63.0,0,512,1.0,0.0
1276,55.0,0,512,2.0,0.0
1277,53.0,0,512,3.0,0.0
1278,41.0,512,512,4.0,0.0
1279,65.0,0,512,1.0,0.0
1280,56.0,0,512,2.0,0.0
1281,39.0,512,512,4.0,0.0
1282,51.0,0,512,3.0,0.0
1283,43.0,512,512,4.0,0.0
1284,55.0,0,512,3.0,0.0
1285,33.0,0,1024,4.0,0.0
1286,45.0,0,1024,3.0,0.0
1287,72.0,256,768,0.0,0.0
1288,58.0,0,0,2.0,0.0
1289,67.0,256,0,1.0,0.0
1290,74.0,0,256,0.0,0.0
1291,47.0,0,2048,3.0,0.0
1292,35.0,0,2048,4.0,0.0
1293,65.0,512,512,1.0,0.0
1294,74.0,0,1536,0.0,0.0
1295,56.0,0,512,2.0,0.0
1296,63.0,0,512,1.0,0.0
1297,55.0,512,512,2.0,0.0
1298,53.0,0,512,2.0,0.0
1299,62.0,256,512,1.0,0.0
1300,72.0,256,256,0.0,0.0
1301,65.0,0,512,1.0,0.0
1302,56.0,0,512,2.0,0.0
1303,74.0,512,256,0.0,0.0
1304,75.0,512,2048,0.0,0.0
1305,55.0,512,512,2.0,0.0
1306,48.0,512,1024,3.0,0.0
1307,36.0,0,1024,4.0,0.0
1308,63.0,0,1024,1.0,0.0
1309,60.0,0,512,2.0,0.0
1310,65.0,0,1024,1.0,0.0
1311,58.0,512,512,2.0,0.0
1312,38.0,0,1024,4.0,0.0
1313,50.0,0,1024,3.0,0.0
1314,56.0,0,512,2.0,0.0
1315,39.0,0,1024,4.0,0.0
1316,51.0,0,1024,3.0,0.0
1317,55.0,512,512,2.0,0.0
1318,75.0,512,1536,0.0,0.0
1319,67.0,512,1024,1.0,0.0
1320,58.0,0,512,2.0,0.0
1321,60.0,512,1024,1.0,0.0
1322,41.0,512,3072,4.0,0.0
1323,53.0,0,3072,3.0,0.0
1324,57.0,0,1024,2.0,0.0
1325,79.0,0,512,0.0,0.0
1326,62.0,0,1024,1.0,0.0
1327,77.0,512,512,0.0,0.0
1328,58.0,512,1024,2.0,0.0
1329,75.0,0,512,0.0,0.0
1330,63.0,0,2048,1.0,0.0
1331,60.0,0,2048,2.0,0.0
1332,74.0,512,512,0.0,0.0
1333,72.0,0,512,0.0,0.0
1334,54.0,0,1024,3.0,0.0
1335,70.0,512,512,0.0,0.0
1336,42.0,512,1024,4.0,0.0
1337,69.0,0,512,0.0,0.0
1338,43.0,256,2048,4.0,0.0
1339,55.0,0,2048,3.0,0.0
1340,70.0,0,512,0.0,0.0
1341,58.0,512,512,2.0,0.0
1342,69.0,0,512,0.0,0.0
1343,60.0,512,512,2.0,0.0
1344,70.0,256,1280,0.0,0.0
1345,61.0,0,1536,2.0,0.0
1346,64.0,512,0,1.0,0.0
1347,65.0,512,3584,1.0,0.0
1348,53.0,0,2048,3.0,0.0
1349,41.0,512,2048,4.0,0.0
1350,69.0,256,256,0.0,0.0
1351,58.0,512,1024,2.0,0.0
1352,70.0,256,256,0.0,0.0
1353,75.0,512,256,0.0,0.0
1354,74.0,0,1024,0.0,0.0
1355,57.0,0,512,2.0,0.0
1356,72.0,0,512,0.0,0.0
1357,55.0,256,512,2.0,0.0
1358,51.0,0,1024,3.0,0.0
1359,39.0,0,1024,4.0,0.0
1360,70.0,256,256,0.0,0.0
1361,57.0,0,512,2.0,0.0
1362,72.0,512,256,0.0,0.0
1363,38.0,0,1024,4.0,0.0
1364,50.0,512,1024,3.0,0.0
1365,58.0,512,3584,2.0,0.0
1366,70.0,0,5120,0.0,0.0
1367,62.0,0,512,1.0,0.0
1368,36.0,512,1024,4.0,0.0
1369,63.0,512,512,1.0,0.0
1370,48.0,0,1024,3.0,0.0
1371,65.0,0,512,1.0,0.0
1372,34.0,512,1024,4.0,0.0
1373,67.0,512,512,1.0,0.0
1374,46.0,0,1024,3.0,0.0
1375,68.0,0,512,1.0,0.0
1376,67.0,512,3584,1.0,0.0
1377,51.0,512,3072,3.0,0.0
1378,39.0,0,3072,4.0,0.0
1379,55.0,512,512,2.0,0.0
1380,56.0,512,512,2.0,0.0
1381,58.0,512,512,2.0,0.0
1382,60.0,512,512,2.0,0.0
1383,61.0,0,512,2.0,0.0
1384,40.0,512,1024,4.0,0.0
1385,60.0,512,3584,2.0,0.0
1386,52.0,0,1024,3.0,0.0
1387,64.0,0,512,1.0,0.0
1388,50.0,0,1024,3.0,0.0
1389,38.0,0,1024,4.0,0.0
1390,65.0,512,512,1.0,0.0
1391,67.0,512,512,1.0,0.0
1392,48.0,0,1024,3.0,0.0
1393,36.0,0,1024,4.0,0.0
1394,68.0,512,512,1.0,0.0
1395,70.0,512,512,1.0,0.0
1396,53.0,512,3072,3.0,0.0
1397,41.0,0,3072,4.0,0.0
1398,68.0,512,3584,1.0,0.0
1399,56.0,512,512,2.0,0.0
1400,58.0,512,512,2.0,0.0
1401,60.0,512,512,2.0,0.0
1402,61.0,512,512,2.0,0.0
1403,63.0,0,512,2.0,0.0
1404,34.0,512,1024,4.0,0.0
1405,61.0,512,3584,2.0,0.0
1406,46.0,0,1024,3.0,0.0
1407,72.0,0,512,1.0,0.0
1408,48.0,512,1024,3.0,0.0
1409,70.0,512,512,1.0,0.0
1410,36.0,0,1024,4.0,0.0
1411,68.0,0,512,1.0,0.0
1412,37.0,0,1024,4.0,0.0
1413,67.0,512,512,1.0,0.0
1414,49.0,512,1024,3.0,0.0
1415,65.0,0,512,1.0,0.0
1416,48.0,0,1024,3.0,0.0
1417,36.0,512,1024,4.0,0.0
1418,64.0,0,1024,1.0,0.0
1419,61.0,0,512,2.0,0.0
1420,50.0,0,1024,3.0,0.0
1421,65.0,512,1024,1.0,0.0
1422,60.0,512,512,2.0,0.0
1423,38.0,0,1024,4.0,0.0
1424,58.0,0,512,2.0,0.0
1425,40.0,0,1024,4.0,0.0
1426,67.0,512,1536,1.0,0.0
1427,56.0,512,512,2.0,0.0
1428,52.0,512,1024,3.0,0.0
1429,55.0,0,512,2.0,0.0
1430,41.0,512,1024,4.0,0.0
1431,56.0,0,4096,2.0,0.0
1432,53.0,0,1024,3.0,0.0
1433,70.0,0,512,1.0,0.0
1434,43.0,512,1024,4.0,0.0
1435,68.0,512,512,1.0,0.0
1436,55.0,0,1024,3.0,0.0
1437,67.0,0,512,1.0,0.0
1438,56.0,0,1024,3.0,0.0
1439,65.0,512,512,1.0,0.0
1440,44.0,0,1024,4.0,0.0
1441,63.0,512,512,1.0,0.0
1442,61.0,512,512,1.0,0.0
1443,46.0,512,1024,3.0,0.0
1444,34.0,0,1024,4.0,0.0
1445,65.0,0,512,1.0,0.0
1446,63.0,512,512,1.0,0.0
1447,51.0,0,1024,3.0,0.0
1448,55.0,0,1536,2.0,0.0
1449,39.0,512,1024,4.0,0.0
1450,61.0,0,512,1.0,0.0
1451,60.0,256,512,1.0,0.0
1452,39.0,0,1024,3.0,0.0
1453,27.0,0,1024,4.0,0.0
1454,53.0,256,256,2.0,0.0
1455,58.0,512,512,1.0,0.0
1456,55.0,0,256,2.0,0.0
1457,44.0,0,3584,3.0,0.0
1458,56.0,512,512,2.0,0.0
1459,32.0,512,3584,4.0,0.0
1460,60.0,0,512,1.0,0.0
1461,58.0,0,512,2.0,0.0
1462,61.0,512,512,1.0,0.0
1463,63.0,512,512,1.0,0.0
1464,60.0,0,512,2.0,0.0
1465,65.0,512,512,1.0,0.0
1466,62.0,0,512,2.0,0.0
1467,63.0,512,512,2.0,0.0
1468,67.0,0,512,1.0,0.0
1469,65.0,512,512,2.0,0.0
1470,68.0,0,512,1.0,0.0
1471,65.0,0,3072,0.0,0.0
1472,62.0,0,2048,1.0,0.0
1473,58.0,512,1024,2.0,0.0
1474,48.0,0,512,3.0,0.0
1475,36.0,0,512,4.0,0.0
1476,34.0,512,512,4.0,0.0
1477,53.0,0,1024,2.0,0.0
1478,46.0,0,512,3.0,0.0
1479,32.0,0,512,4.0,0.0
1480,44.0,512,512,3.0,0.0
1481,43.0,512,512,3.0,0.0
1482,58.0,0,2048,2.0,0.0
1483,31.0,0,512,4.0,0.0
1484,61.0,0,2048,1.0,0.0
1485,41.0,0,512,3.0,0.0
1486,29.0,512,512,4.0,0.0
1487,28.0,0,512,4.0,0.0
1488,40.0,512,512,3.0,0.0
1489,67.0,512,3072,0.0,0.0
1490,37.0,512,512,4.0,0.0
1491,49.0,0,512,3.0,0.0
1492,52.0,0,2048,2.0,0.0
1493,48.0,512,512,3.0,0.0
1494,55.0,0,1024,1.0,0.0
1495,36.0,0,512,4.0,0.0
1496,34.0,0,512,4.0,0.0
1497,46.0,512,512,3.0,0.0
1498,60.0,0,2048,1.0,0.0
1499,32.0,0,512,4.0,0.0
1500,44.0,512,512,3.0,0.0
1501,31.0,0,512,4.0,0.0
1502,43.0,0,512,3.0,0.0
1503,41.0,0,1024,3.0,0.0
1504,29.0,512,1024,4.0,0.0
1505,53.0,512,512,2.0,0.0
1506,68.0,0,2048,0.0,0.0
1507,55.0,0,512,2.0,0.0
1508,56.0,512,512,2.0,0.0
1509,43.0,0,1024,3.0,0.0
1510,31.0,0,1024,4.0,0.0
1511,58.0,512,512,2.0,0.0
1512,44.0,0,1024,3.0,0.0
1513,32.0,512,1024,4.0,0.0
1514,68.0,0,2048,0.0,0.0
1515,60.0,512,512,2.0,0.0
1516,53.0,0,512,2.0,0.0
1517,61.0,512,512,2.0,0.0
1518,46.0,0,1024,3.0,0.0
1519,34.0,0,1024,4.0,0.0
1520,53.0,512,512,2.0,0.0
1521,67.0,512,512,0.0,0.0
1522,52.0,0,512,2.0,0.0
1523,36.0,0,1024,4.0,0.0
1524,48.0,0,1024,3.0,0.0
1525,58.0,0,512,2.0,0.0
1526,64.0,512,512,0.0,0.0
1527,37.0,512,1024,4.0,0.0
1528,56.0,0,512,2.0,0.0
1529,49.0,0,1024,3.0,0.0
1530,65.0,512,512,0.0,0.0
1531,52.0,0,512,2.0,0.0
1532,73.0,0,512,0.0,0.0
1533,72.0,512,512,0.0,0.0
1534,53.0,0,2048,2.0,0.0
1535,44.0,0,1024,3.0,0.0
1536,32.0,0,1024,4.0,0.0
1537,65.0,0,512,0.0,0.0
1538,60.0,512,512,1.0,0.0
1539,34.0,0,1024,4.0,0.0
1540,61.0,512,512,1.0,0.0
1541,68.0,512,1024,0.0,0.0
1542,46.0,0,1024,3.0,0.0
1543,60.0,0,512,1.0,0.0
1544,67.0,256,512,0.0,0.0
1545,48.0,0,1024,3.0,0.0
1546,52.0,0,1024,2.0,0.0
1547,36.0,0,1024,4.0,0.0
1548,58.0,0,512,1.0,0.0
1549,60.0,0,512,1.0,0.0
1550,65.0,256,256,0.0,0.0
1551,67.0,512,256,0.0,0.0
1552,57.0,512,512,1.0,0.0
1553,53.0,512,1024,2.0,0.0
1554,65.0,0,8192,0.0,0.0
1555,41.0,0,1024,3.0,0.0
1556,29.0,0,1024,4.0,0.0
1557,65.0,512,1024,1.0,0.0
1558,55.0,0,1024,2.0,0.0
1559,63.0,512,512,1.0,0.0
1560,57.0,512,1024,2.0,0.0
1561,61.0,512,512,1.0,0.0
1562,53.0,0,1024,3.0,0.0
1563,41.0,0,1024,4.0,0.0
1564,60.0,0,512,1.0,0.0
1565,58.0,512,1536,2.0,0.0
1566,61.0,512,512,1.0,0.0
1567,58.0,512,1024,3.0,0.0
1568,46.0,0,1024,4.0,0.0
1569,65.0,0,512,1.0,0.0
1570,70.0,0,512,1.0,0.0
1571,69.0,0,512,1.0,0.0
1572,60.0,512,512,2.0,0.0
1573,46.0,0,1024,3.0,0.0
1574,70.0,0,512,1.0,0.0
1575,61.0,512,512,2.0,0.0
1576,34.0,512,1024,4.0,0.0
1577,72.0,0,512,1.0,0.0
1578,63.0,0,512,2.0,0.0
1579,69.0,0,1024,1.0,0.0
1580,65.0,512,512,2.0,0.0
1581,29.0,512,1024,4.0,0.0
1582,41.0,0,1024,3.0,0.0
1583,66.0,0,512,2.0,0.0
1584,65.0,512,512,2.0,0.0
1585,70.0,512,1024,1.0,0.0
1586,43.0,0,1024,3.0,0.0
1587,31.0,0,1024,4.0,0.0
1588,63.0,0,512,2.0,0.0
1589,61.0,512,512,2.0,0.0
1590,72.0,512,1024,1.0,0.0
1591,33.0,0,1024,4.0,0.0
1592,45.0,0,1024,3.0,0.0
1593,60.0,0,512,2.0,0.0
1594,58.0,512,512,2.0,0.0
1595,34.0,512,1024,4.0,0.0
1596,46.0,0,1024,3.0,0.0
1597,73.0,512,3584,1.0,0.0
1598,72.0,0,512,2.0,0.0
1599,70.0,512,512,2.0,0.0
1600,48.0,0,1024,3.0,0.0
1601,36.0,512,1024,4.0,0.0
1602,68.0,0,512,2.0,0.0
1603,49.0,0,1024,3.0,0.0
1604,37.0,0,1024,4.0,0.0
1605,66.0,512,512,2.0,0.0
1606,65.0,512,512,2.0,0.0
1607,51.0,0,1024,3.0,0.0
1608,66.0,512,1536,2.0,0.0
1609,39.0,0,1024,4.0,0.0
1610,77.0,512,512,1.0,0.0
1611,41.0,0,1024,4.0,0.0
1612,75.0,0,512,1.0,0.0
1613,53.0,512,1024,3.0,0.0
1614,65.0,0,512,2.0,0.0
1615,73.0,0,512,1.0,0.0
1616,54.0,0,1024,3.0,0.0
1617,63.0,0,1536,2.0,0.0
1618,72.0,256,512,1.0,0.0
1619,42.0,0,1024,4.0,0.0
1620,73.0,256,256,1.0,0.0
1621,75.0,512,256,1.0,0.0
1622,41.0,0,512,4.0,0.0
1623,53.0,512,512,3.0,0.0
1624,69.0,0,1536,1.0,0.0
1625,39.0,0,512,4.0,0.0
1626,66.0,0,512,2.0,0.0
1627,51.0,512,512,3.0,0.0
1628,37.0,0,512,4.0,0.0
1629,65.0,0,512,2.0,0.0
1630,49.0,512,512,3.0,0.0
1631,63.0,0,512,2.0,0.0
1632,48.0,0,512,3.0,0.0
1633,36.0,512,512,4.0,0.0
1634,69.0,0,512,1.0,0.0
1635,61.0,512,1536,2.0,0.0
1636,46.0,0,512,3.0,0.0
1637,34.0,512,512,4.0,0.0
1638,70.0,0,1536,1.0,0.0
1639,32.0,512,512,4.0,0.0
1640,44.0,0,512,3.0,0.0
1641,30.0,0,512,4.0,0.0
1642,42.0,0,512,3.0,0.0
1643,27.0,512,512,4.0,0.0
1644,39.0,0,512,3.0,0.0
1645,72.0,0,512,1.0,0.0
1646,63.0,0,512,2.0,0.0
1647,60.0,512,512,2.0,0.0
1648,41.0,0,1024,3.0,0.0
1649,29.0,512,1024,4.0,0.0
1650,69.0,0,1536,1.0,0.0
1651,65.0,0,512,2.0,0.0
1652,41.0,0,1024,4.0,0.0
1653,63.0,512,512,2.0,0.0
1654,53.0,0,1024,3.0,0.0
1655,65.0,512,512,2.0,0.0
1656,69.0,0,512,1.0,0.0
1657,46.0,0,1024,3.0,0.0
1658,70.0,0,1024,1.0,0.0
1659,34.0,0,1024,4.0,0.0
1660,62.0,512,512,2.0,0.0
1661,60.0,768,512,2.0,0.0
1662,65.0,0,768,1.0,0.0
1663,58.0,0,1024,3.0,0.0
1664,46.0,768,1024,4.0,0.0
1665,62.0,256,768,2.0,0.0
1666,63.0,0,256,2.0,0.0
1667,67.0,0,256,1.0,0.0
1668,53.0,0,1024,3.0,0.0
1669,41.0,0,1024,4.0,0.0
1670,60.0,0,768,2.0,0.0
1671,63.0,128,768,1.0,0.0
1672,62.0,0,128,1.0,0.0
1673,58.0,128,128,2.0,0.0
1674,63.0,512,128,1.0,0.0
1675,60.0,0,128,2.0,0.0
1676,55.0,512,1024,3.0,0.0
1677,58.0,512,512,2.0,0.0
1678,43.0,0,1024,4.0,0.0
1679,62.0,0,1024,1.0,0.0
1680,60.0,0,512,2.0,0.0
1681,31.0,0,1024,4.0,0.0
1682,43.0,0,1024,3.0,0.0
1683,62.0,256,512,2.0,0.0
1684,70.0,256,768,1.0,0.0
1685,63.0,0,512,2.0,0.0
1686,72.0,768,256,1.0,0.0
1687,50.0,0,1024,3.0,0.0
1688,68.0,128,768,1.0,0.0
1689,38.0,0,1024,4.0,0.0
1690,65.0,256,1792,2.0,0.0
1691,67.0,128,128,1.0,0.0
1692,68.0,768,128,1.0,0.0
1693,39.0,512,1024,4.0,0.0
1694,67.0,512,1536,1.0,0.0
1695,51.0,0,1024,3.0,0.0
1696,67.0,0,256,2.0,0.0
1697,63.0,0,1536,2.0,0.0
1698,48.0,0,1024,3.0,0.0
1699,36.0,0,1024,4.0,0.0
1700,65.0,512,512,1.0,0.0
1701,41.0,0,1024,4.0,0.0
1702,67.0,256,512,1.0,0.0
1703,53.0,0,1024,3.0,0.0
1704,69.0,0,512,1.0,0.0
1705,62.0,256,256,2.0,0.0
1706,63.0,512,256,2.0,0.0
1707,46.0,0,1024,3.0,0.0
1708,34.0,512,1024,4.0,0.0
1709,70.0,0,2560,1.0,0.0
1710,62.0,512,512,2.0,0.0
1711,60.0,0,512,2.0,0.0
1712,58.0,512,512,2.0,0.0
1713,48.0,0,1024,3.0,0.0
1714,36.0,0,1024,4.0,0.0
1715,56.0,512,512,2.0,0.0
1716,50.0,512,1024,3.0,0.0
1717,38.0,0,1024,4.0,0.0
1718,55.0,512,512,2.0,0.0
1719,53.0,0,512,2.0,0.0
1720,68.0,0,512,1.0,0.0
1721,67.0,512,512,1.0,0.0
1722,39.0,768,2048,4.0,0.0
1723,51.0,768,1024,2.0,0.0
1724,51.0,0,2048,3.0,0.0
1725,65.0,0,512,1.0,0.0
1726,58.0,256,768,2.0,0.0
1727,67.0,0,768,1.0,0.0
1728,68.0,0,256,1.0,0.0
1729,60.0,0,256,2.0,0.0
1730,46.0,0,1024,3.0,0.0
1731,65.0,0,768,1.0,0.0
1732,56.0,128,768,2.0,0.0
1733,34.0,0,1024,4.0,0.0
1734,55.0,0,128,2.0,0.0
1735,63.0,128,128,1.0,0.0
1736,56.0,0,128,2.0,0.0
1737,65.0,512,128,1.0,0.0
1738,63.0,512,512,1.0,0.0
1739,36.0,0,1024,4.0,0.0
1740,48.0,512,1024,3.0,0.0
1741,55.0,0,1024,2.0,0.0
1742,65.0,0,512,1.0,0.0
1743,48.0,0,1024,4.0,0.0
1744,60.0,768,1024,3.0,0.0
1745,63.0,256,768,2.0,0.0
1746,67.0,256,512,1.0,0.0
1747,68.0,0,512,1.0,0.0
1748,65.0,0,256,2.0,0.0
1749,61.0,128,768,2.0,0.0
1750,43.0,512,1024,4.0,0.0
1751,70.0,512,1536,1.0,0.0
1752,55.0,0,1024,3.0,0.0
1753,60.0,128,128,2.0,0.0
1754,61.0,0,128,2.0,0.0
1755,60.0,512,1536,2.0,0.0
1756,56.0,0,1024,3.0,0.0
1757,44.0,512,1024,4.0,0.0
1758,72.0,0,512,1.0,0.0
1759,41.0,512,1024,4.0,0.0
1760,53.0,0,1024,3.0,0.0
1761,68.0,0,1536,1.0,0.0
1762,58.0,0,512,2.0,0.0
1763,58.0,512,1024,3.0,0.0
1764,46.0,0,1024,4.0,0.0
1765,60.0,256,512,2.0,0.0
1766,67.0,256,256,1.0,0.0
1767,62.0,0,512,2.0,0.0
1768,68.0,0,256,1.0,0.0
1769,67.0,0,512,1.0,0.0
1770,63.0,512,512,2.0,0.0
1771,39.0,0,1024,4.0,0.0
1772,51.0,512,1024,3.0,0.0
1773,68.0,0,512,1.0,0.0
1774,65.0,0,512,2.0,0.0
1775,67.0,0,512,1.0,0.0
1776,41.0,0,1024,4.0,0.0
1777,63.0,512,512,2.0,0.0
1778,53.0,512,1024,3.0,0.0
1779,65.0,0,512,1.0,0.0
1780,62.0,0,512,2.0,0.0
1781,55.0,0,1024,3.0,0.0
1782,60.0,512,512,2.0,0.0
1783,63.0,0,512,1.0,0.0
1784,43.0,0,1024,4.0,0.0
1785,59.0,0,512,2.0,0.0
1786,62.0,512,512,1.0,0.0
1787,48.0,0,512,3.0,0.0
1788,36.0,512,512,4.0,0.0
1789,63.0,0,512,1.0,0.0
1790,60.0,0,1024,2.0,0.0
1791,67.0,512,1536,0.0,0.0
1792,39.0,0,512,4.0,0.0
1793,67.0,512,512,1.0,0.0
1794,51.0,0,512,3.0,0.0
1795,65.0,0,512,1.0,0.0
1796,38.0,0,512,4.0,0.0
1797,50.0,0,512,3.0,0.0
1798,63.0,0,512,1.0,0.0
1799,48.0,512,512,3.0,0.0
1800,36.0,0,512,4.0,0.0
1801,68.0,0,0,0.0,0.0
1802,34.0,0,512,4.0,0.0
1803,46.0,0,512,3.0,0.0
1804,61.0,256,512,1.0,0.0
1805,44.0,512,512,3.0,0.0
1806,32.0,0,512,4.0,0.0
1807,60.0,0,512,1.0,0.0
1808,67.0,128,128,0.0,0.0
1809,68.0,0,128,0.0,0.0
1810,31.0,0,512,4.0,0.0
1811,43.0,512,512,3.0,0.0
1812,58.0,0,1536,1.0,0.0
1813,70.0,0,3072,0.0,0.0
1814,50.0,0,512,2.0,0.0
1815,44.0,512,512,3.0,0.0
1816,32.0,0,512,4.0,0.0
1817,51.0,0,512,2.0,0.0
1818,43.0,0,512,3.0,0.0
1819,31.0,512,512,4.0,0.0
1820,55.0,0,512,2.0,0.0
1821,41.0,0,512,3.0,0.0
1822,58.0,0,512,1.0,0.0
1823,29.0,512,512,4.0,0.0
1824,27.0,0,512,4.0,0.0
1825,39.0,512,512,3.0,0.0
1826,56.0,0,512,2.0,0.0
1827,60.0,0,512,1.0,0.0
1828,26.0,512,512,4.0,0.0
1829,58.0,0,512,2.0,0.0
1830,38.0,0,512,3.0,0.0
1831,62.0,0,512,1.0,0.0
1832,68.0,1024,1024,0.0,0.0
1833,24.0,0,1024,4.0,0.0
1834,36.0,0,1024,3.0,0.0
1835,60.0,512,512,2.0,0.0
1836,63.0,0,512,1.0,0.0
1837,62.0,0,512,2.0,0.0
1838,65.0,0,512,1.0,0.0
1839,67.0,512,1024,1.0,0.0
1840,63.0,0,1024,2.0,0.0
1841,48.0,0,1024,3.0,0.0
1842,36.0,0,1024,4.0,0.0
1843,67.0,0,512,0.0,0.0
1844,31.0,0,1024,4.0,0.0
1845,58.0,0,1024,2.0,0.0
1846,43.0,128,1024,3.0,0.0
1847,70.0,256,512,0.0,0.0
1848,63.0,0,1024,1.0,0.0
1849,68.0,256,256,0.0,0.0
1850,67.0,0,256,0.0,0.0
1851,44.0,0,1024,3.0,0.0
1852,60.0,512,512,1.0,0.0
1853,32.0,512,1024,4.0,0.0
1854,65.0,384,128,0.0,0.0
1855,56.0,0,512,2.0,0.0
1856,63.0,0,384,0.0,0.0
1857,68.0,0,512,0.0,0.0
1858,62.0,0,512,1.0,0.0
1859,53.0,0,512,2.0,0.0
1860,63.0,256,512,1.0,0.0
1861,67.0,0,512,0.0,0.0
1862,60.0,0,512,2.0,0.0
1863,68.0,128,256,0.0,0.0
1864,41.0,0,512,3.0,0.0
1865,62.0,0,512,1.0,0.0
1866,56.0,512,512,2.0,0.0
1867,29.0,0,512,4.0,0.0
1868,70.0,128,128,0.0,0.0
1869,72.0,0,128,0.0,0.0
1870,31.0,0,512,4.0,0.0
1871,58.0,512,1024,2.0,0.0
1872,43.0,512,512,3.0,0.0
1873,63.0,0,512,1.0,0.0
1874,70.0,256,1536,0.0,0.0
1875,38.0,0,512,3.0,0.0
1876,26.0,0,512,4.0,0.0
1877,65.0,0,512,1.0,0.0
1878,67.0,0,512,1.0,0.0
1879,63.0,512,1536,2.0,0.0
1880,39.0,0,512,3.0,0.0
1881,27.0,0,512,4.0,0.0
1882,32.0,0,512,4.0,0.0
1883,65.0,0,512,1.0,0.0
1884,44.0,0,512,3.0,0.0
1885,72.0,256,256,0.0,0.0
1886,68.0,512,256,0.0,0.0
1887,67.0,0,1024,0.0,0.0
1888,46.0,512,2048,3.0,0.0
1889,34.0,0,2048,4.0,0.0
1890,67.0,0,512,1.0,0.0
1891,68.0,768,512,1.0,0.0
1892,60.0,0,512,2.0,0.0
1893,65.0,128,768,0.0,0.0
1894,61.0,0,2048,2.0,0.0
1895,70.0,512,1536,1.0,0.0
1896,63.0,128,128,0.0,0.0
1897,65.0,0,128,0.0,0.0
1898,36.0,512,1536,4.0,0.0
1899,48.0,0,1536,3.0,0.0
1900,63.0,0,15360,0.0,0.0
1901,63.0,512,512,1.0,0.0
1902,60.0,0,512,2.0,0.0
1903,68.0,512,2560,1.0,0.0
1904,61.0,0,512,2.0,0.0
1905,46.0,0,512,3.0,0.0
1906,34.0,512,512,4.0,0.0
1907,63.0,0,512,2.0,0.0
1908,36.0,0,512,4.0,0.0
1909,48.0,512,512,3.0,0.0
1910,50.0,0,512,3.0,0.0
1911,38.0,0,512,4.0,0.0
1912,65.0,512,512,2.0,0.0
1913,39.0,0,1536,4.0,0.0
1914,51.0,0,1536,3.0,0.0
1915,58.0,512,3584,2.0,0.0
1916,68.0,512,512,1.0,0.0
1917,67.0,512,512,1.0,0.0
1918,65.0,0,512,1.0,0.0
1919,39.0,512,512,4.0,0.0
1920,51.0,0,512,3.0,0.0
1921,63.0,0,512,1.0,0.0
1922,53.0,512,512,3.0,0.0
1923,41.0,0,512,4.0,0.0
1924,43.0,0,512,4.0,0.0
1925,61.0,512,512,1.0,0.0
1926,55.0,0,512,3.0,0.0
1927,56.0,512,1536,3.0,0.0
1928,44.0,0,1536,4.0,0.0
1929,58.0,512,512,2.0,0.0
1930,56.0,0,512,2.0,0.0
1931,34.0,0,512,4.0,0.0
1932,55.0,0,512,2.0,0.0
1933,46.0,512,512,3.0,0.0
1934,48.0,0,512,3.0,0.0
1935,36.0,512,512,4.0,0.0
1936,38.0,512,512,3.0,0.0
1937,26.0,0,512,4.0,0.0
1938,27.0,0,6144,4.0,0.0
1939,39.0,0,6144,3.0,0.0
1940,60.0,512,0,1.0,0.0
1941,58.0,0,5120,1.0,0.0
1942,56.0,512,0,2.0,0.0
1943,55.0,512,512,2.0,0.0
1944,53.0,3072,512,2.0,0.0
1945,55.0,0,3072,2.0,0.0
